{
  "jsonPath": "Soundtracks/Hollywood/Cher/i-found-someone.json",
  "path": "Soundtracks\\Hollywood\\Cher\\I Found Someone.mid",
  "name": "I Found Someone",
  "difficulty": "Advanced",
  "bpm": 117.000117000117,
  "notes": [
    {
      "midi": 50,
      "hit": false,
      "t": 0,
      "d": 1025.64,
      "v": 55
    },
    {
      "midi": 57,
      "hit": false,
      "t": 0,
      "d": 1025.64,
      "v": 65
    },
    {
      "midi": 62,
      "hit": false,
      "t": 0,
      "d": 1025.64,
      "v": 65
    },
    {
      "midi": 65,
      "hit": false,
      "t": 0,
      "d": 1025.64,
      "v": 65
    },
    {
      "midi": 50,
      "hit": false,
      "t": 1025.64,
      "d": 1025.64,
      "v": 55
    },
    {
      "midi": 55,
      "hit": false,
      "t": 1025.64,
      "d": 1025.64,
      "v": 65
    },
    {
      "midi": 60,
      "hit": false,
      "t": 1025.64,
      "d": 1025.64,
      "v": 65
    },
    {
      "midi": 64,
      "hit": false,
      "t": 1025.64,
      "d": 1025.64,
      "v": 65
    },
    {
      "midi": 50,
      "hit": false,
      "t": 2051.28,
      "d": 1014.9562499999997,
      "v": 57
    },
    {
      "midi": 57,
      "hit": false,
      "t": 2307.69,
      "d": 769.23,
      "v": 63
    },
    {
      "midi": 62,
      "hit": false,
      "t": 2307.69,
      "d": 769.23,
      "v": 63
    },
    {
      "midi": 65,
      "hit": false,
      "t": 2307.69,
      "d": 769.23,
      "v": 63
    },
    {
      "midi": 50,
      "hit": false,
      "t": 3076.92,
      "d": 1025.6400000000003,
      "v": 55
    },
    {
      "midi": 55,
      "hit": false,
      "t": 3076.92,
      "d": 1025.6400000000003,
      "v": 65
    },
    {
      "midi": 60,
      "hit": false,
      "t": 3076.92,
      "d": 1025.6400000000003,
      "v": 65
    },
    {
      "midi": 64,
      "hit": false,
      "t": 3076.92,
      "d": 1025.6400000000003,
      "v": 65
    },
    {
      "midi": 50,
      "hit": false,
      "t": 4102.56,
      "d": 1014.9562500000002,
      "v": 57
    },
    {
      "midi": 57,
      "hit": false,
      "t": 4358.97,
      "d": 769.2300000000005,
      "v": 63
    },
    {
      "midi": 62,
      "hit": false,
      "t": 4358.97,
      "d": 769.2300000000005,
      "v": 63
    },
    {
      "midi": 65,
      "hit": false,
      "t": 4358.97,
      "d": 769.2300000000005,
      "v": 63
    },
    {
      "midi": 50,
      "hit": false,
      "t": 5128.200000000001,
      "d": 1014.9562500000002,
      "v": 57
    },
    {
      "midi": 55,
      "hit": false,
      "t": 5384.610000000001,
      "d": 769.2300000000005,
      "v": 63
    },
    {
      "midi": 60,
      "hit": false,
      "t": 5384.610000000001,
      "d": 769.2300000000005,
      "v": 63
    },
    {
      "midi": 64,
      "hit": false,
      "t": 5384.610000000001,
      "d": 769.2300000000005,
      "v": 63
    },
    {
      "midi": 50,
      "hit": false,
      "t": 6153.840000000001,
      "d": 1014.9562500000002,
      "v": 57
    },
    {
      "midi": 57,
      "hit": false,
      "t": 6410.250000000001,
      "d": 769.2300000000005,
      "v": 63
    },
    {
      "midi": 62,
      "hit": false,
      "t": 6410.250000000001,
      "d": 769.2300000000005,
      "v": 63
    },
    {
      "midi": 65,
      "hit": false,
      "t": 6410.250000000001,
      "d": 769.2300000000005,
      "v": 63
    },
    {
      "midi": 50,
      "hit": false,
      "t": 7179.480000000001,
      "d": 512.8199999999997,
      "v": 55
    },
    {
      "midi": 55,
      "hit": false,
      "t": 7179.480000000001,
      "d": 512.8199999999997,
      "v": 65
    },
    {
      "midi": 60,
      "hit": false,
      "t": 7179.480000000001,
      "d": 512.8199999999997,
      "v": 65
    },
    {
      "midi": 64,
      "hit": false,
      "t": 7179.480000000001,
      "d": 512.8199999999997,
      "v": 65
    },
    {
      "midi": 58,
      "hit": false,
      "t": 7692.300000000001,
      "d": 154.9143750000003,
      "v": 60
    },
    {
      "midi": 62,
      "hit": false,
      "t": 7692.300000000001,
      "d": 154.9143750000003,
      "v": 60
    },
    {
      "midi": 65,
      "hit": false,
      "t": 7692.300000000001,
      "d": 154.9143750000003,
      "v": 60
    },
    {
      "midi": 58,
      "hit": false,
      "t": 8205.12,
      "d": 1175.2124999999996,
      "v": 62
    },
    {
      "midi": 65,
      "hit": false,
      "t": 8205.12,
      "d": 1201.921875,
      "v": 54
    },
    {
      "midi": 53,
      "hit": false,
      "t": 9487.17,
      "d": 480.7687499999993,
      "v": 57
    },
    {
      "midi": 58,
      "hit": false,
      "t": 9743.58,
      "d": 213.67499999999927,
      "v": 71
    },
    {
      "midi": 65,
      "hit": false,
      "t": 9743.58,
      "d": 224.35874999999942,
      "v": 59
    },
    {
      "midi": 46,
      "hit": false,
      "t": 10256.4,
      "d": 726.4950000000008,
      "v": 57
    },
    {
      "midi": 58,
      "hit": false,
      "t": 10512.81,
      "d": 470.08500000000095,
      "v": 63
    },
    {
      "midi": 62,
      "hit": false,
      "t": 10512.81,
      "d": 470.08500000000095,
      "v": 63
    },
    {
      "midi": 65,
      "hit": false,
      "t": 10512.81,
      "d": 470.08500000000095,
      "v": 63
    },
    {
      "midi": 48,
      "hit": false,
      "t": 11025.630000000001,
      "d": 1260.682499999999,
      "v": 57
    },
    {
      "midi": 55,
      "hit": false,
      "t": 11538.45,
      "d": 769.2299999999996,
      "v": 63
    },
    {
      "midi": 60,
      "hit": false,
      "t": 11538.45,
      "d": 769.2299999999996,
      "v": 63
    },
    {
      "midi": 64,
      "hit": false,
      "t": 11538.45,
      "d": 769.2299999999996,
      "v": 63
    },
    {
      "midi": 57,
      "hit": false,
      "t": 12307.68,
      "d": 1752.1350000000002,
      "v": 60
    },
    {
      "midi": 62,
      "hit": false,
      "t": 12307.68,
      "d": 1752.1350000000002,
      "v": 60
    },
    {
      "midi": 65,
      "hit": false,
      "t": 12307.68,
      "d": 1752.1350000000002,
      "v": 60
    },
    {
      "midi": 50,
      "hit": false,
      "t": 14102.550000000001,
      "d": 1260.682499999999,
      "v": 57
    },
    {
      "midi": 57,
      "hit": false,
      "t": 14615.37,
      "d": 769.2299999999996,
      "v": 63
    },
    {
      "midi": 62,
      "hit": false,
      "t": 14615.37,
      "d": 769.2299999999996,
      "v": 63
    },
    {
      "midi": 65,
      "hit": false,
      "t": 14615.37,
      "d": 769.2299999999996,
      "v": 63
    },
    {
      "midi": 48,
      "hit": false,
      "t": 15384.6,
      "d": 1025.6400000000012,
      "v": 55
    },
    {
      "midi": 55,
      "hit": false,
      "t": 15384.6,
      "d": 1025.6400000000012,
      "v": 65
    },
    {
      "midi": 60,
      "hit": false,
      "t": 15384.6,
      "d": 1025.6400000000012,
      "v": 65
    },
    {
      "midi": 64,
      "hit": false,
      "t": 15384.6,
      "d": 1025.6400000000012,
      "v": 65
    },
    {
      "midi": 58,
      "hit": false,
      "t": 16410.24,
      "d": 1175.2125000000015,
      "v": 62
    },
    {
      "midi": 65,
      "hit": false,
      "t": 16410.24,
      "d": 1201.921875,
      "v": 54
    },
    {
      "midi": 53,
      "hit": false,
      "t": 17692.29,
      "d": 480.7687499999993,
      "v": 57
    },
    {
      "midi": 58,
      "hit": false,
      "t": 17948.7,
      "d": 213.67499999999927,
      "v": 71
    },
    {
      "midi": 65,
      "hit": false,
      "t": 17948.7,
      "d": 224.35874999999942,
      "v": 59
    },
    {
      "midi": 53,
      "hit": false,
      "t": 18205.11,
      "d": 1052.3493750000016,
      "v": 60
    },
    {
      "midi": 58,
      "hit": false,
      "t": 18205.11,
      "d": 1052.3493750000016,
      "v": 60
    },
    {
      "midi": 62,
      "hit": false,
      "t": 18205.11,
      "d": 1052.3493750000016,
      "v": 60
    },
    {
      "midi": 48,
      "hit": false,
      "t": 19487.160000000003,
      "d": 726.494999999999,
      "v": 55
    },
    {
      "midi": 55,
      "hit": false,
      "t": 19487.160000000003,
      "d": 726.494999999999,
      "v": 65
    },
    {
      "midi": 60,
      "hit": false,
      "t": 19487.160000000003,
      "d": 726.494999999999,
      "v": 65
    },
    {
      "midi": 64,
      "hit": false,
      "t": 19487.160000000003,
      "d": 726.494999999999,
      "v": 65
    },
    {
      "midi": 50,
      "hit": false,
      "t": 20256.390000000003,
      "d": 1271.3662499999991,
      "v": 55
    },
    {
      "midi": 57,
      "hit": false,
      "t": 20256.390000000003,
      "d": 1271.3662499999991,
      "v": 65
    },
    {
      "midi": 62,
      "hit": false,
      "t": 20256.390000000003,
      "d": 1271.3662499999991,
      "v": 65
    },
    {
      "midi": 65,
      "hit": false,
      "t": 20256.390000000003,
      "d": 1271.3662499999991,
      "v": 65
    },
    {
      "midi": 48,
      "hit": false,
      "t": 21538.440000000002,
      "d": 1014.9562499999993,
      "v": 57
    },
    {
      "midi": 55,
      "hit": false,
      "t": 21794.850000000002,
      "d": 769.2299999999996,
      "v": 63
    },
    {
      "midi": 60,
      "hit": false,
      "t": 21794.850000000002,
      "d": 769.2299999999996,
      "v": 63
    },
    {
      "midi": 64,
      "hit": false,
      "t": 21794.850000000002,
      "d": 769.2299999999996,
      "v": 63
    },
    {
      "midi": 46,
      "hit": false,
      "t": 22564.08,
      "d": 726.494999999999,
      "v": 57
    },
    {
      "midi": 58,
      "hit": false,
      "t": 22820.49,
      "d": 470.0849999999991,
      "v": 63
    },
    {
      "midi": 62,
      "hit": false,
      "t": 22820.49,
      "d": 470.0849999999991,
      "v": 63
    },
    {
      "midi": 65,
      "hit": false,
      "t": 22820.49,
      "d": 470.0849999999991,
      "v": 63
    },
    {
      "midi": 48,
      "hit": false,
      "t": 23333.31,
      "d": 1260.682499999999,
      "v": 57
    },
    {
      "midi": 55,
      "hit": false,
      "t": 23846.13,
      "d": 769.2299999999996,
      "v": 63
    },
    {
      "midi": 60,
      "hit": false,
      "t": 23846.13,
      "d": 769.2299999999996,
      "v": 63
    },
    {
      "midi": 64,
      "hit": false,
      "t": 23846.13,
      "d": 769.2299999999996,
      "v": 63
    },
    {
      "midi": 50,
      "hit": false,
      "t": 24615.36,
      "d": 726.494999999999,
      "v": 57
    },
    {
      "midi": 57,
      "hit": false,
      "t": 24871.77,
      "d": 470.0849999999991,
      "v": 63
    },
    {
      "midi": 62,
      "hit": false,
      "t": 24871.77,
      "d": 470.0849999999991,
      "v": 63
    },
    {
      "midi": 65,
      "hit": false,
      "t": 24871.77,
      "d": 470.0849999999991,
      "v": 63
    },
    {
      "midi": 55,
      "hit": false,
      "t": 25384.59,
      "d": 1052.3493750000016,
      "v": 60
    },
    {
      "midi": 60,
      "hit": false,
      "t": 25384.59,
      "d": 1052.3493750000016,
      "v": 60
    },
    {
      "midi": 64,
      "hit": false,
      "t": 25384.59,
      "d": 1052.3493750000016,
      "v": 60
    },
    {
      "midi": 58,
      "hit": false,
      "t": 26666.640000000003,
      "d": 1752.1349999999984,
      "v": 60
    },
    {
      "midi": 62,
      "hit": false,
      "t": 26666.640000000003,
      "d": 1752.1349999999984,
      "v": 60
    },
    {
      "midi": 65,
      "hit": false,
      "t": 26666.640000000003,
      "d": 1752.1349999999984,
      "v": 60
    },
    {
      "midi": 50,
      "hit": false,
      "t": 28974.33,
      "d": 1495.7249999999985,
      "v": 62
    },
    {
      "midi": 57,
      "hit": false,
      "t": 29230.74,
      "d": 1239.3149999999987,
      "v": 64
    },
    {
      "midi": 62,
      "hit": false,
      "t": 29487.15,
      "d": 982.9049999999988,
      "v": 70
    },
    {
      "midi": 69,
      "hit": false,
      "t": 29487.15,
      "d": 982.9049999999988,
      "v": 49
    },
    {
      "midi": 43,
      "hit": false,
      "t": 30512.79,
      "d": 2056.6218750000007,
      "v": 56
    },
    {
      "midi": 58,
      "hit": false,
      "t": 31025.61,
      "d": 1554.4856250000012,
      "v": 66
    },
    {
      "midi": 65,
      "hit": false,
      "t": 31025.61,
      "d": 1554.4856250000012,
      "v": 61
    },
    {
      "midi": 67,
      "hit": false,
      "t": 31025.61,
      "d": 1554.4856250000012,
      "v": 60
    },
    {
      "midi": 45,
      "hit": false,
      "t": 32820.48,
      "d": 1752.135000000002,
      "v": 56
    },
    {
      "midi": 57,
      "hit": false,
      "t": 33076.89000000001,
      "d": 1495.7249999999985,
      "v": 66
    },
    {
      "midi": 65,
      "hit": false,
      "t": 33076.89000000001,
      "d": 1495.7249999999985,
      "v": 61
    },
    {
      "midi": 69,
      "hit": false,
      "t": 33076.89000000001,
      "d": 1495.7249999999985,
      "v": 60
    },
    {
      "midi": 58,
      "hit": false,
      "t": 34615.350000000006,
      "d": 982.9049999999988,
      "v": 60
    },
    {
      "midi": 62,
      "hit": false,
      "t": 34615.350000000006,
      "d": 982.9049999999988,
      "v": 60
    },
    {
      "midi": 65,
      "hit": false,
      "t": 34615.350000000006,
      "d": 982.9049999999988,
      "v": 60
    },
    {
      "midi": 46,
      "hit": false,
      "t": 35640.990000000005,
      "d": 1271.3662499999991,
      "v": 55
    },
    {
      "midi": 62,
      "hit": false,
      "t": 35640.990000000005,
      "d": 1271.3662499999991,
      "v": 65
    },
    {
      "midi": 65,
      "hit": false,
      "t": 35640.990000000005,
      "d": 1271.3662499999991,
      "v": 65
    },
    {
      "midi": 67,
      "hit": false,
      "t": 35640.990000000005,
      "d": 1271.3662499999991,
      "v": 65
    },
    {
      "midi": 70,
      "hit": false,
      "t": 35640.990000000005,
      "d": 1271.3662499999991,
      "v": 65
    },
    {
      "midi": 48,
      "hit": false,
      "t": 36923.04,
      "d": 1025.6399999999994,
      "v": 55
    },
    {
      "midi": 55,
      "hit": false,
      "t": 36923.04,
      "d": 1025.6399999999994,
      "v": 65
    },
    {
      "midi": 60,
      "hit": false,
      "t": 36923.04,
      "d": 1025.6399999999994,
      "v": 65
    },
    {
      "midi": 64,
      "hit": false,
      "t": 36923.04,
      "d": 1025.6399999999994,
      "v": 65
    },
    {
      "midi": 46,
      "hit": false,
      "t": 37948.68,
      "d": 512.8199999999997,
      "v": 55
    },
    {
      "midi": 58,
      "hit": false,
      "t": 37948.68,
      "d": 512.8199999999997,
      "v": 65
    },
    {
      "midi": 62,
      "hit": false,
      "t": 37948.68,
      "d": 512.8199999999997,
      "v": 65
    },
    {
      "midi": 65,
      "hit": false,
      "t": 37948.68,
      "d": 512.8199999999997,
      "v": 65
    },
    {
      "midi": 55,
      "hit": false,
      "t": 38461.5,
      "d": 154.9143750000003,
      "v": 60
    },
    {
      "midi": 60,
      "hit": false,
      "t": 38461.5,
      "d": 154.9143750000003,
      "v": 60
    },
    {
      "midi": 64,
      "hit": false,
      "t": 38461.5,
      "d": 154.9143750000003,
      "v": 60
    },
    {
      "midi": 41,
      "hit": false,
      "t": 38974.32,
      "d": 1025.6399999999994,
      "v": 55
    },
    {
      "midi": 57,
      "hit": false,
      "t": 38974.32,
      "d": 1025.6399999999994,
      "v": 65
    },
    {
      "midi": 60,
      "hit": false,
      "t": 38974.32,
      "d": 1025.6399999999994,
      "v": 65
    },
    {
      "midi": 65,
      "hit": false,
      "t": 38974.32,
      "d": 1025.6399999999994,
      "v": 65
    },
    {
      "midi": 53,
      "hit": false,
      "t": 39999.96,
      "d": 512.8199999999997,
      "v": 55
    },
    {
      "midi": 58,
      "hit": false,
      "t": 39999.96,
      "d": 512.8199999999997,
      "v": 65
    },
    {
      "midi": 62,
      "hit": false,
      "t": 39999.96,
      "d": 512.8199999999997,
      "v": 65
    },
    {
      "midi": 65,
      "hit": false,
      "t": 39999.96,
      "d": 512.8199999999997,
      "v": 65
    },
    {
      "midi": 55,
      "hit": false,
      "t": 40512.78,
      "d": 154.9143750000003,
      "v": 60
    },
    {
      "midi": 60,
      "hit": false,
      "t": 40512.78,
      "d": 154.9143750000003,
      "v": 60
    },
    {
      "midi": 64,
      "hit": false,
      "t": 40512.78,
      "d": 154.9143750000003,
      "v": 60
    },
    {
      "midi": 55,
      "hit": false,
      "t": 40769.19,
      "d": 982.9049999999988,
      "v": 60
    },
    {
      "midi": 60,
      "hit": false,
      "t": 40769.19,
      "d": 982.9049999999988,
      "v": 60
    },
    {
      "midi": 64,
      "hit": false,
      "t": 40769.19,
      "d": 982.9049999999988,
      "v": 60
    },
    {
      "midi": 46,
      "hit": false,
      "t": 41794.83,
      "d": 470.0849999999991,
      "v": 55
    },
    {
      "midi": 58,
      "hit": false,
      "t": 41794.83,
      "d": 470.0849999999991,
      "v": 65
    },
    {
      "midi": 62,
      "hit": false,
      "t": 41794.83,
      "d": 470.0849999999991,
      "v": 65
    },
    {
      "midi": 65,
      "hit": false,
      "t": 41794.83,
      "d": 470.0849999999991,
      "v": 65
    },
    {
      "midi": 55,
      "hit": false,
      "t": 42307.65,
      "d": 405.98249999999825,
      "v": 60
    },
    {
      "midi": 60,
      "hit": false,
      "t": 42307.65,
      "d": 405.98249999999825,
      "v": 60
    },
    {
      "midi": 64,
      "hit": false,
      "t": 42307.65,
      "d": 405.98249999999825,
      "v": 60
    },
    {
      "midi": 41,
      "hit": false,
      "t": 43076.88,
      "d": 1014.9562500000029,
      "v": 57
    },
    {
      "midi": 57,
      "hit": false,
      "t": 43333.29,
      "d": 769.2299999999959,
      "v": 63
    },
    {
      "midi": 60,
      "hit": false,
      "t": 43333.29,
      "d": 769.2299999999959,
      "v": 63
    },
    {
      "midi": 65,
      "hit": false,
      "t": 43333.29,
      "d": 769.2299999999959,
      "v": 63
    },
    {
      "midi": 53,
      "hit": false,
      "t": 44102.52,
      "d": 213.6750000000029,
      "v": 55
    },
    {
      "midi": 58,
      "hit": false,
      "t": 44102.52,
      "d": 213.6750000000029,
      "v": 65
    },
    {
      "midi": 62,
      "hit": false,
      "t": 44102.52,
      "d": 213.6750000000029,
      "v": 65
    },
    {
      "midi": 65,
      "hit": false,
      "t": 44102.52,
      "d": 213.6750000000029,
      "v": 65
    },
    {
      "midi": 55,
      "hit": false,
      "t": 44358.93,
      "d": 405.98249999999825,
      "v": 60
    },
    {
      "midi": 60,
      "hit": false,
      "t": 44358.93,
      "d": 405.98249999999825,
      "v": 60
    },
    {
      "midi": 64,
      "hit": false,
      "t": 44358.93,
      "d": 405.98249999999825,
      "v": 60
    },
    {
      "midi": 55,
      "hit": false,
      "t": 44871.75,
      "d": 1052.349374999998,
      "v": 60
    },
    {
      "midi": 60,
      "hit": false,
      "t": 44871.75,
      "d": 1052.349374999998,
      "v": 60
    },
    {
      "midi": 64,
      "hit": false,
      "t": 44871.75,
      "d": 1052.349374999998,
      "v": 60
    },
    {
      "midi": 46,
      "hit": false,
      "t": 46153.799999999996,
      "d": 512.8199999999997,
      "v": 55
    },
    {
      "midi": 58,
      "hit": false,
      "t": 46153.799999999996,
      "d": 512.8199999999997,
      "v": 65
    },
    {
      "midi": 62,
      "hit": false,
      "t": 46153.799999999996,
      "d": 512.8199999999997,
      "v": 65
    },
    {
      "midi": 65,
      "hit": false,
      "t": 46153.799999999996,
      "d": 512.8199999999997,
      "v": 65
    },
    {
      "midi": 55,
      "hit": false,
      "t": 46666.619999999995,
      "d": 154.9143750000003,
      "v": 60
    },
    {
      "midi": 60,
      "hit": false,
      "t": 46666.619999999995,
      "d": 154.9143750000003,
      "v": 60
    },
    {
      "midi": 64,
      "hit": false,
      "t": 46666.619999999995,
      "d": 154.9143750000003,
      "v": 60
    },
    {
      "midi": 41,
      "hit": false,
      "t": 47179.439999999995,
      "d": 1014.9562500000029,
      "v": 57
    },
    {
      "midi": 57,
      "hit": false,
      "t": 47435.85,
      "d": 769.2299999999959,
      "v": 63
    },
    {
      "midi": 60,
      "hit": false,
      "t": 47435.85,
      "d": 769.2299999999959,
      "v": 63
    },
    {
      "midi": 65,
      "hit": false,
      "t": 47435.85,
      "d": 769.2299999999959,
      "v": 63
    },
    {
      "midi": 53,
      "hit": false,
      "t": 48205.079999999994,
      "d": 213.6750000000029,
      "v": 55
    },
    {
      "midi": 58,
      "hit": false,
      "t": 48205.079999999994,
      "d": 213.6750000000029,
      "v": 65
    },
    {
      "midi": 62,
      "hit": false,
      "t": 48205.079999999994,
      "d": 213.6750000000029,
      "v": 65
    },
    {
      "midi": 65,
      "hit": false,
      "t": 48205.079999999994,
      "d": 213.6750000000029,
      "v": 65
    },
    {
      "midi": 55,
      "hit": false,
      "t": 48461.49,
      "d": 405.98249999999825,
      "v": 60
    },
    {
      "midi": 60,
      "hit": false,
      "t": 48461.49,
      "d": 405.98249999999825,
      "v": 60
    },
    {
      "midi": 64,
      "hit": false,
      "t": 48461.49,
      "d": 405.98249999999825,
      "v": 60
    },
    {
      "midi": 48,
      "hit": false,
      "t": 49230.719999999994,
      "d": 1025.6399999999994,
      "v": 55
    },
    {
      "midi": 55,
      "hit": false,
      "t": 49230.719999999994,
      "d": 1025.6399999999994,
      "v": 65
    },
    {
      "midi": 60,
      "hit": false,
      "t": 49230.719999999994,
      "d": 1025.6399999999994,
      "v": 65
    },
    {
      "midi": 64,
      "hit": false,
      "t": 49230.719999999994,
      "d": 1025.6399999999994,
      "v": 65
    },
    {
      "midi": 46,
      "hit": false,
      "t": 50256.35999999999,
      "d": 726.4950000000026,
      "v": 57
    },
    {
      "midi": 58,
      "hit": false,
      "t": 50512.77,
      "d": 470.0849999999991,
      "v": 63
    },
    {
      "midi": 62,
      "hit": false,
      "t": 50512.77,
      "d": 470.0849999999991,
      "v": 63
    },
    {
      "midi": 65,
      "hit": false,
      "t": 50512.77,
      "d": 470.0849999999991,
      "v": 63
    },
    {
      "midi": 46,
      "hit": false,
      "t": 51025.59,
      "d": 982.9049999999988,
      "v": 55
    },
    {
      "midi": 58,
      "hit": false,
      "t": 51025.59,
      "d": 982.9049999999988,
      "v": 65
    },
    {
      "midi": 62,
      "hit": false,
      "t": 51025.59,
      "d": 982.9049999999988,
      "v": 65
    },
    {
      "midi": 65,
      "hit": false,
      "t": 51025.59,
      "d": 982.9049999999988,
      "v": 65
    },
    {
      "midi": 62,
      "hit": false,
      "t": 52051.229999999996,
      "d": 1052.349374999998,
      "v": 60
    },
    {
      "midi": 65,
      "hit": false,
      "t": 52051.229999999996,
      "d": 1052.349374999998,
      "v": 60
    },
    {
      "midi": 67,
      "hit": false,
      "t": 52051.229999999996,
      "d": 1052.349374999998,
      "v": 60
    },
    {
      "midi": 70,
      "hit": false,
      "t": 52051.229999999996,
      "d": 1052.349374999998,
      "v": 60
    },
    {
      "midi": 48,
      "hit": false,
      "t": 53333.27999999999,
      "d": 1752.135000000002,
      "v": 56
    },
    {
      "midi": 55,
      "hit": false,
      "t": 53589.689999999995,
      "d": 1495.7249999999985,
      "v": 66
    },
    {
      "midi": 64,
      "hit": false,
      "t": 53589.689999999995,
      "d": 1495.7249999999985,
      "v": 61
    },
    {
      "midi": 67,
      "hit": false,
      "t": 53589.689999999995,
      "d": 1495.7249999999985,
      "v": 60
    },
    {
      "midi": 50,
      "hit": false,
      "t": 55128.149999999994,
      "d": 1271.3662499999991,
      "v": 55
    },
    {
      "midi": 57,
      "hit": false,
      "t": 55128.149999999994,
      "d": 1271.3662499999991,
      "v": 65
    },
    {
      "midi": 62,
      "hit": false,
      "t": 55128.149999999994,
      "d": 1271.3662499999991,
      "v": 65
    },
    {
      "midi": 65,
      "hit": false,
      "t": 55128.149999999994,
      "d": 1271.3662499999991,
      "v": 65
    },
    {
      "midi": 55,
      "hit": false,
      "t": 56410.19999999999,
      "d": 726.4950000000026,
      "v": 60
    },
    {
      "midi": 60,
      "hit": false,
      "t": 56410.19999999999,
      "d": 726.4950000000026,
      "v": 60
    },
    {
      "midi": 64,
      "hit": false,
      "t": 56410.19999999999,
      "d": 726.4950000000026,
      "v": 60
    },
    {
      "midi": 57,
      "hit": false,
      "t": 57179.42999999999,
      "d": 1052.349374999998,
      "v": 60
    },
    {
      "midi": 62,
      "hit": false,
      "t": 57179.42999999999,
      "d": 1052.349374999998,
      "v": 60
    },
    {
      "midi": 65,
      "hit": false,
      "t": 57179.42999999999,
      "d": 1052.349374999998,
      "v": 60
    },
    {
      "midi": 55,
      "hit": false,
      "t": 58461.47999999999,
      "d": 726.4950000000026,
      "v": 60
    },
    {
      "midi": 60,
      "hit": false,
      "t": 58461.47999999999,
      "d": 726.4950000000026,
      "v": 60
    },
    {
      "midi": 64,
      "hit": false,
      "t": 58461.47999999999,
      "d": 726.4950000000026,
      "v": 60
    },
    {
      "midi": 50,
      "hit": false,
      "t": 59230.70999999999,
      "d": 1260.6825000000026,
      "v": 57
    },
    {
      "midi": 57,
      "hit": false,
      "t": 59743.52999999999,
      "d": 769.2300000000032,
      "v": 63
    },
    {
      "midi": 62,
      "hit": false,
      "t": 59743.52999999999,
      "d": 769.2300000000032,
      "v": 63
    },
    {
      "midi": 65,
      "hit": false,
      "t": 59743.52999999999,
      "d": 769.2300000000032,
      "v": 63
    },
    {
      "midi": 50,
      "hit": false,
      "t": 60512.759999999995,
      "d": 512.8199999999997,
      "v": 55
    },
    {
      "midi": 55,
      "hit": false,
      "t": 60512.759999999995,
      "d": 512.8199999999997,
      "v": 65
    },
    {
      "midi": 60,
      "hit": false,
      "t": 60512.759999999995,
      "d": 512.8199999999997,
      "v": 65
    },
    {
      "midi": 64,
      "hit": false,
      "t": 60512.759999999995,
      "d": 512.8199999999997,
      "v": 65
    },
    {
      "midi": 58,
      "hit": false,
      "t": 61025.579999999994,
      "d": 154.9143750000003,
      "v": 60
    },
    {
      "midi": 62,
      "hit": false,
      "t": 61025.579999999994,
      "d": 154.9143750000003,
      "v": 60
    },
    {
      "midi": 65,
      "hit": false,
      "t": 61025.579999999994,
      "d": 154.9143750000003,
      "v": 60
    },
    {
      "midi": 46,
      "hit": false,
      "t": 61794.81,
      "d": 1794.87000000001,
      "v": 62
    },
    {
      "midi": 53,
      "hit": false,
      "t": 62051.22,
      "d": 1538.4600000000064,
      "v": 64
    },
    {
      "midi": 58,
      "hit": false,
      "t": 62307.630000000005,
      "d": 1282.050000000003,
      "v": 70
    },
    {
      "midi": 65,
      "hit": false,
      "t": 62307.630000000005,
      "d": 1282.050000000003,
      "v": 49
    },
    {
      "midi": 53,
      "hit": false,
      "t": 63589.68000000001,
      "d": 726.4950000000026,
      "v": 60
    },
    {
      "midi": 58,
      "hit": false,
      "t": 63589.68000000001,
      "d": 726.4950000000026,
      "v": 60
    },
    {
      "midi": 62,
      "hit": false,
      "t": 63589.68000000001,
      "d": 726.4950000000026,
      "v": 60
    },
    {
      "midi": 55,
      "hit": false,
      "t": 64358.91000000001,
      "d": 982.9049999999988,
      "v": 60
    },
    {
      "midi": 60,
      "hit": false,
      "t": 64358.91000000001,
      "d": 982.9049999999988,
      "v": 60
    },
    {
      "midi": 64,
      "hit": false,
      "t": 64358.91000000001,
      "d": 982.9049999999988,
      "v": 60
    },
    {
      "midi": 50,
      "hit": false,
      "t": 65897.37000000001,
      "d": 1794.87000000001,
      "v": 62
    },
    {
      "midi": 57,
      "hit": false,
      "t": 66153.78000000001,
      "d": 1538.4600000000064,
      "v": 64
    },
    {
      "midi": 62,
      "hit": false,
      "t": 66410.19000000002,
      "d": 1282.050000000003,
      "v": 70
    },
    {
      "midi": 69,
      "hit": false,
      "t": 66410.19000000002,
      "d": 1282.050000000003,
      "v": 49
    },
    {
      "midi": 50,
      "hit": false,
      "t": 67692.24000000002,
      "d": 726.4950000000099,
      "v": 57
    },
    {
      "midi": 57,
      "hit": false,
      "t": 67948.65000000002,
      "d": 470.0850000000064,
      "v": 63
    },
    {
      "midi": 62,
      "hit": false,
      "t": 67948.65000000002,
      "d": 470.0850000000064,
      "v": 63
    },
    {
      "midi": 65,
      "hit": false,
      "t": 67948.65000000002,
      "d": 470.0850000000064,
      "v": 63
    },
    {
      "midi": 48,
      "hit": false,
      "t": 68461.47000000003,
      "d": 1260.68250000001,
      "v": 57
    },
    {
      "midi": 55,
      "hit": false,
      "t": 68974.29000000004,
      "d": 769.2299999999959,
      "v": 63
    },
    {
      "midi": 60,
      "hit": false,
      "t": 68974.29000000004,
      "d": 769.2299999999959,
      "v": 63
    },
    {
      "midi": 64,
      "hit": false,
      "t": 68974.29000000004,
      "d": 769.2299999999959,
      "v": 63
    },
    {
      "midi": 58,
      "hit": false,
      "t": 69743.52000000003,
      "d": 1175.2124999999942,
      "v": 62
    },
    {
      "midi": 65,
      "hit": false,
      "t": 69743.52000000003,
      "d": 1201.921875,
      "v": 54
    },
    {
      "midi": 53,
      "hit": false,
      "t": 71025.57000000004,
      "d": 480.7687500000029,
      "v": 57
    },
    {
      "midi": 58,
      "hit": false,
      "t": 71281.98000000004,
      "d": 213.6750000000029,
      "v": 71
    },
    {
      "midi": 65,
      "hit": false,
      "t": 71281.98000000004,
      "d": 224.35874999999942,
      "v": 59
    },
    {
      "midi": 46,
      "hit": false,
      "t": 71794.80000000003,
      "d": 1025.6399999999994,
      "v": 55
    },
    {
      "midi": 58,
      "hit": false,
      "t": 71794.80000000003,
      "d": 1025.6399999999994,
      "v": 65
    },
    {
      "midi": 62,
      "hit": false,
      "t": 71794.80000000003,
      "d": 1025.6399999999994,
      "v": 65
    },
    {
      "midi": 65,
      "hit": false,
      "t": 71794.80000000003,
      "d": 1025.6399999999994,
      "v": 65
    },
    {
      "midi": 48,
      "hit": false,
      "t": 72820.44000000003,
      "d": 1014.9562500000029,
      "v": 57
    },
    {
      "midi": 55,
      "hit": false,
      "t": 73076.85000000003,
      "d": 769.2299999999959,
      "v": 63
    },
    {
      "midi": 60,
      "hit": false,
      "t": 73076.85000000003,
      "d": 769.2299999999959,
      "v": 63
    },
    {
      "midi": 64,
      "hit": false,
      "t": 73076.85000000003,
      "d": 769.2299999999959,
      "v": 63
    },
    {
      "midi": 50,
      "hit": false,
      "t": 73846.08000000003,
      "d": 1014.9562500000029,
      "v": 57
    },
    {
      "midi": 57,
      "hit": false,
      "t": 74102.49000000003,
      "d": 769.2299999999959,
      "v": 63
    },
    {
      "midi": 62,
      "hit": false,
      "t": 74102.49000000003,
      "d": 769.2299999999959,
      "v": 63
    },
    {
      "midi": 65,
      "hit": false,
      "t": 74102.49000000003,
      "d": 769.2299999999959,
      "v": 63
    },
    {
      "midi": 48,
      "hit": false,
      "t": 74871.72000000003,
      "d": 1025.6399999999994,
      "v": 55
    },
    {
      "midi": 55,
      "hit": false,
      "t": 74871.72000000003,
      "d": 1025.6399999999994,
      "v": 65
    },
    {
      "midi": 60,
      "hit": false,
      "t": 74871.72000000003,
      "d": 1025.6399999999994,
      "v": 65
    },
    {
      "midi": 64,
      "hit": false,
      "t": 74871.72000000003,
      "d": 1025.6399999999994,
      "v": 65
    },
    {
      "midi": 46,
      "hit": false,
      "t": 75897.36000000003,
      "d": 726.4949999999953,
      "v": 55
    },
    {
      "midi": 58,
      "hit": false,
      "t": 75897.36000000003,
      "d": 726.4949999999953,
      "v": 65
    },
    {
      "midi": 62,
      "hit": false,
      "t": 75897.36000000003,
      "d": 726.4949999999953,
      "v": 65
    },
    {
      "midi": 65,
      "hit": false,
      "t": 75897.36000000003,
      "d": 726.4949999999953,
      "v": 65
    },
    {
      "midi": 55,
      "hit": false,
      "t": 76666.59000000003,
      "d": 982.9049999999988,
      "v": 60
    },
    {
      "midi": 60,
      "hit": false,
      "t": 76666.59000000003,
      "d": 982.9049999999988,
      "v": 60
    },
    {
      "midi": 64,
      "hit": false,
      "t": 76666.59000000003,
      "d": 982.9049999999988,
      "v": 60
    },
    {
      "midi": 57,
      "hit": false,
      "t": 77692.23000000003,
      "d": 1052.3493750000052,
      "v": 60
    },
    {
      "midi": 62,
      "hit": false,
      "t": 77692.23000000003,
      "d": 1052.3493750000052,
      "v": 60
    },
    {
      "midi": 65,
      "hit": false,
      "t": 77692.23000000003,
      "d": 1052.3493750000052,
      "v": 60
    },
    {
      "midi": 48,
      "hit": false,
      "t": 78974.28000000003,
      "d": 1025.6399999999994,
      "v": 55
    },
    {
      "midi": 55,
      "hit": false,
      "t": 78974.28000000003,
      "d": 1025.6399999999994,
      "v": 65
    },
    {
      "midi": 60,
      "hit": false,
      "t": 78974.28000000003,
      "d": 1025.6399999999994,
      "v": 65
    },
    {
      "midi": 64,
      "hit": false,
      "t": 78974.28000000003,
      "d": 1025.6399999999994,
      "v": 65
    },
    {
      "midi": 46,
      "hit": false,
      "t": 80256.33000000003,
      "d": 1794.87000000001,
      "v": 62
    },
    {
      "midi": 53,
      "hit": false,
      "t": 80512.74000000003,
      "d": 1538.4600000000064,
      "v": 64
    },
    {
      "midi": 58,
      "hit": false,
      "t": 80769.15000000004,
      "d": 1282.050000000003,
      "v": 70
    },
    {
      "midi": 65,
      "hit": false,
      "t": 80769.15000000004,
      "d": 1282.050000000003,
      "v": 49
    },
    {
      "midi": 50,
      "hit": false,
      "t": 82051.20000000004,
      "d": 1810.8956250000047,
      "v": 56
    },
    {
      "midi": 57,
      "hit": false,
      "t": 82307.61000000004,
      "d": 1554.4856250000012,
      "v": 66
    },
    {
      "midi": 65,
      "hit": false,
      "t": 82307.61000000004,
      "d": 1554.4856250000012,
      "v": 61
    },
    {
      "midi": 69,
      "hit": false,
      "t": 82307.61000000004,
      "d": 1554.4856250000012,
      "v": 60
    },
    {
      "midi": 43,
      "hit": false,
      "t": 84102.48000000004,
      "d": 1752.1350000000093,
      "v": 56
    },
    {
      "midi": 58,
      "hit": false,
      "t": 84358.89000000004,
      "d": 1495.7250000000058,
      "v": 66
    },
    {
      "midi": 65,
      "hit": false,
      "t": 84358.89000000004,
      "d": 1495.7250000000058,
      "v": 61
    },
    {
      "midi": 67,
      "hit": false,
      "t": 84358.89000000004,
      "d": 1495.7250000000058,
      "v": 60
    },
    {
      "midi": 60,
      "hit": false,
      "t": 85897.35000000005,
      "d": 1426.2806249999994,
      "v": 62
    },
    {
      "midi": 69,
      "hit": false,
      "t": 85897.35000000005,
      "d": 1452.9900000000052,
      "v": 54
    },
    {
      "midi": 57,
      "hit": false,
      "t": 87435.81000000006,
      "d": 480.7687500000029,
      "v": 57
    },
    {
      "midi": 60,
      "hit": false,
      "t": 87692.22000000006,
      "d": 213.6750000000029,
      "v": 71
    },
    {
      "midi": 69,
      "hit": false,
      "t": 87692.22000000006,
      "d": 224.35874999999942,
      "v": 59
    },
    {
      "midi": 46,
      "hit": false,
      "t": 87948.63000000006,
      "d": 1260.68250000001,
      "v": 57
    },
    {
      "midi": 58,
      "hit": false,
      "t": 88461.45000000007,
      "d": 769.2299999999959,
      "v": 63
    },
    {
      "midi": 62,
      "hit": false,
      "t": 88461.45000000007,
      "d": 769.2299999999959,
      "v": 63
    },
    {
      "midi": 65,
      "hit": false,
      "t": 88461.45000000007,
      "d": 769.2299999999959,
      "v": 63
    },
    {
      "midi": 46,
      "hit": false,
      "t": 89230.68000000007,
      "d": 1014.9562500000029,
      "v": 57
    },
    {
      "midi": 62,
      "hit": false,
      "t": 89487.09000000007,
      "d": 769.2299999999959,
      "v": 63
    },
    {
      "midi": 65,
      "hit": false,
      "t": 89487.09000000007,
      "d": 769.2299999999959,
      "v": 63
    },
    {
      "midi": 67,
      "hit": false,
      "t": 89487.09000000007,
      "d": 769.2299999999959,
      "v": 63
    },
    {
      "midi": 70,
      "hit": false,
      "t": 89487.09000000007,
      "d": 769.2299999999959,
      "v": 63
    },
    {
      "midi": 48,
      "hit": false,
      "t": 90256.32000000007,
      "d": 1025.6399999999994,
      "v": 55
    },
    {
      "midi": 55,
      "hit": false,
      "t": 90256.32000000007,
      "d": 1025.6399999999994,
      "v": 65
    },
    {
      "midi": 60,
      "hit": false,
      "t": 90256.32000000007,
      "d": 1025.6399999999994,
      "v": 65
    },
    {
      "midi": 64,
      "hit": false,
      "t": 90256.32000000007,
      "d": 1025.6399999999994,
      "v": 65
    },
    {
      "midi": 46,
      "hit": false,
      "t": 91281.96000000006,
      "d": 512.820000000007,
      "v": 55
    },
    {
      "midi": 58,
      "hit": false,
      "t": 91281.96000000006,
      "d": 512.820000000007,
      "v": 65
    },
    {
      "midi": 62,
      "hit": false,
      "t": 91281.96000000006,
      "d": 512.820000000007,
      "v": 65
    },
    {
      "midi": 65,
      "hit": false,
      "t": 91281.96000000006,
      "d": 512.820000000007,
      "v": 65
    },
    {
      "midi": 55,
      "hit": false,
      "t": 91794.78000000007,
      "d": 154.91437499999302,
      "v": 60
    },
    {
      "midi": 60,
      "hit": false,
      "t": 91794.78000000007,
      "d": 154.91437499999302,
      "v": 60
    },
    {
      "midi": 64,
      "hit": false,
      "t": 91794.78000000007,
      "d": 154.91437499999302,
      "v": 60
    },
    {
      "midi": 41,
      "hit": false,
      "t": 92307.60000000006,
      "d": 1025.6399999999994,
      "v": 55
    },
    {
      "midi": 57,
      "hit": false,
      "t": 92307.60000000006,
      "d": 1025.6399999999994,
      "v": 65
    },
    {
      "midi": 60,
      "hit": false,
      "t": 92307.60000000006,
      "d": 1025.6399999999994,
      "v": 65
    },
    {
      "midi": 65,
      "hit": false,
      "t": 92307.60000000006,
      "d": 1025.6399999999994,
      "v": 65
    },
    {
      "midi": 53,
      "hit": false,
      "t": 93333.24000000006,
      "d": 512.820000000007,
      "v": 55
    },
    {
      "midi": 58,
      "hit": false,
      "t": 93333.24000000006,
      "d": 512.820000000007,
      "v": 65
    },
    {
      "midi": 62,
      "hit": false,
      "t": 93333.24000000006,
      "d": 512.820000000007,
      "v": 65
    },
    {
      "midi": 65,
      "hit": false,
      "t": 93333.24000000006,
      "d": 512.820000000007,
      "v": 65
    },
    {
      "midi": 55,
      "hit": false,
      "t": 93846.06000000007,
      "d": 154.91437499999302,
      "v": 60
    },
    {
      "midi": 60,
      "hit": false,
      "t": 93846.06000000007,
      "d": 154.91437499999302,
      "v": 60
    },
    {
      "midi": 64,
      "hit": false,
      "t": 93846.06000000007,
      "d": 154.91437499999302,
      "v": 60
    },
    {
      "midi": 55,
      "hit": false,
      "t": 94102.47000000006,
      "d": 982.9049999999988,
      "v": 60
    },
    {
      "midi": 60,
      "hit": false,
      "t": 94102.47000000006,
      "d": 982.9049999999988,
      "v": 60
    },
    {
      "midi": 64,
      "hit": false,
      "t": 94102.47000000006,
      "d": 982.9049999999988,
      "v": 60
    },
    {
      "midi": 46,
      "hit": false,
      "t": 95128.11000000006,
      "d": 470.0850000000064,
      "v": 55
    },
    {
      "midi": 58,
      "hit": false,
      "t": 95128.11000000006,
      "d": 470.0850000000064,
      "v": 65
    },
    {
      "midi": 62,
      "hit": false,
      "t": 95128.11000000006,
      "d": 470.0850000000064,
      "v": 65
    },
    {
      "midi": 65,
      "hit": false,
      "t": 95128.11000000006,
      "d": 470.0850000000064,
      "v": 65
    },
    {
      "midi": 55,
      "hit": false,
      "t": 95640.93000000007,
      "d": 405.98249999999825,
      "v": 60
    },
    {
      "midi": 60,
      "hit": false,
      "t": 95640.93000000007,
      "d": 405.98249999999825,
      "v": 60
    },
    {
      "midi": 64,
      "hit": false,
      "t": 95640.93000000007,
      "d": 405.98249999999825,
      "v": 60
    },
    {
      "midi": 41,
      "hit": false,
      "t": 96410.16000000006,
      "d": 1014.9562500000029,
      "v": 57
    },
    {
      "midi": 57,
      "hit": false,
      "t": 96666.57000000007,
      "d": 769.2299999999959,
      "v": 63
    },
    {
      "midi": 60,
      "hit": false,
      "t": 96666.57000000007,
      "d": 769.2299999999959,
      "v": 63
    },
    {
      "midi": 65,
      "hit": false,
      "t": 96666.57000000007,
      "d": 769.2299999999959,
      "v": 63
    },
    {
      "midi": 53,
      "hit": false,
      "t": 97435.80000000006,
      "d": 213.6750000000029,
      "v": 55
    },
    {
      "midi": 58,
      "hit": false,
      "t": 97435.80000000006,
      "d": 213.6750000000029,
      "v": 65
    },
    {
      "midi": 62,
      "hit": false,
      "t": 97435.80000000006,
      "d": 213.6750000000029,
      "v": 65
    },
    {
      "midi": 65,
      "hit": false,
      "t": 97435.80000000006,
      "d": 213.6750000000029,
      "v": 65
    },
    {
      "midi": 55,
      "hit": false,
      "t": 97692.21000000006,
      "d": 405.98249999999825,
      "v": 60
    },
    {
      "midi": 60,
      "hit": false,
      "t": 97692.21000000006,
      "d": 405.98249999999825,
      "v": 60
    },
    {
      "midi": 64,
      "hit": false,
      "t": 97692.21000000006,
      "d": 405.98249999999825,
      "v": 60
    },
    {
      "midi": 55,
      "hit": false,
      "t": 98205.03000000006,
      "d": 1052.3493750000052,
      "v": 60
    },
    {
      "midi": 60,
      "hit": false,
      "t": 98205.03000000006,
      "d": 1052.3493750000052,
      "v": 60
    },
    {
      "midi": 64,
      "hit": false,
      "t": 98205.03000000006,
      "d": 1052.3493750000052,
      "v": 60
    },
    {
      "midi": 46,
      "hit": false,
      "t": 99487.08000000006,
      "d": 512.820000000007,
      "v": 55
    },
    {
      "midi": 58,
      "hit": false,
      "t": 99487.08000000006,
      "d": 512.820000000007,
      "v": 65
    },
    {
      "midi": 62,
      "hit": false,
      "t": 99487.08000000006,
      "d": 512.820000000007,
      "v": 65
    },
    {
      "midi": 65,
      "hit": false,
      "t": 99487.08000000006,
      "d": 512.820000000007,
      "v": 65
    },
    {
      "midi": 55,
      "hit": false,
      "t": 99999.90000000007,
      "d": 154.91437499999302,
      "v": 60
    },
    {
      "midi": 60,
      "hit": false,
      "t": 99999.90000000007,
      "d": 154.91437499999302,
      "v": 60
    },
    {
      "midi": 64,
      "hit": false,
      "t": 99999.90000000007,
      "d": 154.91437499999302,
      "v": 60
    },
    {
      "midi": 41,
      "hit": false,
      "t": 100512.72000000006,
      "d": 1014.9562500000029,
      "v": 57
    },
    {
      "midi": 57,
      "hit": false,
      "t": 100769.13000000006,
      "d": 769.2299999999959,
      "v": 63
    },
    {
      "midi": 60,
      "hit": false,
      "t": 100769.13000000006,
      "d": 769.2299999999959,
      "v": 63
    },
    {
      "midi": 65,
      "hit": false,
      "t": 100769.13000000006,
      "d": 769.2299999999959,
      "v": 63
    },
    {
      "midi": 53,
      "hit": false,
      "t": 101538.36000000006,
      "d": 213.6750000000029,
      "v": 55
    },
    {
      "midi": 58,
      "hit": false,
      "t": 101538.36000000006,
      "d": 213.6750000000029,
      "v": 65
    },
    {
      "midi": 62,
      "hit": false,
      "t": 101538.36000000006,
      "d": 213.6750000000029,
      "v": 65
    },
    {
      "midi": 65,
      "hit": false,
      "t": 101538.36000000006,
      "d": 213.6750000000029,
      "v": 65
    },
    {
      "midi": 55,
      "hit": false,
      "t": 101794.77000000006,
      "d": 405.98249999999825,
      "v": 60
    },
    {
      "midi": 60,
      "hit": false,
      "t": 101794.77000000006,
      "d": 405.98249999999825,
      "v": 60
    },
    {
      "midi": 64,
      "hit": false,
      "t": 101794.77000000006,
      "d": 405.98249999999825,
      "v": 60
    },
    {
      "midi": 48,
      "hit": false,
      "t": 102564.00000000006,
      "d": 1025.6399999999994,
      "v": 55
    },
    {
      "midi": 55,
      "hit": false,
      "t": 102564.00000000006,
      "d": 1025.6399999999994,
      "v": 65
    },
    {
      "midi": 60,
      "hit": false,
      "t": 102564.00000000006,
      "d": 1025.6399999999994,
      "v": 65
    },
    {
      "midi": 64,
      "hit": false,
      "t": 102564.00000000006,
      "d": 1025.6399999999994,
      "v": 65
    },
    {
      "midi": 46,
      "hit": false,
      "t": 103589.64000000006,
      "d": 726.4950000000099,
      "v": 57
    },
    {
      "midi": 58,
      "hit": false,
      "t": 103846.05000000006,
      "d": 470.0850000000064,
      "v": 63
    },
    {
      "midi": 62,
      "hit": false,
      "t": 103846.05000000006,
      "d": 470.0850000000064,
      "v": 63
    },
    {
      "midi": 65,
      "hit": false,
      "t": 103846.05000000006,
      "d": 470.0850000000064,
      "v": 63
    },
    {
      "midi": 46,
      "hit": false,
      "t": 104358.87000000007,
      "d": 982.9049999999988,
      "v": 55
    },
    {
      "midi": 58,
      "hit": false,
      "t": 104358.87000000007,
      "d": 982.9049999999988,
      "v": 65
    },
    {
      "midi": 62,
      "hit": false,
      "t": 104358.87000000007,
      "d": 982.9049999999988,
      "v": 65
    },
    {
      "midi": 65,
      "hit": false,
      "t": 104358.87000000007,
      "d": 982.9049999999988,
      "v": 65
    },
    {
      "midi": 62,
      "hit": false,
      "t": 105384.51000000007,
      "d": 1052.3493750000052,
      "v": 60
    },
    {
      "midi": 65,
      "hit": false,
      "t": 105384.51000000007,
      "d": 1052.3493750000052,
      "v": 60
    },
    {
      "midi": 67,
      "hit": false,
      "t": 105384.51000000007,
      "d": 1052.3493750000052,
      "v": 60
    },
    {
      "midi": 70,
      "hit": false,
      "t": 105384.51000000007,
      "d": 1052.3493750000052,
      "v": 60
    },
    {
      "midi": 55,
      "hit": false,
      "t": 107948.61000000007,
      "d": 480.7687500000029,
      "v": 57
    },
    {
      "midi": 60,
      "hit": false,
      "t": 108205.02000000008,
      "d": 213.6750000000029,
      "v": 71
    },
    {
      "midi": 67,
      "hit": false,
      "t": 108205.02000000008,
      "d": 224.35874999999942,
      "v": 59
    },
    {
      "midi": 41,
      "hit": false,
      "t": 108717.84000000007,
      "d": 1014.9562500000029,
      "v": 57
    },
    {
      "midi": 57,
      "hit": false,
      "t": 108974.25000000007,
      "d": 769.2299999999959,
      "v": 63
    },
    {
      "midi": 60,
      "hit": false,
      "t": 108974.25000000007,
      "d": 769.2299999999959,
      "v": 63
    },
    {
      "midi": 65,
      "hit": false,
      "t": 108974.25000000007,
      "d": 769.2299999999959,
      "v": 63
    },
    {
      "midi": 53,
      "hit": false,
      "t": 109743.48000000007,
      "d": 213.6750000000029,
      "v": 55
    },
    {
      "midi": 58,
      "hit": false,
      "t": 109743.48000000007,
      "d": 213.6750000000029,
      "v": 65
    },
    {
      "midi": 62,
      "hit": false,
      "t": 109743.48000000007,
      "d": 213.6750000000029,
      "v": 65
    },
    {
      "midi": 65,
      "hit": false,
      "t": 109743.48000000007,
      "d": 213.6750000000029,
      "v": 65
    },
    {
      "midi": 55,
      "hit": false,
      "t": 109999.89000000007,
      "d": 405.98249999999825,
      "v": 60
    },
    {
      "midi": 60,
      "hit": false,
      "t": 109999.89000000007,
      "d": 405.98249999999825,
      "v": 60
    },
    {
      "midi": 64,
      "hit": false,
      "t": 109999.89000000007,
      "d": 405.98249999999825,
      "v": 60
    },
    {
      "midi": 55,
      "hit": false,
      "t": 110512.71000000006,
      "d": 1052.3493750000052,
      "v": 60
    },
    {
      "midi": 60,
      "hit": false,
      "t": 110512.71000000006,
      "d": 1052.3493750000052,
      "v": 60
    },
    {
      "midi": 64,
      "hit": false,
      "t": 110512.71000000006,
      "d": 1052.3493750000052,
      "v": 60
    },
    {
      "midi": 46,
      "hit": false,
      "t": 111794.76000000007,
      "d": 512.820000000007,
      "v": 55
    },
    {
      "midi": 58,
      "hit": false,
      "t": 111794.76000000007,
      "d": 512.820000000007,
      "v": 65
    },
    {
      "midi": 62,
      "hit": false,
      "t": 111794.76000000007,
      "d": 512.820000000007,
      "v": 65
    },
    {
      "midi": 65,
      "hit": false,
      "t": 111794.76000000007,
      "d": 512.820000000007,
      "v": 65
    },
    {
      "midi": 55,
      "hit": false,
      "t": 112307.58000000007,
      "d": 154.91437499999302,
      "v": 60
    },
    {
      "midi": 60,
      "hit": false,
      "t": 112307.58000000007,
      "d": 154.91437499999302,
      "v": 60
    },
    {
      "midi": 64,
      "hit": false,
      "t": 112307.58000000007,
      "d": 154.91437499999302,
      "v": 60
    },
    {
      "midi": 41,
      "hit": false,
      "t": 112563.99000000006,
      "d": 1271.3662500000064,
      "v": 55
    },
    {
      "midi": 57,
      "hit": false,
      "t": 112563.99000000006,
      "d": 1271.3662500000064,
      "v": 65
    },
    {
      "midi": 60,
      "hit": false,
      "t": 112563.99000000006,
      "d": 1271.3662500000064,
      "v": 65
    },
    {
      "midi": 65,
      "hit": false,
      "t": 112563.99000000006,
      "d": 1271.3662500000064,
      "v": 65
    },
    {
      "midi": 53,
      "hit": false,
      "t": 113846.04000000007,
      "d": 512.820000000007,
      "v": 55
    },
    {
      "midi": 58,
      "hit": false,
      "t": 113846.04000000007,
      "d": 512.820000000007,
      "v": 65
    },
    {
      "midi": 62,
      "hit": false,
      "t": 113846.04000000007,
      "d": 512.820000000007,
      "v": 65
    },
    {
      "midi": 65,
      "hit": false,
      "t": 113846.04000000007,
      "d": 512.820000000007,
      "v": 65
    },
    {
      "midi": 55,
      "hit": false,
      "t": 114358.86000000007,
      "d": 154.91437499999302,
      "v": 60
    },
    {
      "midi": 60,
      "hit": false,
      "t": 114358.86000000007,
      "d": 154.91437499999302,
      "v": 60
    },
    {
      "midi": 64,
      "hit": false,
      "t": 114358.86000000007,
      "d": 154.91437499999302,
      "v": 60
    },
    {
      "midi": 48,
      "hit": false,
      "t": 115128.09000000007,
      "d": 1794.87000000001,
      "v": 62
    },
    {
      "midi": 53,
      "hit": false,
      "t": 115384.50000000007,
      "d": 1538.4600000000064,
      "v": 64
    },
    {
      "midi": 58,
      "hit": false,
      "t": 115640.91000000008,
      "d": 1282.050000000003,
      "v": 70
    },
    {
      "midi": 65,
      "hit": false,
      "t": 115640.91000000008,
      "d": 1282.050000000003,
      "v": 49
    },
    {
      "midi": 41,
      "hit": false,
      "t": 117179.37000000008,
      "d": 1495.7250000000058,
      "v": 62
    },
    {
      "midi": 57,
      "hit": false,
      "t": 117435.78000000009,
      "d": 1239.3150000000023,
      "v": 64
    },
    {
      "midi": 60,
      "hit": false,
      "t": 117692.19000000009,
      "d": 982.9049999999988,
      "v": 70
    },
    {
      "midi": 69,
      "hit": false,
      "t": 117692.19000000009,
      "d": 982.9049999999988,
      "v": 49
    },
    {
      "midi": 60,
      "hit": false,
      "t": 118717.83000000009,
      "d": 1426.2806249999994,
      "v": 62
    },
    {
      "midi": 67,
      "hit": false,
      "t": 118717.83000000009,
      "d": 1452.9900000000052,
      "v": 54
    },
    {
      "midi": 55,
      "hit": false,
      "t": 120256.2900000001,
      "d": 480.7687500000029,
      "v": 57
    },
    {
      "midi": 60,
      "hit": false,
      "t": 120512.7000000001,
      "d": 213.6750000000029,
      "v": 71
    },
    {
      "midi": 67,
      "hit": false,
      "t": 120512.7000000001,
      "d": 224.35874999999942,
      "v": 59
    },
    {
      "midi": 36,
      "hit": false,
      "t": 120769.1100000001,
      "d": 2056.6218750000116,
      "v": 56
    },
    {
      "midi": 57,
      "hit": false,
      "t": 121281.93000000011,
      "d": 1554.4856250000012,
      "v": 66
    },
    {
      "midi": 65,
      "hit": false,
      "t": 121281.93000000011,
      "d": 1554.4856250000012,
      "v": 61
    },
    {
      "midi": 69,
      "hit": false,
      "t": 121281.93000000011,
      "d": 1554.4856250000012,
      "v": 60
    },
    {
      "midi": 46,
      "hit": false,
      "t": 123076.8000000001,
      "d": 1810.8956250000047,
      "v": 56
    },
    {
      "midi": 57,
      "hit": false,
      "t": 123333.21000000011,
      "d": 1554.4856250000012,
      "v": 66
    },
    {
      "midi": 62,
      "hit": false,
      "t": 123333.21000000011,
      "d": 1554.4856250000012,
      "v": 61
    },
    {
      "midi": 65,
      "hit": false,
      "t": 123333.21000000011,
      "d": 1554.4856250000012,
      "v": 60
    },
    {
      "midi": 60,
      "hit": false,
      "t": 125128.0800000001,
      "d": 1175.2124999999942,
      "v": 62
    },
    {
      "midi": 69,
      "hit": false,
      "t": 125128.0800000001,
      "d": 1201.921875,
      "v": 54
    },
    {
      "midi": 57,
      "hit": false,
      "t": 126410.1300000001,
      "d": 480.7687500000029,
      "v": 57
    },
    {
      "midi": 60,
      "hit": false,
      "t": 126666.54000000011,
      "d": 213.6750000000029,
      "v": 71
    },
    {
      "midi": 69,
      "hit": false,
      "t": 126666.54000000011,
      "d": 224.35874999999942,
      "v": 59
    },
    {
      "midi": 46,
      "hit": false,
      "t": 126922.95000000011,
      "d": 2056.6218750000116,
      "v": 56
    },
    {
      "midi": 57,
      "hit": false,
      "t": 127435.77000000012,
      "d": 1554.4856250000012,
      "v": 66
    },
    {
      "midi": 62,
      "hit": false,
      "t": 127435.77000000012,
      "d": 1554.4856250000012,
      "v": 61
    },
    {
      "midi": 65,
      "hit": false,
      "t": 127435.77000000012,
      "d": 1554.4856250000012,
      "v": 60
    },
    {
      "midi": 43,
      "hit": false,
      "t": 129487.05000000012,
      "d": 1794.87000000001,
      "v": 62
    },
    {
      "midi": 55,
      "hit": false,
      "t": 129743.46000000012,
      "d": 1538.4600000000064,
      "v": 64
    },
    {
      "midi": 58,
      "hit": false,
      "t": 129999.87000000013,
      "d": 1282.050000000003,
      "v": 70
    },
    {
      "midi": 65,
      "hit": false,
      "t": 129999.87000000013,
      "d": 1282.050000000003,
      "v": 55
    },
    {
      "midi": 67,
      "hit": false,
      "t": 129999.87000000013,
      "d": 1282.050000000003,
      "v": 49
    },
    {
      "midi": 45,
      "hit": false,
      "t": 131281.92000000013,
      "d": 1810.8956250000047,
      "v": 56
    },
    {
      "midi": 57,
      "hit": false,
      "t": 131538.33000000013,
      "d": 1554.4856250000012,
      "v": 66
    },
    {
      "midi": 65,
      "hit": false,
      "t": 131538.33000000013,
      "d": 1554.4856250000012,
      "v": 61
    },
    {
      "midi": 69,
      "hit": false,
      "t": 131538.33000000013,
      "d": 1554.4856250000012,
      "v": 60
    },
    {
      "midi": 58,
      "hit": false,
      "t": 133333.20000000013,
      "d": 1175.2124999999942,
      "v": 62
    },
    {
      "midi": 65,
      "hit": false,
      "t": 133333.20000000013,
      "d": 1201.921875,
      "v": 54
    },
    {
      "midi": 53,
      "hit": false,
      "t": 134615.25000000012,
      "d": 480.76874999998836,
      "v": 57
    },
    {
      "midi": 58,
      "hit": false,
      "t": 134871.66000000012,
      "d": 213.67499999998836,
      "v": 71
    },
    {
      "midi": 65,
      "hit": false,
      "t": 134871.66000000012,
      "d": 224.35874999998487,
      "v": 59
    },
    {
      "midi": 48,
      "hit": false,
      "t": 135640.8900000001,
      "d": 1794.8699999999953,
      "v": 62
    },
    {
      "midi": 53,
      "hit": false,
      "t": 135897.3000000001,
      "d": 1538.4599999999919,
      "v": 64
    },
    {
      "midi": 58,
      "hit": false,
      "t": 136153.7100000001,
      "d": 1282.0499999999884,
      "v": 70
    },
    {
      "midi": 65,
      "hit": false,
      "t": 136153.7100000001,
      "d": 1282.0499999999884,
      "v": 49
    },
    {
      "midi": 48,
      "hit": false,
      "t": 137435.7600000001,
      "d": 1014.9562500000175,
      "v": 57
    },
    {
      "midi": 55,
      "hit": false,
      "t": 137692.1700000001,
      "d": 769.2300000000105,
      "v": 63
    },
    {
      "midi": 60,
      "hit": false,
      "t": 137692.1700000001,
      "d": 769.2300000000105,
      "v": 63
    },
    {
      "midi": 64,
      "hit": false,
      "t": 137692.1700000001,
      "d": 769.2300000000105,
      "v": 63
    },
    {
      "midi": 46,
      "hit": false,
      "t": 138461.4000000001,
      "d": 512.820000000007,
      "v": 55
    },
    {
      "midi": 53,
      "hit": false,
      "t": 138461.4000000001,
      "d": 512.820000000007,
      "v": 65
    },
    {
      "midi": 58,
      "hit": false,
      "t": 138461.4000000001,
      "d": 512.820000000007,
      "v": 65
    },
    {
      "midi": 62,
      "hit": false,
      "t": 138461.4000000001,
      "d": 512.820000000007,
      "v": 65
    },
    {
      "midi": 55,
      "hit": false,
      "t": 138974.22000000012,
      "d": 154.91437499999302,
      "v": 60
    },
    {
      "midi": 60,
      "hit": false,
      "t": 138974.22000000012,
      "d": 154.91437499999302,
      "v": 60
    },
    {
      "midi": 64,
      "hit": false,
      "t": 138974.22000000012,
      "d": 154.91437499999302,
      "v": 60
    },
    {
      "midi": 41,
      "hit": false,
      "t": 139487.04000000012,
      "d": 1025.640000000014,
      "v": 55
    },
    {
      "midi": 57,
      "hit": false,
      "t": 139487.04000000012,
      "d": 1025.640000000014,
      "v": 65
    },
    {
      "midi": 60,
      "hit": false,
      "t": 139487.04000000012,
      "d": 1025.640000000014,
      "v": 65
    },
    {
      "midi": 65,
      "hit": false,
      "t": 139487.04000000012,
      "d": 1025.640000000014,
      "v": 65
    },
    {
      "midi": 53,
      "hit": false,
      "t": 140512.68000000014,
      "d": 512.820000000007,
      "v": 55
    },
    {
      "midi": 58,
      "hit": false,
      "t": 140512.68000000014,
      "d": 512.820000000007,
      "v": 65
    },
    {
      "midi": 62,
      "hit": false,
      "t": 140512.68000000014,
      "d": 512.820000000007,
      "v": 65
    },
    {
      "midi": 65,
      "hit": false,
      "t": 140512.68000000014,
      "d": 512.820000000007,
      "v": 65
    },
    {
      "midi": 55,
      "hit": false,
      "t": 141025.50000000015,
      "d": 154.91437499999302,
      "v": 60
    },
    {
      "midi": 60,
      "hit": false,
      "t": 141025.50000000015,
      "d": 154.91437499999302,
      "v": 60
    },
    {
      "midi": 64,
      "hit": false,
      "t": 141025.50000000015,
      "d": 154.91437499999302,
      "v": 60
    },
    {
      "midi": 55,
      "hit": false,
      "t": 141281.91000000015,
      "d": 982.9049999999988,
      "v": 60
    },
    {
      "midi": 60,
      "hit": false,
      "t": 141281.91000000015,
      "d": 982.9049999999988,
      "v": 60
    },
    {
      "midi": 64,
      "hit": false,
      "t": 141281.91000000015,
      "d": 982.9049999999988,
      "v": 60
    },
    {
      "midi": 46,
      "hit": false,
      "t": 142307.55000000013,
      "d": 470.08499999999185,
      "v": 55
    },
    {
      "midi": 58,
      "hit": false,
      "t": 142307.55000000013,
      "d": 470.08499999999185,
      "v": 65
    },
    {
      "midi": 62,
      "hit": false,
      "t": 142307.55000000013,
      "d": 470.08499999999185,
      "v": 65
    },
    {
      "midi": 65,
      "hit": false,
      "t": 142307.55000000013,
      "d": 470.08499999999185,
      "v": 65
    },
    {
      "midi": 55,
      "hit": false,
      "t": 142820.3700000001,
      "d": 405.9825000000128,
      "v": 60
    },
    {
      "midi": 60,
      "hit": false,
      "t": 142820.3700000001,
      "d": 405.9825000000128,
      "v": 60
    },
    {
      "midi": 64,
      "hit": false,
      "t": 142820.3700000001,
      "d": 405.9825000000128,
      "v": 60
    },
    {
      "midi": 41,
      "hit": false,
      "t": 143589.60000000012,
      "d": 1014.9562500000175,
      "v": 57
    },
    {
      "midi": 57,
      "hit": false,
      "t": 143846.01000000013,
      "d": 769.2300000000105,
      "v": 63
    },
    {
      "midi": 60,
      "hit": false,
      "t": 143846.01000000013,
      "d": 769.2300000000105,
      "v": 63
    },
    {
      "midi": 65,
      "hit": false,
      "t": 143846.01000000013,
      "d": 769.2300000000105,
      "v": 63
    },
    {
      "midi": 53,
      "hit": false,
      "t": 144615.24000000014,
      "d": 213.67499999998836,
      "v": 55
    },
    {
      "midi": 58,
      "hit": false,
      "t": 144615.24000000014,
      "d": 213.67499999998836,
      "v": 65
    },
    {
      "midi": 62,
      "hit": false,
      "t": 144615.24000000014,
      "d": 213.67499999998836,
      "v": 65
    },
    {
      "midi": 65,
      "hit": false,
      "t": 144615.24000000014,
      "d": 213.67499999998836,
      "v": 65
    },
    {
      "midi": 55,
      "hit": false,
      "t": 144871.6500000001,
      "d": 405.9825000000128,
      "v": 60
    },
    {
      "midi": 60,
      "hit": false,
      "t": 144871.6500000001,
      "d": 405.9825000000128,
      "v": 60
    },
    {
      "midi": 64,
      "hit": false,
      "t": 144871.6500000001,
      "d": 405.9825000000128,
      "v": 60
    },
    {
      "midi": 55,
      "hit": false,
      "t": 145384.47000000012,
      "d": 1052.3493749999907,
      "v": 60
    },
    {
      "midi": 60,
      "hit": false,
      "t": 145384.47000000012,
      "d": 1052.3493749999907,
      "v": 60
    },
    {
      "midi": 64,
      "hit": false,
      "t": 145384.47000000012,
      "d": 1052.3493749999907,
      "v": 60
    },
    {
      "midi": 46,
      "hit": false,
      "t": 146666.5200000001,
      "d": 512.820000000007,
      "v": 55
    },
    {
      "midi": 58,
      "hit": false,
      "t": 146666.5200000001,
      "d": 512.820000000007,
      "v": 65
    },
    {
      "midi": 62,
      "hit": false,
      "t": 146666.5200000001,
      "d": 512.820000000007,
      "v": 65
    },
    {
      "midi": 65,
      "hit": false,
      "t": 146666.5200000001,
      "d": 512.820000000007,
      "v": 65
    },
    {
      "midi": 55,
      "hit": false,
      "t": 147179.3400000001,
      "d": 154.91437499999302,
      "v": 60
    },
    {
      "midi": 60,
      "hit": false,
      "t": 147179.3400000001,
      "d": 154.91437499999302,
      "v": 60
    },
    {
      "midi": 64,
      "hit": false,
      "t": 147179.3400000001,
      "d": 154.91437499999302,
      "v": 60
    },
    {
      "midi": 41,
      "hit": false,
      "t": 147692.16000000012,
      "d": 1014.9562500000175,
      "v": 57
    },
    {
      "midi": 57,
      "hit": false,
      "t": 147948.57000000012,
      "d": 769.2300000000105,
      "v": 63
    },
    {
      "midi": 60,
      "hit": false,
      "t": 147948.57000000012,
      "d": 769.2300000000105,
      "v": 63
    },
    {
      "midi": 65,
      "hit": false,
      "t": 147948.57000000012,
      "d": 769.2300000000105,
      "v": 63
    },
    {
      "midi": 53,
      "hit": false,
      "t": 148717.80000000013,
      "d": 213.67499999998836,
      "v": 55
    },
    {
      "midi": 58,
      "hit": false,
      "t": 148717.80000000013,
      "d": 213.67499999998836,
      "v": 65
    },
    {
      "midi": 62,
      "hit": false,
      "t": 148717.80000000013,
      "d": 213.67499999998836,
      "v": 65
    },
    {
      "midi": 65,
      "hit": false,
      "t": 148717.80000000013,
      "d": 213.67499999998836,
      "v": 65
    },
    {
      "midi": 55,
      "hit": false,
      "t": 148974.2100000001,
      "d": 405.9825000000128,
      "v": 60
    },
    {
      "midi": 60,
      "hit": false,
      "t": 148974.2100000001,
      "d": 405.9825000000128,
      "v": 60
    },
    {
      "midi": 64,
      "hit": false,
      "t": 148974.2100000001,
      "d": 405.9825000000128,
      "v": 60
    },
    {
      "midi": 48,
      "hit": false,
      "t": 149743.44000000012,
      "d": 1025.640000000014,
      "v": 55
    },
    {
      "midi": 55,
      "hit": false,
      "t": 149743.44000000012,
      "d": 1025.640000000014,
      "v": 65
    },
    {
      "midi": 60,
      "hit": false,
      "t": 149743.44000000012,
      "d": 1025.640000000014,
      "v": 65
    },
    {
      "midi": 64,
      "hit": false,
      "t": 149743.44000000012,
      "d": 1025.640000000014,
      "v": 65
    },
    {
      "midi": 46,
      "hit": false,
      "t": 150769.08000000013,
      "d": 726.4949999999953,
      "v": 57
    },
    {
      "midi": 58,
      "hit": false,
      "t": 151025.49000000014,
      "d": 470.08499999999185,
      "v": 63
    },
    {
      "midi": 62,
      "hit": false,
      "t": 151025.49000000014,
      "d": 470.08499999999185,
      "v": 63
    },
    {
      "midi": 65,
      "hit": false,
      "t": 151025.49000000014,
      "d": 470.08499999999185,
      "v": 63
    },
    {
      "midi": 46,
      "hit": false,
      "t": 151538.3100000001,
      "d": 982.9049999999988,
      "v": 55
    },
    {
      "midi": 58,
      "hit": false,
      "t": 151538.3100000001,
      "d": 982.9049999999988,
      "v": 65
    },
    {
      "midi": 62,
      "hit": false,
      "t": 151538.3100000001,
      "d": 982.9049999999988,
      "v": 65
    },
    {
      "midi": 65,
      "hit": false,
      "t": 151538.3100000001,
      "d": 982.9049999999988,
      "v": 65
    },
    {
      "midi": 62,
      "hit": false,
      "t": 152563.9500000001,
      "d": 1052.3493749999907,
      "v": 60
    },
    {
      "midi": 65,
      "hit": false,
      "t": 152563.9500000001,
      "d": 1052.3493749999907,
      "v": 60
    },
    {
      "midi": 67,
      "hit": false,
      "t": 152563.9500000001,
      "d": 1052.3493749999907,
      "v": 60
    },
    {
      "midi": 70,
      "hit": false,
      "t": 152563.9500000001,
      "d": 1052.3493749999907,
      "v": 60
    },
    {
      "midi": 55,
      "hit": false,
      "t": 155128.05000000008,
      "d": 480.76874999998836,
      "v": 57
    },
    {
      "midi": 60,
      "hit": false,
      "t": 155384.46000000008,
      "d": 213.67499999998836,
      "v": 71
    },
    {
      "midi": 67,
      "hit": false,
      "t": 155384.46000000008,
      "d": 224.35874999998487,
      "v": 59
    },
    {
      "midi": 41,
      "hit": false,
      "t": 155897.28000000006,
      "d": 1014.9562500000175,
      "v": 57
    },
    {
      "midi": 57,
      "hit": false,
      "t": 156153.69000000006,
      "d": 769.2300000000105,
      "v": 63
    },
    {
      "midi": 60,
      "hit": false,
      "t": 156153.69000000006,
      "d": 769.2300000000105,
      "v": 63
    },
    {
      "midi": 65,
      "hit": false,
      "t": 156153.69000000006,
      "d": 769.2300000000105,
      "v": 63
    },
    {
      "midi": 53,
      "hit": false,
      "t": 156922.92000000007,
      "d": 213.67499999998836,
      "v": 55
    },
    {
      "midi": 58,
      "hit": false,
      "t": 156922.92000000007,
      "d": 213.67499999998836,
      "v": 65
    },
    {
      "midi": 62,
      "hit": false,
      "t": 156922.92000000007,
      "d": 213.67499999998836,
      "v": 65
    },
    {
      "midi": 65,
      "hit": false,
      "t": 156922.92000000007,
      "d": 213.67499999998836,
      "v": 65
    },
    {
      "midi": 55,
      "hit": false,
      "t": 157179.33000000005,
      "d": 405.9825000000128,
      "v": 60
    },
    {
      "midi": 60,
      "hit": false,
      "t": 157179.33000000005,
      "d": 405.9825000000128,
      "v": 60
    },
    {
      "midi": 64,
      "hit": false,
      "t": 157179.33000000005,
      "d": 405.9825000000128,
      "v": 60
    },
    {
      "midi": 55,
      "hit": false,
      "t": 157692.15000000005,
      "d": 1052.3493749999907,
      "v": 60
    },
    {
      "midi": 60,
      "hit": false,
      "t": 157692.15000000005,
      "d": 1052.3493749999907,
      "v": 60
    },
    {
      "midi": 64,
      "hit": false,
      "t": 157692.15000000005,
      "d": 1052.3493749999907,
      "v": 60
    },
    {
      "midi": 50,
      "hit": false,
      "t": 157948.56000000006,
      "d": 726.4949999999953,
      "v": 55
    },
    {
      "midi": 57,
      "hit": false,
      "t": 157948.56000000006,
      "d": 726.4949999999953,
      "v": 65
    },
    {
      "midi": 62,
      "hit": false,
      "t": 157948.56000000006,
      "d": 726.4949999999953,
      "v": 65
    },
    {
      "midi": 65,
      "hit": false,
      "t": 157948.56000000006,
      "d": 726.4949999999953,
      "v": 65
    },
    {
      "midi": 50,
      "hit": false,
      "t": 158717.79000000004,
      "d": 1260.6824999999953,
      "v": 57
    },
    {
      "midi": 55,
      "hit": false,
      "t": 159230.61000000004,
      "d": 769.2299999999814,
      "v": 63
    },
    {
      "midi": 60,
      "hit": false,
      "t": 159230.61000000004,
      "d": 769.2299999999814,
      "v": 63
    },
    {
      "midi": 64,
      "hit": false,
      "t": 159230.61000000004,
      "d": 769.2299999999814,
      "v": 63
    },
    {
      "midi": 50,
      "hit": false,
      "t": 159999.84000000003,
      "d": 1014.9562500000175,
      "v": 57
    },
    {
      "midi": 57,
      "hit": false,
      "t": 160256.25000000003,
      "d": 769.2300000000105,
      "v": 63
    },
    {
      "midi": 62,
      "hit": false,
      "t": 160256.25000000003,
      "d": 769.2300000000105,
      "v": 63
    },
    {
      "midi": 65,
      "hit": false,
      "t": 160256.25000000003,
      "d": 769.2300000000105,
      "v": 63
    },
    {
      "midi": 50,
      "hit": false,
      "t": 161025.48000000004,
      "d": 726.4949999999953,
      "v": 55
    },
    {
      "midi": 55,
      "hit": false,
      "t": 161025.48000000004,
      "d": 726.4949999999953,
      "v": 65
    },
    {
      "midi": 60,
      "hit": false,
      "t": 161025.48000000004,
      "d": 726.4949999999953,
      "v": 65
    },
    {
      "midi": 64,
      "hit": false,
      "t": 161025.48000000004,
      "d": 726.4949999999953,
      "v": 65
    },
    {
      "midi": 57,
      "hit": false,
      "t": 161794.71000000002,
      "d": 982.9049999999988,
      "v": 60
    },
    {
      "midi": 62,
      "hit": false,
      "t": 161794.71000000002,
      "d": 982.9049999999988,
      "v": 60
    },
    {
      "midi": 65,
      "hit": false,
      "t": 161794.71000000002,
      "d": 982.9049999999988,
      "v": 60
    },
    {
      "midi": 50,
      "hit": false,
      "t": 162820.35,
      "d": 982.9049999999988,
      "v": 57
    },
    {
      "midi": 55,
      "hit": false,
      "t": 163333.17,
      "d": 470.08499999999185,
      "v": 63
    },
    {
      "midi": 60,
      "hit": false,
      "t": 163333.17,
      "d": 470.08499999999185,
      "v": 63
    },
    {
      "midi": 64,
      "hit": false,
      "t": 163333.17,
      "d": 470.08499999999185,
      "v": 63
    },
    {
      "midi": 50,
      "hit": false,
      "t": 163845.99,
      "d": 1271.3662499999919,
      "v": 55
    },
    {
      "midi": 57,
      "hit": false,
      "t": 163845.99,
      "d": 1271.3662499999919,
      "v": 65
    },
    {
      "midi": 62,
      "hit": false,
      "t": 163845.99,
      "d": 1271.3662499999919,
      "v": 65
    },
    {
      "midi": 65,
      "hit": false,
      "t": 163845.99,
      "d": 1271.3662499999919,
      "v": 65
    },
    {
      "midi": 55,
      "hit": false,
      "t": 165128.03999999998,
      "d": 806.6231250000128,
      "v": 60
    },
    {
      "midi": 60,
      "hit": false,
      "t": 165128.03999999998,
      "d": 806.6231250000128,
      "v": 60
    },
    {
      "midi": 64,
      "hit": false,
      "t": 165128.03999999998,
      "d": 806.6231250000128,
      "v": 60
    },
    {
      "midi": 50,
      "hit": false,
      "t": 166153.68,
      "d": 1014.9562500000175,
      "v": 57
    },
    {
      "midi": 57,
      "hit": false,
      "t": 166410.09,
      "d": 769.2300000000105,
      "v": 63
    },
    {
      "midi": 62,
      "hit": false,
      "t": 166410.09,
      "d": 769.2300000000105,
      "v": 63
    },
    {
      "midi": 65,
      "hit": false,
      "t": 166410.09,
      "d": 769.2300000000105,
      "v": 63
    },
    {
      "midi": 50,
      "hit": false,
      "t": 167179.32,
      "d": 1014.9562500000175,
      "v": 57
    },
    {
      "midi": 55,
      "hit": false,
      "t": 167435.73,
      "d": 769.2300000000105,
      "v": 63
    },
    {
      "midi": 60,
      "hit": false,
      "t": 167435.73,
      "d": 769.2300000000105,
      "v": 63
    },
    {
      "midi": 64,
      "hit": false,
      "t": 167435.73,
      "d": 769.2300000000105,
      "v": 63
    },
    {
      "midi": 50,
      "hit": false,
      "t": 168204.96000000002,
      "d": 1025.640000000014,
      "v": 55
    },
    {
      "midi": 57,
      "hit": false,
      "t": 168204.96000000002,
      "d": 1025.640000000014,
      "v": 65
    },
    {
      "midi": 62,
      "hit": false,
      "t": 168204.96000000002,
      "d": 1025.640000000014,
      "v": 65
    },
    {
      "midi": 65,
      "hit": false,
      "t": 168204.96000000002,
      "d": 1025.640000000014,
      "v": 65
    },
    {
      "midi": 55,
      "hit": false,
      "t": 169230.60000000003,
      "d": 806.6231250000128,
      "v": 60
    },
    {
      "midi": 60,
      "hit": false,
      "t": 169230.60000000003,
      "d": 806.6231250000128,
      "v": 60
    },
    {
      "midi": 64,
      "hit": false,
      "t": 169230.60000000003,
      "d": 806.6231250000128,
      "v": 60
    },
    {
      "midi": 50,
      "hit": false,
      "t": 170256.24000000005,
      "d": 1025.640000000014,
      "v": 55
    },
    {
      "midi": 57,
      "hit": false,
      "t": 170256.24000000005,
      "d": 1025.640000000014,
      "v": 65
    },
    {
      "midi": 62,
      "hit": false,
      "t": 170256.24000000005,
      "d": 1025.640000000014,
      "v": 65
    },
    {
      "midi": 65,
      "hit": false,
      "t": 170256.24000000005,
      "d": 1025.640000000014,
      "v": 65
    },
    {
      "midi": 50,
      "hit": false,
      "t": 171281.88000000006,
      "d": 1025.640000000014,
      "v": 55
    },
    {
      "midi": 55,
      "hit": false,
      "t": 171281.88000000006,
      "d": 1025.640000000014,
      "v": 65
    },
    {
      "midi": 60,
      "hit": false,
      "t": 171281.88000000006,
      "d": 1025.640000000014,
      "v": 65
    },
    {
      "midi": 64,
      "hit": false,
      "t": 171281.88000000006,
      "d": 1025.640000000014,
      "v": 65
    },
    {
      "midi": 57,
      "hit": false,
      "t": 172307.52000000008,
      "d": 806.6231250000128,
      "v": 60
    },
    {
      "midi": 62,
      "hit": false,
      "t": 172307.52000000008,
      "d": 806.6231250000128,
      "v": 60
    },
    {
      "midi": 65,
      "hit": false,
      "t": 172307.52000000008,
      "d": 806.6231250000128,
      "v": 60
    },
    {
      "midi": 50,
      "hit": false,
      "t": 173333.1600000001,
      "d": 1014.9562500000175,
      "v": 57
    },
    {
      "midi": 55,
      "hit": false,
      "t": 173589.5700000001,
      "d": 769.2300000000105,
      "v": 63
    },
    {
      "midi": 60,
      "hit": false,
      "t": 173589.5700000001,
      "d": 769.2300000000105,
      "v": 63
    },
    {
      "midi": 64,
      "hit": false,
      "t": 173589.5700000001,
      "d": 769.2300000000105,
      "v": 63
    },
    {
      "midi": 50,
      "hit": false,
      "t": 174358.8000000001,
      "d": 726.4949999999953,
      "v": 57
    },
    {
      "midi": 57,
      "hit": false,
      "t": 174615.2100000001,
      "d": 470.08499999999185,
      "v": 63
    },
    {
      "midi": 62,
      "hit": false,
      "t": 174615.2100000001,
      "d": 470.08499999999185,
      "v": 63
    },
    {
      "midi": 65,
      "hit": false,
      "t": 174615.2100000001,
      "d": 470.08499999999185,
      "v": 63
    },
    {
      "midi": 55,
      "hit": false,
      "t": 175128.0300000001,
      "d": 982.9049999999988,
      "v": 60
    },
    {
      "midi": 60,
      "hit": false,
      "t": 175128.0300000001,
      "d": 982.9049999999988,
      "v": 60
    },
    {
      "midi": 64,
      "hit": false,
      "t": 175128.0300000001,
      "d": 982.9049999999988,
      "v": 60
    },
    {
      "midi": 55,
      "hit": false,
      "t": 176185.7212500001,
      "d": 2232.9037499999977,
      "v": 67
    },
    {
      "midi": 60,
      "hit": false,
      "t": 176185.7212500001,
      "d": 2232.9037499999977,
      "v": 67
    },
    {
      "midi": 64,
      "hit": false,
      "t": 176185.7212500001,
      "d": 2232.9037499999977,
      "v": 67
    },
    {
      "midi": 67,
      "hit": false,
      "t": 178974.18000000008,
      "d": 283.1193750000093,
      "v": 89
    },
    {
      "midi": 62,
      "hit": false,
      "t": 178984.86375000008,
      "d": 267.09375,
      "v": 79
    },
    {
      "midi": 62,
      "hit": false,
      "t": 179508.36750000008,
      "d": 133.546875,
      "v": 72
    },
    {
      "midi": 67,
      "hit": false,
      "t": 179508.36750000008,
      "d": 651.7087500000198,
      "v": 88
    },
    {
      "midi": 64,
      "hit": false,
      "t": 179636.57250000007,
      "d": 507.4781250000233,
      "v": 71
    }
  ]
}