{
  "jsonPath": "Pop/Brill Building Pop/Timi Yuro/make-the-world-go-away.json",
  "path": "Pop\\Brill Building Pop\\Timi Yuro\\Make The World Go Away.mid",
  "name": "Make The World Go Away",
  "difficulty": "Advanced",
  "bpm": 120,
  "notes": [
    {
      "midi": 65,
      "hit": false,
      "t": 2166.6666666666665,
      "d": 83.33333333333348,
      "v": 82
    },
    {
      "midi": 53,
      "hit": false,
      "t": 2166.6666666666665,
      "d": 150,
      "v": 75
    },
    {
      "midi": 60,
      "hit": false,
      "t": 2750,
      "d": 133.33333333333348,
      "v": 78
    },
    {
      "midi": 48,
      "hit": false,
      "t": 2750,
      "d": 150,
      "v": 83
    },
    {
      "midi": 65,
      "hit": false,
      "t": 3050,
      "d": 83.33333333333348,
      "v": 82
    },
    {
      "midi": 53,
      "hit": false,
      "t": 3050,
      "d": 150,
      "v": 76
    },
    {
      "midi": 60,
      "hit": false,
      "t": 3650,
      "d": 116.66666666666652,
      "v": 83
    },
    {
      "midi": 48,
      "hit": false,
      "t": 3650,
      "d": 183.33333333333303,
      "v": 78
    },
    {
      "midi": 65,
      "hit": false,
      "t": 3949.9999999999995,
      "d": 83.33333333333348,
      "v": 83
    },
    {
      "midi": 53,
      "hit": false,
      "t": 3949.9999999999995,
      "d": 166.66666666666652,
      "v": 81
    },
    {
      "midi": 60,
      "hit": false,
      "t": 4533.333333333333,
      "d": 116.66666666666697,
      "v": 84
    },
    {
      "midi": 48,
      "hit": false,
      "t": 4533.333333333333,
      "d": 150,
      "v": 75
    },
    {
      "midi": 53,
      "hit": false,
      "t": 4833.333333333333,
      "d": 183.33333333333394,
      "v": 76
    },
    {
      "midi": 65,
      "hit": false,
      "t": 4850,
      "d": 66.66666666666697,
      "v": 83
    },
    {
      "midi": 67,
      "hit": false,
      "t": 5116.666666666667,
      "d": 116.66666666666697,
      "v": 84
    },
    {
      "midi": 55,
      "hit": false,
      "t": 5116.666666666667,
      "d": 200,
      "v": 75
    },
    {
      "midi": 57,
      "hit": false,
      "t": 5416.666666666667,
      "d": 100.00000000000091,
      "v": 80
    },
    {
      "midi": 69,
      "hit": false,
      "t": 5433.333333333334,
      "d": 66.66666666666697,
      "v": 80
    },
    {
      "midi": 62,
      "hit": false,
      "t": 5733.333333333335,
      "d": 83.33333333333303,
      "v": 78
    },
    {
      "midi": 50,
      "hit": false,
      "t": 5733.333333333335,
      "d": 133.33333333333303,
      "v": 75
    },
    {
      "midi": 45,
      "hit": false,
      "t": 6333.333333333335,
      "d": 100,
      "v": 78
    },
    {
      "midi": 57,
      "hit": false,
      "t": 6333.333333333335,
      "d": 100,
      "v": 80
    },
    {
      "midi": 62,
      "hit": false,
      "t": 6633.333333333335,
      "d": 66.66666666666697,
      "v": 75
    },
    {
      "midi": 50,
      "hit": false,
      "t": 6633.333333333335,
      "d": 133.33333333333394,
      "v": 82
    },
    {
      "midi": 45,
      "hit": false,
      "t": 7216.666666666669,
      "d": 200,
      "v": 75
    },
    {
      "midi": 57,
      "hit": false,
      "t": 7233.333333333336,
      "d": 133.33333333333303,
      "v": 83
    },
    {
      "midi": 62,
      "hit": false,
      "t": 7516.666666666669,
      "d": 66.66666666666697,
      "v": 76
    },
    {
      "midi": 50,
      "hit": false,
      "t": 7516.666666666669,
      "d": 133.33333333333394,
      "v": 76
    },
    {
      "midi": 60,
      "hit": false,
      "t": 8400.000000000004,
      "d": 150,
      "v": 81
    },
    {
      "midi": 48,
      "hit": false,
      "t": 8400.000000000004,
      "d": 250,
      "v": 75
    },
    {
      "midi": 62,
      "hit": false,
      "t": 8700.000000000004,
      "d": 100,
      "v": 78
    },
    {
      "midi": 50,
      "hit": false,
      "t": 8700.000000000004,
      "d": 200,
      "v": 71
    },
    {
      "midi": 64,
      "hit": false,
      "t": 9000.000000000004,
      "d": 116.66666666666606,
      "v": 81
    },
    {
      "midi": 52,
      "hit": false,
      "t": 9000.000000000004,
      "d": 266.66666666666606,
      "v": 76
    },
    {
      "midi": 65,
      "hit": false,
      "t": 9300.000000000004,
      "d": 66.66666666666606,
      "v": 76
    },
    {
      "midi": 53,
      "hit": false,
      "t": 9300.000000000004,
      "d": 166.66666666666606,
      "v": 78
    },
    {
      "midi": 60,
      "hit": false,
      "t": 9900.000000000004,
      "d": 116.66666666666606,
      "v": 78
    },
    {
      "midi": 48,
      "hit": false,
      "t": 9900.000000000004,
      "d": 200,
      "v": 83
    },
    {
      "midi": 53,
      "hit": false,
      "t": 10200.000000000004,
      "d": 183.33333333333212,
      "v": 78
    },
    {
      "midi": 65,
      "hit": false,
      "t": 10216.66666666667,
      "d": 66.66666666666606,
      "v": 82
    },
    {
      "midi": 60,
      "hit": false,
      "t": 10800.000000000002,
      "d": 116.66666666666606,
      "v": 76
    },
    {
      "midi": 48,
      "hit": false,
      "t": 10800.000000000002,
      "d": 183.33333333333212,
      "v": 76
    },
    {
      "midi": 65,
      "hit": false,
      "t": 11100,
      "d": 83.33333333333394,
      "v": 78
    },
    {
      "midi": 53,
      "hit": false,
      "t": 11100,
      "d": 166.66666666666788,
      "v": 82
    },
    {
      "midi": 60,
      "hit": false,
      "t": 11700.000000000002,
      "d": 100,
      "v": 81
    },
    {
      "midi": 48,
      "hit": false,
      "t": 11700.000000000002,
      "d": 183.33333333333394,
      "v": 81
    },
    {
      "midi": 65,
      "hit": false,
      "t": 12000.000000000002,
      "d": 66.66666666666606,
      "v": 81
    },
    {
      "midi": 53,
      "hit": false,
      "t": 12000.000000000002,
      "d": 200,
      "v": 78
    },
    {
      "midi": 55,
      "hit": false,
      "t": 12283.333333333336,
      "d": 233.33333333333212,
      "v": 78
    },
    {
      "midi": 67,
      "hit": false,
      "t": 12300.000000000002,
      "d": 100,
      "v": 81
    },
    {
      "midi": 69,
      "hit": false,
      "t": 12566.666666666668,
      "d": 83.33333333333394,
      "v": 78
    },
    {
      "midi": 57,
      "hit": false,
      "t": 12566.666666666668,
      "d": 116.66666666666788,
      "v": 77
    },
    {
      "midi": 62,
      "hit": false,
      "t": 12900.000000000002,
      "d": 66.66666666666606,
      "v": 81
    },
    {
      "midi": 50,
      "hit": false,
      "t": 12900.000000000002,
      "d": 116.66666666666606,
      "v": 82
    },
    {
      "midi": 45,
      "hit": false,
      "t": 13483.333333333334,
      "d": 150,
      "v": 73
    },
    {
      "midi": 57,
      "hit": false,
      "t": 13500,
      "d": 100,
      "v": 74
    },
    {
      "midi": 62,
      "hit": false,
      "t": 13800,
      "d": 66.66666666666606,
      "v": 75
    },
    {
      "midi": 50,
      "hit": false,
      "t": 13800,
      "d": 133.33333333333212,
      "v": 76
    },
    {
      "midi": 57,
      "hit": false,
      "t": 14383.333333333332,
      "d": 116.66666666666606,
      "v": 75
    },
    {
      "midi": 45,
      "hit": false,
      "t": 14383.333333333332,
      "d": 166.66666666666606,
      "v": 78
    },
    {
      "midi": 62,
      "hit": false,
      "t": 14683.333333333332,
      "d": 66.66666666666606,
      "v": 75
    },
    {
      "midi": 50,
      "hit": false,
      "t": 14683.333333333332,
      "d": 116.66666666666606,
      "v": 78
    },
    {
      "midi": 60,
      "hit": false,
      "t": 15566.666666666664,
      "d": 250,
      "v": 76
    },
    {
      "midi": 48,
      "hit": false,
      "t": 15566.666666666664,
      "d": 300,
      "v": 75
    },
    {
      "midi": 62,
      "hit": false,
      "t": 15866.666666666664,
      "d": 216.66666666666606,
      "v": 80
    },
    {
      "midi": 50,
      "hit": false,
      "t": 15866.666666666664,
      "d": 266.66666666666606,
      "v": 74
    },
    {
      "midi": 64,
      "hit": false,
      "t": 16149.999999999996,
      "d": 250,
      "v": 75
    },
    {
      "midi": 52,
      "hit": false,
      "t": 16149.999999999996,
      "d": 300,
      "v": 75
    },
    {
      "midi": 53,
      "hit": false,
      "t": 16449.999999999996,
      "d": 16.66666666666788,
      "v": 76
    },
    {
      "midi": 57,
      "hit": false,
      "t": 16783.33333333333,
      "d": 683.3333333333321,
      "v": 72
    },
    {
      "midi": 60,
      "hit": false,
      "t": 17083.33333333333,
      "d": 366.66666666666424,
      "v": 76
    },
    {
      "midi": 65,
      "hit": false,
      "t": 17366.66666666666,
      "d": 416.6666666666679,
      "v": 75
    },
    {
      "midi": 60,
      "hit": false,
      "t": 17666.66666666666,
      "d": 633.3333333333358,
      "v": 72
    },
    {
      "midi": 57,
      "hit": false,
      "t": 17966.66666666666,
      "d": 316.6666666666679,
      "v": 75
    },
    {
      "midi": 53,
      "hit": false,
      "t": 18266.66666666666,
      "d": 1066.6666666666715,
      "v": 73
    },
    {
      "midi": 41,
      "hit": false,
      "t": 18266.66666666666,
      "d": 1500.0000000000036,
      "v": 71
    },
    {
      "midi": 57,
      "hit": false,
      "t": 18599.999999999996,
      "d": 633.3333333333358,
      "v": 72
    },
    {
      "midi": 60,
      "hit": false,
      "t": 18866.666666666664,
      "d": 366.6666666666679,
      "v": 72
    },
    {
      "midi": 65,
      "hit": false,
      "t": 19166.666666666664,
      "d": 366.6666666666679,
      "v": 77
    },
    {
      "midi": 60,
      "hit": false,
      "t": 19450,
      "d": 316.66666666666424,
      "v": 76
    },
    {
      "midi": 57,
      "hit": false,
      "t": 19783.333333333332,
      "d": 150,
      "v": 77
    },
    {
      "midi": 57,
      "hit": false,
      "t": 20066.666666666668,
      "d": 1350.0000000000036,
      "v": 74
    },
    {
      "midi": 38,
      "hit": false,
      "t": 20066.666666666668,
      "d": 1433.3333333333358,
      "v": 72
    },
    {
      "midi": 62,
      "hit": false,
      "t": 20366.666666666668,
      "d": 666.6666666666679,
      "v": 71
    },
    {
      "midi": 65,
      "hit": false,
      "t": 20650,
      "d": 366.6666666666679,
      "v": 72
    },
    {
      "midi": 69,
      "hit": false,
      "t": 20950,
      "d": 316.6666666666715,
      "v": 78
    },
    {
      "midi": 65,
      "hit": false,
      "t": 21250.000000000004,
      "d": 850.0000000000036,
      "v": 73
    },
    {
      "midi": 62,
      "hit": false,
      "t": 21550.000000000004,
      "d": 450.00000000000364,
      "v": 77
    },
    {
      "midi": 38,
      "hit": false,
      "t": 21716.66666666667,
      "d": 1800.0000000000073,
      "v": 73
    },
    {
      "midi": 57,
      "hit": false,
      "t": 21866.66666666667,
      "d": 1266.6666666666715,
      "v": 76
    },
    {
      "midi": 62,
      "hit": false,
      "t": 22166.666666666675,
      "d": 633.3333333333358,
      "v": 76
    },
    {
      "midi": 65,
      "hit": false,
      "t": 22433.333333333343,
      "d": 366.6666666666679,
      "v": 73
    },
    {
      "midi": 69,
      "hit": false,
      "t": 22733.333333333343,
      "d": 266.6666666666679,
      "v": 79
    },
    {
      "midi": 65,
      "hit": false,
      "t": 23050.00000000001,
      "d": 300,
      "v": 74
    },
    {
      "midi": 62,
      "hit": false,
      "t": 23333.333333333343,
      "d": 116.66666666666788,
      "v": 78
    },
    {
      "midi": 53,
      "hit": false,
      "t": 23616.66666666668,
      "d": 1383.3333333333321,
      "v": 76
    },
    {
      "midi": 58,
      "hit": false,
      "t": 23933.333333333343,
      "d": 700,
      "v": 72
    },
    {
      "midi": 62,
      "hit": false,
      "t": 24233.333333333343,
      "d": 366.6666666666679,
      "v": 66
    },
    {
      "midi": 65,
      "hit": false,
      "t": 24533.333333333343,
      "d": 416.6666666666679,
      "v": 75
    },
    {
      "midi": 62,
      "hit": false,
      "t": 24833.333333333343,
      "d": 616.6666666666715,
      "v": 72
    },
    {
      "midi": 58,
      "hit": false,
      "t": 25116.66666666668,
      "d": 316.6666666666679,
      "v": 75
    },
    {
      "midi": 53,
      "hit": false,
      "t": 25416.66666666668,
      "d": 1066.6666666666642,
      "v": 73
    },
    {
      "midi": 34,
      "hit": false,
      "t": 25416.66666666668,
      "d": 1516.6666666666642,
      "v": 71
    },
    {
      "midi": 58,
      "hit": false,
      "t": 25750.000000000015,
      "d": 649.9999999999964,
      "v": 72
    },
    {
      "midi": 62,
      "hit": false,
      "t": 26033.333333333347,
      "d": 366.66666666666424,
      "v": 72
    },
    {
      "midi": 65,
      "hit": false,
      "t": 26316.66666666668,
      "d": 366.66666666666424,
      "v": 77
    },
    {
      "midi": 62,
      "hit": false,
      "t": 26600.00000000001,
      "d": 316.66666666666424,
      "v": 76
    },
    {
      "midi": 58,
      "hit": false,
      "t": 26933.333333333343,
      "d": 166.66666666666788,
      "v": 77
    },
    {
      "midi": 41,
      "hit": false,
      "t": 27200.00000000001,
      "d": 1716.6666666666715,
      "v": 72
    },
    {
      "midi": 53,
      "hit": false,
      "t": 27216.66666666668,
      "d": 1266.6666666666679,
      "v": 72
    },
    {
      "midi": 57,
      "hit": false,
      "t": 27516.66666666668,
      "d": 666.6666666666679,
      "v": 76
    },
    {
      "midi": 60,
      "hit": false,
      "t": 27800.00000000001,
      "d": 400.00000000000364,
      "v": 73
    },
    {
      "midi": 65,
      "hit": false,
      "t": 28116.66666666668,
      "d": 250.00000000000364,
      "v": 78
    },
    {
      "midi": 60,
      "hit": false,
      "t": 28400.000000000015,
      "d": 433.3333333333321,
      "v": 74
    },
    {
      "midi": 57,
      "hit": false,
      "t": 28700.000000000015,
      "d": 200,
      "v": 77
    },
    {
      "midi": 38,
      "hit": false,
      "t": 28983.33333333335,
      "d": 1733.3333333333321,
      "v": 72
    },
    {
      "midi": 57,
      "hit": false,
      "t": 29000.00000000002,
      "d": 1283.3333333333321,
      "v": 72
    },
    {
      "midi": 60,
      "hit": false,
      "t": 29300.00000000002,
      "d": 683.3333333333321,
      "v": 76
    },
    {
      "midi": 62,
      "hit": false,
      "t": 29583.33333333335,
      "d": 400,
      "v": 73
    },
    {
      "midi": 66,
      "hit": false,
      "t": 29900.00000000002,
      "d": 250,
      "v": 78
    },
    {
      "midi": 62,
      "hit": false,
      "t": 30200.00000000002,
      "d": 416.66666666666424,
      "v": 74
    },
    {
      "midi": 60,
      "hit": false,
      "t": 30483.33333333335,
      "d": 200,
      "v": 77
    },
    {
      "midi": 43,
      "hit": false,
      "t": 30766.666666666682,
      "d": 883.3333333333358,
      "v": 73
    },
    {
      "midi": 55,
      "hit": false,
      "t": 30766.666666666682,
      "d": 1316.6666666666715,
      "v": 75
    },
    {
      "midi": 58,
      "hit": false,
      "t": 31083.33333333335,
      "d": 683.3333333333358,
      "v": 74
    },
    {
      "midi": 62,
      "hit": false,
      "t": 31383.33333333335,
      "d": 283.33333333333576,
      "v": 73
    },
    {
      "midi": 67,
      "hit": false,
      "t": 31683.333333333354,
      "d": 383.3333333333321,
      "v": 79
    },
    {
      "midi": 62,
      "hit": false,
      "t": 31966.666666666686,
      "d": 500,
      "v": 73
    },
    {
      "midi": 43,
      "hit": false,
      "t": 32133.333333333354,
      "d": 283.3333333333321,
      "v": 76
    },
    {
      "midi": 55,
      "hit": false,
      "t": 32266.666666666686,
      "d": 183.33333333333212,
      "v": 79
    },
    {
      "midi": 41,
      "hit": false,
      "t": 32566.666666666686,
      "d": 883.3333333333358,
      "v": 73
    },
    {
      "midi": 55,
      "hit": false,
      "t": 32566.666666666686,
      "d": 1300,
      "v": 75
    },
    {
      "midi": 58,
      "hit": false,
      "t": 32866.666666666686,
      "d": 683.3333333333358,
      "v": 74
    },
    {
      "midi": 62,
      "hit": false,
      "t": 33166.666666666686,
      "d": 283.33333333333576,
      "v": 73
    },
    {
      "midi": 65,
      "hit": false,
      "t": 33466.666666666686,
      "d": 383.33333333333576,
      "v": 79
    },
    {
      "midi": 62,
      "hit": false,
      "t": 33766.666666666686,
      "d": 483.33333333333576,
      "v": 73
    },
    {
      "midi": 41,
      "hit": false,
      "t": 33916.666666666686,
      "d": 283.33333333333576,
      "v": 76
    },
    {
      "midi": 55,
      "hit": false,
      "t": 34050.00000000002,
      "d": 183.33333333333576,
      "v": 79
    },
    {
      "midi": 55,
      "hit": false,
      "t": 34350.00000000002,
      "d": 1366.6666666666715,
      "v": 76
    },
    {
      "midi": 60,
      "hit": false,
      "t": 34666.66666666669,
      "d": 700,
      "v": 72
    },
    {
      "midi": 64,
      "hit": false,
      "t": 34966.66666666669,
      "d": 366.66666666666424,
      "v": 66
    },
    {
      "midi": 67,
      "hit": false,
      "t": 35266.66666666669,
      "d": 416.66666666666424,
      "v": 75
    },
    {
      "midi": 64,
      "hit": false,
      "t": 35566.66666666669,
      "d": 616.6666666666642,
      "v": 72
    },
    {
      "midi": 60,
      "hit": false,
      "t": 35850.00000000003,
      "d": 316.66666666666424,
      "v": 75
    },
    {
      "midi": 55,
      "hit": false,
      "t": 36150.00000000003,
      "d": 1066.666666666657,
      "v": 73
    },
    {
      "midi": 36,
      "hit": false,
      "t": 36150.00000000003,
      "d": 1516.666666666657,
      "v": 71
    },
    {
      "midi": 60,
      "hit": false,
      "t": 36500.00000000002,
      "d": 616.6666666666642,
      "v": 72
    },
    {
      "midi": 64,
      "hit": false,
      "t": 36766.666666666686,
      "d": 350,
      "v": 72
    },
    {
      "midi": 67,
      "hit": false,
      "t": 37050.00000000002,
      "d": 366.66666666666424,
      "v": 77
    },
    {
      "midi": 64,
      "hit": false,
      "t": 37350.00000000002,
      "d": 300,
      "v": 76
    },
    {
      "midi": 60,
      "hit": false,
      "t": 37666.666666666686,
      "d": 166.66666666666424,
      "v": 77
    },
    {
      "midi": 55,
      "hit": false,
      "t": 37950.000000000015,
      "d": 1349.9999999999927,
      "v": 74
    },
    {
      "midi": 36,
      "hit": false,
      "t": 37950.000000000015,
      "d": 1449.9999999999927,
      "v": 72
    },
    {
      "midi": 60,
      "hit": false,
      "t": 38266.66666666668,
      "d": 666.6666666666642,
      "v": 71
    },
    {
      "midi": 64,
      "hit": false,
      "t": 38533.33333333334,
      "d": 366.66666666666424,
      "v": 72
    },
    {
      "midi": 67,
      "hit": false,
      "t": 38850.00000000001,
      "d": 300,
      "v": 78
    },
    {
      "midi": 64,
      "hit": false,
      "t": 39133.33333333334,
      "d": 849.9999999999927,
      "v": 73
    },
    {
      "midi": 60,
      "hit": false,
      "t": 39433.33333333334,
      "d": 449.9999999999927,
      "v": 77
    },
    {
      "midi": 36,
      "hit": false,
      "t": 39600.00000000001,
      "d": 1816.6666666666497,
      "v": 73
    },
    {
      "midi": 55,
      "hit": false,
      "t": 39750.00000000001,
      "d": 1266.666666666657,
      "v": 76
    },
    {
      "midi": 60,
      "hit": false,
      "t": 40050,
      "d": 649.9999999999927,
      "v": 76
    },
    {
      "midi": 64,
      "hit": false,
      "t": 40316.666666666664,
      "d": 366.66666666666424,
      "v": 73
    },
    {
      "midi": 67,
      "hit": false,
      "t": 40616.666666666664,
      "d": 266.66666666666424,
      "v": 79
    },
    {
      "midi": 64,
      "hit": false,
      "t": 40933.33333333333,
      "d": 300,
      "v": 74
    },
    {
      "midi": 60,
      "hit": false,
      "t": 41216.666666666664,
      "d": 133.33333333332848,
      "v": 78
    },
    {
      "midi": 53,
      "hit": false,
      "t": 41499.99999999999,
      "d": 1383.3333333333358,
      "v": 76
    },
    {
      "midi": 57,
      "hit": false,
      "t": 41816.666666666664,
      "d": 700,
      "v": 72
    },
    {
      "midi": 60,
      "hit": false,
      "t": 42116.666666666664,
      "d": 366.66666666666424,
      "v": 66
    },
    {
      "midi": 65,
      "hit": false,
      "t": 42416.666666666664,
      "d": 416.66666666666424,
      "v": 75
    },
    {
      "midi": 60,
      "hit": false,
      "t": 42716.666666666664,
      "d": 616.666666666657,
      "v": 72
    },
    {
      "midi": 57,
      "hit": false,
      "t": 42999.99999999999,
      "d": 316.66666666666424,
      "v": 75
    },
    {
      "midi": 53,
      "hit": false,
      "t": 43299.99999999999,
      "d": 1083.3333333333212,
      "v": 73
    },
    {
      "midi": 41,
      "hit": false,
      "t": 43299.99999999999,
      "d": 1516.6666666666497,
      "v": 71
    },
    {
      "midi": 57,
      "hit": false,
      "t": 43649.999999999985,
      "d": 633.3333333333285,
      "v": 72
    },
    {
      "midi": 60,
      "hit": false,
      "t": 43916.66666666665,
      "d": 366.66666666666424,
      "v": 72
    },
    {
      "midi": 65,
      "hit": false,
      "t": 44216.66666666665,
      "d": 349.9999999999927,
      "v": 77
    },
    {
      "midi": 60,
      "hit": false,
      "t": 44499.99999999998,
      "d": 300,
      "v": 76
    },
    {
      "midi": 57,
      "hit": false,
      "t": 44816.66666666664,
      "d": 166.66666666666424,
      "v": 77
    },
    {
      "midi": 72,
      "hit": false,
      "t": 45083.33333333331,
      "d": 133.33333333333576,
      "v": 71
    },
    {
      "midi": 77,
      "hit": false,
      "t": 45083.33333333331,
      "d": 150,
      "v": 72
    },
    {
      "midi": 69,
      "hit": false,
      "t": 45083.33333333331,
      "d": 166.66666666666424,
      "v": 71
    },
    {
      "midi": 72,
      "hit": false,
      "t": 45383.33333333331,
      "d": 100,
      "v": 71
    },
    {
      "midi": 77,
      "hit": false,
      "t": 45383.33333333331,
      "d": 116.66666666666424,
      "v": 71
    },
    {
      "midi": 69,
      "hit": false,
      "t": 45383.33333333331,
      "d": 133.33333333332848,
      "v": 71
    },
    {
      "midi": 72,
      "hit": false,
      "t": 45683.3333333333,
      "d": 116.66666666666424,
      "v": 71
    },
    {
      "midi": 69,
      "hit": false,
      "t": 45683.3333333333,
      "d": 133.33333333332848,
      "v": 71
    },
    {
      "midi": 77,
      "hit": false,
      "t": 45683.3333333333,
      "d": 133.33333333332848,
      "v": 71
    },
    {
      "midi": 72,
      "hit": false,
      "t": 45966.66666666663,
      "d": 116.66666666666424,
      "v": 71
    },
    {
      "midi": 69,
      "hit": false,
      "t": 45966.66666666663,
      "d": 133.33333333332848,
      "v": 72
    },
    {
      "midi": 77,
      "hit": false,
      "t": 45966.66666666663,
      "d": 133.33333333332848,
      "v": 71
    },
    {
      "midi": 72,
      "hit": false,
      "t": 46266.66666666662,
      "d": 116.66666666666424,
      "v": 71
    },
    {
      "midi": 77,
      "hit": false,
      "t": 46266.66666666662,
      "d": 116.66666666666424,
      "v": 71
    },
    {
      "midi": 69,
      "hit": false,
      "t": 46266.66666666662,
      "d": 133.33333333332848,
      "v": 71
    },
    {
      "midi": 72,
      "hit": false,
      "t": 46566.66666666661,
      "d": 100,
      "v": 71
    },
    {
      "midi": 69,
      "hit": false,
      "t": 46566.66666666661,
      "d": 133.33333333333576,
      "v": 71
    },
    {
      "midi": 77,
      "hit": false,
      "t": 46566.66666666661,
      "d": 133.33333333333576,
      "v": 71
    },
    {
      "midi": 65,
      "hit": false,
      "t": 46866.66666666661,
      "d": 133.33333333332848,
      "v": 71
    },
    {
      "midi": 69,
      "hit": false,
      "t": 46866.66666666661,
      "d": 166.66666666666424,
      "v": 72
    },
    {
      "midi": 62,
      "hit": false,
      "t": 46883.33333333328,
      "d": 150,
      "v": 71
    },
    {
      "midi": 65,
      "hit": false,
      "t": 47166.66666666661,
      "d": 116.66666666666424,
      "v": 71
    },
    {
      "midi": 62,
      "hit": false,
      "t": 47166.66666666661,
      "d": 133.33333333332848,
      "v": 71
    },
    {
      "midi": 69,
      "hit": false,
      "t": 47166.66666666661,
      "d": 133.33333333332848,
      "v": 71
    },
    {
      "midi": 65,
      "hit": false,
      "t": 47466.666666666606,
      "d": 116.66666666666424,
      "v": 71
    },
    {
      "midi": 69,
      "hit": false,
      "t": 47466.666666666606,
      "d": 133.33333333332848,
      "v": 71
    },
    {
      "midi": 62,
      "hit": false,
      "t": 47466.666666666606,
      "d": 149.99999999999272,
      "v": 71
    },
    {
      "midi": 62,
      "hit": false,
      "t": 47766.6666666666,
      "d": 116.66666666666424,
      "v": 72
    },
    {
      "midi": 65,
      "hit": false,
      "t": 47766.6666666666,
      "d": 116.66666666666424,
      "v": 71
    },
    {
      "midi": 69,
      "hit": false,
      "t": 47766.6666666666,
      "d": 133.33333333332848,
      "v": 71
    },
    {
      "midi": 69,
      "hit": false,
      "t": 48066.66666666659,
      "d": 100,
      "v": 71
    },
    {
      "midi": 65,
      "hit": false,
      "t": 48066.66666666659,
      "d": 116.66666666666424,
      "v": 71
    },
    {
      "midi": 62,
      "hit": false,
      "t": 48066.66666666659,
      "d": 133.33333333332848,
      "v": 71
    },
    {
      "midi": 65,
      "hit": false,
      "t": 48366.666666666584,
      "d": 100,
      "v": 71
    },
    {
      "midi": 62,
      "hit": false,
      "t": 48366.666666666584,
      "d": 116.66666666666424,
      "v": 71
    },
    {
      "midi": 69,
      "hit": false,
      "t": 48366.666666666584,
      "d": 116.66666666666424,
      "v": 71
    },
    {
      "midi": 74,
      "hit": false,
      "t": 48666.666666666584,
      "d": 133.33333333333576,
      "v": 71
    },
    {
      "midi": 79,
      "hit": false,
      "t": 48666.666666666584,
      "d": 150,
      "v": 72
    },
    {
      "midi": 70,
      "hit": false,
      "t": 48666.666666666584,
      "d": 166.66666666666424,
      "v": 71
    },
    {
      "midi": 74,
      "hit": false,
      "t": 48949.99999999991,
      "d": 116.66666666666424,
      "v": 71
    },
    {
      "midi": 79,
      "hit": false,
      "t": 48949.99999999991,
      "d": 133.33333333332848,
      "v": 71
    },
    {
      "midi": 70,
      "hit": false,
      "t": 48949.99999999991,
      "d": 149.99999999999272,
      "v": 71
    },
    {
      "midi": 74,
      "hit": false,
      "t": 49249.999999999905,
      "d": 116.66666666666424,
      "v": 71
    },
    {
      "midi": 70,
      "hit": false,
      "t": 49249.999999999905,
      "d": 150,
      "v": 71
    },
    {
      "midi": 79,
      "hit": false,
      "t": 49249.999999999905,
      "d": 150,
      "v": 71
    },
    {
      "midi": 74,
      "hit": false,
      "t": 49549.999999999905,
      "d": 116.66666666666424,
      "v": 71
    },
    {
      "midi": 70,
      "hit": false,
      "t": 49549.999999999905,
      "d": 133.33333333332848,
      "v": 72
    },
    {
      "midi": 79,
      "hit": false,
      "t": 49549.999999999905,
      "d": 133.33333333332848,
      "v": 71
    },
    {
      "midi": 79,
      "hit": false,
      "t": 49849.9999999999,
      "d": 100,
      "v": 71
    },
    {
      "midi": 74,
      "hit": false,
      "t": 49849.9999999999,
      "d": 116.66666666666424,
      "v": 71
    },
    {
      "midi": 70,
      "hit": false,
      "t": 49849.9999999999,
      "d": 133.33333333332848,
      "v": 71
    },
    {
      "midi": 74,
      "hit": false,
      "t": 50149.99999999989,
      "d": 100,
      "v": 71
    },
    {
      "midi": 70,
      "hit": false,
      "t": 50149.99999999989,
      "d": 116.66666666666424,
      "v": 71
    },
    {
      "midi": 79,
      "hit": false,
      "t": 50149.99999999989,
      "d": 133.33333333332848,
      "v": 71
    },
    {
      "midi": 74,
      "hit": false,
      "t": 50449.99999999988,
      "d": 83.33333333333576,
      "v": 71
    },
    {
      "midi": 70,
      "hit": false,
      "t": 50449.99999999988,
      "d": 116.66666666667152,
      "v": 71
    },
    {
      "midi": 79,
      "hit": false,
      "t": 50449.99999999988,
      "d": 116.66666666667152,
      "v": 71
    },
    {
      "midi": 74,
      "hit": false,
      "t": 50749.99999999989,
      "d": 100,
      "v": 71
    },
    {
      "midi": 79,
      "hit": false,
      "t": 50749.99999999989,
      "d": 100,
      "v": 72
    },
    {
      "midi": 70,
      "hit": false,
      "t": 50749.99999999989,
      "d": 116.66666666666424,
      "v": 71
    },
    {
      "midi": 70,
      "hit": false,
      "t": 51033.33333333322,
      "d": 116.66666666666424,
      "v": 71
    },
    {
      "midi": 79,
      "hit": false,
      "t": 51033.33333333322,
      "d": 116.66666666666424,
      "v": 71
    },
    {
      "midi": 74,
      "hit": false,
      "t": 51049.99999999988,
      "d": 83.33333333333576,
      "v": 71
    },
    {
      "midi": 74,
      "hit": false,
      "t": 51349.99999999988,
      "d": 100,
      "v": 71
    },
    {
      "midi": 79,
      "hit": false,
      "t": 51349.99999999988,
      "d": 100,
      "v": 71
    },
    {
      "midi": 70,
      "hit": false,
      "t": 51349.99999999988,
      "d": 116.66666666666424,
      "v": 71
    },
    {
      "midi": 74,
      "hit": false,
      "t": 51633.33333333321,
      "d": 100,
      "v": 71
    },
    {
      "midi": 79,
      "hit": false,
      "t": 51633.33333333321,
      "d": 116.66666666666424,
      "v": 71
    },
    {
      "midi": 70,
      "hit": false,
      "t": 51633.33333333321,
      "d": 133.33333333332848,
      "v": 71
    },
    {
      "midi": 74,
      "hit": false,
      "t": 51933.333333333205,
      "d": 100,
      "v": 71
    },
    {
      "midi": 79,
      "hit": false,
      "t": 51933.333333333205,
      "d": 100,
      "v": 71
    },
    {
      "midi": 70,
      "hit": false,
      "t": 51933.333333333205,
      "d": 116.66666666666424,
      "v": 71
    },
    {
      "midi": 64,
      "hit": false,
      "t": 52233.333333333205,
      "d": 133.33333333332848,
      "v": 71
    },
    {
      "midi": 67,
      "hit": false,
      "t": 52233.333333333205,
      "d": 166.66666666666424,
      "v": 72
    },
    {
      "midi": 60,
      "hit": false,
      "t": 52249.99999999987,
      "d": 150,
      "v": 71
    },
    {
      "midi": 64,
      "hit": false,
      "t": 52533.333333333205,
      "d": 116.66666666666424,
      "v": 71
    },
    {
      "midi": 67,
      "hit": false,
      "t": 52533.333333333205,
      "d": 116.66666666666424,
      "v": 71
    },
    {
      "midi": 60,
      "hit": false,
      "t": 52533.333333333205,
      "d": 133.33333333332848,
      "v": 71
    },
    {
      "midi": 64,
      "hit": false,
      "t": 52833.3333333332,
      "d": 116.66666666666424,
      "v": 71
    },
    {
      "midi": 67,
      "hit": false,
      "t": 52833.3333333332,
      "d": 133.33333333332848,
      "v": 71
    },
    {
      "midi": 60,
      "hit": false,
      "t": 52833.3333333332,
      "d": 149.99999999999272,
      "v": 71
    },
    {
      "midi": 64,
      "hit": false,
      "t": 53133.33333333319,
      "d": 116.66666666666424,
      "v": 71
    },
    {
      "midi": 60,
      "hit": false,
      "t": 53133.33333333319,
      "d": 133.33333333332848,
      "v": 72
    },
    {
      "midi": 67,
      "hit": false,
      "t": 53133.33333333319,
      "d": 133.33333333332848,
      "v": 71
    },
    {
      "midi": 64,
      "hit": false,
      "t": 53433.33333333318,
      "d": 100,
      "v": 71
    },
    {
      "midi": 67,
      "hit": false,
      "t": 53433.33333333318,
      "d": 100,
      "v": 71
    },
    {
      "midi": 60,
      "hit": false,
      "t": 53433.33333333318,
      "d": 133.33333333333576,
      "v": 71
    },
    {
      "midi": 64,
      "hit": false,
      "t": 53733.33333333318,
      "d": 100,
      "v": 71
    },
    {
      "midi": 60,
      "hit": false,
      "t": 53733.33333333318,
      "d": 116.66666666666424,
      "v": 71
    },
    {
      "midi": 67,
      "hit": false,
      "t": 53733.33333333318,
      "d": 116.66666666666424,
      "v": 71
    },
    {
      "midi": 60,
      "hit": false,
      "t": 54016.66666666651,
      "d": 133.33333333333576,
      "v": 71
    },
    {
      "midi": 67,
      "hit": false,
      "t": 54016.66666666651,
      "d": 133.33333333333576,
      "v": 71
    },
    {
      "midi": 64,
      "hit": false,
      "t": 54033.333333333176,
      "d": 83.33333333333576,
      "v": 71
    },
    {
      "midi": 64,
      "hit": false,
      "t": 54316.66666666651,
      "d": 116.66666666666424,
      "v": 71
    },
    {
      "midi": 67,
      "hit": false,
      "t": 54316.66666666651,
      "d": 116.66666666666424,
      "v": 72
    },
    {
      "midi": 60,
      "hit": false,
      "t": 54316.66666666651,
      "d": 133.33333333332848,
      "v": 71
    },
    {
      "midi": 64,
      "hit": false,
      "t": 54616.666666666504,
      "d": 83.33333333333576,
      "v": 71
    },
    {
      "midi": 60,
      "hit": false,
      "t": 54616.666666666504,
      "d": 116.66666666667152,
      "v": 71
    },
    {
      "midi": 67,
      "hit": false,
      "t": 54616.666666666504,
      "d": 116.66666666667152,
      "v": 71
    },
    {
      "midi": 67,
      "hit": false,
      "t": 54916.66666666651,
      "d": 116.66666666666424,
      "v": 71
    },
    {
      "midi": 60,
      "hit": false,
      "t": 54916.66666666651,
      "d": 133.33333333332848,
      "v": 71
    },
    {
      "midi": 64,
      "hit": false,
      "t": 54933.333333333176,
      "d": 83.33333333333576,
      "v": 71
    },
    {
      "midi": 64,
      "hit": false,
      "t": 55216.666666666504,
      "d": 100,
      "v": 71
    },
    {
      "midi": 67,
      "hit": false,
      "t": 55216.666666666504,
      "d": 116.66666666666424,
      "v": 71
    },
    {
      "midi": 60,
      "hit": false,
      "t": 55216.666666666504,
      "d": 133.33333333332848,
      "v": 71
    },
    {
      "midi": 64,
      "hit": false,
      "t": 55516.6666666665,
      "d": 83.33333333333576,
      "v": 71
    },
    {
      "midi": 67,
      "hit": false,
      "t": 55516.6666666665,
      "d": 83.33333333333576,
      "v": 71
    },
    {
      "midi": 60,
      "hit": false,
      "t": 55516.6666666665,
      "d": 116.66666666667152,
      "v": 71
    },
    {
      "midi": 72,
      "hit": false,
      "t": 55816.666666666504,
      "d": 133.33333333333576,
      "v": 71
    },
    {
      "midi": 69,
      "hit": false,
      "t": 55816.666666666504,
      "d": 166.66666666667152,
      "v": 71
    },
    {
      "midi": 77,
      "hit": false,
      "t": 55816.666666666504,
      "d": 166.66666666667152,
      "v": 72
    },
    {
      "midi": 69,
      "hit": false,
      "t": 56099.99999999984,
      "d": 149.99999999999272,
      "v": 71
    },
    {
      "midi": 72,
      "hit": false,
      "t": 56116.666666666504,
      "d": 116.66666666666424,
      "v": 71
    },
    {
      "midi": 77,
      "hit": false,
      "t": 56116.666666666504,
      "d": 116.66666666666424,
      "v": 71
    },
    {
      "midi": 72,
      "hit": false,
      "t": 56416.6666666665,
      "d": 116.66666666666424,
      "v": 71
    },
    {
      "midi": 69,
      "hit": false,
      "t": 56416.6666666665,
      "d": 133.33333333332848,
      "v": 71
    },
    {
      "midi": 77,
      "hit": false,
      "t": 56416.6666666665,
      "d": 133.33333333332848,
      "v": 71
    },
    {
      "midi": 77,
      "hit": false,
      "t": 56699.999999999825,
      "d": 133.33333333332848,
      "v": 71
    },
    {
      "midi": 69,
      "hit": false,
      "t": 56716.66666666649,
      "d": 116.66666666666424,
      "v": 72
    },
    {
      "midi": 72,
      "hit": false,
      "t": 56716.66666666649,
      "d": 116.66666666666424,
      "v": 71
    },
    {
      "midi": 72,
      "hit": false,
      "t": 56999.99999999982,
      "d": 116.66666666666424,
      "v": 71
    },
    {
      "midi": 77,
      "hit": false,
      "t": 56999.99999999982,
      "d": 116.66666666666424,
      "v": 71
    },
    {
      "midi": 69,
      "hit": false,
      "t": 56999.99999999982,
      "d": 133.33333333332848,
      "v": 71
    },
    {
      "midi": 72,
      "hit": false,
      "t": 57299.99999999981,
      "d": 100,
      "v": 71
    },
    {
      "midi": 69,
      "hit": false,
      "t": 57299.99999999981,
      "d": 133.33333333333576,
      "v": 71
    },
    {
      "midi": 77,
      "hit": false,
      "t": 57299.99999999981,
      "d": 133.33333333333576,
      "v": 71
    },
    {
      "midi": 64,
      "hit": false,
      "t": 57599.99999999981,
      "d": 150,
      "v": 71
    },
    {
      "midi": 60,
      "hit": false,
      "t": 57599.99999999981,
      "d": 166.66666666666424,
      "v": 71
    },
    {
      "midi": 67,
      "hit": false,
      "t": 57599.99999999981,
      "d": 166.66666666666424,
      "v": 72
    },
    {
      "midi": 64,
      "hit": false,
      "t": 57899.99999999981,
      "d": 116.66666666666424,
      "v": 71
    },
    {
      "midi": 67,
      "hit": false,
      "t": 57899.99999999981,
      "d": 116.66666666666424,
      "v": 71
    },
    {
      "midi": 60,
      "hit": false,
      "t": 57899.99999999981,
      "d": 133.33333333332848,
      "v": 71
    },
    {
      "midi": 64,
      "hit": false,
      "t": 58199.9999999998,
      "d": 116.66666666666424,
      "v": 71
    },
    {
      "midi": 60,
      "hit": false,
      "t": 58199.9999999998,
      "d": 133.33333333332848,
      "v": 71
    },
    {
      "midi": 67,
      "hit": false,
      "t": 58199.9999999998,
      "d": 133.33333333332848,
      "v": 71
    },
    {
      "midi": 64,
      "hit": false,
      "t": 58499.999999999796,
      "d": 116.66666666666424,
      "v": 71
    },
    {
      "midi": 60,
      "hit": false,
      "t": 58499.999999999796,
      "d": 133.33333333332848,
      "v": 72
    },
    {
      "midi": 67,
      "hit": false,
      "t": 58499.999999999796,
      "d": 133.33333333332848,
      "v": 71
    },
    {
      "midi": 67,
      "hit": false,
      "t": 58783.333333333125,
      "d": 116.66666666666424,
      "v": 71
    },
    {
      "midi": 60,
      "hit": false,
      "t": 58799.99999999979,
      "d": 116.66666666666424,
      "v": 71
    },
    {
      "midi": 64,
      "hit": false,
      "t": 58799.99999999979,
      "d": 116.66666666666424,
      "v": 71
    },
    {
      "midi": 67,
      "hit": false,
      "t": 59083.33333333312,
      "d": 133.33333333332848,
      "v": 71
    },
    {
      "midi": 64,
      "hit": false,
      "t": 59099.99999999978,
      "d": 100,
      "v": 71
    },
    {
      "midi": 60,
      "hit": false,
      "t": 59099.99999999978,
      "d": 116.66666666666424,
      "v": 71
    },
    {
      "midi": 72,
      "hit": false,
      "t": 59399.99999999978,
      "d": 133.33333333333576,
      "v": 71
    },
    {
      "midi": 77,
      "hit": false,
      "t": 59399.99999999978,
      "d": 150,
      "v": 72
    },
    {
      "midi": 69,
      "hit": false,
      "t": 59399.99999999978,
      "d": 166.66666666666424,
      "v": 71
    },
    {
      "midi": 72,
      "hit": false,
      "t": 59683.33333333311,
      "d": 116.66666666666424,
      "v": 71
    },
    {
      "midi": 69,
      "hit": false,
      "t": 59683.33333333311,
      "d": 133.33333333332848,
      "v": 71
    },
    {
      "midi": 77,
      "hit": false,
      "t": 59683.33333333311,
      "d": 133.33333333332848,
      "v": 71
    },
    {
      "midi": 72,
      "hit": false,
      "t": 59983.3333333331,
      "d": 116.66666666666424,
      "v": 71
    },
    {
      "midi": 69,
      "hit": false,
      "t": 59983.3333333331,
      "d": 150,
      "v": 71
    },
    {
      "midi": 77,
      "hit": false,
      "t": 59983.3333333331,
      "d": 150,
      "v": 71
    },
    {
      "midi": 72,
      "hit": false,
      "t": 60283.3333333331,
      "d": 116.66666666666424,
      "v": 71
    },
    {
      "midi": 69,
      "hit": false,
      "t": 60283.3333333331,
      "d": 133.33333333332848,
      "v": 72
    },
    {
      "midi": 77,
      "hit": false,
      "t": 60283.3333333331,
      "d": 133.33333333332848,
      "v": 71
    },
    {
      "midi": 72,
      "hit": false,
      "t": 60583.333333333096,
      "d": 116.66666666666424,
      "v": 71
    },
    {
      "midi": 77,
      "hit": false,
      "t": 60583.333333333096,
      "d": 116.66666666666424,
      "v": 71
    },
    {
      "midi": 69,
      "hit": false,
      "t": 60583.333333333096,
      "d": 133.33333333332848,
      "v": 71
    },
    {
      "midi": 72,
      "hit": false,
      "t": 60883.33333333309,
      "d": 100,
      "v": 71
    },
    {
      "midi": 69,
      "hit": false,
      "t": 60883.33333333309,
      "d": 116.66666666666424,
      "v": 71
    },
    {
      "midi": 77,
      "hit": false,
      "t": 60883.33333333309,
      "d": 116.66666666666424,
      "v": 71
    },
    {
      "midi": 65,
      "hit": false,
      "t": 61183.33333333309,
      "d": 133.33333333333576,
      "v": 71
    },
    {
      "midi": 69,
      "hit": false,
      "t": 61183.33333333309,
      "d": 150,
      "v": 72
    },
    {
      "midi": 62,
      "hit": false,
      "t": 61183.33333333309,
      "d": 166.66666666666424,
      "v": 71
    },
    {
      "midi": 65,
      "hit": false,
      "t": 61483.33333333309,
      "d": 100,
      "v": 71
    },
    {
      "midi": 69,
      "hit": false,
      "t": 61483.33333333309,
      "d": 116.66666666666424,
      "v": 71
    },
    {
      "midi": 62,
      "hit": false,
      "t": 61483.33333333309,
      "d": 133.33333333332848,
      "v": 71
    },
    {
      "midi": 62,
      "hit": false,
      "t": 61766.66666666642,
      "d": 150,
      "v": 71
    },
    {
      "midi": 69,
      "hit": false,
      "t": 61766.66666666642,
      "d": 150,
      "v": 71
    },
    {
      "midi": 65,
      "hit": false,
      "t": 61783.33333333308,
      "d": 100,
      "v": 71
    },
    {
      "midi": 65,
      "hit": false,
      "t": 62066.66666666642,
      "d": 116.66666666666424,
      "v": 71
    },
    {
      "midi": 69,
      "hit": false,
      "t": 62066.66666666642,
      "d": 133.33333333332848,
      "v": 71
    },
    {
      "midi": 62,
      "hit": false,
      "t": 62083.33333333308,
      "d": 116.66666666666424,
      "v": 72
    },
    {
      "midi": 65,
      "hit": false,
      "t": 62366.66666666641,
      "d": 116.66666666666424,
      "v": 71
    },
    {
      "midi": 69,
      "hit": false,
      "t": 62366.66666666641,
      "d": 116.66666666666424,
      "v": 71
    },
    {
      "midi": 62,
      "hit": false,
      "t": 62366.66666666641,
      "d": 133.33333333332848,
      "v": 71
    },
    {
      "midi": 65,
      "hit": false,
      "t": 62666.6666666664,
      "d": 100,
      "v": 71
    },
    {
      "midi": 62,
      "hit": false,
      "t": 62666.6666666664,
      "d": 133.33333333333576,
      "v": 71
    },
    {
      "midi": 69,
      "hit": false,
      "t": 62666.6666666664,
      "d": 133.33333333333576,
      "v": 71
    },
    {
      "midi": 74,
      "hit": false,
      "t": 62966.6666666664,
      "d": 133.33333333333576,
      "v": 71
    },
    {
      "midi": 70,
      "hit": false,
      "t": 62966.6666666664,
      "d": 166.66666666667152,
      "v": 71
    },
    {
      "midi": 79,
      "hit": false,
      "t": 62966.6666666664,
      "d": 166.66666666667152,
      "v": 72
    },
    {
      "midi": 74,
      "hit": false,
      "t": 63266.66666666641,
      "d": 116.66666666666424,
      "v": 71
    },
    {
      "midi": 79,
      "hit": false,
      "t": 63266.66666666641,
      "d": 116.66666666666424,
      "v": 71
    },
    {
      "midi": 70,
      "hit": false,
      "t": 63266.66666666641,
      "d": 133.33333333332848,
      "v": 71
    },
    {
      "midi": 74,
      "hit": false,
      "t": 63566.6666666664,
      "d": 116.66666666666424,
      "v": 71
    },
    {
      "midi": 79,
      "hit": false,
      "t": 63566.6666666664,
      "d": 133.33333333332848,
      "v": 71
    },
    {
      "midi": 70,
      "hit": false,
      "t": 63566.6666666664,
      "d": 149.99999999999272,
      "v": 71
    },
    {
      "midi": 70,
      "hit": false,
      "t": 63866.666666666395,
      "d": 116.66666666666424,
      "v": 72
    },
    {
      "midi": 74,
      "hit": false,
      "t": 63866.666666666395,
      "d": 116.66666666666424,
      "v": 71
    },
    {
      "midi": 79,
      "hit": false,
      "t": 63866.666666666395,
      "d": 133.33333333332848,
      "v": 71
    },
    {
      "midi": 79,
      "hit": false,
      "t": 64166.66666666639,
      "d": 100,
      "v": 71
    },
    {
      "midi": 74,
      "hit": false,
      "t": 64166.66666666639,
      "d": 116.66666666666424,
      "v": 71
    },
    {
      "midi": 70,
      "hit": false,
      "t": 64166.66666666639,
      "d": 133.33333333332848,
      "v": 71
    },
    {
      "midi": 74,
      "hit": false,
      "t": 64466.66666666638,
      "d": 100,
      "v": 71
    },
    {
      "midi": 70,
      "hit": false,
      "t": 64466.66666666638,
      "d": 116.66666666666424,
      "v": 71
    },
    {
      "midi": 79,
      "hit": false,
      "t": 64466.66666666638,
      "d": 116.66666666666424,
      "v": 71
    },
    {
      "midi": 70,
      "hit": false,
      "t": 64749.99999999971,
      "d": 133.33333333333576,
      "v": 71
    },
    {
      "midi": 79,
      "hit": false,
      "t": 64749.99999999971,
      "d": 133.33333333333576,
      "v": 71
    },
    {
      "midi": 74,
      "hit": false,
      "t": 64766.66666666637,
      "d": 83.33333333333576,
      "v": 71
    },
    {
      "midi": 74,
      "hit": false,
      "t": 65049.99999999971,
      "d": 100,
      "v": 71
    },
    {
      "midi": 79,
      "hit": false,
      "t": 65049.99999999971,
      "d": 116.66666666666424,
      "v": 72
    },
    {
      "midi": 70,
      "hit": false,
      "t": 65049.99999999971,
      "d": 133.33333333332848,
      "v": 71
    },
    {
      "midi": 74,
      "hit": false,
      "t": 65349.9999999997,
      "d": 83.33333333333576,
      "v": 71
    },
    {
      "midi": 70,
      "hit": false,
      "t": 65349.9999999997,
      "d": 100,
      "v": 71
    },
    {
      "midi": 79,
      "hit": false,
      "t": 65349.9999999997,
      "d": 116.66666666666424,
      "v": 71
    },
    {
      "midi": 74,
      "hit": false,
      "t": 65649.9999999997,
      "d": 100,
      "v": 71
    },
    {
      "midi": 79,
      "hit": false,
      "t": 65649.9999999997,
      "d": 116.66666666667152,
      "v": 71
    },
    {
      "midi": 70,
      "hit": false,
      "t": 65649.9999999997,
      "d": 133.33333333334303,
      "v": 71
    },
    {
      "midi": 74,
      "hit": false,
      "t": 65949.99999999971,
      "d": 100,
      "v": 71
    },
    {
      "midi": 79,
      "hit": false,
      "t": 65949.99999999971,
      "d": 100,
      "v": 71
    },
    {
      "midi": 70,
      "hit": false,
      "t": 65949.99999999971,
      "d": 116.66666666667152,
      "v": 71
    },
    {
      "midi": 74,
      "hit": false,
      "t": 66249.99999999971,
      "d": 100,
      "v": 71
    },
    {
      "midi": 79,
      "hit": false,
      "t": 66249.99999999971,
      "d": 100,
      "v": 71
    },
    {
      "midi": 70,
      "hit": false,
      "t": 66249.99999999971,
      "d": 116.66666666667152,
      "v": 71
    },
    {
      "midi": 64,
      "hit": false,
      "t": 66549.99999999971,
      "d": 133.33333333332848,
      "v": 71
    },
    {
      "midi": 67,
      "hit": false,
      "t": 66549.99999999971,
      "d": 150,
      "v": 72
    },
    {
      "midi": 60,
      "hit": false,
      "t": 66549.99999999971,
      "d": 166.66666666667152,
      "v": 71
    },
    {
      "midi": 64,
      "hit": false,
      "t": 66849.99999999971,
      "d": 116.66666666667152,
      "v": 71
    },
    {
      "midi": 67,
      "hit": false,
      "t": 66849.99999999971,
      "d": 116.66666666667152,
      "v": 71
    },
    {
      "midi": 60,
      "hit": false,
      "t": 66849.99999999971,
      "d": 133.33333333334303,
      "v": 71
    },
    {
      "midi": 64,
      "hit": false,
      "t": 67133.33333333305,
      "d": 133.33333333332848,
      "v": 71
    },
    {
      "midi": 60,
      "hit": false,
      "t": 67133.33333333305,
      "d": 150,
      "v": 71
    },
    {
      "midi": 67,
      "hit": false,
      "t": 67133.33333333305,
      "d": 150,
      "v": 71
    },
    {
      "midi": 67,
      "hit": false,
      "t": 67433.33333333305,
      "d": 133.33333333334303,
      "v": 71
    },
    {
      "midi": 64,
      "hit": false,
      "t": 67449.99999999972,
      "d": 100,
      "v": 71
    },
    {
      "midi": 60,
      "hit": false,
      "t": 67449.99999999972,
      "d": 116.66666666667152,
      "v": 72
    },
    {
      "midi": 64,
      "hit": false,
      "t": 67733.33333333307,
      "d": 116.66666666667152,
      "v": 71
    },
    {
      "midi": 67,
      "hit": false,
      "t": 67733.33333333307,
      "d": 116.66666666667152,
      "v": 71
    },
    {
      "midi": 60,
      "hit": false,
      "t": 67733.33333333307,
      "d": 133.33333333334303,
      "v": 71
    },
    {
      "midi": 64,
      "hit": false,
      "t": 68033.33333333308,
      "d": 100,
      "v": 71
    },
    {
      "midi": 60,
      "hit": false,
      "t": 68033.33333333308,
      "d": 133.33333333332848,
      "v": 71
    },
    {
      "midi": 67,
      "hit": false,
      "t": 68033.33333333308,
      "d": 133.33333333332848,
      "v": 71
    },
    {
      "midi": 64,
      "hit": false,
      "t": 68333.33333333308,
      "d": 100,
      "v": 71
    },
    {
      "midi": 60,
      "hit": false,
      "t": 68333.33333333308,
      "d": 116.66666666667152,
      "v": 71
    },
    {
      "midi": 67,
      "hit": false,
      "t": 68333.33333333308,
      "d": 116.66666666667152,
      "v": 71
    },
    {
      "midi": 64,
      "hit": false,
      "t": 68633.33333333308,
      "d": 100,
      "v": 71
    },
    {
      "midi": 60,
      "hit": false,
      "t": 68633.33333333308,
      "d": 116.66666666667152,
      "v": 71
    },
    {
      "midi": 67,
      "hit": false,
      "t": 68633.33333333308,
      "d": 116.66666666667152,
      "v": 72
    },
    {
      "midi": 64,
      "hit": false,
      "t": 68933.33333333308,
      "d": 83.33333333332848,
      "v": 71
    },
    {
      "midi": 60,
      "hit": false,
      "t": 68933.33333333308,
      "d": 100,
      "v": 71
    },
    {
      "midi": 67,
      "hit": false,
      "t": 68933.33333333308,
      "d": 100,
      "v": 71
    },
    {
      "midi": 64,
      "hit": false,
      "t": 69233.33333333308,
      "d": 100,
      "v": 71
    },
    {
      "midi": 67,
      "hit": false,
      "t": 69233.33333333308,
      "d": 100,
      "v": 71
    },
    {
      "midi": 60,
      "hit": false,
      "t": 69233.33333333308,
      "d": 116.66666666667152,
      "v": 71
    },
    {
      "midi": 67,
      "hit": false,
      "t": 69516.66666666642,
      "d": 116.66666666667152,
      "v": 71
    },
    {
      "midi": 60,
      "hit": false,
      "t": 69516.66666666642,
      "d": 133.33333333334303,
      "v": 71
    },
    {
      "midi": 64,
      "hit": false,
      "t": 69533.3333333331,
      "d": 83.33333333332848,
      "v": 71
    },
    {
      "midi": 67,
      "hit": false,
      "t": 69816.66666666644,
      "d": 100,
      "v": 71
    },
    {
      "midi": 64,
      "hit": false,
      "t": 69833.33333333311,
      "d": 83.33333333332848,
      "v": 71
    },
    {
      "midi": 60,
      "hit": false,
      "t": 69833.33333333311,
      "d": 100,
      "v": 71
    },
    {
      "midi": 72,
      "hit": false,
      "t": 70116.66666666644,
      "d": 150,
      "v": 71
    },
    {
      "midi": 77,
      "hit": false,
      "t": 70116.66666666644,
      "d": 166.66666666667152,
      "v": 72
    },
    {
      "midi": 69,
      "hit": false,
      "t": 70133.33333333311,
      "d": 150,
      "v": 71
    },
    {
      "midi": 72,
      "hit": false,
      "t": 70416.66666666644,
      "d": 116.66666666667152,
      "v": 71
    },
    {
      "midi": 69,
      "hit": false,
      "t": 70416.66666666644,
      "d": 133.33333333334303,
      "v": 71
    },
    {
      "midi": 77,
      "hit": false,
      "t": 70416.66666666644,
      "d": 133.33333333334303,
      "v": 71
    },
    {
      "midi": 72,
      "hit": false,
      "t": 70716.66666666645,
      "d": 116.66666666667152,
      "v": 71
    },
    {
      "midi": 77,
      "hit": false,
      "t": 70716.66666666645,
      "d": 133.33333333334303,
      "v": 71
    },
    {
      "midi": 69,
      "hit": false,
      "t": 70716.66666666645,
      "d": 150.00000000001455,
      "v": 71
    },
    {
      "midi": 72,
      "hit": false,
      "t": 71016.66666666647,
      "d": 116.66666666667152,
      "v": 71
    },
    {
      "midi": 69,
      "hit": false,
      "t": 71016.66666666647,
      "d": 133.33333333334303,
      "v": 72
    },
    {
      "midi": 77,
      "hit": false,
      "t": 71016.66666666647,
      "d": 133.33333333334303,
      "v": 71
    },
    {
      "midi": 72,
      "hit": false,
      "t": 71316.66666666648,
      "d": 116.66666666667152,
      "v": 71
    },
    {
      "midi": 77,
      "hit": false,
      "t": 71316.66666666648,
      "d": 116.66666666667152,
      "v": 71
    },
    {
      "midi": 69,
      "hit": false,
      "t": 71316.66666666648,
      "d": 133.33333333334303,
      "v": 71
    },
    {
      "midi": 72,
      "hit": false,
      "t": 71616.6666666665,
      "d": 100,
      "v": 71
    },
    {
      "midi": 69,
      "hit": false,
      "t": 71616.6666666665,
      "d": 116.66666666667152,
      "v": 71
    },
    {
      "midi": 77,
      "hit": false,
      "t": 71616.6666666665,
      "d": 116.66666666667152,
      "v": 71
    },
    {
      "midi": 72,
      "hit": false,
      "t": 71916.6666666665,
      "d": 83.33333333332848,
      "v": 71
    },
    {
      "midi": 69,
      "hit": false,
      "t": 71916.6666666665,
      "d": 116.66666666665697,
      "v": 71
    },
    {
      "midi": 77,
      "hit": false,
      "t": 71916.6666666665,
      "d": 116.66666666665697,
      "v": 71
    },
    {
      "midi": 53,
      "hit": false,
      "t": 73733.33333333315,
      "d": 1566.6666666666424,
      "v": 78
    },
    {
      "midi": 57,
      "hit": false,
      "t": 74066.66666666648,
      "d": 633.3333333333285,
      "v": 74
    },
    {
      "midi": 60,
      "hit": false,
      "t": 74349.99999999981,
      "d": 333.3333333333285,
      "v": 74
    },
    {
      "midi": 65,
      "hit": false,
      "t": 74649.99999999981,
      "d": 316.66666666665697,
      "v": 78
    },
    {
      "midi": 60,
      "hit": false,
      "t": 74933.33333333314,
      "d": 600,
      "v": 74
    },
    {
      "midi": 57,
      "hit": false,
      "t": 75199.9999999998,
      "d": 366.6666666666715,
      "v": 74
    },
    {
      "midi": 53,
      "hit": false,
      "t": 75516.66666666647,
      "d": 1300,
      "v": 80
    },
    {
      "midi": 57,
      "hit": false,
      "t": 75833.33333333314,
      "d": 666.666666666657,
      "v": 75
    },
    {
      "midi": 60,
      "hit": false,
      "t": 76116.66666666647,
      "d": 383.3333333333285,
      "v": 76
    },
    {
      "midi": 65,
      "hit": false,
      "t": 76416.66666666647,
      "d": 383.3333333333285,
      "v": 75
    },
    {
      "midi": 60,
      "hit": false,
      "t": 76716.66666666647,
      "d": 600,
      "v": 75
    },
    {
      "midi": 57,
      "hit": false,
      "t": 76983.33333333314,
      "d": 333.3333333333285,
      "v": 76
    },
    {
      "midi": 53,
      "hit": false,
      "t": 77283.33333333314,
      "d": 1399.9999999999854,
      "v": 72
    },
    {
      "midi": 57,
      "hit": false,
      "t": 77599.9999999998,
      "d": 716.666666666657,
      "v": 73
    },
    {
      "midi": 60,
      "hit": false,
      "t": 77899.9999999998,
      "d": 366.66666666665697,
      "v": 68
    },
    {
      "midi": 65,
      "hit": false,
      "t": 78183.33333333312,
      "d": 416.6666666666715,
      "v": 77
    },
    {
      "midi": 60,
      "hit": false,
      "t": 78483.33333333312,
      "d": 566.6666666666715,
      "v": 76
    },
    {
      "midi": 57,
      "hit": false,
      "t": 78749.9999999998,
      "d": 333.3333333333285,
      "v": 76
    },
    {
      "midi": 53,
      "hit": false,
      "t": 79049.9999999998,
      "d": 1250,
      "v": 73
    },
    {
      "midi": 57,
      "hit": false,
      "t": 79366.66666666645,
      "d": 683.333333333343,
      "v": 73
    },
    {
      "midi": 60,
      "hit": false,
      "t": 79666.66666666645,
      "d": 366.6666666666715,
      "v": 73
    },
    {
      "midi": 65,
      "hit": false,
      "t": 79966.66666666645,
      "d": 350.00000000001455,
      "v": 80
    },
    {
      "midi": 60,
      "hit": false,
      "t": 80266.66666666647,
      "d": 283.3333333333285,
      "v": 74
    },
    {
      "midi": 57,
      "hit": false,
      "t": 80516.66666666647,
      "d": 200,
      "v": 76
    },
    {
      "midi": 55,
      "hit": false,
      "t": 80883.33333333314,
      "d": 1350,
      "v": 74
    },
    {
      "midi": 43,
      "hit": false,
      "t": 80883.33333333314,
      "d": 1433.3333333333285,
      "v": 72
    },
    {
      "midi": 58,
      "hit": false,
      "t": 81183.33333333314,
      "d": 683.3333333333285,
      "v": 71
    },
    {
      "midi": 62,
      "hit": false,
      "t": 81466.66666666647,
      "d": 366.6666666666715,
      "v": 72
    },
    {
      "midi": 67,
      "hit": false,
      "t": 81766.66666666647,
      "d": 300,
      "v": 78
    },
    {
      "midi": 62,
      "hit": false,
      "t": 82066.66666666647,
      "d": 850.0000000000146,
      "v": 73
    },
    {
      "midi": 58,
      "hit": false,
      "t": 82366.66666666647,
      "d": 450.00000000001455,
      "v": 77
    },
    {
      "midi": 43,
      "hit": false,
      "t": 82533.33333333314,
      "d": 1800.0000000000146,
      "v": 73
    },
    {
      "midi": 55,
      "hit": false,
      "t": 82683.33333333314,
      "d": 1266.6666666666715,
      "v": 76
    },
    {
      "midi": 58,
      "hit": false,
      "t": 82983.33333333315,
      "d": 633.3333333333285,
      "v": 76
    },
    {
      "midi": 62,
      "hit": false,
      "t": 83249.99999999983,
      "d": 366.66666666665697,
      "v": 73
    },
    {
      "midi": 67,
      "hit": false,
      "t": 83533.33333333315,
      "d": 283.3333333333285,
      "v": 79
    },
    {
      "midi": 62,
      "hit": false,
      "t": 83866.66666666648,
      "d": 300,
      "v": 74
    },
    {
      "midi": 58,
      "hit": false,
      "t": 84149.99999999981,
      "d": 133.33333333334303,
      "v": 78
    },
    {
      "midi": 53,
      "hit": false,
      "t": 84449.99999999983,
      "d": 1350,
      "v": 74
    },
    {
      "midi": 41,
      "hit": false,
      "t": 84449.99999999983,
      "d": 1450,
      "v": 72
    },
    {
      "midi": 57,
      "hit": false,
      "t": 84766.6666666665,
      "d": 666.666666666657,
      "v": 71
    },
    {
      "midi": 60,
      "hit": false,
      "t": 85049.99999999983,
      "d": 350,
      "v": 72
    },
    {
      "midi": 65,
      "hit": false,
      "t": 85349.99999999983,
      "d": 300,
      "v": 78
    },
    {
      "midi": 60,
      "hit": false,
      "t": 85633.33333333315,
      "d": 849.9999999999854,
      "v": 73
    },
    {
      "midi": 57,
      "hit": false,
      "t": 85933.33333333315,
      "d": 466.66666666665697,
      "v": 77
    },
    {
      "midi": 41,
      "hit": false,
      "t": 86116.66666666648,
      "d": 1800,
      "v": 73
    },
    {
      "midi": 53,
      "hit": false,
      "t": 86266.66666666648,
      "d": 1266.666666666657,
      "v": 76
    },
    {
      "midi": 57,
      "hit": false,
      "t": 86566.66666666647,
      "d": 633.333333333343,
      "v": 76
    },
    {
      "midi": 60,
      "hit": false,
      "t": 86816.66666666647,
      "d": 366.6666666666715,
      "v": 73
    },
    {
      "midi": 65,
      "hit": false,
      "t": 87116.66666666647,
      "d": 283.33333333334303,
      "v": 79
    },
    {
      "midi": 60,
      "hit": false,
      "t": 87433.33333333314,
      "d": 300,
      "v": 74
    },
    {
      "midi": 57,
      "hit": false,
      "t": 87716.66666666647,
      "d": 133.33333333334303,
      "v": 78
    },
    {
      "midi": 41,
      "hit": false,
      "t": 88016.66666666648,
      "d": 883.333333333343,
      "v": 73
    },
    {
      "midi": 53,
      "hit": false,
      "t": 88016.66666666648,
      "d": 1300.0000000000146,
      "v": 75
    },
    {
      "midi": 57,
      "hit": false,
      "t": 88316.66666666648,
      "d": 683.333333333343,
      "v": 74
    },
    {
      "midi": 60,
      "hit": false,
      "t": 88633.33333333315,
      "d": 283.33333333334303,
      "v": 73
    },
    {
      "midi": 65,
      "hit": false,
      "t": 88916.6666666665,
      "d": 383.3333333333285,
      "v": 79
    },
    {
      "midi": 60,
      "hit": false,
      "t": 89216.6666666665,
      "d": 483.3333333333285,
      "v": 73
    },
    {
      "midi": 41,
      "hit": false,
      "t": 89366.6666666665,
      "d": 283.3333333333285,
      "v": 76
    },
    {
      "midi": 53,
      "hit": false,
      "t": 89499.99999999983,
      "d": 183.33333333332848,
      "v": 79
    },
    {
      "midi": 38,
      "hit": false,
      "t": 89799.99999999983,
      "d": 883.333333333343,
      "v": 73
    },
    {
      "midi": 57,
      "hit": false,
      "t": 89799.99999999983,
      "d": 1300.0000000000146,
      "v": 75
    },
    {
      "midi": 62,
      "hit": false,
      "t": 90116.6666666665,
      "d": 683.333333333343,
      "v": 74
    },
    {
      "midi": 65,
      "hit": false,
      "t": 90416.6666666665,
      "d": 283.33333333334303,
      "v": 73
    },
    {
      "midi": 69,
      "hit": false,
      "t": 90716.66666666651,
      "d": 366.66666666665697,
      "v": 79
    },
    {
      "midi": 65,
      "hit": false,
      "t": 90999.99999999984,
      "d": 500,
      "v": 73
    },
    {
      "midi": 38,
      "hit": false,
      "t": 91149.99999999984,
      "d": 283.3333333333285,
      "v": 76
    },
    {
      "midi": 57,
      "hit": false,
      "t": 91299.99999999984,
      "d": 183.33333333332848,
      "v": 79
    },
    {
      "midi": 51,
      "hit": false,
      "t": 91599.99999999984,
      "d": 1283.3333333333285,
      "v": 72
    },
    {
      "midi": 39,
      "hit": false,
      "t": 91599.99999999984,
      "d": 1716.666666666657,
      "v": 72
    },
    {
      "midi": 55,
      "hit": false,
      "t": 91899.99999999984,
      "d": 683.3333333333285,
      "v": 76
    },
    {
      "midi": 58,
      "hit": false,
      "t": 92199.99999999984,
      "d": 400,
      "v": 73
    },
    {
      "midi": 63,
      "hit": false,
      "t": 92499.99999999984,
      "d": 266.6666666666715,
      "v": 78
    },
    {
      "midi": 58,
      "hit": false,
      "t": 92799.99999999984,
      "d": 416.66666666665697,
      "v": 74
    },
    {
      "midi": 55,
      "hit": false,
      "t": 93083.33333333317,
      "d": 200,
      "v": 77
    },
    {
      "midi": 43,
      "hit": false,
      "t": 93383.33333333317,
      "d": 883.3333333333285,
      "v": 73
    },
    {
      "midi": 55,
      "hit": false,
      "t": 93383.33333333317,
      "d": 1300,
      "v": 75
    },
    {
      "midi": 58,
      "hit": false,
      "t": 93683.33333333317,
      "d": 683.3333333333285,
      "v": 74
    },
    {
      "midi": 62,
      "hit": false,
      "t": 93983.33333333317,
      "d": 300,
      "v": 73
    },
    {
      "midi": 67,
      "hit": false,
      "t": 94283.33333333317,
      "d": 383.3333333333285,
      "v": 79
    },
    {
      "midi": 62,
      "hit": false,
      "t": 94583.33333333317,
      "d": 483.3333333333285,
      "v": 73
    },
    {
      "midi": 43,
      "hit": false,
      "t": 94733.33333333317,
      "d": 283.3333333333285,
      "v": 76
    },
    {
      "midi": 55,
      "hit": false,
      "t": 94883.33333333317,
      "d": 166.66666666665697,
      "v": 79
    },
    {
      "midi": 55,
      "hit": false,
      "t": 95183.33333333317,
      "d": 1350,
      "v": 74
    },
    {
      "midi": 36,
      "hit": false,
      "t": 95183.33333333317,
      "d": 1450,
      "v": 72
    },
    {
      "midi": 60,
      "hit": false,
      "t": 95499.99999999984,
      "d": 666.666666666657,
      "v": 71
    },
    {
      "midi": 64,
      "hit": false,
      "t": 95783.33333333317,
      "d": 350,
      "v": 72
    },
    {
      "midi": 67,
      "hit": false,
      "t": 96083.33333333317,
      "d": 300,
      "v": 78
    },
    {
      "midi": 64,
      "hit": false,
      "t": 96366.6666666665,
      "d": 849.9999999999854,
      "v": 73
    },
    {
      "midi": 60,
      "hit": false,
      "t": 96666.6666666665,
      "d": 466.66666666665697,
      "v": 77
    },
    {
      "midi": 36,
      "hit": false,
      "t": 96849.99999999983,
      "d": 1800,
      "v": 73
    },
    {
      "midi": 55,
      "hit": false,
      "t": 96999.99999999983,
      "d": 1266.666666666657,
      "v": 76
    },
    {
      "midi": 60,
      "hit": false,
      "t": 97299.99999999981,
      "d": 633.333333333343,
      "v": 76
    },
    {
      "midi": 64,
      "hit": false,
      "t": 97549.99999999981,
      "d": 366.6666666666715,
      "v": 73
    },
    {
      "midi": 67,
      "hit": false,
      "t": 97849.99999999981,
      "d": 266.6666666666715,
      "v": 79
    },
    {
      "midi": 64,
      "hit": false,
      "t": 98166.66666666648,
      "d": 300,
      "v": 74
    },
    {
      "midi": 60,
      "hit": false,
      "t": 98449.99999999981,
      "d": 133.33333333334303,
      "v": 78
    },
    {
      "midi": 53,
      "hit": false,
      "t": 98749.99999999983,
      "d": 1366.6666666666715,
      "v": 76
    },
    {
      "midi": 57,
      "hit": false,
      "t": 99066.6666666665,
      "d": 683.3333333333285,
      "v": 72
    },
    {
      "midi": 60,
      "hit": false,
      "t": 99366.6666666665,
      "d": 366.66666666665697,
      "v": 66
    },
    {
      "midi": 65,
      "hit": false,
      "t": 99649.99999999983,
      "d": 416.6666666666715,
      "v": 75
    },
    {
      "midi": 60,
      "hit": false,
      "t": 99949.99999999983,
      "d": 633.333333333343,
      "v": 72
    },
    {
      "midi": 57,
      "hit": false,
      "t": 100233.33333333317,
      "d": 316.6666666666715,
      "v": 75
    },
    {
      "midi": 41,
      "hit": false,
      "t": 100533.33333333317,
      "d": 1516.666666666686,
      "v": 71
    },
    {
      "midi": 53,
      "hit": false,
      "t": 100549.99999999984,
      "d": 1066.6666666666715,
      "v": 73
    },
    {
      "midi": 57,
      "hit": false,
      "t": 100883.33333333317,
      "d": 633.333333333343,
      "v": 72
    },
    {
      "midi": 60,
      "hit": false,
      "t": 101149.99999999984,
      "d": 366.6666666666715,
      "v": 72
    },
    {
      "midi": 65,
      "hit": false,
      "t": 101449.99999999984,
      "d": 366.6666666666715,
      "v": 77
    },
    {
      "midi": 60,
      "hit": false,
      "t": 101733.33333333318,
      "d": 300,
      "v": 76
    },
    {
      "midi": 57,
      "hit": false,
      "t": 102066.66666666653,
      "d": 150,
      "v": 77
    },
    {
      "midi": 72,
      "hit": false,
      "t": 102333.3333333332,
      "d": 116.66666666667152,
      "v": 71
    },
    {
      "midi": 69,
      "hit": false,
      "t": 102333.3333333332,
      "d": 150,
      "v": 71
    },
    {
      "midi": 77,
      "hit": false,
      "t": 102333.3333333332,
      "d": 150,
      "v": 72
    },
    {
      "midi": 72,
      "hit": false,
      "t": 102616.66666666653,
      "d": 116.66666666667152,
      "v": 71
    },
    {
      "midi": 77,
      "hit": false,
      "t": 102616.66666666653,
      "d": 116.66666666667152,
      "v": 71
    },
    {
      "midi": 69,
      "hit": false,
      "t": 102616.66666666653,
      "d": 133.33333333334303,
      "v": 71
    },
    {
      "midi": 72,
      "hit": false,
      "t": 102916.66666666654,
      "d": 116.66666666667152,
      "v": 71
    },
    {
      "midi": 77,
      "hit": false,
      "t": 102916.66666666654,
      "d": 133.33333333334303,
      "v": 71
    },
    {
      "midi": 69,
      "hit": false,
      "t": 102916.66666666654,
      "d": 150.00000000001455,
      "v": 71
    },
    {
      "midi": 72,
      "hit": false,
      "t": 103216.66666666656,
      "d": 116.66666666667152,
      "v": 71
    },
    {
      "midi": 69,
      "hit": false,
      "t": 103216.66666666656,
      "d": 133.33333333334303,
      "v": 72
    },
    {
      "midi": 77,
      "hit": false,
      "t": 103216.66666666656,
      "d": 133.33333333334303,
      "v": 71
    },
    {
      "midi": 77,
      "hit": false,
      "t": 103516.66666666657,
      "d": 100,
      "v": 71
    },
    {
      "midi": 72,
      "hit": false,
      "t": 103516.66666666657,
      "d": 116.66666666667152,
      "v": 71
    },
    {
      "midi": 69,
      "hit": false,
      "t": 103516.66666666657,
      "d": 133.33333333334303,
      "v": 71
    },
    {
      "midi": 72,
      "hit": false,
      "t": 103816.66666666658,
      "d": 100,
      "v": 71
    },
    {
      "midi": 69,
      "hit": false,
      "t": 103816.66666666658,
      "d": 116.66666666667152,
      "v": 71
    },
    {
      "midi": 77,
      "hit": false,
      "t": 103816.66666666658,
      "d": 116.66666666667152,
      "v": 71
    },
    {
      "midi": 69,
      "hit": false,
      "t": 104099.99999999993,
      "d": 166.66666666667152,
      "v": 72
    },
    {
      "midi": 65,
      "hit": false,
      "t": 104116.6666666666,
      "d": 133.33333333332848,
      "v": 71
    },
    {
      "midi": 62,
      "hit": false,
      "t": 104116.6666666666,
      "d": 166.66666666667152,
      "v": 71
    },
    {
      "midi": 65,
      "hit": false,
      "t": 104399.99999999994,
      "d": 116.66666666667152,
      "v": 71
    },
    {
      "midi": 69,
      "hit": false,
      "t": 104399.99999999994,
      "d": 133.33333333334303,
      "v": 71
    },
    {
      "midi": 62,
      "hit": false,
      "t": 104399.99999999994,
      "d": 150.00000000001455,
      "v": 71
    },
    {
      "midi": 65,
      "hit": false,
      "t": 104699.99999999996,
      "d": 116.66666666667152,
      "v": 71
    },
    {
      "midi": 69,
      "hit": false,
      "t": 104699.99999999996,
      "d": 133.33333333334303,
      "v": 71
    },
    {
      "midi": 62,
      "hit": false,
      "t": 104699.99999999996,
      "d": 150.00000000001455,
      "v": 71
    },
    {
      "midi": 65,
      "hit": false,
      "t": 104999.99999999997,
      "d": 116.66666666667152,
      "v": 71
    },
    {
      "midi": 62,
      "hit": false,
      "t": 104999.99999999997,
      "d": 133.33333333334303,
      "v": 72
    },
    {
      "midi": 69,
      "hit": false,
      "t": 104999.99999999997,
      "d": 133.33333333334303,
      "v": 71
    },
    {
      "midi": 65,
      "hit": false,
      "t": 105299.99999999999,
      "d": 116.66666666667152,
      "v": 71
    },
    {
      "midi": 69,
      "hit": false,
      "t": 105299.99999999999,
      "d": 116.66666666667152,
      "v": 71
    },
    {
      "midi": 62,
      "hit": false,
      "t": 105299.99999999999,
      "d": 133.33333333334303,
      "v": 71
    },
    {
      "midi": 65,
      "hit": false,
      "t": 105600,
      "d": 100,
      "v": 71
    },
    {
      "midi": 62,
      "hit": false,
      "t": 105600,
      "d": 133.33333333332848,
      "v": 71
    },
    {
      "midi": 69,
      "hit": false,
      "t": 105600,
      "d": 133.33333333332848,
      "v": 71
    },
    {
      "midi": 74,
      "hit": false,
      "t": 105900,
      "d": 133.33333333332848,
      "v": 71
    },
    {
      "midi": 79,
      "hit": false,
      "t": 105900,
      "d": 150,
      "v": 72
    },
    {
      "midi": 70,
      "hit": false,
      "t": 105900,
      "d": 166.66666666667152,
      "v": 71
    },
    {
      "midi": 74,
      "hit": false,
      "t": 106200,
      "d": 116.66666666667152,
      "v": 71
    },
    {
      "midi": 79,
      "hit": false,
      "t": 106200,
      "d": 116.66666666667152,
      "v": 71
    },
    {
      "midi": 70,
      "hit": false,
      "t": 106200,
      "d": 133.33333333334303,
      "v": 71
    },
    {
      "midi": 74,
      "hit": false,
      "t": 106500.00000000001,
      "d": 100,
      "v": 71
    },
    {
      "midi": 70,
      "hit": false,
      "t": 106500.00000000001,
      "d": 133.33333333332848,
      "v": 71
    },
    {
      "midi": 79,
      "hit": false,
      "t": 106500.00000000001,
      "d": 133.33333333332848,
      "v": 71
    },
    {
      "midi": 70,
      "hit": false,
      "t": 106800.00000000001,
      "d": 116.66666666667152,
      "v": 72
    },
    {
      "midi": 74,
      "hit": false,
      "t": 106800.00000000001,
      "d": 116.66666666667152,
      "v": 71
    },
    {
      "midi": 79,
      "hit": false,
      "t": 106800.00000000001,
      "d": 116.66666666667152,
      "v": 71
    },
    {
      "midi": 74,
      "hit": false,
      "t": 107083.33333333336,
      "d": 116.66666666667152,
      "v": 71
    },
    {
      "midi": 79,
      "hit": false,
      "t": 107083.33333333336,
      "d": 116.66666666667152,
      "v": 71
    },
    {
      "midi": 70,
      "hit": false,
      "t": 107083.33333333336,
      "d": 133.33333333334303,
      "v": 71
    },
    {
      "midi": 74,
      "hit": false,
      "t": 107383.33333333337,
      "d": 100,
      "v": 71
    },
    {
      "midi": 70,
      "hit": false,
      "t": 107383.33333333337,
      "d": 133.33333333332848,
      "v": 71
    },
    {
      "midi": 79,
      "hit": false,
      "t": 107383.33333333337,
      "d": 133.33333333332848,
      "v": 71
    },
    {
      "midi": 74,
      "hit": false,
      "t": 107683.33333333337,
      "d": 100,
      "v": 71
    },
    {
      "midi": 70,
      "hit": false,
      "t": 107683.33333333337,
      "d": 133.33333333332848,
      "v": 71
    },
    {
      "midi": 79,
      "hit": false,
      "t": 107683.33333333337,
      "d": 133.33333333332848,
      "v": 71
    },
    {
      "midi": 74,
      "hit": false,
      "t": 107983.33333333337,
      "d": 100,
      "v": 71
    },
    {
      "midi": 79,
      "hit": false,
      "t": 107983.33333333337,
      "d": 100,
      "v": 72
    },
    {
      "midi": 70,
      "hit": false,
      "t": 107983.33333333337,
      "d": 116.66666666667152,
      "v": 71
    },
    {
      "midi": 74,
      "hit": false,
      "t": 108283.33333333337,
      "d": 83.33333333332848,
      "v": 71
    },
    {
      "midi": 70,
      "hit": false,
      "t": 108283.33333333337,
      "d": 100,
      "v": 71
    },
    {
      "midi": 79,
      "hit": false,
      "t": 108283.33333333337,
      "d": 116.66666666667152,
      "v": 71
    },
    {
      "midi": 74,
      "hit": false,
      "t": 108583.33333333337,
      "d": 100,
      "v": 71
    },
    {
      "midi": 79,
      "hit": false,
      "t": 108583.33333333337,
      "d": 100,
      "v": 71
    },
    {
      "midi": 70,
      "hit": false,
      "t": 108583.33333333337,
      "d": 116.66666666667152,
      "v": 71
    },
    {
      "midi": 74,
      "hit": false,
      "t": 108883.33333333337,
      "d": 100,
      "v": 71
    },
    {
      "midi": 79,
      "hit": false,
      "t": 108883.33333333337,
      "d": 100,
      "v": 71
    },
    {
      "midi": 70,
      "hit": false,
      "t": 108883.33333333337,
      "d": 116.66666666667152,
      "v": 71
    },
    {
      "midi": 79,
      "hit": false,
      "t": 109166.66666666672,
      "d": 100,
      "v": 71
    },
    {
      "midi": 74,
      "hit": false,
      "t": 109183.33333333339,
      "d": 83.33333333332848,
      "v": 71
    },
    {
      "midi": 70,
      "hit": false,
      "t": 109183.33333333339,
      "d": 116.66666666665697,
      "v": 71
    },
    {
      "midi": 64,
      "hit": false,
      "t": 109483.33333333337,
      "d": 133.33333333332848,
      "v": 71
    },
    {
      "midi": 67,
      "hit": false,
      "t": 109483.33333333337,
      "d": 150,
      "v": 72
    },
    {
      "midi": 60,
      "hit": false,
      "t": 109483.33333333337,
      "d": 166.66666666667152,
      "v": 71
    },
    {
      "midi": 64,
      "hit": false,
      "t": 109766.66666666672,
      "d": 116.66666666667152,
      "v": 71
    },
    {
      "midi": 67,
      "hit": false,
      "t": 109766.66666666672,
      "d": 133.33333333334303,
      "v": 71
    },
    {
      "midi": 60,
      "hit": false,
      "t": 109766.66666666672,
      "d": 150.00000000001455,
      "v": 71
    },
    {
      "midi": 64,
      "hit": false,
      "t": 110066.66666666673,
      "d": 116.66666666667152,
      "v": 71
    },
    {
      "midi": 60,
      "hit": false,
      "t": 110066.66666666673,
      "d": 150,
      "v": 71
    },
    {
      "midi": 67,
      "hit": false,
      "t": 110066.66666666673,
      "d": 150,
      "v": 71
    },
    {
      "midi": 64,
      "hit": false,
      "t": 110366.66666666673,
      "d": 116.66666666667152,
      "v": 71
    },
    {
      "midi": 67,
      "hit": false,
      "t": 110366.66666666673,
      "d": 133.33333333334303,
      "v": 71
    },
    {
      "midi": 60,
      "hit": false,
      "t": 110383.3333333334,
      "d": 116.66666666667152,
      "v": 72
    },
    {
      "midi": 64,
      "hit": false,
      "t": 110666.66666666674,
      "d": 116.66666666667152,
      "v": 71
    },
    {
      "midi": 67,
      "hit": false,
      "t": 110666.66666666674,
      "d": 116.66666666667152,
      "v": 71
    },
    {
      "midi": 60,
      "hit": false,
      "t": 110666.66666666674,
      "d": 133.33333333334303,
      "v": 71
    },
    {
      "midi": 64,
      "hit": false,
      "t": 110966.66666666676,
      "d": 100,
      "v": 71
    },
    {
      "midi": 60,
      "hit": false,
      "t": 110966.66666666676,
      "d": 116.66666666667152,
      "v": 71
    },
    {
      "midi": 67,
      "hit": false,
      "t": 110966.66666666676,
      "d": 116.66666666667152,
      "v": 71
    },
    {
      "midi": 64,
      "hit": false,
      "t": 111266.66666666676,
      "d": 83.33333333332848,
      "v": 71
    },
    {
      "midi": 60,
      "hit": false,
      "t": 111266.66666666676,
      "d": 116.66666666665697,
      "v": 71
    },
    {
      "midi": 67,
      "hit": false,
      "t": 111266.66666666676,
      "d": 116.66666666665697,
      "v": 71
    },
    {
      "midi": 64,
      "hit": false,
      "t": 111550.00000000009,
      "d": 116.66666666667152,
      "v": 71
    },
    {
      "midi": 67,
      "hit": false,
      "t": 111550.00000000009,
      "d": 116.66666666667152,
      "v": 72
    },
    {
      "midi": 60,
      "hit": false,
      "t": 111550.00000000009,
      "d": 133.33333333334303,
      "v": 71
    },
    {
      "midi": 60,
      "hit": false,
      "t": 111850.0000000001,
      "d": 116.66666666667152,
      "v": 71
    },
    {
      "midi": 67,
      "hit": false,
      "t": 111850.0000000001,
      "d": 116.66666666667152,
      "v": 71
    },
    {
      "midi": 64,
      "hit": false,
      "t": 111866.66666666677,
      "d": 83.33333333332848,
      "v": 71
    },
    {
      "midi": 60,
      "hit": false,
      "t": 112150.0000000001,
      "d": 133.33333333334303,
      "v": 71
    },
    {
      "midi": 64,
      "hit": false,
      "t": 112166.66666666677,
      "d": 83.33333333332848,
      "v": 71
    },
    {
      "midi": 67,
      "hit": false,
      "t": 112166.66666666677,
      "d": 100,
      "v": 71
    },
    {
      "midi": 64,
      "hit": false,
      "t": 112450.00000000012,
      "d": 100,
      "v": 71
    },
    {
      "midi": 67,
      "hit": false,
      "t": 112450.00000000012,
      "d": 116.66666666667152,
      "v": 71
    },
    {
      "midi": 60,
      "hit": false,
      "t": 112450.00000000012,
      "d": 133.33333333334303,
      "v": 71
    },
    {
      "midi": 64,
      "hit": false,
      "t": 112750.00000000013,
      "d": 100,
      "v": 71
    },
    {
      "midi": 67,
      "hit": false,
      "t": 112750.00000000013,
      "d": 100,
      "v": 71
    },
    {
      "midi": 60,
      "hit": false,
      "t": 112750.00000000013,
      "d": 116.66666666667152,
      "v": 71
    },
    {
      "midi": 72,
      "hit": false,
      "t": 113050.00000000013,
      "d": 133.33333333332848,
      "v": 71
    },
    {
      "midi": 69,
      "hit": false,
      "t": 113050.00000000013,
      "d": 166.66666666665697,
      "v": 71
    },
    {
      "midi": 77,
      "hit": false,
      "t": 113050.00000000013,
      "d": 166.66666666665697,
      "v": 72
    },
    {
      "midi": 72,
      "hit": false,
      "t": 113350.00000000012,
      "d": 116.66666666667152,
      "v": 71
    },
    {
      "midi": 77,
      "hit": false,
      "t": 113350.00000000012,
      "d": 116.66666666667152,
      "v": 71
    },
    {
      "midi": 69,
      "hit": false,
      "t": 113350.00000000012,
      "d": 133.33333333334303,
      "v": 71
    },
    {
      "midi": 72,
      "hit": false,
      "t": 113650.00000000013,
      "d": 116.66666666667152,
      "v": 71
    },
    {
      "midi": 77,
      "hit": false,
      "t": 113650.00000000013,
      "d": 133.33333333334303,
      "v": 71
    },
    {
      "midi": 69,
      "hit": false,
      "t": 113650.00000000013,
      "d": 150.00000000001455,
      "v": 71
    },
    {
      "midi": 72,
      "hit": false,
      "t": 113950.00000000015,
      "d": 116.66666666667152,
      "v": 71
    },
    {
      "midi": 69,
      "hit": false,
      "t": 113950.00000000015,
      "d": 133.33333333334303,
      "v": 72
    },
    {
      "midi": 77,
      "hit": false,
      "t": 113950.00000000015,
      "d": 133.33333333334303,
      "v": 71
    },
    {
      "midi": 77,
      "hit": false,
      "t": 114250.00000000016,
      "d": 100,
      "v": 71
    },
    {
      "midi": 69,
      "hit": false,
      "t": 114250.00000000016,
      "d": 116.66666666667152,
      "v": 71
    },
    {
      "midi": 72,
      "hit": false,
      "t": 114250.00000000016,
      "d": 116.66666666667152,
      "v": 71
    },
    {
      "midi": 72,
      "hit": false,
      "t": 114533.3333333335,
      "d": 116.66666666667152,
      "v": 71
    },
    {
      "midi": 69,
      "hit": false,
      "t": 114533.3333333335,
      "d": 133.33333333334303,
      "v": 71
    },
    {
      "midi": 77,
      "hit": false,
      "t": 114533.3333333335,
      "d": 133.33333333334303,
      "v": 71
    },
    {
      "midi": 64,
      "hit": false,
      "t": 114850.00000000017,
      "d": 133.33333333332848,
      "v": 71
    },
    {
      "midi": 67,
      "hit": false,
      "t": 114850.00000000017,
      "d": 150,
      "v": 72
    },
    {
      "midi": 60,
      "hit": false,
      "t": 114850.00000000017,
      "d": 166.66666666667152,
      "v": 71
    },
    {
      "midi": 64,
      "hit": false,
      "t": 115133.33333333352,
      "d": 116.66666666667152,
      "v": 71
    },
    {
      "midi": 67,
      "hit": false,
      "t": 115133.33333333352,
      "d": 133.33333333334303,
      "v": 71
    },
    {
      "midi": 60,
      "hit": false,
      "t": 115133.33333333352,
      "d": 150.00000000001455,
      "v": 71
    },
    {
      "midi": 64,
      "hit": false,
      "t": 115433.33333333353,
      "d": 116.66666666667152,
      "v": 71
    },
    {
      "midi": 60,
      "hit": false,
      "t": 115433.33333333353,
      "d": 150,
      "v": 71
    },
    {
      "midi": 67,
      "hit": false,
      "t": 115433.33333333353,
      "d": 150,
      "v": 71
    },
    {
      "midi": 64,
      "hit": false,
      "t": 115733.33333333353,
      "d": 116.66666666667152,
      "v": 71
    },
    {
      "midi": 60,
      "hit": false,
      "t": 115733.33333333353,
      "d": 133.33333333334303,
      "v": 72
    },
    {
      "midi": 67,
      "hit": false,
      "t": 115733.33333333353,
      "d": 133.33333333334303,
      "v": 71
    },
    {
      "midi": 67,
      "hit": false,
      "t": 116033.33333333355,
      "d": 100,
      "v": 71
    },
    {
      "midi": 64,
      "hit": false,
      "t": 116033.33333333355,
      "d": 116.66666666667152,
      "v": 71
    },
    {
      "midi": 60,
      "hit": false,
      "t": 116033.33333333355,
      "d": 133.33333333334303,
      "v": 71
    },
    {
      "midi": 64,
      "hit": false,
      "t": 116333.33333333356,
      "d": 100,
      "v": 71
    },
    {
      "midi": 60,
      "hit": false,
      "t": 116333.33333333356,
      "d": 116.66666666667152,
      "v": 71
    },
    {
      "midi": 67,
      "hit": false,
      "t": 116333.33333333356,
      "d": 116.66666666667152,
      "v": 71
    },
    {
      "midi": 72,
      "hit": false,
      "t": 116633.33333333356,
      "d": 133.33333333332848,
      "v": 71
    },
    {
      "midi": 77,
      "hit": false,
      "t": 116633.33333333356,
      "d": 150,
      "v": 72
    },
    {
      "midi": 69,
      "hit": false,
      "t": 116633.33333333356,
      "d": 166.66666666667152,
      "v": 71
    },
    {
      "midi": 72,
      "hit": false,
      "t": 116933.33333333356,
      "d": 116.66666666667152,
      "v": 71
    },
    {
      "midi": 77,
      "hit": false,
      "t": 116933.33333333356,
      "d": 116.66666666667152,
      "v": 71
    },
    {
      "midi": 69,
      "hit": false,
      "t": 116933.33333333356,
      "d": 133.33333333334303,
      "v": 71
    },
    {
      "midi": 69,
      "hit": false,
      "t": 117216.6666666669,
      "d": 150.00000000001455,
      "v": 71
    },
    {
      "midi": 77,
      "hit": false,
      "t": 117216.6666666669,
      "d": 150.00000000001455,
      "v": 71
    },
    {
      "midi": 72,
      "hit": false,
      "t": 117233.33333333358,
      "d": 116.66666666667152,
      "v": 71
    },
    {
      "midi": 72,
      "hit": false,
      "t": 117516.66666666692,
      "d": 116.66666666667152,
      "v": 71
    },
    {
      "midi": 69,
      "hit": false,
      "t": 117516.66666666692,
      "d": 133.33333333334303,
      "v": 72
    },
    {
      "midi": 77,
      "hit": false,
      "t": 117516.66666666692,
      "d": 133.33333333334303,
      "v": 71
    },
    {
      "midi": 72,
      "hit": false,
      "t": 117816.66666666693,
      "d": 116.66666666667152,
      "v": 71
    },
    {
      "midi": 77,
      "hit": false,
      "t": 117816.66666666693,
      "d": 116.66666666667152,
      "v": 71
    },
    {
      "midi": 69,
      "hit": false,
      "t": 117816.66666666693,
      "d": 133.33333333334303,
      "v": 71
    },
    {
      "midi": 72,
      "hit": false,
      "t": 118116.66666666695,
      "d": 100,
      "v": 71
    },
    {
      "midi": 69,
      "hit": false,
      "t": 118116.66666666695,
      "d": 133.33333333332848,
      "v": 71
    },
    {
      "midi": 77,
      "hit": false,
      "t": 118116.66666666695,
      "d": 133.33333333332848,
      "v": 71
    },
    {
      "midi": 65,
      "hit": false,
      "t": 118416.66666666695,
      "d": 133.33333333332848,
      "v": 71
    },
    {
      "midi": 62,
      "hit": false,
      "t": 118416.66666666695,
      "d": 166.66666666665697,
      "v": 71
    },
    {
      "midi": 69,
      "hit": false,
      "t": 118416.66666666695,
      "d": 166.66666666665697,
      "v": 72
    },
    {
      "midi": 65,
      "hit": false,
      "t": 118716.66666666693,
      "d": 116.66666666667152,
      "v": 71
    },
    {
      "midi": 69,
      "hit": false,
      "t": 118716.66666666693,
      "d": 116.66666666667152,
      "v": 71
    },
    {
      "midi": 62,
      "hit": false,
      "t": 118716.66666666693,
      "d": 133.33333333334303,
      "v": 71
    },
    {
      "midi": 65,
      "hit": false,
      "t": 119016.66666666695,
      "d": 116.66666666667152,
      "v": 71
    },
    {
      "midi": 69,
      "hit": false,
      "t": 119016.66666666695,
      "d": 133.33333333334303,
      "v": 71
    },
    {
      "midi": 62,
      "hit": false,
      "t": 119016.66666666695,
      "d": 150.00000000001455,
      "v": 71
    },
    {
      "midi": 65,
      "hit": false,
      "t": 119316.66666666696,
      "d": 116.66666666667152,
      "v": 71
    },
    {
      "midi": 62,
      "hit": false,
      "t": 119316.66666666696,
      "d": 133.33333333334303,
      "v": 72
    },
    {
      "midi": 69,
      "hit": false,
      "t": 119316.66666666696,
      "d": 133.33333333334303,
      "v": 71
    },
    {
      "midi": 69,
      "hit": false,
      "t": 119600.0000000003,
      "d": 116.66666666667152,
      "v": 71
    },
    {
      "midi": 65,
      "hit": false,
      "t": 119600.0000000003,
      "d": 133.33333333334303,
      "v": 71
    },
    {
      "midi": 62,
      "hit": false,
      "t": 119600.0000000003,
      "d": 150.00000000001455,
      "v": 71
    },
    {
      "midi": 65,
      "hit": false,
      "t": 119900.00000000032,
      "d": 116.66666666667152,
      "v": 71
    },
    {
      "midi": 69,
      "hit": false,
      "t": 119900.00000000032,
      "d": 133.33333333334303,
      "v": 71
    },
    {
      "midi": 62,
      "hit": false,
      "t": 119916.66666666699,
      "d": 116.66666666667152,
      "v": 71
    },
    {
      "midi": 79,
      "hit": false,
      "t": 120200.00000000033,
      "d": 166.66666666667152,
      "v": 72
    },
    {
      "midi": 74,
      "hit": false,
      "t": 120216.666666667,
      "d": 133.33333333332848,
      "v": 71
    },
    {
      "midi": 70,
      "hit": false,
      "t": 120216.666666667,
      "d": 150,
      "v": 71
    },
    {
      "midi": 74,
      "hit": false,
      "t": 120500.00000000033,
      "d": 116.66666666667152,
      "v": 71
    },
    {
      "midi": 79,
      "hit": false,
      "t": 120500.00000000033,
      "d": 133.33333333334303,
      "v": 71
    },
    {
      "midi": 70,
      "hit": false,
      "t": 120500.00000000033,
      "d": 150.00000000001455,
      "v": 71
    },
    {
      "midi": 74,
      "hit": false,
      "t": 120800.00000000035,
      "d": 116.66666666667152,
      "v": 71
    },
    {
      "midi": 79,
      "hit": false,
      "t": 120800.00000000035,
      "d": 133.33333333334303,
      "v": 71
    },
    {
      "midi": 70,
      "hit": false,
      "t": 120800.00000000035,
      "d": 150.00000000001455,
      "v": 71
    },
    {
      "midi": 74,
      "hit": false,
      "t": 121100.00000000036,
      "d": 116.66666666667152,
      "v": 71
    },
    {
      "midi": 70,
      "hit": false,
      "t": 121100.00000000036,
      "d": 133.33333333334303,
      "v": 72
    },
    {
      "midi": 79,
      "hit": false,
      "t": 121100.00000000036,
      "d": 133.33333333334303,
      "v": 71
    },
    {
      "midi": 79,
      "hit": false,
      "t": 121400.00000000038,
      "d": 100,
      "v": 71
    },
    {
      "midi": 74,
      "hit": false,
      "t": 121400.00000000038,
      "d": 116.66666666667152,
      "v": 71
    },
    {
      "midi": 70,
      "hit": false,
      "t": 121400.00000000038,
      "d": 133.33333333334303,
      "v": 71
    },
    {
      "midi": 74,
      "hit": false,
      "t": 121700.0000000004,
      "d": 100,
      "v": 71
    },
    {
      "midi": 70,
      "hit": false,
      "t": 121700.0000000004,
      "d": 116.66666666667152,
      "v": 71
    },
    {
      "midi": 79,
      "hit": false,
      "t": 121700.0000000004,
      "d": 116.66666666667152,
      "v": 71
    },
    {
      "midi": 74,
      "hit": false,
      "t": 122000.0000000004,
      "d": 83.33333333332848,
      "v": 71
    },
    {
      "midi": 70,
      "hit": false,
      "t": 122000.0000000004,
      "d": 116.66666666665697,
      "v": 71
    },
    {
      "midi": 79,
      "hit": false,
      "t": 122000.0000000004,
      "d": 116.66666666665697,
      "v": 71
    },
    {
      "midi": 74,
      "hit": false,
      "t": 122300.00000000038,
      "d": 100,
      "v": 71
    },
    {
      "midi": 79,
      "hit": false,
      "t": 122300.00000000038,
      "d": 100,
      "v": 72
    },
    {
      "midi": 70,
      "hit": false,
      "t": 122300.00000000038,
      "d": 116.66666666667152,
      "v": 71
    },
    {
      "midi": 74,
      "hit": false,
      "t": 122583.33333333372,
      "d": 100,
      "v": 71
    },
    {
      "midi": 70,
      "hit": false,
      "t": 122583.33333333372,
      "d": 116.66666666667152,
      "v": 71
    },
    {
      "midi": 79,
      "hit": false,
      "t": 122583.33333333372,
      "d": 116.66666666667152,
      "v": 71
    },
    {
      "midi": 70,
      "hit": false,
      "t": 122883.33333333372,
      "d": 133.33333333334303,
      "v": 71
    },
    {
      "midi": 74,
      "hit": false,
      "t": 122900.0000000004,
      "d": 100,
      "v": 71
    },
    {
      "midi": 79,
      "hit": false,
      "t": 122900.0000000004,
      "d": 100,
      "v": 71
    },
    {
      "midi": 74,
      "hit": false,
      "t": 123183.33333333374,
      "d": 100,
      "v": 71
    },
    {
      "midi": 79,
      "hit": false,
      "t": 123183.33333333374,
      "d": 116.66666666667152,
      "v": 71
    },
    {
      "midi": 70,
      "hit": false,
      "t": 123183.33333333374,
      "d": 133.33333333334303,
      "v": 71
    },
    {
      "midi": 74,
      "hit": false,
      "t": 123483.33333333375,
      "d": 100,
      "v": 71
    },
    {
      "midi": 79,
      "hit": false,
      "t": 123483.33333333375,
      "d": 100,
      "v": 71
    },
    {
      "midi": 70,
      "hit": false,
      "t": 123483.33333333375,
      "d": 116.66666666667152,
      "v": 71
    },
    {
      "midi": 64,
      "hit": false,
      "t": 123783.33333333375,
      "d": 133.33333333332848,
      "v": 71
    },
    {
      "midi": 60,
      "hit": false,
      "t": 123783.33333333375,
      "d": 166.66666666665697,
      "v": 71
    },
    {
      "midi": 67,
      "hit": false,
      "t": 123783.33333333375,
      "d": 166.66666666665697,
      "v": 72
    },
    {
      "midi": 64,
      "hit": false,
      "t": 124083.33333333374,
      "d": 116.66666666667152,
      "v": 71
    },
    {
      "midi": 67,
      "hit": false,
      "t": 124083.33333333374,
      "d": 116.66666666667152,
      "v": 71
    },
    {
      "midi": 60,
      "hit": false,
      "t": 124083.33333333374,
      "d": 133.33333333334303,
      "v": 71
    },
    {
      "midi": 64,
      "hit": false,
      "t": 124383.33333333375,
      "d": 116.66666666667152,
      "v": 71
    },
    {
      "midi": 67,
      "hit": false,
      "t": 124383.33333333375,
      "d": 133.33333333334303,
      "v": 71
    },
    {
      "midi": 60,
      "hit": false,
      "t": 124383.33333333375,
      "d": 150.00000000001455,
      "v": 71
    },
    {
      "midi": 64,
      "hit": false,
      "t": 124683.33333333377,
      "d": 116.66666666667152,
      "v": 71
    },
    {
      "midi": 60,
      "hit": false,
      "t": 124683.33333333377,
      "d": 133.33333333334303,
      "v": 72
    },
    {
      "midi": 67,
      "hit": false,
      "t": 124683.33333333377,
      "d": 133.33333333334303,
      "v": 71
    },
    {
      "midi": 67,
      "hit": false,
      "t": 124983.33333333378,
      "d": 100,
      "v": 71
    },
    {
      "midi": 60,
      "hit": false,
      "t": 124983.33333333378,
      "d": 116.66666666667152,
      "v": 71
    },
    {
      "midi": 64,
      "hit": false,
      "t": 124983.33333333378,
      "d": 116.66666666667152,
      "v": 71
    },
    {
      "midi": 67,
      "hit": false,
      "t": 125266.66666666712,
      "d": 133.33333333334303,
      "v": 71
    },
    {
      "midi": 64,
      "hit": false,
      "t": 125283.3333333338,
      "d": 100,
      "v": 71
    },
    {
      "midi": 60,
      "hit": false,
      "t": 125283.3333333338,
      "d": 116.66666666667152,
      "v": 71
    },
    {
      "midi": 64,
      "hit": false,
      "t": 125566.66666666714,
      "d": 100,
      "v": 71
    },
    {
      "midi": 60,
      "hit": false,
      "t": 125566.66666666714,
      "d": 133.33333333332848,
      "v": 71
    },
    {
      "midi": 67,
      "hit": false,
      "t": 125566.66666666714,
      "d": 133.33333333332848,
      "v": 71
    },
    {
      "midi": 64,
      "hit": false,
      "t": 125866.66666666714,
      "d": 100,
      "v": 71
    },
    {
      "midi": 67,
      "hit": false,
      "t": 125866.66666666714,
      "d": 116.66666666667152,
      "v": 72
    },
    {
      "midi": 60,
      "hit": false,
      "t": 125866.66666666714,
      "d": 133.33333333334303,
      "v": 71
    },
    {
      "midi": 64,
      "hit": false,
      "t": 126166.66666666715,
      "d": 83.33333333332848,
      "v": 71
    },
    {
      "midi": 60,
      "hit": false,
      "t": 126166.66666666715,
      "d": 116.66666666665697,
      "v": 71
    },
    {
      "midi": 67,
      "hit": false,
      "t": 126166.66666666715,
      "d": 116.66666666665697,
      "v": 71
    },
    {
      "midi": 64,
      "hit": false,
      "t": 126466.66666666714,
      "d": 100,
      "v": 71
    },
    {
      "midi": 67,
      "hit": false,
      "t": 126466.66666666714,
      "d": 100,
      "v": 71
    },
    {
      "midi": 60,
      "hit": false,
      "t": 126466.66666666714,
      "d": 116.66666666667152,
      "v": 71
    },
    {
      "midi": 64,
      "hit": false,
      "t": 126766.66666666714,
      "d": 100,
      "v": 71
    },
    {
      "midi": 67,
      "hit": false,
      "t": 126766.66666666714,
      "d": 100,
      "v": 71
    },
    {
      "midi": 60,
      "hit": false,
      "t": 126766.66666666714,
      "d": 116.66666666667152,
      "v": 71
    },
    {
      "midi": 64,
      "hit": false,
      "t": 127066.66666666714,
      "d": 83.33333333332848,
      "v": 71
    },
    {
      "midi": 67,
      "hit": false,
      "t": 127066.66666666714,
      "d": 83.33333333332848,
      "v": 71
    },
    {
      "midi": 60,
      "hit": false,
      "t": 127066.66666666714,
      "d": 116.66666666665697,
      "v": 71
    },
    {
      "midi": 72,
      "hit": false,
      "t": 127366.66666666712,
      "d": 133.33333333332848,
      "v": 71
    },
    {
      "midi": 77,
      "hit": false,
      "t": 127366.66666666712,
      "d": 150,
      "v": 72
    },
    {
      "midi": 69,
      "hit": false,
      "t": 127366.66666666712,
      "d": 166.66666666667152,
      "v": 71
    },
    {
      "midi": 72,
      "hit": false,
      "t": 127650.00000000047,
      "d": 133.33333333332848,
      "v": 71
    },
    {
      "midi": 77,
      "hit": false,
      "t": 127650.00000000047,
      "d": 133.33333333332848,
      "v": 71
    },
    {
      "midi": 69,
      "hit": false,
      "t": 127650.00000000047,
      "d": 150,
      "v": 71
    },
    {
      "midi": 69,
      "hit": false,
      "t": 127950.00000000047,
      "d": 150,
      "v": 71
    },
    {
      "midi": 77,
      "hit": false,
      "t": 127950.00000000047,
      "d": 150,
      "v": 71
    },
    {
      "midi": 72,
      "hit": false,
      "t": 127966.66666666714,
      "d": 100,
      "v": 71
    },
    {
      "midi": 69,
      "hit": false,
      "t": 128250.00000000047,
      "d": 133.33333333332848,
      "v": 72
    },
    {
      "midi": 72,
      "hit": false,
      "t": 128250.00000000047,
      "d": 133.33333333332848,
      "v": 71
    },
    {
      "midi": 77,
      "hit": false,
      "t": 128250.00000000047,
      "d": 133.33333333332848,
      "v": 71
    },
    {
      "midi": 72,
      "hit": false,
      "t": 128550.00000000047,
      "d": 116.66666666667152,
      "v": 71
    },
    {
      "midi": 77,
      "hit": false,
      "t": 128550.00000000047,
      "d": 116.66666666667152,
      "v": 71
    },
    {
      "midi": 69,
      "hit": false,
      "t": 128550.00000000047,
      "d": 133.33333333334303,
      "v": 71
    },
    {
      "midi": 72,
      "hit": false,
      "t": 128850.00000000048,
      "d": 100,
      "v": 71
    },
    {
      "midi": 69,
      "hit": false,
      "t": 128850.00000000048,
      "d": 116.66666666667152,
      "v": 71
    },
    {
      "midi": 77,
      "hit": false,
      "t": 128850.00000000048,
      "d": 116.66666666667152,
      "v": 71
    },
    {
      "midi": 72,
      "hit": false,
      "t": 129150.00000000048,
      "d": 100,
      "v": 71
    },
    {
      "midi": 69,
      "hit": false,
      "t": 129150.00000000048,
      "d": 116.66666666667152,
      "v": 71
    },
    {
      "midi": 77,
      "hit": false,
      "t": 129150.00000000048,
      "d": 116.66666666667152,
      "v": 71
    },
    {
      "midi": 53,
      "hit": false,
      "t": 130950.00000000048,
      "d": 1366.6666666666715,
      "v": 76
    },
    {
      "midi": 57,
      "hit": false,
      "t": 131266.66666666715,
      "d": 683.333333333343,
      "v": 72
    },
    {
      "midi": 60,
      "hit": false,
      "t": 131550.0000000005,
      "d": 383.33333333334303,
      "v": 66
    },
    {
      "midi": 65,
      "hit": false,
      "t": 131850.0000000005,
      "d": 416.66666666665697,
      "v": 75
    },
    {
      "midi": 60,
      "hit": false,
      "t": 132150.0000000005,
      "d": 633.3333333333139,
      "v": 72
    },
    {
      "midi": 57,
      "hit": false,
      "t": 132433.3333333338,
      "d": 316.66666666665697,
      "v": 75
    },
    {
      "midi": 53,
      "hit": false,
      "t": 132733.3333333338,
      "d": 1083.333333333314,
      "v": 73
    },
    {
      "midi": 41,
      "hit": false,
      "t": 132733.3333333338,
      "d": 1516.6666666666279,
      "v": 71
    },
    {
      "midi": 57,
      "hit": false,
      "t": 133083.3333333338,
      "d": 633.3333333333139,
      "v": 72
    },
    {
      "midi": 60,
      "hit": false,
      "t": 133350.00000000047,
      "d": 366.66666666665697,
      "v": 72
    },
    {
      "midi": 65,
      "hit": false,
      "t": 133650.00000000047,
      "d": 349.9999999999709,
      "v": 77
    },
    {
      "midi": 60,
      "hit": false,
      "t": 133933.33333333378,
      "d": 300,
      "v": 76
    },
    {
      "midi": 57,
      "hit": false,
      "t": 134266.6666666671,
      "d": 150,
      "v": 77
    },
    {
      "midi": 57,
      "hit": false,
      "t": 134533.33333333375,
      "d": 1366.666666666657,
      "v": 74
    },
    {
      "midi": 38,
      "hit": false,
      "t": 134533.33333333375,
      "d": 1450,
      "v": 72
    },
    {
      "midi": 62,
      "hit": false,
      "t": 134850.0000000004,
      "d": 666.6666666666861,
      "v": 71
    },
    {
      "midi": 65,
      "hit": false,
      "t": 135133.33333333375,
      "d": 350,
      "v": 72
    },
    {
      "midi": 69,
      "hit": false,
      "t": 135433.33333333375,
      "d": 300,
      "v": 78
    },
    {
      "midi": 65,
      "hit": false,
      "t": 135716.6666666671,
      "d": 850.0000000000291,
      "v": 73
    },
    {
      "midi": 62,
      "hit": false,
      "t": 136016.6666666671,
      "d": 466.66666666668607,
      "v": 77
    },
    {
      "midi": 38,
      "hit": false,
      "t": 136200.00000000044,
      "d": 1800.000000000029,
      "v": 73
    },
    {
      "midi": 57,
      "hit": false,
      "t": 136350.00000000044,
      "d": 1266.666666666686,
      "v": 76
    },
    {
      "midi": 62,
      "hit": false,
      "t": 136650.00000000047,
      "d": 633.3333333333139,
      "v": 76
    },
    {
      "midi": 65,
      "hit": false,
      "t": 136916.66666666712,
      "d": 350,
      "v": 73
    },
    {
      "midi": 69,
      "hit": false,
      "t": 137200.00000000047,
      "d": 283.33333333331393,
      "v": 79
    },
    {
      "midi": 65,
      "hit": false,
      "t": 137516.66666666712,
      "d": 316.66666666668607,
      "v": 74
    },
    {
      "midi": 62,
      "hit": false,
      "t": 137800.00000000047,
      "d": 133.33333333334303,
      "v": 78
    },
    {
      "midi": 53,
      "hit": false,
      "t": 138083.3333333338,
      "d": 1383.333333333343,
      "v": 76
    },
    {
      "midi": 58,
      "hit": false,
      "t": 138416.66666666715,
      "d": 683.333333333343,
      "v": 72
    },
    {
      "midi": 62,
      "hit": false,
      "t": 138716.66666666715,
      "d": 366.66666666668607,
      "v": 66
    },
    {
      "midi": 65,
      "hit": false,
      "t": 139000.0000000005,
      "d": 416.66666666665697,
      "v": 75
    },
    {
      "midi": 62,
      "hit": false,
      "t": 139300.0000000005,
      "d": 633.3333333332848,
      "v": 72
    },
    {
      "midi": 58,
      "hit": false,
      "t": 139583.3333333338,
      "d": 333.33333333331393,
      "v": 75
    },
    {
      "midi": 34,
      "hit": false,
      "t": 139883.3333333338,
      "d": 1516.6666666666279,
      "v": 71
    },
    {
      "midi": 53,
      "hit": false,
      "t": 139900.00000000047,
      "d": 1066.6666666666279,
      "v": 73
    },
    {
      "midi": 58,
      "hit": false,
      "t": 140233.33333333378,
      "d": 633.3333333333139,
      "v": 72
    },
    {
      "midi": 62,
      "hit": false,
      "t": 140500.00000000044,
      "d": 366.66666666665697,
      "v": 72
    },
    {
      "midi": 65,
      "hit": false,
      "t": 140800.00000000044,
      "d": 366.66666666665697,
      "v": 77
    },
    {
      "midi": 62,
      "hit": false,
      "t": 141083.33333333375,
      "d": 316.66666666668607,
      "v": 76
    },
    {
      "midi": 58,
      "hit": false,
      "t": 141416.6666666671,
      "d": 150,
      "v": 77
    },
    {
      "midi": 53,
      "hit": false,
      "t": 141683.33333333375,
      "d": 1283.333333333343,
      "v": 72
    },
    {
      "midi": 41,
      "hit": false,
      "t": 141683.33333333375,
      "d": 1716.666666666657,
      "v": 72
    },
    {
      "midi": 57,
      "hit": false,
      "t": 141983.33333333375,
      "d": 683.333333333343,
      "v": 76
    },
    {
      "midi": 60,
      "hit": false,
      "t": 142283.33333333375,
      "d": 400,
      "v": 73
    },
    {
      "midi": 65,
      "hit": false,
      "t": 142583.33333333375,
      "d": 266.66666666665697,
      "v": 78
    },
    {
      "midi": 60,
      "hit": false,
      "t": 142883.33333333375,
      "d": 416.66666666665697,
      "v": 74
    },
    {
      "midi": 57,
      "hit": false,
      "t": 143183.33333333375,
      "d": 183.33333333331393,
      "v": 77
    },
    {
      "midi": 38,
      "hit": false,
      "t": 143466.66666666706,
      "d": 1733.333333333343,
      "v": 72
    },
    {
      "midi": 57,
      "hit": false,
      "t": 143483.33333333372,
      "d": 1266.666666666686,
      "v": 72
    },
    {
      "midi": 60,
      "hit": false,
      "t": 143783.33333333372,
      "d": 666.6666666666861,
      "v": 76
    },
    {
      "midi": 62,
      "hit": false,
      "t": 144066.66666666706,
      "d": 400,
      "v": 73
    },
    {
      "midi": 66,
      "hit": false,
      "t": 144366.66666666706,
      "d": 266.66666666665697,
      "v": 78
    },
    {
      "midi": 62,
      "hit": false,
      "t": 144666.66666666706,
      "d": 433.33333333334303,
      "v": 74
    },
    {
      "midi": 60,
      "hit": false,
      "t": 144966.66666666706,
      "d": 183.33333333334303,
      "v": 77
    },
    {
      "midi": 43,
      "hit": false,
      "t": 145250.0000000004,
      "d": 883.3333333333139,
      "v": 73
    },
    {
      "midi": 55,
      "hit": false,
      "t": 145250.0000000004,
      "d": 1299.9999999999418,
      "v": 75
    },
    {
      "midi": 58,
      "hit": false,
      "t": 145550.0000000004,
      "d": 683.3333333332848,
      "v": 74
    },
    {
      "midi": 62,
      "hit": false,
      "t": 145866.66666666706,
      "d": 283.33333333331393,
      "v": 73
    },
    {
      "midi": 67,
      "hit": false,
      "t": 146166.66666666704,
      "d": 366.66666666665697,
      "v": 79
    },
    {
      "midi": 62,
      "hit": false,
      "t": 146450.00000000035,
      "d": 500,
      "v": 73
    },
    {
      "midi": 43,
      "hit": false,
      "t": 146600.00000000035,
      "d": 283.33333333334303,
      "v": 76
    },
    {
      "midi": 55,
      "hit": false,
      "t": 146750.00000000035,
      "d": 183.33333333334303,
      "v": 79
    },
    {
      "midi": 41,
      "hit": false,
      "t": 147033.3333333337,
      "d": 883.3333333333139,
      "v": 73
    },
    {
      "midi": 55,
      "hit": false,
      "t": 147033.3333333337,
      "d": 1316.6666666666279,
      "v": 75
    },
    {
      "midi": 58,
      "hit": false,
      "t": 147350.00000000035,
      "d": 683.3333333333139,
      "v": 74
    },
    {
      "midi": 62,
      "hit": false,
      "t": 147650.00000000035,
      "d": 283.33333333331393,
      "v": 73
    },
    {
      "midi": 65,
      "hit": false,
      "t": 147950.00000000032,
      "d": 383.33333333334303,
      "v": 79
    },
    {
      "midi": 62,
      "hit": false,
      "t": 148233.33333333366,
      "d": 500,
      "v": 73
    },
    {
      "midi": 41,
      "hit": false,
      "t": 148383.33333333366,
      "d": 300,
      "v": 76
    },
    {
      "midi": 55,
      "hit": false,
      "t": 148533.33333333366,
      "d": 183.33333333334303,
      "v": 79
    },
    {
      "midi": 55,
      "hit": false,
      "t": 148833.33333333366,
      "d": 1366.666666666657,
      "v": 76
    },
    {
      "midi": 60,
      "hit": false,
      "t": 149150.00000000032,
      "d": 683.333333333343,
      "v": 72
    },
    {
      "midi": 64,
      "hit": false,
      "t": 149450.00000000032,
      "d": 366.66666666668607,
      "v": 66
    },
    {
      "midi": 67,
      "hit": false,
      "t": 149733.33333333366,
      "d": 416.66666666665697,
      "v": 75
    },
    {
      "midi": 64,
      "hit": false,
      "t": 150033.33333333366,
      "d": 633.3333333333139,
      "v": 72
    },
    {
      "midi": 60,
      "hit": false,
      "t": 150316.66666666698,
      "d": 316.66666666665697,
      "v": 75
    },
    {
      "midi": 36,
      "hit": false,
      "t": 150616.66666666698,
      "d": 1516.6666666666279,
      "v": 71
    },
    {
      "midi": 55,
      "hit": false,
      "t": 150633.33333333363,
      "d": 1066.666666666657,
      "v": 73
    },
    {
      "midi": 60,
      "hit": false,
      "t": 150966.66666666698,
      "d": 633.3333333333139,
      "v": 72
    },
    {
      "midi": 64,
      "hit": false,
      "t": 151233.33333333363,
      "d": 366.66666666665697,
      "v": 72
    },
    {
      "midi": 67,
      "hit": false,
      "t": 151533.33333333363,
      "d": 366.66666666665697,
      "v": 77
    },
    {
      "midi": 64,
      "hit": false,
      "t": 151816.66666666695,
      "d": 300,
      "v": 76
    },
    {
      "midi": 60,
      "hit": false,
      "t": 152150.00000000026,
      "d": 150,
      "v": 77
    },
    {
      "midi": 55,
      "hit": false,
      "t": 152416.66666666692,
      "d": 1366.6666666666279,
      "v": 74
    },
    {
      "midi": 36,
      "hit": false,
      "t": 152416.66666666692,
      "d": 1449.999999999971,
      "v": 72
    },
    {
      "midi": 60,
      "hit": false,
      "t": 152733.33333333358,
      "d": 666.666666666657,
      "v": 71
    },
    {
      "midi": 64,
      "hit": false,
      "t": 153016.66666666692,
      "d": 366.66666666665697,
      "v": 72
    },
    {
      "midi": 67,
      "hit": false,
      "t": 153316.66666666692,
      "d": 299.9999999999709,
      "v": 78
    },
    {
      "midi": 64,
      "hit": false,
      "t": 153600.00000000023,
      "d": 850.0000000000291,
      "v": 73
    },
    {
      "midi": 60,
      "hit": false,
      "t": 153900.00000000023,
      "d": 466.66666666668607,
      "v": 77
    },
    {
      "midi": 36,
      "hit": false,
      "t": 154083.33333333358,
      "d": 1800,
      "v": 73
    },
    {
      "midi": 55,
      "hit": false,
      "t": 154233.33333333358,
      "d": 1266.666666666686,
      "v": 76
    },
    {
      "midi": 60,
      "hit": false,
      "t": 154533.3333333336,
      "d": 633.3333333333139,
      "v": 76
    },
    {
      "midi": 64,
      "hit": false,
      "t": 154800.00000000026,
      "d": 366.66666666665697,
      "v": 73
    },
    {
      "midi": 67,
      "hit": false,
      "t": 155100.00000000026,
      "d": 266.66666666665697,
      "v": 79
    },
    {
      "midi": 64,
      "hit": false,
      "t": 155416.66666666692,
      "d": 300,
      "v": 74
    },
    {
      "midi": 60,
      "hit": false,
      "t": 155700.00000000026,
      "d": 116.66666666665697,
      "v": 78
    },
    {
      "midi": 53,
      "hit": false,
      "t": 155983.33333333358,
      "d": 1366.666666666657,
      "v": 76
    },
    {
      "midi": 57,
      "hit": false,
      "t": 156300.00000000026,
      "d": 683.3333333333139,
      "v": 72
    },
    {
      "midi": 60,
      "hit": false,
      "t": 156600.00000000026,
      "d": 366.66666666665697,
      "v": 66
    },
    {
      "midi": 65,
      "hit": false,
      "t": 156900.00000000026,
      "d": 416.66666666662786,
      "v": 75
    },
    {
      "midi": 60,
      "hit": false,
      "t": 157200.00000000023,
      "d": 616.666666666657,
      "v": 72
    },
    {
      "midi": 57,
      "hit": false,
      "t": 157483.33333333358,
      "d": 316.66666666665697,
      "v": 75
    },
    {
      "midi": 53,
      "hit": false,
      "t": 157783.33333333358,
      "d": 1066.6666666666279,
      "v": 73
    },
    {
      "midi": 41,
      "hit": false,
      "t": 157783.33333333358,
      "d": 1516.6666666666279,
      "v": 71
    },
    {
      "midi": 57,
      "hit": false,
      "t": 158133.33333333355,
      "d": 616.666666666657,
      "v": 72
    },
    {
      "midi": 60,
      "hit": false,
      "t": 158400.0000000002,
      "d": 350,
      "v": 72
    },
    {
      "midi": 65,
      "hit": false,
      "t": 158683.33333333355,
      "d": 366.66666666665697,
      "v": 77
    },
    {
      "midi": 60,
      "hit": false,
      "t": 158983.33333333355,
      "d": 300,
      "v": 76
    },
    {
      "midi": 57,
      "hit": false,
      "t": 159300.0000000002,
      "d": 166.66666666665697,
      "v": 77
    },
    {
      "midi": 72,
      "hit": false,
      "t": 159550.0000000002,
      "d": 150,
      "v": 71
    },
    {
      "midi": 69,
      "hit": false,
      "t": 159550.0000000002,
      "d": 166.66666666665697,
      "v": 71
    },
    {
      "midi": 77,
      "hit": false,
      "t": 159550.0000000002,
      "d": 166.66666666665697,
      "v": 72
    },
    {
      "midi": 77,
      "hit": false,
      "t": 159850.0000000002,
      "d": 133.33333333331393,
      "v": 71
    },
    {
      "midi": 69,
      "hit": false,
      "t": 159850.0000000002,
      "d": 149.9999999999709,
      "v": 71
    },
    {
      "midi": 72,
      "hit": false,
      "t": 159866.66666666686,
      "d": 100,
      "v": 71
    },
    {
      "midi": 72,
      "hit": false,
      "t": 160150.00000000017,
      "d": 116.66666666665697,
      "v": 71
    },
    {
      "midi": 69,
      "hit": false,
      "t": 160150.00000000017,
      "d": 150,
      "v": 71
    },
    {
      "midi": 77,
      "hit": false,
      "t": 160150.00000000017,
      "d": 150,
      "v": 71
    },
    {
      "midi": 72,
      "hit": false,
      "t": 160450.00000000017,
      "d": 116.66666666665697,
      "v": 71
    },
    {
      "midi": 69,
      "hit": false,
      "t": 160450.00000000017,
      "d": 133.33333333331393,
      "v": 72
    },
    {
      "midi": 77,
      "hit": false,
      "t": 160450.00000000017,
      "d": 133.33333333331393,
      "v": 71
    },
    {
      "midi": 72,
      "hit": false,
      "t": 160750.00000000015,
      "d": 116.66666666665697,
      "v": 71
    },
    {
      "midi": 77,
      "hit": false,
      "t": 160750.00000000015,
      "d": 116.66666666665697,
      "v": 71
    },
    {
      "midi": 69,
      "hit": false,
      "t": 160750.00000000015,
      "d": 133.33333333331393,
      "v": 71
    },
    {
      "midi": 72,
      "hit": false,
      "t": 161050.00000000012,
      "d": 100,
      "v": 71
    },
    {
      "midi": 69,
      "hit": false,
      "t": 161050.00000000012,
      "d": 116.66666666665697,
      "v": 71
    },
    {
      "midi": 77,
      "hit": false,
      "t": 161050.00000000012,
      "d": 116.66666666665697,
      "v": 71
    },
    {
      "midi": 65,
      "hit": false,
      "t": 161350.00000000012,
      "d": 133.33333333334303,
      "v": 71
    },
    {
      "midi": 69,
      "hit": false,
      "t": 161350.00000000012,
      "d": 150,
      "v": 72
    },
    {
      "midi": 62,
      "hit": false,
      "t": 161350.00000000012,
      "d": 166.66666666665697,
      "v": 71
    },
    {
      "midi": 69,
      "hit": false,
      "t": 161633.33333333343,
      "d": 133.33333333331393,
      "v": 71
    },
    {
      "midi": 62,
      "hit": false,
      "t": 161633.33333333343,
      "d": 149.9999999999709,
      "v": 71
    },
    {
      "midi": 65,
      "hit": false,
      "t": 161650.0000000001,
      "d": 116.66666666665697,
      "v": 71
    },
    {
      "midi": 65,
      "hit": false,
      "t": 161950.00000000006,
      "d": 100,
      "v": 71
    },
    {
      "midi": 62,
      "hit": false,
      "t": 161950.00000000006,
      "d": 133.33333333334303,
      "v": 71
    },
    {
      "midi": 69,
      "hit": false,
      "t": 161950.00000000006,
      "d": 133.33333333334303,
      "v": 71
    },
    {
      "midi": 65,
      "hit": false,
      "t": 162233.3333333334,
      "d": 133.33333333331393,
      "v": 71
    },
    {
      "midi": 69,
      "hit": false,
      "t": 162233.3333333334,
      "d": 149.9999999999709,
      "v": 71
    },
    {
      "midi": 62,
      "hit": false,
      "t": 162250.00000000006,
      "d": 133.33333333331393,
      "v": 72
    },
    {
      "midi": 69,
      "hit": false,
      "t": 162533.33333333337,
      "d": 116.66666666665697,
      "v": 71
    },
    {
      "midi": 65,
      "hit": false,
      "t": 162550.00000000003,
      "d": 100,
      "v": 71
    },
    {
      "midi": 62,
      "hit": false,
      "t": 162550.00000000003,
      "d": 116.66666666665697,
      "v": 71
    },
    {
      "midi": 65,
      "hit": false,
      "t": 162833.33333333334,
      "d": 100,
      "v": 71
    },
    {
      "midi": 69,
      "hit": false,
      "t": 162833.33333333334,
      "d": 116.66666666665697,
      "v": 71
    },
    {
      "midi": 62,
      "hit": false,
      "t": 162850,
      "d": 100,
      "v": 71
    },
    {
      "midi": 74,
      "hit": false,
      "t": 163133.33333333334,
      "d": 150,
      "v": 71
    },
    {
      "midi": 70,
      "hit": false,
      "t": 163133.33333333334,
      "d": 166.66666666665697,
      "v": 71
    },
    {
      "midi": 79,
      "hit": false,
      "t": 163133.33333333334,
      "d": 166.66666666665697,
      "v": 72
    },
    {
      "midi": 74,
      "hit": false,
      "t": 163433.33333333334,
      "d": 116.66666666665697,
      "v": 71
    },
    {
      "midi": 79,
      "hit": false,
      "t": 163433.33333333334,
      "d": 116.66666666665697,
      "v": 71
    },
    {
      "midi": 70,
      "hit": false,
      "t": 163433.33333333334,
      "d": 133.33333333331393,
      "v": 71
    },
    {
      "midi": 74,
      "hit": false,
      "t": 163733.3333333333,
      "d": 116.66666666665697,
      "v": 71
    },
    {
      "midi": 70,
      "hit": false,
      "t": 163733.3333333333,
      "d": 133.33333333331393,
      "v": 71
    },
    {
      "midi": 79,
      "hit": false,
      "t": 163733.3333333333,
      "d": 133.33333333331393,
      "v": 71
    },
    {
      "midi": 74,
      "hit": false,
      "t": 164033.33333333328,
      "d": 116.66666666665697,
      "v": 71
    },
    {
      "midi": 70,
      "hit": false,
      "t": 164033.33333333328,
      "d": 133.33333333331393,
      "v": 72
    },
    {
      "midi": 79,
      "hit": false,
      "t": 164033.33333333328,
      "d": 133.33333333331393,
      "v": 71
    },
    {
      "midi": 79,
      "hit": false,
      "t": 164316.6666666666,
      "d": 116.66666666665697,
      "v": 71
    },
    {
      "midi": 70,
      "hit": false,
      "t": 164316.6666666666,
      "d": 133.33333333331393,
      "v": 71
    },
    {
      "midi": 74,
      "hit": false,
      "t": 164333.33333333326,
      "d": 116.66666666665697,
      "v": 71
    },
    {
      "midi": 74,
      "hit": false,
      "t": 164616.66666666657,
      "d": 116.66666666665697,
      "v": 71
    },
    {
      "midi": 79,
      "hit": false,
      "t": 164616.66666666657,
      "d": 133.33333333331393,
      "v": 71
    },
    {
      "midi": 70,
      "hit": false,
      "t": 164633.33333333323,
      "d": 116.66666666665697,
      "v": 71
    },
    {
      "midi": 70,
      "hit": false,
      "t": 164916.66666666654,
      "d": 133.33333333334303,
      "v": 71
    },
    {
      "midi": 79,
      "hit": false,
      "t": 164916.66666666654,
      "d": 133.33333333334303,
      "v": 71
    },
    {
      "midi": 74,
      "hit": false,
      "t": 164933.3333333332,
      "d": 83.33333333334303,
      "v": 71
    },
    {
      "midi": 74,
      "hit": false,
      "t": 165216.66666666654,
      "d": 100,
      "v": 71
    },
    {
      "midi": 79,
      "hit": false,
      "t": 165216.66666666654,
      "d": 116.66666666665697,
      "v": 72
    },
    {
      "midi": 70,
      "hit": false,
      "t": 165216.66666666654,
      "d": 133.33333333331393,
      "v": 71
    },
    {
      "midi": 74,
      "hit": false,
      "t": 165516.6666666665,
      "d": 100,
      "v": 71
    },
    {
      "midi": 70,
      "hit": false,
      "t": 165516.6666666665,
      "d": 116.66666666665697,
      "v": 71
    },
    {
      "midi": 79,
      "hit": false,
      "t": 165516.6666666665,
      "d": 116.66666666665697,
      "v": 71
    },
    {
      "midi": 74,
      "hit": false,
      "t": 165816.6666666665,
      "d": 100,
      "v": 71
    },
    {
      "midi": 79,
      "hit": false,
      "t": 165816.6666666665,
      "d": 116.66666666665697,
      "v": 71
    },
    {
      "midi": 70,
      "hit": false,
      "t": 165816.6666666665,
      "d": 133.33333333331393,
      "v": 71
    },
    {
      "midi": 74,
      "hit": false,
      "t": 166116.66666666648,
      "d": 83.33333333334303,
      "v": 71
    },
    {
      "midi": 79,
      "hit": false,
      "t": 166116.66666666648,
      "d": 100,
      "v": 71
    },
    {
      "midi": 70,
      "hit": false,
      "t": 166116.66666666648,
      "d": 133.33333333334303,
      "v": 71
    },
    {
      "midi": 74,
      "hit": false,
      "t": 166416.66666666648,
      "d": 100,
      "v": 71
    },
    {
      "midi": 79,
      "hit": false,
      "t": 166416.66666666648,
      "d": 100,
      "v": 71
    },
    {
      "midi": 70,
      "hit": false,
      "t": 166416.66666666648,
      "d": 116.66666666665697,
      "v": 71
    },
    {
      "midi": 64,
      "hit": false,
      "t": 166716.66666666648,
      "d": 133.33333333334303,
      "v": 71
    },
    {
      "midi": 67,
      "hit": false,
      "t": 166716.66666666648,
      "d": 150,
      "v": 72
    },
    {
      "midi": 60,
      "hit": false,
      "t": 166716.66666666648,
      "d": 166.66666666665697,
      "v": 71
    },
    {
      "midi": 64,
      "hit": false,
      "t": 167016.66666666648,
      "d": 116.66666666665697,
      "v": 71
    },
    {
      "midi": 67,
      "hit": false,
      "t": 167016.66666666648,
      "d": 116.66666666665697,
      "v": 71
    },
    {
      "midi": 60,
      "hit": false,
      "t": 167016.66666666648,
      "d": 133.33333333331393,
      "v": 71
    },
    {
      "midi": 67,
      "hit": false,
      "t": 167299.9999999998,
      "d": 149.9999999999709,
      "v": 71
    },
    {
      "midi": 64,
      "hit": false,
      "t": 167316.66666666645,
      "d": 116.66666666665697,
      "v": 71
    },
    {
      "midi": 60,
      "hit": false,
      "t": 167316.66666666645,
      "d": 133.33333333331393,
      "v": 71
    },
    {
      "midi": 64,
      "hit": false,
      "t": 167599.99999999977,
      "d": 116.66666666665697,
      "v": 71
    },
    {
      "midi": 60,
      "hit": false,
      "t": 167599.99999999977,
      "d": 133.33333333331393,
      "v": 72
    },
    {
      "midi": 67,
      "hit": false,
      "t": 167599.99999999977,
      "d": 133.33333333331393,
      "v": 71
    },
    {
      "midi": 64,
      "hit": false,
      "t": 167899.99999999974,
      "d": 116.66666666665697,
      "v": 71
    },
    {
      "midi": 67,
      "hit": false,
      "t": 167899.99999999974,
      "d": 116.66666666665697,
      "v": 71
    },
    {
      "midi": 60,
      "hit": false,
      "t": 167899.99999999974,
      "d": 133.33333333331393,
      "v": 71
    },
    {
      "midi": 64,
      "hit": false,
      "t": 168199.9999999997,
      "d": 100,
      "v": 71
    },
    {
      "midi": 60,
      "hit": false,
      "t": 168199.9999999997,
      "d": 133.33333333334303,
      "v": 71
    },
    {
      "midi": 67,
      "hit": false,
      "t": 168199.9999999997,
      "d": 133.33333333334303,
      "v": 71
    },
    {
      "midi": 64,
      "hit": false,
      "t": 168499.9999999997,
      "d": 100,
      "v": 71
    },
    {
      "midi": 60,
      "hit": false,
      "t": 168499.9999999997,
      "d": 116.66666666665697,
      "v": 71
    },
    {
      "midi": 67,
      "hit": false,
      "t": 168499.9999999997,
      "d": 133.33333333331393,
      "v": 71
    },
    {
      "midi": 64,
      "hit": false,
      "t": 168799.99999999968,
      "d": 100,
      "v": 71
    },
    {
      "midi": 67,
      "hit": false,
      "t": 168799.99999999968,
      "d": 100,
      "v": 72
    },
    {
      "midi": 60,
      "hit": false,
      "t": 168799.99999999968,
      "d": 133.33333333334303,
      "v": 71
    },
    {
      "midi": 64,
      "hit": false,
      "t": 169099.99999999968,
      "d": 83.33333333334303,
      "v": 71
    },
    {
      "midi": 60,
      "hit": false,
      "t": 169099.99999999968,
      "d": 100,
      "v": 71
    },
    {
      "midi": 67,
      "hit": false,
      "t": 169099.99999999968,
      "d": 100,
      "v": 71
    },
    {
      "midi": 64,
      "hit": false,
      "t": 169399.99999999968,
      "d": 100,
      "v": 71
    },
    {
      "midi": 67,
      "hit": false,
      "t": 169399.99999999968,
      "d": 100,
      "v": 71
    },
    {
      "midi": 60,
      "hit": false,
      "t": 169399.99999999968,
      "d": 116.66666666665697,
      "v": 71
    },
    {
      "midi": 67,
      "hit": false,
      "t": 169683.333333333,
      "d": 116.66666666665697,
      "v": 71
    },
    {
      "midi": 64,
      "hit": false,
      "t": 169699.99999999965,
      "d": 83.33333333334303,
      "v": 71
    },
    {
      "midi": 60,
      "hit": false,
      "t": 169699.99999999965,
      "d": 116.66666666665697,
      "v": 71
    },
    {
      "midi": 64,
      "hit": false,
      "t": 169999.99999999965,
      "d": 83.33333333334303,
      "v": 71
    },
    {
      "midi": 67,
      "hit": false,
      "t": 169999.99999999965,
      "d": 83.33333333334303,
      "v": 71
    },
    {
      "midi": 60,
      "hit": false,
      "t": 169999.99999999965,
      "d": 100,
      "v": 71
    },
    {
      "midi": 72,
      "hit": false,
      "t": 170299.99999999965,
      "d": 133.33333333334303,
      "v": 71
    },
    {
      "midi": 69,
      "hit": false,
      "t": 170299.99999999965,
      "d": 150,
      "v": 71
    },
    {
      "midi": 77,
      "hit": false,
      "t": 170299.99999999965,
      "d": 150,
      "v": 72
    },
    {
      "midi": 72,
      "hit": false,
      "t": 170583.333333333,
      "d": 116.66666666665697,
      "v": 71
    },
    {
      "midi": 77,
      "hit": false,
      "t": 170583.333333333,
      "d": 133.33333333331393,
      "v": 71
    },
    {
      "midi": 69,
      "hit": false,
      "t": 170583.333333333,
      "d": 149.9999999999709,
      "v": 71
    },
    {
      "midi": 72,
      "hit": false,
      "t": 170883.33333333296,
      "d": 116.66666666665697,
      "v": 71
    },
    {
      "midi": 77,
      "hit": false,
      "t": 170883.33333333296,
      "d": 133.33333333331393,
      "v": 71
    },
    {
      "midi": 69,
      "hit": false,
      "t": 170883.33333333296,
      "d": 149.9999999999709,
      "v": 71
    },
    {
      "midi": 72,
      "hit": false,
      "t": 171183.33333333294,
      "d": 116.66666666665697,
      "v": 71
    },
    {
      "midi": 69,
      "hit": false,
      "t": 171183.33333333294,
      "d": 133.33333333331393,
      "v": 72
    },
    {
      "midi": 77,
      "hit": false,
      "t": 171183.33333333294,
      "d": 133.33333333331393,
      "v": 71
    },
    {
      "midi": 77,
      "hit": false,
      "t": 171483.3333333329,
      "d": 100,
      "v": 71
    },
    {
      "midi": 72,
      "hit": false,
      "t": 171483.3333333329,
      "d": 116.66666666665697,
      "v": 71
    },
    {
      "midi": 69,
      "hit": false,
      "t": 171483.3333333329,
      "d": 133.33333333331393,
      "v": 71
    },
    {
      "midi": 72,
      "hit": false,
      "t": 171783.33333333288,
      "d": 100,
      "v": 71
    },
    {
      "midi": 69,
      "hit": false,
      "t": 171783.33333333288,
      "d": 116.66666666665697,
      "v": 71
    },
    {
      "midi": 77,
      "hit": false,
      "t": 171783.33333333288,
      "d": 116.66666666665697,
      "v": 71
    },
    {
      "midi": 64,
      "hit": false,
      "t": 172083.33333333288,
      "d": 133.33333333334303,
      "v": 71
    },
    {
      "midi": 67,
      "hit": false,
      "t": 172083.33333333288,
      "d": 150,
      "v": 72
    },
    {
      "midi": 60,
      "hit": false,
      "t": 172083.33333333288,
      "d": 166.66666666665697,
      "v": 71
    },
    {
      "midi": 67,
      "hit": false,
      "t": 172366.6666666662,
      "d": 133.33333333331393,
      "v": 71
    },
    {
      "midi": 60,
      "hit": false,
      "t": 172366.6666666662,
      "d": 149.9999999999709,
      "v": 71
    },
    {
      "midi": 64,
      "hit": false,
      "t": 172383.33333333285,
      "d": 116.66666666665697,
      "v": 71
    },
    {
      "midi": 64,
      "hit": false,
      "t": 172666.66666666616,
      "d": 116.66666666665697,
      "v": 71
    },
    {
      "midi": 60,
      "hit": false,
      "t": 172666.66666666616,
      "d": 150,
      "v": 71
    },
    {
      "midi": 67,
      "hit": false,
      "t": 172666.66666666616,
      "d": 150,
      "v": 71
    },
    {
      "midi": 64,
      "hit": false,
      "t": 172966.66666666616,
      "d": 116.66666666665697,
      "v": 71
    },
    {
      "midi": 67,
      "hit": false,
      "t": 172966.66666666616,
      "d": 133.33333333331393,
      "v": 71
    },
    {
      "midi": 60,
      "hit": false,
      "t": 172983.33333333282,
      "d": 116.66666666665697,
      "v": 72
    },
    {
      "midi": 64,
      "hit": false,
      "t": 173266.66666666613,
      "d": 116.66666666665697,
      "v": 71
    },
    {
      "midi": 67,
      "hit": false,
      "t": 173266.66666666613,
      "d": 116.66666666665697,
      "v": 71
    },
    {
      "midi": 60,
      "hit": false,
      "t": 173266.66666666613,
      "d": 133.33333333331393,
      "v": 71
    },
    {
      "midi": 64,
      "hit": false,
      "t": 173566.6666666661,
      "d": 100,
      "v": 71
    },
    {
      "midi": 60,
      "hit": false,
      "t": 173566.6666666661,
      "d": 133.33333333334303,
      "v": 71
    },
    {
      "midi": 67,
      "hit": false,
      "t": 173566.6666666661,
      "d": 133.33333333334303,
      "v": 71
    },
    {
      "midi": 72,
      "hit": false,
      "t": 173866.6666666661,
      "d": 133.33333333334303,
      "v": 71
    },
    {
      "midi": 69,
      "hit": false,
      "t": 173866.6666666661,
      "d": 166.66666666668607,
      "v": 71
    },
    {
      "midi": 77,
      "hit": false,
      "t": 173866.6666666661,
      "d": 166.66666666668607,
      "v": 72
    },
    {
      "midi": 72,
      "hit": false,
      "t": 174166.66666666613,
      "d": 116.66666666665697,
      "v": 71
    },
    {
      "midi": 69,
      "hit": false,
      "t": 174166.66666666613,
      "d": 133.33333333331393,
      "v": 71
    },
    {
      "midi": 77,
      "hit": false,
      "t": 174166.66666666613,
      "d": 133.33333333331393,
      "v": 71
    },
    {
      "midi": 72,
      "hit": false,
      "t": 174466.6666666661,
      "d": 116.66666666665697,
      "v": 71
    },
    {
      "midi": 77,
      "hit": false,
      "t": 174466.6666666661,
      "d": 133.33333333331393,
      "v": 71
    },
    {
      "midi": 69,
      "hit": false,
      "t": 174466.6666666661,
      "d": 149.9999999999709,
      "v": 71
    },
    {
      "midi": 72,
      "hit": false,
      "t": 174766.66666666607,
      "d": 116.66666666665697,
      "v": 71
    },
    {
      "midi": 69,
      "hit": false,
      "t": 174766.66666666607,
      "d": 133.33333333331393,
      "v": 72
    },
    {
      "midi": 77,
      "hit": false,
      "t": 174766.66666666607,
      "d": 133.33333333331393,
      "v": 71
    },
    {
      "midi": 72,
      "hit": false,
      "t": 175066.66666666605,
      "d": 100,
      "v": 71
    },
    {
      "midi": 77,
      "hit": false,
      "t": 175066.66666666605,
      "d": 100,
      "v": 71
    },
    {
      "midi": 69,
      "hit": false,
      "t": 175066.66666666605,
      "d": 116.66666666665697,
      "v": 71
    },
    {
      "midi": 72,
      "hit": false,
      "t": 175366.66666666605,
      "d": 100,
      "v": 71
    },
    {
      "midi": 69,
      "hit": false,
      "t": 175366.66666666605,
      "d": 116.66666666665697,
      "v": 71
    },
    {
      "midi": 77,
      "hit": false,
      "t": 175366.66666666605,
      "d": 116.66666666665697,
      "v": 71
    },
    {
      "midi": 65,
      "hit": false,
      "t": 175649.99999999936,
      "d": 150,
      "v": 71
    },
    {
      "midi": 69,
      "hit": false,
      "t": 175649.99999999936,
      "d": 166.66666666665697,
      "v": 72
    },
    {
      "midi": 62,
      "hit": false,
      "t": 175666.66666666602,
      "d": 150,
      "v": 71
    },
    {
      "midi": 65,
      "hit": false,
      "t": 175949.99999999936,
      "d": 116.66666666665697,
      "v": 71
    },
    {
      "midi": 69,
      "hit": false,
      "t": 175949.99999999936,
      "d": 133.33333333331393,
      "v": 71
    },
    {
      "midi": 62,
      "hit": false,
      "t": 175949.99999999936,
      "d": 149.9999999999709,
      "v": 71
    },
    {
      "midi": 65,
      "hit": false,
      "t": 176249.99999999933,
      "d": 116.66666666665697,
      "v": 71
    },
    {
      "midi": 69,
      "hit": false,
      "t": 176249.99999999933,
      "d": 133.33333333331393,
      "v": 71
    },
    {
      "midi": 62,
      "hit": false,
      "t": 176249.99999999933,
      "d": 149.9999999999709,
      "v": 71
    },
    {
      "midi": 65,
      "hit": false,
      "t": 176549.9999999993,
      "d": 116.66666666665697,
      "v": 71
    },
    {
      "midi": 62,
      "hit": false,
      "t": 176549.9999999993,
      "d": 133.33333333331393,
      "v": 72
    },
    {
      "midi": 69,
      "hit": false,
      "t": 176549.9999999993,
      "d": 133.33333333331393,
      "v": 71
    },
    {
      "midi": 69,
      "hit": false,
      "t": 176849.99999999927,
      "d": 100,
      "v": 71
    },
    {
      "midi": 65,
      "hit": false,
      "t": 176849.99999999927,
      "d": 116.66666666665697,
      "v": 71
    },
    {
      "midi": 62,
      "hit": false,
      "t": 176849.99999999927,
      "d": 133.33333333331393,
      "v": 71
    },
    {
      "midi": 65,
      "hit": false,
      "t": 177149.99999999924,
      "d": 100,
      "v": 71
    },
    {
      "midi": 62,
      "hit": false,
      "t": 177149.99999999924,
      "d": 116.66666666665697,
      "v": 71
    },
    {
      "midi": 69,
      "hit": false,
      "t": 177149.99999999924,
      "d": 116.66666666665697,
      "v": 71
    },
    {
      "midi": 74,
      "hit": false,
      "t": 177449.99999999924,
      "d": 133.33333333334303,
      "v": 71
    },
    {
      "midi": 79,
      "hit": false,
      "t": 177449.99999999924,
      "d": 150,
      "v": 72
    },
    {
      "midi": 70,
      "hit": false,
      "t": 177449.99999999924,
      "d": 166.66666666665697,
      "v": 71
    },
    {
      "midi": 79,
      "hit": false,
      "t": 177733.33333333256,
      "d": 133.33333333331393,
      "v": 71
    },
    {
      "midi": 70,
      "hit": false,
      "t": 177733.33333333256,
      "d": 149.9999999999709,
      "v": 71
    },
    {
      "midi": 74,
      "hit": false,
      "t": 177749.9999999992,
      "d": 116.66666666665697,
      "v": 71
    },
    {
      "midi": 79,
      "hit": false,
      "t": 178033.33333333253,
      "d": 150,
      "v": 71
    },
    {
      "midi": 74,
      "hit": false,
      "t": 178049.99999999919,
      "d": 100,
      "v": 71
    },
    {
      "midi": 70,
      "hit": false,
      "t": 178049.99999999919,
      "d": 133.33333333334303,
      "v": 71
    },
    {
      "midi": 74,
      "hit": false,
      "t": 178333.33333333253,
      "d": 133.33333333331393,
      "v": 71
    },
    {
      "midi": 79,
      "hit": false,
      "t": 178333.33333333253,
      "d": 133.33333333331393,
      "v": 71
    },
    {
      "midi": 70,
      "hit": false,
      "t": 178349.99999999919,
      "d": 116.66666666665697,
      "v": 72
    },
    {
      "midi": 74,
      "hit": false,
      "t": 178633.3333333325,
      "d": 116.66666666665697,
      "v": 71
    },
    {
      "midi": 79,
      "hit": false,
      "t": 178633.3333333325,
      "d": 116.66666666665697,
      "v": 71
    },
    {
      "midi": 70,
      "hit": false,
      "t": 178633.3333333325,
      "d": 133.33333333331393,
      "v": 71
    },
    {
      "midi": 74,
      "hit": false,
      "t": 178933.33333333247,
      "d": 100,
      "v": 71
    },
    {
      "midi": 70,
      "hit": false,
      "t": 178933.33333333247,
      "d": 116.66666666665697,
      "v": 71
    },
    {
      "midi": 79,
      "hit": false,
      "t": 178933.33333333247,
      "d": 116.66666666665697,
      "v": 71
    },
    {
      "midi": 74,
      "hit": false,
      "t": 179233.33333333247,
      "d": 100,
      "v": 71
    },
    {
      "midi": 70,
      "hit": false,
      "t": 179233.33333333247,
      "d": 116.66666666665697,
      "v": 71
    },
    {
      "midi": 79,
      "hit": false,
      "t": 179233.33333333247,
      "d": 133.33333333331393,
      "v": 71
    },
    {
      "midi": 74,
      "hit": false,
      "t": 179533.33333333244,
      "d": 100,
      "v": 71
    },
    {
      "midi": 79,
      "hit": false,
      "t": 179533.33333333244,
      "d": 100,
      "v": 72
    },
    {
      "midi": 70,
      "hit": false,
      "t": 179533.33333333244,
      "d": 116.66666666665697,
      "v": 71
    },
    {
      "midi": 74,
      "hit": false,
      "t": 179833.33333333244,
      "d": 83.33333333334303,
      "v": 71
    },
    {
      "midi": 70,
      "hit": false,
      "t": 179833.33333333244,
      "d": 100,
      "v": 71
    },
    {
      "midi": 79,
      "hit": false,
      "t": 179833.33333333244,
      "d": 100,
      "v": 71
    },
    {
      "midi": 74,
      "hit": false,
      "t": 180133.33333333244,
      "d": 100,
      "v": 71
    },
    {
      "midi": 79,
      "hit": false,
      "t": 180133.33333333244,
      "d": 100,
      "v": 71
    },
    {
      "midi": 70,
      "hit": false,
      "t": 180133.33333333244,
      "d": 116.66666666665697,
      "v": 71
    },
    {
      "midi": 79,
      "hit": false,
      "t": 180416.66666666575,
      "d": 116.66666666665697,
      "v": 71
    },
    {
      "midi": 70,
      "hit": false,
      "t": 180416.66666666575,
      "d": 133.33333333331393,
      "v": 71
    },
    {
      "midi": 74,
      "hit": false,
      "t": 180433.3333333324,
      "d": 83.33333333334303,
      "v": 71
    },
    {
      "midi": 74,
      "hit": false,
      "t": 180716.66666666573,
      "d": 100,
      "v": 71
    },
    {
      "midi": 79,
      "hit": false,
      "t": 180716.66666666573,
      "d": 100,
      "v": 71
    },
    {
      "midi": 70,
      "hit": false,
      "t": 180716.66666666573,
      "d": 116.66666666665697,
      "v": 71
    },
    {
      "midi": 64,
      "hit": false,
      "t": 181033.33333333238,
      "d": 133.33333333334303,
      "v": 71
    },
    {
      "midi": 67,
      "hit": false,
      "t": 181033.33333333238,
      "d": 150,
      "v": 72
    },
    {
      "midi": 60,
      "hit": false,
      "t": 181033.33333333238,
      "d": 166.66666666665697,
      "v": 71
    },
    {
      "midi": 64,
      "hit": false,
      "t": 181316.6666666657,
      "d": 116.66666666665697,
      "v": 71
    },
    {
      "midi": 60,
      "hit": false,
      "t": 181316.6666666657,
      "d": 133.33333333331393,
      "v": 71
    },
    {
      "midi": 67,
      "hit": false,
      "t": 181316.6666666657,
      "d": 133.33333333331393,
      "v": 71
    },
    {
      "midi": 64,
      "hit": false,
      "t": 181616.66666666567,
      "d": 116.66666666665697,
      "v": 71
    },
    {
      "midi": 67,
      "hit": false,
      "t": 181616.66666666567,
      "d": 133.33333333331393,
      "v": 71
    },
    {
      "midi": 60,
      "hit": false,
      "t": 181616.66666666567,
      "d": 149.9999999999709,
      "v": 71
    },
    {
      "midi": 64,
      "hit": false,
      "t": 181916.66666666564,
      "d": 116.66666666665697,
      "v": 71
    },
    {
      "midi": 60,
      "hit": false,
      "t": 181916.66666666564,
      "d": 133.33333333331393,
      "v": 72
    },
    {
      "midi": 67,
      "hit": false,
      "t": 181916.66666666564,
      "d": 133.33333333331393,
      "v": 71
    },
    {
      "midi": 67,
      "hit": false,
      "t": 182216.6666666656,
      "d": 100,
      "v": 71
    },
    {
      "midi": 64,
      "hit": false,
      "t": 182216.6666666656,
      "d": 116.66666666665697,
      "v": 71
    },
    {
      "midi": 60,
      "hit": false,
      "t": 182216.6666666656,
      "d": 133.33333333331393,
      "v": 71
    },
    {
      "midi": 64,
      "hit": false,
      "t": 182516.66666666558,
      "d": 100,
      "v": 71
    },
    {
      "midi": 60,
      "hit": false,
      "t": 182516.66666666558,
      "d": 116.66666666665697,
      "v": 71
    },
    {
      "midi": 67,
      "hit": false,
      "t": 182516.66666666558,
      "d": 116.66666666665697,
      "v": 71
    },
    {
      "midi": 64,
      "hit": false,
      "t": 182816.66666666558,
      "d": 83.33333333334303,
      "v": 71
    },
    {
      "midi": 60,
      "hit": false,
      "t": 182816.66666666558,
      "d": 116.66666666668607,
      "v": 71
    },
    {
      "midi": 67,
      "hit": false,
      "t": 182816.66666666558,
      "d": 116.66666666668607,
      "v": 71
    },
    {
      "midi": 64,
      "hit": false,
      "t": 183099.99999999892,
      "d": 116.66666666665697,
      "v": 71
    },
    {
      "midi": 67,
      "hit": false,
      "t": 183099.99999999892,
      "d": 116.66666666665697,
      "v": 72
    },
    {
      "midi": 60,
      "hit": false,
      "t": 183099.99999999892,
      "d": 133.33333333331393,
      "v": 71
    },
    {
      "midi": 64,
      "hit": false,
      "t": 183399.9999999989,
      "d": 100,
      "v": 71
    },
    {
      "midi": 60,
      "hit": false,
      "t": 183399.9999999989,
      "d": 116.66666666665697,
      "v": 71
    },
    {
      "midi": 67,
      "hit": false,
      "t": 183399.9999999989,
      "d": 116.66666666665697,
      "v": 71
    },
    {
      "midi": 64,
      "hit": false,
      "t": 183699.9999999989,
      "d": 100,
      "v": 71
    },
    {
      "midi": 67,
      "hit": false,
      "t": 183699.9999999989,
      "d": 116.66666666665697,
      "v": 71
    },
    {
      "midi": 60,
      "hit": false,
      "t": 183699.9999999989,
      "d": 133.33333333331393,
      "v": 71
    },
    {
      "midi": 64,
      "hit": false,
      "t": 183999.99999999886,
      "d": 100,
      "v": 71
    },
    {
      "midi": 67,
      "hit": false,
      "t": 183999.99999999886,
      "d": 116.66666666665697,
      "v": 71
    },
    {
      "midi": 60,
      "hit": false,
      "t": 183999.99999999886,
      "d": 133.33333333331393,
      "v": 71
    },
    {
      "midi": 64,
      "hit": false,
      "t": 184299.99999999884,
      "d": 100,
      "v": 71
    },
    {
      "midi": 67,
      "hit": false,
      "t": 184299.99999999884,
      "d": 100,
      "v": 71
    },
    {
      "midi": 60,
      "hit": false,
      "t": 184299.99999999884,
      "d": 116.66666666665697,
      "v": 71
    },
    {
      "midi": 72,
      "hit": false,
      "t": 184599.99999999884,
      "d": 133.33333333334303,
      "v": 71
    },
    {
      "midi": 69,
      "hit": false,
      "t": 184599.99999999884,
      "d": 166.66666666668607,
      "v": 71
    },
    {
      "midi": 77,
      "hit": false,
      "t": 184599.99999999884,
      "d": 166.66666666668607,
      "v": 72
    },
    {
      "midi": 72,
      "hit": false,
      "t": 184899.99999999886,
      "d": 116.66666666665697,
      "v": 71
    },
    {
      "midi": 77,
      "hit": false,
      "t": 184899.99999999886,
      "d": 116.66666666665697,
      "v": 71
    },
    {
      "midi": 69,
      "hit": false,
      "t": 184899.99999999886,
      "d": 133.33333333331393,
      "v": 71
    },
    {
      "midi": 72,
      "hit": false,
      "t": 185199.99999999884,
      "d": 116.66666666665697,
      "v": 71
    },
    {
      "midi": 77,
      "hit": false,
      "t": 185199.99999999884,
      "d": 133.33333333331393,
      "v": 71
    },
    {
      "midi": 69,
      "hit": false,
      "t": 185199.99999999884,
      "d": 149.9999999999709,
      "v": 71
    },
    {
      "midi": 69,
      "hit": false,
      "t": 185499.9999999988,
      "d": 116.66666666665697,
      "v": 72
    },
    {
      "midi": 72,
      "hit": false,
      "t": 185499.9999999988,
      "d": 116.66666666665697,
      "v": 71
    },
    {
      "midi": 77,
      "hit": false,
      "t": 185499.9999999988,
      "d": 116.66666666665697,
      "v": 71
    },
    {
      "midi": 77,
      "hit": false,
      "t": 185783.33333333212,
      "d": 116.66666666665697,
      "v": 71
    },
    {
      "midi": 69,
      "hit": false,
      "t": 185799.99999999878,
      "d": 116.66666666665697,
      "v": 71
    },
    {
      "midi": 72,
      "hit": false,
      "t": 185799.99999999878,
      "d": 116.66666666665697,
      "v": 71
    },
    {
      "midi": 72,
      "hit": false,
      "t": 186083.3333333321,
      "d": 100,
      "v": 71
    },
    {
      "midi": 69,
      "hit": false,
      "t": 186083.3333333321,
      "d": 133.33333333334303,
      "v": 71
    },
    {
      "midi": 77,
      "hit": false,
      "t": 186083.3333333321,
      "d": 133.33333333334303,
      "v": 71
    },
    {
      "midi": 69,
      "hit": false,
      "t": 186383.3333333321,
      "d": 133.33333333334303,
      "v": 71
    },
    {
      "midi": 77,
      "hit": false,
      "t": 186383.3333333321,
      "d": 133.33333333334303,
      "v": 71
    },
    {
      "midi": 72,
      "hit": false,
      "t": 186399.99999999875,
      "d": 83.33333333334303,
      "v": 71
    },
    {
      "midi": 53,
      "hit": false,
      "t": 188199.99999999878,
      "d": 1583.333333333343,
      "v": 78
    },
    {
      "midi": 57,
      "hit": false,
      "t": 188549.99999999878,
      "d": 616.666666666657,
      "v": 74
    },
    {
      "midi": 60,
      "hit": false,
      "t": 188816.66666666543,
      "d": 350,
      "v": 74
    },
    {
      "midi": 65,
      "hit": false,
      "t": 189116.66666666543,
      "d": 316.66666666668607,
      "v": 78
    },
    {
      "midi": 60,
      "hit": false,
      "t": 189399.99999999878,
      "d": 600,
      "v": 74
    },
    {
      "midi": 57,
      "hit": false,
      "t": 189683.33333333212,
      "d": 350,
      "v": 74
    },
    {
      "midi": 53,
      "hit": false,
      "t": 189983.33333333212,
      "d": 1333.333333333343,
      "v": 80
    },
    {
      "midi": 57,
      "hit": false,
      "t": 190316.66666666546,
      "d": 666.666666666657,
      "v": 75
    },
    {
      "midi": 60,
      "hit": false,
      "t": 190583.33333333212,
      "d": 400,
      "v": 76
    },
    {
      "midi": 65,
      "hit": false,
      "t": 190899.99999999878,
      "d": 383.33333333334303,
      "v": 75
    },
    {
      "midi": 60,
      "hit": false,
      "t": 191183.33333333212,
      "d": 600,
      "v": 75
    },
    {
      "midi": 57,
      "hit": false,
      "t": 191466.66666666546,
      "d": 333.33333333331393,
      "v": 76
    },
    {
      "midi": 53,
      "hit": false,
      "t": 191766.66666666546,
      "d": 1399.999999999971,
      "v": 72
    },
    {
      "midi": 57,
      "hit": false,
      "t": 192083.33333333212,
      "d": 716.666666666657,
      "v": 73
    },
    {
      "midi": 60,
      "hit": false,
      "t": 192383.33333333212,
      "d": 350,
      "v": 68
    },
    {
      "midi": 65,
      "hit": false,
      "t": 192649.99999999878,
      "d": 433.33333333331393,
      "v": 77
    },
    {
      "midi": 60,
      "hit": false,
      "t": 192966.66666666543,
      "d": 566.666666666657,
      "v": 76
    },
    {
      "midi": 57,
      "hit": false,
      "t": 193216.66666666543,
      "d": 350,
      "v": 76
    },
    {
      "midi": 53,
      "hit": false,
      "t": 193533.3333333321,
      "d": 1250,
      "v": 73
    },
    {
      "midi": 57,
      "hit": false,
      "t": 193833.3333333321,
      "d": 683.3333333333139,
      "v": 73
    },
    {
      "midi": 60,
      "hit": false,
      "t": 194149.99999999875,
      "d": 350,
      "v": 73
    },
    {
      "midi": 65,
      "hit": false,
      "t": 194449.99999999875,
      "d": 350,
      "v": 80
    },
    {
      "midi": 60,
      "hit": false,
      "t": 194749.99999999875,
      "d": 283.33333333334303,
      "v": 74
    },
    {
      "midi": 57,
      "hit": false,
      "t": 194983.3333333321,
      "d": 200,
      "v": 76
    },
    {
      "midi": 55,
      "hit": false,
      "t": 195349.99999999875,
      "d": 1350,
      "v": 74
    },
    {
      "midi": 43,
      "hit": false,
      "t": 195349.99999999875,
      "d": 1450,
      "v": 72
    },
    {
      "midi": 58,
      "hit": false,
      "t": 195666.6666666654,
      "d": 666.6666666666861,
      "v": 71
    },
    {
      "midi": 62,
      "hit": false,
      "t": 195949.99999999875,
      "d": 350,
      "v": 72
    },
    {
      "midi": 67,
      "hit": false,
      "t": 196249.99999999875,
      "d": 300,
      "v": 78
    },
    {
      "midi": 62,
      "hit": false,
      "t": 196533.3333333321,
      "d": 850.0000000000291,
      "v": 73
    },
    {
      "midi": 58,
      "hit": false,
      "t": 196833.3333333321,
      "d": 466.66666666668607,
      "v": 77
    },
    {
      "midi": 43,
      "hit": false,
      "t": 197016.66666666543,
      "d": 1799.999999999971,
      "v": 73
    },
    {
      "midi": 55,
      "hit": false,
      "t": 197166.66666666543,
      "d": 1266.666666666657,
      "v": 76
    },
    {
      "midi": 58,
      "hit": false,
      "t": 197449.99999999878,
      "d": 649.9999999999709,
      "v": 76
    },
    {
      "midi": 62,
      "hit": false,
      "t": 197716.66666666543,
      "d": 366.66666666665697,
      "v": 73
    },
    {
      "midi": 67,
      "hit": false,
      "t": 198033.3333333321,
      "d": 266.66666666665697,
      "v": 79
    },
    {
      "midi": 62,
      "hit": false,
      "t": 198349.99999999875,
      "d": 283.33333333334303,
      "v": 74
    },
    {
      "midi": 58,
      "hit": false,
      "t": 198616.66666666543,
      "d": 133.33333333331393,
      "v": 78
    },
    {
      "midi": 53,
      "hit": false,
      "t": 198933.33333333206,
      "d": 1350,
      "v": 74
    },
    {
      "midi": 41,
      "hit": false,
      "t": 198933.33333333206,
      "d": 1450,
      "v": 72
    },
    {
      "midi": 57,
      "hit": false,
      "t": 199233.33333333206,
      "d": 683.333333333343,
      "v": 71
    },
    {
      "midi": 60,
      "hit": false,
      "t": 199516.6666666654,
      "d": 366.66666666665697,
      "v": 72
    },
    {
      "midi": 65,
      "hit": false,
      "t": 199833.33333333206,
      "d": 300,
      "v": 78
    },
    {
      "midi": 60,
      "hit": false,
      "t": 200116.6666666654,
      "d": 850,
      "v": 73
    },
    {
      "midi": 57,
      "hit": false,
      "t": 200416.6666666654,
      "d": 450,
      "v": 77
    },
    {
      "midi": 41,
      "hit": false,
      "t": 200599.99999999875,
      "d": 1799.9999999999418,
      "v": 73
    },
    {
      "midi": 53,
      "hit": false,
      "t": 200749.99999999875,
      "d": 1249.999999999971,
      "v": 76
    },
    {
      "midi": 57,
      "hit": false,
      "t": 201033.33333333206,
      "d": 649.9999999999709,
      "v": 76
    },
    {
      "midi": 60,
      "hit": false,
      "t": 201299.99999999872,
      "d": 366.66666666665697,
      "v": 73
    },
    {
      "midi": 65,
      "hit": false,
      "t": 201599.99999999872,
      "d": 266.66666666665697,
      "v": 79
    },
    {
      "midi": 60,
      "hit": false,
      "t": 201916.66666666538,
      "d": 300,
      "v": 74
    },
    {
      "midi": 57,
      "hit": false,
      "t": 202199.99999999872,
      "d": 133.33333333331393,
      "v": 78
    },
    {
      "midi": 41,
      "hit": false,
      "t": 202483.33333333203,
      "d": 883.3333333333139,
      "v": 73
    },
    {
      "midi": 53,
      "hit": false,
      "t": 202483.33333333203,
      "d": 1316.6666666666279,
      "v": 75
    },
    {
      "midi": 57,
      "hit": false,
      "t": 202799.9999999987,
      "d": 683.3333333333139,
      "v": 74
    },
    {
      "midi": 60,
      "hit": false,
      "t": 203099.9999999987,
      "d": 283.33333333331393,
      "v": 73
    },
    {
      "midi": 65,
      "hit": false,
      "t": 203399.99999999866,
      "d": 383.33333333334303,
      "v": 79
    },
    {
      "midi": 60,
      "hit": false,
      "t": 203683.333333332,
      "d": 500,
      "v": 73
    },
    {
      "midi": 41,
      "hit": false,
      "t": 203833.333333332,
      "d": 300,
      "v": 76
    },
    {
      "midi": 53,
      "hit": false,
      "t": 203983.333333332,
      "d": 183.33333333334303,
      "v": 79
    },
    {
      "midi": 38,
      "hit": false,
      "t": 204283.333333332,
      "d": 866.666666666657,
      "v": 73
    },
    {
      "midi": 57,
      "hit": false,
      "t": 204283.333333332,
      "d": 1299.999999999971,
      "v": 75
    },
    {
      "midi": 62,
      "hit": false,
      "t": 204583.333333332,
      "d": 683.3333333333139,
      "v": 74
    },
    {
      "midi": 65,
      "hit": false,
      "t": 204883.333333332,
      "d": 283.33333333331393,
      "v": 73
    },
    {
      "midi": 69,
      "hit": false,
      "t": 205183.33333333198,
      "d": 383.33333333334303,
      "v": 79
    },
    {
      "midi": 65,
      "hit": false,
      "t": 205483.33333333198,
      "d": 483.33333333334303,
      "v": 73
    },
    {
      "midi": 38,
      "hit": false,
      "t": 205633.33333333198,
      "d": 283.33333333334303,
      "v": 76
    },
    {
      "midi": 57,
      "hit": false,
      "t": 205766.66666666532,
      "d": 183.33333333334303,
      "v": 79
    },
    {
      "midi": 39,
      "hit": false,
      "t": 206066.66666666532,
      "d": 1733.333333333314,
      "v": 72
    },
    {
      "midi": 51,
      "hit": false,
      "t": 206083.33333333198,
      "d": 1266.666666666657,
      "v": 72
    },
    {
      "midi": 55,
      "hit": false,
      "t": 206383.33333333198,
      "d": 683.333333333343,
      "v": 76
    },
    {
      "midi": 58,
      "hit": false,
      "t": 206666.66666666532,
      "d": 400,
      "v": 73
    },
    {
      "midi": 63,
      "hit": false,
      "t": 206983.33333333198,
      "d": 250,
      "v": 78
    },
    {
      "midi": 58,
      "hit": false,
      "t": 207283.33333333198,
      "d": 416.66666666665697,
      "v": 74
    },
    {
      "midi": 55,
      "hit": false,
      "t": 207566.6666666653,
      "d": 183.33333333334303,
      "v": 77
    },
    {
      "midi": 43,
      "hit": false,
      "t": 207849.99999999863,
      "d": 883.3333333333139,
      "v": 73
    },
    {
      "midi": 55,
      "hit": false,
      "t": 207866.6666666653,
      "d": 1299.999999999971,
      "v": 75
    },
    {
      "midi": 58,
      "hit": false,
      "t": 208166.6666666653,
      "d": 683.3333333333139,
      "v": 74
    },
    {
      "midi": 62,
      "hit": false,
      "t": 208466.6666666653,
      "d": 283.33333333331393,
      "v": 73
    },
    {
      "midi": 67,
      "hit": false,
      "t": 208766.66666666526,
      "d": 383.33333333334303,
      "v": 79
    },
    {
      "midi": 62,
      "hit": false,
      "t": 209049.9999999986,
      "d": 500,
      "v": 73
    },
    {
      "midi": 43,
      "hit": false,
      "t": 209199.9999999986,
      "d": 300,
      "v": 76
    },
    {
      "midi": 55,
      "hit": false,
      "t": 209349.9999999986,
      "d": 183.33333333334303,
      "v": 79
    },
    {
      "midi": 55,
      "hit": false,
      "t": 209666.66666666526,
      "d": 1350,
      "v": 74
    },
    {
      "midi": 36,
      "hit": false,
      "t": 209666.66666666526,
      "d": 1450,
      "v": 72
    },
    {
      "midi": 60,
      "hit": false,
      "t": 209966.66666666526,
      "d": 683.333333333343,
      "v": 71
    },
    {
      "midi": 64,
      "hit": false,
      "t": 210249.9999999986,
      "d": 366.66666666665697,
      "v": 72
    },
    {
      "midi": 67,
      "hit": false,
      "t": 210549.9999999986,
      "d": 316.66666666665697,
      "v": 78
    },
    {
      "midi": 64,
      "hit": false,
      "t": 210849.9999999986,
      "d": 849.9999999999709,
      "v": 73
    },
    {
      "midi": 60,
      "hit": false,
      "t": 211149.9999999986,
      "d": 449.9999999999709,
      "v": 77
    },
    {
      "midi": 36,
      "hit": false,
      "t": 211316.66666666526,
      "d": 1799.9999999999418,
      "v": 73
    },
    {
      "midi": 55,
      "hit": false,
      "t": 211466.66666666526,
      "d": 1266.6666666666279,
      "v": 76
    },
    {
      "midi": 60,
      "hit": false,
      "t": 211766.66666666523,
      "d": 649.9999999999709,
      "v": 76
    },
    {
      "midi": 64,
      "hit": false,
      "t": 212033.3333333319,
      "d": 366.66666666665697,
      "v": 73
    },
    {
      "midi": 67,
      "hit": false,
      "t": 212333.3333333319,
      "d": 266.66666666665697,
      "v": 79
    },
    {
      "midi": 64,
      "hit": false,
      "t": 212649.99999999854,
      "d": 300,
      "v": 74
    },
    {
      "midi": 60,
      "hit": false,
      "t": 212933.3333333319,
      "d": 133.33333333331393,
      "v": 78
    },
    {
      "midi": 53,
      "hit": false,
      "t": 213216.6666666652,
      "d": 1383.333333333343,
      "v": 76
    },
    {
      "midi": 57,
      "hit": false,
      "t": 213533.3333333319,
      "d": 700,
      "v": 72
    },
    {
      "midi": 60,
      "hit": false,
      "t": 213833.3333333319,
      "d": 366.66666666665697,
      "v": 66
    },
    {
      "midi": 65,
      "hit": false,
      "t": 214133.3333333319,
      "d": 416.66666666665697,
      "v": 75
    },
    {
      "midi": 60,
      "hit": false,
      "t": 214433.3333333319,
      "d": 616.6666666666279,
      "v": 72
    },
    {
      "midi": 57,
      "hit": false,
      "t": 214716.6666666652,
      "d": 316.66666666665697,
      "v": 75
    },
    {
      "midi": 53,
      "hit": false,
      "t": 215016.6666666652,
      "d": 1083.3333333332848,
      "v": 73
    },
    {
      "midi": 41,
      "hit": false,
      "t": 215016.6666666652,
      "d": 1516.6666666665988,
      "v": 71
    },
    {
      "midi": 57,
      "hit": false,
      "t": 215366.66666666517,
      "d": 633.3333333333139,
      "v": 72
    },
    {
      "midi": 60,
      "hit": false,
      "t": 215633.33333333183,
      "d": 366.66666666665697,
      "v": 72
    },
    {
      "midi": 65,
      "hit": false,
      "t": 215933.33333333183,
      "d": 349.9999999999709,
      "v": 77
    },
    {
      "midi": 60,
      "hit": false,
      "t": 216216.66666666514,
      "d": 300,
      "v": 76
    },
    {
      "midi": 57,
      "hit": false,
      "t": 216533.3333333318,
      "d": 166.66666666665697,
      "v": 77
    },
    {
      "midi": 72,
      "hit": false,
      "t": 216799.99999999846,
      "d": 133.33333333334303,
      "v": 71
    },
    {
      "midi": 77,
      "hit": false,
      "t": 216799.99999999846,
      "d": 150,
      "v": 72
    },
    {
      "midi": 69,
      "hit": false,
      "t": 216799.99999999846,
      "d": 166.66666666665697,
      "v": 71
    },
    {
      "midi": 72,
      "hit": false,
      "t": 217099.99999999846,
      "d": 116.66666666665697,
      "v": 71
    },
    {
      "midi": 77,
      "hit": false,
      "t": 217099.99999999846,
      "d": 116.66666666665697,
      "v": 71
    },
    {
      "midi": 69,
      "hit": false,
      "t": 217099.99999999846,
      "d": 133.33333333331393,
      "v": 71
    },
    {
      "midi": 72,
      "hit": false,
      "t": 217399.99999999843,
      "d": 116.66666666665697,
      "v": 71
    },
    {
      "midi": 69,
      "hit": false,
      "t": 217399.99999999843,
      "d": 133.33333333331393,
      "v": 71
    },
    {
      "midi": 77,
      "hit": false,
      "t": 217399.99999999843,
      "d": 133.33333333331393,
      "v": 71
    },
    {
      "midi": 72,
      "hit": false,
      "t": 217683.33333333174,
      "d": 116.66666666665697,
      "v": 71
    },
    {
      "midi": 69,
      "hit": false,
      "t": 217683.33333333174,
      "d": 133.33333333331393,
      "v": 72
    },
    {
      "midi": 77,
      "hit": false,
      "t": 217683.33333333174,
      "d": 133.33333333331393,
      "v": 71
    },
    {
      "midi": 72,
      "hit": false,
      "t": 217983.3333333317,
      "d": 116.66666666665697,
      "v": 71
    },
    {
      "midi": 77,
      "hit": false,
      "t": 217983.3333333317,
      "d": 116.66666666665697,
      "v": 71
    },
    {
      "midi": 69,
      "hit": false,
      "t": 217983.3333333317,
      "d": 133.33333333331393,
      "v": 71
    },
    {
      "midi": 72,
      "hit": false,
      "t": 218283.33333333168,
      "d": 100,
      "v": 71
    },
    {
      "midi": 69,
      "hit": false,
      "t": 218283.33333333168,
      "d": 133.33333333334303,
      "v": 71
    },
    {
      "midi": 77,
      "hit": false,
      "t": 218283.33333333168,
      "d": 133.33333333334303,
      "v": 71
    },
    {
      "midi": 65,
      "hit": false,
      "t": 218583.33333333168,
      "d": 133.33333333334303,
      "v": 71
    },
    {
      "midi": 62,
      "hit": false,
      "t": 218583.33333333168,
      "d": 166.66666666668607,
      "v": 71
    },
    {
      "midi": 69,
      "hit": false,
      "t": 218583.33333333168,
      "d": 166.66666666668607,
      "v": 72
    },
    {
      "midi": 65,
      "hit": false,
      "t": 218883.3333333317,
      "d": 116.66666666665697,
      "v": 71
    },
    {
      "midi": 69,
      "hit": false,
      "t": 218883.3333333317,
      "d": 116.66666666665697,
      "v": 71
    },
    {
      "midi": 62,
      "hit": false,
      "t": 218883.3333333317,
      "d": 133.33333333331393,
      "v": 71
    },
    {
      "midi": 65,
      "hit": false,
      "t": 219183.33333333168,
      "d": 116.66666666665697,
      "v": 71
    },
    {
      "midi": 69,
      "hit": false,
      "t": 219183.33333333168,
      "d": 133.33333333331393,
      "v": 71
    },
    {
      "midi": 62,
      "hit": false,
      "t": 219183.33333333168,
      "d": 149.9999999999709,
      "v": 71
    },
    {
      "midi": 62,
      "hit": false,
      "t": 219483.33333333166,
      "d": 116.66666666665697,
      "v": 72
    },
    {
      "midi": 65,
      "hit": false,
      "t": 219483.33333333166,
      "d": 116.66666666665697,
      "v": 71
    },
    {
      "midi": 69,
      "hit": false,
      "t": 219483.33333333166,
      "d": 133.33333333331393,
      "v": 71
    },
    {
      "midi": 69,
      "hit": false,
      "t": 219783.33333333163,
      "d": 100,
      "v": 71
    },
    {
      "midi": 65,
      "hit": false,
      "t": 219783.33333333163,
      "d": 116.66666666665697,
      "v": 71
    },
    {
      "midi": 62,
      "hit": false,
      "t": 219783.33333333163,
      "d": 133.33333333331393,
      "v": 71
    },
    {
      "midi": 65,
      "hit": false,
      "t": 220083.3333333316,
      "d": 100,
      "v": 71
    },
    {
      "midi": 62,
      "hit": false,
      "t": 220083.3333333316,
      "d": 116.66666666665697,
      "v": 71
    },
    {
      "midi": 69,
      "hit": false,
      "t": 220083.3333333316,
      "d": 116.66666666665697,
      "v": 71
    },
    {
      "midi": 74,
      "hit": false,
      "t": 220383.3333333316,
      "d": 133.33333333334303,
      "v": 71
    },
    {
      "midi": 79,
      "hit": false,
      "t": 220383.3333333316,
      "d": 150,
      "v": 72
    },
    {
      "midi": 70,
      "hit": false,
      "t": 220383.3333333316,
      "d": 166.66666666665697,
      "v": 71
    },
    {
      "midi": 74,
      "hit": false,
      "t": 220666.6666666649,
      "d": 116.66666666665697,
      "v": 71
    },
    {
      "midi": 79,
      "hit": false,
      "t": 220666.6666666649,
      "d": 133.33333333331393,
      "v": 71
    },
    {
      "midi": 70,
      "hit": false,
      "t": 220666.6666666649,
      "d": 149.9999999999709,
      "v": 71
    },
    {
      "midi": 74,
      "hit": false,
      "t": 220966.66666666488,
      "d": 116.66666666665697,
      "v": 71
    },
    {
      "midi": 70,
      "hit": false,
      "t": 220966.66666666488,
      "d": 150,
      "v": 71
    },
    {
      "midi": 79,
      "hit": false,
      "t": 220966.66666666488,
      "d": 150,
      "v": 71
    },
    {
      "midi": 74,
      "hit": false,
      "t": 221266.66666666488,
      "d": 116.66666666665697,
      "v": 71
    },
    {
      "midi": 70,
      "hit": false,
      "t": 221266.66666666488,
      "d": 133.33333333331393,
      "v": 72
    },
    {
      "midi": 79,
      "hit": false,
      "t": 221266.66666666488,
      "d": 133.33333333331393,
      "v": 71
    },
    {
      "midi": 79,
      "hit": false,
      "t": 221566.66666666485,
      "d": 100,
      "v": 71
    },
    {
      "midi": 74,
      "hit": false,
      "t": 221566.66666666485,
      "d": 116.66666666665697,
      "v": 71
    },
    {
      "midi": 70,
      "hit": false,
      "t": 221566.66666666485,
      "d": 133.33333333331393,
      "v": 71
    },
    {
      "midi": 74,
      "hit": false,
      "t": 221866.66666666482,
      "d": 100,
      "v": 71
    },
    {
      "midi": 70,
      "hit": false,
      "t": 221866.66666666482,
      "d": 116.66666666665697,
      "v": 71
    },
    {
      "midi": 79,
      "hit": false,
      "t": 221866.66666666482,
      "d": 116.66666666665697,
      "v": 71
    },
    {
      "midi": 74,
      "hit": false,
      "t": 222166.66666666482,
      "d": 83.33333333334303,
      "v": 71
    },
    {
      "midi": 70,
      "hit": false,
      "t": 222166.66666666482,
      "d": 116.66666666668607,
      "v": 71
    },
    {
      "midi": 79,
      "hit": false,
      "t": 222166.66666666482,
      "d": 116.66666666668607,
      "v": 71
    },
    {
      "midi": 74,
      "hit": false,
      "t": 222466.66666666485,
      "d": 100,
      "v": 71
    },
    {
      "midi": 79,
      "hit": false,
      "t": 222466.66666666485,
      "d": 100,
      "v": 72
    },
    {
      "midi": 70,
      "hit": false,
      "t": 222466.66666666485,
      "d": 116.66666666665697,
      "v": 71
    },
    {
      "midi": 74,
      "hit": false,
      "t": 222749.99999999817,
      "d": 100,
      "v": 71
    },
    {
      "midi": 70,
      "hit": false,
      "t": 222749.99999999817,
      "d": 116.66666666665697,
      "v": 71
    },
    {
      "midi": 79,
      "hit": false,
      "t": 222749.99999999817,
      "d": 116.66666666665697,
      "v": 71
    },
    {
      "midi": 74,
      "hit": false,
      "t": 223066.66666666482,
      "d": 83.33333333334303,
      "v": 71
    },
    {
      "midi": 79,
      "hit": false,
      "t": 223066.66666666482,
      "d": 100,
      "v": 71
    },
    {
      "midi": 70,
      "hit": false,
      "t": 223066.66666666482,
      "d": 116.66666666665697,
      "v": 71
    },
    {
      "midi": 74,
      "hit": false,
      "t": 223349.99999999814,
      "d": 100,
      "v": 71
    },
    {
      "midi": 79,
      "hit": false,
      "t": 223349.99999999814,
      "d": 116.66666666665697,
      "v": 71
    },
    {
      "midi": 70,
      "hit": false,
      "t": 223349.99999999814,
      "d": 133.33333333331393,
      "v": 71
    },
    {
      "midi": 74,
      "hit": false,
      "t": 223649.9999999981,
      "d": 100,
      "v": 71
    },
    {
      "midi": 79,
      "hit": false,
      "t": 223649.9999999981,
      "d": 100,
      "v": 71
    },
    {
      "midi": 70,
      "hit": false,
      "t": 223649.9999999981,
      "d": 116.66666666665697,
      "v": 71
    },
    {
      "midi": 64,
      "hit": false,
      "t": 223949.9999999981,
      "d": 133.33333333331393,
      "v": 71
    },
    {
      "midi": 67,
      "hit": false,
      "t": 223949.9999999981,
      "d": 166.66666666665697,
      "v": 72
    },
    {
      "midi": 60,
      "hit": false,
      "t": 223966.66666666477,
      "d": 150,
      "v": 71
    },
    {
      "midi": 64,
      "hit": false,
      "t": 224249.9999999981,
      "d": 116.66666666665697,
      "v": 71
    },
    {
      "midi": 67,
      "hit": false,
      "t": 224249.9999999981,
      "d": 116.66666666665697,
      "v": 71
    },
    {
      "midi": 60,
      "hit": false,
      "t": 224249.9999999981,
      "d": 133.33333333331393,
      "v": 71
    },
    {
      "midi": 64,
      "hit": false,
      "t": 224549.99999999808,
      "d": 116.66666666665697,
      "v": 71
    },
    {
      "midi": 67,
      "hit": false,
      "t": 224549.99999999808,
      "d": 133.33333333331393,
      "v": 71
    },
    {
      "midi": 60,
      "hit": false,
      "t": 224549.99999999808,
      "d": 149.9999999999709,
      "v": 71
    },
    {
      "midi": 60,
      "hit": false,
      "t": 224849.99999999805,
      "d": 116.66666666665697,
      "v": 72
    },
    {
      "midi": 64,
      "hit": false,
      "t": 224849.99999999805,
      "d": 116.66666666665697,
      "v": 71
    },
    {
      "midi": 67,
      "hit": false,
      "t": 224849.99999999805,
      "d": 133.33333333331393,
      "v": 71
    },
    {
      "midi": 67,
      "hit": false,
      "t": 225133.33333333136,
      "d": 116.66666666665697,
      "v": 71
    },
    {
      "midi": 64,
      "hit": false,
      "t": 225149.99999999802,
      "d": 116.66666666665697,
      "v": 71
    },
    {
      "midi": 60,
      "hit": false,
      "t": 225149.99999999802,
      "d": 133.33333333331393,
      "v": 71
    },
    {
      "midi": 64,
      "hit": false,
      "t": 225449.999999998,
      "d": 100,
      "v": 71
    },
    {
      "midi": 60,
      "hit": false,
      "t": 225449.999999998,
      "d": 116.66666666665697,
      "v": 71
    },
    {
      "midi": 67,
      "hit": false,
      "t": 225449.999999998,
      "d": 116.66666666665697,
      "v": 71
    },
    {
      "midi": 64,
      "hit": false,
      "t": 225733.3333333313,
      "d": 100,
      "v": 71
    },
    {
      "midi": 60,
      "hit": false,
      "t": 225733.3333333313,
      "d": 133.33333333334303,
      "v": 71
    },
    {
      "midi": 67,
      "hit": false,
      "t": 225733.3333333313,
      "d": 133.33333333334303,
      "v": 71
    },
    {
      "midi": 64,
      "hit": false,
      "t": 226033.3333333313,
      "d": 100,
      "v": 71
    },
    {
      "midi": 67,
      "hit": false,
      "t": 226033.3333333313,
      "d": 116.66666666665697,
      "v": 72
    },
    {
      "midi": 60,
      "hit": false,
      "t": 226033.3333333313,
      "d": 133.33333333331393,
      "v": 71
    },
    {
      "midi": 64,
      "hit": false,
      "t": 226333.33333333128,
      "d": 83.33333333334303,
      "v": 71
    },
    {
      "midi": 60,
      "hit": false,
      "t": 226333.33333333128,
      "d": 116.66666666668607,
      "v": 71
    },
    {
      "midi": 67,
      "hit": false,
      "t": 226333.33333333128,
      "d": 116.66666666668607,
      "v": 71
    },
    {
      "midi": 64,
      "hit": false,
      "t": 226633.3333333313,
      "d": 100,
      "v": 71
    },
    {
      "midi": 67,
      "hit": false,
      "t": 226633.3333333313,
      "d": 116.66666666665697,
      "v": 71
    },
    {
      "midi": 60,
      "hit": false,
      "t": 226633.3333333313,
      "d": 133.33333333331393,
      "v": 71
    },
    {
      "midi": 64,
      "hit": false,
      "t": 226933.33333333128,
      "d": 100,
      "v": 71
    },
    {
      "midi": 60,
      "hit": false,
      "t": 226933.33333333128,
      "d": 116.66666666665697,
      "v": 71
    },
    {
      "midi": 67,
      "hit": false,
      "t": 226933.33333333128,
      "d": 116.66666666665697,
      "v": 71
    },
    {
      "midi": 64,
      "hit": false,
      "t": 227233.33333333128,
      "d": 83.33333333334303,
      "v": 71
    },
    {
      "midi": 67,
      "hit": false,
      "t": 227233.33333333128,
      "d": 83.33333333334303,
      "v": 71
    },
    {
      "midi": 60,
      "hit": false,
      "t": 227233.33333333128,
      "d": 116.66666666668607,
      "v": 71
    },
    {
      "midi": 72,
      "hit": false,
      "t": 227533.3333333313,
      "d": 133.33333333334303,
      "v": 71
    },
    {
      "midi": 69,
      "hit": false,
      "t": 227533.3333333313,
      "d": 166.66666666668607,
      "v": 71
    },
    {
      "midi": 77,
      "hit": false,
      "t": 227533.3333333313,
      "d": 166.66666666668607,
      "v": 72
    },
    {
      "midi": 72,
      "hit": false,
      "t": 227833.33333333133,
      "d": 116.66666666665697,
      "v": 71
    },
    {
      "midi": 77,
      "hit": false,
      "t": 227833.33333333133,
      "d": 116.66666666665697,
      "v": 71
    },
    {
      "midi": 69,
      "hit": false,
      "t": 227833.33333333133,
      "d": 133.33333333331393,
      "v": 71
    },
    {
      "midi": 72,
      "hit": false,
      "t": 228116.66666666465,
      "d": 116.66666666665697,
      "v": 71
    },
    {
      "midi": 69,
      "hit": false,
      "t": 228116.66666666465,
      "d": 150,
      "v": 71
    },
    {
      "midi": 77,
      "hit": false,
      "t": 228116.66666666465,
      "d": 150,
      "v": 71
    },
    {
      "midi": 77,
      "hit": false,
      "t": 228416.66666666465,
      "d": 133.33333333331393,
      "v": 71
    },
    {
      "midi": 72,
      "hit": false,
      "t": 228433.3333333313,
      "d": 100,
      "v": 71
    },
    {
      "midi": 69,
      "hit": false,
      "t": 228433.3333333313,
      "d": 116.66666666665697,
      "v": 72
    },
    {
      "midi": 72,
      "hit": false,
      "t": 228716.66666666462,
      "d": 116.66666666665697,
      "v": 71
    },
    {
      "midi": 77,
      "hit": false,
      "t": 228716.66666666462,
      "d": 116.66666666665697,
      "v": 71
    },
    {
      "midi": 69,
      "hit": false,
      "t": 228716.66666666462,
      "d": 133.33333333331393,
      "v": 71
    },
    {
      "midi": 72,
      "hit": false,
      "t": 229016.6666666646,
      "d": 100,
      "v": 71
    },
    {
      "midi": 69,
      "hit": false,
      "t": 229016.6666666646,
      "d": 133.33333333334303,
      "v": 71
    },
    {
      "midi": 77,
      "hit": false,
      "t": 229016.6666666646,
      "d": 133.33333333334303,
      "v": 71
    },
    {
      "midi": 64,
      "hit": false,
      "t": 229316.6666666646,
      "d": 133.33333333334303,
      "v": 71
    },
    {
      "midi": 60,
      "hit": false,
      "t": 229316.6666666646,
      "d": 166.66666666668607,
      "v": 71
    },
    {
      "midi": 67,
      "hit": false,
      "t": 229316.6666666646,
      "d": 166.66666666668607,
      "v": 72
    },
    {
      "midi": 64,
      "hit": false,
      "t": 229616.66666666462,
      "d": 116.66666666665697,
      "v": 71
    },
    {
      "midi": 67,
      "hit": false,
      "t": 229616.66666666462,
      "d": 116.66666666665697,
      "v": 71
    },
    {
      "midi": 60,
      "hit": false,
      "t": 229616.66666666462,
      "d": 133.33333333331393,
      "v": 71
    },
    {
      "midi": 64,
      "hit": false,
      "t": 229916.6666666646,
      "d": 116.66666666665697,
      "v": 71
    },
    {
      "midi": 60,
      "hit": false,
      "t": 229916.6666666646,
      "d": 133.33333333331393,
      "v": 71
    },
    {
      "midi": 67,
      "hit": false,
      "t": 229916.6666666646,
      "d": 133.33333333331393,
      "v": 71
    },
    {
      "midi": 64,
      "hit": false,
      "t": 230216.66666666456,
      "d": 116.66666666665697,
      "v": 71
    },
    {
      "midi": 60,
      "hit": false,
      "t": 230216.66666666456,
      "d": 133.33333333331393,
      "v": 72
    },
    {
      "midi": 67,
      "hit": false,
      "t": 230216.66666666456,
      "d": 133.33333333331393,
      "v": 71
    },
    {
      "midi": 67,
      "hit": false,
      "t": 230516.66666666453,
      "d": 100,
      "v": 71
    },
    {
      "midi": 60,
      "hit": false,
      "t": 230516.66666666453,
      "d": 116.66666666665697,
      "v": 71
    },
    {
      "midi": 64,
      "hit": false,
      "t": 230516.66666666453,
      "d": 116.66666666665697,
      "v": 71
    },
    {
      "midi": 67,
      "hit": false,
      "t": 230799.99999999785,
      "d": 133.33333333331393,
      "v": 71
    },
    {
      "midi": 64,
      "hit": false,
      "t": 230816.6666666645,
      "d": 100,
      "v": 71
    },
    {
      "midi": 60,
      "hit": false,
      "t": 230816.6666666645,
      "d": 116.66666666665697,
      "v": 71
    },
    {
      "midi": 72,
      "hit": false,
      "t": 231116.6666666645,
      "d": 133.33333333334303,
      "v": 71
    },
    {
      "midi": 69,
      "hit": false,
      "t": 231116.6666666645,
      "d": 150,
      "v": 71
    },
    {
      "midi": 77,
      "hit": false,
      "t": 231116.6666666645,
      "d": 150,
      "v": 72
    },
    {
      "midi": 72,
      "hit": false,
      "t": 231399.99999999785,
      "d": 116.66666666665697,
      "v": 71
    },
    {
      "midi": 77,
      "hit": false,
      "t": 231399.99999999785,
      "d": 116.66666666665697,
      "v": 71
    },
    {
      "midi": 69,
      "hit": false,
      "t": 231399.99999999785,
      "d": 133.33333333331393,
      "v": 71
    },
    {
      "midi": 72,
      "hit": false,
      "t": 231699.99999999782,
      "d": 116.66666666665697,
      "v": 71
    },
    {
      "midi": 69,
      "hit": false,
      "t": 231699.99999999782,
      "d": 150,
      "v": 71
    },
    {
      "midi": 77,
      "hit": false,
      "t": 231699.99999999782,
      "d": 150,
      "v": 71
    },
    {
      "midi": 72,
      "hit": false,
      "t": 231999.99999999782,
      "d": 116.66666666665697,
      "v": 71
    },
    {
      "midi": 69,
      "hit": false,
      "t": 231999.99999999782,
      "d": 133.33333333331393,
      "v": 72
    },
    {
      "midi": 77,
      "hit": false,
      "t": 231999.99999999782,
      "d": 133.33333333331393,
      "v": 71
    },
    {
      "midi": 72,
      "hit": false,
      "t": 232299.9999999978,
      "d": 116.66666666665697,
      "v": 71
    },
    {
      "midi": 77,
      "hit": false,
      "t": 232299.9999999978,
      "d": 116.66666666665697,
      "v": 71
    },
    {
      "midi": 69,
      "hit": false,
      "t": 232299.9999999978,
      "d": 133.33333333331393,
      "v": 71
    },
    {
      "midi": 72,
      "hit": false,
      "t": 232599.99999999776,
      "d": 100,
      "v": 71
    },
    {
      "midi": 69,
      "hit": false,
      "t": 232599.99999999776,
      "d": 116.66666666665697,
      "v": 71
    },
    {
      "midi": 77,
      "hit": false,
      "t": 232599.99999999776,
      "d": 116.66666666665697,
      "v": 71
    },
    {
      "midi": 65,
      "hit": false,
      "t": 232899.99999999776,
      "d": 133.33333333334303,
      "v": 71
    },
    {
      "midi": 69,
      "hit": false,
      "t": 232899.99999999776,
      "d": 150,
      "v": 72
    },
    {
      "midi": 62,
      "hit": false,
      "t": 232899.99999999776,
      "d": 166.66666666665697,
      "v": 71
    },
    {
      "midi": 65,
      "hit": false,
      "t": 233183.33333333107,
      "d": 133.33333333334303,
      "v": 71
    },
    {
      "midi": 69,
      "hit": false,
      "t": 233183.33333333107,
      "d": 133.33333333334303,
      "v": 71
    },
    {
      "midi": 62,
      "hit": false,
      "t": 233183.33333333107,
      "d": 150,
      "v": 71
    },
    {
      "midi": 62,
      "hit": false,
      "t": 233483.33333333107,
      "d": 150,
      "v": 71
    },
    {
      "midi": 69,
      "hit": false,
      "t": 233483.33333333107,
      "d": 150,
      "v": 71
    },
    {
      "midi": 65,
      "hit": false,
      "t": 233499.99999999773,
      "d": 100,
      "v": 71
    },
    {
      "midi": 65,
      "hit": false,
      "t": 233783.33333333107,
      "d": 116.66666666665697,
      "v": 71
    },
    {
      "midi": 62,
      "hit": false,
      "t": 233783.33333333107,
      "d": 133.33333333331393,
      "v": 72
    },
    {
      "midi": 69,
      "hit": false,
      "t": 233783.33333333107,
      "d": 133.33333333331393,
      "v": 71
    },
    {
      "midi": 65,
      "hit": false,
      "t": 234083.33333333104,
      "d": 116.66666666665697,
      "v": 71
    },
    {
      "midi": 69,
      "hit": false,
      "t": 234083.33333333104,
      "d": 116.66666666665697,
      "v": 71
    },
    {
      "midi": 62,
      "hit": false,
      "t": 234083.33333333104,
      "d": 133.33333333331393,
      "v": 71
    },
    {
      "midi": 65,
      "hit": false,
      "t": 234383.33333333101,
      "d": 100,
      "v": 71
    },
    {
      "midi": 62,
      "hit": false,
      "t": 234383.33333333101,
      "d": 116.66666666665697,
      "v": 71
    },
    {
      "midi": 69,
      "hit": false,
      "t": 234383.33333333101,
      "d": 116.66666666665697,
      "v": 71
    },
    {
      "midi": 74,
      "hit": false,
      "t": 234683.33333333101,
      "d": 133.33333333334303,
      "v": 71
    },
    {
      "midi": 79,
      "hit": false,
      "t": 234683.33333333101,
      "d": 150,
      "v": 72
    },
    {
      "midi": 70,
      "hit": false,
      "t": 234683.33333333101,
      "d": 166.66666666665697,
      "v": 71
    },
    {
      "midi": 74,
      "hit": false,
      "t": 234983.33333333101,
      "d": 116.66666666665697,
      "v": 71
    },
    {
      "midi": 79,
      "hit": false,
      "t": 234983.33333333101,
      "d": 116.66666666665697,
      "v": 71
    },
    {
      "midi": 70,
      "hit": false,
      "t": 234983.33333333101,
      "d": 133.33333333331393,
      "v": 71
    },
    {
      "midi": 74,
      "hit": false,
      "t": 235283.333333331,
      "d": 116.66666666665697,
      "v": 71
    },
    {
      "midi": 70,
      "hit": false,
      "t": 235283.333333331,
      "d": 133.33333333331393,
      "v": 71
    },
    {
      "midi": 79,
      "hit": false,
      "t": 235283.333333331,
      "d": 133.33333333331393,
      "v": 71
    },
    {
      "midi": 70,
      "hit": false,
      "t": 235583.33333333096,
      "d": 116.66666666665697,
      "v": 72
    },
    {
      "midi": 74,
      "hit": false,
      "t": 235583.33333333096,
      "d": 116.66666666665697,
      "v": 71
    },
    {
      "midi": 79,
      "hit": false,
      "t": 235583.33333333096,
      "d": 133.33333333331393,
      "v": 71
    },
    {
      "midi": 79,
      "hit": false,
      "t": 235866.66666666427,
      "d": 116.66666666665697,
      "v": 71
    },
    {
      "midi": 70,
      "hit": false,
      "t": 235883.33333333093,
      "d": 116.66666666665697,
      "v": 71
    },
    {
      "midi": 74,
      "hit": false,
      "t": 235883.33333333093,
      "d": 116.66666666665697,
      "v": 71
    },
    {
      "midi": 74,
      "hit": false,
      "t": 236166.66666666424,
      "d": 116.66666666665697,
      "v": 71
    },
    {
      "midi": 70,
      "hit": false,
      "t": 236166.66666666424,
      "d": 133.33333333331393,
      "v": 71
    },
    {
      "midi": 79,
      "hit": false,
      "t": 236166.66666666424,
      "d": 133.33333333331393,
      "v": 71
    },
    {
      "midi": 70,
      "hit": false,
      "t": 236466.6666666642,
      "d": 133.33333333334303,
      "v": 71
    },
    {
      "midi": 79,
      "hit": false,
      "t": 236466.6666666642,
      "d": 133.33333333334303,
      "v": 71
    },
    {
      "midi": 74,
      "hit": false,
      "t": 236483.33333333087,
      "d": 83.33333333334303,
      "v": 71
    },
    {
      "midi": 74,
      "hit": false,
      "t": 236766.6666666642,
      "d": 100,
      "v": 71
    },
    {
      "midi": 79,
      "hit": false,
      "t": 236766.6666666642,
      "d": 116.66666666665697,
      "v": 72
    },
    {
      "midi": 70,
      "hit": false,
      "t": 236766.6666666642,
      "d": 133.33333333331393,
      "v": 71
    },
    {
      "midi": 74,
      "hit": false,
      "t": 237066.66666666418,
      "d": 83.33333333334303,
      "v": 71
    },
    {
      "midi": 70,
      "hit": false,
      "t": 237066.66666666418,
      "d": 100,
      "v": 71
    },
    {
      "midi": 79,
      "hit": false,
      "t": 237066.66666666418,
      "d": 116.66666666665697,
      "v": 71
    },
    {
      "midi": 74,
      "hit": false,
      "t": 237366.66666666418,
      "d": 100,
      "v": 71
    },
    {
      "midi": 79,
      "hit": false,
      "t": 237366.66666666418,
      "d": 116.66666666665697,
      "v": 71
    },
    {
      "midi": 70,
      "hit": false,
      "t": 237366.66666666418,
      "d": 133.33333333331393,
      "v": 71
    },
    {
      "midi": 74,
      "hit": false,
      "t": 237666.66666666415,
      "d": 83.33333333334303,
      "v": 71
    },
    {
      "midi": 79,
      "hit": false,
      "t": 237666.66666666415,
      "d": 100,
      "v": 71
    },
    {
      "midi": 70,
      "hit": false,
      "t": 237666.66666666415,
      "d": 116.66666666665697,
      "v": 71
    },
    {
      "midi": 74,
      "hit": false,
      "t": 237966.66666666415,
      "d": 100,
      "v": 71
    },
    {
      "midi": 79,
      "hit": false,
      "t": 237966.66666666415,
      "d": 100,
      "v": 71
    },
    {
      "midi": 70,
      "hit": false,
      "t": 237966.66666666415,
      "d": 116.66666666665697,
      "v": 71
    },
    {
      "midi": 64,
      "hit": false,
      "t": 238266.66666666415,
      "d": 133.33333333334303,
      "v": 71
    },
    {
      "midi": 67,
      "hit": false,
      "t": 238266.66666666415,
      "d": 150,
      "v": 72
    },
    {
      "midi": 60,
      "hit": false,
      "t": 238266.66666666415,
      "d": 166.66666666665697,
      "v": 71
    },
    {
      "midi": 64,
      "hit": false,
      "t": 238566.66666666415,
      "d": 100,
      "v": 71
    },
    {
      "midi": 67,
      "hit": false,
      "t": 238566.66666666415,
      "d": 116.66666666665697,
      "v": 71
    },
    {
      "midi": 60,
      "hit": false,
      "t": 238566.66666666415,
      "d": 133.33333333331393,
      "v": 71
    },
    {
      "midi": 64,
      "hit": false,
      "t": 238849.99999999747,
      "d": 133.33333333334303,
      "v": 71
    },
    {
      "midi": 60,
      "hit": false,
      "t": 238849.99999999747,
      "d": 150,
      "v": 71
    },
    {
      "midi": 67,
      "hit": false,
      "t": 238849.99999999747,
      "d": 150,
      "v": 71
    },
    {
      "midi": 64,
      "hit": false,
      "t": 239149.99999999747,
      "d": 116.66666666665697,
      "v": 71
    },
    {
      "midi": 60,
      "hit": false,
      "t": 239149.99999999747,
      "d": 133.33333333331393,
      "v": 72
    },
    {
      "midi": 67,
      "hit": false,
      "t": 239149.99999999747,
      "d": 133.33333333331393,
      "v": 71
    },
    {
      "midi": 64,
      "hit": false,
      "t": 239449.99999999744,
      "d": 116.66666666665697,
      "v": 71
    },
    {
      "midi": 67,
      "hit": false,
      "t": 239449.99999999744,
      "d": 116.66666666665697,
      "v": 71
    },
    {
      "midi": 60,
      "hit": false,
      "t": 239449.99999999744,
      "d": 133.33333333331393,
      "v": 71
    },
    {
      "midi": 64,
      "hit": false,
      "t": 239749.9999999974,
      "d": 100,
      "v": 71
    },
    {
      "midi": 60,
      "hit": false,
      "t": 239749.9999999974,
      "d": 133.33333333334303,
      "v": 71
    },
    {
      "midi": 67,
      "hit": false,
      "t": 239749.9999999974,
      "d": 133.33333333334303,
      "v": 71
    },
    {
      "midi": 64,
      "hit": false,
      "t": 240049.9999999974,
      "d": 100,
      "v": 71
    },
    {
      "midi": 60,
      "hit": false,
      "t": 240049.9999999974,
      "d": 116.66666666665697,
      "v": 71
    },
    {
      "midi": 67,
      "hit": false,
      "t": 240049.9999999974,
      "d": 116.66666666665697,
      "v": 71
    },
    {
      "midi": 64,
      "hit": false,
      "t": 240349.9999999974,
      "d": 100,
      "v": 71
    },
    {
      "midi": 60,
      "hit": false,
      "t": 240349.9999999974,
      "d": 116.66666666665697,
      "v": 71
    },
    {
      "midi": 67,
      "hit": false,
      "t": 240349.9999999974,
      "d": 116.66666666665697,
      "v": 72
    },
    {
      "midi": 64,
      "hit": false,
      "t": 240649.9999999974,
      "d": 83.33333333334303,
      "v": 71
    },
    {
      "midi": 60,
      "hit": false,
      "t": 240649.9999999974,
      "d": 100,
      "v": 71
    },
    {
      "midi": 67,
      "hit": false,
      "t": 240649.9999999974,
      "d": 100,
      "v": 71
    },
    {
      "midi": 64,
      "hit": false,
      "t": 240949.9999999974,
      "d": 100,
      "v": 71
    },
    {
      "midi": 67,
      "hit": false,
      "t": 240949.9999999974,
      "d": 100,
      "v": 71
    },
    {
      "midi": 60,
      "hit": false,
      "t": 240949.9999999974,
      "d": 116.66666666665697,
      "v": 71
    },
    {
      "midi": 67,
      "hit": false,
      "t": 241233.33333333072,
      "d": 116.66666666665697,
      "v": 71
    },
    {
      "midi": 60,
      "hit": false,
      "t": 241233.33333333072,
      "d": 133.33333333331393,
      "v": 71
    },
    {
      "midi": 64,
      "hit": false,
      "t": 241249.99999999738,
      "d": 83.33333333334303,
      "v": 71
    },
    {
      "midi": 67,
      "hit": false,
      "t": 241533.3333333307,
      "d": 100,
      "v": 71
    },
    {
      "midi": 60,
      "hit": false,
      "t": 241533.3333333307,
      "d": 116.66666666665697,
      "v": 71
    },
    {
      "midi": 64,
      "hit": false,
      "t": 241549.99999999735,
      "d": 83.33333333334303,
      "v": 71
    },
    {
      "midi": 77,
      "hit": false,
      "t": 241833.3333333307,
      "d": 166.66666666665697,
      "v": 72
    },
    {
      "midi": 72,
      "hit": false,
      "t": 241849.99999999735,
      "d": 116.66666666665697,
      "v": 71
    },
    {
      "midi": 69,
      "hit": false,
      "t": 241849.99999999735,
      "d": 150,
      "v": 71
    },
    {
      "midi": 72,
      "hit": false,
      "t": 242133.3333333307,
      "d": 116.66666666665697,
      "v": 71
    },
    {
      "midi": 69,
      "hit": false,
      "t": 242133.3333333307,
      "d": 133.33333333331393,
      "v": 71
    },
    {
      "midi": 77,
      "hit": false,
      "t": 242133.3333333307,
      "d": 133.33333333331393,
      "v": 71
    },
    {
      "midi": 72,
      "hit": false,
      "t": 242433.33333333067,
      "d": 116.66666666665697,
      "v": 71
    },
    {
      "midi": 77,
      "hit": false,
      "t": 242433.33333333067,
      "d": 133.33333333331393,
      "v": 71
    },
    {
      "midi": 69,
      "hit": false,
      "t": 242433.33333333067,
      "d": 149.9999999999709,
      "v": 71
    },
    {
      "midi": 72,
      "hit": false,
      "t": 242733.33333333064,
      "d": 116.66666666665697,
      "v": 71
    },
    {
      "midi": 69,
      "hit": false,
      "t": 242733.33333333064,
      "d": 133.33333333331393,
      "v": 72
    },
    {
      "midi": 77,
      "hit": false,
      "t": 242733.33333333064,
      "d": 133.33333333331393,
      "v": 71
    },
    {
      "midi": 77,
      "hit": false,
      "t": 243033.3333333306,
      "d": 100,
      "v": 71
    },
    {
      "midi": 72,
      "hit": false,
      "t": 243033.3333333306,
      "d": 116.66666666665697,
      "v": 71
    },
    {
      "midi": 69,
      "hit": false,
      "t": 243033.3333333306,
      "d": 133.33333333331393,
      "v": 71
    },
    {
      "midi": 72,
      "hit": false,
      "t": 243333.33333333058,
      "d": 100,
      "v": 71
    },
    {
      "midi": 69,
      "hit": false,
      "t": 243333.33333333058,
      "d": 116.66666666665697,
      "v": 71
    },
    {
      "midi": 77,
      "hit": false,
      "t": 243333.33333333058,
      "d": 116.66666666665697,
      "v": 71
    },
    {
      "midi": 72,
      "hit": false,
      "t": 243633.33333333058,
      "d": 83.33333333334303,
      "v": 71
    },
    {
      "midi": 69,
      "hit": false,
      "t": 243633.33333333058,
      "d": 116.66666666668607,
      "v": 71
    },
    {
      "midi": 77,
      "hit": false,
      "t": 243633.33333333058,
      "d": 116.66666666668607,
      "v": 71
    },
    {
      "midi": 72,
      "hit": false,
      "t": 245416.66666666392,
      "d": 133.33333333334303,
      "v": 71
    },
    {
      "midi": 69,
      "hit": false,
      "t": 245416.66666666392,
      "d": 166.66666666668607,
      "v": 71
    },
    {
      "midi": 77,
      "hit": false,
      "t": 245416.66666666392,
      "d": 166.66666666668607,
      "v": 72
    },
    {
      "midi": 72,
      "hit": false,
      "t": 245716.66666666395,
      "d": 116.66666666665697,
      "v": 71
    },
    {
      "midi": 77,
      "hit": false,
      "t": 245716.66666666395,
      "d": 116.66666666665697,
      "v": 71
    },
    {
      "midi": 69,
      "hit": false,
      "t": 245716.66666666395,
      "d": 133.33333333331393,
      "v": 71
    },
    {
      "midi": 72,
      "hit": false,
      "t": 246016.66666666392,
      "d": 116.66666666665697,
      "v": 71
    },
    {
      "midi": 69,
      "hit": false,
      "t": 246016.66666666392,
      "d": 133.33333333331393,
      "v": 71
    },
    {
      "midi": 77,
      "hit": false,
      "t": 246016.66666666392,
      "d": 133.33333333331393,
      "v": 71
    },
    {
      "midi": 72,
      "hit": false,
      "t": 246316.6666666639,
      "d": 116.66666666665697,
      "v": 71
    },
    {
      "midi": 69,
      "hit": false,
      "t": 246316.6666666639,
      "d": 133.33333333331393,
      "v": 72
    },
    {
      "midi": 77,
      "hit": false,
      "t": 246316.6666666639,
      "d": 133.33333333331393,
      "v": 71
    },
    {
      "midi": 77,
      "hit": false,
      "t": 246616.66666666386,
      "d": 100,
      "v": 71
    },
    {
      "midi": 69,
      "hit": false,
      "t": 246616.66666666386,
      "d": 116.66666666665697,
      "v": 71
    },
    {
      "midi": 72,
      "hit": false,
      "t": 246616.66666666386,
      "d": 116.66666666665697,
      "v": 71
    },
    {
      "midi": 72,
      "hit": false,
      "t": 246916.66666666386,
      "d": 100,
      "v": 71
    },
    {
      "midi": 69,
      "hit": false,
      "t": 246916.66666666386,
      "d": 116.66666666665697,
      "v": 71
    },
    {
      "midi": 77,
      "hit": false,
      "t": 246916.66666666386,
      "d": 116.66666666665697,
      "v": 71
    },
    {
      "midi": 65,
      "hit": false,
      "t": 247199.99999999718,
      "d": 150,
      "v": 71
    },
    {
      "midi": 62,
      "hit": false,
      "t": 247199.99999999718,
      "d": 166.66666666665697,
      "v": 71
    },
    {
      "midi": 69,
      "hit": false,
      "t": 247199.99999999718,
      "d": 166.66666666665697,
      "v": 72
    },
    {
      "midi": 65,
      "hit": false,
      "t": 247499.99999999718,
      "d": 116.66666666665697,
      "v": 71
    },
    {
      "midi": 69,
      "hit": false,
      "t": 247499.99999999718,
      "d": 116.66666666665697,
      "v": 71
    },
    {
      "midi": 62,
      "hit": false,
      "t": 247499.99999999718,
      "d": 133.33333333331393,
      "v": 71
    },
    {
      "midi": 65,
      "hit": false,
      "t": 247799.99999999715,
      "d": 116.66666666665697,
      "v": 71
    },
    {
      "midi": 69,
      "hit": false,
      "t": 247799.99999999715,
      "d": 133.33333333331393,
      "v": 71
    },
    {
      "midi": 62,
      "hit": false,
      "t": 247799.99999999715,
      "d": 149.9999999999709,
      "v": 71
    },
    {
      "midi": 65,
      "hit": false,
      "t": 248099.99999999712,
      "d": 116.66666666665697,
      "v": 71
    },
    {
      "midi": 62,
      "hit": false,
      "t": 248099.99999999712,
      "d": 133.33333333331393,
      "v": 72
    },
    {
      "midi": 69,
      "hit": false,
      "t": 248099.99999999712,
      "d": 133.33333333331393,
      "v": 71
    },
    {
      "midi": 69,
      "hit": false,
      "t": 248399.9999999971,
      "d": 100,
      "v": 71
    },
    {
      "midi": 65,
      "hit": false,
      "t": 248399.9999999971,
      "d": 116.66666666665697,
      "v": 71
    },
    {
      "midi": 62,
      "hit": false,
      "t": 248399.9999999971,
      "d": 133.33333333331393,
      "v": 71
    },
    {
      "midi": 65,
      "hit": false,
      "t": 248699.99999999706,
      "d": 100,
      "v": 71
    },
    {
      "midi": 62,
      "hit": false,
      "t": 248699.99999999706,
      "d": 116.66666666665697,
      "v": 71
    },
    {
      "midi": 69,
      "hit": false,
      "t": 248699.99999999706,
      "d": 116.66666666665697,
      "v": 71
    },
    {
      "midi": 74,
      "hit": false,
      "t": 248999.99999999706,
      "d": 133.33333333334303,
      "v": 71
    },
    {
      "midi": 79,
      "hit": false,
      "t": 248999.99999999706,
      "d": 150,
      "v": 72
    },
    {
      "midi": 70,
      "hit": false,
      "t": 248999.99999999706,
      "d": 166.66666666665697,
      "v": 71
    },
    {
      "midi": 74,
      "hit": false,
      "t": 249283.33333333037,
      "d": 133.33333333334303,
      "v": 71
    },
    {
      "midi": 79,
      "hit": false,
      "t": 249283.33333333037,
      "d": 133.33333333334303,
      "v": 71
    },
    {
      "midi": 70,
      "hit": false,
      "t": 249283.33333333037,
      "d": 150,
      "v": 71
    },
    {
      "midi": 74,
      "hit": false,
      "t": 249583.33333333037,
      "d": 116.66666666665697,
      "v": 71
    },
    {
      "midi": 70,
      "hit": false,
      "t": 249583.33333333037,
      "d": 150,
      "v": 71
    },
    {
      "midi": 79,
      "hit": false,
      "t": 249583.33333333037,
      "d": 150,
      "v": 71
    },
    {
      "midi": 74,
      "hit": false,
      "t": 249883.33333333037,
      "d": 116.66666666665697,
      "v": 71
    },
    {
      "midi": 70,
      "hit": false,
      "t": 249883.33333333037,
      "d": 133.33333333331393,
      "v": 72
    },
    {
      "midi": 79,
      "hit": false,
      "t": 249883.33333333037,
      "d": 133.33333333331393,
      "v": 71
    },
    {
      "midi": 74,
      "hit": false,
      "t": 250183.33333333035,
      "d": 116.66666666665697,
      "v": 71
    },
    {
      "midi": 79,
      "hit": false,
      "t": 250183.33333333035,
      "d": 116.66666666665697,
      "v": 71
    },
    {
      "midi": 70,
      "hit": false,
      "t": 250183.33333333035,
      "d": 133.33333333331393,
      "v": 71
    },
    {
      "midi": 74,
      "hit": false,
      "t": 250483.33333333032,
      "d": 100,
      "v": 71
    },
    {
      "midi": 70,
      "hit": false,
      "t": 250483.33333333032,
      "d": 116.66666666665697,
      "v": 71
    },
    {
      "midi": 79,
      "hit": false,
      "t": 250483.33333333032,
      "d": 116.66666666665697,
      "v": 71
    },
    {
      "midi": 74,
      "hit": false,
      "t": 250783.33333333032,
      "d": 83.33333333334303,
      "v": 71
    },
    {
      "midi": 70,
      "hit": false,
      "t": 250783.33333333032,
      "d": 116.66666666668607,
      "v": 71
    },
    {
      "midi": 79,
      "hit": false,
      "t": 250783.33333333032,
      "d": 116.66666666668607,
      "v": 71
    },
    {
      "midi": 74,
      "hit": false,
      "t": 251083.33333333035,
      "d": 100,
      "v": 71
    },
    {
      "midi": 79,
      "hit": false,
      "t": 251083.33333333035,
      "d": 100,
      "v": 72
    },
    {
      "midi": 70,
      "hit": false,
      "t": 251083.33333333035,
      "d": 116.66666666665697,
      "v": 71
    },
    {
      "midi": 74,
      "hit": false,
      "t": 251383.33333333035,
      "d": 83.33333333334303,
      "v": 71
    },
    {
      "midi": 70,
      "hit": false,
      "t": 251383.33333333035,
      "d": 100,
      "v": 71
    },
    {
      "midi": 79,
      "hit": false,
      "t": 251383.33333333035,
      "d": 100,
      "v": 71
    },
    {
      "midi": 79,
      "hit": false,
      "t": 251666.6666666637,
      "d": 116.66666666665697,
      "v": 71
    },
    {
      "midi": 70,
      "hit": false,
      "t": 251666.6666666637,
      "d": 133.33333333331393,
      "v": 71
    },
    {
      "midi": 74,
      "hit": false,
      "t": 251683.33333333035,
      "d": 100,
      "v": 71
    },
    {
      "midi": 74,
      "hit": false,
      "t": 251966.66666666366,
      "d": 100,
      "v": 71
    },
    {
      "midi": 79,
      "hit": false,
      "t": 251966.66666666366,
      "d": 116.66666666665697,
      "v": 71
    },
    {
      "midi": 70,
      "hit": false,
      "t": 251966.66666666366,
      "d": 133.33333333331393,
      "v": 71
    },
    {
      "midi": 74,
      "hit": false,
      "t": 252266.66666666363,
      "d": 100,
      "v": 71
    },
    {
      "midi": 79,
      "hit": false,
      "t": 252266.66666666363,
      "d": 100,
      "v": 71
    },
    {
      "midi": 70,
      "hit": false,
      "t": 252266.66666666363,
      "d": 116.66666666665697,
      "v": 71
    },
    {
      "midi": 67,
      "hit": false,
      "t": 252566.66666666363,
      "d": 166.66666666665697,
      "v": 72
    },
    {
      "midi": 64,
      "hit": false,
      "t": 252583.3333333303,
      "d": 133.33333333334303,
      "v": 71
    },
    {
      "midi": 60,
      "hit": false,
      "t": 252583.3333333303,
      "d": 166.66666666665697,
      "v": 71
    },
    {
      "midi": 64,
      "hit": false,
      "t": 252866.6666666636,
      "d": 116.66666666665697,
      "v": 71
    },
    {
      "midi": 60,
      "hit": false,
      "t": 252866.6666666636,
      "d": 133.33333333331393,
      "v": 71
    },
    {
      "midi": 67,
      "hit": false,
      "t": 252866.6666666636,
      "d": 133.33333333331393,
      "v": 71
    },
    {
      "midi": 64,
      "hit": false,
      "t": 253166.66666666357,
      "d": 116.66666666665697,
      "v": 71
    },
    {
      "midi": 67,
      "hit": false,
      "t": 253166.66666666357,
      "d": 133.33333333331393,
      "v": 71
    },
    {
      "midi": 60,
      "hit": false,
      "t": 253166.66666666357,
      "d": 149.9999999999709,
      "v": 71
    },
    {
      "midi": 64,
      "hit": false,
      "t": 253466.66666666354,
      "d": 116.66666666665697,
      "v": 71
    },
    {
      "midi": 60,
      "hit": false,
      "t": 253466.66666666354,
      "d": 133.33333333331393,
      "v": 72
    },
    {
      "midi": 67,
      "hit": false,
      "t": 253466.66666666354,
      "d": 133.33333333331393,
      "v": 71
    },
    {
      "midi": 67,
      "hit": false,
      "t": 253766.6666666635,
      "d": 100,
      "v": 71
    },
    {
      "midi": 64,
      "hit": false,
      "t": 253766.6666666635,
      "d": 116.66666666665697,
      "v": 71
    },
    {
      "midi": 60,
      "hit": false,
      "t": 253766.6666666635,
      "d": 133.33333333331393,
      "v": 71
    },
    {
      "midi": 64,
      "hit": false,
      "t": 254066.66666666348,
      "d": 100,
      "v": 71
    },
    {
      "midi": 60,
      "hit": false,
      "t": 254066.66666666348,
      "d": 116.66666666665697,
      "v": 71
    },
    {
      "midi": 67,
      "hit": false,
      "t": 254066.66666666348,
      "d": 116.66666666665697,
      "v": 71
    },
    {
      "midi": 64,
      "hit": false,
      "t": 254366.66666666348,
      "d": 83.33333333334303,
      "v": 71
    },
    {
      "midi": 60,
      "hit": false,
      "t": 254366.66666666348,
      "d": 116.66666666668607,
      "v": 71
    },
    {
      "midi": 67,
      "hit": false,
      "t": 254366.66666666348,
      "d": 116.66666666668607,
      "v": 71
    },
    {
      "midi": 64,
      "hit": false,
      "t": 254649.99999999683,
      "d": 100,
      "v": 71
    },
    {
      "midi": 67,
      "hit": false,
      "t": 254649.99999999683,
      "d": 116.66666666665697,
      "v": 72
    },
    {
      "midi": 60,
      "hit": false,
      "t": 254649.99999999683,
      "d": 133.33333333331393,
      "v": 71
    },
    {
      "midi": 60,
      "hit": false,
      "t": 254949.9999999968,
      "d": 116.66666666665697,
      "v": 71
    },
    {
      "midi": 67,
      "hit": false,
      "t": 254949.9999999968,
      "d": 116.66666666665697,
      "v": 71
    },
    {
      "midi": 64,
      "hit": false,
      "t": 254966.66666666346,
      "d": 66.66666666665697,
      "v": 71
    },
    {
      "midi": 64,
      "hit": false,
      "t": 255249.9999999968,
      "d": 100,
      "v": 71
    },
    {
      "midi": 67,
      "hit": false,
      "t": 255249.9999999968,
      "d": 116.66666666665697,
      "v": 71
    },
    {
      "midi": 60,
      "hit": false,
      "t": 255249.9999999968,
      "d": 133.33333333331393,
      "v": 71
    },
    {
      "midi": 64,
      "hit": false,
      "t": 255549.99999999677,
      "d": 100,
      "v": 71
    },
    {
      "midi": 67,
      "hit": false,
      "t": 255549.99999999677,
      "d": 100,
      "v": 71
    },
    {
      "midi": 60,
      "hit": false,
      "t": 255549.99999999677,
      "d": 116.66666666665697,
      "v": 71
    },
    {
      "midi": 64,
      "hit": false,
      "t": 255849.99999999677,
      "d": 100,
      "v": 71
    },
    {
      "midi": 67,
      "hit": false,
      "t": 255849.99999999677,
      "d": 100,
      "v": 71
    },
    {
      "midi": 60,
      "hit": false,
      "t": 255849.99999999677,
      "d": 116.66666666665697,
      "v": 71
    },
    {
      "midi": 72,
      "hit": false,
      "t": 256149.99999999677,
      "d": 133.33333333334303,
      "v": 71
    },
    {
      "midi": 69,
      "hit": false,
      "t": 256149.99999999677,
      "d": 166.66666666668607,
      "v": 71
    },
    {
      "midi": 77,
      "hit": false,
      "t": 256149.99999999677,
      "d": 166.66666666668607,
      "v": 72
    },
    {
      "midi": 72,
      "hit": false,
      "t": 256449.9999999968,
      "d": 116.66666666665697,
      "v": 71
    },
    {
      "midi": 77,
      "hit": false,
      "t": 256449.9999999968,
      "d": 116.66666666665697,
      "v": 71
    },
    {
      "midi": 69,
      "hit": false,
      "t": 256449.9999999968,
      "d": 133.33333333331393,
      "v": 71
    },
    {
      "midi": 69,
      "hit": false,
      "t": 256733.3333333301,
      "d": 149.9999999999709,
      "v": 71
    },
    {
      "midi": 77,
      "hit": false,
      "t": 256733.3333333301,
      "d": 149.9999999999709,
      "v": 71
    },
    {
      "midi": 72,
      "hit": false,
      "t": 256749.99999999677,
      "d": 116.66666666665697,
      "v": 71
    },
    {
      "midi": 72,
      "hit": false,
      "t": 257049.99999999674,
      "d": 100,
      "v": 71
    },
    {
      "midi": 69,
      "hit": false,
      "t": 257049.99999999674,
      "d": 116.66666666665697,
      "v": 72
    },
    {
      "midi": 77,
      "hit": false,
      "t": 257049.99999999674,
      "d": 116.66666666665697,
      "v": 71
    },
    {
      "midi": 77,
      "hit": false,
      "t": 257333.33333333005,
      "d": 116.66666666665697,
      "v": 71
    },
    {
      "midi": 69,
      "hit": false,
      "t": 257333.33333333005,
      "d": 133.33333333331393,
      "v": 71
    },
    {
      "midi": 72,
      "hit": false,
      "t": 257333.33333333005,
      "d": 133.33333333331393,
      "v": 71
    },
    {
      "midi": 72,
      "hit": false,
      "t": 257633.33333333003,
      "d": 100,
      "v": 71
    },
    {
      "midi": 69,
      "hit": false,
      "t": 257633.33333333003,
      "d": 133.33333333334303,
      "v": 71
    },
    {
      "midi": 77,
      "hit": false,
      "t": 257633.33333333003,
      "d": 133.33333333334303,
      "v": 71
    },
    {
      "midi": 64,
      "hit": false,
      "t": 257933.33333333003,
      "d": 133.33333333331393,
      "v": 71
    },
    {
      "midi": 67,
      "hit": false,
      "t": 257933.33333333003,
      "d": 166.66666666665697,
      "v": 72
    },
    {
      "midi": 60,
      "hit": false,
      "t": 257949.99999999668,
      "d": 150,
      "v": 71
    },
    {
      "midi": 64,
      "hit": false,
      "t": 258233.33333333003,
      "d": 116.66666666665697,
      "v": 71
    },
    {
      "midi": 67,
      "hit": false,
      "t": 258233.33333333003,
      "d": 116.66666666665697,
      "v": 71
    },
    {
      "midi": 60,
      "hit": false,
      "t": 258233.33333333003,
      "d": 133.33333333331393,
      "v": 71
    },
    {
      "midi": 64,
      "hit": false,
      "t": 258533.33333333,
      "d": 116.66666666665697,
      "v": 71
    },
    {
      "midi": 67,
      "hit": false,
      "t": 258533.33333333,
      "d": 133.33333333331393,
      "v": 71
    },
    {
      "midi": 60,
      "hit": false,
      "t": 258533.33333333,
      "d": 149.9999999999709,
      "v": 71
    },
    {
      "midi": 64,
      "hit": false,
      "t": 258833.33333332997,
      "d": 116.66666666665697,
      "v": 71
    },
    {
      "midi": 60,
      "hit": false,
      "t": 258833.33333332997,
      "d": 133.33333333331393,
      "v": 72
    },
    {
      "midi": 67,
      "hit": false,
      "t": 258833.33333332997,
      "d": 133.33333333331393,
      "v": 71
    },
    {
      "midi": 67,
      "hit": false,
      "t": 259133.33333332994,
      "d": 100,
      "v": 71
    },
    {
      "midi": 64,
      "hit": false,
      "t": 259133.33333332994,
      "d": 116.66666666665697,
      "v": 71
    },
    {
      "midi": 60,
      "hit": false,
      "t": 259133.33333332994,
      "d": 133.33333333331393,
      "v": 71
    },
    {
      "midi": 64,
      "hit": false,
      "t": 259433.3333333299,
      "d": 100,
      "v": 71
    },
    {
      "midi": 60,
      "hit": false,
      "t": 259433.3333333299,
      "d": 116.66666666665697,
      "v": 71
    },
    {
      "midi": 67,
      "hit": false,
      "t": 259433.3333333299,
      "d": 116.66666666665697,
      "v": 71
    },
    {
      "midi": 72,
      "hit": false,
      "t": 259733.3333333299,
      "d": 133.33333333334303,
      "v": 71
    },
    {
      "midi": 77,
      "hit": false,
      "t": 259733.3333333299,
      "d": 150,
      "v": 72
    },
    {
      "midi": 69,
      "hit": false,
      "t": 259733.3333333299,
      "d": 166.66666666665697,
      "v": 71
    },
    {
      "midi": 72,
      "hit": false,
      "t": 260016.66666666322,
      "d": 116.66666666665697,
      "v": 71
    },
    {
      "midi": 77,
      "hit": false,
      "t": 260016.66666666322,
      "d": 133.33333333331393,
      "v": 71
    },
    {
      "midi": 69,
      "hit": false,
      "t": 260016.66666666322,
      "d": 149.9999999999709,
      "v": 71
    },
    {
      "midi": 72,
      "hit": false,
      "t": 260316.6666666632,
      "d": 116.66666666665697,
      "v": 71
    },
    {
      "midi": 77,
      "hit": false,
      "t": 260316.6666666632,
      "d": 133.33333333331393,
      "v": 71
    },
    {
      "midi": 69,
      "hit": false,
      "t": 260316.6666666632,
      "d": 149.9999999999709,
      "v": 71
    },
    {
      "midi": 72,
      "hit": false,
      "t": 260616.66666666316,
      "d": 116.66666666665697,
      "v": 71
    },
    {
      "midi": 69,
      "hit": false,
      "t": 260616.66666666316,
      "d": 133.33333333331393,
      "v": 72
    },
    {
      "midi": 77,
      "hit": false,
      "t": 260616.66666666316,
      "d": 133.33333333331393,
      "v": 71
    },
    {
      "midi": 72,
      "hit": false,
      "t": 260916.66666666314,
      "d": 116.66666666665697,
      "v": 71
    },
    {
      "midi": 77,
      "hit": false,
      "t": 260916.66666666314,
      "d": 116.66666666665697,
      "v": 71
    },
    {
      "midi": 69,
      "hit": false,
      "t": 260916.66666666314,
      "d": 133.33333333331393,
      "v": 71
    },
    {
      "midi": 72,
      "hit": false,
      "t": 261216.6666666631,
      "d": 100,
      "v": 71
    },
    {
      "midi": 69,
      "hit": false,
      "t": 261216.6666666631,
      "d": 116.66666666665697,
      "v": 71
    },
    {
      "midi": 77,
      "hit": false,
      "t": 261216.6666666631,
      "d": 133.33333333331393,
      "v": 71
    },
    {
      "midi": 65,
      "hit": false,
      "t": 261516.66666666308,
      "d": 133.33333333334303,
      "v": 71
    },
    {
      "midi": 62,
      "hit": false,
      "t": 261516.66666666308,
      "d": 166.66666666668607,
      "v": 71
    },
    {
      "midi": 69,
      "hit": false,
      "t": 261516.66666666308,
      "d": 166.66666666668607,
      "v": 72
    },
    {
      "midi": 65,
      "hit": false,
      "t": 261816.6666666631,
      "d": 116.66666666665697,
      "v": 71
    },
    {
      "midi": 69,
      "hit": false,
      "t": 261816.6666666631,
      "d": 116.66666666665697,
      "v": 71
    },
    {
      "midi": 62,
      "hit": false,
      "t": 261816.6666666631,
      "d": 133.33333333331393,
      "v": 71
    },
    {
      "midi": 65,
      "hit": false,
      "t": 262116.66666666308,
      "d": 116.66666666668607,
      "v": 71
    },
    {
      "midi": 62,
      "hit": false,
      "t": 262116.66666666308,
      "d": 133.33333333337214,
      "v": 71
    },
    {
      "midi": 69,
      "hit": false,
      "t": 262116.66666666308,
      "d": 133.33333333337214,
      "v": 71
    },
    {
      "midi": 62,
      "hit": false,
      "t": 262416.66666666314,
      "d": 116.66666666668607,
      "v": 72
    },
    {
      "midi": 65,
      "hit": false,
      "t": 262416.66666666314,
      "d": 116.66666666668607,
      "v": 71
    },
    {
      "midi": 69,
      "hit": false,
      "t": 262416.66666666314,
      "d": 116.66666666668607,
      "v": 71
    },
    {
      "midi": 65,
      "hit": false,
      "t": 262699.9999999965,
      "d": 116.66666666668607,
      "v": 71
    },
    {
      "midi": 69,
      "hit": false,
      "t": 262699.9999999965,
      "d": 116.66666666668607,
      "v": 71
    },
    {
      "midi": 62,
      "hit": false,
      "t": 262699.9999999965,
      "d": 133.33333333337214,
      "v": 71
    },
    {
      "midi": 69,
      "hit": false,
      "t": 262999.99999999657,
      "d": 133.33333333337214,
      "v": 71
    },
    {
      "midi": 65,
      "hit": false,
      "t": 263016.66666666325,
      "d": 100,
      "v": 71
    },
    {
      "midi": 62,
      "hit": false,
      "t": 263016.66666666325,
      "d": 116.66666666668607,
      "v": 71
    },
    {
      "midi": 74,
      "hit": false,
      "t": 263299.9999999966,
      "d": 150,
      "v": 71
    },
    {
      "midi": 70,
      "hit": false,
      "t": 263299.9999999966,
      "d": 166.66666666668607,
      "v": 71
    },
    {
      "midi": 79,
      "hit": false,
      "t": 263299.9999999966,
      "d": 166.66666666668607,
      "v": 72
    },
    {
      "midi": 74,
      "hit": false,
      "t": 263599.9999999966,
      "d": 116.66666666668607,
      "v": 71
    },
    {
      "midi": 79,
      "hit": false,
      "t": 263599.9999999966,
      "d": 116.66666666668607,
      "v": 71
    },
    {
      "midi": 70,
      "hit": false,
      "t": 263599.9999999966,
      "d": 133.33333333337214,
      "v": 71
    },
    {
      "midi": 74,
      "hit": false,
      "t": 263899.9999999967,
      "d": 116.66666666668607,
      "v": 71
    },
    {
      "midi": 79,
      "hit": false,
      "t": 263899.9999999967,
      "d": 133.33333333337214,
      "v": 71
    },
    {
      "midi": 70,
      "hit": false,
      "t": 263899.9999999967,
      "d": 150.0000000000582,
      "v": 71
    },
    {
      "midi": 74,
      "hit": false,
      "t": 264199.99999999674,
      "d": 116.66666666668607,
      "v": 71
    },
    {
      "midi": 70,
      "hit": false,
      "t": 264199.99999999674,
      "d": 133.33333333337214,
      "v": 72
    },
    {
      "midi": 79,
      "hit": false,
      "t": 264199.99999999674,
      "d": 133.33333333337214,
      "v": 71
    },
    {
      "midi": 79,
      "hit": false,
      "t": 264499.9999999968,
      "d": 100,
      "v": 71
    },
    {
      "midi": 70,
      "hit": false,
      "t": 264499.9999999968,
      "d": 116.66666666668607,
      "v": 71
    },
    {
      "midi": 74,
      "hit": false,
      "t": 264499.9999999968,
      "d": 116.66666666668607,
      "v": 71
    },
    {
      "midi": 74,
      "hit": false,
      "t": 264799.9999999968,
      "d": 100,
      "v": 71
    },
    {
      "midi": 70,
      "hit": false,
      "t": 264799.9999999968,
      "d": 116.66666666668607,
      "v": 71
    },
    {
      "midi": 79,
      "hit": false,
      "t": 264799.9999999968,
      "d": 116.66666666668607,
      "v": 71
    },
    {
      "midi": 74,
      "hit": false,
      "t": 265099.9999999968,
      "d": 83.33333333331393,
      "v": 71
    },
    {
      "midi": 70,
      "hit": false,
      "t": 265099.9999999968,
      "d": 116.66666666662786,
      "v": 71
    },
    {
      "midi": 79,
      "hit": false,
      "t": 265099.9999999968,
      "d": 116.66666666662786,
      "v": 71
    },
    {
      "midi": 74,
      "hit": false,
      "t": 265383.3333333301,
      "d": 100,
      "v": 71
    },
    {
      "midi": 79,
      "hit": false,
      "t": 265383.3333333301,
      "d": 116.66666666668607,
      "v": 72
    },
    {
      "midi": 70,
      "hit": false,
      "t": 265383.3333333301,
      "d": 133.33333333337214,
      "v": 71
    },
    {
      "midi": 74,
      "hit": false,
      "t": 265683.33333333017,
      "d": 83.33333333331393,
      "v": 71
    },
    {
      "midi": 70,
      "hit": false,
      "t": 265683.33333333017,
      "d": 116.66666666662786,
      "v": 71
    },
    {
      "midi": 79,
      "hit": false,
      "t": 265683.33333333017,
      "d": 116.66666666662786,
      "v": 71
    },
    {
      "midi": 70,
      "hit": false,
      "t": 265983.3333333301,
      "d": 116.66666666668607,
      "v": 71
    },
    {
      "midi": 79,
      "hit": false,
      "t": 265983.3333333301,
      "d": 116.66666666668607,
      "v": 71
    },
    {
      "midi": 74,
      "hit": false,
      "t": 265999.9999999968,
      "d": 83.33333333331393,
      "v": 71
    },
    {
      "midi": 74,
      "hit": false,
      "t": 266283.3333333301,
      "d": 100,
      "v": 71
    },
    {
      "midi": 70,
      "hit": false,
      "t": 266283.3333333301,
      "d": 116.66666666668607,
      "v": 71
    },
    {
      "midi": 79,
      "hit": false,
      "t": 266283.3333333301,
      "d": 116.66666666668607,
      "v": 71
    },
    {
      "midi": 74,
      "hit": false,
      "t": 266583.3333333301,
      "d": 100,
      "v": 71
    },
    {
      "midi": 79,
      "hit": false,
      "t": 266583.3333333301,
      "d": 100,
      "v": 71
    },
    {
      "midi": 70,
      "hit": false,
      "t": 266583.3333333301,
      "d": 116.66666666668607,
      "v": 71
    },
    {
      "midi": 64,
      "hit": false,
      "t": 266883.3333333301,
      "d": 133.33333333331393,
      "v": 71
    },
    {
      "midi": 67,
      "hit": false,
      "t": 266883.3333333301,
      "d": 150,
      "v": 72
    },
    {
      "midi": 60,
      "hit": false,
      "t": 266883.3333333301,
      "d": 166.66666666668607,
      "v": 71
    },
    {
      "midi": 64,
      "hit": false,
      "t": 267166.6666666635,
      "d": 133.33333333331393,
      "v": 71
    },
    {
      "midi": 67,
      "hit": false,
      "t": 267166.6666666635,
      "d": 133.33333333331393,
      "v": 71
    },
    {
      "midi": 60,
      "hit": false,
      "t": 267166.6666666635,
      "d": 150,
      "v": 71
    },
    {
      "midi": 60,
      "hit": false,
      "t": 267466.6666666635,
      "d": 150,
      "v": 71
    },
    {
      "midi": 67,
      "hit": false,
      "t": 267466.6666666635,
      "d": 150,
      "v": 71
    },
    {
      "midi": 64,
      "hit": false,
      "t": 267483.33333333017,
      "d": 100,
      "v": 71
    },
    {
      "midi": 64,
      "hit": false,
      "t": 267766.6666666635,
      "d": 133.33333333337214,
      "v": 71
    },
    {
      "midi": 67,
      "hit": false,
      "t": 267766.6666666635,
      "d": 150.0000000000582,
      "v": 71
    },
    {
      "midi": 60,
      "hit": false,
      "t": 267783.33333333017,
      "d": 133.33333333337214,
      "v": 72
    },
    {
      "midi": 64,
      "hit": false,
      "t": 268066.66666666354,
      "d": 116.66666666668607,
      "v": 71
    },
    {
      "midi": 67,
      "hit": false,
      "t": 268066.66666666354,
      "d": 116.66666666668607,
      "v": 71
    },
    {
      "midi": 60,
      "hit": false,
      "t": 268066.66666666354,
      "d": 133.33333333337214,
      "v": 71
    },
    {
      "midi": 64,
      "hit": false,
      "t": 268366.6666666636,
      "d": 100,
      "v": 71
    },
    {
      "midi": 60,
      "hit": false,
      "t": 268366.6666666636,
      "d": 133.33333333331393,
      "v": 71
    },
    {
      "midi": 67,
      "hit": false,
      "t": 268366.6666666636,
      "d": 133.33333333331393,
      "v": 71
    },
    {
      "midi": 64,
      "hit": false,
      "t": 268666.6666666636,
      "d": 100,
      "v": 71
    },
    {
      "midi": 60,
      "hit": false,
      "t": 268666.6666666636,
      "d": 133.33333333331393,
      "v": 71
    },
    {
      "midi": 67,
      "hit": false,
      "t": 268666.6666666636,
      "d": 133.33333333331393,
      "v": 71
    },
    {
      "midi": 64,
      "hit": false,
      "t": 268966.6666666636,
      "d": 100,
      "v": 71
    },
    {
      "midi": 60,
      "hit": false,
      "t": 268966.6666666636,
      "d": 116.66666666668607,
      "v": 71
    },
    {
      "midi": 67,
      "hit": false,
      "t": 268966.6666666636,
      "d": 116.66666666668607,
      "v": 72
    },
    {
      "midi": 64,
      "hit": false,
      "t": 269266.6666666636,
      "d": 83.33333333331393,
      "v": 71
    },
    {
      "midi": 60,
      "hit": false,
      "t": 269266.6666666636,
      "d": 100,
      "v": 71
    },
    {
      "midi": 67,
      "hit": false,
      "t": 269266.6666666636,
      "d": 116.66666666668607,
      "v": 71
    },
    {
      "midi": 64,
      "hit": false,
      "t": 269566.6666666636,
      "d": 100,
      "v": 71
    },
    {
      "midi": 67,
      "hit": false,
      "t": 269566.6666666636,
      "d": 100,
      "v": 71
    },
    {
      "midi": 60,
      "hit": false,
      "t": 269566.6666666636,
      "d": 116.66666666668607,
      "v": 71
    },
    {
      "midi": 64,
      "hit": false,
      "t": 269866.6666666636,
      "d": 83.33333333331393,
      "v": 71
    },
    {
      "midi": 67,
      "hit": false,
      "t": 269866.6666666636,
      "d": 100,
      "v": 71
    },
    {
      "midi": 60,
      "hit": false,
      "t": 269866.6666666636,
      "d": 116.66666666668607,
      "v": 71
    },
    {
      "midi": 64,
      "hit": false,
      "t": 270149.999999997,
      "d": 100,
      "v": 71
    },
    {
      "midi": 67,
      "hit": false,
      "t": 270149.999999997,
      "d": 100,
      "v": 71
    },
    {
      "midi": 60,
      "hit": false,
      "t": 270149.999999997,
      "d": 116.66666666668607,
      "v": 71
    },
    {
      "midi": 72,
      "hit": false,
      "t": 270466.66666666366,
      "d": 133.33333333331393,
      "v": 71
    },
    {
      "midi": 77,
      "hit": false,
      "t": 270466.66666666366,
      "d": 150,
      "v": 72
    },
    {
      "midi": 69,
      "hit": false,
      "t": 270466.66666666366,
      "d": 166.66666666668607,
      "v": 71
    },
    {
      "midi": 72,
      "hit": false,
      "t": 270749.99999999703,
      "d": 116.66666666668607,
      "v": 71
    },
    {
      "midi": 77,
      "hit": false,
      "t": 270749.99999999703,
      "d": 133.33333333337214,
      "v": 71
    },
    {
      "midi": 69,
      "hit": false,
      "t": 270749.99999999703,
      "d": 150.0000000000582,
      "v": 71
    },
    {
      "midi": 72,
      "hit": false,
      "t": 271049.9999999971,
      "d": 116.66666666668607,
      "v": 71
    },
    {
      "midi": 69,
      "hit": false,
      "t": 271049.9999999971,
      "d": 150,
      "v": 71
    },
    {
      "midi": 77,
      "hit": false,
      "t": 271049.9999999971,
      "d": 150,
      "v": 71
    },
    {
      "midi": 72,
      "hit": false,
      "t": 271349.9999999971,
      "d": 116.66666666668607,
      "v": 71
    },
    {
      "midi": 69,
      "hit": false,
      "t": 271349.9999999971,
      "d": 133.33333333337214,
      "v": 72
    },
    {
      "midi": 77,
      "hit": false,
      "t": 271349.9999999971,
      "d": 133.33333333337214,
      "v": 71
    },
    {
      "midi": 77,
      "hit": false,
      "t": 271649.99999999715,
      "d": 100,
      "v": 71
    },
    {
      "midi": 72,
      "hit": false,
      "t": 271649.99999999715,
      "d": 116.66666666668607,
      "v": 71
    },
    {
      "midi": 69,
      "hit": false,
      "t": 271649.99999999715,
      "d": 133.33333333337214,
      "v": 71
    },
    {
      "midi": 72,
      "hit": false,
      "t": 271949.9999999972,
      "d": 100,
      "v": 71
    },
    {
      "midi": 69,
      "hit": false,
      "t": 271949.9999999972,
      "d": 116.66666666668607,
      "v": 71
    },
    {
      "midi": 77,
      "hit": false,
      "t": 271949.9999999972,
      "d": 116.66666666668607,
      "v": 71
    },
    {
      "midi": 72,
      "hit": false,
      "t": 272249.9999999972,
      "d": 83.33333333331393,
      "v": 71
    },
    {
      "midi": 69,
      "hit": false,
      "t": 272249.9999999972,
      "d": 116.66666666662786,
      "v": 71
    },
    {
      "midi": 77,
      "hit": false,
      "t": 272249.9999999972,
      "d": 116.66666666662786,
      "v": 71
    },
    {
      "midi": 77,
      "hit": false,
      "t": 274033.3333333305,
      "d": 166.66666666668607,
      "v": 67
    },
    {
      "midi": 72,
      "hit": false,
      "t": 274049.9999999972,
      "d": 116.66666666668607,
      "v": 67
    },
    {
      "midi": 69,
      "hit": false,
      "t": 274049.9999999972,
      "d": 150,
      "v": 67
    },
    {
      "midi": 72,
      "hit": false,
      "t": 274333.3333333305,
      "d": 116.66666666668607,
      "v": 67
    },
    {
      "midi": 77,
      "hit": false,
      "t": 274333.3333333305,
      "d": 116.66666666668607,
      "v": 67
    },
    {
      "midi": 69,
      "hit": false,
      "t": 274333.3333333305,
      "d": 133.33333333337214,
      "v": 67
    },
    {
      "midi": 72,
      "hit": false,
      "t": 274633.3333333306,
      "d": 116.66666666668607,
      "v": 66
    },
    {
      "midi": 77,
      "hit": false,
      "t": 274633.3333333306,
      "d": 133.33333333337214,
      "v": 66
    },
    {
      "midi": 69,
      "hit": false,
      "t": 274633.3333333306,
      "d": 150.0000000000582,
      "v": 66
    },
    {
      "midi": 72,
      "hit": false,
      "t": 274933.33333333064,
      "d": 116.66666666668607,
      "v": 65
    },
    {
      "midi": 69,
      "hit": false,
      "t": 274933.33333333064,
      "d": 133.33333333337214,
      "v": 65
    },
    {
      "midi": 77,
      "hit": false,
      "t": 274933.33333333064,
      "d": 133.33333333337214,
      "v": 65
    },
    {
      "midi": 77,
      "hit": false,
      "t": 275216.666666664,
      "d": 116.66666666668607,
      "v": 64
    },
    {
      "midi": 69,
      "hit": false,
      "t": 275216.666666664,
      "d": 150.0000000000582,
      "v": 64
    },
    {
      "midi": 72,
      "hit": false,
      "t": 275233.3333333307,
      "d": 116.66666666668607,
      "v": 64
    },
    {
      "midi": 72,
      "hit": false,
      "t": 275533.33333333075,
      "d": 100,
      "v": 64
    },
    {
      "midi": 69,
      "hit": false,
      "t": 275533.33333333075,
      "d": 116.66666666668607,
      "v": 64
    },
    {
      "midi": 77,
      "hit": false,
      "t": 275533.33333333075,
      "d": 116.66666666668607,
      "v": 64
    },
    {
      "midi": 65,
      "hit": false,
      "t": 275833.33333333075,
      "d": 133.33333333331393,
      "v": 63
    },
    {
      "midi": 69,
      "hit": false,
      "t": 275833.33333333075,
      "d": 150,
      "v": 63
    },
    {
      "midi": 62,
      "hit": false,
      "t": 275833.33333333075,
      "d": 166.66666666668607,
      "v": 63
    },
    {
      "midi": 65,
      "hit": false,
      "t": 276116.6666666641,
      "d": 116.66666666668607,
      "v": 62
    },
    {
      "midi": 69,
      "hit": false,
      "t": 276116.6666666641,
      "d": 133.33333333337214,
      "v": 62
    },
    {
      "midi": 62,
      "hit": false,
      "t": 276116.6666666641,
      "d": 150.0000000000582,
      "v": 62
    },
    {
      "midi": 65,
      "hit": false,
      "t": 276416.6666666642,
      "d": 116.66666666668607,
      "v": 61
    },
    {
      "midi": 69,
      "hit": false,
      "t": 276416.6666666642,
      "d": 133.33333333337214,
      "v": 61
    },
    {
      "midi": 62,
      "hit": false,
      "t": 276416.6666666642,
      "d": 150.0000000000582,
      "v": 61
    },
    {
      "midi": 65,
      "hit": false,
      "t": 276716.66666666424,
      "d": 116.66666666668607,
      "v": 61
    },
    {
      "midi": 62,
      "hit": false,
      "t": 276716.66666666424,
      "d": 133.33333333337214,
      "v": 61
    },
    {
      "midi": 69,
      "hit": false,
      "t": 276716.66666666424,
      "d": 133.33333333337214,
      "v": 61
    },
    {
      "midi": 69,
      "hit": false,
      "t": 277016.6666666643,
      "d": 100,
      "v": 60
    },
    {
      "midi": 65,
      "hit": false,
      "t": 277016.6666666643,
      "d": 116.66666666668607,
      "v": 60
    },
    {
      "midi": 62,
      "hit": false,
      "t": 277016.6666666643,
      "d": 133.33333333337214,
      "v": 60
    },
    {
      "midi": 65,
      "hit": false,
      "t": 277316.66666666436,
      "d": 100,
      "v": 59
    },
    {
      "midi": 62,
      "hit": false,
      "t": 277316.66666666436,
      "d": 116.66666666668607,
      "v": 59
    },
    {
      "midi": 69,
      "hit": false,
      "t": 277316.66666666436,
      "d": 116.66666666668607,
      "v": 59
    },
    {
      "midi": 74,
      "hit": false,
      "t": 277616.66666666436,
      "d": 133.33333333331393,
      "v": 58
    },
    {
      "midi": 79,
      "hit": false,
      "t": 277616.66666666436,
      "d": 150,
      "v": 58
    },
    {
      "midi": 70,
      "hit": false,
      "t": 277616.66666666436,
      "d": 166.66666666668607,
      "v": 58
    },
    {
      "midi": 74,
      "hit": false,
      "t": 277916.66666666436,
      "d": 116.66666666668607,
      "v": 58
    },
    {
      "midi": 79,
      "hit": false,
      "t": 277916.66666666436,
      "d": 116.66666666668607,
      "v": 58
    },
    {
      "midi": 70,
      "hit": false,
      "t": 277916.66666666436,
      "d": 133.33333333337214,
      "v": 58
    },
    {
      "midi": 74,
      "hit": false,
      "t": 278199.99999999773,
      "d": 116.66666666668607,
      "v": 57
    },
    {
      "midi": 70,
      "hit": false,
      "t": 278199.99999999773,
      "d": 150,
      "v": 57
    },
    {
      "midi": 79,
      "hit": false,
      "t": 278199.99999999773,
      "d": 150,
      "v": 57
    },
    {
      "midi": 74,
      "hit": false,
      "t": 278499.99999999773,
      "d": 116.66666666668607,
      "v": 56
    },
    {
      "midi": 79,
      "hit": false,
      "t": 278499.99999999773,
      "d": 133.33333333337214,
      "v": 56
    },
    {
      "midi": 70,
      "hit": false,
      "t": 278516.6666666644,
      "d": 116.66666666668607,
      "v": 56
    },
    {
      "midi": 74,
      "hit": false,
      "t": 278799.9999999978,
      "d": 116.66666666668607,
      "v": 55
    },
    {
      "midi": 79,
      "hit": false,
      "t": 278799.9999999978,
      "d": 116.66666666668607,
      "v": 55
    },
    {
      "midi": 70,
      "hit": false,
      "t": 278799.9999999978,
      "d": 133.33333333337214,
      "v": 55
    },
    {
      "midi": 74,
      "hit": false,
      "t": 279099.99999999785,
      "d": 100,
      "v": 55
    },
    {
      "midi": 70,
      "hit": false,
      "t": 279099.99999999785,
      "d": 133.33333333331393,
      "v": 55
    },
    {
      "midi": 79,
      "hit": false,
      "t": 279099.99999999785,
      "d": 133.33333333331393,
      "v": 55
    },
    {
      "midi": 74,
      "hit": false,
      "t": 279399.99999999785,
      "d": 100,
      "v": 54
    },
    {
      "midi": 70,
      "hit": false,
      "t": 279399.99999999785,
      "d": 133.33333333331393,
      "v": 54
    },
    {
      "midi": 79,
      "hit": false,
      "t": 279399.99999999785,
      "d": 133.33333333331393,
      "v": 54
    },
    {
      "midi": 74,
      "hit": false,
      "t": 279699.99999999785,
      "d": 100,
      "v": 53
    },
    {
      "midi": 79,
      "hit": false,
      "t": 279699.99999999785,
      "d": 100,
      "v": 53
    },
    {
      "midi": 70,
      "hit": false,
      "t": 279699.99999999785,
      "d": 116.66666666668607,
      "v": 53
    },
    {
      "midi": 74,
      "hit": false,
      "t": 279999.99999999785,
      "d": 83.33333333331393,
      "v": 52
    },
    {
      "midi": 70,
      "hit": false,
      "t": 279999.99999999785,
      "d": 100,
      "v": 52
    },
    {
      "midi": 79,
      "hit": false,
      "t": 279999.99999999785,
      "d": 100,
      "v": 52
    },
    {
      "midi": 74,
      "hit": false,
      "t": 280299.99999999785,
      "d": 100,
      "v": 52
    },
    {
      "midi": 79,
      "hit": false,
      "t": 280299.99999999785,
      "d": 100,
      "v": 52
    },
    {
      "midi": 70,
      "hit": false,
      "t": 280299.99999999785,
      "d": 116.66666666668607,
      "v": 52
    },
    {
      "midi": 74,
      "hit": false,
      "t": 280599.99999999785,
      "d": 83.33333333331393,
      "v": 51
    },
    {
      "midi": 79,
      "hit": false,
      "t": 280599.99999999785,
      "d": 100,
      "v": 51
    },
    {
      "midi": 70,
      "hit": false,
      "t": 280599.99999999785,
      "d": 116.66666666668607,
      "v": 51
    },
    {
      "midi": 79,
      "hit": false,
      "t": 280883.3333333312,
      "d": 100,
      "v": 50
    },
    {
      "midi": 74,
      "hit": false,
      "t": 280899.9999999979,
      "d": 83.33333333331393,
      "v": 50
    },
    {
      "midi": 70,
      "hit": false,
      "t": 280899.9999999979,
      "d": 116.66666666662786,
      "v": 50
    },
    {
      "midi": 64,
      "hit": false,
      "t": 281183.3333333312,
      "d": 150,
      "v": 49
    },
    {
      "midi": 60,
      "hit": false,
      "t": 281183.3333333312,
      "d": 166.66666666668607,
      "v": 49
    },
    {
      "midi": 67,
      "hit": false,
      "t": 281183.3333333312,
      "d": 166.66666666668607,
      "v": 49
    },
    {
      "midi": 64,
      "hit": false,
      "t": 281483.3333333312,
      "d": 116.66666666668607,
      "v": 49
    },
    {
      "midi": 67,
      "hit": false,
      "t": 281483.3333333312,
      "d": 133.33333333337214,
      "v": 49
    },
    {
      "midi": 60,
      "hit": false,
      "t": 281483.3333333312,
      "d": 150.0000000000582,
      "v": 49
    },
    {
      "midi": 64,
      "hit": false,
      "t": 281783.3333333313,
      "d": 116.66666666668607,
      "v": 48
    },
    {
      "midi": 60,
      "hit": false,
      "t": 281783.3333333313,
      "d": 150,
      "v": 48
    },
    {
      "midi": 67,
      "hit": false,
      "t": 281783.3333333313,
      "d": 150,
      "v": 48
    },
    {
      "midi": 64,
      "hit": false,
      "t": 282083.3333333313,
      "d": 116.66666666668607,
      "v": 47
    },
    {
      "midi": 60,
      "hit": false,
      "t": 282083.3333333313,
      "d": 133.33333333337214,
      "v": 47
    },
    {
      "midi": 67,
      "hit": false,
      "t": 282083.3333333313,
      "d": 133.33333333337214,
      "v": 47
    },
    {
      "midi": 64,
      "hit": false,
      "t": 282383.33333333133,
      "d": 116.66666666668607,
      "v": 46
    },
    {
      "midi": 67,
      "hit": false,
      "t": 282383.33333333133,
      "d": 116.66666666668607,
      "v": 46
    },
    {
      "midi": 60,
      "hit": false,
      "t": 282383.33333333133,
      "d": 133.33333333337214,
      "v": 46
    },
    {
      "midi": 64,
      "hit": false,
      "t": 282683.3333333314,
      "d": 100,
      "v": 46
    },
    {
      "midi": 60,
      "hit": false,
      "t": 282683.3333333314,
      "d": 116.66666666668607,
      "v": 46
    },
    {
      "midi": 67,
      "hit": false,
      "t": 282683.3333333314,
      "d": 116.66666666668607,
      "v": 46
    },
    {
      "midi": 64,
      "hit": false,
      "t": 282983.3333333314,
      "d": 83.33333333331393,
      "v": 45
    },
    {
      "midi": 60,
      "hit": false,
      "t": 282983.3333333314,
      "d": 116.66666666662786,
      "v": 45
    },
    {
      "midi": 67,
      "hit": false,
      "t": 282983.3333333314,
      "d": 116.66666666662786,
      "v": 45
    },
    {
      "midi": 67,
      "hit": false,
      "t": 283266.6666666647,
      "d": 116.66666666668607,
      "v": 44
    },
    {
      "midi": 60,
      "hit": false,
      "t": 283266.6666666647,
      "d": 133.33333333337214,
      "v": 44
    },
    {
      "midi": 64,
      "hit": false,
      "t": 283283.3333333314,
      "d": 100,
      "v": 44
    },
    {
      "midi": 67,
      "hit": false,
      "t": 283566.66666666477,
      "d": 116.66666666668607,
      "v": 43
    },
    {
      "midi": 64,
      "hit": false,
      "t": 283583.33333333145,
      "d": 83.33333333331393,
      "v": 43
    },
    {
      "midi": 60,
      "hit": false,
      "t": 283583.33333333145,
      "d": 100,
      "v": 43
    },
    {
      "midi": 60,
      "hit": false,
      "t": 283866.66666666477,
      "d": 133.33333333337214,
      "v": 43
    },
    {
      "midi": 64,
      "hit": false,
      "t": 283883.33333333145,
      "d": 83.33333333331393,
      "v": 43
    },
    {
      "midi": 67,
      "hit": false,
      "t": 283883.33333333145,
      "d": 100,
      "v": 43
    },
    {
      "midi": 64,
      "hit": false,
      "t": 284166.6666666648,
      "d": 100,
      "v": 42
    },
    {
      "midi": 67,
      "hit": false,
      "t": 284166.6666666648,
      "d": 116.66666666668607,
      "v": 42
    },
    {
      "midi": 60,
      "hit": false,
      "t": 284166.6666666648,
      "d": 133.33333333337214,
      "v": 42
    },
    {
      "midi": 64,
      "hit": false,
      "t": 284466.6666666649,
      "d": 100,
      "v": 41
    },
    {
      "midi": 67,
      "hit": false,
      "t": 284466.6666666649,
      "d": 100,
      "v": 41
    },
    {
      "midi": 60,
      "hit": false,
      "t": 284466.6666666649,
      "d": 116.66666666668607,
      "v": 41
    },
    {
      "midi": 72,
      "hit": false,
      "t": 284766.6666666649,
      "d": 133.33333333331393,
      "v": 40
    },
    {
      "midi": 77,
      "hit": false,
      "t": 284766.6666666649,
      "d": 150,
      "v": 40
    },
    {
      "midi": 69,
      "hit": false,
      "t": 284766.6666666649,
      "d": 166.66666666668607,
      "v": 40
    },
    {
      "midi": 72,
      "hit": false,
      "t": 285066.6666666649,
      "d": 116.66666666668607,
      "v": 40
    },
    {
      "midi": 77,
      "hit": false,
      "t": 285066.6666666649,
      "d": 116.66666666668607,
      "v": 40
    },
    {
      "midi": 69,
      "hit": false,
      "t": 285066.6666666649,
      "d": 133.33333333337214,
      "v": 40
    },
    {
      "midi": 72,
      "hit": false,
      "t": 285366.66666666494,
      "d": 116.66666666668607,
      "v": 39
    },
    {
      "midi": 77,
      "hit": false,
      "t": 285366.66666666494,
      "d": 133.33333333337214,
      "v": 39
    },
    {
      "midi": 69,
      "hit": false,
      "t": 285366.66666666494,
      "d": 150.0000000000582,
      "v": 39
    },
    {
      "midi": 72,
      "hit": false,
      "t": 285666.666666665,
      "d": 116.66666666668607,
      "v": 38
    },
    {
      "midi": 69,
      "hit": false,
      "t": 285666.666666665,
      "d": 133.33333333337214,
      "v": 38
    },
    {
      "midi": 77,
      "hit": false,
      "t": 285666.666666665,
      "d": 133.33333333337214,
      "v": 38
    },
    {
      "midi": 77,
      "hit": false,
      "t": 285966.66666666506,
      "d": 100,
      "v": 37
    },
    {
      "midi": 69,
      "hit": false,
      "t": 285966.66666666506,
      "d": 116.66666666668607,
      "v": 37
    },
    {
      "midi": 72,
      "hit": false,
      "t": 285966.66666666506,
      "d": 116.66666666668607,
      "v": 37
    },
    {
      "midi": 72,
      "hit": false,
      "t": 286249.9999999984,
      "d": 116.66666666668607,
      "v": 37
    },
    {
      "midi": 69,
      "hit": false,
      "t": 286249.9999999984,
      "d": 133.33333333337214,
      "v": 37
    },
    {
      "midi": 77,
      "hit": false,
      "t": 286249.9999999984,
      "d": 133.33333333337214,
      "v": 37
    },
    {
      "midi": 64,
      "hit": false,
      "t": 286549.9999999985,
      "d": 150,
      "v": 36
    },
    {
      "midi": 67,
      "hit": false,
      "t": 286549.9999999985,
      "d": 166.66666666668607,
      "v": 36
    },
    {
      "midi": 60,
      "hit": false,
      "t": 286566.6666666652,
      "d": 166.66666666668607,
      "v": 36
    },
    {
      "midi": 64,
      "hit": false,
      "t": 286849.99999999854,
      "d": 116.66666666668607,
      "v": 35
    },
    {
      "midi": 60,
      "hit": false,
      "t": 286849.99999999854,
      "d": 133.33333333337214,
      "v": 35
    },
    {
      "midi": 67,
      "hit": false,
      "t": 286849.99999999854,
      "d": 133.33333333337214,
      "v": 35
    },
    {
      "midi": 64,
      "hit": false,
      "t": 287149.9999999986,
      "d": 116.66666666668607,
      "v": 34
    },
    {
      "midi": 67,
      "hit": false,
      "t": 287149.9999999986,
      "d": 133.33333333337214,
      "v": 34
    },
    {
      "midi": 60,
      "hit": false,
      "t": 287149.9999999986,
      "d": 150.0000000000582,
      "v": 34
    },
    {
      "midi": 64,
      "hit": false,
      "t": 287449.99999999866,
      "d": 116.66666666668607,
      "v": 34
    },
    {
      "midi": 60,
      "hit": false,
      "t": 287449.99999999866,
      "d": 133.33333333337214,
      "v": 34
    },
    {
      "midi": 67,
      "hit": false,
      "t": 287449.99999999866,
      "d": 133.33333333337214,
      "v": 34
    },
    {
      "midi": 67,
      "hit": false,
      "t": 287749.9999999987,
      "d": 100,
      "v": 33
    },
    {
      "midi": 64,
      "hit": false,
      "t": 287749.9999999987,
      "d": 116.66666666668607,
      "v": 33
    },
    {
      "midi": 60,
      "hit": false,
      "t": 287749.9999999987,
      "d": 133.33333333337214,
      "v": 33
    },
    {
      "midi": 64,
      "hit": false,
      "t": 288049.9999999988,
      "d": 100,
      "v": 32
    },
    {
      "midi": 60,
      "hit": false,
      "t": 288049.9999999988,
      "d": 116.66666666668607,
      "v": 32
    },
    {
      "midi": 67,
      "hit": false,
      "t": 288049.9999999988,
      "d": 116.66666666668607,
      "v": 32
    },
    {
      "midi": 72,
      "hit": false,
      "t": 288349.9999999988,
      "d": 133.33333333331393,
      "v": 31
    },
    {
      "midi": 77,
      "hit": false,
      "t": 288349.9999999988,
      "d": 150,
      "v": 31
    },
    {
      "midi": 69,
      "hit": false,
      "t": 288349.9999999988,
      "d": 166.66666666668607,
      "v": 31
    },
    {
      "midi": 72,
      "hit": false,
      "t": 288649.9999999988,
      "d": 116.66666666668607,
      "v": 31
    },
    {
      "midi": 77,
      "hit": false,
      "t": 288649.9999999988,
      "d": 116.66666666668607,
      "v": 31
    },
    {
      "midi": 69,
      "hit": false,
      "t": 288649.9999999988,
      "d": 133.33333333337214,
      "v": 31
    },
    {
      "midi": 69,
      "hit": false,
      "t": 288933.33333333215,
      "d": 150.0000000000582,
      "v": 30
    },
    {
      "midi": 77,
      "hit": false,
      "t": 288933.33333333215,
      "d": 150.0000000000582,
      "v": 30
    },
    {
      "midi": 72,
      "hit": false,
      "t": 288949.99999999884,
      "d": 116.66666666668607,
      "v": 30
    },
    {
      "midi": 72,
      "hit": false,
      "t": 289233.3333333322,
      "d": 116.66666666668607,
      "v": 29
    },
    {
      "midi": 69,
      "hit": false,
      "t": 289233.3333333322,
      "d": 133.33333333337214,
      "v": 29
    },
    {
      "midi": 77,
      "hit": false,
      "t": 289233.3333333322,
      "d": 133.33333333337214,
      "v": 29
    },
    {
      "midi": 72,
      "hit": false,
      "t": 289533.33333333227,
      "d": 116.66666666668607,
      "v": 28
    },
    {
      "midi": 77,
      "hit": false,
      "t": 289533.33333333227,
      "d": 116.66666666668607,
      "v": 28
    },
    {
      "midi": 69,
      "hit": false,
      "t": 289533.33333333227,
      "d": 133.33333333337214,
      "v": 28
    },
    {
      "midi": 72,
      "hit": false,
      "t": 289833.3333333323,
      "d": 100,
      "v": 28
    },
    {
      "midi": 69,
      "hit": false,
      "t": 289833.3333333323,
      "d": 133.33333333331393,
      "v": 28
    },
    {
      "midi": 77,
      "hit": false,
      "t": 289833.3333333323,
      "d": 133.33333333331393,
      "v": 28
    },
    {
      "midi": 65,
      "hit": false,
      "t": 290133.3333333323,
      "d": 133.33333333331393,
      "v": 27
    },
    {
      "midi": 62,
      "hit": false,
      "t": 290133.3333333323,
      "d": 166.66666666662786,
      "v": 27
    },
    {
      "midi": 69,
      "hit": false,
      "t": 290133.3333333323,
      "d": 166.66666666662786,
      "v": 27
    },
    {
      "midi": 65,
      "hit": false,
      "t": 290433.33333333227,
      "d": 116.66666666668607,
      "v": 26
    },
    {
      "midi": 69,
      "hit": false,
      "t": 290433.33333333227,
      "d": 116.66666666668607,
      "v": 26
    },
    {
      "midi": 62,
      "hit": false,
      "t": 290433.33333333227,
      "d": 133.33333333337214,
      "v": 26
    },
    {
      "midi": 65,
      "hit": false,
      "t": 290733.3333333323,
      "d": 116.66666666668607,
      "v": 25
    },
    {
      "midi": 69,
      "hit": false,
      "t": 290733.3333333323,
      "d": 133.33333333337214,
      "v": 25
    },
    {
      "midi": 62,
      "hit": false,
      "t": 290733.3333333323,
      "d": 150.0000000000582,
      "v": 25
    },
    {
      "midi": 65,
      "hit": false,
      "t": 291033.3333333324,
      "d": 116.66666666668607,
      "v": 25
    },
    {
      "midi": 62,
      "hit": false,
      "t": 291033.3333333324,
      "d": 133.33333333337214,
      "v": 25
    },
    {
      "midi": 69,
      "hit": false,
      "t": 291033.3333333324,
      "d": 133.33333333337214,
      "v": 25
    },
    {
      "midi": 69,
      "hit": false,
      "t": 291316.66666666575,
      "d": 116.66666666668607,
      "v": 24
    },
    {
      "midi": 65,
      "hit": false,
      "t": 291333.33333333244,
      "d": 116.66666666668607,
      "v": 24
    },
    {
      "midi": 62,
      "hit": false,
      "t": 291333.33333333244,
      "d": 133.33333333337214,
      "v": 24
    },
    {
      "midi": 65,
      "hit": false,
      "t": 291633.3333333325,
      "d": 83.33333333331393,
      "v": 23
    },
    {
      "midi": 62,
      "hit": false,
      "t": 291633.3333333325,
      "d": 116.66666666662786,
      "v": 23
    },
    {
      "midi": 69,
      "hit": false,
      "t": 291633.3333333325,
      "d": 116.66666666662786,
      "v": 23
    },
    {
      "midi": 74,
      "hit": false,
      "t": 291933.33333333244,
      "d": 133.33333333331393,
      "v": 22
    },
    {
      "midi": 70,
      "hit": false,
      "t": 291933.33333333244,
      "d": 150,
      "v": 22
    },
    {
      "midi": 79,
      "hit": false,
      "t": 291933.33333333244,
      "d": 150,
      "v": 22
    },
    {
      "midi": 74,
      "hit": false,
      "t": 292216.66666666575,
      "d": 116.66666666668607,
      "v": 22
    },
    {
      "midi": 79,
      "hit": false,
      "t": 292216.66666666575,
      "d": 133.33333333337214,
      "v": 22
    },
    {
      "midi": 70,
      "hit": false,
      "t": 292216.66666666575,
      "d": 150.0000000000582,
      "v": 22
    },
    {
      "midi": 74,
      "hit": false,
      "t": 292516.6666666658,
      "d": 116.66666666668607,
      "v": 21
    },
    {
      "midi": 79,
      "hit": false,
      "t": 292516.6666666658,
      "d": 133.33333333337214,
      "v": 21
    },
    {
      "midi": 70,
      "hit": false,
      "t": 292516.6666666658,
      "d": 150.0000000000582,
      "v": 21
    },
    {
      "midi": 74,
      "hit": false,
      "t": 292816.6666666659,
      "d": 116.66666666668607,
      "v": 20
    },
    {
      "midi": 70,
      "hit": false,
      "t": 292816.6666666659,
      "d": 133.33333333337214,
      "v": 20
    },
    {
      "midi": 79,
      "hit": false,
      "t": 292816.6666666659,
      "d": 133.33333333337214,
      "v": 20
    },
    {
      "midi": 79,
      "hit": false,
      "t": 293116.66666666593,
      "d": 100,
      "v": 19
    },
    {
      "midi": 74,
      "hit": false,
      "t": 293116.66666666593,
      "d": 116.66666666668607,
      "v": 19
    },
    {
      "midi": 70,
      "hit": false,
      "t": 293116.66666666593,
      "d": 133.33333333337214,
      "v": 19
    },
    {
      "midi": 74,
      "hit": false,
      "t": 293416.666666666,
      "d": 100,
      "v": 19
    },
    {
      "midi": 70,
      "hit": false,
      "t": 293416.666666666,
      "d": 116.66666666668607,
      "v": 19
    },
    {
      "midi": 79,
      "hit": false,
      "t": 293416.666666666,
      "d": 116.66666666668607,
      "v": 19
    },
    {
      "midi": 70,
      "hit": false,
      "t": 293699.99999999936,
      "d": 133.33333333331393,
      "v": 18
    },
    {
      "midi": 79,
      "hit": false,
      "t": 293699.99999999936,
      "d": 133.33333333331393,
      "v": 18
    },
    {
      "midi": 74,
      "hit": false,
      "t": 293716.66666666605,
      "d": 83.33333333331393,
      "v": 18
    },
    {
      "midi": 74,
      "hit": false,
      "t": 293999.99999999936,
      "d": 116.66666666668607,
      "v": 17
    },
    {
      "midi": 79,
      "hit": false,
      "t": 293999.99999999936,
      "d": 116.66666666668607,
      "v": 17
    },
    {
      "midi": 70,
      "hit": false,
      "t": 293999.99999999936,
      "d": 133.33333333337214,
      "v": 17
    },
    {
      "midi": 74,
      "hit": false,
      "t": 294299.9999999994,
      "d": 100,
      "v": 16
    },
    {
      "midi": 70,
      "hit": false,
      "t": 294299.9999999994,
      "d": 116.66666666668607,
      "v": 16
    },
    {
      "midi": 79,
      "hit": false,
      "t": 294299.9999999994,
      "d": 116.66666666668607,
      "v": 16
    },
    {
      "midi": 70,
      "hit": false,
      "t": 294599.9999999994,
      "d": 133.33333333337214,
      "v": 16
    },
    {
      "midi": 74,
      "hit": false,
      "t": 294616.6666666661,
      "d": 83.33333333331393,
      "v": 16
    },
    {
      "midi": 79,
      "hit": false,
      "t": 294616.6666666661,
      "d": 100,
      "v": 16
    },
    {
      "midi": 74,
      "hit": false,
      "t": 294899.9999999995,
      "d": 100,
      "v": 15
    },
    {
      "midi": 79,
      "hit": false,
      "t": 294899.9999999995,
      "d": 116.66666666668607,
      "v": 15
    },
    {
      "midi": 70,
      "hit": false,
      "t": 294899.9999999995,
      "d": 133.33333333337214,
      "v": 15
    },
    {
      "midi": 74,
      "hit": false,
      "t": 295199.99999999953,
      "d": 100,
      "v": 14
    },
    {
      "midi": 79,
      "hit": false,
      "t": 295199.99999999953,
      "d": 100,
      "v": 14
    },
    {
      "midi": 70,
      "hit": false,
      "t": 295199.99999999953,
      "d": 116.66666666668607,
      "v": 14
    },
    {
      "midi": 64,
      "hit": false,
      "t": 295499.99999999953,
      "d": 133.33333333331393,
      "v": 13
    },
    {
      "midi": 60,
      "hit": false,
      "t": 295499.99999999953,
      "d": 166.66666666662786,
      "v": 13
    },
    {
      "midi": 67,
      "hit": false,
      "t": 295499.99999999953,
      "d": 166.66666666662786,
      "v": 13
    },
    {
      "midi": 64,
      "hit": false,
      "t": 295799.9999999995,
      "d": 116.66666666668607,
      "v": 13
    },
    {
      "midi": 67,
      "hit": false,
      "t": 295799.9999999995,
      "d": 116.66666666668607,
      "v": 13
    },
    {
      "midi": 60,
      "hit": false,
      "t": 295799.9999999995,
      "d": 133.33333333337214,
      "v": 13
    },
    {
      "midi": 64,
      "hit": false,
      "t": 296099.99999999953,
      "d": 116.66666666668607,
      "v": 12
    },
    {
      "midi": 67,
      "hit": false,
      "t": 296099.99999999953,
      "d": 133.33333333337214,
      "v": 12
    },
    {
      "midi": 60,
      "hit": false,
      "t": 296099.99999999953,
      "d": 150.0000000000582,
      "v": 12
    },
    {
      "midi": 60,
      "hit": false,
      "t": 296399.9999999996,
      "d": 116.66666666668607,
      "v": 11
    },
    {
      "midi": 64,
      "hit": false,
      "t": 296399.9999999996,
      "d": 116.66666666668607,
      "v": 11
    },
    {
      "midi": 67,
      "hit": false,
      "t": 296399.9999999996,
      "d": 116.66666666668607,
      "v": 11
    },
    {
      "midi": 64,
      "hit": false,
      "t": 296683.33333333296,
      "d": 116.66666666668607,
      "v": 10
    },
    {
      "midi": 67,
      "hit": false,
      "t": 296683.33333333296,
      "d": 116.66666666668607,
      "v": 10
    },
    {
      "midi": 60,
      "hit": false,
      "t": 296683.33333333296,
      "d": 133.33333333337214,
      "v": 10
    }
  ]
}