{
  "jsonPath": "Electronic/Diva House/Rozalla/are-you-ready-to-fly.json",
  "path": "Electronic\\Diva House\\Rozalla\\Are You Ready To Fly.mid",
  "name": "Are You Ready To Fly",
  "difficulty": "Advanced",
  "bpm": 200,
  "notes": [
    {
      "midi": 48,
      "hit": false,
      "t": 22000,
      "d": 234.375,
      "v": 80
    },
    {
      "midi": 63,
      "hit": false,
      "t": 22250,
      "d": 109.375,
      "v": 86
    },
    {
      "midi": 67,
      "hit": false,
      "t": 22250,
      "d": 109.375,
      "v": 87
    },
    {
      "midi": 70,
      "hit": false,
      "t": 22250,
      "d": 109.375,
      "v": 78
    },
    {
      "midi": 48,
      "hit": false,
      "t": 22500,
      "d": 109.375,
      "v": 78
    },
    {
      "midi": 63,
      "hit": false,
      "t": 22625,
      "d": 109.375,
      "v": 80
    },
    {
      "midi": 67,
      "hit": false,
      "t": 22625,
      "d": 109.375,
      "v": 80
    },
    {
      "midi": 70,
      "hit": false,
      "t": 22625,
      "d": 109.375,
      "v": 78
    },
    {
      "midi": 48,
      "hit": false,
      "t": 22875,
      "d": 109.375,
      "v": 79
    },
    {
      "midi": 63,
      "hit": false,
      "t": 23000,
      "d": 109.375,
      "v": 81
    },
    {
      "midi": 67,
      "hit": false,
      "t": 23000,
      "d": 109.375,
      "v": 86
    },
    {
      "midi": 70,
      "hit": false,
      "t": 23000,
      "d": 109.375,
      "v": 85
    },
    {
      "midi": 48,
      "hit": false,
      "t": 23250,
      "d": 109.375,
      "v": 86
    },
    {
      "midi": 63,
      "hit": false,
      "t": 23375,
      "d": 109.375,
      "v": 83
    },
    {
      "midi": 67,
      "hit": false,
      "t": 23375,
      "d": 109.375,
      "v": 83
    },
    {
      "midi": 70,
      "hit": false,
      "t": 23375,
      "d": 109.375,
      "v": 80
    },
    {
      "midi": 48,
      "hit": false,
      "t": 23625,
      "d": 109.375,
      "v": 80
    },
    {
      "midi": 63,
      "hit": false,
      "t": 23750,
      "d": 109.375,
      "v": 85
    },
    {
      "midi": 67,
      "hit": false,
      "t": 23750,
      "d": 109.375,
      "v": 82
    },
    {
      "midi": 70,
      "hit": false,
      "t": 23750,
      "d": 109.375,
      "v": 86
    },
    {
      "midi": 46,
      "hit": false,
      "t": 24000,
      "d": 234.375,
      "v": 84
    },
    {
      "midi": 58,
      "hit": false,
      "t": 24250,
      "d": 109.375,
      "v": 85
    },
    {
      "midi": 62,
      "hit": false,
      "t": 24250,
      "d": 109.375,
      "v": 81
    },
    {
      "midi": 65,
      "hit": false,
      "t": 24250,
      "d": 109.375,
      "v": 87
    },
    {
      "midi": 46,
      "hit": false,
      "t": 24500,
      "d": 109.375,
      "v": 84
    },
    {
      "midi": 58,
      "hit": false,
      "t": 24625,
      "d": 109.375,
      "v": 80
    },
    {
      "midi": 62,
      "hit": false,
      "t": 24625,
      "d": 109.375,
      "v": 87
    },
    {
      "midi": 65,
      "hit": false,
      "t": 24625,
      "d": 109.375,
      "v": 85
    },
    {
      "midi": 46,
      "hit": false,
      "t": 24875,
      "d": 109.375,
      "v": 79
    },
    {
      "midi": 58,
      "hit": false,
      "t": 25000,
      "d": 109.375,
      "v": 79
    },
    {
      "midi": 62,
      "hit": false,
      "t": 25000,
      "d": 109.375,
      "v": 84
    },
    {
      "midi": 65,
      "hit": false,
      "t": 25000,
      "d": 109.375,
      "v": 78
    },
    {
      "midi": 46,
      "hit": false,
      "t": 25250,
      "d": 109.375,
      "v": 84
    },
    {
      "midi": 58,
      "hit": false,
      "t": 25375,
      "d": 109.375,
      "v": 82
    },
    {
      "midi": 62,
      "hit": false,
      "t": 25375,
      "d": 109.375,
      "v": 82
    },
    {
      "midi": 65,
      "hit": false,
      "t": 25375,
      "d": 109.375,
      "v": 83
    },
    {
      "midi": 46,
      "hit": false,
      "t": 25625,
      "d": 109.375,
      "v": 86
    },
    {
      "midi": 58,
      "hit": false,
      "t": 25750,
      "d": 109.375,
      "v": 80
    },
    {
      "midi": 62,
      "hit": false,
      "t": 25750,
      "d": 109.375,
      "v": 79
    },
    {
      "midi": 65,
      "hit": false,
      "t": 25750,
      "d": 109.375,
      "v": 86
    },
    {
      "midi": 44,
      "hit": false,
      "t": 26000,
      "d": 234.375,
      "v": 82
    },
    {
      "midi": 60,
      "hit": false,
      "t": 26250,
      "d": 109.375,
      "v": 87
    },
    {
      "midi": 63,
      "hit": false,
      "t": 26250,
      "d": 109.375,
      "v": 86
    },
    {
      "midi": 67,
      "hit": false,
      "t": 26250,
      "d": 109.375,
      "v": 86
    },
    {
      "midi": 44,
      "hit": false,
      "t": 26500,
      "d": 109.375,
      "v": 82
    },
    {
      "midi": 60,
      "hit": false,
      "t": 26625,
      "d": 109.375,
      "v": 78
    },
    {
      "midi": 63,
      "hit": false,
      "t": 26625,
      "d": 109.375,
      "v": 83
    },
    {
      "midi": 67,
      "hit": false,
      "t": 26625,
      "d": 109.375,
      "v": 83
    },
    {
      "midi": 44,
      "hit": false,
      "t": 26875,
      "d": 109.375,
      "v": 79
    },
    {
      "midi": 60,
      "hit": false,
      "t": 27000,
      "d": 109.375,
      "v": 80
    },
    {
      "midi": 63,
      "hit": false,
      "t": 27000,
      "d": 109.375,
      "v": 80
    },
    {
      "midi": 67,
      "hit": false,
      "t": 27000,
      "d": 109.375,
      "v": 87
    },
    {
      "midi": 44,
      "hit": false,
      "t": 27250,
      "d": 109.375,
      "v": 78
    },
    {
      "midi": 60,
      "hit": false,
      "t": 27375,
      "d": 109.375,
      "v": 85
    },
    {
      "midi": 63,
      "hit": false,
      "t": 27375,
      "d": 109.375,
      "v": 80
    },
    {
      "midi": 67,
      "hit": false,
      "t": 27375,
      "d": 109.375,
      "v": 84
    },
    {
      "midi": 44,
      "hit": false,
      "t": 27625,
      "d": 109.375,
      "v": 82
    },
    {
      "midi": 60,
      "hit": false,
      "t": 27750,
      "d": 109.375,
      "v": 82
    },
    {
      "midi": 63,
      "hit": false,
      "t": 27750,
      "d": 109.375,
      "v": 84
    },
    {
      "midi": 67,
      "hit": false,
      "t": 27750,
      "d": 109.375,
      "v": 79
    },
    {
      "midi": 46,
      "hit": false,
      "t": 28000,
      "d": 234.375,
      "v": 85
    },
    {
      "midi": 62,
      "hit": false,
      "t": 28250,
      "d": 109.375,
      "v": 86
    },
    {
      "midi": 65,
      "hit": false,
      "t": 28250,
      "d": 109.375,
      "v": 85
    },
    {
      "midi": 70,
      "hit": false,
      "t": 28250,
      "d": 109.375,
      "v": 79
    },
    {
      "midi": 46,
      "hit": false,
      "t": 28500,
      "d": 109.375,
      "v": 83
    },
    {
      "midi": 62,
      "hit": false,
      "t": 28625,
      "d": 109.375,
      "v": 79
    },
    {
      "midi": 65,
      "hit": false,
      "t": 28625,
      "d": 109.375,
      "v": 83
    },
    {
      "midi": 70,
      "hit": false,
      "t": 28625,
      "d": 109.375,
      "v": 85
    },
    {
      "midi": 46,
      "hit": false,
      "t": 28875,
      "d": 109.375,
      "v": 84
    },
    {
      "midi": 63,
      "hit": false,
      "t": 29000,
      "d": 109.375,
      "v": 83
    },
    {
      "midi": 65,
      "hit": false,
      "t": 29000,
      "d": 109.375,
      "v": 87
    },
    {
      "midi": 70,
      "hit": false,
      "t": 29000,
      "d": 109.375,
      "v": 81
    },
    {
      "midi": 63,
      "hit": false,
      "t": 29250,
      "d": 109.375,
      "v": 79
    },
    {
      "midi": 65,
      "hit": false,
      "t": 29250,
      "d": 109.375,
      "v": 82
    },
    {
      "midi": 70,
      "hit": false,
      "t": 29250,
      "d": 109.375,
      "v": 86
    },
    {
      "midi": 62,
      "hit": false,
      "t": 29500,
      "d": 109.375,
      "v": 80
    },
    {
      "midi": 65,
      "hit": false,
      "t": 29500,
      "d": 109.375,
      "v": 83
    },
    {
      "midi": 70,
      "hit": false,
      "t": 29500,
      "d": 109.375,
      "v": 80
    },
    {
      "midi": 62,
      "hit": false,
      "t": 29750,
      "d": 109.375,
      "v": 78
    },
    {
      "midi": 65,
      "hit": false,
      "t": 29750,
      "d": 109.375,
      "v": 87
    },
    {
      "midi": 70,
      "hit": false,
      "t": 29750,
      "d": 109.375,
      "v": 85
    },
    {
      "midi": 48,
      "hit": false,
      "t": 30000,
      "d": 234.375,
      "v": 83
    },
    {
      "midi": 63,
      "hit": false,
      "t": 30250,
      "d": 109.375,
      "v": 85
    },
    {
      "midi": 67,
      "hit": false,
      "t": 30250,
      "d": 109.375,
      "v": 78
    },
    {
      "midi": 70,
      "hit": false,
      "t": 30250,
      "d": 109.375,
      "v": 83
    },
    {
      "midi": 48,
      "hit": false,
      "t": 30500,
      "d": 109.375,
      "v": 84
    },
    {
      "midi": 63,
      "hit": false,
      "t": 30625,
      "d": 109.375,
      "v": 85
    },
    {
      "midi": 67,
      "hit": false,
      "t": 30625,
      "d": 109.375,
      "v": 81
    },
    {
      "midi": 70,
      "hit": false,
      "t": 30625,
      "d": 109.375,
      "v": 84
    },
    {
      "midi": 48,
      "hit": false,
      "t": 30875,
      "d": 109.375,
      "v": 84
    },
    {
      "midi": 63,
      "hit": false,
      "t": 31000,
      "d": 109.375,
      "v": 81
    },
    {
      "midi": 67,
      "hit": false,
      "t": 31000,
      "d": 109.375,
      "v": 78
    },
    {
      "midi": 70,
      "hit": false,
      "t": 31000,
      "d": 109.375,
      "v": 83
    },
    {
      "midi": 48,
      "hit": false,
      "t": 31250,
      "d": 109.375,
      "v": 81
    },
    {
      "midi": 63,
      "hit": false,
      "t": 31375,
      "d": 109.375,
      "v": 78
    },
    {
      "midi": 67,
      "hit": false,
      "t": 31375,
      "d": 109.375,
      "v": 86
    },
    {
      "midi": 70,
      "hit": false,
      "t": 31375,
      "d": 109.375,
      "v": 78
    },
    {
      "midi": 48,
      "hit": false,
      "t": 31625,
      "d": 109.375,
      "v": 79
    },
    {
      "midi": 63,
      "hit": false,
      "t": 31750,
      "d": 109.375,
      "v": 80
    },
    {
      "midi": 67,
      "hit": false,
      "t": 31750,
      "d": 109.375,
      "v": 82
    },
    {
      "midi": 70,
      "hit": false,
      "t": 31750,
      "d": 109.375,
      "v": 78
    },
    {
      "midi": 46,
      "hit": false,
      "t": 32000,
      "d": 234.375,
      "v": 79
    },
    {
      "midi": 58,
      "hit": false,
      "t": 32250,
      "d": 109.375,
      "v": 81
    },
    {
      "midi": 62,
      "hit": false,
      "t": 32250,
      "d": 109.375,
      "v": 86
    },
    {
      "midi": 65,
      "hit": false,
      "t": 32250,
      "d": 109.375,
      "v": 78
    },
    {
      "midi": 46,
      "hit": false,
      "t": 32500,
      "d": 109.375,
      "v": 82
    },
    {
      "midi": 58,
      "hit": false,
      "t": 32625,
      "d": 109.375,
      "v": 83
    },
    {
      "midi": 62,
      "hit": false,
      "t": 32625,
      "d": 109.375,
      "v": 85
    },
    {
      "midi": 65,
      "hit": false,
      "t": 32625,
      "d": 109.375,
      "v": 82
    },
    {
      "midi": 46,
      "hit": false,
      "t": 32875,
      "d": 109.375,
      "v": 79
    },
    {
      "midi": 58,
      "hit": false,
      "t": 33000,
      "d": 109.375,
      "v": 84
    },
    {
      "midi": 62,
      "hit": false,
      "t": 33000,
      "d": 109.375,
      "v": 83
    },
    {
      "midi": 65,
      "hit": false,
      "t": 33000,
      "d": 109.375,
      "v": 78
    },
    {
      "midi": 46,
      "hit": false,
      "t": 33250,
      "d": 109.375,
      "v": 86
    },
    {
      "midi": 58,
      "hit": false,
      "t": 33375,
      "d": 109.375,
      "v": 84
    },
    {
      "midi": 62,
      "hit": false,
      "t": 33375,
      "d": 109.375,
      "v": 85
    },
    {
      "midi": 65,
      "hit": false,
      "t": 33375,
      "d": 109.375,
      "v": 83
    },
    {
      "midi": 46,
      "hit": false,
      "t": 33625,
      "d": 109.375,
      "v": 85
    },
    {
      "midi": 58,
      "hit": false,
      "t": 33750,
      "d": 109.375,
      "v": 83
    },
    {
      "midi": 62,
      "hit": false,
      "t": 33750,
      "d": 109.375,
      "v": 81
    },
    {
      "midi": 65,
      "hit": false,
      "t": 33750,
      "d": 109.375,
      "v": 80
    },
    {
      "midi": 44,
      "hit": false,
      "t": 34000,
      "d": 234.375,
      "v": 86
    },
    {
      "midi": 60,
      "hit": false,
      "t": 34250,
      "d": 109.375,
      "v": 81
    },
    {
      "midi": 63,
      "hit": false,
      "t": 34250,
      "d": 109.375,
      "v": 85
    },
    {
      "midi": 67,
      "hit": false,
      "t": 34250,
      "d": 109.375,
      "v": 86
    },
    {
      "midi": 44,
      "hit": false,
      "t": 34500,
      "d": 109.375,
      "v": 83
    },
    {
      "midi": 60,
      "hit": false,
      "t": 34625,
      "d": 109.375,
      "v": 85
    },
    {
      "midi": 63,
      "hit": false,
      "t": 34625,
      "d": 109.375,
      "v": 85
    },
    {
      "midi": 67,
      "hit": false,
      "t": 34625,
      "d": 109.375,
      "v": 80
    },
    {
      "midi": 44,
      "hit": false,
      "t": 34875,
      "d": 109.375,
      "v": 86
    },
    {
      "midi": 60,
      "hit": false,
      "t": 35000,
      "d": 109.375,
      "v": 83
    },
    {
      "midi": 63,
      "hit": false,
      "t": 35000,
      "d": 109.375,
      "v": 78
    },
    {
      "midi": 67,
      "hit": false,
      "t": 35000,
      "d": 109.375,
      "v": 87
    },
    {
      "midi": 44,
      "hit": false,
      "t": 35250,
      "d": 109.375,
      "v": 80
    },
    {
      "midi": 60,
      "hit": false,
      "t": 35375,
      "d": 109.375,
      "v": 78
    },
    {
      "midi": 63,
      "hit": false,
      "t": 35375,
      "d": 109.375,
      "v": 78
    },
    {
      "midi": 67,
      "hit": false,
      "t": 35375,
      "d": 109.375,
      "v": 87
    },
    {
      "midi": 44,
      "hit": false,
      "t": 35625,
      "d": 109.375,
      "v": 79
    },
    {
      "midi": 60,
      "hit": false,
      "t": 35750,
      "d": 109.375,
      "v": 84
    },
    {
      "midi": 63,
      "hit": false,
      "t": 35750,
      "d": 109.375,
      "v": 78
    },
    {
      "midi": 67,
      "hit": false,
      "t": 35750,
      "d": 109.375,
      "v": 80
    },
    {
      "midi": 46,
      "hit": false,
      "t": 36000,
      "d": 234.375,
      "v": 86
    },
    {
      "midi": 62,
      "hit": false,
      "t": 36250,
      "d": 109.375,
      "v": 82
    },
    {
      "midi": 65,
      "hit": false,
      "t": 36250,
      "d": 109.375,
      "v": 81
    },
    {
      "midi": 70,
      "hit": false,
      "t": 36250,
      "d": 109.375,
      "v": 81
    },
    {
      "midi": 46,
      "hit": false,
      "t": 36500,
      "d": 109.375,
      "v": 87
    },
    {
      "midi": 62,
      "hit": false,
      "t": 36625,
      "d": 109.375,
      "v": 86
    },
    {
      "midi": 65,
      "hit": false,
      "t": 36625,
      "d": 109.375,
      "v": 82
    },
    {
      "midi": 70,
      "hit": false,
      "t": 36625,
      "d": 109.375,
      "v": 80
    },
    {
      "midi": 46,
      "hit": false,
      "t": 36875,
      "d": 109.375,
      "v": 86
    },
    {
      "midi": 63,
      "hit": false,
      "t": 37000,
      "d": 109.375,
      "v": 84
    },
    {
      "midi": 65,
      "hit": false,
      "t": 37000,
      "d": 109.375,
      "v": 87
    },
    {
      "midi": 70,
      "hit": false,
      "t": 37000,
      "d": 109.375,
      "v": 87
    },
    {
      "midi": 63,
      "hit": false,
      "t": 37250,
      "d": 109.375,
      "v": 87
    },
    {
      "midi": 65,
      "hit": false,
      "t": 37250,
      "d": 109.375,
      "v": 81
    },
    {
      "midi": 70,
      "hit": false,
      "t": 37250,
      "d": 109.375,
      "v": 80
    },
    {
      "midi": 62,
      "hit": false,
      "t": 37500,
      "d": 109.375,
      "v": 84
    },
    {
      "midi": 65,
      "hit": false,
      "t": 37500,
      "d": 109.375,
      "v": 82
    },
    {
      "midi": 70,
      "hit": false,
      "t": 37500,
      "d": 109.375,
      "v": 80
    },
    {
      "midi": 62,
      "hit": false,
      "t": 37750,
      "d": 109.375,
      "v": 78
    },
    {
      "midi": 65,
      "hit": false,
      "t": 37750,
      "d": 109.375,
      "v": 87
    },
    {
      "midi": 70,
      "hit": false,
      "t": 37750,
      "d": 109.375,
      "v": 79
    },
    {
      "midi": 48,
      "hit": false,
      "t": 38000,
      "d": 234.375,
      "v": 87
    },
    {
      "midi": 63,
      "hit": false,
      "t": 38250,
      "d": 109.375,
      "v": 83
    },
    {
      "midi": 67,
      "hit": false,
      "t": 38250,
      "d": 109.375,
      "v": 81
    },
    {
      "midi": 70,
      "hit": false,
      "t": 38250,
      "d": 109.375,
      "v": 85
    },
    {
      "midi": 48,
      "hit": false,
      "t": 38500,
      "d": 109.375,
      "v": 78
    },
    {
      "midi": 63,
      "hit": false,
      "t": 38625,
      "d": 109.375,
      "v": 85
    },
    {
      "midi": 67,
      "hit": false,
      "t": 38625,
      "d": 109.375,
      "v": 80
    },
    {
      "midi": 70,
      "hit": false,
      "t": 38625,
      "d": 109.375,
      "v": 82
    },
    {
      "midi": 48,
      "hit": false,
      "t": 38875,
      "d": 109.375,
      "v": 80
    },
    {
      "midi": 63,
      "hit": false,
      "t": 39000,
      "d": 109.375,
      "v": 79
    },
    {
      "midi": 67,
      "hit": false,
      "t": 39000,
      "d": 109.375,
      "v": 84
    },
    {
      "midi": 70,
      "hit": false,
      "t": 39000,
      "d": 109.375,
      "v": 85
    },
    {
      "midi": 48,
      "hit": false,
      "t": 39250,
      "d": 109.375,
      "v": 84
    },
    {
      "midi": 63,
      "hit": false,
      "t": 39375,
      "d": 109.375,
      "v": 81
    },
    {
      "midi": 67,
      "hit": false,
      "t": 39375,
      "d": 109.375,
      "v": 87
    },
    {
      "midi": 70,
      "hit": false,
      "t": 39375,
      "d": 109.375,
      "v": 87
    },
    {
      "midi": 48,
      "hit": false,
      "t": 39625,
      "d": 109.375,
      "v": 81
    },
    {
      "midi": 63,
      "hit": false,
      "t": 39750,
      "d": 109.375,
      "v": 82
    },
    {
      "midi": 67,
      "hit": false,
      "t": 39750,
      "d": 109.375,
      "v": 80
    },
    {
      "midi": 70,
      "hit": false,
      "t": 39750,
      "d": 109.375,
      "v": 78
    },
    {
      "midi": 46,
      "hit": false,
      "t": 40000,
      "d": 234.375,
      "v": 78
    },
    {
      "midi": 58,
      "hit": false,
      "t": 40250,
      "d": 109.375,
      "v": 87
    },
    {
      "midi": 62,
      "hit": false,
      "t": 40250,
      "d": 109.375,
      "v": 85
    },
    {
      "midi": 65,
      "hit": false,
      "t": 40250,
      "d": 109.375,
      "v": 79
    },
    {
      "midi": 46,
      "hit": false,
      "t": 40500,
      "d": 109.375,
      "v": 84
    },
    {
      "midi": 58,
      "hit": false,
      "t": 40625,
      "d": 109.375,
      "v": 85
    },
    {
      "midi": 62,
      "hit": false,
      "t": 40625,
      "d": 109.375,
      "v": 79
    },
    {
      "midi": 65,
      "hit": false,
      "t": 40625,
      "d": 109.375,
      "v": 81
    },
    {
      "midi": 46,
      "hit": false,
      "t": 40875,
      "d": 109.375,
      "v": 85
    },
    {
      "midi": 58,
      "hit": false,
      "t": 41000,
      "d": 109.375,
      "v": 87
    },
    {
      "midi": 62,
      "hit": false,
      "t": 41000,
      "d": 109.375,
      "v": 86
    },
    {
      "midi": 65,
      "hit": false,
      "t": 41000,
      "d": 109.375,
      "v": 87
    },
    {
      "midi": 46,
      "hit": false,
      "t": 41250,
      "d": 109.375,
      "v": 78
    },
    {
      "midi": 58,
      "hit": false,
      "t": 41375,
      "d": 109.375,
      "v": 86
    },
    {
      "midi": 62,
      "hit": false,
      "t": 41375,
      "d": 109.375,
      "v": 86
    },
    {
      "midi": 65,
      "hit": false,
      "t": 41375,
      "d": 109.375,
      "v": 87
    },
    {
      "midi": 46,
      "hit": false,
      "t": 41625,
      "d": 109.375,
      "v": 79
    },
    {
      "midi": 58,
      "hit": false,
      "t": 41750,
      "d": 109.375,
      "v": 84
    },
    {
      "midi": 62,
      "hit": false,
      "t": 41750,
      "d": 109.375,
      "v": 83
    },
    {
      "midi": 65,
      "hit": false,
      "t": 41750,
      "d": 109.375,
      "v": 85
    },
    {
      "midi": 44,
      "hit": false,
      "t": 42000,
      "d": 234.375,
      "v": 84
    },
    {
      "midi": 60,
      "hit": false,
      "t": 42250,
      "d": 109.375,
      "v": 81
    },
    {
      "midi": 63,
      "hit": false,
      "t": 42250,
      "d": 109.375,
      "v": 79
    },
    {
      "midi": 67,
      "hit": false,
      "t": 42250,
      "d": 109.375,
      "v": 85
    },
    {
      "midi": 44,
      "hit": false,
      "t": 42500,
      "d": 109.375,
      "v": 84
    },
    {
      "midi": 60,
      "hit": false,
      "t": 42625,
      "d": 109.375,
      "v": 86
    },
    {
      "midi": 63,
      "hit": false,
      "t": 42625,
      "d": 109.375,
      "v": 81
    },
    {
      "midi": 67,
      "hit": false,
      "t": 42625,
      "d": 109.375,
      "v": 87
    },
    {
      "midi": 44,
      "hit": false,
      "t": 42875,
      "d": 109.375,
      "v": 86
    },
    {
      "midi": 60,
      "hit": false,
      "t": 43000,
      "d": 109.375,
      "v": 83
    },
    {
      "midi": 63,
      "hit": false,
      "t": 43000,
      "d": 109.375,
      "v": 82
    },
    {
      "midi": 67,
      "hit": false,
      "t": 43000,
      "d": 109.375,
      "v": 79
    },
    {
      "midi": 44,
      "hit": false,
      "t": 43250,
      "d": 109.375,
      "v": 84
    },
    {
      "midi": 60,
      "hit": false,
      "t": 43375,
      "d": 109.375,
      "v": 81
    },
    {
      "midi": 63,
      "hit": false,
      "t": 43375,
      "d": 109.375,
      "v": 81
    },
    {
      "midi": 67,
      "hit": false,
      "t": 43375,
      "d": 109.375,
      "v": 78
    },
    {
      "midi": 44,
      "hit": false,
      "t": 43625,
      "d": 109.375,
      "v": 80
    },
    {
      "midi": 60,
      "hit": false,
      "t": 43750,
      "d": 109.375,
      "v": 84
    },
    {
      "midi": 63,
      "hit": false,
      "t": 43750,
      "d": 109.375,
      "v": 80
    },
    {
      "midi": 67,
      "hit": false,
      "t": 43750,
      "d": 109.375,
      "v": 81
    },
    {
      "midi": 46,
      "hit": false,
      "t": 44000,
      "d": 234.375,
      "v": 86
    },
    {
      "midi": 62,
      "hit": false,
      "t": 44250,
      "d": 109.375,
      "v": 83
    },
    {
      "midi": 65,
      "hit": false,
      "t": 44250,
      "d": 109.375,
      "v": 86
    },
    {
      "midi": 70,
      "hit": false,
      "t": 44250,
      "d": 109.375,
      "v": 80
    },
    {
      "midi": 46,
      "hit": false,
      "t": 44500,
      "d": 109.375,
      "v": 87
    },
    {
      "midi": 62,
      "hit": false,
      "t": 44625,
      "d": 109.375,
      "v": 78
    },
    {
      "midi": 65,
      "hit": false,
      "t": 44625,
      "d": 109.375,
      "v": 78
    },
    {
      "midi": 70,
      "hit": false,
      "t": 44625,
      "d": 109.375,
      "v": 78
    },
    {
      "midi": 46,
      "hit": false,
      "t": 44875,
      "d": 109.375,
      "v": 84
    },
    {
      "midi": 63,
      "hit": false,
      "t": 45000,
      "d": 109.375,
      "v": 84
    },
    {
      "midi": 65,
      "hit": false,
      "t": 45000,
      "d": 109.375,
      "v": 83
    },
    {
      "midi": 70,
      "hit": false,
      "t": 45000,
      "d": 109.375,
      "v": 86
    },
    {
      "midi": 63,
      "hit": false,
      "t": 45250,
      "d": 109.375,
      "v": 80
    },
    {
      "midi": 65,
      "hit": false,
      "t": 45250,
      "d": 109.375,
      "v": 87
    },
    {
      "midi": 70,
      "hit": false,
      "t": 45250,
      "d": 109.375,
      "v": 87
    },
    {
      "midi": 62,
      "hit": false,
      "t": 45500,
      "d": 109.375,
      "v": 81
    },
    {
      "midi": 65,
      "hit": false,
      "t": 45500,
      "d": 109.375,
      "v": 86
    },
    {
      "midi": 70,
      "hit": false,
      "t": 45500,
      "d": 109.375,
      "v": 81
    },
    {
      "midi": 62,
      "hit": false,
      "t": 45750,
      "d": 109.375,
      "v": 83
    },
    {
      "midi": 65,
      "hit": false,
      "t": 45750,
      "d": 109.375,
      "v": 81
    },
    {
      "midi": 70,
      "hit": false,
      "t": 45750,
      "d": 109.375,
      "v": 79
    },
    {
      "midi": 48,
      "hit": false,
      "t": 46000,
      "d": 234.375,
      "v": 78
    },
    {
      "midi": 63,
      "hit": false,
      "t": 46250,
      "d": 109.375,
      "v": 86
    },
    {
      "midi": 67,
      "hit": false,
      "t": 46250,
      "d": 109.375,
      "v": 78
    },
    {
      "midi": 70,
      "hit": false,
      "t": 46250,
      "d": 109.375,
      "v": 82
    },
    {
      "midi": 48,
      "hit": false,
      "t": 46500,
      "d": 109.375,
      "v": 79
    },
    {
      "midi": 63,
      "hit": false,
      "t": 46625,
      "d": 109.375,
      "v": 78
    },
    {
      "midi": 67,
      "hit": false,
      "t": 46625,
      "d": 109.375,
      "v": 87
    },
    {
      "midi": 70,
      "hit": false,
      "t": 46625,
      "d": 109.375,
      "v": 80
    },
    {
      "midi": 48,
      "hit": false,
      "t": 46875,
      "d": 109.375,
      "v": 85
    },
    {
      "midi": 63,
      "hit": false,
      "t": 47000,
      "d": 109.375,
      "v": 85
    },
    {
      "midi": 67,
      "hit": false,
      "t": 47000,
      "d": 109.375,
      "v": 78
    },
    {
      "midi": 70,
      "hit": false,
      "t": 47000,
      "d": 109.375,
      "v": 84
    },
    {
      "midi": 48,
      "hit": false,
      "t": 47250,
      "d": 109.375,
      "v": 80
    },
    {
      "midi": 63,
      "hit": false,
      "t": 47375,
      "d": 109.375,
      "v": 83
    },
    {
      "midi": 67,
      "hit": false,
      "t": 47375,
      "d": 109.375,
      "v": 87
    },
    {
      "midi": 70,
      "hit": false,
      "t": 47375,
      "d": 109.375,
      "v": 81
    },
    {
      "midi": 48,
      "hit": false,
      "t": 47625,
      "d": 109.375,
      "v": 85
    },
    {
      "midi": 63,
      "hit": false,
      "t": 47750,
      "d": 109.375,
      "v": 87
    },
    {
      "midi": 67,
      "hit": false,
      "t": 47750,
      "d": 109.375,
      "v": 82
    },
    {
      "midi": 70,
      "hit": false,
      "t": 47750,
      "d": 109.375,
      "v": 87
    },
    {
      "midi": 46,
      "hit": false,
      "t": 48000,
      "d": 234.375,
      "v": 82
    },
    {
      "midi": 58,
      "hit": false,
      "t": 48250,
      "d": 109.375,
      "v": 86
    },
    {
      "midi": 62,
      "hit": false,
      "t": 48250,
      "d": 109.375,
      "v": 83
    },
    {
      "midi": 65,
      "hit": false,
      "t": 48250,
      "d": 109.375,
      "v": 84
    },
    {
      "midi": 46,
      "hit": false,
      "t": 48500,
      "d": 109.375,
      "v": 80
    },
    {
      "midi": 58,
      "hit": false,
      "t": 48625,
      "d": 109.375,
      "v": 82
    },
    {
      "midi": 62,
      "hit": false,
      "t": 48625,
      "d": 109.375,
      "v": 83
    },
    {
      "midi": 65,
      "hit": false,
      "t": 48625,
      "d": 109.375,
      "v": 84
    },
    {
      "midi": 46,
      "hit": false,
      "t": 48875,
      "d": 109.375,
      "v": 80
    },
    {
      "midi": 58,
      "hit": false,
      "t": 49000,
      "d": 109.375,
      "v": 82
    },
    {
      "midi": 62,
      "hit": false,
      "t": 49000,
      "d": 109.375,
      "v": 80
    },
    {
      "midi": 65,
      "hit": false,
      "t": 49000,
      "d": 109.375,
      "v": 82
    },
    {
      "midi": 46,
      "hit": false,
      "t": 49250,
      "d": 109.375,
      "v": 82
    },
    {
      "midi": 58,
      "hit": false,
      "t": 49375,
      "d": 109.375,
      "v": 81
    },
    {
      "midi": 62,
      "hit": false,
      "t": 49375,
      "d": 109.375,
      "v": 84
    },
    {
      "midi": 65,
      "hit": false,
      "t": 49375,
      "d": 109.375,
      "v": 78
    },
    {
      "midi": 46,
      "hit": false,
      "t": 49625,
      "d": 109.375,
      "v": 84
    },
    {
      "midi": 58,
      "hit": false,
      "t": 49750,
      "d": 109.375,
      "v": 85
    },
    {
      "midi": 62,
      "hit": false,
      "t": 49750,
      "d": 109.375,
      "v": 86
    },
    {
      "midi": 65,
      "hit": false,
      "t": 49750,
      "d": 109.375,
      "v": 85
    },
    {
      "midi": 44,
      "hit": false,
      "t": 50000,
      "d": 234.375,
      "v": 82
    },
    {
      "midi": 60,
      "hit": false,
      "t": 50250,
      "d": 109.375,
      "v": 79
    },
    {
      "midi": 63,
      "hit": false,
      "t": 50250,
      "d": 109.375,
      "v": 84
    },
    {
      "midi": 67,
      "hit": false,
      "t": 50250,
      "d": 109.375,
      "v": 85
    },
    {
      "midi": 44,
      "hit": false,
      "t": 50500,
      "d": 109.375,
      "v": 82
    },
    {
      "midi": 60,
      "hit": false,
      "t": 50625,
      "d": 109.375,
      "v": 82
    },
    {
      "midi": 63,
      "hit": false,
      "t": 50625,
      "d": 109.375,
      "v": 80
    },
    {
      "midi": 67,
      "hit": false,
      "t": 50625,
      "d": 109.375,
      "v": 85
    },
    {
      "midi": 44,
      "hit": false,
      "t": 50875,
      "d": 109.375,
      "v": 79
    },
    {
      "midi": 60,
      "hit": false,
      "t": 51000,
      "d": 109.375,
      "v": 79
    },
    {
      "midi": 63,
      "hit": false,
      "t": 51000,
      "d": 109.375,
      "v": 81
    },
    {
      "midi": 67,
      "hit": false,
      "t": 51000,
      "d": 109.375,
      "v": 78
    },
    {
      "midi": 44,
      "hit": false,
      "t": 51250,
      "d": 109.375,
      "v": 85
    },
    {
      "midi": 60,
      "hit": false,
      "t": 51375,
      "d": 109.375,
      "v": 83
    },
    {
      "midi": 63,
      "hit": false,
      "t": 51375,
      "d": 109.375,
      "v": 81
    },
    {
      "midi": 67,
      "hit": false,
      "t": 51375,
      "d": 109.375,
      "v": 81
    },
    {
      "midi": 44,
      "hit": false,
      "t": 51625,
      "d": 109.375,
      "v": 80
    },
    {
      "midi": 60,
      "hit": false,
      "t": 51750,
      "d": 109.375,
      "v": 82
    },
    {
      "midi": 63,
      "hit": false,
      "t": 51750,
      "d": 109.375,
      "v": 87
    },
    {
      "midi": 67,
      "hit": false,
      "t": 51750,
      "d": 109.375,
      "v": 85
    },
    {
      "midi": 46,
      "hit": false,
      "t": 52000,
      "d": 234.375,
      "v": 83
    },
    {
      "midi": 62,
      "hit": false,
      "t": 52250,
      "d": 109.375,
      "v": 80
    },
    {
      "midi": 65,
      "hit": false,
      "t": 52250,
      "d": 109.375,
      "v": 81
    },
    {
      "midi": 70,
      "hit": false,
      "t": 52250,
      "d": 109.375,
      "v": 80
    },
    {
      "midi": 46,
      "hit": false,
      "t": 52500,
      "d": 109.375,
      "v": 82
    },
    {
      "midi": 62,
      "hit": false,
      "t": 52625,
      "d": 109.375,
      "v": 83
    },
    {
      "midi": 65,
      "hit": false,
      "t": 52625,
      "d": 109.375,
      "v": 84
    },
    {
      "midi": 70,
      "hit": false,
      "t": 52625,
      "d": 109.375,
      "v": 85
    },
    {
      "midi": 46,
      "hit": false,
      "t": 52875,
      "d": 109.375,
      "v": 81
    },
    {
      "midi": 63,
      "hit": false,
      "t": 53000,
      "d": 109.375,
      "v": 84
    },
    {
      "midi": 65,
      "hit": false,
      "t": 53000,
      "d": 109.375,
      "v": 81
    },
    {
      "midi": 70,
      "hit": false,
      "t": 53000,
      "d": 109.375,
      "v": 79
    },
    {
      "midi": 63,
      "hit": false,
      "t": 53250,
      "d": 109.375,
      "v": 80
    },
    {
      "midi": 65,
      "hit": false,
      "t": 53250,
      "d": 109.375,
      "v": 83
    },
    {
      "midi": 70,
      "hit": false,
      "t": 53250,
      "d": 109.375,
      "v": 86
    },
    {
      "midi": 62,
      "hit": false,
      "t": 53500,
      "d": 109.375,
      "v": 80
    },
    {
      "midi": 65,
      "hit": false,
      "t": 53500,
      "d": 109.375,
      "v": 80
    },
    {
      "midi": 70,
      "hit": false,
      "t": 53500,
      "d": 109.375,
      "v": 82
    },
    {
      "midi": 62,
      "hit": false,
      "t": 53750,
      "d": 109.375,
      "v": 78
    },
    {
      "midi": 65,
      "hit": false,
      "t": 53750,
      "d": 109.375,
      "v": 84
    },
    {
      "midi": 70,
      "hit": false,
      "t": 53750,
      "d": 109.375,
      "v": 80
    },
    {
      "midi": 48,
      "hit": false,
      "t": 54000,
      "d": 234.375,
      "v": 87
    },
    {
      "midi": 63,
      "hit": false,
      "t": 54250,
      "d": 109.375,
      "v": 87
    },
    {
      "midi": 67,
      "hit": false,
      "t": 54250,
      "d": 109.375,
      "v": 84
    },
    {
      "midi": 70,
      "hit": false,
      "t": 54250,
      "d": 109.375,
      "v": 80
    },
    {
      "midi": 48,
      "hit": false,
      "t": 54500,
      "d": 109.375,
      "v": 84
    },
    {
      "midi": 63,
      "hit": false,
      "t": 54625,
      "d": 109.375,
      "v": 86
    },
    {
      "midi": 67,
      "hit": false,
      "t": 54625,
      "d": 109.375,
      "v": 78
    },
    {
      "midi": 70,
      "hit": false,
      "t": 54625,
      "d": 109.375,
      "v": 83
    },
    {
      "midi": 48,
      "hit": false,
      "t": 54875,
      "d": 109.375,
      "v": 78
    },
    {
      "midi": 63,
      "hit": false,
      "t": 55000,
      "d": 109.375,
      "v": 85
    },
    {
      "midi": 67,
      "hit": false,
      "t": 55000,
      "d": 109.375,
      "v": 81
    },
    {
      "midi": 70,
      "hit": false,
      "t": 55000,
      "d": 109.375,
      "v": 84
    },
    {
      "midi": 48,
      "hit": false,
      "t": 55250,
      "d": 109.375,
      "v": 85
    },
    {
      "midi": 63,
      "hit": false,
      "t": 55375,
      "d": 109.375,
      "v": 78
    },
    {
      "midi": 67,
      "hit": false,
      "t": 55375,
      "d": 109.375,
      "v": 78
    },
    {
      "midi": 70,
      "hit": false,
      "t": 55375,
      "d": 109.375,
      "v": 82
    },
    {
      "midi": 48,
      "hit": false,
      "t": 55625,
      "d": 109.375,
      "v": 87
    },
    {
      "midi": 63,
      "hit": false,
      "t": 55750,
      "d": 109.375,
      "v": 85
    },
    {
      "midi": 67,
      "hit": false,
      "t": 55750,
      "d": 109.375,
      "v": 84
    },
    {
      "midi": 70,
      "hit": false,
      "t": 55750,
      "d": 109.375,
      "v": 80
    },
    {
      "midi": 46,
      "hit": false,
      "t": 56000,
      "d": 234.375,
      "v": 85
    },
    {
      "midi": 58,
      "hit": false,
      "t": 56250,
      "d": 109.375,
      "v": 80
    },
    {
      "midi": 62,
      "hit": false,
      "t": 56250,
      "d": 109.375,
      "v": 78
    },
    {
      "midi": 65,
      "hit": false,
      "t": 56250,
      "d": 109.375,
      "v": 81
    },
    {
      "midi": 46,
      "hit": false,
      "t": 56500,
      "d": 109.375,
      "v": 86
    },
    {
      "midi": 58,
      "hit": false,
      "t": 56625,
      "d": 109.375,
      "v": 80
    },
    {
      "midi": 62,
      "hit": false,
      "t": 56625,
      "d": 109.375,
      "v": 79
    },
    {
      "midi": 65,
      "hit": false,
      "t": 56625,
      "d": 109.375,
      "v": 84
    },
    {
      "midi": 46,
      "hit": false,
      "t": 56875,
      "d": 109.375,
      "v": 86
    },
    {
      "midi": 58,
      "hit": false,
      "t": 57000,
      "d": 109.375,
      "v": 83
    },
    {
      "midi": 62,
      "hit": false,
      "t": 57000,
      "d": 109.375,
      "v": 78
    },
    {
      "midi": 65,
      "hit": false,
      "t": 57000,
      "d": 109.375,
      "v": 82
    },
    {
      "midi": 46,
      "hit": false,
      "t": 57250,
      "d": 109.375,
      "v": 81
    },
    {
      "midi": 58,
      "hit": false,
      "t": 57375,
      "d": 109.375,
      "v": 86
    },
    {
      "midi": 62,
      "hit": false,
      "t": 57375,
      "d": 109.375,
      "v": 84
    },
    {
      "midi": 65,
      "hit": false,
      "t": 57375,
      "d": 109.375,
      "v": 83
    },
    {
      "midi": 46,
      "hit": false,
      "t": 57625,
      "d": 109.375,
      "v": 87
    },
    {
      "midi": 58,
      "hit": false,
      "t": 57750,
      "d": 109.375,
      "v": 80
    },
    {
      "midi": 62,
      "hit": false,
      "t": 57750,
      "d": 109.375,
      "v": 81
    },
    {
      "midi": 65,
      "hit": false,
      "t": 57750,
      "d": 109.375,
      "v": 78
    },
    {
      "midi": 44,
      "hit": false,
      "t": 58000,
      "d": 234.375,
      "v": 79
    },
    {
      "midi": 60,
      "hit": false,
      "t": 58250,
      "d": 109.375,
      "v": 80
    },
    {
      "midi": 63,
      "hit": false,
      "t": 58250,
      "d": 109.375,
      "v": 85
    },
    {
      "midi": 67,
      "hit": false,
      "t": 58250,
      "d": 109.375,
      "v": 81
    },
    {
      "midi": 44,
      "hit": false,
      "t": 58500,
      "d": 109.375,
      "v": 79
    },
    {
      "midi": 60,
      "hit": false,
      "t": 58625,
      "d": 109.375,
      "v": 81
    },
    {
      "midi": 63,
      "hit": false,
      "t": 58625,
      "d": 109.375,
      "v": 79
    },
    {
      "midi": 67,
      "hit": false,
      "t": 58625,
      "d": 109.375,
      "v": 79
    },
    {
      "midi": 44,
      "hit": false,
      "t": 58875,
      "d": 109.375,
      "v": 86
    },
    {
      "midi": 60,
      "hit": false,
      "t": 59000,
      "d": 109.375,
      "v": 85
    },
    {
      "midi": 63,
      "hit": false,
      "t": 59000,
      "d": 109.375,
      "v": 79
    },
    {
      "midi": 67,
      "hit": false,
      "t": 59000,
      "d": 109.375,
      "v": 85
    },
    {
      "midi": 44,
      "hit": false,
      "t": 59250,
      "d": 109.375,
      "v": 79
    },
    {
      "midi": 60,
      "hit": false,
      "t": 59375,
      "d": 109.375,
      "v": 79
    },
    {
      "midi": 63,
      "hit": false,
      "t": 59375,
      "d": 109.375,
      "v": 81
    },
    {
      "midi": 67,
      "hit": false,
      "t": 59375,
      "d": 109.375,
      "v": 87
    },
    {
      "midi": 44,
      "hit": false,
      "t": 59625,
      "d": 109.375,
      "v": 85
    },
    {
      "midi": 60,
      "hit": false,
      "t": 59750,
      "d": 109.375,
      "v": 80
    },
    {
      "midi": 63,
      "hit": false,
      "t": 59750,
      "d": 109.375,
      "v": 85
    },
    {
      "midi": 67,
      "hit": false,
      "t": 59750,
      "d": 109.375,
      "v": 80
    },
    {
      "midi": 46,
      "hit": false,
      "t": 60000,
      "d": 234.375,
      "v": 85
    },
    {
      "midi": 62,
      "hit": false,
      "t": 60250,
      "d": 109.375,
      "v": 86
    },
    {
      "midi": 65,
      "hit": false,
      "t": 60250,
      "d": 109.375,
      "v": 82
    },
    {
      "midi": 70,
      "hit": false,
      "t": 60250,
      "d": 109.375,
      "v": 83
    },
    {
      "midi": 46,
      "hit": false,
      "t": 60500,
      "d": 109.375,
      "v": 85
    },
    {
      "midi": 62,
      "hit": false,
      "t": 60625,
      "d": 109.375,
      "v": 87
    },
    {
      "midi": 65,
      "hit": false,
      "t": 60625,
      "d": 109.375,
      "v": 84
    },
    {
      "midi": 70,
      "hit": false,
      "t": 60625,
      "d": 109.375,
      "v": 78
    },
    {
      "midi": 46,
      "hit": false,
      "t": 60875,
      "d": 109.375,
      "v": 84
    },
    {
      "midi": 63,
      "hit": false,
      "t": 61000,
      "d": 109.375,
      "v": 82
    },
    {
      "midi": 65,
      "hit": false,
      "t": 61000,
      "d": 109.375,
      "v": 83
    },
    {
      "midi": 70,
      "hit": false,
      "t": 61000,
      "d": 109.375,
      "v": 79
    },
    {
      "midi": 63,
      "hit": false,
      "t": 61250,
      "d": 109.375,
      "v": 82
    },
    {
      "midi": 65,
      "hit": false,
      "t": 61250,
      "d": 109.375,
      "v": 84
    },
    {
      "midi": 70,
      "hit": false,
      "t": 61250,
      "d": 109.375,
      "v": 86
    },
    {
      "midi": 62,
      "hit": false,
      "t": 61500,
      "d": 109.375,
      "v": 85
    },
    {
      "midi": 65,
      "hit": false,
      "t": 61500,
      "d": 109.375,
      "v": 83
    },
    {
      "midi": 70,
      "hit": false,
      "t": 61500,
      "d": 109.375,
      "v": 83
    },
    {
      "midi": 62,
      "hit": false,
      "t": 61750,
      "d": 109.375,
      "v": 79
    },
    {
      "midi": 65,
      "hit": false,
      "t": 61750,
      "d": 109.375,
      "v": 79
    },
    {
      "midi": 70,
      "hit": false,
      "t": 61750,
      "d": 109.375,
      "v": 84
    },
    {
      "midi": 48,
      "hit": false,
      "t": 62000,
      "d": 234.375,
      "v": 87
    },
    {
      "midi": 63,
      "hit": false,
      "t": 62250,
      "d": 109.375,
      "v": 86
    },
    {
      "midi": 67,
      "hit": false,
      "t": 62250,
      "d": 109.375,
      "v": 79
    },
    {
      "midi": 70,
      "hit": false,
      "t": 62250,
      "d": 109.375,
      "v": 79
    },
    {
      "midi": 48,
      "hit": false,
      "t": 62500,
      "d": 109.375,
      "v": 85
    },
    {
      "midi": 63,
      "hit": false,
      "t": 62625,
      "d": 109.375,
      "v": 84
    },
    {
      "midi": 67,
      "hit": false,
      "t": 62625,
      "d": 109.375,
      "v": 87
    },
    {
      "midi": 70,
      "hit": false,
      "t": 62625,
      "d": 109.375,
      "v": 84
    },
    {
      "midi": 48,
      "hit": false,
      "t": 62875,
      "d": 109.375,
      "v": 85
    },
    {
      "midi": 63,
      "hit": false,
      "t": 63000,
      "d": 109.375,
      "v": 79
    },
    {
      "midi": 67,
      "hit": false,
      "t": 63000,
      "d": 109.375,
      "v": 81
    },
    {
      "midi": 70,
      "hit": false,
      "t": 63000,
      "d": 109.375,
      "v": 81
    },
    {
      "midi": 48,
      "hit": false,
      "t": 63250,
      "d": 109.375,
      "v": 86
    },
    {
      "midi": 63,
      "hit": false,
      "t": 63375,
      "d": 109.375,
      "v": 85
    },
    {
      "midi": 67,
      "hit": false,
      "t": 63375,
      "d": 109.375,
      "v": 86
    },
    {
      "midi": 70,
      "hit": false,
      "t": 63375,
      "d": 109.375,
      "v": 84
    },
    {
      "midi": 48,
      "hit": false,
      "t": 63625,
      "d": 109.375,
      "v": 82
    },
    {
      "midi": 63,
      "hit": false,
      "t": 63750,
      "d": 109.375,
      "v": 85
    },
    {
      "midi": 67,
      "hit": false,
      "t": 63750,
      "d": 109.375,
      "v": 84
    },
    {
      "midi": 70,
      "hit": false,
      "t": 63750,
      "d": 109.375,
      "v": 78
    },
    {
      "midi": 46,
      "hit": false,
      "t": 64000,
      "d": 234.375,
      "v": 84
    },
    {
      "midi": 58,
      "hit": false,
      "t": 64250,
      "d": 109.375,
      "v": 84
    },
    {
      "midi": 62,
      "hit": false,
      "t": 64250,
      "d": 109.375,
      "v": 87
    },
    {
      "midi": 65,
      "hit": false,
      "t": 64250,
      "d": 109.375,
      "v": 84
    },
    {
      "midi": 46,
      "hit": false,
      "t": 64500,
      "d": 109.375,
      "v": 82
    },
    {
      "midi": 58,
      "hit": false,
      "t": 64625,
      "d": 109.375,
      "v": 87
    },
    {
      "midi": 62,
      "hit": false,
      "t": 64625,
      "d": 109.375,
      "v": 78
    },
    {
      "midi": 65,
      "hit": false,
      "t": 64625,
      "d": 109.375,
      "v": 82
    },
    {
      "midi": 46,
      "hit": false,
      "t": 64875,
      "d": 109.375,
      "v": 85
    },
    {
      "midi": 58,
      "hit": false,
      "t": 65000,
      "d": 109.375,
      "v": 81
    },
    {
      "midi": 62,
      "hit": false,
      "t": 65000,
      "d": 109.375,
      "v": 84
    },
    {
      "midi": 65,
      "hit": false,
      "t": 65000,
      "d": 109.375,
      "v": 80
    },
    {
      "midi": 46,
      "hit": false,
      "t": 65250,
      "d": 109.375,
      "v": 82
    },
    {
      "midi": 58,
      "hit": false,
      "t": 65375,
      "d": 109.375,
      "v": 79
    },
    {
      "midi": 62,
      "hit": false,
      "t": 65375,
      "d": 109.375,
      "v": 79
    },
    {
      "midi": 65,
      "hit": false,
      "t": 65375,
      "d": 109.375,
      "v": 78
    },
    {
      "midi": 46,
      "hit": false,
      "t": 65625,
      "d": 109.375,
      "v": 80
    },
    {
      "midi": 58,
      "hit": false,
      "t": 65750,
      "d": 109.375,
      "v": 80
    },
    {
      "midi": 62,
      "hit": false,
      "t": 65750,
      "d": 109.375,
      "v": 87
    },
    {
      "midi": 65,
      "hit": false,
      "t": 65750,
      "d": 109.375,
      "v": 78
    },
    {
      "midi": 44,
      "hit": false,
      "t": 66000,
      "d": 234.375,
      "v": 82
    },
    {
      "midi": 60,
      "hit": false,
      "t": 66250,
      "d": 109.375,
      "v": 80
    },
    {
      "midi": 63,
      "hit": false,
      "t": 66250,
      "d": 109.375,
      "v": 83
    },
    {
      "midi": 67,
      "hit": false,
      "t": 66250,
      "d": 109.375,
      "v": 79
    },
    {
      "midi": 44,
      "hit": false,
      "t": 66500,
      "d": 109.375,
      "v": 83
    },
    {
      "midi": 60,
      "hit": false,
      "t": 66625,
      "d": 109.375,
      "v": 84
    },
    {
      "midi": 63,
      "hit": false,
      "t": 66625,
      "d": 109.375,
      "v": 79
    },
    {
      "midi": 67,
      "hit": false,
      "t": 66625,
      "d": 109.375,
      "v": 78
    },
    {
      "midi": 44,
      "hit": false,
      "t": 66875,
      "d": 109.375,
      "v": 83
    },
    {
      "midi": 60,
      "hit": false,
      "t": 67000,
      "d": 109.375,
      "v": 79
    },
    {
      "midi": 63,
      "hit": false,
      "t": 67000,
      "d": 109.375,
      "v": 80
    },
    {
      "midi": 67,
      "hit": false,
      "t": 67000,
      "d": 109.375,
      "v": 79
    },
    {
      "midi": 44,
      "hit": false,
      "t": 67250,
      "d": 109.375,
      "v": 84
    },
    {
      "midi": 60,
      "hit": false,
      "t": 67375,
      "d": 109.375,
      "v": 82
    },
    {
      "midi": 63,
      "hit": false,
      "t": 67375,
      "d": 109.375,
      "v": 81
    },
    {
      "midi": 67,
      "hit": false,
      "t": 67375,
      "d": 109.375,
      "v": 85
    },
    {
      "midi": 44,
      "hit": false,
      "t": 67625,
      "d": 109.375,
      "v": 80
    },
    {
      "midi": 60,
      "hit": false,
      "t": 67750,
      "d": 109.375,
      "v": 87
    },
    {
      "midi": 63,
      "hit": false,
      "t": 67750,
      "d": 109.375,
      "v": 83
    },
    {
      "midi": 67,
      "hit": false,
      "t": 67750,
      "d": 109.375,
      "v": 86
    },
    {
      "midi": 46,
      "hit": false,
      "t": 68000,
      "d": 234.375,
      "v": 79
    },
    {
      "midi": 58,
      "hit": false,
      "t": 68250,
      "d": 109.375,
      "v": 87
    },
    {
      "midi": 63,
      "hit": false,
      "t": 68250,
      "d": 109.375,
      "v": 78
    },
    {
      "midi": 65,
      "hit": false,
      "t": 68250,
      "d": 109.375,
      "v": 85
    },
    {
      "midi": 46,
      "hit": false,
      "t": 68500,
      "d": 109.375,
      "v": 79
    },
    {
      "midi": 58,
      "hit": false,
      "t": 68625,
      "d": 109.375,
      "v": 85
    },
    {
      "midi": 63,
      "hit": false,
      "t": 68625,
      "d": 109.375,
      "v": 85
    },
    {
      "midi": 65,
      "hit": false,
      "t": 68625,
      "d": 109.375,
      "v": 80
    },
    {
      "midi": 46,
      "hit": false,
      "t": 68875,
      "d": 109.375,
      "v": 85
    },
    {
      "midi": 58,
      "hit": false,
      "t": 69000,
      "d": 109.375,
      "v": 80
    },
    {
      "midi": 62,
      "hit": false,
      "t": 69000,
      "d": 109.375,
      "v": 79
    },
    {
      "midi": 65,
      "hit": false,
      "t": 69000,
      "d": 109.375,
      "v": 80
    },
    {
      "midi": 46,
      "hit": false,
      "t": 69250,
      "d": 109.375,
      "v": 78
    },
    {
      "midi": 58,
      "hit": false,
      "t": 69375,
      "d": 109.375,
      "v": 86
    },
    {
      "midi": 62,
      "hit": false,
      "t": 69375,
      "d": 109.375,
      "v": 84
    },
    {
      "midi": 65,
      "hit": false,
      "t": 69375,
      "d": 109.375,
      "v": 82
    },
    {
      "midi": 46,
      "hit": false,
      "t": 69625,
      "d": 109.375,
      "v": 78
    },
    {
      "midi": 58,
      "hit": false,
      "t": 69750,
      "d": 109.375,
      "v": 78
    },
    {
      "midi": 62,
      "hit": false,
      "t": 69750,
      "d": 109.375,
      "v": 81
    },
    {
      "midi": 65,
      "hit": false,
      "t": 69750,
      "d": 109.375,
      "v": 87
    },
    {
      "midi": 48,
      "hit": false,
      "t": 70000,
      "d": 234.375,
      "v": 79
    },
    {
      "midi": 63,
      "hit": false,
      "t": 70250,
      "d": 109.375,
      "v": 82
    },
    {
      "midi": 67,
      "hit": false,
      "t": 70250,
      "d": 109.375,
      "v": 82
    },
    {
      "midi": 70,
      "hit": false,
      "t": 70250,
      "d": 109.375,
      "v": 86
    },
    {
      "midi": 48,
      "hit": false,
      "t": 70500,
      "d": 109.375,
      "v": 87
    },
    {
      "midi": 63,
      "hit": false,
      "t": 70625,
      "d": 109.375,
      "v": 78
    },
    {
      "midi": 67,
      "hit": false,
      "t": 70625,
      "d": 109.375,
      "v": 87
    },
    {
      "midi": 70,
      "hit": false,
      "t": 70625,
      "d": 109.375,
      "v": 81
    },
    {
      "midi": 48,
      "hit": false,
      "t": 70875,
      "d": 109.375,
      "v": 85
    },
    {
      "midi": 63,
      "hit": false,
      "t": 71000,
      "d": 109.375,
      "v": 82
    },
    {
      "midi": 67,
      "hit": false,
      "t": 71000,
      "d": 109.375,
      "v": 83
    },
    {
      "midi": 70,
      "hit": false,
      "t": 71000,
      "d": 109.375,
      "v": 84
    },
    {
      "midi": 48,
      "hit": false,
      "t": 71250,
      "d": 109.375,
      "v": 86
    },
    {
      "midi": 63,
      "hit": false,
      "t": 71375,
      "d": 109.375,
      "v": 85
    },
    {
      "midi": 67,
      "hit": false,
      "t": 71375,
      "d": 109.375,
      "v": 87
    },
    {
      "midi": 70,
      "hit": false,
      "t": 71375,
      "d": 109.375,
      "v": 78
    },
    {
      "midi": 48,
      "hit": false,
      "t": 71625,
      "d": 109.375,
      "v": 83
    },
    {
      "midi": 63,
      "hit": false,
      "t": 71750,
      "d": 109.375,
      "v": 79
    },
    {
      "midi": 67,
      "hit": false,
      "t": 71750,
      "d": 109.375,
      "v": 80
    },
    {
      "midi": 70,
      "hit": false,
      "t": 71750,
      "d": 109.375,
      "v": 84
    },
    {
      "midi": 46,
      "hit": false,
      "t": 72000,
      "d": 234.375,
      "v": 82
    },
    {
      "midi": 58,
      "hit": false,
      "t": 72250,
      "d": 109.375,
      "v": 87
    },
    {
      "midi": 62,
      "hit": false,
      "t": 72250,
      "d": 109.375,
      "v": 80
    },
    {
      "midi": 65,
      "hit": false,
      "t": 72250,
      "d": 109.375,
      "v": 84
    },
    {
      "midi": 46,
      "hit": false,
      "t": 72500,
      "d": 109.375,
      "v": 80
    },
    {
      "midi": 58,
      "hit": false,
      "t": 72625,
      "d": 109.375,
      "v": 81
    },
    {
      "midi": 62,
      "hit": false,
      "t": 72625,
      "d": 109.375,
      "v": 80
    },
    {
      "midi": 65,
      "hit": false,
      "t": 72625,
      "d": 109.375,
      "v": 81
    },
    {
      "midi": 46,
      "hit": false,
      "t": 72875,
      "d": 109.375,
      "v": 82
    },
    {
      "midi": 58,
      "hit": false,
      "t": 73000,
      "d": 109.375,
      "v": 87
    },
    {
      "midi": 62,
      "hit": false,
      "t": 73000,
      "d": 109.375,
      "v": 83
    },
    {
      "midi": 65,
      "hit": false,
      "t": 73000,
      "d": 109.375,
      "v": 82
    },
    {
      "midi": 46,
      "hit": false,
      "t": 73250,
      "d": 109.375,
      "v": 87
    },
    {
      "midi": 58,
      "hit": false,
      "t": 73375,
      "d": 109.375,
      "v": 81
    },
    {
      "midi": 62,
      "hit": false,
      "t": 73375,
      "d": 109.375,
      "v": 81
    },
    {
      "midi": 65,
      "hit": false,
      "t": 73375,
      "d": 109.375,
      "v": 81
    },
    {
      "midi": 46,
      "hit": false,
      "t": 73625,
      "d": 109.375,
      "v": 83
    },
    {
      "midi": 58,
      "hit": false,
      "t": 73750,
      "d": 109.375,
      "v": 83
    },
    {
      "midi": 62,
      "hit": false,
      "t": 73750,
      "d": 109.375,
      "v": 82
    },
    {
      "midi": 65,
      "hit": false,
      "t": 73750,
      "d": 109.375,
      "v": 80
    },
    {
      "midi": 44,
      "hit": false,
      "t": 74000,
      "d": 234.375,
      "v": 86
    },
    {
      "midi": 60,
      "hit": false,
      "t": 74250,
      "d": 109.375,
      "v": 82
    },
    {
      "midi": 63,
      "hit": false,
      "t": 74250,
      "d": 109.375,
      "v": 78
    },
    {
      "midi": 67,
      "hit": false,
      "t": 74250,
      "d": 109.375,
      "v": 84
    },
    {
      "midi": 44,
      "hit": false,
      "t": 74500,
      "d": 109.375,
      "v": 78
    },
    {
      "midi": 60,
      "hit": false,
      "t": 74625,
      "d": 109.375,
      "v": 78
    },
    {
      "midi": 63,
      "hit": false,
      "t": 74625,
      "d": 109.375,
      "v": 81
    },
    {
      "midi": 67,
      "hit": false,
      "t": 74625,
      "d": 109.375,
      "v": 80
    },
    {
      "midi": 44,
      "hit": false,
      "t": 74875,
      "d": 109.375,
      "v": 83
    },
    {
      "midi": 60,
      "hit": false,
      "t": 75000,
      "d": 109.375,
      "v": 80
    },
    {
      "midi": 63,
      "hit": false,
      "t": 75000,
      "d": 109.375,
      "v": 80
    },
    {
      "midi": 67,
      "hit": false,
      "t": 75000,
      "d": 109.375,
      "v": 85
    },
    {
      "midi": 44,
      "hit": false,
      "t": 75250,
      "d": 109.375,
      "v": 85
    },
    {
      "midi": 60,
      "hit": false,
      "t": 75375,
      "d": 109.375,
      "v": 87
    },
    {
      "midi": 63,
      "hit": false,
      "t": 75375,
      "d": 109.375,
      "v": 80
    },
    {
      "midi": 67,
      "hit": false,
      "t": 75375,
      "d": 109.375,
      "v": 87
    },
    {
      "midi": 44,
      "hit": false,
      "t": 75625,
      "d": 109.375,
      "v": 85
    },
    {
      "midi": 60,
      "hit": false,
      "t": 75750,
      "d": 109.375,
      "v": 86
    },
    {
      "midi": 63,
      "hit": false,
      "t": 75750,
      "d": 109.375,
      "v": 85
    },
    {
      "midi": 67,
      "hit": false,
      "t": 75750,
      "d": 109.375,
      "v": 86
    },
    {
      "midi": 46,
      "hit": false,
      "t": 76000,
      "d": 234.375,
      "v": 78
    },
    {
      "midi": 62,
      "hit": false,
      "t": 76250,
      "d": 109.375,
      "v": 83
    },
    {
      "midi": 65,
      "hit": false,
      "t": 76250,
      "d": 109.375,
      "v": 87
    },
    {
      "midi": 70,
      "hit": false,
      "t": 76250,
      "d": 109.375,
      "v": 85
    },
    {
      "midi": 46,
      "hit": false,
      "t": 76500,
      "d": 109.375,
      "v": 83
    },
    {
      "midi": 62,
      "hit": false,
      "t": 76625,
      "d": 109.375,
      "v": 78
    },
    {
      "midi": 65,
      "hit": false,
      "t": 76625,
      "d": 109.375,
      "v": 87
    },
    {
      "midi": 70,
      "hit": false,
      "t": 76625,
      "d": 109.375,
      "v": 78
    },
    {
      "midi": 46,
      "hit": false,
      "t": 76875,
      "d": 109.375,
      "v": 84
    },
    {
      "midi": 63,
      "hit": false,
      "t": 77000,
      "d": 109.375,
      "v": 79
    },
    {
      "midi": 65,
      "hit": false,
      "t": 77000,
      "d": 109.375,
      "v": 87
    },
    {
      "midi": 70,
      "hit": false,
      "t": 77000,
      "d": 109.375,
      "v": 80
    },
    {
      "midi": 63,
      "hit": false,
      "t": 77250,
      "d": 109.375,
      "v": 78
    },
    {
      "midi": 65,
      "hit": false,
      "t": 77250,
      "d": 109.375,
      "v": 87
    },
    {
      "midi": 70,
      "hit": false,
      "t": 77250,
      "d": 109.375,
      "v": 84
    },
    {
      "midi": 62,
      "hit": false,
      "t": 77500,
      "d": 109.375,
      "v": 80
    },
    {
      "midi": 65,
      "hit": false,
      "t": 77500,
      "d": 109.375,
      "v": 87
    },
    {
      "midi": 70,
      "hit": false,
      "t": 77500,
      "d": 109.375,
      "v": 81
    },
    {
      "midi": 62,
      "hit": false,
      "t": 77750,
      "d": 109.375,
      "v": 86
    },
    {
      "midi": 65,
      "hit": false,
      "t": 77750,
      "d": 109.375,
      "v": 83
    },
    {
      "midi": 70,
      "hit": false,
      "t": 77750,
      "d": 109.375,
      "v": 78
    },
    {
      "midi": 48,
      "hit": false,
      "t": 78000,
      "d": 234.375,
      "v": 87
    },
    {
      "midi": 63,
      "hit": false,
      "t": 78250,
      "d": 109.375,
      "v": 84
    },
    {
      "midi": 67,
      "hit": false,
      "t": 78250,
      "d": 109.375,
      "v": 79
    },
    {
      "midi": 70,
      "hit": false,
      "t": 78250,
      "d": 109.375,
      "v": 80
    },
    {
      "midi": 48,
      "hit": false,
      "t": 78500,
      "d": 109.375,
      "v": 80
    },
    {
      "midi": 63,
      "hit": false,
      "t": 78625,
      "d": 109.375,
      "v": 81
    },
    {
      "midi": 67,
      "hit": false,
      "t": 78625,
      "d": 109.375,
      "v": 79
    },
    {
      "midi": 70,
      "hit": false,
      "t": 78625,
      "d": 109.375,
      "v": 83
    },
    {
      "midi": 48,
      "hit": false,
      "t": 78875,
      "d": 109.375,
      "v": 85
    },
    {
      "midi": 63,
      "hit": false,
      "t": 79000,
      "d": 109.375,
      "v": 87
    },
    {
      "midi": 67,
      "hit": false,
      "t": 79000,
      "d": 109.375,
      "v": 86
    },
    {
      "midi": 70,
      "hit": false,
      "t": 79000,
      "d": 109.375,
      "v": 79
    },
    {
      "midi": 48,
      "hit": false,
      "t": 79250,
      "d": 109.375,
      "v": 86
    },
    {
      "midi": 63,
      "hit": false,
      "t": 79375,
      "d": 109.375,
      "v": 86
    },
    {
      "midi": 67,
      "hit": false,
      "t": 79375,
      "d": 109.375,
      "v": 87
    },
    {
      "midi": 70,
      "hit": false,
      "t": 79375,
      "d": 109.375,
      "v": 85
    },
    {
      "midi": 48,
      "hit": false,
      "t": 79625,
      "d": 109.375,
      "v": 87
    },
    {
      "midi": 63,
      "hit": false,
      "t": 79750,
      "d": 109.375,
      "v": 84
    },
    {
      "midi": 67,
      "hit": false,
      "t": 79750,
      "d": 109.375,
      "v": 83
    },
    {
      "midi": 70,
      "hit": false,
      "t": 79750,
      "d": 109.375,
      "v": 80
    },
    {
      "midi": 46,
      "hit": false,
      "t": 80000,
      "d": 234.375,
      "v": 82
    },
    {
      "midi": 58,
      "hit": false,
      "t": 80250,
      "d": 109.375,
      "v": 80
    },
    {
      "midi": 62,
      "hit": false,
      "t": 80250,
      "d": 109.375,
      "v": 87
    },
    {
      "midi": 65,
      "hit": false,
      "t": 80250,
      "d": 109.375,
      "v": 86
    },
    {
      "midi": 46,
      "hit": false,
      "t": 80500,
      "d": 109.375,
      "v": 81
    },
    {
      "midi": 58,
      "hit": false,
      "t": 80625,
      "d": 109.375,
      "v": 87
    },
    {
      "midi": 62,
      "hit": false,
      "t": 80625,
      "d": 109.375,
      "v": 86
    },
    {
      "midi": 65,
      "hit": false,
      "t": 80625,
      "d": 109.375,
      "v": 81
    },
    {
      "midi": 46,
      "hit": false,
      "t": 80875,
      "d": 109.375,
      "v": 86
    },
    {
      "midi": 58,
      "hit": false,
      "t": 81000,
      "d": 109.375,
      "v": 81
    },
    {
      "midi": 62,
      "hit": false,
      "t": 81000,
      "d": 109.375,
      "v": 85
    },
    {
      "midi": 65,
      "hit": false,
      "t": 81000,
      "d": 109.375,
      "v": 78
    },
    {
      "midi": 46,
      "hit": false,
      "t": 81250,
      "d": 109.375,
      "v": 82
    },
    {
      "midi": 58,
      "hit": false,
      "t": 81375,
      "d": 109.375,
      "v": 79
    },
    {
      "midi": 62,
      "hit": false,
      "t": 81375,
      "d": 109.375,
      "v": 81
    },
    {
      "midi": 65,
      "hit": false,
      "t": 81375,
      "d": 109.375,
      "v": 82
    },
    {
      "midi": 46,
      "hit": false,
      "t": 81625,
      "d": 109.375,
      "v": 87
    },
    {
      "midi": 58,
      "hit": false,
      "t": 81750,
      "d": 109.375,
      "v": 85
    },
    {
      "midi": 62,
      "hit": false,
      "t": 81750,
      "d": 109.375,
      "v": 83
    },
    {
      "midi": 65,
      "hit": false,
      "t": 81750,
      "d": 109.375,
      "v": 81
    },
    {
      "midi": 44,
      "hit": false,
      "t": 82000,
      "d": 234.375,
      "v": 81
    },
    {
      "midi": 60,
      "hit": false,
      "t": 82250,
      "d": 109.375,
      "v": 85
    },
    {
      "midi": 63,
      "hit": false,
      "t": 82250,
      "d": 109.375,
      "v": 83
    },
    {
      "midi": 67,
      "hit": false,
      "t": 82250,
      "d": 109.375,
      "v": 82
    },
    {
      "midi": 44,
      "hit": false,
      "t": 82500,
      "d": 109.375,
      "v": 86
    },
    {
      "midi": 60,
      "hit": false,
      "t": 82625,
      "d": 109.375,
      "v": 79
    },
    {
      "midi": 63,
      "hit": false,
      "t": 82625,
      "d": 109.375,
      "v": 81
    },
    {
      "midi": 67,
      "hit": false,
      "t": 82625,
      "d": 109.375,
      "v": 82
    },
    {
      "midi": 44,
      "hit": false,
      "t": 82875,
      "d": 109.375,
      "v": 82
    },
    {
      "midi": 60,
      "hit": false,
      "t": 83000,
      "d": 109.375,
      "v": 78
    },
    {
      "midi": 63,
      "hit": false,
      "t": 83000,
      "d": 109.375,
      "v": 83
    },
    {
      "midi": 67,
      "hit": false,
      "t": 83000,
      "d": 109.375,
      "v": 84
    },
    {
      "midi": 44,
      "hit": false,
      "t": 83250,
      "d": 109.375,
      "v": 79
    },
    {
      "midi": 60,
      "hit": false,
      "t": 83375,
      "d": 109.375,
      "v": 81
    },
    {
      "midi": 63,
      "hit": false,
      "t": 83375,
      "d": 109.375,
      "v": 78
    },
    {
      "midi": 67,
      "hit": false,
      "t": 83375,
      "d": 109.375,
      "v": 86
    },
    {
      "midi": 44,
      "hit": false,
      "t": 83625,
      "d": 109.375,
      "v": 78
    },
    {
      "midi": 60,
      "hit": false,
      "t": 83750,
      "d": 109.375,
      "v": 79
    },
    {
      "midi": 63,
      "hit": false,
      "t": 83750,
      "d": 109.375,
      "v": 78
    },
    {
      "midi": 67,
      "hit": false,
      "t": 83750,
      "d": 109.375,
      "v": 80
    },
    {
      "midi": 46,
      "hit": false,
      "t": 84000,
      "d": 234.375,
      "v": 85
    },
    {
      "midi": 62,
      "hit": false,
      "t": 84250,
      "d": 109.375,
      "v": 86
    },
    {
      "midi": 65,
      "hit": false,
      "t": 84250,
      "d": 109.375,
      "v": 87
    },
    {
      "midi": 70,
      "hit": false,
      "t": 84250,
      "d": 109.375,
      "v": 82
    },
    {
      "midi": 46,
      "hit": false,
      "t": 84500,
      "d": 109.375,
      "v": 85
    },
    {
      "midi": 62,
      "hit": false,
      "t": 84625,
      "d": 109.375,
      "v": 81
    },
    {
      "midi": 65,
      "hit": false,
      "t": 84625,
      "d": 109.375,
      "v": 78
    },
    {
      "midi": 70,
      "hit": false,
      "t": 84625,
      "d": 109.375,
      "v": 83
    },
    {
      "midi": 46,
      "hit": false,
      "t": 84875,
      "d": 109.375,
      "v": 86
    },
    {
      "midi": 58,
      "hit": false,
      "t": 85000,
      "d": 484.375,
      "v": 84
    },
    {
      "midi": 62,
      "hit": false,
      "t": 85000,
      "d": 484.375,
      "v": 82
    },
    {
      "midi": 65,
      "hit": false,
      "t": 85000,
      "d": 484.375,
      "v": 85
    },
    {
      "midi": 58,
      "hit": false,
      "t": 85500,
      "d": 234.375,
      "v": 80
    },
    {
      "midi": 62,
      "hit": false,
      "t": 85500,
      "d": 234.375,
      "v": 85
    },
    {
      "midi": 67,
      "hit": false,
      "t": 85500,
      "d": 234.375,
      "v": 87
    },
    {
      "midi": 58,
      "hit": false,
      "t": 85750,
      "d": 109.375,
      "v": 79
    },
    {
      "midi": 62,
      "hit": false,
      "t": 85750,
      "d": 109.375,
      "v": 84
    },
    {
      "midi": 68,
      "hit": false,
      "t": 85750,
      "d": 109.375,
      "v": 85
    },
    {
      "midi": 48,
      "hit": false,
      "t": 86000,
      "d": 234.375,
      "v": 79
    },
    {
      "midi": 63,
      "hit": false,
      "t": 86250,
      "d": 109.375,
      "v": 83
    },
    {
      "midi": 67,
      "hit": false,
      "t": 86250,
      "d": 109.375,
      "v": 78
    },
    {
      "midi": 70,
      "hit": false,
      "t": 86250,
      "d": 109.375,
      "v": 86
    },
    {
      "midi": 48,
      "hit": false,
      "t": 86500,
      "d": 109.375,
      "v": 84
    },
    {
      "midi": 63,
      "hit": false,
      "t": 86625,
      "d": 109.375,
      "v": 78
    },
    {
      "midi": 67,
      "hit": false,
      "t": 86625,
      "d": 109.375,
      "v": 85
    },
    {
      "midi": 70,
      "hit": false,
      "t": 86625,
      "d": 109.375,
      "v": 78
    },
    {
      "midi": 48,
      "hit": false,
      "t": 86875,
      "d": 109.375,
      "v": 87
    },
    {
      "midi": 63,
      "hit": false,
      "t": 87000,
      "d": 109.375,
      "v": 79
    },
    {
      "midi": 67,
      "hit": false,
      "t": 87000,
      "d": 109.375,
      "v": 79
    },
    {
      "midi": 70,
      "hit": false,
      "t": 87000,
      "d": 109.375,
      "v": 81
    },
    {
      "midi": 48,
      "hit": false,
      "t": 87250,
      "d": 109.375,
      "v": 84
    },
    {
      "midi": 63,
      "hit": false,
      "t": 87375,
      "d": 109.375,
      "v": 85
    },
    {
      "midi": 67,
      "hit": false,
      "t": 87375,
      "d": 109.375,
      "v": 87
    },
    {
      "midi": 70,
      "hit": false,
      "t": 87375,
      "d": 109.375,
      "v": 83
    },
    {
      "midi": 48,
      "hit": false,
      "t": 87625,
      "d": 109.375,
      "v": 78
    },
    {
      "midi": 63,
      "hit": false,
      "t": 87750,
      "d": 109.375,
      "v": 87
    },
    {
      "midi": 67,
      "hit": false,
      "t": 87750,
      "d": 109.375,
      "v": 79
    },
    {
      "midi": 70,
      "hit": false,
      "t": 87750,
      "d": 109.375,
      "v": 80
    },
    {
      "midi": 46,
      "hit": false,
      "t": 88000,
      "d": 234.375,
      "v": 79
    },
    {
      "midi": 58,
      "hit": false,
      "t": 88250,
      "d": 109.375,
      "v": 81
    },
    {
      "midi": 62,
      "hit": false,
      "t": 88250,
      "d": 109.375,
      "v": 84
    },
    {
      "midi": 65,
      "hit": false,
      "t": 88250,
      "d": 109.375,
      "v": 86
    },
    {
      "midi": 46,
      "hit": false,
      "t": 88500,
      "d": 109.375,
      "v": 86
    },
    {
      "midi": 58,
      "hit": false,
      "t": 88625,
      "d": 109.375,
      "v": 87
    },
    {
      "midi": 62,
      "hit": false,
      "t": 88625,
      "d": 109.375,
      "v": 85
    },
    {
      "midi": 65,
      "hit": false,
      "t": 88625,
      "d": 109.375,
      "v": 82
    },
    {
      "midi": 46,
      "hit": false,
      "t": 88875,
      "d": 109.375,
      "v": 79
    },
    {
      "midi": 58,
      "hit": false,
      "t": 89000,
      "d": 109.375,
      "v": 79
    },
    {
      "midi": 62,
      "hit": false,
      "t": 89000,
      "d": 109.375,
      "v": 79
    },
    {
      "midi": 65,
      "hit": false,
      "t": 89000,
      "d": 109.375,
      "v": 79
    },
    {
      "midi": 46,
      "hit": false,
      "t": 89250,
      "d": 109.375,
      "v": 82
    },
    {
      "midi": 58,
      "hit": false,
      "t": 89375,
      "d": 109.375,
      "v": 83
    },
    {
      "midi": 62,
      "hit": false,
      "t": 89375,
      "d": 109.375,
      "v": 83
    },
    {
      "midi": 65,
      "hit": false,
      "t": 89375,
      "d": 109.375,
      "v": 84
    },
    {
      "midi": 46,
      "hit": false,
      "t": 89625,
      "d": 109.375,
      "v": 82
    },
    {
      "midi": 58,
      "hit": false,
      "t": 89750,
      "d": 109.375,
      "v": 79
    },
    {
      "midi": 62,
      "hit": false,
      "t": 89750,
      "d": 109.375,
      "v": 86
    },
    {
      "midi": 65,
      "hit": false,
      "t": 89750,
      "d": 109.375,
      "v": 82
    },
    {
      "midi": 44,
      "hit": false,
      "t": 90000,
      "d": 234.375,
      "v": 84
    },
    {
      "midi": 60,
      "hit": false,
      "t": 90250,
      "d": 109.375,
      "v": 81
    },
    {
      "midi": 63,
      "hit": false,
      "t": 90250,
      "d": 109.375,
      "v": 83
    },
    {
      "midi": 67,
      "hit": false,
      "t": 90250,
      "d": 109.375,
      "v": 78
    },
    {
      "midi": 44,
      "hit": false,
      "t": 90500,
      "d": 109.375,
      "v": 87
    },
    {
      "midi": 60,
      "hit": false,
      "t": 90625,
      "d": 109.375,
      "v": 80
    },
    {
      "midi": 63,
      "hit": false,
      "t": 90625,
      "d": 109.375,
      "v": 85
    },
    {
      "midi": 67,
      "hit": false,
      "t": 90625,
      "d": 109.375,
      "v": 79
    },
    {
      "midi": 44,
      "hit": false,
      "t": 90875,
      "d": 109.375,
      "v": 87
    },
    {
      "midi": 60,
      "hit": false,
      "t": 91000,
      "d": 109.375,
      "v": 86
    },
    {
      "midi": 63,
      "hit": false,
      "t": 91000,
      "d": 109.375,
      "v": 80
    },
    {
      "midi": 67,
      "hit": false,
      "t": 91000,
      "d": 109.375,
      "v": 85
    },
    {
      "midi": 44,
      "hit": false,
      "t": 91250,
      "d": 109.375,
      "v": 81
    },
    {
      "midi": 60,
      "hit": false,
      "t": 91375,
      "d": 109.375,
      "v": 82
    },
    {
      "midi": 63,
      "hit": false,
      "t": 91375,
      "d": 109.375,
      "v": 78
    },
    {
      "midi": 67,
      "hit": false,
      "t": 91375,
      "d": 109.375,
      "v": 85
    },
    {
      "midi": 44,
      "hit": false,
      "t": 91625,
      "d": 109.375,
      "v": 81
    },
    {
      "midi": 60,
      "hit": false,
      "t": 91750,
      "d": 109.375,
      "v": 86
    },
    {
      "midi": 63,
      "hit": false,
      "t": 91750,
      "d": 109.375,
      "v": 80
    },
    {
      "midi": 67,
      "hit": false,
      "t": 91750,
      "d": 109.375,
      "v": 85
    },
    {
      "midi": 46,
      "hit": false,
      "t": 92000,
      "d": 234.375,
      "v": 81
    },
    {
      "midi": 62,
      "hit": false,
      "t": 92250,
      "d": 109.375,
      "v": 79
    },
    {
      "midi": 65,
      "hit": false,
      "t": 92250,
      "d": 109.375,
      "v": 81
    },
    {
      "midi": 70,
      "hit": false,
      "t": 92250,
      "d": 109.375,
      "v": 84
    },
    {
      "midi": 46,
      "hit": false,
      "t": 92500,
      "d": 109.375,
      "v": 86
    },
    {
      "midi": 62,
      "hit": false,
      "t": 92625,
      "d": 109.375,
      "v": 79
    },
    {
      "midi": 65,
      "hit": false,
      "t": 92625,
      "d": 109.375,
      "v": 85
    },
    {
      "midi": 70,
      "hit": false,
      "t": 92625,
      "d": 109.375,
      "v": 82
    },
    {
      "midi": 46,
      "hit": false,
      "t": 92875,
      "d": 109.375,
      "v": 82
    },
    {
      "midi": 63,
      "hit": false,
      "t": 93000,
      "d": 109.375,
      "v": 85
    },
    {
      "midi": 65,
      "hit": false,
      "t": 93000,
      "d": 109.375,
      "v": 83
    },
    {
      "midi": 70,
      "hit": false,
      "t": 93000,
      "d": 109.375,
      "v": 82
    },
    {
      "midi": 63,
      "hit": false,
      "t": 93250,
      "d": 109.375,
      "v": 84
    },
    {
      "midi": 65,
      "hit": false,
      "t": 93250,
      "d": 109.375,
      "v": 82
    },
    {
      "midi": 70,
      "hit": false,
      "t": 93250,
      "d": 109.375,
      "v": 79
    },
    {
      "midi": 62,
      "hit": false,
      "t": 93500,
      "d": 109.375,
      "v": 83
    },
    {
      "midi": 65,
      "hit": false,
      "t": 93500,
      "d": 109.375,
      "v": 79
    },
    {
      "midi": 70,
      "hit": false,
      "t": 93500,
      "d": 109.375,
      "v": 86
    },
    {
      "midi": 62,
      "hit": false,
      "t": 93750,
      "d": 109.375,
      "v": 79
    },
    {
      "midi": 65,
      "hit": false,
      "t": 93750,
      "d": 109.375,
      "v": 82
    },
    {
      "midi": 70,
      "hit": false,
      "t": 93750,
      "d": 109.375,
      "v": 86
    },
    {
      "midi": 48,
      "hit": false,
      "t": 94000,
      "d": 234.375,
      "v": 78
    },
    {
      "midi": 63,
      "hit": false,
      "t": 94250,
      "d": 109.375,
      "v": 86
    },
    {
      "midi": 67,
      "hit": false,
      "t": 94250,
      "d": 109.375,
      "v": 81
    },
    {
      "midi": 70,
      "hit": false,
      "t": 94250,
      "d": 109.375,
      "v": 85
    },
    {
      "midi": 48,
      "hit": false,
      "t": 94500,
      "d": 109.375,
      "v": 79
    },
    {
      "midi": 63,
      "hit": false,
      "t": 94625,
      "d": 109.375,
      "v": 87
    },
    {
      "midi": 67,
      "hit": false,
      "t": 94625,
      "d": 109.375,
      "v": 82
    },
    {
      "midi": 70,
      "hit": false,
      "t": 94625,
      "d": 109.375,
      "v": 83
    },
    {
      "midi": 48,
      "hit": false,
      "t": 94875,
      "d": 109.375,
      "v": 82
    },
    {
      "midi": 63,
      "hit": false,
      "t": 95000,
      "d": 109.375,
      "v": 78
    },
    {
      "midi": 67,
      "hit": false,
      "t": 95000,
      "d": 109.375,
      "v": 79
    },
    {
      "midi": 70,
      "hit": false,
      "t": 95000,
      "d": 109.375,
      "v": 80
    },
    {
      "midi": 48,
      "hit": false,
      "t": 95250,
      "d": 109.375,
      "v": 85
    },
    {
      "midi": 63,
      "hit": false,
      "t": 95375,
      "d": 109.375,
      "v": 84
    },
    {
      "midi": 67,
      "hit": false,
      "t": 95375,
      "d": 109.375,
      "v": 85
    },
    {
      "midi": 70,
      "hit": false,
      "t": 95375,
      "d": 109.375,
      "v": 82
    },
    {
      "midi": 48,
      "hit": false,
      "t": 95625,
      "d": 109.375,
      "v": 83
    },
    {
      "midi": 63,
      "hit": false,
      "t": 95750,
      "d": 109.375,
      "v": 85
    },
    {
      "midi": 67,
      "hit": false,
      "t": 95750,
      "d": 109.375,
      "v": 85
    },
    {
      "midi": 70,
      "hit": false,
      "t": 95750,
      "d": 109.375,
      "v": 86
    },
    {
      "midi": 46,
      "hit": false,
      "t": 96000,
      "d": 234.375,
      "v": 87
    },
    {
      "midi": 58,
      "hit": false,
      "t": 96250,
      "d": 109.375,
      "v": 82
    },
    {
      "midi": 62,
      "hit": false,
      "t": 96250,
      "d": 109.375,
      "v": 87
    },
    {
      "midi": 65,
      "hit": false,
      "t": 96250,
      "d": 109.375,
      "v": 79
    },
    {
      "midi": 46,
      "hit": false,
      "t": 96500,
      "d": 109.375,
      "v": 87
    },
    {
      "midi": 58,
      "hit": false,
      "t": 96625,
      "d": 109.375,
      "v": 81
    },
    {
      "midi": 62,
      "hit": false,
      "t": 96625,
      "d": 109.375,
      "v": 81
    },
    {
      "midi": 65,
      "hit": false,
      "t": 96625,
      "d": 109.375,
      "v": 78
    },
    {
      "midi": 46,
      "hit": false,
      "t": 96875,
      "d": 109.375,
      "v": 87
    },
    {
      "midi": 58,
      "hit": false,
      "t": 97000,
      "d": 109.375,
      "v": 82
    },
    {
      "midi": 62,
      "hit": false,
      "t": 97000,
      "d": 109.375,
      "v": 84
    },
    {
      "midi": 65,
      "hit": false,
      "t": 97000,
      "d": 109.375,
      "v": 79
    },
    {
      "midi": 46,
      "hit": false,
      "t": 97250,
      "d": 109.375,
      "v": 86
    },
    {
      "midi": 58,
      "hit": false,
      "t": 97375,
      "d": 109.375,
      "v": 87
    },
    {
      "midi": 62,
      "hit": false,
      "t": 97375,
      "d": 109.375,
      "v": 87
    },
    {
      "midi": 65,
      "hit": false,
      "t": 97375,
      "d": 109.375,
      "v": 86
    },
    {
      "midi": 46,
      "hit": false,
      "t": 97625,
      "d": 109.375,
      "v": 85
    },
    {
      "midi": 58,
      "hit": false,
      "t": 97750,
      "d": 109.375,
      "v": 79
    },
    {
      "midi": 62,
      "hit": false,
      "t": 97750,
      "d": 109.375,
      "v": 86
    },
    {
      "midi": 65,
      "hit": false,
      "t": 97750,
      "d": 109.375,
      "v": 85
    },
    {
      "midi": 44,
      "hit": false,
      "t": 98000,
      "d": 234.375,
      "v": 83
    },
    {
      "midi": 60,
      "hit": false,
      "t": 98250,
      "d": 109.375,
      "v": 85
    },
    {
      "midi": 63,
      "hit": false,
      "t": 98250,
      "d": 109.375,
      "v": 83
    },
    {
      "midi": 67,
      "hit": false,
      "t": 98250,
      "d": 109.375,
      "v": 80
    },
    {
      "midi": 44,
      "hit": false,
      "t": 98500,
      "d": 109.375,
      "v": 82
    },
    {
      "midi": 60,
      "hit": false,
      "t": 98625,
      "d": 109.375,
      "v": 79
    },
    {
      "midi": 63,
      "hit": false,
      "t": 98625,
      "d": 109.375,
      "v": 78
    },
    {
      "midi": 67,
      "hit": false,
      "t": 98625,
      "d": 109.375,
      "v": 85
    },
    {
      "midi": 44,
      "hit": false,
      "t": 98875,
      "d": 109.375,
      "v": 83
    },
    {
      "midi": 60,
      "hit": false,
      "t": 99000,
      "d": 109.375,
      "v": 85
    },
    {
      "midi": 63,
      "hit": false,
      "t": 99000,
      "d": 109.375,
      "v": 83
    },
    {
      "midi": 67,
      "hit": false,
      "t": 99000,
      "d": 109.375,
      "v": 80
    },
    {
      "midi": 44,
      "hit": false,
      "t": 99250,
      "d": 109.375,
      "v": 81
    },
    {
      "midi": 60,
      "hit": false,
      "t": 99375,
      "d": 109.375,
      "v": 87
    },
    {
      "midi": 63,
      "hit": false,
      "t": 99375,
      "d": 109.375,
      "v": 84
    },
    {
      "midi": 67,
      "hit": false,
      "t": 99375,
      "d": 109.375,
      "v": 87
    },
    {
      "midi": 44,
      "hit": false,
      "t": 99625,
      "d": 109.375,
      "v": 84
    },
    {
      "midi": 60,
      "hit": false,
      "t": 99750,
      "d": 109.375,
      "v": 87
    },
    {
      "midi": 63,
      "hit": false,
      "t": 99750,
      "d": 109.375,
      "v": 84
    },
    {
      "midi": 67,
      "hit": false,
      "t": 99750,
      "d": 109.375,
      "v": 82
    },
    {
      "midi": 46,
      "hit": false,
      "t": 100000,
      "d": 234.375,
      "v": 80
    },
    {
      "midi": 62,
      "hit": false,
      "t": 100250,
      "d": 109.375,
      "v": 83
    },
    {
      "midi": 65,
      "hit": false,
      "t": 100250,
      "d": 109.375,
      "v": 83
    },
    {
      "midi": 70,
      "hit": false,
      "t": 100250,
      "d": 109.375,
      "v": 78
    },
    {
      "midi": 46,
      "hit": false,
      "t": 100500,
      "d": 109.375,
      "v": 78
    },
    {
      "midi": 62,
      "hit": false,
      "t": 100625,
      "d": 109.375,
      "v": 80
    },
    {
      "midi": 65,
      "hit": false,
      "t": 100625,
      "d": 109.375,
      "v": 81
    },
    {
      "midi": 70,
      "hit": false,
      "t": 100625,
      "d": 109.375,
      "v": 78
    },
    {
      "midi": 46,
      "hit": false,
      "t": 100875,
      "d": 109.375,
      "v": 83
    },
    {
      "midi": 63,
      "hit": false,
      "t": 101000,
      "d": 109.375,
      "v": 82
    },
    {
      "midi": 65,
      "hit": false,
      "t": 101000,
      "d": 109.375,
      "v": 85
    },
    {
      "midi": 70,
      "hit": false,
      "t": 101000,
      "d": 109.375,
      "v": 83
    },
    {
      "midi": 63,
      "hit": false,
      "t": 101250,
      "d": 109.375,
      "v": 84
    },
    {
      "midi": 65,
      "hit": false,
      "t": 101250,
      "d": 109.375,
      "v": 78
    },
    {
      "midi": 70,
      "hit": false,
      "t": 101250,
      "d": 109.375,
      "v": 82
    },
    {
      "midi": 62,
      "hit": false,
      "t": 101500,
      "d": 109.375,
      "v": 79
    },
    {
      "midi": 65,
      "hit": false,
      "t": 101500,
      "d": 109.375,
      "v": 78
    },
    {
      "midi": 70,
      "hit": false,
      "t": 101500,
      "d": 109.375,
      "v": 84
    },
    {
      "midi": 62,
      "hit": false,
      "t": 101750,
      "d": 109.375,
      "v": 80
    },
    {
      "midi": 65,
      "hit": false,
      "t": 101750,
      "d": 109.375,
      "v": 85
    },
    {
      "midi": 70,
      "hit": false,
      "t": 101750,
      "d": 109.375,
      "v": 82
    },
    {
      "midi": 48,
      "hit": false,
      "t": 102000,
      "d": 234.375,
      "v": 81
    },
    {
      "midi": 63,
      "hit": false,
      "t": 102250,
      "d": 109.375,
      "v": 87
    },
    {
      "midi": 67,
      "hit": false,
      "t": 102250,
      "d": 109.375,
      "v": 85
    },
    {
      "midi": 70,
      "hit": false,
      "t": 102250,
      "d": 109.375,
      "v": 87
    },
    {
      "midi": 48,
      "hit": false,
      "t": 102500,
      "d": 109.375,
      "v": 80
    },
    {
      "midi": 63,
      "hit": false,
      "t": 102625,
      "d": 109.375,
      "v": 82
    },
    {
      "midi": 67,
      "hit": false,
      "t": 102625,
      "d": 109.375,
      "v": 78
    },
    {
      "midi": 70,
      "hit": false,
      "t": 102625,
      "d": 109.375,
      "v": 86
    },
    {
      "midi": 48,
      "hit": false,
      "t": 102875,
      "d": 109.375,
      "v": 87
    },
    {
      "midi": 63,
      "hit": false,
      "t": 103000,
      "d": 109.375,
      "v": 79
    },
    {
      "midi": 67,
      "hit": false,
      "t": 103000,
      "d": 109.375,
      "v": 86
    },
    {
      "midi": 70,
      "hit": false,
      "t": 103000,
      "d": 109.375,
      "v": 79
    },
    {
      "midi": 48,
      "hit": false,
      "t": 103250,
      "d": 109.375,
      "v": 78
    },
    {
      "midi": 63,
      "hit": false,
      "t": 103375,
      "d": 109.375,
      "v": 79
    },
    {
      "midi": 67,
      "hit": false,
      "t": 103375,
      "d": 109.375,
      "v": 78
    },
    {
      "midi": 70,
      "hit": false,
      "t": 103375,
      "d": 109.375,
      "v": 83
    },
    {
      "midi": 48,
      "hit": false,
      "t": 103625,
      "d": 109.375,
      "v": 87
    },
    {
      "midi": 63,
      "hit": false,
      "t": 103750,
      "d": 109.375,
      "v": 86
    },
    {
      "midi": 67,
      "hit": false,
      "t": 103750,
      "d": 109.375,
      "v": 80
    },
    {
      "midi": 70,
      "hit": false,
      "t": 103750,
      "d": 109.375,
      "v": 82
    },
    {
      "midi": 46,
      "hit": false,
      "t": 104000,
      "d": 234.375,
      "v": 83
    },
    {
      "midi": 58,
      "hit": false,
      "t": 104250,
      "d": 109.375,
      "v": 84
    },
    {
      "midi": 62,
      "hit": false,
      "t": 104250,
      "d": 109.375,
      "v": 82
    },
    {
      "midi": 65,
      "hit": false,
      "t": 104250,
      "d": 109.375,
      "v": 85
    },
    {
      "midi": 46,
      "hit": false,
      "t": 104500,
      "d": 109.375,
      "v": 81
    },
    {
      "midi": 58,
      "hit": false,
      "t": 104625,
      "d": 109.375,
      "v": 86
    },
    {
      "midi": 62,
      "hit": false,
      "t": 104625,
      "d": 109.375,
      "v": 83
    },
    {
      "midi": 65,
      "hit": false,
      "t": 104625,
      "d": 109.375,
      "v": 85
    },
    {
      "midi": 46,
      "hit": false,
      "t": 104875,
      "d": 109.375,
      "v": 79
    },
    {
      "midi": 58,
      "hit": false,
      "t": 105000,
      "d": 109.375,
      "v": 81
    },
    {
      "midi": 62,
      "hit": false,
      "t": 105000,
      "d": 109.375,
      "v": 83
    },
    {
      "midi": 65,
      "hit": false,
      "t": 105000,
      "d": 109.375,
      "v": 81
    },
    {
      "midi": 46,
      "hit": false,
      "t": 105250,
      "d": 109.375,
      "v": 81
    },
    {
      "midi": 58,
      "hit": false,
      "t": 105375,
      "d": 109.375,
      "v": 86
    },
    {
      "midi": 62,
      "hit": false,
      "t": 105375,
      "d": 109.375,
      "v": 78
    },
    {
      "midi": 65,
      "hit": false,
      "t": 105375,
      "d": 109.375,
      "v": 79
    },
    {
      "midi": 46,
      "hit": false,
      "t": 105625,
      "d": 109.375,
      "v": 85
    },
    {
      "midi": 58,
      "hit": false,
      "t": 105750,
      "d": 109.375,
      "v": 85
    },
    {
      "midi": 62,
      "hit": false,
      "t": 105750,
      "d": 109.375,
      "v": 85
    },
    {
      "midi": 65,
      "hit": false,
      "t": 105750,
      "d": 109.375,
      "v": 81
    },
    {
      "midi": 44,
      "hit": false,
      "t": 106000,
      "d": 234.375,
      "v": 79
    },
    {
      "midi": 60,
      "hit": false,
      "t": 106250,
      "d": 109.375,
      "v": 78
    },
    {
      "midi": 63,
      "hit": false,
      "t": 106250,
      "d": 109.375,
      "v": 87
    },
    {
      "midi": 67,
      "hit": false,
      "t": 106250,
      "d": 109.375,
      "v": 86
    },
    {
      "midi": 44,
      "hit": false,
      "t": 106500,
      "d": 109.375,
      "v": 82
    },
    {
      "midi": 60,
      "hit": false,
      "t": 106625,
      "d": 109.375,
      "v": 79
    },
    {
      "midi": 63,
      "hit": false,
      "t": 106625,
      "d": 109.375,
      "v": 83
    },
    {
      "midi": 67,
      "hit": false,
      "t": 106625,
      "d": 109.375,
      "v": 78
    },
    {
      "midi": 44,
      "hit": false,
      "t": 106875,
      "d": 109.375,
      "v": 86
    },
    {
      "midi": 60,
      "hit": false,
      "t": 107000,
      "d": 109.375,
      "v": 87
    },
    {
      "midi": 63,
      "hit": false,
      "t": 107000,
      "d": 109.375,
      "v": 85
    },
    {
      "midi": 67,
      "hit": false,
      "t": 107000,
      "d": 109.375,
      "v": 84
    },
    {
      "midi": 44,
      "hit": false,
      "t": 107250,
      "d": 109.375,
      "v": 85
    },
    {
      "midi": 60,
      "hit": false,
      "t": 107375,
      "d": 109.375,
      "v": 86
    },
    {
      "midi": 63,
      "hit": false,
      "t": 107375,
      "d": 109.375,
      "v": 79
    },
    {
      "midi": 67,
      "hit": false,
      "t": 107375,
      "d": 109.375,
      "v": 81
    },
    {
      "midi": 44,
      "hit": false,
      "t": 107625,
      "d": 109.375,
      "v": 87
    },
    {
      "midi": 60,
      "hit": false,
      "t": 107750,
      "d": 109.375,
      "v": 80
    },
    {
      "midi": 63,
      "hit": false,
      "t": 107750,
      "d": 109.375,
      "v": 86
    },
    {
      "midi": 67,
      "hit": false,
      "t": 107750,
      "d": 109.375,
      "v": 81
    },
    {
      "midi": 46,
      "hit": false,
      "t": 108000,
      "d": 234.375,
      "v": 81
    },
    {
      "midi": 62,
      "hit": false,
      "t": 108250,
      "d": 109.375,
      "v": 84
    },
    {
      "midi": 65,
      "hit": false,
      "t": 108250,
      "d": 109.375,
      "v": 82
    },
    {
      "midi": 70,
      "hit": false,
      "t": 108250,
      "d": 109.375,
      "v": 78
    },
    {
      "midi": 46,
      "hit": false,
      "t": 108500,
      "d": 109.375,
      "v": 84
    },
    {
      "midi": 62,
      "hit": false,
      "t": 108625,
      "d": 109.375,
      "v": 79
    },
    {
      "midi": 65,
      "hit": false,
      "t": 108625,
      "d": 109.375,
      "v": 83
    },
    {
      "midi": 70,
      "hit": false,
      "t": 108625,
      "d": 109.375,
      "v": 80
    },
    {
      "midi": 46,
      "hit": false,
      "t": 108875,
      "d": 109.375,
      "v": 81
    },
    {
      "midi": 63,
      "hit": false,
      "t": 109000,
      "d": 109.375,
      "v": 85
    },
    {
      "midi": 65,
      "hit": false,
      "t": 109000,
      "d": 109.375,
      "v": 85
    },
    {
      "midi": 70,
      "hit": false,
      "t": 109000,
      "d": 109.375,
      "v": 83
    },
    {
      "midi": 63,
      "hit": false,
      "t": 109250,
      "d": 109.375,
      "v": 81
    },
    {
      "midi": 65,
      "hit": false,
      "t": 109250,
      "d": 109.375,
      "v": 79
    },
    {
      "midi": 70,
      "hit": false,
      "t": 109250,
      "d": 109.375,
      "v": 78
    },
    {
      "midi": 62,
      "hit": false,
      "t": 109500,
      "d": 109.375,
      "v": 81
    },
    {
      "midi": 65,
      "hit": false,
      "t": 109500,
      "d": 109.375,
      "v": 87
    },
    {
      "midi": 70,
      "hit": false,
      "t": 109500,
      "d": 109.375,
      "v": 83
    },
    {
      "midi": 62,
      "hit": false,
      "t": 109750,
      "d": 109.375,
      "v": 81
    },
    {
      "midi": 65,
      "hit": false,
      "t": 109750,
      "d": 109.375,
      "v": 83
    },
    {
      "midi": 70,
      "hit": false,
      "t": 109750,
      "d": 109.375,
      "v": 81
    },
    {
      "midi": 48,
      "hit": false,
      "t": 110000,
      "d": 234.375,
      "v": 83
    },
    {
      "midi": 63,
      "hit": false,
      "t": 110250,
      "d": 109.375,
      "v": 87
    },
    {
      "midi": 67,
      "hit": false,
      "t": 110250,
      "d": 109.375,
      "v": 82
    },
    {
      "midi": 70,
      "hit": false,
      "t": 110250,
      "d": 109.375,
      "v": 83
    },
    {
      "midi": 48,
      "hit": false,
      "t": 110500,
      "d": 109.375,
      "v": 85
    },
    {
      "midi": 63,
      "hit": false,
      "t": 110625,
      "d": 109.375,
      "v": 81
    },
    {
      "midi": 67,
      "hit": false,
      "t": 110625,
      "d": 109.375,
      "v": 87
    },
    {
      "midi": 70,
      "hit": false,
      "t": 110625,
      "d": 109.375,
      "v": 86
    },
    {
      "midi": 48,
      "hit": false,
      "t": 110875,
      "d": 109.375,
      "v": 79
    },
    {
      "midi": 63,
      "hit": false,
      "t": 111000,
      "d": 109.375,
      "v": 79
    },
    {
      "midi": 67,
      "hit": false,
      "t": 111000,
      "d": 109.375,
      "v": 83
    },
    {
      "midi": 70,
      "hit": false,
      "t": 111000,
      "d": 109.375,
      "v": 82
    },
    {
      "midi": 48,
      "hit": false,
      "t": 111250,
      "d": 109.375,
      "v": 84
    },
    {
      "midi": 63,
      "hit": false,
      "t": 111375,
      "d": 109.375,
      "v": 83
    },
    {
      "midi": 67,
      "hit": false,
      "t": 111375,
      "d": 109.375,
      "v": 81
    },
    {
      "midi": 70,
      "hit": false,
      "t": 111375,
      "d": 109.375,
      "v": 80
    },
    {
      "midi": 48,
      "hit": false,
      "t": 111625,
      "d": 109.375,
      "v": 86
    },
    {
      "midi": 63,
      "hit": false,
      "t": 111750,
      "d": 109.375,
      "v": 86
    },
    {
      "midi": 67,
      "hit": false,
      "t": 111750,
      "d": 109.375,
      "v": 79
    },
    {
      "midi": 70,
      "hit": false,
      "t": 111750,
      "d": 109.375,
      "v": 78
    },
    {
      "midi": 46,
      "hit": false,
      "t": 112000,
      "d": 234.375,
      "v": 80
    },
    {
      "midi": 58,
      "hit": false,
      "t": 112250,
      "d": 109.375,
      "v": 86
    },
    {
      "midi": 62,
      "hit": false,
      "t": 112250,
      "d": 109.375,
      "v": 84
    },
    {
      "midi": 65,
      "hit": false,
      "t": 112250,
      "d": 109.375,
      "v": 82
    },
    {
      "midi": 46,
      "hit": false,
      "t": 112500,
      "d": 109.375,
      "v": 84
    },
    {
      "midi": 58,
      "hit": false,
      "t": 112625,
      "d": 109.375,
      "v": 83
    },
    {
      "midi": 62,
      "hit": false,
      "t": 112625,
      "d": 109.375,
      "v": 84
    },
    {
      "midi": 65,
      "hit": false,
      "t": 112625,
      "d": 109.375,
      "v": 79
    },
    {
      "midi": 46,
      "hit": false,
      "t": 112875,
      "d": 109.375,
      "v": 84
    },
    {
      "midi": 58,
      "hit": false,
      "t": 113000,
      "d": 109.375,
      "v": 85
    },
    {
      "midi": 62,
      "hit": false,
      "t": 113000,
      "d": 109.375,
      "v": 86
    },
    {
      "midi": 65,
      "hit": false,
      "t": 113000,
      "d": 109.375,
      "v": 84
    },
    {
      "midi": 46,
      "hit": false,
      "t": 113250,
      "d": 109.375,
      "v": 82
    },
    {
      "midi": 58,
      "hit": false,
      "t": 113375,
      "d": 109.375,
      "v": 82
    },
    {
      "midi": 62,
      "hit": false,
      "t": 113375,
      "d": 109.375,
      "v": 85
    },
    {
      "midi": 65,
      "hit": false,
      "t": 113375,
      "d": 109.375,
      "v": 78
    },
    {
      "midi": 46,
      "hit": false,
      "t": 113625,
      "d": 109.375,
      "v": 81
    },
    {
      "midi": 58,
      "hit": false,
      "t": 113750,
      "d": 109.375,
      "v": 84
    },
    {
      "midi": 62,
      "hit": false,
      "t": 113750,
      "d": 109.375,
      "v": 83
    },
    {
      "midi": 65,
      "hit": false,
      "t": 113750,
      "d": 109.375,
      "v": 80
    },
    {
      "midi": 44,
      "hit": false,
      "t": 114000,
      "d": 234.375,
      "v": 83
    },
    {
      "midi": 60,
      "hit": false,
      "t": 114250,
      "d": 109.375,
      "v": 87
    },
    {
      "midi": 63,
      "hit": false,
      "t": 114250,
      "d": 109.375,
      "v": 86
    },
    {
      "midi": 67,
      "hit": false,
      "t": 114250,
      "d": 109.375,
      "v": 81
    },
    {
      "midi": 44,
      "hit": false,
      "t": 114500,
      "d": 109.375,
      "v": 81
    },
    {
      "midi": 60,
      "hit": false,
      "t": 114625,
      "d": 109.375,
      "v": 86
    },
    {
      "midi": 63,
      "hit": false,
      "t": 114625,
      "d": 109.375,
      "v": 86
    },
    {
      "midi": 67,
      "hit": false,
      "t": 114625,
      "d": 109.375,
      "v": 83
    },
    {
      "midi": 44,
      "hit": false,
      "t": 114875,
      "d": 109.375,
      "v": 80
    },
    {
      "midi": 60,
      "hit": false,
      "t": 115000,
      "d": 109.375,
      "v": 80
    },
    {
      "midi": 63,
      "hit": false,
      "t": 115000,
      "d": 109.375,
      "v": 79
    },
    {
      "midi": 67,
      "hit": false,
      "t": 115000,
      "d": 109.375,
      "v": 83
    },
    {
      "midi": 44,
      "hit": false,
      "t": 115250,
      "d": 109.375,
      "v": 86
    },
    {
      "midi": 60,
      "hit": false,
      "t": 115375,
      "d": 109.375,
      "v": 86
    },
    {
      "midi": 63,
      "hit": false,
      "t": 115375,
      "d": 109.375,
      "v": 79
    },
    {
      "midi": 67,
      "hit": false,
      "t": 115375,
      "d": 109.375,
      "v": 79
    },
    {
      "midi": 44,
      "hit": false,
      "t": 115625,
      "d": 109.375,
      "v": 86
    },
    {
      "midi": 60,
      "hit": false,
      "t": 115750,
      "d": 109.375,
      "v": 80
    },
    {
      "midi": 63,
      "hit": false,
      "t": 115750,
      "d": 109.375,
      "v": 86
    },
    {
      "midi": 67,
      "hit": false,
      "t": 115750,
      "d": 109.375,
      "v": 86
    },
    {
      "midi": 46,
      "hit": false,
      "t": 116000,
      "d": 234.375,
      "v": 83
    },
    {
      "midi": 58,
      "hit": false,
      "t": 116250,
      "d": 109.375,
      "v": 78
    },
    {
      "midi": 63,
      "hit": false,
      "t": 116250,
      "d": 109.375,
      "v": 79
    },
    {
      "midi": 65,
      "hit": false,
      "t": 116250,
      "d": 109.375,
      "v": 81
    },
    {
      "midi": 46,
      "hit": false,
      "t": 116500,
      "d": 109.375,
      "v": 86
    },
    {
      "midi": 58,
      "hit": false,
      "t": 116625,
      "d": 109.375,
      "v": 85
    },
    {
      "midi": 63,
      "hit": false,
      "t": 116625,
      "d": 109.375,
      "v": 84
    },
    {
      "midi": 65,
      "hit": false,
      "t": 116625,
      "d": 109.375,
      "v": 78
    },
    {
      "midi": 46,
      "hit": false,
      "t": 116875,
      "d": 109.375,
      "v": 83
    },
    {
      "midi": 58,
      "hit": false,
      "t": 117000,
      "d": 109.375,
      "v": 84
    },
    {
      "midi": 62,
      "hit": false,
      "t": 117000,
      "d": 109.375,
      "v": 82
    },
    {
      "midi": 65,
      "hit": false,
      "t": 117000,
      "d": 109.375,
      "v": 86
    },
    {
      "midi": 46,
      "hit": false,
      "t": 117250,
      "d": 109.375,
      "v": 87
    },
    {
      "midi": 58,
      "hit": false,
      "t": 117375,
      "d": 109.375,
      "v": 86
    },
    {
      "midi": 62,
      "hit": false,
      "t": 117375,
      "d": 109.375,
      "v": 80
    },
    {
      "midi": 65,
      "hit": false,
      "t": 117375,
      "d": 109.375,
      "v": 82
    },
    {
      "midi": 46,
      "hit": false,
      "t": 117625,
      "d": 109.375,
      "v": 86
    },
    {
      "midi": 58,
      "hit": false,
      "t": 117750,
      "d": 109.375,
      "v": 86
    },
    {
      "midi": 62,
      "hit": false,
      "t": 117750,
      "d": 109.375,
      "v": 80
    },
    {
      "midi": 65,
      "hit": false,
      "t": 117750,
      "d": 109.375,
      "v": 83
    },
    {
      "midi": 48,
      "hit": false,
      "t": 118000,
      "d": 234.375,
      "v": 86
    },
    {
      "midi": 63,
      "hit": false,
      "t": 118250,
      "d": 109.375,
      "v": 87
    },
    {
      "midi": 67,
      "hit": false,
      "t": 118250,
      "d": 109.375,
      "v": 87
    },
    {
      "midi": 70,
      "hit": false,
      "t": 118250,
      "d": 109.375,
      "v": 86
    },
    {
      "midi": 48,
      "hit": false,
      "t": 118500,
      "d": 109.375,
      "v": 83
    },
    {
      "midi": 63,
      "hit": false,
      "t": 118625,
      "d": 109.375,
      "v": 82
    },
    {
      "midi": 67,
      "hit": false,
      "t": 118625,
      "d": 109.375,
      "v": 79
    },
    {
      "midi": 70,
      "hit": false,
      "t": 118625,
      "d": 109.375,
      "v": 81
    },
    {
      "midi": 48,
      "hit": false,
      "t": 118875,
      "d": 109.375,
      "v": 81
    },
    {
      "midi": 63,
      "hit": false,
      "t": 119000,
      "d": 109.375,
      "v": 87
    },
    {
      "midi": 67,
      "hit": false,
      "t": 119000,
      "d": 109.375,
      "v": 84
    },
    {
      "midi": 70,
      "hit": false,
      "t": 119000,
      "d": 109.375,
      "v": 87
    },
    {
      "midi": 48,
      "hit": false,
      "t": 119250,
      "d": 109.375,
      "v": 82
    },
    {
      "midi": 63,
      "hit": false,
      "t": 119375,
      "d": 109.375,
      "v": 78
    },
    {
      "midi": 67,
      "hit": false,
      "t": 119375,
      "d": 109.375,
      "v": 79
    },
    {
      "midi": 70,
      "hit": false,
      "t": 119375,
      "d": 109.375,
      "v": 87
    },
    {
      "midi": 48,
      "hit": false,
      "t": 119625,
      "d": 109.375,
      "v": 81
    },
    {
      "midi": 63,
      "hit": false,
      "t": 119750,
      "d": 109.375,
      "v": 87
    },
    {
      "midi": 67,
      "hit": false,
      "t": 119750,
      "d": 109.375,
      "v": 82
    },
    {
      "midi": 70,
      "hit": false,
      "t": 119750,
      "d": 109.375,
      "v": 82
    },
    {
      "midi": 46,
      "hit": false,
      "t": 120000,
      "d": 234.375,
      "v": 79
    },
    {
      "midi": 58,
      "hit": false,
      "t": 120250,
      "d": 109.375,
      "v": 86
    },
    {
      "midi": 62,
      "hit": false,
      "t": 120250,
      "d": 109.375,
      "v": 86
    },
    {
      "midi": 65,
      "hit": false,
      "t": 120250,
      "d": 109.375,
      "v": 84
    },
    {
      "midi": 46,
      "hit": false,
      "t": 120500,
      "d": 109.375,
      "v": 87
    },
    {
      "midi": 58,
      "hit": false,
      "t": 120625,
      "d": 109.375,
      "v": 82
    },
    {
      "midi": 62,
      "hit": false,
      "t": 120625,
      "d": 109.375,
      "v": 79
    },
    {
      "midi": 65,
      "hit": false,
      "t": 120625,
      "d": 109.375,
      "v": 86
    },
    {
      "midi": 46,
      "hit": false,
      "t": 120875,
      "d": 109.375,
      "v": 81
    },
    {
      "midi": 58,
      "hit": false,
      "t": 121000,
      "d": 109.375,
      "v": 87
    },
    {
      "midi": 62,
      "hit": false,
      "t": 121000,
      "d": 109.375,
      "v": 79
    },
    {
      "midi": 65,
      "hit": false,
      "t": 121000,
      "d": 109.375,
      "v": 85
    },
    {
      "midi": 46,
      "hit": false,
      "t": 121250,
      "d": 109.375,
      "v": 80
    },
    {
      "midi": 58,
      "hit": false,
      "t": 121375,
      "d": 109.375,
      "v": 78
    },
    {
      "midi": 62,
      "hit": false,
      "t": 121375,
      "d": 109.375,
      "v": 82
    },
    {
      "midi": 65,
      "hit": false,
      "t": 121375,
      "d": 109.375,
      "v": 81
    },
    {
      "midi": 46,
      "hit": false,
      "t": 121625,
      "d": 109.375,
      "v": 80
    },
    {
      "midi": 58,
      "hit": false,
      "t": 121750,
      "d": 109.375,
      "v": 79
    },
    {
      "midi": 62,
      "hit": false,
      "t": 121750,
      "d": 109.375,
      "v": 86
    },
    {
      "midi": 65,
      "hit": false,
      "t": 121750,
      "d": 109.375,
      "v": 87
    },
    {
      "midi": 44,
      "hit": false,
      "t": 122000,
      "d": 234.375,
      "v": 83
    },
    {
      "midi": 60,
      "hit": false,
      "t": 122250,
      "d": 109.375,
      "v": 80
    },
    {
      "midi": 63,
      "hit": false,
      "t": 122250,
      "d": 109.375,
      "v": 82
    },
    {
      "midi": 67,
      "hit": false,
      "t": 122250,
      "d": 109.375,
      "v": 82
    },
    {
      "midi": 44,
      "hit": false,
      "t": 122500,
      "d": 109.375,
      "v": 80
    },
    {
      "midi": 60,
      "hit": false,
      "t": 122625,
      "d": 109.375,
      "v": 82
    },
    {
      "midi": 63,
      "hit": false,
      "t": 122625,
      "d": 109.375,
      "v": 79
    },
    {
      "midi": 67,
      "hit": false,
      "t": 122625,
      "d": 109.375,
      "v": 86
    },
    {
      "midi": 44,
      "hit": false,
      "t": 122875,
      "d": 109.375,
      "v": 80
    },
    {
      "midi": 60,
      "hit": false,
      "t": 123000,
      "d": 109.375,
      "v": 87
    },
    {
      "midi": 63,
      "hit": false,
      "t": 123000,
      "d": 109.375,
      "v": 83
    },
    {
      "midi": 67,
      "hit": false,
      "t": 123000,
      "d": 109.375,
      "v": 87
    },
    {
      "midi": 44,
      "hit": false,
      "t": 123250,
      "d": 109.375,
      "v": 81
    },
    {
      "midi": 60,
      "hit": false,
      "t": 123375,
      "d": 109.375,
      "v": 82
    },
    {
      "midi": 63,
      "hit": false,
      "t": 123375,
      "d": 109.375,
      "v": 81
    },
    {
      "midi": 67,
      "hit": false,
      "t": 123375,
      "d": 109.375,
      "v": 83
    },
    {
      "midi": 44,
      "hit": false,
      "t": 123625,
      "d": 109.375,
      "v": 86
    },
    {
      "midi": 60,
      "hit": false,
      "t": 123750,
      "d": 109.375,
      "v": 87
    },
    {
      "midi": 63,
      "hit": false,
      "t": 123750,
      "d": 109.375,
      "v": 87
    },
    {
      "midi": 67,
      "hit": false,
      "t": 123750,
      "d": 109.375,
      "v": 79
    },
    {
      "midi": 46,
      "hit": false,
      "t": 124000,
      "d": 234.375,
      "v": 84
    },
    {
      "midi": 62,
      "hit": false,
      "t": 124250,
      "d": 109.375,
      "v": 82
    },
    {
      "midi": 65,
      "hit": false,
      "t": 124250,
      "d": 109.375,
      "v": 85
    },
    {
      "midi": 70,
      "hit": false,
      "t": 124250,
      "d": 109.375,
      "v": 84
    },
    {
      "midi": 46,
      "hit": false,
      "t": 124500,
      "d": 109.375,
      "v": 86
    },
    {
      "midi": 62,
      "hit": false,
      "t": 124625,
      "d": 109.375,
      "v": 86
    },
    {
      "midi": 65,
      "hit": false,
      "t": 124625,
      "d": 109.375,
      "v": 79
    },
    {
      "midi": 70,
      "hit": false,
      "t": 124625,
      "d": 109.375,
      "v": 80
    },
    {
      "midi": 46,
      "hit": false,
      "t": 124875,
      "d": 109.375,
      "v": 87
    },
    {
      "midi": 63,
      "hit": false,
      "t": 125000,
      "d": 109.375,
      "v": 87
    },
    {
      "midi": 65,
      "hit": false,
      "t": 125000,
      "d": 109.375,
      "v": 81
    },
    {
      "midi": 70,
      "hit": false,
      "t": 125000,
      "d": 109.375,
      "v": 83
    },
    {
      "midi": 63,
      "hit": false,
      "t": 125250,
      "d": 109.375,
      "v": 78
    },
    {
      "midi": 65,
      "hit": false,
      "t": 125250,
      "d": 109.375,
      "v": 84
    },
    {
      "midi": 70,
      "hit": false,
      "t": 125250,
      "d": 109.375,
      "v": 78
    },
    {
      "midi": 62,
      "hit": false,
      "t": 125500,
      "d": 109.375,
      "v": 82
    },
    {
      "midi": 65,
      "hit": false,
      "t": 125500,
      "d": 109.375,
      "v": 86
    },
    {
      "midi": 70,
      "hit": false,
      "t": 125500,
      "d": 109.375,
      "v": 83
    },
    {
      "midi": 62,
      "hit": false,
      "t": 125750,
      "d": 109.375,
      "v": 79
    },
    {
      "midi": 65,
      "hit": false,
      "t": 125750,
      "d": 109.375,
      "v": 85
    },
    {
      "midi": 70,
      "hit": false,
      "t": 125750,
      "d": 109.375,
      "v": 86
    },
    {
      "midi": 48,
      "hit": false,
      "t": 126000,
      "d": 234.375,
      "v": 84
    },
    {
      "midi": 63,
      "hit": false,
      "t": 126250,
      "d": 109.375,
      "v": 78
    },
    {
      "midi": 67,
      "hit": false,
      "t": 126250,
      "d": 109.375,
      "v": 82
    },
    {
      "midi": 70,
      "hit": false,
      "t": 126250,
      "d": 109.375,
      "v": 81
    },
    {
      "midi": 48,
      "hit": false,
      "t": 126500,
      "d": 109.375,
      "v": 87
    },
    {
      "midi": 63,
      "hit": false,
      "t": 126625,
      "d": 109.375,
      "v": 79
    },
    {
      "midi": 67,
      "hit": false,
      "t": 126625,
      "d": 109.375,
      "v": 81
    },
    {
      "midi": 70,
      "hit": false,
      "t": 126625,
      "d": 109.375,
      "v": 80
    },
    {
      "midi": 48,
      "hit": false,
      "t": 126875,
      "d": 109.375,
      "v": 83
    },
    {
      "midi": 63,
      "hit": false,
      "t": 127000,
      "d": 109.375,
      "v": 86
    },
    {
      "midi": 67,
      "hit": false,
      "t": 127000,
      "d": 109.375,
      "v": 83
    },
    {
      "midi": 70,
      "hit": false,
      "t": 127000,
      "d": 109.375,
      "v": 80
    },
    {
      "midi": 48,
      "hit": false,
      "t": 127250,
      "d": 109.375,
      "v": 85
    },
    {
      "midi": 63,
      "hit": false,
      "t": 127375,
      "d": 109.375,
      "v": 78
    },
    {
      "midi": 67,
      "hit": false,
      "t": 127375,
      "d": 109.375,
      "v": 79
    },
    {
      "midi": 70,
      "hit": false,
      "t": 127375,
      "d": 109.375,
      "v": 79
    },
    {
      "midi": 48,
      "hit": false,
      "t": 127625,
      "d": 109.375,
      "v": 80
    },
    {
      "midi": 63,
      "hit": false,
      "t": 127750,
      "d": 109.375,
      "v": 83
    },
    {
      "midi": 67,
      "hit": false,
      "t": 127750,
      "d": 109.375,
      "v": 84
    },
    {
      "midi": 70,
      "hit": false,
      "t": 127750,
      "d": 109.375,
      "v": 80
    },
    {
      "midi": 46,
      "hit": false,
      "t": 128000,
      "d": 234.375,
      "v": 84
    },
    {
      "midi": 58,
      "hit": false,
      "t": 128250,
      "d": 109.375,
      "v": 79
    },
    {
      "midi": 62,
      "hit": false,
      "t": 128250,
      "d": 109.375,
      "v": 82
    },
    {
      "midi": 65,
      "hit": false,
      "t": 128250,
      "d": 109.375,
      "v": 78
    },
    {
      "midi": 46,
      "hit": false,
      "t": 128500,
      "d": 109.375,
      "v": 78
    },
    {
      "midi": 58,
      "hit": false,
      "t": 128625,
      "d": 109.375,
      "v": 81
    },
    {
      "midi": 62,
      "hit": false,
      "t": 128625,
      "d": 109.375,
      "v": 86
    },
    {
      "midi": 65,
      "hit": false,
      "t": 128625,
      "d": 109.375,
      "v": 84
    },
    {
      "midi": 46,
      "hit": false,
      "t": 128875,
      "d": 109.375,
      "v": 85
    },
    {
      "midi": 58,
      "hit": false,
      "t": 129000,
      "d": 109.375,
      "v": 85
    },
    {
      "midi": 62,
      "hit": false,
      "t": 129000,
      "d": 109.375,
      "v": 82
    },
    {
      "midi": 65,
      "hit": false,
      "t": 129000,
      "d": 109.375,
      "v": 82
    },
    {
      "midi": 46,
      "hit": false,
      "t": 129250,
      "d": 109.375,
      "v": 85
    },
    {
      "midi": 58,
      "hit": false,
      "t": 129375,
      "d": 109.375,
      "v": 79
    },
    {
      "midi": 62,
      "hit": false,
      "t": 129375,
      "d": 109.375,
      "v": 78
    },
    {
      "midi": 65,
      "hit": false,
      "t": 129375,
      "d": 109.375,
      "v": 79
    },
    {
      "midi": 46,
      "hit": false,
      "t": 129625,
      "d": 109.375,
      "v": 78
    },
    {
      "midi": 58,
      "hit": false,
      "t": 129750,
      "d": 109.375,
      "v": 82
    },
    {
      "midi": 62,
      "hit": false,
      "t": 129750,
      "d": 109.375,
      "v": 87
    },
    {
      "midi": 65,
      "hit": false,
      "t": 129750,
      "d": 109.375,
      "v": 83
    },
    {
      "midi": 44,
      "hit": false,
      "t": 130000,
      "d": 234.375,
      "v": 81
    },
    {
      "midi": 60,
      "hit": false,
      "t": 130250,
      "d": 109.375,
      "v": 79
    },
    {
      "midi": 63,
      "hit": false,
      "t": 130250,
      "d": 109.375,
      "v": 80
    },
    {
      "midi": 67,
      "hit": false,
      "t": 130250,
      "d": 109.375,
      "v": 86
    },
    {
      "midi": 44,
      "hit": false,
      "t": 130500,
      "d": 109.375,
      "v": 87
    },
    {
      "midi": 60,
      "hit": false,
      "t": 130625,
      "d": 109.375,
      "v": 80
    },
    {
      "midi": 63,
      "hit": false,
      "t": 130625,
      "d": 109.375,
      "v": 78
    },
    {
      "midi": 67,
      "hit": false,
      "t": 130625,
      "d": 109.375,
      "v": 83
    },
    {
      "midi": 44,
      "hit": false,
      "t": 130875,
      "d": 109.375,
      "v": 84
    },
    {
      "midi": 60,
      "hit": false,
      "t": 131000,
      "d": 109.375,
      "v": 81
    },
    {
      "midi": 63,
      "hit": false,
      "t": 131000,
      "d": 109.375,
      "v": 79
    },
    {
      "midi": 67,
      "hit": false,
      "t": 131000,
      "d": 109.375,
      "v": 85
    },
    {
      "midi": 44,
      "hit": false,
      "t": 131250,
      "d": 109.375,
      "v": 86
    },
    {
      "midi": 60,
      "hit": false,
      "t": 131375,
      "d": 109.375,
      "v": 78
    },
    {
      "midi": 63,
      "hit": false,
      "t": 131375,
      "d": 109.375,
      "v": 81
    },
    {
      "midi": 67,
      "hit": false,
      "t": 131375,
      "d": 109.375,
      "v": 87
    },
    {
      "midi": 44,
      "hit": false,
      "t": 131625,
      "d": 109.375,
      "v": 82
    },
    {
      "midi": 60,
      "hit": false,
      "t": 131750,
      "d": 109.375,
      "v": 86
    },
    {
      "midi": 63,
      "hit": false,
      "t": 131750,
      "d": 109.375,
      "v": 84
    },
    {
      "midi": 67,
      "hit": false,
      "t": 131750,
      "d": 109.375,
      "v": 80
    },
    {
      "midi": 46,
      "hit": false,
      "t": 132000,
      "d": 234.375,
      "v": 81
    },
    {
      "midi": 62,
      "hit": false,
      "t": 132250,
      "d": 109.375,
      "v": 86
    },
    {
      "midi": 65,
      "hit": false,
      "t": 132250,
      "d": 109.375,
      "v": 83
    },
    {
      "midi": 70,
      "hit": false,
      "t": 132250,
      "d": 109.375,
      "v": 80
    },
    {
      "midi": 46,
      "hit": false,
      "t": 132500,
      "d": 109.375,
      "v": 80
    },
    {
      "midi": 62,
      "hit": false,
      "t": 132625,
      "d": 109.375,
      "v": 84
    },
    {
      "midi": 65,
      "hit": false,
      "t": 132625,
      "d": 109.375,
      "v": 87
    },
    {
      "midi": 70,
      "hit": false,
      "t": 132625,
      "d": 109.375,
      "v": 79
    },
    {
      "midi": 46,
      "hit": false,
      "t": 132875,
      "d": 109.375,
      "v": 81
    },
    {
      "midi": 58,
      "hit": false,
      "t": 133000,
      "d": 484.375,
      "v": 78
    },
    {
      "midi": 62,
      "hit": false,
      "t": 133000,
      "d": 484.375,
      "v": 79
    },
    {
      "midi": 65,
      "hit": false,
      "t": 133000,
      "d": 484.375,
      "v": 85
    },
    {
      "midi": 58,
      "hit": false,
      "t": 133500,
      "d": 234.375,
      "v": 85
    },
    {
      "midi": 62,
      "hit": false,
      "t": 133500,
      "d": 234.375,
      "v": 86
    },
    {
      "midi": 67,
      "hit": false,
      "t": 133500,
      "d": 234.375,
      "v": 85
    },
    {
      "midi": 58,
      "hit": false,
      "t": 133750,
      "d": 109.375,
      "v": 84
    },
    {
      "midi": 62,
      "hit": false,
      "t": 133750,
      "d": 109.375,
      "v": 85
    },
    {
      "midi": 68,
      "hit": false,
      "t": 133750,
      "d": 109.375,
      "v": 84
    },
    {
      "midi": 48,
      "hit": false,
      "t": 134000,
      "d": 234.375,
      "v": 81
    },
    {
      "midi": 63,
      "hit": false,
      "t": 134250,
      "d": 109.375,
      "v": 85
    },
    {
      "midi": 67,
      "hit": false,
      "t": 134250,
      "d": 109.375,
      "v": 83
    },
    {
      "midi": 70,
      "hit": false,
      "t": 134250,
      "d": 109.375,
      "v": 83
    },
    {
      "midi": 48,
      "hit": false,
      "t": 134500,
      "d": 109.375,
      "v": 86
    },
    {
      "midi": 63,
      "hit": false,
      "t": 134625,
      "d": 109.375,
      "v": 86
    },
    {
      "midi": 67,
      "hit": false,
      "t": 134625,
      "d": 109.375,
      "v": 83
    },
    {
      "midi": 70,
      "hit": false,
      "t": 134625,
      "d": 109.375,
      "v": 86
    },
    {
      "midi": 48,
      "hit": false,
      "t": 134875,
      "d": 109.375,
      "v": 84
    },
    {
      "midi": 63,
      "hit": false,
      "t": 135000,
      "d": 109.375,
      "v": 80
    },
    {
      "midi": 67,
      "hit": false,
      "t": 135000,
      "d": 109.375,
      "v": 80
    },
    {
      "midi": 70,
      "hit": false,
      "t": 135000,
      "d": 109.375,
      "v": 87
    },
    {
      "midi": 48,
      "hit": false,
      "t": 135250,
      "d": 109.375,
      "v": 87
    },
    {
      "midi": 63,
      "hit": false,
      "t": 135375,
      "d": 109.375,
      "v": 78
    },
    {
      "midi": 67,
      "hit": false,
      "t": 135375,
      "d": 109.375,
      "v": 86
    },
    {
      "midi": 70,
      "hit": false,
      "t": 135375,
      "d": 109.375,
      "v": 84
    },
    {
      "midi": 48,
      "hit": false,
      "t": 135625,
      "d": 109.375,
      "v": 82
    },
    {
      "midi": 63,
      "hit": false,
      "t": 135750,
      "d": 109.375,
      "v": 85
    },
    {
      "midi": 67,
      "hit": false,
      "t": 135750,
      "d": 109.375,
      "v": 80
    },
    {
      "midi": 70,
      "hit": false,
      "t": 135750,
      "d": 109.375,
      "v": 79
    },
    {
      "midi": 46,
      "hit": false,
      "t": 136000,
      "d": 234.375,
      "v": 82
    },
    {
      "midi": 58,
      "hit": false,
      "t": 136250,
      "d": 109.375,
      "v": 85
    },
    {
      "midi": 62,
      "hit": false,
      "t": 136250,
      "d": 109.375,
      "v": 83
    },
    {
      "midi": 65,
      "hit": false,
      "t": 136250,
      "d": 109.375,
      "v": 81
    },
    {
      "midi": 46,
      "hit": false,
      "t": 136500,
      "d": 109.375,
      "v": 87
    },
    {
      "midi": 58,
      "hit": false,
      "t": 136625,
      "d": 109.375,
      "v": 84
    },
    {
      "midi": 62,
      "hit": false,
      "t": 136625,
      "d": 109.375,
      "v": 83
    },
    {
      "midi": 65,
      "hit": false,
      "t": 136625,
      "d": 109.375,
      "v": 87
    },
    {
      "midi": 46,
      "hit": false,
      "t": 136875,
      "d": 109.375,
      "v": 82
    },
    {
      "midi": 58,
      "hit": false,
      "t": 137000,
      "d": 109.375,
      "v": 79
    },
    {
      "midi": 62,
      "hit": false,
      "t": 137000,
      "d": 109.375,
      "v": 87
    },
    {
      "midi": 65,
      "hit": false,
      "t": 137000,
      "d": 109.375,
      "v": 86
    },
    {
      "midi": 46,
      "hit": false,
      "t": 137250,
      "d": 109.375,
      "v": 86
    },
    {
      "midi": 58,
      "hit": false,
      "t": 137375,
      "d": 109.375,
      "v": 87
    },
    {
      "midi": 62,
      "hit": false,
      "t": 137375,
      "d": 109.375,
      "v": 84
    },
    {
      "midi": 65,
      "hit": false,
      "t": 137375,
      "d": 109.375,
      "v": 82
    },
    {
      "midi": 46,
      "hit": false,
      "t": 137625,
      "d": 109.375,
      "v": 87
    },
    {
      "midi": 58,
      "hit": false,
      "t": 137750,
      "d": 109.375,
      "v": 81
    },
    {
      "midi": 62,
      "hit": false,
      "t": 137750,
      "d": 109.375,
      "v": 83
    },
    {
      "midi": 65,
      "hit": false,
      "t": 137750,
      "d": 109.375,
      "v": 86
    },
    {
      "midi": 44,
      "hit": false,
      "t": 138000,
      "d": 234.375,
      "v": 82
    },
    {
      "midi": 60,
      "hit": false,
      "t": 138250,
      "d": 109.375,
      "v": 80
    },
    {
      "midi": 63,
      "hit": false,
      "t": 138250,
      "d": 109.375,
      "v": 84
    },
    {
      "midi": 67,
      "hit": false,
      "t": 138250,
      "d": 109.375,
      "v": 79
    },
    {
      "midi": 44,
      "hit": false,
      "t": 138500,
      "d": 109.375,
      "v": 86
    },
    {
      "midi": 60,
      "hit": false,
      "t": 138625,
      "d": 109.375,
      "v": 78
    },
    {
      "midi": 63,
      "hit": false,
      "t": 138625,
      "d": 109.375,
      "v": 81
    },
    {
      "midi": 67,
      "hit": false,
      "t": 138625,
      "d": 109.375,
      "v": 84
    },
    {
      "midi": 44,
      "hit": false,
      "t": 138875,
      "d": 109.375,
      "v": 85
    },
    {
      "midi": 60,
      "hit": false,
      "t": 139000,
      "d": 109.375,
      "v": 86
    },
    {
      "midi": 63,
      "hit": false,
      "t": 139000,
      "d": 109.375,
      "v": 81
    },
    {
      "midi": 67,
      "hit": false,
      "t": 139000,
      "d": 109.375,
      "v": 82
    },
    {
      "midi": 44,
      "hit": false,
      "t": 139250,
      "d": 109.375,
      "v": 82
    },
    {
      "midi": 60,
      "hit": false,
      "t": 139375,
      "d": 109.375,
      "v": 85
    },
    {
      "midi": 63,
      "hit": false,
      "t": 139375,
      "d": 109.375,
      "v": 78
    },
    {
      "midi": 67,
      "hit": false,
      "t": 139375,
      "d": 109.375,
      "v": 85
    },
    {
      "midi": 44,
      "hit": false,
      "t": 139625,
      "d": 109.375,
      "v": 87
    },
    {
      "midi": 60,
      "hit": false,
      "t": 139750,
      "d": 109.375,
      "v": 85
    },
    {
      "midi": 63,
      "hit": false,
      "t": 139750,
      "d": 109.375,
      "v": 79
    },
    {
      "midi": 67,
      "hit": false,
      "t": 139750,
      "d": 109.375,
      "v": 81
    },
    {
      "midi": 46,
      "hit": false,
      "t": 140000,
      "d": 234.375,
      "v": 82
    },
    {
      "midi": 62,
      "hit": false,
      "t": 140250,
      "d": 109.375,
      "v": 87
    },
    {
      "midi": 65,
      "hit": false,
      "t": 140250,
      "d": 109.375,
      "v": 81
    },
    {
      "midi": 70,
      "hit": false,
      "t": 140250,
      "d": 109.375,
      "v": 81
    },
    {
      "midi": 46,
      "hit": false,
      "t": 140500,
      "d": 109.375,
      "v": 79
    },
    {
      "midi": 62,
      "hit": false,
      "t": 140625,
      "d": 109.375,
      "v": 78
    },
    {
      "midi": 65,
      "hit": false,
      "t": 140625,
      "d": 109.375,
      "v": 78
    },
    {
      "midi": 70,
      "hit": false,
      "t": 140625,
      "d": 109.375,
      "v": 81
    },
    {
      "midi": 46,
      "hit": false,
      "t": 140875,
      "d": 109.375,
      "v": 84
    },
    {
      "midi": 63,
      "hit": false,
      "t": 141000,
      "d": 109.375,
      "v": 78
    },
    {
      "midi": 65,
      "hit": false,
      "t": 141000,
      "d": 109.375,
      "v": 80
    },
    {
      "midi": 70,
      "hit": false,
      "t": 141000,
      "d": 109.375,
      "v": 83
    },
    {
      "midi": 63,
      "hit": false,
      "t": 141250,
      "d": 109.375,
      "v": 85
    },
    {
      "midi": 65,
      "hit": false,
      "t": 141250,
      "d": 109.375,
      "v": 84
    },
    {
      "midi": 70,
      "hit": false,
      "t": 141250,
      "d": 109.375,
      "v": 84
    },
    {
      "midi": 62,
      "hit": false,
      "t": 141500,
      "d": 109.375,
      "v": 79
    },
    {
      "midi": 65,
      "hit": false,
      "t": 141500,
      "d": 109.375,
      "v": 81
    },
    {
      "midi": 70,
      "hit": false,
      "t": 141500,
      "d": 109.375,
      "v": 86
    },
    {
      "midi": 62,
      "hit": false,
      "t": 141750,
      "d": 109.375,
      "v": 86
    },
    {
      "midi": 65,
      "hit": false,
      "t": 141750,
      "d": 109.375,
      "v": 81
    },
    {
      "midi": 70,
      "hit": false,
      "t": 141750,
      "d": 109.375,
      "v": 87
    },
    {
      "midi": 48,
      "hit": false,
      "t": 142000,
      "d": 234.375,
      "v": 79
    },
    {
      "midi": 63,
      "hit": false,
      "t": 142250,
      "d": 109.375,
      "v": 87
    },
    {
      "midi": 67,
      "hit": false,
      "t": 142250,
      "d": 109.375,
      "v": 80
    },
    {
      "midi": 70,
      "hit": false,
      "t": 142250,
      "d": 109.375,
      "v": 87
    },
    {
      "midi": 48,
      "hit": false,
      "t": 142500,
      "d": 109.375,
      "v": 81
    },
    {
      "midi": 63,
      "hit": false,
      "t": 142625,
      "d": 109.375,
      "v": 78
    },
    {
      "midi": 67,
      "hit": false,
      "t": 142625,
      "d": 109.375,
      "v": 78
    },
    {
      "midi": 70,
      "hit": false,
      "t": 142625,
      "d": 109.375,
      "v": 85
    },
    {
      "midi": 48,
      "hit": false,
      "t": 142875,
      "d": 109.375,
      "v": 86
    },
    {
      "midi": 63,
      "hit": false,
      "t": 143000,
      "d": 109.375,
      "v": 81
    },
    {
      "midi": 67,
      "hit": false,
      "t": 143000,
      "d": 109.375,
      "v": 83
    },
    {
      "midi": 70,
      "hit": false,
      "t": 143000,
      "d": 109.375,
      "v": 81
    },
    {
      "midi": 48,
      "hit": false,
      "t": 143250,
      "d": 109.375,
      "v": 80
    },
    {
      "midi": 63,
      "hit": false,
      "t": 143375,
      "d": 109.375,
      "v": 82
    },
    {
      "midi": 67,
      "hit": false,
      "t": 143375,
      "d": 109.375,
      "v": 86
    },
    {
      "midi": 70,
      "hit": false,
      "t": 143375,
      "d": 109.375,
      "v": 82
    },
    {
      "midi": 48,
      "hit": false,
      "t": 143625,
      "d": 109.375,
      "v": 79
    },
    {
      "midi": 63,
      "hit": false,
      "t": 143750,
      "d": 109.375,
      "v": 84
    },
    {
      "midi": 67,
      "hit": false,
      "t": 143750,
      "d": 109.375,
      "v": 86
    },
    {
      "midi": 70,
      "hit": false,
      "t": 143750,
      "d": 109.375,
      "v": 87
    },
    {
      "midi": 46,
      "hit": false,
      "t": 144000,
      "d": 234.375,
      "v": 87
    },
    {
      "midi": 58,
      "hit": false,
      "t": 144250,
      "d": 109.375,
      "v": 85
    },
    {
      "midi": 62,
      "hit": false,
      "t": 144250,
      "d": 109.375,
      "v": 85
    },
    {
      "midi": 65,
      "hit": false,
      "t": 144250,
      "d": 109.375,
      "v": 78
    },
    {
      "midi": 46,
      "hit": false,
      "t": 144500,
      "d": 109.375,
      "v": 80
    },
    {
      "midi": 58,
      "hit": false,
      "t": 144625,
      "d": 109.375,
      "v": 80
    },
    {
      "midi": 62,
      "hit": false,
      "t": 144625,
      "d": 109.375,
      "v": 79
    },
    {
      "midi": 65,
      "hit": false,
      "t": 144625,
      "d": 109.375,
      "v": 83
    },
    {
      "midi": 46,
      "hit": false,
      "t": 144875,
      "d": 109.375,
      "v": 87
    },
    {
      "midi": 58,
      "hit": false,
      "t": 145000,
      "d": 109.375,
      "v": 81
    },
    {
      "midi": 62,
      "hit": false,
      "t": 145000,
      "d": 109.375,
      "v": 83
    },
    {
      "midi": 65,
      "hit": false,
      "t": 145000,
      "d": 109.375,
      "v": 80
    },
    {
      "midi": 46,
      "hit": false,
      "t": 145250,
      "d": 109.375,
      "v": 83
    },
    {
      "midi": 58,
      "hit": false,
      "t": 145375,
      "d": 109.375,
      "v": 85
    },
    {
      "midi": 62,
      "hit": false,
      "t": 145375,
      "d": 109.375,
      "v": 81
    },
    {
      "midi": 65,
      "hit": false,
      "t": 145375,
      "d": 109.375,
      "v": 85
    },
    {
      "midi": 46,
      "hit": false,
      "t": 145625,
      "d": 109.375,
      "v": 79
    },
    {
      "midi": 58,
      "hit": false,
      "t": 145750,
      "d": 109.375,
      "v": 84
    },
    {
      "midi": 62,
      "hit": false,
      "t": 145750,
      "d": 109.375,
      "v": 84
    },
    {
      "midi": 65,
      "hit": false,
      "t": 145750,
      "d": 109.375,
      "v": 87
    },
    {
      "midi": 44,
      "hit": false,
      "t": 146000,
      "d": 234.375,
      "v": 85
    },
    {
      "midi": 60,
      "hit": false,
      "t": 146250,
      "d": 109.375,
      "v": 79
    },
    {
      "midi": 63,
      "hit": false,
      "t": 146250,
      "d": 109.375,
      "v": 83
    },
    {
      "midi": 67,
      "hit": false,
      "t": 146250,
      "d": 109.375,
      "v": 79
    },
    {
      "midi": 44,
      "hit": false,
      "t": 146500,
      "d": 109.375,
      "v": 86
    },
    {
      "midi": 60,
      "hit": false,
      "t": 146625,
      "d": 109.375,
      "v": 78
    },
    {
      "midi": 63,
      "hit": false,
      "t": 146625,
      "d": 109.375,
      "v": 87
    },
    {
      "midi": 67,
      "hit": false,
      "t": 146625,
      "d": 109.375,
      "v": 80
    },
    {
      "midi": 44,
      "hit": false,
      "t": 146875,
      "d": 109.375,
      "v": 81
    },
    {
      "midi": 60,
      "hit": false,
      "t": 147000,
      "d": 109.375,
      "v": 78
    },
    {
      "midi": 63,
      "hit": false,
      "t": 147000,
      "d": 109.375,
      "v": 87
    },
    {
      "midi": 67,
      "hit": false,
      "t": 147000,
      "d": 109.375,
      "v": 84
    },
    {
      "midi": 44,
      "hit": false,
      "t": 147250,
      "d": 109.375,
      "v": 85
    },
    {
      "midi": 60,
      "hit": false,
      "t": 147375,
      "d": 109.375,
      "v": 84
    },
    {
      "midi": 63,
      "hit": false,
      "t": 147375,
      "d": 109.375,
      "v": 87
    },
    {
      "midi": 67,
      "hit": false,
      "t": 147375,
      "d": 109.375,
      "v": 82
    },
    {
      "midi": 44,
      "hit": false,
      "t": 147625,
      "d": 109.375,
      "v": 80
    },
    {
      "midi": 60,
      "hit": false,
      "t": 147750,
      "d": 109.375,
      "v": 83
    },
    {
      "midi": 63,
      "hit": false,
      "t": 147750,
      "d": 109.375,
      "v": 81
    },
    {
      "midi": 67,
      "hit": false,
      "t": 147750,
      "d": 109.375,
      "v": 78
    },
    {
      "midi": 46,
      "hit": false,
      "t": 148000,
      "d": 234.375,
      "v": 85
    },
    {
      "midi": 62,
      "hit": false,
      "t": 148250,
      "d": 109.375,
      "v": 79
    },
    {
      "midi": 65,
      "hit": false,
      "t": 148250,
      "d": 109.375,
      "v": 80
    },
    {
      "midi": 70,
      "hit": false,
      "t": 148250,
      "d": 109.375,
      "v": 86
    },
    {
      "midi": 46,
      "hit": false,
      "t": 148500,
      "d": 109.375,
      "v": 79
    },
    {
      "midi": 62,
      "hit": false,
      "t": 148625,
      "d": 109.375,
      "v": 84
    },
    {
      "midi": 65,
      "hit": false,
      "t": 148625,
      "d": 109.375,
      "v": 79
    },
    {
      "midi": 70,
      "hit": false,
      "t": 148625,
      "d": 109.375,
      "v": 82
    },
    {
      "midi": 46,
      "hit": false,
      "t": 148875,
      "d": 109.375,
      "v": 80
    },
    {
      "midi": 58,
      "hit": false,
      "t": 149000,
      "d": 484.375,
      "v": 78
    },
    {
      "midi": 62,
      "hit": false,
      "t": 149000,
      "d": 484.375,
      "v": 86
    },
    {
      "midi": 65,
      "hit": false,
      "t": 149000,
      "d": 484.375,
      "v": 81
    },
    {
      "midi": 58,
      "hit": false,
      "t": 149500,
      "d": 234.375,
      "v": 86
    },
    {
      "midi": 62,
      "hit": false,
      "t": 149500,
      "d": 234.375,
      "v": 80
    },
    {
      "midi": 67,
      "hit": false,
      "t": 149500,
      "d": 234.375,
      "v": 87
    },
    {
      "midi": 58,
      "hit": false,
      "t": 149750,
      "d": 109.375,
      "v": 79
    },
    {
      "midi": 62,
      "hit": false,
      "t": 149750,
      "d": 109.375,
      "v": 78
    },
    {
      "midi": 68,
      "hit": false,
      "t": 149750,
      "d": 109.375,
      "v": 84
    },
    {
      "midi": 48,
      "hit": false,
      "t": 158000,
      "d": 234.375,
      "v": 84
    },
    {
      "midi": 63,
      "hit": false,
      "t": 158250,
      "d": 109.375,
      "v": 80
    },
    {
      "midi": 67,
      "hit": false,
      "t": 158250,
      "d": 109.375,
      "v": 86
    },
    {
      "midi": 70,
      "hit": false,
      "t": 158250,
      "d": 109.375,
      "v": 82
    },
    {
      "midi": 48,
      "hit": false,
      "t": 158500,
      "d": 109.375,
      "v": 87
    },
    {
      "midi": 63,
      "hit": false,
      "t": 158625,
      "d": 109.375,
      "v": 81
    },
    {
      "midi": 67,
      "hit": false,
      "t": 158625,
      "d": 109.375,
      "v": 79
    },
    {
      "midi": 70,
      "hit": false,
      "t": 158625,
      "d": 109.375,
      "v": 79
    },
    {
      "midi": 48,
      "hit": false,
      "t": 158875,
      "d": 109.375,
      "v": 84
    },
    {
      "midi": 63,
      "hit": false,
      "t": 159000,
      "d": 109.375,
      "v": 83
    },
    {
      "midi": 67,
      "hit": false,
      "t": 159000,
      "d": 109.375,
      "v": 84
    },
    {
      "midi": 70,
      "hit": false,
      "t": 159000,
      "d": 109.375,
      "v": 79
    },
    {
      "midi": 48,
      "hit": false,
      "t": 159250,
      "d": 109.375,
      "v": 81
    },
    {
      "midi": 63,
      "hit": false,
      "t": 159375,
      "d": 109.375,
      "v": 79
    },
    {
      "midi": 67,
      "hit": false,
      "t": 159375,
      "d": 109.375,
      "v": 78
    },
    {
      "midi": 70,
      "hit": false,
      "t": 159375,
      "d": 109.375,
      "v": 84
    },
    {
      "midi": 48,
      "hit": false,
      "t": 159625,
      "d": 109.375,
      "v": 84
    },
    {
      "midi": 63,
      "hit": false,
      "t": 159750,
      "d": 109.375,
      "v": 82
    },
    {
      "midi": 67,
      "hit": false,
      "t": 159750,
      "d": 109.375,
      "v": 82
    },
    {
      "midi": 70,
      "hit": false,
      "t": 159750,
      "d": 109.375,
      "v": 80
    },
    {
      "midi": 46,
      "hit": false,
      "t": 160000,
      "d": 234.375,
      "v": 80
    },
    {
      "midi": 58,
      "hit": false,
      "t": 160250,
      "d": 109.375,
      "v": 83
    },
    {
      "midi": 62,
      "hit": false,
      "t": 160250,
      "d": 109.375,
      "v": 82
    },
    {
      "midi": 65,
      "hit": false,
      "t": 160250,
      "d": 109.375,
      "v": 84
    },
    {
      "midi": 46,
      "hit": false,
      "t": 160500,
      "d": 109.375,
      "v": 84
    },
    {
      "midi": 58,
      "hit": false,
      "t": 160625,
      "d": 109.375,
      "v": 85
    },
    {
      "midi": 62,
      "hit": false,
      "t": 160625,
      "d": 109.375,
      "v": 83
    },
    {
      "midi": 65,
      "hit": false,
      "t": 160625,
      "d": 109.375,
      "v": 87
    },
    {
      "midi": 46,
      "hit": false,
      "t": 160875,
      "d": 109.375,
      "v": 83
    },
    {
      "midi": 58,
      "hit": false,
      "t": 161000,
      "d": 109.375,
      "v": 85
    },
    {
      "midi": 62,
      "hit": false,
      "t": 161000,
      "d": 109.375,
      "v": 86
    },
    {
      "midi": 65,
      "hit": false,
      "t": 161000,
      "d": 109.375,
      "v": 84
    },
    {
      "midi": 46,
      "hit": false,
      "t": 161250,
      "d": 109.375,
      "v": 81
    },
    {
      "midi": 58,
      "hit": false,
      "t": 161375,
      "d": 109.375,
      "v": 78
    },
    {
      "midi": 62,
      "hit": false,
      "t": 161375,
      "d": 109.375,
      "v": 83
    },
    {
      "midi": 65,
      "hit": false,
      "t": 161375,
      "d": 109.375,
      "v": 87
    },
    {
      "midi": 46,
      "hit": false,
      "t": 161625,
      "d": 109.375,
      "v": 83
    },
    {
      "midi": 58,
      "hit": false,
      "t": 161750,
      "d": 109.375,
      "v": 84
    },
    {
      "midi": 62,
      "hit": false,
      "t": 161750,
      "d": 109.375,
      "v": 81
    },
    {
      "midi": 65,
      "hit": false,
      "t": 161750,
      "d": 109.375,
      "v": 81
    },
    {
      "midi": 44,
      "hit": false,
      "t": 162000,
      "d": 234.375,
      "v": 81
    },
    {
      "midi": 60,
      "hit": false,
      "t": 162250,
      "d": 109.375,
      "v": 79
    },
    {
      "midi": 63,
      "hit": false,
      "t": 162250,
      "d": 109.375,
      "v": 83
    },
    {
      "midi": 67,
      "hit": false,
      "t": 162250,
      "d": 109.375,
      "v": 86
    },
    {
      "midi": 44,
      "hit": false,
      "t": 162500,
      "d": 109.375,
      "v": 78
    },
    {
      "midi": 60,
      "hit": false,
      "t": 162625,
      "d": 109.375,
      "v": 78
    },
    {
      "midi": 63,
      "hit": false,
      "t": 162625,
      "d": 109.375,
      "v": 87
    },
    {
      "midi": 67,
      "hit": false,
      "t": 162625,
      "d": 109.375,
      "v": 78
    },
    {
      "midi": 44,
      "hit": false,
      "t": 162875,
      "d": 109.375,
      "v": 84
    },
    {
      "midi": 60,
      "hit": false,
      "t": 163000,
      "d": 109.375,
      "v": 87
    },
    {
      "midi": 63,
      "hit": false,
      "t": 163000,
      "d": 109.375,
      "v": 84
    },
    {
      "midi": 67,
      "hit": false,
      "t": 163000,
      "d": 109.375,
      "v": 82
    },
    {
      "midi": 44,
      "hit": false,
      "t": 163250,
      "d": 109.375,
      "v": 80
    },
    {
      "midi": 60,
      "hit": false,
      "t": 163375,
      "d": 109.375,
      "v": 79
    },
    {
      "midi": 63,
      "hit": false,
      "t": 163375,
      "d": 109.375,
      "v": 84
    },
    {
      "midi": 67,
      "hit": false,
      "t": 163375,
      "d": 109.375,
      "v": 79
    },
    {
      "midi": 44,
      "hit": false,
      "t": 163625,
      "d": 109.375,
      "v": 81
    },
    {
      "midi": 60,
      "hit": false,
      "t": 163750,
      "d": 109.375,
      "v": 81
    },
    {
      "midi": 63,
      "hit": false,
      "t": 163750,
      "d": 109.375,
      "v": 86
    },
    {
      "midi": 67,
      "hit": false,
      "t": 163750,
      "d": 109.375,
      "v": 84
    },
    {
      "midi": 46,
      "hit": false,
      "t": 164000,
      "d": 234.375,
      "v": 87
    },
    {
      "midi": 62,
      "hit": false,
      "t": 164250,
      "d": 109.375,
      "v": 79
    },
    {
      "midi": 65,
      "hit": false,
      "t": 164250,
      "d": 109.375,
      "v": 86
    },
    {
      "midi": 70,
      "hit": false,
      "t": 164250,
      "d": 109.375,
      "v": 79
    },
    {
      "midi": 46,
      "hit": false,
      "t": 164500,
      "d": 109.375,
      "v": 87
    },
    {
      "midi": 62,
      "hit": false,
      "t": 164625,
      "d": 109.375,
      "v": 86
    },
    {
      "midi": 65,
      "hit": false,
      "t": 164625,
      "d": 109.375,
      "v": 83
    },
    {
      "midi": 70,
      "hit": false,
      "t": 164625,
      "d": 109.375,
      "v": 84
    },
    {
      "midi": 46,
      "hit": false,
      "t": 164875,
      "d": 109.375,
      "v": 80
    },
    {
      "midi": 63,
      "hit": false,
      "t": 165000,
      "d": 109.375,
      "v": 79
    },
    {
      "midi": 65,
      "hit": false,
      "t": 165000,
      "d": 109.375,
      "v": 80
    },
    {
      "midi": 70,
      "hit": false,
      "t": 165000,
      "d": 109.375,
      "v": 78
    },
    {
      "midi": 63,
      "hit": false,
      "t": 165250,
      "d": 109.375,
      "v": 79
    },
    {
      "midi": 65,
      "hit": false,
      "t": 165250,
      "d": 109.375,
      "v": 86
    },
    {
      "midi": 70,
      "hit": false,
      "t": 165250,
      "d": 109.375,
      "v": 86
    },
    {
      "midi": 62,
      "hit": false,
      "t": 165500,
      "d": 109.375,
      "v": 86
    },
    {
      "midi": 65,
      "hit": false,
      "t": 165500,
      "d": 109.375,
      "v": 78
    },
    {
      "midi": 70,
      "hit": false,
      "t": 165500,
      "d": 109.375,
      "v": 78
    },
    {
      "midi": 62,
      "hit": false,
      "t": 165750,
      "d": 109.375,
      "v": 85
    },
    {
      "midi": 65,
      "hit": false,
      "t": 165750,
      "d": 109.375,
      "v": 83
    },
    {
      "midi": 70,
      "hit": false,
      "t": 165750,
      "d": 109.375,
      "v": 79
    },
    {
      "midi": 48,
      "hit": false,
      "t": 166000,
      "d": 234.375,
      "v": 81
    },
    {
      "midi": 63,
      "hit": false,
      "t": 166250,
      "d": 109.375,
      "v": 82
    },
    {
      "midi": 67,
      "hit": false,
      "t": 166250,
      "d": 109.375,
      "v": 79
    },
    {
      "midi": 70,
      "hit": false,
      "t": 166250,
      "d": 109.375,
      "v": 87
    },
    {
      "midi": 48,
      "hit": false,
      "t": 166500,
      "d": 109.375,
      "v": 82
    },
    {
      "midi": 63,
      "hit": false,
      "t": 166625,
      "d": 109.375,
      "v": 87
    },
    {
      "midi": 67,
      "hit": false,
      "t": 166625,
      "d": 109.375,
      "v": 86
    },
    {
      "midi": 70,
      "hit": false,
      "t": 166625,
      "d": 109.375,
      "v": 83
    },
    {
      "midi": 48,
      "hit": false,
      "t": 166875,
      "d": 109.375,
      "v": 83
    },
    {
      "midi": 63,
      "hit": false,
      "t": 167000,
      "d": 109.375,
      "v": 79
    },
    {
      "midi": 67,
      "hit": false,
      "t": 167000,
      "d": 109.375,
      "v": 86
    },
    {
      "midi": 70,
      "hit": false,
      "t": 167000,
      "d": 109.375,
      "v": 80
    },
    {
      "midi": 48,
      "hit": false,
      "t": 167250,
      "d": 109.375,
      "v": 86
    },
    {
      "midi": 63,
      "hit": false,
      "t": 167375,
      "d": 109.375,
      "v": 79
    },
    {
      "midi": 67,
      "hit": false,
      "t": 167375,
      "d": 109.375,
      "v": 84
    },
    {
      "midi": 70,
      "hit": false,
      "t": 167375,
      "d": 109.375,
      "v": 78
    },
    {
      "midi": 48,
      "hit": false,
      "t": 167625,
      "d": 109.375,
      "v": 83
    },
    {
      "midi": 63,
      "hit": false,
      "t": 167750,
      "d": 109.375,
      "v": 80
    },
    {
      "midi": 67,
      "hit": false,
      "t": 167750,
      "d": 109.375,
      "v": 86
    },
    {
      "midi": 70,
      "hit": false,
      "t": 167750,
      "d": 109.375,
      "v": 82
    },
    {
      "midi": 46,
      "hit": false,
      "t": 168000,
      "d": 234.375,
      "v": 83
    },
    {
      "midi": 58,
      "hit": false,
      "t": 168250,
      "d": 109.375,
      "v": 86
    },
    {
      "midi": 62,
      "hit": false,
      "t": 168250,
      "d": 109.375,
      "v": 85
    },
    {
      "midi": 65,
      "hit": false,
      "t": 168250,
      "d": 109.375,
      "v": 79
    },
    {
      "midi": 46,
      "hit": false,
      "t": 168500,
      "d": 109.375,
      "v": 78
    },
    {
      "midi": 58,
      "hit": false,
      "t": 168625,
      "d": 109.375,
      "v": 83
    },
    {
      "midi": 62,
      "hit": false,
      "t": 168625,
      "d": 109.375,
      "v": 82
    },
    {
      "midi": 65,
      "hit": false,
      "t": 168625,
      "d": 109.375,
      "v": 84
    },
    {
      "midi": 46,
      "hit": false,
      "t": 168875,
      "d": 109.375,
      "v": 85
    },
    {
      "midi": 58,
      "hit": false,
      "t": 169000,
      "d": 109.375,
      "v": 83
    },
    {
      "midi": 62,
      "hit": false,
      "t": 169000,
      "d": 109.375,
      "v": 87
    },
    {
      "midi": 65,
      "hit": false,
      "t": 169000,
      "d": 109.375,
      "v": 87
    },
    {
      "midi": 46,
      "hit": false,
      "t": 169250,
      "d": 109.375,
      "v": 79
    },
    {
      "midi": 58,
      "hit": false,
      "t": 169375,
      "d": 109.375,
      "v": 82
    },
    {
      "midi": 62,
      "hit": false,
      "t": 169375,
      "d": 109.375,
      "v": 81
    },
    {
      "midi": 65,
      "hit": false,
      "t": 169375,
      "d": 109.375,
      "v": 87
    },
    {
      "midi": 46,
      "hit": false,
      "t": 169625,
      "d": 109.375,
      "v": 79
    },
    {
      "midi": 58,
      "hit": false,
      "t": 169750,
      "d": 109.375,
      "v": 81
    },
    {
      "midi": 62,
      "hit": false,
      "t": 169750,
      "d": 109.375,
      "v": 87
    },
    {
      "midi": 65,
      "hit": false,
      "t": 169750,
      "d": 109.375,
      "v": 84
    },
    {
      "midi": 44,
      "hit": false,
      "t": 170000,
      "d": 234.375,
      "v": 84
    },
    {
      "midi": 60,
      "hit": false,
      "t": 170250,
      "d": 109.375,
      "v": 78
    },
    {
      "midi": 63,
      "hit": false,
      "t": 170250,
      "d": 109.375,
      "v": 79
    },
    {
      "midi": 67,
      "hit": false,
      "t": 170250,
      "d": 109.375,
      "v": 81
    },
    {
      "midi": 44,
      "hit": false,
      "t": 170500,
      "d": 109.375,
      "v": 84
    },
    {
      "midi": 60,
      "hit": false,
      "t": 170625,
      "d": 109.375,
      "v": 81
    },
    {
      "midi": 63,
      "hit": false,
      "t": 170625,
      "d": 109.375,
      "v": 82
    },
    {
      "midi": 67,
      "hit": false,
      "t": 170625,
      "d": 109.375,
      "v": 84
    },
    {
      "midi": 44,
      "hit": false,
      "t": 170875,
      "d": 109.375,
      "v": 84
    },
    {
      "midi": 60,
      "hit": false,
      "t": 171000,
      "d": 109.375,
      "v": 80
    },
    {
      "midi": 63,
      "hit": false,
      "t": 171000,
      "d": 109.375,
      "v": 84
    },
    {
      "midi": 67,
      "hit": false,
      "t": 171000,
      "d": 109.375,
      "v": 79
    },
    {
      "midi": 44,
      "hit": false,
      "t": 171250,
      "d": 109.375,
      "v": 82
    },
    {
      "midi": 60,
      "hit": false,
      "t": 171375,
      "d": 109.375,
      "v": 86
    },
    {
      "midi": 63,
      "hit": false,
      "t": 171375,
      "d": 109.375,
      "v": 79
    },
    {
      "midi": 67,
      "hit": false,
      "t": 171375,
      "d": 109.375,
      "v": 83
    },
    {
      "midi": 44,
      "hit": false,
      "t": 171625,
      "d": 109.375,
      "v": 79
    },
    {
      "midi": 60,
      "hit": false,
      "t": 171750,
      "d": 109.375,
      "v": 83
    },
    {
      "midi": 63,
      "hit": false,
      "t": 171750,
      "d": 109.375,
      "v": 84
    },
    {
      "midi": 67,
      "hit": false,
      "t": 171750,
      "d": 109.375,
      "v": 87
    },
    {
      "midi": 46,
      "hit": false,
      "t": 172000,
      "d": 234.375,
      "v": 87
    },
    {
      "midi": 62,
      "hit": false,
      "t": 172250,
      "d": 109.375,
      "v": 87
    },
    {
      "midi": 65,
      "hit": false,
      "t": 172250,
      "d": 109.375,
      "v": 84
    },
    {
      "midi": 70,
      "hit": false,
      "t": 172250,
      "d": 109.375,
      "v": 87
    },
    {
      "midi": 46,
      "hit": false,
      "t": 172500,
      "d": 109.375,
      "v": 81
    },
    {
      "midi": 62,
      "hit": false,
      "t": 172625,
      "d": 109.375,
      "v": 79
    },
    {
      "midi": 65,
      "hit": false,
      "t": 172625,
      "d": 109.375,
      "v": 82
    },
    {
      "midi": 70,
      "hit": false,
      "t": 172625,
      "d": 109.375,
      "v": 79
    },
    {
      "midi": 46,
      "hit": false,
      "t": 172875,
      "d": 109.375,
      "v": 80
    },
    {
      "midi": 63,
      "hit": false,
      "t": 173000,
      "d": 109.375,
      "v": 83
    },
    {
      "midi": 65,
      "hit": false,
      "t": 173000,
      "d": 109.375,
      "v": 82
    },
    {
      "midi": 70,
      "hit": false,
      "t": 173000,
      "d": 109.375,
      "v": 80
    },
    {
      "midi": 63,
      "hit": false,
      "t": 173250,
      "d": 109.375,
      "v": 80
    },
    {
      "midi": 65,
      "hit": false,
      "t": 173250,
      "d": 109.375,
      "v": 79
    },
    {
      "midi": 70,
      "hit": false,
      "t": 173250,
      "d": 109.375,
      "v": 82
    },
    {
      "midi": 62,
      "hit": false,
      "t": 173500,
      "d": 109.375,
      "v": 86
    },
    {
      "midi": 65,
      "hit": false,
      "t": 173500,
      "d": 109.375,
      "v": 80
    },
    {
      "midi": 70,
      "hit": false,
      "t": 173500,
      "d": 109.375,
      "v": 80
    },
    {
      "midi": 62,
      "hit": false,
      "t": 173750,
      "d": 109.375,
      "v": 80
    },
    {
      "midi": 65,
      "hit": false,
      "t": 173750,
      "d": 109.375,
      "v": 84
    },
    {
      "midi": 70,
      "hit": false,
      "t": 173750,
      "d": 109.375,
      "v": 79
    },
    {
      "midi": 48,
      "hit": false,
      "t": 174000,
      "d": 234.375,
      "v": 79
    },
    {
      "midi": 63,
      "hit": false,
      "t": 174250,
      "d": 109.375,
      "v": 83
    },
    {
      "midi": 67,
      "hit": false,
      "t": 174250,
      "d": 109.375,
      "v": 78
    },
    {
      "midi": 70,
      "hit": false,
      "t": 174250,
      "d": 109.375,
      "v": 86
    },
    {
      "midi": 48,
      "hit": false,
      "t": 174500,
      "d": 109.375,
      "v": 83
    },
    {
      "midi": 63,
      "hit": false,
      "t": 174625,
      "d": 109.375,
      "v": 81
    },
    {
      "midi": 67,
      "hit": false,
      "t": 174625,
      "d": 109.375,
      "v": 86
    },
    {
      "midi": 70,
      "hit": false,
      "t": 174625,
      "d": 109.375,
      "v": 85
    },
    {
      "midi": 48,
      "hit": false,
      "t": 174875,
      "d": 109.375,
      "v": 84
    },
    {
      "midi": 63,
      "hit": false,
      "t": 175000,
      "d": 109.375,
      "v": 83
    },
    {
      "midi": 67,
      "hit": false,
      "t": 175000,
      "d": 109.375,
      "v": 82
    },
    {
      "midi": 70,
      "hit": false,
      "t": 175000,
      "d": 109.375,
      "v": 84
    },
    {
      "midi": 48,
      "hit": false,
      "t": 175250,
      "d": 109.375,
      "v": 87
    },
    {
      "midi": 63,
      "hit": false,
      "t": 175375,
      "d": 109.375,
      "v": 79
    },
    {
      "midi": 67,
      "hit": false,
      "t": 175375,
      "d": 109.375,
      "v": 86
    },
    {
      "midi": 70,
      "hit": false,
      "t": 175375,
      "d": 109.375,
      "v": 78
    },
    {
      "midi": 48,
      "hit": false,
      "t": 175625,
      "d": 109.375,
      "v": 87
    },
    {
      "midi": 63,
      "hit": false,
      "t": 175750,
      "d": 109.375,
      "v": 83
    },
    {
      "midi": 67,
      "hit": false,
      "t": 175750,
      "d": 109.375,
      "v": 78
    },
    {
      "midi": 70,
      "hit": false,
      "t": 175750,
      "d": 109.375,
      "v": 86
    },
    {
      "midi": 46,
      "hit": false,
      "t": 176000,
      "d": 234.375,
      "v": 83
    },
    {
      "midi": 58,
      "hit": false,
      "t": 176250,
      "d": 109.375,
      "v": 85
    },
    {
      "midi": 62,
      "hit": false,
      "t": 176250,
      "d": 109.375,
      "v": 84
    },
    {
      "midi": 65,
      "hit": false,
      "t": 176250,
      "d": 109.375,
      "v": 81
    },
    {
      "midi": 46,
      "hit": false,
      "t": 176500,
      "d": 109.375,
      "v": 86
    },
    {
      "midi": 58,
      "hit": false,
      "t": 176625,
      "d": 109.375,
      "v": 85
    },
    {
      "midi": 62,
      "hit": false,
      "t": 176625,
      "d": 109.375,
      "v": 82
    },
    {
      "midi": 65,
      "hit": false,
      "t": 176625,
      "d": 109.375,
      "v": 87
    },
    {
      "midi": 46,
      "hit": false,
      "t": 176875,
      "d": 109.375,
      "v": 83
    },
    {
      "midi": 58,
      "hit": false,
      "t": 177000,
      "d": 109.375,
      "v": 80
    },
    {
      "midi": 62,
      "hit": false,
      "t": 177000,
      "d": 109.375,
      "v": 81
    },
    {
      "midi": 65,
      "hit": false,
      "t": 177000,
      "d": 109.375,
      "v": 84
    },
    {
      "midi": 46,
      "hit": false,
      "t": 177250,
      "d": 109.375,
      "v": 87
    },
    {
      "midi": 58,
      "hit": false,
      "t": 177375,
      "d": 109.375,
      "v": 87
    },
    {
      "midi": 62,
      "hit": false,
      "t": 177375,
      "d": 109.375,
      "v": 81
    },
    {
      "midi": 65,
      "hit": false,
      "t": 177375,
      "d": 109.375,
      "v": 84
    },
    {
      "midi": 46,
      "hit": false,
      "t": 177625,
      "d": 109.375,
      "v": 86
    },
    {
      "midi": 58,
      "hit": false,
      "t": 177750,
      "d": 109.375,
      "v": 79
    },
    {
      "midi": 62,
      "hit": false,
      "t": 177750,
      "d": 109.375,
      "v": 82
    },
    {
      "midi": 65,
      "hit": false,
      "t": 177750,
      "d": 109.375,
      "v": 84
    },
    {
      "midi": 44,
      "hit": false,
      "t": 178000,
      "d": 234.375,
      "v": 79
    },
    {
      "midi": 60,
      "hit": false,
      "t": 178250,
      "d": 109.375,
      "v": 82
    },
    {
      "midi": 63,
      "hit": false,
      "t": 178250,
      "d": 109.375,
      "v": 84
    },
    {
      "midi": 67,
      "hit": false,
      "t": 178250,
      "d": 109.375,
      "v": 81
    },
    {
      "midi": 44,
      "hit": false,
      "t": 178500,
      "d": 109.375,
      "v": 80
    },
    {
      "midi": 60,
      "hit": false,
      "t": 178625,
      "d": 109.375,
      "v": 79
    },
    {
      "midi": 63,
      "hit": false,
      "t": 178625,
      "d": 109.375,
      "v": 83
    },
    {
      "midi": 67,
      "hit": false,
      "t": 178625,
      "d": 109.375,
      "v": 78
    },
    {
      "midi": 44,
      "hit": false,
      "t": 178875,
      "d": 109.375,
      "v": 81
    },
    {
      "midi": 60,
      "hit": false,
      "t": 179000,
      "d": 109.375,
      "v": 78
    },
    {
      "midi": 63,
      "hit": false,
      "t": 179000,
      "d": 109.375,
      "v": 86
    },
    {
      "midi": 67,
      "hit": false,
      "t": 179000,
      "d": 109.375,
      "v": 85
    },
    {
      "midi": 44,
      "hit": false,
      "t": 179250,
      "d": 109.375,
      "v": 83
    },
    {
      "midi": 60,
      "hit": false,
      "t": 179375,
      "d": 109.375,
      "v": 79
    },
    {
      "midi": 63,
      "hit": false,
      "t": 179375,
      "d": 109.375,
      "v": 82
    },
    {
      "midi": 67,
      "hit": false,
      "t": 179375,
      "d": 109.375,
      "v": 80
    },
    {
      "midi": 44,
      "hit": false,
      "t": 179625,
      "d": 109.375,
      "v": 84
    },
    {
      "midi": 60,
      "hit": false,
      "t": 179750,
      "d": 109.375,
      "v": 84
    },
    {
      "midi": 63,
      "hit": false,
      "t": 179750,
      "d": 109.375,
      "v": 85
    },
    {
      "midi": 67,
      "hit": false,
      "t": 179750,
      "d": 109.375,
      "v": 79
    },
    {
      "midi": 46,
      "hit": false,
      "t": 180000,
      "d": 234.375,
      "v": 80
    },
    {
      "midi": 62,
      "hit": false,
      "t": 180250,
      "d": 109.375,
      "v": 79
    },
    {
      "midi": 65,
      "hit": false,
      "t": 180250,
      "d": 109.375,
      "v": 80
    },
    {
      "midi": 70,
      "hit": false,
      "t": 180250,
      "d": 109.375,
      "v": 84
    },
    {
      "midi": 46,
      "hit": false,
      "t": 180500,
      "d": 109.375,
      "v": 78
    },
    {
      "midi": 62,
      "hit": false,
      "t": 180625,
      "d": 109.375,
      "v": 86
    },
    {
      "midi": 65,
      "hit": false,
      "t": 180625,
      "d": 109.375,
      "v": 79
    },
    {
      "midi": 70,
      "hit": false,
      "t": 180625,
      "d": 109.375,
      "v": 80
    },
    {
      "midi": 46,
      "hit": false,
      "t": 180875,
      "d": 109.375,
      "v": 83
    },
    {
      "midi": 63,
      "hit": false,
      "t": 181000,
      "d": 109.375,
      "v": 82
    },
    {
      "midi": 65,
      "hit": false,
      "t": 181000,
      "d": 109.375,
      "v": 86
    },
    {
      "midi": 70,
      "hit": false,
      "t": 181000,
      "d": 109.375,
      "v": 86
    },
    {
      "midi": 63,
      "hit": false,
      "t": 181250,
      "d": 109.375,
      "v": 87
    },
    {
      "midi": 65,
      "hit": false,
      "t": 181250,
      "d": 109.375,
      "v": 85
    },
    {
      "midi": 70,
      "hit": false,
      "t": 181250,
      "d": 109.375,
      "v": 79
    },
    {
      "midi": 62,
      "hit": false,
      "t": 181500,
      "d": 109.375,
      "v": 78
    },
    {
      "midi": 65,
      "hit": false,
      "t": 181500,
      "d": 109.375,
      "v": 78
    },
    {
      "midi": 70,
      "hit": false,
      "t": 181500,
      "d": 109.375,
      "v": 79
    },
    {
      "midi": 62,
      "hit": false,
      "t": 181750,
      "d": 109.375,
      "v": 84
    },
    {
      "midi": 65,
      "hit": false,
      "t": 181750,
      "d": 109.375,
      "v": 79
    },
    {
      "midi": 70,
      "hit": false,
      "t": 181750,
      "d": 109.375,
      "v": 80
    },
    {
      "midi": 48,
      "hit": false,
      "t": 182000,
      "d": 234.375,
      "v": 81
    },
    {
      "midi": 63,
      "hit": false,
      "t": 182250,
      "d": 109.375,
      "v": 83
    },
    {
      "midi": 67,
      "hit": false,
      "t": 182250,
      "d": 109.375,
      "v": 81
    },
    {
      "midi": 70,
      "hit": false,
      "t": 182250,
      "d": 109.375,
      "v": 78
    },
    {
      "midi": 48,
      "hit": false,
      "t": 182500,
      "d": 109.375,
      "v": 83
    },
    {
      "midi": 63,
      "hit": false,
      "t": 182625,
      "d": 109.375,
      "v": 85
    },
    {
      "midi": 67,
      "hit": false,
      "t": 182625,
      "d": 109.375,
      "v": 86
    },
    {
      "midi": 70,
      "hit": false,
      "t": 182625,
      "d": 109.375,
      "v": 85
    },
    {
      "midi": 48,
      "hit": false,
      "t": 182875,
      "d": 109.375,
      "v": 83
    },
    {
      "midi": 63,
      "hit": false,
      "t": 183000,
      "d": 109.375,
      "v": 80
    },
    {
      "midi": 67,
      "hit": false,
      "t": 183000,
      "d": 109.375,
      "v": 80
    },
    {
      "midi": 70,
      "hit": false,
      "t": 183000,
      "d": 109.375,
      "v": 80
    },
    {
      "midi": 48,
      "hit": false,
      "t": 183250,
      "d": 109.375,
      "v": 82
    },
    {
      "midi": 63,
      "hit": false,
      "t": 183375,
      "d": 109.375,
      "v": 85
    },
    {
      "midi": 67,
      "hit": false,
      "t": 183375,
      "d": 109.375,
      "v": 82
    },
    {
      "midi": 70,
      "hit": false,
      "t": 183375,
      "d": 109.375,
      "v": 87
    },
    {
      "midi": 48,
      "hit": false,
      "t": 183625,
      "d": 109.375,
      "v": 85
    },
    {
      "midi": 63,
      "hit": false,
      "t": 183750,
      "d": 109.375,
      "v": 86
    },
    {
      "midi": 67,
      "hit": false,
      "t": 183750,
      "d": 109.375,
      "v": 85
    },
    {
      "midi": 70,
      "hit": false,
      "t": 183750,
      "d": 109.375,
      "v": 84
    },
    {
      "midi": 46,
      "hit": false,
      "t": 184000,
      "d": 234.375,
      "v": 78
    },
    {
      "midi": 58,
      "hit": false,
      "t": 184250,
      "d": 109.375,
      "v": 82
    },
    {
      "midi": 62,
      "hit": false,
      "t": 184250,
      "d": 109.375,
      "v": 85
    },
    {
      "midi": 65,
      "hit": false,
      "t": 184250,
      "d": 109.375,
      "v": 86
    },
    {
      "midi": 46,
      "hit": false,
      "t": 184500,
      "d": 109.375,
      "v": 82
    },
    {
      "midi": 58,
      "hit": false,
      "t": 184625,
      "d": 109.375,
      "v": 79
    },
    {
      "midi": 62,
      "hit": false,
      "t": 184625,
      "d": 109.375,
      "v": 78
    },
    {
      "midi": 65,
      "hit": false,
      "t": 184625,
      "d": 109.375,
      "v": 85
    },
    {
      "midi": 46,
      "hit": false,
      "t": 184875,
      "d": 109.375,
      "v": 82
    },
    {
      "midi": 58,
      "hit": false,
      "t": 185000,
      "d": 109.375,
      "v": 86
    },
    {
      "midi": 62,
      "hit": false,
      "t": 185000,
      "d": 109.375,
      "v": 79
    },
    {
      "midi": 65,
      "hit": false,
      "t": 185000,
      "d": 109.375,
      "v": 82
    },
    {
      "midi": 46,
      "hit": false,
      "t": 185250,
      "d": 109.375,
      "v": 85
    },
    {
      "midi": 58,
      "hit": false,
      "t": 185375,
      "d": 109.375,
      "v": 87
    },
    {
      "midi": 62,
      "hit": false,
      "t": 185375,
      "d": 109.375,
      "v": 78
    },
    {
      "midi": 65,
      "hit": false,
      "t": 185375,
      "d": 109.375,
      "v": 83
    },
    {
      "midi": 46,
      "hit": false,
      "t": 185625,
      "d": 109.375,
      "v": 81
    },
    {
      "midi": 58,
      "hit": false,
      "t": 185750,
      "d": 109.375,
      "v": 87
    },
    {
      "midi": 62,
      "hit": false,
      "t": 185750,
      "d": 109.375,
      "v": 86
    },
    {
      "midi": 65,
      "hit": false,
      "t": 185750,
      "d": 109.375,
      "v": 85
    },
    {
      "midi": 44,
      "hit": false,
      "t": 186000,
      "d": 234.375,
      "v": 87
    },
    {
      "midi": 60,
      "hit": false,
      "t": 186250,
      "d": 109.375,
      "v": 78
    },
    {
      "midi": 63,
      "hit": false,
      "t": 186250,
      "d": 109.375,
      "v": 87
    },
    {
      "midi": 67,
      "hit": false,
      "t": 186250,
      "d": 109.375,
      "v": 84
    },
    {
      "midi": 44,
      "hit": false,
      "t": 186500,
      "d": 109.375,
      "v": 79
    },
    {
      "midi": 60,
      "hit": false,
      "t": 186625,
      "d": 109.375,
      "v": 82
    },
    {
      "midi": 63,
      "hit": false,
      "t": 186625,
      "d": 109.375,
      "v": 85
    },
    {
      "midi": 67,
      "hit": false,
      "t": 186625,
      "d": 109.375,
      "v": 84
    },
    {
      "midi": 44,
      "hit": false,
      "t": 186875,
      "d": 109.375,
      "v": 79
    },
    {
      "midi": 60,
      "hit": false,
      "t": 187000,
      "d": 109.375,
      "v": 80
    },
    {
      "midi": 63,
      "hit": false,
      "t": 187000,
      "d": 109.375,
      "v": 83
    },
    {
      "midi": 67,
      "hit": false,
      "t": 187000,
      "d": 109.375,
      "v": 86
    },
    {
      "midi": 44,
      "hit": false,
      "t": 187250,
      "d": 109.375,
      "v": 86
    },
    {
      "midi": 60,
      "hit": false,
      "t": 187375,
      "d": 109.375,
      "v": 86
    },
    {
      "midi": 63,
      "hit": false,
      "t": 187375,
      "d": 109.375,
      "v": 78
    },
    {
      "midi": 67,
      "hit": false,
      "t": 187375,
      "d": 109.375,
      "v": 81
    },
    {
      "midi": 44,
      "hit": false,
      "t": 187625,
      "d": 109.375,
      "v": 83
    },
    {
      "midi": 60,
      "hit": false,
      "t": 187750,
      "d": 109.375,
      "v": 79
    },
    {
      "midi": 63,
      "hit": false,
      "t": 187750,
      "d": 109.375,
      "v": 83
    },
    {
      "midi": 67,
      "hit": false,
      "t": 187750,
      "d": 109.375,
      "v": 85
    },
    {
      "midi": 46,
      "hit": false,
      "t": 188000,
      "d": 234.375,
      "v": 79
    },
    {
      "midi": 62,
      "hit": false,
      "t": 188250,
      "d": 109.375,
      "v": 78
    },
    {
      "midi": 65,
      "hit": false,
      "t": 188250,
      "d": 109.375,
      "v": 79
    },
    {
      "midi": 70,
      "hit": false,
      "t": 188250,
      "d": 109.375,
      "v": 84
    },
    {
      "midi": 46,
      "hit": false,
      "t": 188500,
      "d": 109.375,
      "v": 86
    },
    {
      "midi": 62,
      "hit": false,
      "t": 188625,
      "d": 109.375,
      "v": 82
    },
    {
      "midi": 65,
      "hit": false,
      "t": 188625,
      "d": 109.375,
      "v": 81
    },
    {
      "midi": 70,
      "hit": false,
      "t": 188625,
      "d": 109.375,
      "v": 82
    },
    {
      "midi": 46,
      "hit": false,
      "t": 188875,
      "d": 109.375,
      "v": 80
    },
    {
      "midi": 63,
      "hit": false,
      "t": 189000,
      "d": 109.375,
      "v": 85
    },
    {
      "midi": 65,
      "hit": false,
      "t": 189000,
      "d": 109.375,
      "v": 81
    },
    {
      "midi": 70,
      "hit": false,
      "t": 189000,
      "d": 109.375,
      "v": 82
    },
    {
      "midi": 63,
      "hit": false,
      "t": 189250,
      "d": 109.375,
      "v": 80
    },
    {
      "midi": 65,
      "hit": false,
      "t": 189250,
      "d": 109.375,
      "v": 80
    },
    {
      "midi": 70,
      "hit": false,
      "t": 189250,
      "d": 109.375,
      "v": 87
    },
    {
      "midi": 62,
      "hit": false,
      "t": 189500,
      "d": 109.375,
      "v": 81
    },
    {
      "midi": 65,
      "hit": false,
      "t": 189500,
      "d": 109.375,
      "v": 83
    },
    {
      "midi": 70,
      "hit": false,
      "t": 189500,
      "d": 109.375,
      "v": 79
    },
    {
      "midi": 62,
      "hit": false,
      "t": 189750,
      "d": 109.375,
      "v": 82
    },
    {
      "midi": 65,
      "hit": false,
      "t": 189750,
      "d": 109.375,
      "v": 84
    },
    {
      "midi": 70,
      "hit": false,
      "t": 189750,
      "d": 109.375,
      "v": 80
    },
    {
      "midi": 48,
      "hit": false,
      "t": 190000,
      "d": 234.375,
      "v": 85
    },
    {
      "midi": 63,
      "hit": false,
      "t": 190250,
      "d": 109.375,
      "v": 82
    },
    {
      "midi": 67,
      "hit": false,
      "t": 190250,
      "d": 109.375,
      "v": 81
    },
    {
      "midi": 70,
      "hit": false,
      "t": 190250,
      "d": 109.375,
      "v": 85
    },
    {
      "midi": 48,
      "hit": false,
      "t": 190500,
      "d": 109.375,
      "v": 86
    },
    {
      "midi": 63,
      "hit": false,
      "t": 190625,
      "d": 109.375,
      "v": 79
    },
    {
      "midi": 67,
      "hit": false,
      "t": 190625,
      "d": 109.375,
      "v": 85
    },
    {
      "midi": 70,
      "hit": false,
      "t": 190625,
      "d": 109.375,
      "v": 81
    },
    {
      "midi": 48,
      "hit": false,
      "t": 190875,
      "d": 109.375,
      "v": 82
    },
    {
      "midi": 63,
      "hit": false,
      "t": 191000,
      "d": 109.375,
      "v": 84
    },
    {
      "midi": 67,
      "hit": false,
      "t": 191000,
      "d": 109.375,
      "v": 78
    },
    {
      "midi": 70,
      "hit": false,
      "t": 191000,
      "d": 109.375,
      "v": 80
    },
    {
      "midi": 48,
      "hit": false,
      "t": 191250,
      "d": 109.375,
      "v": 83
    },
    {
      "midi": 63,
      "hit": false,
      "t": 191375,
      "d": 109.375,
      "v": 87
    },
    {
      "midi": 67,
      "hit": false,
      "t": 191375,
      "d": 109.375,
      "v": 80
    },
    {
      "midi": 70,
      "hit": false,
      "t": 191375,
      "d": 109.375,
      "v": 81
    },
    {
      "midi": 48,
      "hit": false,
      "t": 191625,
      "d": 109.375,
      "v": 85
    },
    {
      "midi": 63,
      "hit": false,
      "t": 191750,
      "d": 109.375,
      "v": 86
    },
    {
      "midi": 67,
      "hit": false,
      "t": 191750,
      "d": 109.375,
      "v": 81
    },
    {
      "midi": 70,
      "hit": false,
      "t": 191750,
      "d": 109.375,
      "v": 79
    },
    {
      "midi": 46,
      "hit": false,
      "t": 192000,
      "d": 234.375,
      "v": 83
    },
    {
      "midi": 58,
      "hit": false,
      "t": 192250,
      "d": 109.375,
      "v": 85
    },
    {
      "midi": 62,
      "hit": false,
      "t": 192250,
      "d": 109.375,
      "v": 81
    },
    {
      "midi": 65,
      "hit": false,
      "t": 192250,
      "d": 109.375,
      "v": 86
    },
    {
      "midi": 46,
      "hit": false,
      "t": 192500,
      "d": 109.375,
      "v": 87
    },
    {
      "midi": 58,
      "hit": false,
      "t": 192625,
      "d": 109.375,
      "v": 79
    },
    {
      "midi": 62,
      "hit": false,
      "t": 192625,
      "d": 109.375,
      "v": 86
    },
    {
      "midi": 65,
      "hit": false,
      "t": 192625,
      "d": 109.375,
      "v": 81
    },
    {
      "midi": 46,
      "hit": false,
      "t": 192875,
      "d": 109.375,
      "v": 86
    },
    {
      "midi": 58,
      "hit": false,
      "t": 193000,
      "d": 109.375,
      "v": 81
    },
    {
      "midi": 62,
      "hit": false,
      "t": 193000,
      "d": 109.375,
      "v": 87
    },
    {
      "midi": 65,
      "hit": false,
      "t": 193000,
      "d": 109.375,
      "v": 84
    },
    {
      "midi": 46,
      "hit": false,
      "t": 193250,
      "d": 109.375,
      "v": 85
    },
    {
      "midi": 58,
      "hit": false,
      "t": 193375,
      "d": 109.375,
      "v": 80
    },
    {
      "midi": 62,
      "hit": false,
      "t": 193375,
      "d": 109.375,
      "v": 84
    },
    {
      "midi": 65,
      "hit": false,
      "t": 193375,
      "d": 109.375,
      "v": 84
    },
    {
      "midi": 46,
      "hit": false,
      "t": 193625,
      "d": 109.375,
      "v": 83
    },
    {
      "midi": 58,
      "hit": false,
      "t": 193750,
      "d": 109.375,
      "v": 81
    },
    {
      "midi": 62,
      "hit": false,
      "t": 193750,
      "d": 109.375,
      "v": 85
    },
    {
      "midi": 65,
      "hit": false,
      "t": 193750,
      "d": 109.375,
      "v": 82
    },
    {
      "midi": 44,
      "hit": false,
      "t": 194000,
      "d": 234.375,
      "v": 81
    },
    {
      "midi": 60,
      "hit": false,
      "t": 194250,
      "d": 109.375,
      "v": 81
    },
    {
      "midi": 63,
      "hit": false,
      "t": 194250,
      "d": 109.375,
      "v": 80
    },
    {
      "midi": 67,
      "hit": false,
      "t": 194250,
      "d": 109.375,
      "v": 83
    },
    {
      "midi": 44,
      "hit": false,
      "t": 194500,
      "d": 109.375,
      "v": 78
    },
    {
      "midi": 60,
      "hit": false,
      "t": 194625,
      "d": 109.375,
      "v": 79
    },
    {
      "midi": 63,
      "hit": false,
      "t": 194625,
      "d": 109.375,
      "v": 82
    },
    {
      "midi": 67,
      "hit": false,
      "t": 194625,
      "d": 109.375,
      "v": 79
    },
    {
      "midi": 44,
      "hit": false,
      "t": 194875,
      "d": 109.375,
      "v": 79
    },
    {
      "midi": 60,
      "hit": false,
      "t": 195000,
      "d": 109.375,
      "v": 78
    },
    {
      "midi": 63,
      "hit": false,
      "t": 195000,
      "d": 109.375,
      "v": 84
    },
    {
      "midi": 67,
      "hit": false,
      "t": 195000,
      "d": 109.375,
      "v": 80
    },
    {
      "midi": 44,
      "hit": false,
      "t": 195250,
      "d": 109.375,
      "v": 85
    },
    {
      "midi": 60,
      "hit": false,
      "t": 195375,
      "d": 109.375,
      "v": 81
    },
    {
      "midi": 63,
      "hit": false,
      "t": 195375,
      "d": 109.375,
      "v": 80
    },
    {
      "midi": 67,
      "hit": false,
      "t": 195375,
      "d": 109.375,
      "v": 83
    },
    {
      "midi": 44,
      "hit": false,
      "t": 195625,
      "d": 109.375,
      "v": 83
    },
    {
      "midi": 60,
      "hit": false,
      "t": 195750,
      "d": 109.375,
      "v": 83
    },
    {
      "midi": 63,
      "hit": false,
      "t": 195750,
      "d": 109.375,
      "v": 82
    },
    {
      "midi": 67,
      "hit": false,
      "t": 195750,
      "d": 109.375,
      "v": 83
    },
    {
      "midi": 46,
      "hit": false,
      "t": 196000,
      "d": 234.375,
      "v": 84
    },
    {
      "midi": 62,
      "hit": false,
      "t": 196250,
      "d": 109.375,
      "v": 80
    },
    {
      "midi": 65,
      "hit": false,
      "t": 196250,
      "d": 109.375,
      "v": 87
    },
    {
      "midi": 70,
      "hit": false,
      "t": 196250,
      "d": 109.375,
      "v": 78
    },
    {
      "midi": 46,
      "hit": false,
      "t": 196500,
      "d": 109.375,
      "v": 87
    },
    {
      "midi": 62,
      "hit": false,
      "t": 196625,
      "d": 109.375,
      "v": 85
    },
    {
      "midi": 65,
      "hit": false,
      "t": 196625,
      "d": 109.375,
      "v": 79
    },
    {
      "midi": 70,
      "hit": false,
      "t": 196625,
      "d": 109.375,
      "v": 79
    },
    {
      "midi": 46,
      "hit": false,
      "t": 196875,
      "d": 109.375,
      "v": 83
    },
    {
      "midi": 63,
      "hit": false,
      "t": 197000,
      "d": 109.375,
      "v": 85
    },
    {
      "midi": 65,
      "hit": false,
      "t": 197000,
      "d": 109.375,
      "v": 85
    },
    {
      "midi": 70,
      "hit": false,
      "t": 197000,
      "d": 109.375,
      "v": 81
    },
    {
      "midi": 63,
      "hit": false,
      "t": 197250,
      "d": 109.375,
      "v": 83
    },
    {
      "midi": 65,
      "hit": false,
      "t": 197250,
      "d": 109.375,
      "v": 87
    },
    {
      "midi": 70,
      "hit": false,
      "t": 197250,
      "d": 109.375,
      "v": 82
    },
    {
      "midi": 62,
      "hit": false,
      "t": 197500,
      "d": 109.375,
      "v": 84
    },
    {
      "midi": 65,
      "hit": false,
      "t": 197500,
      "d": 109.375,
      "v": 87
    },
    {
      "midi": 70,
      "hit": false,
      "t": 197500,
      "d": 109.375,
      "v": 83
    },
    {
      "midi": 62,
      "hit": false,
      "t": 197750,
      "d": 109.375,
      "v": 87
    },
    {
      "midi": 65,
      "hit": false,
      "t": 197750,
      "d": 109.375,
      "v": 82
    },
    {
      "midi": 70,
      "hit": false,
      "t": 197750,
      "d": 109.375,
      "v": 81
    },
    {
      "midi": 48,
      "hit": false,
      "t": 198000,
      "d": 234.375,
      "v": 81
    },
    {
      "midi": 63,
      "hit": false,
      "t": 198250,
      "d": 109.375,
      "v": 80
    },
    {
      "midi": 67,
      "hit": false,
      "t": 198250,
      "d": 109.375,
      "v": 84
    },
    {
      "midi": 70,
      "hit": false,
      "t": 198250,
      "d": 109.375,
      "v": 81
    },
    {
      "midi": 48,
      "hit": false,
      "t": 198500,
      "d": 109.375,
      "v": 83
    },
    {
      "midi": 63,
      "hit": false,
      "t": 198625,
      "d": 109.375,
      "v": 79
    },
    {
      "midi": 67,
      "hit": false,
      "t": 198625,
      "d": 109.375,
      "v": 79
    },
    {
      "midi": 70,
      "hit": false,
      "t": 198625,
      "d": 109.375,
      "v": 79
    },
    {
      "midi": 48,
      "hit": false,
      "t": 198875,
      "d": 109.375,
      "v": 87
    },
    {
      "midi": 63,
      "hit": false,
      "t": 199000,
      "d": 109.375,
      "v": 79
    },
    {
      "midi": 67,
      "hit": false,
      "t": 199000,
      "d": 109.375,
      "v": 78
    },
    {
      "midi": 70,
      "hit": false,
      "t": 199000,
      "d": 109.375,
      "v": 79
    },
    {
      "midi": 48,
      "hit": false,
      "t": 199250,
      "d": 109.375,
      "v": 87
    },
    {
      "midi": 63,
      "hit": false,
      "t": 199375,
      "d": 109.375,
      "v": 84
    },
    {
      "midi": 67,
      "hit": false,
      "t": 199375,
      "d": 109.375,
      "v": 82
    },
    {
      "midi": 70,
      "hit": false,
      "t": 199375,
      "d": 109.375,
      "v": 83
    },
    {
      "midi": 48,
      "hit": false,
      "t": 199625,
      "d": 109.375,
      "v": 84
    },
    {
      "midi": 63,
      "hit": false,
      "t": 199750,
      "d": 109.375,
      "v": 84
    },
    {
      "midi": 67,
      "hit": false,
      "t": 199750,
      "d": 109.375,
      "v": 83
    },
    {
      "midi": 70,
      "hit": false,
      "t": 199750,
      "d": 109.375,
      "v": 82
    },
    {
      "midi": 46,
      "hit": false,
      "t": 200000,
      "d": 234.375,
      "v": 78
    },
    {
      "midi": 58,
      "hit": false,
      "t": 200250,
      "d": 109.375,
      "v": 83
    },
    {
      "midi": 62,
      "hit": false,
      "t": 200250,
      "d": 109.375,
      "v": 85
    },
    {
      "midi": 65,
      "hit": false,
      "t": 200250,
      "d": 109.375,
      "v": 78
    },
    {
      "midi": 46,
      "hit": false,
      "t": 200500,
      "d": 109.375,
      "v": 84
    },
    {
      "midi": 58,
      "hit": false,
      "t": 200625,
      "d": 109.375,
      "v": 78
    },
    {
      "midi": 62,
      "hit": false,
      "t": 200625,
      "d": 109.375,
      "v": 86
    },
    {
      "midi": 65,
      "hit": false,
      "t": 200625,
      "d": 109.375,
      "v": 81
    },
    {
      "midi": 46,
      "hit": false,
      "t": 200875,
      "d": 109.375,
      "v": 78
    },
    {
      "midi": 58,
      "hit": false,
      "t": 201000,
      "d": 109.375,
      "v": 82
    },
    {
      "midi": 62,
      "hit": false,
      "t": 201000,
      "d": 109.375,
      "v": 86
    },
    {
      "midi": 65,
      "hit": false,
      "t": 201000,
      "d": 109.375,
      "v": 80
    },
    {
      "midi": 46,
      "hit": false,
      "t": 201250,
      "d": 109.375,
      "v": 82
    },
    {
      "midi": 58,
      "hit": false,
      "t": 201375,
      "d": 109.375,
      "v": 82
    },
    {
      "midi": 62,
      "hit": false,
      "t": 201375,
      "d": 109.375,
      "v": 78
    },
    {
      "midi": 65,
      "hit": false,
      "t": 201375,
      "d": 109.375,
      "v": 84
    },
    {
      "midi": 46,
      "hit": false,
      "t": 201625,
      "d": 109.375,
      "v": 82
    },
    {
      "midi": 58,
      "hit": false,
      "t": 201750,
      "d": 109.375,
      "v": 87
    },
    {
      "midi": 62,
      "hit": false,
      "t": 201750,
      "d": 109.375,
      "v": 81
    },
    {
      "midi": 65,
      "hit": false,
      "t": 201750,
      "d": 109.375,
      "v": 78
    },
    {
      "midi": 44,
      "hit": false,
      "t": 202000,
      "d": 234.375,
      "v": 86
    },
    {
      "midi": 60,
      "hit": false,
      "t": 202250,
      "d": 109.375,
      "v": 84
    },
    {
      "midi": 63,
      "hit": false,
      "t": 202250,
      "d": 109.375,
      "v": 85
    },
    {
      "midi": 67,
      "hit": false,
      "t": 202250,
      "d": 109.375,
      "v": 79
    },
    {
      "midi": 44,
      "hit": false,
      "t": 202500,
      "d": 109.375,
      "v": 82
    },
    {
      "midi": 60,
      "hit": false,
      "t": 202625,
      "d": 109.375,
      "v": 79
    },
    {
      "midi": 63,
      "hit": false,
      "t": 202625,
      "d": 109.375,
      "v": 82
    },
    {
      "midi": 67,
      "hit": false,
      "t": 202625,
      "d": 109.375,
      "v": 87
    },
    {
      "midi": 44,
      "hit": false,
      "t": 202875,
      "d": 109.375,
      "v": 87
    },
    {
      "midi": 60,
      "hit": false,
      "t": 203000,
      "d": 109.375,
      "v": 84
    },
    {
      "midi": 63,
      "hit": false,
      "t": 203000,
      "d": 109.375,
      "v": 83
    },
    {
      "midi": 67,
      "hit": false,
      "t": 203000,
      "d": 109.375,
      "v": 87
    },
    {
      "midi": 44,
      "hit": false,
      "t": 203250,
      "d": 109.375,
      "v": 84
    },
    {
      "midi": 60,
      "hit": false,
      "t": 203375,
      "d": 109.375,
      "v": 80
    },
    {
      "midi": 63,
      "hit": false,
      "t": 203375,
      "d": 109.375,
      "v": 80
    },
    {
      "midi": 67,
      "hit": false,
      "t": 203375,
      "d": 109.375,
      "v": 85
    },
    {
      "midi": 44,
      "hit": false,
      "t": 203625,
      "d": 109.375,
      "v": 80
    },
    {
      "midi": 60,
      "hit": false,
      "t": 203750,
      "d": 109.375,
      "v": 81
    },
    {
      "midi": 63,
      "hit": false,
      "t": 203750,
      "d": 109.375,
      "v": 87
    },
    {
      "midi": 67,
      "hit": false,
      "t": 203750,
      "d": 109.375,
      "v": 82
    },
    {
      "midi": 46,
      "hit": false,
      "t": 204000,
      "d": 234.375,
      "v": 81
    },
    {
      "midi": 58,
      "hit": false,
      "t": 204250,
      "d": 109.375,
      "v": 81
    },
    {
      "midi": 63,
      "hit": false,
      "t": 204250,
      "d": 109.375,
      "v": 83
    },
    {
      "midi": 65,
      "hit": false,
      "t": 204250,
      "d": 109.375,
      "v": 85
    },
    {
      "midi": 46,
      "hit": false,
      "t": 204500,
      "d": 109.375,
      "v": 80
    },
    {
      "midi": 58,
      "hit": false,
      "t": 204625,
      "d": 109.375,
      "v": 84
    },
    {
      "midi": 63,
      "hit": false,
      "t": 204625,
      "d": 109.375,
      "v": 83
    },
    {
      "midi": 65,
      "hit": false,
      "t": 204625,
      "d": 109.375,
      "v": 80
    },
    {
      "midi": 46,
      "hit": false,
      "t": 204875,
      "d": 109.375,
      "v": 80
    },
    {
      "midi": 58,
      "hit": false,
      "t": 205000,
      "d": 109.375,
      "v": 84
    },
    {
      "midi": 62,
      "hit": false,
      "t": 205000,
      "d": 109.375,
      "v": 80
    },
    {
      "midi": 65,
      "hit": false,
      "t": 205000,
      "d": 109.375,
      "v": 78
    },
    {
      "midi": 46,
      "hit": false,
      "t": 205250,
      "d": 109.375,
      "v": 78
    },
    {
      "midi": 58,
      "hit": false,
      "t": 205375,
      "d": 109.375,
      "v": 82
    },
    {
      "midi": 62,
      "hit": false,
      "t": 205375,
      "d": 109.375,
      "v": 87
    },
    {
      "midi": 65,
      "hit": false,
      "t": 205375,
      "d": 109.375,
      "v": 82
    },
    {
      "midi": 46,
      "hit": false,
      "t": 205625,
      "d": 109.375,
      "v": 86
    },
    {
      "midi": 58,
      "hit": false,
      "t": 205750,
      "d": 109.375,
      "v": 79
    },
    {
      "midi": 62,
      "hit": false,
      "t": 205750,
      "d": 109.375,
      "v": 81
    },
    {
      "midi": 65,
      "hit": false,
      "t": 205750,
      "d": 109.375,
      "v": 79
    },
    {
      "midi": 48,
      "hit": false,
      "t": 206000,
      "d": 234.375,
      "v": 78
    },
    {
      "midi": 63,
      "hit": false,
      "t": 206250,
      "d": 109.375,
      "v": 87
    },
    {
      "midi": 67,
      "hit": false,
      "t": 206250,
      "d": 109.375,
      "v": 85
    },
    {
      "midi": 70,
      "hit": false,
      "t": 206250,
      "d": 109.375,
      "v": 83
    },
    {
      "midi": 48,
      "hit": false,
      "t": 206500,
      "d": 109.375,
      "v": 86
    },
    {
      "midi": 63,
      "hit": false,
      "t": 206625,
      "d": 109.375,
      "v": 79
    },
    {
      "midi": 67,
      "hit": false,
      "t": 206625,
      "d": 109.375,
      "v": 86
    },
    {
      "midi": 70,
      "hit": false,
      "t": 206625,
      "d": 109.375,
      "v": 82
    },
    {
      "midi": 48,
      "hit": false,
      "t": 206875,
      "d": 109.375,
      "v": 83
    },
    {
      "midi": 63,
      "hit": false,
      "t": 207000,
      "d": 109.375,
      "v": 82
    },
    {
      "midi": 67,
      "hit": false,
      "t": 207000,
      "d": 109.375,
      "v": 80
    },
    {
      "midi": 70,
      "hit": false,
      "t": 207000,
      "d": 109.375,
      "v": 79
    },
    {
      "midi": 48,
      "hit": false,
      "t": 207250,
      "d": 109.375,
      "v": 85
    },
    {
      "midi": 63,
      "hit": false,
      "t": 207375,
      "d": 109.375,
      "v": 82
    },
    {
      "midi": 67,
      "hit": false,
      "t": 207375,
      "d": 109.375,
      "v": 85
    },
    {
      "midi": 70,
      "hit": false,
      "t": 207375,
      "d": 109.375,
      "v": 85
    },
    {
      "midi": 48,
      "hit": false,
      "t": 207625,
      "d": 109.375,
      "v": 85
    },
    {
      "midi": 63,
      "hit": false,
      "t": 207750,
      "d": 109.375,
      "v": 78
    },
    {
      "midi": 67,
      "hit": false,
      "t": 207750,
      "d": 109.375,
      "v": 81
    },
    {
      "midi": 70,
      "hit": false,
      "t": 207750,
      "d": 109.375,
      "v": 79
    },
    {
      "midi": 46,
      "hit": false,
      "t": 208000,
      "d": 234.375,
      "v": 82
    },
    {
      "midi": 58,
      "hit": false,
      "t": 208250,
      "d": 109.375,
      "v": 79
    },
    {
      "midi": 62,
      "hit": false,
      "t": 208250,
      "d": 109.375,
      "v": 82
    },
    {
      "midi": 65,
      "hit": false,
      "t": 208250,
      "d": 109.375,
      "v": 80
    },
    {
      "midi": 46,
      "hit": false,
      "t": 208500,
      "d": 109.375,
      "v": 83
    },
    {
      "midi": 58,
      "hit": false,
      "t": 208625,
      "d": 109.375,
      "v": 83
    },
    {
      "midi": 62,
      "hit": false,
      "t": 208625,
      "d": 109.375,
      "v": 81
    },
    {
      "midi": 65,
      "hit": false,
      "t": 208625,
      "d": 109.375,
      "v": 81
    },
    {
      "midi": 46,
      "hit": false,
      "t": 208875,
      "d": 109.375,
      "v": 83
    },
    {
      "midi": 58,
      "hit": false,
      "t": 209000,
      "d": 109.375,
      "v": 84
    },
    {
      "midi": 62,
      "hit": false,
      "t": 209000,
      "d": 109.375,
      "v": 85
    },
    {
      "midi": 65,
      "hit": false,
      "t": 209000,
      "d": 109.375,
      "v": 82
    },
    {
      "midi": 46,
      "hit": false,
      "t": 209250,
      "d": 109.375,
      "v": 84
    },
    {
      "midi": 58,
      "hit": false,
      "t": 209375,
      "d": 109.375,
      "v": 86
    },
    {
      "midi": 62,
      "hit": false,
      "t": 209375,
      "d": 109.375,
      "v": 86
    },
    {
      "midi": 65,
      "hit": false,
      "t": 209375,
      "d": 109.375,
      "v": 83
    },
    {
      "midi": 46,
      "hit": false,
      "t": 209625,
      "d": 109.375,
      "v": 78
    },
    {
      "midi": 58,
      "hit": false,
      "t": 209750,
      "d": 109.375,
      "v": 80
    },
    {
      "midi": 62,
      "hit": false,
      "t": 209750,
      "d": 109.375,
      "v": 80
    },
    {
      "midi": 65,
      "hit": false,
      "t": 209750,
      "d": 109.375,
      "v": 85
    },
    {
      "midi": 44,
      "hit": false,
      "t": 210000,
      "d": 234.375,
      "v": 83
    },
    {
      "midi": 60,
      "hit": false,
      "t": 210250,
      "d": 109.375,
      "v": 78
    },
    {
      "midi": 63,
      "hit": false,
      "t": 210250,
      "d": 109.375,
      "v": 82
    },
    {
      "midi": 67,
      "hit": false,
      "t": 210250,
      "d": 109.375,
      "v": 80
    },
    {
      "midi": 44,
      "hit": false,
      "t": 210500,
      "d": 109.375,
      "v": 83
    },
    {
      "midi": 60,
      "hit": false,
      "t": 210625,
      "d": 109.375,
      "v": 81
    },
    {
      "midi": 63,
      "hit": false,
      "t": 210625,
      "d": 109.375,
      "v": 78
    },
    {
      "midi": 67,
      "hit": false,
      "t": 210625,
      "d": 109.375,
      "v": 86
    },
    {
      "midi": 44,
      "hit": false,
      "t": 210875,
      "d": 109.375,
      "v": 84
    },
    {
      "midi": 60,
      "hit": false,
      "t": 211000,
      "d": 109.375,
      "v": 81
    },
    {
      "midi": 63,
      "hit": false,
      "t": 211000,
      "d": 109.375,
      "v": 84
    },
    {
      "midi": 67,
      "hit": false,
      "t": 211000,
      "d": 109.375,
      "v": 86
    },
    {
      "midi": 44,
      "hit": false,
      "t": 211250,
      "d": 109.375,
      "v": 80
    },
    {
      "midi": 60,
      "hit": false,
      "t": 211375,
      "d": 109.375,
      "v": 87
    },
    {
      "midi": 63,
      "hit": false,
      "t": 211375,
      "d": 109.375,
      "v": 78
    },
    {
      "midi": 67,
      "hit": false,
      "t": 211375,
      "d": 109.375,
      "v": 78
    },
    {
      "midi": 44,
      "hit": false,
      "t": 211625,
      "d": 109.375,
      "v": 78
    },
    {
      "midi": 60,
      "hit": false,
      "t": 211750,
      "d": 109.375,
      "v": 82
    },
    {
      "midi": 63,
      "hit": false,
      "t": 211750,
      "d": 109.375,
      "v": 81
    },
    {
      "midi": 67,
      "hit": false,
      "t": 211750,
      "d": 109.375,
      "v": 81
    },
    {
      "midi": 46,
      "hit": false,
      "t": 212000,
      "d": 234.375,
      "v": 86
    },
    {
      "midi": 62,
      "hit": false,
      "t": 212250,
      "d": 109.375,
      "v": 85
    },
    {
      "midi": 65,
      "hit": false,
      "t": 212250,
      "d": 109.375,
      "v": 79
    },
    {
      "midi": 70,
      "hit": false,
      "t": 212250,
      "d": 109.375,
      "v": 86
    },
    {
      "midi": 46,
      "hit": false,
      "t": 212500,
      "d": 109.375,
      "v": 83
    },
    {
      "midi": 62,
      "hit": false,
      "t": 212625,
      "d": 109.375,
      "v": 79
    },
    {
      "midi": 65,
      "hit": false,
      "t": 212625,
      "d": 109.375,
      "v": 79
    },
    {
      "midi": 70,
      "hit": false,
      "t": 212625,
      "d": 109.375,
      "v": 79
    },
    {
      "midi": 46,
      "hit": false,
      "t": 212875,
      "d": 109.375,
      "v": 83
    },
    {
      "midi": 63,
      "hit": false,
      "t": 213000,
      "d": 109.375,
      "v": 84
    },
    {
      "midi": 65,
      "hit": false,
      "t": 213000,
      "d": 109.375,
      "v": 79
    },
    {
      "midi": 70,
      "hit": false,
      "t": 213000,
      "d": 109.375,
      "v": 87
    },
    {
      "midi": 63,
      "hit": false,
      "t": 213250,
      "d": 109.375,
      "v": 78
    },
    {
      "midi": 65,
      "hit": false,
      "t": 213250,
      "d": 109.375,
      "v": 87
    },
    {
      "midi": 70,
      "hit": false,
      "t": 213250,
      "d": 109.375,
      "v": 86
    },
    {
      "midi": 62,
      "hit": false,
      "t": 213500,
      "d": 109.375,
      "v": 87
    },
    {
      "midi": 65,
      "hit": false,
      "t": 213500,
      "d": 109.375,
      "v": 80
    },
    {
      "midi": 70,
      "hit": false,
      "t": 213500,
      "d": 109.375,
      "v": 87
    },
    {
      "midi": 62,
      "hit": false,
      "t": 213750,
      "d": 109.375,
      "v": 86
    },
    {
      "midi": 65,
      "hit": false,
      "t": 213750,
      "d": 109.375,
      "v": 84
    },
    {
      "midi": 70,
      "hit": false,
      "t": 213750,
      "d": 109.375,
      "v": 83
    },
    {
      "midi": 48,
      "hit": false,
      "t": 214000,
      "d": 234.375,
      "v": 80
    },
    {
      "midi": 63,
      "hit": false,
      "t": 214250,
      "d": 109.375,
      "v": 78
    },
    {
      "midi": 67,
      "hit": false,
      "t": 214250,
      "d": 109.375,
      "v": 79
    },
    {
      "midi": 70,
      "hit": false,
      "t": 214250,
      "d": 109.375,
      "v": 87
    },
    {
      "midi": 48,
      "hit": false,
      "t": 214500,
      "d": 109.375,
      "v": 84
    },
    {
      "midi": 63,
      "hit": false,
      "t": 214625,
      "d": 109.375,
      "v": 82
    },
    {
      "midi": 67,
      "hit": false,
      "t": 214625,
      "d": 109.375,
      "v": 84
    },
    {
      "midi": 70,
      "hit": false,
      "t": 214625,
      "d": 109.375,
      "v": 78
    },
    {
      "midi": 48,
      "hit": false,
      "t": 214875,
      "d": 109.375,
      "v": 81
    },
    {
      "midi": 63,
      "hit": false,
      "t": 215000,
      "d": 109.375,
      "v": 79
    },
    {
      "midi": 67,
      "hit": false,
      "t": 215000,
      "d": 109.375,
      "v": 86
    },
    {
      "midi": 70,
      "hit": false,
      "t": 215000,
      "d": 109.375,
      "v": 83
    },
    {
      "midi": 48,
      "hit": false,
      "t": 215250,
      "d": 109.375,
      "v": 83
    },
    {
      "midi": 63,
      "hit": false,
      "t": 215375,
      "d": 109.375,
      "v": 85
    },
    {
      "midi": 67,
      "hit": false,
      "t": 215375,
      "d": 109.375,
      "v": 81
    },
    {
      "midi": 70,
      "hit": false,
      "t": 215375,
      "d": 109.375,
      "v": 82
    },
    {
      "midi": 48,
      "hit": false,
      "t": 215625,
      "d": 109.375,
      "v": 83
    },
    {
      "midi": 63,
      "hit": false,
      "t": 215750,
      "d": 109.375,
      "v": 85
    },
    {
      "midi": 67,
      "hit": false,
      "t": 215750,
      "d": 109.375,
      "v": 81
    },
    {
      "midi": 70,
      "hit": false,
      "t": 215750,
      "d": 109.375,
      "v": 78
    },
    {
      "midi": 46,
      "hit": false,
      "t": 216000,
      "d": 234.375,
      "v": 87
    },
    {
      "midi": 58,
      "hit": false,
      "t": 216250,
      "d": 109.375,
      "v": 86
    },
    {
      "midi": 62,
      "hit": false,
      "t": 216250,
      "d": 109.375,
      "v": 81
    },
    {
      "midi": 65,
      "hit": false,
      "t": 216250,
      "d": 109.375,
      "v": 80
    },
    {
      "midi": 46,
      "hit": false,
      "t": 216500,
      "d": 109.375,
      "v": 87
    },
    {
      "midi": 58,
      "hit": false,
      "t": 216625,
      "d": 109.375,
      "v": 87
    },
    {
      "midi": 62,
      "hit": false,
      "t": 216625,
      "d": 109.375,
      "v": 85
    },
    {
      "midi": 65,
      "hit": false,
      "t": 216625,
      "d": 109.375,
      "v": 82
    },
    {
      "midi": 46,
      "hit": false,
      "t": 216875,
      "d": 109.375,
      "v": 87
    },
    {
      "midi": 58,
      "hit": false,
      "t": 217000,
      "d": 109.375,
      "v": 83
    },
    {
      "midi": 62,
      "hit": false,
      "t": 217000,
      "d": 109.375,
      "v": 78
    },
    {
      "midi": 65,
      "hit": false,
      "t": 217000,
      "d": 109.375,
      "v": 80
    },
    {
      "midi": 46,
      "hit": false,
      "t": 217250,
      "d": 109.375,
      "v": 80
    },
    {
      "midi": 58,
      "hit": false,
      "t": 217375,
      "d": 109.375,
      "v": 85
    },
    {
      "midi": 62,
      "hit": false,
      "t": 217375,
      "d": 109.375,
      "v": 81
    },
    {
      "midi": 65,
      "hit": false,
      "t": 217375,
      "d": 109.375,
      "v": 80
    },
    {
      "midi": 46,
      "hit": false,
      "t": 217625,
      "d": 109.375,
      "v": 86
    },
    {
      "midi": 58,
      "hit": false,
      "t": 217750,
      "d": 109.375,
      "v": 83
    },
    {
      "midi": 62,
      "hit": false,
      "t": 217750,
      "d": 109.375,
      "v": 81
    },
    {
      "midi": 65,
      "hit": false,
      "t": 217750,
      "d": 109.375,
      "v": 78
    },
    {
      "midi": 44,
      "hit": false,
      "t": 218000,
      "d": 234.375,
      "v": 82
    },
    {
      "midi": 60,
      "hit": false,
      "t": 218250,
      "d": 109.375,
      "v": 80
    },
    {
      "midi": 63,
      "hit": false,
      "t": 218250,
      "d": 109.375,
      "v": 85
    },
    {
      "midi": 67,
      "hit": false,
      "t": 218250,
      "d": 109.375,
      "v": 85
    },
    {
      "midi": 44,
      "hit": false,
      "t": 218500,
      "d": 109.375,
      "v": 78
    },
    {
      "midi": 60,
      "hit": false,
      "t": 218625,
      "d": 109.375,
      "v": 80
    },
    {
      "midi": 63,
      "hit": false,
      "t": 218625,
      "d": 109.375,
      "v": 86
    },
    {
      "midi": 67,
      "hit": false,
      "t": 218625,
      "d": 109.375,
      "v": 87
    },
    {
      "midi": 44,
      "hit": false,
      "t": 218875,
      "d": 109.375,
      "v": 79
    },
    {
      "midi": 60,
      "hit": false,
      "t": 219000,
      "d": 109.375,
      "v": 78
    },
    {
      "midi": 63,
      "hit": false,
      "t": 219000,
      "d": 109.375,
      "v": 87
    },
    {
      "midi": 67,
      "hit": false,
      "t": 219000,
      "d": 109.375,
      "v": 80
    },
    {
      "midi": 44,
      "hit": false,
      "t": 219250,
      "d": 109.375,
      "v": 79
    },
    {
      "midi": 60,
      "hit": false,
      "t": 219375,
      "d": 109.375,
      "v": 87
    },
    {
      "midi": 63,
      "hit": false,
      "t": 219375,
      "d": 109.375,
      "v": 85
    },
    {
      "midi": 67,
      "hit": false,
      "t": 219375,
      "d": 109.375,
      "v": 83
    },
    {
      "midi": 44,
      "hit": false,
      "t": 219625,
      "d": 109.375,
      "v": 86
    },
    {
      "midi": 60,
      "hit": false,
      "t": 219750,
      "d": 109.375,
      "v": 81
    },
    {
      "midi": 63,
      "hit": false,
      "t": 219750,
      "d": 109.375,
      "v": 80
    },
    {
      "midi": 67,
      "hit": false,
      "t": 219750,
      "d": 109.375,
      "v": 87
    },
    {
      "midi": 46,
      "hit": false,
      "t": 220000,
      "d": 234.375,
      "v": 83
    },
    {
      "midi": 62,
      "hit": false,
      "t": 220250,
      "d": 109.375,
      "v": 81
    },
    {
      "midi": 65,
      "hit": false,
      "t": 220250,
      "d": 109.375,
      "v": 83
    },
    {
      "midi": 70,
      "hit": false,
      "t": 220250,
      "d": 109.375,
      "v": 79
    },
    {
      "midi": 46,
      "hit": false,
      "t": 220500,
      "d": 109.375,
      "v": 86
    },
    {
      "midi": 62,
      "hit": false,
      "t": 220625,
      "d": 109.375,
      "v": 78
    },
    {
      "midi": 65,
      "hit": false,
      "t": 220625,
      "d": 109.375,
      "v": 86
    },
    {
      "midi": 70,
      "hit": false,
      "t": 220625,
      "d": 109.375,
      "v": 83
    },
    {
      "midi": 46,
      "hit": false,
      "t": 220875,
      "d": 109.375,
      "v": 80
    },
    {
      "midi": 58,
      "hit": false,
      "t": 221000,
      "d": 484.375,
      "v": 80
    },
    {
      "midi": 62,
      "hit": false,
      "t": 221000,
      "d": 484.375,
      "v": 81
    },
    {
      "midi": 65,
      "hit": false,
      "t": 221000,
      "d": 484.375,
      "v": 79
    },
    {
      "midi": 58,
      "hit": false,
      "t": 221500,
      "d": 234.375,
      "v": 86
    },
    {
      "midi": 62,
      "hit": false,
      "t": 221500,
      "d": 234.375,
      "v": 83
    },
    {
      "midi": 67,
      "hit": false,
      "t": 221500,
      "d": 234.375,
      "v": 79
    },
    {
      "midi": 58,
      "hit": false,
      "t": 221750,
      "d": 109.375,
      "v": 78
    },
    {
      "midi": 62,
      "hit": false,
      "t": 221750,
      "d": 109.375,
      "v": 87
    },
    {
      "midi": 68,
      "hit": false,
      "t": 221750,
      "d": 109.375,
      "v": 87
    },
    {
      "midi": 48,
      "hit": false,
      "t": 222000,
      "d": 234.375,
      "v": 80
    },
    {
      "midi": 63,
      "hit": false,
      "t": 222250,
      "d": 109.375,
      "v": 79
    },
    {
      "midi": 67,
      "hit": false,
      "t": 222250,
      "d": 109.375,
      "v": 79
    },
    {
      "midi": 70,
      "hit": false,
      "t": 222250,
      "d": 109.375,
      "v": 86
    },
    {
      "midi": 48,
      "hit": false,
      "t": 222500,
      "d": 109.375,
      "v": 85
    },
    {
      "midi": 63,
      "hit": false,
      "t": 222625,
      "d": 109.375,
      "v": 78
    },
    {
      "midi": 67,
      "hit": false,
      "t": 222625,
      "d": 109.375,
      "v": 83
    },
    {
      "midi": 70,
      "hit": false,
      "t": 222625,
      "d": 109.375,
      "v": 84
    },
    {
      "midi": 48,
      "hit": false,
      "t": 222875,
      "d": 109.375,
      "v": 78
    },
    {
      "midi": 63,
      "hit": false,
      "t": 223000,
      "d": 109.375,
      "v": 87
    },
    {
      "midi": 67,
      "hit": false,
      "t": 223000,
      "d": 109.375,
      "v": 84
    },
    {
      "midi": 70,
      "hit": false,
      "t": 223000,
      "d": 109.375,
      "v": 86
    },
    {
      "midi": 48,
      "hit": false,
      "t": 223250,
      "d": 109.375,
      "v": 82
    },
    {
      "midi": 63,
      "hit": false,
      "t": 223375,
      "d": 109.375,
      "v": 85
    },
    {
      "midi": 67,
      "hit": false,
      "t": 223375,
      "d": 109.375,
      "v": 80
    },
    {
      "midi": 70,
      "hit": false,
      "t": 223375,
      "d": 109.375,
      "v": 80
    },
    {
      "midi": 48,
      "hit": false,
      "t": 223625,
      "d": 109.375,
      "v": 85
    },
    {
      "midi": 63,
      "hit": false,
      "t": 223750,
      "d": 109.375,
      "v": 82
    },
    {
      "midi": 67,
      "hit": false,
      "t": 223750,
      "d": 109.375,
      "v": 79
    },
    {
      "midi": 70,
      "hit": false,
      "t": 223750,
      "d": 109.375,
      "v": 85
    },
    {
      "midi": 46,
      "hit": false,
      "t": 224000,
      "d": 234.375,
      "v": 87
    },
    {
      "midi": 58,
      "hit": false,
      "t": 224250,
      "d": 109.375,
      "v": 85
    },
    {
      "midi": 62,
      "hit": false,
      "t": 224250,
      "d": 109.375,
      "v": 87
    },
    {
      "midi": 65,
      "hit": false,
      "t": 224250,
      "d": 109.375,
      "v": 80
    },
    {
      "midi": 46,
      "hit": false,
      "t": 224500,
      "d": 109.375,
      "v": 86
    },
    {
      "midi": 58,
      "hit": false,
      "t": 224625,
      "d": 109.375,
      "v": 79
    },
    {
      "midi": 62,
      "hit": false,
      "t": 224625,
      "d": 109.375,
      "v": 81
    },
    {
      "midi": 65,
      "hit": false,
      "t": 224625,
      "d": 109.375,
      "v": 84
    },
    {
      "midi": 46,
      "hit": false,
      "t": 224875,
      "d": 109.375,
      "v": 82
    },
    {
      "midi": 58,
      "hit": false,
      "t": 225000,
      "d": 109.375,
      "v": 79
    },
    {
      "midi": 62,
      "hit": false,
      "t": 225000,
      "d": 109.375,
      "v": 84
    },
    {
      "midi": 65,
      "hit": false,
      "t": 225000,
      "d": 109.375,
      "v": 80
    },
    {
      "midi": 46,
      "hit": false,
      "t": 225250,
      "d": 109.375,
      "v": 81
    },
    {
      "midi": 58,
      "hit": false,
      "t": 225375,
      "d": 109.375,
      "v": 84
    },
    {
      "midi": 62,
      "hit": false,
      "t": 225375,
      "d": 109.375,
      "v": 78
    },
    {
      "midi": 65,
      "hit": false,
      "t": 225375,
      "d": 109.375,
      "v": 83
    },
    {
      "midi": 46,
      "hit": false,
      "t": 225625,
      "d": 109.375,
      "v": 81
    },
    {
      "midi": 58,
      "hit": false,
      "t": 225750,
      "d": 109.375,
      "v": 84
    },
    {
      "midi": 62,
      "hit": false,
      "t": 225750,
      "d": 109.375,
      "v": 87
    },
    {
      "midi": 65,
      "hit": false,
      "t": 225750,
      "d": 109.375,
      "v": 85
    },
    {
      "midi": 44,
      "hit": false,
      "t": 226000,
      "d": 234.375,
      "v": 87
    },
    {
      "midi": 60,
      "hit": false,
      "t": 226250,
      "d": 109.375,
      "v": 82
    },
    {
      "midi": 63,
      "hit": false,
      "t": 226250,
      "d": 109.375,
      "v": 85
    },
    {
      "midi": 67,
      "hit": false,
      "t": 226250,
      "d": 109.375,
      "v": 82
    },
    {
      "midi": 44,
      "hit": false,
      "t": 226500,
      "d": 109.375,
      "v": 82
    },
    {
      "midi": 60,
      "hit": false,
      "t": 226625,
      "d": 109.375,
      "v": 83
    },
    {
      "midi": 63,
      "hit": false,
      "t": 226625,
      "d": 109.375,
      "v": 82
    },
    {
      "midi": 67,
      "hit": false,
      "t": 226625,
      "d": 109.375,
      "v": 80
    },
    {
      "midi": 44,
      "hit": false,
      "t": 226875,
      "d": 109.375,
      "v": 82
    },
    {
      "midi": 60,
      "hit": false,
      "t": 227000,
      "d": 109.375,
      "v": 87
    },
    {
      "midi": 63,
      "hit": false,
      "t": 227000,
      "d": 109.375,
      "v": 82
    },
    {
      "midi": 67,
      "hit": false,
      "t": 227000,
      "d": 109.375,
      "v": 84
    },
    {
      "midi": 44,
      "hit": false,
      "t": 227250,
      "d": 109.375,
      "v": 84
    },
    {
      "midi": 60,
      "hit": false,
      "t": 227375,
      "d": 109.375,
      "v": 80
    },
    {
      "midi": 63,
      "hit": false,
      "t": 227375,
      "d": 109.375,
      "v": 79
    },
    {
      "midi": 67,
      "hit": false,
      "t": 227375,
      "d": 109.375,
      "v": 80
    },
    {
      "midi": 44,
      "hit": false,
      "t": 227625,
      "d": 109.375,
      "v": 82
    },
    {
      "midi": 60,
      "hit": false,
      "t": 227750,
      "d": 109.375,
      "v": 84
    },
    {
      "midi": 63,
      "hit": false,
      "t": 227750,
      "d": 109.375,
      "v": 87
    },
    {
      "midi": 67,
      "hit": false,
      "t": 227750,
      "d": 109.375,
      "v": 85
    },
    {
      "midi": 46,
      "hit": false,
      "t": 228000,
      "d": 234.375,
      "v": 80
    },
    {
      "midi": 62,
      "hit": false,
      "t": 228250,
      "d": 109.375,
      "v": 83
    },
    {
      "midi": 65,
      "hit": false,
      "t": 228250,
      "d": 109.375,
      "v": 81
    },
    {
      "midi": 70,
      "hit": false,
      "t": 228250,
      "d": 109.375,
      "v": 85
    },
    {
      "midi": 46,
      "hit": false,
      "t": 228500,
      "d": 109.375,
      "v": 87
    },
    {
      "midi": 62,
      "hit": false,
      "t": 228625,
      "d": 109.375,
      "v": 86
    },
    {
      "midi": 65,
      "hit": false,
      "t": 228625,
      "d": 109.375,
      "v": 82
    },
    {
      "midi": 70,
      "hit": false,
      "t": 228625,
      "d": 109.375,
      "v": 83
    },
    {
      "midi": 46,
      "hit": false,
      "t": 228875,
      "d": 109.375,
      "v": 82
    },
    {
      "midi": 63,
      "hit": false,
      "t": 229000,
      "d": 109.375,
      "v": 79
    },
    {
      "midi": 65,
      "hit": false,
      "t": 229000,
      "d": 109.375,
      "v": 82
    },
    {
      "midi": 70,
      "hit": false,
      "t": 229000,
      "d": 109.375,
      "v": 87
    },
    {
      "midi": 63,
      "hit": false,
      "t": 229250,
      "d": 109.375,
      "v": 81
    },
    {
      "midi": 65,
      "hit": false,
      "t": 229250,
      "d": 109.375,
      "v": 86
    },
    {
      "midi": 70,
      "hit": false,
      "t": 229250,
      "d": 109.375,
      "v": 83
    },
    {
      "midi": 62,
      "hit": false,
      "t": 229500,
      "d": 109.375,
      "v": 86
    },
    {
      "midi": 65,
      "hit": false,
      "t": 229500,
      "d": 109.375,
      "v": 78
    },
    {
      "midi": 70,
      "hit": false,
      "t": 229500,
      "d": 109.375,
      "v": 80
    },
    {
      "midi": 62,
      "hit": false,
      "t": 229750,
      "d": 109.375,
      "v": 84
    },
    {
      "midi": 65,
      "hit": false,
      "t": 229750,
      "d": 109.375,
      "v": 86
    },
    {
      "midi": 70,
      "hit": false,
      "t": 229750,
      "d": 109.375,
      "v": 86
    },
    {
      "midi": 48,
      "hit": false,
      "t": 230000,
      "d": 234.375,
      "v": 87
    },
    {
      "midi": 63,
      "hit": false,
      "t": 230250,
      "d": 109.375,
      "v": 86
    },
    {
      "midi": 67,
      "hit": false,
      "t": 230250,
      "d": 109.375,
      "v": 81
    },
    {
      "midi": 70,
      "hit": false,
      "t": 230250,
      "d": 109.375,
      "v": 79
    },
    {
      "midi": 48,
      "hit": false,
      "t": 230500,
      "d": 109.375,
      "v": 79
    },
    {
      "midi": 63,
      "hit": false,
      "t": 230625,
      "d": 109.375,
      "v": 81
    },
    {
      "midi": 67,
      "hit": false,
      "t": 230625,
      "d": 109.375,
      "v": 85
    },
    {
      "midi": 70,
      "hit": false,
      "t": 230625,
      "d": 109.375,
      "v": 86
    },
    {
      "midi": 48,
      "hit": false,
      "t": 230875,
      "d": 109.375,
      "v": 80
    },
    {
      "midi": 63,
      "hit": false,
      "t": 231000,
      "d": 109.375,
      "v": 87
    },
    {
      "midi": 67,
      "hit": false,
      "t": 231000,
      "d": 109.375,
      "v": 83
    },
    {
      "midi": 70,
      "hit": false,
      "t": 231000,
      "d": 109.375,
      "v": 87
    },
    {
      "midi": 48,
      "hit": false,
      "t": 231250,
      "d": 109.375,
      "v": 87
    },
    {
      "midi": 63,
      "hit": false,
      "t": 231375,
      "d": 109.375,
      "v": 79
    },
    {
      "midi": 67,
      "hit": false,
      "t": 231375,
      "d": 109.375,
      "v": 84
    },
    {
      "midi": 70,
      "hit": false,
      "t": 231375,
      "d": 109.375,
      "v": 80
    },
    {
      "midi": 48,
      "hit": false,
      "t": 231625,
      "d": 109.375,
      "v": 83
    },
    {
      "midi": 63,
      "hit": false,
      "t": 231750,
      "d": 109.375,
      "v": 85
    },
    {
      "midi": 67,
      "hit": false,
      "t": 231750,
      "d": 109.375,
      "v": 85
    },
    {
      "midi": 70,
      "hit": false,
      "t": 231750,
      "d": 109.375,
      "v": 81
    },
    {
      "midi": 46,
      "hit": false,
      "t": 232000,
      "d": 234.375,
      "v": 86
    },
    {
      "midi": 58,
      "hit": false,
      "t": 232250,
      "d": 109.375,
      "v": 84
    },
    {
      "midi": 62,
      "hit": false,
      "t": 232250,
      "d": 109.375,
      "v": 85
    },
    {
      "midi": 65,
      "hit": false,
      "t": 232250,
      "d": 109.375,
      "v": 78
    },
    {
      "midi": 46,
      "hit": false,
      "t": 232500,
      "d": 109.375,
      "v": 86
    },
    {
      "midi": 58,
      "hit": false,
      "t": 232625,
      "d": 109.375,
      "v": 87
    },
    {
      "midi": 62,
      "hit": false,
      "t": 232625,
      "d": 109.375,
      "v": 80
    },
    {
      "midi": 65,
      "hit": false,
      "t": 232625,
      "d": 109.375,
      "v": 86
    },
    {
      "midi": 46,
      "hit": false,
      "t": 232875,
      "d": 109.375,
      "v": 85
    },
    {
      "midi": 58,
      "hit": false,
      "t": 233000,
      "d": 109.375,
      "v": 83
    },
    {
      "midi": 62,
      "hit": false,
      "t": 233000,
      "d": 109.375,
      "v": 83
    },
    {
      "midi": 65,
      "hit": false,
      "t": 233000,
      "d": 109.375,
      "v": 84
    },
    {
      "midi": 46,
      "hit": false,
      "t": 233250,
      "d": 109.375,
      "v": 85
    },
    {
      "midi": 58,
      "hit": false,
      "t": 233375,
      "d": 109.375,
      "v": 81
    },
    {
      "midi": 62,
      "hit": false,
      "t": 233375,
      "d": 109.375,
      "v": 79
    },
    {
      "midi": 65,
      "hit": false,
      "t": 233375,
      "d": 109.375,
      "v": 78
    },
    {
      "midi": 46,
      "hit": false,
      "t": 233625,
      "d": 109.375,
      "v": 80
    },
    {
      "midi": 58,
      "hit": false,
      "t": 233750,
      "d": 109.375,
      "v": 83
    },
    {
      "midi": 62,
      "hit": false,
      "t": 233750,
      "d": 109.375,
      "v": 85
    },
    {
      "midi": 65,
      "hit": false,
      "t": 233750,
      "d": 109.375,
      "v": 79
    },
    {
      "midi": 44,
      "hit": false,
      "t": 234000,
      "d": 234.375,
      "v": 84
    },
    {
      "midi": 60,
      "hit": false,
      "t": 234250,
      "d": 109.375,
      "v": 80
    },
    {
      "midi": 63,
      "hit": false,
      "t": 234250,
      "d": 109.375,
      "v": 87
    },
    {
      "midi": 67,
      "hit": false,
      "t": 234250,
      "d": 109.375,
      "v": 82
    },
    {
      "midi": 44,
      "hit": false,
      "t": 234500,
      "d": 109.375,
      "v": 80
    },
    {
      "midi": 60,
      "hit": false,
      "t": 234625,
      "d": 109.375,
      "v": 78
    },
    {
      "midi": 63,
      "hit": false,
      "t": 234625,
      "d": 109.375,
      "v": 79
    },
    {
      "midi": 67,
      "hit": false,
      "t": 234625,
      "d": 109.375,
      "v": 80
    },
    {
      "midi": 44,
      "hit": false,
      "t": 234875,
      "d": 109.375,
      "v": 85
    },
    {
      "midi": 60,
      "hit": false,
      "t": 235000,
      "d": 109.375,
      "v": 86
    },
    {
      "midi": 63,
      "hit": false,
      "t": 235000,
      "d": 109.375,
      "v": 79
    },
    {
      "midi": 67,
      "hit": false,
      "t": 235000,
      "d": 109.375,
      "v": 80
    },
    {
      "midi": 44,
      "hit": false,
      "t": 235250,
      "d": 109.375,
      "v": 80
    },
    {
      "midi": 60,
      "hit": false,
      "t": 235375,
      "d": 109.375,
      "v": 80
    },
    {
      "midi": 63,
      "hit": false,
      "t": 235375,
      "d": 109.375,
      "v": 87
    },
    {
      "midi": 67,
      "hit": false,
      "t": 235375,
      "d": 109.375,
      "v": 86
    },
    {
      "midi": 44,
      "hit": false,
      "t": 235625,
      "d": 109.375,
      "v": 80
    },
    {
      "midi": 60,
      "hit": false,
      "t": 235750,
      "d": 109.375,
      "v": 79
    },
    {
      "midi": 63,
      "hit": false,
      "t": 235750,
      "d": 109.375,
      "v": 86
    },
    {
      "midi": 67,
      "hit": false,
      "t": 235750,
      "d": 109.375,
      "v": 86
    },
    {
      "midi": 46,
      "hit": false,
      "t": 236000,
      "d": 234.375,
      "v": 83
    },
    {
      "midi": 62,
      "hit": false,
      "t": 236250,
      "d": 109.375,
      "v": 82
    },
    {
      "midi": 65,
      "hit": false,
      "t": 236250,
      "d": 109.375,
      "v": 83
    },
    {
      "midi": 70,
      "hit": false,
      "t": 236250,
      "d": 109.375,
      "v": 80
    },
    {
      "midi": 46,
      "hit": false,
      "t": 236500,
      "d": 109.375,
      "v": 84
    },
    {
      "midi": 62,
      "hit": false,
      "t": 236625,
      "d": 109.375,
      "v": 79
    },
    {
      "midi": 65,
      "hit": false,
      "t": 236625,
      "d": 109.375,
      "v": 82
    },
    {
      "midi": 70,
      "hit": false,
      "t": 236625,
      "d": 109.375,
      "v": 83
    },
    {
      "midi": 46,
      "hit": false,
      "t": 236875,
      "d": 109.375,
      "v": 84
    },
    {
      "midi": 58,
      "hit": false,
      "t": 237000,
      "d": 484.375,
      "v": 82
    },
    {
      "midi": 62,
      "hit": false,
      "t": 237000,
      "d": 484.375,
      "v": 78
    },
    {
      "midi": 65,
      "hit": false,
      "t": 237000,
      "d": 484.375,
      "v": 78
    },
    {
      "midi": 58,
      "hit": false,
      "t": 237500,
      "d": 234.375,
      "v": 81
    },
    {
      "midi": 62,
      "hit": false,
      "t": 237500,
      "d": 234.375,
      "v": 86
    },
    {
      "midi": 67,
      "hit": false,
      "t": 237500,
      "d": 234.375,
      "v": 86
    },
    {
      "midi": 58,
      "hit": false,
      "t": 237750,
      "d": 109.375,
      "v": 85
    },
    {
      "midi": 62,
      "hit": false,
      "t": 237750,
      "d": 109.375,
      "v": 86
    },
    {
      "midi": 68,
      "hit": false,
      "t": 237750,
      "d": 109.375,
      "v": 80
    },
    {
      "midi": 48,
      "hit": false,
      "t": 238000,
      "d": 234.375,
      "v": 85
    },
    {
      "midi": 63,
      "hit": false,
      "t": 238250,
      "d": 109.375,
      "v": 78
    },
    {
      "midi": 67,
      "hit": false,
      "t": 238250,
      "d": 109.375,
      "v": 81
    },
    {
      "midi": 70,
      "hit": false,
      "t": 238250,
      "d": 109.375,
      "v": 79
    },
    {
      "midi": 48,
      "hit": false,
      "t": 238500,
      "d": 109.375,
      "v": 84
    },
    {
      "midi": 63,
      "hit": false,
      "t": 238625,
      "d": 109.375,
      "v": 82
    },
    {
      "midi": 67,
      "hit": false,
      "t": 238625,
      "d": 109.375,
      "v": 79
    },
    {
      "midi": 70,
      "hit": false,
      "t": 238625,
      "d": 109.375,
      "v": 86
    },
    {
      "midi": 48,
      "hit": false,
      "t": 238875,
      "d": 109.375,
      "v": 85
    },
    {
      "midi": 63,
      "hit": false,
      "t": 239000,
      "d": 109.375,
      "v": 80
    },
    {
      "midi": 67,
      "hit": false,
      "t": 239000,
      "d": 109.375,
      "v": 83
    },
    {
      "midi": 70,
      "hit": false,
      "t": 239000,
      "d": 109.375,
      "v": 85
    },
    {
      "midi": 48,
      "hit": false,
      "t": 239250,
      "d": 109.375,
      "v": 79
    },
    {
      "midi": 63,
      "hit": false,
      "t": 239375,
      "d": 109.375,
      "v": 81
    },
    {
      "midi": 67,
      "hit": false,
      "t": 239375,
      "d": 109.375,
      "v": 86
    },
    {
      "midi": 70,
      "hit": false,
      "t": 239375,
      "d": 109.375,
      "v": 83
    },
    {
      "midi": 48,
      "hit": false,
      "t": 239625,
      "d": 109.375,
      "v": 85
    },
    {
      "midi": 63,
      "hit": false,
      "t": 239750,
      "d": 109.375,
      "v": 81
    },
    {
      "midi": 67,
      "hit": false,
      "t": 239750,
      "d": 109.375,
      "v": 84
    },
    {
      "midi": 70,
      "hit": false,
      "t": 239750,
      "d": 109.375,
      "v": 85
    },
    {
      "midi": 46,
      "hit": false,
      "t": 240000,
      "d": 234.375,
      "v": 79
    },
    {
      "midi": 58,
      "hit": false,
      "t": 240250,
      "d": 109.375,
      "v": 86
    },
    {
      "midi": 62,
      "hit": false,
      "t": 240250,
      "d": 109.375,
      "v": 86
    },
    {
      "midi": 65,
      "hit": false,
      "t": 240250,
      "d": 109.375,
      "v": 86
    },
    {
      "midi": 46,
      "hit": false,
      "t": 240500,
      "d": 109.375,
      "v": 86
    },
    {
      "midi": 58,
      "hit": false,
      "t": 240625,
      "d": 109.375,
      "v": 80
    },
    {
      "midi": 62,
      "hit": false,
      "t": 240625,
      "d": 109.375,
      "v": 80
    },
    {
      "midi": 65,
      "hit": false,
      "t": 240625,
      "d": 109.375,
      "v": 85
    },
    {
      "midi": 46,
      "hit": false,
      "t": 240875,
      "d": 109.375,
      "v": 86
    },
    {
      "midi": 58,
      "hit": false,
      "t": 241000,
      "d": 109.375,
      "v": 79
    },
    {
      "midi": 62,
      "hit": false,
      "t": 241000,
      "d": 109.375,
      "v": 80
    },
    {
      "midi": 65,
      "hit": false,
      "t": 241000,
      "d": 109.375,
      "v": 82
    },
    {
      "midi": 46,
      "hit": false,
      "t": 241250,
      "d": 109.375,
      "v": 86
    },
    {
      "midi": 58,
      "hit": false,
      "t": 241375,
      "d": 109.375,
      "v": 82
    },
    {
      "midi": 62,
      "hit": false,
      "t": 241375,
      "d": 109.375,
      "v": 85
    },
    {
      "midi": 65,
      "hit": false,
      "t": 241375,
      "d": 109.375,
      "v": 85
    },
    {
      "midi": 46,
      "hit": false,
      "t": 241625,
      "d": 109.375,
      "v": 86
    },
    {
      "midi": 58,
      "hit": false,
      "t": 241750,
      "d": 109.375,
      "v": 85
    },
    {
      "midi": 62,
      "hit": false,
      "t": 241750,
      "d": 109.375,
      "v": 85
    },
    {
      "midi": 65,
      "hit": false,
      "t": 241750,
      "d": 109.375,
      "v": 84
    },
    {
      "midi": 44,
      "hit": false,
      "t": 242000,
      "d": 234.375,
      "v": 83
    },
    {
      "midi": 60,
      "hit": false,
      "t": 242250,
      "d": 109.375,
      "v": 84
    },
    {
      "midi": 63,
      "hit": false,
      "t": 242250,
      "d": 109.375,
      "v": 82
    },
    {
      "midi": 67,
      "hit": false,
      "t": 242250,
      "d": 109.375,
      "v": 81
    },
    {
      "midi": 44,
      "hit": false,
      "t": 242500,
      "d": 109.375,
      "v": 83
    },
    {
      "midi": 60,
      "hit": false,
      "t": 242625,
      "d": 109.375,
      "v": 79
    },
    {
      "midi": 63,
      "hit": false,
      "t": 242625,
      "d": 109.375,
      "v": 84
    },
    {
      "midi": 67,
      "hit": false,
      "t": 242625,
      "d": 109.375,
      "v": 80
    },
    {
      "midi": 44,
      "hit": false,
      "t": 242875,
      "d": 109.375,
      "v": 82
    },
    {
      "midi": 60,
      "hit": false,
      "t": 243000,
      "d": 109.375,
      "v": 83
    },
    {
      "midi": 63,
      "hit": false,
      "t": 243000,
      "d": 109.375,
      "v": 82
    },
    {
      "midi": 67,
      "hit": false,
      "t": 243000,
      "d": 109.375,
      "v": 80
    },
    {
      "midi": 44,
      "hit": false,
      "t": 243250,
      "d": 109.375,
      "v": 78
    },
    {
      "midi": 60,
      "hit": false,
      "t": 243375,
      "d": 109.375,
      "v": 85
    },
    {
      "midi": 63,
      "hit": false,
      "t": 243375,
      "d": 109.375,
      "v": 78
    },
    {
      "midi": 67,
      "hit": false,
      "t": 243375,
      "d": 109.375,
      "v": 79
    },
    {
      "midi": 44,
      "hit": false,
      "t": 243625,
      "d": 109.375,
      "v": 80
    },
    {
      "midi": 60,
      "hit": false,
      "t": 243750,
      "d": 109.375,
      "v": 78
    },
    {
      "midi": 63,
      "hit": false,
      "t": 243750,
      "d": 109.375,
      "v": 82
    },
    {
      "midi": 67,
      "hit": false,
      "t": 243750,
      "d": 109.375,
      "v": 79
    },
    {
      "midi": 46,
      "hit": false,
      "t": 244000,
      "d": 234.375,
      "v": 79
    },
    {
      "midi": 62,
      "hit": false,
      "t": 244250,
      "d": 109.375,
      "v": 84
    },
    {
      "midi": 65,
      "hit": false,
      "t": 244250,
      "d": 109.375,
      "v": 85
    },
    {
      "midi": 70,
      "hit": false,
      "t": 244250,
      "d": 109.375,
      "v": 87
    },
    {
      "midi": 46,
      "hit": false,
      "t": 244500,
      "d": 109.375,
      "v": 82
    },
    {
      "midi": 62,
      "hit": false,
      "t": 244625,
      "d": 109.375,
      "v": 81
    },
    {
      "midi": 65,
      "hit": false,
      "t": 244625,
      "d": 109.375,
      "v": 84
    },
    {
      "midi": 70,
      "hit": false,
      "t": 244625,
      "d": 109.375,
      "v": 85
    },
    {
      "midi": 46,
      "hit": false,
      "t": 244875,
      "d": 109.375,
      "v": 78
    },
    {
      "midi": 63,
      "hit": false,
      "t": 245000,
      "d": 109.375,
      "v": 80
    },
    {
      "midi": 65,
      "hit": false,
      "t": 245000,
      "d": 109.375,
      "v": 82
    },
    {
      "midi": 70,
      "hit": false,
      "t": 245000,
      "d": 109.375,
      "v": 84
    },
    {
      "midi": 63,
      "hit": false,
      "t": 245250,
      "d": 109.375,
      "v": 83
    },
    {
      "midi": 65,
      "hit": false,
      "t": 245250,
      "d": 109.375,
      "v": 81
    },
    {
      "midi": 70,
      "hit": false,
      "t": 245250,
      "d": 109.375,
      "v": 87
    },
    {
      "midi": 62,
      "hit": false,
      "t": 245500,
      "d": 109.375,
      "v": 81
    },
    {
      "midi": 65,
      "hit": false,
      "t": 245500,
      "d": 109.375,
      "v": 87
    },
    {
      "midi": 70,
      "hit": false,
      "t": 245500,
      "d": 109.375,
      "v": 87
    },
    {
      "midi": 62,
      "hit": false,
      "t": 245750,
      "d": 109.375,
      "v": 84
    },
    {
      "midi": 65,
      "hit": false,
      "t": 245750,
      "d": 109.375,
      "v": 83
    },
    {
      "midi": 70,
      "hit": false,
      "t": 245750,
      "d": 109.375,
      "v": 84
    },
    {
      "midi": 48,
      "hit": false,
      "t": 246000,
      "d": 234.375,
      "v": 82
    },
    {
      "midi": 63,
      "hit": false,
      "t": 246250,
      "d": 109.375,
      "v": 84
    },
    {
      "midi": 67,
      "hit": false,
      "t": 246250,
      "d": 109.375,
      "v": 80
    },
    {
      "midi": 70,
      "hit": false,
      "t": 246250,
      "d": 109.375,
      "v": 78
    },
    {
      "midi": 48,
      "hit": false,
      "t": 246500,
      "d": 109.375,
      "v": 85
    },
    {
      "midi": 63,
      "hit": false,
      "t": 246625,
      "d": 109.375,
      "v": 81
    },
    {
      "midi": 67,
      "hit": false,
      "t": 246625,
      "d": 109.375,
      "v": 86
    },
    {
      "midi": 70,
      "hit": false,
      "t": 246625,
      "d": 109.375,
      "v": 78
    },
    {
      "midi": 48,
      "hit": false,
      "t": 246875,
      "d": 109.375,
      "v": 81
    },
    {
      "midi": 63,
      "hit": false,
      "t": 247000,
      "d": 109.375,
      "v": 83
    },
    {
      "midi": 67,
      "hit": false,
      "t": 247000,
      "d": 109.375,
      "v": 85
    },
    {
      "midi": 70,
      "hit": false,
      "t": 247000,
      "d": 109.375,
      "v": 82
    },
    {
      "midi": 48,
      "hit": false,
      "t": 247250,
      "d": 109.375,
      "v": 81
    },
    {
      "midi": 63,
      "hit": false,
      "t": 247375,
      "d": 109.375,
      "v": 84
    },
    {
      "midi": 67,
      "hit": false,
      "t": 247375,
      "d": 109.375,
      "v": 80
    },
    {
      "midi": 70,
      "hit": false,
      "t": 247375,
      "d": 109.375,
      "v": 82
    },
    {
      "midi": 48,
      "hit": false,
      "t": 247625,
      "d": 109.375,
      "v": 82
    },
    {
      "midi": 63,
      "hit": false,
      "t": 247750,
      "d": 109.375,
      "v": 85
    },
    {
      "midi": 67,
      "hit": false,
      "t": 247750,
      "d": 109.375,
      "v": 86
    },
    {
      "midi": 70,
      "hit": false,
      "t": 247750,
      "d": 109.375,
      "v": 82
    },
    {
      "midi": 46,
      "hit": false,
      "t": 248000,
      "d": 234.375,
      "v": 84
    },
    {
      "midi": 58,
      "hit": false,
      "t": 248250,
      "d": 109.375,
      "v": 85
    },
    {
      "midi": 62,
      "hit": false,
      "t": 248250,
      "d": 109.375,
      "v": 80
    },
    {
      "midi": 65,
      "hit": false,
      "t": 248250,
      "d": 109.375,
      "v": 84
    },
    {
      "midi": 46,
      "hit": false,
      "t": 248500,
      "d": 109.375,
      "v": 78
    },
    {
      "midi": 58,
      "hit": false,
      "t": 248625,
      "d": 109.375,
      "v": 87
    },
    {
      "midi": 62,
      "hit": false,
      "t": 248625,
      "d": 109.375,
      "v": 80
    },
    {
      "midi": 65,
      "hit": false,
      "t": 248625,
      "d": 109.375,
      "v": 78
    },
    {
      "midi": 46,
      "hit": false,
      "t": 248875,
      "d": 109.375,
      "v": 80
    },
    {
      "midi": 58,
      "hit": false,
      "t": 249000,
      "d": 109.375,
      "v": 83
    },
    {
      "midi": 62,
      "hit": false,
      "t": 249000,
      "d": 109.375,
      "v": 85
    },
    {
      "midi": 65,
      "hit": false,
      "t": 249000,
      "d": 109.375,
      "v": 83
    },
    {
      "midi": 46,
      "hit": false,
      "t": 249250,
      "d": 109.375,
      "v": 82
    },
    {
      "midi": 58,
      "hit": false,
      "t": 249375,
      "d": 109.375,
      "v": 87
    },
    {
      "midi": 62,
      "hit": false,
      "t": 249375,
      "d": 109.375,
      "v": 82
    },
    {
      "midi": 65,
      "hit": false,
      "t": 249375,
      "d": 109.375,
      "v": 84
    },
    {
      "midi": 46,
      "hit": false,
      "t": 249625,
      "d": 109.375,
      "v": 81
    },
    {
      "midi": 58,
      "hit": false,
      "t": 249750,
      "d": 109.375,
      "v": 79
    },
    {
      "midi": 62,
      "hit": false,
      "t": 249750,
      "d": 109.375,
      "v": 82
    },
    {
      "midi": 65,
      "hit": false,
      "t": 249750,
      "d": 109.375,
      "v": 81
    },
    {
      "midi": 44,
      "hit": false,
      "t": 250000,
      "d": 234.375,
      "v": 78
    },
    {
      "midi": 60,
      "hit": false,
      "t": 250250,
      "d": 109.375,
      "v": 84
    },
    {
      "midi": 63,
      "hit": false,
      "t": 250250,
      "d": 109.375,
      "v": 78
    },
    {
      "midi": 67,
      "hit": false,
      "t": 250250,
      "d": 109.375,
      "v": 87
    },
    {
      "midi": 44,
      "hit": false,
      "t": 250500,
      "d": 109.375,
      "v": 86
    },
    {
      "midi": 60,
      "hit": false,
      "t": 250625,
      "d": 109.375,
      "v": 80
    },
    {
      "midi": 63,
      "hit": false,
      "t": 250625,
      "d": 109.375,
      "v": 87
    },
    {
      "midi": 67,
      "hit": false,
      "t": 250625,
      "d": 109.375,
      "v": 82
    },
    {
      "midi": 44,
      "hit": false,
      "t": 250875,
      "d": 109.375,
      "v": 78
    },
    {
      "midi": 60,
      "hit": false,
      "t": 251000,
      "d": 109.375,
      "v": 80
    },
    {
      "midi": 63,
      "hit": false,
      "t": 251000,
      "d": 109.375,
      "v": 83
    },
    {
      "midi": 67,
      "hit": false,
      "t": 251000,
      "d": 109.375,
      "v": 85
    },
    {
      "midi": 44,
      "hit": false,
      "t": 251250,
      "d": 109.375,
      "v": 85
    },
    {
      "midi": 60,
      "hit": false,
      "t": 251375,
      "d": 109.375,
      "v": 83
    },
    {
      "midi": 63,
      "hit": false,
      "t": 251375,
      "d": 109.375,
      "v": 80
    },
    {
      "midi": 67,
      "hit": false,
      "t": 251375,
      "d": 109.375,
      "v": 80
    },
    {
      "midi": 44,
      "hit": false,
      "t": 251625,
      "d": 109.375,
      "v": 86
    },
    {
      "midi": 60,
      "hit": false,
      "t": 251750,
      "d": 109.375,
      "v": 82
    },
    {
      "midi": 63,
      "hit": false,
      "t": 251750,
      "d": 109.375,
      "v": 79
    },
    {
      "midi": 67,
      "hit": false,
      "t": 251750,
      "d": 109.375,
      "v": 78
    },
    {
      "midi": 46,
      "hit": false,
      "t": 252000,
      "d": 234.375,
      "v": 79
    },
    {
      "midi": 62,
      "hit": false,
      "t": 252250,
      "d": 109.375,
      "v": 80
    },
    {
      "midi": 65,
      "hit": false,
      "t": 252250,
      "d": 109.375,
      "v": 78
    },
    {
      "midi": 70,
      "hit": false,
      "t": 252250,
      "d": 109.375,
      "v": 82
    },
    {
      "midi": 46,
      "hit": false,
      "t": 252500,
      "d": 109.375,
      "v": 83
    },
    {
      "midi": 62,
      "hit": false,
      "t": 252625,
      "d": 109.375,
      "v": 83
    },
    {
      "midi": 65,
      "hit": false,
      "t": 252625,
      "d": 109.375,
      "v": 80
    },
    {
      "midi": 70,
      "hit": false,
      "t": 252625,
      "d": 109.375,
      "v": 78
    },
    {
      "midi": 46,
      "hit": false,
      "t": 252875,
      "d": 109.375,
      "v": 82
    },
    {
      "midi": 58,
      "hit": false,
      "t": 253000,
      "d": 484.375,
      "v": 86
    },
    {
      "midi": 62,
      "hit": false,
      "t": 253000,
      "d": 484.375,
      "v": 78
    },
    {
      "midi": 65,
      "hit": false,
      "t": 253000,
      "d": 484.375,
      "v": 83
    },
    {
      "midi": 58,
      "hit": false,
      "t": 253500,
      "d": 234.375,
      "v": 82
    },
    {
      "midi": 62,
      "hit": false,
      "t": 253500,
      "d": 234.375,
      "v": 82
    },
    {
      "midi": 67,
      "hit": false,
      "t": 253500,
      "d": 234.375,
      "v": 82
    },
    {
      "midi": 58,
      "hit": false,
      "t": 253750,
      "d": 109.375,
      "v": 83
    },
    {
      "midi": 62,
      "hit": false,
      "t": 253750,
      "d": 109.375,
      "v": 82
    },
    {
      "midi": 68,
      "hit": false,
      "t": 253750,
      "d": 109.375,
      "v": 85
    },
    {
      "midi": 48,
      "hit": false,
      "t": 254000,
      "d": 5000,
      "v": 80
    },
    {
      "midi": 58,
      "hit": false,
      "t": 254000,
      "d": 5000,
      "v": 82
    },
    {
      "midi": 60,
      "hit": false,
      "t": 254000,
      "d": 5000,
      "v": 78
    },
    {
      "midi": 63,
      "hit": false,
      "t": 254000,
      "d": 5000,
      "v": 87
    }
  ]
}