{
  "jsonPath": "Animes/Pocket Monsters MIDI Collection/team-explorer.json",
  "path": "Animes\\Pocket Monsters MIDI Collection\\Team Explorer.mid",
  "name": "Team Explorer",
  "difficulty": "Advanced",
  "bpm": 167.00020318358054,
  "notes": [
    {
      "midi": 74,
      "hit": false,
      "t": 0,
      "d": 359.281,
      "v": 95
    },
    {
      "midi": 63,
      "hit": false,
      "t": 0,
      "d": 359.281,
      "v": 95
    },
    {
      "midi": 70,
      "hit": false,
      "t": 0,
      "d": 359.281,
      "v": 95
    },
    {
      "midi": 79,
      "hit": false,
      "t": 0,
      "d": 1437.124,
      "v": 127
    },
    {
      "midi": 74,
      "hit": false,
      "t": 359.281,
      "d": 359.281,
      "v": 95
    },
    {
      "midi": 70,
      "hit": false,
      "t": 359.281,
      "d": 359.281,
      "v": 95
    },
    {
      "midi": 63,
      "hit": false,
      "t": 359.281,
      "d": 359.281,
      "v": 95
    },
    {
      "midi": 63,
      "hit": false,
      "t": 898.2025,
      "d": 179.6405000000001,
      "v": 95
    },
    {
      "midi": 70,
      "hit": false,
      "t": 898.2025,
      "d": 179.6405000000001,
      "v": 95
    },
    {
      "midi": 74,
      "hit": false,
      "t": 898.2025,
      "d": 179.6405000000001,
      "v": 95
    },
    {
      "midi": 63,
      "hit": false,
      "t": 1257.4835,
      "d": 359.28099999999995,
      "v": 95
    },
    {
      "midi": 70,
      "hit": false,
      "t": 1257.4835,
      "d": 359.28099999999995,
      "v": 95
    },
    {
      "midi": 74,
      "hit": false,
      "t": 1437.124,
      "d": 179.64049999999997,
      "v": 127
    },
    {
      "midi": 63,
      "hit": false,
      "t": 1616.7645,
      "d": 179.64049999999997,
      "v": 95
    },
    {
      "midi": 70,
      "hit": false,
      "t": 1616.7645,
      "d": 179.64049999999997,
      "v": 95
    },
    {
      "midi": 74,
      "hit": false,
      "t": 1616.7645,
      "d": 179.64049999999997,
      "v": 95
    },
    {
      "midi": 74,
      "hit": false,
      "t": 1976.0455,
      "d": 179.6405000000002,
      "v": 95
    },
    {
      "midi": 63,
      "hit": false,
      "t": 1976.0455,
      "d": 538.9215000000002,
      "v": 95
    },
    {
      "midi": 70,
      "hit": false,
      "t": 1976.0455,
      "d": 538.9215000000002,
      "v": 95
    },
    {
      "midi": 79,
      "hit": false,
      "t": 2155.686,
      "d": 718.5619999999999,
      "v": 127
    },
    {
      "midi": 63,
      "hit": false,
      "t": 2514.967,
      "d": 359.28099999999995,
      "v": 95
    },
    {
      "midi": 70,
      "hit": false,
      "t": 2514.967,
      "d": 359.28099999999995,
      "v": 95
    },
    {
      "midi": 74,
      "hit": false,
      "t": 2514.967,
      "d": 359.28099999999995,
      "v": 95
    },
    {
      "midi": 62,
      "hit": false,
      "t": 2874.248,
      "d": 359.28099999999995,
      "v": 95
    },
    {
      "midi": 70,
      "hit": false,
      "t": 2874.248,
      "d": 359.28099999999995,
      "v": 95
    },
    {
      "midi": 72,
      "hit": false,
      "t": 2874.248,
      "d": 359.28099999999995,
      "v": 95
    },
    {
      "midi": 77,
      "hit": false,
      "t": 2874.248,
      "d": 1437.1240000000003,
      "v": 127
    },
    {
      "midi": 62,
      "hit": false,
      "t": 3233.529,
      "d": 359.28099999999995,
      "v": 95
    },
    {
      "midi": 70,
      "hit": false,
      "t": 3233.529,
      "d": 359.28099999999995,
      "v": 95
    },
    {
      "midi": 72,
      "hit": false,
      "t": 3233.529,
      "d": 359.28099999999995,
      "v": 95
    },
    {
      "midi": 62,
      "hit": false,
      "t": 3772.4505,
      "d": 179.64049999999997,
      "v": 95
    },
    {
      "midi": 70,
      "hit": false,
      "t": 3772.4505,
      "d": 179.64049999999997,
      "v": 95
    },
    {
      "midi": 72,
      "hit": false,
      "t": 3772.4505,
      "d": 179.64049999999997,
      "v": 95
    },
    {
      "midi": 62,
      "hit": false,
      "t": 4131.7315,
      "d": 359.28100000000086,
      "v": 95
    },
    {
      "midi": 72,
      "hit": false,
      "t": 4131.7315,
      "d": 359.28100000000086,
      "v": 95
    },
    {
      "midi": 70,
      "hit": false,
      "t": 4311.372,
      "d": 179.64050000000043,
      "v": 127
    },
    {
      "midi": 62,
      "hit": false,
      "t": 4491.012500000001,
      "d": 179.64050000000043,
      "v": 95
    },
    {
      "midi": 70,
      "hit": false,
      "t": 4491.012500000001,
      "d": 179.64050000000043,
      "v": 95
    },
    {
      "midi": 72,
      "hit": false,
      "t": 4491.012500000001,
      "d": 179.64050000000043,
      "v": 95
    },
    {
      "midi": 70,
      "hit": false,
      "t": 4850.293500000002,
      "d": 179.64050000000043,
      "v": 95
    },
    {
      "midi": 62,
      "hit": false,
      "t": 4850.293500000002,
      "d": 538.9215000000004,
      "v": 95
    },
    {
      "midi": 72,
      "hit": false,
      "t": 5029.934000000002,
      "d": 359.28099999999995,
      "v": 127
    },
    {
      "midi": 62,
      "hit": false,
      "t": 5389.215000000002,
      "d": 359.28099999999995,
      "v": 95
    },
    {
      "midi": 70,
      "hit": false,
      "t": 5389.215000000002,
      "d": 359.28099999999995,
      "v": 95
    },
    {
      "midi": 72,
      "hit": false,
      "t": 5389.215000000002,
      "d": 359.28099999999995,
      "v": 95
    },
    {
      "midi": 74,
      "hit": false,
      "t": 5748.496000000002,
      "d": 359.28099999999995,
      "v": 95
    },
    {
      "midi": 63,
      "hit": false,
      "t": 5748.496000000002,
      "d": 359.28099999999995,
      "v": 95
    },
    {
      "midi": 70,
      "hit": false,
      "t": 5748.496000000002,
      "d": 359.28099999999995,
      "v": 95
    },
    {
      "midi": 79,
      "hit": false,
      "t": 5748.496000000002,
      "d": 1437.1240000000016,
      "v": 127
    },
    {
      "midi": 74,
      "hit": false,
      "t": 6107.777000000002,
      "d": 359.28099999999995,
      "v": 95
    },
    {
      "midi": 70,
      "hit": false,
      "t": 6107.777000000002,
      "d": 359.28099999999995,
      "v": 95
    },
    {
      "midi": 63,
      "hit": false,
      "t": 6107.777000000002,
      "d": 359.28099999999995,
      "v": 95
    },
    {
      "midi": 63,
      "hit": false,
      "t": 6646.698500000002,
      "d": 179.64050000000043,
      "v": 95
    },
    {
      "midi": 70,
      "hit": false,
      "t": 6646.698500000002,
      "d": 179.64050000000043,
      "v": 95
    },
    {
      "midi": 74,
      "hit": false,
      "t": 6646.698500000002,
      "d": 179.64050000000043,
      "v": 95
    },
    {
      "midi": 63,
      "hit": false,
      "t": 7005.979500000003,
      "d": 359.28100000000086,
      "v": 95
    },
    {
      "midi": 70,
      "hit": false,
      "t": 7005.979500000003,
      "d": 359.28100000000086,
      "v": 95
    },
    {
      "midi": 74,
      "hit": false,
      "t": 7005.979500000003,
      "d": 359.28100000000086,
      "v": 95
    },
    {
      "midi": 86,
      "hit": false,
      "t": 7185.6200000000035,
      "d": 718.5620000000017,
      "v": 127
    },
    {
      "midi": 63,
      "hit": false,
      "t": 7365.260500000004,
      "d": 179.64050000000043,
      "v": 95
    },
    {
      "midi": 70,
      "hit": false,
      "t": 7365.260500000004,
      "d": 179.64050000000043,
      "v": 95
    },
    {
      "midi": 74,
      "hit": false,
      "t": 7365.260500000004,
      "d": 179.64050000000043,
      "v": 95
    },
    {
      "midi": 63,
      "hit": false,
      "t": 7724.541500000005,
      "d": 538.9215000000004,
      "v": 95
    },
    {
      "midi": 70,
      "hit": false,
      "t": 7724.541500000005,
      "d": 538.9215000000004,
      "v": 95
    },
    {
      "midi": 74,
      "hit": false,
      "t": 7724.541500000005,
      "d": 538.9215000000004,
      "v": 95
    },
    {
      "midi": 84,
      "hit": false,
      "t": 7904.182000000005,
      "d": 718.5620000000008,
      "v": 127
    },
    {
      "midi": 63,
      "hit": false,
      "t": 8263.463000000005,
      "d": 359.28100000000086,
      "v": 95
    },
    {
      "midi": 70,
      "hit": false,
      "t": 8263.463000000005,
      "d": 359.28100000000086,
      "v": 95
    },
    {
      "midi": 74,
      "hit": false,
      "t": 8263.463000000005,
      "d": 359.28100000000086,
      "v": 95
    },
    {
      "midi": 67,
      "hit": false,
      "t": 8622.744000000006,
      "d": 359.28100000000086,
      "v": 95
    },
    {
      "midi": 69,
      "hit": false,
      "t": 8622.744000000006,
      "d": 359.28100000000086,
      "v": 95
    },
    {
      "midi": 72,
      "hit": false,
      "t": 8622.744000000006,
      "d": 359.28100000000086,
      "v": 95
    },
    {
      "midi": 77,
      "hit": false,
      "t": 8622.744000000006,
      "d": 1437.1240000000016,
      "v": 127
    },
    {
      "midi": 67,
      "hit": false,
      "t": 8982.025000000007,
      "d": 359.28100000000086,
      "v": 95
    },
    {
      "midi": 69,
      "hit": false,
      "t": 8982.025000000007,
      "d": 359.28100000000086,
      "v": 95
    },
    {
      "midi": 72,
      "hit": false,
      "t": 8982.025000000007,
      "d": 359.28100000000086,
      "v": 95
    },
    {
      "midi": 67,
      "hit": false,
      "t": 9520.946500000007,
      "d": 538.9215000000004,
      "v": 95
    },
    {
      "midi": 69,
      "hit": false,
      "t": 9520.946500000007,
      "d": 538.9215000000004,
      "v": 95
    },
    {
      "midi": 72,
      "hit": false,
      "t": 9520.946500000007,
      "d": 538.9215000000004,
      "v": 95
    },
    {
      "midi": 79,
      "hit": false,
      "t": 10059.868000000008,
      "d": 718.5619999999999,
      "v": 127
    },
    {
      "midi": 67,
      "hit": false,
      "t": 10059.868000000008,
      "d": 1437.1240000000016,
      "v": 95
    },
    {
      "midi": 71,
      "hit": false,
      "t": 10059.868000000008,
      "d": 1437.1240000000016,
      "v": 95
    },
    {
      "midi": 74,
      "hit": false,
      "t": 10059.868000000008,
      "d": 1437.1240000000016,
      "v": 95
    },
    {
      "midi": 76,
      "hit": false,
      "t": 11137.711000000008,
      "d": 359.28100000000086,
      "v": 127
    },
    {
      "midi": 72,
      "hit": false,
      "t": 11496.99200000001,
      "d": 179.64049999999952,
      "v": 95
    },
    {
      "midi": 76,
      "hit": false,
      "t": 11676.632500000009,
      "d": 179.64049999999952,
      "v": 95
    },
    {
      "midi": 79,
      "hit": false,
      "t": 11856.273000000008,
      "d": 1077.8430000000008,
      "v": 95
    },
    {
      "midi": 69,
      "hit": false,
      "t": 12934.116000000009,
      "d": 179.64049999999952,
      "v": 95
    },
    {
      "midi": 72,
      "hit": false,
      "t": 13113.756500000009,
      "d": 179.64049999999952,
      "v": 95
    },
    {
      "midi": 76,
      "hit": false,
      "t": 14011.95900000001,
      "d": 359.28100000000086,
      "v": 127
    },
    {
      "midi": 62,
      "hit": false,
      "t": 14371.24000000001,
      "d": 179.64049999999952,
      "v": 95
    },
    {
      "midi": 79,
      "hit": false,
      "t": 14371.24000000001,
      "d": 2155.6859999999997,
      "v": 127
    },
    {
      "midi": 72,
      "hit": false,
      "t": 14371.24000000001,
      "d": 2155.6859999999997,
      "v": 127
    },
    {
      "midi": 69,
      "hit": false,
      "t": 14550.88050000001,
      "d": 179.64049999999952,
      "v": 95
    },
    {
      "midi": 74,
      "hit": false,
      "t": 14730.52100000001,
      "d": 1077.8430000000008,
      "v": 95
    },
    {
      "midi": 74,
      "hit": false,
      "t": 15808.36400000001,
      "d": 179.64049999999952,
      "v": 95
    },
    {
      "midi": 77,
      "hit": false,
      "t": 15988.00450000001,
      "d": 179.64049999999952,
      "v": 95
    },
    {
      "midi": 81,
      "hit": false,
      "t": 16167.64500000001,
      "d": 1077.842999999999,
      "v": 95
    },
    {
      "midi": 76,
      "hit": false,
      "t": 16886.20700000001,
      "d": 359.28099999999904,
      "v": 127
    },
    {
      "midi": 65,
      "hit": false,
      "t": 17245.48800000001,
      "d": 179.64050000000134,
      "v": 95
    },
    {
      "midi": 79,
      "hit": false,
      "t": 17245.48800000001,
      "d": 2155.686000000005,
      "v": 127
    },
    {
      "midi": 72,
      "hit": false,
      "t": 17425.12850000001,
      "d": 179.64050000000134,
      "v": 95
    },
    {
      "midi": 76,
      "hit": false,
      "t": 17604.76900000001,
      "d": 1077.8430000000008,
      "v": 95
    },
    {
      "midi": 64,
      "hit": false,
      "t": 18682.612000000012,
      "d": 179.64050000000134,
      "v": 95
    },
    {
      "midi": 67,
      "hit": false,
      "t": 18862.252500000013,
      "d": 179.64050000000134,
      "v": 95
    },
    {
      "midi": 74,
      "hit": false,
      "t": 19041.893000000015,
      "d": 1077.8429999999971,
      "v": 95
    },
    {
      "midi": 81,
      "hit": false,
      "t": 19760.455000000013,
      "d": 359.28099999999904,
      "v": 127
    },
    {
      "midi": 67,
      "hit": false,
      "t": 20119.73600000001,
      "d": 179.64050000000134,
      "v": 95
    },
    {
      "midi": 79,
      "hit": false,
      "t": 20119.73600000001,
      "d": 2874.2480000000032,
      "v": 127
    },
    {
      "midi": 72,
      "hit": false,
      "t": 20299.376500000013,
      "d": 179.64050000000134,
      "v": 95
    },
    {
      "midi": 77,
      "hit": false,
      "t": 20479.017000000014,
      "d": 538.9215000000004,
      "v": 95
    },
    {
      "midi": 72,
      "hit": false,
      "t": 21017.938500000015,
      "d": 179.64050000000134,
      "v": 95
    },
    {
      "midi": 69,
      "hit": false,
      "t": 21197.579000000016,
      "d": 359.28099999999904,
      "v": 95
    },
    {
      "midi": 77,
      "hit": false,
      "t": 21556.860000000015,
      "d": 1437.1239999999998,
      "v": 95
    },
    {
      "midi": 72,
      "hit": false,
      "t": 21556.860000000015,
      "d": 1437.1239999999998,
      "v": 95
    },
    {
      "midi": 67,
      "hit": false,
      "t": 21556.860000000015,
      "d": 1437.1239999999998,
      "v": 95
    },
    {
      "midi": 60,
      "hit": false,
      "t": 22993.984000000015,
      "d": 179.64050000000134,
      "v": 95
    },
    {
      "midi": 55,
      "hit": false,
      "t": 23173.624500000016,
      "d": 179.64050000000134,
      "v": 95
    },
    {
      "midi": 60,
      "hit": false,
      "t": 23353.265000000018,
      "d": 179.64050000000134,
      "v": 95
    },
    {
      "midi": 64,
      "hit": false,
      "t": 23353.265000000018,
      "d": 359.2810000000027,
      "v": 127
    },
    {
      "midi": 55,
      "hit": false,
      "t": 23532.90550000002,
      "d": 179.64050000000134,
      "v": 95
    },
    {
      "midi": 52,
      "hit": false,
      "t": 23892.18650000002,
      "d": 179.64050000000134,
      "v": 95
    },
    {
      "midi": 55,
      "hit": false,
      "t": 24071.827000000023,
      "d": 179.64050000000134,
      "v": 95
    },
    {
      "midi": 62,
      "hit": false,
      "t": 24071.827000000023,
      "d": 359.2810000000027,
      "v": 127
    },
    {
      "midi": 59,
      "hit": false,
      "t": 24071.827000000023,
      "d": 359.2810000000027,
      "v": 127
    },
    {
      "midi": 52,
      "hit": false,
      "t": 24251.467500000024,
      "d": 179.64050000000134,
      "v": 95
    },
    {
      "midi": 50,
      "hit": false,
      "t": 24610.748500000027,
      "d": 179.64050000000134,
      "v": 95
    },
    {
      "midi": 52,
      "hit": false,
      "t": 24790.38900000003,
      "d": 179.64050000000134,
      "v": 95
    },
    {
      "midi": 57,
      "hit": false,
      "t": 24790.38900000003,
      "d": 359.2810000000027,
      "v": 127
    },
    {
      "midi": 60,
      "hit": false,
      "t": 24790.38900000003,
      "d": 359.2810000000027,
      "v": 127
    },
    {
      "midi": 53,
      "hit": false,
      "t": 24970.02950000003,
      "d": 179.64050000000134,
      "v": 95
    },
    {
      "midi": 55,
      "hit": false,
      "t": 25149.67000000003,
      "d": 359.28099999999904,
      "v": 95
    },
    {
      "midi": 57,
      "hit": false,
      "t": 25149.67000000003,
      "d": 359.28099999999904,
      "v": 127
    },
    {
      "midi": 60,
      "hit": false,
      "t": 25149.67000000003,
      "d": 359.28099999999904,
      "v": 127
    },
    {
      "midi": 79,
      "hit": false,
      "t": 25868.23200000003,
      "d": 179.64050000000134,
      "v": 127
    },
    {
      "midi": 76,
      "hit": false,
      "t": 25868.23200000003,
      "d": 359.2810000000027,
      "v": 95
    },
    {
      "midi": 72,
      "hit": false,
      "t": 25868.23200000003,
      "d": 359.2810000000027,
      "v": 95
    },
    {
      "midi": 79,
      "hit": false,
      "t": 26047.87250000003,
      "d": 179.64050000000134,
      "v": 127
    },
    {
      "midi": 76,
      "hit": false,
      "t": 26227.51300000003,
      "d": 179.64050000000134,
      "v": 95
    },
    {
      "midi": 72,
      "hit": false,
      "t": 26227.51300000003,
      "d": 359.2810000000027,
      "v": 95
    },
    {
      "midi": 79,
      "hit": false,
      "t": 26407.153500000033,
      "d": 179.64050000000134,
      "v": 127
    },
    {
      "midi": 64,
      "hit": false,
      "t": 26586.794000000034,
      "d": 359.28099999999904,
      "v": 95
    },
    {
      "midi": 71,
      "hit": false,
      "t": 26586.794000000034,
      "d": 359.28099999999904,
      "v": 95
    },
    {
      "midi": 74,
      "hit": false,
      "t": 26586.794000000034,
      "d": 359.28099999999904,
      "v": 95
    },
    {
      "midi": 64,
      "hit": false,
      "t": 26946.075000000033,
      "d": 359.28099999999904,
      "v": 95
    },
    {
      "midi": 71,
      "hit": false,
      "t": 26946.075000000033,
      "d": 359.28099999999904,
      "v": 95
    },
    {
      "midi": 74,
      "hit": false,
      "t": 26946.075000000033,
      "d": 359.28099999999904,
      "v": 95
    },
    {
      "midi": 62,
      "hit": false,
      "t": 27305.356000000033,
      "d": 359.28099999999904,
      "v": 95
    },
    {
      "midi": 69,
      "hit": false,
      "t": 27305.356000000033,
      "d": 359.28099999999904,
      "v": 95
    },
    {
      "midi": 72,
      "hit": false,
      "t": 27305.356000000033,
      "d": 359.28099999999904,
      "v": 95
    },
    {
      "midi": 62,
      "hit": false,
      "t": 27664.63700000003,
      "d": 359.2810000000027,
      "v": 95
    },
    {
      "midi": 69,
      "hit": false,
      "t": 27664.63700000003,
      "d": 359.2810000000027,
      "v": 95
    },
    {
      "midi": 72,
      "hit": false,
      "t": 27664.63700000003,
      "d": 359.2810000000027,
      "v": 95
    },
    {
      "midi": 76,
      "hit": false,
      "t": 27844.277500000033,
      "d": 179.64050000000134,
      "v": 127
    },
    {
      "midi": 76,
      "hit": false,
      "t": 28023.918000000034,
      "d": 179.64050000000134,
      "v": 127
    },
    {
      "midi": 67,
      "hit": false,
      "t": 28023.918000000034,
      "d": 359.2810000000027,
      "v": 95
    },
    {
      "midi": 72,
      "hit": false,
      "t": 28023.918000000034,
      "d": 359.2810000000027,
      "v": 95
    },
    {
      "midi": 76,
      "hit": false,
      "t": 28203.558500000036,
      "d": 179.64050000000134,
      "v": 127
    },
    {
      "midi": 77,
      "hit": false,
      "t": 28383.199000000037,
      "d": 179.64050000000134,
      "v": 127
    },
    {
      "midi": 67,
      "hit": false,
      "t": 28383.199000000037,
      "d": 359.2810000000027,
      "v": 95
    },
    {
      "midi": 72,
      "hit": false,
      "t": 28383.199000000037,
      "d": 359.2810000000027,
      "v": 95
    },
    {
      "midi": 77,
      "hit": false,
      "t": 28562.83950000004,
      "d": 179.64050000000134,
      "v": 127
    },
    {
      "midi": 79,
      "hit": false,
      "t": 28742.48000000004,
      "d": 179.64050000000134,
      "v": 127
    },
    {
      "midi": 76,
      "hit": false,
      "t": 28742.48000000004,
      "d": 359.2810000000027,
      "v": 95
    },
    {
      "midi": 72,
      "hit": false,
      "t": 28742.48000000004,
      "d": 359.2810000000027,
      "v": 95
    },
    {
      "midi": 79,
      "hit": false,
      "t": 28922.12050000004,
      "d": 179.64050000000134,
      "v": 127
    },
    {
      "midi": 81,
      "hit": false,
      "t": 29101.761000000042,
      "d": 179.64050000000134,
      "v": 127
    },
    {
      "midi": 76,
      "hit": false,
      "t": 29101.761000000042,
      "d": 359.2810000000027,
      "v": 95
    },
    {
      "midi": 72,
      "hit": false,
      "t": 29101.761000000042,
      "d": 359.2810000000027,
      "v": 95
    },
    {
      "midi": 79,
      "hit": false,
      "t": 29281.401500000044,
      "d": 359.2810000000027,
      "v": 127
    },
    {
      "midi": 64,
      "hit": false,
      "t": 29461.042000000045,
      "d": 359.2810000000027,
      "v": 95
    },
    {
      "midi": 71,
      "hit": false,
      "t": 29461.042000000045,
      "d": 359.2810000000027,
      "v": 95
    },
    {
      "midi": 74,
      "hit": false,
      "t": 29461.042000000045,
      "d": 359.2810000000027,
      "v": 95
    },
    {
      "midi": 76,
      "hit": false,
      "t": 29640.682500000046,
      "d": 359.2810000000027,
      "v": 127
    },
    {
      "midi": 64,
      "hit": false,
      "t": 29820.323000000048,
      "d": 359.2810000000027,
      "v": 95
    },
    {
      "midi": 71,
      "hit": false,
      "t": 29820.323000000048,
      "d": 359.2810000000027,
      "v": 95
    },
    {
      "midi": 74,
      "hit": false,
      "t": 29820.323000000048,
      "d": 359.2810000000027,
      "v": 95
    },
    {
      "midi": 62,
      "hit": false,
      "t": 30179.60400000005,
      "d": 359.28099999999904,
      "v": 95
    },
    {
      "midi": 69,
      "hit": false,
      "t": 30179.60400000005,
      "d": 359.28099999999904,
      "v": 95
    },
    {
      "midi": 72,
      "hit": false,
      "t": 30179.60400000005,
      "d": 359.28099999999904,
      "v": 95
    },
    {
      "midi": 62,
      "hit": false,
      "t": 30538.88500000005,
      "d": 359.28099999999904,
      "v": 95
    },
    {
      "midi": 69,
      "hit": false,
      "t": 30538.88500000005,
      "d": 359.28099999999904,
      "v": 95
    },
    {
      "midi": 72,
      "hit": false,
      "t": 30538.88500000005,
      "d": 359.28099999999904,
      "v": 95
    },
    {
      "midi": 76,
      "hit": false,
      "t": 30898.16600000005,
      "d": 179.64050000000134,
      "v": 127
    },
    {
      "midi": 67,
      "hit": false,
      "t": 30898.16600000005,
      "d": 359.2810000000027,
      "v": 95
    },
    {
      "midi": 72,
      "hit": false,
      "t": 30898.16600000005,
      "d": 359.2810000000027,
      "v": 95
    },
    {
      "midi": 76,
      "hit": false,
      "t": 31077.80650000005,
      "d": 179.64050000000134,
      "v": 127
    },
    {
      "midi": 77,
      "hit": false,
      "t": 31257.44700000005,
      "d": 179.64050000000134,
      "v": 127
    },
    {
      "midi": 67,
      "hit": false,
      "t": 31257.44700000005,
      "d": 359.2810000000027,
      "v": 95
    },
    {
      "midi": 72,
      "hit": false,
      "t": 31257.44700000005,
      "d": 359.2810000000027,
      "v": 95
    },
    {
      "midi": 77,
      "hit": false,
      "t": 31437.087500000052,
      "d": 179.64050000000134,
      "v": 127
    },
    {
      "midi": 79,
      "hit": false,
      "t": 31616.728000000054,
      "d": 179.64050000000134,
      "v": 127
    },
    {
      "midi": 76,
      "hit": false,
      "t": 31616.728000000054,
      "d": 359.2810000000027,
      "v": 95
    },
    {
      "midi": 72,
      "hit": false,
      "t": 31616.728000000054,
      "d": 359.2810000000027,
      "v": 95
    },
    {
      "midi": 79,
      "hit": false,
      "t": 31796.368500000055,
      "d": 179.64050000000134,
      "v": 127
    },
    {
      "midi": 76,
      "hit": false,
      "t": 31976.009000000056,
      "d": 179.64050000000134,
      "v": 95
    },
    {
      "midi": 72,
      "hit": false,
      "t": 31976.009000000056,
      "d": 359.2810000000027,
      "v": 95
    },
    {
      "midi": 79,
      "hit": false,
      "t": 32155.649500000058,
      "d": 359.2810000000027,
      "v": 127
    },
    {
      "midi": 64,
      "hit": false,
      "t": 32335.29000000006,
      "d": 359.2810000000027,
      "v": 95
    },
    {
      "midi": 71,
      "hit": false,
      "t": 32335.29000000006,
      "d": 359.2810000000027,
      "v": 95
    },
    {
      "midi": 74,
      "hit": false,
      "t": 32335.29000000006,
      "d": 359.2810000000027,
      "v": 95
    },
    {
      "midi": 76,
      "hit": false,
      "t": 32514.93050000006,
      "d": 359.2810000000027,
      "v": 127
    },
    {
      "midi": 64,
      "hit": false,
      "t": 32694.57100000006,
      "d": 359.2810000000027,
      "v": 95
    },
    {
      "midi": 71,
      "hit": false,
      "t": 32694.57100000006,
      "d": 359.2810000000027,
      "v": 95
    },
    {
      "midi": 74,
      "hit": false,
      "t": 32874.21150000006,
      "d": 179.64050000000134,
      "v": 127
    },
    {
      "midi": 62,
      "hit": false,
      "t": 33053.852000000064,
      "d": 359.2810000000027,
      "v": 95
    },
    {
      "midi": 69,
      "hit": false,
      "t": 33053.852000000064,
      "d": 359.2810000000027,
      "v": 95
    },
    {
      "midi": 72,
      "hit": false,
      "t": 33233.492500000066,
      "d": 179.64050000000134,
      "v": 127
    },
    {
      "midi": 72,
      "hit": false,
      "t": 33413.13300000007,
      "d": 179.64050000000134,
      "v": 95
    },
    {
      "midi": 62,
      "hit": false,
      "t": 33413.13300000007,
      "d": 359.2810000000027,
      "v": 95
    },
    {
      "midi": 69,
      "hit": false,
      "t": 33413.13300000007,
      "d": 359.2810000000027,
      "v": 95
    },
    {
      "midi": 76,
      "hit": false,
      "t": 33592.77350000007,
      "d": 179.64050000000134,
      "v": 127
    },
    {
      "midi": 77,
      "hit": false,
      "t": 33772.41400000007,
      "d": 179.64050000000134,
      "v": 127
    },
    {
      "midi": 67,
      "hit": false,
      "t": 33772.41400000007,
      "d": 359.2810000000027,
      "v": 95
    },
    {
      "midi": 72,
      "hit": false,
      "t": 33772.41400000007,
      "d": 359.2810000000027,
      "v": 95
    },
    {
      "midi": 76,
      "hit": false,
      "t": 33952.05450000007,
      "d": 179.64050000000134,
      "v": 127
    },
    {
      "midi": 74,
      "hit": false,
      "t": 34131.69500000007,
      "d": 179.64050000000134,
      "v": 127
    },
    {
      "midi": 67,
      "hit": false,
      "t": 34131.69500000007,
      "d": 359.2810000000027,
      "v": 95
    },
    {
      "midi": 72,
      "hit": false,
      "t": 34131.69500000007,
      "d": 359.2810000000027,
      "v": 95
    },
    {
      "midi": 76,
      "hit": false,
      "t": 34311.335500000074,
      "d": 179.64050000000134,
      "v": 127
    },
    {
      "midi": 76,
      "hit": false,
      "t": 34490.976000000075,
      "d": 359.2810000000027,
      "v": 95
    },
    {
      "midi": 72,
      "hit": false,
      "t": 34490.976000000075,
      "d": 359.2810000000027,
      "v": 95
    },
    {
      "midi": 76,
      "hit": false,
      "t": 34850.25700000008,
      "d": 359.2810000000027,
      "v": 95
    },
    {
      "midi": 72,
      "hit": false,
      "t": 34850.25700000008,
      "d": 359.2810000000027,
      "v": 95
    },
    {
      "midi": 64,
      "hit": false,
      "t": 35209.53800000008,
      "d": 359.2810000000027,
      "v": 95
    },
    {
      "midi": 71,
      "hit": false,
      "t": 35209.53800000008,
      "d": 359.2810000000027,
      "v": 95
    },
    {
      "midi": 74,
      "hit": false,
      "t": 35209.53800000008,
      "d": 359.2810000000027,
      "v": 95
    },
    {
      "midi": 64,
      "hit": false,
      "t": 35568.81900000008,
      "d": 359.2810000000027,
      "v": 95
    },
    {
      "midi": 71,
      "hit": false,
      "t": 35568.81900000008,
      "d": 359.2810000000027,
      "v": 95
    },
    {
      "midi": 74,
      "hit": false,
      "t": 35568.81900000008,
      "d": 359.2810000000027,
      "v": 95
    },
    {
      "midi": 62,
      "hit": false,
      "t": 35928.100000000086,
      "d": 359.2810000000027,
      "v": 95
    },
    {
      "midi": 69,
      "hit": false,
      "t": 35928.100000000086,
      "d": 359.2810000000027,
      "v": 95
    },
    {
      "midi": 72,
      "hit": false,
      "t": 35928.100000000086,
      "d": 359.2810000000027,
      "v": 95
    },
    {
      "midi": 62,
      "hit": false,
      "t": 36287.38100000009,
      "d": 359.2810000000027,
      "v": 95
    },
    {
      "midi": 69,
      "hit": false,
      "t": 36287.38100000009,
      "d": 359.2810000000027,
      "v": 95
    },
    {
      "midi": 72,
      "hit": false,
      "t": 36287.38100000009,
      "d": 359.2810000000027,
      "v": 95
    },
    {
      "midi": 67,
      "hit": false,
      "t": 36646.66200000009,
      "d": 359.2810000000027,
      "v": 95
    },
    {
      "midi": 72,
      "hit": false,
      "t": 36646.66200000009,
      "d": 359.2810000000027,
      "v": 95
    },
    {
      "midi": 67,
      "hit": false,
      "t": 37005.943000000094,
      "d": 359.2810000000027,
      "v": 95
    },
    {
      "midi": 72,
      "hit": false,
      "t": 37005.943000000094,
      "d": 359.2810000000027,
      "v": 95
    },
    {
      "midi": 79,
      "hit": false,
      "t": 37365.2240000001,
      "d": 179.64050000000134,
      "v": 127
    },
    {
      "midi": 72,
      "hit": false,
      "t": 37365.2240000001,
      "d": 538.921500000004,
      "v": 95
    },
    {
      "midi": 79,
      "hit": false,
      "t": 37544.8645000001,
      "d": 179.64050000000134,
      "v": 127
    },
    {
      "midi": 76,
      "hit": false,
      "t": 37724.5050000001,
      "d": 179.64050000000134,
      "v": 127
    },
    {
      "midi": 72,
      "hit": false,
      "t": 37904.1455000001,
      "d": 179.64050000000134,
      "v": 95
    },
    {
      "midi": 79,
      "hit": false,
      "t": 37904.1455000001,
      "d": 179.64050000000134,
      "v": 127
    },
    {
      "midi": 64,
      "hit": false,
      "t": 38083.7860000001,
      "d": 538.9214999999967,
      "v": 95
    },
    {
      "midi": 64,
      "hit": false,
      "t": 38622.7075000001,
      "d": 179.64050000000134,
      "v": 95
    },
    {
      "midi": 62,
      "hit": false,
      "t": 38802.3480000001,
      "d": 538.9214999999967,
      "v": 95
    },
    {
      "midi": 62,
      "hit": false,
      "t": 39341.2695000001,
      "d": 179.64050000000134,
      "v": 95
    },
    {
      "midi": 76,
      "hit": false,
      "t": 39341.2695000001,
      "d": 179.64050000000134,
      "v": 127
    },
    {
      "midi": 76,
      "hit": false,
      "t": 39520.9100000001,
      "d": 179.64050000000134,
      "v": 127
    },
    {
      "midi": 67,
      "hit": false,
      "t": 39520.9100000001,
      "d": 538.921500000004,
      "v": 95
    },
    {
      "midi": 76,
      "hit": false,
      "t": 39700.5505000001,
      "d": 179.64050000000134,
      "v": 127
    },
    {
      "midi": 77,
      "hit": false,
      "t": 39880.1910000001,
      "d": 179.64050000000134,
      "v": 127
    },
    {
      "midi": 67,
      "hit": false,
      "t": 40059.8315000001,
      "d": 179.64050000000134,
      "v": 95
    },
    {
      "midi": 77,
      "hit": false,
      "t": 40059.8315000001,
      "d": 179.64050000000134,
      "v": 127
    },
    {
      "midi": 79,
      "hit": false,
      "t": 40239.4720000001,
      "d": 179.64050000000134,
      "v": 127
    },
    {
      "midi": 72,
      "hit": false,
      "t": 40239.4720000001,
      "d": 538.921500000004,
      "v": 95
    },
    {
      "midi": 79,
      "hit": false,
      "t": 40419.112500000105,
      "d": 179.64050000000134,
      "v": 127
    },
    {
      "midi": 81,
      "hit": false,
      "t": 40598.753000000106,
      "d": 179.64050000000134,
      "v": 127
    },
    {
      "midi": 72,
      "hit": false,
      "t": 40778.39350000011,
      "d": 179.64050000000134,
      "v": 95
    },
    {
      "midi": 79,
      "hit": false,
      "t": 40778.39350000011,
      "d": 359.2810000000027,
      "v": 127
    },
    {
      "midi": 64,
      "hit": false,
      "t": 40958.03400000011,
      "d": 538.921500000004,
      "v": 95
    },
    {
      "midi": 76,
      "hit": false,
      "t": 41137.67450000011,
      "d": 359.2810000000027,
      "v": 127
    },
    {
      "midi": 64,
      "hit": false,
      "t": 41496.95550000011,
      "d": 179.64050000000134,
      "v": 95
    },
    {
      "midi": 74,
      "hit": false,
      "t": 41496.95550000011,
      "d": 359.2810000000027,
      "v": 127
    },
    {
      "midi": 62,
      "hit": false,
      "t": 41676.596000000114,
      "d": 538.921500000004,
      "v": 95
    },
    {
      "midi": 72,
      "hit": false,
      "t": 41856.236500000115,
      "d": 179.64050000000134,
      "v": 127
    },
    {
      "midi": 62,
      "hit": false,
      "t": 42215.51750000012,
      "d": 179.64050000000134,
      "v": 95
    },
    {
      "midi": 76,
      "hit": false,
      "t": 42395.15800000012,
      "d": 179.64050000000134,
      "v": 127
    },
    {
      "midi": 67,
      "hit": false,
      "t": 42395.15800000012,
      "d": 538.921500000004,
      "v": 95
    },
    {
      "midi": 76,
      "hit": false,
      "t": 42574.79850000012,
      "d": 179.64050000000134,
      "v": 127
    },
    {
      "midi": 77,
      "hit": false,
      "t": 42754.43900000012,
      "d": 179.64050000000134,
      "v": 127
    },
    {
      "midi": 67,
      "hit": false,
      "t": 42934.07950000012,
      "d": 179.64050000000134,
      "v": 95
    },
    {
      "midi": 77,
      "hit": false,
      "t": 42934.07950000012,
      "d": 179.64050000000134,
      "v": 127
    },
    {
      "midi": 79,
      "hit": false,
      "t": 43113.720000000125,
      "d": 179.64050000000134,
      "v": 127
    },
    {
      "midi": 65,
      "hit": false,
      "t": 43113.720000000125,
      "d": 538.921500000004,
      "v": 95
    },
    {
      "midi": 79,
      "hit": false,
      "t": 43293.360500000126,
      "d": 179.64050000000134,
      "v": 127
    },
    {
      "midi": 76,
      "hit": false,
      "t": 43473.00100000013,
      "d": 179.64050000000134,
      "v": 127
    },
    {
      "midi": 65,
      "hit": false,
      "t": 43652.64150000013,
      "d": 179.64050000000134,
      "v": 95
    },
    {
      "midi": 79,
      "hit": false,
      "t": 43652.64150000013,
      "d": 359.2810000000027,
      "v": 127
    },
    {
      "midi": 64,
      "hit": false,
      "t": 43832.28200000013,
      "d": 538.921500000004,
      "v": 95
    },
    {
      "midi": 76,
      "hit": false,
      "t": 44011.92250000013,
      "d": 359.2810000000027,
      "v": 127
    },
    {
      "midi": 64,
      "hit": false,
      "t": 44371.203500000134,
      "d": 179.64050000000134,
      "v": 95
    },
    {
      "midi": 74,
      "hit": false,
      "t": 44371.203500000134,
      "d": 359.2810000000027,
      "v": 127
    },
    {
      "midi": 62,
      "hit": false,
      "t": 44550.844000000136,
      "d": 538.921500000004,
      "v": 95
    },
    {
      "midi": 72,
      "hit": false,
      "t": 44730.48450000014,
      "d": 359.2810000000027,
      "v": 127
    },
    {
      "midi": 62,
      "hit": false,
      "t": 45089.76550000014,
      "d": 179.64050000000134,
      "v": 95
    },
    {
      "midi": 76,
      "hit": false,
      "t": 45089.76550000014,
      "d": 179.64050000000134,
      "v": 127
    },
    {
      "midi": 77,
      "hit": false,
      "t": 45269.40600000014,
      "d": 179.64050000000134,
      "v": 127
    },
    {
      "midi": 67,
      "hit": false,
      "t": 45269.40600000014,
      "d": 538.921500000004,
      "v": 95
    },
    {
      "midi": 76,
      "hit": false,
      "t": 45449.04650000014,
      "d": 179.64050000000134,
      "v": 127
    },
    {
      "midi": 74,
      "hit": false,
      "t": 45628.68700000014,
      "d": 179.64050000000134,
      "v": 127
    },
    {
      "midi": 67,
      "hit": false,
      "t": 45808.327500000145,
      "d": 179.64050000000134,
      "v": 95
    },
    {
      "midi": 76,
      "hit": false,
      "t": 45808.327500000145,
      "d": 179.64050000000134,
      "v": 127
    },
    {
      "midi": 72,
      "hit": false,
      "t": 45987.968000000146,
      "d": 179.64050000000134,
      "v": 95
    },
    {
      "midi": 71,
      "hit": false,
      "t": 46167.60850000015,
      "d": 179.64050000000134,
      "v": 127
    },
    {
      "midi": 69,
      "hit": false,
      "t": 46347.24900000015,
      "d": 179.64050000000134,
      "v": 127
    },
    {
      "midi": 71,
      "hit": false,
      "t": 46526.88950000015,
      "d": 179.64050000000134,
      "v": 127
    },
    {
      "midi": 72,
      "hit": false,
      "t": 46706.53000000015,
      "d": 179.64050000000134,
      "v": 127
    },
    {
      "midi": 67,
      "hit": false,
      "t": 47065.811000000154,
      "d": 179.64050000000134,
      "v": 127
    },
    {
      "midi": 67,
      "hit": false,
      "t": 47425.09200000016,
      "d": 179.64050000000134,
      "v": 127
    },
    {
      "midi": 65,
      "hit": false,
      "t": 47604.73250000016,
      "d": 179.64050000000134,
      "v": 127
    },
    {
      "midi": 64,
      "hit": false,
      "t": 47784.37300000016,
      "d": 179.64050000000134,
      "v": 127
    },
    {
      "midi": 62,
      "hit": false,
      "t": 47964.01350000016,
      "d": 179.64050000000134,
      "v": 127
    },
    {
      "midi": 60,
      "hit": false,
      "t": 48143.65400000016,
      "d": 359.2810000000027,
      "v": 127
    },
    {
      "midi": 75,
      "hit": false,
      "t": 48862.21600000017,
      "d": 359.2810000000027,
      "v": 95
    },
    {
      "midi": 72,
      "hit": false,
      "t": 48862.21600000017,
      "d": 359.2810000000027,
      "v": 95
    },
    {
      "midi": 72,
      "hit": false,
      "t": 49221.49700000017,
      "d": 359.2810000000027,
      "v": 95
    },
    {
      "midi": 75,
      "hit": false,
      "t": 49221.49700000017,
      "d": 359.2810000000027,
      "v": 95
    },
    {
      "midi": 79,
      "hit": false,
      "t": 49221.49700000017,
      "d": 359.2810000000027,
      "v": 127
    },
    {
      "midi": 77,
      "hit": false,
      "t": 49580.77800000017,
      "d": 179.64050000000134,
      "v": 127
    },
    {
      "midi": 72,
      "hit": false,
      "t": 49580.77800000017,
      "d": 359.2810000000027,
      "v": 95
    },
    {
      "midi": 75,
      "hit": false,
      "t": 49580.77800000017,
      "d": 359.2810000000027,
      "v": 95
    },
    {
      "midi": 79,
      "hit": false,
      "t": 49760.418500000174,
      "d": 359.2810000000027,
      "v": 127
    },
    {
      "midi": 72,
      "hit": false,
      "t": 49940.059000000176,
      "d": 359.2810000000027,
      "v": 95
    },
    {
      "midi": 75,
      "hit": false,
      "t": 49940.059000000176,
      "d": 359.2810000000027,
      "v": 95
    },
    {
      "midi": 77,
      "hit": false,
      "t": 50119.69950000018,
      "d": 359.2810000000027,
      "v": 127
    },
    {
      "midi": 67,
      "hit": false,
      "t": 50299.34000000018,
      "d": 359.2810000000027,
      "v": 95
    },
    {
      "midi": 71,
      "hit": false,
      "t": 50299.34000000018,
      "d": 359.2810000000027,
      "v": 95
    },
    {
      "midi": 74,
      "hit": false,
      "t": 50478.98050000018,
      "d": 179.64050000000134,
      "v": 127
    },
    {
      "midi": 67,
      "hit": false,
      "t": 50658.62100000018,
      "d": 359.2810000000027,
      "v": 95
    },
    {
      "midi": 71,
      "hit": false,
      "t": 50658.62100000018,
      "d": 359.2810000000027,
      "v": 95
    },
    {
      "midi": 74,
      "hit": false,
      "t": 50658.62100000018,
      "d": 359.2810000000027,
      "v": 95
    },
    {
      "midi": 67,
      "hit": false,
      "t": 51017.902000000184,
      "d": 359.2810000000027,
      "v": 95
    },
    {
      "midi": 71,
      "hit": false,
      "t": 51017.902000000184,
      "d": 359.2810000000027,
      "v": 95
    },
    {
      "midi": 74,
      "hit": false,
      "t": 51017.902000000184,
      "d": 359.2810000000027,
      "v": 95
    },
    {
      "midi": 67,
      "hit": false,
      "t": 51377.18300000019,
      "d": 359.2810000000027,
      "v": 95
    },
    {
      "midi": 71,
      "hit": false,
      "t": 51377.18300000019,
      "d": 359.2810000000027,
      "v": 95
    },
    {
      "midi": 74,
      "hit": false,
      "t": 51377.18300000019,
      "d": 359.2810000000027,
      "v": 95
    },
    {
      "midi": 74,
      "hit": false,
      "t": 51736.46400000019,
      "d": 179.64050000000134,
      "v": 95
    },
    {
      "midi": 67,
      "hit": false,
      "t": 51736.46400000019,
      "d": 359.2810000000027,
      "v": 95
    },
    {
      "midi": 71,
      "hit": false,
      "t": 51736.46400000019,
      "d": 359.2810000000027,
      "v": 95
    },
    {
      "midi": 74,
      "hit": false,
      "t": 51916.10450000019,
      "d": 179.64050000000134,
      "v": 127
    },
    {
      "midi": 74,
      "hit": false,
      "t": 52095.74500000019,
      "d": 179.64050000000134,
      "v": 95
    },
    {
      "midi": 71,
      "hit": false,
      "t": 52095.74500000019,
      "d": 359.2810000000027,
      "v": 95
    },
    {
      "midi": 67,
      "hit": false,
      "t": 52095.74500000019,
      "d": 359.2810000000027,
      "v": 95
    },
    {
      "midi": 74,
      "hit": false,
      "t": 52275.38550000019,
      "d": 179.64050000000134,
      "v": 127
    },
    {
      "midi": 77,
      "hit": false,
      "t": 52455.026000000194,
      "d": 179.64050000000134,
      "v": 127
    },
    {
      "midi": 74,
      "hit": false,
      "t": 52455.026000000194,
      "d": 359.2810000000027,
      "v": 95
    },
    {
      "midi": 71,
      "hit": false,
      "t": 52455.026000000194,
      "d": 359.2810000000027,
      "v": 95
    },
    {
      "midi": 67,
      "hit": false,
      "t": 52455.026000000194,
      "d": 359.2810000000027,
      "v": 95
    },
    {
      "midi": 75,
      "hit": false,
      "t": 52634.666500000196,
      "d": 179.64050000000134,
      "v": 127
    },
    {
      "midi": 74,
      "hit": false,
      "t": 52814.3070000002,
      "d": 179.64050000000134,
      "v": 95
    },
    {
      "midi": 71,
      "hit": false,
      "t": 52814.3070000002,
      "d": 359.2810000000027,
      "v": 95
    },
    {
      "midi": 67,
      "hit": false,
      "t": 52814.3070000002,
      "d": 359.2810000000027,
      "v": 95
    },
    {
      "midi": 72,
      "hit": false,
      "t": 53173.5880000002,
      "d": 359.2810000000027,
      "v": 95
    },
    {
      "midi": 75,
      "hit": false,
      "t": 53173.5880000002,
      "d": 359.2810000000027,
      "v": 95
    },
    {
      "midi": 72,
      "hit": false,
      "t": 53532.8690000002,
      "d": 359.2810000000027,
      "v": 95
    },
    {
      "midi": 75,
      "hit": false,
      "t": 53532.8690000002,
      "d": 359.2810000000027,
      "v": 95
    },
    {
      "midi": 75,
      "hit": false,
      "t": 53892.150000000205,
      "d": 359.2810000000027,
      "v": 95
    },
    {
      "midi": 72,
      "hit": false,
      "t": 53892.150000000205,
      "d": 359.2810000000027,
      "v": 95
    },
    {
      "midi": 75,
      "hit": false,
      "t": 54251.43100000021,
      "d": 359.2810000000027,
      "v": 95
    },
    {
      "midi": 72,
      "hit": false,
      "t": 54251.43100000021,
      "d": 359.2810000000027,
      "v": 95
    },
    {
      "midi": 72,
      "hit": false,
      "t": 54610.71200000021,
      "d": 179.64050000000134,
      "v": 95
    },
    {
      "midi": 75,
      "hit": false,
      "t": 54610.71200000021,
      "d": 359.2810000000027,
      "v": 95
    },
    {
      "midi": 72,
      "hit": false,
      "t": 54790.35250000021,
      "d": 179.64050000000134,
      "v": 127
    },
    {
      "midi": 72,
      "hit": false,
      "t": 54969.99300000021,
      "d": 359.2810000000027,
      "v": 95
    },
    {
      "midi": 75,
      "hit": false,
      "t": 54969.99300000021,
      "d": 359.2810000000027,
      "v": 95
    },
    {
      "midi": 79,
      "hit": false,
      "t": 54969.99300000021,
      "d": 359.2810000000027,
      "v": 127
    },
    {
      "midi": 77,
      "hit": false,
      "t": 55329.274000000216,
      "d": 179.64050000000134,
      "v": 127
    },
    {
      "midi": 72,
      "hit": false,
      "t": 55329.274000000216,
      "d": 359.2810000000027,
      "v": 95
    },
    {
      "midi": 75,
      "hit": false,
      "t": 55329.274000000216,
      "d": 359.2810000000027,
      "v": 95
    },
    {
      "midi": 79,
      "hit": false,
      "t": 55508.91450000022,
      "d": 359.2810000000027,
      "v": 127
    },
    {
      "midi": 72,
      "hit": false,
      "t": 55688.55500000022,
      "d": 359.2810000000027,
      "v": 95
    },
    {
      "midi": 75,
      "hit": false,
      "t": 55688.55500000022,
      "d": 359.2810000000027,
      "v": 95
    },
    {
      "midi": 77,
      "hit": false,
      "t": 55868.19550000022,
      "d": 359.2810000000027,
      "v": 127
    },
    {
      "midi": 67,
      "hit": false,
      "t": 56047.83600000022,
      "d": 359.2810000000027,
      "v": 95
    },
    {
      "midi": 71,
      "hit": false,
      "t": 56047.83600000022,
      "d": 359.2810000000027,
      "v": 95
    },
    {
      "midi": 74,
      "hit": false,
      "t": 56227.47650000022,
      "d": 179.64050000000134,
      "v": 127
    },
    {
      "midi": 74,
      "hit": false,
      "t": 56407.117000000224,
      "d": 179.64050000000134,
      "v": 95
    },
    {
      "midi": 67,
      "hit": false,
      "t": 56407.117000000224,
      "d": 359.2810000000027,
      "v": 95
    },
    {
      "midi": 71,
      "hit": false,
      "t": 56586.757500000225,
      "d": 179.64050000000134,
      "v": 127
    },
    {
      "midi": 67,
      "hit": false,
      "t": 56766.39800000023,
      "d": 359.2810000000027,
      "v": 95
    },
    {
      "midi": 71,
      "hit": false,
      "t": 56766.39800000023,
      "d": 359.2810000000027,
      "v": 95
    },
    {
      "midi": 74,
      "hit": false,
      "t": 56766.39800000023,
      "d": 359.2810000000027,
      "v": 95
    },
    {
      "midi": 67,
      "hit": false,
      "t": 57125.67900000023,
      "d": 359.2810000000027,
      "v": 95
    },
    {
      "midi": 71,
      "hit": false,
      "t": 57125.67900000023,
      "d": 359.2810000000027,
      "v": 95
    },
    {
      "midi": 74,
      "hit": false,
      "t": 57125.67900000023,
      "d": 359.2810000000027,
      "v": 95
    },
    {
      "midi": 67,
      "hit": false,
      "t": 57484.96000000023,
      "d": 359.2810000000027,
      "v": 95
    },
    {
      "midi": 71,
      "hit": false,
      "t": 57484.96000000023,
      "d": 359.2810000000027,
      "v": 95
    },
    {
      "midi": 74,
      "hit": false,
      "t": 57484.96000000023,
      "d": 359.2810000000027,
      "v": 95
    },
    {
      "midi": 77,
      "hit": false,
      "t": 57484.96000000023,
      "d": 359.2810000000027,
      "v": 127
    },
    {
      "midi": 79,
      "hit": false,
      "t": 57844.241000000235,
      "d": 179.64050000000134,
      "v": 127
    },
    {
      "midi": 74,
      "hit": false,
      "t": 57844.241000000235,
      "d": 359.2810000000027,
      "v": 95
    },
    {
      "midi": 71,
      "hit": false,
      "t": 57844.241000000235,
      "d": 359.2810000000027,
      "v": 95
    },
    {
      "midi": 67,
      "hit": false,
      "t": 57844.241000000235,
      "d": 359.2810000000027,
      "v": 95
    },
    {
      "midi": 77,
      "hit": false,
      "t": 58023.881500000236,
      "d": 179.64050000000134,
      "v": 127
    },
    {
      "midi": 75,
      "hit": false,
      "t": 58203.52200000024,
      "d": 179.64050000000134,
      "v": 127
    },
    {
      "midi": 71,
      "hit": false,
      "t": 58203.52200000024,
      "d": 359.2810000000027,
      "v": 95
    },
    {
      "midi": 67,
      "hit": false,
      "t": 58203.52200000024,
      "d": 359.2810000000027,
      "v": 95
    },
    {
      "midi": 74,
      "hit": false,
      "t": 58383.16250000024,
      "d": 179.64050000000134,
      "v": 127
    },
    {
      "midi": 74,
      "hit": false,
      "t": 58562.80300000024,
      "d": 179.64050000000134,
      "v": 95
    },
    {
      "midi": 71,
      "hit": false,
      "t": 58562.80300000024,
      "d": 359.2810000000027,
      "v": 95
    },
    {
      "midi": 67,
      "hit": false,
      "t": 58562.80300000024,
      "d": 359.2810000000027,
      "v": 95
    },
    {
      "midi": 72,
      "hit": false,
      "t": 58922.08400000024,
      "d": 359.2810000000027,
      "v": 95
    },
    {
      "midi": 75,
      "hit": false,
      "t": 58922.08400000024,
      "d": 359.2810000000027,
      "v": 95
    },
    {
      "midi": 72,
      "hit": false,
      "t": 60359.208000000246,
      "d": 179.64050000000134,
      "v": 95
    },
    {
      "midi": 64,
      "hit": false,
      "t": 60359.208000000246,
      "d": 718.5620000000054,
      "v": 127
    },
    {
      "midi": 67,
      "hit": false,
      "t": 60359.208000000246,
      "d": 718.5620000000054,
      "v": 127
    },
    {
      "midi": 72,
      "hit": false,
      "t": 60538.84850000025,
      "d": 179.64050000000134,
      "v": 95
    },
    {
      "midi": 72,
      "hit": false,
      "t": 60718.48900000025,
      "d": 179.64050000000134,
      "v": 95
    },
    {
      "midi": 72,
      "hit": false,
      "t": 60898.12950000025,
      "d": 179.64050000000134,
      "v": 95
    },
    {
      "midi": 72,
      "hit": false,
      "t": 61077.77000000025,
      "d": 179.64050000000134,
      "v": 95
    },
    {
      "midi": 76,
      "hit": false,
      "t": 61077.77000000025,
      "d": 359.2810000000027,
      "v": 127
    },
    {
      "midi": 72,
      "hit": false,
      "t": 61257.41050000025,
      "d": 179.64050000000134,
      "v": 95
    },
    {
      "midi": 72,
      "hit": false,
      "t": 61437.051000000254,
      "d": 179.64050000000134,
      "v": 95
    },
    {
      "midi": 76,
      "hit": false,
      "t": 61437.051000000254,
      "d": 359.2810000000027,
      "v": 127
    },
    {
      "midi": 72,
      "hit": false,
      "t": 61616.691500000255,
      "d": 179.64050000000134,
      "v": 95
    },
    {
      "midi": 71,
      "hit": false,
      "t": 61796.33200000026,
      "d": 179.64050000000134,
      "v": 95
    },
    {
      "midi": 67,
      "hit": false,
      "t": 61796.33200000026,
      "d": 359.2810000000027,
      "v": 127
    },
    {
      "midi": 74,
      "hit": false,
      "t": 61796.33200000026,
      "d": 359.2810000000027,
      "v": 127
    },
    {
      "midi": 71,
      "hit": false,
      "t": 61975.97250000026,
      "d": 179.64050000000134,
      "v": 95
    },
    {
      "midi": 71,
      "hit": false,
      "t": 62155.61300000026,
      "d": 179.64050000000134,
      "v": 95
    },
    {
      "midi": 74,
      "hit": false,
      "t": 62155.61300000026,
      "d": 359.2810000000027,
      "v": 127
    },
    {
      "midi": 71,
      "hit": false,
      "t": 62335.25350000026,
      "d": 179.64050000000134,
      "v": 95
    },
    {
      "midi": 71,
      "hit": false,
      "t": 62514.89400000026,
      "d": 179.64050000000134,
      "v": 95
    },
    {
      "midi": 76,
      "hit": false,
      "t": 62514.89400000026,
      "d": 359.2810000000027,
      "v": 127
    },
    {
      "midi": 71,
      "hit": false,
      "t": 62694.53450000026,
      "d": 179.64050000000134,
      "v": 95
    },
    {
      "midi": 71,
      "hit": false,
      "t": 62874.175000000265,
      "d": 179.64050000000134,
      "v": 95
    },
    {
      "midi": 79,
      "hit": false,
      "t": 62874.175000000265,
      "d": 359.2810000000027,
      "v": 127
    },
    {
      "midi": 71,
      "hit": false,
      "t": 63053.815500000266,
      "d": 179.64050000000134,
      "v": 95
    },
    {
      "midi": 69,
      "hit": false,
      "t": 63233.45600000027,
      "d": 179.64050000000134,
      "v": 95
    },
    {
      "midi": 72,
      "hit": false,
      "t": 63233.45600000027,
      "d": 718.5620000000054,
      "v": 127
    },
    {
      "midi": 69,
      "hit": false,
      "t": 63413.09650000027,
      "d": 179.64050000000134,
      "v": 95
    },
    {
      "midi": 69,
      "hit": false,
      "t": 63592.73700000027,
      "d": 179.64050000000134,
      "v": 95
    },
    {
      "midi": 69,
      "hit": false,
      "t": 63772.37750000027,
      "d": 179.64050000000134,
      "v": 95
    },
    {
      "midi": 69,
      "hit": false,
      "t": 63952.01800000027,
      "d": 179.64050000000134,
      "v": 95
    },
    {
      "midi": 69,
      "hit": false,
      "t": 64131.658500000274,
      "d": 179.64050000000134,
      "v": 95
    },
    {
      "midi": 69,
      "hit": false,
      "t": 64311.299000000276,
      "d": 179.64050000000134,
      "v": 95
    },
    {
      "midi": 81,
      "hit": false,
      "t": 64311.299000000276,
      "d": 359.2810000000027,
      "v": 127
    },
    {
      "midi": 69,
      "hit": false,
      "t": 64490.93950000028,
      "d": 179.64050000000134,
      "v": 95
    },
    {
      "midi": 67,
      "hit": false,
      "t": 64670.58000000028,
      "d": 179.64050000000134,
      "v": 95
    },
    {
      "midi": 79,
      "hit": false,
      "t": 64670.58000000028,
      "d": 359.2810000000027,
      "v": 127
    },
    {
      "midi": 67,
      "hit": false,
      "t": 64850.22050000028,
      "d": 179.64050000000134,
      "v": 95
    },
    {
      "midi": 67,
      "hit": false,
      "t": 65029.86100000028,
      "d": 179.64050000000134,
      "v": 95
    },
    {
      "midi": 77,
      "hit": false,
      "t": 65029.86100000028,
      "d": 359.2810000000027,
      "v": 127
    },
    {
      "midi": 67,
      "hit": false,
      "t": 65209.50150000028,
      "d": 179.64050000000134,
      "v": 95
    },
    {
      "midi": 67,
      "hit": false,
      "t": 65389.14200000028,
      "d": 179.64049999999406,
      "v": 95
    },
    {
      "midi": 76,
      "hit": false,
      "t": 65389.14200000028,
      "d": 359.2809999999881,
      "v": 127
    },
    {
      "midi": 67,
      "hit": false,
      "t": 65568.78250000028,
      "d": 179.64049999999406,
      "v": 95
    },
    {
      "midi": 67,
      "hit": false,
      "t": 65748.42300000027,
      "d": 179.64049999999406,
      "v": 95
    },
    {
      "midi": 77,
      "hit": false,
      "t": 65748.42300000027,
      "d": 359.2809999999881,
      "v": 127
    },
    {
      "midi": 67,
      "hit": false,
      "t": 65928.06350000027,
      "d": 179.64049999999406,
      "v": 95
    },
    {
      "midi": 65,
      "hit": false,
      "t": 66107.70400000026,
      "d": 179.64049999999406,
      "v": 95
    },
    {
      "midi": 72,
      "hit": false,
      "t": 66107.70400000026,
      "d": 359.2809999999881,
      "v": 127
    },
    {
      "midi": 79,
      "hit": false,
      "t": 66107.70400000026,
      "d": 359.2809999999881,
      "v": 127
    },
    {
      "midi": 65,
      "hit": false,
      "t": 66287.34450000025,
      "d": 179.64049999999406,
      "v": 95
    },
    {
      "midi": 65,
      "hit": false,
      "t": 66466.98500000025,
      "d": 179.64049999999406,
      "v": 95
    },
    {
      "midi": 79,
      "hit": false,
      "t": 66466.98500000025,
      "d": 359.2809999999881,
      "v": 127
    },
    {
      "midi": 65,
      "hit": false,
      "t": 66646.62550000024,
      "d": 179.64049999999406,
      "v": 95
    },
    {
      "midi": 65,
      "hit": false,
      "t": 66826.26600000024,
      "d": 179.64049999999406,
      "v": 95
    },
    {
      "midi": 69,
      "hit": false,
      "t": 66826.26600000024,
      "d": 718.5619999999763,
      "v": 127
    },
    {
      "midi": 72,
      "hit": false,
      "t": 66826.26600000024,
      "d": 718.5619999999763,
      "v": 127
    },
    {
      "midi": 65,
      "hit": false,
      "t": 67005.90650000023,
      "d": 179.64049999999406,
      "v": 95
    },
    {
      "midi": 65,
      "hit": false,
      "t": 67185.54700000022,
      "d": 179.64049999999406,
      "v": 95
    },
    {
      "midi": 65,
      "hit": false,
      "t": 67365.18750000022,
      "d": 179.64049999999406,
      "v": 95
    },
    {
      "midi": 64,
      "hit": false,
      "t": 67544.82800000021,
      "d": 179.64049999999406,
      "v": 95
    },
    {
      "midi": 67,
      "hit": false,
      "t": 67544.82800000021,
      "d": 718.5619999999763,
      "v": 127
    },
    {
      "midi": 74,
      "hit": false,
      "t": 67544.82800000021,
      "d": 718.5619999999763,
      "v": 127
    },
    {
      "midi": 72,
      "hit": false,
      "t": 67544.82800000021,
      "d": 718.5619999999763,
      "v": 127
    },
    {
      "midi": 64,
      "hit": false,
      "t": 67724.4685000002,
      "d": 179.64049999999406,
      "v": 95
    },
    {
      "midi": 64,
      "hit": false,
      "t": 67904.1090000002,
      "d": 179.64049999999406,
      "v": 95
    },
    {
      "midi": 64,
      "hit": false,
      "t": 68083.7495000002,
      "d": 179.64049999999406,
      "v": 95
    },
    {
      "midi": 64,
      "hit": false,
      "t": 68263.39000000019,
      "d": 179.64049999999406,
      "v": 95
    },
    {
      "midi": 76,
      "hit": false,
      "t": 68263.39000000019,
      "d": 718.5619999999763,
      "v": 127
    },
    {
      "midi": 64,
      "hit": false,
      "t": 68443.03050000018,
      "d": 179.64049999999406,
      "v": 95
    },
    {
      "midi": 64,
      "hit": false,
      "t": 68622.67100000018,
      "d": 179.64049999999406,
      "v": 95
    },
    {
      "midi": 64,
      "hit": false,
      "t": 68802.31150000017,
      "d": 179.64049999999406,
      "v": 95
    },
    {
      "midi": 62,
      "hit": false,
      "t": 68981.95200000016,
      "d": 179.64049999999406,
      "v": 95
    },
    {
      "midi": 65,
      "hit": false,
      "t": 68981.95200000016,
      "d": 718.5619999999763,
      "v": 127
    },
    {
      "midi": 69,
      "hit": false,
      "t": 68981.95200000016,
      "d": 718.5619999999763,
      "v": 127
    },
    {
      "midi": 72,
      "hit": false,
      "t": 68981.95200000016,
      "d": 718.5619999999763,
      "v": 127
    },
    {
      "midi": 62,
      "hit": false,
      "t": 69161.59250000016,
      "d": 179.64049999999406,
      "v": 95
    },
    {
      "midi": 62,
      "hit": false,
      "t": 69341.23300000015,
      "d": 179.64049999999406,
      "v": 95
    },
    {
      "midi": 62,
      "hit": false,
      "t": 69520.87350000015,
      "d": 179.64049999999406,
      "v": 95
    },
    {
      "midi": 62,
      "hit": false,
      "t": 69700.51400000014,
      "d": 179.64049999999406,
      "v": 95
    },
    {
      "midi": 62,
      "hit": false,
      "t": 69880.15450000014,
      "d": 179.64049999999406,
      "v": 95
    },
    {
      "midi": 62,
      "hit": false,
      "t": 70059.79500000013,
      "d": 179.64049999999406,
      "v": 95
    },
    {
      "midi": 72,
      "hit": false,
      "t": 70059.79500000013,
      "d": 359.2809999999881,
      "v": 127
    },
    {
      "midi": 62,
      "hit": false,
      "t": 70239.43550000012,
      "d": 179.64049999999406,
      "v": 95
    },
    {
      "midi": 67,
      "hit": false,
      "t": 70419.07600000012,
      "d": 179.64049999999406,
      "v": 95
    },
    {
      "midi": 74,
      "hit": false,
      "t": 70419.07600000012,
      "d": 359.2809999999881,
      "v": 127
    },
    {
      "midi": 67,
      "hit": false,
      "t": 70598.71650000011,
      "d": 179.64049999999406,
      "v": 95
    },
    {
      "midi": 67,
      "hit": false,
      "t": 70778.3570000001,
      "d": 179.64049999999406,
      "v": 95
    },
    {
      "midi": 76,
      "hit": false,
      "t": 70778.3570000001,
      "d": 359.2809999999881,
      "v": 127
    },
    {
      "midi": 67,
      "hit": false,
      "t": 70957.9975000001,
      "d": 179.64049999999406,
      "v": 95
    },
    {
      "midi": 67,
      "hit": false,
      "t": 71137.6380000001,
      "d": 179.64049999999406,
      "v": 95
    },
    {
      "midi": 69,
      "hit": false,
      "t": 71137.6380000001,
      "d": 718.5619999999763,
      "v": 127
    },
    {
      "midi": 72,
      "hit": false,
      "t": 71137.6380000001,
      "d": 718.5619999999763,
      "v": 127
    },
    {
      "midi": 77,
      "hit": false,
      "t": 71137.6380000001,
      "d": 718.5619999999763,
      "v": 127
    },
    {
      "midi": 67,
      "hit": false,
      "t": 71317.27850000009,
      "d": 179.64049999999406,
      "v": 95
    },
    {
      "midi": 67,
      "hit": false,
      "t": 71496.91900000008,
      "d": 179.64049999999406,
      "v": 95
    },
    {
      "midi": 67,
      "hit": false,
      "t": 71676.55950000008,
      "d": 179.64049999999406,
      "v": 95
    },
    {
      "midi": 74,
      "hit": false,
      "t": 71856.20000000007,
      "d": 179.64049999999406,
      "v": 95
    },
    {
      "midi": 69,
      "hit": false,
      "t": 71856.20000000007,
      "d": 718.5619999999763,
      "v": 127
    },
    {
      "midi": 66,
      "hit": false,
      "t": 71856.20000000007,
      "d": 718.5619999999763,
      "v": 127
    },
    {
      "midi": 74,
      "hit": false,
      "t": 72035.84050000006,
      "d": 179.64049999999406,
      "v": 95
    },
    {
      "midi": 74,
      "hit": false,
      "t": 72215.48100000006,
      "d": 179.64049999999406,
      "v": 95
    },
    {
      "midi": 74,
      "hit": false,
      "t": 72395.12150000005,
      "d": 179.64049999999406,
      "v": 95
    },
    {
      "midi": 74,
      "hit": false,
      "t": 72574.76200000005,
      "d": 179.64049999999406,
      "v": 95
    },
    {
      "midi": 78,
      "hit": false,
      "t": 72574.76200000005,
      "d": 359.2809999999881,
      "v": 127
    },
    {
      "midi": 74,
      "hit": false,
      "t": 72754.40250000004,
      "d": 179.64049999999406,
      "v": 95
    },
    {
      "midi": 74,
      "hit": false,
      "t": 72934.04300000003,
      "d": 179.64049999999406,
      "v": 95
    },
    {
      "midi": 78,
      "hit": false,
      "t": 72934.04300000003,
      "d": 359.2809999999881,
      "v": 127
    },
    {
      "midi": 74,
      "hit": false,
      "t": 73113.68350000003,
      "d": 179.64049999999406,
      "v": 95
    },
    {
      "midi": 73,
      "hit": false,
      "t": 73293.32400000002,
      "d": 179.64049999999406,
      "v": 95
    },
    {
      "midi": 69,
      "hit": false,
      "t": 73293.32400000002,
      "d": 359.2809999999881,
      "v": 127
    },
    {
      "midi": 76,
      "hit": false,
      "t": 73293.32400000002,
      "d": 359.2809999999881,
      "v": 127
    },
    {
      "midi": 73,
      "hit": false,
      "t": 73472.96450000002,
      "d": 179.64049999999406,
      "v": 95
    },
    {
      "midi": 73,
      "hit": false,
      "t": 73652.60500000001,
      "d": 179.64049999999406,
      "v": 95
    },
    {
      "midi": 76,
      "hit": false,
      "t": 73652.60500000001,
      "d": 359.2809999999881,
      "v": 127
    },
    {
      "midi": 73,
      "hit": false,
      "t": 73832.2455,
      "d": 179.64049999999406,
      "v": 95
    },
    {
      "midi": 73,
      "hit": false,
      "t": 74011.886,
      "d": 179.64049999999406,
      "v": 95
    },
    {
      "midi": 78,
      "hit": false,
      "t": 74011.886,
      "d": 359.2809999999881,
      "v": 127
    },
    {
      "midi": 73,
      "hit": false,
      "t": 74191.52649999999,
      "d": 179.64049999999406,
      "v": 95
    },
    {
      "midi": 73,
      "hit": false,
      "t": 74371.16699999999,
      "d": 179.64049999999406,
      "v": 95
    },
    {
      "midi": 81,
      "hit": false,
      "t": 74371.16699999999,
      "d": 359.2809999999881,
      "v": 127
    },
    {
      "midi": 73,
      "hit": false,
      "t": 74550.80749999998,
      "d": 179.64049999999406,
      "v": 95
    },
    {
      "midi": 71,
      "hit": false,
      "t": 74730.44799999997,
      "d": 179.64049999999406,
      "v": 95
    },
    {
      "midi": 74,
      "hit": false,
      "t": 74730.44799999997,
      "d": 718.5619999999763,
      "v": 127
    },
    {
      "midi": 71,
      "hit": false,
      "t": 74910.08849999997,
      "d": 179.64049999999406,
      "v": 95
    },
    {
      "midi": 71,
      "hit": false,
      "t": 75089.72899999996,
      "d": 179.64049999999406,
      "v": 95
    },
    {
      "midi": 71,
      "hit": false,
      "t": 75269.36949999996,
      "d": 179.64049999999406,
      "v": 95
    },
    {
      "midi": 71,
      "hit": false,
      "t": 75449.00999999995,
      "d": 179.64049999999406,
      "v": 95
    },
    {
      "midi": 71,
      "hit": false,
      "t": 75628.65049999995,
      "d": 179.64049999999406,
      "v": 95
    },
    {
      "midi": 71,
      "hit": false,
      "t": 75808.29099999994,
      "d": 179.64049999999406,
      "v": 95
    },
    {
      "midi": 83,
      "hit": false,
      "t": 75808.29099999994,
      "d": 359.2809999999881,
      "v": 127
    },
    {
      "midi": 71,
      "hit": false,
      "t": 75987.93149999993,
      "d": 179.64049999999406,
      "v": 95
    },
    {
      "midi": 69,
      "hit": false,
      "t": 76167.57199999993,
      "d": 179.64049999999406,
      "v": 95
    },
    {
      "midi": 72,
      "hit": false,
      "t": 76167.57199999993,
      "d": 359.2809999999881,
      "v": 127
    },
    {
      "midi": 81,
      "hit": false,
      "t": 76167.57199999993,
      "d": 359.2809999999881,
      "v": 127
    },
    {
      "midi": 69,
      "hit": false,
      "t": 76347.21249999992,
      "d": 179.64049999999406,
      "v": 95
    },
    {
      "midi": 69,
      "hit": false,
      "t": 76526.85299999992,
      "d": 179.64049999999406,
      "v": 95
    },
    {
      "midi": 79,
      "hit": false,
      "t": 76526.85299999992,
      "d": 359.2809999999881,
      "v": 127
    },
    {
      "midi": 69,
      "hit": false,
      "t": 76706.49349999991,
      "d": 179.64049999999406,
      "v": 95
    },
    {
      "midi": 69,
      "hit": false,
      "t": 76886.1339999999,
      "d": 179.64049999999406,
      "v": 95
    },
    {
      "midi": 78,
      "hit": false,
      "t": 76886.1339999999,
      "d": 359.2809999999881,
      "v": 127
    },
    {
      "midi": 69,
      "hit": false,
      "t": 77065.7744999999,
      "d": 179.64049999999406,
      "v": 95
    },
    {
      "midi": 69,
      "hit": false,
      "t": 77245.41499999989,
      "d": 179.64049999999406,
      "v": 95
    },
    {
      "midi": 79,
      "hit": false,
      "t": 77245.41499999989,
      "d": 359.2809999999881,
      "v": 127
    },
    {
      "midi": 69,
      "hit": false,
      "t": 77425.05549999989,
      "d": 179.64049999999406,
      "v": 95
    },
    {
      "midi": 67,
      "hit": false,
      "t": 77604.69599999988,
      "d": 179.64049999999406,
      "v": 95
    },
    {
      "midi": 71,
      "hit": false,
      "t": 77604.69599999988,
      "d": 538.9214999999822,
      "v": 127
    },
    {
      "midi": 81,
      "hit": false,
      "t": 77604.69599999988,
      "d": 538.9214999999822,
      "v": 127
    },
    {
      "midi": 67,
      "hit": false,
      "t": 77784.33649999987,
      "d": 179.64049999999406,
      "v": 95
    },
    {
      "midi": 67,
      "hit": false,
      "t": 77963.97699999987,
      "d": 179.64049999999406,
      "v": 95
    },
    {
      "midi": 67,
      "hit": false,
      "t": 78143.61749999986,
      "d": 179.64049999999406,
      "v": 95
    },
    {
      "midi": 74,
      "hit": false,
      "t": 78143.61749999986,
      "d": 179.64049999999406,
      "v": 127
    },
    {
      "midi": 67,
      "hit": false,
      "t": 78323.25799999986,
      "d": 179.64049999999406,
      "v": 95
    },
    {
      "midi": 71,
      "hit": false,
      "t": 78323.25799999986,
      "d": 718.5619999999763,
      "v": 127
    },
    {
      "midi": 74,
      "hit": false,
      "t": 78323.25799999986,
      "d": 718.5619999999763,
      "v": 127
    },
    {
      "midi": 67,
      "hit": false,
      "t": 78502.89849999985,
      "d": 179.64049999999406,
      "v": 95
    },
    {
      "midi": 67,
      "hit": false,
      "t": 78682.53899999984,
      "d": 179.64049999999406,
      "v": 95
    },
    {
      "midi": 67,
      "hit": false,
      "t": 78862.17949999984,
      "d": 179.64049999999406,
      "v": 95
    },
    {
      "midi": 66,
      "hit": false,
      "t": 79041.81999999983,
      "d": 179.64049999999406,
      "v": 95
    },
    {
      "midi": 74,
      "hit": false,
      "t": 79041.81999999983,
      "d": 718.5619999999763,
      "v": 127
    },
    {
      "midi": 76,
      "hit": false,
      "t": 79041.81999999983,
      "d": 718.5619999999763,
      "v": 127
    },
    {
      "midi": 66,
      "hit": false,
      "t": 79221.46049999983,
      "d": 179.64049999999406,
      "v": 95
    },
    {
      "midi": 66,
      "hit": false,
      "t": 79401.10099999982,
      "d": 179.64049999999406,
      "v": 95
    },
    {
      "midi": 66,
      "hit": false,
      "t": 79580.74149999981,
      "d": 179.64049999999406,
      "v": 95
    },
    {
      "midi": 66,
      "hit": false,
      "t": 79760.38199999981,
      "d": 179.64049999999406,
      "v": 95
    },
    {
      "midi": 78,
      "hit": false,
      "t": 79760.38199999981,
      "d": 718.5619999999763,
      "v": 127
    },
    {
      "midi": 66,
      "hit": false,
      "t": 79940.0224999998,
      "d": 179.64049999999406,
      "v": 95
    },
    {
      "midi": 66,
      "hit": false,
      "t": 80119.6629999998,
      "d": 179.64049999999406,
      "v": 95
    },
    {
      "midi": 66,
      "hit": false,
      "t": 80299.30349999979,
      "d": 179.64049999999406,
      "v": 95
    },
    {
      "midi": 64,
      "hit": false,
      "t": 80478.94399999978,
      "d": 179.64049999999406,
      "v": 95
    },
    {
      "midi": 67,
      "hit": false,
      "t": 80478.94399999978,
      "d": 1437.1239999999525,
      "v": 127
    },
    {
      "midi": 71,
      "hit": false,
      "t": 80478.94399999978,
      "d": 1437.1239999999525,
      "v": 127
    },
    {
      "midi": 74,
      "hit": false,
      "t": 80478.94399999978,
      "d": 1437.1239999999525,
      "v": 127
    },
    {
      "midi": 64,
      "hit": false,
      "t": 80658.58449999978,
      "d": 179.64049999999406,
      "v": 95
    },
    {
      "midi": 64,
      "hit": false,
      "t": 80838.22499999977,
      "d": 179.64049999999406,
      "v": 95
    },
    {
      "midi": 64,
      "hit": false,
      "t": 81017.86549999977,
      "d": 179.64049999999406,
      "v": 95
    },
    {
      "midi": 64,
      "hit": false,
      "t": 81197.50599999976,
      "d": 179.64049999999406,
      "v": 95
    },
    {
      "midi": 64,
      "hit": false,
      "t": 81377.14649999976,
      "d": 179.64049999999406,
      "v": 95
    },
    {
      "midi": 64,
      "hit": false,
      "t": 81556.78699999975,
      "d": 179.64049999999406,
      "v": 95
    },
    {
      "midi": 64,
      "hit": false,
      "t": 81736.42749999974,
      "d": 179.64049999999406,
      "v": 95
    },
    {
      "midi": 69,
      "hit": false,
      "t": 81916.06799999974,
      "d": 179.64049999999406,
      "v": 95
    },
    {
      "midi": 78,
      "hit": false,
      "t": 81916.06799999974,
      "d": 718.5619999999763,
      "v": 127
    },
    {
      "midi": 69,
      "hit": false,
      "t": 82095.70849999973,
      "d": 179.64049999999406,
      "v": 95
    },
    {
      "midi": 69,
      "hit": false,
      "t": 82275.34899999973,
      "d": 179.64049999999406,
      "v": 95
    },
    {
      "midi": 69,
      "hit": false,
      "t": 82454.98949999972,
      "d": 179.64049999999406,
      "v": 95
    },
    {
      "midi": 69,
      "hit": false,
      "t": 82634.62999999971,
      "d": 179.64049999999406,
      "v": 95
    },
    {
      "midi": 79,
      "hit": false,
      "t": 82634.62999999971,
      "d": 718.5619999999763,
      "v": 127
    },
    {
      "midi": 69,
      "hit": false,
      "t": 82814.27049999971,
      "d": 179.64049999999406,
      "v": 95
    },
    {
      "midi": 69,
      "hit": false,
      "t": 82993.9109999997,
      "d": 179.64049999999406,
      "v": 95
    },
    {
      "midi": 69,
      "hit": false,
      "t": 83173.5514999997,
      "d": 179.64049999999406,
      "v": 95
    },
    {
      "midi": 79,
      "hit": false,
      "t": 83353.19199999969,
      "d": 179.64049999999406,
      "v": 127
    },
    {
      "midi": 72,
      "hit": false,
      "t": 83353.19199999969,
      "d": 538.9214999999822,
      "v": 95
    },
    {
      "midi": 79,
      "hit": false,
      "t": 83532.83249999968,
      "d": 179.64049999999406,
      "v": 127
    },
    {
      "midi": 76,
      "hit": false,
      "t": 83712.47299999968,
      "d": 179.64049999999406,
      "v": 127
    },
    {
      "midi": 72,
      "hit": false,
      "t": 83892.11349999967,
      "d": 179.64049999999406,
      "v": 95
    },
    {
      "midi": 79,
      "hit": false,
      "t": 83892.11349999967,
      "d": 179.64049999999406,
      "v": 127
    },
    {
      "midi": 64,
      "hit": false,
      "t": 84071.75399999967,
      "d": 538.9214999999967,
      "v": 95
    },
    {
      "midi": 64,
      "hit": false,
      "t": 84610.67549999966,
      "d": 179.64049999999406,
      "v": 95
    },
    {
      "midi": 62,
      "hit": false,
      "t": 84790.31599999966,
      "d": 538.9214999999967,
      "v": 95
    },
    {
      "midi": 62,
      "hit": false,
      "t": 85329.23749999965,
      "d": 179.64049999999406,
      "v": 95
    },
    {
      "midi": 76,
      "hit": false,
      "t": 85329.23749999965,
      "d": 179.64049999999406,
      "v": 127
    },
    {
      "midi": 76,
      "hit": false,
      "t": 85508.87799999965,
      "d": 179.64049999999406,
      "v": 127
    },
    {
      "midi": 67,
      "hit": false,
      "t": 85508.87799999965,
      "d": 538.9214999999822,
      "v": 95
    },
    {
      "midi": 76,
      "hit": false,
      "t": 85688.51849999964,
      "d": 179.64049999999406,
      "v": 127
    },
    {
      "midi": 77,
      "hit": false,
      "t": 85868.15899999964,
      "d": 179.64049999999406,
      "v": 127
    },
    {
      "midi": 67,
      "hit": false,
      "t": 86047.79949999963,
      "d": 179.64049999999406,
      "v": 95
    },
    {
      "midi": 77,
      "hit": false,
      "t": 86047.79949999963,
      "d": 179.64049999999406,
      "v": 127
    },
    {
      "midi": 79,
      "hit": false,
      "t": 86227.43999999962,
      "d": 179.64049999999406,
      "v": 127
    },
    {
      "midi": 72,
      "hit": false,
      "t": 86227.43999999962,
      "d": 538.9214999999822,
      "v": 95
    },
    {
      "midi": 79,
      "hit": false,
      "t": 86407.08049999962,
      "d": 179.64049999999406,
      "v": 127
    },
    {
      "midi": 81,
      "hit": false,
      "t": 86586.72099999961,
      "d": 179.64049999999406,
      "v": 127
    },
    {
      "midi": 72,
      "hit": false,
      "t": 86766.3614999996,
      "d": 179.64049999999406,
      "v": 95
    },
    {
      "midi": 79,
      "hit": false,
      "t": 86766.3614999996,
      "d": 359.2809999999881,
      "v": 127
    },
    {
      "midi": 64,
      "hit": false,
      "t": 86946.0019999996,
      "d": 538.9214999999967,
      "v": 95
    },
    {
      "midi": 76,
      "hit": false,
      "t": 87125.6424999996,
      "d": 359.2810000000027,
      "v": 127
    },
    {
      "midi": 64,
      "hit": false,
      "t": 87484.9234999996,
      "d": 179.64049999999406,
      "v": 95
    },
    {
      "midi": 72,
      "hit": false,
      "t": 87484.9234999996,
      "d": 538.9214999999967,
      "v": 127
    },
    {
      "midi": 62,
      "hit": false,
      "t": 87664.56399999959,
      "d": 538.9214999999967,
      "v": 95
    },
    {
      "midi": 62,
      "hit": false,
      "t": 88203.48549999959,
      "d": 179.64049999999406,
      "v": 95
    },
    {
      "midi": 76,
      "hit": false,
      "t": 88383.12599999958,
      "d": 179.64049999999406,
      "v": 127
    },
    {
      "midi": 67,
      "hit": false,
      "t": 88383.12599999958,
      "d": 538.9214999999822,
      "v": 95
    },
    {
      "midi": 76,
      "hit": false,
      "t": 88562.76649999958,
      "d": 179.64049999999406,
      "v": 127
    },
    {
      "midi": 77,
      "hit": false,
      "t": 88742.40699999957,
      "d": 179.64049999999406,
      "v": 127
    },
    {
      "midi": 67,
      "hit": false,
      "t": 88922.04749999956,
      "d": 179.64049999999406,
      "v": 95
    },
    {
      "midi": 77,
      "hit": false,
      "t": 88922.04749999956,
      "d": 179.64049999999406,
      "v": 127
    },
    {
      "midi": 79,
      "hit": false,
      "t": 89101.68799999956,
      "d": 179.64049999999406,
      "v": 127
    },
    {
      "midi": 65,
      "hit": false,
      "t": 89101.68799999956,
      "d": 538.9214999999822,
      "v": 95
    },
    {
      "midi": 79,
      "hit": false,
      "t": 89281.32849999955,
      "d": 179.64049999999406,
      "v": 127
    },
    {
      "midi": 76,
      "hit": false,
      "t": 89460.96899999955,
      "d": 179.64049999999406,
      "v": 127
    },
    {
      "midi": 65,
      "hit": false,
      "t": 89640.60949999954,
      "d": 179.64049999999406,
      "v": 95
    },
    {
      "midi": 79,
      "hit": false,
      "t": 89640.60949999954,
      "d": 359.2809999999881,
      "v": 127
    },
    {
      "midi": 64,
      "hit": false,
      "t": 89820.24999999953,
      "d": 538.9214999999967,
      "v": 95
    },
    {
      "midi": 76,
      "hit": false,
      "t": 89999.89049999953,
      "d": 359.2810000000027,
      "v": 127
    },
    {
      "midi": 64,
      "hit": false,
      "t": 90359.17149999953,
      "d": 179.64049999999406,
      "v": 95
    },
    {
      "midi": 74,
      "hit": false,
      "t": 90359.17149999953,
      "d": 359.2809999999881,
      "v": 127
    },
    {
      "midi": 62,
      "hit": false,
      "t": 90538.81199999953,
      "d": 538.9214999999967,
      "v": 95
    },
    {
      "midi": 72,
      "hit": false,
      "t": 90718.45249999952,
      "d": 359.2810000000027,
      "v": 127
    },
    {
      "midi": 62,
      "hit": false,
      "t": 91077.73349999952,
      "d": 179.64049999999406,
      "v": 95
    },
    {
      "midi": 76,
      "hit": false,
      "t": 91077.73349999952,
      "d": 179.64049999999406,
      "v": 127
    },
    {
      "midi": 77,
      "hit": false,
      "t": 91257.37399999952,
      "d": 179.64049999999406,
      "v": 127
    },
    {
      "midi": 67,
      "hit": false,
      "t": 91257.37399999952,
      "d": 538.9214999999822,
      "v": 95
    },
    {
      "midi": 76,
      "hit": false,
      "t": 91437.01449999951,
      "d": 179.64049999999406,
      "v": 127
    },
    {
      "midi": 74,
      "hit": false,
      "t": 91616.6549999995,
      "d": 179.64049999999406,
      "v": 127
    },
    {
      "midi": 67,
      "hit": false,
      "t": 91796.2954999995,
      "d": 179.64049999999406,
      "v": 95
    },
    {
      "midi": 76,
      "hit": false,
      "t": 91796.2954999995,
      "d": 179.64049999999406,
      "v": 127
    },
    {
      "midi": 72,
      "hit": false,
      "t": 91975.93599999949,
      "d": 179.64049999999406,
      "v": 95
    },
    {
      "midi": 71,
      "hit": false,
      "t": 92155.57649999949,
      "d": 179.64049999999406,
      "v": 127
    },
    {
      "midi": 69,
      "hit": false,
      "t": 92335.21699999948,
      "d": 179.64049999999406,
      "v": 127
    },
    {
      "midi": 71,
      "hit": false,
      "t": 92514.85749999947,
      "d": 179.64049999999406,
      "v": 127
    },
    {
      "midi": 72,
      "hit": false,
      "t": 92694.49799999947,
      "d": 179.64049999999406,
      "v": 127
    },
    {
      "midi": 67,
      "hit": false,
      "t": 93053.77899999946,
      "d": 179.64049999999406,
      "v": 127
    },
    {
      "midi": 67,
      "hit": false,
      "t": 93413.05999999944,
      "d": 179.64049999999406,
      "v": 127
    },
    {
      "midi": 65,
      "hit": false,
      "t": 93592.70049999944,
      "d": 179.64049999999406,
      "v": 127
    },
    {
      "midi": 64,
      "hit": false,
      "t": 93772.34099999943,
      "d": 179.64049999999406,
      "v": 127
    },
    {
      "midi": 62,
      "hit": false,
      "t": 93951.98149999943,
      "d": 179.64049999999406,
      "v": 127
    },
    {
      "midi": 60,
      "hit": false,
      "t": 94131.62199999942,
      "d": 359.2810000000027,
      "v": 127
    },
    {
      "midi": 75,
      "hit": false,
      "t": 94850.18399999943,
      "d": 359.2810000000027,
      "v": 95
    },
    {
      "midi": 72,
      "hit": false,
      "t": 94850.18399999943,
      "d": 359.2810000000027,
      "v": 95
    },
    {
      "midi": 72,
      "hit": false,
      "t": 95209.46499999943,
      "d": 359.2810000000027,
      "v": 95
    },
    {
      "midi": 75,
      "hit": false,
      "t": 95209.46499999943,
      "d": 359.2810000000027,
      "v": 95
    },
    {
      "midi": 79,
      "hit": false,
      "t": 95209.46499999943,
      "d": 359.2810000000027,
      "v": 127
    },
    {
      "midi": 77,
      "hit": false,
      "t": 95568.74599999943,
      "d": 179.64049999999406,
      "v": 127
    },
    {
      "midi": 72,
      "hit": false,
      "t": 95568.74599999943,
      "d": 359.2809999999881,
      "v": 95
    },
    {
      "midi": 75,
      "hit": false,
      "t": 95568.74599999943,
      "d": 359.2809999999881,
      "v": 95
    },
    {
      "midi": 79,
      "hit": false,
      "t": 95748.38649999943,
      "d": 359.2809999999881,
      "v": 127
    },
    {
      "midi": 72,
      "hit": false,
      "t": 95928.02699999942,
      "d": 359.2809999999881,
      "v": 95
    },
    {
      "midi": 75,
      "hit": false,
      "t": 95928.02699999942,
      "d": 359.2809999999881,
      "v": 95
    },
    {
      "midi": 77,
      "hit": false,
      "t": 96107.66749999941,
      "d": 359.2809999999881,
      "v": 127
    },
    {
      "midi": 67,
      "hit": false,
      "t": 96287.30799999941,
      "d": 359.2809999999881,
      "v": 95
    },
    {
      "midi": 71,
      "hit": false,
      "t": 96287.30799999941,
      "d": 359.2809999999881,
      "v": 95
    },
    {
      "midi": 74,
      "hit": false,
      "t": 96466.9484999994,
      "d": 179.64049999999406,
      "v": 127
    },
    {
      "midi": 67,
      "hit": false,
      "t": 96646.5889999994,
      "d": 359.2810000000027,
      "v": 95
    },
    {
      "midi": 71,
      "hit": false,
      "t": 96646.5889999994,
      "d": 359.2810000000027,
      "v": 95
    },
    {
      "midi": 74,
      "hit": false,
      "t": 96646.5889999994,
      "d": 359.2810000000027,
      "v": 95
    },
    {
      "midi": 67,
      "hit": false,
      "t": 97005.8699999994,
      "d": 359.2810000000027,
      "v": 95
    },
    {
      "midi": 71,
      "hit": false,
      "t": 97005.8699999994,
      "d": 359.2810000000027,
      "v": 95
    },
    {
      "midi": 74,
      "hit": false,
      "t": 97005.8699999994,
      "d": 359.2810000000027,
      "v": 95
    },
    {
      "midi": 67,
      "hit": false,
      "t": 97365.1509999994,
      "d": 359.2809999999881,
      "v": 95
    },
    {
      "midi": 71,
      "hit": false,
      "t": 97365.1509999994,
      "d": 359.2809999999881,
      "v": 95
    },
    {
      "midi": 74,
      "hit": false,
      "t": 97544.7914999994,
      "d": 179.64049999999406,
      "v": 127
    },
    {
      "midi": 74,
      "hit": false,
      "t": 97724.43199999939,
      "d": 179.64049999999406,
      "v": 95
    },
    {
      "midi": 67,
      "hit": false,
      "t": 97724.43199999939,
      "d": 359.2809999999881,
      "v": 95
    },
    {
      "midi": 71,
      "hit": false,
      "t": 97724.43199999939,
      "d": 359.2809999999881,
      "v": 95
    },
    {
      "midi": 74,
      "hit": false,
      "t": 97904.07249999938,
      "d": 179.64049999999406,
      "v": 127
    },
    {
      "midi": 74,
      "hit": false,
      "t": 98083.71299999938,
      "d": 179.64049999999406,
      "v": 95
    },
    {
      "midi": 71,
      "hit": false,
      "t": 98083.71299999938,
      "d": 359.2809999999881,
      "v": 95
    },
    {
      "midi": 67,
      "hit": false,
      "t": 98083.71299999938,
      "d": 359.2809999999881,
      "v": 95
    },
    {
      "midi": 74,
      "hit": false,
      "t": 98263.35349999937,
      "d": 179.64049999999406,
      "v": 127
    },
    {
      "midi": 77,
      "hit": false,
      "t": 98442.99399999937,
      "d": 179.64049999999406,
      "v": 127
    },
    {
      "midi": 74,
      "hit": false,
      "t": 98442.99399999937,
      "d": 359.2809999999881,
      "v": 95
    },
    {
      "midi": 71,
      "hit": false,
      "t": 98442.99399999937,
      "d": 359.2809999999881,
      "v": 95
    },
    {
      "midi": 67,
      "hit": false,
      "t": 98442.99399999937,
      "d": 359.2809999999881,
      "v": 95
    },
    {
      "midi": 75,
      "hit": false,
      "t": 98622.63449999936,
      "d": 179.64049999999406,
      "v": 127
    },
    {
      "midi": 74,
      "hit": false,
      "t": 98802.27499999935,
      "d": 179.64049999999406,
      "v": 95
    },
    {
      "midi": 71,
      "hit": false,
      "t": 98802.27499999935,
      "d": 359.2809999999881,
      "v": 95
    },
    {
      "midi": 67,
      "hit": false,
      "t": 98802.27499999935,
      "d": 359.2809999999881,
      "v": 95
    },
    {
      "midi": 72,
      "hit": false,
      "t": 99161.55599999934,
      "d": 359.2810000000027,
      "v": 95
    },
    {
      "midi": 75,
      "hit": false,
      "t": 99161.55599999934,
      "d": 359.2810000000027,
      "v": 95
    },
    {
      "midi": 72,
      "hit": false,
      "t": 99520.83699999934,
      "d": 359.2810000000027,
      "v": 95
    },
    {
      "midi": 75,
      "hit": false,
      "t": 99520.83699999934,
      "d": 359.2810000000027,
      "v": 95
    },
    {
      "midi": 75,
      "hit": false,
      "t": 99880.11799999935,
      "d": 359.2810000000027,
      "v": 95
    },
    {
      "midi": 72,
      "hit": false,
      "t": 99880.11799999935,
      "d": 359.2810000000027,
      "v": 95
    },
    {
      "midi": 75,
      "hit": false,
      "t": 100239.39899999935,
      "d": 359.2810000000027,
      "v": 95
    },
    {
      "midi": 72,
      "hit": false,
      "t": 100239.39899999935,
      "d": 359.2810000000027,
      "v": 95
    },
    {
      "midi": 72,
      "hit": false,
      "t": 100598.67999999935,
      "d": 179.64049999999406,
      "v": 95
    },
    {
      "midi": 75,
      "hit": false,
      "t": 100598.67999999935,
      "d": 359.2809999999881,
      "v": 95
    },
    {
      "midi": 72,
      "hit": false,
      "t": 100778.32049999935,
      "d": 179.64049999999406,
      "v": 127
    },
    {
      "midi": 72,
      "hit": false,
      "t": 100957.96099999934,
      "d": 359.2810000000027,
      "v": 95
    },
    {
      "midi": 75,
      "hit": false,
      "t": 100957.96099999934,
      "d": 359.2810000000027,
      "v": 95
    },
    {
      "midi": 79,
      "hit": false,
      "t": 100957.96099999934,
      "d": 359.2810000000027,
      "v": 127
    },
    {
      "midi": 77,
      "hit": false,
      "t": 101317.24199999934,
      "d": 179.64049999999406,
      "v": 127
    },
    {
      "midi": 72,
      "hit": false,
      "t": 101317.24199999934,
      "d": 359.2809999999881,
      "v": 95
    },
    {
      "midi": 75,
      "hit": false,
      "t": 101317.24199999934,
      "d": 359.2809999999881,
      "v": 95
    },
    {
      "midi": 79,
      "hit": false,
      "t": 101496.88249999934,
      "d": 359.2809999999881,
      "v": 127
    },
    {
      "midi": 72,
      "hit": false,
      "t": 101676.52299999933,
      "d": 359.2809999999881,
      "v": 95
    },
    {
      "midi": 75,
      "hit": false,
      "t": 101676.52299999933,
      "d": 359.2809999999881,
      "v": 95
    },
    {
      "midi": 77,
      "hit": false,
      "t": 101856.16349999933,
      "d": 359.2809999999881,
      "v": 127
    },
    {
      "midi": 67,
      "hit": false,
      "t": 102035.80399999932,
      "d": 359.2809999999881,
      "v": 95
    },
    {
      "midi": 71,
      "hit": false,
      "t": 102035.80399999932,
      "d": 359.2809999999881,
      "v": 95
    },
    {
      "midi": 74,
      "hit": false,
      "t": 102215.44449999931,
      "d": 179.64049999999406,
      "v": 127
    },
    {
      "midi": 74,
      "hit": false,
      "t": 102395.08499999931,
      "d": 179.64049999999406,
      "v": 95
    },
    {
      "midi": 67,
      "hit": false,
      "t": 102395.08499999931,
      "d": 359.2809999999881,
      "v": 95
    },
    {
      "midi": 71,
      "hit": false,
      "t": 102574.7254999993,
      "d": 179.64049999999406,
      "v": 127
    },
    {
      "midi": 67,
      "hit": false,
      "t": 102754.3659999993,
      "d": 359.2810000000027,
      "v": 95
    },
    {
      "midi": 71,
      "hit": false,
      "t": 102754.3659999993,
      "d": 359.2810000000027,
      "v": 95
    },
    {
      "midi": 74,
      "hit": false,
      "t": 102754.3659999993,
      "d": 359.2810000000027,
      "v": 95
    },
    {
      "midi": 67,
      "hit": false,
      "t": 103113.6469999993,
      "d": 359.2810000000027,
      "v": 95
    },
    {
      "midi": 71,
      "hit": false,
      "t": 103113.6469999993,
      "d": 359.2810000000027,
      "v": 95
    },
    {
      "midi": 74,
      "hit": false,
      "t": 103113.6469999993,
      "d": 359.2810000000027,
      "v": 95
    },
    {
      "midi": 67,
      "hit": false,
      "t": 103472.9279999993,
      "d": 359.2810000000027,
      "v": 95
    },
    {
      "midi": 71,
      "hit": false,
      "t": 103472.9279999993,
      "d": 359.2810000000027,
      "v": 95
    },
    {
      "midi": 74,
      "hit": false,
      "t": 103472.9279999993,
      "d": 359.2810000000027,
      "v": 95
    },
    {
      "midi": 77,
      "hit": false,
      "t": 103472.9279999993,
      "d": 359.2810000000027,
      "v": 127
    },
    {
      "midi": 79,
      "hit": false,
      "t": 103832.2089999993,
      "d": 179.64049999999406,
      "v": 127
    },
    {
      "midi": 74,
      "hit": false,
      "t": 103832.2089999993,
      "d": 359.2809999999881,
      "v": 95
    },
    {
      "midi": 71,
      "hit": false,
      "t": 103832.2089999993,
      "d": 359.2809999999881,
      "v": 95
    },
    {
      "midi": 67,
      "hit": false,
      "t": 103832.2089999993,
      "d": 359.2809999999881,
      "v": 95
    },
    {
      "midi": 77,
      "hit": false,
      "t": 104011.8494999993,
      "d": 179.64049999999406,
      "v": 127
    },
    {
      "midi": 75,
      "hit": false,
      "t": 104191.48999999929,
      "d": 179.64049999999406,
      "v": 127
    },
    {
      "midi": 71,
      "hit": false,
      "t": 104191.48999999929,
      "d": 359.2809999999881,
      "v": 95
    },
    {
      "midi": 67,
      "hit": false,
      "t": 104191.48999999929,
      "d": 359.2809999999881,
      "v": 95
    },
    {
      "midi": 74,
      "hit": false,
      "t": 104371.13049999929,
      "d": 179.64049999999406,
      "v": 127
    },
    {
      "midi": 74,
      "hit": false,
      "t": 104550.77099999928,
      "d": 179.64049999999406,
      "v": 95
    },
    {
      "midi": 71,
      "hit": false,
      "t": 104550.77099999928,
      "d": 359.2809999999881,
      "v": 95
    },
    {
      "midi": 67,
      "hit": false,
      "t": 104550.77099999928,
      "d": 359.2809999999881,
      "v": 95
    },
    {
      "midi": 72,
      "hit": false,
      "t": 104910.05199999927,
      "d": 359.2810000000027,
      "v": 95
    },
    {
      "midi": 75,
      "hit": false,
      "t": 104910.05199999927,
      "d": 359.2810000000027,
      "v": 95
    },
    {
      "midi": 67,
      "hit": false,
      "t": 106347.17599999926,
      "d": 359.2810000000027,
      "v": 95
    },
    {
      "midi": 72,
      "hit": false,
      "t": 106347.17599999926,
      "d": 359.2810000000027,
      "v": 95
    },
    {
      "midi": 76,
      "hit": false,
      "t": 106347.17599999926,
      "d": 359.2810000000027,
      "v": 95
    },
    {
      "midi": 48,
      "hit": false,
      "t": 106347.17599999926,
      "d": 2874.2479999999923,
      "v": 95
    },
    {
      "midi": 67,
      "hit": false,
      "t": 106706.45699999927,
      "d": 179.64049999999406,
      "v": 95
    },
    {
      "midi": 72,
      "hit": false,
      "t": 106706.45699999927,
      "d": 179.64049999999406,
      "v": 95
    },
    {
      "midi": 76,
      "hit": false,
      "t": 106706.45699999927,
      "d": 179.64049999999406,
      "v": 95
    },
    {
      "midi": 67,
      "hit": false,
      "t": 106886.09749999926,
      "d": 359.2810000000027,
      "v": 95
    },
    {
      "midi": 72,
      "hit": false,
      "t": 106886.09749999926,
      "d": 359.2810000000027,
      "v": 95
    },
    {
      "midi": 76,
      "hit": false,
      "t": 106886.09749999926,
      "d": 359.2810000000027,
      "v": 95
    },
    {
      "midi": 67,
      "hit": false,
      "t": 107245.37849999926,
      "d": 179.64049999999406,
      "v": 95
    },
    {
      "midi": 72,
      "hit": false,
      "t": 107245.37849999926,
      "d": 179.64049999999406,
      "v": 95
    },
    {
      "midi": 76,
      "hit": false,
      "t": 107245.37849999926,
      "d": 179.64049999999406,
      "v": 95
    },
    {
      "midi": 67,
      "hit": false,
      "t": 107425.01899999926,
      "d": 359.2810000000027,
      "v": 95
    },
    {
      "midi": 72,
      "hit": false,
      "t": 107425.01899999926,
      "d": 359.2810000000027,
      "v": 95
    },
    {
      "midi": 76,
      "hit": false,
      "t": 107425.01899999926,
      "d": 359.2810000000027,
      "v": 95
    },
    {
      "midi": 67,
      "hit": false,
      "t": 107784.29999999926,
      "d": 359.2810000000027,
      "v": 95
    },
    {
      "midi": 72,
      "hit": false,
      "t": 107784.29999999926,
      "d": 359.2810000000027,
      "v": 95
    },
    {
      "midi": 76,
      "hit": false,
      "t": 107784.29999999926,
      "d": 359.2810000000027,
      "v": 95
    },
    {
      "midi": 67,
      "hit": false,
      "t": 108143.58099999926,
      "d": 179.64049999999406,
      "v": 95
    },
    {
      "midi": 72,
      "hit": false,
      "t": 108143.58099999926,
      "d": 179.64049999999406,
      "v": 95
    },
    {
      "midi": 76,
      "hit": false,
      "t": 108143.58099999926,
      "d": 179.64049999999406,
      "v": 95
    },
    {
      "midi": 67,
      "hit": false,
      "t": 108323.22149999926,
      "d": 359.2810000000027,
      "v": 95
    },
    {
      "midi": 72,
      "hit": false,
      "t": 108323.22149999926,
      "d": 359.2810000000027,
      "v": 95
    },
    {
      "midi": 76,
      "hit": false,
      "t": 108323.22149999926,
      "d": 359.2810000000027,
      "v": 95
    },
    {
      "midi": 67,
      "hit": false,
      "t": 108682.50249999926,
      "d": 179.64049999999406,
      "v": 95
    },
    {
      "midi": 72,
      "hit": false,
      "t": 108682.50249999926,
      "d": 179.64049999999406,
      "v": 95
    },
    {
      "midi": 76,
      "hit": false,
      "t": 108682.50249999926,
      "d": 179.64049999999406,
      "v": 95
    },
    {
      "midi": 67,
      "hit": false,
      "t": 108862.14299999925,
      "d": 359.2810000000027,
      "v": 95
    },
    {
      "midi": 72,
      "hit": false,
      "t": 108862.14299999925,
      "d": 359.2810000000027,
      "v": 95
    },
    {
      "midi": 76,
      "hit": false,
      "t": 108862.14299999925,
      "d": 359.2810000000027,
      "v": 95
    },
    {
      "midi": 65,
      "hit": false,
      "t": 109221.42399999926,
      "d": 359.2810000000027,
      "v": 95
    },
    {
      "midi": 69,
      "hit": false,
      "t": 109221.42399999926,
      "d": 359.2810000000027,
      "v": 95
    },
    {
      "midi": 76,
      "hit": false,
      "t": 109221.42399999926,
      "d": 359.2810000000027,
      "v": 95
    },
    {
      "midi": 48,
      "hit": false,
      "t": 109221.42399999926,
      "d": 2874.2479999999923,
      "v": 95
    },
    {
      "midi": 65,
      "hit": false,
      "t": 109580.70499999926,
      "d": 179.64049999999406,
      "v": 95
    },
    {
      "midi": 69,
      "hit": false,
      "t": 109580.70499999926,
      "d": 179.64049999999406,
      "v": 95
    },
    {
      "midi": 76,
      "hit": false,
      "t": 109580.70499999926,
      "d": 179.64049999999406,
      "v": 95
    },
    {
      "midi": 65,
      "hit": false,
      "t": 109760.34549999925,
      "d": 359.2810000000027,
      "v": 95
    },
    {
      "midi": 69,
      "hit": false,
      "t": 109760.34549999925,
      "d": 359.2810000000027,
      "v": 95
    },
    {
      "midi": 76,
      "hit": false,
      "t": 109760.34549999925,
      "d": 359.2810000000027,
      "v": 95
    },
    {
      "midi": 65,
      "hit": false,
      "t": 110119.62649999926,
      "d": 179.64049999999406,
      "v": 95
    },
    {
      "midi": 69,
      "hit": false,
      "t": 110119.62649999926,
      "d": 179.64049999999406,
      "v": 95
    },
    {
      "midi": 76,
      "hit": false,
      "t": 110119.62649999926,
      "d": 179.64049999999406,
      "v": 95
    },
    {
      "midi": 65,
      "hit": false,
      "t": 110299.26699999925,
      "d": 359.2810000000027,
      "v": 95
    },
    {
      "midi": 69,
      "hit": false,
      "t": 110299.26699999925,
      "d": 359.2810000000027,
      "v": 95
    },
    {
      "midi": 76,
      "hit": false,
      "t": 110299.26699999925,
      "d": 359.2810000000027,
      "v": 95
    },
    {
      "midi": 65,
      "hit": false,
      "t": 110658.54799999925,
      "d": 359.2810000000027,
      "v": 95
    },
    {
      "midi": 69,
      "hit": false,
      "t": 110658.54799999925,
      "d": 359.2810000000027,
      "v": 95
    },
    {
      "midi": 76,
      "hit": false,
      "t": 110658.54799999925,
      "d": 359.2810000000027,
      "v": 95
    },
    {
      "midi": 65,
      "hit": false,
      "t": 111017.82899999926,
      "d": 179.64049999999406,
      "v": 95
    },
    {
      "midi": 69,
      "hit": false,
      "t": 111017.82899999926,
      "d": 179.64049999999406,
      "v": 95
    },
    {
      "midi": 76,
      "hit": false,
      "t": 111017.82899999926,
      "d": 179.64049999999406,
      "v": 95
    },
    {
      "midi": 65,
      "hit": false,
      "t": 111197.46949999925,
      "d": 359.2810000000027,
      "v": 95
    },
    {
      "midi": 69,
      "hit": false,
      "t": 111197.46949999925,
      "d": 359.2810000000027,
      "v": 95
    },
    {
      "midi": 76,
      "hit": false,
      "t": 111197.46949999925,
      "d": 359.2810000000027,
      "v": 95
    },
    {
      "midi": 65,
      "hit": false,
      "t": 111556.75049999925,
      "d": 179.64049999999406,
      "v": 95
    },
    {
      "midi": 69,
      "hit": false,
      "t": 111556.75049999925,
      "d": 179.64049999999406,
      "v": 95
    },
    {
      "midi": 76,
      "hit": false,
      "t": 111556.75049999925,
      "d": 179.64049999999406,
      "v": 95
    },
    {
      "midi": 65,
      "hit": false,
      "t": 111736.39099999925,
      "d": 359.2810000000027,
      "v": 95
    },
    {
      "midi": 69,
      "hit": false,
      "t": 111736.39099999925,
      "d": 359.2810000000027,
      "v": 95
    },
    {
      "midi": 76,
      "hit": false,
      "t": 111736.39099999925,
      "d": 359.2810000000027,
      "v": 95
    },
    {
      "midi": 67,
      "hit": false,
      "t": 112095.67199999925,
      "d": 359.2810000000027,
      "v": 95
    },
    {
      "midi": 72,
      "hit": false,
      "t": 112095.67199999925,
      "d": 359.2810000000027,
      "v": 95
    },
    {
      "midi": 76,
      "hit": false,
      "t": 112095.67199999925,
      "d": 359.2810000000027,
      "v": 95
    },
    {
      "midi": 48,
      "hit": false,
      "t": 112095.67199999925,
      "d": 2874.2479999999923,
      "v": 95
    },
    {
      "midi": 67,
      "hit": false,
      "t": 112454.95299999925,
      "d": 179.64049999999406,
      "v": 95
    },
    {
      "midi": 72,
      "hit": false,
      "t": 112454.95299999925,
      "d": 179.64049999999406,
      "v": 95
    },
    {
      "midi": 76,
      "hit": false,
      "t": 112454.95299999925,
      "d": 179.64049999999406,
      "v": 95
    },
    {
      "midi": 67,
      "hit": false,
      "t": 112634.59349999925,
      "d": 359.2810000000027,
      "v": 95
    },
    {
      "midi": 72,
      "hit": false,
      "t": 112634.59349999925,
      "d": 359.2810000000027,
      "v": 95
    },
    {
      "midi": 76,
      "hit": false,
      "t": 112634.59349999925,
      "d": 359.2810000000027,
      "v": 95
    },
    {
      "midi": 67,
      "hit": false,
      "t": 112993.87449999925,
      "d": 179.64049999999406,
      "v": 95
    },
    {
      "midi": 72,
      "hit": false,
      "t": 112993.87449999925,
      "d": 179.64049999999406,
      "v": 95
    },
    {
      "midi": 76,
      "hit": false,
      "t": 112993.87449999925,
      "d": 179.64049999999406,
      "v": 95
    },
    {
      "midi": 67,
      "hit": false,
      "t": 113173.51499999924,
      "d": 359.2810000000027,
      "v": 95
    },
    {
      "midi": 72,
      "hit": false,
      "t": 113173.51499999924,
      "d": 359.2810000000027,
      "v": 95
    },
    {
      "midi": 76,
      "hit": false,
      "t": 113173.51499999924,
      "d": 359.2810000000027,
      "v": 95
    },
    {
      "midi": 67,
      "hit": false,
      "t": 113532.79599999925,
      "d": 359.2810000000027,
      "v": 95
    },
    {
      "midi": 72,
      "hit": false,
      "t": 113532.79599999925,
      "d": 359.2810000000027,
      "v": 95
    },
    {
      "midi": 76,
      "hit": false,
      "t": 113532.79599999925,
      "d": 359.2810000000027,
      "v": 95
    },
    {
      "midi": 67,
      "hit": false,
      "t": 113892.07699999925,
      "d": 179.64049999999406,
      "v": 95
    },
    {
      "midi": 72,
      "hit": false,
      "t": 113892.07699999925,
      "d": 179.64049999999406,
      "v": 95
    },
    {
      "midi": 76,
      "hit": false,
      "t": 113892.07699999925,
      "d": 179.64049999999406,
      "v": 95
    },
    {
      "midi": 67,
      "hit": false,
      "t": 114071.71749999924,
      "d": 359.2810000000027,
      "v": 95
    },
    {
      "midi": 72,
      "hit": false,
      "t": 114071.71749999924,
      "d": 359.2810000000027,
      "v": 95
    },
    {
      "midi": 76,
      "hit": false,
      "t": 114071.71749999924,
      "d": 359.2810000000027,
      "v": 95
    },
    {
      "midi": 67,
      "hit": false,
      "t": 114430.99849999924,
      "d": 179.64049999999406,
      "v": 95
    },
    {
      "midi": 72,
      "hit": false,
      "t": 114430.99849999924,
      "d": 179.64049999999406,
      "v": 95
    },
    {
      "midi": 76,
      "hit": false,
      "t": 114430.99849999924,
      "d": 179.64049999999406,
      "v": 95
    },
    {
      "midi": 67,
      "hit": false,
      "t": 114610.63899999924,
      "d": 359.2810000000027,
      "v": 95
    },
    {
      "midi": 72,
      "hit": false,
      "t": 114610.63899999924,
      "d": 359.2810000000027,
      "v": 95
    },
    {
      "midi": 76,
      "hit": false,
      "t": 114610.63899999924,
      "d": 359.2810000000027,
      "v": 95
    },
    {
      "midi": 65,
      "hit": false,
      "t": 114969.91999999924,
      "d": 359.2810000000027,
      "v": 95
    },
    {
      "midi": 69,
      "hit": false,
      "t": 114969.91999999924,
      "d": 359.2810000000027,
      "v": 95
    },
    {
      "midi": 76,
      "hit": false,
      "t": 114969.91999999924,
      "d": 359.2810000000027,
      "v": 95
    },
    {
      "midi": 48,
      "hit": false,
      "t": 114969.91999999924,
      "d": 2874.2479999999923,
      "v": 95
    },
    {
      "midi": 65,
      "hit": false,
      "t": 115329.20099999924,
      "d": 179.64049999999406,
      "v": 95
    },
    {
      "midi": 69,
      "hit": false,
      "t": 115329.20099999924,
      "d": 179.64049999999406,
      "v": 95
    },
    {
      "midi": 76,
      "hit": false,
      "t": 115329.20099999924,
      "d": 179.64049999999406,
      "v": 95
    },
    {
      "midi": 65,
      "hit": false,
      "t": 115508.84149999924,
      "d": 359.2810000000027,
      "v": 95
    },
    {
      "midi": 69,
      "hit": false,
      "t": 115508.84149999924,
      "d": 359.2810000000027,
      "v": 95
    },
    {
      "midi": 76,
      "hit": false,
      "t": 115508.84149999924,
      "d": 359.2810000000027,
      "v": 95
    },
    {
      "midi": 65,
      "hit": false,
      "t": 115868.12249999924,
      "d": 179.64049999999406,
      "v": 95
    },
    {
      "midi": 69,
      "hit": false,
      "t": 115868.12249999924,
      "d": 179.64049999999406,
      "v": 95
    },
    {
      "midi": 76,
      "hit": false,
      "t": 115868.12249999924,
      "d": 179.64049999999406,
      "v": 95
    },
    {
      "midi": 65,
      "hit": false,
      "t": 116047.76299999924,
      "d": 359.2810000000027,
      "v": 95
    },
    {
      "midi": 69,
      "hit": false,
      "t": 116047.76299999924,
      "d": 359.2810000000027,
      "v": 95
    },
    {
      "midi": 76,
      "hit": false,
      "t": 116047.76299999924,
      "d": 359.2810000000027,
      "v": 95
    },
    {
      "midi": 65,
      "hit": false,
      "t": 116407.04399999924,
      "d": 359.2810000000027,
      "v": 95
    },
    {
      "midi": 69,
      "hit": false,
      "t": 116407.04399999924,
      "d": 359.2810000000027,
      "v": 95
    },
    {
      "midi": 76,
      "hit": false,
      "t": 116407.04399999924,
      "d": 359.2810000000027,
      "v": 95
    },
    {
      "midi": 65,
      "hit": false,
      "t": 116766.32499999924,
      "d": 179.64049999999406,
      "v": 95
    },
    {
      "midi": 69,
      "hit": false,
      "t": 116766.32499999924,
      "d": 179.64049999999406,
      "v": 95
    },
    {
      "midi": 76,
      "hit": false,
      "t": 116766.32499999924,
      "d": 179.64049999999406,
      "v": 95
    },
    {
      "midi": 65,
      "hit": false,
      "t": 116945.96549999923,
      "d": 359.2810000000027,
      "v": 95
    },
    {
      "midi": 69,
      "hit": false,
      "t": 116945.96549999923,
      "d": 359.2810000000027,
      "v": 95
    },
    {
      "midi": 76,
      "hit": false,
      "t": 116945.96549999923,
      "d": 359.2810000000027,
      "v": 95
    },
    {
      "midi": 65,
      "hit": false,
      "t": 117305.24649999924,
      "d": 179.64049999999406,
      "v": 95
    },
    {
      "midi": 69,
      "hit": false,
      "t": 117305.24649999924,
      "d": 179.64049999999406,
      "v": 95
    },
    {
      "midi": 76,
      "hit": false,
      "t": 117305.24649999924,
      "d": 179.64049999999406,
      "v": 95
    },
    {
      "midi": 65,
      "hit": false,
      "t": 117484.88699999923,
      "d": 359.2810000000027,
      "v": 95
    },
    {
      "midi": 69,
      "hit": false,
      "t": 117484.88699999923,
      "d": 359.2810000000027,
      "v": 95
    },
    {
      "midi": 76,
      "hit": false,
      "t": 117484.88699999923,
      "d": 359.2810000000027,
      "v": 95
    },
    {
      "midi": 67,
      "hit": false,
      "t": 117844.16799999923,
      "d": 179.64049999999406,
      "v": 95
    },
    {
      "midi": 65,
      "hit": false,
      "t": 117844.16799999923,
      "d": 2874.247999999905,
      "v": 127
    },
    {
      "midi": 72,
      "hit": false,
      "t": 117844.16799999923,
      "d": 2874.247999999905,
      "v": 127
    },
    {
      "midi": 69,
      "hit": false,
      "t": 117844.16799999923,
      "d": 2874.247999999905,
      "v": 127
    },
    {
      "midi": 62,
      "hit": false,
      "t": 118023.80849999923,
      "d": 179.64049999999406,
      "v": 95
    },
    {
      "midi": 67,
      "hit": false,
      "t": 118203.44899999922,
      "d": 179.64049999999406,
      "v": 95
    },
    {
      "midi": 62,
      "hit": false,
      "t": 118383.08949999922,
      "d": 179.64049999999406,
      "v": 95
    },
    {
      "midi": 67,
      "hit": false,
      "t": 118562.72999999921,
      "d": 179.64049999999406,
      "v": 95
    },
    {
      "midi": 62,
      "hit": false,
      "t": 118742.3704999992,
      "d": 179.64049999999406,
      "v": 95
    },
    {
      "midi": 67,
      "hit": false,
      "t": 118922.0109999992,
      "d": 179.64049999999406,
      "v": 95
    },
    {
      "midi": 62,
      "hit": false,
      "t": 119101.65149999919,
      "d": 179.64049999999406,
      "v": 95
    },
    {
      "midi": 67,
      "hit": false,
      "t": 119281.29199999919,
      "d": 179.64049999999406,
      "v": 95
    },
    {
      "midi": 62,
      "hit": false,
      "t": 119460.93249999918,
      "d": 179.64049999999406,
      "v": 95
    },
    {
      "midi": 67,
      "hit": false,
      "t": 119640.57299999917,
      "d": 179.64049999999406,
      "v": 95
    },
    {
      "midi": 62,
      "hit": false,
      "t": 119820.21349999917,
      "d": 179.64049999999406,
      "v": 95
    },
    {
      "midi": 67,
      "hit": false,
      "t": 119999.85399999916,
      "d": 179.64049999999406,
      "v": 95
    },
    {
      "midi": 62,
      "hit": false,
      "t": 120179.49449999916,
      "d": 179.64049999999406,
      "v": 95
    },
    {
      "midi": 67,
      "hit": false,
      "t": 120359.13499999915,
      "d": 179.64049999999406,
      "v": 95
    },
    {
      "midi": 62,
      "hit": false,
      "t": 120538.77549999914,
      "d": 179.64049999999406,
      "v": 95
    },
    {
      "midi": 72,
      "hit": false,
      "t": 120718.41599999914,
      "d": 179.64049999999406,
      "v": 95
    },
    {
      "midi": 64,
      "hit": false,
      "t": 120718.41599999914,
      "d": 718.5619999999763,
      "v": 127
    },
    {
      "midi": 67,
      "hit": false,
      "t": 120718.41599999914,
      "d": 718.5619999999763,
      "v": 127
    },
    {
      "midi": 72,
      "hit": false,
      "t": 120898.05649999913,
      "d": 179.64049999999406,
      "v": 95
    },
    {
      "midi": 72,
      "hit": false,
      "t": 121077.69699999913,
      "d": 179.64049999999406,
      "v": 95
    },
    {
      "midi": 72,
      "hit": false,
      "t": 121257.33749999912,
      "d": 179.64049999999406,
      "v": 95
    },
    {
      "midi": 72,
      "hit": false,
      "t": 121436.97799999912,
      "d": 179.64049999999406,
      "v": 95
    },
    {
      "midi": 76,
      "hit": false,
      "t": 121436.97799999912,
      "d": 359.2809999999881,
      "v": 127
    },
    {
      "midi": 72,
      "hit": false,
      "t": 121616.61849999911,
      "d": 179.64049999999406,
      "v": 95
    },
    {
      "midi": 72,
      "hit": false,
      "t": 121796.2589999991,
      "d": 179.64049999999406,
      "v": 95
    },
    {
      "midi": 76,
      "hit": false,
      "t": 121796.2589999991,
      "d": 359.2809999999881,
      "v": 127
    },
    {
      "midi": 72,
      "hit": false,
      "t": 121975.8994999991,
      "d": 179.64049999999406,
      "v": 95
    },
    {
      "midi": 71,
      "hit": false,
      "t": 122155.53999999909,
      "d": 179.64049999999406,
      "v": 95
    },
    {
      "midi": 67,
      "hit": false,
      "t": 122155.53999999909,
      "d": 359.2809999999881,
      "v": 127
    },
    {
      "midi": 74,
      "hit": false,
      "t": 122155.53999999909,
      "d": 359.2809999999881,
      "v": 127
    },
    {
      "midi": 71,
      "hit": false,
      "t": 122335.18049999909,
      "d": 179.64049999999406,
      "v": 95
    },
    {
      "midi": 71,
      "hit": false,
      "t": 122514.82099999908,
      "d": 179.64049999999406,
      "v": 95
    },
    {
      "midi": 74,
      "hit": false,
      "t": 122514.82099999908,
      "d": 359.2809999999881,
      "v": 127
    },
    {
      "midi": 71,
      "hit": false,
      "t": 122694.46149999907,
      "d": 179.64049999999406,
      "v": 95
    },
    {
      "midi": 71,
      "hit": false,
      "t": 122874.10199999907,
      "d": 179.64049999999406,
      "v": 95
    },
    {
      "midi": 76,
      "hit": false,
      "t": 122874.10199999907,
      "d": 359.2809999999881,
      "v": 127
    },
    {
      "midi": 71,
      "hit": false,
      "t": 123053.74249999906,
      "d": 179.64049999999406,
      "v": 95
    },
    {
      "midi": 71,
      "hit": false,
      "t": 123233.38299999906,
      "d": 179.64049999999406,
      "v": 95
    },
    {
      "midi": 79,
      "hit": false,
      "t": 123233.38299999906,
      "d": 359.2809999999881,
      "v": 127
    },
    {
      "midi": 71,
      "hit": false,
      "t": 123413.02349999905,
      "d": 179.64049999999406,
      "v": 95
    },
    {
      "midi": 69,
      "hit": false,
      "t": 123592.66399999904,
      "d": 179.64049999999406,
      "v": 95
    },
    {
      "midi": 72,
      "hit": false,
      "t": 123592.66399999904,
      "d": 718.5619999999763,
      "v": 127
    },
    {
      "midi": 69,
      "hit": false,
      "t": 123772.30449999904,
      "d": 179.64049999999406,
      "v": 95
    },
    {
      "midi": 69,
      "hit": false,
      "t": 123951.94499999903,
      "d": 179.64049999999406,
      "v": 95
    },
    {
      "midi": 69,
      "hit": false,
      "t": 124131.58549999903,
      "d": 179.64049999999406,
      "v": 95
    },
    {
      "midi": 69,
      "hit": false,
      "t": 124311.22599999902,
      "d": 179.64049999999406,
      "v": 95
    },
    {
      "midi": 69,
      "hit": false,
      "t": 124490.86649999901,
      "d": 179.64049999999406,
      "v": 95
    },
    {
      "midi": 69,
      "hit": false,
      "t": 124670.50699999901,
      "d": 179.64049999999406,
      "v": 95
    },
    {
      "midi": 81,
      "hit": false,
      "t": 124670.50699999901,
      "d": 359.2809999999881,
      "v": 127
    },
    {
      "midi": 69,
      "hit": false,
      "t": 124850.147499999,
      "d": 179.64049999999406,
      "v": 95
    },
    {
      "midi": 67,
      "hit": false,
      "t": 125029.787999999,
      "d": 179.64049999999406,
      "v": 95
    },
    {
      "midi": 79,
      "hit": false,
      "t": 125029.787999999,
      "d": 359.2809999999881,
      "v": 127
    },
    {
      "midi": 67,
      "hit": false,
      "t": 125209.42849999899,
      "d": 179.64049999999406,
      "v": 95
    },
    {
      "midi": 67,
      "hit": false,
      "t": 125389.06899999898,
      "d": 179.64049999999406,
      "v": 95
    },
    {
      "midi": 77,
      "hit": false,
      "t": 125389.06899999898,
      "d": 359.2809999999881,
      "v": 127
    },
    {
      "midi": 67,
      "hit": false,
      "t": 125568.70949999898,
      "d": 179.64049999999406,
      "v": 95
    },
    {
      "midi": 67,
      "hit": false,
      "t": 125748.34999999897,
      "d": 179.64049999999406,
      "v": 95
    },
    {
      "midi": 76,
      "hit": false,
      "t": 125748.34999999897,
      "d": 359.2809999999881,
      "v": 127
    },
    {
      "midi": 67,
      "hit": false,
      "t": 125927.99049999897,
      "d": 179.64049999999406,
      "v": 95
    },
    {
      "midi": 67,
      "hit": false,
      "t": 126107.63099999896,
      "d": 179.64049999999406,
      "v": 95
    },
    {
      "midi": 77,
      "hit": false,
      "t": 126107.63099999896,
      "d": 359.2809999999881,
      "v": 127
    },
    {
      "midi": 67,
      "hit": false,
      "t": 126287.27149999895,
      "d": 179.64049999999406,
      "v": 95
    },
    {
      "midi": 65,
      "hit": false,
      "t": 126466.91199999895,
      "d": 179.64049999999406,
      "v": 95
    },
    {
      "midi": 72,
      "hit": false,
      "t": 126466.91199999895,
      "d": 359.2809999999881,
      "v": 127
    },
    {
      "midi": 79,
      "hit": false,
      "t": 126466.91199999895,
      "d": 359.2809999999881,
      "v": 127
    },
    {
      "midi": 65,
      "hit": false,
      "t": 126646.55249999894,
      "d": 179.64049999999406,
      "v": 95
    },
    {
      "midi": 65,
      "hit": false,
      "t": 126826.19299999894,
      "d": 179.64049999999406,
      "v": 95
    },
    {
      "midi": 79,
      "hit": false,
      "t": 126826.19299999894,
      "d": 359.2809999999881,
      "v": 127
    },
    {
      "midi": 65,
      "hit": false,
      "t": 127005.83349999893,
      "d": 179.64049999999406,
      "v": 95
    },
    {
      "midi": 65,
      "hit": false,
      "t": 127185.47399999893,
      "d": 179.64049999999406,
      "v": 95
    },
    {
      "midi": 69,
      "hit": false,
      "t": 127185.47399999893,
      "d": 718.5619999999763,
      "v": 127
    },
    {
      "midi": 72,
      "hit": false,
      "t": 127185.47399999893,
      "d": 718.5619999999763,
      "v": 127
    },
    {
      "midi": 65,
      "hit": false,
      "t": 127365.11449999892,
      "d": 179.64049999999406,
      "v": 95
    },
    {
      "midi": 65,
      "hit": false,
      "t": 127544.75499999891,
      "d": 179.64049999999406,
      "v": 95
    },
    {
      "midi": 65,
      "hit": false,
      "t": 127724.39549999891,
      "d": 179.64049999999406,
      "v": 95
    },
    {
      "midi": 64,
      "hit": false,
      "t": 127904.0359999989,
      "d": 179.64049999999406,
      "v": 95
    },
    {
      "midi": 67,
      "hit": false,
      "t": 127904.0359999989,
      "d": 718.5619999999763,
      "v": 127
    },
    {
      "midi": 74,
      "hit": false,
      "t": 127904.0359999989,
      "d": 718.5619999999763,
      "v": 127
    },
    {
      "midi": 72,
      "hit": false,
      "t": 127904.0359999989,
      "d": 718.5619999999763,
      "v": 127
    },
    {
      "midi": 64,
      "hit": false,
      "t": 128083.6764999989,
      "d": 179.64049999999406,
      "v": 95
    },
    {
      "midi": 64,
      "hit": false,
      "t": 128263.31699999889,
      "d": 179.64049999999406,
      "v": 95
    },
    {
      "midi": 64,
      "hit": false,
      "t": 128442.95749999888,
      "d": 179.64049999999406,
      "v": 95
    },
    {
      "midi": 64,
      "hit": false,
      "t": 128622.59799999888,
      "d": 179.64049999999406,
      "v": 95
    },
    {
      "midi": 76,
      "hit": false,
      "t": 128622.59799999888,
      "d": 718.5619999999763,
      "v": 127
    },
    {
      "midi": 64,
      "hit": false,
      "t": 128802.23849999887,
      "d": 179.64049999999406,
      "v": 95
    },
    {
      "midi": 64,
      "hit": false,
      "t": 128981.87899999887,
      "d": 179.64049999999406,
      "v": 95
    },
    {
      "midi": 64,
      "hit": false,
      "t": 129161.51949999886,
      "d": 179.64049999999406,
      "v": 95
    },
    {
      "midi": 62,
      "hit": false,
      "t": 129341.15999999885,
      "d": 179.64049999999406,
      "v": 95
    },
    {
      "midi": 65,
      "hit": false,
      "t": 129341.15999999885,
      "d": 718.5619999999763,
      "v": 127
    },
    {
      "midi": 69,
      "hit": false,
      "t": 129341.15999999885,
      "d": 718.5619999999763,
      "v": 127
    },
    {
      "midi": 72,
      "hit": false,
      "t": 129341.15999999885,
      "d": 718.5619999999763,
      "v": 127
    },
    {
      "midi": 62,
      "hit": false,
      "t": 129520.80049999885,
      "d": 179.64049999999406,
      "v": 95
    },
    {
      "midi": 62,
      "hit": false,
      "t": 129700.44099999884,
      "d": 179.64049999999406,
      "v": 95
    },
    {
      "midi": 62,
      "hit": false,
      "t": 129880.08149999884,
      "d": 179.64049999999406,
      "v": 95
    },
    {
      "midi": 62,
      "hit": false,
      "t": 130059.72199999883,
      "d": 179.64049999999406,
      "v": 95
    },
    {
      "midi": 62,
      "hit": false,
      "t": 130239.36249999882,
      "d": 179.64049999999406,
      "v": 95
    },
    {
      "midi": 62,
      "hit": false,
      "t": 130419.00299999882,
      "d": 179.64049999999406,
      "v": 95
    },
    {
      "midi": 72,
      "hit": false,
      "t": 130419.00299999882,
      "d": 359.2809999999881,
      "v": 127
    },
    {
      "midi": 62,
      "hit": false,
      "t": 130598.64349999881,
      "d": 179.64049999999406,
      "v": 95
    },
    {
      "midi": 67,
      "hit": false,
      "t": 130778.2839999988,
      "d": 179.64049999999406,
      "v": 95
    },
    {
      "midi": 74,
      "hit": false,
      "t": 130778.2839999988,
      "d": 359.2810000000027,
      "v": 127
    },
    {
      "midi": 67,
      "hit": false,
      "t": 130957.9244999988,
      "d": 179.64050000000861,
      "v": 95
    },
    {
      "midi": 67,
      "hit": false,
      "t": 131137.5649999988,
      "d": 179.64050000000861,
      "v": 95
    },
    {
      "midi": 76,
      "hit": false,
      "t": 131137.5649999988,
      "d": 359.28100000001723,
      "v": 127
    },
    {
      "midi": 67,
      "hit": false,
      "t": 131317.20549999882,
      "d": 179.64050000000861,
      "v": 95
    },
    {
      "midi": 67,
      "hit": false,
      "t": 131496.84599999883,
      "d": 179.64050000000861,
      "v": 95
    },
    {
      "midi": 69,
      "hit": false,
      "t": 131496.84599999883,
      "d": 718.5620000000345,
      "v": 127
    },
    {
      "midi": 72,
      "hit": false,
      "t": 131496.84599999883,
      "d": 718.5620000000345,
      "v": 127
    },
    {
      "midi": 77,
      "hit": false,
      "t": 131496.84599999883,
      "d": 718.5620000000345,
      "v": 127
    },
    {
      "midi": 67,
      "hit": false,
      "t": 131676.48649999883,
      "d": 179.64050000000861,
      "v": 95
    },
    {
      "midi": 67,
      "hit": false,
      "t": 131856.12699999884,
      "d": 179.64050000000861,
      "v": 95
    },
    {
      "midi": 67,
      "hit": false,
      "t": 132035.76749999885,
      "d": 179.64050000000861,
      "v": 95
    },
    {
      "midi": 74,
      "hit": false,
      "t": 132215.40799999886,
      "d": 179.64050000000861,
      "v": 95
    },
    {
      "midi": 69,
      "hit": false,
      "t": 132215.40799999886,
      "d": 718.5620000000345,
      "v": 127
    },
    {
      "midi": 66,
      "hit": false,
      "t": 132215.40799999886,
      "d": 718.5620000000345,
      "v": 127
    },
    {
      "midi": 74,
      "hit": false,
      "t": 132395.04849999887,
      "d": 179.64050000000861,
      "v": 95
    },
    {
      "midi": 74,
      "hit": false,
      "t": 132574.68899999888,
      "d": 179.64050000000861,
      "v": 95
    },
    {
      "midi": 74,
      "hit": false,
      "t": 132754.3294999989,
      "d": 179.64050000000861,
      "v": 95
    },
    {
      "midi": 74,
      "hit": false,
      "t": 132933.9699999989,
      "d": 179.64050000000861,
      "v": 95
    },
    {
      "midi": 78,
      "hit": false,
      "t": 132933.9699999989,
      "d": 359.28100000001723,
      "v": 127
    },
    {
      "midi": 74,
      "hit": false,
      "t": 133113.6104999989,
      "d": 179.64050000000861,
      "v": 95
    },
    {
      "midi": 74,
      "hit": false,
      "t": 133293.2509999989,
      "d": 179.64050000000861,
      "v": 95
    },
    {
      "midi": 78,
      "hit": false,
      "t": 133293.2509999989,
      "d": 359.28100000001723,
      "v": 127
    },
    {
      "midi": 74,
      "hit": false,
      "t": 133472.89149999892,
      "d": 179.64050000000861,
      "v": 95
    },
    {
      "midi": 73,
      "hit": false,
      "t": 133652.53199999893,
      "d": 179.64050000000861,
      "v": 95
    },
    {
      "midi": 69,
      "hit": false,
      "t": 133652.53199999893,
      "d": 359.28100000001723,
      "v": 127
    },
    {
      "midi": 76,
      "hit": false,
      "t": 133652.53199999893,
      "d": 359.28100000001723,
      "v": 127
    },
    {
      "midi": 73,
      "hit": false,
      "t": 133832.17249999894,
      "d": 179.64050000000861,
      "v": 95
    },
    {
      "midi": 73,
      "hit": false,
      "t": 134011.81299999895,
      "d": 179.64050000000861,
      "v": 95
    },
    {
      "midi": 76,
      "hit": false,
      "t": 134011.81299999895,
      "d": 359.28100000001723,
      "v": 127
    },
    {
      "midi": 73,
      "hit": false,
      "t": 134191.45349999896,
      "d": 179.64050000000861,
      "v": 95
    },
    {
      "midi": 73,
      "hit": false,
      "t": 134371.09399999896,
      "d": 179.64050000000861,
      "v": 95
    },
    {
      "midi": 78,
      "hit": false,
      "t": 134371.09399999896,
      "d": 359.28100000001723,
      "v": 127
    },
    {
      "midi": 73,
      "hit": false,
      "t": 134550.73449999897,
      "d": 179.64050000000861,
      "v": 95
    },
    {
      "midi": 73,
      "hit": false,
      "t": 134730.37499999898,
      "d": 179.64050000000861,
      "v": 95
    },
    {
      "midi": 81,
      "hit": false,
      "t": 134730.37499999898,
      "d": 359.28100000001723,
      "v": 127
    },
    {
      "midi": 73,
      "hit": false,
      "t": 134910.015499999,
      "d": 179.64050000000861,
      "v": 95
    },
    {
      "midi": 71,
      "hit": false,
      "t": 135089.655999999,
      "d": 179.64050000000861,
      "v": 95
    },
    {
      "midi": 74,
      "hit": false,
      "t": 135089.655999999,
      "d": 718.5620000000345,
      "v": 127
    },
    {
      "midi": 71,
      "hit": false,
      "t": 135269.296499999,
      "d": 179.64050000000861,
      "v": 95
    },
    {
      "midi": 71,
      "hit": false,
      "t": 135448.93699999902,
      "d": 179.64050000000861,
      "v": 95
    },
    {
      "midi": 71,
      "hit": false,
      "t": 135628.57749999902,
      "d": 179.64050000000861,
      "v": 95
    },
    {
      "midi": 71,
      "hit": false,
      "t": 135808.21799999903,
      "d": 179.64050000000861,
      "v": 95
    },
    {
      "midi": 71,
      "hit": false,
      "t": 135987.85849999904,
      "d": 179.64050000000861,
      "v": 95
    },
    {
      "midi": 71,
      "hit": false,
      "t": 136167.49899999905,
      "d": 179.64050000000861,
      "v": 95
    },
    {
      "midi": 83,
      "hit": false,
      "t": 136167.49899999905,
      "d": 359.28100000001723,
      "v": 127
    },
    {
      "midi": 71,
      "hit": false,
      "t": 136347.13949999906,
      "d": 179.64050000000861,
      "v": 95
    },
    {
      "midi": 69,
      "hit": false,
      "t": 136526.77999999907,
      "d": 179.64050000000861,
      "v": 95
    },
    {
      "midi": 72,
      "hit": false,
      "t": 136526.77999999907,
      "d": 359.28100000001723,
      "v": 127
    },
    {
      "midi": 81,
      "hit": false,
      "t": 136526.77999999907,
      "d": 359.28100000001723,
      "v": 127
    },
    {
      "midi": 69,
      "hit": false,
      "t": 136706.42049999908,
      "d": 179.64050000000861,
      "v": 95
    },
    {
      "midi": 69,
      "hit": false,
      "t": 136886.06099999908,
      "d": 179.64050000000861,
      "v": 95
    },
    {
      "midi": 79,
      "hit": false,
      "t": 136886.06099999908,
      "d": 359.28100000001723,
      "v": 127
    },
    {
      "midi": 69,
      "hit": false,
      "t": 137065.7014999991,
      "d": 179.64050000000861,
      "v": 95
    },
    {
      "midi": 69,
      "hit": false,
      "t": 137245.3419999991,
      "d": 179.64050000000861,
      "v": 95
    },
    {
      "midi": 78,
      "hit": false,
      "t": 137245.3419999991,
      "d": 359.28100000001723,
      "v": 127
    },
    {
      "midi": 69,
      "hit": false,
      "t": 137424.9824999991,
      "d": 179.64050000000861,
      "v": 95
    },
    {
      "midi": 69,
      "hit": false,
      "t": 137604.62299999912,
      "d": 179.64050000000861,
      "v": 95
    },
    {
      "midi": 79,
      "hit": false,
      "t": 137604.62299999912,
      "d": 359.28100000001723,
      "v": 127
    },
    {
      "midi": 69,
      "hit": false,
      "t": 137784.26349999913,
      "d": 179.64050000000861,
      "v": 95
    },
    {
      "midi": 67,
      "hit": false,
      "t": 137963.90399999914,
      "d": 179.64050000000861,
      "v": 95
    },
    {
      "midi": 71,
      "hit": false,
      "t": 137963.90399999914,
      "d": 538.9215000000258,
      "v": 127
    },
    {
      "midi": 81,
      "hit": false,
      "t": 137963.90399999914,
      "d": 538.9215000000258,
      "v": 127
    },
    {
      "midi": 67,
      "hit": false,
      "t": 138143.54449999915,
      "d": 179.64050000000861,
      "v": 95
    },
    {
      "midi": 67,
      "hit": false,
      "t": 138323.18499999915,
      "d": 179.64050000000861,
      "v": 95
    },
    {
      "midi": 67,
      "hit": false,
      "t": 138502.82549999916,
      "d": 179.64050000000861,
      "v": 95
    },
    {
      "midi": 74,
      "hit": false,
      "t": 138502.82549999916,
      "d": 179.64050000000861,
      "v": 127
    },
    {
      "midi": 67,
      "hit": false,
      "t": 138682.46599999917,
      "d": 179.64050000000861,
      "v": 95
    },
    {
      "midi": 71,
      "hit": false,
      "t": 138682.46599999917,
      "d": 718.5620000000345,
      "v": 127
    },
    {
      "midi": 74,
      "hit": false,
      "t": 138682.46599999917,
      "d": 718.5620000000345,
      "v": 127
    },
    {
      "midi": 67,
      "hit": false,
      "t": 138862.10649999918,
      "d": 179.64050000000861,
      "v": 95
    },
    {
      "midi": 67,
      "hit": false,
      "t": 139041.7469999992,
      "d": 179.64050000000861,
      "v": 95
    },
    {
      "midi": 67,
      "hit": false,
      "t": 139221.3874999992,
      "d": 179.64050000000861,
      "v": 95
    },
    {
      "midi": 66,
      "hit": false,
      "t": 139401.0279999992,
      "d": 179.64050000000861,
      "v": 95
    },
    {
      "midi": 74,
      "hit": false,
      "t": 139401.0279999992,
      "d": 718.5620000000345,
      "v": 127
    },
    {
      "midi": 76,
      "hit": false,
      "t": 139401.0279999992,
      "d": 718.5620000000345,
      "v": 127
    },
    {
      "midi": 66,
      "hit": false,
      "t": 139580.6684999992,
      "d": 179.64050000000861,
      "v": 95
    },
    {
      "midi": 66,
      "hit": false,
      "t": 139760.30899999922,
      "d": 179.64050000000861,
      "v": 95
    },
    {
      "midi": 66,
      "hit": false,
      "t": 139939.94949999923,
      "d": 179.64050000000861,
      "v": 95
    },
    {
      "midi": 66,
      "hit": false,
      "t": 140119.58999999924,
      "d": 179.64050000000861,
      "v": 95
    },
    {
      "midi": 78,
      "hit": false,
      "t": 140119.58999999924,
      "d": 718.5620000000345,
      "v": 127
    },
    {
      "midi": 66,
      "hit": false,
      "t": 140299.23049999925,
      "d": 179.64050000000861,
      "v": 95
    },
    {
      "midi": 66,
      "hit": false,
      "t": 140478.87099999926,
      "d": 179.64050000000861,
      "v": 95
    },
    {
      "midi": 66,
      "hit": false,
      "t": 140658.51149999927,
      "d": 179.64050000000861,
      "v": 95
    },
    {
      "midi": 64,
      "hit": false,
      "t": 140838.15199999927,
      "d": 179.64050000000861,
      "v": 95
    },
    {
      "midi": 67,
      "hit": false,
      "t": 140838.15199999927,
      "d": 1437.124000000069,
      "v": 127
    },
    {
      "midi": 71,
      "hit": false,
      "t": 140838.15199999927,
      "d": 1437.124000000069,
      "v": 127
    },
    {
      "midi": 74,
      "hit": false,
      "t": 140838.15199999927,
      "d": 1437.124000000069,
      "v": 127
    },
    {
      "midi": 64,
      "hit": false,
      "t": 141017.79249999928,
      "d": 179.64050000000861,
      "v": 95
    },
    {
      "midi": 64,
      "hit": false,
      "t": 141197.4329999993,
      "d": 179.64050000000861,
      "v": 95
    },
    {
      "midi": 64,
      "hit": false,
      "t": 141377.0734999993,
      "d": 179.64050000000861,
      "v": 95
    },
    {
      "midi": 64,
      "hit": false,
      "t": 141556.7139999993,
      "d": 179.64050000000861,
      "v": 95
    },
    {
      "midi": 64,
      "hit": false,
      "t": 141736.35449999932,
      "d": 179.64050000000861,
      "v": 95
    },
    {
      "midi": 64,
      "hit": false,
      "t": 141915.99499999933,
      "d": 179.64050000000861,
      "v": 95
    },
    {
      "midi": 64,
      "hit": false,
      "t": 142095.63549999933,
      "d": 179.64050000000861,
      "v": 95
    },
    {
      "midi": 69,
      "hit": false,
      "t": 142275.27599999934,
      "d": 179.64050000000861,
      "v": 95
    },
    {
      "midi": 67,
      "hit": false,
      "t": 142275.27599999934,
      "d": 1437.124000000069,
      "v": 127
    },
    {
      "midi": 74,
      "hit": false,
      "t": 142275.27599999934,
      "d": 1437.124000000069,
      "v": 127
    },
    {
      "midi": 69,
      "hit": false,
      "t": 142454.91649999935,
      "d": 179.64050000000861,
      "v": 95
    },
    {
      "midi": 69,
      "hit": false,
      "t": 142634.55699999936,
      "d": 179.64050000000861,
      "v": 95
    },
    {
      "midi": 69,
      "hit": false,
      "t": 142814.19749999937,
      "d": 179.64050000000861,
      "v": 95
    },
    {
      "midi": 69,
      "hit": false,
      "t": 142993.83799999938,
      "d": 179.64050000000861,
      "v": 95
    },
    {
      "midi": 69,
      "hit": false,
      "t": 143173.4784999994,
      "d": 179.64050000000861,
      "v": 95
    },
    {
      "midi": 69,
      "hit": false,
      "t": 143353.1189999994,
      "d": 179.64050000000861,
      "v": 95
    },
    {
      "midi": 69,
      "hit": false,
      "t": 143532.7594999994,
      "d": 179.64050000000861,
      "v": 95
    },
    {
      "midi": 68,
      "hit": false,
      "t": 143712.3999999994,
      "d": 179.64050000000861,
      "v": 95
    },
    {
      "midi": 60,
      "hit": false,
      "t": 143712.3999999994,
      "d": 718.5620000000345,
      "v": 127
    },
    {
      "midi": 63,
      "hit": false,
      "t": 143712.3999999994,
      "d": 718.5620000000345,
      "v": 127
    },
    {
      "midi": 70,
      "hit": false,
      "t": 143712.3999999994,
      "d": 718.5620000000345,
      "v": 127
    },
    {
      "midi": 68,
      "hit": false,
      "t": 143892.04049999942,
      "d": 179.64050000000861,
      "v": 95
    },
    {
      "midi": 68,
      "hit": false,
      "t": 144071.68099999943,
      "d": 179.64050000000861,
      "v": 95
    },
    {
      "midi": 68,
      "hit": false,
      "t": 144251.32149999944,
      "d": 179.64050000000861,
      "v": 95
    },
    {
      "midi": 67,
      "hit": false,
      "t": 144430.96199999945,
      "d": 179.64050000000861,
      "v": 95
    },
    {
      "midi": 71,
      "hit": false,
      "t": 144430.96199999945,
      "d": 718.5620000000345,
      "v": 127
    },
    {
      "midi": 64,
      "hit": false,
      "t": 144430.96199999945,
      "d": 718.5620000000345,
      "v": 127
    },
    {
      "midi": 67,
      "hit": false,
      "t": 144610.60249999946,
      "d": 179.64050000000861,
      "v": 95
    },
    {
      "midi": 67,
      "hit": false,
      "t": 144790.24299999946,
      "d": 179.64050000000861,
      "v": 95
    },
    {
      "midi": 67,
      "hit": false,
      "t": 144969.88349999947,
      "d": 179.64050000000861,
      "v": 95
    },
    {
      "midi": 79,
      "hit": false,
      "t": 145149.52399999948,
      "d": 179.64050000000861,
      "v": 127
    },
    {
      "midi": 72,
      "hit": false,
      "t": 145149.52399999948,
      "d": 359.28100000001723,
      "v": 95
    },
    {
      "midi": 79,
      "hit": false,
      "t": 145329.1644999995,
      "d": 179.64050000000861,
      "v": 127
    },
    {
      "midi": 76,
      "hit": false,
      "t": 145508.8049999995,
      "d": 179.64050000000861,
      "v": 127
    },
    {
      "midi": 79,
      "hit": false,
      "t": 145688.4454999995,
      "d": 179.64050000000861,
      "v": 127
    },
    {
      "midi": 64,
      "hit": false,
      "t": 145868.08599999952,
      "d": 359.2809999999881,
      "v": 95
    },
    {
      "midi": 62,
      "hit": false,
      "t": 146586.6479999995,
      "d": 359.2809999999881,
      "v": 95
    },
    {
      "midi": 76,
      "hit": false,
      "t": 147125.5694999995,
      "d": 179.64050000000861,
      "v": 127
    },
    {
      "midi": 76,
      "hit": false,
      "t": 147305.2099999995,
      "d": 179.64050000000861,
      "v": 127
    },
    {
      "midi": 67,
      "hit": false,
      "t": 147305.2099999995,
      "d": 359.28100000001723,
      "v": 95
    },
    {
      "midi": 76,
      "hit": false,
      "t": 147484.8504999995,
      "d": 179.64050000000861,
      "v": 127
    },
    {
      "midi": 77,
      "hit": false,
      "t": 147664.4909999995,
      "d": 179.64050000000861,
      "v": 127
    },
    {
      "midi": 77,
      "hit": false,
      "t": 147844.13149999952,
      "d": 179.64050000000861,
      "v": 127
    },
    {
      "midi": 79,
      "hit": false,
      "t": 148023.77199999953,
      "d": 179.64050000000861,
      "v": 127
    },
    {
      "midi": 72,
      "hit": false,
      "t": 148023.77199999953,
      "d": 359.28100000001723,
      "v": 95
    },
    {
      "midi": 79,
      "hit": false,
      "t": 148203.41249999954,
      "d": 179.64050000000861,
      "v": 127
    },
    {
      "midi": 81,
      "hit": false,
      "t": 148383.05299999955,
      "d": 179.64050000000861,
      "v": 127
    },
    {
      "midi": 79,
      "hit": false,
      "t": 148562.69349999956,
      "d": 359.28100000001723,
      "v": 127
    },
    {
      "midi": 64,
      "hit": false,
      "t": 148742.33399999957,
      "d": 359.28100000001723,
      "v": 95
    },
    {
      "midi": 76,
      "hit": false,
      "t": 148921.97449999957,
      "d": 359.28100000001723,
      "v": 127
    },
    {
      "midi": 72,
      "hit": false,
      "t": 149281.2554999996,
      "d": 538.9214999999967,
      "v": 127
    },
    {
      "midi": 62,
      "hit": false,
      "t": 149460.8959999996,
      "d": 359.2809999999881,
      "v": 95
    },
    {
      "midi": 76,
      "hit": false,
      "t": 150179.45799999958,
      "d": 179.64050000000861,
      "v": 127
    },
    {
      "midi": 67,
      "hit": false,
      "t": 150179.45799999958,
      "d": 359.28100000001723,
      "v": 95
    },
    {
      "midi": 76,
      "hit": false,
      "t": 150359.09849999959,
      "d": 179.64050000000861,
      "v": 127
    },
    {
      "midi": 77,
      "hit": false,
      "t": 150538.7389999996,
      "d": 179.64050000000861,
      "v": 127
    },
    {
      "midi": 77,
      "hit": false,
      "t": 150718.3794999996,
      "d": 179.64050000000861,
      "v": 127
    },
    {
      "midi": 65,
      "hit": false,
      "t": 150898.0199999996,
      "d": 359.2809999999881,
      "v": 95
    },
    {
      "midi": 72,
      "hit": false,
      "t": 150898.0199999996,
      "d": 359.2809999999881,
      "v": 127
    },
    {
      "midi": 79,
      "hit": false,
      "t": 150898.0199999996,
      "d": 359.2809999999881,
      "v": 127
    },
    {
      "midi": 76,
      "hit": false,
      "t": 151257.3009999996,
      "d": 179.64050000000861,
      "v": 127
    },
    {
      "midi": 79,
      "hit": false,
      "t": 151436.9414999996,
      "d": 359.28100000001723,
      "v": 127
    },
    {
      "midi": 64,
      "hit": false,
      "t": 151616.58199999962,
      "d": 359.28100000001723,
      "v": 95
    },
    {
      "midi": 76,
      "hit": false,
      "t": 151796.22249999963,
      "d": 359.28100000001723,
      "v": 127
    },
    {
      "midi": 74,
      "hit": false,
      "t": 152155.50349999964,
      "d": 359.28100000001723,
      "v": 127
    },
    {
      "midi": 62,
      "hit": false,
      "t": 152335.14399999965,
      "d": 359.28100000001723,
      "v": 95
    },
    {
      "midi": 72,
      "hit": false,
      "t": 152514.78449999966,
      "d": 359.28100000001723,
      "v": 127
    },
    {
      "midi": 76,
      "hit": false,
      "t": 152874.06549999968,
      "d": 179.64050000000861,
      "v": 127
    },
    {
      "midi": 77,
      "hit": false,
      "t": 153053.70599999969,
      "d": 179.64050000000861,
      "v": 127
    },
    {
      "midi": 67,
      "hit": false,
      "t": 153053.70599999969,
      "d": 359.28100000001723,
      "v": 95
    },
    {
      "midi": 76,
      "hit": false,
      "t": 153233.3464999997,
      "d": 179.64050000000861,
      "v": 127
    },
    {
      "midi": 74,
      "hit": false,
      "t": 153412.9869999997,
      "d": 179.64050000000861,
      "v": 127
    },
    {
      "midi": 76,
      "hit": false,
      "t": 153592.6274999997,
      "d": 179.64050000000861,
      "v": 127
    },
    {
      "midi": 65,
      "hit": false,
      "t": 153772.26799999972,
      "d": 359.2809999999881,
      "v": 95
    },
    {
      "midi": 69,
      "hit": false,
      "t": 153772.26799999972,
      "d": 359.2809999999881,
      "v": 127
    },
    {
      "midi": 72,
      "hit": false,
      "t": 153772.26799999972,
      "d": 359.2809999999881,
      "v": 127
    },
    {
      "midi": 84,
      "hit": false,
      "t": 154490.8299999997,
      "d": 179.64050000000861,
      "v": 127
    },
    {
      "midi": 64,
      "hit": false,
      "t": 154490.8299999997,
      "d": 359.28100000001723,
      "v": 95
    },
    {
      "midi": 79,
      "hit": false,
      "t": 154850.1109999997,
      "d": 179.64050000000861,
      "v": 127
    },
    {
      "midi": 84,
      "hit": false,
      "t": 155209.39199999973,
      "d": 179.64050000000861,
      "v": 127
    },
    {
      "midi": 62,
      "hit": false,
      "t": 155209.39199999973,
      "d": 359.28100000001723,
      "v": 95
    },
    {
      "midi": 83,
      "hit": false,
      "t": 155389.03249999974,
      "d": 179.64050000000861,
      "v": 127
    },
    {
      "midi": 81,
      "hit": false,
      "t": 155568.67299999975,
      "d": 179.64050000000861,
      "v": 127
    },
    {
      "midi": 83,
      "hit": false,
      "t": 155748.31349999976,
      "d": 179.64050000000861,
      "v": 127
    },
    {
      "midi": 84,
      "hit": false,
      "t": 155927.95399999977,
      "d": 179.64050000000861,
      "v": 127
    },
    {
      "midi": 67,
      "hit": false,
      "t": 155927.95399999977,
      "d": 359.28100000001723,
      "v": 95
    },
    {
      "midi": 72,
      "hit": false,
      "t": 156646.51599999977,
      "d": 179.64050000000861,
      "v": 95
    },
    {
      "midi": 79,
      "hit": false,
      "t": 156646.51599999977,
      "d": 179.64050000000861,
      "v": 127
    },
    {
      "midi": 72,
      "hit": false,
      "t": 156826.15649999978,
      "d": 179.64050000000861,
      "v": 95
    },
    {
      "midi": 79,
      "hit": false,
      "t": 156826.15649999978,
      "d": 179.64050000000861,
      "v": 127
    },
    {
      "midi": 72,
      "hit": false,
      "t": 157005.7969999998,
      "d": 179.64050000000861,
      "v": 95
    },
    {
      "midi": 76,
      "hit": false,
      "t": 157005.7969999998,
      "d": 179.64050000000861,
      "v": 127
    },
    {
      "midi": 72,
      "hit": false,
      "t": 157185.4374999998,
      "d": 179.64050000000861,
      "v": 95
    },
    {
      "midi": 79,
      "hit": false,
      "t": 157185.4374999998,
      "d": 179.64050000000861,
      "v": 127
    },
    {
      "midi": 64,
      "hit": false,
      "t": 157365.0779999998,
      "d": 179.64050000000861,
      "v": 95
    },
    {
      "midi": 64,
      "hit": false,
      "t": 157544.7184999998,
      "d": 179.64050000000861,
      "v": 95
    },
    {
      "midi": 64,
      "hit": false,
      "t": 157724.35899999982,
      "d": 179.64050000000861,
      "v": 95
    },
    {
      "midi": 64,
      "hit": false,
      "t": 157903.99949999983,
      "d": 179.64050000000861,
      "v": 95
    },
    {
      "midi": 62,
      "hit": false,
      "t": 158083.63999999984,
      "d": 179.64050000000861,
      "v": 95
    },
    {
      "midi": 62,
      "hit": false,
      "t": 158263.28049999985,
      "d": 179.64050000000861,
      "v": 95
    },
    {
      "midi": 62,
      "hit": false,
      "t": 158442.92099999986,
      "d": 179.64050000000861,
      "v": 95
    },
    {
      "midi": 62,
      "hit": false,
      "t": 158622.56149999987,
      "d": 179.64050000000861,
      "v": 95
    },
    {
      "midi": 76,
      "hit": false,
      "t": 158622.56149999987,
      "d": 179.64050000000861,
      "v": 127
    },
    {
      "midi": 67,
      "hit": false,
      "t": 158802.20199999987,
      "d": 179.64050000000861,
      "v": 95
    },
    {
      "midi": 76,
      "hit": false,
      "t": 158802.20199999987,
      "d": 179.64050000000861,
      "v": 127
    },
    {
      "midi": 67,
      "hit": false,
      "t": 158981.84249999988,
      "d": 179.64050000000861,
      "v": 95
    },
    {
      "midi": 76,
      "hit": false,
      "t": 158981.84249999988,
      "d": 179.64050000000861,
      "v": 127
    },
    {
      "midi": 67,
      "hit": false,
      "t": 159161.4829999999,
      "d": 179.64050000000861,
      "v": 95
    },
    {
      "midi": 77,
      "hit": false,
      "t": 159161.4829999999,
      "d": 179.64050000000861,
      "v": 127
    },
    {
      "midi": 67,
      "hit": false,
      "t": 159341.1234999999,
      "d": 179.64050000000861,
      "v": 95
    },
    {
      "midi": 77,
      "hit": false,
      "t": 159341.1234999999,
      "d": 179.64050000000861,
      "v": 127
    },
    {
      "midi": 72,
      "hit": false,
      "t": 159520.7639999999,
      "d": 179.64050000000861,
      "v": 95
    },
    {
      "midi": 79,
      "hit": false,
      "t": 159520.7639999999,
      "d": 179.64050000000861,
      "v": 127
    },
    {
      "midi": 72,
      "hit": false,
      "t": 159700.40449999992,
      "d": 179.64050000000861,
      "v": 95
    },
    {
      "midi": 79,
      "hit": false,
      "t": 159700.40449999992,
      "d": 179.64050000000861,
      "v": 127
    },
    {
      "midi": 72,
      "hit": false,
      "t": 159880.04499999993,
      "d": 179.64050000000861,
      "v": 95
    },
    {
      "midi": 81,
      "hit": false,
      "t": 159880.04499999993,
      "d": 179.64050000000861,
      "v": 127
    },
    {
      "midi": 72,
      "hit": false,
      "t": 160059.68549999993,
      "d": 179.64050000000861,
      "v": 95
    },
    {
      "midi": 79,
      "hit": false,
      "t": 160059.68549999993,
      "d": 359.28100000001723,
      "v": 127
    },
    {
      "midi": 64,
      "hit": false,
      "t": 160239.32599999994,
      "d": 179.64050000000861,
      "v": 95
    },
    {
      "midi": 64,
      "hit": false,
      "t": 160418.96649999995,
      "d": 179.64050000000861,
      "v": 95
    },
    {
      "midi": 76,
      "hit": false,
      "t": 160418.96649999995,
      "d": 359.28100000001723,
      "v": 127
    },
    {
      "midi": 64,
      "hit": false,
      "t": 160598.60699999996,
      "d": 179.64050000000861,
      "v": 95
    },
    {
      "midi": 64,
      "hit": false,
      "t": 160778.24749999997,
      "d": 179.64050000000861,
      "v": 95
    },
    {
      "midi": 74,
      "hit": false,
      "t": 160778.24749999997,
      "d": 359.28100000001723,
      "v": 127
    },
    {
      "midi": 62,
      "hit": false,
      "t": 160957.88799999998,
      "d": 179.64050000000861,
      "v": 95
    },
    {
      "midi": 62,
      "hit": false,
      "t": 161137.5285,
      "d": 179.64050000000861,
      "v": 95
    },
    {
      "midi": 72,
      "hit": false,
      "t": 161137.5285,
      "d": 179.64050000000861,
      "v": 127
    },
    {
      "midi": 62,
      "hit": false,
      "t": 161317.169,
      "d": 179.64050000000861,
      "v": 95
    },
    {
      "midi": 62,
      "hit": false,
      "t": 161496.8095,
      "d": 179.64050000000861,
      "v": 95
    },
    {
      "midi": 76,
      "hit": false,
      "t": 161496.8095,
      "d": 179.64050000000861,
      "v": 127
    },
    {
      "midi": 67,
      "hit": false,
      "t": 161676.45,
      "d": 179.64050000000861,
      "v": 95
    },
    {
      "midi": 76,
      "hit": false,
      "t": 161676.45,
      "d": 179.64050000000861,
      "v": 127
    },
    {
      "midi": 67,
      "hit": false,
      "t": 161856.09050000002,
      "d": 179.64050000000861,
      "v": 95
    },
    {
      "midi": 76,
      "hit": false,
      "t": 161856.09050000002,
      "d": 179.64050000000861,
      "v": 127
    },
    {
      "midi": 67,
      "hit": false,
      "t": 162035.73100000003,
      "d": 179.64050000000861,
      "v": 95
    },
    {
      "midi": 77,
      "hit": false,
      "t": 162035.73100000003,
      "d": 179.64050000000861,
      "v": 127
    },
    {
      "midi": 67,
      "hit": false,
      "t": 162215.37150000004,
      "d": 179.64050000000861,
      "v": 95
    },
    {
      "midi": 77,
      "hit": false,
      "t": 162215.37150000004,
      "d": 179.64050000000861,
      "v": 127
    },
    {
      "midi": 65,
      "hit": false,
      "t": 162395.01200000005,
      "d": 179.64050000000861,
      "v": 95
    },
    {
      "midi": 72,
      "hit": false,
      "t": 162395.01200000005,
      "d": 359.28100000001723,
      "v": 127
    },
    {
      "midi": 79,
      "hit": false,
      "t": 162395.01200000005,
      "d": 359.28100000001723,
      "v": 127
    },
    {
      "midi": 65,
      "hit": false,
      "t": 162574.65250000005,
      "d": 179.64050000000861,
      "v": 95
    },
    {
      "midi": 65,
      "hit": false,
      "t": 162754.29300000006,
      "d": 179.64050000000861,
      "v": 95
    },
    {
      "midi": 76,
      "hit": false,
      "t": 162754.29300000006,
      "d": 179.64050000000861,
      "v": 127
    },
    {
      "midi": 65,
      "hit": false,
      "t": 162933.93350000007,
      "d": 179.64050000000861,
      "v": 95
    },
    {
      "midi": 79,
      "hit": false,
      "t": 162933.93350000007,
      "d": 359.28100000001723,
      "v": 127
    },
    {
      "midi": 64,
      "hit": false,
      "t": 163113.57400000008,
      "d": 179.64050000000861,
      "v": 95
    },
    {
      "midi": 64,
      "hit": false,
      "t": 163293.2145000001,
      "d": 179.64050000000861,
      "v": 95
    },
    {
      "midi": 76,
      "hit": false,
      "t": 163293.2145000001,
      "d": 359.28100000001723,
      "v": 127
    },
    {
      "midi": 64,
      "hit": false,
      "t": 163472.8550000001,
      "d": 179.64050000000861,
      "v": 95
    },
    {
      "midi": 64,
      "hit": false,
      "t": 163652.4955000001,
      "d": 179.64050000000861,
      "v": 95
    },
    {
      "midi": 74,
      "hit": false,
      "t": 163652.4955000001,
      "d": 359.28100000001723,
      "v": 127
    },
    {
      "midi": 62,
      "hit": false,
      "t": 163832.13600000012,
      "d": 179.64050000000861,
      "v": 95
    },
    {
      "midi": 62,
      "hit": false,
      "t": 164011.77650000012,
      "d": 179.64050000000861,
      "v": 95
    },
    {
      "midi": 72,
      "hit": false,
      "t": 164011.77650000012,
      "d": 359.28100000001723,
      "v": 127
    },
    {
      "midi": 62,
      "hit": false,
      "t": 164191.41700000013,
      "d": 179.64050000000861,
      "v": 95
    },
    {
      "midi": 62,
      "hit": false,
      "t": 164371.05750000014,
      "d": 179.64050000000861,
      "v": 95
    },
    {
      "midi": 76,
      "hit": false,
      "t": 164371.05750000014,
      "d": 179.64050000000861,
      "v": 127
    },
    {
      "midi": 67,
      "hit": false,
      "t": 164550.69800000015,
      "d": 179.64050000000861,
      "v": 95
    },
    {
      "midi": 77,
      "hit": false,
      "t": 164550.69800000015,
      "d": 179.64050000000861,
      "v": 127
    },
    {
      "midi": 67,
      "hit": false,
      "t": 164730.33850000016,
      "d": 179.64050000000861,
      "v": 95
    },
    {
      "midi": 76,
      "hit": false,
      "t": 164730.33850000016,
      "d": 179.64050000000861,
      "v": 127
    },
    {
      "midi": 67,
      "hit": false,
      "t": 164909.97900000017,
      "d": 179.64050000000861,
      "v": 95
    },
    {
      "midi": 74,
      "hit": false,
      "t": 164909.97900000017,
      "d": 179.64050000000861,
      "v": 127
    },
    {
      "midi": 67,
      "hit": false,
      "t": 165089.61950000018,
      "d": 179.64050000000861,
      "v": 95
    },
    {
      "midi": 76,
      "hit": false,
      "t": 165089.61950000018,
      "d": 179.64050000000861,
      "v": 127
    },
    {
      "midi": 65,
      "hit": false,
      "t": 165269.26000000018,
      "d": 179.64050000000861,
      "v": 95
    },
    {
      "midi": 69,
      "hit": false,
      "t": 165269.26000000018,
      "d": 359.28100000001723,
      "v": 127
    },
    {
      "midi": 72,
      "hit": false,
      "t": 165269.26000000018,
      "d": 359.28100000001723,
      "v": 127
    },
    {
      "midi": 65,
      "hit": false,
      "t": 165448.9005000002,
      "d": 179.64050000000861,
      "v": 95
    },
    {
      "midi": 65,
      "hit": false,
      "t": 165628.5410000002,
      "d": 179.64050000000861,
      "v": 95
    },
    {
      "midi": 65,
      "hit": false,
      "t": 165808.1815000002,
      "d": 179.64050000000861,
      "v": 95
    },
    {
      "midi": 65,
      "hit": false,
      "t": 165987.82200000022,
      "d": 179.64050000000861,
      "v": 95
    },
    {
      "midi": 65,
      "hit": false,
      "t": 166167.46250000023,
      "d": 179.64050000000861,
      "v": 95
    },
    {
      "midi": 65,
      "hit": false,
      "t": 166347.10300000024,
      "d": 179.64050000000861,
      "v": 95
    },
    {
      "midi": 65,
      "hit": false,
      "t": 166526.74350000024,
      "d": 179.64050000000861,
      "v": 95
    },
    {
      "midi": 64,
      "hit": false,
      "t": 166706.38400000025,
      "d": 179.64050000000861,
      "v": 95
    },
    {
      "midi": 64,
      "hit": false,
      "t": 166886.02450000026,
      "d": 179.64050000000861,
      "v": 95
    },
    {
      "midi": 64,
      "hit": false,
      "t": 167065.66500000027,
      "d": 179.64050000000861,
      "v": 95
    },
    {
      "midi": 64,
      "hit": false,
      "t": 167245.30550000028,
      "d": 179.64050000000861,
      "v": 95
    },
    {
      "midi": 64,
      "hit": false,
      "t": 167424.9460000003,
      "d": 179.64050000000861,
      "v": 95
    },
    {
      "midi": 77,
      "hit": false,
      "t": 167424.9460000003,
      "d": 179.64050000000861,
      "v": 127
    },
    {
      "midi": 64,
      "hit": false,
      "t": 167604.5865000003,
      "d": 179.64050000000861,
      "v": 95
    },
    {
      "midi": 76,
      "hit": false,
      "t": 167604.5865000003,
      "d": 179.64050000000861,
      "v": 127
    },
    {
      "midi": 64,
      "hit": false,
      "t": 167784.2270000003,
      "d": 179.64050000000861,
      "v": 95
    },
    {
      "midi": 74,
      "hit": false,
      "t": 167784.2270000003,
      "d": 179.64050000000861,
      "v": 127
    },
    {
      "midi": 64,
      "hit": false,
      "t": 167963.8675000003,
      "d": 179.64050000000861,
      "v": 95
    },
    {
      "midi": 76,
      "hit": false,
      "t": 167963.8675000003,
      "d": 179.64050000000861,
      "v": 127
    },
    {
      "midi": 62,
      "hit": false,
      "t": 168143.50800000032,
      "d": 179.64050000000861,
      "v": 95
    },
    {
      "midi": 65,
      "hit": false,
      "t": 168143.50800000032,
      "d": 359.28100000001723,
      "v": 127
    },
    {
      "midi": 72,
      "hit": false,
      "t": 168143.50800000032,
      "d": 359.28100000001723,
      "v": 127
    },
    {
      "midi": 62,
      "hit": false,
      "t": 168323.14850000033,
      "d": 179.64050000000861,
      "v": 95
    },
    {
      "midi": 62,
      "hit": false,
      "t": 168502.78900000034,
      "d": 179.64050000000861,
      "v": 95
    },
    {
      "midi": 62,
      "hit": false,
      "t": 168682.42950000035,
      "d": 179.64050000000861,
      "v": 95
    },
    {
      "midi": 62,
      "hit": false,
      "t": 168862.07000000036,
      "d": 179.64050000000861,
      "v": 95
    },
    {
      "midi": 62,
      "hit": false,
      "t": 169041.71050000036,
      "d": 179.64050000000861,
      "v": 95
    },
    {
      "midi": 62,
      "hit": false,
      "t": 169221.35100000037,
      "d": 179.64050000000861,
      "v": 95
    },
    {
      "midi": 62,
      "hit": false,
      "t": 169400.99150000038,
      "d": 179.64050000000861,
      "v": 95
    },
    {
      "midi": 70,
      "hit": false,
      "t": 169580.6320000004,
      "d": 1437.1240000000107,
      "v": 95
    },
    {
      "midi": 62,
      "hit": false,
      "t": 169580.6320000004,
      "d": 1437.1240000000107,
      "v": 127
    },
    {
      "midi": 65,
      "hit": false,
      "t": 169580.6320000004,
      "d": 1437.1240000000107,
      "v": 127
    },
    {
      "midi": 72,
      "hit": false,
      "t": 169580.6320000004,
      "d": 1437.1240000000107,
      "v": 127
    },
    {
      "midi": 67,
      "hit": false,
      "t": 171017.7560000004,
      "d": 1437.1240000000107,
      "v": 127
    },
    {
      "midi": 76,
      "hit": false,
      "t": 171017.7560000004,
      "d": 1437.1240000000107,
      "v": 127
    },
    {
      "midi": 65,
      "hit": false,
      "t": 172454.8800000004,
      "d": 718.5620000000054,
      "v": 127
    },
    {
      "midi": 69,
      "hit": false,
      "t": 172454.8800000004,
      "d": 718.5620000000054,
      "v": 127
    },
    {
      "midi": 72,
      "hit": false,
      "t": 173173.44200000042,
      "d": 718.5620000000054,
      "v": 127
    },
    {
      "midi": 67,
      "hit": false,
      "t": 173892.00400000042,
      "d": 1437.1240000000107,
      "v": 127
    },
    {
      "midi": 76,
      "hit": false,
      "t": 173892.00400000042,
      "d": 1437.1240000000107,
      "v": 127
    },
    {
      "midi": 65,
      "hit": false,
      "t": 175329.12800000043,
      "d": 1437.1240000000107,
      "v": 127
    },
    {
      "midi": 69,
      "hit": false,
      "t": 175329.12800000043,
      "d": 1437.1240000000107,
      "v": 127
    },
    {
      "midi": 67,
      "hit": false,
      "t": 176766.25200000044,
      "d": 1437.1240000000107,
      "v": 127
    },
    {
      "midi": 76,
      "hit": false,
      "t": 176766.25200000044,
      "d": 1437.1240000000107,
      "v": 127
    },
    {
      "midi": 65,
      "hit": false,
      "t": 178203.37600000045,
      "d": 718.5620000000054,
      "v": 127
    },
    {
      "midi": 69,
      "hit": false,
      "t": 178203.37600000045,
      "d": 718.5620000000054,
      "v": 127
    },
    {
      "midi": 72,
      "hit": false,
      "t": 178921.93800000046,
      "d": 718.5620000000054,
      "v": 127
    },
    {
      "midi": 67,
      "hit": false,
      "t": 179640.50000000047,
      "d": 1437.1240000000107,
      "v": 127
    },
    {
      "midi": 76,
      "hit": false,
      "t": 179640.50000000047,
      "d": 1437.1240000000107,
      "v": 127
    },
    {
      "midi": 69,
      "hit": false,
      "t": 181077.62400000048,
      "d": 2874.2479999999923,
      "v": 127
    },
    {
      "midi": 72,
      "hit": false,
      "t": 181077.62400000048,
      "d": 2874.2479999999923,
      "v": 127
    }
  ]
}