{
  "jsonPath": "Classical/Classical Piano/Jorge Bolet/rondo-capriccioso-op14.json",
  "path": "Classical\\Classical Piano\\Jorge Bolet\\Rondo capriccioso_ Op14.mid",
  "name": "Rondo capriccioso_ Op14",
  "difficulty": "Advanced",
  "bpm": 120,
  "notes": [
    {
      "midi": 40,
      "hit": false,
      "t": 5566.666666666668,
      "d": 2295.833333333332,
      "v": 40
    },
    {
      "midi": 52,
      "hit": false,
      "t": 5583.333333333335,
      "d": 1970.8333333333321,
      "v": 43
    },
    {
      "midi": 68,
      "hit": false,
      "t": 6400.000000000002,
      "d": 162.5,
      "v": 47
    },
    {
      "midi": 64,
      "hit": false,
      "t": 6404.166666666669,
      "d": 125,
      "v": 39
    },
    {
      "midi": 59,
      "hit": false,
      "t": 6425.000000000002,
      "d": 129.16666666666697,
      "v": 30
    },
    {
      "midi": 68,
      "hit": false,
      "t": 6920.833333333335,
      "d": 150,
      "v": 51
    },
    {
      "midi": 64,
      "hit": false,
      "t": 6929.166666666668,
      "d": 112.5,
      "v": 47
    },
    {
      "midi": 59,
      "hit": false,
      "t": 6945.833333333335,
      "d": 87.5,
      "v": 31
    },
    {
      "midi": 64,
      "hit": false,
      "t": 7366.666666666668,
      "d": 141.66666666666606,
      "v": 55
    },
    {
      "midi": 59,
      "hit": false,
      "t": 7375.000000000001,
      "d": 112.5,
      "v": 39
    },
    {
      "midi": 68,
      "hit": false,
      "t": 7375.000000000001,
      "d": 154.16666666666606,
      "v": 52
    },
    {
      "midi": 68,
      "hit": false,
      "t": 7812.5,
      "d": 216.66666666666697,
      "v": 59
    },
    {
      "midi": 64,
      "hit": false,
      "t": 7833.333333333333,
      "d": 145.83333333333394,
      "v": 57
    },
    {
      "midi": 59,
      "hit": false,
      "t": 7837.5,
      "d": 125,
      "v": 47
    },
    {
      "midi": 68,
      "hit": false,
      "t": 8379.166666666668,
      "d": 204.16666666666606,
      "v": 71
    },
    {
      "midi": 59,
      "hit": false,
      "t": 8383.333333333334,
      "d": 158.33333333333394,
      "v": 40
    },
    {
      "midi": 64,
      "hit": false,
      "t": 8404.166666666668,
      "d": 104.16666666666606,
      "v": 52
    },
    {
      "midi": 71,
      "hit": false,
      "t": 9054.166666666668,
      "d": 391.6666666666679,
      "v": 66
    },
    {
      "midi": 64,
      "hit": false,
      "t": 9075.000000000002,
      "d": 312.5,
      "v": 45
    },
    {
      "midi": 59,
      "hit": false,
      "t": 9091.666666666668,
      "d": 283.33333333333394,
      "v": 36
    },
    {
      "midi": 44,
      "hit": false,
      "t": 9104.166666666668,
      "d": 1083.333333333334,
      "v": 41
    },
    {
      "midi": 32,
      "hit": false,
      "t": 9104.166666666668,
      "d": 1087.5,
      "v": 35
    },
    {
      "midi": 68,
      "hit": false,
      "t": 9945.833333333336,
      "d": 295.8333333333321,
      "v": 47
    },
    {
      "midi": 59,
      "hit": false,
      "t": 9966.66666666667,
      "d": 179.16666666666606,
      "v": 39
    },
    {
      "midi": 64,
      "hit": false,
      "t": 9966.66666666667,
      "d": 249.99999999999818,
      "v": 39
    },
    {
      "midi": 45,
      "hit": false,
      "t": 11179.166666666668,
      "d": 2979.1666666666697,
      "v": 49
    },
    {
      "midi": 33,
      "hit": false,
      "t": 11187.500000000002,
      "d": 2958.3333333333358,
      "v": 45
    },
    {
      "midi": 54,
      "hit": false,
      "t": 12029.166666666668,
      "d": 245.83333333333394,
      "v": 30
    },
    {
      "midi": 61,
      "hit": false,
      "t": 12050.000000000002,
      "d": 245.83333333333394,
      "v": 47
    },
    {
      "midi": 66,
      "hit": false,
      "t": 12050.000000000002,
      "d": 250,
      "v": 45
    },
    {
      "midi": 64,
      "hit": false,
      "t": 12066.666666666668,
      "d": 250,
      "v": 44
    },
    {
      "midi": 66,
      "hit": false,
      "t": 12741.666666666668,
      "d": 250,
      "v": 55
    },
    {
      "midi": 61,
      "hit": false,
      "t": 12750.000000000002,
      "d": 241.66666666666606,
      "v": 48
    },
    {
      "midi": 54,
      "hit": false,
      "t": 12762.500000000002,
      "d": 250,
      "v": 29
    },
    {
      "midi": 64,
      "hit": false,
      "t": 12762.500000000002,
      "d": 250,
      "v": 51
    },
    {
      "midi": 66,
      "hit": false,
      "t": 13362.500000000002,
      "d": 245.83333333333394,
      "v": 56
    },
    {
      "midi": 54,
      "hit": false,
      "t": 13366.666666666668,
      "d": 250.00000000000182,
      "v": 41
    },
    {
      "midi": 61,
      "hit": false,
      "t": 13366.666666666668,
      "d": 250.00000000000182,
      "v": 55
    },
    {
      "midi": 64,
      "hit": false,
      "t": 13375.000000000002,
      "d": 254.16666666666788,
      "v": 59
    },
    {
      "midi": 66,
      "hit": false,
      "t": 13879.16666666667,
      "d": 245.83333333333394,
      "v": 61
    },
    {
      "midi": 61,
      "hit": false,
      "t": 13895.833333333336,
      "d": 241.66666666666788,
      "v": 57
    },
    {
      "midi": 54,
      "hit": false,
      "t": 13895.833333333336,
      "d": 250.00000000000182,
      "v": 57
    },
    {
      "midi": 64,
      "hit": false,
      "t": 13916.66666666667,
      "d": 241.66666666666788,
      "v": 58
    },
    {
      "midi": 66,
      "hit": false,
      "t": 14375.000000000004,
      "d": 241.66666666666606,
      "v": 65
    },
    {
      "midi": 54,
      "hit": false,
      "t": 14375.000000000004,
      "d": 254.16666666666606,
      "v": 66
    },
    {
      "midi": 61,
      "hit": false,
      "t": 14375.000000000004,
      "d": 254.16666666666606,
      "v": 57
    },
    {
      "midi": 64,
      "hit": false,
      "t": 14387.500000000004,
      "d": 245.83333333333212,
      "v": 63
    },
    {
      "midi": 66,
      "hit": false,
      "t": 14895.833333333336,
      "d": 254.16666666666606,
      "v": 77
    },
    {
      "midi": 61,
      "hit": false,
      "t": 14908.333333333336,
      "d": 250,
      "v": 71
    },
    {
      "midi": 46,
      "hit": false,
      "t": 14908.333333333336,
      "d": 662.5,
      "v": 80
    },
    {
      "midi": 34,
      "hit": false,
      "t": 14908.333333333336,
      "d": 666.6666666666661,
      "v": 66
    },
    {
      "midi": 54,
      "hit": false,
      "t": 14916.66666666667,
      "d": 254.16666666666606,
      "v": 62
    },
    {
      "midi": 64,
      "hit": false,
      "t": 14962.500000000004,
      "d": 212.49999999999818,
      "v": 39
    },
    {
      "midi": 54,
      "hit": false,
      "t": 15416.666666666668,
      "d": 250,
      "v": 63
    },
    {
      "midi": 66,
      "hit": false,
      "t": 15420.833333333334,
      "d": 245.83333333333394,
      "v": 76
    },
    {
      "midi": 61,
      "hit": false,
      "t": 15429.166666666668,
      "d": 250,
      "v": 67
    },
    {
      "midi": 64,
      "hit": false,
      "t": 15437.500000000002,
      "d": 250,
      "v": 72
    },
    {
      "midi": 66,
      "hit": false,
      "t": 15958.333333333336,
      "d": 250,
      "v": 84
    },
    {
      "midi": 54,
      "hit": false,
      "t": 15970.833333333336,
      "d": 245.83333333333394,
      "v": 76
    },
    {
      "midi": 64,
      "hit": false,
      "t": 15970.833333333336,
      "d": 250,
      "v": 80
    },
    {
      "midi": 35,
      "hit": false,
      "t": 15979.16666666667,
      "d": 445.8333333333303,
      "v": 63
    },
    {
      "midi": 59,
      "hit": false,
      "t": 15991.66666666667,
      "d": 245.83333333333212,
      "v": 80
    },
    {
      "midi": 47,
      "hit": false,
      "t": 15991.66666666667,
      "d": 454.1666666666624,
      "v": 68
    },
    {
      "midi": 66,
      "hit": false,
      "t": 16500,
      "d": 250,
      "v": 71
    },
    {
      "midi": 54,
      "hit": false,
      "t": 16504.166666666668,
      "d": 250,
      "v": 55
    },
    {
      "midi": 59,
      "hit": false,
      "t": 16512.5,
      "d": 245.83333333333576,
      "v": 68
    },
    {
      "midi": 64,
      "hit": false,
      "t": 16520.833333333332,
      "d": 250.00000000000364,
      "v": 72
    },
    {
      "midi": 54,
      "hit": false,
      "t": 17066.666666666668,
      "d": 250,
      "v": 57
    },
    {
      "midi": 66,
      "hit": false,
      "t": 17070.833333333336,
      "d": 250,
      "v": 63
    },
    {
      "midi": 58,
      "hit": false,
      "t": 17075.000000000004,
      "d": 250,
      "v": 74
    },
    {
      "midi": 64,
      "hit": false,
      "t": 17083.333333333336,
      "d": 250,
      "v": 70
    },
    {
      "midi": 37,
      "hit": false,
      "t": 17087.500000000004,
      "d": 641.6666666666642,
      "v": 52
    },
    {
      "midi": 49,
      "hit": false,
      "t": 17095.833333333336,
      "d": 558.3333333333321,
      "v": 57
    },
    {
      "midi": 54,
      "hit": false,
      "t": 17670.833333333336,
      "d": 250,
      "v": 67
    },
    {
      "midi": 58,
      "hit": false,
      "t": 17675.000000000004,
      "d": 250,
      "v": 67
    },
    {
      "midi": 66,
      "hit": false,
      "t": 17675.000000000004,
      "d": 250,
      "v": 62
    },
    {
      "midi": 64,
      "hit": false,
      "t": 17695.833333333336,
      "d": 250,
      "v": 62
    },
    {
      "midi": 66,
      "hit": false,
      "t": 18295.833333333336,
      "d": 250,
      "v": 66
    },
    {
      "midi": 59,
      "hit": false,
      "t": 18304.166666666668,
      "d": 245.83333333333576,
      "v": 58
    },
    {
      "midi": 57,
      "hit": false,
      "t": 18304.166666666668,
      "d": 250.00000000000364,
      "v": 66
    },
    {
      "midi": 47,
      "hit": false,
      "t": 18304.166666666668,
      "d": 558.3333333333358,
      "v": 55
    },
    {
      "midi": 35,
      "hit": false,
      "t": 18316.666666666668,
      "d": 537.5000000000036,
      "v": 49
    },
    {
      "midi": 64,
      "hit": false,
      "t": 18320.833333333336,
      "d": 250.00000000000364,
      "v": 68
    },
    {
      "midi": 66,
      "hit": false,
      "t": 18941.66666666667,
      "d": 245.83333333333576,
      "v": 61
    },
    {
      "midi": 57,
      "hit": false,
      "t": 18966.66666666667,
      "d": 250.00000000000364,
      "v": 35
    },
    {
      "midi": 59,
      "hit": false,
      "t": 18966.66666666667,
      "d": 250.00000000000364,
      "v": 39
    },
    {
      "midi": 64,
      "hit": false,
      "t": 18970.83333333334,
      "d": 258.33333333333576,
      "v": 53
    },
    {
      "midi": 69,
      "hit": false,
      "t": 19695.833333333343,
      "d": 250.00000000000364,
      "v": 57
    },
    {
      "midi": 63,
      "hit": false,
      "t": 19712.50000000001,
      "d": 245.83333333333576,
      "v": 58
    },
    {
      "midi": 47,
      "hit": false,
      "t": 19716.66666666668,
      "d": 895.8333333333321,
      "v": 44
    },
    {
      "midi": 57,
      "hit": false,
      "t": 19733.333333333347,
      "d": 245.83333333333212,
      "v": 44
    },
    {
      "midi": 59,
      "hit": false,
      "t": 19733.333333333347,
      "d": 250,
      "v": 40
    },
    {
      "midi": 35,
      "hit": false,
      "t": 19737.500000000015,
      "d": 616.6666666666642,
      "v": 39
    },
    {
      "midi": 63,
      "hit": false,
      "t": 20604.16666666668,
      "d": 249.99999999999636,
      "v": 53
    },
    {
      "midi": 57,
      "hit": false,
      "t": 20658.333333333343,
      "d": 245.83333333333212,
      "v": 26
    },
    {
      "midi": 59,
      "hit": false,
      "t": 20666.666666666675,
      "d": 241.66666666666788,
      "v": 15
    },
    {
      "midi": 52,
      "hit": false,
      "t": 21833.333333333343,
      "d": 1000.0000000000036,
      "v": 45
    },
    {
      "midi": 40,
      "hit": false,
      "t": 21837.50000000001,
      "d": 1000.0000000000036,
      "v": 41
    },
    {
      "midi": 56,
      "hit": false,
      "t": 22887.500000000015,
      "d": 145.83333333333212,
      "v": 41
    },
    {
      "midi": 59,
      "hit": false,
      "t": 22895.833333333347,
      "d": 129.16666666666788,
      "v": 41
    },
    {
      "midi": 64,
      "hit": false,
      "t": 22900.000000000015,
      "d": 45.83333333333212,
      "v": 45
    },
    {
      "midi": 64,
      "hit": false,
      "t": 23512.500000000015,
      "d": 145.83333333333212,
      "v": 45
    },
    {
      "midi": 56,
      "hit": false,
      "t": 23520.833333333347,
      "d": 137.5,
      "v": 42
    },
    {
      "midi": 59,
      "hit": false,
      "t": 23533.333333333347,
      "d": 137.5,
      "v": 40
    },
    {
      "midi": 64,
      "hit": false,
      "t": 23950.000000000015,
      "d": 133.33333333333576,
      "v": 49
    },
    {
      "midi": 56,
      "hit": false,
      "t": 23966.666666666682,
      "d": 120.83333333333576,
      "v": 35
    },
    {
      "midi": 59,
      "hit": false,
      "t": 23966.666666666682,
      "d": 141.66666666666788,
      "v": 47
    },
    {
      "midi": 80,
      "hit": false,
      "t": 24504.166666666682,
      "d": 937.4999999999927,
      "v": 72
    },
    {
      "midi": 64,
      "hit": false,
      "t": 24512.500000000015,
      "d": 183.33333333333212,
      "v": 34
    },
    {
      "midi": 56,
      "hit": false,
      "t": 24525.000000000015,
      "d": 166.66666666666424,
      "v": 39
    },
    {
      "midi": 59,
      "hit": false,
      "t": 24545.833333333347,
      "d": 145.83333333333212,
      "v": 31
    },
    {
      "midi": 64,
      "hit": false,
      "t": 24979.16666666668,
      "d": 170.83333333333212,
      "v": 41
    },
    {
      "midi": 56,
      "hit": false,
      "t": 24983.333333333347,
      "d": 166.66666666666424,
      "v": 33
    },
    {
      "midi": 59,
      "hit": false,
      "t": 24991.66666666668,
      "d": 158.33333333333212,
      "v": 41
    },
    {
      "midi": 76,
      "hit": false,
      "t": 25408.333333333343,
      "d": 404.1666666666679,
      "v": 64
    },
    {
      "midi": 64,
      "hit": false,
      "t": 25441.666666666675,
      "d": 129.16666666666788,
      "v": 39
    },
    {
      "midi": 56,
      "hit": false,
      "t": 25445.833333333343,
      "d": 104.16666666666788,
      "v": 33
    },
    {
      "midi": 59,
      "hit": false,
      "t": 25445.833333333343,
      "d": 162.5,
      "v": 38
    },
    {
      "midi": 64,
      "hit": false,
      "t": 25929.16666666668,
      "d": 54.16666666666424,
      "v": 46
    },
    {
      "midi": 56,
      "hit": false,
      "t": 25929.16666666668,
      "d": 95.83333333333212,
      "v": 39
    },
    {
      "midi": 59,
      "hit": false,
      "t": 25950.00000000001,
      "d": 33.33333333333212,
      "v": 27
    },
    {
      "midi": 52,
      "hit": false,
      "t": 26545.833333333343,
      "d": 999.9999999999964,
      "v": 41
    },
    {
      "midi": 71,
      "hit": false,
      "t": 26545.833333333343,
      "d": 1287.4999999999927,
      "v": 61
    },
    {
      "midi": 40,
      "hit": false,
      "t": 26566.666666666675,
      "d": 999.9999999999964,
      "v": 38
    },
    {
      "midi": 56,
      "hit": false,
      "t": 27212.500000000007,
      "d": 166.66666666666424,
      "v": 41
    },
    {
      "midi": 64,
      "hit": false,
      "t": 27212.500000000007,
      "d": 166.66666666666424,
      "v": 26
    },
    {
      "midi": 59,
      "hit": false,
      "t": 27220.83333333334,
      "d": 137.5,
      "v": 42
    },
    {
      "midi": 56,
      "hit": false,
      "t": 27687.500000000004,
      "d": 116.66666666666424,
      "v": 45
    },
    {
      "midi": 64,
      "hit": false,
      "t": 27695.833333333336,
      "d": 120.83333333333212,
      "v": 44
    },
    {
      "midi": 59,
      "hit": false,
      "t": 27716.666666666668,
      "d": 87.5,
      "v": 31
    },
    {
      "midi": 71,
      "hit": false,
      "t": 28241.666666666668,
      "d": 704.1666666666679,
      "v": 65
    },
    {
      "midi": 56,
      "hit": false,
      "t": 28258.333333333336,
      "d": 100,
      "v": 42
    },
    {
      "midi": 64,
      "hit": false,
      "t": 28262.500000000004,
      "d": 116.66666666666424,
      "v": 37
    },
    {
      "midi": 59,
      "hit": false,
      "t": 28295.833333333336,
      "d": 37.5,
      "v": 26
    },
    {
      "midi": 73,
      "hit": false,
      "t": 28908.333333333336,
      "d": 812.5000000000073,
      "v": 75
    },
    {
      "midi": 64,
      "hit": false,
      "t": 28945.833333333336,
      "d": 308.33333333333576,
      "v": 40
    },
    {
      "midi": 52,
      "hit": false,
      "t": 28950.000000000004,
      "d": 283.33333333333576,
      "v": 37
    },
    {
      "midi": 61,
      "hit": false,
      "t": 28950.000000000004,
      "d": 325.00000000000364,
      "v": 53
    },
    {
      "midi": 58,
      "hit": false,
      "t": 28962.500000000004,
      "d": 295.83333333333576,
      "v": 53
    },
    {
      "midi": 55,
      "hit": false,
      "t": 28983.33333333334,
      "d": 270.8333333333321,
      "v": 33
    },
    {
      "midi": 64,
      "hit": false,
      "t": 29616.666666666675,
      "d": 208.33333333333576,
      "v": 33
    },
    {
      "midi": 58,
      "hit": false,
      "t": 29629.166666666675,
      "d": 191.66666666666788,
      "v": 42
    },
    {
      "midi": 61,
      "hit": false,
      "t": 29633.333333333343,
      "d": 204.16666666666788,
      "v": 34
    },
    {
      "midi": 52,
      "hit": false,
      "t": 29637.50000000001,
      "d": 120.83333333333212,
      "v": 21
    },
    {
      "midi": 75,
      "hit": false,
      "t": 29795.833333333343,
      "d": 133.33333333333212,
      "v": 61
    },
    {
      "midi": 73,
      "hit": false,
      "t": 29920.833333333343,
      "d": 100,
      "v": 56
    },
    {
      "midi": 72,
      "hit": false,
      "t": 30054.166666666675,
      "d": 100,
      "v": 61
    },
    {
      "midi": 73,
      "hit": false,
      "t": 30158.333333333343,
      "d": 145.8333333333394,
      "v": 75
    },
    {
      "midi": 61,
      "hit": false,
      "t": 30254.16666666668,
      "d": 204.16666666666788,
      "v": 39
    },
    {
      "midi": 75,
      "hit": false,
      "t": 30258.333333333347,
      "d": 412.5,
      "v": 74
    },
    {
      "midi": 64,
      "hit": false,
      "t": 30270.833333333347,
      "d": 179.16666666666788,
      "v": 40
    },
    {
      "midi": 52,
      "hit": false,
      "t": 30275.000000000015,
      "d": 154.16666666666788,
      "v": 37
    },
    {
      "midi": 58,
      "hit": false,
      "t": 30275.000000000015,
      "d": 183.33333333333212,
      "v": 44
    },
    {
      "midi": 55,
      "hit": false,
      "t": 30304.166666666682,
      "d": 145.83333333333212,
      "v": 22
    },
    {
      "midi": 76,
      "hit": false,
      "t": 30750.000000000015,
      "d": 116.66666666666424,
      "v": 72
    },
    {
      "midi": 61,
      "hit": false,
      "t": 30762.500000000015,
      "d": 79.16666666666424,
      "v": 53
    },
    {
      "midi": 64,
      "hit": false,
      "t": 30762.500000000015,
      "d": 79.16666666666424,
      "v": 53
    },
    {
      "midi": 58,
      "hit": false,
      "t": 30762.500000000015,
      "d": 83.33333333333212,
      "v": 39
    },
    {
      "midi": 52,
      "hit": false,
      "t": 30783.333333333347,
      "d": 83.33333333333212,
      "v": 34
    },
    {
      "midi": 76,
      "hit": false,
      "t": 31437.50000000001,
      "d": 1154.1666666666715,
      "v": 69
    },
    {
      "midi": 40,
      "hit": false,
      "t": 31462.50000000001,
      "d": 500.00000000000364,
      "v": 44
    },
    {
      "midi": 52,
      "hit": false,
      "t": 31466.66666666668,
      "d": 375.00000000000364,
      "v": 47
    },
    {
      "midi": 64,
      "hit": false,
      "t": 32104.166666666682,
      "d": 158.33333333333576,
      "v": 42
    },
    {
      "midi": 56,
      "hit": false,
      "t": 32112.500000000015,
      "d": 150.00000000000364,
      "v": 42
    },
    {
      "midi": 52,
      "hit": false,
      "t": 32129.166666666682,
      "d": 104.16666666666788,
      "v": 38
    },
    {
      "midi": 59,
      "hit": false,
      "t": 32133.33333333335,
      "d": 137.5,
      "v": 29
    },
    {
      "midi": 71,
      "hit": false,
      "t": 32612.500000000015,
      "d": 1666.6666666666642,
      "v": 58
    },
    {
      "midi": 56,
      "hit": false,
      "t": 32645.833333333347,
      "d": 125.00000000000364,
      "v": 39
    },
    {
      "midi": 64,
      "hit": false,
      "t": 32650.000000000015,
      "d": 104.16666666666788,
      "v": 38
    },
    {
      "midi": 52,
      "hit": false,
      "t": 32654.166666666682,
      "d": 95.83333333333212,
      "v": 40
    },
    {
      "midi": 59,
      "hit": false,
      "t": 32666.666666666682,
      "d": 133.33333333333212,
      "v": 41
    },
    {
      "midi": 64,
      "hit": false,
      "t": 33258.33333333335,
      "d": 120.83333333333576,
      "v": 41
    },
    {
      "midi": 56,
      "hit": false,
      "t": 33258.33333333335,
      "d": 145.83333333333576,
      "v": 35
    },
    {
      "midi": 59,
      "hit": false,
      "t": 33270.83333333335,
      "d": 108.33333333333576,
      "v": 33
    },
    {
      "midi": 52,
      "hit": false,
      "t": 33270.83333333335,
      "d": 158.33333333333576,
      "v": 31
    },
    {
      "midi": 32,
      "hit": false,
      "t": 34075.00000000002,
      "d": 499.9999999999927,
      "v": 61
    },
    {
      "midi": 44,
      "hit": false,
      "t": 34075.00000000002,
      "d": 499.9999999999927,
      "v": 61
    },
    {
      "midi": 83,
      "hit": false,
      "t": 35066.66666666668,
      "d": 770.833333333343,
      "v": 65
    },
    {
      "midi": 56,
      "hit": false,
      "t": 35087.500000000015,
      "d": 208.33333333333576,
      "v": 44
    },
    {
      "midi": 64,
      "hit": false,
      "t": 35087.500000000015,
      "d": 225.00000000000728,
      "v": 44
    },
    {
      "midi": 52,
      "hit": false,
      "t": 35091.66666666668,
      "d": 183.33333333333576,
      "v": 44
    },
    {
      "midi": 59,
      "hit": false,
      "t": 35104.16666666668,
      "d": 200.00000000000728,
      "v": 53
    },
    {
      "midi": 81,
      "hit": false,
      "t": 35783.33333333336,
      "d": 512.5,
      "v": 65
    },
    {
      "midi": 56,
      "hit": false,
      "t": 35820.83333333336,
      "d": 145.83333333333576,
      "v": 44
    },
    {
      "midi": 52,
      "hit": false,
      "t": 35837.50000000002,
      "d": 108.33333333333576,
      "v": 44
    },
    {
      "midi": 64,
      "hit": false,
      "t": 35837.50000000002,
      "d": 129.16666666667152,
      "v": 44
    },
    {
      "midi": 59,
      "hit": false,
      "t": 35845.83333333336,
      "d": 145.83333333333576,
      "v": 53
    },
    {
      "midi": 64,
      "hit": false,
      "t": 36275.00000000003,
      "d": 41.66666666666424,
      "v": 44
    },
    {
      "midi": 56,
      "hit": false,
      "t": 36279.16666666669,
      "d": 62.5,
      "v": 44
    },
    {
      "midi": 80,
      "hit": false,
      "t": 36279.16666666669,
      "d": 608.3333333333285,
      "v": 71
    },
    {
      "midi": 59,
      "hit": false,
      "t": 36295.83333333336,
      "d": 29.166666666671517,
      "v": 53
    },
    {
      "midi": 52,
      "hit": false,
      "t": 36295.83333333336,
      "d": 70.83333333333576,
      "v": 44
    },
    {
      "midi": 78,
      "hit": false,
      "t": 36812.50000000002,
      "d": 545.833333333343,
      "v": 67
    },
    {
      "midi": 45,
      "hit": false,
      "t": 36816.666666666686,
      "d": 500.0000000000073,
      "v": 53
    },
    {
      "midi": 33,
      "hit": false,
      "t": 36825.00000000002,
      "d": 500.0000000000073,
      "v": 60
    },
    {
      "midi": 76,
      "hit": false,
      "t": 37337.50000000003,
      "d": 587.5,
      "v": 72
    },
    {
      "midi": 64,
      "hit": false,
      "t": 37366.6666666667,
      "d": 116.66666666666424,
      "v": 55
    },
    {
      "midi": 54,
      "hit": false,
      "t": 37375.00000000004,
      "d": 137.49999999999272,
      "v": 40
    },
    {
      "midi": 61,
      "hit": false,
      "t": 37379.1666666667,
      "d": 104.16666666666424,
      "v": 53
    },
    {
      "midi": 75,
      "hit": false,
      "t": 37895.833333333365,
      "d": 379.16666666665697,
      "v": 73
    },
    {
      "midi": 61,
      "hit": false,
      "t": 37920.833333333365,
      "d": 195.83333333332848,
      "v": 50
    },
    {
      "midi": 64,
      "hit": false,
      "t": 37929.16666666669,
      "d": 175,
      "v": 45
    },
    {
      "midi": 54,
      "hit": false,
      "t": 37929.16666666669,
      "d": 204.16666666666424,
      "v": 31
    },
    {
      "midi": 78,
      "hit": false,
      "t": 38212.50000000002,
      "d": 279.16666666666424,
      "v": 71
    },
    {
      "midi": 61,
      "hit": false,
      "t": 38504.166666666686,
      "d": 104.16666666667152,
      "v": 48
    },
    {
      "midi": 54,
      "hit": false,
      "t": 38504.166666666686,
      "d": 125.00000000000728,
      "v": 53
    },
    {
      "midi": 64,
      "hit": false,
      "t": 38512.50000000002,
      "d": 75,
      "v": 50
    },
    {
      "midi": 76,
      "hit": false,
      "t": 38529.166666666686,
      "d": 266.6666666666715,
      "v": 64
    },
    {
      "midi": 73,
      "hit": false,
      "t": 38800.00000000002,
      "d": 395.83333333333576,
      "v": 75
    },
    {
      "midi": 47,
      "hit": false,
      "t": 39158.33333333336,
      "d": 500.0000000000073,
      "v": 62
    },
    {
      "midi": 71,
      "hit": false,
      "t": 39179.16666666669,
      "d": 950,
      "v": 71
    },
    {
      "midi": 64,
      "hit": false,
      "t": 39845.833333333365,
      "d": 166.66666666666424,
      "v": 44
    },
    {
      "midi": 56,
      "hit": false,
      "t": 39845.833333333365,
      "d": 241.66666666666424,
      "v": 53
    },
    {
      "midi": 59,
      "hit": false,
      "t": 39858.333333333365,
      "d": 175,
      "v": 37
    },
    {
      "midi": 72,
      "hit": false,
      "t": 40137.50000000003,
      "d": 450,
      "v": 64
    },
    {
      "midi": 69,
      "hit": false,
      "t": 40575.00000000003,
      "d": 679.1666666666715,
      "v": 53
    },
    {
      "midi": 73,
      "hit": false,
      "t": 40587.50000000003,
      "d": 625.0000000000073,
      "v": 71
    },
    {
      "midi": 63,
      "hit": false,
      "t": 40595.833333333365,
      "d": 262.5,
      "v": 44
    },
    {
      "midi": 59,
      "hit": false,
      "t": 40608.333333333365,
      "d": 258.33333333333576,
      "v": 48
    },
    {
      "midi": 54,
      "hit": false,
      "t": 40629.1666666667,
      "d": 270.83333333333576,
      "v": 41
    },
    {
      "midi": 63,
      "hit": false,
      "t": 41379.1666666667,
      "d": 104.16666666667152,
      "v": 48
    },
    {
      "midi": 59,
      "hit": false,
      "t": 41387.50000000004,
      "d": 95.83333333333576,
      "v": 44
    },
    {
      "midi": 54,
      "hit": false,
      "t": 41387.50000000004,
      "d": 166.66666666667152,
      "v": 41
    },
    {
      "midi": 66,
      "hit": false,
      "t": 41795.83333333337,
      "d": 104.16666666666424,
      "v": 53
    },
    {
      "midi": 69,
      "hit": false,
      "t": 41795.83333333337,
      "d": 133.33333333332848,
      "v": 45
    },
    {
      "midi": 68,
      "hit": false,
      "t": 42312.50000000004,
      "d": 408.33333333333576,
      "v": 55
    },
    {
      "midi": 40,
      "hit": false,
      "t": 42316.6666666667,
      "d": 500.0000000000073,
      "v": 42
    },
    {
      "midi": 52,
      "hit": false,
      "t": 42316.6666666667,
      "d": 500.0000000000073,
      "v": 44
    },
    {
      "midi": 64,
      "hit": false,
      "t": 42325.00000000004,
      "d": 320.83333333333576,
      "v": 48
    },
    {
      "midi": 56,
      "hit": false,
      "t": 43145.83333333337,
      "d": 137.5,
      "v": 54
    },
    {
      "midi": 64,
      "hit": false,
      "t": 43154.16666666671,
      "d": 129.16666666666424,
      "v": 37
    },
    {
      "midi": 59,
      "hit": false,
      "t": 43166.66666666671,
      "d": 112.5,
      "v": 49
    },
    {
      "midi": 64,
      "hit": false,
      "t": 43687.50000000004,
      "d": 137.5,
      "v": 41
    },
    {
      "midi": 56,
      "hit": false,
      "t": 43691.6666666667,
      "d": 141.66666666667152,
      "v": 51
    },
    {
      "midi": 59,
      "hit": false,
      "t": 43695.833333333365,
      "d": 120.83333333333576,
      "v": 44
    },
    {
      "midi": 64,
      "hit": false,
      "t": 44208.33333333337,
      "d": 125,
      "v": 46
    },
    {
      "midi": 56,
      "hit": false,
      "t": 44216.66666666671,
      "d": 100,
      "v": 39
    },
    {
      "midi": 59,
      "hit": false,
      "t": 44233.33333333337,
      "d": 83.33333333333576,
      "v": 44
    },
    {
      "midi": 80,
      "hit": false,
      "t": 44883.33333333337,
      "d": 1033.3333333333212,
      "v": 69
    },
    {
      "midi": 56,
      "hit": false,
      "t": 44925.00000000004,
      "d": 162.5,
      "v": 45
    },
    {
      "midi": 64,
      "hit": false,
      "t": 44925.00000000004,
      "d": 166.66666666666424,
      "v": 43
    },
    {
      "midi": 59,
      "hit": false,
      "t": 44937.50000000004,
      "d": 154.16666666666424,
      "v": 44
    },
    {
      "midi": 56,
      "hit": false,
      "t": 45425.00000000004,
      "d": 145.83333333332848,
      "v": 42
    },
    {
      "midi": 64,
      "hit": false,
      "t": 45437.50000000004,
      "d": 133.33333333332848,
      "v": 45
    },
    {
      "midi": 59,
      "hit": false,
      "t": 45441.6666666667,
      "d": 112.5,
      "v": 43
    },
    {
      "midi": 76,
      "hit": false,
      "t": 45887.50000000003,
      "d": 1158.333333333314,
      "v": 58
    },
    {
      "midi": 64,
      "hit": false,
      "t": 45920.83333333336,
      "d": 141.66666666665697,
      "v": 37
    },
    {
      "midi": 56,
      "hit": false,
      "t": 45925.00000000002,
      "d": 120.83333333332848,
      "v": 37
    },
    {
      "midi": 59,
      "hit": false,
      "t": 45929.166666666686,
      "d": 104.16666666666424,
      "v": 36
    },
    {
      "midi": 64,
      "hit": false,
      "t": 46383.33333333335,
      "d": 62.5,
      "v": 46
    },
    {
      "midi": 59,
      "hit": false,
      "t": 46395.83333333335,
      "d": 50,
      "v": 25
    },
    {
      "midi": 56,
      "hit": false,
      "t": 46400.000000000015,
      "d": 87.5,
      "v": 43
    },
    {
      "midi": 52,
      "hit": false,
      "t": 47025.000000000015,
      "d": 500,
      "v": 35
    },
    {
      "midi": 71,
      "hit": false,
      "t": 47029.16666666668,
      "d": 850.0000000000073,
      "v": 56
    },
    {
      "midi": 40,
      "hit": false,
      "t": 47050.00000000001,
      "d": 500.0000000000073,
      "v": 41
    },
    {
      "midi": 56,
      "hit": false,
      "t": 47645.83333333335,
      "d": 112.5,
      "v": 57
    },
    {
      "midi": 64,
      "hit": false,
      "t": 47650.000000000015,
      "d": 129.16666666667152,
      "v": 37
    },
    {
      "midi": 59,
      "hit": false,
      "t": 47675.000000000015,
      "d": 120.83333333333576,
      "v": 38
    },
    {
      "midi": 56,
      "hit": false,
      "t": 48129.166666666686,
      "d": 83.33333333333576,
      "v": 46
    },
    {
      "midi": 64,
      "hit": false,
      "t": 48129.166666666686,
      "d": 100,
      "v": 44
    },
    {
      "midi": 59,
      "hit": false,
      "t": 48137.50000000002,
      "d": 91.66666666666424,
      "v": 40
    },
    {
      "midi": 68,
      "hit": false,
      "t": 48575.00000000002,
      "d": 62.499999999992724,
      "v": 76
    },
    {
      "midi": 56,
      "hit": false,
      "t": 48591.666666666686,
      "d": 66.66666666666424,
      "v": 51
    },
    {
      "midi": 64,
      "hit": false,
      "t": 48604.166666666686,
      "d": 75,
      "v": 45
    },
    {
      "midi": 59,
      "hit": false,
      "t": 48608.33333333335,
      "d": 58.33333333333576,
      "v": 40
    },
    {
      "midi": 56,
      "hit": false,
      "t": 49112.50000000002,
      "d": 191.66666666666424,
      "v": 44
    },
    {
      "midi": 64,
      "hit": false,
      "t": 49116.666666666686,
      "d": 204.16666666666424,
      "v": 44
    },
    {
      "midi": 71,
      "hit": false,
      "t": 49125.00000000002,
      "d": 345.8333333333285,
      "v": 73
    },
    {
      "midi": 59,
      "hit": false,
      "t": 49129.166666666686,
      "d": 170.83333333333576,
      "v": 42
    },
    {
      "midi": 76,
      "hit": false,
      "t": 49404.166666666686,
      "d": 254.16666666666424,
      "v": 75
    },
    {
      "midi": 80,
      "hit": false,
      "t": 49654.166666666686,
      "d": 66.66666666666424,
      "v": 75
    },
    {
      "midi": 56,
      "hit": false,
      "t": 49666.666666666686,
      "d": 83.33333333332848,
      "v": 64
    },
    {
      "midi": 59,
      "hit": false,
      "t": 49670.83333333335,
      "d": 37.5,
      "v": 56
    },
    {
      "midi": 64,
      "hit": false,
      "t": 49675.000000000015,
      "d": 25,
      "v": 49
    },
    {
      "midi": 83,
      "hit": false,
      "t": 49929.16666666668,
      "d": 425,
      "v": 75
    },
    {
      "midi": 92,
      "hit": false,
      "t": 50354.16666666668,
      "d": 1129.1666666666642,
      "v": 87
    },
    {
      "midi": 32,
      "hit": false,
      "t": 50379.16666666668,
      "d": 500,
      "v": 65
    },
    {
      "midi": 44,
      "hit": false,
      "t": 50383.33333333334,
      "d": 500,
      "v": 67
    },
    {
      "midi": 63,
      "hit": false,
      "t": 51091.66666666668,
      "d": 83.33333333332848,
      "v": 63
    },
    {
      "midi": 56,
      "hit": false,
      "t": 51091.66666666668,
      "d": 149.99999999999272,
      "v": 57
    },
    {
      "midi": 60,
      "hit": false,
      "t": 51104.16666666668,
      "d": 29.16666666666424,
      "v": 56
    },
    {
      "midi": 90,
      "hit": false,
      "t": 51425.00000000001,
      "d": 120.83333333333576,
      "v": 75
    },
    {
      "midi": 37,
      "hit": false,
      "t": 51925.00000000001,
      "d": 500,
      "v": 62
    },
    {
      "midi": 49,
      "hit": false,
      "t": 51941.66666666667,
      "d": 500,
      "v": 65
    },
    {
      "midi": 90,
      "hit": false,
      "t": 51941.66666666667,
      "d": 1258.333333333343,
      "v": 73
    },
    {
      "midi": 63,
      "hit": false,
      "t": 52604.16666666667,
      "d": 208.33333333333576,
      "v": 61
    },
    {
      "midi": 56,
      "hit": false,
      "t": 52612.50000000001,
      "d": 120.83333333332848,
      "v": 53
    },
    {
      "midi": 60,
      "hit": false,
      "t": 52616.66666666667,
      "d": 162.5,
      "v": 49
    },
    {
      "midi": 88,
      "hit": false,
      "t": 53137.50000000001,
      "d": 779.1666666666715,
      "v": 68
    },
    {
      "midi": 56,
      "hit": false,
      "t": 53158.33333333334,
      "d": 195.83333333333576,
      "v": 44
    },
    {
      "midi": 64,
      "hit": false,
      "t": 53170.83333333334,
      "d": 187.5,
      "v": 49
    },
    {
      "midi": 61,
      "hit": false,
      "t": 53170.83333333334,
      "d": 195.83333333333576,
      "v": 52
    },
    {
      "midi": 56,
      "hit": false,
      "t": 53712.500000000015,
      "d": 104.16666666666424,
      "v": 47
    },
    {
      "midi": 61,
      "hit": false,
      "t": 53716.66666666668,
      "d": 100,
      "v": 39
    },
    {
      "midi": 64,
      "hit": false,
      "t": 53729.16666666668,
      "d": 41.66666666666424,
      "v": 43
    },
    {
      "midi": 61,
      "hit": false,
      "t": 54525.000000000015,
      "d": 358.33333333333576,
      "v": 51
    },
    {
      "midi": 56,
      "hit": false,
      "t": 54541.66666666668,
      "d": 291.6666666666715,
      "v": 51
    },
    {
      "midi": 52,
      "hit": false,
      "t": 54554.16666666668,
      "d": 262.5000000000073,
      "v": 40
    },
    {
      "midi": 59,
      "hit": false,
      "t": 54562.500000000015,
      "d": 270.83333333333576,
      "v": 46
    },
    {
      "midi": 72,
      "hit": false,
      "t": 55075.000000000015,
      "d": 391.6666666666715,
      "v": 55
    },
    {
      "midi": 61,
      "hit": false,
      "t": 55450.000000000015,
      "d": 266.66666666666424,
      "v": 42
    },
    {
      "midi": 73,
      "hit": false,
      "t": 55458.33333333335,
      "d": 333.3333333333285,
      "v": 65
    },
    {
      "midi": 52,
      "hit": false,
      "t": 55483.33333333335,
      "d": 120.83333333333576,
      "v": 36
    },
    {
      "midi": 56,
      "hit": false,
      "t": 55483.33333333335,
      "d": 187.5,
      "v": 48
    },
    {
      "midi": 59,
      "hit": false,
      "t": 55504.166666666686,
      "d": 183.33333333332848,
      "v": 44
    },
    {
      "midi": 79,
      "hit": false,
      "t": 55758.33333333334,
      "d": 262.5,
      "v": 64
    },
    {
      "midi": 82,
      "hit": false,
      "t": 56045.83333333334,
      "d": 245.83333333332848,
      "v": 77
    },
    {
      "midi": 61,
      "hit": false,
      "t": 56070.83333333334,
      "d": 187.49999999999272,
      "v": 46
    },
    {
      "midi": 56,
      "hit": false,
      "t": 56087.50000000001,
      "d": 154.16666666666424,
      "v": 51
    },
    {
      "midi": 52,
      "hit": false,
      "t": 56091.66666666667,
      "d": 141.66666666666424,
      "v": 45
    },
    {
      "midi": 59,
      "hit": false,
      "t": 56108.333333333336,
      "d": 133.33333333333576,
      "v": 45
    },
    {
      "midi": 80,
      "hit": false,
      "t": 56300.00000000001,
      "d": 241.66666666666424,
      "v": 80
    },
    {
      "midi": 76,
      "hit": false,
      "t": 56562.50000000001,
      "d": 174.99999999999272,
      "v": 73
    },
    {
      "midi": 61,
      "hit": false,
      "t": 56566.66666666667,
      "d": 58.33333333332848,
      "v": 58
    },
    {
      "midi": 52,
      "hit": false,
      "t": 56570.833333333336,
      "d": 62.5,
      "v": 47
    },
    {
      "midi": 56,
      "hit": false,
      "t": 56570.833333333336,
      "d": 79.16666666666424,
      "v": 58
    },
    {
      "midi": 73,
      "hit": false,
      "t": 56795.833333333336,
      "d": 287.5,
      "v": 83
    },
    {
      "midi": 42,
      "hit": false,
      "t": 57075,
      "d": 500.00000000001455,
      "v": 73
    },
    {
      "midi": 87,
      "hit": false,
      "t": 57091.66666666667,
      "d": 325.0000000000073,
      "v": 83
    },
    {
      "midi": 82,
      "hit": false,
      "t": 57395.83333333334,
      "d": 220.83333333333576,
      "v": 77
    },
    {
      "midi": 54,
      "hit": false,
      "t": 57654.16666666668,
      "d": 83.33333333332848,
      "v": 69
    },
    {
      "midi": 63,
      "hit": false,
      "t": 57654.16666666668,
      "d": 104.16666666666424,
      "v": 70
    },
    {
      "midi": 83,
      "hit": false,
      "t": 57670.83333333334,
      "d": 183.33333333333576,
      "v": 73
    },
    {
      "midi": 59,
      "hit": false,
      "t": 57687.50000000001,
      "d": 29.16666666666424,
      "v": 59
    },
    {
      "midi": 77,
      "hit": false,
      "t": 57904.16666666668,
      "d": 270.8333333333285,
      "v": 82
    },
    {
      "midi": 80,
      "hit": false,
      "t": 58170.83333333334,
      "d": 266.6666666666497,
      "v": 80
    },
    {
      "midi": 54,
      "hit": false,
      "t": 58191.66666666667,
      "d": 212.49999999999272,
      "v": 67
    },
    {
      "midi": 63,
      "hit": false,
      "t": 58191.66666666667,
      "d": 212.49999999999272,
      "v": 69
    },
    {
      "midi": 59,
      "hit": false,
      "t": 58212.5,
      "d": 208.33333333332848,
      "v": 58
    },
    {
      "midi": 78,
      "hit": false,
      "t": 58437.49999999999,
      "d": 254.16666666666424,
      "v": 80
    },
    {
      "midi": 83,
      "hit": false,
      "t": 58712.49999999999,
      "d": 250,
      "v": 73
    },
    {
      "midi": 63,
      "hit": false,
      "t": 58716.66666666666,
      "d": 75,
      "v": 69
    },
    {
      "midi": 54,
      "hit": false,
      "t": 58716.66666666666,
      "d": 137.5,
      "v": 63
    },
    {
      "midi": 59,
      "hit": false,
      "t": 58733.33333333332,
      "d": 37.5,
      "v": 58
    },
    {
      "midi": 75,
      "hit": false,
      "t": 59008.33333333333,
      "d": 337.5,
      "v": 84
    },
    {
      "midi": 42,
      "hit": false,
      "t": 59312.5,
      "d": 499.9999999999927,
      "v": 70
    },
    {
      "midi": 78,
      "hit": false,
      "t": 59341.666666666664,
      "d": 574.9999999999927,
      "v": 83
    },
    {
      "midi": 77,
      "hit": false,
      "t": 59687.49999999999,
      "d": 295.8333333333285,
      "v": 77
    },
    {
      "midi": 76,
      "hit": false,
      "t": 59991.66666666666,
      "d": 308.33333333333576,
      "v": 75
    },
    {
      "midi": 61,
      "hit": false,
      "t": 60008.33333333332,
      "d": 200.00000000000728,
      "v": 51
    },
    {
      "midi": 58,
      "hit": false,
      "t": 60012.499999999985,
      "d": 179.16666666667152,
      "v": 51
    },
    {
      "midi": 64,
      "hit": false,
      "t": 60012.499999999985,
      "d": 187.50000000000728,
      "v": 44
    },
    {
      "midi": 54,
      "hit": false,
      "t": 60024.999999999985,
      "d": 225.00000000000728,
      "v": 31
    },
    {
      "midi": 73,
      "hit": false,
      "t": 60337.49999999999,
      "d": 474.9999999999927,
      "v": 79
    },
    {
      "midi": 61,
      "hit": false,
      "t": 60687.49999999999,
      "d": 274.9999999999927,
      "v": 55
    },
    {
      "midi": 70,
      "hit": false,
      "t": 60691.66666666666,
      "d": 337.4999999999927,
      "v": 70
    },
    {
      "midi": 64,
      "hit": false,
      "t": 60695.83333333332,
      "d": 283.3333333333285,
      "v": 56
    },
    {
      "midi": 58,
      "hit": false,
      "t": 60708.33333333332,
      "d": 283.3333333333285,
      "v": 56
    },
    {
      "midi": 54,
      "hit": false,
      "t": 60708.33333333332,
      "d": 299.9999999999927,
      "v": 44
    },
    {
      "midi": 67,
      "hit": false,
      "t": 61045.833333333314,
      "d": 83.33333333333576,
      "v": 64
    },
    {
      "midi": 66,
      "hit": false,
      "t": 61466.66666666665,
      "d": 224.99999999999272,
      "v": 58
    },
    {
      "midi": 54,
      "hit": false,
      "t": 61483.333333333314,
      "d": 337.4999999999927,
      "v": 43
    },
    {
      "midi": 76,
      "hit": false,
      "t": 61487.49999999998,
      "d": 137.5,
      "v": 60
    },
    {
      "midi": 61,
      "hit": false,
      "t": 61487.49999999998,
      "d": 233.33333333332848,
      "v": 49
    },
    {
      "midi": 58,
      "hit": false,
      "t": 61499.99999999998,
      "d": 241.66666666666424,
      "v": 49
    },
    {
      "midi": 70,
      "hit": false,
      "t": 61937.49999999997,
      "d": 133.33333333333576,
      "v": 63
    },
    {
      "midi": 64,
      "hit": false,
      "t": 61949.99999999997,
      "d": 83.33333333333576,
      "v": 55
    },
    {
      "midi": 47,
      "hit": false,
      "t": 62529.16666666664,
      "d": 745.8333333333358,
      "v": 44
    },
    {
      "midi": 71,
      "hit": false,
      "t": 62533.33333333331,
      "d": 750.0000000000073,
      "v": 56
    },
    {
      "midi": 63,
      "hit": false,
      "t": 62545.83333333331,
      "d": 750.0000000000073,
      "v": 46
    },
    {
      "midi": 66,
      "hit": false,
      "t": 63524.99999999998,
      "d": 166.66666666666424,
      "v": 42
    },
    {
      "midi": 63,
      "hit": false,
      "t": 63541.66666666664,
      "d": 145.83333333333576,
      "v": 50
    },
    {
      "midi": 59,
      "hit": false,
      "t": 63554.16666666664,
      "d": 112.5,
      "v": 42
    },
    {
      "midi": 63,
      "hit": false,
      "t": 64187.49999999998,
      "d": 175,
      "v": 45
    },
    {
      "midi": 66,
      "hit": false,
      "t": 64187.49999999998,
      "d": 208.33333333332848,
      "v": 44
    },
    {
      "midi": 59,
      "hit": false,
      "t": 64216.66666666664,
      "d": 150,
      "v": 34
    },
    {
      "midi": 71,
      "hit": false,
      "t": 64604.16666666664,
      "d": 95.83333333333576,
      "v": 42
    },
    {
      "midi": 66,
      "hit": false,
      "t": 64916.66666666664,
      "d": 229.16666666665697,
      "v": 42
    },
    {
      "midi": 71,
      "hit": false,
      "t": 64920.83333333331,
      "d": 100,
      "v": 46
    },
    {
      "midi": 63,
      "hit": false,
      "t": 64924.99999999997,
      "d": 204.16666666666424,
      "v": 44
    },
    {
      "midi": 59,
      "hit": false,
      "t": 64958.33333333331,
      "d": 116.66666666666424,
      "v": 28
    },
    {
      "midi": 71,
      "hit": false,
      "t": 65174.99999999996,
      "d": 412.5000000000073,
      "v": 58
    },
    {
      "midi": 74,
      "hit": false,
      "t": 65587.49999999997,
      "d": 541.6666666666424,
      "v": 61
    },
    {
      "midi": 67,
      "hit": false,
      "t": 65629.16666666664,
      "d": 633.3333333332994,
      "v": 43
    },
    {
      "midi": 59,
      "hit": false,
      "t": 65637.49999999997,
      "d": 604.1666666666424,
      "v": 42
    },
    {
      "midi": 64,
      "hit": false,
      "t": 65637.49999999997,
      "d": 624.9999999999709,
      "v": 47
    },
    {
      "midi": 72,
      "hit": false,
      "t": 66129.16666666661,
      "d": 245.83333333332848,
      "v": 50
    },
    {
      "midi": 67,
      "hit": false,
      "t": 66424.99999999994,
      "d": 187.5,
      "v": 51
    },
    {
      "midi": 64,
      "hit": false,
      "t": 66437.49999999994,
      "d": 158.33333333332848,
      "v": 62
    },
    {
      "midi": 59,
      "hit": false,
      "t": 66441.66666666661,
      "d": 133.33333333332848,
      "v": 51
    },
    {
      "midi": 72,
      "hit": false,
      "t": 66649.99999999994,
      "d": 358.3333333333285,
      "v": 82
    },
    {
      "midi": 76,
      "hit": false,
      "t": 66999.99999999994,
      "d": 450,
      "v": 80
    },
    {
      "midi": 66,
      "hit": false,
      "t": 67012.49999999994,
      "d": 458.3333333333285,
      "v": 60
    },
    {
      "midi": 59,
      "hit": false,
      "t": 67029.16666666661,
      "d": 420.8333333333285,
      "v": 58
    },
    {
      "midi": 69,
      "hit": false,
      "t": 67029.16666666661,
      "d": 462.49999999998545,
      "v": 58
    },
    {
      "midi": 75,
      "hit": false,
      "t": 67449.99999999994,
      "d": 283.3333333333285,
      "v": 78
    },
    {
      "midi": 59,
      "hit": false,
      "t": 67749.99999999994,
      "d": 229.16666666668607,
      "v": 67
    },
    {
      "midi": 66,
      "hit": false,
      "t": 67749.99999999994,
      "d": 258.3333333333576,
      "v": 72
    },
    {
      "midi": 69,
      "hit": false,
      "t": 67754.16666666661,
      "d": 237.50000000001455,
      "v": 69
    },
    {
      "midi": 75,
      "hit": false,
      "t": 67962.49999999996,
      "d": 337.50000000001455,
      "v": 97
    },
    {
      "midi": 78,
      "hit": false,
      "t": 68341.66666666664,
      "d": 491.6666666666715,
      "v": 95
    },
    {
      "midi": 59,
      "hit": false,
      "t": 68358.33333333331,
      "d": 541.6666666666715,
      "v": 68
    },
    {
      "midi": 71,
      "hit": false,
      "t": 68362.49999999999,
      "d": 520.8333333333285,
      "v": 63
    },
    {
      "midi": 64,
      "hit": false,
      "t": 68374.99999999999,
      "d": 500,
      "v": 77
    },
    {
      "midi": 67,
      "hit": false,
      "t": 68374.99999999999,
      "d": 512.5,
      "v": 69
    },
    {
      "midi": 76,
      "hit": false,
      "t": 68845.83333333331,
      "d": 279.1666666666715,
      "v": 90
    },
    {
      "midi": 59,
      "hit": false,
      "t": 69133.33333333331,
      "d": 291.6666666666715,
      "v": 81
    },
    {
      "midi": 71,
      "hit": false,
      "t": 69133.33333333331,
      "d": 312.5,
      "v": 81
    },
    {
      "midi": 64,
      "hit": false,
      "t": 69149.99999999999,
      "d": 287.5,
      "v": 77
    },
    {
      "midi": 67,
      "hit": false,
      "t": 69149.99999999999,
      "d": 316.66666666665697,
      "v": 73
    },
    {
      "midi": 76,
      "hit": false,
      "t": 69358.33333333331,
      "d": 275,
      "v": 93
    },
    {
      "midi": 79,
      "hit": false,
      "t": 69666.66666666666,
      "d": 1425.0000000000437,
      "v": 97
    },
    {
      "midi": 59,
      "hit": false,
      "t": 69670.83333333333,
      "d": 191.66666666667152,
      "v": 80
    },
    {
      "midi": 71,
      "hit": false,
      "t": 69675,
      "d": 208.33333333332848,
      "v": 81
    },
    {
      "midi": 64,
      "hit": false,
      "t": 69679.16666666667,
      "d": 237.49999999998545,
      "v": 80
    },
    {
      "midi": 67,
      "hit": false,
      "t": 69687.5,
      "d": 258.3333333333285,
      "v": 73
    },
    {
      "midi": 71,
      "hit": false,
      "t": 70258.33333333333,
      "d": 62.50000000001455,
      "v": 76
    },
    {
      "midi": 64,
      "hit": false,
      "t": 70258.33333333333,
      "d": 83.33333333334303,
      "v": 80
    },
    {
      "midi": 59,
      "hit": false,
      "t": 70258.33333333333,
      "d": 108.33333333334303,
      "v": 72
    },
    {
      "midi": 67,
      "hit": false,
      "t": 70262.5,
      "d": 41.66666666667152,
      "v": 63
    },
    {
      "midi": 36,
      "hit": false,
      "t": 70966.66666666669,
      "d": 500.00000000001455,
      "v": 82
    },
    {
      "midi": 48,
      "hit": false,
      "t": 70983.33333333336,
      "d": 500.00000000001455,
      "v": 96
    },
    {
      "midi": 76,
      "hit": false,
      "t": 71404.1666666667,
      "d": 354.1666666666715,
      "v": 88
    },
    {
      "midi": 88,
      "hit": false,
      "t": 71404.1666666667,
      "d": 354.1666666666715,
      "v": 88
    },
    {
      "midi": 67,
      "hit": false,
      "t": 71804.1666666667,
      "d": 279.16666666665697,
      "v": 70
    },
    {
      "midi": 60,
      "hit": false,
      "t": 71812.50000000003,
      "d": 304.16666666665697,
      "v": 67
    },
    {
      "midi": 55,
      "hit": false,
      "t": 71820.83333333336,
      "d": 262.5,
      "v": 56
    },
    {
      "midi": 64,
      "hit": false,
      "t": 71820.83333333336,
      "d": 283.3333333333285,
      "v": 64
    },
    {
      "midi": 86,
      "hit": false,
      "t": 72087.50000000003,
      "d": 233.33333333332848,
      "v": 86
    },
    {
      "midi": 74,
      "hit": false,
      "t": 72095.83333333336,
      "d": 245.83333333332848,
      "v": 88
    },
    {
      "midi": 55,
      "hit": false,
      "t": 72362.50000000001,
      "d": 283.3333333333285,
      "v": 68
    },
    {
      "midi": 67,
      "hit": false,
      "t": 72362.50000000001,
      "d": 304.16666666665697,
      "v": 73
    },
    {
      "midi": 64,
      "hit": false,
      "t": 72379.16666666669,
      "d": 266.66666666665697,
      "v": 73
    },
    {
      "midi": 60,
      "hit": false,
      "t": 72383.33333333336,
      "d": 291.6666666666424,
      "v": 72
    },
    {
      "midi": 84,
      "hit": false,
      "t": 72616.66666666669,
      "d": 199.99999999998545,
      "v": 80
    },
    {
      "midi": 72,
      "hit": false,
      "t": 72625.00000000001,
      "d": 220.83333333332848,
      "v": 86
    },
    {
      "midi": 67,
      "hit": false,
      "t": 72900.00000000001,
      "d": 79.16666666667152,
      "v": 76
    },
    {
      "midi": 64,
      "hit": false,
      "t": 72904.16666666669,
      "d": 83.33333333332848,
      "v": 77
    },
    {
      "midi": 55,
      "hit": false,
      "t": 72904.16666666669,
      "d": 158.33333333332848,
      "v": 64
    },
    {
      "midi": 60,
      "hit": false,
      "t": 72916.66666666669,
      "d": 112.5,
      "v": 72
    },
    {
      "midi": 83,
      "hit": false,
      "t": 73154.16666666669,
      "d": 554.166666666657,
      "v": 86
    },
    {
      "midi": 71,
      "hit": false,
      "t": 73166.66666666669,
      "d": 529.166666666657,
      "v": 77
    },
    {
      "midi": 41,
      "hit": false,
      "t": 73479.16666666669,
      "d": 499.99999999998545,
      "v": 81
    },
    {
      "midi": 53,
      "hit": false,
      "t": 73487.50000000003,
      "d": 258.33333333331393,
      "v": 86
    },
    {
      "midi": 80,
      "hit": false,
      "t": 73741.66666666667,
      "d": 291.6666666666715,
      "v": 90
    },
    {
      "midi": 53,
      "hit": false,
      "t": 74062.50000000001,
      "d": 345.83333333334303,
      "v": 78
    },
    {
      "midi": 83,
      "hit": false,
      "t": 74070.83333333334,
      "d": 245.83333333334303,
      "v": 95
    },
    {
      "midi": 62,
      "hit": false,
      "t": 74070.83333333334,
      "d": 295.83333333334303,
      "v": 69
    },
    {
      "midi": 60,
      "hit": false,
      "t": 74083.33333333334,
      "d": 320.83333333334303,
      "v": 68
    },
    {
      "midi": 57,
      "hit": false,
      "t": 74087.50000000001,
      "d": 295.83333333334303,
      "v": 57
    },
    {
      "midi": 81,
      "hit": false,
      "t": 74341.66666666669,
      "d": 270.83333333334303,
      "v": 90
    },
    {
      "midi": 77,
      "hit": false,
      "t": 74629.1666666667,
      "d": 258.33333333334303,
      "v": 87
    },
    {
      "midi": 53,
      "hit": false,
      "t": 74645.83333333337,
      "d": 250,
      "v": 51
    },
    {
      "midi": 57,
      "hit": false,
      "t": 74654.1666666667,
      "d": 291.6666666666715,
      "v": 51
    },
    {
      "midi": 62,
      "hit": false,
      "t": 74658.33333333337,
      "d": 216.66666666667152,
      "v": 51
    },
    {
      "midi": 60,
      "hit": false,
      "t": 74658.33333333337,
      "d": 283.3333333333285,
      "v": 57
    },
    {
      "midi": 74,
      "hit": false,
      "t": 74908.33333333337,
      "d": 91.66666666667152,
      "v": 88
    },
    {
      "midi": 53,
      "hit": false,
      "t": 75195.83333333337,
      "d": 183.33333333334303,
      "v": 55
    },
    {
      "midi": 60,
      "hit": false,
      "t": 75200.00000000004,
      "d": 95.83333333334303,
      "v": 51
    },
    {
      "midi": 62,
      "hit": false,
      "t": 75208.33333333337,
      "d": 83.33333333334303,
      "v": 61
    },
    {
      "midi": 57,
      "hit": false,
      "t": 75212.50000000004,
      "d": 129.16666666667152,
      "v": 61
    },
    {
      "midi": 69,
      "hit": false,
      "t": 75212.50000000004,
      "d": 183.33333333334303,
      "v": 86
    },
    {
      "midi": 68,
      "hit": false,
      "t": 75512.50000000006,
      "d": 333.3333333333285,
      "v": 93
    },
    {
      "midi": 67,
      "hit": false,
      "t": 75858.33333333339,
      "d": 300.00000000001455,
      "v": 89
    },
    {
      "midi": 55,
      "hit": false,
      "t": 75879.16666666673,
      "d": 187.5,
      "v": 64
    },
    {
      "midi": 43,
      "hit": false,
      "t": 75879.16666666673,
      "d": 500,
      "v": 63
    },
    {
      "midi": 71,
      "hit": false,
      "t": 76191.66666666673,
      "d": 295.8333333333285,
      "v": 96
    },
    {
      "midi": 74,
      "hit": false,
      "t": 76512.50000000006,
      "d": 383.33333333334303,
      "v": 89
    },
    {
      "midi": 55,
      "hit": false,
      "t": 76525.00000000006,
      "d": 270.83333333334303,
      "v": 67
    },
    {
      "midi": 62,
      "hit": false,
      "t": 76525.00000000006,
      "d": 300.00000000001455,
      "v": 64
    },
    {
      "midi": 59,
      "hit": false,
      "t": 76541.66666666673,
      "d": 283.33333333334303,
      "v": 52
    },
    {
      "midi": 65,
      "hit": false,
      "t": 76541.66666666673,
      "d": 283.33333333334303,
      "v": 60
    },
    {
      "midi": 67,
      "hit": false,
      "t": 76545.8333333334,
      "d": 250,
      "v": 51
    },
    {
      "midi": 77,
      "hit": false,
      "t": 76858.3333333334,
      "d": 66.66666666667152,
      "v": 80
    },
    {
      "midi": 71,
      "hit": false,
      "t": 77191.66666666673,
      "d": 508.33333333334303,
      "v": 67
    },
    {
      "midi": 74,
      "hit": false,
      "t": 77275.00000000006,
      "d": 479.1666666666715,
      "v": 70
    },
    {
      "midi": 77,
      "hit": false,
      "t": 77341.66666666673,
      "d": 391.6666666666715,
      "v": 70
    },
    {
      "midi": 67,
      "hit": false,
      "t": 77441.66666666673,
      "d": 750,
      "v": 61
    },
    {
      "midi": 83,
      "hit": false,
      "t": 77445.8333333334,
      "d": 670.8333333333285,
      "v": 89
    },
    {
      "midi": 55,
      "hit": false,
      "t": 77445.8333333334,
      "d": 745.8333333333285,
      "v": 64
    },
    {
      "midi": 59,
      "hit": false,
      "t": 77462.50000000007,
      "d": 749.9999999999854,
      "v": 60
    },
    {
      "midi": 62,
      "hit": false,
      "t": 77462.50000000007,
      "d": 749.9999999999854,
      "v": 60
    },
    {
      "midi": 65,
      "hit": false,
      "t": 77462.50000000007,
      "d": 749.9999999999854,
      "v": 59
    },
    {
      "midi": 81,
      "hit": false,
      "t": 78087.50000000006,
      "d": 87.5,
      "v": 84
    },
    {
      "midi": 67,
      "hit": false,
      "t": 78479.16666666673,
      "d": 312.5,
      "v": 48
    },
    {
      "midi": 81,
      "hit": false,
      "t": 78491.66666666673,
      "d": 120.83333333332848,
      "v": 76
    },
    {
      "midi": 62,
      "hit": false,
      "t": 78491.66666666673,
      "d": 333.3333333333285,
      "v": 52
    },
    {
      "midi": 55,
      "hit": false,
      "t": 78491.66666666673,
      "d": 395.8333333333285,
      "v": 47
    },
    {
      "midi": 65,
      "hit": false,
      "t": 78500.00000000006,
      "d": 312.5,
      "v": 51
    },
    {
      "midi": 59,
      "hit": false,
      "t": 78529.16666666673,
      "d": 295.8333333333285,
      "v": 33
    },
    {
      "midi": 79,
      "hit": false,
      "t": 78650.00000000006,
      "d": 125,
      "v": 70
    },
    {
      "midi": 77,
      "hit": false,
      "t": 78804.16666666673,
      "d": 125,
      "v": 77
    },
    {
      "midi": 77,
      "hit": false,
      "t": 78966.66666666673,
      "d": 125,
      "v": 61
    },
    {
      "midi": 76,
      "hit": false,
      "t": 79087.50000000006,
      "d": 120.83333333334303,
      "v": 80
    },
    {
      "midi": 75,
      "hit": false,
      "t": 79216.66666666673,
      "d": 125,
      "v": 77
    },
    {
      "midi": 75,
      "hit": false,
      "t": 79362.50000000006,
      "d": 916.6666666666861,
      "v": 77
    },
    {
      "midi": 36,
      "hit": false,
      "t": 79400.00000000006,
      "d": 500.00000000001455,
      "v": 64
    },
    {
      "midi": 48,
      "hit": false,
      "t": 79400.00000000006,
      "d": 500.00000000001455,
      "v": 70
    },
    {
      "midi": 76,
      "hit": false,
      "t": 80233.3333333334,
      "d": 587.5000000000146,
      "v": 73
    },
    {
      "midi": 55,
      "hit": false,
      "t": 80270.8333333334,
      "d": 229.16666666667152,
      "v": 46
    },
    {
      "midi": 64,
      "hit": false,
      "t": 80270.8333333334,
      "d": 233.33333333334303,
      "v": 51
    },
    {
      "midi": 60,
      "hit": false,
      "t": 80270.8333333334,
      "d": 237.50000000001455,
      "v": 51
    },
    {
      "midi": 60,
      "hit": false,
      "t": 80866.66666666674,
      "d": 133.33333333332848,
      "v": 42
    },
    {
      "midi": 64,
      "hit": false,
      "t": 80875.00000000007,
      "d": 112.5,
      "v": 51
    },
    {
      "midi": 55,
      "hit": false,
      "t": 80879.16666666674,
      "d": 108.33333333332848,
      "v": 42
    },
    {
      "midi": 76,
      "hit": false,
      "t": 81195.8333333334,
      "d": 45.83333333332848,
      "v": 55
    },
    {
      "midi": 60,
      "hit": false,
      "t": 81508.3333333334,
      "d": 108.33333333332848,
      "v": 25
    },
    {
      "midi": 64,
      "hit": false,
      "t": 81529.16666666673,
      "d": 87.5,
      "v": 40
    },
    {
      "midi": 55,
      "hit": false,
      "t": 81533.3333333334,
      "d": 120.83333333332848,
      "v": 45
    },
    {
      "midi": 76,
      "hit": false,
      "t": 81545.8333333334,
      "d": 191.66666666665697,
      "v": 54
    },
    {
      "midi": 77,
      "hit": false,
      "t": 81862.50000000006,
      "d": 125,
      "v": 57
    },
    {
      "midi": 76,
      "hit": false,
      "t": 82366.66666666673,
      "d": 512.5000000000146,
      "v": 59
    },
    {
      "midi": 32,
      "hit": false,
      "t": 82379.16666666673,
      "d": 500.00000000001455,
      "v": 40
    },
    {
      "midi": 44,
      "hit": false,
      "t": 82379.16666666673,
      "d": 500.00000000001455,
      "v": 41
    },
    {
      "midi": 74,
      "hit": false,
      "t": 82904.16666666674,
      "d": 254.16666666667152,
      "v": 53
    },
    {
      "midi": 71,
      "hit": false,
      "t": 83195.83333333342,
      "d": 250,
      "v": 57
    },
    {
      "midi": 65,
      "hit": false,
      "t": 83470.83333333342,
      "d": 91.66666666667152,
      "v": 52
    },
    {
      "midi": 52,
      "hit": false,
      "t": 83591.66666666676,
      "d": 41.666666666656965,
      "v": 51
    },
    {
      "midi": 64,
      "hit": false,
      "t": 83612.50000000009,
      "d": 37.5,
      "v": 51
    },
    {
      "midi": 52,
      "hit": false,
      "t": 83750.00000000009,
      "d": 520.833333333343,
      "v": 61
    },
    {
      "midi": 64,
      "hit": false,
      "t": 83758.33333333342,
      "d": 333.33333333334303,
      "v": 61
    },
    {
      "midi": 74,
      "hit": false,
      "t": 84104.16666666676,
      "d": 200,
      "v": 52
    },
    {
      "midi": 71,
      "hit": false,
      "t": 84341.66666666676,
      "d": 191.66666666667152,
      "v": 70
    },
    {
      "midi": 77,
      "hit": false,
      "t": 84591.66666666676,
      "d": 62.5,
      "v": 76
    },
    {
      "midi": 76,
      "hit": false,
      "t": 84979.16666666676,
      "d": 900,
      "v": 70
    },
    {
      "midi": 33,
      "hit": false,
      "t": 84991.66666666676,
      "d": 500,
      "v": 57
    },
    {
      "midi": 45,
      "hit": false,
      "t": 84991.66666666676,
      "d": 500,
      "v": 64
    },
    {
      "midi": 72,
      "hit": false,
      "t": 85383.33333333343,
      "d": 220.83333333332848,
      "v": 66
    },
    {
      "midi": 69,
      "hit": false,
      "t": 85658.33333333343,
      "d": 187.5,
      "v": 66
    },
    {
      "midi": 65,
      "hit": false,
      "t": 85895.83333333343,
      "d": 50,
      "v": 62
    },
    {
      "midi": 64,
      "hit": false,
      "t": 86025.0000000001,
      "d": 25,
      "v": 78
    },
    {
      "midi": 52,
      "hit": false,
      "t": 86025.0000000001,
      "d": 29.166666666671517,
      "v": 54
    },
    {
      "midi": 52,
      "hit": false,
      "t": 86145.83333333344,
      "d": 229.16666666665697,
      "v": 82
    },
    {
      "midi": 64,
      "hit": false,
      "t": 86154.16666666677,
      "d": 125,
      "v": 81
    },
    {
      "midi": 72,
      "hit": false,
      "t": 86425.0000000001,
      "d": 208.33333333332848,
      "v": 84
    },
    {
      "midi": 69,
      "hit": false,
      "t": 86687.5000000001,
      "d": 275,
      "v": 85
    },
    {
      "midi": 77,
      "hit": false,
      "t": 86920.83333333343,
      "d": 62.5,
      "v": 90
    },
    {
      "midi": 76,
      "hit": false,
      "t": 87254.16666666676,
      "d": 483.33333333334303,
      "v": 85
    },
    {
      "midi": 50,
      "hit": false,
      "t": 87262.5000000001,
      "d": 500,
      "v": 79
    },
    {
      "midi": 38,
      "hit": false,
      "t": 87270.83333333343,
      "d": 500,
      "v": 73
    },
    {
      "midi": 74,
      "hit": false,
      "t": 87591.66666666677,
      "d": 208.33333333332848,
      "v": 83
    },
    {
      "midi": 71,
      "hit": false,
      "t": 87837.5000000001,
      "d": 191.66666666667152,
      "v": 79
    },
    {
      "midi": 68,
      "hit": false,
      "t": 88104.16666666677,
      "d": 104.16666666667152,
      "v": 88
    },
    {
      "midi": 52,
      "hit": false,
      "t": 88208.33333333344,
      "d": 45.833333333343035,
      "v": 74
    },
    {
      "midi": 64,
      "hit": false,
      "t": 88212.50000000012,
      "d": 45.833333333343035,
      "v": 84
    },
    {
      "midi": 52,
      "hit": false,
      "t": 88325.00000000013,
      "d": 154.16666666667152,
      "v": 90
    },
    {
      "midi": 64,
      "hit": false,
      "t": 88337.50000000013,
      "d": 87.5,
      "v": 92
    },
    {
      "midi": 71,
      "hit": false,
      "t": 88566.6666666668,
      "d": 225,
      "v": 99
    },
    {
      "midi": 68,
      "hit": false,
      "t": 88804.1666666668,
      "d": 183.33333333332848,
      "v": 102
    },
    {
      "midi": 76,
      "hit": false,
      "t": 89045.83333333346,
      "d": 70.83333333332848,
      "v": 93
    },
    {
      "midi": 37,
      "hit": false,
      "t": 89187.50000000012,
      "d": 54.16666666667152,
      "v": 84
    },
    {
      "midi": 49,
      "hit": false,
      "t": 89191.66666666679,
      "d": 50,
      "v": 96
    },
    {
      "midi": 37,
      "hit": false,
      "t": 89312.50000000012,
      "d": 500.00000000001455,
      "v": 93
    },
    {
      "midi": 76,
      "hit": false,
      "t": 89316.66666666679,
      "d": 250.00000000001455,
      "v": 99
    },
    {
      "midi": 49,
      "hit": false,
      "t": 89316.66666666679,
      "d": 500.00000000001455,
      "v": 102
    },
    {
      "midi": 73,
      "hit": false,
      "t": 89612.50000000013,
      "d": 187.5,
      "v": 106
    },
    {
      "midi": 69,
      "hit": false,
      "t": 89854.1666666668,
      "d": 191.66666666667152,
      "v": 95
    },
    {
      "midi": 76,
      "hit": false,
      "t": 90095.83333333347,
      "d": 112.5,
      "v": 102
    },
    {
      "midi": 52,
      "hit": false,
      "t": 90220.83333333347,
      "d": 33.333333333343035,
      "v": 88
    },
    {
      "midi": 61,
      "hit": false,
      "t": 90233.33333333347,
      "d": 25.000000000014552,
      "v": 98
    },
    {
      "midi": 64,
      "hit": false,
      "t": 90233.33333333347,
      "d": 25.000000000014552,
      "v": 90
    },
    {
      "midi": 57,
      "hit": false,
      "t": 90237.50000000015,
      "d": 37.50000000001455,
      "v": 101
    },
    {
      "midi": 61,
      "hit": false,
      "t": 90316.66666666683,
      "d": 125.00000000001455,
      "v": 102
    },
    {
      "midi": 57,
      "hit": false,
      "t": 90320.8333333335,
      "d": 145.83333333334303,
      "v": 90
    },
    {
      "midi": 52,
      "hit": false,
      "t": 90325.00000000017,
      "d": 137.5,
      "v": 91
    },
    {
      "midi": 64,
      "hit": false,
      "t": 90337.50000000017,
      "d": 58.333333333343035,
      "v": 98
    },
    {
      "midi": 76,
      "hit": false,
      "t": 90341.66666666685,
      "d": 158.33333333332848,
      "v": 90
    },
    {
      "midi": 73,
      "hit": false,
      "t": 90575.00000000017,
      "d": 162.5,
      "v": 105
    },
    {
      "midi": 69,
      "hit": false,
      "t": 90800.00000000017,
      "d": 200,
      "v": 104
    },
    {
      "midi": 76,
      "hit": false,
      "t": 91054.16666666685,
      "d": 100,
      "v": 95
    },
    {
      "midi": 79,
      "hit": false,
      "t": 91054.16666666685,
      "d": 100,
      "v": 95
    },
    {
      "midi": 36,
      "hit": false,
      "t": 91262.50000000019,
      "d": 416.6666666666715,
      "v": 96
    },
    {
      "midi": 48,
      "hit": false,
      "t": 91279.16666666686,
      "d": 412.5,
      "v": 110
    },
    {
      "midi": 79,
      "hit": false,
      "t": 91295.83333333353,
      "d": 141.66666666665697,
      "v": 100
    },
    {
      "midi": 76,
      "hit": false,
      "t": 91304.16666666686,
      "d": 166.66666666665697,
      "v": 104
    },
    {
      "midi": 70,
      "hit": false,
      "t": 91562.50000000019,
      "d": 175,
      "v": 96
    },
    {
      "midi": 67,
      "hit": false,
      "t": 91795.83333333352,
      "d": 166.66666666667152,
      "v": 102
    },
    {
      "midi": 79,
      "hit": false,
      "t": 92012.50000000019,
      "d": 95.83333333332848,
      "v": 103
    },
    {
      "midi": 76,
      "hit": false,
      "t": 92025.00000000019,
      "d": 91.66666666665697,
      "v": 106
    },
    {
      "midi": 64,
      "hit": false,
      "t": 92154.16666666685,
      "d": 33.33333333332848,
      "v": 100
    },
    {
      "midi": 52,
      "hit": false,
      "t": 92154.16666666685,
      "d": 45.83333333332848,
      "v": 100
    },
    {
      "midi": 64,
      "hit": false,
      "t": 92237.50000000017,
      "d": 45.83333333332848,
      "v": 100
    },
    {
      "midi": 52,
      "hit": false,
      "t": 92250.00000000017,
      "d": 104.16666666665697,
      "v": 100
    },
    {
      "midi": 76,
      "hit": false,
      "t": 92283.3333333335,
      "d": 200,
      "v": 108
    },
    {
      "midi": 79,
      "hit": false,
      "t": 92291.66666666683,
      "d": 208.33333333334303,
      "v": 103
    },
    {
      "midi": 70,
      "hit": false,
      "t": 92562.50000000017,
      "d": 250,
      "v": 115
    },
    {
      "midi": 67,
      "hit": false,
      "t": 92854.16666666685,
      "d": 275,
      "v": 106
    },
    {
      "midi": 79,
      "hit": false,
      "t": 93137.50000000017,
      "d": 120.83333333334303,
      "v": 107
    },
    {
      "midi": 76,
      "hit": false,
      "t": 93150.00000000017,
      "d": 91.66666666667152,
      "v": 107
    },
    {
      "midi": 35,
      "hit": false,
      "t": 93483.3333333335,
      "d": 500,
      "v": 102
    },
    {
      "midi": 47,
      "hit": false,
      "t": 93483.3333333335,
      "d": 500,
      "v": 111
    },
    {
      "midi": 92,
      "hit": false,
      "t": 94008.3333333335,
      "d": 162.50000000001455,
      "v": 105
    },
    {
      "midi": 59,
      "hit": false,
      "t": 94020.8333333335,
      "d": 91.66666666667152,
      "v": 106
    },
    {
      "midi": 80,
      "hit": false,
      "t": 94020.8333333335,
      "d": 170.83333333334303,
      "v": 111
    },
    {
      "midi": 47,
      "hit": false,
      "t": 94025.00000000017,
      "d": 112.5,
      "v": 93
    },
    {
      "midi": 56,
      "hit": false,
      "t": 94025.00000000017,
      "d": 129.16666666667152,
      "v": 97
    },
    {
      "midi": 52,
      "hit": false,
      "t": 94041.66666666685,
      "d": 125,
      "v": 102
    },
    {
      "midi": 78,
      "hit": false,
      "t": 94479.16666666685,
      "d": 125.00000000001455,
      "v": 111
    },
    {
      "midi": 90,
      "hit": false,
      "t": 94483.33333333352,
      "d": 125.00000000001455,
      "v": 95
    },
    {
      "midi": 56,
      "hit": false,
      "t": 94508.33333333352,
      "d": 83.33333333334303,
      "v": 90
    },
    {
      "midi": 59,
      "hit": false,
      "t": 94508.33333333352,
      "d": 120.83333333334303,
      "v": 90
    },
    {
      "midi": 47,
      "hit": false,
      "t": 94512.50000000019,
      "d": 41.66666666667152,
      "v": 76
    },
    {
      "midi": 52,
      "hit": false,
      "t": 94512.50000000019,
      "d": 83.33333333334303,
      "v": 92
    },
    {
      "midi": 76,
      "hit": false,
      "t": 94816.66666666686,
      "d": 91.66666666668607,
      "v": 106
    },
    {
      "midi": 88,
      "hit": false,
      "t": 94820.83333333353,
      "d": 87.50000000001455,
      "v": 108
    },
    {
      "midi": 59,
      "hit": false,
      "t": 94825.0000000002,
      "d": 79.16666666667152,
      "v": 93
    },
    {
      "midi": 56,
      "hit": false,
      "t": 94825.0000000002,
      "d": 104.16666666667152,
      "v": 90
    },
    {
      "midi": 47,
      "hit": false,
      "t": 94841.66666666688,
      "d": 33.33333333332848,
      "v": 80
    },
    {
      "midi": 52,
      "hit": false,
      "t": 94841.66666666688,
      "d": 95.83333333332848,
      "v": 92
    },
    {
      "midi": 87,
      "hit": false,
      "t": 95129.16666666688,
      "d": 104.16666666667152,
      "v": 102
    },
    {
      "midi": 75,
      "hit": false,
      "t": 95133.33333333355,
      "d": 87.5,
      "v": 111
    },
    {
      "midi": 47,
      "hit": false,
      "t": 95137.50000000022,
      "d": 41.666666666656965,
      "v": 80
    },
    {
      "midi": 56,
      "hit": false,
      "t": 95137.50000000022,
      "d": 83.33333333332848,
      "v": 96
    },
    {
      "midi": 59,
      "hit": false,
      "t": 95145.83333333355,
      "d": 50,
      "v": 88
    },
    {
      "midi": 52,
      "hit": false,
      "t": 95154.16666666688,
      "d": 75,
      "v": 86
    },
    {
      "midi": 85,
      "hit": false,
      "t": 95404.16666666688,
      "d": 120.83333333334303,
      "v": 103
    },
    {
      "midi": 56,
      "hit": false,
      "t": 95416.66666666688,
      "d": 70.83333333334303,
      "v": 88
    },
    {
      "midi": 73,
      "hit": false,
      "t": 95416.66666666688,
      "d": 95.83333333334303,
      "v": 102
    },
    {
      "midi": 59,
      "hit": false,
      "t": 95420.83333333355,
      "d": 83.33333333334303,
      "v": 90
    },
    {
      "midi": 52,
      "hit": false,
      "t": 95425.00000000022,
      "d": 75,
      "v": 88
    },
    {
      "midi": 47,
      "hit": false,
      "t": 95429.16666666689,
      "d": 33.33333333332848,
      "v": 62
    },
    {
      "midi": 83,
      "hit": false,
      "t": 95675.00000000022,
      "d": 79.16666666667152,
      "v": 96
    },
    {
      "midi": 71,
      "hit": false,
      "t": 95687.50000000022,
      "d": 66.66666666667152,
      "v": 96
    },
    {
      "midi": 56,
      "hit": false,
      "t": 95687.50000000022,
      "d": 95.83333333334303,
      "v": 93
    },
    {
      "midi": 47,
      "hit": false,
      "t": 95695.83333333355,
      "d": 41.66666666667152,
      "v": 75
    },
    {
      "midi": 59,
      "hit": false,
      "t": 95695.83333333355,
      "d": 62.50000000001455,
      "v": 88
    },
    {
      "midi": 52,
      "hit": false,
      "t": 95700.00000000022,
      "d": 79.16666666667152,
      "v": 88
    },
    {
      "midi": 56,
      "hit": false,
      "t": 95945.83333333356,
      "d": 62.49999999998545,
      "v": 93
    },
    {
      "midi": 59,
      "hit": false,
      "t": 95958.33333333356,
      "d": 29.166666666656965,
      "v": 86
    },
    {
      "midi": 70,
      "hit": false,
      "t": 95958.33333333356,
      "d": 70.83333333331393,
      "v": 111
    },
    {
      "midi": 47,
      "hit": false,
      "t": 95970.83333333356,
      "d": 62.49999999998545,
      "v": 72
    },
    {
      "midi": 82,
      "hit": false,
      "t": 95970.83333333356,
      "d": 70.83333333331393,
      "v": 109
    },
    {
      "midi": 52,
      "hit": false,
      "t": 95979.16666666689,
      "d": 29.166666666656965,
      "v": 63
    },
    {
      "midi": 85,
      "hit": false,
      "t": 96300.0000000002,
      "d": 158.33333333331393,
      "v": 105
    },
    {
      "midi": 57,
      "hit": false,
      "t": 96304.16666666688,
      "d": 99.99999999998545,
      "v": 83
    },
    {
      "midi": 47,
      "hit": false,
      "t": 96312.5000000002,
      "d": 124.99999999998545,
      "v": 88
    },
    {
      "midi": 51,
      "hit": false,
      "t": 96312.5000000002,
      "d": 124.99999999998545,
      "v": 108
    },
    {
      "midi": 73,
      "hit": false,
      "t": 96320.83333333353,
      "d": 129.16666666665697,
      "v": 111
    },
    {
      "midi": 59,
      "hit": false,
      "t": 96325.0000000002,
      "d": 62.49999999998545,
      "v": 103
    },
    {
      "midi": 83,
      "hit": false,
      "t": 96645.83333333352,
      "d": 91.66666666667152,
      "v": 102
    },
    {
      "midi": 71,
      "hit": false,
      "t": 96650.00000000019,
      "d": 87.5,
      "v": 110
    },
    {
      "midi": 47,
      "hit": false,
      "t": 96650.00000000019,
      "d": 100,
      "v": 80
    },
    {
      "midi": 51,
      "hit": false,
      "t": 96654.16666666686,
      "d": 83.33333333332848,
      "v": 96
    },
    {
      "midi": 57,
      "hit": false,
      "t": 96666.66666666686,
      "d": 62.5,
      "v": 78
    },
    {
      "midi": 81,
      "hit": false,
      "t": 96908.33333333352,
      "d": 75.00000000001455,
      "v": 103
    },
    {
      "midi": 69,
      "hit": false,
      "t": 96925.00000000019,
      "d": 62.50000000001455,
      "v": 96
    },
    {
      "midi": 57,
      "hit": false,
      "t": 96925.00000000019,
      "d": 95.83333333334303,
      "v": 93
    },
    {
      "midi": 51,
      "hit": false,
      "t": 96929.16666666686,
      "d": 83.33333333334303,
      "v": 95
    },
    {
      "midi": 47,
      "hit": false,
      "t": 96945.83333333353,
      "d": 37.5,
      "v": 72
    },
    {
      "midi": 78,
      "hit": false,
      "t": 97208.33333333353,
      "d": 95.83333333332848,
      "v": 102
    },
    {
      "midi": 66,
      "hit": false,
      "t": 97212.5000000002,
      "d": 87.49999999998545,
      "v": 106
    },
    {
      "midi": 51,
      "hit": false,
      "t": 97220.83333333353,
      "d": 91.66666666665697,
      "v": 97
    },
    {
      "midi": 57,
      "hit": false,
      "t": 97229.16666666686,
      "d": 91.66666666665697,
      "v": 92
    },
    {
      "midi": 47,
      "hit": false,
      "t": 97237.50000000019,
      "d": 87.5,
      "v": 77
    },
    {
      "midi": 75,
      "hit": false,
      "t": 97508.33333333352,
      "d": 100.00000000001455,
      "v": 102
    },
    {
      "midi": 57,
      "hit": false,
      "t": 97520.83333333352,
      "d": 83.33333333334303,
      "v": 95
    },
    {
      "midi": 51,
      "hit": false,
      "t": 97520.83333333352,
      "d": 104.16666666668607,
      "v": 102
    },
    {
      "midi": 63,
      "hit": false,
      "t": 97525.00000000019,
      "d": 79.16666666667152,
      "v": 109
    },
    {
      "midi": 47,
      "hit": false,
      "t": 97529.16666666686,
      "d": 41.66666666667152,
      "v": 71
    },
    {
      "midi": 51,
      "hit": false,
      "t": 97800.0000000002,
      "d": 33.333333333343035,
      "v": 101
    },
    {
      "midi": 47,
      "hit": false,
      "t": 97800.0000000002,
      "d": 62.50000000001455,
      "v": 92
    },
    {
      "midi": 71,
      "hit": false,
      "t": 97816.66666666688,
      "d": 83.33333333334303,
      "v": 98
    },
    {
      "midi": 59,
      "hit": false,
      "t": 97833.33333333355,
      "d": 54.16666666667152,
      "v": 95
    },
    {
      "midi": 47,
      "hit": false,
      "t": 98125.00000000023,
      "d": 250,
      "v": 96
    },
    {
      "midi": 69,
      "hit": false,
      "t": 98133.33333333356,
      "d": 62.5,
      "v": 102
    },
    {
      "midi": 57,
      "hit": false,
      "t": 98133.33333333356,
      "d": 79.16666666667152,
      "v": 93
    },
    {
      "midi": 35,
      "hit": false,
      "t": 98133.33333333356,
      "d": 191.66666666667152,
      "v": 86
    },
    {
      "midi": 66,
      "hit": false,
      "t": 98445.83333333356,
      "d": 120.83333333332848,
      "v": 105
    },
    {
      "midi": 54,
      "hit": false,
      "t": 98450.00000000023,
      "d": 99.99999999998545,
      "v": 110
    },
    {
      "midi": 35,
      "hit": false,
      "t": 98470.83333333356,
      "d": 250,
      "v": 73
    },
    {
      "midi": 47,
      "hit": false,
      "t": 98479.16666666689,
      "d": 250,
      "v": 96
    },
    {
      "midi": 35,
      "hit": false,
      "t": 98770.83333333356,
      "d": 250,
      "v": 80
    },
    {
      "midi": 47,
      "hit": false,
      "t": 98775.00000000023,
      "d": 250,
      "v": 106
    },
    {
      "midi": 92,
      "hit": false,
      "t": 99175.00000000023,
      "d": 150.0000000000291,
      "v": 88
    },
    {
      "midi": 59,
      "hit": false,
      "t": 99179.1666666669,
      "d": 83.33333333334303,
      "v": 90
    },
    {
      "midi": 80,
      "hit": false,
      "t": 99179.1666666669,
      "d": 133.3333333333576,
      "v": 98
    },
    {
      "midi": 47,
      "hit": false,
      "t": 99191.6666666669,
      "d": 87.50000000001455,
      "v": 75
    },
    {
      "midi": 52,
      "hit": false,
      "t": 99195.83333333358,
      "d": 87.50000000001455,
      "v": 83
    },
    {
      "midi": 56,
      "hit": false,
      "t": 99200.00000000025,
      "d": 79.16666666667152,
      "v": 84
    },
    {
      "midi": 90,
      "hit": false,
      "t": 99608.33333333359,
      "d": 133.33333333331393,
      "v": 92
    },
    {
      "midi": 78,
      "hit": false,
      "t": 99616.66666666692,
      "d": 112.49999999998545,
      "v": 102
    },
    {
      "midi": 56,
      "hit": false,
      "t": 99629.16666666692,
      "d": 83.33333333332848,
      "v": 80
    },
    {
      "midi": 59,
      "hit": false,
      "t": 99633.33333333359,
      "d": 116.66666666664241,
      "v": 84
    },
    {
      "midi": 47,
      "hit": false,
      "t": 99645.83333333359,
      "d": 33.33333333332848,
      "v": 62
    },
    {
      "midi": 52,
      "hit": false,
      "t": 99645.83333333359,
      "d": 74.99999999998545,
      "v": 81
    },
    {
      "midi": 76,
      "hit": false,
      "t": 99925.00000000023,
      "d": 66.66666666668607,
      "v": 89
    },
    {
      "midi": 88,
      "hit": false,
      "t": 99929.1666666669,
      "d": 62.50000000001455,
      "v": 94
    },
    {
      "midi": 59,
      "hit": false,
      "t": 99941.6666666669,
      "d": 125.00000000001455,
      "v": 84
    },
    {
      "midi": 56,
      "hit": false,
      "t": 99945.83333333358,
      "d": 66.66666666667152,
      "v": 84
    },
    {
      "midi": 52,
      "hit": false,
      "t": 99958.33333333358,
      "d": 66.66666666667152,
      "v": 80
    },
    {
      "midi": 47,
      "hit": false,
      "t": 99962.50000000025,
      "d": 29.166666666671517,
      "v": 58
    },
    {
      "midi": 59,
      "hit": false,
      "t": 100237.50000000025,
      "d": 100,
      "v": 84
    },
    {
      "midi": 87,
      "hit": false,
      "t": 100241.66666666692,
      "d": 116.66666666667152,
      "v": 88
    },
    {
      "midi": 75,
      "hit": false,
      "t": 100254.16666666692,
      "d": 83.33333333332848,
      "v": 98
    },
    {
      "midi": 47,
      "hit": false,
      "t": 100258.33333333359,
      "d": 45.83333333332848,
      "v": 55
    },
    {
      "midi": 56,
      "hit": false,
      "t": 100258.33333333359,
      "d": 58.33333333332848,
      "v": 79
    },
    {
      "midi": 52,
      "hit": false,
      "t": 100258.33333333359,
      "d": 83.33333333332848,
      "v": 79
    },
    {
      "midi": 56,
      "hit": false,
      "t": 100533.33333333359,
      "d": 70.83333333332848,
      "v": 79
    },
    {
      "midi": 85,
      "hit": false,
      "t": 100533.33333333359,
      "d": 120.83333333332848,
      "v": 88
    },
    {
      "midi": 52,
      "hit": false,
      "t": 100545.83333333359,
      "d": 70.83333333332848,
      "v": 74
    },
    {
      "midi": 59,
      "hit": false,
      "t": 100545.83333333359,
      "d": 70.83333333332848,
      "v": 77
    },
    {
      "midi": 47,
      "hit": false,
      "t": 100554.16666666692,
      "d": 37.5,
      "v": 53
    },
    {
      "midi": 73,
      "hit": false,
      "t": 100554.16666666692,
      "d": 83.33333333332848,
      "v": 92
    },
    {
      "midi": 83,
      "hit": false,
      "t": 100879.16666666692,
      "d": 124.99999999998545,
      "v": 90
    },
    {
      "midi": 71,
      "hit": false,
      "t": 100895.83333333358,
      "d": 91.66666666665697,
      "v": 92
    },
    {
      "midi": 59,
      "hit": false,
      "t": 100895.83333333358,
      "d": 150,
      "v": 81
    },
    {
      "midi": 52,
      "hit": false,
      "t": 100900.00000000025,
      "d": 120.83333333332848,
      "v": 77
    },
    {
      "midi": 47,
      "hit": false,
      "t": 100908.33333333358,
      "d": 125,
      "v": 59
    },
    {
      "midi": 55,
      "hit": false,
      "t": 100916.6666666669,
      "d": 33.33333333332848,
      "v": 74
    },
    {
      "midi": 82,
      "hit": false,
      "t": 101241.6666666669,
      "d": 104.16666666665697,
      "v": 79
    },
    {
      "midi": 52,
      "hit": false,
      "t": 101250.00000000023,
      "d": 33.33333333332848,
      "v": 66
    },
    {
      "midi": 59,
      "hit": false,
      "t": 101250.00000000023,
      "d": 33.33333333332848,
      "v": 58
    },
    {
      "midi": 55,
      "hit": false,
      "t": 101262.50000000023,
      "d": 33.33333333332848,
      "v": 54
    },
    {
      "midi": 70,
      "hit": false,
      "t": 101262.50000000023,
      "d": 62.5,
      "v": 89
    },
    {
      "midi": 85,
      "hit": false,
      "t": 101670.83333333356,
      "d": 204.16666666667152,
      "v": 96
    },
    {
      "midi": 73,
      "hit": false,
      "t": 101679.1666666669,
      "d": 200,
      "v": 107
    },
    {
      "midi": 51,
      "hit": false,
      "t": 101691.6666666669,
      "d": 129.16666666665697,
      "v": 94
    },
    {
      "midi": 57,
      "hit": false,
      "t": 101691.6666666669,
      "d": 170.83333333332848,
      "v": 90
    },
    {
      "midi": 47,
      "hit": false,
      "t": 101700.00000000023,
      "d": 166.66666666667152,
      "v": 73
    },
    {
      "midi": 83,
      "hit": false,
      "t": 102158.33333333358,
      "d": 100,
      "v": 89
    },
    {
      "midi": 71,
      "hit": false,
      "t": 102170.83333333358,
      "d": 66.66666666667152,
      "v": 88
    },
    {
      "midi": 57,
      "hit": false,
      "t": 102170.83333333358,
      "d": 125,
      "v": 68
    },
    {
      "midi": 51,
      "hit": false,
      "t": 102175.00000000025,
      "d": 58.33333333332848,
      "v": 72
    },
    {
      "midi": 47,
      "hit": false,
      "t": 102187.50000000025,
      "d": 33.33333333332848,
      "v": 58
    },
    {
      "midi": 69,
      "hit": false,
      "t": 102491.6666666669,
      "d": 62.5,
      "v": 77
    },
    {
      "midi": 81,
      "hit": false,
      "t": 102491.6666666669,
      "d": 62.5,
      "v": 75
    },
    {
      "midi": 47,
      "hit": false,
      "t": 102504.1666666669,
      "d": 41.66666666667152,
      "v": 66
    },
    {
      "midi": 51,
      "hit": false,
      "t": 102508.33333333358,
      "d": 45.83333333332848,
      "v": 76
    },
    {
      "midi": 57,
      "hit": false,
      "t": 102508.33333333358,
      "d": 83.33333333332848,
      "v": 62
    },
    {
      "midi": 66,
      "hit": false,
      "t": 102800.00000000023,
      "d": 79.16666666667152,
      "v": 93
    },
    {
      "midi": 78,
      "hit": false,
      "t": 102800.00000000023,
      "d": 83.33333333334303,
      "v": 88
    },
    {
      "midi": 47,
      "hit": false,
      "t": 102825.00000000023,
      "d": 37.5,
      "v": 58
    },
    {
      "midi": 51,
      "hit": false,
      "t": 102825.00000000023,
      "d": 41.66666666667152,
      "v": 66
    },
    {
      "midi": 57,
      "hit": false,
      "t": 102825.00000000023,
      "d": 79.16666666667152,
      "v": 67
    },
    {
      "midi": 75,
      "hit": false,
      "t": 103116.6666666669,
      "d": 70.83333333334303,
      "v": 81
    },
    {
      "midi": 63,
      "hit": false,
      "t": 103116.6666666669,
      "d": 79.16666666667152,
      "v": 94
    },
    {
      "midi": 47,
      "hit": false,
      "t": 103133.33333333358,
      "d": 79.16666666667152,
      "v": 66
    },
    {
      "midi": 51,
      "hit": false,
      "t": 103137.50000000025,
      "d": 41.66666666667152,
      "v": 58
    },
    {
      "midi": 47,
      "hit": false,
      "t": 103441.66666666692,
      "d": 20.833333333328483,
      "v": 75
    },
    {
      "midi": 59,
      "hit": false,
      "t": 103441.66666666692,
      "d": 79.16666666665697,
      "v": 85
    },
    {
      "midi": 71,
      "hit": false,
      "t": 103441.66666666692,
      "d": 87.49999999998545,
      "v": 80
    },
    {
      "midi": 69,
      "hit": false,
      "t": 103825.00000000023,
      "d": 95.83333333332848,
      "v": 81
    },
    {
      "midi": 57,
      "hit": false,
      "t": 103841.6666666669,
      "d": 66.66666666665697,
      "v": 84
    },
    {
      "midi": 45,
      "hit": false,
      "t": 103841.6666666669,
      "d": 412.49999999998545,
      "v": 55
    },
    {
      "midi": 42,
      "hit": false,
      "t": 104262.50000000022,
      "d": 54.166666666656965,
      "v": 72
    },
    {
      "midi": 54,
      "hit": false,
      "t": 104262.50000000022,
      "d": 74.99999999998545,
      "v": 90
    },
    {
      "midi": 66,
      "hit": false,
      "t": 104270.83333333355,
      "d": 95.83333333332848,
      "v": 77
    },
    {
      "midi": 76,
      "hit": false,
      "t": 104962.5000000002,
      "d": 745.8333333333285,
      "v": 90
    },
    {
      "midi": 32,
      "hit": false,
      "t": 104983.33333333353,
      "d": 500,
      "v": 88
    },
    {
      "midi": 44,
      "hit": false,
      "t": 104983.33333333353,
      "d": 500,
      "v": 83
    },
    {
      "midi": 74,
      "hit": false,
      "t": 105408.33333333353,
      "d": 300,
      "v": 81
    },
    {
      "midi": 71,
      "hit": false,
      "t": 105712.5000000002,
      "d": 258.3333333333285,
      "v": 79
    },
    {
      "midi": 65,
      "hit": false,
      "t": 106000.0000000002,
      "d": 87.5,
      "v": 72
    },
    {
      "midi": 52,
      "hit": false,
      "t": 106108.33333333353,
      "d": 37.5,
      "v": 105
    },
    {
      "midi": 64,
      "hit": false,
      "t": 106112.5000000002,
      "d": 37.5,
      "v": 105
    },
    {
      "midi": 64,
      "hit": false,
      "t": 106241.66666666688,
      "d": 145.83333333332848,
      "v": 105
    },
    {
      "midi": 52,
      "hit": false,
      "t": 106241.66666666688,
      "d": 237.5,
      "v": 105
    },
    {
      "midi": 74,
      "hit": false,
      "t": 106554.16666666688,
      "d": 241.66666666667152,
      "v": 88
    },
    {
      "midi": 71,
      "hit": false,
      "t": 106825.00000000022,
      "d": 258.3333333333285,
      "v": 83
    },
    {
      "midi": 77,
      "hit": false,
      "t": 107075.00000000022,
      "d": 79.16666666665697,
      "v": 88
    },
    {
      "midi": 44,
      "hit": false,
      "t": 107208.33333333355,
      "d": 70.83333333334303,
      "v": 88
    },
    {
      "midi": 32,
      "hit": false,
      "t": 107212.50000000022,
      "d": 66.66666666667152,
      "v": 78
    },
    {
      "midi": 44,
      "hit": false,
      "t": 107383.33333333356,
      "d": 387.50000000001455,
      "v": 83
    },
    {
      "midi": 32,
      "hit": false,
      "t": 107387.50000000023,
      "d": 362.50000000001455,
      "v": 88
    },
    {
      "midi": 76,
      "hit": false,
      "t": 107400.00000000023,
      "d": 433.33333333334303,
      "v": 92
    },
    {
      "midi": 74,
      "hit": false,
      "t": 107720.83333333358,
      "d": 300,
      "v": 84
    },
    {
      "midi": 71,
      "hit": false,
      "t": 108004.1666666669,
      "d": 254.16666666667152,
      "v": 86
    },
    {
      "midi": 68,
      "hit": false,
      "t": 108291.6666666669,
      "d": 104.16666666667152,
      "v": 70
    },
    {
      "midi": 52,
      "hit": false,
      "t": 108395.83333333358,
      "d": 70.83333333332848,
      "v": 98
    },
    {
      "midi": 64,
      "hit": false,
      "t": 108404.1666666669,
      "d": 37.5,
      "v": 98
    },
    {
      "midi": 64,
      "hit": false,
      "t": 108541.6666666669,
      "d": 258.3333333333285,
      "v": 98
    },
    {
      "midi": 52,
      "hit": false,
      "t": 108541.6666666669,
      "d": 441.66666666665697,
      "v": 98
    },
    {
      "midi": 74,
      "hit": false,
      "t": 108812.50000000023,
      "d": 262.5,
      "v": 89
    },
    {
      "midi": 71,
      "hit": false,
      "t": 109091.6666666669,
      "d": 241.66666666667152,
      "v": 81
    },
    {
      "midi": 76,
      "hit": false,
      "t": 109362.50000000025,
      "d": 116.66666666667152,
      "v": 80
    },
    {
      "midi": 34,
      "hit": false,
      "t": 109491.66666666692,
      "d": 79.16666666665697,
      "v": 64
    },
    {
      "midi": 46,
      "hit": false,
      "t": 109500.00000000025,
      "d": 62.5,
      "v": 76
    },
    {
      "midi": 34,
      "hit": false,
      "t": 109633.33333333358,
      "d": 333.3333333333576,
      "v": 66
    },
    {
      "midi": 46,
      "hit": false,
      "t": 109645.83333333358,
      "d": 354.16666666668607,
      "v": 88
    },
    {
      "midi": 76,
      "hit": false,
      "t": 109645.83333333358,
      "d": 354.16666666668607,
      "v": 84
    },
    {
      "midi": 73,
      "hit": false,
      "t": 109941.66666666693,
      "d": 279.16666666665697,
      "v": 81
    },
    {
      "midi": 70,
      "hit": false,
      "t": 110229.16666666692,
      "d": 258.3333333333285,
      "v": 87
    },
    {
      "midi": 67,
      "hit": false,
      "t": 110500.00000000025,
      "d": 108.33333333332848,
      "v": 75
    },
    {
      "midi": 52,
      "hit": false,
      "t": 110616.6666666669,
      "d": 50,
      "v": 86
    },
    {
      "midi": 64,
      "hit": false,
      "t": 110629.1666666669,
      "d": 37.5,
      "v": 86
    },
    {
      "midi": 64,
      "hit": false,
      "t": 110737.50000000023,
      "d": 262.5,
      "v": 86
    },
    {
      "midi": 52,
      "hit": false,
      "t": 110750.00000000023,
      "d": 416.6666666666715,
      "v": 86
    },
    {
      "midi": 76,
      "hit": false,
      "t": 111025.00000000023,
      "d": 233.33333333334303,
      "v": 74
    },
    {
      "midi": 73,
      "hit": false,
      "t": 111316.6666666669,
      "d": 300,
      "v": 80
    },
    {
      "midi": 79,
      "hit": false,
      "t": 111591.6666666669,
      "d": 79.16666666667152,
      "v": 79
    },
    {
      "midi": 34,
      "hit": false,
      "t": 111729.1666666669,
      "d": 87.5,
      "v": 50
    },
    {
      "midi": 46,
      "hit": false,
      "t": 111737.50000000023,
      "d": 83.33333333334303,
      "v": 57
    },
    {
      "midi": 46,
      "hit": false,
      "t": 111929.1666666669,
      "d": 325,
      "v": 65
    },
    {
      "midi": 34,
      "hit": false,
      "t": 111937.50000000023,
      "d": 262.5,
      "v": 58
    },
    {
      "midi": 76,
      "hit": false,
      "t": 111950.00000000023,
      "d": 970.8333333333285,
      "v": 79
    },
    {
      "midi": 73,
      "hit": false,
      "t": 112283.33333333358,
      "d": 258.3333333333285,
      "v": 74
    },
    {
      "midi": 70,
      "hit": false,
      "t": 112562.50000000023,
      "d": 270.8333333333285,
      "v": 71
    },
    {
      "midi": 67,
      "hit": false,
      "t": 112825.00000000023,
      "d": 91.66666666665697,
      "v": 65
    },
    {
      "midi": 52,
      "hit": false,
      "t": 112945.83333333356,
      "d": 37.5,
      "v": 59
    },
    {
      "midi": 64,
      "hit": false,
      "t": 112958.33333333356,
      "d": 29.166666666671517,
      "v": 57
    },
    {
      "midi": 52,
      "hit": false,
      "t": 113091.6666666669,
      "d": 520.833333333343,
      "v": 66
    },
    {
      "midi": 64,
      "hit": false,
      "t": 113095.83333333358,
      "d": 229.16666666667152,
      "v": 74
    },
    {
      "midi": 73,
      "hit": false,
      "t": 113416.66666666692,
      "d": 795.8333333333139,
      "v": 73
    },
    {
      "midi": 67,
      "hit": false,
      "t": 113783.33333333358,
      "d": 479.16666666665697,
      "v": 63
    },
    {
      "midi": 76,
      "hit": false,
      "t": 114179.1666666669,
      "d": 1416.6666666666715,
      "v": 65
    },
    {
      "midi": 35,
      "hit": false,
      "t": 114670.83333333356,
      "d": 500.00000000001455,
      "v": 64
    },
    {
      "midi": 80,
      "hit": false,
      "t": 114783.33333333358,
      "d": 1137.4999999999854,
      "v": 88
    },
    {
      "midi": 71,
      "hit": false,
      "t": 115387.50000000025,
      "d": 291.66666666665697,
      "v": 59
    },
    {
      "midi": 47,
      "hit": false,
      "t": 115400.00000000025,
      "d": 1237.4999999999854,
      "v": 55
    },
    {
      "midi": 68,
      "hit": false,
      "t": 115712.50000000023,
      "d": 270.8333333333285,
      "v": 71
    },
    {
      "midi": 52,
      "hit": false,
      "t": 115720.83333333356,
      "d": 658.333333333343,
      "v": 40
    },
    {
      "midi": 71,
      "hit": false,
      "t": 115962.50000000023,
      "d": 50,
      "v": 57
    },
    {
      "midi": 56,
      "hit": false,
      "t": 115987.50000000023,
      "d": 329.1666666666715,
      "v": 55
    },
    {
      "midi": 76,
      "hit": false,
      "t": 116304.1666666669,
      "d": 1270.8333333333285,
      "v": 89
    },
    {
      "midi": 59,
      "hit": false,
      "t": 116320.83333333358,
      "d": 283.3333333333285,
      "v": 55
    },
    {
      "midi": 56,
      "hit": false,
      "t": 116587.50000000023,
      "d": 133.33333333332848,
      "v": 59
    },
    {
      "midi": 47,
      "hit": false,
      "t": 116887.50000000023,
      "d": 2487.5,
      "v": 52
    },
    {
      "midi": 64,
      "hit": false,
      "t": 116895.83333333356,
      "d": 845.8333333333285,
      "v": 65
    },
    {
      "midi": 52,
      "hit": false,
      "t": 117208.33333333356,
      "d": 1408.3333333333285,
      "v": 44
    },
    {
      "midi": 68,
      "hit": false,
      "t": 117220.83333333356,
      "d": 375,
      "v": 75
    },
    {
      "midi": 56,
      "hit": false,
      "t": 117525.00000000023,
      "d": 1108.3333333333285,
      "v": 52
    },
    {
      "midi": 71,
      "hit": false,
      "t": 117554.1666666669,
      "d": 658.3333333333285,
      "v": 86
    },
    {
      "midi": 59,
      "hit": false,
      "t": 117858.33333333356,
      "d": 425,
      "v": 63
    },
    {
      "midi": 68,
      "hit": false,
      "t": 118200.00000000023,
      "d": 404.16666666665697,
      "v": 71
    },
    {
      "midi": 64,
      "hit": false,
      "t": 118608.33333333356,
      "d": 504.1666666666715,
      "v": 64
    },
    {
      "midi": 59,
      "hit": false,
      "t": 118950.00000000023,
      "d": 229.16666666667152,
      "v": 52
    },
    {
      "midi": 56,
      "hit": false,
      "t": 119250.00000000023,
      "d": 450,
      "v": 55
    },
    {
      "midi": 71,
      "hit": false,
      "t": 119604.1666666669,
      "d": 470.8333333333285,
      "v": 79
    },
    {
      "midi": 68,
      "hit": false,
      "t": 119625.00000000023,
      "d": 404.1666666666715,
      "v": 52
    },
    {
      "midi": 64,
      "hit": false,
      "t": 119633.33333333356,
      "d": 1000,
      "v": 45
    },
    {
      "midi": 52,
      "hit": false,
      "t": 119645.83333333356,
      "d": 354.1666666666715,
      "v": 51
    },
    {
      "midi": 47,
      "hit": false,
      "t": 120004.1666666669,
      "d": 70.83333333332848,
      "v": 55
    },
    {
      "midi": 35,
      "hit": false,
      "t": 120550.00000000023,
      "d": 499.99999999998545,
      "v": 64
    },
    {
      "midi": 73,
      "hit": false,
      "t": 120654.16666666689,
      "d": 1075,
      "v": 95
    },
    {
      "midi": 47,
      "hit": false,
      "t": 121237.50000000022,
      "d": 1470.833333333343,
      "v": 62
    },
    {
      "midi": 70,
      "hit": false,
      "t": 121479.16666666689,
      "d": 216.66666666667152,
      "v": 71
    },
    {
      "midi": 64,
      "hit": false,
      "t": 121483.33333333356,
      "d": 154.16666666667152,
      "v": 51
    },
    {
      "midi": 52,
      "hit": false,
      "t": 121512.50000000023,
      "d": 662.4999999999854,
      "v": 62
    },
    {
      "midi": 55,
      "hit": false,
      "t": 121741.66666666689,
      "d": 404.1666666666715,
      "v": 62
    },
    {
      "midi": 75,
      "hit": false,
      "t": 122029.16666666689,
      "d": 200,
      "v": 88
    },
    {
      "midi": 70,
      "hit": false,
      "t": 122050.00000000022,
      "d": 116.66666666667152,
      "v": 79
    },
    {
      "midi": 59,
      "hit": false,
      "t": 122054.16666666689,
      "d": 300,
      "v": 61
    },
    {
      "midi": 64,
      "hit": false,
      "t": 122070.83333333356,
      "d": 62.5,
      "v": 50
    },
    {
      "midi": 55,
      "hit": false,
      "t": 122366.66666666689,
      "d": 395.83333333334303,
      "v": 54
    },
    {
      "midi": 76,
      "hit": false,
      "t": 122716.66666666689,
      "d": 262.50000000001455,
      "v": 77
    },
    {
      "midi": 52,
      "hit": false,
      "t": 122716.66666666689,
      "d": 387.50000000001455,
      "v": 62
    },
    {
      "midi": 70,
      "hit": false,
      "t": 122729.16666666689,
      "d": 195.83333333334303,
      "v": 68
    },
    {
      "midi": 64,
      "hit": false,
      "t": 122733.33333333356,
      "d": 183.33333333334303,
      "v": 58
    },
    {
      "midi": 47,
      "hit": false,
      "t": 123095.83333333358,
      "d": 112.5,
      "v": 63
    },
    {
      "midi": 43,
      "hit": false,
      "t": 123591.6666666669,
      "d": 537.5,
      "v": 73
    },
    {
      "midi": 42,
      "hit": false,
      "t": 124083.33333333358,
      "d": 416.66666666665697,
      "v": 73
    },
    {
      "midi": 43,
      "hit": false,
      "t": 124462.50000000023,
      "d": 383.33333333334303,
      "v": 64
    },
    {
      "midi": 40,
      "hit": false,
      "t": 124816.6666666669,
      "d": 333.3333333333285,
      "v": 52
    },
    {
      "midi": 43,
      "hit": false,
      "t": 125116.6666666669,
      "d": 391.6666666666715,
      "v": 49
    },
    {
      "midi": 42,
      "hit": false,
      "t": 125479.1666666669,
      "d": 575,
      "v": 46
    },
    {
      "midi": 43,
      "hit": false,
      "t": 125841.6666666669,
      "d": 391.6666666666715,
      "v": 45
    },
    {
      "midi": 40,
      "hit": false,
      "t": 126254.1666666669,
      "d": 570.8333333333285,
      "v": 49
    },
    {
      "midi": 35,
      "hit": false,
      "t": 126737.50000000023,
      "d": 295.83333333331393,
      "v": 44
    },
    {
      "midi": 73,
      "hit": false,
      "t": 126920.83333333356,
      "d": 1174.9999999999854,
      "v": 66
    },
    {
      "midi": 47,
      "hit": false,
      "t": 127562.50000000022,
      "d": 1700,
      "v": 48
    },
    {
      "midi": 64,
      "hit": false,
      "t": 127866.66666666689,
      "d": 208.33333333332848,
      "v": 44
    },
    {
      "midi": 70,
      "hit": false,
      "t": 127875.00000000022,
      "d": 241.66666666665697,
      "v": 53
    },
    {
      "midi": 52,
      "hit": false,
      "t": 127887.50000000022,
      "d": 766.666666666657,
      "v": 50
    },
    {
      "midi": 67,
      "hit": false,
      "t": 127895.83333333355,
      "d": 220.83333333332848,
      "v": 32
    },
    {
      "midi": 55,
      "hit": false,
      "t": 128158.33333333355,
      "d": 450,
      "v": 46
    },
    {
      "midi": 75,
      "hit": false,
      "t": 128462.50000000022,
      "d": 274.99999999998545,
      "v": 70
    },
    {
      "midi": 70,
      "hit": false,
      "t": 128483.33333333355,
      "d": 216.66666666665697,
      "v": 53
    },
    {
      "midi": 64,
      "hit": false,
      "t": 128487.50000000022,
      "d": 187.49999999998545,
      "v": 43
    },
    {
      "midi": 67,
      "hit": false,
      "t": 128491.66666666689,
      "d": 220.83333333331393,
      "v": 36
    },
    {
      "midi": 59,
      "hit": false,
      "t": 128500.00000000022,
      "d": 316.66666666665697,
      "v": 50
    },
    {
      "midi": 55,
      "hit": false,
      "t": 128845.83333333355,
      "d": 450,
      "v": 49
    },
    {
      "midi": 76,
      "hit": false,
      "t": 129250.00000000022,
      "d": 533.333333333343,
      "v": 52
    },
    {
      "midi": 52,
      "hit": false,
      "t": 129254.16666666689,
      "d": 395.8333333333285,
      "v": 49
    },
    {
      "midi": 70,
      "hit": false,
      "t": 129254.16666666689,
      "d": 487.5,
      "v": 46
    },
    {
      "midi": 64,
      "hit": false,
      "t": 129262.50000000022,
      "d": 437.5,
      "v": 30
    },
    {
      "midi": 67,
      "hit": false,
      "t": 129275.00000000022,
      "d": 454.1666666666715,
      "v": 32
    },
    {
      "midi": 47,
      "hit": false,
      "t": 129675.00000000022,
      "d": 108.33333333334303,
      "v": 52
    },
    {
      "midi": 43,
      "hit": false,
      "t": 130258.33333333356,
      "d": 533.333333333343,
      "v": 48
    },
    {
      "midi": 42,
      "hit": false,
      "t": 130754.1666666669,
      "d": 374.99999999998545,
      "v": 46
    },
    {
      "midi": 43,
      "hit": false,
      "t": 131112.50000000023,
      "d": 387.5,
      "v": 49
    },
    {
      "midi": 40,
      "hit": false,
      "t": 131466.6666666669,
      "d": 400.0000000000291,
      "v": 38
    },
    {
      "midi": 43,
      "hit": false,
      "t": 131820.83333333358,
      "d": 408.33333333334303,
      "v": 40
    },
    {
      "midi": 42,
      "hit": false,
      "t": 132220.83333333358,
      "d": 541.6666666666861,
      "v": 39
    },
    {
      "midi": 43,
      "hit": false,
      "t": 132654.16666666692,
      "d": 500.0000000000291,
      "v": 39
    },
    {
      "midi": 40,
      "hit": false,
      "t": 133145.8333333336,
      "d": 708.333333333343,
      "v": 39
    },
    {
      "midi": 35,
      "hit": false,
      "t": 133770.8333333336,
      "d": 2987.499999999971,
      "v": 46
    },
    {
      "midi": 48,
      "hit": false,
      "t": 134833.3333333336,
      "d": 154.16666666665697,
      "v": 41
    },
    {
      "midi": 52,
      "hit": false,
      "t": 135341.66666666692,
      "d": 104.16666666665697,
      "v": 51
    },
    {
      "midi": 54,
      "hit": false,
      "t": 135716.66666666692,
      "d": 87.5,
      "v": 60
    },
    {
      "midi": 57,
      "hit": false,
      "t": 136154.16666666692,
      "d": 308.33333333331393,
      "v": 52
    },
    {
      "midi": 60,
      "hit": false,
      "t": 136612.50000000023,
      "d": 208.33333333334303,
      "v": 49
    },
    {
      "midi": 64,
      "hit": false,
      "t": 136987.50000000023,
      "d": 137.5,
      "v": 53
    },
    {
      "midi": 66,
      "hit": false,
      "t": 137354.1666666669,
      "d": 91.66666666665697,
      "v": 55
    },
    {
      "midi": 54,
      "hit": false,
      "t": 137916.6666666669,
      "d": 2158.333333333343,
      "v": 46
    },
    {
      "midi": 47,
      "hit": false,
      "t": 137925.00000000023,
      "d": 2283.333333333343,
      "v": 44
    },
    {
      "midi": 60,
      "hit": false,
      "t": 138479.1666666669,
      "d": 137.5,
      "v": 54
    },
    {
      "midi": 64,
      "hit": false,
      "t": 138862.50000000023,
      "d": 137.5,
      "v": 55
    },
    {
      "midi": 66,
      "hit": false,
      "t": 139200.00000000023,
      "d": 83.33333333334303,
      "v": 64
    },
    {
      "midi": 69,
      "hit": false,
      "t": 139612.50000000023,
      "d": 104.16666666665697,
      "v": 55
    },
    {
      "midi": 72,
      "hit": false,
      "t": 140087.50000000023,
      "d": 454.16666666668607,
      "v": 39
    },
    {
      "midi": 76,
      "hit": false,
      "t": 140541.66666666692,
      "d": 575,
      "v": 41
    },
    {
      "midi": 78,
      "hit": false,
      "t": 141112.50000000026,
      "d": 150,
      "v": 49
    },
    {
      "midi": 35,
      "hit": false,
      "t": 141908.3333333336,
      "d": 11995.833333333168,
      "v": 33
    },
    {
      "midi": 47,
      "hit": false,
      "t": 141916.66666666695,
      "d": 11983.333333333168,
      "v": 41
    },
    {
      "midi": 54,
      "hit": false,
      "t": 142737.5000000003,
      "d": 579.166666666657,
      "v": 40
    },
    {
      "midi": 57,
      "hit": false,
      "t": 143300.0000000003,
      "d": 150,
      "v": 44
    },
    {
      "midi": 59,
      "hit": false,
      "t": 143770.83333333363,
      "d": 66.66666666665697,
      "v": 51
    },
    {
      "midi": 63,
      "hit": false,
      "t": 144229.16666666695,
      "d": 112.5,
      "v": 64
    },
    {
      "midi": 66,
      "hit": false,
      "t": 144691.66666666695,
      "d": 45.833333333343035,
      "v": 56
    },
    {
      "midi": 69,
      "hit": false,
      "t": 145116.66666666695,
      "d": 95.83333333334303,
      "v": 48
    },
    {
      "midi": 71,
      "hit": false,
      "t": 145629.16666666695,
      "d": 41.666666666656965,
      "v": 48
    },
    {
      "midi": 75,
      "hit": false,
      "t": 146208.3333333336,
      "d": 104.16666666665697,
      "v": 54
    },
    {
      "midi": 78,
      "hit": false,
      "t": 146779.16666666692,
      "d": 87.5,
      "v": 56
    },
    {
      "midi": 81,
      "hit": false,
      "t": 147445.83333333358,
      "d": 100,
      "v": 55
    },
    {
      "midi": 82,
      "hit": false,
      "t": 148154.16666666692,
      "d": 150,
      "v": 52
    },
    {
      "midi": 83,
      "hit": false,
      "t": 149008.33333333358,
      "d": 245.83333333328483,
      "v": 46
    },
    {
      "midi": 84,
      "hit": false,
      "t": 149970.83333333352,
      "d": 300,
      "v": 44
    },
    {
      "midi": 85,
      "hit": false,
      "t": 151200.00000000017,
      "d": 362.4999999999418,
      "v": 40
    },
    {
      "midi": 87,
      "hit": false,
      "t": 153075.00000000012,
      "d": 2033.333333333314,
      "v": 35
    },
    {
      "midi": 88,
      "hit": false,
      "t": 155970.83333333343,
      "d": 100,
      "v": 54
    },
    {
      "midi": 87,
      "hit": false,
      "t": 156075.0000000001,
      "d": 79.16666666665697,
      "v": 66
    },
    {
      "midi": 88,
      "hit": false,
      "t": 156179.16666666674,
      "d": 54.16666666662786,
      "v": 73
    },
    {
      "midi": 40,
      "hit": false,
      "t": 156191.66666666674,
      "d": 20.83333333331393,
      "v": 51
    },
    {
      "midi": 52,
      "hit": false,
      "t": 156195.8333333334,
      "d": 20.83333333331393,
      "v": 48
    },
    {
      "midi": 83,
      "hit": false,
      "t": 156408.33333333337,
      "d": 29.166666666656965,
      "v": 58
    },
    {
      "midi": 84,
      "hit": false,
      "t": 156608.33333333337,
      "d": 83.33333333331393,
      "v": 69
    },
    {
      "midi": 81,
      "hit": false,
      "t": 156612.50000000003,
      "d": 20.83333333331393,
      "v": 64
    },
    {
      "midi": 76,
      "hit": false,
      "t": 156616.6666666667,
      "d": 62.5,
      "v": 55
    },
    {
      "midi": 75,
      "hit": false,
      "t": 156679.1666666667,
      "d": 83.33333333334303,
      "v": 73
    },
    {
      "midi": 83,
      "hit": false,
      "t": 156791.6666666667,
      "d": 54.166666666656965,
      "v": 66
    },
    {
      "midi": 79,
      "hit": false,
      "t": 156795.83333333334,
      "d": 20.833333333343035,
      "v": 58
    },
    {
      "midi": 76,
      "hit": false,
      "t": 156795.83333333334,
      "d": 25,
      "v": 58
    },
    {
      "midi": 71,
      "hit": false,
      "t": 156987.5,
      "d": 20.83333333331393,
      "v": 56
    },
    {
      "midi": 79,
      "hit": false,
      "t": 156987.5,
      "d": 24.999999999970896,
      "v": 58
    },
    {
      "midi": 76,
      "hit": false,
      "t": 157004.16666666666,
      "d": 24.999999999970896,
      "v": 38
    },
    {
      "midi": 72,
      "hit": false,
      "t": 157187.49999999997,
      "d": 125,
      "v": 59
    },
    {
      "midi": 81,
      "hit": false,
      "t": 157187.49999999997,
      "d": 125,
      "v": 66
    },
    {
      "midi": 76,
      "hit": false,
      "t": 157195.8333333333,
      "d": 54.166666666656965,
      "v": 56
    },
    {
      "midi": 75,
      "hit": false,
      "t": 157270.8333333333,
      "d": 87.5,
      "v": 65
    },
    {
      "midi": 79,
      "hit": false,
      "t": 157362.49999999997,
      "d": 58.33333333331393,
      "v": 67
    },
    {
      "midi": 71,
      "hit": false,
      "t": 157379.16666666663,
      "d": 20.83333333331393,
      "v": 55
    },
    {
      "midi": 76,
      "hit": false,
      "t": 157395.83333333328,
      "d": 25,
      "v": 39
    },
    {
      "midi": 76,
      "hit": false,
      "t": 157570.83333333328,
      "d": 41.666666666656965,
      "v": 62
    },
    {
      "midi": 71,
      "hit": false,
      "t": 157587.49999999994,
      "d": 25,
      "v": 40
    },
    {
      "midi": 64,
      "hit": false,
      "t": 157758.33333333328,
      "d": 66.66666666665697,
      "v": 61
    },
    {
      "midi": 78,
      "hit": false,
      "t": 157758.33333333328,
      "d": 83.33333333331393,
      "v": 77
    },
    {
      "midi": 69,
      "hit": false,
      "t": 157770.83333333328,
      "d": 62.5,
      "v": 58
    },
    {
      "midi": 72,
      "hit": false,
      "t": 157770.83333333328,
      "d": 66.66666666665697,
      "v": 51
    },
    {
      "midi": 63,
      "hit": false,
      "t": 157837.49999999994,
      "d": 79.16666666665697,
      "v": 70
    },
    {
      "midi": 76,
      "hit": false,
      "t": 157937.49999999994,
      "d": 66.66666666665697,
      "v": 70
    },
    {
      "midi": 64,
      "hit": false,
      "t": 157945.83333333328,
      "d": 79.16666666665697,
      "v": 56
    },
    {
      "midi": 71,
      "hit": false,
      "t": 157949.99999999994,
      "d": 16.666666666656965,
      "v": 64
    },
    {
      "midi": 67,
      "hit": false,
      "t": 157949.99999999994,
      "d": 20.83333333331393,
      "v": 51
    },
    {
      "midi": 52,
      "hit": false,
      "t": 158133.33333333328,
      "d": 16.666666666656965,
      "v": 58
    },
    {
      "midi": 71,
      "hit": false,
      "t": 158133.33333333328,
      "d": 25,
      "v": 63
    },
    {
      "midi": 71,
      "hit": false,
      "t": 158354.16666666663,
      "d": 62.5,
      "v": 53
    },
    {
      "midi": 67,
      "hit": false,
      "t": 158354.16666666663,
      "d": 191.66666666668607,
      "v": 51
    },
    {
      "midi": 64,
      "hit": false,
      "t": 158358.33333333328,
      "d": 129.16666666668607,
      "v": 50
    },
    {
      "midi": 70,
      "hit": false,
      "t": 158424.99999999997,
      "d": 83.33333333334303,
      "v": 66
    },
    {
      "midi": 63,
      "hit": false,
      "t": 158529.16666666666,
      "d": 37.5,
      "v": 65
    },
    {
      "midi": 71,
      "hit": false,
      "t": 158529.16666666666,
      "d": 54.166666666656965,
      "v": 63
    },
    {
      "midi": 66,
      "hit": false,
      "t": 158529.16666666666,
      "d": 62.5,
      "v": 51
    },
    {
      "midi": 59,
      "hit": false,
      "t": 158737.5,
      "d": 20.83333333331393,
      "v": 51
    },
    {
      "midi": 75,
      "hit": false,
      "t": 158741.66666666666,
      "d": 50,
      "v": 59
    },
    {
      "midi": 67,
      "hit": false,
      "t": 158937.5,
      "d": 187.5,
      "v": 53
    },
    {
      "midi": 71,
      "hit": false,
      "t": 158945.83333333334,
      "d": 54.166666666656965,
      "v": 56
    },
    {
      "midi": 64,
      "hit": false,
      "t": 158945.83333333334,
      "d": 125,
      "v": 56
    },
    {
      "midi": 70,
      "hit": false,
      "t": 159012.5,
      "d": 79.16666666668607,
      "v": 70
    },
    {
      "midi": 63,
      "hit": false,
      "t": 159104.1666666667,
      "d": 49.999999999970896,
      "v": 59
    },
    {
      "midi": 71,
      "hit": false,
      "t": 159108.33333333334,
      "d": 49.999999999970896,
      "v": 74
    },
    {
      "midi": 66,
      "hit": false,
      "t": 159108.33333333334,
      "d": 79.16666666662786,
      "v": 63
    },
    {
      "midi": 78,
      "hit": false,
      "t": 159304.16666666663,
      "d": 58.33333333331393,
      "v": 58
    },
    {
      "midi": 59,
      "hit": false,
      "t": 159320.83333333328,
      "d": 16.666666666656965,
      "v": 38
    },
    {
      "midi": 71,
      "hit": false,
      "t": 159520.83333333328,
      "d": 70.83333333334303,
      "v": 69
    },
    {
      "midi": 64,
      "hit": false,
      "t": 159520.83333333328,
      "d": 133.33333333334303,
      "v": 56
    },
    {
      "midi": 67,
      "hit": false,
      "t": 159520.83333333328,
      "d": 187.5000000000291,
      "v": 55
    },
    {
      "midi": 70,
      "hit": false,
      "t": 159595.83333333328,
      "d": 79.16666666668607,
      "v": 84
    },
    {
      "midi": 63,
      "hit": false,
      "t": 159679.16666666663,
      "d": 41.66666666668607,
      "v": 73
    },
    {
      "midi": 71,
      "hit": false,
      "t": 159687.49999999997,
      "d": 54.16666666668607,
      "v": 79
    },
    {
      "midi": 66,
      "hit": false,
      "t": 159687.49999999997,
      "d": 70.83333333334303,
      "v": 73
    },
    {
      "midi": 83,
      "hit": false,
      "t": 159874.99999999997,
      "d": 62.5,
      "v": 63
    },
    {
      "midi": 59,
      "hit": false,
      "t": 159883.3333333333,
      "d": 16.666666666656965,
      "v": 50
    },
    {
      "midi": 75,
      "hit": false,
      "t": 159883.3333333333,
      "d": 45.83333333331393,
      "v": 73
    },
    {
      "midi": 70,
      "hit": false,
      "t": 160054.16666666663,
      "d": 70.83333333334303,
      "v": 58
    },
    {
      "midi": 76,
      "hit": false,
      "t": 160062.49999999997,
      "d": 33.333333333343035,
      "v": 62
    },
    {
      "midi": 79,
      "hit": false,
      "t": 160062.49999999997,
      "d": 66.66666666665697,
      "v": 63
    },
    {
      "midi": 75,
      "hit": false,
      "t": 160249.99999999997,
      "d": 62.499999999970896,
      "v": 66
    },
    {
      "midi": 71,
      "hit": false,
      "t": 160254.16666666663,
      "d": 66.66666666665697,
      "v": 58
    },
    {
      "midi": 78,
      "hit": false,
      "t": 160258.33333333328,
      "d": 62.5,
      "v": 64
    },
    {
      "midi": 59,
      "hit": false,
      "t": 160441.66666666663,
      "d": 66.66666666665697,
      "v": 58
    },
    {
      "midi": 88,
      "hit": false,
      "t": 160649.99999999994,
      "d": 87.5,
      "v": 71
    },
    {
      "midi": 87,
      "hit": false,
      "t": 160737.49999999994,
      "d": 83.33333333334303,
      "v": 71
    },
    {
      "midi": 40,
      "hit": false,
      "t": 160820.83333333328,
      "d": 25,
      "v": 65
    },
    {
      "midi": 88,
      "hit": false,
      "t": 160824.99999999994,
      "d": 70.83333333334303,
      "v": 77
    },
    {
      "midi": 52,
      "hit": false,
      "t": 160833.33333333328,
      "d": 25,
      "v": 64
    },
    {
      "midi": 79,
      "hit": false,
      "t": 161020.83333333328,
      "d": 45.833333333343035,
      "v": 61
    },
    {
      "midi": 83,
      "hit": false,
      "t": 161029.16666666663,
      "d": 54.166666666656965,
      "v": 58
    },
    {
      "midi": 84,
      "hit": false,
      "t": 161216.66666666663,
      "d": 125.0000000000291,
      "v": 73
    },
    {
      "midi": 81,
      "hit": false,
      "t": 161229.16666666663,
      "d": 54.16666666668607,
      "v": 69
    },
    {
      "midi": 76,
      "hit": false,
      "t": 161237.49999999997,
      "d": 58.333333333343035,
      "v": 69
    },
    {
      "midi": 75,
      "hit": false,
      "t": 161295.8333333333,
      "d": 70.83333333334303,
      "v": 79
    },
    {
      "midi": 79,
      "hit": false,
      "t": 161395.8333333333,
      "d": 25,
      "v": 64
    },
    {
      "midi": 76,
      "hit": false,
      "t": 161395.8333333333,
      "d": 54.166666666656965,
      "v": 66
    },
    {
      "midi": 83,
      "hit": false,
      "t": 161395.8333333333,
      "d": 54.166666666656965,
      "v": 67
    },
    {
      "midi": 79,
      "hit": false,
      "t": 161583.3333333333,
      "d": 41.66666666668607,
      "v": 66
    },
    {
      "midi": 71,
      "hit": false,
      "t": 161591.66666666666,
      "d": 25,
      "v": 40
    },
    {
      "midi": 76,
      "hit": false,
      "t": 161608.3333333333,
      "d": 20.833333333343035,
      "v": 55
    },
    {
      "midi": 81,
      "hit": false,
      "t": 161770.8333333333,
      "d": 129.16666666668607,
      "v": 73
    },
    {
      "midi": 72,
      "hit": false,
      "t": 161779.16666666666,
      "d": 125,
      "v": 67
    },
    {
      "midi": 76,
      "hit": false,
      "t": 161783.3333333333,
      "d": 50,
      "v": 66
    },
    {
      "midi": 75,
      "hit": false,
      "t": 161854.16666666666,
      "d": 70.83333333334303,
      "v": 71
    },
    {
      "midi": 71,
      "hit": false,
      "t": 161941.66666666666,
      "d": 45.83333333331393,
      "v": 73
    },
    {
      "midi": 79,
      "hit": false,
      "t": 161958.3333333333,
      "d": 49.999999999970896,
      "v": 59
    },
    {
      "midi": 76,
      "hit": false,
      "t": 161962.49999999997,
      "d": 29.166666666656965,
      "v": 69
    },
    {
      "midi": 76,
      "hit": false,
      "t": 162145.83333333328,
      "d": 41.666666666656965,
      "v": 61
    },
    {
      "midi": 67,
      "hit": false,
      "t": 162149.99999999994,
      "d": 16.666666666656965,
      "v": 50
    },
    {
      "midi": 71,
      "hit": false,
      "t": 162154.1666666666,
      "d": 20.833333333343035,
      "v": 58
    },
    {
      "midi": 78,
      "hit": false,
      "t": 162333.33333333328,
      "d": 112.5,
      "v": 79
    },
    {
      "midi": 64,
      "hit": false,
      "t": 162337.49999999994,
      "d": 70.83333333331393,
      "v": 67
    },
    {
      "midi": 72,
      "hit": false,
      "t": 162341.6666666666,
      "d": 83.33333333334303,
      "v": 69
    },
    {
      "midi": 69,
      "hit": false,
      "t": 162341.6666666666,
      "d": 95.83333333334303,
      "v": 62
    },
    {
      "midi": 63,
      "hit": false,
      "t": 162416.6666666666,
      "d": 70.83333333334303,
      "v": 80
    },
    {
      "midi": 76,
      "hit": false,
      "t": 162508.33333333328,
      "d": 62.5,
      "v": 75
    },
    {
      "midi": 64,
      "hit": false,
      "t": 162508.33333333328,
      "d": 100,
      "v": 74
    },
    {
      "midi": 71,
      "hit": false,
      "t": 162512.49999999994,
      "d": 41.66666666668607,
      "v": 69
    },
    {
      "midi": 67,
      "hit": false,
      "t": 162520.83333333328,
      "d": 20.833333333343035,
      "v": 65
    },
    {
      "midi": 52,
      "hit": false,
      "t": 162674.99999999994,
      "d": 25,
      "v": 66
    },
    {
      "midi": 71,
      "hit": false,
      "t": 162695.83333333328,
      "d": 54.166666666656965,
      "v": 67
    },
    {
      "midi": 67,
      "hit": false,
      "t": 162712.49999999994,
      "d": 20.833333333343035,
      "v": 40
    },
    {
      "midi": 64,
      "hit": false,
      "t": 162895.83333333328,
      "d": 137.5,
      "v": 64
    },
    {
      "midi": 67,
      "hit": false,
      "t": 162899.99999999994,
      "d": 187.5,
      "v": 54
    },
    {
      "midi": 71,
      "hit": false,
      "t": 162904.1666666666,
      "d": 62.5,
      "v": 58
    },
    {
      "midi": 70,
      "hit": false,
      "t": 162987.49999999994,
      "d": 75,
      "v": 64
    },
    {
      "midi": 66,
      "hit": false,
      "t": 163074.99999999994,
      "d": 75,
      "v": 58
    },
    {
      "midi": 63,
      "hit": false,
      "t": 163083.33333333328,
      "d": 20.83333333331393,
      "v": 53
    },
    {
      "midi": 71,
      "hit": false,
      "t": 163091.6666666666,
      "d": 37.5,
      "v": 56
    },
    {
      "midi": 75,
      "hit": false,
      "t": 163274.99999999994,
      "d": 45.833333333343035,
      "v": 59
    },
    {
      "midi": 59,
      "hit": false,
      "t": 163274.99999999994,
      "d": 58.333333333343035,
      "v": 51
    },
    {
      "midi": 71,
      "hit": false,
      "t": 163466.66666666663,
      "d": 75,
      "v": 66
    },
    {
      "midi": 64,
      "hit": false,
      "t": 163466.66666666663,
      "d": 141.66666666665697,
      "v": 66
    },
    {
      "midi": 67,
      "hit": false,
      "t": 163479.16666666663,
      "d": 174.9999999999709,
      "v": 58
    },
    {
      "midi": 70,
      "hit": false,
      "t": 163554.16666666663,
      "d": 62.5,
      "v": 69
    },
    {
      "midi": 63,
      "hit": false,
      "t": 163645.83333333328,
      "d": 41.666666666656965,
      "v": 58
    },
    {
      "midi": 66,
      "hit": false,
      "t": 163649.99999999994,
      "d": 79.16666666665697,
      "v": 64
    },
    {
      "midi": 71,
      "hit": false,
      "t": 163654.1666666666,
      "d": 45.833333333343035,
      "v": 59
    },
    {
      "midi": 59,
      "hit": false,
      "t": 163845.83333333326,
      "d": 54.16666666668607,
      "v": 48
    },
    {
      "midi": 78,
      "hit": false,
      "t": 163854.1666666666,
      "d": 54.16666666668607,
      "v": 63
    },
    {
      "midi": 71,
      "hit": false,
      "t": 164054.16666666663,
      "d": 75,
      "v": 70
    },
    {
      "midi": 64,
      "hit": false,
      "t": 164054.16666666663,
      "d": 125,
      "v": 66
    },
    {
      "midi": 67,
      "hit": false,
      "t": 164062.49999999997,
      "d": 158.33333333331393,
      "v": 63
    },
    {
      "midi": 70,
      "hit": false,
      "t": 164133.33333333328,
      "d": 66.66666666668607,
      "v": 80
    },
    {
      "midi": 63,
      "hit": false,
      "t": 164216.66666666663,
      "d": 41.666666666656965,
      "v": 66
    },
    {
      "midi": 66,
      "hit": false,
      "t": 164220.83333333328,
      "d": 54.166666666656965,
      "v": 66
    },
    {
      "midi": 71,
      "hit": false,
      "t": 164233.33333333328,
      "d": 50,
      "v": 66
    },
    {
      "midi": 75,
      "hit": false,
      "t": 164408.33333333328,
      "d": 58.333333333343035,
      "v": 73
    },
    {
      "midi": 59,
      "hit": false,
      "t": 164416.66666666663,
      "d": 12.5,
      "v": 64
    },
    {
      "midi": 83,
      "hit": false,
      "t": 164416.66666666663,
      "d": 62.5,
      "v": 64
    },
    {
      "midi": 70,
      "hit": false,
      "t": 164591.66666666663,
      "d": 66.66666666665697,
      "v": 64
    },
    {
      "midi": 76,
      "hit": false,
      "t": 164595.83333333328,
      "d": 50,
      "v": 63
    },
    {
      "midi": 79,
      "hit": false,
      "t": 164595.83333333328,
      "d": 58.333333333343035,
      "v": 66
    },
    {
      "midi": 71,
      "hit": false,
      "t": 164774.99999999994,
      "d": 87.4999999999709,
      "v": 65
    },
    {
      "midi": 75,
      "hit": false,
      "t": 164779.1666666666,
      "d": 62.5,
      "v": 77
    },
    {
      "midi": 78,
      "hit": false,
      "t": 164783.33333333326,
      "d": 62.5,
      "v": 77
    },
    {
      "midi": 59,
      "hit": false,
      "t": 164962.4999999999,
      "d": 37.5,
      "v": 64
    },
    {
      "midi": 62,
      "hit": false,
      "t": 165179.16666666657,
      "d": 137.5,
      "v": 55
    },
    {
      "midi": 65,
      "hit": false,
      "t": 165179.16666666657,
      "d": 204.16666666665697,
      "v": 59
    },
    {
      "midi": 69,
      "hit": false,
      "t": 165187.4999999999,
      "d": 62.5,
      "v": 54
    },
    {
      "midi": 68,
      "hit": false,
      "t": 165274.9999999999,
      "d": 62.5,
      "v": 66
    },
    {
      "midi": 61,
      "hit": false,
      "t": 165366.66666666657,
      "d": 54.166666666656965,
      "v": 51
    },
    {
      "midi": 69,
      "hit": false,
      "t": 165374.9999999999,
      "d": 45.83333333331393,
      "v": 58
    },
    {
      "midi": 64,
      "hit": false,
      "t": 165379.16666666657,
      "d": 16.666666666656965,
      "v": 56
    },
    {
      "midi": 57,
      "hit": false,
      "t": 165562.49999999988,
      "d": 20.833333333343035,
      "v": 53
    },
    {
      "midi": 73,
      "hit": false,
      "t": 165562.49999999988,
      "d": 45.833333333343035,
      "v": 59
    },
    {
      "midi": 69,
      "hit": false,
      "t": 165762.49999999988,
      "d": 62.5,
      "v": 61
    },
    {
      "midi": 62,
      "hit": false,
      "t": 165762.49999999988,
      "d": 137.5,
      "v": 59
    },
    {
      "midi": 65,
      "hit": false,
      "t": 165762.49999999988,
      "d": 183.33333333334303,
      "v": 58
    },
    {
      "midi": 68,
      "hit": false,
      "t": 165845.83333333323,
      "d": 62.5,
      "v": 66
    },
    {
      "midi": 61,
      "hit": false,
      "t": 165949.99999999988,
      "d": 54.16666666668607,
      "v": 42
    },
    {
      "midi": 69,
      "hit": false,
      "t": 165949.99999999988,
      "d": 62.500000000029104,
      "v": 59
    },
    {
      "midi": 64,
      "hit": false,
      "t": 165962.49999999988,
      "d": 20.833333333343035,
      "v": 51
    },
    {
      "midi": 57,
      "hit": false,
      "t": 166133.33333333326,
      "d": 16.666666666656965,
      "v": 58
    },
    {
      "midi": 76,
      "hit": false,
      "t": 166137.4999999999,
      "d": 20.833333333343035,
      "v": 58
    },
    {
      "midi": 69,
      "hit": false,
      "t": 166324.9999999999,
      "d": 62.5,
      "v": 61
    },
    {
      "midi": 62,
      "hit": false,
      "t": 166333.33333333326,
      "d": 112.5,
      "v": 61
    },
    {
      "midi": 65,
      "hit": false,
      "t": 166337.4999999999,
      "d": 162.5,
      "v": 61
    },
    {
      "midi": 68,
      "hit": false,
      "t": 166408.33333333326,
      "d": 62.5,
      "v": 69
    },
    {
      "midi": 61,
      "hit": false,
      "t": 166499.9999999999,
      "d": 54.166666666656965,
      "v": 58
    },
    {
      "midi": 64,
      "hit": false,
      "t": 166504.16666666657,
      "d": 41.666666666656965,
      "v": 61
    },
    {
      "midi": 69,
      "hit": false,
      "t": 166504.16666666657,
      "d": 50,
      "v": 59
    },
    {
      "midi": 57,
      "hit": false,
      "t": 166695.83333333323,
      "d": 33.333333333343035,
      "v": 53
    },
    {
      "midi": 73,
      "hit": false,
      "t": 166695.83333333323,
      "d": 45.833333333343035,
      "v": 63
    },
    {
      "midi": 81,
      "hit": false,
      "t": 166695.83333333323,
      "d": 66.66666666668607,
      "v": 63
    },
    {
      "midi": 74,
      "hit": false,
      "t": 166887.4999999999,
      "d": 33.333333333343035,
      "v": 58
    },
    {
      "midi": 68,
      "hit": false,
      "t": 166887.4999999999,
      "d": 54.16666666668607,
      "v": 56
    },
    {
      "midi": 77,
      "hit": false,
      "t": 166887.4999999999,
      "d": 58.333333333343035,
      "v": 61
    },
    {
      "midi": 69,
      "hit": false,
      "t": 167074.9999999999,
      "d": 116.66666666665697,
      "v": 45
    },
    {
      "midi": 73,
      "hit": false,
      "t": 167083.33333333326,
      "d": 66.66666666665697,
      "v": 55
    },
    {
      "midi": 76,
      "hit": false,
      "t": 167087.4999999999,
      "d": 50,
      "v": 56
    },
    {
      "midi": 57,
      "hit": false,
      "t": 167270.83333333323,
      "d": 12.5,
      "v": 58
    },
    {
      "midi": 67,
      "hit": false,
      "t": 167483.33333333323,
      "d": 62.5,
      "v": 58
    },
    {
      "midi": 63,
      "hit": false,
      "t": 167483.33333333323,
      "d": 133.33333333334303,
      "v": 69
    },
    {
      "midi": 60,
      "hit": false,
      "t": 167499.99999999988,
      "d": 116.66666666668607,
      "v": 53
    },
    {
      "midi": 66,
      "hit": false,
      "t": 167566.66666666657,
      "d": 70.83333333334303,
      "v": 67
    },
    {
      "midi": 67,
      "hit": false,
      "t": 167670.83333333326,
      "d": 37.5,
      "v": 58
    },
    {
      "midi": 59,
      "hit": false,
      "t": 167670.83333333326,
      "d": 41.666666666656965,
      "v": 51
    },
    {
      "midi": 62,
      "hit": false,
      "t": 167670.83333333326,
      "d": 50,
      "v": 47
    },
    {
      "midi": 71,
      "hit": false,
      "t": 167858.33333333326,
      "d": 41.666666666656965,
      "v": 58
    },
    {
      "midi": 55,
      "hit": false,
      "t": 167862.4999999999,
      "d": 20.833333333343035,
      "v": 42
    },
    {
      "midi": 67,
      "hit": false,
      "t": 168066.66666666657,
      "d": 50,
      "v": 56
    },
    {
      "midi": 63,
      "hit": false,
      "t": 168066.66666666657,
      "d": 120.83333333334303,
      "v": 65
    },
    {
      "midi": 60,
      "hit": false,
      "t": 168066.66666666657,
      "d": 125,
      "v": 50
    },
    {
      "midi": 66,
      "hit": false,
      "t": 168137.4999999999,
      "d": 83.33333333331393,
      "v": 69
    },
    {
      "midi": 67,
      "hit": false,
      "t": 168233.33333333323,
      "d": 45.833333333343035,
      "v": 66
    },
    {
      "midi": 62,
      "hit": false,
      "t": 168233.33333333323,
      "d": 66.66666666665697,
      "v": 56
    },
    {
      "midi": 59,
      "hit": false,
      "t": 168241.66666666657,
      "d": 41.666666666656965,
      "v": 59
    },
    {
      "midi": 55,
      "hit": false,
      "t": 168424.99999999988,
      "d": 20.83333333331393,
      "v": 50
    },
    {
      "midi": 74,
      "hit": false,
      "t": 168429.16666666654,
      "d": 41.666666666656965,
      "v": 48
    },
    {
      "midi": 67,
      "hit": false,
      "t": 168637.49999999985,
      "d": 54.166666666656965,
      "v": 55
    },
    {
      "midi": 63,
      "hit": false,
      "t": 168637.49999999985,
      "d": 116.66666666665697,
      "v": 67
    },
    {
      "midi": 60,
      "hit": false,
      "t": 168637.49999999985,
      "d": 133.33333333331393,
      "v": 58
    },
    {
      "midi": 66,
      "hit": false,
      "t": 168712.49999999985,
      "d": 66.66666666665697,
      "v": 58
    },
    {
      "midi": 67,
      "hit": false,
      "t": 168799.99999999985,
      "d": 54.166666666656965,
      "v": 61
    },
    {
      "midi": 59,
      "hit": false,
      "t": 168816.6666666665,
      "d": 50,
      "v": 61
    },
    {
      "midi": 62,
      "hit": false,
      "t": 168820.83333333317,
      "d": 54.16666666668607,
      "v": 58
    },
    {
      "midi": 79,
      "hit": false,
      "t": 168999.99999999985,
      "d": 62.5,
      "v": 66
    },
    {
      "midi": 55,
      "hit": false,
      "t": 169004.1666666665,
      "d": 20.833333333343035,
      "v": 56
    },
    {
      "midi": 67,
      "hit": false,
      "t": 169191.6666666665,
      "d": 79.16666666665697,
      "v": 70
    },
    {
      "midi": 66,
      "hit": false,
      "t": 169274.99999999983,
      "d": 62.5,
      "v": 77
    },
    {
      "midi": 67,
      "hit": false,
      "t": 169362.49999999983,
      "d": 58.333333333343035,
      "v": 63
    },
    {
      "midi": 71,
      "hit": false,
      "t": 169366.66666666648,
      "d": 50.000000000029104,
      "v": 70
    },
    {
      "midi": 77,
      "hit": false,
      "t": 169366.66666666648,
      "d": 62.500000000029104,
      "v": 88
    },
    {
      "midi": 74,
      "hit": false,
      "t": 169374.99999999983,
      "d": 20.833333333343035,
      "v": 70
    },
    {
      "midi": 55,
      "hit": false,
      "t": 169574.99999999985,
      "d": 20.833333333343035,
      "v": 58
    },
    {
      "midi": 67,
      "hit": false,
      "t": 169779.16666666654,
      "d": 75,
      "v": 65
    },
    {
      "midi": 66,
      "hit": false,
      "t": 169841.66666666654,
      "d": 79.16666666665697,
      "v": 70
    },
    {
      "midi": 67,
      "hit": false,
      "t": 169945.8333333332,
      "d": 75.0000000000291,
      "v": 58
    },
    {
      "midi": 76,
      "hit": false,
      "t": 169949.99999999985,
      "d": 50.000000000029104,
      "v": 79
    },
    {
      "midi": 72,
      "hit": false,
      "t": 169958.3333333332,
      "d": 20.833333333343035,
      "v": 69
    },
    {
      "midi": 55,
      "hit": false,
      "t": 170154.16666666657,
      "d": 20.833333333343035,
      "v": 59
    },
    {
      "midi": 67,
      "hit": false,
      "t": 170354.16666666657,
      "d": 62.5,
      "v": 65
    },
    {
      "midi": 66,
      "hit": false,
      "t": 170429.16666666657,
      "d": 62.5,
      "v": 65
    },
    {
      "midi": 67,
      "hit": false,
      "t": 170524.9999999999,
      "d": 129.16666666662786,
      "v": 51
    },
    {
      "midi": 75,
      "hit": false,
      "t": 170529.16666666657,
      "d": 45.83333333331393,
      "v": 73
    },
    {
      "midi": 72,
      "hit": false,
      "t": 170533.33333333323,
      "d": 37.5,
      "v": 67
    },
    {
      "midi": 55,
      "hit": false,
      "t": 170720.8333333332,
      "d": 16.666666666656965,
      "v": 58
    },
    {
      "midi": 67,
      "hit": false,
      "t": 170924.99999999985,
      "d": 58.33333333331393,
      "v": 49
    },
    {
      "midi": 83,
      "hit": false,
      "t": 170924.99999999985,
      "d": 75,
      "v": 58
    },
    {
      "midi": 79,
      "hit": false,
      "t": 170929.1666666665,
      "d": 62.5,
      "v": 56
    },
    {
      "midi": 66,
      "hit": false,
      "t": 171004.1666666665,
      "d": 66.66666666668607,
      "v": 51
    },
    {
      "midi": 78,
      "hit": false,
      "t": 171012.49999999985,
      "d": 70.83333333334303,
      "v": 67
    },
    {
      "midi": 67,
      "hit": false,
      "t": 171104.16666666654,
      "d": 95.83333333331393,
      "v": 55
    },
    {
      "midi": 79,
      "hit": false,
      "t": 171112.49999999988,
      "d": 41.666666666656965,
      "v": 61
    },
    {
      "midi": 83,
      "hit": false,
      "t": 171112.49999999988,
      "d": 58.33333333331393,
      "v": 66
    },
    {
      "midi": 55,
      "hit": false,
      "t": 171316.6666666665,
      "d": 16.666666666656965,
      "v": 44
    },
    {
      "midi": 71,
      "hit": false,
      "t": 171316.6666666665,
      "d": 45.83333333331393,
      "v": 55
    },
    {
      "midi": 47,
      "hit": false,
      "t": 171504.16666666648,
      "d": 162.4999999999709,
      "v": 51
    },
    {
      "midi": 79,
      "hit": false,
      "t": 171520.83333333314,
      "d": 50,
      "v": 60
    },
    {
      "midi": 83,
      "hit": false,
      "t": 171520.83333333314,
      "d": 66.66666666665697,
      "v": 53
    },
    {
      "midi": 78,
      "hit": false,
      "t": 171604.16666666645,
      "d": 62.5,
      "v": 60
    },
    {
      "midi": 83,
      "hit": false,
      "t": 171687.4999999998,
      "d": 54.166666666656965,
      "v": 66
    },
    {
      "midi": 35,
      "hit": false,
      "t": 171687.4999999998,
      "d": 195.83333333334303,
      "v": 51
    },
    {
      "midi": 79,
      "hit": false,
      "t": 171691.66666666645,
      "d": 29.166666666656965,
      "v": 58
    },
    {
      "midi": 71,
      "hit": false,
      "t": 171866.66666666645,
      "d": 54.16666666668607,
      "v": 58
    },
    {
      "midi": 47,
      "hit": false,
      "t": 171874.9999999998,
      "d": 25,
      "v": 53
    },
    {
      "midi": 59,
      "hit": false,
      "t": 172054.16666666648,
      "d": 145.83333333331393,
      "v": 77
    },
    {
      "midi": 79,
      "hit": false,
      "t": 172062.49999999983,
      "d": 66.66666666665697,
      "v": 73
    },
    {
      "midi": 83,
      "hit": false,
      "t": 172066.66666666648,
      "d": 66.66666666665697,
      "v": 70
    },
    {
      "midi": 78,
      "hit": false,
      "t": 172145.83333333314,
      "d": 70.83333333331393,
      "v": 63
    },
    {
      "midi": 79,
      "hit": false,
      "t": 172233.3333333331,
      "d": 25,
      "v": 67
    },
    {
      "midi": 83,
      "hit": false,
      "t": 172233.3333333331,
      "d": 29.166666666656965,
      "v": 62
    },
    {
      "midi": 60,
      "hit": false,
      "t": 172237.49999999977,
      "d": 20.833333333343035,
      "v": 53
    },
    {
      "midi": 48,
      "hit": false,
      "t": 172424.99999999977,
      "d": 12.5,
      "v": 58
    },
    {
      "midi": 71,
      "hit": false,
      "t": 172424.99999999977,
      "d": 20.833333333343035,
      "v": 51
    },
    {
      "midi": 36,
      "hit": false,
      "t": 172612.49999999977,
      "d": 166.66666666668607,
      "v": 58
    },
    {
      "midi": 79,
      "hit": false,
      "t": 172616.66666666642,
      "d": 70.83333333334303,
      "v": 73
    },
    {
      "midi": 83,
      "hit": false,
      "t": 172624.99999999977,
      "d": 70.83333333334303,
      "v": 71
    },
    {
      "midi": 78,
      "hit": false,
      "t": 172699.99999999977,
      "d": 70.83333333334303,
      "v": 63
    },
    {
      "midi": 83,
      "hit": false,
      "t": 172783.3333333331,
      "d": 50.000000000029104,
      "v": 67
    },
    {
      "midi": 79,
      "hit": false,
      "t": 172791.66666666645,
      "d": 33.333333333343035,
      "v": 67
    },
    {
      "midi": 37,
      "hit": false,
      "t": 172791.66666666645,
      "d": 54.16666666668607,
      "v": 64
    },
    {
      "midi": 49,
      "hit": false,
      "t": 172987.4999999998,
      "d": 41.666666666656965,
      "v": 70
    },
    {
      "midi": 71,
      "hit": false,
      "t": 172987.4999999998,
      "d": 54.166666666656965,
      "v": 58
    },
    {
      "midi": 79,
      "hit": false,
      "t": 173166.66666666645,
      "d": 70.83333333331393,
      "v": 84
    },
    {
      "midi": 61,
      "hit": false,
      "t": 173166.66666666645,
      "d": 154.16666666665697,
      "v": 86
    },
    {
      "midi": 83,
      "hit": false,
      "t": 173170.8333333331,
      "d": 62.5,
      "v": 75
    },
    {
      "midi": 78,
      "hit": false,
      "t": 173249.99999999977,
      "d": 70.83333333334303,
      "v": 75
    },
    {
      "midi": 83,
      "hit": false,
      "t": 173324.99999999977,
      "d": 58.33333333331393,
      "v": 77
    },
    {
      "midi": 62,
      "hit": false,
      "t": 173324.99999999977,
      "d": 79.16666666665697,
      "v": 70
    },
    {
      "midi": 79,
      "hit": false,
      "t": 173341.66666666642,
      "d": 41.666666666656965,
      "v": 80
    },
    {
      "midi": 50,
      "hit": false,
      "t": 173520.83333333308,
      "d": 29.16666666668607,
      "v": 75
    },
    {
      "midi": 71,
      "hit": false,
      "t": 173529.16666666642,
      "d": 54.16666666668607,
      "v": 66
    },
    {
      "midi": 38,
      "hit": false,
      "t": 173708.3333333331,
      "d": 175.0000000000291,
      "v": 63
    },
    {
      "midi": 79,
      "hit": false,
      "t": 173716.66666666645,
      "d": 62.5,
      "v": 85
    },
    {
      "midi": 83,
      "hit": false,
      "t": 173716.66666666645,
      "d": 83.33333333334303,
      "v": 81
    },
    {
      "midi": 78,
      "hit": false,
      "t": 173799.9999999998,
      "d": 75,
      "v": 76
    },
    {
      "midi": 39,
      "hit": false,
      "t": 173883.33333333314,
      "d": 95.83333333334303,
      "v": 83
    },
    {
      "midi": 79,
      "hit": false,
      "t": 173895.83333333314,
      "d": 41.666666666656965,
      "v": 80
    },
    {
      "midi": 83,
      "hit": false,
      "t": 173895.83333333314,
      "d": 50,
      "v": 79
    },
    {
      "midi": 51,
      "hit": false,
      "t": 174074.99999999983,
      "d": 29.166666666656965,
      "v": 73
    },
    {
      "midi": 71,
      "hit": false,
      "t": 174074.99999999983,
      "d": 58.33333333331393,
      "v": 66
    },
    {
      "midi": 83,
      "hit": false,
      "t": 174279.16666666648,
      "d": 79.16666666665697,
      "v": 70
    },
    {
      "midi": 79,
      "hit": false,
      "t": 174279.16666666648,
      "d": 83.33333333331393,
      "v": 81
    },
    {
      "midi": 63,
      "hit": false,
      "t": 174283.33333333314,
      "d": 154.16666666665697,
      "v": 92
    },
    {
      "midi": 78,
      "hit": false,
      "t": 174366.66666666645,
      "d": 70.83333333334303,
      "v": 88
    },
    {
      "midi": 64,
      "hit": false,
      "t": 174445.83333333314,
      "d": 83.33333333334303,
      "v": 84
    },
    {
      "midi": 79,
      "hit": false,
      "t": 174466.66666666648,
      "d": 20.833333333343035,
      "v": 80
    },
    {
      "midi": 83,
      "hit": false,
      "t": 174466.66666666648,
      "d": 45.833333333343035,
      "v": 70
    },
    {
      "midi": 84,
      "hit": false,
      "t": 174654.16666666648,
      "d": 75,
      "v": 78
    },
    {
      "midi": 79,
      "hit": false,
      "t": 174666.66666666648,
      "d": 33.333333333343035,
      "v": 81
    },
    {
      "midi": 63,
      "hit": false,
      "t": 174666.66666666648,
      "d": 83.33333333334303,
      "v": 87
    },
    {
      "midi": 83,
      "hit": false,
      "t": 174854.16666666648,
      "d": 33.33333333331393,
      "v": 73
    },
    {
      "midi": 78,
      "hit": false,
      "t": 174858.33333333314,
      "d": 29.166666666656965,
      "v": 78
    },
    {
      "midi": 62,
      "hit": false,
      "t": 174858.33333333314,
      "d": 66.66666666665697,
      "v": 61
    },
    {
      "midi": 81,
      "hit": false,
      "t": 175029.16666666645,
      "d": 54.166666666656965,
      "v": 61
    },
    {
      "midi": 76,
      "hit": false,
      "t": 175041.66666666645,
      "d": 41.666666666656965,
      "v": 65
    },
    {
      "midi": 60,
      "hit": false,
      "t": 175041.66666666645,
      "d": 62.5,
      "v": 58
    },
    {
      "midi": 79,
      "hit": false,
      "t": 175229.16666666645,
      "d": 50,
      "v": 65
    },
    {
      "midi": 59,
      "hit": false,
      "t": 175229.16666666645,
      "d": 66.66666666665697,
      "v": 57
    },
    {
      "midi": 74,
      "hit": false,
      "t": 175241.66666666645,
      "d": 29.166666666656965,
      "v": 52
    },
    {
      "midi": 62,
      "hit": false,
      "t": 175404.16666666645,
      "d": 116.66666666665697,
      "v": 52
    },
    {
      "midi": 78,
      "hit": false,
      "t": 175416.66666666645,
      "d": 54.166666666656965,
      "v": 63
    },
    {
      "midi": 72,
      "hit": false,
      "t": 175420.8333333331,
      "d": 41.666666666656965,
      "v": 58
    },
    {
      "midi": 79,
      "hit": false,
      "t": 175591.66666666645,
      "d": 54.166666666656965,
      "v": 65
    },
    {
      "midi": 55,
      "hit": false,
      "t": 175604.16666666645,
      "d": 83.33333333331393,
      "v": 63
    },
    {
      "midi": 79,
      "hit": false,
      "t": 175816.66666666645,
      "d": 45.83333333331393,
      "v": 72
    },
    {
      "midi": 83,
      "hit": false,
      "t": 175820.8333333331,
      "d": 58.33333333331393,
      "v": 52
    },
    {
      "midi": 78,
      "hit": false,
      "t": 175899.99999999977,
      "d": 66.66666666665697,
      "v": 57
    },
    {
      "midi": 81,
      "hit": false,
      "t": 175904.16666666642,
      "d": 37.5,
      "v": 46
    },
    {
      "midi": 79,
      "hit": false,
      "t": 175987.49999999977,
      "d": 58.333333333343035,
      "v": 52
    },
    {
      "midi": 47,
      "hit": false,
      "t": 175991.66666666642,
      "d": 54.16666666668607,
      "v": 59
    },
    {
      "midi": 83,
      "hit": false,
      "t": 175999.99999999977,
      "d": 54.16666666668607,
      "v": 44
    },
    {
      "midi": 78,
      "hit": false,
      "t": 176070.8333333331,
      "d": 66.66666666665697,
      "v": 49
    },
    {
      "midi": 81,
      "hit": false,
      "t": 176074.99999999977,
      "d": 62.5,
      "v": 54
    },
    {
      "midi": 83,
      "hit": false,
      "t": 176158.3333333331,
      "d": 75,
      "v": 57
    },
    {
      "midi": 35,
      "hit": false,
      "t": 176158.3333333331,
      "d": 83.33333333334303,
      "v": 54
    },
    {
      "midi": 79,
      "hit": false,
      "t": 176166.66666666645,
      "d": 54.166666666656965,
      "v": 56
    },
    {
      "midi": 78,
      "hit": false,
      "t": 176249.9999999998,
      "d": 70.83333333331393,
      "v": 45
    },
    {
      "midi": 81,
      "hit": false,
      "t": 176254.16666666645,
      "d": 62.5,
      "v": 49
    },
    {
      "midi": 83,
      "hit": false,
      "t": 176337.49999999977,
      "d": 62.5,
      "v": 55
    },
    {
      "midi": 79,
      "hit": false,
      "t": 176341.66666666642,
      "d": 75,
      "v": 58
    },
    {
      "midi": 47,
      "hit": false,
      "t": 176341.66666666642,
      "d": 229.16666666662786,
      "v": 53
    },
    {
      "midi": 78,
      "hit": false,
      "t": 176420.83333333308,
      "d": 83.33333333331393,
      "v": 56
    },
    {
      "midi": 81,
      "hit": false,
      "t": 176424.99999999974,
      "d": 66.66666666665697,
      "v": 64
    },
    {
      "midi": 59,
      "hit": false,
      "t": 176508.33333333305,
      "d": 145.83333333331393,
      "v": 68
    },
    {
      "midi": 79,
      "hit": false,
      "t": 176512.4999999997,
      "d": 75,
      "v": 65
    },
    {
      "midi": 83,
      "hit": false,
      "t": 176512.4999999997,
      "d": 79.16666666665697,
      "v": 67
    },
    {
      "midi": 78,
      "hit": false,
      "t": 176591.66666666637,
      "d": 79.16666666665697,
      "v": 65
    },
    {
      "midi": 81,
      "hit": false,
      "t": 176595.83333333302,
      "d": 70.83333333334303,
      "v": 66
    },
    {
      "midi": 79,
      "hit": false,
      "t": 176674.99999999968,
      "d": 54.166666666656965,
      "v": 72
    },
    {
      "midi": 60,
      "hit": false,
      "t": 176674.99999999968,
      "d": 62.5,
      "v": 76
    },
    {
      "midi": 83,
      "hit": false,
      "t": 176674.99999999968,
      "d": 79.16666666665697,
      "v": 71
    },
    {
      "midi": 78,
      "hit": false,
      "t": 176779.16666666634,
      "d": 62.5,
      "v": 49
    },
    {
      "midi": 81,
      "hit": false,
      "t": 176783.333333333,
      "d": 50,
      "v": 60
    },
    {
      "midi": 48,
      "hit": false,
      "t": 176866.66666666634,
      "d": 20.833333333343035,
      "v": 61
    },
    {
      "midi": 79,
      "hit": false,
      "t": 176874.99999999968,
      "d": 45.833333333343035,
      "v": 46
    },
    {
      "midi": 83,
      "hit": false,
      "t": 176879.16666666634,
      "d": 58.333333333343035,
      "v": 53
    },
    {
      "midi": 78,
      "hit": false,
      "t": 176949.99999999968,
      "d": 75,
      "v": 54
    },
    {
      "midi": 81,
      "hit": false,
      "t": 176962.49999999968,
      "d": 45.833333333343035,
      "v": 58
    },
    {
      "midi": 36,
      "hit": false,
      "t": 177041.66666666634,
      "d": 174.9999999999709,
      "v": 63
    },
    {
      "midi": 83,
      "hit": false,
      "t": 177045.833333333,
      "d": 70.83333333334303,
      "v": 63
    },
    {
      "midi": 79,
      "hit": false,
      "t": 177045.833333333,
      "d": 79.16666666668607,
      "v": 60
    },
    {
      "midi": 81,
      "hit": false,
      "t": 177129.16666666634,
      "d": 66.66666666665697,
      "v": 71
    },
    {
      "midi": 78,
      "hit": false,
      "t": 177129.16666666634,
      "d": 83.33333333331393,
      "v": 64
    },
    {
      "midi": 37,
      "hit": false,
      "t": 177208.333333333,
      "d": 179.16666666665697,
      "v": 63
    },
    {
      "midi": 83,
      "hit": false,
      "t": 177212.49999999965,
      "d": 83.33333333334303,
      "v": 64
    },
    {
      "midi": 79,
      "hit": false,
      "t": 177216.6666666663,
      "d": 79.16666666668607,
      "v": 71
    },
    {
      "midi": 49,
      "hit": false,
      "t": 177241.6666666663,
      "d": 20.833333333343035,
      "v": 44
    },
    {
      "midi": 81,
      "hit": false,
      "t": 177316.66666666634,
      "d": 66.66666666665697,
      "v": 67
    },
    {
      "midi": 78,
      "hit": false,
      "t": 177320.833333333,
      "d": 75,
      "v": 51
    },
    {
      "midi": 49,
      "hit": false,
      "t": 177387.49999999965,
      "d": 29.166666666656965,
      "v": 74
    },
    {
      "midi": 79,
      "hit": false,
      "t": 177399.99999999965,
      "d": 58.33333333331393,
      "v": 67
    },
    {
      "midi": 83,
      "hit": false,
      "t": 177404.1666666663,
      "d": 62.5,
      "v": 61
    },
    {
      "midi": 78,
      "hit": false,
      "t": 177483.33333333296,
      "d": 66.66666666665697,
      "v": 55
    },
    {
      "midi": 81,
      "hit": false,
      "t": 177487.49999999962,
      "d": 58.333333333343035,
      "v": 61
    },
    {
      "midi": 79,
      "hit": false,
      "t": 177570.83333333296,
      "d": 79.16666666665697,
      "v": 64
    },
    {
      "midi": 83,
      "hit": false,
      "t": 177570.83333333296,
      "d": 83.33333333331393,
      "v": 64
    },
    {
      "midi": 61,
      "hit": false,
      "t": 177574.99999999962,
      "d": 174.9999999999709,
      "v": 80
    },
    {
      "midi": 78,
      "hit": false,
      "t": 177654.16666666628,
      "d": 95.83333333331393,
      "v": 64
    },
    {
      "midi": 81,
      "hit": false,
      "t": 177658.33333333294,
      "d": 79.16666666665697,
      "v": 69
    },
    {
      "midi": 79,
      "hit": false,
      "t": 177749.9999999996,
      "d": 70.83333333331393,
      "v": 70
    },
    {
      "midi": 83,
      "hit": false,
      "t": 177754.16666666625,
      "d": 62.5,
      "v": 71
    },
    {
      "midi": 62,
      "hit": false,
      "t": 177754.16666666625,
      "d": 104.16666666665697,
      "v": 79
    },
    {
      "midi": 81,
      "hit": false,
      "t": 177841.66666666625,
      "d": 58.33333333331393,
      "v": 64
    },
    {
      "midi": 78,
      "hit": false,
      "t": 177841.66666666625,
      "d": 74.9999999999709,
      "v": 53
    },
    {
      "midi": 50,
      "hit": false,
      "t": 177929.16666666622,
      "d": 20.833333333343035,
      "v": 58
    },
    {
      "midi": 79,
      "hit": false,
      "t": 177941.66666666622,
      "d": 50,
      "v": 59
    },
    {
      "midi": 83,
      "hit": false,
      "t": 177941.66666666622,
      "d": 62.5,
      "v": 61
    },
    {
      "midi": 78,
      "hit": false,
      "t": 178012.49999999956,
      "d": 91.66666666665697,
      "v": 48
    },
    {
      "midi": 81,
      "hit": false,
      "t": 178024.99999999956,
      "d": 62.5,
      "v": 61
    },
    {
      "midi": 38,
      "hit": false,
      "t": 178108.33333333288,
      "d": 187.5,
      "v": 65
    },
    {
      "midi": 79,
      "hit": false,
      "t": 178116.66666666622,
      "d": 75,
      "v": 65
    },
    {
      "midi": 83,
      "hit": false,
      "t": 178116.66666666622,
      "d": 79.16666666665697,
      "v": 68
    },
    {
      "midi": 78,
      "hit": false,
      "t": 178199.99999999953,
      "d": 83.33333333334303,
      "v": 60
    },
    {
      "midi": 81,
      "hit": false,
      "t": 178208.33333333288,
      "d": 75,
      "v": 66
    },
    {
      "midi": 39,
      "hit": false,
      "t": 178274.99999999953,
      "d": 154.16666666665697,
      "v": 76
    },
    {
      "midi": 83,
      "hit": false,
      "t": 178283.33333333288,
      "d": 83.33333333331393,
      "v": 75
    },
    {
      "midi": 79,
      "hit": false,
      "t": 178295.83333333288,
      "d": 66.66666666665697,
      "v": 74
    },
    {
      "midi": 78,
      "hit": false,
      "t": 178379.1666666662,
      "d": 62.5,
      "v": 64
    },
    {
      "midi": 81,
      "hit": false,
      "t": 178379.1666666662,
      "d": 62.5,
      "v": 65
    },
    {
      "midi": 51,
      "hit": false,
      "t": 178466.6666666662,
      "d": 16.666666666656965,
      "v": 60
    },
    {
      "midi": 83,
      "hit": false,
      "t": 178466.6666666662,
      "d": 66.66666666665697,
      "v": 56
    },
    {
      "midi": 79,
      "hit": false,
      "t": 178466.6666666662,
      "d": 75,
      "v": 63
    },
    {
      "midi": 81,
      "hit": false,
      "t": 178545.83333333285,
      "d": 66.66666666665697,
      "v": 64
    },
    {
      "midi": 78,
      "hit": false,
      "t": 178549.9999999995,
      "d": 66.66666666665697,
      "v": 49
    },
    {
      "midi": 79,
      "hit": false,
      "t": 178645.83333333282,
      "d": 75,
      "v": 61
    },
    {
      "midi": 83,
      "hit": false,
      "t": 178645.83333333282,
      "d": 75,
      "v": 68
    },
    {
      "midi": 63,
      "hit": false,
      "t": 178645.83333333282,
      "d": 158.33333333331393,
      "v": 84
    },
    {
      "midi": 78,
      "hit": false,
      "t": 178733.33333333282,
      "d": 79.16666666665697,
      "v": 63
    },
    {
      "midi": 81,
      "hit": false,
      "t": 178737.49999999948,
      "d": 66.66666666665697,
      "v": 64
    },
    {
      "midi": 83,
      "hit": false,
      "t": 178816.66666666613,
      "d": 41.666666666656965,
      "v": 68
    },
    {
      "midi": 64,
      "hit": false,
      "t": 178816.66666666613,
      "d": 87.5,
      "v": 79
    },
    {
      "midi": 79,
      "hit": false,
      "t": 178820.8333333328,
      "d": 37.5,
      "v": 68
    },
    {
      "midi": 84,
      "hit": false,
      "t": 178999.99999999948,
      "d": 66.66666666665697,
      "v": 86
    },
    {
      "midi": 79,
      "hit": false,
      "t": 179004.16666666613,
      "d": 25,
      "v": 75
    },
    {
      "midi": 63,
      "hit": false,
      "t": 179004.16666666613,
      "d": 45.833333333343035,
      "v": 81
    },
    {
      "midi": 83,
      "hit": false,
      "t": 179179.16666666613,
      "d": 20.833333333343035,
      "v": 75
    },
    {
      "midi": 78,
      "hit": false,
      "t": 179179.16666666613,
      "d": 33.333333333343035,
      "v": 80
    },
    {
      "midi": 62,
      "hit": false,
      "t": 179179.16666666613,
      "d": 79.16666666668607,
      "v": 68
    },
    {
      "midi": 81,
      "hit": false,
      "t": 179345.83333333282,
      "d": 58.33333333331393,
      "v": 77
    },
    {
      "midi": 76,
      "hit": false,
      "t": 179362.49999999948,
      "d": 16.666666666656965,
      "v": 72
    },
    {
      "midi": 60,
      "hit": false,
      "t": 179366.66666666613,
      "d": 50,
      "v": 58
    },
    {
      "midi": 79,
      "hit": false,
      "t": 179554.16666666613,
      "d": 20.83333333331393,
      "v": 68
    },
    {
      "midi": 59,
      "hit": false,
      "t": 179570.8333333328,
      "d": 20.83333333331393,
      "v": 46
    },
    {
      "midi": 74,
      "hit": false,
      "t": 179570.8333333328,
      "d": 24.999999999970896,
      "v": 44
    },
    {
      "midi": 78,
      "hit": false,
      "t": 179733.33333333276,
      "d": 45.83333333331393,
      "v": 74
    },
    {
      "midi": 62,
      "hit": false,
      "t": 179749.99999999942,
      "d": 66.66666666665697,
      "v": 62
    },
    {
      "midi": 72,
      "hit": false,
      "t": 179754.16666666607,
      "d": 20.833333333343035,
      "v": 59
    },
    {
      "midi": 55,
      "hit": false,
      "t": 179920.83333333273,
      "d": 16.66666666668607,
      "v": 78
    },
    {
      "midi": 79,
      "hit": false,
      "t": 179920.83333333273,
      "d": 50.000000000029104,
      "v": 82
    },
    {
      "midi": 71,
      "hit": false,
      "t": 179929.16666666607,
      "d": 20.833333333343035,
      "v": 74
    },
    {
      "midi": 74,
      "hit": false,
      "t": 180116.6666666661,
      "d": 37.5,
      "v": 71
    },
    {
      "midi": 71,
      "hit": false,
      "t": 180129.1666666661,
      "d": 20.833333333343035,
      "v": 67
    },
    {
      "midi": 75,
      "hit": false,
      "t": 180291.6666666661,
      "d": 70.83333333331393,
      "v": 84
    },
    {
      "midi": 72,
      "hit": false,
      "t": 180304.1666666661,
      "d": 54.166666666656965,
      "v": 66
    },
    {
      "midi": 67,
      "hit": false,
      "t": 180312.49999999945,
      "d": 29.166666666656965,
      "v": 61
    },
    {
      "midi": 66,
      "hit": false,
      "t": 180379.16666666607,
      "d": 66.66666666665697,
      "v": 83
    },
    {
      "midi": 67,
      "hit": false,
      "t": 180483.33333333273,
      "d": 62.499999999970896,
      "v": 69
    },
    {
      "midi": 74,
      "hit": false,
      "t": 180487.4999999994,
      "d": 45.83333333331393,
      "v": 88
    },
    {
      "midi": 71,
      "hit": false,
      "t": 180504.16666666605,
      "d": 16.666666666656965,
      "v": 76
    },
    {
      "midi": 62,
      "hit": false,
      "t": 180674.99999999936,
      "d": 141.66666666665697,
      "v": 74
    },
    {
      "midi": 79,
      "hit": false,
      "t": 180841.66666666602,
      "d": 58.333333333343035,
      "v": 69
    },
    {
      "midi": 63,
      "hit": false,
      "t": 180845.83333333267,
      "d": 33.333333333343035,
      "v": 72
    },
    {
      "midi": 72,
      "hit": false,
      "t": 180858.33333333267,
      "d": 20.833333333343035,
      "v": 56
    },
    {
      "midi": 78,
      "hit": false,
      "t": 180920.8333333327,
      "d": 62.5,
      "v": 72
    },
    {
      "midi": 62,
      "hit": false,
      "t": 181020.8333333327,
      "d": 41.666666666656965,
      "v": 67
    },
    {
      "midi": 55,
      "hit": false,
      "t": 181024.99999999936,
      "d": 37.5,
      "v": 69
    },
    {
      "midi": 79,
      "hit": false,
      "t": 181024.99999999936,
      "d": 70.83333333331393,
      "v": 74
    },
    {
      "midi": 71,
      "hit": false,
      "t": 181033.3333333327,
      "d": 33.33333333331393,
      "v": 60
    },
    {
      "midi": 74,
      "hit": false,
      "t": 181216.66666666602,
      "d": 20.833333333343035,
      "v": 66
    },
    {
      "midi": 71,
      "hit": false,
      "t": 181229.16666666602,
      "d": 20.833333333343035,
      "v": 50
    },
    {
      "midi": 75,
      "hit": false,
      "t": 181399.99999999936,
      "d": 79.16666666665697,
      "v": 74
    },
    {
      "midi": 72,
      "hit": false,
      "t": 181404.16666666602,
      "d": 54.166666666656965,
      "v": 61
    },
    {
      "midi": 67,
      "hit": false,
      "t": 181408.33333333267,
      "d": 70.83333333334303,
      "v": 66
    },
    {
      "midi": 66,
      "hit": false,
      "t": 181483.33333333267,
      "d": 79.16666666665697,
      "v": 81
    },
    {
      "midi": 67,
      "hit": false,
      "t": 181570.83333333267,
      "d": 58.333333333343035,
      "v": 63
    },
    {
      "midi": 74,
      "hit": false,
      "t": 181583.33333333267,
      "d": 50,
      "v": 74
    },
    {
      "midi": 71,
      "hit": false,
      "t": 181591.66666666602,
      "d": 20.833333333343035,
      "v": 52
    },
    {
      "midi": 62,
      "hit": false,
      "t": 181762.49999999933,
      "d": 104.16666666665697,
      "v": 59
    },
    {
      "midi": 63,
      "hit": false,
      "t": 181929.166666666,
      "d": 16.666666666656965,
      "v": 74
    },
    {
      "midi": 79,
      "hit": false,
      "t": 181945.83333333264,
      "d": 45.833333333343035,
      "v": 76
    },
    {
      "midi": 72,
      "hit": false,
      "t": 181962.4999999993,
      "d": 20.833333333343035,
      "v": 62
    },
    {
      "midi": 78,
      "hit": false,
      "t": 182012.49999999933,
      "d": 62.5,
      "v": 91
    },
    {
      "midi": 62,
      "hit": false,
      "t": 182112.49999999933,
      "d": 54.16666666668607,
      "v": 76
    },
    {
      "midi": 71,
      "hit": false,
      "t": 182116.666666666,
      "d": 50.000000000029104,
      "v": 88
    },
    {
      "midi": 79,
      "hit": false,
      "t": 182116.666666666,
      "d": 70.83333333337214,
      "v": 91
    },
    {
      "midi": 55,
      "hit": false,
      "t": 182124.99999999933,
      "d": 33.333333333343035,
      "v": 71
    },
    {
      "midi": 74,
      "hit": false,
      "t": 182316.66666666602,
      "d": 37.5,
      "v": 81
    },
    {
      "midi": 63,
      "hit": false,
      "t": 182487.49999999933,
      "d": 45.83333333331393,
      "v": 83
    },
    {
      "midi": 79,
      "hit": false,
      "t": 182504.166666666,
      "d": 49.999999999970896,
      "v": 70
    },
    {
      "midi": 72,
      "hit": false,
      "t": 182520.83333333264,
      "d": 29.166666666656965,
      "v": 41
    },
    {
      "midi": 78,
      "hit": false,
      "t": 182574.9999999993,
      "d": 70.83333333334303,
      "v": 73
    },
    {
      "midi": 79,
      "hit": false,
      "t": 182670.83333333264,
      "d": 79.16666666668607,
      "v": 79
    },
    {
      "midi": 71,
      "hit": false,
      "t": 182679.166666666,
      "d": 37.5,
      "v": 76
    },
    {
      "midi": 62,
      "hit": false,
      "t": 182679.166666666,
      "d": 54.166666666656965,
      "v": 67
    },
    {
      "midi": 55,
      "hit": false,
      "t": 182679.166666666,
      "d": 62.5,
      "v": 66
    },
    {
      "midi": 74,
      "hit": false,
      "t": 182866.666666666,
      "d": 16.666666666656965,
      "v": 77
    },
    {
      "midi": 72,
      "hit": false,
      "t": 183041.666666666,
      "d": 66.66666666668607,
      "v": 77
    },
    {
      "midi": 63,
      "hit": false,
      "t": 183041.666666666,
      "d": 83.33333333334303,
      "v": 83
    },
    {
      "midi": 67,
      "hit": false,
      "t": 183049.99999999933,
      "d": 25,
      "v": 61
    },
    {
      "midi": 66,
      "hit": false,
      "t": 183124.99999999933,
      "d": 50,
      "v": 77
    },
    {
      "midi": 62,
      "hit": false,
      "t": 183216.666666666,
      "d": 25,
      "v": 72
    },
    {
      "midi": 71,
      "hit": false,
      "t": 183216.666666666,
      "d": 58.333333333343035,
      "v": 79
    },
    {
      "midi": 55,
      "hit": false,
      "t": 183216.666666666,
      "d": 66.66666666668607,
      "v": 70
    },
    {
      "midi": 67,
      "hit": false,
      "t": 183229.166666666,
      "d": 20.833333333343035,
      "v": 70
    },
    {
      "midi": 62,
      "hit": false,
      "t": 183404.16666666602,
      "d": 41.666666666656965,
      "v": 71
    },
    {
      "midi": 63,
      "hit": false,
      "t": 183595.83333333267,
      "d": 37.5,
      "v": 81
    },
    {
      "midi": 69,
      "hit": false,
      "t": 183595.83333333267,
      "d": 62.5,
      "v": 72
    },
    {
      "midi": 55,
      "hit": false,
      "t": 183604.16666666602,
      "d": 50,
      "v": 58
    },
    {
      "midi": 60,
      "hit": false,
      "t": 183608.33333333267,
      "d": 25,
      "v": 45
    },
    {
      "midi": 54,
      "hit": false,
      "t": 183679.16666666602,
      "d": 62.5,
      "v": 66
    },
    {
      "midi": 55,
      "hit": false,
      "t": 183770.83333333267,
      "d": 50,
      "v": 63
    },
    {
      "midi": 62,
      "hit": false,
      "t": 183770.83333333267,
      "d": 66.66666666665697,
      "v": 71
    },
    {
      "midi": 67,
      "hit": false,
      "t": 183770.83333333267,
      "d": 83.33333333331393,
      "v": 72
    },
    {
      "midi": 59,
      "hit": false,
      "t": 183783.33333333267,
      "d": 16.666666666656965,
      "v": 61
    },
    {
      "midi": 43,
      "hit": false,
      "t": 183983.33333333264,
      "d": 25,
      "v": 57
    },
    {
      "midi": 47,
      "hit": false,
      "t": 184220.83333333264,
      "d": 37.5,
      "v": 56
    },
    {
      "midi": 88,
      "hit": false,
      "t": 184220.83333333264,
      "d": 58.333333333343035,
      "v": 66
    },
    {
      "midi": 87,
      "hit": false,
      "t": 184312.49999999933,
      "d": 50,
      "v": 57
    },
    {
      "midi": 40,
      "hit": false,
      "t": 184383.33333333267,
      "d": 20.83333333331393,
      "v": 52
    },
    {
      "midi": 88,
      "hit": false,
      "t": 184395.83333333267,
      "d": 41.666666666656965,
      "v": 66
    },
    {
      "midi": 52,
      "hit": false,
      "t": 184399.99999999933,
      "d": 16.666666666656965,
      "v": 57
    },
    {
      "midi": 83,
      "hit": false,
      "t": 184574.99999999933,
      "d": 54.16666666668607,
      "v": 56
    },
    {
      "midi": 79,
      "hit": false,
      "t": 184583.33333333267,
      "d": 25,
      "v": 50
    },
    {
      "midi": 84,
      "hit": false,
      "t": 184758.33333333267,
      "d": 141.66666666668607,
      "v": 63
    },
    {
      "midi": 76,
      "hit": false,
      "t": 184762.49999999933,
      "d": 58.333333333343035,
      "v": 56
    },
    {
      "midi": 81,
      "hit": false,
      "t": 184774.99999999933,
      "d": 45.833333333343035,
      "v": 58
    },
    {
      "midi": 75,
      "hit": false,
      "t": 184841.66666666602,
      "d": 66.66666666668607,
      "v": 69
    },
    {
      "midi": 76,
      "hit": false,
      "t": 184924.99999999936,
      "d": 54.166666666656965,
      "v": 66
    },
    {
      "midi": 83,
      "hit": false,
      "t": 184941.66666666602,
      "d": 37.5,
      "v": 60
    },
    {
      "midi": 79,
      "hit": false,
      "t": 184958.33333333267,
      "d": 12.5,
      "v": 43
    },
    {
      "midi": 79,
      "hit": false,
      "t": 185112.49999999936,
      "d": 20.833333333343035,
      "v": 57
    },
    {
      "midi": 71,
      "hit": false,
      "t": 185112.49999999936,
      "d": 33.333333333343035,
      "v": 39
    },
    {
      "midi": 76,
      "hit": false,
      "t": 185124.99999999936,
      "d": 29.16666666668607,
      "v": 38
    },
    {
      "midi": 81,
      "hit": false,
      "t": 185299.9999999994,
      "d": 95.83333333331393,
      "v": 65
    },
    {
      "midi": 76,
      "hit": false,
      "t": 185304.16666666605,
      "d": 29.166666666656965,
      "v": 52
    },
    {
      "midi": 72,
      "hit": false,
      "t": 185304.16666666605,
      "d": 70.83333333331393,
      "v": 56
    },
    {
      "midi": 75,
      "hit": false,
      "t": 185374.99999999936,
      "d": 62.5,
      "v": 66
    },
    {
      "midi": 71,
      "hit": false,
      "t": 185466.66666666602,
      "d": 41.66666666668607,
      "v": 66
    },
    {
      "midi": 79,
      "hit": false,
      "t": 185466.66666666602,
      "d": 45.833333333343035,
      "v": 60
    },
    {
      "midi": 76,
      "hit": false,
      "t": 185479.16666666602,
      "d": 20.833333333343035,
      "v": 57
    },
    {
      "midi": 67,
      "hit": false,
      "t": 185645.8333333327,
      "d": 20.83333333331393,
      "v": 46
    },
    {
      "midi": 76,
      "hit": false,
      "t": 185645.8333333327,
      "d": 20.83333333331393,
      "v": 58
    },
    {
      "midi": 71,
      "hit": false,
      "t": 185649.99999999936,
      "d": 16.666666666656965,
      "v": 45
    },
    {
      "midi": 78,
      "hit": false,
      "t": 185812.49999999936,
      "d": 66.66666666668607,
      "v": 70
    },
    {
      "midi": 69,
      "hit": false,
      "t": 185824.99999999936,
      "d": 37.500000000029104,
      "v": 49
    },
    {
      "midi": 64,
      "hit": false,
      "t": 185824.99999999936,
      "d": 75.0000000000291,
      "v": 63
    },
    {
      "midi": 72,
      "hit": false,
      "t": 185833.3333333327,
      "d": 8.333333333343035,
      "v": 58
    },
    {
      "midi": 63,
      "hit": false,
      "t": 185899.9999999994,
      "d": 50,
      "v": 73
    },
    {
      "midi": 76,
      "hit": false,
      "t": 185983.33333333273,
      "d": 58.333333333343035,
      "v": 64
    },
    {
      "midi": 64,
      "hit": false,
      "t": 185983.33333333273,
      "d": 120.83333333334303,
      "v": 62
    },
    {
      "midi": 71,
      "hit": false,
      "t": 185987.4999999994,
      "d": 33.333333333343035,
      "v": 58
    },
    {
      "midi": 67,
      "hit": false,
      "t": 185999.9999999994,
      "d": 20.833333333343035,
      "v": 52
    },
    {
      "midi": 52,
      "hit": false,
      "t": 186158.33333333273,
      "d": 20.83333333331393,
      "v": 58
    },
    {
      "midi": 71,
      "hit": false,
      "t": 186174.9999999994,
      "d": 54.166666666656965,
      "v": 64
    },
    {
      "midi": 67,
      "hit": false,
      "t": 186179.16666666605,
      "d": 29.166666666656965,
      "v": 48
    },
    {
      "midi": 71,
      "hit": false,
      "t": 186354.16666666605,
      "d": 62.5,
      "v": 63
    },
    {
      "midi": 64,
      "hit": false,
      "t": 186354.16666666605,
      "d": 125,
      "v": 63
    },
    {
      "midi": 67,
      "hit": false,
      "t": 186354.16666666605,
      "d": 154.16666666665697,
      "v": 59
    },
    {
      "midi": 70,
      "hit": false,
      "t": 186441.66666666605,
      "d": 62.5,
      "v": 65
    },
    {
      "midi": 63,
      "hit": false,
      "t": 186541.66666666605,
      "d": 8.333333333343035,
      "v": 56
    },
    {
      "midi": 66,
      "hit": false,
      "t": 186541.66666666605,
      "d": 50,
      "v": 48
    },
    {
      "midi": 71,
      "hit": false,
      "t": 186541.66666666605,
      "d": 50,
      "v": 56
    },
    {
      "midi": 59,
      "hit": false,
      "t": 186716.66666666605,
      "d": 33.333333333343035,
      "v": 49
    },
    {
      "midi": 75,
      "hit": false,
      "t": 186716.66666666605,
      "d": 54.16666666668607,
      "v": 58
    },
    {
      "midi": 64,
      "hit": false,
      "t": 186904.16666666607,
      "d": 125,
      "v": 58
    },
    {
      "midi": 71,
      "hit": false,
      "t": 186908.33333333273,
      "d": 50,
      "v": 56
    },
    {
      "midi": 67,
      "hit": false,
      "t": 186908.33333333273,
      "d": 158.33333333334303,
      "v": 53
    },
    {
      "midi": 70,
      "hit": false,
      "t": 186983.33333333273,
      "d": 62.5,
      "v": 65
    },
    {
      "midi": 63,
      "hit": false,
      "t": 187087.49999999942,
      "d": 25,
      "v": 64
    },
    {
      "midi": 71,
      "hit": false,
      "t": 187087.49999999942,
      "d": 58.333333333343035,
      "v": 67
    },
    {
      "midi": 66,
      "hit": false,
      "t": 187095.83333333276,
      "d": 58.333333333343035,
      "v": 58
    },
    {
      "midi": 59,
      "hit": false,
      "t": 187270.83333333276,
      "d": 20.833333333343035,
      "v": 55
    },
    {
      "midi": 78,
      "hit": false,
      "t": 187279.1666666661,
      "d": 45.833333333343035,
      "v": 51
    },
    {
      "midi": 64,
      "hit": false,
      "t": 187458.3333333328,
      "d": 91.66666666668607,
      "v": 58
    },
    {
      "midi": 71,
      "hit": false,
      "t": 187466.66666666613,
      "d": 54.166666666656965,
      "v": 57
    },
    {
      "midi": 67,
      "hit": false,
      "t": 187466.66666666613,
      "d": 137.5,
      "v": 49
    },
    {
      "midi": 70,
      "hit": false,
      "t": 187541.66666666613,
      "d": 62.5,
      "v": 63
    },
    {
      "midi": 63,
      "hit": false,
      "t": 187624.99999999948,
      "d": 20.833333333343035,
      "v": 52
    },
    {
      "midi": 71,
      "hit": false,
      "t": 187624.99999999948,
      "d": 45.833333333343035,
      "v": 63
    },
    {
      "midi": 66,
      "hit": false,
      "t": 187624.99999999948,
      "d": 50,
      "v": 60
    },
    {
      "midi": 59,
      "hit": false,
      "t": 187791.66666666613,
      "d": 25,
      "v": 57
    },
    {
      "midi": 75,
      "hit": false,
      "t": 187804.16666666613,
      "d": 41.666666666656965,
      "v": 60
    },
    {
      "midi": 83,
      "hit": false,
      "t": 187804.16666666613,
      "d": 58.33333333331393,
      "v": 57
    },
    {
      "midi": 70,
      "hit": false,
      "t": 187979.1666666661,
      "d": 54.166666666656965,
      "v": 57
    },
    {
      "midi": 79,
      "hit": false,
      "t": 187983.33333333276,
      "d": 50,
      "v": 56
    },
    {
      "midi": 76,
      "hit": false,
      "t": 187991.6666666661,
      "d": 29.166666666656965,
      "v": 38
    },
    {
      "midi": 78,
      "hit": false,
      "t": 188166.6666666661,
      "d": 49.999999999970896,
      "v": 58
    },
    {
      "midi": 75,
      "hit": false,
      "t": 188170.83333333276,
      "d": 41.666666666656965,
      "v": 52
    },
    {
      "midi": 71,
      "hit": false,
      "t": 188174.99999999942,
      "d": 83.33333333331393,
      "v": 44
    },
    {
      "midi": 59,
      "hit": false,
      "t": 188354.16666666607,
      "d": 54.166666666656965,
      "v": 58
    },
    {
      "midi": 88,
      "hit": false,
      "t": 188533.33333333273,
      "d": 75,
      "v": 63
    },
    {
      "midi": 87,
      "hit": false,
      "t": 188612.4999999994,
      "d": 95.83333333334303,
      "v": 57
    },
    {
      "midi": 88,
      "hit": false,
      "t": 188699.9999999994,
      "d": 54.16666666668607,
      "v": 79
    },
    {
      "midi": 40,
      "hit": false,
      "t": 188708.33333333273,
      "d": 12.5,
      "v": 62
    },
    {
      "midi": 52,
      "hit": false,
      "t": 188712.4999999994,
      "d": 20.833333333343035,
      "v": 61
    },
    {
      "midi": 79,
      "hit": false,
      "t": 188887.49999999942,
      "d": 29.166666666656965,
      "v": 59
    },
    {
      "midi": 83,
      "hit": false,
      "t": 188887.49999999942,
      "d": 54.166666666656965,
      "v": 64
    },
    {
      "midi": 76,
      "hit": false,
      "t": 189066.66666666607,
      "d": 66.66666666665697,
      "v": 71
    },
    {
      "midi": 84,
      "hit": false,
      "t": 189066.66666666607,
      "d": 91.66666666665697,
      "v": 73
    },
    {
      "midi": 81,
      "hit": false,
      "t": 189074.99999999942,
      "d": 29.166666666656965,
      "v": 73
    },
    {
      "midi": 75,
      "hit": false,
      "t": 189149.9999999994,
      "d": 62.5,
      "v": 77
    },
    {
      "midi": 76,
      "hit": false,
      "t": 189233.33333333273,
      "d": 58.33333333337214,
      "v": 66
    },
    {
      "midi": 83,
      "hit": false,
      "t": 189241.66666666607,
      "d": 41.66666666668607,
      "v": 70
    },
    {
      "midi": 79,
      "hit": false,
      "t": 189249.99999999942,
      "d": 8.333333333343035,
      "v": 63
    },
    {
      "midi": 79,
      "hit": false,
      "t": 189416.6666666661,
      "d": 29.16666666668607,
      "v": 65
    },
    {
      "midi": 71,
      "hit": false,
      "t": 189424.99999999945,
      "d": 25,
      "v": 50
    },
    {
      "midi": 76,
      "hit": false,
      "t": 189437.49999999945,
      "d": 29.166666666656965,
      "v": 48
    },
    {
      "midi": 81,
      "hit": false,
      "t": 189604.1666666661,
      "d": 104.16666666665697,
      "v": 73
    },
    {
      "midi": 76,
      "hit": false,
      "t": 189608.33333333276,
      "d": 45.83333333331393,
      "v": 63
    },
    {
      "midi": 72,
      "hit": false,
      "t": 189612.49999999942,
      "d": 87.5,
      "v": 58
    },
    {
      "midi": 75,
      "hit": false,
      "t": 189674.99999999942,
      "d": 75,
      "v": 73
    },
    {
      "midi": 71,
      "hit": false,
      "t": 189774.99999999942,
      "d": 45.833333333343035,
      "v": 66
    },
    {
      "midi": 79,
      "hit": false,
      "t": 189774.99999999942,
      "d": 58.333333333343035,
      "v": 70
    },
    {
      "midi": 76,
      "hit": false,
      "t": 189958.33333333276,
      "d": 33.33333333331393,
      "v": 71
    },
    {
      "midi": 67,
      "hit": false,
      "t": 189962.49999999942,
      "d": 16.666666666656965,
      "v": 56
    },
    {
      "midi": 71,
      "hit": false,
      "t": 189962.49999999942,
      "d": 25,
      "v": 51
    },
    {
      "midi": 64,
      "hit": false,
      "t": 190124.99999999942,
      "d": 70.83333333331393,
      "v": 73
    },
    {
      "midi": 78,
      "hit": false,
      "t": 190129.16666666607,
      "d": 45.83333333331393,
      "v": 77
    },
    {
      "midi": 69,
      "hit": false,
      "t": 190133.33333333273,
      "d": 25,
      "v": 58
    },
    {
      "midi": 72,
      "hit": false,
      "t": 190137.4999999994,
      "d": 20.833333333343035,
      "v": 58
    },
    {
      "midi": 63,
      "hit": false,
      "t": 190199.9999999994,
      "d": 54.166666666656965,
      "v": 83
    },
    {
      "midi": 76,
      "hit": false,
      "t": 190279.16666666605,
      "d": 58.333333333343035,
      "v": 73
    },
    {
      "midi": 71,
      "hit": false,
      "t": 190283.3333333327,
      "d": 29.16666666668607,
      "v": 66
    },
    {
      "midi": 64,
      "hit": false,
      "t": 190283.3333333327,
      "d": 158.33333333334303,
      "v": 63
    },
    {
      "midi": 67,
      "hit": false,
      "t": 190291.66666666605,
      "d": 20.833333333343035,
      "v": 51
    },
    {
      "midi": 52,
      "hit": false,
      "t": 190470.8333333327,
      "d": 20.833333333343035,
      "v": 59
    },
    {
      "midi": 71,
      "hit": false,
      "t": 190483.3333333327,
      "d": 8.333333333343035,
      "v": 70
    },
    {
      "midi": 64,
      "hit": false,
      "t": 190666.66666666605,
      "d": 20.83333333331393,
      "v": 63
    },
    {
      "midi": 67,
      "hit": false,
      "t": 190666.66666666605,
      "d": 137.4999999999709,
      "v": 56
    },
    {
      "midi": 71,
      "hit": false,
      "t": 190670.8333333327,
      "d": 58.33333333331393,
      "v": 51
    },
    {
      "midi": 70,
      "hit": false,
      "t": 190741.66666666602,
      "d": 62.5,
      "v": 59
    },
    {
      "midi": 66,
      "hit": false,
      "t": 190824.99999999936,
      "d": 58.33333333337214,
      "v": 56
    },
    {
      "midi": 71,
      "hit": false,
      "t": 190837.49999999936,
      "d": 37.500000000029104,
      "v": 59
    },
    {
      "midi": 63,
      "hit": false,
      "t": 190845.8333333327,
      "d": 20.833333333343035,
      "v": 39
    },
    {
      "midi": 59,
      "hit": false,
      "t": 191020.83333333273,
      "d": 12.5,
      "v": 56
    },
    {
      "midi": 75,
      "hit": false,
      "t": 191024.9999999994,
      "d": 45.833333333343035,
      "v": 65
    },
    {
      "midi": 71,
      "hit": false,
      "t": 191220.83333333273,
      "d": 58.333333333343035,
      "v": 64
    },
    {
      "midi": 64,
      "hit": false,
      "t": 191220.83333333273,
      "d": 116.66666666668607,
      "v": 54
    },
    {
      "midi": 67,
      "hit": false,
      "t": 191220.83333333273,
      "d": 166.66666666668607,
      "v": 51
    },
    {
      "midi": 70,
      "hit": false,
      "t": 191299.99999999942,
      "d": 66.66666666665697,
      "v": 66
    },
    {
      "midi": 63,
      "hit": false,
      "t": 191395.83333333276,
      "d": 25,
      "v": 50
    },
    {
      "midi": 71,
      "hit": false,
      "t": 191404.1666666661,
      "d": 37.5,
      "v": 65
    },
    {
      "midi": 66,
      "hit": false,
      "t": 191404.1666666661,
      "d": 54.166666666656965,
      "v": 54
    },
    {
      "midi": 59,
      "hit": false,
      "t": 191574.99999999942,
      "d": 20.83333333331393,
      "v": 58
    },
    {
      "midi": 78,
      "hit": false,
      "t": 191591.66666666607,
      "d": 45.83333333331393,
      "v": 58
    },
    {
      "midi": 71,
      "hit": false,
      "t": 191770.83333333273,
      "d": 54.166666666656965,
      "v": 61
    },
    {
      "midi": 64,
      "hit": false,
      "t": 191770.83333333273,
      "d": 95.83333333334303,
      "v": 64
    },
    {
      "midi": 67,
      "hit": false,
      "t": 191770.83333333273,
      "d": 158.33333333334303,
      "v": 54
    },
    {
      "midi": 70,
      "hit": false,
      "t": 191845.83333333273,
      "d": 62.5,
      "v": 71
    },
    {
      "midi": 63,
      "hit": false,
      "t": 191941.66666666607,
      "d": 20.833333333343035,
      "v": 63
    },
    {
      "midi": 71,
      "hit": false,
      "t": 191941.66666666607,
      "d": 37.5,
      "v": 73
    },
    {
      "midi": 66,
      "hit": false,
      "t": 191941.66666666607,
      "d": 58.333333333343035,
      "v": 62
    },
    {
      "midi": 59,
      "hit": false,
      "t": 192116.66666666607,
      "d": 16.666666666656965,
      "v": 63
    },
    {
      "midi": 75,
      "hit": false,
      "t": 192116.66666666607,
      "d": 54.166666666656965,
      "v": 75
    },
    {
      "midi": 83,
      "hit": false,
      "t": 192116.66666666607,
      "d": 83.33333333331393,
      "v": 70
    },
    {
      "midi": 76,
      "hit": false,
      "t": 192291.66666666605,
      "d": 41.666666666656965,
      "v": 76
    },
    {
      "midi": 79,
      "hit": false,
      "t": 192295.8333333327,
      "d": 50,
      "v": 76
    },
    {
      "midi": 70,
      "hit": false,
      "t": 192295.8333333327,
      "d": 62.5,
      "v": 71
    },
    {
      "midi": 75,
      "hit": false,
      "t": 192479.16666666605,
      "d": 62.5,
      "v": 84
    },
    {
      "midi": 78,
      "hit": false,
      "t": 192483.3333333327,
      "d": 66.66666666668607,
      "v": 83
    },
    {
      "midi": 71,
      "hit": false,
      "t": 192483.3333333327,
      "d": 104.16666666668607,
      "v": 68
    },
    {
      "midi": 59,
      "hit": false,
      "t": 192670.83333333273,
      "d": 20.833333333343035,
      "v": 58
    },
    {
      "midi": 65,
      "hit": false,
      "t": 192874.99999999942,
      "d": 170.83333333331393,
      "v": 47
    },
    {
      "midi": 62,
      "hit": false,
      "t": 192879.16666666607,
      "d": 108.33333333331393,
      "v": 46
    },
    {
      "midi": 69,
      "hit": false,
      "t": 192883.33333333273,
      "d": 45.833333333343035,
      "v": 52
    },
    {
      "midi": 68,
      "hit": false,
      "t": 192958.33333333273,
      "d": 66.66666666665697,
      "v": 58
    },
    {
      "midi": 61,
      "hit": false,
      "t": 193033.33333333273,
      "d": 75,
      "v": 51
    },
    {
      "midi": 69,
      "hit": false,
      "t": 193049.9999999994,
      "d": 58.333333333343035,
      "v": 51
    },
    {
      "midi": 64,
      "hit": false,
      "t": 193049.9999999994,
      "d": 66.66666666668607,
      "v": 39
    },
    {
      "midi": 57,
      "hit": false,
      "t": 193233.33333333273,
      "d": 20.83333333331393,
      "v": 51
    },
    {
      "midi": 73,
      "hit": false,
      "t": 193237.4999999994,
      "d": 45.83333333331393,
      "v": 61
    },
    {
      "midi": 69,
      "hit": false,
      "t": 193424.99999999936,
      "d": 66.66666666665697,
      "v": 64
    },
    {
      "midi": 65,
      "hit": false,
      "t": 193429.16666666602,
      "d": 158.33333333331393,
      "v": 55
    },
    {
      "midi": 62,
      "hit": false,
      "t": 193441.66666666602,
      "d": 108.33333333331393,
      "v": 52
    },
    {
      "midi": 68,
      "hit": false,
      "t": 193508.33333333267,
      "d": 58.33333333331393,
      "v": 64
    },
    {
      "midi": 61,
      "hit": false,
      "t": 193608.33333333267,
      "d": 50.000000000029104,
      "v": 44
    },
    {
      "midi": 64,
      "hit": false,
      "t": 193616.66666666602,
      "d": 20.833333333343035,
      "v": 51
    },
    {
      "midi": 69,
      "hit": false,
      "t": 193616.66666666602,
      "d": 50.000000000029104,
      "v": 59
    },
    {
      "midi": 57,
      "hit": false,
      "t": 193783.3333333327,
      "d": 29.166666666656965,
      "v": 48
    },
    {
      "midi": 76,
      "hit": false,
      "t": 193783.3333333327,
      "d": 33.33333333331393,
      "v": 52
    },
    {
      "midi": 69,
      "hit": false,
      "t": 193970.83333333267,
      "d": 62.5,
      "v": 62
    },
    {
      "midi": 62,
      "hit": false,
      "t": 193970.83333333267,
      "d": 75,
      "v": 56
    },
    {
      "midi": 65,
      "hit": false,
      "t": 193979.16666666602,
      "d": 116.66666666665697,
      "v": 55
    },
    {
      "midi": 68,
      "hit": false,
      "t": 194054.16666666602,
      "d": 62.5,
      "v": 70
    },
    {
      "midi": 61,
      "hit": false,
      "t": 194133.33333333267,
      "d": 41.666666666656965,
      "v": 44
    },
    {
      "midi": 69,
      "hit": false,
      "t": 194137.49999999933,
      "d": 50,
      "v": 61
    },
    {
      "midi": 64,
      "hit": false,
      "t": 194149.99999999933,
      "d": 25,
      "v": 32
    },
    {
      "midi": 57,
      "hit": false,
      "t": 194320.83333333267,
      "d": 25,
      "v": 49
    },
    {
      "midi": 81,
      "hit": false,
      "t": 194320.83333333267,
      "d": 58.333333333343035,
      "v": 65
    },
    {
      "midi": 73,
      "hit": false,
      "t": 194324.99999999933,
      "d": 41.66666666668607,
      "v": 58
    },
    {
      "midi": 68,
      "hit": false,
      "t": 194499.99999999936,
      "d": 50,
      "v": 62
    },
    {
      "midi": 77,
      "hit": false,
      "t": 194499.99999999936,
      "d": 54.166666666656965,
      "v": 58
    },
    {
      "midi": 74,
      "hit": false,
      "t": 194504.16666666602,
      "d": 25,
      "v": 51
    },
    {
      "midi": 69,
      "hit": false,
      "t": 194679.16666666602,
      "d": 116.66666666665697,
      "v": 52
    },
    {
      "midi": 73,
      "hit": false,
      "t": 194687.49999999936,
      "d": 41.666666666656965,
      "v": 54
    },
    {
      "midi": 76,
      "hit": false,
      "t": 194691.66666666602,
      "d": 20.833333333343035,
      "v": 65
    },
    {
      "midi": 57,
      "hit": false,
      "t": 194858.33333333267,
      "d": 25,
      "v": 44
    },
    {
      "midi": 63,
      "hit": false,
      "t": 195070.83333333267,
      "d": 124.9999999999709,
      "v": 68
    },
    {
      "midi": 67,
      "hit": false,
      "t": 195083.33333333267,
      "d": 54.166666666656965,
      "v": 58
    },
    {
      "midi": 60,
      "hit": false,
      "t": 195083.33333333267,
      "d": 95.83333333331393,
      "v": 57
    },
    {
      "midi": 66,
      "hit": false,
      "t": 195154.166666666,
      "d": 66.66666666665697,
      "v": 67
    },
    {
      "midi": 62,
      "hit": false,
      "t": 195237.4999999993,
      "d": 120.83333333331393,
      "v": 51
    },
    {
      "midi": 59,
      "hit": false,
      "t": 195241.66666666596,
      "d": 54.166666666656965,
      "v": 59
    },
    {
      "midi": 67,
      "hit": false,
      "t": 195254.16666666596,
      "d": 41.666666666656965,
      "v": 59
    },
    {
      "midi": 55,
      "hit": false,
      "t": 195424.99999999927,
      "d": 12.5,
      "v": 51
    },
    {
      "midi": 71,
      "hit": false,
      "t": 195429.16666666593,
      "d": 20.833333333343035,
      "v": 66
    },
    {
      "midi": 63,
      "hit": false,
      "t": 195629.16666666593,
      "d": 99.9999999999709,
      "v": 77
    },
    {
      "midi": 67,
      "hit": false,
      "t": 195633.3333333326,
      "d": 41.666666666656965,
      "v": 70
    },
    {
      "midi": 60,
      "hit": false,
      "t": 195633.3333333326,
      "d": 99.9999999999709,
      "v": 64
    },
    {
      "midi": 66,
      "hit": false,
      "t": 195712.49999999924,
      "d": 58.33333333331393,
      "v": 68
    },
    {
      "midi": 62,
      "hit": false,
      "t": 195779.1666666659,
      "d": 108.33333333331393,
      "v": 55
    },
    {
      "midi": 59,
      "hit": false,
      "t": 195795.83333333256,
      "d": 66.66666666665697,
      "v": 59
    },
    {
      "midi": 67,
      "hit": false,
      "t": 195799.9999999992,
      "d": 58.333333333343035,
      "v": 71
    },
    {
      "midi": 55,
      "hit": false,
      "t": 195970.83333333256,
      "d": 20.833333333343035,
      "v": 64
    },
    {
      "midi": 74,
      "hit": false,
      "t": 195983.33333333256,
      "d": 50,
      "v": 71
    },
    {
      "midi": 67,
      "hit": false,
      "t": 196174.9999999992,
      "d": 45.833333333343035,
      "v": 72
    },
    {
      "midi": 63,
      "hit": false,
      "t": 196174.9999999992,
      "d": 66.66666666665697,
      "v": 84
    },
    {
      "midi": 60,
      "hit": false,
      "t": 196187.4999999992,
      "d": 75,
      "v": 64
    },
    {
      "midi": 66,
      "hit": false,
      "t": 196237.4999999992,
      "d": 66.66666666665697,
      "v": 81
    },
    {
      "midi": 62,
      "hit": false,
      "t": 196341.66666666587,
      "d": 54.166666666656965,
      "v": 72
    },
    {
      "midi": 67,
      "hit": false,
      "t": 196341.66666666587,
      "d": 62.499999999970896,
      "v": 74
    },
    {
      "midi": 59,
      "hit": false,
      "t": 196345.83333333253,
      "d": 54.166666666656965,
      "v": 68
    },
    {
      "midi": 79,
      "hit": false,
      "t": 196529.16666666584,
      "d": 54.166666666656965,
      "v": 92
    },
    {
      "midi": 67,
      "hit": false,
      "t": 196733.3333333325,
      "d": 58.333333333343035,
      "v": 77
    },
    {
      "midi": 66,
      "hit": false,
      "t": 196816.66666666584,
      "d": 62.5,
      "v": 72
    },
    {
      "midi": 55,
      "hit": false,
      "t": 196899.99999999919,
      "d": 91.66666666662786,
      "v": 80
    },
    {
      "midi": 50,
      "hit": false,
      "t": 196904.16666666584,
      "d": 79.16666666665697,
      "v": 73
    },
    {
      "midi": 67,
      "hit": false,
      "t": 196904.16666666584,
      "d": 83.33333333331393,
      "v": 84
    },
    {
      "midi": 47,
      "hit": false,
      "t": 196908.3333333325,
      "d": 70.83333333334303,
      "v": 66
    },
    {
      "midi": 53,
      "hit": false,
      "t": 196920.8333333325,
      "d": 70.83333333331393,
      "v": 53
    },
    {
      "midi": 77,
      "hit": false,
      "t": 197104.1666666658,
      "d": 75,
      "v": 88
    },
    {
      "midi": 67,
      "hit": false,
      "t": 197299.99999999916,
      "d": 45.833333333343035,
      "v": 72
    },
    {
      "midi": 66,
      "hit": false,
      "t": 197374.99999999916,
      "d": 83.33333333334303,
      "v": 64
    },
    {
      "midi": 67,
      "hit": false,
      "t": 197470.8333333325,
      "d": 58.33333333331393,
      "v": 85
    },
    {
      "midi": 52,
      "hit": false,
      "t": 197479.16666666584,
      "d": 45.83333333331393,
      "v": 75
    },
    {
      "midi": 55,
      "hit": false,
      "t": 197479.16666666584,
      "d": 62.499999999970896,
      "v": 74
    },
    {
      "midi": 48,
      "hit": false,
      "t": 197483.3333333325,
      "d": 58.33333333331393,
      "v": 62
    },
    {
      "midi": 76,
      "hit": false,
      "t": 197670.83333333247,
      "d": 70.83333333334303,
      "v": 88
    },
    {
      "midi": 67,
      "hit": false,
      "t": 197874.99999999916,
      "d": 45.833333333343035,
      "v": 54
    },
    {
      "midi": 66,
      "hit": false,
      "t": 197941.66666666584,
      "d": 66.66666666665697,
      "v": 79
    },
    {
      "midi": 67,
      "hit": false,
      "t": 198029.16666666584,
      "d": 66.66666666665697,
      "v": 84
    },
    {
      "midi": 51,
      "hit": false,
      "t": 198029.16666666584,
      "d": 100,
      "v": 77
    },
    {
      "midi": 55,
      "hit": false,
      "t": 198029.16666666584,
      "d": 100,
      "v": 77
    },
    {
      "midi": 48,
      "hit": false,
      "t": 198041.66666666584,
      "d": 87.5,
      "v": 66
    },
    {
      "midi": 75,
      "hit": false,
      "t": 198229.16666666584,
      "d": 75,
      "v": 90
    },
    {
      "midi": 67,
      "hit": false,
      "t": 198416.66666666584,
      "d": 62.5,
      "v": 80
    },
    {
      "midi": 66,
      "hit": false,
      "t": 198487.49999999919,
      "d": 75,
      "v": 73
    },
    {
      "midi": 55,
      "hit": false,
      "t": 198570.83333333253,
      "d": 100,
      "v": 67
    },
    {
      "midi": 67,
      "hit": false,
      "t": 198583.33333333253,
      "d": 83.33333333334303,
      "v": 88
    },
    {
      "midi": 50,
      "hit": false,
      "t": 198583.33333333253,
      "d": 104.16666666665697,
      "v": 70
    },
    {
      "midi": 59,
      "hit": false,
      "t": 198583.33333333253,
      "d": 116.66666666665697,
      "v": 68
    },
    {
      "midi": 74,
      "hit": false,
      "t": 198791.66666666584,
      "d": 54.166666666656965,
      "v": 77
    },
    {
      "midi": 67,
      "hit": false,
      "t": 198983.3333333325,
      "d": 79.16666666665697,
      "v": 61
    },
    {
      "midi": 66,
      "hit": false,
      "t": 199083.3333333325,
      "d": 125,
      "v": 79
    },
    {
      "midi": 52,
      "hit": false,
      "t": 199179.16666666584,
      "d": 137.5,
      "v": 68
    },
    {
      "midi": 58,
      "hit": false,
      "t": 199179.16666666584,
      "d": 154.16666666665697,
      "v": 75
    },
    {
      "midi": 55,
      "hit": false,
      "t": 199191.66666666584,
      "d": 141.66666666665697,
      "v": 68
    },
    {
      "midi": 67,
      "hit": false,
      "t": 199195.8333333325,
      "d": 83.33333333334303,
      "v": 85
    },
    {
      "midi": 73,
      "hit": false,
      "t": 199404.16666666584,
      "d": 187.5,
      "v": 89
    },
    {
      "midi": 69,
      "hit": false,
      "t": 199658.3333333325,
      "d": 62.5,
      "v": 76
    },
    {
      "midi": 68,
      "hit": false,
      "t": 199783.3333333325,
      "d": 158.33333333334303,
      "v": 75
    },
    {
      "midi": 72,
      "hit": false,
      "t": 199962.49999999919,
      "d": 766.6666666666861,
      "v": 77
    },
    {
      "midi": 69,
      "hit": false,
      "t": 199966.66666666584,
      "d": 741.6666666666861,
      "v": 63
    },
    {
      "midi": 42,
      "hit": false,
      "t": 199970.8333333325,
      "d": 104.16666666665697,
      "v": 58
    },
    {
      "midi": 60,
      "hit": false,
      "t": 200270.8333333325,
      "d": 54.16666666668607,
      "v": 36
    },
    {
      "midi": 62,
      "hit": false,
      "t": 200270.8333333325,
      "d": 54.16666666668607,
      "v": 46
    },
    {
      "midi": 57,
      "hit": false,
      "t": 200279.16666666584,
      "d": 25,
      "v": 52
    },
    {
      "midi": 50,
      "hit": false,
      "t": 200479.16666666584,
      "d": 25,
      "v": 58
    },
    {
      "midi": 60,
      "hit": false,
      "t": 200479.16666666584,
      "d": 33.33333333331393,
      "v": 40
    },
    {
      "midi": 62,
      "hit": false,
      "t": 200483.3333333325,
      "d": 25,
      "v": 41
    },
    {
      "midi": 57,
      "hit": false,
      "t": 200483.3333333325,
      "d": 50,
      "v": 48
    },
    {
      "midi": 62,
      "hit": false,
      "t": 200679.16666666584,
      "d": 41.66666666668607,
      "v": 54
    },
    {
      "midi": 60,
      "hit": false,
      "t": 200679.16666666584,
      "d": 54.16666666668607,
      "v": 51
    },
    {
      "midi": 57,
      "hit": false,
      "t": 200679.16666666584,
      "d": 58.333333333343035,
      "v": 64
    },
    {
      "midi": 50,
      "hit": false,
      "t": 200687.49999999919,
      "d": 41.66666666668607,
      "v": 53
    },
    {
      "midi": 74,
      "hit": false,
      "t": 200899.99999999919,
      "d": 162.5000000000291,
      "v": 70
    },
    {
      "midi": 74,
      "hit": false,
      "t": 201124.9999999992,
      "d": 125,
      "v": 85
    },
    {
      "midi": 74,
      "hit": false,
      "t": 201320.83333333256,
      "d": 125,
      "v": 85
    },
    {
      "midi": 35,
      "hit": false,
      "t": 201324.9999999992,
      "d": 16.666666666656965,
      "v": 55
    },
    {
      "midi": 47,
      "hit": false,
      "t": 201324.9999999992,
      "d": 16.666666666656965,
      "v": 59
    },
    {
      "midi": 62,
      "hit": false,
      "t": 201604.1666666659,
      "d": 45.83333333331393,
      "v": 51
    },
    {
      "midi": 50,
      "hit": false,
      "t": 201604.1666666659,
      "d": 54.166666666656965,
      "v": 50
    },
    {
      "midi": 59,
      "hit": false,
      "t": 201608.33333333256,
      "d": 50,
      "v": 46
    },
    {
      "midi": 67,
      "hit": false,
      "t": 201612.4999999992,
      "d": 37.5,
      "v": 43
    },
    {
      "midi": 55,
      "hit": false,
      "t": 201624.9999999992,
      "d": 20.833333333343035,
      "v": 19
    },
    {
      "midi": 62,
      "hit": false,
      "t": 201779.1666666659,
      "d": 41.666666666656965,
      "v": 40
    },
    {
      "midi": 67,
      "hit": false,
      "t": 201783.33333333256,
      "d": 58.333333333343035,
      "v": 45
    },
    {
      "midi": 50,
      "hit": false,
      "t": 201791.6666666659,
      "d": 12.5,
      "v": 50
    },
    {
      "midi": 59,
      "hit": false,
      "t": 201791.6666666659,
      "d": 25,
      "v": 46
    },
    {
      "midi": 55,
      "hit": false,
      "t": 201795.83333333256,
      "d": 16.66666666668607,
      "v": 45
    },
    {
      "midi": 50,
      "hit": false,
      "t": 201970.83333333256,
      "d": 50,
      "v": 47
    },
    {
      "midi": 55,
      "hit": false,
      "t": 201979.1666666659,
      "d": 41.666666666656965,
      "v": 51
    },
    {
      "midi": 67,
      "hit": false,
      "t": 201979.1666666659,
      "d": 41.666666666656965,
      "v": 58
    },
    {
      "midi": 59,
      "hit": false,
      "t": 201983.33333333256,
      "d": 37.5,
      "v": 51
    },
    {
      "midi": 62,
      "hit": false,
      "t": 201987.4999999992,
      "d": 25,
      "v": 35
    },
    {
      "midi": 72,
      "hit": false,
      "t": 202179.16666666587,
      "d": 258.33333333331393,
      "v": 86
    },
    {
      "midi": 71,
      "hit": false,
      "t": 202383.33333333253,
      "d": 137.5,
      "v": 88
    },
    {
      "midi": 48,
      "hit": false,
      "t": 202595.83333333253,
      "d": 70.83333333331393,
      "v": 46
    },
    {
      "midi": 71,
      "hit": false,
      "t": 202604.16666666587,
      "d": 466.66666666662786,
      "v": 101
    },
    {
      "midi": 36,
      "hit": false,
      "t": 202608.33333333253,
      "d": 29.166666666656965,
      "v": 61
    },
    {
      "midi": 57,
      "hit": false,
      "t": 202841.66666666584,
      "d": 45.833333333343035,
      "v": 64
    },
    {
      "midi": 62,
      "hit": false,
      "t": 202841.66666666584,
      "d": 187.5000000000291,
      "v": 70
    },
    {
      "midi": 50,
      "hit": false,
      "t": 202854.16666666584,
      "d": 20.833333333343035,
      "v": 58
    },
    {
      "midi": 48,
      "hit": false,
      "t": 202862.49999999919,
      "d": 20.833333333343035,
      "v": 31
    },
    {
      "midi": 69,
      "hit": false,
      "t": 203020.83333333253,
      "d": 429.16666666662786,
      "v": 85
    },
    {
      "midi": 57,
      "hit": false,
      "t": 203041.66666666587,
      "d": 33.33333333328483,
      "v": 57
    },
    {
      "midi": 48,
      "hit": false,
      "t": 203045.83333333253,
      "d": 24.999999999970896,
      "v": 49
    },
    {
      "midi": 50,
      "hit": false,
      "t": 203049.99999999919,
      "d": 16.666666666656965,
      "v": 50
    },
    {
      "midi": 54,
      "hit": false,
      "t": 203054.16666666584,
      "d": 37.499999999970896,
      "v": 52
    },
    {
      "midi": 54,
      "hit": false,
      "t": 203212.49999999916,
      "d": 275,
      "v": 62
    },
    {
      "midi": 57,
      "hit": false,
      "t": 203220.8333333325,
      "d": 241.66666666665697,
      "v": 66
    },
    {
      "midi": 50,
      "hit": false,
      "t": 203220.8333333325,
      "d": 250,
      "v": 62
    },
    {
      "midi": 62,
      "hit": false,
      "t": 203220.8333333325,
      "d": 387.4999999999709,
      "v": 77
    },
    {
      "midi": 48,
      "hit": false,
      "t": 203233.3333333325,
      "d": 237.5,
      "v": 50
    },
    {
      "midi": 67,
      "hit": false,
      "t": 203424.99999999916,
      "d": 179.16666666665697,
      "v": 80
    },
    {
      "midi": 66,
      "hit": false,
      "t": 203608.33333333247,
      "d": 41.666666666656965,
      "v": 88
    },
    {
      "midi": 47,
      "hit": false,
      "t": 203804.16666666578,
      "d": 679.166666666657,
      "v": 71
    },
    {
      "midi": 67,
      "hit": false,
      "t": 203824.99999999913,
      "d": 283.33333333331393,
      "v": 83
    },
    {
      "midi": 50,
      "hit": false,
      "t": 204004.16666666578,
      "d": 100,
      "v": 55
    },
    {
      "midi": 55,
      "hit": false,
      "t": 204020.83333333244,
      "d": 45.833333333343035,
      "v": 42
    },
    {
      "midi": 59,
      "hit": false,
      "t": 204020.83333333244,
      "d": 45.833333333343035,
      "v": 57
    },
    {
      "midi": 50,
      "hit": false,
      "t": 204199.9999999991,
      "d": 79.16666666668607,
      "v": 11
    },
    {
      "midi": 59,
      "hit": false,
      "t": 204212.4999999991,
      "d": 29.16666666668607,
      "v": 55
    },
    {
      "midi": 67,
      "hit": false,
      "t": 204212.4999999991,
      "d": 208.33333333334303,
      "v": 80
    },
    {
      "midi": 55,
      "hit": false,
      "t": 204220.83333333244,
      "d": 20.833333333343035,
      "v": 40
    },
    {
      "midi": 69,
      "hit": false,
      "t": 204399.99999999913,
      "d": 412.5,
      "v": 88
    },
    {
      "midi": 59,
      "hit": false,
      "t": 204416.66666666578,
      "d": 54.166666666656965,
      "v": 58
    },
    {
      "midi": 50,
      "hit": false,
      "t": 204416.66666666578,
      "d": 75,
      "v": 52
    },
    {
      "midi": 55,
      "hit": false,
      "t": 204420.83333333244,
      "d": 50,
      "v": 52
    },
    {
      "midi": 59,
      "hit": false,
      "t": 204595.83333333244,
      "d": 54.166666666656965,
      "v": 63
    },
    {
      "midi": 55,
      "hit": false,
      "t": 204608.33333333244,
      "d": 29.166666666656965,
      "v": 52
    },
    {
      "midi": 50,
      "hit": false,
      "t": 204608.33333333244,
      "d": 50,
      "v": 66
    },
    {
      "midi": 71,
      "hit": false,
      "t": 204779.16666666578,
      "d": 266.66666666665697,
      "v": 88
    },
    {
      "midi": 50,
      "hit": false,
      "t": 204783.33333333244,
      "d": 41.66666666668607,
      "v": 66
    },
    {
      "midi": 59,
      "hit": false,
      "t": 204791.66666666578,
      "d": 12.5,
      "v": 57
    },
    {
      "midi": 55,
      "hit": false,
      "t": 204795.83333333244,
      "d": 20.833333333343035,
      "v": 39
    },
    {
      "midi": 42,
      "hit": false,
      "t": 204991.66666666578,
      "d": 91.66666666665697,
      "v": 79
    },
    {
      "midi": 62,
      "hit": false,
      "t": 205054.16666666575,
      "d": 325,
      "v": 83
    },
    {
      "midi": 72,
      "hit": false,
      "t": 205262.4999999991,
      "d": 220.83333333331393,
      "v": 84
    },
    {
      "midi": 60,
      "hit": false,
      "t": 205274.9999999991,
      "d": 29.166666666656965,
      "v": 48
    },
    {
      "midi": 57,
      "hit": false,
      "t": 205274.9999999991,
      "d": 37.5,
      "v": 52
    },
    {
      "midi": 50,
      "hit": false,
      "t": 205274.9999999991,
      "d": 50,
      "v": 58
    },
    {
      "midi": 69,
      "hit": false,
      "t": 205449.9999999991,
      "d": 200,
      "v": 80
    },
    {
      "midi": 50,
      "hit": false,
      "t": 205466.66666666575,
      "d": 25,
      "v": 55
    },
    {
      "midi": 57,
      "hit": false,
      "t": 205466.66666666575,
      "d": 25,
      "v": 57
    },
    {
      "midi": 60,
      "hit": false,
      "t": 205470.8333333324,
      "d": 33.333333333343035,
      "v": 50
    },
    {
      "midi": 62,
      "hit": false,
      "t": 205637.4999999991,
      "d": 175,
      "v": 80
    },
    {
      "midi": 50,
      "hit": false,
      "t": 205645.83333333244,
      "d": 12.5,
      "v": 62
    },
    {
      "midi": 57,
      "hit": false,
      "t": 205649.9999999991,
      "d": 20.833333333343035,
      "v": 64
    },
    {
      "midi": 60,
      "hit": false,
      "t": 205649.9999999991,
      "d": 20.833333333343035,
      "v": 61
    },
    {
      "midi": 74,
      "hit": false,
      "t": 205833.33333333244,
      "d": 116.66666666665697,
      "v": 92
    },
    {
      "midi": 74,
      "hit": false,
      "t": 206024.9999999991,
      "d": 195.83333333334303,
      "v": 92
    },
    {
      "midi": 43,
      "hit": false,
      "t": 206220.83333333244,
      "d": 50,
      "v": 68
    },
    {
      "midi": 76,
      "hit": false,
      "t": 206233.33333333244,
      "d": 191.66666666668607,
      "v": 96
    },
    {
      "midi": 59,
      "hit": false,
      "t": 206441.66666666578,
      "d": 49.999999999970896,
      "v": 57
    },
    {
      "midi": 67,
      "hit": false,
      "t": 206441.66666666578,
      "d": 133.33333333328483,
      "v": 66
    },
    {
      "midi": 50,
      "hit": false,
      "t": 206445.83333333244,
      "d": 45.83333333331393,
      "v": 26
    },
    {
      "midi": 62,
      "hit": false,
      "t": 206445.83333333244,
      "d": 124.9999999999709,
      "v": 53
    },
    {
      "midi": 55,
      "hit": false,
      "t": 206462.4999999991,
      "d": 16.666666666656965,
      "v": 33
    },
    {
      "midi": 74,
      "hit": false,
      "t": 206608.3333333324,
      "d": 66.66666666665697,
      "v": 86
    },
    {
      "midi": 50,
      "hit": false,
      "t": 206624.99999999907,
      "d": 12.5,
      "v": 66
    },
    {
      "midi": 59,
      "hit": false,
      "t": 206624.99999999907,
      "d": 25,
      "v": 64
    },
    {
      "midi": 55,
      "hit": false,
      "t": 206629.16666666573,
      "d": 20.833333333343035,
      "v": 61
    },
    {
      "midi": 74,
      "hit": false,
      "t": 206816.66666666573,
      "d": 41.66666666668607,
      "v": 89
    },
    {
      "midi": 67,
      "hit": false,
      "t": 206824.99999999907,
      "d": 41.66666666668607,
      "v": 74
    },
    {
      "midi": 62,
      "hit": false,
      "t": 206824.99999999907,
      "d": 250.0000000000291,
      "v": 66
    },
    {
      "midi": 59,
      "hit": false,
      "t": 206833.3333333324,
      "d": 250.0000000000291,
      "v": 58
    },
    {
      "midi": 55,
      "hit": false,
      "t": 206833.3333333324,
      "d": 254.16666666668607,
      "v": 58
    },
    {
      "midi": 50,
      "hit": false,
      "t": 206837.49999999907,
      "d": 254.16666666668607,
      "v": 42
    },
    {
      "midi": 72,
      "hit": false,
      "t": 207024.9999999991,
      "d": 125,
      "v": 83
    },
    {
      "midi": 71,
      "hit": false,
      "t": 207216.66666666575,
      "d": 108.33333333331393,
      "v": 92
    },
    {
      "midi": 71,
      "hit": false,
      "t": 207408.3333333324,
      "d": 366.66666666668607,
      "v": 88
    },
    {
      "midi": 48,
      "hit": false,
      "t": 207424.99999999907,
      "d": 829.1666666666279,
      "v": 62
    },
    {
      "midi": 62,
      "hit": false,
      "t": 207608.3333333324,
      "d": 133.33333333334303,
      "v": 64
    },
    {
      "midi": 50,
      "hit": false,
      "t": 207612.49999999907,
      "d": 45.833333333343035,
      "v": 58
    },
    {
      "midi": 57,
      "hit": false,
      "t": 207616.66666666573,
      "d": 62.500000000029104,
      "v": 49
    },
    {
      "midi": 54,
      "hit": false,
      "t": 207624.99999999907,
      "d": 54.16666666668607,
      "v": 51
    },
    {
      "midi": 69,
      "hit": false,
      "t": 207779.16666666575,
      "d": 87.49999999994179,
      "v": 81
    },
    {
      "midi": 62,
      "hit": false,
      "t": 207783.3333333324,
      "d": 54.16666666662786,
      "v": 42
    },
    {
      "midi": 57,
      "hit": false,
      "t": 207795.8333333324,
      "d": 45.83333333328483,
      "v": 66
    },
    {
      "midi": 50,
      "hit": false,
      "t": 207799.99999999907,
      "d": 20.83333333331393,
      "v": 54
    },
    {
      "midi": 54,
      "hit": false,
      "t": 207799.99999999907,
      "d": 45.83333333328483,
      "v": 61
    },
    {
      "midi": 62,
      "hit": false,
      "t": 207987.49999999904,
      "d": 395.83333333331393,
      "v": 79
    },
    {
      "midi": 50,
      "hit": false,
      "t": 207991.6666666657,
      "d": 266.66666666665697,
      "v": 59
    },
    {
      "midi": 54,
      "hit": false,
      "t": 207991.6666666657,
      "d": 270.83333333331393,
      "v": 66
    },
    {
      "midi": 57,
      "hit": false,
      "t": 208004.1666666657,
      "d": 245.83333333334303,
      "v": 58
    },
    {
      "midi": 67,
      "hit": false,
      "t": 208191.6666666657,
      "d": 166.66666666665697,
      "v": 74
    },
    {
      "midi": 66,
      "hit": false,
      "t": 208358.33333333235,
      "d": 150.0000000000291,
      "v": 83
    },
    {
      "midi": 67,
      "hit": false,
      "t": 208570.83333333238,
      "d": 270.83333333331393,
      "v": 72
    },
    {
      "midi": 47,
      "hit": false,
      "t": 208583.33333333238,
      "d": 624.9999999998836,
      "v": 61
    },
    {
      "midi": 62,
      "hit": false,
      "t": 208587.49999999904,
      "d": 233.33333333334303,
      "v": 45
    },
    {
      "midi": 50,
      "hit": false,
      "t": 208758.33333333238,
      "d": 99.9999999999709,
      "v": 48
    },
    {
      "midi": 55,
      "hit": false,
      "t": 208770.83333333238,
      "d": 50,
      "v": 52
    },
    {
      "midi": 59,
      "hit": false,
      "t": 208770.83333333238,
      "d": 54.166666666656965,
      "v": 54
    },
    {
      "midi": 50,
      "hit": false,
      "t": 208945.83333333235,
      "d": 95.83333333328483,
      "v": 48
    },
    {
      "midi": 67,
      "hit": false,
      "t": 208958.33333333235,
      "d": 91.66666666662786,
      "v": 67
    },
    {
      "midi": 59,
      "hit": false,
      "t": 208962.499999999,
      "d": 41.666666666656965,
      "v": 49
    },
    {
      "midi": 62,
      "hit": false,
      "t": 208962.499999999,
      "d": 70.83333333328483,
      "v": 51
    },
    {
      "midi": 55,
      "hit": false,
      "t": 208966.66666666567,
      "d": 58.33333333331393,
      "v": 45
    },
    {
      "midi": 59,
      "hit": false,
      "t": 209170.8333333323,
      "d": 83.33333333331393,
      "v": 63
    },
    {
      "midi": 67,
      "hit": false,
      "t": 209170.8333333323,
      "d": 124.9999999999709,
      "v": 72
    },
    {
      "midi": 62,
      "hit": false,
      "t": 209174.99999999895,
      "d": 83.33333333331393,
      "v": 57
    },
    {
      "midi": 50,
      "hit": false,
      "t": 209174.99999999895,
      "d": 87.4999999999709,
      "v": 55
    },
    {
      "midi": 55,
      "hit": false,
      "t": 209179.1666666656,
      "d": 75,
      "v": 55
    },
    {
      "midi": 69,
      "hit": false,
      "t": 209341.6666666656,
      "d": 124.99999999994179,
      "v": 85
    },
    {
      "midi": 62,
      "hit": false,
      "t": 209354.1666666656,
      "d": 54.16666666662786,
      "v": 61
    },
    {
      "midi": 50,
      "hit": false,
      "t": 209358.33333333227,
      "d": 62.499999999970896,
      "v": 70
    },
    {
      "midi": 55,
      "hit": false,
      "t": 209358.33333333227,
      "d": 66.66666666662786,
      "v": 64
    },
    {
      "midi": 59,
      "hit": false,
      "t": 209362.49999999892,
      "d": 58.33333333331393,
      "v": 62
    },
    {
      "midi": 71,
      "hit": false,
      "t": 209520.83333333224,
      "d": 62.500000000029104,
      "v": 89
    },
    {
      "midi": 62,
      "hit": false,
      "t": 209529.16666666558,
      "d": 20.833333333343035,
      "v": 79
    },
    {
      "midi": 55,
      "hit": false,
      "t": 209529.16666666558,
      "d": 25,
      "v": 66
    },
    {
      "midi": 59,
      "hit": false,
      "t": 209529.16666666558,
      "d": 25,
      "v": 70
    },
    {
      "midi": 50,
      "hit": false,
      "t": 209541.66666666558,
      "d": 41.66666666668607,
      "v": 73
    },
    {
      "midi": 42,
      "hit": false,
      "t": 209716.6666666656,
      "d": 45.833333333343035,
      "v": 80
    },
    {
      "midi": 74,
      "hit": false,
      "t": 209741.6666666656,
      "d": 220.83333333337214,
      "v": 101
    },
    {
      "midi": 62,
      "hit": false,
      "t": 209749.99999999895,
      "d": 737.4999999999709,
      "v": 75
    },
    {
      "midi": 72,
      "hit": false,
      "t": 209924.99999999898,
      "d": 191.66666666665697,
      "v": 80
    },
    {
      "midi": 57,
      "hit": false,
      "t": 209929.16666666564,
      "d": 37.5,
      "v": 63
    },
    {
      "midi": 60,
      "hit": false,
      "t": 209929.16666666564,
      "d": 50,
      "v": 66
    },
    {
      "midi": 50,
      "hit": false,
      "t": 209937.49999999898,
      "d": 25,
      "v": 59
    },
    {
      "midi": 69,
      "hit": false,
      "t": 210104.16666666564,
      "d": 383.3333333332848,
      "v": 85
    },
    {
      "midi": 57,
      "hit": false,
      "t": 210112.49999999898,
      "d": 62.499999999970896,
      "v": 71
    },
    {
      "midi": 50,
      "hit": false,
      "t": 210116.66666666564,
      "d": 50,
      "v": 73
    },
    {
      "midi": 60,
      "hit": false,
      "t": 210116.66666666564,
      "d": 58.33333333331393,
      "v": 66
    },
    {
      "midi": 50,
      "hit": false,
      "t": 210291.6666666656,
      "d": 83.33333333334303,
      "v": 68
    },
    {
      "midi": 60,
      "hit": false,
      "t": 210291.6666666656,
      "d": 83.33333333334303,
      "v": 61
    },
    {
      "midi": 57,
      "hit": false,
      "t": 210291.6666666656,
      "d": 91.66666666668607,
      "v": 71
    },
    {
      "midi": 71,
      "hit": false,
      "t": 210462.49999999895,
      "d": 170.83333333328483,
      "v": 89
    },
    {
      "midi": 57,
      "hit": false,
      "t": 210479.1666666656,
      "d": 41.66666666662786,
      "v": 75
    },
    {
      "midi": 50,
      "hit": false,
      "t": 210483.33333333227,
      "d": 20.83333333331393,
      "v": 67
    },
    {
      "midi": 60,
      "hit": false,
      "t": 210487.49999999892,
      "d": 54.166666666656965,
      "v": 62
    },
    {
      "midi": 72,
      "hit": false,
      "t": 210637.4999999989,
      "d": 154.16666666671517,
      "v": 90
    },
    {
      "midi": 50,
      "hit": false,
      "t": 210645.83333333224,
      "d": 41.66666666668607,
      "v": 70
    },
    {
      "midi": 57,
      "hit": false,
      "t": 210654.16666666558,
      "d": 41.66666666668607,
      "v": 72
    },
    {
      "midi": 60,
      "hit": false,
      "t": 210654.16666666558,
      "d": 54.16666666668607,
      "v": 64
    },
    {
      "midi": 74,
      "hit": false,
      "t": 210837.49999999895,
      "d": 358.3333333332848,
      "v": 90
    },
    {
      "midi": 71,
      "hit": false,
      "t": 210854.1666666656,
      "d": 324.9999999999709,
      "v": 85
    },
    {
      "midi": 59,
      "hit": false,
      "t": 211029.1666666656,
      "d": 54.166666666656965,
      "v": 54
    },
    {
      "midi": 62,
      "hit": false,
      "t": 211029.1666666656,
      "d": 54.166666666656965,
      "v": 52
    },
    {
      "midi": 59,
      "hit": false,
      "t": 211208.33333333224,
      "d": 20.833333333343035,
      "v": 68
    },
    {
      "midi": 62,
      "hit": false,
      "t": 211216.66666666558,
      "d": 20.833333333343035,
      "v": 53
    },
    {
      "midi": 57,
      "hit": false,
      "t": 211404.16666666558,
      "d": 483.33333333337214,
      "v": 96
    },
    {
      "midi": 77,
      "hit": false,
      "t": 211429.16666666558,
      "d": 495.83333333337214,
      "v": 103
    },
    {
      "midi": 62,
      "hit": false,
      "t": 211666.66666666558,
      "d": 62.500000000029104,
      "v": 44
    },
    {
      "midi": 59,
      "hit": false,
      "t": 211674.99999999892,
      "d": 25,
      "v": 36
    },
    {
      "midi": 71,
      "hit": false,
      "t": 211674.99999999892,
      "d": 62.500000000029104,
      "v": 44
    },
    {
      "midi": 74,
      "hit": false,
      "t": 211845.8333333323,
      "d": 154.16666666665697,
      "v": 73
    },
    {
      "midi": 71,
      "hit": false,
      "t": 211858.3333333323,
      "d": 25,
      "v": 55
    },
    {
      "midi": 62,
      "hit": false,
      "t": 211858.3333333323,
      "d": 91.66666666665697,
      "v": 52
    },
    {
      "midi": 59,
      "hit": false,
      "t": 211874.99999999895,
      "d": 8.333333333343035,
      "v": 42
    },
    {
      "midi": 76,
      "hit": false,
      "t": 212033.3333333323,
      "d": 204.16666666665697,
      "v": 80
    },
    {
      "midi": 56,
      "hit": false,
      "t": 212033.3333333323,
      "d": 404.16666666665697,
      "v": 88
    },
    {
      "midi": 74,
      "hit": false,
      "t": 212229.16666666564,
      "d": 62.5,
      "v": 72
    },
    {
      "midi": 62,
      "hit": false,
      "t": 212233.3333333323,
      "d": 50,
      "v": 46
    },
    {
      "midi": 59,
      "hit": false,
      "t": 212237.49999999895,
      "d": 25,
      "v": 50
    },
    {
      "midi": 71,
      "hit": false,
      "t": 212241.6666666656,
      "d": 54.16666666668607,
      "v": 39
    },
    {
      "midi": 59,
      "hit": false,
      "t": 212416.66666666564,
      "d": 20.83333333331393,
      "v": 50
    },
    {
      "midi": 74,
      "hit": false,
      "t": 212416.66666666564,
      "d": 20.83333333331393,
      "v": 75
    },
    {
      "midi": 62,
      "hit": false,
      "t": 212420.8333333323,
      "d": 58.333333333343035,
      "v": 39
    },
    {
      "midi": 71,
      "hit": false,
      "t": 212437.49999999895,
      "d": 8.333333333343035,
      "v": 48
    },
    {
      "midi": 52,
      "hit": false,
      "t": 212595.8333333323,
      "d": 416.66666666668607,
      "v": 79
    },
    {
      "midi": 71,
      "hit": false,
      "t": 212612.49999999898,
      "d": 191.66666666665697,
      "v": 93
    },
    {
      "midi": 64,
      "hit": false,
      "t": 212791.66666666564,
      "d": 29.166666666656965,
      "v": 52
    },
    {
      "midi": 68,
      "hit": false,
      "t": 212791.66666666564,
      "d": 29.166666666656965,
      "v": 67
    },
    {
      "midi": 59,
      "hit": false,
      "t": 212799.99999999898,
      "d": 16.666666666656965,
      "v": 58
    },
    {
      "midi": 68,
      "hit": false,
      "t": 212979.16666666564,
      "d": 50.000000000029104,
      "v": 81
    },
    {
      "midi": 59,
      "hit": false,
      "t": 212983.3333333323,
      "d": 8.333333333343035,
      "v": 62
    },
    {
      "midi": 62,
      "hit": false,
      "t": 212983.3333333323,
      "d": 16.66666666668607,
      "v": 46
    },
    {
      "midi": 45,
      "hit": false,
      "t": 213166.66666666567,
      "d": 41.666666666656965,
      "v": 77
    },
    {
      "midi": 72,
      "hit": false,
      "t": 213170.83333333232,
      "d": 187.5,
      "v": 94
    },
    {
      "midi": 69,
      "hit": false,
      "t": 213362.49999999898,
      "d": 75,
      "v": 80
    },
    {
      "midi": 60,
      "hit": false,
      "t": 213366.66666666564,
      "d": 58.333333333343035,
      "v": 66
    },
    {
      "midi": 57,
      "hit": false,
      "t": 213366.66666666564,
      "d": 70.83333333334303,
      "v": 66
    },
    {
      "midi": 64,
      "hit": false,
      "t": 213374.99999999898,
      "d": 45.833333333343035,
      "v": 73
    },
    {
      "midi": 57,
      "hit": false,
      "t": 213541.66666666567,
      "d": 20.833333333343035,
      "v": 75
    },
    {
      "midi": 69,
      "hit": false,
      "t": 213541.66666666567,
      "d": 45.833333333343035,
      "v": 84
    },
    {
      "midi": 64,
      "hit": false,
      "t": 213554.16666666567,
      "d": 16.66666666668607,
      "v": 66
    },
    {
      "midi": 43,
      "hit": false,
      "t": 213716.6666666657,
      "d": 45.83333333331393,
      "v": 88
    },
    {
      "midi": 76,
      "hit": false,
      "t": 213741.6666666657,
      "d": 341.66666666659876,
      "v": 103
    },
    {
      "midi": 55,
      "hit": false,
      "t": 213924.999999999,
      "d": 20.83333333331393,
      "v": 73
    },
    {
      "midi": 60,
      "hit": false,
      "t": 213937.499999999,
      "d": 24.999999999970896,
      "v": 58
    },
    {
      "midi": 57,
      "hit": false,
      "t": 213941.66666666567,
      "d": 16.666666666656965,
      "v": 66
    },
    {
      "midi": 72,
      "hit": false,
      "t": 213945.83333333232,
      "d": 58.33333333331393,
      "v": 74
    },
    {
      "midi": 69,
      "hit": false,
      "t": 213945.83333333232,
      "d": 62.499999999970896,
      "v": 53
    },
    {
      "midi": 55,
      "hit": false,
      "t": 214104.16666666564,
      "d": 29.166666666656965,
      "v": 70
    },
    {
      "midi": 60,
      "hit": false,
      "t": 214108.3333333323,
      "d": 25,
      "v": 63
    },
    {
      "midi": 57,
      "hit": false,
      "t": 214112.49999999895,
      "d": 20.833333333343035,
      "v": 59
    },
    {
      "midi": 69,
      "hit": false,
      "t": 214112.49999999895,
      "d": 58.333333333343035,
      "v": 73
    },
    {
      "midi": 72,
      "hit": false,
      "t": 214112.49999999895,
      "d": 62.5,
      "v": 80
    },
    {
      "midi": 42,
      "hit": false,
      "t": 214274.99999999895,
      "d": 37.5,
      "v": 86
    },
    {
      "midi": 75,
      "hit": false,
      "t": 214291.6666666656,
      "d": 170.83333333331393,
      "v": 106
    },
    {
      "midi": 54,
      "hit": false,
      "t": 214483.33333333227,
      "d": 45.83333333331393,
      "v": 51
    },
    {
      "midi": 72,
      "hit": false,
      "t": 214483.33333333227,
      "d": 45.83333333331393,
      "v": 84
    },
    {
      "midi": 69,
      "hit": false,
      "t": 214487.49999999892,
      "d": 54.166666666656965,
      "v": 73
    },
    {
      "midi": 57,
      "hit": false,
      "t": 214491.66666666558,
      "d": 16.666666666656965,
      "v": 53
    },
    {
      "midi": 54,
      "hit": false,
      "t": 214649.99999999892,
      "d": 20.83333333331393,
      "v": 61
    },
    {
      "midi": 57,
      "hit": false,
      "t": 214649.99999999892,
      "d": 20.83333333331393,
      "v": 68
    },
    {
      "midi": 69,
      "hit": false,
      "t": 214654.16666666558,
      "d": 41.666666666656965,
      "v": 79
    },
    {
      "midi": 72,
      "hit": false,
      "t": 214654.16666666558,
      "d": 100,
      "v": 80
    },
    {
      "midi": 60,
      "hit": false,
      "t": 214658.33333333224,
      "d": 16.666666666656965,
      "v": 44
    },
    {
      "midi": 40,
      "hit": false,
      "t": 214824.9999999989,
      "d": 37.5,
      "v": 81
    },
    {
      "midi": 81,
      "hit": false,
      "t": 214837.4999999989,
      "d": 375,
      "v": 111
    },
    {
      "midi": 52,
      "hit": false,
      "t": 215029.16666666558,
      "d": 58.333333333343035,
      "v": 70
    },
    {
      "midi": 57,
      "hit": false,
      "t": 215033.33333333224,
      "d": 54.16666666668607,
      "v": 50
    },
    {
      "midi": 60,
      "hit": false,
      "t": 215041.66666666558,
      "d": 50,
      "v": 48
    },
    {
      "midi": 72,
      "hit": false,
      "t": 215041.66666666558,
      "d": 54.166666666656965,
      "v": 80
    },
    {
      "midi": 69,
      "hit": false,
      "t": 215049.99999999892,
      "d": 20.833333333343035,
      "v": 66
    },
    {
      "midi": 72,
      "hit": false,
      "t": 215216.66666666555,
      "d": 54.166666666656965,
      "v": 84
    },
    {
      "midi": 52,
      "hit": false,
      "t": 215220.8333333322,
      "d": 20.833333333343035,
      "v": 68
    },
    {
      "midi": 60,
      "hit": false,
      "t": 215229.16666666555,
      "d": 12.5,
      "v": 72
    },
    {
      "midi": 57,
      "hit": false,
      "t": 215233.3333333322,
      "d": 20.833333333343035,
      "v": 62
    },
    {
      "midi": 69,
      "hit": false,
      "t": 215233.3333333322,
      "d": 37.5,
      "v": 68
    },
    {
      "midi": 71,
      "hit": false,
      "t": 215445.8333333322,
      "d": 129.16666666662786,
      "v": 103
    },
    {
      "midi": 59,
      "hit": false,
      "t": 215458.3333333322,
      "d": 91.66666666662786,
      "v": 88
    },
    {
      "midi": 51,
      "hit": false,
      "t": 215458.3333333322,
      "d": 104.16666666662786,
      "v": 95
    },
    {
      "midi": 69,
      "hit": false,
      "t": 215458.3333333322,
      "d": 108.33333333328483,
      "v": 103
    },
    {
      "midi": 57,
      "hit": false,
      "t": 215462.49999999886,
      "d": 87.4999999999709,
      "v": 88
    },
    {
      "midi": 54,
      "hit": false,
      "t": 215462.49999999886,
      "d": 104.16666666662786,
      "v": 89
    },
    {
      "midi": 51,
      "hit": false,
      "t": 215616.6666666655,
      "d": 41.666666666656965,
      "v": 73
    },
    {
      "midi": 59,
      "hit": false,
      "t": 215629.1666666655,
      "d": 45.83333333331393,
      "v": 76
    },
    {
      "midi": 57,
      "hit": false,
      "t": 215633.33333333215,
      "d": 41.666666666656965,
      "v": 80
    },
    {
      "midi": 54,
      "hit": false,
      "t": 215633.33333333215,
      "d": 45.83333333331393,
      "v": 79
    },
    {
      "midi": 59,
      "hit": false,
      "t": 215812.49999999878,
      "d": 41.666666666656965,
      "v": 64
    },
    {
      "midi": 51,
      "hit": false,
      "t": 215816.66666666543,
      "d": 45.833333333343035,
      "v": 68
    },
    {
      "midi": 54,
      "hit": false,
      "t": 215816.66666666543,
      "d": 45.833333333343035,
      "v": 66
    },
    {
      "midi": 73,
      "hit": false,
      "t": 215816.66666666543,
      "d": 45.833333333343035,
      "v": 83
    },
    {
      "midi": 69,
      "hit": false,
      "t": 215824.99999999878,
      "d": 41.666666666656965,
      "v": 63
    },
    {
      "midi": 57,
      "hit": false,
      "t": 215824.99999999878,
      "d": 50,
      "v": 63
    },
    {
      "midi": 75,
      "hit": false,
      "t": 216004.16666666543,
      "d": 41.66666666668607,
      "v": 81
    },
    {
      "midi": 59,
      "hit": false,
      "t": 216012.49999999878,
      "d": 41.66666666668607,
      "v": 57
    },
    {
      "midi": 51,
      "hit": false,
      "t": 216012.49999999878,
      "d": 50.000000000029104,
      "v": 46
    },
    {
      "midi": 57,
      "hit": false,
      "t": 216012.49999999878,
      "d": 50.000000000029104,
      "v": 59
    },
    {
      "midi": 69,
      "hit": false,
      "t": 216020.83333333212,
      "d": 33.333333333343035,
      "v": 59
    },
    {
      "midi": 54,
      "hit": false,
      "t": 216029.16666666546,
      "d": 41.66666666668607,
      "v": 48
    },
    {
      "midi": 76,
      "hit": false,
      "t": 216187.4999999988,
      "d": 33.33333333331393,
      "v": 75
    },
    {
      "midi": 59,
      "hit": false,
      "t": 216187.4999999988,
      "d": 41.666666666656965,
      "v": 62
    },
    {
      "midi": 51,
      "hit": false,
      "t": 216191.66666666546,
      "d": 41.666666666656965,
      "v": 57
    },
    {
      "midi": 57,
      "hit": false,
      "t": 216195.83333333212,
      "d": 41.666666666656965,
      "v": 55
    },
    {
      "midi": 69,
      "hit": false,
      "t": 216195.83333333212,
      "d": 45.83333333331393,
      "v": 50
    },
    {
      "midi": 54,
      "hit": false,
      "t": 216199.99999999878,
      "d": 50,
      "v": 45
    },
    {
      "midi": 51,
      "hit": false,
      "t": 216379.16666666543,
      "d": 45.833333333343035,
      "v": 66
    },
    {
      "midi": 59,
      "hit": false,
      "t": 216379.16666666543,
      "d": 45.833333333343035,
      "v": 68
    },
    {
      "midi": 78,
      "hit": false,
      "t": 216379.16666666543,
      "d": 45.833333333343035,
      "v": 94
    },
    {
      "midi": 54,
      "hit": false,
      "t": 216387.49999999878,
      "d": 41.666666666656965,
      "v": 61
    },
    {
      "midi": 69,
      "hit": false,
      "t": 216387.49999999878,
      "d": 41.666666666656965,
      "v": 68
    },
    {
      "midi": 57,
      "hit": false,
      "t": 216387.49999999878,
      "d": 50,
      "v": 67
    },
    {
      "midi": 81,
      "hit": false,
      "t": 216587.49999999878,
      "d": 125,
      "v": 96
    },
    {
      "midi": 55,
      "hit": false,
      "t": 216587.49999999878,
      "d": 129.16666666665697,
      "v": 92
    },
    {
      "midi": 59,
      "hit": false,
      "t": 216587.49999999878,
      "d": 129.16666666665697,
      "v": 90
    },
    {
      "midi": 52,
      "hit": false,
      "t": 216591.66666666543,
      "d": 125,
      "v": 89
    },
    {
      "midi": 69,
      "hit": false,
      "t": 216591.66666666543,
      "d": 125,
      "v": 89
    },
    {
      "midi": 79,
      "hit": false,
      "t": 216774.99999999878,
      "d": 45.833333333343035,
      "v": 75
    },
    {
      "midi": 59,
      "hit": false,
      "t": 216783.33333333212,
      "d": 41.666666666656965,
      "v": 57
    },
    {
      "midi": 55,
      "hit": false,
      "t": 216791.66666666546,
      "d": 49.999999999970896,
      "v": 64
    },
    {
      "midi": 67,
      "hit": false,
      "t": 216795.83333333212,
      "d": 29.166666666656965,
      "v": 57
    },
    {
      "midi": 52,
      "hit": false,
      "t": 216795.83333333212,
      "d": 45.83333333331393,
      "v": 62
    },
    {
      "midi": 75,
      "hit": false,
      "t": 216962.49999999878,
      "d": 45.833333333343035,
      "v": 84
    },
    {
      "midi": 52,
      "hit": false,
      "t": 216970.83333333212,
      "d": 50,
      "v": 80
    },
    {
      "midi": 55,
      "hit": false,
      "t": 216970.83333333212,
      "d": 50,
      "v": 53
    },
    {
      "midi": 59,
      "hit": false,
      "t": 216970.83333333212,
      "d": 50,
      "v": 50
    },
    {
      "midi": 78,
      "hit": false,
      "t": 217149.99999999878,
      "d": 125,
      "v": 97
    },
    {
      "midi": 48,
      "hit": false,
      "t": 217154.16666666543,
      "d": 125,
      "v": 85
    },
    {
      "midi": 55,
      "hit": false,
      "t": 217158.3333333321,
      "d": 125,
      "v": 77
    },
    {
      "midi": 57,
      "hit": false,
      "t": 217158.3333333321,
      "d": 133.33333333334303,
      "v": 84
    },
    {
      "midi": 52,
      "hit": false,
      "t": 217166.66666666543,
      "d": 129.16666666665697,
      "v": 67
    },
    {
      "midi": 76,
      "hit": false,
      "t": 217333.3333333321,
      "d": 70.83333333331393,
      "v": 75
    },
    {
      "midi": 57,
      "hit": false,
      "t": 217337.49999999875,
      "d": 45.833333333343035,
      "v": 70
    },
    {
      "midi": 48,
      "hit": false,
      "t": 217345.8333333321,
      "d": 41.666666666656965,
      "v": 59
    },
    {
      "midi": 52,
      "hit": false,
      "t": 217354.16666666543,
      "d": 41.666666666656965,
      "v": 58
    },
    {
      "midi": 55,
      "hit": false,
      "t": 217358.3333333321,
      "d": 41.666666666656965,
      "v": 57
    },
    {
      "midi": 48,
      "hit": false,
      "t": 217512.49999999875,
      "d": 50,
      "v": 63
    },
    {
      "midi": 57,
      "hit": false,
      "t": 217512.49999999875,
      "d": 54.166666666656965,
      "v": 72
    },
    {
      "midi": 69,
      "hit": false,
      "t": 217512.49999999875,
      "d": 83.33333333334303,
      "v": 57
    },
    {
      "midi": 52,
      "hit": false,
      "t": 217533.3333333321,
      "d": 41.666666666656965,
      "v": 57
    },
    {
      "midi": 55,
      "hit": false,
      "t": 217533.3333333321,
      "d": 50,
      "v": 57
    },
    {
      "midi": 76,
      "hit": false,
      "t": 217712.49999999875,
      "d": 125.0000000000291,
      "v": 89
    },
    {
      "midi": 59,
      "hit": false,
      "t": 217720.8333333321,
      "d": 120.83333333334303,
      "v": 77
    },
    {
      "midi": 50,
      "hit": false,
      "t": 217720.8333333321,
      "d": 125,
      "v": 71
    },
    {
      "midi": 55,
      "hit": false,
      "t": 217729.16666666543,
      "d": 125,
      "v": 79
    },
    {
      "midi": 67,
      "hit": false,
      "t": 217729.16666666543,
      "d": 125,
      "v": 84
    },
    {
      "midi": 50,
      "hit": false,
      "t": 217908.3333333321,
      "d": 41.666666666656965,
      "v": 64
    },
    {
      "midi": 55,
      "hit": false,
      "t": 217908.3333333321,
      "d": 41.666666666656965,
      "v": 68
    },
    {
      "midi": 59,
      "hit": false,
      "t": 217908.3333333321,
      "d": 50,
      "v": 40
    },
    {
      "midi": 74,
      "hit": false,
      "t": 217908.3333333321,
      "d": 54.166666666656965,
      "v": 80
    },
    {
      "midi": 59,
      "hit": false,
      "t": 218074.99999999875,
      "d": 50,
      "v": 68
    },
    {
      "midi": 55,
      "hit": false,
      "t": 218083.3333333321,
      "d": 45.83333333331393,
      "v": 52
    },
    {
      "midi": 50,
      "hit": false,
      "t": 218087.49999999875,
      "d": 45.83333333331393,
      "v": 58
    },
    {
      "midi": 67,
      "hit": false,
      "t": 218087.49999999875,
      "d": 99.9999999999709,
      "v": 70
    },
    {
      "midi": 71,
      "hit": false,
      "t": 218274.99999999872,
      "d": 125.0000000000291,
      "v": 92
    },
    {
      "midi": 54,
      "hit": false,
      "t": 218283.33333333206,
      "d": 125.0000000000291,
      "v": 85
    },
    {
      "midi": 57,
      "hit": false,
      "t": 218283.33333333206,
      "d": 125.0000000000291,
      "v": 83
    },
    {
      "midi": 50,
      "hit": false,
      "t": 218291.6666666654,
      "d": 125.0000000000291,
      "v": 73
    },
    {
      "midi": 48,
      "hit": false,
      "t": 218291.6666666654,
      "d": 129.16666666668607,
      "v": 68
    },
    {
      "midi": 69,
      "hit": false,
      "t": 218466.66666666543,
      "d": 41.666666666656965,
      "v": 80
    },
    {
      "midi": 54,
      "hit": false,
      "t": 218470.8333333321,
      "d": 50,
      "v": 73
    },
    {
      "midi": 50,
      "hit": false,
      "t": 218483.3333333321,
      "d": 41.666666666656965,
      "v": 59
    },
    {
      "midi": 57,
      "hit": false,
      "t": 218483.3333333321,
      "d": 41.666666666656965,
      "v": 66
    },
    {
      "midi": 54,
      "hit": false,
      "t": 218658.3333333321,
      "d": 50,
      "v": 72
    },
    {
      "midi": 62,
      "hit": false,
      "t": 218666.66666666543,
      "d": 45.83333333331393,
      "v": 84
    },
    {
      "midi": 57,
      "hit": false,
      "t": 218666.66666666543,
      "d": 49.999999999970896,
      "v": 79
    },
    {
      "midi": 50,
      "hit": false,
      "t": 218670.8333333321,
      "d": 45.83333333331393,
      "v": 66
    },
    {
      "midi": 55,
      "hit": false,
      "t": 218920.83333333206,
      "d": 2091.666666666715,
      "v": 34
    },
    {
      "midi": 50,
      "hit": false,
      "t": 218924.99999999872,
      "d": 975.0000000000291,
      "v": 37
    },
    {
      "midi": 47,
      "hit": false,
      "t": 218929.16666666538,
      "d": 912.5000000000291,
      "v": 32
    },
    {
      "midi": 62,
      "hit": false,
      "t": 218937.49999999872,
      "d": 66.66666666665697,
      "v": 71
    },
    {
      "midi": 67,
      "hit": false,
      "t": 219041.66666666538,
      "d": 54.166666666656965,
      "v": 43
    },
    {
      "midi": 71,
      "hit": false,
      "t": 219129.16666666538,
      "d": 20.833333333343035,
      "v": 43
    },
    {
      "midi": 74,
      "hit": false,
      "t": 219212.49999999872,
      "d": 58.333333333343035,
      "v": 50
    },
    {
      "midi": 79,
      "hit": false,
      "t": 219320.83333333206,
      "d": 75,
      "v": 43
    },
    {
      "midi": 83,
      "hit": false,
      "t": 219404.1666666654,
      "d": 79.16666666665697,
      "v": 50
    },
    {
      "midi": 86,
      "hit": false,
      "t": 219491.6666666654,
      "d": 112.5,
      "v": 58
    },
    {
      "midi": 83,
      "hit": false,
      "t": 219595.83333333206,
      "d": 91.66666666665697,
      "v": 49
    },
    {
      "midi": 62,
      "hit": false,
      "t": 219645.83333333206,
      "d": 45.83333333331393,
      "v": 72
    },
    {
      "midi": 79,
      "hit": false,
      "t": 219691.66666666538,
      "d": 62.5,
      "v": 50
    },
    {
      "midi": 74,
      "hit": false,
      "t": 219774.99999999872,
      "d": 58.333333333343035,
      "v": 45
    },
    {
      "midi": 62,
      "hit": false,
      "t": 219854.1666666654,
      "d": 75,
      "v": 76
    },
    {
      "midi": 71,
      "hit": false,
      "t": 219874.99999999875,
      "d": 87.5,
      "v": 56
    },
    {
      "midi": 47,
      "hit": false,
      "t": 219966.6666666654,
      "d": 1083.3333333333721,
      "v": 50
    },
    {
      "midi": 67,
      "hit": false,
      "t": 219970.83333333206,
      "d": 20.833333333343035,
      "v": 41
    },
    {
      "midi": 50,
      "hit": false,
      "t": 219983.33333333206,
      "d": 1062.5000000000582,
      "v": 8
    },
    {
      "midi": 62,
      "hit": false,
      "t": 220066.66666666538,
      "d": 341.66666666668607,
      "v": 80
    },
    {
      "midi": 67,
      "hit": false,
      "t": 220174.99999999872,
      "d": 83.33333333334303,
      "v": 39
    },
    {
      "midi": 71,
      "hit": false,
      "t": 220262.49999999872,
      "d": 29.166666666656965,
      "v": 36
    },
    {
      "midi": 74,
      "hit": false,
      "t": 220362.49999999872,
      "d": 75,
      "v": 43
    },
    {
      "midi": 79,
      "hit": false,
      "t": 220458.33333333206,
      "d": 83.33333333334303,
      "v": 34
    },
    {
      "midi": 83,
      "hit": false,
      "t": 220541.6666666654,
      "d": 83.33333333334303,
      "v": 43
    },
    {
      "midi": 86,
      "hit": false,
      "t": 220637.49999999875,
      "d": 104.16666666668607,
      "v": 48
    },
    {
      "midi": 83,
      "hit": false,
      "t": 220720.8333333321,
      "d": 120.83333333334303,
      "v": 51
    },
    {
      "midi": 79,
      "hit": false,
      "t": 220816.66666666543,
      "d": 70.83333333334303,
      "v": 51
    },
    {
      "midi": 60,
      "hit": false,
      "t": 220820.8333333321,
      "d": 83.33333333334303,
      "v": 81
    },
    {
      "midi": 74,
      "hit": false,
      "t": 220904.16666666543,
      "d": 58.333333333343035,
      "v": 48
    },
    {
      "midi": 59,
      "hit": false,
      "t": 221008.33333333212,
      "d": 66.66666666665697,
      "v": 77
    },
    {
      "midi": 71,
      "hit": false,
      "t": 221012.49999999878,
      "d": 125,
      "v": 44
    },
    {
      "midi": 67,
      "hit": false,
      "t": 221104.16666666543,
      "d": 45.833333333343035,
      "v": 51
    },
    {
      "midi": 59,
      "hit": false,
      "t": 221216.66666666543,
      "d": 274.9999999999709,
      "v": 90
    },
    {
      "midi": 50,
      "hit": false,
      "t": 221229.16666666543,
      "d": 987.4999999999709,
      "v": 48
    },
    {
      "midi": 48,
      "hit": false,
      "t": 221229.16666666543,
      "d": 1029.166666666657,
      "v": 42
    },
    {
      "midi": 54,
      "hit": false,
      "t": 221233.3333333321,
      "d": 816.6666666666279,
      "v": 47
    },
    {
      "midi": 62,
      "hit": false,
      "t": 221262.49999999875,
      "d": 79.16666666665697,
      "v": 46
    },
    {
      "midi": 66,
      "hit": false,
      "t": 221341.6666666654,
      "d": 83.33333333334303,
      "v": 44
    },
    {
      "midi": 69,
      "hit": false,
      "t": 221445.8333333321,
      "d": 16.666666666656965,
      "v": 49
    },
    {
      "midi": 74,
      "hit": false,
      "t": 221545.83333333206,
      "d": 120.83333333334303,
      "v": 53
    },
    {
      "midi": 78,
      "hit": false,
      "t": 221645.83333333206,
      "d": 125.0000000000291,
      "v": 47
    },
    {
      "midi": 57,
      "hit": false,
      "t": 221645.83333333206,
      "d": 200,
      "v": 83
    },
    {
      "midi": 81,
      "hit": false,
      "t": 221741.6666666654,
      "d": 91.66666666665697,
      "v": 52
    },
    {
      "midi": 86,
      "hit": false,
      "t": 221854.1666666654,
      "d": 116.66666666665697,
      "v": 49
    },
    {
      "midi": 81,
      "hit": false,
      "t": 221941.6666666654,
      "d": 99.9999999999709,
      "v": 49
    },
    {
      "midi": 78,
      "hit": false,
      "t": 222024.99999999872,
      "d": 79.16666666665697,
      "v": 50
    },
    {
      "midi": 55,
      "hit": false,
      "t": 222029.16666666538,
      "d": 200.0000000000291,
      "v": 78
    },
    {
      "midi": 74,
      "hit": false,
      "t": 222124.99999999872,
      "d": 45.833333333343035,
      "v": 44
    },
    {
      "midi": 54,
      "hit": false,
      "t": 222220.83333333206,
      "d": 75.0000000000291,
      "v": 78
    },
    {
      "midi": 69,
      "hit": false,
      "t": 222237.49999999875,
      "d": 62.5,
      "v": 52
    },
    {
      "midi": 66,
      "hit": false,
      "t": 222316.6666666654,
      "d": 66.66666666665697,
      "v": 55
    },
    {
      "midi": 55,
      "hit": false,
      "t": 222445.83333333206,
      "d": 200.0000000000291,
      "v": 84
    },
    {
      "midi": 47,
      "hit": false,
      "t": 222445.83333333206,
      "d": 437.5000000000582,
      "v": 59
    },
    {
      "midi": 50,
      "hit": false,
      "t": 222449.99999999872,
      "d": 425.0000000000582,
      "v": 64
    },
    {
      "midi": 62,
      "hit": false,
      "t": 222470.83333333206,
      "d": 70.83333333334303,
      "v": 60
    },
    {
      "midi": 67,
      "hit": false,
      "t": 222574.99999999875,
      "d": 70.83333333334303,
      "v": 53
    },
    {
      "midi": 71,
      "hit": false,
      "t": 222658.3333333321,
      "d": 20.833333333343035,
      "v": 56
    },
    {
      "midi": 74,
      "hit": false,
      "t": 222758.3333333321,
      "d": 83.33333333334303,
      "v": 42
    },
    {
      "midi": 79,
      "hit": false,
      "t": 222854.16666666543,
      "d": 91.66666666668607,
      "v": 61
    },
    {
      "midi": 55,
      "hit": false,
      "t": 222866.66666666543,
      "d": 133.33333333334303,
      "v": 84
    },
    {
      "midi": 83,
      "hit": false,
      "t": 222958.33333333212,
      "d": 91.66666666665697,
      "v": 65
    },
    {
      "midi": 57,
      "hit": false,
      "t": 223062.49999999878,
      "d": 366.66666666668607,
      "v": 85
    },
    {
      "midi": 86,
      "hit": false,
      "t": 223066.66666666543,
      "d": 108.33333333334303,
      "v": 65
    },
    {
      "midi": 83,
      "hit": false,
      "t": 223166.66666666543,
      "d": 112.5000000000291,
      "v": 64
    },
    {
      "midi": 79,
      "hit": false,
      "t": 223258.33333333212,
      "d": 66.66666666668607,
      "v": 59
    },
    {
      "midi": 74,
      "hit": false,
      "t": 223345.83333333215,
      "d": 54.166666666656965,
      "v": 54
    },
    {
      "midi": 59,
      "hit": false,
      "t": 223437.4999999988,
      "d": 70.83333333334303,
      "v": 84
    },
    {
      "midi": 71,
      "hit": false,
      "t": 223445.83333333215,
      "d": 104.16666666665697,
      "v": 68
    },
    {
      "midi": 67,
      "hit": false,
      "t": 223533.33333333215,
      "d": 37.5,
      "v": 68
    },
    {
      "midi": 62,
      "hit": false,
      "t": 223633.33333333215,
      "d": 241.66666666665697,
      "v": 95
    },
    {
      "midi": 54,
      "hit": false,
      "t": 223633.33333333215,
      "d": 416.66666666665697,
      "v": 75
    },
    {
      "midi": 57,
      "hit": false,
      "t": 223637.4999999988,
      "d": 404.16666666665697,
      "v": 73
    },
    {
      "midi": 69,
      "hit": false,
      "t": 223749.9999999988,
      "d": 75,
      "v": 59
    },
    {
      "midi": 72,
      "hit": false,
      "t": 223833.33333333215,
      "d": 41.666666666656965,
      "v": 57
    },
    {
      "midi": 74,
      "hit": false,
      "t": 223924.9999999988,
      "d": 66.66666666665697,
      "v": 69
    },
    {
      "midi": 81,
      "hit": false,
      "t": 224024.9999999988,
      "d": 100,
      "v": 66
    },
    {
      "midi": 60,
      "hit": false,
      "t": 224041.66666666546,
      "d": 154.16666666665697,
      "v": 98
    },
    {
      "midi": 84,
      "hit": false,
      "t": 224129.16666666546,
      "d": 100,
      "v": 66
    },
    {
      "midi": 57,
      "hit": false,
      "t": 224229.16666666546,
      "d": 395.83333333331393,
      "v": 70
    },
    {
      "midi": 86,
      "hit": false,
      "t": 224237.4999999988,
      "d": 100,
      "v": 69
    },
    {
      "midi": 50,
      "hit": false,
      "t": 224237.4999999988,
      "d": 379.16666666662786,
      "v": 62
    },
    {
      "midi": 84,
      "hit": false,
      "t": 224341.66666666546,
      "d": 104.16666666665697,
      "v": 62
    },
    {
      "midi": 62,
      "hit": false,
      "t": 224420.83333333212,
      "d": 58.333333333343035,
      "v": 90
    },
    {
      "midi": 81,
      "hit": false,
      "t": 224424.99999999878,
      "d": 66.66666666668607,
      "v": 68
    },
    {
      "midi": 74,
      "hit": false,
      "t": 224520.83333333212,
      "d": 62.5,
      "v": 60
    },
    {
      "midi": 72,
      "hit": false,
      "t": 224612.49999999878,
      "d": 125,
      "v": 63
    },
    {
      "midi": 62,
      "hit": false,
      "t": 224616.66666666543,
      "d": 70.83333333334303,
      "v": 97
    },
    {
      "midi": 69,
      "hit": false,
      "t": 224716.66666666543,
      "d": 37.5,
      "v": 66
    },
    {
      "midi": 55,
      "hit": false,
      "t": 224804.16666666543,
      "d": 979.1666666667152,
      "v": 71
    },
    {
      "midi": 62,
      "hit": false,
      "t": 224812.49999999878,
      "d": 783.333333333343,
      "v": 102
    },
    {
      "midi": 59,
      "hit": false,
      "t": 224820.83333333212,
      "d": 750,
      "v": 75
    },
    {
      "midi": 67,
      "hit": false,
      "t": 224916.66666666546,
      "d": 87.4999999999709,
      "v": 59
    },
    {
      "midi": 71,
      "hit": false,
      "t": 224999.99999999878,
      "d": 33.33333333331393,
      "v": 58
    },
    {
      "midi": 74,
      "hit": false,
      "t": 225091.66666666543,
      "d": 87.5,
      "v": 62
    },
    {
      "midi": 79,
      "hit": false,
      "t": 225212.49999999878,
      "d": 87.5,
      "v": 39
    },
    {
      "midi": 83,
      "hit": false,
      "t": 225295.83333333212,
      "d": 100,
      "v": 54
    },
    {
      "midi": 86,
      "hit": false,
      "t": 225395.83333333212,
      "d": 91.66666666665697,
      "v": 70
    },
    {
      "midi": 83,
      "hit": false,
      "t": 225479.16666666543,
      "d": 125.0000000000291,
      "v": 62
    },
    {
      "midi": 79,
      "hit": false,
      "t": 225574.99999999878,
      "d": 70.83333333337214,
      "v": 64
    },
    {
      "midi": 60,
      "hit": false,
      "t": 225574.99999999878,
      "d": 195.83333333337214,
      "v": 67
    },
    {
      "midi": 74,
      "hit": false,
      "t": 225658.33333333215,
      "d": 70.83333333334303,
      "v": 54
    },
    {
      "midi": 59,
      "hit": false,
      "t": 225770.83333333215,
      "d": 12.5,
      "v": 67
    },
    {
      "midi": 71,
      "hit": false,
      "t": 225770.83333333215,
      "d": 133.33333333331393,
      "v": 75
    },
    {
      "midi": 67,
      "hit": false,
      "t": 225862.4999999988,
      "d": 41.666666666656965,
      "v": 71
    },
    {
      "midi": 59,
      "hit": false,
      "t": 225979.16666666546,
      "d": 199.9999999999709,
      "v": 96
    },
    {
      "midi": 54,
      "hit": false,
      "t": 225979.16666666546,
      "d": 774.9999999999709,
      "v": 80
    },
    {
      "midi": 48,
      "hit": false,
      "t": 225979.16666666546,
      "d": 962.4999999999418,
      "v": 67
    },
    {
      "midi": 50,
      "hit": false,
      "t": 225987.4999999988,
      "d": 920.8333333332848,
      "v": 71
    },
    {
      "midi": 62,
      "hit": false,
      "t": 225991.66666666546,
      "d": 95.83333333331393,
      "v": 69
    },
    {
      "midi": 66,
      "hit": false,
      "t": 226083.33333333212,
      "d": 83.33333333331393,
      "v": 60
    },
    {
      "midi": 69,
      "hit": false,
      "t": 226174.99999999878,
      "d": 20.83333333331393,
      "v": 58
    },
    {
      "midi": 74,
      "hit": false,
      "t": 226283.3333333321,
      "d": 145.83333333334303,
      "v": 64
    },
    {
      "midi": 78,
      "hit": false,
      "t": 226366.66666666543,
      "d": 141.66666666665697,
      "v": 68
    },
    {
      "midi": 57,
      "hit": false,
      "t": 226374.99999999878,
      "d": 270.83333333331393,
      "v": 92
    },
    {
      "midi": 81,
      "hit": false,
      "t": 226466.66666666543,
      "d": 104.16666666665697,
      "v": 62
    },
    {
      "midi": 86,
      "hit": false,
      "t": 226566.66666666543,
      "d": 120.83333333334303,
      "v": 73
    },
    {
      "midi": 81,
      "hit": false,
      "t": 226666.66666666543,
      "d": 75,
      "v": 59
    },
    {
      "midi": 78,
      "hit": false,
      "t": 226749.99999999878,
      "d": 70.83333333331393,
      "v": 65
    },
    {
      "midi": 55,
      "hit": false,
      "t": 226754.16666666543,
      "d": 174.9999999999709,
      "v": 88
    },
    {
      "midi": 74,
      "hit": false,
      "t": 226833.3333333321,
      "d": 45.833333333343035,
      "v": 46
    },
    {
      "midi": 54,
      "hit": false,
      "t": 226924.99999999875,
      "d": 87.5,
      "v": 83
    },
    {
      "midi": 69,
      "hit": false,
      "t": 226937.49999999875,
      "d": 66.66666666665697,
      "v": 62
    },
    {
      "midi": 66,
      "hit": false,
      "t": 227020.8333333321,
      "d": 75,
      "v": 57
    },
    {
      "midi": 47,
      "hit": false,
      "t": 227166.66666666543,
      "d": 379.16666666665697,
      "v": 76
    },
    {
      "midi": 50,
      "hit": false,
      "t": 227166.66666666543,
      "d": 379.16666666665697,
      "v": 81
    },
    {
      "midi": 55,
      "hit": false,
      "t": 227170.8333333321,
      "d": 154.16666666665697,
      "v": 84
    },
    {
      "midi": 67,
      "hit": false,
      "t": 227174.99999999875,
      "d": 108.33333333334303,
      "v": 66
    },
    {
      "midi": 71,
      "hit": false,
      "t": 227283.3333333321,
      "d": 75,
      "v": 58
    },
    {
      "midi": 74,
      "hit": false,
      "t": 227379.16666666543,
      "d": 16.666666666656965,
      "v": 67
    },
    {
      "midi": 79,
      "hit": false,
      "t": 227487.49999999875,
      "d": 62.5,
      "v": 60
    },
    {
      "midi": 55,
      "hit": false,
      "t": 227562.49999999875,
      "d": 87.5,
      "v": 100
    },
    {
      "midi": 83,
      "hit": false,
      "t": 227574.99999999875,
      "d": 120.83333333334303,
      "v": 74
    },
    {
      "midi": 86,
      "hit": false,
      "t": 227658.3333333321,
      "d": 79.16666666665697,
      "v": 74
    },
    {
      "midi": 57,
      "hit": false,
      "t": 227754.1666666654,
      "d": 362.4999999999418,
      "v": 113
    },
    {
      "midi": 53,
      "hit": false,
      "t": 227758.33333333206,
      "d": 379.16666666659876,
      "v": 80
    },
    {
      "midi": 91,
      "hit": false,
      "t": 227762.49999999872,
      "d": 158.33333333331393,
      "v": 80
    },
    {
      "midi": 86,
      "hit": false,
      "t": 227854.16666666538,
      "d": 124.9999999999709,
      "v": 72
    },
    {
      "midi": 83,
      "hit": false,
      "t": 227949.9999999987,
      "d": 79.16666666665697,
      "v": 69
    },
    {
      "midi": 79,
      "hit": false,
      "t": 228041.66666666535,
      "d": 50,
      "v": 61
    },
    {
      "midi": 74,
      "hit": false,
      "t": 228133.333333332,
      "d": 79.16666666665697,
      "v": 83
    },
    {
      "midi": 59,
      "hit": false,
      "t": 228145.833333332,
      "d": 133.33333333331393,
      "v": 111
    },
    {
      "midi": 71,
      "hit": false,
      "t": 228220.833333332,
      "d": 74.9999999999709,
      "v": 78
    },
    {
      "midi": 52,
      "hit": false,
      "t": 228320.83333333198,
      "d": 87.5,
      "v": 85
    },
    {
      "midi": 55,
      "hit": false,
      "t": 228324.99999999863,
      "d": 75,
      "v": 95
    },
    {
      "midi": 60,
      "hit": false,
      "t": 228324.99999999863,
      "d": 104.16666666665697,
      "v": 109
    },
    {
      "midi": 67,
      "hit": false,
      "t": 228337.49999999863,
      "d": 91.66666666665697,
      "v": 81
    },
    {
      "midi": 72,
      "hit": false,
      "t": 228424.99999999863,
      "d": 104.16666666665697,
      "v": 75
    },
    {
      "midi": 76,
      "hit": false,
      "t": 228512.49999999863,
      "d": 54.166666666656965,
      "v": 70
    },
    {
      "midi": 79,
      "hit": false,
      "t": 228616.6666666653,
      "d": 75,
      "v": 80
    },
    {
      "midi": 84,
      "hit": false,
      "t": 228716.6666666653,
      "d": 95.83333333334303,
      "v": 90
    },
    {
      "midi": 64,
      "hit": false,
      "t": 228720.83333333195,
      "d": 58.333333333343035,
      "v": 116
    },
    {
      "midi": 88,
      "hit": false,
      "t": 228812.49999999863,
      "d": 75,
      "v": 78
    },
    {
      "midi": 91,
      "hit": false,
      "t": 228899.99999999863,
      "d": 154.16666666671517,
      "v": 87
    },
    {
      "midi": 59,
      "hit": false,
      "t": 228916.66666666532,
      "d": 387.4999999999709,
      "v": 94
    },
    {
      "midi": 62,
      "hit": false,
      "t": 228920.83333333198,
      "d": 125.0000000000291,
      "v": 91
    },
    {
      "midi": 67,
      "hit": false,
      "t": 228920.83333333198,
      "d": 145.83333333337214,
      "v": 122
    },
    {
      "midi": 89,
      "hit": false,
      "t": 229012.49999999866,
      "d": 112.5,
      "v": 71
    },
    {
      "midi": 86,
      "hit": false,
      "t": 229108.333333332,
      "d": 58.33333333331393,
      "v": 70
    },
    {
      "midi": 79,
      "hit": false,
      "t": 229179.16666666532,
      "d": 100,
      "v": 77
    },
    {
      "midi": 62,
      "hit": false,
      "t": 229279.16666666532,
      "d": 20.83333333331393,
      "v": 91
    },
    {
      "midi": 89,
      "hit": false,
      "t": 229279.16666666532,
      "d": 108.33333333331393,
      "v": 77
    },
    {
      "midi": 67,
      "hit": false,
      "t": 229295.83333333198,
      "d": 49.999999999970896,
      "v": 99
    },
    {
      "midi": 86,
      "hit": false,
      "t": 229366.6666666653,
      "d": 41.66666666668607,
      "v": 84
    },
    {
      "midi": 60,
      "hit": false,
      "t": 229466.66666666532,
      "d": 437.5000000000582,
      "v": 80
    },
    {
      "midi": 88,
      "hit": false,
      "t": 229470.83333333198,
      "d": 125,
      "v": 96
    },
    {
      "midi": 84,
      "hit": false,
      "t": 229574.99999999863,
      "d": 95.83333333334303,
      "v": 79
    },
    {
      "midi": 72,
      "hit": false,
      "t": 229666.66666666532,
      "d": 33.333333333343035,
      "v": 67
    },
    {
      "midi": 79,
      "hit": false,
      "t": 229666.66666666532,
      "d": 62.5,
      "v": 73
    },
    {
      "midi": 64,
      "hit": false,
      "t": 229670.83333333198,
      "d": 8.333333333343035,
      "v": 61
    },
    {
      "midi": 76,
      "hit": false,
      "t": 229741.66666666532,
      "d": 83.33333333334303,
      "v": 67
    },
    {
      "midi": 72,
      "hit": false,
      "t": 229858.333333332,
      "d": 20.833333333343035,
      "v": 72
    },
    {
      "midi": 64,
      "hit": false,
      "t": 229858.333333332,
      "d": 29.16666666668607,
      "v": 73
    },
    {
      "midi": 84,
      "hit": false,
      "t": 229858.333333332,
      "d": 70.83333333337214,
      "v": 81
    },
    {
      "midi": 79,
      "hit": false,
      "t": 229941.66666666538,
      "d": 70.83333333334303,
      "v": 76
    },
    {
      "midi": 86,
      "hit": false,
      "t": 230045.83333333206,
      "d": 100,
      "v": 84
    },
    {
      "midi": 56,
      "hit": false,
      "t": 230045.83333333206,
      "d": 441.66666666662786,
      "v": 93
    },
    {
      "midi": 83,
      "hit": false,
      "t": 230149.99999999872,
      "d": 104.16666666665697,
      "v": 66
    },
    {
      "midi": 71,
      "hit": false,
      "t": 230237.49999999872,
      "d": 41.666666666656965,
      "v": 66
    },
    {
      "midi": 77,
      "hit": false,
      "t": 230241.66666666538,
      "d": 54.166666666656965,
      "v": 66
    },
    {
      "midi": 62,
      "hit": false,
      "t": 230254.16666666538,
      "d": 20.833333333343035,
      "v": 55
    },
    {
      "midi": 65,
      "hit": false,
      "t": 230254.16666666538,
      "d": 20.833333333343035,
      "v": 57
    },
    {
      "midi": 74,
      "hit": false,
      "t": 230316.66666666538,
      "d": 62.5,
      "v": 66
    },
    {
      "midi": 83,
      "hit": false,
      "t": 230420.83333333203,
      "d": 83.33333333331393,
      "v": 88
    },
    {
      "midi": 71,
      "hit": false,
      "t": 230437.4999999987,
      "d": 41.666666666656965,
      "v": 70
    },
    {
      "midi": 62,
      "hit": false,
      "t": 230441.66666666535,
      "d": 20.833333333343035,
      "v": 68
    },
    {
      "midi": 65,
      "hit": false,
      "t": 230441.66666666535,
      "d": 25,
      "v": 59
    },
    {
      "midi": 77,
      "hit": false,
      "t": 230524.9999999987,
      "d": 16.666666666656965,
      "v": 74
    },
    {
      "midi": 57,
      "hit": false,
      "t": 230608.333333332,
      "d": 437.4999999999709,
      "v": 88
    },
    {
      "midi": 85,
      "hit": false,
      "t": 230616.66666666535,
      "d": 208.33333333334303,
      "v": 86
    },
    {
      "midi": 81,
      "hit": false,
      "t": 230699.9999999987,
      "d": 95.83333333334303,
      "v": 72
    },
    {
      "midi": 61,
      "hit": false,
      "t": 230804.16666666538,
      "d": 50,
      "v": 73
    },
    {
      "midi": 64,
      "hit": false,
      "t": 230816.66666666538,
      "d": 29.166666666656965,
      "v": 67
    },
    {
      "midi": 69,
      "hit": false,
      "t": 230816.66666666538,
      "d": 29.166666666656965,
      "v": 62
    },
    {
      "midi": 76,
      "hit": false,
      "t": 230820.83333333203,
      "d": 37.5,
      "v": 50
    },
    {
      "midi": 73,
      "hit": false,
      "t": 230874.9999999987,
      "d": 75,
      "v": 73
    },
    {
      "midi": 81,
      "hit": false,
      "t": 230999.9999999987,
      "d": 91.66666666659876,
      "v": 89
    },
    {
      "midi": 69,
      "hit": false,
      "t": 231004.16666666535,
      "d": 20.83333333331393,
      "v": 77
    },
    {
      "midi": 61,
      "hit": false,
      "t": 231004.16666666535,
      "d": 45.83333333328483,
      "v": 79
    },
    {
      "midi": 64,
      "hit": false,
      "t": 231008.333333332,
      "d": 20.83333333331393,
      "v": 66
    },
    {
      "midi": 76,
      "hit": false,
      "t": 231087.49999999863,
      "d": 79.16666666665697,
      "v": 81
    },
    {
      "midi": 54,
      "hit": false,
      "t": 231170.83333333195,
      "d": 420.83333333331393,
      "v": 84
    },
    {
      "midi": 84,
      "hit": false,
      "t": 231179.1666666653,
      "d": 83.33333333334303,
      "v": 88
    },
    {
      "midi": 81,
      "hit": false,
      "t": 231270.83333333198,
      "d": 91.66666666665697,
      "v": 70
    },
    {
      "midi": 63,
      "hit": false,
      "t": 231358.33333333198,
      "d": 45.83333333331393,
      "v": 77
    },
    {
      "midi": 75,
      "hit": false,
      "t": 231362.49999999863,
      "d": 58.33333333331393,
      "v": 85
    },
    {
      "midi": 60,
      "hit": false,
      "t": 231366.6666666653,
      "d": 20.833333333343035,
      "v": 63
    },
    {
      "midi": 72,
      "hit": false,
      "t": 231458.33333333195,
      "d": 62.5,
      "v": 46
    },
    {
      "midi": 63,
      "hit": false,
      "t": 231545.83333333195,
      "d": 62.499999999970896,
      "v": 88
    },
    {
      "midi": 81,
      "hit": false,
      "t": 231545.83333333195,
      "d": 79.16666666662786,
      "v": 86
    },
    {
      "midi": 60,
      "hit": false,
      "t": 231554.16666666526,
      "d": 20.833333333343035,
      "v": 68
    },
    {
      "midi": 75,
      "hit": false,
      "t": 231633.33333333192,
      "d": 75,
      "v": 83
    },
    {
      "midi": 55,
      "hit": false,
      "t": 231729.16666666526,
      "d": 408.33333333331393,
      "v": 76
    },
    {
      "midi": 83,
      "hit": false,
      "t": 231733.33333333192,
      "d": 87.5,
      "v": 88
    },
    {
      "midi": 79,
      "hit": false,
      "t": 231816.66666666526,
      "d": 87.5,
      "v": 68
    },
    {
      "midi": 74,
      "hit": false,
      "t": 231916.66666666526,
      "d": 49.999999999970896,
      "v": 70
    },
    {
      "midi": 62,
      "hit": false,
      "t": 231920.83333333192,
      "d": 49.999999999970896,
      "v": 53
    },
    {
      "midi": 59,
      "hit": false,
      "t": 231924.99999999857,
      "d": 16.666666666656965,
      "v": 39
    },
    {
      "midi": 71,
      "hit": false,
      "t": 231991.66666666523,
      "d": 83.33333333334303,
      "v": 67
    },
    {
      "midi": 79,
      "hit": false,
      "t": 232091.66666666523,
      "d": 87.5,
      "v": 85
    },
    {
      "midi": 59,
      "hit": false,
      "t": 232095.8333333319,
      "d": 20.833333333343035,
      "v": 76
    },
    {
      "midi": 62,
      "hit": false,
      "t": 232104.16666666523,
      "d": 20.833333333343035,
      "v": 66
    },
    {
      "midi": 74,
      "hit": false,
      "t": 232187.49999999857,
      "d": 62.5,
      "v": 84
    },
    {
      "midi": 51,
      "hit": false,
      "t": 232274.99999999857,
      "d": 404.16666666668607,
      "v": 88
    },
    {
      "midi": 81,
      "hit": false,
      "t": 232279.16666666523,
      "d": 150,
      "v": 81
    },
    {
      "midi": 78,
      "hit": false,
      "t": 232387.49999999857,
      "d": 50,
      "v": 49
    },
    {
      "midi": 60,
      "hit": false,
      "t": 232462.49999999857,
      "d": 20.833333333343035,
      "v": 62
    },
    {
      "midi": 57,
      "hit": false,
      "t": 232462.49999999857,
      "d": 45.833333333343035,
      "v": 66
    },
    {
      "midi": 72,
      "hit": false,
      "t": 232462.49999999857,
      "d": 58.333333333343035,
      "v": 72
    },
    {
      "midi": 69,
      "hit": false,
      "t": 232529.16666666526,
      "d": 83.33333333334303,
      "v": 62
    },
    {
      "midi": 78,
      "hit": false,
      "t": 232633.33333333195,
      "d": 108.33333333331393,
      "v": 84
    },
    {
      "midi": 57,
      "hit": false,
      "t": 232649.9999999986,
      "d": 58.33333333331393,
      "v": 83
    },
    {
      "midi": 60,
      "hit": false,
      "t": 232649.9999999986,
      "d": 70.83333333331393,
      "v": 76
    },
    {
      "midi": 72,
      "hit": false,
      "t": 232729.16666666526,
      "d": 66.66666666665697,
      "v": 77
    },
    {
      "midi": 79,
      "hit": false,
      "t": 232812.49999999857,
      "d": 87.4999999999709,
      "v": 88
    },
    {
      "midi": 52,
      "hit": false,
      "t": 232816.66666666523,
      "d": 383.33333333331393,
      "v": 86
    },
    {
      "midi": 76,
      "hit": false,
      "t": 232904.1666666652,
      "d": 104.16666666665697,
      "v": 70
    },
    {
      "midi": 72,
      "hit": false,
      "t": 233008.33333333186,
      "d": 58.333333333343035,
      "v": 72
    },
    {
      "midi": 55,
      "hit": false,
      "t": 233024.99999999852,
      "d": 20.833333333343035,
      "v": 66
    },
    {
      "midi": 60,
      "hit": false,
      "t": 233024.99999999852,
      "d": 41.66666666668607,
      "v": 64
    },
    {
      "midi": 67,
      "hit": false,
      "t": 233091.6666666652,
      "d": 83.33333333334303,
      "v": 62
    },
    {
      "midi": 76,
      "hit": false,
      "t": 233187.49999999854,
      "d": 95.83333333331393,
      "v": 75
    },
    {
      "midi": 55,
      "hit": false,
      "t": 233195.8333333319,
      "d": 16.666666666656965,
      "v": 75
    },
    {
      "midi": 60,
      "hit": false,
      "t": 233208.3333333319,
      "d": 8.33333333331393,
      "v": 66
    },
    {
      "midi": 72,
      "hit": false,
      "t": 233283.33333333186,
      "d": 54.166666666656965,
      "v": 80
    },
    {
      "midi": 47,
      "hit": false,
      "t": 233374.99999999852,
      "d": 424.9999999999418,
      "v": 80
    },
    {
      "midi": 77,
      "hit": false,
      "t": 233379.16666666517,
      "d": 120.83333333331393,
      "v": 89
    },
    {
      "midi": 74,
      "hit": false,
      "t": 233470.83333333183,
      "d": 95.83333333331393,
      "v": 77
    },
    {
      "midi": 56,
      "hit": false,
      "t": 233570.8333333318,
      "d": 45.833333333343035,
      "v": 77
    },
    {
      "midi": 68,
      "hit": false,
      "t": 233574.99999999846,
      "d": 54.16666666668607,
      "v": 84
    },
    {
      "midi": 53,
      "hit": false,
      "t": 233583.3333333318,
      "d": 20.833333333343035,
      "v": 58
    },
    {
      "midi": 65,
      "hit": false,
      "t": 233658.3333333318,
      "d": 79.16666666665697,
      "v": 72
    },
    {
      "midi": 74,
      "hit": false,
      "t": 233754.1666666651,
      "d": 87.5,
      "v": 85
    },
    {
      "midi": 56,
      "hit": false,
      "t": 233770.83333333177,
      "d": 66.66666666668607,
      "v": 88
    },
    {
      "midi": 53,
      "hit": false,
      "t": 233779.1666666651,
      "d": 37.5,
      "v": 73
    },
    {
      "midi": 68,
      "hit": false,
      "t": 233841.6666666651,
      "d": 75,
      "v": 81
    },
    {
      "midi": 48,
      "hit": false,
      "t": 233945.83333333177,
      "d": 400,
      "v": 88
    },
    {
      "midi": 76,
      "hit": false,
      "t": 233949.99999999843,
      "d": 112.5,
      "v": 85
    },
    {
      "midi": 72,
      "hit": false,
      "t": 234029.16666666509,
      "d": 108.33333333334303,
      "v": 73
    },
    {
      "midi": 52,
      "hit": false,
      "t": 234133.33333333177,
      "d": 45.83333333331393,
      "v": 72
    },
    {
      "midi": 67,
      "hit": false,
      "t": 234133.33333333177,
      "d": 66.66666666665697,
      "v": 73
    },
    {
      "midi": 55,
      "hit": false,
      "t": 234137.49999999843,
      "d": 50,
      "v": 66
    },
    {
      "midi": 64,
      "hit": false,
      "t": 234208.33333333177,
      "d": 75,
      "v": 72
    },
    {
      "midi": 72,
      "hit": false,
      "t": 234304.1666666651,
      "d": 112.5,
      "v": 81
    },
    {
      "midi": 55,
      "hit": false,
      "t": 234316.6666666651,
      "d": 16.666666666656965,
      "v": 75
    },
    {
      "midi": 52,
      "hit": false,
      "t": 234316.6666666651,
      "d": 25,
      "v": 80
    },
    {
      "midi": 67,
      "hit": false,
      "t": 234395.83333333177,
      "d": 83.33333333334303,
      "v": 75
    },
    {
      "midi": 37,
      "hit": false,
      "t": 234504.1666666651,
      "d": 420.83333333334303,
      "v": 88
    },
    {
      "midi": 64,
      "hit": false,
      "t": 234508.33333333177,
      "d": 179.16666666668607,
      "v": 113
    },
    {
      "midi": 49,
      "hit": false,
      "t": 234508.33333333177,
      "d": 208.33333333334303,
      "v": 108
    },
    {
      "midi": 67,
      "hit": false,
      "t": 234616.6666666651,
      "d": 120.83333333334303,
      "v": 96
    },
    {
      "midi": 69,
      "hit": false,
      "t": 234699.99999999846,
      "d": 100,
      "v": 100
    },
    {
      "midi": 43,
      "hit": false,
      "t": 234712.49999999846,
      "d": 66.66666666665697,
      "v": 87
    },
    {
      "midi": 70,
      "hit": false,
      "t": 234791.6666666651,
      "d": 95.83333333334303,
      "v": 107
    },
    {
      "midi": 69,
      "hit": false,
      "t": 234887.49999999846,
      "d": 91.66666666665697,
      "v": 95
    },
    {
      "midi": 43,
      "hit": false,
      "t": 234887.49999999846,
      "d": 95.83333333331393,
      "v": 89
    },
    {
      "midi": 67,
      "hit": false,
      "t": 234983.33333333177,
      "d": 70.83333333334303,
      "v": 97
    },
    {
      "midi": 38,
      "hit": false,
      "t": 235070.83333333177,
      "d": 379.1666666667152,
      "v": 91
    },
    {
      "midi": 62,
      "hit": false,
      "t": 235074.99999999843,
      "d": 133.33333333337214,
      "v": 107
    },
    {
      "midi": 50,
      "hit": false,
      "t": 235083.33333333177,
      "d": 354.1666666667152,
      "v": 102
    },
    {
      "midi": 67,
      "hit": false,
      "t": 235174.99999999846,
      "d": 137.5000000000291,
      "v": 89
    },
    {
      "midi": 43,
      "hit": false,
      "t": 235258.3333333318,
      "d": 83.33333333337214,
      "v": 56
    },
    {
      "midi": 69,
      "hit": false,
      "t": 235270.8333333318,
      "d": 83.33333333337214,
      "v": 97
    },
    {
      "midi": 70,
      "hit": false,
      "t": 235358.33333333183,
      "d": 91.66666666665697,
      "v": 104
    },
    {
      "midi": 69,
      "hit": false,
      "t": 235449.9999999985,
      "d": 91.66666666668607,
      "v": 89
    },
    {
      "midi": 43,
      "hit": false,
      "t": 235458.33333333183,
      "d": 154.16666666668607,
      "v": 80
    },
    {
      "midi": 70,
      "hit": false,
      "t": 235491.66666666517,
      "d": 20.833333333343035,
      "v": 34
    },
    {
      "midi": 67,
      "hit": false,
      "t": 235541.66666666517,
      "d": 50,
      "v": 92
    },
    {
      "midi": 40,
      "hit": false,
      "t": 235624.99999999852,
      "d": 400.0000000000291,
      "v": 96
    },
    {
      "midi": 52,
      "hit": false,
      "t": 235633.33333333186,
      "d": 391.66666666668607,
      "v": 118
    },
    {
      "midi": 61,
      "hit": false,
      "t": 235637.49999999852,
      "d": 387.5000000000291,
      "v": 109
    },
    {
      "midi": 67,
      "hit": false,
      "t": 235733.33333333186,
      "d": 162.5,
      "v": 70
    },
    {
      "midi": 69,
      "hit": false,
      "t": 235816.6666666652,
      "d": 100,
      "v": 92
    },
    {
      "midi": 43,
      "hit": false,
      "t": 235820.83333333186,
      "d": 95.83333333334303,
      "v": 91
    },
    {
      "midi": 70,
      "hit": false,
      "t": 235916.6666666652,
      "d": 191.66666666665697,
      "v": 101
    },
    {
      "midi": 43,
      "hit": false,
      "t": 235991.6666666652,
      "d": 162.4999999999709,
      "v": 65
    },
    {
      "midi": 69,
      "hit": false,
      "t": 235999.99999999854,
      "d": 112.4999999999709,
      "v": 96
    },
    {
      "midi": 67,
      "hit": false,
      "t": 236091.6666666652,
      "d": 108.33333333331393,
      "v": 85
    },
    {
      "midi": 50,
      "hit": false,
      "t": 236174.99999999852,
      "d": 116.66666666665697,
      "v": 122
    },
    {
      "midi": 38,
      "hit": false,
      "t": 236174.99999999852,
      "d": 120.83333333331393,
      "v": 104
    },
    {
      "midi": 74,
      "hit": false,
      "t": 236258.33333333183,
      "d": 75,
      "v": 110
    },
    {
      "midi": 67,
      "hit": false,
      "t": 236262.4999999985,
      "d": 91.66666666668607,
      "v": 84
    },
    {
      "midi": 62,
      "hit": false,
      "t": 236270.83333333183,
      "d": 50,
      "v": 104
    },
    {
      "midi": 71,
      "hit": false,
      "t": 236270.83333333183,
      "d": 83.33333333334303,
      "v": 96
    },
    {
      "midi": 49,
      "hit": false,
      "t": 236383.33333333186,
      "d": 124.9999999999709,
      "v": 117
    },
    {
      "midi": 37,
      "hit": false,
      "t": 236387.49999999852,
      "d": 133.33333333331393,
      "v": 104
    },
    {
      "midi": 73,
      "hit": false,
      "t": 236466.66666666517,
      "d": 100,
      "v": 104
    },
    {
      "midi": 61,
      "hit": false,
      "t": 236479.16666666517,
      "d": 54.166666666656965,
      "v": 96
    },
    {
      "midi": 38,
      "hit": false,
      "t": 236554.16666666517,
      "d": 70.83333333334303,
      "v": 101
    },
    {
      "midi": 50,
      "hit": false,
      "t": 236562.49999999852,
      "d": 83.33333333334303,
      "v": 106
    },
    {
      "midi": 74,
      "hit": false,
      "t": 236654.1666666652,
      "d": 58.33333333331393,
      "v": 96
    },
    {
      "midi": 62,
      "hit": false,
      "t": 236666.6666666652,
      "d": 41.666666666656965,
      "v": 97
    },
    {
      "midi": 42,
      "hit": false,
      "t": 236758.3333333319,
      "d": 125,
      "v": 95
    },
    {
      "midi": 54,
      "hit": false,
      "t": 236758.3333333319,
      "d": 129.16666666665697,
      "v": 119
    },
    {
      "midi": 66,
      "hit": false,
      "t": 236854.16666666523,
      "d": 49.999999999970896,
      "v": 102
    },
    {
      "midi": 78,
      "hit": false,
      "t": 236858.3333333319,
      "d": 62.499999999970896,
      "v": 107
    },
    {
      "midi": 43,
      "hit": false,
      "t": 236924.99999999852,
      "d": 75,
      "v": 101
    },
    {
      "midi": 55,
      "hit": false,
      "t": 236937.49999999852,
      "d": 70.83333333334303,
      "v": 108
    },
    {
      "midi": 67,
      "hit": false,
      "t": 237041.6666666652,
      "d": 41.666666666656965,
      "v": 89
    },
    {
      "midi": 79,
      "hit": false,
      "t": 237041.6666666652,
      "d": 62.5,
      "v": 86
    },
    {
      "midi": 46,
      "hit": false,
      "t": 237124.99999999854,
      "d": 91.66666666665697,
      "v": 100
    },
    {
      "midi": 58,
      "hit": false,
      "t": 237129.1666666652,
      "d": 104.16666666665697,
      "v": 114
    },
    {
      "midi": 70,
      "hit": false,
      "t": 237220.83333333186,
      "d": 58.333333333343035,
      "v": 104
    },
    {
      "midi": 82,
      "hit": false,
      "t": 237229.1666666652,
      "d": 54.166666666656965,
      "v": 85
    },
    {
      "midi": 59,
      "hit": false,
      "t": 237316.6666666652,
      "d": 66.66666666668607,
      "v": 123
    },
    {
      "midi": 47,
      "hit": false,
      "t": 237316.6666666652,
      "d": 79.16666666668607,
      "v": 113
    },
    {
      "midi": 83,
      "hit": false,
      "t": 237399.99999999854,
      "d": 37.5,
      "v": 96
    },
    {
      "midi": 71,
      "hit": false,
      "t": 237404.1666666652,
      "d": 33.333333333343035,
      "v": 101
    },
    {
      "midi": 42,
      "hit": false,
      "t": 237541.6666666652,
      "d": 112.4999999999709,
      "v": 105
    },
    {
      "midi": 54,
      "hit": false,
      "t": 237541.6666666652,
      "d": 124.9999999999709,
      "v": 123
    },
    {
      "midi": 66,
      "hit": false,
      "t": 237612.49999999852,
      "d": 62.5,
      "v": 104
    },
    {
      "midi": 78,
      "hit": false,
      "t": 237612.49999999852,
      "d": 75,
      "v": 102
    },
    {
      "midi": 55,
      "hit": false,
      "t": 237708.33333333186,
      "d": 112.5,
      "v": 114
    },
    {
      "midi": 43,
      "hit": false,
      "t": 237716.6666666652,
      "d": 95.83333333331393,
      "v": 106
    },
    {
      "midi": 79,
      "hit": false,
      "t": 237824.99999999852,
      "d": 54.166666666656965,
      "v": 97
    },
    {
      "midi": 67,
      "hit": false,
      "t": 237833.33333333186,
      "d": 41.666666666656965,
      "v": 102
    },
    {
      "midi": 46,
      "hit": false,
      "t": 237916.6666666652,
      "d": 125.0000000000291,
      "v": 115
    },
    {
      "midi": 58,
      "hit": false,
      "t": 237924.99999999854,
      "d": 141.66666666668607,
      "v": 124
    },
    {
      "midi": 82,
      "hit": false,
      "t": 238008.3333333319,
      "d": 87.5,
      "v": 105
    },
    {
      "midi": 70,
      "hit": false,
      "t": 238008.3333333319,
      "d": 95.83333333334303,
      "v": 110
    },
    {
      "midi": 47,
      "hit": false,
      "t": 238112.49999999857,
      "d": 54.166666666656965,
      "v": 116
    },
    {
      "midi": 59,
      "hit": false,
      "t": 238112.49999999857,
      "d": 75,
      "v": 120
    },
    {
      "midi": 83,
      "hit": false,
      "t": 238195.83333333192,
      "d": 62.5,
      "v": 93
    },
    {
      "midi": 71,
      "hit": false,
      "t": 238208.33333333192,
      "d": 33.333333333343035,
      "v": 104
    },
    {
      "midi": 49,
      "hit": false,
      "t": 238291.66666666523,
      "d": 112.5,
      "v": 107
    },
    {
      "midi": 61,
      "hit": false,
      "t": 238291.66666666523,
      "d": 129.16666666665697,
      "v": 125
    },
    {
      "midi": 73,
      "hit": false,
      "t": 238374.99999999857,
      "d": 70.83333333331393,
      "v": 116
    },
    {
      "midi": 85,
      "hit": false,
      "t": 238379.16666666523,
      "d": 87.5,
      "v": 107
    },
    {
      "midi": 62,
      "hit": false,
      "t": 238470.8333333319,
      "d": 50,
      "v": 114
    },
    {
      "midi": 50,
      "hit": false,
      "t": 238470.8333333319,
      "d": 54.166666666656965,
      "v": 107
    },
    {
      "midi": 86,
      "hit": false,
      "t": 238554.1666666652,
      "d": 54.16666666668607,
      "v": 101
    },
    {
      "midi": 74,
      "hit": false,
      "t": 238562.49999999854,
      "d": 41.66666666668607,
      "v": 104
    },
    {
      "midi": 58,
      "hit": false,
      "t": 238666.66666666523,
      "d": 133.33333333334303,
      "v": 127
    },
    {
      "midi": 46,
      "hit": false,
      "t": 238666.66666666523,
      "d": 154.16666666668607,
      "v": 126
    },
    {
      "midi": 70,
      "hit": false,
      "t": 238754.16666666523,
      "d": 79.16666666668607,
      "v": 112
    },
    {
      "midi": 82,
      "hit": false,
      "t": 238754.16666666523,
      "d": 91.66666666668607,
      "v": 104
    },
    {
      "midi": 59,
      "hit": false,
      "t": 238854.16666666526,
      "d": 41.666666666656965,
      "v": 119
    },
    {
      "midi": 47,
      "hit": false,
      "t": 238858.33333333192,
      "d": 58.333333333343035,
      "v": 102
    },
    {
      "midi": 83,
      "hit": false,
      "t": 238941.66666666526,
      "d": 37.5,
      "v": 105
    },
    {
      "midi": 71,
      "hit": false,
      "t": 238941.66666666526,
      "d": 41.666666666656965,
      "v": 96
    },
    {
      "midi": 42,
      "hit": false,
      "t": 239033.33333333192,
      "d": 120.83333333334303,
      "v": 110
    },
    {
      "midi": 54,
      "hit": false,
      "t": 239033.33333333192,
      "d": 120.83333333334303,
      "v": 117
    },
    {
      "midi": 66,
      "hit": false,
      "t": 239129.16666666526,
      "d": 87.5,
      "v": 113
    },
    {
      "midi": 78,
      "hit": false,
      "t": 239133.33333333192,
      "d": 100,
      "v": 111
    },
    {
      "midi": 55,
      "hit": false,
      "t": 239216.66666666526,
      "d": 58.33333333331393,
      "v": 119
    },
    {
      "midi": 43,
      "hit": false,
      "t": 239220.83333333192,
      "d": 75,
      "v": 106
    },
    {
      "midi": 79,
      "hit": false,
      "t": 239312.49999999857,
      "d": 45.833333333343035,
      "v": 104
    },
    {
      "midi": 67,
      "hit": false,
      "t": 239320.83333333192,
      "d": 20.833333333343035,
      "v": 98
    },
    {
      "midi": 49,
      "hit": false,
      "t": 239420.83333333192,
      "d": 150,
      "v": 127
    },
    {
      "midi": 37,
      "hit": false,
      "t": 239429.16666666523,
      "d": 145.83333333334303,
      "v": 115
    },
    {
      "midi": 61,
      "hit": false,
      "t": 239499.99999999857,
      "d": 62.5,
      "v": 127
    },
    {
      "midi": 73,
      "hit": false,
      "t": 239499.99999999857,
      "d": 91.66666666665697,
      "v": 115
    },
    {
      "midi": 38,
      "hit": false,
      "t": 239629.16666666523,
      "d": 233.33333333331393,
      "v": 110
    },
    {
      "midi": 74,
      "hit": false,
      "t": 239629.16666666523,
      "d": 279.16666666665697,
      "v": 116
    },
    {
      "midi": 50,
      "hit": false,
      "t": 239633.3333333319,
      "d": 250,
      "v": 115
    },
    {
      "midi": 62,
      "hit": false,
      "t": 239637.49999999854,
      "d": 258.33333333334303,
      "v": 123
    },
    {
      "midi": 78,
      "hit": false,
      "t": 240279.16666666523,
      "d": 141.66666666662786,
      "v": 116
    },
    {
      "midi": 62,
      "hit": false,
      "t": 240283.3333333319,
      "d": 70.83333333331393,
      "v": 115
    },
    {
      "midi": 50,
      "hit": false,
      "t": 240291.66666666523,
      "d": 91.66666666662786,
      "v": 102
    },
    {
      "midi": 57,
      "hit": false,
      "t": 240295.8333333319,
      "d": 87.4999999999709,
      "v": 109
    },
    {
      "midi": 54,
      "hit": false,
      "t": 240295.8333333319,
      "d": 120.83333333331393,
      "v": 114
    },
    {
      "midi": 69,
      "hit": false,
      "t": 240299.99999999854,
      "d": 108.33333333331393,
      "v": 105
    },
    {
      "midi": 72,
      "hit": false,
      "t": 240299.99999999854,
      "d": 108.33333333331393,
      "v": 101
    },
    {
      "midi": 74,
      "hit": false,
      "t": 240299.99999999854,
      "d": 120.83333333331393,
      "v": 98
    },
    {
      "midi": 43,
      "hit": false,
      "t": 240983.33333333183,
      "d": 37.5,
      "v": 106
    },
    {
      "midi": 79,
      "hit": false,
      "t": 240983.33333333183,
      "d": 166.66666666665697,
      "v": 116
    },
    {
      "midi": 55,
      "hit": false,
      "t": 240987.4999999985,
      "d": 33.333333333343035,
      "v": 124
    },
    {
      "midi": 47,
      "hit": false,
      "t": 240991.66666666514,
      "d": 20.833333333343035,
      "v": 105
    },
    {
      "midi": 67,
      "hit": false,
      "t": 240991.66666666514,
      "d": 145.83333333334303,
      "v": 115
    },
    {
      "midi": 71,
      "hit": false,
      "t": 240999.9999999985,
      "d": 170.83333333334303,
      "v": 112
    },
    {
      "midi": 50,
      "hit": false,
      "t": 241004.16666666514,
      "d": 8.333333333343035,
      "v": 105
    },
    {
      "midi": 74,
      "hit": false,
      "t": 241624.9999999985,
      "d": 75,
      "v": 88
    },
    {
      "midi": 73,
      "hit": false,
      "t": 241712.4999999985,
      "d": 91.66666666665697,
      "v": 80
    },
    {
      "midi": 74,
      "hit": false,
      "t": 241812.4999999985,
      "d": 66.66666666665697,
      "v": 78
    },
    {
      "midi": 67,
      "hit": false,
      "t": 242020.8333333318,
      "d": 45.833333333343035,
      "v": 64
    },
    {
      "midi": 62,
      "hit": false,
      "t": 242212.4999999985,
      "d": 83.33333333334303,
      "v": 64
    },
    {
      "midi": 61,
      "hit": false,
      "t": 242299.9999999985,
      "d": 87.5,
      "v": 79
    },
    {
      "midi": 62,
      "hit": false,
      "t": 242404.16666666514,
      "d": 79.16666666665697,
      "v": 70
    },
    {
      "midi": 55,
      "hit": false,
      "t": 242591.66666666514,
      "d": 45.833333333343035,
      "v": 73
    },
    {
      "midi": 62,
      "hit": false,
      "t": 242804.16666666514,
      "d": 245.83333333334303,
      "v": 76
    },
    {
      "midi": 67,
      "hit": false,
      "t": 243041.66666666514,
      "d": 445.83333333334303,
      "v": 68
    },
    {
      "midi": 59,
      "hit": false,
      "t": 243054.16666666514,
      "d": 1012.5,
      "v": 61
    },
    {
      "midi": 43,
      "hit": false,
      "t": 243070.8333333318,
      "d": 204.16666666668607,
      "v": 45
    },
    {
      "midi": 50,
      "hit": false,
      "t": 243074.99999999846,
      "d": 1000.0000000000291,
      "v": 48
    },
    {
      "midi": 69,
      "hit": false,
      "t": 243458.33333333183,
      "d": 62.5,
      "v": 72
    },
    {
      "midi": 67,
      "hit": false,
      "t": 243741.66666666517,
      "d": 320.83333333331393,
      "v": 66
    },
    {
      "midi": 38,
      "hit": false,
      "t": 243741.66666666517,
      "d": 354.16666666665697,
      "v": 41
    },
    {
      "midi": 62,
      "hit": false,
      "t": 244262.4999999985,
      "d": 95.83333333331393,
      "v": 69
    },
    {
      "midi": 61,
      "hit": false,
      "t": 244345.8333333318,
      "d": 79.16666666665697,
      "v": 83
    },
    {
      "midi": 66,
      "hit": false,
      "t": 244429.1666666651,
      "d": 141.66666666668607,
      "v": 78
    },
    {
      "midi": 62,
      "hit": false,
      "t": 244441.6666666651,
      "d": 83.33333333334303,
      "v": 74
    },
    {
      "midi": 57,
      "hit": false,
      "t": 244674.99999999846,
      "d": 87.5,
      "v": 65
    },
    {
      "midi": 50,
      "hit": false,
      "t": 244879.1666666651,
      "d": 58.333333333343035,
      "v": 56
    },
    {
      "midi": 49,
      "hit": false,
      "t": 244949.99999999846,
      "d": 83.33333333334303,
      "v": 67
    },
    {
      "midi": 50,
      "hit": false,
      "t": 245045.8333333318,
      "d": 79.16666666665697,
      "v": 79
    },
    {
      "midi": 38,
      "hit": false,
      "t": 245249.99999999846,
      "d": 83.33333333334303,
      "v": 62
    },
    {
      "midi": 62,
      "hit": false,
      "t": 245470.8333333318,
      "d": 262.5,
      "v": 83
    },
    {
      "midi": 69,
      "hit": false,
      "t": 245733.3333333318,
      "d": 166.66666666665697,
      "v": 83
    },
    {
      "midi": 66,
      "hit": false,
      "t": 245737.49999999846,
      "d": 525,
      "v": 77
    },
    {
      "midi": 60,
      "hit": false,
      "t": 245741.6666666651,
      "d": 550,
      "v": 70
    },
    {
      "midi": 50,
      "hit": false,
      "t": 245754.1666666651,
      "d": 1204.166666666686,
      "v": 63
    },
    {
      "midi": 71,
      "hit": false,
      "t": 246199.99999999846,
      "d": 75,
      "v": 81
    },
    {
      "midi": 69,
      "hit": false,
      "t": 246508.33333333177,
      "d": 441.66666666668607,
      "v": 69
    },
    {
      "midi": 59,
      "hit": false,
      "t": 246512.49999999843,
      "d": 416.66666666668607,
      "v": 61
    },
    {
      "midi": 38,
      "hit": false,
      "t": 246533.33333333177,
      "d": 437.5000000000291,
      "v": 42
    },
    {
      "midi": 65,
      "hit": false,
      "t": 247033.3333333318,
      "d": 95.83333333334303,
      "v": 86
    },
    {
      "midi": 64,
      "hit": false,
      "t": 247129.16666666514,
      "d": 66.66666666665697,
      "v": 94
    },
    {
      "midi": 68,
      "hit": false,
      "t": 247220.8333333318,
      "d": 120.83333333334303,
      "v": 89
    },
    {
      "midi": 65,
      "hit": false,
      "t": 247229.16666666514,
      "d": 62.5,
      "v": 90
    },
    {
      "midi": 59,
      "hit": false,
      "t": 247429.16666666514,
      "d": 75,
      "v": 88
    },
    {
      "midi": 50,
      "hit": false,
      "t": 247629.16666666514,
      "d": 91.66666666665697,
      "v": 72
    },
    {
      "midi": 49,
      "hit": false,
      "t": 247716.66666666514,
      "d": 79.16666666665697,
      "v": 81
    },
    {
      "midi": 50,
      "hit": false,
      "t": 247812.49999999846,
      "d": 91.66666666665697,
      "v": 92
    },
    {
      "midi": 38,
      "hit": false,
      "t": 248012.49999999846,
      "d": 104.16666666665697,
      "v": 74
    },
    {
      "midi": 62,
      "hit": false,
      "t": 248229.1666666651,
      "d": 541.666666666657,
      "v": 87
    },
    {
      "midi": 71,
      "hit": false,
      "t": 248499.99999999846,
      "d": 320.83333333331393,
      "v": 101
    },
    {
      "midi": 68,
      "hit": false,
      "t": 248508.3333333318,
      "d": 25,
      "v": 84
    },
    {
      "midi": 65,
      "hit": false,
      "t": 248508.3333333318,
      "d": 274.9999999999709,
      "v": 98
    },
    {
      "midi": 50,
      "hit": false,
      "t": 248520.8333333318,
      "d": 191.66666666662786,
      "v": 88
    },
    {
      "midi": 72,
      "hit": false,
      "t": 249008.33333333177,
      "d": 366.66666666668607,
      "v": 103
    },
    {
      "midi": 48,
      "hit": false,
      "t": 249320.83333333177,
      "d": 1087.499999999971,
      "v": 77
    },
    {
      "midi": 71,
      "hit": false,
      "t": 249341.6666666651,
      "d": 641.666666666657,
      "v": 108
    },
    {
      "midi": 57,
      "hit": false,
      "t": 249595.83333333174,
      "d": 79.16666666668607,
      "v": 68
    },
    {
      "midi": 52,
      "hit": false,
      "t": 249604.16666666509,
      "d": 62.5,
      "v": 56
    },
    {
      "midi": 52,
      "hit": false,
      "t": 249799.99999999843,
      "d": 20.833333333343035,
      "v": 68
    },
    {
      "midi": 57,
      "hit": false,
      "t": 249799.99999999843,
      "d": 41.66666666668607,
      "v": 76
    },
    {
      "midi": 57,
      "hit": false,
      "t": 249979.1666666651,
      "d": 699.9999999999418,
      "v": 64
    },
    {
      "midi": 52,
      "hit": false,
      "t": 249987.49999999843,
      "d": 470.83333333331393,
      "v": 61
    },
    {
      "midi": 69,
      "hit": false,
      "t": 249991.66666666509,
      "d": 141.66666666668607,
      "v": 87
    },
    {
      "midi": 76,
      "hit": false,
      "t": 250237.49999999843,
      "d": 249.9999999999709,
      "v": 89
    },
    {
      "midi": 72,
      "hit": false,
      "t": 250462.4999999984,
      "d": 249.9999999999709,
      "v": 90
    },
    {
      "midi": 48,
      "hit": false,
      "t": 250666.66666666506,
      "d": 1070.833333333314,
      "v": 63
    },
    {
      "midi": 71,
      "hit": false,
      "t": 250695.8333333317,
      "d": 679.166666666657,
      "v": 103
    },
    {
      "midi": 57,
      "hit": false,
      "t": 250895.83333333168,
      "d": 75,
      "v": 68
    },
    {
      "midi": 52,
      "hit": false,
      "t": 250904.16666666503,
      "d": 58.333333333343035,
      "v": 47
    },
    {
      "midi": 57,
      "hit": false,
      "t": 251091.66666666503,
      "d": 58.333333333343035,
      "v": 65
    },
    {
      "midi": 52,
      "hit": false,
      "t": 251112.49999999837,
      "d": 20.833333333343035,
      "v": 30
    },
    {
      "midi": 57,
      "hit": false,
      "t": 251320.8333333317,
      "d": 449.9999999999709,
      "v": 58
    },
    {
      "midi": 52,
      "hit": false,
      "t": 251333.3333333317,
      "d": 420.83333333331393,
      "v": 32
    },
    {
      "midi": 69,
      "hit": false,
      "t": 251337.49999999837,
      "d": 245.83333333331393,
      "v": 74
    },
    {
      "midi": 76,
      "hit": false,
      "t": 251629.16666666503,
      "d": 229.16666666665697,
      "v": 90
    },
    {
      "midi": 72,
      "hit": false,
      "t": 251845.83333333168,
      "d": 237.5,
      "v": 85
    },
    {
      "midi": 48,
      "hit": false,
      "t": 252029.16666666503,
      "d": 1537.5,
      "v": 71
    },
    {
      "midi": 71,
      "hit": false,
      "t": 252083.33333333168,
      "d": 816.666666666657,
      "v": 102
    },
    {
      "midi": 64,
      "hit": false,
      "t": 252320.83333333168,
      "d": 62.5,
      "v": 72
    },
    {
      "midi": 55,
      "hit": false,
      "t": 252324.99999999834,
      "d": 79.16666666668607,
      "v": 50
    },
    {
      "midi": 64,
      "hit": false,
      "t": 252570.83333333168,
      "d": 54.166666666656965,
      "v": 60
    },
    {
      "midi": 55,
      "hit": false,
      "t": 252574.99999999834,
      "d": 58.333333333343035,
      "v": 37
    },
    {
      "midi": 70,
      "hit": false,
      "t": 252866.66666666503,
      "d": 241.66666666665697,
      "v": 79
    },
    {
      "midi": 64,
      "hit": false,
      "t": 252879.16666666503,
      "d": 708.333333333343,
      "v": 48
    },
    {
      "midi": 55,
      "hit": false,
      "t": 252883.33333333168,
      "d": 708.333333333343,
      "v": 28
    },
    {
      "midi": 76,
      "hit": false,
      "t": 253233.33333333168,
      "d": 316.66666666668607,
      "v": 69
    },
    {
      "midi": 72,
      "hit": false,
      "t": 253512.49999999837,
      "d": 354.16666666665697,
      "v": 72
    },
    {
      "midi": 48,
      "hit": false,
      "t": 253783.33333333168,
      "d": 2262.500000000029,
      "v": 52
    },
    {
      "midi": 71,
      "hit": false,
      "t": 253866.66666666503,
      "d": 1133.3333333333721,
      "v": 61
    },
    {
      "midi": 55,
      "hit": false,
      "t": 254149.99999999837,
      "d": 125.0000000000291,
      "v": 32
    },
    {
      "midi": 64,
      "hit": false,
      "t": 254149.99999999837,
      "d": 125.0000000000291,
      "v": 56
    },
    {
      "midi": 64,
      "hit": false,
      "t": 254491.66666666506,
      "d": 54.166666666656965,
      "v": 56
    },
    {
      "midi": 55,
      "hit": false,
      "t": 254491.66666666506,
      "d": 75,
      "v": 38
    },
    {
      "midi": 64,
      "hit": false,
      "t": 254962.4999999984,
      "d": 1066.666666666657,
      "v": 45
    },
    {
      "midi": 55,
      "hit": false,
      "t": 254962.4999999984,
      "d": 1124.999999999971,
      "v": 25
    },
    {
      "midi": 70,
      "hit": false,
      "t": 254970.83333333174,
      "d": 1116.6666666666279,
      "v": 60
    },
    {
      "midi": 88,
      "hit": false,
      "t": 256504.16666666503,
      "d": 66.66666666665697,
      "v": 58
    },
    {
      "midi": 87,
      "hit": false,
      "t": 256591.66666666503,
      "d": 79.16666666665697,
      "v": 58
    },
    {
      "midi": 35,
      "hit": false,
      "t": 256691.66666666503,
      "d": 37.5,
      "v": 55
    },
    {
      "midi": 88,
      "hit": false,
      "t": 256695.83333333168,
      "d": 54.16666666668607,
      "v": 66
    },
    {
      "midi": 47,
      "hit": false,
      "t": 256695.83333333168,
      "d": 58.333333333343035,
      "v": 43
    },
    {
      "midi": 83,
      "hit": false,
      "t": 256908.33333333168,
      "d": 54.16666666668607,
      "v": 58
    },
    {
      "midi": 79,
      "hit": false,
      "t": 256920.83333333168,
      "d": 8.333333333343035,
      "v": 51
    },
    {
      "midi": 84,
      "hit": false,
      "t": 257108.3333333317,
      "d": 133.33333333334303,
      "v": 66
    },
    {
      "midi": 81,
      "hit": false,
      "t": 257116.66666666506,
      "d": 20.833333333343035,
      "v": 66
    },
    {
      "midi": 76,
      "hit": false,
      "t": 257129.16666666506,
      "d": 50,
      "v": 56
    },
    {
      "midi": 75,
      "hit": false,
      "t": 257199.9999999984,
      "d": 75,
      "v": 71
    },
    {
      "midi": 76,
      "hit": false,
      "t": 257299.9999999984,
      "d": 37.5,
      "v": 58
    },
    {
      "midi": 79,
      "hit": false,
      "t": 257316.66666666506,
      "d": 8.333333333343035,
      "v": 58
    },
    {
      "midi": 83,
      "hit": false,
      "t": 257316.66666666506,
      "d": 45.833333333343035,
      "v": 66
    },
    {
      "midi": 71,
      "hit": false,
      "t": 257499.9999999984,
      "d": 33.33333333331393,
      "v": 51
    },
    {
      "midi": 79,
      "hit": false,
      "t": 257504.16666666506,
      "d": 25,
      "v": 62
    },
    {
      "midi": 81,
      "hit": false,
      "t": 257708.3333333317,
      "d": 108.33333333331393,
      "v": 73
    },
    {
      "midi": 72,
      "hit": false,
      "t": 257712.49999999837,
      "d": 66.66666666665697,
      "v": 61
    },
    {
      "midi": 76,
      "hit": false,
      "t": 257716.66666666503,
      "d": 25,
      "v": 51
    },
    {
      "midi": 75,
      "hit": false,
      "t": 257795.83333333168,
      "d": 70.83333333334303,
      "v": 73
    },
    {
      "midi": 71,
      "hit": false,
      "t": 257887.49999999837,
      "d": 41.666666666656965,
      "v": 67
    },
    {
      "midi": 79,
      "hit": false,
      "t": 257887.49999999837,
      "d": 62.5,
      "v": 69
    },
    {
      "midi": 76,
      "hit": false,
      "t": 257899.99999999837,
      "d": 29.166666666656965,
      "v": 53
    },
    {
      "midi": 76,
      "hit": false,
      "t": 258087.49999999837,
      "d": 37.5,
      "v": 66
    },
    {
      "midi": 71,
      "hit": false,
      "t": 258091.66666666503,
      "d": 25,
      "v": 53
    },
    {
      "midi": 67,
      "hit": false,
      "t": 258095.83333333168,
      "d": 20.833333333343035,
      "v": 44
    },
    {
      "midi": 78,
      "hit": false,
      "t": 258270.8333333317,
      "d": 75,
      "v": 74
    },
    {
      "midi": 69,
      "hit": false,
      "t": 258279.16666666506,
      "d": 58.33333333331393,
      "v": 58
    },
    {
      "midi": 72,
      "hit": false,
      "t": 258283.3333333317,
      "d": 50,
      "v": 67
    },
    {
      "midi": 64,
      "hit": false,
      "t": 258291.66666666506,
      "d": 54.166666666656965,
      "v": 63
    },
    {
      "midi": 63,
      "hit": false,
      "t": 258354.16666666506,
      "d": 62.5,
      "v": 75
    },
    {
      "midi": 64,
      "hit": false,
      "t": 258458.3333333317,
      "d": 124.9999999999709,
      "v": 62
    },
    {
      "midi": 71,
      "hit": false,
      "t": 258462.49999999837,
      "d": 20.83333333331393,
      "v": 67
    },
    {
      "midi": 76,
      "hit": false,
      "t": 258462.49999999837,
      "d": 45.83333333331393,
      "v": 73
    },
    {
      "midi": 67,
      "hit": false,
      "t": 258466.66666666503,
      "d": 20.83333333331393,
      "v": 58
    },
    {
      "midi": 52,
      "hit": false,
      "t": 258654.16666666503,
      "d": 20.83333333331393,
      "v": 58
    },
    {
      "midi": 71,
      "hit": false,
      "t": 258666.66666666503,
      "d": 50,
      "v": 66
    },
    {
      "midi": 67,
      "hit": false,
      "t": 258670.83333333168,
      "d": 25,
      "v": 46
    },
    {
      "midi": 67,
      "hit": false,
      "t": 258887.49999999837,
      "d": 187.5000000000291,
      "v": 58
    },
    {
      "midi": 71,
      "hit": false,
      "t": 258899.99999999837,
      "d": 58.333333333343035,
      "v": 48
    },
    {
      "midi": 64,
      "hit": false,
      "t": 258899.99999999837,
      "d": 125.0000000000291,
      "v": 54
    },
    {
      "midi": 70,
      "hit": false,
      "t": 258979.16666666506,
      "d": 75,
      "v": 67
    },
    {
      "midi": 63,
      "hit": false,
      "t": 259074.9999999984,
      "d": 29.16666666668607,
      "v": 58
    },
    {
      "midi": 66,
      "hit": false,
      "t": 259074.9999999984,
      "d": 75,
      "v": 55
    },
    {
      "midi": 71,
      "hit": false,
      "t": 259083.33333333174,
      "d": 62.5,
      "v": 61
    },
    {
      "midi": 59,
      "hit": false,
      "t": 259283.33333333174,
      "d": 20.833333333343035,
      "v": 53
    },
    {
      "midi": 75,
      "hit": false,
      "t": 259295.83333333174,
      "d": 58.333333333343035,
      "v": 63
    },
    {
      "midi": 64,
      "hit": false,
      "t": 259483.33333333174,
      "d": 108.33333333331393,
      "v": 53
    },
    {
      "midi": 71,
      "hit": false,
      "t": 259487.4999999984,
      "d": 62.5,
      "v": 56
    },
    {
      "midi": 67,
      "hit": false,
      "t": 259491.66666666506,
      "d": 158.33333333331393,
      "v": 51
    },
    {
      "midi": 70,
      "hit": false,
      "t": 259574.9999999984,
      "d": 58.33333333331393,
      "v": 70
    },
    {
      "midi": 71,
      "hit": false,
      "t": 259670.8333333317,
      "d": 62.499999999970896,
      "v": 66
    },
    {
      "midi": 63,
      "hit": false,
      "t": 259674.99999999837,
      "d": 41.666666666656965,
      "v": 47
    },
    {
      "midi": 66,
      "hit": false,
      "t": 259674.99999999837,
      "d": 87.4999999999709,
      "v": 56
    },
    {
      "midi": 59,
      "hit": false,
      "t": 259887.49999999834,
      "d": 29.166666666656965,
      "v": 51
    },
    {
      "midi": 78,
      "hit": false,
      "t": 259899.99999999834,
      "d": 58.33333333331393,
      "v": 58
    },
    {
      "midi": 71,
      "hit": false,
      "t": 260087.4999999983,
      "d": 62.5,
      "v": 61
    },
    {
      "midi": 64,
      "hit": false,
      "t": 260091.66666666497,
      "d": 104.16666666665697,
      "v": 64
    },
    {
      "midi": 67,
      "hit": false,
      "t": 260091.66666666497,
      "d": 162.4999999999709,
      "v": 53
    },
    {
      "midi": 70,
      "hit": false,
      "t": 260166.66666666497,
      "d": 83.33333333331393,
      "v": 74
    },
    {
      "midi": 71,
      "hit": false,
      "t": 260258.3333333316,
      "d": 58.333333333343035,
      "v": 73
    },
    {
      "midi": 66,
      "hit": false,
      "t": 260258.3333333316,
      "d": 75,
      "v": 66
    },
    {
      "midi": 63,
      "hit": false,
      "t": 260270.8333333316,
      "d": 25,
      "v": 58
    },
    {
      "midi": 59,
      "hit": false,
      "t": 260462.49999999825,
      "d": 49.999999999970896,
      "v": 58
    },
    {
      "midi": 83,
      "hit": false,
      "t": 260466.6666666649,
      "d": 75,
      "v": 69
    },
    {
      "midi": 75,
      "hit": false,
      "t": 260470.83333333157,
      "d": 50,
      "v": 73
    },
    {
      "midi": 79,
      "hit": false,
      "t": 260637.49999999825,
      "d": 75,
      "v": 64
    },
    {
      "midi": 70,
      "hit": false,
      "t": 260645.8333333316,
      "d": 66.66666666665697,
      "v": 56
    },
    {
      "midi": 76,
      "hit": false,
      "t": 260649.99999999825,
      "d": 37.5,
      "v": 58
    },
    {
      "midi": 75,
      "hit": false,
      "t": 260862.49999999825,
      "d": 41.666666666656965,
      "v": 69
    },
    {
      "midi": 78,
      "hit": false,
      "t": 260862.49999999825,
      "d": 41.666666666656965,
      "v": 65
    },
    {
      "midi": 71,
      "hit": false,
      "t": 260862.49999999825,
      "d": 54.166666666656965,
      "v": 58
    },
    {
      "midi": 59,
      "hit": false,
      "t": 261049.99999999825,
      "d": 66.66666666665697,
      "v": 61
    },
    {
      "midi": 88,
      "hit": false,
      "t": 261258.33333333157,
      "d": 79.16666666665697,
      "v": 79
    },
    {
      "midi": 87,
      "hit": false,
      "t": 261354.16666666488,
      "d": 91.66666666668607,
      "v": 71
    },
    {
      "midi": 40,
      "hit": false,
      "t": 261437.49999999822,
      "d": 12.5,
      "v": 70
    },
    {
      "midi": 52,
      "hit": false,
      "t": 261445.83333333157,
      "d": 25,
      "v": 58
    },
    {
      "midi": 88,
      "hit": false,
      "t": 261449.99999999822,
      "d": 58.333333333343035,
      "v": 89
    },
    {
      "midi": 79,
      "hit": false,
      "t": 261645.83333333157,
      "d": 45.833333333343035,
      "v": 66
    },
    {
      "midi": 83,
      "hit": false,
      "t": 261654.1666666649,
      "d": 62.5,
      "v": 53
    },
    {
      "midi": 84,
      "hit": false,
      "t": 261833.33333333157,
      "d": 145.83333333334303,
      "v": 80
    },
    {
      "midi": 76,
      "hit": false,
      "t": 261837.49999999822,
      "d": 79.16666666668607,
      "v": 77
    },
    {
      "midi": 81,
      "hit": false,
      "t": 261845.83333333157,
      "d": 20.833333333343035,
      "v": 77
    },
    {
      "midi": 81,
      "hit": false,
      "t": 261883.33333333157,
      "d": 33.333333333343035,
      "v": 20
    },
    {
      "midi": 75,
      "hit": false,
      "t": 261924.99999999825,
      "d": 66.66666666665697,
      "v": 90
    },
    {
      "midi": 76,
      "hit": false,
      "t": 262012.49999999825,
      "d": 62.5,
      "v": 81
    },
    {
      "midi": 79,
      "hit": false,
      "t": 262024.99999999825,
      "d": 37.5,
      "v": 80
    },
    {
      "midi": 83,
      "hit": false,
      "t": 262024.99999999825,
      "d": 58.333333333343035,
      "v": 80
    },
    {
      "midi": 71,
      "hit": false,
      "t": 262199.99999999825,
      "d": 33.33333333337214,
      "v": 67
    },
    {
      "midi": 79,
      "hit": false,
      "t": 262199.99999999825,
      "d": 50.00000000005821,
      "v": 77
    },
    {
      "midi": 76,
      "hit": false,
      "t": 262229.16666666494,
      "d": 70.83333333337214,
      "v": 50
    },
    {
      "midi": 81,
      "hit": false,
      "t": 262395.8333333316,
      "d": 124.99999999994179,
      "v": 84
    },
    {
      "midi": 76,
      "hit": false,
      "t": 262404.16666666494,
      "d": 58.33333333331393,
      "v": 77
    },
    {
      "midi": 72,
      "hit": false,
      "t": 262404.16666666494,
      "d": 83.33333333331393,
      "v": 79
    },
    {
      "midi": 75,
      "hit": false,
      "t": 262479.16666666494,
      "d": 83.33333333331393,
      "v": 83
    },
    {
      "midi": 71,
      "hit": false,
      "t": 262583.33333333157,
      "d": 50,
      "v": 80
    },
    {
      "midi": 79,
      "hit": false,
      "t": 262583.33333333157,
      "d": 54.16666666668607,
      "v": 77
    },
    {
      "midi": 76,
      "hit": false,
      "t": 262604.1666666649,
      "d": 12.5,
      "v": 72
    },
    {
      "midi": 67,
      "hit": false,
      "t": 262774.99999999825,
      "d": 20.83333333331393,
      "v": 66
    },
    {
      "midi": 71,
      "hit": false,
      "t": 262774.99999999825,
      "d": 25,
      "v": 64
    },
    {
      "midi": 76,
      "hit": false,
      "t": 262774.99999999825,
      "d": 37.5,
      "v": 80
    },
    {
      "midi": 69,
      "hit": false,
      "t": 262949.99999999825,
      "d": 58.33333333331393,
      "v": 70
    },
    {
      "midi": 78,
      "hit": false,
      "t": 262949.99999999825,
      "d": 70.83333333331393,
      "v": 92
    },
    {
      "midi": 72,
      "hit": false,
      "t": 262958.33333333157,
      "d": 45.83333333331393,
      "v": 68
    },
    {
      "midi": 64,
      "hit": false,
      "t": 262958.33333333157,
      "d": 70.83333333331393,
      "v": 79
    },
    {
      "midi": 63,
      "hit": false,
      "t": 263029.1666666649,
      "d": 62.5,
      "v": 92
    },
    {
      "midi": 64,
      "hit": false,
      "t": 263108.33333333157,
      "d": 162.5000000000582,
      "v": 80
    },
    {
      "midi": 76,
      "hit": false,
      "t": 263112.49999999825,
      "d": 62.50000000005821,
      "v": 83
    },
    {
      "midi": 71,
      "hit": false,
      "t": 263124.99999999825,
      "d": 20.83333333337214,
      "v": 75
    },
    {
      "midi": 67,
      "hit": false,
      "t": 263129.16666666494,
      "d": 16.66666666668607,
      "v": 66
    },
    {
      "midi": 71,
      "hit": false,
      "t": 263299.9999999983,
      "d": 16.66666666668607,
      "v": 75
    },
    {
      "midi": 52,
      "hit": false,
      "t": 263304.166666665,
      "d": 50,
      "v": 76
    },
    {
      "midi": 67,
      "hit": false,
      "t": 263312.4999999983,
      "d": 20.83333333337214,
      "v": 55
    },
    {
      "midi": 81,
      "hit": false,
      "t": 263508.3333333317,
      "d": 66.66666666668607,
      "v": 73
    },
    {
      "midi": 80,
      "hit": false,
      "t": 263591.66666666506,
      "d": 87.5,
      "v": 66
    },
    {
      "midi": 33,
      "hit": false,
      "t": 263687.49999999837,
      "d": 29.16666666668607,
      "v": 70
    },
    {
      "midi": 45,
      "hit": false,
      "t": 263687.49999999837,
      "d": 45.83333333337214,
      "v": 80
    },
    {
      "midi": 81,
      "hit": false,
      "t": 263687.49999999837,
      "d": 50.00000000005821,
      "v": 77
    },
    {
      "midi": 76,
      "hit": false,
      "t": 263874.9999999984,
      "d": 50,
      "v": 70
    },
    {
      "midi": 73,
      "hit": false,
      "t": 263883.33333333174,
      "d": 54.16666666668607,
      "v": 66
    },
    {
      "midi": 78,
      "hit": false,
      "t": 264049.9999999984,
      "d": 108.33333333331393,
      "v": 73
    },
    {
      "midi": 69,
      "hit": false,
      "t": 264062.4999999984,
      "d": 62.5,
      "v": 62
    },
    {
      "midi": 74,
      "hit": false,
      "t": 264066.6666666651,
      "d": 45.83333333331393,
      "v": 77
    },
    {
      "midi": 68,
      "hit": false,
      "t": 264133.33333333174,
      "d": 66.66666666668607,
      "v": 73
    },
    {
      "midi": 69,
      "hit": false,
      "t": 264229.1666666651,
      "d": 54.16666666662786,
      "v": 66
    },
    {
      "midi": 73,
      "hit": false,
      "t": 264237.4999999984,
      "d": 37.5,
      "v": 77
    },
    {
      "midi": 76,
      "hit": false,
      "t": 264237.4999999984,
      "d": 58.33333333331393,
      "v": 73
    },
    {
      "midi": 73,
      "hit": false,
      "t": 264429.16666666506,
      "d": 33.33333333337214,
      "v": 67
    },
    {
      "midi": 64,
      "hit": false,
      "t": 264437.49999999837,
      "d": 20.83333333337214,
      "v": 59
    },
    {
      "midi": 69,
      "hit": false,
      "t": 264441.66666666506,
      "d": 29.16666666668607,
      "v": 55
    },
    {
      "midi": 74,
      "hit": false,
      "t": 264608.33333333174,
      "d": 104.16666666656965,
      "v": 64
    },
    {
      "midi": 69,
      "hit": false,
      "t": 264616.66666666506,
      "d": 37.49999999994179,
      "v": 51
    },
    {
      "midi": 66,
      "hit": false,
      "t": 264624.99999999837,
      "d": 20.83333333331393,
      "v": 64
    },
    {
      "midi": 68,
      "hit": false,
      "t": 264699.9999999983,
      "d": 70.83333333331393,
      "v": 77
    },
    {
      "midi": 64,
      "hit": false,
      "t": 264791.66666666494,
      "d": 70.83333333337214,
      "v": 69
    },
    {
      "midi": 73,
      "hit": false,
      "t": 264795.8333333316,
      "d": 91.66666666668607,
      "v": 79
    },
    {
      "midi": 61,
      "hit": false,
      "t": 264966.666666665,
      "d": 25,
      "v": 67
    },
    {
      "midi": 69,
      "hit": false,
      "t": 264966.666666665,
      "d": 41.66666666668607,
      "v": 70
    },
    {
      "midi": 64,
      "hit": false,
      "t": 264983.3333333317,
      "d": 20.83333333331393,
      "v": 56
    },
    {
      "midi": 71,
      "hit": false,
      "t": 265154.166666665,
      "d": 45.83333333331393,
      "v": 67
    },
    {
      "midi": 66,
      "hit": false,
      "t": 265158.3333333317,
      "d": 41.66666666662786,
      "v": 69
    },
    {
      "midi": 62,
      "hit": false,
      "t": 265166.666666665,
      "d": 20.83333333331393,
      "v": 51
    },
    {
      "midi": 57,
      "hit": false,
      "t": 265166.666666665,
      "d": 62.5,
      "v": 65
    },
    {
      "midi": 56,
      "hit": false,
      "t": 265249.99999999837,
      "d": 54.16666666668607,
      "v": 75
    },
    {
      "midi": 69,
      "hit": false,
      "t": 265320.83333333174,
      "d": 191.66666666668607,
      "v": 58
    },
    {
      "midi": 57,
      "hit": false,
      "t": 265337.4999999984,
      "d": 175,
      "v": 78
    },
    {
      "midi": 61,
      "hit": false,
      "t": 265341.6666666651,
      "d": 108.33333333331393,
      "v": 66
    },
    {
      "midi": 64,
      "hit": false,
      "t": 265341.6666666651,
      "d": 158.33333333331393,
      "v": 63
    },
    {
      "midi": 45,
      "hit": false,
      "t": 265520.83333333174,
      "d": 33.33333333331393,
      "v": 73
    },
    {
      "midi": 61,
      "hit": false,
      "t": 265524.9999999984,
      "d": 41.66666666662786,
      "v": 77
    },
    {
      "midi": 50,
      "hit": false,
      "t": 265712.49999999837,
      "d": 50,
      "v": 79
    },
    {
      "midi": 62,
      "hit": false,
      "t": 265712.49999999837,
      "d": 50,
      "v": 88
    },
    {
      "midi": 49,
      "hit": false,
      "t": 265791.66666666506,
      "d": 41.66666666668607,
      "v": 84
    },
    {
      "midi": 61,
      "hit": false,
      "t": 265795.83333333174,
      "d": 58.33333333331393,
      "v": 91
    },
    {
      "midi": 66,
      "hit": false,
      "t": 265879.16666666506,
      "d": 216.66666666668607,
      "v": 93
    },
    {
      "midi": 62,
      "hit": false,
      "t": 265895.83333333174,
      "d": 200,
      "v": 92
    },
    {
      "midi": 50,
      "hit": false,
      "t": 265895.83333333174,
      "d": 408.33333333331393,
      "v": 84
    },
    {
      "midi": 38,
      "hit": false,
      "t": 265895.83333333174,
      "d": 445.83333333331393,
      "v": 77
    },
    {
      "midi": 57,
      "hit": false,
      "t": 266066.66666666506,
      "d": 50,
      "v": 84
    },
    {
      "midi": 45,
      "hit": false,
      "t": 266070.83333333174,
      "d": 20.83333333331393,
      "v": 73
    },
    {
      "midi": 67,
      "hit": false,
      "t": 266241.66666666506,
      "d": 54.16666666668607,
      "v": 87
    },
    {
      "midi": 58,
      "hit": false,
      "t": 266249.99999999837,
      "d": 45.83333333337214,
      "v": 93
    },
    {
      "midi": 46,
      "hit": false,
      "t": 266254.16666666506,
      "d": 83.33333333331393,
      "v": 83
    },
    {
      "midi": 50,
      "hit": false,
      "t": 266437.49999999837,
      "d": 216.66666666668607,
      "v": 65
    },
    {
      "midi": 66,
      "hit": false,
      "t": 266437.49999999837,
      "d": 295.83333333331393,
      "v": 95
    },
    {
      "midi": 57,
      "hit": false,
      "t": 266445.8333333317,
      "d": 266.66666666668607,
      "v": 82
    },
    {
      "midi": 38,
      "hit": false,
      "t": 266612.49999999837,
      "d": 66.66666666668607,
      "v": 80
    },
    {
      "midi": 50,
      "hit": false,
      "t": 266799.99999999837,
      "d": 58.33333333337214,
      "v": 51
    },
    {
      "midi": 62,
      "hit": false,
      "t": 266804.16666666506,
      "d": 54.16666666668607,
      "v": 66
    },
    {
      "midi": 49,
      "hit": false,
      "t": 266866.66666666506,
      "d": 41.66666666668607,
      "v": 63
    },
    {
      "midi": 61,
      "hit": false,
      "t": 266883.33333333174,
      "d": 54.16666666668607,
      "v": 69
    },
    {
      "midi": 66,
      "hit": false,
      "t": 266970.83333333174,
      "d": 158.33333333331393,
      "v": 75
    },
    {
      "midi": 50,
      "hit": false,
      "t": 266970.83333333174,
      "d": 687.4999999999418,
      "v": 71
    },
    {
      "midi": 38,
      "hit": false,
      "t": 266979.16666666506,
      "d": 449.9999999999418,
      "v": 63
    },
    {
      "midi": 57,
      "hit": false,
      "t": 266991.66666666506,
      "d": 70.83333333331393,
      "v": 66
    },
    {
      "midi": 45,
      "hit": false,
      "t": 267166.66666666506,
      "d": 12.5,
      "v": 59
    },
    {
      "midi": 57,
      "hit": false,
      "t": 267166.66666666506,
      "d": 45.83333333331393,
      "v": 67
    },
    {
      "midi": 58,
      "hit": false,
      "t": 267320.8333333317,
      "d": 41.66666666668607,
      "v": 71
    },
    {
      "midi": 46,
      "hit": false,
      "t": 267324.99999999837,
      "d": 58.33333333331393,
      "v": 64
    },
    {
      "midi": 67,
      "hit": false,
      "t": 267337.49999999837,
      "d": 8.33333333331393,
      "v": 58
    },
    {
      "midi": 66,
      "hit": false,
      "t": 267508.3333333317,
      "d": 333.33333333331393,
      "v": 73
    },
    {
      "midi": 45,
      "hit": false,
      "t": 267512.49999999837,
      "d": 187.5,
      "v": 70
    },
    {
      "midi": 57,
      "hit": false,
      "t": 267524.99999999837,
      "d": 279.16666666662786,
      "v": 56
    },
    {
      "midi": 38,
      "hit": false,
      "t": 267687.49999999837,
      "d": 212.4999999999418,
      "v": 58
    },
    {
      "midi": 62,
      "hit": false,
      "t": 267866.666666665,
      "d": 62.5,
      "v": 85
    },
    {
      "midi": 50,
      "hit": false,
      "t": 267887.4999999983,
      "d": 54.16666666668607,
      "v": 24
    },
    {
      "midi": 49,
      "hit": false,
      "t": 267937.4999999983,
      "d": 45.83333333337214,
      "v": 107
    },
    {
      "midi": 61,
      "hit": false,
      "t": 267941.666666665,
      "d": 58.33333333337214,
      "v": 98
    },
    {
      "midi": 66,
      "hit": false,
      "t": 268033.3333333317,
      "d": 208.33333333337214,
      "v": 98
    },
    {
      "midi": 62,
      "hit": false,
      "t": 268049.99999999837,
      "d": 200,
      "v": 95
    },
    {
      "midi": 38,
      "hit": false,
      "t": 268049.99999999837,
      "d": 245.83333333331393,
      "v": 87
    },
    {
      "midi": 50,
      "hit": false,
      "t": 268054.16666666506,
      "d": 720.8333333333721,
      "v": 99
    },
    {
      "midi": 45,
      "hit": false,
      "t": 268233.33333333174,
      "d": 24.999999999941792,
      "v": 94
    },
    {
      "midi": 57,
      "hit": false,
      "t": 268249.99999999837,
      "d": 33.33333333331393,
      "v": 94
    },
    {
      "midi": 58,
      "hit": false,
      "t": 268420.8333333317,
      "d": 50,
      "v": 105
    },
    {
      "midi": 67,
      "hit": false,
      "t": 268420.8333333317,
      "d": 62.5,
      "v": 99
    },
    {
      "midi": 46,
      "hit": false,
      "t": 268420.8333333317,
      "d": 79.16666666668607,
      "v": 91
    },
    {
      "midi": 66,
      "hit": false,
      "t": 268591.66666666506,
      "d": 204.16666666674428,
      "v": 105
    },
    {
      "midi": 45,
      "hit": false,
      "t": 268608.33333333174,
      "d": 183.33333333337214,
      "v": 91
    },
    {
      "midi": 57,
      "hit": false,
      "t": 268612.4999999984,
      "d": 158.33333333331393,
      "v": 79
    },
    {
      "midi": 38,
      "hit": false,
      "t": 268791.6666666651,
      "d": 408.33333333337214,
      "v": 78
    },
    {
      "midi": 66,
      "hit": false,
      "t": 268979.1666666651,
      "d": 170.83333333331393,
      "v": 94
    },
    {
      "midi": 57,
      "hit": false,
      "t": 268999.9999999984,
      "d": 154.16666666668607,
      "v": 73
    },
    {
      "midi": 45,
      "hit": false,
      "t": 269170.8333333318,
      "d": 216.66666666668607,
      "v": 89
    },
    {
      "midi": 38,
      "hit": false,
      "t": 269362.4999999985,
      "d": 416.6666666667443,
      "v": 76
    },
    {
      "midi": 66,
      "hit": false,
      "t": 269549.9999999985,
      "d": 250.0000000000582,
      "v": 89
    },
    {
      "midi": 54,
      "hit": false,
      "t": 269566.6666666652,
      "d": 250.0000000000582,
      "v": 69
    },
    {
      "midi": 62,
      "hit": false,
      "t": 269570.83333333186,
      "d": 250.0000000000582,
      "v": 69
    },
    {
      "midi": 57,
      "hit": false,
      "t": 269574.99999999854,
      "d": 245.83333333337214,
      "v": 69
    },
    {
      "midi": 45,
      "hit": false,
      "t": 269754.16666666523,
      "d": 233.33333333331393,
      "v": 85
    },
    {
      "midi": 38,
      "hit": false,
      "t": 269941.66666666523,
      "d": 216.66666666662786,
      "v": 66
    },
    {
      "midi": 66,
      "hit": false,
      "t": 270158.33333333186,
      "d": 187.5,
      "v": 60
    },
    {
      "midi": 54,
      "hit": false,
      "t": 270166.6666666652,
      "d": 179.16666666668607,
      "v": 63
    },
    {
      "midi": 62,
      "hit": false,
      "t": 270166.6666666652,
      "d": 191.66666666668607,
      "v": 63
    },
    {
      "midi": 57,
      "hit": false,
      "t": 270170.83333333186,
      "d": 191.66666666668607,
      "v": 63
    },
    {
      "midi": 46,
      "hit": false,
      "t": 270374.99999999854,
      "d": 212.5,
      "v": 70
    },
    {
      "midi": 36,
      "hit": false,
      "t": 270587.49999999854,
      "d": 162.5,
      "v": 68
    },
    {
      "midi": 67,
      "hit": false,
      "t": 270754.16666666523,
      "d": 175.0000000000582,
      "v": 73
    },
    {
      "midi": 58,
      "hit": false,
      "t": 270758.3333333319,
      "d": 170.83333333337214,
      "v": 57
    },
    {
      "midi": 55,
      "hit": false,
      "t": 270762.4999999986,
      "d": 175,
      "v": 57
    },
    {
      "midi": 64,
      "hit": false,
      "t": 270762.4999999986,
      "d": 175,
      "v": 57
    },
    {
      "midi": 46,
      "hit": false,
      "t": 270937.4999999986,
      "d": 208.33333333331393,
      "v": 66
    },
    {
      "midi": 36,
      "hit": false,
      "t": 271124.9999999986,
      "d": 212.5,
      "v": 59
    },
    {
      "midi": 58,
      "hit": false,
      "t": 271320.8333333319,
      "d": 179.16666666668607,
      "v": 51
    },
    {
      "midi": 67,
      "hit": false,
      "t": 271324.9999999986,
      "d": 175,
      "v": 66
    },
    {
      "midi": 55,
      "hit": false,
      "t": 271324.9999999986,
      "d": 179.16666666668607,
      "v": 51
    },
    {
      "midi": 64,
      "hit": false,
      "t": 271324.9999999986,
      "d": 179.16666666668607,
      "v": 51
    },
    {
      "midi": 46,
      "hit": false,
      "t": 271520.833333332,
      "d": 241.66666666662786,
      "v": 55
    },
    {
      "midi": 36,
      "hit": false,
      "t": 271729.1666666653,
      "d": 237.5,
      "v": 52
    },
    {
      "midi": 58,
      "hit": false,
      "t": 271949.9999999986,
      "d": 179.16666666668607,
      "v": 45
    },
    {
      "midi": 55,
      "hit": false,
      "t": 271958.3333333319,
      "d": 175.0000000000582,
      "v": 45
    },
    {
      "midi": 64,
      "hit": false,
      "t": 271958.3333333319,
      "d": 175.0000000000582,
      "v": 45
    },
    {
      "midi": 67,
      "hit": false,
      "t": 271962.4999999986,
      "d": 170.83333333337214,
      "v": 58
    },
    {
      "midi": 46,
      "hit": false,
      "t": 272229.1666666653,
      "d": 379.16666666668607,
      "v": 49
    },
    {
      "midi": 36,
      "hit": false,
      "t": 272554.1666666653,
      "d": 362.5,
      "v": 37
    },
    {
      "midi": 80,
      "hit": false,
      "t": 273187.4999999986,
      "d": 91.66666666668607,
      "v": 46
    },
    {
      "midi": 76,
      "hit": false,
      "t": 273191.6666666653,
      "d": 79.16666666668607,
      "v": 36
    },
    {
      "midi": 75,
      "hit": false,
      "t": 273279.1666666653,
      "d": 120.83333333337214,
      "v": 59
    },
    {
      "midi": 76,
      "hit": false,
      "t": 273383.333333332,
      "d": 108.33333333337214,
      "v": 63
    },
    {
      "midi": 80,
      "hit": false,
      "t": 273383.333333332,
      "d": 116.66666666668607,
      "v": 55
    },
    {
      "midi": 35,
      "hit": false,
      "t": 273387.49999999866,
      "d": 116.66666666668607,
      "v": 44
    },
    {
      "midi": 47,
      "hit": false,
      "t": 273399.99999999866,
      "d": 108.33333333337214,
      "v": 26
    },
    {
      "midi": 68,
      "hit": false,
      "t": 273608.33333333203,
      "d": 87.50000000005821,
      "v": 44
    },
    {
      "midi": 40,
      "hit": false,
      "t": 273612.4999999987,
      "d": 66.66666666668607,
      "v": 22
    },
    {
      "midi": 76,
      "hit": false,
      "t": 273820.8333333321,
      "d": 66.66666666662786,
      "v": 46
    },
    {
      "midi": 80,
      "hit": false,
      "t": 273820.8333333321,
      "d": 87.49999999994179,
      "v": 45
    },
    {
      "midi": 40,
      "hit": false,
      "t": 273841.6666666654,
      "d": 33.33333333331393,
      "v": 44
    },
    {
      "midi": 75,
      "hit": false,
      "t": 273916.66666666535,
      "d": 112.5,
      "v": 59
    },
    {
      "midi": 40,
      "hit": false,
      "t": 273937.49999999866,
      "d": 70.83333333331393,
      "v": 19
    },
    {
      "midi": 80,
      "hit": false,
      "t": 274020.833333332,
      "d": 129.16666666668607,
      "v": 58
    },
    {
      "midi": 44,
      "hit": false,
      "t": 274024.99999999866,
      "d": 162.5,
      "v": 53
    },
    {
      "midi": 76,
      "hit": false,
      "t": 274029.16666666535,
      "d": 120.83333333331393,
      "v": 66
    },
    {
      "midi": 32,
      "hit": false,
      "t": 274029.16666666535,
      "d": 208.33333333331393,
      "v": 45
    },
    {
      "midi": 40,
      "hit": false,
      "t": 274258.333333332,
      "d": 95.83333333331393,
      "v": 46
    },
    {
      "midi": 68,
      "hit": false,
      "t": 274258.333333332,
      "d": 95.83333333331393,
      "v": 47
    },
    {
      "midi": 80,
      "hit": false,
      "t": 274458.333333332,
      "d": 62.5,
      "v": 48
    },
    {
      "midi": 76,
      "hit": false,
      "t": 274462.49999999866,
      "d": 58.33333333331393,
      "v": 54
    },
    {
      "midi": 40,
      "hit": false,
      "t": 274462.49999999866,
      "d": 195.83333333331393,
      "v": 55
    },
    {
      "midi": 75,
      "hit": false,
      "t": 274529.1666666653,
      "d": 104.16666666668607,
      "v": 66
    },
    {
      "midi": 76,
      "hit": false,
      "t": 274637.49999999866,
      "d": 91.66666666662786,
      "v": 66
    },
    {
      "midi": 80,
      "hit": false,
      "t": 274637.49999999866,
      "d": 91.66666666662786,
      "v": 62
    },
    {
      "midi": 45,
      "hit": false,
      "t": 274645.833333332,
      "d": 95.83333333331393,
      "v": 58
    },
    {
      "midi": 33,
      "hit": false,
      "t": 274645.833333332,
      "d": 133.33333333331393,
      "v": 51
    },
    {
      "midi": 40,
      "hit": false,
      "t": 274841.6666666653,
      "d": 83.33333333331393,
      "v": 51
    },
    {
      "midi": 68,
      "hit": false,
      "t": 274841.6666666653,
      "d": 104.16666666662786,
      "v": 53
    },
    {
      "midi": 76,
      "hit": false,
      "t": 275020.8333333319,
      "d": 54.16666666668607,
      "v": 66
    },
    {
      "midi": 80,
      "hit": false,
      "t": 275020.8333333319,
      "d": 70.83333333337214,
      "v": 62
    },
    {
      "midi": 40,
      "hit": false,
      "t": 275020.8333333319,
      "d": 195.83333333337214,
      "v": 63
    },
    {
      "midi": 75,
      "hit": false,
      "t": 275095.833333332,
      "d": 104.16666666668607,
      "v": 66
    },
    {
      "midi": 76,
      "hit": false,
      "t": 275199.99999999866,
      "d": 79.16666666662786,
      "v": 69
    },
    {
      "midi": 80,
      "hit": false,
      "t": 275199.99999999866,
      "d": 79.16666666662786,
      "v": 64
    },
    {
      "midi": 34,
      "hit": false,
      "t": 275199.99999999866,
      "d": 183.33333333325572,
      "v": 59
    },
    {
      "midi": 46,
      "hit": false,
      "t": 275208.333333332,
      "d": 104.16666666662786,
      "v": 73
    },
    {
      "midi": 68,
      "hit": false,
      "t": 275383.3333333319,
      "d": 100,
      "v": 63
    },
    {
      "midi": 40,
      "hit": false,
      "t": 275387.4999999986,
      "d": 70.83333333331393,
      "v": 65
    },
    {
      "midi": 80,
      "hit": false,
      "t": 275562.4999999986,
      "d": 83.33333333337214,
      "v": 60
    },
    {
      "midi": 40,
      "hit": false,
      "t": 275566.6666666653,
      "d": 204.16666666668607,
      "v": 73
    },
    {
      "midi": 76,
      "hit": false,
      "t": 275570.833333332,
      "d": 62.5,
      "v": 69
    },
    {
      "midi": 75,
      "hit": false,
      "t": 275645.833333332,
      "d": 91.66666666668607,
      "v": 74
    },
    {
      "midi": 80,
      "hit": false,
      "t": 275741.66666666535,
      "d": 112.49999999994179,
      "v": 71
    },
    {
      "midi": 76,
      "hit": false,
      "t": 275749.99999999866,
      "d": 95.83333333331393,
      "v": 71
    },
    {
      "midi": 47,
      "hit": false,
      "t": 275749.99999999866,
      "d": 116.66666666662786,
      "v": 71
    },
    {
      "midi": 40,
      "hit": false,
      "t": 275929.1666666653,
      "d": 91.66666666668607,
      "v": 76
    },
    {
      "midi": 68,
      "hit": false,
      "t": 275929.1666666653,
      "d": 166.66666666668607,
      "v": 78
    },
    {
      "midi": 80,
      "hit": false,
      "t": 276095.833333332,
      "d": 70.83333333331393,
      "v": 63
    },
    {
      "midi": 76,
      "hit": false,
      "t": 276104.1666666653,
      "d": 50,
      "v": 72
    },
    {
      "midi": 40,
      "hit": false,
      "t": 276112.4999999986,
      "d": 120.83333333331393,
      "v": 80
    },
    {
      "midi": 75,
      "hit": false,
      "t": 276174.9999999986,
      "d": 83.33333333331393,
      "v": 75
    },
    {
      "midi": 80,
      "hit": false,
      "t": 276270.8333333319,
      "d": 145.83333333337214,
      "v": 71
    },
    {
      "midi": 36,
      "hit": false,
      "t": 276274.9999999986,
      "d": 187.5000000000582,
      "v": 77
    },
    {
      "midi": 48,
      "hit": false,
      "t": 276279.1666666653,
      "d": 166.66666666668607,
      "v": 77
    },
    {
      "midi": 76,
      "hit": false,
      "t": 276291.6666666653,
      "d": 112.5,
      "v": 69
    },
    {
      "midi": 68,
      "hit": false,
      "t": 276462.49999999866,
      "d": 170.83333333337214,
      "v": 80
    },
    {
      "midi": 40,
      "hit": false,
      "t": 276466.66666666535,
      "d": 87.5,
      "v": 81
    },
    {
      "midi": 76,
      "hit": false,
      "t": 276645.83333333203,
      "d": 45.83333333337214,
      "v": 79
    },
    {
      "midi": 80,
      "hit": false,
      "t": 276645.83333333203,
      "d": 50.00000000005821,
      "v": 74
    },
    {
      "midi": 40,
      "hit": false,
      "t": 276649.9999999987,
      "d": 133.33333333331393,
      "v": 74
    },
    {
      "midi": 75,
      "hit": false,
      "t": 276729.1666666654,
      "d": 45.83333333331393,
      "v": 63
    },
    {
      "midi": 37,
      "hit": false,
      "t": 276799.9999999987,
      "d": 37.5,
      "v": 77
    },
    {
      "midi": 75,
      "hit": false,
      "t": 276804.1666666654,
      "d": 54.16666666668607,
      "v": 58
    },
    {
      "midi": 80,
      "hit": false,
      "t": 276804.1666666654,
      "d": 100,
      "v": 82
    },
    {
      "midi": 49,
      "hit": false,
      "t": 276812.4999999987,
      "d": 41.66666666668607,
      "v": 90
    },
    {
      "midi": 76,
      "hit": false,
      "t": 276820.83333333203,
      "d": 58.33333333337214,
      "v": 71
    },
    {
      "midi": 76,
      "hit": false,
      "t": 277004.1666666654,
      "d": 50,
      "v": 73
    },
    {
      "midi": 61,
      "hit": false,
      "t": 277004.1666666654,
      "d": 62.5,
      "v": 83
    },
    {
      "midi": 81,
      "hit": false,
      "t": 277008.3333333321,
      "d": 75,
      "v": 92
    },
    {
      "midi": 75,
      "hit": false,
      "t": 277187.4999999988,
      "d": 50,
      "v": 86
    },
    {
      "midi": 80,
      "hit": false,
      "t": 277187.4999999988,
      "d": 50,
      "v": 81
    },
    {
      "midi": 59,
      "hit": false,
      "t": 277191.66666666546,
      "d": 104.16666666662786,
      "v": 68
    },
    {
      "midi": 78,
      "hit": false,
      "t": 277366.6666666654,
      "d": 75,
      "v": 76
    },
    {
      "midi": 73,
      "hit": false,
      "t": 277374.9999999987,
      "d": 70.83333333337214,
      "v": 80
    },
    {
      "midi": 57,
      "hit": false,
      "t": 277374.9999999987,
      "d": 83.33333333337214,
      "v": 63
    },
    {
      "midi": 76,
      "hit": false,
      "t": 277533.3333333321,
      "d": 79.16666666662786,
      "v": 75
    },
    {
      "midi": 71,
      "hit": false,
      "t": 277541.6666666654,
      "d": 45.83333333331393,
      "v": 66
    },
    {
      "midi": 56,
      "hit": false,
      "t": 277549.9999999987,
      "d": 129.16666666668607,
      "v": 62
    },
    {
      "midi": 59,
      "hit": false,
      "t": 277720.8333333321,
      "d": 145.83333333337214,
      "v": 57
    },
    {
      "midi": 75,
      "hit": false,
      "t": 277729.1666666654,
      "d": 62.50000000005821,
      "v": 76
    },
    {
      "midi": 69,
      "hit": false,
      "t": 277733.3333333321,
      "d": 29.16666666668607,
      "v": 58
    },
    {
      "midi": 76,
      "hit": false,
      "t": 277937.4999999988,
      "d": 75,
      "v": 80
    },
    {
      "midi": 68,
      "hit": false,
      "t": 277941.66666666546,
      "d": 70.83333333331393,
      "v": 66
    },
    {
      "midi": 52,
      "hit": false,
      "t": 277962.4999999988,
      "d": 50,
      "v": 44
    },
    {
      "midi": 80,
      "hit": false,
      "t": 278174.9999999988,
      "d": 58.33333333331393,
      "v": 54
    },
    {
      "midi": 76,
      "hit": false,
      "t": 278174.9999999988,
      "d": 62.5,
      "v": 51
    },
    {
      "midi": 78,
      "hit": false,
      "t": 278254.16666666546,
      "d": 66.66666666668607,
      "v": 48
    },
    {
      "midi": 75,
      "hit": false,
      "t": 278254.16666666546,
      "d": 83.33333333337214,
      "v": 48
    },
    {
      "midi": 80,
      "hit": false,
      "t": 278345.83333333215,
      "d": 70.83333333331393,
      "v": 57
    },
    {
      "midi": 76,
      "hit": false,
      "t": 278354.16666666546,
      "d": 70.83333333331393,
      "v": 52
    },
    {
      "midi": 44,
      "hit": false,
      "t": 278354.16666666546,
      "d": 83.33333333331393,
      "v": 66
    },
    {
      "midi": 75,
      "hit": false,
      "t": 278437.4999999988,
      "d": 95.83333333337214,
      "v": 45
    },
    {
      "midi": 78,
      "hit": false,
      "t": 278441.66666666546,
      "d": 91.66666666668607,
      "v": 50
    },
    {
      "midi": 80,
      "hit": false,
      "t": 278541.66666666546,
      "d": 62.5,
      "v": 53
    },
    {
      "midi": 76,
      "hit": false,
      "t": 278541.66666666546,
      "d": 70.83333333331393,
      "v": 49
    },
    {
      "midi": 32,
      "hit": false,
      "t": 278541.66666666546,
      "d": 170.83333333331393,
      "v": 42
    },
    {
      "midi": 78,
      "hit": false,
      "t": 278624.9999999988,
      "d": 83.33333333331393,
      "v": 45
    },
    {
      "midi": 75,
      "hit": false,
      "t": 278629.16666666546,
      "d": 70.83333333331393,
      "v": 39
    },
    {
      "midi": 44,
      "hit": false,
      "t": 278708.3333333321,
      "d": 12.5,
      "v": 57
    },
    {
      "midi": 80,
      "hit": false,
      "t": 278712.4999999988,
      "d": 62.5,
      "v": 53
    },
    {
      "midi": 76,
      "hit": false,
      "t": 278712.4999999988,
      "d": 70.83333333331393,
      "v": 48
    },
    {
      "midi": 75,
      "hit": false,
      "t": 278795.8333333321,
      "d": 70.83333333331393,
      "v": 54
    },
    {
      "midi": 78,
      "hit": false,
      "t": 278795.8333333321,
      "d": 83.33333333331393,
      "v": 57
    },
    {
      "midi": 56,
      "hit": false,
      "t": 278866.6666666654,
      "d": 62.5,
      "v": 79
    },
    {
      "midi": 76,
      "hit": false,
      "t": 278874.9999999987,
      "d": 66.66666666668607,
      "v": 59
    },
    {
      "midi": 80,
      "hit": false,
      "t": 278874.9999999987,
      "d": 70.83333333337214,
      "v": 64
    },
    {
      "midi": 75,
      "hit": false,
      "t": 278958.3333333321,
      "d": 91.66666666668607,
      "v": 55
    },
    {
      "midi": 78,
      "hit": false,
      "t": 278958.3333333321,
      "d": 104.16666666668607,
      "v": 61
    },
    {
      "midi": 57,
      "hit": false,
      "t": 279054.16666666546,
      "d": 54.16666666662786,
      "v": 73
    },
    {
      "midi": 80,
      "hit": false,
      "t": 279054.16666666546,
      "d": 79.16666666662786,
      "v": 63
    },
    {
      "midi": 76,
      "hit": false,
      "t": 279062.4999999988,
      "d": 87.5,
      "v": 55
    },
    {
      "midi": 78,
      "hit": false,
      "t": 279149.9999999988,
      "d": 79.16666666668607,
      "v": 52
    },
    {
      "midi": 75,
      "hit": false,
      "t": 279154.16666666546,
      "d": 75,
      "v": 44
    },
    {
      "midi": 45,
      "hit": false,
      "t": 279237.4999999988,
      "d": 25,
      "v": 62
    },
    {
      "midi": 76,
      "hit": false,
      "t": 279237.4999999988,
      "d": 75,
      "v": 53
    },
    {
      "midi": 80,
      "hit": false,
      "t": 279241.66666666546,
      "d": 62.5,
      "v": 60
    },
    {
      "midi": 78,
      "hit": false,
      "t": 279316.66666666546,
      "d": 70.83333333337214,
      "v": 59
    },
    {
      "midi": 75,
      "hit": false,
      "t": 279320.83333333215,
      "d": 75,
      "v": 48
    },
    {
      "midi": 33,
      "hit": false,
      "t": 279395.83333333215,
      "d": 62.50000000005821,
      "v": 77
    },
    {
      "midi": 80,
      "hit": false,
      "t": 279399.99999999884,
      "d": 62.50000000005821,
      "v": 71
    },
    {
      "midi": 76,
      "hit": false,
      "t": 279404.1666666655,
      "d": 75.00000000005821,
      "v": 67
    },
    {
      "midi": 75,
      "hit": false,
      "t": 279483.33333333227,
      "d": 104.16666666668607,
      "v": 65
    },
    {
      "midi": 78,
      "hit": false,
      "t": 279483.33333333227,
      "d": 108.33333333337214,
      "v": 67
    },
    {
      "midi": 80,
      "hit": false,
      "t": 279574.99999999895,
      "d": 112.5,
      "v": 68
    },
    {
      "midi": 34,
      "hit": false,
      "t": 279574.99999999895,
      "d": 179.16666666668607,
      "v": 77
    },
    {
      "midi": 76,
      "hit": false,
      "t": 279587.49999999895,
      "d": 91.66666666668607,
      "v": 69
    },
    {
      "midi": 78,
      "hit": false,
      "t": 279679.16666666564,
      "d": 50,
      "v": 66
    },
    {
      "midi": 75,
      "hit": false,
      "t": 279687.49999999895,
      "d": 45.83333333337214,
      "v": 66
    },
    {
      "midi": 46,
      "hit": false,
      "t": 279754.16666666564,
      "d": 8.33333333331393,
      "v": 73
    },
    {
      "midi": 80,
      "hit": false,
      "t": 279754.16666666564,
      "d": 70.83333333331393,
      "v": 66
    },
    {
      "midi": 76,
      "hit": false,
      "t": 279762.49999999895,
      "d": 62.5,
      "v": 66
    },
    {
      "midi": 75,
      "hit": false,
      "t": 279833.33333333227,
      "d": 70.83333333331393,
      "v": 69
    },
    {
      "midi": 78,
      "hit": false,
      "t": 279833.33333333227,
      "d": 70.83333333331393,
      "v": 69
    },
    {
      "midi": 80,
      "hit": false,
      "t": 279908.33333333227,
      "d": 62.5,
      "v": 76
    },
    {
      "midi": 58,
      "hit": false,
      "t": 279908.33333333227,
      "d": 79.16666666668607,
      "v": 90
    },
    {
      "midi": 76,
      "hit": false,
      "t": 279916.6666666656,
      "d": 66.66666666668607,
      "v": 67
    },
    {
      "midi": 78,
      "hit": false,
      "t": 279987.49999999895,
      "d": 116.66666666668607,
      "v": 71
    },
    {
      "midi": 75,
      "hit": false,
      "t": 279991.66666666564,
      "d": 104.16666666668607,
      "v": 71
    },
    {
      "midi": 59,
      "hit": false,
      "t": 280095.8333333323,
      "d": 187.5000000000582,
      "v": 84
    },
    {
      "midi": 80,
      "hit": false,
      "t": 280104.16666666564,
      "d": 95.83333333337214,
      "v": 75
    },
    {
      "midi": 76,
      "hit": false,
      "t": 280108.3333333323,
      "d": 91.66666666668607,
      "v": 71
    },
    {
      "midi": 75,
      "hit": false,
      "t": 280199.999999999,
      "d": 75,
      "v": 69
    },
    {
      "midi": 78,
      "hit": false,
      "t": 280199.999999999,
      "d": 75,
      "v": 69
    },
    {
      "midi": 47,
      "hit": false,
      "t": 280279.1666666657,
      "d": 25,
      "v": 75
    },
    {
      "midi": 80,
      "hit": false,
      "t": 280279.1666666657,
      "d": 58.33333333331393,
      "v": 72
    },
    {
      "midi": 76,
      "hit": false,
      "t": 280283.3333333324,
      "d": 62.49999999994179,
      "v": 67
    },
    {
      "midi": 78,
      "hit": false,
      "t": 280358.3333333323,
      "d": 66.66666666668607,
      "v": 68
    },
    {
      "midi": 75,
      "hit": false,
      "t": 280358.3333333323,
      "d": 70.83333333337214,
      "v": 61
    },
    {
      "midi": 35,
      "hit": false,
      "t": 280441.6666666657,
      "d": 58.33333333331393,
      "v": 75
    },
    {
      "midi": 80,
      "hit": false,
      "t": 280441.6666666657,
      "d": 58.33333333331393,
      "v": 79
    },
    {
      "midi": 76,
      "hit": false,
      "t": 280449.999999999,
      "d": 41.66666666668607,
      "v": 70
    },
    {
      "midi": 75,
      "hit": false,
      "t": 280512.499999999,
      "d": 83.33333333331393,
      "v": 67
    },
    {
      "midi": 78,
      "hit": false,
      "t": 280512.499999999,
      "d": 95.83333333331393,
      "v": 73
    },
    {
      "midi": 80,
      "hit": false,
      "t": 280612.499999999,
      "d": 108.33333333331393,
      "v": 78
    },
    {
      "midi": 36,
      "hit": false,
      "t": 280612.499999999,
      "d": 170.83333333331393,
      "v": 77
    },
    {
      "midi": 76,
      "hit": false,
      "t": 280616.6666666657,
      "d": 104.16666666662786,
      "v": 71
    },
    {
      "midi": 78,
      "hit": false,
      "t": 280712.499999999,
      "d": 70.83333333331393,
      "v": 71
    },
    {
      "midi": 75,
      "hit": false,
      "t": 280720.8333333323,
      "d": 54.16666666668607,
      "v": 71
    },
    {
      "midi": 48,
      "hit": false,
      "t": 280791.66666666564,
      "d": 8.33333333331393,
      "v": 74
    },
    {
      "midi": 80,
      "hit": false,
      "t": 280791.66666666564,
      "d": 54.16666666662786,
      "v": 80
    },
    {
      "midi": 76,
      "hit": false,
      "t": 280791.66666666564,
      "d": 66.66666666662786,
      "v": 72
    },
    {
      "midi": 78,
      "hit": false,
      "t": 280858.33333333227,
      "d": 83.33333333337214,
      "v": 73
    },
    {
      "midi": 75,
      "hit": false,
      "t": 280862.49999999895,
      "d": 66.66666666668607,
      "v": 64
    },
    {
      "midi": 60,
      "hit": false,
      "t": 280941.66666666564,
      "d": 79.16666666662786,
      "v": 75
    },
    {
      "midi": 80,
      "hit": false,
      "t": 280945.8333333323,
      "d": 58.33333333331393,
      "v": 81
    },
    {
      "midi": 76,
      "hit": false,
      "t": 280945.8333333323,
      "d": 66.66666666662786,
      "v": 76
    },
    {
      "midi": 75,
      "hit": false,
      "t": 281024.99999999895,
      "d": 83.33333333331393,
      "v": 77
    },
    {
      "midi": 78,
      "hit": false,
      "t": 281024.99999999895,
      "d": 83.33333333331393,
      "v": 76
    },
    {
      "midi": 80,
      "hit": false,
      "t": 281108.33333333227,
      "d": 100,
      "v": 89
    },
    {
      "midi": 76,
      "hit": false,
      "t": 281116.6666666656,
      "d": 37.5,
      "v": 84
    },
    {
      "midi": 61,
      "hit": false,
      "t": 281116.6666666656,
      "d": 95.83333333337214,
      "v": 88
    },
    {
      "midi": 76,
      "hit": false,
      "t": 281312.49999999895,
      "d": 54.16666666668607,
      "v": 96
    },
    {
      "midi": 81,
      "hit": false,
      "t": 281312.49999999895,
      "d": 87.5,
      "v": 102
    },
    {
      "midi": 60,
      "hit": false,
      "t": 281316.66666666564,
      "d": 91.66666666662786,
      "v": 86
    },
    {
      "midi": 75,
      "hit": false,
      "t": 281487.49999999895,
      "d": 45.83333333337214,
      "v": 89
    },
    {
      "midi": 80,
      "hit": false,
      "t": 281487.49999999895,
      "d": 45.83333333337214,
      "v": 86
    },
    {
      "midi": 59,
      "hit": false,
      "t": 281491.66666666564,
      "d": 158.33333333337214,
      "v": 81
    },
    {
      "midi": 78,
      "hit": false,
      "t": 281670.8333333323,
      "d": 79.16666666674428,
      "v": 76
    },
    {
      "midi": 73,
      "hit": false,
      "t": 281674.999999999,
      "d": 58.33333333337214,
      "v": 81
    },
    {
      "midi": 57,
      "hit": false,
      "t": 281679.1666666657,
      "d": 75.00000000005821,
      "v": 68
    },
    {
      "midi": 76,
      "hit": false,
      "t": 281854.16666666575,
      "d": 70.83333333337214,
      "v": 73
    },
    {
      "midi": 56,
      "hit": false,
      "t": 281858.33333333244,
      "d": 112.5,
      "v": 62
    },
    {
      "midi": 71,
      "hit": false,
      "t": 281866.66666666575,
      "d": 29.16666666668607,
      "v": 63
    },
    {
      "midi": 69,
      "hit": false,
      "t": 282045.83333333244,
      "d": 58.33333333337214,
      "v": 53
    },
    {
      "midi": 75,
      "hit": false,
      "t": 282045.83333333244,
      "d": 83.33333333337214,
      "v": 65
    },
    {
      "midi": 59,
      "hit": false,
      "t": 282049.9999999991,
      "d": 37.5,
      "v": 54
    },
    {
      "midi": 68,
      "hit": false,
      "t": 282258.3333333325,
      "d": 245.83333333331393,
      "v": 54
    },
    {
      "midi": 76,
      "hit": false,
      "t": 282258.3333333325,
      "d": 254.16666666662786,
      "v": 58
    },
    {
      "midi": 49,
      "hit": false,
      "t": 282262.4999999992,
      "d": 249.9999999999418,
      "v": 46
    },
    {
      "midi": 52,
      "hit": false,
      "t": 282483.3333333325,
      "d": 66.66666666662786,
      "v": 66
    },
    {
      "midi": 51,
      "hit": false,
      "t": 282554.1666666658,
      "d": 91.66666666668607,
      "v": 72
    },
    {
      "midi": 52,
      "hit": false,
      "t": 282645.8333333325,
      "d": 220.83333333331393,
      "v": 74
    },
    {
      "midi": 81,
      "hit": false,
      "t": 282845.8333333325,
      "d": 554.1666666666279,
      "v": 81
    },
    {
      "midi": 69,
      "hit": false,
      "t": 282854.1666666658,
      "d": 550,
      "v": 54
    },
    {
      "midi": 78,
      "hit": false,
      "t": 282854.1666666658,
      "d": 550,
      "v": 73
    },
    {
      "midi": 48,
      "hit": false,
      "t": 282858.3333333325,
      "d": 300,
      "v": 63
    },
    {
      "midi": 76,
      "hit": false,
      "t": 282858.3333333325,
      "d": 545.8333333333139,
      "v": 72
    },
    {
      "midi": 52,
      "hit": false,
      "t": 283091.6666666658,
      "d": 108.33333333331393,
      "v": 66
    },
    {
      "midi": 51,
      "hit": false,
      "t": 283191.6666666658,
      "d": 120.83333333331393,
      "v": 95
    },
    {
      "midi": 52,
      "hit": false,
      "t": 283299.9999999991,
      "d": 208.33333333337214,
      "v": 85
    },
    {
      "midi": 80,
      "hit": false,
      "t": 283491.6666666658,
      "d": 554.1666666666861,
      "v": 83
    },
    {
      "midi": 83,
      "hit": false,
      "t": 283491.6666666658,
      "d": 554.1666666666861,
      "v": 86
    },
    {
      "midi": 71,
      "hit": false,
      "t": 283499.9999999991,
      "d": 550.0000000000582,
      "v": 58
    },
    {
      "midi": 47,
      "hit": false,
      "t": 283504.1666666658,
      "d": 441.66666666668607,
      "v": 72
    },
    {
      "midi": 76,
      "hit": false,
      "t": 283504.1666666658,
      "d": 545.8333333333721,
      "v": 73
    },
    {
      "midi": 52,
      "hit": false,
      "t": 283716.6666666658,
      "d": 95.83333333331393,
      "v": 63
    },
    {
      "midi": 51,
      "hit": false,
      "t": 283804.1666666658,
      "d": 166.66666666668607,
      "v": 77
    },
    {
      "midi": 52,
      "hit": false,
      "t": 283916.6666666658,
      "d": 254.16666666668607,
      "v": 79
    },
    {
      "midi": 84,
      "hit": false,
      "t": 284137.4999999992,
      "d": 550.0000000000582,
      "v": 80
    },
    {
      "midi": 76,
      "hit": false,
      "t": 284145.8333333325,
      "d": 550.0000000001164,
      "v": 42
    },
    {
      "midi": 81,
      "hit": false,
      "t": 284145.8333333325,
      "d": 550.0000000001164,
      "v": 75
    },
    {
      "midi": 45,
      "hit": false,
      "t": 284149.9999999992,
      "d": 412.5000000000582,
      "v": 67
    },
    {
      "midi": 72,
      "hit": false,
      "t": 284149.9999999992,
      "d": 541.6666666667443,
      "v": 66
    },
    {
      "midi": 52,
      "hit": false,
      "t": 284362.4999999992,
      "d": 87.5,
      "v": 59
    },
    {
      "midi": 51,
      "hit": false,
      "t": 284449.9999999992,
      "d": 112.50000000005821,
      "v": 66
    },
    {
      "midi": 52,
      "hit": false,
      "t": 284562.49999999924,
      "d": 170.83333333337214,
      "v": 76
    },
    {
      "midi": 83,
      "hit": false,
      "t": 284733.3333333326,
      "d": 275.0000000000582,
      "v": 70
    },
    {
      "midi": 71,
      "hit": false,
      "t": 284737.4999999993,
      "d": 275.0000000000582,
      "v": 61
    },
    {
      "midi": 80,
      "hit": false,
      "t": 284737.4999999993,
      "d": 275.0000000000582,
      "v": 62
    },
    {
      "midi": 44,
      "hit": false,
      "t": 284737.4999999993,
      "d": 412.5000000000582,
      "v": 66
    },
    {
      "midi": 76,
      "hit": false,
      "t": 284749.9999999993,
      "d": 275.0000000000582,
      "v": 63
    },
    {
      "midi": 52,
      "hit": false,
      "t": 284958.3333333327,
      "d": 83.33333333337214,
      "v": 58
    },
    {
      "midi": 51,
      "hit": false,
      "t": 285049.99999999936,
      "d": 104.16666666668607,
      "v": 64
    },
    {
      "midi": 52,
      "hit": false,
      "t": 285154.16666666605,
      "d": 249.9999999999418,
      "v": 73
    },
    {
      "midi": 70,
      "hit": false,
      "t": 285374.99999999936,
      "d": 604.1666666666861,
      "v": 71
    },
    {
      "midi": 66,
      "hit": false,
      "t": 285383.3333333327,
      "d": 600.0000000000582,
      "v": 58
    },
    {
      "midi": 58,
      "hit": false,
      "t": 285395.8333333327,
      "d": 604.1666666667443,
      "v": 33
    },
    {
      "midi": 64,
      "hit": false,
      "t": 285395.8333333327,
      "d": 604.1666666667443,
      "v": 55
    },
    {
      "midi": 49,
      "hit": false,
      "t": 285404.166666666,
      "d": 245.83333333337214,
      "v": 51
    },
    {
      "midi": 52,
      "hit": false,
      "t": 285608.3333333327,
      "d": 79.16666666668607,
      "v": 52
    },
    {
      "midi": 51,
      "hit": false,
      "t": 285708.3333333327,
      "d": 87.5,
      "v": 67
    },
    {
      "midi": 52,
      "hit": false,
      "t": 285812.49999999936,
      "d": 87.5,
      "v": 68
    },
    {
      "midi": 71,
      "hit": false,
      "t": 286020.83333333273,
      "d": 608.3333333332557,
      "v": 72
    },
    {
      "midi": 47,
      "hit": false,
      "t": 286041.66666666605,
      "d": 237.5,
      "v": 55
    },
    {
      "midi": 59,
      "hit": false,
      "t": 286041.66666666605,
      "d": 604.1666666666279,
      "v": 41
    },
    {
      "midi": 64,
      "hit": false,
      "t": 286041.66666666605,
      "d": 604.1666666666279,
      "v": 62
    },
    {
      "midi": 68,
      "hit": false,
      "t": 286041.66666666605,
      "d": 604.1666666666279,
      "v": 64
    },
    {
      "midi": 52,
      "hit": false,
      "t": 286249.99999999936,
      "d": 83.33333333337214,
      "v": 53
    },
    {
      "midi": 51,
      "hit": false,
      "t": 286354.16666666605,
      "d": 83.33333333331393,
      "v": 66
    },
    {
      "midi": 52,
      "hit": false,
      "t": 286449.99999999936,
      "d": 91.66666666662786,
      "v": 73
    },
    {
      "midi": 73,
      "hit": false,
      "t": 286674.99999999936,
      "d": 600,
      "v": 76
    },
    {
      "midi": 64,
      "hit": false,
      "t": 286674.99999999936,
      "d": 608.3333333333139,
      "v": 58
    },
    {
      "midi": 61,
      "hit": false,
      "t": 286687.49999999936,
      "d": 604.1666666666279,
      "v": 58
    },
    {
      "midi": 66,
      "hit": false,
      "t": 286687.49999999936,
      "d": 604.1666666666279,
      "v": 61
    },
    {
      "midi": 46,
      "hit": false,
      "t": 286695.83333333273,
      "d": 241.66666666662786,
      "v": 57
    },
    {
      "midi": 52,
      "hit": false,
      "t": 286916.66666666605,
      "d": 112.5,
      "v": 44
    },
    {
      "midi": 51,
      "hit": false,
      "t": 286999.99999999936,
      "d": 112.5,
      "v": 66
    },
    {
      "midi": 52,
      "hit": false,
      "t": 287104.16666666605,
      "d": 229.16666666656965,
      "v": 67
    },
    {
      "midi": 59,
      "hit": false,
      "t": 287324.9999999993,
      "d": 299.9999999999418,
      "v": 48
    },
    {
      "midi": 64,
      "hit": false,
      "t": 287324.9999999993,
      "d": 304.16666666662786,
      "v": 58
    },
    {
      "midi": 68,
      "hit": false,
      "t": 287324.9999999993,
      "d": 304.16666666662786,
      "v": 61
    },
    {
      "midi": 71,
      "hit": false,
      "t": 287324.9999999993,
      "d": 304.16666666662786,
      "v": 62
    },
    {
      "midi": 47,
      "hit": false,
      "t": 287341.66666666593,
      "d": 520.8333333333721,
      "v": 54
    },
    {
      "midi": 52,
      "hit": false,
      "t": 287549.99999999924,
      "d": 87.5,
      "v": 53
    },
    {
      "midi": 51,
      "hit": false,
      "t": 287654.16666666593,
      "d": 87.5,
      "v": 62
    },
    {
      "midi": 52,
      "hit": false,
      "t": 287779.16666666593,
      "d": 83.33333333337214,
      "v": 58
    },
    {
      "midi": 64,
      "hit": false,
      "t": 288029.166666666,
      "d": 666.6666666666279,
      "v": 52
    },
    {
      "midi": 69,
      "hit": false,
      "t": 288029.166666666,
      "d": 666.6666666666279,
      "v": 64
    },
    {
      "midi": 48,
      "hit": false,
      "t": 288041.666666666,
      "d": 458.33333333331393,
      "v": 53
    },
    {
      "midi": 57,
      "hit": false,
      "t": 288041.666666666,
      "d": 658.3333333333139,
      "v": 53
    },
    {
      "midi": 52,
      "hit": false,
      "t": 288279.166666666,
      "d": 125,
      "v": 58
    },
    {
      "midi": 51,
      "hit": false,
      "t": 288399.9999999993,
      "d": 108.33333333331393,
      "v": 62
    },
    {
      "midi": 52,
      "hit": false,
      "t": 288512.4999999993,
      "d": 300,
      "v": 61
    },
    {
      "midi": 71,
      "hit": false,
      "t": 288770.8333333326,
      "d": 758.3333333333721,
      "v": 66
    },
    {
      "midi": 59,
      "hit": false,
      "t": 288774.9999999993,
      "d": 766.6666666666861,
      "v": 49
    },
    {
      "midi": 64,
      "hit": false,
      "t": 288779.166666666,
      "d": 766.6666666666861,
      "v": 61
    },
    {
      "midi": 67,
      "hit": false,
      "t": 288791.666666666,
      "d": 758.3333333333721,
      "v": 59
    },
    {
      "midi": 47,
      "hit": false,
      "t": 288799.9999999993,
      "d": 475,
      "v": 52
    },
    {
      "midi": 52,
      "hit": false,
      "t": 289029.166666666,
      "d": 158.33333333331393,
      "v": 57
    },
    {
      "midi": 51,
      "hit": false,
      "t": 289166.666666666,
      "d": 133.33333333331393,
      "v": 58
    },
    {
      "midi": 52,
      "hit": false,
      "t": 289304.166666666,
      "d": 266.66666666668607,
      "v": 57
    },
    {
      "midi": 72,
      "hit": false,
      "t": 289608.3333333327,
      "d": 995.8333333333721,
      "v": 61
    },
    {
      "midi": 66,
      "hit": false,
      "t": 289624.99999999936,
      "d": 987.5,
      "v": 57
    },
    {
      "midi": 60,
      "hit": false,
      "t": 289624.99999999936,
      "d": 991.6666666666861,
      "v": 42
    },
    {
      "midi": 64,
      "hit": false,
      "t": 289624.99999999936,
      "d": 991.6666666666861,
      "v": 58
    },
    {
      "midi": 45,
      "hit": false,
      "t": 289633.3333333327,
      "d": 1000.0000000000582,
      "v": 58
    },
    {
      "midi": 52,
      "hit": false,
      "t": 289949.9999999993,
      "d": 204.16666666668607,
      "v": 49
    },
    {
      "midi": 51,
      "hit": false,
      "t": 290149.9999999993,
      "d": 245.83333333337214,
      "v": 54
    },
    {
      "midi": 52,
      "hit": false,
      "t": 290395.8333333327,
      "d": 208.33333333337214,
      "v": 49
    },
    {
      "midi": 71,
      "hit": false,
      "t": 290899.99999999936,
      "d": 979.1666666667443,
      "v": 62
    },
    {
      "midi": 45,
      "hit": false,
      "t": 290904.16666666605,
      "d": 1441.6666666668025,
      "v": 52
    },
    {
      "midi": 63,
      "hit": false,
      "t": 291262.4999999994,
      "d": 58.33333333331393,
      "v": 47
    },
    {
      "midi": 57,
      "hit": false,
      "t": 291270.83333333273,
      "d": 62.5,
      "v": 47
    },
    {
      "midi": 59,
      "hit": false,
      "t": 291270.83333333273,
      "d": 62.5,
      "v": 47
    },
    {
      "midi": 66,
      "hit": false,
      "t": 291270.83333333273,
      "d": 91.66666666668607,
      "v": 47
    },
    {
      "midi": 57,
      "hit": false,
      "t": 291562.4999999994,
      "d": 50,
      "v": 47
    },
    {
      "midi": 63,
      "hit": false,
      "t": 291562.4999999994,
      "d": 66.66666666668607,
      "v": 47
    },
    {
      "midi": 66,
      "hit": false,
      "t": 291562.4999999994,
      "d": 75,
      "v": 47
    },
    {
      "midi": 59,
      "hit": false,
      "t": 291566.6666666661,
      "d": 50,
      "v": 47
    },
    {
      "midi": 63,
      "hit": false,
      "t": 291833.33333333273,
      "d": 262.5000000000582,
      "v": 52
    },
    {
      "midi": 57,
      "hit": false,
      "t": 291837.4999999994,
      "d": 441.6666666667443,
      "v": 39
    },
    {
      "midi": 66,
      "hit": false,
      "t": 291841.6666666661,
      "d": 229.16666666668607,
      "v": 52
    },
    {
      "midi": 59,
      "hit": false,
      "t": 291854.1666666661,
      "d": 608.3333333333721,
      "v": 24
    },
    {
      "midi": 71,
      "hit": false,
      "t": 292174.9999999995,
      "d": 79.16666666668607,
      "v": 68
    },
    {
      "midi": 71,
      "hit": false,
      "t": 292441.66666666616,
      "d": 62.5,
      "v": 77
    },
    {
      "midi": 44,
      "hit": false,
      "t": 292716.66666666616,
      "d": 866.6666666667443,
      "v": 58
    },
    {
      "midi": 71,
      "hit": false,
      "t": 292733.33333333285,
      "d": 733.3333333333721,
      "v": 84
    },
    {
      "midi": 64,
      "hit": false,
      "t": 292991.6666666662,
      "d": 58.33333333331393,
      "v": 53
    },
    {
      "midi": 59,
      "hit": false,
      "t": 292999.99999999953,
      "d": 50,
      "v": 44
    },
    {
      "midi": 52,
      "hit": false,
      "t": 292999.99999999953,
      "d": 54.16666666668607,
      "v": 51
    },
    {
      "midi": 56,
      "hit": false,
      "t": 293004.1666666662,
      "d": 70.83333333331393,
      "v": 46
    },
    {
      "midi": 59,
      "hit": false,
      "t": 293212.49999999953,
      "d": 16.66666666662786,
      "v": 52
    },
    {
      "midi": 64,
      "hit": false,
      "t": 293212.49999999953,
      "d": 37.5,
      "v": 64
    },
    {
      "midi": 56,
      "hit": false,
      "t": 293212.49999999953,
      "d": 41.66666666668607,
      "v": 44
    },
    {
      "midi": 52,
      "hit": false,
      "t": 293220.83333333285,
      "d": 12.5,
      "v": 50
    },
    {
      "midi": 64,
      "hit": false,
      "t": 293429.1666666662,
      "d": 287.5000000000582,
      "v": 58
    },
    {
      "midi": 56,
      "hit": false,
      "t": 293441.6666666662,
      "d": 129.16666666668607,
      "v": 32
    },
    {
      "midi": 52,
      "hit": false,
      "t": 293445.8333333329,
      "d": 145.83333333331393,
      "v": 44
    },
    {
      "midi": 59,
      "hit": false,
      "t": 293445.8333333329,
      "d": 254.16666666668607,
      "v": 33
    },
    {
      "midi": 69,
      "hit": false,
      "t": 293695.8333333329,
      "d": 254.16666666674428,
      "v": 75
    },
    {
      "midi": 68,
      "hit": false,
      "t": 293908.33333333296,
      "d": 95.83333333337214,
      "v": 95
    },
    {
      "midi": 68,
      "hit": false,
      "t": 294133.333333333,
      "d": 316.66666666662786,
      "v": 82
    },
    {
      "midi": 45,
      "hit": false,
      "t": 294145.833333333,
      "d": 966.6666666666279,
      "v": 70
    },
    {
      "midi": 54,
      "hit": false,
      "t": 294354.1666666663,
      "d": 66.66666666668607,
      "v": 57
    },
    {
      "midi": 52,
      "hit": false,
      "t": 294358.33333333296,
      "d": 50,
      "v": 40
    },
    {
      "midi": 61,
      "hit": false,
      "t": 294574.99999999965,
      "d": 258.33333333331393,
      "v": 54
    },
    {
      "midi": 64,
      "hit": false,
      "t": 294574.99999999965,
      "d": 262.5,
      "v": 69
    },
    {
      "midi": 66,
      "hit": false,
      "t": 294574.99999999965,
      "d": 291.66666666668607,
      "v": 78
    },
    {
      "midi": 54,
      "hit": false,
      "t": 294587.49999999965,
      "d": 50,
      "v": 51
    },
    {
      "midi": 52,
      "hit": false,
      "t": 294595.833333333,
      "d": 33.33333333331393,
      "v": 50
    },
    {
      "midi": 54,
      "hit": false,
      "t": 294783.33333333296,
      "d": 54.16666666668607,
      "v": 66
    },
    {
      "midi": 52,
      "hit": false,
      "t": 294795.83333333296,
      "d": 41.66666666668607,
      "v": 60
    },
    {
      "midi": 66,
      "hit": false,
      "t": 295012.49999999965,
      "d": 175,
      "v": 97
    },
    {
      "midi": 66,
      "hit": false,
      "t": 295249.99999999965,
      "d": 258.33333333337214,
      "v": 98
    },
    {
      "midi": 46,
      "hit": false,
      "t": 295462.49999999965,
      "d": 1166.6666666668607,
      "v": 74
    },
    {
      "midi": 76,
      "hit": false,
      "t": 295491.66666666634,
      "d": 654.1666666667443,
      "v": 88
    },
    {
      "midi": 66,
      "hit": false,
      "t": 295699.9999999997,
      "d": 83.33333333337214,
      "v": 67
    },
    {
      "midi": 54,
      "hit": false,
      "t": 295708.333333333,
      "d": 70.83333333337214,
      "v": 56
    },
    {
      "midi": 52,
      "hit": false,
      "t": 295712.4999999997,
      "d": 50,
      "v": 55
    },
    {
      "midi": 64,
      "hit": false,
      "t": 295712.4999999997,
      "d": 70.83333333337214,
      "v": 61
    },
    {
      "midi": 66,
      "hit": false,
      "t": 295908.3333333331,
      "d": 62.49999999994179,
      "v": 72
    },
    {
      "midi": 52,
      "hit": false,
      "t": 295916.6666666664,
      "d": 45.83333333331393,
      "v": 58
    },
    {
      "midi": 54,
      "hit": false,
      "t": 295916.6666666664,
      "d": 45.83333333331393,
      "v": 64
    },
    {
      "midi": 64,
      "hit": false,
      "t": 295916.6666666664,
      "d": 45.83333333331393,
      "v": 67
    },
    {
      "midi": 66,
      "hit": false,
      "t": 296104.16666666634,
      "d": 429.1666666668025,
      "v": 79
    },
    {
      "midi": 64,
      "hit": false,
      "t": 296112.4999999997,
      "d": 479.1666666667443,
      "v": 67
    },
    {
      "midi": 54,
      "hit": false,
      "t": 296112.4999999997,
      "d": 525.0000000001164,
      "v": 66
    },
    {
      "midi": 52,
      "hit": false,
      "t": 296116.6666666664,
      "d": 495.83333333343035,
      "v": 65
    },
    {
      "midi": 75,
      "hit": false,
      "t": 296320.8333333331,
      "d": 170.83333333337214,
      "v": 95
    },
    {
      "midi": 73,
      "hit": false,
      "t": 296541.66666666645,
      "d": 75.00000000005821,
      "v": 98
    },
    {
      "midi": 73,
      "hit": false,
      "t": 296754.1666666665,
      "d": 404.16666666668607,
      "v": 96
    },
    {
      "midi": 47,
      "hit": false,
      "t": 296770.8333333332,
      "d": 650.0000000000582,
      "v": 82
    },
    {
      "midi": 54,
      "hit": false,
      "t": 296962.4999999999,
      "d": 83.33333333331393,
      "v": 68
    },
    {
      "midi": 57,
      "hit": false,
      "t": 296962.4999999999,
      "d": 83.33333333331393,
      "v": 59
    },
    {
      "midi": 63,
      "hit": false,
      "t": 296962.4999999999,
      "d": 83.33333333331393,
      "v": 69
    },
    {
      "midi": 66,
      "hit": false,
      "t": 296962.4999999999,
      "d": 104.16666666662786,
      "v": 76
    },
    {
      "midi": 63,
      "hit": false,
      "t": 297170.8333333332,
      "d": 50,
      "v": 79
    },
    {
      "midi": 66,
      "hit": false,
      "t": 297170.8333333332,
      "d": 62.5,
      "v": 77
    },
    {
      "midi": 54,
      "hit": false,
      "t": 297170.8333333332,
      "d": 66.66666666668607,
      "v": 73
    },
    {
      "midi": 71,
      "hit": false,
      "t": 297170.8333333332,
      "d": 275.0000000000582,
      "v": 86
    },
    {
      "midi": 57,
      "hit": false,
      "t": 297187.4999999999,
      "d": 45.83333333331393,
      "v": 59
    },
    {
      "midi": 66,
      "hit": false,
      "t": 297362.4999999999,
      "d": 79.16666666668607,
      "v": 79
    },
    {
      "midi": 63,
      "hit": false,
      "t": 297366.66666666657,
      "d": 62.5,
      "v": 81
    },
    {
      "midi": 54,
      "hit": false,
      "t": 297379.16666666657,
      "d": 83.33333333337214,
      "v": 71
    },
    {
      "midi": 57,
      "hit": false,
      "t": 297383.33333333326,
      "d": 37.5,
      "v": 50
    },
    {
      "midi": 71,
      "hit": false,
      "t": 297587.49999999994,
      "d": 104.16666666674428,
      "v": 90
    },
    {
      "midi": 64,
      "hit": false,
      "t": 297591.6666666666,
      "d": 95.83333333337214,
      "v": 81
    },
    {
      "midi": 57,
      "hit": false,
      "t": 297595.8333333333,
      "d": 79.16666666668607,
      "v": 66
    },
    {
      "midi": 49,
      "hit": false,
      "t": 297595.8333333333,
      "d": 83.33333333337214,
      "v": 62
    },
    {
      "midi": 57,
      "hit": false,
      "t": 297795.8333333334,
      "d": 37.5,
      "v": 74
    },
    {
      "midi": 66,
      "hit": false,
      "t": 297795.8333333334,
      "d": 41.66666666668607,
      "v": 93
    },
    {
      "midi": 71,
      "hit": false,
      "t": 297795.8333333334,
      "d": 41.66666666668607,
      "v": 92
    },
    {
      "midi": 51,
      "hit": false,
      "t": 297800.00000000006,
      "d": 16.66666666668607,
      "v": 83
    },
    {
      "midi": 80,
      "hit": false,
      "t": 298000.00000000006,
      "d": 470.83333333337214,
      "v": 100
    },
    {
      "midi": 68,
      "hit": false,
      "t": 298004.16666666674,
      "d": 583.3333333333139,
      "v": 100
    },
    {
      "midi": 56,
      "hit": false,
      "t": 298008.33333333343,
      "d": 87.5,
      "v": 85
    },
    {
      "midi": 52,
      "hit": false,
      "t": 298012.5000000001,
      "d": 83.33333333331393,
      "v": 80
    },
    {
      "midi": 59,
      "hit": false,
      "t": 298012.5000000001,
      "d": 83.33333333331393,
      "v": 80
    },
    {
      "midi": 52,
      "hit": false,
      "t": 298191.66666666674,
      "d": 41.66666666668607,
      "v": 80
    },
    {
      "midi": 56,
      "hit": false,
      "t": 298191.66666666674,
      "d": 50,
      "v": 86
    },
    {
      "midi": 59,
      "hit": false,
      "t": 298191.66666666674,
      "d": 50,
      "v": 78
    },
    {
      "midi": 56,
      "hit": false,
      "t": 298366.66666666674,
      "d": 41.66666666668607,
      "v": 87
    },
    {
      "midi": 75,
      "hit": false,
      "t": 298366.66666666674,
      "d": 220.83333333331393,
      "v": 100
    },
    {
      "midi": 59,
      "hit": false,
      "t": 298379.16666666674,
      "d": 16.66666666668607,
      "v": 79
    },
    {
      "midi": 52,
      "hit": false,
      "t": 298379.16666666674,
      "d": 37.5,
      "v": 84
    },
    {
      "midi": 44,
      "hit": false,
      "t": 298575.00000000006,
      "d": 41.66666666662786,
      "v": 93
    },
    {
      "midi": 78,
      "hit": false,
      "t": 298583.3333333334,
      "d": 179.16666666662786,
      "v": 105
    },
    {
      "midi": 76,
      "hit": false,
      "t": 298770.8333333333,
      "d": 83.33333333343035,
      "v": 100
    },
    {
      "midi": 52,
      "hit": false,
      "t": 298779.1666666667,
      "d": 45.83333333337214,
      "v": 76
    },
    {
      "midi": 56,
      "hit": false,
      "t": 298779.1666666667,
      "d": 54.16666666668607,
      "v": 85
    },
    {
      "midi": 59,
      "hit": false,
      "t": 298783.3333333334,
      "d": 54.16666666668607,
      "v": 79
    },
    {
      "midi": 52,
      "hit": false,
      "t": 298962.50000000006,
      "d": 29.16666666668607,
      "v": 85
    },
    {
      "midi": 56,
      "hit": false,
      "t": 298962.50000000006,
      "d": 29.16666666668607,
      "v": 87
    },
    {
      "midi": 72,
      "hit": false,
      "t": 298962.50000000006,
      "d": 70.83333333337214,
      "v": 100
    },
    {
      "midi": 59,
      "hit": false,
      "t": 298966.66666666674,
      "d": 25,
      "v": 85
    },
    {
      "midi": 75,
      "hit": false,
      "t": 299158.33333333343,
      "d": 220.83333333337214,
      "v": 104
    },
    {
      "midi": 45,
      "hit": false,
      "t": 299170.83333333343,
      "d": 100,
      "v": 86
    },
    {
      "midi": 54,
      "hit": false,
      "t": 299170.83333333343,
      "d": 104.16666666668607,
      "v": 56
    },
    {
      "midi": 52,
      "hit": false,
      "t": 299179.16666666674,
      "d": 95.83333333337214,
      "v": 80
    },
    {
      "midi": 73,
      "hit": false,
      "t": 299358.33333333343,
      "d": 50,
      "v": 104
    },
    {
      "midi": 54,
      "hit": false,
      "t": 299362.5000000001,
      "d": 37.5,
      "v": 85
    },
    {
      "midi": 45,
      "hit": false,
      "t": 299366.6666666668,
      "d": 20.83333333331393,
      "v": 80
    },
    {
      "midi": 52,
      "hit": false,
      "t": 299375.0000000001,
      "d": 12.5,
      "v": 82
    },
    {
      "midi": 68,
      "hit": false,
      "t": 299533.33333333343,
      "d": 83.33333333337214,
      "v": 101
    },
    {
      "midi": 45,
      "hit": false,
      "t": 299545.83333333343,
      "d": 62.5,
      "v": 75
    },
    {
      "midi": 54,
      "hit": false,
      "t": 299545.83333333343,
      "d": 66.66666666668607,
      "v": 78
    },
    {
      "midi": 52,
      "hit": false,
      "t": 299550.0000000001,
      "d": 58.33333333331393,
      "v": 76
    },
    {
      "midi": 71,
      "hit": false,
      "t": 299729.1666666668,
      "d": 191.66666666662786,
      "v": 96
    },
    {
      "midi": 45,
      "hit": false,
      "t": 299733.3333333335,
      "d": 70.83333333331393,
      "v": 75
    },
    {
      "midi": 52,
      "hit": false,
      "t": 299741.6666666668,
      "d": 54.16666666668607,
      "v": 74
    },
    {
      "midi": 54,
      "hit": false,
      "t": 299741.6666666668,
      "d": 75,
      "v": 70
    },
    {
      "midi": 69,
      "hit": false,
      "t": 299908.33333333343,
      "d": 75,
      "v": 95
    },
    {
      "midi": 54,
      "hit": false,
      "t": 299916.66666666674,
      "d": 50,
      "v": 78
    },
    {
      "midi": 45,
      "hit": false,
      "t": 299920.83333333343,
      "d": 45.83333333331393,
      "v": 75
    },
    {
      "midi": 52,
      "hit": false,
      "t": 299920.83333333343,
      "d": 45.83333333331393,
      "v": 76
    },
    {
      "midi": 45,
      "hit": false,
      "t": 300087.5000000001,
      "d": 25,
      "v": 70
    },
    {
      "midi": 66,
      "hit": false,
      "t": 300087.5000000001,
      "d": 41.66666666668607,
      "v": 98
    },
    {
      "midi": 52,
      "hit": false,
      "t": 300091.6666666668,
      "d": 66.66666666668607,
      "v": 75
    },
    {
      "midi": 54,
      "hit": false,
      "t": 300091.6666666668,
      "d": 104.16666666668607,
      "v": 78
    },
    {
      "midi": 47,
      "hit": false,
      "t": 300283.3333333335,
      "d": 404.1666666667443,
      "v": 83
    },
    {
      "midi": 64,
      "hit": false,
      "t": 300283.3333333335,
      "d": 433.33333333337214,
      "v": 106
    },
    {
      "midi": 56,
      "hit": false,
      "t": 300483.3333333335,
      "d": 87.5,
      "v": 78
    },
    {
      "midi": 59,
      "hit": false,
      "t": 300487.5000000002,
      "d": 100,
      "v": 73
    },
    {
      "midi": 52,
      "hit": false,
      "t": 300491.66666666686,
      "d": 70.83333333331393,
      "v": 73
    },
    {
      "midi": 52,
      "hit": false,
      "t": 300658.33333333355,
      "d": 16.66666666668607,
      "v": 78
    },
    {
      "midi": 56,
      "hit": false,
      "t": 300658.33333333355,
      "d": 41.66666666668607,
      "v": 78
    },
    {
      "midi": 59,
      "hit": false,
      "t": 300658.33333333355,
      "d": 50,
      "v": 72
    },
    {
      "midi": 66,
      "hit": false,
      "t": 300833.33333333355,
      "d": 441.6666666667443,
      "v": 103
    },
    {
      "midi": 45,
      "hit": false,
      "t": 300841.66666666686,
      "d": 400.0000000001164,
      "v": 88
    },
    {
      "midi": 63,
      "hit": false,
      "t": 301029.1666666669,
      "d": 116.66666666668607,
      "v": 92
    },
    {
      "midi": 54,
      "hit": false,
      "t": 301041.6666666669,
      "d": 66.66666666668607,
      "v": 87
    },
    {
      "midi": 59,
      "hit": false,
      "t": 301041.6666666669,
      "d": 83.33333333337214,
      "v": 74
    },
    {
      "midi": 51,
      "hit": false,
      "t": 301050.00000000023,
      "d": 54.16666666668607,
      "v": 66
    },
    {
      "midi": 63,
      "hit": false,
      "t": 301216.666666667,
      "d": 54.16666666662786,
      "v": 92
    },
    {
      "midi": 59,
      "hit": false,
      "t": 301220.83333333366,
      "d": 33.33333333331393,
      "v": 82
    },
    {
      "midi": 51,
      "hit": false,
      "t": 301229.166666667,
      "d": 33.33333333331393,
      "v": 78
    },
    {
      "midi": 54,
      "hit": false,
      "t": 301229.166666667,
      "d": 33.33333333331393,
      "v": 82
    },
    {
      "midi": 68,
      "hit": false,
      "t": 301404.166666667,
      "d": 520.8333333333721,
      "v": 108
    },
    {
      "midi": 44,
      "hit": false,
      "t": 301416.666666667,
      "d": 500.0000000000582,
      "v": 96
    },
    {
      "midi": 66,
      "hit": false,
      "t": 301604.166666667,
      "d": 279.1666666667443,
      "v": 82
    },
    {
      "midi": 63,
      "hit": false,
      "t": 301608.33333333366,
      "d": 50.00000000005821,
      "v": 86
    },
    {
      "midi": 60,
      "hit": false,
      "t": 301612.50000000035,
      "d": 41.66666666668607,
      "v": 78
    },
    {
      "midi": 56,
      "hit": false,
      "t": 301612.50000000035,
      "d": 45.83333333337214,
      "v": 81
    },
    {
      "midi": 63,
      "hit": false,
      "t": 301791.66666666704,
      "d": 45.83333333337214,
      "v": 78
    },
    {
      "midi": 60,
      "hit": false,
      "t": 301800.00000000035,
      "d": 37.50000000005821,
      "v": 78
    },
    {
      "midi": 56,
      "hit": false,
      "t": 301800.00000000035,
      "d": 129.16666666668607,
      "v": 81
    },
    {
      "midi": 44,
      "hit": false,
      "t": 301983.3333333337,
      "d": 108.33333333331393,
      "v": 83
    },
    {
      "midi": 68,
      "hit": false,
      "t": 301991.66666666704,
      "d": 79.16666666668607,
      "v": 97
    },
    {
      "midi": 60,
      "hit": false,
      "t": 302000.00000000035,
      "d": 50,
      "v": 88
    },
    {
      "midi": 66,
      "hit": false,
      "t": 302000.00000000035,
      "d": 66.66666666668607,
      "v": 88
    },
    {
      "midi": 63,
      "hit": false,
      "t": 302000.00000000035,
      "d": 70.83333333337214,
      "v": 87
    },
    {
      "midi": 68,
      "hit": false,
      "t": 302175.00000000035,
      "d": 95.83333333337214,
      "v": 100
    },
    {
      "midi": 66,
      "hit": false,
      "t": 302187.50000000035,
      "d": 70.83333333337214,
      "v": 96
    },
    {
      "midi": 61,
      "hit": false,
      "t": 302191.66666666704,
      "d": 66.66666666668607,
      "v": 99
    },
    {
      "midi": 46,
      "hit": false,
      "t": 302191.66666666704,
      "d": 120.83333333337214,
      "v": 97
    },
    {
      "midi": 56,
      "hit": false,
      "t": 302195.8333333337,
      "d": 41.66666666668607,
      "v": 78
    },
    {
      "midi": 68,
      "hit": false,
      "t": 302362.5000000004,
      "d": 62.50000000005821,
      "v": 86
    },
    {
      "midi": 66,
      "hit": false,
      "t": 302375.0000000004,
      "d": 41.66666666674428,
      "v": 79
    },
    {
      "midi": 48,
      "hit": false,
      "t": 302379.1666666671,
      "d": 16.66666666668607,
      "v": 68
    },
    {
      "midi": 63,
      "hit": false,
      "t": 302379.1666666671,
      "d": 37.50000000005821,
      "v": 88
    },
    {
      "midi": 56,
      "hit": false,
      "t": 302379.1666666671,
      "d": 45.83333333337214,
      "v": 66
    },
    {
      "midi": 49,
      "hit": false,
      "t": 302550.00000000047,
      "d": 95.83333333331393,
      "v": 73
    },
    {
      "midi": 68,
      "hit": false,
      "t": 302554.16666666715,
      "d": 70.83333333331393,
      "v": 80
    },
    {
      "midi": 64,
      "hit": false,
      "t": 302562.50000000047,
      "d": 62.5,
      "v": 71
    },
    {
      "midi": 76,
      "hit": false,
      "t": 302770.8333333338,
      "d": 45.83333333331393,
      "v": 66
    },
    {
      "midi": 61,
      "hit": false,
      "t": 302779.1666666671,
      "d": 41.66666666668607,
      "v": 50
    },
    {
      "midi": 56,
      "hit": false,
      "t": 302783.3333333338,
      "d": 41.66666666668607,
      "v": 50
    },
    {
      "midi": 64,
      "hit": false,
      "t": 302791.6666666671,
      "d": 45.83333333337214,
      "v": 50
    },
    {
      "midi": 68,
      "hit": false,
      "t": 302958.3333333338,
      "d": 33.33333333331393,
      "v": 66
    },
    {
      "midi": 64,
      "hit": false,
      "t": 302966.6666666671,
      "d": 41.66666666668607,
      "v": 50
    },
    {
      "midi": 49,
      "hit": false,
      "t": 302966.6666666671,
      "d": 58.33333333337214,
      "v": 22
    },
    {
      "midi": 76,
      "hit": false,
      "t": 303133.3333333338,
      "d": 45.83333333331393,
      "v": 66
    },
    {
      "midi": 56,
      "hit": false,
      "t": 303145.8333333338,
      "d": 41.66666666662786,
      "v": 50
    },
    {
      "midi": 61,
      "hit": false,
      "t": 303145.8333333338,
      "d": 45.83333333331393,
      "v": 50
    },
    {
      "midi": 64,
      "hit": false,
      "t": 303145.8333333338,
      "d": 45.83333333331393,
      "v": 50
    },
    {
      "midi": 68,
      "hit": false,
      "t": 303320.8333333338,
      "d": 41.66666666668607,
      "v": 67
    },
    {
      "midi": 64,
      "hit": false,
      "t": 303325.00000000047,
      "d": 50,
      "v": 50
    },
    {
      "midi": 49,
      "hit": false,
      "t": 303325.00000000047,
      "d": 137.5,
      "v": 45
    },
    {
      "midi": 56,
      "hit": false,
      "t": 303500.00000000047,
      "d": 45.83333333337214,
      "v": 50
    },
    {
      "midi": 61,
      "hit": false,
      "t": 303500.00000000047,
      "d": 45.83333333337214,
      "v": 50
    },
    {
      "midi": 64,
      "hit": false,
      "t": 303504.16666666715,
      "d": 45.83333333337214,
      "v": 50
    },
    {
      "midi": 76,
      "hit": false,
      "t": 303504.16666666715,
      "d": 45.83333333337214,
      "v": 66
    },
    {
      "midi": 47,
      "hit": false,
      "t": 303700.0000000005,
      "d": 62.5,
      "v": 74
    },
    {
      "midi": 68,
      "hit": false,
      "t": 303708.33333333384,
      "d": 50,
      "v": 79
    },
    {
      "midi": 65,
      "hit": false,
      "t": 303716.66666666715,
      "d": 41.66666666668607,
      "v": 66
    },
    {
      "midi": 65,
      "hit": false,
      "t": 303895.8333333339,
      "d": 41.66666666668607,
      "v": 58
    },
    {
      "midi": 77,
      "hit": false,
      "t": 303895.8333333339,
      "d": 41.66666666668607,
      "v": 72
    },
    {
      "midi": 62,
      "hit": false,
      "t": 303900.0000000006,
      "d": 20.83333333331393,
      "v": 49
    },
    {
      "midi": 56,
      "hit": false,
      "t": 303900.0000000006,
      "d": 45.83333333331393,
      "v": 61
    },
    {
      "midi": 68,
      "hit": false,
      "t": 304070.8333333339,
      "d": 41.66666666668607,
      "v": 67
    },
    {
      "midi": 47,
      "hit": false,
      "t": 304070.8333333339,
      "d": 54.16666666668607,
      "v": 58
    },
    {
      "midi": 65,
      "hit": false,
      "t": 304075.0000000006,
      "d": 20.83333333331393,
      "v": 52
    },
    {
      "midi": 65,
      "hit": false,
      "t": 304254.16666666727,
      "d": 58.33333333331393,
      "v": 67
    },
    {
      "midi": 77,
      "hit": false,
      "t": 304254.16666666727,
      "d": 62.5,
      "v": 77
    },
    {
      "midi": 62,
      "hit": false,
      "t": 304262.5000000006,
      "d": 37.5,
      "v": 57
    },
    {
      "midi": 56,
      "hit": false,
      "t": 304262.5000000006,
      "d": 70.83333333337214,
      "v": 64
    },
    {
      "midi": 47,
      "hit": false,
      "t": 304425.00000000064,
      "d": 33.33333333331393,
      "v": 62
    },
    {
      "midi": 65,
      "hit": false,
      "t": 304429.1666666673,
      "d": 20.83333333331393,
      "v": 53
    },
    {
      "midi": 68,
      "hit": false,
      "t": 304429.1666666673,
      "d": 41.66666666662786,
      "v": 76
    },
    {
      "midi": 77,
      "hit": false,
      "t": 304608.33333333395,
      "d": 45.83333333337214,
      "v": 73
    },
    {
      "midi": 65,
      "hit": false,
      "t": 304612.50000000064,
      "d": 41.66666666668607,
      "v": 68
    },
    {
      "midi": 62,
      "hit": false,
      "t": 304616.6666666673,
      "d": 12.5,
      "v": 58
    },
    {
      "midi": 56,
      "hit": false,
      "t": 304616.6666666673,
      "d": 33.33333333331393,
      "v": 67
    },
    {
      "midi": 45,
      "hit": false,
      "t": 304783.333333334,
      "d": 62.5,
      "v": 80
    },
    {
      "midi": 78,
      "hit": false,
      "t": 304820.833333334,
      "d": 83.33333333337214,
      "v": 89
    },
    {
      "midi": 66,
      "hit": false,
      "t": 304825.0000000007,
      "d": 62.5,
      "v": 79
    },
    {
      "midi": 61,
      "hit": false,
      "t": 305000.0000000007,
      "d": 33.33333333337214,
      "v": 71
    },
    {
      "midi": 57,
      "hit": false,
      "t": 305004.1666666674,
      "d": 8.333333333372138,
      "v": 63
    },
    {
      "midi": 66,
      "hit": false,
      "t": 305004.1666666674,
      "d": 29.16666666668607,
      "v": 63
    },
    {
      "midi": 76,
      "hit": false,
      "t": 305008.33333333407,
      "d": 37.5,
      "v": 75
    },
    {
      "midi": 45,
      "hit": false,
      "t": 305166.6666666674,
      "d": 20.83333333331393,
      "v": 59
    },
    {
      "midi": 66,
      "hit": false,
      "t": 305179.1666666674,
      "d": 41.66666666662786,
      "v": 66
    },
    {
      "midi": 73,
      "hit": false,
      "t": 305179.1666666674,
      "d": 41.66666666662786,
      "v": 80
    },
    {
      "midi": 61,
      "hit": false,
      "t": 305362.5000000007,
      "d": 54.16666666668607,
      "v": 68
    },
    {
      "midi": 57,
      "hit": false,
      "t": 305366.6666666674,
      "d": 20.83333333331393,
      "v": 73
    },
    {
      "midi": 78,
      "hit": false,
      "t": 305366.6666666674,
      "d": 70.83333333331393,
      "v": 88
    },
    {
      "midi": 66,
      "hit": false,
      "t": 305375.0000000007,
      "d": 41.66666666668607,
      "v": 81
    },
    {
      "midi": 45,
      "hit": false,
      "t": 305545.833333334,
      "d": 29.16666666662786,
      "v": 68
    },
    {
      "midi": 66,
      "hit": false,
      "t": 305545.833333334,
      "d": 58.33333333331393,
      "v": 74
    },
    {
      "midi": 76,
      "hit": false,
      "t": 305554.1666666673,
      "d": 62.5,
      "v": 79
    },
    {
      "midi": 61,
      "hit": false,
      "t": 305720.833333334,
      "d": 41.66666666662786,
      "v": 76
    },
    {
      "midi": 57,
      "hit": false,
      "t": 305729.1666666673,
      "d": 33.33333333331393,
      "v": 75
    },
    {
      "midi": 66,
      "hit": false,
      "t": 305729.1666666673,
      "d": 54.16666666662786,
      "v": 73
    },
    {
      "midi": 73,
      "hit": false,
      "t": 305729.1666666673,
      "d": 54.16666666662786,
      "v": 92
    },
    {
      "midi": 79,
      "hit": false,
      "t": 305904.16666666727,
      "d": 75,
      "v": 92
    },
    {
      "midi": 55,
      "hit": false,
      "t": 305908.33333333395,
      "d": 50,
      "v": 79
    },
    {
      "midi": 67,
      "hit": false,
      "t": 305908.33333333395,
      "d": 62.5,
      "v": 85
    },
    {
      "midi": 46,
      "hit": false,
      "t": 305920.83333333395,
      "d": 45.83333333331393,
      "v": 73
    },
    {
      "midi": 49,
      "hit": false,
      "t": 305920.83333333395,
      "d": 45.83333333331393,
      "v": 79
    },
    {
      "midi": 52,
      "hit": false,
      "t": 305920.83333333395,
      "d": 45.83333333331393,
      "v": 78
    },
    {
      "midi": 76,
      "hit": false,
      "t": 306087.5000000006,
      "d": 50,
      "v": 77
    },
    {
      "midi": 55,
      "hit": false,
      "t": 306091.66666666727,
      "d": 45.83333333331393,
      "v": 60
    },
    {
      "midi": 46,
      "hit": false,
      "t": 306095.83333333395,
      "d": 49.99999999994179,
      "v": 40
    },
    {
      "midi": 49,
      "hit": false,
      "t": 306095.83333333395,
      "d": 49.99999999994179,
      "v": 40
    },
    {
      "midi": 67,
      "hit": false,
      "t": 306104.16666666727,
      "d": 12.5,
      "v": 57
    },
    {
      "midi": 52,
      "hit": false,
      "t": 306104.16666666727,
      "d": 45.83333333331393,
      "v": 65
    },
    {
      "midi": 46,
      "hit": false,
      "t": 306262.5000000006,
      "d": 54.16666666668607,
      "v": 69
    },
    {
      "midi": 73,
      "hit": false,
      "t": 306270.8333333339,
      "d": 54.16666666674428,
      "v": 90
    },
    {
      "midi": 49,
      "hit": false,
      "t": 306275.0000000006,
      "d": 45.83333333337214,
      "v": 65
    },
    {
      "midi": 55,
      "hit": false,
      "t": 306275.0000000006,
      "d": 45.83333333337214,
      "v": 71
    },
    {
      "midi": 52,
      "hit": false,
      "t": 306279.16666666727,
      "d": 45.83333333337214,
      "v": 77
    },
    {
      "midi": 67,
      "hit": false,
      "t": 306283.33333333395,
      "d": 20.83333333331393,
      "v": 54
    },
    {
      "midi": 79,
      "hit": false,
      "t": 306458.33333333395,
      "d": 83.33333333337214,
      "v": 88
    },
    {
      "midi": 46,
      "hit": false,
      "t": 306462.50000000064,
      "d": 45.83333333331393,
      "v": 80
    },
    {
      "midi": 52,
      "hit": false,
      "t": 306462.50000000064,
      "d": 45.83333333331393,
      "v": 87
    },
    {
      "midi": 55,
      "hit": false,
      "t": 306462.50000000064,
      "d": 45.83333333331393,
      "v": 84
    },
    {
      "midi": 67,
      "hit": false,
      "t": 306462.50000000064,
      "d": 62.5,
      "v": 81
    },
    {
      "midi": 49,
      "hit": false,
      "t": 306470.83333333395,
      "d": 50,
      "v": 75
    },
    {
      "midi": 49,
      "hit": false,
      "t": 306650.00000000064,
      "d": 45.83333333337214,
      "v": 71
    },
    {
      "midi": 55,
      "hit": false,
      "t": 306650.00000000064,
      "d": 45.83333333337214,
      "v": 84
    },
    {
      "midi": 67,
      "hit": false,
      "t": 306654.1666666673,
      "d": 25,
      "v": 76
    },
    {
      "midi": 46,
      "hit": false,
      "t": 306654.1666666673,
      "d": 41.66666666668607,
      "v": 79
    },
    {
      "midi": 52,
      "hit": false,
      "t": 306654.1666666673,
      "d": 41.66666666668607,
      "v": 83
    },
    {
      "midi": 76,
      "hit": false,
      "t": 306654.1666666673,
      "d": 54.16666666668607,
      "v": 89
    },
    {
      "midi": 73,
      "hit": false,
      "t": 306812.5000000007,
      "d": 66.66666666668607,
      "v": 99
    },
    {
      "midi": 46,
      "hit": false,
      "t": 306816.6666666674,
      "d": 41.66666666662786,
      "v": 74
    },
    {
      "midi": 52,
      "hit": false,
      "t": 306825.0000000007,
      "d": 50,
      "v": 73
    },
    {
      "midi": 55,
      "hit": false,
      "t": 306825.0000000007,
      "d": 50,
      "v": 82
    },
    {
      "midi": 67,
      "hit": false,
      "t": 306833.333333334,
      "d": 25,
      "v": 77
    },
    {
      "midi": 49,
      "hit": false,
      "t": 306833.333333334,
      "d": 41.66666666668607,
      "v": 70
    },
    {
      "midi": 80,
      "hit": false,
      "t": 306991.6666666674,
      "d": 95.83333333337214,
      "v": 100
    },
    {
      "midi": 56,
      "hit": false,
      "t": 307004.1666666674,
      "d": 91.66666666668607,
      "v": 95
    },
    {
      "midi": 59,
      "hit": false,
      "t": 307004.1666666674,
      "d": 91.66666666668607,
      "v": 91
    },
    {
      "midi": 68,
      "hit": false,
      "t": 307004.1666666674,
      "d": 91.66666666668607,
      "v": 105
    },
    {
      "midi": 47,
      "hit": false,
      "t": 307008.33333333407,
      "d": 95.83333333331393,
      "v": 88
    },
    {
      "midi": 52,
      "hit": false,
      "t": 307008.33333333407,
      "d": 95.83333333331393,
      "v": 95
    },
    {
      "midi": 56,
      "hit": false,
      "t": 307179.1666666674,
      "d": 95.83333333331393,
      "v": 76
    },
    {
      "midi": 68,
      "hit": false,
      "t": 307179.1666666674,
      "d": 95.83333333331393,
      "v": 88
    },
    {
      "midi": 76,
      "hit": false,
      "t": 307179.1666666674,
      "d": 95.83333333331393,
      "v": 90
    },
    {
      "midi": 52,
      "hit": false,
      "t": 307187.5000000007,
      "d": 87.5,
      "v": 76
    },
    {
      "midi": 47,
      "hit": false,
      "t": 307187.5000000007,
      "d": 91.66666666668607,
      "v": 66
    },
    {
      "midi": 59,
      "hit": false,
      "t": 307187.5000000007,
      "d": 91.66666666668607,
      "v": 64
    },
    {
      "midi": 71,
      "hit": false,
      "t": 307550.0000000007,
      "d": 79.16666666674428,
      "v": 103
    },
    {
      "midi": 64,
      "hit": false,
      "t": 307554.1666666674,
      "d": 62.50000000005821,
      "v": 100
    },
    {
      "midi": 56,
      "hit": false,
      "t": 307562.5000000007,
      "d": 50.00000000005821,
      "v": 94
    },
    {
      "midi": 59,
      "hit": false,
      "t": 307562.5000000007,
      "d": 62.50000000005821,
      "v": 90
    },
    {
      "midi": 47,
      "hit": false,
      "t": 307566.6666666674,
      "d": 41.66666666668607,
      "v": 78
    },
    {
      "midi": 52,
      "hit": false,
      "t": 307566.6666666674,
      "d": 50.00000000005821,
      "v": 94
    },
    {
      "midi": 68,
      "hit": false,
      "t": 307741.66666666744,
      "d": 141.66666666668607,
      "v": 89
    },
    {
      "midi": 56,
      "hit": false,
      "t": 307750.00000000076,
      "d": 116.66666666668607,
      "v": 73
    },
    {
      "midi": 47,
      "hit": false,
      "t": 307754.16666666744,
      "d": 104.16666666668607,
      "v": 61
    },
    {
      "midi": 64,
      "hit": false,
      "t": 307754.16666666744,
      "d": 104.16666666668607,
      "v": 77
    },
    {
      "midi": 52,
      "hit": false,
      "t": 307754.16666666744,
      "d": 125,
      "v": 71
    },
    {
      "midi": 59,
      "hit": false,
      "t": 307758.3333333341,
      "d": 87.5,
      "v": 71
    },
    {
      "midi": 73,
      "hit": false,
      "t": 308150.0000000008,
      "d": 99.99999999994179,
      "v": 105
    },
    {
      "midi": 47,
      "hit": false,
      "t": 308158.3333333341,
      "d": 54.16666666662786,
      "v": 78
    },
    {
      "midi": 63,
      "hit": false,
      "t": 308158.3333333341,
      "d": 74.99999999994179,
      "v": 111
    },
    {
      "midi": 54,
      "hit": false,
      "t": 308158.3333333341,
      "d": 83.33333333331393,
      "v": 98
    },
    {
      "midi": 57,
      "hit": false,
      "t": 308166.66666666744,
      "d": 70.83333333331393,
      "v": 94
    },
    {
      "midi": 63,
      "hit": false,
      "t": 308341.66666666744,
      "d": 125.00000000005821,
      "v": 80
    },
    {
      "midi": 71,
      "hit": false,
      "t": 308345.8333333341,
      "d": 137.5000000000582,
      "v": 77
    },
    {
      "midi": 54,
      "hit": false,
      "t": 308345.8333333341,
      "d": 158.33333333337214,
      "v": 58
    },
    {
      "midi": 57,
      "hit": false,
      "t": 308354.16666666744,
      "d": 125.00000000005821,
      "v": 51
    },
    {
      "midi": 47,
      "hit": false,
      "t": 308358.3333333341,
      "d": 104.16666666668607,
      "v": 61
    },
    {
      "midi": 47,
      "hit": false,
      "t": 308754.1666666675,
      "d": 58.33333333337214,
      "v": 70
    },
    {
      "midi": 63,
      "hit": false,
      "t": 308754.1666666675,
      "d": 70.83333333337214,
      "v": 95
    },
    {
      "midi": 69,
      "hit": false,
      "t": 308754.1666666675,
      "d": 91.66666666668607,
      "v": 85
    },
    {
      "midi": 54,
      "hit": false,
      "t": 308758.3333333342,
      "d": 66.66666666668607,
      "v": 76
    },
    {
      "midi": 57,
      "hit": false,
      "t": 308758.3333333342,
      "d": 66.66666666668607,
      "v": 70
    },
    {
      "midi": 47,
      "hit": false,
      "t": 308983.3333333342,
      "d": 104.16666666668607,
      "v": 61
    },
    {
      "midi": 57,
      "hit": false,
      "t": 308983.3333333342,
      "d": 125,
      "v": 56
    },
    {
      "midi": 54,
      "hit": false,
      "t": 308983.3333333342,
      "d": 133.33333333331393,
      "v": 66
    },
    {
      "midi": 66,
      "hit": false,
      "t": 308983.3333333342,
      "d": 145.83333333331393,
      "v": 77
    },
    {
      "midi": 63,
      "hit": false,
      "t": 308987.5000000009,
      "d": 129.16666666662786,
      "v": 66
    },
    {
      "midi": 40,
      "hit": false,
      "t": 309400.0000000008,
      "d": 91.66666666668607,
      "v": 90
    },
    {
      "midi": 68,
      "hit": false,
      "t": 309450.0000000008,
      "d": 116.66666666668607,
      "v": 88
    },
    {
      "midi": 64,
      "hit": false,
      "t": 309562.5000000008,
      "d": 66.66666666668607,
      "v": 80
    },
    {
      "midi": 47,
      "hit": false,
      "t": 309666.6666666675,
      "d": 87.5,
      "v": 60
    },
    {
      "midi": 56,
      "hit": false,
      "t": 309666.6666666675,
      "d": 91.66666666668607,
      "v": 60
    },
    {
      "midi": 59,
      "hit": false,
      "t": 309666.6666666675,
      "d": 108.33333333337214,
      "v": 76
    },
    {
      "midi": 52,
      "hit": false,
      "t": 309670.8333333342,
      "d": 91.66666666668607,
      "v": 60
    },
    {
      "midi": 64,
      "hit": false,
      "t": 309762.5000000009,
      "d": 95.83333333331393,
      "v": 80
    },
    {
      "midi": 68,
      "hit": false,
      "t": 309862.5000000009,
      "d": 62.5,
      "v": 84
    },
    {
      "midi": 52,
      "hit": false,
      "t": 309866.66666666756,
      "d": 95.83333333331393,
      "v": 60
    },
    {
      "midi": 56,
      "hit": false,
      "t": 309866.66666666756,
      "d": 95.83333333331393,
      "v": 60
    },
    {
      "midi": 47,
      "hit": false,
      "t": 309866.66666666756,
      "d": 100,
      "v": 60
    },
    {
      "midi": 71,
      "hit": false,
      "t": 309966.66666666756,
      "d": 87.5,
      "v": 75
    },
    {
      "midi": 76,
      "hit": false,
      "t": 310054.16666666756,
      "d": 116.66666666668607,
      "v": 80
    },
    {
      "midi": 56,
      "hit": false,
      "t": 310066.66666666756,
      "d": 370.83333333337214,
      "v": 80
    },
    {
      "midi": 47,
      "hit": false,
      "t": 310066.66666666756,
      "d": 375.0000000000582,
      "v": 70
    },
    {
      "midi": 52,
      "hit": false,
      "t": 310070.83333333425,
      "d": 375.0000000000582,
      "v": 80
    },
    {
      "midi": 80,
      "hit": false,
      "t": 310158.33333333425,
      "d": 112.5,
      "v": 76
    },
    {
      "midi": 83,
      "hit": false,
      "t": 310275.00000000093,
      "d": 108.33333333331393,
      "v": 61
    },
    {
      "midi": 80,
      "hit": false,
      "t": 310358.33333333425,
      "d": 125.00000000005821,
      "v": 74
    },
    {
      "midi": 76,
      "hit": false,
      "t": 310462.500000001,
      "d": 58.33333333331393,
      "v": 72
    },
    {
      "midi": 71,
      "hit": false,
      "t": 310550.000000001,
      "d": 66.66666666668607,
      "v": 64
    },
    {
      "midi": 40,
      "hit": false,
      "t": 310650.000000001,
      "d": 91.66666666668607,
      "v": 90
    },
    {
      "midi": 68,
      "hit": false,
      "t": 310675.000000001,
      "d": 125,
      "v": 86
    },
    {
      "midi": 64,
      "hit": false,
      "t": 310779.1666666677,
      "d": 83.33333333331393,
      "v": 79
    },
    {
      "midi": 56,
      "hit": false,
      "t": 310866.6666666677,
      "d": 95.83333333331393,
      "v": 72
    },
    {
      "midi": 47,
      "hit": false,
      "t": 310879.1666666677,
      "d": 91.66666666668607,
      "v": 70
    },
    {
      "midi": 52,
      "hit": false,
      "t": 310879.1666666677,
      "d": 91.66666666668607,
      "v": 70
    },
    {
      "midi": 59,
      "hit": false,
      "t": 310879.1666666677,
      "d": 104.16666666668607,
      "v": 85
    },
    {
      "midi": 64,
      "hit": false,
      "t": 310966.6666666677,
      "d": 108.33333333337214,
      "v": 84
    },
    {
      "midi": 56,
      "hit": false,
      "t": 311062.50000000105,
      "d": 91.66666666668607,
      "v": 64
    },
    {
      "midi": 68,
      "hit": false,
      "t": 311066.66666666773,
      "d": 50,
      "v": 80
    },
    {
      "midi": 52,
      "hit": false,
      "t": 311075.00000000105,
      "d": 95.83333333337214,
      "v": 66
    },
    {
      "midi": 47,
      "hit": false,
      "t": 311087.50000000105,
      "d": 91.66666666668607,
      "v": 80
    },
    {
      "midi": 71,
      "hit": false,
      "t": 311158.3333333344,
      "d": 104.16666666662786,
      "v": 73
    },
    {
      "midi": 76,
      "hit": false,
      "t": 311254.16666666773,
      "d": 104.16666666662786,
      "v": 80
    },
    {
      "midi": 56,
      "hit": false,
      "t": 311262.50000000105,
      "d": 375,
      "v": 92
    },
    {
      "midi": 52,
      "hit": false,
      "t": 311270.83333333436,
      "d": 379.16666666668607,
      "v": 87
    },
    {
      "midi": 47,
      "hit": false,
      "t": 311279.1666666677,
      "d": 370.83333333337214,
      "v": 100
    },
    {
      "midi": 80,
      "hit": false,
      "t": 311358.33333333436,
      "d": 104.16666666668607,
      "v": 75
    },
    {
      "midi": 83,
      "hit": false,
      "t": 311462.50000000105,
      "d": 87.5,
      "v": 73
    },
    {
      "midi": 80,
      "hit": false,
      "t": 311545.83333333436,
      "d": 133.33333333337214,
      "v": 79
    },
    {
      "midi": 76,
      "hit": false,
      "t": 311650.00000000105,
      "d": 79.16666666668607,
      "v": 70
    },
    {
      "midi": 71,
      "hit": false,
      "t": 311737.50000000105,
      "d": 37.5,
      "v": 73
    },
    {
      "midi": 85,
      "hit": false,
      "t": 311883.33333333436,
      "d": 179.16666666668607,
      "v": 62
    },
    {
      "midi": 46,
      "hit": false,
      "t": 311900.00000000105,
      "d": 162.5,
      "v": 60
    },
    {
      "midi": 82,
      "hit": false,
      "t": 311983.33333333436,
      "d": 145.83333333331393,
      "v": 63
    },
    {
      "midi": 61,
      "hit": false,
      "t": 312095.83333333436,
      "d": 95.83333333331393,
      "v": 40
    },
    {
      "midi": 88,
      "hit": false,
      "t": 312104.1666666677,
      "d": 70.83333333331393,
      "v": 64
    },
    {
      "midi": 52,
      "hit": false,
      "t": 312116.6666666677,
      "d": 95.83333333337214,
      "v": 40
    },
    {
      "midi": 54,
      "hit": false,
      "t": 312116.6666666677,
      "d": 95.83333333337214,
      "v": 40
    },
    {
      "midi": 79,
      "hit": false,
      "t": 312195.83333333436,
      "d": 100,
      "v": 53
    },
    {
      "midi": 82,
      "hit": false,
      "t": 312304.1666666677,
      "d": 91.66666666668607,
      "v": 66
    },
    {
      "midi": 61,
      "hit": false,
      "t": 312316.6666666677,
      "d": 91.66666666668607,
      "v": 40
    },
    {
      "midi": 52,
      "hit": false,
      "t": 312337.500000001,
      "d": 91.66666666668607,
      "v": 40
    },
    {
      "midi": 54,
      "hit": false,
      "t": 312354.1666666677,
      "d": 62.5,
      "v": 40
    },
    {
      "midi": 78,
      "hit": false,
      "t": 312395.83333333436,
      "d": 112.5,
      "v": 63
    },
    {
      "midi": 85,
      "hit": false,
      "t": 312504.1666666677,
      "d": 87.50000000005821,
      "v": 61
    },
    {
      "midi": 61,
      "hit": false,
      "t": 312508.33333333436,
      "d": 312.5000000000582,
      "v": 40
    },
    {
      "midi": 52,
      "hit": false,
      "t": 312525.00000000105,
      "d": 287.5000000000582,
      "v": 40
    },
    {
      "midi": 54,
      "hit": false,
      "t": 312525.00000000105,
      "d": 329.16666666668607,
      "v": 40
    },
    {
      "midi": 76,
      "hit": false,
      "t": 312608.3333333344,
      "d": 79.16666666668607,
      "v": 61
    },
    {
      "midi": 78,
      "hit": false,
      "t": 312700.0000000011,
      "d": 75,
      "v": 61
    },
    {
      "midi": 75,
      "hit": false,
      "t": 312783.3333333344,
      "d": 83.33333333331393,
      "v": 66
    },
    {
      "midi": 82,
      "hit": false,
      "t": 312879.16666666773,
      "d": 129.16666666668607,
      "v": 65
    },
    {
      "midi": 73,
      "hit": false,
      "t": 312979.16666666773,
      "d": 112.5,
      "v": 64
    },
    {
      "midi": 47,
      "hit": false,
      "t": 313075.0000000011,
      "d": 124.99999999994179,
      "v": 60
    },
    {
      "midi": 78,
      "hit": false,
      "t": 313083.3333333344,
      "d": 108.33333333331393,
      "v": 67
    },
    {
      "midi": 75,
      "hit": false,
      "t": 313166.66666666773,
      "d": 158.33333333325572,
      "v": 65
    },
    {
      "midi": 81,
      "hit": false,
      "t": 313270.83333333436,
      "d": 91.66666666662786,
      "v": 65
    },
    {
      "midi": 57,
      "hit": false,
      "t": 313283.33333333436,
      "d": 95.83333333331393,
      "v": 40
    },
    {
      "midi": 51,
      "hit": false,
      "t": 313291.6666666677,
      "d": 91.66666666668607,
      "v": 40
    },
    {
      "midi": 54,
      "hit": false,
      "t": 313291.6666666677,
      "d": 91.66666666668607,
      "v": 40
    },
    {
      "midi": 72,
      "hit": false,
      "t": 313366.6666666677,
      "d": 104.16666666668607,
      "v": 56
    },
    {
      "midi": 75,
      "hit": false,
      "t": 313466.6666666677,
      "d": 95.83333333337214,
      "v": 67
    },
    {
      "midi": 54,
      "hit": false,
      "t": 313483.33333333436,
      "d": 87.5,
      "v": 40
    },
    {
      "midi": 51,
      "hit": false,
      "t": 313487.50000000105,
      "d": 95.83333333331393,
      "v": 40
    },
    {
      "midi": 57,
      "hit": false,
      "t": 313487.50000000105,
      "d": 95.83333333331393,
      "v": 40
    },
    {
      "midi": 71,
      "hit": false,
      "t": 313550.00000000105,
      "d": 108.33333333331393,
      "v": 58
    },
    {
      "midi": 78,
      "hit": false,
      "t": 313666.6666666677,
      "d": 91.66666666668607,
      "v": 66
    },
    {
      "midi": 54,
      "hit": false,
      "t": 313675.000000001,
      "d": 229.16666666674428,
      "v": 40
    },
    {
      "midi": 57,
      "hit": false,
      "t": 313679.1666666677,
      "d": 204.16666666674428,
      "v": 40
    },
    {
      "midi": 51,
      "hit": false,
      "t": 313679.1666666677,
      "d": 241.66666666674428,
      "v": 40
    },
    {
      "midi": 69,
      "hit": false,
      "t": 313762.50000000105,
      "d": 79.16666666668607,
      "v": 48
    },
    {
      "midi": 71,
      "hit": false,
      "t": 313866.66666666773,
      "d": 91.66666666668607,
      "v": 62
    },
    {
      "midi": 68,
      "hit": false,
      "t": 313958.3333333344,
      "d": 104.16666666668607,
      "v": 66
    },
    {
      "midi": 75,
      "hit": false,
      "t": 314062.5000000011,
      "d": 95.83333333331393,
      "v": 61
    },
    {
      "midi": 66,
      "hit": false,
      "t": 314145.8333333344,
      "d": 62.5,
      "v": 57
    },
    {
      "midi": 40,
      "hit": false,
      "t": 314229.16666666773,
      "d": 91.66666666668607,
      "v": 90
    },
    {
      "midi": 68,
      "hit": false,
      "t": 314270.8333333344,
      "d": 108.33333333337214,
      "v": 89
    },
    {
      "midi": 64,
      "hit": false,
      "t": 314375.0000000011,
      "d": 83.33333333337214,
      "v": 84
    },
    {
      "midi": 47,
      "hit": false,
      "t": 314479.1666666678,
      "d": 91.66666666662786,
      "v": 80
    },
    {
      "midi": 52,
      "hit": false,
      "t": 314479.1666666678,
      "d": 91.66666666662786,
      "v": 80
    },
    {
      "midi": 56,
      "hit": false,
      "t": 314479.1666666678,
      "d": 95.83333333331393,
      "v": 80
    },
    {
      "midi": 59,
      "hit": false,
      "t": 314479.1666666678,
      "d": 95.83333333331393,
      "v": 83
    },
    {
      "midi": 64,
      "hit": false,
      "t": 314562.5000000011,
      "d": 104.16666666668607,
      "v": 88
    },
    {
      "midi": 68,
      "hit": false,
      "t": 314645.8333333344,
      "d": 75.00000000005821,
      "v": 88
    },
    {
      "midi": 47,
      "hit": false,
      "t": 314650.0000000011,
      "d": 100.00000000005821,
      "v": 80
    },
    {
      "midi": 52,
      "hit": false,
      "t": 314654.1666666678,
      "d": 95.83333333337214,
      "v": 80
    },
    {
      "midi": 56,
      "hit": false,
      "t": 314654.1666666678,
      "d": 95.83333333337214,
      "v": 80
    },
    {
      "midi": 71,
      "hit": false,
      "t": 314750.00000000116,
      "d": 91.66666666668607,
      "v": 85
    },
    {
      "midi": 56,
      "hit": false,
      "t": 314837.50000000116,
      "d": 254.16666666668607,
      "v": 80
    },
    {
      "midi": 76,
      "hit": false,
      "t": 314841.66666666785,
      "d": 129.16666666668607,
      "v": 80
    },
    {
      "midi": 47,
      "hit": false,
      "t": 314841.66666666785,
      "d": 250,
      "v": 80
    },
    {
      "midi": 52,
      "hit": false,
      "t": 314845.83333333454,
      "d": 245.83333333331393,
      "v": 80
    },
    {
      "midi": 80,
      "hit": false,
      "t": 314937.5000000012,
      "d": 95.83333333331393,
      "v": 80
    },
    {
      "midi": 83,
      "hit": false,
      "t": 315041.66666666785,
      "d": 154.16666666662786,
      "v": 80
    },
    {
      "midi": 80,
      "hit": false,
      "t": 315112.50000000116,
      "d": 116.66666666662786,
      "v": 77
    },
    {
      "midi": 76,
      "hit": false,
      "t": 315208.3333333345,
      "d": 66.66666666662786,
      "v": 71
    },
    {
      "midi": 71,
      "hit": false,
      "t": 315295.8333333344,
      "d": 62.5,
      "v": 62
    },
    {
      "midi": 40,
      "hit": false,
      "t": 315383.3333333344,
      "d": 87.5,
      "v": 90
    },
    {
      "midi": 68,
      "hit": false,
      "t": 315400.0000000011,
      "d": 120.83333333331393,
      "v": 88
    },
    {
      "midi": 64,
      "hit": false,
      "t": 315500.0000000011,
      "d": 83.33333333331393,
      "v": 84
    },
    {
      "midi": 56,
      "hit": false,
      "t": 315583.3333333344,
      "d": 95.83333333331393,
      "v": 73
    },
    {
      "midi": 52,
      "hit": false,
      "t": 315591.66666666773,
      "d": 95.83333333331393,
      "v": 67
    },
    {
      "midi": 47,
      "hit": false,
      "t": 315595.8333333344,
      "d": 99.99999999994179,
      "v": 80
    },
    {
      "midi": 59,
      "hit": false,
      "t": 315604.16666666773,
      "d": 104.16666666662786,
      "v": 89
    },
    {
      "midi": 64,
      "hit": false,
      "t": 315687.50000000105,
      "d": 108.33333333331393,
      "v": 80
    },
    {
      "midi": 56,
      "hit": false,
      "t": 315779.1666666677,
      "d": 87.50000000005821,
      "v": 62
    },
    {
      "midi": 68,
      "hit": false,
      "t": 315783.33333333436,
      "d": 58.33333333337214,
      "v": 80
    },
    {
      "midi": 47,
      "hit": false,
      "t": 315783.33333333436,
      "d": 95.83333333337214,
      "v": 80
    },
    {
      "midi": 52,
      "hit": false,
      "t": 315800.00000000105,
      "d": 87.5,
      "v": 61
    },
    {
      "midi": 71,
      "hit": false,
      "t": 315875.00000000105,
      "d": 104.16666666668607,
      "v": 67
    },
    {
      "midi": 76,
      "hit": false,
      "t": 315979.16666666773,
      "d": 95.83333333331393,
      "v": 77
    },
    {
      "midi": 56,
      "hit": false,
      "t": 315983.3333333344,
      "d": 250,
      "v": 66
    },
    {
      "midi": 47,
      "hit": false,
      "t": 315991.66666666773,
      "d": 258.33333333337214,
      "v": 80
    },
    {
      "midi": 52,
      "hit": false,
      "t": 315991.66666666773,
      "d": 258.33333333337214,
      "v": 63
    },
    {
      "midi": 80,
      "hit": false,
      "t": 316066.66666666773,
      "d": 112.5,
      "v": 73
    },
    {
      "midi": 83,
      "hit": false,
      "t": 316175.00000000105,
      "d": 95.83333333337214,
      "v": 80
    },
    {
      "midi": 80,
      "hit": false,
      "t": 316258.3333333344,
      "d": 100,
      "v": 75
    },
    {
      "midi": 76,
      "hit": false,
      "t": 316358.3333333344,
      "d": 62.5,
      "v": 66
    },
    {
      "midi": 71,
      "hit": false,
      "t": 316441.66666666773,
      "d": 41.66666666668607,
      "v": 70
    },
    {
      "midi": 46,
      "hit": false,
      "t": 316570.8333333344,
      "d": 191.66666666668607,
      "v": 61
    },
    {
      "midi": 82,
      "hit": false,
      "t": 316587.5000000011,
      "d": 170.83333333331393,
      "v": 66
    },
    {
      "midi": 85,
      "hit": false,
      "t": 316687.5000000011,
      "d": 87.5,
      "v": 57
    },
    {
      "midi": 88,
      "hit": false,
      "t": 316779.1666666678,
      "d": 79.16666666662786,
      "v": 61
    },
    {
      "midi": 61,
      "hit": false,
      "t": 316791.6666666678,
      "d": 87.5,
      "v": 54
    },
    {
      "midi": 54,
      "hit": false,
      "t": 316800.0000000011,
      "d": 95.83333333337214,
      "v": 45
    },
    {
      "midi": 52,
      "hit": false,
      "t": 316812.5000000011,
      "d": 87.50000000005821,
      "v": 36
    },
    {
      "midi": 79,
      "hit": false,
      "t": 316875.0000000011,
      "d": 83.33333333337214,
      "v": 56
    },
    {
      "midi": 61,
      "hit": false,
      "t": 316970.8333333345,
      "d": 100,
      "v": 61
    },
    {
      "midi": 78,
      "hit": false,
      "t": 316979.1666666678,
      "d": 112.50000000005821,
      "v": 65
    },
    {
      "midi": 52,
      "hit": false,
      "t": 316991.6666666678,
      "d": 95.83333333337214,
      "v": 51
    },
    {
      "midi": 54,
      "hit": false,
      "t": 316991.6666666678,
      "d": 95.83333333337214,
      "v": 45
    },
    {
      "midi": 82,
      "hit": false,
      "t": 317070.8333333345,
      "d": 179.16666666668607,
      "v": 56
    },
    {
      "midi": 85,
      "hit": false,
      "t": 317166.66666666785,
      "d": 108.33333333331393,
      "v": 64
    },
    {
      "midi": 61,
      "hit": false,
      "t": 317170.83333333454,
      "d": 249.9999999999418,
      "v": 52
    },
    {
      "midi": 52,
      "hit": false,
      "t": 317179.16666666785,
      "d": 249.9999999999418,
      "v": 49
    },
    {
      "midi": 54,
      "hit": false,
      "t": 317187.50000000116,
      "d": 279.16666666662786,
      "v": 44
    },
    {
      "midi": 77,
      "hit": false,
      "t": 317258.3333333345,
      "d": 75,
      "v": 63
    },
    {
      "midi": 76,
      "hit": false,
      "t": 317354.1666666678,
      "d": 66.66666666668607,
      "v": 61
    },
    {
      "midi": 73,
      "hit": false,
      "t": 317445.8333333345,
      "d": 95.83333333331393,
      "v": 62
    },
    {
      "midi": 78,
      "hit": false,
      "t": 317541.6666666678,
      "d": 62.5,
      "v": 57
    },
    {
      "midi": 70,
      "hit": false,
      "t": 317645.8333333345,
      "d": 54.16666666668607,
      "v": 52
    },
    {
      "midi": 47,
      "hit": false,
      "t": 317733.3333333345,
      "d": 125,
      "v": 70
    },
    {
      "midi": 75,
      "hit": false,
      "t": 317741.6666666678,
      "d": 116.66666666668607,
      "v": 70
    },
    {
      "midi": 78,
      "hit": false,
      "t": 317833.3333333345,
      "d": 91.66666666668607,
      "v": 66
    },
    {
      "midi": 81,
      "hit": false,
      "t": 317929.16666666785,
      "d": 83.33333333337214,
      "v": 67
    },
    {
      "midi": 51,
      "hit": false,
      "t": 317941.66666666785,
      "d": 91.66666666674428,
      "v": 64
    },
    {
      "midi": 57,
      "hit": false,
      "t": 317945.83333333454,
      "d": 95.83333333337214,
      "v": 52
    },
    {
      "midi": 54,
      "hit": false,
      "t": 317950.0000000012,
      "d": 95.83333333337214,
      "v": 52
    },
    {
      "midi": 72,
      "hit": false,
      "t": 318029.1666666679,
      "d": 75,
      "v": 54
    },
    {
      "midi": 71,
      "hit": false,
      "t": 318129.1666666679,
      "d": 141.66666666662786,
      "v": 63
    },
    {
      "midi": 51,
      "hit": false,
      "t": 318137.5000000012,
      "d": 95.83333333331393,
      "v": 62
    },
    {
      "midi": 54,
      "hit": false,
      "t": 318137.5000000012,
      "d": 95.83333333331393,
      "v": 58
    },
    {
      "midi": 57,
      "hit": false,
      "t": 318145.83333333454,
      "d": 87.5,
      "v": 58
    },
    {
      "midi": 75,
      "hit": false,
      "t": 318220.83333333454,
      "d": 112.5,
      "v": 65
    },
    {
      "midi": 78,
      "hit": false,
      "t": 318316.66666666785,
      "d": 129.16666666674428,
      "v": 70
    },
    {
      "midi": 51,
      "hit": false,
      "t": 318337.5000000012,
      "d": 187.5,
      "v": 62
    },
    {
      "midi": 54,
      "hit": false,
      "t": 318337.5000000012,
      "d": 204.16666666668607,
      "v": 46
    },
    {
      "midi": 57,
      "hit": false,
      "t": 318337.5000000012,
      "d": 212.5,
      "v": 45
    },
    {
      "midi": 70,
      "hit": false,
      "t": 318416.6666666679,
      "d": 75,
      "v": 64
    },
    {
      "midi": 69,
      "hit": false,
      "t": 318504.1666666679,
      "d": 79.16666666662786,
      "v": 65
    },
    {
      "midi": 66,
      "hit": false,
      "t": 318587.5000000012,
      "d": 112.5,
      "v": 69
    },
    {
      "midi": 71,
      "hit": false,
      "t": 318687.5000000012,
      "d": 75,
      "v": 57
    },
    {
      "midi": 63,
      "hit": false,
      "t": 318791.6666666679,
      "d": 91.66666666668607,
      "v": 62
    },
    {
      "midi": 68,
      "hit": false,
      "t": 318908.3333333346,
      "d": 120.83333333331393,
      "v": 77
    },
    {
      "midi": 52,
      "hit": false,
      "t": 318908.3333333346,
      "d": 966.6666666665697,
      "v": 52
    },
    {
      "midi": 66,
      "hit": false,
      "t": 319029.1666666679,
      "d": 79.16666666668607,
      "v": 56
    },
    {
      "midi": 64,
      "hit": false,
      "t": 319125.0000000013,
      "d": 87.5,
      "v": 56
    },
    {
      "midi": 66,
      "hit": false,
      "t": 319212.5000000013,
      "d": 100,
      "v": 56
    },
    {
      "midi": 68,
      "hit": false,
      "t": 319304.16666666797,
      "d": 58.33333333331393,
      "v": 60
    },
    {
      "midi": 69,
      "hit": false,
      "t": 319387.5000000013,
      "d": 100,
      "v": 52
    },
    {
      "midi": 71,
      "hit": false,
      "t": 319512.5000000013,
      "d": 116.66666666662786,
      "v": 66
    },
    {
      "midi": 56,
      "hit": false,
      "t": 319512.5000000013,
      "d": 354.16666666656965,
      "v": 67
    },
    {
      "midi": 59,
      "hit": false,
      "t": 319520.8333333346,
      "d": 1608.3333333333721,
      "v": 64
    },
    {
      "midi": 69,
      "hit": false,
      "t": 319637.5000000012,
      "d": 95.83333333331393,
      "v": 53
    },
    {
      "midi": 68,
      "hit": false,
      "t": 319741.66666666785,
      "d": 79.16666666668607,
      "v": 65
    },
    {
      "midi": 69,
      "hit": false,
      "t": 319833.33333333454,
      "d": 66.66666666662786,
      "v": 53
    },
    {
      "midi": 71,
      "hit": false,
      "t": 319920.83333333454,
      "d": 120.83333333331393,
      "v": 71
    },
    {
      "midi": 73,
      "hit": false,
      "t": 320020.83333333454,
      "d": 108.33333333331393,
      "v": 68
    },
    {
      "midi": 51,
      "hit": false,
      "t": 320129.16666666785,
      "d": 341.66666666668607,
      "v": 75
    },
    {
      "midi": 75,
      "hit": false,
      "t": 320133.33333333454,
      "d": 125,
      "v": 82
    },
    {
      "midi": 54,
      "hit": false,
      "t": 320137.5000000012,
      "d": 412.5,
      "v": 81
    },
    {
      "midi": 73,
      "hit": false,
      "t": 320250.0000000012,
      "d": 87.5,
      "v": 67
    },
    {
      "midi": 71,
      "hit": false,
      "t": 320345.83333333454,
      "d": 100,
      "v": 66
    },
    {
      "midi": 73,
      "hit": false,
      "t": 320445.83333333454,
      "d": 83.33333333337214,
      "v": 71
    },
    {
      "midi": 75,
      "hit": false,
      "t": 320529.1666666679,
      "d": 58.33333333331393,
      "v": 65
    },
    {
      "midi": 76,
      "hit": false,
      "t": 320604.1666666679,
      "d": 116.66666666668607,
      "v": 75
    },
    {
      "midi": 50,
      "hit": false,
      "t": 320729.1666666679,
      "d": 383.33333333337214,
      "v": 82
    },
    {
      "midi": 52,
      "hit": false,
      "t": 320733.3333333346,
      "d": 379.16666666668607,
      "v": 80
    },
    {
      "midi": 77,
      "hit": false,
      "t": 320737.5000000013,
      "d": 108.33333333331393,
      "v": 89
    },
    {
      "midi": 76,
      "hit": false,
      "t": 320862.5000000013,
      "d": 100,
      "v": 80
    },
    {
      "midi": 78,
      "hit": false,
      "t": 320941.66666666797,
      "d": 104.16666666662786,
      "v": 87
    },
    {
      "midi": 76,
      "hit": false,
      "t": 321050.0000000013,
      "d": 100.00000000005821,
      "v": 75
    },
    {
      "midi": 80,
      "hit": false,
      "t": 321145.83333333465,
      "d": 95.83333333331393,
      "v": 82
    },
    {
      "midi": 76,
      "hit": false,
      "t": 321241.66666666797,
      "d": 95.83333333331393,
      "v": 73
    },
    {
      "midi": 81,
      "hit": false,
      "t": 321354.1666666679,
      "d": 108.33333333331393,
      "v": 89
    },
    {
      "midi": 57,
      "hit": false,
      "t": 321358.3333333346,
      "d": 354.16666666656965,
      "v": 87
    },
    {
      "midi": 49,
      "hit": false,
      "t": 321366.6666666679,
      "d": 320.8333333332557,
      "v": 68
    },
    {
      "midi": 52,
      "hit": false,
      "t": 321366.6666666679,
      "d": 320.8333333332557,
      "v": 90
    },
    {
      "midi": 76,
      "hit": false,
      "t": 321479.1666666679,
      "d": 116.66666666662786,
      "v": 72
    },
    {
      "midi": 78,
      "hit": false,
      "t": 321575.0000000012,
      "d": 133.33333333325572,
      "v": 72
    },
    {
      "midi": 80,
      "hit": false,
      "t": 321679.16666666785,
      "d": 58.33333333331393,
      "v": 80
    },
    {
      "midi": 81,
      "hit": false,
      "t": 321770.8333333345,
      "d": 91.66666666668607,
      "v": 85
    },
    {
      "midi": 83,
      "hit": false,
      "t": 321866.66666666785,
      "d": 104.16666666662786,
      "v": 89
    },
    {
      "midi": 57,
      "hit": false,
      "t": 321970.8333333345,
      "d": 354.16666666668607,
      "v": 101
    },
    {
      "midi": 85,
      "hit": false,
      "t": 321979.1666666678,
      "d": 129.16666666668607,
      "v": 99
    },
    {
      "midi": 64,
      "hit": false,
      "t": 321979.1666666678,
      "d": 337.5000000000582,
      "v": 92
    },
    {
      "midi": 61,
      "hit": false,
      "t": 321979.1666666678,
      "d": 354.16666666668607,
      "v": 99
    },
    {
      "midi": 83,
      "hit": false,
      "t": 322095.8333333345,
      "d": 79.16666666668607,
      "v": 78
    },
    {
      "midi": 81,
      "hit": false,
      "t": 322191.66666666785,
      "d": 91.66666666668607,
      "v": 76
    },
    {
      "midi": 83,
      "hit": false,
      "t": 322283.33333333454,
      "d": 104.16666666662786,
      "v": 78
    },
    {
      "midi": 85,
      "hit": false,
      "t": 322387.50000000116,
      "d": 79.16666666668607,
      "v": 79
    },
    {
      "midi": 86,
      "hit": false,
      "t": 322470.83333333454,
      "d": 95.83333333331393,
      "v": 80
    },
    {
      "midi": 87,
      "hit": false,
      "t": 322587.50000000116,
      "d": 112.49999999994179,
      "v": 98
    },
    {
      "midi": 54,
      "hit": false,
      "t": 322587.50000000116,
      "d": 374.9999999998836,
      "v": 102
    },
    {
      "midi": 63,
      "hit": false,
      "t": 322587.50000000116,
      "d": 374.9999999998836,
      "v": 123
    },
    {
      "midi": 57,
      "hit": false,
      "t": 322595.8333333345,
      "d": 383.3333333332557,
      "v": 101
    },
    {
      "midi": 59,
      "hit": false,
      "t": 322595.8333333345,
      "d": 383.3333333332557,
      "v": 99
    },
    {
      "midi": 85,
      "hit": false,
      "t": 322679.1666666678,
      "d": 95.83333333331393,
      "v": 83
    },
    {
      "midi": 84,
      "hit": false,
      "t": 322783.3333333344,
      "d": 116.66666666662786,
      "v": 79
    },
    {
      "midi": 85,
      "hit": false,
      "t": 322879.16666666773,
      "d": 125,
      "v": 80
    },
    {
      "midi": 87,
      "hit": false,
      "t": 322983.3333333344,
      "d": 70.83333333331393,
      "v": 94
    },
    {
      "midi": 88,
      "hit": false,
      "t": 323066.66666666773,
      "d": 91.66666666668607,
      "v": 95
    },
    {
      "midi": 90,
      "hit": false,
      "t": 323170.8333333344,
      "d": 108.33333333337214,
      "v": 97
    },
    {
      "midi": 60,
      "hit": false,
      "t": 323179.1666666678,
      "d": 404.1666666667443,
      "v": 115
    },
    {
      "midi": 52,
      "hit": false,
      "t": 323187.5000000011,
      "d": 387.5000000001164,
      "v": 93
    },
    {
      "midi": 57,
      "hit": false,
      "t": 323191.6666666678,
      "d": 412.5000000000582,
      "v": 113
    },
    {
      "midi": 88,
      "hit": false,
      "t": 323275.0000000011,
      "d": 83.33333333337214,
      "v": 87
    },
    {
      "midi": 91,
      "hit": false,
      "t": 323366.6666666678,
      "d": 79.16666666668607,
      "v": 95
    },
    {
      "midi": 88,
      "hit": false,
      "t": 323462.50000000116,
      "d": 100,
      "v": 83
    },
    {
      "midi": 92,
      "hit": false,
      "t": 323562.50000000116,
      "d": 75,
      "v": 97
    },
    {
      "midi": 88,
      "hit": false,
      "t": 323654.16666666785,
      "d": 95.83333333331393,
      "v": 92
    },
    {
      "midi": 59,
      "hit": false,
      "t": 323762.50000000116,
      "d": 833.3333333333721,
      "v": 115
    },
    {
      "midi": 93,
      "hit": false,
      "t": 323770.8333333345,
      "d": 83.33333333337214,
      "v": 112
    },
    {
      "midi": 57,
      "hit": false,
      "t": 323770.8333333345,
      "d": 795.8333333334303,
      "v": 116
    },
    {
      "midi": 51,
      "hit": false,
      "t": 323770.8333333345,
      "d": 812.5000000000582,
      "v": 121
    },
    {
      "midi": 54,
      "hit": false,
      "t": 323775.00000000116,
      "d": 800.0000000000582,
      "v": 120
    },
    {
      "midi": 93,
      "hit": false,
      "t": 324012.50000000116,
      "d": 166.66666666668607,
      "v": 102
    },
    {
      "midi": 90,
      "hit": false,
      "t": 324112.50000000116,
      "d": 158.33333333337214,
      "v": 77
    },
    {
      "midi": 87,
      "hit": false,
      "t": 324195.83333333454,
      "d": 58.33333333331393,
      "v": 70
    },
    {
      "midi": 83,
      "hit": false,
      "t": 324283.33333333454,
      "d": 37.5,
      "v": 73
    },
    {
      "midi": 81,
      "hit": false,
      "t": 324375.0000000012,
      "d": 137.5,
      "v": 80
    },
    {
      "midi": 78,
      "hit": false,
      "t": 324470.83333333454,
      "d": 125,
      "v": 79
    },
    {
      "midi": 75,
      "hit": false,
      "t": 324562.5000000012,
      "d": 62.5,
      "v": 72
    },
    {
      "midi": 71,
      "hit": false,
      "t": 324654.1666666679,
      "d": 83.33333333331393,
      "v": 73
    },
    {
      "midi": 52,
      "hit": false,
      "t": 324741.6666666679,
      "d": 75,
      "v": 103
    },
    {
      "midi": 60,
      "hit": false,
      "t": 324741.6666666679,
      "d": 79.16666666668607,
      "v": 118
    },
    {
      "midi": 57,
      "hit": false,
      "t": 324741.6666666679,
      "d": 104.16666666668607,
      "v": 115
    },
    {
      "midi": 54,
      "hit": false,
      "t": 324741.6666666679,
      "d": 112.5,
      "v": 114
    },
    {
      "midi": 72,
      "hit": false,
      "t": 324750.0000000012,
      "d": 95.83333333337214,
      "v": 89
    },
    {
      "midi": 81,
      "hit": false,
      "t": 324841.6666666679,
      "d": 104.16666666668607,
      "v": 89
    },
    {
      "midi": 71,
      "hit": false,
      "t": 324966.6666666679,
      "d": 62.5,
      "v": 96
    },
    {
      "midi": 51,
      "hit": false,
      "t": 324966.6666666679,
      "d": 741.6666666666279,
      "v": 119
    },
    {
      "midi": 59,
      "hit": false,
      "t": 324970.8333333346,
      "d": 737.4999999999418,
      "v": 115
    },
    {
      "midi": 57,
      "hit": false,
      "t": 324970.8333333346,
      "d": 741.6666666666279,
      "v": 112
    },
    {
      "midi": 54,
      "hit": false,
      "t": 324970.8333333346,
      "d": 758.3333333333139,
      "v": 110
    },
    {
      "midi": 93,
      "hit": false,
      "t": 325216.6666666679,
      "d": 116.66666666662786,
      "v": 103
    },
    {
      "midi": 90,
      "hit": false,
      "t": 325312.5000000012,
      "d": 166.66666666662786,
      "v": 96
    },
    {
      "midi": 87,
      "hit": false,
      "t": 325404.16666666785,
      "d": 95.83333333331393,
      "v": 94
    },
    {
      "midi": 83,
      "hit": false,
      "t": 325500.00000000116,
      "d": 41.66666666668607,
      "v": 99
    },
    {
      "midi": 81,
      "hit": false,
      "t": 325583.33333333454,
      "d": 125,
      "v": 91
    },
    {
      "midi": 78,
      "hit": false,
      "t": 325679.16666666785,
      "d": 91.66666666674428,
      "v": 99
    },
    {
      "midi": 75,
      "hit": false,
      "t": 325770.8333333346,
      "d": 83.33333333331393,
      "v": 102
    },
    {
      "midi": 71,
      "hit": false,
      "t": 325866.6666666679,
      "d": 95.83333333337214,
      "v": 91
    },
    {
      "midi": 73,
      "hit": false,
      "t": 325958.3333333346,
      "d": 29.16666666668607,
      "v": 80
    },
    {
      "midi": 60,
      "hit": false,
      "t": 325958.3333333346,
      "d": 87.5,
      "v": 110
    },
    {
      "midi": 52,
      "hit": false,
      "t": 325962.5000000013,
      "d": 58.33333333331393,
      "v": 109
    },
    {
      "midi": 72,
      "hit": false,
      "t": 325966.66666666797,
      "d": 79.16666666662786,
      "v": 113
    },
    {
      "midi": 54,
      "hit": false,
      "t": 325966.66666666797,
      "d": 83.33333333331393,
      "v": 114
    },
    {
      "midi": 57,
      "hit": false,
      "t": 325966.66666666797,
      "d": 95.83333333331393,
      "v": 112
    },
    {
      "midi": 81,
      "hit": false,
      "t": 326054.16666666797,
      "d": 133.33333333331393,
      "v": 108
    },
    {
      "midi": 71,
      "hit": false,
      "t": 326191.66666666797,
      "d": 79.16666666662786,
      "v": 118
    },
    {
      "midi": 51,
      "hit": false,
      "t": 326191.66666666797,
      "d": 870.8333333333721,
      "v": 124
    },
    {
      "midi": 57,
      "hit": false,
      "t": 326200.0000000013,
      "d": 854.1666666667443,
      "v": 119
    },
    {
      "midi": 59,
      "hit": false,
      "t": 326200.0000000013,
      "d": 862.5000000000582,
      "v": 124
    },
    {
      "midi": 54,
      "hit": false,
      "t": 326200.0000000013,
      "d": 891.6666666666861,
      "v": 118
    },
    {
      "midi": 93,
      "hit": false,
      "t": 326479.16666666797,
      "d": 175,
      "v": 114
    },
    {
      "midi": 90,
      "hit": false,
      "t": 326608.33333333465,
      "d": 120.83333333331393,
      "v": 92
    },
    {
      "midi": 87,
      "hit": false,
      "t": 326700.0000000013,
      "d": 100.00000000005821,
      "v": 89
    },
    {
      "midi": 83,
      "hit": false,
      "t": 326795.83333333465,
      "d": 45.83333333337214,
      "v": 95
    },
    {
      "midi": 81,
      "hit": false,
      "t": 326883.3333333347,
      "d": 125,
      "v": 91
    },
    {
      "midi": 78,
      "hit": false,
      "t": 326970.8333333347,
      "d": 99.99999999994179,
      "v": 95
    },
    {
      "midi": 75,
      "hit": false,
      "t": 327070.83333333465,
      "d": 62.5,
      "v": 89
    },
    {
      "midi": 71,
      "hit": false,
      "t": 327166.66666666797,
      "d": 91.66666666662786,
      "v": 84
    },
    {
      "midi": 52,
      "hit": false,
      "t": 327250.0000000013,
      "d": 62.5,
      "v": 73
    },
    {
      "midi": 60,
      "hit": false,
      "t": 327250.0000000013,
      "d": 83.33333333331393,
      "v": 76
    },
    {
      "midi": 72,
      "hit": false,
      "t": 327250.0000000013,
      "d": 112.49999999994179,
      "v": 85
    },
    {
      "midi": 57,
      "hit": false,
      "t": 327258.3333333346,
      "d": 83.33333333331393,
      "v": 72
    },
    {
      "midi": 54,
      "hit": false,
      "t": 327262.5000000013,
      "d": 91.66666666662786,
      "v": 74
    },
    {
      "midi": 81,
      "hit": false,
      "t": 327354.1666666679,
      "d": 87.5,
      "v": 85
    },
    {
      "midi": 59,
      "hit": false,
      "t": 327458.3333333346,
      "d": 241.66666666662786,
      "v": 89
    },
    {
      "midi": 51,
      "hit": false,
      "t": 327458.3333333346,
      "d": 249.9999999999418,
      "v": 89
    },
    {
      "midi": 71,
      "hit": false,
      "t": 327466.6666666679,
      "d": 220.83333333331393,
      "v": 94
    },
    {
      "midi": 57,
      "hit": false,
      "t": 327466.6666666679,
      "d": 245.83333333331393,
      "v": 86
    },
    {
      "midi": 54,
      "hit": false,
      "t": 327466.6666666679,
      "d": 250,
      "v": 87
    },
    {
      "midi": 81,
      "hit": false,
      "t": 327570.8333333346,
      "d": 124.99999999994179,
      "v": 88
    },
    {
      "midi": 78,
      "hit": false,
      "t": 327666.6666666679,
      "d": 116.66666666662786,
      "v": 92
    },
    {
      "midi": 75,
      "hit": false,
      "t": 327762.5000000012,
      "d": 125,
      "v": 93
    },
    {
      "midi": 52,
      "hit": false,
      "t": 327858.33333333454,
      "d": 66.66666666668607,
      "v": 87
    },
    {
      "midi": 54,
      "hit": false,
      "t": 327862.5000000012,
      "d": 100,
      "v": 95
    },
    {
      "midi": 57,
      "hit": false,
      "t": 327862.5000000012,
      "d": 104.16666666668607,
      "v": 93
    },
    {
      "midi": 60,
      "hit": false,
      "t": 327866.6666666679,
      "d": 79.16666666662786,
      "v": 90
    },
    {
      "midi": 72,
      "hit": false,
      "t": 327866.6666666679,
      "d": 100,
      "v": 98
    },
    {
      "midi": 81,
      "hit": false,
      "t": 327958.33333333454,
      "d": 87.50000000005821,
      "v": 101
    },
    {
      "midi": 71,
      "hit": false,
      "t": 328066.6666666679,
      "d": 208.33333333343035,
      "v": 107
    },
    {
      "midi": 51,
      "hit": false,
      "t": 328066.6666666679,
      "d": 245.83333333343035,
      "v": 106
    },
    {
      "midi": 57,
      "hit": false,
      "t": 328070.8333333346,
      "d": 233.33333333343035,
      "v": 98
    },
    {
      "midi": 54,
      "hit": false,
      "t": 328070.8333333346,
      "d": 241.66666666674428,
      "v": 106
    },
    {
      "midi": 59,
      "hit": false,
      "t": 328075.0000000013,
      "d": 225.0000000000582,
      "v": 106
    },
    {
      "midi": 81,
      "hit": false,
      "t": 328166.66666666797,
      "d": 133.33333333337214,
      "v": 101
    },
    {
      "midi": 78,
      "hit": false,
      "t": 328270.83333333465,
      "d": 112.5,
      "v": 106
    },
    {
      "midi": 75,
      "hit": false,
      "t": 328362.50000000134,
      "d": 116.66666666668607,
      "v": 114
    },
    {
      "midi": 52,
      "hit": false,
      "t": 328462.50000000134,
      "d": 37.5,
      "v": 122
    },
    {
      "midi": 60,
      "hit": false,
      "t": 328462.50000000134,
      "d": 79.16666666668607,
      "v": 122
    },
    {
      "midi": 72,
      "hit": false,
      "t": 328462.50000000134,
      "d": 100.00000000005821,
      "v": 104
    },
    {
      "midi": 54,
      "hit": false,
      "t": 328466.666666668,
      "d": 79.16666666668607,
      "v": 121
    },
    {
      "midi": 57,
      "hit": false,
      "t": 328466.666666668,
      "d": 95.83333333337214,
      "v": 120
    },
    {
      "midi": 81,
      "hit": false,
      "t": 328550.0000000014,
      "d": 87.5,
      "v": 115
    },
    {
      "midi": 57,
      "hit": false,
      "t": 328658.3333333347,
      "d": 79.16666666662786,
      "v": 127
    },
    {
      "midi": 54,
      "hit": false,
      "t": 328658.3333333347,
      "d": 99.99999999994179,
      "v": 127
    },
    {
      "midi": 51,
      "hit": false,
      "t": 328658.3333333347,
      "d": 112.49999999994179,
      "v": 127
    },
    {
      "midi": 59,
      "hit": false,
      "t": 328666.666666668,
      "d": 62.5,
      "v": 127
    },
    {
      "midi": 71,
      "hit": false,
      "t": 328666.666666668,
      "d": 129.16666666662786,
      "v": 118
    },
    {
      "midi": 81,
      "hit": false,
      "t": 328762.50000000134,
      "d": 91.66666666662786,
      "v": 114
    },
    {
      "midi": 78,
      "hit": false,
      "t": 328854.16666666797,
      "d": 108.33333333337214,
      "v": 111
    },
    {
      "midi": 75,
      "hit": false,
      "t": 328945.83333333465,
      "d": 83.33333333331393,
      "v": 107
    },
    {
      "midi": 35,
      "hit": false,
      "t": 329029.16666666797,
      "d": 20.83333333331393,
      "v": 127
    },
    {
      "midi": 47,
      "hit": false,
      "t": 329041.66666666797,
      "d": 29.16666666662786,
      "v": 127
    },
    {
      "midi": 69,
      "hit": false,
      "t": 329041.66666666797,
      "d": 87.5,
      "v": 116
    },
    {
      "midi": 81,
      "hit": false,
      "t": 329112.5000000013,
      "d": 62.5,
      "v": 111
    },
    {
      "midi": 40,
      "hit": false,
      "t": 329220.83333333465,
      "d": 154.16666666662786,
      "v": 127
    },
    {
      "midi": 67,
      "hit": false,
      "t": 329233.33333333465,
      "d": 141.66666666662786,
      "v": 115
    },
    {
      "midi": 52,
      "hit": false,
      "t": 329233.33333333465,
      "d": 154.16666666662786,
      "v": 127
    },
    {
      "midi": 79,
      "hit": false,
      "t": 329333.33333333465,
      "d": 74.99999999994179,
      "v": 110
    },
    {
      "midi": 76,
      "hit": false,
      "t": 329425.0000000013,
      "d": 95.83333333331393,
      "v": 83
    },
    {
      "midi": 71,
      "hit": false,
      "t": 329520.8333333346,
      "d": 91.66666666662786,
      "v": 104
    },
    {
      "midi": 43,
      "hit": false,
      "t": 329604.1666666679,
      "d": 29.16666666662786,
      "v": 121
    },
    {
      "midi": 55,
      "hit": false,
      "t": 329612.5000000012,
      "d": 33.33333333331393,
      "v": 123
    },
    {
      "midi": 67,
      "hit": false,
      "t": 329612.5000000012,
      "d": 108.33333333337214,
      "v": 114
    },
    {
      "midi": 79,
      "hit": false,
      "t": 329691.6666666679,
      "d": 41.66666666668607,
      "v": 110
    },
    {
      "midi": 60,
      "hit": false,
      "t": 329812.5000000013,
      "d": 429.16666666668607,
      "v": 127
    },
    {
      "midi": 48,
      "hit": false,
      "t": 329816.66666666797,
      "d": 433.33333333331393,
      "v": 124
    },
    {
      "midi": 64,
      "hit": false,
      "t": 329908.3333333346,
      "d": 75,
      "v": 101
    },
    {
      "midi": 67,
      "hit": false,
      "t": 330020.8333333346,
      "d": 166.66666666668607,
      "v": 114
    },
    {
      "midi": 70,
      "hit": false,
      "t": 330112.5000000013,
      "d": 95.83333333331393,
      "v": 100
    },
    {
      "midi": 76,
      "hit": false,
      "t": 330212.5000000013,
      "d": 91.66666666662786,
      "v": 107
    },
    {
      "midi": 79,
      "hit": false,
      "t": 330283.3333333346,
      "d": 58.33333333331393,
      "v": 108
    },
    {
      "midi": 59,
      "hit": false,
      "t": 330395.8333333346,
      "d": 404.16666666668607,
      "v": 123
    },
    {
      "midi": 47,
      "hit": false,
      "t": 330400.0000000013,
      "d": 329.16666666668607,
      "v": 123
    },
    {
      "midi": 64,
      "hit": false,
      "t": 330500.0000000013,
      "d": 41.66666666668607,
      "v": 106
    },
    {
      "midi": 67,
      "hit": false,
      "t": 330604.16666666797,
      "d": 354.16666666668607,
      "v": 113
    },
    {
      "midi": 71,
      "hit": false,
      "t": 330700.0000000013,
      "d": 100,
      "v": 97
    },
    {
      "midi": 76,
      "hit": false,
      "t": 330795.8333333346,
      "d": 91.66666666668607,
      "v": 100
    },
    {
      "midi": 79,
      "hit": false,
      "t": 330879.16666666797,
      "d": 37.5,
      "v": 98
    },
    {
      "midi": 46,
      "hit": false,
      "t": 330979.16666666797,
      "d": 429.16666666668607,
      "v": 117
    },
    {
      "midi": 58,
      "hit": false,
      "t": 330979.16666666797,
      "d": 466.66666666668607,
      "v": 118
    },
    {
      "midi": 64,
      "hit": false,
      "t": 331066.666666668,
      "d": 58.33333333331393,
      "v": 105
    },
    {
      "midi": 67,
      "hit": false,
      "t": 331158.33333333465,
      "d": 387.5,
      "v": 96
    },
    {
      "midi": 73,
      "hit": false,
      "t": 331258.33333333465,
      "d": 125,
      "v": 97
    },
    {
      "midi": 76,
      "hit": false,
      "t": 331354.16666666797,
      "d": 125,
      "v": 96
    },
    {
      "midi": 79,
      "hit": false,
      "t": 331437.50000000134,
      "d": 62.49999999994179,
      "v": 100
    },
    {
      "midi": 47,
      "hit": false,
      "t": 331541.66666666797,
      "d": 325,
      "v": 113
    },
    {
      "midi": 59,
      "hit": false,
      "t": 331541.66666666797,
      "d": 425,
      "v": 113
    },
    {
      "midi": 64,
      "hit": false,
      "t": 331637.50000000134,
      "d": 54.16666666668607,
      "v": 75
    },
    {
      "midi": 67,
      "hit": false,
      "t": 331737.50000000134,
      "d": 229.16666666662786,
      "v": 69
    },
    {
      "midi": 71,
      "hit": false,
      "t": 331833.33333333465,
      "d": 158.33333333331393,
      "v": 85
    },
    {
      "midi": 76,
      "hit": false,
      "t": 331916.66666666797,
      "d": 104.16666666668607,
      "v": 97
    },
    {
      "midi": 79,
      "hit": false,
      "t": 332004.16666666797,
      "d": 29.16666666668607,
      "v": 88
    },
    {
      "midi": 60,
      "hit": false,
      "t": 332108.33333333465,
      "d": 433.33333333331393,
      "v": 105
    },
    {
      "midi": 48,
      "hit": false,
      "t": 332112.50000000134,
      "d": 433.33333333331393,
      "v": 102
    },
    {
      "midi": 64,
      "hit": false,
      "t": 332208.33333333465,
      "d": 54.16666666668607,
      "v": 79
    },
    {
      "midi": 67,
      "hit": false,
      "t": 332312.50000000134,
      "d": 91.66666666662786,
      "v": 82
    },
    {
      "midi": 70,
      "hit": false,
      "t": 332383.33333333465,
      "d": 104.16666666662786,
      "v": 84
    },
    {
      "midi": 76,
      "hit": false,
      "t": 332491.66666666797,
      "d": 83.33333333337214,
      "v": 84
    },
    {
      "midi": 79,
      "hit": false,
      "t": 332583.33333333465,
      "d": 62.5,
      "v": 88
    },
    {
      "midi": 47,
      "hit": false,
      "t": 332679.16666666797,
      "d": 433.33333333331393,
      "v": 83
    },
    {
      "midi": 59,
      "hit": false,
      "t": 332679.16666666797,
      "d": 433.33333333331393,
      "v": 94
    },
    {
      "midi": 64,
      "hit": false,
      "t": 332800.0000000013,
      "d": 45.83333333331393,
      "v": 74
    },
    {
      "midi": 67,
      "hit": false,
      "t": 332879.1666666679,
      "d": 79.16666666668607,
      "v": 75
    },
    {
      "midi": 71,
      "hit": false,
      "t": 332970.8333333346,
      "d": 95.83333333337214,
      "v": 78
    },
    {
      "midi": 76,
      "hit": false,
      "t": 333062.5000000013,
      "d": 104.16666666662786,
      "v": 84
    },
    {
      "midi": 79,
      "hit": false,
      "t": 333145.8333333346,
      "d": 41.66666666662786,
      "v": 78
    },
    {
      "midi": 46,
      "hit": false,
      "t": 333241.6666666679,
      "d": 433.33333333331393,
      "v": 86
    },
    {
      "midi": 58,
      "hit": false,
      "t": 333241.6666666679,
      "d": 433.33333333331393,
      "v": 92
    },
    {
      "midi": 64,
      "hit": false,
      "t": 333345.8333333346,
      "d": 50,
      "v": 83
    },
    {
      "midi": 67,
      "hit": false,
      "t": 333441.6666666679,
      "d": 125,
      "v": 73
    },
    {
      "midi": 73,
      "hit": false,
      "t": 333525.0000000012,
      "d": 83.33333333337214,
      "v": 81
    },
    {
      "midi": 76,
      "hit": false,
      "t": 333616.6666666679,
      "d": 95.83333333331393,
      "v": 79
    },
    {
      "midi": 79,
      "hit": false,
      "t": 333712.5000000012,
      "d": 58.33333333331393,
      "v": 76
    },
    {
      "midi": 61,
      "hit": false,
      "t": 333804.16666666785,
      "d": 433.33333333331393,
      "v": 88
    },
    {
      "midi": 49,
      "hit": false,
      "t": 333816.66666666785,
      "d": 437.5,
      "v": 81
    },
    {
      "midi": 64,
      "hit": false,
      "t": 333908.33333333454,
      "d": 54.16666666668607,
      "v": 79
    },
    {
      "midi": 67,
      "hit": false,
      "t": 334004.1666666679,
      "d": 91.66666666662786,
      "v": 67
    },
    {
      "midi": 70,
      "hit": false,
      "t": 334087.5000000012,
      "d": 91.66666666662786,
      "v": 72
    },
    {
      "midi": 76,
      "hit": false,
      "t": 334179.16666666785,
      "d": 83.33333333331393,
      "v": 70
    },
    {
      "midi": 79,
      "hit": false,
      "t": 334270.8333333345,
      "d": 45.83333333331393,
      "v": 72
    },
    {
      "midi": 59,
      "hit": false,
      "t": 334400.0000000011,
      "d": 4920.833333333489,
      "v": 61
    },
    {
      "midi": 51,
      "hit": false,
      "t": 334400.0000000011,
      "d": 4945.833333333489,
      "v": 55
    },
    {
      "midi": 57,
      "hit": false,
      "t": 334404.1666666678,
      "d": 4908.333333333489,
      "v": 50
    },
    {
      "midi": 54,
      "hit": false,
      "t": 334408.3333333345,
      "d": 4929.1666666668025,
      "v": 55
    },
    {
      "midi": 60,
      "hit": false,
      "t": 334604.1666666678,
      "d": 112.5,
      "v": 32
    },
    {
      "midi": 61,
      "hit": false,
      "t": 334720.8333333345,
      "d": 95.83333333331393,
      "v": 54
    },
    {
      "midi": 62,
      "hit": false,
      "t": 334825.0000000011,
      "d": 104.16666666668607,
      "v": 58
    },
    {
      "midi": 63,
      "hit": false,
      "t": 334945.8333333345,
      "d": 75,
      "v": 74
    },
    {
      "midi": 64,
      "hit": false,
      "t": 335033.3333333345,
      "d": 83.33333333331393,
      "v": 66
    },
    {
      "midi": 65,
      "hit": false,
      "t": 335133.3333333345,
      "d": 95.83333333331393,
      "v": 63
    },
    {
      "midi": 66,
      "hit": false,
      "t": 335233.3333333345,
      "d": 79.16666666668607,
      "v": 64
    },
    {
      "midi": 67,
      "hit": false,
      "t": 335316.66666666785,
      "d": 87.5,
      "v": 62
    },
    {
      "midi": 68,
      "hit": false,
      "t": 335404.16666666785,
      "d": 79.16666666668607,
      "v": 71
    },
    {
      "midi": 69,
      "hit": false,
      "t": 335487.5000000012,
      "d": 79.16666666668607,
      "v": 62
    },
    {
      "midi": 70,
      "hit": false,
      "t": 335566.6666666679,
      "d": 79.16666666668607,
      "v": 83
    },
    {
      "midi": 71,
      "hit": false,
      "t": 335658.3333333346,
      "d": 70.83333333331393,
      "v": 72
    },
    {
      "midi": 72,
      "hit": false,
      "t": 335737.5000000012,
      "d": 108.33333333331393,
      "v": 64
    },
    {
      "midi": 73,
      "hit": false,
      "t": 335837.5000000012,
      "d": 83.33333333331393,
      "v": 74
    },
    {
      "midi": 74,
      "hit": false,
      "t": 335925.0000000012,
      "d": 95.83333333331393,
      "v": 64
    },
    {
      "midi": 75,
      "hit": false,
      "t": 336025.0000000012,
      "d": 91.66666666668607,
      "v": 72
    },
    {
      "midi": 76,
      "hit": false,
      "t": 336125.0000000012,
      "d": 91.66666666668607,
      "v": 67
    },
    {
      "midi": 77,
      "hit": false,
      "t": 336216.6666666679,
      "d": 125,
      "v": 70
    },
    {
      "midi": 78,
      "hit": false,
      "t": 336333.3333333346,
      "d": 91.66666666662786,
      "v": 71
    },
    {
      "midi": 79,
      "hit": false,
      "t": 336441.6666666679,
      "d": 129.16666666668607,
      "v": 72
    },
    {
      "midi": 80,
      "hit": false,
      "t": 336570.8333333346,
      "d": 137.5,
      "v": 64
    },
    {
      "midi": 81,
      "hit": false,
      "t": 336712.5000000013,
      "d": 162.5,
      "v": 72
    },
    {
      "midi": 82,
      "hit": false,
      "t": 336862.5000000013,
      "d": 283.33333333331393,
      "v": 66
    },
    {
      "midi": 85,
      "hit": false,
      "t": 337108.3333333346,
      "d": 212.5000000000582,
      "v": 61
    },
    {
      "midi": 83,
      "hit": false,
      "t": 337525.00000000134,
      "d": 245.83333333331393,
      "v": 70
    },
    {
      "midi": 81,
      "hit": false,
      "t": 337779.16666666797,
      "d": 250,
      "v": 70
    },
    {
      "midi": 80,
      "hit": false,
      "t": 338025.0000000013,
      "d": 245.83333333337214,
      "v": 70
    },
    {
      "midi": 78,
      "hit": false,
      "t": 338258.33333333465,
      "d": 245.83333333331393,
      "v": 70
    },
    {
      "midi": 76,
      "hit": false,
      "t": 338479.16666666797,
      "d": 250,
      "v": 70
    },
    {
      "midi": 75,
      "hit": false,
      "t": 338729.16666666797,
      "d": 250,
      "v": 70
    },
    {
      "midi": 73,
      "hit": false,
      "t": 339000.0000000013,
      "d": 250,
      "v": 70
    },
    {
      "midi": 71,
      "hit": false,
      "t": 339279.16666666797,
      "d": 262.4999999999418,
      "v": 70
    },
    {
      "midi": 72,
      "hit": false,
      "t": 339541.6666666679,
      "d": 175,
      "v": 58
    },
    {
      "midi": 35,
      "hit": false,
      "t": 339541.6666666679,
      "d": 1487.5000000000582,
      "v": 48
    },
    {
      "midi": 75,
      "hit": false,
      "t": 339687.5000000012,
      "d": 362.5000000000582,
      "v": 68
    },
    {
      "midi": 73,
      "hit": false,
      "t": 340020.8333333346,
      "d": 520.8333333333721,
      "v": 62
    },
    {
      "midi": 71,
      "hit": false,
      "t": 340529.16666666797,
      "d": 829.1666666666861,
      "v": 58
    },
    {
      "midi": 40,
      "hit": false,
      "t": 341437.5000000013,
      "d": 83.33333333337214,
      "v": 49
    },
    {
      "midi": 52,
      "hit": false,
      "t": 341445.83333333465,
      "d": 108.33333333337214,
      "v": 35
    },
    {
      "midi": 68,
      "hit": false,
      "t": 341508.33333333465,
      "d": 137.5000000000582,
      "v": 60
    },
    {
      "midi": 64,
      "hit": false,
      "t": 341645.8333333347,
      "d": 70.83333333331393,
      "v": 49
    },
    {
      "midi": 47,
      "hit": false,
      "t": 341750.00000000134,
      "d": 33.33333333331393,
      "v": 44
    },
    {
      "midi": 56,
      "hit": false,
      "t": 341758.33333333465,
      "d": 41.66666666668607,
      "v": 48
    },
    {
      "midi": 59,
      "hit": false,
      "t": 341758.33333333465,
      "d": 79.16666666668607,
      "v": 53
    },
    {
      "midi": 52,
      "hit": false,
      "t": 341779.16666666797,
      "d": 20.83333333337214,
      "v": 28
    },
    {
      "midi": 64,
      "hit": false,
      "t": 341858.33333333465,
      "d": 100,
      "v": 55
    },
    {
      "midi": 56,
      "hit": false,
      "t": 341937.50000000134,
      "d": 41.66666666662786,
      "v": 44
    },
    {
      "midi": 47,
      "hit": false,
      "t": 341941.666666668,
      "d": 29.16666666662786,
      "v": 35
    },
    {
      "midi": 52,
      "hit": false,
      "t": 341950.00000000134,
      "d": 20.83333333331393,
      "v": 39
    },
    {
      "midi": 68,
      "hit": false,
      "t": 341958.33333333465,
      "d": 54.16666666662786,
      "v": 60
    },
    {
      "midi": 71,
      "hit": false,
      "t": 342062.5000000013,
      "d": 91.66666666668607,
      "v": 51
    },
    {
      "midi": 76,
      "hit": false,
      "t": 342154.16666666797,
      "d": 104.16666666668607,
      "v": 56
    },
    {
      "midi": 47,
      "hit": false,
      "t": 342154.16666666797,
      "d": 379.1666666667443,
      "v": 51
    },
    {
      "midi": 56,
      "hit": false,
      "t": 342158.33333333465,
      "d": 341.66666666668607,
      "v": 54
    },
    {
      "midi": 52,
      "hit": false,
      "t": 342166.66666666797,
      "d": 333.33333333337214,
      "v": 51
    },
    {
      "midi": 80,
      "hit": false,
      "t": 342254.16666666797,
      "d": 104.16666666668607,
      "v": 60
    },
    {
      "midi": 83,
      "hit": false,
      "t": 342362.50000000134,
      "d": 95.83333333331393,
      "v": 61
    },
    {
      "midi": 80,
      "hit": false,
      "t": 342445.83333333465,
      "d": 125.00000000005821,
      "v": 60
    },
    {
      "midi": 76,
      "hit": false,
      "t": 342550.0000000014,
      "d": 66.66666666662786,
      "v": 55
    },
    {
      "midi": 71,
      "hit": false,
      "t": 342654.166666668,
      "d": 45.83333333331393,
      "v": 44
    },
    {
      "midi": 68,
      "hit": false,
      "t": 342762.50000000134,
      "d": 120.83333333331393,
      "v": 58
    },
    {
      "midi": 40,
      "hit": false,
      "t": 342770.83333333465,
      "d": 41.66666666668607,
      "v": 54
    },
    {
      "midi": 52,
      "hit": false,
      "t": 342775.00000000134,
      "d": 50,
      "v": 44
    },
    {
      "midi": 64,
      "hit": false,
      "t": 342895.83333333465,
      "d": 50,
      "v": 55
    },
    {
      "midi": 56,
      "hit": false,
      "t": 342987.50000000134,
      "d": 54.16666666668607,
      "v": 51
    },
    {
      "midi": 47,
      "hit": false,
      "t": 342987.50000000134,
      "d": 58.33333333337214,
      "v": 51
    },
    {
      "midi": 59,
      "hit": false,
      "t": 342991.666666668,
      "d": 83.33333333337214,
      "v": 53
    },
    {
      "midi": 64,
      "hit": false,
      "t": 343091.6666666681,
      "d": 104.16666666668607,
      "v": 60
    },
    {
      "midi": 47,
      "hit": false,
      "t": 343175.0000000014,
      "d": 33.33333333337214,
      "v": 51
    },
    {
      "midi": 56,
      "hit": false,
      "t": 343187.5000000014,
      "d": 29.16666666668607,
      "v": 38
    },
    {
      "midi": 68,
      "hit": false,
      "t": 343191.6666666681,
      "d": 66.66666666668607,
      "v": 58
    },
    {
      "midi": 52,
      "hit": false,
      "t": 343200.00000000146,
      "d": 16.66666666662786,
      "v": 36
    },
    {
      "midi": 71,
      "hit": false,
      "t": 343291.6666666681,
      "d": 91.66666666668607,
      "v": 61
    },
    {
      "midi": 47,
      "hit": false,
      "t": 343387.50000000146,
      "d": 375,
      "v": 53
    },
    {
      "midi": 56,
      "hit": false,
      "t": 343387.50000000146,
      "d": 391.66666666662786,
      "v": 58
    },
    {
      "midi": 76,
      "hit": false,
      "t": 343395.83333333477,
      "d": 91.66666666662786,
      "v": 51
    },
    {
      "midi": 52,
      "hit": false,
      "t": 343395.83333333477,
      "d": 354.16666666668607,
      "v": 51
    },
    {
      "midi": 80,
      "hit": false,
      "t": 343487.5000000014,
      "d": 100,
      "v": 58
    },
    {
      "midi": 83,
      "hit": false,
      "t": 343604.1666666681,
      "d": 104.16666666668607,
      "v": 58
    },
    {
      "midi": 80,
      "hit": false,
      "t": 343695.83333333477,
      "d": 116.66666666662786,
      "v": 58
    },
    {
      "midi": 76,
      "hit": false,
      "t": 343800.0000000014,
      "d": 75,
      "v": 58
    },
    {
      "midi": 71,
      "hit": false,
      "t": 343883.3333333347,
      "d": 41.66666666668607,
      "v": 51
    },
    {
      "midi": 46,
      "hit": false,
      "t": 344000.0000000014,
      "d": 1025.0000000001164,
      "v": 58
    },
    {
      "midi": 85,
      "hit": false,
      "t": 344008.3333333347,
      "d": 137.5,
      "v": 58
    },
    {
      "midi": 82,
      "hit": false,
      "t": 344095.8333333347,
      "d": 133.33333333337214,
      "v": 60
    },
    {
      "midi": 88,
      "hit": false,
      "t": 344208.3333333347,
      "d": 75.00000000005821,
      "v": 60
    },
    {
      "midi": 61,
      "hit": false,
      "t": 344212.5000000014,
      "d": 58.33333333337214,
      "v": 47
    },
    {
      "midi": 54,
      "hit": false,
      "t": 344216.6666666681,
      "d": 62.5,
      "v": 37
    },
    {
      "midi": 52,
      "hit": false,
      "t": 344233.33333333477,
      "d": 25,
      "v": 36
    },
    {
      "midi": 79,
      "hit": false,
      "t": 344300.00000000146,
      "d": 83.33333333331393,
      "v": 53
    },
    {
      "midi": 61,
      "hit": false,
      "t": 344404.1666666681,
      "d": 62.5,
      "v": 58
    },
    {
      "midi": 82,
      "hit": false,
      "t": 344404.1666666681,
      "d": 100,
      "v": 56
    },
    {
      "midi": 78,
      "hit": false,
      "t": 344500.0000000014,
      "d": 108.33333333337214,
      "v": 57
    },
    {
      "midi": 85,
      "hit": false,
      "t": 344612.50000000146,
      "d": 87.5,
      "v": 60
    },
    {
      "midi": 61,
      "hit": false,
      "t": 344612.50000000146,
      "d": 391.66666666668607,
      "v": 64
    },
    {
      "midi": 54,
      "hit": false,
      "t": 344625.00000000146,
      "d": 404.1666666667443,
      "v": 46
    },
    {
      "midi": 52,
      "hit": false,
      "t": 344629.16666666814,
      "d": 354.16666666662786,
      "v": 46
    },
    {
      "midi": 76,
      "hit": false,
      "t": 344708.33333333477,
      "d": 91.66666666668607,
      "v": 49
    },
    {
      "midi": 78,
      "hit": false,
      "t": 344820.83333333477,
      "d": 75,
      "v": 42
    },
    {
      "midi": 75,
      "hit": false,
      "t": 344895.83333333477,
      "d": 91.66666666668607,
      "v": 51
    },
    {
      "midi": 82,
      "hit": false,
      "t": 345008.3333333348,
      "d": 95.83333333337214,
      "v": 56
    },
    {
      "midi": 73,
      "hit": false,
      "t": 345087.5000000015,
      "d": 87.5,
      "v": 54
    },
    {
      "midi": 47,
      "hit": false,
      "t": 345175.0000000015,
      "d": 37.5,
      "v": 58
    },
    {
      "midi": 78,
      "hit": false,
      "t": 345191.6666666682,
      "d": 162.5,
      "v": 60
    },
    {
      "midi": 75,
      "hit": false,
      "t": 345275.0000000015,
      "d": 125.00000000005821,
      "v": 58
    },
    {
      "midi": 54,
      "hit": false,
      "t": 345379.1666666682,
      "d": 100.00000000005821,
      "v": 44
    },
    {
      "midi": 51,
      "hit": false,
      "t": 345383.3333333349,
      "d": 66.66666666668607,
      "v": 44
    },
    {
      "midi": 81,
      "hit": false,
      "t": 345387.5000000016,
      "d": 75,
      "v": 64
    },
    {
      "midi": 59,
      "hit": false,
      "t": 345395.8333333349,
      "d": 33.33333333337214,
      "v": 19
    },
    {
      "midi": 57,
      "hit": false,
      "t": 345400.0000000016,
      "d": 41.66666666668607,
      "v": 14
    },
    {
      "midi": 72,
      "hit": false,
      "t": 345479.16666666826,
      "d": 91.66666666668607,
      "v": 37
    },
    {
      "midi": 75,
      "hit": false,
      "t": 345575.00000000163,
      "d": 120.83333333331393,
      "v": 51
    },
    {
      "midi": 54,
      "hit": false,
      "t": 345595.83333333494,
      "d": 100,
      "v": 41
    },
    {
      "midi": 51,
      "hit": false,
      "t": 345608.33333333494,
      "d": 20.83333333331393,
      "v": 38
    },
    {
      "midi": 71,
      "hit": false,
      "t": 345679.16666666826,
      "d": 95.83333333337214,
      "v": 51
    },
    {
      "midi": 78,
      "hit": false,
      "t": 345775.00000000163,
      "d": 91.66666666668607,
      "v": 64
    },
    {
      "midi": 54,
      "hit": false,
      "t": 345783.33333333494,
      "d": 325,
      "v": 39
    },
    {
      "midi": 57,
      "hit": false,
      "t": 345800.00000000163,
      "d": 275,
      "v": 42
    },
    {
      "midi": 59,
      "hit": false,
      "t": 345800.00000000163,
      "d": 275,
      "v": 44
    },
    {
      "midi": 51,
      "hit": false,
      "t": 345804.1666666683,
      "d": 299.9999999999418,
      "v": 49
    },
    {
      "midi": 69,
      "hit": false,
      "t": 345866.6666666683,
      "d": 100,
      "v": 42
    },
    {
      "midi": 71,
      "hit": false,
      "t": 345962.50000000163,
      "d": 154.16666666662786,
      "v": 51
    },
    {
      "midi": 68,
      "hit": false,
      "t": 346083.33333333494,
      "d": 104.16666666662786,
      "v": 46
    },
    {
      "midi": 75,
      "hit": false,
      "t": 346170.8333333349,
      "d": 87.5,
      "v": 58
    },
    {
      "midi": 66,
      "hit": false,
      "t": 346270.8333333349,
      "d": 54.16666666668607,
      "v": 59
    },
    {
      "midi": 35,
      "hit": false,
      "t": 346379.1666666682,
      "d": 29.16666666662786,
      "v": 63
    },
    {
      "midi": 47,
      "hit": false,
      "t": 346379.1666666682,
      "d": 37.49999999994179,
      "v": 51
    },
    {
      "midi": 68,
      "hit": false,
      "t": 346387.5000000015,
      "d": 116.66666666668607,
      "v": 63
    },
    {
      "midi": 64,
      "hit": false,
      "t": 346504.1666666682,
      "d": 62.5,
      "v": 60
    },
    {
      "midi": 59,
      "hit": false,
      "t": 346616.6666666682,
      "d": 83.33333333325572,
      "v": 54
    },
    {
      "midi": 47,
      "hit": false,
      "t": 346637.5000000015,
      "d": 33.33333333331393,
      "v": 45
    },
    {
      "midi": 56,
      "hit": false,
      "t": 346637.5000000015,
      "d": 54.16666666662786,
      "v": 42
    },
    {
      "midi": 64,
      "hit": false,
      "t": 346708.33333333477,
      "d": 108.33333333337214,
      "v": 56
    },
    {
      "midi": 56,
      "hit": false,
      "t": 346800.00000000146,
      "d": 58.33333333331393,
      "v": 53
    },
    {
      "midi": 47,
      "hit": false,
      "t": 346804.16666666814,
      "d": 41.66666666662786,
      "v": 44
    },
    {
      "midi": 68,
      "hit": false,
      "t": 346812.50000000146,
      "d": 54.16666666662786,
      "v": 61
    },
    {
      "midi": 52,
      "hit": false,
      "t": 346816.66666666814,
      "d": 20.83333333331393,
      "v": 46
    },
    {
      "midi": 71,
      "hit": false,
      "t": 346904.1666666681,
      "d": 79.16666666668607,
      "v": 58
    },
    {
      "midi": 76,
      "hit": false,
      "t": 347004.1666666681,
      "d": 112.5,
      "v": 54
    },
    {
      "midi": 56,
      "hit": false,
      "t": 347004.1666666681,
      "d": 370.83333333331393,
      "v": 68
    },
    {
      "midi": 52,
      "hit": false,
      "t": 347004.1666666681,
      "d": 383.33333333331393,
      "v": 60
    },
    {
      "midi": 47,
      "hit": false,
      "t": 347004.1666666681,
      "d": 420.83333333331393,
      "v": 53
    },
    {
      "midi": 80,
      "hit": false,
      "t": 347095.83333333477,
      "d": 100,
      "v": 60
    },
    {
      "midi": 83,
      "hit": false,
      "t": 347200.00000000146,
      "d": 104.16666666662786,
      "v": 60
    },
    {
      "midi": 80,
      "hit": false,
      "t": 347283.33333333477,
      "d": 137.4999999999418,
      "v": 59
    },
    {
      "midi": 76,
      "hit": false,
      "t": 347400.0000000014,
      "d": 50,
      "v": 54
    },
    {
      "midi": 71,
      "hit": false,
      "t": 347470.8333333347,
      "d": 58.33333333331393,
      "v": 52
    },
    {
      "midi": 35,
      "hit": false,
      "t": 347616.666666668,
      "d": 37.50000000005821,
      "v": 60
    },
    {
      "midi": 47,
      "hit": false,
      "t": 347633.3333333347,
      "d": 87.50000000005821,
      "v": 50
    },
    {
      "midi": 68,
      "hit": false,
      "t": 347637.5000000014,
      "d": 116.66666666668607,
      "v": 66
    },
    {
      "midi": 65,
      "hit": false,
      "t": 347754.1666666681,
      "d": 79.16666666668607,
      "v": 57
    },
    {
      "midi": 59,
      "hit": false,
      "t": 347866.6666666681,
      "d": 100,
      "v": 57
    },
    {
      "midi": 56,
      "hit": false,
      "t": 347875.0000000014,
      "d": 1229.1666666666279,
      "v": 66
    },
    {
      "midi": 65,
      "hit": false,
      "t": 347966.6666666681,
      "d": 104.16666666668607,
      "v": 57
    },
    {
      "midi": 68,
      "hit": false,
      "t": 348075.00000000146,
      "d": 50,
      "v": 60
    },
    {
      "midi": 59,
      "hit": false,
      "t": 348087.50000000146,
      "d": 312.5,
      "v": 67
    },
    {
      "midi": 71,
      "hit": false,
      "t": 348195.83333333477,
      "d": 137.5,
      "v": 63
    },
    {
      "midi": 77,
      "hit": false,
      "t": 348316.6666666681,
      "d": 141.66666666668607,
      "v": 63
    },
    {
      "midi": 62,
      "hit": false,
      "t": 348337.50000000146,
      "d": 287.4999999999418,
      "v": 56
    },
    {
      "midi": 80,
      "hit": false,
      "t": 348437.50000000146,
      "d": 158.33333333331393,
      "v": 60
    },
    {
      "midi": 83,
      "hit": false,
      "t": 348595.83333333477,
      "d": 145.83333333331393,
      "v": 40
    },
    {
      "midi": 61,
      "hit": false,
      "t": 348604.1666666681,
      "d": 375,
      "v": 54
    },
    {
      "midi": 80,
      "hit": false,
      "t": 348741.6666666681,
      "d": 179.16666666668607,
      "v": 50
    },
    {
      "midi": 59,
      "hit": false,
      "t": 348908.33333333477,
      "d": 166.66666666662786,
      "v": 42
    },
    {
      "midi": 77,
      "hit": false,
      "t": 348920.83333333477,
      "d": 154.16666666662786,
      "v": 47
    },
    {
      "midi": 71,
      "hit": false,
      "t": 349104.166666668,
      "d": 41.66666666668607,
      "v": 52
    },
    {
      "midi": 47,
      "hit": false,
      "t": 349383.3333333347,
      "d": 66.66666666668607,
      "v": 51
    },
    {
      "midi": 85,
      "hit": false,
      "t": 349437.5000000014,
      "d": 179.16666666662786,
      "v": 59
    },
    {
      "midi": 82,
      "hit": false,
      "t": 349583.3333333347,
      "d": 170.83333333331393,
      "v": 58
    },
    {
      "midi": 54,
      "hit": false,
      "t": 349712.50000000134,
      "d": 70.83333333337214,
      "v": 45
    },
    {
      "midi": 64,
      "hit": false,
      "t": 349716.666666668,
      "d": 58.33333333337214,
      "v": 36
    },
    {
      "midi": 88,
      "hit": false,
      "t": 349716.666666668,
      "d": 95.83333333337214,
      "v": 62
    },
    {
      "midi": 58,
      "hit": false,
      "t": 349729.166666668,
      "d": 29.16666666668607,
      "v": 42
    },
    {
      "midi": 61,
      "hit": false,
      "t": 349729.166666668,
      "d": 54.16666666668607,
      "v": 42
    },
    {
      "midi": 79,
      "hit": false,
      "t": 349833.3333333347,
      "d": 104.16666666668607,
      "v": 55
    },
    {
      "midi": 82,
      "hit": false,
      "t": 349950.0000000014,
      "d": 112.5,
      "v": 56
    },
    {
      "midi": 64,
      "hit": false,
      "t": 349958.3333333347,
      "d": 54.16666666668607,
      "v": 48
    },
    {
      "midi": 54,
      "hit": false,
      "t": 349958.3333333347,
      "d": 66.66666666668607,
      "v": 46
    },
    {
      "midi": 61,
      "hit": false,
      "t": 349966.666666668,
      "d": 41.66666666668607,
      "v": 43
    },
    {
      "midi": 58,
      "hit": false,
      "t": 349970.8333333347,
      "d": 33.33333333331393,
      "v": 38
    },
    {
      "midi": 78,
      "hit": false,
      "t": 350062.5000000014,
      "d": 137.5000000000582,
      "v": 61
    },
    {
      "midi": 85,
      "hit": false,
      "t": 350187.5000000014,
      "d": 112.50000000005821,
      "v": 66
    },
    {
      "midi": 54,
      "hit": false,
      "t": 350187.5000000014,
      "d": 525.0000000001164,
      "v": 58
    },
    {
      "midi": 64,
      "hit": false,
      "t": 350191.6666666681,
      "d": 487.5000000001164,
      "v": 62
    },
    {
      "midi": 61,
      "hit": false,
      "t": 350195.83333333477,
      "d": 491.6666666667443,
      "v": 57
    },
    {
      "midi": 58,
      "hit": false,
      "t": 350200.00000000146,
      "d": 491.6666666667443,
      "v": 57
    },
    {
      "midi": 76,
      "hit": false,
      "t": 350304.16666666814,
      "d": 112.5,
      "v": 51
    },
    {
      "midi": 78,
      "hit": false,
      "t": 350420.8333333348,
      "d": 125,
      "v": 63
    },
    {
      "midi": 75,
      "hit": false,
      "t": 350520.8333333348,
      "d": 116.66666666668607,
      "v": 64
    },
    {
      "midi": 82,
      "hit": false,
      "t": 350637.5000000015,
      "d": 91.66666666668607,
      "v": 69
    },
    {
      "midi": 73,
      "hit": false,
      "t": 350741.6666666682,
      "d": 95.83333333331393,
      "v": 66
    },
    {
      "midi": 47,
      "hit": false,
      "t": 350862.5000000015,
      "d": 37.5,
      "v": 57
    },
    {
      "midi": 78,
      "hit": false,
      "t": 350862.5000000015,
      "d": 162.4999999999418,
      "v": 70
    },
    {
      "midi": 75,
      "hit": false,
      "t": 350979.16666666814,
      "d": 112.49999999994179,
      "v": 70
    },
    {
      "midi": 81,
      "hit": false,
      "t": 351083.33333333477,
      "d": 91.66666666662786,
      "v": 70
    },
    {
      "midi": 59,
      "hit": false,
      "t": 351091.6666666681,
      "d": 54.16666666668607,
      "v": 53
    },
    {
      "midi": 57,
      "hit": false,
      "t": 351095.83333333477,
      "d": 58.33333333331393,
      "v": 54
    },
    {
      "midi": 54,
      "hit": false,
      "t": 351104.1666666681,
      "d": 70.83333333331393,
      "v": 51
    },
    {
      "midi": 72,
      "hit": false,
      "t": 351191.6666666681,
      "d": 91.66666666668607,
      "v": 70
    },
    {
      "midi": 75,
      "hit": false,
      "t": 351279.1666666681,
      "d": 137.5,
      "v": 70
    },
    {
      "midi": 54,
      "hit": false,
      "t": 351304.1666666681,
      "d": 75,
      "v": 58
    },
    {
      "midi": 57,
      "hit": false,
      "t": 351316.6666666681,
      "d": 45.83333333331393,
      "v": 60
    },
    {
      "midi": 59,
      "hit": false,
      "t": 351316.6666666681,
      "d": 45.83333333331393,
      "v": 55
    },
    {
      "midi": 71,
      "hit": false,
      "t": 351387.5000000014,
      "d": 120.83333333337214,
      "v": 70
    },
    {
      "midi": 78,
      "hit": false,
      "t": 351504.1666666681,
      "d": 83.33333333337214,
      "v": 70
    },
    {
      "midi": 57,
      "hit": false,
      "t": 351508.33333333477,
      "d": 316.6666666667443,
      "v": 64
    },
    {
      "midi": 59,
      "hit": false,
      "t": 351512.50000000146,
      "d": 308.33333333337214,
      "v": 64
    },
    {
      "midi": 54,
      "hit": false,
      "t": 351512.50000000146,
      "d": 345.83333333343035,
      "v": 70
    },
    {
      "midi": 69,
      "hit": false,
      "t": 351604.16666666814,
      "d": 104.16666666668607,
      "v": 70
    },
    {
      "midi": 71,
      "hit": false,
      "t": 351708.3333333348,
      "d": 145.83333333337214,
      "v": 70
    },
    {
      "midi": 68,
      "hit": false,
      "t": 351816.66666666814,
      "d": 83.33333333343035,
      "v": 70
    },
    {
      "midi": 75,
      "hit": false,
      "t": 351916.66666666826,
      "d": 137.5,
      "v": 84
    },
    {
      "midi": 66,
      "hit": false,
      "t": 351987.5000000016,
      "d": 87.5,
      "v": 80
    },
    {
      "midi": 32,
      "hit": false,
      "t": 352091.66666666826,
      "d": 45.83333333331393,
      "v": 98
    },
    {
      "midi": 44,
      "hit": false,
      "t": 352112.5000000016,
      "d": 16.66666666668607,
      "v": 72
    },
    {
      "midi": 71,
      "hit": false,
      "t": 352112.5000000016,
      "d": 83.33333333331393,
      "v": 94
    },
    {
      "midi": 68,
      "hit": false,
      "t": 352208.3333333349,
      "d": 112.50000000005821,
      "v": 91
    },
    {
      "midi": 44,
      "hit": false,
      "t": 352316.66666666826,
      "d": 83.33333333331393,
      "v": 73
    },
    {
      "midi": 74,
      "hit": false,
      "t": 352316.66666666826,
      "d": 87.5,
      "v": 97
    },
    {
      "midi": 52,
      "hit": false,
      "t": 352333.33333333494,
      "d": 54.16666666662786,
      "v": 77
    },
    {
      "midi": 50,
      "hit": false,
      "t": 352366.66666666826,
      "d": 33.33333333331393,
      "v": 40
    },
    {
      "midi": 65,
      "hit": false,
      "t": 352408.33333333494,
      "d": 83.33333333331393,
      "v": 91
    },
    {
      "midi": 68,
      "hit": false,
      "t": 352500.0000000016,
      "d": 95.83333333325572,
      "v": 93
    },
    {
      "midi": 44,
      "hit": false,
      "t": 352512.5000000016,
      "d": 74.99999999994179,
      "v": 87
    },
    {
      "midi": 50,
      "hit": false,
      "t": 352520.8333333349,
      "d": 54.16666666662786,
      "v": 83
    },
    {
      "midi": 52,
      "hit": false,
      "t": 352520.8333333349,
      "d": 62.49999999994179,
      "v": 70
    },
    {
      "midi": 64,
      "hit": false,
      "t": 352595.8333333348,
      "d": 116.66666666662786,
      "v": 98
    },
    {
      "midi": 44,
      "hit": false,
      "t": 352700.00000000146,
      "d": 370.83333333337214,
      "v": 93
    },
    {
      "midi": 71,
      "hit": false,
      "t": 352708.33333333477,
      "d": 83.33333333337214,
      "v": 101
    },
    {
      "midi": 52,
      "hit": false,
      "t": 352712.50000000146,
      "d": 329.1666666667443,
      "v": 83
    },
    {
      "midi": 50,
      "hit": false,
      "t": 352712.50000000146,
      "d": 337.5000000000582,
      "v": 90
    },
    {
      "midi": 62,
      "hit": false,
      "t": 352804.16666666814,
      "d": 91.66666666668607,
      "v": 83
    },
    {
      "midi": 64,
      "hit": false,
      "t": 352895.8333333348,
      "d": 116.66666666668607,
      "v": 96
    },
    {
      "midi": 61,
      "hit": false,
      "t": 353008.3333333348,
      "d": 83.33333333331393,
      "v": 104
    },
    {
      "midi": 68,
      "hit": false,
      "t": 353104.16666666814,
      "d": 137.5,
      "v": 109
    },
    {
      "midi": 59,
      "hit": false,
      "t": 353208.3333333348,
      "d": 83.33333333331393,
      "v": 94
    },
    {
      "midi": 34,
      "hit": false,
      "t": 353279.16666666814,
      "d": 62.5,
      "v": 89
    },
    {
      "midi": 46,
      "hit": false,
      "t": 353279.16666666814,
      "d": 66.66666666668607,
      "v": 89
    },
    {
      "midi": 64,
      "hit": false,
      "t": 353300.00000000146,
      "d": 125.00000000005821,
      "v": 91
    },
    {
      "midi": 61,
      "hit": false,
      "t": 353383.3333333348,
      "d": 141.66666666668607,
      "v": 94
    },
    {
      "midi": 46,
      "hit": false,
      "t": 353483.3333333348,
      "d": 104.16666666674428,
      "v": 88
    },
    {
      "midi": 67,
      "hit": false,
      "t": 353504.1666666682,
      "d": 66.66666666668607,
      "v": 95
    },
    {
      "midi": 55,
      "hit": false,
      "t": 353504.1666666682,
      "d": 87.50000000005821,
      "v": 76
    },
    {
      "midi": 49,
      "hit": false,
      "t": 353525.0000000015,
      "d": 62.50000000005821,
      "v": 62
    },
    {
      "midi": 59,
      "hit": false,
      "t": 353587.5000000016,
      "d": 91.66666666668607,
      "v": 91
    },
    {
      "midi": 52,
      "hit": false,
      "t": 353679.16666666826,
      "d": 54.16666666662786,
      "v": 88
    },
    {
      "midi": 46,
      "hit": false,
      "t": 353679.16666666826,
      "d": 58.33333333331393,
      "v": 84
    },
    {
      "midi": 61,
      "hit": false,
      "t": 353679.16666666826,
      "d": 137.5,
      "v": 98
    },
    {
      "midi": 49,
      "hit": false,
      "t": 353687.5000000016,
      "d": 54.16666666668607,
      "v": 84
    },
    {
      "midi": 58,
      "hit": false,
      "t": 353779.16666666826,
      "d": 104.16666666668607,
      "v": 91
    },
    {
      "midi": 64,
      "hit": false,
      "t": 353862.50000000163,
      "d": 79.16666666662786,
      "v": 101
    },
    {
      "midi": 46,
      "hit": false,
      "t": 353862.50000000163,
      "d": 349.9999999999418,
      "v": 107
    },
    {
      "midi": 49,
      "hit": false,
      "t": 353866.6666666683,
      "d": 333.3333333332557,
      "v": 96
    },
    {
      "midi": 52,
      "hit": false,
      "t": 353875.00000000163,
      "d": 270.83333333331393,
      "v": 95
    },
    {
      "midi": 55,
      "hit": false,
      "t": 353966.66666666826,
      "d": 79.16666666668607,
      "v": 98
    },
    {
      "midi": 58,
      "hit": false,
      "t": 354062.50000000163,
      "d": 116.66666666662786,
      "v": 102
    },
    {
      "midi": 54,
      "hit": false,
      "t": 354154.16666666826,
      "d": 100,
      "v": 108
    },
    {
      "midi": 61,
      "hit": false,
      "t": 354254.16666666826,
      "d": 70.83333333331393,
      "v": 110
    },
    {
      "midi": 52,
      "hit": false,
      "t": 354354.16666666826,
      "d": 208.33333333337214,
      "v": 81
    },
    {
      "midi": 47,
      "hit": false,
      "t": 354462.5000000016,
      "d": 766.6666666668025,
      "v": 84
    },
    {
      "midi": 35,
      "hit": false,
      "t": 354466.66666666826,
      "d": 891.6666666668025,
      "v": 75
    },
    {
      "midi": 53,
      "hit": false,
      "t": 354566.6666666683,
      "d": 104.16666666668607,
      "v": 83
    },
    {
      "midi": 54,
      "hit": false,
      "t": 354675.0000000017,
      "d": 87.5,
      "v": 71
    },
    {
      "midi": 55,
      "hit": false,
      "t": 354770.833333335,
      "d": 70.83333333331393,
      "v": 68
    },
    {
      "midi": 56,
      "hit": false,
      "t": 354883.333333335,
      "d": 54.16666666668607,
      "v": 69
    },
    {
      "midi": 57,
      "hit": false,
      "t": 354966.6666666684,
      "d": 79.16666666668607,
      "v": 68
    },
    {
      "midi": 58,
      "hit": false,
      "t": 355070.83333333506,
      "d": 87.5,
      "v": 81
    },
    {
      "midi": 59,
      "hit": false,
      "t": 355166.6666666684,
      "d": 95.83333333331393,
      "v": 78
    },
    {
      "midi": 60,
      "hit": false,
      "t": 355262.5000000017,
      "d": 91.66666666668607,
      "v": 75
    },
    {
      "midi": 61,
      "hit": false,
      "t": 355341.6666666684,
      "d": 83.33333333331393,
      "v": 73
    },
    {
      "midi": 62,
      "hit": false,
      "t": 355441.6666666684,
      "d": 66.66666666668607,
      "v": 68
    },
    {
      "midi": 63,
      "hit": false,
      "t": 355520.83333333506,
      "d": 87.5,
      "v": 78
    },
    {
      "midi": 58,
      "hit": false,
      "t": 355612.50000000175,
      "d": 125.00000000005821,
      "v": 88
    },
    {
      "midi": 49,
      "hit": false,
      "t": 355616.66666666843,
      "d": 120.83333333337214,
      "v": 77
    },
    {
      "midi": 55,
      "hit": false,
      "t": 355625.00000000175,
      "d": 125.00000000005821,
      "v": 78
    },
    {
      "midi": 64,
      "hit": false,
      "t": 355629.16666666843,
      "d": 108.33333333337214,
      "v": 85
    },
    {
      "midi": 52,
      "hit": false,
      "t": 355633.3333333351,
      "d": 100,
      "v": 75
    },
    {
      "midi": 65,
      "hit": false,
      "t": 355737.5000000018,
      "d": 104.16666666668607,
      "v": 82
    },
    {
      "midi": 58,
      "hit": false,
      "t": 355841.6666666685,
      "d": 87.50000000005821,
      "v": 83
    },
    {
      "midi": 66,
      "hit": false,
      "t": 355841.6666666685,
      "d": 87.50000000005821,
      "v": 79
    },
    {
      "midi": 55,
      "hit": false,
      "t": 355845.8333333352,
      "d": 79.16666666668607,
      "v": 67
    },
    {
      "midi": 49,
      "hit": false,
      "t": 355845.8333333352,
      "d": 83.33333333337214,
      "v": 67
    },
    {
      "midi": 52,
      "hit": false,
      "t": 355858.3333333352,
      "d": 25,
      "v": 67
    },
    {
      "midi": 67,
      "hit": false,
      "t": 355937.50000000186,
      "d": 91.66666666668607,
      "v": 79
    },
    {
      "midi": 58,
      "hit": false,
      "t": 356004.1666666685,
      "d": 83.33333333343035,
      "v": 62
    },
    {
      "midi": 55,
      "hit": false,
      "t": 356008.3333333352,
      "d": 87.50000000005821,
      "v": 60
    },
    {
      "midi": 49,
      "hit": false,
      "t": 356012.50000000186,
      "d": 83.33333333337214,
      "v": 43
    },
    {
      "midi": 52,
      "hit": false,
      "t": 356025.00000000186,
      "d": 58.33333333337214,
      "v": 58
    },
    {
      "midi": 68,
      "hit": false,
      "t": 356033.33333333523,
      "d": 83.33333333331393,
      "v": 88
    },
    {
      "midi": 69,
      "hit": false,
      "t": 356133.33333333523,
      "d": 83.33333333331393,
      "v": 72
    },
    {
      "midi": 58,
      "hit": false,
      "t": 356216.66666666855,
      "d": 95.83333333331393,
      "v": 72
    },
    {
      "midi": 55,
      "hit": false,
      "t": 356220.83333333523,
      "d": 91.66666666662786,
      "v": 68
    },
    {
      "midi": 70,
      "hit": false,
      "t": 356229.16666666855,
      "d": 75,
      "v": 82
    },
    {
      "midi": 49,
      "hit": false,
      "t": 356229.16666666855,
      "d": 83.33333333331393,
      "v": 32
    },
    {
      "midi": 52,
      "hit": false,
      "t": 356237.50000000186,
      "d": 16.66666666668607,
      "v": 62
    },
    {
      "midi": 71,
      "hit": false,
      "t": 356325.00000000186,
      "d": 70.83333333331393,
      "v": 83
    },
    {
      "midi": 72,
      "hit": false,
      "t": 356416.6666666685,
      "d": 87.50000000005821,
      "v": 72
    },
    {
      "midi": 58,
      "hit": false,
      "t": 356420.8333333352,
      "d": 66.66666666668607,
      "v": 61
    },
    {
      "midi": 55,
      "hit": false,
      "t": 356425.00000000186,
      "d": 66.66666666668607,
      "v": 62
    },
    {
      "midi": 49,
      "hit": false,
      "t": 356429.16666666855,
      "d": 54.16666666662786,
      "v": 16
    },
    {
      "midi": 52,
      "hit": false,
      "t": 356441.66666666855,
      "d": 20.83333333331393,
      "v": 48
    },
    {
      "midi": 73,
      "hit": false,
      "t": 356500.00000000186,
      "d": 83.33333333337214,
      "v": 79
    },
    {
      "midi": 58,
      "hit": false,
      "t": 356587.5000000019,
      "d": 87.50000000005821,
      "v": 73
    },
    {
      "midi": 74,
      "hit": false,
      "t": 356591.6666666686,
      "d": 79.16666666668607,
      "v": 83
    },
    {
      "midi": 55,
      "hit": false,
      "t": 356595.8333333353,
      "d": 41.66666666668607,
      "v": 64
    },
    {
      "midi": 52,
      "hit": false,
      "t": 356612.500000002,
      "d": 20.83333333331393,
      "v": 56
    },
    {
      "midi": 75,
      "hit": false,
      "t": 356687.500000002,
      "d": 116.66666666662786,
      "v": 86
    },
    {
      "midi": 52,
      "hit": false,
      "t": 356795.8333333353,
      "d": 112.49999999994179,
      "v": 36
    },
    {
      "midi": 56,
      "hit": false,
      "t": 356804.1666666686,
      "d": 95.83333333331393,
      "v": 73
    },
    {
      "midi": 59,
      "hit": false,
      "t": 356804.1666666686,
      "d": 95.83333333331393,
      "v": 78
    },
    {
      "midi": 76,
      "hit": false,
      "t": 356812.5000000019,
      "d": 129.16666666662786,
      "v": 97
    },
    {
      "midi": 47,
      "hit": false,
      "t": 356820.83333333523,
      "d": 145.83333333331393,
      "v": 49
    },
    {
      "midi": 77,
      "hit": false,
      "t": 356945.83333333523,
      "d": 87.5,
      "v": 89
    },
    {
      "midi": 78,
      "hit": false,
      "t": 357033.33333333523,
      "d": 79.16666666668607,
      "v": 89
    },
    {
      "midi": 56,
      "hit": false,
      "t": 357033.33333333523,
      "d": 91.66666666668607,
      "v": 69
    },
    {
      "midi": 59,
      "hit": false,
      "t": 357041.66666666855,
      "d": 75.00000000005821,
      "v": 77
    },
    {
      "midi": 52,
      "hit": false,
      "t": 357045.83333333523,
      "d": 87.50000000005821,
      "v": 74
    },
    {
      "midi": 47,
      "hit": false,
      "t": 357050.0000000019,
      "d": 120.83333333337214,
      "v": 55
    },
    {
      "midi": 79,
      "hit": false,
      "t": 357129.1666666686,
      "d": 83.33333333337214,
      "v": 81
    },
    {
      "midi": 80,
      "hit": false,
      "t": 357229.16666666867,
      "d": 87.5,
      "v": 84
    },
    {
      "midi": 59,
      "hit": false,
      "t": 357233.33333333535,
      "d": 62.49999999994179,
      "v": 76
    },
    {
      "midi": 56,
      "hit": false,
      "t": 357233.33333333535,
      "d": 70.83333333331393,
      "v": 75
    },
    {
      "midi": 52,
      "hit": false,
      "t": 357241.66666666867,
      "d": 58.33333333331393,
      "v": 75
    },
    {
      "midi": 47,
      "hit": false,
      "t": 357250.000000002,
      "d": 45.83333333331393,
      "v": 51
    },
    {
      "midi": 81,
      "hit": false,
      "t": 357325.000000002,
      "d": 75,
      "v": 81
    },
    {
      "midi": 56,
      "hit": false,
      "t": 357420.8333333353,
      "d": 50,
      "v": 82
    },
    {
      "midi": 59,
      "hit": false,
      "t": 357420.8333333353,
      "d": 50,
      "v": 75
    },
    {
      "midi": 82,
      "hit": false,
      "t": 357425.000000002,
      "d": 79.16666666662786,
      "v": 83
    },
    {
      "midi": 52,
      "hit": false,
      "t": 357429.16666666867,
      "d": 20.83333333331393,
      "v": 72
    },
    {
      "midi": 47,
      "hit": false,
      "t": 357437.500000002,
      "d": 54.16666666662786,
      "v": 40
    },
    {
      "midi": 83,
      "hit": false,
      "t": 357512.5000000019,
      "d": 95.83333333331393,
      "v": 79
    },
    {
      "midi": 59,
      "hit": false,
      "t": 357608.33333333523,
      "d": 58.33333333331393,
      "v": 68
    },
    {
      "midi": 56,
      "hit": false,
      "t": 357608.33333333523,
      "d": 91.66666666662786,
      "v": 76
    },
    {
      "midi": 84,
      "hit": false,
      "t": 357616.66666666855,
      "d": 75,
      "v": 80
    },
    {
      "midi": 52,
      "hit": false,
      "t": 357629.16666666855,
      "d": 50,
      "v": 61
    },
    {
      "midi": 47,
      "hit": false,
      "t": 357629.16666666855,
      "d": 58.33333333331393,
      "v": 24
    },
    {
      "midi": 85,
      "hit": false,
      "t": 357700.00000000186,
      "d": 75,
      "v": 66
    },
    {
      "midi": 56,
      "hit": false,
      "t": 357775.00000000186,
      "d": 41.66666666662786,
      "v": 58
    },
    {
      "midi": 59,
      "hit": false,
      "t": 357783.3333333352,
      "d": 33.33333333331393,
      "v": 66
    },
    {
      "midi": 86,
      "hit": false,
      "t": 357783.3333333352,
      "d": 83.33333333331393,
      "v": 85
    },
    {
      "midi": 52,
      "hit": false,
      "t": 357791.6666666685,
      "d": 33.33333333331393,
      "v": 75
    },
    {
      "midi": 47,
      "hit": false,
      "t": 357800.0000000018,
      "d": 25,
      "v": 52
    },
    {
      "midi": 87,
      "hit": false,
      "t": 357879.1666666685,
      "d": 91.66666666668607,
      "v": 87
    },
    {
      "midi": 54,
      "hit": false,
      "t": 357983.3333333352,
      "d": 83.33333333337214,
      "v": 98
    },
    {
      "midi": 49,
      "hit": false,
      "t": 357991.66666666855,
      "d": 58.33333333331393,
      "v": 65
    },
    {
      "midi": 46,
      "hit": false,
      "t": 357991.66666666855,
      "d": 91.66666666668607,
      "v": 75
    },
    {
      "midi": 88,
      "hit": false,
      "t": 357991.66666666855,
      "d": 104.16666666668607,
      "v": 101
    },
    {
      "midi": 52,
      "hit": false,
      "t": 358004.16666666855,
      "d": 62.5,
      "v": 73
    },
    {
      "midi": 89,
      "hit": false,
      "t": 358095.83333333523,
      "d": 95.83333333337214,
      "v": 90
    },
    {
      "midi": 54,
      "hit": false,
      "t": 358187.5000000019,
      "d": 54.16666666674428,
      "v": 84
    },
    {
      "midi": 46,
      "hit": false,
      "t": 358191.6666666686,
      "d": 50.00000000005821,
      "v": 70
    },
    {
      "midi": 90,
      "hit": false,
      "t": 358191.6666666686,
      "d": 66.66666666674428,
      "v": 85
    },
    {
      "midi": 49,
      "hit": false,
      "t": 358195.8333333353,
      "d": 45.83333333337214,
      "v": 71
    },
    {
      "midi": 52,
      "hit": false,
      "t": 358200.000000002,
      "d": 16.66666666668607,
      "v": 73
    },
    {
      "midi": 91,
      "hit": false,
      "t": 358279.16666666867,
      "d": 83.33333333337214,
      "v": 87
    },
    {
      "midi": 46,
      "hit": false,
      "t": 358362.50000000204,
      "d": 87.50000000005821,
      "v": 77
    },
    {
      "midi": 92,
      "hit": false,
      "t": 358366.6666666687,
      "d": 79.16666666668607,
      "v": 99
    },
    {
      "midi": 54,
      "hit": false,
      "t": 358366.6666666687,
      "d": 83.33333333337214,
      "v": 90
    },
    {
      "midi": 52,
      "hit": false,
      "t": 358379.1666666687,
      "d": 70.83333333337214,
      "v": 81
    },
    {
      "midi": 49,
      "hit": false,
      "t": 358379.1666666687,
      "d": 83.33333333337214,
      "v": 71
    },
    {
      "midi": 93,
      "hit": false,
      "t": 358462.5000000021,
      "d": 70.83333333331393,
      "v": 92
    },
    {
      "midi": 94,
      "hit": false,
      "t": 358554.1666666687,
      "d": 83.33333333325572,
      "v": 98
    },
    {
      "midi": 49,
      "hit": false,
      "t": 358554.1666666687,
      "d": 91.66666666656965,
      "v": 77
    },
    {
      "midi": 54,
      "hit": false,
      "t": 358554.1666666687,
      "d": 91.66666666656965,
      "v": 102
    },
    {
      "midi": 46,
      "hit": false,
      "t": 358554.1666666687,
      "d": 95.83333333325572,
      "v": 86
    },
    {
      "midi": 52,
      "hit": false,
      "t": 358566.6666666687,
      "d": 62.49999999994179,
      "v": 87
    },
    {
      "midi": 95,
      "hit": false,
      "t": 358650.000000002,
      "d": 83.33333333331393,
      "v": 93
    },
    {
      "midi": 46,
      "hit": false,
      "t": 358733.3333333353,
      "d": 70.83333333331393,
      "v": 77
    },
    {
      "midi": 54,
      "hit": false,
      "t": 358733.3333333353,
      "d": 87.5,
      "v": 89
    },
    {
      "midi": 96,
      "hit": false,
      "t": 358733.3333333353,
      "d": 112.5,
      "v": 88
    },
    {
      "midi": 49,
      "hit": false,
      "t": 358741.6666666686,
      "d": 75,
      "v": 61
    },
    {
      "midi": 52,
      "hit": false,
      "t": 358750.0000000019,
      "d": 66.66666666668607,
      "v": 77
    },
    {
      "midi": 97,
      "hit": false,
      "t": 358833.3333333353,
      "d": 75,
      "v": 90
    },
    {
      "midi": 46,
      "hit": false,
      "t": 358904.1666666686,
      "d": 37.5,
      "v": 74
    },
    {
      "midi": 54,
      "hit": false,
      "t": 358908.3333333353,
      "d": 62.5,
      "v": 95
    },
    {
      "midi": 52,
      "hit": false,
      "t": 358916.6666666686,
      "d": 12.5,
      "v": 79
    },
    {
      "midi": 98,
      "hit": false,
      "t": 358920.8333333353,
      "d": 87.5,
      "v": 98
    },
    {
      "midi": 99,
      "hit": false,
      "t": 359008.3333333353,
      "d": 79.16666666662786,
      "v": 101
    },
    {
      "midi": 56,
      "hit": false,
      "t": 359116.6666666686,
      "d": 383.33333333331393,
      "v": 99
    },
    {
      "midi": 47,
      "hit": false,
      "t": 359116.6666666686,
      "d": 450,
      "v": 95
    },
    {
      "midi": 100,
      "hit": false,
      "t": 359129.1666666686,
      "d": 112.5,
      "v": 107
    },
    {
      "midi": 52,
      "hit": false,
      "t": 359129.1666666686,
      "d": 375,
      "v": 96
    },
    {
      "midi": 59,
      "hit": false,
      "t": 359129.1666666686,
      "d": 383.33333333331393,
      "v": 95
    },
    {
      "midi": 99,
      "hit": false,
      "t": 359220.8333333353,
      "d": 120.83333333331393,
      "v": 110
    },
    {
      "midi": 97,
      "hit": false,
      "t": 359300.0000000019,
      "d": 87.5,
      "v": 95
    },
    {
      "midi": 95,
      "hit": false,
      "t": 359395.83333333523,
      "d": 70.83333333331393,
      "v": 77
    },
    {
      "midi": 94,
      "hit": false,
      "t": 359487.5000000019,
      "d": 79.16666666668607,
      "v": 82
    },
    {
      "midi": 95,
      "hit": false,
      "t": 359570.8333333353,
      "d": 87.5,
      "v": 87
    },
    {
      "midi": 59,
      "hit": false,
      "t": 359675.000000002,
      "d": 462.4999999999418,
      "v": 88
    },
    {
      "midi": 56,
      "hit": false,
      "t": 359675.000000002,
      "d": 470.8333333332557,
      "v": 92
    },
    {
      "midi": 97,
      "hit": false,
      "t": 359679.16666666867,
      "d": 154.16666666662786,
      "v": 109
    },
    {
      "midi": 47,
      "hit": false,
      "t": 359679.16666666867,
      "d": 458.3333333332557,
      "v": 77
    },
    {
      "midi": 52,
      "hit": false,
      "t": 359679.16666666867,
      "d": 470.8333333332557,
      "v": 87
    },
    {
      "midi": 95,
      "hit": false,
      "t": 359775.000000002,
      "d": 70.83333333331393,
      "v": 87
    },
    {
      "midi": 93,
      "hit": false,
      "t": 359858.3333333353,
      "d": 83.33333333331393,
      "v": 81
    },
    {
      "midi": 92,
      "hit": false,
      "t": 359950.0000000019,
      "d": 91.66666666668607,
      "v": 107
    },
    {
      "midi": 91,
      "hit": false,
      "t": 360045.8333333353,
      "d": 91.66666666662786,
      "v": 91
    },
    {
      "midi": 92,
      "hit": false,
      "t": 360137.5000000019,
      "d": 75,
      "v": 92
    },
    {
      "midi": 93,
      "hit": false,
      "t": 360237.5000000019,
      "d": 108.33333333331393,
      "v": 104
    },
    {
      "midi": 47,
      "hit": false,
      "t": 360237.5000000019,
      "d": 370.83333333331393,
      "v": 81
    },
    {
      "midi": 52,
      "hit": false,
      "t": 360250.0000000019,
      "d": 387.4999999999418,
      "v": 90
    },
    {
      "midi": 56,
      "hit": false,
      "t": 360250.0000000019,
      "d": 399.9999999999418,
      "v": 94
    },
    {
      "midi": 59,
      "hit": false,
      "t": 360250.0000000019,
      "d": 416.66666666662786,
      "v": 99
    },
    {
      "midi": 92,
      "hit": false,
      "t": 360354.16666666855,
      "d": 95.83333333331393,
      "v": 95
    },
    {
      "midi": 90,
      "hit": false,
      "t": 360441.66666666855,
      "d": 70.83333333331393,
      "v": 78
    },
    {
      "midi": 88,
      "hit": false,
      "t": 360529.16666666855,
      "d": 79.16666666668607,
      "v": 83
    },
    {
      "midi": 87,
      "hit": false,
      "t": 360629.16666666855,
      "d": 62.5,
      "v": 78
    },
    {
      "midi": 88,
      "hit": false,
      "t": 360716.66666666855,
      "d": 66.66666666668607,
      "v": 83
    },
    {
      "midi": 90,
      "hit": false,
      "t": 360804.16666666855,
      "d": 95.83333333331393,
      "v": 103
    },
    {
      "midi": 56,
      "hit": false,
      "t": 360804.16666666855,
      "d": 416.66666666662786,
      "v": 89
    },
    {
      "midi": 59,
      "hit": false,
      "t": 360804.16666666855,
      "d": 429.16666666662786,
      "v": 95
    },
    {
      "midi": 47,
      "hit": false,
      "t": 360812.50000000186,
      "d": 483.33333333331393,
      "v": 76
    },
    {
      "midi": 52,
      "hit": false,
      "t": 360816.66666666855,
      "d": 412.4999999999418,
      "v": 87
    },
    {
      "midi": 88,
      "hit": false,
      "t": 360908.3333333352,
      "d": 91.66666666668607,
      "v": 83
    },
    {
      "midi": 87,
      "hit": false,
      "t": 361000.00000000186,
      "d": 125,
      "v": 92
    },
    {
      "midi": 85,
      "hit": false,
      "t": 361095.8333333352,
      "d": 70.83333333337214,
      "v": 88
    },
    {
      "midi": 83,
      "hit": false,
      "t": 361179.16666666855,
      "d": 79.16666666662786,
      "v": 87
    },
    {
      "midi": 82,
      "hit": false,
      "t": 361279.1666666685,
      "d": 62.5,
      "v": 83
    },
    {
      "midi": 85,
      "hit": false,
      "t": 361366.6666666685,
      "d": 104.16666666668607,
      "v": 104
    },
    {
      "midi": 47,
      "hit": false,
      "t": 361379.1666666685,
      "d": 216.66666666668607,
      "v": 83
    },
    {
      "midi": 56,
      "hit": false,
      "t": 361379.1666666685,
      "d": 237.5,
      "v": 98
    },
    {
      "midi": 59,
      "hit": false,
      "t": 361379.1666666685,
      "d": 237.5,
      "v": 95
    },
    {
      "midi": 52,
      "hit": false,
      "t": 361383.3333333352,
      "d": 212.5,
      "v": 89
    },
    {
      "midi": 83,
      "hit": false,
      "t": 361483.3333333352,
      "d": 70.83333333331393,
      "v": 81
    },
    {
      "midi": 82,
      "hit": false,
      "t": 361562.5000000018,
      "d": 75,
      "v": 92
    },
    {
      "midi": 83,
      "hit": false,
      "t": 361666.6666666685,
      "d": 87.5,
      "v": 94
    },
    {
      "midi": 92,
      "hit": false,
      "t": 361754.1666666685,
      "d": 112.5,
      "v": 78
    },
    {
      "midi": 88,
      "hit": false,
      "t": 361854.1666666685,
      "d": 66.66666666668607,
      "v": 95
    },
    {
      "midi": 83,
      "hit": false,
      "t": 361941.6666666685,
      "d": 70.83333333331393,
      "v": 92
    },
    {
      "midi": 71,
      "hit": false,
      "t": 361950.0000000018,
      "d": 141.66666666674428,
      "v": 110
    },
    {
      "midi": 80,
      "hit": false,
      "t": 362029.1666666685,
      "d": 120.83333333337214,
      "v": 99
    },
    {
      "midi": 68,
      "hit": false,
      "t": 362033.3333333352,
      "d": 116.66666666668607,
      "v": 99
    },
    {
      "midi": 64,
      "hit": false,
      "t": 362129.16666666855,
      "d": 29.16666666662786,
      "v": 99
    },
    {
      "midi": 76,
      "hit": false,
      "t": 362129.16666666855,
      "d": 62.49999999994179,
      "v": 90
    },
    {
      "midi": 71,
      "hit": false,
      "t": 362216.6666666685,
      "d": 54.16666666668607,
      "v": 94
    },
    {
      "midi": 59,
      "hit": false,
      "t": 362241.6666666685,
      "d": 116.66666666662786,
      "v": 89
    },
    {
      "midi": 68,
      "hit": false,
      "t": 362304.1666666685,
      "d": 124.99999999994179,
      "v": 95
    },
    {
      "midi": 56,
      "hit": false,
      "t": 362325.0000000018,
      "d": 124.99999999994179,
      "v": 94
    },
    {
      "midi": 52,
      "hit": false,
      "t": 362387.5000000018,
      "d": 74.99999999994179,
      "v": 90
    },
    {
      "midi": 64,
      "hit": false,
      "t": 362408.3333333351,
      "d": 74.99999999994179,
      "v": 103
    },
    {
      "midi": 47,
      "hit": false,
      "t": 362491.6666666684,
      "d": 333.33333333331393,
      "v": 110
    },
    {
      "midi": 59,
      "hit": false,
      "t": 362504.1666666684,
      "d": 300,
      "v": 113
    },
    {
      "midi": 75,
      "hit": false,
      "t": 363158.333333335,
      "d": 216.66666666668607,
      "v": 110
    },
    {
      "midi": 66,
      "hit": false,
      "t": 363158.333333335,
      "d": 220.83333333337214,
      "v": 111
    },
    {
      "midi": 59,
      "hit": false,
      "t": 363170.833333335,
      "d": 187.5,
      "v": 105
    },
    {
      "midi": 47,
      "hit": false,
      "t": 363170.833333335,
      "d": 208.33333333337214,
      "v": 103
    },
    {
      "midi": 71,
      "hit": false,
      "t": 363175.0000000017,
      "d": 233.33333333337214,
      "v": 95
    },
    {
      "midi": 69,
      "hit": false,
      "t": 363179.1666666684,
      "d": 200,
      "v": 90
    },
    {
      "midi": 76,
      "hit": false,
      "t": 363983.333333335,
      "d": 375.0000000000582,
      "v": 104
    },
    {
      "midi": 40,
      "hit": false,
      "t": 363987.5000000017,
      "d": 375.0000000000582,
      "v": 94
    },
    {
      "midi": 52,
      "hit": false,
      "t": 363987.5000000017,
      "d": 375.0000000000582,
      "v": 99
    },
    {
      "midi": 64,
      "hit": false,
      "t": 363987.5000000017,
      "d": 375.0000000000582,
      "v": 99
    },
    {
      "midi": 68,
      "hit": false,
      "t": 363987.5000000017,
      "d": 375.0000000000582,
      "v": 98
    },
    {
      "midi": 71,
      "hit": false,
      "t": 363991.6666666684,
      "d": 375.0000000000582,
      "v": 103
    },
    {
      "midi": 71,
      "hit": false,
      "t": 364804.16666666843,
      "d": 79.16666666668607,
      "v": 81
    },
    {
      "midi": 70,
      "hit": false,
      "t": 364900.0000000018,
      "d": 91.66666666668607,
      "v": 92
    },
    {
      "midi": 71,
      "hit": false,
      "t": 364991.6666666685,
      "d": 70.83333333331393,
      "v": 108
    },
    {
      "midi": 64,
      "hit": false,
      "t": 365191.6666666685,
      "d": 66.66666666668607,
      "v": 88
    },
    {
      "midi": 59,
      "hit": false,
      "t": 365379.1666666685,
      "d": 70.83333333331393,
      "v": 85
    },
    {
      "midi": 58,
      "hit": false,
      "t": 365462.5000000018,
      "d": 100,
      "v": 89
    },
    {
      "midi": 59,
      "hit": false,
      "t": 365562.5000000018,
      "d": 104.16666666668607,
      "v": 95
    },
    {
      "midi": 52,
      "hit": false,
      "t": 365754.1666666685,
      "d": 108.33333333331393,
      "v": 98
    },
    {
      "midi": 59,
      "hit": false,
      "t": 365958.3333333351,
      "d": 270.83333333331393,
      "v": 107
    },
    {
      "midi": 64,
      "hit": false,
      "t": 366212.5000000018,
      "d": 524.9999999998836,
      "v": 98
    },
    {
      "midi": 56,
      "hit": false,
      "t": 366220.8333333351,
      "d": 562.4999999999418,
      "v": 91
    },
    {
      "midi": 40,
      "hit": false,
      "t": 366237.50000000175,
      "d": 316.66666666662786,
      "v": 67
    },
    {
      "midi": 47,
      "hit": false,
      "t": 366241.66666666843,
      "d": 229.16666666662786,
      "v": 62
    },
    {
      "midi": 66,
      "hit": false,
      "t": 366712.5000000017,
      "d": 66.66666666668607,
      "v": 91
    },
    {
      "midi": 56,
      "hit": false,
      "t": 367012.50000000175,
      "d": 266.66666666662786,
      "v": 76
    },
    {
      "midi": 64,
      "hit": false,
      "t": 367025.00000000175,
      "d": 229.16666666662786,
      "v": 84
    },
    {
      "midi": 47,
      "hit": false,
      "t": 367029.16666666843,
      "d": 470.8333333332557,
      "v": 66
    },
    {
      "midi": 35,
      "hit": false,
      "t": 367041.66666666843,
      "d": 774.9999999998836,
      "v": 68
    },
    {
      "midi": 59,
      "hit": false,
      "t": 367733.333333335,
      "d": 91.66666666668607,
      "v": 72
    },
    {
      "midi": 58,
      "hit": false,
      "t": 367816.6666666683,
      "d": 83.33333333337214,
      "v": 89
    },
    {
      "midi": 59,
      "hit": false,
      "t": 367904.1666666684,
      "d": 66.66666666668607,
      "v": 87
    },
    {
      "midi": 63,
      "hit": false,
      "t": 367904.1666666684,
      "d": 120.83333333337214,
      "v": 93
    },
    {
      "midi": 54,
      "hit": false,
      "t": 368125.00000000175,
      "d": 108.33333333331393,
      "v": 75
    },
    {
      "midi": 47,
      "hit": false,
      "t": 368283.33333333506,
      "d": 75,
      "v": 68
    },
    {
      "midi": 46,
      "hit": false,
      "t": 368366.6666666684,
      "d": 75,
      "v": 79
    },
    {
      "midi": 47,
      "hit": false,
      "t": 368462.5000000017,
      "d": 187.5,
      "v": 79
    },
    {
      "midi": 35,
      "hit": false,
      "t": 368658.333333335,
      "d": 241.66666666668607,
      "v": 72
    },
    {
      "midi": 59,
      "hit": false,
      "t": 368825.0000000017,
      "d": 75,
      "v": 86
    },
    {
      "midi": 66,
      "hit": false,
      "t": 369104.1666666684,
      "d": 170.83333333331393,
      "v": 83
    },
    {
      "midi": 63,
      "hit": false,
      "t": 369108.33333333506,
      "d": 508.33333333331393,
      "v": 84
    },
    {
      "midi": 47,
      "hit": false,
      "t": 369108.33333333506,
      "d": 1404.1666666666279,
      "v": 71
    },
    {
      "midi": 57,
      "hit": false,
      "t": 369116.6666666684,
      "d": 479.16666666668607,
      "v": 68
    },
    {
      "midi": 68,
      "hit": false,
      "t": 369566.6666666684,
      "d": 70.83333333331393,
      "v": 71
    },
    {
      "midi": 66,
      "hit": false,
      "t": 369900.0000000017,
      "d": 295.83333333337214,
      "v": 71
    },
    {
      "midi": 56,
      "hit": false,
      "t": 369904.1666666684,
      "d": 329.16666666668607,
      "v": 60
    },
    {
      "midi": 35,
      "hit": false,
      "t": 369908.33333333506,
      "d": 375,
      "v": 45
    },
    {
      "midi": 62,
      "hit": false,
      "t": 370545.833333335,
      "d": 70.83333333331393,
      "v": 66
    },
    {
      "midi": 61,
      "hit": false,
      "t": 370625.00000000163,
      "d": 70.83333333337214,
      "v": 80
    },
    {
      "midi": 62,
      "hit": false,
      "t": 370720.833333335,
      "d": 75,
      "v": 74
    },
    {
      "midi": 65,
      "hit": false,
      "t": 370720.833333335,
      "d": 158.33333333331393,
      "v": 70
    },
    {
      "midi": 56,
      "hit": false,
      "t": 370929.1666666683,
      "d": 125,
      "v": 76
    },
    {
      "midi": 47,
      "hit": false,
      "t": 371116.6666666683,
      "d": 79.16666666668607,
      "v": 55
    },
    {
      "midi": 46,
      "hit": false,
      "t": 371179.1666666683,
      "d": 83.33333333337214,
      "v": 76
    },
    {
      "midi": 47,
      "hit": false,
      "t": 371283.333333335,
      "d": 145.83333333331393,
      "v": 80
    },
    {
      "midi": 35,
      "hit": false,
      "t": 371470.833333335,
      "d": 433.33333333337214,
      "v": 68
    },
    {
      "midi": 59,
      "hit": false,
      "t": 371658.333333335,
      "d": 250.0000000000582,
      "v": 77
    },
    {
      "midi": 68,
      "hit": false,
      "t": 371887.5000000017,
      "d": 300,
      "v": 93
    },
    {
      "midi": 62,
      "hit": false,
      "t": 371904.1666666684,
      "d": 275,
      "v": 67
    },
    {
      "midi": 65,
      "hit": false,
      "t": 371908.33333333506,
      "d": 258.33333333331393,
      "v": 70
    },
    {
      "midi": 47,
      "hit": false,
      "t": 371920.83333333506,
      "d": 333.33333333331393,
      "v": 71
    },
    {
      "midi": 69,
      "hit": false,
      "t": 372379.1666666684,
      "d": 270.83333333337214,
      "v": 88
    },
    {
      "midi": 45,
      "hit": false,
      "t": 372633.33333333506,
      "d": 1012.5,
      "v": 60
    },
    {
      "midi": 68,
      "hit": false,
      "t": 372654.16666666843,
      "d": 749.9999999999418,
      "v": 98
    },
    {
      "midi": 54,
      "hit": false,
      "t": 372908.3333333351,
      "d": 104.16666666662786,
      "v": 60
    },
    {
      "midi": 49,
      "hit": false,
      "t": 372916.66666666843,
      "d": 104.16666666662786,
      "v": 52
    },
    {
      "midi": 49,
      "hit": false,
      "t": 373108.33333333506,
      "d": 83.33333333331393,
      "v": 41
    },
    {
      "midi": 54,
      "hit": false,
      "t": 373108.33333333506,
      "d": 83.33333333331393,
      "v": 58
    },
    {
      "midi": 66,
      "hit": false,
      "t": 373345.83333333506,
      "d": 220.83333333331393,
      "v": 67
    },
    {
      "midi": 49,
      "hit": false,
      "t": 373366.6666666684,
      "d": 312.5,
      "v": 30
    },
    {
      "midi": 54,
      "hit": false,
      "t": 373366.6666666684,
      "d": 312.5,
      "v": 36
    },
    {
      "midi": 73,
      "hit": false,
      "t": 373687.5000000017,
      "d": 95.83333333331393,
      "v": 88
    },
    {
      "midi": 69,
      "hit": false,
      "t": 373887.5000000017,
      "d": 208.33333333331393,
      "v": 88
    },
    {
      "midi": 45,
      "hit": false,
      "t": 374083.333333335,
      "d": 916.6666666665697,
      "v": 59
    },
    {
      "midi": 68,
      "hit": false,
      "t": 374087.5000000017,
      "d": 499.9999999999418,
      "v": 94
    },
    {
      "midi": 54,
      "hit": false,
      "t": 374304.1666666683,
      "d": 95.83333333331393,
      "v": 49
    },
    {
      "midi": 61,
      "hit": false,
      "t": 374312.50000000163,
      "d": 187.5,
      "v": 66
    },
    {
      "midi": 49,
      "hit": false,
      "t": 374320.83333333494,
      "d": 62.5,
      "v": 37
    },
    {
      "midi": 66,
      "hit": false,
      "t": 374525.00000000163,
      "d": 391.66666666662786,
      "v": 77
    },
    {
      "midi": 49,
      "hit": false,
      "t": 374554.1666666683,
      "d": 54.16666666662786,
      "v": 39
    },
    {
      "midi": 54,
      "hit": false,
      "t": 374554.1666666683,
      "d": 62.49999999994179,
      "v": 58
    },
    {
      "midi": 54,
      "hit": false,
      "t": 374795.83333333494,
      "d": 237.4999999999418,
      "v": 57
    },
    {
      "midi": 49,
      "hit": false,
      "t": 374795.83333333494,
      "d": 291.66666666656965,
      "v": 41
    },
    {
      "midi": 61,
      "hit": false,
      "t": 374800.00000000163,
      "d": 149.9999999999418,
      "v": 66
    },
    {
      "midi": 73,
      "hit": false,
      "t": 375054.1666666682,
      "d": 229.16666666662786,
      "v": 79
    },
    {
      "midi": 67,
      "hit": false,
      "t": 375275.0000000015,
      "d": 291.66666666662786,
      "v": 67
    },
    {
      "midi": 66,
      "hit": false,
      "t": 375529.16666666814,
      "d": 358.33333333337214,
      "v": 74
    },
    {
      "midi": 46,
      "hit": false,
      "t": 375554.16666666814,
      "d": 1262.4999999999418,
      "v": 48
    },
    {
      "midi": 61,
      "hit": false,
      "t": 375804.16666666814,
      "d": 237.5,
      "v": 51
    },
    {
      "midi": 55,
      "hit": false,
      "t": 375812.50000000146,
      "d": 50.00000000005821,
      "v": 30
    },
    {
      "midi": 52,
      "hit": false,
      "t": 375816.66666666814,
      "d": 62.50000000005821,
      "v": 44
    },
    {
      "midi": 64,
      "hit": false,
      "t": 376033.3333333348,
      "d": 487.4999999999418,
      "v": 65
    },
    {
      "midi": 52,
      "hit": false,
      "t": 376041.66666666814,
      "d": 70.83333333331393,
      "v": 39
    },
    {
      "midi": 55,
      "hit": false,
      "t": 376045.8333333348,
      "d": 50,
      "v": 16
    },
    {
      "midi": 61,
      "hit": false,
      "t": 376333.33333333477,
      "d": 191.66666666668607,
      "v": 48
    },
    {
      "midi": 55,
      "hit": false,
      "t": 376333.33333333477,
      "d": 262.5,
      "v": 29
    },
    {
      "midi": 52,
      "hit": false,
      "t": 376333.33333333477,
      "d": 341.66666666668607,
      "v": 38
    },
    {
      "midi": 73,
      "hit": false,
      "t": 376679.16666666814,
      "d": 258.3333333332557,
      "v": 59
    },
    {
      "midi": 67,
      "hit": false,
      "t": 376941.6666666681,
      "d": 50,
      "v": 56
    },
    {
      "midi": 66,
      "hit": false,
      "t": 377241.6666666681,
      "d": 1320.8333333334303,
      "v": 61
    },
    {
      "midi": 46,
      "hit": false,
      "t": 377258.33333333477,
      "d": 1704.166666666686,
      "v": 50
    },
    {
      "midi": 61,
      "hit": false,
      "t": 377570.8333333348,
      "d": 95.83333333331393,
      "v": 46
    },
    {
      "midi": 55,
      "hit": false,
      "t": 377575.0000000015,
      "d": 70.83333333331393,
      "v": 39
    },
    {
      "midi": 52,
      "hit": false,
      "t": 377583.3333333348,
      "d": 87.5,
      "v": 43
    },
    {
      "midi": 61,
      "hit": false,
      "t": 377950.0000000015,
      "d": 120.83333333331393,
      "v": 47
    },
    {
      "midi": 52,
      "hit": false,
      "t": 377958.3333333348,
      "d": 75,
      "v": 31
    },
    {
      "midi": 64,
      "hit": false,
      "t": 378504.16666666814,
      "d": 350,
      "v": 53
    },
    {
      "midi": 52,
      "hit": false,
      "t": 378508.3333333348,
      "d": 329.16666666662786,
      "v": 35
    },
    {
      "midi": 61,
      "hit": false,
      "t": 378520.8333333348,
      "d": 279.16666666662786,
      "v": 31
    },
    {
      "midi": 55,
      "hit": false,
      "t": 378525.0000000015,
      "d": 229.16666666662786,
      "v": 12
    },
    {
      "midi": 88,
      "hit": false,
      "t": 379779.1666666681,
      "d": 87.5,
      "v": 56
    },
    {
      "midi": 87,
      "hit": false,
      "t": 379879.1666666681,
      "d": 120.83333333337214,
      "v": 54
    },
    {
      "midi": 35,
      "hit": false,
      "t": 379979.1666666681,
      "d": 45.83333333337214,
      "v": 51
    },
    {
      "midi": 88,
      "hit": false,
      "t": 379979.1666666681,
      "d": 70.83333333337214,
      "v": 70
    },
    {
      "midi": 47,
      "hit": false,
      "t": 379983.33333333477,
      "d": 58.33333333337214,
      "v": 44
    },
    {
      "midi": 79,
      "hit": false,
      "t": 380175.00000000146,
      "d": 37.5,
      "v": 51
    },
    {
      "midi": 83,
      "hit": false,
      "t": 380175.00000000146,
      "d": 58.33333333331393,
      "v": 56
    },
    {
      "midi": 84,
      "hit": false,
      "t": 380345.83333333477,
      "d": 141.66666666668607,
      "v": 60
    },
    {
      "midi": 76,
      "hit": false,
      "t": 380354.1666666681,
      "d": 54.16666666668607,
      "v": 54
    },
    {
      "midi": 81,
      "hit": false,
      "t": 380354.1666666681,
      "d": 54.16666666668607,
      "v": 56
    },
    {
      "midi": 75,
      "hit": false,
      "t": 380425.00000000146,
      "d": 83.33333333331393,
      "v": 54
    },
    {
      "midi": 76,
      "hit": false,
      "t": 380525.00000000146,
      "d": 70.83333333337214,
      "v": 56
    },
    {
      "midi": 83,
      "hit": false,
      "t": 380529.16666666814,
      "d": 58.33333333337214,
      "v": 64
    },
    {
      "midi": 79,
      "hit": false,
      "t": 380533.3333333348,
      "d": 29.16666666668607,
      "v": 51
    },
    {
      "midi": 71,
      "hit": false,
      "t": 380708.3333333348,
      "d": 12.5,
      "v": 48
    },
    {
      "midi": 79,
      "hit": false,
      "t": 380708.3333333348,
      "d": 33.33333333331393,
      "v": 58
    },
    {
      "midi": 76,
      "hit": false,
      "t": 380720.8333333348,
      "d": 75,
      "v": 42
    },
    {
      "midi": 76,
      "hit": false,
      "t": 380895.8333333348,
      "d": 50,
      "v": 49
    },
    {
      "midi": 81,
      "hit": false,
      "t": 380895.8333333348,
      "d": 91.66666666668607,
      "v": 57
    },
    {
      "midi": 72,
      "hit": false,
      "t": 380900.0000000015,
      "d": 104.16666666668607,
      "v": 54
    },
    {
      "midi": 75,
      "hit": false,
      "t": 380970.8333333348,
      "d": 62.50000000005821,
      "v": 64
    },
    {
      "midi": 71,
      "hit": false,
      "t": 381070.8333333349,
      "d": 54.16666666668607,
      "v": 54
    },
    {
      "midi": 79,
      "hit": false,
      "t": 381070.8333333349,
      "d": 58.33333333337214,
      "v": 60
    },
    {
      "midi": 76,
      "hit": false,
      "t": 381241.66666666826,
      "d": 41.66666666662786,
      "v": 56
    },
    {
      "midi": 67,
      "hit": false,
      "t": 381250.0000000016,
      "d": 20.83333333331393,
      "v": 36
    },
    {
      "midi": 71,
      "hit": false,
      "t": 381258.3333333349,
      "d": 20.83333333331393,
      "v": 46
    },
    {
      "midi": 78,
      "hit": false,
      "t": 381425.0000000016,
      "d": 95.83333333337214,
      "v": 66
    },
    {
      "midi": 64,
      "hit": false,
      "t": 381429.16666666826,
      "d": 70.83333333331393,
      "v": 51
    },
    {
      "midi": 72,
      "hit": false,
      "t": 381429.16666666826,
      "d": 70.83333333331393,
      "v": 52
    },
    {
      "midi": 69,
      "hit": false,
      "t": 381441.66666666826,
      "d": 62.5,
      "v": 38
    },
    {
      "midi": 63,
      "hit": false,
      "t": 381500.0000000016,
      "d": 75.00000000005821,
      "v": 71
    },
    {
      "midi": 64,
      "hit": false,
      "t": 381575.00000000163,
      "d": 166.66666666662786,
      "v": 60
    },
    {
      "midi": 76,
      "hit": false,
      "t": 381608.33333333494,
      "d": 70.83333333331393,
      "v": 64
    },
    {
      "midi": 71,
      "hit": false,
      "t": 381612.50000000163,
      "d": 45.83333333331393,
      "v": 61
    },
    {
      "midi": 67,
      "hit": false,
      "t": 381625.00000000163,
      "d": 20.83333333331393,
      "v": 43
    },
    {
      "midi": 52,
      "hit": false,
      "t": 381762.5000000016,
      "d": 20.83333333331393,
      "v": 51
    },
    {
      "midi": 71,
      "hit": false,
      "t": 381783.3333333349,
      "d": 41.66666666662786,
      "v": 58
    },
    {
      "midi": 67,
      "hit": false,
      "t": 381795.8333333349,
      "d": 20.83333333331393,
      "v": 32
    },
    {
      "midi": 67,
      "hit": false,
      "t": 381970.8333333348,
      "d": 183.33333333331393,
      "v": 44
    },
    {
      "midi": 71,
      "hit": false,
      "t": 381979.16666666814,
      "d": 54.16666666668607,
      "v": 56
    },
    {
      "midi": 64,
      "hit": false,
      "t": 381979.16666666814,
      "d": 116.66666666668607,
      "v": 41
    },
    {
      "midi": 70,
      "hit": false,
      "t": 382050.0000000015,
      "d": 79.16666666662786,
      "v": 59
    },
    {
      "midi": 66,
      "hit": false,
      "t": 382133.3333333348,
      "d": 79.16666666668607,
      "v": 46
    },
    {
      "midi": 71,
      "hit": false,
      "t": 382137.5000000015,
      "d": 58.33333333331393,
      "v": 66
    },
    {
      "midi": 63,
      "hit": false,
      "t": 382145.8333333348,
      "d": 33.33333333331393,
      "v": 60
    },
    {
      "midi": 75,
      "hit": false,
      "t": 382312.5000000015,
      "d": 50,
      "v": 53
    },
    {
      "midi": 59,
      "hit": false,
      "t": 382320.8333333348,
      "d": 37.5,
      "v": 40
    },
    {
      "midi": 64,
      "hit": false,
      "t": 382504.1666666682,
      "d": 125.00000000005821,
      "v": 41
    },
    {
      "midi": 67,
      "hit": false,
      "t": 382504.1666666682,
      "d": 191.66666666680248,
      "v": 40
    },
    {
      "midi": 71,
      "hit": false,
      "t": 382508.3333333349,
      "d": 66.66666666668607,
      "v": 51
    },
    {
      "midi": 70,
      "hit": false,
      "t": 382587.5000000016,
      "d": 66.66666666668607,
      "v": 60
    },
    {
      "midi": 66,
      "hit": false,
      "t": 382670.83333333494,
      "d": 91.66666666674428,
      "v": 53
    },
    {
      "midi": 63,
      "hit": false,
      "t": 382675.00000000163,
      "d": 62.50000000005821,
      "v": 58
    },
    {
      "midi": 71,
      "hit": false,
      "t": 382679.1666666683,
      "d": 41.66666666668607,
      "v": 61
    },
    {
      "midi": 59,
      "hit": false,
      "t": 382845.833333335,
      "d": 12.5,
      "v": 50
    },
    {
      "midi": 78,
      "hit": false,
      "t": 382845.833333335,
      "d": 62.5,
      "v": 56
    },
    {
      "midi": 71,
      "hit": false,
      "t": 383033.333333335,
      "d": 62.5,
      "v": 57
    },
    {
      "midi": 64,
      "hit": false,
      "t": 383033.333333335,
      "d": 120.83333333331393,
      "v": 49
    },
    {
      "midi": 67,
      "hit": false,
      "t": 383041.6666666683,
      "d": 175,
      "v": 44
    },
    {
      "midi": 70,
      "hit": false,
      "t": 383116.6666666683,
      "d": 75,
      "v": 61
    },
    {
      "midi": 66,
      "hit": false,
      "t": 383195.833333335,
      "d": 120.83333333331393,
      "v": 59
    },
    {
      "midi": 71,
      "hit": false,
      "t": 383208.333333335,
      "d": 41.66666666662786,
      "v": 66
    },
    {
      "midi": 63,
      "hit": false,
      "t": 383216.6666666683,
      "d": 75,
      "v": 46
    },
    {
      "midi": 59,
      "hit": false,
      "t": 383366.6666666683,
      "d": 41.66666666668607,
      "v": 57
    },
    {
      "midi": 75,
      "hit": false,
      "t": 383379.1666666683,
      "d": 37.5,
      "v": 50
    },
    {
      "midi": 83,
      "hit": false,
      "t": 383379.1666666683,
      "d": 50,
      "v": 52
    },
    {
      "midi": 70,
      "hit": false,
      "t": 383525.00000000163,
      "d": 66.66666666662786,
      "v": 53
    },
    {
      "midi": 79,
      "hit": false,
      "t": 383525.00000000163,
      "d": 91.66666666662786,
      "v": 50
    },
    {
      "midi": 76,
      "hit": false,
      "t": 383533.33333333494,
      "d": 37.5,
      "v": 53
    },
    {
      "midi": 75,
      "hit": false,
      "t": 383700.0000000016,
      "d": 41.66666666662786,
      "v": 60
    },
    {
      "midi": 78,
      "hit": false,
      "t": 383700.0000000016,
      "d": 54.16666666662786,
      "v": 57
    },
    {
      "midi": 71,
      "hit": false,
      "t": 383708.3333333349,
      "d": 129.16666666662786,
      "v": 45
    },
    {
      "midi": 59,
      "hit": false,
      "t": 383862.5000000015,
      "d": 79.16666666668607,
      "v": 47
    },
    {
      "midi": 88,
      "hit": false,
      "t": 384050.0000000015,
      "d": 75,
      "v": 59
    },
    {
      "midi": 87,
      "hit": false,
      "t": 384137.5000000015,
      "d": 70.83333333331393,
      "v": 56
    },
    {
      "midi": 31,
      "hit": false,
      "t": 384208.3333333348,
      "d": 20.83333333331393,
      "v": 64
    },
    {
      "midi": 88,
      "hit": false,
      "t": 384212.5000000015,
      "d": 99.99999999994179,
      "v": 64
    },
    {
      "midi": 43,
      "hit": false,
      "t": 384220.8333333348,
      "d": 33.33333333331393,
      "v": 59
    },
    {
      "midi": 83,
      "hit": false,
      "t": 384383.33333333477,
      "d": 58.33333333331393,
      "v": 61
    },
    {
      "midi": 79,
      "hit": false,
      "t": 384554.1666666681,
      "d": 62.5,
      "v": 53
    },
    {
      "midi": 76,
      "hit": false,
      "t": 384720.83333333477,
      "d": 62.49999999994179,
      "v": 60
    },
    {
      "midi": 55,
      "hit": false,
      "t": 384733.33333333477,
      "d": 41.66666666662786,
      "v": 51
    },
    {
      "midi": 59,
      "hit": false,
      "t": 384733.33333333477,
      "d": 49.99999999994179,
      "v": 52
    },
    {
      "midi": 52,
      "hit": false,
      "t": 384741.6666666681,
      "d": 54.16666666662786,
      "v": 50
    },
    {
      "midi": 71,
      "hit": false,
      "t": 384904.166666668,
      "d": 75,
      "v": 52
    },
    {
      "midi": 67,
      "hit": false,
      "t": 385070.8333333347,
      "d": 54.16666666668607,
      "v": 49
    },
    {
      "midi": 64,
      "hit": false,
      "t": 385262.5000000014,
      "d": 70.83333333331393,
      "v": 64
    },
    {
      "midi": 67,
      "hit": false,
      "t": 385445.8333333347,
      "d": 62.5,
      "v": 42
    },
    {
      "midi": 31,
      "hit": false,
      "t": 385450.0000000014,
      "d": 95.83333333331393,
      "v": 50
    },
    {
      "midi": 43,
      "hit": false,
      "t": 385458.3333333347,
      "d": 87.5,
      "v": 50
    },
    {
      "midi": 71,
      "hit": false,
      "t": 385595.8333333347,
      "d": 54.16666666668607,
      "v": 56
    },
    {
      "midi": 43,
      "hit": false,
      "t": 385604.166666668,
      "d": 87.50000000005821,
      "v": 50
    },
    {
      "midi": 31,
      "hit": false,
      "t": 385608.3333333347,
      "d": 87.50000000005821,
      "v": 50
    },
    {
      "midi": 76,
      "hit": false,
      "t": 385762.50000000146,
      "d": 62.5,
      "v": 58
    },
    {
      "midi": 43,
      "hit": false,
      "t": 385770.83333333477,
      "d": 87.5,
      "v": 50
    },
    {
      "midi": 31,
      "hit": false,
      "t": 385775.00000000146,
      "d": 87.5,
      "v": 50
    },
    {
      "midi": 79,
      "hit": false,
      "t": 385908.33333333477,
      "d": 50,
      "v": 57
    },
    {
      "midi": 31,
      "hit": false,
      "t": 385920.83333333477,
      "d": 87.5,
      "v": 50
    },
    {
      "midi": 43,
      "hit": false,
      "t": 385920.83333333477,
      "d": 87.5,
      "v": 50
    },
    {
      "midi": 31,
      "hit": false,
      "t": 386083.33333333477,
      "d": 87.49999999994179,
      "v": 50
    },
    {
      "midi": 88,
      "hit": false,
      "t": 386091.6666666681,
      "d": 58.33333333331393,
      "v": 52
    },
    {
      "midi": 43,
      "hit": false,
      "t": 386091.6666666681,
      "d": 87.49999999994179,
      "v": 50
    },
    {
      "midi": 87,
      "hit": false,
      "t": 386158.3333333347,
      "d": 62.5,
      "v": 61
    },
    {
      "midi": 33,
      "hit": false,
      "t": 386254.166666668,
      "d": 37.5,
      "v": 71
    },
    {
      "midi": 88,
      "hit": false,
      "t": 386254.166666668,
      "d": 108.33333333331393,
      "v": 64
    },
    {
      "midi": 45,
      "hit": false,
      "t": 386258.3333333347,
      "d": 45.83333333331393,
      "v": 71
    },
    {
      "midi": 84,
      "hit": false,
      "t": 386429.166666668,
      "d": 54.16666666668607,
      "v": 58
    },
    {
      "midi": 81,
      "hit": false,
      "t": 386604.166666668,
      "d": 50,
      "v": 59
    },
    {
      "midi": 76,
      "hit": false,
      "t": 386770.8333333347,
      "d": 66.66666666662786,
      "v": 58
    },
    {
      "midi": 60,
      "hit": false,
      "t": 386779.166666668,
      "d": 45.83333333331393,
      "v": 52
    },
    {
      "midi": 52,
      "hit": false,
      "t": 386783.3333333347,
      "d": 20.83333333331393,
      "v": 45
    },
    {
      "midi": 57,
      "hit": false,
      "t": 386783.3333333347,
      "d": 41.66666666662786,
      "v": 49
    },
    {
      "midi": 54,
      "hit": false,
      "t": 386783.3333333347,
      "d": 74.99999999994179,
      "v": 43
    },
    {
      "midi": 72,
      "hit": false,
      "t": 386958.33333333465,
      "d": 66.66666666668607,
      "v": 49
    },
    {
      "midi": 69,
      "hit": false,
      "t": 387116.666666668,
      "d": 50,
      "v": 54
    },
    {
      "midi": 64,
      "hit": false,
      "t": 387279.166666668,
      "d": 62.5,
      "v": 68
    },
    {
      "midi": 33,
      "hit": false,
      "t": 387458.3333333347,
      "d": 29.16666666668607,
      "v": 50
    },
    {
      "midi": 45,
      "hit": false,
      "t": 387458.3333333347,
      "d": 45.83333333337214,
      "v": 50
    },
    {
      "midi": 69,
      "hit": false,
      "t": 387462.5000000014,
      "d": 58.33333333337214,
      "v": 51
    },
    {
      "midi": 33,
      "hit": false,
      "t": 387616.6666666681,
      "d": 29.16666666662786,
      "v": 50
    },
    {
      "midi": 72,
      "hit": false,
      "t": 387625.0000000014,
      "d": 12.5,
      "v": 46
    },
    {
      "midi": 45,
      "hit": false,
      "t": 387625.0000000014,
      "d": 33.33333333331393,
      "v": 50
    },
    {
      "midi": 76,
      "hit": false,
      "t": 387783.3333333347,
      "d": 50,
      "v": 46
    },
    {
      "midi": 33,
      "hit": false,
      "t": 387791.666666668,
      "d": 25,
      "v": 50
    },
    {
      "midi": 45,
      "hit": false,
      "t": 387791.666666668,
      "d": 41.66666666668607,
      "v": 50
    },
    {
      "midi": 33,
      "hit": false,
      "t": 387937.5000000014,
      "d": 25,
      "v": 50
    },
    {
      "midi": 45,
      "hit": false,
      "t": 387941.6666666681,
      "d": 37.5,
      "v": 50
    },
    {
      "midi": 81,
      "hit": false,
      "t": 387941.6666666681,
      "d": 79.16666666668607,
      "v": 64
    },
    {
      "midi": 33,
      "hit": false,
      "t": 388095.83333333477,
      "d": 50,
      "v": 50
    },
    {
      "midi": 45,
      "hit": false,
      "t": 388095.83333333477,
      "d": 50,
      "v": 50
    },
    {
      "midi": 88,
      "hit": false,
      "t": 388104.1666666681,
      "d": 50,
      "v": 64
    },
    {
      "midi": 87,
      "hit": false,
      "t": 388175.0000000014,
      "d": 58.33333333331393,
      "v": 58
    },
    {
      "midi": 47,
      "hit": false,
      "t": 388254.166666668,
      "d": 41.66666666668607,
      "v": 55
    },
    {
      "midi": 88,
      "hit": false,
      "t": 388254.166666668,
      "d": 87.5,
      "v": 64
    },
    {
      "midi": 35,
      "hit": false,
      "t": 388258.3333333347,
      "d": 16.66666666668607,
      "v": 55
    },
    {
      "midi": 83,
      "hit": false,
      "t": 388441.666666668,
      "d": 45.83333333331393,
      "v": 58
    },
    {
      "midi": 79,
      "hit": false,
      "t": 388595.83333333465,
      "d": 95.83333333331393,
      "v": 46
    },
    {
      "midi": 76,
      "hit": false,
      "t": 388741.66666666797,
      "d": 50,
      "v": 52
    },
    {
      "midi": 55,
      "hit": false,
      "t": 388754.16666666797,
      "d": 25,
      "v": 46
    },
    {
      "midi": 52,
      "hit": false,
      "t": 388754.16666666797,
      "d": 104.16666666662786,
      "v": 44
    },
    {
      "midi": 59,
      "hit": false,
      "t": 388758.33333333465,
      "d": 54.16666666662786,
      "v": 48
    },
    {
      "midi": 71,
      "hit": false,
      "t": 388941.6666666679,
      "d": 58.33333333331393,
      "v": 50
    },
    {
      "midi": 83,
      "hit": false,
      "t": 389104.1666666679,
      "d": 66.66666666668607,
      "v": 67
    },
    {
      "midi": 82,
      "hit": false,
      "t": 389175.0000000013,
      "d": 58.33333333331393,
      "v": 64
    },
    {
      "midi": 33,
      "hit": false,
      "t": 389254.1666666679,
      "d": 37.5,
      "v": 55
    },
    {
      "midi": 83,
      "hit": false,
      "t": 389258.3333333346,
      "d": 75,
      "v": 58
    },
    {
      "midi": 45,
      "hit": false,
      "t": 389270.8333333346,
      "d": 8.33333333331393,
      "v": 55
    },
    {
      "midi": 78,
      "hit": false,
      "t": 389445.8333333346,
      "d": 45.83333333331393,
      "v": 56
    },
    {
      "midi": 75,
      "hit": false,
      "t": 389591.6666666679,
      "d": 116.66666666668607,
      "v": 57
    },
    {
      "midi": 71,
      "hit": false,
      "t": 389758.3333333346,
      "d": 45.83333333337214,
      "v": 58
    },
    {
      "midi": 51,
      "hit": false,
      "t": 389758.3333333346,
      "d": 79.16666666668607,
      "v": 60
    },
    {
      "midi": 59,
      "hit": false,
      "t": 389770.8333333346,
      "d": 20.83333333337214,
      "v": 50
    },
    {
      "midi": 54,
      "hit": false,
      "t": 389775.0000000013,
      "d": 62.5,
      "v": 38
    },
    {
      "midi": 66,
      "hit": false,
      "t": 389937.5000000013,
      "d": 33.33333333331393,
      "v": 61
    },
    {
      "midi": 83,
      "hit": false,
      "t": 390116.6666666679,
      "d": 62.5,
      "v": 46
    },
    {
      "midi": 79,
      "hit": false,
      "t": 390125.0000000012,
      "d": 66.66666666668607,
      "v": 61
    },
    {
      "midi": 78,
      "hit": false,
      "t": 390191.6666666679,
      "d": 66.66666666668607,
      "v": 68
    },
    {
      "midi": 31,
      "hit": false,
      "t": 390279.1666666679,
      "d": 45.83333333337214,
      "v": 66
    },
    {
      "midi": 79,
      "hit": false,
      "t": 390279.1666666679,
      "d": 75.00000000005821,
      "v": 67
    },
    {
      "midi": 83,
      "hit": false,
      "t": 390279.1666666679,
      "d": 75.00000000005821,
      "v": 61
    },
    {
      "midi": 43,
      "hit": false,
      "t": 390283.3333333346,
      "d": 54.16666666668607,
      "v": 66
    },
    {
      "midi": 76,
      "hit": false,
      "t": 390445.83333333465,
      "d": 66.66666666668607,
      "v": 54
    },
    {
      "midi": 78,
      "hit": false,
      "t": 390625.00000000134,
      "d": 66.66666666668607,
      "v": 64
    },
    {
      "midi": 81,
      "hit": false,
      "t": 390633.33333333465,
      "d": 54.16666666668607,
      "v": 57
    },
    {
      "midi": 77,
      "hit": false,
      "t": 390695.8333333347,
      "d": 66.66666666668607,
      "v": 58
    },
    {
      "midi": 78,
      "hit": false,
      "t": 390779.1666666681,
      "d": 79.16666666662786,
      "v": 68
    },
    {
      "midi": 33,
      "hit": false,
      "t": 390783.33333333477,
      "d": 62.49999999994179,
      "v": 63
    },
    {
      "midi": 45,
      "hit": false,
      "t": 390783.33333333477,
      "d": 62.49999999994179,
      "v": 63
    },
    {
      "midi": 81,
      "hit": false,
      "t": 390791.6666666681,
      "d": 45.83333333331393,
      "v": 60
    },
    {
      "midi": 72,
      "hit": false,
      "t": 390950.0000000014,
      "d": 62.5,
      "v": 51
    },
    {
      "midi": 79,
      "hit": false,
      "t": 391125.0000000014,
      "d": 45.83333333331393,
      "v": 52
    },
    {
      "midi": 76,
      "hit": false,
      "t": 391125.0000000014,
      "d": 54.16666666662786,
      "v": 60
    },
    {
      "midi": 75,
      "hit": false,
      "t": 391179.166666668,
      "d": 83.33333333331393,
      "v": 68
    },
    {
      "midi": 79,
      "hit": false,
      "t": 391254.166666668,
      "d": 70.83333333331393,
      "v": 59
    },
    {
      "midi": 35,
      "hit": false,
      "t": 391262.50000000134,
      "d": 54.16666666668607,
      "v": 58
    },
    {
      "midi": 47,
      "hit": false,
      "t": 391262.50000000134,
      "d": 54.16666666668607,
      "v": 64
    },
    {
      "midi": 76,
      "hit": false,
      "t": 391262.50000000134,
      "d": 62.5,
      "v": 67
    },
    {
      "midi": 71,
      "hit": false,
      "t": 391441.666666668,
      "d": 50,
      "v": 56
    },
    {
      "midi": 78,
      "hit": false,
      "t": 391604.166666668,
      "d": 66.66666666668607,
      "v": 61
    },
    {
      "midi": 75,
      "hit": false,
      "t": 391604.166666668,
      "d": 87.5,
      "v": 59
    },
    {
      "midi": 74,
      "hit": false,
      "t": 391679.166666668,
      "d": 70.83333333331393,
      "v": 60
    },
    {
      "midi": 78,
      "hit": false,
      "t": 391741.666666668,
      "d": 62.5,
      "v": 68
    },
    {
      "midi": 35,
      "hit": false,
      "t": 391750.00000000134,
      "d": 50,
      "v": 56
    },
    {
      "midi": 47,
      "hit": false,
      "t": 391754.166666668,
      "d": 45.83333333331393,
      "v": 66
    },
    {
      "midi": 75,
      "hit": false,
      "t": 391754.166666668,
      "d": 50,
      "v": 61
    },
    {
      "midi": 69,
      "hit": false,
      "t": 391916.666666668,
      "d": 70.83333333331393,
      "v": 49
    },
    {
      "midi": 76,
      "hit": false,
      "t": 392075.00000000134,
      "d": 62.5,
      "v": 58
    },
    {
      "midi": 72,
      "hit": false,
      "t": 392075.00000000134,
      "d": 70.83333333331393,
      "v": 51
    },
    {
      "midi": 71,
      "hit": false,
      "t": 392145.83333333465,
      "d": 66.66666666668607,
      "v": 64
    },
    {
      "midi": 72,
      "hit": false,
      "t": 392216.666666668,
      "d": 62.5,
      "v": 60
    },
    {
      "midi": 76,
      "hit": false,
      "t": 392216.666666668,
      "d": 62.5,
      "v": 61
    },
    {
      "midi": 48,
      "hit": false,
      "t": 392220.8333333347,
      "d": 41.66666666662786,
      "v": 63
    },
    {
      "midi": 36,
      "hit": false,
      "t": 392229.166666668,
      "d": 50,
      "v": 53
    },
    {
      "midi": 67,
      "hit": false,
      "t": 392395.8333333347,
      "d": 62.5,
      "v": 51
    },
    {
      "midi": 69,
      "hit": false,
      "t": 392554.166666668,
      "d": 54.16666666668607,
      "v": 46
    },
    {
      "midi": 72,
      "hit": false,
      "t": 392554.166666668,
      "d": 62.5,
      "v": 44
    },
    {
      "midi": 68,
      "hit": false,
      "t": 392625.00000000134,
      "d": 70.83333333331393,
      "v": 61
    },
    {
      "midi": 69,
      "hit": false,
      "t": 392695.83333333465,
      "d": 62.50000000005821,
      "v": 61
    },
    {
      "midi": 72,
      "hit": false,
      "t": 392695.83333333465,
      "d": 66.66666666674428,
      "v": 52
    },
    {
      "midi": 33,
      "hit": false,
      "t": 392700.00000000134,
      "d": 37.5,
      "v": 52
    },
    {
      "midi": 45,
      "hit": false,
      "t": 392700.00000000134,
      "d": 41.66666666668607,
      "v": 59
    },
    {
      "midi": 65,
      "hit": false,
      "t": 392879.1666666681,
      "d": 45.83333333331393,
      "v": 48
    },
    {
      "midi": 67,
      "hit": false,
      "t": 393041.6666666681,
      "d": 62.49999999994179,
      "v": 40
    },
    {
      "midi": 71,
      "hit": false,
      "t": 393050.0000000014,
      "d": 25,
      "v": 39
    },
    {
      "midi": 66,
      "hit": false,
      "t": 393095.8333333347,
      "d": 79.16666666662786,
      "v": 57
    },
    {
      "midi": 71,
      "hit": false,
      "t": 393191.666666668,
      "d": 62.5,
      "v": 54
    },
    {
      "midi": 67,
      "hit": false,
      "t": 393191.666666668,
      "d": 79.16666666668607,
      "v": 52
    },
    {
      "midi": 35,
      "hit": false,
      "t": 393195.8333333347,
      "d": 58.33333333331393,
      "v": 45
    },
    {
      "midi": 47,
      "hit": false,
      "t": 393195.8333333347,
      "d": 62.5,
      "v": 40
    },
    {
      "midi": 64,
      "hit": false,
      "t": 393375.0000000014,
      "d": 45.83333333331393,
      "v": 51
    },
    {
      "midi": 66,
      "hit": false,
      "t": 393529.166666668,
      "d": 104.16666666662786,
      "v": 52
    },
    {
      "midi": 65,
      "hit": false,
      "t": 393612.50000000134,
      "d": 87.49999999994179,
      "v": 54
    },
    {
      "midi": 66,
      "hit": false,
      "t": 393679.16666666797,
      "d": 91.66666666668607,
      "v": 63
    },
    {
      "midi": 69,
      "hit": false,
      "t": 393687.5000000013,
      "d": 20.83333333331393,
      "v": 50
    },
    {
      "midi": 35,
      "hit": false,
      "t": 393687.5000000013,
      "d": 50,
      "v": 47
    },
    {
      "midi": 47,
      "hit": false,
      "t": 393687.5000000013,
      "d": 54.16666666668607,
      "v": 58
    },
    {
      "midi": 63,
      "hit": false,
      "t": 393866.66666666797,
      "d": 70.83333333331393,
      "v": 57
    },
    {
      "midi": 64,
      "hit": false,
      "t": 394029.16666666797,
      "d": 75.00000000005821,
      "v": 60
    },
    {
      "midi": 67,
      "hit": false,
      "t": 394033.33333333465,
      "d": 41.66666666668607,
      "v": 43
    },
    {
      "midi": 62,
      "hit": false,
      "t": 394108.3333333347,
      "d": 66.66666666668607,
      "v": 56
    },
    {
      "midi": 36,
      "hit": false,
      "t": 394187.5000000014,
      "d": 54.16666666662786,
      "v": 42
    },
    {
      "midi": 64,
      "hit": false,
      "t": 394187.5000000014,
      "d": 66.66666666662786,
      "v": 66
    },
    {
      "midi": 48,
      "hit": false,
      "t": 394195.8333333347,
      "d": 58.33333333331393,
      "v": 42
    },
    {
      "midi": 67,
      "hit": false,
      "t": 394195.8333333347,
      "d": 58.33333333331393,
      "v": 51
    },
    {
      "midi": 60,
      "hit": false,
      "t": 394383.3333333347,
      "d": 37.5,
      "v": 52
    },
    {
      "midi": 60,
      "hit": false,
      "t": 394533.3333333347,
      "d": 62.5,
      "v": 61
    },
    {
      "midi": 59,
      "hit": false,
      "t": 394612.5000000014,
      "d": 100.00000000005821,
      "v": 49
    },
    {
      "midi": 65,
      "hit": false,
      "t": 394679.1666666681,
      "d": 70.83333333337214,
      "v": 59
    },
    {
      "midi": 45,
      "hit": false,
      "t": 394695.83333333477,
      "d": 62.5,
      "v": 60
    },
    {
      "midi": 60,
      "hit": false,
      "t": 394695.83333333477,
      "d": 66.66666666668607,
      "v": 51
    },
    {
      "midi": 57,
      "hit": false,
      "t": 394866.66666666814,
      "d": 54.16666666668607,
      "v": 53
    },
    {
      "midi": 59,
      "hit": false,
      "t": 395066.66666666814,
      "d": 45.83333333331393,
      "v": 52
    },
    {
      "midi": 58,
      "hit": false,
      "t": 395116.66666666814,
      "d": 79.16666666668607,
      "v": 60
    },
    {
      "midi": 64,
      "hit": false,
      "t": 395212.5000000015,
      "d": 62.5,
      "v": 56
    },
    {
      "midi": 59,
      "hit": false,
      "t": 395212.5000000015,
      "d": 79.16666666668607,
      "v": 57
    },
    {
      "midi": 47,
      "hit": false,
      "t": 395216.6666666682,
      "d": 45.83333333331393,
      "v": 56
    },
    {
      "midi": 55,
      "hit": false,
      "t": 395387.5000000015,
      "d": 54.16666666668607,
      "v": 57
    },
    {
      "midi": 57,
      "hit": false,
      "t": 395587.5000000015,
      "d": 58.33333333331393,
      "v": 51
    },
    {
      "midi": 56,
      "hit": false,
      "t": 395658.3333333348,
      "d": 79.16666666668607,
      "v": 52
    },
    {
      "midi": 63,
      "hit": false,
      "t": 395754.1666666682,
      "d": 112.5,
      "v": 61
    },
    {
      "midi": 57,
      "hit": false,
      "t": 395754.1666666682,
      "d": 125,
      "v": 46
    },
    {
      "midi": 47,
      "hit": false,
      "t": 395770.8333333349,
      "d": 45.83333333331393,
      "v": 57
    },
    {
      "midi": 54,
      "hit": false,
      "t": 395966.6666666682,
      "d": 95.83333333331393,
      "v": 63
    },
    {
      "midi": 52,
      "hit": false,
      "t": 396179.1666666682,
      "d": 50,
      "v": 66
    },
    {
      "midi": 51,
      "hit": false,
      "t": 396250.0000000015,
      "d": 54.16666666668607,
      "v": 79
    },
    {
      "midi": 52,
      "hit": false,
      "t": 396325.0000000015,
      "d": 54.16666666668607,
      "v": 72
    },
    {
      "midi": 64,
      "hit": false,
      "t": 396341.6666666682,
      "d": 83.33333333337214,
      "v": 76
    },
    {
      "midi": 59,
      "hit": false,
      "t": 396345.8333333349,
      "d": 62.5,
      "v": 68
    },
    {
      "midi": 55,
      "hit": false,
      "t": 396354.1666666682,
      "d": 54.16666666668607,
      "v": 64
    },
    {
      "midi": 47,
      "hit": false,
      "t": 396529.16666666826,
      "d": 45.83333333331393,
      "v": 70
    },
    {
      "midi": 52,
      "hit": false,
      "t": 396729.16666666826,
      "d": 54.16666666668607,
      "v": 59
    },
    {
      "midi": 51,
      "hit": false,
      "t": 396795.83333333494,
      "d": 79.16666666668607,
      "v": 76
    },
    {
      "midi": 52,
      "hit": false,
      "t": 396904.1666666683,
      "d": 62.5,
      "v": 62
    },
    {
      "midi": 47,
      "hit": false,
      "t": 397087.50000000163,
      "d": 29.16666666668607,
      "v": 68
    },
    {
      "midi": 52,
      "hit": false,
      "t": 397300.00000000163,
      "d": 58.33333333331393,
      "v": 55
    },
    {
      "midi": 51,
      "hit": false,
      "t": 397366.66666666826,
      "d": 79.16666666668607,
      "v": 73
    },
    {
      "midi": 52,
      "hit": false,
      "t": 397483.33333333494,
      "d": 66.66666666668607,
      "v": 55
    },
    {
      "midi": 64,
      "hit": false,
      "t": 397483.33333333494,
      "d": 87.50000000005821,
      "v": 73
    },
    {
      "midi": 55,
      "hit": false,
      "t": 397487.50000000163,
      "d": 62.5,
      "v": 57
    },
    {
      "midi": 59,
      "hit": false,
      "t": 397500.00000000163,
      "d": 54.16666666668607,
      "v": 67
    },
    {
      "midi": 47,
      "hit": false,
      "t": 397687.5000000017,
      "d": 54.16666666668607,
      "v": 55
    },
    {
      "midi": 52,
      "hit": false,
      "t": 397916.6666666684,
      "d": 50,
      "v": 67
    },
    {
      "midi": 51,
      "hit": false,
      "t": 398012.5000000017,
      "d": 95.83333333331393,
      "v": 63
    },
    {
      "midi": 52,
      "hit": false,
      "t": 398137.5000000017,
      "d": 37.5,
      "v": 58
    },
    {
      "midi": 43,
      "hit": false,
      "t": 398345.833333335,
      "d": 62.5,
      "v": 55
    },
    {
      "midi": 47,
      "hit": false,
      "t": 398570.833333335,
      "d": 33.33333333331393,
      "v": 66
    },
    {
      "midi": 40,
      "hit": false,
      "t": 398837.50000000163,
      "d": 104.16666666662786,
      "v": 58
    },
    {
      "midi": 64,
      "hit": false,
      "t": 398837.50000000163,
      "d": 120.83333333325572,
      "v": 64
    },
    {
      "midi": 55,
      "hit": false,
      "t": 398845.83333333494,
      "d": 104.16666666662786,
      "v": 46
    },
    {
      "midi": 59,
      "hit": false,
      "t": 398845.83333333494,
      "d": 104.16666666662786,
      "v": 57
    },
    {
      "midi": 35,
      "hit": false,
      "t": 399091.6666666682,
      "d": 95.83333333331393,
      "v": 58
    },
    {
      "midi": 40,
      "hit": false,
      "t": 399312.5000000015,
      "d": 95.83333333331393,
      "v": 52
    },
    {
      "midi": 39,
      "hit": false,
      "t": 399429.16666666814,
      "d": 91.66666666668607,
      "v": 52
    },
    {
      "midi": 40,
      "hit": false,
      "t": 399545.8333333348,
      "d": 79.16666666668607,
      "v": 52
    },
    {
      "midi": 35,
      "hit": false,
      "t": 399800.0000000015,
      "d": 83.33333333331393,
      "v": 49
    },
    {
      "midi": 40,
      "hit": false,
      "t": 400062.5000000015,
      "d": 108.33333333331393,
      "v": 54
    },
    {
      "midi": 39,
      "hit": false,
      "t": 400179.16666666814,
      "d": 125,
      "v": 53
    },
    {
      "midi": 40,
      "hit": false,
      "t": 400337.50000000146,
      "d": 120.83333333331393,
      "v": 53
    },
    {
      "midi": 55,
      "hit": false,
      "t": 400337.50000000146,
      "d": 133.33333333331393,
      "v": 48
    },
    {
      "midi": 59,
      "hit": false,
      "t": 400345.83333333477,
      "d": 141.66666666668607,
      "v": 48
    },
    {
      "midi": 35,
      "hit": false,
      "t": 400604.16666666814,
      "d": 95.83333333331393,
      "v": 51
    },
    {
      "midi": 40,
      "hit": false,
      "t": 400900.00000000146,
      "d": 145.83333333331393,
      "v": 50
    },
    {
      "midi": 39,
      "hit": false,
      "t": 401070.83333333477,
      "d": 141.66666666668607,
      "v": 41
    },
    {
      "midi": 40,
      "hit": false,
      "t": 401229.16666666814,
      "d": 116.66666666668607,
      "v": 40
    },
    {
      "midi": 31,
      "hit": false,
      "t": 401716.66666666814,
      "d": 87.5,
      "v": 53
    },
    {
      "midi": 35,
      "hit": false,
      "t": 402295.8333333348,
      "d": 125,
      "v": 56
    },
    {
      "midi": 28,
      "hit": false,
      "t": 403279.1666666682,
      "d": 87.5,
      "v": 110
    },
    {
      "midi": 40,
      "hit": false,
      "t": 403279.1666666682,
      "d": 108.33333333331393,
      "v": 123
    },
    {
      "midi": 52,
      "hit": false,
      "t": 403445.8333333348,
      "d": 45.83333333331393,
      "v": 101
    },
    {
      "midi": 64,
      "hit": false,
      "t": 403445.8333333348,
      "d": 79.16666666662786,
      "v": 99
    },
    {
      "midi": 31,
      "hit": false,
      "t": 403587.50000000146,
      "d": 120.83333333331393,
      "v": 109
    },
    {
      "midi": 43,
      "hit": false,
      "t": 403587.50000000146,
      "d": 120.83333333331393,
      "v": 115
    },
    {
      "midi": 67,
      "hit": false,
      "t": 403687.50000000146,
      "d": 62.5,
      "v": 97
    },
    {
      "midi": 55,
      "hit": false,
      "t": 403695.83333333477,
      "d": 45.83333333337214,
      "v": 93
    },
    {
      "midi": 30,
      "hit": false,
      "t": 403791.6666666681,
      "d": 116.66666666668607,
      "v": 115
    },
    {
      "midi": 42,
      "hit": false,
      "t": 403795.83333333477,
      "d": 141.66666666668607,
      "v": 123
    },
    {
      "midi": 66,
      "hit": false,
      "t": 403895.83333333477,
      "d": 87.5,
      "v": 100
    },
    {
      "midi": 54,
      "hit": false,
      "t": 403908.33333333477,
      "d": 62.5,
      "v": 87
    },
    {
      "midi": 45,
      "hit": false,
      "t": 404004.1666666681,
      "d": 104.16666666668607,
      "v": 127
    },
    {
      "midi": 33,
      "hit": false,
      "t": 404004.1666666681,
      "d": 120.83333333337214,
      "v": 112
    },
    {
      "midi": 69,
      "hit": false,
      "t": 404104.1666666681,
      "d": 66.66666666674428,
      "v": 100
    },
    {
      "midi": 57,
      "hit": false,
      "t": 404108.33333333477,
      "d": 50.00000000005821,
      "v": 96
    },
    {
      "midi": 31,
      "hit": false,
      "t": 404187.50000000146,
      "d": 75.00000000005821,
      "v": 108
    },
    {
      "midi": 43,
      "hit": false,
      "t": 404191.66666666814,
      "d": 79.16666666668607,
      "v": 104
    },
    {
      "midi": 55,
      "hit": false,
      "t": 404295.8333333348,
      "d": 37.5,
      "v": 92
    },
    {
      "midi": 67,
      "hit": false,
      "t": 404295.8333333348,
      "d": 58.33333333331393,
      "v": 95
    },
    {
      "midi": 48,
      "hit": false,
      "t": 404404.16666666814,
      "d": 104.16666666662786,
      "v": 114
    },
    {
      "midi": 36,
      "hit": false,
      "t": 404404.16666666814,
      "d": 116.66666666662786,
      "v": 108
    },
    {
      "midi": 72,
      "hit": false,
      "t": 404483.3333333348,
      "d": 62.49999999994179,
      "v": 88
    },
    {
      "midi": 60,
      "hit": false,
      "t": 404491.66666666814,
      "d": 62.49999999994179,
      "v": 84
    },
    {
      "midi": 35,
      "hit": false,
      "t": 404591.6666666681,
      "d": 62.5,
      "v": 105
    },
    {
      "midi": 47,
      "hit": false,
      "t": 404591.6666666681,
      "d": 75,
      "v": 118
    },
    {
      "midi": 59,
      "hit": false,
      "t": 404687.5000000014,
      "d": 41.66666666668607,
      "v": 95
    },
    {
      "midi": 71,
      "hit": false,
      "t": 404687.5000000014,
      "d": 70.83333333337214,
      "v": 93
    },
    {
      "midi": 40,
      "hit": false,
      "t": 404783.33333333477,
      "d": 83.33333333331393,
      "v": 99
    },
    {
      "midi": 52,
      "hit": false,
      "t": 404791.6666666681,
      "d": 83.33333333331393,
      "v": 116
    },
    {
      "midi": 76,
      "hit": false,
      "t": 404879.1666666681,
      "d": 50.00000000005821,
      "v": 93
    },
    {
      "midi": 64,
      "hit": false,
      "t": 404883.33333333477,
      "d": 41.66666666668607,
      "v": 86
    },
    {
      "midi": 39,
      "hit": false,
      "t": 404979.16666666814,
      "d": 75,
      "v": 104
    },
    {
      "midi": 51,
      "hit": false,
      "t": 404983.3333333348,
      "d": 79.16666666662786,
      "v": 127
    },
    {
      "midi": 63,
      "hit": false,
      "t": 405066.66666666814,
      "d": 37.5,
      "v": 97
    },
    {
      "midi": 75,
      "hit": false,
      "t": 405066.66666666814,
      "d": 50,
      "v": 99
    },
    {
      "midi": 42,
      "hit": false,
      "t": 405170.8333333348,
      "d": 100.00000000005821,
      "v": 108
    },
    {
      "midi": 54,
      "hit": false,
      "t": 405170.8333333348,
      "d": 104.16666666674428,
      "v": 127
    },
    {
      "midi": 78,
      "hit": false,
      "t": 405250.0000000015,
      "d": 70.83333333337214,
      "v": 104
    },
    {
      "midi": 66,
      "hit": false,
      "t": 405254.1666666682,
      "d": 66.66666666668607,
      "v": 92
    },
    {
      "midi": 40,
      "hit": false,
      "t": 405345.8333333349,
      "d": 50,
      "v": 100
    },
    {
      "midi": 52,
      "hit": false,
      "t": 405345.8333333349,
      "d": 58.33333333331393,
      "v": 118
    },
    {
      "midi": 76,
      "hit": false,
      "t": 405441.6666666682,
      "d": 66.66666666668607,
      "v": 100
    },
    {
      "midi": 64,
      "hit": false,
      "t": 405445.8333333349,
      "d": 33.33333333331393,
      "v": 101
    },
    {
      "midi": 45,
      "hit": false,
      "t": 405545.8333333349,
      "d": 125,
      "v": 110
    },
    {
      "midi": 57,
      "hit": false,
      "t": 405550.0000000016,
      "d": 104.16666666662786,
      "v": 126
    },
    {
      "midi": 69,
      "hit": false,
      "t": 405637.5000000016,
      "d": 54.16666666662786,
      "v": 96
    },
    {
      "midi": 81,
      "hit": false,
      "t": 405637.5000000016,
      "d": 62.49999999994179,
      "v": 108
    },
    {
      "midi": 43,
      "hit": false,
      "t": 405729.16666666814,
      "d": 45.83333333331393,
      "v": 104
    },
    {
      "midi": 55,
      "hit": false,
      "t": 405729.16666666814,
      "d": 66.66666666668607,
      "v": 121
    },
    {
      "midi": 67,
      "hit": false,
      "t": 405833.3333333348,
      "d": 33.33333333331393,
      "v": 82
    },
    {
      "midi": 79,
      "hit": false,
      "t": 405833.3333333348,
      "d": 62.5,
      "v": 95
    },
    {
      "midi": 48,
      "hit": false,
      "t": 405920.8333333348,
      "d": 129.16666666668607,
      "v": 110
    },
    {
      "midi": 60,
      "hit": false,
      "t": 405925.0000000015,
      "d": 120.83333333331393,
      "v": 119
    },
    {
      "midi": 72,
      "hit": false,
      "t": 406008.3333333348,
      "d": 62.5,
      "v": 95
    },
    {
      "midi": 84,
      "hit": false,
      "t": 406008.3333333348,
      "d": 75,
      "v": 104
    },
    {
      "midi": 59,
      "hit": false,
      "t": 406108.3333333348,
      "d": 70.83333333343035,
      "v": 122
    },
    {
      "midi": 47,
      "hit": false,
      "t": 406112.5000000015,
      "d": 54.16666666668607,
      "v": 118
    },
    {
      "midi": 71,
      "hit": false,
      "t": 406200.0000000016,
      "d": 41.66666666668607,
      "v": 100
    },
    {
      "midi": 83,
      "hit": false,
      "t": 406200.0000000016,
      "d": 75.00000000005821,
      "v": 96
    },
    {
      "midi": 52,
      "hit": false,
      "t": 406283.33333333494,
      "d": 104.16666666668607,
      "v": 109
    },
    {
      "midi": 64,
      "hit": false,
      "t": 406291.66666666826,
      "d": 95.83333333337214,
      "v": 121
    },
    {
      "midi": 88,
      "hit": false,
      "t": 406379.16666666826,
      "d": 50,
      "v": 103
    },
    {
      "midi": 76,
      "hit": false,
      "t": 406383.33333333494,
      "d": 37.5,
      "v": 96
    },
    {
      "midi": 51,
      "hit": false,
      "t": 406470.8333333349,
      "d": 75,
      "v": 125
    },
    {
      "midi": 63,
      "hit": false,
      "t": 406479.1666666682,
      "d": 83.33333333331393,
      "v": 127
    },
    {
      "midi": 75,
      "hit": false,
      "t": 406554.1666666682,
      "d": 41.66666666662786,
      "v": 101
    },
    {
      "midi": 87,
      "hit": false,
      "t": 406562.5000000015,
      "d": 54.16666666662786,
      "v": 97
    },
    {
      "midi": 54,
      "hit": false,
      "t": 406658.3333333348,
      "d": 79.16666666662786,
      "v": 115
    },
    {
      "midi": 66,
      "hit": false,
      "t": 406666.66666666814,
      "d": 95.83333333331393,
      "v": 122
    },
    {
      "midi": 78,
      "hit": false,
      "t": 406737.50000000146,
      "d": 62.5,
      "v": 99
    },
    {
      "midi": 90,
      "hit": false,
      "t": 406741.66666666814,
      "d": 41.66666666662786,
      "v": 84
    },
    {
      "midi": 52,
      "hit": false,
      "t": 406841.66666666814,
      "d": 83.33333333337214,
      "v": 108
    },
    {
      "midi": 64,
      "hit": false,
      "t": 406845.8333333348,
      "d": 79.16666666668607,
      "v": 116
    },
    {
      "midi": 76,
      "hit": false,
      "t": 406941.6666666682,
      "d": 37.5,
      "v": 96
    },
    {
      "midi": 88,
      "hit": false,
      "t": 406941.6666666682,
      "d": 45.83333333331393,
      "v": 96
    },
    {
      "midi": 54,
      "hit": false,
      "t": 407033.3333333348,
      "d": 120.83333333331393,
      "v": 112
    },
    {
      "midi": 66,
      "hit": false,
      "t": 407041.66666666814,
      "d": 129.16666666668607,
      "v": 118
    },
    {
      "midi": 78,
      "hit": false,
      "t": 407108.3333333348,
      "d": 83.33333333337214,
      "v": 99
    },
    {
      "midi": 90,
      "hit": false,
      "t": 407116.66666666814,
      "d": 91.66666666674428,
      "v": 92
    },
    {
      "midi": 55,
      "hit": false,
      "t": 407208.3333333349,
      "d": 91.66666666674428,
      "v": 109
    },
    {
      "midi": 67,
      "hit": false,
      "t": 407212.5000000016,
      "d": 66.66666666668607,
      "v": 114
    },
    {
      "midi": 79,
      "hit": false,
      "t": 407304.1666666683,
      "d": 37.5,
      "v": 92
    },
    {
      "midi": 91,
      "hit": false,
      "t": 407304.1666666683,
      "d": 37.5,
      "v": 105
    },
    {
      "midi": 63,
      "hit": false,
      "t": 407383.33333333494,
      "d": 108.33333333331393,
      "v": 125
    },
    {
      "midi": 51,
      "hit": false,
      "t": 407395.83333333494,
      "d": 108.33333333331393,
      "v": 121
    },
    {
      "midi": 87,
      "hit": false,
      "t": 407466.66666666826,
      "d": 83.33333333337214,
      "v": 100
    },
    {
      "midi": 75,
      "hit": false,
      "t": 407470.83333333494,
      "d": 58.33333333337214,
      "v": 104
    },
    {
      "midi": 52,
      "hit": false,
      "t": 407554.1666666683,
      "d": 75,
      "v": 105
    },
    {
      "midi": 64,
      "hit": false,
      "t": 407562.50000000163,
      "d": 45.83333333337214,
      "v": 116
    },
    {
      "midi": 88,
      "hit": false,
      "t": 407645.833333335,
      "d": 33.33333333337214,
      "v": 104
    },
    {
      "midi": 76,
      "hit": false,
      "t": 407650.0000000017,
      "d": 41.66666666668607,
      "v": 100
    },
    {
      "midi": 59,
      "hit": false,
      "t": 407720.833333335,
      "d": 75,
      "v": 122
    },
    {
      "midi": 47,
      "hit": false,
      "t": 407729.1666666683,
      "d": 62.5,
      "v": 118
    },
    {
      "midi": 71,
      "hit": false,
      "t": 407800.0000000017,
      "d": 54.16666666668607,
      "v": 96
    },
    {
      "midi": 83,
      "hit": false,
      "t": 407800.0000000017,
      "d": 95.83333333337214,
      "v": 100
    },
    {
      "midi": 48,
      "hit": false,
      "t": 407920.83333333506,
      "d": 58.33333333337214,
      "v": 116
    },
    {
      "midi": 60,
      "hit": false,
      "t": 407925.00000000175,
      "d": 79.16666666674428,
      "v": 123
    },
    {
      "midi": 84,
      "hit": false,
      "t": 408020.8333333352,
      "d": 45.83333333331393,
      "v": 95
    },
    {
      "midi": 72,
      "hit": false,
      "t": 408025.00000000186,
      "d": 20.83333333331393,
      "v": 75
    },
    {
      "midi": 54,
      "hit": false,
      "t": 408145.8333333352,
      "d": 108.33333333331393,
      "v": 115
    },
    {
      "midi": 66,
      "hit": false,
      "t": 408145.8333333352,
      "d": 125,
      "v": 127
    },
    {
      "midi": 90,
      "hit": false,
      "t": 408229.1666666685,
      "d": 87.50000000005821,
      "v": 96
    },
    {
      "midi": 78,
      "hit": false,
      "t": 408233.3333333352,
      "d": 50,
      "v": 106
    },
    {
      "midi": 55,
      "hit": false,
      "t": 408325.00000000186,
      "d": 74.99999999994179,
      "v": 109
    },
    {
      "midi": 67,
      "hit": false,
      "t": 408333.3333333352,
      "d": 45.83333333331393,
      "v": 115
    },
    {
      "midi": 91,
      "hit": false,
      "t": 408420.8333333351,
      "d": 37.5,
      "v": 100
    },
    {
      "midi": 79,
      "hit": false,
      "t": 408429.16666666843,
      "d": 29.16666666668607,
      "v": 79
    },
    {
      "midi": 51,
      "hit": false,
      "t": 408512.5000000018,
      "d": 91.66666666668607,
      "v": 122
    },
    {
      "midi": 63,
      "hit": false,
      "t": 408512.5000000018,
      "d": 100,
      "v": 126
    },
    {
      "midi": 87,
      "hit": false,
      "t": 408587.5000000018,
      "d": 83.33333333337214,
      "v": 99
    },
    {
      "midi": 75,
      "hit": false,
      "t": 408591.6666666685,
      "d": 62.5,
      "v": 103
    },
    {
      "midi": 64,
      "hit": false,
      "t": 408687.50000000186,
      "d": 41.66666666668607,
      "v": 122
    },
    {
      "midi": 52,
      "hit": false,
      "t": 408687.50000000186,
      "d": 54.16666666668607,
      "v": 106
    },
    {
      "midi": 88,
      "hit": false,
      "t": 408754.16666666855,
      "d": 45.83333333331393,
      "v": 101
    },
    {
      "midi": 76,
      "hit": false,
      "t": 408762.50000000186,
      "d": 33.33333333331393,
      "v": 97
    },
    {
      "midi": 58,
      "hit": false,
      "t": 408858.3333333352,
      "d": 100,
      "v": 122
    },
    {
      "midi": 46,
      "hit": false,
      "t": 408862.50000000186,
      "d": 83.33333333331393,
      "v": 121
    },
    {
      "midi": 70,
      "hit": false,
      "t": 408937.50000000186,
      "d": 66.66666666662786,
      "v": 103
    },
    {
      "midi": 82,
      "hit": false,
      "t": 408937.50000000186,
      "d": 83.33333333331393,
      "v": 104
    },
    {
      "midi": 47,
      "hit": false,
      "t": 409050.00000000186,
      "d": 58.33333333337214,
      "v": 116
    },
    {
      "midi": 59,
      "hit": false,
      "t": 409054.16666666855,
      "d": 70.83333333337214,
      "v": 126
    },
    {
      "midi": 83,
      "hit": false,
      "t": 409137.5000000019,
      "d": 70.83333333331393,
      "v": 100
    },
    {
      "midi": 71,
      "hit": false,
      "t": 409150.0000000019,
      "d": 37.5,
      "v": 99
    },
    {
      "midi": 54,
      "hit": false,
      "t": 409279.16666666855,
      "d": 150,
      "v": 116
    },
    {
      "midi": 66,
      "hit": false,
      "t": 409283.33333333523,
      "d": 154.16666666662786,
      "v": 127
    },
    {
      "midi": 78,
      "hit": false,
      "t": 409383.33333333523,
      "d": 62.49999999994179,
      "v": 106
    },
    {
      "midi": 90,
      "hit": false,
      "t": 409383.33333333523,
      "d": 74.99999999994179,
      "v": 100
    },
    {
      "midi": 55,
      "hit": false,
      "t": 409483.3333333352,
      "d": 58.33333333331393,
      "v": 112
    },
    {
      "midi": 67,
      "hit": false,
      "t": 409483.3333333352,
      "d": 58.33333333331393,
      "v": 119
    },
    {
      "midi": 91,
      "hit": false,
      "t": 409562.5000000018,
      "d": 41.66666666662786,
      "v": 95
    },
    {
      "midi": 79,
      "hit": false,
      "t": 409570.8333333351,
      "d": 33.33333333331393,
      "v": 90
    },
    {
      "midi": 51,
      "hit": false,
      "t": 409658.33333333506,
      "d": 95.83333333331393,
      "v": 119
    },
    {
      "midi": 63,
      "hit": false,
      "t": 409658.33333333506,
      "d": 112.5,
      "v": 126
    },
    {
      "midi": 87,
      "hit": false,
      "t": 409729.1666666684,
      "d": 87.5,
      "v": 100
    },
    {
      "midi": 75,
      "hit": false,
      "t": 409741.6666666684,
      "d": 50,
      "v": 104
    },
    {
      "midi": 64,
      "hit": false,
      "t": 409820.83333333506,
      "d": 41.66666666668607,
      "v": 121
    },
    {
      "midi": 52,
      "hit": false,
      "t": 409837.50000000175,
      "d": 45.83333333337214,
      "v": 100
    },
    {
      "midi": 88,
      "hit": false,
      "t": 409900.0000000018,
      "d": 41.66666666668607,
      "v": 100
    },
    {
      "midi": 76,
      "hit": false,
      "t": 409904.1666666685,
      "d": 54.16666666668607,
      "v": 97
    },
    {
      "midi": 45,
      "hit": false,
      "t": 409991.66666666855,
      "d": 54.16666666668607,
      "v": 116
    },
    {
      "midi": 57,
      "hit": false,
      "t": 409991.66666666855,
      "d": 58.33333333337214,
      "v": 123
    },
    {
      "midi": 69,
      "hit": false,
      "t": 410066.6666666686,
      "d": 29.16666666668607,
      "v": 82
    },
    {
      "midi": 81,
      "hit": false,
      "t": 410066.6666666686,
      "d": 66.66666666668607,
      "v": 101
    },
    {
      "midi": 46,
      "hit": false,
      "t": 410187.500000002,
      "d": 50,
      "v": 118
    },
    {
      "midi": 58,
      "hit": false,
      "t": 410187.500000002,
      "d": 66.66666666668607,
      "v": 127
    },
    {
      "midi": 70,
      "hit": false,
      "t": 410279.16666666867,
      "d": 33.33333333331393,
      "v": 106
    },
    {
      "midi": 82,
      "hit": false,
      "t": 410279.16666666867,
      "d": 45.83333333331393,
      "v": 101
    },
    {
      "midi": 54,
      "hit": false,
      "t": 410425.000000002,
      "d": 125,
      "v": 113
    },
    {
      "midi": 66,
      "hit": false,
      "t": 410437.500000002,
      "d": 116.66666666668607,
      "v": 116
    },
    {
      "midi": 78,
      "hit": false,
      "t": 410508.3333333353,
      "d": 54.16666666668607,
      "v": 94
    },
    {
      "midi": 90,
      "hit": false,
      "t": 410508.3333333353,
      "d": 83.33333333337214,
      "v": 93
    },
    {
      "midi": 55,
      "hit": false,
      "t": 410612.50000000204,
      "d": 66.66666666668607,
      "v": 113
    },
    {
      "midi": 67,
      "hit": false,
      "t": 410616.6666666687,
      "d": 50,
      "v": 115
    },
    {
      "midi": 91,
      "hit": false,
      "t": 410695.8333333354,
      "d": 54.16666666668607,
      "v": 104
    },
    {
      "midi": 79,
      "hit": false,
      "t": 410708.3333333354,
      "d": 41.66666666668607,
      "v": 86
    },
    {
      "midi": 51,
      "hit": false,
      "t": 410800.0000000021,
      "d": 100,
      "v": 113
    },
    {
      "midi": 63,
      "hit": false,
      "t": 410800.0000000021,
      "d": 104.16666666668607,
      "v": 127
    },
    {
      "midi": 87,
      "hit": false,
      "t": 410887.5000000021,
      "d": 75,
      "v": 88
    },
    {
      "midi": 75,
      "hit": false,
      "t": 410900.0000000021,
      "d": 41.66666666668607,
      "v": 83
    },
    {
      "midi": 64,
      "hit": false,
      "t": 410970.83333333547,
      "d": 62.5,
      "v": 122
    },
    {
      "midi": 52,
      "hit": false,
      "t": 410979.1666666688,
      "d": 70.83333333337214,
      "v": 99
    },
    {
      "midi": 88,
      "hit": false,
      "t": 411062.50000000215,
      "d": 50,
      "v": 104
    },
    {
      "midi": 76,
      "hit": false,
      "t": 411070.83333333547,
      "d": 41.66666666668607,
      "v": 101
    },
    {
      "midi": 46,
      "hit": false,
      "t": 411195.8333333355,
      "d": 116.66666666674428,
      "v": 112
    },
    {
      "midi": 58,
      "hit": false,
      "t": 411195.8333333355,
      "d": 120.83333333343035,
      "v": 127
    },
    {
      "midi": 70,
      "hit": false,
      "t": 411283.3333333356,
      "d": 70.83333333337214,
      "v": 117
    },
    {
      "midi": 82,
      "hit": false,
      "t": 411283.3333333356,
      "d": 83.33333333337214,
      "v": 104
    },
    {
      "midi": 47,
      "hit": false,
      "t": 411416.66666666896,
      "d": 70.83333333331393,
      "v": 113
    },
    {
      "midi": 59,
      "hit": false,
      "t": 411416.66666666896,
      "d": 83.33333333331393,
      "v": 123
    },
    {
      "midi": 83,
      "hit": false,
      "t": 411504.16666666896,
      "d": 70.83333333331393,
      "v": 103
    },
    {
      "midi": 71,
      "hit": false,
      "t": 411508.33333333564,
      "d": 45.83333333331393,
      "v": 104
    },
    {
      "midi": 58,
      "hit": false,
      "t": 411695.83333333564,
      "d": 220.83333333337214,
      "v": 113
    },
    {
      "midi": 70,
      "hit": false,
      "t": 411700.0000000023,
      "d": 208.33333333337214,
      "v": 127
    },
    {
      "midi": 94,
      "hit": false,
      "t": 411841.666666669,
      "d": 137.5,
      "v": 109
    },
    {
      "midi": 82,
      "hit": false,
      "t": 411845.8333333357,
      "d": 91.66666666662786,
      "v": 108
    },
    {
      "midi": 71,
      "hit": false,
      "t": 411945.83333333564,
      "d": 75.00000000005821,
      "v": 122
    },
    {
      "midi": 59,
      "hit": false,
      "t": 411950.0000000023,
      "d": 79.16666666668607,
      "v": 113
    },
    {
      "midi": 95,
      "hit": false,
      "t": 412054.166666669,
      "d": 37.5,
      "v": 110
    },
    {
      "midi": 83,
      "hit": false,
      "t": 412054.166666669,
      "d": 50,
      "v": 100
    },
    {
      "midi": 54,
      "hit": false,
      "t": 412166.666666669,
      "d": 158.33333333337214,
      "v": 115
    },
    {
      "midi": 66,
      "hit": false,
      "t": 412170.8333333357,
      "d": 162.5,
      "v": 122
    },
    {
      "midi": 78,
      "hit": false,
      "t": 412258.3333333357,
      "d": 104.16666666668607,
      "v": 108
    },
    {
      "midi": 90,
      "hit": false,
      "t": 412258.3333333357,
      "d": 129.16666666668607,
      "v": 99
    },
    {
      "midi": 55,
      "hit": false,
      "t": 412362.5000000024,
      "d": 79.16666666674428,
      "v": 109
    },
    {
      "midi": 67,
      "hit": false,
      "t": 412366.6666666691,
      "d": 58.33333333337214,
      "v": 112
    },
    {
      "midi": 91,
      "hit": false,
      "t": 412445.8333333358,
      "d": 45.83333333331393,
      "v": 100
    },
    {
      "midi": 79,
      "hit": false,
      "t": 412458.3333333358,
      "d": 41.66666666662786,
      "v": 90
    },
    {
      "midi": 51,
      "hit": false,
      "t": 412554.16666666913,
      "d": 141.66666666662786,
      "v": 123
    },
    {
      "midi": 63,
      "hit": false,
      "t": 412554.16666666913,
      "d": 145.83333333331393,
      "v": 127
    },
    {
      "midi": 87,
      "hit": false,
      "t": 412629.16666666913,
      "d": 108.33333333337214,
      "v": 95
    },
    {
      "midi": 75,
      "hit": false,
      "t": 412637.50000000244,
      "d": 79.16666666668607,
      "v": 105
    },
    {
      "midi": 64,
      "hit": false,
      "t": 412733.3333333358,
      "d": 50.00000000005821,
      "v": 116
    },
    {
      "midi": 52,
      "hit": false,
      "t": 412737.5000000025,
      "d": 62.50000000005821,
      "v": 100
    },
    {
      "midi": 88,
      "hit": false,
      "t": 412816.66666666925,
      "d": 50,
      "v": 104
    },
    {
      "midi": 76,
      "hit": false,
      "t": 412825.00000000256,
      "d": 50,
      "v": 100
    },
    {
      "midi": 47,
      "hit": false,
      "t": 412900.00000000256,
      "d": 120.83333333337214,
      "v": 115
    },
    {
      "midi": 59,
      "hit": false,
      "t": 412900.00000000256,
      "d": 120.83333333337214,
      "v": 122
    },
    {
      "midi": 83,
      "hit": false,
      "t": 412983.33333333593,
      "d": 83.33333333331393,
      "v": 97
    },
    {
      "midi": 71,
      "hit": false,
      "t": 412987.5000000026,
      "d": 45.83333333331393,
      "v": 100
    },
    {
      "midi": 48,
      "hit": false,
      "t": 413075.00000000256,
      "d": 99.99999999994179,
      "v": 115
    },
    {
      "midi": 60,
      "hit": false,
      "t": 413083.3333333359,
      "d": 75,
      "v": 126
    },
    {
      "midi": 84,
      "hit": false,
      "t": 413166.6666666692,
      "d": 49.99999999994179,
      "v": 101
    },
    {
      "midi": 72,
      "hit": false,
      "t": 413175.0000000025,
      "d": 41.66666666662786,
      "v": 97
    },
    {
      "midi": 46,
      "hit": false,
      "t": 413258.3333333358,
      "d": 137.5,
      "v": 116
    },
    {
      "midi": 58,
      "hit": false,
      "t": 413258.3333333358,
      "d": 141.66666666668607,
      "v": 123
    },
    {
      "midi": 82,
      "hit": false,
      "t": 413341.66666666913,
      "d": 95.83333333337214,
      "v": 106
    },
    {
      "midi": 70,
      "hit": false,
      "t": 413354.16666666913,
      "d": 70.83333333337214,
      "v": 106
    },
    {
      "midi": 59,
      "hit": false,
      "t": 413445.8333333358,
      "d": 54.16666666668607,
      "v": 118
    },
    {
      "midi": 47,
      "hit": false,
      "t": 413445.8333333358,
      "d": 79.16666666668607,
      "v": 112
    },
    {
      "midi": 83,
      "hit": false,
      "t": 413512.5000000025,
      "d": 54.16666666668607,
      "v": 97
    },
    {
      "midi": 71,
      "hit": false,
      "t": 413525.0000000025,
      "d": 41.66666666668607,
      "v": 97
    },
    {
      "midi": 54,
      "hit": false,
      "t": 413612.5000000025,
      "d": 141.66666666668607,
      "v": 126
    },
    {
      "midi": 42,
      "hit": false,
      "t": 413625.0000000025,
      "d": 112.5,
      "v": 116
    },
    {
      "midi": 78,
      "hit": false,
      "t": 413700.0000000025,
      "d": 79.16666666668607,
      "v": 101
    },
    {
      "midi": 66,
      "hit": false,
      "t": 413708.3333333358,
      "d": 62.50000000005821,
      "v": 97
    },
    {
      "midi": 55,
      "hit": false,
      "t": 413795.8333333359,
      "d": 41.66666666668607,
      "v": 121
    },
    {
      "midi": 43,
      "hit": false,
      "t": 413795.8333333359,
      "d": 66.66666666668607,
      "v": 99
    },
    {
      "midi": 79,
      "hit": false,
      "t": 413879.16666666925,
      "d": 37.5,
      "v": 95
    },
    {
      "midi": 67,
      "hit": false,
      "t": 413883.33333333593,
      "d": 37.5,
      "v": 90
    },
    {
      "midi": 39,
      "hit": false,
      "t": 413966.6666666693,
      "d": 120.83333333331393,
      "v": 115
    },
    {
      "midi": 51,
      "hit": false,
      "t": 413966.6666666693,
      "d": 120.83333333331393,
      "v": 127
    },
    {
      "midi": 75,
      "hit": false,
      "t": 414041.6666666693,
      "d": 83.33333333331393,
      "v": 105
    },
    {
      "midi": 63,
      "hit": false,
      "t": 414050.0000000026,
      "d": 66.66666666668607,
      "v": 110
    },
    {
      "midi": 52,
      "hit": false,
      "t": 414129.1666666693,
      "d": 41.66666666668607,
      "v": 112
    },
    {
      "midi": 40,
      "hit": false,
      "t": 414129.1666666693,
      "d": 62.50000000005821,
      "v": 101
    },
    {
      "midi": 76,
      "hit": false,
      "t": 414200.00000000274,
      "d": 41.66666666662786,
      "v": 101
    },
    {
      "midi": 64,
      "hit": false,
      "t": 414208.33333333605,
      "d": 33.33333333331393,
      "v": 104
    },
    {
      "midi": 35,
      "hit": false,
      "t": 414275.0000000027,
      "d": 91.66666666668607,
      "v": 109
    },
    {
      "midi": 47,
      "hit": false,
      "t": 414275.0000000027,
      "d": 108.33333333337214,
      "v": 122
    },
    {
      "midi": 59,
      "hit": false,
      "t": 414362.5000000027,
      "d": 37.50000000005821,
      "v": 97
    },
    {
      "midi": 71,
      "hit": false,
      "t": 414362.5000000027,
      "d": 58.33333333337214,
      "v": 105
    },
    {
      "midi": 36,
      "hit": false,
      "t": 414437.50000000274,
      "d": 70.83333333337214,
      "v": 110
    },
    {
      "midi": 48,
      "hit": false,
      "t": 414445.83333333605,
      "d": 54.16666666668607,
      "v": 121
    },
    {
      "midi": 72,
      "hit": false,
      "t": 414512.5000000028,
      "d": 37.5,
      "v": 104
    },
    {
      "midi": 60,
      "hit": false,
      "t": 414520.8333333361,
      "d": 29.16666666668607,
      "v": 96
    },
    {
      "midi": 34,
      "hit": false,
      "t": 414595.8333333361,
      "d": 100.00000000005821,
      "v": 113
    },
    {
      "midi": 46,
      "hit": false,
      "t": 414595.8333333361,
      "d": 100.00000000005821,
      "v": 127
    },
    {
      "midi": 70,
      "hit": false,
      "t": 414658.33333333617,
      "d": 58.33333333331393,
      "v": 112
    },
    {
      "midi": 58,
      "hit": false,
      "t": 414666.6666666695,
      "d": 50,
      "v": 105
    },
    {
      "midi": 35,
      "hit": false,
      "t": 414758.33333333617,
      "d": 200.00000000011642,
      "v": 118
    },
    {
      "midi": 47,
      "hit": false,
      "t": 414770.83333333617,
      "d": 212.50000000011642,
      "v": 127
    },
    {
      "midi": 71,
      "hit": false,
      "t": 414775.00000000285,
      "d": 225.00000000011642,
      "v": 108
    },
    {
      "midi": 59,
      "hit": false,
      "t": 414779.16666666954,
      "d": 191.66666666674428,
      "v": 122
    },
    {
      "midi": 75,
      "hit": false,
      "t": 415312.50000000297,
      "d": 187.5000000000582,
      "v": 115
    },
    {
      "midi": 47,
      "hit": false,
      "t": 415316.66666666965,
      "d": 187.5000000000582,
      "v": 109
    },
    {
      "midi": 54,
      "hit": false,
      "t": 415320.83333333634,
      "d": 187.5000000000582,
      "v": 121
    },
    {
      "midi": 59,
      "hit": false,
      "t": 415320.83333333634,
      "d": 187.5000000000582,
      "v": 127
    },
    {
      "midi": 51,
      "hit": false,
      "t": 415325.000000003,
      "d": 187.5000000000582,
      "v": 121
    },
    {
      "midi": 66,
      "hit": false,
      "t": 415325.000000003,
      "d": 187.5000000000582,
      "v": 117
    },
    {
      "midi": 69,
      "hit": false,
      "t": 415325.000000003,
      "d": 187.5000000000582,
      "v": 100
    },
    {
      "midi": 71,
      "hit": false,
      "t": 415333.33333333634,
      "d": 187.5000000000582,
      "v": 106
    },
    {
      "midi": 52,
      "hit": false,
      "t": 415737.500000003,
      "d": 187.5,
      "v": 109
    },
    {
      "midi": 76,
      "hit": false,
      "t": 415737.500000003,
      "d": 187.5,
      "v": 113
    },
    {
      "midi": 59,
      "hit": false,
      "t": 415750.000000003,
      "d": 187.5,
      "v": 113
    },
    {
      "midi": 64,
      "hit": false,
      "t": 415750.000000003,
      "d": 187.5,
      "v": 122
    },
    {
      "midi": 55,
      "hit": false,
      "t": 415754.1666666697,
      "d": 187.5,
      "v": 114
    },
    {
      "midi": 67,
      "hit": false,
      "t": 415754.1666666697,
      "d": 187.5,
      "v": 109
    },
    {
      "midi": 71,
      "hit": false,
      "t": 415754.1666666697,
      "d": 187.5,
      "v": 116
    },
    {
      "midi": 78,
      "hit": false,
      "t": 416108.33333333634,
      "d": 187.5000000000582,
      "v": 112
    },
    {
      "midi": 47,
      "hit": false,
      "t": 416112.500000003,
      "d": 187.5000000000582,
      "v": 109
    },
    {
      "midi": 54,
      "hit": false,
      "t": 416112.500000003,
      "d": 187.5000000000582,
      "v": 122
    },
    {
      "midi": 51,
      "hit": false,
      "t": 416116.6666666697,
      "d": 187.5000000000582,
      "v": 122
    },
    {
      "midi": 59,
      "hit": false,
      "t": 416116.6666666697,
      "d": 187.5000000000582,
      "v": 127
    },
    {
      "midi": 69,
      "hit": false,
      "t": 416125.000000003,
      "d": 187.5000000000582,
      "v": 113
    },
    {
      "midi": 75,
      "hit": false,
      "t": 416125.000000003,
      "d": 187.5000000000582,
      "v": 113
    },
    {
      "midi": 71,
      "hit": false,
      "t": 416129.1666666697,
      "d": 187.5000000000582,
      "v": 110
    },
    {
      "midi": 40,
      "hit": false,
      "t": 416466.6666666698,
      "d": 187.5000000000582,
      "v": 105
    },
    {
      "midi": 79,
      "hit": false,
      "t": 416466.6666666698,
      "d": 187.5000000000582,
      "v": 108
    },
    {
      "midi": 43,
      "hit": false,
      "t": 416470.83333333646,
      "d": 187.5000000000582,
      "v": 110
    },
    {
      "midi": 52,
      "hit": false,
      "t": 416470.83333333646,
      "d": 187.5000000000582,
      "v": 122
    },
    {
      "midi": 76,
      "hit": false,
      "t": 416479.1666666698,
      "d": 187.5000000000582,
      "v": 110
    },
    {
      "midi": 47,
      "hit": false,
      "t": 416483.33333333646,
      "d": 187.5000000000582,
      "v": 121
    },
    {
      "midi": 67,
      "hit": false,
      "t": 416483.33333333646,
      "d": 187.5000000000582,
      "v": 113
    },
    {
      "midi": 71,
      "hit": false,
      "t": 416483.33333333646,
      "d": 187.5000000000582,
      "v": 115
    },
    {
      "midi": 39,
      "hit": false,
      "t": 416895.8333333365,
      "d": 250.0000000000582,
      "v": 108
    },
    {
      "midi": 87,
      "hit": false,
      "t": 416895.8333333365,
      "d": 250.0000000000582,
      "v": 115
    },
    {
      "midi": 35,
      "hit": false,
      "t": 416900.0000000032,
      "d": 250.0000000000582,
      "v": 100
    },
    {
      "midi": 42,
      "hit": false,
      "t": 416900.0000000032,
      "d": 250.0000000000582,
      "v": 112
    },
    {
      "midi": 47,
      "hit": false,
      "t": 416900.0000000032,
      "d": 250.0000000000582,
      "v": 127
    },
    {
      "midi": 78,
      "hit": false,
      "t": 416904.1666666699,
      "d": 250.0000000000582,
      "v": 123
    },
    {
      "midi": 81,
      "hit": false,
      "t": 416904.1666666699,
      "d": 250.0000000000582,
      "v": 112
    },
    {
      "midi": 83,
      "hit": false,
      "t": 416904.1666666699,
      "d": 250.0000000000582,
      "v": 112
    },
    {
      "midi": 88,
      "hit": false,
      "t": 417379.1666666699,
      "d": 425.0000000000582,
      "v": 115
    },
    {
      "midi": 40,
      "hit": false,
      "t": 417383.3333333366,
      "d": 316.66666666668607,
      "v": 105
    },
    {
      "midi": 43,
      "hit": false,
      "t": 417383.3333333366,
      "d": 333.33333333337214,
      "v": 109
    },
    {
      "midi": 47,
      "hit": false,
      "t": 417383.3333333366,
      "d": 354.16666666668607,
      "v": 116
    },
    {
      "midi": 52,
      "hit": false,
      "t": 417383.3333333366,
      "d": 379.16666666668607,
      "v": 127
    },
    {
      "midi": 79,
      "hit": false,
      "t": 417395.8333333366,
      "d": 416.66666666668607,
      "v": 118
    },
    {
      "midi": 83,
      "hit": false,
      "t": 417395.8333333366,
      "d": 420.83333333337214,
      "v": 122
    },
    {
      "midi": 52,
      "hit": false,
      "t": 418304.16666666995,
      "d": 54.16666666668607,
      "v": 108
    },
    {
      "midi": 79,
      "hit": false,
      "t": 418312.50000000326,
      "d": 50.00000000005821,
      "v": 114
    },
    {
      "midi": 91,
      "hit": false,
      "t": 418312.50000000326,
      "d": 50.00000000005821,
      "v": 109
    },
    {
      "midi": 59,
      "hit": false,
      "t": 418312.50000000326,
      "d": 66.66666666674428,
      "v": 115
    },
    {
      "midi": 64,
      "hit": false,
      "t": 418316.66666666995,
      "d": 45.83333333337214,
      "v": 113
    },
    {
      "midi": 83,
      "hit": false,
      "t": 418316.66666666995,
      "d": 58.33333333337214,
      "v": 112
    },
    {
      "midi": 88,
      "hit": false,
      "t": 418320.83333333663,
      "d": 62.50000000005821,
      "v": 108
    },
    {
      "midi": 83,
      "hit": false,
      "t": 418408.3333333367,
      "d": 187.5000000000582,
      "v": 110
    },
    {
      "midi": 52,
      "hit": false,
      "t": 418408.3333333367,
      "d": 204.16666666674428,
      "v": 110
    },
    {
      "midi": 91,
      "hit": false,
      "t": 418416.66666667,
      "d": 145.83333333337214,
      "v": 109
    },
    {
      "midi": 59,
      "hit": false,
      "t": 418416.66666667,
      "d": 175.0000000000582,
      "v": 119
    },
    {
      "midi": 64,
      "hit": false,
      "t": 418420.8333333367,
      "d": 150,
      "v": 123
    },
    {
      "midi": 88,
      "hit": false,
      "t": 418420.8333333367,
      "d": 154.16666666668607,
      "v": 109
    },
    {
      "midi": 79,
      "hit": false,
      "t": 418420.8333333367,
      "d": 175.0000000000582,
      "v": 119
    },
    {
      "midi": 52,
      "hit": false,
      "t": 419337.5000000035,
      "d": 66.66666666668607,
      "v": 114
    },
    {
      "midi": 40,
      "hit": false,
      "t": 419337.5000000035,
      "d": 70.83333333337214,
      "v": 103
    },
    {
      "midi": 64,
      "hit": false,
      "t": 419341.6666666702,
      "d": 62.5,
      "v": 113
    },
    {
      "midi": 55,
      "hit": false,
      "t": 419345.83333333686,
      "d": 54.16666666662786,
      "v": 113
    },
    {
      "midi": 59,
      "hit": false,
      "t": 419345.83333333686,
      "d": 54.16666666662786,
      "v": 113
    },
    {
      "midi": 59,
      "hit": false,
      "t": 419445.83333333686,
      "d": 720.8333333333139,
      "v": 122
    },
    {
      "midi": 40,
      "hit": false,
      "t": 419450.00000000355,
      "d": 708.3333333333139,
      "v": 99
    },
    {
      "midi": 64,
      "hit": false,
      "t": 419450.00000000355,
      "d": 708.3333333333139,
      "v": 110
    },
    {
      "midi": 52,
      "hit": false,
      "t": 419450.00000000355,
      "d": 720.8333333333139,
      "v": 127
    },
    {
      "midi": 55,
      "hit": false,
      "t": 419458.33333333686,
      "d": 691.6666666666861,
      "v": 118
    },
    {
      "midi": 118,
      "hit": false,
      "t": 425354.16666667024,
      "d": 404.16666666668607,
      "v": 1
    }
  ]
}