{
  "jsonPath": "Classical/Classical Piano/Jorge Bolet/widmung-op-25-no1.json",
  "path": "Classical\\Classical Piano\\Jorge Bolet\\Widmung_ op 25_ No1.mid",
  "name": "Widmung_ op 25_ No1",
  "difficulty": "Advanced",
  "bpm": 120,
  "notes": [
    {
      "midi": 44,
      "hit": false,
      "t": 2093.75,
      "d": 303.38541666666697,
      "v": 22
    },
    {
      "midi": 51,
      "hit": false,
      "t": 2321.6145833333335,
      "d": 192.70833333333348,
      "v": 46
    },
    {
      "midi": 56,
      "hit": false,
      "t": 2558.5937500000005,
      "d": 160.15625,
      "v": 42
    },
    {
      "midi": 60,
      "hit": false,
      "t": 2765.6250000000005,
      "d": 178.38541666666652,
      "v": 52
    },
    {
      "midi": 63,
      "hit": false,
      "t": 3057.291666666667,
      "d": 54.6875,
      "v": 54
    },
    {
      "midi": 63,
      "hit": false,
      "t": 3196.6145833333335,
      "d": 203.125,
      "v": 43
    },
    {
      "midi": 60,
      "hit": false,
      "t": 3446.6145833333335,
      "d": 79.42708333333348,
      "v": 51
    },
    {
      "midi": 56,
      "hit": false,
      "t": 3626.3020833333335,
      "d": 175.78125,
      "v": 46
    },
    {
      "midi": 51,
      "hit": false,
      "t": 3778.6458333333335,
      "d": 49.479166666666515,
      "v": 56
    },
    {
      "midi": 51,
      "hit": false,
      "t": 3959.6354166666665,
      "d": 102.86458333333348,
      "v": 49
    },
    {
      "midi": 56,
      "hit": false,
      "t": 4134.114583333333,
      "d": 135.41666666666697,
      "v": 52
    },
    {
      "midi": 51,
      "hit": false,
      "t": 4312.5,
      "d": 62.5,
      "v": 63
    },
    {
      "midi": 55,
      "hit": false,
      "t": 4500,
      "d": 46.875,
      "v": 60
    },
    {
      "midi": 44,
      "hit": false,
      "t": 4621.09375,
      "d": 233.07291666666606,
      "v": 50
    },
    {
      "midi": 60,
      "hit": false,
      "t": 4721.354166666666,
      "d": 247.39583333333394,
      "v": 66
    },
    {
      "midi": 51,
      "hit": false,
      "t": 4799.479166666666,
      "d": 221.35416666666697,
      "v": 47
    },
    {
      "midi": 63,
      "hit": false,
      "t": 4962.239583333333,
      "d": 157.55208333333303,
      "v": 75
    },
    {
      "midi": 56,
      "hit": false,
      "t": 4984.375,
      "d": 69.01041666666606,
      "v": 63
    },
    {
      "midi": 68,
      "hit": false,
      "t": 5144.531249999999,
      "d": 82.03125,
      "v": 88
    },
    {
      "midi": 60,
      "hit": false,
      "t": 5153.645833333332,
      "d": 127.60416666666697,
      "v": 56
    },
    {
      "midi": 63,
      "hit": false,
      "t": 5406.249999999999,
      "d": 50.78125,
      "v": 61
    },
    {
      "midi": 72,
      "hit": false,
      "t": 5414.062499999999,
      "d": 49.47916666666697,
      "v": 66
    },
    {
      "midi": 63,
      "hit": false,
      "t": 5524.739583333333,
      "d": 128.90625,
      "v": 62
    },
    {
      "midi": 72,
      "hit": false,
      "t": 5533.854166666666,
      "d": 182.29166666666697,
      "v": 91
    },
    {
      "midi": 68,
      "hit": false,
      "t": 5707.03125,
      "d": 147.13541666666606,
      "v": 83
    },
    {
      "midi": 60,
      "hit": false,
      "t": 5718.75,
      "d": 59.89583333333303,
      "v": 61
    },
    {
      "midi": 63,
      "hit": false,
      "t": 5865.885416666666,
      "d": 55.98958333333394,
      "v": 84
    },
    {
      "midi": 56,
      "hit": false,
      "t": 5884.114583333333,
      "d": 69.01041666666697,
      "v": 35
    },
    {
      "midi": 51,
      "hit": false,
      "t": 6026.041666666667,
      "d": 48.17708333333303,
      "v": 65
    },
    {
      "midi": 60,
      "hit": false,
      "t": 6031.25,
      "d": 57.29166666666697,
      "v": 78
    },
    {
      "midi": 60,
      "hit": false,
      "t": 6208.333333333334,
      "d": 369.79166666666606,
      "v": 46
    },
    {
      "midi": 44,
      "hit": false,
      "t": 6239.583333333334,
      "d": 299.47916666666606,
      "v": 35
    },
    {
      "midi": 51,
      "hit": false,
      "t": 6244.791666666667,
      "d": 109.375,
      "v": 28
    },
    {
      "midi": 56,
      "hit": false,
      "t": 6381.510416666667,
      "d": 67.70833333333303,
      "v": 68
    },
    {
      "midi": 63,
      "hit": false,
      "t": 6421.875,
      "d": 65.10416666666697,
      "v": 58
    },
    {
      "midi": 58,
      "hit": false,
      "t": 6576.822916666667,
      "d": 154.94791666666606,
      "v": 83
    },
    {
      "midi": 51,
      "hit": false,
      "t": 6587.239583333333,
      "d": 58.59375,
      "v": 54
    },
    {
      "midi": 63,
      "hit": false,
      "t": 6769.53125,
      "d": 54.6875,
      "v": 62
    },
    {
      "midi": 55,
      "hit": false,
      "t": 6781.25,
      "d": 65.10416666666697,
      "v": 31
    },
    {
      "midi": 44,
      "hit": false,
      "t": 6884.114583333334,
      "d": 197.91666666666697,
      "v": 36
    },
    {
      "midi": 60,
      "hit": false,
      "t": 6981.770833333334,
      "d": 230.46875,
      "v": 77
    },
    {
      "midi": 51,
      "hit": false,
      "t": 7028.645833333334,
      "d": 208.33333333333303,
      "v": 45
    },
    {
      "midi": 63,
      "hit": false,
      "t": 7207.031250000001,
      "d": 152.3437499999991,
      "v": 62
    },
    {
      "midi": 56,
      "hit": false,
      "t": 7236.979166666667,
      "d": 75.52083333333303,
      "v": 42
    },
    {
      "midi": 68,
      "hit": false,
      "t": 7386.71875,
      "d": 79.42708333333303,
      "v": 79
    },
    {
      "midi": 60,
      "hit": false,
      "t": 7406.25,
      "d": 70.3125,
      "v": 53
    },
    {
      "midi": 72,
      "hit": false,
      "t": 7683.59375,
      "d": 55.98958333333303,
      "v": 56
    },
    {
      "midi": 63,
      "hit": false,
      "t": 7684.895833333333,
      "d": 62.5,
      "v": 28
    },
    {
      "midi": 72,
      "hit": false,
      "t": 7821.614583333333,
      "d": 190.10416666666606,
      "v": 66
    },
    {
      "midi": 63,
      "hit": false,
      "t": 7826.822916666666,
      "d": 67.70833333333303,
      "v": 51
    },
    {
      "midi": 68,
      "hit": false,
      "t": 8024.739583333332,
      "d": 82.03125,
      "v": 61
    },
    {
      "midi": 60,
      "hit": false,
      "t": 8041.666666666665,
      "d": 69.01041666666697,
      "v": 33
    },
    {
      "midi": 63,
      "hit": false,
      "t": 8213.541666666666,
      "d": 72.91666666666606,
      "v": 46
    },
    {
      "midi": 56,
      "hit": false,
      "t": 8229.166666666666,
      "d": 65.10416666666606,
      "v": 39
    },
    {
      "midi": 51,
      "hit": false,
      "t": 8376.302083333332,
      "d": 70.3125,
      "v": 46
    },
    {
      "midi": 60,
      "hit": false,
      "t": 8390.624999999998,
      "d": 58.59375,
      "v": 50
    },
    {
      "midi": 60,
      "hit": false,
      "t": 8582.031249999998,
      "d": 174.47916666666788,
      "v": 34
    },
    {
      "midi": 44,
      "hit": false,
      "t": 8618.489583333332,
      "d": 270.83333333333394,
      "v": 21
    },
    {
      "midi": 51,
      "hit": false,
      "t": 8631.510416666666,
      "d": 76.82291666666606,
      "v": 16
    },
    {
      "midi": 63,
      "hit": false,
      "t": 8807.291666666666,
      "d": 106.77083333333394,
      "v": 32
    },
    {
      "midi": 56,
      "hit": false,
      "t": 8837.239583333332,
      "d": 63.80208333333394,
      "v": 13
    },
    {
      "midi": 51,
      "hit": false,
      "t": 9015.625,
      "d": 96.35416666666788,
      "v": 31
    },
    {
      "midi": 58,
      "hit": false,
      "t": 9020.833333333334,
      "d": 75.52083333333394,
      "v": 65
    },
    {
      "midi": 55,
      "hit": false,
      "t": 9281.250000000002,
      "d": 70.3125,
      "v": 33
    },
    {
      "midi": 63,
      "hit": false,
      "t": 9285.156250000002,
      "d": 69.01041666666606,
      "v": 31
    },
    {
      "midi": 72,
      "hit": false,
      "t": 9656.250000000002,
      "d": 417.96875,
      "v": 94
    },
    {
      "midi": 44,
      "hit": false,
      "t": 9712.239583333336,
      "d": 329.4270833333321,
      "v": 36
    },
    {
      "midi": 51,
      "hit": false,
      "t": 10014.322916666668,
      "d": 272.13541666666606,
      "v": 49
    },
    {
      "midi": 60,
      "hit": false,
      "t": 10046.875000000002,
      "d": 72.91666666666606,
      "v": 21
    },
    {
      "midi": 72,
      "hit": false,
      "t": 10221.354166666668,
      "d": 54.6875,
      "v": 100
    },
    {
      "midi": 63,
      "hit": false,
      "t": 10231.770833333334,
      "d": 67.70833333333394,
      "v": 42
    },
    {
      "midi": 56,
      "hit": false,
      "t": 10247.395833333334,
      "d": 80.72916666666788,
      "v": 40
    },
    {
      "midi": 72,
      "hit": false,
      "t": 10536.458333333336,
      "d": 317.7083333333321,
      "v": 95
    },
    {
      "midi": 63,
      "hit": false,
      "t": 10562.500000000002,
      "d": 88.54166666666606,
      "v": 36
    },
    {
      "midi": 68,
      "hit": false,
      "t": 10574.218750000002,
      "d": 70.3125,
      "v": 33
    },
    {
      "midi": 75,
      "hit": false,
      "t": 10807.291666666668,
      "d": 371.09375,
      "v": 72
    },
    {
      "midi": 60,
      "hit": false,
      "t": 10917.968750000002,
      "d": 157.55208333333212,
      "v": 19
    },
    {
      "midi": 68,
      "hit": false,
      "t": 10920.572916666668,
      "d": 58.59375,
      "v": 9
    },
    {
      "midi": 63,
      "hit": false,
      "t": 11161.458333333334,
      "d": 70.3125,
      "v": 33
    },
    {
      "midi": 56,
      "hit": false,
      "t": 11174.479166666668,
      "d": 79.42708333333212,
      "v": 29
    },
    {
      "midi": 63,
      "hit": false,
      "t": 11419.270833333334,
      "d": 114.58333333333394,
      "v": 26
    },
    {
      "midi": 56,
      "hit": false,
      "t": 11446.614583333334,
      "d": 62.5,
      "v": 41
    },
    {
      "midi": 68,
      "hit": false,
      "t": 11669.270833333334,
      "d": 100.26041666666606,
      "v": 65
    },
    {
      "midi": 51,
      "hit": false,
      "t": 11683.59375,
      "d": 62.5,
      "v": 45
    },
    {
      "midi": 60,
      "hit": false,
      "t": 11694.010416666666,
      "d": 75.52083333333394,
      "v": 40
    },
    {
      "midi": 68,
      "hit": false,
      "t": 11878.90625,
      "d": 492.18750000000364,
      "v": 59
    },
    {
      "midi": 60,
      "hit": false,
      "t": 11928.385416666666,
      "d": 96.35416666666788,
      "v": 30
    },
    {
      "midi": 44,
      "hit": false,
      "t": 11928.385416666666,
      "d": 645.8333333333376,
      "v": 27
    },
    {
      "midi": 51,
      "hit": false,
      "t": 11933.59375,
      "d": 82.03125,
      "v": 26
    },
    {
      "midi": 63,
      "hit": false,
      "t": 12115.885416666668,
      "d": 65.10416666666788,
      "v": 43
    },
    {
      "midi": 56,
      "hit": false,
      "t": 12125.000000000002,
      "d": 125,
      "v": 34
    },
    {
      "midi": 70,
      "hit": false,
      "t": 12316.406250000002,
      "d": 322.9166666666697,
      "v": 71
    },
    {
      "midi": 58,
      "hit": false,
      "t": 12333.333333333336,
      "d": 113.28125000000182,
      "v": 50
    },
    {
      "midi": 51,
      "hit": false,
      "t": 12346.35416666667,
      "d": 80.72916666666788,
      "v": 46
    },
    {
      "midi": 55,
      "hit": false,
      "t": 12583.333333333338,
      "d": 62.5,
      "v": 32
    },
    {
      "midi": 63,
      "hit": false,
      "t": 12588.541666666672,
      "d": 105.46875,
      "v": 27
    },
    {
      "midi": 72,
      "hit": false,
      "t": 12781.250000000005,
      "d": 602.8645833333339,
      "v": 74
    },
    {
      "midi": 44,
      "hit": false,
      "t": 12796.875000000005,
      "d": 177.08333333333394,
      "v": 39
    },
    {
      "midi": 60,
      "hit": false,
      "t": 12802.08333333334,
      "d": 260.41666666666606,
      "v": 50
    },
    {
      "midi": 51,
      "hit": false,
      "t": 12802.08333333334,
      "d": 386.71875,
      "v": 47
    },
    {
      "midi": 63,
      "hit": false,
      "t": 13098.95833333334,
      "d": 78.125,
      "v": 44
    },
    {
      "midi": 56,
      "hit": false,
      "t": 13111.979166666673,
      "d": 87.23958333333212,
      "v": 41
    },
    {
      "midi": 68,
      "hit": false,
      "t": 13343.750000000005,
      "d": 277.34375,
      "v": 54
    },
    {
      "midi": 60,
      "hit": false,
      "t": 13376.30208333334,
      "d": 170.57291666666606,
      "v": 45
    },
    {
      "midi": 63,
      "hit": false,
      "t": 13639.322916666672,
      "d": 54.68750000000182,
      "v": 46
    },
    {
      "midi": 72,
      "hit": false,
      "t": 13644.531250000005,
      "d": 44.27083333333394,
      "v": 70
    },
    {
      "midi": 72,
      "hit": false,
      "t": 13764.322916666673,
      "d": 207.03125000000182,
      "v": 71
    },
    {
      "midi": 63,
      "hit": false,
      "t": 13765.625000000007,
      "d": 148.4375,
      "v": 50
    },
    {
      "midi": 68,
      "hit": false,
      "t": 13962.239583333341,
      "d": 153.64583333333394,
      "v": 65
    },
    {
      "midi": 60,
      "hit": false,
      "t": 13979.166666666675,
      "d": 59.89583333333394,
      "v": 51
    },
    {
      "midi": 63,
      "hit": false,
      "t": 14136.71875000001,
      "d": 109.375,
      "v": 52
    },
    {
      "midi": 56,
      "hit": false,
      "t": 14139.322916666675,
      "d": 157.55208333333394,
      "v": 48
    },
    {
      "midi": 51,
      "hit": false,
      "t": 14299.479166666675,
      "d": 54.6875,
      "v": 56
    },
    {
      "midi": 60,
      "hit": false,
      "t": 14312.50000000001,
      "d": 49.47916666666606,
      "v": 64
    },
    {
      "midi": 44,
      "hit": false,
      "t": 14506.510416666675,
      "d": 214.84375,
      "v": 60
    },
    {
      "midi": 68,
      "hit": false,
      "t": 14515.62500000001,
      "d": 311.19791666666606,
      "v": 94
    },
    {
      "midi": 60,
      "hit": false,
      "t": 14541.666666666675,
      "d": 166.66666666666606,
      "v": 53
    },
    {
      "midi": 51,
      "hit": false,
      "t": 14544.270833333341,
      "d": 87.23958333333394,
      "v": 15
    },
    {
      "midi": 63,
      "hit": false,
      "t": 14744.791666666675,
      "d": 54.6875,
      "v": 68
    },
    {
      "midi": 56,
      "hit": false,
      "t": 14761.71875000001,
      "d": 75.52083333333212,
      "v": 52
    },
    {
      "midi": 68,
      "hit": false,
      "t": 14906.250000000007,
      "d": 170.57291666666606,
      "v": 92
    },
    {
      "midi": 51,
      "hit": false,
      "t": 14924.479166666673,
      "d": 79.42708333333394,
      "v": 56
    },
    {
      "midi": 60,
      "hit": false,
      "t": 14941.406250000007,
      "d": 49.47916666666606,
      "v": 64
    },
    {
      "midi": 68,
      "hit": false,
      "t": 15145.83333333334,
      "d": 91.14583333333212,
      "v": 95
    },
    {
      "midi": 60,
      "hit": false,
      "t": 15171.875000000005,
      "d": 65.10416666666606,
      "v": 56
    },
    {
      "midi": 56,
      "hit": false,
      "t": 15444.010416666672,
      "d": 457.0312499999982,
      "v": 55
    },
    {
      "midi": 49,
      "hit": false,
      "t": 15449.218750000005,
      "d": 300.7812499999982,
      "v": 53
    },
    {
      "midi": 77,
      "hit": false,
      "t": 15526.041666666672,
      "d": 555.9895833333303,
      "v": 105
    },
    {
      "midi": 65,
      "hit": false,
      "t": 15583.333333333338,
      "d": 225.26041666666606,
      "v": 29
    },
    {
      "midi": 68,
      "hit": false,
      "t": 15838.54166666667,
      "d": 85.9375,
      "v": 63
    },
    {
      "midi": 61,
      "hit": false,
      "t": 15854.16666666667,
      "d": 67.70833333333394,
      "v": 55
    },
    {
      "midi": 73,
      "hit": false,
      "t": 16044.270833333336,
      "d": 67.70833333333212,
      "v": 77
    },
    {
      "midi": 65,
      "hit": false,
      "t": 16063.802083333336,
      "d": 144.53124999999818,
      "v": 59
    },
    {
      "midi": 68,
      "hit": false,
      "t": 16312.5,
      "d": 53.38541666666606,
      "v": 57
    },
    {
      "midi": 77,
      "hit": false,
      "t": 16313.802083333334,
      "d": 45.57291666666606,
      "v": 68
    },
    {
      "midi": 77,
      "hit": false,
      "t": 16437.5,
      "d": 674.4791666666679,
      "v": 79
    },
    {
      "midi": 68,
      "hit": false,
      "t": 16441.40625,
      "d": 152.34375,
      "v": 57
    },
    {
      "midi": 65,
      "hit": false,
      "t": 16726.5625,
      "d": 67.70833333333212,
      "v": 31
    },
    {
      "midi": 56,
      "hit": false,
      "t": 16726.5625,
      "d": 95.05208333333212,
      "v": 40
    },
    {
      "midi": 75,
      "hit": false,
      "t": 17001.302083333332,
      "d": 555.9895833333358,
      "v": 86
    },
    {
      "midi": 67,
      "hit": false,
      "t": 17046.875,
      "d": 67.70833333333576,
      "v": 49
    },
    {
      "midi": 65,
      "hit": false,
      "t": 17278.645833333336,
      "d": 80.72916666666788,
      "v": 45
    },
    {
      "midi": 56,
      "hit": false,
      "t": 17286.458333333336,
      "d": 265.625,
      "v": 46
    },
    {
      "midi": 73,
      "hit": false,
      "t": 17458.333333333336,
      "d": 483.0729166666679,
      "v": 83
    },
    {
      "midi": 65,
      "hit": false,
      "t": 17533.854166666668,
      "d": 80.72916666666788,
      "v": 45
    },
    {
      "midi": 56,
      "hit": false,
      "t": 17678.385416666668,
      "d": 243.48958333333576,
      "v": 33
    },
    {
      "midi": 65,
      "hit": false,
      "t": 17744.791666666668,
      "d": 87.23958333333212,
      "v": 26
    },
    {
      "midi": 72,
      "hit": false,
      "t": 17869.791666666668,
      "d": 644.5312500000036,
      "v": 83
    },
    {
      "midi": 63,
      "hit": false,
      "t": 17895.833333333336,
      "d": 213.54166666667152,
      "v": 39
    },
    {
      "midi": 65,
      "hit": false,
      "t": 18088.54166666667,
      "d": 67.70833333333576,
      "v": 46
    },
    {
      "midi": 56,
      "hit": false,
      "t": 18106.77083333334,
      "d": 67.70833333333576,
      "v": 27
    },
    {
      "midi": 49,
      "hit": false,
      "t": 18324.218750000007,
      "d": 1565.1041666666642,
      "v": 32
    },
    {
      "midi": 70,
      "hit": false,
      "t": 18395.83333333334,
      "d": 1378.90625,
      "v": 74
    },
    {
      "midi": 56,
      "hit": false,
      "t": 18479.16666666667,
      "d": 434.8958333333321,
      "v": 29
    },
    {
      "midi": 61,
      "hit": false,
      "t": 18682.29166666667,
      "d": 169.27083333333212,
      "v": 42
    },
    {
      "midi": 64,
      "hit": false,
      "t": 18886.718750000004,
      "d": 182.29166666666788,
      "v": 48
    },
    {
      "midi": 68,
      "hit": false,
      "t": 19207.031250000004,
      "d": 57.29166666666788,
      "v": 55
    },
    {
      "midi": 68,
      "hit": false,
      "t": 19343.750000000004,
      "d": 352.86458333333576,
      "v": 59
    },
    {
      "midi": 64,
      "hit": false,
      "t": 19569.01041666667,
      "d": 768.2291666666679,
      "v": 43
    },
    {
      "midi": 61,
      "hit": false,
      "t": 19759.11458333334,
      "d": 154.94791666666424,
      "v": 36
    },
    {
      "midi": 56,
      "hit": false,
      "t": 19984.375000000004,
      "d": 65.10416666666788,
      "v": 37
    },
    {
      "midi": 70,
      "hit": false,
      "t": 20303.38541666667,
      "d": 600.2604166666679,
      "v": 57
    },
    {
      "midi": 49,
      "hit": false,
      "t": 20319.01041666667,
      "d": 305.98958333333576,
      "v": 26
    },
    {
      "midi": 63,
      "hit": false,
      "t": 20321.61458333334,
      "d": 290.36458333333576,
      "v": 35
    },
    {
      "midi": 55,
      "hit": false,
      "t": 20375.000000000007,
      "d": 490.8854166666679,
      "v": 14
    },
    {
      "midi": 58,
      "hit": false,
      "t": 20609.375000000007,
      "d": 131.51041666666788,
      "v": 51
    },
    {
      "midi": 67,
      "hit": false,
      "t": 20841.145833333343,
      "d": 283.85416666666424,
      "v": 71
    },
    {
      "midi": 63,
      "hit": false,
      "t": 20871.093750000007,
      "d": 80.72916666666424,
      "v": 44
    },
    {
      "midi": 63,
      "hit": false,
      "t": 21087.23958333334,
      "d": 194.01041666666788,
      "v": 66
    },
    {
      "midi": 60,
      "hit": false,
      "t": 21436.197916666675,
      "d": 173.17708333333212,
      "v": 66
    },
    {
      "midi": 68,
      "hit": false,
      "t": 21437.500000000007,
      "d": 636.7187500000036,
      "v": 68
    },
    {
      "midi": 63,
      "hit": false,
      "t": 21444.010416666675,
      "d": 165.36458333333212,
      "v": 44
    },
    {
      "midi": 48,
      "hit": false,
      "t": 21484.375000000007,
      "d": 279.9479166666679,
      "v": 42
    },
    {
      "midi": 56,
      "hit": false,
      "t": 21500.000000000007,
      "d": 231.77083333333212,
      "v": 19
    },
    {
      "midi": 51,
      "hit": false,
      "t": 21751.30208333334,
      "d": 82.03125000000364,
      "v": 47
    },
    {
      "midi": 60,
      "hit": false,
      "t": 21753.906250000007,
      "d": 105.46875000000364,
      "v": 39
    },
    {
      "midi": 56,
      "hit": false,
      "t": 21949.21875000001,
      "d": 82.03125,
      "v": 63
    },
    {
      "midi": 63,
      "hit": false,
      "t": 21957.03125000001,
      "d": 79.42708333333212,
      "v": 52
    },
    {
      "midi": 68,
      "hit": false,
      "t": 22208.333333333343,
      "d": 48.17708333333212,
      "v": 62
    },
    {
      "midi": 60,
      "hit": false,
      "t": 22208.333333333343,
      "d": 61.19791666666424,
      "v": 48
    },
    {
      "midi": 68,
      "hit": false,
      "t": 22337.23958333334,
      "d": 187.5,
      "v": 56
    },
    {
      "midi": 60,
      "hit": false,
      "t": 22348.95833333334,
      "d": 93.75,
      "v": 24
    },
    {
      "midi": 56,
      "hit": false,
      "t": 22520.83333333334,
      "d": 70.3125,
      "v": 55
    },
    {
      "midi": 63,
      "hit": false,
      "t": 22528.64583333334,
      "d": 162.76041666666788,
      "v": 56
    },
    {
      "midi": 51,
      "hit": false,
      "t": 22699.218750000007,
      "d": 89.84374999999636,
      "v": 55
    },
    {
      "midi": 68,
      "hit": false,
      "t": 22703.125000000007,
      "d": 338.54166666666424,
      "v": 90
    },
    {
      "midi": 60,
      "hit": false,
      "t": 22723.95833333334,
      "d": 59.89583333333212,
      "v": 61
    },
    {
      "midi": 56,
      "hit": false,
      "t": 22906.250000000004,
      "d": 59.89583333333576,
      "v": 61
    },
    {
      "midi": 48,
      "hit": false,
      "t": 22912.76041666667,
      "d": 89.84375,
      "v": 55
    },
    {
      "midi": 63,
      "hit": false,
      "t": 23072.91666666667,
      "d": 179.68749999999636,
      "v": 54
    },
    {
      "midi": 73,
      "hit": false,
      "t": 23083.33333333334,
      "d": 518.2291666666606,
      "v": 90
    },
    {
      "midi": 46,
      "hit": false,
      "t": 23087.23958333334,
      "d": 316.4062499999927,
      "v": 76
    },
    {
      "midi": 67,
      "hit": false,
      "t": 23104.16666666667,
      "d": 119.79166666666424,
      "v": 54
    },
    {
      "midi": 61,
      "hit": false,
      "t": 23286.458333333336,
      "d": 79.42708333333212,
      "v": 58
    },
    {
      "midi": 55,
      "hit": false,
      "t": 23307.291666666668,
      "d": 371.09375,
      "v": 52
    },
    {
      "midi": 51,
      "hit": false,
      "t": 23324.21875,
      "d": 70.3125,
      "v": 54
    },
    {
      "midi": 67,
      "hit": false,
      "t": 23539.0625,
      "d": 48.17708333333576,
      "v": 62
    },
    {
      "midi": 63,
      "hit": false,
      "t": 23539.0625,
      "d": 49.47916666666788,
      "v": 57
    },
    {
      "midi": 61,
      "hit": false,
      "t": 23557.291666666668,
      "d": 182.29166666666788,
      "v": 60
    },
    {
      "midi": 73,
      "hit": false,
      "t": 23756.510416666668,
      "d": 125,
      "v": 90
    },
    {
      "midi": 73,
      "hit": false,
      "t": 23981.770833333336,
      "d": 757.8125,
      "v": 68
    },
    {
      "midi": 44,
      "hit": false,
      "t": 23989.583333333336,
      "d": 299.4791666666679,
      "v": 58
    },
    {
      "midi": 61,
      "hit": false,
      "t": 24216.145833333336,
      "d": 70.3125,
      "v": 55
    },
    {
      "midi": 51,
      "hit": false,
      "t": 24259.114583333336,
      "d": 207.03125,
      "v": 44
    },
    {
      "midi": 63,
      "hit": false,
      "t": 24457.031250000004,
      "d": 100.26041666666788,
      "v": 36
    },
    {
      "midi": 55,
      "hit": false,
      "t": 24484.375000000004,
      "d": 93.75,
      "v": 32
    },
    {
      "midi": 67,
      "hit": false,
      "t": 24640.625000000004,
      "d": 243.48958333333212,
      "v": 63
    },
    {
      "midi": 61,
      "hit": false,
      "t": 24656.250000000004,
      "d": 156.25,
      "v": 49
    },
    {
      "midi": 51,
      "hit": false,
      "t": 24671.875000000004,
      "d": 472.65624999999636,
      "v": 17
    },
    {
      "midi": 72,
      "hit": false,
      "t": 24841.145833333336,
      "d": 273.43749999999636,
      "v": 83
    },
    {
      "midi": 56,
      "hit": false,
      "t": 24869.791666666668,
      "d": 177.08333333333212,
      "v": 49
    },
    {
      "midi": 68,
      "hit": false,
      "t": 25041.666666666668,
      "d": 57.29166666666424,
      "v": 58
    },
    {
      "midi": 63,
      "hit": false,
      "t": 25041.666666666668,
      "d": 65.10416666666424,
      "v": 61
    },
    {
      "midi": 72,
      "hit": false,
      "t": 25208.333333333332,
      "d": 303.38541666666424,
      "v": 95
    },
    {
      "midi": 63,
      "hit": false,
      "t": 25234.375,
      "d": 49.47916666666424,
      "v": 65
    },
    {
      "midi": 60,
      "hit": false,
      "t": 25239.583333333332,
      "d": 63.80208333333212,
      "v": 54
    },
    {
      "midi": 56,
      "hit": false,
      "t": 25381.510416666664,
      "d": 57.29166666666788,
      "v": 53
    },
    {
      "midi": 60,
      "hit": false,
      "t": 25389.322916666664,
      "d": 62.5,
      "v": 53
    },
    {
      "midi": 60,
      "hit": false,
      "t": 25553.385416666664,
      "d": 509.1145833333321,
      "v": 38
    },
    {
      "midi": 54,
      "hit": false,
      "t": 25563.802083333332,
      "d": 388.0208333333321,
      "v": 54
    },
    {
      "midi": 68,
      "hit": false,
      "t": 25636.71875,
      "d": 76.82291666666788,
      "v": 58
    },
    {
      "midi": 75,
      "hit": false,
      "t": 25636.71875,
      "d": 739.5833333333321,
      "v": 97
    },
    {
      "midi": 63,
      "hit": false,
      "t": 25859.375,
      "d": 260.41666666666424,
      "v": 71
    },
    {
      "midi": 68,
      "hit": false,
      "t": 26078.124999999996,
      "d": 123.69791666666788,
      "v": 71
    },
    {
      "midi": 68,
      "hit": false,
      "t": 26286.458333333332,
      "d": 140.625,
      "v": 86
    },
    {
      "midi": 61,
      "hit": false,
      "t": 26563.802083333332,
      "d": 290.36458333333576,
      "v": 48
    },
    {
      "midi": 53,
      "hit": false,
      "t": 26571.614583333332,
      "d": 317.70833333333576,
      "v": 51
    },
    {
      "midi": 65,
      "hit": false,
      "t": 26574.21875,
      "d": 87.23958333333212,
      "v": 58
    },
    {
      "midi": 73,
      "hit": false,
      "t": 26582.03125,
      "d": 669.2708333333358,
      "v": 91
    },
    {
      "midi": 68,
      "hit": false,
      "t": 26585.9375,
      "d": 85.9375,
      "v": 72
    },
    {
      "midi": 56,
      "hit": false,
      "t": 26838.541666666668,
      "d": 200.52083333333212,
      "v": 60
    },
    {
      "midi": 65,
      "hit": false,
      "t": 26851.5625,
      "d": 148.4375,
      "v": 72
    },
    {
      "midi": 61,
      "hit": false,
      "t": 27057.291666666668,
      "d": 187.5,
      "v": 61
    },
    {
      "midi": 68,
      "hit": false,
      "t": 27058.59375,
      "d": 154.94791666666788,
      "v": 84
    },
    {
      "midi": 65,
      "hit": false,
      "t": 27312.500000000004,
      "d": 46.875,
      "v": 59
    },
    {
      "midi": 73,
      "hit": false,
      "t": 27316.406250000004,
      "d": 42.96875,
      "v": 86
    },
    {
      "midi": 65,
      "hit": false,
      "t": 27432.29166666667,
      "d": 246.09375,
      "v": 65
    },
    {
      "midi": 73,
      "hit": false,
      "t": 27437.500000000004,
      "d": 312.5,
      "v": 76
    },
    {
      "midi": 68,
      "hit": false,
      "t": 27678.38541666667,
      "d": 235.67708333333576,
      "v": 83
    },
    {
      "midi": 61,
      "hit": false,
      "t": 27687.500000000004,
      "d": 213.54166666666788,
      "v": 66
    },
    {
      "midi": 73,
      "hit": false,
      "t": 27871.093750000004,
      "d": 363.28125,
      "v": 104
    },
    {
      "midi": 56,
      "hit": false,
      "t": 27881.51041666667,
      "d": 201.82291666666788,
      "v": 66
    },
    {
      "midi": 65,
      "hit": false,
      "t": 27903.64583333334,
      "d": 54.6875,
      "v": 78
    },
    {
      "midi": 53,
      "hit": false,
      "t": 28069.01041666667,
      "d": 50.78125,
      "v": 60
    },
    {
      "midi": 68,
      "hit": false,
      "t": 28088.54166666667,
      "d": 114.58333333333212,
      "v": 69
    },
    {
      "midi": 51,
      "hit": false,
      "t": 28236.97916666667,
      "d": 350.2604166666679,
      "v": 76
    },
    {
      "midi": 78,
      "hit": false,
      "t": 28281.250000000004,
      "d": 475.26041666666424,
      "v": 103
    },
    {
      "midi": 68,
      "hit": false,
      "t": 28291.66666666667,
      "d": 50.78125,
      "v": 19
    },
    {
      "midi": 72,
      "hit": false,
      "t": 28296.875000000004,
      "d": 50.78125,
      "v": 23
    },
    {
      "midi": 66,
      "hit": false,
      "t": 28473.95833333334,
      "d": 78.125,
      "v": 76
    },
    {
      "midi": 60,
      "hit": false,
      "t": 28473.95833333334,
      "d": 345.0520833333285,
      "v": 77
    },
    {
      "midi": 56,
      "hit": false,
      "t": 28479.16666666667,
      "d": 597.6562499999964,
      "v": 72
    },
    {
      "midi": 72,
      "hit": false,
      "t": 28713.54166666667,
      "d": 67.70833333332848,
      "v": 91
    },
    {
      "midi": 68,
      "hit": false,
      "t": 28714.843750000004,
      "d": 45.57291666666424,
      "v": 80
    },
    {
      "midi": 66,
      "hit": false,
      "t": 28716.145833333336,
      "d": 174.47916666666424,
      "v": 81
    },
    {
      "midi": 78,
      "hit": false,
      "t": 28963.541666666668,
      "d": 165.36458333333212,
      "v": 104
    },
    {
      "midi": 49,
      "hit": false,
      "t": 29269.53125,
      "d": 321.6145833333321,
      "v": 52
    },
    {
      "midi": 78,
      "hit": false,
      "t": 29278.645833333332,
      "d": 799.4791666666715,
      "v": 100
    },
    {
      "midi": 56,
      "hit": false,
      "t": 29531.25,
      "d": 190.10416666666788,
      "v": 60
    },
    {
      "midi": 66,
      "hit": false,
      "t": 29536.458333333332,
      "d": 104.16666666666788,
      "v": 66
    },
    {
      "midi": 68,
      "hit": false,
      "t": 29770.833333333336,
      "d": 186.19791666666788,
      "v": 59
    },
    {
      "midi": 60,
      "hit": false,
      "t": 29783.854166666668,
      "d": 92.44791666666788,
      "v": 37
    },
    {
      "midi": 72,
      "hit": false,
      "t": 30000.000000000004,
      "d": 187.5,
      "v": 60
    },
    {
      "midi": 66,
      "hit": false,
      "t": 30003.906250000004,
      "d": 178.38541666666788,
      "v": 36
    },
    {
      "midi": 56,
      "hit": false,
      "t": 30062.500000000004,
      "d": 628.9062500000036,
      "v": 13
    },
    {
      "midi": 68,
      "hit": false,
      "t": 30174.47916666667,
      "d": 509.11458333333576,
      "v": 44
    },
    {
      "midi": 73,
      "hit": false,
      "t": 30236.97916666667,
      "d": 486.9791666666679,
      "v": 46
    },
    {
      "midi": 77,
      "hit": false,
      "t": 30384.11458333334,
      "d": 850.2604166666642,
      "v": 75
    },
    {
      "midi": 65,
      "hit": false,
      "t": 30386.718750000007,
      "d": 257.8125,
      "v": 39
    },
    {
      "midi": 61,
      "hit": false,
      "t": 30386.718750000007,
      "d": 300.78125,
      "v": 22
    },
    {
      "midi": 75,
      "hit": false,
      "t": 31069.01041666667,
      "d": 557.2916666666642,
      "v": 61
    },
    {
      "midi": 49,
      "hit": false,
      "t": 31101.562500000004,
      "d": 747.3958333333321,
      "v": 25
    },
    {
      "midi": 57,
      "hit": false,
      "t": 31115.88541666667,
      "d": 529.9479166666642,
      "v": 31
    },
    {
      "midi": 66,
      "hit": false,
      "t": 31324.218750000004,
      "d": 253.90625,
      "v": 46
    },
    {
      "midi": 73,
      "hit": false,
      "t": 31569.01041666667,
      "d": 493.4895833333321,
      "v": 83
    },
    {
      "midi": 58,
      "hit": false,
      "t": 31576.82291666667,
      "d": 451.82291666666424,
      "v": 57
    },
    {
      "midi": 65,
      "hit": false,
      "t": 31812.500000000004,
      "d": 91.14583333333212,
      "v": 55
    },
    {
      "midi": 49,
      "hit": false,
      "t": 31989.583333333336,
      "d": 291.6666666666679,
      "v": 27
    },
    {
      "midi": 72,
      "hit": false,
      "t": 31994.791666666668,
      "d": 696.6145833333358,
      "v": 76
    },
    {
      "midi": 60,
      "hit": false,
      "t": 32020.833333333336,
      "d": 300.78125000000364,
      "v": 41
    },
    {
      "midi": 63,
      "hit": false,
      "t": 32208.333333333336,
      "d": 98.95833333333576,
      "v": 56
    },
    {
      "midi": 49,
      "hit": false,
      "t": 32438.80208333334,
      "d": 1505.2083333333321,
      "v": 34
    },
    {
      "midi": 58,
      "hit": false,
      "t": 32501.30208333334,
      "d": 638.0208333333321,
      "v": 35
    },
    {
      "midi": 70,
      "hit": false,
      "t": 32549.47916666667,
      "d": 1459.6354166666715,
      "v": 73
    },
    {
      "midi": 61,
      "hit": false,
      "t": 32846.35416666667,
      "d": 205.72916666666424,
      "v": 45
    },
    {
      "midi": 64,
      "hit": false,
      "t": 33194.01041666667,
      "d": 114.58333333333576,
      "v": 38
    },
    {
      "midi": 67,
      "hit": false,
      "t": 33553.38541666667,
      "d": 62.5,
      "v": 42
    },
    {
      "midi": 67,
      "hit": false,
      "t": 33729.16666666667,
      "d": 266.92708333333576,
      "v": 45
    },
    {
      "midi": 64,
      "hit": false,
      "t": 34011.71875000001,
      "d": 312.5,
      "v": 36
    },
    {
      "midi": 61,
      "hit": false,
      "t": 34196.61458333334,
      "d": 135.41666666666424,
      "v": 26
    },
    {
      "midi": 70,
      "hit": false,
      "t": 34223.95833333334,
      "d": 557.2916666666642,
      "v": 94
    },
    {
      "midi": 58,
      "hit": false,
      "t": 34428.38541666667,
      "d": 118.48958333333576,
      "v": 55
    },
    {
      "midi": 72,
      "hit": false,
      "t": 34671.87500000001,
      "d": 486.97916666666424,
      "v": 89
    },
    {
      "midi": 55,
      "hit": false,
      "t": 34718.75000000001,
      "d": 307.2916666666715,
      "v": 25
    },
    {
      "midi": 58,
      "hit": false,
      "t": 34901.04166666668,
      "d": 273.4374999999927,
      "v": 51
    },
    {
      "midi": 73,
      "hit": false,
      "t": 35098.95833333334,
      "d": 619.791666666657,
      "v": 78
    },
    {
      "midi": 64,
      "hit": false,
      "t": 35136.71875000001,
      "d": 162.76041666666424,
      "v": 31
    },
    {
      "midi": 67,
      "hit": false,
      "t": 35421.87500000001,
      "d": 78.125,
      "v": 32
    },
    {
      "midi": 56,
      "hit": false,
      "t": 35604.16666666667,
      "d": 911.4583333333285,
      "v": 30
    },
    {
      "midi": 75,
      "hit": false,
      "t": 35611.97916666667,
      "d": 787.7604166666642,
      "v": 59
    },
    {
      "midi": 48,
      "hit": false,
      "t": 35626.302083333336,
      "d": 1404.947916666657,
      "v": 29
    },
    {
      "midi": 60,
      "hit": false,
      "t": 35973.958333333336,
      "d": 447.91666666666424,
      "v": 22
    },
    {
      "midi": 68,
      "hit": false,
      "t": 36296.875,
      "d": 394.53125,
      "v": 59
    },
    {
      "midi": 63,
      "hit": false,
      "t": 36343.75,
      "d": 200.52083333333576,
      "v": 20
    },
    {
      "midi": 66,
      "hit": false,
      "t": 36694.010416666664,
      "d": 59.89583333333576,
      "v": 45
    },
    {
      "midi": 68,
      "hit": false,
      "t": 36826.822916666664,
      "d": 1601.5624999999927,
      "v": 48
    },
    {
      "midi": 66,
      "hit": false,
      "t": 36848.95833333333,
      "d": 84.63541666666424,
      "v": 38
    },
    {
      "midi": 63,
      "hit": false,
      "t": 37062.49999999999,
      "d": 83.33333333333576,
      "v": 36
    },
    {
      "midi": 60,
      "hit": false,
      "t": 37274.73958333333,
      "d": 171.875,
      "v": 30
    },
    {
      "midi": 56,
      "hit": false,
      "t": 37490.885416666664,
      "d": 61.19791666666424,
      "v": 42
    },
    {
      "midi": 49,
      "hit": false,
      "t": 37729.166666666664,
      "d": 358.07291666666424,
      "v": 33
    },
    {
      "midi": 65,
      "hit": false,
      "t": 37739.58333333333,
      "d": 322.91666666666424,
      "v": 37
    },
    {
      "midi": 61,
      "hit": false,
      "t": 37986.97916666666,
      "d": 62.5,
      "v": 41
    },
    {
      "midi": 56,
      "hit": false,
      "t": 37999.99999999999,
      "d": 114.58333333333576,
      "v": 36
    },
    {
      "midi": 46,
      "hit": false,
      "t": 38333.33333333333,
      "d": 350.26041666665697,
      "v": 56
    },
    {
      "midi": 73,
      "hit": false,
      "t": 38351.56249999999,
      "d": 611.979166666657,
      "v": 76
    },
    {
      "midi": 64,
      "hit": false,
      "t": 38390.62499999999,
      "d": 341.1458333333285,
      "v": 30
    },
    {
      "midi": 61,
      "hit": false,
      "t": 38634.11458333332,
      "d": 69.01041666666424,
      "v": 48
    },
    {
      "midi": 68,
      "hit": false,
      "t": 38653.64583333332,
      "d": 303.38541666666424,
      "v": 37
    },
    {
      "midi": 51,
      "hit": false,
      "t": 38914.062499999985,
      "d": 667.9687499999927,
      "v": 44
    },
    {
      "midi": 56,
      "hit": false,
      "t": 38916.66666666665,
      "d": 545.5729166666642,
      "v": 30
    },
    {
      "midi": 72,
      "hit": false,
      "t": 38924.47916666665,
      "d": 312.4999999999927,
      "v": 84
    },
    {
      "midi": 60,
      "hit": false,
      "t": 39203.12499999998,
      "d": 158.85416666666424,
      "v": 57
    },
    {
      "midi": 72,
      "hit": false,
      "t": 39414.06249999998,
      "d": 268.2291666666715,
      "v": 90
    },
    {
      "midi": 63,
      "hit": false,
      "t": 39427.083333333314,
      "d": 236.97916666666424,
      "v": 47
    },
    {
      "midi": 68,
      "hit": false,
      "t": 39669.270833333314,
      "d": 367.1875000000073,
      "v": 53
    },
    {
      "midi": 39,
      "hit": false,
      "t": 39944.01041666665,
      "d": 326.8229166666715,
      "v": 39
    },
    {
      "midi": 72,
      "hit": false,
      "t": 40015.624999999985,
      "d": 526.0416666666715,
      "v": 70
    },
    {
      "midi": 70,
      "hit": false,
      "t": 40479.16666666666,
      "d": 1527.3437500000073,
      "v": 65
    },
    {
      "midi": 56,
      "hit": false,
      "t": 40511.71874999999,
      "d": 1113.2812500000073,
      "v": 31
    },
    {
      "midi": 61,
      "hit": false,
      "t": 40828.12499999999,
      "d": 208.33333333333576,
      "v": 44
    },
    {
      "midi": 63,
      "hit": false,
      "t": 41191.40624999999,
      "d": 54.6875,
      "v": 48
    },
    {
      "midi": 63,
      "hit": false,
      "t": 41321.61458333333,
      "d": 204.42708333333576,
      "v": 59
    },
    {
      "midi": 61,
      "hit": false,
      "t": 41562.5,
      "d": 223.95833333333576,
      "v": 50
    },
    {
      "midi": 55,
      "hit": false,
      "t": 41843.75,
      "d": 468.75,
      "v": 23
    },
    {
      "midi": 72,
      "hit": false,
      "t": 41894.53125,
      "d": 837.2395833333285,
      "v": 59
    },
    {
      "midi": 51,
      "hit": false,
      "t": 42208.33333333333,
      "d": 83.33333333333576,
      "v": 29
    },
    {
      "midi": 44,
      "hit": false,
      "t": 42494.791666666664,
      "d": 1516.9270833333285,
      "v": 32
    },
    {
      "midi": 68,
      "hit": false,
      "t": 42664.0625,
      "d": 2299.4791666666642,
      "v": 47
    },
    {
      "midi": 51,
      "hit": false,
      "t": 42678.385416666664,
      "d": 898.4375,
      "v": 37
    },
    {
      "midi": 56,
      "hit": false,
      "t": 43006.510416666664,
      "d": 334.6354166666715,
      "v": 34
    },
    {
      "midi": 60,
      "hit": false,
      "t": 43278.645833333336,
      "d": 217.44791666666424,
      "v": 36
    },
    {
      "midi": 63,
      "hit": false,
      "t": 43583.33333333333,
      "d": 53.38541666666424,
      "v": 55
    },
    {
      "midi": 63,
      "hit": false,
      "t": 43708.33333333333,
      "d": 355.46875,
      "v": 61
    },
    {
      "midi": 60,
      "hit": false,
      "t": 43914.06249999999,
      "d": 242.1875,
      "v": 57
    },
    {
      "midi": 56,
      "hit": false,
      "t": 44071.61458333333,
      "d": 173.17708333332848,
      "v": 57
    },
    {
      "midi": 51,
      "hit": false,
      "t": 44276.04166666666,
      "d": 52.08333333333576,
      "v": 65
    },
    {
      "midi": 51,
      "hit": false,
      "t": 44449.21874999999,
      "d": 195.3125,
      "v": 42
    },
    {
      "midi": 44,
      "hit": false,
      "t": 44473.95833333333,
      "d": 135.41666666666424,
      "v": 40
    },
    {
      "midi": 56,
      "hit": false,
      "t": 44682.29166666666,
      "d": 134.11458333333576,
      "v": 55
    },
    {
      "midi": 60,
      "hit": false,
      "t": 44851.56249999999,
      "d": 152.34375000000728,
      "v": 53
    },
    {
      "midi": 44,
      "hit": false,
      "t": 44962.23958333333,
      "d": 53.38541666667152,
      "v": 48
    },
    {
      "midi": 63,
      "hit": false,
      "t": 45020.833333333336,
      "d": 45.57291666666424,
      "v": 62
    },
    {
      "midi": 51,
      "hit": false,
      "t": 45096.354166666664,
      "d": 179.6875,
      "v": 50
    },
    {
      "midi": 56,
      "hit": false,
      "t": 45244.791666666664,
      "d": 136.71875,
      "v": 61
    },
    {
      "midi": 72,
      "hit": false,
      "t": 45259.11458333333,
      "d": 369.7916666666715,
      "v": 70
    },
    {
      "midi": 63,
      "hit": false,
      "t": 45276.041666666664,
      "d": 148.4375,
      "v": 36
    },
    {
      "midi": 60,
      "hit": false,
      "t": 45381.510416666664,
      "d": 412.7604166666715,
      "v": 97
    },
    {
      "midi": 75,
      "hit": false,
      "t": 45644.53125,
      "d": 79.42708333333576,
      "v": 53
    },
    {
      "midi": 68,
      "hit": false,
      "t": 45645.833333333336,
      "d": 57.29166666666424,
      "v": 48
    },
    {
      "midi": 60,
      "hit": false,
      "t": 45881.51041666667,
      "d": 149.73958333333576,
      "v": 83
    },
    {
      "midi": 72,
      "hit": false,
      "t": 45886.71875000001,
      "d": 54.6875,
      "v": 79
    },
    {
      "midi": 80,
      "hit": false,
      "t": 45889.32291666667,
      "d": 154.94791666667152,
      "v": 66
    },
    {
      "midi": 60,
      "hit": false,
      "t": 46109.37500000001,
      "d": 104.16666666666424,
      "v": 90
    },
    {
      "midi": 84,
      "hit": false,
      "t": 46174.47916666667,
      "d": 59.89583333332848,
      "v": 39
    },
    {
      "midi": 75,
      "hit": false,
      "t": 46177.083333333336,
      "d": 46.875,
      "v": 37
    },
    {
      "midi": 84,
      "hit": false,
      "t": 46276.041666666664,
      "d": 127.60416666667152,
      "v": 44
    },
    {
      "midi": 75,
      "hit": false,
      "t": 46281.25,
      "d": 161.45833333333576,
      "v": 37
    },
    {
      "midi": 63,
      "hit": false,
      "t": 46313.802083333336,
      "d": 248.69791666667152,
      "v": 99
    },
    {
      "midi": 80,
      "hit": false,
      "t": 46505.208333333336,
      "d": 62.500000000007276,
      "v": 54
    },
    {
      "midi": 72,
      "hit": false,
      "t": 46514.32291666667,
      "d": 44.27083333333576,
      "v": 72
    },
    {
      "midi": 75,
      "hit": false,
      "t": 46682.29166666668,
      "d": 109.375,
      "v": 68
    },
    {
      "midi": 68,
      "hit": false,
      "t": 46701.82291666668,
      "d": 63.80208333333576,
      "v": 56
    },
    {
      "midi": 56,
      "hit": false,
      "t": 46859.375000000015,
      "d": 93.75,
      "v": 84
    },
    {
      "midi": 63,
      "hit": false,
      "t": 46861.97916666668,
      "d": 44.27083333333576,
      "v": 69
    },
    {
      "midi": 72,
      "hit": false,
      "t": 46881.51041666668,
      "d": 57.29166666667152,
      "v": 55
    },
    {
      "midi": 72,
      "hit": false,
      "t": 47033.85416666668,
      "d": 140.625,
      "v": 61
    },
    {
      "midi": 63,
      "hit": false,
      "t": 47044.27083333334,
      "d": 89.84375,
      "v": 47
    },
    {
      "midi": 56,
      "hit": false,
      "t": 47069.01041666668,
      "d": 269.5312500000073,
      "v": 81
    },
    {
      "midi": 51,
      "hit": false,
      "t": 47091.14583333334,
      "d": 67.70833333333576,
      "v": 63
    },
    {
      "midi": 44,
      "hit": false,
      "t": 47104.16666666668,
      "d": 109.375,
      "v": 54
    },
    {
      "midi": 75,
      "hit": false,
      "t": 47261.718750000015,
      "d": 75.52083333333576,
      "v": 55
    },
    {
      "midi": 68,
      "hit": false,
      "t": 47270.83333333335,
      "d": 55.98958333333576,
      "v": 49
    },
    {
      "midi": 51,
      "hit": false,
      "t": 47416.666666666686,
      "d": 252.60416666666424,
      "v": 9
    },
    {
      "midi": 63,
      "hit": false,
      "t": 47441.40625000002,
      "d": 132.81249999999272,
      "v": 63
    },
    {
      "midi": 70,
      "hit": false,
      "t": 47453.12500000002,
      "d": 230.46874999999272,
      "v": 64
    },
    {
      "midi": 58,
      "hit": false,
      "t": 47457.03125000002,
      "d": 147.13541666666424,
      "v": 100
    },
    {
      "midi": 55,
      "hit": false,
      "t": 47481.77083333335,
      "d": 57.29166666666424,
      "v": 49
    },
    {
      "midi": 75,
      "hit": false,
      "t": 47677.08333333335,
      "d": 177.08333333333576,
      "v": 49
    },
    {
      "midi": 44,
      "hit": false,
      "t": 47687.500000000015,
      "d": 41.66666666667152,
      "v": 64
    },
    {
      "midi": 67,
      "hit": false,
      "t": 47696.61458333335,
      "d": 62.5,
      "v": 40
    },
    {
      "midi": 51,
      "hit": false,
      "t": 47751.30208333335,
      "d": 2089.8437499999927,
      "v": 55
    },
    {
      "midi": 56,
      "hit": false,
      "t": 47903.64583333335,
      "d": 1283.854166666657,
      "v": 53
    },
    {
      "midi": 63,
      "hit": false,
      "t": 47924.479166666686,
      "d": 274.73958333333576,
      "v": 52
    },
    {
      "midi": 72,
      "hit": false,
      "t": 47937.50000000002,
      "d": 240.88541666666424,
      "v": 59
    },
    {
      "midi": 60,
      "hit": false,
      "t": 47994.791666666686,
      "d": 1967.447916666657,
      "v": 99
    },
    {
      "midi": 75,
      "hit": false,
      "t": 48213.541666666686,
      "d": 61.19791666667152,
      "v": 72
    },
    {
      "midi": 68,
      "hit": false,
      "t": 48226.56250000002,
      "d": 48.17708333333576,
      "v": 61
    },
    {
      "midi": 80,
      "hit": false,
      "t": 48411.45833333336,
      "d": 84.63541666666424,
      "v": 90
    },
    {
      "midi": 72,
      "hit": false,
      "t": 48438.80208333336,
      "d": 57.29166666666424,
      "v": 56
    },
    {
      "midi": 84,
      "hit": false,
      "t": 48649.73958333336,
      "d": 32.55208333332848,
      "v": 87
    },
    {
      "midi": 75,
      "hit": false,
      "t": 48656.25000000002,
      "d": 50.78125,
      "v": 67
    },
    {
      "midi": 84,
      "hit": false,
      "t": 48764.322916666686,
      "d": 152.34374999999272,
      "v": 68
    },
    {
      "midi": 75,
      "hit": false,
      "t": 48778.64583333335,
      "d": 80.72916666666424,
      "v": 61
    },
    {
      "midi": 80,
      "hit": false,
      "t": 48958.33333333334,
      "d": 41.66666666666424,
      "v": 75
    },
    {
      "midi": 72,
      "hit": false,
      "t": 48973.95833333334,
      "d": 52.08333333332848,
      "v": 69
    },
    {
      "midi": 75,
      "hit": false,
      "t": 49191.40625000001,
      "d": 59.89583333333576,
      "v": 70
    },
    {
      "midi": 68,
      "hit": false,
      "t": 49196.61458333334,
      "d": 54.6875,
      "v": 63
    },
    {
      "midi": 63,
      "hit": false,
      "t": 49364.58333333334,
      "d": 44.27083333332848,
      "v": 76
    },
    {
      "midi": 72,
      "hit": false,
      "t": 49386.71875000001,
      "d": 50.78125,
      "v": 67
    },
    {
      "midi": 56,
      "hit": false,
      "t": 49533.85416666667,
      "d": 273.4375,
      "v": 99
    },
    {
      "midi": 72,
      "hit": false,
      "t": 49546.87500000001,
      "d": 119.79166666666424,
      "v": 58
    },
    {
      "midi": 63,
      "hit": false,
      "t": 49558.59375000001,
      "d": 92.44791666666424,
      "v": 53
    },
    {
      "midi": 68,
      "hit": false,
      "t": 49736.97916666667,
      "d": 52.08333333333576,
      "v": 59
    },
    {
      "midi": 75,
      "hit": false,
      "t": 49736.97916666667,
      "d": 71.61458333333576,
      "v": 73
    },
    {
      "midi": 68,
      "hit": false,
      "t": 49895.83333333334,
      "d": 70.3125,
      "v": 58
    },
    {
      "midi": 56,
      "hit": false,
      "t": 49903.64583333334,
      "d": 100.26041666666424,
      "v": 81
    },
    {
      "midi": 75,
      "hit": false,
      "t": 49906.25000000001,
      "d": 190.10416666666424,
      "v": 71
    },
    {
      "midi": 56,
      "hit": false,
      "t": 50106.770833333336,
      "d": 255.20833333332848,
      "v": 83
    },
    {
      "midi": 80,
      "hit": false,
      "t": 50106.770833333336,
      "d": 320.3124999999927,
      "v": 83
    },
    {
      "midi": 72,
      "hit": false,
      "t": 50114.583333333336,
      "d": 93.75,
      "v": 87
    },
    {
      "midi": 49,
      "hit": false,
      "t": 50286.458333333336,
      "d": 45.57291666666424,
      "v": 81
    },
    {
      "midi": 68,
      "hit": false,
      "t": 50416.666666666664,
      "d": 117.1875,
      "v": 70
    },
    {
      "midi": 77,
      "hit": false,
      "t": 50416.666666666664,
      "d": 233.07291666666424,
      "v": 81
    },
    {
      "midi": 65,
      "hit": false,
      "t": 50481.77083333333,
      "d": 1179.6875,
      "v": 111
    },
    {
      "midi": 80,
      "hit": false,
      "t": 50703.12499999999,
      "d": 46.875,
      "v": 79
    },
    {
      "midi": 73,
      "hit": false,
      "t": 50712.23958333333,
      "d": 57.29166666666424,
      "v": 56
    },
    {
      "midi": 85,
      "hit": false,
      "t": 50876.30208333333,
      "d": 85.9375,
      "v": 96
    },
    {
      "midi": 77,
      "hit": false,
      "t": 50889.322916666664,
      "d": 39.0625,
      "v": 87
    },
    {
      "midi": 89,
      "hit": false,
      "t": 51115.885416666664,
      "d": 37.76041666666424,
      "v": 87
    },
    {
      "midi": 80,
      "hit": false,
      "t": 51115.885416666664,
      "d": 48.17708333332848,
      "v": 89
    },
    {
      "midi": 89,
      "hit": false,
      "t": 51223.95833333333,
      "d": 213.54166666666424,
      "v": 95
    },
    {
      "midi": 80,
      "hit": false,
      "t": 51231.77083333333,
      "d": 144.53125,
      "v": 55
    },
    {
      "midi": 77,
      "hit": false,
      "t": 51433.59374999999,
      "d": 50.78125,
      "v": 87
    },
    {
      "midi": 85,
      "hit": false,
      "t": 51437.49999999999,
      "d": 36.45833333333576,
      "v": 79
    },
    {
      "midi": 75,
      "hit": false,
      "t": 51707.03124999999,
      "d": 361.97916666666424,
      "v": 93
    },
    {
      "midi": 67,
      "hit": false,
      "t": 51765.62499999999,
      "d": 316.40625,
      "v": 73
    },
    {
      "midi": 56,
      "hit": false,
      "t": 51799.47916666666,
      "d": 946.6145833333358,
      "v": 17
    },
    {
      "midi": 63,
      "hit": false,
      "t": 52014.32291666666,
      "d": 84.63541666667152,
      "v": 58
    },
    {
      "midi": 68,
      "hit": false,
      "t": 52028.64583333332,
      "d": 65.10416666667152,
      "v": 50
    },
    {
      "midi": 73,
      "hit": false,
      "t": 52203.12499999999,
      "d": 325.52083333333576,
      "v": 86
    },
    {
      "midi": 65,
      "hit": false,
      "t": 52226.56249999999,
      "d": 312.5,
      "v": 78
    },
    {
      "midi": 61,
      "hit": false,
      "t": 52449.21874999999,
      "d": 46.875,
      "v": 56
    },
    {
      "midi": 68,
      "hit": false,
      "t": 52457.03124999999,
      "d": 74.21875,
      "v": 50
    },
    {
      "midi": 63,
      "hit": false,
      "t": 52604.16666666666,
      "d": 136.71875,
      "v": 79
    },
    {
      "midi": 72,
      "hit": false,
      "t": 52606.77083333332,
      "d": 582.03125,
      "v": 100
    },
    {
      "midi": 68,
      "hit": false,
      "t": 52874.99999999999,
      "d": 229.16666666666424,
      "v": 52
    },
    {
      "midi": 49,
      "hit": false,
      "t": 52962.23958333333,
      "d": 1527.34375,
      "v": 44
    },
    {
      "midi": 56,
      "hit": false,
      "t": 53058.59374999999,
      "d": 1369.7916666666715,
      "v": 48
    },
    {
      "midi": 70,
      "hit": false,
      "t": 53149.73958333332,
      "d": 359.375,
      "v": 83
    },
    {
      "midi": 64,
      "hit": false,
      "t": 53164.062499999985,
      "d": 220.05208333333576,
      "v": 66
    },
    {
      "midi": 58,
      "hit": false,
      "t": 53177.08333333332,
      "d": 1188.802083333343,
      "v": 59
    },
    {
      "midi": 68,
      "hit": false,
      "t": 53453.124999999985,
      "d": 53.38541666667152,
      "v": 58
    },
    {
      "midi": 76,
      "hit": false,
      "t": 53462.23958333332,
      "d": 52.08333333333576,
      "v": 65
    },
    {
      "midi": 80,
      "hit": false,
      "t": 53691.40624999999,
      "d": 192.70833333333576,
      "v": 68
    },
    {
      "midi": 70,
      "hit": false,
      "t": 53696.61458333333,
      "d": 69.01041666666424,
      "v": 67
    },
    {
      "midi": 76,
      "hit": false,
      "t": 53984.37499999999,
      "d": 54.6875,
      "v": 65
    },
    {
      "midi": 82,
      "hit": false,
      "t": 53984.37499999999,
      "d": 54.6875,
      "v": 65
    },
    {
      "midi": 82,
      "hit": false,
      "t": 54121.09374999999,
      "d": 182.29166666667152,
      "v": 53
    },
    {
      "midi": 76,
      "hit": false,
      "t": 54126.30208333333,
      "d": 192.70833333333576,
      "v": 9
    },
    {
      "midi": 70,
      "hit": false,
      "t": 54356.77083333333,
      "d": 67.70833333333576,
      "v": 58
    },
    {
      "midi": 80,
      "hit": false,
      "t": 54361.979166666664,
      "d": 59.89583333333576,
      "v": 44
    },
    {
      "midi": 76,
      "hit": false,
      "t": 54574.21874999999,
      "d": 128.90625000000728,
      "v": 63
    },
    {
      "midi": 68,
      "hit": false,
      "t": 54579.42708333333,
      "d": 102.86458333333576,
      "v": 26
    },
    {
      "midi": 70,
      "hit": false,
      "t": 54770.833333333336,
      "d": 178.38541666666424,
      "v": 57
    },
    {
      "midi": 64,
      "hit": false,
      "t": 54781.25,
      "d": 102.86458333333576,
      "v": 36
    },
    {
      "midi": 49,
      "hit": false,
      "t": 54813.802083333336,
      "d": 882.8125,
      "v": 43
    },
    {
      "midi": 55,
      "hit": false,
      "t": 54894.53125,
      "d": 367.1875,
      "v": 27
    },
    {
      "midi": 58,
      "hit": false,
      "t": 54944.010416666664,
      "d": 589.8437500000073,
      "v": 85
    },
    {
      "midi": 63,
      "hit": false,
      "t": 55187.5,
      "d": 62.5,
      "v": 44
    },
    {
      "midi": 70,
      "hit": false,
      "t": 55213.541666666664,
      "d": 225.26041666667152,
      "v": 57
    },
    {
      "midi": 67,
      "hit": false,
      "t": 55442.708333333336,
      "d": 62.5,
      "v": 44
    },
    {
      "midi": 55,
      "hit": false,
      "t": 55444.01041666667,
      "d": 445.3124999999927,
      "v": 73
    },
    {
      "midi": 75,
      "hit": false,
      "t": 55446.614583333336,
      "d": 105.46875,
      "v": 42
    },
    {
      "midi": 79,
      "hit": false,
      "t": 55680.989583333336,
      "d": 87.23958333332848,
      "v": 59
    },
    {
      "midi": 70,
      "hit": false,
      "t": 55691.40625,
      "d": 87.23958333332848,
      "v": 59
    },
    {
      "midi": 51,
      "hit": false,
      "t": 55699.21875,
      "d": 1619.7916666666715,
      "v": 70
    },
    {
      "midi": 48,
      "hit": false,
      "t": 56003.90625,
      "d": 1222.6562500000073,
      "v": 54
    },
    {
      "midi": 68,
      "hit": false,
      "t": 56011.71875,
      "d": 325.52083333333576,
      "v": 39
    },
    {
      "midi": 60,
      "hit": false,
      "t": 56028.645833333336,
      "d": 197.91666666666424,
      "v": 42
    },
    {
      "midi": 56,
      "hit": false,
      "t": 56091.145833333336,
      "d": 765.625,
      "v": 70
    },
    {
      "midi": 63,
      "hit": false,
      "t": 56302.083333333336,
      "d": 54.6875,
      "v": 54
    },
    {
      "midi": 72,
      "hit": false,
      "t": 56313.802083333336,
      "d": 50.78125,
      "v": 60
    },
    {
      "midi": 68,
      "hit": false,
      "t": 56515.625,
      "d": 66.40625,
      "v": 62
    },
    {
      "midi": 75,
      "hit": false,
      "t": 56524.739583333336,
      "d": 57.29166666666424,
      "v": 55
    },
    {
      "midi": 80,
      "hit": false,
      "t": 56750,
      "d": 39.0625,
      "v": 72
    },
    {
      "midi": 72,
      "hit": false,
      "t": 56755.208333333336,
      "d": 46.875,
      "v": 45
    },
    {
      "midi": 80,
      "hit": false,
      "t": 56875,
      "d": 158.85416666667152,
      "v": 62
    },
    {
      "midi": 72,
      "hit": false,
      "t": 56880.208333333336,
      "d": 109.375,
      "v": 52
    },
    {
      "midi": 68,
      "hit": false,
      "t": 57078.12500000001,
      "d": 46.875,
      "v": 68
    },
    {
      "midi": 75,
      "hit": false,
      "t": 57082.03125000001,
      "d": 46.875,
      "v": 62
    },
    {
      "midi": 56,
      "hit": false,
      "t": 57253.90625000001,
      "d": 160.15625,
      "v": 76
    },
    {
      "midi": 72,
      "hit": false,
      "t": 57259.11458333334,
      "d": 72.91666666666424,
      "v": 78
    },
    {
      "midi": 63,
      "hit": false,
      "t": 57265.62500000001,
      "d": 143.22916666666424,
      "v": 69
    },
    {
      "midi": 68,
      "hit": false,
      "t": 57444.01041666667,
      "d": 57.29166666667152,
      "v": 69
    },
    {
      "midi": 60,
      "hit": false,
      "t": 57446.614583333336,
      "d": 49.47916666667152,
      "v": 61
    },
    {
      "midi": 46,
      "hit": false,
      "t": 57479.16666666667,
      "d": 442.70833333334303,
      "v": 75
    },
    {
      "midi": 51,
      "hit": false,
      "t": 57536.45833333334,
      "d": 529.9479166666715,
      "v": 57
    },
    {
      "midi": 61,
      "hit": false,
      "t": 57628.90625000001,
      "d": 328.1250000000073,
      "v": 94
    },
    {
      "midi": 55,
      "hit": false,
      "t": 57644.53125000001,
      "d": 442.70833333334303,
      "v": 52
    },
    {
      "midi": 63,
      "hit": false,
      "t": 57833.33333333334,
      "d": 45.57291666667152,
      "v": 67
    },
    {
      "midi": 73,
      "hit": false,
      "t": 57854.16666666668,
      "d": 102.86458333333576,
      "v": 53
    },
    {
      "midi": 67,
      "hit": false,
      "t": 58031.250000000015,
      "d": 57.29166666667152,
      "v": 57
    },
    {
      "midi": 75,
      "hit": false,
      "t": 58031.250000000015,
      "d": 83.33333333333576,
      "v": 65
    },
    {
      "midi": 61,
      "hit": false,
      "t": 58169.27083333335,
      "d": 70.3125,
      "v": 98
    },
    {
      "midi": 73,
      "hit": false,
      "t": 58264.322916666686,
      "d": 122.39583333332848,
      "v": 55
    },
    {
      "midi": 79,
      "hit": false,
      "t": 58269.53125000002,
      "d": 92.44791666666424,
      "v": 70
    },
    {
      "midi": 44,
      "hit": false,
      "t": 58324.21875000002,
      "d": 40.36458333332848,
      "v": 87
    },
    {
      "midi": 51,
      "hit": false,
      "t": 58501.30208333335,
      "d": 76.82291666666424,
      "v": 66
    },
    {
      "midi": 55,
      "hit": false,
      "t": 58546.875000000015,
      "d": 453.1250000000073,
      "v": 47
    },
    {
      "midi": 61,
      "hit": false,
      "t": 58569.01041666668,
      "d": 412.7604166666715,
      "v": 99
    },
    {
      "midi": 51,
      "hit": false,
      "t": 58707.031250000015,
      "d": 339.84375000001455,
      "v": 20
    },
    {
      "midi": 67,
      "hit": false,
      "t": 58789.062500000015,
      "d": 70.3125,
      "v": 78
    },
    {
      "midi": 75,
      "hit": false,
      "t": 58789.062500000015,
      "d": 252.6041666666788,
      "v": 77
    },
    {
      "midi": 79,
      "hit": false,
      "t": 58976.562500000015,
      "d": 44.270833333343035,
      "v": 98
    },
    {
      "midi": 70,
      "hit": false,
      "t": 58986.979166666686,
      "d": 71.61458333334303,
      "v": 50
    },
    {
      "midi": 44,
      "hit": false,
      "t": 59114.583333333365,
      "d": 36.45833333333576,
      "v": 82
    },
    {
      "midi": 85,
      "hit": false,
      "t": 59156.25000000004,
      "d": 125,
      "v": 92
    },
    {
      "midi": 75,
      "hit": false,
      "t": 59161.45833333337,
      "d": 50.78125,
      "v": 61
    },
    {
      "midi": 51,
      "hit": false,
      "t": 59326.8229166667,
      "d": 299.47916666666424,
      "v": 43
    },
    {
      "midi": 84,
      "hit": false,
      "t": 59376.302083333365,
      "d": 187.5,
      "v": 87
    },
    {
      "midi": 60,
      "hit": false,
      "t": 59376.302083333365,
      "d": 295.57291666666424,
      "v": 93
    },
    {
      "midi": 75,
      "hit": false,
      "t": 59378.90625000003,
      "d": 214.84375,
      "v": 55
    },
    {
      "midi": 56,
      "hit": false,
      "t": 59399.739583333365,
      "d": 201.82291666666424,
      "v": 46
    },
    {
      "midi": 72,
      "hit": false,
      "t": 59598.958333333365,
      "d": 62.5,
      "v": 87
    },
    {
      "midi": 80,
      "hit": false,
      "t": 59601.56250000003,
      "d": 44.27083333333576,
      "v": 67
    },
    {
      "midi": 60,
      "hit": false,
      "t": 59744.79166666669,
      "d": 677.083333333343,
      "v": 89
    },
    {
      "midi": 72,
      "hit": false,
      "t": 59756.51041666669,
      "d": 209.63541666667152,
      "v": 84
    },
    {
      "midi": 80,
      "hit": false,
      "t": 59761.71875000003,
      "d": 175.78125,
      "v": 69
    },
    {
      "midi": 68,
      "hit": false,
      "t": 59946.614583333365,
      "d": 59.89583333332848,
      "v": 62
    },
    {
      "midi": 75,
      "hit": false,
      "t": 59953.12500000003,
      "d": 48.17708333333576,
      "v": 62
    },
    {
      "midi": 54,
      "hit": false,
      "t": 60003.90625000003,
      "d": 699.21875,
      "v": 46
    },
    {
      "midi": 56,
      "hit": false,
      "t": 60026.04166666669,
      "d": 513.0208333333358,
      "v": 70
    },
    {
      "midi": 68,
      "hit": false,
      "t": 60128.90625000003,
      "d": 70.3125,
      "v": 63
    },
    {
      "midi": 75,
      "hit": false,
      "t": 60134.114583333365,
      "d": 277.34375,
      "v": 62
    },
    {
      "midi": 63,
      "hit": false,
      "t": 60201.82291666669,
      "d": 169.27083333333576,
      "v": 106
    },
    {
      "midi": 72,
      "hit": false,
      "t": 60416.6666666667,
      "d": 45.57291666666424,
      "v": 76
    },
    {
      "midi": 63,
      "hit": false,
      "t": 60444.0104166667,
      "d": 55.98958333332848,
      "v": 49
    },
    {
      "midi": 63,
      "hit": false,
      "t": 60596.35416666669,
      "d": 140.625,
      "v": 59
    },
    {
      "midi": 72,
      "hit": false,
      "t": 60604.16666666669,
      "d": 83.33333333333576,
      "v": 88
    },
    {
      "midi": 56,
      "hit": false,
      "t": 60761.71875000003,
      "d": 1609.3749999999927,
      "v": 102
    },
    {
      "midi": 68,
      "hit": false,
      "t": 60786.458333333365,
      "d": 50.78125,
      "v": 82
    },
    {
      "midi": 60,
      "hit": false,
      "t": 60791.6666666667,
      "d": 65.10416666666424,
      "v": 50
    },
    {
      "midi": 53,
      "hit": false,
      "t": 61015.62500000003,
      "d": 1223.9583333333212,
      "v": 64
    },
    {
      "midi": 73,
      "hit": false,
      "t": 61031.25000000003,
      "d": 277.3437499999927,
      "v": 86
    },
    {
      "midi": 65,
      "hit": false,
      "t": 61039.06250000003,
      "d": 182.29166666666424,
      "v": 77
    },
    {
      "midi": 61,
      "hit": false,
      "t": 61109.37500000003,
      "d": 786.4583333333212,
      "v": 110
    },
    {
      "midi": 68,
      "hit": false,
      "t": 61291.66666666669,
      "d": 40.36458333332848,
      "v": 74
    },
    {
      "midi": 77,
      "hit": false,
      "t": 61294.27083333336,
      "d": 96.35416666666424,
      "v": 94
    },
    {
      "midi": 73,
      "hit": false,
      "t": 61500.00000000002,
      "d": 83.33333333333576,
      "v": 86
    },
    {
      "midi": 80,
      "hit": false,
      "t": 61509.11458333336,
      "d": 184.89583333333576,
      "v": 76
    },
    {
      "midi": 85,
      "hit": false,
      "t": 61739.58333333336,
      "d": 39.0625,
      "v": 95
    },
    {
      "midi": 77,
      "hit": false,
      "t": 61751.30208333336,
      "d": 37.76041666666424,
      "v": 80
    },
    {
      "midi": 77,
      "hit": false,
      "t": 61859.37500000002,
      "d": 222.65625,
      "v": 89
    },
    {
      "midi": 85,
      "hit": false,
      "t": 61865.885416666686,
      "d": 210.9375,
      "v": 72
    },
    {
      "midi": 73,
      "hit": false,
      "t": 62069.010416666686,
      "d": 59.89583333333576,
      "v": 76
    },
    {
      "midi": 80,
      "hit": false,
      "t": 62074.21875000002,
      "d": 66.40625,
      "v": 37
    },
    {
      "midi": 61,
      "hit": false,
      "t": 62229.166666666686,
      "d": 165.36458333333576,
      "v": 103
    },
    {
      "midi": 77,
      "hit": false,
      "t": 62240.885416666686,
      "d": 105.46875,
      "v": 94
    },
    {
      "midi": 68,
      "hit": false,
      "t": 62265.62500000002,
      "d": 166.66666666666424,
      "v": 70
    },
    {
      "midi": 51,
      "hit": false,
      "t": 62437.50000000002,
      "d": 796.8750000000073,
      "v": 88
    },
    {
      "midi": 65,
      "hit": false,
      "t": 62441.40625000002,
      "d": 111.97916666667152,
      "v": 77
    },
    {
      "midi": 73,
      "hit": false,
      "t": 62441.40625000002,
      "d": 152.34375000000728,
      "v": 70
    },
    {
      "midi": 56,
      "hit": false,
      "t": 62552.08333333336,
      "d": 785.1562500000073,
      "v": 62
    },
    {
      "midi": 60,
      "hit": false,
      "t": 62604.16666666669,
      "d": 708.3333333333358,
      "v": 59
    },
    {
      "midi": 66,
      "hit": false,
      "t": 62769.53125000003,
      "d": 397.13541666666424,
      "v": 102
    },
    {
      "midi": 68,
      "hit": false,
      "t": 63009.11458333336,
      "d": 49.47916666667152,
      "v": 76
    },
    {
      "midi": 78,
      "hit": false,
      "t": 63014.32291666669,
      "d": 174.47916666666424,
      "v": 75
    },
    {
      "midi": 72,
      "hit": false,
      "t": 63208.33333333336,
      "d": 85.93750000000728,
      "v": 95
    },
    {
      "midi": 80,
      "hit": false,
      "t": 63213.54166666669,
      "d": 127.60416666667152,
      "v": 86
    },
    {
      "midi": 66,
      "hit": false,
      "t": 63406.25000000003,
      "d": 52.08333333332848,
      "v": 103
    },
    {
      "midi": 78,
      "hit": false,
      "t": 63444.01041666669,
      "d": 180.98958333333576,
      "v": 68
    },
    {
      "midi": 84,
      "hit": false,
      "t": 63446.61458333336,
      "d": 154.94791666667152,
      "v": 89
    },
    {
      "midi": 49,
      "hit": false,
      "t": 63541.66666666669,
      "d": 32.55208333333576,
      "v": 95
    },
    {
      "midi": 56,
      "hit": false,
      "t": 63718.75000000003,
      "d": 1407.552083333343,
      "v": 72
    },
    {
      "midi": 60,
      "hit": false,
      "t": 63753.90625000003,
      "d": 861.9791666666715,
      "v": 51
    },
    {
      "midi": 66,
      "hit": false,
      "t": 63816.40625000003,
      "d": 895.833333333343,
      "v": 102
    },
    {
      "midi": 72,
      "hit": false,
      "t": 64069.01041666669,
      "d": 75.52083333333576,
      "v": 84
    },
    {
      "midi": 80,
      "hit": false,
      "t": 64069.01041666669,
      "d": 205.72916666667152,
      "v": 80
    },
    {
      "midi": 75,
      "hit": false,
      "t": 64313.802083333365,
      "d": 48.17708333333576,
      "v": 62
    },
    {
      "midi": 84,
      "hit": false,
      "t": 64313.802083333365,
      "d": 61.19791666667152,
      "v": 66
    },
    {
      "midi": 90,
      "hit": false,
      "t": 64549.4791666667,
      "d": 62.5,
      "v": 84
    },
    {
      "midi": 80,
      "hit": false,
      "t": 64569.0104166667,
      "d": 67.70833333333576,
      "v": 50
    },
    {
      "midi": 89,
      "hit": false,
      "t": 64799.47916666671,
      "d": 191.40625,
      "v": 82
    },
    {
      "midi": 80,
      "hit": false,
      "t": 64813.80208333337,
      "d": 268.2291666666715,
      "v": 45
    },
    {
      "midi": 65,
      "hit": false,
      "t": 64824.21875000004,
      "d": 290.36458333333576,
      "v": 94
    },
    {
      "midi": 61,
      "hit": false,
      "t": 64833.33333333337,
      "d": 266.92708333333576,
      "v": 55
    },
    {
      "midi": 77,
      "hit": false,
      "t": 65069.01041666671,
      "d": 46.875,
      "v": 71
    },
    {
      "midi": 85,
      "hit": false,
      "t": 65082.031250000044,
      "d": 54.687499999992724,
      "v": 68
    },
    {
      "midi": 63,
      "hit": false,
      "t": 65283.8541666667,
      "d": 287.7604166666715,
      "v": 92
    },
    {
      "midi": 90,
      "hit": false,
      "t": 65294.270833333365,
      "d": 259.11458333333576,
      "v": 79
    },
    {
      "midi": 81,
      "hit": false,
      "t": 65296.87500000003,
      "d": 242.1875,
      "v": 66
    },
    {
      "midi": 49,
      "hit": false,
      "t": 65296.87500000003,
      "d": 1231.770833333343,
      "v": 60
    },
    {
      "midi": 78,
      "hit": false,
      "t": 65511.71875000003,
      "d": 87.23958333334303,
      "v": 62
    },
    {
      "midi": 84,
      "hit": false,
      "t": 65527.34375000003,
      "d": 46.87500000001455,
      "v": 71
    },
    {
      "midi": 61,
      "hit": false,
      "t": 65751.30208333337,
      "d": 394.53125,
      "v": 90
    },
    {
      "midi": 89,
      "hit": false,
      "t": 65761.71875000004,
      "d": 149.73958333332848,
      "v": 80
    },
    {
      "midi": 82,
      "hit": false,
      "t": 65770.83333333337,
      "d": 75.52083333332848,
      "v": 67
    },
    {
      "midi": 85,
      "hit": false,
      "t": 66015.62500000003,
      "d": 46.875,
      "v": 57
    },
    {
      "midi": 77,
      "hit": false,
      "t": 66029.9479166667,
      "d": 58.59375,
      "v": 26
    },
    {
      "midi": 93,
      "hit": false,
      "t": 66265.62500000004,
      "d": 223.95833333332848,
      "v": 55
    },
    {
      "midi": 60,
      "hit": false,
      "t": 66278.64583333337,
      "d": 341.1458333333285,
      "v": 66
    },
    {
      "midi": 84,
      "hit": false,
      "t": 66281.25000000004,
      "d": 322.91666666665697,
      "v": 29
    },
    {
      "midi": 87,
      "hit": false,
      "t": 66606.77083333337,
      "d": 96.35416666667152,
      "v": 34
    },
    {
      "midi": 81,
      "hit": false,
      "t": 66611.9791666667,
      "d": 57.29166666667152,
      "v": 40
    },
    {
      "midi": 58,
      "hit": false,
      "t": 66984.37500000004,
      "d": 1464.8437500000146,
      "v": 47
    },
    {
      "midi": 94,
      "hit": false,
      "t": 66986.97916666672,
      "d": 394.53124999998545,
      "v": 36
    },
    {
      "midi": 55,
      "hit": false,
      "t": 67000.00000000004,
      "d": 1945.3125000000146,
      "v": 33
    },
    {
      "midi": 88,
      "hit": false,
      "t": 67001.30208333337,
      "d": 393.22916666665697,
      "v": 29
    },
    {
      "midi": 49,
      "hit": false,
      "t": 67005.20833333337,
      "d": 1791.666666666686,
      "v": 27
    },
    {
      "midi": 82,
      "hit": false,
      "t": 67408.8541666667,
      "d": 78.125,
      "v": 34
    },
    {
      "midi": 91,
      "hit": false,
      "t": 67414.06250000003,
      "d": 78.125,
      "v": 39
    },
    {
      "midi": 88,
      "hit": false,
      "t": 67734.37500000003,
      "d": 171.875,
      "v": 42
    },
    {
      "midi": 79,
      "hit": false,
      "t": 67743.48958333336,
      "d": 74.21875,
      "v": 53
    },
    {
      "midi": 82,
      "hit": false,
      "t": 68093.75000000003,
      "d": 55.989583333343035,
      "v": 54
    },
    {
      "midi": 76,
      "hit": false,
      "t": 68104.1666666667,
      "d": 59.895833333343035,
      "v": 42
    },
    {
      "midi": 82,
      "hit": false,
      "t": 68213.54166666672,
      "d": 132.8125,
      "v": 72
    },
    {
      "midi": 76,
      "hit": false,
      "t": 68223.95833333339,
      "d": 50.78125,
      "v": 37
    },
    {
      "midi": 88,
      "hit": false,
      "t": 68444.01041666672,
      "d": 75.52083333334303,
      "v": 56
    },
    {
      "midi": 79,
      "hit": false,
      "t": 68446.61458333339,
      "d": 236.97916666667152,
      "v": 44
    },
    {
      "midi": 82,
      "hit": false,
      "t": 68666.66666666673,
      "d": 54.6875,
      "v": 56
    },
    {
      "midi": 76,
      "hit": false,
      "t": 68687.50000000006,
      "d": 57.29166666667152,
      "v": 53
    },
    {
      "midi": 58,
      "hit": false,
      "t": 68723.9583333334,
      "d": 339.84374999998545,
      "v": 83
    },
    {
      "midi": 79,
      "hit": false,
      "t": 68941.40625000006,
      "d": 199.21875,
      "v": 57
    },
    {
      "midi": 70,
      "hit": false,
      "t": 68946.61458333339,
      "d": 144.53125,
      "v": 63
    },
    {
      "midi": 60,
      "hit": false,
      "t": 69151.04166666673,
      "d": 307.29166666668607,
      "v": 74
    },
    {
      "midi": 67,
      "hit": false,
      "t": 69166.66666666673,
      "d": 187.50000000001455,
      "v": 57
    },
    {
      "midi": 76,
      "hit": false,
      "t": 69171.87500000006,
      "d": 222.6562500000291,
      "v": 54
    },
    {
      "midi": 49,
      "hit": false,
      "t": 69182.29166666673,
      "d": 750.0000000000291,
      "v": 39
    },
    {
      "midi": 55,
      "hit": false,
      "t": 69188.8020833334,
      "d": 701.8229166666861,
      "v": 44
    },
    {
      "midi": 79,
      "hit": false,
      "t": 69399.73958333342,
      "d": 134.11458333334303,
      "v": 60
    },
    {
      "midi": 70,
      "hit": false,
      "t": 69414.06250000009,
      "d": 85.9375,
      "v": 40
    },
    {
      "midi": 67,
      "hit": false,
      "t": 69625.00000000009,
      "d": 57.29166666667152,
      "v": 43
    },
    {
      "midi": 76,
      "hit": false,
      "t": 69631.51041666676,
      "d": 175.78125,
      "v": 60
    },
    {
      "midi": 61,
      "hit": false,
      "t": 69631.51041666676,
      "d": 514.322916666657,
      "v": 71
    },
    {
      "midi": 73,
      "hit": false,
      "t": 69875.00000000009,
      "d": 140.625,
      "v": 27
    },
    {
      "midi": 70,
      "hit": false,
      "t": 69881.51041666676,
      "d": 130.20833333332848,
      "v": 60
    },
    {
      "midi": 64,
      "hit": false,
      "t": 69889.32291666676,
      "d": 54.6875,
      "v": 31
    },
    {
      "midi": 48,
      "hit": false,
      "t": 70083.33333333342,
      "d": 2618.4895833333285,
      "v": 57
    },
    {
      "midi": 87,
      "hit": false,
      "t": 70294.27083333342,
      "d": 417.96875,
      "v": 51
    },
    {
      "midi": 78,
      "hit": false,
      "t": 70313.80208333342,
      "d": 274.73958333334303,
      "v": 37
    },
    {
      "midi": 63,
      "hit": false,
      "t": 70338.54166666676,
      "d": 895.8333333333139,
      "v": 58
    },
    {
      "midi": 80,
      "hit": false,
      "t": 70734.37500000009,
      "d": 67.70833333332848,
      "v": 45
    },
    {
      "midi": 75,
      "hit": false,
      "t": 70739.58333333342,
      "d": 130.20833333332848,
      "v": 31
    },
    {
      "midi": 78,
      "hit": false,
      "t": 71082.03125000007,
      "d": 167.96875,
      "v": 57
    },
    {
      "midi": 68,
      "hit": false,
      "t": 71096.35416666674,
      "d": 174.47916666665697,
      "v": 35
    },
    {
      "midi": 56,
      "hit": false,
      "t": 71236.97916666674,
      "d": 291.66666666665697,
      "v": 46
    },
    {
      "midi": 75,
      "hit": false,
      "t": 71531.25000000007,
      "d": 52.083333333343035,
      "v": 54
    },
    {
      "midi": 66,
      "hit": false,
      "t": 71533.85416666674,
      "d": 54.6875,
      "v": 43
    },
    {
      "midi": 75,
      "hit": false,
      "t": 71678.38541666674,
      "d": 192.70833333334303,
      "v": 43
    },
    {
      "midi": 66,
      "hit": false,
      "t": 71688.80208333342,
      "d": 65.10416666667152,
      "v": 34
    },
    {
      "midi": 56,
      "hit": false,
      "t": 71778.64583333342,
      "d": 1018.2291666666715,
      "v": 45
    },
    {
      "midi": 78,
      "hit": false,
      "t": 71949.21875000009,
      "d": 113.28125,
      "v": 41
    },
    {
      "midi": 68,
      "hit": false,
      "t": 71951.82291666676,
      "d": 97.65625,
      "v": 39
    },
    {
      "midi": 66,
      "hit": false,
      "t": 72196.61458333342,
      "d": 82.03125,
      "v": 43
    },
    {
      "midi": 75,
      "hit": false,
      "t": 72208.33333333342,
      "d": 61.19791666667152,
      "v": 42
    },
    {
      "midi": 63,
      "hit": false,
      "t": 72509.11458333342,
      "d": 222.65625,
      "v": 35
    },
    {
      "midi": 68,
      "hit": false,
      "t": 72526.04166666674,
      "d": 152.34375,
      "v": 43
    },
    {
      "midi": 68,
      "hit": false,
      "t": 72794.27083333342,
      "d": 514.3229166666424,
      "v": 53
    },
    {
      "midi": 49,
      "hit": false,
      "t": 72848.95833333342,
      "d": 382.81249999998545,
      "v": 37
    },
    {
      "midi": 61,
      "hit": false,
      "t": 73041.66666666674,
      "d": 171.87499999998545,
      "v": 44
    },
    {
      "midi": 65,
      "hit": false,
      "t": 73046.87500000007,
      "d": 93.75,
      "v": 43
    },
    {
      "midi": 56,
      "hit": false,
      "t": 73057.29166666674,
      "d": 205.72916666665697,
      "v": 39
    },
    {
      "midi": 73,
      "hit": false,
      "t": 73264.32291666673,
      "d": 481.7708333333285,
      "v": 66
    },
    {
      "midi": 46,
      "hit": false,
      "t": 73296.87500000006,
      "d": 274.7395833333285,
      "v": 53
    },
    {
      "midi": 61,
      "hit": false,
      "t": 73501.30208333339,
      "d": 144.53125,
      "v": 61
    },
    {
      "midi": 68,
      "hit": false,
      "t": 73501.30208333339,
      "d": 252.60416666667152,
      "v": 47
    },
    {
      "midi": 64,
      "hit": false,
      "t": 73511.71875000006,
      "d": 52.08333333332848,
      "v": 48
    },
    {
      "midi": 72,
      "hit": false,
      "t": 73756.51041666673,
      "d": 285.15625,
      "v": 78
    },
    {
      "midi": 63,
      "hit": false,
      "t": 73764.32291666673,
      "d": 201.82291666667152,
      "v": 53
    },
    {
      "midi": 60,
      "hit": false,
      "t": 73764.32291666673,
      "d": 292.96875,
      "v": 62
    },
    {
      "midi": 56,
      "hit": false,
      "t": 73770.8333333334,
      "d": 630.2083333333285,
      "v": 32
    },
    {
      "midi": 51,
      "hit": false,
      "t": 73786.4583333334,
      "d": 645.8333333333285,
      "v": 40
    },
    {
      "midi": 75,
      "hit": false,
      "t": 74011.71875000007,
      "d": 87.23958333331393,
      "v": 66
    },
    {
      "midi": 68,
      "hit": false,
      "t": 74026.04166666673,
      "d": 52.08333333332848,
      "v": 49
    },
    {
      "midi": 80,
      "hit": false,
      "t": 74226.56250000006,
      "d": 59.895833333343035,
      "v": 71
    },
    {
      "midi": 72,
      "hit": false,
      "t": 74236.97916666673,
      "d": 65.10416666667152,
      "v": 58
    },
    {
      "midi": 60,
      "hit": false,
      "t": 74240.88541666673,
      "d": 121.09375,
      "v": 74
    },
    {
      "midi": 84,
      "hit": false,
      "t": 74476.56250000006,
      "d": 39.0625,
      "v": 56
    },
    {
      "midi": 75,
      "hit": false,
      "t": 74486.97916666673,
      "d": 54.6875,
      "v": 48
    },
    {
      "midi": 39,
      "hit": false,
      "t": 74546.87500000006,
      "d": 36.45833333332848,
      "v": 64
    },
    {
      "midi": 68,
      "hit": false,
      "t": 74764.32291666672,
      "d": 160.15625,
      "v": 58
    },
    {
      "midi": 77,
      "hit": false,
      "t": 74769.53125000004,
      "d": 246.09375000001455,
      "v": 60
    },
    {
      "midi": 60,
      "hit": false,
      "t": 74824.21875000004,
      "d": 550.7812500000146,
      "v": 75
    },
    {
      "midi": 51,
      "hit": false,
      "t": 74966.14583333339,
      "d": 1895.833333333343,
      "v": 8
    },
    {
      "midi": 80,
      "hit": false,
      "t": 75071.61458333339,
      "d": 44.27083333332848,
      "v": 61
    },
    {
      "midi": 73,
      "hit": false,
      "t": 75076.82291666672,
      "d": 49.47916666667152,
      "v": 49
    },
    {
      "midi": 85,
      "hit": false,
      "t": 75308.59375000006,
      "d": 300.78125,
      "v": 50
    },
    {
      "midi": 77,
      "hit": false,
      "t": 75313.80208333339,
      "d": 225.26041666667152,
      "v": 50
    },
    {
      "midi": 58,
      "hit": false,
      "t": 75332.03125000006,
      "d": 1214.84375,
      "v": 73
    },
    {
      "midi": 80,
      "hit": false,
      "t": 75598.95833333339,
      "d": 52.08333333332848,
      "v": 48
    },
    {
      "midi": 89,
      "hit": false,
      "t": 75614.58333333339,
      "d": 41.666666666656965,
      "v": 54
    },
    {
      "midi": 75,
      "hit": false,
      "t": 75889.32291666672,
      "d": 214.84375,
      "v": 49
    },
    {
      "midi": 67,
      "hit": false,
      "t": 75906.25000000004,
      "d": 160.15625,
      "v": 43
    },
    {
      "midi": 73,
      "hit": false,
      "t": 76188.80208333339,
      "d": 61.19791666667152,
      "v": 36
    },
    {
      "midi": 79,
      "hit": false,
      "t": 76199.21875000006,
      "d": 57.29166666667152,
      "v": 43
    },
    {
      "midi": 79,
      "hit": false,
      "t": 76506.51041666673,
      "d": 247.39583333332848,
      "v": 40
    },
    {
      "midi": 87,
      "hit": false,
      "t": 76519.53125000006,
      "d": 299.4791666666715,
      "v": 33
    },
    {
      "midi": 60,
      "hit": false,
      "t": 76553.38541666673,
      "d": 268.2291666666715,
      "v": 46
    },
    {
      "midi": 85,
      "hit": false,
      "t": 76927.0833333334,
      "d": 54.6875,
      "v": 33
    },
    {
      "midi": 91,
      "hit": false,
      "t": 76932.29166666673,
      "d": 54.6875,
      "v": 36
    },
    {
      "midi": 56,
      "hit": false,
      "t": 77321.6145833334,
      "d": 1130.208333333314,
      "v": 32
    },
    {
      "midi": 72,
      "hit": false,
      "t": 77326.82291666673,
      "d": 204.42708333332848,
      "v": 41
    },
    {
      "midi": 80,
      "hit": false,
      "t": 77328.12500000006,
      "d": 300.78125,
      "v": 31
    },
    {
      "midi": 44,
      "hit": false,
      "t": 77333.33333333339,
      "d": 1067.7083333333285,
      "v": 30
    },
    {
      "midi": 51,
      "hit": false,
      "t": 77337.23958333339,
      "d": 1082.03125,
      "v": 32
    },
    {
      "midi": 75,
      "hit": false,
      "t": 77619.79166666673,
      "d": 46.87499999998545,
      "v": 47
    },
    {
      "midi": 84,
      "hit": false,
      "t": 77638.02083333339,
      "d": 57.291666666656965,
      "v": 24
    },
    {
      "midi": 87,
      "hit": false,
      "t": 77881.51041666672,
      "d": 59.89583333332848,
      "v": 45
    },
    {
      "midi": 80,
      "hit": false,
      "t": 77881.51041666672,
      "d": 162.76041666665697,
      "v": 41
    },
    {
      "midi": 92,
      "hit": false,
      "t": 78208.33333333337,
      "d": 55.989583333343035,
      "v": 39
    },
    {
      "midi": 84,
      "hit": false,
      "t": 78218.75000000004,
      "d": 55.989583333343035,
      "v": 39
    },
    {
      "midi": 84,
      "hit": false,
      "t": 78333.33333333339,
      "d": 187.5,
      "v": 8
    },
    {
      "midi": 92,
      "hit": false,
      "t": 78337.23958333339,
      "d": 144.53125,
      "v": 51
    },
    {
      "midi": 87,
      "hit": false,
      "t": 78539.06250000006,
      "d": 42.96875,
      "v": 58
    },
    {
      "midi": 80,
      "hit": false,
      "t": 78544.27083333339,
      "d": 46.875,
      "v": 49
    },
    {
      "midi": 84,
      "hit": false,
      "t": 78713.54166666672,
      "d": 110.67708333332848,
      "v": 66
    },
    {
      "midi": 75,
      "hit": false,
      "t": 78734.37500000004,
      "d": 106.77083333332848,
      "v": 44
    },
    {
      "midi": 72,
      "hit": false,
      "t": 78895.83333333337,
      "d": 46.875,
      "v": 59
    },
    {
      "midi": 80,
      "hit": false,
      "t": 78895.83333333337,
      "d": 78.125,
      "v": 53
    },
    {
      "midi": 68,
      "hit": false,
      "t": 79063.80208333337,
      "d": 144.53125,
      "v": 50
    },
    {
      "midi": 75,
      "hit": false,
      "t": 79072.9166666667,
      "d": 54.6875,
      "v": 52
    },
    {
      "midi": 80,
      "hit": false,
      "t": 79229.1666666667,
      "d": 70.3125,
      "v": 57
    },
    {
      "midi": 72,
      "hit": false,
      "t": 79240.8854166667,
      "d": 62.5,
      "v": 48
    },
    {
      "midi": 75,
      "hit": false,
      "t": 79419.27083333337,
      "d": 46.87500000001455,
      "v": 58
    },
    {
      "midi": 84,
      "hit": false,
      "t": 79421.87500000004,
      "d": 41.66666666667152,
      "v": 68
    },
    {
      "midi": 87,
      "hit": false,
      "t": 79582.03125000006,
      "d": 46.875,
      "v": 64
    },
    {
      "midi": 80,
      "hit": false,
      "t": 79588.54166666673,
      "d": 50.78125,
      "v": 57
    },
    {
      "midi": 72,
      "hit": false,
      "t": 79713.54166666673,
      "d": 83.33333333334303,
      "v": 69
    },
    {
      "midi": 63,
      "hit": false,
      "t": 79723.9583333334,
      "d": 70.3125,
      "v": 54
    },
    {
      "midi": 75,
      "hit": false,
      "t": 79876.3020833334,
      "d": 62.5,
      "v": 70
    },
    {
      "midi": 68,
      "hit": false,
      "t": 79889.32291666673,
      "d": 54.6875,
      "v": 53
    },
    {
      "midi": 80,
      "hit": false,
      "t": 80049.47916666673,
      "d": 138.02083333332848,
      "v": 71
    },
    {
      "midi": 72,
      "hit": false,
      "t": 80052.0833333334,
      "d": 52.08333333332848,
      "v": 71
    },
    {
      "midi": 84,
      "hit": false,
      "t": 80250.00000000006,
      "d": 33.85416666667152,
      "v": 75
    },
    {
      "midi": 75,
      "hit": false,
      "t": 80264.32291666673,
      "d": 57.29166666667152,
      "v": 48
    },
    {
      "midi": 84,
      "hit": false,
      "t": 80359.37500000007,
      "d": 109.375,
      "v": 66
    },
    {
      "midi": 75,
      "hit": false,
      "t": 80371.09375000007,
      "d": 102.86458333332848,
      "v": 27
    },
    {
      "midi": 80,
      "hit": false,
      "t": 80515.62500000007,
      "d": 148.4375,
      "v": 69
    },
    {
      "midi": 72,
      "hit": false,
      "t": 80519.53125000007,
      "d": 44.27083333332848,
      "v": 66
    },
    {
      "midi": 75,
      "hit": false,
      "t": 80671.87500000007,
      "d": 49.47916666667152,
      "v": 56
    },
    {
      "midi": 68,
      "hit": false,
      "t": 80687.50000000007,
      "d": 58.59375,
      "v": 47
    },
    {
      "midi": 63,
      "hit": false,
      "t": 80832.03125000007,
      "d": 74.21875000001455,
      "v": 45
    },
    {
      "midi": 72,
      "hit": false,
      "t": 80838.54166666674,
      "d": 65.10416666667152,
      "v": 33
    },
    {
      "midi": 68,
      "hit": false,
      "t": 80966.14583333342,
      "d": 149.73958333332848,
      "v": 58
    },
    {
      "midi": 60,
      "hit": false,
      "t": 80984.37500000009,
      "d": 67.70833333332848,
      "v": 35
    },
    {
      "midi": 63,
      "hit": false,
      "t": 81121.09375000007,
      "d": 66.40625000001455,
      "v": 59
    },
    {
      "midi": 72,
      "hit": false,
      "t": 81131.51041666674,
      "d": 45.57291666667152,
      "v": 60
    },
    {
      "midi": 68,
      "hit": false,
      "t": 81269.53125000009,
      "d": 58.59375,
      "v": 49
    },
    {
      "midi": 75,
      "hit": false,
      "t": 81278.64583333342,
      "d": 65.10416666667152,
      "v": 42
    },
    {
      "midi": 80,
      "hit": false,
      "t": 81411.45833333342,
      "d": 46.875,
      "v": 65
    },
    {
      "midi": 72,
      "hit": false,
      "t": 81428.38541666674,
      "d": 55.989583333343035,
      "v": 45
    },
    {
      "midi": 63,
      "hit": false,
      "t": 81553.38541666676,
      "d": 62.5,
      "v": 47
    },
    {
      "midi": 56,
      "hit": false,
      "t": 81558.59375000009,
      "d": 91.14583333334303,
      "v": 41
    },
    {
      "midi": 68,
      "hit": false,
      "t": 81718.7500000001,
      "d": 57.29166666667152,
      "v": 42
    },
    {
      "midi": 60,
      "hit": false,
      "t": 81734.3750000001,
      "d": 54.6875,
      "v": 40
    },
    {
      "midi": 72,
      "hit": false,
      "t": 81906.2500000001,
      "d": 55.98958333332848,
      "v": 52
    },
    {
      "midi": 63,
      "hit": false,
      "t": 81906.2500000001,
      "d": 62.5,
      "v": 39
    },
    {
      "midi": 75,
      "hit": false,
      "t": 82082.0312500001,
      "d": 46.875,
      "v": 50
    },
    {
      "midi": 68,
      "hit": false,
      "t": 82098.95833333343,
      "d": 78.125,
      "v": 49
    },
    {
      "midi": 75,
      "hit": false,
      "t": 82196.61458333343,
      "d": 102.86458333334303,
      "v": 58
    },
    {
      "midi": 68,
      "hit": false,
      "t": 82223.95833333343,
      "d": 72.91666666667152,
      "v": 10
    },
    {
      "midi": 63,
      "hit": false,
      "t": 82341.14583333344,
      "d": 58.59375,
      "v": 41
    },
    {
      "midi": 72,
      "hit": false,
      "t": 82364.58333333344,
      "d": 74.21875,
      "v": 43
    },
    {
      "midi": 68,
      "hit": false,
      "t": 82468.75000000012,
      "d": 67.70833333334303,
      "v": 47
    },
    {
      "midi": 60,
      "hit": false,
      "t": 82471.35416666679,
      "d": 82.03125,
      "v": 31
    },
    {
      "midi": 63,
      "hit": false,
      "t": 82614.58333333346,
      "d": 49.479166666656965,
      "v": 43
    },
    {
      "midi": 56,
      "hit": false,
      "t": 82639.32291666679,
      "d": 48.17708333332848,
      "v": 42
    },
    {
      "midi": 60,
      "hit": false,
      "t": 82832.03125000012,
      "d": 187.5,
      "v": 60
    },
    {
      "midi": 51,
      "hit": false,
      "t": 82845.05208333344,
      "d": 154.94791666667152,
      "v": 21
    },
    {
      "midi": 63,
      "hit": false,
      "t": 83006.51041666679,
      "d": 87.23958333332848,
      "v": 44
    },
    {
      "midi": 56,
      "hit": false,
      "t": 83020.83333333344,
      "d": 58.59375,
      "v": 44
    },
    {
      "midi": 68,
      "hit": false,
      "t": 83169.27083333344,
      "d": 111.97916666667152,
      "v": 55
    },
    {
      "midi": 60,
      "hit": false,
      "t": 83196.61458333344,
      "d": 62.5,
      "v": 24
    },
    {
      "midi": 63,
      "hit": false,
      "t": 83299.47916666679,
      "d": 62.5,
      "v": 43
    },
    {
      "midi": 72,
      "hit": false,
      "t": 83308.59375000012,
      "d": 80.72916666667152,
      "v": 64
    },
    {
      "midi": 51,
      "hit": false,
      "t": 83444.01041666679,
      "d": 130.20833333332848,
      "v": 52
    },
    {
      "midi": 60,
      "hit": false,
      "t": 83446.61458333346,
      "d": 102.86458333332848,
      "v": 59
    },
    {
      "midi": 63,
      "hit": false,
      "t": 83593.75000000012,
      "d": 55.98958333332848,
      "v": 55
    },
    {
      "midi": 56,
      "hit": false,
      "t": 83601.56250000012,
      "d": 67.70833333332848,
      "v": 44
    },
    {
      "midi": 68,
      "hit": false,
      "t": 83729.16666666677,
      "d": 87.23958333334303,
      "v": 50
    },
    {
      "midi": 60,
      "hit": false,
      "t": 83731.77083333344,
      "d": 57.29166666667152,
      "v": 48
    },
    {
      "midi": 63,
      "hit": false,
      "t": 83841.14583333344,
      "d": 72.91666666667152,
      "v": 38
    },
    {
      "midi": 72,
      "hit": false,
      "t": 83859.37500000012,
      "d": 79.42708333332848,
      "v": 64
    },
    {
      "midi": 60,
      "hit": false,
      "t": 83989.58333333344,
      "d": 160.15625,
      "v": 43
    },
    {
      "midi": 51,
      "hit": false,
      "t": 84003.90625000012,
      "d": 89.84375,
      "v": 38
    },
    {
      "midi": 63,
      "hit": false,
      "t": 84153.64583333344,
      "d": 62.5,
      "v": 41
    },
    {
      "midi": 56,
      "hit": false,
      "t": 84166.66666666677,
      "d": 62.5,
      "v": 40
    },
    {
      "midi": 68,
      "hit": false,
      "t": 84308.5937500001,
      "d": 82.03125,
      "v": 35
    },
    {
      "midi": 60,
      "hit": false,
      "t": 84309.89583333343,
      "d": 62.5,
      "v": 40
    },
    {
      "midi": 63,
      "hit": false,
      "t": 84421.8750000001,
      "d": 72.91666666665697,
      "v": 40
    },
    {
      "midi": 72,
      "hit": false,
      "t": 84427.08333333343,
      "d": 75.52083333332848,
      "v": 37
    },
    {
      "midi": 51,
      "hit": false,
      "t": 84606.77083333343,
      "d": 82.03125,
      "v": 34
    },
    {
      "midi": 60,
      "hit": false,
      "t": 84606.77083333343,
      "d": 92.44791666667152,
      "v": 35
    },
    {
      "midi": 63,
      "hit": false,
      "t": 84761.7187500001,
      "d": 62.5,
      "v": 31
    },
    {
      "midi": 56,
      "hit": false,
      "t": 84781.2500000001,
      "d": 67.70833333332848,
      "v": 34
    },
    {
      "midi": 60,
      "hit": false,
      "t": 84949.2187500001,
      "d": 66.40625,
      "v": 30
    },
    {
      "midi": 68,
      "hit": false,
      "t": 84951.82291666677,
      "d": 162.76041666665697,
      "v": 31
    },
    {
      "midi": 72,
      "hit": false,
      "t": 85144.5312500001,
      "d": 139.32291666665697,
      "v": 40
    },
    {
      "midi": 63,
      "hit": false,
      "t": 85145.83333333343,
      "d": 83.33333333332848,
      "v": 24
    },
    {
      "midi": 44,
      "hit": false,
      "t": 85378.90625000009,
      "d": 252.60416666667152,
      "v": 39
    },
    {
      "midi": 32,
      "hit": false,
      "t": 85394.53125000009,
      "d": 212.23958333334303,
      "v": 33
    },
    {
      "midi": 56,
      "hit": false,
      "t": 85990.88541666676,
      "d": 192.70833333334303,
      "v": 29
    },
    {
      "midi": 63,
      "hit": false,
      "t": 86126.30208333343,
      "d": 139.32291666667152,
      "v": 28
    },
    {
      "midi": 68,
      "hit": false,
      "t": 86214.8437500001,
      "d": 61.19791666667152,
      "v": 39
    },
    {
      "midi": 72,
      "hit": false,
      "t": 86313.80208333344,
      "d": 67.70833333332848,
      "v": 37
    },
    {
      "midi": 75,
      "hit": false,
      "t": 86386.7187500001,
      "d": 65.10416666667152,
      "v": 35
    },
    {
      "midi": 80,
      "hit": false,
      "t": 86453.1250000001,
      "d": 125,
      "v": 31
    },
    {
      "midi": 84,
      "hit": false,
      "t": 86582.0312500001,
      "d": 1032.5520833333285,
      "v": 26
    },
    {
      "midi": 92,
      "hit": false,
      "t": 86645.83333333343,
      "d": 401.0416666666715,
      "v": 42
    },
    {
      "midi": 68,
      "hit": false,
      "t": 88739.58333333343,
      "d": 1901.041666666686,
      "v": 64
    },
    {
      "midi": 64,
      "hit": false,
      "t": 88769.5312500001,
      "d": 207.03124999998545,
      "v": 26
    },
    {
      "midi": 52,
      "hit": false,
      "t": 88770.83333333343,
      "d": 1494.7916666666715,
      "v": 33
    },
    {
      "midi": 40,
      "hit": false,
      "t": 88772.13541666676,
      "d": 2507.8125,
      "v": 29
    },
    {
      "midi": 59,
      "hit": false,
      "t": 88776.04166666676,
      "d": 203.125,
      "v": 25
    },
    {
      "midi": 59,
      "hit": false,
      "t": 89209.63541666676,
      "d": 78.125,
      "v": 14
    },
    {
      "midi": 64,
      "hit": false,
      "t": 89213.54166666676,
      "d": 55.98958333332848,
      "v": 35
    },
    {
      "midi": 59,
      "hit": false,
      "t": 89503.90625000009,
      "d": 58.59375,
      "v": 21
    },
    {
      "midi": 64,
      "hit": false,
      "t": 89503.90625000009,
      "d": 59.89583333332848,
      "v": 25
    },
    {
      "midi": 59,
      "hit": false,
      "t": 89770.83333333342,
      "d": 57.29166666667152,
      "v": 22
    },
    {
      "midi": 64,
      "hit": false,
      "t": 89770.83333333342,
      "d": 57.29166666667152,
      "v": 22
    },
    {
      "midi": 64,
      "hit": false,
      "t": 90026.04166666676,
      "d": 75.52083333334303,
      "v": 16
    },
    {
      "midi": 59,
      "hit": false,
      "t": 90028.64583333343,
      "d": 70.3125,
      "v": 18
    },
    {
      "midi": 59,
      "hit": false,
      "t": 90303.38541666677,
      "d": 158.85416666667152,
      "v": 16
    },
    {
      "midi": 64,
      "hit": false,
      "t": 90346.35416666677,
      "d": 132.8125,
      "v": 15
    },
    {
      "midi": 66,
      "hit": false,
      "t": 90606.77083333344,
      "d": 549.4791666666424,
      "v": 68
    },
    {
      "midi": 64,
      "hit": false,
      "t": 90645.83333333344,
      "d": 105.46874999998545,
      "v": 9
    },
    {
      "midi": 59,
      "hit": false,
      "t": 90651.04166666677,
      "d": 140.62499999998545,
      "v": 10
    },
    {
      "midi": 50,
      "hit": false,
      "t": 90694.01041666677,
      "d": 709.635416666657,
      "v": 46
    },
    {
      "midi": 59,
      "hit": false,
      "t": 90919.27083333343,
      "d": 76.82291666665697,
      "v": 24
    },
    {
      "midi": 64,
      "hit": false,
      "t": 90927.08333333343,
      "d": 63.80208333332848,
      "v": 31
    },
    {
      "midi": 68,
      "hit": false,
      "t": 91078.12500000009,
      "d": 613.2812500000146,
      "v": 71
    },
    {
      "midi": 59,
      "hit": false,
      "t": 91294.27083333343,
      "d": 76.82291666667152,
      "v": 34
    },
    {
      "midi": 64,
      "hit": false,
      "t": 91308.5937500001,
      "d": 78.125,
      "v": 44
    },
    {
      "midi": 69,
      "hit": false,
      "t": 91653.64583333343,
      "d": 1924.4791666666715,
      "v": 72
    },
    {
      "midi": 49,
      "hit": false,
      "t": 91661.45833333343,
      "d": 1647.1354166666715,
      "v": 38
    },
    {
      "midi": 40,
      "hit": false,
      "t": 91671.8750000001,
      "d": 2311.197916666686,
      "v": 38
    },
    {
      "midi": 57,
      "hit": false,
      "t": 91674.47916666677,
      "d": 169.27083333332848,
      "v": 20
    },
    {
      "midi": 64,
      "hit": false,
      "t": 91692.70833333343,
      "d": 96.35416666667152,
      "v": 9
    },
    {
      "midi": 64,
      "hit": false,
      "t": 92031.2500000001,
      "d": 100.26041666665697,
      "v": 36
    },
    {
      "midi": 57,
      "hit": false,
      "t": 92036.45833333343,
      "d": 79.42708333332848,
      "v": 14
    },
    {
      "midi": 64,
      "hit": false,
      "t": 92313.80208333343,
      "d": 72.91666666667152,
      "v": 8
    },
    {
      "midi": 57,
      "hit": false,
      "t": 92316.4062500001,
      "d": 84.63541666667152,
      "v": 14
    },
    {
      "midi": 64,
      "hit": false,
      "t": 92558.5937500001,
      "d": 125,
      "v": 19
    },
    {
      "midi": 57,
      "hit": false,
      "t": 92570.3125000001,
      "d": 101.5625,
      "v": 14
    },
    {
      "midi": 57,
      "hit": false,
      "t": 92865.88541666677,
      "d": 110.67708333334303,
      "v": 12
    },
    {
      "midi": 64,
      "hit": false,
      "t": 92880.20833333344,
      "d": 85.9375,
      "v": 15
    },
    {
      "midi": 57,
      "hit": false,
      "t": 93188.80208333344,
      "d": 87.23958333332848,
      "v": 38
    },
    {
      "midi": 64,
      "hit": false,
      "t": 93201.82291666677,
      "d": 147.13541666665697,
      "v": 22
    },
    {
      "midi": 68,
      "hit": false,
      "t": 93539.0625000001,
      "d": 861.9791666666861,
      "v": 66
    },
    {
      "midi": 59,
      "hit": false,
      "t": 93553.38541666677,
      "d": 118.48958333334303,
      "v": 36
    },
    {
      "midi": 64,
      "hit": false,
      "t": 93562.5000000001,
      "d": 59.895833333343035,
      "v": 41
    },
    {
      "midi": 47,
      "hit": false,
      "t": 93596.35416666677,
      "d": 544.270833333343,
      "v": 31
    },
    {
      "midi": 59,
      "hit": false,
      "t": 93828.12500000012,
      "d": 75.52083333334303,
      "v": 26
    },
    {
      "midi": 64,
      "hit": false,
      "t": 93843.75000000012,
      "d": 57.29166666667152,
      "v": 47
    },
    {
      "midi": 59,
      "hit": false,
      "t": 94101.56250000012,
      "d": 59.89583333332848,
      "v": 40
    },
    {
      "midi": 64,
      "hit": false,
      "t": 94101.56250000012,
      "d": 67.70833333332848,
      "v": 36
    },
    {
      "midi": 66,
      "hit": false,
      "t": 94359.37500000012,
      "d": 2302.0833333333285,
      "v": 67
    },
    {
      "midi": 64,
      "hit": false,
      "t": 94372.39583333344,
      "d": 57.29166666667152,
      "v": 48
    },
    {
      "midi": 45,
      "hit": false,
      "t": 94375.00000000012,
      "d": 1578.125,
      "v": 48
    },
    {
      "midi": 61,
      "hit": false,
      "t": 94381.51041666679,
      "d": 76.82291666665697,
      "v": 49
    },
    {
      "midi": 40,
      "hit": false,
      "t": 94385.41666666679,
      "d": 2050.78125,
      "v": 37
    },
    {
      "midi": 61,
      "hit": false,
      "t": 94649.73958333344,
      "d": 66.40625,
      "v": 35
    },
    {
      "midi": 64,
      "hit": false,
      "t": 94653.64583333344,
      "d": 58.59375,
      "v": 47
    },
    {
      "midi": 61,
      "hit": false,
      "t": 94895.83333333344,
      "d": 66.40625,
      "v": 35
    },
    {
      "midi": 64,
      "hit": false,
      "t": 94916.66666666677,
      "d": 49.47916666667152,
      "v": 42
    },
    {
      "midi": 61,
      "hit": false,
      "t": 95149.73958333344,
      "d": 74.21875,
      "v": 37
    },
    {
      "midi": 64,
      "hit": false,
      "t": 95171.87500000012,
      "d": 54.6875,
      "v": 44
    },
    {
      "midi": 61,
      "hit": false,
      "t": 95433.59375000012,
      "d": 62.5,
      "v": 28
    },
    {
      "midi": 64,
      "hit": false,
      "t": 95451.82291666679,
      "d": 67.70833333332848,
      "v": 31
    },
    {
      "midi": 61,
      "hit": false,
      "t": 95696.61458333344,
      "d": 97.65625,
      "v": 35
    },
    {
      "midi": 64,
      "hit": false,
      "t": 95708.33333333344,
      "d": 88.54166666667152,
      "v": 24
    },
    {
      "midi": 63,
      "hit": false,
      "t": 96009.11458333344,
      "d": 214.84374999998545,
      "v": 36
    },
    {
      "midi": 47,
      "hit": false,
      "t": 96015.62500000012,
      "d": 433.59375,
      "v": 33
    },
    {
      "midi": 59,
      "hit": false,
      "t": 96024.73958333344,
      "d": 174.47916666665697,
      "v": 19
    },
    {
      "midi": 57,
      "hit": false,
      "t": 96024.73958333344,
      "d": 209.63541666665697,
      "v": 25
    },
    {
      "midi": 63,
      "hit": false,
      "t": 96348.95833333344,
      "d": 84.63541666667152,
      "v": 32
    },
    {
      "midi": 59,
      "hit": false,
      "t": 96354.16666666677,
      "d": 93.75000000001455,
      "v": 10
    },
    {
      "midi": 57,
      "hit": false,
      "t": 96364.58333333344,
      "d": 126.30208333334303,
      "v": 20
    },
    {
      "midi": 68,
      "hit": false,
      "t": 96511.71875000012,
      "d": 239.58333333332848,
      "v": 60
    },
    {
      "midi": 63,
      "hit": false,
      "t": 96764.32291666677,
      "d": 72.91666666667152,
      "v": 19
    },
    {
      "midi": 57,
      "hit": false,
      "t": 96807.29166666677,
      "d": 121.09375,
      "v": 19
    },
    {
      "midi": 59,
      "hit": false,
      "t": 96826.82291666677,
      "d": 62.5,
      "v": 15
    },
    {
      "midi": 64,
      "hit": false,
      "t": 97098.95833333344,
      "d": 1165.364583333314,
      "v": 56
    },
    {
      "midi": 56,
      "hit": false,
      "t": 97111.97916666677,
      "d": 152.34374999998545,
      "v": 36
    },
    {
      "midi": 59,
      "hit": false,
      "t": 97127.60416666677,
      "d": 111.97916666665697,
      "v": 36
    },
    {
      "midi": 47,
      "hit": false,
      "t": 97128.9062500001,
      "d": 1699.218749999971,
      "v": 9
    },
    {
      "midi": 40,
      "hit": false,
      "t": 97134.11458333343,
      "d": 1499.9999999999854,
      "v": 25
    },
    {
      "midi": 52,
      "hit": false,
      "t": 97141.92708333343,
      "d": 580.7291666666861,
      "v": 23
    },
    {
      "midi": 56,
      "hit": false,
      "t": 97432.29166666676,
      "d": 102.86458333334303,
      "v": 32
    },
    {
      "midi": 59,
      "hit": false,
      "t": 97442.70833333343,
      "d": 74.21875,
      "v": 8
    },
    {
      "midi": 59,
      "hit": false,
      "t": 97709.63541666677,
      "d": 65.10416666667152,
      "v": 36
    },
    {
      "midi": 56,
      "hit": false,
      "t": 97716.14583333344,
      "d": 97.65625,
      "v": 33
    },
    {
      "midi": 52,
      "hit": false,
      "t": 98026.04166666677,
      "d": 65.10416666665697,
      "v": 33
    },
    {
      "midi": 59,
      "hit": false,
      "t": 98026.04166666677,
      "d": 1072.9166666666424,
      "v": 48
    },
    {
      "midi": 56,
      "hit": false,
      "t": 98031.2500000001,
      "d": 75.52083333332848,
      "v": 15
    },
    {
      "midi": 56,
      "hit": false,
      "t": 98313.80208333343,
      "d": 65.10416666665697,
      "v": 36
    },
    {
      "midi": 52,
      "hit": false,
      "t": 98326.82291666676,
      "d": 69.01041666665697,
      "v": 21
    },
    {
      "midi": 56,
      "hit": false,
      "t": 98588.54166666674,
      "d": 78.125,
      "v": 25
    },
    {
      "midi": 52,
      "hit": false,
      "t": 98604.16666666674,
      "d": 78.125,
      "v": 20
    },
    {
      "midi": 35,
      "hit": false,
      "t": 98851.56250000007,
      "d": 282.55208333334303,
      "v": 35
    },
    {
      "midi": 56,
      "hit": false,
      "t": 98854.16666666674,
      "d": 70.3125,
      "v": 26
    },
    {
      "midi": 52,
      "hit": false,
      "t": 98856.77083333342,
      "d": 70.3125,
      "v": 20
    },
    {
      "midi": 56,
      "hit": false,
      "t": 99115.88541666674,
      "d": 85.9375,
      "v": 31
    },
    {
      "midi": 52,
      "hit": false,
      "t": 99153.64583333342,
      "d": 67.70833333332848,
      "v": 24
    },
    {
      "midi": 59,
      "hit": false,
      "t": 99436.19791666674,
      "d": 89.84375,
      "v": 37
    },
    {
      "midi": 56,
      "hit": false,
      "t": 99442.70833333342,
      "d": 52.08333333332848,
      "v": 37
    },
    {
      "midi": 68,
      "hit": false,
      "t": 99861.97916666674,
      "d": 1557.291666666657,
      "v": 77
    },
    {
      "midi": 56,
      "hit": false,
      "t": 99901.04166666674,
      "d": 88.54166666665697,
      "v": 30
    },
    {
      "midi": 47,
      "hit": false,
      "t": 99906.25000000007,
      "d": 480.46874999998545,
      "v": 31
    },
    {
      "midi": 40,
      "hit": false,
      "t": 99908.85416666674,
      "d": 472.65624999998545,
      "v": 34
    },
    {
      "midi": 52,
      "hit": false,
      "t": 99908.85416666674,
      "d": 635.416666666657,
      "v": 34
    },
    {
      "midi": 59,
      "hit": false,
      "t": 99920.57291666674,
      "d": 87.23958333332848,
      "v": 9
    },
    {
      "midi": 64,
      "hit": false,
      "t": 99925.78125000007,
      "d": 87.23958333332848,
      "v": 12
    },
    {
      "midi": 59,
      "hit": false,
      "t": 100208.3333333334,
      "d": 91.14583333332848,
      "v": 28
    },
    {
      "midi": 64,
      "hit": false,
      "t": 100208.3333333334,
      "d": 91.14583333332848,
      "v": 43
    },
    {
      "midi": 56,
      "hit": false,
      "t": 100221.35416666673,
      "d": 67.70833333332848,
      "v": 35
    },
    {
      "midi": 56,
      "hit": false,
      "t": 100479.16666666673,
      "d": 62.5,
      "v": 47
    },
    {
      "midi": 64,
      "hit": false,
      "t": 100484.37500000006,
      "d": 109.37500000001455,
      "v": 46
    },
    {
      "midi": 59,
      "hit": false,
      "t": 100494.79166666673,
      "d": 71.61458333334303,
      "v": 21
    },
    {
      "midi": 38,
      "hit": false,
      "t": 100707.03125000007,
      "d": 187.5,
      "v": 60
    },
    {
      "midi": 56,
      "hit": false,
      "t": 100770.8333333334,
      "d": 70.3125,
      "v": 52
    },
    {
      "midi": 59,
      "hit": false,
      "t": 100770.8333333334,
      "d": 132.8125,
      "v": 37
    },
    {
      "midi": 54,
      "hit": false,
      "t": 100981.7708333334,
      "d": 209.63541666667152,
      "v": 53
    },
    {
      "midi": 56,
      "hit": false,
      "t": 101082.03125000007,
      "d": 54.6875,
      "v": 47
    },
    {
      "midi": 59,
      "hit": false,
      "t": 101106.7708333334,
      "d": 57.29166666667152,
      "v": 30
    },
    {
      "midi": 56,
      "hit": false,
      "t": 101333.3333333334,
      "d": 91.14583333332848,
      "v": 51
    },
    {
      "midi": 59,
      "hit": false,
      "t": 101343.75000000007,
      "d": 89.84374999998545,
      "v": 48
    },
    {
      "midi": 37,
      "hit": false,
      "t": 101509.11458333339,
      "d": 269.53125,
      "v": 53
    },
    {
      "midi": 66,
      "hit": false,
      "t": 101601.56250000006,
      "d": 377.6041666666715,
      "v": 77
    },
    {
      "midi": 56,
      "hit": false,
      "t": 101615.88541666673,
      "d": 85.93749999998545,
      "v": 59
    },
    {
      "midi": 61,
      "hit": false,
      "t": 101635.41666666673,
      "d": 52.08333333332848,
      "v": 45
    },
    {
      "midi": 59,
      "hit": false,
      "t": 101636.71875000006,
      "d": 52.08333333332848,
      "v": 45
    },
    {
      "midi": 53,
      "hit": false,
      "t": 101875.00000000006,
      "d": 199.21875,
      "v": 60
    },
    {
      "midi": 56,
      "hit": false,
      "t": 101894.53125000006,
      "d": 67.70833333332848,
      "v": 40
    },
    {
      "midi": 61,
      "hit": false,
      "t": 101916.66666666673,
      "d": 222.65624999998545,
      "v": 43
    },
    {
      "midi": 59,
      "hit": false,
      "t": 101921.87500000006,
      "d": 54.6875,
      "v": 29
    },
    {
      "midi": 68,
      "hit": false,
      "t": 102098.95833333339,
      "d": 239.58333333331393,
      "v": 90
    },
    {
      "midi": 56,
      "hit": false,
      "t": 102289.06250000004,
      "d": 57.291666666656965,
      "v": 43
    },
    {
      "midi": 61,
      "hit": false,
      "t": 102294.27083333337,
      "d": 52.08333333332848,
      "v": 37
    },
    {
      "midi": 59,
      "hit": false,
      "t": 102294.27083333337,
      "d": 57.291666666656965,
      "v": 43
    },
    {
      "midi": 42,
      "hit": false,
      "t": 102503.90625000003,
      "d": 1454.4270833332557,
      "v": 38
    },
    {
      "midi": 54,
      "hit": false,
      "t": 102566.40625000003,
      "d": 485.6770833333285,
      "v": 43
    },
    {
      "midi": 69,
      "hit": false,
      "t": 102606.77083333336,
      "d": 1529.9479166665988,
      "v": 86
    },
    {
      "midi": 68,
      "hit": false,
      "t": 102626.30208333336,
      "d": 173.17708333334303,
      "v": 71
    },
    {
      "midi": 61,
      "hit": false,
      "t": 102628.90625000003,
      "d": 183.59375,
      "v": 43
    },
    {
      "midi": 61,
      "hit": false,
      "t": 102963.54166666669,
      "d": 89.84375,
      "v": 31
    },
    {
      "midi": 68,
      "hit": false,
      "t": 102963.54166666669,
      "d": 98.95833333332848,
      "v": 44
    },
    {
      "midi": 57,
      "hit": false,
      "t": 102966.14583333336,
      "d": 97.65624999998545,
      "v": 37
    },
    {
      "midi": 49,
      "hit": false,
      "t": 103114.58333333334,
      "d": 389.3229166666424,
      "v": 67
    },
    {
      "midi": 68,
      "hit": false,
      "t": 103259.11458333334,
      "d": 127.60416666664241,
      "v": 54
    },
    {
      "midi": 57,
      "hit": false,
      "t": 103264.32291666667,
      "d": 101.56249999998545,
      "v": 42
    },
    {
      "midi": 61,
      "hit": false,
      "t": 103265.625,
      "d": 71.61458333332848,
      "v": 39
    },
    {
      "midi": 66,
      "hit": false,
      "t": 103520.83333333331,
      "d": 166.66666666667152,
      "v": 54
    },
    {
      "midi": 61,
      "hit": false,
      "t": 103524.73958333331,
      "d": 111.97916666667152,
      "v": 37
    },
    {
      "midi": 57,
      "hit": false,
      "t": 103549.47916666664,
      "d": 153.64583333334303,
      "v": 34
    },
    {
      "midi": 50,
      "hit": false,
      "t": 103571.61458333331,
      "d": 345.05208333331393,
      "v": 66
    },
    {
      "midi": 66,
      "hit": false,
      "t": 103778.64583333331,
      "d": 124.99999999998545,
      "v": 53
    },
    {
      "midi": 61,
      "hit": false,
      "t": 103789.06249999999,
      "d": 105.46874999998545,
      "v": 41
    },
    {
      "midi": 57,
      "hit": false,
      "t": 103802.08333333331,
      "d": 59.89583333332848,
      "v": 59
    },
    {
      "midi": 51,
      "hit": false,
      "t": 103921.87499999996,
      "d": 329.4270833333285,
      "v": 69
    },
    {
      "midi": 66,
      "hit": false,
      "t": 104069.01041666661,
      "d": 255.20833333334303,
      "v": 54
    },
    {
      "midi": 57,
      "hit": false,
      "t": 104071.61458333328,
      "d": 62.5,
      "v": 33
    },
    {
      "midi": 61,
      "hit": false,
      "t": 104074.21874999996,
      "d": 191.40625,
      "v": 47
    },
    {
      "midi": 68,
      "hit": false,
      "t": 104343.74999999996,
      "d": 950.520833333343,
      "v": 77
    },
    {
      "midi": 44,
      "hit": false,
      "t": 104369.79166666663,
      "d": 731.7708333333285,
      "v": 53
    },
    {
      "midi": 64,
      "hit": false,
      "t": 104371.09374999996,
      "d": 62.5,
      "v": 47
    },
    {
      "midi": 59,
      "hit": false,
      "t": 104381.51041666663,
      "d": 71.61458333332848,
      "v": 37
    },
    {
      "midi": 52,
      "hit": false,
      "t": 104381.51041666663,
      "d": 550.78125,
      "v": 66
    },
    {
      "midi": 64,
      "hit": false,
      "t": 104640.62499999996,
      "d": 109.375,
      "v": 48
    },
    {
      "midi": 59,
      "hit": false,
      "t": 104649.73958333328,
      "d": 76.82291666667152,
      "v": 35
    },
    {
      "midi": 64,
      "hit": false,
      "t": 104914.06249999996,
      "d": 125,
      "v": 37
    },
    {
      "midi": 59,
      "hit": false,
      "t": 104932.29166666663,
      "d": 62.5,
      "v": 34
    },
    {
      "midi": 66,
      "hit": false,
      "t": 105213.54166666663,
      "d": 1140.6250000000146,
      "v": 71
    },
    {
      "midi": 61,
      "hit": false,
      "t": 105223.9583333333,
      "d": 141.92708333332848,
      "v": 48
    },
    {
      "midi": 45,
      "hit": false,
      "t": 105226.56249999997,
      "d": 1997.395833333343,
      "v": 58
    },
    {
      "midi": 52,
      "hit": false,
      "t": 105246.09374999997,
      "d": 1119.7916666666715,
      "v": 47
    },
    {
      "midi": 64,
      "hit": false,
      "t": 105259.1145833333,
      "d": 62.5,
      "v": 38
    },
    {
      "midi": 61,
      "hit": false,
      "t": 105546.87499999996,
      "d": 98.95833333334303,
      "v": 30
    },
    {
      "midi": 64,
      "hit": false,
      "t": 105553.38541666663,
      "d": 72.91666666667152,
      "v": 51
    },
    {
      "midi": 61,
      "hit": false,
      "t": 105848.9583333333,
      "d": 72.91666666667152,
      "v": 36
    },
    {
      "midi": 64,
      "hit": false,
      "t": 105848.9583333333,
      "d": 92.44791666667152,
      "v": 43
    },
    {
      "midi": 61,
      "hit": false,
      "t": 106119.79166666664,
      "d": 76.82291666667152,
      "v": 31
    },
    {
      "midi": 64,
      "hit": false,
      "t": 106134.11458333331,
      "d": 54.6875,
      "v": 39
    },
    {
      "midi": 64,
      "hit": false,
      "t": 106384.11458333331,
      "d": 89.84375,
      "v": 51
    },
    {
      "midi": 61,
      "hit": false,
      "t": 106384.11458333331,
      "d": 106.77083333332848,
      "v": 37
    },
    {
      "midi": 66,
      "hit": false,
      "t": 106501.30208333331,
      "d": 165.36458333332848,
      "v": 48
    },
    {
      "midi": 68,
      "hit": false,
      "t": 106669.27083333331,
      "d": 152.34375,
      "v": 58
    },
    {
      "midi": 61,
      "hit": false,
      "t": 106739.58333333331,
      "d": 101.5625,
      "v": 26
    },
    {
      "midi": 66,
      "hit": false,
      "t": 106838.54166666664,
      "d": 65.10416666667152,
      "v": 55
    },
    {
      "midi": 65,
      "hit": false,
      "t": 106981.77083333331,
      "d": 84.63541666667152,
      "v": 48
    },
    {
      "midi": 66,
      "hit": false,
      "t": 107082.03124999999,
      "d": 220.05208333331393,
      "v": 54
    },
    {
      "midi": 46,
      "hit": false,
      "t": 107156.24999999999,
      "d": 662.7604166666715,
      "v": 46
    },
    {
      "midi": 52,
      "hit": false,
      "t": 107188.80208333331,
      "d": 475.2604166666715,
      "v": 23
    },
    {
      "midi": 68,
      "hit": false,
      "t": 107289.06249999997,
      "d": 782.5520833333576,
      "v": 54
    },
    {
      "midi": 61,
      "hit": false,
      "t": 107316.40624999997,
      "d": 125,
      "v": 24
    },
    {
      "midi": 64,
      "hit": false,
      "t": 107317.7083333333,
      "d": 69.01041666667152,
      "v": 28
    },
    {
      "midi": 61,
      "hit": false,
      "t": 107619.79166666664,
      "d": 69.01041666667152,
      "v": 28
    },
    {
      "midi": 64,
      "hit": false,
      "t": 107630.20833333331,
      "d": 69.01041666667152,
      "v": 28
    },
    {
      "midi": 64,
      "hit": false,
      "t": 107884.11458333333,
      "d": 58.59375,
      "v": 24
    },
    {
      "midi": 61,
      "hit": false,
      "t": 107889.32291666666,
      "d": 89.84375,
      "v": 30
    },
    {
      "midi": 56,
      "hit": false,
      "t": 107986.97916666666,
      "d": 119.79166666667152,
      "v": 32
    },
    {
      "midi": 64,
      "hit": false,
      "t": 108036.45833333333,
      "d": 145.83333333332848,
      "v": 38
    },
    {
      "midi": 68,
      "hit": false,
      "t": 108394.53124999999,
      "d": 1058.5937500000146,
      "v": 53
    },
    {
      "midi": 56,
      "hit": false,
      "t": 108421.87499999999,
      "d": 510.4166666666715,
      "v": 31
    },
    {
      "midi": 47,
      "hit": false,
      "t": 108429.68749999999,
      "d": 1513.020833333343,
      "v": 26
    },
    {
      "midi": 52,
      "hit": false,
      "t": 108432.29166666666,
      "d": 464.84375,
      "v": 30
    },
    {
      "midi": 59,
      "hit": false,
      "t": 108438.80208333333,
      "d": 180.98958333332848,
      "v": 19
    },
    {
      "midi": 64,
      "hit": false,
      "t": 108446.61458333333,
      "d": 62.5,
      "v": 14
    },
    {
      "midi": 59,
      "hit": false,
      "t": 108808.59374999999,
      "d": 97.65625,
      "v": 14
    },
    {
      "midi": 64,
      "hit": false,
      "t": 108816.40624999999,
      "d": 62.5,
      "v": 12
    },
    {
      "midi": 59,
      "hit": false,
      "t": 109115.88541666666,
      "d": 91.14583333334303,
      "v": 17
    },
    {
      "midi": 64,
      "hit": false,
      "t": 109122.39583333333,
      "d": 96.35416666667152,
      "v": 14
    },
    {
      "midi": 66,
      "hit": false,
      "t": 109427.08333333333,
      "d": 674.4791666666715,
      "v": 43
    },
    {
      "midi": 59,
      "hit": false,
      "t": 109449.21875,
      "d": 147.13541666665697,
      "v": 8
    },
    {
      "midi": 54,
      "hit": false,
      "t": 109451.82291666667,
      "d": 427.0833333333285,
      "v": 20
    },
    {
      "midi": 51,
      "hit": false,
      "t": 109463.54166666667,
      "d": 493.4895833333285,
      "v": 30
    },
    {
      "midi": 63,
      "hit": false,
      "t": 109468.75,
      "d": 130.20833333332848,
      "v": 19
    },
    {
      "midi": 59,
      "hit": false,
      "t": 109736.97916666666,
      "d": 101.56250000001455,
      "v": 26
    },
    {
      "midi": 63,
      "hit": false,
      "t": 109739.58333333333,
      "d": 88.54166666667152,
      "v": 26
    },
    {
      "midi": 63,
      "hit": false,
      "t": 110049.47916666667,
      "d": 87.23958333332848,
      "v": 27
    },
    {
      "midi": 59,
      "hit": false,
      "t": 110066.40625,
      "d": 67.70833333332848,
      "v": 17
    },
    {
      "midi": 51,
      "hit": false,
      "t": 110609.375,
      "d": 161.45833333334303,
      "v": 26
    },
    {
      "midi": 66,
      "hit": false,
      "t": 110611.97916666667,
      "d": 225.26041666667152,
      "v": 51
    },
    {
      "midi": 47,
      "hit": false,
      "t": 110630.20833333334,
      "d": 83.33333333334303,
      "v": 9
    },
    {
      "midi": 54,
      "hit": false,
      "t": 110636.71875000001,
      "d": 128.90625,
      "v": 14
    },
    {
      "midi": 45,
      "hit": false,
      "t": 110647.13541666669,
      "d": 87.23958333332848,
      "v": 24
    },
    {
      "midi": 63,
      "hit": false,
      "t": 110989.58333333334,
      "d": 161.45833333331393,
      "v": 63
    },
    {
      "midi": 54,
      "hit": false,
      "t": 111006.51041666667,
      "d": 87.23958333332848,
      "v": 30
    },
    {
      "midi": 51,
      "hit": false,
      "t": 111024.73958333334,
      "d": 87.23958333331393,
      "v": 34
    },
    {
      "midi": 47,
      "hit": false,
      "t": 111032.55208333334,
      "d": 62.49999999998545,
      "v": 19
    },
    {
      "midi": 45,
      "hit": false,
      "t": 111033.85416666667,
      "d": 78.12499999998545,
      "v": 34
    },
    {
      "midi": 59,
      "hit": false,
      "t": 111296.87499999999,
      "d": 166.66666666667152,
      "v": 74
    },
    {
      "midi": 54,
      "hit": false,
      "t": 111307.29166666666,
      "d": 71.61458333332848,
      "v": 46
    },
    {
      "midi": 51,
      "hit": false,
      "t": 111312.49999999999,
      "d": 93.75,
      "v": 39
    },
    {
      "midi": 45,
      "hit": false,
      "t": 111324.21874999999,
      "d": 79.42708333332848,
      "v": 36
    },
    {
      "midi": 47,
      "hit": false,
      "t": 111333.33333333331,
      "d": 69.01041666667152,
      "v": 13
    },
    {
      "midi": 59,
      "hit": false,
      "t": 111595.05208333333,
      "d": 139.32291666665697,
      "v": 27
    },
    {
      "midi": 56,
      "hit": false,
      "t": 111598.95833333333,
      "d": 166.66666666665697,
      "v": 45
    },
    {
      "midi": 64,
      "hit": false,
      "t": 111604.16666666666,
      "d": 1005.2083333333139,
      "v": 84
    },
    {
      "midi": 44,
      "hit": false,
      "t": 111609.37499999999,
      "d": 154.94791666667152,
      "v": 55
    },
    {
      "midi": 52,
      "hit": false,
      "t": 111619.79166666666,
      "d": 130.20833333332848,
      "v": 54
    },
    {
      "midi": 47,
      "hit": false,
      "t": 111621.09374999999,
      "d": 136.71875,
      "v": 24
    },
    {
      "midi": 56,
      "hit": false,
      "t": 111848.95833333331,
      "d": 88.54166666665697,
      "v": 49
    },
    {
      "midi": 44,
      "hit": false,
      "t": 111851.56249999999,
      "d": 127.60416666664241,
      "v": 50
    },
    {
      "midi": 59,
      "hit": false,
      "t": 111864.58333333331,
      "d": 62.5,
      "v": 35
    },
    {
      "midi": 52,
      "hit": false,
      "t": 111865.88541666664,
      "d": 66.40625,
      "v": 55
    },
    {
      "midi": 47,
      "hit": false,
      "t": 111865.88541666664,
      "d": 72.91666666665697,
      "v": 32
    },
    {
      "midi": 56,
      "hit": false,
      "t": 112111.97916666663,
      "d": 54.6875,
      "v": 49
    },
    {
      "midi": 59,
      "hit": false,
      "t": 112121.09374999996,
      "d": 55.989583333343035,
      "v": 41
    },
    {
      "midi": 44,
      "hit": false,
      "t": 112121.09374999996,
      "d": 70.31250000001455,
      "v": 27
    },
    {
      "midi": 52,
      "hit": false,
      "t": 112131.51041666663,
      "d": 70.31250000001455,
      "v": 28
    },
    {
      "midi": 47,
      "hit": false,
      "t": 112136.71874999996,
      "d": 70.31250000001455,
      "v": 20
    },
    {
      "midi": 52,
      "hit": false,
      "t": 112337.2395833333,
      "d": 66.40625,
      "v": 46
    },
    {
      "midi": 56,
      "hit": false,
      "t": 112359.37499999997,
      "d": 67.70833333332848,
      "v": 44
    },
    {
      "midi": 47,
      "hit": false,
      "t": 112359.37499999997,
      "d": 79.42708333332848,
      "v": 22
    },
    {
      "midi": 44,
      "hit": false,
      "t": 112364.5833333333,
      "d": 76.82291666667152,
      "v": 32
    },
    {
      "midi": 59,
      "hit": false,
      "t": 112378.90624999997,
      "d": 48.17708333332848,
      "v": 51
    },
    {
      "midi": 56,
      "hit": false,
      "t": 112639.32291666664,
      "d": 52.08333333332848,
      "v": 64
    },
    {
      "midi": 44,
      "hit": false,
      "t": 112639.32291666664,
      "d": 72.91666666667152,
      "v": 38
    },
    {
      "midi": 47,
      "hit": false,
      "t": 112640.62499999997,
      "d": 58.59375,
      "v": 28
    },
    {
      "midi": 52,
      "hit": false,
      "t": 112640.62499999997,
      "d": 61.19791666667152,
      "v": 58
    },
    {
      "midi": 59,
      "hit": false,
      "t": 112645.8333333333,
      "d": 66.40625000001455,
      "v": 48
    },
    {
      "midi": 64,
      "hit": false,
      "t": 112749.99999999999,
      "d": 270.8333333333285,
      "v": 84
    },
    {
      "midi": 52,
      "hit": false,
      "t": 112865.88541666666,
      "d": 67.70833333332848,
      "v": 54
    },
    {
      "midi": 56,
      "hit": false,
      "t": 112876.30208333333,
      "d": 75.52083333332848,
      "v": 67
    },
    {
      "midi": 44,
      "hit": false,
      "t": 112876.30208333333,
      "d": 208.33333333331393,
      "v": 38
    },
    {
      "midi": 47,
      "hit": false,
      "t": 112884.11458333333,
      "d": 69.01041666665697,
      "v": 9
    },
    {
      "midi": 59,
      "hit": false,
      "t": 112885.41666666666,
      "d": 48.17708333332848,
      "v": 39
    },
    {
      "midi": 69,
      "hit": false,
      "t": 113139.32291666664,
      "d": 595.052083333343,
      "v": 105
    },
    {
      "midi": 57,
      "hit": false,
      "t": 113156.24999999997,
      "d": 190.10416666668607,
      "v": 75
    },
    {
      "midi": 42,
      "hit": false,
      "t": 113156.24999999997,
      "d": 213.54166666668607,
      "v": 45
    },
    {
      "midi": 59,
      "hit": false,
      "t": 113158.85416666664,
      "d": 195.31250000001455,
      "v": 58
    },
    {
      "midi": 54,
      "hit": false,
      "t": 113166.66666666664,
      "d": 192.70833333334303,
      "v": 47
    },
    {
      "midi": 47,
      "hit": false,
      "t": 113169.27083333331,
      "d": 205.72916666667152,
      "v": 38
    },
    {
      "midi": 63,
      "hit": false,
      "t": 113171.87499999999,
      "d": 69.01041666667152,
      "v": 55
    },
    {
      "midi": 54,
      "hit": false,
      "t": 113462.23958333331,
      "d": 139.32291666667152,
      "v": 48
    },
    {
      "midi": 42,
      "hit": false,
      "t": 113471.35416666664,
      "d": 95.05208333334303,
      "v": 39
    },
    {
      "midi": 63,
      "hit": false,
      "t": 113479.16666666664,
      "d": 117.18750000001455,
      "v": 70
    },
    {
      "midi": 57,
      "hit": false,
      "t": 113481.77083333331,
      "d": 84.63541666667152,
      "v": 66
    },
    {
      "midi": 59,
      "hit": false,
      "t": 113484.37499999999,
      "d": 78.125,
      "v": 17
    },
    {
      "midi": 47,
      "hit": false,
      "t": 113484.37499999999,
      "d": 104.16666666667152,
      "v": 37
    },
    {
      "midi": 63,
      "hit": false,
      "t": 113766.92708333331,
      "d": 130.20833333332848,
      "v": 67
    },
    {
      "midi": 57,
      "hit": false,
      "t": 113774.73958333331,
      "d": 204.42708333334303,
      "v": 68
    },
    {
      "midi": 59,
      "hit": false,
      "t": 113779.94791666664,
      "d": 194.01041666667152,
      "v": 47
    },
    {
      "midi": 54,
      "hit": false,
      "t": 113789.06249999997,
      "d": 139.32291666667152,
      "v": 56
    },
    {
      "midi": 47,
      "hit": false,
      "t": 113808.59374999997,
      "d": 118.48958333334303,
      "v": 35
    },
    {
      "midi": 42,
      "hit": false,
      "t": 113812.49999999997,
      "d": 182.29166666668607,
      "v": 41
    },
    {
      "midi": 69,
      "hit": false,
      "t": 113816.40624999997,
      "d": 160.15625000001455,
      "v": 92
    },
    {
      "midi": 69,
      "hit": false,
      "t": 114057.29166666666,
      "d": 626.3020833333285,
      "v": 94
    },
    {
      "midi": 57,
      "hit": false,
      "t": 114074.21874999999,
      "d": 200.52083333331393,
      "v": 52
    },
    {
      "midi": 59,
      "hit": false,
      "t": 114074.21874999999,
      "d": 201.8229166666424,
      "v": 47
    },
    {
      "midi": 64,
      "hit": false,
      "t": 114078.12499999999,
      "d": 67.70833333331393,
      "v": 69
    },
    {
      "midi": 52,
      "hit": false,
      "t": 114098.95833333331,
      "d": 165.36458333331393,
      "v": 59
    },
    {
      "midi": 40,
      "hit": false,
      "t": 114111.97916666664,
      "d": 152.34374999998545,
      "v": 54
    },
    {
      "midi": 47,
      "hit": false,
      "t": 114128.90624999997,
      "d": 152.34374999998545,
      "v": 38
    },
    {
      "midi": 59,
      "hit": false,
      "t": 114384.1145833333,
      "d": 140.62500000001455,
      "v": 28
    },
    {
      "midi": 57,
      "hit": false,
      "t": 114386.71874999997,
      "d": 134.11458333334303,
      "v": 56
    },
    {
      "midi": 47,
      "hit": false,
      "t": 114394.53124999997,
      "d": 114.58333333334303,
      "v": 38
    },
    {
      "midi": 52,
      "hit": false,
      "t": 114401.04166666664,
      "d": 75.52083333334303,
      "v": 51
    },
    {
      "midi": 40,
      "hit": false,
      "t": 114411.45833333331,
      "d": 100.26041666667152,
      "v": 45
    },
    {
      "midi": 64,
      "hit": false,
      "t": 114421.87499999999,
      "d": 117.1875,
      "v": 50
    },
    {
      "midi": 52,
      "hit": false,
      "t": 114666.66666666666,
      "d": 67.70833333332848,
      "v": 63
    },
    {
      "midi": 57,
      "hit": false,
      "t": 114677.08333333333,
      "d": 69.01041666665697,
      "v": 32
    },
    {
      "midi": 64,
      "hit": false,
      "t": 114682.29166666666,
      "d": 44.27083333332848,
      "v": 59
    },
    {
      "midi": 59,
      "hit": false,
      "t": 114688.80208333331,
      "d": 54.6875,
      "v": 21
    },
    {
      "midi": 40,
      "hit": false,
      "t": 114691.40624999999,
      "d": 67.70833333332848,
      "v": 32
    },
    {
      "midi": 47,
      "hit": false,
      "t": 114699.21874999999,
      "d": 50.78125,
      "v": 40
    },
    {
      "midi": 68,
      "hit": false,
      "t": 114966.14583333331,
      "d": 333.3333333333576,
      "v": 84
    },
    {
      "midi": 59,
      "hit": false,
      "t": 114971.35416666664,
      "d": 100.26041666668607,
      "v": 37
    },
    {
      "midi": 56,
      "hit": false,
      "t": 114973.95833333331,
      "d": 78.12500000001455,
      "v": 54
    },
    {
      "midi": 47,
      "hit": false,
      "t": 114973.95833333331,
      "d": 208.3333333333576,
      "v": 31
    },
    {
      "midi": 40,
      "hit": false,
      "t": 114973.95833333331,
      "d": 209.63541666668607,
      "v": 42
    },
    {
      "midi": 64,
      "hit": false,
      "t": 114980.46874999999,
      "d": 65.10416666667152,
      "v": 30
    },
    {
      "midi": 52,
      "hit": false,
      "t": 114986.97916666666,
      "d": 177.08333333334303,
      "v": 42
    },
    {
      "midi": 56,
      "hit": false,
      "t": 115264.32291666667,
      "d": 48.17708333332848,
      "v": 65
    },
    {
      "midi": 64,
      "hit": false,
      "t": 115274.73958333334,
      "d": 46.87499999998545,
      "v": 63
    },
    {
      "midi": 59,
      "hit": false,
      "t": 115283.85416666667,
      "d": 44.27083333332848,
      "v": 56
    },
    {
      "midi": 40,
      "hit": false,
      "t": 115283.85416666667,
      "d": 72.91666666665697,
      "v": 56
    },
    {
      "midi": 47,
      "hit": false,
      "t": 115283.85416666667,
      "d": 106.77083333331393,
      "v": 46
    },
    {
      "midi": 52,
      "hit": false,
      "t": 115291.66666666667,
      "d": 59.89583333332848,
      "v": 47
    },
    {
      "midi": 68,
      "hit": false,
      "t": 115369.79166666666,
      "d": 221.35416666667152,
      "v": 98
    },
    {
      "midi": 52,
      "hit": false,
      "t": 115536.45833333331,
      "d": 67.70833333334303,
      "v": 66
    },
    {
      "midi": 59,
      "hit": false,
      "t": 115539.06249999999,
      "d": 85.9375,
      "v": 44
    },
    {
      "midi": 56,
      "hit": false,
      "t": 115541.66666666666,
      "d": 89.84375,
      "v": 78
    },
    {
      "midi": 64,
      "hit": false,
      "t": 115544.27083333333,
      "d": 122.39583333332848,
      "v": 77
    },
    {
      "midi": 47,
      "hit": false,
      "t": 115549.47916666666,
      "d": 66.40625,
      "v": 52
    },
    {
      "midi": 40,
      "hit": false,
      "t": 115553.38541666666,
      "d": 96.35416666667152,
      "v": 56
    },
    {
      "midi": 71,
      "hit": false,
      "t": 115832.03124999999,
      "d": 269.53124999998545,
      "v": 99
    },
    {
      "midi": 50,
      "hit": false,
      "t": 115848.95833333331,
      "d": 175.78124999998545,
      "v": 85
    },
    {
      "midi": 38,
      "hit": false,
      "t": 115854.16666666664,
      "d": 184.89583333332848,
      "v": 71
    },
    {
      "midi": 40,
      "hit": false,
      "t": 115854.16666666664,
      "d": 195.3125,
      "v": 75
    },
    {
      "midi": 64,
      "hit": false,
      "t": 115869.79166666664,
      "d": 71.61458333332848,
      "v": 26
    },
    {
      "midi": 59,
      "hit": false,
      "t": 115881.51041666664,
      "d": 40.36458333332848,
      "v": 64
    },
    {
      "midi": 68,
      "hit": false,
      "t": 116166.66666666664,
      "d": 87.23958333329938,
      "v": 109
    },
    {
      "midi": 64,
      "hit": false,
      "t": 116187.49999999997,
      "d": 36.45833333331393,
      "v": 75
    },
    {
      "midi": 59,
      "hit": false,
      "t": 116188.8020833333,
      "d": 40.36458333331393,
      "v": 64
    },
    {
      "midi": 50,
      "hit": false,
      "t": 116194.01041666663,
      "d": 92.44791666664241,
      "v": 80
    },
    {
      "midi": 40,
      "hit": false,
      "t": 116203.12499999996,
      "d": 105.46874999998545,
      "v": 50
    },
    {
      "midi": 38,
      "hit": false,
      "t": 116207.03124999996,
      "d": 106.77083333331393,
      "v": 48
    },
    {
      "midi": 64,
      "hit": false,
      "t": 116458.33333333327,
      "d": 118.48958333332848,
      "v": 113
    },
    {
      "midi": 56,
      "hit": false,
      "t": 116473.95833333327,
      "d": 46.87499999998545,
      "v": 85
    },
    {
      "midi": 50,
      "hit": false,
      "t": 116479.1666666666,
      "d": 67.70833333332848,
      "v": 76
    },
    {
      "midi": 59,
      "hit": false,
      "t": 116489.58333333327,
      "d": 54.68749999998545,
      "v": 30
    },
    {
      "midi": 40,
      "hit": false,
      "t": 116490.8854166666,
      "d": 50.78124999998545,
      "v": 67
    },
    {
      "midi": 38,
      "hit": false,
      "t": 116499.99999999993,
      "d": 62.5,
      "v": 59
    },
    {
      "midi": 69,
      "hit": false,
      "t": 116746.09374999993,
      "d": 1075.5208333333285,
      "v": 112
    },
    {
      "midi": 64,
      "hit": false,
      "t": 116749.99999999993,
      "d": 76.82291666667152,
      "v": 26
    },
    {
      "midi": 57,
      "hit": false,
      "t": 116753.90624999993,
      "d": 162.76041666667152,
      "v": 85
    },
    {
      "midi": 61,
      "hit": false,
      "t": 116761.71874999993,
      "d": 65.10416666667152,
      "v": 56
    },
    {
      "midi": 49,
      "hit": false,
      "t": 116761.71874999993,
      "d": 175.78125,
      "v": 74
    },
    {
      "midi": 37,
      "hit": false,
      "t": 116769.53124999993,
      "d": 174.47916666667152,
      "v": 59
    },
    {
      "midi": 40,
      "hit": false,
      "t": 116769.53124999993,
      "d": 177.08333333334303,
      "v": 55
    },
    {
      "midi": 57,
      "hit": false,
      "t": 117011.71874999994,
      "d": 109.37499999998545,
      "v": 57
    },
    {
      "midi": 61,
      "hit": false,
      "t": 117020.83333333327,
      "d": 87.23958333332848,
      "v": 67
    },
    {
      "midi": 49,
      "hit": false,
      "t": 117020.83333333327,
      "d": 113.28124999998545,
      "v": 62
    },
    {
      "midi": 64,
      "hit": false,
      "t": 117022.1354166666,
      "d": 148.43749999998545,
      "v": 71
    },
    {
      "midi": 37,
      "hit": false,
      "t": 117024.73958333327,
      "d": 121.09374999998545,
      "v": 61
    },
    {
      "midi": 40,
      "hit": false,
      "t": 117041.6666666666,
      "d": 98.95833333332848,
      "v": 62
    },
    {
      "midi": 57,
      "hit": false,
      "t": 117261.71874999991,
      "d": 100.26041666667152,
      "v": 61
    },
    {
      "midi": 64,
      "hit": false,
      "t": 117264.32291666658,
      "d": 157.55208333334303,
      "v": 85
    },
    {
      "midi": 49,
      "hit": false,
      "t": 117276.04166666658,
      "d": 119.79166666667152,
      "v": 82
    },
    {
      "midi": 61,
      "hit": false,
      "t": 117278.64583333326,
      "d": 96.35416666665697,
      "v": 66
    },
    {
      "midi": 37,
      "hit": false,
      "t": 117278.64583333326,
      "d": 110.67708333332848,
      "v": 62
    },
    {
      "midi": 40,
      "hit": false,
      "t": 117299.47916666658,
      "d": 82.03125,
      "v": 64
    },
    {
      "midi": 49,
      "hit": false,
      "t": 117501.30208333326,
      "d": 186.19791666667152,
      "v": 67
    },
    {
      "midi": 64,
      "hit": false,
      "t": 117503.90624999993,
      "d": 195.3125,
      "v": 81
    },
    {
      "midi": 37,
      "hit": false,
      "t": 117506.5104166666,
      "d": 201.82291666665697,
      "v": 64
    },
    {
      "midi": 57,
      "hit": false,
      "t": 117514.3229166666,
      "d": 131.51041666665697,
      "v": 72
    },
    {
      "midi": 40,
      "hit": false,
      "t": 117514.3229166666,
      "d": 214.84374999998545,
      "v": 61
    },
    {
      "midi": 61,
      "hit": false,
      "t": 117515.62499999993,
      "d": 134.11458333332848,
      "v": 66
    },
    {
      "midi": 64,
      "hit": false,
      "t": 117786.45833333326,
      "d": 162.76041666667152,
      "v": 80
    },
    {
      "midi": 57,
      "hit": false,
      "t": 117794.27083333326,
      "d": 95.05208333334303,
      "v": 72
    },
    {
      "midi": 49,
      "hit": false,
      "t": 117794.27083333326,
      "d": 132.81250000001455,
      "v": 76
    },
    {
      "midi": 37,
      "hit": false,
      "t": 117802.08333333326,
      "d": 126.30208333334303,
      "v": 60
    },
    {
      "midi": 61,
      "hit": false,
      "t": 117808.59374999993,
      "d": 66.40625,
      "v": 75
    },
    {
      "midi": 40,
      "hit": false,
      "t": 117808.59374999993,
      "d": 135.41666666667152,
      "v": 81
    },
    {
      "midi": 69,
      "hit": false,
      "t": 117916.6666666666,
      "d": 339.84375,
      "v": 106
    },
    {
      "midi": 49,
      "hit": false,
      "t": 118074.21874999993,
      "d": 149.73958333332848,
      "v": 79
    },
    {
      "midi": 57,
      "hit": false,
      "t": 118076.8229166666,
      "d": 97.65624999998545,
      "v": 82
    },
    {
      "midi": 61,
      "hit": false,
      "t": 118078.12499999993,
      "d": 78.125,
      "v": 70
    },
    {
      "midi": 64,
      "hit": false,
      "t": 118083.33333333326,
      "d": 143.22916666667152,
      "v": 57
    },
    {
      "midi": 40,
      "hit": false,
      "t": 118096.35416666658,
      "d": 72.91666666667152,
      "v": 36
    },
    {
      "midi": 37,
      "hit": false,
      "t": 118098.95833333326,
      "d": 195.31250000001455,
      "v": 53
    },
    {
      "midi": 74,
      "hit": false,
      "t": 118364.58333333327,
      "d": 651.0416666667006,
      "v": 121
    },
    {
      "midi": 68,
      "hit": false,
      "t": 118376.30208333327,
      "d": 52.083333333343035,
      "v": 92
    },
    {
      "midi": 62,
      "hit": false,
      "t": 118384.11458333327,
      "d": 63.802083333343035,
      "v": 86
    },
    {
      "midi": 47,
      "hit": false,
      "t": 118384.11458333327,
      "d": 231.77083333334303,
      "v": 79
    },
    {
      "midi": 40,
      "hit": false,
      "t": 118384.11458333327,
      "d": 244.79166666667152,
      "v": 72
    },
    {
      "midi": 64,
      "hit": false,
      "t": 118386.71874999994,
      "d": 57.29166666667152,
      "v": 100
    },
    {
      "midi": 35,
      "hit": false,
      "t": 118389.32291666661,
      "d": 226.5625,
      "v": 80
    },
    {
      "midi": 68,
      "hit": false,
      "t": 118541.66666666661,
      "d": 83.33333333332848,
      "v": 9
    },
    {
      "midi": 62,
      "hit": false,
      "t": 118561.19791666661,
      "d": 59.89583333332848,
      "v": 9
    },
    {
      "midi": 64,
      "hit": false,
      "t": 118571.61458333328,
      "d": 59.89583333332848,
      "v": 9
    },
    {
      "midi": 47,
      "hit": false,
      "t": 118696.61458333328,
      "d": 173.17708333334303,
      "v": 78
    },
    {
      "midi": 35,
      "hit": false,
      "t": 118701.82291666661,
      "d": 182.29166666668607,
      "v": 60
    },
    {
      "midi": 40,
      "hit": false,
      "t": 118716.14583333328,
      "d": 165.36458333334303,
      "v": 69
    },
    {
      "midi": 68,
      "hit": false,
      "t": 118718.74999999996,
      "d": 171.87500000001455,
      "v": 76
    },
    {
      "midi": 64,
      "hit": false,
      "t": 118721.35416666663,
      "d": 130.20833333332848,
      "v": 57
    },
    {
      "midi": 62,
      "hit": false,
      "t": 118726.56249999996,
      "d": 125,
      "v": 74
    },
    {
      "midi": 68,
      "hit": false,
      "t": 118994.79166666664,
      "d": 171.87499999998545,
      "v": 83
    },
    {
      "midi": 62,
      "hit": false,
      "t": 119020.8333333333,
      "d": 78.125,
      "v": 80
    },
    {
      "midi": 64,
      "hit": false,
      "t": 119024.7395833333,
      "d": 53.38541666667152,
      "v": 72
    },
    {
      "midi": 47,
      "hit": false,
      "t": 119041.66666666663,
      "d": 145.83333333332848,
      "v": 73
    },
    {
      "midi": 40,
      "hit": false,
      "t": 119063.8020833333,
      "d": 119.79166666665697,
      "v": 60
    },
    {
      "midi": 35,
      "hit": false,
      "t": 119066.40624999997,
      "d": 162.76041666665697,
      "v": 44
    },
    {
      "midi": 74,
      "hit": false,
      "t": 119104.16666666663,
      "d": 217.44791666667152,
      "v": 106
    },
    {
      "midi": 74,
      "hit": false,
      "t": 119438.8020833333,
      "d": 527.3437499999854,
      "v": 112
    },
    {
      "midi": 62,
      "hit": false,
      "t": 119453.12499999997,
      "d": 273.4375,
      "v": 89
    },
    {
      "midi": 64,
      "hit": false,
      "t": 119457.03124999997,
      "d": 261.71875,
      "v": 93
    },
    {
      "midi": 69,
      "hit": false,
      "t": 119457.03124999997,
      "d": 266.9270833333285,
      "v": 83
    },
    {
      "midi": 45,
      "hit": false,
      "t": 119462.2395833333,
      "d": 226.56250000001455,
      "v": 91
    },
    {
      "midi": 33,
      "hit": false,
      "t": 119468.74999999997,
      "d": 233.07291666667152,
      "v": 84
    },
    {
      "midi": 40,
      "hit": false,
      "t": 119473.95833333331,
      "d": 233.07291666665697,
      "v": 78
    },
    {
      "midi": 69,
      "hit": false,
      "t": 119886.71874999997,
      "d": 124.9999999999709,
      "v": 70
    },
    {
      "midi": 62,
      "hit": false,
      "t": 119894.53124999997,
      "d": 136.7187499999709,
      "v": 60
    },
    {
      "midi": 45,
      "hit": false,
      "t": 119899.7395833333,
      "d": 65.10416666665697,
      "v": 69
    },
    {
      "midi": 64,
      "hit": false,
      "t": 119899.7395833333,
      "d": 114.58333333331393,
      "v": 52
    },
    {
      "midi": 33,
      "hit": false,
      "t": 119903.6458333333,
      "d": 75.52083333331393,
      "v": 41
    },
    {
      "midi": 40,
      "hit": false,
      "t": 119912.76041666663,
      "d": 53.385416666656965,
      "v": 51
    },
    {
      "midi": 64,
      "hit": false,
      "t": 120260.41666666661,
      "d": 66.40625,
      "v": 63
    },
    {
      "midi": 69,
      "hit": false,
      "t": 120265.62499999994,
      "d": 66.40625,
      "v": 63
    },
    {
      "midi": 45,
      "hit": false,
      "t": 120265.62499999994,
      "d": 71.61458333332848,
      "v": 58
    },
    {
      "midi": 62,
      "hit": false,
      "t": 120266.92708333327,
      "d": 80.72916666667152,
      "v": 66
    },
    {
      "midi": 40,
      "hit": false,
      "t": 120281.24999999994,
      "d": 55.98958333332848,
      "v": 50
    },
    {
      "midi": 33,
      "hit": false,
      "t": 120291.66666666661,
      "d": 55.98958333332848,
      "v": 50
    },
    {
      "midi": 73,
      "hit": false,
      "t": 120587.23958333327,
      "d": 484.37499999995634,
      "v": 93
    },
    {
      "midi": 45,
      "hit": false,
      "t": 120604.1666666666,
      "d": 78.12499999998545,
      "v": 53
    },
    {
      "midi": 69,
      "hit": false,
      "t": 120606.77083333327,
      "d": 57.291666666656965,
      "v": 58
    },
    {
      "midi": 33,
      "hit": false,
      "t": 120606.77083333327,
      "d": 82.0312499999709,
      "v": 46
    },
    {
      "midi": 61,
      "hit": false,
      "t": 120614.58333333327,
      "d": 67.70833333331393,
      "v": 65
    },
    {
      "midi": 64,
      "hit": false,
      "t": 120618.48958333327,
      "d": 58.59374999998545,
      "v": 61
    },
    {
      "midi": 40,
      "hit": false,
      "t": 120631.5104166666,
      "d": 52.08333333331393,
      "v": 38
    },
    {
      "midi": 69,
      "hit": false,
      "t": 120937.49999999991,
      "d": 256.5104166666424,
      "v": 71
    },
    {
      "midi": 64,
      "hit": false,
      "t": 120957.03124999991,
      "d": 167.9687499999709,
      "v": 56
    },
    {
      "midi": 45,
      "hit": false,
      "t": 120963.54166666657,
      "d": 143.22916666665697,
      "v": 59
    },
    {
      "midi": 61,
      "hit": false,
      "t": 120968.7499999999,
      "d": 160.15624999998545,
      "v": 47
    },
    {
      "midi": 40,
      "hit": false,
      "t": 120973.95833333323,
      "d": 130.20833333332848,
      "v": 40
    },
    {
      "midi": 33,
      "hit": false,
      "t": 120984.3749999999,
      "d": 154.94791666665697,
      "v": 36
    },
    {
      "midi": 73,
      "hit": false,
      "t": 121151.04166666656,
      "d": 300.78124999998545,
      "v": 88
    },
    {
      "midi": 61,
      "hit": false,
      "t": 121343.74999999988,
      "d": 182.29166666665697,
      "v": 48
    },
    {
      "midi": 69,
      "hit": false,
      "t": 121356.77083333321,
      "d": 419.2708333333285,
      "v": 71
    },
    {
      "midi": 64,
      "hit": false,
      "t": 121359.37499999988,
      "d": 177.08333333332848,
      "v": 41
    },
    {
      "midi": 33,
      "hit": false,
      "t": 121369.79166666656,
      "d": 54.68749999998545,
      "v": 42
    },
    {
      "midi": 45,
      "hit": false,
      "t": 121374.99999999988,
      "d": 67.70833333332848,
      "v": 39
    },
    {
      "midi": 40,
      "hit": false,
      "t": 121376.30208333321,
      "d": 50.78125,
      "v": 38
    },
    {
      "midi": 73,
      "hit": false,
      "t": 121770.83333333321,
      "d": 561.1979166666715,
      "v": 83
    },
    {
      "midi": 61,
      "hit": false,
      "t": 121826.82291666654,
      "d": 192.70833333334303,
      "v": 36
    },
    {
      "midi": 52,
      "hit": false,
      "t": 121828.12499999987,
      "d": 183.59375000001455,
      "v": 34
    },
    {
      "midi": 68,
      "hit": false,
      "t": 121841.14583333321,
      "d": 203.125,
      "v": 23
    },
    {
      "midi": 45,
      "hit": false,
      "t": 121843.74999999988,
      "d": 352.8645833333285,
      "v": 26
    },
    {
      "midi": 64,
      "hit": false,
      "t": 121856.77083333321,
      "d": 182.29166666667152,
      "v": 29
    },
    {
      "midi": 61,
      "hit": false,
      "t": 122261.71874999988,
      "d": 66.40625,
      "v": 30
    },
    {
      "midi": 68,
      "hit": false,
      "t": 122269.53124999988,
      "d": 299.47916666665697,
      "v": 38
    },
    {
      "midi": 64,
      "hit": false,
      "t": 122273.43749999988,
      "d": 62.5,
      "v": 9
    },
    {
      "midi": 52,
      "hit": false,
      "t": 122278.64583333321,
      "d": 65.10416666667152,
      "v": 27
    },
    {
      "midi": 57,
      "hit": false,
      "t": 122278.64583333321,
      "d": 78.125,
      "v": 15
    },
    {
      "midi": 73,
      "hit": false,
      "t": 122520.83333333321,
      "d": 903.645833333343,
      "v": 61
    },
    {
      "midi": 61,
      "hit": false,
      "t": 122716.14583333321,
      "d": 62.5,
      "v": 33
    },
    {
      "midi": 57,
      "hit": false,
      "t": 122718.74999999988,
      "d": 67.70833333332848,
      "v": 25
    },
    {
      "midi": 68,
      "hit": false,
      "t": 122774.73958333321,
      "d": 178.38541666667152,
      "v": 29
    },
    {
      "midi": 64,
      "hit": false,
      "t": 122821.61458333321,
      "d": 74.21875,
      "v": 22
    },
    {
      "midi": 39,
      "hit": false,
      "t": 123144.53124999988,
      "d": 250,
      "v": 33
    },
    {
      "midi": 73,
      "hit": false,
      "t": 123621.09374999988,
      "d": 1555.9895833333576,
      "v": 36
    },
    {
      "midi": 58,
      "hit": false,
      "t": 123764.32291666656,
      "d": 188.80208333332848,
      "v": 33
    },
    {
      "midi": 61,
      "hit": false,
      "t": 124126.30208333321,
      "d": 76.82291666667152,
      "v": 26
    },
    {
      "midi": 63,
      "hit": false,
      "t": 124361.97916666656,
      "d": 79.42708333332848,
      "v": 25
    },
    {
      "midi": 67,
      "hit": false,
      "t": 124514.32291666656,
      "d": 89.84375,
      "v": 23
    },
    {
      "midi": 70,
      "hit": false,
      "t": 124626.30208333323,
      "d": 76.82291666667152,
      "v": 47
    },
    {
      "midi": 67,
      "hit": false,
      "t": 124736.97916666657,
      "d": 166.66666666667152,
      "v": 22
    },
    {
      "midi": 63,
      "hit": false,
      "t": 124889.32291666657,
      "d": 69.01041666667152,
      "v": 29
    },
    {
      "midi": 75,
      "hit": false,
      "t": 124976.56249999991,
      "d": 70.3125,
      "v": 30
    },
    {
      "midi": 61,
      "hit": false,
      "t": 124989.58333333324,
      "d": 74.21875,
      "v": 22
    },
    {
      "midi": 79,
      "hit": false,
      "t": 125093.74999999991,
      "d": 118.48958333332848,
      "v": 35
    },
    {
      "midi": 82,
      "hit": false,
      "t": 125234.37499999991,
      "d": 102.86458333332848,
      "v": 30
    },
    {
      "midi": 85,
      "hit": false,
      "t": 125286.45833333324,
      "d": 72.91666666667152,
      "v": 38
    },
    {
      "midi": 61,
      "hit": false,
      "t": 125389.32291666658,
      "d": 110.67708333332848,
      "v": 36
    },
    {
      "midi": 63,
      "hit": false,
      "t": 125539.06249999991,
      "d": 65.10416666667152,
      "v": 36
    },
    {
      "midi": 73,
      "hit": false,
      "t": 125756.51041666658,
      "d": 205.72916666665697,
      "v": 70
    },
    {
      "midi": 67,
      "hit": false,
      "t": 125906.24999999991,
      "d": 315.1041666666424,
      "v": 18
    },
    {
      "midi": 63,
      "hit": false,
      "t": 126033.85416666657,
      "d": 87.23958333332848,
      "v": 34
    },
    {
      "midi": 61,
      "hit": false,
      "t": 126153.64583333323,
      "d": 48.17708333332848,
      "v": 44
    },
    {
      "midi": 75,
      "hit": false,
      "t": 126466.14583333323,
      "d": 132.8125,
      "v": 74
    },
    {
      "midi": 61,
      "hit": false,
      "t": 126751.30208333323,
      "d": 70.3125,
      "v": 37
    },
    {
      "midi": 63,
      "hit": false,
      "t": 126884.11458333323,
      "d": 65.10416666667152,
      "v": 42
    },
    {
      "midi": 67,
      "hit": false,
      "t": 126986.97916666657,
      "d": 54.6875,
      "v": 37
    },
    {
      "midi": 70,
      "hit": false,
      "t": 127087.23958333324,
      "d": 162.76041666667152,
      "v": 71
    },
    {
      "midi": 67,
      "hit": false,
      "t": 127216.14583333324,
      "d": 149.73958333334303,
      "v": 22
    },
    {
      "midi": 63,
      "hit": false,
      "t": 127300.78124999991,
      "d": 57.29166666667152,
      "v": 38
    },
    {
      "midi": 61,
      "hit": false,
      "t": 127390.62499999991,
      "d": 48.17708333332848,
      "v": 42
    },
    {
      "midi": 70,
      "hit": false,
      "t": 127499.99999999991,
      "d": 553.385416666657,
      "v": 55
    },
    {
      "midi": 39,
      "hit": false,
      "t": 127619.79166666658,
      "d": 458.33333333331393,
      "v": 28
    },
    {
      "midi": 72,
      "hit": false,
      "t": 127774.73958333324,
      "d": 1894.531249999971,
      "v": 67
    },
    {
      "midi": 60,
      "hit": false,
      "t": 128083.33333333323,
      "d": 100.26041666667152,
      "v": 30
    },
    {
      "midi": 63,
      "hit": false,
      "t": 128216.14583333323,
      "d": 65.10416666667152,
      "v": 39
    },
    {
      "midi": 70,
      "hit": false,
      "t": 128321.61458333323,
      "d": 54.6875,
      "v": 63
    },
    {
      "midi": 70,
      "hit": false,
      "t": 128457.0312499999,
      "d": 125,
      "v": 54
    },
    {
      "midi": 63,
      "hit": false,
      "t": 128604.16666666657,
      "d": 62.5,
      "v": 29
    },
    {
      "midi": 60,
      "hit": false,
      "t": 128701.82291666657,
      "d": 62.5,
      "v": 37
    },
    {
      "midi": 75,
      "hit": false,
      "t": 128765.6249999999,
      "d": 148.4375,
      "v": 34
    },
    {
      "midi": 82,
      "hit": false,
      "t": 128838.54166666657,
      "d": 208.33333333332848,
      "v": 44
    },
    {
      "midi": 84,
      "hit": false,
      "t": 128976.5624999999,
      "d": 49.47916666667152,
      "v": 44
    },
    {
      "midi": 60,
      "hit": false,
      "t": 129093.7499999999,
      "d": 83.33333333332848,
      "v": 36
    },
    {
      "midi": 63,
      "hit": false,
      "t": 129216.14583333323,
      "d": 53.38541666667152,
      "v": 42
    },
    {
      "midi": 70,
      "hit": false,
      "t": 129333.33333333323,
      "d": 55.98958333332848,
      "v": 53
    },
    {
      "midi": 70,
      "hit": false,
      "t": 129506.51041666656,
      "d": 138.02083333332848,
      "v": 56
    },
    {
      "midi": 63,
      "hit": false,
      "t": 129671.87499999988,
      "d": 97.65625,
      "v": 40
    },
    {
      "midi": 60,
      "hit": false,
      "t": 129832.03124999988,
      "d": 74.21875,
      "v": 42
    },
    {
      "midi": 72,
      "hit": false,
      "t": 130106.77083333321,
      "d": 1220.0520833332994,
      "v": 65
    },
    {
      "midi": 68,
      "hit": false,
      "t": 130161.45833333321,
      "d": 97.65625,
      "v": 25
    },
    {
      "midi": 39,
      "hit": false,
      "t": 130188.80208333321,
      "d": 436.1979166666424,
      "v": 7
    },
    {
      "midi": 60,
      "hit": false,
      "t": 130316.40624999987,
      "d": 111.97916666667152,
      "v": 26
    },
    {
      "midi": 63,
      "hit": false,
      "t": 130438.80208333321,
      "d": 65.10416666665697,
      "v": 41
    },
    {
      "midi": 68,
      "hit": false,
      "t": 130544.2708333332,
      "d": 59.89583333332848,
      "v": 42
    },
    {
      "midi": 68,
      "hit": false,
      "t": 130696.61458333318,
      "d": 87.23958333332848,
      "v": 46
    },
    {
      "midi": 63,
      "hit": false,
      "t": 130812.49999999984,
      "d": 69.01041666667152,
      "v": 38
    },
    {
      "midi": 60,
      "hit": false,
      "t": 130966.14583333318,
      "d": 78.125,
      "v": 28
    },
    {
      "midi": 39,
      "hit": false,
      "t": 131044.27083333318,
      "d": 304.68749999998545,
      "v": 28
    },
    {
      "midi": 50,
      "hit": false,
      "t": 131236.9791666665,
      "d": 304.6874999999709,
      "v": 34
    },
    {
      "midi": 72,
      "hit": false,
      "t": 131453.12499999983,
      "d": 93.75,
      "v": 40
    },
    {
      "midi": 53,
      "hit": false,
      "t": 131621.09374999983,
      "d": 130.20833333334303,
      "v": 22
    },
    {
      "midi": 56,
      "hit": false,
      "t": 131865.8854166665,
      "d": 165.36458333334303,
      "v": 34
    },
    {
      "midi": 58,
      "hit": false,
      "t": 132052.0833333332,
      "d": 117.1875,
      "v": 31
    },
    {
      "midi": 62,
      "hit": false,
      "t": 132191.40624999985,
      "d": 102.86458333334303,
      "v": 38
    },
    {
      "midi": 65,
      "hit": false,
      "t": 132365.88541666654,
      "d": 138.02083333334303,
      "v": 44
    },
    {
      "midi": 62,
      "hit": false,
      "t": 132531.24999999988,
      "d": 89.84375,
      "v": 24
    },
    {
      "midi": 58,
      "hit": false,
      "t": 132644.53124999988,
      "d": 87.23958333331393,
      "v": 30
    },
    {
      "midi": 74,
      "hit": false,
      "t": 132671.87499999988,
      "d": 69.01041666665697,
      "v": 34
    },
    {
      "midi": 56,
      "hit": false,
      "t": 132729.16666666654,
      "d": 97.65625,
      "v": 36
    },
    {
      "midi": 77,
      "hit": false,
      "t": 132776.04166666654,
      "d": 67.70833333334303,
      "v": 16
    },
    {
      "midi": 80,
      "hit": false,
      "t": 132832.03124999988,
      "d": 79.42708333331393,
      "v": 27
    },
    {
      "midi": 65,
      "hit": false,
      "t": 132901.04166666654,
      "d": 210.9374999999709,
      "v": 40
    },
    {
      "midi": 84,
      "hit": false,
      "t": 132971.35416666654,
      "d": 138.02083333331393,
      "v": 64
    },
    {
      "midi": 56,
      "hit": false,
      "t": 133063.8020833332,
      "d": 186.19791666662786,
      "v": 43
    },
    {
      "midi": 58,
      "hit": false,
      "t": 133223.95833333317,
      "d": 100.26041666665697,
      "v": 43
    },
    {
      "midi": 62,
      "hit": false,
      "t": 133361.97916666648,
      "d": 149.73958333334303,
      "v": 30
    },
    {
      "midi": 65,
      "hit": false,
      "t": 133511.71874999983,
      "d": 209.63541666665697,
      "v": 56
    },
    {
      "midi": 77,
      "hit": false,
      "t": 133596.35416666648,
      "d": 144.53125,
      "v": 54
    },
    {
      "midi": 62,
      "hit": false,
      "t": 133701.82291666648,
      "d": 89.84375,
      "v": 30
    },
    {
      "midi": 58,
      "hit": false,
      "t": 133824.21874999983,
      "d": 84.63541666665697,
      "v": 30
    },
    {
      "midi": 56,
      "hit": false,
      "t": 133916.66666666648,
      "d": 54.6875,
      "v": 41
    },
    {
      "midi": 67,
      "hit": false,
      "t": 134078.12499999983,
      "d": 311.19791666665697,
      "v": 61
    },
    {
      "midi": 56,
      "hit": false,
      "t": 134208.33333333317,
      "d": 57.291666666656965,
      "v": 42
    },
    {
      "midi": 58,
      "hit": false,
      "t": 134378.90624999983,
      "d": 87.23958333331393,
      "v": 43
    },
    {
      "midi": 62,
      "hit": false,
      "t": 134520.83333333314,
      "d": 91.14583333334303,
      "v": 38
    },
    {
      "midi": 68,
      "hit": false,
      "t": 134734.37499999983,
      "d": 229.16666666665697,
      "v": 54
    },
    {
      "midi": 65,
      "hit": false,
      "t": 134796.87499999983,
      "d": 272.13541666665697,
      "v": 33
    },
    {
      "midi": 62,
      "hit": false,
      "t": 135020.83333333314,
      "d": 229.16666666668607,
      "v": 30
    },
    {
      "midi": 58,
      "hit": false,
      "t": 135156.24999999983,
      "d": 171.875,
      "v": 35
    },
    {
      "midi": 56,
      "hit": false,
      "t": 135338.54166666648,
      "d": 50.78125,
      "v": 41
    },
    {
      "midi": 70,
      "hit": false,
      "t": 135744.79166666648,
      "d": 286.45833333331393,
      "v": 55
    },
    {
      "midi": 39,
      "hit": false,
      "t": 135765.6249999998,
      "d": 250,
      "v": 35
    },
    {
      "midi": 55,
      "hit": false,
      "t": 136183.5937499998,
      "d": 80.72916666665697,
      "v": 27
    },
    {
      "midi": 46,
      "hit": false,
      "t": 136201.82291666645,
      "d": 79.42708333334303,
      "v": 46
    },
    {
      "midi": 49,
      "hit": false,
      "t": 136321.61458333314,
      "d": 89.84375,
      "v": 33
    },
    {
      "midi": 58,
      "hit": false,
      "t": 136328.1249999998,
      "d": 100.26041666668607,
      "v": 29
    },
    {
      "midi": 61,
      "hit": false,
      "t": 136446.61458333314,
      "d": 84.63541666665697,
      "v": 34
    },
    {
      "midi": 51,
      "hit": false,
      "t": 136449.2187499998,
      "d": 66.40625,
      "v": 38
    },
    {
      "midi": 55,
      "hit": false,
      "t": 136562.4999999998,
      "d": 62.5,
      "v": 51
    },
    {
      "midi": 63,
      "hit": false,
      "t": 136563.80208333314,
      "d": 167.96875,
      "v": 46
    },
    {
      "midi": 61,
      "hit": false,
      "t": 136664.0624999998,
      "d": 315.10416666665697,
      "v": 30
    },
    {
      "midi": 51,
      "hit": false,
      "t": 136688.80208333314,
      "d": 102.86458333331393,
      "v": 51
    },
    {
      "midi": 58,
      "hit": false,
      "t": 136769.5312499998,
      "d": 101.5624999999709,
      "v": 50
    },
    {
      "midi": 49,
      "hit": false,
      "t": 136813.8020833331,
      "d": 61.197916666656965,
      "v": 31
    },
    {
      "midi": 46,
      "hit": false,
      "t": 136864.5833333331,
      "d": 46.875,
      "v": 62
    },
    {
      "midi": 55,
      "hit": false,
      "t": 136878.90624999977,
      "d": 48.177083333343035,
      "v": 46
    },
    {
      "midi": 39,
      "hit": false,
      "t": 137003.9062499998,
      "d": 45.572916666656965,
      "v": 71
    },
    {
      "midi": 67,
      "hit": false,
      "t": 137265.6249999998,
      "d": 80.72916666665697,
      "v": 75
    },
    {
      "midi": 58,
      "hit": false,
      "t": 137265.6249999998,
      "d": 134.11458333331393,
      "v": 89
    },
    {
      "midi": 61,
      "hit": false,
      "t": 137376.3020833331,
      "d": 118.48958333334303,
      "v": 73
    },
    {
      "midi": 70,
      "hit": false,
      "t": 137381.51041666645,
      "d": 132.8125,
      "v": 81
    },
    {
      "midi": 63,
      "hit": false,
      "t": 137471.35416666645,
      "d": 132.8125,
      "v": 82
    },
    {
      "midi": 73,
      "hit": false,
      "t": 137484.3749999998,
      "d": 114.58333333331393,
      "v": 82
    },
    {
      "midi": 67,
      "hit": false,
      "t": 137588.54166666645,
      "d": 125,
      "v": 87
    },
    {
      "midi": 75,
      "hit": false,
      "t": 137591.1458333331,
      "d": 178.38541666668607,
      "v": 84
    },
    {
      "midi": 63,
      "hit": false,
      "t": 137682.29166666645,
      "d": 179.6875,
      "v": 75
    },
    {
      "midi": 73,
      "hit": false,
      "t": 137683.5937499998,
      "d": 217.44791666665697,
      "v": 76
    },
    {
      "midi": 70,
      "hit": false,
      "t": 137794.27083333314,
      "d": 138.02083333331393,
      "v": 83
    },
    {
      "midi": 61,
      "hit": false,
      "t": 137802.08333333314,
      "d": 69.01041666665697,
      "v": 60
    },
    {
      "midi": 58,
      "hit": false,
      "t": 137851.5624999998,
      "d": 101.5625,
      "v": 91
    },
    {
      "midi": 67,
      "hit": false,
      "t": 137890.6249999998,
      "d": 67.70833333334303,
      "v": 75
    },
    {
      "midi": 51,
      "hit": false,
      "t": 138041.66666666648,
      "d": 36.458333333343035,
      "v": 107
    },
    {
      "midi": 79,
      "hit": false,
      "t": 138343.74999999983,
      "d": 125,
      "v": 91
    },
    {
      "midi": 70,
      "hit": false,
      "t": 138359.37499999983,
      "d": 141.92708333331393,
      "v": 95
    },
    {
      "midi": 82,
      "hit": false,
      "t": 138479.16666666648,
      "d": 127.60416666665697,
      "v": 97
    },
    {
      "midi": 73,
      "hit": false,
      "t": 138479.16666666648,
      "d": 132.8125,
      "v": 82
    },
    {
      "midi": 75,
      "hit": false,
      "t": 138583.33333333314,
      "d": 119.79166666665697,
      "v": 80
    },
    {
      "midi": 85,
      "hit": false,
      "t": 138587.23958333314,
      "d": 128.90625,
      "v": 88
    },
    {
      "midi": 87,
      "hit": false,
      "t": 138694.01041666648,
      "d": 55.98958333331393,
      "v": 88
    },
    {
      "midi": 79,
      "hit": false,
      "t": 138696.61458333314,
      "d": 82.03125,
      "v": 87
    },
    {
      "midi": 91,
      "hit": false,
      "t": 138805.98958333314,
      "d": 53.385416666656965,
      "v": 97
    },
    {
      "midi": 82,
      "hit": false,
      "t": 138821.61458333314,
      "d": 106.77083333331393,
      "v": 81
    },
    {
      "midi": 94,
      "hit": false,
      "t": 138908.85416666645,
      "d": 54.6875,
      "v": 95
    },
    {
      "midi": 85,
      "hit": false,
      "t": 138916.66666666645,
      "d": 114.58333333334303,
      "v": 95
    },
    {
      "midi": 87,
      "hit": false,
      "t": 138994.79166666645,
      "d": 87.23958333334303,
      "v": 88
    },
    {
      "midi": 97,
      "hit": false,
      "t": 138998.69791666645,
      "d": 111.97916666665697,
      "v": 93
    },
    {
      "midi": 99,
      "hit": false,
      "t": 139096.35416666645,
      "d": 177.08333333331393,
      "v": 95
    },
    {
      "midi": 91,
      "hit": false,
      "t": 139104.16666666645,
      "d": 97.6562499999709,
      "v": 100
    },
    {
      "midi": 87,
      "hit": false,
      "t": 139183.59374999977,
      "d": 130.20833333334303,
      "v": 59
    },
    {
      "midi": 97,
      "hit": false,
      "t": 139194.01041666642,
      "d": 179.6875000000291,
      "v": 79
    },
    {
      "midi": 85,
      "hit": false,
      "t": 139278.6458333331,
      "d": 125,
      "v": 80
    },
    {
      "midi": 94,
      "hit": false,
      "t": 139303.38541666645,
      "d": 91.14583333331393,
      "v": 98
    },
    {
      "midi": 82,
      "hit": false,
      "t": 139380.2083333331,
      "d": 39.0625,
      "v": 90
    },
    {
      "midi": 91,
      "hit": false,
      "t": 139390.62499999977,
      "d": 36.458333333343035,
      "v": 88
    },
    {
      "midi": 79,
      "hit": false,
      "t": 139481.7708333331,
      "d": 39.0625,
      "v": 95
    },
    {
      "midi": 87,
      "hit": false,
      "t": 139490.88541666645,
      "d": 165.36458333331393,
      "v": 92
    },
    {
      "midi": 85,
      "hit": false,
      "t": 139566.40624999977,
      "d": 165.36458333334303,
      "v": 85
    },
    {
      "midi": 75,
      "hit": false,
      "t": 139578.12499999977,
      "d": 130.20833333334303,
      "v": 87
    },
    {
      "midi": 82,
      "hit": false,
      "t": 139653.6458333331,
      "d": 122.39583333331393,
      "v": 92
    },
    {
      "midi": 73,
      "hit": false,
      "t": 139664.06249999977,
      "d": 139.32291666665697,
      "v": 85
    },
    {
      "midi": 79,
      "hit": false,
      "t": 139739.5833333331,
      "d": 45.572916666656965,
      "v": 100
    },
    {
      "midi": 70,
      "hit": false,
      "t": 139749.99999999977,
      "d": 173.17708333331393,
      "v": 98
    },
    {
      "midi": 87,
      "hit": false,
      "t": 139846.35416666642,
      "d": 167.96875,
      "v": 103
    },
    {
      "midi": 79,
      "hit": false,
      "t": 139854.16666666642,
      "d": 119.79166666665697,
      "v": 97
    },
    {
      "midi": 75,
      "hit": false,
      "t": 139936.19791666642,
      "d": 136.71875,
      "v": 86
    },
    {
      "midi": 85,
      "hit": false,
      "t": 139944.01041666642,
      "d": 160.15625,
      "v": 90
    },
    {
      "midi": 73,
      "hit": false,
      "t": 140026.04166666642,
      "d": 108.07291666668607,
      "v": 83
    },
    {
      "midi": 82,
      "hit": false,
      "t": 140028.64583333308,
      "d": 106.77083333337214,
      "v": 106
    },
    {
      "midi": 70,
      "hit": false,
      "t": 140113.28124999977,
      "d": 44.270833333343035,
      "v": 89
    },
    {
      "midi": 79,
      "hit": false,
      "t": 140126.3020833331,
      "d": 35.15625,
      "v": 98
    },
    {
      "midi": 67,
      "hit": false,
      "t": 140208.3333333331,
      "d": 80.72916666665697,
      "v": 98
    },
    {
      "midi": 75,
      "hit": false,
      "t": 140218.74999999977,
      "d": 170.57291666665697,
      "v": 97
    },
    {
      "midi": 63,
      "hit": false,
      "t": 140295.57291666642,
      "d": 141.92708333334303,
      "v": 95
    },
    {
      "midi": 73,
      "hit": false,
      "t": 140298.17708333308,
      "d": 154.94791666668607,
      "v": 86
    },
    {
      "midi": 70,
      "hit": false,
      "t": 140389.32291666642,
      "d": 117.1875000000291,
      "v": 99
    },
    {
      "midi": 61,
      "hit": false,
      "t": 140398.43749999977,
      "d": 127.60416666668607,
      "v": 83
    },
    {
      "midi": 67,
      "hit": false,
      "t": 140473.9583333331,
      "d": 41.66666666668607,
      "v": 102
    },
    {
      "midi": 58,
      "hit": false,
      "t": 140481.7708333331,
      "d": 132.8125000000291,
      "v": 97
    },
    {
      "midi": 67,
      "hit": false,
      "t": 140578.1249999998,
      "d": 138.02083333334303,
      "v": 104
    },
    {
      "midi": 75,
      "hit": false,
      "t": 140582.0312499998,
      "d": 169.27083333334303,
      "v": 103
    },
    {
      "midi": 63,
      "hit": false,
      "t": 140678.38541666648,
      "d": 149.73958333331393,
      "v": 94
    },
    {
      "midi": 73,
      "hit": false,
      "t": 140686.19791666648,
      "d": 173.17708333331393,
      "v": 95
    },
    {
      "midi": 61,
      "hit": false,
      "t": 140770.83333333314,
      "d": 110.67708333331393,
      "v": 86
    },
    {
      "midi": 70,
      "hit": false,
      "t": 140789.0624999998,
      "d": 109.375,
      "v": 106
    },
    {
      "midi": 58,
      "hit": false,
      "t": 140873.69791666645,
      "d": 40.364583333343035,
      "v": 89
    },
    {
      "midi": 67,
      "hit": false,
      "t": 140885.41666666645,
      "d": 53.38541666668607,
      "v": 103
    },
    {
      "midi": 63,
      "hit": false,
      "t": 140994.79166666648,
      "d": 183.59375,
      "v": 100
    },
    {
      "midi": 55,
      "hit": false,
      "t": 140996.09374999983,
      "d": 48.177083333343035,
      "v": 92
    },
    {
      "midi": 51,
      "hit": false,
      "t": 141085.93749999983,
      "d": 132.8125,
      "v": 92
    },
    {
      "midi": 61,
      "hit": false,
      "t": 141109.37499999983,
      "d": 194.01041666668607,
      "v": 90
    },
    {
      "midi": 49,
      "hit": false,
      "t": 141213.54166666648,
      "d": 104.16666666671517,
      "v": 79
    },
    {
      "midi": 58,
      "hit": false,
      "t": 141223.95833333317,
      "d": 141.92708333337214,
      "v": 106
    },
    {
      "midi": 46,
      "hit": false,
      "t": 141312.49999999985,
      "d": 37.76041666668607,
      "v": 96
    },
    {
      "midi": 55,
      "hit": false,
      "t": 141341.1458333332,
      "d": 35.15625,
      "v": 99
    },
    {
      "midi": 60,
      "hit": false,
      "t": 141604.16666666654,
      "d": 342.44791666662786,
      "v": 121
    },
    {
      "midi": 72,
      "hit": false,
      "t": 141606.7708333332,
      "d": 337.23958333331393,
      "v": 121
    },
    {
      "midi": 44,
      "hit": false,
      "t": 141614.5833333332,
      "d": 246.0937499999709,
      "v": 104
    },
    {
      "midi": 32,
      "hit": false,
      "t": 141628.90624999985,
      "d": 190.10416666665697,
      "v": 92
    },
    {
      "midi": 39,
      "hit": false,
      "t": 141635.4166666665,
      "d": 210.9375,
      "v": 77
    },
    {
      "midi": 63,
      "hit": false,
      "t": 141821.61458333317,
      "d": 162.76041666665697,
      "v": 81
    },
    {
      "midi": 68,
      "hit": false,
      "t": 141957.03124999983,
      "d": 152.34375,
      "v": 84
    },
    {
      "midi": 72,
      "hit": false,
      "t": 142071.61458333317,
      "d": 57.291666666656965,
      "v": 85
    },
    {
      "midi": 60,
      "hit": false,
      "t": 142196.61458333317,
      "d": 126.30208333331393,
      "v": 113
    },
    {
      "midi": 51,
      "hit": false,
      "t": 142208.33333333317,
      "d": 57.291666666656965,
      "v": 88
    },
    {
      "midi": 56,
      "hit": false,
      "t": 142210.93749999983,
      "d": 70.3125,
      "v": 88
    },
    {
      "midi": 72,
      "hit": false,
      "t": 142221.35416666648,
      "d": 154.94791666665697,
      "v": 98
    },
    {
      "midi": 75,
      "hit": false,
      "t": 142348.95833333314,
      "d": 119.79166666665697,
      "v": 80
    },
    {
      "midi": 60,
      "hit": false,
      "t": 142411.45833333314,
      "d": 141.92708333331393,
      "v": 92
    },
    {
      "midi": 80,
      "hit": false,
      "t": 142416.66666666648,
      "d": 114.58333333331393,
      "v": 84
    },
    {
      "midi": 56,
      "hit": false,
      "t": 142438.80208333314,
      "d": 46.875,
      "v": 85
    },
    {
      "midi": 51,
      "hit": false,
      "t": 142438.80208333314,
      "d": 100.26041666665697,
      "v": 90
    },
    {
      "midi": 84,
      "hit": false,
      "t": 142498.69791666648,
      "d": 29.947916666656965,
      "v": 95
    },
    {
      "midi": 84,
      "hit": false,
      "t": 142631.51041666645,
      "d": 222.6562500000291,
      "v": 80
    },
    {
      "midi": 63,
      "hit": false,
      "t": 142664.0624999998,
      "d": 289.0625000000582,
      "v": 117
    },
    {
      "midi": 60,
      "hit": false,
      "t": 142677.08333333314,
      "d": 246.0937500000291,
      "v": 47
    },
    {
      "midi": 56,
      "hit": false,
      "t": 142688.80208333314,
      "d": 263.02083333337214,
      "v": 73
    },
    {
      "midi": 87,
      "hit": false,
      "t": 142751.30208333314,
      "d": 127.60416666668607,
      "v": 83
    },
    {
      "midi": 92,
      "hit": false,
      "t": 142848.95833333314,
      "d": 149.73958333337214,
      "v": 88
    },
    {
      "midi": 96,
      "hit": false,
      "t": 142972.65624999985,
      "d": 29.947916666656965,
      "v": 95
    },
    {
      "midi": 96,
      "hit": false,
      "t": 143057.2916666665,
      "d": 136.71875,
      "v": 93
    },
    {
      "midi": 92,
      "hit": false,
      "t": 143134.11458333317,
      "d": 139.32291666668607,
      "v": 73
    },
    {
      "midi": 87,
      "hit": false,
      "t": 143218.74999999985,
      "d": 89.8437499999709,
      "v": 78
    },
    {
      "midi": 56,
      "hit": false,
      "t": 143270.8333333332,
      "d": 102.86458333328483,
      "v": 105
    },
    {
      "midi": 84,
      "hit": false,
      "t": 143289.06249999985,
      "d": 32.55208333331393,
      "v": 88
    },
    {
      "midi": 44,
      "hit": false,
      "t": 143291.6666666665,
      "d": 40.36458333331393,
      "v": 69
    },
    {
      "midi": 51,
      "hit": false,
      "t": 143294.27083333317,
      "d": 41.666666666656965,
      "v": 75
    },
    {
      "midi": 56,
      "hit": false,
      "t": 143423.17708333314,
      "d": 212.23958333331393,
      "v": 107
    },
    {
      "midi": 51,
      "hit": false,
      "t": 143441.4062499998,
      "d": 97.65625,
      "v": 50
    },
    {
      "midi": 80,
      "hit": false,
      "t": 143441.4062499998,
      "d": 131.51041666665697,
      "v": 81
    },
    {
      "midi": 44,
      "hit": false,
      "t": 143447.91666666645,
      "d": 98.95833333334303,
      "v": 58
    },
    {
      "midi": 75,
      "hit": false,
      "t": 143540.36458333314,
      "d": 39.062499999970896,
      "v": 77
    },
    {
      "midi": 72,
      "hit": false,
      "t": 143634.1145833331,
      "d": 39.0625,
      "v": 77
    },
    {
      "midi": 68,
      "hit": false,
      "t": 143686.19791666645,
      "d": 45.572916666656965,
      "v": 75
    },
    {
      "midi": 58,
      "hit": false,
      "t": 143808.59374999977,
      "d": 139.32291666668607,
      "v": 117
    },
    {
      "midi": 70,
      "hit": false,
      "t": 143813.8020833331,
      "d": 152.34375,
      "v": 99
    },
    {
      "midi": 55,
      "hit": false,
      "t": 143822.91666666645,
      "d": 140.625,
      "v": 91
    },
    {
      "midi": 51,
      "hit": false,
      "t": 143838.54166666645,
      "d": 184.89583333331393,
      "v": 73
    },
    {
      "midi": 67,
      "hit": false,
      "t": 143901.04166666645,
      "d": 247.39583333331393,
      "v": 87
    },
    {
      "midi": 63,
      "hit": false,
      "t": 144023.43749999977,
      "d": 72.91666666665697,
      "v": 64
    },
    {
      "midi": 58,
      "hit": false,
      "t": 144123.69791666642,
      "d": 58.59375,
      "v": 46
    },
    {
      "midi": 60,
      "hit": false,
      "t": 144231.77083333308,
      "d": 231.77083333331393,
      "v": 114
    },
    {
      "midi": 72,
      "hit": false,
      "t": 144235.67708333308,
      "d": 225.26041666665697,
      "v": 119
    },
    {
      "midi": 44,
      "hit": false,
      "t": 144240.88541666642,
      "d": 182.29166666665697,
      "v": 104
    },
    {
      "midi": 32,
      "hit": false,
      "t": 144244.79166666642,
      "d": 151.04166666665697,
      "v": 104
    },
    {
      "midi": 39,
      "hit": false,
      "t": 144251.30208333308,
      "d": 40.364583333343035,
      "v": 85
    },
    {
      "midi": 63,
      "hit": false,
      "t": 144403.64583333308,
      "d": 127.60416666665697,
      "v": 79
    },
    {
      "midi": 68,
      "hit": false,
      "t": 144490.8854166664,
      "d": 110.67708333334303,
      "v": 86
    },
    {
      "midi": 72,
      "hit": false,
      "t": 144563.80208333308,
      "d": 71.61458333331393,
      "v": 80
    },
    {
      "midi": 72,
      "hit": false,
      "t": 144703.12499999974,
      "d": 110.67708333331393,
      "v": 106
    },
    {
      "midi": 75,
      "hit": false,
      "t": 144807.2916666664,
      "d": 121.0937500000291,
      "v": 85
    },
    {
      "midi": 63,
      "hit": false,
      "t": 144881.5104166664,
      "d": 66.4062500000291,
      "v": 70
    },
    {
      "midi": 60,
      "hit": false,
      "t": 144882.81249999974,
      "d": 59.895833333343035,
      "v": 43
    },
    {
      "midi": 80,
      "hit": false,
      "t": 144884.11458333308,
      "d": 126.30208333334303,
      "v": 90
    },
    {
      "midi": 72,
      "hit": false,
      "t": 144885.41666666642,
      "d": 58.59375,
      "v": 74
    },
    {
      "midi": 68,
      "hit": false,
      "t": 144888.02083333308,
      "d": 52.083333333343035,
      "v": 49
    },
    {
      "midi": 84,
      "hit": false,
      "t": 144979.16666666642,
      "d": 29.947916666656965,
      "v": 97
    },
    {
      "midi": 72,
      "hit": false,
      "t": 145041.66666666642,
      "d": 274.73958333331393,
      "v": 104
    },
    {
      "midi": 60,
      "hit": false,
      "t": 145041.66666666642,
      "d": 369.79166666662786,
      "v": 72
    },
    {
      "midi": 68,
      "hit": false,
      "t": 145048.17708333308,
      "d": 308.5937499999709,
      "v": 65
    },
    {
      "midi": 63,
      "hit": false,
      "t": 145053.38541666642,
      "d": 352.8645833332848,
      "v": 65
    },
    {
      "midi": 84,
      "hit": false,
      "t": 145088.54166666642,
      "d": 127.60416666665697,
      "v": 87
    },
    {
      "midi": 87,
      "hit": false,
      "t": 145177.08333333308,
      "d": 119.79166666665697,
      "v": 90
    },
    {
      "midi": 92,
      "hit": false,
      "t": 145253.90624999974,
      "d": 117.1874999999709,
      "v": 93
    },
    {
      "midi": 96,
      "hit": false,
      "t": 145319.0104166664,
      "d": 40.36458333331393,
      "v": 79
    },
    {
      "midi": 96,
      "hit": false,
      "t": 145421.8749999997,
      "d": 151.04166666665697,
      "v": 88
    },
    {
      "midi": 92,
      "hit": false,
      "t": 145494.79166666637,
      "d": 140.625,
      "v": 76
    },
    {
      "midi": 87,
      "hit": false,
      "t": 145582.0312499997,
      "d": 76.82291666665697,
      "v": 86
    },
    {
      "midi": 84,
      "hit": false,
      "t": 145664.0624999997,
      "d": 201.82291666665697,
      "v": 46
    },
    {
      "midi": 56,
      "hit": false,
      "t": 145726.5624999997,
      "d": 264.32291666668607,
      "v": 111
    },
    {
      "midi": 44,
      "hit": false,
      "t": 145744.79166666637,
      "d": 500,
      "v": 92
    },
    {
      "midi": 51,
      "hit": false,
      "t": 145746.0937499997,
      "d": 279.94791666668607,
      "v": 88
    },
    {
      "midi": 80,
      "hit": false,
      "t": 145828.1249999997,
      "d": 138.02083333334303,
      "v": 84
    },
    {
      "midi": 75,
      "hit": false,
      "t": 145898.4374999997,
      "d": 105.4687500000291,
      "v": 85
    },
    {
      "midi": 72,
      "hit": false,
      "t": 146006.5104166664,
      "d": 35.15625,
      "v": 95
    },
    {
      "midi": 72,
      "hit": false,
      "t": 146104.1666666664,
      "d": 83.33333333331393,
      "v": 88
    },
    {
      "midi": 68,
      "hit": false,
      "t": 146173.17708333305,
      "d": 191.4062499999709,
      "v": 95
    },
    {
      "midi": 56,
      "hit": false,
      "t": 146183.5937499997,
      "d": 157.55208333331393,
      "v": 104
    },
    {
      "midi": 51,
      "hit": false,
      "t": 146194.01041666637,
      "d": 184.89583333331393,
      "v": 86
    },
    {
      "midi": 48,
      "hit": false,
      "t": 146196.61458333302,
      "d": 188.80208333331393,
      "v": 94
    },
    {
      "midi": 63,
      "hit": false,
      "t": 146307.29166666637,
      "d": 178.38541666662786,
      "v": 79
    },
    {
      "midi": 60,
      "hit": false,
      "t": 146416.66666666634,
      "d": 46.875,
      "v": 95
    },
    {
      "midi": 56,
      "hit": false,
      "t": 146571.614583333,
      "d": 67.70833333334303,
      "v": 107
    },
    {
      "midi": 68,
      "hit": false,
      "t": 146576.82291666634,
      "d": 92.44791666665697,
      "v": 108
    },
    {
      "midi": 49,
      "hit": false,
      "t": 146833.333333333,
      "d": 263.02083333337214,
      "v": 107
    },
    {
      "midi": 65,
      "hit": false,
      "t": 146833.333333333,
      "d": 292.9687500000291,
      "v": 117
    },
    {
      "midi": 77,
      "hit": false,
      "t": 146833.333333333,
      "d": 302.08333333337214,
      "v": 121
    },
    {
      "midi": 37,
      "hit": false,
      "t": 146841.145833333,
      "d": 212.23958333334303,
      "v": 92
    },
    {
      "midi": 44,
      "hit": false,
      "t": 146856.770833333,
      "d": 226.5625000000291,
      "v": 83
    },
    {
      "midi": 68,
      "hit": false,
      "t": 147066.40624999968,
      "d": 127.60416666668607,
      "v": 86
    },
    {
      "midi": 73,
      "hit": false,
      "t": 147161.45833333302,
      "d": 136.71875,
      "v": 88
    },
    {
      "midi": 77,
      "hit": false,
      "t": 147256.51041666637,
      "d": 45.572916666656965,
      "v": 92
    },
    {
      "midi": 77,
      "hit": false,
      "t": 147369.79166666637,
      "d": 72.91666666665697,
      "v": 100
    },
    {
      "midi": 77,
      "hit": false,
      "t": 147509.11458333302,
      "d": 57.291666666656965,
      "v": 98
    },
    {
      "midi": 65,
      "hit": false,
      "t": 147519.53124999968,
      "d": 41.66666666668607,
      "v": 83
    },
    {
      "midi": 68,
      "hit": false,
      "t": 147523.43749999968,
      "d": 48.177083333343035,
      "v": 77
    },
    {
      "midi": 73,
      "hit": false,
      "t": 147536.45833333302,
      "d": 46.875,
      "v": 65
    },
    {
      "midi": 81,
      "hit": false,
      "t": 147548.17708333302,
      "d": 55.989583333343035,
      "v": 45
    },
    {
      "midi": 85,
      "hit": false,
      "t": 147563.80208333302,
      "d": 92.44791666668607,
      "v": 92
    },
    {
      "midi": 89,
      "hit": false,
      "t": 147644.5312499997,
      "d": 28.64583333331393,
      "v": 89
    },
    {
      "midi": 77,
      "hit": false,
      "t": 147651.04166666637,
      "d": 234.3749999999709,
      "v": 111
    },
    {
      "midi": 73,
      "hit": false,
      "t": 147656.2499999997,
      "d": 257.8124999999709,
      "v": 78
    },
    {
      "midi": 68,
      "hit": false,
      "t": 147656.2499999997,
      "d": 290.3645833332848,
      "v": 80
    },
    {
      "midi": 65,
      "hit": false,
      "t": 147666.66666666637,
      "d": 277.3437499999709,
      "v": 75
    },
    {
      "midi": 89,
      "hit": false,
      "t": 147746.09374999968,
      "d": 227.86458333331393,
      "v": 96
    },
    {
      "midi": 92,
      "hit": false,
      "t": 147859.37499999968,
      "d": 139.32291666665697,
      "v": 92
    },
    {
      "midi": 97,
      "hit": false,
      "t": 147951.82291666634,
      "d": 158.85416666668607,
      "v": 92
    },
    {
      "midi": 101,
      "hit": false,
      "t": 148076.82291666634,
      "d": 32.552083333343035,
      "v": 89
    },
    {
      "midi": 63,
      "hit": false,
      "t": 148214.84374999968,
      "d": 282.55208333334303,
      "v": 103
    },
    {
      "midi": 99,
      "hit": false,
      "t": 148218.74999999968,
      "d": 239.58333333334303,
      "v": 99
    },
    {
      "midi": 55,
      "hit": false,
      "t": 148227.86458333302,
      "d": 339.84375,
      "v": 89
    },
    {
      "midi": 56,
      "hit": false,
      "t": 148239.58333333302,
      "d": 300.78125,
      "v": 76
    },
    {
      "midi": 92,
      "hit": false,
      "t": 148378.90624999968,
      "d": 140.625,
      "v": 86
    },
    {
      "midi": 87,
      "hit": false,
      "t": 148489.58333333302,
      "d": 33.854166666656965,
      "v": 84
    },
    {
      "midi": 61,
      "hit": false,
      "t": 148614.58333333302,
      "d": 291.66666666668607,
      "v": 106
    },
    {
      "midi": 85,
      "hit": false,
      "t": 148631.51041666637,
      "d": 171.875,
      "v": 101
    },
    {
      "midi": 53,
      "hit": false,
      "t": 148639.32291666637,
      "d": 272.13541666668607,
      "v": 82
    },
    {
      "midi": 56,
      "hit": false,
      "t": 148644.5312499997,
      "d": 191.40625,
      "v": 55
    },
    {
      "midi": 80,
      "hit": false,
      "t": 148765.6249999997,
      "d": 123.69791666665697,
      "v": 88
    },
    {
      "midi": 73,
      "hit": false,
      "t": 148865.88541666637,
      "d": 48.177083333343035,
      "v": 93
    },
    {
      "midi": 60,
      "hit": false,
      "t": 148985.67708333305,
      "d": 143.22916666668607,
      "v": 104
    },
    {
      "midi": 56,
      "hit": false,
      "t": 148994.7916666664,
      "d": 226.5625000000291,
      "v": 88
    },
    {
      "midi": 51,
      "hit": false,
      "t": 148996.09374999974,
      "d": 157.55208333334303,
      "v": 87
    },
    {
      "midi": 72,
      "hit": false,
      "t": 149015.62499999974,
      "d": 132.8125,
      "v": 108
    },
    {
      "midi": 68,
      "hit": false,
      "t": 149119.7916666664,
      "d": 169.27083333337214,
      "v": 88
    },
    {
      "midi": 60,
      "hit": false,
      "t": 149188.80208333308,
      "d": 65.10416666668607,
      "v": 96
    },
    {
      "midi": 49,
      "hit": false,
      "t": 149308.59374999977,
      "d": 305.98958333334303,
      "v": 86
    },
    {
      "midi": 52,
      "hit": false,
      "t": 149356.7708333331,
      "d": 242.1875,
      "v": 89
    },
    {
      "midi": 70,
      "hit": false,
      "t": 149384.1145833331,
      "d": 179.6875,
      "v": 102
    },
    {
      "midi": 58,
      "hit": false,
      "t": 149389.32291666645,
      "d": 171.875,
      "v": 117
    },
    {
      "midi": 56,
      "hit": false,
      "t": 149398.4374999998,
      "d": 260.41666666662786,
      "v": 95
    },
    {
      "midi": 64,
      "hit": false,
      "t": 149519.5312499998,
      "d": 136.7187499999709,
      "v": 87
    },
    {
      "midi": 68,
      "hit": false,
      "t": 149569.01041666645,
      "d": 147.13541666662786,
      "v": 73
    },
    {
      "midi": 70,
      "hit": false,
      "t": 149644.53124999977,
      "d": 79.42708333331393,
      "v": 81
    },
    {
      "midi": 70,
      "hit": false,
      "t": 149791.66666666642,
      "d": 117.1875,
      "v": 102
    },
    {
      "midi": 76,
      "hit": false,
      "t": 149895.83333333308,
      "d": 108.07291666668607,
      "v": 93
    },
    {
      "midi": 80,
      "hit": false,
      "t": 149990.88541666642,
      "d": 91.14583333337214,
      "v": 81
    },
    {
      "midi": 64,
      "hit": false,
      "t": 149994.79166666642,
      "d": 40.364583333343035,
      "v": 63
    },
    {
      "midi": 70,
      "hit": false,
      "t": 149996.09374999977,
      "d": 105.4687500000291,
      "v": 92
    },
    {
      "midi": 68,
      "hit": false,
      "t": 149998.69791666642,
      "d": 44.270833333343035,
      "v": 83
    },
    {
      "midi": 61,
      "hit": false,
      "t": 150003.90624999977,
      "d": 44.270833333343035,
      "v": 68
    },
    {
      "midi": 82,
      "hit": false,
      "t": 150053.38541666645,
      "d": 40.364583333343035,
      "v": 93
    },
    {
      "midi": 70,
      "hit": false,
      "t": 150148.4374999998,
      "d": 184.89583333331393,
      "v": 105
    },
    {
      "midi": 64,
      "hit": false,
      "t": 150156.2499999998,
      "d": 197.91666666665697,
      "v": 60
    },
    {
      "midi": 68,
      "hit": false,
      "t": 150158.85416666645,
      "d": 201.82291666665697,
      "v": 70
    },
    {
      "midi": 61,
      "hit": false,
      "t": 150161.4583333331,
      "d": 230.46875,
      "v": 37
    },
    {
      "midi": 82,
      "hit": false,
      "t": 150173.1770833331,
      "d": 113.28125,
      "v": 80
    },
    {
      "midi": 88,
      "hit": false,
      "t": 150273.43749999977,
      "d": 132.8125,
      "v": 85
    },
    {
      "midi": 92,
      "hit": false,
      "t": 150348.9583333331,
      "d": 125,
      "v": 85
    },
    {
      "midi": 94,
      "hit": false,
      "t": 150441.40624999977,
      "d": 44.270833333343035,
      "v": 79
    },
    {
      "midi": 94,
      "hit": false,
      "t": 150531.24999999977,
      "d": 192.70833333331393,
      "v": 110
    },
    {
      "midi": 92,
      "hit": false,
      "t": 150639.32291666642,
      "d": 141.92708333331393,
      "v": 83
    },
    {
      "midi": 88,
      "hit": false,
      "t": 150734.37499999974,
      "d": 62.5,
      "v": 73
    },
    {
      "midi": 49,
      "hit": false,
      "t": 150769.53124999974,
      "d": 486.97916666665697,
      "v": 84
    },
    {
      "midi": 82,
      "hit": false,
      "t": 150791.6666666664,
      "d": 36.458333333343035,
      "v": 96
    },
    {
      "midi": 55,
      "hit": false,
      "t": 150851.56249999974,
      "d": 414.0625,
      "v": 82
    },
    {
      "midi": 58,
      "hit": false,
      "t": 150901.0416666664,
      "d": 420.57291666668607,
      "v": 83
    },
    {
      "midi": 63,
      "hit": false,
      "t": 151009.11458333305,
      "d": 313.80208333337214,
      "v": 88
    },
    {
      "midi": 70,
      "hit": false,
      "t": 151031.24999999974,
      "d": 152.34375,
      "v": 108
    },
    {
      "midi": 82,
      "hit": false,
      "t": 151036.45833333308,
      "d": 260.41666666665697,
      "v": 99
    },
    {
      "midi": 79,
      "hit": false,
      "t": 151173.17708333308,
      "d": 160.15625,
      "v": 73
    },
    {
      "midi": 75,
      "hit": false,
      "t": 151265.62499999974,
      "d": 118.48958333334303,
      "v": 72
    },
    {
      "midi": 70,
      "hit": false,
      "t": 151343.74999999974,
      "d": 72.91666666668607,
      "v": 85
    },
    {
      "midi": 67,
      "hit": false,
      "t": 151453.12499999977,
      "d": 135.41666666665697,
      "v": 100
    },
    {
      "midi": 63,
      "hit": false,
      "t": 151539.06249999977,
      "d": 182.29166666665697,
      "v": 95
    },
    {
      "midi": 58,
      "hit": false,
      "t": 151626.30208333308,
      "d": 147.13541666665697,
      "v": 65
    },
    {
      "midi": 55,
      "hit": false,
      "t": 151721.35416666642,
      "d": 37.760416666656965,
      "v": 78
    },
    {
      "midi": 75,
      "hit": false,
      "t": 151769.53124999974,
      "d": 121.09375,
      "v": 97
    },
    {
      "midi": 63,
      "hit": false,
      "t": 151776.0416666664,
      "d": 32.552083333343035,
      "v": 101
    },
    {
      "midi": 48,
      "hit": false,
      "t": 151871.09374999974,
      "d": 214.84375,
      "v": 107
    },
    {
      "midi": 68,
      "hit": false,
      "t": 151957.03124999974,
      "d": 164.0625,
      "v": 99
    },
    {
      "midi": 80,
      "hit": false,
      "t": 151960.93749999974,
      "d": 287.7604166667152,
      "v": 103
    },
    {
      "midi": 56,
      "hit": false,
      "t": 152066.40624999974,
      "d": 115.88541666668607,
      "v": 88
    },
    {
      "midi": 75,
      "hit": false,
      "t": 152130.20833333308,
      "d": 118.48958333337214,
      "v": 83
    },
    {
      "midi": 63,
      "hit": false,
      "t": 152203.12499999977,
      "d": 50.781250000029104,
      "v": 79
    },
    {
      "midi": 72,
      "hit": false,
      "t": 152208.3333333331,
      "d": 130.20833333337214,
      "v": 89
    },
    {
      "midi": 68,
      "hit": false,
      "t": 152286.45833333314,
      "d": 40.364583333343035,
      "v": 86
    },
    {
      "midi": 60,
      "hit": false,
      "t": 152384.11458333314,
      "d": 125,
      "v": 92
    },
    {
      "midi": 63,
      "hit": false,
      "t": 152458.33333333314,
      "d": 151.04166666665697,
      "v": 90
    },
    {
      "midi": 68,
      "hit": false,
      "t": 152539.0624999998,
      "d": 144.53125,
      "v": 88
    },
    {
      "midi": 75,
      "hit": false,
      "t": 152634.11458333314,
      "d": 69.01041666665697,
      "v": 97
    },
    {
      "midi": 80,
      "hit": false,
      "t": 152713.54166666645,
      "d": 130.20833333334303,
      "v": 93
    },
    {
      "midi": 84,
      "hit": false,
      "t": 152783.85416666645,
      "d": 110.67708333334303,
      "v": 100
    },
    {
      "midi": 87,
      "hit": false,
      "t": 152865.88541666645,
      "d": 138.02083333334303,
      "v": 98
    },
    {
      "midi": 92,
      "hit": false,
      "t": 152963.54166666645,
      "d": 65.10416666668607,
      "v": 106
    },
    {
      "midi": 48,
      "hit": false,
      "t": 153376.30208333314,
      "d": 67.70833333334303,
      "v": 96
    },
    {
      "midi": 68,
      "hit": false,
      "t": 153376.30208333314,
      "d": 147.13541666668607,
      "v": 102
    },
    {
      "midi": 63,
      "hit": false,
      "t": 153378.9062499998,
      "d": 52.083333333343035,
      "v": 76
    },
    {
      "midi": 56,
      "hit": false,
      "t": 153378.9062499998,
      "d": 105.4687500000291,
      "v": 100
    },
    {
      "midi": 36,
      "hit": false,
      "t": 153384.11458333314,
      "d": 84.63541666668607,
      "v": 76
    },
    {
      "midi": 73,
      "hit": false,
      "t": 153610.67708333317,
      "d": 180.98958333334303,
      "v": 104
    },
    {
      "midi": 61,
      "hit": false,
      "t": 153617.18749999983,
      "d": 169.27083333334303,
      "v": 105
    },
    {
      "midi": 46,
      "hit": false,
      "t": 153621.09374999983,
      "d": 113.28125,
      "v": 115
    },
    {
      "midi": 34,
      "hit": false,
      "t": 153626.30208333317,
      "d": 89.84375,
      "v": 106
    },
    {
      "midi": 63,
      "hit": false,
      "t": 153765.62499999983,
      "d": 130.20833333334303,
      "v": 84
    },
    {
      "midi": 46,
      "hit": false,
      "t": 153871.09374999985,
      "d": 42.968749999970896,
      "v": 97
    },
    {
      "midi": 67,
      "hit": false,
      "t": 153873.6979166665,
      "d": 37.760416666656965,
      "v": 81
    },
    {
      "midi": 73,
      "hit": false,
      "t": 153916.66666666648,
      "d": 31.25,
      "v": 90
    },
    {
      "midi": 73,
      "hit": false,
      "t": 154014.32291666648,
      "d": 117.1875,
      "v": 86
    },
    {
      "midi": 61,
      "hit": false,
      "t": 154019.53124999983,
      "d": 95.05208333331393,
      "v": 97
    },
    {
      "midi": 51,
      "hit": false,
      "t": 154033.85416666648,
      "d": 130.20833333334303,
      "v": 65
    },
    {
      "midi": 55,
      "hit": false,
      "t": 154039.06249999983,
      "d": 57.291666666656965,
      "v": 70
    },
    {
      "midi": 75,
      "hit": false,
      "t": 154126.30208333314,
      "d": 122.39583333337214,
      "v": 91
    },
    {
      "midi": 79,
      "hit": false,
      "t": 154218.74999999983,
      "d": 113.28125,
      "v": 95
    },
    {
      "midi": 44,
      "hit": false,
      "t": 154239.58333333317,
      "d": 44.270833333343035,
      "v": 85
    },
    {
      "midi": 85,
      "hit": false,
      "t": 154286.45833333317,
      "d": 145.83333333331393,
      "v": 92
    },
    {
      "midi": 61,
      "hit": false,
      "t": 154394.53124999983,
      "d": 384.11458333331393,
      "v": 107
    },
    {
      "midi": 73,
      "hit": false,
      "t": 154398.43749999983,
      "d": 140.625,
      "v": 106
    },
    {
      "midi": 51,
      "hit": false,
      "t": 154403.64583333317,
      "d": 402.3437499999709,
      "v": 77
    },
    {
      "midi": 55,
      "hit": false,
      "t": 154408.85416666648,
      "d": 355.46875,
      "v": 67
    },
    {
      "midi": 75,
      "hit": false,
      "t": 154506.51041666648,
      "d": 134.11458333334303,
      "v": 92
    },
    {
      "midi": 79,
      "hit": false,
      "t": 154609.37499999983,
      "d": 69.01041666665697,
      "v": 89
    },
    {
      "midi": 85,
      "hit": false,
      "t": 154678.38541666648,
      "d": 29.947916666656965,
      "v": 97
    },
    {
      "midi": 85,
      "hit": false,
      "t": 154778.64583333314,
      "d": 135.41666666665697,
      "v": 71
    },
    {
      "midi": 87,
      "hit": false,
      "t": 154906.2499999998,
      "d": 109.375,
      "v": 67
    },
    {
      "midi": 44,
      "hit": false,
      "t": 154990.88541666645,
      "d": 45.57291666668607,
      "v": 69
    },
    {
      "midi": 91,
      "hit": false,
      "t": 155003.9062499998,
      "d": 122.39583333334303,
      "v": 91
    },
    {
      "midi": 97,
      "hit": false,
      "t": 155085.9374999998,
      "d": 48.177083333343035,
      "v": 81
    },
    {
      "midi": 84,
      "hit": false,
      "t": 155201.82291666648,
      "d": 332.0312500000291,
      "v": 96
    },
    {
      "midi": 60,
      "hit": false,
      "t": 155201.82291666648,
      "d": 337.23958333337214,
      "v": 94
    },
    {
      "midi": 96,
      "hit": false,
      "t": 155203.12499999983,
      "d": 278.64583333334303,
      "v": 100
    },
    {
      "midi": 56,
      "hit": false,
      "t": 155208.33333333317,
      "d": 281.25,
      "v": 73
    },
    {
      "midi": 51,
      "hit": false,
      "t": 155208.33333333317,
      "d": 299.47916666668607,
      "v": 60
    },
    {
      "midi": 84,
      "hit": false,
      "t": 155731.7708333332,
      "d": 195.3125,
      "v": 117
    },
    {
      "midi": 72,
      "hit": false,
      "t": 155735.6770833332,
      "d": 170.57291666665697,
      "v": 111
    },
    {
      "midi": 51,
      "hit": false,
      "t": 155746.09374999985,
      "d": 220.05208333334303,
      "v": 92
    },
    {
      "midi": 57,
      "hit": false,
      "t": 155846.3541666665,
      "d": 164.0625000000291,
      "v": 85
    },
    {
      "midi": 60,
      "hit": false,
      "t": 155932.29166666654,
      "d": 106.77083333334303,
      "v": 88
    },
    {
      "midi": 65,
      "hit": false,
      "t": 156009.1145833332,
      "d": 82.0312500000291,
      "v": 107
    },
    {
      "midi": 84,
      "hit": false,
      "t": 156015.62499999988,
      "d": 312.5,
      "v": 109
    },
    {
      "midi": 72,
      "hit": false,
      "t": 156026.04166666654,
      "d": 119.79166666668607,
      "v": 110
    },
    {
      "midi": 81,
      "hit": false,
      "t": 156161.45833333323,
      "d": 214.84375,
      "v": 82
    },
    {
      "midi": 77,
      "hit": false,
      "t": 156226.56249999988,
      "d": 157.55208333334303,
      "v": 75
    },
    {
      "midi": 72,
      "hit": false,
      "t": 156332.03124999988,
      "d": 164.0625,
      "v": 85
    },
    {
      "midi": 69,
      "hit": false,
      "t": 156506.51041666654,
      "d": 144.5312500000291,
      "v": 113
    },
    {
      "midi": 61,
      "hit": false,
      "t": 156558.59374999988,
      "d": 48.177083333343035,
      "v": 17
    },
    {
      "midi": 65,
      "hit": false,
      "t": 156631.51041666657,
      "d": 170.57291666665697,
      "v": 95
    },
    {
      "midi": 60,
      "hit": false,
      "t": 156735.67708333323,
      "d": 130.20833333334303,
      "v": 87
    },
    {
      "midi": 57,
      "hit": false,
      "t": 156811.19791666657,
      "d": 49.479166666656965,
      "v": 76
    },
    {
      "midi": 77,
      "hit": false,
      "t": 156890.6249999999,
      "d": 100.26041666665697,
      "v": 109
    },
    {
      "midi": 65,
      "hit": false,
      "t": 156894.5312499999,
      "d": 58.59375,
      "v": 100
    },
    {
      "midi": 49,
      "hit": false,
      "t": 157003.9062499999,
      "d": 255.20833333328483,
      "v": 92
    },
    {
      "midi": 70,
      "hit": false,
      "t": 157088.54166666657,
      "d": 167.9687499999709,
      "v": 111
    },
    {
      "midi": 82,
      "hit": false,
      "t": 157091.14583333323,
      "d": 236.97916666665697,
      "v": 117
    },
    {
      "midi": 58,
      "hit": false,
      "t": 157210.93749999988,
      "d": 115.88541666665697,
      "v": 96
    },
    {
      "midi": 77,
      "hit": false,
      "t": 157240.88541666654,
      "d": 187.5000000000291,
      "v": 94
    },
    {
      "midi": 73,
      "hit": false,
      "t": 157333.33333333323,
      "d": 114.58333333334303,
      "v": 91
    },
    {
      "midi": 65,
      "hit": false,
      "t": 157365.88541666657,
      "d": 50.78125,
      "v": 66
    },
    {
      "midi": 70,
      "hit": false,
      "t": 157406.2499999999,
      "d": 72.91666666665697,
      "v": 103
    },
    {
      "midi": 61,
      "hit": false,
      "t": 157490.88541666657,
      "d": 118.48958333334303,
      "v": 86
    },
    {
      "midi": 65,
      "hit": false,
      "t": 157578.1249999999,
      "d": 115.88541666668607,
      "v": 98
    },
    {
      "midi": 70,
      "hit": false,
      "t": 157653.64583333326,
      "d": 78.125,
      "v": 98
    },
    {
      "midi": 77,
      "hit": false,
      "t": 157751.30208333326,
      "d": 40.364583333343035,
      "v": 105
    },
    {
      "midi": 82,
      "hit": false,
      "t": 157826.8229166666,
      "d": 106.77083333331393,
      "v": 105
    },
    {
      "midi": 85,
      "hit": false,
      "t": 157911.45833333326,
      "d": 102.86458333331393,
      "v": 97
    },
    {
      "midi": 89,
      "hit": false,
      "t": 157996.0937499999,
      "d": 118.48958333331393,
      "v": 94
    },
    {
      "midi": 94,
      "hit": false,
      "t": 158088.54166666657,
      "d": 32.55208333331393,
      "v": 106
    },
    {
      "midi": 70,
      "hit": false,
      "t": 158460.93749999988,
      "d": 158.85416666668607,
      "v": 112
    },
    {
      "midi": 58,
      "hit": false,
      "t": 158466.14583333323,
      "d": 95.05208333334303,
      "v": 117
    },
    {
      "midi": 65,
      "hit": false,
      "t": 158468.74999999988,
      "d": 92.44791666668607,
      "v": 98
    },
    {
      "midi": 49,
      "hit": false,
      "t": 158468.74999999988,
      "d": 119.79166666668607,
      "v": 100
    },
    {
      "midi": 37,
      "hit": false,
      "t": 158484.37499999988,
      "d": 52.083333333343035,
      "v": 84
    },
    {
      "midi": 75,
      "hit": false,
      "t": 158723.95833333323,
      "d": 222.65625,
      "v": 111
    },
    {
      "midi": 63,
      "hit": false,
      "t": 158726.56249999988,
      "d": 119.79166666668607,
      "v": 106
    },
    {
      "midi": 48,
      "hit": false,
      "t": 158734.37499999988,
      "d": 114.58333333334303,
      "v": 112
    },
    {
      "midi": 36,
      "hit": false,
      "t": 158735.67708333323,
      "d": 123.69791666665697,
      "v": 107
    },
    {
      "midi": 65,
      "hit": false,
      "t": 158884.11458333323,
      "d": 106.77083333331393,
      "v": 82
    },
    {
      "midi": 69,
      "hit": false,
      "t": 158976.56249999988,
      "d": 111.97916666665697,
      "v": 92
    },
    {
      "midi": 48,
      "hit": false,
      "t": 158990.88541666654,
      "d": 62.5,
      "v": 45
    },
    {
      "midi": 53,
      "hit": false,
      "t": 159039.06249999988,
      "d": 72.91666666665697,
      "v": 25
    },
    {
      "midi": 72,
      "hit": false,
      "t": 159057.29166666654,
      "d": 96.35416666665697,
      "v": 98
    },
    {
      "midi": 75,
      "hit": false,
      "t": 159135.41666666654,
      "d": 33.854166666656965,
      "v": 93
    },
    {
      "midi": 63,
      "hit": false,
      "t": 159135.41666666654,
      "d": 123.69791666665697,
      "v": 103
    },
    {
      "midi": 57,
      "hit": false,
      "t": 159139.32291666654,
      "d": 136.7187499999709,
      "v": 79
    },
    {
      "midi": 77,
      "hit": false,
      "t": 159229.16666666654,
      "d": 286.45833333331393,
      "v": 105
    },
    {
      "midi": 53,
      "hit": false,
      "t": 159273.43749999985,
      "d": 67.70833333331393,
      "v": 32
    },
    {
      "midi": 81,
      "hit": false,
      "t": 159311.1979166665,
      "d": 115.88541666665697,
      "v": 99
    },
    {
      "midi": 46,
      "hit": false,
      "t": 159384.11458333317,
      "d": 52.083333333343035,
      "v": 113
    },
    {
      "midi": 87,
      "hit": false,
      "t": 159401.0416666665,
      "d": 35.15625,
      "v": 95
    },
    {
      "midi": 75,
      "hit": false,
      "t": 159566.40624999985,
      "d": 95.05208333334303,
      "v": 98
    },
    {
      "midi": 63,
      "hit": false,
      "t": 159578.12499999985,
      "d": 338.54166666668607,
      "v": 111
    },
    {
      "midi": 57,
      "hit": false,
      "t": 159591.1458333332,
      "d": 294.27083333334303,
      "v": 81
    },
    {
      "midi": 53,
      "hit": false,
      "t": 159598.9583333332,
      "d": 434.89583333334303,
      "v": 74
    },
    {
      "midi": 77,
      "hit": false,
      "t": 159696.6145833332,
      "d": 122.39583333334303,
      "v": 97
    },
    {
      "midi": 81,
      "hit": false,
      "t": 159813.8020833332,
      "d": 92.44791666668607,
      "v": 85
    },
    {
      "midi": 87,
      "hit": false,
      "t": 159908.85416666654,
      "d": 65.10416666665697,
      "v": 92
    },
    {
      "midi": 89,
      "hit": false,
      "t": 160026.04166666654,
      "d": 114.58333333331393,
      "v": 108
    },
    {
      "midi": 93,
      "hit": false,
      "t": 160134.1145833332,
      "d": 106.77083333331393,
      "v": 97
    },
    {
      "midi": 46,
      "hit": false,
      "t": 160148.43749999985,
      "d": 78.125,
      "v": 102
    },
    {
      "midi": 96,
      "hit": false,
      "t": 160218.74999999985,
      "d": 127.60416666665697,
      "v": 87
    },
    {
      "midi": 99,
      "hit": false,
      "t": 160333.33333333317,
      "d": 32.552083333343035,
      "v": 86
    },
    {
      "midi": 61,
      "hit": false,
      "t": 160476.56249999985,
      "d": 132.8125000000291,
      "v": 104
    },
    {
      "midi": 97,
      "hit": false,
      "t": 160479.1666666665,
      "d": 97.6562500000291,
      "v": 111
    },
    {
      "midi": 85,
      "hit": false,
      "t": 160485.67708333317,
      "d": 35.156250000029104,
      "v": 103
    },
    {
      "midi": 58,
      "hit": false,
      "t": 160494.7916666665,
      "d": 71.61458333337214,
      "v": 98
    },
    {
      "midi": 53,
      "hit": false,
      "t": 160503.90624999985,
      "d": 49.47916666668607,
      "v": 79
    },
    {
      "midi": 45,
      "hit": false,
      "t": 160894.53124999988,
      "d": 153.64583333337214,
      "v": 83
    },
    {
      "midi": 77,
      "hit": false,
      "t": 161009.11458333323,
      "d": 242.1875000000291,
      "v": 117
    },
    {
      "midi": 65,
      "hit": false,
      "t": 161010.41666666657,
      "d": 270.83333333334303,
      "v": 108
    },
    {
      "midi": 53,
      "hit": false,
      "t": 161014.32291666657,
      "d": 226.5625000000291,
      "v": 50
    },
    {
      "midi": 60,
      "hit": false,
      "t": 161019.5312499999,
      "d": 212.23958333334303,
      "v": 100
    },
    {
      "midi": 72,
      "hit": false,
      "t": 161019.5312499999,
      "d": 272.13541666665697,
      "v": 108
    },
    {
      "midi": 46,
      "hit": false,
      "t": 161394.5312499999,
      "d": 44.270833333343035,
      "v": 104
    },
    {
      "midi": 73,
      "hit": false,
      "t": 161441.4062499999,
      "d": 162.76041666665697,
      "v": 111
    },
    {
      "midi": 70,
      "hit": false,
      "t": 161447.91666666657,
      "d": 71.61458333334303,
      "v": 94
    },
    {
      "midi": 61,
      "hit": false,
      "t": 161450.52083333323,
      "d": 127.60416666668607,
      "v": 96
    },
    {
      "midi": 65,
      "hit": false,
      "t": 161451.82291666657,
      "d": 95.05208333334303,
      "v": 103
    },
    {
      "midi": 53,
      "hit": false,
      "t": 161453.1249999999,
      "d": 128.90625,
      "v": 46
    },
    {
      "midi": 52,
      "hit": false,
      "t": 161841.14583333323,
      "d": 372.39583333331393,
      "v": 90
    },
    {
      "midi": 70,
      "hit": false,
      "t": 161841.14583333323,
      "d": 372.39583333331393,
      "v": 115
    },
    {
      "midi": 58,
      "hit": false,
      "t": 161843.74999999988,
      "d": 291.66666666665697,
      "v": 108
    },
    {
      "midi": 61,
      "hit": false,
      "t": 161843.74999999988,
      "d": 315.10416666665697,
      "v": 105
    },
    {
      "midi": 49,
      "hit": false,
      "t": 161846.35416666654,
      "d": 440.10416666665697,
      "v": 74
    },
    {
      "midi": 64,
      "hit": false,
      "t": 161851.56249999988,
      "d": 244.79166666665697,
      "v": 105
    },
    {
      "midi": 68,
      "hit": false,
      "t": 162251.3020833332,
      "d": 326.82291666665697,
      "v": 106
    },
    {
      "midi": 56,
      "hit": false,
      "t": 162251.3020833332,
      "d": 359.375,
      "v": 99
    },
    {
      "midi": 60,
      "hit": false,
      "t": 162253.90624999985,
      "d": 337.23958333334303,
      "v": 108
    },
    {
      "midi": 63,
      "hit": false,
      "t": 162253.90624999985,
      "d": 524.739583333343,
      "v": 97
    },
    {
      "midi": 51,
      "hit": false,
      "t": 162265.62499999985,
      "d": 350.26041666668607,
      "v": 88
    },
    {
      "midi": 68,
      "hit": false,
      "t": 162713.54166666654,
      "d": 484.3749999999418,
      "v": 110
    },
    {
      "midi": 59,
      "hit": false,
      "t": 162718.74999999988,
      "d": 217.44791666662786,
      "v": 99
    },
    {
      "midi": 62,
      "hit": false,
      "t": 162718.74999999988,
      "d": 364.5833333332848,
      "v": 105
    },
    {
      "midi": 65,
      "hit": false,
      "t": 162721.35416666654,
      "d": 399.7395833332848,
      "v": 107
    },
    {
      "midi": 51,
      "hit": false,
      "t": 162725.26041666654,
      "d": 308.5937499999709,
      "v": 88
    },
    {
      "midi": 39,
      "hit": false,
      "t": 163239.58333333314,
      "d": 324.21875,
      "v": 112
    },
    {
      "midi": 27,
      "hit": false,
      "t": 163240.88541666648,
      "d": 292.96875,
      "v": 118
    },
    {
      "midi": 77,
      "hit": false,
      "t": 163856.77083333314,
      "d": 962.239583333343,
      "v": 117
    },
    {
      "midi": 68,
      "hit": false,
      "t": 163856.77083333314,
      "d": 1052.083333333314,
      "v": 106
    },
    {
      "midi": 73,
      "hit": false,
      "t": 163856.77083333314,
      "d": 1302.083333333343,
      "v": 103
    },
    {
      "midi": 65,
      "hit": false,
      "t": 163859.3749999998,
      "d": 989.583333333343,
      "v": 114
    },
    {
      "midi": 58,
      "hit": false,
      "t": 163864.58333333314,
      "d": 994.791666666657,
      "v": 88
    },
    {
      "midi": 61,
      "hit": false,
      "t": 163865.88541666648,
      "d": 983.072916666657,
      "v": 102
    },
    {
      "midi": 51,
      "hit": false,
      "t": 163865.88541666648,
      "d": 999.9999999999709,
      "v": 94
    },
    {
      "midi": 56,
      "hit": false,
      "t": 163873.69791666648,
      "d": 1212.239583333314,
      "v": 91
    },
    {
      "midi": 63,
      "hit": false,
      "t": 165093.7499999998,
      "d": 233.07291666668607,
      "v": 113
    },
    {
      "midi": 70,
      "hit": false,
      "t": 165093.7499999998,
      "d": 287.76041666668607,
      "v": 110
    },
    {
      "midi": 75,
      "hit": false,
      "t": 165093.7499999998,
      "d": 325.52083333334303,
      "v": 108
    },
    {
      "midi": 61,
      "hit": false,
      "t": 165101.5624999998,
      "d": 214.8437500000291,
      "v": 104
    },
    {
      "midi": 67,
      "hit": false,
      "t": 165101.5624999998,
      "d": 239.58333333334303,
      "v": 106
    },
    {
      "midi": 58,
      "hit": false,
      "t": 165104.16666666645,
      "d": 242.1875000000291,
      "v": 98
    },
    {
      "midi": 51,
      "hit": false,
      "t": 165109.3749999998,
      "d": 264.32291666668607,
      "v": 87
    },
    {
      "midi": 55,
      "hit": false,
      "t": 165126.30208333314,
      "d": 227.86458333334303,
      "v": 88
    },
    {
      "midi": 72,
      "hit": false,
      "t": 165739.58333333314,
      "d": 375,
      "v": 119
    },
    {
      "midi": 80,
      "hit": false,
      "t": 165740.88541666648,
      "d": 358.07291666665697,
      "v": 105
    },
    {
      "midi": 75,
      "hit": false,
      "t": 165740.88541666648,
      "d": 363.28125,
      "v": 103
    },
    {
      "midi": 84,
      "hit": false,
      "t": 165740.88541666648,
      "d": 365.88541666665697,
      "v": 119
    },
    {
      "midi": 44,
      "hit": false,
      "t": 165759.11458333314,
      "d": 229.16666666665697,
      "v": 116
    },
    {
      "midi": 32,
      "hit": false,
      "t": 165765.6249999998,
      "d": 213.54166666665697,
      "v": 117
    },
    {
      "midi": 60,
      "hit": false,
      "t": 166157.55208333314,
      "d": 147.13541666662786,
      "v": 77
    },
    {
      "midi": 63,
      "hit": false,
      "t": 166165.36458333314,
      "d": 114.58333333328483,
      "v": 84
    },
    {
      "midi": 51,
      "hit": false,
      "t": 166171.8749999998,
      "d": 62.499999999970896,
      "v": 57
    },
    {
      "midi": 56,
      "hit": false,
      "t": 166171.8749999998,
      "d": 70.3124999999709,
      "v": 67
    },
    {
      "midi": 84,
      "hit": false,
      "t": 166216.14583333314,
      "d": 135.41666666662786,
      "v": 114
    },
    {
      "midi": 72,
      "hit": false,
      "t": 166218.7499999998,
      "d": 130.20833333331393,
      "v": 105
    },
    {
      "midi": 75,
      "hit": false,
      "t": 166221.35416666645,
      "d": 130.20833333331393,
      "v": 101
    },
    {
      "midi": 80,
      "hit": false,
      "t": 166223.9583333331,
      "d": 140.625,
      "v": 91
    },
    {
      "midi": 63,
      "hit": false,
      "t": 166384.1145833331,
      "d": 126.30208333334303,
      "v": 74
    },
    {
      "midi": 60,
      "hit": false,
      "t": 166384.1145833331,
      "d": 154.94791666668607,
      "v": 65
    },
    {
      "midi": 51,
      "hit": false,
      "t": 166390.62499999977,
      "d": 72.91666666668607,
      "v": 73
    },
    {
      "midi": 56,
      "hit": false,
      "t": 166395.8333333331,
      "d": 83.33333333334303,
      "v": 56
    },
    {
      "midi": 72,
      "hit": false,
      "t": 166421.87499999977,
      "d": 125.0000000000291,
      "v": 116
    },
    {
      "midi": 84,
      "hit": false,
      "t": 166423.1770833331,
      "d": 148.4375,
      "v": 110
    },
    {
      "midi": 80,
      "hit": false,
      "t": 166423.1770833331,
      "d": 191.40625,
      "v": 96
    },
    {
      "midi": 75,
      "hit": false,
      "t": 166428.38541666645,
      "d": 140.625,
      "v": 92
    },
    {
      "midi": 60,
      "hit": false,
      "t": 166634.1145833331,
      "d": 197.91666666668607,
      "v": 50
    },
    {
      "midi": 63,
      "hit": false,
      "t": 166639.32291666645,
      "d": 182.29166666668607,
      "v": 87
    },
    {
      "midi": 56,
      "hit": false,
      "t": 166648.4374999998,
      "d": 203.125,
      "v": 57
    },
    {
      "midi": 51,
      "hit": false,
      "t": 166661.45833333314,
      "d": 170.57291666665697,
      "v": 75
    },
    {
      "midi": 87,
      "hit": false,
      "t": 166708.33333333314,
      "d": 260.41666666665697,
      "v": 114
    },
    {
      "midi": 75,
      "hit": false,
      "t": 166710.9374999998,
      "d": 308.59375,
      "v": 119
    },
    {
      "midi": 80,
      "hit": false,
      "t": 166723.95833333314,
      "d": 260.41666666665697,
      "v": 79
    },
    {
      "midi": 84,
      "hit": false,
      "t": 166729.16666666648,
      "d": 242.1874999999709,
      "v": 103
    },
    {
      "midi": 63,
      "hit": false,
      "t": 167031.2499999998,
      "d": 117.1875000000291,
      "v": 84
    },
    {
      "midi": 51,
      "hit": false,
      "t": 167048.17708333314,
      "d": 62.5,
      "v": 68
    },
    {
      "midi": 60,
      "hit": false,
      "t": 167052.08333333314,
      "d": 58.59375,
      "v": 66
    },
    {
      "midi": 56,
      "hit": false,
      "t": 167057.29166666648,
      "d": 78.125,
      "v": 53
    },
    {
      "midi": 75,
      "hit": false,
      "t": 167140.62499999983,
      "d": 50.78125,
      "v": 9
    },
    {
      "midi": 63,
      "hit": false,
      "t": 167218.74999999983,
      "d": 104.16666666668607,
      "v": 86
    },
    {
      "midi": 56,
      "hit": false,
      "t": 167234.37499999983,
      "d": 122.39583333334303,
      "v": 66
    },
    {
      "midi": 51,
      "hit": false,
      "t": 167235.67708333317,
      "d": 102.86458333334303,
      "v": 73
    },
    {
      "midi": 60,
      "hit": false,
      "t": 167239.58333333317,
      "d": 69.01041666668607,
      "v": 68
    },
    {
      "midi": 68,
      "hit": false,
      "t": 167256.5104166665,
      "d": 139.32291666665697,
      "v": 110
    },
    {
      "midi": 80,
      "hit": false,
      "t": 167256.5104166665,
      "d": 144.53125,
      "v": 110
    },
    {
      "midi": 75,
      "hit": false,
      "t": 167256.5104166665,
      "d": 175.78125,
      "v": 99
    },
    {
      "midi": 72,
      "hit": false,
      "t": 167269.53124999985,
      "d": 149.73958333331393,
      "v": 103
    },
    {
      "midi": 63,
      "hit": false,
      "t": 167438.80208333317,
      "d": 108.07291666665697,
      "v": 76
    },
    {
      "midi": 51,
      "hit": false,
      "t": 167438.80208333317,
      "d": 138.02083333331393,
      "v": 79
    },
    {
      "midi": 56,
      "hit": false,
      "t": 167453.12499999983,
      "d": 115.88541666665697,
      "v": 50
    },
    {
      "midi": 60,
      "hit": false,
      "t": 167463.54166666648,
      "d": 80.72916666668607,
      "v": 71
    },
    {
      "midi": 68,
      "hit": false,
      "t": 167484.37499999983,
      "d": 135.41666666665697,
      "v": 98
    },
    {
      "midi": 80,
      "hit": false,
      "t": 167484.37499999983,
      "d": 164.0625,
      "v": 97
    },
    {
      "midi": 72,
      "hit": false,
      "t": 167489.58333333317,
      "d": 111.97916666665697,
      "v": 105
    },
    {
      "midi": 75,
      "hit": false,
      "t": 167489.58333333317,
      "d": 151.04166666665697,
      "v": 97
    },
    {
      "midi": 63,
      "hit": false,
      "t": 167697.91666666648,
      "d": 123.69791666662786,
      "v": 90
    },
    {
      "midi": 56,
      "hit": false,
      "t": 167708.33333333314,
      "d": 156.2499999999709,
      "v": 58
    },
    {
      "midi": 51,
      "hit": false,
      "t": 167710.9374999998,
      "d": 75.52083333331393,
      "v": 56
    },
    {
      "midi": 60,
      "hit": false,
      "t": 167713.54166666645,
      "d": 53.385416666656965,
      "v": 74
    },
    {
      "midi": 70,
      "hit": false,
      "t": 167833.3333333331,
      "d": 175.7812500000291,
      "v": 118
    },
    {
      "midi": 79,
      "hit": false,
      "t": 167835.93749999977,
      "d": 184.89583333337214,
      "v": 108
    },
    {
      "midi": 82,
      "hit": false,
      "t": 167835.93749999977,
      "d": 222.6562500000291,
      "v": 117
    },
    {
      "midi": 75,
      "hit": false,
      "t": 167843.74999999977,
      "d": 217.44791666668607,
      "v": 94
    },
    {
      "midi": 58,
      "hit": false,
      "t": 167963.54166666645,
      "d": 59.895833333343035,
      "v": 96
    },
    {
      "midi": 55,
      "hit": false,
      "t": 167964.8437499998,
      "d": 58.59375,
      "v": 74
    },
    {
      "midi": 63,
      "hit": false,
      "t": 167968.7499999998,
      "d": 50.78125,
      "v": 98
    },
    {
      "midi": 51,
      "hit": false,
      "t": 167973.95833333314,
      "d": 109.3749999999709,
      "v": 57
    },
    {
      "midi": 84,
      "hit": false,
      "t": 168276.04166666642,
      "d": 165.36458333334303,
      "v": 119
    },
    {
      "midi": 72,
      "hit": false,
      "t": 168276.04166666642,
      "d": 208.33333333334303,
      "v": 120
    },
    {
      "midi": 80,
      "hit": false,
      "t": 168276.04166666642,
      "d": 209.63541666668607,
      "v": 105
    },
    {
      "midi": 44,
      "hit": false,
      "t": 168281.24999999977,
      "d": 182.29166666665697,
      "v": 105
    },
    {
      "midi": 32,
      "hit": false,
      "t": 168289.06249999977,
      "d": 149.73958333334303,
      "v": 112
    },
    {
      "midi": 63,
      "hit": false,
      "t": 168640.62499999977,
      "d": 115.88541666671517,
      "v": 90
    },
    {
      "midi": 68,
      "hit": false,
      "t": 168644.53124999977,
      "d": 157.55208333340124,
      "v": 81
    },
    {
      "midi": 51,
      "hit": false,
      "t": 168649.7395833331,
      "d": 74.2187500000291,
      "v": 39
    },
    {
      "midi": 60,
      "hit": false,
      "t": 168651.04166666645,
      "d": 65.10416666668607,
      "v": 86
    },
    {
      "midi": 56,
      "hit": false,
      "t": 168652.3437499998,
      "d": 83.33333333334303,
      "v": 53
    },
    {
      "midi": 72,
      "hit": false,
      "t": 168653.64583333314,
      "d": 135.41666666668607,
      "v": 74
    },
    {
      "midi": 72,
      "hit": false,
      "t": 168864.58333333317,
      "d": 136.71875,
      "v": 94
    },
    {
      "midi": 68,
      "hit": false,
      "t": 168871.09374999983,
      "d": 167.96875,
      "v": 93
    },
    {
      "midi": 60,
      "hit": false,
      "t": 168873.69791666648,
      "d": 135.41666666668607,
      "v": 97
    },
    {
      "midi": 56,
      "hit": false,
      "t": 168877.60416666648,
      "d": 135.41666666668607,
      "v": 68
    },
    {
      "midi": 63,
      "hit": false,
      "t": 168878.90624999983,
      "d": 110.67708333334303,
      "v": 78
    },
    {
      "midi": 51,
      "hit": false,
      "t": 168878.90624999983,
      "d": 130.20833333334303,
      "v": 65
    },
    {
      "midi": 51,
      "hit": false,
      "t": 169076.82291666648,
      "d": 126.30208333334303,
      "v": 79
    },
    {
      "midi": 63,
      "hit": false,
      "t": 169076.82291666648,
      "d": 136.71875,
      "v": 72
    },
    {
      "midi": 72,
      "hit": false,
      "t": 169076.82291666648,
      "d": 144.53125,
      "v": 94
    },
    {
      "midi": 60,
      "hit": false,
      "t": 169082.03124999983,
      "d": 144.53125,
      "v": 94
    },
    {
      "midi": 56,
      "hit": false,
      "t": 169096.35416666648,
      "d": 138.02083333334303,
      "v": 84
    },
    {
      "midi": 68,
      "hit": false,
      "t": 169096.35416666648,
      "d": 162.76041666668607,
      "v": 95
    },
    {
      "midi": 63,
      "hit": false,
      "t": 169294.27083333317,
      "d": 109.3749999999709,
      "v": 73
    },
    {
      "midi": 51,
      "hit": false,
      "t": 169296.87499999983,
      "d": 117.1874999999709,
      "v": 64
    },
    {
      "midi": 60,
      "hit": false,
      "t": 169303.38541666648,
      "d": 100.26041666665697,
      "v": 85
    },
    {
      "midi": 72,
      "hit": false,
      "t": 169303.38541666648,
      "d": 102.86458333331393,
      "v": 88
    },
    {
      "midi": 56,
      "hit": false,
      "t": 169321.61458333314,
      "d": 101.5625,
      "v": 83
    },
    {
      "midi": 68,
      "hit": false,
      "t": 169322.91666666648,
      "d": 125,
      "v": 97
    },
    {
      "midi": 60,
      "hit": false,
      "t": 169498.69791666648,
      "d": 40.364583333343035,
      "v": 87
    },
    {
      "midi": 63,
      "hit": false,
      "t": 169498.69791666648,
      "d": 102.86458333331393,
      "v": 73
    },
    {
      "midi": 51,
      "hit": false,
      "t": 169503.90624999983,
      "d": 57.291666666656965,
      "v": 61
    },
    {
      "midi": 72,
      "hit": false,
      "t": 169506.51041666648,
      "d": 84.63541666665697,
      "v": 87
    },
    {
      "midi": 56,
      "hit": false,
      "t": 169509.11458333314,
      "d": 58.59375,
      "v": 57
    },
    {
      "midi": 68,
      "hit": false,
      "t": 169510.41666666648,
      "d": 48.177083333343035,
      "v": 90
    },
    {
      "midi": 63,
      "hit": false,
      "t": 169697.91666666645,
      "d": 121.0937500000291,
      "v": 74
    },
    {
      "midi": 68,
      "hit": false,
      "t": 169708.3333333331,
      "d": 255.20833333340124,
      "v": 108
    },
    {
      "midi": 72,
      "hit": false,
      "t": 169708.3333333331,
      "d": 276.0416666667443,
      "v": 94
    },
    {
      "midi": 60,
      "hit": false,
      "t": 169709.63541666645,
      "d": 97.6562500000291,
      "v": 75
    },
    {
      "midi": 80,
      "hit": false,
      "t": 169710.9374999998,
      "d": 255.20833333337214,
      "v": 112
    },
    {
      "midi": 51,
      "hit": false,
      "t": 169717.44791666645,
      "d": 58.593750000029104,
      "v": 64
    },
    {
      "midi": 75,
      "hit": false,
      "t": 169718.7499999998,
      "d": 312.5000000000582,
      "v": 95
    },
    {
      "midi": 56,
      "hit": false,
      "t": 169727.86458333314,
      "d": 63.802083333343035,
      "v": 47
    },
    {
      "midi": 63,
      "hit": false,
      "t": 169953.12499999983,
      "d": 130.20833333337214,
      "v": 80
    },
    {
      "midi": 51,
      "hit": false,
      "t": 169958.33333333317,
      "d": 143.22916666668607,
      "v": 75
    },
    {
      "midi": 60,
      "hit": false,
      "t": 169971.3541666665,
      "d": 143.22916666668607,
      "v": 52
    },
    {
      "midi": 56,
      "hit": false,
      "t": 169989.5833333332,
      "d": 121.09375,
      "v": 65
    },
    {
      "midi": 75,
      "hit": false,
      "t": 170106.7708333332,
      "d": 179.6875,
      "v": 85
    },
    {
      "midi": 80,
      "hit": false,
      "t": 170109.37499999985,
      "d": 139.32291666668607,
      "v": 111
    },
    {
      "midi": 68,
      "hit": false,
      "t": 170110.6770833332,
      "d": 125,
      "v": 108
    },
    {
      "midi": 72,
      "hit": false,
      "t": 170114.5833333332,
      "d": 130.20833333334303,
      "v": 100
    },
    {
      "midi": 63,
      "hit": false,
      "t": 170253.90624999988,
      "d": 65.10416666665697,
      "v": 89
    },
    {
      "midi": 60,
      "hit": false,
      "t": 170276.04166666654,
      "d": 52.083333333343035,
      "v": 68
    },
    {
      "midi": 56,
      "hit": false,
      "t": 170281.24999999988,
      "d": 108.07291666665697,
      "v": 61
    },
    {
      "midi": 51,
      "hit": false,
      "t": 170283.85416666654,
      "d": 127.60416666668607,
      "v": 55
    },
    {
      "midi": 75,
      "hit": false,
      "t": 170348.95833333323,
      "d": 125,
      "v": 90
    },
    {
      "midi": 80,
      "hit": false,
      "t": 170348.95833333323,
      "d": 141.92708333334303,
      "v": 97
    },
    {
      "midi": 72,
      "hit": false,
      "t": 170351.56249999988,
      "d": 46.875,
      "v": 91
    },
    {
      "midi": 68,
      "hit": false,
      "t": 170351.56249999988,
      "d": 95.05208333334303,
      "v": 106
    },
    {
      "midi": 77,
      "hit": false,
      "t": 170765.6249999999,
      "d": 945.3124999999709,
      "v": 112
    },
    {
      "midi": 37,
      "hit": false,
      "t": 170769.5312499999,
      "d": 177.08333333331393,
      "v": 117
    },
    {
      "midi": 89,
      "hit": false,
      "t": 170769.5312499999,
      "d": 808.5937499999709,
      "v": 116
    },
    {
      "midi": 85,
      "hit": false,
      "t": 170769.5312499999,
      "d": 1044.270833333314,
      "v": 101
    },
    {
      "midi": 80,
      "hit": false,
      "t": 170770.83333333326,
      "d": 912.7604166666279,
      "v": 103
    },
    {
      "midi": 25,
      "hit": false,
      "t": 170773.4374999999,
      "d": 158.85416666665697,
      "v": 117
    },
    {
      "midi": 65,
      "hit": false,
      "t": 171126.30208333323,
      "d": 50.78125,
      "v": 97
    },
    {
      "midi": 56,
      "hit": false,
      "t": 171128.90624999988,
      "d": 111.97916666668607,
      "v": 68
    },
    {
      "midi": 61,
      "hit": false,
      "t": 171134.11458333323,
      "d": 67.70833333334303,
      "v": 70
    },
    {
      "midi": 65,
      "hit": false,
      "t": 171376.30208333323,
      "d": 118.48958333334303,
      "v": 96
    },
    {
      "midi": 56,
      "hit": false,
      "t": 171389.32291666657,
      "d": 111.97916666665697,
      "v": 81
    },
    {
      "midi": 61,
      "hit": false,
      "t": 171394.5312499999,
      "d": 57.291666666656965,
      "v": 79
    },
    {
      "midi": 65,
      "hit": false,
      "t": 171639.32291666654,
      "d": 117.1875000000291,
      "v": 91
    },
    {
      "midi": 56,
      "hit": false,
      "t": 171648.43749999988,
      "d": 102.86458333334303,
      "v": 79
    },
    {
      "midi": 61,
      "hit": false,
      "t": 171661.45833333323,
      "d": 57.291666666656965,
      "v": 72
    },
    {
      "midi": 65,
      "hit": false,
      "t": 171873.69791666657,
      "d": 65.10416666665697,
      "v": 84
    },
    {
      "midi": 61,
      "hit": false,
      "t": 171878.9062499999,
      "d": 44.27083333331393,
      "v": 77
    },
    {
      "midi": 56,
      "hit": false,
      "t": 171881.51041666657,
      "d": 62.5,
      "v": 81
    },
    {
      "midi": 87,
      "hit": false,
      "t": 171958.33333333323,
      "d": 263.02083333334303,
      "v": 111
    },
    {
      "midi": 75,
      "hit": false,
      "t": 171958.33333333323,
      "d": 277.34375,
      "v": 105
    },
    {
      "midi": 80,
      "hit": false,
      "t": 171971.35416666657,
      "d": 277.34375,
      "v": 93
    },
    {
      "midi": 63,
      "hit": false,
      "t": 172121.0937499999,
      "d": 123.69791666665697,
      "v": 96
    },
    {
      "midi": 55,
      "hit": false,
      "t": 172135.41666666657,
      "d": 140.625,
      "v": 85
    },
    {
      "midi": 56,
      "hit": false,
      "t": 172144.5312499999,
      "d": 147.13541666665697,
      "v": 76
    },
    {
      "midi": 85,
      "hit": false,
      "t": 172332.0312499999,
      "d": 269.5312499999709,
      "v": 112
    },
    {
      "midi": 80,
      "hit": false,
      "t": 172333.33333333326,
      "d": 151.04166666665697,
      "v": 90
    },
    {
      "midi": 73,
      "hit": false,
      "t": 172333.33333333326,
      "d": 205.72916666665697,
      "v": 112
    },
    {
      "midi": 61,
      "hit": false,
      "t": 172356.77083333326,
      "d": 111.97916666665697,
      "v": 86
    },
    {
      "midi": 56,
      "hit": false,
      "t": 172360.67708333326,
      "d": 121.09375,
      "v": 72
    },
    {
      "midi": 53,
      "hit": false,
      "t": 172373.6979166666,
      "d": 65.10416666665697,
      "v": 79
    },
    {
      "midi": 61,
      "hit": false,
      "t": 172588.54166666657,
      "d": 177.08333333331393,
      "v": 86
    },
    {
      "midi": 53,
      "hit": false,
      "t": 172598.95833333323,
      "d": 166.66666666665697,
      "v": 89
    },
    {
      "midi": 56,
      "hit": false,
      "t": 172610.67708333323,
      "d": 158.85416666665697,
      "v": 62
    },
    {
      "midi": 84,
      "hit": false,
      "t": 172707.03124999988,
      "d": 204.42708333331393,
      "v": 117
    },
    {
      "midi": 72,
      "hit": false,
      "t": 172707.03124999988,
      "d": 239.58333333331393,
      "v": 120
    },
    {
      "midi": 80,
      "hit": false,
      "t": 172713.54166666654,
      "d": 295.57291666665697,
      "v": 100
    },
    {
      "midi": 60,
      "hit": false,
      "t": 172881.51041666654,
      "d": 102.86458333331393,
      "v": 100
    },
    {
      "midi": 56,
      "hit": false,
      "t": 172884.1145833332,
      "d": 157.55208333334303,
      "v": 74
    },
    {
      "midi": 51,
      "hit": false,
      "t": 172885.41666666654,
      "d": 178.38541666665697,
      "v": 88
    },
    {
      "midi": 82,
      "hit": false,
      "t": 173164.06249999988,
      "d": 177.08333333331393,
      "v": 113
    },
    {
      "midi": 70,
      "hit": false,
      "t": 173164.06249999988,
      "d": 214.8437499999709,
      "v": 117
    },
    {
      "midi": 80,
      "hit": false,
      "t": 173166.66666666654,
      "d": 192.70833333331393,
      "v": 88
    },
    {
      "midi": 76,
      "hit": false,
      "t": 173173.1770833332,
      "d": 145.83333333334303,
      "v": 97
    },
    {
      "midi": 49,
      "hit": false,
      "t": 173186.19791666654,
      "d": 162.76041666665697,
      "v": 97
    },
    {
      "midi": 37,
      "hit": false,
      "t": 173191.40624999988,
      "d": 152.3437499999709,
      "v": 92
    },
    {
      "midi": 70,
      "hit": false,
      "t": 173520.8333333332,
      "d": 151.04166666668607,
      "v": 74
    },
    {
      "midi": 58,
      "hit": false,
      "t": 173523.43749999985,
      "d": 91.14583333337214,
      "v": 73
    },
    {
      "midi": 61,
      "hit": false,
      "t": 173523.43749999985,
      "d": 122.39583333337214,
      "v": 76
    },
    {
      "midi": 64,
      "hit": false,
      "t": 173528.6458333332,
      "d": 100.26041666668607,
      "v": 68
    },
    {
      "midi": 68,
      "hit": false,
      "t": 173533.85416666654,
      "d": 154.94791666668607,
      "v": 61
    },
    {
      "midi": 56,
      "hit": false,
      "t": 173537.76041666654,
      "d": 83.33333333334303,
      "v": 69
    },
    {
      "midi": 52,
      "hit": false,
      "t": 173539.06249999988,
      "d": 52.083333333343035,
      "v": 59
    },
    {
      "midi": 70,
      "hit": false,
      "t": 173744.79166666657,
      "d": 144.53125,
      "v": 81
    },
    {
      "midi": 61,
      "hit": false,
      "t": 173748.69791666657,
      "d": 117.1875,
      "v": 78
    },
    {
      "midi": 64,
      "hit": false,
      "t": 173753.9062499999,
      "d": 141.92708333331393,
      "v": 80
    },
    {
      "midi": 58,
      "hit": false,
      "t": 173760.41666666657,
      "d": 66.40625,
      "v": 93
    },
    {
      "midi": 68,
      "hit": false,
      "t": 173769.5312499999,
      "d": 354.16666666662786,
      "v": 82
    },
    {
      "midi": 56,
      "hit": false,
      "t": 173776.04166666657,
      "d": 95.05208333334303,
      "v": 68
    },
    {
      "midi": 52,
      "hit": false,
      "t": 173779.94791666657,
      "d": 44.270833333343035,
      "v": 64
    },
    {
      "midi": 61,
      "hit": false,
      "t": 173946.61458333323,
      "d": 117.1875,
      "v": 78
    },
    {
      "midi": 70,
      "hit": false,
      "t": 173953.12499999988,
      "d": 128.90625,
      "v": 93
    },
    {
      "midi": 64,
      "hit": false,
      "t": 173963.54166666654,
      "d": 39.0625,
      "v": 91
    },
    {
      "midi": 56,
      "hit": false,
      "t": 173966.1458333332,
      "d": 130.20833333334303,
      "v": 66
    },
    {
      "midi": 58,
      "hit": false,
      "t": 173973.9583333332,
      "d": 65.10416666668607,
      "v": 90
    },
    {
      "midi": 52,
      "hit": false,
      "t": 173979.16666666654,
      "d": 67.70833333334303,
      "v": 55
    },
    {
      "midi": 70,
      "hit": false,
      "t": 174164.06249999988,
      "d": 122.39583333331393,
      "v": 74
    },
    {
      "midi": 61,
      "hit": false,
      "t": 174169.27083333323,
      "d": 111.97916666662786,
      "v": 71
    },
    {
      "midi": 56,
      "hit": false,
      "t": 174171.87499999988,
      "d": 131.51041666665697,
      "v": 68
    },
    {
      "midi": 58,
      "hit": false,
      "t": 174183.59374999988,
      "d": 62.499999999970896,
      "v": 84
    },
    {
      "midi": 64,
      "hit": false,
      "t": 174191.40624999988,
      "d": 48.17708333331393,
      "v": 79
    },
    {
      "midi": 52,
      "hit": false,
      "t": 174194.01041666654,
      "d": 54.687499999970896,
      "v": 60
    },
    {
      "midi": 68,
      "hit": false,
      "t": 174196.6145833332,
      "d": 125,
      "v": 86
    },
    {
      "midi": 61,
      "hit": false,
      "t": 174378.90624999985,
      "d": 110.67708333331393,
      "v": 63
    },
    {
      "midi": 70,
      "hit": false,
      "t": 174384.1145833332,
      "d": 154.94791666662786,
      "v": 73
    },
    {
      "midi": 56,
      "hit": false,
      "t": 174398.43749999985,
      "d": 160.1562499999709,
      "v": 38
    },
    {
      "midi": 68,
      "hit": false,
      "t": 174401.0416666665,
      "d": 140.6249999999709,
      "v": 75
    },
    {
      "midi": 58,
      "hit": false,
      "t": 174406.24999999985,
      "d": 83.33333333331393,
      "v": 74
    },
    {
      "midi": 64,
      "hit": false,
      "t": 174408.8541666665,
      "d": 44.27083333331393,
      "v": 63
    },
    {
      "midi": 52,
      "hit": false,
      "t": 174411.45833333317,
      "d": 66.40625,
      "v": 52
    },
    {
      "midi": 58,
      "hit": false,
      "t": 174701.82291666648,
      "d": 234.3750000000291,
      "v": 70
    },
    {
      "midi": 51,
      "hit": false,
      "t": 174726.56249999983,
      "d": 225.26041666668607,
      "v": 48
    },
    {
      "midi": 49,
      "hit": false,
      "t": 174731.77083333317,
      "d": 207.03125,
      "v": 48
    },
    {
      "midi": 55,
      "hit": false,
      "t": 174731.77083333317,
      "d": 239.58333333334303,
      "v": 55
    },
    {
      "midi": 82,
      "hit": false,
      "t": 174807.2916666665,
      "d": 223.95833333334303,
      "v": 103
    },
    {
      "midi": 70,
      "hit": false,
      "t": 174807.2916666665,
      "d": 261.71875,
      "v": 94
    },
    {
      "midi": 75,
      "hit": false,
      "t": 174833.33333333317,
      "d": 186.19791666668607,
      "v": 54
    },
    {
      "midi": 55,
      "hit": false,
      "t": 175071.61458333317,
      "d": 131.51041666665697,
      "v": 54
    },
    {
      "midi": 58,
      "hit": false,
      "t": 175082.03124999983,
      "d": 79.42708333331393,
      "v": 68
    },
    {
      "midi": 51,
      "hit": false,
      "t": 175088.54166666648,
      "d": 105.46875,
      "v": 36
    },
    {
      "midi": 49,
      "hit": false,
      "t": 175098.95833333314,
      "d": 79.42708333334303,
      "v": 41
    },
    {
      "midi": 79,
      "hit": false,
      "t": 175191.40624999983,
      "d": 53.385416666656965,
      "v": 99
    },
    {
      "midi": 67,
      "hit": false,
      "t": 175194.01041666648,
      "d": 66.40625,
      "v": 91
    },
    {
      "midi": 58,
      "hit": false,
      "t": 175354.16666666648,
      "d": 57.291666666656965,
      "v": 75
    },
    {
      "midi": 49,
      "hit": false,
      "t": 175356.77083333314,
      "d": 125,
      "v": 50
    },
    {
      "midi": 55,
      "hit": false,
      "t": 175376.30208333314,
      "d": 59.89583333331393,
      "v": 28
    },
    {
      "midi": 51,
      "hit": false,
      "t": 175381.51041666648,
      "d": 66.4062499999709,
      "v": 51
    },
    {
      "midi": 75,
      "hit": false,
      "t": 175419.27083333314,
      "d": 144.53125,
      "v": 96
    },
    {
      "midi": 63,
      "hit": false,
      "t": 175421.8749999998,
      "d": 46.875,
      "v": 89
    },
    {
      "midi": 80,
      "hit": false,
      "t": 175648.4374999998,
      "d": 184.89583333334303,
      "v": 104
    },
    {
      "midi": 68,
      "hit": false,
      "t": 175651.04166666645,
      "d": 220.05208333334303,
      "v": 100
    },
    {
      "midi": 75,
      "hit": false,
      "t": 175664.0624999998,
      "d": 179.6875,
      "v": 52
    },
    {
      "midi": 36,
      "hit": false,
      "t": 175666.66666666645,
      "d": 161.45833333334303,
      "v": 92
    },
    {
      "midi": 48,
      "hit": false,
      "t": 175666.66666666645,
      "d": 186.19791666668607,
      "v": 92
    },
    {
      "midi": 60,
      "hit": false,
      "t": 175996.0937499998,
      "d": 127.60416666665697,
      "v": 87
    },
    {
      "midi": 68,
      "hit": false,
      "t": 175996.0937499998,
      "d": 148.4375,
      "v": 62
    },
    {
      "midi": 63,
      "hit": false,
      "t": 176006.51041666645,
      "d": 128.90625,
      "v": 69
    },
    {
      "midi": 56,
      "hit": false,
      "t": 176015.6249999998,
      "d": 105.46875,
      "v": 55
    },
    {
      "midi": 51,
      "hit": false,
      "t": 176036.45833333314,
      "d": 72.91666666665697,
      "v": 58
    },
    {
      "midi": 48,
      "hit": false,
      "t": 176039.0624999998,
      "d": 76.82291666665697,
      "v": 56
    },
    {
      "midi": 63,
      "hit": false,
      "t": 176229.16666666645,
      "d": 127.60416666665697,
      "v": 70
    },
    {
      "midi": 68,
      "hit": false,
      "t": 176231.7708333331,
      "d": 152.34375,
      "v": 78
    },
    {
      "midi": 60,
      "hit": false,
      "t": 176235.6770833331,
      "d": 110.67708333334303,
      "v": 78
    },
    {
      "midi": 56,
      "hit": false,
      "t": 176240.88541666645,
      "d": 85.9375,
      "v": 63
    },
    {
      "midi": 51,
      "hit": false,
      "t": 176259.1145833331,
      "d": 62.5,
      "v": 65
    },
    {
      "midi": 48,
      "hit": false,
      "t": 176260.41666666645,
      "d": 62.5,
      "v": 59
    },
    {
      "midi": 63,
      "hit": false,
      "t": 176438.8020833331,
      "d": 113.2812499999709,
      "v": 67
    },
    {
      "midi": 68,
      "hit": false,
      "t": 176444.01041666645,
      "d": 117.1874999999709,
      "v": 93
    },
    {
      "midi": 60,
      "hit": false,
      "t": 176446.6145833331,
      "d": 67.70833333331393,
      "v": 69
    },
    {
      "midi": 56,
      "hit": false,
      "t": 176457.03124999977,
      "d": 100.26041666665697,
      "v": 73
    },
    {
      "midi": 51,
      "hit": false,
      "t": 176476.56249999977,
      "d": 57.291666666656965,
      "v": 73
    },
    {
      "midi": 48,
      "hit": false,
      "t": 176476.56249999977,
      "d": 65.10416666665697,
      "v": 66
    },
    {
      "midi": 68,
      "hit": false,
      "t": 176631.51041666642,
      "d": 40.364583333343035,
      "v": 85
    },
    {
      "midi": 56,
      "hit": false,
      "t": 176678.38541666642,
      "d": 118.48958333334303,
      "v": 66
    },
    {
      "midi": 48,
      "hit": false,
      "t": 176697.91666666642,
      "d": 71.61458333334303,
      "v": 77
    },
    {
      "midi": 51,
      "hit": false,
      "t": 176697.91666666642,
      "d": 85.9375,
      "v": 56
    },
    {
      "midi": 68,
      "hit": false,
      "t": 176828.12499999977,
      "d": 118.48958333334303,
      "v": 105
    },
    {
      "midi": 72,
      "hit": false,
      "t": 176833.3333333331,
      "d": 100.26041666665697,
      "v": 98
    },
    {
      "midi": 80,
      "hit": false,
      "t": 176833.3333333331,
      "d": 161.45833333334303,
      "v": 108
    },
    {
      "midi": 75,
      "hit": false,
      "t": 176841.1458333331,
      "d": 135.41666666665697,
      "v": 95
    },
    {
      "midi": 56,
      "hit": false,
      "t": 176958.3333333331,
      "d": 50.78125,
      "v": 81
    },
    {
      "midi": 48,
      "hit": false,
      "t": 176985.6770833331,
      "d": 53.385416666656965,
      "v": 76
    },
    {
      "midi": 51,
      "hit": false,
      "t": 176989.5833333331,
      "d": 46.875,
      "v": 75
    },
    {
      "midi": 85,
      "hit": false,
      "t": 177182.29166666642,
      "d": 265.6250000000291,
      "v": 113
    },
    {
      "midi": 73,
      "hit": false,
      "t": 177182.29166666642,
      "d": 269.5312500000291,
      "v": 109
    },
    {
      "midi": 79,
      "hit": false,
      "t": 177188.80208333308,
      "d": 279.94791666668607,
      "v": 107
    },
    {
      "midi": 46,
      "hit": false,
      "t": 177197.91666666642,
      "d": 156.2500000000291,
      "v": 111
    },
    {
      "midi": 75,
      "hit": false,
      "t": 177207.03124999977,
      "d": 157.55208333334303,
      "v": 84
    },
    {
      "midi": 34,
      "hit": false,
      "t": 177208.3333333331,
      "d": 161.45833333334303,
      "v": 110
    },
    {
      "midi": 61,
      "hit": false,
      "t": 177466.1458333331,
      "d": 130.20833333331393,
      "v": 98
    },
    {
      "midi": 51,
      "hit": false,
      "t": 177494.79166666642,
      "d": 136.71875,
      "v": 69
    },
    {
      "midi": 55,
      "hit": false,
      "t": 177501.30208333308,
      "d": 71.61458333334303,
      "v": 68
    },
    {
      "midi": 61,
      "hit": false,
      "t": 177713.54166666642,
      "d": 93.7499999999709,
      "v": 78
    },
    {
      "midi": 55,
      "hit": false,
      "t": 177725.26041666642,
      "d": 55.98958333331393,
      "v": 53
    },
    {
      "midi": 51,
      "hit": false,
      "t": 177735.67708333308,
      "d": 130.20833333331393,
      "v": 70
    },
    {
      "midi": 73,
      "hit": false,
      "t": 177781.24999999974,
      "d": 89.84375,
      "v": 110
    },
    {
      "midi": 85,
      "hit": false,
      "t": 177783.8541666664,
      "d": 152.34375,
      "v": 110
    },
    {
      "midi": 85,
      "hit": false,
      "t": 178014.3229166664,
      "d": 500.0000000000291,
      "v": 102
    },
    {
      "midi": 44,
      "hit": false,
      "t": 178015.62499999974,
      "d": 166.66666666665697,
      "v": 93
    },
    {
      "midi": 32,
      "hit": false,
      "t": 178023.43749999974,
      "d": 164.0625,
      "v": 96
    },
    {
      "midi": 75,
      "hit": false,
      "t": 178023.43749999974,
      "d": 388.02083333337214,
      "v": 99
    },
    {
      "midi": 73,
      "hit": false,
      "t": 178028.64583333308,
      "d": 450.52083333334303,
      "v": 112
    },
    {
      "midi": 80,
      "hit": false,
      "t": 178031.24999999974,
      "d": 437.5000000000291,
      "v": 96
    },
    {
      "midi": 61,
      "hit": false,
      "t": 178308.59374999974,
      "d": 97.6562500000291,
      "v": 97
    },
    {
      "midi": 51,
      "hit": false,
      "t": 178319.0104166664,
      "d": 65.10416666668607,
      "v": 79
    },
    {
      "midi": 56,
      "hit": false,
      "t": 178335.93749999974,
      "d": 65.10416666668607,
      "v": 61
    },
    {
      "midi": 61,
      "hit": false,
      "t": 178553.38541666642,
      "d": 40.36458333331393,
      "v": 98
    },
    {
      "midi": 56,
      "hit": false,
      "t": 178571.61458333308,
      "d": 44.27083333331393,
      "v": 72
    },
    {
      "midi": 51,
      "hit": false,
      "t": 178571.61458333308,
      "d": 49.479166666656965,
      "v": 84
    },
    {
      "midi": 72,
      "hit": false,
      "t": 178735.67708333308,
      "d": 240.88541666668607,
      "v": 111
    },
    {
      "midi": 75,
      "hit": false,
      "t": 178735.67708333308,
      "d": 270.83333333334303,
      "v": 97
    },
    {
      "midi": 80,
      "hit": false,
      "t": 178735.67708333308,
      "d": 273.4375,
      "v": 94
    },
    {
      "midi": 84,
      "hit": false,
      "t": 178739.58333333308,
      "d": 223.95833333334303,
      "v": 111
    },
    {
      "midi": 51,
      "hit": false,
      "t": 178753.90624999974,
      "d": 106.77083333334303,
      "v": 99
    },
    {
      "midi": 56,
      "hit": false,
      "t": 178753.90624999974,
      "d": 119.79166666668607,
      "v": 97
    },
    {
      "midi": 60,
      "hit": false,
      "t": 178753.90624999974,
      "d": 119.79166666668607,
      "v": 97
    },
    {
      "midi": 51,
      "hit": false,
      "t": 178994.79166666642,
      "d": 106.77083333334303,
      "v": 91
    },
    {
      "midi": 60,
      "hit": false,
      "t": 178998.69791666642,
      "d": 121.0937500000291,
      "v": 101
    },
    {
      "midi": 56,
      "hit": false,
      "t": 179014.32291666642,
      "d": 105.4687500000291,
      "v": 69
    },
    {
      "midi": 84,
      "hit": false,
      "t": 179110.6770833331,
      "d": 203.125,
      "v": 121
    },
    {
      "midi": 72,
      "hit": false,
      "t": 179115.88541666645,
      "d": 227.86458333331393,
      "v": 123
    },
    {
      "midi": 60,
      "hit": false,
      "t": 179213.54166666645,
      "d": 100.26041666665697,
      "v": 80
    },
    {
      "midi": 56,
      "hit": false,
      "t": 179229.16666666645,
      "d": 111.97916666665697,
      "v": 77
    },
    {
      "midi": 51,
      "hit": false,
      "t": 179239.5833333331,
      "d": 121.09375,
      "v": 83
    },
    {
      "midi": 72,
      "hit": false,
      "t": 179432.29166666645,
      "d": 338.54166666665697,
      "v": 119
    },
    {
      "midi": 84,
      "hit": false,
      "t": 179433.5937499998,
      "d": 217.44791666668607,
      "v": 112
    },
    {
      "midi": 81,
      "hit": false,
      "t": 179433.5937499998,
      "d": 269.53125,
      "v": 111
    },
    {
      "midi": 77,
      "hit": false,
      "t": 179438.80208333314,
      "d": 257.8125,
      "v": 110
    },
    {
      "midi": 51,
      "hit": false,
      "t": 179444.01041666648,
      "d": 147.13541666665697,
      "v": 101
    },
    {
      "midi": 39,
      "hit": false,
      "t": 179457.03124999983,
      "d": 126.30208333331393,
      "v": 100
    },
    {
      "midi": 60,
      "hit": false,
      "t": 179735.67708333314,
      "d": 123.69791666662786,
      "v": 94
    },
    {
      "midi": 51,
      "hit": false,
      "t": 179739.58333333314,
      "d": 141.92708333328483,
      "v": 78
    },
    {
      "midi": 53,
      "hit": false,
      "t": 179746.0937499998,
      "d": 143.22916666662786,
      "v": 80
    },
    {
      "midi": 57,
      "hit": false,
      "t": 179764.32291666645,
      "d": 139.32291666662786,
      "v": 81
    },
    {
      "midi": 53,
      "hit": false,
      "t": 180001.30208333308,
      "d": 138.02083333334303,
      "v": 49
    },
    {
      "midi": 51,
      "hit": false,
      "t": 180003.90624999974,
      "d": 173.17708333334303,
      "v": 69
    },
    {
      "midi": 60,
      "hit": false,
      "t": 180009.11458333308,
      "d": 76.82291666665697,
      "v": 102
    },
    {
      "midi": 57,
      "hit": false,
      "t": 180010.41666666642,
      "d": 115.88541666665697,
      "v": 57
    },
    {
      "midi": 65,
      "hit": false,
      "t": 180071.61458333308,
      "d": 67.70833333334303,
      "v": 114
    },
    {
      "midi": 77,
      "hit": false,
      "t": 180071.61458333308,
      "d": 82.03125,
      "v": 114
    },
    {
      "midi": 82,
      "hit": false,
      "t": 180371.09374999977,
      "d": 190.10416666668607,
      "v": 121
    },
    {
      "midi": 70,
      "hit": false,
      "t": 180371.09374999977,
      "d": 230.4687500000291,
      "v": 121
    },
    {
      "midi": 37,
      "hit": false,
      "t": 180376.3020833331,
      "d": 170.57291666668607,
      "v": 106
    },
    {
      "midi": 49,
      "hit": false,
      "t": 180376.3020833331,
      "d": 192.70833333334303,
      "v": 115
    },
    {
      "midi": 77,
      "hit": false,
      "t": 180381.51041666645,
      "d": 179.6875,
      "v": 106
    },
    {
      "midi": 58,
      "hit": false,
      "t": 180723.95833333314,
      "d": 147.13541666668607,
      "v": 98
    },
    {
      "midi": 70,
      "hit": false,
      "t": 180731.77083333314,
      "d": 162.76041666668607,
      "v": 95
    },
    {
      "midi": 53,
      "hit": false,
      "t": 180734.3749999998,
      "d": 149.73958333337214,
      "v": 68
    },
    {
      "midi": 65,
      "hit": false,
      "t": 180735.67708333314,
      "d": 135.41666666668607,
      "v": 89
    },
    {
      "midi": 61,
      "hit": false,
      "t": 180744.79166666648,
      "d": 134.11458333334303,
      "v": 79
    },
    {
      "midi": 49,
      "hit": false,
      "t": 180748.69791666648,
      "d": 145.83333333334303,
      "v": 66
    },
    {
      "midi": 58,
      "hit": false,
      "t": 180960.93749999983,
      "d": 143.22916666665697,
      "v": 79
    },
    {
      "midi": 70,
      "hit": false,
      "t": 180966.14583333317,
      "d": 162.76041666665697,
      "v": 97
    },
    {
      "midi": 61,
      "hit": false,
      "t": 180971.3541666665,
      "d": 132.8124999999709,
      "v": 87
    },
    {
      "midi": 53,
      "hit": false,
      "t": 180973.95833333317,
      "d": 147.13541666665697,
      "v": 71
    },
    {
      "midi": 49,
      "hit": false,
      "t": 180976.56249999983,
      "d": 152.34375,
      "v": 81
    },
    {
      "midi": 65,
      "hit": false,
      "t": 180976.56249999983,
      "d": 154.94791666665697,
      "v": 84
    },
    {
      "midi": 58,
      "hit": false,
      "t": 181188.80208333314,
      "d": 119.79166666668607,
      "v": 81
    },
    {
      "midi": 53,
      "hit": false,
      "t": 181196.61458333314,
      "d": 131.51041666671517,
      "v": 82
    },
    {
      "midi": 70,
      "hit": false,
      "t": 181197.91666666648,
      "d": 115.88541666668607,
      "v": 93
    },
    {
      "midi": 61,
      "hit": false,
      "t": 181201.82291666648,
      "d": 92.44791666668607,
      "v": 79
    },
    {
      "midi": 49,
      "hit": false,
      "t": 181201.82291666648,
      "d": 125.0000000000291,
      "v": 83
    },
    {
      "midi": 65,
      "hit": false,
      "t": 181203.12499999983,
      "d": 140.6250000000291,
      "v": 95
    },
    {
      "midi": 61,
      "hit": false,
      "t": 181385.4166666665,
      "d": 42.96875,
      "v": 57
    },
    {
      "midi": 70,
      "hit": false,
      "t": 181395.83333333317,
      "d": 45.57291666668607,
      "v": 79
    },
    {
      "midi": 58,
      "hit": false,
      "t": 181416.6666666665,
      "d": 119.79166666668607,
      "v": 76
    },
    {
      "midi": 53,
      "hit": false,
      "t": 181419.27083333317,
      "d": 132.8125000000291,
      "v": 60
    },
    {
      "midi": 49,
      "hit": false,
      "t": 181427.08333333317,
      "d": 141.92708333337214,
      "v": 64
    },
    {
      "midi": 70,
      "hit": false,
      "t": 181626.3020833332,
      "d": 125,
      "v": 115
    },
    {
      "midi": 77,
      "hit": false,
      "t": 181628.90624999985,
      "d": 140.625,
      "v": 104
    },
    {
      "midi": 82,
      "hit": false,
      "t": 181631.5104166665,
      "d": 170.57291666668607,
      "v": 116
    },
    {
      "midi": 73,
      "hit": false,
      "t": 181639.3229166665,
      "d": 100.26041666668607,
      "v": 100
    },
    {
      "midi": 58,
      "hit": false,
      "t": 181726.56249999985,
      "d": 84.63541666668607,
      "v": 95
    },
    {
      "midi": 49,
      "hit": false,
      "t": 181740.88541666654,
      "d": 135.41666666665697,
      "v": 78
    },
    {
      "midi": 53,
      "hit": false,
      "t": 181753.90624999985,
      "d": 49.47916666668607,
      "v": 66
    },
    {
      "midi": 87,
      "hit": false,
      "t": 182048.1770833332,
      "d": 341.14583333334303,
      "v": 112
    },
    {
      "midi": 75,
      "hit": false,
      "t": 182052.0833333332,
      "d": 351.5625,
      "v": 110
    },
    {
      "midi": 81,
      "hit": false,
      "t": 182053.38541666654,
      "d": 363.28125,
      "v": 109
    },
    {
      "midi": 77,
      "hit": false,
      "t": 182057.29166666654,
      "d": 351.5625,
      "v": 99
    },
    {
      "midi": 36,
      "hit": false,
      "t": 182066.40624999988,
      "d": 115.88541666665697,
      "v": 111
    },
    {
      "midi": 48,
      "hit": false,
      "t": 182066.40624999988,
      "d": 139.32291666665697,
      "v": 96
    },
    {
      "midi": 53,
      "hit": false,
      "t": 182356.7708333332,
      "d": 106.77083333334303,
      "v": 69
    },
    {
      "midi": 63,
      "hit": false,
      "t": 182360.6770833332,
      "d": 92.44791666668607,
      "v": 95
    },
    {
      "midi": 60,
      "hit": false,
      "t": 182376.3020833332,
      "d": 108.07291666665697,
      "v": 73
    },
    {
      "midi": 57,
      "hit": false,
      "t": 182389.32291666654,
      "d": 84.63541666665697,
      "v": 59
    },
    {
      "midi": 63,
      "hit": false,
      "t": 182609.37499999985,
      "d": 101.5625,
      "v": 100
    },
    {
      "midi": 53,
      "hit": false,
      "t": 182635.4166666665,
      "d": 110.67708333334303,
      "v": 83
    },
    {
      "midi": 57,
      "hit": false,
      "t": 182638.02083333317,
      "d": 48.177083333343035,
      "v": 58
    },
    {
      "midi": 60,
      "hit": false,
      "t": 182638.02083333317,
      "d": 49.47916666668607,
      "v": 57
    },
    {
      "midi": 75,
      "hit": false,
      "t": 182678.3854166665,
      "d": 125,
      "v": 112
    },
    {
      "midi": 87,
      "hit": false,
      "t": 182683.59374999985,
      "d": 62.5,
      "v": 105
    },
    {
      "midi": 87,
      "hit": false,
      "t": 182984.37499999985,
      "d": 779.9479166666861,
      "v": 113
    },
    {
      "midi": 77,
      "hit": false,
      "t": 182990.8854166665,
      "d": 585.9375000000291,
      "v": 98
    },
    {
      "midi": 75,
      "hit": false,
      "t": 182990.8854166665,
      "d": 632.8125000000291,
      "v": 105
    },
    {
      "midi": 81,
      "hit": false,
      "t": 182990.8854166665,
      "d": 885.4166666667152,
      "v": 103
    },
    {
      "midi": 46,
      "hit": false,
      "t": 183003.90624999985,
      "d": 144.53125,
      "v": 121
    },
    {
      "midi": 34,
      "hit": false,
      "t": 183009.1145833332,
      "d": 115.88541666665697,
      "v": 116
    },
    {
      "midi": 63,
      "hit": false,
      "t": 183332.03124999985,
      "d": 115.88541666668607,
      "v": 93
    },
    {
      "midi": 53,
      "hit": false,
      "t": 183348.9583333332,
      "d": 83.33333333334303,
      "v": 69
    },
    {
      "midi": 57,
      "hit": false,
      "t": 183371.09374999985,
      "d": 48.177083333343035,
      "v": 63
    },
    {
      "midi": 60,
      "hit": false,
      "t": 183371.09374999985,
      "d": 57.29166666668607,
      "v": 62
    },
    {
      "midi": 63,
      "hit": false,
      "t": 183615.88541666654,
      "d": 178.38541666668607,
      "v": 92
    },
    {
      "midi": 57,
      "hit": false,
      "t": 183635.41666666654,
      "d": 203.1250000000291,
      "v": 61
    },
    {
      "midi": 60,
      "hit": false,
      "t": 183644.53124999988,
      "d": 144.53125,
      "v": 72
    },
    {
      "midi": 53,
      "hit": false,
      "t": 183651.04166666654,
      "d": 276.04166666668607,
      "v": 74
    },
    {
      "midi": 85,
      "hit": false,
      "t": 183973.95833333323,
      "d": 282.55208333331393,
      "v": 106
    },
    {
      "midi": 73,
      "hit": false,
      "t": 183976.56249999988,
      "d": 214.8437499999709,
      "v": 109
    },
    {
      "midi": 82,
      "hit": false,
      "t": 183979.16666666654,
      "d": 260.41666666665697,
      "v": 108
    },
    {
      "midi": 77,
      "hit": false,
      "t": 183989.5833333332,
      "d": 164.0625,
      "v": 97
    },
    {
      "midi": 61,
      "hit": false,
      "t": 183990.88541666654,
      "d": 165.36458333331393,
      "v": 95
    },
    {
      "midi": 58,
      "hit": false,
      "t": 184009.1145833332,
      "d": 117.1875,
      "v": 93
    },
    {
      "midi": 45,
      "hit": false,
      "t": 184365.88541666654,
      "d": 29.947916666656965,
      "v": 97
    },
    {
      "midi": 84,
      "hit": false,
      "t": 184588.54166666654,
      "d": 182.29166666665697,
      "v": 114
    },
    {
      "midi": 89,
      "hit": false,
      "t": 184591.1458333332,
      "d": 143.22916666665697,
      "v": 115
    },
    {
      "midi": 77,
      "hit": false,
      "t": 184593.74999999985,
      "d": 195.3125,
      "v": 114
    },
    {
      "midi": 65,
      "hit": false,
      "t": 184606.7708333332,
      "d": 109.375,
      "v": 107
    },
    {
      "midi": 60,
      "hit": false,
      "t": 184623.69791666654,
      "d": 115.88541666665697,
      "v": 91
    },
    {
      "midi": 57,
      "hit": false,
      "t": 184623.69791666654,
      "d": 141.92708333331393,
      "v": 92
    },
    {
      "midi": 46,
      "hit": false,
      "t": 184865.8854166665,
      "d": 45.572916666656965,
      "v": 108
    },
    {
      "midi": 85,
      "hit": false,
      "t": 185044.27083333317,
      "d": 195.3124999999709,
      "v": 109
    },
    {
      "midi": 82,
      "hit": false,
      "t": 185044.27083333317,
      "d": 209.63541666662786,
      "v": 111
    },
    {
      "midi": 73,
      "hit": false,
      "t": 185044.27083333317,
      "d": 226.5624999999709,
      "v": 111
    },
    {
      "midi": 61,
      "hit": false,
      "t": 185046.87499999983,
      "d": 106.77083333331393,
      "v": 108
    },
    {
      "midi": 58,
      "hit": false,
      "t": 185057.29166666648,
      "d": 98.95833333331393,
      "v": 110
    },
    {
      "midi": 77,
      "hit": false,
      "t": 185057.29166666648,
      "d": 171.875,
      "v": 101
    },
    {
      "midi": 37,
      "hit": false,
      "t": 185289.0624999998,
      "d": 33.854166666656965,
      "v": 99
    },
    {
      "midi": 82,
      "hit": false,
      "t": 185466.1458333331,
      "d": 231.77083333334303,
      "v": 114
    },
    {
      "midi": 70,
      "hit": false,
      "t": 185468.74999999977,
      "d": 255.20833333334303,
      "v": 108
    },
    {
      "midi": 73,
      "hit": false,
      "t": 185471.35416666642,
      "d": 244.79166666668607,
      "v": 99
    },
    {
      "midi": 76,
      "hit": false,
      "t": 185473.95833333308,
      "d": 222.6562500000291,
      "v": 107
    },
    {
      "midi": 58,
      "hit": false,
      "t": 185476.56249999974,
      "d": 100.26041666668607,
      "v": 111
    },
    {
      "midi": 49,
      "hit": false,
      "t": 185496.09374999974,
      "d": 125.0000000000291,
      "v": 83
    },
    {
      "midi": 52,
      "hit": false,
      "t": 185501.30208333308,
      "d": 80.72916666668607,
      "v": 73
    },
    {
      "midi": 39,
      "hit": false,
      "t": 185718.74999999977,
      "d": 46.875,
      "v": 97
    },
    {
      "midi": 68,
      "hit": false,
      "t": 185927.0833333331,
      "d": 269.53125,
      "v": 105
    },
    {
      "midi": 80,
      "hit": false,
      "t": 185927.0833333331,
      "d": 283.85416666665697,
      "v": 106
    },
    {
      "midi": 75,
      "hit": false,
      "t": 185932.29166666645,
      "d": 289.0624999999709,
      "v": 97
    },
    {
      "midi": 72,
      "hit": false,
      "t": 185936.19791666645,
      "d": 236.97916666665697,
      "v": 106
    },
    {
      "midi": 60,
      "hit": false,
      "t": 185938.8020833331,
      "d": 105.4687499999709,
      "v": 109
    },
    {
      "midi": 51,
      "hit": false,
      "t": 185944.01041666642,
      "d": 165.36458333334303,
      "v": 99
    },
    {
      "midi": 56,
      "hit": false,
      "t": 185947.91666666642,
      "d": 128.90625,
      "v": 88
    },
    {
      "midi": 39,
      "hit": false,
      "t": 186221.35416666642,
      "d": 37.760416666656965,
      "v": 98
    },
    {
      "midi": 68,
      "hit": false,
      "t": 186496.09374999974,
      "d": 305.9895833332848,
      "v": 111
    },
    {
      "midi": 80,
      "hit": false,
      "t": 186496.09374999974,
      "d": 529.9479166665988,
      "v": 111
    },
    {
      "midi": 77,
      "hit": false,
      "t": 186498.6979166664,
      "d": 395.8333333332848,
      "v": 101
    },
    {
      "midi": 71,
      "hit": false,
      "t": 186503.90624999974,
      "d": 309.8958333332848,
      "v": 96
    },
    {
      "midi": 62,
      "hit": false,
      "t": 186510.4166666664,
      "d": 100.26041666665697,
      "v": 105
    },
    {
      "midi": 51,
      "hit": false,
      "t": 186510.4166666664,
      "d": 203.1249999999709,
      "v": 92
    },
    {
      "midi": 59,
      "hit": false,
      "t": 186519.53124999974,
      "d": 144.5312499999709,
      "v": 92
    },
    {
      "midi": 56,
      "hit": false,
      "t": 186526.0416666664,
      "d": 190.10416666662786,
      "v": 87
    },
    {
      "midi": 27,
      "hit": false,
      "t": 187096.35416666634,
      "d": 315.10416666665697,
      "v": 114
    },
    {
      "midi": 39,
      "hit": false,
      "t": 187096.35416666634,
      "d": 345.05208333331393,
      "v": 114
    },
    {
      "midi": 51,
      "hit": false,
      "t": 187585.93749999965,
      "d": 62.5,
      "v": 108
    },
    {
      "midi": 89,
      "hit": false,
      "t": 188006.5104166663,
      "d": 1309.895833333343,
      "v": 118
    },
    {
      "midi": 85,
      "hit": false,
      "t": 188009.11458333296,
      "d": 1601.5625,
      "v": 102
    },
    {
      "midi": 80,
      "hit": false,
      "t": 188009.11458333296,
      "d": 1677.083333333314,
      "v": 107
    },
    {
      "midi": 77,
      "hit": false,
      "t": 188010.4166666663,
      "d": 1526.041666666657,
      "v": 118
    },
    {
      "midi": 65,
      "hit": false,
      "t": 188026.0416666663,
      "d": 1507.8125,
      "v": 110
    },
    {
      "midi": 61,
      "hit": false,
      "t": 188031.24999999965,
      "d": 1613.281249999971,
      "v": 95
    },
    {
      "midi": 58,
      "hit": false,
      "t": 188033.8541666663,
      "d": 1630.208333333314,
      "v": 97
    },
    {
      "midi": 51,
      "hit": false,
      "t": 189786.45833333294,
      "d": 141.92708333334303,
      "v": 88
    },
    {
      "midi": 87,
      "hit": false,
      "t": 190164.06249999962,
      "d": 542.9687500000291,
      "v": 108
    },
    {
      "midi": 75,
      "hit": false,
      "t": 190171.87499999962,
      "d": 432.29166666665697,
      "v": 95
    },
    {
      "midi": 82,
      "hit": false,
      "t": 190171.87499999962,
      "d": 554.6875000000291,
      "v": 98
    },
    {
      "midi": 67,
      "hit": false,
      "t": 190186.19791666628,
      "d": 265.625,
      "v": 97
    },
    {
      "midi": 79,
      "hit": false,
      "t": 190186.19791666628,
      "d": 486.97916666668607,
      "v": 91
    },
    {
      "midi": 58,
      "hit": false,
      "t": 190196.61458333294,
      "d": 467.44791666668607,
      "v": 82
    },
    {
      "midi": 61,
      "hit": false,
      "t": 190196.61458333294,
      "d": 485.67708333337214,
      "v": 76
    },
    {
      "midi": 44,
      "hit": false,
      "t": 191053.3854166663,
      "d": 1592.447916666657,
      "v": 47
    },
    {
      "midi": 80,
      "hit": false,
      "t": 191169.27083333296,
      "d": 466.14583333334303,
      "v": 95
    },
    {
      "midi": 68,
      "hit": false,
      "t": 191171.87499999962,
      "d": 539.0625000000291,
      "v": 79
    },
    {
      "midi": 75,
      "hit": false,
      "t": 191203.12499999962,
      "d": 447.91666666668607,
      "v": 51
    },
    {
      "midi": 51,
      "hit": false,
      "t": 191207.03124999962,
      "d": 832.0312500000291,
      "v": 51
    },
    {
      "midi": 72,
      "hit": false,
      "t": 191210.93749999962,
      "d": 423.17708333334303,
      "v": 62
    },
    {
      "midi": 56,
      "hit": false,
      "t": 191626.30208333296,
      "d": 279.94791666668607,
      "v": 63
    },
    {
      "midi": 60,
      "hit": false,
      "t": 191976.56249999965,
      "d": 304.6875,
      "v": 54
    },
    {
      "midi": 63,
      "hit": false,
      "t": 192321.614583333,
      "d": 49.479166666656965,
      "v": 62
    },
    {
      "midi": 63,
      "hit": false,
      "t": 192447.9166666663,
      "d": 1080.729166666657,
      "v": 64
    },
    {
      "midi": 60,
      "hit": false,
      "t": 192664.06249999962,
      "d": 459.63541666668607,
      "v": 48
    },
    {
      "midi": 56,
      "hit": false,
      "t": 192835.93749999962,
      "d": 174.47916666665697,
      "v": 62
    },
    {
      "midi": 51,
      "hit": false,
      "t": 193015.62499999962,
      "d": 48.177083333343035,
      "v": 69
    },
    {
      "midi": 51,
      "hit": false,
      "t": 193210.93749999965,
      "d": 496.0937499999709,
      "v": 62
    },
    {
      "midi": 43,
      "hit": false,
      "t": 193218.74999999965,
      "d": 513.0208333333139,
      "v": 65
    },
    {
      "midi": 56,
      "hit": false,
      "t": 193428.3854166663,
      "d": 182.29166666665697,
      "v": 70
    },
    {
      "midi": 60,
      "hit": false,
      "t": 193614.58333333296,
      "d": 212.23958333334303,
      "v": 75
    },
    {
      "midi": 63,
      "hit": false,
      "t": 193807.2916666663,
      "d": 265.625,
      "v": 75
    },
    {
      "midi": 41,
      "hit": false,
      "t": 193944.0104166663,
      "d": 479.16666666668607,
      "v": 56
    },
    {
      "midi": 50,
      "hit": false,
      "t": 193963.5416666663,
      "d": 415.36458333334303,
      "v": 49
    },
    {
      "midi": 68,
      "hit": false,
      "t": 194036.45833333296,
      "d": 872.395833333343,
      "v": 87
    },
    {
      "midi": 56,
      "hit": false,
      "t": 194216.14583333296,
      "d": 149.73958333334303,
      "v": 57
    },
    {
      "midi": 59,
      "hit": false,
      "t": 194414.06249999965,
      "d": 82.03125,
      "v": 50
    },
    {
      "midi": 62,
      "hit": false,
      "t": 194626.302083333,
      "d": 212.23958333331393,
      "v": 39
    },
    {
      "midi": 40,
      "hit": false,
      "t": 194746.09374999965,
      "d": 260.41666666665697,
      "v": 51
    },
    {
      "midi": 49,
      "hit": false,
      "t": 194789.06249999965,
      "d": 437.5,
      "v": 36
    },
    {
      "midi": 67,
      "hit": false,
      "t": 194864.58333333296,
      "d": 424.47916666668607,
      "v": 79
    },
    {
      "midi": 56,
      "hit": false,
      "t": 195101.56249999965,
      "d": 139.32291666665697,
      "v": 59
    },
    {
      "midi": 68,
      "hit": false,
      "t": 195264.3229166663,
      "d": 609.375,
      "v": 78
    },
    {
      "midi": 58,
      "hit": false,
      "t": 195290.364583333,
      "d": 54.6875,
      "v": 56
    },
    {
      "midi": 61,
      "hit": false,
      "t": 195489.583333333,
      "d": 57.291666666656965,
      "v": 44
    },
    {
      "midi": 39,
      "hit": false,
      "t": 195703.12499999965,
      "d": 303.38541666665697,
      "v": 31
    },
    {
      "midi": 49,
      "hit": false,
      "t": 195710.93749999965,
      "d": 880.2083333332848,
      "v": 34
    },
    {
      "midi": 72,
      "hit": false,
      "t": 195821.61458333296,
      "d": 972.6562499999709,
      "v": 72
    },
    {
      "midi": 55,
      "hit": false,
      "t": 196188.80208333296,
      "d": 268.22916666665697,
      "v": 43
    },
    {
      "midi": 61,
      "hit": false,
      "t": 196471.35416666628,
      "d": 117.1875,
      "v": 38
    },
    {
      "midi": 70,
      "hit": false,
      "t": 196764.32291666628,
      "d": 694.010416666657,
      "v": 66
    },
    {
      "midi": 63,
      "hit": false,
      "t": 196776.04166666628,
      "d": 140.625,
      "v": 26
    },
    {
      "midi": 44,
      "hit": false,
      "t": 197123.69791666628,
      "d": 1877.604166666657,
      "v": 30
    },
    {
      "midi": 68,
      "hit": false,
      "t": 197341.14583333294,
      "d": 2385.416666666657,
      "v": 54
    },
    {
      "midi": 51,
      "hit": false,
      "t": 197401.04166666628,
      "d": 369.79166666665697,
      "v": 34
    },
    {
      "midi": 56,
      "hit": false,
      "t": 197708.33333333294,
      "d": 270.83333333334303,
      "v": 38
    },
    {
      "midi": 60,
      "hit": false,
      "t": 197966.14583333294,
      "d": 268.22916666668607,
      "v": 51
    },
    {
      "midi": 63,
      "hit": false,
      "t": 198283.85416666628,
      "d": 62.5,
      "v": 39
    },
    {
      "midi": 63,
      "hit": false,
      "t": 198446.61458333294,
      "d": 106.77083333334303,
      "v": 42
    },
    {
      "midi": 60,
      "hit": false,
      "t": 198645.83333333294,
      "d": 143.22916666665697,
      "v": 36
    },
    {
      "midi": 56,
      "hit": false,
      "t": 198808.5937499996,
      "d": 149.73958333334303,
      "v": 40
    },
    {
      "midi": 48,
      "hit": false,
      "t": 199020.83333333294,
      "d": 67.70833333334303,
      "v": 38
    },
    {
      "midi": 48,
      "hit": false,
      "t": 199173.17708333294,
      "d": 542.96875,
      "v": 68
    },
    {
      "midi": 43,
      "hit": false,
      "t": 199197.91666666628,
      "d": 510.41666666665697,
      "v": 29
    },
    {
      "midi": 56,
      "hit": false,
      "t": 199378.9062499996,
      "d": 230.46875,
      "v": 55
    },
    {
      "midi": 60,
      "hit": false,
      "t": 199566.4062499996,
      "d": 220.05208333331393,
      "v": 47
    },
    {
      "midi": 63,
      "hit": false,
      "t": 199748.69791666625,
      "d": 270.83333333331393,
      "v": 59
    },
    {
      "midi": 47,
      "hit": false,
      "t": 199921.87499999956,
      "d": 544.2708333333139,
      "v": 52
    },
    {
      "midi": 41,
      "hit": false,
      "t": 199932.29166666622,
      "d": 492.1875,
      "v": 24
    },
    {
      "midi": 68,
      "hit": false,
      "t": 200014.32291666622,
      "d": 654.947916666657,
      "v": 65
    },
    {
      "midi": 56,
      "hit": false,
      "t": 200244.79166666622,
      "d": 134.11458333334303,
      "v": 40
    },
    {
      "midi": 59,
      "hit": false,
      "t": 200458.33333333288,
      "d": 108.07291666665697,
      "v": 31
    },
    {
      "midi": 62,
      "hit": false,
      "t": 200669.27083333288,
      "d": 244.79166666665697,
      "v": 36
    },
    {
      "midi": 46,
      "hit": false,
      "t": 200864.58333333288,
      "d": 759.1145833333139,
      "v": 48
    },
    {
      "midi": 40,
      "hit": false,
      "t": 200888.02083333288,
      "d": 173.17708333334303,
      "v": 27
    },
    {
      "midi": 67,
      "hit": false,
      "t": 200944.01041666622,
      "d": 454.42708333334303,
      "v": 51
    },
    {
      "midi": 56,
      "hit": false,
      "t": 201216.1458333329,
      "d": 167.96875,
      "v": 37
    },
    {
      "midi": 68,
      "hit": false,
      "t": 201401.04166666622,
      "d": 790.3645833332557,
      "v": 52
    },
    {
      "midi": 58,
      "hit": false,
      "t": 201423.17708333288,
      "d": 108.07291666665697,
      "v": 41
    },
    {
      "midi": 44,
      "hit": false,
      "t": 201626.30208333285,
      "d": 339.84375,
      "v": 27
    },
    {
      "midi": 61,
      "hit": false,
      "t": 201669.27083333285,
      "d": 76.82291666665697,
      "v": 24
    },
    {
      "midi": 43,
      "hit": false,
      "t": 202085.9374999995,
      "d": 274.73958333331393,
      "v": 17
    },
    {
      "midi": 39,
      "hit": false,
      "t": 202088.54166666616,
      "d": 354.16666666665697,
      "v": 30
    },
    {
      "midi": 72,
      "hit": false,
      "t": 202096.35416666616,
      "d": 1377.604166666657,
      "v": 37
    },
    {
      "midi": 55,
      "hit": false,
      "t": 202515.62499999948,
      "d": 130.20833333334303,
      "v": 27
    },
    {
      "midi": 61,
      "hit": false,
      "t": 202860.67708333282,
      "d": 121.09375,
      "v": 24
    },
    {
      "midi": 70,
      "hit": false,
      "t": 203403.64583333282,
      "d": 695.3125,
      "v": 45
    },
    {
      "midi": 63,
      "hit": false,
      "t": 203446.61458333282,
      "d": 149.73958333334303,
      "v": 26
    },
    {
      "midi": 44,
      "hit": false,
      "t": 203966.14583333282,
      "d": 1820.312499999971,
      "v": 28
    },
    {
      "midi": 68,
      "hit": false,
      "t": 204026.04166666616,
      "d": 1545.5729166666279,
      "v": 41
    },
    {
      "midi": 51,
      "hit": false,
      "t": 204083.33333333282,
      "d": 513.0208333333139,
      "v": 29
    },
    {
      "midi": 56,
      "hit": false,
      "t": 204385.41666666613,
      "d": 134.11458333334303,
      "v": 38
    },
    {
      "midi": 60,
      "hit": false,
      "t": 204634.1145833328,
      "d": 92.44791666665697,
      "v": 46
    },
    {
      "midi": 63,
      "hit": false,
      "t": 204990.8854166661,
      "d": 66.40625,
      "v": 43
    },
    {
      "midi": 63,
      "hit": false,
      "t": 205131.5104166661,
      "d": 274.73958333334303,
      "v": 39
    },
    {
      "midi": 60,
      "hit": false,
      "t": 205328.12499999945,
      "d": 145.83333333334303,
      "v": 52
    },
    {
      "midi": 56,
      "hit": false,
      "t": 205510.41666666613,
      "d": 85.9375,
      "v": 46
    },
    {
      "midi": 51,
      "hit": false,
      "t": 205682.29166666613,
      "d": 136.71875,
      "v": 39
    },
    {
      "midi": 68,
      "hit": false,
      "t": 205843.74999999948,
      "d": 372.39583333337214,
      "v": 67
    },
    {
      "midi": 60,
      "hit": false,
      "t": 206036.45833333282,
      "d": 122.39583333334303,
      "v": 58
    },
    {
      "midi": 56,
      "hit": false,
      "t": 206183.5937499995,
      "d": 132.8125,
      "v": 58
    },
    {
      "midi": 51,
      "hit": false,
      "t": 206338.54166666616,
      "d": 93.75,
      "v": 49
    },
    {
      "midi": 72,
      "hit": false,
      "t": 206490.88541666616,
      "d": 320.3125,
      "v": 87
    },
    {
      "midi": 68,
      "hit": false,
      "t": 206498.69791666616,
      "d": 214.84375,
      "v": 57
    },
    {
      "midi": 60,
      "hit": false,
      "t": 206653.64583333282,
      "d": 106.77083333334303,
      "v": 52
    },
    {
      "midi": 63,
      "hit": false,
      "t": 206807.29166666616,
      "d": 72.91666666665697,
      "v": 65
    },
    {
      "midi": 56,
      "hit": false,
      "t": 206813.80208333282,
      "d": 162.76041666665697,
      "v": 55
    },
    {
      "midi": 51,
      "hit": false,
      "t": 206933.59374999948,
      "d": 119.79166666665697,
      "v": 70
    },
    {
      "midi": 75,
      "hit": false,
      "t": 207082.03124999948,
      "d": 79.42708333331393,
      "v": 90
    },
    {
      "midi": 68,
      "hit": false,
      "t": 207088.54166666613,
      "d": 421.875,
      "v": 81
    },
    {
      "midi": 60,
      "hit": false,
      "t": 207234.37499999945,
      "d": 109.375,
      "v": 86
    },
    {
      "midi": 63,
      "hit": false,
      "t": 207376.3020833328,
      "d": 84.63541666668607,
      "v": 73
    },
    {
      "midi": 56,
      "hit": false,
      "t": 207401.04166666613,
      "d": 184.89583333334303,
      "v": 77
    },
    {
      "midi": 51,
      "hit": false,
      "t": 207546.87499999948,
      "d": 97.65625,
      "v": 78
    },
    {
      "midi": 32,
      "hit": false,
      "t": 207816.40624999948,
      "d": 115.88541666665697,
      "v": 96
    },
    {
      "midi": 44,
      "hit": false,
      "t": 207819.01041666613,
      "d": 79.42708333334303,
      "v": 89
    },
    {
      "midi": 92,
      "hit": false,
      "t": 208958.3333333328,
      "d": 1118.489583333343,
      "v": 100
    },
    {
      "midi": 80,
      "hit": false,
      "t": 208963.54166666613,
      "d": 305.98958333334303,
      "v": 84
    },
    {
      "midi": 72,
      "hit": false,
      "t": 208966.1458333328,
      "d": 1703.125,
      "v": 92
    },
    {
      "midi": 84,
      "hit": false,
      "t": 208973.9583333328,
      "d": 532.552083333343,
      "v": 92
    },
    {
      "midi": 87,
      "hit": false,
      "t": 208973.9583333328,
      "d": 670.5729166666861,
      "v": 81
    },
    {
      "midi": 68,
      "hit": false,
      "t": 208979.16666666613,
      "d": 1859.375,
      "v": 72
    },
    {
      "midi": 60,
      "hit": false,
      "t": 208984.37499999948,
      "d": 1910.15625,
      "v": 69
    },
    {
      "midi": 63,
      "hit": false,
      "t": 208984.37499999948,
      "d": 2022.135416666657,
      "v": 68
    }
  ]
}