{
  "jsonPath": "Pop/Dance Pop/Bob Sinclar/darlin-bts-dub-2.json",
  "path": "Pop\\Dance Pop\\Bob Sinclar\\Darlin (BTs Dub 2).mid",
  "name": "Darlin (BTs Dub 2)",
  "difficulty": "Advanced",
  "bpm": 125,
  "notes": [
    {
      "midi": 45,
      "hit": false,
      "t": 3840,
      "d": 1200,
      "v": 100
    },
    {
      "midi": 57,
      "hit": false,
      "t": 3840,
      "d": 1200,
      "v": 100
    },
    {
      "midi": 60,
      "hit": false,
      "t": 3840,
      "d": 1200,
      "v": 100
    },
    {
      "midi": 64,
      "hit": false,
      "t": 3840,
      "d": 1200,
      "v": 100
    },
    {
      "midi": 62,
      "hit": false,
      "t": 4815,
      "d": 2240,
      "v": 58
    },
    {
      "midi": 74,
      "hit": false,
      "t": 5135,
      "d": 1545,
      "v": 59
    },
    {
      "midi": 86,
      "hit": false,
      "t": 5462.5,
      "d": 180,
      "v": 59
    },
    {
      "midi": 45,
      "hit": false,
      "t": 5760,
      "d": 1440,
      "v": 100
    },
    {
      "midi": 57,
      "hit": false,
      "t": 5760,
      "d": 1440,
      "v": 100
    },
    {
      "midi": 62,
      "hit": false,
      "t": 5760,
      "d": 1440,
      "v": 100
    },
    {
      "midi": 65,
      "hit": false,
      "t": 5760,
      "d": 1440,
      "v": 100
    },
    {
      "midi": 86,
      "hit": false,
      "t": 5792.5,
      "d": 180,
      "v": 60
    },
    {
      "midi": 86,
      "hit": false,
      "t": 6110,
      "d": 170,
      "v": 61
    },
    {
      "midi": 86,
      "hit": false,
      "t": 6415,
      "d": 210,
      "v": 62
    },
    {
      "midi": 86,
      "hit": false,
      "t": 6757.5,
      "d": 122.5,
      "v": 62
    },
    {
      "midi": 74,
      "hit": false,
      "t": 6795,
      "d": 122.5,
      "v": 62
    },
    {
      "midi": 74,
      "hit": false,
      "t": 7157.5,
      "d": 222.5,
      "v": 63
    },
    {
      "midi": 55,
      "hit": false,
      "t": 7680,
      "d": 1440,
      "v": 100
    },
    {
      "midi": 43,
      "hit": false,
      "t": 7680,
      "d": 1680,
      "v": 100
    },
    {
      "midi": 59,
      "hit": false,
      "t": 7680,
      "d": 1680,
      "v": 100
    },
    {
      "midi": 62,
      "hit": false,
      "t": 7680,
      "d": 1680,
      "v": 100
    },
    {
      "midi": 45,
      "hit": false,
      "t": 9600,
      "d": 1440,
      "v": 100
    },
    {
      "midi": 57,
      "hit": false,
      "t": 9600,
      "d": 1440,
      "v": 100
    },
    {
      "midi": 60,
      "hit": false,
      "t": 9600,
      "d": 1440,
      "v": 100
    },
    {
      "midi": 64,
      "hit": false,
      "t": 9600,
      "d": 1440,
      "v": 100
    },
    {
      "midi": 57,
      "hit": false,
      "t": 11267.5,
      "d": 267.5,
      "v": 104
    },
    {
      "midi": 74,
      "hit": false,
      "t": 11500,
      "d": 492.5,
      "v": 121
    },
    {
      "midi": 69,
      "hit": false,
      "t": 11512.5,
      "d": 527.5,
      "v": 104
    },
    {
      "midi": 45,
      "hit": false,
      "t": 11520,
      "d": 1200,
      "v": 100
    },
    {
      "midi": 57,
      "hit": false,
      "t": 11520,
      "d": 1200,
      "v": 100
    },
    {
      "midi": 60,
      "hit": false,
      "t": 11520,
      "d": 1200,
      "v": 100
    },
    {
      "midi": 64,
      "hit": false,
      "t": 11520,
      "d": 1200,
      "v": 100
    },
    {
      "midi": 81,
      "hit": false,
      "t": 11997.5,
      "d": 480,
      "v": 127
    },
    {
      "midi": 79,
      "hit": false,
      "t": 12470,
      "d": 465,
      "v": 127
    },
    {
      "midi": 62,
      "hit": false,
      "t": 12492.5,
      "d": 2157.5,
      "v": 65
    },
    {
      "midi": 74,
      "hit": false,
      "t": 12805,
      "d": 1915,
      "v": 65
    },
    {
      "midi": 77,
      "hit": false,
      "t": 12960,
      "d": 512.5,
      "v": 121
    },
    {
      "midi": 86,
      "hit": false,
      "t": 13130,
      "d": 155,
      "v": 65
    },
    {
      "midi": 86,
      "hit": false,
      "t": 13427.5,
      "d": 180,
      "v": 65
    },
    {
      "midi": 45,
      "hit": false,
      "t": 13440,
      "d": 1440,
      "v": 100
    },
    {
      "midi": 57,
      "hit": false,
      "t": 13440,
      "d": 1440,
      "v": 100
    },
    {
      "midi": 62,
      "hit": false,
      "t": 13440,
      "d": 1440,
      "v": 100
    },
    {
      "midi": 65,
      "hit": false,
      "t": 13440,
      "d": 1440,
      "v": 100
    },
    {
      "midi": 74,
      "hit": false,
      "t": 13440,
      "d": 690,
      "v": 115
    },
    {
      "midi": 86,
      "hit": false,
      "t": 13757.5,
      "d": 162.5,
      "v": 65
    },
    {
      "midi": 86,
      "hit": false,
      "t": 14080,
      "d": 170,
      "v": 65
    },
    {
      "midi": 43,
      "hit": false,
      "t": 15360,
      "d": 1440,
      "v": 100
    },
    {
      "midi": 55,
      "hit": false,
      "t": 15360,
      "d": 1440,
      "v": 100
    },
    {
      "midi": 59,
      "hit": false,
      "t": 15360,
      "d": 1440,
      "v": 100
    },
    {
      "midi": 62,
      "hit": false,
      "t": 15360,
      "d": 1440,
      "v": 100
    },
    {
      "midi": 45,
      "hit": false,
      "t": 17280,
      "d": 1920,
      "v": 100
    },
    {
      "midi": 57,
      "hit": false,
      "t": 17280,
      "d": 1920,
      "v": 100
    },
    {
      "midi": 60,
      "hit": false,
      "t": 17280,
      "d": 1920,
      "v": 100
    },
    {
      "midi": 64,
      "hit": false,
      "t": 17280,
      "d": 1920,
      "v": 100
    },
    {
      "midi": 62,
      "hit": false,
      "t": 17505,
      "d": 110,
      "v": 76
    },
    {
      "midi": 64,
      "hit": false,
      "t": 17647.5,
      "d": 112.5,
      "v": 80
    },
    {
      "midi": 57,
      "hit": false,
      "t": 18230,
      "d": 1142.5,
      "v": 109
    },
    {
      "midi": 69,
      "hit": false,
      "t": 18507.5,
      "d": 955,
      "v": 80
    },
    {
      "midi": 62,
      "hit": false,
      "t": 18937.5,
      "d": 130,
      "v": 109
    },
    {
      "midi": 81,
      "hit": false,
      "t": 18940,
      "d": 487.5,
      "v": 109
    },
    {
      "midi": 64,
      "hit": false,
      "t": 19187.5,
      "d": 137.5,
      "v": 109
    },
    {
      "midi": 45,
      "hit": false,
      "t": 19200,
      "d": 1200,
      "v": 100
    },
    {
      "midi": 57,
      "hit": false,
      "t": 19200,
      "d": 1200,
      "v": 100
    },
    {
      "midi": 60,
      "hit": false,
      "t": 19200,
      "d": 1200,
      "v": 100
    },
    {
      "midi": 64,
      "hit": false,
      "t": 19200,
      "d": 1200,
      "v": 100
    },
    {
      "midi": 45,
      "hit": false,
      "t": 19200,
      "d": 385,
      "v": 100
    },
    {
      "midi": 62,
      "hit": false,
      "t": 19410,
      "d": 102.5,
      "v": 92
    },
    {
      "midi": 64,
      "hit": false,
      "t": 19532.5,
      "d": 122.5,
      "v": 98
    },
    {
      "midi": 57,
      "hit": false,
      "t": 19562.5,
      "d": 420,
      "v": 100
    },
    {
      "midi": 62,
      "hit": false,
      "t": 19742.5,
      "d": 57.5,
      "v": 60
    },
    {
      "midi": 52,
      "hit": false,
      "t": 19937.5,
      "d": 205,
      "v": 100
    },
    {
      "midi": 50,
      "hit": false,
      "t": 20177.5,
      "d": 195,
      "v": 100
    },
    {
      "midi": 48,
      "hit": false,
      "t": 20395,
      "d": 225,
      "v": 100
    },
    {
      "midi": 50,
      "hit": false,
      "t": 20640,
      "d": 142.5,
      "v": 100
    },
    {
      "midi": 48,
      "hit": false,
      "t": 20760,
      "d": 132.5,
      "v": 100
    },
    {
      "midi": 64,
      "hit": false,
      "t": 20870,
      "d": 130,
      "v": 115
    },
    {
      "midi": 50,
      "hit": false,
      "t": 20870,
      "d": 250,
      "v": 100
    },
    {
      "midi": 65,
      "hit": false,
      "t": 21100,
      "d": 137.5,
      "v": 115
    },
    {
      "midi": 45,
      "hit": false,
      "t": 21120,
      "d": 1440,
      "v": 100
    },
    {
      "midi": 57,
      "hit": false,
      "t": 21120,
      "d": 1440,
      "v": 100
    },
    {
      "midi": 62,
      "hit": false,
      "t": 21120,
      "d": 1440,
      "v": 100
    },
    {
      "midi": 65,
      "hit": false,
      "t": 21120,
      "d": 1440,
      "v": 100
    },
    {
      "midi": 45,
      "hit": false,
      "t": 21137.5,
      "d": 390,
      "v": 100
    },
    {
      "midi": 64,
      "hit": false,
      "t": 21332.5,
      "d": 92.5,
      "v": 98
    },
    {
      "midi": 65,
      "hit": false,
      "t": 21465,
      "d": 110,
      "v": 76
    },
    {
      "midi": 57,
      "hit": false,
      "t": 21487.5,
      "d": 417.5,
      "v": 100
    },
    {
      "midi": 64,
      "hit": false,
      "t": 21660,
      "d": 65,
      "v": 54
    },
    {
      "midi": 52,
      "hit": false,
      "t": 21860,
      "d": 212.5,
      "v": 100
    },
    {
      "midi": 50,
      "hit": false,
      "t": 22090,
      "d": 217.5,
      "v": 100
    },
    {
      "midi": 48,
      "hit": false,
      "t": 22317.5,
      "d": 225,
      "v": 100
    },
    {
      "midi": 50,
      "hit": false,
      "t": 22555,
      "d": 147.5,
      "v": 100
    },
    {
      "midi": 48,
      "hit": false,
      "t": 22680,
      "d": 150,
      "v": 100
    },
    {
      "midi": 50,
      "hit": false,
      "t": 22810,
      "d": 230,
      "v": 100
    },
    {
      "midi": 60,
      "hit": false,
      "t": 22817.5,
      "d": 127.5,
      "v": 86
    },
    {
      "midi": 55,
      "hit": false,
      "t": 23040,
      "d": 1440,
      "v": 100
    },
    {
      "midi": 43,
      "hit": false,
      "t": 23040,
      "d": 1680,
      "v": 100
    },
    {
      "midi": 59,
      "hit": false,
      "t": 23040,
      "d": 1680,
      "v": 100
    },
    {
      "midi": 62,
      "hit": false,
      "t": 23040,
      "d": 1680,
      "v": 100
    },
    {
      "midi": 62,
      "hit": false,
      "t": 23040,
      "d": 185,
      "v": 115
    },
    {
      "midi": 43,
      "hit": false,
      "t": 23040,
      "d": 385,
      "v": 100
    },
    {
      "midi": 60,
      "hit": false,
      "t": 23275,
      "d": 102.5,
      "v": 66
    },
    {
      "midi": 55,
      "hit": false,
      "t": 23402.5,
      "d": 420,
      "v": 100
    },
    {
      "midi": 62,
      "hit": false,
      "t": 23410,
      "d": 127.5,
      "v": 78
    },
    {
      "midi": 60,
      "hit": false,
      "t": 23592.5,
      "d": 85,
      "v": 48
    },
    {
      "midi": 62,
      "hit": false,
      "t": 23770,
      "d": 70,
      "v": 33
    },
    {
      "midi": 50,
      "hit": false,
      "t": 23777.5,
      "d": 205,
      "v": 100
    },
    {
      "midi": 48,
      "hit": false,
      "t": 24017.5,
      "d": 195,
      "v": 100
    },
    {
      "midi": 46,
      "hit": false,
      "t": 24235,
      "d": 225,
      "v": 100
    },
    {
      "midi": 48,
      "hit": false,
      "t": 24480,
      "d": 142.5,
      "v": 100
    },
    {
      "midi": 46,
      "hit": false,
      "t": 24600,
      "d": 132.5,
      "v": 100
    },
    {
      "midi": 62,
      "hit": false,
      "t": 24710,
      "d": 132.5,
      "v": 115
    },
    {
      "midi": 48,
      "hit": false,
      "t": 24710,
      "d": 250,
      "v": 100
    },
    {
      "midi": 64,
      "hit": false,
      "t": 24950,
      "d": 172.5,
      "v": 127
    },
    {
      "midi": 45,
      "hit": false,
      "t": 24960,
      "d": 1440,
      "v": 100
    },
    {
      "midi": 57,
      "hit": false,
      "t": 24960,
      "d": 1440,
      "v": 100
    },
    {
      "midi": 60,
      "hit": false,
      "t": 24960,
      "d": 1440,
      "v": 100
    },
    {
      "midi": 64,
      "hit": false,
      "t": 24960,
      "d": 1440,
      "v": 100
    },
    {
      "midi": 45,
      "hit": false,
      "t": 24977.5,
      "d": 390,
      "v": 100
    },
    {
      "midi": 62,
      "hit": false,
      "t": 25185,
      "d": 110,
      "v": 76
    },
    {
      "midi": 64,
      "hit": false,
      "t": 25327.5,
      "d": 112.5,
      "v": 80
    },
    {
      "midi": 57,
      "hit": false,
      "t": 25327.5,
      "d": 417.5,
      "v": 100
    },
    {
      "midi": 52,
      "hit": false,
      "t": 25700,
      "d": 212.5,
      "v": 100
    },
    {
      "midi": 50,
      "hit": false,
      "t": 25930,
      "d": 217.5,
      "v": 100
    },
    {
      "midi": 48,
      "hit": false,
      "t": 26157.5,
      "d": 225,
      "v": 100
    },
    {
      "midi": 50,
      "hit": false,
      "t": 26395,
      "d": 147.5,
      "v": 100
    },
    {
      "midi": 48,
      "hit": false,
      "t": 26520,
      "d": 150,
      "v": 100
    },
    {
      "midi": 62,
      "hit": false,
      "t": 26617.5,
      "d": 130,
      "v": 109
    },
    {
      "midi": 50,
      "hit": false,
      "t": 26650,
      "d": 230,
      "v": 100
    },
    {
      "midi": 64,
      "hit": false,
      "t": 26867.5,
      "d": 172.5,
      "v": 109
    },
    {
      "midi": 45,
      "hit": false,
      "t": 26880,
      "d": 1200,
      "v": 100
    },
    {
      "midi": 57,
      "hit": false,
      "t": 26880,
      "d": 1200,
      "v": 100
    },
    {
      "midi": 60,
      "hit": false,
      "t": 26880,
      "d": 1200,
      "v": 100
    },
    {
      "midi": 64,
      "hit": false,
      "t": 26880,
      "d": 1200,
      "v": 100
    },
    {
      "midi": 45,
      "hit": false,
      "t": 26880,
      "d": 385,
      "v": 100
    },
    {
      "midi": 62,
      "hit": false,
      "t": 27090,
      "d": 102.5,
      "v": 92
    },
    {
      "midi": 64,
      "hit": false,
      "t": 27212.5,
      "d": 122.5,
      "v": 98
    },
    {
      "midi": 57,
      "hit": false,
      "t": 27242.5,
      "d": 420,
      "v": 100
    },
    {
      "midi": 62,
      "hit": false,
      "t": 27422.5,
      "d": 57.5,
      "v": 60
    },
    {
      "midi": 52,
      "hit": false,
      "t": 27617.5,
      "d": 205,
      "v": 100
    },
    {
      "midi": 50,
      "hit": false,
      "t": 27857.5,
      "d": 195,
      "v": 100
    },
    {
      "midi": 48,
      "hit": false,
      "t": 28075,
      "d": 225,
      "v": 100
    },
    {
      "midi": 50,
      "hit": false,
      "t": 28320,
      "d": 142.5,
      "v": 100
    },
    {
      "midi": 48,
      "hit": false,
      "t": 28440,
      "d": 132.5,
      "v": 100
    },
    {
      "midi": 64,
      "hit": false,
      "t": 28550,
      "d": 130,
      "v": 115
    },
    {
      "midi": 50,
      "hit": false,
      "t": 28550,
      "d": 250,
      "v": 100
    },
    {
      "midi": 65,
      "hit": false,
      "t": 28780,
      "d": 125,
      "v": 115
    },
    {
      "midi": 45,
      "hit": false,
      "t": 28800,
      "d": 1440,
      "v": 100
    },
    {
      "midi": 57,
      "hit": false,
      "t": 28800,
      "d": 1440,
      "v": 100
    },
    {
      "midi": 62,
      "hit": false,
      "t": 28800,
      "d": 1440,
      "v": 100
    },
    {
      "midi": 65,
      "hit": false,
      "t": 28800,
      "d": 1440,
      "v": 100
    },
    {
      "midi": 45,
      "hit": false,
      "t": 28817.5,
      "d": 390,
      "v": 100
    },
    {
      "midi": 64,
      "hit": false,
      "t": 29012.5,
      "d": 92.5,
      "v": 98
    },
    {
      "midi": 65,
      "hit": false,
      "t": 29145,
      "d": 110,
      "v": 76
    },
    {
      "midi": 57,
      "hit": false,
      "t": 29167.5,
      "d": 417.5,
      "v": 100
    },
    {
      "midi": 64,
      "hit": false,
      "t": 29340,
      "d": 65,
      "v": 54
    },
    {
      "midi": 52,
      "hit": false,
      "t": 29540,
      "d": 212.5,
      "v": 100
    },
    {
      "midi": 50,
      "hit": false,
      "t": 29770,
      "d": 217.5,
      "v": 100
    },
    {
      "midi": 48,
      "hit": false,
      "t": 29997.5,
      "d": 225,
      "v": 100
    },
    {
      "midi": 50,
      "hit": false,
      "t": 30235,
      "d": 147.5,
      "v": 100
    },
    {
      "midi": 48,
      "hit": false,
      "t": 30360,
      "d": 150,
      "v": 100
    },
    {
      "midi": 50,
      "hit": false,
      "t": 30490,
      "d": 230,
      "v": 100
    },
    {
      "midi": 60,
      "hit": false,
      "t": 30497.5,
      "d": 127.5,
      "v": 86
    },
    {
      "midi": 43,
      "hit": false,
      "t": 30720,
      "d": 1440,
      "v": 100
    },
    {
      "midi": 55,
      "hit": false,
      "t": 30720,
      "d": 1440,
      "v": 100
    },
    {
      "midi": 59,
      "hit": false,
      "t": 30720,
      "d": 1440,
      "v": 100
    },
    {
      "midi": 62,
      "hit": false,
      "t": 30720,
      "d": 1440,
      "v": 100
    },
    {
      "midi": 62,
      "hit": false,
      "t": 30720,
      "d": 185,
      "v": 115
    },
    {
      "midi": 43,
      "hit": false,
      "t": 30720,
      "d": 385,
      "v": 100
    },
    {
      "midi": 60,
      "hit": false,
      "t": 30955,
      "d": 102.5,
      "v": 66
    },
    {
      "midi": 55,
      "hit": false,
      "t": 31082.5,
      "d": 420,
      "v": 100
    },
    {
      "midi": 62,
      "hit": false,
      "t": 31090,
      "d": 127.5,
      "v": 78
    },
    {
      "midi": 60,
      "hit": false,
      "t": 31272.5,
      "d": 85,
      "v": 48
    },
    {
      "midi": 62,
      "hit": false,
      "t": 31450,
      "d": 70,
      "v": 33
    },
    {
      "midi": 50,
      "hit": false,
      "t": 31457.5,
      "d": 205,
      "v": 100
    },
    {
      "midi": 48,
      "hit": false,
      "t": 31697.5,
      "d": 195,
      "v": 100
    },
    {
      "midi": 46,
      "hit": false,
      "t": 31915,
      "d": 225,
      "v": 100
    },
    {
      "midi": 48,
      "hit": false,
      "t": 32160,
      "d": 142.5,
      "v": 100
    },
    {
      "midi": 46,
      "hit": false,
      "t": 32280,
      "d": 132.5,
      "v": 100
    },
    {
      "midi": 62,
      "hit": false,
      "t": 32390,
      "d": 132.5,
      "v": 115
    },
    {
      "midi": 48,
      "hit": false,
      "t": 32390,
      "d": 250,
      "v": 100
    },
    {
      "midi": 64,
      "hit": false,
      "t": 32630,
      "d": 172.5,
      "v": 127
    },
    {
      "midi": 45,
      "hit": false,
      "t": 32640,
      "d": 1920,
      "v": 100
    },
    {
      "midi": 57,
      "hit": false,
      "t": 32640,
      "d": 1920,
      "v": 100
    },
    {
      "midi": 60,
      "hit": false,
      "t": 32640,
      "d": 1920,
      "v": 100
    },
    {
      "midi": 64,
      "hit": false,
      "t": 32640,
      "d": 1920,
      "v": 100
    },
    {
      "midi": 45,
      "hit": false,
      "t": 32657.5,
      "d": 390,
      "v": 100
    },
    {
      "midi": 62,
      "hit": false,
      "t": 32865,
      "d": 110,
      "v": 76
    },
    {
      "midi": 64,
      "hit": false,
      "t": 33007.5,
      "d": 112.5,
      "v": 80
    },
    {
      "midi": 57,
      "hit": false,
      "t": 33007.5,
      "d": 417.5,
      "v": 100
    },
    {
      "midi": 52,
      "hit": false,
      "t": 33380,
      "d": 212.5,
      "v": 100
    },
    {
      "midi": 50,
      "hit": false,
      "t": 33610,
      "d": 217.5,
      "v": 100
    },
    {
      "midi": 48,
      "hit": false,
      "t": 33837.5,
      "d": 225,
      "v": 100
    },
    {
      "midi": 50,
      "hit": false,
      "t": 34075,
      "d": 147.5,
      "v": 100
    },
    {
      "midi": 48,
      "hit": false,
      "t": 34200,
      "d": 150,
      "v": 100
    },
    {
      "midi": 62,
      "hit": false,
      "t": 34297.5,
      "d": 130,
      "v": 109
    },
    {
      "midi": 50,
      "hit": false,
      "t": 34330,
      "d": 230,
      "v": 100
    },
    {
      "midi": 64,
      "hit": false,
      "t": 34547.5,
      "d": 172.5,
      "v": 109
    },
    {
      "midi": 45,
      "hit": false,
      "t": 34560,
      "d": 1200,
      "v": 100
    },
    {
      "midi": 57,
      "hit": false,
      "t": 34560,
      "d": 1200,
      "v": 100
    },
    {
      "midi": 60,
      "hit": false,
      "t": 34560,
      "d": 1200,
      "v": 100
    },
    {
      "midi": 64,
      "hit": false,
      "t": 34560,
      "d": 1200,
      "v": 100
    },
    {
      "midi": 81,
      "hit": false,
      "t": 34560,
      "d": 170,
      "v": 109
    },
    {
      "midi": 45,
      "hit": false,
      "t": 34560,
      "d": 385,
      "v": 100
    },
    {
      "midi": 62,
      "hit": false,
      "t": 34770,
      "d": 102.5,
      "v": 92
    },
    {
      "midi": 64,
      "hit": false,
      "t": 34892.5,
      "d": 122.5,
      "v": 98
    },
    {
      "midi": 57,
      "hit": false,
      "t": 34922.5,
      "d": 420,
      "v": 100
    },
    {
      "midi": 79,
      "hit": false,
      "t": 35030,
      "d": 515,
      "v": 127
    },
    {
      "midi": 62,
      "hit": false,
      "t": 35102.5,
      "d": 57.5,
      "v": 60
    },
    {
      "midi": 52,
      "hit": false,
      "t": 35297.5,
      "d": 205,
      "v": 100
    },
    {
      "midi": 77,
      "hit": false,
      "t": 35507.5,
      "d": 465,
      "v": 127
    },
    {
      "midi": 50,
      "hit": false,
      "t": 35537.5,
      "d": 195,
      "v": 100
    },
    {
      "midi": 48,
      "hit": false,
      "t": 35755,
      "d": 225,
      "v": 100
    },
    {
      "midi": 74,
      "hit": false,
      "t": 35985,
      "d": 505,
      "v": 98
    },
    {
      "midi": 72,
      "hit": false,
      "t": 35992.5,
      "d": 200,
      "v": 86
    },
    {
      "midi": 50,
      "hit": false,
      "t": 36000,
      "d": 142.5,
      "v": 100
    },
    {
      "midi": 48,
      "hit": false,
      "t": 36120,
      "d": 132.5,
      "v": 100
    },
    {
      "midi": 64,
      "hit": false,
      "t": 36230,
      "d": 130,
      "v": 115
    },
    {
      "midi": 50,
      "hit": false,
      "t": 36230,
      "d": 250,
      "v": 100
    },
    {
      "midi": 77,
      "hit": false,
      "t": 36455,
      "d": 472.5,
      "v": 121
    },
    {
      "midi": 65,
      "hit": false,
      "t": 36460,
      "d": 125,
      "v": 115
    },
    {
      "midi": 45,
      "hit": false,
      "t": 36480,
      "d": 1440,
      "v": 100
    },
    {
      "midi": 57,
      "hit": false,
      "t": 36480,
      "d": 1440,
      "v": 100
    },
    {
      "midi": 62,
      "hit": false,
      "t": 36480,
      "d": 1440,
      "v": 100
    },
    {
      "midi": 65,
      "hit": false,
      "t": 36480,
      "d": 1440,
      "v": 100
    },
    {
      "midi": 45,
      "hit": false,
      "t": 36497.5,
      "d": 390,
      "v": 100
    },
    {
      "midi": 64,
      "hit": false,
      "t": 36692.5,
      "d": 92.5,
      "v": 98
    },
    {
      "midi": 65,
      "hit": false,
      "t": 36825,
      "d": 110,
      "v": 76
    },
    {
      "midi": 57,
      "hit": false,
      "t": 36847.5,
      "d": 417.5,
      "v": 100
    },
    {
      "midi": 64,
      "hit": false,
      "t": 37020,
      "d": 65,
      "v": 54
    },
    {
      "midi": 52,
      "hit": false,
      "t": 37220,
      "d": 212.5,
      "v": 100
    },
    {
      "midi": 50,
      "hit": false,
      "t": 37450,
      "d": 217.5,
      "v": 100
    },
    {
      "midi": 48,
      "hit": false,
      "t": 37677.5,
      "d": 225,
      "v": 100
    },
    {
      "midi": 50,
      "hit": false,
      "t": 37915,
      "d": 147.5,
      "v": 100
    },
    {
      "midi": 48,
      "hit": false,
      "t": 38040,
      "d": 150,
      "v": 100
    },
    {
      "midi": 50,
      "hit": false,
      "t": 38170,
      "d": 230,
      "v": 100
    },
    {
      "midi": 60,
      "hit": false,
      "t": 38177.5,
      "d": 127.5,
      "v": 86
    },
    {
      "midi": 55,
      "hit": false,
      "t": 38400,
      "d": 1440,
      "v": 100
    },
    {
      "midi": 43,
      "hit": false,
      "t": 38400,
      "d": 1680,
      "v": 100
    },
    {
      "midi": 59,
      "hit": false,
      "t": 38400,
      "d": 1680,
      "v": 100
    },
    {
      "midi": 62,
      "hit": false,
      "t": 38400,
      "d": 1680,
      "v": 100
    },
    {
      "midi": 62,
      "hit": false,
      "t": 38400,
      "d": 185,
      "v": 115
    },
    {
      "midi": 43,
      "hit": false,
      "t": 38400,
      "d": 385,
      "v": 100
    },
    {
      "midi": 60,
      "hit": false,
      "t": 38635,
      "d": 102.5,
      "v": 66
    },
    {
      "midi": 55,
      "hit": false,
      "t": 38762.5,
      "d": 420,
      "v": 100
    },
    {
      "midi": 62,
      "hit": false,
      "t": 38770,
      "d": 127.5,
      "v": 78
    },
    {
      "midi": 60,
      "hit": false,
      "t": 38952.5,
      "d": 85,
      "v": 48
    },
    {
      "midi": 62,
      "hit": false,
      "t": 39130,
      "d": 70,
      "v": 33
    },
    {
      "midi": 50,
      "hit": false,
      "t": 39137.5,
      "d": 205,
      "v": 100
    },
    {
      "midi": 48,
      "hit": false,
      "t": 39377.5,
      "d": 195,
      "v": 100
    },
    {
      "midi": 46,
      "hit": false,
      "t": 39595,
      "d": 225,
      "v": 100
    },
    {
      "midi": 48,
      "hit": false,
      "t": 39840,
      "d": 142.5,
      "v": 100
    },
    {
      "midi": 46,
      "hit": false,
      "t": 39960,
      "d": 132.5,
      "v": 100
    },
    {
      "midi": 62,
      "hit": false,
      "t": 40070,
      "d": 132.5,
      "v": 115
    },
    {
      "midi": 48,
      "hit": false,
      "t": 40070,
      "d": 250,
      "v": 100
    },
    {
      "midi": 64,
      "hit": false,
      "t": 40310,
      "d": 172.5,
      "v": 127
    },
    {
      "midi": 45,
      "hit": false,
      "t": 40320,
      "d": 1440,
      "v": 100
    },
    {
      "midi": 57,
      "hit": false,
      "t": 40320,
      "d": 1440,
      "v": 100
    },
    {
      "midi": 60,
      "hit": false,
      "t": 40320,
      "d": 1440,
      "v": 100
    },
    {
      "midi": 64,
      "hit": false,
      "t": 40320,
      "d": 1440,
      "v": 100
    },
    {
      "midi": 45,
      "hit": false,
      "t": 40337.5,
      "d": 390,
      "v": 100
    },
    {
      "midi": 62,
      "hit": false,
      "t": 40545,
      "d": 110,
      "v": 76
    },
    {
      "midi": 64,
      "hit": false,
      "t": 40687.5,
      "d": 112.5,
      "v": 80
    },
    {
      "midi": 57,
      "hit": false,
      "t": 40687.5,
      "d": 417.5,
      "v": 100
    },
    {
      "midi": 52,
      "hit": false,
      "t": 41060,
      "d": 212.5,
      "v": 100
    },
    {
      "midi": 50,
      "hit": false,
      "t": 41290,
      "d": 217.5,
      "v": 100
    },
    {
      "midi": 48,
      "hit": false,
      "t": 41517.5,
      "d": 225,
      "v": 100
    },
    {
      "midi": 50,
      "hit": false,
      "t": 41755,
      "d": 147.5,
      "v": 100
    },
    {
      "midi": 48,
      "hit": false,
      "t": 41880,
      "d": 150,
      "v": 100
    },
    {
      "midi": 62,
      "hit": false,
      "t": 41977.5,
      "d": 130,
      "v": 109
    },
    {
      "midi": 50,
      "hit": false,
      "t": 42010,
      "d": 230,
      "v": 100
    },
    {
      "midi": 64,
      "hit": false,
      "t": 42227.5,
      "d": 172.5,
      "v": 109
    },
    {
      "midi": 81,
      "hit": false,
      "t": 42237.5,
      "d": 525,
      "v": 121
    },
    {
      "midi": 45,
      "hit": false,
      "t": 42240,
      "d": 1200,
      "v": 100
    },
    {
      "midi": 57,
      "hit": false,
      "t": 42240,
      "d": 1200,
      "v": 100
    },
    {
      "midi": 60,
      "hit": false,
      "t": 42240,
      "d": 1200,
      "v": 100
    },
    {
      "midi": 64,
      "hit": false,
      "t": 42240,
      "d": 1200,
      "v": 100
    },
    {
      "midi": 45,
      "hit": false,
      "t": 42240,
      "d": 385,
      "v": 100
    },
    {
      "midi": 62,
      "hit": false,
      "t": 42450,
      "d": 102.5,
      "v": 92
    },
    {
      "midi": 64,
      "hit": false,
      "t": 42572.5,
      "d": 122.5,
      "v": 98
    },
    {
      "midi": 57,
      "hit": false,
      "t": 42602.5,
      "d": 420,
      "v": 100
    },
    {
      "midi": 79,
      "hit": false,
      "t": 42710,
      "d": 515,
      "v": 127
    },
    {
      "midi": 62,
      "hit": false,
      "t": 42782.5,
      "d": 57.5,
      "v": 60
    },
    {
      "midi": 52,
      "hit": false,
      "t": 42977.5,
      "d": 205,
      "v": 100
    },
    {
      "midi": 77,
      "hit": false,
      "t": 43187.5,
      "d": 465,
      "v": 127
    },
    {
      "midi": 50,
      "hit": false,
      "t": 43217.5,
      "d": 195,
      "v": 100
    },
    {
      "midi": 48,
      "hit": false,
      "t": 43435,
      "d": 225,
      "v": 100
    },
    {
      "midi": 79,
      "hit": false,
      "t": 43665,
      "d": 505,
      "v": 98
    },
    {
      "midi": 72,
      "hit": false,
      "t": 43672.5,
      "d": 200,
      "v": 86
    },
    {
      "midi": 50,
      "hit": false,
      "t": 43680,
      "d": 142.5,
      "v": 100
    },
    {
      "midi": 48,
      "hit": false,
      "t": 43800,
      "d": 132.5,
      "v": 100
    },
    {
      "midi": 64,
      "hit": false,
      "t": 43910,
      "d": 130,
      "v": 115
    },
    {
      "midi": 50,
      "hit": false,
      "t": 43910,
      "d": 250,
      "v": 100
    },
    {
      "midi": 77,
      "hit": false,
      "t": 44135,
      "d": 472.5,
      "v": 121
    },
    {
      "midi": 65,
      "hit": false,
      "t": 44140,
      "d": 125,
      "v": 115
    },
    {
      "midi": 45,
      "hit": false,
      "t": 44160,
      "d": 1440,
      "v": 100
    },
    {
      "midi": 57,
      "hit": false,
      "t": 44160,
      "d": 1440,
      "v": 100
    },
    {
      "midi": 62,
      "hit": false,
      "t": 44160,
      "d": 1440,
      "v": 100
    },
    {
      "midi": 65,
      "hit": false,
      "t": 44160,
      "d": 1440,
      "v": 100
    },
    {
      "midi": 45,
      "hit": false,
      "t": 44177.5,
      "d": 390,
      "v": 100
    },
    {
      "midi": 64,
      "hit": false,
      "t": 44372.5,
      "d": 92.5,
      "v": 98
    },
    {
      "midi": 65,
      "hit": false,
      "t": 44505,
      "d": 110,
      "v": 76
    },
    {
      "midi": 57,
      "hit": false,
      "t": 44527.5,
      "d": 417.5,
      "v": 100
    },
    {
      "midi": 64,
      "hit": false,
      "t": 44700,
      "d": 65,
      "v": 54
    },
    {
      "midi": 52,
      "hit": false,
      "t": 44900,
      "d": 212.5,
      "v": 100
    },
    {
      "midi": 50,
      "hit": false,
      "t": 45130,
      "d": 217.5,
      "v": 100
    },
    {
      "midi": 48,
      "hit": false,
      "t": 45357.5,
      "d": 225,
      "v": 100
    },
    {
      "midi": 50,
      "hit": false,
      "t": 45595,
      "d": 147.5,
      "v": 100
    },
    {
      "midi": 48,
      "hit": false,
      "t": 45720,
      "d": 150,
      "v": 100
    },
    {
      "midi": 50,
      "hit": false,
      "t": 45850,
      "d": 230,
      "v": 100
    },
    {
      "midi": 60,
      "hit": false,
      "t": 45857.5,
      "d": 127.5,
      "v": 86
    },
    {
      "midi": 43,
      "hit": false,
      "t": 46080,
      "d": 1440,
      "v": 100
    },
    {
      "midi": 55,
      "hit": false,
      "t": 46080,
      "d": 1440,
      "v": 100
    },
    {
      "midi": 59,
      "hit": false,
      "t": 46080,
      "d": 1440,
      "v": 100
    },
    {
      "midi": 62,
      "hit": false,
      "t": 46080,
      "d": 1440,
      "v": 100
    },
    {
      "midi": 62,
      "hit": false,
      "t": 46080,
      "d": 185,
      "v": 115
    },
    {
      "midi": 43,
      "hit": false,
      "t": 46080,
      "d": 385,
      "v": 100
    },
    {
      "midi": 60,
      "hit": false,
      "t": 46315,
      "d": 102.5,
      "v": 66
    },
    {
      "midi": 55,
      "hit": false,
      "t": 46442.5,
      "d": 420,
      "v": 100
    },
    {
      "midi": 62,
      "hit": false,
      "t": 46450,
      "d": 127.5,
      "v": 78
    },
    {
      "midi": 60,
      "hit": false,
      "t": 46632.5,
      "d": 85,
      "v": 48
    },
    {
      "midi": 62,
      "hit": false,
      "t": 46810,
      "d": 70,
      "v": 33
    },
    {
      "midi": 50,
      "hit": false,
      "t": 46817.5,
      "d": 205,
      "v": 100
    },
    {
      "midi": 48,
      "hit": false,
      "t": 47057.5,
      "d": 195,
      "v": 100
    },
    {
      "midi": 46,
      "hit": false,
      "t": 47275,
      "d": 225,
      "v": 100
    },
    {
      "midi": 48,
      "hit": false,
      "t": 47520,
      "d": 142.5,
      "v": 100
    },
    {
      "midi": 46,
      "hit": false,
      "t": 47640,
      "d": 132.5,
      "v": 100
    },
    {
      "midi": 62,
      "hit": false,
      "t": 47750,
      "d": 132.5,
      "v": 115
    },
    {
      "midi": 48,
      "hit": false,
      "t": 47750,
      "d": 250,
      "v": 100
    },
    {
      "midi": 64,
      "hit": false,
      "t": 47990,
      "d": 172.5,
      "v": 127
    },
    {
      "midi": 45,
      "hit": false,
      "t": 48000,
      "d": 1920,
      "v": 100
    },
    {
      "midi": 57,
      "hit": false,
      "t": 48000,
      "d": 1920,
      "v": 100
    },
    {
      "midi": 60,
      "hit": false,
      "t": 48000,
      "d": 1920,
      "v": 100
    },
    {
      "midi": 64,
      "hit": false,
      "t": 48000,
      "d": 1920,
      "v": 100
    },
    {
      "midi": 45,
      "hit": false,
      "t": 48017.5,
      "d": 390,
      "v": 100
    },
    {
      "midi": 62,
      "hit": false,
      "t": 48225,
      "d": 110,
      "v": 76
    },
    {
      "midi": 64,
      "hit": false,
      "t": 48367.5,
      "d": 112.5,
      "v": 80
    },
    {
      "midi": 57,
      "hit": false,
      "t": 48367.5,
      "d": 417.5,
      "v": 100
    },
    {
      "midi": 52,
      "hit": false,
      "t": 48740,
      "d": 212.5,
      "v": 100
    },
    {
      "midi": 50,
      "hit": false,
      "t": 48970,
      "d": 217.5,
      "v": 100
    },
    {
      "midi": 48,
      "hit": false,
      "t": 49197.5,
      "d": 225,
      "v": 100
    },
    {
      "midi": 50,
      "hit": false,
      "t": 49435,
      "d": 147.5,
      "v": 100
    },
    {
      "midi": 48,
      "hit": false,
      "t": 49560,
      "d": 150,
      "v": 100
    },
    {
      "midi": 62,
      "hit": false,
      "t": 49657.5,
      "d": 130,
      "v": 109
    },
    {
      "midi": 50,
      "hit": false,
      "t": 49690,
      "d": 230,
      "v": 100
    },
    {
      "midi": 69,
      "hit": false,
      "t": 49887.5,
      "d": 150,
      "v": 127
    },
    {
      "midi": 64,
      "hit": false,
      "t": 49907.5,
      "d": 172.5,
      "v": 109
    },
    {
      "midi": 45,
      "hit": false,
      "t": 49920,
      "d": 9595,
      "v": 80
    },
    {
      "midi": 45,
      "hit": false,
      "t": 49920,
      "d": 240,
      "v": 108
    },
    {
      "midi": 57,
      "hit": false,
      "t": 50160,
      "d": 240,
      "v": 108
    },
    {
      "midi": 69,
      "hit": false,
      "t": 50380,
      "d": 127.5,
      "v": 109
    },
    {
      "midi": 45,
      "hit": false,
      "t": 50400,
      "d": 240,
      "v": 108
    },
    {
      "midi": 57,
      "hit": false,
      "t": 50640,
      "d": 240,
      "v": 108
    },
    {
      "midi": 69,
      "hit": false,
      "t": 50842.5,
      "d": 37.5,
      "v": 72
    },
    {
      "midi": 45,
      "hit": false,
      "t": 50880,
      "d": 240,
      "v": 108
    },
    {
      "midi": 69,
      "hit": false,
      "t": 50950,
      "d": 62.5,
      "v": 78
    },
    {
      "midi": 57,
      "hit": false,
      "t": 51120,
      "d": 240,
      "v": 108
    },
    {
      "midi": 45,
      "hit": false,
      "t": 51360,
      "d": 240,
      "v": 108
    },
    {
      "midi": 57,
      "hit": false,
      "t": 51600,
      "d": 240,
      "v": 108
    },
    {
      "midi": 64,
      "hit": false,
      "t": 51837.5,
      "d": 1167.5,
      "v": 126
    },
    {
      "midi": 45,
      "hit": false,
      "t": 51840,
      "d": 240,
      "v": 108
    },
    {
      "midi": 57,
      "hit": false,
      "t": 52080,
      "d": 240,
      "v": 108
    },
    {
      "midi": 45,
      "hit": false,
      "t": 52320,
      "d": 240,
      "v": 108
    },
    {
      "midi": 57,
      "hit": false,
      "t": 52560,
      "d": 240,
      "v": 108
    },
    {
      "midi": 45,
      "hit": false,
      "t": 52800,
      "d": 240,
      "v": 108
    },
    {
      "midi": 66,
      "hit": false,
      "t": 53017.5,
      "d": 287.5,
      "v": 86
    },
    {
      "midi": 57,
      "hit": false,
      "t": 53040,
      "d": 240,
      "v": 108
    },
    {
      "midi": 45,
      "hit": false,
      "t": 53280,
      "d": 240,
      "v": 108
    },
    {
      "midi": 64,
      "hit": false,
      "t": 53300,
      "d": 485,
      "v": 120
    },
    {
      "midi": 57,
      "hit": false,
      "t": 53520,
      "d": 240,
      "v": 108
    },
    {
      "midi": 45,
      "hit": false,
      "t": 53760,
      "d": 240,
      "v": 108
    },
    {
      "midi": 61,
      "hit": false,
      "t": 53762.5,
      "d": 1620,
      "v": 119
    },
    {
      "midi": 57,
      "hit": false,
      "t": 54000,
      "d": 240,
      "v": 108
    },
    {
      "midi": 45,
      "hit": false,
      "t": 54240,
      "d": 360,
      "v": 108
    },
    {
      "midi": 57,
      "hit": false,
      "t": 54480,
      "d": 240,
      "v": 108
    },
    {
      "midi": 45,
      "hit": false,
      "t": 54720,
      "d": 240,
      "v": 108
    },
    {
      "midi": 57,
      "hit": false,
      "t": 54960,
      "d": 240,
      "v": 108
    },
    {
      "midi": 45,
      "hit": false,
      "t": 55200,
      "d": 240,
      "v": 108
    },
    {
      "midi": 57,
      "hit": false,
      "t": 55440,
      "d": 240,
      "v": 108
    },
    {
      "midi": 45,
      "hit": false,
      "t": 55680,
      "d": 240,
      "v": 108
    },
    {
      "midi": 64,
      "hit": false,
      "t": 55687.5,
      "d": 1180,
      "v": 124
    },
    {
      "midi": 57,
      "hit": false,
      "t": 55920,
      "d": 240,
      "v": 108
    },
    {
      "midi": 45,
      "hit": false,
      "t": 56160,
      "d": 240,
      "v": 108
    },
    {
      "midi": 57,
      "hit": false,
      "t": 56400,
      "d": 240,
      "v": 108
    },
    {
      "midi": 45,
      "hit": false,
      "t": 56640,
      "d": 240,
      "v": 108
    },
    {
      "midi": 66,
      "hit": false,
      "t": 56877.5,
      "d": 267.5,
      "v": 88
    },
    {
      "midi": 57,
      "hit": false,
      "t": 56880,
      "d": 240,
      "v": 108
    },
    {
      "midi": 45,
      "hit": false,
      "t": 57120,
      "d": 240,
      "v": 108
    },
    {
      "midi": 64,
      "hit": false,
      "t": 57152.5,
      "d": 475,
      "v": 110
    },
    {
      "midi": 57,
      "hit": false,
      "t": 57360,
      "d": 240,
      "v": 108
    },
    {
      "midi": 45,
      "hit": false,
      "t": 57600,
      "d": 240,
      "v": 108
    },
    {
      "midi": 61,
      "hit": false,
      "t": 57615,
      "d": 1027.5,
      "v": 115
    },
    {
      "midi": 57,
      "hit": false,
      "t": 57840,
      "d": 240,
      "v": 108
    },
    {
      "midi": 45,
      "hit": false,
      "t": 58080,
      "d": 240,
      "v": 108
    },
    {
      "midi": 57,
      "hit": false,
      "t": 58320,
      "d": 240,
      "v": 108
    },
    {
      "midi": 45,
      "hit": false,
      "t": 58560,
      "d": 240,
      "v": 108
    },
    {
      "midi": 57,
      "hit": false,
      "t": 58800,
      "d": 240,
      "v": 108
    },
    {
      "midi": 45,
      "hit": false,
      "t": 59040,
      "d": 240,
      "v": 108
    },
    {
      "midi": 57,
      "hit": false,
      "t": 59280,
      "d": 240,
      "v": 108
    },
    {
      "midi": 71,
      "hit": false,
      "t": 59515,
      "d": 1012.5,
      "v": 119
    },
    {
      "midi": 64,
      "hit": false,
      "t": 59520,
      "d": 3120,
      "v": 70
    },
    {
      "midi": 76,
      "hit": false,
      "t": 59520,
      "d": 3120,
      "v": 70
    },
    {
      "midi": 40,
      "hit": false,
      "t": 59520,
      "d": 240,
      "v": 108
    },
    {
      "midi": 52,
      "hit": false,
      "t": 59760,
      "d": 240,
      "v": 108
    },
    {
      "midi": 40,
      "hit": false,
      "t": 60000,
      "d": 240,
      "v": 108
    },
    {
      "midi": 52,
      "hit": false,
      "t": 60240,
      "d": 240,
      "v": 108
    },
    {
      "midi": 40,
      "hit": false,
      "t": 60480,
      "d": 240,
      "v": 108
    },
    {
      "midi": 52,
      "hit": false,
      "t": 60720,
      "d": 240,
      "v": 108
    },
    {
      "midi": 71,
      "hit": false,
      "t": 60942.5,
      "d": 482.5,
      "v": 108
    },
    {
      "midi": 40,
      "hit": false,
      "t": 60960,
      "d": 240,
      "v": 108
    },
    {
      "midi": 52,
      "hit": false,
      "t": 61200,
      "d": 240,
      "v": 108
    },
    {
      "midi": 68,
      "hit": false,
      "t": 61425,
      "d": 1445,
      "v": 109
    },
    {
      "midi": 40,
      "hit": false,
      "t": 61440,
      "d": 240,
      "v": 108
    },
    {
      "midi": 52,
      "hit": false,
      "t": 61680,
      "d": 240,
      "v": 108
    },
    {
      "midi": 40,
      "hit": false,
      "t": 61920,
      "d": 240,
      "v": 108
    },
    {
      "midi": 52,
      "hit": false,
      "t": 62160,
      "d": 240,
      "v": 108
    },
    {
      "midi": 40,
      "hit": false,
      "t": 62400,
      "d": 240,
      "v": 108
    },
    {
      "midi": 52,
      "hit": false,
      "t": 62640,
      "d": 240,
      "v": 108
    },
    {
      "midi": 40,
      "hit": false,
      "t": 62880,
      "d": 240,
      "v": 108
    },
    {
      "midi": 52,
      "hit": false,
      "t": 63120,
      "d": 240,
      "v": 108
    },
    {
      "midi": 69,
      "hit": false,
      "t": 63340,
      "d": 1095,
      "v": 116
    },
    {
      "midi": 57,
      "hit": false,
      "t": 63360,
      "d": 2880,
      "v": 70
    },
    {
      "midi": 69,
      "hit": false,
      "t": 63360,
      "d": 2880,
      "v": 70
    },
    {
      "midi": 45,
      "hit": false,
      "t": 63360,
      "d": 240,
      "v": 108
    },
    {
      "midi": 57,
      "hit": false,
      "t": 63600,
      "d": 240,
      "v": 108
    },
    {
      "midi": 45,
      "hit": false,
      "t": 63840,
      "d": 240,
      "v": 108
    },
    {
      "midi": 57,
      "hit": false,
      "t": 64080,
      "d": 240,
      "v": 108
    },
    {
      "midi": 45,
      "hit": false,
      "t": 64320,
      "d": 240,
      "v": 108
    },
    {
      "midi": 57,
      "hit": false,
      "t": 64560,
      "d": 240,
      "v": 108
    },
    {
      "midi": 69,
      "hit": false,
      "t": 64762.5,
      "d": 480,
      "v": 102
    },
    {
      "midi": 45,
      "hit": false,
      "t": 64800,
      "d": 240,
      "v": 108
    },
    {
      "midi": 57,
      "hit": false,
      "t": 65040,
      "d": 240,
      "v": 108
    },
    {
      "midi": 64,
      "hit": false,
      "t": 65257.5,
      "d": 1620,
      "v": 117
    },
    {
      "midi": 45,
      "hit": false,
      "t": 65280,
      "d": 240,
      "v": 108
    },
    {
      "midi": 57,
      "hit": false,
      "t": 65520,
      "d": 240,
      "v": 108
    },
    {
      "midi": 45,
      "hit": false,
      "t": 65760,
      "d": 360,
      "v": 108
    },
    {
      "midi": 57,
      "hit": false,
      "t": 66000,
      "d": 240,
      "v": 108
    },
    {
      "midi": 45,
      "hit": false,
      "t": 66240,
      "d": 240,
      "v": 108
    },
    {
      "midi": 57,
      "hit": false,
      "t": 66480,
      "d": 240,
      "v": 108
    },
    {
      "midi": 45,
      "hit": false,
      "t": 66720,
      "d": 240,
      "v": 108
    },
    {
      "midi": 57,
      "hit": false,
      "t": 66960,
      "d": 240,
      "v": 108
    },
    {
      "midi": 62,
      "hit": false,
      "t": 67200,
      "d": 3120,
      "v": 70
    },
    {
      "midi": 74,
      "hit": false,
      "t": 67200,
      "d": 3120,
      "v": 70
    },
    {
      "midi": 50,
      "hit": false,
      "t": 67200,
      "d": 240,
      "v": 108
    },
    {
      "midi": 66,
      "hit": false,
      "t": 67205,
      "d": 1215,
      "v": 109
    },
    {
      "midi": 62,
      "hit": false,
      "t": 67440,
      "d": 240,
      "v": 108
    },
    {
      "midi": 50,
      "hit": false,
      "t": 67680,
      "d": 240,
      "v": 108
    },
    {
      "midi": 62,
      "hit": false,
      "t": 67920,
      "d": 240,
      "v": 108
    },
    {
      "midi": 50,
      "hit": false,
      "t": 68160,
      "d": 240,
      "v": 108
    },
    {
      "midi": 62,
      "hit": false,
      "t": 68400,
      "d": 240,
      "v": 108
    },
    {
      "midi": 50,
      "hit": false,
      "t": 68640,
      "d": 240,
      "v": 108
    },
    {
      "midi": 66,
      "hit": false,
      "t": 68645,
      "d": 477.5,
      "v": 113
    },
    {
      "midi": 62,
      "hit": false,
      "t": 68880,
      "d": 240,
      "v": 108
    },
    {
      "midi": 50,
      "hit": false,
      "t": 69120,
      "d": 240,
      "v": 108
    },
    {
      "midi": 69,
      "hit": false,
      "t": 69127.5,
      "d": 1277.5,
      "v": 114
    },
    {
      "midi": 62,
      "hit": false,
      "t": 69360,
      "d": 240,
      "v": 108
    },
    {
      "midi": 50,
      "hit": false,
      "t": 69600,
      "d": 240,
      "v": 108
    },
    {
      "midi": 62,
      "hit": false,
      "t": 69840,
      "d": 240,
      "v": 108
    },
    {
      "midi": 50,
      "hit": false,
      "t": 70080,
      "d": 240,
      "v": 108
    },
    {
      "midi": 62,
      "hit": false,
      "t": 70320,
      "d": 240,
      "v": 108
    },
    {
      "midi": 68,
      "hit": false,
      "t": 70335,
      "d": 207.5,
      "v": 78
    },
    {
      "midi": 66,
      "hit": false,
      "t": 70552.5,
      "d": 457.5,
      "v": 99
    },
    {
      "midi": 50,
      "hit": false,
      "t": 70560,
      "d": 120,
      "v": 108
    },
    {
      "midi": 62,
      "hit": false,
      "t": 70800,
      "d": 240,
      "v": 108
    },
    {
      "midi": 64,
      "hit": false,
      "t": 71030,
      "d": 1182.5,
      "v": 120
    },
    {
      "midi": 57,
      "hit": false,
      "t": 71040,
      "d": 3120,
      "v": 70
    },
    {
      "midi": 69,
      "hit": false,
      "t": 71040,
      "d": 3360,
      "v": 70
    },
    {
      "midi": 45,
      "hit": false,
      "t": 71040,
      "d": 240,
      "v": 108
    },
    {
      "midi": 57,
      "hit": false,
      "t": 71280,
      "d": 240,
      "v": 108
    },
    {
      "midi": 45,
      "hit": false,
      "t": 71520,
      "d": 240,
      "v": 108
    },
    {
      "midi": 57,
      "hit": false,
      "t": 71760,
      "d": 240,
      "v": 108
    },
    {
      "midi": 45,
      "hit": false,
      "t": 72000,
      "d": 240,
      "v": 108
    },
    {
      "midi": 66,
      "hit": false,
      "t": 72207.5,
      "d": 290,
      "v": 84
    },
    {
      "midi": 57,
      "hit": false,
      "t": 72240,
      "d": 240,
      "v": 108
    },
    {
      "midi": 45,
      "hit": false,
      "t": 72480,
      "d": 240,
      "v": 108
    },
    {
      "midi": 64,
      "hit": false,
      "t": 72487.5,
      "d": 502.5,
      "v": 113
    },
    {
      "midi": 57,
      "hit": false,
      "t": 72720,
      "d": 240,
      "v": 108
    },
    {
      "midi": 45,
      "hit": false,
      "t": 72960,
      "d": 240,
      "v": 108
    },
    {
      "midi": 61,
      "hit": false,
      "t": 72965,
      "d": 1622.5,
      "v": 116
    },
    {
      "midi": 57,
      "hit": false,
      "t": 73200,
      "d": 240,
      "v": 108
    },
    {
      "midi": 45,
      "hit": false,
      "t": 73440,
      "d": 240,
      "v": 108
    },
    {
      "midi": 57,
      "hit": false,
      "t": 73680,
      "d": 240,
      "v": 108
    },
    {
      "midi": 45,
      "hit": false,
      "t": 73920,
      "d": 240,
      "v": 108
    },
    {
      "midi": 57,
      "hit": false,
      "t": 74160,
      "d": 240,
      "v": 108
    },
    {
      "midi": 45,
      "hit": false,
      "t": 74400,
      "d": 240,
      "v": 108
    },
    {
      "midi": 57,
      "hit": false,
      "t": 74640,
      "d": 240,
      "v": 108
    },
    {
      "midi": 62,
      "hit": false,
      "t": 74880,
      "d": 2880,
      "v": 70
    },
    {
      "midi": 74,
      "hit": false,
      "t": 74880,
      "d": 2880,
      "v": 70
    },
    {
      "midi": 50,
      "hit": false,
      "t": 74880,
      "d": 240,
      "v": 108
    },
    {
      "midi": 66,
      "hit": false,
      "t": 74880,
      "d": 857.5,
      "v": 112
    },
    {
      "midi": 62,
      "hit": false,
      "t": 75120,
      "d": 240,
      "v": 108
    },
    {
      "midi": 50,
      "hit": false,
      "t": 75360,
      "d": 240,
      "v": 108
    },
    {
      "midi": 62,
      "hit": false,
      "t": 75600,
      "d": 240,
      "v": 108
    },
    {
      "midi": 50,
      "hit": false,
      "t": 75840,
      "d": 240,
      "v": 108
    },
    {
      "midi": 62,
      "hit": false,
      "t": 76080,
      "d": 240,
      "v": 108
    },
    {
      "midi": 66,
      "hit": false,
      "t": 76300,
      "d": 520,
      "v": 94
    },
    {
      "midi": 50,
      "hit": false,
      "t": 76320,
      "d": 240,
      "v": 108
    },
    {
      "midi": 62,
      "hit": false,
      "t": 76560,
      "d": 240,
      "v": 108
    },
    {
      "midi": 50,
      "hit": false,
      "t": 76800,
      "d": 240,
      "v": 108
    },
    {
      "midi": 69,
      "hit": false,
      "t": 76800,
      "d": 952.5,
      "v": 112
    },
    {
      "midi": 62,
      "hit": false,
      "t": 77040,
      "d": 240,
      "v": 108
    },
    {
      "midi": 50,
      "hit": false,
      "t": 77280,
      "d": 360,
      "v": 108
    },
    {
      "midi": 62,
      "hit": false,
      "t": 77520,
      "d": 240,
      "v": 108
    },
    {
      "midi": 50,
      "hit": false,
      "t": 77760,
      "d": 240,
      "v": 108
    },
    {
      "midi": 68,
      "hit": false,
      "t": 77990,
      "d": 280,
      "v": 86
    },
    {
      "midi": 62,
      "hit": false,
      "t": 78000,
      "d": 240,
      "v": 108
    },
    {
      "midi": 50,
      "hit": false,
      "t": 78240,
      "d": 240,
      "v": 108
    },
    {
      "midi": 66,
      "hit": false,
      "t": 78242.5,
      "d": 430,
      "v": 110
    },
    {
      "midi": 62,
      "hit": false,
      "t": 78480,
      "d": 240,
      "v": 108
    },
    {
      "midi": 64,
      "hit": false,
      "t": 78705,
      "d": 1187.5,
      "v": 119
    },
    {
      "midi": 57,
      "hit": false,
      "t": 78720,
      "d": 2640,
      "v": 70
    },
    {
      "midi": 69,
      "hit": false,
      "t": 78720,
      "d": 2640,
      "v": 70
    },
    {
      "midi": 45,
      "hit": false,
      "t": 78720,
      "d": 240,
      "v": 108
    },
    {
      "midi": 57,
      "hit": false,
      "t": 78960,
      "d": 240,
      "v": 108
    },
    {
      "midi": 45,
      "hit": false,
      "t": 79200,
      "d": 240,
      "v": 108
    },
    {
      "midi": 57,
      "hit": false,
      "t": 79440,
      "d": 240,
      "v": 108
    },
    {
      "midi": 45,
      "hit": false,
      "t": 79680,
      "d": 240,
      "v": 108
    },
    {
      "midi": 66,
      "hit": false,
      "t": 79902.5,
      "d": 257.5,
      "v": 81
    },
    {
      "midi": 57,
      "hit": false,
      "t": 79920,
      "d": 240,
      "v": 108
    },
    {
      "midi": 45,
      "hit": false,
      "t": 80160,
      "d": 240,
      "v": 108
    },
    {
      "midi": 64,
      "hit": false,
      "t": 80167.5,
      "d": 512.5,
      "v": 105
    },
    {
      "midi": 57,
      "hit": false,
      "t": 80400,
      "d": 240,
      "v": 108
    },
    {
      "midi": 45,
      "hit": false,
      "t": 80640,
      "d": 240,
      "v": 108
    },
    {
      "midi": 61,
      "hit": false,
      "t": 80650,
      "d": 1537.5,
      "v": 115
    },
    {
      "midi": 57,
      "hit": false,
      "t": 80880,
      "d": 240,
      "v": 108
    },
    {
      "midi": 45,
      "hit": false,
      "t": 81120,
      "d": 240,
      "v": 108
    },
    {
      "midi": 57,
      "hit": false,
      "t": 81360,
      "d": 240,
      "v": 108
    },
    {
      "midi": 45,
      "hit": false,
      "t": 81600,
      "d": 240,
      "v": 108
    },
    {
      "midi": 57,
      "hit": false,
      "t": 81840,
      "d": 240,
      "v": 108
    },
    {
      "midi": 45,
      "hit": false,
      "t": 82080,
      "d": 240,
      "v": 108
    },
    {
      "midi": 57,
      "hit": false,
      "t": 82320,
      "d": 240,
      "v": 108
    },
    {
      "midi": 71,
      "hit": false,
      "t": 82552.5,
      "d": 1282.5,
      "v": 114
    },
    {
      "midi": 64,
      "hit": false,
      "t": 82560,
      "d": 2880,
      "v": 70
    },
    {
      "midi": 76,
      "hit": false,
      "t": 82560,
      "d": 2880,
      "v": 70
    },
    {
      "midi": 52,
      "hit": false,
      "t": 82560,
      "d": 240,
      "v": 108
    },
    {
      "midi": 64,
      "hit": false,
      "t": 82800,
      "d": 240,
      "v": 108
    },
    {
      "midi": 52,
      "hit": false,
      "t": 83040,
      "d": 240,
      "v": 108
    },
    {
      "midi": 64,
      "hit": false,
      "t": 83280,
      "d": 240,
      "v": 108
    },
    {
      "midi": 52,
      "hit": false,
      "t": 83520,
      "d": 240,
      "v": 108
    },
    {
      "midi": 64,
      "hit": false,
      "t": 83760,
      "d": 240,
      "v": 108
    },
    {
      "midi": 71,
      "hit": false,
      "t": 83972.5,
      "d": 487.5,
      "v": 94
    },
    {
      "midi": 52,
      "hit": false,
      "t": 84000,
      "d": 240,
      "v": 108
    },
    {
      "midi": 64,
      "hit": false,
      "t": 84240,
      "d": 240,
      "v": 108
    },
    {
      "midi": 74,
      "hit": false,
      "t": 84467.5,
      "d": 1222.5,
      "v": 117
    },
    {
      "midi": 52,
      "hit": false,
      "t": 84480,
      "d": 240,
      "v": 108
    },
    {
      "midi": 64,
      "hit": false,
      "t": 84720,
      "d": 240,
      "v": 108
    },
    {
      "midi": 52,
      "hit": false,
      "t": 84960,
      "d": 240,
      "v": 108
    },
    {
      "midi": 64,
      "hit": false,
      "t": 85200,
      "d": 240,
      "v": 108
    },
    {
      "midi": 52,
      "hit": false,
      "t": 85440,
      "d": 240,
      "v": 108
    },
    {
      "midi": 64,
      "hit": false,
      "t": 85680,
      "d": 240,
      "v": 108
    },
    {
      "midi": 71,
      "hit": false,
      "t": 85682.5,
      "d": 267.5,
      "v": 75
    },
    {
      "midi": 52,
      "hit": false,
      "t": 85920,
      "d": 240,
      "v": 108
    },
    {
      "midi": 68,
      "hit": false,
      "t": 85925,
      "d": 475,
      "v": 99
    },
    {
      "midi": 64,
      "hit": false,
      "t": 86160,
      "d": 240,
      "v": 108
    },
    {
      "midi": 57,
      "hit": false,
      "t": 86400,
      "d": 2640,
      "v": 70
    },
    {
      "midi": 69,
      "hit": false,
      "t": 86400,
      "d": 2640,
      "v": 70
    },
    {
      "midi": 45,
      "hit": false,
      "t": 86400,
      "d": 240,
      "v": 108
    },
    {
      "midi": 69,
      "hit": false,
      "t": 86410,
      "d": 1897.5,
      "v": 112
    },
    {
      "midi": 57,
      "hit": false,
      "t": 86640,
      "d": 240,
      "v": 108
    },
    {
      "midi": 45,
      "hit": false,
      "t": 86880,
      "d": 240,
      "v": 108
    },
    {
      "midi": 57,
      "hit": false,
      "t": 87120,
      "d": 240,
      "v": 108
    },
    {
      "midi": 45,
      "hit": false,
      "t": 87360,
      "d": 240,
      "v": 108
    },
    {
      "midi": 57,
      "hit": false,
      "t": 87600,
      "d": 240,
      "v": 108
    },
    {
      "midi": 45,
      "hit": false,
      "t": 87840,
      "d": 240,
      "v": 108
    },
    {
      "midi": 57,
      "hit": false,
      "t": 88080,
      "d": 240,
      "v": 108
    },
    {
      "midi": 73,
      "hit": false,
      "t": 88307.5,
      "d": 1627.5,
      "v": 121
    },
    {
      "midi": 45,
      "hit": false,
      "t": 88320,
      "d": 240,
      "v": 108
    },
    {
      "midi": 57,
      "hit": false,
      "t": 88560,
      "d": 240,
      "v": 108
    },
    {
      "midi": 45,
      "hit": false,
      "t": 88800,
      "d": 240,
      "v": 108
    },
    {
      "midi": 57,
      "hit": false,
      "t": 89040,
      "d": 240,
      "v": 108
    },
    {
      "midi": 45,
      "hit": false,
      "t": 89280,
      "d": 360,
      "v": 108
    },
    {
      "midi": 57,
      "hit": false,
      "t": 89520,
      "d": 240,
      "v": 108
    },
    {
      "midi": 45,
      "hit": false,
      "t": 89760,
      "d": 360,
      "v": 108
    },
    {
      "midi": 57,
      "hit": false,
      "t": 90000,
      "d": 240,
      "v": 108
    },
    {
      "midi": 69,
      "hit": false,
      "t": 90232.5,
      "d": 747.5,
      "v": 115
    },
    {
      "midi": 64,
      "hit": false,
      "t": 90240,
      "d": 1920,
      "v": 70
    },
    {
      "midi": 76,
      "hit": false,
      "t": 90240,
      "d": 1920,
      "v": 70
    },
    {
      "midi": 45,
      "hit": false,
      "t": 90240,
      "d": 240,
      "v": 108
    },
    {
      "midi": 57,
      "hit": false,
      "t": 90480,
      "d": 240,
      "v": 108
    },
    {
      "midi": 45,
      "hit": false,
      "t": 90720,
      "d": 240,
      "v": 108
    },
    {
      "midi": 57,
      "hit": false,
      "t": 90960,
      "d": 240,
      "v": 108
    },
    {
      "midi": 64,
      "hit": false,
      "t": 90975,
      "d": 670,
      "v": 94
    },
    {
      "midi": 45,
      "hit": false,
      "t": 91200,
      "d": 240,
      "v": 108
    },
    {
      "midi": 57,
      "hit": false,
      "t": 91440,
      "d": 240,
      "v": 108
    },
    {
      "midi": 61,
      "hit": false,
      "t": 91652.5,
      "d": 497.5,
      "v": 113
    },
    {
      "midi": 45,
      "hit": false,
      "t": 91680,
      "d": 240,
      "v": 108
    },
    {
      "midi": 57,
      "hit": false,
      "t": 91920,
      "d": 240,
      "v": 108
    },
    {
      "midi": 64,
      "hit": false,
      "t": 92145,
      "d": 800,
      "v": 111
    },
    {
      "midi": 40,
      "hit": false,
      "t": 92160,
      "d": 240,
      "v": 108
    },
    {
      "midi": 52,
      "hit": false,
      "t": 92400,
      "d": 240,
      "v": 108
    },
    {
      "midi": 40,
      "hit": false,
      "t": 92640,
      "d": 240,
      "v": 108
    },
    {
      "midi": 52,
      "hit": false,
      "t": 92880,
      "d": 240,
      "v": 108
    },
    {
      "midi": 62,
      "hit": false,
      "t": 92897.5,
      "d": 697.5,
      "v": 85
    },
    {
      "midi": 40,
      "hit": false,
      "t": 93120,
      "d": 240,
      "v": 108
    },
    {
      "midi": 52,
      "hit": false,
      "t": 93360,
      "d": 240,
      "v": 108
    },
    {
      "midi": 40,
      "hit": false,
      "t": 93600,
      "d": 240,
      "v": 108
    },
    {
      "midi": 59,
      "hit": false,
      "t": 93600,
      "d": 502.5,
      "v": 91
    },
    {
      "midi": 52,
      "hit": false,
      "t": 93840,
      "d": 240,
      "v": 108
    },
    {
      "midi": 57,
      "hit": false,
      "t": 94075,
      "d": 1450,
      "v": 120
    },
    {
      "midi": 69,
      "hit": false,
      "t": 94080,
      "d": 1920,
      "v": 70
    },
    {
      "midi": 81,
      "hit": false,
      "t": 94080,
      "d": 1920,
      "v": 70
    },
    {
      "midi": 45,
      "hit": false,
      "t": 94080,
      "d": 240,
      "v": 108
    },
    {
      "midi": 57,
      "hit": false,
      "t": 94320,
      "d": 240,
      "v": 108
    },
    {
      "midi": 45,
      "hit": false,
      "t": 94560,
      "d": 360,
      "v": 108
    },
    {
      "midi": 57,
      "hit": false,
      "t": 94800,
      "d": 240,
      "v": 108
    },
    {
      "midi": 45,
      "hit": false,
      "t": 95040,
      "d": 240,
      "v": 108
    },
    {
      "midi": 57,
      "hit": false,
      "t": 95280,
      "d": 240,
      "v": 108
    },
    {
      "midi": 45,
      "hit": false,
      "t": 95520,
      "d": 360,
      "v": 108
    },
    {
      "midi": 57,
      "hit": false,
      "t": 95760,
      "d": 240,
      "v": 108
    },
    {
      "midi": 45,
      "hit": false,
      "t": 96000,
      "d": 120,
      "v": 108
    },
    {
      "midi": 43,
      "hit": false,
      "t": 97920,
      "d": 235,
      "v": 84
    },
    {
      "midi": 55,
      "hit": false,
      "t": 98142.5,
      "d": 282.5,
      "v": 84
    },
    {
      "midi": 43,
      "hit": false,
      "t": 98397.5,
      "d": 252.5,
      "v": 84
    },
    {
      "midi": 55,
      "hit": false,
      "t": 98630,
      "d": 270,
      "v": 84
    },
    {
      "midi": 43,
      "hit": false,
      "t": 98882.5,
      "d": 277.5,
      "v": 84
    },
    {
      "midi": 55,
      "hit": false,
      "t": 99120,
      "d": 280,
      "v": 84
    },
    {
      "midi": 43,
      "hit": false,
      "t": 99387.5,
      "d": 245,
      "v": 84
    },
    {
      "midi": 55,
      "hit": false,
      "t": 99612.5,
      "d": 275,
      "v": 84
    },
    {
      "midi": 43,
      "hit": false,
      "t": 99840,
      "d": 235,
      "v": 84
    },
    {
      "midi": 55,
      "hit": false,
      "t": 100062.5,
      "d": 282.5,
      "v": 84
    },
    {
      "midi": 43,
      "hit": false,
      "t": 100317.5,
      "d": 252.5,
      "v": 84
    },
    {
      "midi": 55,
      "hit": false,
      "t": 100550,
      "d": 270,
      "v": 84
    },
    {
      "midi": 43,
      "hit": false,
      "t": 100802.5,
      "d": 277.5,
      "v": 84
    },
    {
      "midi": 55,
      "hit": false,
      "t": 101040,
      "d": 280,
      "v": 84
    },
    {
      "midi": 43,
      "hit": false,
      "t": 101305,
      "d": 245,
      "v": 84
    },
    {
      "midi": 55,
      "hit": false,
      "t": 101530,
      "d": 275,
      "v": 84
    },
    {
      "midi": 62,
      "hit": false,
      "t": 101767.5,
      "d": 125,
      "v": 113
    },
    {
      "midi": 43,
      "hit": false,
      "t": 101772.5,
      "d": 282.5,
      "v": 84
    },
    {
      "midi": 62,
      "hit": false,
      "t": 101975,
      "d": 327.5,
      "v": 78
    },
    {
      "midi": 55,
      "hit": false,
      "t": 102010,
      "d": 277.5,
      "v": 84
    },
    {
      "midi": 43,
      "hit": false,
      "t": 102262.5,
      "d": 307.5,
      "v": 84
    },
    {
      "midi": 62,
      "hit": false,
      "t": 102465,
      "d": 212.5,
      "v": 83
    },
    {
      "midi": 55,
      "hit": false,
      "t": 102487.5,
      "d": 267.5,
      "v": 84
    },
    {
      "midi": 67,
      "hit": false,
      "t": 102717.5,
      "d": 372.5,
      "v": 104
    },
    {
      "midi": 43,
      "hit": false,
      "t": 102727.5,
      "d": 305,
      "v": 84
    },
    {
      "midi": 55,
      "hit": false,
      "t": 102950,
      "d": 295,
      "v": 84
    },
    {
      "midi": 43,
      "hit": false,
      "t": 103217.5,
      "d": 292.5,
      "v": 84
    },
    {
      "midi": 67,
      "hit": false,
      "t": 103222.5,
      "d": 367.5,
      "v": 97
    },
    {
      "midi": 55,
      "hit": false,
      "t": 103437.5,
      "d": 267.5,
      "v": 84
    },
    {
      "midi": 64,
      "hit": false,
      "t": 103677.5,
      "d": 415,
      "v": 115
    },
    {
      "midi": 36,
      "hit": false,
      "t": 103707.5,
      "d": 260,
      "v": 84
    },
    {
      "midi": 48,
      "hit": false,
      "t": 103922.5,
      "d": 250,
      "v": 84
    },
    {
      "midi": 60,
      "hit": false,
      "t": 104150,
      "d": 277.5,
      "v": 87
    },
    {
      "midi": 36,
      "hit": false,
      "t": 104152.5,
      "d": 277.5,
      "v": 84
    },
    {
      "midi": 48,
      "hit": false,
      "t": 104395,
      "d": 265,
      "v": 84
    },
    {
      "midi": 57,
      "hit": false,
      "t": 104400,
      "d": 640,
      "v": 90
    },
    {
      "midi": 36,
      "hit": false,
      "t": 104645,
      "d": 285,
      "v": 84
    },
    {
      "midi": 48,
      "hit": false,
      "t": 104877.5,
      "d": 272.5,
      "v": 84
    },
    {
      "midi": 64,
      "hit": false,
      "t": 105125,
      "d": 122.5,
      "v": 109
    },
    {
      "midi": 36,
      "hit": false,
      "t": 105130,
      "d": 265,
      "v": 84
    },
    {
      "midi": 48,
      "hit": false,
      "t": 105342.5,
      "d": 302.5,
      "v": 84
    },
    {
      "midi": 64,
      "hit": false,
      "t": 105362.5,
      "d": 205,
      "v": 79
    },
    {
      "midi": 38,
      "hit": false,
      "t": 105585,
      "d": 327.5,
      "v": 84
    },
    {
      "midi": 62,
      "hit": false,
      "t": 105617.5,
      "d": 452.5,
      "v": 99
    },
    {
      "midi": 50,
      "hit": false,
      "t": 105852.5,
      "d": 247.5,
      "v": 84
    },
    {
      "midi": 66,
      "hit": false,
      "t": 106090,
      "d": 477.5,
      "v": 93
    },
    {
      "midi": 38,
      "hit": false,
      "t": 106097.5,
      "d": 292.5,
      "v": 84
    },
    {
      "midi": 50,
      "hit": false,
      "t": 106320,
      "d": 302.5,
      "v": 84
    },
    {
      "midi": 64,
      "hit": false,
      "t": 106550,
      "d": 672.5,
      "v": 100
    },
    {
      "midi": 38,
      "hit": false,
      "t": 106585,
      "d": 280,
      "v": 84
    },
    {
      "midi": 50,
      "hit": false,
      "t": 106810,
      "d": 257.5,
      "v": 84
    },
    {
      "midi": 38,
      "hit": false,
      "t": 107050,
      "d": 242.5,
      "v": 84
    },
    {
      "midi": 60,
      "hit": false,
      "t": 107262.5,
      "d": 300,
      "v": 63
    },
    {
      "midi": 50,
      "hit": false,
      "t": 107280,
      "d": 245,
      "v": 84
    },
    {
      "midi": 43,
      "hit": false,
      "t": 107495,
      "d": 305,
      "v": 84
    },
    {
      "midi": 59,
      "hit": false,
      "t": 107525,
      "d": 805,
      "v": 105
    },
    {
      "midi": 55,
      "hit": false,
      "t": 107740,
      "d": 257.5,
      "v": 84
    },
    {
      "midi": 43,
      "hit": false,
      "t": 107980,
      "d": 350,
      "v": 84
    },
    {
      "midi": 45,
      "hit": false,
      "t": 107990,
      "d": 180,
      "v": 84
    },
    {
      "midi": 55,
      "hit": false,
      "t": 108242.5,
      "d": 267.5,
      "v": 84
    },
    {
      "midi": 43,
      "hit": false,
      "t": 108507.5,
      "d": 257.5,
      "v": 84
    },
    {
      "midi": 55,
      "hit": false,
      "t": 108725,
      "d": 257.5,
      "v": 84
    },
    {
      "midi": 43,
      "hit": false,
      "t": 108960,
      "d": 307.5,
      "v": 84
    },
    {
      "midi": 55,
      "hit": false,
      "t": 109205,
      "d": 267.5,
      "v": 84
    },
    {
      "midi": 62,
      "hit": false,
      "t": 109430,
      "d": 437.5,
      "v": 102
    },
    {
      "midi": 43,
      "hit": false,
      "t": 109455,
      "d": 302.5,
      "v": 84
    },
    {
      "midi": 55,
      "hit": false,
      "t": 109687.5,
      "d": 262.5,
      "v": 84
    },
    {
      "midi": 71,
      "hit": false,
      "t": 109887.5,
      "d": 515,
      "v": 89
    },
    {
      "midi": 43,
      "hit": false,
      "t": 109945,
      "d": 282.5,
      "v": 84
    },
    {
      "midi": 55,
      "hit": false,
      "t": 110160,
      "d": 265,
      "v": 84
    },
    {
      "midi": 69,
      "hit": false,
      "t": 110370,
      "d": 512.5,
      "v": 89
    },
    {
      "midi": 43,
      "hit": false,
      "t": 110407.5,
      "d": 232.5,
      "v": 84
    },
    {
      "midi": 55,
      "hit": false,
      "t": 110602.5,
      "d": 267.5,
      "v": 84
    },
    {
      "midi": 43,
      "hit": false,
      "t": 110847.5,
      "d": 235,
      "v": 84
    },
    {
      "midi": 67,
      "hit": false,
      "t": 110852.5,
      "d": 437.5,
      "v": 94
    },
    {
      "midi": 55,
      "hit": false,
      "t": 111072.5,
      "d": 262.5,
      "v": 84
    },
    {
      "midi": 36,
      "hit": false,
      "t": 111327.5,
      "d": 305,
      "v": 84
    },
    {
      "midi": 48,
      "hit": false,
      "t": 111565,
      "d": 257.5,
      "v": 84
    },
    {
      "midi": 64,
      "hit": false,
      "t": 111610,
      "d": 460,
      "v": 72
    },
    {
      "midi": 36,
      "hit": false,
      "t": 111815,
      "d": 280,
      "v": 84
    },
    {
      "midi": 60,
      "hit": false,
      "t": 112060,
      "d": 270,
      "v": 67
    },
    {
      "midi": 48,
      "hit": false,
      "t": 112065,
      "d": 257.5,
      "v": 84
    },
    {
      "midi": 36,
      "hit": false,
      "t": 112310,
      "d": 262.5,
      "v": 84
    },
    {
      "midi": 57,
      "hit": false,
      "t": 112322.5,
      "d": 557.5,
      "v": 104
    },
    {
      "midi": 48,
      "hit": false,
      "t": 112530,
      "d": 295,
      "v": 84
    },
    {
      "midi": 36,
      "hit": false,
      "t": 112790,
      "d": 320,
      "v": 84
    },
    {
      "midi": 48,
      "hit": false,
      "t": 113032.5,
      "d": 275,
      "v": 84
    },
    {
      "midi": 64,
      "hit": false,
      "t": 113047.5,
      "d": 252.5,
      "v": 72
    },
    {
      "midi": 43,
      "hit": false,
      "t": 113265,
      "d": 245,
      "v": 84
    },
    {
      "midi": 62,
      "hit": false,
      "t": 113292.5,
      "d": 710,
      "v": 96
    },
    {
      "midi": 55,
      "hit": false,
      "t": 113515,
      "d": 232.5,
      "v": 84
    },
    {
      "midi": 43,
      "hit": false,
      "t": 113730,
      "d": 282.5,
      "v": 84
    },
    {
      "midi": 55,
      "hit": false,
      "t": 113967.5,
      "d": 247.5,
      "v": 84
    },
    {
      "midi": 67,
      "hit": false,
      "t": 113995,
      "d": 275,
      "v": 74
    },
    {
      "midi": 38,
      "hit": false,
      "t": 114217.5,
      "d": 272.5,
      "v": 84
    },
    {
      "midi": 66,
      "hit": false,
      "t": 114240,
      "d": 497.5,
      "v": 87
    },
    {
      "midi": 50,
      "hit": false,
      "t": 114455,
      "d": 257.5,
      "v": 84
    },
    {
      "midi": 38,
      "hit": false,
      "t": 114695,
      "d": 282.5,
      "v": 84
    },
    {
      "midi": 69,
      "hit": false,
      "t": 114730,
      "d": 487.5,
      "v": 101
    },
    {
      "midi": 50,
      "hit": false,
      "t": 114937.5,
      "d": 270,
      "v": 84
    },
    {
      "midi": 67,
      "hit": false,
      "t": 115190,
      "d": 1320,
      "v": 113
    },
    {
      "midi": 43,
      "hit": false,
      "t": 115192.5,
      "d": 307.5,
      "v": 84
    },
    {
      "midi": 55,
      "hit": false,
      "t": 115447.5,
      "d": 242.5,
      "v": 84
    },
    {
      "midi": 43,
      "hit": false,
      "t": 115702.5,
      "d": 305,
      "v": 84
    },
    {
      "midi": 55,
      "hit": false,
      "t": 115955,
      "d": 270,
      "v": 84
    },
    {
      "midi": 43,
      "hit": false,
      "t": 116202.5,
      "d": 257.5,
      "v": 84
    },
    {
      "midi": 55,
      "hit": false,
      "t": 116422.5,
      "d": 270,
      "v": 84
    },
    {
      "midi": 43,
      "hit": false,
      "t": 116665,
      "d": 272.5,
      "v": 84
    },
    {
      "midi": 55,
      "hit": false,
      "t": 116880,
      "d": 252.5,
      "v": 84
    },
    {
      "midi": 43,
      "hit": false,
      "t": 117115,
      "d": 202.5,
      "v": 84
    },
    {
      "midi": 79,
      "hit": false,
      "t": 117120,
      "d": 3840,
      "v": 60
    },
    {
      "midi": 91,
      "hit": false,
      "t": 117120,
      "d": 227.5,
      "v": 100
    },
    {
      "midi": 71,
      "hit": false,
      "t": 117122.5,
      "d": 337.5,
      "v": 108
    },
    {
      "midi": 55,
      "hit": false,
      "t": 117337.5,
      "d": 255,
      "v": 84
    },
    {
      "midi": 43,
      "hit": false,
      "t": 117572.5,
      "d": 272.5,
      "v": 84
    },
    {
      "midi": 71,
      "hit": false,
      "t": 117587.5,
      "d": 430,
      "v": 93
    },
    {
      "midi": 91,
      "hit": false,
      "t": 117600,
      "d": 252.5,
      "v": 100
    },
    {
      "midi": 55,
      "hit": false,
      "t": 117815,
      "d": 260,
      "v": 84
    },
    {
      "midi": 72,
      "hit": false,
      "t": 118062.5,
      "d": 805,
      "v": 87
    },
    {
      "midi": 36,
      "hit": false,
      "t": 118067.5,
      "d": 267.5,
      "v": 84
    },
    {
      "midi": 91,
      "hit": false,
      "t": 118080,
      "d": 232.5,
      "v": 100
    },
    {
      "midi": 48,
      "hit": false,
      "t": 118312.5,
      "d": 227.5,
      "v": 84
    },
    {
      "midi": 36,
      "hit": false,
      "t": 118535,
      "d": 270,
      "v": 84
    },
    {
      "midi": 91,
      "hit": false,
      "t": 118560,
      "d": 197.5,
      "v": 100
    },
    {
      "midi": 48,
      "hit": false,
      "t": 118780,
      "d": 230,
      "v": 84
    },
    {
      "midi": 71,
      "hit": false,
      "t": 118827.5,
      "d": 237.5,
      "v": 79
    },
    {
      "midi": 38,
      "hit": false,
      "t": 119015,
      "d": 255,
      "v": 84
    },
    {
      "midi": 91,
      "hit": false,
      "t": 119040,
      "d": 147.5,
      "v": 100
    },
    {
      "midi": 69,
      "hit": false,
      "t": 119060,
      "d": 370,
      "v": 102
    },
    {
      "midi": 50,
      "hit": false,
      "t": 119252.5,
      "d": 220,
      "v": 84
    },
    {
      "midi": 38,
      "hit": false,
      "t": 119487.5,
      "d": 250,
      "v": 84
    },
    {
      "midi": 69,
      "hit": false,
      "t": 119517.5,
      "d": 497.5,
      "v": 93
    },
    {
      "midi": 91,
      "hit": false,
      "t": 119520,
      "d": 142.5,
      "v": 100
    },
    {
      "midi": 50,
      "hit": false,
      "t": 119717.5,
      "d": 272.5,
      "v": 84
    },
    {
      "midi": 43,
      "hit": false,
      "t": 119977.5,
      "d": 292.5,
      "v": 84
    },
    {
      "midi": 71,
      "hit": false,
      "t": 119997.5,
      "d": 732.5,
      "v": 100
    },
    {
      "midi": 91,
      "hit": false,
      "t": 120000,
      "d": 165,
      "v": 100
    },
    {
      "midi": 55,
      "hit": false,
      "t": 120220,
      "d": 250,
      "v": 84
    },
    {
      "midi": 43,
      "hit": false,
      "t": 120455,
      "d": 282.5,
      "v": 84
    },
    {
      "midi": 91,
      "hit": false,
      "t": 120480,
      "d": 180,
      "v": 100
    },
    {
      "midi": 55,
      "hit": false,
      "t": 120697.5,
      "d": 262.5,
      "v": 84
    },
    {
      "midi": 69,
      "hit": false,
      "t": 120722.5,
      "d": 240,
      "v": 77
    },
    {
      "midi": 40,
      "hit": false,
      "t": 120945,
      "d": 247.5,
      "v": 84
    },
    {
      "midi": 76,
      "hit": false,
      "t": 120960,
      "d": 1920,
      "v": 60
    },
    {
      "midi": 67,
      "hit": false,
      "t": 120967.5,
      "d": 387.5,
      "v": 99
    },
    {
      "midi": 52,
      "hit": false,
      "t": 121165,
      "d": 260,
      "v": 84
    },
    {
      "midi": 40,
      "hit": false,
      "t": 121402.5,
      "d": 242.5,
      "v": 84
    },
    {
      "midi": 67,
      "hit": false,
      "t": 121440,
      "d": 450,
      "v": 104
    },
    {
      "midi": 52,
      "hit": false,
      "t": 121637.5,
      "d": 280,
      "v": 84
    },
    {
      "midi": 36,
      "hit": false,
      "t": 121902.5,
      "d": 282.5,
      "v": 84
    },
    {
      "midi": 69,
      "hit": false,
      "t": 121905,
      "d": 725,
      "v": 100
    },
    {
      "midi": 48,
      "hit": false,
      "t": 122150,
      "d": 250,
      "v": 84
    },
    {
      "midi": 36,
      "hit": false,
      "t": 122397.5,
      "d": 272.5,
      "v": 84
    },
    {
      "midi": 48,
      "hit": false,
      "t": 122615,
      "d": 242.5,
      "v": 84
    },
    {
      "midi": 67,
      "hit": false,
      "t": 122650,
      "d": 270,
      "v": 84
    },
    {
      "midi": 38,
      "hit": false,
      "t": 122862.5,
      "d": 320,
      "v": 84
    },
    {
      "midi": 74,
      "hit": false,
      "t": 122880,
      "d": 1920,
      "v": 60
    },
    {
      "midi": 66,
      "hit": false,
      "t": 122895,
      "d": 1265,
      "v": 112
    },
    {
      "midi": 50,
      "hit": false,
      "t": 123115,
      "d": 255,
      "v": 84
    },
    {
      "midi": 38,
      "hit": false,
      "t": 123360,
      "d": 262.5,
      "v": 84
    },
    {
      "midi": 50,
      "hit": false,
      "t": 123595,
      "d": 255,
      "v": 84
    },
    {
      "midi": 38,
      "hit": false,
      "t": 123825,
      "d": 297.5,
      "v": 84
    },
    {
      "midi": 50,
      "hit": false,
      "t": 124075,
      "d": 262.5,
      "v": 84
    },
    {
      "midi": 38,
      "hit": false,
      "t": 124305,
      "d": 272.5,
      "v": 84
    },
    {
      "midi": 64,
      "hit": false,
      "t": 124545,
      "d": 312.5,
      "v": 90
    },
    {
      "midi": 50,
      "hit": false,
      "t": 124557.5,
      "d": 172.5,
      "v": 84
    },
    {
      "midi": 43,
      "hit": false,
      "t": 124795,
      "d": 245,
      "v": 84
    },
    {
      "midi": 79,
      "hit": false,
      "t": 124800,
      "d": 4800,
      "v": 60
    },
    {
      "midi": 62,
      "hit": false,
      "t": 124815,
      "d": 465,
      "v": 109
    },
    {
      "midi": 55,
      "hit": false,
      "t": 125025,
      "d": 255,
      "v": 84
    },
    {
      "midi": 43,
      "hit": false,
      "t": 125255,
      "d": 280,
      "v": 84
    },
    {
      "midi": 71,
      "hit": false,
      "t": 125280,
      "d": 457.5,
      "v": 89
    },
    {
      "midi": 55,
      "hit": false,
      "t": 125497.5,
      "d": 277.5,
      "v": 84
    },
    {
      "midi": 69,
      "hit": false,
      "t": 125727.5,
      "d": 785,
      "v": 93
    },
    {
      "midi": 43,
      "hit": false,
      "t": 125765,
      "d": 257.5,
      "v": 84
    },
    {
      "midi": 55,
      "hit": false,
      "t": 125987.5,
      "d": 252.5,
      "v": 84
    },
    {
      "midi": 43,
      "hit": false,
      "t": 126235,
      "d": 175,
      "v": 84
    },
    {
      "midi": 55,
      "hit": false,
      "t": 126437.5,
      "d": 277.5,
      "v": 84
    },
    {
      "midi": 67,
      "hit": false,
      "t": 126470,
      "d": 267.5,
      "v": 91
    },
    {
      "midi": 36,
      "hit": false,
      "t": 126692.5,
      "d": 295,
      "v": 84
    },
    {
      "midi": 64,
      "hit": false,
      "t": 126715,
      "d": 465,
      "v": 115
    },
    {
      "midi": 48,
      "hit": false,
      "t": 126937.5,
      "d": 270,
      "v": 84
    },
    {
      "midi": 36,
      "hit": false,
      "t": 127190,
      "d": 270,
      "v": 84
    },
    {
      "midi": 60,
      "hit": false,
      "t": 127190,
      "d": 290,
      "v": 81
    },
    {
      "midi": 48,
      "hit": false,
      "t": 127430,
      "d": 272.5,
      "v": 84
    },
    {
      "midi": 57,
      "hit": false,
      "t": 127445,
      "d": 685,
      "v": 86
    },
    {
      "midi": 36,
      "hit": false,
      "t": 127687.5,
      "d": 270,
      "v": 84
    },
    {
      "midi": 48,
      "hit": false,
      "t": 127915,
      "d": 262.5,
      "v": 84
    },
    {
      "midi": 36,
      "hit": false,
      "t": 128170,
      "d": 210,
      "v": 84
    },
    {
      "midi": 48,
      "hit": false,
      "t": 128380,
      "d": 272.5,
      "v": 84
    },
    {
      "midi": 64,
      "hit": false,
      "t": 128400,
      "d": 270,
      "v": 90
    },
    {
      "midi": 43,
      "hit": false,
      "t": 128630,
      "d": 345,
      "v": 84
    },
    {
      "midi": 62,
      "hit": false,
      "t": 128655,
      "d": 717.5,
      "v": 113
    },
    {
      "midi": 55,
      "hit": false,
      "t": 128907.5,
      "d": 205,
      "v": 84
    },
    {
      "midi": 43,
      "hit": false,
      "t": 129135,
      "d": 217.5,
      "v": 84
    },
    {
      "midi": 55,
      "hit": false,
      "t": 129337.5,
      "d": 252.5,
      "v": 84
    },
    {
      "midi": 67,
      "hit": false,
      "t": 129350,
      "d": 305,
      "v": 76
    },
    {
      "midi": 50,
      "hit": false,
      "t": 129582.5,
      "d": 292.5,
      "v": 84
    },
    {
      "midi": 86,
      "hit": false,
      "t": 129600,
      "d": 960,
      "v": 60
    },
    {
      "midi": 66,
      "hit": false,
      "t": 129622.5,
      "d": 507.5,
      "v": 104
    },
    {
      "midi": 62,
      "hit": false,
      "t": 129830,
      "d": 220,
      "v": 84
    },
    {
      "midi": 50,
      "hit": false,
      "t": 130047.5,
      "d": 280,
      "v": 84
    },
    {
      "midi": 69,
      "hit": false,
      "t": 130095,
      "d": 505,
      "v": 90
    },
    {
      "midi": 62,
      "hit": false,
      "t": 130292.5,
      "d": 275,
      "v": 84
    },
    {
      "midi": 79,
      "hit": false,
      "t": 130560,
      "d": 1920,
      "v": 60
    },
    {
      "midi": 43,
      "hit": false,
      "t": 130560,
      "d": 277.5,
      "v": 84
    },
    {
      "midi": 67,
      "hit": false,
      "t": 130567.5,
      "d": 1245,
      "v": 119
    },
    {
      "midi": 55,
      "hit": false,
      "t": 130780,
      "d": 235,
      "v": 84
    },
    {
      "midi": 43,
      "hit": false,
      "t": 131030,
      "d": 300,
      "v": 84
    },
    {
      "midi": 55,
      "hit": false,
      "t": 131280,
      "d": 262.5,
      "v": 84
    },
    {
      "midi": 43,
      "hit": false,
      "t": 131535,
      "d": 275,
      "v": 84
    },
    {
      "midi": 55,
      "hit": false,
      "t": 131762.5,
      "d": 262.5,
      "v": 84
    },
    {
      "midi": 43,
      "hit": false,
      "t": 132012.5,
      "d": 267.5,
      "v": 84
    },
    {
      "midi": 55,
      "hit": false,
      "t": 132240,
      "d": 160,
      "v": 84
    },
    {
      "midi": 91,
      "hit": false,
      "t": 132467.5,
      "d": 70,
      "v": 98
    },
    {
      "midi": 43,
      "hit": false,
      "t": 132492.5,
      "d": 282.5,
      "v": 84
    },
    {
      "midi": 55,
      "hit": false,
      "t": 132727.5,
      "d": 277.5,
      "v": 84
    },
    {
      "midi": 91,
      "hit": false,
      "t": 132960,
      "d": 60,
      "v": 102
    },
    {
      "midi": 43,
      "hit": false,
      "t": 132982.5,
      "d": 307.5,
      "v": 84
    },
    {
      "midi": 55,
      "hit": false,
      "t": 133207.5,
      "d": 267.5,
      "v": 84
    },
    {
      "midi": 81,
      "hit": false,
      "t": 133382.5,
      "d": 60,
      "v": 98
    },
    {
      "midi": 43,
      "hit": false,
      "t": 133447.5,
      "d": 305,
      "v": 84
    },
    {
      "midi": 91,
      "hit": false,
      "t": 133502.5,
      "d": 60,
      "v": 81
    },
    {
      "midi": 55,
      "hit": false,
      "t": 133670,
      "d": 295,
      "v": 84
    },
    {
      "midi": 91,
      "hit": false,
      "t": 133920,
      "d": 60,
      "v": 100
    },
    {
      "midi": 43,
      "hit": false,
      "t": 133937.5,
      "d": 292.5,
      "v": 84
    },
    {
      "midi": 55,
      "hit": false,
      "t": 134160,
      "d": 267.5,
      "v": 84
    },
    {
      "midi": 91,
      "hit": false,
      "t": 134400,
      "d": 60,
      "v": 106
    },
    {
      "midi": 36,
      "hit": false,
      "t": 134427.5,
      "d": 260,
      "v": 84
    },
    {
      "midi": 48,
      "hit": false,
      "t": 134642.5,
      "d": 250,
      "v": 84
    },
    {
      "midi": 91,
      "hit": false,
      "t": 134822.5,
      "d": 60,
      "v": 107
    },
    {
      "midi": 36,
      "hit": false,
      "t": 134872.5,
      "d": 277.5,
      "v": 84
    },
    {
      "midi": 48,
      "hit": false,
      "t": 135115,
      "d": 265,
      "v": 84
    },
    {
      "midi": 91,
      "hit": false,
      "t": 135305,
      "d": 60,
      "v": 99
    },
    {
      "midi": 36,
      "hit": false,
      "t": 135365,
      "d": 285,
      "v": 84
    },
    {
      "midi": 48,
      "hit": false,
      "t": 135597.5,
      "d": 272.5,
      "v": 84
    },
    {
      "midi": 91,
      "hit": false,
      "t": 135785,
      "d": 120,
      "v": 106
    },
    {
      "midi": 36,
      "hit": false,
      "t": 135850,
      "d": 265,
      "v": 84
    },
    {
      "midi": 48,
      "hit": false,
      "t": 136062.5,
      "d": 302.5,
      "v": 84
    },
    {
      "midi": 38,
      "hit": false,
      "t": 136305,
      "d": 327.5,
      "v": 84
    },
    {
      "midi": 91,
      "hit": false,
      "t": 136320,
      "d": 60,
      "v": 106
    },
    {
      "midi": 50,
      "hit": false,
      "t": 136572.5,
      "d": 247.5,
      "v": 84
    },
    {
      "midi": 91,
      "hit": false,
      "t": 136800,
      "d": 60,
      "v": 98
    },
    {
      "midi": 38,
      "hit": false,
      "t": 136815,
      "d": 292.5,
      "v": 84
    },
    {
      "midi": 50,
      "hit": false,
      "t": 137040,
      "d": 302.5,
      "v": 84
    },
    {
      "midi": 86,
      "hit": false,
      "t": 137280,
      "d": 60,
      "v": 102
    },
    {
      "midi": 38,
      "hit": false,
      "t": 137305,
      "d": 280,
      "v": 84
    },
    {
      "midi": 50,
      "hit": false,
      "t": 137530,
      "d": 257.5,
      "v": 84
    },
    {
      "midi": 86,
      "hit": false,
      "t": 137760,
      "d": 60,
      "v": 92
    },
    {
      "midi": 38,
      "hit": false,
      "t": 137770,
      "d": 242.5,
      "v": 84
    },
    {
      "midi": 50,
      "hit": false,
      "t": 137997.5,
      "d": 245,
      "v": 84
    },
    {
      "midi": 43,
      "hit": false,
      "t": 138215,
      "d": 305,
      "v": 84
    },
    {
      "midi": 91,
      "hit": false,
      "t": 138240,
      "d": 60,
      "v": 111
    },
    {
      "midi": 55,
      "hit": false,
      "t": 138487.5,
      "d": 242.5,
      "v": 84
    },
    {
      "midi": 91,
      "hit": false,
      "t": 138720,
      "d": 60,
      "v": 106
    },
    {
      "midi": 43,
      "hit": false,
      "t": 138742.5,
      "d": 305,
      "v": 84
    },
    {
      "midi": 55,
      "hit": false,
      "t": 138995,
      "d": 270,
      "v": 84
    },
    {
      "midi": 91,
      "hit": false,
      "t": 139142.5,
      "d": 60,
      "v": 102
    },
    {
      "midi": 43,
      "hit": false,
      "t": 139242.5,
      "d": 257.5,
      "v": 84
    },
    {
      "midi": 55,
      "hit": false,
      "t": 139462.5,
      "d": 270,
      "v": 84
    },
    {
      "midi": 91,
      "hit": false,
      "t": 139680,
      "d": 60,
      "v": 100
    },
    {
      "midi": 43,
      "hit": false,
      "t": 139705,
      "d": 272.5,
      "v": 84
    },
    {
      "midi": 55,
      "hit": false,
      "t": 139920,
      "d": 252.5,
      "v": 84
    },
    {
      "midi": 43,
      "hit": false,
      "t": 140155,
      "d": 202.5,
      "v": 84
    },
    {
      "midi": 79,
      "hit": false,
      "t": 140160,
      "d": 3840,
      "v": 60
    },
    {
      "midi": 91,
      "hit": false,
      "t": 140160,
      "d": 227.5,
      "v": 100
    },
    {
      "midi": 71,
      "hit": false,
      "t": 140162.5,
      "d": 337.5,
      "v": 108
    },
    {
      "midi": 55,
      "hit": false,
      "t": 140377.5,
      "d": 255,
      "v": 84
    },
    {
      "midi": 43,
      "hit": false,
      "t": 140612.5,
      "d": 272.5,
      "v": 84
    },
    {
      "midi": 71,
      "hit": false,
      "t": 140627.5,
      "d": 430,
      "v": 93
    },
    {
      "midi": 91,
      "hit": false,
      "t": 140640,
      "d": 252.5,
      "v": 100
    },
    {
      "midi": 55,
      "hit": false,
      "t": 140855,
      "d": 260,
      "v": 84
    },
    {
      "midi": 72,
      "hit": false,
      "t": 141102.5,
      "d": 805,
      "v": 87
    },
    {
      "midi": 36,
      "hit": false,
      "t": 141107.5,
      "d": 267.5,
      "v": 84
    },
    {
      "midi": 91,
      "hit": false,
      "t": 141120,
      "d": 232.5,
      "v": 100
    },
    {
      "midi": 48,
      "hit": false,
      "t": 141352.5,
      "d": 227.5,
      "v": 84
    },
    {
      "midi": 36,
      "hit": false,
      "t": 141575,
      "d": 270,
      "v": 84
    },
    {
      "midi": 91,
      "hit": false,
      "t": 141600,
      "d": 197.5,
      "v": 100
    },
    {
      "midi": 48,
      "hit": false,
      "t": 141820,
      "d": 230,
      "v": 84
    },
    {
      "midi": 71,
      "hit": false,
      "t": 141867.5,
      "d": 237.5,
      "v": 79
    },
    {
      "midi": 38,
      "hit": false,
      "t": 142055,
      "d": 255,
      "v": 84
    },
    {
      "midi": 91,
      "hit": false,
      "t": 142080,
      "d": 147.5,
      "v": 100
    },
    {
      "midi": 69,
      "hit": false,
      "t": 142100,
      "d": 370,
      "v": 102
    },
    {
      "midi": 50,
      "hit": false,
      "t": 142292.5,
      "d": 220,
      "v": 84
    },
    {
      "midi": 38,
      "hit": false,
      "t": 142527.5,
      "d": 250,
      "v": 84
    },
    {
      "midi": 69,
      "hit": false,
      "t": 142557.5,
      "d": 497.5,
      "v": 93
    },
    {
      "midi": 91,
      "hit": false,
      "t": 142560,
      "d": 142.5,
      "v": 100
    },
    {
      "midi": 50,
      "hit": false,
      "t": 142757.5,
      "d": 272.5,
      "v": 84
    },
    {
      "midi": 43,
      "hit": false,
      "t": 143017.5,
      "d": 292.5,
      "v": 84
    },
    {
      "midi": 71,
      "hit": false,
      "t": 143037.5,
      "d": 732.5,
      "v": 100
    },
    {
      "midi": 91,
      "hit": false,
      "t": 143040,
      "d": 165,
      "v": 100
    },
    {
      "midi": 55,
      "hit": false,
      "t": 143260,
      "d": 250,
      "v": 84
    },
    {
      "midi": 43,
      "hit": false,
      "t": 143495,
      "d": 282.5,
      "v": 84
    },
    {
      "midi": 91,
      "hit": false,
      "t": 143520,
      "d": 180,
      "v": 100
    },
    {
      "midi": 55,
      "hit": false,
      "t": 143737.5,
      "d": 262.5,
      "v": 84
    },
    {
      "midi": 69,
      "hit": false,
      "t": 143762.5,
      "d": 240,
      "v": 77
    },
    {
      "midi": 40,
      "hit": false,
      "t": 143985,
      "d": 247.5,
      "v": 84
    },
    {
      "midi": 76,
      "hit": false,
      "t": 144000,
      "d": 1920,
      "v": 60
    },
    {
      "midi": 67,
      "hit": false,
      "t": 144007.5,
      "d": 387.5,
      "v": 99
    },
    {
      "midi": 52,
      "hit": false,
      "t": 144205,
      "d": 260,
      "v": 84
    },
    {
      "midi": 40,
      "hit": false,
      "t": 144445,
      "d": 242.5,
      "v": 84
    },
    {
      "midi": 67,
      "hit": false,
      "t": 144480,
      "d": 450,
      "v": 104
    },
    {
      "midi": 52,
      "hit": false,
      "t": 144677.5,
      "d": 280,
      "v": 84
    },
    {
      "midi": 36,
      "hit": false,
      "t": 144942.5,
      "d": 282.5,
      "v": 84
    },
    {
      "midi": 69,
      "hit": false,
      "t": 144945,
      "d": 725,
      "v": 100
    },
    {
      "midi": 48,
      "hit": false,
      "t": 145190,
      "d": 250,
      "v": 84
    },
    {
      "midi": 36,
      "hit": false,
      "t": 145437.5,
      "d": 272.5,
      "v": 84
    },
    {
      "midi": 48,
      "hit": false,
      "t": 145655,
      "d": 242.5,
      "v": 84
    },
    {
      "midi": 67,
      "hit": false,
      "t": 145690,
      "d": 270,
      "v": 84
    },
    {
      "midi": 38,
      "hit": false,
      "t": 145902.5,
      "d": 320,
      "v": 84
    },
    {
      "midi": 74,
      "hit": false,
      "t": 145920,
      "d": 1920,
      "v": 60
    },
    {
      "midi": 66,
      "hit": false,
      "t": 145935,
      "d": 1265,
      "v": 112
    },
    {
      "midi": 50,
      "hit": false,
      "t": 146155,
      "d": 255,
      "v": 84
    },
    {
      "midi": 38,
      "hit": false,
      "t": 146400,
      "d": 262.5,
      "v": 84
    },
    {
      "midi": 50,
      "hit": false,
      "t": 146635,
      "d": 255,
      "v": 84
    },
    {
      "midi": 38,
      "hit": false,
      "t": 146865,
      "d": 297.5,
      "v": 84
    },
    {
      "midi": 50,
      "hit": false,
      "t": 147115,
      "d": 262.5,
      "v": 84
    },
    {
      "midi": 38,
      "hit": false,
      "t": 147345,
      "d": 272.5,
      "v": 84
    },
    {
      "midi": 64,
      "hit": false,
      "t": 147585,
      "d": 312.5,
      "v": 90
    },
    {
      "midi": 50,
      "hit": false,
      "t": 147597.5,
      "d": 172.5,
      "v": 84
    },
    {
      "midi": 43,
      "hit": false,
      "t": 147835,
      "d": 245,
      "v": 84
    },
    {
      "midi": 79,
      "hit": false,
      "t": 147840,
      "d": 4800,
      "v": 60
    },
    {
      "midi": 62,
      "hit": false,
      "t": 147855,
      "d": 465,
      "v": 109
    },
    {
      "midi": 55,
      "hit": false,
      "t": 148065,
      "d": 255,
      "v": 84
    },
    {
      "midi": 43,
      "hit": false,
      "t": 148295,
      "d": 280,
      "v": 84
    },
    {
      "midi": 71,
      "hit": false,
      "t": 148320,
      "d": 457.5,
      "v": 89
    },
    {
      "midi": 55,
      "hit": false,
      "t": 148537.5,
      "d": 277.5,
      "v": 84
    },
    {
      "midi": 69,
      "hit": false,
      "t": 148767.5,
      "d": 785,
      "v": 93
    },
    {
      "midi": 43,
      "hit": false,
      "t": 148805,
      "d": 257.5,
      "v": 84
    },
    {
      "midi": 55,
      "hit": false,
      "t": 149027.5,
      "d": 252.5,
      "v": 84
    },
    {
      "midi": 43,
      "hit": false,
      "t": 149275,
      "d": 175,
      "v": 84
    },
    {
      "midi": 55,
      "hit": false,
      "t": 149477.5,
      "d": 277.5,
      "v": 84
    },
    {
      "midi": 67,
      "hit": false,
      "t": 149510,
      "d": 267.5,
      "v": 91
    },
    {
      "midi": 36,
      "hit": false,
      "t": 149732.5,
      "d": 295,
      "v": 84
    },
    {
      "midi": 64,
      "hit": false,
      "t": 149755,
      "d": 465,
      "v": 115
    },
    {
      "midi": 48,
      "hit": false,
      "t": 149977.5,
      "d": 270,
      "v": 84
    },
    {
      "midi": 36,
      "hit": false,
      "t": 150230,
      "d": 270,
      "v": 84
    },
    {
      "midi": 60,
      "hit": false,
      "t": 150230,
      "d": 290,
      "v": 81
    },
    {
      "midi": 48,
      "hit": false,
      "t": 150470,
      "d": 272.5,
      "v": 84
    },
    {
      "midi": 57,
      "hit": false,
      "t": 150485,
      "d": 685,
      "v": 86
    },
    {
      "midi": 36,
      "hit": false,
      "t": 150727.5,
      "d": 270,
      "v": 84
    },
    {
      "midi": 48,
      "hit": false,
      "t": 150955,
      "d": 262.5,
      "v": 84
    },
    {
      "midi": 36,
      "hit": false,
      "t": 151210,
      "d": 210,
      "v": 84
    },
    {
      "midi": 48,
      "hit": false,
      "t": 151420,
      "d": 272.5,
      "v": 84
    },
    {
      "midi": 64,
      "hit": false,
      "t": 151440,
      "d": 270,
      "v": 90
    },
    {
      "midi": 43,
      "hit": false,
      "t": 151670,
      "d": 345,
      "v": 84
    },
    {
      "midi": 62,
      "hit": false,
      "t": 151695,
      "d": 717.5,
      "v": 113
    },
    {
      "midi": 55,
      "hit": false,
      "t": 151947.5,
      "d": 205,
      "v": 84
    },
    {
      "midi": 43,
      "hit": false,
      "t": 152175,
      "d": 217.5,
      "v": 84
    },
    {
      "midi": 55,
      "hit": false,
      "t": 152377.5,
      "d": 252.5,
      "v": 84
    },
    {
      "midi": 67,
      "hit": false,
      "t": 152390,
      "d": 305,
      "v": 76
    },
    {
      "midi": 50,
      "hit": false,
      "t": 152622.5,
      "d": 292.5,
      "v": 84
    },
    {
      "midi": 86,
      "hit": false,
      "t": 152640,
      "d": 960,
      "v": 60
    },
    {
      "midi": 66,
      "hit": false,
      "t": 152662.5,
      "d": 507.5,
      "v": 104
    },
    {
      "midi": 62,
      "hit": false,
      "t": 152870,
      "d": 220,
      "v": 84
    },
    {
      "midi": 50,
      "hit": false,
      "t": 153087.5,
      "d": 280,
      "v": 84
    },
    {
      "midi": 69,
      "hit": false,
      "t": 153135,
      "d": 505,
      "v": 90
    },
    {
      "midi": 62,
      "hit": false,
      "t": 153332.5,
      "d": 275,
      "v": 84
    },
    {
      "midi": 79,
      "hit": false,
      "t": 153600,
      "d": 1920,
      "v": 60
    },
    {
      "midi": 43,
      "hit": false,
      "t": 153600,
      "d": 277.5,
      "v": 84
    },
    {
      "midi": 67,
      "hit": false,
      "t": 153607.5,
      "d": 1245,
      "v": 119
    },
    {
      "midi": 55,
      "hit": false,
      "t": 153820,
      "d": 235,
      "v": 84
    },
    {
      "midi": 43,
      "hit": false,
      "t": 154070,
      "d": 300,
      "v": 84
    },
    {
      "midi": 55,
      "hit": false,
      "t": 154320,
      "d": 262.5,
      "v": 84
    },
    {
      "midi": 43,
      "hit": false,
      "t": 154572.5,
      "d": 275,
      "v": 84
    },
    {
      "midi": 55,
      "hit": false,
      "t": 154802.5,
      "d": 262.5,
      "v": 84
    },
    {
      "midi": 43,
      "hit": false,
      "t": 155052.5,
      "d": 267.5,
      "v": 84
    },
    {
      "midi": 57,
      "hit": false,
      "t": 155265,
      "d": 265,
      "v": 86
    },
    {
      "midi": 55,
      "hit": false,
      "t": 155282.5,
      "d": 160,
      "v": 84
    },
    {
      "midi": 69,
      "hit": false,
      "t": 155485,
      "d": 197.5,
      "v": 72
    },
    {
      "midi": 81,
      "hit": false,
      "t": 157440,
      "d": 102.5,
      "v": 60
    },
    {
      "midi": 41,
      "hit": false,
      "t": 157440,
      "d": 120,
      "v": 100
    },
    {
      "midi": 81,
      "hit": false,
      "t": 157672.5,
      "d": 92.5,
      "v": 60
    },
    {
      "midi": 81,
      "hit": false,
      "t": 157897.5,
      "d": 297.5,
      "v": 60
    },
    {
      "midi": 41,
      "hit": false,
      "t": 157920,
      "d": 120,
      "v": 100
    },
    {
      "midi": 81,
      "hit": false,
      "t": 158370,
      "d": 107.5,
      "v": 60
    },
    {
      "midi": 41,
      "hit": false,
      "t": 158400,
      "d": 120,
      "v": 100
    },
    {
      "midi": 81,
      "hit": false,
      "t": 158610,
      "d": 105,
      "v": 60
    },
    {
      "midi": 81,
      "hit": false,
      "t": 158852.5,
      "d": 305,
      "v": 60
    },
    {
      "midi": 41,
      "hit": false,
      "t": 158880,
      "d": 120,
      "v": 100
    },
    {
      "midi": 81,
      "hit": false,
      "t": 159342.5,
      "d": 215,
      "v": 61
    },
    {
      "midi": 41,
      "hit": false,
      "t": 159360,
      "d": 120,
      "v": 100
    },
    {
      "midi": 84,
      "hit": false,
      "t": 159592.5,
      "d": 230,
      "v": 61
    },
    {
      "midi": 46,
      "hit": false,
      "t": 159840,
      "d": 120,
      "v": 100
    },
    {
      "midi": 77,
      "hit": false,
      "t": 159860,
      "d": 290,
      "v": 61
    },
    {
      "midi": 79,
      "hit": false,
      "t": 160190,
      "d": 110,
      "v": 61
    },
    {
      "midi": 81,
      "hit": false,
      "t": 160307.5,
      "d": 785,
      "v": 61
    },
    {
      "midi": 41,
      "hit": false,
      "t": 160320,
      "d": 120,
      "v": 100
    },
    {
      "midi": 41,
      "hit": false,
      "t": 160800,
      "d": 120,
      "v": 100
    },
    {
      "midi": 82,
      "hit": false,
      "t": 161272.5,
      "d": 145,
      "v": 62
    },
    {
      "midi": 46,
      "hit": false,
      "t": 161280,
      "d": 120,
      "v": 100
    },
    {
      "midi": 82,
      "hit": false,
      "t": 161520,
      "d": 130,
      "v": 62
    },
    {
      "midi": 82,
      "hit": false,
      "t": 161747.5,
      "d": 260,
      "v": 62
    },
    {
      "midi": 46,
      "hit": false,
      "t": 161760,
      "d": 120,
      "v": 100
    },
    {
      "midi": 82,
      "hit": false,
      "t": 162122.5,
      "d": 60,
      "v": 63
    },
    {
      "midi": 41,
      "hit": false,
      "t": 162240,
      "d": 120,
      "v": 100
    },
    {
      "midi": 82,
      "hit": false,
      "t": 162252.5,
      "d": 147.5,
      "v": 63
    },
    {
      "midi": 81,
      "hit": false,
      "t": 162480,
      "d": 112.5,
      "v": 63
    },
    {
      "midi": 81,
      "hit": false,
      "t": 162710,
      "d": 205,
      "v": 63
    },
    {
      "midi": 41,
      "hit": false,
      "t": 162720,
      "d": 120,
      "v": 100
    },
    {
      "midi": 81,
      "hit": false,
      "t": 163000,
      "d": 60,
      "v": 63
    },
    {
      "midi": 81,
      "hit": false,
      "t": 163112.5,
      "d": 67.5,
      "v": 63
    },
    {
      "midi": 43,
      "hit": false,
      "t": 163200,
      "d": 120,
      "v": 100
    },
    {
      "midi": 81,
      "hit": false,
      "t": 163227.5,
      "d": 182.5,
      "v": 63
    },
    {
      "midi": 79,
      "hit": false,
      "t": 163440,
      "d": 137.5,
      "v": 63
    },
    {
      "midi": 79,
      "hit": false,
      "t": 163667.5,
      "d": 212.5,
      "v": 64
    },
    {
      "midi": 43,
      "hit": false,
      "t": 163680,
      "d": 120,
      "v": 100
    },
    {
      "midi": 81,
      "hit": false,
      "t": 163900,
      "d": 215,
      "v": 64
    },
    {
      "midi": 79,
      "hit": false,
      "t": 164130,
      "d": 675,
      "v": 64
    },
    {
      "midi": 43,
      "hit": false,
      "t": 164160,
      "d": 120,
      "v": 100
    },
    {
      "midi": 84,
      "hit": false,
      "t": 164590,
      "d": 447.5,
      "v": 64
    },
    {
      "midi": 36,
      "hit": false,
      "t": 164640,
      "d": 120,
      "v": 100
    },
    {
      "midi": 81,
      "hit": false,
      "t": 165075,
      "d": 115,
      "v": 64
    },
    {
      "midi": 41,
      "hit": false,
      "t": 165120,
      "d": 120,
      "v": 100
    },
    {
      "midi": 81,
      "hit": false,
      "t": 165312.5,
      "d": 120,
      "v": 65
    },
    {
      "midi": 81,
      "hit": false,
      "t": 165550,
      "d": 365,
      "v": 65
    },
    {
      "midi": 41,
      "hit": false,
      "t": 165600,
      "d": 120,
      "v": 100
    },
    {
      "midi": 81,
      "hit": false,
      "t": 166075,
      "d": 112.5,
      "v": 65
    },
    {
      "midi": 41,
      "hit": false,
      "t": 166080,
      "d": 120,
      "v": 100
    },
    {
      "midi": 81,
      "hit": false,
      "t": 166297.5,
      "d": 142.5,
      "v": 65
    },
    {
      "midi": 81,
      "hit": false,
      "t": 166542.5,
      "d": 347.5,
      "v": 65
    },
    {
      "midi": 41,
      "hit": false,
      "t": 166560,
      "d": 120,
      "v": 100
    },
    {
      "midi": 81,
      "hit": false,
      "t": 167027.5,
      "d": 200,
      "v": 66
    },
    {
      "midi": 41,
      "hit": false,
      "t": 167040,
      "d": 120,
      "v": 100
    },
    {
      "midi": 84,
      "hit": false,
      "t": 167265,
      "d": 222.5,
      "v": 66
    },
    {
      "midi": 77,
      "hit": false,
      "t": 167510,
      "d": 312.5,
      "v": 66
    },
    {
      "midi": 46,
      "hit": false,
      "t": 167520,
      "d": 120,
      "v": 100
    },
    {
      "midi": 79,
      "hit": false,
      "t": 167852.5,
      "d": 117.5,
      "v": 66
    },
    {
      "midi": 81,
      "hit": false,
      "t": 167985,
      "d": 787.5,
      "v": 66
    },
    {
      "midi": 41,
      "hit": false,
      "t": 168000,
      "d": 120,
      "v": 100
    },
    {
      "midi": 41,
      "hit": false,
      "t": 168480,
      "d": 120,
      "v": 100
    },
    {
      "midi": 82,
      "hit": false,
      "t": 168905,
      "d": 185,
      "v": 67
    },
    {
      "midi": 46,
      "hit": false,
      "t": 168960,
      "d": 120,
      "v": 100
    },
    {
      "midi": 82,
      "hit": false,
      "t": 169167.5,
      "d": 160,
      "v": 67
    },
    {
      "midi": 82,
      "hit": false,
      "t": 169417.5,
      "d": 302.5,
      "v": 67
    },
    {
      "midi": 46,
      "hit": false,
      "t": 169440,
      "d": 120,
      "v": 100
    },
    {
      "midi": 82,
      "hit": false,
      "t": 169792.5,
      "d": 97.5,
      "v": 68
    },
    {
      "midi": 82,
      "hit": false,
      "t": 169917.5,
      "d": 202.5,
      "v": 68
    },
    {
      "midi": 41,
      "hit": false,
      "t": 169920,
      "d": 120,
      "v": 100
    },
    {
      "midi": 81,
      "hit": false,
      "t": 170130,
      "d": 100,
      "v": 68
    },
    {
      "midi": 81,
      "hit": false,
      "t": 170382.5,
      "d": 120,
      "v": 68
    },
    {
      "midi": 41,
      "hit": false,
      "t": 170400,
      "d": 120,
      "v": 100
    },
    {
      "midi": 81,
      "hit": false,
      "t": 170605,
      "d": 60,
      "v": 68
    },
    {
      "midi": 81,
      "hit": false,
      "t": 170725,
      "d": 87.5,
      "v": 68
    },
    {
      "midi": 36,
      "hit": false,
      "t": 170880,
      "d": 120,
      "v": 100
    },
    {
      "midi": 84,
      "hit": false,
      "t": 170887.5,
      "d": 112.5,
      "v": 68
    },
    {
      "midi": 84,
      "hit": false,
      "t": 171102.5,
      "d": 220,
      "v": 68
    },
    {
      "midi": 81,
      "hit": false,
      "t": 171332.5,
      "d": 185,
      "v": 69
    },
    {
      "midi": 36,
      "hit": false,
      "t": 171360,
      "d": 120,
      "v": 100
    },
    {
      "midi": 79,
      "hit": false,
      "t": 171560,
      "d": 195,
      "v": 69
    },
    {
      "midi": 77,
      "hit": false,
      "t": 171800,
      "d": 282.5,
      "v": 69
    },
    {
      "midi": 41,
      "hit": false,
      "t": 171840,
      "d": 120,
      "v": 100
    },
    {
      "midi": 41,
      "hit": false,
      "t": 172320,
      "d": 120,
      "v": 100
    },
    {
      "midi": 69,
      "hit": false,
      "t": 172790,
      "d": 160,
      "v": 74
    },
    {
      "midi": 57,
      "hit": false,
      "t": 173480,
      "d": 192.5,
      "v": 92
    },
    {
      "midi": 69,
      "hit": false,
      "t": 173740,
      "d": 200,
      "v": 68
    },
    {
      "midi": 57,
      "hit": false,
      "t": 173820,
      "d": 67.5,
      "v": 64
    },
    {
      "midi": 69,
      "hit": false,
      "t": 174652.5,
      "d": 132.5,
      "v": 68
    },
    {
      "midi": 57,
      "hit": false,
      "t": 174760,
      "d": 125,
      "v": 78
    },
    {
      "midi": 60,
      "hit": false,
      "t": 176157.5,
      "d": 197.5,
      "v": 113
    },
    {
      "midi": 60,
      "hit": false,
      "t": 176535,
      "d": 107.5,
      "v": 105
    },
    {
      "midi": 53,
      "hit": false,
      "t": 176640,
      "d": 240,
      "v": 45
    },
    {
      "midi": 65,
      "hit": false,
      "t": 176640,
      "d": 240,
      "v": 45
    },
    {
      "midi": 41,
      "hit": false,
      "t": 176640,
      "d": 117.5,
      "v": 95
    },
    {
      "midi": 72,
      "hit": false,
      "t": 176670,
      "d": 117.5,
      "v": 117
    },
    {
      "midi": 41,
      "hit": false,
      "t": 176760,
      "d": 117.5,
      "v": 95
    },
    {
      "midi": 53,
      "hit": false,
      "t": 176880,
      "d": 117.5,
      "v": 95
    },
    {
      "midi": 72,
      "hit": false,
      "t": 176887.5,
      "d": 225,
      "v": 101
    },
    {
      "midi": 53,
      "hit": false,
      "t": 177000,
      "d": 117.5,
      "v": 95
    },
    {
      "midi": 41,
      "hit": false,
      "t": 177120,
      "d": 117.5,
      "v": 95
    },
    {
      "midi": 70,
      "hit": false,
      "t": 177132.5,
      "d": 392.5,
      "v": 115
    },
    {
      "midi": 41,
      "hit": false,
      "t": 177240,
      "d": 117.5,
      "v": 95
    },
    {
      "midi": 53,
      "hit": false,
      "t": 177360,
      "d": 117.5,
      "v": 95
    },
    {
      "midi": 53,
      "hit": false,
      "t": 177480,
      "d": 117.5,
      "v": 95
    },
    {
      "midi": 69,
      "hit": false,
      "t": 177590,
      "d": 732.5,
      "v": 112
    },
    {
      "midi": 41,
      "hit": false,
      "t": 177600,
      "d": 117.5,
      "v": 95
    },
    {
      "midi": 41,
      "hit": false,
      "t": 177720,
      "d": 117.5,
      "v": 95
    },
    {
      "midi": 53,
      "hit": false,
      "t": 177840,
      "d": 117.5,
      "v": 95
    },
    {
      "midi": 53,
      "hit": false,
      "t": 177960,
      "d": 117.5,
      "v": 95
    },
    {
      "midi": 41,
      "hit": false,
      "t": 178080,
      "d": 117.5,
      "v": 95
    },
    {
      "midi": 41,
      "hit": false,
      "t": 178200,
      "d": 117.5,
      "v": 95
    },
    {
      "midi": 53,
      "hit": false,
      "t": 178320,
      "d": 117.5,
      "v": 95
    },
    {
      "midi": 67,
      "hit": false,
      "t": 178330,
      "d": 220,
      "v": 102
    },
    {
      "midi": 53,
      "hit": false,
      "t": 178440,
      "d": 117.5,
      "v": 95
    },
    {
      "midi": 53,
      "hit": false,
      "t": 178560,
      "d": 240,
      "v": 45
    },
    {
      "midi": 65,
      "hit": false,
      "t": 178560,
      "d": 240,
      "v": 45
    },
    {
      "midi": 41,
      "hit": false,
      "t": 178560,
      "d": 117.5,
      "v": 95
    },
    {
      "midi": 65,
      "hit": false,
      "t": 178565,
      "d": 190,
      "v": 118
    },
    {
      "midi": 41,
      "hit": false,
      "t": 178680,
      "d": 117.5,
      "v": 95
    },
    {
      "midi": 53,
      "hit": false,
      "t": 178800,
      "d": 117.5,
      "v": 95
    },
    {
      "midi": 60,
      "hit": false,
      "t": 178820,
      "d": 432.5,
      "v": 105
    },
    {
      "midi": 53,
      "hit": false,
      "t": 178920,
      "d": 117.5,
      "v": 95
    },
    {
      "midi": 41,
      "hit": false,
      "t": 179040,
      "d": 117.5,
      "v": 95
    },
    {
      "midi": 41,
      "hit": false,
      "t": 179160,
      "d": 117.5,
      "v": 95
    },
    {
      "midi": 53,
      "hit": false,
      "t": 179280,
      "d": 117.5,
      "v": 95
    },
    {
      "midi": 53,
      "hit": false,
      "t": 179400,
      "d": 117.5,
      "v": 95
    },
    {
      "midi": 41,
      "hit": false,
      "t": 179520,
      "d": 117.5,
      "v": 95
    },
    {
      "midi": 41,
      "hit": false,
      "t": 179640,
      "d": 117.5,
      "v": 95
    },
    {
      "midi": 53,
      "hit": false,
      "t": 179760,
      "d": 117.5,
      "v": 95
    },
    {
      "midi": 53,
      "hit": false,
      "t": 179880,
      "d": 117.5,
      "v": 95
    },
    {
      "midi": 60,
      "hit": false,
      "t": 179972.5,
      "d": 132.5,
      "v": 113
    },
    {
      "midi": 41,
      "hit": false,
      "t": 180000,
      "d": 117.5,
      "v": 95
    },
    {
      "midi": 41,
      "hit": false,
      "t": 180120,
      "d": 117.5,
      "v": 95
    },
    {
      "midi": 53,
      "hit": false,
      "t": 180240,
      "d": 117.5,
      "v": 95
    },
    {
      "midi": 60,
      "hit": false,
      "t": 180345,
      "d": 105,
      "v": 105
    },
    {
      "midi": 53,
      "hit": false,
      "t": 180360,
      "d": 117.5,
      "v": 95
    },
    {
      "midi": 81,
      "hit": false,
      "t": 180437.5,
      "d": 955,
      "v": 45
    },
    {
      "midi": 65,
      "hit": false,
      "t": 180455,
      "d": 950,
      "v": 117
    },
    {
      "midi": 45,
      "hit": false,
      "t": 180480,
      "d": 240,
      "v": 45
    },
    {
      "midi": 57,
      "hit": false,
      "t": 180480,
      "d": 240,
      "v": 45
    },
    {
      "midi": 45,
      "hit": false,
      "t": 180480,
      "d": 117.5,
      "v": 95
    },
    {
      "midi": 45,
      "hit": false,
      "t": 180600,
      "d": 117.5,
      "v": 95
    },
    {
      "midi": 57,
      "hit": false,
      "t": 180720,
      "d": 117.5,
      "v": 95
    },
    {
      "midi": 57,
      "hit": false,
      "t": 180840,
      "d": 117.5,
      "v": 95
    },
    {
      "midi": 45,
      "hit": false,
      "t": 180960,
      "d": 117.5,
      "v": 95
    },
    {
      "midi": 45,
      "hit": false,
      "t": 181080,
      "d": 117.5,
      "v": 95
    },
    {
      "midi": 57,
      "hit": false,
      "t": 181200,
      "d": 117.5,
      "v": 95
    },
    {
      "midi": 57,
      "hit": false,
      "t": 181320,
      "d": 117.5,
      "v": 95
    },
    {
      "midi": 82,
      "hit": false,
      "t": 181357.5,
      "d": 957.5,
      "v": 45
    },
    {
      "midi": 67,
      "hit": false,
      "t": 181420,
      "d": 780,
      "v": 115
    },
    {
      "midi": 46,
      "hit": false,
      "t": 181440,
      "d": 240,
      "v": 45
    },
    {
      "midi": 58,
      "hit": false,
      "t": 181440,
      "d": 240,
      "v": 45
    },
    {
      "midi": 45,
      "hit": false,
      "t": 181440,
      "d": 117.5,
      "v": 95
    },
    {
      "midi": 45,
      "hit": false,
      "t": 181560,
      "d": 117.5,
      "v": 95
    },
    {
      "midi": 57,
      "hit": false,
      "t": 181680,
      "d": 117.5,
      "v": 95
    },
    {
      "midi": 57,
      "hit": false,
      "t": 181800,
      "d": 117.5,
      "v": 95
    },
    {
      "midi": 45,
      "hit": false,
      "t": 181920,
      "d": 117.5,
      "v": 95
    },
    {
      "midi": 45,
      "hit": false,
      "t": 182040,
      "d": 117.5,
      "v": 95
    },
    {
      "midi": 57,
      "hit": false,
      "t": 182160,
      "d": 117.5,
      "v": 95
    },
    {
      "midi": 65,
      "hit": false,
      "t": 182195,
      "d": 197.5,
      "v": 103
    },
    {
      "midi": 57,
      "hit": false,
      "t": 182280,
      "d": 117.5,
      "v": 95
    },
    {
      "midi": 84,
      "hit": false,
      "t": 182302.5,
      "d": 1972.5,
      "v": 45
    },
    {
      "midi": 64,
      "hit": false,
      "t": 182380,
      "d": 240,
      "v": 117
    },
    {
      "midi": 48,
      "hit": false,
      "t": 182400,
      "d": 240,
      "v": 45
    },
    {
      "midi": 60,
      "hit": false,
      "t": 182400,
      "d": 240,
      "v": 45
    },
    {
      "midi": 36,
      "hit": false,
      "t": 182400,
      "d": 117.5,
      "v": 95
    },
    {
      "midi": 36,
      "hit": false,
      "t": 182520,
      "d": 117.5,
      "v": 95
    },
    {
      "midi": 48,
      "hit": false,
      "t": 182640,
      "d": 117.5,
      "v": 95
    },
    {
      "midi": 60,
      "hit": false,
      "t": 182647.5,
      "d": 347.5,
      "v": 101
    },
    {
      "midi": 48,
      "hit": false,
      "t": 182760,
      "d": 117.5,
      "v": 95
    },
    {
      "midi": 36,
      "hit": false,
      "t": 182880,
      "d": 117.5,
      "v": 95
    },
    {
      "midi": 36,
      "hit": false,
      "t": 183000,
      "d": 117.5,
      "v": 95
    },
    {
      "midi": 48,
      "hit": false,
      "t": 183120,
      "d": 117.5,
      "v": 95
    },
    {
      "midi": 48,
      "hit": false,
      "t": 183240,
      "d": 117.5,
      "v": 95
    },
    {
      "midi": 36,
      "hit": false,
      "t": 183360,
      "d": 117.5,
      "v": 95
    },
    {
      "midi": 36,
      "hit": false,
      "t": 183480,
      "d": 117.5,
      "v": 95
    },
    {
      "midi": 48,
      "hit": false,
      "t": 183600,
      "d": 117.5,
      "v": 95
    },
    {
      "midi": 48,
      "hit": false,
      "t": 183720,
      "d": 117.5,
      "v": 95
    },
    {
      "midi": 36,
      "hit": false,
      "t": 183840,
      "d": 117.5,
      "v": 95
    },
    {
      "midi": 36,
      "hit": false,
      "t": 183960,
      "d": 117.5,
      "v": 95
    },
    {
      "midi": 48,
      "hit": false,
      "t": 184080,
      "d": 117.5,
      "v": 95
    },
    {
      "midi": 62,
      "hit": false,
      "t": 184087.5,
      "d": 215,
      "v": 102
    },
    {
      "midi": 48,
      "hit": false,
      "t": 184200,
      "d": 117.5,
      "v": 95
    },
    {
      "midi": 79,
      "hit": false,
      "t": 184285,
      "d": 5645,
      "v": 45
    },
    {
      "midi": 74,
      "hit": false,
      "t": 184315,
      "d": 165,
      "v": 118
    },
    {
      "midi": 55,
      "hit": false,
      "t": 184320,
      "d": 240,
      "v": 45
    },
    {
      "midi": 67,
      "hit": false,
      "t": 184320,
      "d": 240,
      "v": 45
    },
    {
      "midi": 43,
      "hit": false,
      "t": 184320,
      "d": 117.5,
      "v": 95
    },
    {
      "midi": 43,
      "hit": false,
      "t": 184440,
      "d": 117.5,
      "v": 95
    },
    {
      "midi": 55,
      "hit": false,
      "t": 184560,
      "d": 117.5,
      "v": 95
    },
    {
      "midi": 74,
      "hit": false,
      "t": 184645,
      "d": 205,
      "v": 99
    },
    {
      "midi": 55,
      "hit": false,
      "t": 184680,
      "d": 117.5,
      "v": 95
    },
    {
      "midi": 72,
      "hit": false,
      "t": 184790,
      "d": 530,
      "v": 115
    },
    {
      "midi": 43,
      "hit": false,
      "t": 184800,
      "d": 117.5,
      "v": 95
    },
    {
      "midi": 43,
      "hit": false,
      "t": 184920,
      "d": 117.5,
      "v": 95
    },
    {
      "midi": 55,
      "hit": false,
      "t": 185040,
      "d": 117.5,
      "v": 95
    },
    {
      "midi": 55,
      "hit": false,
      "t": 185160,
      "d": 117.5,
      "v": 95
    },
    {
      "midi": 50,
      "hit": false,
      "t": 185280,
      "d": 117.5,
      "v": 95
    },
    {
      "midi": 70,
      "hit": false,
      "t": 185280,
      "d": 462.5,
      "v": 115
    },
    {
      "midi": 50,
      "hit": false,
      "t": 185400,
      "d": 117.5,
      "v": 95
    },
    {
      "midi": 62,
      "hit": false,
      "t": 185520,
      "d": 117.5,
      "v": 95
    },
    {
      "midi": 62,
      "hit": false,
      "t": 185640,
      "d": 117.5,
      "v": 95
    },
    {
      "midi": 69,
      "hit": false,
      "t": 185742.5,
      "d": 277.5,
      "v": 113
    },
    {
      "midi": 50,
      "hit": false,
      "t": 185760,
      "d": 117.5,
      "v": 95
    },
    {
      "midi": 50,
      "hit": false,
      "t": 185880,
      "d": 117.5,
      "v": 95
    },
    {
      "midi": 62,
      "hit": false,
      "t": 186000,
      "d": 117.5,
      "v": 95
    },
    {
      "midi": 67,
      "hit": false,
      "t": 186010,
      "d": 822.5,
      "v": 103
    },
    {
      "midi": 62,
      "hit": false,
      "t": 186120,
      "d": 117.5,
      "v": 95
    },
    {
      "midi": 55,
      "hit": false,
      "t": 186240,
      "d": 240,
      "v": 45
    },
    {
      "midi": 67,
      "hit": false,
      "t": 186240,
      "d": 240,
      "v": 45
    },
    {
      "midi": 43,
      "hit": false,
      "t": 186240,
      "d": 117.5,
      "v": 95
    },
    {
      "midi": 43,
      "hit": false,
      "t": 186360,
      "d": 117.5,
      "v": 95
    },
    {
      "midi": 55,
      "hit": false,
      "t": 186480,
      "d": 117.5,
      "v": 95
    },
    {
      "midi": 55,
      "hit": false,
      "t": 186600,
      "d": 117.5,
      "v": 95
    },
    {
      "midi": 43,
      "hit": false,
      "t": 186720,
      "d": 117.5,
      "v": 95
    },
    {
      "midi": 43,
      "hit": false,
      "t": 186840,
      "d": 117.5,
      "v": 95
    },
    {
      "midi": 55,
      "hit": false,
      "t": 186960,
      "d": 117.5,
      "v": 95
    },
    {
      "midi": 55,
      "hit": false,
      "t": 187080,
      "d": 117.5,
      "v": 95
    },
    {
      "midi": 43,
      "hit": false,
      "t": 187200,
      "d": 117.5,
      "v": 95
    },
    {
      "midi": 43,
      "hit": false,
      "t": 187320,
      "d": 117.5,
      "v": 95
    },
    {
      "midi": 55,
      "hit": false,
      "t": 187440,
      "d": 117.5,
      "v": 95
    },
    {
      "midi": 55,
      "hit": false,
      "t": 187560,
      "d": 117.5,
      "v": 95
    },
    {
      "midi": 43,
      "hit": false,
      "t": 187680,
      "d": 117.5,
      "v": 95
    },
    {
      "midi": 43,
      "hit": false,
      "t": 187800,
      "d": 117.5,
      "v": 95
    },
    {
      "midi": 76,
      "hit": false,
      "t": 187867.5,
      "d": 182.5,
      "v": 97
    },
    {
      "midi": 55,
      "hit": false,
      "t": 187920,
      "d": 117.5,
      "v": 95
    },
    {
      "midi": 74,
      "hit": false,
      "t": 188005,
      "d": 197.5,
      "v": 115
    },
    {
      "midi": 55,
      "hit": false,
      "t": 188040,
      "d": 117.5,
      "v": 95
    },
    {
      "midi": 48,
      "hit": false,
      "t": 188160,
      "d": 240,
      "v": 45
    },
    {
      "midi": 60,
      "hit": false,
      "t": 188160,
      "d": 240,
      "v": 45
    },
    {
      "midi": 36,
      "hit": false,
      "t": 188160,
      "d": 117.5,
      "v": 95
    },
    {
      "midi": 72,
      "hit": false,
      "t": 188165,
      "d": 375,
      "v": 118
    },
    {
      "midi": 36,
      "hit": false,
      "t": 188280,
      "d": 117.5,
      "v": 95
    },
    {
      "midi": 48,
      "hit": false,
      "t": 188400,
      "d": 117.5,
      "v": 95
    },
    {
      "midi": 48,
      "hit": false,
      "t": 188520,
      "d": 117.5,
      "v": 95
    },
    {
      "midi": 36,
      "hit": false,
      "t": 188640,
      "d": 117.5,
      "v": 95
    },
    {
      "midi": 36,
      "hit": false,
      "t": 188760,
      "d": 117.5,
      "v": 95
    },
    {
      "midi": 72,
      "hit": false,
      "t": 188865,
      "d": 167.5,
      "v": 103
    },
    {
      "midi": 48,
      "hit": false,
      "t": 188880,
      "d": 117.5,
      "v": 95
    },
    {
      "midi": 48,
      "hit": false,
      "t": 189000,
      "d": 117.5,
      "v": 95
    },
    {
      "midi": 70,
      "hit": false,
      "t": 189030,
      "d": 155,
      "v": 112
    },
    {
      "midi": 55,
      "hit": false,
      "t": 189120,
      "d": 240,
      "v": 45
    },
    {
      "midi": 67,
      "hit": false,
      "t": 189120,
      "d": 240,
      "v": 45
    },
    {
      "midi": 36,
      "hit": false,
      "t": 189120,
      "d": 117.5,
      "v": 95
    },
    {
      "midi": 69,
      "hit": false,
      "t": 189160,
      "d": 375,
      "v": 115
    },
    {
      "midi": 36,
      "hit": false,
      "t": 189240,
      "d": 117.5,
      "v": 95
    },
    {
      "midi": 48,
      "hit": false,
      "t": 189360,
      "d": 117.5,
      "v": 95
    },
    {
      "midi": 48,
      "hit": false,
      "t": 189480,
      "d": 117.5,
      "v": 95
    },
    {
      "midi": 36,
      "hit": false,
      "t": 189600,
      "d": 117.5,
      "v": 95
    },
    {
      "midi": 36,
      "hit": false,
      "t": 189720,
      "d": 117.5,
      "v": 95
    },
    {
      "midi": 48,
      "hit": false,
      "t": 189840,
      "d": 117.5,
      "v": 95
    },
    {
      "midi": 69,
      "hit": false,
      "t": 189847.5,
      "d": 140,
      "v": 103
    },
    {
      "midi": 48,
      "hit": false,
      "t": 189960,
      "d": 117.5,
      "v": 95
    },
    {
      "midi": 67,
      "hit": false,
      "t": 189975,
      "d": 140,
      "v": 105
    },
    {
      "midi": 77,
      "hit": false,
      "t": 190060,
      "d": 1865,
      "v": 45
    },
    {
      "midi": 65,
      "hit": false,
      "t": 190075,
      "d": 475,
      "v": 117
    },
    {
      "midi": 53,
      "hit": false,
      "t": 190080,
      "d": 240,
      "v": 45
    },
    {
      "midi": 65,
      "hit": false,
      "t": 190080,
      "d": 240,
      "v": 45
    },
    {
      "midi": 41,
      "hit": false,
      "t": 190080,
      "d": 117.5,
      "v": 95
    },
    {
      "midi": 41,
      "hit": false,
      "t": 190200,
      "d": 117.5,
      "v": 95
    },
    {
      "midi": 53,
      "hit": false,
      "t": 190320,
      "d": 117.5,
      "v": 95
    },
    {
      "midi": 53,
      "hit": false,
      "t": 190440,
      "d": 117.5,
      "v": 95
    },
    {
      "midi": 41,
      "hit": false,
      "t": 190560,
      "d": 117.5,
      "v": 95
    },
    {
      "midi": 41,
      "hit": false,
      "t": 190680,
      "d": 117.5,
      "v": 95
    },
    {
      "midi": 53,
      "hit": false,
      "t": 190800,
      "d": 117.5,
      "v": 95
    },
    {
      "midi": 53,
      "hit": false,
      "t": 190920,
      "d": 117.5,
      "v": 95
    },
    {
      "midi": 41,
      "hit": false,
      "t": 191040,
      "d": 117.5,
      "v": 95
    },
    {
      "midi": 41,
      "hit": false,
      "t": 191160,
      "d": 117.5,
      "v": 95
    },
    {
      "midi": 53,
      "hit": false,
      "t": 191280,
      "d": 117.5,
      "v": 95
    },
    {
      "midi": 53,
      "hit": false,
      "t": 191400,
      "d": 117.5,
      "v": 95
    },
    {
      "midi": 64,
      "hit": false,
      "t": 191447.5,
      "d": 297.5,
      "v": 104
    },
    {
      "midi": 41,
      "hit": false,
      "t": 191520,
      "d": 117.5,
      "v": 95
    },
    {
      "midi": 41,
      "hit": false,
      "t": 191640,
      "d": 117.5,
      "v": 95
    },
    {
      "midi": 53,
      "hit": false,
      "t": 191760,
      "d": 117.5,
      "v": 95
    },
    {
      "midi": 65,
      "hit": false,
      "t": 191785,
      "d": 200,
      "v": 103
    },
    {
      "midi": 53,
      "hit": false,
      "t": 191880,
      "d": 117.5,
      "v": 95
    },
    {
      "midi": 67,
      "hit": false,
      "t": 191975,
      "d": 257.5,
      "v": 117
    },
    {
      "midi": 60,
      "hit": false,
      "t": 192000,
      "d": 3360,
      "v": 65
    },
    {
      "midi": 72,
      "hit": false,
      "t": 192000,
      "d": 3360,
      "v": 65
    },
    {
      "midi": 60,
      "hit": false,
      "t": 192000,
      "d": 240,
      "v": 45
    },
    {
      "midi": 72,
      "hit": false,
      "t": 192000,
      "d": 240,
      "v": 45
    },
    {
      "midi": 36,
      "hit": false,
      "t": 192000,
      "d": 117.5,
      "v": 95
    },
    {
      "midi": 36,
      "hit": false,
      "t": 192120,
      "d": 117.5,
      "v": 95
    },
    {
      "midi": 48,
      "hit": false,
      "t": 192240,
      "d": 117.5,
      "v": 95
    },
    {
      "midi": 69,
      "hit": false,
      "t": 192255,
      "d": 190,
      "v": 101
    },
    {
      "midi": 48,
      "hit": false,
      "t": 192360,
      "d": 117.5,
      "v": 95
    },
    {
      "midi": 67,
      "hit": false,
      "t": 192410,
      "d": 990,
      "v": 101
    },
    {
      "midi": 36,
      "hit": false,
      "t": 192480,
      "d": 117.5,
      "v": 95
    },
    {
      "midi": 36,
      "hit": false,
      "t": 192600,
      "d": 117.5,
      "v": 95
    },
    {
      "midi": 48,
      "hit": false,
      "t": 192720,
      "d": 117.5,
      "v": 95
    },
    {
      "midi": 48,
      "hit": false,
      "t": 192840,
      "d": 117.5,
      "v": 95
    },
    {
      "midi": 36,
      "hit": false,
      "t": 192960,
      "d": 117.5,
      "v": 95
    },
    {
      "midi": 36,
      "hit": false,
      "t": 193080,
      "d": 117.5,
      "v": 95
    },
    {
      "midi": 48,
      "hit": false,
      "t": 193200,
      "d": 117.5,
      "v": 95
    },
    {
      "midi": 48,
      "hit": false,
      "t": 193320,
      "d": 117.5,
      "v": 95
    },
    {
      "midi": 36,
      "hit": false,
      "t": 193440,
      "d": 117.5,
      "v": 95
    },
    {
      "midi": 64,
      "hit": false,
      "t": 193445,
      "d": 282.5,
      "v": 117
    },
    {
      "midi": 36,
      "hit": false,
      "t": 193560,
      "d": 117.5,
      "v": 95
    },
    {
      "midi": 48,
      "hit": false,
      "t": 193680,
      "d": 117.5,
      "v": 95
    },
    {
      "midi": 72,
      "hit": false,
      "t": 193712.5,
      "d": 280,
      "v": 102
    },
    {
      "midi": 48,
      "hit": false,
      "t": 193800,
      "d": 117.5,
      "v": 95
    },
    {
      "midi": 67,
      "hit": false,
      "t": 193912.5,
      "d": 742.5,
      "v": 118
    },
    {
      "midi": 36,
      "hit": false,
      "t": 193920,
      "d": 117.5,
      "v": 95
    },
    {
      "midi": 36,
      "hit": false,
      "t": 194040,
      "d": 117.5,
      "v": 95
    },
    {
      "midi": 48,
      "hit": false,
      "t": 194160,
      "d": 117.5,
      "v": 95
    },
    {
      "midi": 48,
      "hit": false,
      "t": 194280,
      "d": 117.5,
      "v": 95
    },
    {
      "midi": 36,
      "hit": false,
      "t": 194400,
      "d": 117.5,
      "v": 95
    },
    {
      "midi": 36,
      "hit": false,
      "t": 194520,
      "d": 117.5,
      "v": 95
    },
    {
      "midi": 48,
      "hit": false,
      "t": 194640,
      "d": 117.5,
      "v": 95
    },
    {
      "midi": 48,
      "hit": false,
      "t": 194760,
      "d": 117.5,
      "v": 95
    },
    {
      "midi": 36,
      "hit": false,
      "t": 194880,
      "d": 117.5,
      "v": 95
    },
    {
      "midi": 36,
      "hit": false,
      "t": 195000,
      "d": 117.5,
      "v": 95
    },
    {
      "midi": 48,
      "hit": false,
      "t": 195120,
      "d": 117.5,
      "v": 95
    },
    {
      "midi": 48,
      "hit": false,
      "t": 195240,
      "d": 117.5,
      "v": 95
    },
    {
      "midi": 64,
      "hit": false,
      "t": 195335,
      "d": 317.5,
      "v": 113
    },
    {
      "midi": 36,
      "hit": false,
      "t": 195360,
      "d": 117.5,
      "v": 95
    },
    {
      "midi": 36,
      "hit": false,
      "t": 195480,
      "d": 117.5,
      "v": 95
    },
    {
      "midi": 48,
      "hit": false,
      "t": 195600,
      "d": 117.5,
      "v": 95
    },
    {
      "midi": 67,
      "hit": false,
      "t": 195625,
      "d": 215,
      "v": 103
    },
    {
      "midi": 48,
      "hit": false,
      "t": 195720,
      "d": 117.5,
      "v": 95
    },
    {
      "midi": 65,
      "hit": false,
      "t": 195830,
      "d": 210,
      "v": 117
    },
    {
      "midi": 62,
      "hit": false,
      "t": 195840,
      "d": 1440,
      "v": 65
    },
    {
      "midi": 74,
      "hit": false,
      "t": 195840,
      "d": 1440,
      "v": 65
    },
    {
      "midi": 38,
      "hit": false,
      "t": 195840,
      "d": 117.5,
      "v": 95
    },
    {
      "midi": 62,
      "hit": false,
      "t": 195847.5,
      "d": 240,
      "v": 45
    },
    {
      "midi": 50,
      "hit": false,
      "t": 195850,
      "d": 240,
      "v": 45
    },
    {
      "midi": 38,
      "hit": false,
      "t": 195960,
      "d": 117.5,
      "v": 95
    },
    {
      "midi": 50,
      "hit": false,
      "t": 196080,
      "d": 117.5,
      "v": 95
    },
    {
      "midi": 50,
      "hit": false,
      "t": 196200,
      "d": 117.5,
      "v": 95
    },
    {
      "midi": 65,
      "hit": false,
      "t": 196302.5,
      "d": 165,
      "v": 115
    },
    {
      "midi": 38,
      "hit": false,
      "t": 196320,
      "d": 117.5,
      "v": 95
    },
    {
      "midi": 38,
      "hit": false,
      "t": 196440,
      "d": 117.5,
      "v": 95
    },
    {
      "midi": 64,
      "hit": false,
      "t": 196470,
      "d": 190,
      "v": 96
    },
    {
      "midi": 50,
      "hit": false,
      "t": 196560,
      "d": 117.5,
      "v": 95
    },
    {
      "midi": 62,
      "hit": false,
      "t": 196647.5,
      "d": 172.5,
      "v": 115
    },
    {
      "midi": 50,
      "hit": false,
      "t": 196680,
      "d": 117.5,
      "v": 95
    },
    {
      "midi": 43,
      "hit": false,
      "t": 196800,
      "d": 117.5,
      "v": 95
    },
    {
      "midi": 43,
      "hit": false,
      "t": 196920,
      "d": 117.5,
      "v": 95
    },
    {
      "midi": 55,
      "hit": false,
      "t": 197040,
      "d": 117.5,
      "v": 95
    },
    {
      "midi": 55,
      "hit": false,
      "t": 197160,
      "d": 117.5,
      "v": 95
    },
    {
      "midi": 43,
      "hit": false,
      "t": 197280,
      "d": 117.5,
      "v": 95
    },
    {
      "midi": 60,
      "hit": false,
      "t": 197280,
      "d": 142.5,
      "v": 117
    },
    {
      "midi": 43,
      "hit": false,
      "t": 197400,
      "d": 117.5,
      "v": 95
    },
    {
      "midi": 62,
      "hit": false,
      "t": 197425,
      "d": 207.5,
      "v": 97
    },
    {
      "midi": 55,
      "hit": false,
      "t": 197520,
      "d": 117.5,
      "v": 95
    },
    {
      "midi": 64,
      "hit": false,
      "t": 197572.5,
      "d": 220,
      "v": 102
    },
    {
      "midi": 55,
      "hit": false,
      "t": 197640,
      "d": 117.5,
      "v": 95
    },
    {
      "midi": 60,
      "hit": false,
      "t": 197760,
      "d": 4800,
      "v": 65
    },
    {
      "midi": 72,
      "hit": false,
      "t": 197760,
      "d": 4800,
      "v": 65
    },
    {
      "midi": 48,
      "hit": false,
      "t": 197760,
      "d": 240,
      "v": 45
    },
    {
      "midi": 60,
      "hit": false,
      "t": 197760,
      "d": 240,
      "v": 45
    },
    {
      "midi": 36,
      "hit": false,
      "t": 197760,
      "d": 117.5,
      "v": 95
    },
    {
      "midi": 36,
      "hit": false,
      "t": 197880,
      "d": 117.5,
      "v": 95
    },
    {
      "midi": 48,
      "hit": false,
      "t": 198000,
      "d": 117.5,
      "v": 95
    },
    {
      "midi": 48,
      "hit": false,
      "t": 198120,
      "d": 117.5,
      "v": 95
    },
    {
      "midi": 36,
      "hit": false,
      "t": 198240,
      "d": 117.5,
      "v": 95
    },
    {
      "midi": 36,
      "hit": false,
      "t": 198360,
      "d": 117.5,
      "v": 95
    },
    {
      "midi": 48,
      "hit": false,
      "t": 198480,
      "d": 117.5,
      "v": 95
    },
    {
      "midi": 48,
      "hit": false,
      "t": 198600,
      "d": 117.5,
      "v": 95
    },
    {
      "midi": 36,
      "hit": false,
      "t": 198720,
      "d": 117.5,
      "v": 95
    },
    {
      "midi": 36,
      "hit": false,
      "t": 198840,
      "d": 117.5,
      "v": 95
    },
    {
      "midi": 48,
      "hit": false,
      "t": 198960,
      "d": 117.5,
      "v": 95
    },
    {
      "midi": 64,
      "hit": false,
      "t": 198992.5,
      "d": 207.5,
      "v": 103
    },
    {
      "midi": 48,
      "hit": false,
      "t": 199080,
      "d": 117.5,
      "v": 95
    },
    {
      "midi": 65,
      "hit": false,
      "t": 199182.5,
      "d": 255,
      "v": 113
    },
    {
      "midi": 36,
      "hit": false,
      "t": 199200,
      "d": 117.5,
      "v": 95
    },
    {
      "midi": 36,
      "hit": false,
      "t": 199320,
      "d": 117.5,
      "v": 95
    },
    {
      "midi": 48,
      "hit": false,
      "t": 199440,
      "d": 117.5,
      "v": 95
    },
    {
      "midi": 67,
      "hit": false,
      "t": 199447.5,
      "d": 197.5,
      "v": 103
    },
    {
      "midi": 48,
      "hit": false,
      "t": 199560,
      "d": 117.5,
      "v": 95
    },
    {
      "midi": 69,
      "hit": false,
      "t": 199652.5,
      "d": 322.5,
      "v": 117
    },
    {
      "midi": 36,
      "hit": false,
      "t": 199680,
      "d": 117.5,
      "v": 95
    },
    {
      "midi": 36,
      "hit": false,
      "t": 199800,
      "d": 117.5,
      "v": 95
    },
    {
      "midi": 48,
      "hit": false,
      "t": 199920,
      "d": 117.5,
      "v": 95
    },
    {
      "midi": 67,
      "hit": false,
      "t": 199950,
      "d": 182.5,
      "v": 105
    },
    {
      "midi": 48,
      "hit": false,
      "t": 200040,
      "d": 117.5,
      "v": 95
    },
    {
      "midi": 64,
      "hit": false,
      "t": 200132.5,
      "d": 260,
      "v": 115
    },
    {
      "midi": 36,
      "hit": false,
      "t": 200160,
      "d": 117.5,
      "v": 95
    },
    {
      "midi": 36,
      "hit": false,
      "t": 200280,
      "d": 117.5,
      "v": 95
    },
    {
      "midi": 48,
      "hit": false,
      "t": 200400,
      "d": 117.5,
      "v": 95
    },
    {
      "midi": 48,
      "hit": false,
      "t": 200520,
      "d": 117.5,
      "v": 95
    },
    {
      "midi": 36,
      "hit": false,
      "t": 200640,
      "d": 117.5,
      "v": 95
    },
    {
      "midi": 36,
      "hit": false,
      "t": 200760,
      "d": 117.5,
      "v": 95
    },
    {
      "midi": 48,
      "hit": false,
      "t": 200880,
      "d": 117.5,
      "v": 95
    },
    {
      "midi": 48,
      "hit": false,
      "t": 201000,
      "d": 117.5,
      "v": 95
    },
    {
      "midi": 72,
      "hit": false,
      "t": 201100,
      "d": 190,
      "v": 113
    },
    {
      "midi": 36,
      "hit": false,
      "t": 201120,
      "d": 117.5,
      "v": 95
    },
    {
      "midi": 36,
      "hit": false,
      "t": 201240,
      "d": 117.5,
      "v": 95
    },
    {
      "midi": 48,
      "hit": false,
      "t": 201360,
      "d": 117.5,
      "v": 95
    },
    {
      "midi": 48,
      "hit": false,
      "t": 201480,
      "d": 117.5,
      "v": 95
    },
    {
      "midi": 67,
      "hit": false,
      "t": 201580,
      "d": 190,
      "v": 117
    },
    {
      "midi": 36,
      "hit": false,
      "t": 201600,
      "d": 117.5,
      "v": 95
    },
    {
      "midi": 36,
      "hit": false,
      "t": 201720,
      "d": 117.5,
      "v": 95
    },
    {
      "midi": 48,
      "hit": false,
      "t": 201840,
      "d": 117.5,
      "v": 95
    },
    {
      "midi": 48,
      "hit": false,
      "t": 201960,
      "d": 117.5,
      "v": 95
    },
    {
      "midi": 36,
      "hit": false,
      "t": 202080,
      "d": 117.5,
      "v": 95
    },
    {
      "midi": 36,
      "hit": false,
      "t": 202200,
      "d": 117.5,
      "v": 95
    },
    {
      "midi": 48,
      "hit": false,
      "t": 202320,
      "d": 117.5,
      "v": 95
    },
    {
      "midi": 48,
      "hit": false,
      "t": 202440,
      "d": 117.5,
      "v": 95
    },
    {
      "midi": 36,
      "hit": false,
      "t": 202560,
      "d": 117.5,
      "v": 95
    },
    {
      "midi": 36,
      "hit": false,
      "t": 202680,
      "d": 117.5,
      "v": 95
    },
    {
      "midi": 48,
      "hit": false,
      "t": 202800,
      "d": 117.5,
      "v": 95
    },
    {
      "midi": 48,
      "hit": false,
      "t": 202920,
      "d": 117.5,
      "v": 95
    },
    {
      "midi": 72,
      "hit": false,
      "t": 202980,
      "d": 392.5,
      "v": 104
    },
    {
      "midi": 36,
      "hit": false,
      "t": 203040,
      "d": 117.5,
      "v": 95
    },
    {
      "midi": 36,
      "hit": false,
      "t": 203160,
      "d": 117.5,
      "v": 95
    },
    {
      "midi": 48,
      "hit": false,
      "t": 203280,
      "d": 117.5,
      "v": 95
    },
    {
      "midi": 71,
      "hit": false,
      "t": 203315,
      "d": 197.5,
      "v": 102
    },
    {
      "midi": 48,
      "hit": false,
      "t": 203400,
      "d": 117.5,
      "v": 95
    },
    {
      "midi": 79,
      "hit": false,
      "t": 203452.5,
      "d": 1580,
      "v": 65
    },
    {
      "midi": 69,
      "hit": false,
      "t": 203510,
      "d": 502.5,
      "v": 118
    },
    {
      "midi": 62,
      "hit": false,
      "t": 203520,
      "d": 1440,
      "v": 65
    },
    {
      "midi": 74,
      "hit": false,
      "t": 203520,
      "d": 1440,
      "v": 65
    },
    {
      "midi": 55,
      "hit": false,
      "t": 203520,
      "d": 240,
      "v": 45
    },
    {
      "midi": 67,
      "hit": false,
      "t": 203520,
      "d": 240,
      "v": 45
    },
    {
      "midi": 38,
      "hit": false,
      "t": 203520,
      "d": 117.5,
      "v": 95
    },
    {
      "midi": 38,
      "hit": false,
      "t": 203640,
      "d": 117.5,
      "v": 95
    },
    {
      "midi": 50,
      "hit": false,
      "t": 203760,
      "d": 117.5,
      "v": 95
    },
    {
      "midi": 50,
      "hit": false,
      "t": 203880,
      "d": 117.5,
      "v": 95
    },
    {
      "midi": 43,
      "hit": false,
      "t": 204000,
      "d": 117.5,
      "v": 95
    },
    {
      "midi": 71,
      "hit": false,
      "t": 204000,
      "d": 662.5,
      "v": 115
    },
    {
      "midi": 43,
      "hit": false,
      "t": 204120,
      "d": 117.5,
      "v": 95
    },
    {
      "midi": 55,
      "hit": false,
      "t": 204240,
      "d": 117.5,
      "v": 95
    },
    {
      "midi": 55,
      "hit": false,
      "t": 204360,
      "d": 117.5,
      "v": 95
    },
    {
      "midi": 43,
      "hit": false,
      "t": 204480,
      "d": 117.5,
      "v": 95
    },
    {
      "midi": 43,
      "hit": false,
      "t": 204600,
      "d": 117.5,
      "v": 95
    },
    {
      "midi": 55,
      "hit": false,
      "t": 204720,
      "d": 117.5,
      "v": 95
    },
    {
      "midi": 55,
      "hit": false,
      "t": 204840,
      "d": 117.5,
      "v": 95
    },
    {
      "midi": 43,
      "hit": false,
      "t": 204960,
      "d": 117.5,
      "v": 95
    },
    {
      "midi": 69,
      "hit": false,
      "t": 204987.5,
      "d": 315,
      "v": 113
    },
    {
      "midi": 43,
      "hit": false,
      "t": 205080,
      "d": 117.5,
      "v": 95
    },
    {
      "midi": 55,
      "hit": false,
      "t": 205200,
      "d": 117.5,
      "v": 95
    },
    {
      "midi": 71,
      "hit": false,
      "t": 205305,
      "d": 190,
      "v": 105
    },
    {
      "midi": 55,
      "hit": false,
      "t": 205320,
      "d": 117.5,
      "v": 95
    },
    {
      "midi": 84,
      "hit": false,
      "t": 205365,
      "d": 1920,
      "v": 65
    },
    {
      "midi": 60,
      "hit": false,
      "t": 205440,
      "d": 1920,
      "v": 60
    },
    {
      "midi": 72,
      "hit": false,
      "t": 205440,
      "d": 1920,
      "v": 60
    },
    {
      "midi": 60,
      "hit": false,
      "t": 205440,
      "d": 240,
      "v": 45
    },
    {
      "midi": 72,
      "hit": false,
      "t": 205440,
      "d": 240,
      "v": 45
    },
    {
      "midi": 36,
      "hit": false,
      "t": 205440,
      "d": 117.5,
      "v": 95
    },
    {
      "midi": 72,
      "hit": false,
      "t": 205455,
      "d": 960,
      "v": 117
    },
    {
      "midi": 36,
      "hit": false,
      "t": 205560,
      "d": 117.5,
      "v": 95
    },
    {
      "midi": 48,
      "hit": false,
      "t": 205680,
      "d": 117.5,
      "v": 95
    },
    {
      "midi": 48,
      "hit": false,
      "t": 205800,
      "d": 117.5,
      "v": 95
    },
    {
      "midi": 36,
      "hit": false,
      "t": 205920,
      "d": 117.5,
      "v": 95
    },
    {
      "midi": 36,
      "hit": false,
      "t": 206040,
      "d": 117.5,
      "v": 95
    },
    {
      "midi": 48,
      "hit": false,
      "t": 206160,
      "d": 117.5,
      "v": 95
    },
    {
      "midi": 48,
      "hit": false,
      "t": 206280,
      "d": 117.5,
      "v": 95
    },
    {
      "midi": 36,
      "hit": false,
      "t": 206400,
      "d": 117.5,
      "v": 95
    },
    {
      "midi": 36,
      "hit": false,
      "t": 206520,
      "d": 117.5,
      "v": 95
    },
    {
      "midi": 48,
      "hit": false,
      "t": 206640,
      "d": 117.5,
      "v": 95
    },
    {
      "midi": 48,
      "hit": false,
      "t": 206760,
      "d": 117.5,
      "v": 95
    },
    {
      "midi": 60,
      "hit": false,
      "t": 206877.5,
      "d": 197.5,
      "v": 117
    },
    {
      "midi": 36,
      "hit": false,
      "t": 206880,
      "d": 117.5,
      "v": 95
    },
    {
      "midi": 36,
      "hit": false,
      "t": 207000,
      "d": 117.5,
      "v": 95
    },
    {
      "midi": 48,
      "hit": false,
      "t": 207120,
      "d": 117.5,
      "v": 95
    },
    {
      "midi": 48,
      "hit": false,
      "t": 207240,
      "d": 117.5,
      "v": 95
    },
    {
      "midi": 60,
      "hit": false,
      "t": 207260,
      "d": 107.5,
      "v": 101
    },
    {
      "midi": 65,
      "hit": false,
      "t": 207360,
      "d": 3360,
      "v": 60
    },
    {
      "midi": 53,
      "hit": false,
      "t": 207360,
      "d": 240,
      "v": 45
    },
    {
      "midi": 65,
      "hit": false,
      "t": 207360,
      "d": 240,
      "v": 45
    },
    {
      "midi": 41,
      "hit": false,
      "t": 207360,
      "d": 117.5,
      "v": 95
    },
    {
      "midi": 77,
      "hit": false,
      "t": 207360,
      "d": 3360,
      "v": 60
    },
    {
      "midi": 72,
      "hit": false,
      "t": 207387.5,
      "d": 117.5,
      "v": 118
    },
    {
      "midi": 41,
      "hit": false,
      "t": 207480,
      "d": 117.5,
      "v": 95
    },
    {
      "midi": 53,
      "hit": false,
      "t": 207600,
      "d": 117.5,
      "v": 95
    },
    {
      "midi": 72,
      "hit": false,
      "t": 207605,
      "d": 225,
      "v": 105
    },
    {
      "midi": 53,
      "hit": false,
      "t": 207720,
      "d": 117.5,
      "v": 95
    },
    {
      "midi": 41,
      "hit": false,
      "t": 207840,
      "d": 117.5,
      "v": 95
    },
    {
      "midi": 70,
      "hit": false,
      "t": 207850,
      "d": 392.5,
      "v": 115
    },
    {
      "midi": 41,
      "hit": false,
      "t": 207960,
      "d": 117.5,
      "v": 95
    },
    {
      "midi": 53,
      "hit": false,
      "t": 208080,
      "d": 117.5,
      "v": 95
    },
    {
      "midi": 53,
      "hit": false,
      "t": 208200,
      "d": 117.5,
      "v": 95
    },
    {
      "midi": 69,
      "hit": false,
      "t": 208310,
      "d": 732.5,
      "v": 115
    },
    {
      "midi": 41,
      "hit": false,
      "t": 208320,
      "d": 117.5,
      "v": 95
    },
    {
      "midi": 41,
      "hit": false,
      "t": 208440,
      "d": 117.5,
      "v": 95
    },
    {
      "midi": 53,
      "hit": false,
      "t": 208560,
      "d": 117.5,
      "v": 95
    },
    {
      "midi": 53,
      "hit": false,
      "t": 208680,
      "d": 117.5,
      "v": 95
    },
    {
      "midi": 41,
      "hit": false,
      "t": 208800,
      "d": 117.5,
      "v": 95
    },
    {
      "midi": 41,
      "hit": false,
      "t": 208920,
      "d": 117.5,
      "v": 95
    },
    {
      "midi": 53,
      "hit": false,
      "t": 209040,
      "d": 117.5,
      "v": 95
    },
    {
      "midi": 67,
      "hit": false,
      "t": 209050,
      "d": 220,
      "v": 103
    },
    {
      "midi": 53,
      "hit": false,
      "t": 209160,
      "d": 117.5,
      "v": 95
    },
    {
      "midi": 53,
      "hit": false,
      "t": 209280,
      "d": 240,
      "v": 45
    },
    {
      "midi": 65,
      "hit": false,
      "t": 209280,
      "d": 240,
      "v": 45
    },
    {
      "midi": 41,
      "hit": false,
      "t": 209280,
      "d": 117.5,
      "v": 95
    },
    {
      "midi": 65,
      "hit": false,
      "t": 209285,
      "d": 190,
      "v": 118
    },
    {
      "midi": 41,
      "hit": false,
      "t": 209400,
      "d": 117.5,
      "v": 95
    },
    {
      "midi": 53,
      "hit": false,
      "t": 209520,
      "d": 117.5,
      "v": 95
    },
    {
      "midi": 60,
      "hit": false,
      "t": 209540,
      "d": 432.5,
      "v": 105
    },
    {
      "midi": 53,
      "hit": false,
      "t": 209640,
      "d": 117.5,
      "v": 95
    },
    {
      "midi": 41,
      "hit": false,
      "t": 209760,
      "d": 117.5,
      "v": 95
    },
    {
      "midi": 41,
      "hit": false,
      "t": 209880,
      "d": 117.5,
      "v": 95
    },
    {
      "midi": 53,
      "hit": false,
      "t": 210000,
      "d": 117.5,
      "v": 95
    },
    {
      "midi": 53,
      "hit": false,
      "t": 210120,
      "d": 117.5,
      "v": 95
    },
    {
      "midi": 41,
      "hit": false,
      "t": 210240,
      "d": 117.5,
      "v": 95
    },
    {
      "midi": 41,
      "hit": false,
      "t": 210360,
      "d": 117.5,
      "v": 95
    },
    {
      "midi": 53,
      "hit": false,
      "t": 210480,
      "d": 117.5,
      "v": 95
    },
    {
      "midi": 53,
      "hit": false,
      "t": 210600,
      "d": 117.5,
      "v": 95
    },
    {
      "midi": 60,
      "hit": false,
      "t": 210692.5,
      "d": 132.5,
      "v": 113
    },
    {
      "midi": 41,
      "hit": false,
      "t": 210720,
      "d": 117.5,
      "v": 95
    },
    {
      "midi": 41,
      "hit": false,
      "t": 210840,
      "d": 117.5,
      "v": 95
    },
    {
      "midi": 53,
      "hit": false,
      "t": 210960,
      "d": 117.5,
      "v": 95
    },
    {
      "midi": 60,
      "hit": false,
      "t": 211065,
      "d": 105,
      "v": 105
    },
    {
      "midi": 53,
      "hit": false,
      "t": 211080,
      "d": 117.5,
      "v": 95
    },
    {
      "midi": 65,
      "hit": false,
      "t": 211175,
      "d": 950,
      "v": 117
    },
    {
      "midi": 69,
      "hit": false,
      "t": 211200,
      "d": 960,
      "v": 60
    },
    {
      "midi": 45,
      "hit": false,
      "t": 211200,
      "d": 240,
      "v": 45
    },
    {
      "midi": 57,
      "hit": false,
      "t": 211200,
      "d": 240,
      "v": 45
    },
    {
      "midi": 45,
      "hit": false,
      "t": 211200,
      "d": 117.5,
      "v": 95
    },
    {
      "midi": 81,
      "hit": false,
      "t": 211200,
      "d": 960,
      "v": 60
    },
    {
      "midi": 45,
      "hit": false,
      "t": 211320,
      "d": 117.5,
      "v": 95
    },
    {
      "midi": 57,
      "hit": false,
      "t": 211440,
      "d": 117.5,
      "v": 95
    },
    {
      "midi": 57,
      "hit": false,
      "t": 211560,
      "d": 117.5,
      "v": 95
    },
    {
      "midi": 45,
      "hit": false,
      "t": 211680,
      "d": 117.5,
      "v": 95
    },
    {
      "midi": 45,
      "hit": false,
      "t": 211800,
      "d": 117.5,
      "v": 95
    },
    {
      "midi": 57,
      "hit": false,
      "t": 211920,
      "d": 117.5,
      "v": 95
    },
    {
      "midi": 57,
      "hit": false,
      "t": 212040,
      "d": 117.5,
      "v": 95
    },
    {
      "midi": 67,
      "hit": false,
      "t": 212140,
      "d": 780,
      "v": 112
    },
    {
      "midi": 70,
      "hit": false,
      "t": 212160,
      "d": 960,
      "v": 60
    },
    {
      "midi": 46,
      "hit": false,
      "t": 212160,
      "d": 240,
      "v": 45
    },
    {
      "midi": 58,
      "hit": false,
      "t": 212160,
      "d": 240,
      "v": 45
    },
    {
      "midi": 45,
      "hit": false,
      "t": 212160,
      "d": 117.5,
      "v": 95
    },
    {
      "midi": 82,
      "hit": false,
      "t": 212160,
      "d": 960,
      "v": 60
    },
    {
      "midi": 45,
      "hit": false,
      "t": 212280,
      "d": 117.5,
      "v": 95
    },
    {
      "midi": 57,
      "hit": false,
      "t": 212400,
      "d": 117.5,
      "v": 95
    },
    {
      "midi": 57,
      "hit": false,
      "t": 212520,
      "d": 117.5,
      "v": 95
    },
    {
      "midi": 45,
      "hit": false,
      "t": 212640,
      "d": 117.5,
      "v": 95
    },
    {
      "midi": 45,
      "hit": false,
      "t": 212760,
      "d": 117.5,
      "v": 95
    },
    {
      "midi": 57,
      "hit": false,
      "t": 212880,
      "d": 117.5,
      "v": 95
    },
    {
      "midi": 65,
      "hit": false,
      "t": 212920,
      "d": 197.5,
      "v": 102
    },
    {
      "midi": 57,
      "hit": false,
      "t": 213000,
      "d": 117.5,
      "v": 95
    },
    {
      "midi": 64,
      "hit": false,
      "t": 213100,
      "d": 240,
      "v": 118
    },
    {
      "midi": 72,
      "hit": false,
      "t": 213120,
      "d": 1920,
      "v": 60
    },
    {
      "midi": 48,
      "hit": false,
      "t": 213120,
      "d": 240,
      "v": 45
    },
    {
      "midi": 60,
      "hit": false,
      "t": 213120,
      "d": 240,
      "v": 45
    },
    {
      "midi": 36,
      "hit": false,
      "t": 213120,
      "d": 117.5,
      "v": 95
    },
    {
      "midi": 84,
      "hit": false,
      "t": 213120,
      "d": 1920,
      "v": 60
    },
    {
      "midi": 36,
      "hit": false,
      "t": 213240,
      "d": 117.5,
      "v": 95
    },
    {
      "midi": 48,
      "hit": false,
      "t": 213360,
      "d": 117.5,
      "v": 95
    },
    {
      "midi": 60,
      "hit": false,
      "t": 213365,
      "d": 347.5,
      "v": 105
    },
    {
      "midi": 48,
      "hit": false,
      "t": 213480,
      "d": 117.5,
      "v": 95
    },
    {
      "midi": 36,
      "hit": false,
      "t": 213600,
      "d": 117.5,
      "v": 95
    },
    {
      "midi": 36,
      "hit": false,
      "t": 213720,
      "d": 117.5,
      "v": 95
    },
    {
      "midi": 48,
      "hit": false,
      "t": 213840,
      "d": 117.5,
      "v": 95
    },
    {
      "midi": 48,
      "hit": false,
      "t": 213960,
      "d": 117.5,
      "v": 95
    },
    {
      "midi": 36,
      "hit": false,
      "t": 214080,
      "d": 117.5,
      "v": 95
    },
    {
      "midi": 36,
      "hit": false,
      "t": 214200,
      "d": 117.5,
      "v": 95
    },
    {
      "midi": 48,
      "hit": false,
      "t": 214320,
      "d": 117.5,
      "v": 95
    },
    {
      "midi": 48,
      "hit": false,
      "t": 214440,
      "d": 117.5,
      "v": 95
    },
    {
      "midi": 36,
      "hit": false,
      "t": 214560,
      "d": 117.5,
      "v": 95
    },
    {
      "midi": 36,
      "hit": false,
      "t": 214680,
      "d": 117.5,
      "v": 95
    },
    {
      "midi": 48,
      "hit": false,
      "t": 214800,
      "d": 117.5,
      "v": 95
    },
    {
      "midi": 62,
      "hit": false,
      "t": 214805,
      "d": 215,
      "v": 103
    },
    {
      "midi": 48,
      "hit": false,
      "t": 214920,
      "d": 117.5,
      "v": 95
    },
    {
      "midi": 74,
      "hit": false,
      "t": 215035,
      "d": 165,
      "v": 117
    },
    {
      "midi": 67,
      "hit": false,
      "t": 215040,
      "d": 3840,
      "v": 60
    },
    {
      "midi": 55,
      "hit": false,
      "t": 215040,
      "d": 240,
      "v": 45
    },
    {
      "midi": 67,
      "hit": false,
      "t": 215040,
      "d": 240,
      "v": 45
    },
    {
      "midi": 43,
      "hit": false,
      "t": 215040,
      "d": 117.5,
      "v": 95
    },
    {
      "midi": 79,
      "hit": false,
      "t": 215040,
      "d": 3840,
      "v": 60
    },
    {
      "midi": 43,
      "hit": false,
      "t": 215160,
      "d": 117.5,
      "v": 95
    },
    {
      "midi": 55,
      "hit": false,
      "t": 215280,
      "d": 117.5,
      "v": 95
    },
    {
      "midi": 74,
      "hit": false,
      "t": 215325,
      "d": 205,
      "v": 101
    },
    {
      "midi": 55,
      "hit": false,
      "t": 215400,
      "d": 117.5,
      "v": 95
    },
    {
      "midi": 72,
      "hit": false,
      "t": 215515,
      "d": 530,
      "v": 115
    },
    {
      "midi": 43,
      "hit": false,
      "t": 215520,
      "d": 117.5,
      "v": 95
    },
    {
      "midi": 43,
      "hit": false,
      "t": 215640,
      "d": 117.5,
      "v": 95
    },
    {
      "midi": 55,
      "hit": false,
      "t": 215760,
      "d": 117.5,
      "v": 95
    },
    {
      "midi": 55,
      "hit": false,
      "t": 215880,
      "d": 117.5,
      "v": 95
    },
    {
      "midi": 50,
      "hit": false,
      "t": 216000,
      "d": 117.5,
      "v": 95
    },
    {
      "midi": 70,
      "hit": false,
      "t": 216000,
      "d": 462.5,
      "v": 112
    },
    {
      "midi": 50,
      "hit": false,
      "t": 216120,
      "d": 117.5,
      "v": 95
    },
    {
      "midi": 62,
      "hit": false,
      "t": 216240,
      "d": 117.5,
      "v": 95
    },
    {
      "midi": 62,
      "hit": false,
      "t": 216360,
      "d": 117.5,
      "v": 95
    },
    {
      "midi": 69,
      "hit": false,
      "t": 216465,
      "d": 277.5,
      "v": 117
    },
    {
      "midi": 50,
      "hit": false,
      "t": 216480,
      "d": 117.5,
      "v": 95
    },
    {
      "midi": 50,
      "hit": false,
      "t": 216600,
      "d": 117.5,
      "v": 95
    },
    {
      "midi": 62,
      "hit": false,
      "t": 216720,
      "d": 117.5,
      "v": 95
    },
    {
      "midi": 67,
      "hit": false,
      "t": 216732.5,
      "d": 822.5,
      "v": 102
    },
    {
      "midi": 62,
      "hit": false,
      "t": 216840,
      "d": 117.5,
      "v": 95
    },
    {
      "midi": 55,
      "hit": false,
      "t": 216960,
      "d": 240,
      "v": 45
    },
    {
      "midi": 67,
      "hit": false,
      "t": 216960,
      "d": 240,
      "v": 45
    },
    {
      "midi": 43,
      "hit": false,
      "t": 216960,
      "d": 117.5,
      "v": 95
    },
    {
      "midi": 43,
      "hit": false,
      "t": 217080,
      "d": 117.5,
      "v": 95
    },
    {
      "midi": 55,
      "hit": false,
      "t": 217200,
      "d": 117.5,
      "v": 95
    },
    {
      "midi": 55,
      "hit": false,
      "t": 217320,
      "d": 117.5,
      "v": 95
    },
    {
      "midi": 43,
      "hit": false,
      "t": 217440,
      "d": 117.5,
      "v": 95
    },
    {
      "midi": 43,
      "hit": false,
      "t": 217560,
      "d": 117.5,
      "v": 95
    },
    {
      "midi": 55,
      "hit": false,
      "t": 217680,
      "d": 117.5,
      "v": 95
    },
    {
      "midi": 55,
      "hit": false,
      "t": 217800,
      "d": 117.5,
      "v": 95
    },
    {
      "midi": 43,
      "hit": false,
      "t": 217920,
      "d": 117.5,
      "v": 95
    },
    {
      "midi": 43,
      "hit": false,
      "t": 218040,
      "d": 117.5,
      "v": 95
    },
    {
      "midi": 55,
      "hit": false,
      "t": 218160,
      "d": 117.5,
      "v": 95
    },
    {
      "midi": 55,
      "hit": false,
      "t": 218280,
      "d": 117.5,
      "v": 95
    },
    {
      "midi": 43,
      "hit": false,
      "t": 218400,
      "d": 117.5,
      "v": 95
    },
    {
      "midi": 43,
      "hit": false,
      "t": 218520,
      "d": 117.5,
      "v": 95
    },
    {
      "midi": 76,
      "hit": false,
      "t": 218587.5,
      "d": 182.5,
      "v": 99
    },
    {
      "midi": 55,
      "hit": false,
      "t": 218640,
      "d": 117.5,
      "v": 95
    },
    {
      "midi": 74,
      "hit": false,
      "t": 218745,
      "d": 197.5,
      "v": 105
    },
    {
      "midi": 55,
      "hit": false,
      "t": 218760,
      "d": 117.5,
      "v": 95
    },
    {
      "midi": 72,
      "hit": false,
      "t": 218880,
      "d": 1920,
      "v": 60
    },
    {
      "midi": 48,
      "hit": false,
      "t": 218880,
      "d": 240,
      "v": 45
    },
    {
      "midi": 60,
      "hit": false,
      "t": 218880,
      "d": 240,
      "v": 45
    },
    {
      "midi": 36,
      "hit": false,
      "t": 218880,
      "d": 117.5,
      "v": 95
    },
    {
      "midi": 84,
      "hit": false,
      "t": 218880,
      "d": 1920,
      "v": 60
    },
    {
      "midi": 72,
      "hit": false,
      "t": 218885,
      "d": 375,
      "v": 118
    },
    {
      "midi": 36,
      "hit": false,
      "t": 219000,
      "d": 117.5,
      "v": 95
    },
    {
      "midi": 48,
      "hit": false,
      "t": 219120,
      "d": 117.5,
      "v": 95
    },
    {
      "midi": 48,
      "hit": false,
      "t": 219240,
      "d": 117.5,
      "v": 95
    },
    {
      "midi": 36,
      "hit": false,
      "t": 219360,
      "d": 117.5,
      "v": 95
    },
    {
      "midi": 36,
      "hit": false,
      "t": 219480,
      "d": 117.5,
      "v": 95
    },
    {
      "midi": 72,
      "hit": false,
      "t": 219585,
      "d": 167.5,
      "v": 103
    },
    {
      "midi": 48,
      "hit": false,
      "t": 219600,
      "d": 117.5,
      "v": 95
    },
    {
      "midi": 48,
      "hit": false,
      "t": 219720,
      "d": 117.5,
      "v": 95
    },
    {
      "midi": 70,
      "hit": false,
      "t": 219750,
      "d": 155,
      "v": 112
    },
    {
      "midi": 55,
      "hit": false,
      "t": 219840,
      "d": 240,
      "v": 45
    },
    {
      "midi": 67,
      "hit": false,
      "t": 219840,
      "d": 240,
      "v": 45
    },
    {
      "midi": 36,
      "hit": false,
      "t": 219840,
      "d": 117.5,
      "v": 95
    },
    {
      "midi": 69,
      "hit": false,
      "t": 219880,
      "d": 375,
      "v": 115
    },
    {
      "midi": 36,
      "hit": false,
      "t": 219960,
      "d": 117.5,
      "v": 95
    },
    {
      "midi": 48,
      "hit": false,
      "t": 220080,
      "d": 117.5,
      "v": 95
    },
    {
      "midi": 48,
      "hit": false,
      "t": 220200,
      "d": 117.5,
      "v": 95
    },
    {
      "midi": 36,
      "hit": false,
      "t": 220320,
      "d": 117.5,
      "v": 95
    },
    {
      "midi": 36,
      "hit": false,
      "t": 220440,
      "d": 117.5,
      "v": 95
    },
    {
      "midi": 48,
      "hit": false,
      "t": 220560,
      "d": 117.5,
      "v": 95
    },
    {
      "midi": 69,
      "hit": false,
      "t": 220567.5,
      "d": 140,
      "v": 103
    },
    {
      "midi": 48,
      "hit": false,
      "t": 220680,
      "d": 117.5,
      "v": 95
    },
    {
      "midi": 67,
      "hit": false,
      "t": 220695,
      "d": 140,
      "v": 105
    },
    {
      "midi": 65,
      "hit": false,
      "t": 220795,
      "d": 475,
      "v": 117
    },
    {
      "midi": 65,
      "hit": false,
      "t": 220800,
      "d": 1440,
      "v": 60
    },
    {
      "midi": 53,
      "hit": false,
      "t": 220800,
      "d": 240,
      "v": 45
    },
    {
      "midi": 65,
      "hit": false,
      "t": 220800,
      "d": 240,
      "v": 45
    },
    {
      "midi": 41,
      "hit": false,
      "t": 220800,
      "d": 117.5,
      "v": 95
    },
    {
      "midi": 77,
      "hit": false,
      "t": 220800,
      "d": 9120,
      "v": 60
    },
    {
      "midi": 89,
      "hit": false,
      "t": 220812.5,
      "d": 9570,
      "v": 60
    },
    {
      "midi": 41,
      "hit": false,
      "t": 220920,
      "d": 117.5,
      "v": 95
    },
    {
      "midi": 53,
      "hit": false,
      "t": 221040,
      "d": 117.5,
      "v": 95
    },
    {
      "midi": 53,
      "hit": false,
      "t": 221160,
      "d": 117.5,
      "v": 95
    },
    {
      "midi": 41,
      "hit": false,
      "t": 221280,
      "d": 117.5,
      "v": 95
    },
    {
      "midi": 41,
      "hit": false,
      "t": 221400,
      "d": 117.5,
      "v": 95
    },
    {
      "midi": 53,
      "hit": false,
      "t": 221520,
      "d": 117.5,
      "v": 95
    },
    {
      "midi": 53,
      "hit": false,
      "t": 221640,
      "d": 117.5,
      "v": 95
    },
    {
      "midi": 41,
      "hit": false,
      "t": 221760,
      "d": 117.5,
      "v": 95
    },
    {
      "midi": 41,
      "hit": false,
      "t": 221880,
      "d": 117.5,
      "v": 95
    },
    {
      "midi": 53,
      "hit": false,
      "t": 222000,
      "d": 117.5,
      "v": 95
    },
    {
      "midi": 53,
      "hit": false,
      "t": 222120,
      "d": 117.5,
      "v": 95
    },
    {
      "midi": 41,
      "hit": false,
      "t": 222240,
      "d": 117.5,
      "v": 95
    },
    {
      "midi": 41,
      "hit": false,
      "t": 222360,
      "d": 117.5,
      "v": 95
    },
    {
      "midi": 53,
      "hit": false,
      "t": 222480,
      "d": 117.5,
      "v": 95
    },
    {
      "midi": 53,
      "hit": false,
      "t": 222600,
      "d": 117.5,
      "v": 95
    },
    {
      "midi": 36,
      "hit": false,
      "t": 222720,
      "d": 117.5,
      "v": 95
    },
    {
      "midi": 36,
      "hit": false,
      "t": 222840,
      "d": 117.5,
      "v": 95
    },
    {
      "midi": 48,
      "hit": false,
      "t": 222960,
      "d": 117.5,
      "v": 95
    },
    {
      "midi": 48,
      "hit": false,
      "t": 223080,
      "d": 117.5,
      "v": 95
    },
    {
      "midi": 36,
      "hit": false,
      "t": 223200,
      "d": 117.5,
      "v": 95
    },
    {
      "midi": 36,
      "hit": false,
      "t": 223320,
      "d": 117.5,
      "v": 95
    },
    {
      "midi": 48,
      "hit": false,
      "t": 223440,
      "d": 117.5,
      "v": 95
    },
    {
      "midi": 48,
      "hit": false,
      "t": 223560,
      "d": 117.5,
      "v": 95
    },
    {
      "midi": 36,
      "hit": false,
      "t": 223680,
      "d": 117.5,
      "v": 95
    },
    {
      "midi": 36,
      "hit": false,
      "t": 223800,
      "d": 117.5,
      "v": 95
    },
    {
      "midi": 48,
      "hit": false,
      "t": 223920,
      "d": 117.5,
      "v": 95
    },
    {
      "midi": 48,
      "hit": false,
      "t": 224040,
      "d": 117.5,
      "v": 95
    },
    {
      "midi": 36,
      "hit": false,
      "t": 224160,
      "d": 117.5,
      "v": 95
    },
    {
      "midi": 36,
      "hit": false,
      "t": 224280,
      "d": 117.5,
      "v": 95
    },
    {
      "midi": 48,
      "hit": false,
      "t": 224400,
      "d": 117.5,
      "v": 95
    },
    {
      "midi": 48,
      "hit": false,
      "t": 224520,
      "d": 117.5,
      "v": 95
    },
    {
      "midi": 36,
      "hit": false,
      "t": 224640,
      "d": 117.5,
      "v": 95
    },
    {
      "midi": 36,
      "hit": false,
      "t": 224760,
      "d": 117.5,
      "v": 95
    },
    {
      "midi": 48,
      "hit": false,
      "t": 224880,
      "d": 117.5,
      "v": 95
    },
    {
      "midi": 48,
      "hit": false,
      "t": 225000,
      "d": 117.5,
      "v": 95
    },
    {
      "midi": 36,
      "hit": false,
      "t": 225120,
      "d": 117.5,
      "v": 95
    },
    {
      "midi": 36,
      "hit": false,
      "t": 225240,
      "d": 117.5,
      "v": 95
    },
    {
      "midi": 48,
      "hit": false,
      "t": 225360,
      "d": 117.5,
      "v": 95
    },
    {
      "midi": 48,
      "hit": false,
      "t": 225480,
      "d": 117.5,
      "v": 95
    },
    {
      "midi": 36,
      "hit": false,
      "t": 225600,
      "d": 117.5,
      "v": 95
    },
    {
      "midi": 36,
      "hit": false,
      "t": 225720,
      "d": 117.5,
      "v": 95
    },
    {
      "midi": 48,
      "hit": false,
      "t": 225840,
      "d": 117.5,
      "v": 95
    },
    {
      "midi": 48,
      "hit": false,
      "t": 225960,
      "d": 117.5,
      "v": 95
    },
    {
      "midi": 36,
      "hit": false,
      "t": 226080,
      "d": 117.5,
      "v": 95
    },
    {
      "midi": 36,
      "hit": false,
      "t": 226200,
      "d": 117.5,
      "v": 95
    },
    {
      "midi": 48,
      "hit": false,
      "t": 226320,
      "d": 117.5,
      "v": 95
    },
    {
      "midi": 48,
      "hit": false,
      "t": 226440,
      "d": 117.5,
      "v": 95
    },
    {
      "midi": 36,
      "hit": false,
      "t": 226560,
      "d": 117.5,
      "v": 95
    },
    {
      "midi": 36,
      "hit": false,
      "t": 226680,
      "d": 117.5,
      "v": 95
    },
    {
      "midi": 48,
      "hit": false,
      "t": 226800,
      "d": 117.5,
      "v": 95
    },
    {
      "midi": 48,
      "hit": false,
      "t": 226920,
      "d": 117.5,
      "v": 95
    },
    {
      "midi": 36,
      "hit": false,
      "t": 227040,
      "d": 117.5,
      "v": 95
    },
    {
      "midi": 36,
      "hit": false,
      "t": 227160,
      "d": 117.5,
      "v": 95
    },
    {
      "midi": 48,
      "hit": false,
      "t": 227280,
      "d": 117.5,
      "v": 95
    },
    {
      "midi": 48,
      "hit": false,
      "t": 227400,
      "d": 117.5,
      "v": 95
    },
    {
      "midi": 36,
      "hit": false,
      "t": 227520,
      "d": 117.5,
      "v": 95
    },
    {
      "midi": 36,
      "hit": false,
      "t": 227640,
      "d": 117.5,
      "v": 95
    },
    {
      "midi": 48,
      "hit": false,
      "t": 227760,
      "d": 117.5,
      "v": 95
    },
    {
      "midi": 48,
      "hit": false,
      "t": 227880,
      "d": 117.5,
      "v": 95
    },
    {
      "midi": 36,
      "hit": false,
      "t": 228000,
      "d": 117.5,
      "v": 95
    },
    {
      "midi": 36,
      "hit": false,
      "t": 228120,
      "d": 117.5,
      "v": 95
    },
    {
      "midi": 48,
      "hit": false,
      "t": 228240,
      "d": 117.5,
      "v": 95
    },
    {
      "midi": 48,
      "hit": false,
      "t": 228360,
      "d": 117.5,
      "v": 95
    },
    {
      "midi": 36,
      "hit": false,
      "t": 228480,
      "d": 117.5,
      "v": 95
    },
    {
      "midi": 36,
      "hit": false,
      "t": 228600,
      "d": 117.5,
      "v": 95
    },
    {
      "midi": 48,
      "hit": false,
      "t": 228720,
      "d": 117.5,
      "v": 95
    },
    {
      "midi": 48,
      "hit": false,
      "t": 228840,
      "d": 117.5,
      "v": 95
    },
    {
      "midi": 36,
      "hit": false,
      "t": 228960,
      "d": 117.5,
      "v": 95
    },
    {
      "midi": 36,
      "hit": false,
      "t": 229080,
      "d": 117.5,
      "v": 95
    },
    {
      "midi": 48,
      "hit": false,
      "t": 229200,
      "d": 117.5,
      "v": 95
    },
    {
      "midi": 48,
      "hit": false,
      "t": 229320,
      "d": 117.5,
      "v": 95
    },
    {
      "midi": 36,
      "hit": false,
      "t": 229440,
      "d": 117.5,
      "v": 95
    },
    {
      "midi": 36,
      "hit": false,
      "t": 229560,
      "d": 117.5,
      "v": 95
    },
    {
      "midi": 48,
      "hit": false,
      "t": 229680,
      "d": 117.5,
      "v": 95
    },
    {
      "midi": 48,
      "hit": false,
      "t": 229800,
      "d": 117.5,
      "v": 95
    },
    {
      "midi": 36,
      "hit": false,
      "t": 229920,
      "d": 117.5,
      "v": 95
    },
    {
      "midi": 36,
      "hit": false,
      "t": 230040,
      "d": 117.5,
      "v": 95
    },
    {
      "midi": 62,
      "hit": false,
      "t": 230137.5,
      "d": 130,
      "v": 109
    },
    {
      "midi": 48,
      "hit": false,
      "t": 230160,
      "d": 117.5,
      "v": 95
    },
    {
      "midi": 48,
      "hit": false,
      "t": 230280,
      "d": 117.5,
      "v": 95
    },
    {
      "midi": 64,
      "hit": false,
      "t": 230387.5,
      "d": 137.5,
      "v": 109
    },
    {
      "midi": 45,
      "hit": false,
      "t": 230400,
      "d": 1200,
      "v": 105
    },
    {
      "midi": 57,
      "hit": false,
      "t": 230400,
      "d": 1200,
      "v": 105
    },
    {
      "midi": 60,
      "hit": false,
      "t": 230400,
      "d": 1200,
      "v": 105
    },
    {
      "midi": 64,
      "hit": false,
      "t": 230400,
      "d": 1200,
      "v": 105
    },
    {
      "midi": 45,
      "hit": false,
      "t": 230400,
      "d": 385,
      "v": 100
    },
    {
      "midi": 62,
      "hit": false,
      "t": 230610,
      "d": 102.5,
      "v": 92
    },
    {
      "midi": 64,
      "hit": false,
      "t": 230732.5,
      "d": 122.5,
      "v": 98
    },
    {
      "midi": 57,
      "hit": false,
      "t": 230762.5,
      "d": 420,
      "v": 100
    },
    {
      "midi": 62,
      "hit": false,
      "t": 230942.5,
      "d": 57.5,
      "v": 60
    },
    {
      "midi": 52,
      "hit": false,
      "t": 231137.5,
      "d": 205,
      "v": 100
    },
    {
      "midi": 50,
      "hit": false,
      "t": 231377.5,
      "d": 195,
      "v": 100
    },
    {
      "midi": 48,
      "hit": false,
      "t": 231595,
      "d": 225,
      "v": 100
    },
    {
      "midi": 50,
      "hit": false,
      "t": 231840,
      "d": 142.5,
      "v": 100
    },
    {
      "midi": 48,
      "hit": false,
      "t": 231960,
      "d": 132.5,
      "v": 100
    },
    {
      "midi": 64,
      "hit": false,
      "t": 232070,
      "d": 130,
      "v": 115
    },
    {
      "midi": 50,
      "hit": false,
      "t": 232070,
      "d": 250,
      "v": 100
    },
    {
      "midi": 65,
      "hit": false,
      "t": 232300,
      "d": 137.5,
      "v": 115
    },
    {
      "midi": 45,
      "hit": false,
      "t": 232320,
      "d": 1440,
      "v": 105
    },
    {
      "midi": 57,
      "hit": false,
      "t": 232320,
      "d": 1440,
      "v": 105
    },
    {
      "midi": 62,
      "hit": false,
      "t": 232320,
      "d": 1440,
      "v": 105
    },
    {
      "midi": 65,
      "hit": false,
      "t": 232320,
      "d": 1440,
      "v": 105
    },
    {
      "midi": 45,
      "hit": false,
      "t": 232337.5,
      "d": 390,
      "v": 100
    },
    {
      "midi": 64,
      "hit": false,
      "t": 232532.5,
      "d": 92.5,
      "v": 98
    },
    {
      "midi": 65,
      "hit": false,
      "t": 232665,
      "d": 110,
      "v": 76
    },
    {
      "midi": 57,
      "hit": false,
      "t": 232687.5,
      "d": 417.5,
      "v": 100
    },
    {
      "midi": 64,
      "hit": false,
      "t": 232860,
      "d": 65,
      "v": 54
    },
    {
      "midi": 52,
      "hit": false,
      "t": 233060,
      "d": 212.5,
      "v": 100
    },
    {
      "midi": 50,
      "hit": false,
      "t": 233290,
      "d": 217.5,
      "v": 100
    },
    {
      "midi": 48,
      "hit": false,
      "t": 233517.5,
      "d": 225,
      "v": 100
    },
    {
      "midi": 50,
      "hit": false,
      "t": 233755,
      "d": 147.5,
      "v": 100
    },
    {
      "midi": 48,
      "hit": false,
      "t": 233880,
      "d": 150,
      "v": 100
    },
    {
      "midi": 50,
      "hit": false,
      "t": 234010,
      "d": 230,
      "v": 100
    },
    {
      "midi": 60,
      "hit": false,
      "t": 234017.5,
      "d": 127.5,
      "v": 86
    },
    {
      "midi": 55,
      "hit": false,
      "t": 234240,
      "d": 1440,
      "v": 105
    },
    {
      "midi": 43,
      "hit": false,
      "t": 234240,
      "d": 1680,
      "v": 105
    },
    {
      "midi": 59,
      "hit": false,
      "t": 234240,
      "d": 1680,
      "v": 105
    },
    {
      "midi": 62,
      "hit": false,
      "t": 234240,
      "d": 1680,
      "v": 105
    },
    {
      "midi": 62,
      "hit": false,
      "t": 234240,
      "d": 185,
      "v": 115
    },
    {
      "midi": 43,
      "hit": false,
      "t": 234240,
      "d": 385,
      "v": 100
    },
    {
      "midi": 60,
      "hit": false,
      "t": 234475,
      "d": 102.5,
      "v": 66
    },
    {
      "midi": 55,
      "hit": false,
      "t": 234602.5,
      "d": 420,
      "v": 100
    },
    {
      "midi": 62,
      "hit": false,
      "t": 234610,
      "d": 127.5,
      "v": 78
    },
    {
      "midi": 60,
      "hit": false,
      "t": 234792.5,
      "d": 85,
      "v": 48
    },
    {
      "midi": 62,
      "hit": false,
      "t": 234970,
      "d": 70,
      "v": 33
    },
    {
      "midi": 50,
      "hit": false,
      "t": 234977.5,
      "d": 205,
      "v": 100
    },
    {
      "midi": 48,
      "hit": false,
      "t": 235217.5,
      "d": 195,
      "v": 100
    },
    {
      "midi": 46,
      "hit": false,
      "t": 235435,
      "d": 225,
      "v": 100
    },
    {
      "midi": 48,
      "hit": false,
      "t": 235680,
      "d": 142.5,
      "v": 100
    },
    {
      "midi": 46,
      "hit": false,
      "t": 235800,
      "d": 132.5,
      "v": 100
    },
    {
      "midi": 62,
      "hit": false,
      "t": 235910,
      "d": 132.5,
      "v": 115
    },
    {
      "midi": 48,
      "hit": false,
      "t": 235910,
      "d": 250,
      "v": 100
    },
    {
      "midi": 64,
      "hit": false,
      "t": 236150,
      "d": 172.5,
      "v": 127
    },
    {
      "midi": 45,
      "hit": false,
      "t": 236160,
      "d": 1440,
      "v": 105
    },
    {
      "midi": 57,
      "hit": false,
      "t": 236160,
      "d": 1440,
      "v": 105
    },
    {
      "midi": 60,
      "hit": false,
      "t": 236160,
      "d": 1440,
      "v": 105
    },
    {
      "midi": 64,
      "hit": false,
      "t": 236160,
      "d": 1440,
      "v": 105
    },
    {
      "midi": 45,
      "hit": false,
      "t": 236177.5,
      "d": 390,
      "v": 100
    },
    {
      "midi": 62,
      "hit": false,
      "t": 236385,
      "d": 110,
      "v": 76
    },
    {
      "midi": 64,
      "hit": false,
      "t": 236527.5,
      "d": 112.5,
      "v": 80
    },
    {
      "midi": 57,
      "hit": false,
      "t": 236527.5,
      "d": 417.5,
      "v": 100
    },
    {
      "midi": 52,
      "hit": false,
      "t": 236900,
      "d": 212.5,
      "v": 100
    },
    {
      "midi": 50,
      "hit": false,
      "t": 237130,
      "d": 217.5,
      "v": 100
    },
    {
      "midi": 48,
      "hit": false,
      "t": 237357.5,
      "d": 225,
      "v": 100
    },
    {
      "midi": 50,
      "hit": false,
      "t": 237595,
      "d": 147.5,
      "v": 100
    },
    {
      "midi": 48,
      "hit": false,
      "t": 237720,
      "d": 150,
      "v": 100
    },
    {
      "midi": 62,
      "hit": false,
      "t": 237817.5,
      "d": 130,
      "v": 109
    },
    {
      "midi": 50,
      "hit": false,
      "t": 237850,
      "d": 230,
      "v": 100
    },
    {
      "midi": 64,
      "hit": false,
      "t": 238067.5,
      "d": 172.5,
      "v": 109
    },
    {
      "midi": 45,
      "hit": false,
      "t": 238080,
      "d": 1200,
      "v": 105
    },
    {
      "midi": 57,
      "hit": false,
      "t": 238080,
      "d": 1200,
      "v": 105
    },
    {
      "midi": 60,
      "hit": false,
      "t": 238080,
      "d": 1200,
      "v": 105
    },
    {
      "midi": 64,
      "hit": false,
      "t": 238080,
      "d": 1200,
      "v": 105
    },
    {
      "midi": 45,
      "hit": false,
      "t": 238080,
      "d": 385,
      "v": 100
    },
    {
      "midi": 62,
      "hit": false,
      "t": 238290,
      "d": 102.5,
      "v": 92
    },
    {
      "midi": 64,
      "hit": false,
      "t": 238412.5,
      "d": 122.5,
      "v": 98
    },
    {
      "midi": 57,
      "hit": false,
      "t": 238442.5,
      "d": 420,
      "v": 100
    },
    {
      "midi": 62,
      "hit": false,
      "t": 238622.5,
      "d": 57.5,
      "v": 60
    },
    {
      "midi": 52,
      "hit": false,
      "t": 238817.5,
      "d": 205,
      "v": 100
    },
    {
      "midi": 50,
      "hit": false,
      "t": 239057.5,
      "d": 195,
      "v": 100
    },
    {
      "midi": 48,
      "hit": false,
      "t": 239275,
      "d": 225,
      "v": 100
    },
    {
      "midi": 50,
      "hit": false,
      "t": 239520,
      "d": 142.5,
      "v": 100
    },
    {
      "midi": 48,
      "hit": false,
      "t": 239640,
      "d": 132.5,
      "v": 100
    },
    {
      "midi": 64,
      "hit": false,
      "t": 239750,
      "d": 130,
      "v": 115
    },
    {
      "midi": 50,
      "hit": false,
      "t": 239750,
      "d": 250,
      "v": 100
    },
    {
      "midi": 65,
      "hit": false,
      "t": 239980,
      "d": 125,
      "v": 115
    },
    {
      "midi": 45,
      "hit": false,
      "t": 240000,
      "d": 1440,
      "v": 105
    },
    {
      "midi": 57,
      "hit": false,
      "t": 240000,
      "d": 1440,
      "v": 105
    },
    {
      "midi": 62,
      "hit": false,
      "t": 240000,
      "d": 1440,
      "v": 105
    },
    {
      "midi": 65,
      "hit": false,
      "t": 240000,
      "d": 1440,
      "v": 105
    },
    {
      "midi": 45,
      "hit": false,
      "t": 240017.5,
      "d": 390,
      "v": 100
    },
    {
      "midi": 64,
      "hit": false,
      "t": 240212.5,
      "d": 92.5,
      "v": 98
    },
    {
      "midi": 65,
      "hit": false,
      "t": 240345,
      "d": 110,
      "v": 76
    },
    {
      "midi": 57,
      "hit": false,
      "t": 240367.5,
      "d": 417.5,
      "v": 100
    },
    {
      "midi": 64,
      "hit": false,
      "t": 240540,
      "d": 65,
      "v": 54
    },
    {
      "midi": 52,
      "hit": false,
      "t": 240740,
      "d": 212.5,
      "v": 100
    },
    {
      "midi": 50,
      "hit": false,
      "t": 240970,
      "d": 217.5,
      "v": 100
    },
    {
      "midi": 48,
      "hit": false,
      "t": 241197.5,
      "d": 225,
      "v": 100
    },
    {
      "midi": 50,
      "hit": false,
      "t": 241435,
      "d": 147.5,
      "v": 100
    },
    {
      "midi": 48,
      "hit": false,
      "t": 241560,
      "d": 150,
      "v": 100
    },
    {
      "midi": 50,
      "hit": false,
      "t": 241690,
      "d": 230,
      "v": 100
    },
    {
      "midi": 60,
      "hit": false,
      "t": 241697.5,
      "d": 127.5,
      "v": 86
    },
    {
      "midi": 43,
      "hit": false,
      "t": 241920,
      "d": 1440,
      "v": 105
    },
    {
      "midi": 55,
      "hit": false,
      "t": 241920,
      "d": 1440,
      "v": 105
    },
    {
      "midi": 59,
      "hit": false,
      "t": 241920,
      "d": 1440,
      "v": 105
    },
    {
      "midi": 62,
      "hit": false,
      "t": 241920,
      "d": 1440,
      "v": 105
    },
    {
      "midi": 62,
      "hit": false,
      "t": 241920,
      "d": 185,
      "v": 115
    },
    {
      "midi": 43,
      "hit": false,
      "t": 241920,
      "d": 385,
      "v": 100
    },
    {
      "midi": 60,
      "hit": false,
      "t": 242155,
      "d": 102.5,
      "v": 66
    },
    {
      "midi": 55,
      "hit": false,
      "t": 242282.5,
      "d": 420,
      "v": 100
    },
    {
      "midi": 62,
      "hit": false,
      "t": 242290,
      "d": 127.5,
      "v": 78
    },
    {
      "midi": 60,
      "hit": false,
      "t": 242472.5,
      "d": 85,
      "v": 48
    },
    {
      "midi": 62,
      "hit": false,
      "t": 242650,
      "d": 70,
      "v": 33
    },
    {
      "midi": 50,
      "hit": false,
      "t": 242657.5,
      "d": 205,
      "v": 100
    },
    {
      "midi": 48,
      "hit": false,
      "t": 242897.5,
      "d": 195,
      "v": 100
    },
    {
      "midi": 46,
      "hit": false,
      "t": 243115,
      "d": 225,
      "v": 100
    },
    {
      "midi": 48,
      "hit": false,
      "t": 243360,
      "d": 142.5,
      "v": 100
    },
    {
      "midi": 46,
      "hit": false,
      "t": 243480,
      "d": 132.5,
      "v": 100
    },
    {
      "midi": 62,
      "hit": false,
      "t": 243590,
      "d": 132.5,
      "v": 115
    },
    {
      "midi": 48,
      "hit": false,
      "t": 243590,
      "d": 250,
      "v": 100
    },
    {
      "midi": 64,
      "hit": false,
      "t": 243830,
      "d": 172.5,
      "v": 127
    },
    {
      "midi": 45,
      "hit": false,
      "t": 243840,
      "d": 1920,
      "v": 105
    },
    {
      "midi": 57,
      "hit": false,
      "t": 243840,
      "d": 1920,
      "v": 105
    },
    {
      "midi": 60,
      "hit": false,
      "t": 243840,
      "d": 1920,
      "v": 105
    },
    {
      "midi": 64,
      "hit": false,
      "t": 243840,
      "d": 1920,
      "v": 105
    },
    {
      "midi": 45,
      "hit": false,
      "t": 243857.5,
      "d": 390,
      "v": 100
    },
    {
      "midi": 62,
      "hit": false,
      "t": 244065,
      "d": 110,
      "v": 76
    },
    {
      "midi": 64,
      "hit": false,
      "t": 244207.5,
      "d": 112.5,
      "v": 80
    },
    {
      "midi": 57,
      "hit": false,
      "t": 244207.5,
      "d": 417.5,
      "v": 100
    },
    {
      "midi": 52,
      "hit": false,
      "t": 244580,
      "d": 212.5,
      "v": 100
    },
    {
      "midi": 50,
      "hit": false,
      "t": 244810,
      "d": 217.5,
      "v": 100
    },
    {
      "midi": 48,
      "hit": false,
      "t": 245037.5,
      "d": 225,
      "v": 100
    },
    {
      "midi": 50,
      "hit": false,
      "t": 245275,
      "d": 147.5,
      "v": 100
    },
    {
      "midi": 48,
      "hit": false,
      "t": 245400,
      "d": 150,
      "v": 100
    },
    {
      "midi": 62,
      "hit": false,
      "t": 245497.5,
      "d": 130,
      "v": 109
    },
    {
      "midi": 50,
      "hit": false,
      "t": 245530,
      "d": 230,
      "v": 100
    },
    {
      "midi": 64,
      "hit": false,
      "t": 245747.5,
      "d": 172.5,
      "v": 109
    },
    {
      "midi": 45,
      "hit": false,
      "t": 245760,
      "d": 1200,
      "v": 105
    },
    {
      "midi": 57,
      "hit": false,
      "t": 245760,
      "d": 1200,
      "v": 105
    },
    {
      "midi": 60,
      "hit": false,
      "t": 245760,
      "d": 1200,
      "v": 105
    },
    {
      "midi": 64,
      "hit": false,
      "t": 245760,
      "d": 1200,
      "v": 105
    },
    {
      "midi": 81,
      "hit": false,
      "t": 245760,
      "d": 170,
      "v": 109
    },
    {
      "midi": 45,
      "hit": false,
      "t": 245760,
      "d": 385,
      "v": 100
    },
    {
      "midi": 62,
      "hit": false,
      "t": 245970,
      "d": 102.5,
      "v": 92
    },
    {
      "midi": 64,
      "hit": false,
      "t": 246092.5,
      "d": 122.5,
      "v": 98
    },
    {
      "midi": 57,
      "hit": false,
      "t": 246122.5,
      "d": 420,
      "v": 100
    },
    {
      "midi": 79,
      "hit": false,
      "t": 246230,
      "d": 515,
      "v": 127
    },
    {
      "midi": 62,
      "hit": false,
      "t": 246302.5,
      "d": 57.5,
      "v": 60
    },
    {
      "midi": 52,
      "hit": false,
      "t": 246497.5,
      "d": 205,
      "v": 100
    },
    {
      "midi": 77,
      "hit": false,
      "t": 246707.5,
      "d": 465,
      "v": 127
    },
    {
      "midi": 50,
      "hit": false,
      "t": 246737.5,
      "d": 195,
      "v": 100
    },
    {
      "midi": 48,
      "hit": false,
      "t": 246955,
      "d": 225,
      "v": 100
    },
    {
      "midi": 74,
      "hit": false,
      "t": 247185,
      "d": 505,
      "v": 98
    },
    {
      "midi": 72,
      "hit": false,
      "t": 247192.5,
      "d": 200,
      "v": 86
    },
    {
      "midi": 50,
      "hit": false,
      "t": 247200,
      "d": 142.5,
      "v": 100
    },
    {
      "midi": 48,
      "hit": false,
      "t": 247320,
      "d": 132.5,
      "v": 100
    },
    {
      "midi": 64,
      "hit": false,
      "t": 247430,
      "d": 130,
      "v": 115
    },
    {
      "midi": 50,
      "hit": false,
      "t": 247430,
      "d": 250,
      "v": 100
    },
    {
      "midi": 77,
      "hit": false,
      "t": 247655,
      "d": 472.5,
      "v": 121
    },
    {
      "midi": 65,
      "hit": false,
      "t": 247660,
      "d": 125,
      "v": 115
    },
    {
      "midi": 45,
      "hit": false,
      "t": 247680,
      "d": 1440,
      "v": 105
    },
    {
      "midi": 57,
      "hit": false,
      "t": 247680,
      "d": 1440,
      "v": 105
    },
    {
      "midi": 62,
      "hit": false,
      "t": 247680,
      "d": 1440,
      "v": 105
    },
    {
      "midi": 65,
      "hit": false,
      "t": 247680,
      "d": 1440,
      "v": 105
    },
    {
      "midi": 45,
      "hit": false,
      "t": 247697.5,
      "d": 390,
      "v": 100
    },
    {
      "midi": 64,
      "hit": false,
      "t": 247892.5,
      "d": 92.5,
      "v": 98
    },
    {
      "midi": 65,
      "hit": false,
      "t": 248025,
      "d": 110,
      "v": 76
    },
    {
      "midi": 57,
      "hit": false,
      "t": 248047.5,
      "d": 417.5,
      "v": 100
    },
    {
      "midi": 64,
      "hit": false,
      "t": 248220,
      "d": 65,
      "v": 54
    },
    {
      "midi": 52,
      "hit": false,
      "t": 248420,
      "d": 212.5,
      "v": 100
    },
    {
      "midi": 50,
      "hit": false,
      "t": 248650,
      "d": 217.5,
      "v": 100
    },
    {
      "midi": 48,
      "hit": false,
      "t": 248877.5,
      "d": 225,
      "v": 100
    },
    {
      "midi": 50,
      "hit": false,
      "t": 249115,
      "d": 147.5,
      "v": 100
    },
    {
      "midi": 48,
      "hit": false,
      "t": 249240,
      "d": 150,
      "v": 100
    },
    {
      "midi": 50,
      "hit": false,
      "t": 249370,
      "d": 230,
      "v": 100
    },
    {
      "midi": 60,
      "hit": false,
      "t": 249377.5,
      "d": 127.5,
      "v": 86
    },
    {
      "midi": 55,
      "hit": false,
      "t": 249600,
      "d": 1440,
      "v": 105
    },
    {
      "midi": 43,
      "hit": false,
      "t": 249600,
      "d": 1680,
      "v": 105
    },
    {
      "midi": 59,
      "hit": false,
      "t": 249600,
      "d": 1680,
      "v": 105
    },
    {
      "midi": 62,
      "hit": false,
      "t": 249600,
      "d": 1680,
      "v": 105
    },
    {
      "midi": 62,
      "hit": false,
      "t": 249600,
      "d": 185,
      "v": 115
    },
    {
      "midi": 43,
      "hit": false,
      "t": 249600,
      "d": 385,
      "v": 100
    },
    {
      "midi": 60,
      "hit": false,
      "t": 249835,
      "d": 102.5,
      "v": 66
    },
    {
      "midi": 55,
      "hit": false,
      "t": 249962.5,
      "d": 420,
      "v": 100
    },
    {
      "midi": 62,
      "hit": false,
      "t": 249970,
      "d": 127.5,
      "v": 78
    },
    {
      "midi": 60,
      "hit": false,
      "t": 250152.5,
      "d": 85,
      "v": 48
    },
    {
      "midi": 62,
      "hit": false,
      "t": 250330,
      "d": 70,
      "v": 33
    },
    {
      "midi": 50,
      "hit": false,
      "t": 250337.5,
      "d": 205,
      "v": 100
    },
    {
      "midi": 48,
      "hit": false,
      "t": 250577.5,
      "d": 195,
      "v": 100
    },
    {
      "midi": 46,
      "hit": false,
      "t": 250795,
      "d": 225,
      "v": 100
    },
    {
      "midi": 48,
      "hit": false,
      "t": 251040,
      "d": 142.5,
      "v": 100
    },
    {
      "midi": 46,
      "hit": false,
      "t": 251160,
      "d": 132.5,
      "v": 100
    },
    {
      "midi": 62,
      "hit": false,
      "t": 251270,
      "d": 132.5,
      "v": 115
    },
    {
      "midi": 48,
      "hit": false,
      "t": 251270,
      "d": 250,
      "v": 100
    },
    {
      "midi": 64,
      "hit": false,
      "t": 251510,
      "d": 172.5,
      "v": 127
    },
    {
      "midi": 45,
      "hit": false,
      "t": 251520,
      "d": 1440,
      "v": 105
    },
    {
      "midi": 57,
      "hit": false,
      "t": 251520,
      "d": 1440,
      "v": 105
    },
    {
      "midi": 60,
      "hit": false,
      "t": 251520,
      "d": 1440,
      "v": 105
    },
    {
      "midi": 64,
      "hit": false,
      "t": 251520,
      "d": 1440,
      "v": 105
    },
    {
      "midi": 45,
      "hit": false,
      "t": 251537.5,
      "d": 390,
      "v": 100
    },
    {
      "midi": 62,
      "hit": false,
      "t": 251745,
      "d": 110,
      "v": 76
    },
    {
      "midi": 64,
      "hit": false,
      "t": 251887.5,
      "d": 112.5,
      "v": 80
    },
    {
      "midi": 57,
      "hit": false,
      "t": 251887.5,
      "d": 417.5,
      "v": 100
    },
    {
      "midi": 52,
      "hit": false,
      "t": 252260,
      "d": 212.5,
      "v": 100
    },
    {
      "midi": 50,
      "hit": false,
      "t": 252490,
      "d": 217.5,
      "v": 100
    },
    {
      "midi": 48,
      "hit": false,
      "t": 252717.5,
      "d": 225,
      "v": 100
    },
    {
      "midi": 50,
      "hit": false,
      "t": 252955,
      "d": 147.5,
      "v": 100
    },
    {
      "midi": 48,
      "hit": false,
      "t": 253080,
      "d": 150,
      "v": 100
    },
    {
      "midi": 62,
      "hit": false,
      "t": 253177.5,
      "d": 130,
      "v": 109
    },
    {
      "midi": 50,
      "hit": false,
      "t": 253210,
      "d": 230,
      "v": 100
    },
    {
      "midi": 64,
      "hit": false,
      "t": 253427.5,
      "d": 172.5,
      "v": 109
    },
    {
      "midi": 81,
      "hit": false,
      "t": 253437.5,
      "d": 525,
      "v": 121
    },
    {
      "midi": 45,
      "hit": false,
      "t": 253440,
      "d": 1200,
      "v": 105
    },
    {
      "midi": 57,
      "hit": false,
      "t": 253440,
      "d": 1200,
      "v": 105
    },
    {
      "midi": 60,
      "hit": false,
      "t": 253440,
      "d": 1200,
      "v": 105
    },
    {
      "midi": 64,
      "hit": false,
      "t": 253440,
      "d": 1200,
      "v": 105
    },
    {
      "midi": 45,
      "hit": false,
      "t": 253440,
      "d": 385,
      "v": 100
    },
    {
      "midi": 62,
      "hit": false,
      "t": 253650,
      "d": 102.5,
      "v": 92
    },
    {
      "midi": 64,
      "hit": false,
      "t": 253772.5,
      "d": 122.5,
      "v": 98
    },
    {
      "midi": 57,
      "hit": false,
      "t": 253802.5,
      "d": 420,
      "v": 100
    },
    {
      "midi": 79,
      "hit": false,
      "t": 253910,
      "d": 515,
      "v": 127
    },
    {
      "midi": 62,
      "hit": false,
      "t": 253982.5,
      "d": 57.5,
      "v": 60
    },
    {
      "midi": 52,
      "hit": false,
      "t": 254177.5,
      "d": 205,
      "v": 100
    },
    {
      "midi": 77,
      "hit": false,
      "t": 254387.5,
      "d": 465,
      "v": 127
    },
    {
      "midi": 50,
      "hit": false,
      "t": 254417.5,
      "d": 195,
      "v": 100
    },
    {
      "midi": 48,
      "hit": false,
      "t": 254635,
      "d": 225,
      "v": 100
    },
    {
      "midi": 79,
      "hit": false,
      "t": 254865,
      "d": 505,
      "v": 98
    },
    {
      "midi": 72,
      "hit": false,
      "t": 254872.5,
      "d": 200,
      "v": 86
    },
    {
      "midi": 50,
      "hit": false,
      "t": 254880,
      "d": 142.5,
      "v": 100
    },
    {
      "midi": 48,
      "hit": false,
      "t": 255000,
      "d": 132.5,
      "v": 100
    },
    {
      "midi": 64,
      "hit": false,
      "t": 255110,
      "d": 130,
      "v": 115
    },
    {
      "midi": 50,
      "hit": false,
      "t": 255110,
      "d": 250,
      "v": 100
    },
    {
      "midi": 77,
      "hit": false,
      "t": 255335,
      "d": 472.5,
      "v": 121
    },
    {
      "midi": 65,
      "hit": false,
      "t": 255340,
      "d": 125,
      "v": 115
    },
    {
      "midi": 45,
      "hit": false,
      "t": 255360,
      "d": 1440,
      "v": 105
    },
    {
      "midi": 57,
      "hit": false,
      "t": 255360,
      "d": 1440,
      "v": 105
    },
    {
      "midi": 62,
      "hit": false,
      "t": 255360,
      "d": 1440,
      "v": 105
    },
    {
      "midi": 65,
      "hit": false,
      "t": 255360,
      "d": 1440,
      "v": 105
    },
    {
      "midi": 45,
      "hit": false,
      "t": 255377.5,
      "d": 390,
      "v": 100
    },
    {
      "midi": 64,
      "hit": false,
      "t": 255572.5,
      "d": 92.5,
      "v": 98
    },
    {
      "midi": 65,
      "hit": false,
      "t": 255705,
      "d": 110,
      "v": 76
    },
    {
      "midi": 57,
      "hit": false,
      "t": 255727.5,
      "d": 417.5,
      "v": 100
    },
    {
      "midi": 64,
      "hit": false,
      "t": 255900,
      "d": 65,
      "v": 54
    },
    {
      "midi": 52,
      "hit": false,
      "t": 256100,
      "d": 212.5,
      "v": 100
    },
    {
      "midi": 50,
      "hit": false,
      "t": 256330,
      "d": 217.5,
      "v": 100
    },
    {
      "midi": 48,
      "hit": false,
      "t": 256557.5,
      "d": 225,
      "v": 100
    },
    {
      "midi": 50,
      "hit": false,
      "t": 256795,
      "d": 147.5,
      "v": 100
    },
    {
      "midi": 48,
      "hit": false,
      "t": 256920,
      "d": 150,
      "v": 100
    },
    {
      "midi": 50,
      "hit": false,
      "t": 257050,
      "d": 230,
      "v": 100
    },
    {
      "midi": 60,
      "hit": false,
      "t": 257057.5,
      "d": 127.5,
      "v": 86
    },
    {
      "midi": 43,
      "hit": false,
      "t": 257280,
      "d": 1440,
      "v": 105
    },
    {
      "midi": 55,
      "hit": false,
      "t": 257280,
      "d": 1440,
      "v": 105
    },
    {
      "midi": 59,
      "hit": false,
      "t": 257280,
      "d": 1440,
      "v": 105
    },
    {
      "midi": 62,
      "hit": false,
      "t": 257280,
      "d": 1440,
      "v": 105
    },
    {
      "midi": 62,
      "hit": false,
      "t": 257280,
      "d": 185,
      "v": 115
    },
    {
      "midi": 43,
      "hit": false,
      "t": 257280,
      "d": 385,
      "v": 100
    },
    {
      "midi": 60,
      "hit": false,
      "t": 257515,
      "d": 102.5,
      "v": 66
    },
    {
      "midi": 55,
      "hit": false,
      "t": 257642.5,
      "d": 420,
      "v": 100
    },
    {
      "midi": 62,
      "hit": false,
      "t": 257650,
      "d": 127.5,
      "v": 78
    },
    {
      "midi": 60,
      "hit": false,
      "t": 257832.5,
      "d": 85,
      "v": 48
    },
    {
      "midi": 62,
      "hit": false,
      "t": 258010,
      "d": 70,
      "v": 33
    },
    {
      "midi": 50,
      "hit": false,
      "t": 258017.5,
      "d": 205,
      "v": 100
    },
    {
      "midi": 48,
      "hit": false,
      "t": 258257.5,
      "d": 195,
      "v": 100
    },
    {
      "midi": 46,
      "hit": false,
      "t": 258475,
      "d": 225,
      "v": 100
    },
    {
      "midi": 48,
      "hit": false,
      "t": 258720,
      "d": 142.5,
      "v": 100
    },
    {
      "midi": 46,
      "hit": false,
      "t": 258840,
      "d": 132.5,
      "v": 100
    },
    {
      "midi": 62,
      "hit": false,
      "t": 258950,
      "d": 132.5,
      "v": 115
    },
    {
      "midi": 48,
      "hit": false,
      "t": 258950,
      "d": 250,
      "v": 100
    },
    {
      "midi": 64,
      "hit": false,
      "t": 259190,
      "d": 172.5,
      "v": 127
    },
    {
      "midi": 45,
      "hit": false,
      "t": 259200,
      "d": 1920,
      "v": 105
    },
    {
      "midi": 57,
      "hit": false,
      "t": 259200,
      "d": 1920,
      "v": 105
    },
    {
      "midi": 60,
      "hit": false,
      "t": 259200,
      "d": 1920,
      "v": 105
    },
    {
      "midi": 64,
      "hit": false,
      "t": 259200,
      "d": 1920,
      "v": 105
    },
    {
      "midi": 45,
      "hit": false,
      "t": 259217.5,
      "d": 390,
      "v": 100
    },
    {
      "midi": 62,
      "hit": false,
      "t": 259425,
      "d": 110,
      "v": 76
    },
    {
      "midi": 64,
      "hit": false,
      "t": 259567.5,
      "d": 112.5,
      "v": 80
    },
    {
      "midi": 57,
      "hit": false,
      "t": 259567.5,
      "d": 417.5,
      "v": 100
    },
    {
      "midi": 52,
      "hit": false,
      "t": 259940,
      "d": 212.5,
      "v": 100
    },
    {
      "midi": 50,
      "hit": false,
      "t": 260170,
      "d": 217.5,
      "v": 100
    },
    {
      "midi": 48,
      "hit": false,
      "t": 260397.5,
      "d": 225,
      "v": 100
    },
    {
      "midi": 50,
      "hit": false,
      "t": 260635,
      "d": 147.5,
      "v": 100
    },
    {
      "midi": 48,
      "hit": false,
      "t": 260760,
      "d": 150,
      "v": 100
    },
    {
      "midi": 62,
      "hit": false,
      "t": 260857.5,
      "d": 130,
      "v": 109
    },
    {
      "midi": 50,
      "hit": false,
      "t": 260890,
      "d": 230,
      "v": 100
    },
    {
      "midi": 69,
      "hit": false,
      "t": 261087.5,
      "d": 150,
      "v": 127
    },
    {
      "midi": 64,
      "hit": false,
      "t": 261107.5,
      "d": 172.5,
      "v": 109
    },
    {
      "midi": 69,
      "hit": false,
      "t": 261580,
      "d": 127.5,
      "v": 109
    },
    {
      "midi": 69,
      "hit": false,
      "t": 262042.5,
      "d": 37.5,
      "v": 72
    },
    {
      "midi": 69,
      "hit": false,
      "t": 262150,
      "d": 62.5,
      "v": 78
    }
  ]
}