{
  "jsonPath": "Pop/Dance Pop/Bob Sinclar/the-beat-goes-on-junior-jack-dub.json",
  "path": "Pop\\Dance Pop\\Bob Sinclar\\The Beat Goes On (Junior Jack Dub).mid",
  "name": "The Beat Goes On (Junior Jack Dub)",
  "difficulty": "Intermediate",
  "bpm": 137.00100239066748,
  "notes": [
    {
      "midi": 58,
      "hit": false,
      "t": 6569.295,
      "d": 217.15169583333318,
      "v": 1
    },
    {
      "midi": 70,
      "hit": false,
      "t": 6569.295,
      "d": 217.15169583333318,
      "v": 1
    },
    {
      "midi": 60,
      "hit": false,
      "t": 6788.2715,
      "d": 217.15169583333318,
      "v": 1
    },
    {
      "midi": 72,
      "hit": false,
      "t": 6788.2715,
      "d": 217.15169583333318,
      "v": 1
    },
    {
      "midi": 63,
      "hit": false,
      "t": 7007.248,
      "d": 874.0811958333334,
      "v": 1
    },
    {
      "midi": 75,
      "hit": false,
      "t": 7007.248,
      "d": 874.0811958333334,
      "v": 1
    },
    {
      "midi": 60,
      "hit": false,
      "t": 7883.1539999999995,
      "d": 874.0811958333334,
      "v": 1
    },
    {
      "midi": 72,
      "hit": false,
      "t": 7883.1539999999995,
      "d": 874.0811958333334,
      "v": 1
    },
    {
      "midi": 58,
      "hit": false,
      "t": 8759.06,
      "d": 217.1516958333341,
      "v": 1
    },
    {
      "midi": 70,
      "hit": false,
      "t": 8759.06,
      "d": 217.1516958333341,
      "v": 1
    },
    {
      "midi": 60,
      "hit": false,
      "t": 8978.0365,
      "d": 217.1516958333341,
      "v": 1
    },
    {
      "midi": 72,
      "hit": false,
      "t": 8978.0365,
      "d": 217.1516958333341,
      "v": 1
    },
    {
      "midi": 58,
      "hit": false,
      "t": 9197.013,
      "d": 217.1516958333341,
      "v": 1
    },
    {
      "midi": 70,
      "hit": false,
      "t": 9197.013,
      "d": 217.1516958333341,
      "v": 1
    },
    {
      "midi": 53,
      "hit": false,
      "t": 9415.989500000001,
      "d": 1093.0576958333277,
      "v": 1
    },
    {
      "midi": 65,
      "hit": false,
      "t": 9415.989500000001,
      "d": 1093.0576958333277,
      "v": 1
    },
    {
      "midi": 58,
      "hit": false,
      "t": 13576.542999999996,
      "d": 217.1516958333341,
      "v": 1
    },
    {
      "midi": 70,
      "hit": false,
      "t": 13576.542999999996,
      "d": 217.1516958333341,
      "v": 1
    },
    {
      "midi": 60,
      "hit": false,
      "t": 13795.519499999997,
      "d": 217.1516958333341,
      "v": 1
    },
    {
      "midi": 72,
      "hit": false,
      "t": 13795.519499999997,
      "d": 217.1516958333341,
      "v": 1
    },
    {
      "midi": 63,
      "hit": false,
      "t": 14014.495999999997,
      "d": 874.0811958333343,
      "v": 1
    },
    {
      "midi": 75,
      "hit": false,
      "t": 14014.495999999997,
      "d": 874.0811958333343,
      "v": 1
    },
    {
      "midi": 60,
      "hit": false,
      "t": 14890.401999999998,
      "d": 874.0811958333325,
      "v": 1
    },
    {
      "midi": 72,
      "hit": false,
      "t": 14890.401999999998,
      "d": 874.0811958333325,
      "v": 1
    },
    {
      "midi": 58,
      "hit": false,
      "t": 15766.307999999997,
      "d": 217.1516958333341,
      "v": 1
    },
    {
      "midi": 70,
      "hit": false,
      "t": 15766.307999999997,
      "d": 217.1516958333341,
      "v": 1
    },
    {
      "midi": 60,
      "hit": false,
      "t": 15985.284499999998,
      "d": 217.1516958333341,
      "v": 1
    },
    {
      "midi": 72,
      "hit": false,
      "t": 15985.284499999998,
      "d": 217.1516958333341,
      "v": 1
    },
    {
      "midi": 58,
      "hit": false,
      "t": 16204.260999999999,
      "d": 217.1516958333341,
      "v": 1
    },
    {
      "midi": 70,
      "hit": false,
      "t": 16204.260999999999,
      "d": 217.1516958333341,
      "v": 1
    },
    {
      "midi": 53,
      "hit": false,
      "t": 16423.2375,
      "d": 1093.0576958333295,
      "v": 1
    },
    {
      "midi": 65,
      "hit": false,
      "t": 16423.2375,
      "d": 1093.0576958333295,
      "v": 1
    },
    {
      "midi": 63,
      "hit": false,
      "t": 45547.111999999994,
      "d": 2187.940195833333,
      "v": 1
    },
    {
      "midi": 60,
      "hit": false,
      "t": 47736.87699999999,
      "d": 217.15169583333045,
      "v": 1
    },
    {
      "midi": 63,
      "hit": false,
      "t": 47955.85349999999,
      "d": 655.1046958333318,
      "v": 1
    },
    {
      "midi": 65,
      "hit": false,
      "t": 48612.78299999999,
      "d": 436.12819583333476,
      "v": 1
    },
    {
      "midi": 63,
      "hit": false,
      "t": 49050.73599999999,
      "d": 1749.9871958333315,
      "v": 1
    },
    {
      "midi": 72,
      "hit": false,
      "t": 58466.72550000001,
      "d": 191.6044374999983,
      "v": 115
    },
    {
      "midi": 84,
      "hit": false,
      "t": 58466.72550000001,
      "d": 191.6044374999983,
      "v": 115
    },
    {
      "midi": 75,
      "hit": false,
      "t": 58685.702000000005,
      "d": 354.0120083333313,
      "v": 113
    },
    {
      "midi": 87,
      "hit": false,
      "t": 58685.702000000005,
      "d": 354.0120083333313,
      "v": 113
    },
    {
      "midi": 74,
      "hit": false,
      "t": 59123.655000000006,
      "d": 415.1429479166691,
      "v": 124
    },
    {
      "midi": 86,
      "hit": false,
      "t": 59123.655000000006,
      "d": 415.1429479166691,
      "v": 124
    },
    {
      "midi": 70,
      "hit": false,
      "t": 59561.60800000001,
      "d": 1293.7861541666643,
      "v": 104
    },
    {
      "midi": 82,
      "hit": false,
      "t": 59561.60800000001,
      "d": 1293.7861541666643,
      "v": 104
    },
    {
      "midi": 72,
      "hit": false,
      "t": 61970.349500000004,
      "d": 191.6044374999983,
      "v": 115
    },
    {
      "midi": 84,
      "hit": false,
      "t": 61970.349500000004,
      "d": 191.6044374999983,
      "v": 115
    },
    {
      "midi": 75,
      "hit": false,
      "t": 62189.326,
      "d": 354.0120083333313,
      "v": 113
    },
    {
      "midi": 87,
      "hit": false,
      "t": 62189.326,
      "d": 354.0120083333313,
      "v": 113
    },
    {
      "midi": 74,
      "hit": false,
      "t": 62627.279,
      "d": 415.1429479166691,
      "v": 124
    },
    {
      "midi": 86,
      "hit": false,
      "t": 62627.279,
      "d": 415.1429479166691,
      "v": 124
    },
    {
      "midi": 70,
      "hit": false,
      "t": 63065.232,
      "d": 1293.7861541666643,
      "v": 104
    },
    {
      "midi": 82,
      "hit": false,
      "t": 63065.232,
      "d": 1293.7861541666643,
      "v": 104
    },
    {
      "midi": 72,
      "hit": false,
      "t": 72481.2215,
      "d": 191.6044375000056,
      "v": 115
    },
    {
      "midi": 84,
      "hit": false,
      "t": 72481.2215,
      "d": 191.6044375000056,
      "v": 115
    },
    {
      "midi": 75,
      "hit": false,
      "t": 72700.198,
      "d": 354.0120083333313,
      "v": 113
    },
    {
      "midi": 87,
      "hit": false,
      "t": 72700.198,
      "d": 354.0120083333313,
      "v": 113
    },
    {
      "midi": 74,
      "hit": false,
      "t": 73138.151,
      "d": 415.1429479166691,
      "v": 124
    },
    {
      "midi": 86,
      "hit": false,
      "t": 73138.151,
      "d": 415.1429479166691,
      "v": 124
    },
    {
      "midi": 70,
      "hit": false,
      "t": 73576.104,
      "d": 1293.7861541666643,
      "v": 104
    },
    {
      "midi": 82,
      "hit": false,
      "t": 73576.104,
      "d": 1293.7861541666643,
      "v": 104
    },
    {
      "midi": 58,
      "hit": false,
      "t": 75327.916,
      "d": 1749.9871958333388,
      "v": 1
    },
    {
      "midi": 63,
      "hit": false,
      "t": 75327.916,
      "d": 1749.9871958333388,
      "v": 1
    },
    {
      "midi": 67,
      "hit": false,
      "t": 75327.916,
      "d": 1749.9871958333388,
      "v": 1
    },
    {
      "midi": 70,
      "hit": false,
      "t": 75327.916,
      "d": 1749.9871958333388,
      "v": 1
    },
    {
      "midi": 51,
      "hit": false,
      "t": 78831.54000000001,
      "d": 1749.9871958333388,
      "v": 1
    },
    {
      "midi": 63,
      "hit": false,
      "t": 78831.54000000001,
      "d": 1749.9871958333388,
      "v": 1
    },
    {
      "midi": 75,
      "hit": false,
      "t": 78831.54000000001,
      "d": 1749.9871958333388,
      "v": 1
    },
    {
      "midi": 58,
      "hit": false,
      "t": 83649.02300000002,
      "d": 217.15169583333773,
      "v": 1
    },
    {
      "midi": 70,
      "hit": false,
      "t": 83649.02300000002,
      "d": 217.15169583333773,
      "v": 1
    },
    {
      "midi": 60,
      "hit": false,
      "t": 83867.99950000002,
      "d": 217.15169583333773,
      "v": 1
    },
    {
      "midi": 72,
      "hit": false,
      "t": 83867.99950000002,
      "d": 217.15169583333773,
      "v": 1
    },
    {
      "midi": 63,
      "hit": false,
      "t": 84086.97600000002,
      "d": 874.0811958333361,
      "v": 1
    },
    {
      "midi": 75,
      "hit": false,
      "t": 84086.97600000002,
      "d": 874.0811958333361,
      "v": 1
    },
    {
      "midi": 60,
      "hit": false,
      "t": 84962.88200000003,
      "d": 874.0811958333361,
      "v": 1
    },
    {
      "midi": 72,
      "hit": false,
      "t": 84962.88200000003,
      "d": 874.0811958333361,
      "v": 1
    },
    {
      "midi": 58,
      "hit": false,
      "t": 85838.78800000003,
      "d": 217.15169583333773,
      "v": 1
    },
    {
      "midi": 70,
      "hit": false,
      "t": 85838.78800000003,
      "d": 217.15169583333773,
      "v": 1
    },
    {
      "midi": 60,
      "hit": false,
      "t": 86057.76450000003,
      "d": 217.15169583333773,
      "v": 1
    },
    {
      "midi": 72,
      "hit": false,
      "t": 86057.76450000003,
      "d": 217.15169583333773,
      "v": 1
    },
    {
      "midi": 58,
      "hit": false,
      "t": 86276.74100000004,
      "d": 217.15169583333773,
      "v": 1
    },
    {
      "midi": 70,
      "hit": false,
      "t": 86276.74100000004,
      "d": 217.15169583333773,
      "v": 1
    },
    {
      "midi": 53,
      "hit": false,
      "t": 86495.71750000004,
      "d": 1093.057695833355,
      "v": 1
    },
    {
      "midi": 65,
      "hit": false,
      "t": 86495.71750000004,
      "d": 1093.057695833355,
      "v": 1
    },
    {
      "midi": 63,
      "hit": false,
      "t": 115619.59200000006,
      "d": 2187.940195833333,
      "v": 1
    },
    {
      "midi": 60,
      "hit": false,
      "t": 117809.35700000006,
      "d": 217.15169583333773,
      "v": 1
    },
    {
      "midi": 63,
      "hit": false,
      "t": 118028.33350000007,
      "d": 655.1046958333318,
      "v": 1
    },
    {
      "midi": 65,
      "hit": false,
      "t": 118685.26300000006,
      "d": 436.1281958333275,
      "v": 1
    },
    {
      "midi": 63,
      "hit": false,
      "t": 119123.21600000006,
      "d": 1749.9871958333388,
      "v": 1
    },
    {
      "midi": 72,
      "hit": false,
      "t": 128539.20550000001,
      "d": 191.6044375000056,
      "v": 115
    },
    {
      "midi": 84,
      "hit": false,
      "t": 128539.20550000001,
      "d": 191.6044375000056,
      "v": 115
    },
    {
      "midi": 75,
      "hit": false,
      "t": 128758.18200000002,
      "d": 354.0120083333313,
      "v": 113
    },
    {
      "midi": 87,
      "hit": false,
      "t": 128758.18200000002,
      "d": 354.0120083333313,
      "v": 113
    },
    {
      "midi": 74,
      "hit": false,
      "t": 129196.13500000001,
      "d": 415.1429479166691,
      "v": 124
    },
    {
      "midi": 86,
      "hit": false,
      "t": 129196.13500000001,
      "d": 415.1429479166691,
      "v": 124
    },
    {
      "midi": 70,
      "hit": false,
      "t": 129634.08800000002,
      "d": 1293.7861541666643,
      "v": 104
    },
    {
      "midi": 82,
      "hit": false,
      "t": 129634.08800000002,
      "d": 1293.7861541666643,
      "v": 104
    },
    {
      "midi": 72,
      "hit": false,
      "t": 132042.82950000002,
      "d": 191.6044375000056,
      "v": 115
    },
    {
      "midi": 84,
      "hit": false,
      "t": 132042.82950000002,
      "d": 191.6044375000056,
      "v": 115
    },
    {
      "midi": 75,
      "hit": false,
      "t": 132261.80600000004,
      "d": 354.0120083333459,
      "v": 113
    },
    {
      "midi": 87,
      "hit": false,
      "t": 132261.80600000004,
      "d": 354.0120083333459,
      "v": 113
    },
    {
      "midi": 74,
      "hit": false,
      "t": 132699.75900000005,
      "d": 415.1429479166691,
      "v": 124
    },
    {
      "midi": 86,
      "hit": false,
      "t": 132699.75900000005,
      "d": 415.1429479166691,
      "v": 124
    },
    {
      "midi": 70,
      "hit": false,
      "t": 133137.71200000006,
      "d": 1293.786154166679,
      "v": 104
    },
    {
      "midi": 82,
      "hit": false,
      "t": 133137.71200000006,
      "d": 1293.786154166679,
      "v": 104
    },
    {
      "midi": 72,
      "hit": false,
      "t": 142553.70150000008,
      "d": 191.6044375000056,
      "v": 115
    },
    {
      "midi": 84,
      "hit": false,
      "t": 142553.70150000008,
      "d": 191.6044375000056,
      "v": 115
    },
    {
      "midi": 75,
      "hit": false,
      "t": 142772.6780000001,
      "d": 354.0120083333459,
      "v": 113
    },
    {
      "midi": 87,
      "hit": false,
      "t": 142772.6780000001,
      "d": 354.0120083333459,
      "v": 113
    },
    {
      "midi": 74,
      "hit": false,
      "t": 143210.6310000001,
      "d": 415.1429479166691,
      "v": 124
    },
    {
      "midi": 86,
      "hit": false,
      "t": 143210.6310000001,
      "d": 415.1429479166691,
      "v": 124
    },
    {
      "midi": 70,
      "hit": false,
      "t": 143648.58400000012,
      "d": 1293.786154166679,
      "v": 104
    },
    {
      "midi": 82,
      "hit": false,
      "t": 143648.58400000012,
      "d": 1293.786154166679,
      "v": 104
    },
    {
      "midi": 58,
      "hit": false,
      "t": 145400.39600000007,
      "d": 1749.9871958333242,
      "v": 1
    },
    {
      "midi": 63,
      "hit": false,
      "t": 145400.39600000007,
      "d": 1749.9871958333242,
      "v": 1
    },
    {
      "midi": 67,
      "hit": false,
      "t": 145400.39600000007,
      "d": 1749.9871958333242,
      "v": 1
    },
    {
      "midi": 70,
      "hit": false,
      "t": 145400.39600000007,
      "d": 1749.9871958333242,
      "v": 1
    },
    {
      "midi": 51,
      "hit": false,
      "t": 148904.02000000005,
      "d": 1749.9871958333242,
      "v": 1
    },
    {
      "midi": 63,
      "hit": false,
      "t": 148904.02000000005,
      "d": 1749.9871958333242,
      "v": 1
    },
    {
      "midi": 75,
      "hit": false,
      "t": 148904.02000000005,
      "d": 1749.9871958333242,
      "v": 1
    },
    {
      "midi": 72,
      "hit": false,
      "t": 156568.19750000013,
      "d": 191.6044375000056,
      "v": 115
    },
    {
      "midi": 84,
      "hit": false,
      "t": 156568.19750000013,
      "d": 191.6044375000056,
      "v": 115
    },
    {
      "midi": 75,
      "hit": false,
      "t": 156787.17400000014,
      "d": 354.0120083333459,
      "v": 113
    },
    {
      "midi": 87,
      "hit": false,
      "t": 156787.17400000014,
      "d": 354.0120083333459,
      "v": 113
    },
    {
      "midi": 74,
      "hit": false,
      "t": 157225.12700000015,
      "d": 415.1429479166691,
      "v": 124
    },
    {
      "midi": 86,
      "hit": false,
      "t": 157225.12700000015,
      "d": 415.1429479166691,
      "v": 124
    },
    {
      "midi": 82,
      "hit": false,
      "t": 157663.08000000016,
      "d": 1665.133802083321,
      "v": 108
    },
    {
      "midi": 70,
      "hit": false,
      "t": 157663.08000000016,
      "d": 1695.2430708333268,
      "v": 108
    },
    {
      "midi": 84,
      "hit": false,
      "t": 160290.79800000016,
      "d": 244.5237583333219,
      "v": 118
    },
    {
      "midi": 72,
      "hit": false,
      "t": 160290.79800000016,
      "d": 267.33381041666144,
      "v": 119
    },
    {
      "midi": 86,
      "hit": false,
      "t": 160728.75100000016,
      "d": 264.59660416666884,
      "v": 123
    },
    {
      "midi": 74,
      "hit": false,
      "t": 160728.75100000016,
      "d": 287.4066562500084,
      "v": 105
    },
    {
      "midi": 87,
      "hit": false,
      "t": 161166.70400000017,
      "d": 2116.7728333333216,
      "v": 113
    },
    {
      "midi": 75,
      "hit": false,
      "t": 161166.70400000017,
      "d": 2124.072049999988,
      "v": 113
    },
    {
      "midi": 55,
      "hit": false,
      "t": 165984.18700000003,
      "d": 436.1281958333275,
      "v": 1
    },
    {
      "midi": 67,
      "hit": false,
      "t": 165984.18700000003,
      "d": 436.1281958333275,
      "v": 1
    },
    {
      "midi": 72,
      "hit": false,
      "t": 177589.94150000016,
      "d": 191.6044375000056,
      "v": 115
    },
    {
      "midi": 84,
      "hit": false,
      "t": 177589.94150000016,
      "d": 191.6044375000056,
      "v": 115
    },
    {
      "midi": 75,
      "hit": false,
      "t": 177808.91800000018,
      "d": 354.0120083333459,
      "v": 113
    },
    {
      "midi": 87,
      "hit": false,
      "t": 177808.91800000018,
      "d": 354.0120083333459,
      "v": 113
    },
    {
      "midi": 74,
      "hit": false,
      "t": 178246.8710000002,
      "d": 415.1429479166691,
      "v": 124
    },
    {
      "midi": 86,
      "hit": false,
      "t": 178246.8710000002,
      "d": 415.1429479166691,
      "v": 124
    },
    {
      "midi": 70,
      "hit": false,
      "t": 178684.8240000002,
      "d": 1293.786154166679,
      "v": 104
    },
    {
      "midi": 82,
      "hit": false,
      "t": 178684.8240000002,
      "d": 1293.786154166679,
      "v": 104
    },
    {
      "midi": 72,
      "hit": false,
      "t": 181093.5655000002,
      "d": 191.6044375000056,
      "v": 115
    },
    {
      "midi": 84,
      "hit": false,
      "t": 181093.5655000002,
      "d": 191.6044375000056,
      "v": 115
    },
    {
      "midi": 75,
      "hit": false,
      "t": 181312.54200000022,
      "d": 354.0120083333459,
      "v": 113
    },
    {
      "midi": 87,
      "hit": false,
      "t": 181312.54200000022,
      "d": 354.0120083333459,
      "v": 113
    },
    {
      "midi": 74,
      "hit": false,
      "t": 181750.49500000023,
      "d": 415.1429479166691,
      "v": 124
    },
    {
      "midi": 86,
      "hit": false,
      "t": 181750.49500000023,
      "d": 415.1429479166691,
      "v": 124
    },
    {
      "midi": 70,
      "hit": false,
      "t": 182188.44800000024,
      "d": 1293.786154166679,
      "v": 104
    },
    {
      "midi": 82,
      "hit": false,
      "t": 182188.44800000024,
      "d": 1293.786154166679,
      "v": 104
    },
    {
      "midi": 72,
      "hit": false,
      "t": 191604.43750000026,
      "d": 191.6044375000056,
      "v": 115
    },
    {
      "midi": 84,
      "hit": false,
      "t": 191604.43750000026,
      "d": 191.6044375000056,
      "v": 115
    },
    {
      "midi": 75,
      "hit": false,
      "t": 191823.41400000028,
      "d": 354.0120083333459,
      "v": 113
    },
    {
      "midi": 87,
      "hit": false,
      "t": 191823.41400000028,
      "d": 354.0120083333459,
      "v": 113
    },
    {
      "midi": 74,
      "hit": false,
      "t": 192261.3670000003,
      "d": 415.1429479166691,
      "v": 124
    },
    {
      "midi": 86,
      "hit": false,
      "t": 192261.3670000003,
      "d": 415.1429479166691,
      "v": 124
    },
    {
      "midi": 70,
      "hit": false,
      "t": 192699.3200000003,
      "d": 1293.786154166679,
      "v": 104
    },
    {
      "midi": 82,
      "hit": false,
      "t": 192699.3200000003,
      "d": 1293.786154166679,
      "v": 104
    },
    {
      "midi": 58,
      "hit": false,
      "t": 194451.13200000004,
      "d": 1749.9871958333242,
      "v": 1
    },
    {
      "midi": 63,
      "hit": false,
      "t": 194451.13200000004,
      "d": 1749.9871958333242,
      "v": 1
    },
    {
      "midi": 67,
      "hit": false,
      "t": 194451.13200000004,
      "d": 1749.9871958333242,
      "v": 1
    },
    {
      "midi": 70,
      "hit": false,
      "t": 194451.13200000004,
      "d": 1749.9871958333242,
      "v": 1
    },
    {
      "midi": 51,
      "hit": false,
      "t": 197954.75600000002,
      "d": 1749.9871958333242,
      "v": 1
    },
    {
      "midi": 63,
      "hit": false,
      "t": 197954.75600000002,
      "d": 1749.9871958333242,
      "v": 1
    },
    {
      "midi": 75,
      "hit": false,
      "t": 197954.75600000002,
      "d": 1749.9871958333242,
      "v": 1
    },
    {
      "midi": 58,
      "hit": false,
      "t": 202772.239,
      "d": 217.15169583333773,
      "v": 1
    },
    {
      "midi": 70,
      "hit": false,
      "t": 202772.239,
      "d": 217.15169583333773,
      "v": 1
    },
    {
      "midi": 60,
      "hit": false,
      "t": 202991.21550000002,
      "d": 217.15169583333773,
      "v": 1
    },
    {
      "midi": 72,
      "hit": false,
      "t": 202991.21550000002,
      "d": 217.15169583333773,
      "v": 1
    },
    {
      "midi": 63,
      "hit": false,
      "t": 203210.19200000004,
      "d": 874.0811958333361,
      "v": 1
    },
    {
      "midi": 75,
      "hit": false,
      "t": 203210.19200000004,
      "d": 874.0811958333361,
      "v": 1
    },
    {
      "midi": 60,
      "hit": false,
      "t": 204086.09800000006,
      "d": 874.0811958333361,
      "v": 1
    },
    {
      "midi": 72,
      "hit": false,
      "t": 204086.09800000006,
      "d": 874.0811958333361,
      "v": 1
    }
  ]
}