{
  "jsonPath": "Soundtracks/Video Game Music/Chrono Trigger/chrono-trigger-600ad.json",
  "path": "Soundtracks\\Video Game Music\\Chrono Trigger\\Chrono_Trigger_600AD.mid",
  "name": "Chrono_Trigger_600AD",
  "difficulty": "Advanced",
  "bpm": 85.00004250002125,
  "notes": [
    {
      "midi": 86,
      "hit": false,
      "t": 0,
      "d": 588.235,
      "v": 92
    },
    {
      "midi": 88,
      "hit": false,
      "t": 705.8820000000001,
      "d": 588.2350000000001,
      "v": 92
    },
    {
      "midi": 89,
      "hit": false,
      "t": 1411.7640000000001,
      "d": 345.5880625,
      "v": 92
    },
    {
      "midi": 38,
      "hit": false,
      "t": 1411.7640000000001,
      "d": 345.5880625,
      "v": 75
    },
    {
      "midi": 50,
      "hit": false,
      "t": 1411.7640000000001,
      "d": 345.5880625,
      "v": 75
    },
    {
      "midi": 88,
      "hit": false,
      "t": 1764.7050000000002,
      "d": 345.5880625000002,
      "v": 92
    },
    {
      "midi": 57,
      "hit": false,
      "t": 1764.7050000000002,
      "d": 345.5880625000002,
      "v": 75
    },
    {
      "midi": 84,
      "hit": false,
      "t": 2117.646,
      "d": 345.5880625,
      "v": 92
    },
    {
      "midi": 64,
      "hit": false,
      "t": 2117.646,
      "d": 345.5880625,
      "v": 75
    },
    {
      "midi": 81,
      "hit": false,
      "t": 2470.587,
      "d": 345.5880625,
      "v": 92
    },
    {
      "midi": 38,
      "hit": false,
      "t": 2470.587,
      "d": 345.5880625,
      "v": 75
    },
    {
      "midi": 50,
      "hit": false,
      "t": 2470.587,
      "d": 345.5880625,
      "v": 75
    },
    {
      "midi": 86,
      "hit": false,
      "t": 2823.528,
      "d": 588.2350000000001,
      "v": 92
    },
    {
      "midi": 34,
      "hit": false,
      "t": 2823.528,
      "d": 345.5880625,
      "v": 75
    },
    {
      "midi": 46,
      "hit": false,
      "t": 2823.528,
      "d": 345.5880625,
      "v": 75
    },
    {
      "midi": 53,
      "hit": false,
      "t": 3176.4689999999996,
      "d": 345.5880625,
      "v": 75
    },
    {
      "midi": 60,
      "hit": false,
      "t": 3529.4099999999994,
      "d": 345.5880625,
      "v": 75
    },
    {
      "midi": 34,
      "hit": false,
      "t": 3882.350999999999,
      "d": 345.58806250000043,
      "v": 75
    },
    {
      "midi": 46,
      "hit": false,
      "t": 3882.350999999999,
      "d": 345.58806250000043,
      "v": 75
    },
    {
      "midi": 86,
      "hit": false,
      "t": 3882.351,
      "d": 345.58806250000043,
      "v": 92
    },
    {
      "midi": 33,
      "hit": false,
      "t": 4235.2919999999995,
      "d": 345.5880625,
      "v": 75
    },
    {
      "midi": 45,
      "hit": false,
      "t": 4235.2919999999995,
      "d": 345.5880625,
      "v": 75
    },
    {
      "midi": 84,
      "hit": false,
      "t": 4235.292,
      "d": 345.5880625,
      "v": 92
    },
    {
      "midi": 52,
      "hit": false,
      "t": 4588.232999999999,
      "d": 345.5880625,
      "v": 75
    },
    {
      "midi": 81,
      "hit": false,
      "t": 4588.233,
      "d": 345.5880625,
      "v": 92
    },
    {
      "midi": 36,
      "hit": false,
      "t": 4941.173999999999,
      "d": 345.5880625,
      "v": 75
    },
    {
      "midi": 48,
      "hit": false,
      "t": 4941.173999999999,
      "d": 345.5880625,
      "v": 75
    },
    {
      "midi": 77,
      "hit": false,
      "t": 4941.174,
      "d": 345.5880625,
      "v": 92
    },
    {
      "midi": 60,
      "hit": false,
      "t": 5294.114999999999,
      "d": 345.5880625,
      "v": 75
    },
    {
      "midi": 79,
      "hit": false,
      "t": 5294.115,
      "d": 345.5880625,
      "v": 92
    },
    {
      "midi": 41,
      "hit": false,
      "t": 5647.055999999999,
      "d": 345.5880625,
      "v": 75
    },
    {
      "midi": 53,
      "hit": false,
      "t": 5647.055999999999,
      "d": 345.5880625,
      "v": 75
    },
    {
      "midi": 81,
      "hit": false,
      "t": 5647.056,
      "d": 588.2349999999997,
      "v": 92
    },
    {
      "midi": 57,
      "hit": false,
      "t": 5999.9969999999985,
      "d": 345.5880625,
      "v": 75
    },
    {
      "midi": 40,
      "hit": false,
      "t": 6352.937999999998,
      "d": 345.5880625,
      "v": 75
    },
    {
      "midi": 52,
      "hit": false,
      "t": 6352.937999999998,
      "d": 345.5880625,
      "v": 75
    },
    {
      "midi": 79,
      "hit": false,
      "t": 6352.937999999999,
      "d": 588.2349999999997,
      "v": 92
    },
    {
      "midi": 55,
      "hit": false,
      "t": 6705.878999999998,
      "d": 345.5880625,
      "v": 75
    },
    {
      "midi": 38,
      "hit": false,
      "t": 7058.819999999998,
      "d": 345.5880625,
      "v": 75
    },
    {
      "midi": 50,
      "hit": false,
      "t": 7058.819999999998,
      "d": 345.5880625,
      "v": 75
    },
    {
      "midi": 76,
      "hit": false,
      "t": 7058.819999999999,
      "d": 345.5880625,
      "v": 92
    },
    {
      "midi": 57,
      "hit": false,
      "t": 7411.760999999998,
      "d": 345.5880625,
      "v": 75
    },
    {
      "midi": 77,
      "hit": false,
      "t": 7411.760999999999,
      "d": 345.5880625,
      "v": 92
    },
    {
      "midi": 64,
      "hit": false,
      "t": 7764.7019999999975,
      "d": 345.5880625,
      "v": 75
    },
    {
      "midi": 81,
      "hit": false,
      "t": 7764.701999999998,
      "d": 345.5880625,
      "v": 92
    },
    {
      "midi": 38,
      "hit": false,
      "t": 8117.642999999997,
      "d": 345.5880625,
      "v": 75
    },
    {
      "midi": 50,
      "hit": false,
      "t": 8117.642999999997,
      "d": 345.5880625,
      "v": 75
    },
    {
      "midi": 84,
      "hit": false,
      "t": 8117.642999999998,
      "d": 345.5880625000009,
      "v": 92
    },
    {
      "midi": 31,
      "hit": false,
      "t": 8470.583999999997,
      "d": 345.5880625000009,
      "v": 75
    },
    {
      "midi": 43,
      "hit": false,
      "t": 8470.583999999997,
      "d": 345.5880625000009,
      "v": 75
    },
    {
      "midi": 79,
      "hit": false,
      "t": 8470.583999999999,
      "d": 588.2350000000006,
      "v": 92
    },
    {
      "midi": 84,
      "hit": false,
      "t": 8470.583999999999,
      "d": 588.2350000000006,
      "v": 92
    },
    {
      "midi": 88,
      "hit": false,
      "t": 8470.583999999999,
      "d": 588.2350000000006,
      "v": 92
    },
    {
      "midi": 50,
      "hit": false,
      "t": 8823.524999999998,
      "d": 345.5880625000009,
      "v": 75
    },
    {
      "midi": 79,
      "hit": false,
      "t": 9176.466,
      "d": 588.2350000000006,
      "v": 92
    },
    {
      "midi": 84,
      "hit": false,
      "t": 9176.466,
      "d": 588.2350000000006,
      "v": 92
    },
    {
      "midi": 89,
      "hit": false,
      "t": 9176.466,
      "d": 588.2350000000006,
      "v": 92
    },
    {
      "midi": 43,
      "hit": false,
      "t": 9529.407,
      "d": 345.5880625000009,
      "v": 75
    },
    {
      "midi": 55,
      "hit": false,
      "t": 9529.407,
      "d": 345.5880625000009,
      "v": 75
    },
    {
      "midi": 36,
      "hit": false,
      "t": 9882.348,
      "d": 345.5880625000009,
      "v": 75
    },
    {
      "midi": 48,
      "hit": false,
      "t": 9882.348,
      "d": 345.5880625000009,
      "v": 75
    },
    {
      "midi": 77,
      "hit": false,
      "t": 9882.348000000002,
      "d": 345.5880625000009,
      "v": 92
    },
    {
      "midi": 79,
      "hit": false,
      "t": 9882.348000000002,
      "d": 345.5880625000009,
      "v": 92
    },
    {
      "midi": 84,
      "hit": false,
      "t": 9882.348000000002,
      "d": 345.5880625000009,
      "v": 92
    },
    {
      "midi": 67,
      "hit": false,
      "t": 10235.289000000002,
      "d": 345.5880625000009,
      "v": 92
    },
    {
      "midi": 74,
      "hit": false,
      "t": 10588.230000000003,
      "d": 345.5880625000009,
      "v": 92
    },
    {
      "midi": 31,
      "hit": false,
      "t": 10941.171,
      "d": 345.5880625000009,
      "v": 75
    },
    {
      "midi": 43,
      "hit": false,
      "t": 10941.171,
      "d": 345.5880625000009,
      "v": 75
    },
    {
      "midi": 77,
      "hit": false,
      "t": 10941.171000000004,
      "d": 345.5880625000009,
      "v": 92
    },
    {
      "midi": 36,
      "hit": false,
      "t": 11294.112000000001,
      "d": 588.2350000000006,
      "v": 75
    },
    {
      "midi": 48,
      "hit": false,
      "t": 11294.112000000001,
      "d": 588.2350000000006,
      "v": 75
    },
    {
      "midi": 72,
      "hit": false,
      "t": 11294.112000000005,
      "d": 588.2350000000006,
      "v": 92
    },
    {
      "midi": 76,
      "hit": false,
      "t": 11294.112000000005,
      "d": 588.2350000000006,
      "v": 92
    },
    {
      "midi": 88,
      "hit": false,
      "t": 11999.994000000006,
      "d": 588.2350000000006,
      "v": 92
    },
    {
      "midi": 38,
      "hit": false,
      "t": 12705.876000000002,
      "d": 345.5880625000009,
      "v": 75
    },
    {
      "midi": 50,
      "hit": false,
      "t": 12705.876000000002,
      "d": 345.5880625000009,
      "v": 75
    },
    {
      "midi": 89,
      "hit": false,
      "t": 12705.876000000007,
      "d": 345.5880625000009,
      "v": 92
    },
    {
      "midi": 57,
      "hit": false,
      "t": 13058.817000000003,
      "d": 345.5880625000009,
      "v": 75
    },
    {
      "midi": 88,
      "hit": false,
      "t": 13058.817000000008,
      "d": 345.5880625000009,
      "v": 92
    },
    {
      "midi": 64,
      "hit": false,
      "t": 13411.758000000003,
      "d": 345.5880625000009,
      "v": 75
    },
    {
      "midi": 84,
      "hit": false,
      "t": 13411.758000000009,
      "d": 345.5880625000009,
      "v": 92
    },
    {
      "midi": 38,
      "hit": false,
      "t": 13764.699000000004,
      "d": 345.5880625000009,
      "v": 75
    },
    {
      "midi": 50,
      "hit": false,
      "t": 13764.699000000004,
      "d": 345.5880625000009,
      "v": 75
    },
    {
      "midi": 81,
      "hit": false,
      "t": 13764.69900000001,
      "d": 345.5880625000009,
      "v": 92
    },
    {
      "midi": 34,
      "hit": false,
      "t": 14117.640000000005,
      "d": 345.5880625000009,
      "v": 75
    },
    {
      "midi": 46,
      "hit": false,
      "t": 14117.640000000005,
      "d": 345.5880625000009,
      "v": 75
    },
    {
      "midi": 86,
      "hit": false,
      "t": 14117.64000000001,
      "d": 588.2350000000006,
      "v": 92
    },
    {
      "midi": 53,
      "hit": false,
      "t": 14470.581000000006,
      "d": 345.5880625000009,
      "v": 75
    },
    {
      "midi": 60,
      "hit": false,
      "t": 14823.522000000006,
      "d": 345.5880625000009,
      "v": 75
    },
    {
      "midi": 34,
      "hit": false,
      "t": 15176.463000000007,
      "d": 345.5880625000009,
      "v": 75
    },
    {
      "midi": 46,
      "hit": false,
      "t": 15176.463000000007,
      "d": 345.5880625000009,
      "v": 75
    },
    {
      "midi": 86,
      "hit": false,
      "t": 15176.46300000001,
      "d": 345.5880625000009,
      "v": 92
    },
    {
      "midi": 33,
      "hit": false,
      "t": 15529.404000000008,
      "d": 345.5880625000009,
      "v": 75
    },
    {
      "midi": 45,
      "hit": false,
      "t": 15529.404000000008,
      "d": 345.5880625000009,
      "v": 75
    },
    {
      "midi": 84,
      "hit": false,
      "t": 15529.404000000011,
      "d": 345.5880625000009,
      "v": 92
    },
    {
      "midi": 52,
      "hit": false,
      "t": 15882.345000000008,
      "d": 345.5880625000009,
      "v": 75
    },
    {
      "midi": 81,
      "hit": false,
      "t": 15882.345000000012,
      "d": 345.5880625000009,
      "v": 92
    },
    {
      "midi": 36,
      "hit": false,
      "t": 16235.28600000001,
      "d": 345.5880625000009,
      "v": 75
    },
    {
      "midi": 48,
      "hit": false,
      "t": 16235.28600000001,
      "d": 345.5880625000009,
      "v": 75
    },
    {
      "midi": 77,
      "hit": false,
      "t": 16235.286000000013,
      "d": 345.5880625000009,
      "v": 92
    },
    {
      "midi": 60,
      "hit": false,
      "t": 16588.22700000001,
      "d": 345.58806249999907,
      "v": 75
    },
    {
      "midi": 79,
      "hit": false,
      "t": 16588.227000000014,
      "d": 345.58806249999907,
      "v": 92
    },
    {
      "midi": 41,
      "hit": false,
      "t": 16941.16800000001,
      "d": 345.58806249999907,
      "v": 75
    },
    {
      "midi": 53,
      "hit": false,
      "t": 16941.16800000001,
      "d": 345.58806249999907,
      "v": 75
    },
    {
      "midi": 81,
      "hit": false,
      "t": 16941.168000000012,
      "d": 588.2350000000006,
      "v": 92
    },
    {
      "midi": 57,
      "hit": false,
      "t": 17294.109000000008,
      "d": 345.58806249999907,
      "v": 75
    },
    {
      "midi": 40,
      "hit": false,
      "t": 17647.050000000007,
      "d": 345.58806249999907,
      "v": 75
    },
    {
      "midi": 52,
      "hit": false,
      "t": 17647.050000000007,
      "d": 345.58806249999907,
      "v": 75
    },
    {
      "midi": 79,
      "hit": false,
      "t": 17647.050000000014,
      "d": 588.2350000000006,
      "v": 92
    },
    {
      "midi": 55,
      "hit": false,
      "t": 17999.991000000005,
      "d": 345.58806249999907,
      "v": 75
    },
    {
      "midi": 38,
      "hit": false,
      "t": 18352.932000000004,
      "d": 345.58806249999907,
      "v": 75
    },
    {
      "midi": 50,
      "hit": false,
      "t": 18352.932000000004,
      "d": 345.58806249999907,
      "v": 75
    },
    {
      "midi": 76,
      "hit": false,
      "t": 18352.932000000015,
      "d": 345.58806249999907,
      "v": 92
    },
    {
      "midi": 57,
      "hit": false,
      "t": 18705.873000000003,
      "d": 345.58806249999907,
      "v": 75
    },
    {
      "midi": 77,
      "hit": false,
      "t": 18705.873000000014,
      "d": 345.58806249999907,
      "v": 92
    },
    {
      "midi": 64,
      "hit": false,
      "t": 19058.814000000002,
      "d": 345.58806249999907,
      "v": 75
    },
    {
      "midi": 81,
      "hit": false,
      "t": 19058.814000000013,
      "d": 345.58806249999907,
      "v": 92
    },
    {
      "midi": 38,
      "hit": false,
      "t": 19411.755,
      "d": 345.58806249999907,
      "v": 75
    },
    {
      "midi": 50,
      "hit": false,
      "t": 19411.755,
      "d": 345.58806249999907,
      "v": 75
    },
    {
      "midi": 84,
      "hit": false,
      "t": 19411.755000000012,
      "d": 345.58806249999907,
      "v": 92
    },
    {
      "midi": 31,
      "hit": false,
      "t": 19764.696,
      "d": 588.2350000000006,
      "v": 75
    },
    {
      "midi": 43,
      "hit": false,
      "t": 19764.696,
      "d": 588.2350000000006,
      "v": 75
    },
    {
      "midi": 79,
      "hit": false,
      "t": 19764.69600000001,
      "d": 345.58806249999907,
      "v": 92
    },
    {
      "midi": 84,
      "hit": false,
      "t": 19764.69600000001,
      "d": 345.58806249999907,
      "v": 92
    },
    {
      "midi": 88,
      "hit": false,
      "t": 19764.69600000001,
      "d": 345.58806249999907,
      "v": 92
    },
    {
      "midi": 86,
      "hit": false,
      "t": 20117.63700000001,
      "d": 345.58806249999907,
      "v": 92
    },
    {
      "midi": 33,
      "hit": false,
      "t": 20470.578,
      "d": 588.2350000000006,
      "v": 75
    },
    {
      "midi": 45,
      "hit": false,
      "t": 20470.578,
      "d": 588.2350000000006,
      "v": 75
    },
    {
      "midi": 76,
      "hit": false,
      "t": 20470.57800000001,
      "d": 345.58806249999907,
      "v": 92
    },
    {
      "midi": 81,
      "hit": false,
      "t": 20470.57800000001,
      "d": 345.58806249999907,
      "v": 92
    },
    {
      "midi": 84,
      "hit": false,
      "t": 20470.57800000001,
      "d": 345.58806249999907,
      "v": 92
    },
    {
      "midi": 79,
      "hit": false,
      "t": 20823.519000000008,
      "d": 345.58806249999907,
      "v": 92
    },
    {
      "midi": 86,
      "hit": false,
      "t": 20823.519000000008,
      "d": 345.58806249999907,
      "v": 92
    },
    {
      "midi": 38,
      "hit": false,
      "t": 21176.460000000003,
      "d": 345.58806249999907,
      "v": 75
    },
    {
      "midi": 50,
      "hit": false,
      "t": 21176.460000000003,
      "d": 345.58806249999907,
      "v": 75
    },
    {
      "midi": 79,
      "hit": false,
      "t": 21176.460000000006,
      "d": 345.58806249999907,
      "v": 92
    },
    {
      "midi": 81,
      "hit": false,
      "t": 21176.460000000006,
      "d": 345.58806249999907,
      "v": 92
    },
    {
      "midi": 86,
      "hit": false,
      "t": 21176.460000000006,
      "d": 345.58806249999907,
      "v": 92
    },
    {
      "midi": 69,
      "hit": false,
      "t": 21529.401000000005,
      "d": 345.58806249999907,
      "v": 92
    },
    {
      "midi": 76,
      "hit": false,
      "t": 21882.342000000004,
      "d": 345.58806249999907,
      "v": 92
    },
    {
      "midi": 79,
      "hit": false,
      "t": 22235.283000000003,
      "d": 345.58806249999907,
      "v": 92
    },
    {
      "midi": 33,
      "hit": false,
      "t": 22235.283000000003,
      "d": 345.58806249999907,
      "v": 75
    },
    {
      "midi": 45,
      "hit": false,
      "t": 22235.283000000003,
      "d": 345.58806249999907,
      "v": 75
    },
    {
      "midi": 78,
      "hit": false,
      "t": 22588.224000000002,
      "d": 705.8820000000014,
      "v": 92
    },
    {
      "midi": 86,
      "hit": false,
      "t": 22588.224000000002,
      "d": 705.8820000000014,
      "v": 92
    },
    {
      "midi": 38,
      "hit": false,
      "t": 22588.224000000002,
      "d": 588.2350000000006,
      "v": 75
    },
    {
      "midi": 50,
      "hit": false,
      "t": 22588.224000000002,
      "d": 588.2350000000006,
      "v": 75
    },
    {
      "midi": 88,
      "hit": false,
      "t": 23294.106000000003,
      "d": 588.2350000000006,
      "v": 92
    },
    {
      "midi": 62,
      "hit": false,
      "t": 23999.988,
      "d": 1235.2934999999998,
      "v": 75
    },
    {
      "midi": 65,
      "hit": false,
      "t": 23999.988,
      "d": 1235.2934999999998,
      "v": 75
    },
    {
      "midi": 74,
      "hit": false,
      "t": 23999.988,
      "d": 1235.2934999999998,
      "v": 75
    },
    {
      "midi": 89,
      "hit": false,
      "t": 23999.988000000005,
      "d": 352.9409999999989,
      "v": 92
    },
    {
      "midi": 88,
      "hit": false,
      "t": 24352.929000000004,
      "d": 352.9409999999989,
      "v": 92
    },
    {
      "midi": 84,
      "hit": false,
      "t": 24705.870000000003,
      "d": 352.9409999999989,
      "v": 92
    },
    {
      "midi": 81,
      "hit": false,
      "t": 25058.811,
      "d": 352.9409999999989,
      "v": 92
    },
    {
      "midi": 86,
      "hit": false,
      "t": 25411.752,
      "d": 1058.8230000000003,
      "v": 92
    },
    {
      "midi": 58,
      "hit": false,
      "t": 25411.752,
      "d": 1235.2934999999998,
      "v": 75
    },
    {
      "midi": 65,
      "hit": false,
      "t": 25411.752,
      "d": 1235.2934999999998,
      "v": 75
    },
    {
      "midi": 70,
      "hit": false,
      "t": 25411.752,
      "d": 1235.2934999999998,
      "v": 75
    },
    {
      "midi": 86,
      "hit": false,
      "t": 26470.575,
      "d": 345.58806249999907,
      "v": 92
    },
    {
      "midi": 84,
      "hit": false,
      "t": 26823.516,
      "d": 352.9409999999989,
      "v": 92
    },
    {
      "midi": 57,
      "hit": false,
      "t": 26823.516,
      "d": 705.8820000000014,
      "v": 75
    },
    {
      "midi": 64,
      "hit": false,
      "t": 26823.516,
      "d": 705.8820000000014,
      "v": 75
    },
    {
      "midi": 67,
      "hit": false,
      "t": 26823.516,
      "d": 705.8820000000014,
      "v": 75
    },
    {
      "midi": 81,
      "hit": false,
      "t": 27176.457,
      "d": 352.9409999999989,
      "v": 92
    },
    {
      "midi": 77,
      "hit": false,
      "t": 27529.397999999997,
      "d": 352.9409999999989,
      "v": 92
    },
    {
      "midi": 60,
      "hit": false,
      "t": 27529.398,
      "d": 705.8820000000014,
      "v": 75
    },
    {
      "midi": 65,
      "hit": false,
      "t": 27529.398,
      "d": 705.8820000000014,
      "v": 75
    },
    {
      "midi": 70,
      "hit": false,
      "t": 27529.398,
      "d": 705.8820000000014,
      "v": 75
    },
    {
      "midi": 79,
      "hit": false,
      "t": 27882.338999999996,
      "d": 352.9409999999989,
      "v": 92
    },
    {
      "midi": 81,
      "hit": false,
      "t": 28235.279999999995,
      "d": 705.8820000000014,
      "v": 92
    },
    {
      "midi": 65,
      "hit": false,
      "t": 28235.280000000002,
      "d": 705.8820000000014,
      "v": 75
    },
    {
      "midi": 69,
      "hit": false,
      "t": 28235.280000000002,
      "d": 705.8820000000014,
      "v": 75
    },
    {
      "midi": 77,
      "hit": false,
      "t": 28235.280000000002,
      "d": 705.8820000000014,
      "v": 75
    },
    {
      "midi": 79,
      "hit": false,
      "t": 28941.161999999997,
      "d": 588.2350000000006,
      "v": 92
    },
    {
      "midi": 64,
      "hit": false,
      "t": 28941.162000000004,
      "d": 588.2350000000006,
      "v": 75
    },
    {
      "midi": 69,
      "hit": false,
      "t": 28941.162000000004,
      "d": 588.2350000000006,
      "v": 75
    },
    {
      "midi": 73,
      "hit": false,
      "t": 28941.162000000004,
      "d": 588.2350000000006,
      "v": 75
    },
    {
      "midi": 76,
      "hit": false,
      "t": 28941.162000000004,
      "d": 588.2350000000006,
      "v": 75
    },
    {
      "midi": 76,
      "hit": false,
      "t": 29647.043999999998,
      "d": 345.58806249999907,
      "v": 92
    },
    {
      "midi": 62,
      "hit": false,
      "t": 29647.044000000005,
      "d": 1235.2934999999998,
      "v": 75
    },
    {
      "midi": 69,
      "hit": false,
      "t": 29647.044000000005,
      "d": 1235.2934999999998,
      "v": 75
    },
    {
      "midi": 72,
      "hit": false,
      "t": 29647.044000000005,
      "d": 1235.2934999999998,
      "v": 75
    },
    {
      "midi": 77,
      "hit": false,
      "t": 29999.984999999997,
      "d": 345.58806249999907,
      "v": 92
    },
    {
      "midi": 81,
      "hit": false,
      "t": 30352.925999999996,
      "d": 345.58806249999907,
      "v": 92
    },
    {
      "midi": 84,
      "hit": false,
      "t": 30705.866999999995,
      "d": 345.58806249999907,
      "v": 92
    },
    {
      "midi": 88,
      "hit": false,
      "t": 31058.807999999994,
      "d": 588.2350000000006,
      "v": 92
    },
    {
      "midi": 55,
      "hit": false,
      "t": 31058.808000000005,
      "d": 1235.2934999999998,
      "v": 75
    },
    {
      "midi": 65,
      "hit": false,
      "t": 31058.808000000005,
      "d": 1235.2934999999998,
      "v": 75
    },
    {
      "midi": 89,
      "hit": false,
      "t": 31764.689999999995,
      "d": 588.2350000000006,
      "v": 92
    },
    {
      "midi": 84,
      "hit": false,
      "t": 32470.571999999996,
      "d": 1941.1755000000012,
      "v": 92
    },
    {
      "midi": 60,
      "hit": false,
      "t": 32470.572000000004,
      "d": 1411.7639999999992,
      "v": 75
    },
    {
      "midi": 65,
      "hit": false,
      "t": 32470.572000000004,
      "d": 1411.7639999999992,
      "v": 75
    },
    {
      "midi": 64,
      "hit": false,
      "t": 33882.336,
      "d": 1235.2934999999998,
      "v": 75
    },
    {
      "midi": 88,
      "hit": false,
      "t": 34588.218,
      "d": 588.2350000000006,
      "v": 92
    },
    {
      "midi": 89,
      "hit": false,
      "t": 35294.1,
      "d": 352.9409999999989,
      "v": 92
    },
    {
      "midi": 62,
      "hit": false,
      "t": 35294.100000000006,
      "d": 1235.2934999999998,
      "v": 75
    },
    {
      "midi": 65,
      "hit": false,
      "t": 35294.100000000006,
      "d": 1235.2934999999998,
      "v": 75
    },
    {
      "midi": 74,
      "hit": false,
      "t": 35294.100000000006,
      "d": 1235.2934999999998,
      "v": 75
    },
    {
      "midi": 88,
      "hit": false,
      "t": 35647.041,
      "d": 352.9409999999989,
      "v": 92
    },
    {
      "midi": 84,
      "hit": false,
      "t": 35999.981999999996,
      "d": 352.9409999999989,
      "v": 92
    },
    {
      "midi": 81,
      "hit": false,
      "t": 36352.922999999995,
      "d": 352.9409999999989,
      "v": 92
    },
    {
      "midi": 86,
      "hit": false,
      "t": 36705.863999999994,
      "d": 1058.8229999999967,
      "v": 92
    },
    {
      "midi": 58,
      "hit": false,
      "t": 36705.86400000001,
      "d": 1235.2934999999998,
      "v": 75
    },
    {
      "midi": 65,
      "hit": false,
      "t": 36705.86400000001,
      "d": 1235.2934999999998,
      "v": 75
    },
    {
      "midi": 70,
      "hit": false,
      "t": 36705.86400000001,
      "d": 1235.2934999999998,
      "v": 75
    },
    {
      "midi": 86,
      "hit": false,
      "t": 37764.68699999999,
      "d": 345.58806249999907,
      "v": 92
    },
    {
      "midi": 84,
      "hit": false,
      "t": 38117.62799999999,
      "d": 352.9409999999989,
      "v": 92
    },
    {
      "midi": 57,
      "hit": false,
      "t": 38117.62800000001,
      "d": 705.8819999999978,
      "v": 75
    },
    {
      "midi": 64,
      "hit": false,
      "t": 38117.62800000001,
      "d": 705.8819999999978,
      "v": 75
    },
    {
      "midi": 67,
      "hit": false,
      "t": 38117.62800000001,
      "d": 705.8819999999978,
      "v": 75
    },
    {
      "midi": 81,
      "hit": false,
      "t": 38470.56899999999,
      "d": 352.9409999999989,
      "v": 92
    },
    {
      "midi": 77,
      "hit": false,
      "t": 38823.50999999999,
      "d": 352.9409999999989,
      "v": 92
    },
    {
      "midi": 60,
      "hit": false,
      "t": 38823.51000000001,
      "d": 705.8819999999978,
      "v": 75
    },
    {
      "midi": 65,
      "hit": false,
      "t": 38823.51000000001,
      "d": 705.8819999999978,
      "v": 75
    },
    {
      "midi": 70,
      "hit": false,
      "t": 38823.51000000001,
      "d": 705.8819999999978,
      "v": 75
    },
    {
      "midi": 79,
      "hit": false,
      "t": 39176.45099999999,
      "d": 352.9409999999989,
      "v": 92
    },
    {
      "midi": 81,
      "hit": false,
      "t": 39529.391999999985,
      "d": 705.8819999999978,
      "v": 92
    },
    {
      "midi": 65,
      "hit": false,
      "t": 39529.39200000001,
      "d": 705.8819999999978,
      "v": 75
    },
    {
      "midi": 69,
      "hit": false,
      "t": 39529.39200000001,
      "d": 705.8819999999978,
      "v": 75
    },
    {
      "midi": 77,
      "hit": false,
      "t": 39529.39200000001,
      "d": 705.8819999999978,
      "v": 75
    },
    {
      "midi": 79,
      "hit": false,
      "t": 40235.27399999998,
      "d": 588.2350000000006,
      "v": 92
    },
    {
      "midi": 64,
      "hit": false,
      "t": 40235.274000000005,
      "d": 588.2350000000006,
      "v": 75
    },
    {
      "midi": 69,
      "hit": false,
      "t": 40235.274000000005,
      "d": 588.2350000000006,
      "v": 75
    },
    {
      "midi": 73,
      "hit": false,
      "t": 40235.274000000005,
      "d": 588.2350000000006,
      "v": 75
    },
    {
      "midi": 76,
      "hit": false,
      "t": 40235.274000000005,
      "d": 588.2350000000006,
      "v": 75
    },
    {
      "midi": 76,
      "hit": false,
      "t": 40941.15599999998,
      "d": 352.9409999999989,
      "v": 92
    },
    {
      "midi": 62,
      "hit": false,
      "t": 40941.156,
      "d": 1235.2934999999998,
      "v": 75
    },
    {
      "midi": 69,
      "hit": false,
      "t": 40941.156,
      "d": 1235.2934999999998,
      "v": 75
    },
    {
      "midi": 72,
      "hit": false,
      "t": 40941.156,
      "d": 1235.2934999999998,
      "v": 75
    },
    {
      "midi": 77,
      "hit": false,
      "t": 41294.09699999998,
      "d": 352.9409999999989,
      "v": 92
    },
    {
      "midi": 81,
      "hit": false,
      "t": 41647.03799999998,
      "d": 352.9409999999989,
      "v": 92
    },
    {
      "midi": 84,
      "hit": false,
      "t": 41999.97899999998,
      "d": 352.9409999999989,
      "v": 92
    },
    {
      "midi": 88,
      "hit": false,
      "t": 42352.91999999998,
      "d": 352.9409999999989,
      "v": 92
    },
    {
      "midi": 55,
      "hit": false,
      "t": 42352.920000000006,
      "d": 588.2350000000006,
      "v": 75
    },
    {
      "midi": 86,
      "hit": false,
      "t": 42705.860999999975,
      "d": 352.9409999999989,
      "v": 92
    },
    {
      "midi": 84,
      "hit": false,
      "t": 43058.801999999974,
      "d": 352.9409999999989,
      "v": 92
    },
    {
      "midi": 57,
      "hit": false,
      "t": 43058.802,
      "d": 588.2350000000006,
      "v": 75
    },
    {
      "midi": 86,
      "hit": false,
      "t": 43411.74299999997,
      "d": 345.58806249999907,
      "v": 92
    },
    {
      "midi": 86,
      "hit": false,
      "t": 43764.68399999997,
      "d": 1941.1754999999976,
      "v": 92
    },
    {
      "midi": 62,
      "hit": false,
      "t": 43764.684,
      "d": 1235.2934999999998,
      "v": 75
    },
    {
      "midi": 67,
      "hit": false,
      "t": 43764.684,
      "d": 1235.2934999999998,
      "v": 75
    },
    {
      "midi": 66,
      "hit": false,
      "t": 45176.448000000004,
      "d": 1235.2934999999998,
      "v": 75
    },
    {
      "midi": 93,
      "hit": false,
      "t": 46235.27099999997,
      "d": 345.58806249999907,
      "v": 92
    },
    {
      "midi": 89,
      "hit": false,
      "t": 46588.21199999997,
      "d": 1235.2934999999998,
      "v": 92
    },
    {
      "midi": 93,
      "hit": false,
      "t": 46588.21199999997,
      "d": 1235.2934999999998,
      "v": 92
    },
    {
      "midi": 46,
      "hit": false,
      "t": 46588.21200000001,
      "d": 345.58806249999907,
      "v": 75
    },
    {
      "midi": 58,
      "hit": false,
      "t": 46588.21200000001,
      "d": 345.58806249999907,
      "v": 75
    },
    {
      "midi": 62,
      "hit": false,
      "t": 46588.21200000001,
      "d": 345.58806249999907,
      "v": 75
    },
    {
      "midi": 58,
      "hit": false,
      "t": 46941.153000000006,
      "d": 345.58806249999907,
      "v": 75
    },
    {
      "midi": 62,
      "hit": false,
      "t": 46941.153000000006,
      "d": 345.58806249999907,
      "v": 75
    },
    {
      "midi": 58,
      "hit": false,
      "t": 47647.035,
      "d": 345.58806249999907,
      "v": 75
    },
    {
      "midi": 62,
      "hit": false,
      "t": 47647.035,
      "d": 345.58806249999907,
      "v": 75
    },
    {
      "midi": 88,
      "hit": false,
      "t": 47999.97599999997,
      "d": 588.2350000000006,
      "v": 92
    },
    {
      "midi": 91,
      "hit": false,
      "t": 47999.97599999997,
      "d": 588.2350000000006,
      "v": 92
    },
    {
      "midi": 58,
      "hit": false,
      "t": 47999.976,
      "d": 345.58806249999907,
      "v": 75
    },
    {
      "midi": 62,
      "hit": false,
      "t": 47999.976,
      "d": 345.58806249999907,
      "v": 75
    },
    {
      "midi": 58,
      "hit": false,
      "t": 48352.917,
      "d": 345.58806249999907,
      "v": 75
    },
    {
      "midi": 62,
      "hit": false,
      "t": 48352.917,
      "d": 345.58806249999907,
      "v": 75
    },
    {
      "midi": 86,
      "hit": false,
      "t": 48705.85799999997,
      "d": 588.2350000000006,
      "v": 92
    },
    {
      "midi": 89,
      "hit": false,
      "t": 48705.85799999997,
      "d": 588.2350000000006,
      "v": 92
    },
    {
      "midi": 58,
      "hit": false,
      "t": 49058.799,
      "d": 345.58806249999907,
      "v": 75
    },
    {
      "midi": 62,
      "hit": false,
      "t": 49058.799,
      "d": 345.58806249999907,
      "v": 75
    },
    {
      "midi": 84,
      "hit": false,
      "t": 49411.73999999997,
      "d": 1235.2934999999998,
      "v": 92
    },
    {
      "midi": 88,
      "hit": false,
      "t": 49411.73999999997,
      "d": 1235.2934999999998,
      "v": 92
    },
    {
      "midi": 46,
      "hit": false,
      "t": 49411.74,
      "d": 345.58806249999907,
      "v": 75
    },
    {
      "midi": 58,
      "hit": false,
      "t": 49411.74,
      "d": 345.58806249999907,
      "v": 75
    },
    {
      "midi": 60,
      "hit": false,
      "t": 49411.74,
      "d": 345.58806249999907,
      "v": 75
    },
    {
      "midi": 58,
      "hit": false,
      "t": 49764.681,
      "d": 345.58806249999907,
      "v": 75
    },
    {
      "midi": 60,
      "hit": false,
      "t": 49764.681,
      "d": 345.58806249999907,
      "v": 75
    },
    {
      "midi": 58,
      "hit": false,
      "t": 50470.562999999995,
      "d": 345.58806249999907,
      "v": 75
    },
    {
      "midi": 60,
      "hit": false,
      "t": 50470.562999999995,
      "d": 345.58806249999907,
      "v": 75
    },
    {
      "midi": 86,
      "hit": false,
      "t": 50823.50399999997,
      "d": 588.2350000000006,
      "v": 92
    },
    {
      "midi": 89,
      "hit": false,
      "t": 50823.50399999997,
      "d": 588.2350000000006,
      "v": 92
    },
    {
      "midi": 58,
      "hit": false,
      "t": 50823.50399999999,
      "d": 345.58806249999907,
      "v": 75
    },
    {
      "midi": 60,
      "hit": false,
      "t": 50823.50399999999,
      "d": 345.58806249999907,
      "v": 75
    },
    {
      "midi": 58,
      "hit": false,
      "t": 51176.44499999999,
      "d": 345.58806249999907,
      "v": 75
    },
    {
      "midi": 60,
      "hit": false,
      "t": 51176.44499999999,
      "d": 345.58806249999907,
      "v": 75
    },
    {
      "midi": 88,
      "hit": false,
      "t": 51529.38599999997,
      "d": 588.2350000000006,
      "v": 92
    },
    {
      "midi": 91,
      "hit": false,
      "t": 51529.38599999997,
      "d": 588.2350000000006,
      "v": 92
    },
    {
      "midi": 58,
      "hit": false,
      "t": 51882.32699999999,
      "d": 345.58806249999907,
      "v": 75
    },
    {
      "midi": 60,
      "hit": false,
      "t": 51882.32699999999,
      "d": 345.58806249999907,
      "v": 75
    },
    {
      "midi": 84,
      "hit": false,
      "t": 52235.26799999997,
      "d": 1941.1754999999976,
      "v": 92
    },
    {
      "midi": 88,
      "hit": false,
      "t": 52235.26799999997,
      "d": 1941.1754999999976,
      "v": 92
    },
    {
      "midi": 45,
      "hit": false,
      "t": 52235.26799999999,
      "d": 345.58806249999907,
      "v": 75
    },
    {
      "midi": 57,
      "hit": false,
      "t": 52235.26799999999,
      "d": 345.58806249999907,
      "v": 75
    },
    {
      "midi": 60,
      "hit": false,
      "t": 52235.26799999999,
      "d": 345.58806249999907,
      "v": 75
    },
    {
      "midi": 57,
      "hit": false,
      "t": 52588.20899999999,
      "d": 345.58806249999907,
      "v": 75
    },
    {
      "midi": 60,
      "hit": false,
      "t": 52588.20899999999,
      "d": 345.58806249999907,
      "v": 75
    },
    {
      "midi": 57,
      "hit": false,
      "t": 53294.090999999986,
      "d": 345.58806249999907,
      "v": 75
    },
    {
      "midi": 60,
      "hit": false,
      "t": 53294.090999999986,
      "d": 345.58806249999907,
      "v": 75
    },
    {
      "midi": 57,
      "hit": false,
      "t": 53647.031999999985,
      "d": 345.58806249999907,
      "v": 75
    },
    {
      "midi": 60,
      "hit": false,
      "t": 53647.031999999985,
      "d": 345.58806249999907,
      "v": 75
    },
    {
      "midi": 57,
      "hit": false,
      "t": 53999.97299999998,
      "d": 345.58806249999907,
      "v": 75
    },
    {
      "midi": 60,
      "hit": false,
      "t": 53999.97299999998,
      "d": 345.58806249999907,
      "v": 75
    },
    {
      "midi": 81,
      "hit": false,
      "t": 54352.91399999997,
      "d": 588.2350000000006,
      "v": 92
    },
    {
      "midi": 84,
      "hit": false,
      "t": 54352.91399999997,
      "d": 588.2350000000006,
      "v": 92
    },
    {
      "midi": 57,
      "hit": false,
      "t": 54705.85499999998,
      "d": 345.58806249999907,
      "v": 75
    },
    {
      "midi": 60,
      "hit": false,
      "t": 54705.85499999998,
      "d": 345.58806249999907,
      "v": 75
    },
    {
      "midi": 77,
      "hit": false,
      "t": 55058.795999999966,
      "d": 588.2350000000006,
      "v": 92
    },
    {
      "midi": 81,
      "hit": false,
      "t": 55058.795999999966,
      "d": 588.2350000000006,
      "v": 92
    },
    {
      "midi": 50,
      "hit": false,
      "t": 55058.79599999998,
      "d": 345.58806249999907,
      "v": 75
    },
    {
      "midi": 57,
      "hit": false,
      "t": 55058.79599999998,
      "d": 345.58806249999907,
      "v": 75
    },
    {
      "midi": 62,
      "hit": false,
      "t": 55058.79599999998,
      "d": 345.58806249999907,
      "v": 75
    },
    {
      "midi": 57,
      "hit": false,
      "t": 55411.73699999998,
      "d": 345.58806249999907,
      "v": 75
    },
    {
      "midi": 62,
      "hit": false,
      "t": 55411.73699999998,
      "d": 345.58806249999907,
      "v": 75
    },
    {
      "midi": 76,
      "hit": false,
      "t": 55764.67799999996,
      "d": 588.2350000000006,
      "v": 92
    },
    {
      "midi": 57,
      "hit": false,
      "t": 56117.61899999998,
      "d": 345.58806249999907,
      "v": 75
    },
    {
      "midi": 62,
      "hit": false,
      "t": 56117.61899999998,
      "d": 345.58806249999907,
      "v": 75
    },
    {
      "midi": 77,
      "hit": false,
      "t": 56470.55999999996,
      "d": 588.2350000000006,
      "v": 92
    },
    {
      "midi": 57,
      "hit": false,
      "t": 56470.559999999976,
      "d": 345.58806249999907,
      "v": 75
    },
    {
      "midi": 62,
      "hit": false,
      "t": 56470.559999999976,
      "d": 345.58806249999907,
      "v": 75
    },
    {
      "midi": 57,
      "hit": false,
      "t": 56823.500999999975,
      "d": 345.58806249999907,
      "v": 75
    },
    {
      "midi": 62,
      "hit": false,
      "t": 56823.500999999975,
      "d": 345.58806249999907,
      "v": 75
    },
    {
      "midi": 81,
      "hit": false,
      "t": 57176.44199999996,
      "d": 588.2350000000006,
      "v": 92
    },
    {
      "midi": 84,
      "hit": false,
      "t": 57176.44199999996,
      "d": 588.2350000000006,
      "v": 92
    },
    {
      "midi": 57,
      "hit": false,
      "t": 57529.38299999997,
      "d": 345.58806249999907,
      "v": 75
    },
    {
      "midi": 62,
      "hit": false,
      "t": 57529.38299999997,
      "d": 345.58806249999907,
      "v": 75
    },
    {
      "midi": 79,
      "hit": false,
      "t": 57882.32399999996,
      "d": 1235.2934999999998,
      "v": 92
    },
    {
      "midi": 82,
      "hit": false,
      "t": 57882.32399999996,
      "d": 1235.2934999999998,
      "v": 92
    },
    {
      "midi": 43,
      "hit": false,
      "t": 57882.32399999997,
      "d": 345.58806249999907,
      "v": 75
    },
    {
      "midi": 55,
      "hit": false,
      "t": 57882.32399999997,
      "d": 345.58806249999907,
      "v": 75
    },
    {
      "midi": 58,
      "hit": false,
      "t": 57882.32399999997,
      "d": 345.58806249999907,
      "v": 75
    },
    {
      "midi": 55,
      "hit": false,
      "t": 58235.26499999997,
      "d": 345.58806249999907,
      "v": 75
    },
    {
      "midi": 58,
      "hit": false,
      "t": 58235.26499999997,
      "d": 345.58806249999907,
      "v": 75
    },
    {
      "midi": 55,
      "hit": false,
      "t": 58941.14699999997,
      "d": 345.58806249999907,
      "v": 75
    },
    {
      "midi": 58,
      "hit": false,
      "t": 58941.14699999997,
      "d": 345.58806249999907,
      "v": 75
    },
    {
      "midi": 81,
      "hit": false,
      "t": 59294.08799999996,
      "d": 588.2350000000006,
      "v": 92
    },
    {
      "midi": 84,
      "hit": false,
      "t": 59294.08799999996,
      "d": 588.2350000000006,
      "v": 92
    },
    {
      "midi": 55,
      "hit": false,
      "t": 59294.08799999997,
      "d": 345.58806249999907,
      "v": 75
    },
    {
      "midi": 58,
      "hit": false,
      "t": 59294.08799999997,
      "d": 345.58806249999907,
      "v": 75
    },
    {
      "midi": 55,
      "hit": false,
      "t": 59647.028999999966,
      "d": 345.58806249999907,
      "v": 75
    },
    {
      "midi": 58,
      "hit": false,
      "t": 59647.028999999966,
      "d": 345.58806249999907,
      "v": 75
    },
    {
      "midi": 82,
      "hit": false,
      "t": 59999.96999999996,
      "d": 588.2350000000006,
      "v": 92
    },
    {
      "midi": 86,
      "hit": false,
      "t": 59999.96999999996,
      "d": 588.2350000000006,
      "v": 92
    },
    {
      "midi": 55,
      "hit": false,
      "t": 60352.910999999964,
      "d": 345.58806249999907,
      "v": 75
    },
    {
      "midi": 58,
      "hit": false,
      "t": 60352.910999999964,
      "d": 345.58806249999907,
      "v": 75
    },
    {
      "midi": 84,
      "hit": false,
      "t": 60705.851999999955,
      "d": 1235.2934999999998,
      "v": 92
    },
    {
      "midi": 88,
      "hit": false,
      "t": 60705.851999999955,
      "d": 1235.2934999999998,
      "v": 92
    },
    {
      "midi": 36,
      "hit": false,
      "t": 60705.85199999996,
      "d": 345.58806249999907,
      "v": 75
    },
    {
      "midi": 48,
      "hit": false,
      "t": 60705.85199999996,
      "d": 345.58806249999907,
      "v": 75
    },
    {
      "midi": 55,
      "hit": false,
      "t": 60705.85199999996,
      "d": 345.58806249999907,
      "v": 75
    },
    {
      "midi": 48,
      "hit": false,
      "t": 61058.79299999996,
      "d": 345.58806249999907,
      "v": 75
    },
    {
      "midi": 55,
      "hit": false,
      "t": 61058.79299999996,
      "d": 345.58806249999907,
      "v": 75
    },
    {
      "midi": 48,
      "hit": false,
      "t": 61764.67499999996,
      "d": 345.58806249999907,
      "v": 75
    },
    {
      "midi": 55,
      "hit": false,
      "t": 61764.67499999996,
      "d": 345.58806249999907,
      "v": 75
    },
    {
      "midi": 86,
      "hit": false,
      "t": 62117.61599999996,
      "d": 588.2350000000006,
      "v": 92
    },
    {
      "midi": 89,
      "hit": false,
      "t": 62117.61599999996,
      "d": 588.2350000000006,
      "v": 92
    },
    {
      "midi": 48,
      "hit": false,
      "t": 62117.61599999996,
      "d": 345.58806249999907,
      "v": 75
    },
    {
      "midi": 55,
      "hit": false,
      "t": 62117.61599999996,
      "d": 345.58806249999907,
      "v": 75
    },
    {
      "midi": 48,
      "hit": false,
      "t": 62470.55699999996,
      "d": 345.58806249999907,
      "v": 75
    },
    {
      "midi": 55,
      "hit": false,
      "t": 62470.55699999996,
      "d": 345.58806249999907,
      "v": 75
    },
    {
      "midi": 88,
      "hit": false,
      "t": 62823.497999999956,
      "d": 588.2350000000006,
      "v": 92
    },
    {
      "midi": 91,
      "hit": false,
      "t": 62823.497999999956,
      "d": 588.2350000000006,
      "v": 92
    },
    {
      "midi": 48,
      "hit": false,
      "t": 63176.438999999955,
      "d": 345.58806249999907,
      "v": 75
    },
    {
      "midi": 55,
      "hit": false,
      "t": 63176.438999999955,
      "d": 345.58806249999907,
      "v": 75
    },
    {
      "midi": 84,
      "hit": false,
      "t": 63529.379999999954,
      "d": 705.8819999999978,
      "v": 92
    },
    {
      "midi": 88,
      "hit": false,
      "t": 63529.379999999954,
      "d": 705.8819999999978,
      "v": 92
    },
    {
      "midi": 41,
      "hit": false,
      "t": 63529.379999999954,
      "d": 345.58806249999907,
      "v": 75
    },
    {
      "midi": 53,
      "hit": false,
      "t": 63529.379999999954,
      "d": 345.58806249999907,
      "v": 75
    },
    {
      "midi": 57,
      "hit": false,
      "t": 63529.379999999954,
      "d": 345.58806249999907,
      "v": 75
    },
    {
      "midi": 53,
      "hit": false,
      "t": 63882.32099999995,
      "d": 345.58806249999907,
      "v": 75
    },
    {
      "midi": 57,
      "hit": false,
      "t": 63882.32099999995,
      "d": 345.58806249999907,
      "v": 75
    },
    {
      "midi": 81,
      "hit": false,
      "t": 64235.26199999995,
      "d": 705.8819999999978,
      "v": 92
    },
    {
      "midi": 53,
      "hit": false,
      "t": 64588.20299999995,
      "d": 345.58806249999907,
      "v": 75
    },
    {
      "midi": 57,
      "hit": false,
      "t": 64588.20299999995,
      "d": 345.58806249999907,
      "v": 75
    },
    {
      "midi": 79,
      "hit": false,
      "t": 64941.14399999995,
      "d": 705.8820000000051,
      "v": 92
    },
    {
      "midi": 53,
      "hit": false,
      "t": 64941.14399999995,
      "d": 345.58806249999907,
      "v": 75
    },
    {
      "midi": 57,
      "hit": false,
      "t": 64941.14399999995,
      "d": 345.58806249999907,
      "v": 75
    },
    {
      "midi": 53,
      "hit": false,
      "t": 65294.08499999995,
      "d": 345.58806249999907,
      "v": 75
    },
    {
      "midi": 57,
      "hit": false,
      "t": 65294.08499999995,
      "d": 345.58806249999907,
      "v": 75
    },
    {
      "midi": 81,
      "hit": false,
      "t": 65647.02599999995,
      "d": 588.2350000000006,
      "v": 92
    },
    {
      "midi": 53,
      "hit": false,
      "t": 65999.96699999995,
      "d": 345.58806249999907,
      "v": 75
    },
    {
      "midi": 57,
      "hit": false,
      "t": 65999.96699999995,
      "d": 345.58806249999907,
      "v": 75
    },
    {
      "midi": 75,
      "hit": false,
      "t": 66352.90799999995,
      "d": 705.8819999999978,
      "v": 92
    },
    {
      "midi": 84,
      "hit": false,
      "t": 66352.90799999995,
      "d": 705.8819999999978,
      "v": 92
    },
    {
      "midi": 39,
      "hit": false,
      "t": 66352.90799999995,
      "d": 345.58806249999907,
      "v": 75
    },
    {
      "midi": 51,
      "hit": false,
      "t": 66352.90799999995,
      "d": 345.58806249999907,
      "v": 75
    },
    {
      "midi": 57,
      "hit": false,
      "t": 66352.90799999995,
      "d": 345.58806249999907,
      "v": 75
    },
    {
      "midi": 51,
      "hit": false,
      "t": 66705.84899999996,
      "d": 345.58806249999907,
      "v": 75
    },
    {
      "midi": 57,
      "hit": false,
      "t": 66705.84899999996,
      "d": 345.58806249999907,
      "v": 75
    },
    {
      "midi": 77,
      "hit": false,
      "t": 67058.78999999995,
      "d": 705.8819999999978,
      "v": 92
    },
    {
      "midi": 51,
      "hit": false,
      "t": 67411.73099999996,
      "d": 345.58806249999907,
      "v": 75
    },
    {
      "midi": 57,
      "hit": false,
      "t": 67411.73099999996,
      "d": 345.58806249999907,
      "v": 75
    },
    {
      "midi": 79,
      "hit": false,
      "t": 67764.67199999995,
      "d": 352.94100000000617,
      "v": 92
    },
    {
      "midi": 51,
      "hit": false,
      "t": 67764.67199999996,
      "d": 345.58806249999907,
      "v": 75
    },
    {
      "midi": 57,
      "hit": false,
      "t": 67764.67199999996,
      "d": 345.58806249999907,
      "v": 75
    },
    {
      "midi": 81,
      "hit": false,
      "t": 68117.61299999995,
      "d": 352.94100000000617,
      "v": 92
    },
    {
      "midi": 51,
      "hit": false,
      "t": 68117.61299999997,
      "d": 345.58806249999907,
      "v": 75
    },
    {
      "midi": 57,
      "hit": false,
      "t": 68117.61299999997,
      "d": 345.58806249999907,
      "v": 75
    },
    {
      "midi": 82,
      "hit": false,
      "t": 68470.55399999996,
      "d": 352.94100000000617,
      "v": 92
    },
    {
      "midi": 84,
      "hit": false,
      "t": 68823.49499999997,
      "d": 345.58806249999907,
      "v": 92
    },
    {
      "midi": 39,
      "hit": false,
      "t": 68823.49499999997,
      "d": 345.58806249999907,
      "v": 75
    },
    {
      "midi": 51,
      "hit": false,
      "t": 68823.49499999997,
      "d": 345.58806249999907,
      "v": 75
    },
    {
      "midi": 57,
      "hit": false,
      "t": 68823.49499999997,
      "d": 345.58806249999907,
      "v": 75
    },
    {
      "midi": 89,
      "hit": false,
      "t": 69176.43599999997,
      "d": 1235.2934999999998,
      "v": 92
    },
    {
      "midi": 93,
      "hit": false,
      "t": 69176.43599999997,
      "d": 1235.2934999999998,
      "v": 92
    },
    {
      "midi": 46,
      "hit": false,
      "t": 69176.43599999997,
      "d": 345.58806249999907,
      "v": 75
    },
    {
      "midi": 58,
      "hit": false,
      "t": 69176.43599999997,
      "d": 345.58806249999907,
      "v": 75
    },
    {
      "midi": 62,
      "hit": false,
      "t": 69176.43599999997,
      "d": 345.58806249999907,
      "v": 75
    },
    {
      "midi": 58,
      "hit": false,
      "t": 69529.37699999998,
      "d": 345.58806249999907,
      "v": 75
    },
    {
      "midi": 62,
      "hit": false,
      "t": 69529.37699999998,
      "d": 345.58806249999907,
      "v": 75
    },
    {
      "midi": 58,
      "hit": false,
      "t": 70235.25899999998,
      "d": 345.58806249999907,
      "v": 75
    },
    {
      "midi": 62,
      "hit": false,
      "t": 70235.25899999998,
      "d": 345.58806249999907,
      "v": 75
    },
    {
      "midi": 88,
      "hit": false,
      "t": 70588.19999999997,
      "d": 588.2350000000006,
      "v": 92
    },
    {
      "midi": 91,
      "hit": false,
      "t": 70588.19999999997,
      "d": 588.2350000000006,
      "v": 92
    },
    {
      "midi": 46,
      "hit": false,
      "t": 70588.19999999998,
      "d": 345.58806249999907,
      "v": 75
    },
    {
      "midi": 58,
      "hit": false,
      "t": 70588.19999999998,
      "d": 345.58806249999907,
      "v": 75
    },
    {
      "midi": 62,
      "hit": false,
      "t": 70588.19999999998,
      "d": 345.58806249999907,
      "v": 75
    },
    {
      "midi": 58,
      "hit": false,
      "t": 70941.14099999999,
      "d": 345.58806249999907,
      "v": 75
    },
    {
      "midi": 62,
      "hit": false,
      "t": 70941.14099999999,
      "d": 345.58806249999907,
      "v": 75
    },
    {
      "midi": 86,
      "hit": false,
      "t": 71294.08199999997,
      "d": 588.2350000000006,
      "v": 92
    },
    {
      "midi": 89,
      "hit": false,
      "t": 71294.08199999997,
      "d": 588.2350000000006,
      "v": 92
    },
    {
      "midi": 58,
      "hit": false,
      "t": 71647.02299999999,
      "d": 345.58806249999907,
      "v": 75
    },
    {
      "midi": 62,
      "hit": false,
      "t": 71647.02299999999,
      "d": 345.58806249999907,
      "v": 75
    },
    {
      "midi": 84,
      "hit": false,
      "t": 71999.96399999996,
      "d": 1235.2934999999998,
      "v": 92
    },
    {
      "midi": 88,
      "hit": false,
      "t": 71999.96399999996,
      "d": 1235.2934999999998,
      "v": 92
    },
    {
      "midi": 46,
      "hit": false,
      "t": 71999.96399999999,
      "d": 345.58806249999907,
      "v": 75
    },
    {
      "midi": 58,
      "hit": false,
      "t": 71999.96399999999,
      "d": 345.58806249999907,
      "v": 75
    },
    {
      "midi": 60,
      "hit": false,
      "t": 71999.96399999999,
      "d": 345.58806249999907,
      "v": 75
    },
    {
      "midi": 58,
      "hit": false,
      "t": 72352.905,
      "d": 345.58806249999907,
      "v": 75
    },
    {
      "midi": 60,
      "hit": false,
      "t": 72352.905,
      "d": 345.58806249999907,
      "v": 75
    },
    {
      "midi": 58,
      "hit": false,
      "t": 73058.787,
      "d": 345.58806249999907,
      "v": 75
    },
    {
      "midi": 60,
      "hit": false,
      "t": 73058.787,
      "d": 345.58806249999907,
      "v": 75
    },
    {
      "midi": 86,
      "hit": false,
      "t": 73411.72799999996,
      "d": 588.2350000000006,
      "v": 92
    },
    {
      "midi": 89,
      "hit": false,
      "t": 73411.72799999996,
      "d": 588.2350000000006,
      "v": 92
    },
    {
      "midi": 46,
      "hit": false,
      "t": 73411.728,
      "d": 345.58806249999907,
      "v": 75
    },
    {
      "midi": 58,
      "hit": false,
      "t": 73411.728,
      "d": 345.58806249999907,
      "v": 75
    },
    {
      "midi": 60,
      "hit": false,
      "t": 73411.728,
      "d": 345.58806249999907,
      "v": 75
    },
    {
      "midi": 58,
      "hit": false,
      "t": 73764.66900000001,
      "d": 345.58806249999907,
      "v": 75
    },
    {
      "midi": 60,
      "hit": false,
      "t": 73764.66900000001,
      "d": 345.58806249999907,
      "v": 75
    },
    {
      "midi": 88,
      "hit": false,
      "t": 74117.60999999996,
      "d": 588.2350000000006,
      "v": 92
    },
    {
      "midi": 91,
      "hit": false,
      "t": 74117.60999999996,
      "d": 588.2350000000006,
      "v": 92
    },
    {
      "midi": 58,
      "hit": false,
      "t": 74470.551,
      "d": 345.58806249999907,
      "v": 75
    },
    {
      "midi": 60,
      "hit": false,
      "t": 74470.551,
      "d": 345.58806249999907,
      "v": 75
    },
    {
      "midi": 89,
      "hit": false,
      "t": 74823.49199999995,
      "d": 1235.2934999999998,
      "v": 92
    },
    {
      "midi": 93,
      "hit": false,
      "t": 74823.49199999995,
      "d": 1235.2934999999998,
      "v": 92
    },
    {
      "midi": 47,
      "hit": false,
      "t": 74823.49200000001,
      "d": 345.58806249999907,
      "v": 75
    },
    {
      "midi": 59,
      "hit": false,
      "t": 74823.49200000001,
      "d": 345.58806249999907,
      "v": 75
    },
    {
      "midi": 62,
      "hit": false,
      "t": 74823.49200000001,
      "d": 345.58806249999907,
      "v": 75
    },
    {
      "midi": 59,
      "hit": false,
      "t": 75176.43300000002,
      "d": 345.58806249999907,
      "v": 75
    },
    {
      "midi": 62,
      "hit": false,
      "t": 75176.43300000002,
      "d": 345.58806249999907,
      "v": 75
    },
    {
      "midi": 59,
      "hit": false,
      "t": 75882.31500000002,
      "d": 345.58806249999907,
      "v": 75
    },
    {
      "midi": 62,
      "hit": false,
      "t": 75882.31500000002,
      "d": 345.58806249999907,
      "v": 75
    },
    {
      "midi": 88,
      "hit": false,
      "t": 76235.25599999995,
      "d": 588.2350000000006,
      "v": 92
    },
    {
      "midi": 91,
      "hit": false,
      "t": 76235.25599999995,
      "d": 588.2350000000006,
      "v": 92
    },
    {
      "midi": 47,
      "hit": false,
      "t": 76235.25600000002,
      "d": 345.58806249999907,
      "v": 75
    },
    {
      "midi": 59,
      "hit": false,
      "t": 76235.25600000002,
      "d": 345.58806249999907,
      "v": 75
    },
    {
      "midi": 62,
      "hit": false,
      "t": 76235.25600000002,
      "d": 345.58806249999907,
      "v": 75
    },
    {
      "midi": 59,
      "hit": false,
      "t": 76588.19700000003,
      "d": 345.58806249999907,
      "v": 75
    },
    {
      "midi": 62,
      "hit": false,
      "t": 76588.19700000003,
      "d": 345.58806249999907,
      "v": 75
    },
    {
      "midi": 86,
      "hit": false,
      "t": 76941.13799999995,
      "d": 588.2350000000006,
      "v": 92
    },
    {
      "midi": 89,
      "hit": false,
      "t": 76941.13799999995,
      "d": 588.2350000000006,
      "v": 92
    },
    {
      "midi": 59,
      "hit": false,
      "t": 77294.07900000003,
      "d": 345.58806249999907,
      "v": 75
    },
    {
      "midi": 62,
      "hit": false,
      "t": 77294.07900000003,
      "d": 345.58806249999907,
      "v": 75
    },
    {
      "midi": 81,
      "hit": false,
      "t": 77647.01999999995,
      "d": 588.2350000000006,
      "v": 92
    },
    {
      "midi": 88,
      "hit": false,
      "t": 77647.01999999995,
      "d": 588.2350000000006,
      "v": 92
    },
    {
      "midi": 47,
      "hit": false,
      "t": 77647.02000000003,
      "d": 345.58806249999907,
      "v": 75
    },
    {
      "midi": 59,
      "hit": false,
      "t": 77647.02000000003,
      "d": 345.58806249999907,
      "v": 75
    },
    {
      "midi": 62,
      "hit": false,
      "t": 77647.02000000003,
      "d": 345.58806249999907,
      "v": 75
    },
    {
      "midi": 59,
      "hit": false,
      "t": 77999.96100000004,
      "d": 345.58806249999907,
      "v": 75
    },
    {
      "midi": 62,
      "hit": false,
      "t": 77999.96100000004,
      "d": 345.58806249999907,
      "v": 75
    },
    {
      "midi": 86,
      "hit": false,
      "t": 78352.90199999994,
      "d": 588.2350000000006,
      "v": 92
    },
    {
      "midi": 59,
      "hit": false,
      "t": 78705.84300000004,
      "d": 345.58806249999907,
      "v": 75
    },
    {
      "midi": 62,
      "hit": false,
      "t": 78705.84300000004,
      "d": 345.58806249999907,
      "v": 75
    },
    {
      "midi": 88,
      "hit": false,
      "t": 79058.78399999994,
      "d": 588.2350000000006,
      "v": 92
    },
    {
      "midi": 47,
      "hit": false,
      "t": 79058.78400000004,
      "d": 345.58806249999907,
      "v": 75
    },
    {
      "midi": 59,
      "hit": false,
      "t": 79058.78400000004,
      "d": 345.58806249999907,
      "v": 75
    },
    {
      "midi": 62,
      "hit": false,
      "t": 79058.78400000004,
      "d": 345.58806249999907,
      "v": 75
    },
    {
      "midi": 59,
      "hit": false,
      "t": 79411.72500000005,
      "d": 345.58806249999907,
      "v": 75
    },
    {
      "midi": 62,
      "hit": false,
      "t": 79411.72500000005,
      "d": 345.58806249999907,
      "v": 75
    },
    {
      "midi": 89,
      "hit": false,
      "t": 79764.66599999994,
      "d": 588.2350000000006,
      "v": 92
    },
    {
      "midi": 59,
      "hit": false,
      "t": 80117.60700000005,
      "d": 345.58806249999907,
      "v": 75
    },
    {
      "midi": 62,
      "hit": false,
      "t": 80117.60700000005,
      "d": 345.58806249999907,
      "v": 75
    },
    {
      "midi": 81,
      "hit": false,
      "t": 80470.54799999994,
      "d": 1235.2934999999998,
      "v": 92
    },
    {
      "midi": 93,
      "hit": false,
      "t": 80470.54799999994,
      "d": 1235.2934999999998,
      "v": 92
    },
    {
      "midi": 43,
      "hit": false,
      "t": 80470.54800000005,
      "d": 345.58806249999907,
      "v": 75
    },
    {
      "midi": 55,
      "hit": false,
      "t": 80470.54800000005,
      "d": 345.58806249999907,
      "v": 75
    },
    {
      "midi": 62,
      "hit": false,
      "t": 80470.54800000005,
      "d": 345.58806249999907,
      "v": 75
    },
    {
      "midi": 55,
      "hit": false,
      "t": 80823.48900000006,
      "d": 345.58806249999907,
      "v": 75
    },
    {
      "midi": 62,
      "hit": false,
      "t": 80823.48900000006,
      "d": 345.58806249999907,
      "v": 75
    },
    {
      "midi": 55,
      "hit": false,
      "t": 81529.37100000006,
      "d": 345.58806249999907,
      "v": 75
    },
    {
      "midi": 62,
      "hit": false,
      "t": 81529.37100000006,
      "d": 345.58806249999907,
      "v": 75
    },
    {
      "midi": 91,
      "hit": false,
      "t": 81882.31199999993,
      "d": 588.2350000000006,
      "v": 92
    },
    {
      "midi": 43,
      "hit": false,
      "t": 81882.31200000006,
      "d": 345.58806249999907,
      "v": 75
    },
    {
      "midi": 55,
      "hit": false,
      "t": 81882.31200000006,
      "d": 345.58806249999907,
      "v": 75
    },
    {
      "midi": 62,
      "hit": false,
      "t": 81882.31200000006,
      "d": 345.58806249999907,
      "v": 75
    },
    {
      "midi": 55,
      "hit": false,
      "t": 82235.25300000007,
      "d": 345.58806249999907,
      "v": 75
    },
    {
      "midi": 62,
      "hit": false,
      "t": 82235.25300000007,
      "d": 345.58806249999907,
      "v": 75
    },
    {
      "midi": 89,
      "hit": false,
      "t": 82588.19399999993,
      "d": 588.2350000000006,
      "v": 92
    },
    {
      "midi": 55,
      "hit": false,
      "t": 82941.13500000007,
      "d": 345.58806249999907,
      "v": 75
    },
    {
      "midi": 62,
      "hit": false,
      "t": 82941.13500000007,
      "d": 345.58806249999907,
      "v": 75
    },
    {
      "midi": 83,
      "hit": false,
      "t": 83294.07599999993,
      "d": 588.2350000000006,
      "v": 92
    },
    {
      "midi": 88,
      "hit": false,
      "t": 83294.07599999993,
      "d": 588.2350000000006,
      "v": 92
    },
    {
      "midi": 44,
      "hit": false,
      "t": 83294.07600000007,
      "d": 345.58806249999907,
      "v": 75
    },
    {
      "midi": 56,
      "hit": false,
      "t": 83294.07600000007,
      "d": 345.58806249999907,
      "v": 75
    },
    {
      "midi": 62,
      "hit": false,
      "t": 83294.07600000007,
      "d": 345.58806249999907,
      "v": 75
    },
    {
      "midi": 56,
      "hit": false,
      "t": 83647.01700000008,
      "d": 345.58806249999907,
      "v": 75
    },
    {
      "midi": 62,
      "hit": false,
      "t": 83647.01700000008,
      "d": 345.58806249999907,
      "v": 75
    },
    {
      "midi": 86,
      "hit": false,
      "t": 83999.95799999993,
      "d": 588.2350000000006,
      "v": 92
    },
    {
      "midi": 56,
      "hit": false,
      "t": 84352.89900000008,
      "d": 345.58806249999907,
      "v": 75
    },
    {
      "midi": 62,
      "hit": false,
      "t": 84352.89900000008,
      "d": 345.58806249999907,
      "v": 75
    },
    {
      "midi": 85,
      "hit": false,
      "t": 84705.83999999992,
      "d": 588.2350000000006,
      "v": 92
    },
    {
      "midi": 44,
      "hit": false,
      "t": 84705.84000000008,
      "d": 345.58806249999907,
      "v": 75
    },
    {
      "midi": 56,
      "hit": false,
      "t": 84705.84000000008,
      "d": 345.58806249999907,
      "v": 75
    },
    {
      "midi": 62,
      "hit": false,
      "t": 84705.84000000008,
      "d": 345.58806249999907,
      "v": 75
    },
    {
      "midi": 56,
      "hit": false,
      "t": 85058.78100000009,
      "d": 345.58806249999907,
      "v": 75
    },
    {
      "midi": 62,
      "hit": false,
      "t": 85058.78100000009,
      "d": 345.58806249999907,
      "v": 75
    },
    {
      "midi": 86,
      "hit": false,
      "t": 85411.72199999992,
      "d": 588.2350000000006,
      "v": 92
    },
    {
      "midi": 56,
      "hit": false,
      "t": 85764.66300000009,
      "d": 345.58806249999907,
      "v": 75
    },
    {
      "midi": 62,
      "hit": false,
      "t": 85764.66300000009,
      "d": 345.58806249999907,
      "v": 75
    },
    {
      "midi": 83,
      "hit": false,
      "t": 86117.60399999992,
      "d": 2647.0574999999953,
      "v": 92
    },
    {
      "midi": 88,
      "hit": false,
      "t": 86117.60399999992,
      "d": 2647.0574999999953,
      "v": 92
    },
    {
      "midi": 45,
      "hit": false,
      "t": 86117.6040000001,
      "d": 345.58806249999907,
      "v": 75
    },
    {
      "midi": 57,
      "hit": false,
      "t": 86117.6040000001,
      "d": 345.58806249999907,
      "v": 75
    },
    {
      "midi": 62,
      "hit": false,
      "t": 86117.6040000001,
      "d": 345.58806249999907,
      "v": 75
    },
    {
      "midi": 57,
      "hit": false,
      "t": 86470.5450000001,
      "d": 345.58806249999907,
      "v": 75
    },
    {
      "midi": 62,
      "hit": false,
      "t": 86470.5450000001,
      "d": 345.58806249999907,
      "v": 75
    },
    {
      "midi": 57,
      "hit": false,
      "t": 87176.4270000001,
      "d": 345.58806249999907,
      "v": 75
    },
    {
      "midi": 62,
      "hit": false,
      "t": 87176.4270000001,
      "d": 345.58806249999907,
      "v": 75
    },
    {
      "midi": 45,
      "hit": false,
      "t": 87529.3680000001,
      "d": 345.58806249999907,
      "v": 75
    },
    {
      "midi": 57,
      "hit": false,
      "t": 87529.3680000001,
      "d": 345.58806249999907,
      "v": 75
    },
    {
      "midi": 62,
      "hit": false,
      "t": 87529.3680000001,
      "d": 345.58806249999907,
      "v": 75
    },
    {
      "midi": 57,
      "hit": false,
      "t": 87882.30900000011,
      "d": 345.58806249999907,
      "v": 75
    },
    {
      "midi": 62,
      "hit": false,
      "t": 87882.30900000011,
      "d": 345.58806249999907,
      "v": 75
    },
    {
      "midi": 57,
      "hit": false,
      "t": 88588.19100000011,
      "d": 345.58806249999907,
      "v": 75
    },
    {
      "midi": 62,
      "hit": false,
      "t": 88588.19100000011,
      "d": 345.58806249999907,
      "v": 75
    },
    {
      "midi": 85,
      "hit": false,
      "t": 88941.13199999991,
      "d": 1235.2934999999998,
      "v": 92
    },
    {
      "midi": 88,
      "hit": false,
      "t": 88941.13199999991,
      "d": 1235.2934999999998,
      "v": 92
    },
    {
      "midi": 57,
      "hit": false,
      "t": 88941.13200000011,
      "d": 2647.0574999999953,
      "v": 75
    },
    {
      "midi": 61,
      "hit": false,
      "t": 88941.13200000011,
      "d": 2647.0574999999953,
      "v": 75
    },
    {
      "midi": 86,
      "hit": false,
      "t": 90352.8959999999,
      "d": 588.2350000000006,
      "v": 92
    },
    {
      "midi": 88,
      "hit": false,
      "t": 91058.7779999999,
      "d": 588.2350000000006,
      "v": 92
    },
    {
      "midi": 89,
      "hit": false,
      "t": 91764.6599999999,
      "d": 345.58806249999907,
      "v": 92
    },
    {
      "midi": 38,
      "hit": false,
      "t": 91764.6600000001,
      "d": 345.58806249999907,
      "v": 75
    },
    {
      "midi": 50,
      "hit": false,
      "t": 91764.6600000001,
      "d": 345.58806249999907,
      "v": 75
    },
    {
      "midi": 88,
      "hit": false,
      "t": 92117.60099999991,
      "d": 345.58806249999907,
      "v": 92
    },
    {
      "midi": 57,
      "hit": false,
      "t": 92117.60100000011,
      "d": 345.58806249999907,
      "v": 75
    },
    {
      "midi": 84,
      "hit": false,
      "t": 92470.54199999991,
      "d": 345.58806249999907,
      "v": 92
    },
    {
      "midi": 64,
      "hit": false,
      "t": 92470.54200000012,
      "d": 345.58806249999907,
      "v": 75
    },
    {
      "midi": 81,
      "hit": false,
      "t": 92823.48299999992,
      "d": 345.58806249999907,
      "v": 92
    },
    {
      "midi": 38,
      "hit": false,
      "t": 92823.48300000012,
      "d": 345.58806249999907,
      "v": 75
    },
    {
      "midi": 50,
      "hit": false,
      "t": 92823.48300000012,
      "d": 345.58806249999907,
      "v": 75
    },
    {
      "midi": 86,
      "hit": false,
      "t": 93176.42399999993,
      "d": 588.2350000000006,
      "v": 92
    },
    {
      "midi": 34,
      "hit": false,
      "t": 93176.42400000013,
      "d": 345.58806249999907,
      "v": 75
    },
    {
      "midi": 46,
      "hit": false,
      "t": 93176.42400000013,
      "d": 345.58806249999907,
      "v": 75
    },
    {
      "midi": 53,
      "hit": false,
      "t": 93529.36500000014,
      "d": 345.58806249999907,
      "v": 75
    },
    {
      "midi": 60,
      "hit": false,
      "t": 93882.30600000014,
      "d": 345.58806249999907,
      "v": 75
    },
    {
      "midi": 86,
      "hit": false,
      "t": 94235.24699999993,
      "d": 345.58806249999907,
      "v": 92
    },
    {
      "midi": 34,
      "hit": false,
      "t": 94235.24700000015,
      "d": 345.58806249999907,
      "v": 75
    },
    {
      "midi": 46,
      "hit": false,
      "t": 94235.24700000015,
      "d": 345.58806249999907,
      "v": 75
    },
    {
      "midi": 84,
      "hit": false,
      "t": 94588.18799999994,
      "d": 345.58806249999907,
      "v": 92
    },
    {
      "midi": 33,
      "hit": false,
      "t": 94588.18800000015,
      "d": 345.58806249999907,
      "v": 75
    },
    {
      "midi": 45,
      "hit": false,
      "t": 94588.18800000015,
      "d": 345.58806249999907,
      "v": 75
    },
    {
      "midi": 81,
      "hit": false,
      "t": 94941.12899999994,
      "d": 345.58806249999907,
      "v": 92
    },
    {
      "midi": 52,
      "hit": false,
      "t": 94941.12900000016,
      "d": 345.58806249999907,
      "v": 75
    },
    {
      "midi": 77,
      "hit": false,
      "t": 95294.06999999995,
      "d": 345.58806249999907,
      "v": 92
    },
    {
      "midi": 36,
      "hit": false,
      "t": 95294.07000000017,
      "d": 345.58806249999907,
      "v": 75
    },
    {
      "midi": 48,
      "hit": false,
      "t": 95294.07000000017,
      "d": 345.58806249999907,
      "v": 75
    },
    {
      "midi": 79,
      "hit": false,
      "t": 95647.01099999995,
      "d": 345.58806249999907,
      "v": 92
    },
    {
      "midi": 60,
      "hit": false,
      "t": 95647.01100000017,
      "d": 345.58806249999907,
      "v": 75
    },
    {
      "midi": 81,
      "hit": false,
      "t": 95999.95199999996,
      "d": 588.2350000000006,
      "v": 92
    },
    {
      "midi": 41,
      "hit": false,
      "t": 95999.95200000018,
      "d": 345.58806249999907,
      "v": 75
    },
    {
      "midi": 53,
      "hit": false,
      "t": 95999.95200000018,
      "d": 345.58806249999907,
      "v": 75
    },
    {
      "midi": 57,
      "hit": false,
      "t": 96352.89300000019,
      "d": 345.58806249999907,
      "v": 75
    },
    {
      "midi": 79,
      "hit": false,
      "t": 96705.83399999996,
      "d": 588.2350000000006,
      "v": 92
    },
    {
      "midi": 40,
      "hit": false,
      "t": 96705.83400000019,
      "d": 345.58806249999907,
      "v": 75
    },
    {
      "midi": 52,
      "hit": false,
      "t": 96705.83400000019,
      "d": 345.58806249999907,
      "v": 75
    },
    {
      "midi": 55,
      "hit": false,
      "t": 97058.7750000002,
      "d": 345.58806249999907,
      "v": 75
    },
    {
      "midi": 76,
      "hit": false,
      "t": 97411.71599999996,
      "d": 345.58806249999907,
      "v": 92
    },
    {
      "midi": 38,
      "hit": false,
      "t": 97411.7160000002,
      "d": 345.58806249999907,
      "v": 75
    },
    {
      "midi": 50,
      "hit": false,
      "t": 97411.7160000002,
      "d": 345.58806249999907,
      "v": 75
    },
    {
      "midi": 77,
      "hit": false,
      "t": 97764.65699999996,
      "d": 345.58806249999907,
      "v": 92
    },
    {
      "midi": 57,
      "hit": false,
      "t": 97764.65700000021,
      "d": 345.58806249999907,
      "v": 75
    },
    {
      "midi": 81,
      "hit": false,
      "t": 98117.59799999997,
      "d": 345.58806249999907,
      "v": 92
    },
    {
      "midi": 64,
      "hit": false,
      "t": 98117.59800000022,
      "d": 345.58806249999907,
      "v": 75
    },
    {
      "midi": 84,
      "hit": false,
      "t": 98470.53899999998,
      "d": 345.58806249999907,
      "v": 92
    },
    {
      "midi": 38,
      "hit": false,
      "t": 98470.53900000022,
      "d": 345.58806249999907,
      "v": 75
    },
    {
      "midi": 50,
      "hit": false,
      "t": 98470.53900000022,
      "d": 345.58806249999907,
      "v": 75
    },
    {
      "midi": 79,
      "hit": false,
      "t": 98823.47999999998,
      "d": 588.2350000000006,
      "v": 92
    },
    {
      "midi": 84,
      "hit": false,
      "t": 98823.47999999998,
      "d": 588.2350000000006,
      "v": 92
    },
    {
      "midi": 88,
      "hit": false,
      "t": 98823.47999999998,
      "d": 588.2350000000006,
      "v": 92
    },
    {
      "midi": 31,
      "hit": false,
      "t": 98823.48000000023,
      "d": 345.58806249999907,
      "v": 75
    },
    {
      "midi": 43,
      "hit": false,
      "t": 98823.48000000023,
      "d": 345.58806249999907,
      "v": 75
    },
    {
      "midi": 50,
      "hit": false,
      "t": 99176.42100000023,
      "d": 345.58806249999907,
      "v": 75
    },
    {
      "midi": 79,
      "hit": false,
      "t": 99529.36199999998,
      "d": 588.2350000000006,
      "v": 92
    },
    {
      "midi": 84,
      "hit": false,
      "t": 99529.36199999998,
      "d": 588.2350000000006,
      "v": 92
    },
    {
      "midi": 89,
      "hit": false,
      "t": 99529.36199999998,
      "d": 588.2350000000006,
      "v": 92
    },
    {
      "midi": 43,
      "hit": false,
      "t": 99882.30300000023,
      "d": 345.58806249999907,
      "v": 75
    },
    {
      "midi": 55,
      "hit": false,
      "t": 99882.30300000023,
      "d": 345.58806249999907,
      "v": 75
    },
    {
      "midi": 77,
      "hit": false,
      "t": 100235.24399999998,
      "d": 345.58806249999907,
      "v": 92
    },
    {
      "midi": 79,
      "hit": false,
      "t": 100235.24399999998,
      "d": 345.58806249999907,
      "v": 92
    },
    {
      "midi": 84,
      "hit": false,
      "t": 100235.24399999998,
      "d": 345.58806249999907,
      "v": 92
    },
    {
      "midi": 36,
      "hit": false,
      "t": 100235.24400000024,
      "d": 345.58806249999907,
      "v": 75
    },
    {
      "midi": 48,
      "hit": false,
      "t": 100235.24400000024,
      "d": 345.58806249999907,
      "v": 75
    },
    {
      "midi": 67,
      "hit": false,
      "t": 100588.18499999998,
      "d": 345.58806249999907,
      "v": 92
    },
    {
      "midi": 74,
      "hit": false,
      "t": 100941.12599999999,
      "d": 345.58806249999907,
      "v": 92
    },
    {
      "midi": 77,
      "hit": false,
      "t": 101294.067,
      "d": 345.58806249999907,
      "v": 92
    },
    {
      "midi": 31,
      "hit": false,
      "t": 101294.06700000024,
      "d": 345.58806249999907,
      "v": 75
    },
    {
      "midi": 43,
      "hit": false,
      "t": 101294.06700000024,
      "d": 345.58806249999907,
      "v": 75
    },
    {
      "midi": 72,
      "hit": false,
      "t": 101647.008,
      "d": 588.2350000000006,
      "v": 92
    },
    {
      "midi": 76,
      "hit": false,
      "t": 101647.008,
      "d": 588.2350000000006,
      "v": 92
    },
    {
      "midi": 36,
      "hit": false,
      "t": 101647.00800000025,
      "d": 588.2350000000006,
      "v": 75
    },
    {
      "midi": 48,
      "hit": false,
      "t": 101647.00800000025,
      "d": 588.2350000000006,
      "v": 75
    },
    {
      "midi": 88,
      "hit": false,
      "t": 102352.89,
      "d": 588.2350000000006,
      "v": 92
    },
    {
      "midi": 89,
      "hit": false,
      "t": 103058.772,
      "d": 345.58806249999907,
      "v": 92
    },
    {
      "midi": 38,
      "hit": false,
      "t": 103058.77200000024,
      "d": 345.58806249999907,
      "v": 75
    },
    {
      "midi": 50,
      "hit": false,
      "t": 103058.77200000024,
      "d": 345.58806249999907,
      "v": 75
    },
    {
      "midi": 88,
      "hit": false,
      "t": 103411.713,
      "d": 345.58806249999907,
      "v": 92
    },
    {
      "midi": 57,
      "hit": false,
      "t": 103411.71300000025,
      "d": 345.58806249999907,
      "v": 75
    },
    {
      "midi": 84,
      "hit": false,
      "t": 103764.65400000001,
      "d": 345.58806249999907,
      "v": 92
    },
    {
      "midi": 64,
      "hit": false,
      "t": 103764.65400000026,
      "d": 345.58806249999907,
      "v": 75
    },
    {
      "midi": 81,
      "hit": false,
      "t": 104117.59500000002,
      "d": 345.58806249999907,
      "v": 92
    },
    {
      "midi": 38,
      "hit": false,
      "t": 104117.59500000026,
      "d": 345.58806249999907,
      "v": 75
    },
    {
      "midi": 50,
      "hit": false,
      "t": 104117.59500000026,
      "d": 345.58806249999907,
      "v": 75
    },
    {
      "midi": 86,
      "hit": false,
      "t": 104470.53600000002,
      "d": 588.2350000000006,
      "v": 92
    },
    {
      "midi": 34,
      "hit": false,
      "t": 104470.53600000027,
      "d": 345.58806249999907,
      "v": 75
    },
    {
      "midi": 46,
      "hit": false,
      "t": 104470.53600000027,
      "d": 345.58806249999907,
      "v": 75
    },
    {
      "midi": 53,
      "hit": false,
      "t": 104823.47700000028,
      "d": 345.58806249999907,
      "v": 75
    },
    {
      "midi": 60,
      "hit": false,
      "t": 105176.41800000028,
      "d": 345.58806249999907,
      "v": 75
    },
    {
      "midi": 86,
      "hit": false,
      "t": 105529.35900000003,
      "d": 345.58806249999907,
      "v": 92
    },
    {
      "midi": 34,
      "hit": false,
      "t": 105529.35900000029,
      "d": 345.58806249999907,
      "v": 75
    },
    {
      "midi": 46,
      "hit": false,
      "t": 105529.35900000029,
      "d": 345.58806249999907,
      "v": 75
    },
    {
      "midi": 84,
      "hit": false,
      "t": 105882.30000000003,
      "d": 345.58806249999907,
      "v": 92
    },
    {
      "midi": 33,
      "hit": false,
      "t": 105882.3000000003,
      "d": 345.58806249999907,
      "v": 75
    },
    {
      "midi": 45,
      "hit": false,
      "t": 105882.3000000003,
      "d": 345.58806249999907,
      "v": 75
    },
    {
      "midi": 81,
      "hit": false,
      "t": 106235.24100000004,
      "d": 345.58806249999907,
      "v": 92
    },
    {
      "midi": 52,
      "hit": false,
      "t": 106235.2410000003,
      "d": 345.58806249999907,
      "v": 75
    },
    {
      "midi": 77,
      "hit": false,
      "t": 106588.18200000004,
      "d": 345.58806249999907,
      "v": 92
    },
    {
      "midi": 36,
      "hit": false,
      "t": 106588.1820000003,
      "d": 345.58806249999907,
      "v": 75
    },
    {
      "midi": 48,
      "hit": false,
      "t": 106588.1820000003,
      "d": 345.58806249999907,
      "v": 75
    },
    {
      "midi": 79,
      "hit": false,
      "t": 106941.12300000005,
      "d": 345.58806249999907,
      "v": 92
    },
    {
      "midi": 60,
      "hit": false,
      "t": 106941.12300000031,
      "d": 345.58806249999907,
      "v": 75
    },
    {
      "midi": 81,
      "hit": false,
      "t": 107294.06400000006,
      "d": 588.2350000000006,
      "v": 92
    },
    {
      "midi": 41,
      "hit": false,
      "t": 107294.06400000032,
      "d": 345.58806249999907,
      "v": 75
    },
    {
      "midi": 53,
      "hit": false,
      "t": 107294.06400000032,
      "d": 345.58806249999907,
      "v": 75
    },
    {
      "midi": 57,
      "hit": false,
      "t": 107647.00500000032,
      "d": 345.58806249999907,
      "v": 75
    },
    {
      "midi": 79,
      "hit": false,
      "t": 107999.94600000005,
      "d": 588.2350000000006,
      "v": 92
    },
    {
      "midi": 40,
      "hit": false,
      "t": 107999.94600000033,
      "d": 345.58806249999907,
      "v": 75
    },
    {
      "midi": 52,
      "hit": false,
      "t": 107999.94600000033,
      "d": 345.58806249999907,
      "v": 75
    },
    {
      "midi": 55,
      "hit": false,
      "t": 108352.88700000034,
      "d": 345.58806249999907,
      "v": 75
    },
    {
      "midi": 76,
      "hit": false,
      "t": 108705.82800000005,
      "d": 345.58806249999907,
      "v": 92
    },
    {
      "midi": 38,
      "hit": false,
      "t": 108705.82800000034,
      "d": 345.58806249999907,
      "v": 75
    },
    {
      "midi": 50,
      "hit": false,
      "t": 108705.82800000034,
      "d": 345.58806249999907,
      "v": 75
    },
    {
      "midi": 77,
      "hit": false,
      "t": 109058.76900000006,
      "d": 345.58806249999907,
      "v": 92
    },
    {
      "midi": 57,
      "hit": false,
      "t": 109058.76900000035,
      "d": 345.58806249999907,
      "v": 75
    },
    {
      "midi": 81,
      "hit": false,
      "t": 109411.71000000006,
      "d": 345.58806249999907,
      "v": 92
    },
    {
      "midi": 64,
      "hit": false,
      "t": 109411.71000000036,
      "d": 345.58806249999907,
      "v": 75
    },
    {
      "midi": 84,
      "hit": false,
      "t": 109764.65100000007,
      "d": 345.58806249999907,
      "v": 92
    },
    {
      "midi": 38,
      "hit": false,
      "t": 109764.65100000036,
      "d": 345.58806249999907,
      "v": 75
    },
    {
      "midi": 50,
      "hit": false,
      "t": 109764.65100000036,
      "d": 345.58806249999907,
      "v": 75
    },
    {
      "midi": 79,
      "hit": false,
      "t": 110117.59200000008,
      "d": 345.58806249999907,
      "v": 92
    },
    {
      "midi": 84,
      "hit": false,
      "t": 110117.59200000008,
      "d": 345.58806249999907,
      "v": 92
    },
    {
      "midi": 88,
      "hit": false,
      "t": 110117.59200000008,
      "d": 345.58806249999907,
      "v": 92
    },
    {
      "midi": 31,
      "hit": false,
      "t": 110117.59200000037,
      "d": 588.2350000000006,
      "v": 75
    },
    {
      "midi": 43,
      "hit": false,
      "t": 110117.59200000037,
      "d": 588.2350000000006,
      "v": 75
    },
    {
      "midi": 86,
      "hit": false,
      "t": 110470.53300000008,
      "d": 345.58806249999907,
      "v": 92
    },
    {
      "midi": 76,
      "hit": false,
      "t": 110823.47400000009,
      "d": 345.58806249999907,
      "v": 92
    },
    {
      "midi": 81,
      "hit": false,
      "t": 110823.47400000009,
      "d": 345.58806249999907,
      "v": 92
    },
    {
      "midi": 84,
      "hit": false,
      "t": 110823.47400000009,
      "d": 345.58806249999907,
      "v": 92
    },
    {
      "midi": 33,
      "hit": false,
      "t": 110823.47400000037,
      "d": 588.2350000000006,
      "v": 75
    },
    {
      "midi": 45,
      "hit": false,
      "t": 110823.47400000037,
      "d": 588.2350000000006,
      "v": 75
    },
    {
      "midi": 79,
      "hit": false,
      "t": 111176.4150000001,
      "d": 345.58806249999907,
      "v": 92
    },
    {
      "midi": 86,
      "hit": false,
      "t": 111176.4150000001,
      "d": 345.58806249999907,
      "v": 92
    },
    {
      "midi": 79,
      "hit": false,
      "t": 111529.3560000001,
      "d": 345.58806249999907,
      "v": 92
    },
    {
      "midi": 81,
      "hit": false,
      "t": 111529.3560000001,
      "d": 345.58806249999907,
      "v": 92
    },
    {
      "midi": 86,
      "hit": false,
      "t": 111529.3560000001,
      "d": 345.58806249999907,
      "v": 92
    },
    {
      "midi": 38,
      "hit": false,
      "t": 111529.35600000036,
      "d": 345.58806249999907,
      "v": 75
    },
    {
      "midi": 50,
      "hit": false,
      "t": 111529.35600000036,
      "d": 345.58806249999907,
      "v": 75
    },
    {
      "midi": 69,
      "hit": false,
      "t": 111882.29700000011,
      "d": 345.58806249999907,
      "v": 92
    },
    {
      "midi": 76,
      "hit": false,
      "t": 112235.23800000011,
      "d": 345.58806249999907,
      "v": 92
    },
    {
      "midi": 79,
      "hit": false,
      "t": 112588.17900000012,
      "d": 345.58806249999907,
      "v": 92
    },
    {
      "midi": 33,
      "hit": false,
      "t": 112588.17900000037,
      "d": 345.58806249999907,
      "v": 75
    },
    {
      "midi": 45,
      "hit": false,
      "t": 112588.17900000037,
      "d": 345.58806249999907,
      "v": 75
    },
    {
      "midi": 78,
      "hit": false,
      "t": 112941.12000000013,
      "d": 705.8819999999978,
      "v": 92
    },
    {
      "midi": 86,
      "hit": false,
      "t": 112941.12000000013,
      "d": 705.8819999999978,
      "v": 92
    },
    {
      "midi": 38,
      "hit": false,
      "t": 112941.12000000037,
      "d": 588.2350000000006,
      "v": 75
    },
    {
      "midi": 50,
      "hit": false,
      "t": 112941.12000000037,
      "d": 588.2350000000006,
      "v": 75
    },
    {
      "midi": 88,
      "hit": false,
      "t": 113647.00200000012,
      "d": 588.2350000000006,
      "v": 92
    },
    {
      "midi": 89,
      "hit": false,
      "t": 114352.88400000012,
      "d": 352.94100000000617,
      "v": 92
    },
    {
      "midi": 62,
      "hit": false,
      "t": 114352.88400000037,
      "d": 1235.2934999999998,
      "v": 75
    },
    {
      "midi": 65,
      "hit": false,
      "t": 114352.88400000037,
      "d": 1235.2934999999998,
      "v": 75
    },
    {
      "midi": 74,
      "hit": false,
      "t": 114352.88400000037,
      "d": 1235.2934999999998,
      "v": 75
    },
    {
      "midi": 88,
      "hit": false,
      "t": 114705.82500000013,
      "d": 352.94100000000617,
      "v": 92
    },
    {
      "midi": 84,
      "hit": false,
      "t": 115058.76600000013,
      "d": 352.94100000000617,
      "v": 92
    },
    {
      "midi": 81,
      "hit": false,
      "t": 115411.70700000014,
      "d": 352.94100000000617,
      "v": 92
    },
    {
      "midi": 86,
      "hit": false,
      "t": 115764.64800000015,
      "d": 1058.823000000004,
      "v": 92
    },
    {
      "midi": 58,
      "hit": false,
      "t": 115764.64800000036,
      "d": 1235.2934999999998,
      "v": 75
    },
    {
      "midi": 65,
      "hit": false,
      "t": 115764.64800000036,
      "d": 1235.2934999999998,
      "v": 75
    },
    {
      "midi": 70,
      "hit": false,
      "t": 115764.64800000036,
      "d": 1235.2934999999998,
      "v": 75
    },
    {
      "midi": 86,
      "hit": false,
      "t": 116823.47100000015,
      "d": 345.58806249999907,
      "v": 92
    },
    {
      "midi": 84,
      "hit": false,
      "t": 117176.41200000016,
      "d": 352.94100000000617,
      "v": 92
    },
    {
      "midi": 57,
      "hit": false,
      "t": 117176.41200000036,
      "d": 705.8819999999978,
      "v": 75
    },
    {
      "midi": 64,
      "hit": false,
      "t": 117176.41200000036,
      "d": 705.8819999999978,
      "v": 75
    },
    {
      "midi": 67,
      "hit": false,
      "t": 117176.41200000036,
      "d": 705.8819999999978,
      "v": 75
    },
    {
      "midi": 81,
      "hit": false,
      "t": 117529.35300000016,
      "d": 352.94100000000617,
      "v": 92
    },
    {
      "midi": 77,
      "hit": false,
      "t": 117882.29400000017,
      "d": 352.94100000000617,
      "v": 92
    },
    {
      "midi": 60,
      "hit": false,
      "t": 117882.29400000036,
      "d": 705.8819999999978,
      "v": 75
    },
    {
      "midi": 65,
      "hit": false,
      "t": 117882.29400000036,
      "d": 705.8819999999978,
      "v": 75
    },
    {
      "midi": 70,
      "hit": false,
      "t": 117882.29400000036,
      "d": 705.8819999999978,
      "v": 75
    },
    {
      "midi": 79,
      "hit": false,
      "t": 118235.23500000018,
      "d": 352.94100000000617,
      "v": 92
    },
    {
      "midi": 81,
      "hit": false,
      "t": 118588.17600000018,
      "d": 705.8819999999978,
      "v": 92
    },
    {
      "midi": 65,
      "hit": false,
      "t": 118588.17600000036,
      "d": 705.8819999999978,
      "v": 75
    },
    {
      "midi": 69,
      "hit": false,
      "t": 118588.17600000036,
      "d": 705.8819999999978,
      "v": 75
    },
    {
      "midi": 77,
      "hit": false,
      "t": 118588.17600000036,
      "d": 705.8819999999978,
      "v": 75
    },
    {
      "midi": 79,
      "hit": false,
      "t": 119294.05800000018,
      "d": 588.2350000000006,
      "v": 92
    },
    {
      "midi": 64,
      "hit": false,
      "t": 119294.05800000035,
      "d": 588.2350000000006,
      "v": 75
    },
    {
      "midi": 69,
      "hit": false,
      "t": 119294.05800000035,
      "d": 588.2350000000006,
      "v": 75
    },
    {
      "midi": 73,
      "hit": false,
      "t": 119294.05800000035,
      "d": 588.2350000000006,
      "v": 75
    },
    {
      "midi": 76,
      "hit": false,
      "t": 119294.05800000035,
      "d": 588.2350000000006,
      "v": 75
    },
    {
      "midi": 76,
      "hit": false,
      "t": 119999.94000000018,
      "d": 345.58806249999907,
      "v": 92
    },
    {
      "midi": 62,
      "hit": false,
      "t": 119999.94000000035,
      "d": 1235.2934999999998,
      "v": 75
    },
    {
      "midi": 69,
      "hit": false,
      "t": 119999.94000000035,
      "d": 1235.2934999999998,
      "v": 75
    },
    {
      "midi": 72,
      "hit": false,
      "t": 119999.94000000035,
      "d": 1235.2934999999998,
      "v": 75
    },
    {
      "midi": 77,
      "hit": false,
      "t": 120352.88100000018,
      "d": 345.58806249999907,
      "v": 92
    },
    {
      "midi": 81,
      "hit": false,
      "t": 120705.82200000019,
      "d": 345.58806249999907,
      "v": 92
    },
    {
      "midi": 84,
      "hit": false,
      "t": 121058.7630000002,
      "d": 345.58806249999907,
      "v": 92
    },
    {
      "midi": 88,
      "hit": false,
      "t": 121411.7040000002,
      "d": 588.2350000000006,
      "v": 92
    },
    {
      "midi": 55,
      "hit": false,
      "t": 121411.70400000035,
      "d": 1235.2934999999998,
      "v": 75
    },
    {
      "midi": 65,
      "hit": false,
      "t": 121411.70400000035,
      "d": 1235.2934999999998,
      "v": 75
    },
    {
      "midi": 89,
      "hit": false,
      "t": 122117.5860000002,
      "d": 588.2350000000006,
      "v": 92
    },
    {
      "midi": 84,
      "hit": false,
      "t": 122823.4680000002,
      "d": 1941.1754999999976,
      "v": 92
    },
    {
      "midi": 60,
      "hit": false,
      "t": 122823.46800000034,
      "d": 1411.7639999999956,
      "v": 75
    },
    {
      "midi": 65,
      "hit": false,
      "t": 122823.46800000034,
      "d": 1411.7639999999956,
      "v": 75
    },
    {
      "midi": 64,
      "hit": false,
      "t": 124235.23200000034,
      "d": 1235.2934999999998,
      "v": 75
    },
    {
      "midi": 88,
      "hit": false,
      "t": 124941.11400000019,
      "d": 588.2350000000006,
      "v": 92
    },
    {
      "midi": 89,
      "hit": false,
      "t": 125646.99600000019,
      "d": 352.94100000000617,
      "v": 92
    },
    {
      "midi": 62,
      "hit": false,
      "t": 125646.99600000033,
      "d": 1235.2934999999998,
      "v": 75
    },
    {
      "midi": 65,
      "hit": false,
      "t": 125646.99600000033,
      "d": 1235.2934999999998,
      "v": 75
    },
    {
      "midi": 74,
      "hit": false,
      "t": 125646.99600000033,
      "d": 1235.2934999999998,
      "v": 75
    },
    {
      "midi": 88,
      "hit": false,
      "t": 125999.9370000002,
      "d": 352.94100000000617,
      "v": 92
    },
    {
      "midi": 84,
      "hit": false,
      "t": 126352.8780000002,
      "d": 352.94100000000617,
      "v": 92
    },
    {
      "midi": 81,
      "hit": false,
      "t": 126705.8190000002,
      "d": 352.94100000000617,
      "v": 92
    },
    {
      "midi": 86,
      "hit": false,
      "t": 127058.76000000021,
      "d": 1058.823000000004,
      "v": 92
    },
    {
      "midi": 58,
      "hit": false,
      "t": 127058.76000000033,
      "d": 1235.2934999999998,
      "v": 75
    },
    {
      "midi": 65,
      "hit": false,
      "t": 127058.76000000033,
      "d": 1235.2934999999998,
      "v": 75
    },
    {
      "midi": 70,
      "hit": false,
      "t": 127058.76000000033,
      "d": 1235.2934999999998,
      "v": 75
    },
    {
      "midi": 86,
      "hit": false,
      "t": 128117.58300000022,
      "d": 345.58806249999907,
      "v": 92
    },
    {
      "midi": 84,
      "hit": false,
      "t": 128470.52400000022,
      "d": 352.94100000000617,
      "v": 92
    },
    {
      "midi": 57,
      "hit": false,
      "t": 128470.52400000033,
      "d": 705.8819999999978,
      "v": 75
    },
    {
      "midi": 64,
      "hit": false,
      "t": 128470.52400000033,
      "d": 705.8819999999978,
      "v": 75
    },
    {
      "midi": 67,
      "hit": false,
      "t": 128470.52400000033,
      "d": 705.8819999999978,
      "v": 75
    },
    {
      "midi": 81,
      "hit": false,
      "t": 128823.46500000023,
      "d": 352.94100000000617,
      "v": 92
    },
    {
      "midi": 77,
      "hit": false,
      "t": 129176.40600000024,
      "d": 352.94100000000617,
      "v": 92
    },
    {
      "midi": 60,
      "hit": false,
      "t": 129176.40600000032,
      "d": 705.8819999999978,
      "v": 75
    },
    {
      "midi": 65,
      "hit": false,
      "t": 129176.40600000032,
      "d": 705.8819999999978,
      "v": 75
    },
    {
      "midi": 70,
      "hit": false,
      "t": 129176.40600000032,
      "d": 705.8819999999978,
      "v": 75
    },
    {
      "midi": 79,
      "hit": false,
      "t": 129529.34700000024,
      "d": 352.94100000000617,
      "v": 92
    },
    {
      "midi": 81,
      "hit": false,
      "t": 129882.28800000025,
      "d": 705.8819999999978,
      "v": 92
    },
    {
      "midi": 65,
      "hit": false,
      "t": 129882.28800000032,
      "d": 705.8819999999978,
      "v": 75
    },
    {
      "midi": 69,
      "hit": false,
      "t": 129882.28800000032,
      "d": 705.8819999999978,
      "v": 75
    },
    {
      "midi": 77,
      "hit": false,
      "t": 129882.28800000032,
      "d": 705.8819999999978,
      "v": 75
    },
    {
      "midi": 79,
      "hit": false,
      "t": 130588.17000000025,
      "d": 588.234999999986,
      "v": 92
    },
    {
      "midi": 64,
      "hit": false,
      "t": 130588.17000000032,
      "d": 588.2350000000006,
      "v": 75
    },
    {
      "midi": 69,
      "hit": false,
      "t": 130588.17000000032,
      "d": 588.2350000000006,
      "v": 75
    },
    {
      "midi": 73,
      "hit": false,
      "t": 130588.17000000032,
      "d": 588.2350000000006,
      "v": 75
    },
    {
      "midi": 76,
      "hit": false,
      "t": 130588.17000000032,
      "d": 588.2350000000006,
      "v": 75
    },
    {
      "midi": 76,
      "hit": false,
      "t": 131294.05200000023,
      "d": 352.9409999999916,
      "v": 92
    },
    {
      "midi": 62,
      "hit": false,
      "t": 131294.05200000032,
      "d": 1235.2934999999998,
      "v": 75
    },
    {
      "midi": 69,
      "hit": false,
      "t": 131294.05200000032,
      "d": 1235.2934999999998,
      "v": 75
    },
    {
      "midi": 72,
      "hit": false,
      "t": 131294.05200000032,
      "d": 1235.2934999999998,
      "v": 75
    },
    {
      "midi": 77,
      "hit": false,
      "t": 131646.99300000022,
      "d": 352.9409999999916,
      "v": 92
    },
    {
      "midi": 81,
      "hit": false,
      "t": 131999.9340000002,
      "d": 352.9409999999916,
      "v": 92
    },
    {
      "midi": 84,
      "hit": false,
      "t": 132352.8750000002,
      "d": 352.9409999999916,
      "v": 92
    },
    {
      "midi": 88,
      "hit": false,
      "t": 132705.8160000002,
      "d": 352.9409999999916,
      "v": 92
    },
    {
      "midi": 55,
      "hit": false,
      "t": 132705.8160000003,
      "d": 588.234999999986,
      "v": 75
    },
    {
      "midi": 86,
      "hit": false,
      "t": 133058.7570000002,
      "d": 352.9409999999916,
      "v": 92
    },
    {
      "midi": 84,
      "hit": false,
      "t": 133411.69800000018,
      "d": 352.9409999999916,
      "v": 92
    },
    {
      "midi": 57,
      "hit": false,
      "t": 133411.6980000003,
      "d": 588.234999999986,
      "v": 75
    },
    {
      "midi": 86,
      "hit": false,
      "t": 133764.63900000017,
      "d": 345.58806249999907,
      "v": 92
    },
    {
      "midi": 86,
      "hit": false,
      "t": 134117.58000000016,
      "d": 1941.175500000012,
      "v": 92
    },
    {
      "midi": 62,
      "hit": false,
      "t": 134117.58000000028,
      "d": 1235.2934999999998,
      "v": 75
    },
    {
      "midi": 67,
      "hit": false,
      "t": 134117.58000000028,
      "d": 1235.2934999999998,
      "v": 75
    },
    {
      "midi": 66,
      "hit": false,
      "t": 135529.34400000027,
      "d": 1235.2934999999998,
      "v": 75
    },
    {
      "midi": 93,
      "hit": false,
      "t": 136588.16700000016,
      "d": 345.58806249999907,
      "v": 92
    },
    {
      "midi": 89,
      "hit": false,
      "t": 136941.10800000015,
      "d": 1235.2934999999998,
      "v": 92
    },
    {
      "midi": 93,
      "hit": false,
      "t": 136941.10800000015,
      "d": 1235.2934999999998,
      "v": 92
    },
    {
      "midi": 46,
      "hit": false,
      "t": 136941.10800000027,
      "d": 345.58806249999907,
      "v": 75
    },
    {
      "midi": 58,
      "hit": false,
      "t": 136941.10800000027,
      "d": 345.58806249999907,
      "v": 75
    },
    {
      "midi": 62,
      "hit": false,
      "t": 136941.10800000027,
      "d": 345.58806249999907,
      "v": 75
    },
    {
      "midi": 58,
      "hit": false,
      "t": 137294.04900000026,
      "d": 345.58806249999907,
      "v": 75
    },
    {
      "midi": 62,
      "hit": false,
      "t": 137294.04900000026,
      "d": 345.58806249999907,
      "v": 75
    },
    {
      "midi": 58,
      "hit": false,
      "t": 137999.93100000027,
      "d": 345.58806249999907,
      "v": 75
    },
    {
      "midi": 62,
      "hit": false,
      "t": 137999.93100000027,
      "d": 345.58806249999907,
      "v": 75
    },
    {
      "midi": 88,
      "hit": false,
      "t": 138352.87200000015,
      "d": 588.234999999986,
      "v": 92
    },
    {
      "midi": 91,
      "hit": false,
      "t": 138352.87200000015,
      "d": 588.234999999986,
      "v": 92
    },
    {
      "midi": 58,
      "hit": false,
      "t": 138352.87200000026,
      "d": 345.58806249999907,
      "v": 75
    },
    {
      "midi": 62,
      "hit": false,
      "t": 138352.87200000026,
      "d": 345.58806249999907,
      "v": 75
    },
    {
      "midi": 58,
      "hit": false,
      "t": 138705.81300000026,
      "d": 345.58806249999907,
      "v": 75
    },
    {
      "midi": 62,
      "hit": false,
      "t": 138705.81300000026,
      "d": 345.58806249999907,
      "v": 75
    },
    {
      "midi": 86,
      "hit": false,
      "t": 139058.75400000013,
      "d": 588.234999999986,
      "v": 92
    },
    {
      "midi": 89,
      "hit": false,
      "t": 139058.75400000013,
      "d": 588.234999999986,
      "v": 92
    },
    {
      "midi": 58,
      "hit": false,
      "t": 139411.69500000027,
      "d": 345.58806249999907,
      "v": 75
    },
    {
      "midi": 62,
      "hit": false,
      "t": 139411.69500000027,
      "d": 345.58806249999907,
      "v": 75
    },
    {
      "midi": 84,
      "hit": false,
      "t": 139764.63600000012,
      "d": 1235.2934999999998,
      "v": 92
    },
    {
      "midi": 88,
      "hit": false,
      "t": 139764.63600000012,
      "d": 1235.2934999999998,
      "v": 92
    },
    {
      "midi": 46,
      "hit": false,
      "t": 139764.63600000026,
      "d": 345.58806249999907,
      "v": 75
    },
    {
      "midi": 58,
      "hit": false,
      "t": 139764.63600000026,
      "d": 345.58806249999907,
      "v": 75
    },
    {
      "midi": 60,
      "hit": false,
      "t": 139764.63600000026,
      "d": 345.58806249999907,
      "v": 75
    },
    {
      "midi": 58,
      "hit": false,
      "t": 140117.57700000025,
      "d": 345.58806249999907,
      "v": 75
    },
    {
      "midi": 60,
      "hit": false,
      "t": 140117.57700000025,
      "d": 345.58806249999907,
      "v": 75
    },
    {
      "midi": 58,
      "hit": false,
      "t": 140823.45900000026,
      "d": 345.58806249999907,
      "v": 75
    },
    {
      "midi": 60,
      "hit": false,
      "t": 140823.45900000026,
      "d": 345.58806249999907,
      "v": 75
    },
    {
      "midi": 86,
      "hit": false,
      "t": 141176.4000000001,
      "d": 588.234999999986,
      "v": 92
    },
    {
      "midi": 89,
      "hit": false,
      "t": 141176.4000000001,
      "d": 588.234999999986,
      "v": 92
    },
    {
      "midi": 58,
      "hit": false,
      "t": 141176.40000000026,
      "d": 345.58806249999907,
      "v": 75
    },
    {
      "midi": 60,
      "hit": false,
      "t": 141176.40000000026,
      "d": 345.58806249999907,
      "v": 75
    },
    {
      "midi": 58,
      "hit": false,
      "t": 141529.34100000025,
      "d": 345.58806249999907,
      "v": 75
    },
    {
      "midi": 60,
      "hit": false,
      "t": 141529.34100000025,
      "d": 345.58806249999907,
      "v": 75
    },
    {
      "midi": 88,
      "hit": false,
      "t": 141882.2820000001,
      "d": 588.234999999986,
      "v": 92
    },
    {
      "midi": 91,
      "hit": false,
      "t": 141882.2820000001,
      "d": 588.234999999986,
      "v": 92
    },
    {
      "midi": 58,
      "hit": false,
      "t": 142235.22300000026,
      "d": 345.58806249999907,
      "v": 75
    },
    {
      "midi": 60,
      "hit": false,
      "t": 142235.22300000026,
      "d": 345.58806249999907,
      "v": 75
    },
    {
      "midi": 84,
      "hit": false,
      "t": 142588.16400000008,
      "d": 1941.175500000012,
      "v": 92
    },
    {
      "midi": 88,
      "hit": false,
      "t": 142588.16400000008,
      "d": 1941.175500000012,
      "v": 92
    },
    {
      "midi": 45,
      "hit": false,
      "t": 142588.16400000025,
      "d": 345.58806249999907,
      "v": 75
    },
    {
      "midi": 57,
      "hit": false,
      "t": 142588.16400000025,
      "d": 345.58806249999907,
      "v": 75
    },
    {
      "midi": 60,
      "hit": false,
      "t": 142588.16400000025,
      "d": 345.58806249999907,
      "v": 75
    },
    {
      "midi": 57,
      "hit": false,
      "t": 142941.10500000024,
      "d": 345.58806249999907,
      "v": 75
    },
    {
      "midi": 60,
      "hit": false,
      "t": 142941.10500000024,
      "d": 345.58806249999907,
      "v": 75
    },
    {
      "midi": 57,
      "hit": false,
      "t": 143646.98700000026,
      "d": 345.58806249999907,
      "v": 75
    },
    {
      "midi": 60,
      "hit": false,
      "t": 143646.98700000026,
      "d": 345.58806249999907,
      "v": 75
    },
    {
      "midi": 57,
      "hit": false,
      "t": 143999.92800000025,
      "d": 345.58806249999907,
      "v": 75
    },
    {
      "midi": 60,
      "hit": false,
      "t": 143999.92800000025,
      "d": 345.58806249999907,
      "v": 75
    },
    {
      "midi": 57,
      "hit": false,
      "t": 144352.86900000024,
      "d": 345.58806249999907,
      "v": 75
    },
    {
      "midi": 60,
      "hit": false,
      "t": 144352.86900000024,
      "d": 345.58806249999907,
      "v": 75
    },
    {
      "midi": 81,
      "hit": false,
      "t": 144705.81000000008,
      "d": 588.234999999986,
      "v": 92
    },
    {
      "midi": 84,
      "hit": false,
      "t": 144705.81000000008,
      "d": 588.234999999986,
      "v": 92
    },
    {
      "midi": 57,
      "hit": false,
      "t": 145058.75100000025,
      "d": 345.58806249999907,
      "v": 75
    },
    {
      "midi": 60,
      "hit": false,
      "t": 145058.75100000025,
      "d": 345.58806249999907,
      "v": 75
    },
    {
      "midi": 77,
      "hit": false,
      "t": 145411.69200000007,
      "d": 588.234999999986,
      "v": 92
    },
    {
      "midi": 81,
      "hit": false,
      "t": 145411.69200000007,
      "d": 588.234999999986,
      "v": 92
    },
    {
      "midi": 50,
      "hit": false,
      "t": 145411.69200000024,
      "d": 345.58806249999907,
      "v": 75
    },
    {
      "midi": 57,
      "hit": false,
      "t": 145411.69200000024,
      "d": 345.58806249999907,
      "v": 75
    },
    {
      "midi": 62,
      "hit": false,
      "t": 145411.69200000024,
      "d": 345.58806249999907,
      "v": 75
    },
    {
      "midi": 57,
      "hit": false,
      "t": 145764.63300000023,
      "d": 345.58806249999907,
      "v": 75
    },
    {
      "midi": 62,
      "hit": false,
      "t": 145764.63300000023,
      "d": 345.58806249999907,
      "v": 75
    },
    {
      "midi": 76,
      "hit": false,
      "t": 146117.57400000005,
      "d": 588.234999999986,
      "v": 92
    },
    {
      "midi": 57,
      "hit": false,
      "t": 146470.51500000025,
      "d": 345.58806249999907,
      "v": 75
    },
    {
      "midi": 62,
      "hit": false,
      "t": 146470.51500000025,
      "d": 345.58806249999907,
      "v": 75
    },
    {
      "midi": 77,
      "hit": false,
      "t": 146823.45600000003,
      "d": 588.234999999986,
      "v": 92
    },
    {
      "midi": 57,
      "hit": false,
      "t": 146823.45600000024,
      "d": 345.58806249999907,
      "v": 75
    },
    {
      "midi": 62,
      "hit": false,
      "t": 146823.45600000024,
      "d": 345.58806249999907,
      "v": 75
    },
    {
      "midi": 57,
      "hit": false,
      "t": 147176.39700000023,
      "d": 345.58806249999907,
      "v": 75
    },
    {
      "midi": 62,
      "hit": false,
      "t": 147176.39700000023,
      "d": 345.58806249999907,
      "v": 75
    },
    {
      "midi": 81,
      "hit": false,
      "t": 147529.33800000002,
      "d": 588.234999999986,
      "v": 92
    },
    {
      "midi": 84,
      "hit": false,
      "t": 147529.33800000002,
      "d": 588.234999999986,
      "v": 92
    },
    {
      "midi": 57,
      "hit": false,
      "t": 147882.27900000024,
      "d": 345.58806249999907,
      "v": 75
    },
    {
      "midi": 62,
      "hit": false,
      "t": 147882.27900000024,
      "d": 345.58806249999907,
      "v": 75
    },
    {
      "midi": 79,
      "hit": false,
      "t": 148235.22,
      "d": 1235.2934999999998,
      "v": 92
    },
    {
      "midi": 82,
      "hit": false,
      "t": 148235.22,
      "d": 1235.2934999999998,
      "v": 92
    },
    {
      "midi": 43,
      "hit": false,
      "t": 148235.22000000023,
      "d": 345.58806249999907,
      "v": 75
    },
    {
      "midi": 55,
      "hit": false,
      "t": 148235.22000000023,
      "d": 345.58806249999907,
      "v": 75
    },
    {
      "midi": 58,
      "hit": false,
      "t": 148235.22000000023,
      "d": 345.58806249999907,
      "v": 75
    },
    {
      "midi": 55,
      "hit": false,
      "t": 148588.16100000023,
      "d": 345.58806249999907,
      "v": 75
    },
    {
      "midi": 58,
      "hit": false,
      "t": 148588.16100000023,
      "d": 345.58806249999907,
      "v": 75
    },
    {
      "midi": 55,
      "hit": false,
      "t": 149294.04300000024,
      "d": 345.58806249999907,
      "v": 75
    },
    {
      "midi": 58,
      "hit": false,
      "t": 149294.04300000024,
      "d": 345.58806249999907,
      "v": 75
    },
    {
      "midi": 81,
      "hit": false,
      "t": 149646.984,
      "d": 588.234999999986,
      "v": 92
    },
    {
      "midi": 84,
      "hit": false,
      "t": 149646.984,
      "d": 588.234999999986,
      "v": 92
    },
    {
      "midi": 55,
      "hit": false,
      "t": 149646.98400000023,
      "d": 345.58806249999907,
      "v": 75
    },
    {
      "midi": 58,
      "hit": false,
      "t": 149646.98400000023,
      "d": 345.58806249999907,
      "v": 75
    },
    {
      "midi": 55,
      "hit": false,
      "t": 149999.92500000022,
      "d": 345.58806249999907,
      "v": 75
    },
    {
      "midi": 58,
      "hit": false,
      "t": 149999.92500000022,
      "d": 345.58806249999907,
      "v": 75
    },
    {
      "midi": 82,
      "hit": false,
      "t": 150352.86599999998,
      "d": 588.234999999986,
      "v": 92
    },
    {
      "midi": 86,
      "hit": false,
      "t": 150352.86599999998,
      "d": 588.234999999986,
      "v": 92
    },
    {
      "midi": 55,
      "hit": false,
      "t": 150705.80700000023,
      "d": 345.58806249999907,
      "v": 75
    },
    {
      "midi": 58,
      "hit": false,
      "t": 150705.80700000023,
      "d": 345.58806249999907,
      "v": 75
    },
    {
      "midi": 84,
      "hit": false,
      "t": 151058.74799999996,
      "d": 1235.2934999999998,
      "v": 92
    },
    {
      "midi": 88,
      "hit": false,
      "t": 151058.74799999996,
      "d": 1235.2934999999998,
      "v": 92
    },
    {
      "midi": 36,
      "hit": false,
      "t": 151058.74800000023,
      "d": 345.58806249999907,
      "v": 75
    },
    {
      "midi": 48,
      "hit": false,
      "t": 151058.74800000023,
      "d": 345.58806249999907,
      "v": 75
    },
    {
      "midi": 55,
      "hit": false,
      "t": 151058.74800000023,
      "d": 345.58806249999907,
      "v": 75
    },
    {
      "midi": 48,
      "hit": false,
      "t": 151411.68900000022,
      "d": 345.58806249999907,
      "v": 75
    },
    {
      "midi": 55,
      "hit": false,
      "t": 151411.68900000022,
      "d": 345.58806249999907,
      "v": 75
    },
    {
      "midi": 48,
      "hit": false,
      "t": 152117.57100000023,
      "d": 345.58806249999907,
      "v": 75
    },
    {
      "midi": 55,
      "hit": false,
      "t": 152117.57100000023,
      "d": 345.58806249999907,
      "v": 75
    },
    {
      "midi": 86,
      "hit": false,
      "t": 152470.51199999996,
      "d": 588.234999999986,
      "v": 92
    },
    {
      "midi": 89,
      "hit": false,
      "t": 152470.51199999996,
      "d": 588.234999999986,
      "v": 92
    },
    {
      "midi": 48,
      "hit": false,
      "t": 152470.51200000022,
      "d": 345.58806249999907,
      "v": 75
    },
    {
      "midi": 55,
      "hit": false,
      "t": 152470.51200000022,
      "d": 345.58806249999907,
      "v": 75
    },
    {
      "midi": 48,
      "hit": false,
      "t": 152823.4530000002,
      "d": 345.58806249999907,
      "v": 75
    },
    {
      "midi": 55,
      "hit": false,
      "t": 152823.4530000002,
      "d": 345.58806249999907,
      "v": 75
    },
    {
      "midi": 88,
      "hit": false,
      "t": 153176.39399999994,
      "d": 588.234999999986,
      "v": 92
    },
    {
      "midi": 91,
      "hit": false,
      "t": 153176.39399999994,
      "d": 588.234999999986,
      "v": 92
    },
    {
      "midi": 48,
      "hit": false,
      "t": 153529.33500000022,
      "d": 345.58806249999907,
      "v": 75
    },
    {
      "midi": 55,
      "hit": false,
      "t": 153529.33500000022,
      "d": 345.58806249999907,
      "v": 75
    },
    {
      "midi": 84,
      "hit": false,
      "t": 153882.27599999993,
      "d": 705.8820000000123,
      "v": 92
    },
    {
      "midi": 88,
      "hit": false,
      "t": 153882.27599999993,
      "d": 705.8820000000123,
      "v": 92
    },
    {
      "midi": 41,
      "hit": false,
      "t": 153882.27600000022,
      "d": 345.58806249999907,
      "v": 75
    },
    {
      "midi": 53,
      "hit": false,
      "t": 153882.27600000022,
      "d": 345.58806249999907,
      "v": 75
    },
    {
      "midi": 57,
      "hit": false,
      "t": 153882.27600000022,
      "d": 345.58806249999907,
      "v": 75
    },
    {
      "midi": 53,
      "hit": false,
      "t": 154235.2170000002,
      "d": 345.58806249999907,
      "v": 75
    },
    {
      "midi": 57,
      "hit": false,
      "t": 154235.2170000002,
      "d": 345.58806249999907,
      "v": 75
    },
    {
      "midi": 81,
      "hit": false,
      "t": 154588.15799999994,
      "d": 705.8820000000123,
      "v": 92
    },
    {
      "midi": 53,
      "hit": false,
      "t": 154941.09900000022,
      "d": 345.58806249999907,
      "v": 75
    },
    {
      "midi": 57,
      "hit": false,
      "t": 154941.09900000022,
      "d": 345.58806249999907,
      "v": 75
    },
    {
      "midi": 79,
      "hit": false,
      "t": 155294.03999999995,
      "d": 705.8820000000123,
      "v": 92
    },
    {
      "midi": 53,
      "hit": false,
      "t": 155294.0400000002,
      "d": 345.58806249999907,
      "v": 75
    },
    {
      "midi": 57,
      "hit": false,
      "t": 155294.0400000002,
      "d": 345.58806249999907,
      "v": 75
    },
    {
      "midi": 53,
      "hit": false,
      "t": 155646.9810000002,
      "d": 345.58806249999907,
      "v": 75
    },
    {
      "midi": 57,
      "hit": false,
      "t": 155646.9810000002,
      "d": 345.58806249999907,
      "v": 75
    },
    {
      "midi": 81,
      "hit": false,
      "t": 155999.92199999996,
      "d": 588.234999999986,
      "v": 92
    },
    {
      "midi": 53,
      "hit": false,
      "t": 156352.86300000022,
      "d": 345.58806249999907,
      "v": 75
    },
    {
      "midi": 57,
      "hit": false,
      "t": 156352.86300000022,
      "d": 345.58806249999907,
      "v": 75
    },
    {
      "midi": 75,
      "hit": false,
      "t": 156705.80399999995,
      "d": 705.8820000000123,
      "v": 92
    },
    {
      "midi": 84,
      "hit": false,
      "t": 156705.80399999995,
      "d": 705.8820000000123,
      "v": 92
    },
    {
      "midi": 39,
      "hit": false,
      "t": 156705.8040000002,
      "d": 345.58806249999907,
      "v": 75
    },
    {
      "midi": 51,
      "hit": false,
      "t": 156705.8040000002,
      "d": 345.58806249999907,
      "v": 75
    },
    {
      "midi": 57,
      "hit": false,
      "t": 156705.8040000002,
      "d": 345.58806249999907,
      "v": 75
    },
    {
      "midi": 51,
      "hit": false,
      "t": 157058.7450000002,
      "d": 345.58806249999907,
      "v": 75
    },
    {
      "midi": 57,
      "hit": false,
      "t": 157058.7450000002,
      "d": 345.58806249999907,
      "v": 75
    },
    {
      "midi": 77,
      "hit": false,
      "t": 157411.68599999996,
      "d": 705.8820000000123,
      "v": 92
    },
    {
      "midi": 51,
      "hit": false,
      "t": 157764.6270000002,
      "d": 345.58806249999907,
      "v": 75
    },
    {
      "midi": 57,
      "hit": false,
      "t": 157764.6270000002,
      "d": 345.58806249999907,
      "v": 75
    },
    {
      "midi": 79,
      "hit": false,
      "t": 158117.56799999997,
      "d": 352.9409999999916,
      "v": 92
    },
    {
      "midi": 51,
      "hit": false,
      "t": 158117.5680000002,
      "d": 345.58806249999907,
      "v": 75
    },
    {
      "midi": 57,
      "hit": false,
      "t": 158117.5680000002,
      "d": 345.58806249999907,
      "v": 75
    },
    {
      "midi": 81,
      "hit": false,
      "t": 158470.50899999996,
      "d": 352.9409999999916,
      "v": 92
    },
    {
      "midi": 51,
      "hit": false,
      "t": 158470.5090000002,
      "d": 345.58806249999907,
      "v": 75
    },
    {
      "midi": 57,
      "hit": false,
      "t": 158470.5090000002,
      "d": 345.58806249999907,
      "v": 75
    },
    {
      "midi": 82,
      "hit": false,
      "t": 158823.44999999995,
      "d": 352.9409999999916,
      "v": 92
    },
    {
      "midi": 84,
      "hit": false,
      "t": 159176.39099999995,
      "d": 345.58806249999907,
      "v": 92
    },
    {
      "midi": 39,
      "hit": false,
      "t": 159176.3910000002,
      "d": 345.58806249999907,
      "v": 75
    },
    {
      "midi": 51,
      "hit": false,
      "t": 159176.3910000002,
      "d": 345.58806249999907,
      "v": 75
    },
    {
      "midi": 57,
      "hit": false,
      "t": 159176.3910000002,
      "d": 345.58806249999907,
      "v": 75
    },
    {
      "midi": 89,
      "hit": false,
      "t": 159529.33199999994,
      "d": 1235.2934999999998,
      "v": 92
    },
    {
      "midi": 93,
      "hit": false,
      "t": 159529.33199999994,
      "d": 1235.2934999999998,
      "v": 92
    },
    {
      "midi": 46,
      "hit": false,
      "t": 159529.3320000002,
      "d": 345.58806249999907,
      "v": 75
    },
    {
      "midi": 58,
      "hit": false,
      "t": 159529.3320000002,
      "d": 345.58806249999907,
      "v": 75
    },
    {
      "midi": 62,
      "hit": false,
      "t": 159529.3320000002,
      "d": 345.58806249999907,
      "v": 75
    },
    {
      "midi": 58,
      "hit": false,
      "t": 159882.2730000002,
      "d": 345.58806249999907,
      "v": 75
    },
    {
      "midi": 62,
      "hit": false,
      "t": 159882.2730000002,
      "d": 345.58806249999907,
      "v": 75
    },
    {
      "midi": 58,
      "hit": false,
      "t": 160588.1550000002,
      "d": 345.58806249999907,
      "v": 75
    },
    {
      "midi": 62,
      "hit": false,
      "t": 160588.1550000002,
      "d": 345.58806249999907,
      "v": 75
    },
    {
      "midi": 88,
      "hit": false,
      "t": 160941.09599999993,
      "d": 588.234999999986,
      "v": 92
    },
    {
      "midi": 91,
      "hit": false,
      "t": 160941.09599999993,
      "d": 588.234999999986,
      "v": 92
    },
    {
      "midi": 46,
      "hit": false,
      "t": 160941.0960000002,
      "d": 345.58806249999907,
      "v": 75
    },
    {
      "midi": 58,
      "hit": false,
      "t": 160941.0960000002,
      "d": 345.58806249999907,
      "v": 75
    },
    {
      "midi": 62,
      "hit": false,
      "t": 160941.0960000002,
      "d": 345.58806249999907,
      "v": 75
    },
    {
      "midi": 58,
      "hit": false,
      "t": 161294.0370000002,
      "d": 345.58806249999907,
      "v": 75
    },
    {
      "midi": 62,
      "hit": false,
      "t": 161294.0370000002,
      "d": 345.58806249999907,
      "v": 75
    },
    {
      "midi": 86,
      "hit": false,
      "t": 161646.97799999992,
      "d": 588.234999999986,
      "v": 92
    },
    {
      "midi": 89,
      "hit": false,
      "t": 161646.97799999992,
      "d": 588.234999999986,
      "v": 92
    },
    {
      "midi": 58,
      "hit": false,
      "t": 161999.9190000002,
      "d": 345.58806249999907,
      "v": 75
    },
    {
      "midi": 62,
      "hit": false,
      "t": 161999.9190000002,
      "d": 345.58806249999907,
      "v": 75
    },
    {
      "midi": 84,
      "hit": false,
      "t": 162352.8599999999,
      "d": 1235.2934999999998,
      "v": 92
    },
    {
      "midi": 88,
      "hit": false,
      "t": 162352.8599999999,
      "d": 1235.2934999999998,
      "v": 92
    },
    {
      "midi": 46,
      "hit": false,
      "t": 162352.8600000002,
      "d": 345.58806249999907,
      "v": 75
    },
    {
      "midi": 58,
      "hit": false,
      "t": 162352.8600000002,
      "d": 345.58806249999907,
      "v": 75
    },
    {
      "midi": 60,
      "hit": false,
      "t": 162352.8600000002,
      "d": 345.58806249999907,
      "v": 75
    },
    {
      "midi": 58,
      "hit": false,
      "t": 162705.80100000018,
      "d": 345.58806249999907,
      "v": 75
    },
    {
      "midi": 60,
      "hit": false,
      "t": 162705.80100000018,
      "d": 345.58806249999907,
      "v": 75
    },
    {
      "midi": 58,
      "hit": false,
      "t": 163411.6830000002,
      "d": 345.58806249999907,
      "v": 75
    },
    {
      "midi": 60,
      "hit": false,
      "t": 163411.6830000002,
      "d": 345.58806249999907,
      "v": 75
    },
    {
      "midi": 86,
      "hit": false,
      "t": 163764.6239999999,
      "d": 588.234999999986,
      "v": 92
    },
    {
      "midi": 89,
      "hit": false,
      "t": 163764.6239999999,
      "d": 588.234999999986,
      "v": 92
    },
    {
      "midi": 46,
      "hit": false,
      "t": 163764.62400000019,
      "d": 345.58806249999907,
      "v": 75
    },
    {
      "midi": 58,
      "hit": false,
      "t": 163764.62400000019,
      "d": 345.58806249999907,
      "v": 75
    },
    {
      "midi": 60,
      "hit": false,
      "t": 163764.62400000019,
      "d": 345.58806249999907,
      "v": 75
    },
    {
      "midi": 58,
      "hit": false,
      "t": 164117.56500000018,
      "d": 345.58806249999907,
      "v": 75
    },
    {
      "midi": 60,
      "hit": false,
      "t": 164117.56500000018,
      "d": 345.58806249999907,
      "v": 75
    },
    {
      "midi": 88,
      "hit": false,
      "t": 164470.50599999988,
      "d": 588.234999999986,
      "v": 92
    },
    {
      "midi": 91,
      "hit": false,
      "t": 164470.50599999988,
      "d": 588.234999999986,
      "v": 92
    },
    {
      "midi": 58,
      "hit": false,
      "t": 164823.4470000002,
      "d": 345.58806249999907,
      "v": 75
    },
    {
      "midi": 60,
      "hit": false,
      "t": 164823.4470000002,
      "d": 345.58806249999907,
      "v": 75
    },
    {
      "midi": 89,
      "hit": false,
      "t": 165176.38799999986,
      "d": 1235.2934999999998,
      "v": 92
    },
    {
      "midi": 93,
      "hit": false,
      "t": 165176.38799999986,
      "d": 1235.2934999999998,
      "v": 92
    },
    {
      "midi": 47,
      "hit": false,
      "t": 165176.38800000018,
      "d": 345.58806249999907,
      "v": 75
    },
    {
      "midi": 59,
      "hit": false,
      "t": 165176.38800000018,
      "d": 345.58806249999907,
      "v": 75
    },
    {
      "midi": 62,
      "hit": false,
      "t": 165176.38800000018,
      "d": 345.58806249999907,
      "v": 75
    },
    {
      "midi": 59,
      "hit": false,
      "t": 165529.32900000017,
      "d": 345.58806249999907,
      "v": 75
    },
    {
      "midi": 62,
      "hit": false,
      "t": 165529.32900000017,
      "d": 345.58806249999907,
      "v": 75
    },
    {
      "midi": 59,
      "hit": false,
      "t": 166235.21100000018,
      "d": 345.58806249999907,
      "v": 75
    },
    {
      "midi": 62,
      "hit": false,
      "t": 166235.21100000018,
      "d": 345.58806249999907,
      "v": 75
    },
    {
      "midi": 88,
      "hit": false,
      "t": 166588.15199999986,
      "d": 588.234999999986,
      "v": 92
    },
    {
      "midi": 91,
      "hit": false,
      "t": 166588.15199999986,
      "d": 588.234999999986,
      "v": 92
    },
    {
      "midi": 47,
      "hit": false,
      "t": 166588.15200000018,
      "d": 345.58806249999907,
      "v": 75
    },
    {
      "midi": 59,
      "hit": false,
      "t": 166588.15200000018,
      "d": 345.58806249999907,
      "v": 75
    },
    {
      "midi": 62,
      "hit": false,
      "t": 166588.15200000018,
      "d": 345.58806249999907,
      "v": 75
    },
    {
      "midi": 59,
      "hit": false,
      "t": 166941.09300000017,
      "d": 345.58806249999907,
      "v": 75
    },
    {
      "midi": 62,
      "hit": false,
      "t": 166941.09300000017,
      "d": 345.58806249999907,
      "v": 75
    },
    {
      "midi": 86,
      "hit": false,
      "t": 167294.03399999984,
      "d": 588.234999999986,
      "v": 92
    },
    {
      "midi": 89,
      "hit": false,
      "t": 167294.03399999984,
      "d": 588.234999999986,
      "v": 92
    },
    {
      "midi": 59,
      "hit": false,
      "t": 167646.97500000018,
      "d": 345.58806249999907,
      "v": 75
    },
    {
      "midi": 62,
      "hit": false,
      "t": 167646.97500000018,
      "d": 345.58806249999907,
      "v": 75
    },
    {
      "midi": 81,
      "hit": false,
      "t": 167999.91599999982,
      "d": 588.234999999986,
      "v": 92
    },
    {
      "midi": 88,
      "hit": false,
      "t": 167999.91599999982,
      "d": 588.234999999986,
      "v": 92
    },
    {
      "midi": 47,
      "hit": false,
      "t": 167999.91600000017,
      "d": 345.58806249999907,
      "v": 75
    },
    {
      "midi": 59,
      "hit": false,
      "t": 167999.91600000017,
      "d": 345.58806249999907,
      "v": 75
    },
    {
      "midi": 62,
      "hit": false,
      "t": 167999.91600000017,
      "d": 345.58806249999907,
      "v": 75
    },
    {
      "midi": 59,
      "hit": false,
      "t": 168352.85700000016,
      "d": 345.58806249999907,
      "v": 75
    },
    {
      "midi": 62,
      "hit": false,
      "t": 168352.85700000016,
      "d": 345.58806249999907,
      "v": 75
    },
    {
      "midi": 86,
      "hit": false,
      "t": 168705.7979999998,
      "d": 588.234999999986,
      "v": 92
    },
    {
      "midi": 59,
      "hit": false,
      "t": 169058.73900000018,
      "d": 345.58806249999907,
      "v": 75
    },
    {
      "midi": 62,
      "hit": false,
      "t": 169058.73900000018,
      "d": 345.58806249999907,
      "v": 75
    },
    {
      "midi": 88,
      "hit": false,
      "t": 169411.6799999998,
      "d": 588.234999999986,
      "v": 92
    },
    {
      "midi": 47,
      "hit": false,
      "t": 169411.68000000017,
      "d": 345.58806249999907,
      "v": 75
    },
    {
      "midi": 59,
      "hit": false,
      "t": 169411.68000000017,
      "d": 345.58806249999907,
      "v": 75
    },
    {
      "midi": 62,
      "hit": false,
      "t": 169411.68000000017,
      "d": 345.58806249999907,
      "v": 75
    },
    {
      "midi": 59,
      "hit": false,
      "t": 169764.62100000016,
      "d": 345.58806249999907,
      "v": 75
    },
    {
      "midi": 62,
      "hit": false,
      "t": 169764.62100000016,
      "d": 345.58806249999907,
      "v": 75
    },
    {
      "midi": 89,
      "hit": false,
      "t": 170117.56199999977,
      "d": 588.234999999986,
      "v": 92
    },
    {
      "midi": 59,
      "hit": false,
      "t": 170470.50300000017,
      "d": 345.58806249999907,
      "v": 75
    },
    {
      "midi": 62,
      "hit": false,
      "t": 170470.50300000017,
      "d": 345.58806249999907,
      "v": 75
    },
    {
      "midi": 81,
      "hit": false,
      "t": 170823.44399999976,
      "d": 1235.2934999999998,
      "v": 92
    },
    {
      "midi": 93,
      "hit": false,
      "t": 170823.44399999976,
      "d": 1235.2934999999998,
      "v": 92
    },
    {
      "midi": 43,
      "hit": false,
      "t": 170823.44400000016,
      "d": 345.58806249999907,
      "v": 75
    },
    {
      "midi": 55,
      "hit": false,
      "t": 170823.44400000016,
      "d": 345.58806249999907,
      "v": 75
    },
    {
      "midi": 62,
      "hit": false,
      "t": 170823.44400000016,
      "d": 345.58806249999907,
      "v": 75
    },
    {
      "midi": 55,
      "hit": false,
      "t": 171176.38500000015,
      "d": 345.58806249999907,
      "v": 75
    },
    {
      "midi": 62,
      "hit": false,
      "t": 171176.38500000015,
      "d": 345.58806249999907,
      "v": 75
    },
    {
      "midi": 55,
      "hit": false,
      "t": 171882.26700000017,
      "d": 345.58806249999907,
      "v": 75
    },
    {
      "midi": 62,
      "hit": false,
      "t": 171882.26700000017,
      "d": 345.58806249999907,
      "v": 75
    },
    {
      "midi": 91,
      "hit": false,
      "t": 172235.20799999975,
      "d": 588.234999999986,
      "v": 92
    },
    {
      "midi": 43,
      "hit": false,
      "t": 172235.20800000016,
      "d": 345.58806249999907,
      "v": 75
    },
    {
      "midi": 55,
      "hit": false,
      "t": 172235.20800000016,
      "d": 345.58806249999907,
      "v": 75
    },
    {
      "midi": 62,
      "hit": false,
      "t": 172235.20800000016,
      "d": 345.58806249999907,
      "v": 75
    },
    {
      "midi": 55,
      "hit": false,
      "t": 172588.14900000015,
      "d": 345.58806249999907,
      "v": 75
    },
    {
      "midi": 62,
      "hit": false,
      "t": 172588.14900000015,
      "d": 345.58806249999907,
      "v": 75
    },
    {
      "midi": 89,
      "hit": false,
      "t": 172941.08999999973,
      "d": 588.234999999986,
      "v": 92
    },
    {
      "midi": 55,
      "hit": false,
      "t": 173294.03100000016,
      "d": 345.58806249999907,
      "v": 75
    },
    {
      "midi": 62,
      "hit": false,
      "t": 173294.03100000016,
      "d": 345.58806249999907,
      "v": 75
    },
    {
      "midi": 83,
      "hit": false,
      "t": 173646.97199999972,
      "d": 588.234999999986,
      "v": 92
    },
    {
      "midi": 88,
      "hit": false,
      "t": 173646.97199999972,
      "d": 588.234999999986,
      "v": 92
    },
    {
      "midi": 44,
      "hit": false,
      "t": 173646.97200000015,
      "d": 345.58806249999907,
      "v": 75
    },
    {
      "midi": 56,
      "hit": false,
      "t": 173646.97200000015,
      "d": 345.58806249999907,
      "v": 75
    },
    {
      "midi": 62,
      "hit": false,
      "t": 173646.97200000015,
      "d": 345.58806249999907,
      "v": 75
    },
    {
      "midi": 56,
      "hit": false,
      "t": 173999.91300000015,
      "d": 345.58806249999907,
      "v": 75
    },
    {
      "midi": 62,
      "hit": false,
      "t": 173999.91300000015,
      "d": 345.58806249999907,
      "v": 75
    },
    {
      "midi": 86,
      "hit": false,
      "t": 174352.8539999997,
      "d": 588.234999999986,
      "v": 92
    },
    {
      "midi": 56,
      "hit": false,
      "t": 174705.79500000016,
      "d": 345.58806249999907,
      "v": 75
    },
    {
      "midi": 62,
      "hit": false,
      "t": 174705.79500000016,
      "d": 345.58806249999907,
      "v": 75
    },
    {
      "midi": 85,
      "hit": false,
      "t": 175058.73599999968,
      "d": 588.234999999986,
      "v": 92
    },
    {
      "midi": 44,
      "hit": false,
      "t": 175058.73600000015,
      "d": 345.58806249999907,
      "v": 75
    },
    {
      "midi": 56,
      "hit": false,
      "t": 175058.73600000015,
      "d": 345.58806249999907,
      "v": 75
    },
    {
      "midi": 62,
      "hit": false,
      "t": 175058.73600000015,
      "d": 345.58806249999907,
      "v": 75
    },
    {
      "midi": 56,
      "hit": false,
      "t": 175411.67700000014,
      "d": 345.58806249999907,
      "v": 75
    },
    {
      "midi": 62,
      "hit": false,
      "t": 175411.67700000014,
      "d": 345.58806249999907,
      "v": 75
    },
    {
      "midi": 86,
      "hit": false,
      "t": 175764.61799999967,
      "d": 588.234999999986,
      "v": 92
    },
    {
      "midi": 56,
      "hit": false,
      "t": 176117.55900000015,
      "d": 345.58806249999907,
      "v": 75
    },
    {
      "midi": 62,
      "hit": false,
      "t": 176117.55900000015,
      "d": 345.58806249999907,
      "v": 75
    },
    {
      "midi": 83,
      "hit": false,
      "t": 176470.49999999965,
      "d": 2647.0574999999953,
      "v": 92
    },
    {
      "midi": 88,
      "hit": false,
      "t": 176470.49999999965,
      "d": 2647.0574999999953,
      "v": 92
    },
    {
      "midi": 45,
      "hit": false,
      "t": 176470.50000000015,
      "d": 345.58806249999907,
      "v": 75
    },
    {
      "midi": 57,
      "hit": false,
      "t": 176470.50000000015,
      "d": 345.58806249999907,
      "v": 75
    },
    {
      "midi": 62,
      "hit": false,
      "t": 176470.50000000015,
      "d": 345.58806249999907,
      "v": 75
    },
    {
      "midi": 57,
      "hit": false,
      "t": 176823.44100000014,
      "d": 345.58806249999907,
      "v": 75
    },
    {
      "midi": 62,
      "hit": false,
      "t": 176823.44100000014,
      "d": 345.58806249999907,
      "v": 75
    },
    {
      "midi": 57,
      "hit": false,
      "t": 177529.32300000015,
      "d": 345.58806249999907,
      "v": 75
    },
    {
      "midi": 62,
      "hit": false,
      "t": 177529.32300000015,
      "d": 345.58806249999907,
      "v": 75
    },
    {
      "midi": 45,
      "hit": false,
      "t": 177882.26400000014,
      "d": 345.58806249999907,
      "v": 75
    },
    {
      "midi": 57,
      "hit": false,
      "t": 177882.26400000014,
      "d": 345.58806249999907,
      "v": 75
    },
    {
      "midi": 62,
      "hit": false,
      "t": 177882.26400000014,
      "d": 345.58806249999907,
      "v": 75
    },
    {
      "midi": 57,
      "hit": false,
      "t": 178235.20500000013,
      "d": 345.58806249999907,
      "v": 75
    },
    {
      "midi": 62,
      "hit": false,
      "t": 178235.20500000013,
      "d": 345.58806249999907,
      "v": 75
    },
    {
      "midi": 57,
      "hit": false,
      "t": 178941.08700000015,
      "d": 345.58806249999907,
      "v": 75
    },
    {
      "midi": 62,
      "hit": false,
      "t": 178941.08700000015,
      "d": 345.58806249999907,
      "v": 75
    },
    {
      "midi": 85,
      "hit": false,
      "t": 179294.02799999964,
      "d": 1235.2934999999998,
      "v": 92
    },
    {
      "midi": 88,
      "hit": false,
      "t": 179294.02799999964,
      "d": 1235.2934999999998,
      "v": 92
    },
    {
      "midi": 57,
      "hit": false,
      "t": 179294.02800000014,
      "d": 2647.0574999999953,
      "v": 75
    },
    {
      "midi": 61,
      "hit": false,
      "t": 179294.02800000014,
      "d": 2647.0574999999953,
      "v": 75
    },
    {
      "midi": 86,
      "hit": false,
      "t": 180705.79199999964,
      "d": 588.234999999986,
      "v": 92
    },
    {
      "midi": 88,
      "hit": false,
      "t": 181411.67399999962,
      "d": 588.234999999986,
      "v": 92
    }
  ]
}