{
  "jsonPath": "Soundtracks/Video Game Music/Chrono Trigger/chrono-trigger-secretoftheforest.json",
  "path": "Soundtracks\\Video Game Music\\Chrono Trigger\\Chrono_Trigger_SecretoftheForest.mid",
  "name": "Chrono_Trigger_SecretoftheForest",
  "difficulty": "Advanced",
  "bpm": 77.99997660000702,
  "notes": [
    {
      "midi": 70,
      "hit": false,
      "t": 0,
      "d": 192.30775,
      "v": 100
    },
    {
      "midi": 42,
      "hit": false,
      "t": 0,
      "d": 3076.9239999999995,
      "v": 100
    },
    {
      "midi": 75,
      "hit": false,
      "t": 192.30775,
      "d": 192.30775,
      "v": 100
    },
    {
      "midi": 77,
      "hit": false,
      "t": 384.6155,
      "d": 192.30775000000006,
      "v": 100
    },
    {
      "midi": 82,
      "hit": false,
      "t": 576.92325,
      "d": 192.30774999999994,
      "v": 100
    },
    {
      "midi": 70,
      "hit": false,
      "t": 769.231,
      "d": 192.30774999999994,
      "v": 100
    },
    {
      "midi": 75,
      "hit": false,
      "t": 961.5387499999999,
      "d": 192.30774999999994,
      "v": 100
    },
    {
      "midi": 77,
      "hit": false,
      "t": 1153.8464999999999,
      "d": 192.30774999999994,
      "v": 100
    },
    {
      "midi": 82,
      "hit": false,
      "t": 1346.1542499999998,
      "d": 192.30774999999994,
      "v": 100
    },
    {
      "midi": 70,
      "hit": false,
      "t": 1538.4619999999998,
      "d": 192.30774999999994,
      "v": 100
    },
    {
      "midi": 75,
      "hit": false,
      "t": 1730.7697499999997,
      "d": 192.30774999999994,
      "v": 100
    },
    {
      "midi": 77,
      "hit": false,
      "t": 1923.0774999999996,
      "d": 192.30775000000017,
      "v": 100
    },
    {
      "midi": 82,
      "hit": false,
      "t": 2115.38525,
      "d": 192.30774999999994,
      "v": 100
    },
    {
      "midi": 70,
      "hit": false,
      "t": 2307.6929999999998,
      "d": 192.30774999999994,
      "v": 100
    },
    {
      "midi": 75,
      "hit": false,
      "t": 2500.0007499999997,
      "d": 192.30774999999994,
      "v": 100
    },
    {
      "midi": 77,
      "hit": false,
      "t": 2692.3084999999996,
      "d": 192.30774999999994,
      "v": 100
    },
    {
      "midi": 49,
      "hit": false,
      "t": 2884.6162499999996,
      "d": 192.30774999999994,
      "v": 100
    },
    {
      "midi": 82,
      "hit": false,
      "t": 2884.6162499999996,
      "d": 192.30774999999994,
      "v": 100
    },
    {
      "midi": 70,
      "hit": false,
      "t": 3076.9239999999995,
      "d": 192.30774999999994,
      "v": 100
    },
    {
      "midi": 42,
      "hit": false,
      "t": 3076.9239999999995,
      "d": 2307.6929999999998,
      "v": 100
    },
    {
      "midi": 75,
      "hit": false,
      "t": 3269.2317499999995,
      "d": 192.30774999999994,
      "v": 100
    },
    {
      "midi": 77,
      "hit": false,
      "t": 3461.5394999999994,
      "d": 192.30774999999994,
      "v": 100
    },
    {
      "midi": 82,
      "hit": false,
      "t": 3653.8472499999993,
      "d": 192.30774999999994,
      "v": 100
    },
    {
      "midi": 70,
      "hit": false,
      "t": 3846.1549999999993,
      "d": 192.30774999999994,
      "v": 100
    },
    {
      "midi": 75,
      "hit": false,
      "t": 4038.4627499999992,
      "d": 192.3077500000004,
      "v": 100
    },
    {
      "midi": 77,
      "hit": false,
      "t": 4230.7705,
      "d": 192.30774999999994,
      "v": 100
    },
    {
      "midi": 82,
      "hit": false,
      "t": 4423.07825,
      "d": 192.30774999999994,
      "v": 100
    },
    {
      "midi": 70,
      "hit": false,
      "t": 4615.3859999999995,
      "d": 192.30774999999994,
      "v": 100
    },
    {
      "midi": 75,
      "hit": false,
      "t": 4807.693749999999,
      "d": 192.30774999999994,
      "v": 100
    },
    {
      "midi": 77,
      "hit": false,
      "t": 5000.001499999999,
      "d": 192.30774999999994,
      "v": 100
    },
    {
      "midi": 82,
      "hit": false,
      "t": 5192.309249999999,
      "d": 192.30774999999994,
      "v": 100
    },
    {
      "midi": 70,
      "hit": false,
      "t": 5384.616999999999,
      "d": 192.30774999999994,
      "v": 100
    },
    {
      "midi": 54,
      "hit": false,
      "t": 5384.616999999999,
      "d": 769.2309999999998,
      "v": 100
    },
    {
      "midi": 75,
      "hit": false,
      "t": 5576.924749999999,
      "d": 192.30774999999994,
      "v": 100
    },
    {
      "midi": 77,
      "hit": false,
      "t": 5769.232499999999,
      "d": 192.30774999999994,
      "v": 100
    },
    {
      "midi": 82,
      "hit": false,
      "t": 5961.540249999999,
      "d": 192.30774999999994,
      "v": 100
    },
    {
      "midi": 72,
      "hit": false,
      "t": 6153.847999999999,
      "d": 192.30774999999994,
      "v": 100
    },
    {
      "midi": 53,
      "hit": false,
      "t": 6153.847999999999,
      "d": 3076.924,
      "v": 100
    },
    {
      "midi": 75,
      "hit": false,
      "t": 6346.155749999999,
      "d": 192.30774999999994,
      "v": 100
    },
    {
      "midi": 79,
      "hit": false,
      "t": 6538.463499999999,
      "d": 192.30774999999994,
      "v": 100
    },
    {
      "midi": 80,
      "hit": false,
      "t": 6730.771249999999,
      "d": 192.30774999999994,
      "v": 100
    },
    {
      "midi": 72,
      "hit": false,
      "t": 6923.078999999999,
      "d": 192.30774999999994,
      "v": 100
    },
    {
      "midi": 75,
      "hit": false,
      "t": 7115.386749999999,
      "d": 192.30774999999994,
      "v": 100
    },
    {
      "midi": 79,
      "hit": false,
      "t": 7307.694499999999,
      "d": 192.30774999999994,
      "v": 100
    },
    {
      "midi": 80,
      "hit": false,
      "t": 7500.002249999999,
      "d": 192.30774999999994,
      "v": 100
    },
    {
      "midi": 72,
      "hit": false,
      "t": 7692.309999999999,
      "d": 192.30774999999994,
      "v": 100
    },
    {
      "midi": 75,
      "hit": false,
      "t": 7884.6177499999985,
      "d": 192.30774999999994,
      "v": 100
    },
    {
      "midi": 79,
      "hit": false,
      "t": 8076.9254999999985,
      "d": 192.30775000000085,
      "v": 100
    },
    {
      "midi": 80,
      "hit": false,
      "t": 8269.23325,
      "d": 192.30774999999994,
      "v": 100
    },
    {
      "midi": 72,
      "hit": false,
      "t": 8461.541,
      "d": 192.30774999999994,
      "v": 100
    },
    {
      "midi": 75,
      "hit": false,
      "t": 8653.84875,
      "d": 192.30774999999994,
      "v": 100
    },
    {
      "midi": 79,
      "hit": false,
      "t": 8846.1565,
      "d": 192.30774999999994,
      "v": 100
    },
    {
      "midi": 48,
      "hit": false,
      "t": 9038.464249999999,
      "d": 192.30774999999994,
      "v": 100
    },
    {
      "midi": 80,
      "hit": false,
      "t": 9038.464249999999,
      "d": 192.30774999999994,
      "v": 100
    },
    {
      "midi": 72,
      "hit": false,
      "t": 9230.771999999999,
      "d": 192.30774999999994,
      "v": 100
    },
    {
      "midi": 41,
      "hit": false,
      "t": 9230.771999999999,
      "d": 3076.923999999999,
      "v": 100
    },
    {
      "midi": 75,
      "hit": false,
      "t": 9423.079749999999,
      "d": 192.30774999999994,
      "v": 100
    },
    {
      "midi": 79,
      "hit": false,
      "t": 9615.387499999999,
      "d": 192.30774999999994,
      "v": 100
    },
    {
      "midi": 80,
      "hit": false,
      "t": 9807.695249999999,
      "d": 192.30774999999994,
      "v": 100
    },
    {
      "midi": 72,
      "hit": false,
      "t": 10000.002999999999,
      "d": 192.30774999999994,
      "v": 100
    },
    {
      "midi": 75,
      "hit": false,
      "t": 10192.310749999999,
      "d": 192.30774999999994,
      "v": 100
    },
    {
      "midi": 79,
      "hit": false,
      "t": 10384.618499999999,
      "d": 192.30774999999994,
      "v": 100
    },
    {
      "midi": 80,
      "hit": false,
      "t": 10576.926249999999,
      "d": 192.30774999999994,
      "v": 100
    },
    {
      "midi": 72,
      "hit": false,
      "t": 10769.233999999999,
      "d": 192.30774999999994,
      "v": 100
    },
    {
      "midi": 75,
      "hit": false,
      "t": 10961.541749999999,
      "d": 192.30774999999994,
      "v": 100
    },
    {
      "midi": 79,
      "hit": false,
      "t": 11153.849499999998,
      "d": 192.30774999999994,
      "v": 100
    },
    {
      "midi": 80,
      "hit": false,
      "t": 11346.157249999998,
      "d": 192.30774999999994,
      "v": 100
    },
    {
      "midi": 72,
      "hit": false,
      "t": 11538.464999999998,
      "d": 192.30774999999994,
      "v": 100
    },
    {
      "midi": 75,
      "hit": false,
      "t": 11730.772749999998,
      "d": 192.30774999999994,
      "v": 100
    },
    {
      "midi": 79,
      "hit": false,
      "t": 11923.080499999998,
      "d": 192.30774999999994,
      "v": 100
    },
    {
      "midi": 80,
      "hit": false,
      "t": 12115.388249999998,
      "d": 192.30774999999994,
      "v": 100
    },
    {
      "midi": 70,
      "hit": false,
      "t": 12307.695999999998,
      "d": 192.30774999999994,
      "v": 100
    },
    {
      "midi": 42,
      "hit": false,
      "t": 12307.695999999998,
      "d": 2692.308499999999,
      "v": 100
    },
    {
      "midi": 75,
      "hit": false,
      "t": 12500.003749999998,
      "d": 192.30774999999994,
      "v": 100
    },
    {
      "midi": 77,
      "hit": false,
      "t": 12692.311499999998,
      "d": 192.30774999999994,
      "v": 100
    },
    {
      "midi": 82,
      "hit": false,
      "t": 12884.619249999998,
      "d": 192.30774999999994,
      "v": 100
    },
    {
      "midi": 70,
      "hit": false,
      "t": 13076.926999999998,
      "d": 192.30774999999994,
      "v": 100
    },
    {
      "midi": 75,
      "hit": false,
      "t": 13269.234749999998,
      "d": 192.30774999999994,
      "v": 100
    },
    {
      "midi": 77,
      "hit": false,
      "t": 13461.542499999998,
      "d": 192.30774999999994,
      "v": 100
    },
    {
      "midi": 82,
      "hit": false,
      "t": 13653.850249999998,
      "d": 192.30774999999994,
      "v": 100
    },
    {
      "midi": 70,
      "hit": false,
      "t": 13846.157999999998,
      "d": 192.30774999999994,
      "v": 100
    },
    {
      "midi": 75,
      "hit": false,
      "t": 14038.465749999998,
      "d": 192.30774999999994,
      "v": 100
    },
    {
      "midi": 77,
      "hit": false,
      "t": 14230.773499999998,
      "d": 192.30774999999994,
      "v": 100
    },
    {
      "midi": 82,
      "hit": false,
      "t": 14423.081249999997,
      "d": 192.30774999999994,
      "v": 100
    },
    {
      "midi": 70,
      "hit": false,
      "t": 14615.388999999997,
      "d": 192.30774999999994,
      "v": 100
    },
    {
      "midi": 75,
      "hit": false,
      "t": 14807.696749999997,
      "d": 192.30774999999994,
      "v": 100
    },
    {
      "midi": 77,
      "hit": false,
      "t": 15000.004499999997,
      "d": 192.30774999999994,
      "v": 100
    },
    {
      "midi": 49,
      "hit": false,
      "t": 15000.004499999997,
      "d": 384.6154999999999,
      "v": 100
    },
    {
      "midi": 82,
      "hit": false,
      "t": 15192.312249999997,
      "d": 192.30774999999994,
      "v": 100
    },
    {
      "midi": 70,
      "hit": false,
      "t": 15384.619999999997,
      "d": 192.30774999999994,
      "v": 100
    },
    {
      "midi": 42,
      "hit": false,
      "t": 15384.619999999997,
      "d": 576.9232499999998,
      "v": 100
    },
    {
      "midi": 75,
      "hit": false,
      "t": 15576.927749999997,
      "d": 192.30774999999994,
      "v": 100
    },
    {
      "midi": 77,
      "hit": false,
      "t": 15769.235499999997,
      "d": 192.30774999999994,
      "v": 100
    },
    {
      "midi": 42,
      "hit": false,
      "t": 15961.543249999997,
      "d": 192.30774999999994,
      "v": 100
    },
    {
      "midi": 82,
      "hit": false,
      "t": 15961.543249999997,
      "d": 192.30774999999994,
      "v": 100
    },
    {
      "midi": 70,
      "hit": false,
      "t": 16153.850999999997,
      "d": 192.30774999999994,
      "v": 100
    },
    {
      "midi": 75,
      "hit": false,
      "t": 16346.158749999997,
      "d": 192.30775000000176,
      "v": 100
    },
    {
      "midi": 77,
      "hit": false,
      "t": 16538.4665,
      "d": 192.30774999999994,
      "v": 100
    },
    {
      "midi": 42,
      "hit": false,
      "t": 16538.4665,
      "d": 1153.8464999999997,
      "v": 100
    },
    {
      "midi": 82,
      "hit": false,
      "t": 16730.77425,
      "d": 192.30774999999994,
      "v": 100
    },
    {
      "midi": 70,
      "hit": false,
      "t": 16923.082,
      "d": 192.30774999999994,
      "v": 100
    },
    {
      "midi": 75,
      "hit": false,
      "t": 17115.38975,
      "d": 192.30774999999994,
      "v": 100
    },
    {
      "midi": 77,
      "hit": false,
      "t": 17307.6975,
      "d": 192.30774999999994,
      "v": 100
    },
    {
      "midi": 82,
      "hit": false,
      "t": 17500.00525,
      "d": 192.30774999999994,
      "v": 100
    },
    {
      "midi": 70,
      "hit": false,
      "t": 17692.313,
      "d": 192.30774999999994,
      "v": 100
    },
    {
      "midi": 54,
      "hit": false,
      "t": 17692.313,
      "d": 769.2309999999998,
      "v": 100
    },
    {
      "midi": 75,
      "hit": false,
      "t": 17884.62075,
      "d": 192.30774999999994,
      "v": 100
    },
    {
      "midi": 77,
      "hit": false,
      "t": 18076.928499999998,
      "d": 192.30774999999994,
      "v": 100
    },
    {
      "midi": 82,
      "hit": false,
      "t": 18269.236249999998,
      "d": 192.30774999999994,
      "v": 100
    },
    {
      "midi": 72,
      "hit": false,
      "t": 18461.543999999998,
      "d": 192.30774999999994,
      "v": 100
    },
    {
      "midi": 53,
      "hit": false,
      "t": 18461.543999999998,
      "d": 2500.0007499999992,
      "v": 100
    },
    {
      "midi": 75,
      "hit": false,
      "t": 18653.851749999998,
      "d": 192.30774999999994,
      "v": 100
    },
    {
      "midi": 79,
      "hit": false,
      "t": 18846.159499999998,
      "d": 192.30774999999994,
      "v": 100
    },
    {
      "midi": 80,
      "hit": false,
      "t": 19038.467249999998,
      "d": 192.30774999999994,
      "v": 100
    },
    {
      "midi": 72,
      "hit": false,
      "t": 19230.774999999998,
      "d": 192.30774999999994,
      "v": 100
    },
    {
      "midi": 75,
      "hit": false,
      "t": 19423.082749999998,
      "d": 192.30774999999994,
      "v": 100
    },
    {
      "midi": 79,
      "hit": false,
      "t": 19615.390499999998,
      "d": 192.30774999999994,
      "v": 100
    },
    {
      "midi": 80,
      "hit": false,
      "t": 19807.698249999998,
      "d": 192.30774999999994,
      "v": 100
    },
    {
      "midi": 72,
      "hit": false,
      "t": 20000.005999999998,
      "d": 192.30774999999994,
      "v": 100
    },
    {
      "midi": 75,
      "hit": false,
      "t": 20192.313749999998,
      "d": 192.30774999999994,
      "v": 100
    },
    {
      "midi": 79,
      "hit": false,
      "t": 20384.621499999997,
      "d": 192.30774999999994,
      "v": 100
    },
    {
      "midi": 80,
      "hit": false,
      "t": 20576.929249999997,
      "d": 192.30774999999994,
      "v": 100
    },
    {
      "midi": 72,
      "hit": false,
      "t": 20769.236999999997,
      "d": 192.30774999999994,
      "v": 100
    },
    {
      "midi": 75,
      "hit": false,
      "t": 20961.544749999997,
      "d": 192.30774999999994,
      "v": 100
    },
    {
      "midi": 48,
      "hit": false,
      "t": 20961.544749999997,
      "d": 384.6154999999999,
      "v": 100
    },
    {
      "midi": 79,
      "hit": false,
      "t": 21153.852499999997,
      "d": 192.30774999999994,
      "v": 100
    },
    {
      "midi": 53,
      "hit": false,
      "t": 21346.160249999997,
      "d": 192.30774999999994,
      "v": 100
    },
    {
      "midi": 80,
      "hit": false,
      "t": 21346.160249999997,
      "d": 192.30774999999994,
      "v": 100
    },
    {
      "midi": 72,
      "hit": false,
      "t": 21538.467999999997,
      "d": 192.30774999999994,
      "v": 100
    },
    {
      "midi": 41,
      "hit": false,
      "t": 21538.467999999997,
      "d": 576.9232499999998,
      "v": 100
    },
    {
      "midi": 75,
      "hit": false,
      "t": 21730.775749999997,
      "d": 192.30774999999994,
      "v": 100
    },
    {
      "midi": 79,
      "hit": false,
      "t": 21923.083499999997,
      "d": 192.30774999999994,
      "v": 100
    },
    {
      "midi": 41,
      "hit": false,
      "t": 22115.391249999997,
      "d": 192.30774999999994,
      "v": 100
    },
    {
      "midi": 80,
      "hit": false,
      "t": 22115.391249999997,
      "d": 192.30774999999994,
      "v": 100
    },
    {
      "midi": 72,
      "hit": false,
      "t": 22307.698999999997,
      "d": 192.30774999999994,
      "v": 100
    },
    {
      "midi": 75,
      "hit": false,
      "t": 22500.006749999997,
      "d": 192.30774999999994,
      "v": 100
    },
    {
      "midi": 79,
      "hit": false,
      "t": 22692.314499999997,
      "d": 192.30774999999994,
      "v": 100
    },
    {
      "midi": 80,
      "hit": false,
      "t": 22884.622249999997,
      "d": 192.30774999999994,
      "v": 100
    },
    {
      "midi": 41,
      "hit": false,
      "t": 22884.622249999997,
      "d": 1538.4619999999995,
      "v": 100
    },
    {
      "midi": 72,
      "hit": false,
      "t": 23076.929999999997,
      "d": 192.30774999999994,
      "v": 100
    },
    {
      "midi": 75,
      "hit": false,
      "t": 23269.237749999997,
      "d": 192.30774999999994,
      "v": 100
    },
    {
      "midi": 79,
      "hit": false,
      "t": 23461.545499999997,
      "d": 192.30774999999994,
      "v": 100
    },
    {
      "midi": 80,
      "hit": false,
      "t": 23653.853249999996,
      "d": 192.30774999999994,
      "v": 100
    },
    {
      "midi": 72,
      "hit": false,
      "t": 23846.160999999996,
      "d": 192.30774999999994,
      "v": 100
    },
    {
      "midi": 75,
      "hit": false,
      "t": 24038.468749999996,
      "d": 192.30774999999994,
      "v": 100
    },
    {
      "midi": 79,
      "hit": false,
      "t": 24230.776499999996,
      "d": 192.30774999999994,
      "v": 100
    },
    {
      "midi": 80,
      "hit": false,
      "t": 24423.084249999996,
      "d": 192.30774999999994,
      "v": 100
    },
    {
      "midi": 72,
      "hit": false,
      "t": 24615.391999999996,
      "d": 1538.4619999999995,
      "v": 100
    },
    {
      "midi": 65,
      "hit": false,
      "t": 24615.391999999996,
      "d": 3076.923999999999,
      "v": 100
    },
    {
      "midi": 54,
      "hit": false,
      "t": 24615.391999999996,
      "d": 3076.923999999999,
      "v": 100
    },
    {
      "midi": 58,
      "hit": false,
      "t": 24615.391999999996,
      "d": 3076.923999999999,
      "v": 100
    },
    {
      "midi": 70,
      "hit": false,
      "t": 26153.853999999996,
      "d": 769.2309999999998,
      "v": 100
    },
    {
      "midi": 75,
      "hit": false,
      "t": 26923.084999999995,
      "d": 576.9232499999998,
      "v": 100
    },
    {
      "midi": 74,
      "hit": false,
      "t": 27500.008249999995,
      "d": 96.15387499999997,
      "v": 100
    },
    {
      "midi": 73,
      "hit": false,
      "t": 27596.162124999995,
      "d": 96.15387499999997,
      "v": 100
    },
    {
      "midi": 72,
      "hit": false,
      "t": 27692.315999999995,
      "d": 1538.4619999999995,
      "v": 100
    },
    {
      "midi": 54,
      "hit": false,
      "t": 27692.315999999995,
      "d": 3076.923999999999,
      "v": 100
    },
    {
      "midi": 58,
      "hit": false,
      "t": 27692.315999999995,
      "d": 3076.923999999999,
      "v": 100
    },
    {
      "midi": 65,
      "hit": false,
      "t": 27692.315999999995,
      "d": 3076.923999999999,
      "v": 100
    },
    {
      "midi": 70,
      "hit": false,
      "t": 29230.777999999995,
      "d": 769.2309999999998,
      "v": 100
    },
    {
      "midi": 68,
      "hit": false,
      "t": 30000.008999999995,
      "d": 769.2309999999998,
      "v": 100
    },
    {
      "midi": 67,
      "hit": false,
      "t": 30769.239999999994,
      "d": 1538.4619999999995,
      "v": 100
    },
    {
      "midi": 56,
      "hit": false,
      "t": 30769.239999999994,
      "d": 3076.92400000001,
      "v": 100
    },
    {
      "midi": 53,
      "hit": false,
      "t": 30769.239999999994,
      "d": 3076.92400000001,
      "v": 100
    },
    {
      "midi": 63,
      "hit": false,
      "t": 30769.239999999994,
      "d": 3076.92400000001,
      "v": 100
    },
    {
      "midi": 65,
      "hit": false,
      "t": 32307.701999999994,
      "d": 769.2310000000034,
      "v": 100
    },
    {
      "midi": 73,
      "hit": false,
      "t": 33076.933,
      "d": 576.9232499999998,
      "v": 100
    },
    {
      "midi": 69,
      "hit": false,
      "t": 33653.85625,
      "d": 96.15387500000361,
      "v": 100
    },
    {
      "midi": 68,
      "hit": false,
      "t": 33750.010125,
      "d": 96.15387500000361,
      "v": 100
    },
    {
      "midi": 67,
      "hit": false,
      "t": 33846.164000000004,
      "d": 2307.6929999999993,
      "v": 100
    },
    {
      "midi": 53,
      "hit": false,
      "t": 33846.164000000004,
      "d": 3076.923999999999,
      "v": 100
    },
    {
      "midi": 63,
      "hit": false,
      "t": 33846.164000000004,
      "d": 3076.923999999999,
      "v": 100
    },
    {
      "midi": 56,
      "hit": false,
      "t": 33846.164000000004,
      "d": 3076.923999999999,
      "v": 100
    },
    {
      "midi": 65,
      "hit": false,
      "t": 36153.857,
      "d": 192.30774999999994,
      "v": 100
    },
    {
      "midi": 67,
      "hit": false,
      "t": 36346.16475,
      "d": 192.30774999999994,
      "v": 100
    },
    {
      "midi": 68,
      "hit": false,
      "t": 36538.4725,
      "d": 192.30774999999994,
      "v": 100
    },
    {
      "midi": 70,
      "hit": false,
      "t": 36730.78025,
      "d": 192.30774999999994,
      "v": 100
    },
    {
      "midi": 72,
      "hit": false,
      "t": 36923.088,
      "d": 1538.4619999999995,
      "v": 100
    },
    {
      "midi": 54,
      "hit": false,
      "t": 36923.088,
      "d": 3076.9240000000063,
      "v": 100
    },
    {
      "midi": 58,
      "hit": false,
      "t": 36923.088,
      "d": 3076.9240000000063,
      "v": 100
    },
    {
      "midi": 65,
      "hit": false,
      "t": 36923.088,
      "d": 3076.9240000000063,
      "v": 100
    },
    {
      "midi": 70,
      "hit": false,
      "t": 38461.55,
      "d": 769.2309999999998,
      "v": 100
    },
    {
      "midi": 75,
      "hit": false,
      "t": 39230.781,
      "d": 576.9232499999998,
      "v": 100
    },
    {
      "midi": 74,
      "hit": false,
      "t": 39807.70425,
      "d": 96.15387500000361,
      "v": 100
    },
    {
      "midi": 73,
      "hit": false,
      "t": 39903.858125000006,
      "d": 96.15387500000361,
      "v": 100
    },
    {
      "midi": 72,
      "hit": false,
      "t": 40000.01200000001,
      "d": 1538.4619999999995,
      "v": 100
    },
    {
      "midi": 54,
      "hit": false,
      "t": 40000.01200000001,
      "d": 3076.923999999999,
      "v": 100
    },
    {
      "midi": 58,
      "hit": false,
      "t": 40000.01200000001,
      "d": 3076.923999999999,
      "v": 100
    },
    {
      "midi": 65,
      "hit": false,
      "t": 40000.01200000001,
      "d": 3076.923999999999,
      "v": 100
    },
    {
      "midi": 77,
      "hit": false,
      "t": 41538.47400000001,
      "d": 576.9232499999998,
      "v": 100
    },
    {
      "midi": 79,
      "hit": false,
      "t": 42115.39725000001,
      "d": 576.9232499999998,
      "v": 100
    },
    {
      "midi": 80,
      "hit": false,
      "t": 42692.32050000001,
      "d": 192.30774999999994,
      "v": 100
    },
    {
      "midi": 82,
      "hit": false,
      "t": 42884.62825000001,
      "d": 192.30774999999994,
      "v": 100
    },
    {
      "midi": 84,
      "hit": false,
      "t": 43076.93600000001,
      "d": 1346.1542499999996,
      "v": 100
    },
    {
      "midi": 53,
      "hit": false,
      "t": 43076.93600000001,
      "d": 3076.9240000000063,
      "v": 100
    },
    {
      "midi": 56,
      "hit": false,
      "t": 43076.93600000001,
      "d": 3076.9240000000063,
      "v": 100
    },
    {
      "midi": 63,
      "hit": false,
      "t": 43076.93600000001,
      "d": 3076.9240000000063,
      "v": 100
    },
    {
      "midi": 82,
      "hit": false,
      "t": 44423.09025000001,
      "d": 96.15387500000361,
      "v": 100
    },
    {
      "midi": 80,
      "hit": false,
      "t": 44519.24412500001,
      "d": 96.15387500000361,
      "v": 100
    },
    {
      "midi": 79,
      "hit": false,
      "t": 44615.398000000016,
      "d": 1346.1542499999996,
      "v": 100
    },
    {
      "midi": 77,
      "hit": false,
      "t": 45961.552250000015,
      "d": 192.30774999999994,
      "v": 100
    },
    {
      "midi": 79,
      "hit": false,
      "t": 46153.860000000015,
      "d": 2307.6929999999993,
      "v": 100
    },
    {
      "midi": 53,
      "hit": false,
      "t": 46153.860000000015,
      "d": 3076.923999999999,
      "v": 100
    },
    {
      "midi": 56,
      "hit": false,
      "t": 46153.860000000015,
      "d": 3076.923999999999,
      "v": 100
    },
    {
      "midi": 63,
      "hit": false,
      "t": 46153.860000000015,
      "d": 3076.923999999999,
      "v": 100
    },
    {
      "midi": 77,
      "hit": false,
      "t": 49230.784000000014,
      "d": 576.9232499999998,
      "v": 100
    },
    {
      "midi": 65,
      "hit": false,
      "t": 49230.784000000014,
      "d": 3076.923999999999,
      "v": 100
    },
    {
      "midi": 58,
      "hit": false,
      "t": 49230.784000000014,
      "d": 3076.923999999999,
      "v": 100
    },
    {
      "midi": 54,
      "hit": false,
      "t": 49230.784000000014,
      "d": 3076.923999999999,
      "v": 100
    },
    {
      "midi": 77,
      "hit": false,
      "t": 49807.707250000014,
      "d": 576.9232499999998,
      "v": 100
    },
    {
      "midi": 77,
      "hit": false,
      "t": 50384.630500000014,
      "d": 384.6154999999999,
      "v": 100
    },
    {
      "midi": 75,
      "hit": false,
      "t": 51538.47700000001,
      "d": 256.41033333333326,
      "v": 100
    },
    {
      "midi": 80,
      "hit": false,
      "t": 51794.88733333335,
      "d": 256.41033333333326,
      "v": 100
    },
    {
      "midi": 73,
      "hit": false,
      "t": 52051.29766666668,
      "d": 256.41033333333326,
      "v": 100
    },
    {
      "midi": 72,
      "hit": false,
      "t": 52307.70800000001,
      "d": 96.15387500000361,
      "v": 100
    },
    {
      "midi": 54,
      "hit": false,
      "t": 52307.70800000001,
      "d": 3076.9240000000063,
      "v": 100
    },
    {
      "midi": 58,
      "hit": false,
      "t": 52307.70800000001,
      "d": 3076.9240000000063,
      "v": 100
    },
    {
      "midi": 65,
      "hit": false,
      "t": 52307.70800000001,
      "d": 3076.9240000000063,
      "v": 100
    },
    {
      "midi": 73,
      "hit": false,
      "t": 52403.86187500002,
      "d": 96.15387500000361,
      "v": 100
    },
    {
      "midi": 72,
      "hit": false,
      "t": 52500.01575000002,
      "d": 2307.6929999999993,
      "v": 100
    },
    {
      "midi": 70,
      "hit": false,
      "t": 54615.40100000002,
      "d": 256.41033333333326,
      "v": 100
    },
    {
      "midi": 75,
      "hit": false,
      "t": 54871.81133333335,
      "d": 256.41033333333326,
      "v": 100
    },
    {
      "midi": 68,
      "hit": false,
      "t": 55128.221666666686,
      "d": 256.41033333333326,
      "v": 100
    },
    {
      "midi": 67,
      "hit": false,
      "t": 55384.63200000002,
      "d": 96.15387500000361,
      "v": 100
    },
    {
      "midi": 63,
      "hit": false,
      "t": 55384.63200000002,
      "d": 769.231000000007,
      "v": 100
    },
    {
      "midi": 53,
      "hit": false,
      "t": 55384.63200000002,
      "d": 769.231000000007,
      "v": 100
    },
    {
      "midi": 56,
      "hit": false,
      "t": 55384.63200000002,
      "d": 769.231000000007,
      "v": 100
    },
    {
      "midi": 68,
      "hit": false,
      "t": 55480.78587500002,
      "d": 96.15387500000361,
      "v": 100
    },
    {
      "midi": 67,
      "hit": false,
      "t": 55576.93975000003,
      "d": 2884.616249999999,
      "v": 100
    },
    {
      "midi": 53,
      "hit": false,
      "t": 56153.86300000003,
      "d": 384.6154999999999,
      "v": 100
    },
    {
      "midi": 58,
      "hit": false,
      "t": 56538.47850000003,
      "d": 384.6154999999999,
      "v": 100
    },
    {
      "midi": 55,
      "hit": false,
      "t": 56923.09400000003,
      "d": 1153.8464999999997,
      "v": 100
    },
    {
      "midi": 51,
      "hit": false,
      "t": 58076.940500000026,
      "d": 384.6154999999999,
      "v": 100
    },
    {
      "midi": 48,
      "hit": false,
      "t": 58461.556000000026,
      "d": 3076.923999999999,
      "v": 100
    },
    {
      "midi": 41,
      "hit": false,
      "t": 58461.556000000026,
      "d": 3076.923999999999,
      "v": 100
    },
    {
      "midi": 77,
      "hit": false,
      "t": 61538.480000000025,
      "d": 576.9232499999998,
      "v": 100
    },
    {
      "midi": 65,
      "hit": false,
      "t": 61538.480000000025,
      "d": 3076.923999999999,
      "v": 100
    },
    {
      "midi": 58,
      "hit": false,
      "t": 61538.480000000025,
      "d": 3076.923999999999,
      "v": 100
    },
    {
      "midi": 54,
      "hit": false,
      "t": 61538.480000000025,
      "d": 3076.923999999999,
      "v": 100
    },
    {
      "midi": 77,
      "hit": false,
      "t": 62115.403250000025,
      "d": 576.9232499999998,
      "v": 100
    },
    {
      "midi": 77,
      "hit": false,
      "t": 62692.326500000025,
      "d": 384.6154999999999,
      "v": 100
    },
    {
      "midi": 75,
      "hit": false,
      "t": 63846.173000000024,
      "d": 256.41033333333326,
      "v": 100
    },
    {
      "midi": 80,
      "hit": false,
      "t": 64102.58333333336,
      "d": 256.41033333333326,
      "v": 100
    },
    {
      "midi": 73,
      "hit": false,
      "t": 64358.99366666669,
      "d": 256.41033333333326,
      "v": 100
    },
    {
      "midi": 72,
      "hit": false,
      "t": 64615.404000000024,
      "d": 96.15387500000361,
      "v": 100
    },
    {
      "midi": 65,
      "hit": false,
      "t": 64615.404000000024,
      "d": 3076.9240000000136,
      "v": 100
    },
    {
      "midi": 58,
      "hit": false,
      "t": 64615.404000000024,
      "d": 3076.9240000000136,
      "v": 100
    },
    {
      "midi": 54,
      "hit": false,
      "t": 64615.404000000024,
      "d": 3076.9240000000136,
      "v": 100
    },
    {
      "midi": 73,
      "hit": false,
      "t": 64711.55787500003,
      "d": 96.15387500000361,
      "v": 100
    },
    {
      "midi": 72,
      "hit": false,
      "t": 64807.71175000003,
      "d": 2115.3852500000066,
      "v": 100
    },
    {
      "midi": 70,
      "hit": false,
      "t": 66923.09700000004,
      "d": 256.41033333333326,
      "v": 100
    },
    {
      "midi": 75,
      "hit": false,
      "t": 67179.50733333337,
      "d": 256.41033333333326,
      "v": 100
    },
    {
      "midi": 68,
      "hit": false,
      "t": 67435.9176666667,
      "d": 256.41033333333326,
      "v": 100
    },
    {
      "midi": 67,
      "hit": false,
      "t": 67692.32800000004,
      "d": 96.15387500000361,
      "v": 100
    },
    {
      "midi": 63,
      "hit": false,
      "t": 67692.32800000004,
      "d": 769.2310000000143,
      "v": 100
    },
    {
      "midi": 53,
      "hit": false,
      "t": 67692.32800000004,
      "d": 769.2310000000143,
      "v": 100
    },
    {
      "midi": 56,
      "hit": false,
      "t": 67692.32800000004,
      "d": 769.2310000000143,
      "v": 100
    },
    {
      "midi": 68,
      "hit": false,
      "t": 67788.48187500004,
      "d": 96.15387500000361,
      "v": 100
    },
    {
      "midi": 67,
      "hit": false,
      "t": 67884.63575000004,
      "d": 2884.6162500000064,
      "v": 100
    },
    {
      "midi": 55,
      "hit": false,
      "t": 68461.55900000005,
      "d": 769.2309999999998,
      "v": 100
    },
    {
      "midi": 56,
      "hit": false,
      "t": 69230.79000000005,
      "d": 769.2309999999998,
      "v": 100
    },
    {
      "midi": 58,
      "hit": false,
      "t": 70000.02100000005,
      "d": 769.2309999999998,
      "v": 100
    },
    {
      "midi": 60,
      "hit": false,
      "t": 70769.25200000005,
      "d": 3076.923999999999,
      "v": 100
    },
    {
      "midi": 53,
      "hit": false,
      "t": 70769.25200000005,
      "d": 3076.923999999999,
      "v": 100
    },
    {
      "midi": 51,
      "hit": false,
      "t": 73846.17600000005,
      "d": 192.30775000000722,
      "v": 100
    },
    {
      "midi": 77,
      "hit": false,
      "t": 73846.17600000005,
      "d": 1538.4620000000577,
      "v": 100
    },
    {
      "midi": 54,
      "hit": false,
      "t": 74038.48375000006,
      "d": 192.30775000000722,
      "v": 100
    },
    {
      "midi": 58,
      "hit": false,
      "t": 74230.79150000006,
      "d": 192.30775000000722,
      "v": 100
    },
    {
      "midi": 61,
      "hit": false,
      "t": 74423.09925000007,
      "d": 192.30775000000722,
      "v": 100
    },
    {
      "midi": 51,
      "hit": false,
      "t": 74615.40700000008,
      "d": 192.30775000000722,
      "v": 100
    },
    {
      "midi": 54,
      "hit": false,
      "t": 74807.71475000009,
      "d": 192.30775000000722,
      "v": 100
    },
    {
      "midi": 58,
      "hit": false,
      "t": 75000.0225000001,
      "d": 192.30775000000722,
      "v": 100
    },
    {
      "midi": 61,
      "hit": false,
      "t": 75192.3302500001,
      "d": 192.30775000000722,
      "v": 100
    },
    {
      "midi": 51,
      "hit": false,
      "t": 75384.63800000011,
      "d": 192.30775000000722,
      "v": 100
    },
    {
      "midi": 75,
      "hit": false,
      "t": 75384.63800000011,
      "d": 769.2310000000289,
      "v": 100
    },
    {
      "midi": 54,
      "hit": false,
      "t": 75576.94575000012,
      "d": 192.30775000000722,
      "v": 100
    },
    {
      "midi": 58,
      "hit": false,
      "t": 75769.25350000012,
      "d": 192.30775000000722,
      "v": 100
    },
    {
      "midi": 61,
      "hit": false,
      "t": 75961.56125000013,
      "d": 192.30775000000722,
      "v": 100
    },
    {
      "midi": 51,
      "hit": false,
      "t": 76153.86900000014,
      "d": 192.30775000000722,
      "v": 100
    },
    {
      "midi": 80,
      "hit": false,
      "t": 76153.86900000014,
      "d": 576.9232500000217,
      "v": 100
    },
    {
      "midi": 54,
      "hit": false,
      "t": 76346.17675000014,
      "d": 192.30775000000722,
      "v": 100
    },
    {
      "midi": 58,
      "hit": false,
      "t": 76538.48450000015,
      "d": 192.30775000000722,
      "v": 100
    },
    {
      "midi": 79,
      "hit": false,
      "t": 76730.79225000016,
      "d": 96.15387500000361,
      "v": 100
    },
    {
      "midi": 61,
      "hit": false,
      "t": 76730.79225000016,
      "d": 192.30775000000722,
      "v": 100
    },
    {
      "midi": 78,
      "hit": false,
      "t": 76826.94612500016,
      "d": 96.15387500000361,
      "v": 100
    },
    {
      "midi": 47,
      "hit": false,
      "t": 76923.10000000017,
      "d": 192.30775000000722,
      "v": 100
    },
    {
      "midi": 77,
      "hit": false,
      "t": 76923.10000000017,
      "d": 1538.4620000000577,
      "v": 100
    },
    {
      "midi": 51,
      "hit": false,
      "t": 77115.40775000017,
      "d": 192.30775000000722,
      "v": 100
    },
    {
      "midi": 54,
      "hit": false,
      "t": 77307.71550000018,
      "d": 192.30775000000722,
      "v": 100
    },
    {
      "midi": 57,
      "hit": false,
      "t": 77500.02325000019,
      "d": 192.30775000000722,
      "v": 100
    },
    {
      "midi": 47,
      "hit": false,
      "t": 77692.3310000002,
      "d": 192.30775000000722,
      "v": 100
    },
    {
      "midi": 51,
      "hit": false,
      "t": 77884.6387500002,
      "d": 192.30775000000722,
      "v": 100
    },
    {
      "midi": 54,
      "hit": false,
      "t": 78076.94650000021,
      "d": 192.30775000000722,
      "v": 100
    },
    {
      "midi": 57,
      "hit": false,
      "t": 78269.25425000022,
      "d": 192.30775000000722,
      "v": 100
    },
    {
      "midi": 47,
      "hit": false,
      "t": 78461.56200000022,
      "d": 192.30775000000722,
      "v": 100
    },
    {
      "midi": 75,
      "hit": false,
      "t": 78461.56200000022,
      "d": 769.2310000000289,
      "v": 100
    },
    {
      "midi": 51,
      "hit": false,
      "t": 78653.86975000023,
      "d": 192.30775000000722,
      "v": 100
    },
    {
      "midi": 54,
      "hit": false,
      "t": 78846.17750000024,
      "d": 192.30775000000722,
      "v": 100
    },
    {
      "midi": 57,
      "hit": false,
      "t": 79038.48525000025,
      "d": 192.30775000000722,
      "v": 100
    },
    {
      "midi": 47,
      "hit": false,
      "t": 79230.79300000025,
      "d": 192.30775000000722,
      "v": 100
    },
    {
      "midi": 73,
      "hit": false,
      "t": 79230.79300000025,
      "d": 769.2310000000289,
      "v": 100
    },
    {
      "midi": 51,
      "hit": false,
      "t": 79423.10075000026,
      "d": 192.30775000000722,
      "v": 100
    },
    {
      "midi": 54,
      "hit": false,
      "t": 79615.40850000027,
      "d": 192.30775000000722,
      "v": 100
    },
    {
      "midi": 57,
      "hit": false,
      "t": 79807.71625000027,
      "d": 192.30775000000722,
      "v": 100
    },
    {
      "midi": 46,
      "hit": false,
      "t": 80000.02400000028,
      "d": 192.30775000000722,
      "v": 100
    },
    {
      "midi": 72,
      "hit": false,
      "t": 80000.02400000028,
      "d": 1923.0775000000722,
      "v": 100
    },
    {
      "midi": 49,
      "hit": false,
      "t": 80192.33175000029,
      "d": 192.30775000000722,
      "v": 100
    },
    {
      "midi": 53,
      "hit": false,
      "t": 80384.6395000003,
      "d": 192.30775000000722,
      "v": 100
    },
    {
      "midi": 56,
      "hit": false,
      "t": 80576.9472500003,
      "d": 192.30775000000722,
      "v": 100
    },
    {
      "midi": 46,
      "hit": false,
      "t": 80769.25500000031,
      "d": 192.30775000000722,
      "v": 100
    },
    {
      "midi": 49,
      "hit": false,
      "t": 80961.56275000032,
      "d": 192.30775000000722,
      "v": 100
    },
    {
      "midi": 53,
      "hit": false,
      "t": 81153.87050000032,
      "d": 192.30775000000722,
      "v": 100
    },
    {
      "midi": 56,
      "hit": false,
      "t": 81346.17825000033,
      "d": 192.30775000000722,
      "v": 100
    },
    {
      "midi": 46,
      "hit": false,
      "t": 81538.48600000034,
      "d": 192.30775000000722,
      "v": 100
    },
    {
      "midi": 49,
      "hit": false,
      "t": 81730.79375000035,
      "d": 192.30775000000722,
      "v": 100
    },
    {
      "midi": 53,
      "hit": false,
      "t": 81923.10150000035,
      "d": 192.30775000000722,
      "v": 100
    },
    {
      "midi": 70,
      "hit": false,
      "t": 81923.10150000035,
      "d": 576.9232500000217,
      "v": 100
    },
    {
      "midi": 56,
      "hit": false,
      "t": 82115.40925000036,
      "d": 192.30775000000722,
      "v": 100
    },
    {
      "midi": 46,
      "hit": false,
      "t": 82307.71700000037,
      "d": 192.30775000000722,
      "v": 100
    },
    {
      "midi": 49,
      "hit": false,
      "t": 82500.02475000038,
      "d": 192.30775000000722,
      "v": 100
    },
    {
      "midi": 72,
      "hit": false,
      "t": 82500.02475000038,
      "d": 192.30775000000722,
      "v": 100
    },
    {
      "midi": 53,
      "hit": false,
      "t": 82692.33250000038,
      "d": 192.30775000000722,
      "v": 100
    },
    {
      "midi": 73,
      "hit": false,
      "t": 82692.33250000038,
      "d": 192.30775000000722,
      "v": 100
    },
    {
      "midi": 56,
      "hit": false,
      "t": 82884.64025000039,
      "d": 192.30775000000722,
      "v": 100
    },
    {
      "midi": 75,
      "hit": false,
      "t": 82884.64025000039,
      "d": 192.30775000000722,
      "v": 100
    },
    {
      "midi": 51,
      "hit": false,
      "t": 83076.9480000004,
      "d": 192.30775000000722,
      "v": 100
    },
    {
      "midi": 77,
      "hit": false,
      "t": 83076.9480000004,
      "d": 1538.4620000000577,
      "v": 100
    },
    {
      "midi": 54,
      "hit": false,
      "t": 83269.2557500004,
      "d": 192.30775000000722,
      "v": 100
    },
    {
      "midi": 58,
      "hit": false,
      "t": 83461.56350000041,
      "d": 192.30775000000722,
      "v": 100
    },
    {
      "midi": 61,
      "hit": false,
      "t": 83653.87125000042,
      "d": 192.30775000000722,
      "v": 100
    },
    {
      "midi": 51,
      "hit": false,
      "t": 83846.17900000043,
      "d": 192.30775000000722,
      "v": 100
    },
    {
      "midi": 54,
      "hit": false,
      "t": 84038.48675000043,
      "d": 192.30775000000722,
      "v": 100
    },
    {
      "midi": 58,
      "hit": false,
      "t": 84230.79450000044,
      "d": 192.30775000000722,
      "v": 100
    },
    {
      "midi": 61,
      "hit": false,
      "t": 84423.10225000045,
      "d": 192.30775000000722,
      "v": 100
    },
    {
      "midi": 51,
      "hit": false,
      "t": 84615.41000000045,
      "d": 192.30775000000722,
      "v": 100
    },
    {
      "midi": 75,
      "hit": false,
      "t": 84615.41000000045,
      "d": 769.2310000000289,
      "v": 100
    },
    {
      "midi": 54,
      "hit": false,
      "t": 84807.71775000046,
      "d": 192.30775000000722,
      "v": 100
    },
    {
      "midi": 58,
      "hit": false,
      "t": 85000.02550000047,
      "d": 192.30775000000722,
      "v": 100
    },
    {
      "midi": 61,
      "hit": false,
      "t": 85192.33325000048,
      "d": 192.30775000000722,
      "v": 100
    },
    {
      "midi": 51,
      "hit": false,
      "t": 85384.64100000048,
      "d": 192.30775000000722,
      "v": 100
    },
    {
      "midi": 80,
      "hit": false,
      "t": 85384.64100000048,
      "d": 576.9232500000217,
      "v": 100
    },
    {
      "midi": 54,
      "hit": false,
      "t": 85576.94875000049,
      "d": 192.30775000000722,
      "v": 100
    },
    {
      "midi": 58,
      "hit": false,
      "t": 85769.2565000005,
      "d": 192.30775000000722,
      "v": 100
    },
    {
      "midi": 79,
      "hit": false,
      "t": 85961.5642500005,
      "d": 96.15387500000361,
      "v": 100
    },
    {
      "midi": 61,
      "hit": false,
      "t": 85961.5642500005,
      "d": 192.30775000000722,
      "v": 100
    },
    {
      "midi": 78,
      "hit": false,
      "t": 86057.71812500051,
      "d": 96.15387500000361,
      "v": 100
    },
    {
      "midi": 47,
      "hit": false,
      "t": 86153.87200000051,
      "d": 192.30775000000722,
      "v": 100
    },
    {
      "midi": 77,
      "hit": false,
      "t": 86153.87200000051,
      "d": 1538.4620000000577,
      "v": 100
    },
    {
      "midi": 51,
      "hit": false,
      "t": 86346.17975000052,
      "d": 192.30775000000722,
      "v": 100
    },
    {
      "midi": 54,
      "hit": false,
      "t": 86538.48750000053,
      "d": 192.30775000000722,
      "v": 100
    },
    {
      "midi": 57,
      "hit": false,
      "t": 86730.79525000053,
      "d": 192.30775000000722,
      "v": 100
    },
    {
      "midi": 47,
      "hit": false,
      "t": 86923.10300000054,
      "d": 192.30775000000722,
      "v": 100
    },
    {
      "midi": 51,
      "hit": false,
      "t": 87115.41075000055,
      "d": 192.30775000000722,
      "v": 100
    },
    {
      "midi": 54,
      "hit": false,
      "t": 87307.71850000056,
      "d": 192.30775000000722,
      "v": 100
    },
    {
      "midi": 57,
      "hit": false,
      "t": 87500.02625000056,
      "d": 192.30775000000722,
      "v": 100
    },
    {
      "midi": 47,
      "hit": false,
      "t": 87692.33400000057,
      "d": 192.30775000000722,
      "v": 100
    },
    {
      "midi": 75,
      "hit": false,
      "t": 87692.33400000057,
      "d": 769.2310000000289,
      "v": 100
    },
    {
      "midi": 51,
      "hit": false,
      "t": 87884.64175000058,
      "d": 192.30775000000722,
      "v": 100
    },
    {
      "midi": 54,
      "hit": false,
      "t": 88076.94950000058,
      "d": 192.30775000000722,
      "v": 100
    },
    {
      "midi": 57,
      "hit": false,
      "t": 88269.25725000059,
      "d": 192.30775000000722,
      "v": 100
    },
    {
      "midi": 47,
      "hit": false,
      "t": 88461.5650000006,
      "d": 192.30775000000722,
      "v": 100
    },
    {
      "midi": 80,
      "hit": false,
      "t": 88461.5650000006,
      "d": 769.2310000000289,
      "v": 100
    },
    {
      "midi": 51,
      "hit": false,
      "t": 88653.8727500006,
      "d": 192.30775000000722,
      "v": 100
    },
    {
      "midi": 54,
      "hit": false,
      "t": 88846.18050000061,
      "d": 192.30775000000722,
      "v": 100
    },
    {
      "midi": 57,
      "hit": false,
      "t": 89038.48825000062,
      "d": 192.30775000000722,
      "v": 100
    },
    {
      "midi": 48,
      "hit": false,
      "t": 89230.79600000063,
      "d": 192.30775000000722,
      "v": 100
    },
    {
      "midi": 77,
      "hit": false,
      "t": 89230.79600000063,
      "d": 3076.9240000001155,
      "v": 100
    },
    {
      "midi": 51,
      "hit": false,
      "t": 89423.10375000064,
      "d": 192.30775000000722,
      "v": 100
    },
    {
      "midi": 53,
      "hit": false,
      "t": 89615.41150000064,
      "d": 192.30775000000722,
      "v": 100
    },
    {
      "midi": 58,
      "hit": false,
      "t": 89807.71925000065,
      "d": 192.30775000000722,
      "v": 100
    },
    {
      "midi": 48,
      "hit": false,
      "t": 90000.02700000066,
      "d": 192.30775000000722,
      "v": 100
    },
    {
      "midi": 51,
      "hit": false,
      "t": 90192.33475000066,
      "d": 192.30775000000722,
      "v": 100
    },
    {
      "midi": 53,
      "hit": false,
      "t": 90384.64250000067,
      "d": 192.30775000000722,
      "v": 100
    },
    {
      "midi": 58,
      "hit": false,
      "t": 90576.95025000068,
      "d": 192.30775000000722,
      "v": 100
    },
    {
      "midi": 48,
      "hit": false,
      "t": 90769.25800000069,
      "d": 192.30775000000722,
      "v": 100
    },
    {
      "midi": 51,
      "hit": false,
      "t": 90961.5657500007,
      "d": 192.30775000000722,
      "v": 100
    },
    {
      "midi": 53,
      "hit": false,
      "t": 91153.8735000007,
      "d": 192.30775000000722,
      "v": 100
    },
    {
      "midi": 58,
      "hit": false,
      "t": 91346.1812500007,
      "d": 192.30775000000722,
      "v": 100
    },
    {
      "midi": 48,
      "hit": false,
      "t": 91538.48900000071,
      "d": 192.30775000000722,
      "v": 100
    },
    {
      "midi": 51,
      "hit": false,
      "t": 91730.79675000072,
      "d": 192.30775000000722,
      "v": 100
    },
    {
      "midi": 53,
      "hit": false,
      "t": 91923.10450000073,
      "d": 192.30775000000722,
      "v": 100
    },
    {
      "midi": 58,
      "hit": false,
      "t": 92115.41225000074,
      "d": 192.30775000000722,
      "v": 100
    },
    {
      "midi": 53,
      "hit": false,
      "t": 92307.72000000074,
      "d": 192.30775000000722,
      "v": 100
    },
    {
      "midi": 72,
      "hit": false,
      "t": 92307.72000000074,
      "d": 3076.9240000001155,
      "v": 100
    },
    {
      "midi": 57,
      "hit": false,
      "t": 92500.02775000075,
      "d": 192.30775000000722,
      "v": 100
    },
    {
      "midi": 60,
      "hit": false,
      "t": 92692.33550000076,
      "d": 192.30775000000722,
      "v": 100
    },
    {
      "midi": 63,
      "hit": false,
      "t": 92884.64325000076,
      "d": 192.30775000000722,
      "v": 100
    },
    {
      "midi": 53,
      "hit": false,
      "t": 93076.95100000077,
      "d": 192.30775000000722,
      "v": 100
    },
    {
      "midi": 57,
      "hit": false,
      "t": 93269.25875000078,
      "d": 192.30775000000722,
      "v": 100
    },
    {
      "midi": 60,
      "hit": false,
      "t": 93461.56650000079,
      "d": 192.30775000000722,
      "v": 100
    },
    {
      "midi": 63,
      "hit": false,
      "t": 93653.8742500008,
      "d": 192.30775000000722,
      "v": 100
    },
    {
      "midi": 53,
      "hit": false,
      "t": 93846.1820000008,
      "d": 192.30775000000722,
      "v": 100
    },
    {
      "midi": 57,
      "hit": false,
      "t": 94038.48975000081,
      "d": 192.30775000000722,
      "v": 100
    },
    {
      "midi": 60,
      "hit": false,
      "t": 94230.79750000082,
      "d": 192.30775000000722,
      "v": 100
    },
    {
      "midi": 63,
      "hit": false,
      "t": 94423.10525000082,
      "d": 192.30775000000722,
      "v": 100
    },
    {
      "midi": 53,
      "hit": false,
      "t": 94615.41300000083,
      "d": 192.30775000000722,
      "v": 100
    },
    {
      "midi": 57,
      "hit": false,
      "t": 94807.72075000084,
      "d": 192.30775000000722,
      "v": 100
    },
    {
      "midi": 60,
      "hit": false,
      "t": 95000.02850000084,
      "d": 192.30775000000722,
      "v": 100
    },
    {
      "midi": 63,
      "hit": false,
      "t": 95192.33625000085,
      "d": 192.30775000000722,
      "v": 100
    },
    {
      "midi": 65,
      "hit": false,
      "t": 95384.64400000086,
      "d": 384.6154999999999,
      "v": 100
    },
    {
      "midi": 72,
      "hit": false,
      "t": 95384.64400000086,
      "d": 384.6154999999999,
      "v": 100
    },
    {
      "midi": 68,
      "hit": false,
      "t": 95384.64400000086,
      "d": 384.6154999999999,
      "v": 100
    },
    {
      "midi": 46,
      "hit": false,
      "t": 95384.64400000086,
      "d": 576.9232500000071,
      "v": 100
    },
    {
      "midi": 65,
      "hit": false,
      "t": 95769.25950000086,
      "d": 384.61550000001444,
      "v": 100
    },
    {
      "midi": 68,
      "hit": false,
      "t": 95769.25950000086,
      "d": 384.61550000001444,
      "v": 100
    },
    {
      "midi": 72,
      "hit": false,
      "t": 95769.25950000086,
      "d": 384.61550000001444,
      "v": 100
    },
    {
      "midi": 53,
      "hit": false,
      "t": 95961.56725000087,
      "d": 192.30775000000722,
      "v": 100
    },
    {
      "midi": 73,
      "hit": false,
      "t": 96153.87500000087,
      "d": 384.6154999999999,
      "v": 100
    },
    {
      "midi": 68,
      "hit": false,
      "t": 96153.87500000087,
      "d": 384.6154999999999,
      "v": 100
    },
    {
      "midi": 65,
      "hit": false,
      "t": 96153.87500000087,
      "d": 384.6154999999999,
      "v": 100
    },
    {
      "midi": 65,
      "hit": false,
      "t": 96538.49050000087,
      "d": 384.6154999999999,
      "v": 100
    },
    {
      "midi": 73,
      "hit": false,
      "t": 96538.49050000087,
      "d": 384.6154999999999,
      "v": 100
    },
    {
      "midi": 68,
      "hit": false,
      "t": 96538.49050000087,
      "d": 384.6154999999999,
      "v": 100
    },
    {
      "midi": 58,
      "hit": false,
      "t": 96538.49050000087,
      "d": 1923.0774999999994,
      "v": 100
    },
    {
      "midi": 75,
      "hit": false,
      "t": 96923.10600000087,
      "d": 384.6154999999999,
      "v": 100
    },
    {
      "midi": 68,
      "hit": false,
      "t": 96923.10600000087,
      "d": 384.6154999999999,
      "v": 100
    },
    {
      "midi": 65,
      "hit": false,
      "t": 96923.10600000087,
      "d": 384.6154999999999,
      "v": 100
    },
    {
      "midi": 75,
      "hit": false,
      "t": 97307.72150000087,
      "d": 384.6154999999999,
      "v": 100
    },
    {
      "midi": 68,
      "hit": false,
      "t": 97307.72150000087,
      "d": 384.6154999999999,
      "v": 100
    },
    {
      "midi": 65,
      "hit": false,
      "t": 97307.72150000087,
      "d": 384.6154999999999,
      "v": 100
    },
    {
      "midi": 72,
      "hit": false,
      "t": 97692.33700000087,
      "d": 769.2309999999998,
      "v": 100
    },
    {
      "midi": 65,
      "hit": false,
      "t": 97692.33700000087,
      "d": 769.2309999999998,
      "v": 100
    },
    {
      "midi": 68,
      "hit": false,
      "t": 97692.33700000087,
      "d": 769.2309999999998,
      "v": 100
    },
    {
      "midi": 65,
      "hit": false,
      "t": 98461.56800000087,
      "d": 384.6154999999999,
      "v": 100
    },
    {
      "midi": 69,
      "hit": false,
      "t": 98461.56800000087,
      "d": 384.6154999999999,
      "v": 100
    },
    {
      "midi": 62,
      "hit": false,
      "t": 98461.56800000087,
      "d": 384.6154999999999,
      "v": 100
    },
    {
      "midi": 43,
      "hit": false,
      "t": 98461.56800000087,
      "d": 576.9232500000071,
      "v": 100
    },
    {
      "midi": 69,
      "hit": false,
      "t": 98846.18350000087,
      "d": 384.61550000001444,
      "v": 100
    },
    {
      "midi": 65,
      "hit": false,
      "t": 98846.18350000087,
      "d": 384.61550000001444,
      "v": 100
    },
    {
      "midi": 62,
      "hit": false,
      "t": 98846.18350000087,
      "d": 384.61550000001444,
      "v": 100
    },
    {
      "midi": 50,
      "hit": false,
      "t": 99038.49125000088,
      "d": 192.30775000000722,
      "v": 100
    },
    {
      "midi": 70,
      "hit": false,
      "t": 99230.79900000089,
      "d": 384.6154999999999,
      "v": 100
    },
    {
      "midi": 65,
      "hit": false,
      "t": 99230.79900000089,
      "d": 384.6154999999999,
      "v": 100
    },
    {
      "midi": 62,
      "hit": false,
      "t": 99230.79900000089,
      "d": 384.6154999999999,
      "v": 100
    },
    {
      "midi": 70,
      "hit": false,
      "t": 99615.41450000089,
      "d": 384.6154999999999,
      "v": 100
    },
    {
      "midi": 62,
      "hit": false,
      "t": 99615.41450000089,
      "d": 384.6154999999999,
      "v": 100
    },
    {
      "midi": 65,
      "hit": false,
      "t": 99615.41450000089,
      "d": 384.6154999999999,
      "v": 100
    },
    {
      "midi": 57,
      "hit": false,
      "t": 99615.41450000089,
      "d": 769.2309999999998,
      "v": 100
    },
    {
      "midi": 75,
      "hit": false,
      "t": 100000.03000000089,
      "d": 384.6154999999999,
      "v": 100
    },
    {
      "midi": 62,
      "hit": false,
      "t": 100000.03000000089,
      "d": 384.6154999999999,
      "v": 100
    },
    {
      "midi": 65,
      "hit": false,
      "t": 100000.03000000089,
      "d": 384.6154999999999,
      "v": 100
    },
    {
      "midi": 75,
      "hit": false,
      "t": 100384.64550000089,
      "d": 384.6154999999999,
      "v": 100
    },
    {
      "midi": 62,
      "hit": false,
      "t": 100384.64550000089,
      "d": 384.6154999999999,
      "v": 100
    },
    {
      "midi": 65,
      "hit": false,
      "t": 100384.64550000089,
      "d": 384.6154999999999,
      "v": 100
    },
    {
      "midi": 55,
      "hit": false,
      "t": 100384.64550000089,
      "d": 1153.8464999999997,
      "v": 100
    },
    {
      "midi": 72,
      "hit": false,
      "t": 100769.26100000089,
      "d": 769.2309999999998,
      "v": 100
    },
    {
      "midi": 65,
      "hit": false,
      "t": 100769.26100000089,
      "d": 769.2309999999998,
      "v": 100
    },
    {
      "midi": 69,
      "hit": false,
      "t": 100769.26100000089,
      "d": 769.2309999999998,
      "v": 100
    },
    {
      "midi": 65,
      "hit": false,
      "t": 101538.49200000089,
      "d": 384.6154999999999,
      "v": 100
    },
    {
      "midi": 58,
      "hit": false,
      "t": 101538.49200000089,
      "d": 384.6154999999999,
      "v": 100
    },
    {
      "midi": 61,
      "hit": false,
      "t": 101538.49200000089,
      "d": 384.6154999999999,
      "v": 100
    },
    {
      "midi": 39,
      "hit": false,
      "t": 101538.49200000089,
      "d": 576.9232500000071,
      "v": 100
    },
    {
      "midi": 65,
      "hit": false,
      "t": 101923.10750000089,
      "d": 384.61550000001444,
      "v": 100
    },
    {
      "midi": 61,
      "hit": false,
      "t": 101923.10750000089,
      "d": 384.61550000001444,
      "v": 100
    },
    {
      "midi": 58,
      "hit": false,
      "t": 101923.10750000089,
      "d": 384.61550000001444,
      "v": 100
    },
    {
      "midi": 46,
      "hit": false,
      "t": 102115.4152500009,
      "d": 192.30775000000722,
      "v": 100
    },
    {
      "midi": 61,
      "hit": false,
      "t": 102307.7230000009,
      "d": 384.6154999999999,
      "v": 100
    },
    {
      "midi": 58,
      "hit": false,
      "t": 102307.7230000009,
      "d": 384.6154999999999,
      "v": 100
    },
    {
      "midi": 66,
      "hit": false,
      "t": 102307.7230000009,
      "d": 384.6154999999999,
      "v": 100
    },
    {
      "midi": 66,
      "hit": false,
      "t": 102692.3385000009,
      "d": 384.6154999999999,
      "v": 100
    },
    {
      "midi": 58,
      "hit": false,
      "t": 102692.3385000009,
      "d": 384.6154999999999,
      "v": 100
    },
    {
      "midi": 61,
      "hit": false,
      "t": 102692.3385000009,
      "d": 384.6154999999999,
      "v": 100
    },
    {
      "midi": 53,
      "hit": false,
      "t": 102692.3385000009,
      "d": 769.2309999999998,
      "v": 100
    },
    {
      "midi": 68,
      "hit": false,
      "t": 103076.9540000009,
      "d": 384.6154999999999,
      "v": 100
    },
    {
      "midi": 58,
      "hit": false,
      "t": 103076.9540000009,
      "d": 384.6154999999999,
      "v": 100
    },
    {
      "midi": 61,
      "hit": false,
      "t": 103076.9540000009,
      "d": 384.6154999999999,
      "v": 100
    },
    {
      "midi": 68,
      "hit": false,
      "t": 103461.5695000009,
      "d": 384.6154999999999,
      "v": 100
    },
    {
      "midi": 58,
      "hit": false,
      "t": 103461.5695000009,
      "d": 384.6154999999999,
      "v": 100
    },
    {
      "midi": 61,
      "hit": false,
      "t": 103461.5695000009,
      "d": 384.6154999999999,
      "v": 100
    },
    {
      "midi": 51,
      "hit": false,
      "t": 103461.5695000009,
      "d": 1153.8464999999997,
      "v": 100
    },
    {
      "midi": 65,
      "hit": false,
      "t": 103846.1850000009,
      "d": 769.2309999999998,
      "v": 100
    },
    {
      "midi": 58,
      "hit": false,
      "t": 103846.1850000009,
      "d": 769.2309999999998,
      "v": 100
    },
    {
      "midi": 61,
      "hit": false,
      "t": 103846.1850000009,
      "d": 769.2309999999998,
      "v": 100
    },
    {
      "midi": 67,
      "hit": false,
      "t": 104615.4160000009,
      "d": 384.6154999999999,
      "v": 100
    },
    {
      "midi": 60,
      "hit": false,
      "t": 104615.4160000009,
      "d": 384.6154999999999,
      "v": 100
    },
    {
      "midi": 63,
      "hit": false,
      "t": 104615.4160000009,
      "d": 384.6154999999999,
      "v": 100
    },
    {
      "midi": 41,
      "hit": false,
      "t": 104615.4160000009,
      "d": 576.9232500000071,
      "v": 100
    },
    {
      "midi": 67,
      "hit": false,
      "t": 105000.0315000009,
      "d": 384.61550000001444,
      "v": 100
    },
    {
      "midi": 63,
      "hit": false,
      "t": 105000.0315000009,
      "d": 384.61550000001444,
      "v": 100
    },
    {
      "midi": 60,
      "hit": false,
      "t": 105000.0315000009,
      "d": 384.61550000001444,
      "v": 100
    },
    {
      "midi": 48,
      "hit": false,
      "t": 105192.3392500009,
      "d": 192.30775000000722,
      "v": 100
    },
    {
      "midi": 68,
      "hit": false,
      "t": 105384.64700000091,
      "d": 384.6154999999999,
      "v": 100
    },
    {
      "midi": 63,
      "hit": false,
      "t": 105384.64700000091,
      "d": 384.6154999999999,
      "v": 100
    },
    {
      "midi": 60,
      "hit": false,
      "t": 105384.64700000091,
      "d": 384.6154999999999,
      "v": 100
    },
    {
      "midi": 68,
      "hit": false,
      "t": 105769.26250000091,
      "d": 384.6154999999999,
      "v": 100
    },
    {
      "midi": 60,
      "hit": false,
      "t": 105769.26250000091,
      "d": 384.6154999999999,
      "v": 100
    },
    {
      "midi": 63,
      "hit": false,
      "t": 105769.26250000091,
      "d": 384.6154999999999,
      "v": 100
    },
    {
      "midi": 53,
      "hit": false,
      "t": 105769.26250000091,
      "d": 769.2309999999998,
      "v": 100
    },
    {
      "midi": 63,
      "hit": false,
      "t": 106153.87800000091,
      "d": 384.6154999999999,
      "v": 100
    },
    {
      "midi": 70,
      "hit": false,
      "t": 106153.87800000091,
      "d": 384.6154999999999,
      "v": 100
    },
    {
      "midi": 60,
      "hit": false,
      "t": 106153.87800000091,
      "d": 384.6154999999999,
      "v": 100
    },
    {
      "midi": 48,
      "hit": false,
      "t": 106538.49350000091,
      "d": 384.6154999999999,
      "v": 100
    },
    {
      "midi": 70,
      "hit": false,
      "t": 106538.49350000091,
      "d": 384.6154999999999,
      "v": 100
    },
    {
      "midi": 60,
      "hit": false,
      "t": 106538.49350000091,
      "d": 384.6154999999999,
      "v": 100
    },
    {
      "midi": 63,
      "hit": false,
      "t": 106538.49350000091,
      "d": 384.6154999999999,
      "v": 100
    },
    {
      "midi": 41,
      "hit": false,
      "t": 106923.10900000091,
      "d": 769.2309999999998,
      "v": 100
    },
    {
      "midi": 63,
      "hit": false,
      "t": 106923.10900000091,
      "d": 769.2309999999998,
      "v": 100
    },
    {
      "midi": 67,
      "hit": false,
      "t": 106923.10900000091,
      "d": 769.2309999999998,
      "v": 100
    },
    {
      "midi": 70,
      "hit": false,
      "t": 106923.10900000091,
      "d": 769.2309999999998,
      "v": 100
    },
    {
      "midi": 72,
      "hit": false,
      "t": 107692.34000000091,
      "d": 384.6154999999999,
      "v": 100
    },
    {
      "midi": 65,
      "hit": false,
      "t": 107692.34000000091,
      "d": 384.6154999999999,
      "v": 100
    },
    {
      "midi": 68,
      "hit": false,
      "t": 107692.34000000091,
      "d": 384.6154999999999,
      "v": 100
    },
    {
      "midi": 46,
      "hit": false,
      "t": 107692.34000000091,
      "d": 576.9232500000071,
      "v": 100
    },
    {
      "midi": 65,
      "hit": false,
      "t": 108076.95550000091,
      "d": 384.61550000001444,
      "v": 100
    },
    {
      "midi": 68,
      "hit": false,
      "t": 108076.95550000091,
      "d": 384.61550000001444,
      "v": 100
    },
    {
      "midi": 72,
      "hit": false,
      "t": 108076.95550000091,
      "d": 384.61550000001444,
      "v": 100
    },
    {
      "midi": 53,
      "hit": false,
      "t": 108269.26325000092,
      "d": 192.30775000000722,
      "v": 100
    },
    {
      "midi": 73,
      "hit": false,
      "t": 108461.57100000093,
      "d": 384.6154999999999,
      "v": 100
    },
    {
      "midi": 68,
      "hit": false,
      "t": 108461.57100000093,
      "d": 384.6154999999999,
      "v": 100
    },
    {
      "midi": 65,
      "hit": false,
      "t": 108461.57100000093,
      "d": 384.6154999999999,
      "v": 100
    },
    {
      "midi": 73,
      "hit": false,
      "t": 108846.18650000093,
      "d": 384.6154999999999,
      "v": 100
    },
    {
      "midi": 65,
      "hit": false,
      "t": 108846.18650000093,
      "d": 384.6154999999999,
      "v": 100
    },
    {
      "midi": 68,
      "hit": false,
      "t": 108846.18650000093,
      "d": 384.6154999999999,
      "v": 100
    },
    {
      "midi": 58,
      "hit": false,
      "t": 108846.18650000093,
      "d": 1923.0774999999994,
      "v": 100
    },
    {
      "midi": 65,
      "hit": false,
      "t": 109230.80200000093,
      "d": 384.6154999999999,
      "v": 100
    },
    {
      "midi": 68,
      "hit": false,
      "t": 109230.80200000093,
      "d": 384.6154999999999,
      "v": 100
    },
    {
      "midi": 75,
      "hit": false,
      "t": 109230.80200000093,
      "d": 384.6154999999999,
      "v": 100
    },
    {
      "midi": 68,
      "hit": false,
      "t": 109615.41750000093,
      "d": 384.6154999999999,
      "v": 100
    },
    {
      "midi": 65,
      "hit": false,
      "t": 109615.41750000093,
      "d": 384.6154999999999,
      "v": 100
    },
    {
      "midi": 75,
      "hit": false,
      "t": 109615.41750000093,
      "d": 384.6154999999999,
      "v": 100
    },
    {
      "midi": 72,
      "hit": false,
      "t": 110000.03300000093,
      "d": 769.2309999999998,
      "v": 100
    },
    {
      "midi": 65,
      "hit": false,
      "t": 110000.03300000093,
      "d": 769.2309999999998,
      "v": 100
    },
    {
      "midi": 68,
      "hit": false,
      "t": 110000.03300000093,
      "d": 769.2309999999998,
      "v": 100
    },
    {
      "midi": 69,
      "hit": false,
      "t": 110769.26400000093,
      "d": 384.6154999999999,
      "v": 100
    },
    {
      "midi": 62,
      "hit": false,
      "t": 110769.26400000093,
      "d": 384.6154999999999,
      "v": 100
    },
    {
      "midi": 65,
      "hit": false,
      "t": 110769.26400000093,
      "d": 384.6154999999999,
      "v": 100
    },
    {
      "midi": 42,
      "hit": false,
      "t": 110769.26400000093,
      "d": 576.9232500000071,
      "v": 100
    },
    {
      "midi": 69,
      "hit": false,
      "t": 111153.87950000093,
      "d": 384.61550000001444,
      "v": 100
    },
    {
      "midi": 65,
      "hit": false,
      "t": 111153.87950000093,
      "d": 384.61550000001444,
      "v": 100
    },
    {
      "midi": 62,
      "hit": false,
      "t": 111153.87950000093,
      "d": 384.61550000001444,
      "v": 100
    },
    {
      "midi": 50,
      "hit": false,
      "t": 111346.18725000093,
      "d": 192.30775000000722,
      "v": 100
    },
    {
      "midi": 70,
      "hit": false,
      "t": 111538.49500000094,
      "d": 384.6154999999999,
      "v": 100
    },
    {
      "midi": 65,
      "hit": false,
      "t": 111538.49500000094,
      "d": 384.6154999999999,
      "v": 100
    },
    {
      "midi": 62,
      "hit": false,
      "t": 111538.49500000094,
      "d": 384.6154999999999,
      "v": 100
    },
    {
      "midi": 70,
      "hit": false,
      "t": 111923.11050000094,
      "d": 384.6154999999999,
      "v": 100
    },
    {
      "midi": 62,
      "hit": false,
      "t": 111923.11050000094,
      "d": 384.6154999999999,
      "v": 100
    },
    {
      "midi": 65,
      "hit": false,
      "t": 111923.11050000094,
      "d": 384.6154999999999,
      "v": 100
    },
    {
      "midi": 57,
      "hit": false,
      "t": 111923.11050000094,
      "d": 769.2309999999998,
      "v": 100
    },
    {
      "midi": 72,
      "hit": false,
      "t": 112307.72600000094,
      "d": 384.6154999999999,
      "v": 100
    },
    {
      "midi": 62,
      "hit": false,
      "t": 112307.72600000094,
      "d": 384.6154999999999,
      "v": 100
    },
    {
      "midi": 65,
      "hit": false,
      "t": 112307.72600000094,
      "d": 384.6154999999999,
      "v": 100
    },
    {
      "midi": 72,
      "hit": false,
      "t": 112692.34150000094,
      "d": 384.6154999999999,
      "v": 100
    },
    {
      "midi": 62,
      "hit": false,
      "t": 112692.34150000094,
      "d": 384.6154999999999,
      "v": 100
    },
    {
      "midi": 65,
      "hit": false,
      "t": 112692.34150000094,
      "d": 384.6154999999999,
      "v": 100
    },
    {
      "midi": 55,
      "hit": false,
      "t": 112692.34150000094,
      "d": 1153.8464999999997,
      "v": 100
    },
    {
      "midi": 69,
      "hit": false,
      "t": 113076.95700000094,
      "d": 769.2309999999998,
      "v": 100
    },
    {
      "midi": 62,
      "hit": false,
      "t": 113076.95700000094,
      "d": 769.2309999999998,
      "v": 100
    },
    {
      "midi": 65,
      "hit": false,
      "t": 113076.95700000094,
      "d": 769.2309999999998,
      "v": 100
    },
    {
      "midi": 65,
      "hit": false,
      "t": 113846.18800000094,
      "d": 384.6154999999999,
      "v": 100
    },
    {
      "midi": 58,
      "hit": false,
      "t": 113846.18800000094,
      "d": 384.6154999999999,
      "v": 100
    },
    {
      "midi": 61,
      "hit": false,
      "t": 113846.18800000094,
      "d": 384.6154999999999,
      "v": 100
    },
    {
      "midi": 39,
      "hit": false,
      "t": 113846.18800000094,
      "d": 576.9232500000071,
      "v": 100
    },
    {
      "midi": 65,
      "hit": false,
      "t": 114230.80350000094,
      "d": 384.61550000001444,
      "v": 100
    },
    {
      "midi": 61,
      "hit": false,
      "t": 114230.80350000094,
      "d": 384.61550000001444,
      "v": 100
    },
    {
      "midi": 58,
      "hit": false,
      "t": 114230.80350000094,
      "d": 384.61550000001444,
      "v": 100
    },
    {
      "midi": 49,
      "hit": false,
      "t": 114423.11125000095,
      "d": 192.30775000000722,
      "v": 100
    },
    {
      "midi": 66,
      "hit": false,
      "t": 114615.41900000095,
      "d": 384.6154999999999,
      "v": 100
    },
    {
      "midi": 61,
      "hit": false,
      "t": 114615.41900000095,
      "d": 384.6154999999999,
      "v": 100
    },
    {
      "midi": 58,
      "hit": false,
      "t": 114615.41900000095,
      "d": 384.6154999999999,
      "v": 100
    },
    {
      "midi": 66,
      "hit": false,
      "t": 115000.03450000095,
      "d": 384.6154999999999,
      "v": 100
    },
    {
      "midi": 58,
      "hit": false,
      "t": 115000.03450000095,
      "d": 384.6154999999999,
      "v": 100
    },
    {
      "midi": 61,
      "hit": false,
      "t": 115000.03450000095,
      "d": 384.6154999999999,
      "v": 100
    },
    {
      "midi": 53,
      "hit": false,
      "t": 115000.03450000095,
      "d": 769.2309999999998,
      "v": 100
    },
    {
      "midi": 68,
      "hit": false,
      "t": 115384.65000000095,
      "d": 384.6154999999999,
      "v": 100
    },
    {
      "midi": 58,
      "hit": false,
      "t": 115384.65000000095,
      "d": 384.6154999999999,
      "v": 100
    },
    {
      "midi": 61,
      "hit": false,
      "t": 115384.65000000095,
      "d": 384.6154999999999,
      "v": 100
    },
    {
      "midi": 68,
      "hit": false,
      "t": 115769.26550000095,
      "d": 384.6154999999999,
      "v": 100
    },
    {
      "midi": 58,
      "hit": false,
      "t": 115769.26550000095,
      "d": 384.6154999999999,
      "v": 100
    },
    {
      "midi": 61,
      "hit": false,
      "t": 115769.26550000095,
      "d": 384.6154999999999,
      "v": 100
    },
    {
      "midi": 51,
      "hit": false,
      "t": 115769.26550000095,
      "d": 1153.8464999999997,
      "v": 100
    },
    {
      "midi": 65,
      "hit": false,
      "t": 116153.88100000095,
      "d": 769.2309999999998,
      "v": 100
    },
    {
      "midi": 58,
      "hit": false,
      "t": 116153.88100000095,
      "d": 769.2309999999998,
      "v": 100
    },
    {
      "midi": 61,
      "hit": false,
      "t": 116153.88100000095,
      "d": 769.2309999999998,
      "v": 100
    },
    {
      "midi": 67,
      "hit": false,
      "t": 116923.11200000095,
      "d": 384.6154999999999,
      "v": 100
    },
    {
      "midi": 60,
      "hit": false,
      "t": 116923.11200000095,
      "d": 384.6154999999999,
      "v": 100
    },
    {
      "midi": 63,
      "hit": false,
      "t": 116923.11200000095,
      "d": 384.6154999999999,
      "v": 100
    },
    {
      "midi": 41,
      "hit": false,
      "t": 116923.11200000095,
      "d": 576.9232500000071,
      "v": 100
    },
    {
      "midi": 67,
      "hit": false,
      "t": 117307.72750000095,
      "d": 384.61550000001444,
      "v": 100
    },
    {
      "midi": 63,
      "hit": false,
      "t": 117307.72750000095,
      "d": 384.61550000001444,
      "v": 100
    },
    {
      "midi": 60,
      "hit": false,
      "t": 117307.72750000095,
      "d": 384.61550000001444,
      "v": 100
    },
    {
      "midi": 48,
      "hit": false,
      "t": 117500.03525000096,
      "d": 192.30775000000722,
      "v": 100
    },
    {
      "midi": 68,
      "hit": false,
      "t": 117692.34300000097,
      "d": 384.6154999999999,
      "v": 100
    },
    {
      "midi": 63,
      "hit": false,
      "t": 117692.34300000097,
      "d": 384.6154999999999,
      "v": 100
    },
    {
      "midi": 60,
      "hit": false,
      "t": 117692.34300000097,
      "d": 384.6154999999999,
      "v": 100
    },
    {
      "midi": 68,
      "hit": false,
      "t": 118076.95850000097,
      "d": 384.6154999999999,
      "v": 100
    },
    {
      "midi": 60,
      "hit": false,
      "t": 118076.95850000097,
      "d": 384.6154999999999,
      "v": 100
    },
    {
      "midi": 63,
      "hit": false,
      "t": 118076.95850000097,
      "d": 384.6154999999999,
      "v": 100
    },
    {
      "midi": 53,
      "hit": false,
      "t": 118076.95850000097,
      "d": 769.2309999999998,
      "v": 100
    },
    {
      "midi": 70,
      "hit": false,
      "t": 118461.57400000097,
      "d": 384.6154999999999,
      "v": 100
    },
    {
      "midi": 60,
      "hit": false,
      "t": 118461.57400000097,
      "d": 384.6154999999999,
      "v": 100
    },
    {
      "midi": 63,
      "hit": false,
      "t": 118461.57400000097,
      "d": 384.6154999999999,
      "v": 100
    },
    {
      "midi": 48,
      "hit": false,
      "t": 118846.18950000097,
      "d": 384.6154999999999,
      "v": 100
    },
    {
      "midi": 60,
      "hit": false,
      "t": 118846.18950000097,
      "d": 384.6154999999999,
      "v": 100
    },
    {
      "midi": 63,
      "hit": false,
      "t": 118846.18950000097,
      "d": 384.6154999999999,
      "v": 100
    },
    {
      "midi": 70,
      "hit": false,
      "t": 118846.18950000097,
      "d": 384.6154999999999,
      "v": 100
    },
    {
      "midi": 41,
      "hit": false,
      "t": 119230.80500000097,
      "d": 769.2309999999998,
      "v": 100
    },
    {
      "midi": 63,
      "hit": false,
      "t": 119230.80500000097,
      "d": 769.2309999999998,
      "v": 100
    },
    {
      "midi": 70,
      "hit": false,
      "t": 119230.80500000097,
      "d": 769.2309999999998,
      "v": 100
    },
    {
      "midi": 67,
      "hit": false,
      "t": 119230.80500000097,
      "d": 769.2309999999998,
      "v": 100
    },
    {
      "midi": 37,
      "hit": false,
      "t": 120000.03600000097,
      "d": 576.9232500000071,
      "v": 100
    },
    {
      "midi": 67,
      "hit": false,
      "t": 120000.03600000097,
      "d": 1153.8465000000142,
      "v": 100
    },
    {
      "midi": 63,
      "hit": false,
      "t": 120000.03600000097,
      "d": 1153.8465000000142,
      "v": 100
    },
    {
      "midi": 58,
      "hit": false,
      "t": 120000.03600000097,
      "d": 1153.8465000000142,
      "v": 100
    },
    {
      "midi": 44,
      "hit": false,
      "t": 120576.95925000097,
      "d": 576.9232500000071,
      "v": 100
    },
    {
      "midi": 51,
      "hit": false,
      "t": 121153.88250000098,
      "d": 384.6154999999999,
      "v": 100
    },
    {
      "midi": 68,
      "hit": false,
      "t": 121153.88250000098,
      "d": 384.6154999999999,
      "v": 100
    },
    {
      "midi": 49,
      "hit": false,
      "t": 121538.49800000098,
      "d": 769.2309999999998,
      "v": 100
    },
    {
      "midi": 56,
      "hit": false,
      "t": 121538.49800000098,
      "d": 769.2309999999998,
      "v": 100
    },
    {
      "midi": 61,
      "hit": false,
      "t": 121538.49800000098,
      "d": 769.2309999999998,
      "v": 100
    },
    {
      "midi": 65,
      "hit": false,
      "t": 121538.49800000098,
      "d": 769.2309999999998,
      "v": 100
    },
    {
      "midi": 48,
      "hit": false,
      "t": 122307.72900000098,
      "d": 769.2309999999998,
      "v": 100
    },
    {
      "midi": 58,
      "hit": false,
      "t": 122307.72900000098,
      "d": 769.2309999999998,
      "v": 100
    },
    {
      "midi": 60,
      "hit": false,
      "t": 122307.72900000098,
      "d": 769.2309999999998,
      "v": 100
    },
    {
      "midi": 65,
      "hit": false,
      "t": 122307.72900000098,
      "d": 769.2309999999998,
      "v": 100
    },
    {
      "midi": 41,
      "hit": false,
      "t": 123076.96000000098,
      "d": 576.9232500000071,
      "v": 100
    },
    {
      "midi": 60,
      "hit": false,
      "t": 123076.96000000098,
      "d": 1538.462000000014,
      "v": 100
    },
    {
      "midi": 58,
      "hit": false,
      "t": 123076.96000000098,
      "d": 1538.462000000014,
      "v": 100
    },
    {
      "midi": 65,
      "hit": false,
      "t": 123076.96000000098,
      "d": 1538.462000000014,
      "v": 100
    },
    {
      "midi": 48,
      "hit": false,
      "t": 123653.88325000099,
      "d": 576.9232500000071,
      "v": 100
    },
    {
      "midi": 53,
      "hit": false,
      "t": 124230.806500001,
      "d": 384.6154999999999,
      "v": 100
    },
    {
      "midi": 41,
      "hit": false,
      "t": 124615.422000001,
      "d": 1538.4619999999995,
      "v": 100
    },
    {
      "midi": 68,
      "hit": false,
      "t": 124615.422000001,
      "d": 1538.4619999999995,
      "v": 100
    },
    {
      "midi": 72,
      "hit": false,
      "t": 124615.422000001,
      "d": 1538.4619999999995,
      "v": 100
    },
    {
      "midi": 77,
      "hit": false,
      "t": 124615.422000001,
      "d": 1538.4619999999995,
      "v": 100
    }
  ]
}