{
  "jsonPath": "Rock/Medieval Rock/Eisregen/einklang-demo-96.json",
  "path": "Rock\\Medieval Rock\\Eisregen\\Einklang (Demo 96).mid",
  "name": "Einklang (Demo 96)",
  "difficulty": "Advanced",
  "bpm": 113.0028627391894,
  "notes": [
    {
      "midi": 71,
      "hit": false,
      "t": 9067.801249999997,
      "d": 553.0833333333321,
      "v": 75
    },
    {
      "midi": 59,
      "hit": false,
      "t": 9081.62833333333,
      "d": 519.8983333333326,
      "v": 58
    },
    {
      "midi": 52,
      "hit": false,
      "t": 9609.822916666662,
      "d": 3160.871250000002,
      "v": 80
    },
    {
      "midi": 55,
      "hit": false,
      "t": 9844.88333333333,
      "d": 2887.095000000001,
      "v": 62
    },
    {
      "midi": 59,
      "hit": false,
      "t": 10104.832499999997,
      "d": 2972.822916666668,
      "v": 80
    },
    {
      "midi": 64,
      "hit": false,
      "t": 10339.892916666664,
      "d": 2729.4662500000013,
      "v": 75
    },
    {
      "midi": 78,
      "hit": false,
      "t": 10572.187916666664,
      "d": 497.77499999999964,
      "v": 104
    },
    {
      "midi": 76,
      "hit": false,
      "t": 11047.83958333333,
      "d": 1637.126666666667,
      "v": 80
    },
    {
      "midi": 78,
      "hit": false,
      "t": 12817.706249999997,
      "d": 235.06041666666715,
      "v": 104
    },
    {
      "midi": 73,
      "hit": false,
      "t": 12823.237083333332,
      "d": 246.12208333333365,
      "v": 88
    },
    {
      "midi": 78,
      "hit": false,
      "t": 13080.420833333332,
      "d": 223.99874999999884,
      "v": 88
    },
    {
      "midi": 54,
      "hit": false,
      "t": 13083.186249999999,
      "d": 254.41833333333125,
      "v": 71
    },
    {
      "midi": 81,
      "hit": false,
      "t": 13102.544166666665,
      "d": 221.23333333333176,
      "v": 81
    },
    {
      "midi": 78,
      "hit": false,
      "t": 13351.431666666664,
      "d": 898.7604166666679,
      "v": 90
    },
    {
      "midi": 74,
      "hit": false,
      "t": 13362.49333333333,
      "d": 884.9333333333343,
      "v": 81
    },
    {
      "midi": 83,
      "hit": false,
      "t": 13365.258749999997,
      "d": 884.9333333333343,
      "v": 85
    },
    {
      "midi": 59,
      "hit": false,
      "t": 13370.789583333331,
      "d": 1518.2137500000008,
      "v": 74
    },
    {
      "midi": 78,
      "hit": false,
      "t": 14349.747083333332,
      "d": 2251.049166666671,
      "v": 80
    },
    {
      "midi": 81,
      "hit": false,
      "t": 14355.277916666666,
      "d": 2137.6670833333337,
      "v": 72
    },
    {
      "midi": 73,
      "hit": false,
      "t": 14363.574166666665,
      "d": 2190.2100000000028,
      "v": 77
    },
    {
      "midi": 54,
      "hit": false,
      "t": 14869.645416666666,
      "d": 2309.122916666671,
      "v": 77
    },
    {
      "midi": 76,
      "hit": false,
      "t": 16733.536250000005,
      "d": 223.99874999999884,
      "v": 82
    },
    {
      "midi": 73,
      "hit": false,
      "t": 16733.536250000005,
      "d": 237.8258333333324,
      "v": 77
    },
    {
      "midi": 73,
      "hit": false,
      "t": 16987.954583333336,
      "d": 129.9745833333327,
      "v": 32
    },
    {
      "midi": 78,
      "hit": false,
      "t": 16990.72,
      "d": 127.20916666666744,
      "v": 90
    },
    {
      "midi": 78,
      "hit": false,
      "t": 17256.200000000004,
      "d": 777.0820833333346,
      "v": 82
    },
    {
      "midi": 71,
      "hit": false,
      "t": 17256.200000000004,
      "d": 1205.7216666666682,
      "v": 96
    },
    {
      "midi": 52,
      "hit": false,
      "t": 17256.200000000004,
      "d": 1921.964583333338,
      "v": 82
    },
    {
      "midi": 67,
      "hit": false,
      "t": 17256.200000000004,
      "d": 3810.7441666666673,
      "v": 82
    },
    {
      "midi": 76,
      "hit": false,
      "t": 18185.380000000005,
      "d": 1966.211250000004,
      "v": 80
    },
    {
      "midi": 71,
      "hit": false,
      "t": 18716.340000000007,
      "d": 1219.5487500000017,
      "v": 71
    },
    {
      "midi": 50,
      "hit": false,
      "t": 19247.30000000001,
      "d": 1941.3224999999948,
      "v": 62
    },
    {
      "midi": 71,
      "hit": false,
      "t": 20176.480000000007,
      "d": 943.0070833333302,
      "v": 80
    },
    {
      "midi": 73,
      "hit": false,
      "t": 20441.960000000006,
      "d": 196.34458333333168,
      "v": 77
    },
    {
      "midi": 74,
      "hit": false,
      "t": 20707.440000000006,
      "d": 447.9974999999977,
      "v": 69
    },
    {
      "midi": 49,
      "hit": false,
      "t": 21210.745833333338,
      "d": 4983.280833333334,
      "v": 80
    },
    {
      "midi": 71,
      "hit": false,
      "t": 21216.276666666672,
      "d": 1014.9079166666634,
      "v": 62
    },
    {
      "midi": 76,
      "hit": false,
      "t": 21219.042083333337,
      "d": 1816.8787499999999,
      "v": 69
    },
    {
      "midi": 67,
      "hit": false,
      "t": 21221.807500000003,
      "d": 1020.4387500000012,
      "v": 68
    },
    {
      "midi": 64,
      "hit": false,
      "t": 22228.41916666667,
      "d": 564.1450000000004,
      "v": 46
    },
    {
      "midi": 67,
      "hit": false,
      "t": 22502.19541666667,
      "d": 652.638333333336,
      "v": 62
    },
    {
      "midi": 71,
      "hit": false,
      "t": 22778.737083333337,
      "d": 658.1691666666702,
      "v": 66
    },
    {
      "midi": 73,
      "hit": false,
      "t": 23071.871250000004,
      "d": 353.9733333333352,
      "v": 54
    },
    {
      "midi": 76,
      "hit": false,
      "t": 23395.425000000007,
      "d": 481.182499999999,
      "v": 44
    },
    {
      "midi": 79,
      "hit": false,
      "t": 24717.294166666674,
      "d": 132.7400000000016,
      "v": 38
    },
    {
      "midi": 83,
      "hit": false,
      "t": 25544.15375000001,
      "d": 110.61666666666497,
      "v": 32
    },
    {
      "midi": 54,
      "hit": false,
      "t": 27504.83416666667,
      "d": 6357.692916666663,
      "v": 34
    },
    {
      "midi": 78,
      "hit": false,
      "t": 27507.599583333336,
      "d": 6321.7425,
      "v": 30
    },
    {
      "midi": 73,
      "hit": false,
      "t": 27510.365,
      "d": 6299.619166666667,
      "v": 32
    },
    {
      "midi": 82,
      "hit": false,
      "t": 27515.895833333336,
      "d": 6313.446250000001,
      "v": 36
    }
  ]
}