{
  "jsonPath": "Soundtracks/Classic Soundtrack/Gabriel Yared/the-english-patient-bach-aria-from-goldberg-variations.json",
  "path": "Soundtracks\\Classic Soundtrack\\Gabriel Yared\\The English Patient - Bach Aria From Goldberg Variations.mid",
  "name": "The English Patient - Bach Aria From Goldberg Variations",
  "difficulty": "Advanced",
  "bpm": 120,
  "notes": [
    {
      "midi": 79,
      "hit": false,
      "t": 5.208333333333333,
      "d": 421.875,
      "v": 59
    },
    {
      "midi": 55,
      "hit": false,
      "t": 15.625,
      "d": 3265.625,
      "v": 27
    },
    {
      "midi": 79,
      "hit": false,
      "t": 979.1666666666667,
      "d": 947.9166666666667,
      "v": 66
    },
    {
      "midi": 59,
      "hit": false,
      "t": 1005.2083333333334,
      "d": 1229.1666666666665,
      "v": 25
    },
    {
      "midi": 81,
      "hit": false,
      "t": 1927.0833333333335,
      "d": 109.375,
      "v": 59
    },
    {
      "midi": 62,
      "hit": false,
      "t": 1984.3750000000002,
      "d": 1640.6250000000002,
      "v": 27
    },
    {
      "midi": 79,
      "hit": false,
      "t": 2067.7083333333335,
      "d": 166.66666666666652,
      "v": 55
    },
    {
      "midi": 81,
      "hit": false,
      "t": 2223.9583333333335,
      "d": 703.125,
      "v": 39
    },
    {
      "midi": 83,
      "hit": false,
      "t": 2927.0833333333335,
      "d": 406.25,
      "v": 46
    },
    {
      "midi": 81,
      "hit": false,
      "t": 3270.8333333333335,
      "d": 692.7083333333339,
      "v": 53
    },
    {
      "midi": 54,
      "hit": false,
      "t": 3286.4583333333335,
      "d": 3536.4583333333335,
      "v": 37
    },
    {
      "midi": 79,
      "hit": false,
      "t": 3880.208333333334,
      "d": 333.33333333333303,
      "v": 65
    },
    {
      "midi": 78,
      "hit": false,
      "t": 4161.458333333334,
      "d": 364.58333333333303,
      "v": 61
    },
    {
      "midi": 76,
      "hit": false,
      "t": 4520.833333333334,
      "d": 625,
      "v": 54
    },
    {
      "midi": 57,
      "hit": false,
      "t": 4557.291666666667,
      "d": 1187.5,
      "v": 33
    },
    {
      "midi": 74,
      "hit": false,
      "t": 5104.166666666667,
      "d": 1317.708333333333,
      "v": 31
    },
    {
      "midi": 62,
      "hit": false,
      "t": 5817.708333333334,
      "d": 2473.958333333332,
      "v": 12
    },
    {
      "midi": 67,
      "hit": false,
      "t": 6921.875,
      "d": 192.70833333333394,
      "v": 30
    },
    {
      "midi": 52,
      "hit": false,
      "t": 6963.541666666667,
      "d": 3286.4583333333276,
      "v": 35
    },
    {
      "midi": 66,
      "hit": false,
      "t": 7114.583333333334,
      "d": 234.375,
      "v": 52
    },
    {
      "midi": 67,
      "hit": false,
      "t": 7333.333333333334,
      "d": 692.708333333333,
      "v": 44
    },
    {
      "midi": 69,
      "hit": false,
      "t": 8026.041666666667,
      "d": 171.8749999999991,
      "v": 50
    },
    {
      "midi": 55,
      "hit": false,
      "t": 8062.5,
      "d": 1171.8749999999982,
      "v": 32
    },
    {
      "midi": 67,
      "hit": false,
      "t": 8208.333333333332,
      "d": 83.33333333333394,
      "v": 65
    },
    {
      "midi": 66,
      "hit": false,
      "t": 8348.958333333332,
      "d": 140.625,
      "v": 50
    },
    {
      "midi": 67,
      "hit": false,
      "t": 8479.166666666666,
      "d": 192.70833333333212,
      "v": 59
    },
    {
      "midi": 69,
      "hit": false,
      "t": 8703.124999999998,
      "d": 88.54166666666606,
      "v": 48
    },
    {
      "midi": 67,
      "hit": false,
      "t": 8838.541666666664,
      "d": 62.5,
      "v": 28
    },
    {
      "midi": 69,
      "hit": false,
      "t": 8958.33333333333,
      "d": 62.5,
      "v": 48
    },
    {
      "midi": 67,
      "hit": false,
      "t": 9057.291666666664,
      "d": 78.125,
      "v": 43
    },
    {
      "midi": 69,
      "hit": false,
      "t": 9114.58333333333,
      "d": 83.33333333333394,
      "v": 69
    },
    {
      "midi": 61,
      "hit": false,
      "t": 9114.58333333333,
      "d": 1192.7083333333321,
      "v": 33
    },
    {
      "midi": 67,
      "hit": false,
      "t": 9218.749999999998,
      "d": 57.29166666666606,
      "v": 18
    },
    {
      "midi": 69,
      "hit": false,
      "t": 9307.291666666664,
      "d": 46.875,
      "v": 55
    },
    {
      "midi": 67,
      "hit": false,
      "t": 9364.58333333333,
      "d": 62.5,
      "v": 68
    },
    {
      "midi": 69,
      "hit": false,
      "t": 9442.70833333333,
      "d": 88.54166666666606,
      "v": 61
    },
    {
      "midi": 67,
      "hit": false,
      "t": 9541.666666666662,
      "d": 135.41666666666606,
      "v": 63
    },
    {
      "midi": 66,
      "hit": false,
      "t": 9677.083333333328,
      "d": 302.0833333333321,
      "v": 53
    },
    {
      "midi": 67,
      "hit": false,
      "t": 9968.749999999995,
      "d": 296.875,
      "v": 53
    },
    {
      "midi": 69,
      "hit": false,
      "t": 10302.083333333328,
      "d": 125,
      "v": 45
    },
    {
      "midi": 50,
      "hit": false,
      "t": 10333.333333333328,
      "d": 3239.5833333333358,
      "v": 32
    },
    {
      "midi": 67,
      "hit": false,
      "t": 10468.749999999995,
      "d": 119.79166666666788,
      "v": 37
    },
    {
      "midi": 66,
      "hit": false,
      "t": 10604.166666666662,
      "d": 322.9166666666679,
      "v": 55
    },
    {
      "midi": 67,
      "hit": false,
      "t": 10958.33333333333,
      "d": 145.83333333333394,
      "v": 56
    },
    {
      "midi": 66,
      "hit": false,
      "t": 11098.95833333333,
      "d": 166.66666666666788,
      "v": 61
    },
    {
      "midi": 64,
      "hit": false,
      "t": 11265.624999999998,
      "d": 250,
      "v": 63
    },
    {
      "midi": 64,
      "hit": false,
      "t": 11624.999999999998,
      "d": 614.5833333333339,
      "v": 45
    },
    {
      "midi": 54,
      "hit": false,
      "t": 11703.124999999998,
      "d": 1343.75,
      "v": 25
    },
    {
      "midi": 62,
      "hit": false,
      "t": 12255.208333333332,
      "d": 1604.1666666666642,
      "v": 41
    },
    {
      "midi": 57,
      "hit": false,
      "t": 12885.416666666664,
      "d": 1406.2499999999982,
      "v": 30
    },
    {
      "midi": 48,
      "hit": false,
      "t": 13583.33333333333,
      "d": 677.0833333333321,
      "v": 45
    },
    {
      "midi": 74,
      "hit": false,
      "t": 14229.166666666662,
      "d": 760.4166666666679,
      "v": 80
    },
    {
      "midi": 47,
      "hit": false,
      "t": 14249.999999999996,
      "d": 3031.25,
      "v": 31
    },
    {
      "midi": 74,
      "hit": false,
      "t": 15354.166666666664,
      "d": 937.5,
      "v": 82
    },
    {
      "midi": 50,
      "hit": false,
      "t": 15401.041666666664,
      "d": 1218.75,
      "v": 30
    },
    {
      "midi": 76,
      "hit": false,
      "t": 16333.33333333333,
      "d": 130.20833333333394,
      "v": 57
    },
    {
      "midi": 55,
      "hit": false,
      "t": 16380.20833333333,
      "d": 1723.9583333333376,
      "v": 26
    },
    {
      "midi": 74,
      "hit": false,
      "t": 16479.166666666664,
      "d": 135.41666666666788,
      "v": 66
    },
    {
      "midi": 76,
      "hit": false,
      "t": 16598.958333333332,
      "d": 822.9166666666642,
      "v": 54
    },
    {
      "midi": 77,
      "hit": false,
      "t": 17374.999999999996,
      "d": 390.62500000000364,
      "v": 63
    },
    {
      "midi": 76,
      "hit": false,
      "t": 17697.916666666664,
      "d": 656.25,
      "v": 70
    },
    {
      "midi": 48,
      "hit": false,
      "t": 17723.958333333332,
      "d": 3072.916666666668,
      "v": 36
    },
    {
      "midi": 74,
      "hit": false,
      "t": 18255.208333333332,
      "d": 296.875,
      "v": 44
    },
    {
      "midi": 72,
      "hit": false,
      "t": 18552.083333333332,
      "d": 213.54166666666788,
      "v": 45
    },
    {
      "midi": 71,
      "hit": false,
      "t": 18895.833333333332,
      "d": 583.3333333333321,
      "v": 42
    },
    {
      "midi": 52,
      "hit": false,
      "t": 18927.083333333332,
      "d": 1125,
      "v": 31
    },
    {
      "midi": 69,
      "hit": false,
      "t": 19473.958333333332,
      "d": 1338.5416666666679,
      "v": 36
    },
    {
      "midi": 57,
      "hit": false,
      "t": 20083.333333333332,
      "d": 1666.6666666666715,
      "v": 32
    },
    {
      "midi": 79,
      "hit": false,
      "t": 20765.625,
      "d": 197.91666666666788,
      "v": 59
    },
    {
      "midi": 50,
      "hit": false,
      "t": 20765.625,
      "d": 630.2083333333358,
      "v": 41
    },
    {
      "midi": 78,
      "hit": false,
      "t": 20937.5,
      "d": 125,
      "v": 69
    },
    {
      "midi": 76,
      "hit": false,
      "t": 21057.291666666668,
      "d": 182.29166666666788,
      "v": 92
    },
    {
      "midi": 78,
      "hit": false,
      "t": 21197.916666666668,
      "d": 197.91666666666788,
      "v": 91
    },
    {
      "midi": 79,
      "hit": false,
      "t": 21375.000000000004,
      "d": 203.125,
      "v": 91
    },
    {
      "midi": 52,
      "hit": false,
      "t": 21390.625000000004,
      "d": 651.0416666666679,
      "v": 50
    },
    {
      "midi": 78,
      "hit": false,
      "t": 21526.04166666667,
      "d": 276.04166666666424,
      "v": 78
    },
    {
      "midi": 81,
      "hit": false,
      "t": 21947.916666666668,
      "d": 333.33333333333576,
      "v": 75
    },
    {
      "midi": 60,
      "hit": false,
      "t": 21958.333333333336,
      "d": 1109.375,
      "v": 44
    },
    {
      "midi": 48,
      "hit": false,
      "t": 22015.625000000004,
      "d": 677.0833333333321,
      "v": 31
    },
    {
      "midi": 79,
      "hit": false,
      "t": 22192.708333333336,
      "d": 270.83333333333576,
      "v": 70
    },
    {
      "midi": 78,
      "hit": false,
      "t": 22593.750000000004,
      "d": 265.625,
      "v": 64
    },
    {
      "midi": 50,
      "hit": false,
      "t": 22609.375000000004,
      "d": 2656.2499999999964,
      "v": 41
    },
    {
      "midi": 76,
      "hit": false,
      "t": 22833.333333333336,
      "d": 578.125,
      "v": 68
    },
    {
      "midi": 74,
      "hit": false,
      "t": 23307.291666666668,
      "d": 307.2916666666715,
      "v": 67
    },
    {
      "midi": 59,
      "hit": false,
      "t": 23338.541666666668,
      "d": 312.50000000000364,
      "v": 39
    },
    {
      "midi": 72,
      "hit": false,
      "t": 23572.91666666667,
      "d": 124.99999999999636,
      "v": 81
    },
    {
      "midi": 57,
      "hit": false,
      "t": 23656.250000000004,
      "d": 369.7916666666679,
      "v": 51
    },
    {
      "midi": 72,
      "hit": false,
      "t": 23833.333333333336,
      "d": 406.25,
      "v": 45
    },
    {
      "midi": 81,
      "hit": false,
      "t": 24041.66666666667,
      "d": 1072.9166666666642,
      "v": 75
    },
    {
      "midi": 55,
      "hit": false,
      "t": 24062.500000000004,
      "d": 348.9583333333321,
      "v": 45
    },
    {
      "midi": 54,
      "hit": false,
      "t": 24395.833333333336,
      "d": 338.5416666666679,
      "v": 42
    },
    {
      "midi": 52,
      "hit": false,
      "t": 24760.41666666667,
      "d": 291.66666666666424,
      "v": 52
    },
    {
      "midi": 72,
      "hit": false,
      "t": 25119.791666666668,
      "d": 218.75,
      "v": 69
    },
    {
      "midi": 54,
      "hit": false,
      "t": 25135.416666666668,
      "d": 156.25,
      "v": 34
    },
    {
      "midi": 71,
      "hit": false,
      "t": 25583.333333333336,
      "d": 270.8333333333321,
      "v": 44
    },
    {
      "midi": 55,
      "hit": false,
      "t": 25619.791666666668,
      "d": 546.875,
      "v": 23
    },
    {
      "midi": 43,
      "hit": false,
      "t": 25619.791666666668,
      "d": 2661.4583333333358,
      "v": 27
    },
    {
      "midi": 67,
      "hit": false,
      "t": 25848.958333333336,
      "d": 619.7916666666679,
      "v": 49
    },
    {
      "midi": 66,
      "hit": false,
      "t": 26427.083333333336,
      "d": 453.125,
      "v": 47
    },
    {
      "midi": 57,
      "hit": false,
      "t": 26468.750000000004,
      "d": 312.5,
      "v": 27
    },
    {
      "midi": 66,
      "hit": false,
      "t": 27135.416666666668,
      "d": 197.91666666666788,
      "v": 44
    },
    {
      "midi": 59,
      "hit": false,
      "t": 27182.291666666668,
      "d": 3567.7083333333358,
      "v": 25
    },
    {
      "midi": 67,
      "hit": false,
      "t": 27359.375000000004,
      "d": 78.125,
      "v": 52
    },
    {
      "midi": 66,
      "hit": false,
      "t": 27453.125000000004,
      "d": 93.75,
      "v": 32
    },
    {
      "midi": 67,
      "hit": false,
      "t": 27567.708333333336,
      "d": 2557.291666666668,
      "v": 44
    },
    {
      "midi": 50,
      "hit": false,
      "t": 28213.54166666667,
      "d": 494.79166666666424,
      "v": 47
    },
    {
      "midi": 52,
      "hit": false,
      "t": 28848.958333333336,
      "d": 57.29166666666788,
      "v": 41
    },
    {
      "midi": 50,
      "hit": false,
      "t": 28911.458333333336,
      "d": 67.70833333333212,
      "v": 57
    },
    {
      "midi": 52,
      "hit": false,
      "t": 29000,
      "d": 1083.3333333333358,
      "v": 61
    },
    {
      "midi": 54,
      "hit": false,
      "t": 30083.333333333336,
      "d": 557.2916666666679,
      "v": 48
    },
    {
      "midi": 71,
      "hit": false,
      "t": 30526.04166666667,
      "d": 880.2083333333321,
      "v": 55
    },
    {
      "midi": 55,
      "hit": false,
      "t": 30578.125000000004,
      "d": 4968.750000000004,
      "v": 34
    },
    {
      "midi": 71,
      "hit": false,
      "t": 31869.79166666667,
      "d": 1125,
      "v": 50
    },
    {
      "midi": 59,
      "hit": false,
      "t": 31911.45833333334,
      "d": 1302.0833333333394,
      "v": 26
    },
    {
      "midi": 73,
      "hit": false,
      "t": 33062.50000000001,
      "d": 125,
      "v": 52
    },
    {
      "midi": 64,
      "hit": false,
      "t": 33125.00000000001,
      "d": 1526.0416666666642,
      "v": 36
    },
    {
      "midi": 71,
      "hit": false,
      "t": 33208.33333333334,
      "d": 177.08333333333576,
      "v": 49
    },
    {
      "midi": 73,
      "hit": false,
      "t": 33348.95833333334,
      "d": 848.9583333333285,
      "v": 65
    },
    {
      "midi": 74,
      "hit": false,
      "t": 34197.91666666667,
      "d": 130.20833333333576,
      "v": 63
    },
    {
      "midi": 74,
      "hit": false,
      "t": 34515.62500000001,
      "d": 442.7083333333285,
      "v": 63
    },
    {
      "midi": 57,
      "hit": false,
      "t": 34562.50000000001,
      "d": 1598.9583333333285,
      "v": 31
    },
    {
      "midi": 73,
      "hit": false,
      "t": 34895.833333333336,
      "d": 364.58333333333576,
      "v": 56
    },
    {
      "midi": 71,
      "hit": false,
      "t": 35223.958333333336,
      "d": 317.70833333333576,
      "v": 47
    },
    {
      "midi": 69,
      "hit": false,
      "t": 35541.66666666667,
      "d": 2427.0833333333358,
      "v": 48
    },
    {
      "midi": 54,
      "hit": false,
      "t": 35885.41666666667,
      "d": 67.70833333333576,
      "v": 20
    },
    {
      "midi": 74,
      "hit": false,
      "t": 35890.62500000001,
      "d": 2328.1250000000073,
      "v": 53
    },
    {
      "midi": 55,
      "hit": false,
      "t": 35979.16666666667,
      "d": 57.29166666666424,
      "v": 51
    },
    {
      "midi": 54,
      "hit": false,
      "t": 36041.66666666667,
      "d": 62.5,
      "v": 52
    },
    {
      "midi": 55,
      "hit": false,
      "t": 36130.208333333336,
      "d": 166.66666666666424,
      "v": 33
    },
    {
      "midi": 54,
      "hit": false,
      "t": 36156.25,
      "d": 505.20833333333576,
      "v": 42
    },
    {
      "midi": 52,
      "hit": false,
      "t": 36614.583333333336,
      "d": 640.6250000000073,
      "v": 50
    },
    {
      "midi": 54,
      "hit": false,
      "t": 37203.12500000001,
      "d": 614.5833333333285,
      "v": 41
    },
    {
      "midi": 59,
      "hit": false,
      "t": 37822.91666666667,
      "d": 625.0000000000073,
      "v": 38
    },
    {
      "midi": 67,
      "hit": false,
      "t": 38197.91666666668,
      "d": 807.2916666666715,
      "v": 49
    },
    {
      "midi": 71,
      "hit": false,
      "t": 38307.29166666668,
      "d": 802.083333333343,
      "v": 50
    },
    {
      "midi": 76,
      "hit": false,
      "t": 38432.29166666668,
      "d": 770.833333333343,
      "v": 68
    },
    {
      "midi": 52,
      "hit": false,
      "t": 38562.500000000015,
      "d": 1755.2083333333358,
      "v": 46
    },
    {
      "midi": 79,
      "hit": false,
      "t": 38645.83333333335,
      "d": 697.9166666666715,
      "v": 83
    },
    {
      "midi": 59,
      "hit": false,
      "t": 39312.50000000002,
      "d": 687.5000000000073,
      "v": 46
    },
    {
      "midi": 81,
      "hit": false,
      "t": 39776.041666666686,
      "d": 52.08333333333576,
      "v": 43
    },
    {
      "midi": 79,
      "hit": false,
      "t": 39833.33333333336,
      "d": 41.66666666666424,
      "v": 73
    },
    {
      "midi": 78,
      "hit": false,
      "t": 39911.45833333336,
      "d": 88.54166666667152,
      "v": 55
    },
    {
      "midi": 64,
      "hit": false,
      "t": 39963.54166666669,
      "d": 1666.6666666666715,
      "v": 63
    },
    {
      "midi": 79,
      "hit": false,
      "t": 40010.41666666669,
      "d": 239.58333333332848,
      "v": 55
    },
    {
      "midi": 81,
      "hit": false,
      "t": 40276.041666666686,
      "d": 104.16666666666424,
      "v": 54
    },
    {
      "midi": 79,
      "hit": false,
      "t": 40432.291666666686,
      "d": 109.375,
      "v": 65
    },
    {
      "midi": 52,
      "hit": false,
      "t": 40572.916666666686,
      "d": 750.0000000000073,
      "v": 60
    },
    {
      "midi": 81,
      "hit": false,
      "t": 40593.75000000002,
      "d": 67.70833333333576,
      "v": 44
    },
    {
      "midi": 79,
      "hit": false,
      "t": 40687.50000000002,
      "d": 78.125,
      "v": 54
    },
    {
      "midi": 81,
      "hit": false,
      "t": 40781.25000000002,
      "d": 83.33333333333576,
      "v": 50
    },
    {
      "midi": 79,
      "hit": false,
      "t": 40875.00000000002,
      "d": 67.70833333333576,
      "v": 64
    },
    {
      "midi": 81,
      "hit": false,
      "t": 40958.33333333336,
      "d": 67.70833333333576,
      "v": 70
    },
    {
      "midi": 79,
      "hit": false,
      "t": 41062.50000000003,
      "d": 62.5,
      "v": 68
    },
    {
      "midi": 81,
      "hit": false,
      "t": 41161.458333333365,
      "d": 67.70833333332848,
      "v": 69
    },
    {
      "midi": 54,
      "hit": false,
      "t": 41187.50000000003,
      "d": 692.7083333333358,
      "v": 61
    },
    {
      "midi": 79,
      "hit": false,
      "t": 41276.04166666669,
      "d": 57.29166666666424,
      "v": 67
    },
    {
      "midi": 81,
      "hit": false,
      "t": 41354.16666666669,
      "d": 109.375,
      "v": 67
    },
    {
      "midi": 79,
      "hit": false,
      "t": 41479.16666666669,
      "d": 62.5,
      "v": 63
    },
    {
      "midi": 81,
      "hit": false,
      "t": 41562.50000000003,
      "d": 145.83333333333576,
      "v": 72
    },
    {
      "midi": 79,
      "hit": false,
      "t": 41713.5416666667,
      "d": 156.25,
      "v": 75
    },
    {
      "midi": 62,
      "hit": false,
      "t": 41848.958333333365,
      "d": 729.1666666666642,
      "v": 43
    },
    {
      "midi": 78,
      "hit": false,
      "t": 41859.37500000003,
      "d": 328.125,
      "v": 71
    },
    {
      "midi": 55,
      "hit": false,
      "t": 41864.583333333365,
      "d": 739.5833333333285,
      "v": 36
    },
    {
      "midi": 79,
      "hit": false,
      "t": 42161.458333333365,
      "d": 218.74999999999272,
      "v": 87
    },
    {
      "midi": 61,
      "hit": false,
      "t": 42552.08333333336,
      "d": 875.0000000000073,
      "v": 35
    },
    {
      "midi": 79,
      "hit": false,
      "t": 42557.29166666669,
      "d": 807.2916666666715,
      "v": 74
    },
    {
      "midi": 57,
      "hit": false,
      "t": 42562.50000000003,
      "d": 2182.291666666686,
      "v": 42
    },
    {
      "midi": 78,
      "hit": false,
      "t": 43286.458333333365,
      "d": 343.75,
      "v": 61
    },
    {
      "midi": 62,
      "hit": false,
      "t": 43328.12500000003,
      "d": 677.083333333343,
      "v": 33
    },
    {
      "midi": 76,
      "hit": false,
      "t": 43635.4166666667,
      "d": 166.66666666667152,
      "v": 59
    },
    {
      "midi": 74,
      "hit": false,
      "t": 43973.95833333337,
      "d": 171.875,
      "v": 57
    },
    {
      "midi": 64,
      "hit": false,
      "t": 44031.25000000004,
      "d": 2291.666666666679,
      "v": 40
    },
    {
      "midi": 73,
      "hit": false,
      "t": 44151.04166666671,
      "d": 156.25,
      "v": 52
    },
    {
      "midi": 71,
      "hit": false,
      "t": 44302.08333333337,
      "d": 171.87500000000728,
      "v": 49
    },
    {
      "midi": 73,
      "hit": false,
      "t": 44458.33333333338,
      "d": 1614.5833333333358,
      "v": 63
    },
    {
      "midi": 59,
      "hit": false,
      "t": 44744.791666666715,
      "d": 682.2916666666642,
      "v": 46
    },
    {
      "midi": 57,
      "hit": false,
      "t": 45416.666666666715,
      "d": 625,
      "v": 53
    },
    {
      "midi": 76,
      "hit": false,
      "t": 46041.666666666715,
      "d": 437.5,
      "v": 81
    },
    {
      "midi": 55,
      "hit": false,
      "t": 46078.12500000005,
      "d": 651.0416666666642,
      "v": 42
    },
    {
      "midi": 81,
      "hit": false,
      "t": 46697.916666666715,
      "d": 510.4166666666715,
      "v": 87
    },
    {
      "midi": 54,
      "hit": false,
      "t": 46750.00000000005,
      "d": 3468.7500000000146,
      "v": 38
    },
    {
      "midi": 79,
      "hit": false,
      "t": 47031.25000000005,
      "d": 364.58333333333576,
      "v": 89
    },
    {
      "midi": 78,
      "hit": false,
      "t": 47302.08333333339,
      "d": 437.5,
      "v": 86
    },
    {
      "midi": 76,
      "hit": false,
      "t": 47609.37500000005,
      "d": 401.0416666666715,
      "v": 89
    },
    {
      "midi": 57,
      "hit": false,
      "t": 47973.95833333339,
      "d": 1244.7916666666715,
      "v": 30
    },
    {
      "midi": 74,
      "hit": false,
      "t": 47989.58333333339,
      "d": 338.5416666666715,
      "v": 72
    },
    {
      "midi": 69,
      "hit": false,
      "t": 48671.87500000006,
      "d": 776.0416666666715,
      "v": 53
    },
    {
      "midi": 62,
      "hit": false,
      "t": 49218.75000000006,
      "d": 2520.8333333333503,
      "v": 27
    },
    {
      "midi": 71,
      "hit": false,
      "t": 49453.125000000065,
      "d": 130.20833333332848,
      "v": 47
    },
    {
      "midi": 72,
      "hit": false,
      "t": 49598.958333333394,
      "d": 619.7916666666715,
      "v": 58
    },
    {
      "midi": 71,
      "hit": false,
      "t": 50468.750000000065,
      "d": 437.5,
      "v": 39
    },
    {
      "midi": 55,
      "hit": false,
      "t": 50505.2083333334,
      "d": 3796.8750000000073,
      "v": 28
    },
    {
      "midi": 69,
      "hit": false,
      "t": 50859.375000000065,
      "d": 312.5,
      "v": 39
    },
    {
      "midi": 67,
      "hit": false,
      "t": 51171.875000000065,
      "d": 354.1666666666715,
      "v": 46
    },
    {
      "midi": 66,
      "hit": false,
      "t": 51505.2083333334,
      "d": 578.1250000000073,
      "v": 42
    },
    {
      "midi": 64,
      "hit": false,
      "t": 51973.95833333341,
      "d": 635.4166666666642,
      "v": 48
    },
    {
      "midi": 59,
      "hit": false,
      "t": 51994.791666666744,
      "d": 1473.9583333333285,
      "v": 20
    },
    {
      "midi": 74,
      "hit": false,
      "t": 52614.58333333341,
      "d": 406.25,
      "v": 57
    },
    {
      "midi": 73,
      "hit": false,
      "t": 52953.12500000007,
      "d": 1291.6666666666715,
      "v": 45
    },
    {
      "midi": 64,
      "hit": false,
      "t": 53380.20833333341,
      "d": 1338.5416666666715,
      "v": 39
    },
    {
      "midi": 74,
      "hit": false,
      "t": 54260.416666666744,
      "d": 156.25,
      "v": 36
    },
    {
      "midi": 76,
      "hit": false,
      "t": 54437.50000000008,
      "d": 609.375,
      "v": 65
    },
    {
      "midi": 66,
      "hit": false,
      "t": 54864.583333333416,
      "d": 1416.6666666666788,
      "v": 48
    },
    {
      "midi": 74,
      "hit": false,
      "t": 54875.00000000008,
      "d": 458.33333333333576,
      "v": 57
    },
    {
      "midi": 57,
      "hit": false,
      "t": 54927.083333333416,
      "d": 4364.583333333343,
      "v": 32
    },
    {
      "midi": 73,
      "hit": false,
      "t": 55260.41666666675,
      "d": 328.125,
      "v": 67
    },
    {
      "midi": 71,
      "hit": false,
      "t": 55562.50000000009,
      "d": 296.875,
      "v": 58
    },
    {
      "midi": 69,
      "hit": false,
      "t": 55843.75000000009,
      "d": 364.58333333333576,
      "v": 67
    },
    {
      "midi": 79,
      "hit": false,
      "t": 56213.54166666676,
      "d": 932.2916666666715,
      "v": 63
    },
    {
      "midi": 64,
      "hit": false,
      "t": 56302.08333333343,
      "d": 1151.0416666666642,
      "v": 35
    },
    {
      "midi": 71,
      "hit": false,
      "t": 57104.166666666766,
      "d": 1437.4999999999927,
      "v": 39
    },
    {
      "midi": 66,
      "hit": false,
      "t": 57427.08333333343,
      "d": 416.66666666666424,
      "v": 35
    },
    {
      "midi": 67,
      "hit": false,
      "t": 57843.750000000095,
      "d": 2968.75,
      "v": 49
    },
    {
      "midi": 73,
      "hit": false,
      "t": 58494.79166666676,
      "d": 458.33333333333576,
      "v": 55
    },
    {
      "midi": 73,
      "hit": false,
      "t": 59265.625000000095,
      "d": 432.29166666666424,
      "v": 42
    },
    {
      "midi": 50,
      "hit": false,
      "t": 59333.33333333342,
      "d": 4666.666666666679,
      "v": 35
    },
    {
      "midi": 74,
      "hit": false,
      "t": 59677.08333333342,
      "d": 807.2916666666715,
      "v": 41
    },
    {
      "midi": 76,
      "hit": false,
      "t": 60562.500000000095,
      "d": 156.25,
      "v": 39
    },
    {
      "midi": 74,
      "hit": false,
      "t": 60755.20833333343,
      "d": 135.41666666666424,
      "v": 36
    },
    {
      "midi": 73,
      "hit": false,
      "t": 60953.125000000095,
      "d": 78.125,
      "v": 40
    },
    {
      "midi": 73,
      "hit": false,
      "t": 61281.250000000095,
      "d": 796.8750000000073,
      "v": 37
    },
    {
      "midi": 66,
      "hit": false,
      "t": 61291.66666666676,
      "d": 2739.583333333343,
      "v": 22
    },
    {
      "midi": 74,
      "hit": false,
      "t": 62093.7500000001,
      "d": 1906.25,
      "v": 35
    },
    {
      "midi": 57,
      "hit": false,
      "t": 62125.0000000001,
      "d": 958.3333333333358,
      "v": 21
    },
    {
      "midi": 62,
      "hit": false,
      "t": 63031.2500000001,
      "d": 1072.9166666666642,
      "v": 17
    },
    {
      "midi": 69,
      "hit": false,
      "t": 65437.500000000095,
      "d": 140.62499999999272,
      "v": 40
    },
    {
      "midi": 62,
      "hit": false,
      "t": 65437.500000000095,
      "d": 2979.1666666666206,
      "v": 27
    },
    {
      "midi": 67,
      "hit": false,
      "t": 65588.54166666676,
      "d": 177.08333333331393,
      "v": 57
    },
    {
      "midi": 69,
      "hit": false,
      "t": 65744.79166666674,
      "d": 1036.4583333333285,
      "v": 49
    },
    {
      "midi": 64,
      "hit": false,
      "t": 66677.0833333334,
      "d": 614.5833333333285,
      "v": 42
    },
    {
      "midi": 71,
      "hit": false,
      "t": 67104.16666666674,
      "d": 72.91666666665697,
      "v": 31
    },
    {
      "midi": 66,
      "hit": false,
      "t": 67140.62500000007,
      "d": 2786.458333333314,
      "v": 35
    },
    {
      "midi": 69,
      "hit": false,
      "t": 67244.79166666673,
      "d": 57.29166666667152,
      "v": 42
    },
    {
      "midi": 67,
      "hit": false,
      "t": 67338.54166666673,
      "d": 78.125,
      "v": 54
    },
    {
      "midi": 69,
      "hit": false,
      "t": 67437.50000000006,
      "d": 427.0833333333285,
      "v": 56
    },
    {
      "midi": 71,
      "hit": false,
      "t": 67895.83333333339,
      "d": 57.29166666667152,
      "v": 20
    },
    {
      "midi": 69,
      "hit": false,
      "t": 67968.75000000006,
      "d": 62.5,
      "v": 68
    },
    {
      "midi": 71,
      "hit": false,
      "t": 68052.08333333339,
      "d": 62.5,
      "v": 48
    },
    {
      "midi": 69,
      "hit": false,
      "t": 68140.62500000006,
      "d": 52.08333333332848,
      "v": 57
    },
    {
      "midi": 71,
      "hit": false,
      "t": 68250.00000000006,
      "d": 52.08333333332848,
      "v": 32
    },
    {
      "midi": 69,
      "hit": false,
      "t": 68281.25000000006,
      "d": 62.5,
      "v": 72
    },
    {
      "midi": 71,
      "hit": false,
      "t": 68395.83333333339,
      "d": 52.08333333332848,
      "v": 27
    },
    {
      "midi": 60,
      "hit": false,
      "t": 68416.66666666672,
      "d": 1458.333333333343,
      "v": 50
    },
    {
      "midi": 69,
      "hit": false,
      "t": 68437.50000000004,
      "d": 57.29166666667152,
      "v": 74
    },
    {
      "midi": 71,
      "hit": false,
      "t": 68531.25000000004,
      "d": 114.58333333332848,
      "v": 36
    },
    {
      "midi": 69,
      "hit": false,
      "t": 68666.6666666667,
      "d": 104.16666666667152,
      "v": 73
    },
    {
      "midi": 71,
      "hit": false,
      "t": 68760.4166666667,
      "d": 125.00000000001455,
      "v": 37
    },
    {
      "midi": 69,
      "hit": false,
      "t": 68885.41666666672,
      "d": 177.08333333334303,
      "v": 61
    },
    {
      "midi": 71,
      "hit": false,
      "t": 69067.70833333339,
      "d": 140.625,
      "v": 64
    },
    {
      "midi": 72,
      "hit": false,
      "t": 69197.91666666672,
      "d": 145.83333333332848,
      "v": 84
    },
    {
      "midi": 74,
      "hit": false,
      "t": 69338.54166666672,
      "d": 156.25,
      "v": 81
    },
    {
      "midi": 76,
      "hit": false,
      "t": 69494.79166666672,
      "d": 140.625,
      "v": 83
    },
    {
      "midi": 76,
      "hit": false,
      "t": 69765.62500000006,
      "d": 385.41666666665697,
      "v": 57
    },
    {
      "midi": 59,
      "hit": false,
      "t": 69812.50000000006,
      "d": 1937.4999999999854,
      "v": 34
    },
    {
      "midi": 74,
      "hit": false,
      "t": 70098.95833333339,
      "d": 348.9583333333285,
      "v": 44
    },
    {
      "midi": 72,
      "hit": false,
      "t": 70416.66666666672,
      "d": 255.20833333332848,
      "v": 50
    },
    {
      "midi": 60,
      "hit": false,
      "t": 70484.37500000004,
      "d": 666.6666666666715,
      "v": 21
    },
    {
      "midi": 71,
      "hit": false,
      "t": 70718.75000000004,
      "d": 177.08333333332848,
      "v": 31
    },
    {
      "midi": 69,
      "hit": false,
      "t": 71062.50000000004,
      "d": 385.4166666666715,
      "v": 46
    },
    {
      "midi": 62,
      "hit": false,
      "t": 71088.54166666672,
      "d": 2281.2500000000146,
      "v": 27
    },
    {
      "midi": 67,
      "hit": false,
      "t": 71432.29166666672,
      "d": 1536.458333333343,
      "v": 43
    },
    {
      "midi": 57,
      "hit": false,
      "t": 71760.41666666672,
      "d": 609.375,
      "v": 40
    },
    {
      "midi": 59,
      "hit": false,
      "t": 72385.41666666672,
      "d": 1161.458333333343,
      "v": 35
    },
    {
      "midi": 79,
      "hit": false,
      "t": 72968.75000000006,
      "d": 416.6666666666715,
      "v": 85
    },
    {
      "midi": 78,
      "hit": false,
      "t": 73541.66666666673,
      "d": 437.5,
      "v": 79
    },
    {
      "midi": 60,
      "hit": false,
      "t": 73593.75000000006,
      "d": 1968.7499999999854,
      "v": 36
    },
    {
      "midi": 76,
      "hit": false,
      "t": 73885.41666666673,
      "d": 687.5,
      "v": 74
    },
    {
      "midi": 64,
      "hit": false,
      "t": 74218.75000000006,
      "d": 656.25,
      "v": 53
    },
    {
      "midi": 78,
      "hit": false,
      "t": 74531.25000000006,
      "d": 187.5,
      "v": 79
    },
    {
      "midi": 75,
      "hit": false,
      "t": 74687.50000000006,
      "d": 88.54166666667152,
      "v": 85
    },
    {
      "midi": 67,
      "hit": false,
      "t": 74890.62500000006,
      "d": 1140.624999999971,
      "v": 51
    },
    {
      "midi": 75,
      "hit": false,
      "t": 74895.83333333339,
      "d": 177.08333333332848,
      "v": 64
    },
    {
      "midi": 76,
      "hit": false,
      "t": 75083.33333333339,
      "d": 83.33333333332848,
      "v": 85
    },
    {
      "midi": 75,
      "hit": false,
      "t": 75197.91666666672,
      "d": 114.58333333332848,
      "v": 69
    },
    {
      "midi": 76,
      "hit": false,
      "t": 75291.66666666672,
      "d": 1630.2083333332994,
      "v": 83
    },
    {
      "midi": 59,
      "hit": false,
      "t": 75567.70833333337,
      "d": 588.541666666657,
      "v": 60
    },
    {
      "midi": 66,
      "hit": false,
      "t": 76093.75000000003,
      "d": 93.75,
      "v": 55
    },
    {
      "midi": 57,
      "hit": false,
      "t": 76151.0416666667,
      "d": 1432.2916666666424,
      "v": 64
    },
    {
      "midi": 67,
      "hit": false,
      "t": 76192.70833333336,
      "d": 62.5,
      "v": 88
    },
    {
      "midi": 66,
      "hit": false,
      "t": 76255.20833333336,
      "d": 682.291666666657,
      "v": 62
    },
    {
      "midi": 81,
      "hit": false,
      "t": 76869.79166666669,
      "d": 239.58333333332848,
      "v": 83
    },
    {
      "midi": 64,
      "hit": false,
      "t": 76916.66666666669,
      "d": 567.7083333333285,
      "v": 77
    },
    {
      "midi": 83,
      "hit": false,
      "t": 77109.37500000001,
      "d": 161.45833333332848,
      "v": 76
    },
    {
      "midi": 81,
      "hit": false,
      "t": 77250.00000000001,
      "d": 140.625,
      "v": 87
    },
    {
      "midi": 79,
      "hit": false,
      "t": 77380.20833333334,
      "d": 229.16666666667152,
      "v": 101
    },
    {
      "midi": 63,
      "hit": false,
      "t": 77484.37500000001,
      "d": 848.958333333343,
      "v": 52
    },
    {
      "midi": 59,
      "hit": false,
      "t": 77500.00000000001,
      "d": 2145.833333333314,
      "v": 39
    },
    {
      "midi": 81,
      "hit": false,
      "t": 77578.12500000001,
      "d": 1083.3333333333285,
      "v": 78
    },
    {
      "midi": 64,
      "hit": false,
      "t": 78260.41666666669,
      "d": 703.1249999999854,
      "v": 44
    },
    {
      "midi": 78,
      "hit": false,
      "t": 78625.00000000001,
      "d": 401.04166666665697,
      "v": 48
    },
    {
      "midi": 76,
      "hit": false,
      "t": 78963.54166666667,
      "d": 578.1249999999854,
      "v": 52
    },
    {
      "midi": 66,
      "hit": false,
      "t": 78979.16666666667,
      "d": 2447.9166666666424,
      "v": 34
    },
    {
      "midi": 75,
      "hit": false,
      "t": 79447.91666666667,
      "d": 1473.958333333314,
      "v": 41
    },
    {
      "midi": 57,
      "hit": false,
      "t": 79677.08333333333,
      "d": 572.916666666657,
      "v": 52
    },
    {
      "midi": 55,
      "hit": false,
      "t": 80302.08333333331,
      "d": 770.833333333343,
      "v": 48
    },
    {
      "midi": 71,
      "hit": false,
      "t": 80937.49999999999,
      "d": 828.125,
      "v": 65
    },
    {
      "midi": 54,
      "hit": false,
      "t": 80984.37499999999,
      "d": 640.625,
      "v": 37
    },
    {
      "midi": 79,
      "hit": false,
      "t": 81718.74999999999,
      "d": 1010.4166666666715,
      "v": 87
    },
    {
      "midi": 52,
      "hit": false,
      "t": 81718.74999999999,
      "d": 2687.5,
      "v": 39
    },
    {
      "midi": 57,
      "hit": false,
      "t": 82343.74999999999,
      "d": 583.333333333343,
      "v": 47
    },
    {
      "midi": 78,
      "hit": false,
      "t": 82687.49999999999,
      "d": 177.08333333334303,
      "v": 66
    },
    {
      "midi": 55,
      "hit": false,
      "t": 83020.83333333333,
      "d": 62.5,
      "v": 38
    },
    {
      "midi": 78,
      "hit": false,
      "t": 83031.25,
      "d": 479.16666666665697,
      "v": 62
    },
    {
      "midi": 57,
      "hit": false,
      "t": 83062.5,
      "d": 130.20833333332848,
      "v": 48
    },
    {
      "midi": 55,
      "hit": false,
      "t": 83182.29166666666,
      "d": 640.625,
      "v": 38
    },
    {
      "midi": 76,
      "hit": false,
      "t": 83411.45833333333,
      "d": 1411.4583333333285,
      "v": 67
    },
    {
      "midi": 54,
      "hit": false,
      "t": 83760.41666666666,
      "d": 791.666666666657,
      "v": 45
    },
    {
      "midi": 55,
      "hit": false,
      "t": 84473.95833333331,
      "d": 1526.041666666686,
      "v": 51
    },
    {
      "midi": 50,
      "hit": false,
      "t": 84499.99999999999,
      "d": 1437.5000000000146,
      "v": 29
    },
    {
      "midi": 71,
      "hit": false,
      "t": 84781.24999999999,
      "d": 385.4166666666715,
      "v": 65
    },
    {
      "midi": 72,
      "hit": false,
      "t": 85145.83333333333,
      "d": 218.75,
      "v": 87
    },
    {
      "midi": 71,
      "hit": false,
      "t": 85333.33333333333,
      "d": 156.25,
      "v": 81
    },
    {
      "midi": 69,
      "hit": false,
      "t": 85473.95833333333,
      "d": 156.25,
      "v": 84
    },
    {
      "midi": 71,
      "hit": false,
      "t": 85614.58333333333,
      "d": 312.5,
      "v": 53
    },
    {
      "midi": 48,
      "hit": false,
      "t": 85859.375,
      "d": 2661.458333333343,
      "v": 47
    },
    {
      "midi": 79,
      "hit": false,
      "t": 85906.25,
      "d": 244.79166666665697,
      "v": 82
    },
    {
      "midi": 76,
      "hit": false,
      "t": 86083.33333333333,
      "d": 375,
      "v": 85
    },
    {
      "midi": 78,
      "hit": false,
      "t": 86619.79166666666,
      "d": 244.79166666667152,
      "v": 66
    },
    {
      "midi": 57,
      "hit": false,
      "t": 86666.66666666666,
      "d": 609.375,
      "v": 42
    },
    {
      "midi": 75,
      "hit": false,
      "t": 86843.75,
      "d": 270.8333333333285,
      "v": 61
    },
    {
      "midi": 55,
      "hit": false,
      "t": 87317.70833333333,
      "d": 67.70833333332848,
      "v": 49
    },
    {
      "midi": 75,
      "hit": false,
      "t": 87333.33333333333,
      "d": 395.83333333334303,
      "v": 59
    },
    {
      "midi": 57,
      "hit": false,
      "t": 87380.20833333333,
      "d": 119.79166666667152,
      "v": 45
    },
    {
      "midi": 55,
      "hit": false,
      "t": 87479.16666666666,
      "d": 614.5833333333576,
      "v": 46
    },
    {
      "midi": 76,
      "hit": false,
      "t": 87697.91666666667,
      "d": 1494.791666666657,
      "v": 66
    },
    {
      "midi": 54,
      "hit": false,
      "t": 88062.50000000001,
      "d": 666.666666666657,
      "v": 48
    },
    {
      "midi": 55,
      "hit": false,
      "t": 88812.5,
      "d": 833.333333333343,
      "v": 48
    },
    {
      "midi": 47,
      "hit": false,
      "t": 88843.75,
      "d": 1156.2500000000146,
      "v": 34
    },
    {
      "midi": 67,
      "hit": false,
      "t": 89156.25,
      "d": 447.9166666666715,
      "v": 69
    },
    {
      "midi": 66,
      "hit": false,
      "t": 89557.29166666667,
      "d": 354.1666666666715,
      "v": 64
    },
    {
      "midi": 59,
      "hit": false,
      "t": 89604.16666666667,
      "d": 557.2916666666715,
      "v": 36
    },
    {
      "midi": 64,
      "hit": false,
      "t": 89875.00000000001,
      "d": 343.74999999998545,
      "v": 76
    },
    {
      "midi": 66,
      "hit": false,
      "t": 90213.54166666667,
      "d": 1713.5416666666424,
      "v": 75
    },
    {
      "midi": 45,
      "hit": false,
      "t": 90244.79166666667,
      "d": 1286.4583333333285,
      "v": 39
    },
    {
      "midi": 48,
      "hit": false,
      "t": 90859.375,
      "d": 739.5833333333285,
      "v": 55
    },
    {
      "midi": 76,
      "hit": false,
      "t": 91177.08333333334,
      "d": 223.95833333332848,
      "v": 82
    },
    {
      "midi": 76,
      "hit": false,
      "t": 91578.125,
      "d": 401.0416666666424,
      "v": 76
    },
    {
      "midi": 47,
      "hit": false,
      "t": 91578.125,
      "d": 880.2083333333139,
      "v": 39
    },
    {
      "midi": 75,
      "hit": false,
      "t": 91958.33333333331,
      "d": 135.41666666665697,
      "v": 71
    },
    {
      "midi": 76,
      "hit": false,
      "t": 92218.74999999997,
      "d": 140.625,
      "v": 83
    },
    {
      "midi": 78,
      "hit": false,
      "t": 92322.91666666664,
      "d": 151.04166666667152,
      "v": 55
    },
    {
      "midi": 79,
      "hit": false,
      "t": 92432.29166666664,
      "d": 130.20833333334303,
      "v": 78
    },
    {
      "midi": 45,
      "hit": false,
      "t": 92499.99999999999,
      "d": 802.0833333333576,
      "v": 43
    },
    {
      "midi": 72,
      "hit": false,
      "t": 92562.49999999999,
      "d": 463.5416666666715,
      "v": 59
    },
    {
      "midi": 81,
      "hit": false,
      "t": 92562.49999999999,
      "d": 796.8750000000291,
      "v": 76
    },
    {
      "midi": 79,
      "hit": false,
      "t": 93270.83333333333,
      "d": 802.0833333333721,
      "v": 59
    },
    {
      "midi": 71,
      "hit": false,
      "t": 93281.25,
      "d": 510.41666666668607,
      "v": 29
    },
    {
      "midi": 47,
      "hit": false,
      "t": 93291.66666666667,
      "d": 1739.5833333333576,
      "v": 39
    },
    {
      "midi": 78,
      "hit": false,
      "t": 93989.58333333336,
      "d": 437.50000000001455,
      "v": 59
    },
    {
      "midi": 69,
      "hit": false,
      "t": 94000.00000000003,
      "d": 2302.083333333343,
      "v": 48
    },
    {
      "midi": 51,
      "hit": false,
      "t": 94010.4166666667,
      "d": 625,
      "v": 34
    },
    {
      "midi": 78,
      "hit": false,
      "t": 94697.9166666667,
      "d": 718.75,
      "v": 60
    },
    {
      "midi": 52,
      "hit": false,
      "t": 94718.75000000003,
      "d": 2588.5416666666715,
      "v": 53
    },
    {
      "midi": 76,
      "hit": false,
      "t": 95276.0416666667,
      "d": 723.958333333343,
      "v": 63
    },
    {
      "midi": 47,
      "hit": false,
      "t": 95604.1666666667,
      "d": 989.583333333343,
      "v": 35
    },
    {
      "midi": 78,
      "hit": false,
      "t": 96015.62500000004,
      "d": 177.08333333332848,
      "v": 55
    },
    {
      "midi": 75,
      "hit": false,
      "t": 96208.33333333337,
      "d": 52.08333333332848,
      "v": 62
    },
    {
      "midi": 75,
      "hit": false,
      "t": 96583.33333333337,
      "d": 791.6666666666715,
      "v": 54
    },
    {
      "midi": 67,
      "hit": false,
      "t": 96598.95833333337,
      "d": 2479.1666666666715,
      "v": 46
    },
    {
      "midi": 40,
      "hit": false,
      "t": 96630.20833333337,
      "d": 1723.958333333343,
      "v": 31
    },
    {
      "midi": 76,
      "hit": false,
      "t": 97307.2916666667,
      "d": 1911.458333333343,
      "v": 54
    },
    {
      "midi": 47,
      "hit": false,
      "t": 97333.33333333337,
      "d": 833.333333333343,
      "v": 31
    },
    {
      "midi": 52,
      "hit": false,
      "t": 98072.91666666672,
      "d": 713.5416666666715,
      "v": 42
    },
    {
      "midi": 50,
      "hit": false,
      "t": 98776.04166666672,
      "d": 901.041666666657,
      "v": 56
    },
    {
      "midi": 76,
      "hit": false,
      "t": 99630.20833333337,
      "d": 1041.666666666657,
      "v": 75
    },
    {
      "midi": 48,
      "hit": false,
      "t": 99645.83333333337,
      "d": 4151.041666666657,
      "v": 47
    },
    {
      "midi": 74,
      "hit": false,
      "t": 100562.50000000003,
      "d": 369.7916666666715,
      "v": 60
    },
    {
      "midi": 72,
      "hit": false,
      "t": 100885.4166666667,
      "d": 338.5416666666715,
      "v": 69
    },
    {
      "midi": 71,
      "hit": false,
      "t": 101234.37500000004,
      "d": 671.875,
      "v": 46
    },
    {
      "midi": 52,
      "hit": false,
      "t": 101250.00000000004,
      "d": 1312.5,
      "v": 33
    },
    {
      "midi": 69,
      "hit": false,
      "t": 101916.66666666672,
      "d": 1411.4583333333285,
      "v": 38
    },
    {
      "midi": 57,
      "hit": false,
      "t": 102625.00000000004,
      "d": 1947.916666666657,
      "v": 34
    },
    {
      "midi": 71,
      "hit": false,
      "t": 103250.00000000004,
      "d": 338.54166666665697,
      "v": 47
    },
    {
      "midi": 72,
      "hit": false,
      "t": 103552.08333333337,
      "d": 177.08333333332848,
      "v": 80
    },
    {
      "midi": 74,
      "hit": false,
      "t": 103906.25000000003,
      "d": 213.54166666667152,
      "v": 79
    },
    {
      "midi": 47,
      "hit": false,
      "t": 103906.25000000003,
      "d": 4078.1250000000146,
      "v": 38
    },
    {
      "midi": 72,
      "hit": false,
      "t": 104093.75000000003,
      "d": 135.41666666667152,
      "v": 83
    },
    {
      "midi": 71,
      "hit": false,
      "t": 104234.37500000003,
      "d": 151.04166666667152,
      "v": 64
    },
    {
      "midi": 72,
      "hit": false,
      "t": 104526.0416666667,
      "d": 218.75,
      "v": 76
    },
    {
      "midi": 54,
      "hit": false,
      "t": 104546.87500000003,
      "d": 468.75,
      "v": 38
    },
    {
      "midi": 71,
      "hit": false,
      "t": 104723.95833333337,
      "d": 130.20833333332848,
      "v": 60
    },
    {
      "midi": 69,
      "hit": false,
      "t": 104869.7916666667,
      "d": 208.33333333332848,
      "v": 74
    },
    {
      "midi": 69,
      "hit": false,
      "t": 105234.37500000003,
      "d": 390.62499999998545,
      "v": 45
    },
    {
      "midi": 52,
      "hit": false,
      "t": 105270.83333333336,
      "d": 302.0833333333285,
      "v": 36
    },
    {
      "midi": 67,
      "hit": false,
      "t": 105578.12500000001,
      "d": 1776.041666666686,
      "v": 49
    },
    {
      "midi": 50,
      "hit": false,
      "t": 105588.54166666669,
      "d": 354.1666666666715,
      "v": 48
    },
    {
      "midi": 52,
      "hit": false,
      "t": 105901.04166666669,
      "d": 432.2916666666715,
      "v": 60
    },
    {
      "midi": 54,
      "hit": false,
      "t": 106229.16666666669,
      "d": 385.4166666666715,
      "v": 55
    },
    {
      "midi": 55,
      "hit": false,
      "t": 106578.12500000003,
      "d": 338.5416666666715,
      "v": 47
    },
    {
      "midi": 54,
      "hit": false,
      "t": 106906.25000000003,
      "d": 447.9166666666715,
      "v": 35
    },
    {
      "midi": 69,
      "hit": false,
      "t": 107281.25000000003,
      "d": 401.0416666666715,
      "v": 51
    },
    {
      "midi": 55,
      "hit": false,
      "t": 107307.2916666667,
      "d": 1374.9999999999854,
      "v": 37
    },
    {
      "midi": 71,
      "hit": false,
      "t": 107609.37500000003,
      "d": 390.62500000001455,
      "v": 65
    },
    {
      "midi": 72,
      "hit": false,
      "t": 107937.50000000004,
      "d": 354.1666666666715,
      "v": 79
    },
    {
      "midi": 45,
      "hit": false,
      "t": 108000.00000000004,
      "d": 1906.25,
      "v": 46
    },
    {
      "midi": 74,
      "hit": false,
      "t": 108260.41666666672,
      "d": 416.6666666666424,
      "v": 81
    },
    {
      "midi": 72,
      "hit": false,
      "t": 108588.5416666667,
      "d": 359.37499999998545,
      "v": 76
    },
    {
      "midi": 52,
      "hit": false,
      "t": 108625.00000000003,
      "d": 656.25,
      "v": 52
    },
    {
      "midi": 71,
      "hit": false,
      "t": 108916.66666666669,
      "d": 354.1666666666715,
      "v": 58
    },
    {
      "midi": 72,
      "hit": false,
      "t": 109250.00000000001,
      "d": 369.79166666668607,
      "v": 63
    },
    {
      "midi": 57,
      "hit": false,
      "t": 109260.41666666669,
      "d": 890.6250000000146,
      "v": 57
    },
    {
      "midi": 69,
      "hit": false,
      "t": 109578.12500000003,
      "d": 333.33333333334303,
      "v": 66
    },
    {
      "midi": 64,
      "hit": false,
      "t": 109895.83333333337,
      "d": 1036.458333333343,
      "v": 63
    },
    {
      "midi": 43,
      "hit": false,
      "t": 109906.25000000004,
      "d": 656.2499999999854,
      "v": 52
    },
    {
      "midi": 69,
      "hit": false,
      "t": 110213.5416666667,
      "d": 364.5833333333285,
      "v": 75
    },
    {
      "midi": 72,
      "hit": false,
      "t": 110531.25000000003,
      "d": 1671.875,
      "v": 75
    },
    {
      "midi": 42,
      "hit": false,
      "t": 110536.45833333336,
      "d": 635.4166666666861,
      "v": 60
    },
    {
      "midi": 71,
      "hit": false,
      "t": 110848.95833333337,
      "d": 338.5416666666715,
      "v": 65
    },
    {
      "midi": 69,
      "hit": false,
      "t": 111151.04166666672,
      "d": 395.8333333333285,
      "v": 64
    },
    {
      "midi": 40,
      "hit": false,
      "t": 111151.04166666672,
      "d": 692.7083333333285,
      "v": 52
    },
    {
      "midi": 67,
      "hit": false,
      "t": 111479.16666666672,
      "d": 364.5833333333285,
      "v": 58
    },
    {
      "midi": 66,
      "hit": false,
      "t": 111817.70833333337,
      "d": 1489.5833333332994,
      "v": 46
    },
    {
      "midi": 38,
      "hit": false,
      "t": 111848.95833333337,
      "d": 802.0833333333139,
      "v": 43
    },
    {
      "midi": 74,
      "hit": false,
      "t": 112151.0416666667,
      "d": 421.87499999998545,
      "v": 71
    },
    {
      "midi": 45,
      "hit": false,
      "t": 112489.58333333336,
      "d": 687.4999999999854,
      "v": 55
    },
    {
      "midi": 72,
      "hit": false,
      "t": 112494.79166666669,
      "d": 296.875,
      "v": 72
    },
    {
      "midi": 71,
      "hit": false,
      "t": 112781.25000000001,
      "d": 333.3333333333285,
      "v": 63
    },
    {
      "midi": 72,
      "hit": false,
      "t": 113104.16666666667,
      "d": 375.00000000001455,
      "v": 63
    },
    {
      "midi": 50,
      "hit": false,
      "t": 113104.16666666667,
      "d": 671.8750000000146,
      "v": 52
    },
    {
      "midi": 69,
      "hit": false,
      "t": 113411.45833333334,
      "d": 333.33333333334303,
      "v": 76
    },
    {
      "midi": 48,
      "hit": false,
      "t": 113718.75000000001,
      "d": 651.0416666666715,
      "v": 69
    },
    {
      "midi": 66,
      "hit": false,
      "t": 113718.75000000001,
      "d": 1833.3333333333285,
      "v": 69
    },
    {
      "midi": 69,
      "hit": false,
      "t": 114036.45833333336,
      "d": 333.3333333333285,
      "v": 76
    },
    {
      "midi": 47,
      "hit": false,
      "t": 114338.54166666669,
      "d": 739.5833333333285,
      "v": 39
    },
    {
      "midi": 72,
      "hit": false,
      "t": 114343.75000000001,
      "d": 333.33333333334303,
      "v": 84
    },
    {
      "midi": 76,
      "hit": false,
      "t": 114692.70833333336,
      "d": 343.75,
      "v": 74
    },
    {
      "midi": 74,
      "hit": false,
      "t": 115005.20833333336,
      "d": 338.54166666665697,
      "v": 52
    },
    {
      "midi": 45,
      "hit": false,
      "t": 115041.66666666669,
      "d": 666.6666666666715,
      "v": 40
    },
    {
      "midi": 72,
      "hit": false,
      "t": 115338.54166666669,
      "d": 359.375,
      "v": 64
    },
    {
      "midi": 71,
      "hit": false,
      "t": 115697.91666666669,
      "d": 380.2083333333285,
      "v": 52
    },
    {
      "midi": 43,
      "hit": false,
      "t": 115713.54166666669,
      "d": 885.416666666657,
      "v": 35
    },
    {
      "midi": 67,
      "hit": false,
      "t": 115729.16666666669,
      "d": 541.666666666657,
      "v": 17
    },
    {
      "midi": 72,
      "hit": false,
      "t": 116041.66666666669,
      "d": 364.5833333333285,
      "v": 58
    },
    {
      "midi": 50,
      "hit": false,
      "t": 116380.20833333334,
      "d": 671.8749999999854,
      "v": 42
    },
    {
      "midi": 71,
      "hit": false,
      "t": 116390.62500000001,
      "d": 307.29166666665697,
      "v": 29
    },
    {
      "midi": 69,
      "hit": false,
      "t": 116677.08333333334,
      "d": 333.33333333331393,
      "v": 51
    },
    {
      "midi": 55,
      "hit": false,
      "t": 117000,
      "d": 718.7499999999854,
      "v": 52
    },
    {
      "midi": 71,
      "hit": false,
      "t": 117005.20833333333,
      "d": 911.4583333333285,
      "v": 38
    },
    {
      "midi": 67,
      "hit": false,
      "t": 117322.91666666666,
      "d": 276.04166666665697,
      "v": 55
    },
    {
      "midi": 62,
      "hit": false,
      "t": 117619.79166666664,
      "d": 510.41666666668607,
      "v": 46
    },
    {
      "midi": 53,
      "hit": false,
      "t": 117630.20833333331,
      "d": 661.458333333343,
      "v": 51
    },
    {
      "midi": 67,
      "hit": false,
      "t": 117942.70833333333,
      "d": 328.125,
      "v": 66
    },
    {
      "midi": 52,
      "hit": false,
      "t": 118250,
      "d": 656.2499999999854,
      "v": 49
    },
    {
      "midi": 71,
      "hit": false,
      "t": 118255.20833333333,
      "d": 369.79166666665697,
      "v": 57
    },
    {
      "midi": 67,
      "hit": false,
      "t": 118588.54166666666,
      "d": 2453.124999999971,
      "v": 66
    },
    {
      "midi": 72,
      "hit": false,
      "t": 118890.62499999999,
      "d": 354.1666666666715,
      "v": 79
    },
    {
      "midi": 50,
      "hit": false,
      "t": 118906.24999999999,
      "d": 619.7916666666715,
      "v": 56
    },
    {
      "midi": 74,
      "hit": false,
      "t": 119187.49999999999,
      "d": 343.75,
      "v": 80
    },
    {
      "midi": 76,
      "hit": false,
      "t": 119494.79166666666,
      "d": 322.91666666665697,
      "v": 72
    },
    {
      "midi": 48,
      "hit": false,
      "t": 119499.99999999999,
      "d": 671.8749999999854,
      "v": 65
    },
    {
      "midi": 77,
      "hit": false,
      "t": 119807.29166666664,
      "d": 364.5833333333285,
      "v": 79
    },
    {
      "midi": 76,
      "hit": false,
      "t": 120124.99999999997,
      "d": 333.33333333334303,
      "v": 66
    },
    {
      "midi": 55,
      "hit": false,
      "t": 120145.8333333333,
      "d": 614.583333333343,
      "v": 49
    },
    {
      "midi": 74,
      "hit": false,
      "t": 120432.29166666664,
      "d": 333.3333333333285,
      "v": 62
    },
    {
      "midi": 76,
      "hit": false,
      "t": 120755.20833333331,
      "d": 390.6249999999709,
      "v": 63
    },
    {
      "midi": 60,
      "hit": false,
      "t": 120755.20833333331,
      "d": 677.0833333333139,
      "v": 48
    },
    {
      "midi": 72,
      "hit": false,
      "t": 121078.12499999996,
      "d": 354.1666666666715,
      "v": 63
    },
    {
      "midi": 67,
      "hit": false,
      "t": 121380.20833333328,
      "d": 588.5416666666861,
      "v": 63
    },
    {
      "midi": 59,
      "hit": false,
      "t": 121380.20833333328,
      "d": 609.3750000000146,
      "v": 51
    },
    {
      "midi": 72,
      "hit": false,
      "t": 121677.0833333333,
      "d": 338.5416666666715,
      "v": 84
    },
    {
      "midi": 76,
      "hit": false,
      "t": 121973.9583333333,
      "d": 322.9166666666715,
      "v": 87
    },
    {
      "midi": 57,
      "hit": false,
      "t": 121984.37499999997,
      "d": 609.375,
      "v": 65
    },
    {
      "midi": 72,
      "hit": false,
      "t": 122281.24999999997,
      "d": 854.1666666666715,
      "v": 88
    },
    {
      "midi": 78,
      "hit": false,
      "t": 122572.91666666664,
      "d": 364.58333333334303,
      "v": 88
    },
    {
      "midi": 55,
      "hit": false,
      "t": 122593.74999999997,
      "d": 635.4166666666861,
      "v": 61
    },
    {
      "midi": 79,
      "hit": false,
      "t": 122874.99999999999,
      "d": 364.58333333334303,
      "v": 96
    },
    {
      "midi": 81,
      "hit": false,
      "t": 123208.33333333331,
      "d": 348.95833333334303,
      "v": 83
    },
    {
      "midi": 54,
      "hit": false,
      "t": 123218.74999999999,
      "d": 739.5833333333576,
      "v": 44
    },
    {
      "midi": 72,
      "hit": false,
      "t": 123567.70833333333,
      "d": 213.54166666667152,
      "v": 81
    },
    {
      "midi": 71,
      "hit": false,
      "t": 123822.91666666667,
      "d": 46.875,
      "v": 59
    },
    {
      "midi": 72,
      "hit": false,
      "t": 123885.41666666667,
      "d": 104.16666666667152,
      "v": 67
    },
    {
      "midi": 50,
      "hit": false,
      "t": 123958.33333333334,
      "d": 713.541666666657,
      "v": 53
    },
    {
      "midi": 71,
      "hit": false,
      "t": 123968.75000000001,
      "d": 348.9583333333285,
      "v": 66
    },
    {
      "midi": 69,
      "hit": false,
      "t": 124265.62500000001,
      "d": 359.37499999998545,
      "v": 73
    },
    {
      "midi": 71,
      "hit": false,
      "t": 124583.33333333334,
      "d": 354.16666666665697,
      "v": 65
    },
    {
      "midi": 55,
      "hit": false,
      "t": 124604.16666666667,
      "d": 796.875,
      "v": 51
    },
    {
      "midi": 72,
      "hit": false,
      "t": 124906.25,
      "d": 338.5416666666715,
      "v": 72
    },
    {
      "midi": 74,
      "hit": false,
      "t": 125244.79166666667,
      "d": 364.5833333333285,
      "v": 54
    },
    {
      "midi": 59,
      "hit": false,
      "t": 125260.41666666667,
      "d": 744.791666666657,
      "v": 39
    },
    {
      "midi": 67,
      "hit": false,
      "t": 125609.375,
      "d": 354.1666666666715,
      "v": 51
    },
    {
      "midi": 71,
      "hit": false,
      "t": 125968.75,
      "d": 395.8333333333285,
      "v": 40
    },
    {
      "midi": 62,
      "hit": false,
      "t": 125989.58333333333,
      "d": 890.625,
      "v": 30
    },
    {
      "midi": 69,
      "hit": false,
      "t": 126328.125,
      "d": 333.3333333333285,
      "v": 44
    },
    {
      "midi": 67,
      "hit": false,
      "t": 126666.66666666666,
      "d": 380.20833333334303,
      "v": 45
    },
    {
      "midi": 50,
      "hit": false,
      "t": 126692.70833333333,
      "d": 890.625,
      "v": 34
    },
    {
      "midi": 66,
      "hit": false,
      "t": 127046.875,
      "d": 489.5833333333285,
      "v": 41
    },
    {
      "midi": 67,
      "hit": false,
      "t": 127510.41666666667,
      "d": 2239.583333333314,
      "v": 52
    },
    {
      "midi": 55,
      "hit": false,
      "t": 127531.25,
      "d": 3369.7916666666424,
      "v": 32
    },
    {
      "midi": 60,
      "hit": false,
      "t": 127937.5,
      "d": 406.25,
      "v": 52
    },
    {
      "midi": 59,
      "hit": false,
      "t": 128338.54166666667,
      "d": 380.2083333333285,
      "v": 37
    },
    {
      "midi": 57,
      "hit": false,
      "t": 128682.29166666667,
      "d": 401.04166666665697,
      "v": 42
    },
    {
      "midi": 59,
      "hit": false,
      "t": 129083.33333333333,
      "d": 7911.4583333333285,
      "v": 41
    },
    {
      "midi": 62,
      "hit": false,
      "t": 129604.16666666666,
      "d": 755.2083333333139,
      "v": 37
    },
    {
      "midi": 67,
      "hit": false,
      "t": 130177.08333333331,
      "d": 583.3333333333285,
      "v": 14
    },
    {
      "midi": 50,
      "hit": false,
      "t": 130197.91666666664,
      "d": 1583.3333333333285,
      "v": 27
    },
    {
      "midi": 66,
      "hit": false,
      "t": 130729.16666666664,
      "d": 406.24999999998545,
      "v": 27
    },
    {
      "midi": 66,
      "hit": false,
      "t": 131760.41666666663,
      "d": 1734.375000000029,
      "v": 21
    },
    {
      "midi": 43,
      "hit": false,
      "t": 131812.49999999997,
      "d": 5187.500000000029,
      "v": 26
    },
    {
      "midi": 67,
      "hit": false,
      "t": 133489.5833333333,
      "d": 3526.041666666686,
      "v": 22
    }
  ]
}