{
  "jsonPath": "Soundtracks/Video Game Music/Final Fantasy 7/final-fantasy-7-aheadonourwayremix.json",
  "path": "Soundtracks\\Video Game Music\\Final Fantasy 7\\Final_Fantasy_7_AheadOnOurWayRemix.mid",
  "name": "Final_Fantasy_7_AheadOnOurWayRemix",
  "difficulty": "Advanced",
  "bpm": 200,
  "notes": [
    {
      "midi": 69,
      "hit": false,
      "t": 0,
      "d": 666.6666666666666,
      "v": 75
    },
    {
      "midi": 62,
      "hit": false,
      "t": 0,
      "d": 700,
      "v": 75
    },
    {
      "midi": 59,
      "hit": false,
      "t": 0,
      "d": 700,
      "v": 75
    },
    {
      "midi": 54,
      "hit": false,
      "t": 0,
      "d": 700,
      "v": 75
    },
    {
      "midi": 43,
      "hit": false,
      "t": 0,
      "d": 1133.3333333333333,
      "v": 75
    },
    {
      "midi": 67,
      "hit": false,
      "t": 666.6666666666666,
      "d": 129.16666666666674,
      "v": 75
    },
    {
      "midi": 66,
      "hit": false,
      "t": 800,
      "d": 266.66666666666674,
      "v": 75
    },
    {
      "midi": 62,
      "hit": false,
      "t": 800,
      "d": 333.3333333333335,
      "v": 75
    },
    {
      "midi": 59,
      "hit": false,
      "t": 800,
      "d": 333.3333333333335,
      "v": 75
    },
    {
      "midi": 54,
      "hit": false,
      "t": 800,
      "d": 333.33333333333326,
      "v": 75
    },
    {
      "midi": 67,
      "hit": false,
      "t": 1066.6666666666667,
      "d": 129.16666666666674,
      "v": 75
    },
    {
      "midi": 54,
      "hit": false,
      "t": 1466.6666666666665,
      "d": 129.16666666666674,
      "v": 75
    },
    {
      "midi": 43,
      "hit": false,
      "t": 1466.6666666666665,
      "d": 129.16666666666674,
      "v": 75
    },
    {
      "midi": 69,
      "hit": false,
      "t": 1466.6666666666667,
      "d": 129.16666666666674,
      "v": 75
    },
    {
      "midi": 62,
      "hit": false,
      "t": 1466.6666666666667,
      "d": 129.16666666666674,
      "v": 75
    },
    {
      "midi": 59,
      "hit": false,
      "t": 1466.6666666666667,
      "d": 129.16666666666674,
      "v": 75
    },
    {
      "midi": 54,
      "hit": false,
      "t": 1866.6666666666665,
      "d": 466.6666666666665,
      "v": 75
    },
    {
      "midi": 43,
      "hit": false,
      "t": 1866.6666666666665,
      "d": 466.6666666666665,
      "v": 75
    },
    {
      "midi": 69,
      "hit": false,
      "t": 1866.6666666666667,
      "d": 466.66666666666674,
      "v": 75
    },
    {
      "midi": 62,
      "hit": false,
      "t": 1866.6666666666667,
      "d": 466.66666666666674,
      "v": 75
    },
    {
      "midi": 59,
      "hit": false,
      "t": 1866.6666666666667,
      "d": 466.66666666666674,
      "v": 75
    },
    {
      "midi": 59,
      "hit": false,
      "t": 2400,
      "d": 195.83333333333348,
      "v": 75
    },
    {
      "midi": 43,
      "hit": false,
      "t": 2666.6666666666665,
      "d": 129.16666666666652,
      "v": 75
    },
    {
      "midi": 62,
      "hit": false,
      "t": 2800,
      "d": 195.83333333333348,
      "v": 75
    },
    {
      "midi": 50,
      "hit": false,
      "t": 3199.9999999999995,
      "d": 333.3333333333335,
      "v": 75
    },
    {
      "midi": 40,
      "hit": false,
      "t": 3199.9999999999995,
      "d": 333.3333333333335,
      "v": 75
    },
    {
      "midi": 66,
      "hit": false,
      "t": 3200,
      "d": 266.6666666666665,
      "v": 75
    },
    {
      "midi": 59,
      "hit": false,
      "t": 3200,
      "d": 333.33333333333303,
      "v": 75
    },
    {
      "midi": 55,
      "hit": false,
      "t": 3200,
      "d": 333.33333333333303,
      "v": 75
    },
    {
      "midi": 64,
      "hit": false,
      "t": 3466.6666666666665,
      "d": 129.16666666666652,
      "v": 75
    },
    {
      "midi": 59,
      "hit": false,
      "t": 3866.6666666666665,
      "d": 1195.8333333333335,
      "v": 75
    },
    {
      "midi": 55,
      "hit": false,
      "t": 3866.6666666666665,
      "d": 1195.8333333333335,
      "v": 75
    },
    {
      "midi": 64,
      "hit": false,
      "t": 3866.6666666666665,
      "d": 1633.3333333333335,
      "v": 75
    },
    {
      "midi": 40,
      "hit": false,
      "t": 3866.6666666666665,
      "d": 466.6666666666665,
      "v": 75
    },
    {
      "midi": 50,
      "hit": false,
      "t": 3866.6666666666665,
      "d": 1200.0000000000005,
      "v": 75
    },
    {
      "midi": 40,
      "hit": false,
      "t": 4400,
      "d": 195.83333333333303,
      "v": 75
    },
    {
      "midi": 40,
      "hit": false,
      "t": 4800,
      "d": 333.33333333333394,
      "v": 75
    },
    {
      "midi": 59,
      "hit": false,
      "t": 5066.666666666667,
      "d": 395.83333333333303,
      "v": 60
    },
    {
      "midi": 55,
      "hit": false,
      "t": 5066.666666666667,
      "d": 395.83333333333303,
      "v": 60
    },
    {
      "midi": 50,
      "hit": false,
      "t": 5066.666666666667,
      "d": 400.0000000000009,
      "v": 60
    },
    {
      "midi": 40,
      "hit": false,
      "t": 5200.000000000001,
      "d": 333.33333333333394,
      "v": 60
    },
    {
      "midi": 59,
      "hit": false,
      "t": 5466.666666666667,
      "d": 129.16666666666606,
      "v": 60
    },
    {
      "midi": 55,
      "hit": false,
      "t": 5466.666666666667,
      "d": 129.16666666666606,
      "v": 60
    },
    {
      "midi": 50,
      "hit": false,
      "t": 5466.666666666668,
      "d": 129.16666666666697,
      "v": 60
    },
    {
      "midi": 64,
      "hit": false,
      "t": 6000,
      "d": 733.333333333333,
      "v": 75
    },
    {
      "midi": 60,
      "hit": false,
      "t": 6000,
      "d": 733.333333333333,
      "v": 75
    },
    {
      "midi": 55,
      "hit": false,
      "t": 6000.000000000002,
      "d": 733.333333333333,
      "v": 75
    },
    {
      "midi": 45,
      "hit": false,
      "t": 6000.000000000002,
      "d": 1500,
      "v": 75
    },
    {
      "midi": 71,
      "hit": false,
      "t": 6800,
      "d": 400,
      "v": 79
    },
    {
      "midi": 55,
      "hit": false,
      "t": 6800.000000000002,
      "d": 662.5,
      "v": 79
    },
    {
      "midi": 69,
      "hit": false,
      "t": 7200,
      "d": 262.5,
      "v": 81
    },
    {
      "midi": 64,
      "hit": false,
      "t": 7466.666666666667,
      "d": 66.66666666666697,
      "v": 83
    },
    {
      "midi": 60,
      "hit": false,
      "t": 7466.666666666667,
      "d": 66.66666666666697,
      "v": 83
    },
    {
      "midi": 67,
      "hit": false,
      "t": 7466.666666666667,
      "d": 129.16666666666697,
      "v": 83
    },
    {
      "midi": 55,
      "hit": false,
      "t": 7466.666666666669,
      "d": 129.16666666666606,
      "v": 82
    },
    {
      "midi": 69,
      "hit": false,
      "t": 7866.666666666668,
      "d": 1195.833333333334,
      "v": 86
    },
    {
      "midi": 60,
      "hit": false,
      "t": 7866.666666666668,
      "d": 1266.666666666666,
      "v": 86
    },
    {
      "midi": 64,
      "hit": false,
      "t": 7866.666666666668,
      "d": 1266.666666666666,
      "v": 86
    },
    {
      "midi": 50,
      "hit": false,
      "t": 7866.666666666668,
      "d": 1195.833333333334,
      "v": 85
    },
    {
      "midi": 66,
      "hit": false,
      "t": 8666.666666666668,
      "d": 466.66666666666606,
      "v": 60
    },
    {
      "midi": 38,
      "hit": false,
      "t": 8666.666666666668,
      "d": 395.83333333333394,
      "v": 91
    },
    {
      "midi": 70,
      "hit": false,
      "t": 9066.666666666668,
      "d": 129.16666666666606,
      "v": 60
    },
    {
      "midi": 71,
      "hit": false,
      "t": 9200,
      "d": 129.16666666666606,
      "v": 63
    },
    {
      "midi": 72,
      "hit": false,
      "t": 9333.333333333332,
      "d": 129.16666666666606,
      "v": 67
    },
    {
      "midi": 73,
      "hit": false,
      "t": 9466.666666666664,
      "d": 129.16666666666606,
      "v": 71
    },
    {
      "midi": 74,
      "hit": false,
      "t": 9599.999999999996,
      "d": 262.5,
      "v": 75
    },
    {
      "midi": 71,
      "hit": false,
      "t": 9866.666666666662,
      "d": 129.16666666666606,
      "v": 75
    },
    {
      "midi": 66,
      "hit": false,
      "t": 9866.666666666662,
      "d": 195.83333333333212,
      "v": 75
    },
    {
      "midi": 62,
      "hit": false,
      "t": 9866.666666666662,
      "d": 195.83333333333212,
      "v": 75
    },
    {
      "midi": 47,
      "hit": false,
      "t": 9866.666666666668,
      "d": 129.16666666666606,
      "v": 92
    },
    {
      "midi": 57,
      "hit": false,
      "t": 9866.666666666668,
      "d": 195.83333333333212,
      "v": 92
    },
    {
      "midi": 66,
      "hit": false,
      "t": 10266.66666666666,
      "d": 1195.833333333334,
      "v": 92
    },
    {
      "midi": 62,
      "hit": false,
      "t": 10266.66666666666,
      "d": 1195.833333333334,
      "v": 92
    },
    {
      "midi": 71,
      "hit": false,
      "t": 10266.66666666666,
      "d": 1633.333333333334,
      "v": 92
    },
    {
      "midi": 47,
      "hit": false,
      "t": 10266.666666666666,
      "d": 466.66666666666606,
      "v": 92
    },
    {
      "midi": 57,
      "hit": false,
      "t": 10266.666666666666,
      "d": 833.3333333333321,
      "v": 92
    },
    {
      "midi": 47,
      "hit": false,
      "t": 10799.999999999998,
      "d": 195.83333333333394,
      "v": 92
    },
    {
      "midi": 47,
      "hit": false,
      "t": 11199.999999999998,
      "d": 266.66666666666606,
      "v": 92
    },
    {
      "midi": 66,
      "hit": false,
      "t": 11466.66666666666,
      "d": 395.83333333333394,
      "v": 75
    },
    {
      "midi": 62,
      "hit": false,
      "t": 11466.66666666666,
      "d": 395.83333333333394,
      "v": 75
    },
    {
      "midi": 47,
      "hit": false,
      "t": 11599.999999999998,
      "d": 266.66666666666606,
      "v": 75
    },
    {
      "midi": 66,
      "hit": false,
      "t": 11866.66666666666,
      "d": 129.16666666666788,
      "v": 75
    },
    {
      "midi": 62,
      "hit": false,
      "t": 11866.66666666666,
      "d": 129.16666666666788,
      "v": 75
    },
    {
      "midi": 57,
      "hit": false,
      "t": 11866.666666666664,
      "d": 66.66666666666606,
      "v": 75
    },
    {
      "midi": 71,
      "hit": false,
      "t": 12399.999999999995,
      "d": 800,
      "v": 92
    },
    {
      "midi": 64,
      "hit": false,
      "t": 12399.999999999995,
      "d": 1133.333333333334,
      "v": 92
    },
    {
      "midi": 60,
      "hit": false,
      "t": 12399.999999999995,
      "d": 1133.333333333334,
      "v": 92
    },
    {
      "midi": 55,
      "hit": false,
      "t": 12399.999999999996,
      "d": 1100,
      "v": 92
    },
    {
      "midi": 48,
      "hit": false,
      "t": 12399.999999999996,
      "d": 1100,
      "v": 92
    },
    {
      "midi": 72,
      "hit": false,
      "t": 13199.999999999995,
      "d": 333.33333333333394,
      "v": 75
    },
    {
      "midi": 71,
      "hit": false,
      "t": 13599.999999999995,
      "d": 266.66666666666606,
      "v": 75
    },
    {
      "midi": 69,
      "hit": false,
      "t": 13866.66666666666,
      "d": 129.16666666666606,
      "v": 75
    },
    {
      "midi": 67,
      "hit": false,
      "t": 14266.66666666666,
      "d": 1062.4999999999982,
      "v": 75
    },
    {
      "midi": 63,
      "hit": false,
      "t": 14666.66666666666,
      "d": 466.66666666666606,
      "v": 60
    },
    {
      "midi": 60,
      "hit": false,
      "t": 14666.66666666666,
      "d": 466.66666666666606,
      "v": 60
    },
    {
      "midi": 57,
      "hit": false,
      "t": 14666.666666666662,
      "d": 466.66666666666606,
      "v": 60
    },
    {
      "midi": 48,
      "hit": false,
      "t": 14666.666666666662,
      "d": 466.66666666666606,
      "v": 60
    },
    {
      "midi": 63,
      "hit": false,
      "t": 15199.999999999993,
      "d": 195.83333333333212,
      "v": 60
    },
    {
      "midi": 60,
      "hit": false,
      "t": 15199.999999999993,
      "d": 195.83333333333212,
      "v": 60
    },
    {
      "midi": 48,
      "hit": false,
      "t": 15199.999999999995,
      "d": 129.16666666666606,
      "v": 60
    },
    {
      "midi": 57,
      "hit": false,
      "t": 15199.999999999995,
      "d": 195.83333333333212,
      "v": 60
    },
    {
      "midi": 68,
      "hit": false,
      "t": 15466.666666666659,
      "d": 129.16666666666606,
      "v": 60
    },
    {
      "midi": 69,
      "hit": false,
      "t": 15599.99999999999,
      "d": 129.16666666666606,
      "v": 63
    },
    {
      "midi": 70,
      "hit": false,
      "t": 15733.333333333323,
      "d": 129.16666666666606,
      "v": 67
    },
    {
      "midi": 71,
      "hit": false,
      "t": 15866.666666666655,
      "d": 866.6666666666697,
      "v": 71
    },
    {
      "midi": 62,
      "hit": false,
      "t": 16266.666666666655,
      "d": 395.83333333333394,
      "v": 75
    },
    {
      "midi": 59,
      "hit": false,
      "t": 16266.666666666655,
      "d": 395.83333333333394,
      "v": 75
    },
    {
      "midi": 57,
      "hit": false,
      "t": 16266.66666666666,
      "d": 466.6666666666679,
      "v": 75
    },
    {
      "midi": 47,
      "hit": false,
      "t": 16266.66666666666,
      "d": 466.6666666666679,
      "v": 75
    },
    {
      "midi": 58,
      "hit": false,
      "t": 16666.666666666657,
      "d": 129.16666666666788,
      "v": 75
    },
    {
      "midi": 59,
      "hit": false,
      "t": 16799.999999999993,
      "d": 262.5,
      "v": 76
    },
    {
      "midi": 61,
      "hit": false,
      "t": 17066.66666666666,
      "d": 129.16666666666788,
      "v": 79
    },
    {
      "midi": 62,
      "hit": false,
      "t": 17199.999999999996,
      "d": 262.5,
      "v": 80
    },
    {
      "midi": 50,
      "hit": false,
      "t": 17466.66666666666,
      "d": 662.5,
      "v": 84
    },
    {
      "midi": 40,
      "hit": false,
      "t": 17466.66666666666,
      "d": 729.1666666666679,
      "v": 84
    },
    {
      "midi": 66,
      "hit": false,
      "t": 17466.666666666664,
      "d": 466.6666666666679,
      "v": 84
    },
    {
      "midi": 59,
      "hit": false,
      "t": 17466.666666666664,
      "d": 729.1666666666715,
      "v": 84
    },
    {
      "midi": 56,
      "hit": false,
      "t": 17466.666666666664,
      "d": 729.1666666666715,
      "v": 84
    },
    {
      "midi": 64,
      "hit": false,
      "t": 18000,
      "d": 129.16666666666788,
      "v": 92
    },
    {
      "midi": 40,
      "hit": false,
      "t": 18399.999999999996,
      "d": 333.3333333333321,
      "v": 98
    },
    {
      "midi": 50,
      "hit": false,
      "t": 18399.999999999996,
      "d": 662.5,
      "v": 98
    },
    {
      "midi": 59,
      "hit": false,
      "t": 18400.000000000004,
      "d": 662.5,
      "v": 98
    },
    {
      "midi": 56,
      "hit": false,
      "t": 18400.000000000004,
      "d": 662.5,
      "v": 98
    },
    {
      "midi": 40,
      "hit": false,
      "t": 18799.999999999996,
      "d": 333.33333333333576,
      "v": 104
    },
    {
      "midi": 45,
      "hit": false,
      "t": 19066.666666666664,
      "d": 133.33333333333576,
      "v": 108
    },
    {
      "midi": 64,
      "hit": false,
      "t": 19066.66666666667,
      "d": 66.66666666666788,
      "v": 108
    },
    {
      "midi": 55,
      "hit": false,
      "t": 19066.66666666667,
      "d": 133.33333333333576,
      "v": 108
    },
    {
      "midi": 60,
      "hit": false,
      "t": 19066.66666666667,
      "d": 133.33333333333576,
      "v": 108
    },
    {
      "midi": 64,
      "hit": false,
      "t": 19600.000000000007,
      "d": 195.83333333333212,
      "v": 92
    },
    {
      "midi": 66,
      "hit": false,
      "t": 20000.000000000007,
      "d": 195.83333333333212,
      "v": 92
    },
    {
      "midi": 67,
      "hit": false,
      "t": 20400.000000000007,
      "d": 262.5,
      "v": 92
    },
    {
      "midi": 69,
      "hit": false,
      "t": 20666.666666666675,
      "d": 1633.3333333333321,
      "v": 92
    },
    {
      "midi": 55,
      "hit": false,
      "t": 21066.666666666668,
      "d": 133.33333333333212,
      "v": 108
    },
    {
      "midi": 45,
      "hit": false,
      "t": 21066.666666666668,
      "d": 195.83333333333212,
      "v": 108
    },
    {
      "midi": 64,
      "hit": false,
      "t": 21066.666666666675,
      "d": 133.33333333333212,
      "v": 108
    },
    {
      "midi": 60,
      "hit": false,
      "t": 21066.666666666675,
      "d": 133.33333333333212,
      "v": 108
    },
    {
      "midi": 45,
      "hit": false,
      "t": 21600,
      "d": 333.3333333333321,
      "v": 108
    },
    {
      "midi": 64,
      "hit": false,
      "t": 21600.000000000007,
      "d": 662.5,
      "v": 108
    },
    {
      "midi": 60,
      "hit": false,
      "t": 21600.000000000007,
      "d": 662.5,
      "v": 108
    },
    {
      "midi": 45,
      "hit": false,
      "t": 22000,
      "d": 262.5,
      "v": 108
    },
    {
      "midi": 55,
      "hit": false,
      "t": 22266.666666666668,
      "d": 66.66666666666788,
      "v": 108
    },
    {
      "midi": 45,
      "hit": false,
      "t": 22266.666666666668,
      "d": 133.33333333333576,
      "v": 108
    },
    {
      "midi": 63,
      "hit": false,
      "t": 22266.666666666675,
      "d": 133.33333333333212,
      "v": 108
    },
    {
      "midi": 60,
      "hit": false,
      "t": 22266.666666666675,
      "d": 133.33333333333212,
      "v": 108
    },
    {
      "midi": 67,
      "hit": false,
      "t": 22800.000000000007,
      "d": 195.83333333333212,
      "v": 92
    },
    {
      "midi": 69,
      "hit": false,
      "t": 23200.000000000007,
      "d": 195.83333333333212,
      "v": 92
    },
    {
      "midi": 71,
      "hit": false,
      "t": 23600.000000000007,
      "d": 262.5,
      "v": 92
    },
    {
      "midi": 38,
      "hit": false,
      "t": 23866.66666666667,
      "d": 262.5,
      "v": 75
    },
    {
      "midi": 72,
      "hit": false,
      "t": 24200.000000000007,
      "d": 100,
      "v": 75
    },
    {
      "midi": 69,
      "hit": false,
      "t": 24300.000000000007,
      "d": 100,
      "v": 73
    },
    {
      "midi": 66,
      "hit": false,
      "t": 24400.000000000007,
      "d": 133.33333333333212,
      "v": 71
    },
    {
      "midi": 64,
      "hit": false,
      "t": 24533.33333333334,
      "d": 133.33333333333212,
      "v": 68
    },
    {
      "midi": 63,
      "hit": false,
      "t": 24666.66666666667,
      "d": 133.33333333333212,
      "v": 64
    },
    {
      "midi": 62,
      "hit": false,
      "t": 24800.000000000004,
      "d": 700,
      "v": 60
    },
    {
      "midi": 38,
      "hit": false,
      "t": 25066.66666666667,
      "d": 466.6666666666679,
      "v": 75
    },
    {
      "midi": 69,
      "hit": false,
      "t": 25600.000000000004,
      "d": 666.6666666666679,
      "v": 75
    },
    {
      "midi": 62,
      "hit": false,
      "t": 25600.000000000004,
      "d": 700,
      "v": 75
    },
    {
      "midi": 59,
      "hit": false,
      "t": 25600.000000000004,
      "d": 700,
      "v": 75
    },
    {
      "midi": 54,
      "hit": false,
      "t": 25600.000000000007,
      "d": 700,
      "v": 75
    },
    {
      "midi": 43,
      "hit": false,
      "t": 25600.000000000007,
      "d": 1133.3333333333321,
      "v": 75
    },
    {
      "midi": 67,
      "hit": false,
      "t": 26266.66666666667,
      "d": 129.16666666666424,
      "v": 75
    },
    {
      "midi": 66,
      "hit": false,
      "t": 26400.000000000004,
      "d": 266.6666666666679,
      "v": 75
    },
    {
      "midi": 62,
      "hit": false,
      "t": 26400.000000000004,
      "d": 333.33333333333576,
      "v": 75
    },
    {
      "midi": 59,
      "hit": false,
      "t": 26400.000000000004,
      "d": 333.33333333333576,
      "v": 75
    },
    {
      "midi": 54,
      "hit": false,
      "t": 26400.000000000007,
      "d": 333.3333333333321,
      "v": 75
    },
    {
      "midi": 67,
      "hit": false,
      "t": 26666.66666666667,
      "d": 129.16666666666788,
      "v": 75
    },
    {
      "midi": 69,
      "hit": false,
      "t": 27066.66666666667,
      "d": 129.16666666666788,
      "v": 75
    },
    {
      "midi": 62,
      "hit": false,
      "t": 27066.66666666667,
      "d": 129.16666666666788,
      "v": 75
    },
    {
      "midi": 59,
      "hit": false,
      "t": 27066.66666666667,
      "d": 129.16666666666788,
      "v": 75
    },
    {
      "midi": 54,
      "hit": false,
      "t": 27066.66666666667,
      "d": 129.16666666666788,
      "v": 75
    },
    {
      "midi": 43,
      "hit": false,
      "t": 27066.66666666667,
      "d": 129.16666666666788,
      "v": 75
    },
    {
      "midi": 69,
      "hit": false,
      "t": 27466.66666666667,
      "d": 466.6666666666679,
      "v": 75
    },
    {
      "midi": 62,
      "hit": false,
      "t": 27466.66666666667,
      "d": 466.6666666666679,
      "v": 75
    },
    {
      "midi": 59,
      "hit": false,
      "t": 27466.66666666667,
      "d": 466.6666666666679,
      "v": 75
    },
    {
      "midi": 54,
      "hit": false,
      "t": 27466.66666666667,
      "d": 466.6666666666679,
      "v": 75
    },
    {
      "midi": 43,
      "hit": false,
      "t": 27466.66666666667,
      "d": 466.6666666666679,
      "v": 75
    },
    {
      "midi": 59,
      "hit": false,
      "t": 28000.000000000007,
      "d": 195.83333333333212,
      "v": 75
    },
    {
      "midi": 43,
      "hit": false,
      "t": 28266.66666666667,
      "d": 129.16666666666788,
      "v": 75
    },
    {
      "midi": 62,
      "hit": false,
      "t": 28400.000000000007,
      "d": 195.83333333333212,
      "v": 75
    },
    {
      "midi": 66,
      "hit": false,
      "t": 28800.000000000007,
      "d": 266.6666666666679,
      "v": 75
    },
    {
      "midi": 59,
      "hit": false,
      "t": 28800.000000000007,
      "d": 333.33333333333576,
      "v": 75
    },
    {
      "midi": 55,
      "hit": false,
      "t": 28800.000000000007,
      "d": 333.33333333333576,
      "v": 75
    },
    {
      "midi": 50,
      "hit": false,
      "t": 28800.000000000007,
      "d": 333.3333333333321,
      "v": 75
    },
    {
      "midi": 40,
      "hit": false,
      "t": 28800.000000000007,
      "d": 333.3333333333321,
      "v": 75
    },
    {
      "midi": 64,
      "hit": false,
      "t": 29066.666666666675,
      "d": 129.16666666666788,
      "v": 75
    },
    {
      "midi": 40,
      "hit": false,
      "t": 29466.66666666667,
      "d": 466.6666666666679,
      "v": 75
    },
    {
      "midi": 50,
      "hit": false,
      "t": 29466.66666666667,
      "d": 1200.0000000000036,
      "v": 75
    },
    {
      "midi": 59,
      "hit": false,
      "t": 29466.666666666675,
      "d": 1195.8333333333321,
      "v": 75
    },
    {
      "midi": 55,
      "hit": false,
      "t": 29466.666666666675,
      "d": 1195.8333333333321,
      "v": 75
    },
    {
      "midi": 64,
      "hit": false,
      "t": 29466.666666666675,
      "d": 1633.3333333333321,
      "v": 75
    },
    {
      "midi": 40,
      "hit": false,
      "t": 30000.000000000007,
      "d": 195.83333333333212,
      "v": 75
    },
    {
      "midi": 40,
      "hit": false,
      "t": 30400.000000000007,
      "d": 333.33333333333576,
      "v": 75
    },
    {
      "midi": 59,
      "hit": false,
      "t": 30666.666666666675,
      "d": 395.8333333333321,
      "v": 60
    },
    {
      "midi": 55,
      "hit": false,
      "t": 30666.666666666675,
      "d": 395.8333333333321,
      "v": 60
    },
    {
      "midi": 50,
      "hit": false,
      "t": 30666.666666666675,
      "d": 400.00000000000364,
      "v": 60
    },
    {
      "midi": 40,
      "hit": false,
      "t": 30800.00000000001,
      "d": 333.33333333333576,
      "v": 60
    },
    {
      "midi": 59,
      "hit": false,
      "t": 31066.666666666675,
      "d": 129.16666666666424,
      "v": 60
    },
    {
      "midi": 55,
      "hit": false,
      "t": 31066.666666666675,
      "d": 129.16666666666424,
      "v": 60
    },
    {
      "midi": 50,
      "hit": false,
      "t": 31066.66666666668,
      "d": 129.16666666666788,
      "v": 60
    },
    {
      "midi": 64,
      "hit": false,
      "t": 31600.000000000007,
      "d": 733.3333333333321,
      "v": 75
    },
    {
      "midi": 60,
      "hit": false,
      "t": 31600.000000000007,
      "d": 733.3333333333321,
      "v": 75
    },
    {
      "midi": 55,
      "hit": false,
      "t": 31600.000000000015,
      "d": 733.3333333333321,
      "v": 75
    },
    {
      "midi": 45,
      "hit": false,
      "t": 31600.000000000015,
      "d": 1500,
      "v": 75
    },
    {
      "midi": 71,
      "hit": false,
      "t": 32400.000000000007,
      "d": 400,
      "v": 71
    },
    {
      "midi": 55,
      "hit": false,
      "t": 32400.000000000015,
      "d": 662.5,
      "v": 71
    },
    {
      "midi": 69,
      "hit": false,
      "t": 32800.00000000001,
      "d": 262.5,
      "v": 69
    },
    {
      "midi": 64,
      "hit": false,
      "t": 33066.66666666667,
      "d": 66.66666666666424,
      "v": 68
    },
    {
      "midi": 60,
      "hit": false,
      "t": 33066.66666666667,
      "d": 66.66666666666424,
      "v": 68
    },
    {
      "midi": 67,
      "hit": false,
      "t": 33066.66666666667,
      "d": 129.16666666666424,
      "v": 68
    },
    {
      "midi": 55,
      "hit": false,
      "t": 33066.66666666668,
      "d": 129.16666666667152,
      "v": 68
    },
    {
      "midi": 64,
      "hit": false,
      "t": 33466.666666666664,
      "d": 795.8333333333358,
      "v": 66
    },
    {
      "midi": 60,
      "hit": false,
      "t": 33466.666666666664,
      "d": 795.8333333333358,
      "v": 66
    },
    {
      "midi": 69,
      "hit": false,
      "t": 33466.666666666664,
      "d": 1195.8333333333358,
      "v": 66
    },
    {
      "midi": 55,
      "hit": false,
      "t": 33466.666666666686,
      "d": 795.8333333333358,
      "v": 66
    },
    {
      "midi": 64,
      "hit": false,
      "t": 34266.666666666664,
      "d": 466.66666666666424,
      "v": 60
    },
    {
      "midi": 60,
      "hit": false,
      "t": 34266.666666666664,
      "d": 466.66666666666424,
      "v": 60
    },
    {
      "midi": 54,
      "hit": false,
      "t": 34266.666666666686,
      "d": 466.66666666666424,
      "v": 60
    },
    {
      "midi": 70,
      "hit": false,
      "t": 34666.666666666664,
      "d": 129.16666666666424,
      "v": 60
    },
    {
      "midi": 71,
      "hit": false,
      "t": 34799.99999999999,
      "d": 129.16666666666424,
      "v": 68
    },
    {
      "midi": 72,
      "hit": false,
      "t": 34933.33333333332,
      "d": 129.16666666666424,
      "v": 76
    },
    {
      "midi": 73,
      "hit": false,
      "t": 35066.66666666665,
      "d": 129.16666666666424,
      "v": 84
    },
    {
      "midi": 74,
      "hit": false,
      "t": 35199.99999999998,
      "d": 262.5,
      "v": 92
    },
    {
      "midi": 71,
      "hit": false,
      "t": 35466.66666666664,
      "d": 129.16666666666424,
      "v": 92
    },
    {
      "midi": 66,
      "hit": false,
      "t": 35466.66666666664,
      "d": 195.83333333332848,
      "v": 92
    },
    {
      "midi": 62,
      "hit": false,
      "t": 35466.66666666664,
      "d": 195.83333333332848,
      "v": 92
    },
    {
      "midi": 47,
      "hit": false,
      "t": 35466.666666666686,
      "d": 129.16666666666424,
      "v": 92
    },
    {
      "midi": 57,
      "hit": false,
      "t": 35466.666666666686,
      "d": 195.83333333332848,
      "v": 92
    },
    {
      "midi": 66,
      "hit": false,
      "t": 35866.666666666635,
      "d": 1195.8333333333358,
      "v": 92
    },
    {
      "midi": 62,
      "hit": false,
      "t": 35866.666666666635,
      "d": 1195.8333333333358,
      "v": 92
    },
    {
      "midi": 71,
      "hit": false,
      "t": 35866.666666666635,
      "d": 1633.3333333333358,
      "v": 92
    },
    {
      "midi": 47,
      "hit": false,
      "t": 35866.66666666668,
      "d": 466.66666666666424,
      "v": 92
    },
    {
      "midi": 57,
      "hit": false,
      "t": 35866.66666666668,
      "d": 833.3333333333285,
      "v": 92
    },
    {
      "midi": 47,
      "hit": false,
      "t": 36400.00000000001,
      "d": 195.83333333333576,
      "v": 92
    },
    {
      "midi": 47,
      "hit": false,
      "t": 36800.00000000001,
      "d": 266.66666666666424,
      "v": 92
    },
    {
      "midi": 66,
      "hit": false,
      "t": 37066.666666666635,
      "d": 395.83333333333576,
      "v": 75
    },
    {
      "midi": 62,
      "hit": false,
      "t": 37066.666666666635,
      "d": 395.83333333333576,
      "v": 75
    },
    {
      "midi": 47,
      "hit": false,
      "t": 37200.00000000001,
      "d": 266.66666666666424,
      "v": 92
    },
    {
      "midi": 66,
      "hit": false,
      "t": 37466.666666666635,
      "d": 129.16666666667152,
      "v": 75
    },
    {
      "midi": 62,
      "hit": false,
      "t": 37466.666666666635,
      "d": 129.16666666667152,
      "v": 75
    },
    {
      "midi": 57,
      "hit": false,
      "t": 37466.66666666667,
      "d": 66.66666666666424,
      "v": 75
    },
    {
      "midi": 71,
      "hit": false,
      "t": 37999.99999999997,
      "d": 195.83333333333576,
      "v": 108
    },
    {
      "midi": 64,
      "hit": false,
      "t": 37999.99999999997,
      "d": 195.83333333333576,
      "v": 108
    },
    {
      "midi": 60,
      "hit": false,
      "t": 37999.99999999997,
      "d": 195.83333333333576,
      "v": 108
    },
    {
      "midi": 55,
      "hit": false,
      "t": 38000,
      "d": 195.83333333333576,
      "v": 108
    },
    {
      "midi": 48,
      "hit": false,
      "t": 38000,
      "d": 195.83333333333576,
      "v": 108
    },
    {
      "midi": 69,
      "hit": false,
      "t": 38666.66666666664,
      "d": 129.16666666666424,
      "v": 92
    },
    {
      "midi": 70,
      "hit": false,
      "t": 38799.99999999997,
      "d": 133.33333333333576,
      "v": 92
    },
    {
      "midi": 71,
      "hit": false,
      "t": 38933.33333333331,
      "d": 133.33333333333576,
      "v": 92
    },
    {
      "midi": 72,
      "hit": false,
      "t": 39066.66666666664,
      "d": 129.16666666666424,
      "v": 92
    },
    {
      "midi": 71,
      "hit": false,
      "t": 39199.99999999997,
      "d": 266.66666666666424,
      "v": 92
    },
    {
      "midi": 66,
      "hit": false,
      "t": 39466.666666666635,
      "d": 129.16666666666424,
      "v": 92
    },
    {
      "midi": 69,
      "hit": false,
      "t": 39599.99999999996,
      "d": 266.66666666666424,
      "v": 92
    },
    {
      "midi": 67,
      "hit": false,
      "t": 39866.66666666663,
      "d": 1062.4999999999927,
      "v": 92
    },
    {
      "midi": 63,
      "hit": false,
      "t": 40266.66666666663,
      "d": 466.66666666666424,
      "v": 108
    },
    {
      "midi": 60,
      "hit": false,
      "t": 40266.66666666663,
      "d": 466.66666666666424,
      "v": 108
    },
    {
      "midi": 57,
      "hit": false,
      "t": 40266.66666666667,
      "d": 466.66666666666424,
      "v": 108
    },
    {
      "midi": 48,
      "hit": false,
      "t": 40266.66666666667,
      "d": 466.66666666666424,
      "v": 108
    },
    {
      "midi": 63,
      "hit": false,
      "t": 40799.999999999956,
      "d": 195.83333333332848,
      "v": 108
    },
    {
      "midi": 60,
      "hit": false,
      "t": 40799.999999999956,
      "d": 195.83333333332848,
      "v": 108
    },
    {
      "midi": 48,
      "hit": false,
      "t": 40800,
      "d": 129.16666666666424,
      "v": 108
    },
    {
      "midi": 57,
      "hit": false,
      "t": 40800,
      "d": 195.83333333332848,
      "v": 108
    },
    {
      "midi": 68,
      "hit": false,
      "t": 41066.66666666662,
      "d": 129.16666666666424,
      "v": 92
    },
    {
      "midi": 69,
      "hit": false,
      "t": 41199.99999999995,
      "d": 129.16666666666424,
      "v": 92
    },
    {
      "midi": 70,
      "hit": false,
      "t": 41333.33333333328,
      "d": 129.16666666666424,
      "v": 92
    },
    {
      "midi": 71,
      "hit": false,
      "t": 41466.666666666606,
      "d": 866.6666666666642,
      "v": 92
    },
    {
      "midi": 62,
      "hit": false,
      "t": 41866.666666666606,
      "d": 395.83333333333576,
      "v": 92
    },
    {
      "midi": 59,
      "hit": false,
      "t": 41866.666666666606,
      "d": 395.83333333333576,
      "v": 92
    },
    {
      "midi": 57,
      "hit": false,
      "t": 41866.666666666664,
      "d": 466.66666666666424,
      "v": 108
    },
    {
      "midi": 47,
      "hit": false,
      "t": 41866.666666666664,
      "d": 466.66666666666424,
      "v": 108
    },
    {
      "midi": 58,
      "hit": false,
      "t": 42266.666666666606,
      "d": 129.16666666666424,
      "v": 92
    },
    {
      "midi": 59,
      "hit": false,
      "t": 42399.999999999935,
      "d": 262.5,
      "v": 92
    },
    {
      "midi": 61,
      "hit": false,
      "t": 42666.6666666666,
      "d": 129.16666666666424,
      "v": 92
    },
    {
      "midi": 62,
      "hit": false,
      "t": 42799.99999999993,
      "d": 262.5,
      "v": 92
    },
    {
      "midi": 66,
      "hit": false,
      "t": 43066.66666666659,
      "d": 466.66666666666424,
      "v": 92
    },
    {
      "midi": 59,
      "hit": false,
      "t": 43066.66666666659,
      "d": 729.166666666657,
      "v": 92
    },
    {
      "midi": 56,
      "hit": false,
      "t": 43066.66666666659,
      "d": 729.166666666657,
      "v": 92
    },
    {
      "midi": 50,
      "hit": false,
      "t": 43066.666666666664,
      "d": 662.5,
      "v": 108
    },
    {
      "midi": 40,
      "hit": false,
      "t": 43066.666666666664,
      "d": 729.1666666666642,
      "v": 108
    },
    {
      "midi": 64,
      "hit": false,
      "t": 43599.99999999992,
      "d": 129.16666666666424,
      "v": 92
    },
    {
      "midi": 59,
      "hit": false,
      "t": 43999.99999999991,
      "d": 662.5,
      "v": 92
    },
    {
      "midi": 56,
      "hit": false,
      "t": 43999.99999999991,
      "d": 662.5,
      "v": 92
    },
    {
      "midi": 40,
      "hit": false,
      "t": 43999.99999999999,
      "d": 333.33333333333576,
      "v": 108
    },
    {
      "midi": 50,
      "hit": false,
      "t": 43999.99999999999,
      "d": 662.5,
      "v": 108
    },
    {
      "midi": 40,
      "hit": false,
      "t": 44399.99999999999,
      "d": 333.3333333333285,
      "v": 108
    },
    {
      "midi": 64,
      "hit": false,
      "t": 44666.66666666658,
      "d": 66.66666666666424,
      "v": 92
    },
    {
      "midi": 55,
      "hit": false,
      "t": 44666.66666666658,
      "d": 133.33333333332848,
      "v": 92
    },
    {
      "midi": 60,
      "hit": false,
      "t": 44666.66666666658,
      "d": 133.33333333332848,
      "v": 92
    },
    {
      "midi": 45,
      "hit": false,
      "t": 44666.66666666666,
      "d": 133.33333333332848,
      "v": 108
    },
    {
      "midi": 71,
      "hit": false,
      "t": 45199.999999999905,
      "d": 400,
      "v": 92
    },
    {
      "midi": 45,
      "hit": false,
      "t": 45199.999999999985,
      "d": 662.5,
      "v": 108
    },
    {
      "midi": 55,
      "hit": false,
      "t": 45199.999999999985,
      "d": 733.3333333333285,
      "v": 108
    },
    {
      "midi": 69,
      "hit": false,
      "t": 45599.999999999905,
      "d": 262.5,
      "v": 92
    },
    {
      "midi": 64,
      "hit": false,
      "t": 45866.66666666657,
      "d": 66.66666666666424,
      "v": 92
    },
    {
      "midi": 60,
      "hit": false,
      "t": 45866.66666666657,
      "d": 66.66666666666424,
      "v": 92
    },
    {
      "midi": 67,
      "hit": false,
      "t": 45866.66666666657,
      "d": 129.16666666666424,
      "v": 92
    },
    {
      "midi": 45,
      "hit": false,
      "t": 45866.66666666665,
      "d": 129.16666666666424,
      "v": 108
    },
    {
      "midi": 69,
      "hit": false,
      "t": 46266.66666666656,
      "d": 833.3333333333358,
      "v": 92
    },
    {
      "midi": 64,
      "hit": false,
      "t": 46266.66666666656,
      "d": 833.3333333333358,
      "v": 92
    },
    {
      "midi": 60,
      "hit": false,
      "t": 46266.66666666656,
      "d": 833.3333333333358,
      "v": 92
    },
    {
      "midi": 55,
      "hit": false,
      "t": 46266.66666666665,
      "d": 833.3333333333358,
      "v": 92
    },
    {
      "midi": 50,
      "hit": false,
      "t": 46266.66666666665,
      "d": 833.3333333333358,
      "v": 92
    },
    {
      "midi": 66,
      "hit": false,
      "t": 47199.9999999999,
      "d": 700,
      "v": 92
    },
    {
      "midi": 57,
      "hit": false,
      "t": 47199.9999999999,
      "d": 700,
      "v": 92
    },
    {
      "midi": 60,
      "hit": false,
      "t": 47199.9999999999,
      "d": 700,
      "v": 92
    },
    {
      "midi": 64,
      "hit": false,
      "t": 47199.9999999999,
      "d": 700,
      "v": 92
    },
    {
      "midi": 38,
      "hit": false,
      "t": 47199.999999999985,
      "d": 700,
      "v": 92
    },
    {
      "midi": 66,
      "hit": false,
      "t": 47999.9999999999,
      "d": 662.5,
      "v": 92
    },
    {
      "midi": 57,
      "hit": false,
      "t": 47999.9999999999,
      "d": 733.3333333333285,
      "v": 92
    },
    {
      "midi": 60,
      "hit": false,
      "t": 47999.9999999999,
      "d": 733.3333333333285,
      "v": 92
    },
    {
      "midi": 43,
      "hit": false,
      "t": 47999.999999999985,
      "d": 662.5,
      "v": 92
    },
    {
      "midi": 62,
      "hit": false,
      "t": 48666.66666666656,
      "d": 66.66666666666424,
      "v": 92
    },
    {
      "midi": 59,
      "hit": false,
      "t": 48666.66666666656,
      "d": 833.3333333333285,
      "v": 92
    },
    {
      "midi": 67,
      "hit": false,
      "t": 48666.66666666656,
      "d": 833.3333333333285,
      "v": 92
    },
    {
      "midi": 52,
      "hit": false,
      "t": 48666.66666666665,
      "d": 833.3333333333358,
      "v": 92
    },
    {
      "midi": 43,
      "hit": false,
      "t": 48666.66666666665,
      "d": 833.3333333333358,
      "v": 92
    },
    {
      "midi": 43,
      "hit": false,
      "t": 49599.999999999985,
      "d": 129.16666666666424,
      "v": 92
    },
    {
      "midi": 54,
      "hit": false,
      "t": 49799.999999999985,
      "d": 62.5,
      "v": 92
    },
    {
      "midi": 55,
      "hit": false,
      "t": 49866.66666666665,
      "d": 466.66666666666424,
      "v": 92
    },
    {
      "midi": 50,
      "hit": false,
      "t": 50399.99999999998,
      "d": 195.83333333333576,
      "v": 92
    },
    {
      "midi": 46,
      "hit": false,
      "t": 50749.99999999998,
      "d": 45.83333333333576,
      "v": 92
    },
    {
      "midi": 47,
      "hit": false,
      "t": 50799.99999999998,
      "d": 266.66666666666424,
      "v": 92
    },
    {
      "midi": 43,
      "hit": false,
      "t": 51066.66666666664,
      "d": 129.16666666666424,
      "v": 92
    },
    {
      "midi": 85,
      "hit": false,
      "t": 51999.99999999989,
      "d": 45.83333333333576,
      "v": 75
    },
    {
      "midi": 79,
      "hit": false,
      "t": 51999.99999999989,
      "d": 733.3333333333358,
      "v": 75
    },
    {
      "midi": 70,
      "hit": false,
      "t": 51999.99999999997,
      "d": 45.83333333333576,
      "v": 75
    },
    {
      "midi": 86,
      "hit": false,
      "t": 52049.99999999989,
      "d": 683.3333333333358,
      "v": 75
    },
    {
      "midi": 71,
      "hit": false,
      "t": 52049.99999999997,
      "d": 683.3333333333358,
      "v": 75
    },
    {
      "midi": 83,
      "hit": false,
      "t": 52799.99999999989,
      "d": 700,
      "v": 75
    },
    {
      "midi": 74,
      "hit": false,
      "t": 52799.99999999989,
      "d": 700,
      "v": 75
    },
    {
      "midi": 67,
      "hit": false,
      "t": 52799.99999999997,
      "d": 700,
      "v": 75
    },
    {
      "midi": 79,
      "hit": false,
      "t": 53599.99999999989,
      "d": 700,
      "v": 75
    },
    {
      "midi": 71,
      "hit": false,
      "t": 53599.99999999989,
      "d": 700,
      "v": 75
    },
    {
      "midi": 62,
      "hit": false,
      "t": 53599.99999999997,
      "d": 700,
      "v": 75
    },
    {
      "midi": 78,
      "hit": false,
      "t": 54399.99999999989,
      "d": 266.66666666666424,
      "v": 75
    },
    {
      "midi": 69,
      "hit": false,
      "t": 54399.99999999989,
      "d": 733.3333333333212,
      "v": 75
    },
    {
      "midi": 59,
      "hit": false,
      "t": 54399.99999999997,
      "d": 700,
      "v": 75
    },
    {
      "midi": 79,
      "hit": false,
      "t": 54666.666666666555,
      "d": 129.16666666666424,
      "v": 81
    },
    {
      "midi": 78,
      "hit": false,
      "t": 54799.99999999988,
      "d": 266.66666666666424,
      "v": 84
    },
    {
      "midi": 76,
      "hit": false,
      "t": 55066.66666666655,
      "d": 129.16666666666424,
      "v": 92
    },
    {
      "midi": 67,
      "hit": false,
      "t": 55066.66666666655,
      "d": 195.83333333332848,
      "v": 92
    },
    {
      "midi": 52,
      "hit": false,
      "t": 55066.666666666635,
      "d": 129.16666666667152,
      "v": 92
    },
    {
      "midi": 78,
      "hit": false,
      "t": 55599.999999999876,
      "d": 266.66666666666424,
      "v": 75
    },
    {
      "midi": 69,
      "hit": false,
      "t": 55599.999999999876,
      "d": 733.3333333333212,
      "v": 75
    },
    {
      "midi": 59,
      "hit": false,
      "t": 55599.99999999997,
      "d": 733.3333333333285,
      "v": 75
    },
    {
      "midi": 79,
      "hit": false,
      "t": 55866.66666666654,
      "d": 129.16666666666424,
      "v": 81
    },
    {
      "midi": 78,
      "hit": false,
      "t": 55999.99999999987,
      "d": 266.66666666666424,
      "v": 84
    },
    {
      "midi": 76,
      "hit": false,
      "t": 56266.66666666653,
      "d": 129.16666666666424,
      "v": 92
    },
    {
      "midi": 67,
      "hit": false,
      "t": 56266.66666666653,
      "d": 195.83333333332848,
      "v": 92
    },
    {
      "midi": 52,
      "hit": false,
      "t": 56266.666666666635,
      "d": 129.16666666666424,
      "v": 92
    },
    {
      "midi": 67,
      "hit": false,
      "t": 56799.99999999986,
      "d": 129.16666666666424,
      "v": 92
    },
    {
      "midi": 76,
      "hit": false,
      "t": 56799.99999999986,
      "d": 195.83333333332848,
      "v": 92
    },
    {
      "midi": 52,
      "hit": false,
      "t": 56799.99999999996,
      "d": 129.16666666666424,
      "v": 92
    },
    {
      "midi": 59,
      "hit": false,
      "t": 56799.99999999996,
      "d": 195.83333333332848,
      "v": 92
    },
    {
      "midi": 44,
      "hit": false,
      "t": 57066.66666666663,
      "d": 395.83333333333576,
      "v": 92
    },
    {
      "midi": 62,
      "hit": false,
      "t": 57199.999999999854,
      "d": 266.66666666666424,
      "v": 92
    },
    {
      "midi": 59,
      "hit": false,
      "t": 57199.999999999854,
      "d": 266.66666666666424,
      "v": 92
    },
    {
      "midi": 52,
      "hit": false,
      "t": 57199.99999999996,
      "d": 333.3333333333285,
      "v": 92
    },
    {
      "midi": 60,
      "hit": false,
      "t": 57466.66666666652,
      "d": 133.33333333333576,
      "v": 92
    },
    {
      "midi": 57,
      "hit": false,
      "t": 57466.66666666652,
      "d": 133.33333333333576,
      "v": 92
    },
    {
      "midi": 45,
      "hit": false,
      "t": 57466.66666666663,
      "d": 133.33333333332848,
      "v": 92
    },
    {
      "midi": 87,
      "hit": false,
      "t": 58399.999999999854,
      "d": 45.83333333333576,
      "v": 75
    },
    {
      "midi": 81,
      "hit": false,
      "t": 58399.999999999854,
      "d": 733.3333333333358,
      "v": 75
    },
    {
      "midi": 71,
      "hit": false,
      "t": 58399.999999999956,
      "d": 45.83333333333576,
      "v": 75
    },
    {
      "midi": 88,
      "hit": false,
      "t": 58449.999999999854,
      "d": 683.3333333333358,
      "v": 75
    },
    {
      "midi": 72,
      "hit": false,
      "t": 58449.999999999956,
      "d": 683.3333333333358,
      "v": 75
    },
    {
      "midi": 84,
      "hit": false,
      "t": 59199.999999999854,
      "d": 700,
      "v": 75
    },
    {
      "midi": 76,
      "hit": false,
      "t": 59199.999999999854,
      "d": 700,
      "v": 75
    },
    {
      "midi": 69,
      "hit": false,
      "t": 59199.999999999956,
      "d": 700,
      "v": 75
    },
    {
      "midi": 81,
      "hit": false,
      "t": 59999.999999999854,
      "d": 700,
      "v": 75
    },
    {
      "midi": 72,
      "hit": false,
      "t": 59999.999999999854,
      "d": 700,
      "v": 75
    },
    {
      "midi": 64,
      "hit": false,
      "t": 59999.999999999956,
      "d": 700,
      "v": 75
    },
    {
      "midi": 50,
      "hit": false,
      "t": 60799.999999999956,
      "d": 333.33333333333576,
      "v": 75
    },
    {
      "midi": 79,
      "hit": false,
      "t": 61599.999999999854,
      "d": 266.66666666666424,
      "v": 75
    },
    {
      "midi": 62,
      "hit": false,
      "t": 61599.999999999956,
      "d": 662.5,
      "v": 75
    },
    {
      "midi": 81,
      "hit": false,
      "t": 61866.66666666652,
      "d": 129.16666666666424,
      "v": 74
    },
    {
      "midi": 79,
      "hit": false,
      "t": 61999.99999999985,
      "d": 266.66666666666424,
      "v": 74
    },
    {
      "midi": 76,
      "hit": false,
      "t": 62266.66666666651,
      "d": 66.66666666666424,
      "v": 73
    },
    {
      "midi": 72,
      "hit": false,
      "t": 62266.66666666651,
      "d": 66.66666666666424,
      "v": 73
    },
    {
      "midi": 78,
      "hit": false,
      "t": 62266.66666666651,
      "d": 833.3333333333285,
      "v": 73
    },
    {
      "midi": 69,
      "hit": false,
      "t": 62266.66666666662,
      "d": 66.66666666666424,
      "v": 72
    },
    {
      "midi": 62,
      "hit": false,
      "t": 62266.66666666662,
      "d": 466.66666666666424,
      "v": 72
    },
    {
      "midi": 57,
      "hit": false,
      "t": 62799.99999999995,
      "d": 129.16666666666424,
      "v": 69
    },
    {
      "midi": 50,
      "hit": false,
      "t": 63199.99999999995,
      "d": 62.5,
      "v": 66
    },
    {
      "midi": 62,
      "hit": false,
      "t": 63266.66666666661,
      "d": 195.83333333333576,
      "v": 66
    },
    {
      "midi": 48,
      "hit": false,
      "t": 63599.99999999995,
      "d": 129.16666666666424,
      "v": 64
    },
    {
      "midi": 70,
      "hit": false,
      "t": 63999.99999999984,
      "d": 400,
      "v": 60
    },
    {
      "midi": 66,
      "hit": false,
      "t": 63999.99999999984,
      "d": 533.3333333333358,
      "v": 60
    },
    {
      "midi": 62,
      "hit": false,
      "t": 63999.99999999984,
      "d": 533.3333333333358,
      "v": 60
    },
    {
      "midi": 57,
      "hit": false,
      "t": 63999.99999999995,
      "d": 533.3333333333358,
      "v": 60
    },
    {
      "midi": 47,
      "hit": false,
      "t": 63999.99999999995,
      "d": 533.3333333333358,
      "v": 60
    },
    {
      "midi": 71,
      "hit": false,
      "t": 64399.99999999984,
      "d": 195.83333333333576,
      "v": 62
    },
    {
      "midi": 73,
      "hit": false,
      "t": 64799.99999999984,
      "d": 266.66666666666424,
      "v": 64
    },
    {
      "midi": 74,
      "hit": false,
      "t": 65066.666666666504,
      "d": 129.16666666666424,
      "v": 65
    },
    {
      "midi": 78,
      "hit": false,
      "t": 65466.666666666504,
      "d": 466.66666666666424,
      "v": 66
    },
    {
      "midi": 74,
      "hit": false,
      "t": 65999.99999999984,
      "d": 400,
      "v": 70
    },
    {
      "midi": 76,
      "hit": false,
      "t": 66399.99999999984,
      "d": 266.6666666666715,
      "v": 73
    },
    {
      "midi": 78,
      "hit": false,
      "t": 66666.66666666651,
      "d": 129.16666666667152,
      "v": 75
    },
    {
      "midi": 81,
      "hit": false,
      "t": 67066.66666666651,
      "d": 533.3333333333285,
      "v": 75
    },
    {
      "midi": 74,
      "hit": false,
      "t": 67066.66666666651,
      "d": 833.3333333333285,
      "v": 75
    },
    {
      "midi": 71,
      "hit": false,
      "t": 67066.66666666651,
      "d": 833.3333333333285,
      "v": 75
    },
    {
      "midi": 64,
      "hit": false,
      "t": 67066.66666666661,
      "d": 833.3333333333285,
      "v": 75
    },
    {
      "midi": 79,
      "hit": false,
      "t": 67599.99999999984,
      "d": 333.3333333333285,
      "v": 80
    },
    {
      "midi": 81,
      "hit": false,
      "t": 67999.99999999984,
      "d": 266.6666666666715,
      "v": 84
    },
    {
      "midi": 74,
      "hit": false,
      "t": 67999.99999999984,
      "d": 333.33333333334303,
      "v": 84
    },
    {
      "midi": 71,
      "hit": false,
      "t": 67999.99999999984,
      "d": 333.33333333334303,
      "v": 84
    },
    {
      "midi": 64,
      "hit": false,
      "t": 67999.99999999994,
      "d": 333.3333333333285,
      "v": 84
    },
    {
      "midi": 83,
      "hit": false,
      "t": 68266.66666666651,
      "d": 129.16666666667152,
      "v": 86
    },
    {
      "midi": 76,
      "hit": false,
      "t": 68799.99999999985,
      "d": 662.5,
      "v": 92
    },
    {
      "midi": 62,
      "hit": false,
      "t": 68799.99999999994,
      "d": 662.5,
      "v": 92
    },
    {
      "midi": 71,
      "hit": false,
      "t": 69466.66666666653,
      "d": 66.66666666667152,
      "v": 92
    },
    {
      "midi": 67,
      "hit": false,
      "t": 69466.66666666653,
      "d": 66.66666666667152,
      "v": 92
    },
    {
      "midi": 76,
      "hit": false,
      "t": 69466.66666666653,
      "d": 129.16666666667152,
      "v": 92
    },
    {
      "midi": 62,
      "hit": false,
      "t": 69466.66666666661,
      "d": 129.16666666667152,
      "v": 92
    },
    {
      "midi": 44,
      "hit": false,
      "t": 69866.66666666661,
      "d": 395.8333333333285,
      "v": 75
    },
    {
      "midi": 59,
      "hit": false,
      "t": 69999.99999999987,
      "d": 262.5,
      "v": 75
    },
    {
      "midi": 64,
      "hit": false,
      "t": 69999.99999999987,
      "d": 333.33333333334303,
      "v": 75
    },
    {
      "midi": 52,
      "hit": false,
      "t": 69999.99999999994,
      "d": 333.33333333334303,
      "v": 75
    },
    {
      "midi": 60,
      "hit": false,
      "t": 70266.66666666654,
      "d": 129.16666666667152,
      "v": 75
    },
    {
      "midi": 57,
      "hit": false,
      "t": 70266.66666666654,
      "d": 129.16666666667152,
      "v": 75
    },
    {
      "midi": 45,
      "hit": false,
      "t": 70266.66666666661,
      "d": 133.33333333334303,
      "v": 75
    },
    {
      "midi": 71,
      "hit": false,
      "t": 71866.66666666654,
      "d": 133.33333333332848,
      "v": 60
    },
    {
      "midi": 63,
      "hit": false,
      "t": 71866.66666666663,
      "d": 133.33333333332848,
      "v": 60
    },
    {
      "midi": 72,
      "hit": false,
      "t": 71999.99999999987,
      "d": 195.83333333332848,
      "v": 60
    },
    {
      "midi": 64,
      "hit": false,
      "t": 71999.99999999996,
      "d": 195.83333333332848,
      "v": 60
    },
    {
      "midi": 68,
      "hit": false,
      "t": 72399.99999999987,
      "d": 266.6666666666715,
      "v": 60
    },
    {
      "midi": 59,
      "hit": false,
      "t": 72399.99999999996,
      "d": 266.6666666666715,
      "v": 60
    },
    {
      "midi": 69,
      "hit": false,
      "t": 72666.66666666654,
      "d": 129.16666666667152,
      "v": 60
    },
    {
      "midi": 60,
      "hit": false,
      "t": 72666.66666666663,
      "d": 129.16666666667152,
      "v": 60
    },
    {
      "midi": 69,
      "hit": false,
      "t": 73066.66666666654,
      "d": 329.1666666666715,
      "v": 75
    },
    {
      "midi": 64,
      "hit": false,
      "t": 73066.66666666654,
      "d": 329.1666666666715,
      "v": 75
    },
    {
      "midi": 60,
      "hit": false,
      "t": 73066.66666666654,
      "d": 329.1666666666715,
      "v": 75
    },
    {
      "midi": 55,
      "hit": false,
      "t": 73066.66666666663,
      "d": 329.16666666665697,
      "v": 75
    },
    {
      "midi": 45,
      "hit": false,
      "t": 73199.99999999996,
      "d": 195.83333333332848,
      "v": 76
    },
    {
      "midi": 55,
      "hit": false,
      "t": 73599.99999999988,
      "d": 29.166666666671517,
      "v": 78
    },
    {
      "midi": 38,
      "hit": false,
      "t": 73599.99999999996,
      "d": 662.5,
      "v": 78
    },
    {
      "midi": 60,
      "hit": false,
      "t": 73633.33333333323,
      "d": 633.3333333333285,
      "v": 78
    },
    {
      "midi": 64,
      "hit": false,
      "t": 73666.66666666656,
      "d": 600,
      "v": 78
    },
    {
      "midi": 69,
      "hit": false,
      "t": 73699.99999999988,
      "d": 633.333333333343,
      "v": 78
    },
    {
      "midi": 67,
      "hit": false,
      "t": 74266.66666666656,
      "d": 95.83333333334303,
      "v": 83
    },
    {
      "midi": 69,
      "hit": false,
      "t": 74399.9999999999,
      "d": 266.6666666666715,
      "v": 84
    },
    {
      "midi": 71,
      "hit": false,
      "t": 74666.66666666657,
      "d": 129.16666666667152,
      "v": 87
    },
    {
      "midi": 72,
      "hit": false,
      "t": 75066.66666666657,
      "d": 833.3333333333285,
      "v": 92
    },
    {
      "midi": 67,
      "hit": false,
      "t": 75066.66666666657,
      "d": 833.3333333333285,
      "v": 92
    },
    {
      "midi": 64,
      "hit": false,
      "t": 75066.66666666657,
      "d": 833.3333333333285,
      "v": 92
    },
    {
      "midi": 60,
      "hit": false,
      "t": 75066.66666666663,
      "d": 833.3333333333285,
      "v": 92
    },
    {
      "midi": 50,
      "hit": false,
      "t": 75066.66666666663,
      "d": 833.3333333333285,
      "v": 92
    },
    {
      "midi": 74,
      "hit": false,
      "t": 75999.9999999999,
      "d": 400,
      "v": 92
    },
    {
      "midi": 63,
      "hit": false,
      "t": 75999.9999999999,
      "d": 700,
      "v": 92
    },
    {
      "midi": 69,
      "hit": false,
      "t": 75999.9999999999,
      "d": 700,
      "v": 92
    },
    {
      "midi": 66,
      "hit": false,
      "t": 75999.9999999999,
      "d": 700,
      "v": 92
    },
    {
      "midi": 60,
      "hit": false,
      "t": 75999.99999999996,
      "d": 700,
      "v": 92
    },
    {
      "midi": 50,
      "hit": false,
      "t": 75999.99999999996,
      "d": 700,
      "v": 92
    },
    {
      "midi": 72,
      "hit": false,
      "t": 76399.9999999999,
      "d": 333.3333333333285,
      "v": 92
    },
    {
      "midi": 71,
      "hit": false,
      "t": 76799.9999999999,
      "d": 333.3333333333285,
      "v": 92
    },
    {
      "midi": 66,
      "hit": false,
      "t": 76799.9999999999,
      "d": 333.3333333333285,
      "v": 92
    },
    {
      "midi": 62,
      "hit": false,
      "t": 76799.9999999999,
      "d": 333.3333333333285,
      "v": 92
    },
    {
      "midi": 55,
      "hit": false,
      "t": 76799.99999999996,
      "d": 333.3333333333285,
      "v": 92
    },
    {
      "midi": 85,
      "hit": false,
      "t": 77599.9999999999,
      "d": 45.83333333332848,
      "v": 75
    },
    {
      "midi": 79,
      "hit": false,
      "t": 77599.9999999999,
      "d": 733.3333333333285,
      "v": 75
    },
    {
      "midi": 70,
      "hit": false,
      "t": 77599.99999999996,
      "d": 45.83333333332848,
      "v": 75
    },
    {
      "midi": 86,
      "hit": false,
      "t": 77649.9999999999,
      "d": 683.3333333333285,
      "v": 75
    },
    {
      "midi": 71,
      "hit": false,
      "t": 77649.99999999996,
      "d": 683.3333333333285,
      "v": 75
    },
    {
      "midi": 83,
      "hit": false,
      "t": 78399.9999999999,
      "d": 700,
      "v": 75
    },
    {
      "midi": 74,
      "hit": false,
      "t": 78399.9999999999,
      "d": 700,
      "v": 75
    },
    {
      "midi": 67,
      "hit": false,
      "t": 78399.99999999996,
      "d": 700,
      "v": 75
    },
    {
      "midi": 79,
      "hit": false,
      "t": 79199.9999999999,
      "d": 700,
      "v": 75
    },
    {
      "midi": 71,
      "hit": false,
      "t": 79199.9999999999,
      "d": 700,
      "v": 75
    },
    {
      "midi": 62,
      "hit": false,
      "t": 79199.99999999996,
      "d": 700,
      "v": 75
    },
    {
      "midi": 78,
      "hit": false,
      "t": 79999.9999999999,
      "d": 266.6666666666715,
      "v": 75
    },
    {
      "midi": 69,
      "hit": false,
      "t": 79999.9999999999,
      "d": 733.3333333333576,
      "v": 75
    },
    {
      "midi": 59,
      "hit": false,
      "t": 79999.99999999996,
      "d": 700,
      "v": 75
    },
    {
      "midi": 79,
      "hit": false,
      "t": 80266.66666666657,
      "d": 129.16666666667152,
      "v": 81
    },
    {
      "midi": 78,
      "hit": false,
      "t": 80399.99999999991,
      "d": 266.6666666666715,
      "v": 84
    },
    {
      "midi": 76,
      "hit": false,
      "t": 80666.66666666658,
      "d": 129.16666666667152,
      "v": 92
    },
    {
      "midi": 67,
      "hit": false,
      "t": 80666.66666666658,
      "d": 195.83333333334303,
      "v": 92
    },
    {
      "midi": 52,
      "hit": false,
      "t": 80666.66666666663,
      "d": 129.16666666665697,
      "v": 92
    },
    {
      "midi": 78,
      "hit": false,
      "t": 81199.99999999993,
      "d": 266.6666666666715,
      "v": 75
    },
    {
      "midi": 69,
      "hit": false,
      "t": 81199.99999999993,
      "d": 733.3333333333576,
      "v": 75
    },
    {
      "midi": 59,
      "hit": false,
      "t": 81199.99999999996,
      "d": 733.333333333343,
      "v": 75
    },
    {
      "midi": 79,
      "hit": false,
      "t": 81466.6666666666,
      "d": 129.16666666667152,
      "v": 81
    },
    {
      "midi": 78,
      "hit": false,
      "t": 81599.99999999994,
      "d": 266.6666666666715,
      "v": 84
    },
    {
      "midi": 76,
      "hit": false,
      "t": 81866.66666666661,
      "d": 129.16666666667152,
      "v": 92
    },
    {
      "midi": 67,
      "hit": false,
      "t": 81866.66666666661,
      "d": 195.83333333334303,
      "v": 92
    },
    {
      "midi": 52,
      "hit": false,
      "t": 81866.66666666663,
      "d": 129.16666666667152,
      "v": 92
    },
    {
      "midi": 67,
      "hit": false,
      "t": 82399.99999999996,
      "d": 129.16666666667152,
      "v": 92
    },
    {
      "midi": 76,
      "hit": false,
      "t": 82399.99999999996,
      "d": 195.83333333334303,
      "v": 92
    },
    {
      "midi": 52,
      "hit": false,
      "t": 82399.99999999997,
      "d": 129.16666666667152,
      "v": 92
    },
    {
      "midi": 59,
      "hit": false,
      "t": 82399.99999999997,
      "d": 195.83333333334303,
      "v": 92
    },
    {
      "midi": 44,
      "hit": false,
      "t": 82666.66666666664,
      "d": 395.8333333333285,
      "v": 75
    },
    {
      "midi": 62,
      "hit": false,
      "t": 82799.99999999997,
      "d": 266.6666666666715,
      "v": 75
    },
    {
      "midi": 59,
      "hit": false,
      "t": 82799.99999999997,
      "d": 266.6666666666715,
      "v": 75
    },
    {
      "midi": 64,
      "hit": false,
      "t": 82799.99999999997,
      "d": 333.33333333334303,
      "v": 75
    },
    {
      "midi": 52,
      "hit": false,
      "t": 82799.99999999997,
      "d": 333.33333333334303,
      "v": 75
    },
    {
      "midi": 60,
      "hit": false,
      "t": 83066.66666666664,
      "d": 133.33333333334303,
      "v": 75
    },
    {
      "midi": 57,
      "hit": false,
      "t": 83066.66666666664,
      "d": 133.33333333334303,
      "v": 75
    },
    {
      "midi": 45,
      "hit": false,
      "t": 83066.66666666664,
      "d": 133.33333333334303,
      "v": 75
    },
    {
      "midi": 87,
      "hit": false,
      "t": 83999.99999999999,
      "d": 45.83333333332848,
      "v": 75
    },
    {
      "midi": 81,
      "hit": false,
      "t": 83999.99999999999,
      "d": 733.3333333333285,
      "v": 75
    },
    {
      "midi": 71,
      "hit": false,
      "t": 83999.99999999999,
      "d": 45.83333333332848,
      "v": 75
    },
    {
      "midi": 88,
      "hit": false,
      "t": 84049.99999999999,
      "d": 683.3333333333285,
      "v": 75
    },
    {
      "midi": 72,
      "hit": false,
      "t": 84049.99999999999,
      "d": 683.3333333333285,
      "v": 75
    },
    {
      "midi": 84,
      "hit": false,
      "t": 84799.99999999999,
      "d": 700,
      "v": 75
    },
    {
      "midi": 76,
      "hit": false,
      "t": 84799.99999999999,
      "d": 700,
      "v": 75
    },
    {
      "midi": 69,
      "hit": false,
      "t": 84799.99999999999,
      "d": 700,
      "v": 75
    },
    {
      "midi": 81,
      "hit": false,
      "t": 85599.99999999999,
      "d": 700,
      "v": 75
    },
    {
      "midi": 72,
      "hit": false,
      "t": 85599.99999999999,
      "d": 700,
      "v": 75
    },
    {
      "midi": 64,
      "hit": false,
      "t": 85599.99999999999,
      "d": 700,
      "v": 75
    },
    {
      "midi": 79,
      "hit": false,
      "t": 87199.99999999999,
      "d": 266.6666666666715,
      "v": 75
    },
    {
      "midi": 69,
      "hit": false,
      "t": 87199.99999999999,
      "d": 662.5,
      "v": 75
    },
    {
      "midi": 64,
      "hit": false,
      "t": 87199.99999999999,
      "d": 733.333333333343,
      "v": 75
    },
    {
      "midi": 81,
      "hit": false,
      "t": 87466.66666666666,
      "d": 133.33333333332848,
      "v": 77
    },
    {
      "midi": 79,
      "hit": false,
      "t": 87599.99999999999,
      "d": 266.6666666666715,
      "v": 78
    },
    {
      "midi": 72,
      "hit": false,
      "t": 87866.66666666666,
      "d": 66.66666666667152,
      "v": 80
    },
    {
      "midi": 78,
      "hit": false,
      "t": 87866.66666666666,
      "d": 129.16666666667152,
      "v": 80
    },
    {
      "midi": 69,
      "hit": false,
      "t": 87866.66666666666,
      "d": 129.16666666667152,
      "v": 80
    },
    {
      "midi": 63,
      "hit": false,
      "t": 87866.66666666666,
      "d": 195.83333333334303,
      "v": 80
    },
    {
      "midi": 66,
      "hit": false,
      "t": 88266.66666666667,
      "d": 129.16666666667152,
      "v": 83
    },
    {
      "midi": 67,
      "hit": false,
      "t": 88400.00000000001,
      "d": 266.6666666666715,
      "v": 84
    },
    {
      "midi": 50,
      "hit": false,
      "t": 88666.66666666667,
      "d": 133.33333333332848,
      "v": 87
    },
    {
      "midi": 60,
      "hit": false,
      "t": 88666.66666666667,
      "d": 195.83333333332848,
      "v": 87
    },
    {
      "midi": 69,
      "hit": false,
      "t": 88666.66666666669,
      "d": 133.33333333332848,
      "v": 87
    },
    {
      "midi": 66,
      "hit": false,
      "t": 88666.66666666669,
      "d": 195.83333333332848,
      "v": 87
    },
    {
      "midi": 60,
      "hit": false,
      "t": 89066.66666666667,
      "d": 466.6666666666715,
      "v": 92
    },
    {
      "midi": 50,
      "hit": false,
      "t": 89066.66666666667,
      "d": 466.6666666666715,
      "v": 92
    },
    {
      "midi": 70,
      "hit": false,
      "t": 89066.66666666669,
      "d": 466.6666666666715,
      "v": 92
    },
    {
      "midi": 66,
      "hit": false,
      "t": 89066.66666666669,
      "d": 466.6666666666715,
      "v": 92
    },
    {
      "midi": 54,
      "hit": false,
      "t": 89600.00000000001,
      "d": 700,
      "v": 75
    },
    {
      "midi": 43,
      "hit": false,
      "t": 89600.00000000001,
      "d": 1133.3333333333285,
      "v": 75
    },
    {
      "midi": 69,
      "hit": false,
      "t": 89600.00000000003,
      "d": 666.6666666666715,
      "v": 75
    },
    {
      "midi": 62,
      "hit": false,
      "t": 89600.00000000003,
      "d": 700,
      "v": 75
    },
    {
      "midi": 59,
      "hit": false,
      "t": 89600.00000000003,
      "d": 700,
      "v": 75
    },
    {
      "midi": 67,
      "hit": false,
      "t": 90266.6666666667,
      "d": 129.16666666665697,
      "v": 75
    },
    {
      "midi": 54,
      "hit": false,
      "t": 90400.00000000001,
      "d": 333.3333333333285,
      "v": 75
    },
    {
      "midi": 66,
      "hit": false,
      "t": 90400.00000000003,
      "d": 266.6666666666715,
      "v": 75
    },
    {
      "midi": 62,
      "hit": false,
      "t": 90400.00000000003,
      "d": 333.33333333334303,
      "v": 75
    },
    {
      "midi": 59,
      "hit": false,
      "t": 90400.00000000003,
      "d": 333.33333333334303,
      "v": 75
    },
    {
      "midi": 67,
      "hit": false,
      "t": 90666.6666666667,
      "d": 129.16666666667152,
      "v": 75
    },
    {
      "midi": 54,
      "hit": false,
      "t": 91066.66666666667,
      "d": 129.16666666667152,
      "v": 75
    },
    {
      "midi": 43,
      "hit": false,
      "t": 91066.66666666667,
      "d": 129.16666666667152,
      "v": 75
    },
    {
      "midi": 69,
      "hit": false,
      "t": 91066.6666666667,
      "d": 129.16666666667152,
      "v": 75
    },
    {
      "midi": 62,
      "hit": false,
      "t": 91066.6666666667,
      "d": 129.16666666667152,
      "v": 75
    },
    {
      "midi": 59,
      "hit": false,
      "t": 91066.6666666667,
      "d": 129.16666666667152,
      "v": 75
    },
    {
      "midi": 54,
      "hit": false,
      "t": 91466.66666666667,
      "d": 466.6666666666715,
      "v": 75
    },
    {
      "midi": 43,
      "hit": false,
      "t": 91466.66666666667,
      "d": 466.6666666666715,
      "v": 75
    },
    {
      "midi": 69,
      "hit": false,
      "t": 91466.6666666667,
      "d": 466.6666666666715,
      "v": 75
    },
    {
      "midi": 62,
      "hit": false,
      "t": 91466.6666666667,
      "d": 466.6666666666715,
      "v": 75
    },
    {
      "midi": 59,
      "hit": false,
      "t": 91466.6666666667,
      "d": 466.6666666666715,
      "v": 75
    },
    {
      "midi": 59,
      "hit": false,
      "t": 92000.00000000004,
      "d": 195.83333333332848,
      "v": 75
    },
    {
      "midi": 43,
      "hit": false,
      "t": 92266.66666666667,
      "d": 129.16666666667152,
      "v": 75
    },
    {
      "midi": 62,
      "hit": false,
      "t": 92400.00000000004,
      "d": 195.83333333332848,
      "v": 75
    },
    {
      "midi": 50,
      "hit": false,
      "t": 92800.00000000001,
      "d": 333.3333333333285,
      "v": 75
    },
    {
      "midi": 40,
      "hit": false,
      "t": 92800.00000000001,
      "d": 333.3333333333285,
      "v": 75
    },
    {
      "midi": 66,
      "hit": false,
      "t": 92800.00000000004,
      "d": 266.6666666666715,
      "v": 75
    },
    {
      "midi": 59,
      "hit": false,
      "t": 92800.00000000004,
      "d": 333.33333333334303,
      "v": 75
    },
    {
      "midi": 55,
      "hit": false,
      "t": 92800.00000000004,
      "d": 333.33333333334303,
      "v": 75
    },
    {
      "midi": 64,
      "hit": false,
      "t": 93066.66666666672,
      "d": 129.16666666667152,
      "v": 75
    },
    {
      "midi": 40,
      "hit": false,
      "t": 93466.66666666667,
      "d": 466.6666666666715,
      "v": 75
    },
    {
      "midi": 50,
      "hit": false,
      "t": 93466.66666666667,
      "d": 1200.0000000000146,
      "v": 75
    },
    {
      "midi": 59,
      "hit": false,
      "t": 93466.66666666672,
      "d": 1195.8333333333285,
      "v": 75
    },
    {
      "midi": 55,
      "hit": false,
      "t": 93466.66666666672,
      "d": 1195.8333333333285,
      "v": 75
    },
    {
      "midi": 64,
      "hit": false,
      "t": 93466.66666666672,
      "d": 1633.3333333333285,
      "v": 75
    },
    {
      "midi": 40,
      "hit": false,
      "t": 94000.00000000001,
      "d": 195.83333333332848,
      "v": 75
    },
    {
      "midi": 40,
      "hit": false,
      "t": 94400.00000000001,
      "d": 333.33333333334303,
      "v": 75
    },
    {
      "midi": 50,
      "hit": false,
      "t": 94666.66666666669,
      "d": 400.00000000001455,
      "v": 60
    },
    {
      "midi": 59,
      "hit": false,
      "t": 94666.66666666672,
      "d": 395.8333333333285,
      "v": 60
    },
    {
      "midi": 55,
      "hit": false,
      "t": 94666.66666666672,
      "d": 395.8333333333285,
      "v": 60
    },
    {
      "midi": 40,
      "hit": false,
      "t": 94800.00000000003,
      "d": 333.33333333334303,
      "v": 60
    },
    {
      "midi": 50,
      "hit": false,
      "t": 95066.6666666667,
      "d": 129.16666666667152,
      "v": 60
    },
    {
      "midi": 59,
      "hit": false,
      "t": 95066.66666666672,
      "d": 129.16666666665697,
      "v": 60
    },
    {
      "midi": 55,
      "hit": false,
      "t": 95066.66666666672,
      "d": 129.16666666665697,
      "v": 60
    },
    {
      "midi": 64,
      "hit": false,
      "t": 95600.00000000004,
      "d": 733.3333333333285,
      "v": 75
    },
    {
      "midi": 60,
      "hit": false,
      "t": 95600.00000000004,
      "d": 733.3333333333285,
      "v": 75
    },
    {
      "midi": 55,
      "hit": false,
      "t": 95600.00000000004,
      "d": 733.3333333333285,
      "v": 75
    },
    {
      "midi": 45,
      "hit": false,
      "t": 95600.00000000004,
      "d": 1500,
      "v": 75
    },
    {
      "midi": 71,
      "hit": false,
      "t": 96400.00000000004,
      "d": 400,
      "v": 79
    },
    {
      "midi": 55,
      "hit": false,
      "t": 96400.00000000004,
      "d": 662.5,
      "v": 79
    },
    {
      "midi": 69,
      "hit": false,
      "t": 96800.00000000004,
      "d": 262.5,
      "v": 81
    },
    {
      "midi": 64,
      "hit": false,
      "t": 97066.66666666672,
      "d": 66.66666666667152,
      "v": 83
    },
    {
      "midi": 60,
      "hit": false,
      "t": 97066.66666666672,
      "d": 66.66666666667152,
      "v": 83
    },
    {
      "midi": 67,
      "hit": false,
      "t": 97066.66666666672,
      "d": 129.16666666667152,
      "v": 83
    },
    {
      "midi": 55,
      "hit": false,
      "t": 97066.66666666672,
      "d": 129.16666666665697,
      "v": 82
    },
    {
      "midi": 50,
      "hit": false,
      "t": 97466.6666666667,
      "d": 1195.8333333333285,
      "v": 85
    },
    {
      "midi": 69,
      "hit": false,
      "t": 97466.66666666673,
      "d": 1195.8333333333285,
      "v": 86
    },
    {
      "midi": 60,
      "hit": false,
      "t": 97466.66666666673,
      "d": 1266.6666666666715,
      "v": 86
    },
    {
      "midi": 64,
      "hit": false,
      "t": 97466.66666666673,
      "d": 1266.6666666666715,
      "v": 86
    },
    {
      "midi": 38,
      "hit": false,
      "t": 98266.6666666667,
      "d": 395.8333333333285,
      "v": 91
    },
    {
      "midi": 66,
      "hit": false,
      "t": 98266.66666666673,
      "d": 466.6666666666715,
      "v": 60
    },
    {
      "midi": 70,
      "hit": false,
      "t": 98666.66666666673,
      "d": 129.16666666667152,
      "v": 60
    },
    {
      "midi": 71,
      "hit": false,
      "t": 98800.00000000007,
      "d": 129.16666666667152,
      "v": 63
    },
    {
      "midi": 72,
      "hit": false,
      "t": 98933.33333333342,
      "d": 129.16666666667152,
      "v": 67
    },
    {
      "midi": 73,
      "hit": false,
      "t": 99066.66666666676,
      "d": 129.16666666667152,
      "v": 71
    },
    {
      "midi": 74,
      "hit": false,
      "t": 99200.0000000001,
      "d": 262.5,
      "v": 75
    },
    {
      "midi": 47,
      "hit": false,
      "t": 99466.6666666667,
      "d": 129.16666666667152,
      "v": 92
    },
    {
      "midi": 57,
      "hit": false,
      "t": 99466.6666666667,
      "d": 195.83333333334303,
      "v": 92
    },
    {
      "midi": 71,
      "hit": false,
      "t": 99466.66666666677,
      "d": 129.16666666667152,
      "v": 75
    },
    {
      "midi": 66,
      "hit": false,
      "t": 99466.66666666677,
      "d": 195.83333333334303,
      "v": 75
    },
    {
      "midi": 62,
      "hit": false,
      "t": 99466.66666666677,
      "d": 195.83333333334303,
      "v": 75
    },
    {
      "midi": 47,
      "hit": false,
      "t": 99866.66666666672,
      "d": 466.6666666666715,
      "v": 92
    },
    {
      "midi": 57,
      "hit": false,
      "t": 99866.66666666672,
      "d": 833.333333333343,
      "v": 92
    },
    {
      "midi": 66,
      "hit": false,
      "t": 99866.66666666679,
      "d": 1195.8333333333285,
      "v": 92
    },
    {
      "midi": 62,
      "hit": false,
      "t": 99866.66666666679,
      "d": 1195.8333333333285,
      "v": 92
    },
    {
      "midi": 71,
      "hit": false,
      "t": 99866.66666666679,
      "d": 1633.3333333333285,
      "v": 92
    },
    {
      "midi": 47,
      "hit": false,
      "t": 100400.00000000006,
      "d": 195.83333333332848,
      "v": 92
    },
    {
      "midi": 47,
      "hit": false,
      "t": 100800.00000000006,
      "d": 266.6666666666715,
      "v": 92
    },
    {
      "midi": 66,
      "hit": false,
      "t": 101066.66666666679,
      "d": 395.8333333333285,
      "v": 75
    },
    {
      "midi": 62,
      "hit": false,
      "t": 101066.66666666679,
      "d": 395.8333333333285,
      "v": 75
    },
    {
      "midi": 47,
      "hit": false,
      "t": 101200.00000000006,
      "d": 266.6666666666715,
      "v": 75
    },
    {
      "midi": 57,
      "hit": false,
      "t": 101466.66666666673,
      "d": 66.66666666667152,
      "v": 75
    },
    {
      "midi": 66,
      "hit": false,
      "t": 101466.66666666679,
      "d": 129.16666666665697,
      "v": 75
    },
    {
      "midi": 62,
      "hit": false,
      "t": 101466.66666666679,
      "d": 129.16666666665697,
      "v": 75
    },
    {
      "midi": 55,
      "hit": false,
      "t": 102000.00000000007,
      "d": 1100,
      "v": 92
    },
    {
      "midi": 48,
      "hit": false,
      "t": 102000.00000000007,
      "d": 1100,
      "v": 92
    },
    {
      "midi": 71,
      "hit": false,
      "t": 102000.00000000012,
      "d": 800,
      "v": 92
    },
    {
      "midi": 64,
      "hit": false,
      "t": 102000.00000000012,
      "d": 1133.3333333333285,
      "v": 92
    },
    {
      "midi": 60,
      "hit": false,
      "t": 102000.00000000012,
      "d": 1133.3333333333285,
      "v": 92
    },
    {
      "midi": 72,
      "hit": false,
      "t": 102800.00000000012,
      "d": 333.3333333333285,
      "v": 75
    },
    {
      "midi": 71,
      "hit": false,
      "t": 103200.00000000012,
      "d": 266.6666666666715,
      "v": 75
    },
    {
      "midi": 69,
      "hit": false,
      "t": 103466.66666666679,
      "d": 129.16666666667152,
      "v": 75
    },
    {
      "midi": 67,
      "hit": false,
      "t": 103866.66666666679,
      "d": 1062.5000000000146,
      "v": 75
    },
    {
      "midi": 57,
      "hit": false,
      "t": 104266.66666666674,
      "d": 466.6666666666715,
      "v": 60
    },
    {
      "midi": 48,
      "hit": false,
      "t": 104266.66666666674,
      "d": 466.6666666666715,
      "v": 60
    },
    {
      "midi": 63,
      "hit": false,
      "t": 104266.66666666679,
      "d": 466.6666666666715,
      "v": 60
    },
    {
      "midi": 60,
      "hit": false,
      "t": 104266.66666666679,
      "d": 466.6666666666715,
      "v": 60
    },
    {
      "midi": 48,
      "hit": false,
      "t": 104800.00000000009,
      "d": 129.16666666667152,
      "v": 60
    },
    {
      "midi": 57,
      "hit": false,
      "t": 104800.00000000009,
      "d": 195.83333333334303,
      "v": 60
    },
    {
      "midi": 63,
      "hit": false,
      "t": 104800.00000000013,
      "d": 195.83333333334303,
      "v": 60
    },
    {
      "midi": 60,
      "hit": false,
      "t": 104800.00000000013,
      "d": 195.83333333334303,
      "v": 60
    },
    {
      "midi": 68,
      "hit": false,
      "t": 105066.6666666668,
      "d": 129.16666666667152,
      "v": 60
    },
    {
      "midi": 69,
      "hit": false,
      "t": 105200.00000000015,
      "d": 129.16666666667152,
      "v": 63
    },
    {
      "midi": 70,
      "hit": false,
      "t": 105333.33333333349,
      "d": 129.16666666667152,
      "v": 67
    },
    {
      "midi": 71,
      "hit": false,
      "t": 105466.66666666683,
      "d": 866.6666666666715,
      "v": 71
    },
    {
      "midi": 57,
      "hit": false,
      "t": 105866.66666666676,
      "d": 466.6666666666715,
      "v": 75
    },
    {
      "midi": 47,
      "hit": false,
      "t": 105866.66666666676,
      "d": 466.6666666666715,
      "v": 75
    },
    {
      "midi": 62,
      "hit": false,
      "t": 105866.66666666683,
      "d": 395.8333333333285,
      "v": 75
    },
    {
      "midi": 59,
      "hit": false,
      "t": 105866.66666666683,
      "d": 395.8333333333285,
      "v": 75
    },
    {
      "midi": 58,
      "hit": false,
      "t": 106266.66666666683,
      "d": 129.16666666667152,
      "v": 75
    },
    {
      "midi": 59,
      "hit": false,
      "t": 106400.00000000017,
      "d": 262.5,
      "v": 76
    },
    {
      "midi": 61,
      "hit": false,
      "t": 106666.66666666685,
      "d": 129.16666666667152,
      "v": 79
    },
    {
      "midi": 62,
      "hit": false,
      "t": 106800.00000000019,
      "d": 262.5,
      "v": 80
    },
    {
      "midi": 50,
      "hit": false,
      "t": 107066.66666666676,
      "d": 662.5,
      "v": 84
    },
    {
      "midi": 40,
      "hit": false,
      "t": 107066.66666666676,
      "d": 729.1666666666715,
      "v": 84
    },
    {
      "midi": 66,
      "hit": false,
      "t": 107066.66666666686,
      "d": 466.6666666666715,
      "v": 84
    },
    {
      "midi": 59,
      "hit": false,
      "t": 107066.66666666686,
      "d": 729.1666666666861,
      "v": 84
    },
    {
      "midi": 56,
      "hit": false,
      "t": 107066.66666666686,
      "d": 729.1666666666861,
      "v": 84
    },
    {
      "midi": 64,
      "hit": false,
      "t": 107600.0000000002,
      "d": 129.16666666667152,
      "v": 92
    },
    {
      "midi": 40,
      "hit": false,
      "t": 108000.0000000001,
      "d": 333.3333333333285,
      "v": 98
    },
    {
      "midi": 50,
      "hit": false,
      "t": 108000.0000000001,
      "d": 662.5,
      "v": 98
    },
    {
      "midi": 59,
      "hit": false,
      "t": 108000.00000000022,
      "d": 662.5,
      "v": 98
    },
    {
      "midi": 56,
      "hit": false,
      "t": 108000.00000000022,
      "d": 662.5,
      "v": 98
    },
    {
      "midi": 40,
      "hit": false,
      "t": 108400.0000000001,
      "d": 333.33333333334303,
      "v": 104
    },
    {
      "midi": 45,
      "hit": false,
      "t": 108666.66666666677,
      "d": 133.33333333334303,
      "v": 108
    },
    {
      "midi": 64,
      "hit": false,
      "t": 108666.66666666689,
      "d": 66.66666666667152,
      "v": 108
    },
    {
      "midi": 55,
      "hit": false,
      "t": 108666.66666666689,
      "d": 133.33333333334303,
      "v": 108
    },
    {
      "midi": 60,
      "hit": false,
      "t": 108666.66666666689,
      "d": 133.33333333334303,
      "v": 108
    },
    {
      "midi": 64,
      "hit": false,
      "t": 109200.00000000023,
      "d": 195.83333333332848,
      "v": 92
    },
    {
      "midi": 66,
      "hit": false,
      "t": 109600.00000000023,
      "d": 195.83333333332848,
      "v": 92
    },
    {
      "midi": 67,
      "hit": false,
      "t": 110000.00000000023,
      "d": 262.5,
      "v": 92
    },
    {
      "midi": 69,
      "hit": false,
      "t": 110266.6666666669,
      "d": 1633.3333333333285,
      "v": 92
    },
    {
      "midi": 55,
      "hit": false,
      "t": 110666.66666666679,
      "d": 133.33333333332848,
      "v": 108
    },
    {
      "midi": 45,
      "hit": false,
      "t": 110666.66666666679,
      "d": 195.83333333332848,
      "v": 108
    },
    {
      "midi": 64,
      "hit": false,
      "t": 110666.6666666669,
      "d": 133.33333333332848,
      "v": 108
    },
    {
      "midi": 60,
      "hit": false,
      "t": 110666.6666666669,
      "d": 133.33333333332848,
      "v": 108
    },
    {
      "midi": 45,
      "hit": false,
      "t": 111200.00000000012,
      "d": 333.3333333333285,
      "v": 108
    },
    {
      "midi": 64,
      "hit": false,
      "t": 111200.00000000023,
      "d": 662.5,
      "v": 108
    },
    {
      "midi": 60,
      "hit": false,
      "t": 111200.00000000023,
      "d": 662.5,
      "v": 108
    },
    {
      "midi": 45,
      "hit": false,
      "t": 111600.00000000012,
      "d": 262.5,
      "v": 108
    },
    {
      "midi": 55,
      "hit": false,
      "t": 111866.66666666679,
      "d": 66.66666666667152,
      "v": 108
    },
    {
      "midi": 45,
      "hit": false,
      "t": 111866.66666666679,
      "d": 133.33333333334303,
      "v": 108
    },
    {
      "midi": 63,
      "hit": false,
      "t": 111866.6666666669,
      "d": 133.33333333332848,
      "v": 108
    },
    {
      "midi": 60,
      "hit": false,
      "t": 111866.6666666669,
      "d": 133.33333333332848,
      "v": 108
    },
    {
      "midi": 67,
      "hit": false,
      "t": 112400.00000000023,
      "d": 195.83333333332848,
      "v": 92
    },
    {
      "midi": 69,
      "hit": false,
      "t": 112800.00000000023,
      "d": 195.83333333332848,
      "v": 92
    },
    {
      "midi": 71,
      "hit": false,
      "t": 113200.00000000023,
      "d": 262.5,
      "v": 92
    },
    {
      "midi": 38,
      "hit": false,
      "t": 113466.6666666668,
      "d": 262.5,
      "v": 75
    },
    {
      "midi": 72,
      "hit": false,
      "t": 113800.00000000023,
      "d": 100,
      "v": 75
    },
    {
      "midi": 69,
      "hit": false,
      "t": 113900.00000000023,
      "d": 100,
      "v": 73
    },
    {
      "midi": 66,
      "hit": false,
      "t": 114000.00000000023,
      "d": 133.33333333332848,
      "v": 71
    },
    {
      "midi": 64,
      "hit": false,
      "t": 114133.33333333356,
      "d": 133.33333333332848,
      "v": 68
    },
    {
      "midi": 63,
      "hit": false,
      "t": 114266.66666666689,
      "d": 133.33333333332848,
      "v": 64
    },
    {
      "midi": 62,
      "hit": false,
      "t": 114400.00000000022,
      "d": 700,
      "v": 60
    },
    {
      "midi": 38,
      "hit": false,
      "t": 114666.6666666668,
      "d": 466.6666666666715,
      "v": 75
    },
    {
      "midi": 54,
      "hit": false,
      "t": 115200.00000000015,
      "d": 700,
      "v": 75
    },
    {
      "midi": 43,
      "hit": false,
      "t": 115200.00000000015,
      "d": 1133.3333333333285,
      "v": 75
    },
    {
      "midi": 69,
      "hit": false,
      "t": 115200.00000000022,
      "d": 666.6666666666715,
      "v": 75
    },
    {
      "midi": 62,
      "hit": false,
      "t": 115200.00000000022,
      "d": 700,
      "v": 75
    },
    {
      "midi": 59,
      "hit": false,
      "t": 115200.00000000022,
      "d": 700,
      "v": 75
    },
    {
      "midi": 67,
      "hit": false,
      "t": 115866.66666666689,
      "d": 129.16666666665697,
      "v": 75
    },
    {
      "midi": 54,
      "hit": false,
      "t": 116000.00000000015,
      "d": 333.3333333333285,
      "v": 75
    },
    {
      "midi": 66,
      "hit": false,
      "t": 116000.00000000022,
      "d": 266.6666666666715,
      "v": 75
    },
    {
      "midi": 62,
      "hit": false,
      "t": 116000.00000000022,
      "d": 333.33333333334303,
      "v": 75
    },
    {
      "midi": 59,
      "hit": false,
      "t": 116000.00000000022,
      "d": 333.33333333334303,
      "v": 75
    },
    {
      "midi": 67,
      "hit": false,
      "t": 116266.66666666689,
      "d": 129.16666666667152,
      "v": 75
    },
    {
      "midi": 54,
      "hit": false,
      "t": 116666.6666666668,
      "d": 129.16666666667152,
      "v": 75
    },
    {
      "midi": 43,
      "hit": false,
      "t": 116666.6666666668,
      "d": 129.16666666667152,
      "v": 75
    },
    {
      "midi": 69,
      "hit": false,
      "t": 116666.66666666689,
      "d": 129.16666666667152,
      "v": 75
    },
    {
      "midi": 62,
      "hit": false,
      "t": 116666.66666666689,
      "d": 129.16666666667152,
      "v": 75
    },
    {
      "midi": 59,
      "hit": false,
      "t": 116666.66666666689,
      "d": 129.16666666667152,
      "v": 75
    },
    {
      "midi": 54,
      "hit": false,
      "t": 117066.6666666668,
      "d": 466.6666666666715,
      "v": 75
    },
    {
      "midi": 43,
      "hit": false,
      "t": 117066.6666666668,
      "d": 466.6666666666715,
      "v": 75
    },
    {
      "midi": 69,
      "hit": false,
      "t": 117066.66666666689,
      "d": 466.6666666666715,
      "v": 75
    },
    {
      "midi": 62,
      "hit": false,
      "t": 117066.66666666689,
      "d": 466.6666666666715,
      "v": 75
    },
    {
      "midi": 59,
      "hit": false,
      "t": 117066.66666666689,
      "d": 466.6666666666715,
      "v": 75
    },
    {
      "midi": 59,
      "hit": false,
      "t": 117600.00000000023,
      "d": 195.83333333332848,
      "v": 75
    },
    {
      "midi": 43,
      "hit": false,
      "t": 117866.6666666668,
      "d": 129.16666666667152,
      "v": 75
    },
    {
      "midi": 62,
      "hit": false,
      "t": 118000.00000000023,
      "d": 195.83333333332848,
      "v": 75
    },
    {
      "midi": 50,
      "hit": false,
      "t": 118400.00000000015,
      "d": 333.3333333333285,
      "v": 75
    },
    {
      "midi": 40,
      "hit": false,
      "t": 118400.00000000015,
      "d": 333.3333333333285,
      "v": 75
    },
    {
      "midi": 66,
      "hit": false,
      "t": 118400.00000000023,
      "d": 266.6666666666715,
      "v": 75
    },
    {
      "midi": 59,
      "hit": false,
      "t": 118400.00000000023,
      "d": 333.33333333334303,
      "v": 75
    },
    {
      "midi": 55,
      "hit": false,
      "t": 118400.00000000023,
      "d": 333.33333333334303,
      "v": 75
    },
    {
      "midi": 64,
      "hit": false,
      "t": 118666.6666666669,
      "d": 129.16666666667152,
      "v": 75
    },
    {
      "midi": 40,
      "hit": false,
      "t": 119066.6666666668,
      "d": 466.6666666666715,
      "v": 75
    },
    {
      "midi": 50,
      "hit": false,
      "t": 119066.6666666668,
      "d": 1200.0000000000146,
      "v": 75
    },
    {
      "midi": 59,
      "hit": false,
      "t": 119066.6666666669,
      "d": 1195.8333333333285,
      "v": 75
    },
    {
      "midi": 55,
      "hit": false,
      "t": 119066.6666666669,
      "d": 1195.8333333333285,
      "v": 75
    },
    {
      "midi": 64,
      "hit": false,
      "t": 119066.6666666669,
      "d": 1633.3333333333285,
      "v": 75
    },
    {
      "midi": 40,
      "hit": false,
      "t": 119600.00000000015,
      "d": 195.83333333332848,
      "v": 75
    },
    {
      "midi": 40,
      "hit": false,
      "t": 120000.00000000015,
      "d": 333.33333333334303,
      "v": 75
    },
    {
      "midi": 50,
      "hit": false,
      "t": 120266.66666666682,
      "d": 400.00000000001455,
      "v": 60
    },
    {
      "midi": 59,
      "hit": false,
      "t": 120266.6666666669,
      "d": 395.8333333333285,
      "v": 60
    },
    {
      "midi": 55,
      "hit": false,
      "t": 120266.6666666669,
      "d": 395.8333333333285,
      "v": 60
    },
    {
      "midi": 40,
      "hit": false,
      "t": 120400.00000000016,
      "d": 333.33333333334303,
      "v": 60
    },
    {
      "midi": 50,
      "hit": false,
      "t": 120666.66666666683,
      "d": 129.16666666667152,
      "v": 60
    },
    {
      "midi": 59,
      "hit": false,
      "t": 120666.6666666669,
      "d": 129.16666666665697,
      "v": 60
    },
    {
      "midi": 55,
      "hit": false,
      "t": 120666.6666666669,
      "d": 129.16666666665697,
      "v": 60
    },
    {
      "midi": 55,
      "hit": false,
      "t": 121200.00000000017,
      "d": 733.3333333333285,
      "v": 75
    },
    {
      "midi": 45,
      "hit": false,
      "t": 121200.00000000017,
      "d": 1500,
      "v": 75
    },
    {
      "midi": 64,
      "hit": false,
      "t": 121200.00000000023,
      "d": 733.3333333333285,
      "v": 75
    },
    {
      "midi": 60,
      "hit": false,
      "t": 121200.00000000023,
      "d": 733.3333333333285,
      "v": 75
    },
    {
      "midi": 55,
      "hit": false,
      "t": 122000.00000000017,
      "d": 662.5,
      "v": 71
    },
    {
      "midi": 71,
      "hit": false,
      "t": 122000.00000000023,
      "d": 400,
      "v": 71
    },
    {
      "midi": 69,
      "hit": false,
      "t": 122400.00000000023,
      "d": 262.5,
      "v": 69
    },
    {
      "midi": 55,
      "hit": false,
      "t": 122666.66666666685,
      "d": 129.16666666665697,
      "v": 68
    },
    {
      "midi": 64,
      "hit": false,
      "t": 122666.6666666669,
      "d": 66.66666666667152,
      "v": 68
    },
    {
      "midi": 60,
      "hit": false,
      "t": 122666.6666666669,
      "d": 66.66666666667152,
      "v": 68
    },
    {
      "midi": 67,
      "hit": false,
      "t": 122666.6666666669,
      "d": 129.16666666667152,
      "v": 68
    },
    {
      "midi": 55,
      "hit": false,
      "t": 123066.66666666683,
      "d": 795.8333333333285,
      "v": 66
    },
    {
      "midi": 64,
      "hit": false,
      "t": 123066.66666666692,
      "d": 795.8333333333285,
      "v": 66
    },
    {
      "midi": 60,
      "hit": false,
      "t": 123066.66666666692,
      "d": 795.8333333333285,
      "v": 66
    },
    {
      "midi": 69,
      "hit": false,
      "t": 123066.66666666692,
      "d": 1195.8333333333285,
      "v": 66
    },
    {
      "midi": 54,
      "hit": false,
      "t": 123866.66666666683,
      "d": 466.6666666666715,
      "v": 60
    },
    {
      "midi": 64,
      "hit": false,
      "t": 123866.66666666692,
      "d": 466.6666666666715,
      "v": 60
    },
    {
      "midi": 60,
      "hit": false,
      "t": 123866.66666666692,
      "d": 466.6666666666715,
      "v": 60
    },
    {
      "midi": 70,
      "hit": false,
      "t": 124266.66666666692,
      "d": 129.16666666667152,
      "v": 60
    },
    {
      "midi": 71,
      "hit": false,
      "t": 124400.00000000026,
      "d": 129.16666666667152,
      "v": 68
    },
    {
      "midi": 72,
      "hit": false,
      "t": 124533.3333333336,
      "d": 129.16666666667152,
      "v": 76
    },
    {
      "midi": 73,
      "hit": false,
      "t": 124666.66666666695,
      "d": 129.16666666667152,
      "v": 84
    },
    {
      "midi": 74,
      "hit": false,
      "t": 124800.00000000029,
      "d": 262.5,
      "v": 92
    },
    {
      "midi": 47,
      "hit": false,
      "t": 125066.66666666683,
      "d": 129.16666666667152,
      "v": 92
    },
    {
      "midi": 57,
      "hit": false,
      "t": 125066.66666666683,
      "d": 195.83333333334303,
      "v": 92
    },
    {
      "midi": 71,
      "hit": false,
      "t": 125066.66666666696,
      "d": 129.16666666667152,
      "v": 92
    },
    {
      "midi": 66,
      "hit": false,
      "t": 125066.66666666696,
      "d": 195.83333333334303,
      "v": 92
    },
    {
      "midi": 62,
      "hit": false,
      "t": 125066.66666666696,
      "d": 195.83333333334303,
      "v": 92
    },
    {
      "midi": 47,
      "hit": false,
      "t": 125466.66666666685,
      "d": 466.6666666666715,
      "v": 92
    },
    {
      "midi": 57,
      "hit": false,
      "t": 125466.66666666685,
      "d": 833.333333333343,
      "v": 92
    },
    {
      "midi": 66,
      "hit": false,
      "t": 125466.66666666698,
      "d": 1195.8333333333285,
      "v": 92
    },
    {
      "midi": 62,
      "hit": false,
      "t": 125466.66666666698,
      "d": 1195.8333333333285,
      "v": 92
    },
    {
      "midi": 71,
      "hit": false,
      "t": 125466.66666666698,
      "d": 1633.3333333333285,
      "v": 92
    },
    {
      "midi": 47,
      "hit": false,
      "t": 126000.00000000019,
      "d": 195.83333333332848,
      "v": 92
    },
    {
      "midi": 47,
      "hit": false,
      "t": 126400.00000000019,
      "d": 266.6666666666715,
      "v": 92
    },
    {
      "midi": 66,
      "hit": false,
      "t": 126666.66666666698,
      "d": 395.8333333333285,
      "v": 75
    },
    {
      "midi": 62,
      "hit": false,
      "t": 126666.66666666698,
      "d": 395.8333333333285,
      "v": 75
    },
    {
      "midi": 47,
      "hit": false,
      "t": 126800.00000000019,
      "d": 266.6666666666715,
      "v": 92
    },
    {
      "midi": 57,
      "hit": false,
      "t": 127066.66666666686,
      "d": 66.66666666667152,
      "v": 75
    },
    {
      "midi": 66,
      "hit": false,
      "t": 127066.66666666698,
      "d": 129.16666666665697,
      "v": 75
    },
    {
      "midi": 62,
      "hit": false,
      "t": 127066.66666666698,
      "d": 129.16666666665697,
      "v": 75
    },
    {
      "midi": 55,
      "hit": false,
      "t": 127600.0000000002,
      "d": 195.83333333332848,
      "v": 108
    },
    {
      "midi": 48,
      "hit": false,
      "t": 127600.0000000002,
      "d": 195.83333333332848,
      "v": 108
    },
    {
      "midi": 71,
      "hit": false,
      "t": 127600.0000000003,
      "d": 195.83333333332848,
      "v": 108
    },
    {
      "midi": 64,
      "hit": false,
      "t": 127600.0000000003,
      "d": 195.83333333332848,
      "v": 108
    },
    {
      "midi": 60,
      "hit": false,
      "t": 127600.0000000003,
      "d": 195.83333333332848,
      "v": 108
    },
    {
      "midi": 69,
      "hit": false,
      "t": 128266.66666666696,
      "d": 129.16666666667152,
      "v": 92
    },
    {
      "midi": 70,
      "hit": false,
      "t": 128400.0000000003,
      "d": 133.33333333332848,
      "v": 92
    },
    {
      "midi": 71,
      "hit": false,
      "t": 128533.33333333363,
      "d": 133.33333333332848,
      "v": 92
    },
    {
      "midi": 72,
      "hit": false,
      "t": 128666.66666666696,
      "d": 129.16666666667152,
      "v": 92
    },
    {
      "midi": 71,
      "hit": false,
      "t": 128800.0000000003,
      "d": 266.6666666666715,
      "v": 92
    },
    {
      "midi": 66,
      "hit": false,
      "t": 129066.66666666698,
      "d": 129.16666666667152,
      "v": 92
    },
    {
      "midi": 69,
      "hit": false,
      "t": 129200.00000000032,
      "d": 266.6666666666715,
      "v": 92
    },
    {
      "midi": 67,
      "hit": false,
      "t": 129466.66666666699,
      "d": 1062.5000000000146,
      "v": 92
    },
    {
      "midi": 57,
      "hit": false,
      "t": 129866.66666666686,
      "d": 466.6666666666715,
      "v": 108
    },
    {
      "midi": 48,
      "hit": false,
      "t": 129866.66666666686,
      "d": 466.6666666666715,
      "v": 108
    },
    {
      "midi": 63,
      "hit": false,
      "t": 129866.66666666699,
      "d": 466.6666666666715,
      "v": 108
    },
    {
      "midi": 60,
      "hit": false,
      "t": 129866.66666666699,
      "d": 466.6666666666715,
      "v": 108
    },
    {
      "midi": 48,
      "hit": false,
      "t": 130400.0000000002,
      "d": 129.16666666667152,
      "v": 108
    },
    {
      "midi": 57,
      "hit": false,
      "t": 130400.0000000002,
      "d": 195.83333333334303,
      "v": 108
    },
    {
      "midi": 63,
      "hit": false,
      "t": 130400.00000000033,
      "d": 195.83333333334303,
      "v": 108
    },
    {
      "midi": 60,
      "hit": false,
      "t": 130400.00000000033,
      "d": 195.83333333334303,
      "v": 108
    },
    {
      "midi": 68,
      "hit": false,
      "t": 130666.666666667,
      "d": 129.16666666667152,
      "v": 92
    },
    {
      "midi": 69,
      "hit": false,
      "t": 130800.00000000035,
      "d": 129.16666666667152,
      "v": 92
    },
    {
      "midi": 70,
      "hit": false,
      "t": 130933.33333333369,
      "d": 129.16666666667152,
      "v": 92
    },
    {
      "midi": 71,
      "hit": false,
      "t": 131066.66666666704,
      "d": 866.666666666657,
      "v": 92
    },
    {
      "midi": 57,
      "hit": false,
      "t": 131466.6666666669,
      "d": 466.66666666665697,
      "v": 108
    },
    {
      "midi": 47,
      "hit": false,
      "t": 131466.6666666669,
      "d": 466.66666666665697,
      "v": 108
    },
    {
      "midi": 62,
      "hit": false,
      "t": 131466.66666666704,
      "d": 395.83333333334303,
      "v": 92
    },
    {
      "midi": 59,
      "hit": false,
      "t": 131466.66666666704,
      "d": 395.83333333334303,
      "v": 92
    },
    {
      "midi": 58,
      "hit": false,
      "t": 131866.66666666704,
      "d": 129.16666666665697,
      "v": 92
    },
    {
      "midi": 59,
      "hit": false,
      "t": 132000.00000000035,
      "d": 262.5,
      "v": 92
    },
    {
      "midi": 61,
      "hit": false,
      "t": 132266.666666667,
      "d": 129.16666666665697,
      "v": 92
    },
    {
      "midi": 62,
      "hit": false,
      "t": 132400.00000000032,
      "d": 262.5,
      "v": 92
    },
    {
      "midi": 50,
      "hit": false,
      "t": 132666.6666666669,
      "d": 662.5,
      "v": 108
    },
    {
      "midi": 40,
      "hit": false,
      "t": 132666.6666666669,
      "d": 729.166666666657,
      "v": 108
    },
    {
      "midi": 66,
      "hit": false,
      "t": 132666.66666666698,
      "d": 466.66666666665697,
      "v": 92
    },
    {
      "midi": 59,
      "hit": false,
      "t": 132666.66666666698,
      "d": 729.1666666666279,
      "v": 92
    },
    {
      "midi": 56,
      "hit": false,
      "t": 132666.66666666698,
      "d": 729.1666666666279,
      "v": 92
    },
    {
      "midi": 64,
      "hit": false,
      "t": 133200.0000000003,
      "d": 129.16666666665697,
      "v": 92
    },
    {
      "midi": 40,
      "hit": false,
      "t": 133600.0000000002,
      "d": 333.33333333334303,
      "v": 108
    },
    {
      "midi": 50,
      "hit": false,
      "t": 133600.0000000002,
      "d": 662.5,
      "v": 108
    },
    {
      "midi": 59,
      "hit": false,
      "t": 133600.00000000026,
      "d": 662.5,
      "v": 92
    },
    {
      "midi": 56,
      "hit": false,
      "t": 133600.00000000026,
      "d": 662.5,
      "v": 92
    },
    {
      "midi": 40,
      "hit": false,
      "t": 134000.0000000002,
      "d": 333.33333333331393,
      "v": 108
    },
    {
      "midi": 45,
      "hit": false,
      "t": 134266.66666666686,
      "d": 133.33333333331393,
      "v": 108
    },
    {
      "midi": 64,
      "hit": false,
      "t": 134266.66666666692,
      "d": 66.66666666665697,
      "v": 92
    },
    {
      "midi": 55,
      "hit": false,
      "t": 134266.66666666692,
      "d": 133.33333333331393,
      "v": 92
    },
    {
      "midi": 60,
      "hit": false,
      "t": 134266.66666666692,
      "d": 133.33333333331393,
      "v": 92
    },
    {
      "midi": 45,
      "hit": false,
      "t": 134800.00000000017,
      "d": 662.5,
      "v": 108
    },
    {
      "midi": 55,
      "hit": false,
      "t": 134800.00000000017,
      "d": 733.3333333333139,
      "v": 108
    },
    {
      "midi": 71,
      "hit": false,
      "t": 134800.00000000023,
      "d": 400,
      "v": 92
    },
    {
      "midi": 69,
      "hit": false,
      "t": 135200.00000000023,
      "d": 262.5,
      "v": 92
    },
    {
      "midi": 45,
      "hit": false,
      "t": 135466.66666666683,
      "d": 129.16666666665697,
      "v": 108
    },
    {
      "midi": 64,
      "hit": false,
      "t": 135466.6666666669,
      "d": 66.66666666665697,
      "v": 92
    },
    {
      "midi": 60,
      "hit": false,
      "t": 135466.6666666669,
      "d": 66.66666666665697,
      "v": 92
    },
    {
      "midi": 67,
      "hit": false,
      "t": 135466.6666666669,
      "d": 129.16666666665697,
      "v": 92
    },
    {
      "midi": 55,
      "hit": false,
      "t": 135866.66666666683,
      "d": 833.333333333343,
      "v": 92
    },
    {
      "midi": 50,
      "hit": false,
      "t": 135866.66666666683,
      "d": 833.333333333343,
      "v": 92
    },
    {
      "midi": 69,
      "hit": false,
      "t": 135866.66666666686,
      "d": 833.333333333343,
      "v": 92
    },
    {
      "midi": 64,
      "hit": false,
      "t": 135866.66666666686,
      "d": 833.333333333343,
      "v": 92
    },
    {
      "midi": 60,
      "hit": false,
      "t": 135866.66666666686,
      "d": 833.333333333343,
      "v": 92
    },
    {
      "midi": 38,
      "hit": false,
      "t": 136800.00000000017,
      "d": 700,
      "v": 92
    },
    {
      "midi": 66,
      "hit": false,
      "t": 136800.0000000002,
      "d": 700,
      "v": 92
    },
    {
      "midi": 57,
      "hit": false,
      "t": 136800.0000000002,
      "d": 700,
      "v": 92
    },
    {
      "midi": 60,
      "hit": false,
      "t": 136800.0000000002,
      "d": 700,
      "v": 92
    },
    {
      "midi": 64,
      "hit": false,
      "t": 136800.0000000002,
      "d": 700,
      "v": 92
    },
    {
      "midi": 43,
      "hit": false,
      "t": 137600.00000000017,
      "d": 662.5,
      "v": 92
    },
    {
      "midi": 66,
      "hit": false,
      "t": 137600.0000000002,
      "d": 662.5,
      "v": 92
    },
    {
      "midi": 57,
      "hit": false,
      "t": 137600.0000000002,
      "d": 733.3333333333139,
      "v": 92
    },
    {
      "midi": 60,
      "hit": false,
      "t": 137600.0000000002,
      "d": 733.3333333333139,
      "v": 92
    },
    {
      "midi": 52,
      "hit": false,
      "t": 138266.66666666683,
      "d": 833.333333333343,
      "v": 92
    },
    {
      "midi": 43,
      "hit": false,
      "t": 138266.66666666683,
      "d": 833.333333333343,
      "v": 92
    },
    {
      "midi": 62,
      "hit": false,
      "t": 138266.66666666686,
      "d": 66.66666666665697,
      "v": 92
    },
    {
      "midi": 59,
      "hit": false,
      "t": 138266.66666666686,
      "d": 833.3333333333139,
      "v": 92
    },
    {
      "midi": 67,
      "hit": false,
      "t": 138266.66666666686,
      "d": 833.3333333333139,
      "v": 92
    },
    {
      "midi": 43,
      "hit": false,
      "t": 139200.00000000017,
      "d": 129.16666666665697,
      "v": 92
    },
    {
      "midi": 54,
      "hit": false,
      "t": 139400.00000000017,
      "d": 62.5,
      "v": 92
    },
    {
      "midi": 55,
      "hit": false,
      "t": 139466.66666666683,
      "d": 466.66666666665697,
      "v": 92
    },
    {
      "midi": 50,
      "hit": false,
      "t": 140000.00000000015,
      "d": 195.83333333334303,
      "v": 92
    },
    {
      "midi": 46,
      "hit": false,
      "t": 140350.00000000015,
      "d": 45.833333333343035,
      "v": 92
    },
    {
      "midi": 47,
      "hit": false,
      "t": 140400.00000000015,
      "d": 266.66666666665697,
      "v": 92
    },
    {
      "midi": 43,
      "hit": false,
      "t": 140666.6666666668,
      "d": 129.16666666665697,
      "v": 92
    },
    {
      "midi": 70,
      "hit": false,
      "t": 141600.00000000012,
      "d": 45.833333333343035,
      "v": 75
    },
    {
      "midi": 85,
      "hit": false,
      "t": 141600.00000000017,
      "d": 45.833333333343035,
      "v": 75
    },
    {
      "midi": 79,
      "hit": false,
      "t": 141600.00000000017,
      "d": 733.333333333343,
      "v": 75
    },
    {
      "midi": 71,
      "hit": false,
      "t": 141650.00000000012,
      "d": 683.333333333343,
      "v": 75
    },
    {
      "midi": 86,
      "hit": false,
      "t": 141650.00000000017,
      "d": 683.333333333343,
      "v": 75
    },
    {
      "midi": 67,
      "hit": false,
      "t": 142400.00000000012,
      "d": 700,
      "v": 75
    },
    {
      "midi": 83,
      "hit": false,
      "t": 142400.00000000017,
      "d": 700,
      "v": 75
    },
    {
      "midi": 74,
      "hit": false,
      "t": 142400.00000000017,
      "d": 700,
      "v": 75
    },
    {
      "midi": 62,
      "hit": false,
      "t": 143200.00000000012,
      "d": 700,
      "v": 75
    },
    {
      "midi": 79,
      "hit": false,
      "t": 143200.00000000017,
      "d": 700,
      "v": 75
    },
    {
      "midi": 71,
      "hit": false,
      "t": 143200.00000000017,
      "d": 700,
      "v": 75
    },
    {
      "midi": 59,
      "hit": false,
      "t": 144000.00000000012,
      "d": 700,
      "v": 75
    },
    {
      "midi": 78,
      "hit": false,
      "t": 144000.00000000017,
      "d": 266.66666666665697,
      "v": 75
    },
    {
      "midi": 69,
      "hit": false,
      "t": 144000.00000000017,
      "d": 733.3333333332848,
      "v": 75
    },
    {
      "midi": 79,
      "hit": false,
      "t": 144266.66666666683,
      "d": 129.16666666665697,
      "v": 81
    },
    {
      "midi": 78,
      "hit": false,
      "t": 144400.00000000015,
      "d": 266.66666666665697,
      "v": 84
    },
    {
      "midi": 52,
      "hit": false,
      "t": 144666.66666666677,
      "d": 129.16666666668607,
      "v": 92
    },
    {
      "midi": 76,
      "hit": false,
      "t": 144666.6666666668,
      "d": 129.16666666665697,
      "v": 92
    },
    {
      "midi": 67,
      "hit": false,
      "t": 144666.6666666668,
      "d": 195.83333333331393,
      "v": 92
    },
    {
      "midi": 78,
      "hit": false,
      "t": 145200.00000000012,
      "d": 266.66666666665697,
      "v": 75
    },
    {
      "midi": 69,
      "hit": false,
      "t": 145200.00000000012,
      "d": 733.3333333332848,
      "v": 75
    },
    {
      "midi": 59,
      "hit": false,
      "t": 145200.00000000012,
      "d": 733.3333333333139,
      "v": 75
    },
    {
      "midi": 79,
      "hit": false,
      "t": 145466.66666666677,
      "d": 129.16666666665697,
      "v": 81
    },
    {
      "midi": 78,
      "hit": false,
      "t": 145600.0000000001,
      "d": 266.66666666665697,
      "v": 84
    },
    {
      "midi": 76,
      "hit": false,
      "t": 145866.66666666674,
      "d": 129.16666666665697,
      "v": 92
    },
    {
      "midi": 67,
      "hit": false,
      "t": 145866.66666666674,
      "d": 195.83333333331393,
      "v": 92
    },
    {
      "midi": 52,
      "hit": false,
      "t": 145866.66666666677,
      "d": 129.16666666665697,
      "v": 92
    },
    {
      "midi": 67,
      "hit": false,
      "t": 146400.00000000006,
      "d": 129.16666666665697,
      "v": 92
    },
    {
      "midi": 76,
      "hit": false,
      "t": 146400.00000000006,
      "d": 195.83333333331393,
      "v": 92
    },
    {
      "midi": 52,
      "hit": false,
      "t": 146400.0000000001,
      "d": 129.16666666665697,
      "v": 92
    },
    {
      "midi": 59,
      "hit": false,
      "t": 146400.0000000001,
      "d": 195.83333333331393,
      "v": 92
    },
    {
      "midi": 44,
      "hit": false,
      "t": 146666.66666666674,
      "d": 395.83333333334303,
      "v": 92
    },
    {
      "midi": 62,
      "hit": false,
      "t": 146800.00000000003,
      "d": 266.66666666665697,
      "v": 92
    },
    {
      "midi": 59,
      "hit": false,
      "t": 146800.00000000003,
      "d": 266.66666666665697,
      "v": 92
    },
    {
      "midi": 52,
      "hit": false,
      "t": 146800.0000000001,
      "d": 333.33333333331393,
      "v": 92
    },
    {
      "midi": 60,
      "hit": false,
      "t": 147066.6666666667,
      "d": 133.33333333334303,
      "v": 92
    },
    {
      "midi": 57,
      "hit": false,
      "t": 147066.6666666667,
      "d": 133.33333333334303,
      "v": 92
    },
    {
      "midi": 45,
      "hit": false,
      "t": 147066.66666666674,
      "d": 133.33333333331393,
      "v": 92
    },
    {
      "midi": 87,
      "hit": false,
      "t": 148000.00000000003,
      "d": 45.833333333343035,
      "v": 75
    },
    {
      "midi": 81,
      "hit": false,
      "t": 148000.00000000003,
      "d": 733.333333333343,
      "v": 75
    },
    {
      "midi": 71,
      "hit": false,
      "t": 148000.00000000006,
      "d": 45.833333333343035,
      "v": 75
    },
    {
      "midi": 88,
      "hit": false,
      "t": 148050.00000000003,
      "d": 683.333333333343,
      "v": 75
    },
    {
      "midi": 72,
      "hit": false,
      "t": 148050.00000000006,
      "d": 683.333333333343,
      "v": 75
    },
    {
      "midi": 84,
      "hit": false,
      "t": 148800.00000000003,
      "d": 700,
      "v": 75
    },
    {
      "midi": 76,
      "hit": false,
      "t": 148800.00000000003,
      "d": 700,
      "v": 75
    },
    {
      "midi": 69,
      "hit": false,
      "t": 148800.00000000006,
      "d": 700,
      "v": 75
    },
    {
      "midi": 81,
      "hit": false,
      "t": 149600.00000000003,
      "d": 700,
      "v": 75
    },
    {
      "midi": 72,
      "hit": false,
      "t": 149600.00000000003,
      "d": 700,
      "v": 75
    },
    {
      "midi": 64,
      "hit": false,
      "t": 149600.00000000006,
      "d": 700,
      "v": 75
    },
    {
      "midi": 50,
      "hit": false,
      "t": 150400.00000000006,
      "d": 333.33333333334303,
      "v": 75
    },
    {
      "midi": 79,
      "hit": false,
      "t": 151200.00000000003,
      "d": 266.66666666665697,
      "v": 75
    },
    {
      "midi": 62,
      "hit": false,
      "t": 151200.00000000006,
      "d": 662.5,
      "v": 75
    },
    {
      "midi": 81,
      "hit": false,
      "t": 151466.6666666667,
      "d": 129.16666666665697,
      "v": 74
    },
    {
      "midi": 79,
      "hit": false,
      "t": 151600,
      "d": 266.66666666665697,
      "v": 74
    },
    {
      "midi": 76,
      "hit": false,
      "t": 151866.66666666666,
      "d": 66.66666666665697,
      "v": 73
    },
    {
      "midi": 72,
      "hit": false,
      "t": 151866.66666666666,
      "d": 66.66666666665697,
      "v": 73
    },
    {
      "midi": 78,
      "hit": false,
      "t": 151866.66666666666,
      "d": 833.3333333333139,
      "v": 73
    },
    {
      "midi": 69,
      "hit": false,
      "t": 151866.66666666672,
      "d": 66.66666666665697,
      "v": 72
    },
    {
      "midi": 62,
      "hit": false,
      "t": 151866.66666666672,
      "d": 466.66666666665697,
      "v": 72
    },
    {
      "midi": 57,
      "hit": false,
      "t": 152400.00000000003,
      "d": 129.16666666665697,
      "v": 69
    },
    {
      "midi": 50,
      "hit": false,
      "t": 152800.00000000003,
      "d": 62.5,
      "v": 66
    },
    {
      "midi": 62,
      "hit": false,
      "t": 152866.6666666667,
      "d": 195.83333333334303,
      "v": 66
    },
    {
      "midi": 48,
      "hit": false,
      "t": 153200.00000000003,
      "d": 129.16666666665697,
      "v": 64
    },
    {
      "midi": 70,
      "hit": false,
      "t": 153599.99999999997,
      "d": 400,
      "v": 60
    },
    {
      "midi": 66,
      "hit": false,
      "t": 153599.99999999997,
      "d": 533.333333333343,
      "v": 60
    },
    {
      "midi": 62,
      "hit": false,
      "t": 153599.99999999997,
      "d": 533.333333333343,
      "v": 60
    },
    {
      "midi": 57,
      "hit": false,
      "t": 153600.00000000003,
      "d": 533.333333333343,
      "v": 60
    },
    {
      "midi": 47,
      "hit": false,
      "t": 153600.00000000003,
      "d": 533.333333333343,
      "v": 60
    },
    {
      "midi": 71,
      "hit": false,
      "t": 153999.99999999997,
      "d": 195.83333333334303,
      "v": 62
    },
    {
      "midi": 73,
      "hit": false,
      "t": 154399.99999999997,
      "d": 266.66666666665697,
      "v": 64
    },
    {
      "midi": 74,
      "hit": false,
      "t": 154666.66666666663,
      "d": 129.16666666665697,
      "v": 65
    },
    {
      "midi": 78,
      "hit": false,
      "t": 155066.66666666663,
      "d": 466.66666666665697,
      "v": 66
    },
    {
      "midi": 74,
      "hit": false,
      "t": 155599.99999999994,
      "d": 400,
      "v": 70
    },
    {
      "midi": 76,
      "hit": false,
      "t": 155999.99999999994,
      "d": 266.66666666665697,
      "v": 73
    },
    {
      "midi": 78,
      "hit": false,
      "t": 156266.6666666666,
      "d": 129.16666666665697,
      "v": 75
    },
    {
      "midi": 81,
      "hit": false,
      "t": 156666.6666666666,
      "d": 533.333333333343,
      "v": 75
    },
    {
      "midi": 74,
      "hit": false,
      "t": 156666.6666666666,
      "d": 833.333333333343,
      "v": 75
    },
    {
      "midi": 71,
      "hit": false,
      "t": 156666.6666666666,
      "d": 833.333333333343,
      "v": 75
    },
    {
      "midi": 64,
      "hit": false,
      "t": 156666.66666666672,
      "d": 833.333333333343,
      "v": 75
    },
    {
      "midi": 79,
      "hit": false,
      "t": 157199.99999999994,
      "d": 333.33333333334303,
      "v": 80
    },
    {
      "midi": 81,
      "hit": false,
      "t": 157599.99999999994,
      "d": 266.66666666665697,
      "v": 84
    },
    {
      "midi": 74,
      "hit": false,
      "t": 157599.99999999994,
      "d": 333.33333333331393,
      "v": 84
    },
    {
      "midi": 71,
      "hit": false,
      "t": 157599.99999999994,
      "d": 333.33333333331393,
      "v": 84
    },
    {
      "midi": 64,
      "hit": false,
      "t": 157600.00000000006,
      "d": 333.33333333334303,
      "v": 84
    },
    {
      "midi": 83,
      "hit": false,
      "t": 157866.6666666666,
      "d": 129.16666666665697,
      "v": 86
    },
    {
      "midi": 76,
      "hit": false,
      "t": 158399.9999999999,
      "d": 662.5,
      "v": 92
    },
    {
      "midi": 62,
      "hit": false,
      "t": 158400.00000000006,
      "d": 662.5,
      "v": 92
    },
    {
      "midi": 71,
      "hit": false,
      "t": 159066.66666666657,
      "d": 66.66666666665697,
      "v": 92
    },
    {
      "midi": 67,
      "hit": false,
      "t": 159066.66666666657,
      "d": 66.66666666665697,
      "v": 92
    },
    {
      "midi": 76,
      "hit": false,
      "t": 159066.66666666657,
      "d": 129.16666666665697,
      "v": 92
    },
    {
      "midi": 62,
      "hit": false,
      "t": 159066.66666666672,
      "d": 129.16666666665697,
      "v": 92
    },
    {
      "midi": 44,
      "hit": false,
      "t": 159466.66666666672,
      "d": 395.83333333334303,
      "v": 75
    },
    {
      "midi": 59,
      "hit": false,
      "t": 159599.99999999988,
      "d": 262.5,
      "v": 75
    },
    {
      "midi": 64,
      "hit": false,
      "t": 159599.99999999988,
      "d": 333.33333333331393,
      "v": 75
    },
    {
      "midi": 52,
      "hit": false,
      "t": 159600.00000000006,
      "d": 333.33333333331393,
      "v": 75
    },
    {
      "midi": 60,
      "hit": false,
      "t": 159866.66666666654,
      "d": 129.16666666665697,
      "v": 75
    },
    {
      "midi": 57,
      "hit": false,
      "t": 159866.66666666654,
      "d": 129.16666666665697,
      "v": 75
    },
    {
      "midi": 45,
      "hit": false,
      "t": 159866.66666666672,
      "d": 133.33333333331393,
      "v": 75
    },
    {
      "midi": 71,
      "hit": false,
      "t": 161466.66666666654,
      "d": 133.33333333334303,
      "v": 60
    },
    {
      "midi": 63,
      "hit": false,
      "t": 161466.6666666667,
      "d": 133.33333333334303,
      "v": 60
    },
    {
      "midi": 72,
      "hit": false,
      "t": 161599.99999999988,
      "d": 195.83333333334303,
      "v": 60
    },
    {
      "midi": 64,
      "hit": false,
      "t": 161600.00000000003,
      "d": 195.83333333334303,
      "v": 60
    },
    {
      "midi": 68,
      "hit": false,
      "t": 161999.99999999988,
      "d": 266.66666666665697,
      "v": 60
    },
    {
      "midi": 59,
      "hit": false,
      "t": 162000.00000000003,
      "d": 266.66666666665697,
      "v": 60
    },
    {
      "midi": 69,
      "hit": false,
      "t": 162266.66666666654,
      "d": 129.16666666665697,
      "v": 60
    },
    {
      "midi": 60,
      "hit": false,
      "t": 162266.6666666667,
      "d": 129.16666666665697,
      "v": 60
    },
    {
      "midi": 69,
      "hit": false,
      "t": 162666.66666666654,
      "d": 329.16666666665697,
      "v": 75
    },
    {
      "midi": 64,
      "hit": false,
      "t": 162666.66666666654,
      "d": 329.16666666665697,
      "v": 75
    },
    {
      "midi": 60,
      "hit": false,
      "t": 162666.66666666654,
      "d": 329.16666666665697,
      "v": 75
    },
    {
      "midi": 55,
      "hit": false,
      "t": 162666.6666666667,
      "d": 329.16666666668607,
      "v": 75
    },
    {
      "midi": 45,
      "hit": false,
      "t": 162800.00000000003,
      "d": 195.83333333334303,
      "v": 76
    },
    {
      "midi": 55,
      "hit": false,
      "t": 163199.99999999985,
      "d": 29.166666666656965,
      "v": 78
    },
    {
      "midi": 38,
      "hit": false,
      "t": 163200.00000000003,
      "d": 662.5,
      "v": 78
    },
    {
      "midi": 60,
      "hit": false,
      "t": 163233.33333333317,
      "d": 633.333333333343,
      "v": 78
    },
    {
      "midi": 64,
      "hit": false,
      "t": 163266.6666666665,
      "d": 600,
      "v": 78
    },
    {
      "midi": 69,
      "hit": false,
      "t": 163299.99999999985,
      "d": 633.3333333333139,
      "v": 78
    },
    {
      "midi": 67,
      "hit": false,
      "t": 163866.6666666665,
      "d": 95.83333333331393,
      "v": 83
    },
    {
      "midi": 69,
      "hit": false,
      "t": 163999.99999999983,
      "d": 266.66666666665697,
      "v": 84
    },
    {
      "midi": 71,
      "hit": false,
      "t": 164266.66666666648,
      "d": 129.16666666665697,
      "v": 87
    },
    {
      "midi": 72,
      "hit": false,
      "t": 164666.66666666648,
      "d": 833.333333333343,
      "v": 92
    },
    {
      "midi": 67,
      "hit": false,
      "t": 164666.66666666648,
      "d": 833.333333333343,
      "v": 92
    },
    {
      "midi": 64,
      "hit": false,
      "t": 164666.66666666648,
      "d": 833.333333333343,
      "v": 92
    },
    {
      "midi": 60,
      "hit": false,
      "t": 164666.6666666667,
      "d": 833.333333333343,
      "v": 92
    },
    {
      "midi": 50,
      "hit": false,
      "t": 164666.6666666667,
      "d": 833.333333333343,
      "v": 92
    },
    {
      "midi": 74,
      "hit": false,
      "t": 165599.99999999983,
      "d": 400,
      "v": 92
    },
    {
      "midi": 63,
      "hit": false,
      "t": 165599.99999999983,
      "d": 700,
      "v": 92
    },
    {
      "midi": 69,
      "hit": false,
      "t": 165599.99999999983,
      "d": 700,
      "v": 92
    },
    {
      "midi": 66,
      "hit": false,
      "t": 165599.99999999983,
      "d": 700,
      "v": 92
    },
    {
      "midi": 60,
      "hit": false,
      "t": 165600.00000000003,
      "d": 700,
      "v": 92
    },
    {
      "midi": 50,
      "hit": false,
      "t": 165600.00000000003,
      "d": 700,
      "v": 92
    },
    {
      "midi": 72,
      "hit": false,
      "t": 165999.99999999983,
      "d": 333.33333333334303,
      "v": 92
    },
    {
      "midi": 71,
      "hit": false,
      "t": 166399.99999999983,
      "d": 333.33333333334303,
      "v": 92
    },
    {
      "midi": 66,
      "hit": false,
      "t": 166399.99999999983,
      "d": 333.33333333334303,
      "v": 92
    },
    {
      "midi": 62,
      "hit": false,
      "t": 166399.99999999983,
      "d": 333.33333333334303,
      "v": 92
    },
    {
      "midi": 55,
      "hit": false,
      "t": 166400.00000000003,
      "d": 333.33333333334303,
      "v": 92
    },
    {
      "midi": 85,
      "hit": false,
      "t": 167199.99999999983,
      "d": 45.833333333343035,
      "v": 75
    },
    {
      "midi": 79,
      "hit": false,
      "t": 167199.99999999983,
      "d": 733.333333333343,
      "v": 75
    },
    {
      "midi": 70,
      "hit": false,
      "t": 167200.00000000003,
      "d": 45.833333333343035,
      "v": 75
    },
    {
      "midi": 86,
      "hit": false,
      "t": 167249.99999999983,
      "d": 683.333333333343,
      "v": 75
    },
    {
      "midi": 71,
      "hit": false,
      "t": 167250.00000000003,
      "d": 683.333333333343,
      "v": 75
    },
    {
      "midi": 83,
      "hit": false,
      "t": 167999.99999999983,
      "d": 700,
      "v": 75
    },
    {
      "midi": 74,
      "hit": false,
      "t": 167999.99999999983,
      "d": 700,
      "v": 75
    },
    {
      "midi": 67,
      "hit": false,
      "t": 168000.00000000003,
      "d": 700,
      "v": 75
    },
    {
      "midi": 79,
      "hit": false,
      "t": 168799.99999999983,
      "d": 700,
      "v": 75
    },
    {
      "midi": 71,
      "hit": false,
      "t": 168799.99999999983,
      "d": 700,
      "v": 75
    },
    {
      "midi": 62,
      "hit": false,
      "t": 168800.00000000003,
      "d": 700,
      "v": 75
    },
    {
      "midi": 78,
      "hit": false,
      "t": 169599.99999999983,
      "d": 266.66666666665697,
      "v": 75
    },
    {
      "midi": 69,
      "hit": false,
      "t": 169599.99999999983,
      "d": 733.3333333332848,
      "v": 75
    },
    {
      "midi": 59,
      "hit": false,
      "t": 169600.00000000003,
      "d": 700,
      "v": 75
    },
    {
      "midi": 79,
      "hit": false,
      "t": 169866.66666666648,
      "d": 129.16666666665697,
      "v": 81
    },
    {
      "midi": 78,
      "hit": false,
      "t": 169999.9999999998,
      "d": 266.66666666665697,
      "v": 84
    },
    {
      "midi": 76,
      "hit": false,
      "t": 170266.66666666645,
      "d": 129.16666666665697,
      "v": 92
    },
    {
      "midi": 67,
      "hit": false,
      "t": 170266.66666666645,
      "d": 195.83333333331393,
      "v": 92
    },
    {
      "midi": 52,
      "hit": false,
      "t": 170266.6666666667,
      "d": 129.16666666668607,
      "v": 92
    },
    {
      "midi": 78,
      "hit": false,
      "t": 170799.99999999977,
      "d": 266.66666666665697,
      "v": 75
    },
    {
      "midi": 69,
      "hit": false,
      "t": 170799.99999999977,
      "d": 733.3333333332848,
      "v": 75
    },
    {
      "midi": 59,
      "hit": false,
      "t": 170800.00000000003,
      "d": 733.3333333333139,
      "v": 75
    },
    {
      "midi": 79,
      "hit": false,
      "t": 171066.66666666642,
      "d": 129.16666666665697,
      "v": 81
    },
    {
      "midi": 78,
      "hit": false,
      "t": 171199.99999999974,
      "d": 266.66666666665697,
      "v": 84
    },
    {
      "midi": 76,
      "hit": false,
      "t": 171466.6666666664,
      "d": 129.16666666665697,
      "v": 92
    },
    {
      "midi": 67,
      "hit": false,
      "t": 171466.6666666664,
      "d": 195.83333333331393,
      "v": 92
    },
    {
      "midi": 52,
      "hit": false,
      "t": 171466.6666666667,
      "d": 129.16666666665697,
      "v": 92
    },
    {
      "midi": 67,
      "hit": false,
      "t": 171999.9999999997,
      "d": 129.16666666665697,
      "v": 92
    },
    {
      "midi": 76,
      "hit": false,
      "t": 171999.9999999997,
      "d": 195.83333333331393,
      "v": 92
    },
    {
      "midi": 52,
      "hit": false,
      "t": 172000,
      "d": 129.16666666665697,
      "v": 92
    },
    {
      "midi": 59,
      "hit": false,
      "t": 172000,
      "d": 195.83333333331393,
      "v": 92
    },
    {
      "midi": 44,
      "hit": false,
      "t": 172266.66666666666,
      "d": 395.83333333334303,
      "v": 75
    },
    {
      "midi": 62,
      "hit": false,
      "t": 172399.99999999968,
      "d": 266.66666666665697,
      "v": 75
    },
    {
      "midi": 59,
      "hit": false,
      "t": 172399.99999999968,
      "d": 266.66666666665697,
      "v": 75
    },
    {
      "midi": 64,
      "hit": false,
      "t": 172399.99999999968,
      "d": 333.33333333331393,
      "v": 75
    },
    {
      "midi": 52,
      "hit": false,
      "t": 172400,
      "d": 333.33333333331393,
      "v": 75
    },
    {
      "midi": 60,
      "hit": false,
      "t": 172666.66666666634,
      "d": 133.33333333331393,
      "v": 75
    },
    {
      "midi": 57,
      "hit": false,
      "t": 172666.66666666634,
      "d": 133.33333333331393,
      "v": 75
    },
    {
      "midi": 45,
      "hit": false,
      "t": 172666.66666666666,
      "d": 133.33333333331393,
      "v": 75
    },
    {
      "midi": 87,
      "hit": false,
      "t": 173599.99999999965,
      "d": 45.833333333343035,
      "v": 75
    },
    {
      "midi": 81,
      "hit": false,
      "t": 173599.99999999965,
      "d": 733.333333333343,
      "v": 75
    },
    {
      "midi": 71,
      "hit": false,
      "t": 173599.99999999997,
      "d": 45.833333333343035,
      "v": 75
    },
    {
      "midi": 88,
      "hit": false,
      "t": 173649.99999999965,
      "d": 683.333333333343,
      "v": 75
    },
    {
      "midi": 72,
      "hit": false,
      "t": 173649.99999999997,
      "d": 683.333333333343,
      "v": 75
    },
    {
      "midi": 84,
      "hit": false,
      "t": 174399.99999999965,
      "d": 700,
      "v": 75
    },
    {
      "midi": 76,
      "hit": false,
      "t": 174399.99999999965,
      "d": 700,
      "v": 75
    },
    {
      "midi": 69,
      "hit": false,
      "t": 174399.99999999997,
      "d": 700,
      "v": 75
    },
    {
      "midi": 81,
      "hit": false,
      "t": 175199.99999999965,
      "d": 700,
      "v": 75
    },
    {
      "midi": 72,
      "hit": false,
      "t": 175199.99999999965,
      "d": 700,
      "v": 75
    },
    {
      "midi": 64,
      "hit": false,
      "t": 175199.99999999997,
      "d": 700,
      "v": 75
    },
    {
      "midi": 79,
      "hit": false,
      "t": 176799.99999999965,
      "d": 266.66666666665697,
      "v": 75
    },
    {
      "midi": 69,
      "hit": false,
      "t": 176799.99999999997,
      "d": 662.5,
      "v": 75
    },
    {
      "midi": 64,
      "hit": false,
      "t": 176799.99999999997,
      "d": 733.3333333333139,
      "v": 75
    },
    {
      "midi": 81,
      "hit": false,
      "t": 177066.6666666663,
      "d": 133.33333333334303,
      "v": 69
    },
    {
      "midi": 79,
      "hit": false,
      "t": 177199.99999999965,
      "d": 266.66666666665697,
      "v": 66
    },
    {
      "midi": 72,
      "hit": false,
      "t": 177466.6666666663,
      "d": 66.66666666665697,
      "v": 60
    },
    {
      "midi": 78,
      "hit": false,
      "t": 177466.6666666663,
      "d": 1633.333333333314,
      "v": 60
    },
    {
      "midi": 69,
      "hit": false,
      "t": 177466.66666666663,
      "d": 1633.333333333314,
      "v": 60
    },
    {
      "midi": 63,
      "hit": false,
      "t": 177466.66666666663,
      "d": 1633.333333333314,
      "v": 60
    }
  ]
}