{
  "jsonPath": "Rock/Album Rock/Genesis/never-a-time-2007-digital-remaster.json",
  "path": "Rock\\Album Rock\\Genesis\\Never A Time (2007 Digital Remaster).mid",
  "name": "Never A Time (2007 Digital Remaster)",
  "difficulty": "Advanced",
  "bpm": 75.99996960001216,
  "notes": [
    {
      "midi": 55,
      "hit": false,
      "t": 3157.896,
      "d": 190.78954999999996,
      "v": 100
    },
    {
      "midi": 60,
      "hit": false,
      "t": 3157.896,
      "d": 190.78954999999996,
      "v": 100
    },
    {
      "midi": 64,
      "hit": false,
      "t": 3157.896,
      "d": 190.78954999999996,
      "v": 100
    },
    {
      "midi": 53,
      "hit": false,
      "t": 4342.107,
      "d": 1184.2109999999993,
      "v": 100
    },
    {
      "midi": 57,
      "hit": false,
      "t": 4342.107,
      "d": 1381.579499999999,
      "v": 100
    },
    {
      "midi": 60,
      "hit": false,
      "t": 4342.107,
      "d": 1381.579499999999,
      "v": 100
    },
    {
      "midi": 55,
      "hit": false,
      "t": 6315.791999999999,
      "d": 789.4739999999993,
      "v": 100
    },
    {
      "midi": 60,
      "hit": false,
      "t": 6315.791999999999,
      "d": 789.4739999999993,
      "v": 100
    },
    {
      "midi": 64,
      "hit": false,
      "t": 6315.791999999999,
      "d": 789.4739999999993,
      "v": 100
    },
    {
      "midi": 59,
      "hit": false,
      "t": 7500.002999999998,
      "d": 1184.2109999999984,
      "v": 100
    },
    {
      "midi": 55,
      "hit": false,
      "t": 7500.002999999998,
      "d": 1381.579499999999,
      "v": 100
    },
    {
      "midi": 62,
      "hit": false,
      "t": 7500.002999999998,
      "d": 1381.579499999999,
      "v": 100
    },
    {
      "midi": 60,
      "hit": false,
      "t": 9078.950999999997,
      "d": 190.7895499999995,
      "v": 100
    },
    {
      "midi": 62,
      "hit": false,
      "t": 9276.319499999996,
      "d": 190.7895499999995,
      "v": 100
    },
    {
      "midi": 55,
      "hit": false,
      "t": 9473.687999999995,
      "d": 592.1054999999978,
      "v": 100
    },
    {
      "midi": 60,
      "hit": false,
      "t": 9473.687999999995,
      "d": 592.1054999999978,
      "v": 100
    },
    {
      "midi": 64,
      "hit": false,
      "t": 9473.687999999995,
      "d": 592.1054999999978,
      "v": 100
    },
    {
      "midi": 57,
      "hit": false,
      "t": 10657.898999999992,
      "d": 1184.2109999999993,
      "v": 100
    },
    {
      "midi": 53,
      "hit": false,
      "t": 10657.898999999992,
      "d": 1381.5794999999998,
      "v": 100
    },
    {
      "midi": 60,
      "hit": false,
      "t": 10657.898999999992,
      "d": 1381.5794999999998,
      "v": 100
    },
    {
      "midi": 60,
      "hit": false,
      "t": 12631.583999999992,
      "d": 789.4740000000002,
      "v": 100
    },
    {
      "midi": 55,
      "hit": false,
      "t": 12631.583999999992,
      "d": 986.8425000000007,
      "v": 100
    },
    {
      "midi": 64,
      "hit": false,
      "t": 12631.583999999992,
      "d": 986.8425000000007,
      "v": 100
    },
    {
      "midi": 59,
      "hit": false,
      "t": 13815.794999999993,
      "d": 1184.2110000000011,
      "v": 100
    },
    {
      "midi": 55,
      "hit": false,
      "t": 13815.794999999993,
      "d": 1381.5795000000016,
      "v": 100
    },
    {
      "midi": 62,
      "hit": false,
      "t": 13815.794999999993,
      "d": 1381.5795000000016,
      "v": 100
    },
    {
      "midi": 60,
      "hit": false,
      "t": 15394.742999999995,
      "d": 190.7895499999995,
      "v": 100
    },
    {
      "midi": 62,
      "hit": false,
      "t": 15592.111499999994,
      "d": 190.7895499999995,
      "v": 100
    },
    {
      "midi": 55,
      "hit": false,
      "t": 15789.479999999992,
      "d": 190.7895499999995,
      "v": 100
    },
    {
      "midi": 60,
      "hit": false,
      "t": 15789.479999999992,
      "d": 190.7895499999995,
      "v": 100
    },
    {
      "midi": 64,
      "hit": false,
      "t": 15789.479999999992,
      "d": 190.7895499999995,
      "v": 100
    },
    {
      "midi": 57,
      "hit": false,
      "t": 16184.216999999991,
      "d": 190.7895499999995,
      "v": 100
    },
    {
      "midi": 60,
      "hit": false,
      "t": 16184.216999999991,
      "d": 190.7895499999995,
      "v": 100
    },
    {
      "midi": 65,
      "hit": false,
      "t": 16184.216999999991,
      "d": 190.7895499999995,
      "v": 100
    },
    {
      "midi": 55,
      "hit": false,
      "t": 16578.95399999999,
      "d": 190.78955000000133,
      "v": 100
    },
    {
      "midi": 60,
      "hit": false,
      "t": 16578.95399999999,
      "d": 190.78955000000133,
      "v": 100
    },
    {
      "midi": 64,
      "hit": false,
      "t": 16578.95399999999,
      "d": 190.78955000000133,
      "v": 100
    },
    {
      "midi": 53,
      "hit": false,
      "t": 16973.69099999999,
      "d": 592.1054999999978,
      "v": 100
    },
    {
      "midi": 57,
      "hit": false,
      "t": 16973.69099999999,
      "d": 592.1054999999978,
      "v": 100
    },
    {
      "midi": 60,
      "hit": false,
      "t": 16973.69099999999,
      "d": 592.1054999999978,
      "v": 100
    },
    {
      "midi": 53,
      "hit": false,
      "t": 17763.16499999999,
      "d": 190.78955000000133,
      "v": 100
    },
    {
      "midi": 57,
      "hit": false,
      "t": 17763.16499999999,
      "d": 190.78955000000133,
      "v": 100
    },
    {
      "midi": 55,
      "hit": false,
      "t": 18552.638999999992,
      "d": 592.1055000000015,
      "v": 100
    },
    {
      "midi": 59,
      "hit": false,
      "t": 18552.638999999992,
      "d": 592.1055000000015,
      "v": 100
    },
    {
      "midi": 62,
      "hit": false,
      "t": 18552.638999999992,
      "d": 592.1055000000015,
      "v": 100
    },
    {
      "midi": 59,
      "hit": false,
      "t": 19342.112999999994,
      "d": 190.78955000000133,
      "v": 100
    },
    {
      "midi": 64,
      "hit": false,
      "t": 19342.112999999994,
      "d": 190.78955000000133,
      "v": 100
    },
    {
      "midi": 58,
      "hit": false,
      "t": 22105.271999999997,
      "d": 394.737000000001,
      "v": 100
    },
    {
      "midi": 60,
      "hit": false,
      "t": 22105.271999999997,
      "d": 394.737000000001,
      "v": 100
    },
    {
      "midi": 65,
      "hit": false,
      "t": 22105.271999999997,
      "d": 394.737000000001,
      "v": 100
    },
    {
      "midi": 58,
      "hit": false,
      "t": 22697.3775,
      "d": 190.78955000000133,
      "v": 100
    },
    {
      "midi": 64,
      "hit": false,
      "t": 22697.3775,
      "d": 190.78955000000133,
      "v": 100
    },
    {
      "midi": 58,
      "hit": false,
      "t": 23289.483,
      "d": 592.1054999999978,
      "v": 100
    },
    {
      "midi": 62,
      "hit": false,
      "t": 23289.483,
      "d": 592.1054999999978,
      "v": 100
    },
    {
      "midi": 60,
      "hit": false,
      "t": 24078.957,
      "d": 789.4739999999983,
      "v": 100
    },
    {
      "midi": 58,
      "hit": false,
      "t": 24078.957,
      "d": 986.8424999999988,
      "v": 100
    },
    {
      "midi": 62,
      "hit": false,
      "t": 25065.799499999997,
      "d": 190.78955000000133,
      "v": 100
    },
    {
      "midi": 57,
      "hit": false,
      "t": 25263.167999999998,
      "d": 394.737000000001,
      "v": 100
    },
    {
      "midi": 60,
      "hit": false,
      "t": 25263.167999999998,
      "d": 394.737000000001,
      "v": 100
    },
    {
      "midi": 65,
      "hit": false,
      "t": 25263.167999999998,
      "d": 394.737000000001,
      "v": 100
    },
    {
      "midi": 57,
      "hit": false,
      "t": 25855.2735,
      "d": 190.78955000000133,
      "v": 100
    },
    {
      "midi": 64,
      "hit": false,
      "t": 25855.2735,
      "d": 190.78955000000133,
      "v": 100
    },
    {
      "midi": 65,
      "hit": false,
      "t": 26447.379,
      "d": 190.7895499999977,
      "v": 100
    },
    {
      "midi": 60,
      "hit": false,
      "t": 26447.379,
      "d": 394.73699999999735,
      "v": 100
    },
    {
      "midi": 57,
      "hit": false,
      "t": 26447.379,
      "d": 1381.5794999999998,
      "v": 100
    },
    {
      "midi": 64,
      "hit": false,
      "t": 26644.747499999998,
      "d": 190.78955000000133,
      "v": 100
    },
    {
      "midi": 62,
      "hit": false,
      "t": 26842.115999999998,
      "d": 190.78955000000133,
      "v": 100
    },
    {
      "midi": 60,
      "hit": false,
      "t": 27039.4845,
      "d": 789.474000000002,
      "v": 100
    },
    {
      "midi": 60,
      "hit": false,
      "t": 28026.327,
      "d": 190.78955000000133,
      "v": 100
    },
    {
      "midi": 62,
      "hit": false,
      "t": 28223.6955,
      "d": 190.78955000000133,
      "v": 100
    },
    {
      "midi": 55,
      "hit": false,
      "t": 28421.064000000002,
      "d": 190.7895499999977,
      "v": 100
    },
    {
      "midi": 60,
      "hit": false,
      "t": 28421.064000000002,
      "d": 190.7895499999977,
      "v": 100
    },
    {
      "midi": 64,
      "hit": false,
      "t": 28421.064000000002,
      "d": 190.7895499999977,
      "v": 100
    },
    {
      "midi": 57,
      "hit": false,
      "t": 28815.801,
      "d": 190.78955000000133,
      "v": 100
    },
    {
      "midi": 60,
      "hit": false,
      "t": 28815.801,
      "d": 190.78955000000133,
      "v": 100
    },
    {
      "midi": 65,
      "hit": false,
      "t": 28815.801,
      "d": 190.78955000000133,
      "v": 100
    },
    {
      "midi": 55,
      "hit": false,
      "t": 29210.538,
      "d": 190.7895499999977,
      "v": 100
    },
    {
      "midi": 60,
      "hit": false,
      "t": 29210.538,
      "d": 190.7895499999977,
      "v": 100
    },
    {
      "midi": 64,
      "hit": false,
      "t": 29210.538,
      "d": 190.7895499999977,
      "v": 100
    },
    {
      "midi": 53,
      "hit": false,
      "t": 29605.274999999998,
      "d": 592.1055000000015,
      "v": 100
    },
    {
      "midi": 57,
      "hit": false,
      "t": 29605.274999999998,
      "d": 592.1055000000015,
      "v": 100
    },
    {
      "midi": 60,
      "hit": false,
      "t": 29605.274999999998,
      "d": 592.1055000000015,
      "v": 100
    },
    {
      "midi": 53,
      "hit": false,
      "t": 30394.749,
      "d": 190.78955000000133,
      "v": 100
    },
    {
      "midi": 57,
      "hit": false,
      "t": 30394.749,
      "d": 190.78955000000133,
      "v": 100
    },
    {
      "midi": 59,
      "hit": false,
      "t": 31184.223,
      "d": 592.1054999999978,
      "v": 100
    },
    {
      "midi": 62,
      "hit": false,
      "t": 31184.223,
      "d": 592.1054999999978,
      "v": 100
    },
    {
      "midi": 55,
      "hit": false,
      "t": 31184.223,
      "d": 1776.3164999999972,
      "v": 100
    },
    {
      "midi": 59,
      "hit": false,
      "t": 31973.697,
      "d": 789.4739999999983,
      "v": 100
    },
    {
      "midi": 64,
      "hit": false,
      "t": 31973.697,
      "d": 789.4739999999983,
      "v": 100
    },
    {
      "midi": 62,
      "hit": false,
      "t": 34736.856,
      "d": 592.1054999999978,
      "v": 100
    },
    {
      "midi": 65,
      "hit": false,
      "t": 34736.856,
      "d": 592.1054999999978,
      "v": 100
    },
    {
      "midi": 58,
      "hit": false,
      "t": 34736.856,
      "d": 789.474000000002,
      "v": 100
    },
    {
      "midi": 64,
      "hit": false,
      "t": 35328.9615,
      "d": 190.78955000000133,
      "v": 100
    },
    {
      "midi": 62,
      "hit": false,
      "t": 35921.067,
      "d": 394.737000000001,
      "v": 100
    },
    {
      "midi": 58,
      "hit": false,
      "t": 35921.067,
      "d": 592.1054999999978,
      "v": 100
    },
    {
      "midi": 58,
      "hit": false,
      "t": 36710.541,
      "d": 789.474000000002,
      "v": 100
    },
    {
      "midi": 60,
      "hit": false,
      "t": 36710.541,
      "d": 789.474000000002,
      "v": 100
    },
    {
      "midi": 57,
      "hit": false,
      "t": 37894.752,
      "d": 394.7369999999937,
      "v": 100
    },
    {
      "midi": 60,
      "hit": false,
      "t": 37894.752,
      "d": 394.7369999999937,
      "v": 100
    },
    {
      "midi": 65,
      "hit": false,
      "t": 37894.752,
      "d": 394.7369999999937,
      "v": 100
    },
    {
      "midi": 57,
      "hit": false,
      "t": 38486.85749999999,
      "d": 190.78955000000133,
      "v": 100
    },
    {
      "midi": 64,
      "hit": false,
      "t": 38486.85749999999,
      "d": 190.78955000000133,
      "v": 100
    },
    {
      "midi": 60,
      "hit": false,
      "t": 39078.96299999999,
      "d": 190.78955000000133,
      "v": 100
    },
    {
      "midi": 65,
      "hit": false,
      "t": 39078.96299999999,
      "d": 190.78955000000133,
      "v": 100
    },
    {
      "midi": 57,
      "hit": false,
      "t": 39078.96299999999,
      "d": 592.1055000000124,
      "v": 100
    },
    {
      "midi": 64,
      "hit": false,
      "t": 39276.33149999999,
      "d": 190.78955000000133,
      "v": 100
    },
    {
      "midi": 62,
      "hit": false,
      "t": 39473.7,
      "d": 190.78955000000133,
      "v": 100
    },
    {
      "midi": 57,
      "hit": false,
      "t": 39671.0685,
      "d": 789.474000000002,
      "v": 100
    },
    {
      "midi": 60,
      "hit": false,
      "t": 39671.0685,
      "d": 789.474000000002,
      "v": 100
    },
    {
      "midi": 62,
      "hit": false,
      "t": 41052.648,
      "d": 592.1054999999978,
      "v": 100
    },
    {
      "midi": 65,
      "hit": false,
      "t": 41052.648,
      "d": 592.1054999999978,
      "v": 100
    },
    {
      "midi": 57,
      "hit": false,
      "t": 41052.648,
      "d": 789.4739999999947,
      "v": 100
    },
    {
      "midi": 59,
      "hit": false,
      "t": 42236.859,
      "d": 592.1055000000051,
      "v": 100
    },
    {
      "midi": 62,
      "hit": false,
      "t": 42236.859,
      "d": 592.1055000000051,
      "v": 100
    },
    {
      "midi": 67,
      "hit": false,
      "t": 42236.859,
      "d": 592.1055000000051,
      "v": 100
    },
    {
      "midi": 59,
      "hit": false,
      "t": 43421.07,
      "d": 190.78955000000133,
      "v": 100
    },
    {
      "midi": 65,
      "hit": false,
      "t": 43421.07,
      "d": 190.78955000000133,
      "v": 100
    },
    {
      "midi": 55,
      "hit": false,
      "t": 44210.544,
      "d": 394.737000000001,
      "v": 100
    },
    {
      "midi": 60,
      "hit": false,
      "t": 44210.544,
      "d": 394.737000000001,
      "v": 100
    },
    {
      "midi": 64,
      "hit": false,
      "t": 44210.544,
      "d": 394.737000000001,
      "v": 100
    },
    {
      "midi": 55,
      "hit": false,
      "t": 44802.6495,
      "d": 190.78955000000133,
      "v": 100
    },
    {
      "midi": 60,
      "hit": false,
      "t": 44802.6495,
      "d": 190.78955000000133,
      "v": 100
    },
    {
      "midi": 53,
      "hit": false,
      "t": 45394.755,
      "d": 1776.3165000000008,
      "v": 100
    },
    {
      "midi": 57,
      "hit": false,
      "t": 45394.755,
      "d": 1776.3165000000008,
      "v": 100
    },
    {
      "midi": 60,
      "hit": false,
      "t": 45394.755,
      "d": 1776.3165000000008,
      "v": 100
    },
    {
      "midi": 50,
      "hit": false,
      "t": 47368.439999999995,
      "d": 190.78955000000133,
      "v": 100
    },
    {
      "midi": 53,
      "hit": false,
      "t": 47368.439999999995,
      "d": 190.78955000000133,
      "v": 100
    },
    {
      "midi": 57,
      "hit": false,
      "t": 47368.439999999995,
      "d": 190.78955000000133,
      "v": 100
    },
    {
      "midi": 60,
      "hit": false,
      "t": 47368.439999999995,
      "d": 190.78955000000133,
      "v": 100
    },
    {
      "midi": 50,
      "hit": false,
      "t": 47960.54549999999,
      "d": 190.78955000000133,
      "v": 100
    },
    {
      "midi": 53,
      "hit": false,
      "t": 47960.54549999999,
      "d": 190.78955000000133,
      "v": 100
    },
    {
      "midi": 57,
      "hit": false,
      "t": 47960.54549999999,
      "d": 190.78955000000133,
      "v": 100
    },
    {
      "midi": 60,
      "hit": false,
      "t": 47960.54549999999,
      "d": 190.78955000000133,
      "v": 100
    },
    {
      "midi": 55,
      "hit": false,
      "t": 48552.65099999999,
      "d": 789.4739999999947,
      "v": 100
    },
    {
      "midi": 62,
      "hit": false,
      "t": 48552.65099999999,
      "d": 789.4739999999947,
      "v": 100
    },
    {
      "midi": 59,
      "hit": false,
      "t": 48552.65099999999,
      "d": 986.8424999999916,
      "v": 100
    },
    {
      "midi": 53,
      "hit": false,
      "t": 49736.86199999998,
      "d": 190.78955000000133,
      "v": 100
    },
    {
      "midi": 62,
      "hit": false,
      "t": 49736.86199999998,
      "d": 190.78955000000133,
      "v": 100
    },
    {
      "midi": 52,
      "hit": false,
      "t": 50526.33599999998,
      "d": 394.737000000001,
      "v": 100
    },
    {
      "midi": 55,
      "hit": false,
      "t": 50526.33599999998,
      "d": 394.737000000001,
      "v": 100
    },
    {
      "midi": 59,
      "hit": false,
      "t": 50526.33599999998,
      "d": 394.737000000001,
      "v": 100
    },
    {
      "midi": 59,
      "hit": false,
      "t": 51118.44149999998,
      "d": 190.78955000000133,
      "v": 100
    },
    {
      "midi": 62,
      "hit": false,
      "t": 51118.44149999998,
      "d": 190.78955000000133,
      "v": 100
    },
    {
      "midi": 57,
      "hit": false,
      "t": 51710.546999999984,
      "d": 789.474000000002,
      "v": 100
    },
    {
      "midi": 60,
      "hit": false,
      "t": 51710.546999999984,
      "d": 789.474000000002,
      "v": 100
    },
    {
      "midi": 52,
      "hit": false,
      "t": 51710.546999999984,
      "d": 986.8424999999988,
      "v": 100
    },
    {
      "midi": 52,
      "hit": false,
      "t": 52894.75799999998,
      "d": 190.78955000000133,
      "v": 100
    },
    {
      "midi": 57,
      "hit": false,
      "t": 52894.75799999998,
      "d": 190.78955000000133,
      "v": 100
    },
    {
      "midi": 60,
      "hit": false,
      "t": 52894.75799999998,
      "d": 190.78955000000133,
      "v": 100
    },
    {
      "midi": 50,
      "hit": false,
      "t": 53684.23199999998,
      "d": 986.8424999999988,
      "v": 100
    },
    {
      "midi": 53,
      "hit": false,
      "t": 53684.23199999998,
      "d": 986.8424999999988,
      "v": 100
    },
    {
      "midi": 57,
      "hit": false,
      "t": 53684.23199999998,
      "d": 986.8424999999988,
      "v": 100
    },
    {
      "midi": 60,
      "hit": false,
      "t": 53684.23199999998,
      "d": 986.8424999999988,
      "v": 100
    },
    {
      "midi": 50,
      "hit": false,
      "t": 54868.44299999998,
      "d": 190.78955000000133,
      "v": 100
    },
    {
      "midi": 53,
      "hit": false,
      "t": 54868.44299999998,
      "d": 190.78955000000133,
      "v": 100
    },
    {
      "midi": 57,
      "hit": false,
      "t": 54868.44299999998,
      "d": 190.78955000000133,
      "v": 100
    },
    {
      "midi": 60,
      "hit": false,
      "t": 54868.44299999998,
      "d": 190.78955000000133,
      "v": 100
    },
    {
      "midi": 57,
      "hit": false,
      "t": 55263.17999999998,
      "d": 190.78955000000133,
      "v": 100
    },
    {
      "midi": 55,
      "hit": false,
      "t": 55460.54849999998,
      "d": 190.78955000000133,
      "v": 100
    },
    {
      "midi": 57,
      "hit": false,
      "t": 55657.91699999999,
      "d": 190.78955000000133,
      "v": 100
    },
    {
      "midi": 60,
      "hit": false,
      "t": 55855.28549999999,
      "d": 190.78955000000133,
      "v": 100
    },
    {
      "midi": 57,
      "hit": false,
      "t": 56250.02249999999,
      "d": 190.78955000000133,
      "v": 100
    },
    {
      "midi": 60,
      "hit": false,
      "t": 56447.390999999996,
      "d": 190.78955000000133,
      "v": 100
    },
    {
      "midi": 55,
      "hit": false,
      "t": 56842.128,
      "d": 592.1054999999978,
      "v": 100
    },
    {
      "midi": 60,
      "hit": false,
      "t": 56842.128,
      "d": 592.1054999999978,
      "v": 100
    },
    {
      "midi": 64,
      "hit": false,
      "t": 56842.128,
      "d": 592.1054999999978,
      "v": 100
    },
    {
      "midi": 57,
      "hit": false,
      "t": 58026.33899999999,
      "d": 1184.211000000003,
      "v": 100
    },
    {
      "midi": 53,
      "hit": false,
      "t": 58026.33899999999,
      "d": 1381.5794999999998,
      "v": 100
    },
    {
      "midi": 60,
      "hit": false,
      "t": 58026.33899999999,
      "d": 1381.5794999999998,
      "v": 100
    },
    {
      "midi": 60,
      "hit": false,
      "t": 60000.02399999999,
      "d": 789.474000000002,
      "v": 100
    },
    {
      "midi": 55,
      "hit": false,
      "t": 60000.02399999999,
      "d": 986.8424999999988,
      "v": 100
    },
    {
      "midi": 64,
      "hit": false,
      "t": 60000.02399999999,
      "d": 986.8424999999988,
      "v": 100
    },
    {
      "midi": 59,
      "hit": false,
      "t": 61184.234999999986,
      "d": 1184.211000000003,
      "v": 100
    },
    {
      "midi": 55,
      "hit": false,
      "t": 61184.234999999986,
      "d": 1381.5794999999998,
      "v": 100
    },
    {
      "midi": 62,
      "hit": false,
      "t": 61184.234999999986,
      "d": 1381.5794999999998,
      "v": 100
    },
    {
      "midi": 60,
      "hit": false,
      "t": 62763.18299999998,
      "d": 190.78955000000133,
      "v": 100
    },
    {
      "midi": 62,
      "hit": false,
      "t": 62960.55149999999,
      "d": 190.78955000000133,
      "v": 100
    },
    {
      "midi": 55,
      "hit": false,
      "t": 63157.91999999999,
      "d": 190.78955000000133,
      "v": 100
    },
    {
      "midi": 60,
      "hit": false,
      "t": 63157.91999999999,
      "d": 190.78955000000133,
      "v": 100
    },
    {
      "midi": 64,
      "hit": false,
      "t": 63157.91999999999,
      "d": 190.78955000000133,
      "v": 100
    },
    {
      "midi": 57,
      "hit": false,
      "t": 63552.65699999999,
      "d": 190.78955000000133,
      "v": 100
    },
    {
      "midi": 60,
      "hit": false,
      "t": 63552.65699999999,
      "d": 190.78955000000133,
      "v": 100
    },
    {
      "midi": 65,
      "hit": false,
      "t": 63552.65699999999,
      "d": 190.78955000000133,
      "v": 100
    },
    {
      "midi": 55,
      "hit": false,
      "t": 63947.39399999999,
      "d": 190.78954999999405,
      "v": 100
    },
    {
      "midi": 60,
      "hit": false,
      "t": 63947.39399999999,
      "d": 190.78954999999405,
      "v": 100
    },
    {
      "midi": 64,
      "hit": false,
      "t": 63947.39399999999,
      "d": 190.78954999999405,
      "v": 100
    },
    {
      "midi": 53,
      "hit": false,
      "t": 64342.13099999999,
      "d": 592.1054999999978,
      "v": 100
    },
    {
      "midi": 57,
      "hit": false,
      "t": 64342.13099999999,
      "d": 592.1054999999978,
      "v": 100
    },
    {
      "midi": 60,
      "hit": false,
      "t": 64342.13099999999,
      "d": 592.1054999999978,
      "v": 100
    },
    {
      "midi": 53,
      "hit": false,
      "t": 65131.60499999998,
      "d": 190.78955000000133,
      "v": 100
    },
    {
      "midi": 57,
      "hit": false,
      "t": 65131.60499999998,
      "d": 190.78955000000133,
      "v": 100
    },
    {
      "midi": 55,
      "hit": false,
      "t": 65921.07899999998,
      "d": 592.1055000000051,
      "v": 100
    },
    {
      "midi": 59,
      "hit": false,
      "t": 65921.07899999998,
      "d": 592.1055000000051,
      "v": 100
    },
    {
      "midi": 62,
      "hit": false,
      "t": 65921.07899999998,
      "d": 592.1055000000051,
      "v": 100
    },
    {
      "midi": 59,
      "hit": false,
      "t": 66710.55299999999,
      "d": 190.78955000000133,
      "v": 100
    },
    {
      "midi": 64,
      "hit": false,
      "t": 66710.55299999999,
      "d": 190.78955000000133,
      "v": 100
    },
    {
      "midi": 58,
      "hit": false,
      "t": 69473.71199999998,
      "d": 394.73700000000827,
      "v": 100
    },
    {
      "midi": 60,
      "hit": false,
      "t": 69473.71199999998,
      "d": 394.73700000000827,
      "v": 100
    },
    {
      "midi": 65,
      "hit": false,
      "t": 69473.71199999998,
      "d": 394.73700000000827,
      "v": 100
    },
    {
      "midi": 58,
      "hit": false,
      "t": 70065.81749999999,
      "d": 190.78955000000133,
      "v": 100
    },
    {
      "midi": 64,
      "hit": false,
      "t": 70065.81749999999,
      "d": 190.78955000000133,
      "v": 100
    },
    {
      "midi": 58,
      "hit": false,
      "t": 70657.923,
      "d": 592.1055000000051,
      "v": 100
    },
    {
      "midi": 62,
      "hit": false,
      "t": 70657.923,
      "d": 592.1055000000051,
      "v": 100
    },
    {
      "midi": 60,
      "hit": false,
      "t": 71447.397,
      "d": 789.474000000002,
      "v": 100
    },
    {
      "midi": 58,
      "hit": false,
      "t": 71447.397,
      "d": 986.8424999999988,
      "v": 100
    },
    {
      "midi": 62,
      "hit": false,
      "t": 72434.2395,
      "d": 190.78955000000133,
      "v": 100
    },
    {
      "midi": 57,
      "hit": false,
      "t": 72631.608,
      "d": 394.7369999999937,
      "v": 100
    },
    {
      "midi": 60,
      "hit": false,
      "t": 72631.608,
      "d": 394.7369999999937,
      "v": 100
    },
    {
      "midi": 65,
      "hit": false,
      "t": 72631.608,
      "d": 394.7369999999937,
      "v": 100
    },
    {
      "midi": 57,
      "hit": false,
      "t": 73223.71349999998,
      "d": 190.78955000000133,
      "v": 100
    },
    {
      "midi": 64,
      "hit": false,
      "t": 73223.71349999998,
      "d": 190.78955000000133,
      "v": 100
    },
    {
      "midi": 65,
      "hit": false,
      "t": 73815.81899999999,
      "d": 190.78955000000133,
      "v": 100
    },
    {
      "midi": 60,
      "hit": false,
      "t": 73815.81899999999,
      "d": 394.73699999997916,
      "v": 100
    },
    {
      "midi": 57,
      "hit": false,
      "t": 73815.81899999999,
      "d": 1381.579499999978,
      "v": 100
    },
    {
      "midi": 64,
      "hit": false,
      "t": 74013.18749999999,
      "d": 190.78954999998678,
      "v": 100
    },
    {
      "midi": 62,
      "hit": false,
      "t": 74210.55599999997,
      "d": 190.78955000000133,
      "v": 100
    },
    {
      "midi": 60,
      "hit": false,
      "t": 74407.92449999996,
      "d": 789.474000000002,
      "v": 100
    },
    {
      "midi": 60,
      "hit": false,
      "t": 75394.76699999996,
      "d": 190.78955000000133,
      "v": 100
    },
    {
      "midi": 62,
      "hit": false,
      "t": 75592.13549999996,
      "d": 190.78955000000133,
      "v": 100
    },
    {
      "midi": 55,
      "hit": false,
      "t": 75789.50399999996,
      "d": 190.78955000000133,
      "v": 100
    },
    {
      "midi": 60,
      "hit": false,
      "t": 75789.50399999996,
      "d": 190.78955000000133,
      "v": 100
    },
    {
      "midi": 64,
      "hit": false,
      "t": 75789.50399999996,
      "d": 190.78955000000133,
      "v": 100
    },
    {
      "midi": 57,
      "hit": false,
      "t": 76184.24099999997,
      "d": 190.78955000000133,
      "v": 100
    },
    {
      "midi": 60,
      "hit": false,
      "t": 76184.24099999997,
      "d": 190.78955000000133,
      "v": 100
    },
    {
      "midi": 65,
      "hit": false,
      "t": 76184.24099999997,
      "d": 190.78955000000133,
      "v": 100
    },
    {
      "midi": 55,
      "hit": false,
      "t": 76578.97799999996,
      "d": 190.78955000000133,
      "v": 100
    },
    {
      "midi": 60,
      "hit": false,
      "t": 76578.97799999996,
      "d": 190.78955000000133,
      "v": 100
    },
    {
      "midi": 64,
      "hit": false,
      "t": 76578.97799999996,
      "d": 190.78955000000133,
      "v": 100
    },
    {
      "midi": 53,
      "hit": false,
      "t": 76973.71499999997,
      "d": 592.1054999999906,
      "v": 100
    },
    {
      "midi": 57,
      "hit": false,
      "t": 76973.71499999997,
      "d": 592.1054999999906,
      "v": 100
    },
    {
      "midi": 60,
      "hit": false,
      "t": 76973.71499999997,
      "d": 592.1054999999906,
      "v": 100
    },
    {
      "midi": 53,
      "hit": false,
      "t": 77763.18899999995,
      "d": 190.78955000000133,
      "v": 100
    },
    {
      "midi": 57,
      "hit": false,
      "t": 77763.18899999995,
      "d": 190.78955000000133,
      "v": 100
    },
    {
      "midi": 59,
      "hit": false,
      "t": 78552.66299999996,
      "d": 592.1055000000051,
      "v": 100
    },
    {
      "midi": 62,
      "hit": false,
      "t": 78552.66299999996,
      "d": 592.1055000000051,
      "v": 100
    },
    {
      "midi": 55,
      "hit": false,
      "t": 78552.66299999996,
      "d": 1776.3165000000008,
      "v": 100
    },
    {
      "midi": 59,
      "hit": false,
      "t": 79342.13699999996,
      "d": 789.474000000002,
      "v": 100
    },
    {
      "midi": 64,
      "hit": false,
      "t": 79342.13699999996,
      "d": 789.474000000002,
      "v": 100
    },
    {
      "midi": 62,
      "hit": false,
      "t": 82105.29599999996,
      "d": 592.1055000000051,
      "v": 100
    },
    {
      "midi": 65,
      "hit": false,
      "t": 82105.29599999996,
      "d": 592.1055000000051,
      "v": 100
    },
    {
      "midi": 58,
      "hit": false,
      "t": 82105.29599999996,
      "d": 789.474000000002,
      "v": 100
    },
    {
      "midi": 64,
      "hit": false,
      "t": 82697.40149999996,
      "d": 190.78955000000133,
      "v": 100
    },
    {
      "midi": 62,
      "hit": false,
      "t": 83289.50699999995,
      "d": 394.73700000000827,
      "v": 100
    },
    {
      "midi": 58,
      "hit": false,
      "t": 83289.50699999995,
      "d": 592.1055000000051,
      "v": 100
    },
    {
      "midi": 58,
      "hit": false,
      "t": 84078.98099999996,
      "d": 789.4739999999874,
      "v": 100
    },
    {
      "midi": 60,
      "hit": false,
      "t": 84078.98099999996,
      "d": 789.4739999999874,
      "v": 100
    },
    {
      "midi": 57,
      "hit": false,
      "t": 85263.19199999995,
      "d": 394.7369999999937,
      "v": 100
    },
    {
      "midi": 60,
      "hit": false,
      "t": 85263.19199999995,
      "d": 394.7369999999937,
      "v": 100
    },
    {
      "midi": 65,
      "hit": false,
      "t": 85263.19199999995,
      "d": 394.7369999999937,
      "v": 100
    },
    {
      "midi": 57,
      "hit": false,
      "t": 85855.29749999994,
      "d": 190.78955000000133,
      "v": 100
    },
    {
      "midi": 64,
      "hit": false,
      "t": 85855.29749999994,
      "d": 190.78955000000133,
      "v": 100
    },
    {
      "midi": 60,
      "hit": false,
      "t": 86447.40299999995,
      "d": 190.78955000000133,
      "v": 100
    },
    {
      "midi": 65,
      "hit": false,
      "t": 86447.40299999995,
      "d": 190.78955000000133,
      "v": 100
    },
    {
      "midi": 57,
      "hit": false,
      "t": 86447.40299999995,
      "d": 592.1054999999906,
      "v": 100
    },
    {
      "midi": 64,
      "hit": false,
      "t": 86644.77149999994,
      "d": 190.78955000000133,
      "v": 100
    },
    {
      "midi": 62,
      "hit": false,
      "t": 86842.13999999994,
      "d": 190.78955000000133,
      "v": 100
    },
    {
      "midi": 57,
      "hit": false,
      "t": 87039.50849999994,
      "d": 789.4739999999874,
      "v": 100
    },
    {
      "midi": 60,
      "hit": false,
      "t": 87039.50849999994,
      "d": 789.4739999999874,
      "v": 100
    },
    {
      "midi": 62,
      "hit": false,
      "t": 88421.08799999992,
      "d": 592.1055000000051,
      "v": 100
    },
    {
      "midi": 65,
      "hit": false,
      "t": 88421.08799999992,
      "d": 592.1055000000051,
      "v": 100
    },
    {
      "midi": 57,
      "hit": false,
      "t": 88421.08799999992,
      "d": 789.474000000002,
      "v": 100
    },
    {
      "midi": 59,
      "hit": false,
      "t": 89605.29899999991,
      "d": 592.1054999999906,
      "v": 100
    },
    {
      "midi": 62,
      "hit": false,
      "t": 89605.29899999991,
      "d": 592.1054999999906,
      "v": 100
    },
    {
      "midi": 67,
      "hit": false,
      "t": 89605.29899999991,
      "d": 592.1054999999906,
      "v": 100
    },
    {
      "midi": 59,
      "hit": false,
      "t": 90789.50999999991,
      "d": 190.78955000000133,
      "v": 100
    },
    {
      "midi": 65,
      "hit": false,
      "t": 90789.50999999991,
      "d": 190.78955000000133,
      "v": 100
    },
    {
      "midi": 55,
      "hit": false,
      "t": 91578.98399999991,
      "d": 394.7369999999937,
      "v": 100
    },
    {
      "midi": 60,
      "hit": false,
      "t": 91578.98399999991,
      "d": 394.7369999999937,
      "v": 100
    },
    {
      "midi": 64,
      "hit": false,
      "t": 91578.98399999991,
      "d": 394.7369999999937,
      "v": 100
    },
    {
      "midi": 55,
      "hit": false,
      "t": 92171.0894999999,
      "d": 190.78955000000133,
      "v": 100
    },
    {
      "midi": 60,
      "hit": false,
      "t": 92171.0894999999,
      "d": 190.78955000000133,
      "v": 100
    },
    {
      "midi": 53,
      "hit": false,
      "t": 92763.1949999999,
      "d": 1776.3165000000008,
      "v": 100
    },
    {
      "midi": 57,
      "hit": false,
      "t": 92763.1949999999,
      "d": 1776.3165000000008,
      "v": 100
    },
    {
      "midi": 60,
      "hit": false,
      "t": 92763.1949999999,
      "d": 1776.3165000000008,
      "v": 100
    },
    {
      "midi": 50,
      "hit": false,
      "t": 94736.87999999992,
      "d": 190.78955000000133,
      "v": 100
    },
    {
      "midi": 53,
      "hit": false,
      "t": 94736.87999999992,
      "d": 190.78955000000133,
      "v": 100
    },
    {
      "midi": 57,
      "hit": false,
      "t": 94736.87999999992,
      "d": 190.78955000000133,
      "v": 100
    },
    {
      "midi": 60,
      "hit": false,
      "t": 94736.87999999992,
      "d": 190.78955000000133,
      "v": 100
    },
    {
      "midi": 50,
      "hit": false,
      "t": 95328.98549999992,
      "d": 190.78955000000133,
      "v": 100
    },
    {
      "midi": 53,
      "hit": false,
      "t": 95328.98549999992,
      "d": 190.78955000000133,
      "v": 100
    },
    {
      "midi": 57,
      "hit": false,
      "t": 95328.98549999992,
      "d": 190.78955000000133,
      "v": 100
    },
    {
      "midi": 60,
      "hit": false,
      "t": 95328.98549999992,
      "d": 190.78955000000133,
      "v": 100
    },
    {
      "midi": 55,
      "hit": false,
      "t": 95921.09099999993,
      "d": 789.474000000002,
      "v": 100
    },
    {
      "midi": 62,
      "hit": false,
      "t": 95921.09099999993,
      "d": 789.474000000002,
      "v": 100
    },
    {
      "midi": 59,
      "hit": false,
      "t": 95921.09099999993,
      "d": 986.8424999999988,
      "v": 100
    },
    {
      "midi": 53,
      "hit": false,
      "t": 97105.30199999992,
      "d": 190.78955000000133,
      "v": 100
    },
    {
      "midi": 62,
      "hit": false,
      "t": 97105.30199999992,
      "d": 190.78955000000133,
      "v": 100
    },
    {
      "midi": 52,
      "hit": false,
      "t": 97894.77599999993,
      "d": 394.7369999999937,
      "v": 100
    },
    {
      "midi": 55,
      "hit": false,
      "t": 97894.77599999993,
      "d": 394.7369999999937,
      "v": 100
    },
    {
      "midi": 59,
      "hit": false,
      "t": 97894.77599999993,
      "d": 394.7369999999937,
      "v": 100
    },
    {
      "midi": 59,
      "hit": false,
      "t": 98486.88149999992,
      "d": 190.78955000000133,
      "v": 100
    },
    {
      "midi": 62,
      "hit": false,
      "t": 98486.88149999992,
      "d": 190.78955000000133,
      "v": 100
    },
    {
      "midi": 57,
      "hit": false,
      "t": 99078.9869999999,
      "d": 789.4739999999874,
      "v": 100
    },
    {
      "midi": 60,
      "hit": false,
      "t": 99078.9869999999,
      "d": 789.4739999999874,
      "v": 100
    },
    {
      "midi": 52,
      "hit": false,
      "t": 99078.9869999999,
      "d": 986.8424999999843,
      "v": 100
    },
    {
      "midi": 52,
      "hit": false,
      "t": 100263.19799999989,
      "d": 190.78955000000133,
      "v": 100
    },
    {
      "midi": 57,
      "hit": false,
      "t": 100263.19799999989,
      "d": 190.78955000000133,
      "v": 100
    },
    {
      "midi": 60,
      "hit": false,
      "t": 100263.19799999989,
      "d": 190.78955000000133,
      "v": 100
    },
    {
      "midi": 50,
      "hit": false,
      "t": 101052.67199999989,
      "d": 986.8425000000134,
      "v": 100
    },
    {
      "midi": 53,
      "hit": false,
      "t": 101052.67199999989,
      "d": 986.8425000000134,
      "v": 100
    },
    {
      "midi": 57,
      "hit": false,
      "t": 101052.67199999989,
      "d": 986.8425000000134,
      "v": 100
    },
    {
      "midi": 60,
      "hit": false,
      "t": 101052.67199999989,
      "d": 986.8425000000134,
      "v": 100
    },
    {
      "midi": 50,
      "hit": false,
      "t": 102236.8829999999,
      "d": 190.78955000000133,
      "v": 100
    },
    {
      "midi": 53,
      "hit": false,
      "t": 102236.8829999999,
      "d": 190.78955000000133,
      "v": 100
    },
    {
      "midi": 57,
      "hit": false,
      "t": 102236.8829999999,
      "d": 190.78955000000133,
      "v": 100
    },
    {
      "midi": 60,
      "hit": false,
      "t": 102236.8829999999,
      "d": 190.78955000000133,
      "v": 100
    },
    {
      "midi": 57,
      "hit": false,
      "t": 102631.61999999991,
      "d": 190.78955000000133,
      "v": 100
    },
    {
      "midi": 55,
      "hit": false,
      "t": 102828.9884999999,
      "d": 190.78955000000133,
      "v": 100
    },
    {
      "midi": 57,
      "hit": false,
      "t": 103026.3569999999,
      "d": 190.78955000000133,
      "v": 100
    },
    {
      "midi": 60,
      "hit": false,
      "t": 103223.7254999999,
      "d": 190.78955000000133,
      "v": 100
    },
    {
      "midi": 57,
      "hit": false,
      "t": 103618.4624999999,
      "d": 190.78955000000133,
      "v": 100
    },
    {
      "midi": 60,
      "hit": false,
      "t": 103815.8309999999,
      "d": 190.78955000000133,
      "v": 100
    },
    {
      "midi": 55,
      "hit": false,
      "t": 104210.56799999991,
      "d": 592.1055000000051,
      "v": 100
    },
    {
      "midi": 60,
      "hit": false,
      "t": 104210.56799999991,
      "d": 592.1055000000051,
      "v": 100
    },
    {
      "midi": 64,
      "hit": false,
      "t": 104210.56799999991,
      "d": 592.1055000000051,
      "v": 100
    },
    {
      "midi": 57,
      "hit": false,
      "t": 105394.77899999992,
      "d": 1184.2110000000102,
      "v": 100
    },
    {
      "midi": 53,
      "hit": false,
      "t": 105394.77899999992,
      "d": 1381.579500000007,
      "v": 100
    },
    {
      "midi": 60,
      "hit": false,
      "t": 105394.77899999992,
      "d": 1381.579500000007,
      "v": 100
    },
    {
      "midi": 60,
      "hit": false,
      "t": 107368.46399999993,
      "d": 789.474000000002,
      "v": 100
    },
    {
      "midi": 55,
      "hit": false,
      "t": 107368.46399999993,
      "d": 986.8424999999988,
      "v": 100
    },
    {
      "midi": 64,
      "hit": false,
      "t": 107368.46399999993,
      "d": 986.8424999999988,
      "v": 100
    },
    {
      "midi": 59,
      "hit": false,
      "t": 108552.67499999993,
      "d": 1184.2110000000102,
      "v": 100
    },
    {
      "midi": 55,
      "hit": false,
      "t": 108552.67499999993,
      "d": 1381.579500000007,
      "v": 100
    },
    {
      "midi": 62,
      "hit": false,
      "t": 108552.67499999993,
      "d": 1381.579500000007,
      "v": 100
    },
    {
      "midi": 53,
      "hit": false,
      "t": 110526.35999999993,
      "d": 190.78955000000133,
      "v": 100
    },
    {
      "midi": 58,
      "hit": false,
      "t": 110526.35999999993,
      "d": 394.73700000000827,
      "v": 100
    },
    {
      "midi": 62,
      "hit": false,
      "t": 110526.35999999993,
      "d": 394.73700000000827,
      "v": 100
    },
    {
      "midi": 53,
      "hit": false,
      "t": 111118.46549999993,
      "d": 190.78955000000133,
      "v": 100
    },
    {
      "midi": 58,
      "hit": false,
      "t": 111118.46549999993,
      "d": 190.78955000000133,
      "v": 100
    },
    {
      "midi": 62,
      "hit": false,
      "t": 111118.46549999993,
      "d": 190.78955000000133,
      "v": 100
    },
    {
      "midi": 53,
      "hit": false,
      "t": 111710.57099999994,
      "d": 394.7369999999937,
      "v": 100
    },
    {
      "midi": 57,
      "hit": false,
      "t": 111710.57099999994,
      "d": 394.7369999999937,
      "v": 100
    },
    {
      "midi": 60,
      "hit": false,
      "t": 111710.57099999994,
      "d": 394.7369999999937,
      "v": 100
    },
    {
      "midi": 57,
      "hit": false,
      "t": 112500.04499999993,
      "d": 190.78955000000133,
      "v": 100
    },
    {
      "midi": 60,
      "hit": false,
      "t": 112500.04499999993,
      "d": 190.78955000000133,
      "v": 100
    },
    {
      "midi": 65,
      "hit": false,
      "t": 112500.04499999993,
      "d": 190.78955000000133,
      "v": 100
    },
    {
      "midi": 57,
      "hit": false,
      "t": 112894.78199999993,
      "d": 190.78955000000133,
      "v": 100
    },
    {
      "midi": 60,
      "hit": false,
      "t": 112894.78199999993,
      "d": 190.78955000000133,
      "v": 100
    },
    {
      "midi": 65,
      "hit": false,
      "t": 112894.78199999993,
      "d": 190.78955000000133,
      "v": 100
    },
    {
      "midi": 50,
      "hit": false,
      "t": 113684.25599999994,
      "d": 394.73700000000827,
      "v": 100
    },
    {
      "midi": 53,
      "hit": false,
      "t": 113684.25599999994,
      "d": 394.73700000000827,
      "v": 100
    },
    {
      "midi": 58,
      "hit": false,
      "t": 113684.25599999994,
      "d": 394.73700000000827,
      "v": 100
    },
    {
      "midi": 50,
      "hit": false,
      "t": 114276.36149999994,
      "d": 190.78955000000133,
      "v": 100
    },
    {
      "midi": 53,
      "hit": false,
      "t": 114276.36149999994,
      "d": 190.78955000000133,
      "v": 100
    },
    {
      "midi": 58,
      "hit": false,
      "t": 114276.36149999994,
      "d": 190.78955000000133,
      "v": 100
    },
    {
      "midi": 48,
      "hit": false,
      "t": 114868.46699999995,
      "d": 592.1054999999906,
      "v": 100
    },
    {
      "midi": 53,
      "hit": false,
      "t": 114868.46699999995,
      "d": 592.1054999999906,
      "v": 100
    },
    {
      "midi": 57,
      "hit": false,
      "t": 114868.46699999995,
      "d": 789.4739999999874,
      "v": 100
    },
    {
      "midi": 57,
      "hit": false,
      "t": 116052.67799999993,
      "d": 190.78955000000133,
      "v": 100
    },
    {
      "midi": 60,
      "hit": false,
      "t": 116052.67799999993,
      "d": 190.78955000000133,
      "v": 100
    },
    {
      "midi": 53,
      "hit": false,
      "t": 116842.15199999993,
      "d": 394.73700000000827,
      "v": 100
    },
    {
      "midi": 58,
      "hit": false,
      "t": 116842.15199999993,
      "d": 592.1055000000051,
      "v": 100
    },
    {
      "midi": 62,
      "hit": false,
      "t": 116842.15199999993,
      "d": 592.1055000000051,
      "v": 100
    },
    {
      "midi": 53,
      "hit": false,
      "t": 117434.25749999993,
      "d": 190.78955000000133,
      "v": 100
    },
    {
      "midi": 58,
      "hit": false,
      "t": 117434.25749999993,
      "d": 190.78955000000133,
      "v": 100
    },
    {
      "midi": 53,
      "hit": false,
      "t": 118026.36299999994,
      "d": 394.7369999999937,
      "v": 100
    },
    {
      "midi": 57,
      "hit": false,
      "t": 118026.36299999994,
      "d": 394.7369999999937,
      "v": 100
    },
    {
      "midi": 60,
      "hit": false,
      "t": 118026.36299999994,
      "d": 394.7369999999937,
      "v": 100
    },
    {
      "midi": 57,
      "hit": false,
      "t": 118815.83699999993,
      "d": 190.78955000000133,
      "v": 100
    },
    {
      "midi": 60,
      "hit": false,
      "t": 118815.83699999993,
      "d": 190.78955000000133,
      "v": 100
    },
    {
      "midi": 65,
      "hit": false,
      "t": 118815.83699999993,
      "d": 190.78955000000133,
      "v": 100
    },
    {
      "midi": 57,
      "hit": false,
      "t": 119210.57399999994,
      "d": 190.78955000000133,
      "v": 100
    },
    {
      "midi": 60,
      "hit": false,
      "t": 119210.57399999994,
      "d": 190.78955000000133,
      "v": 100
    },
    {
      "midi": 65,
      "hit": false,
      "t": 119210.57399999994,
      "d": 190.78955000000133,
      "v": 100
    },
    {
      "midi": 55,
      "hit": false,
      "t": 120000.04799999994,
      "d": 394.7369999999937,
      "v": 100
    },
    {
      "midi": 59,
      "hit": false,
      "t": 120000.04799999994,
      "d": 592.1054999999906,
      "v": 100
    },
    {
      "midi": 62,
      "hit": false,
      "t": 120000.04799999994,
      "d": 592.1054999999906,
      "v": 100
    },
    {
      "midi": 57,
      "hit": false,
      "t": 120789.52199999992,
      "d": 190.78955000000133,
      "v": 100
    },
    {
      "midi": 62,
      "hit": false,
      "t": 120789.52199999992,
      "d": 190.78955000000133,
      "v": 100
    },
    {
      "midi": 59,
      "hit": false,
      "t": 120986.89049999992,
      "d": 190.78955000000133,
      "v": 100
    },
    {
      "midi": 55,
      "hit": false,
      "t": 121184.25899999992,
      "d": 592.1055000000051,
      "v": 100
    },
    {
      "midi": 64,
      "hit": false,
      "t": 121184.25899999992,
      "d": 592.1055000000051,
      "v": 100
    },
    {
      "midi": 60,
      "hit": false,
      "t": 121184.25899999992,
      "d": 789.474000000002,
      "v": 100
    },
    {
      "midi": 55,
      "hit": false,
      "t": 121973.73299999992,
      "d": 394.7369999999937,
      "v": 100
    },
    {
      "midi": 55,
      "hit": false,
      "t": 122368.46999999991,
      "d": 190.78955000000133,
      "v": 100
    },
    {
      "midi": 64,
      "hit": false,
      "t": 122368.46999999991,
      "d": 190.78955000000133,
      "v": 100
    },
    {
      "midi": 62,
      "hit": false,
      "t": 122565.83849999991,
      "d": 190.78955000000133,
      "v": 100
    },
    {
      "midi": 60,
      "hit": false,
      "t": 122763.20699999991,
      "d": 190.78955000000133,
      "v": 100
    },
    {
      "midi": 53,
      "hit": false,
      "t": 123157.94399999992,
      "d": 394.7369999999937,
      "v": 100
    },
    {
      "midi": 58,
      "hit": false,
      "t": 123157.94399999992,
      "d": 592.1054999999906,
      "v": 100
    },
    {
      "midi": 62,
      "hit": false,
      "t": 123157.94399999992,
      "d": 592.1054999999906,
      "v": 100
    },
    {
      "midi": 53,
      "hit": false,
      "t": 123750.0494999999,
      "d": 190.78955000000133,
      "v": 100
    },
    {
      "midi": 58,
      "hit": false,
      "t": 123750.0494999999,
      "d": 190.78955000000133,
      "v": 100
    },
    {
      "midi": 62,
      "hit": false,
      "t": 123750.0494999999,
      "d": 190.78955000000133,
      "v": 100
    },
    {
      "midi": 53,
      "hit": false,
      "t": 124342.15499999991,
      "d": 394.7369999999937,
      "v": 100
    },
    {
      "midi": 57,
      "hit": false,
      "t": 124342.15499999991,
      "d": 394.7369999999937,
      "v": 100
    },
    {
      "midi": 60,
      "hit": false,
      "t": 124342.15499999991,
      "d": 394.7369999999937,
      "v": 100
    },
    {
      "midi": 57,
      "hit": false,
      "t": 125131.6289999999,
      "d": 190.78955000000133,
      "v": 100
    },
    {
      "midi": 60,
      "hit": false,
      "t": 125131.6289999999,
      "d": 190.78955000000133,
      "v": 100
    },
    {
      "midi": 65,
      "hit": false,
      "t": 125131.6289999999,
      "d": 190.78955000000133,
      "v": 100
    },
    {
      "midi": 57,
      "hit": false,
      "t": 125526.3659999999,
      "d": 190.78955000000133,
      "v": 100
    },
    {
      "midi": 60,
      "hit": false,
      "t": 125526.3659999999,
      "d": 190.78955000000133,
      "v": 100
    },
    {
      "midi": 65,
      "hit": false,
      "t": 125526.3659999999,
      "d": 190.78955000000133,
      "v": 100
    },
    {
      "midi": 50,
      "hit": false,
      "t": 126315.83999999991,
      "d": 394.7369999999937,
      "v": 100
    },
    {
      "midi": 53,
      "hit": false,
      "t": 126315.83999999991,
      "d": 592.1054999999906,
      "v": 100
    },
    {
      "midi": 58,
      "hit": false,
      "t": 126315.83999999991,
      "d": 592.1054999999906,
      "v": 100
    },
    {
      "midi": 50,
      "hit": false,
      "t": 126907.9454999999,
      "d": 190.78955000000133,
      "v": 100
    },
    {
      "midi": 53,
      "hit": false,
      "t": 126907.9454999999,
      "d": 190.78955000000133,
      "v": 100
    },
    {
      "midi": 58,
      "hit": false,
      "t": 126907.9454999999,
      "d": 190.78955000000133,
      "v": 100
    },
    {
      "midi": 48,
      "hit": false,
      "t": 127500.0509999999,
      "d": 986.8425000000134,
      "v": 100
    },
    {
      "midi": 53,
      "hit": false,
      "t": 127500.0509999999,
      "d": 1184.2110000000102,
      "v": 100
    },
    {
      "midi": 57,
      "hit": false,
      "t": 127500.0509999999,
      "d": 1184.2110000000102,
      "v": 100
    },
    {
      "midi": 48,
      "hit": false,
      "t": 128684.26199999992,
      "d": 190.78955000000133,
      "v": 100
    },
    {
      "midi": 53,
      "hit": false,
      "t": 128684.26199999992,
      "d": 190.78955000000133,
      "v": 100
    },
    {
      "midi": 57,
      "hit": false,
      "t": 128684.26199999992,
      "d": 190.78955000000133,
      "v": 100
    },
    {
      "midi": 53,
      "hit": false,
      "t": 129473.73599999992,
      "d": 789.474000000002,
      "v": 100
    },
    {
      "midi": 55,
      "hit": false,
      "t": 129473.73599999992,
      "d": 789.474000000002,
      "v": 100
    },
    {
      "midi": 69,
      "hit": false,
      "t": 129473.73599999992,
      "d": 789.474000000002,
      "v": 100
    },
    {
      "midi": 72,
      "hit": false,
      "t": 129473.73599999992,
      "d": 789.474000000002,
      "v": 100
    },
    {
      "midi": 59,
      "hit": false,
      "t": 130657.94699999991,
      "d": 592.1055000000197,
      "v": 100
    },
    {
      "midi": 55,
      "hit": false,
      "t": 130657.94699999991,
      "d": 986.8425000000134,
      "v": 100
    },
    {
      "midi": 71,
      "hit": false,
      "t": 130657.94699999991,
      "d": 986.8425000000134,
      "v": 100
    },
    {
      "midi": 74,
      "hit": false,
      "t": 130657.94699999991,
      "d": 986.8425000000134,
      "v": 100
    },
    {
      "midi": 55,
      "hit": false,
      "t": 131842.15799999994,
      "d": 190.78954999998678,
      "v": 100
    },
    {
      "midi": 59,
      "hit": false,
      "t": 131842.15799999994,
      "d": 190.78954999998678,
      "v": 100
    },
    {
      "midi": 62,
      "hit": false,
      "t": 131842.15799999994,
      "d": 190.78954999998678,
      "v": 100
    },
    {
      "midi": 71,
      "hit": false,
      "t": 131842.15799999994,
      "d": 986.8424999999697,
      "v": 100
    },
    {
      "midi": 77,
      "hit": false,
      "t": 131842.15799999994,
      "d": 986.8424999999697,
      "v": 100
    },
    {
      "midi": 55,
      "hit": false,
      "t": 132631.63199999993,
      "d": 394.7369999999937,
      "v": 100
    },
    {
      "midi": 67,
      "hit": false,
      "t": 132631.63199999993,
      "d": 592.1055000000051,
      "v": 100
    },
    {
      "midi": 72,
      "hit": false,
      "t": 132631.63199999993,
      "d": 592.1055000000051,
      "v": 100
    },
    {
      "midi": 64,
      "hit": false,
      "t": 132631.63199999993,
      "d": 986.8424999999697,
      "v": 100
    },
    {
      "midi": 55,
      "hit": false,
      "t": 133223.73749999993,
      "d": 190.78954999998678,
      "v": 100
    },
    {
      "midi": 60,
      "hit": false,
      "t": 133421.1059999999,
      "d": 190.78954999998678,
      "v": 100
    },
    {
      "midi": 60,
      "hit": false,
      "t": 133815.8429999999,
      "d": 592.1055000000051,
      "v": 100
    },
    {
      "midi": 64,
      "hit": false,
      "t": 133815.8429999999,
      "d": 592.1055000000051,
      "v": 100
    },
    {
      "midi": 55,
      "hit": false,
      "t": 134605.31699999992,
      "d": 592.1055000000051,
      "v": 100
    },
    {
      "midi": 60,
      "hit": false,
      "t": 135000.05399999992,
      "d": 394.7370000000228,
      "v": 100
    },
    {
      "midi": 64,
      "hit": false,
      "t": 135394.79099999994,
      "d": 190.78954999998678,
      "v": 100
    },
    {
      "midi": 65,
      "hit": false,
      "t": 135789.52799999993,
      "d": 592.1055000000051,
      "v": 100
    },
    {
      "midi": 55,
      "hit": false,
      "t": 135789.52799999993,
      "d": 789.4740000000165,
      "v": 100
    },
    {
      "midi": 58,
      "hit": false,
      "t": 135789.52799999993,
      "d": 789.4740000000165,
      "v": 100
    },
    {
      "midi": 62,
      "hit": false,
      "t": 135789.52799999993,
      "d": 789.4740000000165,
      "v": 100
    },
    {
      "midi": 55,
      "hit": false,
      "t": 136973.73899999994,
      "d": 394.7369999999937,
      "v": 100
    },
    {
      "midi": 65,
      "hit": false,
      "t": 137368.47599999994,
      "d": 394.7369999999937,
      "v": 100
    },
    {
      "midi": 55,
      "hit": false,
      "t": 137763.21299999993,
      "d": 789.4739999999874,
      "v": 100
    },
    {
      "midi": 58,
      "hit": false,
      "t": 138157.94999999992,
      "d": 592.105499999976,
      "v": 100
    },
    {
      "midi": 62,
      "hit": false,
      "t": 138552.68699999992,
      "d": 190.78954999998678,
      "v": 100
    },
    {
      "midi": 55,
      "hit": false,
      "t": 138947.4239999999,
      "d": 789.4739999999874,
      "v": 100
    },
    {
      "midi": 60,
      "hit": false,
      "t": 138947.4239999999,
      "d": 986.8424999999988,
      "v": 100
    },
    {
      "midi": 64,
      "hit": false,
      "t": 138947.4239999999,
      "d": 986.8424999999988,
      "v": 100
    },
    {
      "midi": 55,
      "hit": false,
      "t": 140131.63499999992,
      "d": 190.78954999998678,
      "v": 100
    },
    {
      "midi": 60,
      "hit": false,
      "t": 140526.37199999992,
      "d": 789.4739999999874,
      "v": 100
    },
    {
      "midi": 55,
      "hit": false,
      "t": 140526.37199999992,
      "d": 986.8424999999697,
      "v": 100
    },
    {
      "midi": 58,
      "hit": false,
      "t": 140526.37199999992,
      "d": 986.8424999999697,
      "v": 100
    },
    {
      "midi": 55,
      "hit": false,
      "t": 142105.3199999999,
      "d": 789.4740000000165,
      "v": 100
    },
    {
      "midi": 58,
      "hit": false,
      "t": 142105.3199999999,
      "d": 986.8425000000279,
      "v": 100
    },
    {
      "midi": 67,
      "hit": false,
      "t": 142105.3199999999,
      "d": 986.8425000000279,
      "v": 100
    },
    {
      "midi": 63,
      "hit": false,
      "t": 142105.3199999999,
      "d": 1184.2110000000393,
      "v": 100
    },
    {
      "midi": 55,
      "hit": false,
      "t": 143289.53099999993,
      "d": 394.7369999999937,
      "v": 100
    },
    {
      "midi": 67,
      "hit": false,
      "t": 143684.26799999992,
      "d": 394.7369999999937,
      "v": 100
    },
    {
      "midi": 55,
      "hit": false,
      "t": 144079.00499999992,
      "d": 394.7369999999937,
      "v": 100
    },
    {
      "midi": 65,
      "hit": false,
      "t": 144473.7419999999,
      "d": 394.7369999999937,
      "v": 100
    },
    {
      "midi": 63,
      "hit": false,
      "t": 144868.4789999999,
      "d": 190.78954999998678,
      "v": 100
    },
    {
      "midi": 53,
      "hit": false,
      "t": 145263.2159999999,
      "d": 986.8424999999988,
      "v": 100
    },
    {
      "midi": 58,
      "hit": false,
      "t": 145263.2159999999,
      "d": 986.8424999999988,
      "v": 100
    },
    {
      "midi": 65,
      "hit": false,
      "t": 145263.2159999999,
      "d": 986.8424999999988,
      "v": 100
    },
    {
      "midi": 55,
      "hit": false,
      "t": 146447.4269999999,
      "d": 190.78954999998678,
      "v": 100
    },
    {
      "midi": 58,
      "hit": false,
      "t": 146447.4269999999,
      "d": 190.78954999998678,
      "v": 100
    },
    {
      "midi": 62,
      "hit": false,
      "t": 146447.4269999999,
      "d": 190.78954999998678,
      "v": 100
    },
    {
      "midi": 53,
      "hit": false,
      "t": 146842.1639999999,
      "d": 986.8424999999988,
      "v": 100
    },
    {
      "midi": 58,
      "hit": false,
      "t": 146842.1639999999,
      "d": 986.8424999999988,
      "v": 100
    },
    {
      "midi": 62,
      "hit": false,
      "t": 146842.1639999999,
      "d": 986.8424999999988,
      "v": 100
    },
    {
      "midi": 55,
      "hit": false,
      "t": 148421.11199999988,
      "d": 789.4739999999874,
      "v": 100
    },
    {
      "midi": 58,
      "hit": false,
      "t": 148421.11199999988,
      "d": 789.4739999999874,
      "v": 100
    },
    {
      "midi": 62,
      "hit": false,
      "t": 148421.11199999988,
      "d": 789.4739999999874,
      "v": 100
    },
    {
      "midi": 65,
      "hit": false,
      "t": 148421.11199999988,
      "d": 789.4739999999874,
      "v": 100
    },
    {
      "midi": 55,
      "hit": false,
      "t": 149605.32299999986,
      "d": 592.1055000000051,
      "v": 100
    },
    {
      "midi": 65,
      "hit": false,
      "t": 150000.05999999985,
      "d": 394.7370000000228,
      "v": 100
    },
    {
      "midi": 62,
      "hit": false,
      "t": 150394.79699999987,
      "d": 789.4739999999874,
      "v": 100
    },
    {
      "midi": 58,
      "hit": false,
      "t": 150789.53399999987,
      "d": 394.7369999999937,
      "v": 100
    },
    {
      "midi": 55,
      "hit": false,
      "t": 151184.27099999986,
      "d": 190.78954999998678,
      "v": 100
    },
    {
      "midi": 55,
      "hit": false,
      "t": 151579.00799999986,
      "d": 789.4740000000165,
      "v": 100
    },
    {
      "midi": 64,
      "hit": false,
      "t": 151579.00799999986,
      "d": 789.4740000000165,
      "v": 100
    },
    {
      "midi": 58,
      "hit": false,
      "t": 151579.00799999986,
      "d": 986.8425000000279,
      "v": 100
    },
    {
      "midi": 60,
      "hit": false,
      "t": 151579.00799999986,
      "d": 986.8425000000279,
      "v": 100
    },
    {
      "midi": 55,
      "hit": false,
      "t": 152763.2189999999,
      "d": 190.78954999998678,
      "v": 100
    },
    {
      "midi": 58,
      "hit": false,
      "t": 152763.2189999999,
      "d": 190.78954999998678,
      "v": 100
    },
    {
      "midi": 60,
      "hit": false,
      "t": 152763.2189999999,
      "d": 190.78954999998678,
      "v": 100
    },
    {
      "midi": 55,
      "hit": false,
      "t": 153157.9559999999,
      "d": 592.1055000000051,
      "v": 100
    },
    {
      "midi": 58,
      "hit": false,
      "t": 153157.9559999999,
      "d": 592.1055000000051,
      "v": 100
    },
    {
      "midi": 60,
      "hit": false,
      "t": 153157.9559999999,
      "d": 592.1055000000051,
      "v": 100
    },
    {
      "midi": 57,
      "hit": false,
      "t": 154736.9039999999,
      "d": 394.7369999999937,
      "v": 100
    },
    {
      "midi": 60,
      "hit": false,
      "t": 154736.9039999999,
      "d": 394.7369999999937,
      "v": 100
    },
    {
      "midi": 64,
      "hit": false,
      "t": 154736.9039999999,
      "d": 394.7369999999937,
      "v": 100
    },
    {
      "midi": 67,
      "hit": false,
      "t": 154736.9039999999,
      "d": 394.7369999999937,
      "v": 100
    },
    {
      "midi": 57,
      "hit": false,
      "t": 155329.0094999999,
      "d": 190.78954999998678,
      "v": 100
    },
    {
      "midi": 60,
      "hit": false,
      "t": 155329.0094999999,
      "d": 190.78954999998678,
      "v": 100
    },
    {
      "midi": 64,
      "hit": false,
      "t": 155329.0094999999,
      "d": 190.78954999998678,
      "v": 100
    },
    {
      "midi": 67,
      "hit": false,
      "t": 155329.0094999999,
      "d": 190.78954999998678,
      "v": 100
    },
    {
      "midi": 57,
      "hit": false,
      "t": 155921.11499999987,
      "d": 789.4740000000165,
      "v": 100
    },
    {
      "midi": 60,
      "hit": false,
      "t": 155921.11499999987,
      "d": 789.4740000000165,
      "v": 100
    },
    {
      "midi": 64,
      "hit": false,
      "t": 155921.11499999987,
      "d": 789.4740000000165,
      "v": 100
    },
    {
      "midi": 67,
      "hit": false,
      "t": 155921.11499999987,
      "d": 789.4740000000165,
      "v": 100
    },
    {
      "midi": 57,
      "hit": false,
      "t": 157105.32599999988,
      "d": 190.78954999998678,
      "v": 100
    },
    {
      "midi": 60,
      "hit": false,
      "t": 157105.32599999988,
      "d": 190.78954999998678,
      "v": 100
    },
    {
      "midi": 64,
      "hit": false,
      "t": 157105.32599999988,
      "d": 190.78954999998678,
      "v": 100
    },
    {
      "midi": 69,
      "hit": false,
      "t": 157105.32599999988,
      "d": 190.78954999998678,
      "v": 100
    },
    {
      "midi": 67,
      "hit": false,
      "t": 157894.79999999987,
      "d": 190.78954999998678,
      "v": 100
    },
    {
      "midi": 55,
      "hit": false,
      "t": 157894.79999999987,
      "d": 789.4739999999874,
      "v": 100
    },
    {
      "midi": 58,
      "hit": false,
      "t": 157894.79999999987,
      "d": 789.4739999999874,
      "v": 100
    },
    {
      "midi": 62,
      "hit": false,
      "t": 157894.79999999987,
      "d": 789.4739999999874,
      "v": 100
    },
    {
      "midi": 65,
      "hit": false,
      "t": 157894.79999999987,
      "d": 789.4739999999874,
      "v": 100
    },
    {
      "midi": 65,
      "hit": false,
      "t": 159079.01099999985,
      "d": 986.8424999999988,
      "v": 100
    },
    {
      "midi": 55,
      "hit": false,
      "t": 159079.01099999985,
      "d": 1184.2110000000102,
      "v": 100
    },
    {
      "midi": 58,
      "hit": false,
      "t": 159079.01099999985,
      "d": 1184.2110000000102,
      "v": 100
    },
    {
      "midi": 62,
      "hit": false,
      "t": 159079.01099999985,
      "d": 1381.5795000000217,
      "v": 100
    },
    {
      "midi": 55,
      "hit": false,
      "t": 160263.22199999986,
      "d": 394.7370000000228,
      "v": 100
    },
    {
      "midi": 67,
      "hit": false,
      "t": 160263.22199999986,
      "d": 394.7370000000228,
      "v": 100
    },
    {
      "midi": 60,
      "hit": false,
      "t": 160657.9589999999,
      "d": 190.78954999998678,
      "v": 100
    },
    {
      "midi": 62,
      "hit": false,
      "t": 160855.32749999987,
      "d": 190.78954999998678,
      "v": 100
    },
    {
      "midi": 55,
      "hit": false,
      "t": 161052.69599999985,
      "d": 190.78954999998678,
      "v": 100
    },
    {
      "midi": 60,
      "hit": false,
      "t": 161052.69599999985,
      "d": 190.78954999998678,
      "v": 100
    },
    {
      "midi": 64,
      "hit": false,
      "t": 161052.69599999985,
      "d": 190.78954999998678,
      "v": 100
    },
    {
      "midi": 57,
      "hit": false,
      "t": 161447.43299999984,
      "d": 190.78954999998678,
      "v": 100
    },
    {
      "midi": 60,
      "hit": false,
      "t": 161447.43299999984,
      "d": 190.78954999998678,
      "v": 100
    },
    {
      "midi": 65,
      "hit": false,
      "t": 161447.43299999984,
      "d": 190.78954999998678,
      "v": 100
    },
    {
      "midi": 55,
      "hit": false,
      "t": 161842.16999999984,
      "d": 190.78955000001588,
      "v": 100
    },
    {
      "midi": 60,
      "hit": false,
      "t": 161842.16999999984,
      "d": 190.78955000001588,
      "v": 100
    },
    {
      "midi": 64,
      "hit": false,
      "t": 161842.16999999984,
      "d": 190.78955000001588,
      "v": 100
    },
    {
      "midi": 53,
      "hit": false,
      "t": 162236.90699999986,
      "d": 592.1055000000051,
      "v": 100
    },
    {
      "midi": 57,
      "hit": false,
      "t": 162236.90699999986,
      "d": 592.1055000000051,
      "v": 100
    },
    {
      "midi": 60,
      "hit": false,
      "t": 162236.90699999986,
      "d": 592.1055000000051,
      "v": 100
    },
    {
      "midi": 53,
      "hit": false,
      "t": 163026.38099999988,
      "d": 190.78954999998678,
      "v": 100
    },
    {
      "midi": 57,
      "hit": false,
      "t": 163026.38099999988,
      "d": 190.78954999998678,
      "v": 100
    },
    {
      "midi": 55,
      "hit": false,
      "t": 163815.85499999986,
      "d": 592.1055000000051,
      "v": 100
    },
    {
      "midi": 59,
      "hit": false,
      "t": 163815.85499999986,
      "d": 592.1055000000051,
      "v": 100
    },
    {
      "midi": 62,
      "hit": false,
      "t": 163815.85499999986,
      "d": 592.1055000000051,
      "v": 100
    },
    {
      "midi": 59,
      "hit": false,
      "t": 164605.32899999988,
      "d": 190.78954999998678,
      "v": 100
    },
    {
      "midi": 64,
      "hit": false,
      "t": 164605.32899999988,
      "d": 190.78954999998678,
      "v": 100
    },
    {
      "midi": 58,
      "hit": false,
      "t": 167368.48799999987,
      "d": 394.7369999999937,
      "v": 100
    },
    {
      "midi": 60,
      "hit": false,
      "t": 167368.48799999987,
      "d": 394.7369999999937,
      "v": 100
    },
    {
      "midi": 65,
      "hit": false,
      "t": 167368.48799999987,
      "d": 394.7369999999937,
      "v": 100
    },
    {
      "midi": 58,
      "hit": false,
      "t": 167960.59349999987,
      "d": 190.78954999998678,
      "v": 100
    },
    {
      "midi": 64,
      "hit": false,
      "t": 167960.59349999987,
      "d": 190.78954999998678,
      "v": 100
    },
    {
      "midi": 58,
      "hit": false,
      "t": 168552.69899999985,
      "d": 592.105499999976,
      "v": 100
    },
    {
      "midi": 62,
      "hit": false,
      "t": 168552.69899999985,
      "d": 592.105499999976,
      "v": 100
    },
    {
      "midi": 60,
      "hit": false,
      "t": 169342.17299999984,
      "d": 789.4739999999874,
      "v": 100
    },
    {
      "midi": 58,
      "hit": false,
      "t": 169342.17299999984,
      "d": 986.8424999999988,
      "v": 100
    },
    {
      "midi": 62,
      "hit": false,
      "t": 170329.01549999983,
      "d": 190.78954999998678,
      "v": 100
    },
    {
      "midi": 57,
      "hit": false,
      "t": 170526.38399999982,
      "d": 394.7369999999937,
      "v": 100
    },
    {
      "midi": 60,
      "hit": false,
      "t": 170526.38399999982,
      "d": 394.7369999999937,
      "v": 100
    },
    {
      "midi": 65,
      "hit": false,
      "t": 170526.38399999982,
      "d": 394.7369999999937,
      "v": 100
    },
    {
      "midi": 57,
      "hit": false,
      "t": 171118.48949999982,
      "d": 190.78954999998678,
      "v": 100
    },
    {
      "midi": 64,
      "hit": false,
      "t": 171118.48949999982,
      "d": 190.78954999998678,
      "v": 100
    },
    {
      "midi": 65,
      "hit": false,
      "t": 171710.5949999998,
      "d": 190.78955000001588,
      "v": 100
    },
    {
      "midi": 60,
      "hit": false,
      "t": 171710.5949999998,
      "d": 394.7369999999937,
      "v": 100
    },
    {
      "midi": 57,
      "hit": false,
      "t": 171710.5949999998,
      "d": 1381.5794999999634,
      "v": 100
    },
    {
      "midi": 64,
      "hit": false,
      "t": 171907.9634999998,
      "d": 190.78954999998678,
      "v": 100
    },
    {
      "midi": 62,
      "hit": false,
      "t": 172105.3319999998,
      "d": 190.78954999998678,
      "v": 100
    },
    {
      "midi": 60,
      "hit": false,
      "t": 172302.70049999977,
      "d": 789.4739999999874,
      "v": 100
    },
    {
      "midi": 60,
      "hit": false,
      "t": 173289.54299999977,
      "d": 190.78954999998678,
      "v": 100
    },
    {
      "midi": 62,
      "hit": false,
      "t": 173486.91149999975,
      "d": 190.78955000001588,
      "v": 100
    },
    {
      "midi": 55,
      "hit": false,
      "t": 173684.27999999977,
      "d": 190.78955000001588,
      "v": 100
    },
    {
      "midi": 60,
      "hit": false,
      "t": 173684.27999999977,
      "d": 190.78955000001588,
      "v": 100
    },
    {
      "midi": 64,
      "hit": false,
      "t": 173684.27999999977,
      "d": 190.78955000001588,
      "v": 100
    },
    {
      "midi": 57,
      "hit": false,
      "t": 174079.0169999998,
      "d": 190.78954999998678,
      "v": 100
    },
    {
      "midi": 60,
      "hit": false,
      "t": 174079.0169999998,
      "d": 190.78954999998678,
      "v": 100
    },
    {
      "midi": 65,
      "hit": false,
      "t": 174079.0169999998,
      "d": 190.78954999998678,
      "v": 100
    },
    {
      "midi": 55,
      "hit": false,
      "t": 174473.75399999978,
      "d": 190.78955000001588,
      "v": 100
    },
    {
      "midi": 60,
      "hit": false,
      "t": 174473.75399999978,
      "d": 190.78955000001588,
      "v": 100
    },
    {
      "midi": 64,
      "hit": false,
      "t": 174473.75399999978,
      "d": 190.78955000001588,
      "v": 100
    },
    {
      "midi": 53,
      "hit": false,
      "t": 174868.4909999998,
      "d": 592.1055000000051,
      "v": 100
    },
    {
      "midi": 57,
      "hit": false,
      "t": 174868.4909999998,
      "d": 592.1055000000051,
      "v": 100
    },
    {
      "midi": 60,
      "hit": false,
      "t": 174868.4909999998,
      "d": 592.1055000000051,
      "v": 100
    },
    {
      "midi": 53,
      "hit": false,
      "t": 175657.96499999982,
      "d": 190.78954999998678,
      "v": 100
    },
    {
      "midi": 57,
      "hit": false,
      "t": 175657.96499999982,
      "d": 190.78954999998678,
      "v": 100
    },
    {
      "midi": 59,
      "hit": false,
      "t": 176447.4389999998,
      "d": 592.1055000000051,
      "v": 100
    },
    {
      "midi": 62,
      "hit": false,
      "t": 176447.4389999998,
      "d": 592.1055000000051,
      "v": 100
    },
    {
      "midi": 55,
      "hit": false,
      "t": 176447.4389999998,
      "d": 1776.3165000000154,
      "v": 100
    },
    {
      "midi": 59,
      "hit": false,
      "t": 177236.91299999983,
      "d": 789.4739999999874,
      "v": 100
    },
    {
      "midi": 64,
      "hit": false,
      "t": 177236.91299999983,
      "d": 789.4739999999874,
      "v": 100
    },
    {
      "midi": 62,
      "hit": false,
      "t": 180000.0719999998,
      "d": 592.1055000000051,
      "v": 100
    },
    {
      "midi": 65,
      "hit": false,
      "t": 180000.0719999998,
      "d": 592.1055000000051,
      "v": 100
    },
    {
      "midi": 58,
      "hit": false,
      "t": 180000.0719999998,
      "d": 789.4739999999874,
      "v": 100
    },
    {
      "midi": 64,
      "hit": false,
      "t": 180592.17749999982,
      "d": 190.78954999998678,
      "v": 100
    },
    {
      "midi": 62,
      "hit": false,
      "t": 181184.2829999998,
      "d": 394.7369999999937,
      "v": 100
    },
    {
      "midi": 58,
      "hit": false,
      "t": 181184.2829999998,
      "d": 592.1055000000051,
      "v": 100
    },
    {
      "midi": 58,
      "hit": false,
      "t": 181973.7569999998,
      "d": 789.4740000000165,
      "v": 100
    },
    {
      "midi": 60,
      "hit": false,
      "t": 181973.7569999998,
      "d": 789.4740000000165,
      "v": 100
    },
    {
      "midi": 57,
      "hit": false,
      "t": 183157.96799999982,
      "d": 394.7370000000228,
      "v": 100
    },
    {
      "midi": 60,
      "hit": false,
      "t": 183157.96799999982,
      "d": 394.7370000000228,
      "v": 100
    },
    {
      "midi": 65,
      "hit": false,
      "t": 183157.96799999982,
      "d": 394.7370000000228,
      "v": 100
    },
    {
      "midi": 57,
      "hit": false,
      "t": 183750.07349999985,
      "d": 190.78954999998678,
      "v": 100
    },
    {
      "midi": 64,
      "hit": false,
      "t": 183750.07349999985,
      "d": 190.78954999998678,
      "v": 100
    },
    {
      "midi": 60,
      "hit": false,
      "t": 184342.17899999983,
      "d": 190.78954999998678,
      "v": 100
    },
    {
      "midi": 65,
      "hit": false,
      "t": 184342.17899999983,
      "d": 190.78954999998678,
      "v": 100
    },
    {
      "midi": 57,
      "hit": false,
      "t": 184342.17899999983,
      "d": 592.1054999999469,
      "v": 100
    },
    {
      "midi": 64,
      "hit": false,
      "t": 184539.5474999998,
      "d": 190.78954999998678,
      "v": 100
    },
    {
      "midi": 62,
      "hit": false,
      "t": 184736.9159999998,
      "d": 190.78954999998678,
      "v": 100
    },
    {
      "midi": 57,
      "hit": false,
      "t": 184934.28449999978,
      "d": 789.4739999999874,
      "v": 100
    },
    {
      "midi": 60,
      "hit": false,
      "t": 184934.28449999978,
      "d": 789.4739999999874,
      "v": 100
    },
    {
      "midi": 62,
      "hit": false,
      "t": 186315.86399999977,
      "d": 592.1055000000051,
      "v": 100
    },
    {
      "midi": 65,
      "hit": false,
      "t": 186315.86399999977,
      "d": 592.1055000000051,
      "v": 100
    },
    {
      "midi": 57,
      "hit": false,
      "t": 186315.86399999977,
      "d": 789.4740000000165,
      "v": 100
    },
    {
      "midi": 59,
      "hit": false,
      "t": 187500.07499999978,
      "d": 592.105499999976,
      "v": 100
    },
    {
      "midi": 62,
      "hit": false,
      "t": 187500.07499999978,
      "d": 592.105499999976,
      "v": 100
    },
    {
      "midi": 67,
      "hit": false,
      "t": 187500.07499999978,
      "d": 592.105499999976,
      "v": 100
    },
    {
      "midi": 59,
      "hit": false,
      "t": 188684.28599999976,
      "d": 190.78954999998678,
      "v": 100
    },
    {
      "midi": 65,
      "hit": false,
      "t": 188684.28599999976,
      "d": 190.78954999998678,
      "v": 100
    },
    {
      "midi": 55,
      "hit": false,
      "t": 189473.75999999975,
      "d": 394.7369999999937,
      "v": 100
    },
    {
      "midi": 60,
      "hit": false,
      "t": 189473.75999999975,
      "d": 394.7369999999937,
      "v": 100
    },
    {
      "midi": 64,
      "hit": false,
      "t": 189473.75999999975,
      "d": 394.7369999999937,
      "v": 100
    },
    {
      "midi": 55,
      "hit": false,
      "t": 190065.86549999975,
      "d": 190.78954999998678,
      "v": 100
    },
    {
      "midi": 60,
      "hit": false,
      "t": 190065.86549999975,
      "d": 190.78954999998678,
      "v": 100
    },
    {
      "midi": 53,
      "hit": false,
      "t": 190657.97099999973,
      "d": 1776.3165000000154,
      "v": 100
    },
    {
      "midi": 57,
      "hit": false,
      "t": 190657.97099999973,
      "d": 1776.3165000000154,
      "v": 100
    },
    {
      "midi": 60,
      "hit": false,
      "t": 190657.97099999973,
      "d": 1776.3165000000154,
      "v": 100
    },
    {
      "midi": 50,
      "hit": false,
      "t": 192631.65599999976,
      "d": 190.78954999998678,
      "v": 100
    },
    {
      "midi": 53,
      "hit": false,
      "t": 192631.65599999976,
      "d": 190.78954999998678,
      "v": 100
    },
    {
      "midi": 57,
      "hit": false,
      "t": 192631.65599999976,
      "d": 190.78954999998678,
      "v": 100
    },
    {
      "midi": 60,
      "hit": false,
      "t": 192631.65599999976,
      "d": 190.78954999998678,
      "v": 100
    },
    {
      "midi": 50,
      "hit": false,
      "t": 193223.76149999973,
      "d": 190.78954999998678,
      "v": 100
    },
    {
      "midi": 53,
      "hit": false,
      "t": 193223.76149999973,
      "d": 190.78954999998678,
      "v": 100
    },
    {
      "midi": 57,
      "hit": false,
      "t": 193223.76149999973,
      "d": 190.78954999998678,
      "v": 100
    },
    {
      "midi": 60,
      "hit": false,
      "t": 193223.76149999973,
      "d": 190.78954999998678,
      "v": 100
    },
    {
      "midi": 55,
      "hit": false,
      "t": 193815.8669999997,
      "d": 789.4740000000165,
      "v": 100
    },
    {
      "midi": 62,
      "hit": false,
      "t": 193815.8669999997,
      "d": 789.4740000000165,
      "v": 100
    },
    {
      "midi": 59,
      "hit": false,
      "t": 193815.8669999997,
      "d": 986.8425000000279,
      "v": 100
    },
    {
      "midi": 53,
      "hit": false,
      "t": 195000.07799999975,
      "d": 190.78954999998678,
      "v": 100
    },
    {
      "midi": 62,
      "hit": false,
      "t": 195000.07799999975,
      "d": 190.78954999998678,
      "v": 100
    },
    {
      "midi": 52,
      "hit": false,
      "t": 195789.55199999973,
      "d": 394.7369999999937,
      "v": 100
    },
    {
      "midi": 55,
      "hit": false,
      "t": 195789.55199999973,
      "d": 394.7369999999937,
      "v": 100
    },
    {
      "midi": 59,
      "hit": false,
      "t": 195789.55199999973,
      "d": 394.7369999999937,
      "v": 100
    },
    {
      "midi": 59,
      "hit": false,
      "t": 196381.65749999974,
      "d": 190.78954999998678,
      "v": 100
    },
    {
      "midi": 62,
      "hit": false,
      "t": 196381.65749999974,
      "d": 190.78954999998678,
      "v": 100
    },
    {
      "midi": 57,
      "hit": false,
      "t": 196973.76299999972,
      "d": 789.4739999999874,
      "v": 100
    },
    {
      "midi": 60,
      "hit": false,
      "t": 196973.76299999972,
      "d": 789.4739999999874,
      "v": 100
    },
    {
      "midi": 52,
      "hit": false,
      "t": 196973.76299999972,
      "d": 986.8424999999988,
      "v": 100
    },
    {
      "midi": 52,
      "hit": false,
      "t": 198157.97399999973,
      "d": 190.78954999998678,
      "v": 100
    },
    {
      "midi": 57,
      "hit": false,
      "t": 198157.97399999973,
      "d": 190.78954999998678,
      "v": 100
    },
    {
      "midi": 60,
      "hit": false,
      "t": 198157.97399999973,
      "d": 190.78954999998678,
      "v": 100
    },
    {
      "midi": 50,
      "hit": false,
      "t": 198947.4479999997,
      "d": 986.8424999999988,
      "v": 100
    },
    {
      "midi": 53,
      "hit": false,
      "t": 198947.4479999997,
      "d": 986.8424999999988,
      "v": 100
    },
    {
      "midi": 57,
      "hit": false,
      "t": 198947.4479999997,
      "d": 986.8424999999988,
      "v": 100
    },
    {
      "midi": 60,
      "hit": false,
      "t": 198947.4479999997,
      "d": 986.8424999999988,
      "v": 100
    },
    {
      "midi": 50,
      "hit": false,
      "t": 200131.65899999972,
      "d": 190.78954999998678,
      "v": 100
    },
    {
      "midi": 53,
      "hit": false,
      "t": 200131.65899999972,
      "d": 190.78954999998678,
      "v": 100
    },
    {
      "midi": 57,
      "hit": false,
      "t": 200131.65899999972,
      "d": 190.78954999998678,
      "v": 100
    },
    {
      "midi": 60,
      "hit": false,
      "t": 200131.65899999972,
      "d": 190.78954999998678,
      "v": 100
    },
    {
      "midi": 57,
      "hit": false,
      "t": 200526.39599999972,
      "d": 190.78954999998678,
      "v": 100
    },
    {
      "midi": 55,
      "hit": false,
      "t": 200723.7644999997,
      "d": 190.78954999998678,
      "v": 100
    },
    {
      "midi": 57,
      "hit": false,
      "t": 200921.13299999968,
      "d": 190.78954999998678,
      "v": 100
    },
    {
      "midi": 60,
      "hit": false,
      "t": 201118.50149999966,
      "d": 190.78954999998678,
      "v": 100
    },
    {
      "midi": 57,
      "hit": false,
      "t": 201513.23849999966,
      "d": 190.78954999998678,
      "v": 100
    },
    {
      "midi": 60,
      "hit": false,
      "t": 201710.60699999964,
      "d": 190.78954999998678,
      "v": 100
    },
    {
      "midi": 55,
      "hit": false,
      "t": 202105.3439999996,
      "d": 592.1055000000051,
      "v": 100
    },
    {
      "midi": 60,
      "hit": false,
      "t": 202105.3439999996,
      "d": 592.1055000000051,
      "v": 100
    },
    {
      "midi": 64,
      "hit": false,
      "t": 202105.3439999996,
      "d": 592.1055000000051,
      "v": 100
    },
    {
      "midi": 57,
      "hit": false,
      "t": 203289.55499999961,
      "d": 1184.2110000000102,
      "v": 100
    },
    {
      "midi": 53,
      "hit": false,
      "t": 203289.55499999961,
      "d": 1381.5795000000217,
      "v": 100
    },
    {
      "midi": 60,
      "hit": false,
      "t": 203289.55499999961,
      "d": 1381.5795000000217,
      "v": 100
    },
    {
      "midi": 60,
      "hit": false,
      "t": 205263.23999999964,
      "d": 789.4739999999874,
      "v": 100
    },
    {
      "midi": 55,
      "hit": false,
      "t": 205263.23999999964,
      "d": 986.8424999999988,
      "v": 100
    },
    {
      "midi": 64,
      "hit": false,
      "t": 205263.23999999964,
      "d": 986.8424999999988,
      "v": 100
    },
    {
      "midi": 59,
      "hit": false,
      "t": 206447.45099999965,
      "d": 1184.2109999999811,
      "v": 100
    },
    {
      "midi": 55,
      "hit": false,
      "t": 206447.45099999965,
      "d": 1381.5794999999925,
      "v": 100
    },
    {
      "midi": 62,
      "hit": false,
      "t": 206447.45099999965,
      "d": 1381.5794999999925,
      "v": 100
    },
    {
      "midi": 55,
      "hit": false,
      "t": 208421.13599999965,
      "d": 592.1055000000051,
      "v": 100
    },
    {
      "midi": 60,
      "hit": false,
      "t": 208421.13599999965,
      "d": 592.1055000000051,
      "v": 100
    },
    {
      "midi": 64,
      "hit": false,
      "t": 208421.13599999965,
      "d": 592.1055000000051,
      "v": 100
    },
    {
      "midi": 57,
      "hit": false,
      "t": 209605.34699999966,
      "d": 1184.2110000000102,
      "v": 100
    },
    {
      "midi": 53,
      "hit": false,
      "t": 209605.34699999966,
      "d": 1381.5795000000217,
      "v": 100
    },
    {
      "midi": 60,
      "hit": false,
      "t": 209605.34699999966,
      "d": 1381.5795000000217,
      "v": 100
    },
    {
      "midi": 60,
      "hit": false,
      "t": 211579.0319999997,
      "d": 789.4739999999874,
      "v": 100
    },
    {
      "midi": 55,
      "hit": false,
      "t": 211579.0319999997,
      "d": 986.8424999999988,
      "v": 100
    },
    {
      "midi": 64,
      "hit": false,
      "t": 211579.0319999997,
      "d": 986.8424999999988,
      "v": 100
    },
    {
      "midi": 59,
      "hit": false,
      "t": 212763.2429999997,
      "d": 1184.2109999999811,
      "v": 100
    },
    {
      "midi": 55,
      "hit": false,
      "t": 212763.2429999997,
      "d": 1381.5794999999925,
      "v": 100
    },
    {
      "midi": 62,
      "hit": false,
      "t": 212763.2429999997,
      "d": 1381.5794999999925,
      "v": 100
    },
    {
      "midi": 60,
      "hit": false,
      "t": 214342.1909999997,
      "d": 789.4739999999874,
      "v": 100
    },
    {
      "midi": 62,
      "hit": false,
      "t": 214539.5594999997,
      "d": 190.78954999998678,
      "v": 100
    },
    {
      "midi": 57,
      "hit": false,
      "t": 214736.9279999997,
      "d": 190.78954999998678,
      "v": 100
    },
    {
      "midi": 64,
      "hit": false,
      "t": 214736.9279999997,
      "d": 394.7369999999937,
      "v": 100
    },
    {
      "midi": 60,
      "hit": false,
      "t": 215131.6649999997,
      "d": 190.78954999998678,
      "v": 100
    },
    {
      "midi": 65,
      "hit": false,
      "t": 215131.6649999997,
      "d": 190.78954999998678,
      "v": 100
    },
    {
      "midi": 57,
      "hit": false,
      "t": 215526.40199999968,
      "d": 190.78954999998678,
      "v": 100
    },
    {
      "midi": 60,
      "hit": false,
      "t": 215526.40199999968,
      "d": 190.78954999998678,
      "v": 100
    },
    {
      "midi": 64,
      "hit": false,
      "t": 215526.40199999968,
      "d": 190.78954999998678,
      "v": 100
    },
    {
      "midi": 52,
      "hit": false,
      "t": 215921.13899999968,
      "d": 394.7369999999937,
      "v": 100
    },
    {
      "midi": 57,
      "hit": false,
      "t": 215921.13899999968,
      "d": 394.7369999999937,
      "v": 100
    },
    {
      "midi": 60,
      "hit": false,
      "t": 215921.13899999968,
      "d": 592.1055000000051,
      "v": 100
    },
    {
      "midi": 52,
      "hit": false,
      "t": 216710.6129999997,
      "d": 394.7369999999937,
      "v": 100
    },
    {
      "midi": 57,
      "hit": false,
      "t": 216710.6129999997,
      "d": 394.7369999999937,
      "v": 100
    },
    {
      "midi": 55,
      "hit": false,
      "t": 217500.08699999968,
      "d": 789.4739999999874,
      "v": 100
    },
    {
      "midi": 59,
      "hit": false,
      "t": 217500.08699999968,
      "d": 789.4739999999874,
      "v": 100
    },
    {
      "midi": 62,
      "hit": false,
      "t": 217500.08699999968,
      "d": 789.4739999999874,
      "v": 100
    },
    {
      "midi": 64,
      "hit": false,
      "t": 218289.56099999967,
      "d": 1381.5794999999925,
      "v": 100
    },
    {
      "midi": 53,
      "hit": false,
      "t": 221052.71999999965,
      "d": 986.8424999999988,
      "v": 100
    },
    {
      "midi": 62,
      "hit": false,
      "t": 221052.71999999965,
      "d": 986.8424999999988,
      "v": 100
    },
    {
      "midi": 57,
      "hit": false,
      "t": 221052.71999999965,
      "d": 1184.2110000000102,
      "v": 100
    },
    {
      "midi": 60,
      "hit": false,
      "t": 222236.93099999966,
      "d": 190.78954999998678,
      "v": 100
    },
    {
      "midi": 62,
      "hit": false,
      "t": 222434.29949999964,
      "d": 190.78954999998678,
      "v": 100
    },
    {
      "midi": 60,
      "hit": false,
      "t": 222631.66799999963,
      "d": 394.7369999999937,
      "v": 100
    },
    {
      "midi": 53,
      "hit": false,
      "t": 223026.40499999962,
      "d": 190.78954999998678,
      "v": 100
    },
    {
      "midi": 57,
      "hit": false,
      "t": 223223.7734999996,
      "d": 190.78954999998678,
      "v": 100
    },
    {
      "midi": 60,
      "hit": false,
      "t": 223421.14199999959,
      "d": 394.7369999999937,
      "v": 100
    },
    {
      "midi": 62,
      "hit": false,
      "t": 223815.87899999958,
      "d": 190.78954999998678,
      "v": 100
    },
    {
      "midi": 52,
      "hit": false,
      "t": 224210.61599999957,
      "d": 3157.896000000008,
      "v": 100
    },
    {
      "midi": 55,
      "hit": false,
      "t": 224210.61599999957,
      "d": 3157.896000000008,
      "v": 100
    },
    {
      "midi": 60,
      "hit": false,
      "t": 224210.61599999957,
      "d": 3157.896000000008,
      "v": 100
    }
  ]
}