{
  "jsonPath": "Soundtracks/Video Game Music/Myst/myst-mysttheme.json",
  "path": "Soundtracks\\Video Game Music\\Myst\\Myst_MystTheme.mid",
  "name": "Myst_MystTheme",
  "difficulty": "Advanced",
  "bpm": 120,
  "notes": [
    {
      "midi": 78,
      "hit": false,
      "t": 1505.859375,
      "d": 493.65234375,
      "v": 73
    },
    {
      "midi": 85,
      "hit": false,
      "t": 1505.859375,
      "d": 493.65234375,
      "v": 73
    },
    {
      "midi": 90,
      "hit": false,
      "t": 1505.859375,
      "d": 493.65234375,
      "v": 87
    },
    {
      "midi": 78,
      "hit": false,
      "t": 2001.953125,
      "d": 3503.41796875,
      "v": 72
    },
    {
      "midi": 83,
      "hit": false,
      "t": 2001.953125,
      "d": 3503.41796875,
      "v": 86
    },
    {
      "midi": 35,
      "hit": false,
      "t": 2001.953125,
      "d": 1997.55859375,
      "v": 70
    },
    {
      "midi": 66,
      "hit": false,
      "t": 2266.6015625,
      "d": 232.91015625,
      "v": 64
    },
    {
      "midi": 54,
      "hit": false,
      "t": 2266.6015625,
      "d": 232.91015625,
      "v": 64
    },
    {
      "midi": 67,
      "hit": false,
      "t": 2514.6484375,
      "d": 231.4453125,
      "v": 65
    },
    {
      "midi": 55,
      "hit": false,
      "t": 2514.6484375,
      "d": 231.4453125,
      "v": 65
    },
    {
      "midi": 71,
      "hit": false,
      "t": 2761.23046875,
      "d": 233.88671875,
      "v": 64
    },
    {
      "midi": 47,
      "hit": false,
      "t": 2761.23046875,
      "d": 233.88671875,
      "v": 64
    },
    {
      "midi": 66,
      "hit": false,
      "t": 3010.25390625,
      "d": 233.88671875,
      "v": 67
    },
    {
      "midi": 54,
      "hit": false,
      "t": 3010.25390625,
      "d": 233.88671875,
      "v": 67
    },
    {
      "midi": 67,
      "hit": false,
      "t": 3259.27734375,
      "d": 231.4453125,
      "v": 64
    },
    {
      "midi": 55,
      "hit": false,
      "t": 3259.27734375,
      "d": 231.4453125,
      "v": 64
    },
    {
      "midi": 59,
      "hit": false,
      "t": 3505.859375,
      "d": 231.4453125,
      "v": 65
    },
    {
      "midi": 47,
      "hit": false,
      "t": 3505.859375,
      "d": 231.4453125,
      "v": 64
    },
    {
      "midi": 66,
      "hit": false,
      "t": 3752.44140625,
      "d": 232.421875,
      "v": 64
    },
    {
      "midi": 54,
      "hit": false,
      "t": 3752.44140625,
      "d": 232.421875,
      "v": 64
    },
    {
      "midi": 67,
      "hit": false,
      "t": 4001.953125,
      "d": 249.0234375,
      "v": 69
    },
    {
      "midi": 55,
      "hit": false,
      "t": 4001.953125,
      "d": 249.0234375,
      "v": 69
    },
    {
      "midi": 59,
      "hit": false,
      "t": 4266.6015625,
      "d": 232.91015625,
      "v": 64
    },
    {
      "midi": 47,
      "hit": false,
      "t": 4266.6015625,
      "d": 232.91015625,
      "v": 64
    },
    {
      "midi": 66,
      "hit": false,
      "t": 4514.6484375,
      "d": 231.4453125,
      "v": 65
    },
    {
      "midi": 54,
      "hit": false,
      "t": 4514.6484375,
      "d": 231.4453125,
      "v": 65
    },
    {
      "midi": 67,
      "hit": false,
      "t": 4761.23046875,
      "d": 233.88671875,
      "v": 64
    },
    {
      "midi": 55,
      "hit": false,
      "t": 4761.23046875,
      "d": 233.88671875,
      "v": 64
    },
    {
      "midi": 35,
      "hit": false,
      "t": 5010.25390625,
      "d": 233.88671875,
      "v": 64
    },
    {
      "midi": 42,
      "hit": false,
      "t": 5259.27734375,
      "d": 231.4453125,
      "v": 64
    },
    {
      "midi": 78,
      "hit": false,
      "t": 5505.859375,
      "d": 493.65234375,
      "v": 73
    },
    {
      "midi": 83,
      "hit": false,
      "t": 5505.859375,
      "d": 493.65234375,
      "v": 73
    },
    {
      "midi": 90,
      "hit": false,
      "t": 5505.859375,
      "d": 493.65234375,
      "v": 87
    },
    {
      "midi": 35,
      "hit": false,
      "t": 5505.859375,
      "d": 231.4453125,
      "v": 55
    },
    {
      "midi": 47,
      "hit": false,
      "t": 5505.859375,
      "d": 231.4453125,
      "v": 66
    },
    {
      "midi": 35,
      "hit": false,
      "t": 5752.44140625,
      "d": 232.421875,
      "v": 54
    },
    {
      "midi": 47,
      "hit": false,
      "t": 5752.44140625,
      "d": 232.421875,
      "v": 69
    },
    {
      "midi": 79,
      "hit": false,
      "t": 6001.953125,
      "d": 3503.41796875,
      "v": 72
    },
    {
      "midi": 88,
      "hit": false,
      "t": 6001.953125,
      "d": 3503.41796875,
      "v": 72
    },
    {
      "midi": 91,
      "hit": false,
      "t": 6001.953125,
      "d": 3503.41796875,
      "v": 86
    },
    {
      "midi": 35,
      "hit": false,
      "t": 6001.953125,
      "d": 1997.55859375,
      "v": 70
    },
    {
      "midi": 43,
      "hit": false,
      "t": 6001.953125,
      "d": 1997.55859375,
      "v": 85
    },
    {
      "midi": 66,
      "hit": false,
      "t": 6266.6015625,
      "d": 262.20703125,
      "v": 52
    },
    {
      "midi": 54,
      "hit": false,
      "t": 6266.6015625,
      "d": 262.20703125,
      "v": 52
    },
    {
      "midi": 69,
      "hit": false,
      "t": 6514.6484375,
      "d": 260.7421875,
      "v": 53
    },
    {
      "midi": 57,
      "hit": false,
      "t": 6514.6484375,
      "d": 260.7421875,
      "v": 53
    },
    {
      "midi": 71,
      "hit": false,
      "t": 6761.23046875,
      "d": 263.18359375,
      "v": 52
    },
    {
      "midi": 47,
      "hit": false,
      "t": 6761.23046875,
      "d": 263.18359375,
      "v": 52
    },
    {
      "midi": 66,
      "hit": false,
      "t": 7010.25390625,
      "d": 263.18359375,
      "v": 55
    },
    {
      "midi": 54,
      "hit": false,
      "t": 7010.25390625,
      "d": 263.18359375,
      "v": 55
    },
    {
      "midi": 69,
      "hit": false,
      "t": 7259.27734375,
      "d": 260.7421875,
      "v": 52
    },
    {
      "midi": 57,
      "hit": false,
      "t": 7259.27734375,
      "d": 260.7421875,
      "v": 52
    },
    {
      "midi": 59,
      "hit": false,
      "t": 7505.859375,
      "d": 260.7421875,
      "v": 53
    },
    {
      "midi": 47,
      "hit": false,
      "t": 7505.859375,
      "d": 260.7421875,
      "v": 53
    },
    {
      "midi": 66,
      "hit": false,
      "t": 7752.44140625,
      "d": 261.71875,
      "v": 52
    },
    {
      "midi": 54,
      "hit": false,
      "t": 7752.44140625,
      "d": 261.71875,
      "v": 52
    },
    {
      "midi": 69,
      "hit": false,
      "t": 8001.953125,
      "d": 278.80859375,
      "v": 57
    },
    {
      "midi": 57,
      "hit": false,
      "t": 8001.953125,
      "d": 278.80859375,
      "v": 57
    },
    {
      "midi": 59,
      "hit": false,
      "t": 8266.6015625,
      "d": 262.20703125,
      "v": 52
    },
    {
      "midi": 47,
      "hit": false,
      "t": 8266.6015625,
      "d": 262.20703125,
      "v": 52
    },
    {
      "midi": 66,
      "hit": false,
      "t": 8514.6484375,
      "d": 260.7421875,
      "v": 53
    },
    {
      "midi": 54,
      "hit": false,
      "t": 8514.6484375,
      "d": 260.7421875,
      "v": 53
    },
    {
      "midi": 69,
      "hit": false,
      "t": 8761.23046875,
      "d": 263.18359375,
      "v": 52
    },
    {
      "midi": 57,
      "hit": false,
      "t": 8761.23046875,
      "d": 263.18359375,
      "v": 52
    },
    {
      "midi": 35,
      "hit": false,
      "t": 9010.25390625,
      "d": 263.18359375,
      "v": 53
    },
    {
      "midi": 42,
      "hit": false,
      "t": 9259.27734375,
      "d": 260.7421875,
      "v": 52
    },
    {
      "midi": 78,
      "hit": false,
      "t": 9505.859375,
      "d": 493.65234375,
      "v": 73
    },
    {
      "midi": 83,
      "hit": false,
      "t": 9505.859375,
      "d": 493.65234375,
      "v": 73
    },
    {
      "midi": 90,
      "hit": false,
      "t": 9505.859375,
      "d": 493.65234375,
      "v": 87
    },
    {
      "midi": 45,
      "hit": false,
      "t": 9505.859375,
      "d": 260.7421875,
      "v": 53
    },
    {
      "midi": 35,
      "hit": false,
      "t": 9752.44140625,
      "d": 216.796875,
      "v": 50
    },
    {
      "midi": 78,
      "hit": false,
      "t": 10001.953125,
      "d": 3503.41796875,
      "v": 72
    },
    {
      "midi": 83,
      "hit": false,
      "t": 10001.953125,
      "d": 3503.41796875,
      "v": 86
    },
    {
      "midi": 35,
      "hit": false,
      "t": 10001.953125,
      "d": 1997.55859375,
      "v": 70
    },
    {
      "midi": 66,
      "hit": false,
      "t": 10266.6015625,
      "d": 232.91015625,
      "v": 64
    },
    {
      "midi": 54,
      "hit": false,
      "t": 10266.6015625,
      "d": 232.91015625,
      "v": 64
    },
    {
      "midi": 67,
      "hit": false,
      "t": 10514.6484375,
      "d": 231.4453125,
      "v": 65
    },
    {
      "midi": 55,
      "hit": false,
      "t": 10514.6484375,
      "d": 231.4453125,
      "v": 65
    },
    {
      "midi": 71,
      "hit": false,
      "t": 10761.23046875,
      "d": 233.88671875,
      "v": 64
    },
    {
      "midi": 47,
      "hit": false,
      "t": 10761.23046875,
      "d": 233.88671875,
      "v": 64
    },
    {
      "midi": 66,
      "hit": false,
      "t": 11010.25390625,
      "d": 233.88671875,
      "v": 67
    },
    {
      "midi": 54,
      "hit": false,
      "t": 11010.25390625,
      "d": 233.88671875,
      "v": 67
    },
    {
      "midi": 67,
      "hit": false,
      "t": 11259.27734375,
      "d": 231.4453125,
      "v": 64
    },
    {
      "midi": 55,
      "hit": false,
      "t": 11259.27734375,
      "d": 231.4453125,
      "v": 64
    },
    {
      "midi": 59,
      "hit": false,
      "t": 11505.859375,
      "d": 231.4453125,
      "v": 65
    },
    {
      "midi": 47,
      "hit": false,
      "t": 11505.859375,
      "d": 231.4453125,
      "v": 64
    },
    {
      "midi": 66,
      "hit": false,
      "t": 11752.44140625,
      "d": 232.421875,
      "v": 64
    },
    {
      "midi": 54,
      "hit": false,
      "t": 11752.44140625,
      "d": 232.421875,
      "v": 64
    },
    {
      "midi": 67,
      "hit": false,
      "t": 12001.953125,
      "d": 249.0234375,
      "v": 69
    },
    {
      "midi": 55,
      "hit": false,
      "t": 12001.953125,
      "d": 249.0234375,
      "v": 69
    },
    {
      "midi": 59,
      "hit": false,
      "t": 12266.6015625,
      "d": 232.91015625,
      "v": 64
    },
    {
      "midi": 47,
      "hit": false,
      "t": 12266.6015625,
      "d": 232.91015625,
      "v": 64
    },
    {
      "midi": 66,
      "hit": false,
      "t": 12514.6484375,
      "d": 231.4453125,
      "v": 65
    },
    {
      "midi": 54,
      "hit": false,
      "t": 12514.6484375,
      "d": 231.4453125,
      "v": 65
    },
    {
      "midi": 67,
      "hit": false,
      "t": 12761.23046875,
      "d": 233.88671875,
      "v": 64
    },
    {
      "midi": 55,
      "hit": false,
      "t": 12761.23046875,
      "d": 233.88671875,
      "v": 64
    },
    {
      "midi": 35,
      "hit": false,
      "t": 13010.25390625,
      "d": 233.88671875,
      "v": 64
    },
    {
      "midi": 42,
      "hit": false,
      "t": 13259.27734375,
      "d": 231.4453125,
      "v": 64
    },
    {
      "midi": 78,
      "hit": false,
      "t": 13505.859375,
      "d": 493.65234375,
      "v": 73
    },
    {
      "midi": 83,
      "hit": false,
      "t": 13505.859375,
      "d": 493.65234375,
      "v": 73
    },
    {
      "midi": 90,
      "hit": false,
      "t": 13505.859375,
      "d": 493.65234375,
      "v": 87
    },
    {
      "midi": 35,
      "hit": false,
      "t": 13505.859375,
      "d": 231.4453125,
      "v": 55
    },
    {
      "midi": 47,
      "hit": false,
      "t": 13505.859375,
      "d": 231.4453125,
      "v": 66
    },
    {
      "midi": 35,
      "hit": false,
      "t": 13752.44140625,
      "d": 232.421875,
      "v": 54
    },
    {
      "midi": 47,
      "hit": false,
      "t": 13752.44140625,
      "d": 232.421875,
      "v": 69
    },
    {
      "midi": 73,
      "hit": false,
      "t": 14001.953125,
      "d": 3503.41796875,
      "v": 72
    },
    {
      "midi": 76,
      "hit": false,
      "t": 14001.953125,
      "d": 3503.41796875,
      "v": 72
    },
    {
      "midi": 85,
      "hit": false,
      "t": 14001.953125,
      "d": 3503.41796875,
      "v": 86
    },
    {
      "midi": 37,
      "hit": false,
      "t": 14001.953125,
      "d": 1997.55859375,
      "v": 55
    },
    {
      "midi": 64,
      "hit": false,
      "t": 14266.6015625,
      "d": 232.91015625,
      "v": 64
    },
    {
      "midi": 52,
      "hit": false,
      "t": 14266.6015625,
      "d": 232.91015625,
      "v": 64
    },
    {
      "midi": 66,
      "hit": false,
      "t": 14514.6484375,
      "d": 231.4453125,
      "v": 65
    },
    {
      "midi": 54,
      "hit": false,
      "t": 14514.6484375,
      "d": 231.4453125,
      "v": 65
    },
    {
      "midi": 61,
      "hit": false,
      "t": 14761.23046875,
      "d": 233.88671875,
      "v": 64
    },
    {
      "midi": 49,
      "hit": false,
      "t": 14761.23046875,
      "d": 233.88671875,
      "v": 64
    },
    {
      "midi": 64,
      "hit": false,
      "t": 15010.25390625,
      "d": 233.88671875,
      "v": 67
    },
    {
      "midi": 52,
      "hit": false,
      "t": 15010.25390625,
      "d": 233.88671875,
      "v": 67
    },
    {
      "midi": 66,
      "hit": false,
      "t": 15259.27734375,
      "d": 231.4453125,
      "v": 64
    },
    {
      "midi": 54,
      "hit": false,
      "t": 15259.27734375,
      "d": 231.4453125,
      "v": 64
    },
    {
      "midi": 61,
      "hit": false,
      "t": 15505.859375,
      "d": 231.4453125,
      "v": 65
    },
    {
      "midi": 49,
      "hit": false,
      "t": 15505.859375,
      "d": 231.4453125,
      "v": 65
    },
    {
      "midi": 64,
      "hit": false,
      "t": 15752.44140625,
      "d": 232.421875,
      "v": 64
    },
    {
      "midi": 52,
      "hit": false,
      "t": 15752.44140625,
      "d": 232.421875,
      "v": 64
    },
    {
      "midi": 66,
      "hit": false,
      "t": 16001.953125,
      "d": 249.0234375,
      "v": 69
    },
    {
      "midi": 54,
      "hit": false,
      "t": 16001.953125,
      "d": 249.0234375,
      "v": 69
    },
    {
      "midi": 61,
      "hit": false,
      "t": 16266.6015625,
      "d": 232.91015625,
      "v": 64
    },
    {
      "midi": 49,
      "hit": false,
      "t": 16266.6015625,
      "d": 232.91015625,
      "v": 64
    },
    {
      "midi": 64,
      "hit": false,
      "t": 16514.6484375,
      "d": 231.4453125,
      "v": 65
    },
    {
      "midi": 52,
      "hit": false,
      "t": 16514.6484375,
      "d": 231.4453125,
      "v": 65
    },
    {
      "midi": 66,
      "hit": false,
      "t": 16761.23046875,
      "d": 233.88671875,
      "v": 64
    },
    {
      "midi": 54,
      "hit": false,
      "t": 16761.23046875,
      "d": 233.88671875,
      "v": 64
    },
    {
      "midi": 37,
      "hit": false,
      "t": 17010.25390625,
      "d": 233.88671875,
      "v": 65
    },
    {
      "midi": 40,
      "hit": false,
      "t": 17259.27734375,
      "d": 231.4453125,
      "v": 63
    },
    {
      "midi": 78,
      "hit": false,
      "t": 17505.859375,
      "d": 493.65234375,
      "v": 73
    },
    {
      "midi": 83,
      "hit": false,
      "t": 17505.859375,
      "d": 493.65234375,
      "v": 73
    },
    {
      "midi": 90,
      "hit": false,
      "t": 17505.859375,
      "d": 493.65234375,
      "v": 87
    },
    {
      "midi": 37,
      "hit": false,
      "t": 17505.859375,
      "d": 231.4453125,
      "v": 56
    },
    {
      "midi": 49,
      "hit": false,
      "t": 17505.859375,
      "d": 231.4453125,
      "v": 67
    },
    {
      "midi": 37,
      "hit": false,
      "t": 17752.44140625,
      "d": 232.421875,
      "v": 55
    },
    {
      "midi": 49,
      "hit": false,
      "t": 17752.44140625,
      "d": 232.421875,
      "v": 70
    },
    {
      "midi": 78,
      "hit": false,
      "t": 18001.953125,
      "d": 3503.41796875,
      "v": 72
    },
    {
      "midi": 83,
      "hit": false,
      "t": 18001.953125,
      "d": 3503.41796875,
      "v": 86
    },
    {
      "midi": 35,
      "hit": false,
      "t": 18001.953125,
      "d": 1997.55859375,
      "v": 70
    },
    {
      "midi": 66,
      "hit": false,
      "t": 18266.6015625,
      "d": 232.91015625,
      "v": 64
    },
    {
      "midi": 54,
      "hit": false,
      "t": 18266.6015625,
      "d": 232.91015625,
      "v": 64
    },
    {
      "midi": 67,
      "hit": false,
      "t": 18514.6484375,
      "d": 231.4453125,
      "v": 65
    },
    {
      "midi": 55,
      "hit": false,
      "t": 18514.6484375,
      "d": 231.4453125,
      "v": 65
    },
    {
      "midi": 71,
      "hit": false,
      "t": 18761.23046875,
      "d": 233.88671875,
      "v": 64
    },
    {
      "midi": 47,
      "hit": false,
      "t": 18761.23046875,
      "d": 233.88671875,
      "v": 64
    },
    {
      "midi": 66,
      "hit": false,
      "t": 19010.25390625,
      "d": 233.88671875,
      "v": 67
    },
    {
      "midi": 54,
      "hit": false,
      "t": 19010.25390625,
      "d": 233.88671875,
      "v": 67
    },
    {
      "midi": 67,
      "hit": false,
      "t": 19259.27734375,
      "d": 231.4453125,
      "v": 64
    },
    {
      "midi": 55,
      "hit": false,
      "t": 19259.27734375,
      "d": 231.4453125,
      "v": 64
    },
    {
      "midi": 59,
      "hit": false,
      "t": 19505.859375,
      "d": 231.4453125,
      "v": 65
    },
    {
      "midi": 47,
      "hit": false,
      "t": 19505.859375,
      "d": 231.4453125,
      "v": 64
    },
    {
      "midi": 66,
      "hit": false,
      "t": 19752.44140625,
      "d": 232.421875,
      "v": 64
    },
    {
      "midi": 54,
      "hit": false,
      "t": 19752.44140625,
      "d": 232.421875,
      "v": 64
    },
    {
      "midi": 67,
      "hit": false,
      "t": 20001.953125,
      "d": 249.0234375,
      "v": 69
    },
    {
      "midi": 55,
      "hit": false,
      "t": 20001.953125,
      "d": 249.0234375,
      "v": 69
    },
    {
      "midi": 59,
      "hit": false,
      "t": 20266.6015625,
      "d": 232.91015625,
      "v": 64
    },
    {
      "midi": 47,
      "hit": false,
      "t": 20266.6015625,
      "d": 232.91015625,
      "v": 64
    },
    {
      "midi": 66,
      "hit": false,
      "t": 20514.6484375,
      "d": 231.4453125,
      "v": 65
    },
    {
      "midi": 54,
      "hit": false,
      "t": 20514.6484375,
      "d": 231.4453125,
      "v": 65
    },
    {
      "midi": 67,
      "hit": false,
      "t": 20761.23046875,
      "d": 233.88671875,
      "v": 64
    },
    {
      "midi": 55,
      "hit": false,
      "t": 20761.23046875,
      "d": 233.88671875,
      "v": 64
    },
    {
      "midi": 35,
      "hit": false,
      "t": 21010.25390625,
      "d": 233.88671875,
      "v": 64
    },
    {
      "midi": 42,
      "hit": false,
      "t": 21259.27734375,
      "d": 231.4453125,
      "v": 64
    },
    {
      "midi": 78,
      "hit": false,
      "t": 21505.859375,
      "d": 493.65234375,
      "v": 73
    },
    {
      "midi": 83,
      "hit": false,
      "t": 21505.859375,
      "d": 493.65234375,
      "v": 73
    },
    {
      "midi": 90,
      "hit": false,
      "t": 21505.859375,
      "d": 493.65234375,
      "v": 87
    },
    {
      "midi": 35,
      "hit": false,
      "t": 21505.859375,
      "d": 231.4453125,
      "v": 55
    },
    {
      "midi": 47,
      "hit": false,
      "t": 21505.859375,
      "d": 231.4453125,
      "v": 66
    },
    {
      "midi": 35,
      "hit": false,
      "t": 21752.44140625,
      "d": 232.421875,
      "v": 54
    },
    {
      "midi": 47,
      "hit": false,
      "t": 21752.44140625,
      "d": 232.421875,
      "v": 69
    },
    {
      "midi": 79,
      "hit": false,
      "t": 22001.953125,
      "d": 3503.41796875,
      "v": 72
    },
    {
      "midi": 88,
      "hit": false,
      "t": 22001.953125,
      "d": 3503.41796875,
      "v": 72
    },
    {
      "midi": 91,
      "hit": false,
      "t": 22001.953125,
      "d": 3503.41796875,
      "v": 86
    },
    {
      "midi": 35,
      "hit": false,
      "t": 22001.953125,
      "d": 1997.55859375,
      "v": 70
    },
    {
      "midi": 43,
      "hit": false,
      "t": 22001.953125,
      "d": 1997.55859375,
      "v": 85
    },
    {
      "midi": 66,
      "hit": false,
      "t": 22266.6015625,
      "d": 262.20703125,
      "v": 52
    },
    {
      "midi": 54,
      "hit": false,
      "t": 22266.6015625,
      "d": 262.20703125,
      "v": 52
    },
    {
      "midi": 69,
      "hit": false,
      "t": 22514.6484375,
      "d": 260.7421875,
      "v": 53
    },
    {
      "midi": 57,
      "hit": false,
      "t": 22514.6484375,
      "d": 260.7421875,
      "v": 53
    },
    {
      "midi": 71,
      "hit": false,
      "t": 22761.23046875,
      "d": 263.18359375,
      "v": 52
    },
    {
      "midi": 47,
      "hit": false,
      "t": 22761.23046875,
      "d": 263.18359375,
      "v": 52
    },
    {
      "midi": 66,
      "hit": false,
      "t": 23010.25390625,
      "d": 263.18359375,
      "v": 55
    },
    {
      "midi": 54,
      "hit": false,
      "t": 23010.25390625,
      "d": 263.18359375,
      "v": 55
    },
    {
      "midi": 69,
      "hit": false,
      "t": 23259.27734375,
      "d": 260.7421875,
      "v": 52
    },
    {
      "midi": 57,
      "hit": false,
      "t": 23259.27734375,
      "d": 260.7421875,
      "v": 52
    },
    {
      "midi": 59,
      "hit": false,
      "t": 23505.859375,
      "d": 260.7421875,
      "v": 53
    },
    {
      "midi": 47,
      "hit": false,
      "t": 23505.859375,
      "d": 260.7421875,
      "v": 53
    },
    {
      "midi": 66,
      "hit": false,
      "t": 23752.44140625,
      "d": 261.71875,
      "v": 52
    },
    {
      "midi": 54,
      "hit": false,
      "t": 23752.44140625,
      "d": 261.71875,
      "v": 52
    },
    {
      "midi": 69,
      "hit": false,
      "t": 24001.953125,
      "d": 278.80859375,
      "v": 57
    },
    {
      "midi": 57,
      "hit": false,
      "t": 24001.953125,
      "d": 278.80859375,
      "v": 57
    },
    {
      "midi": 59,
      "hit": false,
      "t": 24266.6015625,
      "d": 262.20703125,
      "v": 52
    },
    {
      "midi": 47,
      "hit": false,
      "t": 24266.6015625,
      "d": 262.20703125,
      "v": 52
    },
    {
      "midi": 66,
      "hit": false,
      "t": 24514.6484375,
      "d": 260.7421875,
      "v": 53
    },
    {
      "midi": 54,
      "hit": false,
      "t": 24514.6484375,
      "d": 260.7421875,
      "v": 53
    },
    {
      "midi": 69,
      "hit": false,
      "t": 24761.23046875,
      "d": 263.18359375,
      "v": 52
    },
    {
      "midi": 57,
      "hit": false,
      "t": 24761.23046875,
      "d": 263.18359375,
      "v": 52
    },
    {
      "midi": 35,
      "hit": false,
      "t": 25010.25390625,
      "d": 263.18359375,
      "v": 53
    },
    {
      "midi": 42,
      "hit": false,
      "t": 25259.27734375,
      "d": 260.7421875,
      "v": 52
    },
    {
      "midi": 78,
      "hit": false,
      "t": 25505.859375,
      "d": 493.65234375,
      "v": 73
    },
    {
      "midi": 83,
      "hit": false,
      "t": 25505.859375,
      "d": 493.65234375,
      "v": 73
    },
    {
      "midi": 90,
      "hit": false,
      "t": 25505.859375,
      "d": 493.65234375,
      "v": 87
    },
    {
      "midi": 45,
      "hit": false,
      "t": 25505.859375,
      "d": 260.7421875,
      "v": 53
    },
    {
      "midi": 35,
      "hit": false,
      "t": 25752.44140625,
      "d": 216.796875,
      "v": 50
    },
    {
      "midi": 78,
      "hit": false,
      "t": 26001.953125,
      "d": 1997.55859375,
      "v": 72
    },
    {
      "midi": 83,
      "hit": false,
      "t": 26001.953125,
      "d": 1997.55859375,
      "v": 86
    },
    {
      "midi": 35,
      "hit": false,
      "t": 26001.953125,
      "d": 1997.55859375,
      "v": 70
    },
    {
      "midi": 66,
      "hit": false,
      "t": 26266.6015625,
      "d": 232.91015625,
      "v": 64
    },
    {
      "midi": 54,
      "hit": false,
      "t": 26266.6015625,
      "d": 232.91015625,
      "v": 64
    },
    {
      "midi": 67,
      "hit": false,
      "t": 26514.6484375,
      "d": 231.4453125,
      "v": 65
    },
    {
      "midi": 55,
      "hit": false,
      "t": 26514.6484375,
      "d": 231.4453125,
      "v": 65
    },
    {
      "midi": 71,
      "hit": false,
      "t": 26761.23046875,
      "d": 233.88671875,
      "v": 64
    },
    {
      "midi": 47,
      "hit": false,
      "t": 26761.23046875,
      "d": 233.88671875,
      "v": 64
    },
    {
      "midi": 66,
      "hit": false,
      "t": 27010.25390625,
      "d": 233.88671875,
      "v": 67
    },
    {
      "midi": 54,
      "hit": false,
      "t": 27010.25390625,
      "d": 233.88671875,
      "v": 67
    },
    {
      "midi": 67,
      "hit": false,
      "t": 27259.27734375,
      "d": 231.4453125,
      "v": 64
    },
    {
      "midi": 55,
      "hit": false,
      "t": 27259.27734375,
      "d": 231.4453125,
      "v": 64
    },
    {
      "midi": 59,
      "hit": false,
      "t": 27505.859375,
      "d": 231.4453125,
      "v": 65
    },
    {
      "midi": 47,
      "hit": false,
      "t": 27505.859375,
      "d": 231.4453125,
      "v": 64
    },
    {
      "midi": 66,
      "hit": false,
      "t": 27752.44140625,
      "d": 232.421875,
      "v": 64
    },
    {
      "midi": 54,
      "hit": false,
      "t": 27752.44140625,
      "d": 232.421875,
      "v": 64
    },
    {
      "midi": 67,
      "hit": false,
      "t": 28001.953125,
      "d": 249.0234375,
      "v": 69
    },
    {
      "midi": 55,
      "hit": false,
      "t": 28001.953125,
      "d": 249.0234375,
      "v": 69
    },
    {
      "midi": 59,
      "hit": false,
      "t": 28266.6015625,
      "d": 232.91015625,
      "v": 64
    },
    {
      "midi": 47,
      "hit": false,
      "t": 28266.6015625,
      "d": 232.91015625,
      "v": 64
    },
    {
      "midi": 66,
      "hit": false,
      "t": 28514.6484375,
      "d": 231.4453125,
      "v": 65
    },
    {
      "midi": 54,
      "hit": false,
      "t": 28514.6484375,
      "d": 231.4453125,
      "v": 65
    },
    {
      "midi": 67,
      "hit": false,
      "t": 28761.23046875,
      "d": 233.88671875,
      "v": 64
    },
    {
      "midi": 55,
      "hit": false,
      "t": 28761.23046875,
      "d": 233.88671875,
      "v": 64
    },
    {
      "midi": 35,
      "hit": false,
      "t": 29010.25390625,
      "d": 233.88671875,
      "v": 64
    },
    {
      "midi": 42,
      "hit": false,
      "t": 29259.27734375,
      "d": 231.4453125,
      "v": 64
    },
    {
      "midi": 43,
      "hit": false,
      "t": 29505.859375,
      "d": 231.4453125,
      "v": 64
    },
    {
      "midi": 35,
      "hit": false,
      "t": 29752.44140625,
      "d": 232.421875,
      "v": 62
    },
    {
      "midi": 71,
      "hit": false,
      "t": 30001.953125,
      "d": 249.0234375,
      "v": 69
    },
    {
      "midi": 47,
      "hit": false,
      "t": 30001.953125,
      "d": 249.0234375,
      "v": 68
    },
    {
      "midi": 66,
      "hit": false,
      "t": 30266.6015625,
      "d": 232.91015625,
      "v": 64
    },
    {
      "midi": 54,
      "hit": false,
      "t": 30266.6015625,
      "d": 232.91015625,
      "v": 64
    },
    {
      "midi": 67,
      "hit": false,
      "t": 30514.6484375,
      "d": 231.4453125,
      "v": 65
    },
    {
      "midi": 55,
      "hit": false,
      "t": 30514.6484375,
      "d": 231.4453125,
      "v": 65
    },
    {
      "midi": 71,
      "hit": false,
      "t": 30761.23046875,
      "d": 233.88671875,
      "v": 64
    },
    {
      "midi": 47,
      "hit": false,
      "t": 30761.23046875,
      "d": 233.88671875,
      "v": 64
    },
    {
      "midi": 66,
      "hit": false,
      "t": 31010.25390625,
      "d": 233.88671875,
      "v": 67
    },
    {
      "midi": 54,
      "hit": false,
      "t": 31010.25390625,
      "d": 233.88671875,
      "v": 67
    },
    {
      "midi": 67,
      "hit": false,
      "t": 31259.27734375,
      "d": 231.4453125,
      "v": 64
    },
    {
      "midi": 55,
      "hit": false,
      "t": 31259.27734375,
      "d": 231.4453125,
      "v": 64
    },
    {
      "midi": 35,
      "hit": false,
      "t": 31505.859375,
      "d": 231.4453125,
      "v": 55
    },
    {
      "midi": 47,
      "hit": false,
      "t": 31505.859375,
      "d": 231.4453125,
      "v": 66
    },
    {
      "midi": 35,
      "hit": false,
      "t": 31752.44140625,
      "d": 232.421875,
      "v": 54
    },
    {
      "midi": 47,
      "hit": false,
      "t": 31752.44140625,
      "d": 232.421875,
      "v": 65
    },
    {
      "midi": 35,
      "hit": false,
      "t": 32001.953125,
      "d": 262.20703125,
      "v": 75
    },
    {
      "midi": 47,
      "hit": false,
      "t": 32001.953125,
      "d": 262.20703125,
      "v": 86
    }
  ]
}