{
  "jsonPath": "Soundtracks/Theme/The London Theatre Orchestra/star-wars.json",
  "path": "Soundtracks\\Theme\\The London Theatre Orchestra\\Star Wars.mid",
  "name": "Star Wars",
  "difficulty": "Intermediate",
  "bpm": 96.47000184900837,
  "notes": [
    {
      "midi": 88,
      "hit": false,
      "t": 197646.95999999993,
      "d": 235.2939999999944,
      "v": 61
    },
    {
      "midi": 84,
      "hit": false,
      "t": 197882.25399999993,
      "d": 235.2939999999944,
      "v": 69
    },
    {
      "midi": 80,
      "hit": false,
      "t": 198117.54799999992,
      "d": 235.2939999999944,
      "v": 73
    },
    {
      "midi": 79,
      "hit": false,
      "t": 198352.84199999992,
      "d": 235.2939999999944,
      "v": 66
    },
    {
      "midi": 76,
      "hit": false,
      "t": 198588.1359999999,
      "d": 235.2939999999944,
      "v": 66
    },
    {
      "midi": 72,
      "hit": false,
      "t": 198823.4299999999,
      "d": 235.2939999999944,
      "v": 62
    },
    {
      "midi": 76,
      "hit": false,
      "t": 199058.7239999999,
      "d": 235.2939999999944,
      "v": 72
    },
    {
      "midi": 79,
      "hit": false,
      "t": 199294.0179999999,
      "d": 235.2939999999944,
      "v": 65
    },
    {
      "midi": 80,
      "hit": false,
      "t": 199529.3119999999,
      "d": 235.2939999999944,
      "v": 76
    },
    {
      "midi": 84,
      "hit": false,
      "t": 199764.60599999988,
      "d": 235.2939999999944,
      "v": 68
    },
    {
      "midi": 88,
      "hit": false,
      "t": 199999.89999999988,
      "d": 235.2939999999944,
      "v": 73
    },
    {
      "midi": 89,
      "hit": false,
      "t": 200235.19399999987,
      "d": 235.2939999999944,
      "v": 70
    },
    {
      "midi": 88,
      "hit": false,
      "t": 200470.48799999987,
      "d": 235.2939999999944,
      "v": 73
    },
    {
      "midi": 84,
      "hit": false,
      "t": 200705.78199999986,
      "d": 235.2939999999944,
      "v": 71
    },
    {
      "midi": 80,
      "hit": false,
      "t": 200941.07599999986,
      "d": 235.2939999999944,
      "v": 74
    },
    {
      "midi": 79,
      "hit": false,
      "t": 201176.36999999985,
      "d": 235.2939999999944,
      "v": 66
    },
    {
      "midi": 76,
      "hit": false,
      "t": 201411.66399999984,
      "d": 235.2939999999944,
      "v": 63
    },
    {
      "midi": 72,
      "hit": false,
      "t": 201646.95799999984,
      "d": 235.2939999999944,
      "v": 67
    },
    {
      "midi": 76,
      "hit": false,
      "t": 201882.25199999983,
      "d": 235.2939999999944,
      "v": 66
    },
    {
      "midi": 79,
      "hit": false,
      "t": 202117.54599999983,
      "d": 235.2939999999944,
      "v": 66
    },
    {
      "midi": 80,
      "hit": false,
      "t": 202352.83999999982,
      "d": 235.2939999999944,
      "v": 71
    },
    {
      "midi": 84,
      "hit": false,
      "t": 202588.13399999982,
      "d": 235.2939999999944,
      "v": 67
    },
    {
      "midi": 88,
      "hit": false,
      "t": 202823.4279999998,
      "d": 235.2939999999944,
      "v": 63
    },
    {
      "midi": 89,
      "hit": false,
      "t": 203058.7219999998,
      "d": 235.2939999999944,
      "v": 71
    },
    {
      "midi": 88,
      "hit": false,
      "t": 203294.0159999998,
      "d": 235.2939999999944,
      "v": 70
    },
    {
      "midi": 84,
      "hit": false,
      "t": 203529.3099999998,
      "d": 235.2939999999944,
      "v": 72
    },
    {
      "midi": 80,
      "hit": false,
      "t": 203764.6039999998,
      "d": 235.2939999999944,
      "v": 71
    },
    {
      "midi": 79,
      "hit": false,
      "t": 203999.89799999978,
      "d": 235.2939999999944,
      "v": 64
    },
    {
      "midi": 76,
      "hit": false,
      "t": 204235.19199999978,
      "d": 235.2939999999944,
      "v": 64
    },
    {
      "midi": 72,
      "hit": false,
      "t": 204470.48599999977,
      "d": 235.2939999999944,
      "v": 58
    },
    {
      "midi": 76,
      "hit": false,
      "t": 204705.77999999977,
      "d": 235.2939999999944,
      "v": 66
    },
    {
      "midi": 79,
      "hit": false,
      "t": 204941.07399999976,
      "d": 235.2939999999944,
      "v": 63
    },
    {
      "midi": 80,
      "hit": false,
      "t": 205176.36799999975,
      "d": 235.2939999999944,
      "v": 70
    },
    {
      "midi": 84,
      "hit": false,
      "t": 205411.66199999975,
      "d": 235.2939999999944,
      "v": 69
    },
    {
      "midi": 88,
      "hit": false,
      "t": 205646.95599999974,
      "d": 235.2939999999944,
      "v": 66
    },
    {
      "midi": 89,
      "hit": false,
      "t": 205882.24999999974,
      "d": 235.2939999999944,
      "v": 76
    },
    {
      "midi": 88,
      "hit": false,
      "t": 206117.54399999973,
      "d": 235.2939999999944,
      "v": 71
    },
    {
      "midi": 84,
      "hit": false,
      "t": 206352.83799999973,
      "d": 235.2939999999944,
      "v": 76
    },
    {
      "midi": 80,
      "hit": false,
      "t": 206588.13199999972,
      "d": 235.2939999999944,
      "v": 71
    },
    {
      "midi": 79,
      "hit": false,
      "t": 206823.42599999972,
      "d": 235.2939999999944,
      "v": 64
    },
    {
      "midi": 76,
      "hit": false,
      "t": 207058.7199999997,
      "d": 235.2939999999944,
      "v": 69
    },
    {
      "midi": 72,
      "hit": false,
      "t": 207294.0139999997,
      "d": 235.2939999999944,
      "v": 63
    },
    {
      "midi": 76,
      "hit": false,
      "t": 207529.3079999997,
      "d": 235.2939999999944,
      "v": 65
    },
    {
      "midi": 79,
      "hit": false,
      "t": 207764.6019999997,
      "d": 235.2939999999944,
      "v": 63
    },
    {
      "midi": 80,
      "hit": false,
      "t": 207999.8959999997,
      "d": 235.2939999999944,
      "v": 80
    },
    {
      "midi": 84,
      "hit": false,
      "t": 208235.18999999968,
      "d": 235.2939999999944,
      "v": 71
    },
    {
      "midi": 88,
      "hit": false,
      "t": 208470.48399999968,
      "d": 235.2939999999944,
      "v": 61
    },
    {
      "midi": 89,
      "hit": false,
      "t": 208705.77799999967,
      "d": 235.2939999999944,
      "v": 66
    },
    {
      "midi": 88,
      "hit": false,
      "t": 208941.07199999967,
      "d": 235.2939999999944,
      "v": 74
    },
    {
      "midi": 84,
      "hit": false,
      "t": 209176.36599999966,
      "d": 235.2939999999944,
      "v": 66
    },
    {
      "midi": 80,
      "hit": false,
      "t": 209411.65999999965,
      "d": 235.2939999999944,
      "v": 76
    },
    {
      "midi": 79,
      "hit": false,
      "t": 209646.95399999965,
      "d": 235.2939999999944,
      "v": 66
    },
    {
      "midi": 76,
      "hit": false,
      "t": 209882.24799999964,
      "d": 235.2939999999944,
      "v": 68
    },
    {
      "midi": 72,
      "hit": false,
      "t": 210117.54199999964,
      "d": 235.2939999999944,
      "v": 67
    },
    {
      "midi": 76,
      "hit": false,
      "t": 210352.83599999963,
      "d": 235.2939999999944,
      "v": 70
    },
    {
      "midi": 79,
      "hit": false,
      "t": 210588.12999999963,
      "d": 235.2939999999944,
      "v": 63
    },
    {
      "midi": 80,
      "hit": false,
      "t": 210823.42399999962,
      "d": 235.2939999999944,
      "v": 80
    },
    {
      "midi": 84,
      "hit": false,
      "t": 211058.71799999962,
      "d": 235.2939999999944,
      "v": 67
    },
    {
      "midi": 88,
      "hit": false,
      "t": 211294.0119999996,
      "d": 235.2939999999944,
      "v": 72
    },
    {
      "midi": 89,
      "hit": false,
      "t": 211529.3059999996,
      "d": 235.2939999999944,
      "v": 74
    },
    {
      "midi": 88,
      "hit": false,
      "t": 211764.5999999996,
      "d": 235.2939999999944,
      "v": 71
    },
    {
      "midi": 84,
      "hit": false,
      "t": 211999.8939999996,
      "d": 235.2939999999944,
      "v": 71
    },
    {
      "midi": 80,
      "hit": false,
      "t": 212235.1879999996,
      "d": 235.2939999999944,
      "v": 72
    },
    {
      "midi": 79,
      "hit": false,
      "t": 212470.48199999958,
      "d": 235.2939999999944,
      "v": 66
    },
    {
      "midi": 76,
      "hit": false,
      "t": 212705.77599999958,
      "d": 235.2939999999944,
      "v": 66
    },
    {
      "midi": 72,
      "hit": false,
      "t": 212941.06999999957,
      "d": 235.2939999999944,
      "v": 59
    },
    {
      "midi": 76,
      "hit": false,
      "t": 213176.36399999956,
      "d": 235.2939999999944,
      "v": 69
    },
    {
      "midi": 79,
      "hit": false,
      "t": 213411.65799999956,
      "d": 235.2939999999944,
      "v": 67
    },
    {
      "midi": 80,
      "hit": false,
      "t": 213646.95199999955,
      "d": 235.2939999999944,
      "v": 74
    },
    {
      "midi": 84,
      "hit": false,
      "t": 213882.24599999955,
      "d": 235.2939999999944,
      "v": 72
    },
    {
      "midi": 87,
      "hit": false,
      "t": 214117.53999999954,
      "d": 235.2939999999944,
      "v": 82
    },
    {
      "midi": 88,
      "hit": false,
      "t": 214352.83399999954,
      "d": 235.2939999999944,
      "v": 73
    },
    {
      "midi": 91,
      "hit": false,
      "t": 214588.12799999953,
      "d": 235.2939999999944,
      "v": 83
    },
    {
      "midi": 84,
      "hit": false,
      "t": 379588.0454999989,
      "d": 176.4704999999958,
      "v": 64
    },
    {
      "midi": 88,
      "hit": false,
      "t": 379588.0454999989,
      "d": 176.4704999999958,
      "v": 72
    },
    {
      "midi": 91,
      "hit": false,
      "t": 379588.0454999989,
      "d": 176.4704999999958,
      "v": 77
    },
    {
      "midi": 84,
      "hit": false,
      "t": 379764.5159999989,
      "d": 705.8819999999832,
      "v": 69
    },
    {
      "midi": 88,
      "hit": false,
      "t": 379764.5159999989,
      "d": 705.8819999999832,
      "v": 73
    },
    {
      "midi": 91,
      "hit": false,
      "t": 379764.5159999989,
      "d": 705.8819999999832,
      "v": 84
    },
    {
      "midi": 81,
      "hit": false,
      "t": 380470.3979999989,
      "d": 176.4704999999958,
      "v": 75
    },
    {
      "midi": 85,
      "hit": false,
      "t": 380470.3979999989,
      "d": 176.4704999999958,
      "v": 84
    },
    {
      "midi": 88,
      "hit": false,
      "t": 380470.3979999989,
      "d": 176.4704999999958,
      "v": 79
    },
    {
      "midi": 84,
      "hit": false,
      "t": 380999.80949999887,
      "d": 176.4704999999958,
      "v": 77
    },
    {
      "midi": 88,
      "hit": false,
      "t": 380999.80949999887,
      "d": 176.4704999999958,
      "v": 70
    },
    {
      "midi": 91,
      "hit": false,
      "t": 380999.80949999887,
      "d": 176.4704999999958,
      "v": 83
    },
    {
      "midi": 84,
      "hit": false,
      "t": 381176.27999999886,
      "d": 705.8819999999832,
      "v": 78
    },
    {
      "midi": 88,
      "hit": false,
      "t": 381176.27999999886,
      "d": 705.8819999999832,
      "v": 79
    },
    {
      "midi": 91,
      "hit": false,
      "t": 381176.27999999886,
      "d": 705.8819999999832,
      "v": 87
    },
    {
      "midi": 81,
      "hit": false,
      "t": 381882.16199999885,
      "d": 529.4114999999874,
      "v": 72
    },
    {
      "midi": 85,
      "hit": false,
      "t": 381882.16199999885,
      "d": 529.4114999999874,
      "v": 85
    },
    {
      "midi": 88,
      "hit": false,
      "t": 381882.16199999885,
      "d": 529.4114999999874,
      "v": 83
    },
    {
      "midi": 84,
      "hit": false,
      "t": 385235.1014999988,
      "d": 176.4704999999958,
      "v": 80
    },
    {
      "midi": 88,
      "hit": false,
      "t": 385235.1014999988,
      "d": 176.4704999999958,
      "v": 75
    },
    {
      "midi": 91,
      "hit": false,
      "t": 385235.1014999988,
      "d": 176.4704999999958,
      "v": 85
    },
    {
      "midi": 84,
      "hit": false,
      "t": 385411.5719999988,
      "d": 705.8819999999832,
      "v": 83
    },
    {
      "midi": 88,
      "hit": false,
      "t": 385411.5719999988,
      "d": 705.8819999999832,
      "v": 81
    },
    {
      "midi": 91,
      "hit": false,
      "t": 385411.5719999988,
      "d": 705.8819999999832,
      "v": 91
    },
    {
      "midi": 81,
      "hit": false,
      "t": 386117.4539999988,
      "d": 176.4704999999958,
      "v": 77
    },
    {
      "midi": 85,
      "hit": false,
      "t": 386117.4539999988,
      "d": 176.4704999999958,
      "v": 90
    },
    {
      "midi": 88,
      "hit": false,
      "t": 386117.4539999988,
      "d": 176.4704999999958,
      "v": 86
    },
    {
      "midi": 84,
      "hit": false,
      "t": 386646.8654999988,
      "d": 176.4704999999958,
      "v": 74
    },
    {
      "midi": 88,
      "hit": false,
      "t": 386646.8654999988,
      "d": 176.4704999999958,
      "v": 73
    },
    {
      "midi": 91,
      "hit": false,
      "t": 386646.8654999988,
      "d": 176.4704999999958,
      "v": 83
    },
    {
      "midi": 84,
      "hit": false,
      "t": 386823.3359999988,
      "d": 705.8819999999832,
      "v": 78
    },
    {
      "midi": 88,
      "hit": false,
      "t": 386823.3359999988,
      "d": 705.8819999999832,
      "v": 78
    },
    {
      "midi": 91,
      "hit": false,
      "t": 386823.3359999988,
      "d": 705.8819999999832,
      "v": 89
    },
    {
      "midi": 81,
      "hit": false,
      "t": 387529.2179999988,
      "d": 352.9409999999916,
      "v": 72
    },
    {
      "midi": 85,
      "hit": false,
      "t": 387529.2179999988,
      "d": 352.9409999999916,
      "v": 84
    },
    {
      "midi": 88,
      "hit": false,
      "t": 387529.2179999988,
      "d": 352.9409999999916,
      "v": 82
    },
    {
      "midi": 83,
      "hit": false,
      "t": 390882.15749999875,
      "d": 176.4704999999958,
      "v": 77
    },
    {
      "midi": 88,
      "hit": false,
      "t": 390882.15749999875,
      "d": 176.4704999999958,
      "v": 79
    },
    {
      "midi": 91,
      "hit": false,
      "t": 390882.15749999875,
      "d": 176.4704999999958,
      "v": 84
    },
    {
      "midi": 83,
      "hit": false,
      "t": 391058.62799999875,
      "d": 705.8819999999832,
      "v": 84
    },
    {
      "midi": 88,
      "hit": false,
      "t": 391058.62799999875,
      "d": 705.8819999999832,
      "v": 87
    },
    {
      "midi": 91,
      "hit": false,
      "t": 391058.62799999875,
      "d": 705.8819999999832,
      "v": 93
    },
    {
      "midi": 80,
      "hit": false,
      "t": 391764.5099999987,
      "d": 176.4704999999958,
      "v": 87
    },
    {
      "midi": 83,
      "hit": false,
      "t": 391764.5099999987,
      "d": 176.4704999999958,
      "v": 73
    },
    {
      "midi": 88,
      "hit": false,
      "t": 391764.5099999987,
      "d": 176.4704999999958,
      "v": 84
    },
    {
      "midi": 83,
      "hit": false,
      "t": 392293.9214999987,
      "d": 176.4704999999958,
      "v": 74
    },
    {
      "midi": 88,
      "hit": false,
      "t": 392293.9214999987,
      "d": 176.4704999999958,
      "v": 77
    },
    {
      "midi": 91,
      "hit": false,
      "t": 392293.9214999987,
      "d": 176.4704999999958,
      "v": 84
    },
    {
      "midi": 83,
      "hit": false,
      "t": 392470.3919999987,
      "d": 529.4114999999874,
      "v": 77
    },
    {
      "midi": 88,
      "hit": false,
      "t": 392470.3919999987,
      "d": 529.4114999999874,
      "v": 85
    },
    {
      "midi": 91,
      "hit": false,
      "t": 392470.3919999987,
      "d": 529.4114999999874,
      "v": 93
    },
    {
      "midi": 84,
      "hit": false,
      "t": 392999.8034999987,
      "d": 88.23525000002701,
      "v": 80
    },
    {
      "midi": 89,
      "hit": false,
      "t": 392999.8034999987,
      "d": 88.23525000002701,
      "v": 83
    },
    {
      "midi": 93,
      "hit": false,
      "t": 392999.8034999987,
      "d": 88.23525000002701,
      "v": 87
    },
    {
      "midi": 83,
      "hit": false,
      "t": 393088.0387499987,
      "d": 88.23525000002701,
      "v": 76
    },
    {
      "midi": 88,
      "hit": false,
      "t": 393088.0387499987,
      "d": 88.23525000002701,
      "v": 79
    },
    {
      "midi": 91,
      "hit": false,
      "t": 393088.0387499987,
      "d": 88.23525000002701,
      "v": 87
    },
    {
      "midi": 80,
      "hit": false,
      "t": 393176.27399999875,
      "d": 352.9409999999916,
      "v": 88
    },
    {
      "midi": 83,
      "hit": false,
      "t": 393176.27399999875,
      "d": 352.9409999999916,
      "v": 78
    },
    {
      "midi": 88,
      "hit": false,
      "t": 393176.27399999875,
      "d": 352.9409999999916,
      "v": 85
    },
    {
      "midi": 84,
      "hit": false,
      "t": 396529.21349999873,
      "d": 176.4704999999958,
      "v": 71
    },
    {
      "midi": 88,
      "hit": false,
      "t": 396529.21349999873,
      "d": 176.4704999999958,
      "v": 73
    },
    {
      "midi": 93,
      "hit": false,
      "t": 396529.21349999873,
      "d": 176.4704999999958,
      "v": 83
    },
    {
      "midi": 84,
      "hit": false,
      "t": 396705.6839999987,
      "d": 705.8819999999832,
      "v": 73
    },
    {
      "midi": 88,
      "hit": false,
      "t": 396705.6839999987,
      "d": 705.8819999999832,
      "v": 80
    },
    {
      "midi": 93,
      "hit": false,
      "t": 396705.6839999987,
      "d": 705.8819999999832,
      "v": 87
    },
    {
      "midi": 81,
      "hit": false,
      "t": 397411.5659999987,
      "d": 176.4704999999958,
      "v": 64
    },
    {
      "midi": 86,
      "hit": false,
      "t": 397411.5659999987,
      "d": 176.4704999999958,
      "v": 77
    },
    {
      "midi": 90,
      "hit": false,
      "t": 397411.5659999987,
      "d": 176.4704999999958,
      "v": 93
    },
    {
      "midi": 84,
      "hit": false,
      "t": 397940.9774999987,
      "d": 176.4704999999958,
      "v": 63
    },
    {
      "midi": 88,
      "hit": false,
      "t": 397940.9774999987,
      "d": 176.4704999999958,
      "v": 71
    },
    {
      "midi": 93,
      "hit": false,
      "t": 397940.9774999987,
      "d": 176.4704999999958,
      "v": 78
    },
    {
      "midi": 84,
      "hit": false,
      "t": 398117.4479999987,
      "d": 529.4114999999874,
      "v": 72
    },
    {
      "midi": 88,
      "hit": false,
      "t": 398117.4479999987,
      "d": 529.4114999999874,
      "v": 77
    },
    {
      "midi": 93,
      "hit": false,
      "t": 398117.4479999987,
      "d": 529.4114999999874,
      "v": 87
    },
    {
      "midi": 86,
      "hit": false,
      "t": 398646.8594999987,
      "d": 88.23525000002701,
      "v": 80
    },
    {
      "midi": 89,
      "hit": false,
      "t": 398646.8594999987,
      "d": 88.23525000002701,
      "v": 70
    },
    {
      "midi": 94,
      "hit": false,
      "t": 398646.8594999987,
      "d": 88.23525000002701,
      "v": 89
    },
    {
      "midi": 84,
      "hit": false,
      "t": 398735.0947499987,
      "d": 88.23525000002701,
      "v": 83
    },
    {
      "midi": 88,
      "hit": false,
      "t": 398735.0947499987,
      "d": 88.23525000002701,
      "v": 66
    },
    {
      "midi": 93,
      "hit": false,
      "t": 398735.0947499987,
      "d": 88.23525000002701,
      "v": 80
    },
    {
      "midi": 81,
      "hit": false,
      "t": 398823.32999999874,
      "d": 352.9409999999916,
      "v": 72
    },
    {
      "midi": 86,
      "hit": false,
      "t": 398823.32999999874,
      "d": 352.9409999999916,
      "v": 79
    },
    {
      "midi": 90,
      "hit": false,
      "t": 398823.32999999874,
      "d": 352.9409999999916,
      "v": 94
    },
    {
      "midi": 89,
      "hit": false,
      "t": 402176.2694999987,
      "d": 176.4704999999958,
      "v": 80
    },
    {
      "midi": 93,
      "hit": false,
      "t": 402176.2694999987,
      "d": 176.4704999999958,
      "v": 77
    },
    {
      "midi": 96,
      "hit": false,
      "t": 402176.2694999987,
      "d": 176.4704999999958,
      "v": 87
    },
    {
      "midi": 89,
      "hit": false,
      "t": 402352.7399999987,
      "d": 705.8819999999832,
      "v": 80
    },
    {
      "midi": 93,
      "hit": false,
      "t": 402352.7399999987,
      "d": 705.8819999999832,
      "v": 81
    },
    {
      "midi": 96,
      "hit": false,
      "t": 402352.7399999987,
      "d": 705.8819999999832,
      "v": 91
    },
    {
      "midi": 84,
      "hit": false,
      "t": 403058.6219999987,
      "d": 176.4704999999958,
      "v": 79
    },
    {
      "midi": 89,
      "hit": false,
      "t": 403058.6219999987,
      "d": 176.4704999999958,
      "v": 78
    },
    {
      "midi": 93,
      "hit": false,
      "t": 403058.6219999987,
      "d": 176.4704999999958,
      "v": 85
    },
    {
      "midi": 89,
      "hit": false,
      "t": 403588.0334999987,
      "d": 176.4704999999958,
      "v": 73
    },
    {
      "midi": 93,
      "hit": false,
      "t": 403588.0334999987,
      "d": 176.4704999999958,
      "v": 76
    },
    {
      "midi": 96,
      "hit": false,
      "t": 403588.0334999987,
      "d": 176.4704999999958,
      "v": 88
    },
    {
      "midi": 88,
      "hit": false,
      "t": 403764.5039999987,
      "d": 352.9409999999916,
      "v": 86
    },
    {
      "midi": 81,
      "hit": false,
      "t": 403764.5039999987,
      "d": 1411.7639999999665,
      "v": 70
    },
    {
      "midi": 84,
      "hit": false,
      "t": 403764.5039999987,
      "d": 1411.7639999999665,
      "v": 80
    },
    {
      "midi": 89,
      "hit": false,
      "t": 404117.44499999867,
      "d": 352.9409999999916,
      "v": 90
    },
    {
      "midi": 88,
      "hit": false,
      "t": 404470.38599999866,
      "d": 352.9409999999916,
      "v": 80
    },
    {
      "midi": 89,
      "hit": false,
      "t": 404823.32699999865,
      "d": 352.9409999999916,
      "v": 87
    },
    {
      "midi": 90,
      "hit": false,
      "t": 407823.32549999864,
      "d": 176.4704999999958,
      "v": 87
    },
    {
      "midi": 94,
      "hit": false,
      "t": 407823.32549999864,
      "d": 176.4704999999958,
      "v": 87
    },
    {
      "midi": 97,
      "hit": false,
      "t": 407823.32549999864,
      "d": 176.4704999999958,
      "v": 95
    },
    {
      "midi": 90,
      "hit": false,
      "t": 407999.79599999863,
      "d": 705.8819999999832,
      "v": 91
    },
    {
      "midi": 94,
      "hit": false,
      "t": 407999.79599999863,
      "d": 705.8819999999832,
      "v": 89
    },
    {
      "midi": 97,
      "hit": false,
      "t": 407999.79599999863,
      "d": 705.8819999999832,
      "v": 94
    },
    {
      "midi": 85,
      "hit": false,
      "t": 408705.6779999986,
      "d": 176.4704999999958,
      "v": 88
    },
    {
      "midi": 90,
      "hit": false,
      "t": 408705.6779999986,
      "d": 176.4704999999958,
      "v": 93
    },
    {
      "midi": 94,
      "hit": false,
      "t": 408705.6779999986,
      "d": 176.4704999999958,
      "v": 96
    },
    {
      "midi": 90,
      "hit": false,
      "t": 409235.0894999986,
      "d": 176.4704999999958,
      "v": 86
    },
    {
      "midi": 94,
      "hit": false,
      "t": 409235.0894999986,
      "d": 176.4704999999958,
      "v": 85
    },
    {
      "midi": 97,
      "hit": false,
      "t": 409235.0894999986,
      "d": 176.4704999999958,
      "v": 94
    },
    {
      "midi": 84,
      "hit": false,
      "t": 409411.5599999986,
      "d": 352.9409999999916,
      "v": 90
    },
    {
      "midi": 85,
      "hit": false,
      "t": 409764.5009999986,
      "d": 352.9409999999916,
      "v": 96
    },
    {
      "midi": 84,
      "hit": false,
      "t": 410117.4419999986,
      "d": 352.9409999999916,
      "v": 90
    },
    {
      "midi": 78,
      "hit": false,
      "t": 410117.4419999986,
      "d": 705.8819999999832,
      "v": 78
    },
    {
      "midi": 82,
      "hit": false,
      "t": 410117.4419999986,
      "d": 705.8819999999832,
      "v": 82
    },
    {
      "midi": 85,
      "hit": false,
      "t": 410470.3829999986,
      "d": 352.9409999999916,
      "v": 99
    },
    {
      "midi": 89,
      "hit": false,
      "t": 413470.38149999856,
      "d": 176.4704999999958,
      "v": 80
    },
    {
      "midi": 92,
      "hit": false,
      "t": 413470.38149999856,
      "d": 176.4704999999958,
      "v": 88
    },
    {
      "midi": 97,
      "hit": false,
      "t": 413470.38149999856,
      "d": 176.4704999999958,
      "v": 96
    },
    {
      "midi": 89,
      "hit": false,
      "t": 413646.85199999856,
      "d": 705.8819999999832,
      "v": 77
    },
    {
      "midi": 92,
      "hit": false,
      "t": 413646.85199999856,
      "d": 705.8819999999832,
      "v": 87
    },
    {
      "midi": 97,
      "hit": false,
      "t": 413646.85199999856,
      "d": 705.8819999999832,
      "v": 95
    },
    {
      "midi": 89,
      "hit": false,
      "t": 414352.73399999854,
      "d": 176.4704999999958,
      "v": 78
    },
    {
      "midi": 92,
      "hit": false,
      "t": 414352.73399999854,
      "d": 176.4704999999958,
      "v": 87
    },
    {
      "midi": 96,
      "hit": false,
      "t": 414352.73399999854,
      "d": 176.4704999999958,
      "v": 90
    },
    {
      "midi": 77,
      "hit": false,
      "t": 414882.1454999985,
      "d": 176.4704999999958,
      "v": 75
    },
    {
      "midi": 82,
      "hit": false,
      "t": 414882.1454999985,
      "d": 176.4704999999958,
      "v": 85
    },
    {
      "midi": 84,
      "hit": false,
      "t": 414882.1454999985,
      "d": 176.4704999999958,
      "v": 88
    },
    {
      "midi": 77,
      "hit": false,
      "t": 415058.6159999985,
      "d": 705.8819999999832,
      "v": 77
    },
    {
      "midi": 82,
      "hit": false,
      "t": 415058.6159999985,
      "d": 705.8819999999832,
      "v": 89
    },
    {
      "midi": 84,
      "hit": false,
      "t": 415058.6159999985,
      "d": 705.8819999999832,
      "v": 92
    },
    {
      "midi": 95,
      "hit": false,
      "t": 415764.4979999985,
      "d": 352.9409999999916,
      "v": 86
    },
    {
      "midi": 77,
      "hit": false,
      "t": 415764.4979999985,
      "d": 705.8819999999832,
      "v": 74
    },
    {
      "midi": 80,
      "hit": false,
      "t": 415764.4979999985,
      "d": 705.8819999999832,
      "v": 85
    },
    {
      "midi": 96,
      "hit": false,
      "t": 416117.4389999985,
      "d": 352.9409999999916,
      "v": 80
    },
    {
      "midi": 78,
      "hit": false,
      "t": 477867.40812499827,
      "d": 279.4116250000079,
      "v": 88
    },
    {
      "midi": 79,
      "hit": false,
      "t": 478227.70206249825,
      "d": 286.76456250000047,
      "v": 78
    },
    {
      "midi": 91,
      "hit": false,
      "t": 478617.40774999827,
      "d": 227.94106250000186,
      "v": 86
    },
    {
      "midi": 87,
      "hit": false,
      "t": 478617.40774999827,
      "d": 242.64693749998696,
      "v": 83
    },
    {
      "midi": 89,
      "hit": false,
      "t": 478970.34874999826,
      "d": 220.5881250000093,
      "v": 84
    },
    {
      "midi": 86,
      "hit": false,
      "t": 478977.70168749825,
      "d": 257.35281250003027,
      "v": 75
    },
    {
      "midi": 87,
      "hit": false,
      "t": 479315.93681249826,
      "d": 161.7646250000107,
      "v": 80
    },
    {
      "midi": 84,
      "hit": false,
      "t": 479315.93681249826,
      "d": 249.99987500003772,
      "v": 71
    },
    {
      "midi": 86,
      "hit": false,
      "t": 479815.9365624983,
      "d": 110.29406250000466,
      "v": 86
    },
    {
      "midi": 82,
      "hit": false,
      "t": 479823.28949999827,
      "d": 110.29406250000466,
      "v": 77
    },
    {
      "midi": 84,
      "hit": false,
      "t": 479992.40706249827,
      "d": 183.82343749998836,
      "v": 83
    },
    {
      "midi": 81,
      "hit": false,
      "t": 479999.75999999826,
      "d": 198.52931249997346,
      "v": 71
    },
    {
      "midi": 82,
      "hit": false,
      "t": 480323.2892499982,
      "d": 227.94106250000186,
      "v": 87
    },
    {
      "midi": 79,
      "hit": false,
      "t": 480337.9951249982,
      "d": 227.94106250000186,
      "v": 73
    },
    {
      "midi": 81,
      "hit": false,
      "t": 480661.52437499823,
      "d": 147.0587499999674,
      "v": 82
    },
    {
      "midi": 77,
      "hit": false,
      "t": 480668.8773124982,
      "d": 176.4704999999958,
      "v": 70
    },
    {
      "midi": 75,
      "hit": false,
      "t": 481190.9358749982,
      "d": 95.58818750001956,
      "v": 72
    },
    {
      "midi": 79,
      "hit": false,
      "t": 481190.9358749982,
      "d": 124.99993750004796,
      "v": 78
    },
    {
      "midi": 86,
      "hit": false,
      "t": 481374.75931249827,
      "d": 1742.6461874999804,
      "v": 93
    },
    {
      "midi": 74,
      "hit": false,
      "t": 481382.11224999826,
      "d": 1757.3520624999655,
      "v": 77
    }
  ]
}