{
  "jsonPath": "Unknown/Unknown/Mark Masri feat Jim Brickman/christmas-is-karaoke-version.json",
  "path": "Unknown\\Unknown\\Mark Masri feat Jim Brickman\\Christmas Is (Karaoke Version).mid",
  "name": "Christmas Is (Karaoke Version)",
  "difficulty": "Advanced",
  "bpm": 120,
  "notes": [
    {
      "midi": 59,
      "hit": false,
      "t": 2566.6666666666665,
      "d": 416.6666666666665,
      "v": 92
    },
    {
      "midi": 60,
      "hit": false,
      "t": 2866.6666666666665,
      "d": 300,
      "v": 87
    },
    {
      "midi": 62,
      "hit": false,
      "t": 3183.333333333333,
      "d": 333.33333333333303,
      "v": 70
    },
    {
      "midi": 45,
      "hit": false,
      "t": 3499.9999999999995,
      "d": 3466.6666666666656,
      "v": 82
    },
    {
      "midi": 52,
      "hit": false,
      "t": 3783.3333333333326,
      "d": 3099.9999999999995,
      "v": 58
    },
    {
      "midi": 55,
      "hit": false,
      "t": 4116.666666666666,
      "d": 350,
      "v": 68
    },
    {
      "midi": 57,
      "hit": false,
      "t": 4433.333333333333,
      "d": 300,
      "v": 95
    },
    {
      "midi": 60,
      "hit": false,
      "t": 4766.666666666666,
      "d": 116.66666666666697,
      "v": 60
    },
    {
      "midi": 64,
      "hit": false,
      "t": 5050,
      "d": 366.66666666666606,
      "v": 68
    },
    {
      "midi": 67,
      "hit": false,
      "t": 5383.333333333333,
      "d": 266.66666666666606,
      "v": 87
    },
    {
      "midi": 69,
      "hit": false,
      "t": 5683.333333333332,
      "d": 100,
      "v": 70
    },
    {
      "midi": 72,
      "hit": false,
      "t": 5983.333333333332,
      "d": 350,
      "v": 33
    },
    {
      "midi": 79,
      "hit": false,
      "t": 6349.999999999999,
      "d": 100,
      "v": 79
    },
    {
      "midi": 43,
      "hit": false,
      "t": 8249.999999999998,
      "d": 3133.333333333332,
      "v": 95
    },
    {
      "midi": 50,
      "hit": false,
      "t": 8533.33333333333,
      "d": 2866.666666666666,
      "v": 68
    },
    {
      "midi": 55,
      "hit": false,
      "t": 8849.999999999996,
      "d": 2400,
      "v": 67
    },
    {
      "midi": 57,
      "hit": false,
      "t": 9166.666666666662,
      "d": 433.33333333333394,
      "v": 77
    },
    {
      "midi": 59,
      "hit": false,
      "t": 9499.999999999996,
      "d": 366.66666666666606,
      "v": 65
    },
    {
      "midi": 62,
      "hit": false,
      "t": 9816.666666666662,
      "d": 250,
      "v": 65
    },
    {
      "midi": 57,
      "hit": false,
      "t": 10766.666666666662,
      "d": 433.33333333333394,
      "v": 63
    },
    {
      "midi": 59,
      "hit": false,
      "t": 11099.999999999996,
      "d": 300,
      "v": 84
    },
    {
      "midi": 62,
      "hit": false,
      "t": 11399.999999999996,
      "d": 66.66666666666606,
      "v": 60
    },
    {
      "midi": 67,
      "hit": false,
      "t": 11716.666666666662,
      "d": 266.66666666666606,
      "v": 70
    },
    {
      "midi": 40,
      "hit": false,
      "t": 12049.999999999995,
      "d": 3133.333333333332,
      "v": 65
    },
    {
      "midi": 66,
      "hit": false,
      "t": 12083.333333333327,
      "d": 300,
      "v": 84
    },
    {
      "midi": 47,
      "hit": false,
      "t": 12366.66666666666,
      "d": 1916.666666666666,
      "v": 57
    },
    {
      "midi": 52,
      "hit": false,
      "t": 12699.999999999993,
      "d": 1583.333333333334,
      "v": 67
    },
    {
      "midi": 67,
      "hit": false,
      "t": 12716.666666666659,
      "d": 300,
      "v": 70
    },
    {
      "midi": 62,
      "hit": false,
      "t": 13316.666666666659,
      "d": 233.33333333333394,
      "v": 64
    },
    {
      "midi": 57,
      "hit": false,
      "t": 13649.999999999993,
      "d": 300,
      "v": 58
    },
    {
      "midi": 59,
      "hit": false,
      "t": 13983.333333333327,
      "d": 100,
      "v": 73
    },
    {
      "midi": 55,
      "hit": false,
      "t": 14983.333333333327,
      "d": 233.33333333333394,
      "v": 84
    },
    {
      "midi": 54,
      "hit": false,
      "t": 15283.333333333327,
      "d": 83.33333333333394,
      "v": 54
    },
    {
      "midi": 60,
      "hit": false,
      "t": 15916.66666666666,
      "d": 333.3333333333321,
      "v": 77
    },
    {
      "midi": 55,
      "hit": false,
      "t": 15933.333333333327,
      "d": 283.33333333333394,
      "v": 73
    },
    {
      "midi": 45,
      "hit": false,
      "t": 15933.333333333327,
      "d": 3066.6666666666697,
      "v": 89
    },
    {
      "midi": 52,
      "hit": false,
      "t": 16233.333333333327,
      "d": 2716.6666666666697,
      "v": 60
    },
    {
      "midi": 57,
      "hit": false,
      "t": 16549.999999999993,
      "d": 450,
      "v": 45
    },
    {
      "midi": 57,
      "hit": false,
      "t": 17199.999999999993,
      "d": 116.66666666666788,
      "v": 9
    },
    {
      "midi": 59,
      "hit": false,
      "t": 17483.33333333333,
      "d": 266.6666666666679,
      "v": 73
    },
    {
      "midi": 60,
      "hit": false,
      "t": 17816.666666666664,
      "d": 83.33333333333212,
      "v": 75
    },
    {
      "midi": 57,
      "hit": false,
      "t": 18399.999999999996,
      "d": 450,
      "v": 1
    },
    {
      "midi": 60,
      "hit": false,
      "t": 18449.999999999996,
      "d": 133.33333333333212,
      "v": 58
    },
    {
      "midi": 60,
      "hit": false,
      "t": 18783.33333333333,
      "d": 283.33333333333576,
      "v": 77
    },
    {
      "midi": 67,
      "hit": false,
      "t": 18783.33333333333,
      "d": 316.6666666666679,
      "v": 92
    },
    {
      "midi": 64,
      "hit": false,
      "t": 19099.999999999996,
      "d": 183.33333333333212,
      "v": 37
    },
    {
      "midi": 60,
      "hit": false,
      "t": 19433.33333333333,
      "d": 133.33333333333212,
      "v": 41
    },
    {
      "midi": 38,
      "hit": false,
      "t": 19733.33333333333,
      "d": 116.66666666666788,
      "v": 72
    },
    {
      "midi": 64,
      "hit": false,
      "t": 19749.999999999996,
      "d": 950,
      "v": 79
    },
    {
      "midi": 67,
      "hit": false,
      "t": 19749.999999999996,
      "d": 966.6666666666679,
      "v": 75
    },
    {
      "midi": 60,
      "hit": false,
      "t": 19749.999999999996,
      "d": 983.3333333333358,
      "v": 82
    },
    {
      "midi": 50,
      "hit": false,
      "t": 20316.666666666664,
      "d": 816.6666666666679,
      "v": 38
    },
    {
      "midi": 57,
      "hit": false,
      "t": 20716.666666666664,
      "d": 483.33333333333576,
      "v": 61
    },
    {
      "midi": 67,
      "hit": false,
      "t": 21016.666666666664,
      "d": 300.00000000000364,
      "v": 75
    },
    {
      "midi": 60,
      "hit": false,
      "t": 21016.666666666664,
      "d": 1700.0000000000036,
      "v": 77
    },
    {
      "midi": 64,
      "hit": false,
      "t": 21366.666666666668,
      "d": 216.66666666666788,
      "v": 72
    },
    {
      "midi": 50,
      "hit": false,
      "t": 21633.333333333336,
      "d": 1216.6666666666642,
      "v": 58
    },
    {
      "midi": 66,
      "hit": false,
      "t": 21666.666666666668,
      "d": 1166.6666666666642,
      "v": 76
    },
    {
      "midi": 57,
      "hit": false,
      "t": 22666.666666666668,
      "d": 133.33333333333212,
      "v": 75
    },
    {
      "midi": 60,
      "hit": false,
      "t": 22966.666666666668,
      "d": 666.6666666666679,
      "v": 27
    },
    {
      "midi": 43,
      "hit": false,
      "t": 23616.666666666668,
      "d": 3150.0000000000036,
      "v": 98
    },
    {
      "midi": 50,
      "hit": false,
      "t": 23933.333333333336,
      "d": 2783.3333333333358,
      "v": 67
    },
    {
      "midi": 55,
      "hit": false,
      "t": 24250.000000000004,
      "d": 2450,
      "v": 37
    },
    {
      "midi": 57,
      "hit": false,
      "t": 24583.333333333336,
      "d": 400,
      "v": 65
    },
    {
      "midi": 59,
      "hit": false,
      "t": 24866.666666666668,
      "d": 266.6666666666679,
      "v": 61
    },
    {
      "midi": 62,
      "hit": false,
      "t": 25183.333333333336,
      "d": 66.66666666666788,
      "v": 48
    },
    {
      "midi": 67,
      "hit": false,
      "t": 25516.66666666667,
      "d": 616.6666666666679,
      "v": 92
    },
    {
      "midi": 59,
      "hit": false,
      "t": 25516.66666666667,
      "d": 1050,
      "v": 64
    },
    {
      "midi": 66,
      "hit": false,
      "t": 26166.66666666667,
      "d": 300,
      "v": 66
    },
    {
      "midi": 62,
      "hit": false,
      "t": 26800.000000000004,
      "d": 283.3333333333321,
      "v": 63
    },
    {
      "midi": 57,
      "hit": false,
      "t": 27116.666666666668,
      "d": 216.66666666666788,
      "v": 64
    },
    {
      "midi": 57,
      "hit": false,
      "t": 27450.000000000004,
      "d": 200,
      "v": 75
    },
    {
      "midi": 62,
      "hit": false,
      "t": 27450.000000000004,
      "d": 250,
      "v": 75
    },
    {
      "midi": 47,
      "hit": false,
      "t": 27450.000000000004,
      "d": 3283.3333333333394,
      "v": 77
    },
    {
      "midi": 54,
      "hit": false,
      "t": 27766.66666666667,
      "d": 2900.0000000000036,
      "v": 70
    },
    {
      "midi": 59,
      "hit": false,
      "t": 28100.000000000004,
      "d": 400,
      "v": 51
    },
    {
      "midi": 57,
      "hit": false,
      "t": 28400.000000000004,
      "d": 1750.0000000000036,
      "v": 53
    },
    {
      "midi": 59,
      "hit": false,
      "t": 28716.66666666667,
      "d": 200,
      "v": 31
    },
    {
      "midi": 69,
      "hit": false,
      "t": 29383.33333333334,
      "d": 600,
      "v": 70
    },
    {
      "midi": 59,
      "hit": false,
      "t": 29400.000000000007,
      "d": 583.3333333333321,
      "v": 75
    },
    {
      "midi": 57,
      "hit": false,
      "t": 30400.000000000007,
      "d": 183.33333333333212,
      "v": 46
    },
    {
      "midi": 67,
      "hit": false,
      "t": 30650.000000000007,
      "d": 233.33333333333576,
      "v": 84
    },
    {
      "midi": 59,
      "hit": false,
      "t": 30650.000000000007,
      "d": 416.6666666666679,
      "v": 63
    },
    {
      "midi": 66,
      "hit": false,
      "t": 30933.333333333343,
      "d": 183.33333333333212,
      "v": 68
    },
    {
      "midi": 36,
      "hit": false,
      "t": 31250.000000000007,
      "d": 133.33333333333212,
      "v": 55
    },
    {
      "midi": 62,
      "hit": false,
      "t": 31283.33333333334,
      "d": 1033.3333333333358,
      "v": 65
    },
    {
      "midi": 67,
      "hit": false,
      "t": 31283.33333333334,
      "d": 1083.3333333333358,
      "v": 92
    },
    {
      "midi": 48,
      "hit": false,
      "t": 31883.33333333334,
      "d": 2449.999999999989,
      "v": 51
    },
    {
      "midi": 55,
      "hit": false,
      "t": 32250.000000000007,
      "d": 1983.3333333333212,
      "v": 72
    },
    {
      "midi": 57,
      "hit": false,
      "t": 32533.333333333343,
      "d": 1683.3333333333212,
      "v": 73
    },
    {
      "midi": 62,
      "hit": false,
      "t": 32850.00000000001,
      "d": 316.66666666666424,
      "v": 60
    },
    {
      "midi": 64,
      "hit": false,
      "t": 33216.66666666667,
      "d": 633.3333333333285,
      "v": 77
    },
    {
      "midi": 62,
      "hit": false,
      "t": 33233.333333333336,
      "d": 700,
      "v": 10
    },
    {
      "midi": 62,
      "hit": false,
      "t": 34183.333333333336,
      "d": 283.3333333333285,
      "v": 60
    },
    {
      "midi": 67,
      "hit": false,
      "t": 34200,
      "d": 233.33333333332848,
      "v": 75
    },
    {
      "midi": 38,
      "hit": false,
      "t": 35116.666666666664,
      "d": 133.33333333333576,
      "v": 65
    },
    {
      "midi": 64,
      "hit": false,
      "t": 35150,
      "d": 950,
      "v": 79
    },
    {
      "midi": 67,
      "hit": false,
      "t": 35150,
      "d": 1016.6666666666642,
      "v": 84
    },
    {
      "midi": 60,
      "hit": false,
      "t": 35150,
      "d": 1033.3333333333285,
      "v": 79
    },
    {
      "midi": 50,
      "hit": false,
      "t": 35650,
      "d": 1149.9999999999927,
      "v": 68
    },
    {
      "midi": 54,
      "hit": false,
      "t": 36116.666666666664,
      "d": 716.6666666666642,
      "v": 74
    },
    {
      "midi": 57,
      "hit": false,
      "t": 36433.33333333333,
      "d": 400,
      "v": 70
    },
    {
      "midi": 60,
      "hit": false,
      "t": 36749.99999999999,
      "d": 216.66666666667152,
      "v": 68
    },
    {
      "midi": 66,
      "hit": false,
      "t": 37083.33333333333,
      "d": 333.3333333333285,
      "v": 72
    },
    {
      "midi": 69,
      "hit": false,
      "t": 37083.33333333333,
      "d": 333.3333333333285,
      "v": 84
    },
    {
      "midi": 60,
      "hit": false,
      "t": 37083.33333333333,
      "d": 383.3333333333285,
      "v": 79
    },
    {
      "midi": 54,
      "hit": false,
      "t": 37083.33333333333,
      "d": 516.6666666666642,
      "v": 70
    },
    {
      "midi": 57,
      "hit": false,
      "t": 37083.33333333333,
      "d": 550,
      "v": 63
    },
    {
      "midi": 50,
      "hit": false,
      "t": 37099.99999999999,
      "d": 633.3333333333358,
      "v": 24
    },
    {
      "midi": 43,
      "hit": false,
      "t": 39016.66666666666,
      "d": 3133.333333333321,
      "v": 95
    },
    {
      "midi": 50,
      "hit": false,
      "t": 39299.999999999985,
      "d": 2849.9999999999927,
      "v": 68
    },
    {
      "midi": 55,
      "hit": false,
      "t": 39616.66666666665,
      "d": 2399.9999999999927,
      "v": 67
    },
    {
      "midi": 57,
      "hit": false,
      "t": 39933.333333333314,
      "d": 433.3333333333285,
      "v": 77
    },
    {
      "midi": 59,
      "hit": false,
      "t": 40249.99999999998,
      "d": 383.3333333333285,
      "v": 65
    },
    {
      "midi": 62,
      "hit": false,
      "t": 40583.33333333331,
      "d": 250,
      "v": 65
    },
    {
      "midi": 57,
      "hit": false,
      "t": 41516.66666666664,
      "d": 450,
      "v": 63
    },
    {
      "midi": 59,
      "hit": false,
      "t": 41849.99999999998,
      "d": 316.66666666666424,
      "v": 84
    },
    {
      "midi": 62,
      "hit": false,
      "t": 42166.66666666664,
      "d": 66.66666666666424,
      "v": 60
    },
    {
      "midi": 67,
      "hit": false,
      "t": 42483.33333333331,
      "d": 250,
      "v": 70
    },
    {
      "midi": 40,
      "hit": false,
      "t": 42816.66666666664,
      "d": 3133.3333333333285,
      "v": 65
    },
    {
      "midi": 66,
      "hit": false,
      "t": 42849.99999999997,
      "d": 300,
      "v": 84
    },
    {
      "midi": 47,
      "hit": false,
      "t": 43133.33333333331,
      "d": 1900,
      "v": 57
    },
    {
      "midi": 52,
      "hit": false,
      "t": 43466.666666666635,
      "d": 1583.3333333333358,
      "v": 67
    },
    {
      "midi": 67,
      "hit": false,
      "t": 43483.3333333333,
      "d": 300,
      "v": 70
    },
    {
      "midi": 62,
      "hit": false,
      "t": 44083.3333333333,
      "d": 233.33333333333576,
      "v": 64
    },
    {
      "midi": 57,
      "hit": false,
      "t": 44399.99999999997,
      "d": 316.66666666666424,
      "v": 58
    },
    {
      "midi": 59,
      "hit": false,
      "t": 44749.99999999997,
      "d": 83.33333333333576,
      "v": 73
    },
    {
      "midi": 55,
      "hit": false,
      "t": 45749.99999999997,
      "d": 233.33333333333576,
      "v": 84
    },
    {
      "midi": 54,
      "hit": false,
      "t": 46049.99999999997,
      "d": 83.33333333333576,
      "v": 54
    },
    {
      "midi": 60,
      "hit": false,
      "t": 46666.66666666664,
      "d": 349.9999999999927,
      "v": 77
    },
    {
      "midi": 55,
      "hit": false,
      "t": 46683.33333333331,
      "d": 300,
      "v": 73
    },
    {
      "midi": 45,
      "hit": false,
      "t": 46683.33333333331,
      "d": 3066.6666666666642,
      "v": 89
    },
    {
      "midi": 52,
      "hit": false,
      "t": 46999.99999999997,
      "d": 2716.6666666666642,
      "v": 60
    },
    {
      "midi": 57,
      "hit": false,
      "t": 47316.666666666635,
      "d": 450,
      "v": 45
    },
    {
      "midi": 57,
      "hit": false,
      "t": 47949.99999999997,
      "d": 116.66666666666424,
      "v": 9
    },
    {
      "midi": 59,
      "hit": false,
      "t": 48249.99999999997,
      "d": 266.66666666666424,
      "v": 73
    },
    {
      "midi": 60,
      "hit": false,
      "t": 48583.3333333333,
      "d": 83.33333333333576,
      "v": 75
    },
    {
      "midi": 57,
      "hit": false,
      "t": 49149.99999999997,
      "d": 466.66666666666424,
      "v": 1
    },
    {
      "midi": 60,
      "hit": false,
      "t": 49216.666666666635,
      "d": 133.33333333333576,
      "v": 58
    },
    {
      "midi": 60,
      "hit": false,
      "t": 49549.99999999997,
      "d": 283.33333333333576,
      "v": 77
    },
    {
      "midi": 67,
      "hit": false,
      "t": 49549.99999999997,
      "d": 316.6666666666715,
      "v": 92
    },
    {
      "midi": 64,
      "hit": false,
      "t": 49866.66666666664,
      "d": 183.33333333333576,
      "v": 37
    },
    {
      "midi": 60,
      "hit": false,
      "t": 50199.99999999998,
      "d": 133.33333333333576,
      "v": 41
    },
    {
      "midi": 38,
      "hit": false,
      "t": 50499.999999999985,
      "d": 99.99999999999272,
      "v": 72
    },
    {
      "midi": 64,
      "hit": false,
      "t": 50516.66666666665,
      "d": 950,
      "v": 79
    },
    {
      "midi": 67,
      "hit": false,
      "t": 50516.66666666665,
      "d": 966.6666666666642,
      "v": 75
    },
    {
      "midi": 60,
      "hit": false,
      "t": 50516.66666666665,
      "d": 983.3333333333285,
      "v": 82
    },
    {
      "midi": 50,
      "hit": false,
      "t": 51083.333333333314,
      "d": 816.6666666666642,
      "v": 38
    },
    {
      "midi": 57,
      "hit": false,
      "t": 51483.333333333314,
      "d": 483.3333333333285,
      "v": 61
    },
    {
      "midi": 67,
      "hit": false,
      "t": 51783.333333333314,
      "d": 283.3333333333285,
      "v": 75
    },
    {
      "midi": 60,
      "hit": false,
      "t": 51783.333333333314,
      "d": 1699.9999999999927,
      "v": 77
    },
    {
      "midi": 64,
      "hit": false,
      "t": 52133.33333333331,
      "d": 216.66666666666424,
      "v": 72
    },
    {
      "midi": 50,
      "hit": false,
      "t": 52399.99999999997,
      "d": 1216.6666666666715,
      "v": 58
    },
    {
      "midi": 66,
      "hit": false,
      "t": 52433.33333333331,
      "d": 1166.6666666666715,
      "v": 76
    },
    {
      "midi": 57,
      "hit": false,
      "t": 53433.33333333331,
      "d": 133.33333333333576,
      "v": 75
    },
    {
      "midi": 60,
      "hit": false,
      "t": 53716.66666666664,
      "d": 683.3333333333285,
      "v": 27
    },
    {
      "midi": 43,
      "hit": false,
      "t": 54383.33333333331,
      "d": 3149.9999999999854,
      "v": 98
    },
    {
      "midi": 50,
      "hit": false,
      "t": 54699.99999999997,
      "d": 2783.333333333321,
      "v": 67
    },
    {
      "midi": 55,
      "hit": false,
      "t": 55016.666666666635,
      "d": 2449.9999999999927,
      "v": 37
    },
    {
      "midi": 57,
      "hit": false,
      "t": 55333.3333333333,
      "d": 416.66666666666424,
      "v": 65
    },
    {
      "midi": 59,
      "hit": false,
      "t": 55633.3333333333,
      "d": 266.66666666666424,
      "v": 61
    },
    {
      "midi": 62,
      "hit": false,
      "t": 55949.99999999996,
      "d": 66.66666666666424,
      "v": 48
    },
    {
      "midi": 67,
      "hit": false,
      "t": 56283.33333333329,
      "d": 616.6666666666642,
      "v": 92
    },
    {
      "midi": 59,
      "hit": false,
      "t": 56283.33333333329,
      "d": 1050,
      "v": 64
    },
    {
      "midi": 66,
      "hit": false,
      "t": 56933.33333333329,
      "d": 300,
      "v": 66
    },
    {
      "midi": 62,
      "hit": false,
      "t": 57566.66666666663,
      "d": 266.66666666666424,
      "v": 63
    },
    {
      "midi": 57,
      "hit": false,
      "t": 57866.66666666663,
      "d": 216.66666666666424,
      "v": 64
    },
    {
      "midi": 57,
      "hit": false,
      "t": 58216.66666666663,
      "d": 200,
      "v": 75
    },
    {
      "midi": 62,
      "hit": false,
      "t": 58216.66666666663,
      "d": 233.33333333333576,
      "v": 75
    },
    {
      "midi": 47,
      "hit": false,
      "t": 58216.66666666663,
      "d": 3283.3333333333285,
      "v": 77
    },
    {
      "midi": 54,
      "hit": false,
      "t": 58533.3333333333,
      "d": 2899.9999999999927,
      "v": 70
    },
    {
      "midi": 59,
      "hit": false,
      "t": 58849.99999999996,
      "d": 416.66666666666424,
      "v": 51
    },
    {
      "midi": 57,
      "hit": false,
      "t": 59166.66666666663,
      "d": 1750,
      "v": 53
    },
    {
      "midi": 59,
      "hit": false,
      "t": 59483.33333333329,
      "d": 200,
      "v": 31
    },
    {
      "midi": 69,
      "hit": false,
      "t": 60133.33333333329,
      "d": 600,
      "v": 70
    },
    {
      "midi": 59,
      "hit": false,
      "t": 60149.999999999956,
      "d": 583.3333333333358,
      "v": 75
    },
    {
      "midi": 57,
      "hit": false,
      "t": 61149.99999999996,
      "d": 200,
      "v": 46
    },
    {
      "midi": 67,
      "hit": false,
      "t": 61416.66666666663,
      "d": 233.33333333332848,
      "v": 84
    },
    {
      "midi": 59,
      "hit": false,
      "t": 61416.66666666663,
      "d": 399.9999999999927,
      "v": 63
    },
    {
      "midi": 66,
      "hit": false,
      "t": 61699.999999999956,
      "d": 183.33333333332848,
      "v": 68
    },
    {
      "midi": 67,
      "hit": false,
      "t": 62033.333333333285,
      "d": 950,
      "v": 101
    },
    {
      "midi": 45,
      "hit": false,
      "t": 62033.333333333285,
      "d": 3266.666666666657,
      "v": 89
    },
    {
      "midi": 57,
      "hit": false,
      "t": 62049.99999999995,
      "d": 900,
      "v": 84
    },
    {
      "midi": 60,
      "hit": false,
      "t": 63616.66666666662,
      "d": 100,
      "v": 79
    },
    {
      "midi": 55,
      "hit": false,
      "t": 63649.999999999956,
      "d": 83.33333333332848,
      "v": 48
    },
    {
      "midi": 52,
      "hit": false,
      "t": 63816.66666666662,
      "d": 816.666666666657,
      "v": 1
    },
    {
      "midi": 60,
      "hit": false,
      "t": 63916.66666666662,
      "d": 233.33333333332848,
      "v": 84
    },
    {
      "midi": 55,
      "hit": false,
      "t": 63933.333333333285,
      "d": 216.66666666666424,
      "v": 73
    },
    {
      "midi": 55,
      "hit": false,
      "t": 64616.66666666661,
      "d": 333.3333333333285,
      "v": 49
    },
    {
      "midi": 52,
      "hit": false,
      "t": 64949.99999999994,
      "d": 183.33333333333576,
      "v": 75
    },
    {
      "midi": 55,
      "hit": false,
      "t": 65183.33333333328,
      "d": 183.33333333333576,
      "v": 63
    },
    {
      "midi": 60,
      "hit": false,
      "t": 65199.99999999994,
      "d": 133.33333333333576,
      "v": 77
    },
    {
      "midi": 55,
      "hit": false,
      "t": 65849.99999999994,
      "d": 666.6666666666715,
      "v": 87
    },
    {
      "midi": 60,
      "hit": false,
      "t": 65849.99999999994,
      "d": 683.333333333343,
      "v": 82
    },
    {
      "midi": 64,
      "hit": false,
      "t": 65849.99999999994,
      "d": 766.6666666666715,
      "v": 89
    },
    {
      "midi": 50,
      "hit": false,
      "t": 65866.66666666661,
      "d": 1566.6666666666715,
      "v": 75
    },
    {
      "midi": 64,
      "hit": false,
      "t": 67133.33333333328,
      "d": 250,
      "v": 89
    },
    {
      "midi": 60,
      "hit": false,
      "t": 67133.33333333328,
      "d": 566.6666666666715,
      "v": 73
    },
    {
      "midi": 67,
      "hit": false,
      "t": 67449.99999999996,
      "d": 266.6666666666715,
      "v": 95
    },
    {
      "midi": 66,
      "hit": false,
      "t": 67766.66666666663,
      "d": 133.33333333332848,
      "v": 103
    },
    {
      "midi": 50,
      "hit": false,
      "t": 67766.66666666663,
      "d": 1550,
      "v": 77
    },
    {
      "midi": 60,
      "hit": false,
      "t": 67799.99999999996,
      "d": 16.666666666671517,
      "v": 38
    },
    {
      "midi": 64,
      "hit": false,
      "t": 68433.33333333328,
      "d": 150,
      "v": 89
    },
    {
      "midi": 60,
      "hit": false,
      "t": 68433.33333333328,
      "d": 166.66666666667152,
      "v": 61
    },
    {
      "midi": 62,
      "hit": false,
      "t": 69083.33333333328,
      "d": 116.66666666667152,
      "v": 72
    },
    {
      "midi": 67,
      "hit": false,
      "t": 69699.99999999997,
      "d": 50,
      "v": 84
    },
    {
      "midi": 74,
      "hit": false,
      "t": 69699.99999999997,
      "d": 83.33333333332848,
      "v": 75
    },
    {
      "midi": 55,
      "hit": false,
      "t": 69699.99999999997,
      "d": 2300,
      "v": 87
    },
    {
      "midi": 69,
      "hit": false,
      "t": 70033.3333333333,
      "d": 183.33333333332848,
      "v": 70
    },
    {
      "midi": 71,
      "hit": false,
      "t": 70366.66666666663,
      "d": 200,
      "v": 75
    },
    {
      "midi": 67,
      "hit": false,
      "t": 71283.3333333333,
      "d": 100,
      "v": 75
    },
    {
      "midi": 62,
      "hit": false,
      "t": 71283.3333333333,
      "d": 116.66666666667152,
      "v": 51
    },
    {
      "midi": 57,
      "hit": false,
      "t": 71949.99999999997,
      "d": 300,
      "v": 92
    },
    {
      "midi": 62,
      "hit": false,
      "t": 71949.99999999997,
      "d": 899.9999999999854,
      "v": 87
    },
    {
      "midi": 59,
      "hit": false,
      "t": 72283.3333333333,
      "d": 533.3333333333285,
      "v": 46
    },
    {
      "midi": 57,
      "hit": false,
      "t": 72883.33333333328,
      "d": 133.33333333332848,
      "v": 31
    },
    {
      "midi": 62,
      "hit": false,
      "t": 72916.66666666661,
      "d": 83.33333333332848,
      "v": 11
    },
    {
      "midi": 62,
      "hit": false,
      "t": 73533.33333333328,
      "d": 266.6666666666715,
      "v": 63
    },
    {
      "midi": 66,
      "hit": false,
      "t": 73533.33333333328,
      "d": 283.33333333334303,
      "v": 68
    },
    {
      "midi": 59,
      "hit": false,
      "t": 73533.33333333328,
      "d": 483.33333333334303,
      "v": 73
    },
    {
      "midi": 47,
      "hit": false,
      "t": 73533.33333333328,
      "d": 3233.3333333333576,
      "v": 70
    },
    {
      "midi": 57,
      "hit": false,
      "t": 74183.3333333333,
      "d": 2600.0000000000146,
      "v": 68
    },
    {
      "midi": 59,
      "hit": false,
      "t": 74799.99999999997,
      "d": 433.3333333333285,
      "v": 60
    },
    {
      "midi": 62,
      "hit": false,
      "t": 75133.3333333333,
      "d": 100,
      "v": 57
    },
    {
      "midi": 62,
      "hit": false,
      "t": 75449.99999999997,
      "d": 83.33333333332848,
      "v": 64
    },
    {
      "midi": 59,
      "hit": false,
      "t": 75449.99999999997,
      "d": 100,
      "v": 70
    },
    {
      "midi": 66,
      "hit": false,
      "t": 75449.99999999997,
      "d": 100,
      "v": 68
    },
    {
      "midi": 62,
      "hit": false,
      "t": 77066.66666666664,
      "d": 183.33333333334303,
      "v": 63
    },
    {
      "midi": 67,
      "hit": false,
      "t": 77083.33333333331,
      "d": 133.33333333332848,
      "v": 84
    },
    {
      "midi": 48,
      "hit": false,
      "t": 77383.33333333331,
      "d": 2933.333333333372,
      "v": 67
    },
    {
      "midi": 67,
      "hit": false,
      "t": 77399.99999999999,
      "d": 800.0000000000146,
      "v": 68
    },
    {
      "midi": 64,
      "hit": false,
      "t": 77399.99999999999,
      "d": 833.3333333333576,
      "v": 53
    },
    {
      "midi": 60,
      "hit": false,
      "t": 77416.66666666666,
      "d": 800.0000000000146,
      "v": 73
    },
    {
      "midi": 62,
      "hit": false,
      "t": 78650.00000000001,
      "d": 366.6666666666715,
      "v": 72
    },
    {
      "midi": 67,
      "hit": false,
      "t": 78666.66666666669,
      "d": 1566.6666666666715,
      "v": 87
    },
    {
      "midi": 64,
      "hit": false,
      "t": 78983.33333333336,
      "d": 650,
      "v": 43
    },
    {
      "midi": 60,
      "hit": false,
      "t": 79650.00000000003,
      "d": 749.9999999999854,
      "v": 41
    },
    {
      "midi": 45,
      "hit": false,
      "t": 81233.33333333334,
      "d": 1083.333333333343,
      "v": 79
    },
    {
      "midi": 64,
      "hit": false,
      "t": 81233.33333333334,
      "d": 1266.6666666666715,
      "v": 82
    },
    {
      "midi": 67,
      "hit": false,
      "t": 81250.00000000001,
      "d": 1016.6666666666715,
      "v": 84
    },
    {
      "midi": 72,
      "hit": false,
      "t": 81250.00000000001,
      "d": 1166.6666666666715,
      "v": 77
    },
    {
      "midi": 72,
      "hit": false,
      "t": 83150.00000000001,
      "d": 750,
      "v": 77
    },
    {
      "midi": 67,
      "hit": false,
      "t": 83166.66666666669,
      "d": 683.3333333333285,
      "v": 84
    },
    {
      "midi": 64,
      "hit": false,
      "t": 83166.66666666669,
      "d": 1199.9999999999854,
      "v": 77
    },
    {
      "midi": 57,
      "hit": false,
      "t": 83166.66666666669,
      "d": 1383.3333333333285,
      "v": 84
    },
    {
      "midi": 50,
      "hit": false,
      "t": 83166.66666666669,
      "d": 1500,
      "v": 67
    },
    {
      "midi": 71,
      "hit": false,
      "t": 83933.33333333334,
      "d": 400,
      "v": 64
    },
    {
      "midi": 67,
      "hit": false,
      "t": 84433.33333333334,
      "d": 283.33333333334303,
      "v": 84
    },
    {
      "midi": 64,
      "hit": false,
      "t": 84733.33333333336,
      "d": 100,
      "v": 49
    },
    {
      "midi": 59,
      "hit": false,
      "t": 85100.00000000001,
      "d": 916.6666666666861,
      "v": 70
    },
    {
      "midi": 67,
      "hit": false,
      "t": 85116.66666666669,
      "d": 133.33333333334303,
      "v": 84
    },
    {
      "midi": 62,
      "hit": false,
      "t": 85116.66666666669,
      "d": 883.333333333343,
      "v": 55
    },
    {
      "midi": 55,
      "hit": false,
      "t": 85116.66666666669,
      "d": 3183.3333333333576,
      "v": 77
    },
    {
      "midi": 67,
      "hit": false,
      "t": 85283.33333333336,
      "d": 700,
      "v": 22
    },
    {
      "midi": 57,
      "hit": false,
      "t": 86350.00000000003,
      "d": 366.6666666666715,
      "v": 82
    },
    {
      "midi": 59,
      "hit": false,
      "t": 86666.6666666667,
      "d": 316.6666666666715,
      "v": 84
    },
    {
      "midi": 62,
      "hit": false,
      "t": 87000.00000000004,
      "d": 83.33333333332848,
      "v": 75
    },
    {
      "midi": 62,
      "hit": false,
      "t": 87316.6666666667,
      "d": 300,
      "v": 33
    },
    {
      "midi": 67,
      "hit": false,
      "t": 87683.33333333337,
      "d": 750,
      "v": 87
    },
    {
      "midi": 66,
      "hit": false,
      "t": 88950.00000000003,
      "d": 866.666666666657,
      "v": 72
    },
    {
      "midi": 59,
      "hit": false,
      "t": 88950.00000000003,
      "d": 1133.3333333333285,
      "v": 57
    },
    {
      "midi": 69,
      "hit": false,
      "t": 88950.00000000003,
      "d": 1150,
      "v": 70
    },
    {
      "midi": 62,
      "hit": false,
      "t": 88950.00000000003,
      "d": 1166.6666666666715,
      "v": 55
    },
    {
      "midi": 66,
      "hit": false,
      "t": 90200.00000000003,
      "d": 100,
      "v": 60
    },
    {
      "midi": 52,
      "hit": false,
      "t": 90850.00000000003,
      "d": 1233.333333333343,
      "v": 64
    },
    {
      "midi": 67,
      "hit": false,
      "t": 90850.00000000003,
      "d": 1466.666666666686,
      "v": 79
    },
    {
      "midi": 62,
      "hit": false,
      "t": 90866.6666666667,
      "d": 750,
      "v": 68
    },
    {
      "midi": 59,
      "hit": false,
      "t": 90866.6666666667,
      "d": 1233.333333333343,
      "v": 73
    },
    {
      "midi": 62,
      "hit": false,
      "t": 92116.66666666672,
      "d": 300,
      "v": 65
    },
    {
      "midi": 59,
      "hit": false,
      "t": 92433.33333333339,
      "d": 83.33333333332848,
      "v": 42
    },
    {
      "midi": 45,
      "hit": false,
      "t": 92800.00000000004,
      "d": 933.333333333343,
      "v": 46
    },
    {
      "midi": 52,
      "hit": false,
      "t": 92816.66666666672,
      "d": 900,
      "v": 63
    },
    {
      "midi": 55,
      "hit": false,
      "t": 92816.66666666672,
      "d": 933.333333333343,
      "v": 79
    },
    {
      "midi": 60,
      "hit": false,
      "t": 92816.66666666672,
      "d": 983.333333333343,
      "v": 82
    },
    {
      "midi": 57,
      "hit": false,
      "t": 94716.66666666672,
      "d": 700,
      "v": 77
    },
    {
      "midi": 50,
      "hit": false,
      "t": 94716.66666666672,
      "d": 800,
      "v": 63
    },
    {
      "midi": 64,
      "hit": false,
      "t": 94716.66666666672,
      "d": 983.3333333333285,
      "v": 70
    },
    {
      "midi": 67,
      "hit": false,
      "t": 94716.66666666672,
      "d": 983.3333333333285,
      "v": 70
    },
    {
      "midi": 60,
      "hit": false,
      "t": 94716.66666666672,
      "d": 1066.666666666657,
      "v": 68
    },
    {
      "midi": 43,
      "hit": false,
      "t": 96600.00000000004,
      "d": 3066.6666666666715,
      "v": 67
    },
    {
      "midi": 67,
      "hit": false,
      "t": 96633.33333333337,
      "d": 733.3333333333285,
      "v": 72
    },
    {
      "midi": 60,
      "hit": false,
      "t": 96633.33333333337,
      "d": 766.666666666657,
      "v": 73
    },
    {
      "midi": 62,
      "hit": false,
      "t": 96633.33333333337,
      "d": 783.3333333333285,
      "v": 54
    },
    {
      "midi": 67,
      "hit": false,
      "t": 97600.00000000003,
      "d": 50,
      "v": 45
    },
    {
      "midi": 59,
      "hit": false,
      "t": 97600.00000000003,
      "d": 433.3333333333285,
      "v": 63
    },
    {
      "midi": 62,
      "hit": false,
      "t": 97600.00000000003,
      "d": 500,
      "v": 67
    },
    {
      "midi": 60,
      "hit": false,
      "t": 98566.6666666667,
      "d": 666.6666666666715,
      "v": 68
    },
    {
      "midi": 67,
      "hit": false,
      "t": 98583.33333333337,
      "d": 633.3333333333285,
      "v": 77
    },
    {
      "midi": 62,
      "hit": false,
      "t": 98583.33333333337,
      "d": 700,
      "v": 58
    },
    {
      "midi": 67,
      "hit": false,
      "t": 99483.33333333337,
      "d": 116.66666666667152,
      "v": 84
    },
    {
      "midi": 62,
      "hit": false,
      "t": 99483.33333333337,
      "d": 133.33333333334303,
      "v": 70
    },
    {
      "midi": 59,
      "hit": false,
      "t": 99500.00000000004,
      "d": 133.33333333334303,
      "v": 65
    },
    {
      "midi": 66,
      "hit": false,
      "t": 100466.66666666672,
      "d": 150,
      "v": 80
    },
    {
      "midi": 59,
      "hit": false,
      "t": 100466.66666666672,
      "d": 183.33333333332848,
      "v": 75
    },
    {
      "midi": 43,
      "hit": false,
      "t": 100466.66666666672,
      "d": 3066.666666666657,
      "v": 84
    },
    {
      "midi": 57,
      "hit": false,
      "t": 101750.00000000004,
      "d": 216.66666666667152,
      "v": 44
    },
    {
      "midi": 59,
      "hit": false,
      "t": 102066.66666666672,
      "d": 283.3333333333285,
      "v": 55
    },
    {
      "midi": 62,
      "hit": false,
      "t": 102383.33333333337,
      "d": 116.66666666667152,
      "v": 77
    },
    {
      "midi": 67,
      "hit": false,
      "t": 103650.00000000004,
      "d": 233.33333333332848,
      "v": 61
    },
    {
      "midi": 66,
      "hit": false,
      "t": 103983.33333333337,
      "d": 66.66666666667152,
      "v": 37
    },
    {
      "midi": 40,
      "hit": false,
      "t": 104283.33333333337,
      "d": 2516.6666666666715,
      "v": 46
    },
    {
      "midi": 67,
      "hit": false,
      "t": 104300.00000000004,
      "d": 216.66666666667152,
      "v": 75
    },
    {
      "midi": 59,
      "hit": false,
      "t": 104316.66666666672,
      "d": 183.33333333332848,
      "v": 60
    },
    {
      "midi": 62,
      "hit": false,
      "t": 105566.66666666672,
      "d": 100,
      "v": 65
    },
    {
      "midi": 55,
      "hit": false,
      "t": 105566.66666666672,
      "d": 116.66666666667152,
      "v": 65
    },
    {
      "midi": 52,
      "hit": false,
      "t": 105600.00000000004,
      "d": 1633.3333333333285,
      "v": 1
    },
    {
      "midi": 57,
      "hit": false,
      "t": 105916.66666666672,
      "d": 266.6666666666715,
      "v": 40
    },
    {
      "midi": 59,
      "hit": false,
      "t": 106216.66666666672,
      "d": 233.33333333332848,
      "v": 67
    },
    {
      "midi": 74,
      "hit": false,
      "t": 108150.00000000004,
      "d": 150,
      "v": 73
    },
    {
      "midi": 64,
      "hit": false,
      "t": 108150.00000000004,
      "d": 516.6666666666715,
      "v": 68
    },
    {
      "midi": 55,
      "hit": false,
      "t": 108150.00000000004,
      "d": 3216.6666666666715,
      "v": 77
    },
    {
      "midi": 48,
      "hit": false,
      "t": 108166.66666666672,
      "d": 3266.6666666666715,
      "v": 65
    },
    {
      "midi": 64,
      "hit": false,
      "t": 108783.33333333339,
      "d": 300,
      "v": 55
    },
    {
      "midi": 72,
      "hit": false,
      "t": 108800.00000000006,
      "d": 133.33333333332848,
      "v": 72
    },
    {
      "midi": 62,
      "hit": false,
      "t": 109416.66666666672,
      "d": 583.333333333343,
      "v": 35
    },
    {
      "midi": 64,
      "hit": false,
      "t": 109733.33333333339,
      "d": 266.6666666666715,
      "v": 73
    },
    {
      "midi": 67,
      "hit": false,
      "t": 110083.33333333339,
      "d": 116.66666666667152,
      "v": 101
    },
    {
      "midi": 59,
      "hit": false,
      "t": 110700.00000000006,
      "d": 583.3333333333285,
      "v": 55
    },
    {
      "midi": 67,
      "hit": false,
      "t": 112000.00000000004,
      "d": 333.3333333333285,
      "v": 77
    },
    {
      "midi": 60,
      "hit": false,
      "t": 112000.00000000004,
      "d": 350,
      "v": 72
    },
    {
      "midi": 45,
      "hit": false,
      "t": 112000.00000000004,
      "d": 1466.666666666686,
      "v": 72
    },
    {
      "midi": 52,
      "hit": false,
      "t": 112366.66666666672,
      "d": 1033.333333333343,
      "v": 63
    },
    {
      "midi": 55,
      "hit": false,
      "t": 112666.66666666672,
      "d": 666.6666666666715,
      "v": 57
    },
    {
      "midi": 59,
      "hit": false,
      "t": 113000.00000000004,
      "d": 383.33333333334303,
      "v": 67
    },
    {
      "midi": 60,
      "hit": false,
      "t": 113316.66666666672,
      "d": 166.66666666668607,
      "v": 75
    },
    {
      "midi": 54,
      "hit": false,
      "t": 113933.3333333334,
      "d": 900.0000000000146,
      "v": 62
    },
    {
      "midi": 62,
      "hit": false,
      "t": 113950.00000000007,
      "d": 866.6666666666715,
      "v": 65
    },
    {
      "midi": 50,
      "hit": false,
      "t": 113950.00000000007,
      "d": 883.333333333343,
      "v": 53
    },
    {
      "midi": 57,
      "hit": false,
      "t": 113950.00000000007,
      "d": 900.0000000000146,
      "v": 75
    },
    {
      "midi": 60,
      "hit": false,
      "t": 115833.33333333343,
      "d": 950,
      "v": 65
    },
    {
      "midi": 60,
      "hit": false,
      "t": 117450.0000000001,
      "d": 233.33333333332848,
      "v": 14
    },
    {
      "midi": 67,
      "hit": false,
      "t": 117783.33333333343,
      "d": 100,
      "v": 65
    },
    {
      "midi": 60,
      "hit": false,
      "t": 118383.33333333343,
      "d": 133.33333333332848,
      "v": 7
    },
    {
      "midi": 64,
      "hit": false,
      "t": 118383.33333333343,
      "d": 133.33333333332848,
      "v": 65
    },
    {
      "midi": 71,
      "hit": false,
      "t": 118733.33333333343,
      "d": 250,
      "v": 65
    },
    {
      "midi": 60,
      "hit": false,
      "t": 118750.0000000001,
      "d": 316.66666666665697,
      "v": 33
    },
    {
      "midi": 64,
      "hit": false,
      "t": 119016.66666666676,
      "d": 66.66666666667152,
      "v": 37
    },
    {
      "midi": 67,
      "hit": false,
      "t": 119666.66666666676,
      "d": 1000,
      "v": 82
    },
    {
      "midi": 47,
      "hit": false,
      "t": 119666.66666666676,
      "d": 2916.666666666657,
      "v": 65
    },
    {
      "midi": 62,
      "hit": false,
      "t": 119683.33333333343,
      "d": 983.3333333333285,
      "v": 53
    },
    {
      "midi": 59,
      "hit": false,
      "t": 119683.33333333343,
      "d": 1016.666666666657,
      "v": 70
    },
    {
      "midi": 57,
      "hit": false,
      "t": 120983.33333333342,
      "d": 633.333333333343,
      "v": 65
    },
    {
      "midi": 55,
      "hit": false,
      "t": 121000.00000000009,
      "d": 1766.666666666657,
      "v": 28
    },
    {
      "midi": 59,
      "hit": false,
      "t": 121316.66666666676,
      "d": 333.3333333333285,
      "v": 60
    },
    {
      "midi": 62,
      "hit": false,
      "t": 121650.00000000009,
      "d": 100,
      "v": 79
    },
    {
      "midi": 48,
      "hit": false,
      "t": 123550.00000000009,
      "d": 2916.6666666666715,
      "v": 67
    },
    {
      "midi": 55,
      "hit": false,
      "t": 123550.00000000009,
      "d": 2916.6666666666715,
      "v": 73
    },
    {
      "midi": 67,
      "hit": false,
      "t": 123566.66666666676,
      "d": 150,
      "v": 68
    },
    {
      "midi": 64,
      "hit": false,
      "t": 123566.66666666676,
      "d": 466.6666666666715,
      "v": 48
    },
    {
      "midi": 74,
      "hit": false,
      "t": 123566.66666666676,
      "d": 583.333333333343,
      "v": 64
    },
    {
      "midi": 72,
      "hit": false,
      "t": 124250.0000000001,
      "d": 150,
      "v": 60
    },
    {
      "midi": 64,
      "hit": false,
      "t": 124250.0000000001,
      "d": 200,
      "v": 64
    },
    {
      "midi": 62,
      "hit": false,
      "t": 124833.33333333343,
      "d": 583.3333333333285,
      "v": 37
    },
    {
      "midi": 64,
      "hit": false,
      "t": 125133.33333333343,
      "d": 316.66666666665697,
      "v": 65
    },
    {
      "midi": 67,
      "hit": false,
      "t": 125466.66666666676,
      "d": 316.6666666666715,
      "v": 87
    },
    {
      "midi": 57,
      "hit": false,
      "t": 127416.66666666676,
      "d": 1500.0000000000146,
      "v": 89
    },
    {
      "midi": 64,
      "hit": false,
      "t": 127433.33333333343,
      "d": 166.66666666667152,
      "v": 82
    },
    {
      "midi": 67,
      "hit": false,
      "t": 127433.33333333343,
      "d": 183.33333333334303,
      "v": 79
    },
    {
      "midi": 60,
      "hit": false,
      "t": 127433.33333333343,
      "d": 200.00000000001455,
      "v": 82
    },
    {
      "midi": 50,
      "hit": false,
      "t": 127433.33333333343,
      "d": 1383.333333333343,
      "v": 68
    },
    {
      "midi": 57,
      "hit": false,
      "t": 129316.66666666677,
      "d": 716.6666666666861,
      "v": 73
    },
    {
      "midi": 64,
      "hit": false,
      "t": 129333.33333333344,
      "d": 133.33333333334303,
      "v": 53
    },
    {
      "midi": 69,
      "hit": false,
      "t": 129333.33333333344,
      "d": 183.33333333334303,
      "v": 72
    },
    {
      "midi": 50,
      "hit": false,
      "t": 129333.33333333344,
      "d": 716.6666666666861,
      "v": 50
    },
    {
      "midi": 66,
      "hit": false,
      "t": 129350.00000000012,
      "d": 133.33333333334303,
      "v": 46
    },
    {
      "midi": 60,
      "hit": false,
      "t": 129350.00000000012,
      "d": 166.66666666667152,
      "v": 58
    },
    {
      "midi": 43,
      "hit": false,
      "t": 131300.00000000015,
      "d": 3133.333333333314,
      "v": 95
    },
    {
      "midi": 50,
      "hit": false,
      "t": 131583.33333333346,
      "d": 2866.666666666657,
      "v": 68
    },
    {
      "midi": 55,
      "hit": false,
      "t": 131900.00000000012,
      "d": 2400,
      "v": 67
    },
    {
      "midi": 57,
      "hit": false,
      "t": 132216.66666666677,
      "d": 433.33333333334303,
      "v": 77
    },
    {
      "midi": 59,
      "hit": false,
      "t": 132550.00000000012,
      "d": 366.66666666665697,
      "v": 65
    },
    {
      "midi": 62,
      "hit": false,
      "t": 132866.66666666677,
      "d": 250,
      "v": 65
    },
    {
      "midi": 57,
      "hit": false,
      "t": 133816.66666666677,
      "d": 433.33333333334303,
      "v": 63
    },
    {
      "midi": 59,
      "hit": false,
      "t": 134150.00000000012,
      "d": 316.66666666665697,
      "v": 84
    },
    {
      "midi": 62,
      "hit": false,
      "t": 134466.66666666677,
      "d": 50,
      "v": 60
    },
    {
      "midi": 67,
      "hit": false,
      "t": 134766.66666666677,
      "d": 266.66666666665697,
      "v": 70
    },
    {
      "midi": 40,
      "hit": false,
      "t": 135100.0000000001,
      "d": 3133.333333333314,
      "v": 65
    },
    {
      "midi": 66,
      "hit": false,
      "t": 135133.3333333334,
      "d": 300,
      "v": 84
    },
    {
      "midi": 47,
      "hit": false,
      "t": 135416.66666666674,
      "d": 1916.666666666657,
      "v": 57
    },
    {
      "midi": 52,
      "hit": false,
      "t": 135750.00000000006,
      "d": 1583.333333333343,
      "v": 67
    },
    {
      "midi": 67,
      "hit": false,
      "t": 135766.66666666672,
      "d": 300,
      "v": 70
    },
    {
      "midi": 62,
      "hit": false,
      "t": 136366.66666666672,
      "d": 233.33333333334303,
      "v": 64
    },
    {
      "midi": 57,
      "hit": false,
      "t": 136700.00000000006,
      "d": 300,
      "v": 58
    },
    {
      "midi": 59,
      "hit": false,
      "t": 137033.3333333334,
      "d": 100,
      "v": 73
    },
    {
      "midi": 55,
      "hit": false,
      "t": 138033.3333333334,
      "d": 233.33333333334303,
      "v": 84
    },
    {
      "midi": 54,
      "hit": false,
      "t": 138333.3333333334,
      "d": 83.33333333334303,
      "v": 54
    },
    {
      "midi": 60,
      "hit": false,
      "t": 138966.66666666674,
      "d": 333.33333333331393,
      "v": 77
    },
    {
      "midi": 55,
      "hit": false,
      "t": 138983.3333333334,
      "d": 283.33333333334303,
      "v": 73
    },
    {
      "midi": 45,
      "hit": false,
      "t": 138983.3333333334,
      "d": 3066.666666666657,
      "v": 89
    },
    {
      "midi": 52,
      "hit": false,
      "t": 139283.3333333334,
      "d": 2716.666666666657,
      "v": 60
    },
    {
      "midi": 57,
      "hit": false,
      "t": 139600.00000000006,
      "d": 450,
      "v": 45
    },
    {
      "midi": 57,
      "hit": false,
      "t": 140250.00000000006,
      "d": 116.66666666665697,
      "v": 9
    },
    {
      "midi": 59,
      "hit": false,
      "t": 140533.33333333337,
      "d": 266.66666666665697,
      "v": 73
    },
    {
      "midi": 60,
      "hit": false,
      "t": 140866.6666666667,
      "d": 83.33333333334303,
      "v": 75
    },
    {
      "midi": 57,
      "hit": false,
      "t": 141450.00000000003,
      "d": 466.66666666668607,
      "v": 1
    },
    {
      "midi": 60,
      "hit": false,
      "t": 141500.00000000003,
      "d": 133.33333333334303,
      "v": 58
    },
    {
      "midi": 60,
      "hit": false,
      "t": 141833.33333333337,
      "d": 300.0000000000291,
      "v": 77
    },
    {
      "midi": 67,
      "hit": false,
      "t": 141833.33333333337,
      "d": 316.66666666668607,
      "v": 92
    },
    {
      "midi": 64,
      "hit": false,
      "t": 142150.00000000006,
      "d": 183.33333333334303,
      "v": 37
    },
    {
      "midi": 60,
      "hit": false,
      "t": 142483.3333333334,
      "d": 133.33333333334303,
      "v": 41
    },
    {
      "midi": 38,
      "hit": false,
      "t": 142783.3333333334,
      "d": 116.66666666665697,
      "v": 72
    },
    {
      "midi": 64,
      "hit": false,
      "t": 142800.00000000006,
      "d": 950,
      "v": 79
    },
    {
      "midi": 60,
      "hit": false,
      "t": 142800.00000000006,
      "d": 983.333333333343,
      "v": 82
    },
    {
      "midi": 67,
      "hit": false,
      "t": 142800.00000000006,
      "d": 983.333333333343,
      "v": 75
    },
    {
      "midi": 50,
      "hit": false,
      "t": 143366.66666666672,
      "d": 816.6666666666861,
      "v": 38
    },
    {
      "midi": 57,
      "hit": false,
      "t": 143783.3333333334,
      "d": 466.66666666665697,
      "v": 61
    },
    {
      "midi": 67,
      "hit": false,
      "t": 144066.66666666674,
      "d": 299.9999999999709,
      "v": 75
    },
    {
      "midi": 60,
      "hit": false,
      "t": 144066.66666666674,
      "d": 1699.999999999971,
      "v": 77
    },
    {
      "midi": 64,
      "hit": false,
      "t": 144416.66666666672,
      "d": 216.66666666665697,
      "v": 72
    },
    {
      "midi": 50,
      "hit": false,
      "t": 144683.33333333337,
      "d": 1216.666666666686,
      "v": 58
    },
    {
      "midi": 66,
      "hit": false,
      "t": 144716.66666666672,
      "d": 1166.666666666686,
      "v": 76
    },
    {
      "midi": 57,
      "hit": false,
      "t": 145716.66666666672,
      "d": 133.33333333334303,
      "v": 75
    },
    {
      "midi": 60,
      "hit": false,
      "t": 146016.66666666672,
      "d": 666.666666666657,
      "v": 27
    },
    {
      "midi": 43,
      "hit": false,
      "t": 146666.66666666672,
      "d": 3149.999999999971,
      "v": 98
    },
    {
      "midi": 50,
      "hit": false,
      "t": 146983.33333333337,
      "d": 2783.333333333314,
      "v": 67
    },
    {
      "midi": 55,
      "hit": false,
      "t": 147300.00000000003,
      "d": 2450,
      "v": 37
    },
    {
      "midi": 57,
      "hit": false,
      "t": 147633.33333333337,
      "d": 400,
      "v": 65
    },
    {
      "midi": 59,
      "hit": false,
      "t": 147933.33333333337,
      "d": 250,
      "v": 61
    },
    {
      "midi": 62,
      "hit": false,
      "t": 148233.33333333337,
      "d": 66.66666666665697,
      "v": 48
    },
    {
      "midi": 67,
      "hit": false,
      "t": 148566.6666666667,
      "d": 616.666666666657,
      "v": 92
    },
    {
      "midi": 59,
      "hit": false,
      "t": 148566.6666666667,
      "d": 1050,
      "v": 64
    },
    {
      "midi": 66,
      "hit": false,
      "t": 149216.6666666667,
      "d": 300,
      "v": 66
    },
    {
      "midi": 62,
      "hit": false,
      "t": 149850.00000000003,
      "d": 283.33333333334303,
      "v": 63
    },
    {
      "midi": 57,
      "hit": false,
      "t": 150166.66666666672,
      "d": 216.66666666665697,
      "v": 64
    },
    {
      "midi": 57,
      "hit": false,
      "t": 150500.00000000003,
      "d": 200,
      "v": 75
    },
    {
      "midi": 62,
      "hit": false,
      "t": 150500.00000000003,
      "d": 250,
      "v": 75
    },
    {
      "midi": 47,
      "hit": false,
      "t": 150500.00000000003,
      "d": 3283.333333333285,
      "v": 77
    },
    {
      "midi": 54,
      "hit": false,
      "t": 150833.33333333337,
      "d": 2883.333333333285,
      "v": 70
    },
    {
      "midi": 59,
      "hit": false,
      "t": 151150.00000000003,
      "d": 400,
      "v": 51
    },
    {
      "midi": 57,
      "hit": false,
      "t": 151450.00000000003,
      "d": 1749.999999999971,
      "v": 53
    },
    {
      "midi": 59,
      "hit": false,
      "t": 151766.6666666667,
      "d": 200,
      "v": 31
    },
    {
      "midi": 69,
      "hit": false,
      "t": 152433.33333333334,
      "d": 600,
      "v": 70
    },
    {
      "midi": 59,
      "hit": false,
      "t": 152450,
      "d": 583.333333333343,
      "v": 75
    },
    {
      "midi": 57,
      "hit": false,
      "t": 153450,
      "d": 183.33333333334303,
      "v": 46
    },
    {
      "midi": 67,
      "hit": false,
      "t": 153700,
      "d": 233.33333333331393,
      "v": 84
    },
    {
      "midi": 59,
      "hit": false,
      "t": 153700,
      "d": 416.66666666665697,
      "v": 63
    },
    {
      "midi": 66,
      "hit": false,
      "t": 153983.3333333333,
      "d": 183.33333333334303,
      "v": 68
    },
    {
      "midi": 67,
      "hit": false,
      "t": 154316.66666666666,
      "d": 950,
      "v": 101
    },
    {
      "midi": 45,
      "hit": false,
      "t": 154316.66666666666,
      "d": 3266.666666666657,
      "v": 89
    },
    {
      "midi": 57,
      "hit": false,
      "t": 154333.3333333333,
      "d": 900,
      "v": 84
    },
    {
      "midi": 60,
      "hit": false,
      "t": 155900,
      "d": 116.66666666665697,
      "v": 79
    },
    {
      "midi": 55,
      "hit": false,
      "t": 155950,
      "d": 66.66666666665697,
      "v": 48
    },
    {
      "midi": 52,
      "hit": false,
      "t": 156100,
      "d": 833.3333333333139,
      "v": 1
    },
    {
      "midi": 55,
      "hit": false,
      "t": 156216.66666666666,
      "d": 216.66666666665697,
      "v": 73
    },
    {
      "midi": 60,
      "hit": false,
      "t": 156216.66666666666,
      "d": 216.66666666665697,
      "v": 84
    },
    {
      "midi": 55,
      "hit": false,
      "t": 156899.99999999997,
      "d": 350,
      "v": 49
    },
    {
      "midi": 52,
      "hit": false,
      "t": 157249.99999999997,
      "d": 183.33333333334303,
      "v": 75
    },
    {
      "midi": 55,
      "hit": false,
      "t": 157466.66666666666,
      "d": 183.33333333331393,
      "v": 63
    },
    {
      "midi": 60,
      "hit": false,
      "t": 157483.3333333333,
      "d": 150,
      "v": 77
    },
    {
      "midi": 55,
      "hit": false,
      "t": 158133.33333333328,
      "d": 683.3333333333139,
      "v": 87
    },
    {
      "midi": 60,
      "hit": false,
      "t": 158133.33333333328,
      "d": 683.3333333333139,
      "v": 82
    },
    {
      "midi": 64,
      "hit": false,
      "t": 158133.33333333328,
      "d": 783.3333333333139,
      "v": 89
    },
    {
      "midi": 50,
      "hit": false,
      "t": 158149.99999999994,
      "d": 1566.666666666657,
      "v": 75
    },
    {
      "midi": 64,
      "hit": false,
      "t": 159416.6666666666,
      "d": 266.66666666665697,
      "v": 89
    },
    {
      "midi": 60,
      "hit": false,
      "t": 159416.6666666666,
      "d": 566.666666666657,
      "v": 73
    },
    {
      "midi": 67,
      "hit": false,
      "t": 159733.33333333326,
      "d": 266.66666666665697,
      "v": 95
    },
    {
      "midi": 66,
      "hit": false,
      "t": 160049.9999999999,
      "d": 133.33333333334303,
      "v": 103
    },
    {
      "midi": 50,
      "hit": false,
      "t": 160049.9999999999,
      "d": 1550.000000000029,
      "v": 77
    },
    {
      "midi": 60,
      "hit": false,
      "t": 160083.33333333326,
      "d": 33.333333333343035,
      "v": 38
    },
    {
      "midi": 64,
      "hit": false,
      "t": 160716.6666666666,
      "d": 150,
      "v": 89
    },
    {
      "midi": 60,
      "hit": false,
      "t": 160716.6666666666,
      "d": 183.33333333334303,
      "v": 61
    },
    {
      "midi": 62,
      "hit": false,
      "t": 161383.33333333328,
      "d": 116.66666666665697,
      "v": 72
    },
    {
      "midi": 67,
      "hit": false,
      "t": 161983.33333333326,
      "d": 50,
      "v": 84
    },
    {
      "midi": 74,
      "hit": false,
      "t": 161983.33333333326,
      "d": 83.33333333334303,
      "v": 75
    },
    {
      "midi": 55,
      "hit": false,
      "t": 161983.33333333326,
      "d": 2299.999999999971,
      "v": 87
    },
    {
      "midi": 69,
      "hit": false,
      "t": 162333.33333333326,
      "d": 166.66666666665697,
      "v": 70
    },
    {
      "midi": 71,
      "hit": false,
      "t": 162649.9999999999,
      "d": 200,
      "v": 75
    },
    {
      "midi": 62,
      "hit": false,
      "t": 163566.66666666657,
      "d": 116.66666666665697,
      "v": 51
    },
    {
      "midi": 67,
      "hit": false,
      "t": 163583.33333333323,
      "d": 100,
      "v": 75
    },
    {
      "midi": 57,
      "hit": false,
      "t": 164249.99999999988,
      "d": 283.33333333334303,
      "v": 92
    },
    {
      "midi": 62,
      "hit": false,
      "t": 164249.99999999988,
      "d": 883.3333333333721,
      "v": 87
    },
    {
      "midi": 59,
      "hit": false,
      "t": 164566.66666666657,
      "d": 533.333333333343,
      "v": 46
    },
    {
      "midi": 57,
      "hit": false,
      "t": 165166.6666666666,
      "d": 133.33333333334303,
      "v": 31
    },
    {
      "midi": 62,
      "hit": false,
      "t": 165199.99999999994,
      "d": 100,
      "v": 11
    },
    {
      "midi": 62,
      "hit": false,
      "t": 165816.6666666666,
      "d": 283.33333333334303,
      "v": 63
    },
    {
      "midi": 66,
      "hit": false,
      "t": 165816.6666666666,
      "d": 300,
      "v": 68
    },
    {
      "midi": 59,
      "hit": false,
      "t": 165816.6666666666,
      "d": 500,
      "v": 73
    },
    {
      "midi": 47,
      "hit": false,
      "t": 165816.6666666666,
      "d": 3249.999999999971,
      "v": 70
    },
    {
      "midi": 57,
      "hit": false,
      "t": 166466.6666666666,
      "d": 2599.999999999971,
      "v": 68
    },
    {
      "midi": 59,
      "hit": false,
      "t": 167099.99999999994,
      "d": 416.66666666665697,
      "v": 60
    },
    {
      "midi": 62,
      "hit": false,
      "t": 167416.6666666666,
      "d": 116.66666666665697,
      "v": 57
    },
    {
      "midi": 62,
      "hit": false,
      "t": 167749.9999999999,
      "d": 66.66666666665697,
      "v": 64
    },
    {
      "midi": 59,
      "hit": false,
      "t": 167749.9999999999,
      "d": 83.33333333331393,
      "v": 70
    },
    {
      "midi": 66,
      "hit": false,
      "t": 167749.9999999999,
      "d": 83.33333333331393,
      "v": 68
    },
    {
      "midi": 67,
      "hit": false,
      "t": 169366.66666666657,
      "d": 133.33333333334303,
      "v": 84
    },
    {
      "midi": 62,
      "hit": false,
      "t": 169366.66666666657,
      "d": 166.66666666665697,
      "v": 63
    },
    {
      "midi": 48,
      "hit": false,
      "t": 169666.66666666657,
      "d": 2933.333333333314,
      "v": 67
    },
    {
      "midi": 67,
      "hit": false,
      "t": 169683.33333333323,
      "d": 799.9999999999709,
      "v": 68
    },
    {
      "midi": 64,
      "hit": false,
      "t": 169683.33333333323,
      "d": 833.3333333333139,
      "v": 53
    },
    {
      "midi": 60,
      "hit": false,
      "t": 169699.99999999988,
      "d": 816.666666666657,
      "v": 73
    },
    {
      "midi": 62,
      "hit": false,
      "t": 170933.3333333332,
      "d": 383.33333333334303,
      "v": 72
    },
    {
      "midi": 67,
      "hit": false,
      "t": 170949.99999999985,
      "d": 1566.666666666686,
      "v": 87
    },
    {
      "midi": 64,
      "hit": false,
      "t": 171283.3333333332,
      "d": 633.333333333343,
      "v": 43
    },
    {
      "midi": 60,
      "hit": false,
      "t": 171933.3333333332,
      "d": 750.0000000000291,
      "v": 41
    },
    {
      "midi": 67,
      "hit": false,
      "t": 173533.33333333323,
      "d": 1016.6666666666861,
      "v": 84
    },
    {
      "midi": 45,
      "hit": false,
      "t": 173533.33333333323,
      "d": 1066.666666666686,
      "v": 79
    },
    {
      "midi": 72,
      "hit": false,
      "t": 173533.33333333323,
      "d": 1166.666666666686,
      "v": 77
    },
    {
      "midi": 64,
      "hit": false,
      "t": 173533.33333333323,
      "d": 1250.000000000029,
      "v": 82
    },
    {
      "midi": 67,
      "hit": false,
      "t": 175449.9999999999,
      "d": 683.3333333333139,
      "v": 84
    },
    {
      "midi": 72,
      "hit": false,
      "t": 175449.9999999999,
      "d": 733.3333333333139,
      "v": 77
    },
    {
      "midi": 64,
      "hit": false,
      "t": 175449.9999999999,
      "d": 1199.999999999971,
      "v": 77
    },
    {
      "midi": 57,
      "hit": false,
      "t": 175449.9999999999,
      "d": 1399.999999999971,
      "v": 84
    },
    {
      "midi": 50,
      "hit": false,
      "t": 175466.66666666657,
      "d": 1483.333333333314,
      "v": 67
    },
    {
      "midi": 71,
      "hit": false,
      "t": 176216.66666666657,
      "d": 416.66666666665697,
      "v": 64
    },
    {
      "midi": 67,
      "hit": false,
      "t": 176716.66666666654,
      "d": 283.33333333334303,
      "v": 84
    },
    {
      "midi": 64,
      "hit": false,
      "t": 177033.33333333323,
      "d": 83.33333333334303,
      "v": 49
    },
    {
      "midi": 59,
      "hit": false,
      "t": 177383.33333333323,
      "d": 916.6666666666279,
      "v": 70
    },
    {
      "midi": 67,
      "hit": false,
      "t": 177399.99999999988,
      "d": 150,
      "v": 84
    },
    {
      "midi": 62,
      "hit": false,
      "t": 177399.99999999988,
      "d": 883.3333333333139,
      "v": 55
    },
    {
      "midi": 55,
      "hit": false,
      "t": 177399.99999999988,
      "d": 3183.333333333285,
      "v": 77
    },
    {
      "midi": 67,
      "hit": false,
      "t": 177566.66666666654,
      "d": 700,
      "v": 22
    },
    {
      "midi": 57,
      "hit": false,
      "t": 178633.3333333332,
      "d": 366.66666666668607,
      "v": 82
    },
    {
      "midi": 59,
      "hit": false,
      "t": 178966.66666666654,
      "d": 300,
      "v": 84
    },
    {
      "midi": 62,
      "hit": false,
      "t": 179283.3333333332,
      "d": 100,
      "v": 75
    },
    {
      "midi": 62,
      "hit": false,
      "t": 179599.99999999985,
      "d": 300,
      "v": 33
    },
    {
      "midi": 67,
      "hit": false,
      "t": 179966.6666666665,
      "d": 750,
      "v": 87
    },
    {
      "midi": 59,
      "hit": false,
      "t": 181233.33333333317,
      "d": 1133.333333333314,
      "v": 57
    },
    {
      "midi": 66,
      "hit": false,
      "t": 181249.99999999983,
      "d": 850,
      "v": 72
    },
    {
      "midi": 69,
      "hit": false,
      "t": 181249.99999999983,
      "d": 1133.333333333314,
      "v": 70
    },
    {
      "midi": 62,
      "hit": false,
      "t": 181249.99999999983,
      "d": 1149.999999999971,
      "v": 55
    },
    {
      "midi": 66,
      "hit": false,
      "t": 182499.9999999998,
      "d": 83.33333333334303,
      "v": 60
    },
    {
      "midi": 62,
      "hit": false,
      "t": 183149.9999999998,
      "d": 750,
      "v": 68
    },
    {
      "midi": 52,
      "hit": false,
      "t": 183149.9999999998,
      "d": 1233.333333333343,
      "v": 64
    },
    {
      "midi": 59,
      "hit": false,
      "t": 183149.9999999998,
      "d": 1250,
      "v": 73
    },
    {
      "midi": 67,
      "hit": false,
      "t": 183149.9999999998,
      "d": 1450,
      "v": 79
    },
    {
      "midi": 62,
      "hit": false,
      "t": 184399.9999999998,
      "d": 300,
      "v": 65
    },
    {
      "midi": 59,
      "hit": false,
      "t": 184733.33333333314,
      "d": 66.66666666665697,
      "v": 42
    },
    {
      "midi": 45,
      "hit": false,
      "t": 185083.33333333314,
      "d": 933.3333333333139,
      "v": 46
    },
    {
      "midi": 52,
      "hit": false,
      "t": 185099.9999999998,
      "d": 900,
      "v": 63
    },
    {
      "midi": 55,
      "hit": false,
      "t": 185099.9999999998,
      "d": 950,
      "v": 79
    },
    {
      "midi": 60,
      "hit": false,
      "t": 185099.9999999998,
      "d": 983.333333333343,
      "v": 82
    },
    {
      "midi": 57,
      "hit": false,
      "t": 186999.99999999983,
      "d": 700,
      "v": 77
    },
    {
      "midi": 50,
      "hit": false,
      "t": 186999.99999999983,
      "d": 800,
      "v": 63
    },
    {
      "midi": 64,
      "hit": false,
      "t": 186999.99999999983,
      "d": 983.333333333343,
      "v": 70
    },
    {
      "midi": 67,
      "hit": false,
      "t": 186999.99999999983,
      "d": 983.333333333343,
      "v": 70
    },
    {
      "midi": 60,
      "hit": false,
      "t": 186999.99999999983,
      "d": 1083.333333333343,
      "v": 68
    },
    {
      "midi": 67,
      "hit": false,
      "t": 188899.99999999983,
      "d": 166.66666666665697,
      "v": 87
    },
    {
      "midi": 59,
      "hit": false,
      "t": 188899.99999999983,
      "d": 216.66666666665697,
      "v": 65
    },
    {
      "midi": 43,
      "hit": false,
      "t": 188899.99999999983,
      "d": 1100,
      "v": 82
    },
    {
      "midi": 62,
      "hit": false,
      "t": 188916.66666666648,
      "d": 166.66666666665697,
      "v": 55
    },
    {
      "midi": 50,
      "hit": false,
      "t": 189899.99999999983,
      "d": 66.66666666665697,
      "v": 49
    },
    {
      "midi": 59,
      "hit": false,
      "t": 190166.66666666648,
      "d": 183.33333333331393,
      "v": 68
    },
    {
      "midi": 67,
      "hit": false,
      "t": 190183.33333333314,
      "d": 50,
      "v": 43
    },
    {
      "midi": 60,
      "hit": false,
      "t": 190799.9999999998,
      "d": 216.66666666665697,
      "v": 82
    },
    {
      "midi": 54,
      "hit": false,
      "t": 190799.9999999998,
      "d": 1616.6666666666279,
      "v": 74
    },
    {
      "midi": 57,
      "hit": false,
      "t": 190799.9999999998,
      "d": 1633.3333333332848,
      "v": 84
    },
    {
      "midi": 50,
      "hit": false,
      "t": 190799.9999999998,
      "d": 1666.6666666666279,
      "v": 65
    },
    {
      "midi": 64,
      "hit": false,
      "t": 190816.66666666645,
      "d": 183.33333333334303,
      "v": 84
    },
    {
      "midi": 67,
      "hit": false,
      "t": 190816.66666666645,
      "d": 183.33333333334303,
      "v": 89
    },
    {
      "midi": 60,
      "hit": false,
      "t": 191133.3333333331,
      "d": 116.66666666665697,
      "v": 27
    },
    {
      "midi": 60,
      "hit": false,
      "t": 191449.99999999977,
      "d": 150,
      "v": 58
    },
    {
      "midi": 67,
      "hit": false,
      "t": 191766.66666666642,
      "d": 200,
      "v": 87
    },
    {
      "midi": 60,
      "hit": false,
      "t": 191766.66666666642,
      "d": 216.66666666665697,
      "v": 87
    },
    {
      "midi": 64,
      "hit": false,
      "t": 192083.33333333308,
      "d": 183.33333333334303,
      "v": 68
    },
    {
      "midi": 60,
      "hit": false,
      "t": 192416.66666666642,
      "d": 50,
      "v": 53
    },
    {
      "midi": 67,
      "hit": false,
      "t": 192749.99999999977,
      "d": 50,
      "v": 84
    },
    {
      "midi": 74,
      "hit": false,
      "t": 192749.99999999977,
      "d": 83.33333333334303,
      "v": 75
    },
    {
      "midi": 55,
      "hit": false,
      "t": 192749.99999999977,
      "d": 2299.999999999971,
      "v": 87
    },
    {
      "midi": 69,
      "hit": false,
      "t": 193099.99999999977,
      "d": 166.66666666665697,
      "v": 70
    },
    {
      "midi": 71,
      "hit": false,
      "t": 193416.66666666642,
      "d": 200,
      "v": 75
    },
    {
      "midi": 67,
      "hit": false,
      "t": 194333.33333333308,
      "d": 100,
      "v": 75
    },
    {
      "midi": 62,
      "hit": false,
      "t": 194333.33333333308,
      "d": 116.66666666665697,
      "v": 51
    },
    {
      "midi": 57,
      "hit": false,
      "t": 194999.99999999974,
      "d": 300,
      "v": 92
    },
    {
      "midi": 62,
      "hit": false,
      "t": 194999.99999999974,
      "d": 900.0000000000291,
      "v": 87
    },
    {
      "midi": 59,
      "hit": false,
      "t": 195333.33333333308,
      "d": 533.333333333343,
      "v": 46
    },
    {
      "midi": 57,
      "hit": false,
      "t": 195933.3333333331,
      "d": 133.33333333334303,
      "v": 31
    },
    {
      "midi": 62,
      "hit": false,
      "t": 195966.66666666645,
      "d": 83.33333333334303,
      "v": 11
    },
    {
      "midi": 62,
      "hit": false,
      "t": 196583.3333333331,
      "d": 266.66666666665697,
      "v": 63
    },
    {
      "midi": 66,
      "hit": false,
      "t": 196583.3333333331,
      "d": 283.33333333331393,
      "v": 68
    },
    {
      "midi": 59,
      "hit": false,
      "t": 196583.3333333331,
      "d": 483.33333333331393,
      "v": 73
    },
    {
      "midi": 47,
      "hit": false,
      "t": 196583.3333333331,
      "d": 3233.333333333285,
      "v": 70
    },
    {
      "midi": 57,
      "hit": false,
      "t": 197233.33333333308,
      "d": 2599.999999999971,
      "v": 68
    },
    {
      "midi": 59,
      "hit": false,
      "t": 197866.66666666642,
      "d": 416.66666666665697,
      "v": 60
    },
    {
      "midi": 62,
      "hit": false,
      "t": 198183.33333333308,
      "d": 100,
      "v": 57
    },
    {
      "midi": 62,
      "hit": false,
      "t": 198499.99999999974,
      "d": 83.33333333334303,
      "v": 64
    },
    {
      "midi": 59,
      "hit": false,
      "t": 198499.99999999974,
      "d": 100,
      "v": 70
    },
    {
      "midi": 66,
      "hit": false,
      "t": 198499.99999999974,
      "d": 100,
      "v": 68
    },
    {
      "midi": 67,
      "hit": false,
      "t": 200133.33333333305,
      "d": 133.33333333334303,
      "v": 84
    },
    {
      "midi": 62,
      "hit": false,
      "t": 200133.33333333305,
      "d": 166.66666666665697,
      "v": 63
    },
    {
      "midi": 48,
      "hit": false,
      "t": 200433.33333333305,
      "d": 2933.3333333332557,
      "v": 67
    },
    {
      "midi": 67,
      "hit": false,
      "t": 200449.9999999997,
      "d": 799.9999999999709,
      "v": 68
    },
    {
      "midi": 64,
      "hit": false,
      "t": 200449.9999999997,
      "d": 833.3333333332848,
      "v": 53
    },
    {
      "midi": 60,
      "hit": false,
      "t": 200466.66666666637,
      "d": 799.9999999999709,
      "v": 73
    },
    {
      "midi": 62,
      "hit": false,
      "t": 201699.99999999965,
      "d": 366.66666666665697,
      "v": 72
    },
    {
      "midi": 67,
      "hit": false,
      "t": 201716.6666666663,
      "d": 1566.666666666657,
      "v": 87
    },
    {
      "midi": 64,
      "hit": false,
      "t": 202033.33333333296,
      "d": 650,
      "v": 43
    },
    {
      "midi": 60,
      "hit": false,
      "t": 202699.99999999962,
      "d": 750.0000000000291,
      "v": 41
    },
    {
      "midi": 45,
      "hit": false,
      "t": 204283.333333333,
      "d": 1083.333333333314,
      "v": 79
    },
    {
      "midi": 64,
      "hit": false,
      "t": 204283.333333333,
      "d": 1266.666666666657,
      "v": 82
    },
    {
      "midi": 67,
      "hit": false,
      "t": 204299.99999999965,
      "d": 1016.666666666657,
      "v": 84
    },
    {
      "midi": 72,
      "hit": false,
      "t": 204299.99999999965,
      "d": 1166.666666666657,
      "v": 77
    },
    {
      "midi": 72,
      "hit": false,
      "t": 206199.99999999965,
      "d": 750,
      "v": 77
    },
    {
      "midi": 67,
      "hit": false,
      "t": 206216.6666666663,
      "d": 683.333333333343,
      "v": 84
    },
    {
      "midi": 64,
      "hit": false,
      "t": 206216.6666666663,
      "d": 1200.000000000029,
      "v": 77
    },
    {
      "midi": 57,
      "hit": false,
      "t": 206216.6666666663,
      "d": 1383.333333333343,
      "v": 84
    },
    {
      "midi": 50,
      "hit": false,
      "t": 206216.6666666663,
      "d": 1500,
      "v": 67
    },
    {
      "midi": 71,
      "hit": false,
      "t": 206983.333333333,
      "d": 400,
      "v": 64
    },
    {
      "midi": 67,
      "hit": false,
      "t": 207483.333333333,
      "d": 283.33333333331393,
      "v": 84
    },
    {
      "midi": 64,
      "hit": false,
      "t": 207799.99999999965,
      "d": 83.33333333334303,
      "v": 49
    },
    {
      "midi": 59,
      "hit": false,
      "t": 208149.99999999968,
      "d": 916.6666666666279,
      "v": 70
    },
    {
      "midi": 67,
      "hit": false,
      "t": 208166.66666666634,
      "d": 133.33333333331393,
      "v": 84
    },
    {
      "midi": 62,
      "hit": false,
      "t": 208166.66666666634,
      "d": 883.3333333333139,
      "v": 55
    },
    {
      "midi": 55,
      "hit": false,
      "t": 208166.66666666634,
      "d": 3183.333333333285,
      "v": 77
    },
    {
      "midi": 67,
      "hit": false,
      "t": 208333.333333333,
      "d": 700,
      "v": 22
    },
    {
      "midi": 57,
      "hit": false,
      "t": 209399.99999999965,
      "d": 366.66666666665697,
      "v": 82
    },
    {
      "midi": 59,
      "hit": false,
      "t": 209716.6666666663,
      "d": 316.66666666665697,
      "v": 84
    },
    {
      "midi": 62,
      "hit": false,
      "t": 210049.99999999962,
      "d": 83.33333333334303,
      "v": 75
    },
    {
      "midi": 62,
      "hit": false,
      "t": 210366.6666666663,
      "d": 300,
      "v": 33
    },
    {
      "midi": 67,
      "hit": false,
      "t": 210733.33333333296,
      "d": 750,
      "v": 87
    },
    {
      "midi": 66,
      "hit": false,
      "t": 211999.99999999965,
      "d": 866.6666666666861,
      "v": 72
    },
    {
      "midi": 59,
      "hit": false,
      "t": 211999.99999999965,
      "d": 1133.333333333343,
      "v": 57
    },
    {
      "midi": 69,
      "hit": false,
      "t": 211999.99999999965,
      "d": 1150,
      "v": 70
    },
    {
      "midi": 62,
      "hit": false,
      "t": 211999.99999999965,
      "d": 1166.666666666657,
      "v": 55
    },
    {
      "midi": 66,
      "hit": false,
      "t": 213249.99999999965,
      "d": 100,
      "v": 60
    },
    {
      "midi": 52,
      "hit": false,
      "t": 213899.99999999965,
      "d": 1233.333333333314,
      "v": 64
    },
    {
      "midi": 67,
      "hit": false,
      "t": 213899.99999999965,
      "d": 1466.6666666666279,
      "v": 79
    },
    {
      "midi": 62,
      "hit": false,
      "t": 213916.6666666663,
      "d": 750,
      "v": 68
    },
    {
      "midi": 59,
      "hit": false,
      "t": 213916.6666666663,
      "d": 1233.333333333314,
      "v": 73
    },
    {
      "midi": 62,
      "hit": false,
      "t": 215166.66666666628,
      "d": 300,
      "v": 65
    },
    {
      "midi": 59,
      "hit": false,
      "t": 215483.33333333294,
      "d": 83.33333333334303,
      "v": 42
    },
    {
      "midi": 45,
      "hit": false,
      "t": 215849.99999999962,
      "d": 933.3333333333139,
      "v": 46
    },
    {
      "midi": 52,
      "hit": false,
      "t": 215866.66666666628,
      "d": 900,
      "v": 63
    },
    {
      "midi": 55,
      "hit": false,
      "t": 215866.66666666628,
      "d": 933.3333333333139,
      "v": 79
    },
    {
      "midi": 60,
      "hit": false,
      "t": 215866.66666666628,
      "d": 983.3333333333139,
      "v": 82
    },
    {
      "midi": 57,
      "hit": false,
      "t": 217766.66666666628,
      "d": 700,
      "v": 77
    },
    {
      "midi": 50,
      "hit": false,
      "t": 217766.66666666628,
      "d": 800,
      "v": 63
    },
    {
      "midi": 64,
      "hit": false,
      "t": 217766.66666666628,
      "d": 983.333333333343,
      "v": 70
    },
    {
      "midi": 67,
      "hit": false,
      "t": 217766.66666666628,
      "d": 983.333333333343,
      "v": 70
    },
    {
      "midi": 60,
      "hit": false,
      "t": 217766.66666666628,
      "d": 1066.666666666686,
      "v": 68
    },
    {
      "midi": 43,
      "hit": false,
      "t": 219649.99999999962,
      "d": 1166.666666666657,
      "v": 65
    },
    {
      "midi": 59,
      "hit": false,
      "t": 219683.33333333296,
      "d": 83.33333333331393,
      "v": 63
    },
    {
      "midi": 62,
      "hit": false,
      "t": 219683.33333333296,
      "d": 83.33333333331393,
      "v": 63
    },
    {
      "midi": 57,
      "hit": false,
      "t": 219683.33333333296,
      "d": 99.9999999999709,
      "v": 77
    },
    {
      "midi": 50,
      "hit": false,
      "t": 219999.9999999996,
      "d": 733.333333333343,
      "v": 63
    },
    {
      "midi": 55,
      "hit": false,
      "t": 220333.33333333294,
      "d": 483.33333333334303,
      "v": 54
    },
    {
      "midi": 59,
      "hit": false,
      "t": 220649.9999999996,
      "d": 816.666666666657,
      "v": 63
    },
    {
      "midi": 62,
      "hit": false,
      "t": 220983.33333333294,
      "d": 316.66666666665697,
      "v": 46
    },
    {
      "midi": 40,
      "hit": false,
      "t": 221633.33333333294,
      "d": 1549.999999999971,
      "v": 53
    },
    {
      "midi": 67,
      "hit": false,
      "t": 221649.9999999996,
      "d": 200,
      "v": 68
    },
    {
      "midi": 59,
      "hit": false,
      "t": 221666.66666666625,
      "d": 316.66666666665697,
      "v": 55
    },
    {
      "midi": 66,
      "hit": false,
      "t": 221966.66666666625,
      "d": 100,
      "v": 56
    },
    {
      "midi": 47,
      "hit": false,
      "t": 221983.3333333329,
      "d": 1216.666666666657,
      "v": 17
    },
    {
      "midi": 67,
      "hit": false,
      "t": 222283.3333333329,
      "d": 116.66666666665697,
      "v": 72
    },
    {
      "midi": 52,
      "hit": false,
      "t": 222633.3333333329,
      "d": 666.666666666657,
      "v": 35
    },
    {
      "midi": 62,
      "hit": false,
      "t": 222949.99999999956,
      "d": 283.33333333334303,
      "v": 48
    },
    {
      "midi": 57,
      "hit": false,
      "t": 222949.99999999956,
      "d": 300,
      "v": 45
    },
    {
      "midi": 45,
      "hit": false,
      "t": 223516.66666666622,
      "d": 1266.666666666686,
      "v": 77
    },
    {
      "midi": 64,
      "hit": false,
      "t": 223533.33333333288,
      "d": 66.66666666668607,
      "v": 73
    },
    {
      "midi": 67,
      "hit": false,
      "t": 223533.33333333288,
      "d": 66.66666666668607,
      "v": 82
    },
    {
      "midi": 60,
      "hit": false,
      "t": 223533.33333333288,
      "d": 116.66666666668607,
      "v": 75
    },
    {
      "midi": 52,
      "hit": false,
      "t": 223849.99999999956,
      "d": 866.666666666657,
      "v": 70
    },
    {
      "midi": 59,
      "hit": false,
      "t": 223883.3333333329,
      "d": 150,
      "v": 57
    },
    {
      "midi": 60,
      "hit": false,
      "t": 224166.66666666625,
      "d": 266.66666666665697,
      "v": 84
    },
    {
      "midi": 57,
      "hit": false,
      "t": 224166.66666666625,
      "d": 549.9999999999709,
      "v": 63
    },
    {
      "midi": 67,
      "hit": false,
      "t": 224533.3333333329,
      "d": 216.66666666665697,
      "v": 84
    },
    {
      "midi": 60,
      "hit": false,
      "t": 224549.99999999956,
      "d": 233.33333333334303,
      "v": 79
    },
    {
      "midi": 59,
      "hit": false,
      "t": 224833.3333333329,
      "d": 83.33333333334303,
      "v": 29
    },
    {
      "midi": 38,
      "hit": false,
      "t": 225483.3333333329,
      "d": 1250,
      "v": 60
    },
    {
      "midi": 60,
      "hit": false,
      "t": 225499.99999999956,
      "d": 1100,
      "v": 72
    },
    {
      "midi": 55,
      "hit": false,
      "t": 225499.99999999956,
      "d": 1183.333333333343,
      "v": 87
    },
    {
      "midi": 50,
      "hit": false,
      "t": 225499.99999999956,
      "d": 1216.666666666686,
      "v": 36
    },
    {
      "midi": 64,
      "hit": false,
      "t": 225499.99999999956,
      "d": 1216.666666666686,
      "v": 87
    },
    {
      "midi": 64,
      "hit": false,
      "t": 229349.99999999956,
      "d": 266.66666666668607,
      "v": 77
    },
    {
      "midi": 72,
      "hit": false,
      "t": 229349.99999999956,
      "d": 266.66666666668607,
      "v": 87
    },
    {
      "midi": 60,
      "hit": false,
      "t": 229349.99999999956,
      "d": 483.33333333334303,
      "v": 64
    },
    {
      "midi": 48,
      "hit": false,
      "t": 229349.99999999956,
      "d": 600,
      "v": 73
    },
    {
      "midi": 67,
      "hit": false,
      "t": 229683.3333333329,
      "d": 283.33333333331393,
      "v": 51
    },
    {
      "midi": 64,
      "hit": false,
      "t": 229999.99999999956,
      "d": 183.33333333334303,
      "v": 51
    },
    {
      "midi": 59,
      "hit": false,
      "t": 230333.3333333329,
      "d": 516.666666666657,
      "v": 50
    },
    {
      "midi": 67,
      "hit": false,
      "t": 230349.99999999956,
      "d": 50,
      "v": 46
    },
    {
      "midi": 62,
      "hit": false,
      "t": 230349.99999999956,
      "d": 383.33333333334303,
      "v": 61
    },
    {
      "midi": 47,
      "hit": false,
      "t": 230349.99999999956,
      "d": 483.33333333334303,
      "v": 61
    },
    {
      "midi": 71,
      "hit": false,
      "t": 230349.99999999956,
      "d": 483.33333333334303,
      "v": 84
    },
    {
      "midi": 67,
      "hit": false,
      "t": 230683.3333333329,
      "d": 283.33333333331393,
      "v": 67
    },
    {
      "midi": 62,
      "hit": false,
      "t": 231049.99999999956,
      "d": 183.33333333331393,
      "v": 33
    },
    {
      "midi": 57,
      "hit": false,
      "t": 231383.33333333288,
      "d": 449.9999999999709,
      "v": 65
    },
    {
      "midi": 67,
      "hit": false,
      "t": 231383.33333333288,
      "d": 583.3333333333139,
      "v": 87
    },
    {
      "midi": 60,
      "hit": false,
      "t": 231399.99999999953,
      "d": 166.66666666665697,
      "v": 73
    },
    {
      "midi": 64,
      "hit": false,
      "t": 231399.99999999953,
      "d": 350,
      "v": 75
    },
    {
      "midi": 60,
      "hit": false,
      "t": 231766.6666666662,
      "d": 300,
      "v": 46
    },
    {
      "midi": 60,
      "hit": false,
      "t": 232116.6666666662,
      "d": 166.66666666665697,
      "v": 20
    },
    {
      "midi": 64,
      "hit": false,
      "t": 232116.6666666662,
      "d": 183.33333333331393,
      "v": 73
    },
    {
      "midi": 57,
      "hit": false,
      "t": 232466.66666666616,
      "d": 316.66666666665697,
      "v": 79
    },
    {
      "midi": 50,
      "hit": false,
      "t": 232466.66666666616,
      "d": 333.33333333331393,
      "v": 54
    },
    {
      "midi": 64,
      "hit": false,
      "t": 232483.33333333282,
      "d": 350,
      "v": 84
    },
    {
      "midi": 67,
      "hit": false,
      "t": 232483.33333333282,
      "d": 583.333333333343,
      "v": 89
    },
    {
      "midi": 60,
      "hit": false,
      "t": 232483.33333333282,
      "d": 616.6666666666861,
      "v": 77
    },
    {
      "midi": 66,
      "hit": false,
      "t": 233199.9999999995,
      "d": 366.66666666665697,
      "v": 51
    },
    {
      "midi": 60,
      "hit": false,
      "t": 233599.9999999995,
      "d": 233.33333333334303,
      "v": 1
    },
    {
      "midi": 43,
      "hit": false,
      "t": 233599.9999999995,
      "d": 4250,
      "v": 79
    },
    {
      "midi": 67,
      "hit": false,
      "t": 233616.66666666616,
      "d": 183.33333333334303,
      "v": 87
    },
    {
      "midi": 50,
      "hit": false,
      "t": 234016.6666666662,
      "d": 4249.999999999971,
      "v": 61
    },
    {
      "midi": 55,
      "hit": false,
      "t": 234349.99999999953,
      "d": 4249.999999999971,
      "v": 67
    },
    {
      "midi": 57,
      "hit": false,
      "t": 234599.99999999953,
      "d": 316.66666666668607,
      "v": 63
    },
    {
      "midi": 59,
      "hit": false,
      "t": 234883.33333333288,
      "d": 250,
      "v": 60
    },
    {
      "midi": 62,
      "hit": false,
      "t": 235149.99999999953,
      "d": 100,
      "v": 55
    },
    {
      "midi": 67,
      "hit": false,
      "t": 235516.6666666662,
      "d": 166.66666666665697,
      "v": 73
    }
  ]
}