{
  "jsonPath": "Soundtracks/Soundtrack/Tyler Bates/dont-get-too-misty-eyed-album-version.json",
  "path": "Soundtracks\\Soundtrack\\Tyler Bates\\Dont Get Too Misty Eyed (Album Version).mid",
  "name": "Dont Get Too Misty Eyed (Album Version)",
  "difficulty": "Advanced",
  "bpm": 77.000077000077,
  "notes": [
    {
      "midi": 62,
      "hit": false,
      "t": 4000,
      "d": 1083.333333333333,
      "v": 92
    },
    {
      "midi": 70,
      "hit": false,
      "t": 4000,
      "d": 1125,
      "v": 92
    },
    {
      "midi": 65,
      "hit": false,
      "t": 4000,
      "d": 1141.666666666667,
      "v": 86
    },
    {
      "midi": 46,
      "hit": false,
      "t": 4000,
      "d": 2058.333333333333,
      "v": 108
    },
    {
      "midi": 53,
      "hit": false,
      "t": 4500,
      "d": 1391.666666666667,
      "v": 70
    },
    {
      "midi": 58,
      "hit": false,
      "t": 5000,
      "d": 1000,
      "v": 72
    },
    {
      "midi": 46,
      "hit": false,
      "t": 6500,
      "d": 725,
      "v": 95
    },
    {
      "midi": 53,
      "hit": false,
      "t": 6750,
      "d": 625,
      "v": 89
    },
    {
      "midi": 74,
      "hit": false,
      "t": 7000,
      "d": 891.6666666666661,
      "v": 103
    },
    {
      "midi": 70,
      "hit": false,
      "t": 7500,
      "d": 308.33333333333303,
      "v": 103
    },
    {
      "midi": 67,
      "hit": false,
      "t": 7750,
      "d": 874.9999999999982,
      "v": 86
    },
    {
      "midi": 72,
      "hit": false,
      "t": 7999.999999999999,
      "d": 666.6666666666652,
      "v": 108
    },
    {
      "midi": 48,
      "hit": false,
      "t": 7999.999999999999,
      "d": 3208.333333333333,
      "v": 95
    },
    {
      "midi": 51,
      "hit": false,
      "t": 8499.999999999998,
      "d": 1558.333333333334,
      "v": 75
    },
    {
      "midi": 55,
      "hit": false,
      "t": 8999.999999999998,
      "d": 1183.333333333334,
      "v": 57
    },
    {
      "midi": 63,
      "hit": false,
      "t": 9499.999999999998,
      "d": 266.66666666666606,
      "v": 108
    },
    {
      "midi": 60,
      "hit": false,
      "t": 9749.999999999998,
      "d": 958.3333333333339,
      "v": 80
    },
    {
      "midi": 67,
      "hit": false,
      "t": 9999.999999999998,
      "d": 1333.3333333333321,
      "v": 83
    },
    {
      "midi": 55,
      "hit": false,
      "t": 10499.999999999998,
      "d": 625,
      "v": 70
    },
    {
      "midi": 51,
      "hit": false,
      "t": 10999.999999999998,
      "d": 266.66666666666606,
      "v": 63
    },
    {
      "midi": 60,
      "hit": false,
      "t": 11249.999999999998,
      "d": 308.3333333333321,
      "v": 108
    },
    {
      "midi": 62,
      "hit": false,
      "t": 11499.999999999996,
      "d": 433.33333333333394,
      "v": 95
    },
    {
      "midi": 39,
      "hit": false,
      "t": 11999.999999999996,
      "d": 475,
      "v": 103
    },
    {
      "midi": 63,
      "hit": false,
      "t": 11999.999999999996,
      "d": 808.3333333333339,
      "v": 103
    },
    {
      "midi": 51,
      "hit": false,
      "t": 12499.999999999996,
      "d": 208.33333333333394,
      "v": 63
    },
    {
      "midi": 63,
      "hit": false,
      "t": 12999.999999999996,
      "d": 250,
      "v": 83
    },
    {
      "midi": 67,
      "hit": false,
      "t": 12999.999999999996,
      "d": 391.66666666666606,
      "v": 70
    },
    {
      "midi": 51,
      "hit": false,
      "t": 13499.999999999996,
      "d": 1850,
      "v": 92
    },
    {
      "midi": 58,
      "hit": false,
      "t": 13749.999999999996,
      "d": 1250,
      "v": 63
    },
    {
      "midi": 55,
      "hit": false,
      "t": 14249.999999999996,
      "d": 1291.666666666666,
      "v": 80
    },
    {
      "midi": 67,
      "hit": false,
      "t": 14499.999999999996,
      "d": 541.6666666666661,
      "v": 99
    },
    {
      "midi": 75,
      "hit": false,
      "t": 14999.999999999996,
      "d": 791.6666666666661,
      "v": 108
    },
    {
      "midi": 67,
      "hit": false,
      "t": 15499.999999999996,
      "d": 516.6666666666661,
      "v": 78
    },
    {
      "midi": 41,
      "hit": false,
      "t": 15999.999999999996,
      "d": 958.3333333333321,
      "v": 103
    },
    {
      "midi": 53,
      "hit": false,
      "t": 16499.999999999996,
      "d": 683.3333333333321,
      "v": 61
    },
    {
      "midi": 69,
      "hit": false,
      "t": 16999.999999999996,
      "d": 1083.3333333333321,
      "v": 78
    },
    {
      "midi": 72,
      "hit": false,
      "t": 16999.999999999996,
      "d": 1166.6666666666642,
      "v": 72
    },
    {
      "midi": 65,
      "hit": false,
      "t": 17499.999999999996,
      "d": 558.3333333333321,
      "v": 78
    },
    {
      "midi": 53,
      "hit": false,
      "t": 17999.999999999996,
      "d": 58.33333333333212,
      "v": 75
    },
    {
      "midi": 58,
      "hit": false,
      "t": 17999.999999999996,
      "d": 3058.3333333333358,
      "v": 86
    },
    {
      "midi": 46,
      "hit": false,
      "t": 17999.999999999996,
      "d": 3375.0000000000036,
      "v": 103
    },
    {
      "midi": 53,
      "hit": false,
      "t": 18499.999999999996,
      "d": 2475.0000000000036,
      "v": 75
    },
    {
      "midi": 77,
      "hit": false,
      "t": 18974.999999999996,
      "d": 83.33333333333576,
      "v": 99
    },
    {
      "midi": 79,
      "hit": false,
      "t": 19041.666666666664,
      "d": 416.6666666666679,
      "v": 95
    },
    {
      "midi": 77,
      "hit": false,
      "t": 19500,
      "d": 333.3333333333321,
      "v": 99
    },
    {
      "midi": 74,
      "hit": false,
      "t": 20000,
      "d": 433.3333333333321,
      "v": 103
    },
    {
      "midi": 72,
      "hit": false,
      "t": 20500,
      "d": 475,
      "v": 108
    },
    {
      "midi": 70,
      "hit": false,
      "t": 21000,
      "d": 516.6666666666679,
      "v": 103
    },
    {
      "midi": 67,
      "hit": false,
      "t": 21500,
      "d": 350,
      "v": 92
    },
    {
      "midi": 53,
      "hit": false,
      "t": 22000,
      "d": 2808.333333333332,
      "v": 89
    },
    {
      "midi": 58,
      "hit": false,
      "t": 22000,
      "d": 2875,
      "v": 89
    },
    {
      "midi": 62,
      "hit": false,
      "t": 22000,
      "d": 3000,
      "v": 99
    },
    {
      "midi": 65,
      "hit": false,
      "t": 22000,
      "d": 3016.666666666668,
      "v": 99
    },
    {
      "midi": 46,
      "hit": false,
      "t": 22000,
      "d": 3041.666666666668,
      "v": 78
    },
    {
      "midi": 70,
      "hit": false,
      "t": 26000,
      "d": 933.3333333333358,
      "v": 89
    },
    {
      "midi": 62,
      "hit": false,
      "t": 26000,
      "d": 1000.0000000000036,
      "v": 89
    },
    {
      "midi": 65,
      "hit": false,
      "t": 26000,
      "d": 1041.6666666666715,
      "v": 89
    },
    {
      "midi": 46,
      "hit": false,
      "t": 26000,
      "d": 2125.0000000000036,
      "v": 86
    },
    {
      "midi": 53,
      "hit": false,
      "t": 26500,
      "d": 1475.0000000000036,
      "v": 72
    },
    {
      "midi": 58,
      "hit": false,
      "t": 27000.000000000004,
      "d": 1100,
      "v": 70
    },
    {
      "midi": 65,
      "hit": false,
      "t": 27500.000000000004,
      "d": 500,
      "v": 89
    },
    {
      "midi": 74,
      "hit": false,
      "t": 28000.000000000004,
      "d": 725,
      "v": 89
    },
    {
      "midi": 46,
      "hit": false,
      "t": 28500.000000000004,
      "d": 875,
      "v": 89
    },
    {
      "midi": 58,
      "hit": false,
      "t": 28750.000000000004,
      "d": 333.3333333333321,
      "v": 83
    },
    {
      "midi": 74,
      "hit": false,
      "t": 29000.000000000004,
      "d": 1458.3333333333321,
      "v": 89
    },
    {
      "midi": 70,
      "hit": false,
      "t": 29500.000000000004,
      "d": 958.3333333333321,
      "v": 99
    },
    {
      "midi": 65,
      "hit": false,
      "t": 30000.000000000004,
      "d": 558.3333333333321,
      "v": 86
    },
    {
      "midi": 46,
      "hit": false,
      "t": 30000.000000000004,
      "d": 3124.9999999999964,
      "v": 89
    },
    {
      "midi": 53,
      "hit": false,
      "t": 30500.000000000004,
      "d": 2433.333333333332,
      "v": 65
    },
    {
      "midi": 65,
      "hit": false,
      "t": 31000.000000000004,
      "d": 583.3333333333321,
      "v": 70
    },
    {
      "midi": 62,
      "hit": false,
      "t": 31500.000000000004,
      "d": 500,
      "v": 75
    },
    {
      "midi": 70,
      "hit": false,
      "t": 32000.000000000004,
      "d": 641.6666666666679,
      "v": 86
    },
    {
      "midi": 58,
      "hit": false,
      "t": 32500.000000000004,
      "d": 558.3333333333321,
      "v": 53
    },
    {
      "midi": 70,
      "hit": false,
      "t": 33000,
      "d": 391.66666666666424,
      "v": 89
    },
    {
      "midi": 65,
      "hit": false,
      "t": 33250,
      "d": 225,
      "v": 75
    },
    {
      "midi": 62,
      "hit": false,
      "t": 33500,
      "d": 600,
      "v": 92
    },
    {
      "midi": 48,
      "hit": false,
      "t": 34000,
      "d": 3391.6666666666642,
      "v": 80
    },
    {
      "midi": 55,
      "hit": false,
      "t": 34500,
      "d": 1516.6666666666642,
      "v": 46
    },
    {
      "midi": 63,
      "hit": false,
      "t": 35000,
      "d": 416.66666666666424,
      "v": 95
    },
    {
      "midi": 60,
      "hit": false,
      "t": 35500,
      "d": 916.6666666666642,
      "v": 63
    },
    {
      "midi": 67,
      "hit": false,
      "t": 36000,
      "d": 558.3333333333358,
      "v": 80
    },
    {
      "midi": 55,
      "hit": false,
      "t": 36500,
      "d": 891.6666666666642,
      "v": 48
    },
    {
      "midi": 51,
      "hit": false,
      "t": 37000,
      "d": 266.66666666666424,
      "v": 65
    },
    {
      "midi": 67,
      "hit": false,
      "t": 37500,
      "d": 266.66666666666424,
      "v": 75
    },
    {
      "midi": 63,
      "hit": false,
      "t": 37750,
      "d": 833.3333333333285,
      "v": 78
    },
    {
      "midi": 72,
      "hit": false,
      "t": 38000,
      "d": 516.6666666666642,
      "v": 86
    },
    {
      "midi": 48,
      "hit": false,
      "t": 38000,
      "d": 3349.9999999999927,
      "v": 78
    },
    {
      "midi": 51,
      "hit": false,
      "t": 38500,
      "d": 1474.9999999999927,
      "v": 59
    },
    {
      "midi": 55,
      "hit": false,
      "t": 38999.99999999999,
      "d": 1083.3333333333358,
      "v": 53
    },
    {
      "midi": 63,
      "hit": false,
      "t": 39499.99999999999,
      "d": 225,
      "v": 80
    },
    {
      "midi": 60,
      "hit": false,
      "t": 39749.99999999999,
      "d": 975,
      "v": 61
    },
    {
      "midi": 55,
      "hit": false,
      "t": 40499.99999999999,
      "d": 708.3333333333358,
      "v": 50
    },
    {
      "midi": 60,
      "hit": false,
      "t": 40999.99999999999,
      "d": 500,
      "v": 83
    },
    {
      "midi": 62,
      "hit": false,
      "t": 41499.99999999999,
      "d": 416.66666666666424,
      "v": 80
    },
    {
      "midi": 67,
      "hit": false,
      "t": 41999.99999999999,
      "d": 16.66666666666424,
      "v": 83
    },
    {
      "midi": 39,
      "hit": false,
      "t": 41999.99999999999,
      "d": 516.6666666666642,
      "v": 99
    },
    {
      "midi": 63,
      "hit": false,
      "t": 41999.99999999999,
      "d": 1183.3333333333285,
      "v": 95
    },
    {
      "midi": 51,
      "hit": false,
      "t": 42499.99999999999,
      "d": 183.33333333332848,
      "v": 45
    },
    {
      "midi": 51,
      "hit": false,
      "t": 43499.999999999985,
      "d": 1666.6666666666642,
      "v": 86
    },
    {
      "midi": 58,
      "hit": false,
      "t": 43999.999999999985,
      "d": 933.3333333333358,
      "v": 72
    },
    {
      "midi": 55,
      "hit": false,
      "t": 44499.999999999985,
      "d": 750,
      "v": 45
    },
    {
      "midi": 75,
      "hit": false,
      "t": 44999.999999999985,
      "d": 433.33333333333576,
      "v": 86
    },
    {
      "midi": 70,
      "hit": false,
      "t": 44999.999999999985,
      "d": 475,
      "v": 89
    },
    {
      "midi": 67,
      "hit": false,
      "t": 45499.999999999985,
      "d": 291.66666666666424,
      "v": 92
    },
    {
      "midi": 65,
      "hit": false,
      "t": 45999.999999999985,
      "d": 850,
      "v": 92
    },
    {
      "midi": 69,
      "hit": false,
      "t": 45999.999999999985,
      "d": 875,
      "v": 86
    },
    {
      "midi": 53,
      "hit": false,
      "t": 45999.999999999985,
      "d": 3083.3333333333358,
      "v": 80
    },
    {
      "midi": 57,
      "hit": false,
      "t": 46499.999999999985,
      "d": 2458.3333333333358,
      "v": 75
    },
    {
      "midi": 72,
      "hit": false,
      "t": 46999.999999999985,
      "d": 433.33333333333576,
      "v": 63
    },
    {
      "midi": 69,
      "hit": false,
      "t": 46999.999999999985,
      "d": 475,
      "v": 68
    },
    {
      "midi": 65,
      "hit": false,
      "t": 47499.999999999985,
      "d": 416.66666666666424,
      "v": 46
    },
    {
      "midi": 60,
      "hit": false,
      "t": 47499.999999999985,
      "d": 666.6666666666642,
      "v": 38
    },
    {
      "midi": 75,
      "hit": false,
      "t": 47999.999999999985,
      "d": 416.66666666666424,
      "v": 95
    },
    {
      "midi": 65,
      "hit": false,
      "t": 48499.999999999985,
      "d": 375,
      "v": 70
    },
    {
      "midi": 72,
      "hit": false,
      "t": 48999.999999999985,
      "d": 250,
      "v": 75
    },
    {
      "midi": 46,
      "hit": false,
      "t": 49999.999999999985,
      "d": 2266.6666666666642,
      "v": 92
    },
    {
      "midi": 58,
      "hit": false,
      "t": 50499.999999999985,
      "d": 1791.6666666666642,
      "v": 57
    },
    {
      "midi": 65,
      "hit": false,
      "t": 50999.999999999985,
      "d": 475,
      "v": 61
    },
    {
      "midi": 62,
      "hit": false,
      "t": 51499.999999999985,
      "d": 225,
      "v": 72
    },
    {
      "midi": 70,
      "hit": false,
      "t": 51999.999999999985,
      "d": 750,
      "v": 103
    },
    {
      "midi": 46,
      "hit": false,
      "t": 52499.999999999985,
      "d": 583.3333333333358,
      "v": 70
    },
    {
      "midi": 72,
      "hit": false,
      "t": 52999.999999999985,
      "d": 458.33333333333576,
      "v": 75
    },
    {
      "midi": 74,
      "hit": false,
      "t": 53499.999999999985,
      "d": 1183.3333333333358,
      "v": 70
    },
    {
      "midi": 65,
      "hit": false,
      "t": 53749.999999999985,
      "d": 1041.6666666666715,
      "v": 48
    },
    {
      "midi": 70,
      "hit": false,
      "t": 53999.999999999985,
      "d": 683.3333333333358,
      "v": 99
    },
    {
      "midi": 46,
      "hit": false,
      "t": 53999.999999999985,
      "d": 2725.0000000000073,
      "v": 86
    },
    {
      "midi": 53,
      "hit": false,
      "t": 54499.999999999985,
      "d": 1975.0000000000073,
      "v": 59
    },
    {
      "midi": 58,
      "hit": false,
      "t": 55499.99999999999,
      "d": 891.6666666666642,
      "v": 57
    },
    {
      "midi": 65,
      "hit": false,
      "t": 55999.99999999999,
      "d": 583.3333333333358,
      "v": 50
    },
    {
      "midi": 62,
      "hit": false,
      "t": 56499.99999999999,
      "d": 1100,
      "v": 50
    },
    {
      "midi": 65,
      "hit": false,
      "t": 57999.99999999999,
      "d": 583.3333333333358,
      "v": 75
    },
    {
      "midi": 62,
      "hit": false,
      "t": 57999.99999999999,
      "d": 600,
      "v": 57
    },
    {
      "midi": 70,
      "hit": false,
      "t": 57999.99999999999,
      "d": 725,
      "v": 75
    },
    {
      "midi": 53,
      "hit": false,
      "t": 57999.99999999999,
      "d": 3541.6666666666642,
      "v": 53
    },
    {
      "midi": 58,
      "hit": false,
      "t": 58499.99999999999,
      "d": 975,
      "v": 68
    },
    {
      "midi": 62,
      "hit": false,
      "t": 59499.99999999999,
      "d": 1958.3333333333358,
      "v": 46
    },
    {
      "midi": 72,
      "hit": false,
      "t": 59999.99999999999,
      "d": 250,
      "v": 92
    },
    {
      "midi": 67,
      "hit": false,
      "t": 59999.99999999999,
      "d": 933.3333333333358,
      "v": 83
    },
    {
      "midi": 58,
      "hit": false,
      "t": 59999.99999999999,
      "d": 1641.6666666666642,
      "v": 75
    },
    {
      "midi": 74,
      "hit": false,
      "t": 60249.99999999999,
      "d": 808.3333333333358,
      "v": 78
    },
    {
      "midi": 72,
      "hit": false,
      "t": 61499.99999999999,
      "d": 225,
      "v": 108
    },
    {
      "midi": 70,
      "hit": false,
      "t": 61749.99999999999,
      "d": 225,
      "v": 116
    },
    {
      "midi": 72,
      "hit": false,
      "t": 61999.99999999999,
      "d": 250,
      "v": 65
    },
    {
      "midi": 74,
      "hit": false,
      "t": 61999.99999999999,
      "d": 2541.6666666666642,
      "v": 75
    },
    {
      "midi": 53,
      "hit": false,
      "t": 61999.99999999999,
      "d": 2583.3333333333285,
      "v": 78
    },
    {
      "midi": 58,
      "hit": false,
      "t": 62499.99999999999,
      "d": 2124.9999999999927,
      "v": 75
    },
    {
      "midi": 62,
      "hit": false,
      "t": 63499.99999999999,
      "d": 1000,
      "v": 32
    },
    {
      "midi": 60,
      "hit": false,
      "t": 65999.99999999999,
      "d": 666.6666666666715,
      "v": 65
    },
    {
      "midi": 63,
      "hit": false,
      "t": 65999.99999999999,
      "d": 666.6666666666715,
      "v": 78
    },
    {
      "midi": 67,
      "hit": false,
      "t": 65999.99999999999,
      "d": 808.333333333343,
      "v": 72
    },
    {
      "midi": 48,
      "hit": false,
      "t": 65999.99999999999,
      "d": 5916.666666666701,
      "v": 65
    },
    {
      "midi": 55,
      "hit": false,
      "t": 66499.99999999999,
      "d": 750.0000000000146,
      "v": 42
    },
    {
      "midi": 74,
      "hit": false,
      "t": 68000,
      "d": 141.66666666667152,
      "v": 92
    },
    {
      "midi": 75,
      "hit": false,
      "t": 68000,
      "d": 350,
      "v": 72
    },
    {
      "midi": 79,
      "hit": false,
      "t": 68000,
      "d": 850,
      "v": 83
    },
    {
      "midi": 74,
      "hit": false,
      "t": 68500,
      "d": 350,
      "v": 78
    },
    {
      "midi": 74,
      "hit": false,
      "t": 69000,
      "d": 350,
      "v": 103
    },
    {
      "midi": 79,
      "hit": false,
      "t": 69000,
      "d": 391.6666666666715,
      "v": 92
    },
    {
      "midi": 72,
      "hit": false,
      "t": 69500,
      "d": 225,
      "v": 83
    },
    {
      "midi": 79,
      "hit": false,
      "t": 69500,
      "d": 433.3333333333285,
      "v": 70
    },
    {
      "midi": 75,
      "hit": false,
      "t": 70000,
      "d": 16.666666666671517,
      "v": 103
    },
    {
      "midi": 74,
      "hit": false,
      "t": 70000,
      "d": 83.33333333334303,
      "v": 103
    },
    {
      "midi": 79,
      "hit": false,
      "t": 70000,
      "d": 1916.666666666686,
      "v": 103
    },
    {
      "midi": 75,
      "hit": false,
      "t": 70250.00000000001,
      "d": 1725,
      "v": 95
    },
    {
      "midi": 58,
      "hit": false,
      "t": 74000.00000000001,
      "d": 3141.666666666715,
      "v": 70
    },
    {
      "midi": 51,
      "hit": false,
      "t": 74000.00000000001,
      "d": 3416.666666666715,
      "v": 83
    },
    {
      "midi": 65,
      "hit": false,
      "t": 75750.00000000003,
      "d": 141.66666666667152,
      "v": 95
    },
    {
      "midi": 67,
      "hit": false,
      "t": 76000.00000000003,
      "d": 391.6666666666715,
      "v": 116
    },
    {
      "midi": 75,
      "hit": false,
      "t": 76000.00000000003,
      "d": 458.33333333334303,
      "v": 108
    },
    {
      "midi": 67,
      "hit": false,
      "t": 76500.00000000004,
      "d": 391.6666666666715,
      "v": 99
    },
    {
      "midi": 75,
      "hit": false,
      "t": 76500.00000000004,
      "d": 433.33333333334303,
      "v": 108
    },
    {
      "midi": 67,
      "hit": false,
      "t": 77000.00000000006,
      "d": 308.33333333334303,
      "v": 92
    },
    {
      "midi": 75,
      "hit": false,
      "t": 77000.00000000006,
      "d": 333.33333333334303,
      "v": 95
    },
    {
      "midi": 75,
      "hit": false,
      "t": 77500.00000000006,
      "d": 308.3333333333285,
      "v": 95
    },
    {
      "midi": 67,
      "hit": false,
      "t": 77500.00000000006,
      "d": 391.66666666665697,
      "v": 86
    },
    {
      "midi": 53,
      "hit": false,
      "t": 78000.00000000004,
      "d": 2708.3333333333285,
      "v": 75
    },
    {
      "midi": 69,
      "hit": false,
      "t": 78000.00000000004,
      "d": 2708.3333333333285,
      "v": 99
    },
    {
      "midi": 72,
      "hit": false,
      "t": 78000.00000000004,
      "d": 2791.666666666657,
      "v": 99
    },
    {
      "midi": 60,
      "hit": false,
      "t": 78500.00000000004,
      "d": 1183.3333333333285,
      "v": 48
    },
    {
      "midi": 65,
      "hit": false,
      "t": 81500.00000000003,
      "d": 433.3333333333285,
      "v": 86
    },
    {
      "midi": 69,
      "hit": false,
      "t": 81500.00000000003,
      "d": 458.3333333333285,
      "v": 95
    },
    {
      "midi": 46,
      "hit": false,
      "t": 82000.00000000003,
      "d": 600,
      "v": 92
    },
    {
      "midi": 70,
      "hit": false,
      "t": 82000.00000000003,
      "d": 1416.6666666666715,
      "v": 89
    },
    {
      "midi": 65,
      "hit": false,
      "t": 82000.00000000003,
      "d": 1708.3333333333285,
      "v": 78
    },
    {
      "midi": 58,
      "hit": false,
      "t": 82500.00000000003,
      "d": 350,
      "v": 63
    },
    {
      "midi": 58,
      "hit": false,
      "t": 83500.00000000003,
      "d": 1350,
      "v": 80
    },
    {
      "midi": 62,
      "hit": false,
      "t": 84250.00000000003,
      "d": 641.6666666666715,
      "v": 26
    },
    {
      "midi": 53,
      "hit": false,
      "t": 85000.00000000003,
      "d": 58.33333333332848,
      "v": 28
    },
    {
      "midi": 46,
      "hit": false,
      "t": 86000.00000000001,
      "d": 516.6666666666715,
      "v": 83
    },
    {
      "midi": 62,
      "hit": false,
      "t": 86000.00000000001,
      "d": 708.333333333343,
      "v": 50
    },
    {
      "midi": 70,
      "hit": false,
      "t": 86000.00000000001,
      "d": 725.0000000000146,
      "v": 72
    },
    {
      "midi": 65,
      "hit": false,
      "t": 86000.00000000001,
      "d": 750.0000000000146,
      "v": 83
    },
    {
      "midi": 53,
      "hit": false,
      "t": 87500.00000000003,
      "d": 2141.6666666666715,
      "v": 43
    },
    {
      "midi": 58,
      "hit": false,
      "t": 88000.00000000003,
      "d": 1500,
      "v": 61
    },
    {
      "midi": 62,
      "hit": false,
      "t": 88250.00000000003,
      "d": 208.33333333332848,
      "v": 35
    },
    {
      "midi": 70,
      "hit": false,
      "t": 88500.00000000003,
      "d": 166.66666666667152,
      "v": 116
    },
    {
      "midi": 74,
      "hit": false,
      "t": 88500.00000000003,
      "d": 183.33333333334303,
      "v": 95
    },
    {
      "midi": 65,
      "hit": false,
      "t": 88500.00000000003,
      "d": 391.6666666666715,
      "v": 86
    },
    {
      "midi": 70,
      "hit": false,
      "t": 88750.00000000004,
      "d": 83.33333333332848,
      "v": 92
    },
    {
      "midi": 74,
      "hit": false,
      "t": 88750.00000000004,
      "d": 141.66666666665697,
      "v": 70
    },
    {
      "midi": 62,
      "hit": false,
      "t": 89000.00000000003,
      "d": 291.6666666666715,
      "v": 28
    },
    {
      "midi": 70,
      "hit": false,
      "t": 89250.00000000003,
      "d": 100,
      "v": 103
    },
    {
      "midi": 65,
      "hit": false,
      "t": 89250.00000000003,
      "d": 125,
      "v": 75
    },
    {
      "midi": 74,
      "hit": false,
      "t": 89250.00000000003,
      "d": 125,
      "v": 80
    },
    {
      "midi": 59,
      "hit": false,
      "t": 90000.00000000003,
      "d": 225,
      "v": 89
    },
    {
      "midi": 65,
      "hit": false,
      "t": 90000.00000000003,
      "d": 225,
      "v": 86
    },
    {
      "midi": 60,
      "hit": false,
      "t": 90000.00000000003,
      "d": 2041.6666666666715,
      "v": 86
    },
    {
      "midi": 63,
      "hit": false,
      "t": 90000.00000000003,
      "d": 2058.333333333343,
      "v": 116
    },
    {
      "midi": 67,
      "hit": false,
      "t": 90000.00000000003,
      "d": 2083.333333333343,
      "v": 92
    },
    {
      "midi": 48,
      "hit": false,
      "t": 92000.00000000003,
      "d": 2100.0000000000146,
      "v": 70
    },
    {
      "midi": 63,
      "hit": false,
      "t": 92500.00000000004,
      "d": 100,
      "v": 124
    },
    {
      "midi": 67,
      "hit": false,
      "t": 92500.00000000004,
      "d": 125,
      "v": 95
    },
    {
      "midi": 60,
      "hit": false,
      "t": 92500.00000000004,
      "d": 141.66666666667152,
      "v": 103
    },
    {
      "midi": 60,
      "hit": false,
      "t": 92750.00000000004,
      "d": 125,
      "v": 61
    },
    {
      "midi": 63,
      "hit": false,
      "t": 92750.00000000004,
      "d": 125,
      "v": 86
    },
    {
      "midi": 67,
      "hit": false,
      "t": 92750.00000000004,
      "d": 125,
      "v": 78
    },
    {
      "midi": 55,
      "hit": false,
      "t": 93000.00000000004,
      "d": 208.33333333332848,
      "v": 38
    },
    {
      "midi": 60,
      "hit": false,
      "t": 93250.00000000004,
      "d": 100,
      "v": 92
    },
    {
      "midi": 63,
      "hit": false,
      "t": 93250.00000000004,
      "d": 100,
      "v": 108
    },
    {
      "midi": 67,
      "hit": false,
      "t": 93250.00000000004,
      "d": 100,
      "v": 89
    },
    {
      "midi": 55,
      "hit": false,
      "t": 93750.00000000004,
      "d": 625,
      "v": 55
    },
    {
      "midi": 58,
      "hit": false,
      "t": 94000.00000000004,
      "d": 1000,
      "v": 95
    },
    {
      "midi": 63,
      "hit": false,
      "t": 94000.00000000004,
      "d": 1225,
      "v": 89
    },
    {
      "midi": 67,
      "hit": false,
      "t": 94000.00000000004,
      "d": 1250,
      "v": 89
    },
    {
      "midi": 67,
      "hit": false,
      "t": 96500.00000000004,
      "d": 141.66666666667152,
      "v": 80
    },
    {
      "midi": 70,
      "hit": false,
      "t": 96500.00000000004,
      "d": 141.66666666667152,
      "v": 89
    },
    {
      "midi": 63,
      "hit": false,
      "t": 96500.00000000004,
      "d": 166.66666666667152,
      "v": 89
    },
    {
      "midi": 67,
      "hit": false,
      "t": 96750.00000000004,
      "d": 100,
      "v": 78
    },
    {
      "midi": 70,
      "hit": false,
      "t": 96750.00000000004,
      "d": 125,
      "v": 89
    },
    {
      "midi": 63,
      "hit": false,
      "t": 96750.00000000004,
      "d": 141.66666666667152,
      "v": 70
    },
    {
      "midi": 58,
      "hit": false,
      "t": 97000.00000000004,
      "d": 125,
      "v": 39
    },
    {
      "midi": 67,
      "hit": false,
      "t": 97250.00000000004,
      "d": 100,
      "v": 75
    },
    {
      "midi": 63,
      "hit": false,
      "t": 97250.00000000004,
      "d": 125,
      "v": 92
    },
    {
      "midi": 70,
      "hit": false,
      "t": 97250.00000000004,
      "d": 125,
      "v": 72
    },
    {
      "midi": 58,
      "hit": false,
      "t": 97750.00000000004,
      "d": 1916.666666666657,
      "v": 63
    },
    {
      "midi": 62,
      "hit": false,
      "t": 98000.00000000004,
      "d": 1583.3333333333285,
      "v": 68
    },
    {
      "midi": 65,
      "hit": false,
      "t": 98000.00000000004,
      "d": 1583.3333333333285,
      "v": 80
    },
    {
      "midi": 70,
      "hit": false,
      "t": 98000.00000000004,
      "d": 1708.3333333333285,
      "v": 89
    },
    {
      "midi": 70,
      "hit": false,
      "t": 100500.00000000004,
      "d": 141.66666666667152,
      "v": 99
    },
    {
      "midi": 65,
      "hit": false,
      "t": 100500.00000000004,
      "d": 166.66666666667152,
      "v": 80
    },
    {
      "midi": 74,
      "hit": false,
      "t": 100500.00000000004,
      "d": 166.66666666667152,
      "v": 78
    },
    {
      "midi": 70,
      "hit": false,
      "t": 100750.00000000004,
      "d": 100,
      "v": 80
    },
    {
      "midi": 65,
      "hit": false,
      "t": 100750.00000000004,
      "d": 125,
      "v": 45
    },
    {
      "midi": 74,
      "hit": false,
      "t": 100750.00000000004,
      "d": 141.66666666667152,
      "v": 53
    },
    {
      "midi": 70,
      "hit": false,
      "t": 101250.00000000004,
      "d": 83.33333333332848,
      "v": 108
    },
    {
      "midi": 65,
      "hit": false,
      "t": 101250.00000000004,
      "d": 100,
      "v": 75
    },
    {
      "midi": 58,
      "hit": false,
      "t": 101750.00000000004,
      "d": 141.66666666667152,
      "v": 75
    },
    {
      "midi": 70,
      "hit": false,
      "t": 102000.00000000004,
      "d": 1808.333333333343,
      "v": 92
    },
    {
      "midi": 65,
      "hit": false,
      "t": 102000.00000000004,
      "d": 2083.333333333343,
      "v": 70
    },
    {
      "midi": 62,
      "hit": false,
      "t": 102000.00000000004,
      "d": 2183.333333333343,
      "v": 68
    },
    {
      "midi": 65,
      "hit": false,
      "t": 104500.00000000006,
      "d": 141.66666666667152,
      "v": 78
    },
    {
      "midi": 70,
      "hit": false,
      "t": 104500.00000000006,
      "d": 141.66666666667152,
      "v": 95
    },
    {
      "midi": 62,
      "hit": false,
      "t": 104500.00000000006,
      "d": 375,
      "v": 78
    },
    {
      "midi": 70,
      "hit": false,
      "t": 104750.00000000006,
      "d": 125,
      "v": 78
    },
    {
      "midi": 65,
      "hit": false,
      "t": 104750.00000000006,
      "d": 166.66666666667152,
      "v": 72
    },
    {
      "midi": 58,
      "hit": false,
      "t": 105000.00000000006,
      "d": 100,
      "v": 70
    },
    {
      "midi": 70,
      "hit": false,
      "t": 105250.00000000006,
      "d": 83.33333333332848,
      "v": 78
    },
    {
      "midi": 62,
      "hit": false,
      "t": 105250.00000000006,
      "d": 125,
      "v": 70
    },
    {
      "midi": 65,
      "hit": false,
      "t": 105250.00000000006,
      "d": 125,
      "v": 72
    },
    {
      "midi": 55,
      "hit": false,
      "t": 105750.00000000006,
      "d": 58.33333333332848,
      "v": 38
    },
    {
      "midi": 63,
      "hit": false,
      "t": 106000.00000000006,
      "d": 1016.6666666666715,
      "v": 89
    },
    {
      "midi": 67,
      "hit": false,
      "t": 106000.00000000006,
      "d": 1016.6666666666715,
      "v": 83
    },
    {
      "midi": 60,
      "hit": false,
      "t": 106000.00000000006,
      "d": 1041.6666666666715,
      "v": 72
    },
    {
      "midi": 63,
      "hit": false,
      "t": 108500.00000000006,
      "d": 125,
      "v": 108
    },
    {
      "midi": 60,
      "hit": false,
      "t": 108500.00000000006,
      "d": 141.66666666667152,
      "v": 92
    },
    {
      "midi": 67,
      "hit": false,
      "t": 108500.00000000006,
      "d": 141.66666666667152,
      "v": 99
    },
    {
      "midi": 63,
      "hit": false,
      "t": 108750.00000000006,
      "d": 125,
      "v": 72
    },
    {
      "midi": 67,
      "hit": false,
      "t": 108750.00000000006,
      "d": 125,
      "v": 75
    },
    {
      "midi": 60,
      "hit": false,
      "t": 108750.00000000006,
      "d": 141.66666666667152,
      "v": 48
    },
    {
      "midi": 63,
      "hit": false,
      "t": 109250.00000000006,
      "d": 100,
      "v": 103
    },
    {
      "midi": 67,
      "hit": false,
      "t": 109250.00000000006,
      "d": 125,
      "v": 92
    },
    {
      "midi": 60,
      "hit": false,
      "t": 109250.00000000006,
      "d": 141.66666666667152,
      "v": 83
    },
    {
      "midi": 55,
      "hit": false,
      "t": 109750.00000000006,
      "d": 83.33333333332848,
      "v": 65
    },
    {
      "midi": 63,
      "hit": false,
      "t": 110000.00000000006,
      "d": 933.3333333333285,
      "v": 108
    },
    {
      "midi": 67,
      "hit": false,
      "t": 110000.00000000006,
      "d": 1000,
      "v": 95
    },
    {
      "midi": 67,
      "hit": false,
      "t": 112500.00000000006,
      "d": 100,
      "v": 72
    },
    {
      "midi": 70,
      "hit": false,
      "t": 112500.00000000006,
      "d": 125,
      "v": 80
    },
    {
      "midi": 63,
      "hit": false,
      "t": 112500.00000000006,
      "d": 141.66666666667152,
      "v": 83
    },
    {
      "midi": 63,
      "hit": false,
      "t": 112750.00000000006,
      "d": 125,
      "v": 70
    },
    {
      "midi": 67,
      "hit": false,
      "t": 112750.00000000006,
      "d": 125,
      "v": 72
    },
    {
      "midi": 70,
      "hit": false,
      "t": 112750.00000000006,
      "d": 125,
      "v": 83
    },
    {
      "midi": 67,
      "hit": false,
      "t": 113250.00000000006,
      "d": 83.33333333332848,
      "v": 99
    },
    {
      "midi": 70,
      "hit": false,
      "t": 113250.00000000006,
      "d": 125,
      "v": 103
    },
    {
      "midi": 63,
      "hit": false,
      "t": 113250.00000000006,
      "d": 141.66666666667152,
      "v": 108
    },
    {
      "midi": 60,
      "hit": false,
      "t": 114000.00000000006,
      "d": 916.6666666666715,
      "v": 95
    },
    {
      "midi": 65,
      "hit": false,
      "t": 114000.00000000006,
      "d": 1000,
      "v": 95
    },
    {
      "midi": 69,
      "hit": false,
      "t": 114000.00000000006,
      "d": 1041.6666666666715,
      "v": 89
    },
    {
      "midi": 62,
      "hit": false,
      "t": 116000.00000000007,
      "d": 2266.6666666666715,
      "v": 92
    },
    {
      "midi": 65,
      "hit": false,
      "t": 116000.00000000007,
      "d": 2291.6666666666715,
      "v": 95
    },
    {
      "midi": 70,
      "hit": false,
      "t": 116000.00000000007,
      "d": 2516.6666666666715,
      "v": 99
    },
    {
      "midi": 58,
      "hit": false,
      "t": 116000.00000000007,
      "d": 6183.333333333314,
      "v": 83
    },
    {
      "midi": 46,
      "hit": false,
      "t": 116000.00000000007,
      "d": 6291.666666666642,
      "v": 95
    },
    {
      "midi": 82,
      "hit": false,
      "t": 120000.00000000007,
      "d": 1766.666666666657,
      "v": 70
    },
    {
      "midi": 77,
      "hit": false,
      "t": 120000.00000000007,
      "d": 1849.9999999999854,
      "v": 80
    },
    {
      "midi": 74,
      "hit": false,
      "t": 120000.00000000007,
      "d": 1933.333333333314,
      "v": 70
    },
    {
      "midi": 65,
      "hit": false,
      "t": 124000.00000000006,
      "d": 583.3333333333285,
      "v": 75
    },
    {
      "midi": 62,
      "hit": false,
      "t": 124000.00000000006,
      "d": 600,
      "v": 57
    },
    {
      "midi": 70,
      "hit": false,
      "t": 124000.00000000006,
      "d": 725,
      "v": 75
    },
    {
      "midi": 53,
      "hit": false,
      "t": 124000.00000000006,
      "d": 3541.6666666666715,
      "v": 53
    },
    {
      "midi": 58,
      "hit": false,
      "t": 124500.00000000006,
      "d": 975,
      "v": 68
    },
    {
      "midi": 62,
      "hit": false,
      "t": 125500.00000000006,
      "d": 1958.3333333333285,
      "v": 46
    },
    {
      "midi": 72,
      "hit": false,
      "t": 126000.00000000006,
      "d": 250,
      "v": 92
    },
    {
      "midi": 67,
      "hit": false,
      "t": 126000.00000000006,
      "d": 933.3333333333285,
      "v": 83
    },
    {
      "midi": 58,
      "hit": false,
      "t": 126000.00000000006,
      "d": 1641.6666666666715,
      "v": 75
    },
    {
      "midi": 74,
      "hit": false,
      "t": 126250.00000000006,
      "d": 808.3333333333285,
      "v": 78
    },
    {
      "midi": 72,
      "hit": false,
      "t": 127500.00000000006,
      "d": 225,
      "v": 108
    },
    {
      "midi": 70,
      "hit": false,
      "t": 127750.00000000006,
      "d": 225,
      "v": 116
    },
    {
      "midi": 72,
      "hit": false,
      "t": 128000.00000000006,
      "d": 250,
      "v": 65
    },
    {
      "midi": 74,
      "hit": false,
      "t": 128000.00000000006,
      "d": 2541.6666666666715,
      "v": 75
    },
    {
      "midi": 53,
      "hit": false,
      "t": 128000.00000000006,
      "d": 2583.333333333343,
      "v": 78
    },
    {
      "midi": 58,
      "hit": false,
      "t": 128500.00000000006,
      "d": 2125.0000000000146,
      "v": 75
    },
    {
      "midi": 62,
      "hit": false,
      "t": 129500.00000000006,
      "d": 1000,
      "v": 32
    },
    {
      "midi": 60,
      "hit": false,
      "t": 132000.00000000006,
      "d": 666.666666666657,
      "v": 65
    },
    {
      "midi": 63,
      "hit": false,
      "t": 132000.00000000006,
      "d": 666.666666666657,
      "v": 78
    },
    {
      "midi": 67,
      "hit": false,
      "t": 132000.00000000006,
      "d": 808.3333333333139,
      "v": 72
    },
    {
      "midi": 48,
      "hit": false,
      "t": 132000.00000000006,
      "d": 5916.666666666599,
      "v": 65
    },
    {
      "midi": 55,
      "hit": false,
      "t": 132500.00000000006,
      "d": 749.9999999999709,
      "v": 42
    },
    {
      "midi": 74,
      "hit": false,
      "t": 134000.00000000003,
      "d": 141.66666666665697,
      "v": 92
    },
    {
      "midi": 75,
      "hit": false,
      "t": 134000.00000000003,
      "d": 350,
      "v": 72
    },
    {
      "midi": 79,
      "hit": false,
      "t": 134000.00000000003,
      "d": 850,
      "v": 83
    },
    {
      "midi": 74,
      "hit": false,
      "t": 134500.00000000003,
      "d": 350,
      "v": 78
    },
    {
      "midi": 74,
      "hit": false,
      "t": 135000.00000000003,
      "d": 350,
      "v": 103
    },
    {
      "midi": 79,
      "hit": false,
      "t": 135000.00000000003,
      "d": 391.66666666665697,
      "v": 92
    },
    {
      "midi": 72,
      "hit": false,
      "t": 135500.00000000003,
      "d": 225,
      "v": 83
    },
    {
      "midi": 79,
      "hit": false,
      "t": 135500.00000000003,
      "d": 433.33333333334303,
      "v": 70
    },
    {
      "midi": 75,
      "hit": false,
      "t": 136000.00000000003,
      "d": 16.666666666656965,
      "v": 103
    },
    {
      "midi": 74,
      "hit": false,
      "t": 136000.00000000003,
      "d": 83.33333333331393,
      "v": 103
    },
    {
      "midi": 79,
      "hit": false,
      "t": 136000.00000000003,
      "d": 1916.6666666666279,
      "v": 103
    },
    {
      "midi": 75,
      "hit": false,
      "t": 136250,
      "d": 1725,
      "v": 95
    },
    {
      "midi": 58,
      "hit": false,
      "t": 140000,
      "d": 3141.6666666665697,
      "v": 70
    },
    {
      "midi": 51,
      "hit": false,
      "t": 140000,
      "d": 3416.6666666665697,
      "v": 83
    },
    {
      "midi": 65,
      "hit": false,
      "t": 141749.99999999997,
      "d": 141.66666666665697,
      "v": 95
    },
    {
      "midi": 67,
      "hit": false,
      "t": 141999.99999999997,
      "d": 391.66666666665697,
      "v": 116
    },
    {
      "midi": 75,
      "hit": false,
      "t": 141999.99999999997,
      "d": 458.33333333331393,
      "v": 108
    },
    {
      "midi": 67,
      "hit": false,
      "t": 142499.99999999994,
      "d": 391.66666666665697,
      "v": 99
    },
    {
      "midi": 75,
      "hit": false,
      "t": 142499.99999999994,
      "d": 433.33333333331393,
      "v": 108
    },
    {
      "midi": 67,
      "hit": false,
      "t": 142999.9999999999,
      "d": 308.33333333331393,
      "v": 92
    },
    {
      "midi": 75,
      "hit": false,
      "t": 142999.9999999999,
      "d": 333.33333333331393,
      "v": 95
    },
    {
      "midi": 75,
      "hit": false,
      "t": 143499.9999999999,
      "d": 308.33333333334303,
      "v": 95
    },
    {
      "midi": 67,
      "hit": false,
      "t": 143499.9999999999,
      "d": 391.66666666668607,
      "v": 86
    },
    {
      "midi": 53,
      "hit": false,
      "t": 143999.99999999994,
      "d": 2708.333333333343,
      "v": 75
    },
    {
      "midi": 69,
      "hit": false,
      "t": 143999.99999999994,
      "d": 2708.333333333343,
      "v": 99
    },
    {
      "midi": 72,
      "hit": false,
      "t": 143999.99999999994,
      "d": 2791.666666666686,
      "v": 99
    },
    {
      "midi": 60,
      "hit": false,
      "t": 144499.99999999994,
      "d": 1183.333333333343,
      "v": 48
    },
    {
      "midi": 65,
      "hit": false,
      "t": 147499.99999999997,
      "d": 433.33333333334303,
      "v": 86
    },
    {
      "midi": 69,
      "hit": false,
      "t": 147499.99999999997,
      "d": 458.33333333334303,
      "v": 95
    },
    {
      "midi": 46,
      "hit": false,
      "t": 147999.99999999997,
      "d": 600,
      "v": 92
    },
    {
      "midi": 70,
      "hit": false,
      "t": 147999.99999999997,
      "d": 1416.666666666657,
      "v": 89
    },
    {
      "midi": 65,
      "hit": false,
      "t": 147999.99999999997,
      "d": 1708.333333333343,
      "v": 78
    },
    {
      "midi": 58,
      "hit": false,
      "t": 148499.99999999997,
      "d": 350,
      "v": 63
    },
    {
      "midi": 58,
      "hit": false,
      "t": 149499.99999999997,
      "d": 1350,
      "v": 80
    },
    {
      "midi": 62,
      "hit": false,
      "t": 150249.99999999997,
      "d": 641.666666666657,
      "v": 26
    },
    {
      "midi": 53,
      "hit": false,
      "t": 150999.99999999997,
      "d": 58.333333333343035,
      "v": 28
    },
    {
      "midi": 46,
      "hit": false,
      "t": 152000,
      "d": 516.666666666657,
      "v": 83
    },
    {
      "midi": 62,
      "hit": false,
      "t": 152000,
      "d": 708.3333333333139,
      "v": 50
    },
    {
      "midi": 70,
      "hit": false,
      "t": 152000,
      "d": 724.9999999999709,
      "v": 72
    },
    {
      "midi": 65,
      "hit": false,
      "t": 152000,
      "d": 749.9999999999709,
      "v": 83
    },
    {
      "midi": 53,
      "hit": false,
      "t": 153499.99999999997,
      "d": 2141.666666666657,
      "v": 43
    },
    {
      "midi": 58,
      "hit": false,
      "t": 153999.99999999997,
      "d": 1500,
      "v": 61
    },
    {
      "midi": 62,
      "hit": false,
      "t": 154249.99999999997,
      "d": 208.33333333334303,
      "v": 35
    },
    {
      "midi": 70,
      "hit": false,
      "t": 154499.99999999997,
      "d": 166.66666666665697,
      "v": 116
    },
    {
      "midi": 74,
      "hit": false,
      "t": 154499.99999999997,
      "d": 183.33333333331393,
      "v": 95
    },
    {
      "midi": 65,
      "hit": false,
      "t": 154499.99999999997,
      "d": 391.66666666665697,
      "v": 86
    },
    {
      "midi": 70,
      "hit": false,
      "t": 154749.99999999994,
      "d": 83.33333333334303,
      "v": 92
    },
    {
      "midi": 74,
      "hit": false,
      "t": 154749.99999999994,
      "d": 141.66666666668607,
      "v": 70
    },
    {
      "midi": 62,
      "hit": false,
      "t": 154999.99999999997,
      "d": 291.66666666665697,
      "v": 28
    },
    {
      "midi": 70,
      "hit": false,
      "t": 155249.99999999997,
      "d": 100,
      "v": 103
    },
    {
      "midi": 65,
      "hit": false,
      "t": 155249.99999999997,
      "d": 125,
      "v": 75
    },
    {
      "midi": 74,
      "hit": false,
      "t": 155249.99999999997,
      "d": 125,
      "v": 80
    },
    {
      "midi": 59,
      "hit": false,
      "t": 155999.99999999997,
      "d": 225,
      "v": 89
    },
    {
      "midi": 65,
      "hit": false,
      "t": 155999.99999999997,
      "d": 225,
      "v": 86
    },
    {
      "midi": 60,
      "hit": false,
      "t": 155999.99999999997,
      "d": 2041.666666666657,
      "v": 86
    },
    {
      "midi": 63,
      "hit": false,
      "t": 155999.99999999997,
      "d": 2058.333333333314,
      "v": 116
    },
    {
      "midi": 67,
      "hit": false,
      "t": 155999.99999999997,
      "d": 2083.333333333314,
      "v": 92
    },
    {
      "midi": 48,
      "hit": false,
      "t": 157999.99999999997,
      "d": 2099.999999999971,
      "v": 70
    },
    {
      "midi": 63,
      "hit": false,
      "t": 158499.99999999994,
      "d": 100,
      "v": 124
    },
    {
      "midi": 67,
      "hit": false,
      "t": 158499.99999999994,
      "d": 125,
      "v": 95
    },
    {
      "midi": 60,
      "hit": false,
      "t": 158499.99999999994,
      "d": 141.66666666665697,
      "v": 103
    },
    {
      "midi": 60,
      "hit": false,
      "t": 158749.99999999994,
      "d": 125,
      "v": 61
    },
    {
      "midi": 63,
      "hit": false,
      "t": 158749.99999999994,
      "d": 125,
      "v": 86
    },
    {
      "midi": 67,
      "hit": false,
      "t": 158749.99999999994,
      "d": 125,
      "v": 78
    },
    {
      "midi": 55,
      "hit": false,
      "t": 158999.99999999994,
      "d": 208.33333333334303,
      "v": 38
    },
    {
      "midi": 60,
      "hit": false,
      "t": 159249.99999999994,
      "d": 100,
      "v": 92
    },
    {
      "midi": 63,
      "hit": false,
      "t": 159249.99999999994,
      "d": 100,
      "v": 108
    },
    {
      "midi": 67,
      "hit": false,
      "t": 159249.99999999994,
      "d": 100,
      "v": 89
    },
    {
      "midi": 55,
      "hit": false,
      "t": 159749.99999999994,
      "d": 625,
      "v": 55
    },
    {
      "midi": 58,
      "hit": false,
      "t": 159999.99999999994,
      "d": 1000,
      "v": 95
    },
    {
      "midi": 63,
      "hit": false,
      "t": 159999.99999999994,
      "d": 1225,
      "v": 89
    },
    {
      "midi": 67,
      "hit": false,
      "t": 159999.99999999994,
      "d": 1250,
      "v": 89
    },
    {
      "midi": 67,
      "hit": false,
      "t": 162499.99999999994,
      "d": 141.66666666665697,
      "v": 80
    },
    {
      "midi": 70,
      "hit": false,
      "t": 162499.99999999994,
      "d": 141.66666666665697,
      "v": 89
    },
    {
      "midi": 63,
      "hit": false,
      "t": 162499.99999999994,
      "d": 166.66666666665697,
      "v": 89
    },
    {
      "midi": 67,
      "hit": false,
      "t": 162749.99999999994,
      "d": 100,
      "v": 78
    },
    {
      "midi": 70,
      "hit": false,
      "t": 162749.99999999994,
      "d": 125,
      "v": 89
    },
    {
      "midi": 63,
      "hit": false,
      "t": 162749.99999999994,
      "d": 141.66666666665697,
      "v": 70
    },
    {
      "midi": 58,
      "hit": false,
      "t": 162999.99999999994,
      "d": 125,
      "v": 39
    },
    {
      "midi": 67,
      "hit": false,
      "t": 163249.99999999994,
      "d": 100,
      "v": 75
    },
    {
      "midi": 63,
      "hit": false,
      "t": 163249.99999999994,
      "d": 125,
      "v": 92
    },
    {
      "midi": 70,
      "hit": false,
      "t": 163249.99999999994,
      "d": 125,
      "v": 72
    },
    {
      "midi": 58,
      "hit": false,
      "t": 163749.99999999994,
      "d": 1916.666666666686,
      "v": 63
    },
    {
      "midi": 62,
      "hit": false,
      "t": 163999.99999999994,
      "d": 1583.333333333343,
      "v": 68
    },
    {
      "midi": 65,
      "hit": false,
      "t": 163999.99999999994,
      "d": 1583.333333333343,
      "v": 80
    },
    {
      "midi": 70,
      "hit": false,
      "t": 163999.99999999994,
      "d": 1708.333333333343,
      "v": 89
    },
    {
      "midi": 70,
      "hit": false,
      "t": 166499.99999999994,
      "d": 141.66666666665697,
      "v": 99
    },
    {
      "midi": 65,
      "hit": false,
      "t": 166499.99999999994,
      "d": 166.66666666665697,
      "v": 80
    },
    {
      "midi": 74,
      "hit": false,
      "t": 166499.99999999994,
      "d": 166.66666666665697,
      "v": 78
    },
    {
      "midi": 70,
      "hit": false,
      "t": 166749.99999999994,
      "d": 100,
      "v": 80
    },
    {
      "midi": 65,
      "hit": false,
      "t": 166749.99999999994,
      "d": 125,
      "v": 45
    },
    {
      "midi": 74,
      "hit": false,
      "t": 166749.99999999994,
      "d": 141.66666666665697,
      "v": 53
    },
    {
      "midi": 70,
      "hit": false,
      "t": 167249.99999999994,
      "d": 83.33333333334303,
      "v": 108
    },
    {
      "midi": 65,
      "hit": false,
      "t": 167249.99999999994,
      "d": 100,
      "v": 75
    },
    {
      "midi": 58,
      "hit": false,
      "t": 167749.99999999994,
      "d": 141.66666666665697,
      "v": 75
    },
    {
      "midi": 70,
      "hit": false,
      "t": 167999.99999999994,
      "d": 1808.333333333314,
      "v": 92
    },
    {
      "midi": 65,
      "hit": false,
      "t": 167999.99999999994,
      "d": 2083.333333333314,
      "v": 70
    },
    {
      "midi": 62,
      "hit": false,
      "t": 167999.99999999994,
      "d": 2183.333333333314,
      "v": 68
    },
    {
      "midi": 65,
      "hit": false,
      "t": 170499.9999999999,
      "d": 141.66666666665697,
      "v": 78
    },
    {
      "midi": 70,
      "hit": false,
      "t": 170499.9999999999,
      "d": 141.66666666665697,
      "v": 95
    },
    {
      "midi": 62,
      "hit": false,
      "t": 170499.9999999999,
      "d": 375,
      "v": 78
    },
    {
      "midi": 70,
      "hit": false,
      "t": 170749.9999999999,
      "d": 125,
      "v": 78
    },
    {
      "midi": 65,
      "hit": false,
      "t": 170749.9999999999,
      "d": 166.66666666665697,
      "v": 72
    },
    {
      "midi": 58,
      "hit": false,
      "t": 170999.9999999999,
      "d": 100,
      "v": 70
    },
    {
      "midi": 70,
      "hit": false,
      "t": 171249.9999999999,
      "d": 83.33333333334303,
      "v": 78
    },
    {
      "midi": 62,
      "hit": false,
      "t": 171249.9999999999,
      "d": 125,
      "v": 70
    },
    {
      "midi": 65,
      "hit": false,
      "t": 171249.9999999999,
      "d": 125,
      "v": 72
    },
    {
      "midi": 55,
      "hit": false,
      "t": 171749.9999999999,
      "d": 58.333333333343035,
      "v": 38
    },
    {
      "midi": 63,
      "hit": false,
      "t": 171999.9999999999,
      "d": 1016.666666666657,
      "v": 89
    },
    {
      "midi": 67,
      "hit": false,
      "t": 171999.9999999999,
      "d": 1016.666666666657,
      "v": 83
    },
    {
      "midi": 60,
      "hit": false,
      "t": 171999.9999999999,
      "d": 1041.666666666657,
      "v": 72
    },
    {
      "midi": 63,
      "hit": false,
      "t": 174499.9999999999,
      "d": 125,
      "v": 108
    },
    {
      "midi": 60,
      "hit": false,
      "t": 174499.9999999999,
      "d": 141.66666666665697,
      "v": 92
    },
    {
      "midi": 67,
      "hit": false,
      "t": 174499.9999999999,
      "d": 141.66666666665697,
      "v": 99
    },
    {
      "midi": 63,
      "hit": false,
      "t": 174749.9999999999,
      "d": 125,
      "v": 72
    },
    {
      "midi": 67,
      "hit": false,
      "t": 174749.9999999999,
      "d": 125,
      "v": 75
    },
    {
      "midi": 60,
      "hit": false,
      "t": 174749.9999999999,
      "d": 141.66666666665697,
      "v": 48
    },
    {
      "midi": 63,
      "hit": false,
      "t": 175249.9999999999,
      "d": 100,
      "v": 103
    },
    {
      "midi": 67,
      "hit": false,
      "t": 175249.9999999999,
      "d": 125,
      "v": 92
    },
    {
      "midi": 60,
      "hit": false,
      "t": 175249.9999999999,
      "d": 141.66666666665697,
      "v": 83
    },
    {
      "midi": 55,
      "hit": false,
      "t": 175749.9999999999,
      "d": 83.33333333334303,
      "v": 65
    },
    {
      "midi": 63,
      "hit": false,
      "t": 175999.9999999999,
      "d": 933.333333333343,
      "v": 108
    },
    {
      "midi": 67,
      "hit": false,
      "t": 175999.9999999999,
      "d": 1000,
      "v": 95
    },
    {
      "midi": 67,
      "hit": false,
      "t": 178499.9999999999,
      "d": 100,
      "v": 72
    },
    {
      "midi": 70,
      "hit": false,
      "t": 178499.9999999999,
      "d": 125,
      "v": 80
    },
    {
      "midi": 63,
      "hit": false,
      "t": 178499.9999999999,
      "d": 141.66666666665697,
      "v": 83
    },
    {
      "midi": 63,
      "hit": false,
      "t": 178749.9999999999,
      "d": 125,
      "v": 70
    },
    {
      "midi": 67,
      "hit": false,
      "t": 178749.9999999999,
      "d": 125,
      "v": 72
    },
    {
      "midi": 70,
      "hit": false,
      "t": 178749.9999999999,
      "d": 125,
      "v": 83
    },
    {
      "midi": 67,
      "hit": false,
      "t": 179249.9999999999,
      "d": 83.33333333334303,
      "v": 99
    },
    {
      "midi": 70,
      "hit": false,
      "t": 179249.9999999999,
      "d": 125,
      "v": 103
    },
    {
      "midi": 63,
      "hit": false,
      "t": 179249.9999999999,
      "d": 141.66666666665697,
      "v": 108
    },
    {
      "midi": 63,
      "hit": false,
      "t": 179999.9999999999,
      "d": 808.333333333343,
      "v": 95
    },
    {
      "midi": 53,
      "hit": false,
      "t": 179999.9999999999,
      "d": 850,
      "v": 63
    },
    {
      "midi": 60,
      "hit": false,
      "t": 179999.9999999999,
      "d": 891.666666666657,
      "v": 72
    },
    {
      "midi": 65,
      "hit": false,
      "t": 179999.9999999999,
      "d": 958.3333333333139,
      "v": 78
    },
    {
      "midi": 69,
      "hit": false,
      "t": 179999.9999999999,
      "d": 1083.333333333314,
      "v": 68
    },
    {
      "midi": 46,
      "hit": false,
      "t": 181999.99999999988,
      "d": 625,
      "v": 86
    },
    {
      "midi": 70,
      "hit": false,
      "t": 181999.99999999988,
      "d": 641.666666666657,
      "v": 59
    },
    {
      "midi": 62,
      "hit": false,
      "t": 181999.99999999988,
      "d": 766.666666666657,
      "v": 50
    },
    {
      "midi": 65,
      "hit": false,
      "t": 181999.99999999988,
      "d": 850,
      "v": 72
    },
    {
      "midi": 65,
      "hit": false,
      "t": 183999.99999999988,
      "d": 1583.333333333343,
      "v": 63
    },
    {
      "midi": 70,
      "hit": false,
      "t": 183999.99999999988,
      "d": 1583.333333333343,
      "v": 83
    },
    {
      "midi": 74,
      "hit": false,
      "t": 183999.99999999988,
      "d": 2266.666666666686,
      "v": 75
    },
    {
      "midi": 53,
      "hit": false,
      "t": 183999.99999999988,
      "d": 3416.666666666715,
      "v": 65
    },
    {
      "midi": 58,
      "hit": false,
      "t": 184499.99999999988,
      "d": 875,
      "v": 61
    },
    {
      "midi": 58,
      "hit": false,
      "t": 185499.99999999988,
      "d": 1808.3333333333721,
      "v": 68
    },
    {
      "midi": 62,
      "hit": false,
      "t": 186499.9999999999,
      "d": 666.666666666657,
      "v": 50
    },
    {
      "midi": 74,
      "hit": false,
      "t": 187249.9999999999,
      "d": 725.0000000000291,
      "v": 83
    },
    {
      "midi": 70,
      "hit": false,
      "t": 187499.99999999994,
      "d": 433.33333333334303,
      "v": 92
    },
    {
      "midi": 72,
      "hit": false,
      "t": 187999.99999999994,
      "d": 641.666666666657,
      "v": 59
    },
    {
      "midi": 67,
      "hit": false,
      "t": 187999.99999999994,
      "d": 708.3333333333139,
      "v": 89
    },
    {
      "midi": 48,
      "hit": false,
      "t": 187999.99999999994,
      "d": 3016.666666666628,
      "v": 59
    },
    {
      "midi": 55,
      "hit": false,
      "t": 188499.99999999994,
      "d": 1666.6666666666279,
      "v": 35
    },
    {
      "midi": 63,
      "hit": false,
      "t": 189499.9999999999,
      "d": 250,
      "v": 95
    },
    {
      "midi": 60,
      "hit": false,
      "t": 189749.9999999999,
      "d": 1041.666666666657,
      "v": 70
    },
    {
      "midi": 67,
      "hit": false,
      "t": 189999.9999999999,
      "d": 1083.333333333314,
      "v": 80
    },
    {
      "midi": 55,
      "hit": false,
      "t": 190499.9999999999,
      "d": 599.9999999999709,
      "v": 57
    },
    {
      "midi": 63,
      "hit": false,
      "t": 191999.99999999988,
      "d": 683.333333333343,
      "v": 86
    },
    {
      "midi": 51,
      "hit": false,
      "t": 191999.99999999988,
      "d": 850,
      "v": 86
    },
    {
      "midi": 70,
      "hit": false,
      "t": 191999.99999999988,
      "d": 1058.333333333314,
      "v": 89
    },
    {
      "midi": 67,
      "hit": false,
      "t": 191999.99999999988,
      "d": 1374.999999999971,
      "v": 89
    },
    {
      "midi": 65,
      "hit": false,
      "t": 193999.99999999985,
      "d": 1016.666666666657,
      "v": 68
    },
    {
      "midi": 53,
      "hit": false,
      "t": 193999.99999999985,
      "d": 1183.333333333314,
      "v": 75
    },
    {
      "midi": 72,
      "hit": false,
      "t": 193999.99999999985,
      "d": 1249.999999999971,
      "v": 68
    },
    {
      "midi": 69,
      "hit": false,
      "t": 193999.99999999985,
      "d": 1266.6666666666279,
      "v": 83
    },
    {
      "midi": 60,
      "hit": false,
      "t": 194499.99999999985,
      "d": 583.3333333333139,
      "v": 55
    },
    {
      "midi": 46,
      "hit": false,
      "t": 195999.99999999983,
      "d": 3058.333333333314,
      "v": 92
    },
    {
      "midi": 58,
      "hit": false,
      "t": 196499.99999999983,
      "d": 2558.333333333314,
      "v": 48
    },
    {
      "midi": 74,
      "hit": false,
      "t": 196999.99999999983,
      "d": 100,
      "v": 108
    },
    {
      "midi": 79,
      "hit": false,
      "t": 196999.99999999983,
      "d": 433.33333333334303,
      "v": 116
    },
    {
      "midi": 77,
      "hit": false,
      "t": 197499.99999999983,
      "d": 500,
      "v": 99
    },
    {
      "midi": 74,
      "hit": false,
      "t": 197999.99999999983,
      "d": 375,
      "v": 124
    },
    {
      "midi": 72,
      "hit": false,
      "t": 198516.66666666648,
      "d": 291.66666666665697,
      "v": 103
    },
    {
      "midi": 70,
      "hit": false,
      "t": 198999.9999999998,
      "d": 433.33333333334303,
      "v": 116
    },
    {
      "midi": 67,
      "hit": false,
      "t": 199499.9999999998,
      "d": 391.66666666665697,
      "v": 89
    },
    {
      "midi": 58,
      "hit": false,
      "t": 199999.9999999998,
      "d": 3250,
      "v": 108
    },
    {
      "midi": 62,
      "hit": false,
      "t": 199999.9999999998,
      "d": 3433.333333333343,
      "v": 108
    },
    {
      "midi": 65,
      "hit": false,
      "t": 199999.9999999998,
      "d": 3475,
      "v": 99
    },
    {
      "midi": 65,
      "hit": false,
      "t": 203999.9999999998,
      "d": 583.333333333343,
      "v": 75
    },
    {
      "midi": 62,
      "hit": false,
      "t": 203999.9999999998,
      "d": 600,
      "v": 57
    },
    {
      "midi": 70,
      "hit": false,
      "t": 203999.9999999998,
      "d": 725,
      "v": 75
    },
    {
      "midi": 53,
      "hit": false,
      "t": 203999.9999999998,
      "d": 3541.666666666657,
      "v": 53
    },
    {
      "midi": 58,
      "hit": false,
      "t": 204499.9999999998,
      "d": 975,
      "v": 68
    },
    {
      "midi": 62,
      "hit": false,
      "t": 205499.9999999998,
      "d": 1958.333333333343,
      "v": 46
    },
    {
      "midi": 72,
      "hit": false,
      "t": 205999.9999999998,
      "d": 250,
      "v": 92
    },
    {
      "midi": 67,
      "hit": false,
      "t": 205999.9999999998,
      "d": 933.333333333343,
      "v": 83
    },
    {
      "midi": 58,
      "hit": false,
      "t": 205999.9999999998,
      "d": 1641.666666666657,
      "v": 75
    },
    {
      "midi": 74,
      "hit": false,
      "t": 206249.9999999998,
      "d": 808.333333333343,
      "v": 78
    },
    {
      "midi": 72,
      "hit": false,
      "t": 207499.9999999998,
      "d": 225,
      "v": 108
    },
    {
      "midi": 70,
      "hit": false,
      "t": 207749.9999999998,
      "d": 225,
      "v": 116
    },
    {
      "midi": 72,
      "hit": false,
      "t": 207999.9999999998,
      "d": 250,
      "v": 65
    },
    {
      "midi": 74,
      "hit": false,
      "t": 207999.9999999998,
      "d": 2541.666666666657,
      "v": 75
    },
    {
      "midi": 53,
      "hit": false,
      "t": 207999.9999999998,
      "d": 2583.333333333314,
      "v": 78
    },
    {
      "midi": 58,
      "hit": false,
      "t": 208499.9999999998,
      "d": 2124.999999999971,
      "v": 75
    },
    {
      "midi": 62,
      "hit": false,
      "t": 209499.9999999998,
      "d": 1000,
      "v": 32
    },
    {
      "midi": 60,
      "hit": false,
      "t": 211999.99999999977,
      "d": 666.666666666657,
      "v": 65
    },
    {
      "midi": 63,
      "hit": false,
      "t": 211999.99999999977,
      "d": 666.666666666657,
      "v": 78
    },
    {
      "midi": 67,
      "hit": false,
      "t": 211999.99999999977,
      "d": 808.3333333333139,
      "v": 72
    },
    {
      "midi": 48,
      "hit": false,
      "t": 211999.99999999977,
      "d": 5916.666666666599,
      "v": 65
    },
    {
      "midi": 55,
      "hit": false,
      "t": 212499.99999999977,
      "d": 749.9999999999709,
      "v": 42
    },
    {
      "midi": 74,
      "hit": false,
      "t": 213999.99999999974,
      "d": 141.66666666665697,
      "v": 92
    },
    {
      "midi": 75,
      "hit": false,
      "t": 213999.99999999974,
      "d": 350,
      "v": 72
    },
    {
      "midi": 79,
      "hit": false,
      "t": 213999.99999999974,
      "d": 850,
      "v": 83
    },
    {
      "midi": 74,
      "hit": false,
      "t": 214499.99999999974,
      "d": 350,
      "v": 78
    },
    {
      "midi": 74,
      "hit": false,
      "t": 214999.99999999974,
      "d": 350,
      "v": 103
    },
    {
      "midi": 79,
      "hit": false,
      "t": 214999.99999999974,
      "d": 391.66666666665697,
      "v": 92
    },
    {
      "midi": 72,
      "hit": false,
      "t": 215499.99999999974,
      "d": 225,
      "v": 83
    },
    {
      "midi": 79,
      "hit": false,
      "t": 215499.99999999974,
      "d": 433.33333333334303,
      "v": 70
    },
    {
      "midi": 75,
      "hit": false,
      "t": 215999.99999999974,
      "d": 16.666666666656965,
      "v": 103
    },
    {
      "midi": 74,
      "hit": false,
      "t": 215999.99999999974,
      "d": 83.33333333331393,
      "v": 103
    },
    {
      "midi": 79,
      "hit": false,
      "t": 215999.99999999974,
      "d": 1916.6666666666279,
      "v": 103
    },
    {
      "midi": 75,
      "hit": false,
      "t": 216249.9999999997,
      "d": 1725,
      "v": 95
    },
    {
      "midi": 58,
      "hit": false,
      "t": 219999.9999999997,
      "d": 3141.6666666665697,
      "v": 70
    },
    {
      "midi": 51,
      "hit": false,
      "t": 219999.9999999997,
      "d": 3416.6666666665697,
      "v": 83
    },
    {
      "midi": 65,
      "hit": false,
      "t": 221749.99999999968,
      "d": 141.66666666665697,
      "v": 95
    },
    {
      "midi": 67,
      "hit": false,
      "t": 221999.99999999968,
      "d": 391.66666666665697,
      "v": 116
    },
    {
      "midi": 75,
      "hit": false,
      "t": 221999.99999999968,
      "d": 458.33333333331393,
      "v": 108
    },
    {
      "midi": 67,
      "hit": false,
      "t": 222499.99999999965,
      "d": 391.66666666665697,
      "v": 99
    },
    {
      "midi": 75,
      "hit": false,
      "t": 222499.99999999965,
      "d": 433.33333333331393,
      "v": 108
    },
    {
      "midi": 67,
      "hit": false,
      "t": 222999.99999999962,
      "d": 308.33333333331393,
      "v": 92
    },
    {
      "midi": 75,
      "hit": false,
      "t": 222999.99999999962,
      "d": 333.33333333331393,
      "v": 95
    },
    {
      "midi": 75,
      "hit": false,
      "t": 223499.99999999962,
      "d": 308.33333333334303,
      "v": 95
    },
    {
      "midi": 67,
      "hit": false,
      "t": 223499.99999999962,
      "d": 391.66666666668607,
      "v": 86
    },
    {
      "midi": 53,
      "hit": false,
      "t": 223999.99999999965,
      "d": 2708.333333333343,
      "v": 75
    },
    {
      "midi": 69,
      "hit": false,
      "t": 223999.99999999965,
      "d": 2708.333333333343,
      "v": 99
    },
    {
      "midi": 72,
      "hit": false,
      "t": 223999.99999999965,
      "d": 2791.666666666686,
      "v": 99
    },
    {
      "midi": 60,
      "hit": false,
      "t": 224499.99999999965,
      "d": 1183.333333333343,
      "v": 48
    },
    {
      "midi": 65,
      "hit": false,
      "t": 227499.99999999968,
      "d": 433.33333333334303,
      "v": 86
    },
    {
      "midi": 69,
      "hit": false,
      "t": 227499.99999999968,
      "d": 458.33333333334303,
      "v": 95
    },
    {
      "midi": 46,
      "hit": false,
      "t": 227999.99999999968,
      "d": 600,
      "v": 92
    },
    {
      "midi": 70,
      "hit": false,
      "t": 227999.99999999968,
      "d": 1416.666666666657,
      "v": 89
    },
    {
      "midi": 65,
      "hit": false,
      "t": 227999.99999999968,
      "d": 1708.333333333343,
      "v": 78
    },
    {
      "midi": 58,
      "hit": false,
      "t": 228499.99999999968,
      "d": 350,
      "v": 63
    },
    {
      "midi": 58,
      "hit": false,
      "t": 229499.99999999968,
      "d": 1350,
      "v": 80
    },
    {
      "midi": 62,
      "hit": false,
      "t": 230249.99999999968,
      "d": 641.666666666657,
      "v": 26
    },
    {
      "midi": 53,
      "hit": false,
      "t": 230999.99999999968,
      "d": 58.333333333343035,
      "v": 28
    },
    {
      "midi": 46,
      "hit": false,
      "t": 231999.9999999997,
      "d": 516.666666666657,
      "v": 83
    },
    {
      "midi": 62,
      "hit": false,
      "t": 231999.9999999997,
      "d": 708.3333333333139,
      "v": 50
    },
    {
      "midi": 70,
      "hit": false,
      "t": 231999.9999999997,
      "d": 724.9999999999709,
      "v": 72
    },
    {
      "midi": 65,
      "hit": false,
      "t": 231999.9999999997,
      "d": 749.9999999999709,
      "v": 83
    },
    {
      "midi": 53,
      "hit": false,
      "t": 233499.99999999968,
      "d": 2141.666666666657,
      "v": 43
    },
    {
      "midi": 58,
      "hit": false,
      "t": 233999.99999999968,
      "d": 1500,
      "v": 61
    },
    {
      "midi": 62,
      "hit": false,
      "t": 234249.99999999968,
      "d": 208.33333333334303,
      "v": 35
    },
    {
      "midi": 70,
      "hit": false,
      "t": 234499.99999999968,
      "d": 166.66666666665697,
      "v": 116
    },
    {
      "midi": 74,
      "hit": false,
      "t": 234499.99999999968,
      "d": 183.33333333331393,
      "v": 95
    },
    {
      "midi": 65,
      "hit": false,
      "t": 234499.99999999968,
      "d": 391.66666666665697,
      "v": 86
    },
    {
      "midi": 70,
      "hit": false,
      "t": 234749.99999999965,
      "d": 83.33333333334303,
      "v": 92
    },
    {
      "midi": 74,
      "hit": false,
      "t": 234749.99999999965,
      "d": 141.66666666668607,
      "v": 70
    },
    {
      "midi": 62,
      "hit": false,
      "t": 234999.99999999968,
      "d": 291.66666666665697,
      "v": 28
    },
    {
      "midi": 70,
      "hit": false,
      "t": 235249.99999999968,
      "d": 100,
      "v": 103
    },
    {
      "midi": 65,
      "hit": false,
      "t": 235249.99999999968,
      "d": 125,
      "v": 75
    },
    {
      "midi": 74,
      "hit": false,
      "t": 235249.99999999968,
      "d": 125,
      "v": 80
    },
    {
      "midi": 59,
      "hit": false,
      "t": 235999.99999999968,
      "d": 225,
      "v": 89
    },
    {
      "midi": 65,
      "hit": false,
      "t": 235999.99999999968,
      "d": 225,
      "v": 86
    },
    {
      "midi": 60,
      "hit": false,
      "t": 235999.99999999968,
      "d": 2041.666666666657,
      "v": 86
    },
    {
      "midi": 63,
      "hit": false,
      "t": 235999.99999999968,
      "d": 2058.333333333314,
      "v": 116
    },
    {
      "midi": 67,
      "hit": false,
      "t": 235999.99999999968,
      "d": 2083.333333333314,
      "v": 92
    },
    {
      "midi": 48,
      "hit": false,
      "t": 237999.99999999968,
      "d": 2099.999999999971,
      "v": 70
    },
    {
      "midi": 63,
      "hit": false,
      "t": 238499.99999999965,
      "d": 100,
      "v": 124
    },
    {
      "midi": 67,
      "hit": false,
      "t": 238499.99999999965,
      "d": 125,
      "v": 95
    },
    {
      "midi": 60,
      "hit": false,
      "t": 238499.99999999965,
      "d": 141.66666666665697,
      "v": 103
    },
    {
      "midi": 60,
      "hit": false,
      "t": 238749.99999999965,
      "d": 125,
      "v": 61
    },
    {
      "midi": 63,
      "hit": false,
      "t": 238749.99999999965,
      "d": 125,
      "v": 86
    },
    {
      "midi": 67,
      "hit": false,
      "t": 238749.99999999965,
      "d": 125,
      "v": 78
    },
    {
      "midi": 55,
      "hit": false,
      "t": 238999.99999999965,
      "d": 208.33333333334303,
      "v": 38
    },
    {
      "midi": 60,
      "hit": false,
      "t": 239249.99999999965,
      "d": 100,
      "v": 92
    },
    {
      "midi": 63,
      "hit": false,
      "t": 239249.99999999965,
      "d": 100,
      "v": 108
    },
    {
      "midi": 67,
      "hit": false,
      "t": 239249.99999999965,
      "d": 100,
      "v": 89
    },
    {
      "midi": 55,
      "hit": false,
      "t": 239749.99999999965,
      "d": 625,
      "v": 55
    },
    {
      "midi": 58,
      "hit": false,
      "t": 239999.99999999965,
      "d": 1000,
      "v": 95
    },
    {
      "midi": 63,
      "hit": false,
      "t": 239999.99999999965,
      "d": 1225,
      "v": 89
    },
    {
      "midi": 67,
      "hit": false,
      "t": 239999.99999999965,
      "d": 1250,
      "v": 89
    },
    {
      "midi": 67,
      "hit": false,
      "t": 242499.99999999965,
      "d": 141.66666666665697,
      "v": 80
    },
    {
      "midi": 70,
      "hit": false,
      "t": 242499.99999999965,
      "d": 141.66666666665697,
      "v": 89
    },
    {
      "midi": 63,
      "hit": false,
      "t": 242499.99999999965,
      "d": 166.66666666665697,
      "v": 89
    },
    {
      "midi": 67,
      "hit": false,
      "t": 242749.99999999965,
      "d": 100,
      "v": 78
    },
    {
      "midi": 70,
      "hit": false,
      "t": 242749.99999999965,
      "d": 125,
      "v": 89
    },
    {
      "midi": 63,
      "hit": false,
      "t": 242749.99999999965,
      "d": 141.66666666665697,
      "v": 70
    },
    {
      "midi": 58,
      "hit": false,
      "t": 242999.99999999965,
      "d": 125,
      "v": 39
    },
    {
      "midi": 67,
      "hit": false,
      "t": 243249.99999999965,
      "d": 100,
      "v": 75
    },
    {
      "midi": 63,
      "hit": false,
      "t": 243249.99999999965,
      "d": 125,
      "v": 92
    },
    {
      "midi": 70,
      "hit": false,
      "t": 243249.99999999965,
      "d": 125,
      "v": 72
    },
    {
      "midi": 58,
      "hit": false,
      "t": 243749.99999999965,
      "d": 1916.666666666686,
      "v": 63
    },
    {
      "midi": 62,
      "hit": false,
      "t": 243999.99999999965,
      "d": 1583.333333333343,
      "v": 68
    },
    {
      "midi": 65,
      "hit": false,
      "t": 243999.99999999965,
      "d": 1583.333333333343,
      "v": 80
    },
    {
      "midi": 70,
      "hit": false,
      "t": 243999.99999999965,
      "d": 1708.333333333343,
      "v": 89
    },
    {
      "midi": 70,
      "hit": false,
      "t": 246499.99999999965,
      "d": 141.66666666665697,
      "v": 99
    },
    {
      "midi": 65,
      "hit": false,
      "t": 246499.99999999965,
      "d": 166.66666666665697,
      "v": 80
    },
    {
      "midi": 74,
      "hit": false,
      "t": 246499.99999999965,
      "d": 166.66666666665697,
      "v": 78
    },
    {
      "midi": 70,
      "hit": false,
      "t": 246749.99999999965,
      "d": 100,
      "v": 80
    },
    {
      "midi": 65,
      "hit": false,
      "t": 246749.99999999965,
      "d": 125,
      "v": 45
    },
    {
      "midi": 74,
      "hit": false,
      "t": 246749.99999999965,
      "d": 141.66666666665697,
      "v": 53
    },
    {
      "midi": 70,
      "hit": false,
      "t": 247249.99999999965,
      "d": 83.33333333334303,
      "v": 108
    },
    {
      "midi": 65,
      "hit": false,
      "t": 247249.99999999965,
      "d": 100,
      "v": 75
    },
    {
      "midi": 58,
      "hit": false,
      "t": 247749.99999999965,
      "d": 141.66666666665697,
      "v": 75
    },
    {
      "midi": 70,
      "hit": false,
      "t": 247999.99999999965,
      "d": 1808.333333333314,
      "v": 92
    },
    {
      "midi": 65,
      "hit": false,
      "t": 247999.99999999965,
      "d": 2083.333333333314,
      "v": 70
    },
    {
      "midi": 62,
      "hit": false,
      "t": 247999.99999999965,
      "d": 2183.333333333314,
      "v": 68
    },
    {
      "midi": 65,
      "hit": false,
      "t": 250499.99999999962,
      "d": 141.66666666665697,
      "v": 78
    },
    {
      "midi": 70,
      "hit": false,
      "t": 250499.99999999962,
      "d": 141.66666666665697,
      "v": 95
    },
    {
      "midi": 62,
      "hit": false,
      "t": 250499.99999999962,
      "d": 375,
      "v": 78
    },
    {
      "midi": 70,
      "hit": false,
      "t": 250749.99999999962,
      "d": 125,
      "v": 78
    },
    {
      "midi": 65,
      "hit": false,
      "t": 250749.99999999962,
      "d": 166.66666666665697,
      "v": 72
    },
    {
      "midi": 58,
      "hit": false,
      "t": 250999.99999999962,
      "d": 100,
      "v": 70
    },
    {
      "midi": 70,
      "hit": false,
      "t": 251249.99999999962,
      "d": 83.33333333334303,
      "v": 78
    },
    {
      "midi": 62,
      "hit": false,
      "t": 251249.99999999962,
      "d": 125,
      "v": 70
    },
    {
      "midi": 65,
      "hit": false,
      "t": 251249.99999999962,
      "d": 125,
      "v": 72
    },
    {
      "midi": 55,
      "hit": false,
      "t": 251749.99999999962,
      "d": 58.333333333343035,
      "v": 38
    },
    {
      "midi": 63,
      "hit": false,
      "t": 251999.99999999962,
      "d": 1016.666666666657,
      "v": 89
    },
    {
      "midi": 67,
      "hit": false,
      "t": 251999.99999999962,
      "d": 1016.666666666657,
      "v": 83
    },
    {
      "midi": 60,
      "hit": false,
      "t": 251999.99999999962,
      "d": 1041.666666666657,
      "v": 72
    },
    {
      "midi": 63,
      "hit": false,
      "t": 254499.99999999962,
      "d": 125,
      "v": 108
    },
    {
      "midi": 60,
      "hit": false,
      "t": 254499.99999999962,
      "d": 141.66666666665697,
      "v": 92
    },
    {
      "midi": 67,
      "hit": false,
      "t": 254499.99999999962,
      "d": 141.66666666665697,
      "v": 99
    },
    {
      "midi": 63,
      "hit": false,
      "t": 254749.99999999962,
      "d": 125,
      "v": 72
    },
    {
      "midi": 67,
      "hit": false,
      "t": 254749.99999999962,
      "d": 125,
      "v": 75
    },
    {
      "midi": 60,
      "hit": false,
      "t": 254749.99999999962,
      "d": 141.66666666665697,
      "v": 48
    },
    {
      "midi": 63,
      "hit": false,
      "t": 255249.99999999962,
      "d": 100,
      "v": 103
    },
    {
      "midi": 67,
      "hit": false,
      "t": 255249.99999999962,
      "d": 125,
      "v": 92
    },
    {
      "midi": 60,
      "hit": false,
      "t": 255249.99999999962,
      "d": 141.66666666665697,
      "v": 83
    },
    {
      "midi": 55,
      "hit": false,
      "t": 255749.99999999962,
      "d": 83.33333333334303,
      "v": 65
    },
    {
      "midi": 63,
      "hit": false,
      "t": 255999.99999999962,
      "d": 933.333333333343,
      "v": 108
    },
    {
      "midi": 67,
      "hit": false,
      "t": 255999.99999999962,
      "d": 1000,
      "v": 95
    },
    {
      "midi": 67,
      "hit": false,
      "t": 258499.99999999962,
      "d": 100,
      "v": 72
    },
    {
      "midi": 70,
      "hit": false,
      "t": 258499.99999999962,
      "d": 125,
      "v": 80
    },
    {
      "midi": 63,
      "hit": false,
      "t": 258499.99999999962,
      "d": 141.66666666665697,
      "v": 83
    },
    {
      "midi": 63,
      "hit": false,
      "t": 258749.99999999962,
      "d": 125,
      "v": 70
    },
    {
      "midi": 67,
      "hit": false,
      "t": 258749.99999999962,
      "d": 125,
      "v": 72
    },
    {
      "midi": 70,
      "hit": false,
      "t": 258749.99999999962,
      "d": 125,
      "v": 83
    },
    {
      "midi": 67,
      "hit": false,
      "t": 259249.99999999962,
      "d": 83.33333333334303,
      "v": 99
    },
    {
      "midi": 70,
      "hit": false,
      "t": 259249.99999999962,
      "d": 125,
      "v": 103
    },
    {
      "midi": 63,
      "hit": false,
      "t": 259249.99999999962,
      "d": 141.66666666665697,
      "v": 108
    },
    {
      "midi": 53,
      "hit": false,
      "t": 259999.99999999962,
      "d": 725,
      "v": 75
    },
    {
      "midi": 60,
      "hit": false,
      "t": 259999.99999999962,
      "d": 766.666666666657,
      "v": 72
    },
    {
      "midi": 65,
      "hit": false,
      "t": 259999.99999999962,
      "d": 1041.666666666657,
      "v": 75
    },
    {
      "midi": 69,
      "hit": false,
      "t": 259999.99999999962,
      "d": 1058.333333333314,
      "v": 70
    },
    {
      "midi": 70,
      "hit": false,
      "t": 261999.99999999962,
      "d": 666.6666666667152,
      "v": 63
    },
    {
      "midi": 62,
      "hit": false,
      "t": 261999.99999999962,
      "d": 1000.0000000000291,
      "v": 63
    },
    {
      "midi": 46,
      "hit": false,
      "t": 261999.99999999962,
      "d": 1125.000000000029,
      "v": 86
    },
    {
      "midi": 65,
      "hit": false,
      "t": 261999.99999999962,
      "d": 1141.6666666667152,
      "v": 70
    },
    {
      "midi": 58,
      "hit": false,
      "t": 262499.99999999965,
      "d": 416.66666666668607,
      "v": 38
    },
    {
      "midi": 46,
      "hit": false,
      "t": 263749.99999999965,
      "d": 3166.6666666667443,
      "v": 78
    },
    {
      "midi": 65,
      "hit": false,
      "t": 263999.99999999965,
      "d": 183.33333333331393,
      "v": 89
    },
    {
      "midi": 70,
      "hit": false,
      "t": 263999.99999999965,
      "d": 208.33333333331393,
      "v": 95
    },
    {
      "midi": 62,
      "hit": false,
      "t": 263999.99999999965,
      "d": 225,
      "v": 86
    },
    {
      "midi": 62,
      "hit": false,
      "t": 264249.99999999965,
      "d": 166.66666666668607,
      "v": 43
    },
    {
      "midi": 65,
      "hit": false,
      "t": 264249.99999999965,
      "d": 166.66666666668607,
      "v": 80
    },
    {
      "midi": 70,
      "hit": false,
      "t": 264249.99999999965,
      "d": 166.66666666668607,
      "v": 80
    },
    {
      "midi": 65,
      "hit": false,
      "t": 265499.99999999965,
      "d": 141.66666666668607,
      "v": 92
    },
    {
      "midi": 70,
      "hit": false,
      "t": 265499.99999999965,
      "d": 141.66666666668607,
      "v": 99
    },
    {
      "midi": 62,
      "hit": false,
      "t": 265499.99999999965,
      "d": 183.33333333337214,
      "v": 92
    },
    {
      "midi": 70,
      "hit": false,
      "t": 265749.9999999997,
      "d": 141.66666666668607,
      "v": 83
    },
    {
      "midi": 62,
      "hit": false,
      "t": 265749.9999999997,
      "d": 166.66666666668607,
      "v": 33
    },
    {
      "midi": 65,
      "hit": false,
      "t": 265749.9999999997,
      "d": 166.66666666668607,
      "v": 70
    },
    {
      "midi": 58,
      "hit": false,
      "t": 265999.9999999997,
      "d": 391.66666666668607,
      "v": 36
    },
    {
      "midi": 65,
      "hit": false,
      "t": 266249.9999999997,
      "d": 141.66666666668607,
      "v": 63
    },
    {
      "midi": 70,
      "hit": false,
      "t": 266249.9999999997,
      "d": 141.66666666668607,
      "v": 83
    },
    {
      "midi": 62,
      "hit": false,
      "t": 266249.9999999997,
      "d": 166.66666666668607,
      "v": 59
    },
    {
      "midi": 48,
      "hit": false,
      "t": 267749.9999999997,
      "d": 3541.666666666686,
      "v": 65
    },
    {
      "midi": 60,
      "hit": false,
      "t": 267999.9999999997,
      "d": 1500,
      "v": 86
    },
    {
      "midi": 63,
      "hit": false,
      "t": 267999.9999999997,
      "d": 1766.666666666686,
      "v": 108
    },
    {
      "midi": 67,
      "hit": false,
      "t": 267999.9999999997,
      "d": 2000,
      "v": 86
    },
    {
      "midi": 63,
      "hit": false,
      "t": 270499.9999999997,
      "d": 125,
      "v": 116
    },
    {
      "midi": 67,
      "hit": false,
      "t": 270499.9999999997,
      "d": 141.66666666668607,
      "v": 89
    },
    {
      "midi": 60,
      "hit": false,
      "t": 270499.9999999997,
      "d": 166.66666666668607,
      "v": 92
    },
    {
      "midi": 60,
      "hit": false,
      "t": 270749.9999999997,
      "d": 141.66666666668607,
      "v": 55
    },
    {
      "midi": 63,
      "hit": false,
      "t": 270749.9999999997,
      "d": 141.66666666668607,
      "v": 75
    },
    {
      "midi": 67,
      "hit": false,
      "t": 270749.9999999997,
      "d": 141.66666666668607,
      "v": 70
    },
    {
      "midi": 63,
      "hit": false,
      "t": 271249.9999999997,
      "d": 58.33333333337214,
      "v": 108
    },
    {
      "midi": 67,
      "hit": false,
      "t": 271249.9999999997,
      "d": 83.33333333337214,
      "v": 83
    },
    {
      "midi": 60,
      "hit": false,
      "t": 271249.9999999997,
      "d": 100.00000000005821,
      "v": 86
    },
    {
      "midi": 51,
      "hit": false,
      "t": 271749.99999999977,
      "d": 58.33333333331393,
      "v": 80
    },
    {
      "midi": 67,
      "hit": false,
      "t": 271999.99999999977,
      "d": 2125,
      "v": 92
    },
    {
      "midi": 63,
      "hit": false,
      "t": 271999.99999999977,
      "d": 2225,
      "v": 99
    },
    {
      "midi": 58,
      "hit": false,
      "t": 271999.99999999977,
      "d": 2250,
      "v": 108
    },
    {
      "midi": 67,
      "hit": false,
      "t": 274499.99999999977,
      "d": 100,
      "v": 72
    },
    {
      "midi": 63,
      "hit": false,
      "t": 274499.99999999977,
      "d": 125,
      "v": 75
    },
    {
      "midi": 58,
      "hit": false,
      "t": 274499.99999999977,
      "d": 141.66666666668607,
      "v": 92
    },
    {
      "midi": 67,
      "hit": false,
      "t": 274749.99999999977,
      "d": 100,
      "v": 65
    },
    {
      "midi": 58,
      "hit": false,
      "t": 274749.99999999977,
      "d": 125,
      "v": 53
    },
    {
      "midi": 63,
      "hit": false,
      "t": 274749.99999999977,
      "d": 141.66666666668607,
      "v": 86
    },
    {
      "midi": 67,
      "hit": false,
      "t": 275249.99999999977,
      "d": 83.33333333331393,
      "v": 75
    },
    {
      "midi": 63,
      "hit": false,
      "t": 275249.99999999977,
      "d": 100,
      "v": 61
    },
    {
      "midi": 58,
      "hit": false,
      "t": 275249.99999999977,
      "d": 125,
      "v": 86
    },
    {
      "midi": 62,
      "hit": false,
      "t": 275999.99999999977,
      "d": 766.6666666666861,
      "v": 89
    },
    {
      "midi": 65,
      "hit": false,
      "t": 275999.99999999977,
      "d": 891.6666666666861,
      "v": 83
    },
    {
      "midi": 58,
      "hit": false,
      "t": 276499.99999999977,
      "d": 2375,
      "v": 53
    },
    {
      "midi": 46,
      "hit": false,
      "t": 276999.99999999977,
      "d": 141.66666666668607,
      "v": 15
    },
    {
      "midi": 73,
      "hit": false,
      "t": 277499.99999999977,
      "d": 225,
      "v": 127
    },
    {
      "midi": 74,
      "hit": false,
      "t": 277749.99999999977,
      "d": 183.33333333331393,
      "v": 92
    },
    {
      "midi": 70,
      "hit": false,
      "t": 277999.99999999977,
      "d": 125,
      "v": 108
    },
    {
      "midi": 46,
      "hit": false,
      "t": 278249.99999999977,
      "d": 5083.333333333372,
      "v": 83
    },
    {
      "midi": 65,
      "hit": false,
      "t": 278749.99999999977,
      "d": 208.33333333331393,
      "v": 108
    },
    {
      "midi": 67,
      "hit": false,
      "t": 279249.99999999977,
      "d": 558.3333333333139,
      "v": 103
    },
    {
      "midi": 58,
      "hit": false,
      "t": 279749.99999999977,
      "d": 333.33333333331393,
      "v": 83
    },
    {
      "midi": 62,
      "hit": false,
      "t": 279999.99999999977,
      "d": 166.66666666662786,
      "v": 95
    },
    {
      "midi": 65,
      "hit": false,
      "t": 279999.99999999977,
      "d": 208.33333333331393,
      "v": 78
    },
    {
      "midi": 62,
      "hit": false,
      "t": 280249.99999999977,
      "d": 141.66666666668607,
      "v": 61
    },
    {
      "midi": 65,
      "hit": false,
      "t": 280249.99999999977,
      "d": 183.33333333337214,
      "v": 70
    },
    {
      "midi": 58,
      "hit": false,
      "t": 280499.9999999998,
      "d": 166.66666666668607,
      "v": 42
    },
    {
      "midi": 67,
      "hit": false,
      "t": 281499.9999999998,
      "d": 141.66666666668607,
      "v": 99
    },
    {
      "midi": 62,
      "hit": false,
      "t": 281499.9999999998,
      "d": 350,
      "v": 89
    },
    {
      "midi": 67,
      "hit": false,
      "t": 281749.9999999998,
      "d": 208.33333333331393,
      "v": 80
    },
    {
      "midi": 58,
      "hit": false,
      "t": 281999.9999999998,
      "d": 141.66666666668607,
      "v": 50
    },
    {
      "midi": 62,
      "hit": false,
      "t": 282249.9999999998,
      "d": 125,
      "v": 92
    },
    {
      "midi": 65,
      "hit": false,
      "t": 282249.9999999998,
      "d": 125,
      "v": 92
    },
    {
      "midi": 58,
      "hit": false,
      "t": 282499.9999999998,
      "d": 600,
      "v": 26
    },
    {
      "midi": 62,
      "hit": false,
      "t": 283499.9999999998,
      "d": 141.66666666668607,
      "v": 95
    },
    {
      "midi": 65,
      "hit": false,
      "t": 283499.9999999998,
      "d": 166.66666666668607,
      "v": 103
    },
    {
      "midi": 60,
      "hit": false,
      "t": 283999.9999999998,
      "d": 833.3333333333139,
      "v": 89
    },
    {
      "midi": 63,
      "hit": false,
      "t": 283999.9999999998,
      "d": 833.3333333333139,
      "v": 99
    },
    {
      "midi": 67,
      "hit": false,
      "t": 283999.9999999998,
      "d": 1016.6666666666861,
      "v": 86
    },
    {
      "midi": 48,
      "hit": false,
      "t": 284499.9999999998,
      "d": 125,
      "v": 46
    },
    {
      "midi": 48,
      "hit": false,
      "t": 284999.9999999998,
      "d": 2125,
      "v": 53
    },
    {
      "midi": 72,
      "hit": false,
      "t": 285249.9999999998,
      "d": 266.66666666668607,
      "v": 89
    },
    {
      "midi": 70,
      "hit": false,
      "t": 285499.9999999998,
      "d": 225,
      "v": 89
    },
    {
      "midi": 67,
      "hit": false,
      "t": 285749.9999999998,
      "d": 291.66666666668607,
      "v": 103
    },
    {
      "midi": 72,
      "hit": false,
      "t": 285999.9999999998,
      "d": 1458.333333333314,
      "v": 99
    },
    {
      "midi": 68,
      "hit": false,
      "t": 286249.9999999998,
      "d": 41.66666666668607,
      "v": 78
    },
    {
      "midi": 70,
      "hit": false,
      "t": 286249.9999999998,
      "d": 375,
      "v": 127
    },
    {
      "midi": 55,
      "hit": false,
      "t": 286749.9999999998,
      "d": 641.6666666666279,
      "v": 57
    },
    {
      "midi": 67,
      "hit": false,
      "t": 286749.9999999998,
      "d": 1475,
      "v": 108
    },
    {
      "midi": 51,
      "hit": false,
      "t": 287999.9999999998,
      "d": 2958.333333333314,
      "v": 89
    },
    {
      "midi": 58,
      "hit": false,
      "t": 288249.9999999998,
      "d": 1250,
      "v": 53
    },
    {
      "midi": 70,
      "hit": false,
      "t": 288499.9999999998,
      "d": 83.33333333331393,
      "v": 92
    },
    {
      "midi": 75,
      "hit": false,
      "t": 288499.9999999998,
      "d": 125,
      "v": 95
    },
    {
      "midi": 67,
      "hit": false,
      "t": 288499.9999999998,
      "d": 166.66666666668607,
      "v": 86
    },
    {
      "midi": 75,
      "hit": false,
      "t": 288749.9999999998,
      "d": 125,
      "v": 92
    },
    {
      "midi": 67,
      "hit": false,
      "t": 288749.9999999998,
      "d": 141.66666666668607,
      "v": 68
    },
    {
      "midi": 70,
      "hit": false,
      "t": 288749.9999999998,
      "d": 141.66666666668607,
      "v": 83
    },
    {
      "midi": 75,
      "hit": false,
      "t": 289249.9999999998,
      "d": 100,
      "v": 92
    },
    {
      "midi": 67,
      "hit": false,
      "t": 289249.9999999998,
      "d": 125,
      "v": 83
    },
    {
      "midi": 70,
      "hit": false,
      "t": 289249.9999999998,
      "d": 125,
      "v": 92
    },
    {
      "midi": 58,
      "hit": false,
      "t": 289749.9999999998,
      "d": 458.33333333331393,
      "v": 43
    },
    {
      "midi": 75,
      "hit": false,
      "t": 289999.9999999998,
      "d": 625,
      "v": 92
    },
    {
      "midi": 70,
      "hit": false,
      "t": 289999.9999999998,
      "d": 808.3333333333139,
      "v": 89
    },
    {
      "midi": 67,
      "hit": false,
      "t": 289999.9999999998,
      "d": 933.3333333333139,
      "v": 86
    },
    {
      "midi": 60,
      "hit": false,
      "t": 291999.99999999977,
      "d": 808.3333333333139,
      "v": 80
    },
    {
      "midi": 65,
      "hit": false,
      "t": 291999.99999999977,
      "d": 808.3333333333139,
      "v": 80
    },
    {
      "midi": 69,
      "hit": false,
      "t": 291999.99999999977,
      "d": 808.3333333333139,
      "v": 75
    },
    {
      "midi": 53,
      "hit": false,
      "t": 291999.99999999977,
      "d": 958.3333333333139,
      "v": 55
    },
    {
      "midi": 53,
      "hit": false,
      "t": 293999.99999999977,
      "d": 58.33333333331393,
      "v": 75
    },
    {
      "midi": 70,
      "hit": false,
      "t": 293999.99999999977,
      "d": 2791.6666666667443,
      "v": 78
    },
    {
      "midi": 62,
      "hit": false,
      "t": 293999.99999999977,
      "d": 2891.6666666667443,
      "v": 68
    },
    {
      "midi": 65,
      "hit": false,
      "t": 293999.99999999977,
      "d": 2891.6666666667443,
      "v": 75
    },
    {
      "midi": 58,
      "hit": false,
      "t": 293999.99999999977,
      "d": 3058.333333333372,
      "v": 86
    },
    {
      "midi": 46,
      "hit": false,
      "t": 293999.99999999977,
      "d": 3375.000000000058,
      "v": 103
    },
    {
      "midi": 53,
      "hit": false,
      "t": 294499.99999999977,
      "d": 2475.000000000058,
      "v": 75
    },
    {
      "midi": 77,
      "hit": false,
      "t": 294974.99999999977,
      "d": 83.33333333337214,
      "v": 99
    },
    {
      "midi": 79,
      "hit": false,
      "t": 295041.66666666645,
      "d": 416.66666666668607,
      "v": 95
    },
    {
      "midi": 77,
      "hit": false,
      "t": 295499.9999999998,
      "d": 333.33333333331393,
      "v": 99
    },
    {
      "midi": 74,
      "hit": false,
      "t": 295999.9999999998,
      "d": 433.33333333331393,
      "v": 103
    },
    {
      "midi": 72,
      "hit": false,
      "t": 296499.9999999998,
      "d": 475,
      "v": 108
    },
    {
      "midi": 70,
      "hit": false,
      "t": 296999.9999999998,
      "d": 516.6666666666861,
      "v": 103
    },
    {
      "midi": 67,
      "hit": false,
      "t": 297499.9999999998,
      "d": 350,
      "v": 92
    },
    {
      "midi": 62,
      "hit": false,
      "t": 297999.9999999998,
      "d": 2000,
      "v": 99
    },
    {
      "midi": 65,
      "hit": false,
      "t": 297999.9999999998,
      "d": 2141.666666666686,
      "v": 99
    },
    {
      "midi": 58,
      "hit": false,
      "t": 297999.9999999998,
      "d": 2375,
      "v": 89
    },
    {
      "midi": 53,
      "hit": false,
      "t": 297999.9999999998,
      "d": 2808.333333333314,
      "v": 89
    },
    {
      "midi": 34,
      "hit": false,
      "t": 297999.9999999998,
      "d": 3041.666666666628,
      "v": 78
    }
  ]
}