{
  "jsonPath": "Unknown/Unknown/Duke Taylor and Fausto Bonetti/imagina.json",
  "path": "Unknown\\Unknown\\Duke Taylor and Fausto Bonetti\\Imagina.mid",
  "name": "Imagina",
  "difficulty": "Intermediate",
  "bpm": 192,
  "notes": [
    {
      "midi": 52,
      "hit": false,
      "t": 335384.716,
      "d": 400.6411458333023,
      "v": 80
    },
    {
      "midi": 55,
      "hit": false,
      "t": 335384.716,
      "d": 400.6411458333023,
      "v": 80
    },
    {
      "midi": 36,
      "hit": false,
      "t": 335384.716,
      "d": 2692.308500000043,
      "v": 80
    },
    {
      "midi": 48,
      "hit": false,
      "t": 335849.45972916664,
      "d": 384.61550000001444,
      "v": 92
    },
    {
      "midi": 52,
      "hit": false,
      "t": 336234.07522916666,
      "d": 384.61550000001444,
      "v": 100
    },
    {
      "midi": 55,
      "hit": false,
      "t": 336234.07522916666,
      "d": 384.61550000001444,
      "v": 104
    },
    {
      "midi": 48,
      "hit": false,
      "t": 336618.6907291667,
      "d": 400.6411458333605,
      "v": 93
    },
    {
      "midi": 52,
      "hit": false,
      "t": 337003.3062291667,
      "d": 352.5642083333223,
      "v": 98
    },
    {
      "midi": 55,
      "hit": false,
      "t": 337003.3062291667,
      "d": 368.5898541666684,
      "v": 100
    },
    {
      "midi": 48,
      "hit": false,
      "t": 337387.9217291667,
      "d": 416.66679166670656,
      "v": 98
    },
    {
      "midi": 52,
      "hit": false,
      "t": 337772.5372291667,
      "d": 320.5129166666884,
      "v": 92
    },
    {
      "midi": 59,
      "hit": false,
      "t": 337772.5372291667,
      "d": 336.53856250003446,
      "v": 91
    },
    {
      "midi": 55,
      "hit": false,
      "t": 337772.5372291667,
      "d": 352.5642083333805,
      "v": 95
    },
    {
      "midi": 48,
      "hit": false,
      "t": 338157.1527291668,
      "d": 400.6411458333605,
      "v": 101
    },
    {
      "midi": 53,
      "hit": false,
      "t": 338541.7682291668,
      "d": 384.61550000001444,
      "v": 95
    },
    {
      "midi": 57,
      "hit": false,
      "t": 338541.7682291668,
      "d": 400.6411458333605,
      "v": 98
    },
    {
      "midi": 60,
      "hit": false,
      "t": 338541.7682291668,
      "d": 400.6411458333605,
      "v": 97
    },
    {
      "midi": 41,
      "hit": false,
      "t": 338541.7682291668,
      "d": 2403.846875000105,
      "v": 96
    },
    {
      "midi": 48,
      "hit": false,
      "t": 338926.3837291668,
      "d": 368.5898541666684,
      "v": 95
    },
    {
      "midi": 53,
      "hit": false,
      "t": 339310.99922916683,
      "d": 368.5898541666684,
      "v": 93
    },
    {
      "midi": 57,
      "hit": false,
      "t": 339310.99922916683,
      "d": 384.61550000001444,
      "v": 96
    },
    {
      "midi": 60,
      "hit": false,
      "t": 339310.99922916683,
      "d": 384.61550000001444,
      "v": 93
    },
    {
      "midi": 48,
      "hit": false,
      "t": 339695.61472916685,
      "d": 416.66679166670656,
      "v": 93
    },
    {
      "midi": 53,
      "hit": false,
      "t": 340080.23022916686,
      "d": 304.48727083334234,
      "v": 89
    },
    {
      "midi": 60,
      "hit": false,
      "t": 340080.23022916686,
      "d": 352.5642083333223,
      "v": 91
    },
    {
      "midi": 57,
      "hit": false,
      "t": 340080.23022916686,
      "d": 368.5898541666684,
      "v": 94
    },
    {
      "midi": 48,
      "hit": false,
      "t": 340464.8457291669,
      "d": 480.7693750000326,
      "v": 93
    },
    {
      "midi": 57,
      "hit": false,
      "t": 340849.4612291669,
      "d": 224.35904166672844,
      "v": 93
    },
    {
      "midi": 53,
      "hit": false,
      "t": 340849.4612291669,
      "d": 320.5129166667466,
      "v": 92
    },
    {
      "midi": 58,
      "hit": false,
      "t": 341041.7689791669,
      "d": 256.41033333336236,
      "v": 89
    },
    {
      "midi": 59,
      "hit": false,
      "t": 341234.07672916696,
      "d": 400.6411458333605,
      "v": 96
    },
    {
      "midi": 55,
      "hit": false,
      "t": 341618.692229167,
      "d": 352.5642083333805,
      "v": 87
    },
    {
      "midi": 52,
      "hit": false,
      "t": 341618.692229167,
      "d": 368.5898541667266,
      "v": 80
    },
    {
      "midi": 62,
      "hit": false,
      "t": 341618.692229167,
      "d": 384.61550000007264,
      "v": 100
    },
    {
      "midi": 36,
      "hit": false,
      "t": 341618.692229167,
      "d": 2660.257208333467,
      "v": 98
    },
    {
      "midi": 48,
      "hit": false,
      "t": 342003.30772916705,
      "d": 416.66679166670656,
      "v": 92
    },
    {
      "midi": 52,
      "hit": false,
      "t": 342387.92322916706,
      "d": 368.5898541666684,
      "v": 96
    },
    {
      "midi": 55,
      "hit": false,
      "t": 342387.92322916706,
      "d": 368.5898541666684,
      "v": 96
    },
    {
      "midi": 48,
      "hit": false,
      "t": 342772.5387291671,
      "d": 384.61550000001444,
      "v": 92
    },
    {
      "midi": 52,
      "hit": false,
      "t": 343157.1542291671,
      "d": 384.61550000001444,
      "v": 95
    },
    {
      "midi": 55,
      "hit": false,
      "t": 343157.1542291671,
      "d": 384.61550000001444,
      "v": 95
    },
    {
      "midi": 48,
      "hit": false,
      "t": 343541.7697291671,
      "d": 384.61550000001444,
      "v": 96
    },
    {
      "midi": 52,
      "hit": false,
      "t": 343926.3852291671,
      "d": 384.61550000001444,
      "v": 90
    },
    {
      "midi": 55,
      "hit": false,
      "t": 343926.3852291671,
      "d": 384.61550000001444,
      "v": 88
    },
    {
      "midi": 59,
      "hit": false,
      "t": 343926.3852291671,
      "d": 400.6411458333605,
      "v": 91
    },
    {
      "midi": 48,
      "hit": false,
      "t": 344311.00072916714,
      "d": 400.6411458333605,
      "v": 91
    },
    {
      "midi": 60,
      "hit": false,
      "t": 344695.61622916715,
      "d": 352.5642083333805,
      "v": 93
    },
    {
      "midi": 53,
      "hit": false,
      "t": 344695.61622916715,
      "d": 368.5898541667266,
      "v": 93
    },
    {
      "midi": 57,
      "hit": false,
      "t": 344695.61622916715,
      "d": 368.5898541667266,
      "v": 90
    },
    {
      "midi": 41,
      "hit": false,
      "t": 344695.61622916715,
      "d": 2580.1289791668532,
      "v": 96
    },
    {
      "midi": 48,
      "hit": false,
      "t": 345080.2317291672,
      "d": 384.61550000001444,
      "v": 93
    },
    {
      "midi": 60,
      "hit": false,
      "t": 345464.84722916724,
      "d": 352.5642083333223,
      "v": 97
    },
    {
      "midi": 57,
      "hit": false,
      "t": 345464.84722916724,
      "d": 368.5898541666684,
      "v": 93
    },
    {
      "midi": 53,
      "hit": false,
      "t": 345464.84722916724,
      "d": 384.61550000001444,
      "v": 93
    },
    {
      "midi": 48,
      "hit": false,
      "t": 345849.46272916725,
      "d": 400.6411458333605,
      "v": 91
    },
    {
      "midi": 53,
      "hit": false,
      "t": 346234.07822916727,
      "d": 368.5898541666684,
      "v": 91
    },
    {
      "midi": 60,
      "hit": false,
      "t": 346234.07822916727,
      "d": 384.61550000001444,
      "v": 94
    },
    {
      "midi": 57,
      "hit": false,
      "t": 346234.07822916727,
      "d": 416.66679166670656,
      "v": 92
    },
    {
      "midi": 48,
      "hit": false,
      "t": 346618.6937291673,
      "d": 721.1540625000489,
      "v": 93
    },
    {
      "midi": 53,
      "hit": false,
      "t": 347003.3092291673,
      "d": 224.35904166667024,
      "v": 93
    },
    {
      "midi": 57,
      "hit": false,
      "t": 347003.3092291673,
      "d": 240.3846875000163,
      "v": 94
    },
    {
      "midi": 58,
      "hit": false,
      "t": 347195.6169791673,
      "d": 240.3846875000163,
      "v": 92
    },
    {
      "midi": 59,
      "hit": false,
      "t": 347387.9247291673,
      "d": 416.66679166664835,
      "v": 100
    }
  ]
}