{
  "jsonPath": "Soundtracks/Video Game Music/Sonic the Hedgehog 2/sonic-the-hedgehog-2-hill-top-zone-by-shazomei.json",
  "path": "Soundtracks\\Video Game Music\\Sonic the Hedgehog 2\\Sonic_the_Hedgehog_2_Hill_Top_Zone_by_Shazomei.mid",
  "name": "Sonic_the_Hedgehog_2_Hill_Top_Zone_by_Shazomei",
  "difficulty": "Advanced",
  "bpm": 115.00002875000719,
  "notes": [
    {
      "midi": 31,
      "hit": false,
      "t": 0,
      "d": 130.43475,
      "v": 94
    },
    {
      "midi": 33,
      "hit": false,
      "t": 130.43475,
      "d": 130.43475,
      "v": 107
    },
    {
      "midi": 36,
      "hit": false,
      "t": 260.8695,
      "d": 128.39670703125,
      "v": 105
    },
    {
      "midi": 36,
      "hit": false,
      "t": 521.739,
      "d": 128.39670703125,
      "v": 100
    },
    {
      "midi": 36,
      "hit": false,
      "t": 782.6085,
      "d": 128.39670703125,
      "v": 98
    },
    {
      "midi": 36,
      "hit": false,
      "t": 1043.478,
      "d": 128.39670703125012,
      "v": 99
    },
    {
      "midi": 36,
      "hit": false,
      "t": 1304.3475,
      "d": 128.3967070312499,
      "v": 101
    },
    {
      "midi": 38,
      "hit": false,
      "t": 1565.2169999999999,
      "d": 130.43475000000012,
      "v": 102
    },
    {
      "midi": 36,
      "hit": false,
      "t": 1695.65175,
      "d": 391.30425000000014,
      "v": 100
    },
    {
      "midi": 76,
      "hit": false,
      "t": 2086.956,
      "d": 1043.478,
      "v": 93
    },
    {
      "midi": 39,
      "hit": false,
      "t": 2086.956,
      "d": 130.4347499999999,
      "v": 106
    },
    {
      "midi": 40,
      "hit": false,
      "t": 2217.39075,
      "d": 130.4347499999999,
      "v": 103
    },
    {
      "midi": 35,
      "hit": false,
      "t": 2347.8255,
      "d": 130.4347499999999,
      "v": 98
    },
    {
      "midi": 36,
      "hit": false,
      "t": 2478.26025,
      "d": 130.4347499999999,
      "v": 105
    },
    {
      "midi": 75,
      "hit": false,
      "t": 3130.434,
      "d": 65.21737500000017,
      "v": 97
    },
    {
      "midi": 76,
      "hit": false,
      "t": 3195.6513750000004,
      "d": 456.52162499999986,
      "v": 106
    },
    {
      "midi": 33,
      "hit": false,
      "t": 3260.8687499999996,
      "d": 130.4347499999999,
      "v": 94
    },
    {
      "midi": 33,
      "hit": false,
      "t": 3391.3034999999995,
      "d": 260.86950000000024,
      "v": 101
    },
    {
      "midi": 34,
      "hit": false,
      "t": 3652.173,
      "d": 260.8694999999998,
      "v": 103
    },
    {
      "midi": 75,
      "hit": false,
      "t": 3652.1730000000002,
      "d": 65.21737500000017,
      "v": 92
    },
    {
      "midi": 76,
      "hit": false,
      "t": 3717.3903750000004,
      "d": 456.52162499999986,
      "v": 102
    },
    {
      "midi": 35,
      "hit": false,
      "t": 3913.0424999999996,
      "d": 260.8694999999998,
      "v": 99
    },
    {
      "midi": 31,
      "hit": false,
      "t": 4173.911999999999,
      "d": 130.43475000000035,
      "v": 96
    },
    {
      "midi": 72,
      "hit": false,
      "t": 4173.912,
      "d": 260.8694999999998,
      "v": 97
    },
    {
      "midi": 33,
      "hit": false,
      "t": 4304.34675,
      "d": 130.43475000000035,
      "v": 103
    },
    {
      "midi": 36,
      "hit": false,
      "t": 4434.7815,
      "d": 128.39670703125012,
      "v": 105
    },
    {
      "midi": 36,
      "hit": false,
      "t": 4695.651,
      "d": 128.39670703125012,
      "v": 99
    },
    {
      "midi": 36,
      "hit": false,
      "t": 4956.5205,
      "d": 128.39670703125012,
      "v": 102
    },
    {
      "midi": 36,
      "hit": false,
      "t": 5217.389999999999,
      "d": 128.39670703125012,
      "v": 99
    },
    {
      "midi": 36,
      "hit": false,
      "t": 5478.259499999999,
      "d": 128.39670703125012,
      "v": 101
    },
    {
      "midi": 38,
      "hit": false,
      "t": 5739.128999999999,
      "d": 130.43475000000035,
      "v": 101
    },
    {
      "midi": 36,
      "hit": false,
      "t": 5869.563749999999,
      "d": 391.30425000000014,
      "v": 99
    },
    {
      "midi": 39,
      "hit": false,
      "t": 6260.8679999999995,
      "d": 130.43475000000035,
      "v": 103
    },
    {
      "midi": 75,
      "hit": false,
      "t": 6260.868,
      "d": 103.94019140625005,
      "v": 91
    },
    {
      "midi": 40,
      "hit": false,
      "t": 6391.30275,
      "d": 130.43475000000035,
      "v": 97
    },
    {
      "midi": 76,
      "hit": false,
      "t": 6391.302750000001,
      "d": 103.94019140625005,
      "v": 104
    },
    {
      "midi": 75,
      "hit": false,
      "t": 6521.737500000001,
      "d": 103.94019140625005,
      "v": 91
    },
    {
      "midi": 76,
      "hit": false,
      "t": 6652.172250000001,
      "d": 103.94019140625005,
      "v": 104
    },
    {
      "midi": 75,
      "hit": false,
      "t": 6782.607000000002,
      "d": 103.94019140625005,
      "v": 91
    },
    {
      "midi": 76,
      "hit": false,
      "t": 6913.041750000002,
      "d": 103.94019140625005,
      "v": 104
    },
    {
      "midi": 75,
      "hit": false,
      "t": 7043.4765000000025,
      "d": 103.94019140625005,
      "v": 91
    },
    {
      "midi": 76,
      "hit": false,
      "t": 7173.911250000003,
      "d": 103.94019140625005,
      "v": 104
    },
    {
      "midi": 75,
      "hit": false,
      "t": 7304.346000000003,
      "d": 85.59780468749977,
      "v": 96
    },
    {
      "midi": 76,
      "hit": false,
      "t": 7389.943804687503,
      "d": 87.63584765625001,
      "v": 107
    },
    {
      "midi": 75,
      "hit": false,
      "t": 7477.579652343753,
      "d": 87.63584765625001,
      "v": 96
    },
    {
      "midi": 76,
      "hit": false,
      "t": 7565.215500000003,
      "d": 85.59780468749977,
      "v": 105
    },
    {
      "midi": 75,
      "hit": false,
      "t": 7650.813304687503,
      "d": 87.63584765625001,
      "v": 97
    },
    {
      "midi": 76,
      "hit": false,
      "t": 7738.449152343753,
      "d": 87.63584765625001,
      "v": 107
    },
    {
      "midi": 75,
      "hit": false,
      "t": 7826.085000000003,
      "d": 85.59780468749977,
      "v": 101
    },
    {
      "midi": 76,
      "hit": false,
      "t": 7911.6828046875025,
      "d": 87.63584765625001,
      "v": 102
    },
    {
      "midi": 75,
      "hit": false,
      "t": 7999.318652343753,
      "d": 87.63584765625001,
      "v": 98
    },
    {
      "midi": 76,
      "hit": false,
      "t": 8086.954500000003,
      "d": 85.59780468749977,
      "v": 104
    },
    {
      "midi": 75,
      "hit": false,
      "t": 8172.552304687502,
      "d": 87.6358476562491,
      "v": 101
    },
    {
      "midi": 76,
      "hit": false,
      "t": 8260.188152343751,
      "d": 87.6358476562491,
      "v": 106
    },
    {
      "midi": 81,
      "hit": false,
      "t": 8347.824,
      "d": 2086.9560000000056,
      "v": 81
    },
    {
      "midi": 77,
      "hit": false,
      "t": 8347.824,
      "d": 2086.9560000000056,
      "v": 81
    },
    {
      "midi": 36,
      "hit": false,
      "t": 8347.824,
      "d": 260.8695000000007,
      "v": 92
    },
    {
      "midi": 67,
      "hit": false,
      "t": 8608.693500000001,
      "d": 130.43475000000035,
      "v": 96
    },
    {
      "midi": 48,
      "hit": false,
      "t": 8608.693500000001,
      "d": 260.8695000000007,
      "v": 107
    },
    {
      "midi": 69,
      "hit": false,
      "t": 8739.128250000002,
      "d": 130.43475000000035,
      "v": 104
    },
    {
      "midi": 72,
      "hit": false,
      "t": 8869.563000000002,
      "d": 260.8695000000007,
      "v": 106
    },
    {
      "midi": 33,
      "hit": false,
      "t": 8869.563000000002,
      "d": 260.8695000000007,
      "v": 93
    },
    {
      "midi": 74,
      "hit": false,
      "t": 9130.432500000003,
      "d": 260.8695000000007,
      "v": 108
    },
    {
      "midi": 45,
      "hit": false,
      "t": 9130.432500000003,
      "d": 260.8695000000007,
      "v": 109
    },
    {
      "midi": 75,
      "hit": false,
      "t": 9391.302000000003,
      "d": 260.8695000000007,
      "v": 102
    },
    {
      "midi": 34,
      "hit": false,
      "t": 9391.302000000003,
      "d": 260.8695000000007,
      "v": 93
    },
    {
      "midi": 74,
      "hit": false,
      "t": 9652.171500000004,
      "d": 260.8695000000007,
      "v": 98
    },
    {
      "midi": 46,
      "hit": false,
      "t": 9652.171500000004,
      "d": 260.8695000000007,
      "v": 108
    },
    {
      "midi": 72,
      "hit": false,
      "t": 9913.041000000005,
      "d": 130.43475000000035,
      "v": 100
    },
    {
      "midi": 35,
      "hit": false,
      "t": 9913.041000000005,
      "d": 260.8695000000007,
      "v": 92
    },
    {
      "midi": 74,
      "hit": false,
      "t": 10043.475750000005,
      "d": 260.8695000000007,
      "v": 105
    },
    {
      "midi": 51,
      "hit": false,
      "t": 10173.910500000005,
      "d": 130.43475000000035,
      "v": 108
    },
    {
      "midi": 72,
      "hit": false,
      "t": 10304.345250000006,
      "d": 130.43475000000035,
      "v": 98
    },
    {
      "midi": 50,
      "hit": false,
      "t": 10304.345250000006,
      "d": 130.43475000000035,
      "v": 101
    },
    {
      "midi": 79,
      "hit": false,
      "t": 10434.780000000006,
      "d": 2086.9560000000038,
      "v": 73
    },
    {
      "midi": 76,
      "hit": false,
      "t": 10434.780000000006,
      "d": 2086.9560000000038,
      "v": 73
    },
    {
      "midi": 36,
      "hit": false,
      "t": 10434.780000000006,
      "d": 260.8695000000007,
      "v": 95
    },
    {
      "midi": 67,
      "hit": false,
      "t": 10695.649500000007,
      "d": 130.43475000000035,
      "v": 92
    },
    {
      "midi": 48,
      "hit": false,
      "t": 10695.649500000007,
      "d": 260.8695000000007,
      "v": 112
    },
    {
      "midi": 69,
      "hit": false,
      "t": 10826.084250000007,
      "d": 130.43475000000035,
      "v": 107
    },
    {
      "midi": 72,
      "hit": false,
      "t": 10956.519000000008,
      "d": 521.7389999999996,
      "v": 108
    },
    {
      "midi": 33,
      "hit": false,
      "t": 10956.519000000008,
      "d": 260.8695000000007,
      "v": 97
    },
    {
      "midi": 45,
      "hit": false,
      "t": 11217.388500000008,
      "d": 260.8695000000007,
      "v": 106
    },
    {
      "midi": 67,
      "hit": false,
      "t": 11478.258000000007,
      "d": 130.43475000000035,
      "v": 89
    },
    {
      "midi": 34,
      "hit": false,
      "t": 11478.258000000009,
      "d": 260.8695000000007,
      "v": 92
    },
    {
      "midi": 69,
      "hit": false,
      "t": 11608.692750000007,
      "d": 130.43475000000035,
      "v": 105
    },
    {
      "midi": 72,
      "hit": false,
      "t": 11739.127500000008,
      "d": 260.8695000000007,
      "v": 106
    },
    {
      "midi": 46,
      "hit": false,
      "t": 11739.12750000001,
      "d": 260.8695000000007,
      "v": 113
    },
    {
      "midi": 75,
      "hit": false,
      "t": 11999.997000000008,
      "d": 130.43475000000035,
      "v": 106
    },
    {
      "midi": 35,
      "hit": false,
      "t": 11999.99700000001,
      "d": 260.8695000000007,
      "v": 96
    },
    {
      "midi": 72,
      "hit": false,
      "t": 12130.431750000009,
      "d": 260.8695000000007,
      "v": 92
    },
    {
      "midi": 47,
      "hit": false,
      "t": 12260.866500000011,
      "d": 260.8695000000007,
      "v": 113
    },
    {
      "midi": 72,
      "hit": false,
      "t": 12391.30125000001,
      "d": 130.43475000000035,
      "v": 104
    },
    {
      "midi": 77,
      "hit": false,
      "t": 12521.73600000001,
      "d": 2086.9560000000038,
      "v": 74
    },
    {
      "midi": 70,
      "hit": false,
      "t": 12521.73600000001,
      "d": 2086.9560000000038,
      "v": 74
    },
    {
      "midi": 36,
      "hit": false,
      "t": 12521.736000000012,
      "d": 260.8695000000007,
      "v": 91
    },
    {
      "midi": 79,
      "hit": false,
      "t": 12652.17075000001,
      "d": 391.30424999999923,
      "v": 95
    },
    {
      "midi": 48,
      "hit": false,
      "t": 12782.605500000012,
      "d": 260.8695000000007,
      "v": 111
    },
    {
      "midi": 75,
      "hit": false,
      "t": 13043.47500000001,
      "d": 260.8695000000007,
      "v": 94
    },
    {
      "midi": 33,
      "hit": false,
      "t": 13043.475000000013,
      "d": 260.8695000000007,
      "v": 93
    },
    {
      "midi": 74,
      "hit": false,
      "t": 13304.34450000001,
      "d": 260.8695000000007,
      "v": 95
    },
    {
      "midi": 45,
      "hit": false,
      "t": 13304.344500000014,
      "d": 260.8695000000007,
      "v": 108
    },
    {
      "midi": 75,
      "hit": false,
      "t": 13565.21400000001,
      "d": 260.8695000000007,
      "v": 104
    },
    {
      "midi": 34,
      "hit": false,
      "t": 13565.214000000014,
      "d": 260.8695000000007,
      "v": 92
    },
    {
      "midi": 74,
      "hit": false,
      "t": 13826.083500000012,
      "d": 260.8695000000007,
      "v": 96
    },
    {
      "midi": 46,
      "hit": false,
      "t": 13826.083500000015,
      "d": 260.8695000000007,
      "v": 109
    },
    {
      "midi": 72,
      "hit": false,
      "t": 14086.953000000012,
      "d": 130.43475000000035,
      "v": 92
    },
    {
      "midi": 35,
      "hit": false,
      "t": 14086.953000000016,
      "d": 260.8695000000007,
      "v": 101
    },
    {
      "midi": 69,
      "hit": false,
      "t": 14217.387750000013,
      "d": 260.8695000000007,
      "v": 92
    },
    {
      "midi": 51,
      "hit": false,
      "t": 14347.822500000017,
      "d": 130.43475000000035,
      "v": 108
    },
    {
      "midi": 72,
      "hit": false,
      "t": 14478.257250000013,
      "d": 130.43475000000035,
      "v": 104
    },
    {
      "midi": 50,
      "hit": false,
      "t": 14478.257250000017,
      "d": 130.43475000000035,
      "v": 96
    },
    {
      "midi": 79,
      "hit": false,
      "t": 14608.692000000014,
      "d": 2086.956000000002,
      "v": 82
    },
    {
      "midi": 76,
      "hit": false,
      "t": 14608.692000000014,
      "d": 2086.956000000002,
      "v": 82
    },
    {
      "midi": 36,
      "hit": false,
      "t": 14608.692000000017,
      "d": 260.8695000000007,
      "v": 90
    },
    {
      "midi": 70,
      "hit": false,
      "t": 14739.126750000014,
      "d": 391.30424999999923,
      "v": 91
    },
    {
      "midi": 48,
      "hit": false,
      "t": 14869.561500000018,
      "d": 260.8695000000007,
      "v": 109
    },
    {
      "midi": 69,
      "hit": false,
      "t": 15130.431000000013,
      "d": 521.7389999999996,
      "v": 93
    },
    {
      "midi": 33,
      "hit": false,
      "t": 15130.431000000019,
      "d": 260.8695000000007,
      "v": 89
    },
    {
      "midi": 45,
      "hit": false,
      "t": 15391.30050000002,
      "d": 260.8695000000007,
      "v": 108
    },
    {
      "midi": 70,
      "hit": false,
      "t": 15652.170000000013,
      "d": 260.8695000000007,
      "v": 104
    },
    {
      "midi": 34,
      "hit": false,
      "t": 15652.17000000002,
      "d": 260.8695000000007,
      "v": 92
    },
    {
      "midi": 69,
      "hit": false,
      "t": 15913.039500000014,
      "d": 260.8695000000007,
      "v": 96
    },
    {
      "midi": 46,
      "hit": false,
      "t": 15913.03950000002,
      "d": 260.8695000000007,
      "v": 108
    },
    {
      "midi": 70,
      "hit": false,
      "t": 16173.909000000014,
      "d": 130.43475000000035,
      "v": 106
    },
    {
      "midi": 35,
      "hit": false,
      "t": 16173.909000000021,
      "d": 260.8695000000007,
      "v": 91
    },
    {
      "midi": 72,
      "hit": false,
      "t": 16304.343750000015,
      "d": 260.8695000000007,
      "v": 103
    },
    {
      "midi": 47,
      "hit": false,
      "t": 16434.778500000022,
      "d": 260.8695000000007,
      "v": 107
    },
    {
      "midi": 72,
      "hit": false,
      "t": 16565.213250000015,
      "d": 130.43475000000035,
      "v": 101
    },
    {
      "midi": 81,
      "hit": false,
      "t": 16695.648000000016,
      "d": 2086.9560000000056,
      "v": 78
    },
    {
      "midi": 77,
      "hit": false,
      "t": 16695.648000000016,
      "d": 2086.9560000000056,
      "v": 78
    },
    {
      "midi": 36,
      "hit": false,
      "t": 16695.648000000023,
      "d": 260.8695000000007,
      "v": 90
    },
    {
      "midi": 67,
      "hit": false,
      "t": 16956.517500000016,
      "d": 130.43475000000035,
      "v": 93
    },
    {
      "midi": 48,
      "hit": false,
      "t": 16956.517500000024,
      "d": 260.8695000000007,
      "v": 114
    },
    {
      "midi": 69,
      "hit": false,
      "t": 17086.952250000017,
      "d": 130.43475000000035,
      "v": 105
    },
    {
      "midi": 72,
      "hit": false,
      "t": 17217.387000000017,
      "d": 260.8695000000007,
      "v": 108
    },
    {
      "midi": 33,
      "hit": false,
      "t": 17217.387000000024,
      "d": 260.8695000000007,
      "v": 90
    },
    {
      "midi": 74,
      "hit": false,
      "t": 17478.256500000018,
      "d": 260.8695000000007,
      "v": 107
    },
    {
      "midi": 45,
      "hit": false,
      "t": 17478.256500000025,
      "d": 260.8695000000007,
      "v": 109
    },
    {
      "midi": 75,
      "hit": false,
      "t": 17739.12600000002,
      "d": 260.8695000000007,
      "v": 105
    },
    {
      "midi": 34,
      "hit": false,
      "t": 17739.126000000026,
      "d": 260.8695000000007,
      "v": 92
    },
    {
      "midi": 74,
      "hit": false,
      "t": 17999.99550000002,
      "d": 260.8695000000007,
      "v": 97
    },
    {
      "midi": 46,
      "hit": false,
      "t": 17999.995500000026,
      "d": 260.8695000000007,
      "v": 109
    },
    {
      "midi": 72,
      "hit": false,
      "t": 18260.86500000002,
      "d": 130.43475000000035,
      "v": 98
    },
    {
      "midi": 35,
      "hit": false,
      "t": 18260.865000000027,
      "d": 260.8695000000007,
      "v": 93
    },
    {
      "midi": 74,
      "hit": false,
      "t": 18391.29975000002,
      "d": 260.8695000000007,
      "v": 104
    },
    {
      "midi": 51,
      "hit": false,
      "t": 18521.734500000028,
      "d": 130.43475000000035,
      "v": 110
    },
    {
      "midi": 72,
      "hit": false,
      "t": 18652.16925000002,
      "d": 130.43475000000035,
      "v": 98
    },
    {
      "midi": 50,
      "hit": false,
      "t": 18652.169250000028,
      "d": 130.43475000000035,
      "v": 98
    },
    {
      "midi": 79,
      "hit": false,
      "t": 18782.60400000002,
      "d": 2086.9560000000056,
      "v": 73
    },
    {
      "midi": 76,
      "hit": false,
      "t": 18782.60400000002,
      "d": 2086.9560000000056,
      "v": 73
    },
    {
      "midi": 36,
      "hit": false,
      "t": 18782.60400000003,
      "d": 260.8695000000007,
      "v": 93
    },
    {
      "midi": 67,
      "hit": false,
      "t": 19043.473500000022,
      "d": 130.43475000000035,
      "v": 95
    },
    {
      "midi": 48,
      "hit": false,
      "t": 19043.47350000003,
      "d": 260.8695000000007,
      "v": 108
    },
    {
      "midi": 69,
      "hit": false,
      "t": 19173.908250000022,
      "d": 130.43475000000035,
      "v": 108
    },
    {
      "midi": 72,
      "hit": false,
      "t": 19304.343000000023,
      "d": 521.7390000000014,
      "v": 112
    },
    {
      "midi": 33,
      "hit": false,
      "t": 19304.34300000003,
      "d": 260.8695000000007,
      "v": 92
    },
    {
      "midi": 45,
      "hit": false,
      "t": 19565.21250000003,
      "d": 260.8695000000007,
      "v": 110
    },
    {
      "midi": 67,
      "hit": false,
      "t": 19826.082000000024,
      "d": 130.43475000000035,
      "v": 90
    },
    {
      "midi": 34,
      "hit": false,
      "t": 19826.08200000003,
      "d": 260.8695000000007,
      "v": 93
    },
    {
      "midi": 69,
      "hit": false,
      "t": 19956.516750000024,
      "d": 130.43475000000035,
      "v": 101
    },
    {
      "midi": 72,
      "hit": false,
      "t": 20086.951500000025,
      "d": 260.8695000000007,
      "v": 106
    },
    {
      "midi": 46,
      "hit": false,
      "t": 20086.951500000032,
      "d": 260.8695000000007,
      "v": 106
    },
    {
      "midi": 75,
      "hit": false,
      "t": 20347.821000000025,
      "d": 130.43475000000035,
      "v": 106
    },
    {
      "midi": 35,
      "hit": false,
      "t": 20347.821000000033,
      "d": 260.8695000000007,
      "v": 94
    },
    {
      "midi": 72,
      "hit": false,
      "t": 20478.255750000026,
      "d": 260.8695000000007,
      "v": 95
    },
    {
      "midi": 47,
      "hit": false,
      "t": 20608.690500000033,
      "d": 260.8695000000007,
      "v": 109
    },
    {
      "midi": 72,
      "hit": false,
      "t": 20739.125250000026,
      "d": 130.43475000000035,
      "v": 103
    },
    {
      "midi": 77,
      "hit": false,
      "t": 20869.560000000027,
      "d": 2086.9560000000056,
      "v": 70
    },
    {
      "midi": 70,
      "hit": false,
      "t": 20869.560000000027,
      "d": 2086.9560000000056,
      "v": 70
    },
    {
      "midi": 36,
      "hit": false,
      "t": 20869.560000000034,
      "d": 260.8695000000007,
      "v": 96
    },
    {
      "midi": 79,
      "hit": false,
      "t": 20999.994750000027,
      "d": 391.30425000000105,
      "v": 94
    },
    {
      "midi": 48,
      "hit": false,
      "t": 21130.429500000035,
      "d": 260.8695000000007,
      "v": 110
    },
    {
      "midi": 75,
      "hit": false,
      "t": 21391.299000000028,
      "d": 260.8695000000007,
      "v": 93
    },
    {
      "midi": 33,
      "hit": false,
      "t": 21391.299000000035,
      "d": 260.8695000000007,
      "v": 93
    },
    {
      "midi": 74,
      "hit": false,
      "t": 21652.16850000003,
      "d": 260.8695000000007,
      "v": 97
    },
    {
      "midi": 45,
      "hit": false,
      "t": 21652.168500000036,
      "d": 260.8695000000007,
      "v": 107
    },
    {
      "midi": 75,
      "hit": false,
      "t": 21913.03800000003,
      "d": 260.8695000000007,
      "v": 107
    },
    {
      "midi": 34,
      "hit": false,
      "t": 21913.038000000037,
      "d": 260.8695000000007,
      "v": 88
    },
    {
      "midi": 74,
      "hit": false,
      "t": 22173.90750000003,
      "d": 260.8695000000007,
      "v": 99
    },
    {
      "midi": 46,
      "hit": false,
      "t": 22173.907500000038,
      "d": 260.8695000000007,
      "v": 109
    },
    {
      "midi": 72,
      "hit": false,
      "t": 22434.77700000003,
      "d": 130.43475000000035,
      "v": 93
    },
    {
      "midi": 35,
      "hit": false,
      "t": 22434.77700000004,
      "d": 260.8695000000007,
      "v": 90
    },
    {
      "midi": 69,
      "hit": false,
      "t": 22565.21175000003,
      "d": 260.8695000000007,
      "v": 96
    },
    {
      "midi": 51,
      "hit": false,
      "t": 22695.64650000004,
      "d": 130.43475000000035,
      "v": 106
    },
    {
      "midi": 72,
      "hit": false,
      "t": 22826.081250000032,
      "d": 130.43475000000035,
      "v": 105
    },
    {
      "midi": 50,
      "hit": false,
      "t": 22826.08125000004,
      "d": 130.43475000000035,
      "v": 104
    },
    {
      "midi": 79,
      "hit": false,
      "t": 22956.516000000032,
      "d": 2086.9560000000056,
      "v": 84
    },
    {
      "midi": 76,
      "hit": false,
      "t": 22956.516000000032,
      "d": 2086.9560000000056,
      "v": 84
    },
    {
      "midi": 36,
      "hit": false,
      "t": 22956.51600000004,
      "d": 260.8695000000007,
      "v": 88
    },
    {
      "midi": 70,
      "hit": false,
      "t": 23086.950750000033,
      "d": 391.30425000000105,
      "v": 90
    },
    {
      "midi": 48,
      "hit": false,
      "t": 23217.38550000004,
      "d": 260.8695000000007,
      "v": 109
    },
    {
      "midi": 69,
      "hit": false,
      "t": 23478.255000000034,
      "d": 521.7390000000014,
      "v": 97
    },
    {
      "midi": 33,
      "hit": false,
      "t": 23478.25500000004,
      "d": 260.8695000000007,
      "v": 92
    },
    {
      "midi": 45,
      "hit": false,
      "t": 23739.12450000004,
      "d": 260.8695000000007,
      "v": 111
    },
    {
      "midi": 70,
      "hit": false,
      "t": 23999.994000000035,
      "d": 260.8695000000007,
      "v": 100
    },
    {
      "midi": 34,
      "hit": false,
      "t": 23999.994000000042,
      "d": 260.8695000000007,
      "v": 95
    },
    {
      "midi": 69,
      "hit": false,
      "t": 24260.863500000036,
      "d": 260.8695000000007,
      "v": 97
    },
    {
      "midi": 46,
      "hit": false,
      "t": 24260.863500000043,
      "d": 260.8695000000007,
      "v": 107
    },
    {
      "midi": 70,
      "hit": false,
      "t": 24521.733000000037,
      "d": 130.43475000000035,
      "v": 106
    },
    {
      "midi": 35,
      "hit": false,
      "t": 24521.733000000044,
      "d": 260.8695000000007,
      "v": 88
    },
    {
      "midi": 72,
      "hit": false,
      "t": 24652.167750000037,
      "d": 260.8695000000007,
      "v": 100
    },
    {
      "midi": 47,
      "hit": false,
      "t": 24782.602500000045,
      "d": 260.8695000000007,
      "v": 109
    },
    {
      "midi": 72,
      "hit": false,
      "t": 24913.037250000038,
      "d": 130.43475000000035,
      "v": 105
    },
    {
      "midi": 81,
      "hit": false,
      "t": 25043.472000000038,
      "d": 260.8695000000007,
      "v": 79
    },
    {
      "midi": 77,
      "hit": false,
      "t": 25043.472000000038,
      "d": 260.8695000000007,
      "v": 79
    },
    {
      "midi": 34,
      "hit": false,
      "t": 25043.472000000045,
      "d": 260.8695000000007,
      "v": 92
    },
    {
      "midi": 70,
      "hit": false,
      "t": 25304.34150000004,
      "d": 130.43475000000035,
      "v": 98
    },
    {
      "midi": 81,
      "hit": false,
      "t": 25304.34150000004,
      "d": 260.8695000000007,
      "v": 78
    },
    {
      "midi": 77,
      "hit": false,
      "t": 25304.34150000004,
      "d": 260.8695000000007,
      "v": 78
    },
    {
      "midi": 46,
      "hit": false,
      "t": 25304.341500000046,
      "d": 260.8695000000007,
      "v": 111
    },
    {
      "midi": 69,
      "hit": false,
      "t": 25434.77625000004,
      "d": 130.43475000000035,
      "v": 69
    },
    {
      "midi": 70,
      "hit": false,
      "t": 25565.21100000004,
      "d": 130.43475000000035,
      "v": 83
    },
    {
      "midi": 79,
      "hit": false,
      "t": 25565.21100000004,
      "d": 260.8695000000007,
      "v": 73
    },
    {
      "midi": 76,
      "hit": false,
      "t": 25565.21100000004,
      "d": 260.8695000000007,
      "v": 73
    },
    {
      "midi": 34,
      "hit": false,
      "t": 25565.211000000047,
      "d": 260.8695000000007,
      "v": 89
    },
    {
      "midi": 72,
      "hit": false,
      "t": 25695.64575000004,
      "d": 130.43475000000035,
      "v": 84
    },
    {
      "midi": 72,
      "hit": false,
      "t": 25826.08050000004,
      "d": 260.8695000000007,
      "v": 105
    },
    {
      "midi": 46,
      "hit": false,
      "t": 25826.080500000047,
      "d": 130.43475000000035,
      "v": 110
    },
    {
      "midi": 46,
      "hit": false,
      "t": 25956.515250000048,
      "d": 130.43475000000035,
      "v": 104
    },
    {
      "midi": 70,
      "hit": false,
      "t": 26086.95000000004,
      "d": 130.43475000000035,
      "v": 72
    },
    {
      "midi": 81,
      "hit": false,
      "t": 26086.95000000004,
      "d": 260.8695000000007,
      "v": 70
    },
    {
      "midi": 77,
      "hit": false,
      "t": 26086.95000000004,
      "d": 260.8695000000007,
      "v": 70
    },
    {
      "midi": 74,
      "hit": false,
      "t": 26086.95000000004,
      "d": 521.7390000000014,
      "v": 101
    },
    {
      "midi": 34,
      "hit": false,
      "t": 26086.950000000048,
      "d": 260.8695000000007,
      "v": 87
    },
    {
      "midi": 69,
      "hit": false,
      "t": 26217.38475000004,
      "d": 130.43475000000035,
      "v": 71
    },
    {
      "midi": 70,
      "hit": false,
      "t": 26347.81950000004,
      "d": 130.43475000000035,
      "v": 82
    },
    {
      "midi": 81,
      "hit": false,
      "t": 26347.81950000004,
      "d": 260.8695000000007,
      "v": 76
    },
    {
      "midi": 77,
      "hit": false,
      "t": 26347.81950000004,
      "d": 260.8695000000007,
      "v": 76
    },
    {
      "midi": 46,
      "hit": false,
      "t": 26347.81950000005,
      "d": 130.43475000000035,
      "v": 111
    },
    {
      "midi": 72,
      "hit": false,
      "t": 26478.25425000004,
      "d": 130.43475000000035,
      "v": 76
    },
    {
      "midi": 46,
      "hit": false,
      "t": 26478.25425000005,
      "d": 130.43475000000035,
      "v": 100
    },
    {
      "midi": 79,
      "hit": false,
      "t": 26608.689000000042,
      "d": 260.8695000000007,
      "v": 68
    },
    {
      "midi": 76,
      "hit": false,
      "t": 26608.689000000042,
      "d": 521.7390000000014,
      "v": 103
    },
    {
      "midi": 34,
      "hit": false,
      "t": 26608.68900000005,
      "d": 260.8695000000007,
      "v": 89
    },
    {
      "midi": 46,
      "hit": false,
      "t": 26869.55850000005,
      "d": 130.43475000000035,
      "v": 107
    },
    {
      "midi": 46,
      "hit": false,
      "t": 26999.99325000005,
      "d": 130.43475000000035,
      "v": 105
    },
    {
      "midi": 81,
      "hit": false,
      "t": 27130.428000000044,
      "d": 260.8695000000007,
      "v": 74
    },
    {
      "midi": 33,
      "hit": false,
      "t": 27130.42800000005,
      "d": 260.8695000000007,
      "v": 90
    },
    {
      "midi": 69,
      "hit": false,
      "t": 27391.297500000044,
      "d": 130.43475000000035,
      "v": 65
    },
    {
      "midi": 81,
      "hit": false,
      "t": 27391.297500000044,
      "d": 260.8695000000007,
      "v": 72
    },
    {
      "midi": 77,
      "hit": false,
      "t": 27391.297500000044,
      "d": 260.8695000000007,
      "v": 72
    },
    {
      "midi": 45,
      "hit": false,
      "t": 27391.29750000005,
      "d": 260.8695000000007,
      "v": 109
    },
    {
      "midi": 67,
      "hit": false,
      "t": 27521.732250000045,
      "d": 130.43475000000035,
      "v": 69
    },
    {
      "midi": 69,
      "hit": false,
      "t": 27652.167000000045,
      "d": 130.43475000000035,
      "v": 83
    },
    {
      "midi": 79,
      "hit": false,
      "t": 27652.167000000045,
      "d": 260.8695000000007,
      "v": 73
    },
    {
      "midi": 76,
      "hit": false,
      "t": 27652.167000000045,
      "d": 521.7390000000014,
      "v": 93
    },
    {
      "midi": 33,
      "hit": false,
      "t": 27652.167000000052,
      "d": 260.8695000000007,
      "v": 92
    },
    {
      "midi": 72,
      "hit": false,
      "t": 27782.601750000045,
      "d": 130.43475000000035,
      "v": 83
    },
    {
      "midi": 45,
      "hit": false,
      "t": 27913.036500000053,
      "d": 130.43475000000035,
      "v": 111
    },
    {
      "midi": 45,
      "hit": false,
      "t": 28043.471250000053,
      "d": 130.43475000000035,
      "v": 102
    },
    {
      "midi": 67,
      "hit": false,
      "t": 28173.906000000046,
      "d": 130.43475000000035,
      "v": 68
    },
    {
      "midi": 74,
      "hit": false,
      "t": 28173.906000000046,
      "d": 260.8695000000007,
      "v": 93
    },
    {
      "midi": 81,
      "hit": false,
      "t": 28173.906000000046,
      "d": 260.8695000000007,
      "v": 64
    },
    {
      "midi": 77,
      "hit": false,
      "t": 28173.906000000046,
      "d": 260.8695000000007,
      "v": 64
    },
    {
      "midi": 31,
      "hit": false,
      "t": 28173.906000000054,
      "d": 260.8695000000007,
      "v": 88
    },
    {
      "midi": 65,
      "hit": false,
      "t": 28304.340750000047,
      "d": 130.43475000000035,
      "v": 70
    },
    {
      "midi": 67,
      "hit": false,
      "t": 28434.775500000047,
      "d": 130.43475000000035,
      "v": 81
    },
    {
      "midi": 81,
      "hit": false,
      "t": 28434.775500000047,
      "d": 260.8695000000007,
      "v": 76
    },
    {
      "midi": 77,
      "hit": false,
      "t": 28434.775500000047,
      "d": 260.8695000000007,
      "v": 76
    },
    {
      "midi": 43,
      "hit": false,
      "t": 28434.775500000054,
      "d": 130.43475000000035,
      "v": 111
    },
    {
      "midi": 70,
      "hit": false,
      "t": 28565.210250000047,
      "d": 130.43475000000035,
      "v": 84
    },
    {
      "midi": 43,
      "hit": false,
      "t": 28565.210250000055,
      "d": 130.43475000000035,
      "v": 105
    },
    {
      "midi": 79,
      "hit": false,
      "t": 28695.645000000048,
      "d": 260.8695000000007,
      "v": 72
    },
    {
      "midi": 76,
      "hit": false,
      "t": 28695.645000000048,
      "d": 521.7390000000014,
      "v": 86
    },
    {
      "midi": 31,
      "hit": false,
      "t": 28695.645000000055,
      "d": 260.8695000000007,
      "v": 93
    },
    {
      "midi": 72,
      "hit": false,
      "t": 28956.51450000005,
      "d": 2347.8255000000063,
      "v": 63
    },
    {
      "midi": 43,
      "hit": false,
      "t": 28956.514500000056,
      "d": 130.43475000000035,
      "v": 112
    },
    {
      "midi": 43,
      "hit": false,
      "t": 29086.949250000056,
      "d": 130.43475000000035,
      "v": 106
    },
    {
      "midi": 64,
      "hit": false,
      "t": 29217.38400000005,
      "d": 260.8695000000007,
      "v": 57
    },
    {
      "midi": 60,
      "hit": false,
      "t": 29217.38400000005,
      "d": 260.8695000000007,
      "v": 57
    },
    {
      "midi": 36,
      "hit": false,
      "t": 29217.384000000056,
      "d": 260.8695000000007,
      "v": 94
    },
    {
      "midi": 64,
      "hit": false,
      "t": 29478.25350000005,
      "d": 260.8695000000007,
      "v": 74
    },
    {
      "midi": 60,
      "hit": false,
      "t": 29478.25350000005,
      "d": 260.8695000000007,
      "v": 74
    },
    {
      "midi": 36,
      "hit": false,
      "t": 29478.253500000057,
      "d": 260.8695000000007,
      "v": 102
    },
    {
      "midi": 65,
      "hit": false,
      "t": 29739.12300000005,
      "d": 260.8695000000007,
      "v": 82
    },
    {
      "midi": 62,
      "hit": false,
      "t": 29739.12300000005,
      "d": 260.8695000000007,
      "v": 82
    },
    {
      "midi": 38,
      "hit": false,
      "t": 29739.123000000058,
      "d": 260.8695000000007,
      "v": 102
    },
    {
      "midi": 65,
      "hit": false,
      "t": 29999.99250000005,
      "d": 260.8695000000007,
      "v": 74
    },
    {
      "midi": 62,
      "hit": false,
      "t": 29999.99250000005,
      "d": 260.8695000000007,
      "v": 74
    },
    {
      "midi": 38,
      "hit": false,
      "t": 29999.99250000006,
      "d": 260.8695000000007,
      "v": 103
    },
    {
      "midi": 66,
      "hit": false,
      "t": 30260.862000000052,
      "d": 260.8695000000007,
      "v": 75
    },
    {
      "midi": 63,
      "hit": false,
      "t": 30260.862000000052,
      "d": 260.8695000000007,
      "v": 75
    },
    {
      "midi": 39,
      "hit": false,
      "t": 30260.86200000006,
      "d": 260.8695000000007,
      "v": 102
    },
    {
      "midi": 66,
      "hit": false,
      "t": 30521.731500000053,
      "d": 260.8695000000007,
      "v": 74
    },
    {
      "midi": 63,
      "hit": false,
      "t": 30521.731500000053,
      "d": 260.8695000000007,
      "v": 74
    },
    {
      "midi": 39,
      "hit": false,
      "t": 30521.73150000006,
      "d": 260.8695000000007,
      "v": 101
    },
    {
      "midi": 67,
      "hit": false,
      "t": 30782.601000000053,
      "d": 521.7390000000014,
      "v": 79
    },
    {
      "midi": 64,
      "hit": false,
      "t": 30782.601000000053,
      "d": 521.7390000000014,
      "v": 79
    },
    {
      "midi": 40,
      "hit": false,
      "t": 30782.60100000006,
      "d": 260.8695000000007,
      "v": 104
    },
    {
      "midi": 31,
      "hit": false,
      "t": 31043.47050000006,
      "d": 130.43475000000035,
      "v": 94
    },
    {
      "midi": 33,
      "hit": false,
      "t": 31173.90525000006,
      "d": 130.43475000000035,
      "v": 98
    },
    {
      "midi": 64,
      "hit": false,
      "t": 31304.340000000055,
      "d": 130.43475000000035,
      "v": 71
    },
    {
      "midi": 60,
      "hit": false,
      "t": 31304.340000000055,
      "d": 130.43475000000035,
      "v": 71
    },
    {
      "midi": 72,
      "hit": false,
      "t": 31304.340000000055,
      "d": 2086.9560000000056,
      "v": 77
    },
    {
      "midi": 36,
      "hit": false,
      "t": 31304.340000000062,
      "d": 130.43475000000035,
      "v": 100
    },
    {
      "midi": 64,
      "hit": false,
      "t": 31434.774750000055,
      "d": 391.30425000000105,
      "v": 68
    },
    {
      "midi": 60,
      "hit": false,
      "t": 31434.774750000055,
      "d": 391.30425000000105,
      "v": 68
    },
    {
      "midi": 36,
      "hit": false,
      "t": 31434.774750000062,
      "d": 391.30425000000105,
      "v": 98
    },
    {
      "midi": 65,
      "hit": false,
      "t": 31826.079000000056,
      "d": 260.8695000000007,
      "v": 79
    },
    {
      "midi": 62,
      "hit": false,
      "t": 31826.079000000056,
      "d": 260.8695000000007,
      "v": 79
    },
    {
      "midi": 38,
      "hit": false,
      "t": 31826.079000000063,
      "d": 260.8695000000007,
      "v": 102
    },
    {
      "midi": 65,
      "hit": false,
      "t": 32086.948500000057,
      "d": 260.8695000000007,
      "v": 77
    },
    {
      "midi": 62,
      "hit": false,
      "t": 32086.948500000057,
      "d": 260.8695000000007,
      "v": 77
    },
    {
      "midi": 38,
      "hit": false,
      "t": 32086.948500000064,
      "d": 260.8695000000007,
      "v": 100
    },
    {
      "midi": 66,
      "hit": false,
      "t": 32347.818000000058,
      "d": 260.8695000000007,
      "v": 84
    },
    {
      "midi": 63,
      "hit": false,
      "t": 32347.818000000058,
      "d": 260.8695000000007,
      "v": 84
    },
    {
      "midi": 39,
      "hit": false,
      "t": 32347.818000000065,
      "d": 260.8695000000007,
      "v": 97
    },
    {
      "midi": 66,
      "hit": false,
      "t": 32608.68750000006,
      "d": 260.8695000000007,
      "v": 75
    },
    {
      "midi": 63,
      "hit": false,
      "t": 32608.68750000006,
      "d": 260.8695000000007,
      "v": 75
    },
    {
      "midi": 39,
      "hit": false,
      "t": 32608.687500000065,
      "d": 260.8695000000007,
      "v": 104
    },
    {
      "midi": 67,
      "hit": false,
      "t": 32869.55700000006,
      "d": 521.7390000000014,
      "v": 78
    },
    {
      "midi": 64,
      "hit": false,
      "t": 32869.55700000006,
      "d": 521.7390000000014,
      "v": 78
    },
    {
      "midi": 40,
      "hit": false,
      "t": 32869.557000000066,
      "d": 260.8695000000007,
      "v": 105
    },
    {
      "midi": 40,
      "hit": false,
      "t": 33130.42650000007,
      "d": 260.8695000000007,
      "v": 100
    },
    {
      "midi": 81,
      "hit": false,
      "t": 33391.29600000006,
      "d": 260.8695000000007,
      "v": 96
    },
    {
      "midi": 77,
      "hit": false,
      "t": 33391.29600000006,
      "d": 260.8695000000007,
      "v": 96
    },
    {
      "midi": 34,
      "hit": false,
      "t": 33391.29600000007,
      "d": 260.8695000000007,
      "v": 94
    },
    {
      "midi": 70,
      "hit": false,
      "t": 33652.16550000006,
      "d": 130.43475000000035,
      "v": 99
    },
    {
      "midi": 81,
      "hit": false,
      "t": 33652.16550000006,
      "d": 260.8695000000007,
      "v": 80
    },
    {
      "midi": 77,
      "hit": false,
      "t": 33652.16550000006,
      "d": 260.8695000000007,
      "v": 80
    },
    {
      "midi": 46,
      "hit": false,
      "t": 33652.16550000007,
      "d": 260.8695000000007,
      "v": 108
    },
    {
      "midi": 69,
      "hit": false,
      "t": 33782.60025000006,
      "d": 130.43475000000035,
      "v": 71
    },
    {
      "midi": 70,
      "hit": false,
      "t": 33913.03500000006,
      "d": 130.43475000000035,
      "v": 81
    },
    {
      "midi": 79,
      "hit": false,
      "t": 33913.03500000006,
      "d": 260.8695000000007,
      "v": 69
    },
    {
      "midi": 76,
      "hit": false,
      "t": 33913.03500000006,
      "d": 260.8695000000007,
      "v": 69
    },
    {
      "midi": 34,
      "hit": false,
      "t": 33913.03500000007,
      "d": 260.8695000000007,
      "v": 91
    },
    {
      "midi": 72,
      "hit": false,
      "t": 34043.46975000006,
      "d": 130.43475000000035,
      "v": 79
    },
    {
      "midi": 72,
      "hit": false,
      "t": 34173.90450000006,
      "d": 260.8695000000007,
      "v": 110
    },
    {
      "midi": 46,
      "hit": false,
      "t": 34173.90450000007,
      "d": 130.43475000000035,
      "v": 113
    },
    {
      "midi": 46,
      "hit": false,
      "t": 34304.33925000007,
      "d": 130.43475000000035,
      "v": 100
    },
    {
      "midi": 70,
      "hit": false,
      "t": 34434.77400000006,
      "d": 130.43475000000035,
      "v": 66
    },
    {
      "midi": 81,
      "hit": false,
      "t": 34434.77400000006,
      "d": 260.8695000000007,
      "v": 68
    },
    {
      "midi": 77,
      "hit": false,
      "t": 34434.77400000006,
      "d": 260.8695000000007,
      "v": 68
    },
    {
      "midi": 74,
      "hit": false,
      "t": 34434.77400000006,
      "d": 521.7390000000014,
      "v": 106
    },
    {
      "midi": 34,
      "hit": false,
      "t": 34434.77400000007,
      "d": 260.8695000000007,
      "v": 92
    },
    {
      "midi": 69,
      "hit": false,
      "t": 34565.20875000006,
      "d": 130.43475000000035,
      "v": 72
    },
    {
      "midi": 70,
      "hit": false,
      "t": 34695.643500000064,
      "d": 130.43475000000035,
      "v": 77
    },
    {
      "midi": 81,
      "hit": false,
      "t": 34695.643500000064,
      "d": 260.8695000000007,
      "v": 71
    },
    {
      "midi": 77,
      "hit": false,
      "t": 34695.643500000064,
      "d": 260.8695000000007,
      "v": 71
    },
    {
      "midi": 46,
      "hit": false,
      "t": 34695.64350000007,
      "d": 130.43475000000035,
      "v": 107
    },
    {
      "midi": 72,
      "hit": false,
      "t": 34826.078250000064,
      "d": 130.43475000000035,
      "v": 78
    },
    {
      "midi": 46,
      "hit": false,
      "t": 34826.07825000007,
      "d": 130.43475000000035,
      "v": 99
    },
    {
      "midi": 79,
      "hit": false,
      "t": 34956.513000000064,
      "d": 260.8695000000007,
      "v": 72
    },
    {
      "midi": 76,
      "hit": false,
      "t": 34956.513000000064,
      "d": 521.7390000000014,
      "v": 104
    },
    {
      "midi": 34,
      "hit": false,
      "t": 34956.51300000007,
      "d": 260.8695000000007,
      "v": 89
    },
    {
      "midi": 46,
      "hit": false,
      "t": 35217.38250000007,
      "d": 130.43475000000035,
      "v": 110
    },
    {
      "midi": 46,
      "hit": false,
      "t": 35347.81725000007,
      "d": 130.43475000000035,
      "v": 103
    },
    {
      "midi": 81,
      "hit": false,
      "t": 35478.252000000066,
      "d": 260.8695000000007,
      "v": 72
    },
    {
      "midi": 33,
      "hit": false,
      "t": 35478.25200000007,
      "d": 260.8695000000007,
      "v": 90
    },
    {
      "midi": 69,
      "hit": false,
      "t": 35739.12150000007,
      "d": 130.43475000000035,
      "v": 66
    },
    {
      "midi": 81,
      "hit": false,
      "t": 35739.12150000007,
      "d": 260.8695000000007,
      "v": 72
    },
    {
      "midi": 77,
      "hit": false,
      "t": 35739.12150000007,
      "d": 260.8695000000007,
      "v": 72
    },
    {
      "midi": 45,
      "hit": false,
      "t": 35739.121500000074,
      "d": 260.8695000000007,
      "v": 111
    },
    {
      "midi": 67,
      "hit": false,
      "t": 35869.55625000007,
      "d": 130.43475000000035,
      "v": 71
    },
    {
      "midi": 69,
      "hit": false,
      "t": 35999.99100000007,
      "d": 130.43475000000035,
      "v": 82
    },
    {
      "midi": 79,
      "hit": false,
      "t": 35999.99100000007,
      "d": 260.8695000000007,
      "v": 64
    },
    {
      "midi": 76,
      "hit": false,
      "t": 35999.99100000007,
      "d": 521.7390000000014,
      "v": 95
    },
    {
      "midi": 33,
      "hit": false,
      "t": 35999.991000000075,
      "d": 260.8695000000007,
      "v": 94
    },
    {
      "midi": 72,
      "hit": false,
      "t": 36130.42575000007,
      "d": 130.43475000000035,
      "v": 86
    },
    {
      "midi": 45,
      "hit": false,
      "t": 36260.860500000075,
      "d": 130.43475000000035,
      "v": 112
    },
    {
      "midi": 45,
      "hit": false,
      "t": 36391.295250000076,
      "d": 130.43475000000035,
      "v": 99
    },
    {
      "midi": 67,
      "hit": false,
      "t": 36521.73000000007,
      "d": 130.43475000000035,
      "v": 68
    },
    {
      "midi": 74,
      "hit": false,
      "t": 36521.73000000007,
      "d": 260.8695000000007,
      "v": 100
    },
    {
      "midi": 81,
      "hit": false,
      "t": 36521.73000000007,
      "d": 260.8695000000007,
      "v": 68
    },
    {
      "midi": 77,
      "hit": false,
      "t": 36521.73000000007,
      "d": 260.8695000000007,
      "v": 68
    },
    {
      "midi": 31,
      "hit": false,
      "t": 36521.730000000076,
      "d": 260.8695000000007,
      "v": 94
    },
    {
      "midi": 65,
      "hit": false,
      "t": 36652.16475000007,
      "d": 130.43475000000035,
      "v": 70
    },
    {
      "midi": 67,
      "hit": false,
      "t": 36782.59950000007,
      "d": 130.43475000000035,
      "v": 80
    },
    {
      "midi": 81,
      "hit": false,
      "t": 36782.59950000007,
      "d": 260.8695000000007,
      "v": 69
    },
    {
      "midi": 77,
      "hit": false,
      "t": 36782.59950000007,
      "d": 260.8695000000007,
      "v": 69
    },
    {
      "midi": 43,
      "hit": false,
      "t": 36782.59950000008,
      "d": 130.43475000000035,
      "v": 110
    },
    {
      "midi": 70,
      "hit": false,
      "t": 36913.03425000007,
      "d": 130.43475000000035,
      "v": 78
    },
    {
      "midi": 43,
      "hit": false,
      "t": 36913.03425000008,
      "d": 130.43475000000035,
      "v": 103
    },
    {
      "midi": 79,
      "hit": false,
      "t": 37043.46900000007,
      "d": 260.8695000000007,
      "v": 72
    },
    {
      "midi": 76,
      "hit": false,
      "t": 37043.46900000007,
      "d": 521.7390000000014,
      "v": 89
    },
    {
      "midi": 31,
      "hit": false,
      "t": 37043.46900000008,
      "d": 260.8695000000007,
      "v": 94
    },
    {
      "midi": 72,
      "hit": false,
      "t": 37304.33850000007,
      "d": 2347.8255000000063,
      "v": 64
    },
    {
      "midi": 43,
      "hit": false,
      "t": 37304.33850000008,
      "d": 130.43475000000035,
      "v": 102
    },
    {
      "midi": 43,
      "hit": false,
      "t": 37434.77325000008,
      "d": 130.43475000000035,
      "v": 101
    },
    {
      "midi": 64,
      "hit": false,
      "t": 37565.20800000007,
      "d": 260.8695000000007,
      "v": 55
    },
    {
      "midi": 60,
      "hit": false,
      "t": 37565.20800000007,
      "d": 260.8695000000007,
      "v": 55
    },
    {
      "midi": 36,
      "hit": false,
      "t": 37565.20800000008,
      "d": 260.8695000000007,
      "v": 92
    },
    {
      "midi": 64,
      "hit": false,
      "t": 37826.07750000007,
      "d": 260.8695000000007,
      "v": 74
    },
    {
      "midi": 60,
      "hit": false,
      "t": 37826.07750000007,
      "d": 260.8695000000007,
      "v": 74
    },
    {
      "midi": 36,
      "hit": false,
      "t": 37826.07750000008,
      "d": 260.8695000000007,
      "v": 103
    },
    {
      "midi": 65,
      "hit": false,
      "t": 38086.94700000007,
      "d": 260.8695000000007,
      "v": 80
    },
    {
      "midi": 62,
      "hit": false,
      "t": 38086.94700000007,
      "d": 260.8695000000007,
      "v": 80
    },
    {
      "midi": 38,
      "hit": false,
      "t": 38086.94700000008,
      "d": 260.8695000000007,
      "v": 104
    },
    {
      "midi": 65,
      "hit": false,
      "t": 38347.81650000007,
      "d": 260.8695000000007,
      "v": 72
    },
    {
      "midi": 62,
      "hit": false,
      "t": 38347.81650000007,
      "d": 260.8695000000007,
      "v": 72
    },
    {
      "midi": 38,
      "hit": false,
      "t": 38347.81650000008,
      "d": 260.8695000000007,
      "v": 100
    },
    {
      "midi": 66,
      "hit": false,
      "t": 38608.686000000074,
      "d": 260.8695000000007,
      "v": 78
    },
    {
      "midi": 63,
      "hit": false,
      "t": 38608.686000000074,
      "d": 260.8695000000007,
      "v": 78
    },
    {
      "midi": 39,
      "hit": false,
      "t": 38608.68600000008,
      "d": 260.8695000000007,
      "v": 103
    },
    {
      "midi": 66,
      "hit": false,
      "t": 38869.555500000075,
      "d": 260.8695000000007,
      "v": 74
    },
    {
      "midi": 63,
      "hit": false,
      "t": 38869.555500000075,
      "d": 260.8695000000007,
      "v": 74
    },
    {
      "midi": 39,
      "hit": false,
      "t": 38869.55550000008,
      "d": 260.8695000000007,
      "v": 101
    },
    {
      "midi": 67,
      "hit": false,
      "t": 39130.425000000076,
      "d": 521.7390000000014,
      "v": 80
    },
    {
      "midi": 64,
      "hit": false,
      "t": 39130.425000000076,
      "d": 521.7390000000014,
      "v": 80
    },
    {
      "midi": 40,
      "hit": false,
      "t": 39130.42500000008,
      "d": 260.8695000000007,
      "v": 103
    },
    {
      "midi": 31,
      "hit": false,
      "t": 39391.294500000084,
      "d": 130.43475000000035,
      "v": 89
    },
    {
      "midi": 33,
      "hit": false,
      "t": 39521.729250000084,
      "d": 130.43475000000035,
      "v": 101
    },
    {
      "midi": 84,
      "hit": false,
      "t": 39652.16400000008,
      "d": 103.94019140624732,
      "v": 95
    },
    {
      "midi": 81,
      "hit": false,
      "t": 39652.16400000008,
      "d": 103.94019140624732,
      "v": 95
    },
    {
      "midi": 36,
      "hit": false,
      "t": 39652.164000000084,
      "d": 130.43475000000035,
      "v": 102
    },
    {
      "midi": 84,
      "hit": false,
      "t": 39782.59875000008,
      "d": 103.94019140624732,
      "v": 89
    },
    {
      "midi": 81,
      "hit": false,
      "t": 39782.59875000008,
      "d": 103.94019140624732,
      "v": 84
    },
    {
      "midi": 36,
      "hit": false,
      "t": 39782.598750000085,
      "d": 130.43475000000035,
      "v": 96
    },
    {
      "midi": 84,
      "hit": false,
      "t": 39913.03350000008,
      "d": 103.94019140624732,
      "v": 90
    },
    {
      "midi": 81,
      "hit": false,
      "t": 39913.03350000008,
      "d": 103.94019140624732,
      "v": 94
    },
    {
      "midi": 84,
      "hit": false,
      "t": 40043.46825000008,
      "d": 103.94019140624732,
      "v": 82
    },
    {
      "midi": 81,
      "hit": false,
      "t": 40043.46825000008,
      "d": 103.94019140624732,
      "v": 88
    },
    {
      "midi": 84,
      "hit": false,
      "t": 40173.90300000008,
      "d": 103.94019140624732,
      "v": 93
    },
    {
      "midi": 81,
      "hit": false,
      "t": 40173.90300000008,
      "d": 103.94019140624732,
      "v": 90
    },
    {
      "midi": 84,
      "hit": false,
      "t": 40304.33775000008,
      "d": 103.94019140624732,
      "v": 83
    },
    {
      "midi": 81,
      "hit": false,
      "t": 40304.33775000008,
      "d": 103.94019140624732,
      "v": 86
    },
    {
      "midi": 84,
      "hit": false,
      "t": 40434.77250000008,
      "d": 103.94019140624732,
      "v": 87
    },
    {
      "midi": 81,
      "hit": false,
      "t": 40434.77250000008,
      "d": 103.94019140624732,
      "v": 92
    },
    {
      "midi": 84,
      "hit": false,
      "t": 40565.20725000008,
      "d": 103.94019140624732,
      "v": 85
    },
    {
      "midi": 81,
      "hit": false,
      "t": 40565.20725000008,
      "d": 103.94019140624732,
      "v": 88
    },
    {
      "midi": 84,
      "hit": false,
      "t": 40695.64200000008,
      "d": 103.94019140624732,
      "v": 80
    },
    {
      "midi": 81,
      "hit": false,
      "t": 40695.64200000008,
      "d": 103.94019140624732,
      "v": 80
    },
    {
      "midi": 81,
      "hit": false,
      "t": 40826.07675000008,
      "d": 0,
      "v": 76
    },
    {
      "midi": 31,
      "hit": false,
      "t": 41739.12000000008,
      "d": 130.43475000000035,
      "v": 92
    },
    {
      "midi": 33,
      "hit": false,
      "t": 41869.55475000008,
      "d": 130.43475000000035,
      "v": 100
    },
    {
      "midi": 36,
      "hit": false,
      "t": 41999.98950000008,
      "d": 128.39670703125012,
      "v": 108
    },
    {
      "midi": 36,
      "hit": false,
      "t": 42260.859000000084,
      "d": 128.39670703125012,
      "v": 104
    },
    {
      "midi": 36,
      "hit": false,
      "t": 42521.728500000085,
      "d": 128.39670703125012,
      "v": 100
    },
    {
      "midi": 36,
      "hit": false,
      "t": 42782.598000000085,
      "d": 128.39670703125012,
      "v": 98
    },
    {
      "midi": 36,
      "hit": false,
      "t": 43043.467500000086,
      "d": 128.39670703125012,
      "v": 97
    },
    {
      "midi": 38,
      "hit": false,
      "t": 43304.33700000009,
      "d": 130.43475000000035,
      "v": 103
    },
    {
      "midi": 36,
      "hit": false,
      "t": 43434.77175000009,
      "d": 391.30425000000105,
      "v": 99
    }
  ]
}