{
  "jsonPath": "Soundtracks/Video Game Music/Sonic the Hedgehog 2/sonic-the-hedgehog-2-wingfortresszone.json",
  "path": "Soundtracks\\Video Game Music\\Sonic the Hedgehog 2\\Sonic_the_Hedgehog_2_WingFortressZone.mid",
  "name": "Sonic_the_Hedgehog_2_WingFortressZone",
  "difficulty": "Advanced",
  "bpm": 120,
  "notes": [
    {
      "midi": 40,
      "hit": false,
      "t": 761.23046875,
      "d": 200.1953125,
      "v": 57
    },
    {
      "midi": 40,
      "hit": false,
      "t": 1010.25390625,
      "d": 191.40625,
      "v": 57
    },
    {
      "midi": 40,
      "hit": false,
      "t": 1250.48828125,
      "d": 244.140625,
      "v": 57
    },
    {
      "midi": 88,
      "hit": false,
      "t": 1500,
      "d": 259.765625,
      "v": 64
    },
    {
      "midi": 45,
      "hit": false,
      "t": 1500,
      "d": 354.98046875,
      "v": 74
    },
    {
      "midi": 85,
      "hit": false,
      "t": 1765.13671875,
      "d": 240.234375,
      "v": 59
    },
    {
      "midi": 45,
      "hit": false,
      "t": 1888.18359375,
      "d": 94.7265625,
      "v": 69
    },
    {
      "midi": 81,
      "hit": false,
      "t": 2010.7421875,
      "d": 245.1171875,
      "v": 59
    },
    {
      "midi": 45,
      "hit": false,
      "t": 2010.7421875,
      "d": 217.28515625,
      "v": 69
    },
    {
      "midi": 85,
      "hit": false,
      "t": 2261.23046875,
      "d": 243.65234375,
      "v": 59
    },
    {
      "midi": 45,
      "hit": false,
      "t": 2261.23046875,
      "d": 215.8203125,
      "v": 69
    },
    {
      "midi": 81,
      "hit": false,
      "t": 2510.25390625,
      "d": 234.375,
      "v": 59
    },
    {
      "midi": 40,
      "hit": false,
      "t": 2510.25390625,
      "d": 207.03125,
      "v": 69
    },
    {
      "midi": 76,
      "hit": false,
      "t": 2750.48828125,
      "d": 244.140625,
      "v": 59
    },
    {
      "midi": 45,
      "hit": false,
      "t": 2750.48828125,
      "d": 216.796875,
      "v": 69
    },
    {
      "midi": 88,
      "hit": false,
      "t": 3000,
      "d": 259.765625,
      "v": 64
    },
    {
      "midi": 49,
      "hit": false,
      "t": 3000,
      "d": 231.93359375,
      "v": 74
    },
    {
      "midi": 85,
      "hit": false,
      "t": 3265.13671875,
      "d": 240.234375,
      "v": 59
    },
    {
      "midi": 47,
      "hit": false,
      "t": 3265.13671875,
      "d": 212.40234375,
      "v": 69
    },
    {
      "midi": 81,
      "hit": false,
      "t": 3510.7421875,
      "d": 245.1171875,
      "v": 59
    },
    {
      "midi": 45,
      "hit": false,
      "t": 3510.7421875,
      "d": 217.28515625,
      "v": 69
    },
    {
      "midi": 85,
      "hit": false,
      "t": 3761.23046875,
      "d": 243.65234375,
      "v": 59
    },
    {
      "midi": 47,
      "hit": false,
      "t": 3761.23046875,
      "d": 215.8203125,
      "v": 69
    },
    {
      "midi": 81,
      "hit": false,
      "t": 4010.25390625,
      "d": 234.86328125,
      "v": 59
    },
    {
      "midi": 49,
      "hit": false,
      "t": 4010.25390625,
      "d": 207.03125,
      "v": 69
    },
    {
      "midi": 76,
      "hit": false,
      "t": 4250.48828125,
      "d": 244.140625,
      "v": 59
    },
    {
      "midi": 50,
      "hit": false,
      "t": 4250.48828125,
      "d": 216.30859375,
      "v": 69
    },
    {
      "midi": 88,
      "hit": false,
      "t": 4500,
      "d": 259.765625,
      "v": 64
    },
    {
      "midi": 49,
      "hit": false,
      "t": 4500,
      "d": 1466.796875,
      "v": 69
    },
    {
      "midi": 85,
      "hit": false,
      "t": 4765.13671875,
      "d": 240.234375,
      "v": 59
    },
    {
      "midi": 81,
      "hit": false,
      "t": 5010.7421875,
      "d": 245.1171875,
      "v": 59
    },
    {
      "midi": 85,
      "hit": false,
      "t": 5261.23046875,
      "d": 243.65234375,
      "v": 59
    },
    {
      "midi": 81,
      "hit": false,
      "t": 5510.25390625,
      "d": 234.86328125,
      "v": 59
    },
    {
      "midi": 76,
      "hit": false,
      "t": 5750.48828125,
      "d": 244.140625,
      "v": 59
    },
    {
      "midi": 88,
      "hit": false,
      "t": 6000,
      "d": 259.765625,
      "v": 64
    },
    {
      "midi": 45,
      "hit": false,
      "t": 6000,
      "d": 354.98046875,
      "v": 74
    },
    {
      "midi": 85,
      "hit": false,
      "t": 6265.13671875,
      "d": 240.234375,
      "v": 59
    },
    {
      "midi": 45,
      "hit": false,
      "t": 6388.18359375,
      "d": 94.7265625,
      "v": 69
    },
    {
      "midi": 81,
      "hit": false,
      "t": 6510.7421875,
      "d": 245.1171875,
      "v": 59
    },
    {
      "midi": 45,
      "hit": false,
      "t": 6510.7421875,
      "d": 217.28515625,
      "v": 69
    },
    {
      "midi": 85,
      "hit": false,
      "t": 6761.23046875,
      "d": 243.65234375,
      "v": 59
    },
    {
      "midi": 45,
      "hit": false,
      "t": 6761.23046875,
      "d": 215.8203125,
      "v": 69
    },
    {
      "midi": 81,
      "hit": false,
      "t": 7010.25390625,
      "d": 234.375,
      "v": 59
    },
    {
      "midi": 40,
      "hit": false,
      "t": 7010.25390625,
      "d": 207.03125,
      "v": 69
    },
    {
      "midi": 76,
      "hit": false,
      "t": 7250.48828125,
      "d": 244.140625,
      "v": 59
    },
    {
      "midi": 45,
      "hit": false,
      "t": 7250.48828125,
      "d": 216.796875,
      "v": 69
    },
    {
      "midi": 88,
      "hit": false,
      "t": 7500,
      "d": 259.765625,
      "v": 64
    },
    {
      "midi": 49,
      "hit": false,
      "t": 7500,
      "d": 231.93359375,
      "v": 74
    },
    {
      "midi": 85,
      "hit": false,
      "t": 7765.13671875,
      "d": 240.234375,
      "v": 59
    },
    {
      "midi": 47,
      "hit": false,
      "t": 7765.13671875,
      "d": 212.40234375,
      "v": 69
    },
    {
      "midi": 81,
      "hit": false,
      "t": 8010.7421875,
      "d": 245.1171875,
      "v": 59
    },
    {
      "midi": 45,
      "hit": false,
      "t": 8010.7421875,
      "d": 217.28515625,
      "v": 69
    },
    {
      "midi": 85,
      "hit": false,
      "t": 8261.23046875,
      "d": 243.65234375,
      "v": 59
    },
    {
      "midi": 47,
      "hit": false,
      "t": 8261.23046875,
      "d": 215.8203125,
      "v": 69
    },
    {
      "midi": 81,
      "hit": false,
      "t": 8510.25390625,
      "d": 234.86328125,
      "v": 59
    },
    {
      "midi": 49,
      "hit": false,
      "t": 8510.25390625,
      "d": 207.03125,
      "v": 69
    },
    {
      "midi": 76,
      "hit": false,
      "t": 8750.48828125,
      "d": 244.140625,
      "v": 59
    },
    {
      "midi": 50,
      "hit": false,
      "t": 8750.48828125,
      "d": 216.30859375,
      "v": 69
    },
    {
      "midi": 88,
      "hit": false,
      "t": 9000,
      "d": 259.765625,
      "v": 64
    },
    {
      "midi": 49,
      "hit": false,
      "t": 9000,
      "d": 728.02734375,
      "v": 74
    },
    {
      "midi": 85,
      "hit": false,
      "t": 9265.13671875,
      "d": 240.234375,
      "v": 59
    },
    {
      "midi": 81,
      "hit": false,
      "t": 9510.7421875,
      "d": 245.1171875,
      "v": 59
    },
    {
      "midi": 85,
      "hit": false,
      "t": 9761.23046875,
      "d": 243.65234375,
      "v": 59
    },
    {
      "midi": 47,
      "hit": false,
      "t": 9761.23046875,
      "d": 215.8203125,
      "v": 69
    },
    {
      "midi": 81,
      "hit": false,
      "t": 10010.25390625,
      "d": 234.86328125,
      "v": 59
    },
    {
      "midi": 49,
      "hit": false,
      "t": 10010.25390625,
      "d": 207.03125,
      "v": 69
    },
    {
      "midi": 76,
      "hit": false,
      "t": 10250.48828125,
      "d": 244.140625,
      "v": 59
    },
    {
      "midi": 50,
      "hit": false,
      "t": 10250.48828125,
      "d": 216.30859375,
      "v": 69
    },
    {
      "midi": 85,
      "hit": false,
      "t": 10500,
      "d": 259.765625,
      "v": 64
    },
    {
      "midi": 49,
      "hit": false,
      "t": 10500,
      "d": 728.02734375,
      "v": 74
    },
    {
      "midi": 81,
      "hit": false,
      "t": 10765.13671875,
      "d": 240.234375,
      "v": 59
    },
    {
      "midi": 76,
      "hit": false,
      "t": 11010.7421875,
      "d": 245.1171875,
      "v": 59
    },
    {
      "midi": 61,
      "hit": false,
      "t": 11261.23046875,
      "d": 456.0546875,
      "v": 71
    },
    {
      "midi": 49,
      "hit": false,
      "t": 11261.23046875,
      "d": 215.8203125,
      "v": 69
    },
    {
      "midi": 50,
      "hit": false,
      "t": 11510.25390625,
      "d": 207.03125,
      "v": 69
    },
    {
      "midi": 62,
      "hit": false,
      "t": 11750.48828125,
      "d": 216.30859375,
      "v": 71
    },
    {
      "midi": 52,
      "hit": false,
      "t": 12000,
      "d": 728.02734375,
      "v": 68
    },
    {
      "midi": 64,
      "hit": false,
      "t": 12000,
      "d": 728.02734375,
      "v": 82
    },
    {
      "midi": 57,
      "hit": false,
      "t": 12761.23046875,
      "d": 705.56640625,
      "v": 63
    },
    {
      "midi": 69,
      "hit": false,
      "t": 12761.23046875,
      "d": 705.56640625,
      "v": 77
    },
    {
      "midi": 49,
      "hit": false,
      "t": 12761.23046875,
      "d": 200.1953125,
      "v": 52
    },
    {
      "midi": 49,
      "hit": false,
      "t": 13010.25390625,
      "d": 191.40625,
      "v": 52
    },
    {
      "midi": 49,
      "hit": false,
      "t": 13250.48828125,
      "d": 200.68359375,
      "v": 52
    },
    {
      "midi": 56,
      "hit": false,
      "t": 13500,
      "d": 728.02734375,
      "v": 68
    },
    {
      "midi": 68,
      "hit": false,
      "t": 13500,
      "d": 728.02734375,
      "v": 82
    },
    {
      "midi": 49,
      "hit": false,
      "t": 13500,
      "d": 477.5390625,
      "v": 69
    },
    {
      "midi": 54,
      "hit": false,
      "t": 14261.23046875,
      "d": 705.56640625,
      "v": 63
    },
    {
      "midi": 66,
      "hit": false,
      "t": 14261.23046875,
      "d": 705.56640625,
      "v": 77
    },
    {
      "midi": 49,
      "hit": false,
      "t": 14261.23046875,
      "d": 456.0546875,
      "v": 64
    },
    {
      "midi": 52,
      "hit": false,
      "t": 15000,
      "d": 728.02734375,
      "v": 68
    },
    {
      "midi": 64,
      "hit": false,
      "t": 15000,
      "d": 728.02734375,
      "v": 82
    },
    {
      "midi": 50,
      "hit": false,
      "t": 15761.23046875,
      "d": 456.0546875,
      "v": 63
    },
    {
      "midi": 62,
      "hit": false,
      "t": 15761.23046875,
      "d": 456.0546875,
      "v": 77
    },
    {
      "midi": 50,
      "hit": false,
      "t": 15761.23046875,
      "d": 200.1953125,
      "v": 52
    },
    {
      "midi": 50,
      "hit": false,
      "t": 16010.25390625,
      "d": 191.40625,
      "v": 52
    },
    {
      "midi": 49,
      "hit": false,
      "t": 16250.48828125,
      "d": 216.30859375,
      "v": 63
    },
    {
      "midi": 61,
      "hit": false,
      "t": 16250.48828125,
      "d": 216.30859375,
      "v": 77
    },
    {
      "midi": 50,
      "hit": false,
      "t": 16250.48828125,
      "d": 200.68359375,
      "v": 52
    },
    {
      "midi": 50,
      "hit": false,
      "t": 16500,
      "d": 728.02734375,
      "v": 68
    },
    {
      "midi": 62,
      "hit": false,
      "t": 16500,
      "d": 728.02734375,
      "v": 82
    },
    {
      "midi": 50,
      "hit": false,
      "t": 16500,
      "d": 477.5390625,
      "v": 69
    },
    {
      "midi": 50,
      "hit": false,
      "t": 17261.23046875,
      "d": 456.0546875,
      "v": 63
    },
    {
      "midi": 62,
      "hit": false,
      "t": 17261.23046875,
      "d": 456.0546875,
      "v": 77
    },
    {
      "midi": 50,
      "hit": false,
      "t": 17261.23046875,
      "d": 456.0546875,
      "v": 64
    },
    {
      "midi": 52,
      "hit": false,
      "t": 17750.48828125,
      "d": 216.30859375,
      "v": 63
    },
    {
      "midi": 64,
      "hit": false,
      "t": 17750.48828125,
      "d": 216.30859375,
      "v": 77
    },
    {
      "midi": 54,
      "hit": false,
      "t": 18000,
      "d": 728.02734375,
      "v": 68
    },
    {
      "midi": 66,
      "hit": false,
      "t": 18000,
      "d": 728.02734375,
      "v": 82
    },
    {
      "midi": 59,
      "hit": false,
      "t": 18761.23046875,
      "d": 705.56640625,
      "v": 63
    },
    {
      "midi": 71,
      "hit": false,
      "t": 18761.23046875,
      "d": 705.56640625,
      "v": 77
    },
    {
      "midi": 50,
      "hit": false,
      "t": 18761.23046875,
      "d": 200.1953125,
      "v": 52
    },
    {
      "midi": 50,
      "hit": false,
      "t": 19010.25390625,
      "d": 191.40625,
      "v": 52
    },
    {
      "midi": 50,
      "hit": false,
      "t": 19250.48828125,
      "d": 200.68359375,
      "v": 52
    },
    {
      "midi": 57,
      "hit": false,
      "t": 19500,
      "d": 728.02734375,
      "v": 68
    },
    {
      "midi": 69,
      "hit": false,
      "t": 19500,
      "d": 728.02734375,
      "v": 82
    },
    {
      "midi": 50,
      "hit": false,
      "t": 19500,
      "d": 477.5390625,
      "v": 69
    },
    {
      "midi": 54,
      "hit": false,
      "t": 20261.23046875,
      "d": 705.56640625,
      "v": 63
    },
    {
      "midi": 66,
      "hit": false,
      "t": 20261.23046875,
      "d": 705.56640625,
      "v": 77
    },
    {
      "midi": 50,
      "hit": false,
      "t": 20261.23046875,
      "d": 456.0546875,
      "v": 64
    },
    {
      "midi": 54,
      "hit": false,
      "t": 21000,
      "d": 728.02734375,
      "v": 68
    },
    {
      "midi": 66,
      "hit": false,
      "t": 21000,
      "d": 728.02734375,
      "v": 82
    },
    {
      "midi": 56,
      "hit": false,
      "t": 21761.23046875,
      "d": 456.0546875,
      "v": 63
    },
    {
      "midi": 68,
      "hit": false,
      "t": 21761.23046875,
      "d": 456.0546875,
      "v": 77
    },
    {
      "midi": 50,
      "hit": false,
      "t": 21761.23046875,
      "d": 200.1953125,
      "v": 52
    },
    {
      "midi": 50,
      "hit": false,
      "t": 22010.25390625,
      "d": 191.40625,
      "v": 52
    },
    {
      "midi": 54,
      "hit": false,
      "t": 22250.48828125,
      "d": 216.30859375,
      "v": 63
    },
    {
      "midi": 66,
      "hit": false,
      "t": 22250.48828125,
      "d": 216.30859375,
      "v": 77
    },
    {
      "midi": 50,
      "hit": false,
      "t": 22250.48828125,
      "d": 200.68359375,
      "v": 52
    },
    {
      "midi": 52,
      "hit": false,
      "t": 22500,
      "d": 1466.796875,
      "v": 63
    },
    {
      "midi": 64,
      "hit": false,
      "t": 22500,
      "d": 1466.796875,
      "v": 77
    },
    {
      "midi": 50,
      "hit": false,
      "t": 22500,
      "d": 477.5390625,
      "v": 69
    },
    {
      "midi": 50,
      "hit": false,
      "t": 23261.23046875,
      "d": 456.0546875,
      "v": 64
    },
    {
      "midi": 69,
      "hit": false,
      "t": 24000,
      "d": 113.76953125,
      "v": 76
    },
    {
      "midi": 59,
      "hit": false,
      "t": 24000,
      "d": 231.93359375,
      "v": 69
    },
    {
      "midi": 70,
      "hit": false,
      "t": 24141.6015625,
      "d": 95.703125,
      "v": 71
    },
    {
      "midi": 69,
      "hit": false,
      "t": 24265.13671875,
      "d": 95.21484375,
      "v": 71
    },
    {
      "midi": 56,
      "hit": false,
      "t": 24265.13671875,
      "d": 462.890625,
      "v": 64
    },
    {
      "midi": 70,
      "hit": false,
      "t": 24388.18359375,
      "d": 94.7265625,
      "v": 71
    },
    {
      "midi": 69,
      "hit": false,
      "t": 24510.7421875,
      "d": 95.703125,
      "v": 71
    },
    {
      "midi": 70,
      "hit": false,
      "t": 24634.27734375,
      "d": 99.12109375,
      "v": 71
    },
    {
      "midi": 69,
      "hit": false,
      "t": 24761.23046875,
      "d": 99.12109375,
      "v": 71
    },
    {
      "midi": 57,
      "hit": false,
      "t": 24761.23046875,
      "d": 215.8203125,
      "v": 64
    },
    {
      "midi": 70,
      "hit": false,
      "t": 24888.18359375,
      "d": 94.23828125,
      "v": 71
    },
    {
      "midi": 69,
      "hit": false,
      "t": 25010.25390625,
      "d": 92.28515625,
      "v": 71
    },
    {
      "midi": 53,
      "hit": false,
      "t": 25010.25390625,
      "d": 456.54296875,
      "v": 64
    },
    {
      "midi": 70,
      "hit": false,
      "t": 25130.37109375,
      "d": 92.28515625,
      "v": 71
    },
    {
      "midi": 69,
      "hit": false,
      "t": 25250.48828125,
      "d": 94.7265625,
      "v": 71
    },
    {
      "midi": 70,
      "hit": false,
      "t": 25373.046875,
      "d": 99.12109375,
      "v": 71
    },
    {
      "midi": 69,
      "hit": false,
      "t": 25500,
      "d": 113.76953125,
      "v": 76
    },
    {
      "midi": 56,
      "hit": false,
      "t": 25500,
      "d": 231.93359375,
      "v": 69
    },
    {
      "midi": 70,
      "hit": false,
      "t": 25641.6015625,
      "d": 95.703125,
      "v": 71
    },
    {
      "midi": 69,
      "hit": false,
      "t": 25765.13671875,
      "d": 95.21484375,
      "v": 71
    },
    {
      "midi": 52,
      "hit": false,
      "t": 25765.13671875,
      "d": 952.1484375,
      "v": 64
    },
    {
      "midi": 70,
      "hit": false,
      "t": 25888.18359375,
      "d": 94.7265625,
      "v": 71
    },
    {
      "midi": 69,
      "hit": false,
      "t": 26010.7421875,
      "d": 95.703125,
      "v": 71
    },
    {
      "midi": 70,
      "hit": false,
      "t": 26134.27734375,
      "d": 99.12109375,
      "v": 71
    },
    {
      "midi": 69,
      "hit": false,
      "t": 26261.23046875,
      "d": 99.12109375,
      "v": 71
    },
    {
      "midi": 70,
      "hit": false,
      "t": 26388.18359375,
      "d": 94.23828125,
      "v": 71
    },
    {
      "midi": 69,
      "hit": false,
      "t": 26510.25390625,
      "d": 92.28515625,
      "v": 71
    },
    {
      "midi": 70,
      "hit": false,
      "t": 26630.37109375,
      "d": 92.28515625,
      "v": 71
    },
    {
      "midi": 69,
      "hit": false,
      "t": 26750.48828125,
      "d": 94.7265625,
      "v": 71
    },
    {
      "midi": 70,
      "hit": false,
      "t": 26873.046875,
      "d": 99.12109375,
      "v": 71
    },
    {
      "midi": 69,
      "hit": false,
      "t": 27000,
      "d": 113.76953125,
      "v": 76
    },
    {
      "midi": 38,
      "hit": false,
      "t": 27000,
      "d": 231.93359375,
      "v": 69
    },
    {
      "midi": 70,
      "hit": false,
      "t": 27141.6015625,
      "d": 95.703125,
      "v": 71
    },
    {
      "midi": 69,
      "hit": false,
      "t": 27265.13671875,
      "d": 95.21484375,
      "v": 71
    },
    {
      "midi": 40,
      "hit": false,
      "t": 27265.13671875,
      "d": 212.40234375,
      "v": 64
    },
    {
      "midi": 70,
      "hit": false,
      "t": 27388.18359375,
      "d": 94.7265625,
      "v": 71
    },
    {
      "midi": 69,
      "hit": false,
      "t": 27510.7421875,
      "d": 95.703125,
      "v": 71
    },
    {
      "midi": 41,
      "hit": false,
      "t": 27510.7421875,
      "d": 217.28515625,
      "v": 64
    },
    {
      "midi": 70,
      "hit": false,
      "t": 27634.27734375,
      "d": 99.12109375,
      "v": 71
    },
    {
      "midi": 69,
      "hit": false,
      "t": 27761.23046875,
      "d": 99.12109375,
      "v": 71
    },
    {
      "midi": 40,
      "hit": false,
      "t": 27761.23046875,
      "d": 215.8203125,
      "v": 64
    },
    {
      "midi": 70,
      "hit": false,
      "t": 27888.18359375,
      "d": 94.23828125,
      "v": 71
    },
    {
      "midi": 69,
      "hit": false,
      "t": 28010.25390625,
      "d": 92.28515625,
      "v": 71
    },
    {
      "midi": 40,
      "hit": false,
      "t": 28010.25390625,
      "d": 207.03125,
      "v": 64
    },
    {
      "midi": 70,
      "hit": false,
      "t": 28130.37109375,
      "d": 92.28515625,
      "v": 71
    },
    {
      "midi": 69,
      "hit": false,
      "t": 28250.48828125,
      "d": 94.7265625,
      "v": 71
    },
    {
      "midi": 40,
      "hit": false,
      "t": 28250.48828125,
      "d": 216.30859375,
      "v": 64
    },
    {
      "midi": 70,
      "hit": false,
      "t": 28373.046875,
      "d": 99.12109375,
      "v": 71
    },
    {
      "midi": 69,
      "hit": false,
      "t": 28500,
      "d": 113.76953125,
      "v": 76
    },
    {
      "midi": 40,
      "hit": false,
      "t": 28500,
      "d": 231.93359375,
      "v": 69
    },
    {
      "midi": 70,
      "hit": false,
      "t": 28641.6015625,
      "d": 95.703125,
      "v": 71
    },
    {
      "midi": 69,
      "hit": false,
      "t": 28765.13671875,
      "d": 95.21484375,
      "v": 71
    },
    {
      "midi": 40,
      "hit": false,
      "t": 28765.13671875,
      "d": 212.40234375,
      "v": 64
    },
    {
      "midi": 70,
      "hit": false,
      "t": 28888.18359375,
      "d": 94.7265625,
      "v": 71
    },
    {
      "midi": 69,
      "hit": false,
      "t": 29010.7421875,
      "d": 95.703125,
      "v": 71
    },
    {
      "midi": 40,
      "hit": false,
      "t": 29010.7421875,
      "d": 217.28515625,
      "v": 64
    },
    {
      "midi": 70,
      "hit": false,
      "t": 29134.27734375,
      "d": 99.12109375,
      "v": 71
    },
    {
      "midi": 69,
      "hit": false,
      "t": 29261.23046875,
      "d": 99.12109375,
      "v": 71
    },
    {
      "midi": 70,
      "hit": false,
      "t": 29388.18359375,
      "d": 94.23828125,
      "v": 71
    },
    {
      "midi": 69,
      "hit": false,
      "t": 29510.25390625,
      "d": 92.28515625,
      "v": 71
    },
    {
      "midi": 70,
      "hit": false,
      "t": 29630.37109375,
      "d": 92.28515625,
      "v": 71
    },
    {
      "midi": 69,
      "hit": false,
      "t": 29750.48828125,
      "d": 94.7265625,
      "v": 71
    },
    {
      "midi": 70,
      "hit": false,
      "t": 29873.046875,
      "d": 99.12109375,
      "v": 71
    },
    {
      "midi": 69,
      "hit": false,
      "t": 30000,
      "d": 113.76953125,
      "v": 76
    },
    {
      "midi": 59,
      "hit": false,
      "t": 30000,
      "d": 231.93359375,
      "v": 69
    },
    {
      "midi": 70,
      "hit": false,
      "t": 30141.6015625,
      "d": 95.703125,
      "v": 71
    },
    {
      "midi": 69,
      "hit": false,
      "t": 30265.13671875,
      "d": 95.21484375,
      "v": 71
    },
    {
      "midi": 56,
      "hit": false,
      "t": 30265.13671875,
      "d": 462.890625,
      "v": 64
    },
    {
      "midi": 70,
      "hit": false,
      "t": 30388.18359375,
      "d": 94.7265625,
      "v": 71
    },
    {
      "midi": 69,
      "hit": false,
      "t": 30510.7421875,
      "d": 95.703125,
      "v": 71
    },
    {
      "midi": 70,
      "hit": false,
      "t": 30634.27734375,
      "d": 99.12109375,
      "v": 71
    },
    {
      "midi": 69,
      "hit": false,
      "t": 30761.23046875,
      "d": 99.12109375,
      "v": 71
    },
    {
      "midi": 57,
      "hit": false,
      "t": 30761.23046875,
      "d": 215.8203125,
      "v": 64
    },
    {
      "midi": 70,
      "hit": false,
      "t": 30888.18359375,
      "d": 94.23828125,
      "v": 71
    },
    {
      "midi": 69,
      "hit": false,
      "t": 31010.25390625,
      "d": 92.28515625,
      "v": 71
    },
    {
      "midi": 53,
      "hit": false,
      "t": 31010.25390625,
      "d": 456.54296875,
      "v": 64
    },
    {
      "midi": 70,
      "hit": false,
      "t": 31130.37109375,
      "d": 92.28515625,
      "v": 71
    },
    {
      "midi": 69,
      "hit": false,
      "t": 31250.48828125,
      "d": 94.7265625,
      "v": 71
    },
    {
      "midi": 70,
      "hit": false,
      "t": 31373.046875,
      "d": 99.12109375,
      "v": 71
    },
    {
      "midi": 69,
      "hit": false,
      "t": 31500,
      "d": 113.76953125,
      "v": 76
    },
    {
      "midi": 56,
      "hit": false,
      "t": 31500,
      "d": 231.93359375,
      "v": 69
    },
    {
      "midi": 70,
      "hit": false,
      "t": 31641.6015625,
      "d": 95.703125,
      "v": 71
    },
    {
      "midi": 69,
      "hit": false,
      "t": 31765.13671875,
      "d": 95.21484375,
      "v": 71
    },
    {
      "midi": 52,
      "hit": false,
      "t": 31765.13671875,
      "d": 462.890625,
      "v": 64
    },
    {
      "midi": 70,
      "hit": false,
      "t": 31888.18359375,
      "d": 94.7265625,
      "v": 71
    },
    {
      "midi": 69,
      "hit": false,
      "t": 32010.7421875,
      "d": 95.703125,
      "v": 71
    },
    {
      "midi": 70,
      "hit": false,
      "t": 32134.27734375,
      "d": 99.12109375,
      "v": 71
    },
    {
      "midi": 69,
      "hit": false,
      "t": 32261.23046875,
      "d": 99.12109375,
      "v": 71
    },
    {
      "midi": 70,
      "hit": false,
      "t": 32388.18359375,
      "d": 94.23828125,
      "v": 71
    },
    {
      "midi": 69,
      "hit": false,
      "t": 32510.25390625,
      "d": 92.28515625,
      "v": 71
    },
    {
      "midi": 70,
      "hit": false,
      "t": 32630.37109375,
      "d": 92.28515625,
      "v": 71
    },
    {
      "midi": 69,
      "hit": false,
      "t": 32750.48828125,
      "d": 94.7265625,
      "v": 71
    },
    {
      "midi": 70,
      "hit": false,
      "t": 32873.046875,
      "d": 99.12109375,
      "v": 71
    },
    {
      "midi": 69,
      "hit": false,
      "t": 33000,
      "d": 113.76953125,
      "v": 76
    },
    {
      "midi": 47,
      "hit": false,
      "t": 33000,
      "d": 231.93359375,
      "v": 69
    },
    {
      "midi": 70,
      "hit": false,
      "t": 33141.6015625,
      "d": 95.703125,
      "v": 71
    },
    {
      "midi": 69,
      "hit": false,
      "t": 33265.13671875,
      "d": 95.21484375,
      "v": 71
    },
    {
      "midi": 44,
      "hit": false,
      "t": 33265.13671875,
      "d": 212.40234375,
      "v": 64
    },
    {
      "midi": 70,
      "hit": false,
      "t": 33388.18359375,
      "d": 94.7265625,
      "v": 71
    },
    {
      "midi": 69,
      "hit": false,
      "t": 33510.7421875,
      "d": 95.703125,
      "v": 71
    },
    {
      "midi": 42,
      "hit": false,
      "t": 33510.7421875,
      "d": 217.28515625,
      "v": 64
    },
    {
      "midi": 70,
      "hit": false,
      "t": 33634.27734375,
      "d": 99.12109375,
      "v": 71
    },
    {
      "midi": 69,
      "hit": false,
      "t": 33761.23046875,
      "d": 99.12109375,
      "v": 71
    },
    {
      "midi": 40,
      "hit": false,
      "t": 33761.23046875,
      "d": 215.8203125,
      "v": 64
    },
    {
      "midi": 70,
      "hit": false,
      "t": 33888.18359375,
      "d": 94.23828125,
      "v": 71
    },
    {
      "midi": 69,
      "hit": false,
      "t": 34010.25390625,
      "d": 92.28515625,
      "v": 71
    },
    {
      "midi": 40,
      "hit": false,
      "t": 34010.25390625,
      "d": 207.03125,
      "v": 64
    },
    {
      "midi": 70,
      "hit": false,
      "t": 34130.37109375,
      "d": 92.28515625,
      "v": 71
    },
    {
      "midi": 69,
      "hit": false,
      "t": 34250.48828125,
      "d": 94.7265625,
      "v": 71
    },
    {
      "midi": 40,
      "hit": false,
      "t": 34250.48828125,
      "d": 216.30859375,
      "v": 64
    },
    {
      "midi": 70,
      "hit": false,
      "t": 34373.046875,
      "d": 99.12109375,
      "v": 71
    },
    {
      "midi": 69,
      "hit": false,
      "t": 34500,
      "d": 113.76953125,
      "v": 76
    },
    {
      "midi": 38,
      "hit": false,
      "t": 34500,
      "d": 231.93359375,
      "v": 69
    },
    {
      "midi": 70,
      "hit": false,
      "t": 34641.6015625,
      "d": 95.703125,
      "v": 71
    },
    {
      "midi": 69,
      "hit": false,
      "t": 34765.13671875,
      "d": 95.21484375,
      "v": 71
    },
    {
      "midi": 40,
      "hit": false,
      "t": 34765.13671875,
      "d": 212.40234375,
      "v": 64
    },
    {
      "midi": 70,
      "hit": false,
      "t": 34888.18359375,
      "d": 94.7265625,
      "v": 71
    },
    {
      "midi": 69,
      "hit": false,
      "t": 35010.7421875,
      "d": 95.703125,
      "v": 71
    },
    {
      "midi": 40,
      "hit": false,
      "t": 35010.7421875,
      "d": 217.28515625,
      "v": 64
    },
    {
      "midi": 70,
      "hit": false,
      "t": 35134.27734375,
      "d": 99.12109375,
      "v": 71
    },
    {
      "midi": 69,
      "hit": false,
      "t": 35261.23046875,
      "d": 99.12109375,
      "v": 71
    },
    {
      "midi": 70,
      "hit": false,
      "t": 35388.18359375,
      "d": 94.23828125,
      "v": 71
    },
    {
      "midi": 69,
      "hit": false,
      "t": 35510.25390625,
      "d": 92.28515625,
      "v": 71
    },
    {
      "midi": 70,
      "hit": false,
      "t": 35630.37109375,
      "d": 92.28515625,
      "v": 71
    },
    {
      "midi": 69,
      "hit": false,
      "t": 35750.48828125,
      "d": 94.7265625,
      "v": 71
    },
    {
      "midi": 70,
      "hit": false,
      "t": 35873.046875,
      "d": 99.12109375,
      "v": 71
    },
    {
      "midi": 47,
      "hit": false,
      "t": 36000,
      "d": 728.02734375,
      "v": 68
    },
    {
      "midi": 59,
      "hit": false,
      "t": 36000,
      "d": 728.02734375,
      "v": 82
    },
    {
      "midi": 49,
      "hit": false,
      "t": 36761.23046875,
      "d": 705.56640625,
      "v": 63
    },
    {
      "midi": 61,
      "hit": false,
      "t": 36761.23046875,
      "d": 705.56640625,
      "v": 77
    },
    {
      "midi": 50,
      "hit": false,
      "t": 36761.23046875,
      "d": 200.1953125,
      "v": 52
    },
    {
      "midi": 50,
      "hit": false,
      "t": 37010.25390625,
      "d": 191.40625,
      "v": 52
    },
    {
      "midi": 50,
      "hit": false,
      "t": 37250.48828125,
      "d": 200.68359375,
      "v": 52
    },
    {
      "midi": 50,
      "hit": false,
      "t": 37500,
      "d": 728.02734375,
      "v": 68
    },
    {
      "midi": 62,
      "hit": false,
      "t": 37500,
      "d": 728.02734375,
      "v": 82
    },
    {
      "midi": 50,
      "hit": false,
      "t": 37500,
      "d": 728.02734375,
      "v": 69
    },
    {
      "midi": 52,
      "hit": false,
      "t": 38261.23046875,
      "d": 705.56640625,
      "v": 63
    },
    {
      "midi": 64,
      "hit": false,
      "t": 38261.23046875,
      "d": 705.56640625,
      "v": 77
    },
    {
      "midi": 42,
      "hit": false,
      "t": 38261.23046875,
      "d": 215.8203125,
      "v": 64
    },
    {
      "midi": 42,
      "hit": false,
      "t": 38510.25390625,
      "d": 207.03125,
      "v": 64
    },
    {
      "midi": 42,
      "hit": false,
      "t": 38750.48828125,
      "d": 216.30859375,
      "v": 64
    },
    {
      "midi": 54,
      "hit": false,
      "t": 39000,
      "d": 728.02734375,
      "v": 68
    },
    {
      "midi": 66,
      "hit": false,
      "t": 39000,
      "d": 728.02734375,
      "v": 82
    },
    {
      "midi": 47,
      "hit": false,
      "t": 39000,
      "d": 231.93359375,
      "v": 69
    },
    {
      "midi": 56,
      "hit": false,
      "t": 39761.23046875,
      "d": 705.56640625,
      "v": 63
    },
    {
      "midi": 68,
      "hit": false,
      "t": 39761.23046875,
      "d": 705.56640625,
      "v": 77
    },
    {
      "midi": 50,
      "hit": false,
      "t": 39761.23046875,
      "d": 215.8203125,
      "v": 64
    },
    {
      "midi": 47,
      "hit": false,
      "t": 40010.25390625,
      "d": 207.03125,
      "v": 64
    },
    {
      "midi": 50,
      "hit": false,
      "t": 40250.48828125,
      "d": 216.30859375,
      "v": 64
    },
    {
      "midi": 57,
      "hit": false,
      "t": 40500,
      "d": 728.02734375,
      "v": 68
    },
    {
      "midi": 69,
      "hit": false,
      "t": 40500,
      "d": 728.02734375,
      "v": 82
    },
    {
      "midi": 54,
      "hit": false,
      "t": 40500,
      "d": 728.02734375,
      "v": 69
    },
    {
      "midi": 59,
      "hit": false,
      "t": 41261.23046875,
      "d": 705.56640625,
      "v": 63
    },
    {
      "midi": 71,
      "hit": false,
      "t": 41261.23046875,
      "d": 705.56640625,
      "v": 77
    },
    {
      "midi": 45,
      "hit": false,
      "t": 41261.23046875,
      "d": 215.8203125,
      "v": 64
    },
    {
      "midi": 44,
      "hit": false,
      "t": 41510.25390625,
      "d": 207.03125,
      "v": 64
    },
    {
      "midi": 42,
      "hit": false,
      "t": 41750.48828125,
      "d": 216.30859375,
      "v": 64
    },
    {
      "midi": 49,
      "hit": false,
      "t": 42000,
      "d": 728.02734375,
      "v": 68
    },
    {
      "midi": 61,
      "hit": false,
      "t": 42000,
      "d": 728.02734375,
      "v": 82
    },
    {
      "midi": 40,
      "hit": false,
      "t": 42000,
      "d": 231.93359375,
      "v": 69
    },
    {
      "midi": 50,
      "hit": false,
      "t": 42761.23046875,
      "d": 705.56640625,
      "v": 63
    },
    {
      "midi": 62,
      "hit": false,
      "t": 42761.23046875,
      "d": 705.56640625,
      "v": 77
    },
    {
      "midi": 52,
      "hit": false,
      "t": 42761.23046875,
      "d": 200.1953125,
      "v": 52
    },
    {
      "midi": 52,
      "hit": false,
      "t": 43010.25390625,
      "d": 191.40625,
      "v": 52
    },
    {
      "midi": 52,
      "hit": false,
      "t": 43250.48828125,
      "d": 200.68359375,
      "v": 52
    },
    {
      "midi": 52,
      "hit": false,
      "t": 43500,
      "d": 728.02734375,
      "v": 68
    },
    {
      "midi": 64,
      "hit": false,
      "t": 43500,
      "d": 728.02734375,
      "v": 82
    },
    {
      "midi": 52,
      "hit": false,
      "t": 43500,
      "d": 728.02734375,
      "v": 69
    },
    {
      "midi": 54,
      "hit": false,
      "t": 44261.23046875,
      "d": 705.56640625,
      "v": 63
    },
    {
      "midi": 66,
      "hit": false,
      "t": 44261.23046875,
      "d": 705.56640625,
      "v": 77
    },
    {
      "midi": 44,
      "hit": false,
      "t": 44261.23046875,
      "d": 215.8203125,
      "v": 64
    },
    {
      "midi": 44,
      "hit": false,
      "t": 44510.25390625,
      "d": 207.03125,
      "v": 64
    },
    {
      "midi": 44,
      "hit": false,
      "t": 44750.48828125,
      "d": 216.30859375,
      "v": 64
    },
    {
      "midi": 56,
      "hit": false,
      "t": 45000,
      "d": 728.02734375,
      "v": 68
    },
    {
      "midi": 68,
      "hit": false,
      "t": 45000,
      "d": 728.02734375,
      "v": 82
    },
    {
      "midi": 49,
      "hit": false,
      "t": 45000,
      "d": 231.93359375,
      "v": 69
    },
    {
      "midi": 57,
      "hit": false,
      "t": 45761.23046875,
      "d": 705.56640625,
      "v": 63
    },
    {
      "midi": 69,
      "hit": false,
      "t": 45761.23046875,
      "d": 705.56640625,
      "v": 77
    },
    {
      "midi": 52,
      "hit": false,
      "t": 45761.23046875,
      "d": 215.8203125,
      "v": 64
    },
    {
      "midi": 49,
      "hit": false,
      "t": 46010.25390625,
      "d": 207.03125,
      "v": 64
    },
    {
      "midi": 52,
      "hit": false,
      "t": 46250.48828125,
      "d": 216.30859375,
      "v": 64
    },
    {
      "midi": 59,
      "hit": false,
      "t": 46500,
      "d": 728.02734375,
      "v": 68
    },
    {
      "midi": 71,
      "hit": false,
      "t": 46500,
      "d": 728.02734375,
      "v": 82
    },
    {
      "midi": 56,
      "hit": false,
      "t": 46500,
      "d": 728.02734375,
      "v": 69
    },
    {
      "midi": 61,
      "hit": false,
      "t": 47261.23046875,
      "d": 705.56640625,
      "v": 63
    },
    {
      "midi": 73,
      "hit": false,
      "t": 47261.23046875,
      "d": 705.56640625,
      "v": 77
    },
    {
      "midi": 42,
      "hit": false,
      "t": 47261.23046875,
      "d": 215.8203125,
      "v": 64
    },
    {
      "midi": 40,
      "hit": false,
      "t": 47510.25390625,
      "d": 207.03125,
      "v": 64
    },
    {
      "midi": 38,
      "hit": false,
      "t": 47750.48828125,
      "d": 216.30859375,
      "v": 64
    },
    {
      "midi": 62,
      "hit": false,
      "t": 48000,
      "d": 2966.796875,
      "v": 63
    },
    {
      "midi": 74,
      "hit": false,
      "t": 48000,
      "d": 2966.796875,
      "v": 77
    },
    {
      "midi": 38,
      "hit": false,
      "t": 48000,
      "d": 728.02734375,
      "v": 69
    },
    {
      "midi": 54,
      "hit": false,
      "t": 48761.23046875,
      "d": 200.1953125,
      "v": 52
    },
    {
      "midi": 54,
      "hit": false,
      "t": 49010.25390625,
      "d": 191.40625,
      "v": 52
    },
    {
      "midi": 54,
      "hit": false,
      "t": 49250.48828125,
      "d": 200.68359375,
      "v": 52
    },
    {
      "midi": 54,
      "hit": false,
      "t": 49500,
      "d": 728.02734375,
      "v": 69
    },
    {
      "midi": 37,
      "hit": false,
      "t": 50261.23046875,
      "d": 200.1953125,
      "v": 52
    },
    {
      "midi": 37,
      "hit": false,
      "t": 50510.25390625,
      "d": 191.40625,
      "v": 52
    },
    {
      "midi": 37,
      "hit": false,
      "t": 50750.48828125,
      "d": 244.140625,
      "v": 52
    },
    {
      "midi": 64,
      "hit": false,
      "t": 51000,
      "d": 2966.796875,
      "v": 63
    },
    {
      "midi": 76,
      "hit": false,
      "t": 51000,
      "d": 2966.796875,
      "v": 77
    },
    {
      "midi": 38,
      "hit": false,
      "t": 51000,
      "d": 728.02734375,
      "v": 69
    },
    {
      "midi": 54,
      "hit": false,
      "t": 51761.23046875,
      "d": 200.1953125,
      "v": 52
    },
    {
      "midi": 54,
      "hit": false,
      "t": 52010.25390625,
      "d": 191.40625,
      "v": 52
    },
    {
      "midi": 54,
      "hit": false,
      "t": 52250.48828125,
      "d": 200.68359375,
      "v": 52
    },
    {
      "midi": 54,
      "hit": false,
      "t": 52500,
      "d": 728.02734375,
      "v": 69
    },
    {
      "midi": 38,
      "hit": false,
      "t": 53261.23046875,
      "d": 200.1953125,
      "v": 52
    },
    {
      "midi": 38,
      "hit": false,
      "t": 53510.25390625,
      "d": 191.40625,
      "v": 52
    },
    {
      "midi": 38,
      "hit": false,
      "t": 53750.48828125,
      "d": 244.140625,
      "v": 52
    },
    {
      "midi": 66,
      "hit": false,
      "t": 54000,
      "d": 1466.796875,
      "v": 63
    },
    {
      "midi": 78,
      "hit": false,
      "t": 54000,
      "d": 1466.796875,
      "v": 77
    },
    {
      "midi": 40,
      "hit": false,
      "t": 54000,
      "d": 728.02734375,
      "v": 69
    },
    {
      "midi": 45,
      "hit": false,
      "t": 54761.23046875,
      "d": 705.56640625,
      "v": 64
    },
    {
      "midi": 64,
      "hit": false,
      "t": 55500,
      "d": 1466.796875,
      "v": 63
    },
    {
      "midi": 76,
      "hit": false,
      "t": 55500,
      "d": 1466.796875,
      "v": 77
    },
    {
      "midi": 40,
      "hit": false,
      "t": 55500,
      "d": 728.02734375,
      "v": 69
    },
    {
      "midi": 45,
      "hit": false,
      "t": 56261.23046875,
      "d": 705.56640625,
      "v": 64
    },
    {
      "midi": 69,
      "hit": false,
      "t": 57000,
      "d": 1466.796875,
      "v": 63
    },
    {
      "midi": 81,
      "hit": false,
      "t": 57000,
      "d": 1466.796875,
      "v": 77
    },
    {
      "midi": 45,
      "hit": false,
      "t": 57000,
      "d": 231.93359375,
      "v": 69
    },
    {
      "midi": 40,
      "hit": false,
      "t": 57265.13671875,
      "d": 462.890625,
      "v": 64
    },
    {
      "midi": 45,
      "hit": false,
      "t": 57761.23046875,
      "d": 215.8203125,
      "v": 64
    },
    {
      "midi": 40,
      "hit": false,
      "t": 58010.25390625,
      "d": 456.54296875,
      "v": 64
    },
    {
      "midi": 68,
      "hit": false,
      "t": 58500,
      "d": 1466.796875,
      "v": 63
    },
    {
      "midi": 80,
      "hit": false,
      "t": 58500,
      "d": 1466.796875,
      "v": 77
    },
    {
      "midi": 45,
      "hit": false,
      "t": 58500,
      "d": 231.93359375,
      "v": 69
    },
    {
      "midi": 40,
      "hit": false,
      "t": 58765.13671875,
      "d": 462.890625,
      "v": 64
    },
    {
      "midi": 45,
      "hit": false,
      "t": 59261.23046875,
      "d": 215.8203125,
      "v": 64
    },
    {
      "midi": 40,
      "hit": false,
      "t": 59510.25390625,
      "d": 456.54296875,
      "v": 64
    }
  ]
}