{
  "jsonPath": "Soundtracks/Video Game Music/Sonic the Hedgehog 2/sonic-the-hedgehog-2-super-sonic-theme-by-shazomei.json",
  "path": "Soundtracks\\Video Game Music\\Sonic the Hedgehog 2\\Sonic_the_Hedgehog_2_Super_Sonic_Theme_by_Shazomei.mid",
  "name": "Sonic_the_Hedgehog_2_Super_Sonic_Theme_by_Shazomei",
  "difficulty": "Advanced",
  "bpm": 146.00032120070665,
  "notes": [
    {
      "midi": 47,
      "hit": false,
      "t": 0,
      "d": 308.2185,
      "v": 67
    },
    {
      "midi": 35,
      "hit": false,
      "t": 0,
      "d": 308.2185,
      "v": 67
    },
    {
      "midi": 71,
      "hit": false,
      "t": 0,
      "d": 308.2185,
      "v": 72
    },
    {
      "midi": 67,
      "hit": false,
      "t": 0,
      "d": 308.2185,
      "v": 72
    },
    {
      "midi": 48,
      "hit": false,
      "t": 308.2185,
      "d": 308.2185,
      "v": 76
    },
    {
      "midi": 36,
      "hit": false,
      "t": 308.2185,
      "d": 308.2185,
      "v": 76
    },
    {
      "midi": 72,
      "hit": false,
      "t": 308.2185,
      "d": 308.2185,
      "v": 79
    },
    {
      "midi": 68,
      "hit": false,
      "t": 308.2185,
      "d": 308.2185,
      "v": 79
    },
    {
      "midi": 49,
      "hit": false,
      "t": 616.437,
      "d": 205.47899999999993,
      "v": 75
    },
    {
      "midi": 37,
      "hit": false,
      "t": 616.437,
      "d": 205.47899999999993,
      "v": 75
    },
    {
      "midi": 73,
      "hit": false,
      "t": 616.437,
      "d": 205.47899999999993,
      "v": 79
    },
    {
      "midi": 69,
      "hit": false,
      "t": 616.437,
      "d": 205.47899999999993,
      "v": 79
    },
    {
      "midi": 48,
      "hit": false,
      "t": 821.9159999999999,
      "d": 308.21849999999995,
      "v": 75
    },
    {
      "midi": 36,
      "hit": false,
      "t": 821.9159999999999,
      "d": 308.21849999999995,
      "v": 75
    },
    {
      "midi": 72,
      "hit": false,
      "t": 821.9159999999999,
      "d": 308.21849999999995,
      "v": 74
    },
    {
      "midi": 68,
      "hit": false,
      "t": 821.9159999999999,
      "d": 308.21849999999995,
      "v": 74
    },
    {
      "midi": 49,
      "hit": false,
      "t": 1130.1345,
      "d": 308.21849999999995,
      "v": 81
    },
    {
      "midi": 37,
      "hit": false,
      "t": 1130.1345,
      "d": 308.21849999999995,
      "v": 81
    },
    {
      "midi": 73,
      "hit": false,
      "t": 1130.1345,
      "d": 308.21849999999995,
      "v": 82
    },
    {
      "midi": 69,
      "hit": false,
      "t": 1130.1345,
      "d": 308.21849999999995,
      "v": 82
    },
    {
      "midi": 50,
      "hit": false,
      "t": 1438.3529999999998,
      "d": 205.47900000000004,
      "v": 79
    },
    {
      "midi": 38,
      "hit": false,
      "t": 1438.3529999999998,
      "d": 205.47900000000004,
      "v": 79
    },
    {
      "midi": 74,
      "hit": false,
      "t": 1438.3529999999998,
      "d": 205.47900000000004,
      "v": 81
    },
    {
      "midi": 70,
      "hit": false,
      "t": 1438.3529999999998,
      "d": 205.47900000000004,
      "v": 81
    },
    {
      "midi": 49,
      "hit": false,
      "t": 1643.8319999999999,
      "d": 308.21849999999995,
      "v": 79
    },
    {
      "midi": 37,
      "hit": false,
      "t": 1643.8319999999999,
      "d": 308.21849999999995,
      "v": 79
    },
    {
      "midi": 73,
      "hit": false,
      "t": 1643.8319999999999,
      "d": 308.21849999999995,
      "v": 71
    },
    {
      "midi": 69,
      "hit": false,
      "t": 1643.8319999999999,
      "d": 308.21849999999995,
      "v": 71
    },
    {
      "midi": 50,
      "hit": false,
      "t": 1952.0504999999998,
      "d": 308.21849999999995,
      "v": 78
    },
    {
      "midi": 38,
      "hit": false,
      "t": 1952.0504999999998,
      "d": 308.21849999999995,
      "v": 78
    },
    {
      "midi": 74,
      "hit": false,
      "t": 1952.0504999999998,
      "d": 308.21849999999995,
      "v": 82
    },
    {
      "midi": 70,
      "hit": false,
      "t": 1952.0504999999998,
      "d": 308.21849999999995,
      "v": 82
    },
    {
      "midi": 51,
      "hit": false,
      "t": 2260.269,
      "d": 205.47899999999981,
      "v": 77
    },
    {
      "midi": 39,
      "hit": false,
      "t": 2260.269,
      "d": 205.47899999999981,
      "v": 77
    },
    {
      "midi": 75,
      "hit": false,
      "t": 2260.269,
      "d": 205.47899999999981,
      "v": 77
    },
    {
      "midi": 71,
      "hit": false,
      "t": 2260.269,
      "d": 205.47899999999981,
      "v": 77
    },
    {
      "midi": 50,
      "hit": false,
      "t": 2465.7479999999996,
      "d": 308.21849999999995,
      "v": 77
    },
    {
      "midi": 38,
      "hit": false,
      "t": 2465.7479999999996,
      "d": 308.21849999999995,
      "v": 77
    },
    {
      "midi": 74,
      "hit": false,
      "t": 2465.7479999999996,
      "d": 308.21849999999995,
      "v": 67
    },
    {
      "midi": 70,
      "hit": false,
      "t": 2465.7479999999996,
      "d": 308.21849999999995,
      "v": 67
    },
    {
      "midi": 52,
      "hit": false,
      "t": 2773.9664999999995,
      "d": 308.21849999999995,
      "v": 80
    },
    {
      "midi": 40,
      "hit": false,
      "t": 2773.9664999999995,
      "d": 308.21849999999995,
      "v": 80
    },
    {
      "midi": 76,
      "hit": false,
      "t": 2773.9664999999995,
      "d": 308.21849999999995,
      "v": 82
    },
    {
      "midi": 72,
      "hit": false,
      "t": 2773.9664999999995,
      "d": 308.21849999999995,
      "v": 82
    },
    {
      "midi": 53,
      "hit": false,
      "t": 3082.1849999999995,
      "d": 205.47899999999981,
      "v": 77
    },
    {
      "midi": 41,
      "hit": false,
      "t": 3082.1849999999995,
      "d": 205.47899999999981,
      "v": 77
    },
    {
      "midi": 77,
      "hit": false,
      "t": 3082.1849999999995,
      "d": 205.47899999999981,
      "v": 84
    },
    {
      "midi": 74,
      "hit": false,
      "t": 3082.1849999999995,
      "d": 205.47899999999981,
      "v": 84
    },
    {
      "midi": 43,
      "hit": false,
      "t": 3287.6639999999993,
      "d": 205.47899999999981,
      "v": 66
    },
    {
      "midi": 62,
      "hit": false,
      "t": 3287.6639999999993,
      "d": 205.47899999999981,
      "v": 40
    },
    {
      "midi": 43,
      "hit": false,
      "t": 3493.142999999999,
      "d": 205.47899999999981,
      "v": 70
    },
    {
      "midi": 62,
      "hit": false,
      "t": 3493.142999999999,
      "d": 205.47899999999981,
      "v": 43
    },
    {
      "midi": 71,
      "hit": false,
      "t": 3493.142999999999,
      "d": 410.95799999999963,
      "v": 70
    },
    {
      "midi": 67,
      "hit": false,
      "t": 3493.142999999999,
      "d": 410.95799999999963,
      "v": 70
    },
    {
      "midi": 38,
      "hit": false,
      "t": 3698.621999999999,
      "d": 205.47899999999981,
      "v": 71
    },
    {
      "midi": 62,
      "hit": false,
      "t": 3698.621999999999,
      "d": 205.47899999999981,
      "v": 45
    },
    {
      "midi": 38,
      "hit": false,
      "t": 3904.1009999999987,
      "d": 205.47900000000027,
      "v": 74
    },
    {
      "midi": 62,
      "hit": false,
      "t": 3904.1009999999987,
      "d": 205.47900000000027,
      "v": 37
    },
    {
      "midi": 71,
      "hit": false,
      "t": 3904.1009999999987,
      "d": 205.47900000000027,
      "v": 77
    },
    {
      "midi": 67,
      "hit": false,
      "t": 3904.1009999999987,
      "d": 205.47900000000027,
      "v": 77
    },
    {
      "midi": 41,
      "hit": false,
      "t": 4109.579999999999,
      "d": 205.47900000000027,
      "v": 78
    },
    {
      "midi": 64,
      "hit": false,
      "t": 4109.579999999999,
      "d": 205.47900000000027,
      "v": 45
    },
    {
      "midi": 72,
      "hit": false,
      "t": 4109.579999999999,
      "d": 308.21849999999995,
      "v": 83
    },
    {
      "midi": 69,
      "hit": false,
      "t": 4109.579999999999,
      "d": 308.21849999999995,
      "v": 83
    },
    {
      "midi": 41,
      "hit": false,
      "t": 4315.058999999999,
      "d": 205.47899999999936,
      "v": 75
    },
    {
      "midi": 64,
      "hit": false,
      "t": 4315.058999999999,
      "d": 205.47899999999936,
      "v": 41
    },
    {
      "midi": 74,
      "hit": false,
      "t": 4417.798499999999,
      "d": 308.21849999999995,
      "v": 83
    },
    {
      "midi": 71,
      "hit": false,
      "t": 4417.798499999999,
      "d": 308.21849999999995,
      "v": 83
    },
    {
      "midi": 40,
      "hit": false,
      "t": 4520.537999999999,
      "d": 205.47900000000027,
      "v": 74
    },
    {
      "midi": 64,
      "hit": false,
      "t": 4520.537999999999,
      "d": 205.47900000000027,
      "v": 41
    },
    {
      "midi": 40,
      "hit": false,
      "t": 4726.016999999999,
      "d": 205.47900000000027,
      "v": 76
    },
    {
      "midi": 64,
      "hit": false,
      "t": 4726.016999999999,
      "d": 205.47900000000027,
      "v": 42
    },
    {
      "midi": 76,
      "hit": false,
      "t": 4726.016999999999,
      "d": 205.47900000000027,
      "v": 85
    },
    {
      "midi": 72,
      "hit": false,
      "t": 4726.016999999999,
      "d": 205.47900000000027,
      "v": 85
    },
    {
      "midi": 43,
      "hit": false,
      "t": 4931.495999999999,
      "d": 205.47900000000027,
      "v": 76
    },
    {
      "midi": 62,
      "hit": false,
      "t": 4931.495999999999,
      "d": 205.47900000000027,
      "v": 40
    },
    {
      "midi": 74,
      "hit": false,
      "t": 4931.495999999999,
      "d": 205.47900000000027,
      "v": 70
    },
    {
      "midi": 71,
      "hit": false,
      "t": 4931.495999999999,
      "d": 205.47900000000027,
      "v": 70
    },
    {
      "midi": 43,
      "hit": false,
      "t": 5136.974999999999,
      "d": 205.47900000000027,
      "v": 76
    },
    {
      "midi": 62,
      "hit": false,
      "t": 5136.974999999999,
      "d": 205.47900000000027,
      "v": 42
    },
    {
      "midi": 74,
      "hit": false,
      "t": 5136.974999999999,
      "d": 205.47900000000027,
      "v": 73
    },
    {
      "midi": 71,
      "hit": false,
      "t": 5136.974999999999,
      "d": 205.47900000000027,
      "v": 73
    },
    {
      "midi": 38,
      "hit": false,
      "t": 5342.454,
      "d": 205.47900000000027,
      "v": 67
    },
    {
      "midi": 62,
      "hit": false,
      "t": 5342.454,
      "d": 205.47900000000027,
      "v": 45
    },
    {
      "midi": 74,
      "hit": false,
      "t": 5342.454,
      "d": 205.47900000000027,
      "v": 78
    },
    {
      "midi": 71,
      "hit": false,
      "t": 5342.454,
      "d": 205.47900000000027,
      "v": 78
    },
    {
      "midi": 38,
      "hit": false,
      "t": 5547.933,
      "d": 205.47900000000027,
      "v": 73
    },
    {
      "midi": 62,
      "hit": false,
      "t": 5547.933,
      "d": 205.47900000000027,
      "v": 39
    },
    {
      "midi": 71,
      "hit": false,
      "t": 5547.933,
      "d": 205.47900000000027,
      "v": 65
    },
    {
      "midi": 67,
      "hit": false,
      "t": 5547.933,
      "d": 205.47900000000027,
      "v": 65
    },
    {
      "midi": 41,
      "hit": false,
      "t": 5753.412,
      "d": 205.47900000000027,
      "v": 79
    },
    {
      "midi": 60,
      "hit": false,
      "t": 5753.412,
      "d": 205.47900000000027,
      "v": 40
    },
    {
      "midi": 72,
      "hit": false,
      "t": 5753.412,
      "d": 308.21849999999995,
      "v": 77
    },
    {
      "midi": 69,
      "hit": false,
      "t": 5753.412,
      "d": 308.21849999999995,
      "v": 77
    },
    {
      "midi": 40,
      "hit": false,
      "t": 5958.8910000000005,
      "d": 102.73949999999968,
      "v": 77
    },
    {
      "midi": 60,
      "hit": false,
      "t": 5958.8910000000005,
      "d": 205.47899999999936,
      "v": 43
    },
    {
      "midi": 41,
      "hit": false,
      "t": 6061.6305,
      "d": 102.73949999999968,
      "v": 78
    },
    {
      "midi": 69,
      "hit": false,
      "t": 6061.6305,
      "d": 308.21849999999904,
      "v": 66
    },
    {
      "midi": 65,
      "hit": false,
      "t": 6061.6305,
      "d": 308.21849999999904,
      "v": 66
    },
    {
      "midi": 40,
      "hit": false,
      "t": 6164.37,
      "d": 102.73949999999968,
      "v": 73
    },
    {
      "midi": 60,
      "hit": false,
      "t": 6164.37,
      "d": 205.47899999999936,
      "v": 43
    },
    {
      "midi": 41,
      "hit": false,
      "t": 6267.1095,
      "d": 102.73949999999968,
      "v": 79
    },
    {
      "midi": 40,
      "hit": false,
      "t": 6369.848999999999,
      "d": 205.47900000000027,
      "v": 76
    },
    {
      "midi": 60,
      "hit": false,
      "t": 6369.848999999999,
      "d": 205.47900000000027,
      "v": 47
    },
    {
      "midi": 43,
      "hit": false,
      "t": 6575.3279999999995,
      "d": 205.47900000000027,
      "v": 77
    },
    {
      "midi": 62,
      "hit": false,
      "t": 6575.3279999999995,
      "d": 205.47900000000027,
      "v": 44
    },
    {
      "midi": 43,
      "hit": false,
      "t": 6780.807,
      "d": 205.47900000000027,
      "v": 77
    },
    {
      "midi": 62,
      "hit": false,
      "t": 6780.807,
      "d": 205.47900000000027,
      "v": 43
    },
    {
      "midi": 71,
      "hit": false,
      "t": 6780.807,
      "d": 410.95800000000054,
      "v": 67
    },
    {
      "midi": 67,
      "hit": false,
      "t": 6780.807,
      "d": 410.95800000000054,
      "v": 67
    },
    {
      "midi": 38,
      "hit": false,
      "t": 6986.286,
      "d": 205.47900000000027,
      "v": 67
    },
    {
      "midi": 62,
      "hit": false,
      "t": 6986.286,
      "d": 205.47900000000027,
      "v": 45
    },
    {
      "midi": 38,
      "hit": false,
      "t": 7191.765,
      "d": 205.47900000000027,
      "v": 74
    },
    {
      "midi": 62,
      "hit": false,
      "t": 7191.765,
      "d": 205.47900000000027,
      "v": 43
    },
    {
      "midi": 71,
      "hit": false,
      "t": 7191.765,
      "d": 205.47900000000027,
      "v": 78
    },
    {
      "midi": 67,
      "hit": false,
      "t": 7191.765,
      "d": 205.47900000000027,
      "v": 78
    },
    {
      "midi": 41,
      "hit": false,
      "t": 7397.244000000001,
      "d": 205.47900000000027,
      "v": 82
    },
    {
      "midi": 64,
      "hit": false,
      "t": 7397.244000000001,
      "d": 205.47900000000027,
      "v": 44
    },
    {
      "midi": 72,
      "hit": false,
      "t": 7397.244000000001,
      "d": 308.21849999999995,
      "v": 81
    },
    {
      "midi": 69,
      "hit": false,
      "t": 7397.244000000001,
      "d": 308.21849999999995,
      "v": 81
    },
    {
      "midi": 41,
      "hit": false,
      "t": 7602.723000000001,
      "d": 205.47899999999936,
      "v": 76
    },
    {
      "midi": 64,
      "hit": false,
      "t": 7602.723000000001,
      "d": 205.47899999999936,
      "v": 43
    },
    {
      "midi": 74,
      "hit": false,
      "t": 7705.462500000001,
      "d": 308.21849999999995,
      "v": 84
    },
    {
      "midi": 71,
      "hit": false,
      "t": 7705.462500000001,
      "d": 308.21849999999995,
      "v": 84
    },
    {
      "midi": 40,
      "hit": false,
      "t": 7808.202,
      "d": 205.47900000000027,
      "v": 75
    },
    {
      "midi": 64,
      "hit": false,
      "t": 7808.202,
      "d": 205.47900000000027,
      "v": 44
    },
    {
      "midi": 40,
      "hit": false,
      "t": 8013.6810000000005,
      "d": 205.47899999999936,
      "v": 72
    },
    {
      "midi": 64,
      "hit": false,
      "t": 8013.6810000000005,
      "d": 205.47899999999936,
      "v": 42
    },
    {
      "midi": 76,
      "hit": false,
      "t": 8013.6810000000005,
      "d": 205.47899999999936,
      "v": 81
    },
    {
      "midi": 72,
      "hit": false,
      "t": 8013.6810000000005,
      "d": 205.47899999999936,
      "v": 81
    },
    {
      "midi": 43,
      "hit": false,
      "t": 8219.16,
      "d": 205.47899999999936,
      "v": 80
    },
    {
      "midi": 62,
      "hit": false,
      "t": 8219.16,
      "d": 205.47899999999936,
      "v": 43
    },
    {
      "midi": 74,
      "hit": false,
      "t": 8219.16,
      "d": 205.47899999999936,
      "v": 70
    },
    {
      "midi": 71,
      "hit": false,
      "t": 8219.16,
      "d": 205.47899999999936,
      "v": 70
    },
    {
      "midi": 43,
      "hit": false,
      "t": 8424.639,
      "d": 205.47899999999936,
      "v": 72
    },
    {
      "midi": 62,
      "hit": false,
      "t": 8424.639,
      "d": 205.47899999999936,
      "v": 42
    },
    {
      "midi": 74,
      "hit": false,
      "t": 8424.639,
      "d": 205.47899999999936,
      "v": 73
    },
    {
      "midi": 71,
      "hit": false,
      "t": 8424.639,
      "d": 205.47899999999936,
      "v": 73
    },
    {
      "midi": 38,
      "hit": false,
      "t": 8630.117999999999,
      "d": 205.47899999999936,
      "v": 69
    },
    {
      "midi": 62,
      "hit": false,
      "t": 8630.117999999999,
      "d": 205.47899999999936,
      "v": 44
    },
    {
      "midi": 74,
      "hit": false,
      "t": 8630.117999999999,
      "d": 205.47899999999936,
      "v": 81
    },
    {
      "midi": 71,
      "hit": false,
      "t": 8630.117999999999,
      "d": 205.47899999999936,
      "v": 81
    },
    {
      "midi": 38,
      "hit": false,
      "t": 8835.596999999998,
      "d": 205.47899999999936,
      "v": 76
    },
    {
      "midi": 62,
      "hit": false,
      "t": 8835.596999999998,
      "d": 205.47899999999936,
      "v": 48
    },
    {
      "midi": 71,
      "hit": false,
      "t": 8835.596999999998,
      "d": 205.47899999999936,
      "v": 70
    },
    {
      "midi": 67,
      "hit": false,
      "t": 8835.596999999998,
      "d": 205.47899999999936,
      "v": 70
    },
    {
      "midi": 41,
      "hit": false,
      "t": 9041.075999999997,
      "d": 205.47899999999936,
      "v": 79
    },
    {
      "midi": 60,
      "hit": false,
      "t": 9041.075999999997,
      "d": 205.47899999999936,
      "v": 43
    },
    {
      "midi": 72,
      "hit": false,
      "t": 9041.075999999997,
      "d": 308.21849999999904,
      "v": 82
    },
    {
      "midi": 69,
      "hit": false,
      "t": 9041.075999999997,
      "d": 308.21849999999904,
      "v": 82
    },
    {
      "midi": 40,
      "hit": false,
      "t": 9246.554999999997,
      "d": 102.73949999999968,
      "v": 74
    },
    {
      "midi": 60,
      "hit": false,
      "t": 9246.554999999997,
      "d": 205.47899999999936,
      "v": 46
    },
    {
      "midi": 41,
      "hit": false,
      "t": 9349.294499999996,
      "d": 102.73949999999968,
      "v": 79
    },
    {
      "midi": 69,
      "hit": false,
      "t": 9349.294499999996,
      "d": 308.21849999999904,
      "v": 70
    },
    {
      "midi": 65,
      "hit": false,
      "t": 9349.294499999996,
      "d": 308.21849999999904,
      "v": 70
    },
    {
      "midi": 40,
      "hit": false,
      "t": 9452.033999999996,
      "d": 102.73949999999968,
      "v": 74
    },
    {
      "midi": 60,
      "hit": false,
      "t": 9452.033999999996,
      "d": 205.47899999999936,
      "v": 41
    },
    {
      "midi": 41,
      "hit": false,
      "t": 9554.773499999996,
      "d": 102.73949999999968,
      "v": 81
    },
    {
      "midi": 40,
      "hit": false,
      "t": 9657.512999999995,
      "d": 205.47899999999936,
      "v": 72
    },
    {
      "midi": 60,
      "hit": false,
      "t": 9657.512999999995,
      "d": 205.47899999999936,
      "v": 42
    },
    {
      "midi": 71,
      "hit": false,
      "t": 9862.991999999995,
      "d": 205.47899999999936,
      "v": 71
    },
    {
      "midi": 59,
      "hit": false,
      "t": 9862.991999999995,
      "d": 410.9579999999987,
      "v": 84
    },
    {
      "midi": 55,
      "hit": false,
      "t": 9862.991999999995,
      "d": 410.9579999999987,
      "v": 84
    },
    {
      "midi": 83,
      "hit": false,
      "t": 10068.470999999994,
      "d": 205.47899999999936,
      "v": 94
    },
    {
      "midi": 79,
      "hit": false,
      "t": 10273.949999999993,
      "d": 205.47899999999936,
      "v": 75
    },
    {
      "midi": 59,
      "hit": false,
      "t": 10273.949999999993,
      "d": 410.9579999999987,
      "v": 74
    },
    {
      "midi": 55,
      "hit": false,
      "t": 10273.949999999993,
      "d": 410.9579999999987,
      "v": 74
    },
    {
      "midi": 74,
      "hit": false,
      "t": 10479.428999999993,
      "d": 205.47899999999936,
      "v": 63
    },
    {
      "midi": 77,
      "hit": false,
      "t": 10684.907999999992,
      "d": 205.47899999999936,
      "v": 80
    },
    {
      "midi": 57,
      "hit": false,
      "t": 10684.907999999992,
      "d": 410.9579999999987,
      "v": 75
    },
    {
      "midi": 53,
      "hit": false,
      "t": 10684.907999999992,
      "d": 410.9579999999987,
      "v": 75
    },
    {
      "midi": 76,
      "hit": false,
      "t": 10890.386999999992,
      "d": 205.47899999999936,
      "v": 78
    },
    {
      "midi": 77,
      "hit": false,
      "t": 11095.86599999999,
      "d": 102.73949999999968,
      "v": 78
    },
    {
      "midi": 57,
      "hit": false,
      "t": 11095.86599999999,
      "d": 410.95800000000054,
      "v": 76
    },
    {
      "midi": 53,
      "hit": false,
      "t": 11095.86599999999,
      "d": 410.95800000000054,
      "v": 76
    },
    {
      "midi": 79,
      "hit": false,
      "t": 11198.60549999999,
      "d": 308.21850000000086,
      "v": 84
    },
    {
      "midi": 59,
      "hit": false,
      "t": 11506.823999999991,
      "d": 205.47899999999936,
      "v": 80
    },
    {
      "midi": 55,
      "hit": false,
      "t": 11506.823999999991,
      "d": 205.47899999999936,
      "v": 80
    },
    {
      "midi": 59,
      "hit": false,
      "t": 11712.30299999999,
      "d": 205.47899999999936,
      "v": 80
    },
    {
      "midi": 55,
      "hit": false,
      "t": 11712.30299999999,
      "d": 205.47899999999936,
      "v": 80
    },
    {
      "midi": 83,
      "hit": false,
      "t": 11712.30299999999,
      "d": 205.47899999999936,
      "v": 69
    },
    {
      "midi": 57,
      "hit": false,
      "t": 11917.78199999999,
      "d": 205.47899999999936,
      "v": 75
    },
    {
      "midi": 53,
      "hit": false,
      "t": 11917.78199999999,
      "d": 205.47899999999936,
      "v": 75
    },
    {
      "midi": 79,
      "hit": false,
      "t": 11917.78199999999,
      "d": 205.47899999999936,
      "v": 67
    },
    {
      "midi": 59,
      "hit": false,
      "t": 12123.26099999999,
      "d": 205.47899999999936,
      "v": 77
    },
    {
      "midi": 55,
      "hit": false,
      "t": 12123.26099999999,
      "d": 205.47899999999936,
      "v": 77
    },
    {
      "midi": 74,
      "hit": false,
      "t": 12123.26099999999,
      "d": 205.47899999999936,
      "v": 65
    },
    {
      "midi": 77,
      "hit": false,
      "t": 12328.739999999989,
      "d": 205.47899999999936,
      "v": 83
    },
    {
      "midi": 46,
      "hit": false,
      "t": 12534.218999999988,
      "d": 102.73949999999968,
      "v": 67
    },
    {
      "midi": 34,
      "hit": false,
      "t": 12534.218999999988,
      "d": 102.73949999999968,
      "v": 67
    },
    {
      "midi": 47,
      "hit": false,
      "t": 12636.958499999988,
      "d": 102.73949999999968,
      "v": 75
    },
    {
      "midi": 35,
      "hit": false,
      "t": 12636.958499999988,
      "d": 102.73949999999968,
      "v": 75
    },
    {
      "midi": 43,
      "hit": false,
      "t": 12739.697999999988,
      "d": 205.47899999999936,
      "v": 74
    },
    {
      "midi": 31,
      "hit": false,
      "t": 12739.697999999988,
      "d": 205.47899999999936,
      "v": 74
    },
    {
      "midi": 38,
      "hit": false,
      "t": 12945.176999999987,
      "d": 205.47899999999936,
      "v": 72
    },
    {
      "midi": 71,
      "hit": false,
      "t": 13150.655999999986,
      "d": 205.47899999999936,
      "v": 71
    },
    {
      "midi": 62,
      "hit": false,
      "t": 13150.655999999986,
      "d": 410.9579999999987,
      "v": 93
    },
    {
      "midi": 59,
      "hit": false,
      "t": 13150.655999999986,
      "d": 410.9579999999987,
      "v": 93
    },
    {
      "midi": 55,
      "hit": false,
      "t": 13150.655999999986,
      "d": 410.9579999999987,
      "v": 93
    },
    {
      "midi": 83,
      "hit": false,
      "t": 13356.134999999986,
      "d": 205.47899999999936,
      "v": 95
    },
    {
      "midi": 79,
      "hit": false,
      "t": 13561.613999999985,
      "d": 205.47899999999936,
      "v": 71
    },
    {
      "midi": 62,
      "hit": false,
      "t": 13561.613999999985,
      "d": 410.9579999999987,
      "v": 75
    },
    {
      "midi": 59,
      "hit": false,
      "t": 13561.613999999985,
      "d": 410.9579999999987,
      "v": 75
    },
    {
      "midi": 55,
      "hit": false,
      "t": 13561.613999999985,
      "d": 410.9579999999987,
      "v": 75
    },
    {
      "midi": 74,
      "hit": false,
      "t": 13767.092999999984,
      "d": 205.47899999999936,
      "v": 64
    },
    {
      "midi": 77,
      "hit": false,
      "t": 13972.571999999984,
      "d": 205.47899999999936,
      "v": 83
    },
    {
      "midi": 60,
      "hit": false,
      "t": 13972.571999999984,
      "d": 410.9579999999987,
      "v": 76
    },
    {
      "midi": 57,
      "hit": false,
      "t": 13972.571999999984,
      "d": 410.9579999999987,
      "v": 76
    },
    {
      "midi": 53,
      "hit": false,
      "t": 13972.571999999984,
      "d": 410.9579999999987,
      "v": 76
    },
    {
      "midi": 76,
      "hit": false,
      "t": 14178.050999999983,
      "d": 205.47899999999936,
      "v": 72
    },
    {
      "midi": 77,
      "hit": false,
      "t": 14383.529999999982,
      "d": 102.73949999999968,
      "v": 83
    },
    {
      "midi": 60,
      "hit": false,
      "t": 14383.529999999982,
      "d": 410.95800000000054,
      "v": 77
    },
    {
      "midi": 57,
      "hit": false,
      "t": 14383.529999999982,
      "d": 410.95800000000054,
      "v": 77
    },
    {
      "midi": 53,
      "hit": false,
      "t": 14383.529999999982,
      "d": 410.95800000000054,
      "v": 77
    },
    {
      "midi": 79,
      "hit": false,
      "t": 14486.269499999982,
      "d": 308.21850000000086,
      "v": 80
    },
    {
      "midi": 62,
      "hit": false,
      "t": 14794.487999999983,
      "d": 205.47899999999936,
      "v": 82
    },
    {
      "midi": 59,
      "hit": false,
      "t": 14794.487999999983,
      "d": 205.47899999999936,
      "v": 82
    },
    {
      "midi": 55,
      "hit": false,
      "t": 14794.487999999983,
      "d": 205.47899999999936,
      "v": 82
    },
    {
      "midi": 62,
      "hit": false,
      "t": 14999.966999999982,
      "d": 205.47899999999936,
      "v": 80
    },
    {
      "midi": 59,
      "hit": false,
      "t": 14999.966999999982,
      "d": 205.47899999999936,
      "v": 80
    },
    {
      "midi": 55,
      "hit": false,
      "t": 14999.966999999982,
      "d": 205.47899999999936,
      "v": 80
    },
    {
      "midi": 83,
      "hit": false,
      "t": 14999.966999999982,
      "d": 205.47899999999936,
      "v": 68
    },
    {
      "midi": 60,
      "hit": false,
      "t": 15205.445999999982,
      "d": 205.47899999999936,
      "v": 70
    },
    {
      "midi": 57,
      "hit": false,
      "t": 15205.445999999982,
      "d": 205.47899999999936,
      "v": 70
    },
    {
      "midi": 53,
      "hit": false,
      "t": 15205.445999999982,
      "d": 205.47899999999936,
      "v": 70
    },
    {
      "midi": 79,
      "hit": false,
      "t": 15205.445999999982,
      "d": 205.47899999999936,
      "v": 62
    },
    {
      "midi": 62,
      "hit": false,
      "t": 15410.924999999981,
      "d": 205.47899999999936,
      "v": 77
    },
    {
      "midi": 59,
      "hit": false,
      "t": 15410.924999999981,
      "d": 205.47899999999936,
      "v": 77
    },
    {
      "midi": 55,
      "hit": false,
      "t": 15410.924999999981,
      "d": 205.47899999999936,
      "v": 77
    },
    {
      "midi": 74,
      "hit": false,
      "t": 15410.924999999981,
      "d": 205.47899999999936,
      "v": 64
    },
    {
      "midi": 77,
      "hit": false,
      "t": 15616.40399999998,
      "d": 205.47899999999936,
      "v": 82
    },
    {
      "midi": 46,
      "hit": false,
      "t": 15821.88299999998,
      "d": 102.73949999999968,
      "v": 73
    },
    {
      "midi": 34,
      "hit": false,
      "t": 15821.88299999998,
      "d": 102.73949999999968,
      "v": 73
    },
    {
      "midi": 47,
      "hit": false,
      "t": 15924.62249999998,
      "d": 102.73949999999968,
      "v": 77
    },
    {
      "midi": 35,
      "hit": false,
      "t": 15924.62249999998,
      "d": 102.73949999999968,
      "v": 77
    },
    {
      "midi": 43,
      "hit": false,
      "t": 16027.36199999998,
      "d": 205.47899999999936,
      "v": 74
    },
    {
      "midi": 31,
      "hit": false,
      "t": 16027.36199999998,
      "d": 205.47899999999936,
      "v": 74
    },
    {
      "midi": 38,
      "hit": false,
      "t": 16232.840999999979,
      "d": 205.47899999999936,
      "v": 69
    },
    {
      "midi": 48,
      "hit": false,
      "t": 16438.319999999978,
      "d": 410.9579999999987,
      "v": 86
    },
    {
      "midi": 76,
      "hit": false,
      "t": 16438.319999999978,
      "d": 410.9579999999987,
      "v": 71
    },
    {
      "midi": 72,
      "hit": false,
      "t": 16438.319999999978,
      "d": 410.9579999999987,
      "v": 71
    },
    {
      "midi": 81,
      "hit": false,
      "t": 16849.277999999977,
      "d": 81.87053906250003,
      "v": 83
    },
    {
      "midi": 36,
      "hit": false,
      "t": 16849.277999999977,
      "d": 410.9579999999987,
      "v": 66
    },
    {
      "midi": 79,
      "hit": false,
      "t": 16931.148539062477,
      "d": 81.87053906250003,
      "v": 76
    },
    {
      "midi": 78,
      "hit": false,
      "t": 17013.019078124977,
      "d": 81.87053906250003,
      "v": 73
    },
    {
      "midi": 69,
      "hit": false,
      "t": 17054.756999999976,
      "d": 102.73949999999968,
      "v": 40
    },
    {
      "midi": 76,
      "hit": false,
      "t": 17094.889617187477,
      "d": 81.87053906250003,
      "v": 70
    },
    {
      "midi": 72,
      "hit": false,
      "t": 17157.496499999976,
      "d": 102.73949999999968,
      "v": 47
    },
    {
      "midi": 74,
      "hit": false,
      "t": 17176.760156249977,
      "d": 83.4758437499986,
      "v": 69
    },
    {
      "midi": 48,
      "hit": false,
      "t": 17260.235999999975,
      "d": 410.9579999999987,
      "v": 84
    },
    {
      "midi": 76,
      "hit": false,
      "t": 17260.235999999975,
      "d": 410.9579999999987,
      "v": 85
    },
    {
      "midi": 84,
      "hit": false,
      "t": 17671.193999999974,
      "d": 81.87053906250003,
      "v": 96
    },
    {
      "midi": 36,
      "hit": false,
      "t": 17671.193999999974,
      "d": 410.9579999999987,
      "v": 65
    },
    {
      "midi": 83,
      "hit": false,
      "t": 17753.064539062474,
      "d": 81.87053906250003,
      "v": 78
    },
    {
      "midi": 81,
      "hit": false,
      "t": 17834.935078124974,
      "d": 81.87053906250003,
      "v": 77
    },
    {
      "midi": 72,
      "hit": false,
      "t": 17876.672999999973,
      "d": 102.73949999999968,
      "v": 39
    },
    {
      "midi": 79,
      "hit": false,
      "t": 17916.805617187474,
      "d": 81.87053906250003,
      "v": 76
    },
    {
      "midi": 76,
      "hit": false,
      "t": 17979.412499999973,
      "d": 102.73949999999968,
      "v": 49
    },
    {
      "midi": 78,
      "hit": false,
      "t": 17998.676156249974,
      "d": 83.4758437499986,
      "v": 67
    },
    {
      "midi": 48,
      "hit": false,
      "t": 18082.151999999973,
      "d": 205.47899999999936,
      "v": 79
    },
    {
      "midi": 79,
      "hit": false,
      "t": 18082.151999999973,
      "d": 410.9579999999987,
      "v": 82
    },
    {
      "midi": 36,
      "hit": false,
      "t": 18287.630999999972,
      "d": 205.47899999999936,
      "v": 68
    },
    {
      "midi": 86,
      "hit": false,
      "t": 18493.10999999997,
      "d": 81.87053906250003,
      "v": 87
    },
    {
      "midi": 48,
      "hit": false,
      "t": 18493.10999999997,
      "d": 205.47899999999936,
      "v": 86
    },
    {
      "midi": 84,
      "hit": false,
      "t": 18574.98053906247,
      "d": 81.87053906250003,
      "v": 76
    },
    {
      "midi": 83,
      "hit": false,
      "t": 18656.85107812497,
      "d": 81.87053906250003,
      "v": 73
    },
    {
      "midi": 36,
      "hit": false,
      "t": 18698.58899999997,
      "d": 205.47899999999936,
      "v": 66
    },
    {
      "midi": 81,
      "hit": false,
      "t": 18738.72161718747,
      "d": 81.87053906250003,
      "v": 72
    },
    {
      "midi": 79,
      "hit": false,
      "t": 18820.59215624997,
      "d": 83.4758437499986,
      "v": 69
    },
    {
      "midi": 88,
      "hit": false,
      "t": 18904.06799999997,
      "d": 81.87053906250003,
      "v": 92
    },
    {
      "midi": 48,
      "hit": false,
      "t": 18904.06799999997,
      "d": 205.47899999999936,
      "v": 87
    },
    {
      "midi": 86,
      "hit": false,
      "t": 18985.93853906247,
      "d": 81.87053906250003,
      "v": 72
    },
    {
      "midi": 84,
      "hit": false,
      "t": 19067.80907812497,
      "d": 81.87053906250003,
      "v": 73
    },
    {
      "midi": 36,
      "hit": false,
      "t": 19109.54699999997,
      "d": 205.47899999999936,
      "v": 67
    },
    {
      "midi": 83,
      "hit": false,
      "t": 19149.67961718747,
      "d": 81.87053906250003,
      "v": 71
    },
    {
      "midi": 81,
      "hit": false,
      "t": 19231.55015624997,
      "d": 83.4758437499986,
      "v": 71
    },
    {
      "midi": 79,
      "hit": false,
      "t": 19315.02599999997,
      "d": 81.87053906250003,
      "v": 68
    },
    {
      "midi": 48,
      "hit": false,
      "t": 19315.02599999997,
      "d": 205.47899999999936,
      "v": 89
    },
    {
      "midi": 78,
      "hit": false,
      "t": 19396.89653906247,
      "d": 81.87053906250003,
      "v": 73
    },
    {
      "midi": 76,
      "hit": false,
      "t": 19478.76707812497,
      "d": 81.87053906250003,
      "v": 76
    },
    {
      "midi": 36,
      "hit": false,
      "t": 19520.50499999997,
      "d": 205.47899999999936,
      "v": 72
    },
    {
      "midi": 74,
      "hit": false,
      "t": 19560.63761718747,
      "d": 81.87053906250003,
      "v": 69
    },
    {
      "midi": 72,
      "hit": false,
      "t": 19642.50815624997,
      "d": 83.4758437499986,
      "v": 66
    },
    {
      "midi": 47,
      "hit": false,
      "t": 19725.983999999968,
      "d": 308.21849999999904,
      "v": 86
    },
    {
      "midi": 35,
      "hit": false,
      "t": 19725.983999999968,
      "d": 308.21849999999904,
      "v": 86
    },
    {
      "midi": 71,
      "hit": false,
      "t": 19725.983999999968,
      "d": 308.21849999999904,
      "v": 70
    },
    {
      "midi": 67,
      "hit": false,
      "t": 19725.983999999968,
      "d": 308.21849999999904,
      "v": 70
    },
    {
      "midi": 48,
      "hit": false,
      "t": 20034.202499999967,
      "d": 308.21849999999904,
      "v": 79
    },
    {
      "midi": 36,
      "hit": false,
      "t": 20034.202499999967,
      "d": 308.21849999999904,
      "v": 79
    },
    {
      "midi": 72,
      "hit": false,
      "t": 20034.202499999967,
      "d": 308.21849999999904,
      "v": 76
    },
    {
      "midi": 68,
      "hit": false,
      "t": 20034.202499999967,
      "d": 308.21849999999904,
      "v": 76
    },
    {
      "midi": 49,
      "hit": false,
      "t": 20342.420999999966,
      "d": 205.47899999999936,
      "v": 75
    },
    {
      "midi": 37,
      "hit": false,
      "t": 20342.420999999966,
      "d": 205.47899999999936,
      "v": 75
    },
    {
      "midi": 73,
      "hit": false,
      "t": 20342.420999999966,
      "d": 205.47899999999936,
      "v": 81
    },
    {
      "midi": 69,
      "hit": false,
      "t": 20342.420999999966,
      "d": 205.47899999999936,
      "v": 81
    },
    {
      "midi": 48,
      "hit": false,
      "t": 20547.899999999965,
      "d": 308.21849999999904,
      "v": 77
    },
    {
      "midi": 36,
      "hit": false,
      "t": 20547.899999999965,
      "d": 308.21849999999904,
      "v": 77
    },
    {
      "midi": 72,
      "hit": false,
      "t": 20547.899999999965,
      "d": 308.21849999999904,
      "v": 77
    },
    {
      "midi": 68,
      "hit": false,
      "t": 20547.899999999965,
      "d": 308.21849999999904,
      "v": 77
    },
    {
      "midi": 49,
      "hit": false,
      "t": 20856.118499999964,
      "d": 308.21849999999904,
      "v": 77
    },
    {
      "midi": 37,
      "hit": false,
      "t": 20856.118499999964,
      "d": 308.21849999999904,
      "v": 77
    },
    {
      "midi": 73,
      "hit": false,
      "t": 20856.118499999964,
      "d": 308.21849999999904,
      "v": 77
    },
    {
      "midi": 69,
      "hit": false,
      "t": 20856.118499999964,
      "d": 308.21849999999904,
      "v": 77
    },
    {
      "midi": 50,
      "hit": false,
      "t": 21164.336999999963,
      "d": 205.47899999999936,
      "v": 78
    },
    {
      "midi": 38,
      "hit": false,
      "t": 21164.336999999963,
      "d": 205.47899999999936,
      "v": 78
    },
    {
      "midi": 74,
      "hit": false,
      "t": 21164.336999999963,
      "d": 205.47899999999936,
      "v": 81
    },
    {
      "midi": 70,
      "hit": false,
      "t": 21164.336999999963,
      "d": 205.47899999999936,
      "v": 81
    },
    {
      "midi": 49,
      "hit": false,
      "t": 21369.815999999963,
      "d": 308.21849999999904,
      "v": 73
    },
    {
      "midi": 37,
      "hit": false,
      "t": 21369.815999999963,
      "d": 308.21849999999904,
      "v": 73
    },
    {
      "midi": 73,
      "hit": false,
      "t": 21369.815999999963,
      "d": 308.21849999999904,
      "v": 72
    },
    {
      "midi": 69,
      "hit": false,
      "t": 21369.815999999963,
      "d": 308.21849999999904,
      "v": 72
    },
    {
      "midi": 50,
      "hit": false,
      "t": 21678.03449999996,
      "d": 308.21849999999904,
      "v": 76
    },
    {
      "midi": 38,
      "hit": false,
      "t": 21678.03449999996,
      "d": 308.21849999999904,
      "v": 76
    },
    {
      "midi": 74,
      "hit": false,
      "t": 21678.03449999996,
      "d": 308.21849999999904,
      "v": 82
    },
    {
      "midi": 70,
      "hit": false,
      "t": 21678.03449999996,
      "d": 308.21849999999904,
      "v": 82
    },
    {
      "midi": 51,
      "hit": false,
      "t": 21986.25299999996,
      "d": 205.47899999999936,
      "v": 79
    },
    {
      "midi": 39,
      "hit": false,
      "t": 21986.25299999996,
      "d": 205.47899999999936,
      "v": 79
    },
    {
      "midi": 75,
      "hit": false,
      "t": 21986.25299999996,
      "d": 205.47899999999936,
      "v": 86
    },
    {
      "midi": 71,
      "hit": false,
      "t": 21986.25299999996,
      "d": 205.47899999999936,
      "v": 86
    },
    {
      "midi": 50,
      "hit": false,
      "t": 22191.73199999996,
      "d": 308.21849999999904,
      "v": 74
    },
    {
      "midi": 38,
      "hit": false,
      "t": 22191.73199999996,
      "d": 308.21849999999904,
      "v": 74
    },
    {
      "midi": 74,
      "hit": false,
      "t": 22191.73199999996,
      "d": 308.21849999999904,
      "v": 76
    },
    {
      "midi": 70,
      "hit": false,
      "t": 22191.73199999996,
      "d": 308.21849999999904,
      "v": 76
    },
    {
      "midi": 52,
      "hit": false,
      "t": 22499.95049999996,
      "d": 308.21849999999904,
      "v": 77
    },
    {
      "midi": 40,
      "hit": false,
      "t": 22499.95049999996,
      "d": 308.21849999999904,
      "v": 77
    },
    {
      "midi": 76,
      "hit": false,
      "t": 22499.95049999996,
      "d": 308.21849999999904,
      "v": 83
    },
    {
      "midi": 72,
      "hit": false,
      "t": 22499.95049999996,
      "d": 308.21849999999904,
      "v": 83
    },
    {
      "midi": 53,
      "hit": false,
      "t": 22808.168999999958,
      "d": 205.47899999999936,
      "v": 78
    },
    {
      "midi": 41,
      "hit": false,
      "t": 22808.168999999958,
      "d": 205.47899999999936,
      "v": 78
    },
    {
      "midi": 77,
      "hit": false,
      "t": 22808.168999999958,
      "d": 205.47899999999936,
      "v": 83
    },
    {
      "midi": 74,
      "hit": false,
      "t": 22808.168999999958,
      "d": 205.47899999999936,
      "v": 83
    },
    {
      "midi": 43,
      "hit": false,
      "t": 23013.647999999957,
      "d": 205.47899999999936,
      "v": 64
    },
    {
      "midi": 62,
      "hit": false,
      "t": 23013.647999999957,
      "d": 205.47899999999936,
      "v": 29
    },
    {
      "midi": 43,
      "hit": false,
      "t": 23219.126999999957,
      "d": 205.47899999999936,
      "v": 75
    },
    {
      "midi": 62,
      "hit": false,
      "t": 23219.126999999957,
      "d": 205.47899999999936,
      "v": 44
    },
    {
      "midi": 71,
      "hit": false,
      "t": 23219.126999999957,
      "d": 410.9579999999987,
      "v": 69
    },
    {
      "midi": 67,
      "hit": false,
      "t": 23219.126999999957,
      "d": 410.9579999999987,
      "v": 69
    },
    {
      "midi": 38,
      "hit": false,
      "t": 23424.605999999956,
      "d": 205.47899999999936,
      "v": 73
    },
    {
      "midi": 62,
      "hit": false,
      "t": 23424.605999999956,
      "d": 205.47899999999936,
      "v": 42
    },
    {
      "midi": 38,
      "hit": false,
      "t": 23630.084999999955,
      "d": 205.47899999999936,
      "v": 79
    },
    {
      "midi": 62,
      "hit": false,
      "t": 23630.084999999955,
      "d": 205.47899999999936,
      "v": 42
    },
    {
      "midi": 71,
      "hit": false,
      "t": 23630.084999999955,
      "d": 205.47899999999936,
      "v": 76
    },
    {
      "midi": 67,
      "hit": false,
      "t": 23630.084999999955,
      "d": 205.47899999999936,
      "v": 76
    },
    {
      "midi": 41,
      "hit": false,
      "t": 23835.563999999955,
      "d": 205.47899999999936,
      "v": 80
    },
    {
      "midi": 64,
      "hit": false,
      "t": 23835.563999999955,
      "d": 205.47899999999936,
      "v": 44
    },
    {
      "midi": 72,
      "hit": false,
      "t": 23835.563999999955,
      "d": 308.21849999999904,
      "v": 79
    },
    {
      "midi": 69,
      "hit": false,
      "t": 23835.563999999955,
      "d": 308.21849999999904,
      "v": 79
    },
    {
      "midi": 41,
      "hit": false,
      "t": 24041.042999999954,
      "d": 205.47899999999936,
      "v": 72
    },
    {
      "midi": 64,
      "hit": false,
      "t": 24041.042999999954,
      "d": 205.47899999999936,
      "v": 41
    },
    {
      "midi": 74,
      "hit": false,
      "t": 24143.782499999954,
      "d": 308.21849999999904,
      "v": 76
    },
    {
      "midi": 71,
      "hit": false,
      "t": 24143.782499999954,
      "d": 308.21849999999904,
      "v": 76
    },
    {
      "midi": 40,
      "hit": false,
      "t": 24246.521999999954,
      "d": 205.47899999999936,
      "v": 72
    },
    {
      "midi": 64,
      "hit": false,
      "t": 24246.521999999954,
      "d": 205.47899999999936,
      "v": 44
    },
    {
      "midi": 40,
      "hit": false,
      "t": 24452.000999999953,
      "d": 205.47899999999936,
      "v": 76
    },
    {
      "midi": 64,
      "hit": false,
      "t": 24452.000999999953,
      "d": 205.47899999999936,
      "v": 45
    },
    {
      "midi": 76,
      "hit": false,
      "t": 24452.000999999953,
      "d": 205.47899999999936,
      "v": 81
    },
    {
      "midi": 72,
      "hit": false,
      "t": 24452.000999999953,
      "d": 205.47899999999936,
      "v": 81
    },
    {
      "midi": 43,
      "hit": false,
      "t": 24657.479999999952,
      "d": 205.47899999999936,
      "v": 79
    },
    {
      "midi": 62,
      "hit": false,
      "t": 24657.479999999952,
      "d": 205.47899999999936,
      "v": 43
    },
    {
      "midi": 74,
      "hit": false,
      "t": 24657.479999999952,
      "d": 205.47899999999936,
      "v": 71
    },
    {
      "midi": 71,
      "hit": false,
      "t": 24657.479999999952,
      "d": 205.47899999999936,
      "v": 71
    },
    {
      "midi": 43,
      "hit": false,
      "t": 24862.95899999995,
      "d": 205.47899999999936,
      "v": 72
    },
    {
      "midi": 62,
      "hit": false,
      "t": 24862.95899999995,
      "d": 205.47899999999936,
      "v": 44
    },
    {
      "midi": 74,
      "hit": false,
      "t": 24862.95899999995,
      "d": 205.47899999999936,
      "v": 79
    },
    {
      "midi": 71,
      "hit": false,
      "t": 24862.95899999995,
      "d": 205.47899999999936,
      "v": 79
    },
    {
      "midi": 38,
      "hit": false,
      "t": 25068.43799999995,
      "d": 205.47899999999936,
      "v": 70
    },
    {
      "midi": 62,
      "hit": false,
      "t": 25068.43799999995,
      "d": 205.47899999999936,
      "v": 48
    },
    {
      "midi": 74,
      "hit": false,
      "t": 25068.43799999995,
      "d": 205.47899999999936,
      "v": 76
    },
    {
      "midi": 71,
      "hit": false,
      "t": 25068.43799999995,
      "d": 205.47899999999936,
      "v": 76
    },
    {
      "midi": 38,
      "hit": false,
      "t": 25273.91699999995,
      "d": 205.47899999999936,
      "v": 75
    },
    {
      "midi": 62,
      "hit": false,
      "t": 25273.91699999995,
      "d": 205.47899999999936,
      "v": 43
    },
    {
      "midi": 71,
      "hit": false,
      "t": 25273.91699999995,
      "d": 205.47899999999936,
      "v": 71
    },
    {
      "midi": 67,
      "hit": false,
      "t": 25273.91699999995,
      "d": 205.47899999999936,
      "v": 71
    },
    {
      "midi": 41,
      "hit": false,
      "t": 25479.39599999995,
      "d": 205.47899999999936,
      "v": 76
    },
    {
      "midi": 60,
      "hit": false,
      "t": 25479.39599999995,
      "d": 205.47899999999936,
      "v": 45
    },
    {
      "midi": 72,
      "hit": false,
      "t": 25479.39599999995,
      "d": 308.21849999999904,
      "v": 77
    },
    {
      "midi": 69,
      "hit": false,
      "t": 25479.39599999995,
      "d": 308.21849999999904,
      "v": 77
    },
    {
      "midi": 40,
      "hit": false,
      "t": 25684.87499999995,
      "d": 102.73949999999968,
      "v": 69
    },
    {
      "midi": 60,
      "hit": false,
      "t": 25684.87499999995,
      "d": 205.47899999999936,
      "v": 42
    },
    {
      "midi": 41,
      "hit": false,
      "t": 25787.61449999995,
      "d": 102.73949999999968,
      "v": 78
    },
    {
      "midi": 69,
      "hit": false,
      "t": 25787.61449999995,
      "d": 308.21849999999904,
      "v": 68
    },
    {
      "midi": 65,
      "hit": false,
      "t": 25787.61449999995,
      "d": 308.21849999999904,
      "v": 68
    },
    {
      "midi": 40,
      "hit": false,
      "t": 25890.35399999995,
      "d": 102.73949999999968,
      "v": 76
    },
    {
      "midi": 60,
      "hit": false,
      "t": 25890.35399999995,
      "d": 205.47899999999936,
      "v": 39
    },
    {
      "midi": 41,
      "hit": false,
      "t": 25993.093499999948,
      "d": 102.73949999999968,
      "v": 78
    },
    {
      "midi": 40,
      "hit": false,
      "t": 26095.832999999948,
      "d": 205.47899999999936,
      "v": 76
    },
    {
      "midi": 60,
      "hit": false,
      "t": 26095.832999999948,
      "d": 205.47899999999936,
      "v": 41
    },
    {
      "midi": 43,
      "hit": false,
      "t": 26301.311999999947,
      "d": 205.47899999999936,
      "v": 78
    },
    {
      "midi": 62,
      "hit": false,
      "t": 26301.311999999947,
      "d": 205.47899999999936,
      "v": 47
    },
    {
      "midi": 43,
      "hit": false,
      "t": 26506.790999999947,
      "d": 205.47899999999936,
      "v": 76
    },
    {
      "midi": 62,
      "hit": false,
      "t": 26506.790999999947,
      "d": 205.47899999999936,
      "v": 44
    },
    {
      "midi": 71,
      "hit": false,
      "t": 26506.790999999947,
      "d": 410.9579999999987,
      "v": 65
    },
    {
      "midi": 67,
      "hit": false,
      "t": 26506.790999999947,
      "d": 410.9579999999987,
      "v": 65
    },
    {
      "midi": 38,
      "hit": false,
      "t": 26712.269999999946,
      "d": 205.47899999999936,
      "v": 69
    },
    {
      "midi": 62,
      "hit": false,
      "t": 26712.269999999946,
      "d": 205.47899999999936,
      "v": 42
    },
    {
      "midi": 38,
      "hit": false,
      "t": 26917.748999999945,
      "d": 205.47899999999936,
      "v": 75
    },
    {
      "midi": 62,
      "hit": false,
      "t": 26917.748999999945,
      "d": 205.47899999999936,
      "v": 40
    },
    {
      "midi": 71,
      "hit": false,
      "t": 26917.748999999945,
      "d": 205.47899999999936,
      "v": 72
    },
    {
      "midi": 67,
      "hit": false,
      "t": 26917.748999999945,
      "d": 205.47899999999936,
      "v": 72
    },
    {
      "midi": 41,
      "hit": false,
      "t": 27123.227999999945,
      "d": 205.47899999999936,
      "v": 81
    },
    {
      "midi": 64,
      "hit": false,
      "t": 27123.227999999945,
      "d": 205.47899999999936,
      "v": 45
    },
    {
      "midi": 72,
      "hit": false,
      "t": 27123.227999999945,
      "d": 308.21849999999904,
      "v": 77
    },
    {
      "midi": 69,
      "hit": false,
      "t": 27123.227999999945,
      "d": 308.21849999999904,
      "v": 77
    },
    {
      "midi": 41,
      "hit": false,
      "t": 27328.706999999944,
      "d": 205.47899999999936,
      "v": 75
    },
    {
      "midi": 64,
      "hit": false,
      "t": 27328.706999999944,
      "d": 205.47899999999936,
      "v": 44
    },
    {
      "midi": 74,
      "hit": false,
      "t": 27431.446499999944,
      "d": 308.21849999999904,
      "v": 82
    },
    {
      "midi": 71,
      "hit": false,
      "t": 27431.446499999944,
      "d": 308.21849999999904,
      "v": 82
    },
    {
      "midi": 40,
      "hit": false,
      "t": 27534.185999999943,
      "d": 205.47899999999936,
      "v": 72
    },
    {
      "midi": 64,
      "hit": false,
      "t": 27534.185999999943,
      "d": 205.47899999999936,
      "v": 48
    },
    {
      "midi": 40,
      "hit": false,
      "t": 27739.664999999943,
      "d": 205.47899999999936,
      "v": 75
    },
    {
      "midi": 64,
      "hit": false,
      "t": 27739.664999999943,
      "d": 205.47899999999936,
      "v": 43
    },
    {
      "midi": 76,
      "hit": false,
      "t": 27739.664999999943,
      "d": 205.47899999999936,
      "v": 83
    },
    {
      "midi": 72,
      "hit": false,
      "t": 27739.664999999943,
      "d": 205.47899999999936,
      "v": 83
    },
    {
      "midi": 43,
      "hit": false,
      "t": 27945.143999999942,
      "d": 205.47899999999936,
      "v": 82
    },
    {
      "midi": 62,
      "hit": false,
      "t": 27945.143999999942,
      "d": 205.47899999999936,
      "v": 39
    },
    {
      "midi": 74,
      "hit": false,
      "t": 27945.143999999942,
      "d": 205.47899999999936,
      "v": 74
    },
    {
      "midi": 71,
      "hit": false,
      "t": 27945.143999999942,
      "d": 205.47899999999936,
      "v": 74
    },
    {
      "midi": 43,
      "hit": false,
      "t": 28150.62299999994,
      "d": 205.47899999999936,
      "v": 74
    },
    {
      "midi": 62,
      "hit": false,
      "t": 28150.62299999994,
      "d": 205.47899999999936,
      "v": 45
    },
    {
      "midi": 74,
      "hit": false,
      "t": 28150.62299999994,
      "d": 205.47899999999936,
      "v": 73
    },
    {
      "midi": 71,
      "hit": false,
      "t": 28150.62299999994,
      "d": 205.47899999999936,
      "v": 73
    },
    {
      "midi": 38,
      "hit": false,
      "t": 28356.10199999994,
      "d": 205.47899999999936,
      "v": 74
    },
    {
      "midi": 62,
      "hit": false,
      "t": 28356.10199999994,
      "d": 205.47899999999936,
      "v": 41
    },
    {
      "midi": 74,
      "hit": false,
      "t": 28356.10199999994,
      "d": 205.47899999999936,
      "v": 77
    },
    {
      "midi": 71,
      "hit": false,
      "t": 28356.10199999994,
      "d": 205.47899999999936,
      "v": 77
    },
    {
      "midi": 38,
      "hit": false,
      "t": 28561.58099999994,
      "d": 205.47899999999936,
      "v": 69
    },
    {
      "midi": 62,
      "hit": false,
      "t": 28561.58099999994,
      "d": 205.47899999999936,
      "v": 41
    },
    {
      "midi": 71,
      "hit": false,
      "t": 28561.58099999994,
      "d": 205.47899999999936,
      "v": 65
    },
    {
      "midi": 67,
      "hit": false,
      "t": 28561.58099999994,
      "d": 205.47899999999936,
      "v": 65
    },
    {
      "midi": 41,
      "hit": false,
      "t": 28767.05999999994,
      "d": 205.47899999999936,
      "v": 83
    },
    {
      "midi": 60,
      "hit": false,
      "t": 28767.05999999994,
      "d": 205.47899999999936,
      "v": 39
    },
    {
      "midi": 72,
      "hit": false,
      "t": 28767.05999999994,
      "d": 308.21849999999904,
      "v": 81
    },
    {
      "midi": 69,
      "hit": false,
      "t": 28767.05999999994,
      "d": 308.21849999999904,
      "v": 81
    },
    {
      "midi": 40,
      "hit": false,
      "t": 28972.53899999994,
      "d": 102.73949999999968,
      "v": 78
    },
    {
      "midi": 60,
      "hit": false,
      "t": 28972.53899999994,
      "d": 205.47899999999936,
      "v": 40
    },
    {
      "midi": 41,
      "hit": false,
      "t": 29075.27849999994,
      "d": 102.73949999999968,
      "v": 80
    },
    {
      "midi": 69,
      "hit": false,
      "t": 29075.27849999994,
      "d": 308.21849999999904,
      "v": 67
    },
    {
      "midi": 65,
      "hit": false,
      "t": 29075.27849999994,
      "d": 308.21849999999904,
      "v": 67
    },
    {
      "midi": 40,
      "hit": false,
      "t": 29178.01799999994,
      "d": 102.73949999999968,
      "v": 77
    },
    {
      "midi": 60,
      "hit": false,
      "t": 29178.01799999994,
      "d": 205.47899999999936,
      "v": 45
    },
    {
      "midi": 41,
      "hit": false,
      "t": 29280.757499999938,
      "d": 102.73949999999968,
      "v": 79
    },
    {
      "midi": 40,
      "hit": false,
      "t": 29383.496999999938,
      "d": 205.47899999999936,
      "v": 76
    },
    {
      "midi": 60,
      "hit": false,
      "t": 29383.496999999938,
      "d": 205.47899999999936,
      "v": 41
    },
    {
      "midi": 71,
      "hit": false,
      "t": 29588.975999999937,
      "d": 205.47899999999936,
      "v": 69
    },
    {
      "midi": 59,
      "hit": false,
      "t": 29588.975999999937,
      "d": 410.9579999999987,
      "v": 88
    },
    {
      "midi": 55,
      "hit": false,
      "t": 29588.975999999937,
      "d": 410.9579999999987,
      "v": 88
    },
    {
      "midi": 83,
      "hit": false,
      "t": 29794.454999999936,
      "d": 205.47899999999936,
      "v": 96
    },
    {
      "midi": 79,
      "hit": false,
      "t": 29999.933999999936,
      "d": 205.47899999999936,
      "v": 71
    },
    {
      "midi": 59,
      "hit": false,
      "t": 29999.933999999936,
      "d": 410.9579999999987,
      "v": 75
    },
    {
      "midi": 55,
      "hit": false,
      "t": 29999.933999999936,
      "d": 410.9579999999987,
      "v": 75
    },
    {
      "midi": 74,
      "hit": false,
      "t": 30205.412999999935,
      "d": 205.47899999999936,
      "v": 63
    },
    {
      "midi": 77,
      "hit": false,
      "t": 30410.891999999934,
      "d": 205.47899999999936,
      "v": 79
    },
    {
      "midi": 57,
      "hit": false,
      "t": 30410.891999999934,
      "d": 410.9579999999987,
      "v": 75
    },
    {
      "midi": 53,
      "hit": false,
      "t": 30410.891999999934,
      "d": 410.9579999999987,
      "v": 75
    },
    {
      "midi": 76,
      "hit": false,
      "t": 30616.370999999934,
      "d": 205.47899999999936,
      "v": 75
    },
    {
      "midi": 77,
      "hit": false,
      "t": 30821.849999999933,
      "d": 102.73949999999968,
      "v": 71
    },
    {
      "midi": 57,
      "hit": false,
      "t": 30821.849999999933,
      "d": 410.9579999999987,
      "v": 77
    },
    {
      "midi": 53,
      "hit": false,
      "t": 30821.849999999933,
      "d": 410.9579999999987,
      "v": 77
    },
    {
      "midi": 79,
      "hit": false,
      "t": 30924.589499999933,
      "d": 308.21849999999904,
      "v": 80
    },
    {
      "midi": 59,
      "hit": false,
      "t": 31232.80799999993,
      "d": 205.47899999999936,
      "v": 82
    },
    {
      "midi": 55,
      "hit": false,
      "t": 31232.80799999993,
      "d": 205.47899999999936,
      "v": 82
    },
    {
      "midi": 59,
      "hit": false,
      "t": 31438.28699999993,
      "d": 205.47899999999936,
      "v": 72
    },
    {
      "midi": 55,
      "hit": false,
      "t": 31438.28699999993,
      "d": 205.47899999999936,
      "v": 72
    },
    {
      "midi": 83,
      "hit": false,
      "t": 31438.28699999993,
      "d": 205.47899999999936,
      "v": 67
    },
    {
      "midi": 57,
      "hit": false,
      "t": 31643.76599999993,
      "d": 205.47899999999936,
      "v": 72
    },
    {
      "midi": 53,
      "hit": false,
      "t": 31643.76599999993,
      "d": 205.47899999999936,
      "v": 72
    },
    {
      "midi": 79,
      "hit": false,
      "t": 31643.76599999993,
      "d": 205.47899999999936,
      "v": 64
    },
    {
      "midi": 59,
      "hit": false,
      "t": 31849.24499999993,
      "d": 205.47899999999936,
      "v": 76
    },
    {
      "midi": 55,
      "hit": false,
      "t": 31849.24499999993,
      "d": 205.47899999999936,
      "v": 76
    },
    {
      "midi": 74,
      "hit": false,
      "t": 31849.24499999993,
      "d": 205.47899999999936,
      "v": 59
    },
    {
      "midi": 77,
      "hit": false,
      "t": 32054.72399999993,
      "d": 205.47899999999936,
      "v": 76
    },
    {
      "midi": 46,
      "hit": false,
      "t": 32260.20299999993,
      "d": 102.73949999999968,
      "v": 69
    },
    {
      "midi": 34,
      "hit": false,
      "t": 32260.20299999993,
      "d": 102.73949999999968,
      "v": 69
    },
    {
      "midi": 47,
      "hit": false,
      "t": 32362.94249999993,
      "d": 102.73949999999968,
      "v": 79
    },
    {
      "midi": 35,
      "hit": false,
      "t": 32362.94249999993,
      "d": 102.73949999999968,
      "v": 79
    },
    {
      "midi": 43,
      "hit": false,
      "t": 32465.681999999928,
      "d": 205.47899999999936,
      "v": 72
    },
    {
      "midi": 31,
      "hit": false,
      "t": 32465.681999999928,
      "d": 205.47899999999936,
      "v": 72
    },
    {
      "midi": 38,
      "hit": false,
      "t": 32671.160999999927,
      "d": 205.47899999999936,
      "v": 66
    },
    {
      "midi": 71,
      "hit": false,
      "t": 32876.63999999993,
      "d": 205.47899999999936,
      "v": 67
    },
    {
      "midi": 62,
      "hit": false,
      "t": 32876.63999999993,
      "d": 410.9579999999987,
      "v": 94
    },
    {
      "midi": 59,
      "hit": false,
      "t": 32876.63999999993,
      "d": 410.9579999999987,
      "v": 94
    },
    {
      "midi": 55,
      "hit": false,
      "t": 32876.63999999993,
      "d": 410.9579999999987,
      "v": 94
    },
    {
      "midi": 83,
      "hit": false,
      "t": 33082.118999999926,
      "d": 205.47899999999936,
      "v": 93
    },
    {
      "midi": 79,
      "hit": false,
      "t": 33287.597999999925,
      "d": 205.47899999999936,
      "v": 73
    },
    {
      "midi": 62,
      "hit": false,
      "t": 33287.597999999925,
      "d": 410.9579999999987,
      "v": 78
    },
    {
      "midi": 59,
      "hit": false,
      "t": 33287.597999999925,
      "d": 410.9579999999987,
      "v": 78
    },
    {
      "midi": 55,
      "hit": false,
      "t": 33287.597999999925,
      "d": 410.9579999999987,
      "v": 78
    },
    {
      "midi": 74,
      "hit": false,
      "t": 33493.076999999925,
      "d": 205.47899999999936,
      "v": 62
    },
    {
      "midi": 77,
      "hit": false,
      "t": 33698.555999999924,
      "d": 205.47899999999936,
      "v": 84
    },
    {
      "midi": 60,
      "hit": false,
      "t": 33698.555999999924,
      "d": 410.9579999999987,
      "v": 68
    },
    {
      "midi": 57,
      "hit": false,
      "t": 33698.555999999924,
      "d": 410.9579999999987,
      "v": 68
    },
    {
      "midi": 53,
      "hit": false,
      "t": 33698.555999999924,
      "d": 410.9579999999987,
      "v": 68
    },
    {
      "midi": 76,
      "hit": false,
      "t": 33904.03499999992,
      "d": 205.47899999999936,
      "v": 71
    },
    {
      "midi": 77,
      "hit": false,
      "t": 34109.51399999992,
      "d": 102.73950000000332,
      "v": 79
    },
    {
      "midi": 60,
      "hit": false,
      "t": 34109.51399999992,
      "d": 410.958000000006,
      "v": 78
    },
    {
      "midi": 57,
      "hit": false,
      "t": 34109.51399999992,
      "d": 410.958000000006,
      "v": 78
    },
    {
      "midi": 53,
      "hit": false,
      "t": 34109.51399999992,
      "d": 410.958000000006,
      "v": 78
    },
    {
      "midi": 79,
      "hit": false,
      "t": 34212.253499999926,
      "d": 308.2185000000027,
      "v": 78
    },
    {
      "midi": 62,
      "hit": false,
      "t": 34520.47199999993,
      "d": 205.47899999999936,
      "v": 81
    },
    {
      "midi": 59,
      "hit": false,
      "t": 34520.47199999993,
      "d": 205.47899999999936,
      "v": 81
    },
    {
      "midi": 55,
      "hit": false,
      "t": 34520.47199999993,
      "d": 205.47899999999936,
      "v": 81
    },
    {
      "midi": 62,
      "hit": false,
      "t": 34725.95099999993,
      "d": 205.47899999999936,
      "v": 76
    },
    {
      "midi": 59,
      "hit": false,
      "t": 34725.95099999993,
      "d": 205.47899999999936,
      "v": 76
    },
    {
      "midi": 55,
      "hit": false,
      "t": 34725.95099999993,
      "d": 205.47899999999936,
      "v": 76
    },
    {
      "midi": 83,
      "hit": false,
      "t": 34725.95099999993,
      "d": 205.47899999999936,
      "v": 69
    },
    {
      "midi": 60,
      "hit": false,
      "t": 34931.42999999993,
      "d": 205.47899999999936,
      "v": 66
    },
    {
      "midi": 57,
      "hit": false,
      "t": 34931.42999999993,
      "d": 205.47899999999936,
      "v": 66
    },
    {
      "midi": 53,
      "hit": false,
      "t": 34931.42999999993,
      "d": 205.47899999999936,
      "v": 66
    },
    {
      "midi": 79,
      "hit": false,
      "t": 34931.42999999993,
      "d": 205.47899999999936,
      "v": 68
    },
    {
      "midi": 62,
      "hit": false,
      "t": 35136.90899999993,
      "d": 205.47899999999936,
      "v": 80
    },
    {
      "midi": 59,
      "hit": false,
      "t": 35136.90899999993,
      "d": 205.47899999999936,
      "v": 80
    },
    {
      "midi": 55,
      "hit": false,
      "t": 35136.90899999993,
      "d": 205.47899999999936,
      "v": 80
    },
    {
      "midi": 74,
      "hit": false,
      "t": 35136.90899999993,
      "d": 205.47899999999936,
      "v": 64
    },
    {
      "midi": 77,
      "hit": false,
      "t": 35342.387999999926,
      "d": 205.47899999999936,
      "v": 80
    },
    {
      "midi": 46,
      "hit": false,
      "t": 35547.866999999926,
      "d": 102.73950000000332,
      "v": 69
    },
    {
      "midi": 34,
      "hit": false,
      "t": 35547.866999999926,
      "d": 102.73950000000332,
      "v": 69
    },
    {
      "midi": 47,
      "hit": false,
      "t": 35650.60649999993,
      "d": 102.73950000000332,
      "v": 77
    },
    {
      "midi": 35,
      "hit": false,
      "t": 35650.60649999993,
      "d": 102.73950000000332,
      "v": 77
    },
    {
      "midi": 43,
      "hit": false,
      "t": 35753.34599999993,
      "d": 205.47899999999936,
      "v": 72
    },
    {
      "midi": 31,
      "hit": false,
      "t": 35753.34599999993,
      "d": 205.47899999999936,
      "v": 72
    },
    {
      "midi": 38,
      "hit": false,
      "t": 35958.82499999993,
      "d": 205.47899999999936,
      "v": 69
    },
    {
      "midi": 48,
      "hit": false,
      "t": 36164.30399999993,
      "d": 410.9579999999987,
      "v": 83
    },
    {
      "midi": 76,
      "hit": false,
      "t": 36164.30399999993,
      "d": 410.9579999999987,
      "v": 65
    },
    {
      "midi": 72,
      "hit": false,
      "t": 36164.30399999993,
      "d": 410.9579999999987,
      "v": 65
    },
    {
      "midi": 81,
      "hit": false,
      "t": 36575.26199999993,
      "d": 81.87053906249639,
      "v": 88
    },
    {
      "midi": 36,
      "hit": false,
      "t": 36575.26199999993,
      "d": 410.95799999998417,
      "v": 67
    },
    {
      "midi": 79,
      "hit": false,
      "t": 36657.132539062426,
      "d": 81.87053906249639,
      "v": 74
    },
    {
      "midi": 78,
      "hit": false,
      "t": 36739.00307812492,
      "d": 81.87053906249639,
      "v": 77
    },
    {
      "midi": 69,
      "hit": false,
      "t": 36780.74099999992,
      "d": 102.73949999999604,
      "v": 39
    },
    {
      "midi": 76,
      "hit": false,
      "t": 36820.87361718742,
      "d": 81.87053906249639,
      "v": 74
    },
    {
      "midi": 72,
      "hit": false,
      "t": 36883.48049999992,
      "d": 102.73949999999604,
      "v": 42
    },
    {
      "midi": 74,
      "hit": false,
      "t": 36902.744156249915,
      "d": 83.4758437499986,
      "v": 68
    },
    {
      "midi": 48,
      "hit": false,
      "t": 36986.219999999914,
      "d": 410.9579999999987,
      "v": 82
    },
    {
      "midi": 76,
      "hit": false,
      "t": 36986.219999999914,
      "d": 410.9579999999987,
      "v": 81
    },
    {
      "midi": 84,
      "hit": false,
      "t": 37397.17799999991,
      "d": 81.87053906249639,
      "v": 90
    },
    {
      "midi": 36,
      "hit": false,
      "t": 37397.17799999991,
      "d": 410.95799999998417,
      "v": 66
    },
    {
      "midi": 83,
      "hit": false,
      "t": 37479.04853906241,
      "d": 81.87053906249639,
      "v": 68
    },
    {
      "midi": 81,
      "hit": false,
      "t": 37560.919078124905,
      "d": 81.87053906249639,
      "v": 76
    },
    {
      "midi": 72,
      "hit": false,
      "t": 37602.656999999905,
      "d": 102.73949999999604,
      "v": 39
    },
    {
      "midi": 79,
      "hit": false,
      "t": 37642.7896171874,
      "d": 81.87053906249639,
      "v": 68
    },
    {
      "midi": 76,
      "hit": false,
      "t": 37705.3964999999,
      "d": 102.73949999999604,
      "v": 50
    },
    {
      "midi": 78,
      "hit": false,
      "t": 37724.6601562499,
      "d": 83.4758437499986,
      "v": 70
    },
    {
      "midi": 48,
      "hit": false,
      "t": 37808.1359999999,
      "d": 205.47899999999936,
      "v": 83
    },
    {
      "midi": 79,
      "hit": false,
      "t": 37808.1359999999,
      "d": 410.9579999999987,
      "v": 79
    },
    {
      "midi": 36,
      "hit": false,
      "t": 38013.614999999896,
      "d": 205.47899999999936,
      "v": 64
    },
    {
      "midi": 86,
      "hit": false,
      "t": 38219.093999999895,
      "d": 81.87053906249639,
      "v": 93
    },
    {
      "midi": 48,
      "hit": false,
      "t": 38219.093999999895,
      "d": 205.47899999999208,
      "v": 87
    },
    {
      "midi": 84,
      "hit": false,
      "t": 38300.96453906239,
      "d": 81.87053906249639,
      "v": 73
    },
    {
      "midi": 83,
      "hit": false,
      "t": 38382.83507812489,
      "d": 81.87053906249639,
      "v": 65
    },
    {
      "midi": 36,
      "hit": false,
      "t": 38424.57299999989,
      "d": 205.47899999999208,
      "v": 63
    },
    {
      "midi": 81,
      "hit": false,
      "t": 38464.705617187385,
      "d": 81.87053906249639,
      "v": 73
    },
    {
      "midi": 79,
      "hit": false,
      "t": 38546.57615624988,
      "d": 83.4758437499986,
      "v": 72
    },
    {
      "midi": 88,
      "hit": false,
      "t": 38630.05199999988,
      "d": 81.87053906249639,
      "v": 97
    },
    {
      "midi": 48,
      "hit": false,
      "t": 38630.05199999988,
      "d": 205.47899999999208,
      "v": 85
    },
    {
      "midi": 86,
      "hit": false,
      "t": 38711.922539062376,
      "d": 81.87053906249639,
      "v": 75
    },
    {
      "midi": 84,
      "hit": false,
      "t": 38793.79307812487,
      "d": 81.87053906249639,
      "v": 72
    },
    {
      "midi": 36,
      "hit": false,
      "t": 38835.53099999987,
      "d": 205.47899999999208,
      "v": 66
    },
    {
      "midi": 83,
      "hit": false,
      "t": 38875.66361718737,
      "d": 81.87053906249639,
      "v": 67
    },
    {
      "midi": 81,
      "hit": false,
      "t": 38957.534156249865,
      "d": 83.4758437499986,
      "v": 68
    },
    {
      "midi": 79,
      "hit": false,
      "t": 39041.009999999864,
      "d": 81.87053906249639,
      "v": 70
    },
    {
      "midi": 48,
      "hit": false,
      "t": 39041.009999999864,
      "d": 205.47899999999208,
      "v": 82
    },
    {
      "midi": 78,
      "hit": false,
      "t": 39122.88053906236,
      "d": 81.87053906249639,
      "v": 69
    },
    {
      "midi": 76,
      "hit": false,
      "t": 39204.75107812486,
      "d": 81.87053906249639,
      "v": 75
    },
    {
      "midi": 36,
      "hit": false,
      "t": 39246.488999999856,
      "d": 205.47899999999208,
      "v": 69
    },
    {
      "midi": 74,
      "hit": false,
      "t": 39286.62161718735,
      "d": 81.87053906249639,
      "v": 68
    },
    {
      "midi": 72,
      "hit": false,
      "t": 39368.49215624985,
      "d": 83.4758437499986,
      "v": 70
    }
  ]
}