{
  "jsonPath": "Soundtracks/Video Game Music/Sonic the Hedgehog 2/sonic-the-hedgehog-2-raceresults.json",
  "path": "Soundtracks\\Video Game Music\\Sonic the Hedgehog 2\\Sonic_the_Hedgehog_2_RaceResults.mid",
  "name": "Sonic_the_Hedgehog_2_RaceResults",
  "difficulty": "Advanced",
  "bpm": 115.00002875000719,
  "notes": [
    {
      "midi": 71,
      "hit": false,
      "t": 5.095107421875,
      "d": 531.4197041015625,
      "v": 61
    },
    {
      "midi": 83,
      "hit": false,
      "t": 5.095107421875,
      "d": 531.4197041015625,
      "v": 75
    },
    {
      "midi": 38,
      "hit": false,
      "t": 5.095107421875,
      "d": 257.3029248046875,
      "v": 68
    },
    {
      "midi": 50,
      "hit": false,
      "t": 278.192865234375,
      "d": 102.41165917968749,
      "v": 52
    },
    {
      "midi": 50,
      "hit": false,
      "t": 405.0610400390625,
      "d": 139.09643261718747,
      "v": 52
    },
    {
      "midi": 73,
      "hit": false,
      "t": 537.024322265625,
      "d": 241.50809179687496,
      "v": 57
    },
    {
      "midi": 85,
      "hit": false,
      "t": 537.024322265625,
      "d": 241.50809179687496,
      "v": 71
    },
    {
      "midi": 38,
      "hit": false,
      "t": 537.024322265625,
      "d": 241.50809179687508,
      "v": 64
    },
    {
      "midi": 74,
      "hit": false,
      "t": 794.3272470703124,
      "d": 244.05564550781253,
      "v": 56
    },
    {
      "midi": 86,
      "hit": false,
      "t": 794.3272470703124,
      "d": 244.05564550781253,
      "v": 70
    },
    {
      "midi": 50,
      "hit": false,
      "t": 794.3272470703125,
      "d": 244.05564550781241,
      "v": 64
    },
    {
      "midi": 69,
      "hit": false,
      "t": 1054.1777255859374,
      "d": 516.6438925781249,
      "v": 59
    },
    {
      "midi": 81,
      "hit": false,
      "t": 1054.1777255859374,
      "d": 516.6438925781249,
      "v": 73
    },
    {
      "midi": 38,
      "hit": false,
      "t": 1054.1777255859374,
      "d": 244.05564550781241,
      "v": 66
    },
    {
      "midi": 50,
      "hit": false,
      "t": 1314.0282041015623,
      "d": 101.90214843750005,
      "v": 52
    },
    {
      "midi": 50,
      "hit": false,
      "t": 1440.3868681640624,
      "d": 138.07741113281236,
      "v": 52
    },
    {
      "midi": 66,
      "hit": false,
      "t": 1571.33112890625,
      "d": 241.50809179687508,
      "v": 57
    },
    {
      "midi": 78,
      "hit": false,
      "t": 1571.33112890625,
      "d": 241.50809179687508,
      "v": 71
    },
    {
      "midi": 38,
      "hit": false,
      "t": 1571.33112890625,
      "d": 241.50809179687485,
      "v": 64
    },
    {
      "midi": 50,
      "hit": false,
      "t": 1828.6340537109372,
      "d": 242.52711328124997,
      "v": 64
    },
    {
      "midi": 62,
      "hit": false,
      "t": 1828.6340537109375,
      "d": 242.5271132812502,
      "v": 56
    },
    {
      "midi": 74,
      "hit": false,
      "t": 1828.6340537109375,
      "d": 242.5271132812502,
      "v": 70
    },
    {
      "midi": 38,
      "hit": false,
      "t": 2088.99404296875,
      "d": 260.3599892578127,
      "v": 68
    },
    {
      "midi": 67,
      "hit": false,
      "t": 2088.9940429687504,
      "d": 534.4767685546876,
      "v": 61
    },
    {
      "midi": 79,
      "hit": false,
      "t": 2088.9940429687504,
      "d": 534.4767685546876,
      "v": 75
    },
    {
      "midi": 50,
      "hit": false,
      "t": 2365.148865234375,
      "d": 102.41165917968738,
      "v": 52
    },
    {
      "midi": 50,
      "hit": false,
      "t": 2492.0170400390625,
      "d": 139.09643261718747,
      "v": 52
    },
    {
      "midi": 38,
      "hit": false,
      "t": 2623.980322265625,
      "d": 241.50809179687485,
      "v": 64
    },
    {
      "midi": 69,
      "hit": false,
      "t": 2623.9803222656255,
      "d": 241.50809179687485,
      "v": 57
    },
    {
      "midi": 81,
      "hit": false,
      "t": 2623.9803222656255,
      "d": 241.50809179687485,
      "v": 71
    },
    {
      "midi": 50,
      "hit": false,
      "t": 2881.2832470703124,
      "d": 244.05564550781264,
      "v": 64
    },
    {
      "midi": 71,
      "hit": false,
      "t": 2881.283247070313,
      "d": 244.05564550781264,
      "v": 56
    },
    {
      "midi": 83,
      "hit": false,
      "t": 2881.283247070313,
      "d": 244.05564550781264,
      "v": 70
    },
    {
      "midi": 38,
      "hit": false,
      "t": 3141.1337255859376,
      "d": 244.05564550781264,
      "v": 66
    },
    {
      "midi": 69,
      "hit": false,
      "t": 3141.133725585938,
      "d": 1032.2687636718747,
      "v": 59
    },
    {
      "midi": 81,
      "hit": false,
      "t": 3141.133725585938,
      "d": 1032.2687636718747,
      "v": 73
    },
    {
      "midi": 50,
      "hit": false,
      "t": 3400.9842041015627,
      "d": 101.90214843749982,
      "v": 52
    },
    {
      "midi": 50,
      "hit": false,
      "t": 3527.3428681640626,
      "d": 138.07741113281236,
      "v": 52
    },
    {
      "midi": 38,
      "hit": false,
      "t": 3658.28712890625,
      "d": 241.50809179687485,
      "v": 64
    },
    {
      "midi": 50,
      "hit": false,
      "t": 3915.5900537109374,
      "d": 242.52711328125042,
      "v": 64
    },
    {
      "midi": 71,
      "hit": false,
      "t": 4175.9500429687505,
      "d": 534.4767685546876,
      "v": 61
    },
    {
      "midi": 83,
      "hit": false,
      "t": 4175.9500429687505,
      "d": 534.4767685546876,
      "v": 75
    },
    {
      "midi": 38,
      "hit": false,
      "t": 4175.9500429687505,
      "d": 260.35998925781223,
      "v": 68
    },
    {
      "midi": 50,
      "hit": false,
      "t": 4452.104865234375,
      "d": 102.41165917968738,
      "v": 52
    },
    {
      "midi": 50,
      "hit": false,
      "t": 4578.973040039063,
      "d": 139.09643261718702,
      "v": 52
    },
    {
      "midi": 38,
      "hit": false,
      "t": 4710.936322265625,
      "d": 241.5080917968753,
      "v": 64
    },
    {
      "midi": 73,
      "hit": false,
      "t": 4710.936322265626,
      "d": 241.5080917968753,
      "v": 57
    },
    {
      "midi": 85,
      "hit": false,
      "t": 4710.936322265626,
      "d": 241.5080917968753,
      "v": 71
    },
    {
      "midi": 50,
      "hit": false,
      "t": 4968.239247070313,
      "d": 244.0556455078122,
      "v": 64
    },
    {
      "midi": 74,
      "hit": false,
      "t": 4968.2392470703135,
      "d": 244.0556455078122,
      "v": 56
    },
    {
      "midi": 86,
      "hit": false,
      "t": 4968.2392470703135,
      "d": 244.0556455078122,
      "v": 70
    },
    {
      "midi": 38,
      "hit": false,
      "t": 5228.089725585937,
      "d": 244.0556455078122,
      "v": 66
    },
    {
      "midi": 69,
      "hit": false,
      "t": 5228.089725585938,
      "d": 516.6438925781249,
      "v": 59
    },
    {
      "midi": 81,
      "hit": false,
      "t": 5228.089725585938,
      "d": 516.6438925781249,
      "v": 73
    },
    {
      "midi": 50,
      "hit": false,
      "t": 5487.940204101562,
      "d": 101.90214843749982,
      "v": 52
    },
    {
      "midi": 50,
      "hit": false,
      "t": 5614.298868164062,
      "d": 138.0774111328128,
      "v": 52
    },
    {
      "midi": 38,
      "hit": false,
      "t": 5745.24312890625,
      "d": 241.5080917968753,
      "v": 64
    },
    {
      "midi": 66,
      "hit": false,
      "t": 5745.243128906251,
      "d": 241.5080917968753,
      "v": 57
    },
    {
      "midi": 78,
      "hit": false,
      "t": 5745.243128906251,
      "d": 241.5080917968753,
      "v": 71
    },
    {
      "midi": 50,
      "hit": false,
      "t": 6002.5460537109375,
      "d": 242.52711328125042,
      "v": 64
    },
    {
      "midi": 62,
      "hit": false,
      "t": 6002.546053710938,
      "d": 242.52711328125042,
      "v": 56
    },
    {
      "midi": 74,
      "hit": false,
      "t": 6002.546053710938,
      "d": 242.52711328125042,
      "v": 70
    },
    {
      "midi": 38,
      "hit": false,
      "t": 6262.906042968751,
      "d": 260.35998925781223,
      "v": 68
    },
    {
      "midi": 67,
      "hit": false,
      "t": 6262.9060429687515,
      "d": 534.4767685546876,
      "v": 61
    },
    {
      "midi": 79,
      "hit": false,
      "t": 6262.9060429687515,
      "d": 534.4767685546876,
      "v": 75
    },
    {
      "midi": 50,
      "hit": false,
      "t": 6539.060865234375,
      "d": 102.41165917968738,
      "v": 52
    },
    {
      "midi": 50,
      "hit": false,
      "t": 6665.929040039063,
      "d": 139.09643261718702,
      "v": 52
    },
    {
      "midi": 38,
      "hit": false,
      "t": 6797.892322265625,
      "d": 241.5080917968753,
      "v": 64
    },
    {
      "midi": 66,
      "hit": false,
      "t": 6797.892322265627,
      "d": 241.5080917968753,
      "v": 57
    },
    {
      "midi": 78,
      "hit": false,
      "t": 6797.892322265627,
      "d": 241.5080917968753,
      "v": 71
    },
    {
      "midi": 50,
      "hit": false,
      "t": 7055.195247070313,
      "d": 244.0556455078122,
      "v": 64
    },
    {
      "midi": 64,
      "hit": false,
      "t": 7055.1952470703145,
      "d": 244.0556455078122,
      "v": 56
    },
    {
      "midi": 76,
      "hit": false,
      "t": 7055.1952470703145,
      "d": 244.0556455078122,
      "v": 70
    },
    {
      "midi": 38,
      "hit": false,
      "t": 7315.045725585937,
      "d": 244.0556455078122,
      "v": 66
    },
    {
      "midi": 62,
      "hit": false,
      "t": 7315.045725585939,
      "d": 1032.2687636718756,
      "v": 59
    },
    {
      "midi": 74,
      "hit": false,
      "t": 7315.045725585939,
      "d": 1032.2687636718756,
      "v": 73
    },
    {
      "midi": 50,
      "hit": false,
      "t": 7574.896204101562,
      "d": 101.90214843749982,
      "v": 52
    },
    {
      "midi": 50,
      "hit": false,
      "t": 7701.254868164062,
      "d": 138.0774111328128,
      "v": 52
    },
    {
      "midi": 38,
      "hit": false,
      "t": 7832.19912890625,
      "d": 241.5080917968753,
      "v": 64
    },
    {
      "midi": 50,
      "hit": false,
      "t": 8089.502053710938,
      "d": 242.52711328125042,
      "v": 64
    },
    {
      "midi": 38,
      "hit": false,
      "t": 8349.86204296875,
      "d": 260.35998925781314,
      "v": 68
    },
    {
      "midi": 64,
      "hit": false,
      "t": 8349.862042968753,
      "d": 244.0556455078131,
      "v": 49
    },
    {
      "midi": 76,
      "hit": false,
      "t": 8349.862042968753,
      "d": 244.0556455078131,
      "v": 63
    },
    {
      "midi": 50,
      "hit": false,
      "t": 8626.016865234376,
      "d": 102.41165917968829,
      "v": 52
    },
    {
      "midi": 76,
      "hit": false,
      "t": 8626.016865234378,
      "d": 226.73228027343794,
      "v": 58
    },
    {
      "midi": 64,
      "hit": false,
      "t": 8626.016865234378,
      "d": 274.1167792968754,
      "v": 44
    },
    {
      "midi": 50,
      "hit": false,
      "t": 8752.885040039064,
      "d": 139.09643261718884,
      "v": 52
    },
    {
      "midi": 38,
      "hit": false,
      "t": 8884.848322265627,
      "d": 241.5080917968753,
      "v": 64
    },
    {
      "midi": 66,
      "hit": false,
      "t": 8884.848322265629,
      "d": 106.99725585937449,
      "v": 45
    },
    {
      "midi": 78,
      "hit": false,
      "t": 8884.848322265629,
      "d": 106.99725585937449,
      "v": 59
    },
    {
      "midi": 78,
      "hit": false,
      "t": 9016.302093750002,
      "d": 101.39263769531317,
      "v": 58
    },
    {
      "midi": 66,
      "hit": false,
      "t": 9016.302093750002,
      "d": 132.98230371093814,
      "v": 44
    },
    {
      "midi": 50,
      "hit": false,
      "t": 9142.151247070315,
      "d": 244.0556455078131,
      "v": 64
    },
    {
      "midi": 62,
      "hit": false,
      "t": 9268.509911132816,
      "d": 235.3939628906246,
      "v": 44
    },
    {
      "midi": 74,
      "hit": false,
      "t": 9268.509911132816,
      "d": 235.3939628906246,
      "v": 58
    },
    {
      "midi": 38,
      "hit": false,
      "t": 9402.00172558594,
      "d": 244.0556455078131,
      "v": 66
    },
    {
      "midi": 74,
      "hit": false,
      "t": 9536.003050781253,
      "d": 220.10864062499968,
      "v": 58
    },
    {
      "midi": 62,
      "hit": false,
      "t": 9536.003050781253,
      "d": 267.49313964843714,
      "v": 44
    },
    {
      "midi": 50,
      "hit": false,
      "t": 9661.852204101566,
      "d": 101.90214843750073,
      "v": 52
    },
    {
      "midi": 57,
      "hit": false,
      "t": 9788.210868164066,
      "d": 122.79208886718698,
      "v": 56
    },
    {
      "midi": 69,
      "hit": false,
      "t": 9788.210868164066,
      "d": 122.79208886718698,
      "v": 70
    },
    {
      "midi": 50,
      "hit": false,
      "t": 9788.210868164066,
      "d": 138.07741113281372,
      "v": 52
    },
    {
      "midi": 59,
      "hit": false,
      "t": 9919.155128906252,
      "d": 241.5080917968753,
      "v": 57
    },
    {
      "midi": 71,
      "hit": false,
      "t": 9919.155128906252,
      "d": 241.5080917968753,
      "v": 71
    },
    {
      "midi": 38,
      "hit": false,
      "t": 9919.155128906254,
      "d": 241.5080917968753,
      "v": 64
    },
    {
      "midi": 62,
      "hit": false,
      "t": 10176.45805371094,
      "d": 242.52711328125042,
      "v": 56
    },
    {
      "midi": 74,
      "hit": false,
      "t": 10176.45805371094,
      "d": 242.52711328125042,
      "v": 70
    },
    {
      "midi": 50,
      "hit": false,
      "t": 10176.458053710941,
      "d": 242.52711328125042,
      "v": 64
    },
    {
      "midi": 64,
      "hit": false,
      "t": 10436.818042968753,
      "d": 260.35998925781314,
      "v": 61
    },
    {
      "midi": 76,
      "hit": false,
      "t": 10436.818042968753,
      "d": 260.35998925781314,
      "v": 75
    },
    {
      "midi": 38,
      "hit": false,
      "t": 10436.818042968755,
      "d": 260.35998925781314,
      "v": 68
    },
    {
      "midi": 64,
      "hit": false,
      "t": 10712.972865234378,
      "d": 243.03662402343798,
      "v": 56
    },
    {
      "midi": 76,
      "hit": false,
      "t": 10712.972865234378,
      "d": 243.03662402343798,
      "v": 70
    },
    {
      "midi": 50,
      "hit": false,
      "t": 10712.97286523438,
      "d": 102.41165917968829,
      "v": 52
    },
    {
      "midi": 50,
      "hit": false,
      "t": 10839.841040039068,
      "d": 139.09643261718884,
      "v": 52
    },
    {
      "midi": 66,
      "hit": false,
      "t": 10971.804322265629,
      "d": 106.99725585937449,
      "v": 45
    },
    {
      "midi": 78,
      "hit": false,
      "t": 10971.804322265629,
      "d": 106.99725585937449,
      "v": 59
    },
    {
      "midi": 38,
      "hit": false,
      "t": 10971.80432226563,
      "d": 241.5080917968753,
      "v": 64
    },
    {
      "midi": 78,
      "hit": false,
      "t": 11103.258093750002,
      "d": 101.39263769531317,
      "v": 58
    },
    {
      "midi": 66,
      "hit": false,
      "t": 11103.258093750002,
      "d": 132.98230371093814,
      "v": 44
    },
    {
      "midi": 50,
      "hit": false,
      "t": 11229.107247070318,
      "d": 244.0556455078131,
      "v": 64
    },
    {
      "midi": 62,
      "hit": false,
      "t": 11355.465911132816,
      "d": 251.69830664062465,
      "v": 56
    },
    {
      "midi": 74,
      "hit": false,
      "t": 11355.465911132816,
      "d": 251.69830664062465,
      "v": 70
    },
    {
      "midi": 38,
      "hit": false,
      "t": 11488.957725585944,
      "d": 244.0556455078131,
      "v": 66
    },
    {
      "midi": 50,
      "hit": false,
      "t": 11748.80820410157,
      "d": 101.90214843750073,
      "v": 52
    },
    {
      "midi": 50,
      "hit": false,
      "t": 11875.16686816407,
      "d": 138.07741113281372,
      "v": 52
    },
    {
      "midi": 38,
      "hit": false,
      "t": 12006.111128906257,
      "d": 241.5080917968753,
      "v": 64
    },
    {
      "midi": 50,
      "hit": false,
      "t": 12263.414053710945,
      "d": 242.52711328125042,
      "v": 64
    },
    {
      "midi": 64,
      "hit": false,
      "t": 12523.774042968753,
      "d": 244.0556455078131,
      "v": 49
    },
    {
      "midi": 76,
      "hit": false,
      "t": 12523.774042968753,
      "d": 244.0556455078131,
      "v": 63
    },
    {
      "midi": 38,
      "hit": false,
      "t": 12523.774042968758,
      "d": 260.35998925781314,
      "v": 68
    },
    {
      "midi": 76,
      "hit": false,
      "t": 12799.928865234378,
      "d": 226.73228027343794,
      "v": 58
    },
    {
      "midi": 64,
      "hit": false,
      "t": 12799.928865234378,
      "d": 274.1167792968754,
      "v": 44
    },
    {
      "midi": 50,
      "hit": false,
      "t": 12799.928865234384,
      "d": 102.41165917968829,
      "v": 52
    },
    {
      "midi": 50,
      "hit": false,
      "t": 12926.797040039071,
      "d": 139.09643261718884,
      "v": 52
    },
    {
      "midi": 66,
      "hit": false,
      "t": 13058.760322265629,
      "d": 106.99725585937449,
      "v": 45
    },
    {
      "midi": 78,
      "hit": false,
      "t": 13058.760322265629,
      "d": 106.99725585937449,
      "v": 59
    },
    {
      "midi": 38,
      "hit": false,
      "t": 13058.760322265634,
      "d": 241.5080917968753,
      "v": 64
    },
    {
      "midi": 78,
      "hit": false,
      "t": 13190.214093750003,
      "d": 101.39263769531317,
      "v": 58
    },
    {
      "midi": 66,
      "hit": false,
      "t": 13190.214093750003,
      "d": 132.98230371093814,
      "v": 44
    },
    {
      "midi": 50,
      "hit": false,
      "t": 13316.063247070322,
      "d": 244.0556455078131,
      "v": 64
    },
    {
      "midi": 62,
      "hit": false,
      "t": 13442.421911132817,
      "d": 235.3939628906246,
      "v": 44
    },
    {
      "midi": 74,
      "hit": false,
      "t": 13442.421911132817,
      "d": 235.3939628906246,
      "v": 58
    },
    {
      "midi": 38,
      "hit": false,
      "t": 13575.913725585948,
      "d": 244.0556455078131,
      "v": 66
    },
    {
      "midi": 74,
      "hit": false,
      "t": 13709.915050781254,
      "d": 220.10864062499968,
      "v": 58
    },
    {
      "midi": 62,
      "hit": false,
      "t": 13709.915050781254,
      "d": 267.49313964843714,
      "v": 44
    },
    {
      "midi": 50,
      "hit": false,
      "t": 13835.764204101573,
      "d": 101.90214843750073,
      "v": 52
    },
    {
      "midi": 57,
      "hit": false,
      "t": 13962.122868164066,
      "d": 122.79208886718698,
      "v": 56
    },
    {
      "midi": 69,
      "hit": false,
      "t": 13962.122868164066,
      "d": 122.79208886718698,
      "v": 70
    },
    {
      "midi": 50,
      "hit": false,
      "t": 13962.122868164073,
      "d": 138.07741113281372,
      "v": 52
    },
    {
      "midi": 59,
      "hit": false,
      "t": 14093.067128906252,
      "d": 241.5080917968753,
      "v": 57
    },
    {
      "midi": 71,
      "hit": false,
      "t": 14093.067128906252,
      "d": 241.5080917968753,
      "v": 71
    },
    {
      "midi": 38,
      "hit": false,
      "t": 14093.067128906261,
      "d": 241.5080917968753,
      "v": 64
    },
    {
      "midi": 62,
      "hit": false,
      "t": 14350.37005371094,
      "d": 242.52711328125042,
      "v": 56
    },
    {
      "midi": 74,
      "hit": false,
      "t": 14350.37005371094,
      "d": 242.52711328125042,
      "v": 70
    },
    {
      "midi": 50,
      "hit": false,
      "t": 14350.370053710949,
      "d": 242.52711328125042,
      "v": 64
    },
    {
      "midi": 67,
      "hit": false,
      "t": 14610.730042968753,
      "d": 402.5134863281255,
      "v": 61
    },
    {
      "midi": 79,
      "hit": false,
      "t": 14610.730042968753,
      "d": 402.5134863281255,
      "v": 75
    },
    {
      "midi": 38,
      "hit": false,
      "t": 14610.730042968762,
      "d": 260.35998925781314,
      "v": 68
    },
    {
      "midi": 50,
      "hit": false,
      "t": 14886.884865234388,
      "d": 102.41165917968829,
      "v": 52
    },
    {
      "midi": 66,
      "hit": false,
      "t": 15013.753040039066,
      "d": 123.81111035156209,
      "v": 56
    },
    {
      "midi": 78,
      "hit": false,
      "t": 15013.753040039066,
      "d": 123.81111035156209,
      "v": 70
    },
    {
      "midi": 50,
      "hit": false,
      "t": 15013.753040039075,
      "d": 139.09643261718884,
      "v": 52
    },
    {
      "midi": 64,
      "hit": false,
      "t": 15145.716322265627,
      "d": 241.5080917968753,
      "v": 57
    },
    {
      "midi": 76,
      "hit": false,
      "t": 15145.716322265627,
      "d": 241.5080917968753,
      "v": 71
    },
    {
      "midi": 38,
      "hit": false,
      "t": 15145.716322265638,
      "d": 241.5080917968753,
      "v": 64
    },
    {
      "midi": 62,
      "hit": false,
      "t": 15403.019247070315,
      "d": 101.90214843750073,
      "v": 44
    },
    {
      "midi": 74,
      "hit": false,
      "t": 15403.019247070315,
      "d": 101.90214843750073,
      "v": 58
    },
    {
      "midi": 50,
      "hit": false,
      "t": 15403.019247070326,
      "d": 244.0556455078131,
      "v": 64
    },
    {
      "midi": 74,
      "hit": false,
      "t": 15529.377911132815,
      "d": 109.03529882812472,
      "v": 58
    },
    {
      "midi": 62,
      "hit": false,
      "t": 15529.377911132815,
      "d": 140.6249648437497,
      "v": 44
    },
    {
      "midi": 38,
      "hit": false,
      "t": 15662.869725585952,
      "d": 244.0556455078131,
      "v": 66
    },
    {
      "midi": 50,
      "hit": false,
      "t": 15922.720204101577,
      "d": 101.90214843750073,
      "v": 52
    },
    {
      "midi": 50,
      "hit": false,
      "t": 16049.078868164077,
      "d": 138.07741113281372,
      "v": 52
    },
    {
      "midi": 38,
      "hit": false,
      "t": 16180.023128906265,
      "d": 241.50809179687712,
      "v": 64
    },
    {
      "midi": 50,
      "hit": false,
      "t": 16437.326053710956,
      "d": 242.5271132812486,
      "v": 64
    },
    {
      "midi": 64,
      "hit": false,
      "t": 16697.68604296875,
      "d": 244.05564550781128,
      "v": 49
    },
    {
      "midi": 76,
      "hit": false,
      "t": 16697.68604296875,
      "d": 244.05564550781128,
      "v": 63
    },
    {
      "midi": 38,
      "hit": false,
      "t": 16697.686042968766,
      "d": 260.35998925781314,
      "v": 68
    },
    {
      "midi": 76,
      "hit": false,
      "t": 16973.840865234375,
      "d": 226.73228027343794,
      "v": 58
    },
    {
      "midi": 64,
      "hit": false,
      "t": 16973.840865234375,
      "d": 274.1167792968772,
      "v": 44
    },
    {
      "midi": 50,
      "hit": false,
      "t": 16973.840865234393,
      "d": 102.41165917968829,
      "v": 52
    },
    {
      "midi": 50,
      "hit": false,
      "t": 17100.70904003908,
      "d": 139.09643261718884,
      "v": 52
    },
    {
      "midi": 66,
      "hit": false,
      "t": 17232.672322265626,
      "d": 106.99725585937631,
      "v": 45
    },
    {
      "midi": 78,
      "hit": false,
      "t": 17232.672322265626,
      "d": 106.99725585937631,
      "v": 59
    },
    {
      "midi": 38,
      "hit": false,
      "t": 17232.672322265644,
      "d": 241.50809179687712,
      "v": 64
    },
    {
      "midi": 78,
      "hit": false,
      "t": 17364.12609375,
      "d": 101.39263769531317,
      "v": 58
    },
    {
      "midi": 66,
      "hit": false,
      "t": 17364.12609375,
      "d": 132.98230371093814,
      "v": 44
    },
    {
      "midi": 50,
      "hit": false,
      "t": 17489.975247070335,
      "d": 244.05564550781128,
      "v": 64
    },
    {
      "midi": 62,
      "hit": false,
      "t": 17616.333911132813,
      "d": 235.39396289062643,
      "v": 44
    },
    {
      "midi": 74,
      "hit": false,
      "t": 17616.333911132813,
      "d": 235.39396289062643,
      "v": 58
    },
    {
      "midi": 38,
      "hit": false,
      "t": 17749.82572558596,
      "d": 244.05564550781128,
      "v": 66
    },
    {
      "midi": 74,
      "hit": false,
      "t": 17883.827050781252,
      "d": 220.10864062499968,
      "v": 58
    },
    {
      "midi": 62,
      "hit": false,
      "t": 17883.827050781252,
      "d": 267.49313964843896,
      "v": 44
    },
    {
      "midi": 50,
      "hit": false,
      "t": 18009.676204101586,
      "d": 101.90214843750073,
      "v": 52
    },
    {
      "midi": 57,
      "hit": false,
      "t": 18136.034868164064,
      "d": 122.79208886719061,
      "v": 56
    },
    {
      "midi": 69,
      "hit": false,
      "t": 18136.034868164064,
      "d": 122.79208886719061,
      "v": 70
    },
    {
      "midi": 50,
      "hit": false,
      "t": 18136.034868164086,
      "d": 138.07741113281372,
      "v": 52
    },
    {
      "midi": 59,
      "hit": false,
      "t": 18266.979128906256,
      "d": 241.5080917968735,
      "v": 57
    },
    {
      "midi": 71,
      "hit": false,
      "t": 18266.979128906256,
      "d": 241.5080917968735,
      "v": 71
    },
    {
      "midi": 38,
      "hit": false,
      "t": 18266.979128906274,
      "d": 241.50809179687712,
      "v": 64
    },
    {
      "midi": 62,
      "hit": false,
      "t": 18524.282053710944,
      "d": 242.5271132812486,
      "v": 56
    },
    {
      "midi": 74,
      "hit": false,
      "t": 18524.282053710944,
      "d": 242.5271132812486,
      "v": 70
    },
    {
      "midi": 50,
      "hit": false,
      "t": 18524.282053710966,
      "d": 242.5271132812486,
      "v": 64
    },
    {
      "midi": 64,
      "hit": false,
      "t": 18784.642042968753,
      "d": 260.35998925781314,
      "v": 61
    },
    {
      "midi": 76,
      "hit": false,
      "t": 18784.642042968753,
      "d": 260.35998925781314,
      "v": 75
    },
    {
      "midi": 38,
      "hit": false,
      "t": 18784.642042968775,
      "d": 260.35998925781314,
      "v": 68
    },
    {
      "midi": 64,
      "hit": false,
      "t": 19060.79686523438,
      "d": 243.03662402343616,
      "v": 56
    },
    {
      "midi": 76,
      "hit": false,
      "t": 19060.79686523438,
      "d": 243.03662402343616,
      "v": 70
    },
    {
      "midi": 50,
      "hit": false,
      "t": 19060.796865234403,
      "d": 102.41165917968829,
      "v": 52
    },
    {
      "midi": 50,
      "hit": false,
      "t": 19187.66504003909,
      "d": 139.09643261718884,
      "v": 52
    },
    {
      "midi": 66,
      "hit": false,
      "t": 19319.62832226563,
      "d": 106.99725585937631,
      "v": 45
    },
    {
      "midi": 78,
      "hit": false,
      "t": 19319.62832226563,
      "d": 106.99725585937631,
      "v": 59
    },
    {
      "midi": 38,
      "hit": false,
      "t": 19319.628322265653,
      "d": 241.50809179687712,
      "v": 64
    },
    {
      "midi": 78,
      "hit": false,
      "t": 19451.082093750007,
      "d": 101.39263769531317,
      "v": 58
    },
    {
      "midi": 66,
      "hit": false,
      "t": 19451.082093750007,
      "d": 132.98230371093814,
      "v": 44
    },
    {
      "midi": 50,
      "hit": false,
      "t": 19576.931247070344,
      "d": 244.05564550781128,
      "v": 64
    },
    {
      "midi": 62,
      "hit": false,
      "t": 19703.28991113282,
      "d": 251.69830664062465,
      "v": 56
    },
    {
      "midi": 74,
      "hit": false,
      "t": 19703.28991113282,
      "d": 251.69830664062465,
      "v": 70
    },
    {
      "midi": 38,
      "hit": false,
      "t": 19836.78172558597,
      "d": 244.05564550781128,
      "v": 66
    },
    {
      "midi": 50,
      "hit": false,
      "t": 20096.632204101596,
      "d": 101.90214843750073,
      "v": 52
    },
    {
      "midi": 50,
      "hit": false,
      "t": 20222.990868164095,
      "d": 138.07741113281372,
      "v": 52
    },
    {
      "midi": 38,
      "hit": false,
      "t": 20353.935128906283,
      "d": 241.50809179687712,
      "v": 64
    },
    {
      "midi": 50,
      "hit": false,
      "t": 20611.238053710975,
      "d": 242.5271132812486,
      "v": 64
    },
    {
      "midi": 64,
      "hit": false,
      "t": 20871.598042968755,
      "d": 244.05564550781128,
      "v": 49
    },
    {
      "midi": 76,
      "hit": false,
      "t": 20871.598042968755,
      "d": 244.05564550781128,
      "v": 63
    },
    {
      "midi": 38,
      "hit": false,
      "t": 20871.598042968784,
      "d": 260.35998925781314,
      "v": 68
    },
    {
      "midi": 76,
      "hit": false,
      "t": 21147.75286523438,
      "d": 226.73228027343794,
      "v": 58
    },
    {
      "midi": 64,
      "hit": false,
      "t": 21147.75286523438,
      "d": 274.1167792968772,
      "v": 44
    },
    {
      "midi": 50,
      "hit": false,
      "t": 21147.75286523441,
      "d": 102.41165917968829,
      "v": 52
    },
    {
      "midi": 50,
      "hit": false,
      "t": 21274.6210400391,
      "d": 139.09643261718884,
      "v": 52
    },
    {
      "midi": 66,
      "hit": false,
      "t": 21406.58432226563,
      "d": 106.99725585937631,
      "v": 45
    },
    {
      "midi": 78,
      "hit": false,
      "t": 21406.58432226563,
      "d": 106.99725585937631,
      "v": 59
    },
    {
      "midi": 38,
      "hit": false,
      "t": 21406.584322265662,
      "d": 241.50809179687712,
      "v": 64
    },
    {
      "midi": 78,
      "hit": false,
      "t": 21538.038093750005,
      "d": 101.39263769531317,
      "v": 58
    },
    {
      "midi": 66,
      "hit": false,
      "t": 21538.038093750005,
      "d": 132.98230371093814,
      "v": 44
    },
    {
      "midi": 50,
      "hit": false,
      "t": 21663.887247070354,
      "d": 244.05564550781128,
      "v": 64
    },
    {
      "midi": 62,
      "hit": false,
      "t": 21790.245911132817,
      "d": 235.39396289062643,
      "v": 44
    },
    {
      "midi": 74,
      "hit": false,
      "t": 21790.245911132817,
      "d": 235.39396289062643,
      "v": 58
    },
    {
      "midi": 38,
      "hit": false,
      "t": 21923.73772558598,
      "d": 244.05564550781128,
      "v": 66
    },
    {
      "midi": 74,
      "hit": false,
      "t": 22057.739050781256,
      "d": 220.10864062499968,
      "v": 58
    },
    {
      "midi": 62,
      "hit": false,
      "t": 22057.739050781256,
      "d": 267.49313964843896,
      "v": 44
    },
    {
      "midi": 50,
      "hit": false,
      "t": 22183.588204101605,
      "d": 101.90214843750073,
      "v": 52
    },
    {
      "midi": 57,
      "hit": false,
      "t": 22309.94686816407,
      "d": 122.79208886719061,
      "v": 56
    },
    {
      "midi": 69,
      "hit": false,
      "t": 22309.94686816407,
      "d": 122.79208886719061,
      "v": 70
    },
    {
      "midi": 50,
      "hit": false,
      "t": 22309.946868164105,
      "d": 138.07741113281372,
      "v": 52
    },
    {
      "midi": 59,
      "hit": false,
      "t": 22440.89112890626,
      "d": 241.5080917968735,
      "v": 57
    },
    {
      "midi": 71,
      "hit": false,
      "t": 22440.89112890626,
      "d": 241.5080917968735,
      "v": 71
    },
    {
      "midi": 38,
      "hit": false,
      "t": 22440.891128906293,
      "d": 241.50809179687712,
      "v": 64
    },
    {
      "midi": 62,
      "hit": false,
      "t": 22698.194053710948,
      "d": 242.5271132812486,
      "v": 56
    },
    {
      "midi": 74,
      "hit": false,
      "t": 22698.194053710948,
      "d": 242.5271132812486,
      "v": 70
    },
    {
      "midi": 50,
      "hit": false,
      "t": 22698.194053710984,
      "d": 242.5271132812486,
      "v": 64
    },
    {
      "midi": 67,
      "hit": false,
      "t": 22958.554042968757,
      "d": 402.5134863281237,
      "v": 61
    },
    {
      "midi": 79,
      "hit": false,
      "t": 22958.554042968757,
      "d": 402.5134863281237,
      "v": 75
    },
    {
      "midi": 38,
      "hit": false,
      "t": 22958.554042968794,
      "d": 260.35998925781314,
      "v": 68
    },
    {
      "midi": 50,
      "hit": false,
      "t": 23234.70886523442,
      "d": 102.41165917968829,
      "v": 52
    },
    {
      "midi": 66,
      "hit": false,
      "t": 23361.57704003907,
      "d": 123.81111035156209,
      "v": 56
    },
    {
      "midi": 78,
      "hit": false,
      "t": 23361.57704003907,
      "d": 123.81111035156209,
      "v": 70
    },
    {
      "midi": 50,
      "hit": false,
      "t": 23361.57704003911,
      "d": 139.09643261718884,
      "v": 52
    },
    {
      "midi": 64,
      "hit": false,
      "t": 23493.54032226563,
      "d": 241.5080917968735,
      "v": 57
    },
    {
      "midi": 76,
      "hit": false,
      "t": 23493.54032226563,
      "d": 241.5080917968735,
      "v": 71
    },
    {
      "midi": 38,
      "hit": false,
      "t": 23493.54032226567,
      "d": 241.50809179687712,
      "v": 64
    },
    {
      "midi": 62,
      "hit": false,
      "t": 23750.84324707032,
      "d": 101.90214843750073,
      "v": 44
    },
    {
      "midi": 74,
      "hit": false,
      "t": 23750.84324707032,
      "d": 101.90214843750073,
      "v": 58
    },
    {
      "midi": 50,
      "hit": false,
      "t": 23750.843247070363,
      "d": 244.05564550781128,
      "v": 64
    },
    {
      "midi": 74,
      "hit": false,
      "t": 23877.20191113282,
      "d": 109.03529882812654,
      "v": 54
    },
    {
      "midi": 62,
      "hit": false,
      "t": 23877.20191113282,
      "d": 140.6249648437515,
      "v": 44
    },
    {
      "midi": 38,
      "hit": false,
      "t": 24010.69372558599,
      "d": 244.05564550781128,
      "v": 66
    },
    {
      "midi": 50,
      "hit": false,
      "t": 24270.544204101614,
      "d": 101.90214843750073,
      "v": 52
    },
    {
      "midi": 50,
      "hit": false,
      "t": 24396.902868164114,
      "d": 138.07741113281372,
      "v": 52
    },
    {
      "midi": 38,
      "hit": false,
      "t": 24527.8471289063,
      "d": 241.50809179687712,
      "v": 64
    },
    {
      "midi": 50,
      "hit": false,
      "t": 24785.150053710993,
      "d": 242.5271132812486,
      "v": 64
    },
    {
      "midi": 62,
      "hit": false,
      "t": 25045.51004296876,
      "d": 1296.195328124999,
      "v": 61
    },
    {
      "midi": 74,
      "hit": false,
      "t": 25045.51004296876,
      "d": 1296.195328124999,
      "v": 71
    },
    {
      "midi": 43,
      "hit": false,
      "t": 25045.510042968803,
      "d": 260.35998925781314,
      "v": 69
    },
    {
      "midi": 55,
      "hit": false,
      "t": 25321.66486523443,
      "d": 102.41165917968829,
      "v": 52
    },
    {
      "midi": 55,
      "hit": false,
      "t": 25448.533040039118,
      "d": 139.09643261718884,
      "v": 52
    },
    {
      "midi": 43,
      "hit": false,
      "t": 25580.49632226568,
      "d": 241.50809179687712,
      "v": 65
    },
    {
      "midi": 55,
      "hit": false,
      "t": 25837.799247070372,
      "d": 244.05564550781128,
      "v": 64
    },
    {
      "midi": 43,
      "hit": false,
      "t": 26097.649725585998,
      "d": 244.05564550781128,
      "v": 67
    },
    {
      "midi": 59,
      "hit": false,
      "t": 26357.500204101572,
      "d": 118.20649218749895,
      "v": 56
    },
    {
      "midi": 71,
      "hit": false,
      "t": 26357.500204101572,
      "d": 118.20649218749895,
      "v": 70
    },
    {
      "midi": 55,
      "hit": false,
      "t": 26357.500204101623,
      "d": 101.90214843750073,
      "v": 52
    },
    {
      "midi": 61,
      "hit": false,
      "t": 26483.858868164072,
      "d": 122.79208886718698,
      "v": 56
    },
    {
      "midi": 73,
      "hit": false,
      "t": 26483.858868164072,
      "d": 122.79208886718698,
      "v": 70
    },
    {
      "midi": 55,
      "hit": false,
      "t": 26483.858868164123,
      "d": 138.07741113281372,
      "v": 52
    },
    {
      "midi": 62,
      "hit": false,
      "t": 26614.80312890626,
      "d": 241.5080917968735,
      "v": 57
    },
    {
      "midi": 74,
      "hit": false,
      "t": 26614.80312890626,
      "d": 241.5080917968735,
      "v": 71
    },
    {
      "midi": 43,
      "hit": false,
      "t": 26614.80312890631,
      "d": 241.50809179687712,
      "v": 65
    },
    {
      "midi": 59,
      "hit": false,
      "t": 26872.106053710948,
      "d": 242.5271132812486,
      "v": 56
    },
    {
      "midi": 71,
      "hit": false,
      "t": 26872.106053710948,
      "d": 242.5271132812486,
      "v": 70
    },
    {
      "midi": 55,
      "hit": false,
      "t": 26872.106053711002,
      "d": 242.5271132812486,
      "v": 64
    },
    {
      "midi": 61,
      "hit": false,
      "t": 27132.466042968757,
      "d": 1051.630171875,
      "v": 61
    },
    {
      "midi": 73,
      "hit": false,
      "t": 27132.466042968757,
      "d": 1051.630171875,
      "v": 75
    },
    {
      "midi": 42,
      "hit": false,
      "t": 27132.466042968812,
      "d": 260.35998925781314,
      "v": 69
    },
    {
      "midi": 54,
      "hit": false,
      "t": 27408.62086523444,
      "d": 102.41165917968829,
      "v": 52
    },
    {
      "midi": 54,
      "hit": false,
      "t": 27535.489040039127,
      "d": 139.09643261718884,
      "v": 52
    },
    {
      "midi": 42,
      "hit": false,
      "t": 27667.45232226569,
      "d": 241.50809179687712,
      "v": 65
    },
    {
      "midi": 54,
      "hit": false,
      "t": 27924.75524707038,
      "d": 244.05564550781128,
      "v": 64
    },
    {
      "midi": 57,
      "hit": false,
      "t": 28184.605725585945,
      "d": 385.6996318359379,
      "v": 59
    },
    {
      "midi": 69,
      "hit": false,
      "t": 28184.605725585945,
      "d": 385.6996318359379,
      "v": 73
    },
    {
      "midi": 42,
      "hit": false,
      "t": 28184.605725586007,
      "d": 244.05564550781128,
      "v": 67
    },
    {
      "midi": 54,
      "hit": false,
      "t": 28444.456204101632,
      "d": 101.90214843750073,
      "v": 52
    },
    {
      "midi": 59,
      "hit": false,
      "t": 28570.81486816407,
      "d": 122.79208886718698,
      "v": 56
    },
    {
      "midi": 71,
      "hit": false,
      "t": 28570.81486816407,
      "d": 122.79208886718698,
      "v": 70
    },
    {
      "midi": 54,
      "hit": false,
      "t": 28570.814868164132,
      "d": 138.07741113281372,
      "v": 52
    },
    {
      "midi": 61,
      "hit": false,
      "t": 28701.75912890626,
      "d": 241.5080917968735,
      "v": 57
    },
    {
      "midi": 73,
      "hit": false,
      "t": 28701.75912890626,
      "d": 241.5080917968735,
      "v": 71
    },
    {
      "midi": 42,
      "hit": false,
      "t": 28701.75912890632,
      "d": 241.50809179687712,
      "v": 65
    },
    {
      "midi": 57,
      "hit": false,
      "t": 28959.062053710946,
      "d": 242.5271132812486,
      "v": 56
    },
    {
      "midi": 69,
      "hit": false,
      "t": 28959.062053710946,
      "d": 242.5271132812486,
      "v": 70
    },
    {
      "midi": 54,
      "hit": false,
      "t": 28959.06205371101,
      "d": 242.5271132812486,
      "v": 64
    },
    {
      "midi": 59,
      "hit": false,
      "t": 29219.422042968756,
      "d": 1296.195328124999,
      "v": 61
    },
    {
      "midi": 71,
      "hit": false,
      "t": 29219.422042968756,
      "d": 1296.195328124999,
      "v": 75
    },
    {
      "midi": 40,
      "hit": false,
      "t": 29219.42204296882,
      "d": 260.35998925781314,
      "v": 68
    },
    {
      "midi": 52,
      "hit": false,
      "t": 29495.57686523445,
      "d": 102.41165917968829,
      "v": 52
    },
    {
      "midi": 52,
      "hit": false,
      "t": 29622.445040039136,
      "d": 139.09643261718884,
      "v": 52
    },
    {
      "midi": 40,
      "hit": false,
      "t": 29754.4083222657,
      "d": 241.50809179687712,
      "v": 64
    },
    {
      "midi": 52,
      "hit": false,
      "t": 30011.71124707039,
      "d": 244.05564550781128,
      "v": 64
    },
    {
      "midi": 40,
      "hit": false,
      "t": 30271.561725586016,
      "d": 244.05564550781128,
      "v": 66
    },
    {
      "midi": 57,
      "hit": false,
      "t": 30531.41220410157,
      "d": 241.5080917968735,
      "v": 56
    },
    {
      "midi": 69,
      "hit": false,
      "t": 30531.41220410157,
      "d": 241.5080917968735,
      "v": 70
    },
    {
      "midi": 52,
      "hit": false,
      "t": 30531.41220410164,
      "d": 101.90214843750073,
      "v": 52
    },
    {
      "midi": 52,
      "hit": false,
      "t": 30657.77086816414,
      "d": 138.07741113281372,
      "v": 52
    },
    {
      "midi": 59,
      "hit": false,
      "t": 30788.715128906257,
      "d": 241.5080917968735,
      "v": 57
    },
    {
      "midi": 71,
      "hit": false,
      "t": 30788.715128906257,
      "d": 241.5080917968735,
      "v": 71
    },
    {
      "midi": 40,
      "hit": false,
      "t": 30788.71512890633,
      "d": 241.50809179687712,
      "v": 64
    },
    {
      "midi": 57,
      "hit": false,
      "t": 31046.018053710945,
      "d": 242.5271132812486,
      "v": 56
    },
    {
      "midi": 69,
      "hit": false,
      "t": 31046.018053710945,
      "d": 242.5271132812486,
      "v": 70
    },
    {
      "midi": 52,
      "hit": false,
      "t": 31046.01805371102,
      "d": 242.5271132812486,
      "v": 64
    },
    {
      "midi": 61,
      "hit": false,
      "t": 31306.378042968754,
      "d": 534.4767685546867,
      "v": 61
    },
    {
      "midi": 73,
      "hit": false,
      "t": 31306.378042968754,
      "d": 534.4767685546867,
      "v": 75
    },
    {
      "midi": 42,
      "hit": false,
      "t": 31306.37804296883,
      "d": 260.35998925781314,
      "v": 69
    },
    {
      "midi": 54,
      "hit": false,
      "t": 31582.532865234458,
      "d": 102.41165917968829,
      "v": 52
    },
    {
      "midi": 54,
      "hit": false,
      "t": 31709.401040039145,
      "d": 139.09643261718884,
      "v": 52
    },
    {
      "midi": 59,
      "hit": false,
      "t": 31841.36432226563,
      "d": 241.5080917968735,
      "v": 57
    },
    {
      "midi": 71,
      "hit": false,
      "t": 31841.36432226563,
      "d": 241.5080917968735,
      "v": 71
    },
    {
      "midi": 42,
      "hit": false,
      "t": 31841.36432226571,
      "d": 241.50809179687712,
      "v": 65
    },
    {
      "midi": 57,
      "hit": false,
      "t": 32098.667247070316,
      "d": 776.4943710937478,
      "v": 56
    },
    {
      "midi": 69,
      "hit": false,
      "t": 32098.667247070316,
      "d": 776.4943710937478,
      "v": 70
    },
    {
      "midi": 54,
      "hit": false,
      "t": 32098.6672470704,
      "d": 244.05564550781128,
      "v": 64
    },
    {
      "midi": 42,
      "hit": false,
      "t": 32358.517725586025,
      "d": 244.05564550781128,
      "v": 67
    },
    {
      "midi": 54,
      "hit": false,
      "t": 32618.36820410165,
      "d": 101.90214843750073,
      "v": 52
    },
    {
      "midi": 54,
      "hit": false,
      "t": 32744.72686816415,
      "d": 138.07741113281372,
      "v": 52
    },
    {
      "midi": 59,
      "hit": false,
      "t": 32875.67112890625,
      "d": 241.5080917968735,
      "v": 57
    },
    {
      "midi": 71,
      "hit": false,
      "t": 32875.67112890625,
      "d": 241.5080917968735,
      "v": 71
    },
    {
      "midi": 42,
      "hit": false,
      "t": 32875.67112890634,
      "d": 241.5080917968735,
      "v": 65
    },
    {
      "midi": 61,
      "hit": false,
      "t": 33132.97405371094,
      "d": 242.5271132812486,
      "v": 56
    },
    {
      "midi": 73,
      "hit": false,
      "t": 33132.97405371094,
      "d": 242.5271132812486,
      "v": 70
    },
    {
      "midi": 54,
      "hit": false,
      "t": 33132.97405371103,
      "d": 242.5271132812486,
      "v": 64
    },
    {
      "midi": 62,
      "hit": false,
      "t": 33393.33404296875,
      "d": 1296.1953281250026,
      "v": 61
    },
    {
      "midi": 74,
      "hit": false,
      "t": 33393.33404296875,
      "d": 1296.1953281250026,
      "v": 75
    },
    {
      "midi": 43,
      "hit": false,
      "t": 33393.33404296884,
      "d": 260.35998925781314,
      "v": 69
    },
    {
      "midi": 55,
      "hit": false,
      "t": 33669.48886523447,
      "d": 102.41165917968465,
      "v": 52
    },
    {
      "midi": 55,
      "hit": false,
      "t": 33796.357040039155,
      "d": 139.09643261718884,
      "v": 52
    },
    {
      "midi": 43,
      "hit": false,
      "t": 33928.32032226572,
      "d": 241.5080917968735,
      "v": 65
    },
    {
      "midi": 55,
      "hit": false,
      "t": 34185.623247070405,
      "d": 244.05564550781128,
      "v": 64
    },
    {
      "midi": 43,
      "hit": false,
      "t": 34445.47372558603,
      "d": 244.05564550781128,
      "v": 67
    },
    {
      "midi": 59,
      "hit": false,
      "t": 34705.32420410157,
      "d": 118.20649218749895,
      "v": 56
    },
    {
      "midi": 71,
      "hit": false,
      "t": 34705.32420410157,
      "d": 118.20649218749895,
      "v": 70
    },
    {
      "midi": 55,
      "hit": false,
      "t": 34705.32420410166,
      "d": 101.90214843749709,
      "v": 52
    },
    {
      "midi": 61,
      "hit": false,
      "t": 34831.68286816407,
      "d": 122.79208886718698,
      "v": 56
    },
    {
      "midi": 73,
      "hit": false,
      "t": 34831.68286816407,
      "d": 122.79208886718698,
      "v": 70
    },
    {
      "midi": 55,
      "hit": false,
      "t": 34831.68286816416,
      "d": 138.07741113281372,
      "v": 52
    },
    {
      "midi": 62,
      "hit": false,
      "t": 34962.62712890626,
      "d": 241.5080917968735,
      "v": 57
    },
    {
      "midi": 74,
      "hit": false,
      "t": 34962.62712890626,
      "d": 241.5080917968735,
      "v": 71
    },
    {
      "midi": 43,
      "hit": false,
      "t": 34962.627128906344,
      "d": 241.5080917968735,
      "v": 65
    },
    {
      "midi": 59,
      "hit": false,
      "t": 35219.930053710945,
      "d": 242.5271132812486,
      "v": 56
    },
    {
      "midi": 71,
      "hit": false,
      "t": 35219.930053710945,
      "d": 242.5271132812486,
      "v": 70
    },
    {
      "midi": 55,
      "hit": false,
      "t": 35219.93005371103,
      "d": 242.5271132812486,
      "v": 64
    },
    {
      "midi": 61,
      "hit": false,
      "t": 35480.29004296876,
      "d": 1051.6301718750037,
      "v": 61
    },
    {
      "midi": 73,
      "hit": false,
      "t": 35480.29004296876,
      "d": 1051.6301718750037,
      "v": 75
    },
    {
      "midi": 42,
      "hit": false,
      "t": 35480.290042968845,
      "d": 260.35998925781314,
      "v": 69
    },
    {
      "midi": 54,
      "hit": false,
      "t": 35756.44486523447,
      "d": 102.41165917968465,
      "v": 52
    },
    {
      "midi": 54,
      "hit": false,
      "t": 35883.31304003916,
      "d": 139.09643261718884,
      "v": 52
    },
    {
      "midi": 42,
      "hit": false,
      "t": 36015.27632226572,
      "d": 241.5080917968735,
      "v": 65
    },
    {
      "midi": 54,
      "hit": false,
      "t": 36272.57924707041,
      "d": 244.05564550781128,
      "v": 64
    },
    {
      "midi": 57,
      "hit": false,
      "t": 36532.42972558595,
      "d": 385.6996318359379,
      "v": 59
    },
    {
      "midi": 69,
      "hit": false,
      "t": 36532.42972558595,
      "d": 385.6996318359379,
      "v": 73
    },
    {
      "midi": 42,
      "hit": false,
      "t": 36532.42972558604,
      "d": 244.05564550781128,
      "v": 67
    },
    {
      "midi": 54,
      "hit": false,
      "t": 36792.28020410166,
      "d": 101.90214843749709,
      "v": 52
    },
    {
      "midi": 59,
      "hit": false,
      "t": 36918.638868164075,
      "d": 122.79208886718698,
      "v": 56
    },
    {
      "midi": 71,
      "hit": false,
      "t": 36918.638868164075,
      "d": 122.79208886718698,
      "v": 70
    },
    {
      "midi": 54,
      "hit": false,
      "t": 36918.63886816416,
      "d": 138.07741113281372,
      "v": 52
    },
    {
      "midi": 61,
      "hit": false,
      "t": 37049.58312890626,
      "d": 241.5080917968735,
      "v": 57
    },
    {
      "midi": 73,
      "hit": false,
      "t": 37049.58312890626,
      "d": 241.5080917968735,
      "v": 71
    },
    {
      "midi": 42,
      "hit": false,
      "t": 37049.58312890635,
      "d": 241.5080917968735,
      "v": 65
    },
    {
      "midi": 57,
      "hit": false,
      "t": 37306.88605371095,
      "d": 242.5271132812486,
      "v": 56
    },
    {
      "midi": 69,
      "hit": false,
      "t": 37306.88605371095,
      "d": 242.5271132812486,
      "v": 70
    },
    {
      "midi": 54,
      "hit": false,
      "t": 37306.88605371104,
      "d": 242.5271132812486,
      "v": 64
    },
    {
      "midi": 59,
      "hit": false,
      "t": 37567.24604296876,
      "d": 791.7796933593781,
      "v": 61
    },
    {
      "midi": 71,
      "hit": false,
      "t": 37567.24604296876,
      "d": 791.7796933593781,
      "v": 75
    },
    {
      "midi": 40,
      "hit": false,
      "t": 37567.24604296885,
      "d": 260.35998925781314,
      "v": 68
    },
    {
      "midi": 52,
      "hit": false,
      "t": 37843.40086523448,
      "d": 102.41165917968465,
      "v": 52
    },
    {
      "midi": 52,
      "hit": false,
      "t": 37970.269040039166,
      "d": 139.09643261718884,
      "v": 52
    },
    {
      "midi": 40,
      "hit": false,
      "t": 38102.23232226573,
      "d": 241.5080917968735,
      "v": 64
    },
    {
      "midi": 57,
      "hit": false,
      "t": 38359.53524707033,
      "d": 118.20649218749895,
      "v": 56
    },
    {
      "midi": 69,
      "hit": false,
      "t": 38359.53524707033,
      "d": 118.20649218749895,
      "v": 70
    },
    {
      "midi": 52,
      "hit": false,
      "t": 38359.53524707042,
      "d": 244.05564550781128,
      "v": 64
    },
    {
      "midi": 59,
      "hit": false,
      "t": 38485.89391113283,
      "d": 125.33964257812477,
      "v": 56
    },
    {
      "midi": 71,
      "hit": false,
      "t": 38485.89391113283,
      "d": 125.33964257812477,
      "v": 70
    },
    {
      "midi": 61,
      "hit": false,
      "t": 38619.385725585955,
      "d": 773.9468173828136,
      "v": 59
    },
    {
      "midi": 73,
      "hit": false,
      "t": 38619.385725585955,
      "d": 773.9468173828136,
      "v": 73
    },
    {
      "midi": 42,
      "hit": false,
      "t": 38619.38572558604,
      "d": 244.05564550781128,
      "v": 67
    },
    {
      "midi": 54,
      "hit": false,
      "t": 38879.23620410167,
      "d": 101.90214843749709,
      "v": 52
    },
    {
      "midi": 54,
      "hit": false,
      "t": 39005.59486816417,
      "d": 138.07741113281372,
      "v": 52
    },
    {
      "midi": 42,
      "hit": false,
      "t": 39136.539128906355,
      "d": 241.5080917968735,
      "v": 65
    },
    {
      "midi": 59,
      "hit": false,
      "t": 39393.842053710956,
      "d": 118.20649218749895,
      "v": 56
    },
    {
      "midi": 71,
      "hit": false,
      "t": 39393.842053710956,
      "d": 118.20649218749895,
      "v": 70
    },
    {
      "midi": 54,
      "hit": false,
      "t": 39393.84205371104,
      "d": 242.5271132812486,
      "v": 64
    },
    {
      "midi": 61,
      "hit": false,
      "t": 39520.200717773456,
      "d": 123.81111035156209,
      "v": 56
    },
    {
      "midi": 73,
      "hit": false,
      "t": 39520.200717773456,
      "d": 123.81111035156209,
      "v": 70
    },
    {
      "midi": 62,
      "hit": false,
      "t": 39654.20204296877,
      "d": 791.7796933593781,
      "v": 61
    },
    {
      "midi": 74,
      "hit": false,
      "t": 39654.20204296877,
      "d": 791.7796933593781,
      "v": 75
    },
    {
      "midi": 43,
      "hit": false,
      "t": 39654.20204296886,
      "d": 260.35998925781314,
      "v": 69
    },
    {
      "midi": 55,
      "hit": false,
      "t": 39930.356865234484,
      "d": 102.41165917968465,
      "v": 52
    },
    {
      "midi": 55,
      "hit": false,
      "t": 40057.22504003917,
      "d": 139.09643261718884,
      "v": 52
    },
    {
      "midi": 43,
      "hit": false,
      "t": 40189.188322265734,
      "d": 241.5080917968735,
      "v": 65
    },
    {
      "midi": 61,
      "hit": false,
      "t": 40446.491247070335,
      "d": 118.20649218749895,
      "v": 56
    },
    {
      "midi": 73,
      "hit": false,
      "t": 40446.491247070335,
      "d": 118.20649218749895,
      "v": 70
    },
    {
      "midi": 55,
      "hit": false,
      "t": 40446.49124707042,
      "d": 244.05564550781128,
      "v": 64
    },
    {
      "midi": 62,
      "hit": false,
      "t": 40572.849911132835,
      "d": 125.33964257812477,
      "v": 56
    },
    {
      "midi": 74,
      "hit": false,
      "t": 40572.849911132835,
      "d": 125.33964257812477,
      "v": 70
    },
    {
      "midi": 64,
      "hit": false,
      "t": 40706.34172558596,
      "d": 2086.4464892578108,
      "v": 59
    },
    {
      "midi": 76,
      "hit": false,
      "t": 40706.34172558596,
      "d": 2086.4464892578108,
      "v": 73
    },
    {
      "midi": 45,
      "hit": false,
      "t": 40706.34172558605,
      "d": 244.05564550781128,
      "v": 67
    },
    {
      "midi": 57,
      "hit": false,
      "t": 40966.19220410167,
      "d": 101.90214843749709,
      "v": 52
    },
    {
      "midi": 57,
      "hit": false,
      "t": 41092.55086816417,
      "d": 138.07741113281372,
      "v": 52
    },
    {
      "midi": 45,
      "hit": false,
      "t": 41223.49512890636,
      "d": 241.5080917968735,
      "v": 65
    },
    {
      "midi": 57,
      "hit": false,
      "t": 41480.79805371105,
      "d": 242.5271132812486,
      "v": 64
    },
    {
      "midi": 45,
      "hit": false,
      "t": 41741.15804296886,
      "d": 260.35998925781314,
      "v": 69
    },
    {
      "midi": 57,
      "hit": false,
      "t": 42017.31286523449,
      "d": 243.03662402343616,
      "v": 64
    },
    {
      "midi": 45,
      "hit": false,
      "t": 42276.14432226574,
      "d": 241.5080917968735,
      "v": 65
    },
    {
      "midi": 57,
      "hit": false,
      "t": 42533.44724707043,
      "d": 244.05564550781128,
      "v": 64
    },
    {
      "midi": 66,
      "hit": false,
      "t": 42793.29772558596,
      "d": 516.6438925781258,
      "v": 59
    },
    {
      "midi": 74,
      "hit": false,
      "t": 42793.29772558596,
      "d": 516.6438925781258,
      "v": 73
    },
    {
      "midi": 45,
      "hit": false,
      "t": 42793.29772558605,
      "d": 516.6438925781258,
      "v": 67
    },
    {
      "midi": 64,
      "hit": false,
      "t": 43310.45112890627,
      "d": 515.1153603515631,
      "v": 57
    },
    {
      "midi": 73,
      "hit": false,
      "t": 43310.45112890627,
      "d": 515.1153603515631,
      "v": 71
    },
    {
      "midi": 45,
      "hit": false,
      "t": 43310.45112890637,
      "d": 515.1153603515631,
      "v": 65
    },
    {
      "midi": 71,
      "hit": false,
      "t": 43828.11404296877,
      "d": 534.4767685546904,
      "v": 61
    },
    {
      "midi": 83,
      "hit": false,
      "t": 43828.11404296877,
      "d": 534.4767685546904,
      "v": 75
    },
    {
      "midi": 38,
      "hit": false,
      "t": 43828.11404296887,
      "d": 260.35998925781314,
      "v": 68
    },
    {
      "midi": 50,
      "hit": false,
      "t": 44104.268865234495,
      "d": 102.41165917968465,
      "v": 52
    },
    {
      "midi": 50,
      "hit": false,
      "t": 44231.13704003918,
      "d": 139.09643261718884,
      "v": 52
    },
    {
      "midi": 73,
      "hit": false,
      "t": 44363.10032226565,
      "d": 241.5080917968735,
      "v": 57
    },
    {
      "midi": 85,
      "hit": false,
      "t": 44363.10032226565,
      "d": 241.5080917968735,
      "v": 71
    },
    {
      "midi": 38,
      "hit": false,
      "t": 44363.100322265745,
      "d": 241.5080917968735,
      "v": 64
    },
    {
      "midi": 74,
      "hit": false,
      "t": 44620.40324707034,
      "d": 244.05564550781128,
      "v": 56
    },
    {
      "midi": 86,
      "hit": false,
      "t": 44620.40324707034,
      "d": 244.05564550781128,
      "v": 70
    },
    {
      "midi": 50,
      "hit": false,
      "t": 44620.40324707043,
      "d": 244.05564550781128,
      "v": 64
    },
    {
      "midi": 69,
      "hit": false,
      "t": 44880.253725585964,
      "d": 516.6438925781258,
      "v": 59
    },
    {
      "midi": 81,
      "hit": false,
      "t": 44880.253725585964,
      "d": 516.6438925781258,
      "v": 73
    },
    {
      "midi": 38,
      "hit": false,
      "t": 44880.25372558606,
      "d": 244.05564550781128,
      "v": 66
    },
    {
      "midi": 50,
      "hit": false,
      "t": 45140.104204101684,
      "d": 101.90214843749709,
      "v": 52
    },
    {
      "midi": 50,
      "hit": false,
      "t": 45266.462868164184,
      "d": 138.07741113281372,
      "v": 52
    },
    {
      "midi": 66,
      "hit": false,
      "t": 45397.40712890628,
      "d": 241.5080917968735,
      "v": 57
    },
    {
      "midi": 78,
      "hit": false,
      "t": 45397.40712890628,
      "d": 241.5080917968735,
      "v": 71
    },
    {
      "midi": 38,
      "hit": false,
      "t": 45397.40712890637,
      "d": 241.5080917968735,
      "v": 64
    },
    {
      "midi": 62,
      "hit": false,
      "t": 45654.710053710965,
      "d": 242.5271132812486,
      "v": 56
    },
    {
      "midi": 74,
      "hit": false,
      "t": 45654.710053710965,
      "d": 242.5271132812486,
      "v": 70
    },
    {
      "midi": 50,
      "hit": false,
      "t": 45654.71005371106,
      "d": 242.5271132812486,
      "v": 64
    },
    {
      "midi": 67,
      "hit": false,
      "t": 45915.07004296878,
      "d": 534.4767685546904,
      "v": 61
    },
    {
      "midi": 79,
      "hit": false,
      "t": 45915.07004296878,
      "d": 534.4767685546904,
      "v": 75
    },
    {
      "midi": 38,
      "hit": false,
      "t": 45915.07004296887,
      "d": 260.35998925781314,
      "v": 68
    },
    {
      "midi": 50,
      "hit": false,
      "t": 46191.2248652345,
      "d": 102.41165917968465,
      "v": 52
    },
    {
      "midi": 50,
      "hit": false,
      "t": 46318.09304003919,
      "d": 139.09643261718884,
      "v": 52
    },
    {
      "midi": 69,
      "hit": false,
      "t": 46450.05632226566,
      "d": 241.5080917968735,
      "v": 57
    },
    {
      "midi": 81,
      "hit": false,
      "t": 46450.05632226566,
      "d": 241.5080917968735,
      "v": 71
    },
    {
      "midi": 38,
      "hit": false,
      "t": 46450.05632226575,
      "d": 241.5080917968735,
      "v": 64
    },
    {
      "midi": 71,
      "hit": false,
      "t": 46707.359247070344,
      "d": 244.05564550781128,
      "v": 56
    },
    {
      "midi": 83,
      "hit": false,
      "t": 46707.359247070344,
      "d": 244.05564550781128,
      "v": 70
    },
    {
      "midi": 50,
      "hit": false,
      "t": 46707.35924707044,
      "d": 244.05564550781128,
      "v": 64
    },
    {
      "midi": 69,
      "hit": false,
      "t": 46967.20972558597,
      "d": 1032.2687636718765,
      "v": 59
    },
    {
      "midi": 81,
      "hit": false,
      "t": 46967.20972558597,
      "d": 1032.2687636718765,
      "v": 73
    },
    {
      "midi": 38,
      "hit": false,
      "t": 46967.209725586064,
      "d": 244.05564550781128,
      "v": 66
    },
    {
      "midi": 50,
      "hit": false,
      "t": 47227.06020410169,
      "d": 101.90214843749709,
      "v": 52
    },
    {
      "midi": 50,
      "hit": false,
      "t": 47353.41886816419,
      "d": 138.07741113281372,
      "v": 52
    },
    {
      "midi": 38,
      "hit": false,
      "t": 47484.36312890638,
      "d": 241.5080917968735,
      "v": 64
    },
    {
      "midi": 50,
      "hit": false,
      "t": 47741.666053711066,
      "d": 242.5271132812486,
      "v": 64
    },
    {
      "midi": 71,
      "hit": false,
      "t": 48002.026042968784,
      "d": 534.4767685546904,
      "v": 61
    },
    {
      "midi": 83,
      "hit": false,
      "t": 48002.026042968784,
      "d": 534.4767685546904,
      "v": 75
    },
    {
      "midi": 38,
      "hit": false,
      "t": 48002.02604296888,
      "d": 260.35998925781314,
      "v": 68
    },
    {
      "midi": 50,
      "hit": false,
      "t": 48278.180865234506,
      "d": 102.41165917968465,
      "v": 52
    },
    {
      "midi": 50,
      "hit": false,
      "t": 48405.049040039194,
      "d": 139.09643261718884,
      "v": 52
    },
    {
      "midi": 73,
      "hit": false,
      "t": 48537.01232226566,
      "d": 241.5080917968735,
      "v": 57
    },
    {
      "midi": 85,
      "hit": false,
      "t": 48537.01232226566,
      "d": 241.5080917968735,
      "v": 71
    },
    {
      "midi": 38,
      "hit": false,
      "t": 48537.01232226576,
      "d": 241.5080917968735,
      "v": 64
    },
    {
      "midi": 74,
      "hit": false,
      "t": 48794.31524707035,
      "d": 244.05564550781128,
      "v": 56
    },
    {
      "midi": 86,
      "hit": false,
      "t": 48794.31524707035,
      "d": 244.05564550781128,
      "v": 70
    },
    {
      "midi": 50,
      "hit": false,
      "t": 48794.315247070444,
      "d": 244.05564550781128,
      "v": 64
    },
    {
      "midi": 69,
      "hit": false,
      "t": 49054.165725585975,
      "d": 516.6438925781258,
      "v": 59
    },
    {
      "midi": 81,
      "hit": false,
      "t": 49054.165725585975,
      "d": 516.6438925781258,
      "v": 73
    },
    {
      "midi": 38,
      "hit": false,
      "t": 49054.16572558607,
      "d": 244.05564550781128,
      "v": 66
    },
    {
      "midi": 50,
      "hit": false,
      "t": 49314.016204101696,
      "d": 101.90214843749709,
      "v": 52
    },
    {
      "midi": 50,
      "hit": false,
      "t": 49440.374868164196,
      "d": 138.07741113281372,
      "v": 52
    },
    {
      "midi": 66,
      "hit": false,
      "t": 49571.31912890629,
      "d": 241.5080917968735,
      "v": 57
    },
    {
      "midi": 78,
      "hit": false,
      "t": 49571.31912890629,
      "d": 241.5080917968735,
      "v": 71
    },
    {
      "midi": 38,
      "hit": false,
      "t": 49571.31912890638,
      "d": 241.5080917968735,
      "v": 64
    },
    {
      "midi": 62,
      "hit": false,
      "t": 49828.62205371098,
      "d": 242.5271132812486,
      "v": 56
    },
    {
      "midi": 74,
      "hit": false,
      "t": 49828.62205371098,
      "d": 242.5271132812486,
      "v": 70
    },
    {
      "midi": 50,
      "hit": false,
      "t": 49828.62205371107,
      "d": 242.5271132812486,
      "v": 64
    },
    {
      "midi": 67,
      "hit": false,
      "t": 50088.98204296879,
      "d": 534.4767685546904,
      "v": 61
    },
    {
      "midi": 79,
      "hit": false,
      "t": 50088.98204296879,
      "d": 534.4767685546904,
      "v": 75
    },
    {
      "midi": 38,
      "hit": false,
      "t": 50088.982042968884,
      "d": 260.35998925781314,
      "v": 68
    },
    {
      "midi": 50,
      "hit": false,
      "t": 50365.13686523451,
      "d": 102.41165917968465,
      "v": 52
    },
    {
      "midi": 50,
      "hit": false,
      "t": 50492.0050400392,
      "d": 139.09643261718884,
      "v": 52
    },
    {
      "midi": 66,
      "hit": false,
      "t": 50623.96832226567,
      "d": 241.5080917968735,
      "v": 57
    },
    {
      "midi": 78,
      "hit": false,
      "t": 50623.96832226567,
      "d": 241.5080917968735,
      "v": 71
    },
    {
      "midi": 38,
      "hit": false,
      "t": 50623.96832226576,
      "d": 241.5080917968735,
      "v": 64
    },
    {
      "midi": 64,
      "hit": false,
      "t": 50881.271247070355,
      "d": 244.05564550781128,
      "v": 56
    },
    {
      "midi": 76,
      "hit": false,
      "t": 50881.271247070355,
      "d": 244.05564550781128,
      "v": 70
    },
    {
      "midi": 50,
      "hit": false,
      "t": 50881.27124707045,
      "d": 244.05564550781128,
      "v": 64
    },
    {
      "midi": 62,
      "hit": false,
      "t": 51141.12172558598,
      "d": 1032.2687636718765,
      "v": 59
    },
    {
      "midi": 74,
      "hit": false,
      "t": 51141.12172558598,
      "d": 1032.2687636718765,
      "v": 73
    },
    {
      "midi": 38,
      "hit": false,
      "t": 51141.121725586076,
      "d": 244.05564550781128,
      "v": 66
    },
    {
      "midi": 50,
      "hit": false,
      "t": 51400.9722041017,
      "d": 101.90214843749709,
      "v": 52
    },
    {
      "midi": 50,
      "hit": false,
      "t": 51527.3308681642,
      "d": 138.07741113281372,
      "v": 52
    },
    {
      "midi": 38,
      "hit": false,
      "t": 51658.27512890639,
      "d": 241.5080917968735,
      "v": 64
    },
    {
      "midi": 50,
      "hit": false,
      "t": 51915.57805371108,
      "d": 242.5271132812486,
      "v": 64
    },
    {
      "midi": 64,
      "hit": false,
      "t": 52175.938042968795,
      "d": 244.05564550781128,
      "v": 49
    },
    {
      "midi": 76,
      "hit": false,
      "t": 52175.938042968795,
      "d": 244.05564550781128,
      "v": 63
    },
    {
      "midi": 38,
      "hit": false,
      "t": 52175.93804296889,
      "d": 260.35998925781314,
      "v": 68
    },
    {
      "midi": 76,
      "hit": false,
      "t": 52452.092865234416,
      "d": 226.7322802734343,
      "v": 58
    },
    {
      "midi": 64,
      "hit": false,
      "t": 52452.092865234416,
      "d": 274.11677929686994,
      "v": 44
    },
    {
      "midi": 50,
      "hit": false,
      "t": 52452.09286523452,
      "d": 102.41165917968465,
      "v": 52
    },
    {
      "midi": 50,
      "hit": false,
      "t": 52578.961040039205,
      "d": 139.09643261718884,
      "v": 52
    },
    {
      "midi": 66,
      "hit": false,
      "t": 52710.92432226566,
      "d": 106.99725585937995,
      "v": 45
    },
    {
      "midi": 78,
      "hit": false,
      "t": 52710.92432226566,
      "d": 106.99725585937995,
      "v": 59
    },
    {
      "midi": 38,
      "hit": false,
      "t": 52710.92432226577,
      "d": 241.5080917968735,
      "v": 64
    },
    {
      "midi": 78,
      "hit": false,
      "t": 52842.37809375004,
      "d": 101.39263769530953,
      "v": 58
    },
    {
      "midi": 66,
      "hit": false,
      "t": 52842.37809375004,
      "d": 132.98230371093814,
      "v": 44
    },
    {
      "midi": 50,
      "hit": false,
      "t": 52968.227247070456,
      "d": 244.05564550781128,
      "v": 64
    },
    {
      "midi": 62,
      "hit": false,
      "t": 53094.585911132854,
      "d": 235.3939628906228,
      "v": 44
    },
    {
      "midi": 74,
      "hit": false,
      "t": 53094.585911132854,
      "d": 235.3939628906228,
      "v": 58
    },
    {
      "midi": 38,
      "hit": false,
      "t": 53228.07772558608,
      "d": 244.05564550781128,
      "v": 66
    },
    {
      "midi": 74,
      "hit": false,
      "t": 53362.079050781285,
      "d": 220.10864062500332,
      "v": 58
    },
    {
      "midi": 62,
      "hit": false,
      "t": 53362.079050781285,
      "d": 267.49313964843896,
      "v": 44
    },
    {
      "midi": 50,
      "hit": false,
      "t": 53487.92820410171,
      "d": 101.90214843749709,
      "v": 52
    },
    {
      "midi": 57,
      "hit": false,
      "t": 53614.2868681641,
      "d": 122.79208886718698,
      "v": 56
    },
    {
      "midi": 69,
      "hit": false,
      "t": 53614.2868681641,
      "d": 122.79208886718698,
      "v": 70
    },
    {
      "midi": 50,
      "hit": false,
      "t": 53614.28686816421,
      "d": 138.07741113281372,
      "v": 52
    },
    {
      "midi": 59,
      "hit": false,
      "t": 53745.231128906285,
      "d": 241.5080917968735,
      "v": 57
    },
    {
      "midi": 71,
      "hit": false,
      "t": 53745.231128906285,
      "d": 241.5080917968735,
      "v": 71
    },
    {
      "midi": 38,
      "hit": false,
      "t": 53745.231128906395,
      "d": 241.5080917968735,
      "v": 64
    },
    {
      "midi": 62,
      "hit": false,
      "t": 54002.53405371097,
      "d": 242.5271132812486,
      "v": 56
    },
    {
      "midi": 74,
      "hit": false,
      "t": 54002.53405371097,
      "d": 242.5271132812486,
      "v": 70
    },
    {
      "midi": 50,
      "hit": false,
      "t": 54002.53405371108,
      "d": 242.5271132812486,
      "v": 64
    },
    {
      "midi": 64,
      "hit": false,
      "t": 54262.89404296879,
      "d": 260.35998925781314,
      "v": 61
    },
    {
      "midi": 76,
      "hit": false,
      "t": 54262.89404296879,
      "d": 260.35998925781314,
      "v": 75
    },
    {
      "midi": 38,
      "hit": false,
      "t": 54262.894042968896,
      "d": 260.35998925781314,
      "v": 68
    },
    {
      "midi": 64,
      "hit": false,
      "t": 54539.048865234414,
      "d": 243.03662402343616,
      "v": 56
    },
    {
      "midi": 76,
      "hit": false,
      "t": 54539.048865234414,
      "d": 243.03662402343616,
      "v": 70
    },
    {
      "midi": 50,
      "hit": false,
      "t": 54539.04886523452,
      "d": 102.41165917968465,
      "v": 52
    },
    {
      "midi": 50,
      "hit": false,
      "t": 54665.91704003921,
      "d": 139.09643261718884,
      "v": 52
    },
    {
      "midi": 66,
      "hit": false,
      "t": 54797.880322265664,
      "d": 106.99725585937267,
      "v": 45
    },
    {
      "midi": 78,
      "hit": false,
      "t": 54797.880322265664,
      "d": 106.99725585937267,
      "v": 59
    },
    {
      "midi": 38,
      "hit": false,
      "t": 54797.88032226577,
      "d": 241.5080917968735,
      "v": 64
    },
    {
      "midi": 78,
      "hit": false,
      "t": 54929.33409375004,
      "d": 101.39263769530953,
      "v": 58
    },
    {
      "midi": 66,
      "hit": false,
      "t": 54929.33409375004,
      "d": 132.98230371093814,
      "v": 44
    },
    {
      "midi": 50,
      "hit": false,
      "t": 55055.18324707046,
      "d": 244.05564550781128,
      "v": 64
    },
    {
      "midi": 62,
      "hit": false,
      "t": 55181.54191113285,
      "d": 251.69830664062465,
      "v": 56
    },
    {
      "midi": 74,
      "hit": false,
      "t": 55181.54191113285,
      "d": 251.69830664062465,
      "v": 70
    },
    {
      "midi": 38,
      "hit": false,
      "t": 55315.03372558609,
      "d": 244.05564550781128,
      "v": 66
    },
    {
      "midi": 50,
      "hit": false,
      "t": 55574.88420410171,
      "d": 101.90214843749709,
      "v": 52
    },
    {
      "midi": 50,
      "hit": false,
      "t": 55701.24286816421,
      "d": 138.07741113281372,
      "v": 52
    },
    {
      "midi": 38,
      "hit": false,
      "t": 55832.1871289064,
      "d": 241.5080917968735,
      "v": 64
    },
    {
      "midi": 50,
      "hit": false,
      "t": 56089.49005371109,
      "d": 242.5271132812486,
      "v": 64
    },
    {
      "midi": 64,
      "hit": false,
      "t": 56349.85004296879,
      "d": 244.05564550781128,
      "v": 49
    },
    {
      "midi": 76,
      "hit": false,
      "t": 56349.85004296879,
      "d": 244.05564550781128,
      "v": 63
    },
    {
      "midi": 38,
      "hit": false,
      "t": 56349.8500429689,
      "d": 260.35998925781314,
      "v": 68
    },
    {
      "midi": 76,
      "hit": false,
      "t": 56626.00486523441,
      "d": 226.7322802734343,
      "v": 58
    },
    {
      "midi": 64,
      "hit": false,
      "t": 56626.00486523441,
      "d": 274.11677929686994,
      "v": 44
    },
    {
      "midi": 50,
      "hit": false,
      "t": 56626.00486523453,
      "d": 102.41165917968465,
      "v": 52
    },
    {
      "midi": 50,
      "hit": false,
      "t": 56752.873040039216,
      "d": 139.09643261718884,
      "v": 52
    },
    {
      "midi": 66,
      "hit": false,
      "t": 56884.836322265655,
      "d": 106.99725585937995,
      "v": 45
    },
    {
      "midi": 78,
      "hit": false,
      "t": 56884.836322265655,
      "d": 106.99725585937995,
      "v": 59
    },
    {
      "midi": 38,
      "hit": false,
      "t": 56884.83632226578,
      "d": 241.5080917968735,
      "v": 64
    },
    {
      "midi": 78,
      "hit": false,
      "t": 57016.29009375004,
      "d": 101.39263769530953,
      "v": 58
    },
    {
      "midi": 66,
      "hit": false,
      "t": 57016.29009375004,
      "d": 132.98230371093814,
      "v": 44
    },
    {
      "midi": 50,
      "hit": false,
      "t": 57142.13924707047,
      "d": 244.05564550781128,
      "v": 64
    },
    {
      "midi": 62,
      "hit": false,
      "t": 57268.49791113285,
      "d": 235.3939628906228,
      "v": 44
    },
    {
      "midi": 74,
      "hit": false,
      "t": 57268.49791113285,
      "d": 235.3939628906228,
      "v": 58
    },
    {
      "midi": 38,
      "hit": false,
      "t": 57401.98972558609,
      "d": 244.05564550781128,
      "v": 66
    },
    {
      "midi": 74,
      "hit": false,
      "t": 57535.99105078128,
      "d": 220.10864062500332,
      "v": 58
    },
    {
      "midi": 62,
      "hit": false,
      "t": 57535.99105078128,
      "d": 267.49313964843896,
      "v": 44
    },
    {
      "midi": 50,
      "hit": false,
      "t": 57661.84020410172,
      "d": 101.90214843749709,
      "v": 52
    },
    {
      "midi": 57,
      "hit": false,
      "t": 57788.198868164094,
      "d": 122.79208886718698,
      "v": 56
    },
    {
      "midi": 69,
      "hit": false,
      "t": 57788.198868164094,
      "d": 122.79208886718698,
      "v": 70
    },
    {
      "midi": 50,
      "hit": false,
      "t": 57788.19886816422,
      "d": 138.07741113281372,
      "v": 52
    },
    {
      "midi": 59,
      "hit": false,
      "t": 57919.14312890628,
      "d": 241.5080917968735,
      "v": 57
    },
    {
      "midi": 71,
      "hit": false,
      "t": 57919.14312890628,
      "d": 241.5080917968735,
      "v": 71
    },
    {
      "midi": 38,
      "hit": false,
      "t": 57919.143128906406,
      "d": 241.5080917968735,
      "v": 64
    },
    {
      "midi": 62,
      "hit": false,
      "t": 58176.44605371097,
      "d": 242.5271132812486,
      "v": 56
    },
    {
      "midi": 74,
      "hit": false,
      "t": 58176.44605371097,
      "d": 242.5271132812486,
      "v": 70
    },
    {
      "midi": 50,
      "hit": false,
      "t": 58176.44605371109,
      "d": 242.5271132812486,
      "v": 64
    },
    {
      "midi": 67,
      "hit": false,
      "t": 58436.80604296878,
      "d": 402.5134863281273,
      "v": 61
    },
    {
      "midi": 79,
      "hit": false,
      "t": 58436.80604296878,
      "d": 402.5134863281273,
      "v": 75
    },
    {
      "midi": 38,
      "hit": false,
      "t": 58436.80604296891,
      "d": 260.35998925781314,
      "v": 68
    },
    {
      "midi": 50,
      "hit": false,
      "t": 58712.960865234534,
      "d": 102.41165917968465,
      "v": 52
    },
    {
      "midi": 66,
      "hit": false,
      "t": 58839.8290400391,
      "d": 123.81111035156209,
      "v": 56
    },
    {
      "midi": 78,
      "hit": false,
      "t": 58839.8290400391,
      "d": 123.81111035156209,
      "v": 70
    },
    {
      "midi": 50,
      "hit": false,
      "t": 58839.82904003922,
      "d": 139.09643261718884,
      "v": 52
    },
    {
      "midi": 64,
      "hit": false,
      "t": 58971.79232226566,
      "d": 241.5080917968735,
      "v": 57
    },
    {
      "midi": 76,
      "hit": false,
      "t": 58971.79232226566,
      "d": 241.5080917968735,
      "v": 71
    },
    {
      "midi": 38,
      "hit": false,
      "t": 58971.792322265785,
      "d": 241.5080917968735,
      "v": 64
    },
    {
      "midi": 62,
      "hit": false,
      "t": 59229.09524707035,
      "d": 101.90214843749709,
      "v": 44
    },
    {
      "midi": 74,
      "hit": false,
      "t": 59229.09524707035,
      "d": 101.90214843749709,
      "v": 58
    },
    {
      "midi": 50,
      "hit": false,
      "t": 59229.09524707047,
      "d": 244.05564550781128,
      "v": 64
    },
    {
      "midi": 74,
      "hit": false,
      "t": 59355.45391113285,
      "d": 109.0352988281229,
      "v": 58
    },
    {
      "midi": 62,
      "hit": false,
      "t": 59355.45391113285,
      "d": 140.6249648437515,
      "v": 44
    },
    {
      "midi": 38,
      "hit": false,
      "t": 59488.9457255861,
      "d": 244.05564550781128,
      "v": 66
    },
    {
      "midi": 50,
      "hit": false,
      "t": 59748.79620410172,
      "d": 101.90214843749709,
      "v": 52
    },
    {
      "midi": 50,
      "hit": false,
      "t": 59875.15486816422,
      "d": 138.07741113281372,
      "v": 52
    },
    {
      "midi": 38,
      "hit": false,
      "t": 60006.09912890641,
      "d": 241.5080917968735,
      "v": 64
    },
    {
      "midi": 50,
      "hit": false,
      "t": 60263.4020537111,
      "d": 242.5271132812486,
      "v": 64
    },
    {
      "midi": 64,
      "hit": false,
      "t": 60523.76204296879,
      "d": 244.05564550781128,
      "v": 49
    },
    {
      "midi": 76,
      "hit": false,
      "t": 60523.76204296879,
      "d": 244.05564550781128,
      "v": 63
    },
    {
      "midi": 38,
      "hit": false,
      "t": 60523.76204296891,
      "d": 260.35998925781314,
      "v": 68
    },
    {
      "midi": 76,
      "hit": false,
      "t": 60799.91686523441,
      "d": 226.7322802734343,
      "v": 58
    },
    {
      "midi": 64,
      "hit": false,
      "t": 60799.91686523441,
      "d": 274.11677929686994,
      "v": 44
    },
    {
      "midi": 50,
      "hit": false,
      "t": 60799.91686523454,
      "d": 102.41165917968465,
      "v": 52
    },
    {
      "midi": 50,
      "hit": false,
      "t": 60926.78504003923,
      "d": 139.09643261718884,
      "v": 52
    },
    {
      "midi": 66,
      "hit": false,
      "t": 61058.74832226565,
      "d": 106.99725585937995,
      "v": 45
    },
    {
      "midi": 78,
      "hit": false,
      "t": 61058.74832226565,
      "d": 106.99725585937995,
      "v": 59
    },
    {
      "midi": 38,
      "hit": false,
      "t": 61058.74832226579,
      "d": 241.5080917968735,
      "v": 64
    },
    {
      "midi": 78,
      "hit": false,
      "t": 61190.202093750035,
      "d": 101.39263769530953,
      "v": 58
    },
    {
      "midi": 66,
      "hit": false,
      "t": 61190.202093750035,
      "d": 132.98230371093814,
      "v": 44
    },
    {
      "midi": 50,
      "hit": false,
      "t": 61316.05124707048,
      "d": 244.05564550781128,
      "v": 64
    },
    {
      "midi": 62,
      "hit": false,
      "t": 61442.40991113285,
      "d": 235.3939628906228,
      "v": 44
    },
    {
      "midi": 74,
      "hit": false,
      "t": 61442.40991113285,
      "d": 235.3939628906228,
      "v": 58
    },
    {
      "midi": 38,
      "hit": false,
      "t": 61575.9017255861,
      "d": 244.05564550781128,
      "v": 66
    },
    {
      "midi": 74,
      "hit": false,
      "t": 61709.90305078128,
      "d": 220.10864062500332,
      "v": 58
    },
    {
      "midi": 62,
      "hit": false,
      "t": 61709.90305078128,
      "d": 267.49313964843896,
      "v": 44
    },
    {
      "midi": 50,
      "hit": false,
      "t": 61835.75220410173,
      "d": 101.90214843749709,
      "v": 52
    },
    {
      "midi": 57,
      "hit": false,
      "t": 61962.11086816409,
      "d": 122.79208886718698,
      "v": 56
    },
    {
      "midi": 69,
      "hit": false,
      "t": 61962.11086816409,
      "d": 122.79208886718698,
      "v": 70
    },
    {
      "midi": 50,
      "hit": false,
      "t": 61962.11086816423,
      "d": 138.07741113281372,
      "v": 52
    },
    {
      "midi": 59,
      "hit": false,
      "t": 62093.05512890628,
      "d": 241.5080917968735,
      "v": 57
    },
    {
      "midi": 71,
      "hit": false,
      "t": 62093.05512890628,
      "d": 241.5080917968735,
      "v": 71
    },
    {
      "midi": 38,
      "hit": false,
      "t": 62093.05512890642,
      "d": 241.5080917968735,
      "v": 64
    },
    {
      "midi": 62,
      "hit": false,
      "t": 62350.35805371097,
      "d": 242.5271132812486,
      "v": 56
    },
    {
      "midi": 74,
      "hit": false,
      "t": 62350.35805371097,
      "d": 242.5271132812486,
      "v": 70
    },
    {
      "midi": 50,
      "hit": false,
      "t": 62350.358053711105,
      "d": 242.5271132812486,
      "v": 64
    },
    {
      "midi": 64,
      "hit": false,
      "t": 62610.71804296878,
      "d": 260.35998925781314,
      "v": 61
    },
    {
      "midi": 76,
      "hit": false,
      "t": 62610.71804296878,
      "d": 260.35998925781314,
      "v": 75
    },
    {
      "midi": 38,
      "hit": false,
      "t": 62610.71804296892,
      "d": 260.35998925781314,
      "v": 68
    },
    {
      "midi": 64,
      "hit": false,
      "t": 62886.87286523441,
      "d": 243.03662402343616,
      "v": 56
    },
    {
      "midi": 76,
      "hit": false,
      "t": 62886.87286523441,
      "d": 243.03662402343616,
      "v": 70
    },
    {
      "midi": 50,
      "hit": false,
      "t": 62886.872865234545,
      "d": 102.41165917968465,
      "v": 52
    },
    {
      "midi": 50,
      "hit": false,
      "t": 63013.74104003923,
      "d": 139.09643261718884,
      "v": 52
    },
    {
      "midi": 66,
      "hit": false,
      "t": 63145.70432226566,
      "d": 106.99725585937267,
      "v": 45
    },
    {
      "midi": 78,
      "hit": false,
      "t": 63145.70432226566,
      "d": 106.99725585937267,
      "v": 59
    },
    {
      "midi": 38,
      "hit": false,
      "t": 63145.704322265796,
      "d": 241.5080917968735,
      "v": 64
    },
    {
      "midi": 78,
      "hit": false,
      "t": 63277.15809375003,
      "d": 101.39263769530953,
      "v": 58
    },
    {
      "midi": 66,
      "hit": false,
      "t": 63277.15809375003,
      "d": 132.98230371093814,
      "v": 44
    },
    {
      "midi": 50,
      "hit": false,
      "t": 63403.00724707048,
      "d": 244.05564550781128,
      "v": 64
    },
    {
      "midi": 62,
      "hit": false,
      "t": 63529.365911132845,
      "d": 251.69830664062465,
      "v": 56
    },
    {
      "midi": 74,
      "hit": false,
      "t": 63529.365911132845,
      "d": 251.69830664062465,
      "v": 70
    },
    {
      "midi": 38,
      "hit": false,
      "t": 63662.85772558611,
      "d": 244.05564550781128,
      "v": 66
    },
    {
      "midi": 50,
      "hit": false,
      "t": 63922.708204101735,
      "d": 101.90214843749709,
      "v": 52
    },
    {
      "midi": 50,
      "hit": false,
      "t": 64049.066868164235,
      "d": 138.07741113281372,
      "v": 52
    },
    {
      "midi": 38,
      "hit": false,
      "t": 64180.01112890642,
      "d": 241.5080917968735,
      "v": 64
    },
    {
      "midi": 50,
      "hit": false,
      "t": 64437.31405371111,
      "d": 242.5271132812486,
      "v": 64
    },
    {
      "midi": 64,
      "hit": false,
      "t": 64697.674042968785,
      "d": 244.05564550781128,
      "v": 49
    },
    {
      "midi": 76,
      "hit": false,
      "t": 64697.674042968785,
      "d": 244.05564550781128,
      "v": 63
    },
    {
      "midi": 38,
      "hit": false,
      "t": 64697.67404296892,
      "d": 260.35998925781314,
      "v": 68
    },
    {
      "midi": 76,
      "hit": false,
      "t": 64973.828865234405,
      "d": 226.7322802734343,
      "v": 58
    },
    {
      "midi": 64,
      "hit": false,
      "t": 64973.828865234405,
      "d": 274.11677929686994,
      "v": 44
    },
    {
      "midi": 50,
      "hit": false,
      "t": 64973.82886523455,
      "d": 102.41165917968465,
      "v": 52
    },
    {
      "midi": 50,
      "hit": false,
      "t": 65100.69704003924,
      "d": 139.09643261718884,
      "v": 52
    },
    {
      "midi": 66,
      "hit": false,
      "t": 65232.66032226565,
      "d": 106.99725585937995,
      "v": 45
    },
    {
      "midi": 78,
      "hit": false,
      "t": 65232.66032226565,
      "d": 106.99725585937995,
      "v": 59
    },
    {
      "midi": 38,
      "hit": false,
      "t": 65232.6603222658,
      "d": 241.5080917968735,
      "v": 64
    },
    {
      "midi": 78,
      "hit": false,
      "t": 65364.11409375003,
      "d": 101.39263769530953,
      "v": 58
    },
    {
      "midi": 66,
      "hit": false,
      "t": 65364.11409375003,
      "d": 132.98230371093814,
      "v": 44
    },
    {
      "midi": 50,
      "hit": false,
      "t": 65489.96324707049,
      "d": 244.05564550781128,
      "v": 64
    },
    {
      "midi": 62,
      "hit": false,
      "t": 65616.32191113285,
      "d": 235.3939628906228,
      "v": 44
    },
    {
      "midi": 74,
      "hit": false,
      "t": 65616.32191113285,
      "d": 235.3939628906228,
      "v": 58
    },
    {
      "midi": 38,
      "hit": false,
      "t": 65749.81372558611,
      "d": 244.05564550781855,
      "v": 66
    },
    {
      "midi": 74,
      "hit": false,
      "t": 65883.81505078128,
      "d": 220.10864062499604,
      "v": 58
    },
    {
      "midi": 62,
      "hit": false,
      "t": 65883.81505078128,
      "d": 267.4931396484317,
      "v": 44
    },
    {
      "midi": 50,
      "hit": false,
      "t": 66009.66420410173,
      "d": 101.90214843749709,
      "v": 52
    },
    {
      "midi": 57,
      "hit": false,
      "t": 66136.02286816409,
      "d": 122.79208886719425,
      "v": 56
    },
    {
      "midi": 69,
      "hit": false,
      "t": 66136.02286816409,
      "d": 122.79208886719425,
      "v": 70
    },
    {
      "midi": 50,
      "hit": false,
      "t": 66136.02286816423,
      "d": 138.07741113280645,
      "v": 52
    },
    {
      "midi": 59,
      "hit": false,
      "t": 66266.96712890628,
      "d": 241.5080917968735,
      "v": 57
    },
    {
      "midi": 71,
      "hit": false,
      "t": 66266.96712890628,
      "d": 241.5080917968735,
      "v": 71
    },
    {
      "midi": 38,
      "hit": false,
      "t": 66266.96712890641,
      "d": 241.5080917968735,
      "v": 64
    },
    {
      "midi": 62,
      "hit": false,
      "t": 66524.27005371096,
      "d": 242.5271132812486,
      "v": 56
    },
    {
      "midi": 74,
      "hit": false,
      "t": 66524.27005371096,
      "d": 242.5271132812486,
      "v": 70
    },
    {
      "midi": 50,
      "hit": false,
      "t": 66524.2700537111,
      "d": 242.5271132812486,
      "v": 64
    },
    {
      "midi": 67,
      "hit": false,
      "t": 66784.63004296877,
      "d": 402.5134863281273,
      "v": 61
    },
    {
      "midi": 79,
      "hit": false,
      "t": 66784.63004296877,
      "d": 402.5134863281273,
      "v": 75
    },
    {
      "midi": 38,
      "hit": false,
      "t": 66784.6300429689,
      "d": 260.35998925780586,
      "v": 68
    },
    {
      "midi": 50,
      "hit": false,
      "t": 67060.78486523451,
      "d": 102.41165917969192,
      "v": 52
    },
    {
      "midi": 66,
      "hit": false,
      "t": 67187.65304003908,
      "d": 123.81111035156937,
      "v": 56
    },
    {
      "midi": 78,
      "hit": false,
      "t": 67187.65304003908,
      "d": 123.81111035156937,
      "v": 70
    },
    {
      "midi": 50,
      "hit": false,
      "t": 67187.65304003921,
      "d": 139.09643261718156,
      "v": 52
    },
    {
      "midi": 64,
      "hit": false,
      "t": 67319.61632226565,
      "d": 241.5080917968735,
      "v": 57
    },
    {
      "midi": 76,
      "hit": false,
      "t": 67319.61632226565,
      "d": 241.5080917968735,
      "v": 71
    },
    {
      "midi": 38,
      "hit": false,
      "t": 67319.61632226576,
      "d": 241.5080917968735,
      "v": 64
    },
    {
      "midi": 62,
      "hit": false,
      "t": 67576.91924707033,
      "d": 101.90214843749709,
      "v": 44
    },
    {
      "midi": 74,
      "hit": false,
      "t": 67576.91924707033,
      "d": 101.90214843749709,
      "v": 58
    },
    {
      "midi": 50,
      "hit": false,
      "t": 67576.91924707044,
      "d": 244.05564550781855,
      "v": 64
    },
    {
      "midi": 74,
      "hit": false,
      "t": 67703.27791113283,
      "d": 109.0352988281229,
      "v": 54
    },
    {
      "midi": 62,
      "hit": false,
      "t": 67703.27791113283,
      "d": 140.6249648437515,
      "v": 44
    },
    {
      "midi": 38,
      "hit": false,
      "t": 67836.76972558607,
      "d": 244.05564550781855,
      "v": 66
    },
    {
      "midi": 50,
      "hit": false,
      "t": 68096.6202041017,
      "d": 101.90214843749709,
      "v": 52
    },
    {
      "midi": 50,
      "hit": false,
      "t": 68222.9788681642,
      "d": 138.07741113280645,
      "v": 52
    },
    {
      "midi": 38,
      "hit": false,
      "t": 68353.92312890638,
      "d": 241.5080917968735,
      "v": 64
    },
    {
      "midi": 50,
      "hit": false,
      "t": 68611.22605371106,
      "d": 242.5271132812486,
      "v": 64
    },
    {
      "midi": 62,
      "hit": false,
      "t": 68871.58604296876,
      "d": 1296.1953281250026,
      "v": 61
    },
    {
      "midi": 74,
      "hit": false,
      "t": 68871.58604296876,
      "d": 1296.1953281250026,
      "v": 71
    },
    {
      "midi": 43,
      "hit": false,
      "t": 68871.58604296886,
      "d": 260.35998925780586,
      "v": 69
    },
    {
      "midi": 55,
      "hit": false,
      "t": 69147.74086523447,
      "d": 102.41165917969192,
      "v": 52
    },
    {
      "midi": 55,
      "hit": false,
      "t": 69274.60904003917,
      "d": 139.09643261718156,
      "v": 52
    },
    {
      "midi": 43,
      "hit": false,
      "t": 69406.57232226573,
      "d": 241.5080917968735,
      "v": 65
    },
    {
      "midi": 55,
      "hit": false,
      "t": 69663.8752470704,
      "d": 244.05564550781855,
      "v": 64
    },
    {
      "midi": 43,
      "hit": false,
      "t": 69923.72572558603,
      "d": 244.05564550781855,
      "v": 67
    },
    {
      "midi": 59,
      "hit": false,
      "t": 70183.57620410157,
      "d": 118.20649218749895,
      "v": 56
    },
    {
      "midi": 71,
      "hit": false,
      "t": 70183.57620410157,
      "d": 118.20649218749895,
      "v": 70
    },
    {
      "midi": 55,
      "hit": false,
      "t": 70183.57620410166,
      "d": 101.90214843749709,
      "v": 52
    },
    {
      "midi": 61,
      "hit": false,
      "t": 70309.93486816407,
      "d": 122.79208886719425,
      "v": 56
    },
    {
      "midi": 73,
      "hit": false,
      "t": 70309.93486816407,
      "d": 122.79208886719425,
      "v": 70
    },
    {
      "midi": 55,
      "hit": false,
      "t": 70309.93486816416,
      "d": 138.07741113280645,
      "v": 52
    },
    {
      "midi": 62,
      "hit": false,
      "t": 70440.87912890626,
      "d": 241.5080917968735,
      "v": 57
    },
    {
      "midi": 74,
      "hit": false,
      "t": 70440.87912890626,
      "d": 241.5080917968735,
      "v": 71
    },
    {
      "midi": 43,
      "hit": false,
      "t": 70440.87912890634,
      "d": 241.5080917968735,
      "v": 65
    },
    {
      "midi": 59,
      "hit": false,
      "t": 70698.18205371095,
      "d": 242.5271132812486,
      "v": 56
    },
    {
      "midi": 71,
      "hit": false,
      "t": 70698.18205371095,
      "d": 242.5271132812486,
      "v": 70
    },
    {
      "midi": 55,
      "hit": false,
      "t": 70698.18205371102,
      "d": 242.5271132812486,
      "v": 64
    },
    {
      "midi": 61,
      "hit": false,
      "t": 70958.54204296875,
      "d": 1051.6301718750037,
      "v": 61
    },
    {
      "midi": 73,
      "hit": false,
      "t": 70958.54204296875,
      "d": 1051.6301718750037,
      "v": 75
    },
    {
      "midi": 42,
      "hit": false,
      "t": 70958.54204296882,
      "d": 260.35998925780586,
      "v": 69
    },
    {
      "midi": 54,
      "hit": false,
      "t": 71234.69686523444,
      "d": 102.41165917969192,
      "v": 52
    },
    {
      "midi": 54,
      "hit": false,
      "t": 71361.56504003913,
      "d": 139.09643261718156,
      "v": 52
    },
    {
      "midi": 42,
      "hit": false,
      "t": 71493.52832226569,
      "d": 241.5080917968735,
      "v": 65
    },
    {
      "midi": 54,
      "hit": false,
      "t": 71750.83124707037,
      "d": 244.05564550781855,
      "v": 64
    },
    {
      "midi": 57,
      "hit": false,
      "t": 72010.68172558594,
      "d": 385.69963183593063,
      "v": 59
    },
    {
      "midi": 69,
      "hit": false,
      "t": 72010.68172558594,
      "d": 385.69963183593063,
      "v": 73
    },
    {
      "midi": 42,
      "hit": false,
      "t": 72010.681725586,
      "d": 244.05564550781855,
      "v": 67
    },
    {
      "midi": 54,
      "hit": false,
      "t": 72270.53220410162,
      "d": 101.90214843749709,
      "v": 52
    },
    {
      "midi": 59,
      "hit": false,
      "t": 72396.89086816405,
      "d": 122.79208886719425,
      "v": 56
    },
    {
      "midi": 71,
      "hit": false,
      "t": 72396.89086816405,
      "d": 122.79208886719425,
      "v": 70
    },
    {
      "midi": 54,
      "hit": false,
      "t": 72396.89086816412,
      "d": 138.07741113280645,
      "v": 52
    },
    {
      "midi": 61,
      "hit": false,
      "t": 72527.83512890624,
      "d": 241.5080917968735,
      "v": 57
    },
    {
      "midi": 73,
      "hit": false,
      "t": 72527.83512890624,
      "d": 241.5080917968735,
      "v": 71
    },
    {
      "midi": 42,
      "hit": false,
      "t": 72527.8351289063,
      "d": 241.5080917968735,
      "v": 65
    },
    {
      "midi": 57,
      "hit": false,
      "t": 72785.13805371092,
      "d": 242.5271132812486,
      "v": 56
    },
    {
      "midi": 69,
      "hit": false,
      "t": 72785.13805371092,
      "d": 242.5271132812486,
      "v": 70
    },
    {
      "midi": 54,
      "hit": false,
      "t": 72785.13805371098,
      "d": 242.5271132812486,
      "v": 64
    },
    {
      "midi": 59,
      "hit": false,
      "t": 73045.49804296873,
      "d": 1296.1953281250026,
      "v": 61
    },
    {
      "midi": 71,
      "hit": false,
      "t": 73045.49804296873,
      "d": 1296.1953281250026,
      "v": 75
    },
    {
      "midi": 40,
      "hit": false,
      "t": 73045.49804296879,
      "d": 260.35998925780586,
      "v": 68
    },
    {
      "midi": 52,
      "hit": false,
      "t": 73321.6528652344,
      "d": 102.41165917969192,
      "v": 52
    },
    {
      "midi": 52,
      "hit": false,
      "t": 73448.5210400391,
      "d": 139.09643261718156,
      "v": 52
    },
    {
      "midi": 40,
      "hit": false,
      "t": 73580.48432226565,
      "d": 241.5080917968735,
      "v": 64
    },
    {
      "midi": 52,
      "hit": false,
      "t": 73837.78724707033,
      "d": 244.05564550781855,
      "v": 64
    },
    {
      "midi": 40,
      "hit": false,
      "t": 74097.63772558596,
      "d": 244.05564550781855,
      "v": 66
    },
    {
      "midi": 57,
      "hit": false,
      "t": 74357.48820410154,
      "d": 241.5080917968735,
      "v": 56
    },
    {
      "midi": 69,
      "hit": false,
      "t": 74357.48820410154,
      "d": 241.5080917968735,
      "v": 70
    },
    {
      "midi": 52,
      "hit": false,
      "t": 74357.48820410158,
      "d": 101.90214843749709,
      "v": 52
    },
    {
      "midi": 52,
      "hit": false,
      "t": 74483.84686816408,
      "d": 138.07741113280645,
      "v": 52
    },
    {
      "midi": 59,
      "hit": false,
      "t": 74614.79112890622,
      "d": 241.5080917968735,
      "v": 57
    },
    {
      "midi": 71,
      "hit": false,
      "t": 74614.79112890622,
      "d": 241.5080917968735,
      "v": 71
    },
    {
      "midi": 40,
      "hit": false,
      "t": 74614.79112890626,
      "d": 241.5080917968735,
      "v": 64
    },
    {
      "midi": 57,
      "hit": false,
      "t": 74872.0940537109,
      "d": 242.5271132812486,
      "v": 56
    },
    {
      "midi": 69,
      "hit": false,
      "t": 74872.0940537109,
      "d": 242.5271132812486,
      "v": 70
    },
    {
      "midi": 52,
      "hit": false,
      "t": 74872.09405371094,
      "d": 242.5271132812486,
      "v": 64
    },
    {
      "midi": 61,
      "hit": false,
      "t": 75132.4540429687,
      "d": 534.4767685546831,
      "v": 61
    },
    {
      "midi": 73,
      "hit": false,
      "t": 75132.4540429687,
      "d": 534.4767685546831,
      "v": 75
    },
    {
      "midi": 42,
      "hit": false,
      "t": 75132.45404296875,
      "d": 260.35998925780586,
      "v": 69
    },
    {
      "midi": 54,
      "hit": false,
      "t": 75408.60886523436,
      "d": 102.41165917969192,
      "v": 52
    },
    {
      "midi": 54,
      "hit": false,
      "t": 75535.47704003906,
      "d": 139.09643261718156,
      "v": 52
    },
    {
      "midi": 59,
      "hit": false,
      "t": 75667.44032226557,
      "d": 241.5080917968735,
      "v": 57
    },
    {
      "midi": 71,
      "hit": false,
      "t": 75667.44032226557,
      "d": 241.5080917968735,
      "v": 71
    },
    {
      "midi": 42,
      "hit": false,
      "t": 75667.44032226561,
      "d": 241.5080917968735,
      "v": 65
    },
    {
      "midi": 57,
      "hit": false,
      "t": 75924.74324707025,
      "d": 776.4943710937514,
      "v": 56
    },
    {
      "midi": 69,
      "hit": false,
      "t": 75924.74324707025,
      "d": 776.4943710937514,
      "v": 70
    },
    {
      "midi": 54,
      "hit": false,
      "t": 75924.74324707029,
      "d": 244.05564550781855,
      "v": 64
    },
    {
      "midi": 42,
      "hit": false,
      "t": 76184.59372558592,
      "d": 244.05564550781855,
      "v": 67
    },
    {
      "midi": 54,
      "hit": false,
      "t": 76444.44420410154,
      "d": 101.90214843749709,
      "v": 52
    },
    {
      "midi": 54,
      "hit": false,
      "t": 76570.80286816404,
      "d": 138.07741113280645,
      "v": 52
    },
    {
      "midi": 59,
      "hit": false,
      "t": 76701.74712890618,
      "d": 241.5080917968735,
      "v": 57
    },
    {
      "midi": 71,
      "hit": false,
      "t": 76701.74712890618,
      "d": 241.5080917968735,
      "v": 71
    },
    {
      "midi": 42,
      "hit": false,
      "t": 76701.74712890622,
      "d": 241.5080917968735,
      "v": 65
    },
    {
      "midi": 61,
      "hit": false,
      "t": 76959.05005371086,
      "d": 242.5271132812486,
      "v": 56
    },
    {
      "midi": 73,
      "hit": false,
      "t": 76959.05005371086,
      "d": 242.5271132812486,
      "v": 70
    },
    {
      "midi": 54,
      "hit": false,
      "t": 76959.0500537109,
      "d": 242.5271132812486,
      "v": 64
    },
    {
      "midi": 62,
      "hit": false,
      "t": 77219.41004296867,
      "d": 1296.1953281250026,
      "v": 61
    },
    {
      "midi": 74,
      "hit": false,
      "t": 77219.41004296867,
      "d": 1296.1953281250026,
      "v": 75
    },
    {
      "midi": 43,
      "hit": false,
      "t": 77219.41004296871,
      "d": 260.35998925780586,
      "v": 69
    },
    {
      "midi": 55,
      "hit": false,
      "t": 77495.56486523432,
      "d": 102.41165917969192,
      "v": 52
    },
    {
      "midi": 55,
      "hit": false,
      "t": 77622.43304003902,
      "d": 139.09643261718156,
      "v": 52
    },
    {
      "midi": 43,
      "hit": false,
      "t": 77754.39632226557,
      "d": 241.5080917968735,
      "v": 65
    },
    {
      "midi": 55,
      "hit": false,
      "t": 78011.69924707025,
      "d": 244.05564550781855,
      "v": 64
    },
    {
      "midi": 43,
      "hit": false,
      "t": 78271.54972558588,
      "d": 244.05564550781855,
      "v": 67
    },
    {
      "midi": 59,
      "hit": false,
      "t": 78531.40020410148,
      "d": 118.20649218749895,
      "v": 56
    },
    {
      "midi": 71,
      "hit": false,
      "t": 78531.40020410148,
      "d": 118.20649218749895,
      "v": 70
    },
    {
      "midi": 55,
      "hit": false,
      "t": 78531.4002041015,
      "d": 101.90214843749709,
      "v": 52
    },
    {
      "midi": 61,
      "hit": false,
      "t": 78657.75886816398,
      "d": 122.79208886719425,
      "v": 56
    },
    {
      "midi": 73,
      "hit": false,
      "t": 78657.75886816398,
      "d": 122.79208886719425,
      "v": 70
    },
    {
      "midi": 55,
      "hit": false,
      "t": 78657.758868164,
      "d": 138.07741113280645,
      "v": 52
    },
    {
      "midi": 62,
      "hit": false,
      "t": 78788.70312890617,
      "d": 241.5080917968735,
      "v": 57
    },
    {
      "midi": 74,
      "hit": false,
      "t": 78788.70312890617,
      "d": 241.5080917968735,
      "v": 71
    },
    {
      "midi": 43,
      "hit": false,
      "t": 78788.70312890619,
      "d": 241.5080917968735,
      "v": 65
    },
    {
      "midi": 59,
      "hit": false,
      "t": 79046.00605371085,
      "d": 242.5271132812486,
      "v": 56
    },
    {
      "midi": 71,
      "hit": false,
      "t": 79046.00605371085,
      "d": 242.5271132812486,
      "v": 70
    },
    {
      "midi": 55,
      "hit": false,
      "t": 79046.00605371087,
      "d": 242.5271132812486,
      "v": 64
    },
    {
      "midi": 61,
      "hit": false,
      "t": 79306.36604296866,
      "d": 1051.6301718750037,
      "v": 61
    },
    {
      "midi": 73,
      "hit": false,
      "t": 79306.36604296866,
      "d": 1051.6301718750037,
      "v": 75
    },
    {
      "midi": 42,
      "hit": false,
      "t": 79306.36604296867,
      "d": 260.35998925780586,
      "v": 69
    },
    {
      "midi": 54,
      "hit": false,
      "t": 79582.52086523428,
      "d": 102.41165917969192,
      "v": 52
    },
    {
      "midi": 54,
      "hit": false,
      "t": 79709.38904003898,
      "d": 139.09643261718156,
      "v": 52
    },
    {
      "midi": 42,
      "hit": false,
      "t": 79841.35232226553,
      "d": 241.5080917968735,
      "v": 65
    },
    {
      "midi": 54,
      "hit": false,
      "t": 80098.65524707022,
      "d": 244.05564550781855,
      "v": 64
    },
    {
      "midi": 57,
      "hit": false,
      "t": 80358.50572558584,
      "d": 385.69963183593063,
      "v": 59
    },
    {
      "midi": 69,
      "hit": false,
      "t": 80358.50572558584,
      "d": 385.69963183593063,
      "v": 73
    },
    {
      "midi": 42,
      "hit": false,
      "t": 80358.50572558584,
      "d": 244.05564550781855,
      "v": 67
    },
    {
      "midi": 54,
      "hit": false,
      "t": 80618.35620410147,
      "d": 101.90214843749709,
      "v": 52
    },
    {
      "midi": 59,
      "hit": false,
      "t": 80744.71486816395,
      "d": 122.79208886719425,
      "v": 56
    },
    {
      "midi": 71,
      "hit": false,
      "t": 80744.71486816395,
      "d": 122.79208886719425,
      "v": 70
    },
    {
      "midi": 54,
      "hit": false,
      "t": 80744.71486816397,
      "d": 138.07741113280645,
      "v": 52
    },
    {
      "midi": 61,
      "hit": false,
      "t": 80875.65912890615,
      "d": 241.5080917968735,
      "v": 57
    },
    {
      "midi": 73,
      "hit": false,
      "t": 80875.65912890615,
      "d": 241.5080917968735,
      "v": 71
    },
    {
      "midi": 42,
      "hit": false,
      "t": 80875.65912890615,
      "d": 241.5080917968735,
      "v": 65
    },
    {
      "midi": 57,
      "hit": false,
      "t": 81132.96205371083,
      "d": 242.5271132812486,
      "v": 56
    },
    {
      "midi": 69,
      "hit": false,
      "t": 81132.96205371083,
      "d": 242.5271132812486,
      "v": 70
    },
    {
      "midi": 54,
      "hit": false,
      "t": 81132.96205371083,
      "d": 242.5271132812486,
      "v": 64
    },
    {
      "midi": 59,
      "hit": false,
      "t": 81393.32204296863,
      "d": 791.7796933593781,
      "v": 61
    },
    {
      "midi": 71,
      "hit": false,
      "t": 81393.32204296863,
      "d": 791.7796933593781,
      "v": 75
    },
    {
      "midi": 40,
      "hit": false,
      "t": 81393.32204296863,
      "d": 260.35998925780586,
      "v": 68
    },
    {
      "midi": 52,
      "hit": false,
      "t": 81669.47686523425,
      "d": 102.41165917969192,
      "v": 52
    },
    {
      "midi": 52,
      "hit": false,
      "t": 81796.34504003894,
      "d": 139.09643261718156,
      "v": 52
    },
    {
      "midi": 40,
      "hit": false,
      "t": 81928.3083222655,
      "d": 241.5080917968735,
      "v": 64
    },
    {
      "midi": 52,
      "hit": false,
      "t": 82185.61124707018,
      "d": 244.05564550781855,
      "v": 64
    },
    {
      "midi": 57,
      "hit": false,
      "t": 82185.61124707019,
      "d": 118.20649218749895,
      "v": 56
    },
    {
      "midi": 69,
      "hit": false,
      "t": 82185.61124707019,
      "d": 118.20649218749895,
      "v": 70
    },
    {
      "midi": 59,
      "hit": false,
      "t": 82311.96991113269,
      "d": 125.33964257812477,
      "v": 56
    },
    {
      "midi": 71,
      "hit": false,
      "t": 82311.96991113269,
      "d": 125.33964257812477,
      "v": 70
    },
    {
      "midi": 42,
      "hit": false,
      "t": 82445.4617255858,
      "d": 244.05564550781855,
      "v": 67
    },
    {
      "midi": 61,
      "hit": false,
      "t": 82445.46172558582,
      "d": 773.9468173828063,
      "v": 59
    },
    {
      "midi": 73,
      "hit": false,
      "t": 82445.46172558582,
      "d": 773.9468173828063,
      "v": 73
    },
    {
      "midi": 54,
      "hit": false,
      "t": 82705.31220410143,
      "d": 101.90214843749709,
      "v": 52
    },
    {
      "midi": 54,
      "hit": false,
      "t": 82831.67086816393,
      "d": 138.07741113280645,
      "v": 52
    },
    {
      "midi": 42,
      "hit": false,
      "t": 82962.61512890611,
      "d": 241.5080917968735,
      "v": 65
    },
    {
      "midi": 54,
      "hit": false,
      "t": 83219.91805371079,
      "d": 242.5271132812486,
      "v": 64
    },
    {
      "midi": 59,
      "hit": false,
      "t": 83219.9180537108,
      "d": 118.20649218749895,
      "v": 56
    },
    {
      "midi": 71,
      "hit": false,
      "t": 83219.9180537108,
      "d": 118.20649218749895,
      "v": 70
    },
    {
      "midi": 61,
      "hit": false,
      "t": 83346.2767177733,
      "d": 123.81111035156937,
      "v": 56
    },
    {
      "midi": 73,
      "hit": false,
      "t": 83346.2767177733,
      "d": 123.81111035156937,
      "v": 70
    },
    {
      "midi": 43,
      "hit": false,
      "t": 83480.2780429686,
      "d": 260.35998925780586,
      "v": 69
    },
    {
      "midi": 62,
      "hit": false,
      "t": 83480.27804296862,
      "d": 791.7796933593781,
      "v": 61
    },
    {
      "midi": 74,
      "hit": false,
      "t": 83480.27804296862,
      "d": 791.7796933593781,
      "v": 75
    },
    {
      "midi": 55,
      "hit": false,
      "t": 83756.43286523421,
      "d": 102.41165917969192,
      "v": 52
    },
    {
      "midi": 55,
      "hit": false,
      "t": 83883.3010400389,
      "d": 139.09643261718156,
      "v": 52
    },
    {
      "midi": 43,
      "hit": false,
      "t": 84015.26432226546,
      "d": 241.5080917968735,
      "v": 65
    },
    {
      "midi": 55,
      "hit": false,
      "t": 84272.56724707014,
      "d": 244.05564550781855,
      "v": 64
    },
    {
      "midi": 61,
      "hit": false,
      "t": 84272.56724707018,
      "d": 118.20649218749895,
      "v": 56
    },
    {
      "midi": 73,
      "hit": false,
      "t": 84272.56724707018,
      "d": 118.20649218749895,
      "v": 70
    },
    {
      "midi": 62,
      "hit": false,
      "t": 84398.92591113268,
      "d": 125.33964257812477,
      "v": 56
    },
    {
      "midi": 74,
      "hit": false,
      "t": 84398.92591113268,
      "d": 125.33964257812477,
      "v": 70
    },
    {
      "midi": 45,
      "hit": false,
      "t": 84532.41772558576,
      "d": 244.05564550781855,
      "v": 67
    },
    {
      "midi": 64,
      "hit": false,
      "t": 84532.41772558581,
      "d": 2086.4464892578108,
      "v": 59
    },
    {
      "midi": 76,
      "hit": false,
      "t": 84532.41772558581,
      "d": 2086.4464892578108,
      "v": 73
    },
    {
      "midi": 57,
      "hit": false,
      "t": 84792.26820410139,
      "d": 101.90214843749709,
      "v": 52
    },
    {
      "midi": 57,
      "hit": false,
      "t": 84918.62686816389,
      "d": 138.07741113280645,
      "v": 52
    },
    {
      "midi": 45,
      "hit": false,
      "t": 85049.57112890607,
      "d": 241.5080917968735,
      "v": 65
    },
    {
      "midi": 57,
      "hit": false,
      "t": 85306.87405371075,
      "d": 242.5271132812486,
      "v": 64
    },
    {
      "midi": 45,
      "hit": false,
      "t": 85567.23404296856,
      "d": 260.35998925780586,
      "v": 69
    },
    {
      "midi": 57,
      "hit": false,
      "t": 85843.38886523417,
      "d": 243.03662402344344,
      "v": 64
    },
    {
      "midi": 45,
      "hit": false,
      "t": 86102.22032226542,
      "d": 241.5080917968735,
      "v": 65
    },
    {
      "midi": 57,
      "hit": false,
      "t": 86359.5232470701,
      "d": 244.05564550781855,
      "v": 64
    },
    {
      "midi": 45,
      "hit": false,
      "t": 86619.37372558573,
      "d": 516.6438925781258,
      "v": 67
    },
    {
      "midi": 66,
      "hit": false,
      "t": 86619.3737255858,
      "d": 516.6438925781258,
      "v": 59
    },
    {
      "midi": 74,
      "hit": false,
      "t": 86619.3737255858,
      "d": 516.6438925781258,
      "v": 73
    },
    {
      "midi": 45,
      "hit": false,
      "t": 87136.52712890603,
      "d": 515.1153603515559,
      "v": 65
    },
    {
      "midi": 64,
      "hit": false,
      "t": 87136.5271289061,
      "d": 515.1153603515559,
      "v": 57
    },
    {
      "midi": 73,
      "hit": false,
      "t": 87136.5271289061,
      "d": 515.1153603515559,
      "v": 71
    }
  ]
}