{
  "jsonPath": "Rock/Album Rock/Supertramp/take-the-long-way-home.json",
  "path": "Rock\\Album Rock\\Supertramp\\Take The Long Way Home.mid",
  "name": "Take The Long Way Home",
  "difficulty": "Advanced",
  "bpm": 76.00006586672374,
  "notes": [
    {
      "midi": 36,
      "hit": false,
      "t": 9222.759177083333,
      "d": 2820.5136666666676,
      "v": 124
    },
    {
      "midi": 24,
      "hit": false,
      "t": 9222.759177083333,
      "d": 2988.7829479166685,
      "v": 108
    },
    {
      "midi": 36,
      "hit": false,
      "t": 12187.50365625,
      "d": 520.8334895833341,
      "v": 83
    },
    {
      "midi": 24,
      "hit": false,
      "t": 12307.696000000002,
      "d": 2588.1418020833407,
      "v": 73
    },
    {
      "midi": 60,
      "hit": false,
      "t": 12676.285854166668,
      "d": 328.52573958333414,
      "v": 88
    },
    {
      "midi": 48,
      "hit": false,
      "t": 12676.285854166668,
      "d": 376.60267708333413,
      "v": 90
    },
    {
      "midi": 36,
      "hit": false,
      "t": 13060.90135416667,
      "d": 368.58985416666656,
      "v": 75
    },
    {
      "midi": 48,
      "hit": false,
      "t": 13445.51685416667,
      "d": 384.6155000000017,
      "v": 88
    },
    {
      "midi": 60,
      "hit": false,
      "t": 13453.529677083337,
      "d": 280.44880208333416,
      "v": 75
    },
    {
      "midi": 36,
      "hit": false,
      "t": 13838.14517708334,
      "d": 360.5770312500008,
      "v": 73
    },
    {
      "midi": 60,
      "hit": false,
      "t": 14214.747854166673,
      "d": 320.51291666666657,
      "v": 90
    },
    {
      "midi": 48,
      "hit": false,
      "t": 14214.747854166673,
      "d": 344.5513854166675,
      "v": 92
    },
    {
      "midi": 36,
      "hit": false,
      "t": 14599.363354166675,
      "d": 312.5000937500008,
      "v": 80
    },
    {
      "midi": 60,
      "hit": false,
      "t": 14983.978854166677,
      "d": 360.5770312500026,
      "v": 83
    },
    {
      "midi": 48,
      "hit": false,
      "t": 14983.978854166677,
      "d": 448.71808333333684,
      "v": 84
    },
    {
      "midi": 36,
      "hit": false,
      "t": 15232.376364583344,
      "d": 576.9232500000035,
      "v": 92
    },
    {
      "midi": 24,
      "hit": false,
      "t": 15368.59435416668,
      "d": 2684.2956770833352,
      "v": 95
    },
    {
      "midi": 60,
      "hit": false,
      "t": 15753.20985416668,
      "d": 304.48727083333506,
      "v": 84
    },
    {
      "midi": 48,
      "hit": false,
      "t": 15753.20985416668,
      "d": 352.56420833333505,
      "v": 88
    },
    {
      "midi": 36,
      "hit": false,
      "t": 16137.825354166682,
      "d": 424.6796145833323,
      "v": 86
    },
    {
      "midi": 60,
      "hit": false,
      "t": 16522.44085416668,
      "d": 312.5000937500008,
      "v": 90
    },
    {
      "midi": 48,
      "hit": false,
      "t": 16522.44085416668,
      "d": 384.6154999999999,
      "v": 92
    },
    {
      "midi": 36,
      "hit": false,
      "t": 16915.069177083347,
      "d": 376.60267708333413,
      "v": 91
    },
    {
      "midi": 60,
      "hit": false,
      "t": 17291.67185416668,
      "d": 280.44880208333416,
      "v": 81
    },
    {
      "midi": 48,
      "hit": false,
      "t": 17291.67185416668,
      "d": 312.5000937500008,
      "v": 95
    },
    {
      "midi": 36,
      "hit": false,
      "t": 17676.28735416668,
      "d": 328.5257395833323,
      "v": 92
    },
    {
      "midi": 60,
      "hit": false,
      "t": 18060.90285416668,
      "d": 368.58985416666474,
      "v": 95
    },
    {
      "midi": 48,
      "hit": false,
      "t": 18060.90285416668,
      "d": 424.6796145833323,
      "v": 101
    },
    {
      "midi": 36,
      "hit": false,
      "t": 18317.313187500014,
      "d": 633.0130104166674,
      "v": 98
    },
    {
      "midi": 24,
      "hit": false,
      "t": 18445.51835416668,
      "d": 2580.1289791666713,
      "v": 105
    },
    {
      "midi": 60,
      "hit": false,
      "t": 18830.13385416668,
      "d": 304.48727083333506,
      "v": 92
    },
    {
      "midi": 48,
      "hit": false,
      "t": 18830.13385416668,
      "d": 392.6283229166693,
      "v": 92
    },
    {
      "midi": 36,
      "hit": false,
      "t": 19214.749354166684,
      "d": 416.66679166666654,
      "v": 86
    },
    {
      "midi": 60,
      "hit": false,
      "t": 19599.364854166684,
      "d": 352.5642083333332,
      "v": 92
    },
    {
      "midi": 48,
      "hit": false,
      "t": 19599.364854166684,
      "d": 384.6154999999999,
      "v": 98
    },
    {
      "midi": 36,
      "hit": false,
      "t": 19975.96753125002,
      "d": 392.62832291666564,
      "v": 92
    },
    {
      "midi": 60,
      "hit": false,
      "t": 20368.595854166684,
      "d": 312.5000937500008,
      "v": 83
    },
    {
      "midi": 48,
      "hit": false,
      "t": 20368.595854166684,
      "d": 352.5642083333332,
      "v": 92
    },
    {
      "midi": 36,
      "hit": false,
      "t": 20745.19853125002,
      "d": 336.5385625000017,
      "v": 80
    },
    {
      "midi": 60,
      "hit": false,
      "t": 21137.826854166688,
      "d": 456.7309062500026,
      "v": 92
    },
    {
      "midi": 48,
      "hit": false,
      "t": 21137.826854166688,
      "d": 512.8206666666701,
      "v": 92
    },
    {
      "midi": 36,
      "hit": false,
      "t": 21386.224364583355,
      "d": 584.9360729166692,
      "v": 88
    },
    {
      "midi": 24,
      "hit": false,
      "t": 21522.442354166687,
      "d": 2604.1674479166722,
      "v": 101
    },
    {
      "midi": 60,
      "hit": false,
      "t": 21907.05785416669,
      "d": 352.5642083333332,
      "v": 90
    },
    {
      "midi": 48,
      "hit": false,
      "t": 21907.05785416669,
      "d": 384.6154999999999,
      "v": 95
    },
    {
      "midi": 36,
      "hit": false,
      "t": 22291.67335416669,
      "d": 408.6539687500008,
      "v": 101
    },
    {
      "midi": 60,
      "hit": false,
      "t": 22676.28885416669,
      "d": 416.66679166666654,
      "v": 88
    },
    {
      "midi": 48,
      "hit": false,
      "t": 22676.28885416669,
      "d": 424.6796145833323,
      "v": 92
    },
    {
      "midi": 36,
      "hit": false,
      "t": 23060.90435416669,
      "d": 432.6924375000017,
      "v": 101
    },
    {
      "midi": 48,
      "hit": false,
      "t": 23445.51985416669,
      "d": 384.6155000000035,
      "v": 101
    },
    {
      "midi": 60,
      "hit": false,
      "t": 23445.51985416669,
      "d": 384.6155000000035,
      "v": 95
    },
    {
      "midi": 36,
      "hit": false,
      "t": 23830.135354166694,
      "d": 336.5385624999981,
      "v": 90
    },
    {
      "midi": 60,
      "hit": false,
      "t": 24222.76367708336,
      "d": 400.64114583333503,
      "v": 98
    },
    {
      "midi": 48,
      "hit": false,
      "t": 24222.76367708336,
      "d": 424.67961458333593,
      "v": 98
    },
    {
      "midi": 36,
      "hit": false,
      "t": 24599.366354166694,
      "d": 488.78219791666925,
      "v": 96
    },
    {
      "midi": 24,
      "hit": false,
      "t": 24599.366354166694,
      "d": 2660.257208333336,
      "v": 96
    },
    {
      "midi": 60,
      "hit": false,
      "t": 24991.994677083363,
      "d": 344.5513854166675,
      "v": 101
    },
    {
      "midi": 48,
      "hit": false,
      "t": 24991.994677083363,
      "d": 408.6539687500008,
      "v": 101
    },
    {
      "midi": 36,
      "hit": false,
      "t": 25392.635822916698,
      "d": 392.62832291666564,
      "v": 88
    },
    {
      "midi": 60,
      "hit": false,
      "t": 25761.225677083363,
      "d": 376.60267708333413,
      "v": 98
    },
    {
      "midi": 48,
      "hit": false,
      "t": 25761.225677083363,
      "d": 392.62832291666564,
      "v": 105
    },
    {
      "midi": 36,
      "hit": false,
      "t": 26145.841177083363,
      "d": 408.6539687500008,
      "v": 101
    },
    {
      "midi": 60,
      "hit": false,
      "t": 26522.443854166697,
      "d": 352.5642083333332,
      "v": 92
    },
    {
      "midi": 48,
      "hit": false,
      "t": 26522.443854166697,
      "d": 376.60267708333413,
      "v": 95
    },
    {
      "midi": 36,
      "hit": false,
      "t": 26907.059354166697,
      "d": 384.6154999999999,
      "v": 90
    },
    {
      "midi": 60,
      "hit": false,
      "t": 27291.674854166697,
      "d": 400.6411458333314,
      "v": 98
    },
    {
      "midi": 48,
      "hit": false,
      "t": 27291.674854166697,
      "d": 472.75655208333046,
      "v": 101
    },
    {
      "midi": 36,
      "hit": false,
      "t": 27540.072364583364,
      "d": 608.9745416666665,
      "v": 98
    },
    {
      "midi": 24,
      "hit": false,
      "t": 27676.290354166696,
      "d": 3036.859885416681,
      "v": 101
    },
    {
      "midi": 60,
      "hit": false,
      "t": 28068.918677083362,
      "d": 336.5385625000017,
      "v": 92
    },
    {
      "midi": 48,
      "hit": false,
      "t": 28068.918677083362,
      "d": 400.64114583333867,
      "v": 95
    },
    {
      "midi": 36,
      "hit": false,
      "t": 28453.534177083366,
      "d": 408.6539687500044,
      "v": 92
    },
    {
      "midi": 48,
      "hit": false,
      "t": 28838.14967708337,
      "d": 400.64114583333503,
      "v": 95
    },
    {
      "midi": 60,
      "hit": false,
      "t": 28838.14967708337,
      "d": 400.64114583333503,
      "v": 90
    },
    {
      "midi": 36,
      "hit": false,
      "t": 29222.76517708337,
      "d": 376.60267708333413,
      "v": 90
    },
    {
      "midi": 60,
      "hit": false,
      "t": 29607.38067708337,
      "d": 384.6154999999999,
      "v": 98
    },
    {
      "midi": 48,
      "hit": false,
      "t": 29607.38067708337,
      "d": 400.64114583333503,
      "v": 98
    },
    {
      "midi": 36,
      "hit": false,
      "t": 29991.99617708337,
      "d": 697.115593750008,
      "v": 90
    },
    {
      "midi": 48,
      "hit": false,
      "t": 30376.611677083372,
      "d": 336.53856250000536,
      "v": 95
    },
    {
      "midi": 60,
      "hit": false,
      "t": 30376.611677083372,
      "d": 344.5513854166711,
      "v": 90
    },
    {
      "midi": 55,
      "hit": false,
      "t": 30761.227177083376,
      "d": 120.19234375000087,
      "v": 101
    },
    {
      "midi": 58,
      "hit": false,
      "t": 30761.227177083376,
      "d": 120.19234375000087,
      "v": 92
    },
    {
      "midi": 63,
      "hit": false,
      "t": 30761.227177083376,
      "d": 120.19234375000087,
      "v": 92
    },
    {
      "midi": 36,
      "hit": false,
      "t": 30761.227177083376,
      "d": 352.5642083333332,
      "v": 86
    },
    {
      "midi": 48,
      "hit": false,
      "t": 31145.842677083376,
      "d": 376.60267708333413,
      "v": 101
    },
    {
      "midi": 63,
      "hit": false,
      "t": 31145.842677083376,
      "d": 480.76937499999985,
      "v": 105
    },
    {
      "midi": 55,
      "hit": false,
      "t": 31145.842677083376,
      "d": 504.80784375000076,
      "v": 119
    },
    {
      "midi": 58,
      "hit": false,
      "t": 31145.842677083376,
      "d": 504.80784375000076,
      "v": 114
    },
    {
      "midi": 36,
      "hit": false,
      "t": 31530.458177083376,
      "d": 272.4359791666684,
      "v": 90
    },
    {
      "midi": 43,
      "hit": false,
      "t": 31786.86851041671,
      "d": 120.19234375000087,
      "v": 86
    },
    {
      "midi": 63,
      "hit": false,
      "t": 31915.073677083376,
      "d": 184.2949270833342,
      "v": 105
    },
    {
      "midi": 58,
      "hit": false,
      "t": 31915.073677083376,
      "d": 216.34621875000084,
      "v": 114
    },
    {
      "midi": 48,
      "hit": false,
      "t": 31931.09932291671,
      "d": 264.423156249999,
      "v": 101
    },
    {
      "midi": 55,
      "hit": false,
      "t": 32171.48401041671,
      "d": 40.06411458333605,
      "v": 90
    },
    {
      "midi": 43,
      "hit": false,
      "t": 32171.48401041671,
      "d": 72.1154062500027,
      "v": 78
    },
    {
      "midi": 58,
      "hit": false,
      "t": 32299.68917708338,
      "d": 88.14105208333422,
      "v": 105
    },
    {
      "midi": 36,
      "hit": false,
      "t": 32299.68917708338,
      "d": 328.52573958333596,
      "v": 98
    },
    {
      "midi": 62,
      "hit": false,
      "t": 32315.714822916714,
      "d": 64.10258333333331,
      "v": 84
    },
    {
      "midi": 48,
      "hit": false,
      "t": 32684.304677083383,
      "d": 312.5000937500008,
      "v": 114
    },
    {
      "midi": 62,
      "hit": false,
      "t": 32684.304677083383,
      "d": 520.8334895833323,
      "v": 108
    },
    {
      "midi": 58,
      "hit": false,
      "t": 32684.304677083383,
      "d": 576.9232499999998,
      "v": 114
    },
    {
      "midi": 53,
      "hit": false,
      "t": 32684.304677083383,
      "d": 584.9360729166656,
      "v": 101
    },
    {
      "midi": 36,
      "hit": false,
      "t": 33068.92017708338,
      "d": 248.3975104166675,
      "v": 95
    },
    {
      "midi": 43,
      "hit": false,
      "t": 33325.330510416716,
      "d": 120.19234375000087,
      "v": 83
    },
    {
      "midi": 58,
      "hit": false,
      "t": 33445.52285416672,
      "d": 240.38468750000175,
      "v": 114
    },
    {
      "midi": 48,
      "hit": false,
      "t": 33453.53567708338,
      "d": 136.21798958333238,
      "v": 101
    },
    {
      "midi": 62,
      "hit": false,
      "t": 33453.53567708338,
      "d": 240.38468750000175,
      "v": 114
    },
    {
      "midi": 53,
      "hit": false,
      "t": 33701.93318750005,
      "d": 120.19234375000087,
      "v": 98
    },
    {
      "midi": 48,
      "hit": false,
      "t": 33701.93318750005,
      "d": 144.23081249999814,
      "v": 71
    },
    {
      "midi": 57,
      "hit": false,
      "t": 33838.15117708338,
      "d": 56.08976041666756,
      "v": 114
    },
    {
      "midi": 60,
      "hit": false,
      "t": 33838.15117708338,
      "d": 88.14105208333785,
      "v": 101
    },
    {
      "midi": 36,
      "hit": false,
      "t": 33838.15117708338,
      "d": 368.5898541666684,
      "v": 98
    },
    {
      "midi": 48,
      "hit": false,
      "t": 34222.76667708338,
      "d": 312.5000937500008,
      "v": 92
    },
    {
      "midi": 53,
      "hit": false,
      "t": 34222.76667708338,
      "d": 600.9617187500044,
      "v": 108
    },
    {
      "midi": 57,
      "hit": false,
      "t": 34222.76667708338,
      "d": 608.9745416666701,
      "v": 119
    },
    {
      "midi": 60,
      "hit": false,
      "t": 34222.76667708338,
      "d": 633.0130104166674,
      "v": 105
    },
    {
      "midi": 36,
      "hit": false,
      "t": 34599.369354166716,
      "d": 328.5257395833323,
      "v": 86
    },
    {
      "midi": 43,
      "hit": false,
      "t": 34863.792510416715,
      "d": 112.17952083333512,
      "v": 83
    },
    {
      "midi": 53,
      "hit": false,
      "t": 34983.984854166716,
      "d": 88.14105208333058,
      "v": 92
    },
    {
      "midi": 60,
      "hit": false,
      "t": 34983.984854166716,
      "d": 248.39751041666023,
      "v": 84
    },
    {
      "midi": 48,
      "hit": false,
      "t": 34991.99767708338,
      "d": 104.16669791666209,
      "v": 92
    },
    {
      "midi": 57,
      "hit": false,
      "t": 34991.99767708338,
      "d": 160.25645833332965,
      "v": 105
    },
    {
      "midi": 48,
      "hit": false,
      "t": 35144.241312500046,
      "d": 128.20516666666663,
      "v": 74
    },
    {
      "midi": 53,
      "hit": false,
      "t": 35240.39518750004,
      "d": 64.10258333334059,
      "v": 90
    },
    {
      "midi": 64,
      "hit": false,
      "t": 35376.61317708338,
      "d": 48.076937500001804,
      "v": 86
    },
    {
      "midi": 55,
      "hit": false,
      "t": 35376.61317708338,
      "d": 72.11540624999907,
      "v": 101
    },
    {
      "midi": 60,
      "hit": false,
      "t": 35376.61317708338,
      "d": 96.15387499999633,
      "v": 90
    },
    {
      "midi": 36,
      "hit": false,
      "t": 35376.61317708338,
      "d": 360.57703124999534,
      "v": 98
    },
    {
      "midi": 48,
      "hit": false,
      "t": 35761.228677083374,
      "d": 312.5000937500008,
      "v": 108
    },
    {
      "midi": 64,
      "hit": false,
      "t": 35761.228677083374,
      "d": 480.7693750000035,
      "v": 101
    },
    {
      "midi": 55,
      "hit": false,
      "t": 35761.228677083374,
      "d": 504.80784375000076,
      "v": 119
    },
    {
      "midi": 60,
      "hit": false,
      "t": 35761.228677083374,
      "d": 528.846312499998,
      "v": 114
    },
    {
      "midi": 36,
      "hit": false,
      "t": 36137.83135416671,
      "d": 320.51291666666657,
      "v": 95
    },
    {
      "midi": 48,
      "hit": false,
      "t": 36402.25451041671,
      "d": 80.12822916666482,
      "v": 92
    },
    {
      "midi": 60,
      "hit": false,
      "t": 36522.44685416671,
      "d": 104.16669791666936,
      "v": 98
    },
    {
      "midi": 64,
      "hit": false,
      "t": 36522.44685416671,
      "d": 112.17952083333512,
      "v": 101
    },
    {
      "midi": 55,
      "hit": false,
      "t": 36522.44685416671,
      "d": 128.20516666666663,
      "v": 101
    },
    {
      "midi": 60,
      "hit": false,
      "t": 36778.85718750004,
      "d": 48.07693749999453,
      "v": 88
    },
    {
      "midi": 48,
      "hit": false,
      "t": 36778.85718750004,
      "d": 56.08976041666028,
      "v": 90
    },
    {
      "midi": 64,
      "hit": false,
      "t": 36778.85718750004,
      "d": 64.10258333332604,
      "v": 92
    },
    {
      "midi": 55,
      "hit": false,
      "t": 36786.87001041671,
      "d": 24.038468749997264,
      "v": 72
    },
    {
      "midi": 58,
      "hit": false,
      "t": 36907.0623541667,
      "d": 144.23081249999814,
      "v": 101
    },
    {
      "midi": 53,
      "hit": false,
      "t": 36915.07517708337,
      "d": 152.2436354166639,
      "v": 92
    },
    {
      "midi": 62,
      "hit": false,
      "t": 36915.07517708337,
      "d": 216.3462187499972,
      "v": 101
    },
    {
      "midi": 36,
      "hit": false,
      "t": 36915.07517708337,
      "d": 328.5257395833323,
      "v": 98
    },
    {
      "midi": 60,
      "hit": false,
      "t": 37291.6778541667,
      "d": 256.41033333333326,
      "v": 105
    },
    {
      "midi": 58,
      "hit": false,
      "t": 37291.6778541667,
      "d": 264.423156249999,
      "v": 119
    },
    {
      "midi": 53,
      "hit": false,
      "t": 37291.6778541667,
      "d": 272.43597916666477,
      "v": 108
    },
    {
      "midi": 48,
      "hit": false,
      "t": 37291.6778541667,
      "d": 304.48727083333506,
      "v": 101
    },
    {
      "midi": 58,
      "hit": false,
      "t": 37676.2933541667,
      "d": 256.41033333333326,
      "v": 83
    },
    {
      "midi": 36,
      "hit": false,
      "t": 37676.2933541667,
      "d": 384.6154999999999,
      "v": 90
    },
    {
      "midi": 53,
      "hit": false,
      "t": 37684.30617708337,
      "d": 168.26928125000268,
      "v": 90
    },
    {
      "midi": 60,
      "hit": false,
      "t": 37684.30617708337,
      "d": 256.41033333333326,
      "v": 92
    },
    {
      "midi": 60,
      "hit": false,
      "t": 38060.9088541667,
      "d": 288.4616249999963,
      "v": 101
    },
    {
      "midi": 53,
      "hit": false,
      "t": 38060.9088541667,
      "d": 304.4872708333278,
      "v": 108
    },
    {
      "midi": 58,
      "hit": false,
      "t": 38060.9088541667,
      "d": 649.0386562499916,
      "v": 105
    },
    {
      "midi": 48,
      "hit": false,
      "t": 38068.92167708337,
      "d": 368.5898541666611,
      "v": 105
    },
    {
      "midi": 53,
      "hit": false,
      "t": 38453.53717708336,
      "d": 200.3205729166657,
      "v": 68
    },
    {
      "midi": 60,
      "hit": false,
      "t": 38453.53717708336,
      "d": 216.3462187499972,
      "v": 74
    },
    {
      "midi": 36,
      "hit": false,
      "t": 38461.550000000025,
      "d": 320.51291666666657,
      "v": 90
    },
    {
      "midi": 53,
      "hit": false,
      "t": 38838.15267708336,
      "d": 208.33339583333145,
      "v": 119
    },
    {
      "midi": 58,
      "hit": false,
      "t": 38838.15267708336,
      "d": 224.35904166666296,
      "v": 105
    },
    {
      "midi": 60,
      "hit": false,
      "t": 38838.15267708336,
      "d": 224.35904166666296,
      "v": 119
    },
    {
      "midi": 48,
      "hit": false,
      "t": 38838.15267708336,
      "d": 360.57703124999534,
      "v": 105
    },
    {
      "midi": 53,
      "hit": false,
      "t": 39222.76817708335,
      "d": 152.2436354166639,
      "v": 98
    },
    {
      "midi": 58,
      "hit": false,
      "t": 39222.76817708335,
      "d": 176.28210416666116,
      "v": 101
    },
    {
      "midi": 60,
      "hit": false,
      "t": 39222.76817708335,
      "d": 208.33339583333145,
      "v": 101
    },
    {
      "midi": 36,
      "hit": false,
      "t": 39222.76817708335,
      "d": 344.55138541666383,
      "v": 95
    },
    {
      "midi": 53,
      "hit": false,
      "t": 39471.16568750002,
      "d": 160.25645833332965,
      "v": 98
    },
    {
      "midi": 62,
      "hit": false,
      "t": 39471.16568750002,
      "d": 288.4616249999963,
      "v": 119
    },
    {
      "midi": 58,
      "hit": false,
      "t": 39471.16568750002,
      "d": 376.60267708332685,
      "v": 105
    },
    {
      "midi": 48,
      "hit": false,
      "t": 39607.38367708335,
      "d": 280.44880208332324,
      "v": 90
    },
    {
      "midi": 53,
      "hit": false,
      "t": 39863.79401041668,
      "d": 96.15387499999633,
      "v": 83
    },
    {
      "midi": 55,
      "hit": false,
      "t": 39991.999177083344,
      "d": 208.33339583333145,
      "v": 105
    },
    {
      "midi": 62,
      "hit": false,
      "t": 39991.999177083344,
      "d": 272.43597916666477,
      "v": 108
    },
    {
      "midi": 36,
      "hit": false,
      "t": 39991.999177083344,
      "d": 344.55138541666383,
      "v": 83
    },
    {
      "midi": 60,
      "hit": false,
      "t": 40376.614677083344,
      "d": 248.3975104166675,
      "v": 108
    },
    {
      "midi": 55,
      "hit": false,
      "t": 40376.614677083344,
      "d": 280.4488020833378,
      "v": 119
    },
    {
      "midi": 48,
      "hit": false,
      "t": 40376.614677083344,
      "d": 368.5898541666684,
      "v": 101
    },
    {
      "midi": 60,
      "hit": false,
      "t": 40761.230177083344,
      "d": 248.3975104166675,
      "v": 86
    },
    {
      "midi": 55,
      "hit": false,
      "t": 40761.230177083344,
      "d": 264.423156249999,
      "v": 86
    },
    {
      "midi": 36,
      "hit": false,
      "t": 40761.230177083344,
      "d": 376.60267708333413,
      "v": 84
    },
    {
      "midi": 55,
      "hit": false,
      "t": 41145.84567708334,
      "d": 248.39751041666023,
      "v": 114
    },
    {
      "midi": 60,
      "hit": false,
      "t": 41145.84567708334,
      "d": 248.39751041666023,
      "v": 101
    },
    {
      "midi": 48,
      "hit": false,
      "t": 41145.84567708334,
      "d": 368.5898541666611,
      "v": 105
    },
    {
      "midi": 55,
      "hit": false,
      "t": 41530.461177083336,
      "d": 232.371864583336,
      "v": 73
    },
    {
      "midi": 60,
      "hit": false,
      "t": 41530.461177083336,
      "d": 232.371864583336,
      "v": 77
    },
    {
      "midi": 36,
      "hit": false,
      "t": 41530.461177083336,
      "d": 376.6026770833414,
      "v": 88
    },
    {
      "midi": 55,
      "hit": false,
      "t": 41907.06385416668,
      "d": 224.35904166666296,
      "v": 119
    },
    {
      "midi": 60,
      "hit": false,
      "t": 41907.06385416668,
      "d": 224.35904166666296,
      "v": 101
    },
    {
      "midi": 48,
      "hit": false,
      "t": 41915.07667708334,
      "d": 360.57703124999534,
      "v": 108
    },
    {
      "midi": 55,
      "hit": false,
      "t": 42291.67935416667,
      "d": 136.21798958333238,
      "v": 105
    },
    {
      "midi": 36,
      "hit": false,
      "t": 42291.67935416667,
      "d": 416.6667916666702,
      "v": 98
    },
    {
      "midi": 60,
      "hit": false,
      "t": 42291.67935416667,
      "d": 448.7180833333405,
      "v": 95
    },
    {
      "midi": 55,
      "hit": false,
      "t": 42451.9358125,
      "d": 208.33339583333873,
      "v": 92
    },
    {
      "midi": 48,
      "hit": false,
      "t": 42676.29485416667,
      "d": 304.48727083334234,
      "v": 98
    },
    {
      "midi": 55,
      "hit": false,
      "t": 42932.70518750001,
      "d": 64.10258333333331,
      "v": 86
    },
    {
      "midi": 63,
      "hit": false,
      "t": 43060.91035416668,
      "d": 80.12822916666482,
      "v": 88
    },
    {
      "midi": 58,
      "hit": false,
      "t": 43060.91035416668,
      "d": 88.14105208333058,
      "v": 92
    },
    {
      "midi": 55,
      "hit": false,
      "t": 43060.91035416668,
      "d": 96.15387499999633,
      "v": 101
    },
    {
      "midi": 36,
      "hit": false,
      "t": 43060.91035416668,
      "d": 384.6154999999999,
      "v": 95
    },
    {
      "midi": 63,
      "hit": false,
      "t": 43445.52585416668,
      "d": 464.74372916665743,
      "v": 105
    },
    {
      "midi": 58,
      "hit": false,
      "t": 43445.52585416668,
      "d": 496.7950208333277,
      "v": 101
    },
    {
      "midi": 55,
      "hit": false,
      "t": 43445.52585416668,
      "d": 552.8847812499953,
      "v": 114
    },
    {
      "midi": 48,
      "hit": false,
      "t": 43453.53867708334,
      "d": 344.55138541666383,
      "v": 105
    },
    {
      "midi": 36,
      "hit": false,
      "t": 43830.14135416667,
      "d": 240.38468750000175,
      "v": 88
    },
    {
      "midi": 43,
      "hit": false,
      "t": 44086.5516875,
      "d": 96.15387499999633,
      "v": 80
    },
    {
      "midi": 55,
      "hit": false,
      "t": 44214.75685416667,
      "d": 72.11540624999907,
      "v": 108
    },
    {
      "midi": 48,
      "hit": false,
      "t": 44214.75685416667,
      "d": 120.19234375000087,
      "v": 105
    },
    {
      "midi": 63,
      "hit": false,
      "t": 44214.75685416667,
      "d": 208.33339583333145,
      "v": 105
    },
    {
      "midi": 58,
      "hit": false,
      "t": 44214.75685416667,
      "d": 232.37186458332872,
      "v": 105
    },
    {
      "midi": 55,
      "hit": false,
      "t": 44471.167187499996,
      "d": 72.11540624999907,
      "v": 98
    },
    {
      "midi": 48,
      "hit": false,
      "t": 44471.167187499996,
      "d": 96.15387499999633,
      "v": 66
    },
    {
      "midi": 62,
      "hit": false,
      "t": 44599.37235416666,
      "d": 88.14105208333058,
      "v": 105
    },
    {
      "midi": 58,
      "hit": false,
      "t": 44599.37235416666,
      "d": 96.15387499999633,
      "v": 92
    },
    {
      "midi": 36,
      "hit": false,
      "t": 44607.38517708333,
      "d": 344.55138541666383,
      "v": 101
    },
    {
      "midi": 62,
      "hit": false,
      "t": 44983.98785416666,
      "d": 528.846312499998,
      "v": 108
    },
    {
      "midi": 53,
      "hit": false,
      "t": 44983.98785416666,
      "d": 576.9232499999998,
      "v": 105
    },
    {
      "midi": 58,
      "hit": false,
      "t": 44983.98785416666,
      "d": 576.9232499999998,
      "v": 101
    },
    {
      "midi": 48,
      "hit": false,
      "t": 44992.00067708333,
      "d": 288.46162500000355,
      "v": 92
    },
    {
      "midi": 36,
      "hit": false,
      "t": 45368.60335416666,
      "d": 240.38468750000175,
      "v": 86
    },
    {
      "midi": 43,
      "hit": false,
      "t": 45625.013687499995,
      "d": 72.11540624999907,
      "v": 75
    },
    {
      "midi": 53,
      "hit": false,
      "t": 45753.21885416666,
      "d": 96.15387499999633,
      "v": 108
    },
    {
      "midi": 62,
      "hit": false,
      "t": 45753.21885416666,
      "d": 192.30774999999267,
      "v": 119
    },
    {
      "midi": 58,
      "hit": false,
      "t": 45753.21885416666,
      "d": 216.34621874998993,
      "v": 105
    },
    {
      "midi": 48,
      "hit": false,
      "t": 45761.23167708333,
      "d": 96.15387499999633,
      "v": 95
    },
    {
      "midi": 48,
      "hit": false,
      "t": 46009.62918749999,
      "d": 64.10258333333331,
      "v": 88
    },
    {
      "midi": 53,
      "hit": false,
      "t": 46009.62918749999,
      "d": 88.14105208333058,
      "v": 88
    },
    {
      "midi": 57,
      "hit": false,
      "t": 46137.834354166655,
      "d": 72.11540624999907,
      "v": 105
    },
    {
      "midi": 60,
      "hit": false,
      "t": 46137.834354166655,
      "d": 128.20516666666663,
      "v": 92
    },
    {
      "midi": 53,
      "hit": false,
      "t": 46145.84717708332,
      "d": 88.14105208333058,
      "v": 73
    },
    {
      "midi": 36,
      "hit": false,
      "t": 46145.84717708332,
      "d": 336.5385624999981,
      "v": 90
    },
    {
      "midi": 48,
      "hit": false,
      "t": 46522.449854166654,
      "d": 320.51291666666657,
      "v": 105
    },
    {
      "midi": 53,
      "hit": false,
      "t": 46522.449854166654,
      "d": 600.9617187499971,
      "v": 105
    },
    {
      "midi": 57,
      "hit": false,
      "t": 46522.449854166654,
      "d": 600.9617187499971,
      "v": 119
    },
    {
      "midi": 60,
      "hit": false,
      "t": 46522.449854166654,
      "d": 649.0386562499989,
      "v": 114
    },
    {
      "midi": 36,
      "hit": false,
      "t": 46907.065354166654,
      "d": 344.5513854166711,
      "v": 92
    },
    {
      "midi": 43,
      "hit": false,
      "t": 47163.47568749999,
      "d": 48.076937500001804,
      "v": 73
    },
    {
      "midi": 53,
      "hit": false,
      "t": 47291.68085416666,
      "d": 104.16669791666936,
      "v": 92
    },
    {
      "midi": 48,
      "hit": false,
      "t": 47291.68085416666,
      "d": 112.17952083333512,
      "v": 101
    },
    {
      "midi": 60,
      "hit": false,
      "t": 47291.68085416666,
      "d": 192.30774999999994,
      "v": 95
    },
    {
      "midi": 57,
      "hit": false,
      "t": 47291.68085416666,
      "d": 208.33339583333145,
      "v": 105
    },
    {
      "midi": 53,
      "hit": false,
      "t": 47564.116833333326,
      "d": 80.12822916666482,
      "v": 90
    },
    {
      "midi": 48,
      "hit": false,
      "t": 47564.116833333326,
      "d": 88.14105208333058,
      "v": 90
    },
    {
      "midi": 64,
      "hit": false,
      "t": 47676.296354166654,
      "d": 56.08976041666756,
      "v": 86
    },
    {
      "midi": 55,
      "hit": false,
      "t": 47676.296354166654,
      "d": 80.12822916666482,
      "v": 108
    },
    {
      "midi": 60,
      "hit": false,
      "t": 47676.296354166654,
      "d": 120.19234375000087,
      "v": 98
    },
    {
      "midi": 36,
      "hit": false,
      "t": 47676.296354166654,
      "d": 400.6411458333314,
      "v": 98
    },
    {
      "midi": 48,
      "hit": false,
      "t": 48060.911854166654,
      "d": 312.5000937500008,
      "v": 101
    },
    {
      "midi": 55,
      "hit": false,
      "t": 48060.911854166654,
      "d": 360.5770312500026,
      "v": 119
    },
    {
      "midi": 64,
      "hit": false,
      "t": 48060.911854166654,
      "d": 424.6796145833432,
      "v": 105
    },
    {
      "midi": 60,
      "hit": false,
      "t": 48060.911854166654,
      "d": 480.76937500001077,
      "v": 108
    },
    {
      "midi": 36,
      "hit": false,
      "t": 48453.54017708333,
      "d": 264.4231562500063,
      "v": 95
    },
    {
      "midi": 48,
      "hit": false,
      "t": 48701.9376875,
      "d": 56.08976041666756,
      "v": 88
    },
    {
      "midi": 55,
      "hit": false,
      "t": 48701.9376875,
      "d": 72.11540624999907,
      "v": 98
    },
    {
      "midi": 60,
      "hit": false,
      "t": 48830.14285416667,
      "d": 104.16669791666936,
      "v": 105
    },
    {
      "midi": 64,
      "hit": false,
      "t": 48830.14285416667,
      "d": 120.19234375000087,
      "v": 101
    },
    {
      "midi": 55,
      "hit": false,
      "t": 48838.155677083334,
      "d": 112.17952083333512,
      "v": 92
    },
    {
      "midi": 60,
      "hit": false,
      "t": 49094.56601041667,
      "d": 48.076937500001804,
      "v": 67
    },
    {
      "midi": 64,
      "hit": false,
      "t": 49094.56601041667,
      "d": 56.08976041666756,
      "v": 86
    },
    {
      "midi": 48,
      "hit": false,
      "t": 49094.56601041667,
      "d": 72.11540624999907,
      "v": 83
    },
    {
      "midi": 53,
      "hit": false,
      "t": 49222.771177083334,
      "d": 152.2436354166639,
      "v": 92
    },
    {
      "midi": 58,
      "hit": false,
      "t": 49222.771177083334,
      "d": 152.2436354166639,
      "v": 105
    },
    {
      "midi": 62,
      "hit": false,
      "t": 49222.771177083334,
      "d": 272.43597916666477,
      "v": 108
    },
    {
      "midi": 36,
      "hit": false,
      "t": 49238.796822916665,
      "d": 352.56420833333686,
      "v": 95
    },
    {
      "midi": 53,
      "hit": false,
      "t": 49599.37385416667,
      "d": 224.35904166667024,
      "v": 108
    },
    {
      "midi": 58,
      "hit": false,
      "t": 49599.37385416667,
      "d": 248.3975104166675,
      "v": 114
    },
    {
      "midi": 60,
      "hit": false,
      "t": 49599.37385416667,
      "d": 256.41033333333326,
      "v": 105
    },
    {
      "midi": 48,
      "hit": false,
      "t": 49599.37385416667,
      "d": 280.4488020833305,
      "v": 92
    },
    {
      "midi": 58,
      "hit": false,
      "t": 49983.98935416667,
      "d": 264.423156249999,
      "v": 77
    },
    {
      "midi": 60,
      "hit": false,
      "t": 49992.002177083334,
      "d": 168.26928125000268,
      "v": 81
    },
    {
      "midi": 53,
      "hit": false,
      "t": 49992.002177083334,
      "d": 192.30774999999994,
      "v": 69
    },
    {
      "midi": 36,
      "hit": false,
      "t": 49992.002177083334,
      "d": 400.6411458333314,
      "v": 83
    },
    {
      "midi": 53,
      "hit": false,
      "t": 50376.61767708333,
      "d": 208.33339583333145,
      "v": 108
    },
    {
      "midi": 58,
      "hit": false,
      "t": 50376.61767708333,
      "d": 208.33339583333145,
      "v": 105
    },
    {
      "midi": 60,
      "hit": false,
      "t": 50376.61767708333,
      "d": 216.3462187499972,
      "v": 105
    },
    {
      "midi": 48,
      "hit": false,
      "t": 50376.61767708333,
      "d": 328.52573958332505,
      "v": 105
    },
    {
      "midi": 53,
      "hit": false,
      "t": 50753.22035416666,
      "d": 240.38468750000175,
      "v": 72
    },
    {
      "midi": 60,
      "hit": false,
      "t": 50761.233177083326,
      "d": 192.30774999999994,
      "v": 80
    },
    {
      "midi": 58,
      "hit": false,
      "t": 50761.233177083326,
      "d": 232.371864583336,
      "v": 58
    },
    {
      "midi": 36,
      "hit": false,
      "t": 50761.233177083326,
      "d": 384.6154999999999,
      "v": 88
    },
    {
      "midi": 58,
      "hit": false,
      "t": 51137.83585416666,
      "d": 200.3205729166657,
      "v": 105
    },
    {
      "midi": 53,
      "hit": false,
      "t": 51145.848677083326,
      "d": 192.30774999999994,
      "v": 108
    },
    {
      "midi": 60,
      "hit": false,
      "t": 51145.848677083326,
      "d": 216.3462187499972,
      "v": 108
    },
    {
      "midi": 48,
      "hit": false,
      "t": 51145.848677083326,
      "d": 328.5257395833323,
      "v": 114
    },
    {
      "midi": 58,
      "hit": false,
      "t": 51522.45135416666,
      "d": 152.2436354166639,
      "v": 90
    },
    {
      "midi": 60,
      "hit": false,
      "t": 51522.45135416666,
      "d": 168.2692812499954,
      "v": 92
    },
    {
      "midi": 36,
      "hit": false,
      "t": 51522.45135416666,
      "d": 360.57703124998807,
      "v": 98
    },
    {
      "midi": 53,
      "hit": false,
      "t": 51530.464177083326,
      "d": 168.2692812499954,
      "v": 95
    },
    {
      "midi": 58,
      "hit": false,
      "t": 51778.861687499986,
      "d": 376.60267708333413,
      "v": 105
    },
    {
      "midi": 53,
      "hit": false,
      "t": 51794.88733333332,
      "d": 168.26928125000268,
      "v": 90
    },
    {
      "midi": 62,
      "hit": false,
      "t": 51794.88733333332,
      "d": 336.53856250000536,
      "v": 119
    },
    {
      "midi": 48,
      "hit": false,
      "t": 51915.07967708332,
      "d": 288.46162500000355,
      "v": 92
    },
    {
      "midi": 53,
      "hit": false,
      "t": 52163.477187499986,
      "d": 80.12822916666482,
      "v": 84
    },
    {
      "midi": 55,
      "hit": false,
      "t": 52291.68235416665,
      "d": 136.21798958333238,
      "v": 119
    },
    {
      "midi": 62,
      "hit": false,
      "t": 52291.68235416665,
      "d": 232.371864583336,
      "v": 108
    },
    {
      "midi": 36,
      "hit": false,
      "t": 52291.68235416665,
      "d": 384.6154999999999,
      "v": 84
    },
    {
      "midi": 55,
      "hit": false,
      "t": 52676.29785416665,
      "d": 224.35904166666296,
      "v": 119
    },
    {
      "midi": 60,
      "hit": false,
      "t": 52684.31067708332,
      "d": 216.3462187499972,
      "v": 114
    },
    {
      "midi": 48,
      "hit": false,
      "t": 52684.31067708332,
      "d": 312.5000937500008,
      "v": 95
    },
    {
      "midi": 55,
      "hit": false,
      "t": 53068.92617708332,
      "d": 248.3975104166675,
      "v": 80
    },
    {
      "midi": 60,
      "hit": false,
      "t": 53068.92617708332,
      "d": 248.3975104166675,
      "v": 76
    },
    {
      "midi": 36,
      "hit": false,
      "t": 53068.92617708332,
      "d": 408.6539687500044,
      "v": 86
    },
    {
      "midi": 55,
      "hit": false,
      "t": 53445.52885416665,
      "d": 256.41033333334053,
      "v": 114
    },
    {
      "midi": 60,
      "hit": false,
      "t": 53445.52885416665,
      "d": 256.41033333334053,
      "v": 101
    },
    {
      "midi": 48,
      "hit": false,
      "t": 53445.52885416665,
      "d": 384.61550000000716,
      "v": 114
    },
    {
      "midi": 55,
      "hit": false,
      "t": 53838.157177083325,
      "d": 216.3462187499972,
      "v": 80
    },
    {
      "midi": 60,
      "hit": false,
      "t": 53838.157177083325,
      "d": 224.35904166666296,
      "v": 75
    },
    {
      "midi": 36,
      "hit": false,
      "t": 53838.157177083325,
      "d": 408.65396874999715,
      "v": 83
    },
    {
      "midi": 55,
      "hit": false,
      "t": 54222.772677083325,
      "d": 216.3462187499972,
      "v": 108
    },
    {
      "midi": 60,
      "hit": false,
      "t": 54222.772677083325,
      "d": 216.3462187499972,
      "v": 98
    },
    {
      "midi": 48,
      "hit": false,
      "t": 54222.772677083325,
      "d": 328.5257395833323,
      "v": 101
    },
    {
      "midi": 55,
      "hit": false,
      "t": 54607.388177083325,
      "d": 120.19234375000087,
      "v": 108
    },
    {
      "midi": 60,
      "hit": false,
      "t": 54607.388177083325,
      "d": 304.48727083333506,
      "v": 105
    },
    {
      "midi": 36,
      "hit": false,
      "t": 54607.388177083325,
      "d": 376.60267708333413,
      "v": 98
    },
    {
      "midi": 55,
      "hit": false,
      "t": 54855.78568749999,
      "d": 200.3205729166657,
      "v": 88
    },
    {
      "midi": 48,
      "hit": false,
      "t": 54992.003677083325,
      "d": 320.51291666666657,
      "v": 92
    },
    {
      "midi": 55,
      "hit": false,
      "t": 55248.41401041666,
      "d": 56.08976041666756,
      "v": 86
    },
    {
      "midi": 36,
      "hit": false,
      "t": 55368.60635416666,
      "d": 288.4616249999963,
      "v": 98
    },
    {
      "midi": 63,
      "hit": false,
      "t": 55376.619177083325,
      "d": 56.08976041666756,
      "v": 92
    },
    {
      "midi": 58,
      "hit": false,
      "t": 55376.619177083325,
      "d": 64.10258333333331,
      "v": 101
    },
    {
      "midi": 55,
      "hit": false,
      "t": 55376.619177083325,
      "d": 88.14105208333058,
      "v": 98
    },
    {
      "midi": 48,
      "hit": false,
      "t": 55761.234677083325,
      "d": 296.4744479166693,
      "v": 105
    },
    {
      "midi": 63,
      "hit": false,
      "t": 55761.234677083325,
      "d": 496.795020833335,
      "v": 105
    },
    {
      "midi": 58,
      "hit": false,
      "t": 55761.234677083325,
      "d": 512.8206666666665,
      "v": 101
    },
    {
      "midi": 55,
      "hit": false,
      "t": 55761.234677083325,
      "d": 536.8591354166638,
      "v": 114
    },
    {
      "midi": 36,
      "hit": false,
      "t": 56145.850177083325,
      "d": 240.38468749999447,
      "v": 92
    },
    {
      "midi": 43,
      "hit": false,
      "t": 56402.26051041665,
      "d": 56.08976041666756,
      "v": 81
    },
    {
      "midi": 63,
      "hit": false,
      "t": 56522.45285416665,
      "d": 192.30774999999994,
      "v": 101
    },
    {
      "midi": 58,
      "hit": false,
      "t": 56522.45285416665,
      "d": 200.3205729166657,
      "v": 114
    },
    {
      "midi": 48,
      "hit": false,
      "t": 56530.46567708332,
      "d": 240.38468750000175,
      "v": 105
    },
    {
      "midi": 55,
      "hit": false,
      "t": 56778.863187499985,
      "d": 72.11540624999907,
      "v": 90
    },
    {
      "midi": 43,
      "hit": false,
      "t": 56786.87601041665,
      "d": 56.08976041666756,
      "v": 84
    },
    {
      "midi": 62,
      "hit": false,
      "t": 56907.06835416665,
      "d": 88.14105208333058,
      "v": 101
    },
    {
      "midi": 58,
      "hit": false,
      "t": 56907.06835416665,
      "d": 104.16669791666209,
      "v": 105
    },
    {
      "midi": 36,
      "hit": false,
      "t": 56907.06835416665,
      "d": 328.5257395833323,
      "v": 105
    },
    {
      "midi": 58,
      "hit": false,
      "t": 57291.68385416665,
      "d": 560.8976041666683,
      "v": 101
    },
    {
      "midi": 53,
      "hit": false,
      "t": 57291.68385416665,
      "d": 576.9232499999998,
      "v": 101
    },
    {
      "midi": 48,
      "hit": false,
      "t": 57299.69667708332,
      "d": 296.4744479166693,
      "v": 108
    },
    {
      "midi": 62,
      "hit": false,
      "t": 57299.69667708332,
      "d": 536.859135416671,
      "v": 105
    },
    {
      "midi": 36,
      "hit": false,
      "t": 57692.32499999999,
      "d": 272.43597916666477,
      "v": 92
    },
    {
      "midi": 43,
      "hit": false,
      "t": 57932.709687499984,
      "d": 72.11540625000634,
      "v": 69
    },
    {
      "midi": 48,
      "hit": false,
      "t": 58060.91485416666,
      "d": 88.14105208333058,
      "v": 98
    },
    {
      "midi": 53,
      "hit": false,
      "t": 58060.91485416666,
      "d": 96.15387499999633,
      "v": 108
    },
    {
      "midi": 62,
      "hit": false,
      "t": 58060.91485416666,
      "d": 192.30774999999994,
      "v": 105
    },
    {
      "midi": 58,
      "hit": false,
      "t": 58060.91485416666,
      "d": 208.33339583333145,
      "v": 101
    },
    {
      "midi": 53,
      "hit": false,
      "t": 58317.32518749999,
      "d": 112.17952083332784,
      "v": 84
    },
    {
      "midi": 48,
      "hit": false,
      "t": 58325.33801041666,
      "d": 88.14105208333058,
      "v": 75
    },
    {
      "midi": 57,
      "hit": false,
      "t": 58445.53035416665,
      "d": 64.10258333333331,
      "v": 105
    },
    {
      "midi": 60,
      "hit": false,
      "t": 58445.53035416665,
      "d": 96.15387500000361,
      "v": 92
    },
    {
      "midi": 36,
      "hit": false,
      "t": 58453.54317708332,
      "d": 376.6026770833414,
      "v": 95
    },
    {
      "midi": 48,
      "hit": false,
      "t": 58838.158677083324,
      "d": 304.48727083333506,
      "v": 98
    },
    {
      "midi": 57,
      "hit": false,
      "t": 58838.158677083324,
      "d": 552.8847812500026,
      "v": 114
    },
    {
      "midi": 53,
      "hit": false,
      "t": 58838.158677083324,
      "d": 568.9104270833341,
      "v": 105
    },
    {
      "midi": 60,
      "hit": false,
      "t": 58838.158677083324,
      "d": 584.9360729166656,
      "v": 105
    },
    {
      "midi": 36,
      "hit": false,
      "t": 59222.77417708332,
      "d": 280.4488020833378,
      "v": 90
    },
    {
      "midi": 43,
      "hit": false,
      "t": 59471.17168749999,
      "d": 64.10258333334059,
      "v": 77
    },
    {
      "midi": 53,
      "hit": false,
      "t": 59599.376854166665,
      "d": 80.12822916666482,
      "v": 95
    },
    {
      "midi": 48,
      "hit": false,
      "t": 59599.376854166665,
      "d": 104.16669791666209,
      "v": 98
    },
    {
      "midi": 57,
      "hit": false,
      "t": 59599.376854166665,
      "d": 152.2436354166639,
      "v": 105
    },
    {
      "midi": 60,
      "hit": false,
      "t": 59599.376854166665,
      "d": 224.35904166666296,
      "v": 95
    },
    {
      "midi": 53,
      "hit": false,
      "t": 59855.7871875,
      "d": 40.06411458333605,
      "v": 83
    },
    {
      "midi": 48,
      "hit": false,
      "t": 59863.800010416664,
      "d": 72.11540625000634,
      "v": 83
    },
    {
      "midi": 64,
      "hit": false,
      "t": 59983.99235416667,
      "d": 88.14105208333058,
      "v": 95
    },
    {
      "midi": 55,
      "hit": false,
      "t": 59983.99235416667,
      "d": 96.15387499999633,
      "v": 98
    },
    {
      "midi": 60,
      "hit": false,
      "t": 59983.99235416667,
      "d": 128.20516666666663,
      "v": 92
    },
    {
      "midi": 36,
      "hit": false,
      "t": 59992.00517708334,
      "d": 344.5513854166711,
      "v": 92
    },
    {
      "midi": 48,
      "hit": false,
      "t": 60376.620677083345,
      "d": 296.4744479166693,
      "v": 98
    },
    {
      "midi": 64,
      "hit": false,
      "t": 60376.620677083345,
      "d": 440.70526041666744,
      "v": 98
    },
    {
      "midi": 60,
      "hit": false,
      "t": 60376.620677083345,
      "d": 480.7693750000035,
      "v": 114
    },
    {
      "midi": 55,
      "hit": false,
      "t": 60376.620677083345,
      "d": 504.80784375000076,
      "v": 119
    },
    {
      "midi": 36,
      "hit": false,
      "t": 60753.22335416668,
      "d": 248.3975104166675,
      "v": 81
    },
    {
      "midi": 43,
      "hit": false,
      "t": 61017.64651041668,
      "d": 48.076937500001804,
      "v": 66
    },
    {
      "midi": 48,
      "hit": false,
      "t": 61145.851677083345,
      "d": 88.14105208333058,
      "v": 92
    },
    {
      "midi": 55,
      "hit": false,
      "t": 61145.851677083345,
      "d": 152.2436354166639,
      "v": 108
    },
    {
      "midi": 60,
      "hit": false,
      "t": 61145.851677083345,
      "d": 152.2436354166639,
      "v": 101
    },
    {
      "midi": 64,
      "hit": false,
      "t": 61145.851677083345,
      "d": 152.2436354166639,
      "v": 108
    },
    {
      "midi": 60,
      "hit": false,
      "t": 61402.26201041668,
      "d": 56.08976041666756,
      "v": 77
    },
    {
      "midi": 55,
      "hit": false,
      "t": 61402.26201041668,
      "d": 64.10258333333331,
      "v": 92
    },
    {
      "midi": 48,
      "hit": false,
      "t": 61402.26201041668,
      "d": 72.11540624999907,
      "v": 83
    },
    {
      "midi": 64,
      "hit": false,
      "t": 61402.26201041668,
      "d": 72.11540624999907,
      "v": 86
    },
    {
      "midi": 62,
      "hit": false,
      "t": 61530.467177083345,
      "d": 272.4359791666575,
      "v": 101
    },
    {
      "midi": 58,
      "hit": false,
      "t": 61538.48000000001,
      "d": 176.28210416666116,
      "v": 98
    },
    {
      "midi": 53,
      "hit": false,
      "t": 61546.492822916676,
      "d": 152.2436354166639,
      "v": 77
    },
    {
      "midi": 36,
      "hit": false,
      "t": 61546.492822916676,
      "d": 232.37186458332872,
      "v": 90
    },
    {
      "midi": 60,
      "hit": false,
      "t": 61915.08267708334,
      "d": 208.33339583333145,
      "v": 108
    },
    {
      "midi": 53,
      "hit": false,
      "t": 61915.08267708334,
      "d": 232.37186458332872,
      "v": 108
    },
    {
      "midi": 58,
      "hit": false,
      "t": 61915.08267708334,
      "d": 256.410333333326,
      "v": 114
    },
    {
      "midi": 48,
      "hit": false,
      "t": 61915.08267708334,
      "d": 288.4616249999963,
      "v": 108
    },
    {
      "midi": 60,
      "hit": false,
      "t": 62299.69817708334,
      "d": 144.23081249999814,
      "v": 75
    },
    {
      "midi": 53,
      "hit": false,
      "t": 62299.69817708334,
      "d": 208.33339583333145,
      "v": 68
    },
    {
      "midi": 58,
      "hit": false,
      "t": 62299.69817708334,
      "d": 264.423156249999,
      "v": 51
    },
    {
      "midi": 36,
      "hit": false,
      "t": 62307.711,
      "d": 336.5385624999981,
      "v": 90
    },
    {
      "midi": 53,
      "hit": false,
      "t": 62684.31367708334,
      "d": 192.30774999999994,
      "v": 108
    },
    {
      "midi": 60,
      "hit": false,
      "t": 62684.31367708334,
      "d": 208.33339583333145,
      "v": 114
    },
    {
      "midi": 58,
      "hit": false,
      "t": 62684.31367708334,
      "d": 216.3462187499972,
      "v": 98
    },
    {
      "midi": 48,
      "hit": false,
      "t": 62684.31367708334,
      "d": 344.55138541666383,
      "v": 108
    },
    {
      "midi": 60,
      "hit": false,
      "t": 63068.92917708334,
      "d": 184.2949270833342,
      "v": 83
    },
    {
      "midi": 53,
      "hit": false,
      "t": 63068.92917708334,
      "d": 216.34621875000448,
      "v": 72
    },
    {
      "midi": 58,
      "hit": false,
      "t": 63068.92917708334,
      "d": 216.34621875000448,
      "v": 73
    },
    {
      "midi": 36,
      "hit": false,
      "t": 63068.92917708334,
      "d": 352.56420833333686,
      "v": 83
    },
    {
      "midi": 53,
      "hit": false,
      "t": 63453.544677083344,
      "d": 216.3462187499972,
      "v": 101
    },
    {
      "midi": 58,
      "hit": false,
      "t": 63453.544677083344,
      "d": 248.3975104166675,
      "v": 114
    },
    {
      "midi": 60,
      "hit": false,
      "t": 63453.544677083344,
      "d": 248.3975104166675,
      "v": 105
    },
    {
      "midi": 48,
      "hit": false,
      "t": 63453.544677083344,
      "d": 344.5513854166711,
      "v": 105
    },
    {
      "midi": 58,
      "hit": false,
      "t": 63838.16017708335,
      "d": 120.19234375000087,
      "v": 98
    },
    {
      "midi": 53,
      "hit": false,
      "t": 63838.16017708335,
      "d": 136.21798958333238,
      "v": 105
    },
    {
      "midi": 60,
      "hit": false,
      "t": 63838.16017708335,
      "d": 208.33339583333145,
      "v": 95
    },
    {
      "midi": 36,
      "hit": false,
      "t": 63838.16017708335,
      "d": 312.5000937500008,
      "v": 98
    },
    {
      "midi": 53,
      "hit": false,
      "t": 64086.55768750002,
      "d": 160.25645833332965,
      "v": 98
    },
    {
      "midi": 62,
      "hit": false,
      "t": 64086.55768750002,
      "d": 304.4872708333278,
      "v": 105
    },
    {
      "midi": 58,
      "hit": false,
      "t": 64086.55768750002,
      "d": 384.6154999999926,
      "v": 101
    },
    {
      "midi": 48,
      "hit": false,
      "t": 64222.77567708335,
      "d": 336.5385624999981,
      "v": 92
    },
    {
      "midi": 53,
      "hit": false,
      "t": 64471.17318750001,
      "d": 96.15387500000361,
      "v": 90
    },
    {
      "midi": 36,
      "hit": false,
      "t": 64599.378354166685,
      "d": 384.6154999999926,
      "v": 92
    },
    {
      "midi": 55,
      "hit": false,
      "t": 64607.39117708335,
      "d": 216.3462187499972,
      "v": 105
    },
    {
      "midi": 62,
      "hit": false,
      "t": 64607.39117708335,
      "d": 232.37186458332872,
      "v": 105
    },
    {
      "midi": 55,
      "hit": false,
      "t": 64992.006677083344,
      "d": 288.4616249999963,
      "v": 119
    },
    {
      "midi": 60,
      "hit": false,
      "t": 65000.01950000001,
      "d": 272.43597916666477,
      "v": 108
    },
    {
      "midi": 48,
      "hit": false,
      "t": 65000.01950000001,
      "d": 368.5898541666611,
      "v": 105
    },
    {
      "midi": 60,
      "hit": false,
      "t": 65392.64782291667,
      "d": 192.30775000000722,
      "v": 80
    },
    {
      "midi": 55,
      "hit": false,
      "t": 65392.64782291667,
      "d": 200.32057291668025,
      "v": 75
    },
    {
      "midi": 36,
      "hit": false,
      "t": 65392.64782291667,
      "d": 336.5385625000199,
      "v": 86
    },
    {
      "midi": 55,
      "hit": false,
      "t": 65761.23767708335,
      "d": 248.39751041666023,
      "v": 119
    },
    {
      "midi": 60,
      "hit": false,
      "t": 65761.23767708335,
      "d": 264.42315624999173,
      "v": 101
    },
    {
      "midi": 48,
      "hit": false,
      "t": 65761.23767708335,
      "d": 368.5898541666538,
      "v": 101
    },
    {
      "midi": 55,
      "hit": false,
      "t": 66145.85317708334,
      "d": 200.3205729166657,
      "v": 86
    },
    {
      "midi": 60,
      "hit": false,
      "t": 66145.85317708334,
      "d": 200.3205729166657,
      "v": 77
    },
    {
      "midi": 36,
      "hit": false,
      "t": 66145.85317708334,
      "d": 352.56420833333686,
      "v": 92
    },
    {
      "midi": 55,
      "hit": false,
      "t": 66530.46867708334,
      "d": 200.3205729166657,
      "v": 108
    },
    {
      "midi": 60,
      "hit": false,
      "t": 66530.46867708334,
      "d": 208.33339583333873,
      "v": 105
    },
    {
      "midi": 48,
      "hit": false,
      "t": 66530.46867708334,
      "d": 344.5513854166784,
      "v": 101
    },
    {
      "midi": 55,
      "hit": false,
      "t": 66915.08417708335,
      "d": 104.16669791667664,
      "v": 105
    },
    {
      "midi": 60,
      "hit": false,
      "t": 66915.08417708335,
      "d": 256.4103333333478,
      "v": 101
    },
    {
      "midi": 36,
      "hit": false,
      "t": 66915.08417708335,
      "d": 360.5770312500099,
      "v": 95
    },
    {
      "midi": 55,
      "hit": false,
      "t": 67163.48168750003,
      "d": 152.24363541667117,
      "v": 86
    },
    {
      "midi": 48,
      "hit": false,
      "t": 67291.68685416669,
      "d": 312.5000937500008,
      "v": 90
    },
    {
      "midi": 55,
      "hit": false,
      "t": 67548.09718750003,
      "d": 104.16669791666209,
      "v": 75
    },
    {
      "midi": 36,
      "hit": false,
      "t": 67676.30235416669,
      "d": 392.62832291668747,
      "v": 92
    },
    {
      "midi": 55,
      "hit": false,
      "t": 67684.31517708336,
      "d": 96.15387500000361,
      "v": 114
    },
    {
      "midi": 63,
      "hit": false,
      "t": 67684.31517708336,
      "d": 96.15387500000361,
      "v": 92
    },
    {
      "midi": 58,
      "hit": false,
      "t": 67684.31517708336,
      "d": 104.16669791667664,
      "v": 101
    },
    {
      "midi": 48,
      "hit": false,
      "t": 68068.93067708338,
      "d": 336.53856250000536,
      "v": 105
    },
    {
      "midi": 63,
      "hit": false,
      "t": 68068.93067708338,
      "d": 472.756552083345,
      "v": 101
    },
    {
      "midi": 55,
      "hit": false,
      "t": 68068.93067708338,
      "d": 488.7821979166765,
      "v": 114
    },
    {
      "midi": 58,
      "hit": false,
      "t": 68068.93067708338,
      "d": 496.79502083334955,
      "v": 101
    },
    {
      "midi": 36,
      "hit": false,
      "t": 68445.53335416672,
      "d": 240.38468750000175,
      "v": 90
    },
    {
      "midi": 43,
      "hit": false,
      "t": 68709.95651041673,
      "d": 88.14105208333058,
      "v": 69
    },
    {
      "midi": 55,
      "hit": false,
      "t": 68830.14885416672,
      "d": 96.15387500000361,
      "v": 114
    },
    {
      "midi": 63,
      "hit": false,
      "t": 68830.14885416672,
      "d": 216.3462187499972,
      "v": 101
    },
    {
      "midi": 58,
      "hit": false,
      "t": 68830.14885416672,
      "d": 224.35904166667024,
      "v": 105
    },
    {
      "midi": 48,
      "hit": false,
      "t": 68838.1616770834,
      "d": 88.14105208333058,
      "v": 95
    },
    {
      "midi": 55,
      "hit": false,
      "t": 69086.55918750005,
      "d": 64.10258333334059,
      "v": 95
    },
    {
      "midi": 48,
      "hit": false,
      "t": 69094.57201041673,
      "d": 88.14105208333058,
      "v": 77
    },
    {
      "midi": 58,
      "hit": false,
      "t": 69214.76435416672,
      "d": 112.17952083334967,
      "v": 105
    },
    {
      "midi": 62,
      "hit": false,
      "t": 69222.7771770834,
      "d": 96.15387500000361,
      "v": 98
    },
    {
      "midi": 36,
      "hit": false,
      "t": 69222.7771770834,
      "d": 312.50009375001537,
      "v": 101
    },
    {
      "midi": 48,
      "hit": false,
      "t": 69607.39267708341,
      "d": 304.4872708333278,
      "v": 92
    },
    {
      "midi": 62,
      "hit": false,
      "t": 69607.39267708341,
      "d": 472.75655208333046,
      "v": 119
    },
    {
      "midi": 58,
      "hit": false,
      "t": 69607.39267708341,
      "d": 528.846312499998,
      "v": 101
    },
    {
      "midi": 53,
      "hit": false,
      "t": 69607.39267708341,
      "d": 536.859135416671,
      "v": 108
    },
    {
      "midi": 36,
      "hit": false,
      "t": 69983.99535416673,
      "d": 240.3846875000163,
      "v": 90
    },
    {
      "midi": 43,
      "hit": false,
      "t": 70240.40568750008,
      "d": 80.1282291666721,
      "v": 80
    },
    {
      "midi": 48,
      "hit": false,
      "t": 70368.61085416675,
      "d": 96.15387500000361,
      "v": 92
    },
    {
      "midi": 53,
      "hit": false,
      "t": 70368.61085416675,
      "d": 152.24363541667117,
      "v": 108
    },
    {
      "midi": 62,
      "hit": false,
      "t": 70368.61085416675,
      "d": 216.34621875001176,
      "v": 119
    },
    {
      "midi": 58,
      "hit": false,
      "t": 70368.61085416675,
      "d": 256.4103333333478,
      "v": 105
    },
    {
      "midi": 53,
      "hit": false,
      "t": 70625.0211875001,
      "d": 104.16669791667664,
      "v": 92
    },
    {
      "midi": 48,
      "hit": false,
      "t": 70633.03401041677,
      "d": 80.1282291666721,
      "v": 83
    },
    {
      "midi": 60,
      "hit": false,
      "t": 70753.22635416678,
      "d": 136.21798958333966,
      "v": 95
    },
    {
      "midi": 57,
      "hit": false,
      "t": 70761.23917708345,
      "d": 96.15387500000361,
      "v": 114
    },
    {
      "midi": 53,
      "hit": false,
      "t": 70761.23917708345,
      "d": 112.17952083333512,
      "v": 74
    },
    {
      "midi": 36,
      "hit": false,
      "t": 70761.23917708345,
      "d": 360.57703124999534,
      "v": 95
    },
    {
      "midi": 53,
      "hit": false,
      "t": 71137.84185416678,
      "d": 512.8206666666665,
      "v": 108
    },
    {
      "midi": 57,
      "hit": false,
      "t": 71137.84185416678,
      "d": 520.8334895833395,
      "v": 119
    },
    {
      "midi": 60,
      "hit": false,
      "t": 71137.84185416678,
      "d": 552.8847812500026,
      "v": 101
    },
    {
      "midi": 48,
      "hit": false,
      "t": 71145.85467708345,
      "d": 336.53856250000536,
      "v": 98
    },
    {
      "midi": 36,
      "hit": false,
      "t": 71530.47017708345,
      "d": 248.39751041666023,
      "v": 90
    },
    {
      "midi": 43,
      "hit": false,
      "t": 71778.86768750011,
      "d": 64.10258333334059,
      "v": 77
    },
    {
      "midi": 53,
      "hit": false,
      "t": 71907.07285416679,
      "d": 104.16669791667664,
      "v": 105
    },
    {
      "midi": 57,
      "hit": false,
      "t": 71907.07285416679,
      "d": 224.35904166667024,
      "v": 119
    },
    {
      "midi": 60,
      "hit": false,
      "t": 71907.07285416679,
      "d": 256.41033333333326,
      "v": 105
    },
    {
      "midi": 48,
      "hit": false,
      "t": 71915.08567708347,
      "d": 56.08976041666756,
      "v": 80
    },
    {
      "midi": 53,
      "hit": false,
      "t": 72163.48318750013,
      "d": 72.11540624999907,
      "v": 95
    },
    {
      "midi": 48,
      "hit": false,
      "t": 72163.48318750013,
      "d": 96.15387500000361,
      "v": 92
    },
    {
      "midi": 55,
      "hit": false,
      "t": 72291.68835416679,
      "d": 96.15387500000361,
      "v": 101
    },
    {
      "midi": 60,
      "hit": false,
      "t": 72291.68835416679,
      "d": 128.20516666668118,
      "v": 92
    },
    {
      "midi": 64,
      "hit": false,
      "t": 72299.70117708347,
      "d": 96.15387500000361,
      "v": 92
    },
    {
      "midi": 36,
      "hit": false,
      "t": 72299.70117708347,
      "d": 344.5513854166784,
      "v": 98
    },
    {
      "midi": 60,
      "hit": false,
      "t": 72676.3038541668,
      "d": 480.76937500001804,
      "v": 114
    },
    {
      "midi": 55,
      "hit": false,
      "t": 72676.3038541668,
      "d": 536.8591354166856,
      "v": 114
    },
    {
      "midi": 48,
      "hit": false,
      "t": 72684.31667708348,
      "d": 296.4744479166693,
      "v": 105
    },
    {
      "midi": 64,
      "hit": false,
      "t": 72684.31667708348,
      "d": 456.7309062500135,
      "v": 101
    },
    {
      "midi": 36,
      "hit": false,
      "t": 73060.91935416682,
      "d": 248.39751041667478,
      "v": 84
    },
    {
      "midi": 60,
      "hit": false,
      "t": 73445.53485416684,
      "d": 136.21798958333966,
      "v": 101
    },
    {
      "midi": 48,
      "hit": false,
      "t": 73453.54767708351,
      "d": 64.10258333334059,
      "v": 83
    },
    {
      "midi": 64,
      "hit": false,
      "t": 73453.54767708351,
      "d": 112.17952083333512,
      "v": 105
    },
    {
      "midi": 55,
      "hit": false,
      "t": 73453.54767708351,
      "d": 144.23081249999814,
      "v": 105
    },
    {
      "midi": 60,
      "hit": false,
      "t": 73709.95801041684,
      "d": 40.06411458333605,
      "v": 90
    },
    {
      "midi": 64,
      "hit": false,
      "t": 73709.95801041684,
      "d": 56.08976041666756,
      "v": 90
    },
    {
      "midi": 55,
      "hit": false,
      "t": 73709.95801041684,
      "d": 80.1282291666721,
      "v": 98
    },
    {
      "midi": 48,
      "hit": false,
      "t": 73709.95801041684,
      "d": 104.16669791667664,
      "v": 92
    },
    {
      "midi": 58,
      "hit": false,
      "t": 73838.16317708352,
      "d": 152.24363541667117,
      "v": 98
    },
    {
      "midi": 62,
      "hit": false,
      "t": 73838.16317708352,
      "d": 280.4488020833378,
      "v": 105
    },
    {
      "midi": 36,
      "hit": false,
      "t": 73838.16317708352,
      "d": 336.53856250000536,
      "v": 95
    },
    {
      "midi": 58,
      "hit": false,
      "t": 74214.76585416686,
      "d": 256.41033333333326,
      "v": 105
    },
    {
      "midi": 53,
      "hit": false,
      "t": 74214.76585416686,
      "d": 264.4231562500063,
      "v": 108
    },
    {
      "midi": 60,
      "hit": false,
      "t": 74214.76585416686,
      "d": 264.4231562500063,
      "v": 101
    },
    {
      "midi": 48,
      "hit": false,
      "t": 74222.77867708354,
      "d": 296.4744479166693,
      "v": 90
    },
    {
      "midi": 58,
      "hit": false,
      "t": 74599.38135416688,
      "d": 272.4359791666793,
      "v": 73
    },
    {
      "midi": 60,
      "hit": false,
      "t": 74607.39417708355,
      "d": 224.35904166667024,
      "v": 80
    },
    {
      "midi": 53,
      "hit": false,
      "t": 74607.39417708355,
      "d": 248.39751041667478,
      "v": 69
    },
    {
      "midi": 36,
      "hit": false,
      "t": 74607.39417708355,
      "d": 376.6026770833414,
      "v": 77
    },
    {
      "midi": 58,
      "hit": false,
      "t": 74983.9968541669,
      "d": 240.38468750000175,
      "v": 105
    },
    {
      "midi": 53,
      "hit": false,
      "t": 74983.9968541669,
      "d": 264.4231562500063,
      "v": 108
    },
    {
      "midi": 60,
      "hit": false,
      "t": 74983.9968541669,
      "d": 272.4359791666793,
      "v": 108
    },
    {
      "midi": 48,
      "hit": false,
      "t": 74983.9968541669,
      "d": 352.5642083333514,
      "v": 119
    },
    {
      "midi": 53,
      "hit": false,
      "t": 75376.62517708358,
      "d": 216.3462187499972,
      "v": 84
    },
    {
      "midi": 60,
      "hit": false,
      "t": 75376.62517708358,
      "d": 216.3462187499972,
      "v": 80
    },
    {
      "midi": 58,
      "hit": false,
      "t": 75376.62517708358,
      "d": 240.38468750000175,
      "v": 68
    },
    {
      "midi": 36,
      "hit": false,
      "t": 75376.62517708358,
      "d": 280.4488020833378,
      "v": 80
    },
    {
      "midi": 58,
      "hit": false,
      "t": 75761.24067708358,
      "d": 224.35904166667024,
      "v": 101
    },
    {
      "midi": 53,
      "hit": false,
      "t": 75761.24067708358,
      "d": 248.39751041667478,
      "v": 108
    },
    {
      "midi": 60,
      "hit": false,
      "t": 75761.24067708358,
      "d": 256.4103333333478,
      "v": 98
    },
    {
      "midi": 48,
      "hit": false,
      "t": 75761.24067708358,
      "d": 344.5513854166784,
      "v": 108
    },
    {
      "midi": 53,
      "hit": false,
      "t": 76145.8561770836,
      "d": 152.24363541667117,
      "v": 98
    },
    {
      "midi": 60,
      "hit": false,
      "t": 76145.8561770836,
      "d": 184.2949270833342,
      "v": 95
    },
    {
      "midi": 36,
      "hit": false,
      "t": 76145.8561770836,
      "d": 328.5257395833469,
      "v": 98
    },
    {
      "midi": 58,
      "hit": false,
      "t": 76145.8561770836,
      "d": 625.0001875000162,
      "v": 101
    },
    {
      "midi": 53,
      "hit": false,
      "t": 76394.25368750027,
      "d": 184.2949270833342,
      "v": 92
    },
    {
      "midi": 62,
      "hit": false,
      "t": 76394.25368750027,
      "d": 352.56420833333686,
      "v": 105
    },
    {
      "midi": 48,
      "hit": false,
      "t": 76530.47167708361,
      "d": 336.53856250000536,
      "v": 105
    },
    {
      "midi": 53,
      "hit": false,
      "t": 76786.88201041694,
      "d": 88.14105208334513,
      "v": 83
    },
    {
      "midi": 36,
      "hit": false,
      "t": 76907.07435416695,
      "d": 376.60267708335596,
      "v": 92
    },
    {
      "midi": 55,
      "hit": false,
      "t": 76915.08717708362,
      "d": 224.35904166667024,
      "v": 108
    },
    {
      "midi": 62,
      "hit": false,
      "t": 76915.08717708362,
      "d": 232.37186458334327,
      "v": 114
    },
    {
      "midi": 60,
      "hit": false,
      "t": 77299.70267708364,
      "d": 264.4231562500063,
      "v": 108
    },
    {
      "midi": 55,
      "hit": false,
      "t": 77299.70267708364,
      "d": 280.4488020833378,
      "v": 119
    },
    {
      "midi": 48,
      "hit": false,
      "t": 77299.70267708364,
      "d": 384.6154999999999,
      "v": 92
    },
    {
      "midi": 36,
      "hit": false,
      "t": 77684.31817708364,
      "d": 360.5770312500099,
      "v": 73
    },
    {
      "midi": 60,
      "hit": false,
      "t": 77692.33100000031,
      "d": 184.2949270833342,
      "v": 68
    },
    {
      "midi": 55,
      "hit": false,
      "t": 77692.33100000031,
      "d": 200.3205729166657,
      "v": 67
    },
    {
      "midi": 55,
      "hit": false,
      "t": 78068.93367708365,
      "d": 280.4488020833378,
      "v": 114
    },
    {
      "midi": 60,
      "hit": false,
      "t": 78068.93367708365,
      "d": 280.4488020833378,
      "v": 119
    },
    {
      "midi": 48,
      "hit": false,
      "t": 78068.93367708365,
      "d": 344.5513854166784,
      "v": 101
    },
    {
      "midi": 60,
      "hit": false,
      "t": 78453.54917708367,
      "d": 216.3462187499972,
      "v": 86
    },
    {
      "midi": 55,
      "hit": false,
      "t": 78453.54917708367,
      "d": 224.35904166667024,
      "v": 88
    },
    {
      "midi": 36,
      "hit": false,
      "t": 78453.54917708367,
      "d": 392.62832291668747,
      "v": 88
    },
    {
      "midi": 60,
      "hit": false,
      "t": 78830.15185416701,
      "d": 264.4231562500063,
      "v": 108
    },
    {
      "midi": 55,
      "hit": false,
      "t": 78830.15185416701,
      "d": 272.4359791666793,
      "v": 108
    },
    {
      "midi": 48,
      "hit": false,
      "t": 78838.16467708368,
      "d": 360.5770312500099,
      "v": 98
    },
    {
      "midi": 55,
      "hit": false,
      "t": 79222.7801770837,
      "d": 152.24363541667117,
      "v": 105
    },
    {
      "midi": 60,
      "hit": false,
      "t": 79222.7801770837,
      "d": 592.9488958333532,
      "v": 98
    },
    {
      "midi": 36,
      "hit": false,
      "t": 79222.7801770837,
      "d": 616.9873645833577,
      "v": 86
    },
    {
      "midi": 55,
      "hit": false,
      "t": 79471.17768750037,
      "d": 360.5770312500099,
      "v": 98
    },
    {
      "midi": 48,
      "hit": false,
      "t": 79607.39567708371,
      "d": 376.6026770833414,
      "v": 95
    },
    {
      "midi": 67,
      "hit": false,
      "t": 79983.99835416705,
      "d": 200.3205729166657,
      "v": 105
    },
    {
      "midi": 59,
      "hit": false,
      "t": 79983.99835416705,
      "d": 224.35904166667024,
      "v": 119
    },
    {
      "midi": 64,
      "hit": false,
      "t": 79983.99835416705,
      "d": 240.38468750000175,
      "v": 105
    },
    {
      "midi": 64,
      "hit": false,
      "t": 80368.61385416705,
      "d": 657.0514791666646,
      "v": 95
    },
    {
      "midi": 67,
      "hit": false,
      "t": 80376.62667708372,
      "d": 592.9488958333241,
      "v": 105
    },
    {
      "midi": 59,
      "hit": false,
      "t": 80376.62667708372,
      "d": 600.9617187499971,
      "v": 108
    },
    {
      "midi": 52,
      "hit": false,
      "t": 80625.02418750038,
      "d": 288.4616249999963,
      "v": 105
    },
    {
      "midi": 52,
      "hit": false,
      "t": 81009.63968750038,
      "d": 104.16669791666209,
      "v": 90
    },
    {
      "midi": 67,
      "hit": false,
      "t": 81137.84485416705,
      "d": 224.35904166667024,
      "v": 108
    },
    {
      "midi": 59,
      "hit": false,
      "t": 81137.84485416705,
      "d": 232.37186458334327,
      "v": 114
    },
    {
      "midi": 64,
      "hit": false,
      "t": 81137.84485416705,
      "d": 256.4103333333478,
      "v": 105
    },
    {
      "midi": 52,
      "hit": false,
      "t": 81394.2551875004,
      "d": 80.1282291666721,
      "v": 95
    },
    {
      "midi": 59,
      "hit": false,
      "t": 81522.46035416707,
      "d": 128.20516666666663,
      "v": 108
    },
    {
      "midi": 64,
      "hit": false,
      "t": 81522.46035416707,
      "d": 128.20516666666663,
      "v": 84
    },
    {
      "midi": 69,
      "hit": false,
      "t": 81522.46035416707,
      "d": 128.20516666666663,
      "v": 101
    },
    {
      "midi": 59,
      "hit": false,
      "t": 81899.06303125039,
      "d": 608.9745416666701,
      "v": 124
    },
    {
      "midi": 64,
      "hit": false,
      "t": 81899.06303125039,
      "d": 633.0130104166747,
      "v": 105
    },
    {
      "midi": 69,
      "hit": false,
      "t": 81899.06303125039,
      "d": 649.0386562500207,
      "v": 114
    },
    {
      "midi": 52,
      "hit": false,
      "t": 82155.47336458373,
      "d": 320.51291666667385,
      "v": 105
    },
    {
      "midi": 52,
      "hit": false,
      "t": 82540.08886458374,
      "d": 72.11540625001362,
      "v": 83
    },
    {
      "midi": 59,
      "hit": false,
      "t": 82676.3068541671,
      "d": 208.33339583333873,
      "v": 119
    },
    {
      "midi": 69,
      "hit": false,
      "t": 82676.3068541671,
      "d": 224.35904166667024,
      "v": 114
    },
    {
      "midi": 64,
      "hit": false,
      "t": 82676.3068541671,
      "d": 240.38468750000175,
      "v": 105
    },
    {
      "midi": 52,
      "hit": false,
      "t": 82932.71718750043,
      "d": 72.11540624999907,
      "v": 95
    },
    {
      "midi": 60,
      "hit": false,
      "t": 83060.9223541671,
      "d": 136.21798958333966,
      "v": 108
    },
    {
      "midi": 69,
      "hit": false,
      "t": 83060.9223541671,
      "d": 136.21798958333966,
      "v": 114
    },
    {
      "midi": 64,
      "hit": false,
      "t": 83060.9223541671,
      "d": 160.2564583333442,
      "v": 101
    },
    {
      "midi": 60,
      "hit": false,
      "t": 83445.53785416711,
      "d": 625.0001875000016,
      "v": 101
    },
    {
      "midi": 69,
      "hit": false,
      "t": 83445.53785416711,
      "d": 641.0258333333331,
      "v": 114
    },
    {
      "midi": 64,
      "hit": false,
      "t": 83445.53785416711,
      "d": 657.0514791666646,
      "v": 101
    },
    {
      "midi": 57,
      "hit": false,
      "t": 83701.94818750044,
      "d": 256.41033333333326,
      "v": 114
    },
    {
      "midi": 57,
      "hit": false,
      "t": 84086.56368750044,
      "d": 56.08976041666756,
      "v": 101
    },
    {
      "midi": 64,
      "hit": false,
      "t": 84214.76885416711,
      "d": 216.3462187499972,
      "v": 98
    },
    {
      "midi": 69,
      "hit": false,
      "t": 84214.76885416711,
      "d": 232.37186458332872,
      "v": 119
    },
    {
      "midi": 60,
      "hit": false,
      "t": 84214.76885416711,
      "d": 240.38468750000175,
      "v": 108
    },
    {
      "midi": 57,
      "hit": false,
      "t": 84471.17918750044,
      "d": 56.08976041666756,
      "v": 92
    },
    {
      "midi": 71,
      "hit": false,
      "t": 84599.38435416711,
      "d": 128.20516666668118,
      "v": 108
    },
    {
      "midi": 64,
      "hit": false,
      "t": 84607.39717708378,
      "d": 152.24363541668572,
      "v": 101
    },
    {
      "midi": 67,
      "hit": false,
      "t": 84615.41000000045,
      "d": 128.20516666666663,
      "v": 108
    },
    {
      "midi": 60,
      "hit": false,
      "t": 84615.41000000045,
      "d": 136.21798958333966,
      "v": 90
    },
    {
      "midi": 64,
      "hit": false,
      "t": 84983.99985416714,
      "d": 592.9488958333241,
      "v": 101
    },
    {
      "midi": 60,
      "hit": false,
      "t": 84983.99985416714,
      "d": 608.9745416666556,
      "v": 98
    },
    {
      "midi": 71,
      "hit": false,
      "t": 84983.99985416714,
      "d": 608.9745416666556,
      "v": 105
    },
    {
      "midi": 67,
      "hit": false,
      "t": 85000.02550000047,
      "d": 592.9488958333241,
      "v": 101
    },
    {
      "midi": 55,
      "hit": false,
      "t": 85240.41018750047,
      "d": 232.37186458332872,
      "v": 105
    },
    {
      "midi": 55,
      "hit": false,
      "t": 85625.02568750046,
      "d": 48.07693749999453,
      "v": 101
    },
    {
      "midi": 60,
      "hit": false,
      "t": 85753.23085416712,
      "d": 192.30774999999267,
      "v": 98
    },
    {
      "midi": 71,
      "hit": false,
      "t": 85753.23085416712,
      "d": 192.30774999999267,
      "v": 101
    },
    {
      "midi": 64,
      "hit": false,
      "t": 85753.23085416712,
      "d": 304.4872708333278,
      "v": 108
    },
    {
      "midi": 67,
      "hit": false,
      "t": 85769.25650000045,
      "d": 128.20516666666663,
      "v": 108
    },
    {
      "midi": 55,
      "hit": false,
      "t": 86009.64118750046,
      "d": 48.07693749999453,
      "v": 88
    },
    {
      "midi": 69,
      "hit": false,
      "t": 86137.84635416712,
      "d": 160.25645833332965,
      "v": 114
    },
    {
      "midi": 65,
      "hit": false,
      "t": 86137.84635416712,
      "d": 168.26928125000268,
      "v": 114
    },
    {
      "midi": 60,
      "hit": false,
      "t": 86137.84635416712,
      "d": 176.2821041666757,
      "v": 101
    },
    {
      "midi": 60,
      "hit": false,
      "t": 86522.46185416714,
      "d": 633.0130104166601,
      "v": 101
    },
    {
      "midi": 65,
      "hit": false,
      "t": 86522.46185416714,
      "d": 641.0258333333331,
      "v": 108
    },
    {
      "midi": 69,
      "hit": false,
      "t": 86522.46185416714,
      "d": 641.0258333333331,
      "v": 108
    },
    {
      "midi": 53,
      "hit": false,
      "t": 86778.87218750047,
      "d": 256.41033333333326,
      "v": 101
    },
    {
      "midi": 53,
      "hit": false,
      "t": 87171.50051041714,
      "d": 88.14105208333058,
      "v": 90
    },
    {
      "midi": 60,
      "hit": false,
      "t": 87291.69285416714,
      "d": 192.30775000000722,
      "v": 105
    },
    {
      "midi": 65,
      "hit": false,
      "t": 87291.69285416714,
      "d": 224.35904166667024,
      "v": 105
    },
    {
      "midi": 69,
      "hit": false,
      "t": 87291.69285416714,
      "d": 224.35904166667024,
      "v": 114
    },
    {
      "midi": 53,
      "hit": false,
      "t": 87548.10318750047,
      "d": 56.08976041666756,
      "v": 88
    },
    {
      "midi": 72,
      "hit": false,
      "t": 87676.30835416714,
      "d": 144.2308125000127,
      "v": 105
    },
    {
      "midi": 62,
      "hit": false,
      "t": 87676.30835416714,
      "d": 168.26928125001723,
      "v": 105
    },
    {
      "midi": 65,
      "hit": false,
      "t": 87684.32117708381,
      "d": 88.14105208333058,
      "v": 105
    },
    {
      "midi": 69,
      "hit": false,
      "t": 87684.32117708381,
      "d": 128.20516666666663,
      "v": 92
    },
    {
      "midi": 72,
      "hit": false,
      "t": 88060.92385416715,
      "d": 576.9232499999925,
      "v": 105
    },
    {
      "midi": 65,
      "hit": false,
      "t": 88060.92385416715,
      "d": 592.9488958333241,
      "v": 114
    },
    {
      "midi": 69,
      "hit": false,
      "t": 88060.92385416715,
      "d": 616.9873645833286,
      "v": 108
    },
    {
      "midi": 62,
      "hit": false,
      "t": 88060.92385416715,
      "d": 625.0001875000016,
      "v": 114
    },
    {
      "midi": 53,
      "hit": false,
      "t": 88317.33418750048,
      "d": 232.37186458332872,
      "v": 101
    },
    {
      "midi": 53,
      "hit": false,
      "t": 88333.35983333335,
      "d": 120.19234375000815,
      "v": 91
    },
    {
      "midi": 53,
      "hit": false,
      "t": 88461.56500000003,
      "d": 256.41033333333326,
      "v": 91
    },
    {
      "midi": 53,
      "hit": false,
      "t": 88701.94968750048,
      "d": 96.15387500000361,
      "v": 95
    },
    {
      "midi": 57,
      "hit": false,
      "t": 88717.97533333336,
      "d": 128.20516666666663,
      "v": 90
    },
    {
      "midi": 69,
      "hit": false,
      "t": 88830.15485416715,
      "d": 192.30775000000722,
      "v": 98
    },
    {
      "midi": 62,
      "hit": false,
      "t": 88830.15485416715,
      "d": 224.3590416666848,
      "v": 101
    },
    {
      "midi": 72,
      "hit": false,
      "t": 88830.15485416715,
      "d": 224.3590416666848,
      "v": 108
    },
    {
      "midi": 65,
      "hit": false,
      "t": 88838.16767708382,
      "d": 208.33339583333873,
      "v": 119
    },
    {
      "midi": 58,
      "hit": false,
      "t": 88846.18050000003,
      "d": 1923.0774999999994,
      "v": 89
    },
    {
      "midi": 53,
      "hit": false,
      "t": 89086.5651875005,
      "d": 72.11540624999907,
      "v": 86
    },
    {
      "midi": 62,
      "hit": false,
      "t": 89222.78317708384,
      "d": 152.24363541667117,
      "v": 101
    },
    {
      "midi": 65,
      "hit": false,
      "t": 89222.78317708384,
      "d": 152.24363541667117,
      "v": 114
    },
    {
      "midi": 70,
      "hit": false,
      "t": 89222.78317708384,
      "d": 152.24363541667117,
      "v": 101
    },
    {
      "midi": 65,
      "hit": false,
      "t": 89599.38585416718,
      "d": 584.9360729166656,
      "v": 124
    },
    {
      "midi": 62,
      "hit": false,
      "t": 89599.38585416718,
      "d": 600.9617187499971,
      "v": 114
    },
    {
      "midi": 70,
      "hit": false,
      "t": 89599.38585416718,
      "d": 608.9745416666701,
      "v": 105
    },
    {
      "midi": 58,
      "hit": false,
      "t": 89855.79618750051,
      "d": 240.38468750000175,
      "v": 101
    },
    {
      "midi": 58,
      "hit": false,
      "t": 90240.41168750051,
      "d": 56.08976041666756,
      "v": 92
    },
    {
      "midi": 62,
      "hit": false,
      "t": 90368.61685416718,
      "d": 200.3205729166657,
      "v": 114
    },
    {
      "midi": 65,
      "hit": false,
      "t": 90368.61685416718,
      "d": 224.35904166667024,
      "v": 114
    },
    {
      "midi": 70,
      "hit": false,
      "t": 90368.61685416718,
      "d": 256.41033333333326,
      "v": 98
    },
    {
      "midi": 58,
      "hit": false,
      "t": 90625.02718750051,
      "d": 32.05129166666302,
      "v": 74
    },
    {
      "midi": 60,
      "hit": false,
      "t": 90753.23235416718,
      "d": 160.2564583333442,
      "v": 101
    },
    {
      "midi": 65,
      "hit": false,
      "t": 90761.24517708385,
      "d": 128.20516666666663,
      "v": 108
    },
    {
      "midi": 69,
      "hit": false,
      "t": 90761.24517708385,
      "d": 152.24363541667117,
      "v": 105
    },
    {
      "midi": 57,
      "hit": false,
      "t": 90769.25800000003,
      "d": 1153.8464999999997,
      "v": 85
    },
    {
      "midi": 60,
      "hit": false,
      "t": 91137.8478541672,
      "d": 600.9617187500116,
      "v": 108
    },
    {
      "midi": 65,
      "hit": false,
      "t": 91137.8478541672,
      "d": 608.9745416666847,
      "v": 114
    },
    {
      "midi": 69,
      "hit": false,
      "t": 91137.8478541672,
      "d": 625.0001875000162,
      "v": 114
    },
    {
      "midi": 57,
      "hit": false,
      "t": 91394.25818750053,
      "d": 208.33339583333873,
      "v": 119
    },
    {
      "midi": 57,
      "hit": false,
      "t": 91778.87368750054,
      "d": 48.07693749999453,
      "v": 101
    },
    {
      "midi": 60,
      "hit": false,
      "t": 91907.07885416721,
      "d": 176.28210416666116,
      "v": 110
    },
    {
      "midi": 69,
      "hit": false,
      "t": 91907.07885416721,
      "d": 248.39751041666023,
      "v": 116
    },
    {
      "midi": 65,
      "hit": false,
      "t": 91907.07885416721,
      "d": 288.4616249999963,
      "v": 117
    },
    {
      "midi": 57,
      "hit": false,
      "t": 92163.48918750054,
      "d": 48.07693749999453,
      "v": 101
    },
    {
      "midi": 67,
      "hit": false,
      "t": 92291.69435416721,
      "d": 104.16669791666209,
      "v": 111
    },
    {
      "midi": 71,
      "hit": false,
      "t": 92291.69435416721,
      "d": 128.20516666666663,
      "v": 111
    },
    {
      "midi": 62,
      "hit": false,
      "t": 92291.69435416721,
      "d": 152.24363541667117,
      "v": 108
    },
    {
      "midi": 64,
      "hit": false,
      "t": 92564.13033333336,
      "d": 128.20516666666663,
      "v": 90
    },
    {
      "midi": 71,
      "hit": false,
      "t": 92676.30985416721,
      "d": 560.8976041666756,
      "v": 114
    },
    {
      "midi": 62,
      "hit": false,
      "t": 92676.30985416721,
      "d": 600.9617187500116,
      "v": 111
    },
    {
      "midi": 67,
      "hit": false,
      "t": 92676.30985416721,
      "d": 625.0001875000162,
      "v": 119
    },
    {
      "midi": 71,
      "hit": false,
      "t": 92692.33550000003,
      "d": 248.39751041666023,
      "v": 90
    },
    {
      "midi": 55,
      "hit": false,
      "t": 92932.72018750054,
      "d": 240.38468750000175,
      "v": 101
    },
    {
      "midi": 71,
      "hit": false,
      "t": 92948.74583333336,
      "d": 120.1923437499936,
      "v": 90
    },
    {
      "midi": 71,
      "hit": false,
      "t": 93076.95100000003,
      "d": 376.60267708332685,
      "v": 90
    },
    {
      "midi": 55,
      "hit": false,
      "t": 93317.33568750056,
      "d": 64.10258333334059,
      "v": 92
    },
    {
      "midi": 67,
      "hit": false,
      "t": 93445.54085416724,
      "d": 192.30775000000722,
      "v": 108
    },
    {
      "midi": 71,
      "hit": false,
      "t": 93445.54085416724,
      "d": 192.30775000000722,
      "v": 105
    },
    {
      "midi": 62,
      "hit": false,
      "t": 93445.54085416724,
      "d": 264.42315625002084,
      "v": 105
    },
    {
      "midi": 71,
      "hit": false,
      "t": 93461.56650000003,
      "d": 248.39751041666023,
      "v": 90
    },
    {
      "midi": 55,
      "hit": false,
      "t": 93701.95118750058,
      "d": 56.08976041666756,
      "v": 95
    },
    {
      "midi": 71,
      "hit": false,
      "t": 93717.97683333336,
      "d": 120.1923437499936,
      "v": 91
    },
    {
      "midi": 67,
      "hit": false,
      "t": 93830.15635416725,
      "d": 128.20516666666663,
      "v": 105
    },
    {
      "midi": 71,
      "hit": false,
      "t": 93830.15635416725,
      "d": 128.20516666666663,
      "v": 101
    },
    {
      "midi": 64,
      "hit": false,
      "t": 93830.15635416725,
      "d": 152.24363541667117,
      "v": 105
    },
    {
      "midi": 71,
      "hit": false,
      "t": 93846.18200000003,
      "d": 376.60267708332685,
      "v": 92
    },
    {
      "midi": 71,
      "hit": false,
      "t": 94214.77185416725,
      "d": 576.9232500000071,
      "v": 101
    },
    {
      "midi": 64,
      "hit": false,
      "t": 94214.77185416725,
      "d": 608.9745416666701,
      "v": 108
    },
    {
      "midi": 67,
      "hit": false,
      "t": 94214.77185416725,
      "d": 608.9745416666701,
      "v": 108
    },
    {
      "midi": 71,
      "hit": false,
      "t": 94230.79750000003,
      "d": 248.39751041666023,
      "v": 96
    },
    {
      "midi": 52,
      "hit": false,
      "t": 94471.18218750058,
      "d": 224.35904166667024,
      "v": 101
    },
    {
      "midi": 71,
      "hit": false,
      "t": 94487.20783333336,
      "d": 512.8206666666665,
      "v": 96
    },
    {
      "midi": 52,
      "hit": false,
      "t": 94855.79768750058,
      "d": 96.15387500000361,
      "v": 92
    },
    {
      "midi": 71,
      "hit": false,
      "t": 94984.00285416725,
      "d": 184.2949270833342,
      "v": 105
    },
    {
      "midi": 67,
      "hit": false,
      "t": 94984.00285416725,
      "d": 232.37186458332872,
      "v": 105
    },
    {
      "midi": 64,
      "hit": false,
      "t": 94984.00285416725,
      "d": 256.41033333333326,
      "v": 114
    },
    {
      "midi": 69,
      "hit": false,
      "t": 95000.02850000003,
      "d": 256.41033333333326,
      "v": 97
    },
    {
      "midi": 52,
      "hit": false,
      "t": 95240.41318750058,
      "d": 48.07693749999453,
      "v": 92
    },
    {
      "midi": 67,
      "hit": false,
      "t": 95256.43883333336,
      "d": 128.20516666666663,
      "v": 88
    },
    {
      "midi": 64,
      "hit": false,
      "t": 95368.61835416725,
      "d": 152.24363541667117,
      "v": 108
    },
    {
      "midi": 60,
      "hit": false,
      "t": 95376.63117708392,
      "d": 144.23081249999814,
      "v": 108
    },
    {
      "midi": 69,
      "hit": false,
      "t": 95376.63117708392,
      "d": 144.23081249999814,
      "v": 114
    },
    {
      "midi": 69,
      "hit": false,
      "t": 95384.64400000003,
      "d": 384.6154999999999,
      "v": 96
    },
    {
      "midi": 69,
      "hit": false,
      "t": 95753.23385416725,
      "d": 616.9873645833432,
      "v": 108
    },
    {
      "midi": 60,
      "hit": false,
      "t": 95753.23385416725,
      "d": 641.0258333333477,
      "v": 101
    },
    {
      "midi": 64,
      "hit": false,
      "t": 95753.23385416725,
      "d": 641.0258333333477,
      "v": 108
    },
    {
      "midi": 67,
      "hit": false,
      "t": 95769.25950000003,
      "d": 256.41033333333326,
      "v": 104
    },
    {
      "midi": 57,
      "hit": false,
      "t": 96009.64418750058,
      "d": 224.35904166667024,
      "v": 108
    },
    {
      "midi": 64,
      "hit": false,
      "t": 96025.66983333336,
      "d": 1241.9875520833302,
      "v": 105
    },
    {
      "midi": 57,
      "hit": false,
      "t": 96394.2596875006,
      "d": 80.1282291666721,
      "v": 114
    },
    {
      "midi": 60,
      "hit": false,
      "t": 96522.46485416727,
      "d": 240.38468750000175,
      "v": 105
    },
    {
      "midi": 69,
      "hit": false,
      "t": 96522.46485416727,
      "d": 240.38468750000175,
      "v": 105
    },
    {
      "midi": 64,
      "hit": false,
      "t": 96522.46485416727,
      "d": 256.41033333333326,
      "v": 105
    },
    {
      "midi": 57,
      "hit": false,
      "t": 96778.8751875006,
      "d": 32.05129166666302,
      "v": 108
    },
    {
      "midi": 71,
      "hit": false,
      "t": 96907.08035416726,
      "d": 104.16669791666209,
      "v": 119
    },
    {
      "midi": 60,
      "hit": false,
      "t": 96907.08035416726,
      "d": 112.17952083333512,
      "v": 108
    },
    {
      "midi": 64,
      "hit": false,
      "t": 96907.08035416726,
      "d": 136.21798958333966,
      "v": 108
    },
    {
      "midi": 67,
      "hit": false,
      "t": 96923.1060000006,
      "d": 136.21798958333966,
      "v": 108
    },
    {
      "midi": 67,
      "hit": false,
      "t": 97275.67020833393,
      "d": 657.0514791666646,
      "v": 114
    },
    {
      "midi": 60,
      "hit": false,
      "t": 97291.69585416726,
      "d": 616.9873645833286,
      "v": 108
    },
    {
      "midi": 71,
      "hit": false,
      "t": 97291.69585416726,
      "d": 625.0001875000016,
      "v": 114
    },
    {
      "midi": 64,
      "hit": false,
      "t": 97291.69585416726,
      "d": 649.0386562500062,
      "v": 114
    },
    {
      "midi": 71,
      "hit": false,
      "t": 97307.72150000003,
      "d": 769.2309999999998,
      "v": 91
    },
    {
      "midi": 55,
      "hit": false,
      "t": 97932.7216875006,
      "d": 48.07693750000908,
      "v": 108
    },
    {
      "midi": 64,
      "hit": false,
      "t": 98060.92685416728,
      "d": 224.35904166667024,
      "v": 101
    },
    {
      "midi": 71,
      "hit": false,
      "t": 98060.92685416728,
      "d": 248.39751041667478,
      "v": 114
    },
    {
      "midi": 60,
      "hit": false,
      "t": 98060.92685416728,
      "d": 256.4103333333478,
      "v": 108
    },
    {
      "midi": 69,
      "hit": false,
      "t": 98076.95250000003,
      "d": 256.41033333333326,
      "v": 95
    },
    {
      "midi": 67,
      "hit": false,
      "t": 98076.95250000061,
      "d": 216.34621875001176,
      "v": 101
    },
    {
      "midi": 55,
      "hit": false,
      "t": 98325.3500104173,
      "d": 64.10258333334059,
      "v": 105
    },
    {
      "midi": 67,
      "hit": false,
      "t": 98333.36283333336,
      "d": 128.20516666666663,
      "v": 94
    },
    {
      "midi": 65,
      "hit": false,
      "t": 98453.55517708398,
      "d": 144.2308125000127,
      "v": 114
    },
    {
      "midi": 69,
      "hit": false,
      "t": 98461.56800000003,
      "d": 384.6154999999999,
      "v": 94
    },
    {
      "midi": 72,
      "hit": false,
      "t": 98461.56800000065,
      "d": 112.17952083333512,
      "v": 101
    },
    {
      "midi": 69,
      "hit": false,
      "t": 98469.58082291733,
      "d": 112.17952083333512,
      "v": 98
    },
    {
      "midi": 72,
      "hit": false,
      "t": 98838.170677084,
      "d": 600.9617187499971,
      "v": 101
    },
    {
      "midi": 65,
      "hit": false,
      "t": 98838.170677084,
      "d": 625.0001875000016,
      "v": 105
    },
    {
      "midi": 69,
      "hit": false,
      "t": 98838.170677084,
      "d": 633.0130104166747,
      "v": 105
    },
    {
      "midi": 67,
      "hit": false,
      "t": 98846.18350000003,
      "d": 256.41033333333326,
      "v": 92
    },
    {
      "midi": 53,
      "hit": false,
      "t": 99086.56818750066,
      "d": 192.30775000000722,
      "v": 101
    },
    {
      "midi": 65,
      "hit": false,
      "t": 99102.59383333336,
      "d": 1282.0516666666663,
      "v": 91
    },
    {
      "midi": 53,
      "hit": false,
      "t": 99471.18368750067,
      "d": 88.14105208333058,
      "v": 98
    },
    {
      "midi": 72,
      "hit": false,
      "t": 99599.38885416734,
      "d": 192.30775000000722,
      "v": 92
    },
    {
      "midi": 65,
      "hit": false,
      "t": 99599.38885416734,
      "d": 224.35904166667024,
      "v": 114
    },
    {
      "midi": 69,
      "hit": false,
      "t": 99599.38885416734,
      "d": 232.37186458334327,
      "v": 114
    },
    {
      "midi": 53,
      "hit": false,
      "t": 99855.79918750068,
      "d": 64.10258333334059,
      "v": 95
    },
    {
      "midi": 62,
      "hit": false,
      "t": 99984.00435416737,
      "d": 120.19234375000815,
      "v": 105
    },
    {
      "midi": 72,
      "hit": false,
      "t": 99992.01717708404,
      "d": 88.14105208333058,
      "v": 101
    },
    {
      "midi": 69,
      "hit": false,
      "t": 99992.01717708404,
      "d": 104.16669791666209,
      "v": 101
    },
    {
      "midi": 65,
      "hit": false,
      "t": 99992.01717708404,
      "d": 128.20516666666663,
      "v": 105
    },
    {
      "midi": 62,
      "hit": false,
      "t": 100368.61985416737,
      "d": 600.9617187500116,
      "v": 114
    },
    {
      "midi": 65,
      "hit": false,
      "t": 100368.61985416737,
      "d": 600.9617187500116,
      "v": 108
    },
    {
      "midi": 72,
      "hit": false,
      "t": 100376.63267708404,
      "d": 552.8847812500026,
      "v": 101
    },
    {
      "midi": 69,
      "hit": false,
      "t": 100376.63267708404,
      "d": 600.9617187500116,
      "v": 101
    },
    {
      "midi": 53,
      "hit": false,
      "t": 100625.0301875007,
      "d": 192.30775000000722,
      "v": 98
    },
    {
      "midi": 60,
      "hit": false,
      "t": 100641.05583333336,
      "d": 128.20516666666663,
      "v": 78
    },
    {
      "midi": 62,
      "hit": false,
      "t": 100769.26100000003,
      "d": 256.41033333333326,
      "v": 88
    },
    {
      "midi": 53,
      "hit": false,
      "t": 101009.64568750071,
      "d": 72.11540624999907,
      "v": 95
    },
    {
      "midi": 64,
      "hit": false,
      "t": 101025.67133333336,
      "d": 128.20516666666663,
      "v": 95
    },
    {
      "midi": 69,
      "hit": false,
      "t": 101145.86367708405,
      "d": 192.30775000000722,
      "v": 105
    },
    {
      "midi": 65,
      "hit": false,
      "t": 101145.86367708405,
      "d": 200.32057291668025,
      "v": 114
    },
    {
      "midi": 62,
      "hit": false,
      "t": 101145.86367708405,
      "d": 208.33339583335328,
      "v": 114
    },
    {
      "midi": 72,
      "hit": false,
      "t": 101145.86367708405,
      "d": 216.3462187500263,
      "v": 108
    },
    {
      "midi": 65,
      "hit": false,
      "t": 101153.87650000003,
      "d": 1923.0774999999994,
      "v": 109
    },
    {
      "midi": 53,
      "hit": false,
      "t": 101394.26118750074,
      "d": 64.10258333334059,
      "v": 84
    },
    {
      "midi": 62,
      "hit": false,
      "t": 101530.47917708408,
      "d": 144.2308125000127,
      "v": 114
    },
    {
      "midi": 65,
      "hit": false,
      "t": 101530.47917708408,
      "d": 144.2308125000127,
      "v": 114
    },
    {
      "midi": 70,
      "hit": false,
      "t": 101538.49200000076,
      "d": 160.2564583333442,
      "v": 105
    },
    {
      "midi": 65,
      "hit": false,
      "t": 101907.08185416744,
      "d": 568.9104270833341,
      "v": 114
    },
    {
      "midi": 62,
      "hit": false,
      "t": 101907.08185416744,
      "d": 592.9488958333386,
      "v": 105
    },
    {
      "midi": 70,
      "hit": false,
      "t": 101907.08185416744,
      "d": 608.9745416666701,
      "v": 98
    },
    {
      "midi": 58,
      "hit": false,
      "t": 102163.49218750077,
      "d": 96.15387500000361,
      "v": 105
    },
    {
      "midi": 58,
      "hit": false,
      "t": 102548.10768750077,
      "d": 96.15387500000361,
      "v": 98
    },
    {
      "midi": 62,
      "hit": false,
      "t": 102676.31285416744,
      "d": 248.39751041666023,
      "v": 88
    },
    {
      "midi": 65,
      "hit": false,
      "t": 102676.31285416744,
      "d": 248.39751041666023,
      "v": 108
    },
    {
      "midi": 70,
      "hit": false,
      "t": 102676.31285416744,
      "d": 288.4616249999963,
      "v": 98
    },
    {
      "midi": 58,
      "hit": false,
      "t": 102932.72318750077,
      "d": 48.07693749999453,
      "v": 98
    },
    {
      "midi": 60,
      "hit": false,
      "t": 103060.92835416744,
      "d": 96.15387500000361,
      "v": 101
    },
    {
      "midi": 69,
      "hit": false,
      "t": 103060.92835416744,
      "d": 120.19234375000815,
      "v": 108
    },
    {
      "midi": 65,
      "hit": false,
      "t": 103068.94117708411,
      "d": 104.16669791666209,
      "v": 108
    },
    {
      "midi": 69,
      "hit": false,
      "t": 103076.95400000003,
      "d": 1538.4619999999995,
      "v": 109
    },
    {
      "midi": 60,
      "hit": false,
      "t": 103445.54385416745,
      "d": 608.9745416666701,
      "v": 101
    },
    {
      "midi": 65,
      "hit": false,
      "t": 103445.54385416745,
      "d": 625.0001875000016,
      "v": 119
    },
    {
      "midi": 69,
      "hit": false,
      "t": 103453.55667708413,
      "d": 600.9617187499971,
      "v": 108
    },
    {
      "midi": 57,
      "hit": false,
      "t": 103701.95418750079,
      "d": 184.2949270833342,
      "v": 108
    },
    {
      "midi": 57,
      "hit": false,
      "t": 104086.56968750079,
      "d": 56.08976041666756,
      "v": 108
    },
    {
      "midi": 60,
      "hit": false,
      "t": 104214.77485416745,
      "d": 160.25645833332965,
      "v": 105
    },
    {
      "midi": 69,
      "hit": false,
      "t": 104214.77485416745,
      "d": 216.3462187499972,
      "v": 114
    },
    {
      "midi": 65,
      "hit": false,
      "t": 104214.77485416745,
      "d": 272.43597916666477,
      "v": 114
    },
    {
      "midi": 57,
      "hit": false,
      "t": 104471.18518750079,
      "d": 32.05129166666302,
      "v": 98
    },
    {
      "midi": 67,
      "hit": false,
      "t": 104607.40317708411,
      "d": 128.20516666666663,
      "v": 105
    },
    {
      "midi": 71,
      "hit": false,
      "t": 104607.40317708411,
      "d": 144.23081249999814,
      "v": 108
    },
    {
      "midi": 62,
      "hit": false,
      "t": 104607.40317708411,
      "d": 152.24363541667117,
      "v": 108
    },
    {
      "midi": 67,
      "hit": false,
      "t": 104615.41600000003,
      "d": 1538.4619999999995,
      "v": 98
    },
    {
      "midi": 71,
      "hit": false,
      "t": 104984.00585416745,
      "d": 576.9232499999925,
      "v": 114
    },
    {
      "midi": 62,
      "hit": false,
      "t": 104984.00585416745,
      "d": 592.9488958333241,
      "v": 114
    },
    {
      "midi": 67,
      "hit": false,
      "t": 104984.00585416745,
      "d": 616.9873645833286,
      "v": 108
    },
    {
      "midi": 55,
      "hit": false,
      "t": 105240.41618750078,
      "d": 216.3462187499972,
      "v": 101
    },
    {
      "midi": 55,
      "hit": false,
      "t": 105625.03168750078,
      "d": 48.07693749999453,
      "v": 98
    },
    {
      "midi": 67,
      "hit": false,
      "t": 105753.23685416745,
      "d": 216.3462187499972,
      "v": 101
    },
    {
      "midi": 62,
      "hit": false,
      "t": 105753.23685416745,
      "d": 224.35904166667024,
      "v": 95
    },
    {
      "midi": 71,
      "hit": false,
      "t": 105753.23685416745,
      "d": 224.35904166667024,
      "v": 98
    },
    {
      "midi": 55,
      "hit": false,
      "t": 106009.64718750078,
      "d": 64.10258333334059,
      "v": 90
    },
    {
      "midi": 67,
      "hit": false,
      "t": 106129.8395312508,
      "d": 168.26928125000268,
      "v": 101
    },
    {
      "midi": 62,
      "hit": false,
      "t": 106137.85235416747,
      "d": 160.25645833332965,
      "v": 119
    },
    {
      "midi": 71,
      "hit": false,
      "t": 106137.85235416747,
      "d": 168.26928125000268,
      "v": 108
    },
    {
      "midi": 71,
      "hit": false,
      "t": 106522.46785416747,
      "d": 584.9360729166656,
      "v": 114
    },
    {
      "midi": 62,
      "hit": false,
      "t": 106522.46785416747,
      "d": 608.9745416666701,
      "v": 114
    },
    {
      "midi": 67,
      "hit": false,
      "t": 106522.46785416747,
      "d": 633.0130104166747,
      "v": 114
    },
    {
      "midi": 55,
      "hit": false,
      "t": 106778.8781875008,
      "d": 224.35904166667024,
      "v": 105
    },
    {
      "midi": 55,
      "hit": false,
      "t": 107163.49368750081,
      "d": 56.08976041666756,
      "v": 105
    },
    {
      "midi": 62,
      "hit": false,
      "t": 107291.69885416748,
      "d": 256.41033333333326,
      "v": 108
    },
    {
      "midi": 67,
      "hit": false,
      "t": 107291.69885416748,
      "d": 288.4616249999963,
      "v": 95
    },
    {
      "midi": 71,
      "hit": false,
      "t": 107291.69885416748,
      "d": 304.4872708333278,
      "v": 105
    },
    {
      "midi": 55,
      "hit": false,
      "t": 107548.10918750081,
      "d": 88.14105208333058,
      "v": 88
    },
    {
      "midi": 67,
      "hit": false,
      "t": 107676.31435416748,
      "d": 256.41033333333326,
      "v": 124
    },
    {
      "midi": 70,
      "hit": false,
      "t": 107676.31435416748,
      "d": 256.41033333333326,
      "v": 114
    },
    {
      "midi": 75,
      "hit": false,
      "t": 107676.31435416748,
      "d": 256.41033333333326,
      "v": 101
    },
    {
      "midi": 60,
      "hit": false,
      "t": 107940.73751041749,
      "d": 64.10258333334059,
      "v": 92
    },
    {
      "midi": 75,
      "hit": false,
      "t": 108060.9298541675,
      "d": 256.41033333333326,
      "v": 92
    },
    {
      "midi": 67,
      "hit": false,
      "t": 108060.9298541675,
      "d": 272.4359791666793,
      "v": 114
    },
    {
      "midi": 70,
      "hit": false,
      "t": 108060.9298541675,
      "d": 272.4359791666793,
      "v": 92
    },
    {
      "midi": 60,
      "hit": false,
      "t": 108325.3530104175,
      "d": 120.19234375000815,
      "v": 78
    },
    {
      "midi": 60,
      "hit": false,
      "t": 108717.98133333417,
      "d": 40.06411458333605,
      "v": 92
    },
    {
      "midi": 75,
      "hit": false,
      "t": 108838.17367708418,
      "d": 216.34621875001176,
      "v": 101
    },
    {
      "midi": 70,
      "hit": false,
      "t": 108846.18650000085,
      "d": 232.37186458334327,
      "v": 114
    },
    {
      "midi": 67,
      "hit": false,
      "t": 108854.19932291753,
      "d": 168.26928125000268,
      "v": 119
    },
    {
      "midi": 60,
      "hit": false,
      "t": 109102.5968333342,
      "d": 48.07693749999453,
      "v": 86
    },
    {
      "midi": 70,
      "hit": false,
      "t": 109214.77635416754,
      "d": 256.41033333333326,
      "v": 92
    },
    {
      "midi": 74,
      "hit": false,
      "t": 109222.78917708421,
      "d": 200.3205729166657,
      "v": 101
    },
    {
      "midi": 65,
      "hit": false,
      "t": 109222.78917708421,
      "d": 216.3462187499972,
      "v": 114
    },
    {
      "midi": 60,
      "hit": false,
      "t": 109471.18668750087,
      "d": 72.11540624999907,
      "v": 84
    },
    {
      "midi": 74,
      "hit": false,
      "t": 109599.39185416754,
      "d": 280.4488020833378,
      "v": 92
    },
    {
      "midi": 65,
      "hit": false,
      "t": 109599.39185416754,
      "d": 296.4744479166693,
      "v": 114
    },
    {
      "midi": 70,
      "hit": false,
      "t": 109599.39185416754,
      "d": 296.4744479166693,
      "v": 90
    },
    {
      "midi": 60,
      "hit": false,
      "t": 109855.80218750087,
      "d": 216.3462187499972,
      "v": 95
    },
    {
      "midi": 60,
      "hit": false,
      "t": 110248.43051041753,
      "d": 48.07693749999453,
      "v": 90
    },
    {
      "midi": 70,
      "hit": false,
      "t": 110368.62285416752,
      "d": 288.4616250000108,
      "v": 101
    },
    {
      "midi": 65,
      "hit": false,
      "t": 110376.6356770842,
      "d": 208.33339583333873,
      "v": 105
    },
    {
      "midi": 74,
      "hit": false,
      "t": 110376.6356770842,
      "d": 224.35904166667024,
      "v": 101
    },
    {
      "midi": 60,
      "hit": false,
      "t": 110633.04601041753,
      "d": 48.07693750000908,
      "v": 92
    },
    {
      "midi": 65,
      "hit": false,
      "t": 110769.26400000087,
      "d": 208.33339583333873,
      "v": 114
    },
    {
      "midi": 69,
      "hit": false,
      "t": 110769.26400000087,
      "d": 208.33339583333873,
      "v": 114
    },
    {
      "midi": 72,
      "hit": false,
      "t": 110769.26400000087,
      "d": 224.35904166667024,
      "v": 105
    },
    {
      "midi": 60,
      "hit": false,
      "t": 111017.66151041754,
      "d": 48.07693749999453,
      "v": 75
    },
    {
      "midi": 65,
      "hit": false,
      "t": 111145.86667708421,
      "d": 248.39751041666023,
      "v": 95
    },
    {
      "midi": 69,
      "hit": false,
      "t": 111145.86667708421,
      "d": 280.4488020833378,
      "v": 105
    },
    {
      "midi": 72,
      "hit": false,
      "t": 111145.86667708421,
      "d": 296.4744479166693,
      "v": 86
    },
    {
      "midi": 60,
      "hit": false,
      "t": 111402.27701041754,
      "d": 168.26928125000268,
      "v": 95
    },
    {
      "midi": 60,
      "hit": false,
      "t": 111786.89251041754,
      "d": 48.07693749999453,
      "v": 92
    },
    {
      "midi": 65,
      "hit": false,
      "t": 111907.08485416754,
      "d": 160.2564583333442,
      "v": 119
    },
    {
      "midi": 72,
      "hit": false,
      "t": 111907.08485416754,
      "d": 224.3590416666848,
      "v": 101
    },
    {
      "midi": 69,
      "hit": false,
      "t": 111915.09767708421,
      "d": 216.34621875001176,
      "v": 114
    },
    {
      "midi": 60,
      "hit": false,
      "t": 112163.49518750088,
      "d": 48.07693749999453,
      "v": 90
    },
    {
      "midi": 67,
      "hit": false,
      "t": 112299.71317708421,
      "d": 192.30775000000722,
      "v": 108
    },
    {
      "midi": 72,
      "hit": false,
      "t": 112299.71317708421,
      "d": 216.34621875001176,
      "v": 105
    },
    {
      "midi": 76,
      "hit": false,
      "t": 112299.71317708421,
      "d": 216.34621875001176,
      "v": 108
    },
    {
      "midi": 60,
      "hit": false,
      "t": 112548.11068750088,
      "d": 64.10258333334059,
      "v": 83
    },
    {
      "midi": 76,
      "hit": false,
      "t": 112676.31585416757,
      "d": 296.4744479166693,
      "v": 108
    },
    {
      "midi": 72,
      "hit": false,
      "t": 112676.31585416757,
      "d": 360.5770312500099,
      "v": 105
    },
    {
      "midi": 67,
      "hit": false,
      "t": 112676.31585416757,
      "d": 384.61550000001444,
      "v": 114
    },
    {
      "midi": 60,
      "hit": false,
      "t": 112932.7261875009,
      "d": 160.2564583333442,
      "v": 95
    },
    {
      "midi": 60,
      "hit": false,
      "t": 113341.3801562509,
      "d": 48.07693749999453,
      "v": 98
    },
    {
      "midi": 76,
      "hit": false,
      "t": 113453.55967708424,
      "d": 120.1923437499936,
      "v": 108
    },
    {
      "midi": 67,
      "hit": false,
      "t": 113453.55967708424,
      "d": 152.24363541665662,
      "v": 108
    },
    {
      "midi": 72,
      "hit": false,
      "t": 113453.55967708424,
      "d": 152.24363541665662,
      "v": 114
    },
    {
      "midi": 57,
      "hit": false,
      "t": 113461.57250000002,
      "d": 248.39751041666023,
      "v": 84
    },
    {
      "midi": 65,
      "hit": false,
      "t": 113461.57250000002,
      "d": 248.39751041666023,
      "v": 84
    },
    {
      "midi": 72,
      "hit": false,
      "t": 113701.9571875009,
      "d": 88.14105208334513,
      "v": 83
    },
    {
      "midi": 67,
      "hit": false,
      "t": 113709.97001041757,
      "d": 72.11540624999907,
      "v": 92
    },
    {
      "midi": 76,
      "hit": false,
      "t": 113709.97001041757,
      "d": 88.14105208334513,
      "v": 98
    },
    {
      "midi": 65,
      "hit": false,
      "t": 113717.98283333336,
      "d": 120.1923437499936,
      "v": 83
    },
    {
      "midi": 57,
      "hit": false,
      "t": 113717.98283333336,
      "d": 128.20516666666663,
      "v": 83
    },
    {
      "midi": 58,
      "hit": false,
      "t": 113846.18800000002,
      "d": 376.60267708332685,
      "v": 83
    },
    {
      "midi": 65,
      "hit": false,
      "t": 113846.18800000002,
      "d": 376.60267708332685,
      "v": 83
    },
    {
      "midi": 70,
      "hit": false,
      "t": 113854.20082291758,
      "d": 216.34621875001176,
      "v": 101
    },
    {
      "midi": 74,
      "hit": false,
      "t": 113854.20082291758,
      "d": 232.37186458334327,
      "v": 108
    },
    {
      "midi": 65,
      "hit": false,
      "t": 113862.21364583426,
      "d": 168.26928125000268,
      "v": 95
    },
    {
      "midi": 70,
      "hit": false,
      "t": 114214.7778541676,
      "d": 304.48727083334234,
      "v": 98
    },
    {
      "midi": 72,
      "hit": false,
      "t": 114214.7778541676,
      "d": 304.48727083334234,
      "v": 114
    },
    {
      "midi": 65,
      "hit": false,
      "t": 114222.79067708427,
      "d": 296.4744479166693,
      "v": 108
    },
    {
      "midi": 58,
      "hit": false,
      "t": 114230.80350000002,
      "d": 376.60267708332685,
      "v": 82
    },
    {
      "midi": 65,
      "hit": false,
      "t": 114230.80350000002,
      "d": 376.60267708332685,
      "v": 82
    },
    {
      "midi": 65,
      "hit": false,
      "t": 114599.39335416761,
      "d": 248.39751041666023,
      "v": 101
    },
    {
      "midi": 72,
      "hit": false,
      "t": 114599.39335416761,
      "d": 248.39751041666023,
      "v": 105
    },
    {
      "midi": 70,
      "hit": false,
      "t": 114599.39335416761,
      "d": 256.41033333333326,
      "v": 98
    },
    {
      "midi": 65,
      "hit": false,
      "t": 114615.41900000002,
      "d": 384.6154999999999,
      "v": 81
    },
    {
      "midi": 58,
      "hit": false,
      "t": 114615.41900000002,
      "d": 512.8206666666665,
      "v": 81
    },
    {
      "midi": 60,
      "hit": false,
      "t": 114879.84215625095,
      "d": 48.07693749999453,
      "v": 101
    },
    {
      "midi": 70,
      "hit": false,
      "t": 114992.02167708428,
      "d": 272.43597916666477,
      "v": 114
    },
    {
      "midi": 72,
      "hit": false,
      "t": 114992.02167708428,
      "d": 272.43597916666477,
      "v": 119
    },
    {
      "midi": 65,
      "hit": false,
      "t": 114992.02167708428,
      "d": 280.4488020833378,
      "v": 108
    },
    {
      "midi": 65,
      "hit": false,
      "t": 115376.63717708428,
      "d": 232.37186458332872,
      "v": 108
    },
    {
      "midi": 72,
      "hit": false,
      "t": 115376.63717708428,
      "d": 232.37186458332872,
      "v": 86
    },
    {
      "midi": 70,
      "hit": false,
      "t": 115376.63717708428,
      "d": 240.38468750000175,
      "v": 83
    },
    {
      "midi": 60,
      "hit": false,
      "t": 115649.07315625095,
      "d": 72.11540624999907,
      "v": 95
    },
    {
      "midi": 72,
      "hit": false,
      "t": 115753.23985416761,
      "d": 272.43597916666477,
      "v": 114
    },
    {
      "midi": 70,
      "hit": false,
      "t": 115761.25267708428,
      "d": 248.39751041666023,
      "v": 105
    },
    {
      "midi": 65,
      "hit": false,
      "t": 115761.25267708428,
      "d": 264.42315624999173,
      "v": 124
    },
    {
      "midi": 70,
      "hit": false,
      "t": 116137.85535416761,
      "d": 96.15387500000361,
      "v": 92
    },
    {
      "midi": 65,
      "hit": false,
      "t": 116137.85535416761,
      "d": 120.19234375000815,
      "v": 101
    },
    {
      "midi": 72,
      "hit": false,
      "t": 116137.85535416761,
      "d": 208.33339583333873,
      "v": 88
    },
    {
      "midi": 65,
      "hit": false,
      "t": 116394.26568750094,
      "d": 288.4616249999963,
      "v": 124
    },
    {
      "midi": 74,
      "hit": false,
      "t": 116394.26568750094,
      "d": 336.5385624999908,
      "v": 124
    },
    {
      "midi": 70,
      "hit": false,
      "t": 116394.26568750094,
      "d": 352.5642083333223,
      "v": 114
    },
    {
      "midi": 58,
      "hit": false,
      "t": 116538.49650000002,
      "d": 248.39751041666023,
      "v": 80
    },
    {
      "midi": 65,
      "hit": false,
      "t": 116538.49650000002,
      "d": 248.39751041666023,
      "v": 80
    },
    {
      "midi": 60,
      "hit": false,
      "t": 116786.8940104176,
      "d": 56.08976041666756,
      "v": 86
    },
    {
      "midi": 65,
      "hit": false,
      "t": 116794.90683333336,
      "d": 120.1923437499936,
      "v": 80
    },
    {
      "midi": 58,
      "hit": false,
      "t": 116794.90683333336,
      "d": 128.20516666666663,
      "v": 80
    },
    {
      "midi": 65,
      "hit": false,
      "t": 116915.09917708427,
      "d": 152.24363541667117,
      "v": 119
    },
    {
      "midi": 70,
      "hit": false,
      "t": 116915.09917708427,
      "d": 288.4616250000108,
      "v": 114
    },
    {
      "midi": 74,
      "hit": false,
      "t": 116915.09917708427,
      "d": 296.47444791668386,
      "v": 114
    },
    {
      "midi": 55,
      "hit": false,
      "t": 116923.11200000002,
      "d": 376.60267708332685,
      "v": 81
    },
    {
      "midi": 65,
      "hit": false,
      "t": 116923.11200000002,
      "d": 384.6154999999999,
      "v": 81
    },
    {
      "midi": 55,
      "hit": false,
      "t": 117307.72750000002,
      "d": 376.60267708332685,
      "v": 82
    },
    {
      "midi": 64,
      "hit": false,
      "t": 117307.72750000002,
      "d": 376.60267708332685,
      "v": 82
    },
    {
      "midi": 67,
      "hit": false,
      "t": 117307.72750000095,
      "d": 240.38468750000175,
      "v": 108
    },
    {
      "midi": 72,
      "hit": false,
      "t": 117307.72750000095,
      "d": 248.39751041667478,
      "v": 105
    },
    {
      "midi": 64,
      "hit": false,
      "t": 117315.74032291763,
      "d": 248.39751041667478,
      "v": 108
    },
    {
      "midi": 67,
      "hit": false,
      "t": 117676.31735416764,
      "d": 256.41033333333326,
      "v": 92
    },
    {
      "midi": 64,
      "hit": false,
      "t": 117676.31735416764,
      "d": 264.4231562500063,
      "v": 95
    },
    {
      "midi": 72,
      "hit": false,
      "t": 117676.31735416764,
      "d": 264.4231562500063,
      "v": 95
    },
    {
      "midi": 55,
      "hit": false,
      "t": 117692.34300000002,
      "d": 769.2309999999998,
      "v": 82
    },
    {
      "midi": 64,
      "hit": false,
      "t": 117692.34300000002,
      "d": 769.2309999999998,
      "v": 82
    },
    {
      "midi": 60,
      "hit": false,
      "t": 117964.77897916765,
      "d": 80.1282291666721,
      "v": 90
    },
    {
      "midi": 64,
      "hit": false,
      "t": 118068.94567708432,
      "d": 240.38468750000175,
      "v": 108
    },
    {
      "midi": 72,
      "hit": false,
      "t": 118068.94567708432,
      "d": 264.4231562500063,
      "v": 105
    },
    {
      "midi": 67,
      "hit": false,
      "t": 118076.958500001,
      "d": 240.38468750000175,
      "v": 98
    },
    {
      "midi": 72,
      "hit": false,
      "t": 118453.56117708432,
      "d": 248.39751041668933,
      "v": 81
    },
    {
      "midi": 67,
      "hit": false,
      "t": 118461.574000001,
      "d": 216.34621875001176,
      "v": 90
    },
    {
      "midi": 64,
      "hit": false,
      "t": 118469.58682291767,
      "d": 216.34621875001176,
      "v": 84
    },
    {
      "midi": 60,
      "hit": false,
      "t": 118709.97151041769,
      "d": 40.06411458333605,
      "v": 98
    },
    {
      "midi": 64,
      "hit": false,
      "t": 118838.17667708435,
      "d": 224.35904166667024,
      "v": 114
    },
    {
      "midi": 67,
      "hit": false,
      "t": 118838.17667708435,
      "d": 248.39751041667478,
      "v": 119
    },
    {
      "midi": 72,
      "hit": false,
      "t": 118838.17667708435,
      "d": 256.4103333333478,
      "v": 119
    },
    {
      "midi": 64,
      "hit": false,
      "t": 119214.7793541677,
      "d": 256.41033333333326,
      "v": 83
    },
    {
      "midi": 67,
      "hit": false,
      "t": 119214.7793541677,
      "d": 264.4231562500063,
      "v": 76
    },
    {
      "midi": 72,
      "hit": false,
      "t": 119214.7793541677,
      "d": 264.4231562500063,
      "v": 78
    },
    {
      "midi": 60,
      "hit": false,
      "t": 119479.2025104177,
      "d": 32.05129166666302,
      "v": 90
    },
    {
      "midi": 64,
      "hit": false,
      "t": 119599.3948541677,
      "d": 168.26928125000268,
      "v": 114
    },
    {
      "midi": 67,
      "hit": false,
      "t": 119599.3948541677,
      "d": 224.35904166667024,
      "v": 108
    },
    {
      "midi": 72,
      "hit": false,
      "t": 119599.3948541677,
      "d": 256.41033333333326,
      "v": 101
    },
    {
      "midi": 60,
      "hit": false,
      "t": 119879.84365625103,
      "d": 40.06411458333605,
      "v": 84
    },
    {
      "midi": 75,
      "hit": false,
      "t": 119992.02317708437,
      "d": 240.38468750000175,
      "v": 101
    },
    {
      "midi": 67,
      "hit": false,
      "t": 119992.02317708437,
      "d": 248.39751041667478,
      "v": 124
    },
    {
      "midi": 70,
      "hit": false,
      "t": 120000.03600000104,
      "d": 240.38468750000175,
      "v": 114
    },
    {
      "midi": 67,
      "hit": false,
      "t": 120256.44633333336,
      "d": 128.20516666666663,
      "v": 76
    },
    {
      "midi": 60,
      "hit": false,
      "t": 120264.45915625105,
      "d": 32.05129166666302,
      "v": 81
    },
    {
      "midi": 70,
      "hit": false,
      "t": 120384.65150000002,
      "d": 248.39751041666023,
      "v": 76
    },
    {
      "midi": 67,
      "hit": false,
      "t": 120384.65150000104,
      "d": 240.3846875000163,
      "v": 105
    },
    {
      "midi": 75,
      "hit": false,
      "t": 120392.66432291771,
      "d": 216.3462187499972,
      "v": 98
    },
    {
      "midi": 70,
      "hit": false,
      "t": 120392.66432291771,
      "d": 224.35904166667024,
      "v": 92
    },
    {
      "midi": 60,
      "hit": false,
      "t": 120633.04901041773,
      "d": 176.28210416666116,
      "v": 98
    },
    {
      "midi": 70,
      "hit": false,
      "t": 120641.06183333336,
      "d": 120.1923437499936,
      "v": 76
    },
    {
      "midi": 70,
      "hit": false,
      "t": 120769.26700000002,
      "d": 384.6154999999999,
      "v": 76
    },
    {
      "midi": 60,
      "hit": false,
      "t": 121017.66451041773,
      "d": 64.10258333334059,
      "v": 92
    },
    {
      "midi": 67,
      "hit": false,
      "t": 121137.85685416774,
      "d": 224.35904166667024,
      "v": 108
    },
    {
      "midi": 70,
      "hit": false,
      "t": 121137.85685416774,
      "d": 224.35904166667024,
      "v": 101
    },
    {
      "midi": 75,
      "hit": false,
      "t": 121137.85685416774,
      "d": 224.35904166667024,
      "v": 98
    },
    {
      "midi": 69,
      "hit": false,
      "t": 121153.88250000002,
      "d": 256.41033333333326,
      "v": 74
    },
    {
      "midi": 60,
      "hit": false,
      "t": 121394.26718750107,
      "d": 40.06411458333605,
      "v": 98
    },
    {
      "midi": 67,
      "hit": false,
      "t": 121410.29283333335,
      "d": 128.20516666666663,
      "v": 73
    },
    {
      "midi": 74,
      "hit": false,
      "t": 121522.47235416774,
      "d": 208.33339583333873,
      "v": 114
    },
    {
      "midi": 65,
      "hit": false,
      "t": 121522.47235416774,
      "d": 232.37186458334327,
      "v": 124
    },
    {
      "midi": 70,
      "hit": false,
      "t": 121522.47235416774,
      "d": 248.39751041667478,
      "v": 114
    },
    {
      "midi": 69,
      "hit": false,
      "t": 121538.49800000002,
      "d": 256.41033333333326,
      "v": 73
    },
    {
      "midi": 60,
      "hit": false,
      "t": 121778.88268750109,
      "d": 56.08976041666756,
      "v": 86
    },
    {
      "midi": 70,
      "hit": false,
      "t": 121794.90833333335,
      "d": 120.1923437499936,
      "v": 73
    },
    {
      "midi": 74,
      "hit": false,
      "t": 121907.08785416775,
      "d": 264.4231562500063,
      "v": 114
    },
    {
      "midi": 65,
      "hit": false,
      "t": 121907.08785416775,
      "d": 272.4359791666793,
      "v": 108
    },
    {
      "midi": 70,
      "hit": false,
      "t": 121907.08785416775,
      "d": 272.4359791666793,
      "v": 92
    },
    {
      "midi": 70,
      "hit": false,
      "t": 121923.11350000002,
      "d": 384.6154999999999,
      "v": 73
    },
    {
      "midi": 60,
      "hit": false,
      "t": 122163.49818750109,
      "d": 88.14105208334513,
      "v": 92
    },
    {
      "midi": 60,
      "hit": false,
      "t": 122548.1136875011,
      "d": 56.08976041666756,
      "v": 92
    },
    {
      "midi": 65,
      "hit": false,
      "t": 122676.31885416777,
      "d": 224.35904166667024,
      "v": 114
    },
    {
      "midi": 74,
      "hit": false,
      "t": 122676.31885416777,
      "d": 224.35904166667024,
      "v": 114
    },
    {
      "midi": 70,
      "hit": false,
      "t": 122676.31885416777,
      "d": 272.43597916666477,
      "v": 101
    },
    {
      "midi": 60,
      "hit": false,
      "t": 122932.7291875011,
      "d": 56.08976041666756,
      "v": 90
    },
    {
      "midi": 69,
      "hit": false,
      "t": 123060.93435416777,
      "d": 224.35904166667024,
      "v": 119
    },
    {
      "midi": 65,
      "hit": false,
      "t": 123060.93435416777,
      "d": 248.39751041667478,
      "v": 114
    },
    {
      "midi": 72,
      "hit": false,
      "t": 123060.93435416777,
      "d": 264.42315625002084,
      "v": 101
    },
    {
      "midi": 60,
      "hit": false,
      "t": 123317.34468750111,
      "d": 48.07693750000908,
      "v": 88
    },
    {
      "midi": 67,
      "hit": false,
      "t": 123333.37033333335,
      "d": 128.20516666666663,
      "v": 78
    },
    {
      "midi": 65,
      "hit": false,
      "t": 123445.5498541678,
      "d": 264.4231562500063,
      "v": 119
    },
    {
      "midi": 69,
      "hit": false,
      "t": 123445.5498541678,
      "d": 312.5000937500008,
      "v": 108
    },
    {
      "midi": 72,
      "hit": false,
      "t": 123445.5498541678,
      "d": 320.51291666667385,
      "v": 95
    },
    {
      "midi": 69,
      "hit": false,
      "t": 123461.57550000002,
      "d": 248.39751041666023,
      "v": 79
    },
    {
      "midi": 60,
      "hit": false,
      "t": 123709.9730104178,
      "d": 216.3462187499972,
      "v": 98
    },
    {
      "midi": 69,
      "hit": false,
      "t": 123717.98583333335,
      "d": 120.1923437499936,
      "v": 82
    },
    {
      "midi": 69,
      "hit": false,
      "t": 123846.19100000002,
      "d": 376.60267708332685,
      "v": 83
    },
    {
      "midi": 60,
      "hit": false,
      "t": 124110.61415625113,
      "d": 48.07693749999453,
      "v": 101
    },
    {
      "midi": 69,
      "hit": false,
      "t": 124230.80650000002,
      "d": 256.41033333333326,
      "v": 86
    },
    {
      "midi": 65,
      "hit": false,
      "t": 124238.8193229178,
      "d": 184.2949270833342,
      "v": 124
    },
    {
      "midi": 69,
      "hit": false,
      "t": 124238.8193229178,
      "d": 232.37186458332872,
      "v": 119
    },
    {
      "midi": 72,
      "hit": false,
      "t": 124238.8193229178,
      "d": 240.38468750000175,
      "v": 114
    },
    {
      "midi": 72,
      "hit": false,
      "t": 124487.21683333335,
      "d": 128.20516666666663,
      "v": 86
    },
    {
      "midi": 60,
      "hit": false,
      "t": 124495.22965625113,
      "d": 40.06411458333605,
      "v": 90
    },
    {
      "midi": 69,
      "hit": false,
      "t": 124615.42200000002,
      "d": 256.41033333333326,
      "v": 87
    },
    {
      "midi": 76,
      "hit": false,
      "t": 124615.42200000114,
      "d": 224.3590416666848,
      "v": 108
    },
    {
      "midi": 72,
      "hit": false,
      "t": 124615.42200000114,
      "d": 240.3846875000163,
      "v": 119
    },
    {
      "midi": 67,
      "hit": false,
      "t": 124623.43482291781,
      "d": 208.33339583333873,
      "v": 105
    },
    {
      "midi": 60,
      "hit": false,
      "t": 124855.80668750116,
      "d": 56.08976041666756,
      "v": 98
    },
    {
      "midi": 67,
      "hit": false,
      "t": 124871.83233333335,
      "d": 128.20516666666663,
      "v": 88
    },
    {
      "midi": 76,
      "hit": false,
      "t": 124984.01185416782,
      "d": 288.4616249999963,
      "v": 105
    },
    {
      "midi": 67,
      "hit": false,
      "t": 124992.0246770845,
      "d": 248.39751041666023,
      "v": 114
    },
    {
      "midi": 72,
      "hit": false,
      "t": 124992.0246770845,
      "d": 280.44880208332324,
      "v": 108
    },
    {
      "midi": 64,
      "hit": false,
      "t": 125000.03750000002,
      "d": 697.1155937500007,
      "v": 88
    },
    {
      "midi": 60,
      "hit": false,
      "t": 125240.42218750116,
      "d": 224.35904166667024,
      "v": 95
    },
    {
      "midi": 60,
      "hit": false,
      "t": 125633.05051041783,
      "d": 48.07693749999453,
      "v": 95
    },
    {
      "midi": 76,
      "hit": false,
      "t": 125753.24285416782,
      "d": 184.2949270833342,
      "v": 119
    },
    {
      "midi": 72,
      "hit": false,
      "t": 125753.24285416782,
      "d": 192.30775000000722,
      "v": 114
    },
    {
      "midi": 67,
      "hit": false,
      "t": 125753.24285416782,
      "d": 208.33339583333873,
      "v": 119
    },
    {
      "midi": 57,
      "hit": false,
      "t": 125769.26850000002,
      "d": 248.39751041666023,
      "v": 84
    },
    {
      "midi": 65,
      "hit": false,
      "t": 125769.26850000002,
      "d": 248.39751041666023,
      "v": 84
    },
    {
      "midi": 76,
      "hit": false,
      "t": 126009.65318750116,
      "d": 96.15387500001816,
      "v": 90
    },
    {
      "midi": 67,
      "hit": false,
      "t": 126017.66601041783,
      "d": 64.10258333334059,
      "v": 98
    },
    {
      "midi": 72,
      "hit": false,
      "t": 126017.66601041783,
      "d": 72.11540625001362,
      "v": 108
    },
    {
      "midi": 65,
      "hit": false,
      "t": 126025.67883333335,
      "d": 120.1923437499936,
      "v": 83
    },
    {
      "midi": 57,
      "hit": false,
      "t": 126025.67883333335,
      "d": 128.20516666666663,
      "v": 83
    },
    {
      "midi": 58,
      "hit": false,
      "t": 126153.88400000002,
      "d": 376.60267708332685,
      "v": 83
    },
    {
      "midi": 65,
      "hit": false,
      "t": 126153.88400000002,
      "d": 376.60267708332685,
      "v": 83
    },
    {
      "midi": 74,
      "hit": false,
      "t": 126161.89682291784,
      "d": 256.41033333333326,
      "v": 101
    },
    {
      "midi": 65,
      "hit": false,
      "t": 126169.90964583452,
      "d": 160.25645833332965,
      "v": 105
    },
    {
      "midi": 70,
      "hit": false,
      "t": 126169.90964583452,
      "d": 160.25645833332965,
      "v": 90
    },
    {
      "midi": 70,
      "hit": false,
      "t": 126522.47385416784,
      "d": 304.48727083334234,
      "v": 119
    },
    {
      "midi": 65,
      "hit": false,
      "t": 126530.48667708451,
      "d": 296.4744479166693,
      "v": 127
    },
    {
      "midi": 72,
      "hit": false,
      "t": 126530.48667708451,
      "d": 296.4744479166693,
      "v": 119
    },
    {
      "midi": 58,
      "hit": false,
      "t": 126538.49950000002,
      "d": 376.60267708332685,
      "v": 82
    },
    {
      "midi": 65,
      "hit": false,
      "t": 126538.49950000002,
      "d": 376.60267708332685,
      "v": 82
    },
    {
      "midi": 70,
      "hit": false,
      "t": 126915.10217708451,
      "d": 224.35904166667024,
      "v": 101
    },
    {
      "midi": 72,
      "hit": false,
      "t": 126915.10217708451,
      "d": 248.39751041667478,
      "v": 86
    },
    {
      "midi": 65,
      "hit": false,
      "t": 126923.11500000002,
      "d": 384.6154999999999,
      "v": 81
    },
    {
      "midi": 58,
      "hit": false,
      "t": 126923.11500000002,
      "d": 512.8206666666665,
      "v": 81
    },
    {
      "midi": 65,
      "hit": false,
      "t": 126923.11500000118,
      "d": 240.38468750000175,
      "v": 105
    },
    {
      "midi": 60,
      "hit": false,
      "t": 127187.53815625119,
      "d": 64.10258333334059,
      "v": 88
    },
    {
      "midi": 72,
      "hit": false,
      "t": 127299.71767708453,
      "d": 224.3590416666848,
      "v": 108
    },
    {
      "midi": 65,
      "hit": false,
      "t": 127299.71767708453,
      "d": 240.3846875000163,
      "v": 124
    },
    {
      "midi": 70,
      "hit": false,
      "t": 127307.7305000012,
      "d": 192.30775000000722,
      "v": 114
    },
    {
      "midi": 70,
      "hit": false,
      "t": 127684.33317708454,
      "d": 216.3462187499972,
      "v": 88
    },
    {
      "midi": 65,
      "hit": false,
      "t": 127684.33317708454,
      "d": 240.38468750000175,
      "v": 88
    },
    {
      "midi": 72,
      "hit": false,
      "t": 127700.35882291787,
      "d": 200.3205729166657,
      "v": 90
    },
    {
      "midi": 60,
      "hit": false,
      "t": 127940.74351041787,
      "d": 40.06411458333605,
      "v": 95
    },
    {
      "midi": 70,
      "hit": false,
      "t": 128060.93585416788,
      "d": 232.37186458332872,
      "v": 114
    },
    {
      "midi": 65,
      "hit": false,
      "t": 128060.93585416788,
      "d": 264.42315624999173,
      "v": 119
    },
    {
      "midi": 72,
      "hit": false,
      "t": 128060.93585416788,
      "d": 272.43597916666477,
      "v": 119
    },
    {
      "midi": 70,
      "hit": false,
      "t": 128453.56417708454,
      "d": 80.1282291666721,
      "v": 92
    },
    {
      "midi": 65,
      "hit": false,
      "t": 128453.56417708454,
      "d": 120.19234375000815,
      "v": 114
    },
    {
      "midi": 72,
      "hit": false,
      "t": 128453.56417708454,
      "d": 200.32057291668025,
      "v": 88
    },
    {
      "midi": 65,
      "hit": false,
      "t": 128701.96168750121,
      "d": 296.47444791668386,
      "v": 127
    },
    {
      "midi": 70,
      "hit": false,
      "t": 128701.96168750121,
      "d": 352.5642083333514,
      "v": 114
    },
    {
      "midi": 74,
      "hit": false,
      "t": 128709.97451041789,
      "d": 280.4488020833378,
      "v": 124
    },
    {
      "midi": 58,
      "hit": false,
      "t": 128846.19250000002,
      "d": 248.39751041666023,
      "v": 80
    },
    {
      "midi": 65,
      "hit": false,
      "t": 128846.19250000002,
      "d": 248.39751041666023,
      "v": 80
    },
    {
      "midi": 60,
      "hit": false,
      "t": 129086.57718750123,
      "d": 48.07693749999453,
      "v": 101
    },
    {
      "midi": 65,
      "hit": false,
      "t": 129102.60283333335,
      "d": 120.1923437499936,
      "v": 80
    },
    {
      "midi": 58,
      "hit": false,
      "t": 129102.60283333335,
      "d": 128.20516666666663,
      "v": 80
    },
    {
      "midi": 74,
      "hit": false,
      "t": 129222.79517708455,
      "d": 256.4103333333478,
      "v": 114
    },
    {
      "midi": 70,
      "hit": false,
      "t": 129222.79517708455,
      "d": 280.44880208335235,
      "v": 114
    },
    {
      "midi": 55,
      "hit": false,
      "t": 129230.80800000002,
      "d": 376.60267708332685,
      "v": 81
    },
    {
      "midi": 65,
      "hit": false,
      "t": 129230.80800000002,
      "d": 384.6154999999999,
      "v": 81
    },
    {
      "midi": 65,
      "hit": false,
      "t": 129230.80800000123,
      "d": 136.21798958333966,
      "v": 108
    },
    {
      "midi": 64,
      "hit": false,
      "t": 129607.41067708457,
      "d": 232.37186458332872,
      "v": 110
    },
    {
      "midi": 67,
      "hit": false,
      "t": 129607.41067708457,
      "d": 248.39751041666023,
      "v": 110
    },
    {
      "midi": 72,
      "hit": false,
      "t": 129607.41067708457,
      "d": 272.43597916666477,
      "v": 110
    },
    {
      "midi": 55,
      "hit": false,
      "t": 129615.42350000002,
      "d": 376.60267708332685,
      "v": 82
    },
    {
      "midi": 64,
      "hit": false,
      "t": 129615.42350000002,
      "d": 376.60267708332685,
      "v": 82
    },
    {
      "midi": 64,
      "hit": false,
      "t": 129992.02617708457,
      "d": 192.30775000000722,
      "v": 75
    },
    {
      "midi": 72,
      "hit": false,
      "t": 129992.02617708457,
      "d": 200.32057291668025,
      "v": 83
    },
    {
      "midi": 67,
      "hit": false,
      "t": 129992.02617708457,
      "d": 216.34621875001176,
      "v": 83
    },
    {
      "midi": 55,
      "hit": false,
      "t": 130000.03900000002,
      "d": 769.2309999999998,
      "v": 82
    },
    {
      "midi": 64,
      "hit": false,
      "t": 130000.03900000002,
      "d": 769.2309999999998,
      "v": 82
    },
    {
      "midi": 60,
      "hit": false,
      "t": 130248.43651041792,
      "d": 40.06411458333605,
      "v": 98
    },
    {
      "midi": 64,
      "hit": false,
      "t": 130376.64167708458,
      "d": 248.39751041666023,
      "v": 114
    },
    {
      "midi": 67,
      "hit": false,
      "t": 130376.64167708458,
      "d": 256.41033333333326,
      "v": 119
    },
    {
      "midi": 72,
      "hit": false,
      "t": 130376.64167708458,
      "d": 280.4488020833378,
      "v": 105
    },
    {
      "midi": 67,
      "hit": false,
      "t": 130761.25717708458,
      "d": 216.3462187499972,
      "v": 81
    },
    {
      "midi": 64,
      "hit": false,
      "t": 130761.25717708458,
      "d": 224.35904166667024,
      "v": 86
    },
    {
      "midi": 72,
      "hit": false,
      "t": 130761.25717708458,
      "d": 240.38468750000175,
      "v": 80
    },
    {
      "midi": 60,
      "hit": false,
      "t": 131017.66751041792,
      "d": 56.08976041666756,
      "v": 86
    },
    {
      "midi": 64,
      "hit": false,
      "t": 131145.87267708458,
      "d": 256.41033333333326,
      "v": 114
    },
    {
      "midi": 67,
      "hit": false,
      "t": 131145.87267708458,
      "d": 272.4359791666793,
      "v": 119
    },
    {
      "midi": 72,
      "hit": false,
      "t": 131145.87267708458,
      "d": 288.4616250000254,
      "v": 114
    },
    {
      "midi": 67,
      "hit": false,
      "t": 131530.4881770846,
      "d": 240.3846875000163,
      "v": 95
    },
    {
      "midi": 72,
      "hit": false,
      "t": 131530.4881770846,
      "d": 264.4231562500354,
      "v": 90
    },
    {
      "midi": 64,
      "hit": false,
      "t": 131538.50100000127,
      "d": 240.3846875000163,
      "v": 95
    },
    {
      "midi": 60,
      "hit": false,
      "t": 131794.91133333463,
      "d": 32.05129166666302,
      "v": 98
    },
    {
      "midi": 64,
      "hit": false,
      "t": 131915.10367708464,
      "d": 280.44880208332324,
      "v": 101
    },
    {
      "midi": 67,
      "hit": false,
      "t": 131915.10367708464,
      "d": 296.4744479166693,
      "v": 101
    },
    {
      "midi": 72,
      "hit": false,
      "t": 131915.10367708464,
      "d": 304.48727083334234,
      "v": 90
    },
    {
      "midi": 67,
      "hit": false,
      "t": 132291.70635416798,
      "d": 240.3846874999872,
      "v": 108
    },
    {
      "midi": 59,
      "hit": false,
      "t": 132291.70635416798,
      "d": 280.44880208332324,
      "v": 127
    },
    {
      "midi": 64,
      "hit": false,
      "t": 132291.70635416798,
      "d": 288.4616249999963,
      "v": 114
    },
    {
      "midi": 55,
      "hit": false,
      "t": 132556.12951041796,
      "d": 88.14105208334513,
      "v": 98
    },
    {
      "midi": 64,
      "hit": false,
      "t": 132564.14233333335,
      "d": 128.20516666668118,
      "v": 90
    },
    {
      "midi": 59,
      "hit": false,
      "t": 132676.32185416797,
      "d": 296.4744479166693,
      "v": 105
    },
    {
      "midi": 67,
      "hit": false,
      "t": 132676.32185416797,
      "d": 320.5129166666593,
      "v": 101
    },
    {
      "midi": 64,
      "hit": false,
      "t": 132676.32185416797,
      "d": 352.5642083333223,
      "v": 98
    },
    {
      "midi": 71,
      "hit": false,
      "t": 132692.34750000003,
      "d": 248.39751041666023,
      "v": 90
    },
    {
      "midi": 55,
      "hit": false,
      "t": 132932.7321875013,
      "d": 208.33339583332418,
      "v": 98
    },
    {
      "midi": 71,
      "hit": false,
      "t": 132948.75783333337,
      "d": 120.19234375000815,
      "v": 90
    },
    {
      "midi": 71,
      "hit": false,
      "t": 133076.96300000005,
      "d": 376.6026770833414,
      "v": 90
    },
    {
      "midi": 55,
      "hit": false,
      "t": 133325.36051041796,
      "d": 72.11540624999907,
      "v": 95
    },
    {
      "midi": 59,
      "hit": false,
      "t": 133445.55285416797,
      "d": 200.32057291668025,
      "v": 119
    },
    {
      "midi": 67,
      "hit": false,
      "t": 133445.55285416797,
      "d": 232.37186458334327,
      "v": 108
    },
    {
      "midi": 64,
      "hit": false,
      "t": 133445.55285416797,
      "d": 248.39751041668933,
      "v": 108
    },
    {
      "midi": 71,
      "hit": false,
      "t": 133461.57850000006,
      "d": 248.39751041666023,
      "v": 90
    },
    {
      "midi": 55,
      "hit": false,
      "t": 133709.976010418,
      "d": 64.10258333332604,
      "v": 98
    },
    {
      "midi": 71,
      "hit": false,
      "t": 133717.9888333334,
      "d": 120.19234375000815,
      "v": 91
    },
    {
      "midi": 64,
      "hit": false,
      "t": 133830.16835416798,
      "d": 256.41033333333326,
      "v": 98
    },
    {
      "midi": 69,
      "hit": false,
      "t": 133830.16835416798,
      "d": 256.41033333333326,
      "v": 108
    },
    {
      "midi": 59,
      "hit": false,
      "t": 133838.18117708465,
      "d": 240.3846874999872,
      "v": 101
    },
    {
      "midi": 71,
      "hit": false,
      "t": 133846.19400000008,
      "d": 376.6026770833414,
      "v": 92
    },
    {
      "midi": 55,
      "hit": false,
      "t": 134086.57868750131,
      "d": 72.11540624999907,
      "v": 88
    },
    {
      "midi": 59,
      "hit": false,
      "t": 134214.78385416797,
      "d": 216.3462187499972,
      "v": 114
    },
    {
      "midi": 69,
      "hit": false,
      "t": 134214.78385416797,
      "d": 288.4616249999963,
      "v": 105
    },
    {
      "midi": 64,
      "hit": false,
      "t": 134214.78385416797,
      "d": 368.5898541666684,
      "v": 92
    },
    {
      "midi": 71,
      "hit": false,
      "t": 134230.8095000001,
      "d": 248.39751041666023,
      "v": 96
    },
    {
      "midi": 55,
      "hit": false,
      "t": 134471.1941875013,
      "d": 168.26928124998813,
      "v": 101
    },
    {
      "midi": 71,
      "hit": false,
      "t": 134487.21983333342,
      "d": 512.8206666666665,
      "v": 96
    },
    {
      "midi": 55,
      "hit": false,
      "t": 134863.82251041796,
      "d": 56.08976041665301,
      "v": 98
    },
    {
      "midi": 59,
      "hit": false,
      "t": 134984.01485416794,
      "d": 224.35904166667024,
      "v": 105
    },
    {
      "midi": 69,
      "hit": false,
      "t": 134984.01485416794,
      "d": 224.35904166667024,
      "v": 108
    },
    {
      "midi": 64,
      "hit": false,
      "t": 134984.01485416794,
      "d": 264.4231562500063,
      "v": 108
    },
    {
      "midi": 69,
      "hit": false,
      "t": 135000.0405000001,
      "d": 256.41033333333326,
      "v": 97
    },
    {
      "midi": 55,
      "hit": false,
      "t": 135248.43801041794,
      "d": 104.16669791666209,
      "v": 98
    },
    {
      "midi": 67,
      "hit": false,
      "t": 135256.45083333342,
      "d": 128.20516666668118,
      "v": 88
    },
    {
      "midi": 60,
      "hit": false,
      "t": 135368.63035416795,
      "d": 208.33339583332418,
      "v": 114
    },
    {
      "midi": 69,
      "hit": false,
      "t": 135368.63035416795,
      "d": 224.35904166667024,
      "v": 108
    },
    {
      "midi": 64,
      "hit": false,
      "t": 135368.63035416795,
      "d": 272.4359791666793,
      "v": 105
    },
    {
      "midi": 69,
      "hit": false,
      "t": 135384.6560000001,
      "d": 384.61550000001444,
      "v": 96
    },
    {
      "midi": 57,
      "hit": false,
      "t": 135625.04068750128,
      "d": 112.17952083333512,
      "v": 92
    },
    {
      "midi": 60,
      "hit": false,
      "t": 135753.24585416797,
      "d": 280.44880208332324,
      "v": 105
    },
    {
      "midi": 64,
      "hit": false,
      "t": 135753.24585416797,
      "d": 304.48727083331323,
      "v": 92
    },
    {
      "midi": 69,
      "hit": false,
      "t": 135753.24585416797,
      "d": 304.48727083331323,
      "v": 105
    },
    {
      "midi": 67,
      "hit": false,
      "t": 135769.27150000012,
      "d": 256.41033333333326,
      "v": 104
    },
    {
      "midi": 57,
      "hit": false,
      "t": 136009.6561875013,
      "d": 200.32057291665114,
      "v": 105
    },
    {
      "midi": 64,
      "hit": false,
      "t": 136025.68183333345,
      "d": 1241.9875520833302,
      "v": 105
    },
    {
      "midi": 57,
      "hit": false,
      "t": 136402.28451041796,
      "d": 56.08976041665301,
      "v": 105
    },
    {
      "midi": 60,
      "hit": false,
      "t": 136522.47685416794,
      "d": 184.2949270833342,
      "v": 101
    },
    {
      "midi": 64,
      "hit": false,
      "t": 136522.47685416794,
      "d": 192.30775000000722,
      "v": 105
    },
    {
      "midi": 69,
      "hit": false,
      "t": 136522.47685416794,
      "d": 216.3462187499972,
      "v": 108
    },
    {
      "midi": 57,
      "hit": false,
      "t": 136778.88718750127,
      "d": 64.10258333332604,
      "v": 108
    },
    {
      "midi": 67,
      "hit": false,
      "t": 136907.09235416792,
      "d": 232.37186458334327,
      "v": 101
    },
    {
      "midi": 64,
      "hit": false,
      "t": 136907.09235416792,
      "d": 240.3846875000163,
      "v": 98
    },
    {
      "midi": 60,
      "hit": false,
      "t": 136915.1051770846,
      "d": 184.2949270833342,
      "v": 77
    },
    {
      "midi": 71,
      "hit": false,
      "t": 136915.1051770846,
      "d": 208.33339583332418,
      "v": 101
    },
    {
      "midi": 55,
      "hit": false,
      "t": 137163.50268750128,
      "d": 88.14105208334513,
      "v": 78
    },
    {
      "midi": 71,
      "hit": false,
      "t": 137291.70785416797,
      "d": 200.32057291668025,
      "v": 105
    },
    {
      "midi": 64,
      "hit": false,
      "t": 137291.70785416797,
      "d": 224.35904166667024,
      "v": 108
    },
    {
      "midi": 67,
      "hit": false,
      "t": 137291.70785416797,
      "d": 256.41033333333326,
      "v": 105
    },
    {
      "midi": 60,
      "hit": false,
      "t": 137299.72067708464,
      "d": 216.3462187499972,
      "v": 95
    },
    {
      "midi": 71,
      "hit": false,
      "t": 137307.73350000012,
      "d": 769.2309999999998,
      "v": 91
    },
    {
      "midi": 55,
      "hit": false,
      "t": 137548.1181875013,
      "d": 216.3462187499972,
      "v": 98
    },
    {
      "midi": 55,
      "hit": false,
      "t": 137940.74651041796,
      "d": 88.14105208334513,
      "v": 95
    },
    {
      "midi": 71,
      "hit": false,
      "t": 138068.95167708464,
      "d": 160.2564583333442,
      "v": 101
    },
    {
      "midi": 60,
      "hit": false,
      "t": 138068.95167708464,
      "d": 184.2949270833342,
      "v": 105
    },
    {
      "midi": 67,
      "hit": false,
      "t": 138068.95167708464,
      "d": 208.33339583332418,
      "v": 101
    },
    {
      "midi": 64,
      "hit": false,
      "t": 138068.95167708464,
      "d": 240.3846874999872,
      "v": 101
    },
    {
      "midi": 69,
      "hit": false,
      "t": 138076.96450000012,
      "d": 256.41033333333326,
      "v": 95
    },
    {
      "midi": 55,
      "hit": false,
      "t": 138317.3491875013,
      "d": 72.11540624999907,
      "v": 98
    },
    {
      "midi": 67,
      "hit": false,
      "t": 138333.37483333345,
      "d": 128.20516666668118,
      "v": 94
    },
    {
      "midi": 60,
      "hit": false,
      "t": 138453.56717708462,
      "d": 192.30775000000722,
      "v": 108
    },
    {
      "midi": 65,
      "hit": false,
      "t": 138453.56717708462,
      "d": 216.3462187499972,
      "v": 114
    },
    {
      "midi": 69,
      "hit": false,
      "t": 138453.56717708462,
      "d": 240.3846874999872,
      "v": 108
    },
    {
      "midi": 69,
      "hit": false,
      "t": 138461.58000000013,
      "d": 384.61550000001444,
      "v": 94
    },
    {
      "midi": 53,
      "hit": false,
      "t": 138709.97751041796,
      "d": 88.14105208334513,
      "v": 86
    },
    {
      "midi": 60,
      "hit": false,
      "t": 138838.18267708464,
      "d": 208.33339583332418,
      "v": 98
    },
    {
      "midi": 69,
      "hit": false,
      "t": 138838.18267708464,
      "d": 232.37186458331416,
      "v": 105
    },
    {
      "midi": 65,
      "hit": false,
      "t": 138838.18267708464,
      "d": 256.41033333333326,
      "v": 108
    },
    {
      "midi": 67,
      "hit": false,
      "t": 138846.19550000015,
      "d": 256.41033333333326,
      "v": 92
    },
    {
      "midi": 53,
      "hit": false,
      "t": 139086.5801875013,
      "d": 160.2564583333442,
      "v": 98
    },
    {
      "midi": 65,
      "hit": false,
      "t": 139102.60583333348,
      "d": 1282.0516666666663,
      "v": 91
    },
    {
      "midi": 53,
      "hit": false,
      "t": 139487.22133333463,
      "d": 64.10258333332604,
      "v": 95
    },
    {
      "midi": 60,
      "hit": false,
      "t": 139607.4136770846,
      "d": 184.2949270833342,
      "v": 101
    },
    {
      "midi": 65,
      "hit": false,
      "t": 139607.4136770846,
      "d": 224.35904166667024,
      "v": 105
    },
    {
      "midi": 69,
      "hit": false,
      "t": 139607.4136770846,
      "d": 232.37186458334327,
      "v": 105
    },
    {
      "midi": 53,
      "hit": false,
      "t": 139855.8111875013,
      "d": 64.10258333332604,
      "v": 92
    },
    {
      "midi": 69,
      "hit": false,
      "t": 139992.02917708462,
      "d": 256.41033333339146,
      "v": 98
    },
    {
      "midi": 62,
      "hit": false,
      "t": 140000.0420000013,
      "d": 224.35904166669934,
      "v": 114
    },
    {
      "midi": 65,
      "hit": false,
      "t": 140000.0420000013,
      "d": 240.3846875000454,
      "v": 114
    },
    {
      "midi": 72,
      "hit": false,
      "t": 140008.05482291797,
      "d": 200.32057291668025,
      "v": 101
    },
    {
      "midi": 53,
      "hit": false,
      "t": 140248.43951041801,
      "d": 72.11540624999907,
      "v": 83
    },
    {
      "midi": 62,
      "hit": false,
      "t": 140376.64467708467,
      "d": 264.4231562500063,
      "v": 90
    },
    {
      "midi": 72,
      "hit": false,
      "t": 140376.64467708467,
      "d": 272.4359791666793,
      "v": 92
    },
    {
      "midi": 69,
      "hit": false,
      "t": 140384.65750000134,
      "d": 264.4231562500063,
      "v": 88
    },
    {
      "midi": 65,
      "hit": false,
      "t": 140384.65750000134,
      "d": 272.4359791666793,
      "v": 108
    },
    {
      "midi": 53,
      "hit": false,
      "t": 140633.055010418,
      "d": 96.15387500001816,
      "v": 95
    },
    {
      "midi": 53,
      "hit": false,
      "t": 140641.06783333348,
      "d": 120.19234375000815,
      "v": 91
    },
    {
      "midi": 53,
      "hit": false,
      "t": 140769.27300000016,
      "d": 256.41033333333326,
      "v": 91
    },
    {
      "midi": 53,
      "hit": false,
      "t": 141009.65768750134,
      "d": 72.11540624999907,
      "v": 88
    },
    {
      "midi": 57,
      "hit": false,
      "t": 141025.6833333335,
      "d": 128.20516666668118,
      "v": 90
    },
    {
      "midi": 62,
      "hit": false,
      "t": 141137.862854168,
      "d": 224.35904166667024,
      "v": 98
    },
    {
      "midi": 69,
      "hit": false,
      "t": 141137.862854168,
      "d": 224.35904166667024,
      "v": 98
    },
    {
      "midi": 65,
      "hit": false,
      "t": 141137.862854168,
      "d": 240.3846875000163,
      "v": 101
    },
    {
      "midi": 72,
      "hit": false,
      "t": 141137.862854168,
      "d": 248.39751041668933,
      "v": 95
    },
    {
      "midi": 58,
      "hit": false,
      "t": 141153.88850000018,
      "d": 1923.077500000014,
      "v": 89
    },
    {
      "midi": 53,
      "hit": false,
      "t": 141394.27318750136,
      "d": 40.06411458333605,
      "v": 90
    },
    {
      "midi": 70,
      "hit": false,
      "t": 141522.47835416804,
      "d": 248.39751041666023,
      "v": 114
    },
    {
      "midi": 65,
      "hit": false,
      "t": 141522.47835416804,
      "d": 256.41033333333326,
      "v": 114
    },
    {
      "midi": 62,
      "hit": false,
      "t": 141530.4911770847,
      "d": 216.3462187499972,
      "v": 105
    },
    {
      "midi": 58,
      "hit": false,
      "t": 141778.88868750137,
      "d": 96.15387499998906,
      "v": 101
    },
    {
      "midi": 62,
      "hit": false,
      "t": 141907.09385416802,
      "d": 272.4359791666793,
      "v": 98
    },
    {
      "midi": 65,
      "hit": false,
      "t": 141907.09385416802,
      "d": 272.4359791666793,
      "v": 114
    },
    {
      "midi": 70,
      "hit": false,
      "t": 141907.09385416802,
      "d": 312.50009375001537,
      "v": 88
    },
    {
      "midi": 58,
      "hit": false,
      "t": 142163.50418750136,
      "d": 176.28210416669026,
      "v": 98
    },
    {
      "midi": 58,
      "hit": false,
      "t": 142548.11968750137,
      "d": 64.10258333332604,
      "v": 92
    },
    {
      "midi": 65,
      "hit": false,
      "t": 142676.32485416802,
      "d": 224.35904166669934,
      "v": 108
    },
    {
      "midi": 70,
      "hit": false,
      "t": 142676.32485416802,
      "d": 264.4231562500354,
      "v": 101
    },
    {
      "midi": 62,
      "hit": false,
      "t": 142684.3376770847,
      "d": 200.32057291668025,
      "v": 105
    },
    {
      "midi": 58,
      "hit": false,
      "t": 142932.73518750138,
      "d": 48.07693750000908,
      "v": 98
    },
    {
      "midi": 60,
      "hit": false,
      "t": 143060.94035416807,
      "d": 208.33339583335328,
      "v": 101
    },
    {
      "midi": 69,
      "hit": false,
      "t": 143068.95317708474,
      "d": 184.2949270833342,
      "v": 108
    },
    {
      "midi": 65,
      "hit": false,
      "t": 143068.95317708474,
      "d": 208.33339583335328,
      "v": 101
    },
    {
      "midi": 57,
      "hit": false,
      "t": 143076.9660000002,
      "d": 1153.8465000000142,
      "v": 85
    },
    {
      "midi": 57,
      "hit": false,
      "t": 143325.3635104181,
      "d": 40.06411458333605,
      "v": 95
    },
    {
      "midi": 65,
      "hit": false,
      "t": 143445.5558541681,
      "d": 256.41033333333326,
      "v": 114
    },
    {
      "midi": 69,
      "hit": false,
      "t": 143445.5558541681,
      "d": 288.4616249999963,
      "v": 114
    },
    {
      "midi": 60,
      "hit": false,
      "t": 143453.56867708478,
      "d": 208.33339583332418,
      "v": 105
    },
    {
      "midi": 57,
      "hit": false,
      "t": 143701.96618750144,
      "d": 128.20516666665208,
      "v": 108
    },
    {
      "midi": 57,
      "hit": false,
      "t": 144094.5945104181,
      "d": 80.1282291666721,
      "v": 114
    },
    {
      "midi": 65,
      "hit": false,
      "t": 144214.7868541681,
      "d": 200.32057291665114,
      "v": 108
    },
    {
      "midi": 69,
      "hit": false,
      "t": 144214.7868541681,
      "d": 224.35904166664113,
      "v": 108
    },
    {
      "midi": 60,
      "hit": false,
      "t": 144222.79967708478,
      "d": 168.26928124998813,
      "v": 105
    },
    {
      "midi": 57,
      "hit": false,
      "t": 144471.1971875014,
      "d": 48.07693750000908,
      "v": 105
    },
    {
      "midi": 62,
      "hit": false,
      "t": 144607.41517708477,
      "d": 216.3462187499972,
      "v": 114
    },
    {
      "midi": 71,
      "hit": false,
      "t": 144607.41517708477,
      "d": 224.35904166667024,
      "v": 114
    },
    {
      "midi": 67,
      "hit": false,
      "t": 144607.41517708477,
      "d": 240.3846875000163,
      "v": 114
    },
    {
      "midi": 64,
      "hit": false,
      "t": 144871.83833333355,
      "d": 128.20516666668118,
      "v": 90
    },
    {
      "midi": 59,
      "hit": false,
      "t": 144879.85115625145,
      "d": 40.06411458333605,
      "v": 101
    },
    {
      "midi": 71,
      "hit": false,
      "t": 144984.0178541681,
      "d": 264.4231562500063,
      "v": 101
    },
    {
      "midi": 67,
      "hit": false,
      "t": 144984.0178541681,
      "d": 296.4744479166693,
      "v": 101
    },
    {
      "midi": 62,
      "hit": false,
      "t": 144992.03067708478,
      "d": 264.4231562500063,
      "v": 105
    },
    {
      "midi": 71,
      "hit": false,
      "t": 145000.04350000023,
      "d": 248.39751041666023,
      "v": 90
    },
    {
      "midi": 59,
      "hit": false,
      "t": 145248.44101041812,
      "d": 48.07693750000908,
      "v": 80
    },
    {
      "midi": 71,
      "hit": false,
      "t": 145256.45383333357,
      "d": 120.19234375000815,
      "v": 90
    },
    {
      "midi": 71,
      "hit": false,
      "t": 145384.65900000025,
      "d": 376.6026770833414,
      "v": 90
    },
    {
      "midi": 59,
      "hit": false,
      "t": 145641.0693333348,
      "d": 40.06411458333605,
      "v": 98
    },
    {
      "midi": 67,
      "hit": false,
      "t": 145753.24885416814,
      "d": 224.35904166667024,
      "v": 108
    },
    {
      "midi": 71,
      "hit": false,
      "t": 145753.24885416814,
      "d": 256.41033333333326,
      "v": 108
    },
    {
      "midi": 62,
      "hit": false,
      "t": 145761.2616770848,
      "d": 256.41033333333326,
      "v": 119
    },
    {
      "midi": 71,
      "hit": false,
      "t": 145769.27450000026,
      "d": 248.39751041666023,
      "v": 90
    },
    {
      "midi": 59,
      "hit": false,
      "t": 146017.67201041814,
      "d": 32.05129166666302,
      "v": 98
    },
    {
      "midi": 71,
      "hit": false,
      "t": 146025.6848333336,
      "d": 120.19234375000815,
      "v": 91
    },
    {
      "midi": 67,
      "hit": false,
      "t": 146145.8771770848,
      "d": 224.35904166667024,
      "v": 114
    },
    {
      "midi": 64,
      "hit": false,
      "t": 146145.8771770848,
      "d": 232.37186458334327,
      "v": 105
    },
    {
      "midi": 71,
      "hit": false,
      "t": 146153.89000000028,
      "d": 376.6026770833414,
      "v": 92
    },
    {
      "midi": 71,
      "hit": false,
      "t": 146153.89000000147,
      "d": 232.37186458334327,
      "v": 95
    },
    {
      "midi": 55,
      "hit": false,
      "t": 146394.2746875015,
      "d": 72.11540624999907,
      "v": 101
    },
    {
      "midi": 64,
      "hit": false,
      "t": 146522.47985416814,
      "d": 272.4359791666793,
      "v": 108
    },
    {
      "midi": 71,
      "hit": false,
      "t": 146522.47985416814,
      "d": 288.4616250000254,
      "v": 92
    },
    {
      "midi": 67,
      "hit": false,
      "t": 146530.4926770848,
      "d": 264.4231562500063,
      "v": 108
    },
    {
      "midi": 71,
      "hit": false,
      "t": 146538.5055000003,
      "d": 248.39751041666023,
      "v": 96
    },
    {
      "midi": 55,
      "hit": false,
      "t": 146778.89018750147,
      "d": 96.15387500001816,
      "v": 101
    },
    {
      "midi": 71,
      "hit": false,
      "t": 146794.91583333362,
      "d": 512.8206666666665,
      "v": 96
    },
    {
      "midi": 55,
      "hit": false,
      "t": 147171.51851041816,
      "d": 72.11540624999907,
      "v": 95
    },
    {
      "midi": 67,
      "hit": false,
      "t": 147291.71085416817,
      "d": 224.35904166667024,
      "v": 105
    },
    {
      "midi": 71,
      "hit": false,
      "t": 147291.71085416817,
      "d": 224.35904166667024,
      "v": 98
    },
    {
      "midi": 64,
      "hit": false,
      "t": 147291.71085416817,
      "d": 272.4359791666793,
      "v": 108
    },
    {
      "midi": 69,
      "hit": false,
      "t": 147307.7365000003,
      "d": 256.41033333333326,
      "v": 97
    },
    {
      "midi": 55,
      "hit": false,
      "t": 147556.13401041817,
      "d": 48.07693750000908,
      "v": 95
    },
    {
      "midi": 67,
      "hit": false,
      "t": 147564.14683333362,
      "d": 128.20516666668118,
      "v": 88
    },
    {
      "midi": 69,
      "hit": false,
      "t": 147692.3520000003,
      "d": 384.61550000001444,
      "v": 96
    },
    {
      "midi": 69,
      "hit": false,
      "t": 147692.35200000153,
      "d": 216.3462187499972,
      "v": 108
    },
    {
      "midi": 60,
      "hit": false,
      "t": 147692.35200000153,
      "d": 232.37186458334327,
      "v": 105
    },
    {
      "midi": 57,
      "hit": false,
      "t": 147940.74951041822,
      "d": 72.11540624999907,
      "v": 83
    },
    {
      "midi": 69,
      "hit": false,
      "t": 148068.95467708487,
      "d": 280.44880208332324,
      "v": 101
    },
    {
      "midi": 64,
      "hit": false,
      "t": 148068.95467708487,
      "d": 288.4616249999963,
      "v": 98
    },
    {
      "midi": 67,
      "hit": false,
      "t": 148076.96750000032,
      "d": 256.41033333333326,
      "v": 104
    },
    {
      "midi": 60,
      "hit": false,
      "t": 148076.96750000154,
      "d": 240.3846874999872,
      "v": 95
    },
    {
      "midi": 57,
      "hit": false,
      "t": 148325.3650104182,
      "d": 104.16669791666209,
      "v": 108
    },
    {
      "midi": 64,
      "hit": false,
      "t": 148333.37783333365,
      "d": 1241.9875520833302,
      "v": 105
    },
    {
      "midi": 57,
      "hit": false,
      "t": 148709.9805104182,
      "d": 48.07693750000908,
      "v": 101
    },
    {
      "midi": 60,
      "hit": false,
      "t": 148838.18567708487,
      "d": 200.32057291668025,
      "v": 105
    },
    {
      "midi": 69,
      "hit": false,
      "t": 148838.18567708487,
      "d": 208.33339583335328,
      "v": 108
    },
    {
      "midi": 64,
      "hit": false,
      "t": 148838.18567708487,
      "d": 216.3462187500263,
      "v": 108
    },
    {
      "midi": 57,
      "hit": false,
      "t": 149086.58318750156,
      "d": 40.06411458333605,
      "v": 101
    },
    {
      "midi": 64,
      "hit": false,
      "t": 149214.78835416824,
      "d": 248.39751041666023,
      "v": 108
    },
    {
      "midi": 71,
      "hit": false,
      "t": 149214.78835416824,
      "d": 248.39751041666023,
      "v": 119
    },
    {
      "midi": 60,
      "hit": false,
      "t": 149222.8011770849,
      "d": 176.28210416666116,
      "v": 101
    },
    {
      "midi": 55,
      "hit": false,
      "t": 149471.19868750157,
      "d": 56.08976041665301,
      "v": 98
    },
    {
      "midi": 64,
      "hit": false,
      "t": 149607.4166770849,
      "d": 280.44880208332324,
      "v": 95
    },
    {
      "midi": 71,
      "hit": false,
      "t": 149607.4166770849,
      "d": 280.44880208332324,
      "v": 101
    },
    {
      "midi": 71,
      "hit": false,
      "t": 149615.42950000032,
      "d": 769.2309999999998,
      "v": 91
    },
    {
      "midi": 60,
      "hit": false,
      "t": 149615.42950000157,
      "d": 240.3846874999872,
      "v": 98
    },
    {
      "midi": 67,
      "hit": false,
      "t": 149615.42950000157,
      "d": 272.4359791666502,
      "v": 98
    },
    {
      "midi": 55,
      "hit": false,
      "t": 149855.81418750156,
      "d": 120.19234375000815,
      "v": 98
    },
    {
      "midi": 55,
      "hit": false,
      "t": 150248.44251041824,
      "d": 88.14105208334513,
      "v": 98
    },
    {
      "midi": 60,
      "hit": false,
      "t": 150368.63485416825,
      "d": 208.33339583332418,
      "v": 108
    },
    {
      "midi": 67,
      "hit": false,
      "t": 150368.63485416825,
      "d": 232.37186458331416,
      "v": 108
    },
    {
      "midi": 71,
      "hit": false,
      "t": 150368.63485416825,
      "d": 232.37186458331416,
      "v": 108
    },
    {
      "midi": 64,
      "hit": false,
      "t": 150368.63485416825,
      "d": 240.3846874999872,
      "v": 114
    },
    {
      "midi": 69,
      "hit": false,
      "t": 150384.66050000032,
      "d": 256.41033333333326,
      "v": 95
    },
    {
      "midi": 55,
      "hit": false,
      "t": 150617.0323645849,
      "d": 40.06411458333605,
      "v": 101
    },
    {
      "midi": 67,
      "hit": false,
      "t": 150641.07083333365,
      "d": 128.20516666668118,
      "v": 94
    },
    {
      "midi": 65,
      "hit": false,
      "t": 150761.2631770849,
      "d": 248.39751041666023,
      "v": 124
    },
    {
      "midi": 69,
      "hit": false,
      "t": 150769.27600000033,
      "d": 384.61550000001444,
      "v": 94
    },
    {
      "midi": 72,
      "hit": false,
      "t": 150769.27600000158,
      "d": 240.3846874999872,
      "v": 101
    },
    {
      "midi": 69,
      "hit": false,
      "t": 150769.27600000158,
      "d": 248.39751041666023,
      "v": 108
    },
    {
      "midi": 67,
      "hit": false,
      "t": 151153.89150000035,
      "d": 256.41033333333326,
      "v": 92
    },
    {
      "midi": 69,
      "hit": false,
      "t": 151161.90432291824,
      "d": 232.37186458334327,
      "v": 108
    },
    {
      "midi": 65,
      "hit": false,
      "t": 151169.91714583492,
      "d": 208.33339583332418,
      "v": 124
    },
    {
      "midi": 72,
      "hit": false,
      "t": 151169.91714583492,
      "d": 208.33339583332418,
      "v": 98
    },
    {
      "midi": 65,
      "hit": false,
      "t": 151410.30183333368,
      "d": 1282.0516666666663,
      "v": 91
    },
    {
      "midi": 53,
      "hit": false,
      "t": 151426.32747916825,
      "d": 64.10258333332604,
      "v": 105
    },
    {
      "midi": 53,
      "hit": false,
      "t": 151786.90451041824,
      "d": 80.1282291666721,
      "v": 90
    },
    {
      "midi": 65,
      "hit": false,
      "t": 151923.12250000157,
      "d": 232.37186458334327,
      "v": 114
    },
    {
      "midi": 72,
      "hit": false,
      "t": 151931.13532291824,
      "d": 208.33339583332418,
      "v": 98
    },
    {
      "midi": 69,
      "hit": false,
      "t": 151931.13532291824,
      "d": 224.35904166667024,
      "v": 108
    },
    {
      "midi": 53,
      "hit": false,
      "t": 152163.5071875016,
      "d": 72.11540624999907,
      "v": 92
    },
    {
      "midi": 72,
      "hit": false,
      "t": 152291.71235416824,
      "d": 224.35904166667024,
      "v": 101
    },
    {
      "midi": 65,
      "hit": false,
      "t": 152291.71235416824,
      "d": 256.41033333333326,
      "v": 114
    },
    {
      "midi": 62,
      "hit": false,
      "t": 152299.7251770849,
      "d": 248.39751041666023,
      "v": 119
    },
    {
      "midi": 69,
      "hit": false,
      "t": 152299.7251770849,
      "d": 248.39751041666023,
      "v": 108
    },
    {
      "midi": 53,
      "hit": false,
      "t": 152548.12268750157,
      "d": 56.08976041665301,
      "v": 71
    },
    {
      "midi": 72,
      "hit": false,
      "t": 152684.3406770849,
      "d": 216.3462187499972,
      "v": 98
    },
    {
      "midi": 62,
      "hit": false,
      "t": 152684.3406770849,
      "d": 224.35904166667024,
      "v": 105
    },
    {
      "midi": 65,
      "hit": false,
      "t": 152684.3406770849,
      "d": 224.35904166667024,
      "v": 101
    },
    {
      "midi": 69,
      "hit": false,
      "t": 152692.35350000157,
      "d": 336.53856249997625,
      "v": 98
    },
    {
      "midi": 53,
      "hit": false,
      "t": 152932.73818750156,
      "d": 104.16669791666209,
      "v": 88
    },
    {
      "midi": 60,
      "hit": false,
      "t": 152948.76383333368,
      "d": 128.20516666668118,
      "v": 78
    },
    {
      "midi": 62,
      "hit": false,
      "t": 153076.96900000036,
      "d": 256.41033333333326,
      "v": 88
    },
    {
      "midi": 53,
      "hit": false,
      "t": 153317.35368750154,
      "d": 80.1282291666721,
      "v": 84
    },
    {
      "midi": 64,
      "hit": false,
      "t": 153333.3793333337,
      "d": 128.20516666668118,
      "v": 95
    },
    {
      "midi": 65,
      "hit": false,
      "t": 153445.55885416822,
      "d": 208.33339583332418,
      "v": 114
    },
    {
      "midi": 62,
      "hit": false,
      "t": 153445.55885416822,
      "d": 216.3462187499972,
      "v": 108
    },
    {
      "midi": 69,
      "hit": false,
      "t": 153445.55885416822,
      "d": 224.35904166667024,
      "v": 105
    },
    {
      "midi": 72,
      "hit": false,
      "t": 153445.55885416822,
      "d": 256.41033333333326,
      "v": 105
    },
    {
      "midi": 65,
      "hit": false,
      "t": 153461.58450000038,
      "d": 1923.077500000014,
      "v": 109
    },
    {
      "midi": 53,
      "hit": false,
      "t": 153693.95636458488,
      "d": 72.11540624999907,
      "v": 88
    },
    {
      "midi": 65,
      "hit": false,
      "t": 153838.18717708488,
      "d": 232.37186458334327,
      "v": 114
    },
    {
      "midi": 70,
      "hit": false,
      "t": 153838.18717708488,
      "d": 264.4231562500354,
      "v": 105
    },
    {
      "midi": 62,
      "hit": false,
      "t": 153846.20000000155,
      "d": 224.35904166667024,
      "v": 119
    },
    {
      "midi": 58,
      "hit": false,
      "t": 154086.58468750157,
      "d": 96.15387500001816,
      "v": 90
    },
    {
      "midi": 65,
      "hit": false,
      "t": 154214.78985416825,
      "d": 280.44880208335235,
      "v": 114
    },
    {
      "midi": 70,
      "hit": false,
      "t": 154214.78985416825,
      "d": 384.61550000001444,
      "v": 88
    },
    {
      "midi": 62,
      "hit": false,
      "t": 154222.80267708492,
      "d": 256.41033333333326,
      "v": 108
    },
    {
      "midi": 58,
      "hit": false,
      "t": 154471.20018750158,
      "d": 192.30775000000722,
      "v": 101
    },
    {
      "midi": 58,
      "hit": false,
      "t": 154863.82851041827,
      "d": 56.08976041665301,
      "v": 90
    },
    {
      "midi": 62,
      "hit": false,
      "t": 154984.02085416825,
      "d": 192.30775000000722,
      "v": 124
    },
    {
      "midi": 65,
      "hit": false,
      "t": 154984.02085416825,
      "d": 256.41033333333326,
      "v": 114
    },
    {
      "midi": 70,
      "hit": false,
      "t": 154984.02085416825,
      "d": 264.4231562500063,
      "v": 101
    },
    {
      "midi": 58,
      "hit": false,
      "t": 155240.43118750158,
      "d": 96.15387500001816,
      "v": 90
    },
    {
      "midi": 65,
      "hit": false,
      "t": 155376.64917708494,
      "d": 216.3462187499972,
      "v": 108
    },
    {
      "midi": 69,
      "hit": false,
      "t": 155376.64917708494,
      "d": 224.35904166667024,
      "v": 119
    },
    {
      "midi": 69,
      "hit": false,
      "t": 155384.6620000004,
      "d": 1538.4619999999995,
      "v": 109
    },
    {
      "midi": 57,
      "hit": false,
      "t": 155625.0466875016,
      "d": 64.10258333332604,
      "v": 90
    },
    {
      "midi": 65,
      "hit": false,
      "t": 155761.26467708492,
      "d": 280.44880208332324,
      "v": 114
    },
    {
      "midi": 69,
      "hit": false,
      "t": 155761.26467708492,
      "d": 416.66679166664835,
      "v": 105
    },
    {
      "midi": 57,
      "hit": false,
      "t": 156009.66218750158,
      "d": 128.20516666665208,
      "v": 101
    },
    {
      "midi": 57,
      "hit": false,
      "t": 156402.29051041824,
      "d": 48.07693750000908,
      "v": 101
    },
    {
      "midi": 65,
      "hit": false,
      "t": 156522.48285416825,
      "d": 192.30775000000722,
      "v": 108
    },
    {
      "midi": 69,
      "hit": false,
      "t": 156522.48285416825,
      "d": 192.30775000000722,
      "v": 114
    },
    {
      "midi": 60,
      "hit": false,
      "t": 156522.48285416825,
      "d": 240.3846875000163,
      "v": 101
    },
    {
      "midi": 57,
      "hit": false,
      "t": 156778.8931875016,
      "d": 32.05129166666302,
      "v": 88
    },
    {
      "midi": 62,
      "hit": false,
      "t": 156915.11117708494,
      "d": 232.37186458337237,
      "v": 119
    },
    {
      "midi": 67,
      "hit": false,
      "t": 156915.11117708494,
      "d": 232.37186458337237,
      "v": 119
    },
    {
      "midi": 67,
      "hit": false,
      "t": 156923.1240000004,
      "d": 1538.4619999999995,
      "v": 98
    },
    {
      "midi": 59,
      "hit": false,
      "t": 156931.13682291828,
      "d": 200.32057291668025,
      "v": 108
    },
    {
      "midi": 55,
      "hit": false,
      "t": 157171.5215104183,
      "d": 88.14105208334513,
      "v": 78
    },
    {
      "midi": 62,
      "hit": false,
      "t": 157299.72667708498,
      "d": 376.6026770833414,
      "v": 92
    },
    {
      "midi": 67,
      "hit": false,
      "t": 157307.73950000165,
      "d": 360.57703124999534,
      "v": 92
    },
    {
      "midi": 59,
      "hit": false,
      "t": 157315.75232291833,
      "d": 320.5129166666593,
      "v": 92
    },
    {
      "midi": 55,
      "hit": false,
      "t": 157556.13701041832,
      "d": 120.19234375000815,
      "v": 98
    },
    {
      "midi": 55,
      "hit": false,
      "t": 157956.77815625165,
      "d": 48.07693750000908,
      "v": 90
    },
    {
      "midi": 62,
      "hit": false,
      "t": 158068.95767708498,
      "d": 216.3462187499972,
      "v": 114
    },
    {
      "midi": 59,
      "hit": false,
      "t": 158076.97050000165,
      "d": 184.2949270833342,
      "v": 119
    },
    {
      "midi": 67,
      "hit": false,
      "t": 158076.97050000165,
      "d": 208.33339583332418,
      "v": 108
    },
    {
      "midi": 55,
      "hit": false,
      "t": 158325.36801041831,
      "d": 64.10258333332604,
      "v": 92
    },
    {
      "midi": 67,
      "hit": false,
      "t": 158453.57317708497,
      "d": 248.39751041666023,
      "v": 108
    },
    {
      "midi": 62,
      "hit": false,
      "t": 158461.58600000164,
      "d": 216.3462187499972,
      "v": 119
    },
    {
      "midi": 71,
      "hit": false,
      "t": 158469.5988229183,
      "d": 208.33339583332418,
      "v": 108
    },
    {
      "midi": 55,
      "hit": false,
      "t": 158709.9835104183,
      "d": 80.1282291666721,
      "v": 95
    },
    {
      "midi": 71,
      "hit": false,
      "t": 158838.18867708498,
      "d": 216.3462187499972,
      "v": 101
    },
    {
      "midi": 67,
      "hit": false,
      "t": 158838.18867708498,
      "d": 240.3846874999872,
      "v": 105
    },
    {
      "midi": 62,
      "hit": false,
      "t": 158838.18867708498,
      "d": 248.39751041666023,
      "v": 114
    },
    {
      "midi": 55,
      "hit": false,
      "t": 159094.59901041831,
      "d": 104.16669791666209,
      "v": 92
    },
    {
      "midi": 55,
      "hit": false,
      "t": 159479.2145104183,
      "d": 48.07693750000908,
      "v": 101
    },
    {
      "midi": 62,
      "hit": false,
      "t": 159607.41967708498,
      "d": 280.44880208332324,
      "v": 119
    },
    {
      "midi": 67,
      "hit": false,
      "t": 159607.41967708498,
      "d": 288.4616249999963,
      "v": 114
    },
    {
      "midi": 71,
      "hit": false,
      "t": 159607.41967708498,
      "d": 296.4744479166693,
      "v": 98
    },
    {
      "midi": 55,
      "hit": false,
      "t": 159984.02235416832,
      "d": 160.2564583333442,
      "v": 77
    },
    {
      "midi": 58,
      "hit": false,
      "t": 159984.02235416832,
      "d": 224.35904166667024,
      "v": 78
    },
    {
      "midi": 63,
      "hit": false,
      "t": 159992.035177085,
      "d": 184.2949270833342,
      "v": 76
    },
    {
      "midi": 63,
      "hit": false,
      "t": 160368.63785416834,
      "d": 232.37186458334327,
      "v": 101
    },
    {
      "midi": 58,
      "hit": false,
      "t": 160368.63785416834,
      "d": 240.3846875000163,
      "v": 114
    },
    {
      "midi": 55,
      "hit": false,
      "t": 160376.650677085,
      "d": 232.37186458334327,
      "v": 119
    },
    {
      "midi": 55,
      "hit": false,
      "t": 160753.25335416835,
      "d": 216.3462187499972,
      "v": 72
    },
    {
      "midi": 63,
      "hit": false,
      "t": 160753.25335416835,
      "d": 232.37186458334327,
      "v": 70
    },
    {
      "midi": 58,
      "hit": false,
      "t": 160753.25335416835,
      "d": 256.41033333333326,
      "v": 71
    },
    {
      "midi": 51,
      "hit": false,
      "t": 161009.66368750168,
      "d": 112.17952083333512,
      "v": 83
    },
    {
      "midi": 55,
      "hit": false,
      "t": 161137.86885416837,
      "d": 200.32057291668025,
      "v": 114
    },
    {
      "midi": 63,
      "hit": false,
      "t": 161137.86885416837,
      "d": 216.3462187500263,
      "v": 98
    },
    {
      "midi": 58,
      "hit": false,
      "t": 161137.86885416837,
      "d": 224.35904166669934,
      "v": 105
    },
    {
      "midi": 51,
      "hit": false,
      "t": 161394.27918750173,
      "d": 96.15387499998906,
      "v": 84
    },
    {
      "midi": 53,
      "hit": false,
      "t": 161522.48435416838,
      "d": 160.2564583333442,
      "v": 95
    },
    {
      "midi": 58,
      "hit": false,
      "t": 161522.48435416838,
      "d": 192.30775000000722,
      "v": 90
    },
    {
      "midi": 62,
      "hit": false,
      "t": 161530.49717708505,
      "d": 120.19234375000815,
      "v": 92
    },
    {
      "midi": 62,
      "hit": false,
      "t": 161907.0998541684,
      "d": 232.37186458334327,
      "v": 105
    },
    {
      "midi": 53,
      "hit": false,
      "t": 161907.0998541684,
      "d": 248.39751041668933,
      "v": 108
    },
    {
      "midi": 58,
      "hit": false,
      "t": 161907.0998541684,
      "d": 256.41033333336236,
      "v": 114
    },
    {
      "midi": 53,
      "hit": false,
      "t": 162291.71535416844,
      "d": 232.37186458334327,
      "v": 70
    },
    {
      "midi": 58,
      "hit": false,
      "t": 162291.71535416844,
      "d": 240.3846875000163,
      "v": 76
    },
    {
      "midi": 62,
      "hit": false,
      "t": 162299.7281770851,
      "d": 200.32057291668025,
      "v": 75
    },
    {
      "midi": 50,
      "hit": false,
      "t": 162548.1256875018,
      "d": 48.07693750000908,
      "v": 84
    },
    {
      "midi": 53,
      "hit": false,
      "t": 162676.33085416848,
      "d": 224.35904166667024,
      "v": 114
    },
    {
      "midi": 58,
      "hit": false,
      "t": 162676.33085416848,
      "d": 240.3846875000163,
      "v": 105
    },
    {
      "midi": 62,
      "hit": false,
      "t": 162676.33085416848,
      "d": 240.3846875000163,
      "v": 119
    },
    {
      "midi": 50,
      "hit": false,
      "t": 162932.74118750184,
      "d": 48.07693750000908,
      "v": 88
    },
    {
      "midi": 60,
      "hit": false,
      "t": 163068.9591770852,
      "d": 192.30775000000722,
      "v": 83
    },
    {
      "midi": 57,
      "hit": false,
      "t": 163076.97200000187,
      "d": 120.19234375000815,
      "v": 92
    },
    {
      "midi": 53,
      "hit": false,
      "t": 163076.97200000187,
      "d": 192.30775000000722,
      "v": 80
    },
    {
      "midi": 57,
      "hit": false,
      "t": 163453.5746770852,
      "d": 216.3462187499972,
      "v": 119
    },
    {
      "midi": 60,
      "hit": false,
      "t": 163453.5746770852,
      "d": 256.41033333333326,
      "v": 98
    },
    {
      "midi": 53,
      "hit": false,
      "t": 163453.5746770852,
      "d": 272.4359791666793,
      "v": 101
    },
    {
      "midi": 57,
      "hit": false,
      "t": 163830.17735416855,
      "d": 240.3846875000163,
      "v": 86
    },
    {
      "midi": 53,
      "hit": false,
      "t": 163830.17735416855,
      "d": 264.4231562500354,
      "v": 53
    },
    {
      "midi": 60,
      "hit": false,
      "t": 163838.19017708523,
      "d": 248.39751041668933,
      "v": 72
    },
    {
      "midi": 48,
      "hit": false,
      "t": 164094.6005104186,
      "d": 56.08976041665301,
      "v": 88
    },
    {
      "midi": 53,
      "hit": false,
      "t": 164222.80567708524,
      "d": 192.30775000000722,
      "v": 98
    },
    {
      "midi": 60,
      "hit": false,
      "t": 164222.80567708524,
      "d": 216.3462187499972,
      "v": 95
    },
    {
      "midi": 57,
      "hit": false,
      "t": 164222.80567708524,
      "d": 248.39751041666023,
      "v": 119
    },
    {
      "midi": 48,
      "hit": false,
      "t": 164479.21601041858,
      "d": 32.05129166666302,
      "v": 73
    },
    {
      "midi": 60,
      "hit": false,
      "t": 164607.42117708523,
      "d": 192.30775000000722,
      "v": 86
    },
    {
      "midi": 55,
      "hit": false,
      "t": 164607.42117708523,
      "d": 216.3462187499972,
      "v": 95
    },
    {
      "midi": 64,
      "hit": false,
      "t": 164623.44682291857,
      "d": 152.24363541667117,
      "v": 88
    },
    {
      "midi": 55,
      "hit": false,
      "t": 164984.02385416857,
      "d": 288.4616249999963,
      "v": 114
    },
    {
      "midi": 60,
      "hit": false,
      "t": 164984.02385416857,
      "d": 288.4616249999963,
      "v": 114
    },
    {
      "midi": 64,
      "hit": false,
      "t": 164984.02385416857,
      "d": 288.4616249999963,
      "v": 114
    },
    {
      "midi": 55,
      "hit": false,
      "t": 165376.65217708523,
      "d": 208.33339583335328,
      "v": 86
    },
    {
      "midi": 64,
      "hit": false,
      "t": 165384.6650000019,
      "d": 192.30775000000722,
      "v": 73
    },
    {
      "midi": 60,
      "hit": false,
      "t": 165392.67782291857,
      "d": 192.30775000000722,
      "v": 81
    },
    {
      "midi": 48,
      "hit": false,
      "t": 165633.0625104186,
      "d": 56.08976041665301,
      "v": 90
    },
    {
      "midi": 64,
      "hit": false,
      "t": 165761.26767708524,
      "d": 216.3462187499972,
      "v": 114
    },
    {
      "midi": 55,
      "hit": false,
      "t": 165761.26767708524,
      "d": 224.35904166667024,
      "v": 119
    },
    {
      "midi": 60,
      "hit": false,
      "t": 165769.2805000019,
      "d": 264.4231562500063,
      "v": 119
    },
    {
      "midi": 48,
      "hit": false,
      "t": 166025.69083333525,
      "d": 48.07693750000908,
      "v": 83
    },
    {
      "midi": 58,
      "hit": false,
      "t": 166145.88317708526,
      "d": 224.35904166669934,
      "v": 98
    },
    {
      "midi": 53,
      "hit": false,
      "t": 166161.9088229186,
      "d": 200.32057291668025,
      "v": 92
    },
    {
      "midi": 62,
      "hit": false,
      "t": 166161.9088229186,
      "d": 200.32057291668025,
      "v": 98
    },
    {
      "midi": 60,
      "hit": false,
      "t": 166538.51150000194,
      "d": 248.39751041666023,
      "v": 105
    },
    {
      "midi": 58,
      "hit": false,
      "t": 166546.52432291862,
      "d": 216.3462187499972,
      "v": 101
    },
    {
      "midi": 53,
      "hit": false,
      "t": 166546.52432291862,
      "d": 240.3846874999872,
      "v": 105
    },
    {
      "midi": 53,
      "hit": false,
      "t": 166915.11417708528,
      "d": 216.3462187499972,
      "v": 78
    },
    {
      "midi": 58,
      "hit": false,
      "t": 166915.11417708528,
      "d": 232.37186458334327,
      "v": 78
    },
    {
      "midi": 60,
      "hit": false,
      "t": 166915.11417708528,
      "d": 240.3846875000163,
      "v": 73
    },
    {
      "midi": 48,
      "hit": false,
      "t": 167171.52451041865,
      "d": 56.08976041665301,
      "v": 95
    },
    {
      "midi": 58,
      "hit": false,
      "t": 167291.71685416863,
      "d": 256.41033333333326,
      "v": 98
    },
    {
      "midi": 53,
      "hit": false,
      "t": 167299.7296770853,
      "d": 256.41033333333326,
      "v": 119
    },
    {
      "midi": 60,
      "hit": false,
      "t": 167299.7296770853,
      "d": 256.41033333333326,
      "v": 114
    },
    {
      "midi": 53,
      "hit": false,
      "t": 167676.33235416864,
      "d": 256.41033333333326,
      "v": 78
    },
    {
      "midi": 58,
      "hit": false,
      "t": 167676.33235416864,
      "d": 256.41033333333326,
      "v": 73
    },
    {
      "midi": 60,
      "hit": false,
      "t": 167676.33235416864,
      "d": 256.41033333333326,
      "v": 88
    },
    {
      "midi": 48,
      "hit": false,
      "t": 167940.75551041865,
      "d": 40.06411458333605,
      "v": 81
    },
    {
      "midi": 58,
      "hit": false,
      "t": 168060.94785416865,
      "d": 208.33339583332418,
      "v": 98
    },
    {
      "midi": 53,
      "hit": false,
      "t": 168060.94785416865,
      "d": 224.35904166667024,
      "v": 98
    },
    {
      "midi": 60,
      "hit": false,
      "t": 168060.94785416865,
      "d": 224.35904166667024,
      "v": 101
    },
    {
      "midi": 60,
      "hit": false,
      "t": 168445.56335416867,
      "d": 152.24363541667117,
      "v": 98
    },
    {
      "midi": 58,
      "hit": false,
      "t": 168453.57617708534,
      "d": 80.1282291666721,
      "v": 92
    },
    {
      "midi": 53,
      "hit": false,
      "t": 168453.57617708534,
      "d": 136.2179895833251,
      "v": 98
    },
    {
      "midi": 62,
      "hit": false,
      "t": 168701.973687502,
      "d": 296.4744479166693,
      "v": 124
    },
    {
      "midi": 58,
      "hit": false,
      "t": 168701.973687502,
      "d": 376.6026770833414,
      "v": 114
    },
    {
      "midi": 53,
      "hit": false,
      "t": 168701.973687502,
      "d": 392.62832291668747,
      "v": 98
    },
    {
      "midi": 48,
      "hit": false,
      "t": 169094.6020104187,
      "d": 56.08976041665301,
      "v": 83
    },
    {
      "midi": 53,
      "hit": false,
      "t": 169222.80717708534,
      "d": 136.2179895833251,
      "v": 105
    },
    {
      "midi": 62,
      "hit": false,
      "t": 169222.80717708534,
      "d": 232.37186458331416,
      "v": 114
    },
    {
      "midi": 58,
      "hit": false,
      "t": 169222.80717708534,
      "d": 248.39751041666023,
      "v": 105
    },
    {
      "midi": 55,
      "hit": false,
      "t": 169607.42267708533,
      "d": 240.3846874999872,
      "v": 95
    },
    {
      "midi": 52,
      "hit": false,
      "t": 169607.42267708533,
      "d": 256.41033333333326,
      "v": 95
    },
    {
      "midi": 60,
      "hit": false,
      "t": 169607.42267708533,
      "d": 256.41033333333326,
      "v": 98
    },
    {
      "midi": 55,
      "hit": false,
      "t": 169992.03817708534,
      "d": 224.35904166667024,
      "v": 66
    },
    {
      "midi": 60,
      "hit": false,
      "t": 169992.03817708534,
      "d": 232.37186458334327,
      "v": 72
    },
    {
      "midi": 52,
      "hit": false,
      "t": 170000.05100000201,
      "d": 232.37186458334327,
      "v": 70
    },
    {
      "midi": 48,
      "hit": false,
      "t": 170256.46133333535,
      "d": 48.07693750000908,
      "v": 84
    },
    {
      "midi": 55,
      "hit": false,
      "t": 170376.65367708536,
      "d": 240.3846874999872,
      "v": 124
    },
    {
      "midi": 52,
      "hit": false,
      "t": 170376.65367708536,
      "d": 248.39751041666023,
      "v": 108
    },
    {
      "midi": 60,
      "hit": false,
      "t": 170376.65367708536,
      "d": 248.39751041666023,
      "v": 108
    },
    {
      "midi": 60,
      "hit": false,
      "t": 170753.2563541687,
      "d": 224.35904166667024,
      "v": 72
    },
    {
      "midi": 55,
      "hit": false,
      "t": 170753.2563541687,
      "d": 240.3846875000163,
      "v": 80
    },
    {
      "midi": 52,
      "hit": false,
      "t": 170761.26917708537,
      "d": 216.3462187499972,
      "v": 72
    },
    {
      "midi": 48,
      "hit": false,
      "t": 171009.66668750206,
      "d": 48.07693750000908,
      "v": 81
    },
    {
      "midi": 60,
      "hit": false,
      "t": 171137.87185416874,
      "d": 256.41033333333326,
      "v": 108
    },
    {
      "midi": 52,
      "hit": false,
      "t": 171137.87185416874,
      "d": 264.4231562500063,
      "v": 108
    },
    {
      "midi": 55,
      "hit": false,
      "t": 171137.87185416874,
      "d": 288.4616249999963,
      "v": 98
    },
    {
      "midi": 52,
      "hit": false,
      "t": 171522.48735416873,
      "d": 256.41033333333326,
      "v": 86
    },
    {
      "midi": 55,
      "hit": false,
      "t": 171522.48735416873,
      "d": 288.4616249999963,
      "v": 83
    },
    {
      "midi": 60,
      "hit": false,
      "t": 171530.5001770854,
      "d": 256.41033333333326,
      "v": 88
    },
    {
      "midi": 55,
      "hit": false,
      "t": 171907.1028541687,
      "d": 240.3846875000163,
      "v": 98
    },
    {
      "midi": 52,
      "hit": false,
      "t": 171915.11567708538,
      "d": 184.2949270833342,
      "v": 105
    },
    {
      "midi": 60,
      "hit": false,
      "t": 171915.11567708538,
      "d": 248.39751041668933,
      "v": 105
    },
    {
      "midi": 48,
      "hit": false,
      "t": 172187.55165625206,
      "d": 40.06411458333605,
      "v": 80
    },
    {
      "midi": 55,
      "hit": false,
      "t": 172307.74400000207,
      "d": 208.33339583335328,
      "v": 88
    },
    {
      "midi": 63,
      "hit": false,
      "t": 172315.75682291875,
      "d": 192.30775000000722,
      "v": 83
    },
    {
      "midi": 58,
      "hit": false,
      "t": 172315.75682291875,
      "d": 208.33339583335328,
      "v": 92
    },
    {
      "midi": 63,
      "hit": false,
      "t": 172676.33385416877,
      "d": 288.4616249999963,
      "v": 105
    },
    {
      "midi": 58,
      "hit": false,
      "t": 172684.34667708544,
      "d": 288.4616249999963,
      "v": 114
    },
    {
      "midi": 55,
      "hit": false,
      "t": 172684.34667708544,
      "d": 312.50009374998626,
      "v": 119
    },
    {
      "midi": 55,
      "hit": false,
      "t": 173084.98782291877,
      "d": 184.2949270833342,
      "v": 77
    },
    {
      "midi": 58,
      "hit": false,
      "t": 173084.98782291877,
      "d": 208.33339583332418,
      "v": 66
    },
    {
      "midi": 63,
      "hit": false,
      "t": 173084.98782291877,
      "d": 224.35904166667024,
      "v": 40
    },
    {
      "midi": 51,
      "hit": false,
      "t": 173325.3725104188,
      "d": 96.15387499998906,
      "v": 77
    },
    {
      "midi": 55,
      "hit": false,
      "t": 173453.57767708544,
      "d": 216.3462187499972,
      "v": 114
    },
    {
      "midi": 63,
      "hit": false,
      "t": 173453.57767708544,
      "d": 240.3846874999872,
      "v": 98
    },
    {
      "midi": 58,
      "hit": false,
      "t": 173453.57767708544,
      "d": 248.39751041666023,
      "v": 114
    },
    {
      "midi": 51,
      "hit": false,
      "t": 173701.9751875021,
      "d": 56.08976041665301,
      "v": 90
    },
    {
      "midi": 58,
      "hit": false,
      "t": 173838.19317708543,
      "d": 192.30775000000722,
      "v": 90
    },
    {
      "midi": 53,
      "hit": false,
      "t": 173846.2060000021,
      "d": 176.28210416666116,
      "v": 90
    },
    {
      "midi": 62,
      "hit": false,
      "t": 173854.21882291877,
      "d": 64.10258333332604,
      "v": 90
    },
    {
      "midi": 53,
      "hit": false,
      "t": 174222.80867708544,
      "d": 280.44880208332324,
      "v": 105
    },
    {
      "midi": 62,
      "hit": false,
      "t": 174222.80867708544,
      "d": 280.44880208332324,
      "v": 114
    },
    {
      "midi": 58,
      "hit": false,
      "t": 174222.80867708544,
      "d": 304.48727083331323,
      "v": 105
    },
    {
      "midi": 58,
      "hit": false,
      "t": 174615.4370000021,
      "d": 240.3846875000163,
      "v": 67
    },
    {
      "midi": 62,
      "hit": false,
      "t": 174623.44982291877,
      "d": 160.2564583333442,
      "v": 88
    },
    {
      "midi": 53,
      "hit": false,
      "t": 174623.44982291877,
      "d": 192.30775000000722,
      "v": 83
    },
    {
      "midi": 50,
      "hit": false,
      "t": 174879.8601562521,
      "d": 48.07693750000908,
      "v": 101
    },
    {
      "midi": 58,
      "hit": false,
      "t": 174992.03967708544,
      "d": 240.3846875000163,
      "v": 105
    },
    {
      "midi": 53,
      "hit": false,
      "t": 175000.05250000212,
      "d": 248.39751041668933,
      "v": 105
    },
    {
      "midi": 62,
      "hit": false,
      "t": 175000.05250000212,
      "d": 248.39751041668933,
      "v": 114
    },
    {
      "midi": 50,
      "hit": false,
      "t": 175264.47565625215,
      "d": 40.06411458333605,
      "v": 86
    },
    {
      "midi": 57,
      "hit": false,
      "t": 175392.68082291883,
      "d": 136.2179895833251,
      "v": 119
    },
    {
      "midi": 53,
      "hit": false,
      "t": 175392.68082291883,
      "d": 232.37186458331416,
      "v": 95
    },
    {
      "midi": 60,
      "hit": false,
      "t": 175392.68082291883,
      "d": 232.37186458331416,
      "v": 92
    },
    {
      "midi": 60,
      "hit": false,
      "t": 175769.28350000214,
      "d": 288.4616250000254,
      "v": 101
    },
    {
      "midi": 57,
      "hit": false,
      "t": 175777.29632291882,
      "d": 264.4231562500063,
      "v": 124
    },
    {
      "midi": 53,
      "hit": false,
      "t": 175777.29632291882,
      "d": 280.44880208335235,
      "v": 105
    },
    {
      "midi": 53,
      "hit": false,
      "t": 176161.91182291883,
      "d": 200.32057291668025,
      "v": 68
    },
    {
      "midi": 57,
      "hit": false,
      "t": 176161.91182291883,
      "d": 208.33339583335328,
      "v": 80
    },
    {
      "midi": 60,
      "hit": false,
      "t": 176161.91182291883,
      "d": 224.35904166669934,
      "v": 76
    },
    {
      "midi": 48,
      "hit": false,
      "t": 176418.3221562522,
      "d": 88.14105208334513,
      "v": 81
    },
    {
      "midi": 53,
      "hit": false,
      "t": 176530.50167708553,
      "d": 224.35904166667024,
      "v": 105
    },
    {
      "midi": 57,
      "hit": false,
      "t": 176538.5145000022,
      "d": 176.28210416666116,
      "v": 119
    },
    {
      "midi": 60,
      "hit": false,
      "t": 176538.5145000022,
      "d": 240.3846874999872,
      "v": 114
    },
    {
      "midi": 48,
      "hit": false,
      "t": 176794.92483333554,
      "d": 80.1282291666721,
      "v": 83
    },
    {
      "midi": 55,
      "hit": false,
      "t": 176923.13000000222,
      "d": 216.3462187499972,
      "v": 101
    },
    {
      "midi": 64,
      "hit": false,
      "t": 176923.13000000222,
      "d": 216.3462187499972,
      "v": 92
    },
    {
      "midi": 60,
      "hit": false,
      "t": 176931.1428229189,
      "d": 184.2949270833342,
      "v": 84
    },
    {
      "midi": 55,
      "hit": false,
      "t": 177299.73267708556,
      "d": 264.4231562500063,
      "v": 114
    },
    {
      "midi": 60,
      "hit": false,
      "t": 177299.73267708556,
      "d": 280.44880208335235,
      "v": 108
    },
    {
      "midi": 64,
      "hit": false,
      "t": 177299.73267708556,
      "d": 280.44880208335235,
      "v": 101
    },
    {
      "midi": 64,
      "hit": false,
      "t": 177700.37382291892,
      "d": 200.32057291668025,
      "v": 68
    },
    {
      "midi": 60,
      "hit": false,
      "t": 177700.37382291892,
      "d": 208.33339583335328,
      "v": 73
    },
    {
      "midi": 55,
      "hit": false,
      "t": 177708.3866458356,
      "d": 184.2949270833342,
      "v": 75
    },
    {
      "midi": 48,
      "hit": false,
      "t": 177948.7713333356,
      "d": 56.08976041665301,
      "v": 88
    },
    {
      "midi": 64,
      "hit": false,
      "t": 178076.97650000226,
      "d": 200.32057291668025,
      "v": 105
    },
    {
      "midi": 55,
      "hit": false,
      "t": 178076.97650000226,
      "d": 232.37186458334327,
      "v": 119
    },
    {
      "midi": 60,
      "hit": false,
      "t": 178084.98932291893,
      "d": 264.4231562500063,
      "v": 114
    },
    {
      "midi": 48,
      "hit": false,
      "t": 178341.39965625227,
      "d": 40.06411458333605,
      "v": 84
    },
    {
      "midi": 58,
      "hit": false,
      "t": 178461.59200000227,
      "d": 240.3846875000163,
      "v": 98
    },
    {
      "midi": 53,
      "hit": false,
      "t": 178469.60482291895,
      "d": 192.30775000000722,
      "v": 98
    },
    {
      "midi": 62,
      "hit": false,
      "t": 178469.60482291895,
      "d": 216.3462187499972,
      "v": 98
    },
    {
      "midi": 58,
      "hit": false,
      "t": 178846.2075000023,
      "d": 248.39751041666023,
      "v": 101
    },
    {
      "midi": 60,
      "hit": false,
      "t": 178846.2075000023,
      "d": 264.4231562500063,
      "v": 108
    },
    {
      "midi": 53,
      "hit": false,
      "t": 178854.22032291896,
      "d": 240.3846874999872,
      "v": 108
    },
    {
      "midi": 60,
      "hit": false,
      "t": 179222.81017708563,
      "d": 232.37186458334327,
      "v": 73
    },
    {
      "midi": 53,
      "hit": false,
      "t": 179222.81017708563,
      "d": 256.41033333333326,
      "v": 73
    },
    {
      "midi": 58,
      "hit": false,
      "t": 179230.8230000023,
      "d": 224.35904166667024,
      "v": 74
    },
    {
      "midi": 48,
      "hit": false,
      "t": 179495.2461562523,
      "d": 64.10258333332604,
      "v": 75
    },
    {
      "midi": 58,
      "hit": false,
      "t": 179607.42567708564,
      "d": 232.37186458334327,
      "v": 101
    },
    {
      "midi": 53,
      "hit": false,
      "t": 179607.42567708564,
      "d": 248.39751041668933,
      "v": 108
    },
    {
      "midi": 60,
      "hit": false,
      "t": 179607.42567708564,
      "d": 248.39751041668933,
      "v": 101
    },
    {
      "midi": 53,
      "hit": false,
      "t": 179984.02835416902,
      "d": 264.4231562500063,
      "v": 78
    },
    {
      "midi": 58,
      "hit": false,
      "t": 179992.0411770857,
      "d": 248.39751041666023,
      "v": 90
    },
    {
      "midi": 60,
      "hit": false,
      "t": 179992.0411770857,
      "d": 272.4359791666793,
      "v": 88
    },
    {
      "midi": 48,
      "hit": false,
      "t": 180256.4643333357,
      "d": 40.06411458333605,
      "v": 83
    },
    {
      "midi": 58,
      "hit": false,
      "t": 180376.6566770857,
      "d": 176.28210416666116,
      "v": 98
    },
    {
      "midi": 53,
      "hit": false,
      "t": 180376.6566770857,
      "d": 232.37186458331416,
      "v": 105
    },
    {
      "midi": 60,
      "hit": false,
      "t": 180376.6566770857,
      "d": 248.39751041666023,
      "v": 95
    },
    {
      "midi": 60,
      "hit": false,
      "t": 180753.25935416904,
      "d": 168.26928125001723,
      "v": 88
    },
    {
      "midi": 58,
      "hit": false,
      "t": 180761.27217708572,
      "d": 72.11540624999907,
      "v": 88
    },
    {
      "midi": 53,
      "hit": false,
      "t": 180761.27217708572,
      "d": 120.19234375000815,
      "v": 83
    },
    {
      "midi": 62,
      "hit": false,
      "t": 181009.6696875024,
      "d": 360.57703124999534,
      "v": 108
    },
    {
      "midi": 53,
      "hit": false,
      "t": 181009.6696875024,
      "d": 384.61549999998533,
      "v": 105
    },
    {
      "midi": 58,
      "hit": false,
      "t": 181009.6696875024,
      "d": 400.6411458333314,
      "v": 105
    },
    {
      "midi": 48,
      "hit": false,
      "t": 181402.29801041906,
      "d": 48.07693750000908,
      "v": 86
    },
    {
      "midi": 58,
      "hit": false,
      "t": 181522.49035416907,
      "d": 232.37186458334327,
      "v": 105
    },
    {
      "midi": 62,
      "hit": false,
      "t": 181522.49035416907,
      "d": 256.41033333333326,
      "v": 108
    },
    {
      "midi": 53,
      "hit": false,
      "t": 181530.50317708575,
      "d": 184.2949270833342,
      "v": 105
    },
    {
      "midi": 48,
      "hit": false,
      "t": 181786.91351041908,
      "d": 48.07693750000908,
      "v": 86
    },
    {
      "midi": 52,
      "hit": false,
      "t": 181907.1058541691,
      "d": 264.4231562500063,
      "v": 98
    },
    {
      "midi": 55,
      "hit": false,
      "t": 181907.1058541691,
      "d": 280.44880208335235,
      "v": 101
    },
    {
      "midi": 60,
      "hit": false,
      "t": 181907.1058541691,
      "d": 288.4616250000254,
      "v": 95
    },
    {
      "midi": 60,
      "hit": false,
      "t": 182299.73417708577,
      "d": 248.39751041666023,
      "v": 67
    },
    {
      "midi": 55,
      "hit": false,
      "t": 182315.75982291912,
      "d": 232.37186458331416,
      "v": 75
    },
    {
      "midi": 52,
      "hit": false,
      "t": 182323.7726458358,
      "d": 168.26928124998813,
      "v": 80
    },
    {
      "midi": 48,
      "hit": false,
      "t": 182572.17015625242,
      "d": 24.03846874998999,
      "v": 68
    },
    {
      "midi": 55,
      "hit": false,
      "t": 182676.3368541691,
      "d": 288.4616250000254,
      "v": 108
    },
    {
      "midi": 60,
      "hit": false,
      "t": 182676.3368541691,
      "d": 288.4616250000254,
      "v": 108
    },
    {
      "midi": 52,
      "hit": false,
      "t": 182684.34967708576,
      "d": 272.4359791666793,
      "v": 114
    },
    {
      "midi": 55,
      "hit": false,
      "t": 183068.96517708577,
      "d": 168.26928125001723,
      "v": 84
    },
    {
      "midi": 52,
      "hit": false,
      "t": 183068.96517708577,
      "d": 232.37186458337237,
      "v": 78
    },
    {
      "midi": 60,
      "hit": false,
      "t": 183076.97800000245,
      "d": 208.33339583335328,
      "v": 77
    },
    {
      "midi": 48,
      "hit": false,
      "t": 183325.37551041914,
      "d": 56.08976041665301,
      "v": 90
    },
    {
      "midi": 60,
      "hit": false,
      "t": 183445.56785416912,
      "d": 264.4231562500063,
      "v": 98
    },
    {
      "midi": 52,
      "hit": false,
      "t": 183445.56785416912,
      "d": 272.4359791666793,
      "v": 114
    },
    {
      "midi": 55,
      "hit": false,
      "t": 183453.5806770858,
      "d": 248.39751041666023,
      "v": 114
    },
    {
      "midi": 52,
      "hit": false,
      "t": 183830.18335416913,
      "d": 232.37186458334327,
      "v": 73
    },
    {
      "midi": 60,
      "hit": false,
      "t": 183830.18335416913,
      "d": 232.37186458334327,
      "v": 81
    },
    {
      "midi": 55,
      "hit": false,
      "t": 183838.1961770858,
      "d": 216.3462187499972,
      "v": 95
    },
    {
      "midi": 48,
      "hit": false,
      "t": 184086.59368750246,
      "d": 40.06411458333605,
      "v": 92
    },
    {
      "midi": 52,
      "hit": false,
      "t": 184214.79885416914,
      "d": 256.41033333333326,
      "v": 101
    },
    {
      "midi": 55,
      "hit": false,
      "t": 184214.79885416914,
      "d": 264.4231562500063,
      "v": 108
    },
    {
      "midi": 60,
      "hit": false,
      "t": 184214.79885416914,
      "d": 264.4231562500063,
      "v": 101
    },
    {
      "midi": 67,
      "hit": false,
      "t": 184607.42717708583,
      "d": 240.3846874999872,
      "v": 108
    },
    {
      "midi": 59,
      "hit": false,
      "t": 184607.42717708583,
      "d": 280.44880208332324,
      "v": 127
    },
    {
      "midi": 64,
      "hit": false,
      "t": 184607.42717708583,
      "d": 280.44880208332324,
      "v": 114
    },
    {
      "midi": 55,
      "hit": false,
      "t": 184863.83751041917,
      "d": 88.14105208331603,
      "v": 98
    },
    {
      "midi": 64,
      "hit": false,
      "t": 184871.8503333337,
      "d": 128.20516666668118,
      "v": 90
    },
    {
      "midi": 59,
      "hit": false,
      "t": 184984.02985416914,
      "d": 296.4744479166693,
      "v": 105
    },
    {
      "midi": 67,
      "hit": false,
      "t": 184984.02985416914,
      "d": 320.5129166666593,
      "v": 101
    },
    {
      "midi": 64,
      "hit": false,
      "t": 184984.02985416914,
      "d": 352.5642083333223,
      "v": 98
    },
    {
      "midi": 71,
      "hit": false,
      "t": 185000.0555000004,
      "d": 248.39751041666023,
      "v": 90
    },
    {
      "midi": 55,
      "hit": false,
      "t": 185240.44018750248,
      "d": 208.33339583332418,
      "v": 98
    },
    {
      "midi": 71,
      "hit": false,
      "t": 185256.46583333373,
      "d": 120.19234375000815,
      "v": 90
    },
    {
      "midi": 71,
      "hit": false,
      "t": 185384.6710000004,
      "d": 376.6026770833414,
      "v": 90
    },
    {
      "midi": 55,
      "hit": false,
      "t": 185633.06851041914,
      "d": 72.11540624999907,
      "v": 95
    },
    {
      "midi": 59,
      "hit": false,
      "t": 185753.26085416914,
      "d": 200.32057291668025,
      "v": 119
    },
    {
      "midi": 67,
      "hit": false,
      "t": 185753.26085416914,
      "d": 232.37186458334327,
      "v": 108
    },
    {
      "midi": 64,
      "hit": false,
      "t": 185753.26085416914,
      "d": 248.39751041668933,
      "v": 108
    },
    {
      "midi": 71,
      "hit": false,
      "t": 185769.28650000042,
      "d": 248.39751041666023,
      "v": 90
    },
    {
      "midi": 55,
      "hit": false,
      "t": 186017.68401041918,
      "d": 64.10258333332604,
      "v": 98
    },
    {
      "midi": 71,
      "hit": false,
      "t": 186025.69683333376,
      "d": 120.19234375000815,
      "v": 91
    },
    {
      "midi": 64,
      "hit": false,
      "t": 186137.87635416916,
      "d": 256.41033333333326,
      "v": 98
    },
    {
      "midi": 69,
      "hit": false,
      "t": 186137.87635416916,
      "d": 256.41033333333326,
      "v": 108
    },
    {
      "midi": 59,
      "hit": false,
      "t": 186145.88917708583,
      "d": 240.3846874999872,
      "v": 101
    },
    {
      "midi": 71,
      "hit": false,
      "t": 186153.90200000044,
      "d": 376.6026770833414,
      "v": 92
    },
    {
      "midi": 55,
      "hit": false,
      "t": 186394.2866875025,
      "d": 72.11540624999907,
      "v": 88
    },
    {
      "midi": 59,
      "hit": false,
      "t": 186522.49185416914,
      "d": 216.3462187499972,
      "v": 114
    },
    {
      "midi": 69,
      "hit": false,
      "t": 186522.49185416914,
      "d": 288.4616249999963,
      "v": 105
    },
    {
      "midi": 64,
      "hit": false,
      "t": 186522.49185416914,
      "d": 368.5898541666684,
      "v": 92
    },
    {
      "midi": 71,
      "hit": false,
      "t": 186538.51750000045,
      "d": 248.39751041666023,
      "v": 96
    },
    {
      "midi": 55,
      "hit": false,
      "t": 186778.90218750248,
      "d": 168.26928124998813,
      "v": 101
    },
    {
      "midi": 71,
      "hit": false,
      "t": 186794.9278333338,
      "d": 512.8206666666665,
      "v": 96
    },
    {
      "midi": 55,
      "hit": false,
      "t": 187171.53051041914,
      "d": 56.08976041665301,
      "v": 98
    },
    {
      "midi": 59,
      "hit": false,
      "t": 187291.72285416911,
      "d": 224.35904166667024,
      "v": 105
    },
    {
      "midi": 69,
      "hit": false,
      "t": 187291.72285416911,
      "d": 224.35904166667024,
      "v": 108
    },
    {
      "midi": 64,
      "hit": false,
      "t": 187291.72285416911,
      "d": 264.4231562500063,
      "v": 108
    },
    {
      "midi": 69,
      "hit": false,
      "t": 187307.74850000045,
      "d": 256.41033333333326,
      "v": 97
    },
    {
      "midi": 55,
      "hit": false,
      "t": 187556.14601041912,
      "d": 104.16669791666209,
      "v": 98
    },
    {
      "midi": 67,
      "hit": false,
      "t": 187564.1588333338,
      "d": 128.20516666668118,
      "v": 88
    },
    {
      "midi": 60,
      "hit": false,
      "t": 187676.33835416913,
      "d": 208.33339583332418,
      "v": 114
    },
    {
      "midi": 69,
      "hit": false,
      "t": 187676.33835416913,
      "d": 224.35904166667024,
      "v": 108
    },
    {
      "midi": 64,
      "hit": false,
      "t": 187676.33835416913,
      "d": 272.4359791666793,
      "v": 105
    },
    {
      "midi": 69,
      "hit": false,
      "t": 187692.36400000047,
      "d": 384.61550000001444,
      "v": 96
    },
    {
      "midi": 57,
      "hit": false,
      "t": 187932.74868750246,
      "d": 112.17952083333512,
      "v": 92
    },
    {
      "midi": 60,
      "hit": false,
      "t": 188060.95385416914,
      "d": 280.44880208332324,
      "v": 105
    },
    {
      "midi": 64,
      "hit": false,
      "t": 188060.95385416914,
      "d": 304.48727083331323,
      "v": 92
    },
    {
      "midi": 69,
      "hit": false,
      "t": 188060.95385416914,
      "d": 304.48727083331323,
      "v": 105
    },
    {
      "midi": 67,
      "hit": false,
      "t": 188076.97950000048,
      "d": 256.41033333333326,
      "v": 104
    },
    {
      "midi": 57,
      "hit": false,
      "t": 188317.36418750248,
      "d": 200.32057291665114,
      "v": 105
    },
    {
      "midi": 64,
      "hit": false,
      "t": 188333.38983333381,
      "d": 1241.9875520833302,
      "v": 105
    },
    {
      "midi": 57,
      "hit": false,
      "t": 188709.99251041914,
      "d": 56.08976041665301,
      "v": 105
    },
    {
      "midi": 60,
      "hit": false,
      "t": 188830.1848541691,
      "d": 184.2949270833342,
      "v": 101
    },
    {
      "midi": 64,
      "hit": false,
      "t": 188830.1848541691,
      "d": 192.30775000000722,
      "v": 105
    },
    {
      "midi": 69,
      "hit": false,
      "t": 188830.1848541691,
      "d": 216.3462187499972,
      "v": 108
    },
    {
      "midi": 57,
      "hit": false,
      "t": 189086.59518750245,
      "d": 64.10258333332604,
      "v": 108
    },
    {
      "midi": 67,
      "hit": false,
      "t": 189214.8003541691,
      "d": 232.37186458334327,
      "v": 101
    },
    {
      "midi": 64,
      "hit": false,
      "t": 189214.8003541691,
      "d": 240.3846875000163,
      "v": 98
    },
    {
      "midi": 60,
      "hit": false,
      "t": 189222.81317708577,
      "d": 184.2949270833342,
      "v": 77
    },
    {
      "midi": 71,
      "hit": false,
      "t": 189222.81317708577,
      "d": 208.33339583332418,
      "v": 101
    },
    {
      "midi": 55,
      "hit": false,
      "t": 189471.21068750246,
      "d": 88.14105208334513,
      "v": 78
    },
    {
      "midi": 71,
      "hit": false,
      "t": 189599.41585416914,
      "d": 200.32057291668025,
      "v": 105
    },
    {
      "midi": 64,
      "hit": false,
      "t": 189599.41585416914,
      "d": 224.35904166667024,
      "v": 108
    },
    {
      "midi": 67,
      "hit": false,
      "t": 189599.41585416914,
      "d": 256.41033333333326,
      "v": 105
    },
    {
      "midi": 60,
      "hit": false,
      "t": 189607.42867708582,
      "d": 216.3462187499972,
      "v": 95
    },
    {
      "midi": 71,
      "hit": false,
      "t": 189615.44150000048,
      "d": 769.2309999999998,
      "v": 91
    },
    {
      "midi": 55,
      "hit": false,
      "t": 189855.82618750248,
      "d": 216.3462187499972,
      "v": 98
    },
    {
      "midi": 55,
      "hit": false,
      "t": 190248.45451041913,
      "d": 88.14105208334513,
      "v": 95
    },
    {
      "midi": 71,
      "hit": false,
      "t": 190376.65967708582,
      "d": 160.2564583333442,
      "v": 101
    },
    {
      "midi": 60,
      "hit": false,
      "t": 190376.65967708582,
      "d": 184.2949270833342,
      "v": 105
    },
    {
      "midi": 67,
      "hit": false,
      "t": 190376.65967708582,
      "d": 208.33339583332418,
      "v": 101
    },
    {
      "midi": 64,
      "hit": false,
      "t": 190376.65967708582,
      "d": 240.3846874999872,
      "v": 101
    },
    {
      "midi": 69,
      "hit": false,
      "t": 190384.67250000048,
      "d": 256.41033333333326,
      "v": 95
    },
    {
      "midi": 55,
      "hit": false,
      "t": 190625.05718750248,
      "d": 72.11540624999907,
      "v": 98
    },
    {
      "midi": 67,
      "hit": false,
      "t": 190641.0828333338,
      "d": 128.20516666668118,
      "v": 94
    },
    {
      "midi": 60,
      "hit": false,
      "t": 190761.2751770858,
      "d": 192.30775000000722,
      "v": 108
    },
    {
      "midi": 65,
      "hit": false,
      "t": 190761.2751770858,
      "d": 216.3462187499972,
      "v": 114
    },
    {
      "midi": 69,
      "hit": false,
      "t": 190761.2751770858,
      "d": 240.3846874999872,
      "v": 108
    },
    {
      "midi": 69,
      "hit": false,
      "t": 190769.2880000005,
      "d": 384.61550000001444,
      "v": 94
    },
    {
      "midi": 53,
      "hit": false,
      "t": 191017.68551041913,
      "d": 88.14105208334513,
      "v": 86
    },
    {
      "midi": 60,
      "hit": false,
      "t": 191145.89067708582,
      "d": 208.33339583332418,
      "v": 98
    },
    {
      "midi": 69,
      "hit": false,
      "t": 191145.89067708582,
      "d": 232.37186458331416,
      "v": 105
    },
    {
      "midi": 65,
      "hit": false,
      "t": 191145.89067708582,
      "d": 256.41033333333326,
      "v": 108
    },
    {
      "midi": 67,
      "hit": false,
      "t": 191153.9035000005,
      "d": 256.41033333333326,
      "v": 92
    },
    {
      "midi": 53,
      "hit": false,
      "t": 191394.28818750248,
      "d": 160.2564583333442,
      "v": 98
    },
    {
      "midi": 65,
      "hit": false,
      "t": 191410.31383333384,
      "d": 1282.0516666666663,
      "v": 91
    },
    {
      "midi": 53,
      "hit": false,
      "t": 191794.9293333358,
      "d": 64.10258333332604,
      "v": 95
    },
    {
      "midi": 60,
      "hit": false,
      "t": 191915.1216770858,
      "d": 184.2949270833342,
      "v": 101
    },
    {
      "midi": 65,
      "hit": false,
      "t": 191915.1216770858,
      "d": 224.35904166667024,
      "v": 105
    },
    {
      "midi": 69,
      "hit": false,
      "t": 191915.1216770858,
      "d": 232.37186458334327,
      "v": 105
    },
    {
      "midi": 53,
      "hit": false,
      "t": 192163.51918750248,
      "d": 64.10258333332604,
      "v": 92
    },
    {
      "midi": 69,
      "hit": false,
      "t": 192299.7371770858,
      "d": 256.41033333339146,
      "v": 98
    },
    {
      "midi": 62,
      "hit": false,
      "t": 192307.75000000247,
      "d": 224.35904166669934,
      "v": 114
    },
    {
      "midi": 65,
      "hit": false,
      "t": 192307.75000000247,
      "d": 240.3846875000454,
      "v": 114
    },
    {
      "midi": 72,
      "hit": false,
      "t": 192315.76282291915,
      "d": 200.32057291668025,
      "v": 101
    },
    {
      "midi": 53,
      "hit": false,
      "t": 192556.1475104192,
      "d": 72.11540624999907,
      "v": 83
    },
    {
      "midi": 62,
      "hit": false,
      "t": 192684.35267708584,
      "d": 264.4231562500063,
      "v": 90
    },
    {
      "midi": 72,
      "hit": false,
      "t": 192684.35267708584,
      "d": 272.4359791666793,
      "v": 92
    },
    {
      "midi": 69,
      "hit": false,
      "t": 192692.36550000252,
      "d": 264.4231562500063,
      "v": 88
    },
    {
      "midi": 65,
      "hit": false,
      "t": 192692.36550000252,
      "d": 272.4359791666793,
      "v": 108
    },
    {
      "midi": 53,
      "hit": false,
      "t": 192940.76301041918,
      "d": 96.15387500001816,
      "v": 95
    },
    {
      "midi": 53,
      "hit": false,
      "t": 192948.77583333384,
      "d": 120.19234375000815,
      "v": 91
    },
    {
      "midi": 53,
      "hit": false,
      "t": 193076.98100000052,
      "d": 256.41033333333326,
      "v": 91
    },
    {
      "midi": 53,
      "hit": false,
      "t": 193317.36568750252,
      "d": 72.11540624999907,
      "v": 88
    },
    {
      "midi": 57,
      "hit": false,
      "t": 193333.39133333386,
      "d": 128.20516666668118,
      "v": 90
    },
    {
      "midi": 62,
      "hit": false,
      "t": 193445.57085416917,
      "d": 224.35904166667024,
      "v": 98
    },
    {
      "midi": 69,
      "hit": false,
      "t": 193445.57085416917,
      "d": 224.35904166667024,
      "v": 98
    },
    {
      "midi": 65,
      "hit": false,
      "t": 193445.57085416917,
      "d": 240.3846875000163,
      "v": 101
    },
    {
      "midi": 72,
      "hit": false,
      "t": 193445.57085416917,
      "d": 248.39751041668933,
      "v": 95
    },
    {
      "midi": 58,
      "hit": false,
      "t": 193461.59650000054,
      "d": 1923.077500000014,
      "v": 89
    },
    {
      "midi": 53,
      "hit": false,
      "t": 193701.98118750253,
      "d": 40.06411458333605,
      "v": 90
    },
    {
      "midi": 70,
      "hit": false,
      "t": 193830.18635416921,
      "d": 248.39751041666023,
      "v": 114
    },
    {
      "midi": 65,
      "hit": false,
      "t": 193830.18635416921,
      "d": 256.41033333333326,
      "v": 114
    },
    {
      "midi": 62,
      "hit": false,
      "t": 193838.1991770859,
      "d": 216.3462187499972,
      "v": 105
    },
    {
      "midi": 58,
      "hit": false,
      "t": 194086.59668750255,
      "d": 96.15387499998906,
      "v": 101
    },
    {
      "midi": 62,
      "hit": false,
      "t": 194214.8018541692,
      "d": 272.4359791666793,
      "v": 98
    },
    {
      "midi": 65,
      "hit": false,
      "t": 194214.8018541692,
      "d": 272.4359791666793,
      "v": 114
    },
    {
      "midi": 70,
      "hit": false,
      "t": 194214.8018541692,
      "d": 312.50009375001537,
      "v": 88
    },
    {
      "midi": 58,
      "hit": false,
      "t": 194471.21218750253,
      "d": 176.28210416669026,
      "v": 98
    },
    {
      "midi": 58,
      "hit": false,
      "t": 194855.82768750255,
      "d": 64.10258333332604,
      "v": 92
    },
    {
      "midi": 65,
      "hit": false,
      "t": 194984.0328541692,
      "d": 224.35904166669934,
      "v": 108
    },
    {
      "midi": 70,
      "hit": false,
      "t": 194984.0328541692,
      "d": 264.4231562500354,
      "v": 101
    },
    {
      "midi": 62,
      "hit": false,
      "t": 194992.04567708587,
      "d": 200.32057291668025,
      "v": 105
    },
    {
      "midi": 58,
      "hit": false,
      "t": 195240.44318750256,
      "d": 48.07693750000908,
      "v": 98
    },
    {
      "midi": 60,
      "hit": false,
      "t": 195368.64835416924,
      "d": 208.33339583335328,
      "v": 101
    },
    {
      "midi": 69,
      "hit": false,
      "t": 195376.66117708592,
      "d": 184.2949270833342,
      "v": 108
    },
    {
      "midi": 65,
      "hit": false,
      "t": 195376.66117708592,
      "d": 208.33339583335328,
      "v": 101
    },
    {
      "midi": 57,
      "hit": false,
      "t": 195384.67400000055,
      "d": 1153.8465000000142,
      "v": 85
    },
    {
      "midi": 57,
      "hit": false,
      "t": 195633.07151041928,
      "d": 40.06411458333605,
      "v": 95
    },
    {
      "midi": 65,
      "hit": false,
      "t": 195753.2638541693,
      "d": 256.41033333333326,
      "v": 114
    },
    {
      "midi": 69,
      "hit": false,
      "t": 195753.2638541693,
      "d": 288.4616249999963,
      "v": 114
    },
    {
      "midi": 60,
      "hit": false,
      "t": 195761.27667708596,
      "d": 208.33339583332418,
      "v": 105
    },
    {
      "midi": 57,
      "hit": false,
      "t": 196009.67418750262,
      "d": 128.20516666665208,
      "v": 108
    },
    {
      "midi": 57,
      "hit": false,
      "t": 196402.30251041928,
      "d": 80.1282291666721,
      "v": 114
    },
    {
      "midi": 65,
      "hit": false,
      "t": 196522.4948541693,
      "d": 200.32057291665114,
      "v": 108
    },
    {
      "midi": 69,
      "hit": false,
      "t": 196522.4948541693,
      "d": 224.35904166664113,
      "v": 108
    },
    {
      "midi": 60,
      "hit": false,
      "t": 196530.50767708596,
      "d": 168.26928124998813,
      "v": 105
    },
    {
      "midi": 57,
      "hit": false,
      "t": 196778.9051875026,
      "d": 48.07693750000908,
      "v": 105
    },
    {
      "midi": 62,
      "hit": false,
      "t": 196915.12317708594,
      "d": 216.3462187499972,
      "v": 114
    },
    {
      "midi": 71,
      "hit": false,
      "t": 196915.12317708594,
      "d": 224.35904166667024,
      "v": 114
    },
    {
      "midi": 67,
      "hit": false,
      "t": 196915.12317708594,
      "d": 240.3846875000163,
      "v": 114
    },
    {
      "midi": 64,
      "hit": false,
      "t": 197179.5463333339,
      "d": 128.20516666668118,
      "v": 90
    },
    {
      "midi": 59,
      "hit": false,
      "t": 197187.55915625262,
      "d": 40.06411458333605,
      "v": 101
    },
    {
      "midi": 71,
      "hit": false,
      "t": 197291.7258541693,
      "d": 264.4231562500063,
      "v": 101
    },
    {
      "midi": 67,
      "hit": false,
      "t": 197291.7258541693,
      "d": 296.4744479166693,
      "v": 101
    },
    {
      "midi": 62,
      "hit": false,
      "t": 197299.73867708596,
      "d": 264.4231562500063,
      "v": 105
    },
    {
      "midi": 71,
      "hit": false,
      "t": 197307.7515000006,
      "d": 248.39751041666023,
      "v": 90
    },
    {
      "midi": 59,
      "hit": false,
      "t": 197556.1490104193,
      "d": 48.07693750000908,
      "v": 80
    },
    {
      "midi": 71,
      "hit": false,
      "t": 197564.16183333393,
      "d": 120.19234375000815,
      "v": 90
    },
    {
      "midi": 71,
      "hit": false,
      "t": 197692.3670000006,
      "d": 376.6026770833414,
      "v": 90
    },
    {
      "midi": 59,
      "hit": false,
      "t": 197948.77733333598,
      "d": 40.06411458333605,
      "v": 98
    },
    {
      "midi": 67,
      "hit": false,
      "t": 198060.95685416932,
      "d": 224.35904166667024,
      "v": 108
    },
    {
      "midi": 71,
      "hit": false,
      "t": 198060.95685416932,
      "d": 256.41033333333326,
      "v": 108
    },
    {
      "midi": 62,
      "hit": false,
      "t": 198068.969677086,
      "d": 256.41033333333326,
      "v": 119
    },
    {
      "midi": 71,
      "hit": false,
      "t": 198076.98250000062,
      "d": 248.39751041666023,
      "v": 90
    },
    {
      "midi": 59,
      "hit": false,
      "t": 198325.38001041932,
      "d": 32.05129166666302,
      "v": 98
    },
    {
      "midi": 71,
      "hit": false,
      "t": 198333.39283333396,
      "d": 120.19234375000815,
      "v": 91
    },
    {
      "midi": 67,
      "hit": false,
      "t": 198453.58517708597,
      "d": 224.35904166667024,
      "v": 114
    },
    {
      "midi": 64,
      "hit": false,
      "t": 198453.58517708597,
      "d": 232.37186458334327,
      "v": 105
    },
    {
      "midi": 71,
      "hit": false,
      "t": 198461.59800000064,
      "d": 376.6026770833414,
      "v": 92
    },
    {
      "midi": 71,
      "hit": false,
      "t": 198461.59800000265,
      "d": 232.37186458334327,
      "v": 95
    },
    {
      "midi": 55,
      "hit": false,
      "t": 198701.98268750266,
      "d": 72.11540624999907,
      "v": 101
    },
    {
      "midi": 64,
      "hit": false,
      "t": 198830.18785416931,
      "d": 272.4359791666793,
      "v": 108
    },
    {
      "midi": 71,
      "hit": false,
      "t": 198830.18785416931,
      "d": 288.4616250000254,
      "v": 92
    },
    {
      "midi": 67,
      "hit": false,
      "t": 198838.200677086,
      "d": 264.4231562500063,
      "v": 108
    },
    {
      "midi": 71,
      "hit": false,
      "t": 198846.21350000065,
      "d": 248.39751041666023,
      "v": 96
    },
    {
      "midi": 55,
      "hit": false,
      "t": 199086.59818750265,
      "d": 96.15387500001816,
      "v": 101
    },
    {
      "midi": 71,
      "hit": false,
      "t": 199102.623833334,
      "d": 512.8206666666665,
      "v": 96
    },
    {
      "midi": 55,
      "hit": false,
      "t": 199479.22651041934,
      "d": 72.11540624999907,
      "v": 95
    },
    {
      "midi": 67,
      "hit": false,
      "t": 199599.41885416934,
      "d": 224.35904166667024,
      "v": 105
    },
    {
      "midi": 71,
      "hit": false,
      "t": 199599.41885416934,
      "d": 224.35904166667024,
      "v": 98
    },
    {
      "midi": 64,
      "hit": false,
      "t": 199599.41885416934,
      "d": 272.4359791666793,
      "v": 108
    },
    {
      "midi": 69,
      "hit": false,
      "t": 199615.44450000065,
      "d": 256.41033333333326,
      "v": 97
    },
    {
      "midi": 55,
      "hit": false,
      "t": 199863.84201041935,
      "d": 48.07693750000908,
      "v": 95
    },
    {
      "midi": 67,
      "hit": false,
      "t": 199871.854833334,
      "d": 128.20516666668118,
      "v": 88
    },
    {
      "midi": 69,
      "hit": false,
      "t": 200000.06000000067,
      "d": 384.61550000001444,
      "v": 96
    },
    {
      "midi": 69,
      "hit": false,
      "t": 200000.0600000027,
      "d": 216.3462187499972,
      "v": 108
    },
    {
      "midi": 60,
      "hit": false,
      "t": 200000.0600000027,
      "d": 232.37186458334327,
      "v": 105
    },
    {
      "midi": 57,
      "hit": false,
      "t": 200248.4575104194,
      "d": 72.11540624999907,
      "v": 83
    },
    {
      "midi": 69,
      "hit": false,
      "t": 200376.66267708605,
      "d": 280.44880208332324,
      "v": 101
    },
    {
      "midi": 64,
      "hit": false,
      "t": 200376.66267708605,
      "d": 288.4616249999963,
      "v": 98
    },
    {
      "midi": 67,
      "hit": false,
      "t": 200384.67550000068,
      "d": 256.41033333333326,
      "v": 104
    },
    {
      "midi": 60,
      "hit": false,
      "t": 200384.67550000272,
      "d": 240.3846874999872,
      "v": 95
    },
    {
      "midi": 57,
      "hit": false,
      "t": 200633.07301041938,
      "d": 104.16669791666209,
      "v": 108
    },
    {
      "midi": 64,
      "hit": false,
      "t": 200641.08583333401,
      "d": 1241.9875520833302,
      "v": 105
    },
    {
      "midi": 57,
      "hit": false,
      "t": 201017.68851041936,
      "d": 48.07693750000908,
      "v": 101
    },
    {
      "midi": 60,
      "hit": false,
      "t": 201145.89367708605,
      "d": 200.32057291668025,
      "v": 105
    },
    {
      "midi": 69,
      "hit": false,
      "t": 201145.89367708605,
      "d": 208.33339583335328,
      "v": 108
    },
    {
      "midi": 64,
      "hit": false,
      "t": 201145.89367708605,
      "d": 216.3462187500263,
      "v": 108
    },
    {
      "midi": 57,
      "hit": false,
      "t": 201394.29118750273,
      "d": 40.06411458333605,
      "v": 101
    },
    {
      "midi": 64,
      "hit": false,
      "t": 201522.49635416942,
      "d": 248.39751041666023,
      "v": 108
    },
    {
      "midi": 71,
      "hit": false,
      "t": 201522.49635416942,
      "d": 248.39751041666023,
      "v": 119
    },
    {
      "midi": 60,
      "hit": false,
      "t": 201530.5091770861,
      "d": 176.28210416666116,
      "v": 101
    },
    {
      "midi": 55,
      "hit": false,
      "t": 201778.90668750275,
      "d": 56.08976041665301,
      "v": 98
    },
    {
      "midi": 64,
      "hit": false,
      "t": 201915.12467708607,
      "d": 280.44880208332324,
      "v": 95
    },
    {
      "midi": 71,
      "hit": false,
      "t": 201915.12467708607,
      "d": 280.44880208332324,
      "v": 101
    },
    {
      "midi": 71,
      "hit": false,
      "t": 201923.13750000068,
      "d": 769.2309999999998,
      "v": 91
    },
    {
      "midi": 60,
      "hit": false,
      "t": 201923.13750000275,
      "d": 240.3846874999872,
      "v": 98
    },
    {
      "midi": 67,
      "hit": false,
      "t": 201923.13750000275,
      "d": 272.4359791666502,
      "v": 98
    },
    {
      "midi": 55,
      "hit": false,
      "t": 202163.52218750273,
      "d": 120.19234375000815,
      "v": 98
    },
    {
      "midi": 55,
      "hit": false,
      "t": 202556.15051041942,
      "d": 88.14105208334513,
      "v": 98
    },
    {
      "midi": 60,
      "hit": false,
      "t": 202676.34285416943,
      "d": 208.33339583332418,
      "v": 108
    },
    {
      "midi": 67,
      "hit": false,
      "t": 202676.34285416943,
      "d": 232.37186458331416,
      "v": 108
    },
    {
      "midi": 71,
      "hit": false,
      "t": 202676.34285416943,
      "d": 232.37186458331416,
      "v": 108
    },
    {
      "midi": 64,
      "hit": false,
      "t": 202676.34285416943,
      "d": 240.3846874999872,
      "v": 114
    },
    {
      "midi": 69,
      "hit": false,
      "t": 202692.36850000068,
      "d": 256.41033333333326,
      "v": 95
    },
    {
      "midi": 55,
      "hit": false,
      "t": 202924.7403645861,
      "d": 40.06411458333605,
      "v": 101
    },
    {
      "midi": 67,
      "hit": false,
      "t": 202948.778833334,
      "d": 128.20516666668118,
      "v": 94
    },
    {
      "midi": 65,
      "hit": false,
      "t": 203068.9711770861,
      "d": 248.39751041666023,
      "v": 124
    },
    {
      "midi": 69,
      "hit": false,
      "t": 203076.9840000007,
      "d": 384.61550000001444,
      "v": 94
    },
    {
      "midi": 72,
      "hit": false,
      "t": 203076.98400000276,
      "d": 240.3846874999872,
      "v": 101
    },
    {
      "midi": 69,
      "hit": false,
      "t": 203076.98400000276,
      "d": 248.39751041666023,
      "v": 108
    },
    {
      "midi": 67,
      "hit": false,
      "t": 203461.5995000007,
      "d": 256.41033333333326,
      "v": 92
    },
    {
      "midi": 69,
      "hit": false,
      "t": 203469.61232291942,
      "d": 232.37186458334327,
      "v": 108
    },
    {
      "midi": 65,
      "hit": false,
      "t": 203477.6251458361,
      "d": 208.33339583332418,
      "v": 124
    },
    {
      "midi": 72,
      "hit": false,
      "t": 203477.6251458361,
      "d": 208.33339583332418,
      "v": 98
    },
    {
      "midi": 65,
      "hit": false,
      "t": 203718.00983333404,
      "d": 1282.0516666666663,
      "v": 91
    },
    {
      "midi": 53,
      "hit": false,
      "t": 203734.03547916943,
      "d": 64.10258333332604,
      "v": 105
    },
    {
      "midi": 53,
      "hit": false,
      "t": 204094.61251041942,
      "d": 80.1282291666721,
      "v": 90
    },
    {
      "midi": 65,
      "hit": false,
      "t": 204230.83050000275,
      "d": 232.37186458334327,
      "v": 114
    },
    {
      "midi": 72,
      "hit": false,
      "t": 204238.84332291942,
      "d": 208.33339583332418,
      "v": 98
    },
    {
      "midi": 69,
      "hit": false,
      "t": 204238.84332291942,
      "d": 224.35904166667024,
      "v": 108
    },
    {
      "midi": 53,
      "hit": false,
      "t": 204471.21518750276,
      "d": 72.11540624999907,
      "v": 92
    },
    {
      "midi": 72,
      "hit": false,
      "t": 204599.42035416942,
      "d": 224.35904166667024,
      "v": 101
    },
    {
      "midi": 65,
      "hit": false,
      "t": 204599.42035416942,
      "d": 256.41033333333326,
      "v": 114
    },
    {
      "midi": 62,
      "hit": false,
      "t": 204607.4331770861,
      "d": 248.39751041666023,
      "v": 119
    },
    {
      "midi": 69,
      "hit": false,
      "t": 204607.4331770861,
      "d": 248.39751041666023,
      "v": 108
    },
    {
      "midi": 53,
      "hit": false,
      "t": 204855.83068750275,
      "d": 56.08976041665301,
      "v": 71
    },
    {
      "midi": 72,
      "hit": false,
      "t": 204992.04867708607,
      "d": 216.3462187499972,
      "v": 98
    },
    {
      "midi": 62,
      "hit": false,
      "t": 204992.04867708607,
      "d": 224.35904166667024,
      "v": 105
    },
    {
      "midi": 65,
      "hit": false,
      "t": 204992.04867708607,
      "d": 224.35904166667024,
      "v": 101
    },
    {
      "midi": 69,
      "hit": false,
      "t": 205000.06150000275,
      "d": 336.53856249997625,
      "v": 98
    },
    {
      "midi": 53,
      "hit": false,
      "t": 205240.44618750273,
      "d": 104.16669791666209,
      "v": 88
    },
    {
      "midi": 60,
      "hit": false,
      "t": 205256.47183333404,
      "d": 128.20516666668118,
      "v": 78
    },
    {
      "midi": 62,
      "hit": false,
      "t": 205384.67700000072,
      "d": 256.41033333333326,
      "v": 88
    },
    {
      "midi": 53,
      "hit": false,
      "t": 205625.06168750272,
      "d": 80.1282291666721,
      "v": 84
    },
    {
      "midi": 64,
      "hit": false,
      "t": 205641.08733333406,
      "d": 128.20516666668118,
      "v": 95
    },
    {
      "midi": 65,
      "hit": false,
      "t": 205753.2668541694,
      "d": 208.33339583332418,
      "v": 114
    },
    {
      "midi": 62,
      "hit": false,
      "t": 205753.2668541694,
      "d": 216.3462187499972,
      "v": 108
    },
    {
      "midi": 69,
      "hit": false,
      "t": 205753.2668541694,
      "d": 224.35904166667024,
      "v": 105
    },
    {
      "midi": 72,
      "hit": false,
      "t": 205753.2668541694,
      "d": 256.41033333333326,
      "v": 105
    },
    {
      "midi": 65,
      "hit": false,
      "t": 205769.29250000074,
      "d": 1923.077500000014,
      "v": 109
    },
    {
      "midi": 53,
      "hit": false,
      "t": 206001.66436458606,
      "d": 72.11540624999907,
      "v": 88
    },
    {
      "midi": 65,
      "hit": false,
      "t": 206145.89517708606,
      "d": 232.37186458334327,
      "v": 114
    },
    {
      "midi": 70,
      "hit": false,
      "t": 206145.89517708606,
      "d": 264.4231562500354,
      "v": 105
    },
    {
      "midi": 62,
      "hit": false,
      "t": 206153.90800000273,
      "d": 224.35904166667024,
      "v": 119
    },
    {
      "midi": 58,
      "hit": false,
      "t": 206394.29268750275,
      "d": 96.15387500001816,
      "v": 90
    },
    {
      "midi": 65,
      "hit": false,
      "t": 206522.49785416943,
      "d": 280.44880208335235,
      "v": 114
    },
    {
      "midi": 70,
      "hit": false,
      "t": 206522.49785416943,
      "d": 384.61550000001444,
      "v": 88
    },
    {
      "midi": 62,
      "hit": false,
      "t": 206530.5106770861,
      "d": 256.41033333333326,
      "v": 108
    },
    {
      "midi": 58,
      "hit": false,
      "t": 206778.90818750276,
      "d": 192.30775000000722,
      "v": 101
    },
    {
      "midi": 58,
      "hit": false,
      "t": 207171.53651041945,
      "d": 56.08976041665301,
      "v": 90
    },
    {
      "midi": 62,
      "hit": false,
      "t": 207291.72885416943,
      "d": 192.30775000000722,
      "v": 124
    },
    {
      "midi": 65,
      "hit": false,
      "t": 207291.72885416943,
      "d": 256.41033333333326,
      "v": 114
    },
    {
      "midi": 70,
      "hit": false,
      "t": 207291.72885416943,
      "d": 264.4231562500063,
      "v": 101
    },
    {
      "midi": 58,
      "hit": false,
      "t": 207548.13918750276,
      "d": 96.15387500001816,
      "v": 90
    },
    {
      "midi": 65,
      "hit": false,
      "t": 207684.35717708612,
      "d": 216.3462187499972,
      "v": 108
    },
    {
      "midi": 69,
      "hit": false,
      "t": 207684.35717708612,
      "d": 224.35904166667024,
      "v": 119
    },
    {
      "midi": 69,
      "hit": false,
      "t": 207692.37000000075,
      "d": 1538.4619999999995,
      "v": 109
    },
    {
      "midi": 57,
      "hit": false,
      "t": 207932.75468750278,
      "d": 64.10258333332604,
      "v": 90
    },
    {
      "midi": 65,
      "hit": false,
      "t": 208068.9726770861,
      "d": 280.44880208332324,
      "v": 114
    },
    {
      "midi": 69,
      "hit": false,
      "t": 208068.9726770861,
      "d": 416.66679166664835,
      "v": 105
    },
    {
      "midi": 57,
      "hit": false,
      "t": 208317.37018750276,
      "d": 128.20516666665208,
      "v": 101
    },
    {
      "midi": 57,
      "hit": false,
      "t": 208709.99851041942,
      "d": 48.07693750000908,
      "v": 101
    },
    {
      "midi": 65,
      "hit": false,
      "t": 208830.19085416943,
      "d": 192.30775000000722,
      "v": 108
    },
    {
      "midi": 69,
      "hit": false,
      "t": 208830.19085416943,
      "d": 192.30775000000722,
      "v": 114
    },
    {
      "midi": 60,
      "hit": false,
      "t": 208830.19085416943,
      "d": 240.3846875000163,
      "v": 101
    },
    {
      "midi": 57,
      "hit": false,
      "t": 209086.6011875028,
      "d": 32.05129166666302,
      "v": 88
    },
    {
      "midi": 62,
      "hit": false,
      "t": 209222.81917708612,
      "d": 232.37186458337237,
      "v": 119
    },
    {
      "midi": 67,
      "hit": false,
      "t": 209222.81917708612,
      "d": 232.37186458337237,
      "v": 119
    },
    {
      "midi": 67,
      "hit": false,
      "t": 209230.83200000075,
      "d": 1538.4619999999995,
      "v": 98
    },
    {
      "midi": 59,
      "hit": false,
      "t": 209238.84482291946,
      "d": 200.32057291668025,
      "v": 108
    },
    {
      "midi": 55,
      "hit": false,
      "t": 209479.22951041948,
      "d": 88.14105208334513,
      "v": 78
    },
    {
      "midi": 62,
      "hit": false,
      "t": 209607.43467708616,
      "d": 376.6026770833705,
      "v": 92
    },
    {
      "midi": 67,
      "hit": false,
      "t": 209615.44750000283,
      "d": 360.57703125002445,
      "v": 92
    },
    {
      "midi": 59,
      "hit": false,
      "t": 209623.4603229195,
      "d": 320.5129166666884,
      "v": 92
    },
    {
      "midi": 55,
      "hit": false,
      "t": 209855.83218750285,
      "d": 128.20516666668118,
      "v": 98
    },
    {
      "midi": 55,
      "hit": false,
      "t": 210264.48615625285,
      "d": 48.07693750000908,
      "v": 90
    },
    {
      "midi": 62,
      "hit": false,
      "t": 210376.6656770862,
      "d": 216.3462187499972,
      "v": 114
    },
    {
      "midi": 59,
      "hit": false,
      "t": 210384.67850000286,
      "d": 184.2949270833342,
      "v": 119
    },
    {
      "midi": 67,
      "hit": false,
      "t": 210384.67850000286,
      "d": 208.33339583332418,
      "v": 108
    },
    {
      "midi": 55,
      "hit": false,
      "t": 210633.07601041952,
      "d": 64.10258333332604,
      "v": 92
    },
    {
      "midi": 67,
      "hit": false,
      "t": 210761.28117708617,
      "d": 248.39751041666023,
      "v": 108
    },
    {
      "midi": 62,
      "hit": false,
      "t": 210769.29400000285,
      "d": 216.3462187499972,
      "v": 119
    },
    {
      "midi": 71,
      "hit": false,
      "t": 210777.30682291952,
      "d": 208.33339583332418,
      "v": 108
    },
    {
      "midi": 55,
      "hit": false,
      "t": 211009.67868750283,
      "d": 80.1282291666721,
      "v": 95
    },
    {
      "midi": 71,
      "hit": false,
      "t": 211137.88385416951,
      "d": 224.35904166667024,
      "v": 101
    },
    {
      "midi": 62,
      "hit": false,
      "t": 211137.88385416951,
      "d": 248.39751041666023,
      "v": 114
    },
    {
      "midi": 67,
      "hit": false,
      "t": 211145.8966770862,
      "d": 240.3846874999872,
      "v": 105
    },
    {
      "midi": 55,
      "hit": false,
      "t": 211394.29418750285,
      "d": 104.16669791666209,
      "v": 92
    },
    {
      "midi": 55,
      "hit": false,
      "t": 211786.9225104195,
      "d": 48.07693750000908,
      "v": 101
    },
    {
      "midi": 62,
      "hit": false,
      "t": 211907.11485416951,
      "d": 288.4616249999963,
      "v": 119
    },
    {
      "midi": 67,
      "hit": false,
      "t": 211907.11485416951,
      "d": 288.4616249999963,
      "v": 114
    },
    {
      "midi": 71,
      "hit": false,
      "t": 211907.11485416951,
      "d": 296.4744479166693,
      "v": 98
    },
    {
      "midi": 75,
      "hit": false,
      "t": 212291.73035416953,
      "d": 256.41033333333326,
      "v": 105
    },
    {
      "midi": 70,
      "hit": false,
      "t": 212291.73035416953,
      "d": 264.4231562500063,
      "v": 105
    },
    {
      "midi": 67,
      "hit": false,
      "t": 212299.7431770862,
      "d": 256.41033333333326,
      "v": 119
    },
    {
      "midi": 60,
      "hit": false,
      "t": 212572.17915625288,
      "d": 104.16669791666209,
      "v": 101
    },
    {
      "midi": 75,
      "hit": false,
      "t": 212684.35867708622,
      "d": 328.5257395833323,
      "v": 84
    },
    {
      "midi": 67,
      "hit": false,
      "t": 212684.35867708622,
      "d": 344.5513854166784,
      "v": 88
    },
    {
      "midi": 70,
      "hit": false,
      "t": 212684.35867708622,
      "d": 344.5513854166784,
      "v": 90
    },
    {
      "midi": 60,
      "hit": false,
      "t": 212956.7946562529,
      "d": 144.23081249999814,
      "v": 98
    },
    {
      "midi": 60,
      "hit": false,
      "t": 213325.38451041956,
      "d": 88.14105208334513,
      "v": 95
    },
    {
      "midi": 75,
      "hit": false,
      "t": 213445.57685416957,
      "d": 192.30775000000722,
      "v": 90
    },
    {
      "midi": 70,
      "hit": false,
      "t": 213445.57685416957,
      "d": 224.35904166667024,
      "v": 98
    },
    {
      "midi": 67,
      "hit": false,
      "t": 213453.58967708625,
      "d": 168.26928124998813,
      "v": 108
    },
    {
      "midi": 60,
      "hit": false,
      "t": 213710.00001041958,
      "d": 56.08976041665301,
      "v": 95
    },
    {
      "midi": 74,
      "hit": false,
      "t": 213838.20517708623,
      "d": 184.2949270833342,
      "v": 95
    },
    {
      "midi": 65,
      "hit": false,
      "t": 213838.20517708623,
      "d": 216.3462187499972,
      "v": 105
    },
    {
      "midi": 70,
      "hit": false,
      "t": 213838.20517708623,
      "d": 216.3462187499972,
      "v": 98
    },
    {
      "midi": 60,
      "hit": false,
      "t": 214110.64115625288,
      "d": 72.11540624999907,
      "v": 73
    },
    {
      "midi": 65,
      "hit": false,
      "t": 214214.80785416954,
      "d": 288.4616249999963,
      "v": 95
    },
    {
      "midi": 70,
      "hit": false,
      "t": 214214.80785416954,
      "d": 336.53856250000536,
      "v": 92
    },
    {
      "midi": 74,
      "hit": false,
      "t": 214222.82067708622,
      "d": 280.44880208332324,
      "v": 92
    },
    {
      "midi": 60,
      "hit": false,
      "t": 214479.23101041955,
      "d": 152.24363541667117,
      "v": 90
    },
    {
      "midi": 60,
      "hit": false,
      "t": 214863.84651041956,
      "d": 56.08976041665301,
      "v": 98
    },
    {
      "midi": 65,
      "hit": false,
      "t": 214992.05167708622,
      "d": 208.33339583332418,
      "v": 108
    },
    {
      "midi": 74,
      "hit": false,
      "t": 214992.05167708622,
      "d": 232.37186458331416,
      "v": 98
    },
    {
      "midi": 70,
      "hit": false,
      "t": 214992.05167708622,
      "d": 248.39751041666023,
      "v": 92
    },
    {
      "midi": 60,
      "hit": false,
      "t": 215240.44918750288,
      "d": 56.08976041665301,
      "v": 95
    },
    {
      "midi": 69,
      "hit": false,
      "t": 215376.6671770862,
      "d": 216.3462187499972,
      "v": 101
    },
    {
      "midi": 65,
      "hit": false,
      "t": 215376.6671770862,
      "d": 240.3846874999872,
      "v": 101
    },
    {
      "midi": 72,
      "hit": false,
      "t": 215376.6671770862,
      "d": 248.39751041666023,
      "v": 101
    },
    {
      "midi": 60,
      "hit": false,
      "t": 215625.06468750286,
      "d": 64.10258333332604,
      "v": 92
    },
    {
      "midi": 65,
      "hit": false,
      "t": 215753.2698541695,
      "d": 264.4231562500063,
      "v": 92
    },
    {
      "midi": 69,
      "hit": false,
      "t": 215753.2698541695,
      "d": 272.4359791666793,
      "v": 92
    },
    {
      "midi": 72,
      "hit": false,
      "t": 215761.2826770862,
      "d": 280.44880208335235,
      "v": 86
    },
    {
      "midi": 60,
      "hit": false,
      "t": 216009.68018750285,
      "d": 96.15387500001816,
      "v": 98
    },
    {
      "midi": 60,
      "hit": false,
      "t": 216402.30851041953,
      "d": 48.07693750000908,
      "v": 92
    },
    {
      "midi": 65,
      "hit": false,
      "t": 216530.51367708622,
      "d": 168.26928124998813,
      "v": 101
    },
    {
      "midi": 72,
      "hit": false,
      "t": 216530.51367708622,
      "d": 176.28210416666116,
      "v": 101
    },
    {
      "midi": 69,
      "hit": false,
      "t": 216530.51367708622,
      "d": 208.33339583332418,
      "v": 98
    },
    {
      "midi": 60,
      "hit": false,
      "t": 216786.92401041955,
      "d": 64.10258333332604,
      "v": 92
    },
    {
      "midi": 67,
      "hit": false,
      "t": 216915.1291770862,
      "d": 216.3462187499972,
      "v": 101
    },
    {
      "midi": 72,
      "hit": false,
      "t": 216915.1291770862,
      "d": 248.39751041666023,
      "v": 95
    },
    {
      "midi": 76,
      "hit": false,
      "t": 216923.14200000287,
      "d": 216.3462187499972,
      "v": 92
    },
    {
      "midi": 60,
      "hit": false,
      "t": 217163.52668750286,
      "d": 64.10258333332604,
      "v": 95
    },
    {
      "midi": 76,
      "hit": false,
      "t": 217291.7318541695,
      "d": 296.4744479166693,
      "v": 95
    },
    {
      "midi": 67,
      "hit": false,
      "t": 217299.7446770862,
      "d": 248.39751041666023,
      "v": 105
    },
    {
      "midi": 72,
      "hit": false,
      "t": 217299.7446770862,
      "d": 280.44880208332324,
      "v": 108
    },
    {
      "midi": 60,
      "hit": false,
      "t": 217548.14218750285,
      "d": 176.28210416666116,
      "v": 95
    },
    {
      "midi": 58,
      "hit": false,
      "t": 217948.78333333408,
      "d": 120.19234375000815,
      "v": 62
    },
    {
      "midi": 67,
      "hit": false,
      "t": 217948.78333333408,
      "d": 120.19234375000815,
      "v": 52
    },
    {
      "midi": 60,
      "hit": false,
      "t": 217948.78333333618,
      "d": 56.08976041665301,
      "v": 98
    },
    {
      "midi": 76,
      "hit": false,
      "t": 218060.96285416948,
      "d": 112.17952083333512,
      "v": 98
    },
    {
      "midi": 72,
      "hit": false,
      "t": 218060.96285416948,
      "d": 168.26928124998813,
      "v": 105
    },
    {
      "midi": 67,
      "hit": false,
      "t": 218068.97567708616,
      "d": 168.26928124998813,
      "v": 98
    },
    {
      "midi": 58,
      "hit": false,
      "t": 218076.98850000076,
      "d": 248.39751041666023,
      "v": 65
    },
    {
      "midi": 67,
      "hit": false,
      "t": 218076.98850000076,
      "d": 248.39751041666023,
      "v": 50
    },
    {
      "midi": 76,
      "hit": false,
      "t": 218317.37318750282,
      "d": 48.07693750000908,
      "v": 90
    },
    {
      "midi": 72,
      "hit": false,
      "t": 218317.37318750282,
      "d": 56.08976041668211,
      "v": 81
    },
    {
      "midi": 58,
      "hit": false,
      "t": 218333.3988333341,
      "d": 120.19234375000815,
      "v": 64
    },
    {
      "midi": 67,
      "hit": false,
      "t": 218333.3988333341,
      "d": 120.19234375000815,
      "v": 72
    },
    {
      "midi": 67,
      "hit": false,
      "t": 218333.39883333616,
      "d": 32.05129166666302,
      "v": 77
    },
    {
      "midi": 70,
      "hit": false,
      "t": 218445.5783541695,
      "d": 224.35904166667024,
      "v": 98
    },
    {
      "midi": 74,
      "hit": false,
      "t": 218445.5783541695,
      "d": 272.4359791666793,
      "v": 105
    },
    {
      "midi": 58,
      "hit": false,
      "t": 218461.60400000078,
      "d": 376.6026770833414,
      "v": 62
    },
    {
      "midi": 67,
      "hit": false,
      "t": 218461.60400000078,
      "d": 384.61550000001444,
      "v": 68
    },
    {
      "midi": 65,
      "hit": false,
      "t": 218461.60400000284,
      "d": 208.33339583332418,
      "v": 98
    },
    {
      "midi": 65,
      "hit": false,
      "t": 218830.1938541695,
      "d": 232.37186458334327,
      "v": 124
    },
    {
      "midi": 70,
      "hit": false,
      "t": 218830.1938541695,
      "d": 232.37186458334327,
      "v": 114
    },
    {
      "midi": 72,
      "hit": false,
      "t": 218830.1938541695,
      "d": 240.3846875000163,
      "v": 108
    },
    {
      "midi": 58,
      "hit": false,
      "t": 218846.2195000008,
      "d": 376.6026770833414,
      "v": 72
    },
    {
      "midi": 65,
      "hit": false,
      "t": 218846.2195000008,
      "d": 376.6026770833414,
      "v": 87
    },
    {
      "midi": 65,
      "hit": false,
      "t": 219222.8221770862,
      "d": 192.30775000000722,
      "v": 92
    },
    {
      "midi": 70,
      "hit": false,
      "t": 219222.8221770862,
      "d": 216.3462187499972,
      "v": 81
    },
    {
      "midi": 58,
      "hit": false,
      "t": 219230.8350000008,
      "d": 384.61550000001444,
      "v": 72
    },
    {
      "midi": 65,
      "hit": false,
      "t": 219230.8350000008,
      "d": 384.61550000001444,
      "v": 83
    },
    {
      "midi": 72,
      "hit": false,
      "t": 219238.84782291955,
      "d": 176.28210416666116,
      "v": 84
    },
    {
      "midi": 60,
      "hit": false,
      "t": 219479.23251041953,
      "d": 72.11540624999907,
      "v": 81
    },
    {
      "midi": 65,
      "hit": false,
      "t": 219607.43767708619,
      "d": 200.32057291668025,
      "v": 108
    },
    {
      "midi": 72,
      "hit": false,
      "t": 219607.43767708619,
      "d": 208.33339583335328,
      "v": 105
    },
    {
      "midi": 70,
      "hit": false,
      "t": 219607.43767708619,
      "d": 216.3462187500263,
      "v": 92
    },
    {
      "midi": 65,
      "hit": false,
      "t": 219984.04035416956,
      "d": 224.35904166667024,
      "v": 101
    },
    {
      "midi": 70,
      "hit": false,
      "t": 219984.04035416956,
      "d": 224.35904166667024,
      "v": 92
    },
    {
      "midi": 72,
      "hit": false,
      "t": 219984.04035416956,
      "d": 224.35904166667024,
      "v": 90
    },
    {
      "midi": 60,
      "hit": false,
      "t": 220240.4506875029,
      "d": 64.10258333332604,
      "v": 90
    },
    {
      "midi": 70,
      "hit": false,
      "t": 220368.65585416954,
      "d": 304.48727083331323,
      "v": 84
    },
    {
      "midi": 65,
      "hit": false,
      "t": 220368.65585416954,
      "d": 344.5513854166493,
      "v": 98
    },
    {
      "midi": 72,
      "hit": false,
      "t": 220368.65585416954,
      "d": 592.9488958333095,
      "v": 95
    },
    {
      "midi": 60,
      "hit": false,
      "t": 220617.0533645862,
      "d": 96.15387499998906,
      "v": 98
    },
    {
      "midi": 65,
      "hit": false,
      "t": 221001.6688645862,
      "d": 296.4744479166693,
      "v": 114
    },
    {
      "midi": 70,
      "hit": false,
      "t": 221001.6688645862,
      "d": 304.48727083334234,
      "v": 105
    },
    {
      "midi": 74,
      "hit": false,
      "t": 221001.6688645862,
      "d": 304.48727083334234,
      "v": 114
    },
    {
      "midi": 58,
      "hit": false,
      "t": 221025.70733333417,
      "d": 120.19234375000815,
      "v": 59
    },
    {
      "midi": 65,
      "hit": false,
      "t": 221025.70733333417,
      "d": 376.6026770833414,
      "v": 78
    },
    {
      "midi": 58,
      "hit": false,
      "t": 221153.91250000085,
      "d": 248.39751041666023,
      "v": 65
    },
    {
      "midi": 60,
      "hit": false,
      "t": 221394.29718750287,
      "d": 64.10258333332604,
      "v": 98
    },
    {
      "midi": 65,
      "hit": false,
      "t": 221410.32283333418,
      "d": 120.19234375000815,
      "v": 78
    },
    {
      "midi": 58,
      "hit": false,
      "t": 221410.32283333418,
      "d": 128.20516666668118,
      "v": 59
    },
    {
      "midi": 63,
      "hit": false,
      "t": 221530.5151770862,
      "d": 232.37186458334327,
      "v": 98
    },
    {
      "midi": 68,
      "hit": false,
      "t": 221530.5151770862,
      "d": 264.4231562500063,
      "v": 105
    },
    {
      "midi": 74,
      "hit": false,
      "t": 221530.5151770862,
      "d": 296.4744479166693,
      "v": 108
    },
    {
      "midi": 56,
      "hit": false,
      "t": 221538.52800000086,
      "d": 376.6026770833414,
      "v": 64
    },
    {
      "midi": 65,
      "hit": false,
      "t": 221538.52800000086,
      "d": 384.61550000001444,
      "v": 83
    },
    {
      "midi": 63,
      "hit": false,
      "t": 221907.11785416954,
      "d": 256.41033333333326,
      "v": 98
    },
    {
      "midi": 68,
      "hit": false,
      "t": 221915.1306770862,
      "d": 248.39751041666023,
      "v": 88
    },
    {
      "midi": 72,
      "hit": false,
      "t": 221915.1306770862,
      "d": 280.44880208332324,
      "v": 98
    },
    {
      "midi": 56,
      "hit": false,
      "t": 221923.14350000088,
      "d": 376.6026770833414,
      "v": 65
    },
    {
      "midi": 63,
      "hit": false,
      "t": 221923.14350000088,
      "d": 376.6026770833414,
      "v": 70
    },
    {
      "midi": 63,
      "hit": false,
      "t": 222307.7590000009,
      "d": 376.6026770833414,
      "v": 72
    },
    {
      "midi": 56,
      "hit": false,
      "t": 222307.7590000009,
      "d": 384.61550000001444,
      "v": 70
    },
    {
      "midi": 63,
      "hit": false,
      "t": 222315.77182291955,
      "d": 200.32057291668025,
      "v": 84
    },
    {
      "midi": 68,
      "hit": false,
      "t": 222315.77182291955,
      "d": 208.33339583335328,
      "v": 90
    },
    {
      "midi": 72,
      "hit": false,
      "t": 222315.77182291955,
      "d": 224.35904166669934,
      "v": 76
    },
    {
      "midi": 60,
      "hit": false,
      "t": 222556.1565104196,
      "d": 48.07693750000908,
      "v": 98
    },
    {
      "midi": 63,
      "hit": false,
      "t": 222684.36167708627,
      "d": 208.33339583332418,
      "v": 101
    },
    {
      "midi": 68,
      "hit": false,
      "t": 222684.36167708627,
      "d": 216.3462187499972,
      "v": 90
    },
    {
      "midi": 72,
      "hit": false,
      "t": 222684.36167708627,
      "d": 248.39751041666023,
      "v": 101
    },
    {
      "midi": 63,
      "hit": false,
      "t": 223060.9643541696,
      "d": 176.28210416666116,
      "v": 84
    },
    {
      "midi": 68,
      "hit": false,
      "t": 223060.9643541696,
      "d": 192.30775000000722,
      "v": 90
    },
    {
      "midi": 72,
      "hit": false,
      "t": 223060.9643541696,
      "d": 224.35904166667024,
      "v": 84
    },
    {
      "midi": 60,
      "hit": false,
      "t": 223317.37468750295,
      "d": 64.10258333332604,
      "v": 90
    },
    {
      "midi": 68,
      "hit": false,
      "t": 223445.5798541696,
      "d": 256.41033333333326,
      "v": 101
    },
    {
      "midi": 63,
      "hit": false,
      "t": 223445.5798541696,
      "d": 280.44880208332324,
      "v": 101
    },
    {
      "midi": 72,
      "hit": false,
      "t": 223445.5798541696,
      "d": 312.50009374998626,
      "v": 95
    },
    {
      "midi": 60,
      "hit": false,
      "t": 223701.99018750293,
      "d": 128.20516666665208,
      "v": 95
    },
    {
      "midi": 68,
      "hit": false,
      "t": 224078.59286458624,
      "d": 456.7309062500135,
      "v": 101
    },
    {
      "midi": 63,
      "hit": false,
      "t": 224086.60568750292,
      "d": 256.41033333333326,
      "v": 105
    },
    {
      "midi": 74,
      "hit": false,
      "t": 224086.60568750292,
      "d": 256.41033333333326,
      "v": 108
    },
    {
      "midi": 56,
      "hit": false,
      "t": 224102.63133333426,
      "d": 120.19234375000815,
      "v": 65
    },
    {
      "midi": 65,
      "hit": false,
      "t": 224102.63133333426,
      "d": 120.19234375000815,
      "v": 78
    },
    {
      "midi": 56,
      "hit": false,
      "t": 224230.83650000094,
      "d": 248.39751041666023,
      "v": 56
    },
    {
      "midi": 65,
      "hit": false,
      "t": 224230.83650000094,
      "d": 248.39751041666023,
      "v": 56
    },
    {
      "midi": 60,
      "hit": false,
      "t": 224463.20836458626,
      "d": 104.16669791666209,
      "v": 98
    },
    {
      "midi": 65,
      "hit": false,
      "t": 224487.24683333427,
      "d": 120.19234375000815,
      "v": 83
    },
    {
      "midi": 56,
      "hit": false,
      "t": 224487.24683333427,
      "d": 128.20516666668118,
      "v": 72
    },
    {
      "midi": 74,
      "hit": false,
      "t": 224599.42635416958,
      "d": 224.35904166667024,
      "v": 98
    },
    {
      "midi": 69,
      "hit": false,
      "t": 224599.42635416958,
      "d": 248.39751041666023,
      "v": 98
    },
    {
      "midi": 65,
      "hit": false,
      "t": 224607.43917708626,
      "d": 184.2949270833342,
      "v": 90
    },
    {
      "midi": 57,
      "hit": false,
      "t": 224615.45200000095,
      "d": 376.6026770833414,
      "v": 76
    },
    {
      "midi": 65,
      "hit": false,
      "t": 224615.45200000095,
      "d": 376.6026770833414,
      "v": 78
    },
    {
      "midi": 65,
      "hit": false,
      "t": 224984.04185416957,
      "d": 232.37186458334327,
      "v": 108
    },
    {
      "midi": 72,
      "hit": false,
      "t": 224984.04185416957,
      "d": 232.37186458334327,
      "v": 101
    },
    {
      "midi": 69,
      "hit": false,
      "t": 224984.04185416957,
      "d": 240.3846875000163,
      "v": 95
    },
    {
      "midi": 57,
      "hit": false,
      "t": 225000.06750000097,
      "d": 376.6026770833414,
      "v": 80
    },
    {
      "midi": 65,
      "hit": false,
      "t": 225000.06750000097,
      "d": 376.6026770833414,
      "v": 80
    },
    {
      "midi": 57,
      "hit": false,
      "t": 225384.68300000098,
      "d": 384.61550000001444,
      "v": 79
    },
    {
      "midi": 65,
      "hit": false,
      "t": 225384.68300000098,
      "d": 384.61550000001444,
      "v": 79
    },
    {
      "midi": 69,
      "hit": false,
      "t": 225384.68300000293,
      "d": 208.33339583335328,
      "v": 78
    },
    {
      "midi": 72,
      "hit": false,
      "t": 225392.6958229196,
      "d": 200.32057291668025,
      "v": 81
    },
    {
      "midi": 65,
      "hit": false,
      "t": 225400.70864583628,
      "d": 184.2949270833342,
      "v": 76
    },
    {
      "midi": 60,
      "hit": false,
      "t": 225633.08051041962,
      "d": 56.08976041665301,
      "v": 95
    },
    {
      "midi": 65,
      "hit": false,
      "t": 225761.28567708627,
      "d": 184.2949270833342,
      "v": 114
    },
    {
      "midi": 72,
      "hit": false,
      "t": 225761.28567708627,
      "d": 224.35904166667024,
      "v": 108
    },
    {
      "midi": 69,
      "hit": false,
      "t": 225769.29850000294,
      "d": 176.28210416666116,
      "v": 108
    },
    {
      "midi": 69,
      "hit": false,
      "t": 226137.8883541696,
      "d": 184.2949270833342,
      "v": 98
    },
    {
      "midi": 65,
      "hit": false,
      "t": 226145.90117708629,
      "d": 200.32057291665114,
      "v": 101
    },
    {
      "midi": 72,
      "hit": false,
      "t": 226145.90117708629,
      "d": 216.3462187499972,
      "v": 92
    },
    {
      "midi": 60,
      "hit": false,
      "t": 226394.29868750295,
      "d": 96.15387499998906,
      "v": 90
    },
    {
      "midi": 65,
      "hit": false,
      "t": 226522.5038541696,
      "d": 272.4359791666793,
      "v": 105
    },
    {
      "midi": 72,
      "hit": false,
      "t": 226522.5038541696,
      "d": 336.53856250000536,
      "v": 101
    },
    {
      "midi": 69,
      "hit": false,
      "t": 226530.51667708627,
      "d": 248.39751041666023,
      "v": 101
    },
    {
      "midi": 60,
      "hit": false,
      "t": 226778.91418750293,
      "d": 232.37186458334327,
      "v": 101
    },
    {
      "midi": 69,
      "hit": false,
      "t": 227155.51686458627,
      "d": 256.41033333333326,
      "v": 105
    },
    {
      "midi": 74,
      "hit": false,
      "t": 227163.52968750295,
      "d": 312.50009374998626,
      "v": 105
    },
    {
      "midi": 65,
      "hit": false,
      "t": 227163.52968750295,
      "d": 336.53856249997625,
      "v": 108
    },
    {
      "midi": 57,
      "hit": false,
      "t": 227179.55533333434,
      "d": 120.19234375000815,
      "v": 78
    },
    {
      "midi": 65,
      "hit": false,
      "t": 227179.55533333434,
      "d": 120.19234375000815,
      "v": 78
    },
    {
      "midi": 57,
      "hit": false,
      "t": 227307.76050000102,
      "d": 248.39751041666023,
      "v": 70
    },
    {
      "midi": 65,
      "hit": false,
      "t": 227307.76050000102,
      "d": 248.39751041666023,
      "v": 76
    },
    {
      "midi": 60,
      "hit": false,
      "t": 227548.14518750293,
      "d": 64.10258333332604,
      "v": 98
    },
    {
      "midi": 65,
      "hit": false,
      "t": 227564.17083333436,
      "d": 120.19234375000815,
      "v": 72
    },
    {
      "midi": 57,
      "hit": false,
      "t": 227564.17083333436,
      "d": 128.20516666668118,
      "v": 72
    },
    {
      "midi": 74,
      "hit": false,
      "t": 227676.35035416958,
      "d": 192.30775000000722,
      "v": 108
    },
    {
      "midi": 65,
      "hit": false,
      "t": 227676.35035416958,
      "d": 200.32057291668025,
      "v": 108
    },
    {
      "midi": 70,
      "hit": false,
      "t": 227676.35035416958,
      "d": 200.32057291668025,
      "v": 101
    },
    {
      "midi": 58,
      "hit": false,
      "t": 227692.37600000104,
      "d": 376.6026770833414,
      "v": 83
    },
    {
      "midi": 65,
      "hit": false,
      "t": 227692.37600000104,
      "d": 376.6026770833414,
      "v": 68
    },
    {
      "midi": 70,
      "hit": false,
      "t": 228060.9658541696,
      "d": 192.30775000000722,
      "v": 101
    },
    {
      "midi": 65,
      "hit": false,
      "t": 228060.9658541696,
      "d": 200.32057291668025,
      "v": 114
    },
    {
      "midi": 72,
      "hit": false,
      "t": 228060.9658541696,
      "d": 240.3846875000163,
      "v": 108
    },
    {
      "midi": 58,
      "hit": false,
      "t": 228076.99150000105,
      "d": 376.6026770833414,
      "v": 72
    },
    {
      "midi": 65,
      "hit": false,
      "t": 228076.99150000105,
      "d": 376.6026770833414,
      "v": 83
    },
    {
      "midi": 65,
      "hit": false,
      "t": 228453.59417708628,
      "d": 200.32057291668025,
      "v": 90
    },
    {
      "midi": 70,
      "hit": false,
      "t": 228453.59417708628,
      "d": 208.33339583335328,
      "v": 76
    },
    {
      "midi": 72,
      "hit": false,
      "t": 228453.59417708628,
      "d": 216.3462187500263,
      "v": 78
    },
    {
      "midi": 58,
      "hit": false,
      "t": 228461.60700000107,
      "d": 384.61550000001444,
      "v": 76
    },
    {
      "midi": 65,
      "hit": false,
      "t": 228461.60700000107,
      "d": 384.61550000001444,
      "v": 87
    },
    {
      "midi": 60,
      "hit": false,
      "t": 228710.00451041965,
      "d": 48.07693750000908,
      "v": 90
    },
    {
      "midi": 70,
      "hit": false,
      "t": 228838.20967708633,
      "d": 176.28210416666116,
      "v": 101
    },
    {
      "midi": 65,
      "hit": false,
      "t": 228838.20967708633,
      "d": 200.32057291665114,
      "v": 114
    },
    {
      "midi": 72,
      "hit": false,
      "t": 228838.20967708633,
      "d": 200.32057291665114,
      "v": 98
    },
    {
      "midi": 65,
      "hit": false,
      "t": 229222.8251770863,
      "d": 192.30775000000722,
      "v": 105
    },
    {
      "midi": 70,
      "hit": false,
      "t": 229222.8251770863,
      "d": 216.3462187499972,
      "v": 98
    },
    {
      "midi": 72,
      "hit": false,
      "t": 229222.8251770863,
      "d": 224.35904166667024,
      "v": 98
    },
    {
      "midi": 60,
      "hit": false,
      "t": 229471.22268750297,
      "d": 64.10258333332604,
      "v": 98
    },
    {
      "midi": 70,
      "hit": false,
      "t": 229607.4406770863,
      "d": 224.35904166667024,
      "v": 90
    },
    {
      "midi": 65,
      "hit": false,
      "t": 229607.4406770863,
      "d": 272.4359791666502,
      "v": 105
    },
    {
      "midi": 72,
      "hit": false,
      "t": 229607.4406770863,
      "d": 336.53856249997625,
      "v": 101
    },
    {
      "midi": 60,
      "hit": false,
      "t": 229855.83818750296,
      "d": 240.3846874999872,
      "v": 105
    },
    {
      "midi": 65,
      "hit": false,
      "t": 230240.45368750294,
      "d": 144.23081249999814,
      "v": 114
    },
    {
      "midi": 70,
      "hit": false,
      "t": 230240.45368750294,
      "d": 288.4616249999963,
      "v": 105
    },
    {
      "midi": 74,
      "hit": false,
      "t": 230240.45368750294,
      "d": 288.4616249999963,
      "v": 105
    },
    {
      "midi": 58,
      "hit": false,
      "t": 230256.47933333443,
      "d": 120.19234375000815,
      "v": 76
    },
    {
      "midi": 65,
      "hit": false,
      "t": 230256.47933333443,
      "d": 120.19234375000815,
      "v": 72
    },
    {
      "midi": 58,
      "hit": false,
      "t": 230384.6845000011,
      "d": 248.39751041666023,
      "v": 70
    },
    {
      "midi": 65,
      "hit": false,
      "t": 230384.6845000011,
      "d": 248.39751041666023,
      "v": 70
    },
    {
      "midi": 60,
      "hit": false,
      "t": 230625.06918750293,
      "d": 56.08976041665301,
      "v": 84
    },
    {
      "midi": 65,
      "hit": false,
      "t": 230641.09483333444,
      "d": 120.19234375000815,
      "v": 78
    },
    {
      "midi": 58,
      "hit": false,
      "t": 230641.09483333444,
      "d": 128.20516666668118,
      "v": 65
    },
    {
      "midi": 63,
      "hit": false,
      "t": 230753.27435416958,
      "d": 200.32057291668025,
      "v": 101
    },
    {
      "midi": 68,
      "hit": false,
      "t": 230753.27435416958,
      "d": 224.35904166667024,
      "v": 101
    },
    {
      "midi": 74,
      "hit": false,
      "t": 230753.27435416958,
      "d": 264.4231562500063,
      "v": 105
    },
    {
      "midi": 56,
      "hit": false,
      "t": 230769.30000000112,
      "d": 376.6026770833414,
      "v": 65
    },
    {
      "midi": 65,
      "hit": false,
      "t": 230769.30000000112,
      "d": 384.61550000001444,
      "v": 87
    },
    {
      "midi": 63,
      "hit": false,
      "t": 231137.8898541696,
      "d": 208.33339583335328,
      "v": 101
    },
    {
      "midi": 68,
      "hit": false,
      "t": 231137.8898541696,
      "d": 232.37186458334327,
      "v": 98
    },
    {
      "midi": 72,
      "hit": false,
      "t": 231145.90267708627,
      "d": 248.39751041666023,
      "v": 98
    },
    {
      "midi": 56,
      "hit": false,
      "t": 231153.91550000114,
      "d": 376.6026770833414,
      "v": 62
    },
    {
      "midi": 63,
      "hit": false,
      "t": 231153.91550000114,
      "d": 376.6026770833414,
      "v": 70
    },
    {
      "midi": 63,
      "hit": false,
      "t": 231530.51817708625,
      "d": 208.33339583332418,
      "v": 92
    },
    {
      "midi": 72,
      "hit": false,
      "t": 231530.51817708625,
      "d": 208.33339583332418,
      "v": 88
    },
    {
      "midi": 68,
      "hit": false,
      "t": 231530.51817708625,
      "d": 232.37186458331416,
      "v": 90
    },
    {
      "midi": 56,
      "hit": false,
      "t": 231538.53100000115,
      "d": 384.61550000001444,
      "v": 72
    },
    {
      "midi": 63,
      "hit": false,
      "t": 231538.53100000115,
      "d": 384.61550000001444,
      "v": 76
    },
    {
      "midi": 60,
      "hit": false,
      "t": 231786.92851041956,
      "d": 56.08976041665301,
      "v": 90
    },
    {
      "midi": 63,
      "hit": false,
      "t": 231915.1336770862,
      "d": 208.33339583332418,
      "v": 105
    },
    {
      "midi": 72,
      "hit": false,
      "t": 231915.1336770862,
      "d": 224.35904166667024,
      "v": 101
    },
    {
      "midi": 68,
      "hit": false,
      "t": 231915.1336770862,
      "d": 240.3846875000163,
      "v": 101
    },
    {
      "midi": 63,
      "hit": false,
      "t": 232299.74917708623,
      "d": 184.2949270833342,
      "v": 90
    },
    {
      "midi": 68,
      "hit": false,
      "t": 232299.74917708623,
      "d": 216.3462187499972,
      "v": 92
    },
    {
      "midi": 72,
      "hit": false,
      "t": 232315.77482291957,
      "d": 192.3077499999781,
      "v": 86
    },
    {
      "midi": 60,
      "hit": false,
      "t": 232556.15951041956,
      "d": 80.1282291666721,
      "v": 92
    },
    {
      "midi": 63,
      "hit": false,
      "t": 232676.35185416957,
      "d": 248.39751041666023,
      "v": 105
    },
    {
      "midi": 68,
      "hit": false,
      "t": 232676.35185416957,
      "d": 256.41033333333326,
      "v": 101
    },
    {
      "midi": 72,
      "hit": false,
      "t": 232676.35185416957,
      "d": 280.44880208332324,
      "v": 98
    },
    {
      "midi": 60,
      "hit": false,
      "t": 232932.7621875029,
      "d": 136.2179895833251,
      "v": 101
    },
    {
      "midi": 68,
      "hit": false,
      "t": 233309.3648645862,
      "d": 496.79502083334955,
      "v": 101
    },
    {
      "midi": 63,
      "hit": false,
      "t": 233317.37768750289,
      "d": 208.33339583332418,
      "v": 92
    },
    {
      "midi": 74,
      "hit": false,
      "t": 233317.37768750289,
      "d": 272.4359791666502,
      "v": 105
    },
    {
      "midi": 56,
      "hit": false,
      "t": 233333.4033333345,
      "d": 120.19234375000815,
      "v": 65
    },
    {
      "midi": 65,
      "hit": false,
      "t": 233333.4033333345,
      "d": 120.19234375000815,
      "v": 76
    },
    {
      "midi": 56,
      "hit": false,
      "t": 233461.6085000012,
      "d": 248.39751041666023,
      "v": 40
    },
    {
      "midi": 65,
      "hit": false,
      "t": 233461.6085000012,
      "d": 248.39751041666023,
      "v": 72
    },
    {
      "midi": 60,
      "hit": false,
      "t": 233701.99318750287,
      "d": 88.14105208334513,
      "v": 98
    },
    {
      "midi": 65,
      "hit": false,
      "t": 233718.01883333453,
      "d": 120.19234375000815,
      "v": 72
    },
    {
      "midi": 56,
      "hit": false,
      "t": 233718.01883333453,
      "d": 128.20516666668118,
      "v": 65
    },
    {
      "midi": 65,
      "hit": false,
      "t": 233830.19835416955,
      "d": 192.30775000000722,
      "v": 101
    },
    {
      "midi": 74,
      "hit": false,
      "t": 233830.19835416955,
      "d": 248.39751041666023,
      "v": 98
    },
    {
      "midi": 69,
      "hit": false,
      "t": 233830.19835416955,
      "d": 288.4616249999963,
      "v": 101
    },
    {
      "midi": 57,
      "hit": false,
      "t": 233846.2240000012,
      "d": 376.6026770833414,
      "v": 76
    },
    {
      "midi": 65,
      "hit": false,
      "t": 233846.2240000012,
      "d": 376.6026770833414,
      "v": 72
    },
    {
      "midi": 65,
      "hit": false,
      "t": 234214.81385416954,
      "d": 208.33339583335328,
      "v": 114
    },
    {
      "midi": 72,
      "hit": false,
      "t": 234214.81385416954,
      "d": 248.39751041668933,
      "v": 105
    },
    {
      "midi": 69,
      "hit": false,
      "t": 234222.8266770862,
      "d": 216.3462187500263,
      "v": 90
    },
    {
      "midi": 57,
      "hit": false,
      "t": 234230.83950000122,
      "d": 376.6026770833414,
      "v": 83
    },
    {
      "midi": 65,
      "hit": false,
      "t": 234230.83950000122,
      "d": 376.6026770833414,
      "v": 91
    },
    {
      "midi": 72,
      "hit": false,
      "t": 234599.42935416955,
      "d": 208.33339583335328,
      "v": 76
    },
    {
      "midi": 65,
      "hit": false,
      "t": 234599.42935416955,
      "d": 224.35904166669934,
      "v": 92
    },
    {
      "midi": 69,
      "hit": false,
      "t": 234607.44217708622,
      "d": 208.33339583335328,
      "v": 84
    },
    {
      "midi": 57,
      "hit": false,
      "t": 234615.45500000124,
      "d": 384.61550000001444,
      "v": 83
    },
    {
      "midi": 65,
      "hit": false,
      "t": 234615.45500000124,
      "d": 384.61550000001444,
      "v": 78
    },
    {
      "midi": 60,
      "hit": false,
      "t": 234855.8396875029,
      "d": 48.07693750000908,
      "v": 95
    },
    {
      "midi": 69,
      "hit": false,
      "t": 234984.0448541696,
      "d": 216.3462187499972,
      "v": 108
    },
    {
      "midi": 72,
      "hit": false,
      "t": 234984.0448541696,
      "d": 224.35904166667024,
      "v": 101
    },
    {
      "midi": 65,
      "hit": false,
      "t": 234992.05767708627,
      "d": 216.3462187499972,
      "v": 114
    },
    {
      "midi": 65,
      "hit": false,
      "t": 235368.6603541696,
      "d": 200.32057291668025,
      "v": 105
    },
    {
      "midi": 72,
      "hit": false,
      "t": 235368.6603541696,
      "d": 248.39751041666023,
      "v": 92
    },
    {
      "midi": 69,
      "hit": false,
      "t": 235376.67317708628,
      "d": 216.3462187499972,
      "v": 90
    },
    {
      "midi": 60,
      "hit": false,
      "t": 235625.07068750294,
      "d": 80.1282291666721,
      "v": 95
    },
    {
      "midi": 69,
      "hit": false,
      "t": 235753.27585416962,
      "d": 256.41033333333326,
      "v": 98
    },
    {
      "midi": 65,
      "hit": false,
      "t": 235753.27585416962,
      "d": 272.4359791666793,
      "v": 105
    },
    {
      "midi": 72,
      "hit": false,
      "t": 235753.27585416962,
      "d": 288.4616250000254,
      "v": 92
    },
    {
      "midi": 60,
      "hit": false,
      "t": 236009.68618750296,
      "d": 160.2564583333733,
      "v": 105
    },
    {
      "midi": 74,
      "hit": false,
      "t": 236386.28886458633,
      "d": 264.4231562500063,
      "v": 101
    },
    {
      "midi": 69,
      "hit": false,
      "t": 236386.28886458633,
      "d": 296.4744479166693,
      "v": 108
    },
    {
      "midi": 65,
      "hit": false,
      "t": 236386.28886458633,
      "d": 304.48727083334234,
      "v": 114
    },
    {
      "midi": 57,
      "hit": false,
      "t": 236410.3273333346,
      "d": 120.19234375000815,
      "v": 72
    },
    {
      "midi": 65,
      "hit": false,
      "t": 236410.3273333346,
      "d": 120.19234375000815,
      "v": 78
    },
    {
      "midi": 57,
      "hit": false,
      "t": 236538.53250000128,
      "d": 248.39751041666023,
      "v": 62
    },
    {
      "midi": 65,
      "hit": false,
      "t": 236538.53250000128,
      "d": 248.39751041666023,
      "v": 65
    },
    {
      "midi": 60,
      "hit": false,
      "t": 236778.91718750302,
      "d": 64.10258333332604,
      "v": 92
    },
    {
      "midi": 65,
      "hit": false,
      "t": 236794.94283333461,
      "d": 120.19234375000815,
      "v": 78
    },
    {
      "midi": 57,
      "hit": false,
      "t": 236794.94283333461,
      "d": 128.20516666668118,
      "v": 76
    },
    {
      "midi": 70,
      "hit": false,
      "t": 236907.12235416967,
      "d": 152.24363541667117,
      "v": 101
    },
    {
      "midi": 65,
      "hit": false,
      "t": 236907.12235416967,
      "d": 192.30775000000722,
      "v": 119
    },
    {
      "midi": 74,
      "hit": false,
      "t": 236907.12235416967,
      "d": 192.30775000000722,
      "v": 105
    },
    {
      "midi": 58,
      "hit": false,
      "t": 236923.1480000013,
      "d": 376.6026770833414,
      "v": 72
    },
    {
      "midi": 65,
      "hit": false,
      "t": 236923.1480000013,
      "d": 376.6026770833414,
      "v": 78
    },
    {
      "midi": 70,
      "hit": false,
      "t": 237291.73785416968,
      "d": 208.33339583332418,
      "v": 98
    },
    {
      "midi": 65,
      "hit": false,
      "t": 237291.73785416968,
      "d": 232.37186458331416,
      "v": 119
    },
    {
      "midi": 72,
      "hit": false,
      "t": 237291.73785416968,
      "d": 256.41033333330415,
      "v": 105
    },
    {
      "midi": 58,
      "hit": false,
      "t": 237307.7635000013,
      "d": 376.6026770833414,
      "v": 70
    },
    {
      "midi": 65,
      "hit": false,
      "t": 237307.7635000013,
      "d": 376.6026770833414,
      "v": 87
    },
    {
      "midi": 65,
      "hit": false,
      "t": 237676.35335416967,
      "d": 216.3462187500263,
      "v": 88
    },
    {
      "midi": 72,
      "hit": false,
      "t": 237676.35335416967,
      "d": 224.35904166669934,
      "v": 68
    },
    {
      "midi": 70,
      "hit": false,
      "t": 237684.36617708634,
      "d": 200.32057291668025,
      "v": 78
    },
    {
      "midi": 58,
      "hit": false,
      "t": 237692.37900000133,
      "d": 384.61550000001444,
      "v": 83
    },
    {
      "midi": 65,
      "hit": false,
      "t": 237692.37900000133,
      "d": 384.61550000001444,
      "v": 78
    },
    {
      "midi": 60,
      "hit": false,
      "t": 237932.76368750303,
      "d": 40.06411458333605,
      "v": 98
    },
    {
      "midi": 70,
      "hit": false,
      "t": 238068.98167708635,
      "d": 184.2949270833342,
      "v": 101
    },
    {
      "midi": 72,
      "hit": false,
      "t": 238068.98167708635,
      "d": 208.33339583332418,
      "v": 108
    },
    {
      "midi": 65,
      "hit": false,
      "t": 238068.98167708635,
      "d": 216.3462187499972,
      "v": 108
    },
    {
      "midi": 65,
      "hit": false,
      "t": 238453.59717708634,
      "d": 200.32057291668025,
      "v": 101
    },
    {
      "midi": 70,
      "hit": false,
      "t": 238453.59717708634,
      "d": 216.3462187500263,
      "v": 90
    },
    {
      "midi": 72,
      "hit": false,
      "t": 238453.59717708634,
      "d": 232.37186458337237,
      "v": 98
    },
    {
      "midi": 60,
      "hit": false,
      "t": 238701.99468750306,
      "d": 64.10258333332604,
      "v": 101
    },
    {
      "midi": 70,
      "hit": false,
      "t": 238830.1998541697,
      "d": 248.39751041666023,
      "v": 101
    },
    {
      "midi": 65,
      "hit": false,
      "t": 238830.1998541697,
      "d": 304.48727083334234,
      "v": 114
    },
    {
      "midi": 72,
      "hit": false,
      "t": 238830.1998541697,
      "d": 392.62832291668747,
      "v": 105
    },
    {
      "midi": 60,
      "hit": false,
      "t": 239086.61018750304,
      "d": 200.32057291668025,
      "v": 101
    },
    {
      "midi": 65,
      "hit": false,
      "t": 239463.21286458638,
      "d": 328.5257395833323,
      "v": 114
    },
    {
      "midi": 74,
      "hit": false,
      "t": 239463.21286458638,
      "d": 344.5513854166784,
      "v": 105
    },
    {
      "midi": 70,
      "hit": false,
      "t": 239463.21286458638,
      "d": 456.7309062500135,
      "v": 101
    },
    {
      "midi": 58,
      "hit": false,
      "t": 239487.2513333347,
      "d": 120.19234375000815,
      "v": 64
    },
    {
      "midi": 65,
      "hit": false,
      "t": 239487.2513333347,
      "d": 120.19234375000815,
      "v": 83
    },
    {
      "midi": 58,
      "hit": false,
      "t": 239615.45650000137,
      "d": 248.39751041666023,
      "v": 62
    },
    {
      "midi": 65,
      "hit": false,
      "t": 239615.45650000137,
      "d": 248.39751041666023,
      "v": 76
    },
    {
      "midi": 60,
      "hit": false,
      "t": 239855.84118750307,
      "d": 32.05129166666302,
      "v": 101
    },
    {
      "midi": 65,
      "hit": false,
      "t": 239871.8668333347,
      "d": 120.19234375000815,
      "v": 76
    },
    {
      "midi": 58,
      "hit": false,
      "t": 239871.8668333347,
      "d": 128.20516666668118,
      "v": 72
    },
    {
      "midi": 69,
      "hit": false,
      "t": 239984.04635416972,
      "d": 200.32057291668025,
      "v": 101
    },
    {
      "midi": 74,
      "hit": false,
      "t": 239984.04635416972,
      "d": 224.35904166667024,
      "v": 105
    },
    {
      "midi": 65,
      "hit": false,
      "t": 239992.0591770864,
      "d": 160.2564583333442,
      "v": 98
    },
    {
      "midi": 57,
      "hit": false,
      "t": 240000.07200000138,
      "d": 376.6026770833414,
      "v": 83
    },
    {
      "midi": 65,
      "hit": false,
      "t": 240000.07200000138,
      "d": 376.6026770833414,
      "v": 83
    },
    {
      "midi": 69,
      "hit": false,
      "t": 240368.66185416974,
      "d": 248.39751041666023,
      "v": 108
    },
    {
      "midi": 65,
      "hit": false,
      "t": 240368.66185416974,
      "d": 256.41033333333326,
      "v": 114
    },
    {
      "midi": 72,
      "hit": false,
      "t": 240368.66185416974,
      "d": 272.4359791666793,
      "v": 108
    },
    {
      "midi": 57,
      "hit": false,
      "t": 240384.6875000014,
      "d": 376.6026770833414,
      "v": 78
    },
    {
      "midi": 65,
      "hit": false,
      "t": 240384.6875000014,
      "d": 376.6026770833414,
      "v": 78
    },
    {
      "midi": 65,
      "hit": false,
      "t": 240769.3030000014,
      "d": 384.61550000001444,
      "v": 87
    },
    {
      "midi": 57,
      "hit": false,
      "t": 240769.3030000014,
      "d": 512.8206666666956,
      "v": 87
    },
    {
      "midi": 69,
      "hit": false,
      "t": 240769.3030000031,
      "d": 184.2949270833342,
      "v": 86
    },
    {
      "midi": 65,
      "hit": false,
      "t": 240769.3030000031,
      "d": 200.32057291668025,
      "v": 84
    },
    {
      "midi": 72,
      "hit": false,
      "t": 240769.3030000031,
      "d": 208.33339583335328,
      "v": 81
    },
    {
      "midi": 60,
      "hit": false,
      "t": 241017.7005104198,
      "d": 64.10258333332604,
      "v": 88
    },
    {
      "midi": 65,
      "hit": false,
      "t": 241145.90567708644,
      "d": 232.37186458334327,
      "v": 114
    },
    {
      "midi": 69,
      "hit": false,
      "t": 241145.90567708644,
      "d": 248.39751041668933,
      "v": 114
    },
    {
      "midi": 72,
      "hit": false,
      "t": 241145.90567708644,
      "d": 256.41033333336236,
      "v": 105
    },
    {
      "midi": 69,
      "hit": false,
      "t": 241538.53400000313,
      "d": 208.33339583335328,
      "v": 95
    },
    {
      "midi": 72,
      "hit": false,
      "t": 241538.53400000313,
      "d": 224.35904166669934,
      "v": 88
    },
    {
      "midi": 65,
      "hit": false,
      "t": 241546.5468229198,
      "d": 184.2949270833342,
      "v": 98
    },
    {
      "midi": 60,
      "hit": false,
      "t": 241786.93151041982,
      "d": 56.08976041665301,
      "v": 95
    },
    {
      "midi": 69,
      "hit": false,
      "t": 241907.1238541698,
      "d": 280.44880208335235,
      "v": 101
    },
    {
      "midi": 72,
      "hit": false,
      "t": 241907.1238541698,
      "d": 320.5129166666884,
      "v": 95
    },
    {
      "midi": 65,
      "hit": false,
      "t": 241915.13667708647,
      "d": 280.44880208335235,
      "v": 101
    },
    {
      "midi": 60,
      "hit": false,
      "t": 242171.5470104198,
      "d": 96.15387500001816,
      "v": 98
    },
    {
      "midi": 60,
      "hit": false,
      "t": 242556.16251041982,
      "d": 64.10258333332604,
      "v": 98
    },
    {
      "midi": 65,
      "hit": false,
      "t": 242676.3548541698,
      "d": 280.44880208332324,
      "v": 114
    },
    {
      "midi": 69,
      "hit": false,
      "t": 242676.3548541698,
      "d": 304.48727083331323,
      "v": 105
    },
    {
      "midi": 72,
      "hit": false,
      "t": 242676.3548541698,
      "d": 304.48727083331323,
      "v": 101
    },
    {
      "midi": 57,
      "hit": false,
      "t": 243076.99600000144,
      "d": 1538.4619999999995,
      "v": 66
    },
    {
      "midi": 62,
      "hit": false,
      "t": 243076.99600000144,
      "d": 3076.923999999999,
      "v": 66
    },
    {
      "midi": 65,
      "hit": false,
      "t": 243076.99600000144,
      "d": 3076.923999999999,
      "v": 66
    },
    {
      "midi": 65,
      "hit": false,
      "t": 243461.6115000031,
      "d": 240.3846875000163,
      "v": 92
    },
    {
      "midi": 53,
      "hit": false,
      "t": 243477.63714583646,
      "d": 1137.8208541667263,
      "v": 83
    },
    {
      "midi": 74,
      "hit": false,
      "t": 243718.02183333648,
      "d": 528.8463125000126,
      "v": 101
    },
    {
      "midi": 62,
      "hit": false,
      "t": 243726.03465625315,
      "d": 552.8847812500317,
      "v": 95
    },
    {
      "midi": 72,
      "hit": false,
      "t": 244254.88096875316,
      "d": 761.2181770833558,
      "v": 98
    },
    {
      "midi": 60,
      "hit": false,
      "t": 244270.9066145865,
      "d": 737.1797083333367,
      "v": 88
    },
    {
      "midi": 69,
      "hit": false,
      "t": 244615.45800000144,
      "d": 1538.4619999999995,
      "v": 65
    },
    {
      "midi": 65,
      "hit": false,
      "t": 245016.09914583652,
      "d": 208.33339583332418,
      "v": 90
    },
    {
      "midi": 53,
      "hit": false,
      "t": 245016.09914583652,
      "d": 1057.692624999996,
      "v": 84
    },
    {
      "midi": 74,
      "hit": false,
      "t": 245240.4581875032,
      "d": 544.8719583333295,
      "v": 114
    },
    {
      "midi": 62,
      "hit": false,
      "t": 245264.49665625318,
      "d": 544.8719583333295,
      "v": 101
    },
    {
      "midi": 60,
      "hit": false,
      "t": 245785.33014583652,
      "d": 737.1797083333367,
      "v": 95
    },
    {
      "midi": 72,
      "hit": false,
      "t": 245785.33014583652,
      "d": 769.2309999999998,
      "v": 105
    },
    {
      "midi": 64,
      "hit": false,
      "t": 246153.92000000144,
      "d": 1530.4491770833265,
      "v": 65
    },
    {
      "midi": 67,
      "hit": false,
      "t": 246153.92000000144,
      "d": 1538.4619999999995,
      "v": 65
    },
    {
      "midi": 60,
      "hit": false,
      "t": 246153.92000000144,
      "d": 3076.923999999999,
      "v": 65
    },
    {
      "midi": 55,
      "hit": false,
      "t": 246522.50985416985,
      "d": 1169.8721458333603,
      "v": 84
    },
    {
      "midi": 67,
      "hit": false,
      "t": 246530.52267708653,
      "d": 248.39751041666023,
      "v": 84
    },
    {
      "midi": 62,
      "hit": false,
      "t": 246786.93301041986,
      "d": 536.8591354166856,
      "v": 101
    },
    {
      "midi": 74,
      "hit": false,
      "t": 246786.93301041986,
      "d": 536.8591354166856,
      "v": 114
    },
    {
      "midi": 60,
      "hit": false,
      "t": 247315.77932291987,
      "d": 761.2181770833558,
      "v": 95
    },
    {
      "midi": 72,
      "hit": false,
      "t": 247315.77932291987,
      "d": 801.2822916666919,
      "v": 101
    },
    {
      "midi": 55,
      "hit": false,
      "t": 247692.38200000144,
      "d": 1538.4619999999995,
      "v": 68
    },
    {
      "midi": 64,
      "hit": false,
      "t": 247692.38200000144,
      "d": 1538.4619999999995,
      "v": 68
    },
    {
      "midi": 55,
      "hit": false,
      "t": 248076.99750000323,
      "d": 1073.718270833342,
      "v": 86
    },
    {
      "midi": 67,
      "hit": false,
      "t": 248093.02314583657,
      "d": 200.32057291665114,
      "v": 90
    },
    {
      "midi": 74,
      "hit": false,
      "t": 248309.36936458657,
      "d": 584.9360729166656,
      "v": 108
    },
    {
      "midi": 62,
      "hit": false,
      "t": 248317.38218750324,
      "d": 568.9104270833195,
      "v": 105
    },
    {
      "midi": 60,
      "hit": false,
      "t": 248886.29261458656,
      "d": 713.1412395833468,
      "v": 95
    },
    {
      "midi": 72,
      "hit": false,
      "t": 248894.30543750324,
      "d": 729.1668854166637,
      "v": 101
    },
    {
      "midi": 62,
      "hit": false,
      "t": 249230.84400000144,
      "d": 1530.4491770833265,
      "v": 67
    },
    {
      "midi": 57,
      "hit": false,
      "t": 249230.84400000144,
      "d": 1538.4619999999995,
      "v": 67
    },
    {
      "midi": 65,
      "hit": false,
      "t": 249230.84400000144,
      "d": 3076.923999999999,
      "v": 67
    },
    {
      "midi": 65,
      "hit": false,
      "t": 249623.4723229199,
      "d": 240.3846875000163,
      "v": 86
    },
    {
      "midi": 53,
      "hit": false,
      "t": 249631.48514583657,
      "d": 1089.7439166666882,
      "v": 81
    },
    {
      "midi": 74,
      "hit": false,
      "t": 249863.85701041992,
      "d": 512.8206666666665,
      "v": 108
    },
    {
      "midi": 62,
      "hit": false,
      "t": 249879.88265625326,
      "d": 520.8334895833395,
      "v": 105
    },
    {
      "midi": 60,
      "hit": false,
      "t": 250392.70332291993,
      "d": 745.1925312500098,
      "v": 92
    },
    {
      "midi": 72,
      "hit": false,
      "t": 250392.70332291993,
      "d": 777.2438229166728,
      "v": 101
    },
    {
      "midi": 62,
      "hit": false,
      "t": 250769.30600000144,
      "d": 1538.4619999999995,
      "v": 65
    },
    {
      "midi": 69,
      "hit": false,
      "t": 250769.30600000144,
      "d": 1538.4619999999995,
      "v": 65
    },
    {
      "midi": 53,
      "hit": false,
      "t": 251161.93432291993,
      "d": 841.3464062500279,
      "v": 83
    },
    {
      "midi": 65,
      "hit": false,
      "t": 251169.9471458366,
      "d": 176.28210416666116,
      "v": 83
    },
    {
      "midi": 74,
      "hit": false,
      "t": 251362.2548958366,
      "d": 560.8976041666756,
      "v": 105
    },
    {
      "midi": 62,
      "hit": false,
      "t": 251378.28054166996,
      "d": 552.8847812500026,
      "v": 95
    },
    {
      "midi": 72,
      "hit": false,
      "t": 251931.16532291996,
      "d": 793.2694687500189,
      "v": 105
    },
    {
      "midi": 60,
      "hit": false,
      "t": 251939.17814583663,
      "d": 737.1797083333367,
      "v": 95
    },
    {
      "midi": 64,
      "hit": false,
      "t": 252307.76800000144,
      "d": 1530.4491770833265,
      "v": 63
    },
    {
      "midi": 67,
      "hit": false,
      "t": 252307.76800000144,
      "d": 1530.4491770833265,
      "v": 63
    },
    {
      "midi": 71,
      "hit": false,
      "t": 252307.76800000144,
      "d": 1538.4619999999995,
      "v": 63
    },
    {
      "midi": 55,
      "hit": false,
      "t": 252708.40914583663,
      "d": 873.3976979167201,
      "v": 86
    },
    {
      "midi": 67,
      "hit": false,
      "t": 252716.4219687533,
      "d": 200.32057291668025,
      "v": 81
    },
    {
      "midi": 74,
      "hit": false,
      "t": 252924.75536458666,
      "d": 552.8847812500317,
      "v": 105
    },
    {
      "midi": 62,
      "hit": false,
      "t": 252932.76818750333,
      "d": 528.8463125000126,
      "v": 101
    },
    {
      "midi": 60,
      "hit": false,
      "t": 253477.6401458367,
      "d": 753.2053541666537,
      "v": 95
    },
    {
      "midi": 72,
      "hit": false,
      "t": 253477.6401458367,
      "d": 801.2822916666628,
      "v": 95
    },
    {
      "midi": 60,
      "hit": false,
      "t": 253846.23000000144,
      "d": 1538.4619999999995,
      "v": 67
    },
    {
      "midi": 64,
      "hit": false,
      "t": 253846.23000000144,
      "d": 1538.4619999999995,
      "v": 67
    },
    {
      "midi": 67,
      "hit": false,
      "t": 253846.23000000144,
      "d": 1538.4619999999995,
      "v": 67
    },
    {
      "midi": 55,
      "hit": false,
      "t": 254238.85832292002,
      "d": 392.62832291665836,
      "v": 81
    },
    {
      "midi": 67,
      "hit": false,
      "t": 254246.8711458367,
      "d": 200.32057291665114,
      "v": 81
    },
    {
      "midi": 74,
      "hit": false,
      "t": 254463.2173645867,
      "d": 552.8847812500026,
      "v": 105
    },
    {
      "midi": 62,
      "hit": false,
      "t": 254463.2173645867,
      "d": 584.9360729166656,
      "v": 101
    },
    {
      "midi": 72,
      "hit": false,
      "t": 255016.1021458367,
      "d": 777.2438229166728,
      "v": 101
    },
    {
      "midi": 60,
      "hit": false,
      "t": 255024.11496875336,
      "d": 737.1797083333367,
      "v": 101
    },
    {
      "midi": 62,
      "hit": false,
      "t": 255384.69200000144,
      "d": 1530.4491770833265,
      "v": 66
    },
    {
      "midi": 65,
      "hit": false,
      "t": 255384.69200000144,
      "d": 1530.4491770833265,
      "v": 66
    },
    {
      "midi": 57,
      "hit": false,
      "t": 255384.69200000144,
      "d": 1538.4619999999995,
      "v": 66
    },
    {
      "midi": 65,
      "hit": false,
      "t": 255793.34596875336,
      "d": 216.3462187500263,
      "v": 77
    },
    {
      "midi": 53,
      "hit": false,
      "t": 255809.3716145867,
      "d": 248.39751041671843,
      "v": 72
    },
    {
      "midi": 74,
      "hit": false,
      "t": 256025.71783333673,
      "d": 536.8591354166856,
      "v": 108
    },
    {
      "midi": 62,
      "hit": false,
      "t": 256041.74347917008,
      "d": 512.8206666666665,
      "v": 105
    },
    {
      "midi": 60,
      "hit": false,
      "t": 256554.56414583675,
      "d": 729.1668854166637,
      "v": 92
    },
    {
      "midi": 72,
      "hit": false,
      "t": 256554.56414583675,
      "d": 793.2694687500189,
      "v": 98
    },
    {
      "midi": 62,
      "hit": false,
      "t": 256923.15400000144,
      "d": 1538.4619999999995,
      "v": 66
    },
    {
      "midi": 65,
      "hit": false,
      "t": 256923.15400000144,
      "d": 1538.4619999999995,
      "v": 66
    },
    {
      "midi": 69,
      "hit": false,
      "t": 256923.15400000144,
      "d": 1538.4619999999995,
      "v": 66
    },
    {
      "midi": 65,
      "hit": false,
      "t": 257315.78232292007,
      "d": 216.3462187500263,
      "v": 84
    },
    {
      "midi": 53,
      "hit": false,
      "t": 257331.80796875342,
      "d": 240.3846875000163,
      "v": 75
    },
    {
      "midi": 74,
      "hit": false,
      "t": 257540.14136458677,
      "d": 552.8847812500026,
      "v": 108
    },
    {
      "midi": 62,
      "hit": false,
      "t": 257548.15418750345,
      "d": 544.8719583333295,
      "v": 105
    },
    {
      "midi": 60,
      "hit": false,
      "t": 258093.02614583677,
      "d": 737.1797083333367,
      "v": 92
    },
    {
      "midi": 72,
      "hit": false,
      "t": 258093.02614583677,
      "d": 745.1925312500098,
      "v": 98
    },
    {
      "midi": 60,
      "hit": false,
      "t": 258461.61600000144,
      "d": 769.2309999999998,
      "v": 65
    },
    {
      "midi": 64,
      "hit": false,
      "t": 258461.61600000144,
      "d": 1530.4491770833265,
      "v": 65
    },
    {
      "midi": 67,
      "hit": false,
      "t": 258461.61600000144,
      "d": 1538.4619999999995,
      "v": 65
    },
    {
      "midi": 67,
      "hit": false,
      "t": 258838.21867708678,
      "d": 224.35904166667024,
      "v": 90
    },
    {
      "midi": 55,
      "hit": false,
      "t": 258838.21867708678,
      "d": 232.37186458334327,
      "v": 86
    },
    {
      "midi": 74,
      "hit": false,
      "t": 259078.6033645868,
      "d": 544.8719583333295,
      "v": 105
    },
    {
      "midi": 62,
      "hit": false,
      "t": 259078.6033645868,
      "d": 552.8847812500026,
      "v": 95
    },
    {
      "midi": 60,
      "hit": false,
      "t": 259623.47532292013,
      "d": 721.1540625000198,
      "v": 92
    },
    {
      "midi": 72,
      "hit": false,
      "t": 259631.4881458368,
      "d": 769.2310000000289,
      "v": 101
    },
    {
      "midi": 55,
      "hit": false,
      "t": 260000.07800000143,
      "d": 1538.4619999999995,
      "v": 66
    },
    {
      "midi": 60,
      "hit": false,
      "t": 260000.07800000143,
      "d": 1538.4619999999995,
      "v": 66
    },
    {
      "midi": 64,
      "hit": false,
      "t": 260000.07800000143,
      "d": 1538.4619999999995,
      "v": 66
    },
    {
      "midi": 67,
      "hit": false,
      "t": 260376.6806770868,
      "d": 224.35904166669934,
      "v": 92
    },
    {
      "midi": 55,
      "hit": false,
      "t": 260392.70632292016,
      "d": 200.32057291668025,
      "v": 88
    },
    {
      "midi": 74,
      "hit": false,
      "t": 260601.0397187535,
      "d": 552.8847812500026,
      "v": 105
    },
    {
      "midi": 62,
      "hit": false,
      "t": 260609.0525416702,
      "d": 584.9360729166656,
      "v": 101
    },
    {
      "midi": 72,
      "hit": false,
      "t": 261177.9629687535,
      "d": 416.66679166670656,
      "v": 83
    },
    {
      "midi": 60,
      "hit": false,
      "t": 261193.98861458685,
      "d": 344.5513854166784,
      "v": 86
    },
    {
      "midi": 36,
      "hit": false,
      "t": 261522.51435417018,
      "d": 400.6411458333896,
      "v": 84
    },
    {
      "midi": 53,
      "hit": false,
      "t": 261538.54000000353,
      "d": 216.3462187500263,
      "v": 80
    },
    {
      "midi": 58,
      "hit": false,
      "t": 261538.54000000353,
      "d": 224.35904166669934,
      "v": 84
    },
    {
      "midi": 60,
      "hit": false,
      "t": 261546.5528229202,
      "d": 200.32057291668025,
      "v": 88
    },
    {
      "midi": 58,
      "hit": false,
      "t": 261939.18114583692,
      "d": 352.5642083333514,
      "v": 84
    },
    {
      "midi": 48,
      "hit": false,
      "t": 261939.18114583692,
      "d": 360.57703125002445,
      "v": 77
    },
    {
      "midi": 53,
      "hit": false,
      "t": 261939.18114583692,
      "d": 360.57703125002445,
      "v": 80
    },
    {
      "midi": 60,
      "hit": false,
      "t": 261947.1939687536,
      "d": 336.53856250000536,
      "v": 88
    },
    {
      "midi": 36,
      "hit": false,
      "t": 262323.79664583696,
      "d": 344.5513854166493,
      "v": 73
    },
    {
      "midi": 53,
      "hit": false,
      "t": 262700.3993229203,
      "d": 408.6539687500335,
      "v": 75
    },
    {
      "midi": 48,
      "hit": false,
      "t": 262708.412145837,
      "d": 352.5642083333223,
      "v": 83
    },
    {
      "midi": 60,
      "hit": false,
      "t": 262708.412145837,
      "d": 384.61550000001444,
      "v": 74
    },
    {
      "midi": 58,
      "hit": false,
      "t": 262708.412145837,
      "d": 392.62832291668747,
      "v": 83
    },
    {
      "midi": 36,
      "hit": false,
      "t": 263093.027645837,
      "d": 368.5898541666684,
      "v": 72
    },
    {
      "midi": 53,
      "hit": false,
      "t": 263469.63032292033,
      "d": 312.50009375001537,
      "v": 81
    },
    {
      "midi": 58,
      "hit": false,
      "t": 263477.643145837,
      "d": 304.48727083334234,
      "v": 88
    },
    {
      "midi": 60,
      "hit": false,
      "t": 263477.643145837,
      "d": 320.5129166666884,
      "v": 81
    },
    {
      "midi": 48,
      "hit": false,
      "t": 263477.643145837,
      "d": 352.5642083333805,
      "v": 83
    },
    {
      "midi": 36,
      "hit": false,
      "t": 263830.2073541704,
      "d": 304.48727083334234,
      "v": 84
    },
    {
      "midi": 58,
      "hit": false,
      "t": 264230.84850000375,
      "d": 112.17952083336422,
      "v": 83
    },
    {
      "midi": 53,
      "hit": false,
      "t": 264230.84850000375,
      "d": 136.21798958338331,
      "v": 81
    },
    {
      "midi": 60,
      "hit": false,
      "t": 264238.8613229204,
      "d": 136.21798958338331,
      "v": 78
    },
    {
      "midi": 48,
      "hit": false,
      "t": 264238.8613229204,
      "d": 296.4744479167275,
      "v": 77
    },
    {
      "midi": 56,
      "hit": false,
      "t": 264599.4383541705,
      "d": 128.20516666665208,
      "v": 88
    },
    {
      "midi": 60,
      "hit": false,
      "t": 264599.4383541705,
      "d": 128.20516666665208,
      "v": 84
    },
    {
      "midi": 51,
      "hit": false,
      "t": 264599.4383541705,
      "d": 160.2564583333442,
      "v": 76
    },
    {
      "midi": 36,
      "hit": false,
      "t": 264599.4383541705,
      "d": 304.48727083334234,
      "v": 81
    },
    {
      "midi": 48,
      "hit": false,
      "t": 264984.0538541705,
      "d": 312.50009375001537,
      "v": 78
    },
    {
      "midi": 51,
      "hit": false,
      "t": 264984.0538541705,
      "d": 376.6026770833414,
      "v": 83
    },
    {
      "midi": 56,
      "hit": false,
      "t": 264992.06667708716,
      "d": 344.5513854166493,
      "v": 90
    },
    {
      "midi": 60,
      "hit": false,
      "t": 265008.0923229205,
      "d": 360.57703124999534,
      "v": 83
    },
    {
      "midi": 36,
      "hit": false,
      "t": 265368.6693541705,
      "d": 384.61550000001444,
      "v": 75
    },
    {
      "midi": 56,
      "hit": false,
      "t": 265753.2848541705,
      "d": 400.6411458333605,
      "v": 88
    },
    {
      "midi": 51,
      "hit": false,
      "t": 265753.2848541705,
      "d": 416.66679166670656,
      "v": 83
    },
    {
      "midi": 48,
      "hit": false,
      "t": 265761.2976770872,
      "d": 352.5642083333223,
      "v": 78
    },
    {
      "midi": 60,
      "hit": false,
      "t": 265761.2976770872,
      "d": 376.6026770833414,
      "v": 84
    },
    {
      "midi": 36,
      "hit": false,
      "t": 266137.90035417053,
      "d": 336.53856250003446,
      "v": 70
    },
    {
      "midi": 56,
      "hit": false,
      "t": 266522.51585417055,
      "d": 376.6026770833996,
      "v": 88
    },
    {
      "midi": 51,
      "hit": false,
      "t": 266522.51585417055,
      "d": 384.61550000007264,
      "v": 76
    },
    {
      "midi": 48,
      "hit": false,
      "t": 266530.5286770872,
      "d": 344.5513854167075,
      "v": 72
    },
    {
      "midi": 60,
      "hit": false,
      "t": 266554.56714583724,
      "d": 336.53856250003446,
      "v": 72
    },
    {
      "midi": 36,
      "hit": false,
      "t": 266907.1313541706,
      "d": 352.5642083333223,
      "v": 77
    },
    {
      "midi": 51,
      "hit": false,
      "t": 267291.74685417063,
      "d": 96.15387500001816,
      "v": 78
    },
    {
      "midi": 56,
      "hit": false,
      "t": 267291.74685417063,
      "d": 112.17952083336422,
      "v": 84
    },
    {
      "midi": 48,
      "hit": false,
      "t": 267299.7596770873,
      "d": 312.50009375001537,
      "v": 75
    },
    {
      "midi": 60,
      "hit": false,
      "t": 267307.772500004,
      "d": 64.10258333332604,
      "v": 75
    },
    {
      "midi": 36,
      "hit": false,
      "t": 267668.34953125403,
      "d": 368.5898541667266,
      "v": 72
    },
    {
      "midi": 53,
      "hit": false,
      "t": 267676.3623541707,
      "d": 104.16669791669119,
      "v": 88
    },
    {
      "midi": 57,
      "hit": false,
      "t": 267676.3623541707,
      "d": 128.20516666671028,
      "v": 84
    },
    {
      "midi": 60,
      "hit": false,
      "t": 267692.38800000405,
      "d": 112.17952083336422,
      "v": 78
    },
    {
      "midi": 48,
      "hit": false,
      "t": 268068.99067708745,
      "d": 376.6026770833414,
      "v": 84
    },
    {
      "midi": 57,
      "hit": false,
      "t": 268085.0163229208,
      "d": 328.5257395833032,
      "v": 95
    },
    {
      "midi": 60,
      "hit": false,
      "t": 268085.0163229208,
      "d": 328.5257395833032,
      "v": 86
    },
    {
      "midi": 53,
      "hit": false,
      "t": 268085.0163229208,
      "d": 336.53856249997625,
      "v": 86
    },
    {
      "midi": 36,
      "hit": false,
      "t": 268445.5933541708,
      "d": 384.61550000001444,
      "v": 80
    },
    {
      "midi": 60,
      "hit": false,
      "t": 268846.23450000415,
      "d": 384.61550000001444,
      "v": 81
    },
    {
      "midi": 48,
      "hit": false,
      "t": 268854.2473229208,
      "d": 384.61550000001444,
      "v": 80
    },
    {
      "midi": 57,
      "hit": false,
      "t": 268854.2473229208,
      "d": 392.62832291668747,
      "v": 98
    },
    {
      "midi": 53,
      "hit": false,
      "t": 268862.2601458375,
      "d": 384.61550000001444,
      "v": 83
    },
    {
      "midi": 36,
      "hit": false,
      "t": 269230.85000000417,
      "d": 368.5898541666684,
      "v": 74
    },
    {
      "midi": 57,
      "hit": false,
      "t": 269607.4526770875,
      "d": 408.6539687500335,
      "v": 95
    },
    {
      "midi": 48,
      "hit": false,
      "t": 269615.4655000042,
      "d": 360.57703124999534,
      "v": 78
    },
    {
      "midi": 53,
      "hit": false,
      "t": 269615.4655000042,
      "d": 424.6796145833796,
      "v": 83
    },
    {
      "midi": 60,
      "hit": false,
      "t": 269615.4655000042,
      "d": 432.6924375000526,
      "v": 86
    },
    {
      "midi": 36,
      "hit": false,
      "t": 269984.05535417085,
      "d": 384.61550000007264,
      "v": 81
    },
    {
      "midi": 53,
      "hit": false,
      "t": 270376.6836770876,
      "d": 112.17952083336422,
      "v": 80
    },
    {
      "midi": 57,
      "hit": false,
      "t": 270384.69650000427,
      "d": 80.1282291666721,
      "v": 92
    },
    {
      "midi": 48,
      "hit": false,
      "t": 270392.70932292094,
      "d": 296.4744479166693,
      "v": 83
    },
    {
      "midi": 60,
      "hit": false,
      "t": 270400.7221458376,
      "d": 72.11540624999907,
      "v": 83
    },
    {
      "midi": 36,
      "hit": false,
      "t": 270753.28635417094,
      "d": 384.61550000001444,
      "v": 88
    },
    {
      "midi": 58,
      "hit": false,
      "t": 270761.2991770876,
      "d": 104.16669791669119,
      "v": 83
    },
    {
      "midi": 53,
      "hit": false,
      "t": 270769.3120000043,
      "d": 104.16669791669119,
      "v": 90
    },
    {
      "midi": 60,
      "hit": false,
      "t": 270777.32482292096,
      "d": 128.20516666671028,
      "v": 75
    },
    {
      "midi": 58,
      "hit": false,
      "t": 271145.9146770876,
      "d": 376.6026770833414,
      "v": 88
    },
    {
      "midi": 48,
      "hit": false,
      "t": 271153.9275000043,
      "d": 344.5513854166493,
      "v": 81
    },
    {
      "midi": 53,
      "hit": false,
      "t": 271153.9275000043,
      "d": 376.6026770833414,
      "v": 84
    },
    {
      "midi": 60,
      "hit": false,
      "t": 271153.9275000043,
      "d": 376.6026770833414,
      "v": 84
    },
    {
      "midi": 36,
      "hit": false,
      "t": 271522.51735417097,
      "d": 376.6026770833414,
      "v": 84
    },
    {
      "midi": 48,
      "hit": false,
      "t": 271907.132854171,
      "d": 384.61550000001444,
      "v": 86
    },
    {
      "midi": 58,
      "hit": false,
      "t": 271915.14567708765,
      "d": 392.62832291668747,
      "v": 90
    },
    {
      "midi": 53,
      "hit": false,
      "t": 271915.14567708765,
      "d": 400.6411458333605,
      "v": 84
    },
    {
      "midi": 60,
      "hit": false,
      "t": 271915.14567708765,
      "d": 408.6539687500335,
      "v": 80
    },
    {
      "midi": 36,
      "hit": false,
      "t": 272291.748354171,
      "d": 352.5642083333805,
      "v": 76
    },
    {
      "midi": 53,
      "hit": false,
      "t": 272676.36385417107,
      "d": 328.5257395833614,
      "v": 77
    },
    {
      "midi": 48,
      "hit": false,
      "t": 272676.36385417107,
      "d": 336.53856250003446,
      "v": 86
    },
    {
      "midi": 58,
      "hit": false,
      "t": 272676.36385417107,
      "d": 352.5642083333805,
      "v": 88
    },
    {
      "midi": 60,
      "hit": false,
      "t": 272676.36385417107,
      "d": 352.5642083333805,
      "v": 80
    },
    {
      "midi": 36,
      "hit": false,
      "t": 273060.97935417114,
      "d": 288.4616249999963,
      "v": 86
    },
    {
      "midi": 53,
      "hit": false,
      "t": 273445.59485417116,
      "d": 96.15387500001816,
      "v": 86
    },
    {
      "midi": 60,
      "hit": false,
      "t": 273445.59485417116,
      "d": 104.16669791669119,
      "v": 84
    },
    {
      "midi": 58,
      "hit": false,
      "t": 273445.59485417116,
      "d": 112.17952083336422,
      "v": 92
    },
    {
      "midi": 48,
      "hit": false,
      "t": 273445.59485417116,
      "d": 144.23081250005635,
      "v": 90
    },
    {
      "midi": 51,
      "hit": false,
      "t": 273822.19753125455,
      "d": 104.16669791669119,
      "v": 88
    },
    {
      "midi": 36,
      "hit": false,
      "t": 273822.19753125455,
      "d": 328.5257395833614,
      "v": 84
    },
    {
      "midi": 60,
      "hit": false,
      "t": 273830.2103541712,
      "d": 72.11540624999907,
      "v": 67
    },
    {
      "midi": 56,
      "hit": false,
      "t": 273830.2103541712,
      "d": 80.1282291666721,
      "v": 83
    },
    {
      "midi": 48,
      "hit": false,
      "t": 274206.81303125457,
      "d": 288.4616249999963,
      "v": 81
    },
    {
      "midi": 51,
      "hit": false,
      "t": 274206.81303125457,
      "d": 360.57703125005355,
      "v": 83
    },
    {
      "midi": 56,
      "hit": false,
      "t": 274214.82585417124,
      "d": 304.48727083334234,
      "v": 90
    },
    {
      "midi": 60,
      "hit": false,
      "t": 274214.82585417124,
      "d": 320.5129166666884,
      "v": 90
    },
    {
      "midi": 36,
      "hit": false,
      "t": 274575.4028854213,
      "d": 376.6026770833414,
      "v": 73
    },
    {
      "midi": 51,
      "hit": false,
      "t": 274968.031208338,
      "d": 344.5513854167075,
      "v": 84
    },
    {
      "midi": 56,
      "hit": false,
      "t": 274976.04403125466,
      "d": 320.5129166666884,
      "v": 90
    },
    {
      "midi": 60,
      "hit": false,
      "t": 274984.05685417133,
      "d": 280.44880208332324,
      "v": 77
    },
    {
      "midi": 48,
      "hit": false,
      "t": 274984.05685417133,
      "d": 312.50009375001537,
      "v": 86
    },
    {
      "midi": 36,
      "hit": false,
      "t": 275352.646708338,
      "d": 376.6026770833414,
      "v": 75
    },
    {
      "midi": 56,
      "hit": false,
      "t": 275745.2750312547,
      "d": 336.53856249997625,
      "v": 88
    },
    {
      "midi": 51,
      "hit": false,
      "t": 275745.2750312547,
      "d": 344.5513854166493,
      "v": 83
    },
    {
      "midi": 60,
      "hit": false,
      "t": 275753.28785417136,
      "d": 272.4359791666502,
      "v": 80
    },
    {
      "midi": 48,
      "hit": false,
      "t": 275753.28785417136,
      "d": 352.5642083333223,
      "v": 81
    },
    {
      "midi": 36,
      "hit": false,
      "t": 276113.86488542135,
      "d": 368.5898541666684,
      "v": 78
    },
    {
      "midi": 51,
      "hit": false,
      "t": 276506.49320833804,
      "d": 112.17952083336422,
      "v": 84
    },
    {
      "midi": 56,
      "hit": false,
      "t": 276506.49320833804,
      "d": 160.2564583333442,
      "v": 88
    },
    {
      "midi": 60,
      "hit": false,
      "t": 276514.5060312547,
      "d": 160.2564583333442,
      "v": 81
    },
    {
      "midi": 48,
      "hit": false,
      "t": 276514.5060312547,
      "d": 360.57703124999534,
      "v": 83
    },
    {
      "midi": 36,
      "hit": false,
      "t": 276891.10870833806,
      "d": 400.6411458333605,
      "v": 86
    },
    {
      "midi": 53,
      "hit": false,
      "t": 276907.1343541714,
      "d": 64.10258333332604,
      "v": 80
    },
    {
      "midi": 60,
      "hit": false,
      "t": 276907.1343541714,
      "d": 88.14105208334513,
      "v": 75
    },
    {
      "midi": 57,
      "hit": false,
      "t": 276907.1343541714,
      "d": 96.15387500001816,
      "v": 86
    },
    {
      "midi": 48,
      "hit": false,
      "t": 277291.7498541714,
      "d": 312.50009375001537,
      "v": 86
    },
    {
      "midi": 53,
      "hit": false,
      "t": 277291.7498541714,
      "d": 376.6026770833414,
      "v": 92
    },
    {
      "midi": 57,
      "hit": false,
      "t": 277291.7498541714,
      "d": 384.61550000001444,
      "v": 95
    },
    {
      "midi": 60,
      "hit": false,
      "t": 277291.7498541714,
      "d": 384.61550000001444,
      "v": 84
    },
    {
      "midi": 36,
      "hit": false,
      "t": 277668.35253125476,
      "d": 408.6539687500335,
      "v": 77
    },
    {
      "midi": 48,
      "hit": false,
      "t": 278060.98085417144,
      "d": 384.61550000001444,
      "v": 84
    },
    {
      "midi": 57,
      "hit": false,
      "t": 278060.98085417144,
      "d": 384.61550000001444,
      "v": 101
    },
    {
      "midi": 60,
      "hit": false,
      "t": 278060.98085417144,
      "d": 384.61550000001444,
      "v": 76
    },
    {
      "midi": 53,
      "hit": false,
      "t": 278060.98085417144,
      "d": 408.6539687500335,
      "v": 83
    },
    {
      "midi": 36,
      "hit": false,
      "t": 278445.59635417146,
      "d": 360.57703124999534,
      "v": 80
    },
    {
      "midi": 57,
      "hit": false,
      "t": 278830.2118541715,
      "d": 368.5898541666684,
      "v": 98
    },
    {
      "midi": 53,
      "hit": false,
      "t": 278830.2118541715,
      "d": 384.61550000001444,
      "v": 80
    },
    {
      "midi": 60,
      "hit": false,
      "t": 278830.2118541715,
      "d": 384.61550000001444,
      "v": 80
    },
    {
      "midi": 48,
      "hit": false,
      "t": 278830.2118541715,
      "d": 400.6411458333605,
      "v": 92
    },
    {
      "midi": 36,
      "hit": false,
      "t": 279206.8145312548,
      "d": 392.62832291668747,
      "v": 83
    },
    {
      "midi": 57,
      "hit": false,
      "t": 279599.4428541715,
      "d": 72.11540624999907,
      "v": 92
    },
    {
      "midi": 53,
      "hit": false,
      "t": 279599.4428541715,
      "d": 96.15387500001816,
      "v": 81
    },
    {
      "midi": 48,
      "hit": false,
      "t": 279599.4428541715,
      "d": 120.19234375003725,
      "v": 84
    },
    {
      "midi": 60,
      "hit": false,
      "t": 279607.4556770882,
      "d": 80.1282291666721,
      "v": 80
    },
    {
      "midi": 36,
      "hit": false,
      "t": 279984.0583541716,
      "d": 6113.783885416691,
      "v": 92
    },
    {
      "midi": 48,
      "hit": false,
      "t": 280000.0840000049,
      "d": 6081.732593749999,
      "v": 92
    },
    {
      "midi": 58,
      "hit": false,
      "t": 280000.0840000049,
      "d": 6105.771062500018,
      "v": 101
    },
    {
      "midi": 53,
      "hit": false,
      "t": 280008.0968229216,
      "d": 6049.681302083307,
      "v": 92
    },
    {
      "midi": 60,
      "hit": false,
      "t": 280008.0968229216,
      "d": 6089.745416666672,
      "v": 88
    }
  ]
}