{
  "jsonPath": "Classical/Classical/George Frideric Handel/hornpipe.json",
  "path": "Classical\\Classical\\George Frideric Handel\\Hornpipe.mid",
  "name": "Hornpipe",
  "difficulty": "Intermediate",
  "bpm": 130.00013000013,
  "notes": [
    {
      "midi": 69,
      "hit": false,
      "t": 0,
      "d": 923.0759999999999,
      "v": 100
    },
    {
      "midi": 50,
      "hit": false,
      "t": 0,
      "d": 1846.1519999999998,
      "v": 100
    },
    {
      "midi": 74,
      "hit": false,
      "t": 923.0759999999999,
      "d": 923.0759999999999,
      "v": 100
    },
    {
      "midi": 76,
      "hit": false,
      "t": 1846.1519999999998,
      "d": 923.0759999999998,
      "v": 100
    },
    {
      "midi": 57,
      "hit": false,
      "t": 1846.1519999999998,
      "d": 923.0759999999998,
      "v": 100
    },
    {
      "midi": 78,
      "hit": false,
      "t": 2769.2279999999996,
      "d": 461.538,
      "v": 100
    },
    {
      "midi": 62,
      "hit": false,
      "t": 2769.2279999999996,
      "d": 1384.614,
      "v": 100
    },
    {
      "midi": 74,
      "hit": false,
      "t": 3230.7659999999996,
      "d": 923.076,
      "v": 100
    },
    {
      "midi": 76,
      "hit": false,
      "t": 4153.842,
      "d": 461.53799999999956,
      "v": 100
    },
    {
      "midi": 78,
      "hit": false,
      "t": 4615.379999999999,
      "d": 461.53799999999956,
      "v": 100
    },
    {
      "midi": 62,
      "hit": false,
      "t": 4615.379999999999,
      "d": 923.076,
      "v": 100
    },
    {
      "midi": 74,
      "hit": false,
      "t": 5076.917999999999,
      "d": 461.53799999999956,
      "v": 100
    },
    {
      "midi": 76,
      "hit": false,
      "t": 5538.455999999998,
      "d": 461.53799999999956,
      "v": 100
    },
    {
      "midi": 57,
      "hit": false,
      "t": 5538.455999999999,
      "d": 1384.6139999999996,
      "v": 100
    },
    {
      "midi": 81,
      "hit": false,
      "t": 5999.993999999998,
      "d": 923.076,
      "v": 100
    },
    {
      "midi": 76,
      "hit": false,
      "t": 6923.069999999998,
      "d": 461.53799999999956,
      "v": 100
    },
    {
      "midi": 78,
      "hit": false,
      "t": 7384.607999999997,
      "d": 461.53799999999956,
      "v": 100
    },
    {
      "midi": 57,
      "hit": false,
      "t": 7384.607999999998,
      "d": 923.0759999999991,
      "v": 100
    },
    {
      "midi": 76,
      "hit": false,
      "t": 7846.145999999997,
      "d": 230.76900000000023,
      "v": 100
    },
    {
      "midi": 74,
      "hit": false,
      "t": 8076.914999999997,
      "d": 230.76900000000023,
      "v": 100
    },
    {
      "midi": 76,
      "hit": false,
      "t": 8307.683999999997,
      "d": 461.53800000000047,
      "v": 100
    },
    {
      "midi": 57,
      "hit": false,
      "t": 8307.683999999997,
      "d": 1384.6139999999996,
      "v": 100
    },
    {
      "midi": 81,
      "hit": false,
      "t": 8769.221999999998,
      "d": 923.0759999999991,
      "v": 100
    },
    {
      "midi": 76,
      "hit": false,
      "t": 9692.297999999997,
      "d": 461.53800000000047,
      "v": 100
    },
    {
      "midi": 78,
      "hit": false,
      "t": 10153.835999999998,
      "d": 461.53800000000047,
      "v": 100
    },
    {
      "midi": 57,
      "hit": false,
      "t": 10153.835999999998,
      "d": 923.0759999999991,
      "v": 100
    },
    {
      "midi": 76,
      "hit": false,
      "t": 10615.373999999998,
      "d": 230.76900000000023,
      "v": 100
    },
    {
      "midi": 74,
      "hit": false,
      "t": 10846.142999999998,
      "d": 230.76900000000023,
      "v": 100
    },
    {
      "midi": 57,
      "hit": false,
      "t": 11076.911999999997,
      "d": 923.0759999999991,
      "v": 100
    },
    {
      "midi": 76,
      "hit": false,
      "t": 11076.911999999998,
      "d": 461.53800000000047,
      "v": 100
    },
    {
      "midi": 69,
      "hit": false,
      "t": 11538.449999999999,
      "d": 461.53800000000047,
      "v": 100
    },
    {
      "midi": 81,
      "hit": false,
      "t": 12461.526,
      "d": 461.53800000000047,
      "v": 100
    },
    {
      "midi": 81,
      "hit": false,
      "t": 12923.064,
      "d": 461.53800000000047,
      "v": 100
    },
    {
      "midi": 81,
      "hit": false,
      "t": 13384.602,
      "d": 461.53800000000047,
      "v": 100
    },
    {
      "midi": 59,
      "hit": false,
      "t": 13846.139999999996,
      "d": 1846.152,
      "v": 100
    },
    {
      "midi": 81,
      "hit": false,
      "t": 13846.140000000001,
      "d": 461.53800000000047,
      "v": 100
    },
    {
      "midi": 79,
      "hit": false,
      "t": 14307.678000000002,
      "d": 230.76900000000023,
      "v": 100
    },
    {
      "midi": 78,
      "hit": false,
      "t": 14538.447000000002,
      "d": 230.76900000000023,
      "v": 100
    },
    {
      "midi": 79,
      "hit": false,
      "t": 14769.216000000002,
      "d": 461.53800000000047,
      "v": 100
    },
    {
      "midi": 79,
      "hit": false,
      "t": 15230.754000000003,
      "d": 461.53800000000047,
      "v": 100
    },
    {
      "midi": 59,
      "hit": false,
      "t": 15692.291999999996,
      "d": 923.0759999999991,
      "v": 100
    },
    {
      "midi": 79,
      "hit": false,
      "t": 15692.292000000003,
      "d": 461.53800000000047,
      "v": 100
    },
    {
      "midi": 79,
      "hit": false,
      "t": 16153.830000000004,
      "d": 461.53799999999865,
      "v": 100
    },
    {
      "midi": 57,
      "hit": false,
      "t": 16615.367999999995,
      "d": 1384.6140000000014,
      "v": 100
    },
    {
      "midi": 79,
      "hit": false,
      "t": 16615.368000000002,
      "d": 461.53800000000047,
      "v": 100
    },
    {
      "midi": 78,
      "hit": false,
      "t": 17076.906000000003,
      "d": 230.76900000000023,
      "v": 100
    },
    {
      "midi": 76,
      "hit": false,
      "t": 17307.675000000003,
      "d": 230.76900000000023,
      "v": 100
    },
    {
      "midi": 78,
      "hit": false,
      "t": 17538.444000000003,
      "d": 461.53800000000047,
      "v": 100
    },
    {
      "midi": 81,
      "hit": false,
      "t": 17999.982000000004,
      "d": 461.53800000000047,
      "v": 100
    },
    {
      "midi": 81,
      "hit": false,
      "t": 18461.520000000004,
      "d": 461.53800000000047,
      "v": 100
    },
    {
      "midi": 81,
      "hit": false,
      "t": 18923.058000000005,
      "d": 461.53800000000047,
      "v": 100
    },
    {
      "midi": 59,
      "hit": false,
      "t": 19384.595999999998,
      "d": 1846.1519999999982,
      "v": 100
    },
    {
      "midi": 81,
      "hit": false,
      "t": 19384.596000000005,
      "d": 461.53800000000047,
      "v": 100
    },
    {
      "midi": 79,
      "hit": false,
      "t": 19846.134000000005,
      "d": 230.76900000000023,
      "v": 100
    },
    {
      "midi": 78,
      "hit": false,
      "t": 20076.903000000006,
      "d": 230.76900000000023,
      "v": 100
    },
    {
      "midi": 79,
      "hit": false,
      "t": 20307.672000000006,
      "d": 461.53800000000047,
      "v": 100
    },
    {
      "midi": 79,
      "hit": false,
      "t": 20769.210000000006,
      "d": 461.53800000000047,
      "v": 100
    },
    {
      "midi": 59,
      "hit": false,
      "t": 21230.747999999996,
      "d": 923.0760000000009,
      "v": 100
    },
    {
      "midi": 79,
      "hit": false,
      "t": 21230.748000000007,
      "d": 461.53800000000047,
      "v": 100
    },
    {
      "midi": 79,
      "hit": false,
      "t": 21692.286000000007,
      "d": 461.53800000000047,
      "v": 100
    },
    {
      "midi": 52,
      "hit": false,
      "t": 22153.823999999997,
      "d": 923.0760000000009,
      "v": 100
    },
    {
      "midi": 79,
      "hit": false,
      "t": 22153.824000000008,
      "d": 1384.6140000000014,
      "v": 100
    },
    {
      "midi": 57,
      "hit": false,
      "t": 23076.899999999998,
      "d": 923.0760000000009,
      "v": 100
    },
    {
      "midi": 81,
      "hit": false,
      "t": 23538.43800000001,
      "d": 461.53800000000047,
      "v": 100
    },
    {
      "midi": 50,
      "hit": false,
      "t": 23999.976,
      "d": 923.0760000000009,
      "v": 100
    },
    {
      "midi": 78,
      "hit": false,
      "t": 23999.97600000001,
      "d": 461.53800000000047,
      "v": 100
    },
    {
      "midi": 76,
      "hit": false,
      "t": 24461.51400000001,
      "d": 461.53800000000047,
      "v": 100
    },
    {
      "midi": 78,
      "hit": false,
      "t": 24923.05200000001,
      "d": 461.53800000000047,
      "v": 100
    },
    {
      "midi": 79,
      "hit": false,
      "t": 25384.59000000001,
      "d": 461.53800000000047,
      "v": 100
    },
    {
      "midi": 45,
      "hit": false,
      "t": 25846.128,
      "d": 923.0760000000009,
      "v": 100
    },
    {
      "midi": 76,
      "hit": false,
      "t": 25846.12800000001,
      "d": 1384.6140000000014,
      "v": 100
    },
    {
      "midi": 45,
      "hit": false,
      "t": 26769.204,
      "d": 923.0760000000009,
      "v": 100
    },
    {
      "midi": 74,
      "hit": false,
      "t": 27230.742000000013,
      "d": 461.53800000000047,
      "v": 100
    },
    {
      "midi": 50,
      "hit": false,
      "t": 27692.280000000002,
      "d": 923.0760000000009,
      "v": 100
    },
    {
      "midi": 74,
      "hit": false,
      "t": 27692.280000000013,
      "d": 923.0760000000009,
      "v": 100
    },
    {
      "midi": 74,
      "hit": false,
      "t": 28615.356000000014,
      "d": 923.0760000000009,
      "v": 100
    },
    {
      "midi": 76,
      "hit": false,
      "t": 29538.432000000015,
      "d": 923.0760000000009,
      "v": 100
    },
    {
      "midi": 50,
      "hit": false,
      "t": 30461.508,
      "d": 923.0760000000009,
      "v": 100
    },
    {
      "midi": 78,
      "hit": false,
      "t": 30461.508000000016,
      "d": 461.53800000000047,
      "v": 100
    },
    {
      "midi": 74,
      "hit": false,
      "t": 30923.046000000017,
      "d": 923.0760000000009,
      "v": 100
    },
    {
      "midi": 76,
      "hit": false,
      "t": 31846.122000000018,
      "d": 461.53800000000047,
      "v": 100
    },
    {
      "midi": 78,
      "hit": false,
      "t": 32307.660000000018,
      "d": 461.53800000000047,
      "v": 100
    },
    {
      "midi": 74,
      "hit": false,
      "t": 32769.19800000002,
      "d": 461.53800000000047,
      "v": 100
    },
    {
      "midi": 45,
      "hit": false,
      "t": 33230.736000000004,
      "d": 923.0760000000009,
      "v": 100
    },
    {
      "midi": 76,
      "hit": false,
      "t": 33230.73600000002,
      "d": 461.53800000000047,
      "v": 100
    },
    {
      "midi": 81,
      "hit": false,
      "t": 33692.27400000002,
      "d": 923.0760000000009,
      "v": 100
    },
    {
      "midi": 76,
      "hit": false,
      "t": 34615.35000000002,
      "d": 461.53800000000047,
      "v": 100
    },
    {
      "midi": 78,
      "hit": false,
      "t": 35076.88800000002,
      "d": 461.53800000000047,
      "v": 100
    },
    {
      "midi": 76,
      "hit": false,
      "t": 35538.42600000002,
      "d": 230.76900000000023,
      "v": 100
    },
    {
      "midi": 74,
      "hit": false,
      "t": 35769.19500000002,
      "d": 230.76900000000023,
      "v": 100
    },
    {
      "midi": 45,
      "hit": false,
      "t": 35999.96400000001,
      "d": 923.0760000000009,
      "v": 100
    },
    {
      "midi": 76,
      "hit": false,
      "t": 35999.96400000002,
      "d": 461.53800000000047,
      "v": 100
    },
    {
      "midi": 81,
      "hit": false,
      "t": 36461.50200000002,
      "d": 923.0760000000009,
      "v": 100
    },
    {
      "midi": 76,
      "hit": false,
      "t": 37384.57800000002,
      "d": 461.53800000000047,
      "v": 100
    },
    {
      "midi": 76,
      "hit": false,
      "t": 37846.11600000002,
      "d": 461.53800000000047,
      "v": 100
    },
    {
      "midi": 69,
      "hit": false,
      "t": 38307.654000000024,
      "d": 461.53800000000047,
      "v": 100
    },
    {
      "midi": 50,
      "hit": false,
      "t": 38769.19200000001,
      "d": 1846.1520000000019,
      "v": 100
    },
    {
      "midi": 69,
      "hit": false,
      "t": 38769.192000000025,
      "d": 923.0760000000009,
      "v": 100
    },
    {
      "midi": 74,
      "hit": false,
      "t": 39692.268000000025,
      "d": 923.0760000000009,
      "v": 100
    },
    {
      "midi": 45,
      "hit": false,
      "t": 40615.34400000001,
      "d": 923.0760000000009,
      "v": 100
    },
    {
      "midi": 76,
      "hit": false,
      "t": 40615.34400000003,
      "d": 923.0760000000009,
      "v": 100
    },
    {
      "midi": 50,
      "hit": false,
      "t": 41538.42000000001,
      "d": 1384.6140000000014,
      "v": 100
    },
    {
      "midi": 78,
      "hit": false,
      "t": 41538.42000000003,
      "d": 461.53800000000047,
      "v": 100
    },
    {
      "midi": 74,
      "hit": false,
      "t": 41999.95800000003,
      "d": 923.0760000000009,
      "v": 100
    },
    {
      "midi": 76,
      "hit": false,
      "t": 42923.03400000003,
      "d": 461.53800000000047,
      "v": 100
    },
    {
      "midi": 50,
      "hit": false,
      "t": 43384.572000000015,
      "d": 923.0760000000009,
      "v": 100
    },
    {
      "midi": 78,
      "hit": false,
      "t": 43384.57200000003,
      "d": 461.53800000000047,
      "v": 100
    },
    {
      "midi": 74,
      "hit": false,
      "t": 43846.11000000003,
      "d": 461.53800000000047,
      "v": 100
    },
    {
      "midi": 45,
      "hit": false,
      "t": 44307.648000000016,
      "d": 1384.6140000000014,
      "v": 100
    },
    {
      "midi": 76,
      "hit": false,
      "t": 44307.64800000003,
      "d": 461.53800000000047,
      "v": 100
    },
    {
      "midi": 81,
      "hit": false,
      "t": 44769.18600000003,
      "d": 923.0760000000009,
      "v": 100
    },
    {
      "midi": 76,
      "hit": false,
      "t": 45692.26200000003,
      "d": 461.53800000000047,
      "v": 100
    },
    {
      "midi": 45,
      "hit": false,
      "t": 46153.80000000002,
      "d": 923.0760000000009,
      "v": 100
    },
    {
      "midi": 78,
      "hit": false,
      "t": 46153.80000000003,
      "d": 461.53800000000047,
      "v": 100
    },
    {
      "midi": 76,
      "hit": false,
      "t": 46615.33800000003,
      "d": 230.76900000000023,
      "v": 100
    },
    {
      "midi": 74,
      "hit": false,
      "t": 46846.10700000003,
      "d": 230.76900000000023,
      "v": 100
    },
    {
      "midi": 45,
      "hit": false,
      "t": 47076.87600000002,
      "d": 1384.6140000000014,
      "v": 100
    },
    {
      "midi": 76,
      "hit": false,
      "t": 47076.87600000003,
      "d": 461.53800000000047,
      "v": 100
    },
    {
      "midi": 81,
      "hit": false,
      "t": 47538.41400000003,
      "d": 923.0760000000009,
      "v": 100
    },
    {
      "midi": 81,
      "hit": false,
      "t": 48461.490000000034,
      "d": 461.53800000000047,
      "v": 100
    },
    {
      "midi": 81,
      "hit": false,
      "t": 48923.028000000035,
      "d": 461.53800000000047,
      "v": 100
    },
    {
      "midi": 81,
      "hit": false,
      "t": 49384.566000000035,
      "d": 461.53800000000047,
      "v": 100
    },
    {
      "midi": 59,
      "hit": false,
      "t": 49846.10400000002,
      "d": 1846.1520000000019,
      "v": 100
    },
    {
      "midi": 81,
      "hit": false,
      "t": 49846.104000000036,
      "d": 461.53800000000047,
      "v": 100
    },
    {
      "midi": 79,
      "hit": false,
      "t": 50307.642000000036,
      "d": 230.76900000000023,
      "v": 100
    },
    {
      "midi": 78,
      "hit": false,
      "t": 50538.41100000004,
      "d": 230.76900000000023,
      "v": 100
    },
    {
      "midi": 79,
      "hit": false,
      "t": 50769.18000000004,
      "d": 461.53800000000047,
      "v": 100
    },
    {
      "midi": 79,
      "hit": false,
      "t": 51230.71800000004,
      "d": 461.53800000000047,
      "v": 100
    },
    {
      "midi": 52,
      "hit": false,
      "t": 51692.25600000002,
      "d": 923.0760000000009,
      "v": 100
    },
    {
      "midi": 79,
      "hit": false,
      "t": 51692.25600000004,
      "d": 461.53800000000047,
      "v": 100
    },
    {
      "midi": 79,
      "hit": false,
      "t": 52153.79400000004,
      "d": 461.53800000000047,
      "v": 100
    },
    {
      "midi": 57,
      "hit": false,
      "t": 52615.332000000024,
      "d": 923.0760000000009,
      "v": 100
    },
    {
      "midi": 79,
      "hit": false,
      "t": 52615.33200000004,
      "d": 461.53800000000047,
      "v": 100
    },
    {
      "midi": 78,
      "hit": false,
      "t": 53076.87000000004,
      "d": 230.76900000000023,
      "v": 100
    },
    {
      "midi": 76,
      "hit": false,
      "t": 53307.63900000004,
      "d": 230.76900000000023,
      "v": 100
    },
    {
      "midi": 50,
      "hit": false,
      "t": 53538.408000000025,
      "d": 923.0760000000009,
      "v": 100
    },
    {
      "midi": 78,
      "hit": false,
      "t": 53538.40800000004,
      "d": 461.53800000000047,
      "v": 100
    },
    {
      "midi": 69,
      "hit": false,
      "t": 53999.94600000004,
      "d": 461.53800000000047,
      "v": 100
    },
    {
      "midi": 69,
      "hit": false,
      "t": 54461.48400000004,
      "d": 461.53800000000047,
      "v": 100
    },
    {
      "midi": 69,
      "hit": false,
      "t": 54923.02200000004,
      "d": 461.53800000000047,
      "v": 100
    },
    {
      "midi": 69,
      "hit": false,
      "t": 55384.56000000004,
      "d": 461.53800000000047,
      "v": 100
    },
    {
      "midi": 67,
      "hit": false,
      "t": 55846.09800000004,
      "d": 230.76900000000023,
      "v": 100
    },
    {
      "midi": 66,
      "hit": false,
      "t": 56076.86700000004,
      "d": 230.76900000000023,
      "v": 100
    },
    {
      "midi": 67,
      "hit": false,
      "t": 56307.63600000004,
      "d": 461.53800000000047,
      "v": 100
    },
    {
      "midi": 67,
      "hit": false,
      "t": 56769.17400000004,
      "d": 461.53800000000047,
      "v": 100
    },
    {
      "midi": 67,
      "hit": false,
      "t": 57230.71200000004,
      "d": 461.53800000000047,
      "v": 100
    },
    {
      "midi": 67,
      "hit": false,
      "t": 57692.250000000044,
      "d": 461.53800000000047,
      "v": 100
    },
    {
      "midi": 67,
      "hit": false,
      "t": 58153.788000000044,
      "d": 461.53800000000047,
      "v": 100
    },
    {
      "midi": 66,
      "hit": false,
      "t": 58615.326000000045,
      "d": 230.76900000000023,
      "v": 100
    },
    {
      "midi": 64,
      "hit": false,
      "t": 58846.095000000045,
      "d": 230.76900000000023,
      "v": 100
    },
    {
      "midi": 66,
      "hit": false,
      "t": 59076.864000000045,
      "d": 461.53800000000047,
      "v": 100
    },
    {
      "midi": 59,
      "hit": false,
      "t": 59538.402000000024,
      "d": 461.53800000000047,
      "v": 100
    },
    {
      "midi": 74,
      "hit": false,
      "t": 59538.402000000046,
      "d": 461.53800000000047,
      "v": 100
    },
    {
      "midi": 59,
      "hit": false,
      "t": 59999.940000000024,
      "d": 461.53800000000047,
      "v": 100
    },
    {
      "midi": 74,
      "hit": false,
      "t": 59999.940000000046,
      "d": 461.53800000000047,
      "v": 100
    },
    {
      "midi": 59,
      "hit": false,
      "t": 60461.478000000025,
      "d": 461.53800000000047,
      "v": 100
    },
    {
      "midi": 74,
      "hit": false,
      "t": 60461.47800000005,
      "d": 461.53800000000047,
      "v": 100
    },
    {
      "midi": 56,
      "hit": false,
      "t": 60923.016000000025,
      "d": 923.0760000000009,
      "v": 100
    },
    {
      "midi": 74,
      "hit": false,
      "t": 60923.01600000005,
      "d": 461.53800000000047,
      "v": 100
    },
    {
      "midi": 73,
      "hit": false,
      "t": 61384.55400000005,
      "d": 230.76900000000023,
      "v": 100
    },
    {
      "midi": 71,
      "hit": false,
      "t": 61615.32300000005,
      "d": 230.76900000000023,
      "v": 100
    },
    {
      "midi": 57,
      "hit": false,
      "t": 61846.092000000026,
      "d": 461.53800000000047,
      "v": 100
    },
    {
      "midi": 73,
      "hit": false,
      "t": 61846.09200000005,
      "d": 461.53800000000047,
      "v": 100
    },
    {
      "midi": 73,
      "hit": false,
      "t": 62307.63000000005,
      "d": 461.53800000000047,
      "v": 100
    },
    {
      "midi": 73,
      "hit": false,
      "t": 62769.16800000005,
      "d": 461.53800000000047,
      "v": 100
    },
    {
      "midi": 73,
      "hit": false,
      "t": 63230.70600000005,
      "d": 461.53800000000047,
      "v": 100
    },
    {
      "midi": 50,
      "hit": false,
      "t": 63692.24400000003,
      "d": 1846.1519999999946,
      "v": 100
    },
    {
      "midi": 73,
      "hit": false,
      "t": 63692.24400000005,
      "d": 461.53800000000047,
      "v": 100
    },
    {
      "midi": 71,
      "hit": false,
      "t": 64153.78200000005,
      "d": 230.76900000000023,
      "v": 100
    },
    {
      "midi": 69,
      "hit": false,
      "t": 64384.55100000005,
      "d": 230.76900000000023,
      "v": 100
    },
    {
      "midi": 71,
      "hit": false,
      "t": 64615.32000000005,
      "d": 230.76900000000023,
      "v": 100
    },
    {
      "midi": 74,
      "hit": false,
      "t": 64846.08900000005,
      "d": 230.76900000000023,
      "v": 100
    },
    {
      "midi": 73,
      "hit": false,
      "t": 65076.85800000005,
      "d": 230.76900000000023,
      "v": 100
    },
    {
      "midi": 74,
      "hit": false,
      "t": 65307.62700000005,
      "d": 230.76900000000023,
      "v": 100
    },
    {
      "midi": 50,
      "hit": false,
      "t": 65538.39600000002,
      "d": 923.0760000000009,
      "v": 100
    },
    {
      "midi": 71,
      "hit": false,
      "t": 65538.39600000005,
      "d": 230.76900000000023,
      "v": 100
    },
    {
      "midi": 74,
      "hit": false,
      "t": 65769.16500000005,
      "d": 230.76900000000023,
      "v": 100
    },
    {
      "midi": 73,
      "hit": false,
      "t": 65999.93400000005,
      "d": 230.76900000000023,
      "v": 100
    },
    {
      "midi": 74,
      "hit": false,
      "t": 66230.70300000005,
      "d": 230.76900000000023,
      "v": 100
    },
    {
      "midi": 50,
      "hit": false,
      "t": 66461.47200000002,
      "d": 1846.1520000000019,
      "v": 100
    },
    {
      "midi": 64,
      "hit": false,
      "t": 66461.47200000005,
      "d": 1384.6140000000014,
      "v": 100
    },
    {
      "midi": 64,
      "hit": false,
      "t": 67846.08600000005,
      "d": 461.53800000000047,
      "v": 100
    },
    {
      "midi": 49,
      "hit": false,
      "t": 68307.62400000003,
      "d": 1384.6140000000014,
      "v": 100
    },
    {
      "midi": 69,
      "hit": false,
      "t": 68307.62400000005,
      "d": 1384.6140000000014,
      "v": 100
    },
    {
      "midi": 74,
      "hit": false,
      "t": 69692.23800000006,
      "d": 461.53800000000047,
      "v": 100
    },
    {
      "midi": 52,
      "hit": false,
      "t": 70153.77600000003,
      "d": 1846.1520000000019,
      "v": 100
    },
    {
      "midi": 73,
      "hit": false,
      "t": 70153.77600000006,
      "d": 923.0760000000009,
      "v": 100
    },
    {
      "midi": 71,
      "hit": false,
      "t": 71076.85200000006,
      "d": 461.53800000000047,
      "v": 100
    },
    {
      "midi": 69,
      "hit": false,
      "t": 71538.39000000006,
      "d": 461.53800000000047,
      "v": 100
    },
    {
      "midi": 45,
      "hit": false,
      "t": 71999.92800000003,
      "d": 923.0760000000009,
      "v": 100
    },
    {
      "midi": 69,
      "hit": false,
      "t": 71999.92800000006,
      "d": 923.0760000000009,
      "v": 100
    },
    {
      "midi": 81,
      "hit": false,
      "t": 73384.54200000006,
      "d": 461.53800000000047,
      "v": 100
    },
    {
      "midi": 81,
      "hit": false,
      "t": 73846.08000000006,
      "d": 461.53800000000047,
      "v": 100
    },
    {
      "midi": 81,
      "hit": false,
      "t": 74307.61800000006,
      "d": 461.53800000000047,
      "v": 100
    },
    {
      "midi": 45,
      "hit": false,
      "t": 74769.15600000003,
      "d": 923.0760000000009,
      "v": 100
    },
    {
      "midi": 79,
      "hit": false,
      "t": 74769.15600000006,
      "d": 461.53800000000047,
      "v": 100
    },
    {
      "midi": 81,
      "hit": false,
      "t": 75230.69400000006,
      "d": 230.76900000000023,
      "v": 100
    },
    {
      "midi": 79,
      "hit": false,
      "t": 75461.46300000006,
      "d": 230.76900000000023,
      "v": 100
    },
    {
      "midi": 78,
      "hit": false,
      "t": 75692.23200000006,
      "d": 461.53800000000047,
      "v": 100
    },
    {
      "midi": 81,
      "hit": false,
      "t": 76153.77000000006,
      "d": 461.53800000000047,
      "v": 100
    },
    {
      "midi": 79,
      "hit": false,
      "t": 76615.30800000006,
      "d": 461.53800000000047,
      "v": 100
    },
    {
      "midi": 78,
      "hit": false,
      "t": 77076.84600000006,
      "d": 461.53800000000047,
      "v": 100
    },
    {
      "midi": 45,
      "hit": false,
      "t": 77538.38400000003,
      "d": 923.0760000000009,
      "v": 100
    },
    {
      "midi": 78,
      "hit": false,
      "t": 77538.38400000006,
      "d": 461.53800000000047,
      "v": 100
    },
    {
      "midi": 76,
      "hit": false,
      "t": 77999.92200000006,
      "d": 230.76900000000023,
      "v": 100
    },
    {
      "midi": 74,
      "hit": false,
      "t": 78230.69100000006,
      "d": 230.76900000000023,
      "v": 100
    },
    {
      "midi": 76,
      "hit": false,
      "t": 78461.46000000006,
      "d": 461.53800000000047,
      "v": 100
    },
    {
      "midi": 81,
      "hit": false,
      "t": 78922.99800000007,
      "d": 461.53800000000047,
      "v": 100
    },
    {
      "midi": 81,
      "hit": false,
      "t": 79384.53600000007,
      "d": 461.53800000000047,
      "v": 100
    },
    {
      "midi": 81,
      "hit": false,
      "t": 79846.07400000007,
      "d": 461.53800000000047,
      "v": 100
    },
    {
      "midi": 45,
      "hit": false,
      "t": 80307.61200000004,
      "d": 923.0760000000009,
      "v": 100
    },
    {
      "midi": 79,
      "hit": false,
      "t": 80307.61200000007,
      "d": 461.53800000000047,
      "v": 100
    },
    {
      "midi": 81,
      "hit": false,
      "t": 80769.15000000007,
      "d": 230.76900000000023,
      "v": 100
    },
    {
      "midi": 79,
      "hit": false,
      "t": 80999.91900000007,
      "d": 230.76900000000023,
      "v": 100
    },
    {
      "midi": 78,
      "hit": false,
      "t": 81230.68800000007,
      "d": 461.53800000000047,
      "v": 100
    },
    {
      "midi": 81,
      "hit": false,
      "t": 81692.22600000007,
      "d": 461.53800000000047,
      "v": 100
    },
    {
      "midi": 79,
      "hit": false,
      "t": 82153.76400000007,
      "d": 461.53800000000047,
      "v": 100
    },
    {
      "midi": 78,
      "hit": false,
      "t": 82615.30200000007,
      "d": 461.53800000000047,
      "v": 100
    },
    {
      "midi": 45,
      "hit": false,
      "t": 83076.84000000004,
      "d": 923.0760000000009,
      "v": 100
    },
    {
      "midi": 78,
      "hit": false,
      "t": 83076.84000000007,
      "d": 461.53800000000047,
      "v": 100
    },
    {
      "midi": 76,
      "hit": false,
      "t": 83538.37800000007,
      "d": 230.76900000000023,
      "v": 100
    },
    {
      "midi": 74,
      "hit": false,
      "t": 83769.14700000007,
      "d": 230.76900000000023,
      "v": 100
    },
    {
      "midi": 76,
      "hit": false,
      "t": 83999.91600000007,
      "d": 461.53800000000047,
      "v": 100
    },
    {
      "midi": 81,
      "hit": false,
      "t": 84461.45400000007,
      "d": 461.53800000000047,
      "v": 100
    },
    {
      "midi": 81,
      "hit": false,
      "t": 84922.99200000007,
      "d": 461.53800000000047,
      "v": 100
    },
    {
      "midi": 81,
      "hit": false,
      "t": 85384.53000000007,
      "d": 461.53800000000047,
      "v": 100
    },
    {
      "midi": 59,
      "hit": false,
      "t": 85846.06800000004,
      "d": 1846.1520000000019,
      "v": 100
    },
    {
      "midi": 81,
      "hit": false,
      "t": 85846.06800000007,
      "d": 461.53800000000047,
      "v": 100
    },
    {
      "midi": 79,
      "hit": false,
      "t": 86307.60600000007,
      "d": 230.76900000000023,
      "v": 100
    },
    {
      "midi": 78,
      "hit": false,
      "t": 86538.37500000007,
      "d": 230.76900000000023,
      "v": 100
    },
    {
      "midi": 79,
      "hit": false,
      "t": 86769.14400000007,
      "d": 461.53800000000047,
      "v": 100
    },
    {
      "midi": 79,
      "hit": false,
      "t": 87230.68200000007,
      "d": 461.53800000000047,
      "v": 100
    },
    {
      "midi": 52,
      "hit": false,
      "t": 87692.22000000004,
      "d": 923.0760000000009,
      "v": 100
    },
    {
      "midi": 79,
      "hit": false,
      "t": 87692.22000000007,
      "d": 461.53800000000047,
      "v": 100
    },
    {
      "midi": 79,
      "hit": false,
      "t": 88153.75800000007,
      "d": 461.53800000000047,
      "v": 100
    },
    {
      "midi": 52,
      "hit": false,
      "t": 88615.29600000005,
      "d": 923.0760000000009,
      "v": 100
    },
    {
      "midi": 79,
      "hit": false,
      "t": 88615.29600000007,
      "d": 1384.6140000000014,
      "v": 100
    },
    {
      "midi": 45,
      "hit": false,
      "t": 89538.37200000005,
      "d": 923.0760000000009,
      "v": 100
    },
    {
      "midi": 81,
      "hit": false,
      "t": 89999.91000000008,
      "d": 461.53800000000047,
      "v": 100
    },
    {
      "midi": 50,
      "hit": false,
      "t": 90461.44800000005,
      "d": 923.0760000000009,
      "v": 100
    },
    {
      "midi": 78,
      "hit": false,
      "t": 90461.44800000008,
      "d": 461.53800000000047,
      "v": 100
    },
    {
      "midi": 76,
      "hit": false,
      "t": 90922.98600000008,
      "d": 461.53800000000047,
      "v": 100
    },
    {
      "midi": 78,
      "hit": false,
      "t": 91384.52400000008,
      "d": 461.53800000000047,
      "v": 100
    },
    {
      "midi": 79,
      "hit": false,
      "t": 91846.06200000008,
      "d": 461.53800000000047,
      "v": 100
    },
    {
      "midi": 45,
      "hit": false,
      "t": 92307.60000000005,
      "d": 923.0760000000009,
      "v": 100
    },
    {
      "midi": 76,
      "hit": false,
      "t": 92307.60000000008,
      "d": 1384.6140000000014,
      "v": 100
    },
    {
      "midi": 45,
      "hit": false,
      "t": 93230.67600000005,
      "d": 923.0760000000009,
      "v": 100
    },
    {
      "midi": 74,
      "hit": false,
      "t": 93692.21400000008,
      "d": 461.53800000000047,
      "v": 100
    },
    {
      "midi": 50,
      "hit": false,
      "t": 94153.75200000005,
      "d": 2769.228000000003,
      "v": 100
    },
    {
      "midi": 54,
      "hit": false,
      "t": 94153.75200000005,
      "d": 2769.228000000003,
      "v": 100
    },
    {
      "midi": 74,
      "hit": false,
      "t": 94153.75200000008,
      "d": 2769.228000000003,
      "v": 100
    }
  ]
}