{
  "jsonPath": "Classical/Classical/George Frideric Handel/hwv370-score-1.json",
  "path": "Classical\\Classical\\George Frideric Handel\\HWV370-score-1.mid",
  "name": "HWV370-score-1",
  "difficulty": "Advanced",
  "bpm": 115.00002875000719,
  "notes": [
    {
      "midi": 72,
      "hit": false,
      "t": 0,
      "d": 260.86949999999996,
      "v": 127
    },
    {
      "midi": 77,
      "hit": false,
      "t": 260.86949999999996,
      "d": 130.43474999999995,
      "v": 127
    },
    {
      "midi": 79,
      "hit": false,
      "t": 391.3042499999999,
      "d": 130.43475,
      "v": 127
    },
    {
      "midi": 81,
      "hit": false,
      "t": 521.7389999999999,
      "d": 130.43475,
      "v": 127
    },
    {
      "midi": 41,
      "hit": false,
      "t": 521.7389999999999,
      "d": 260.8694999999999,
      "v": 127
    },
    {
      "midi": 79,
      "hit": false,
      "t": 652.1737499999999,
      "d": 130.43475,
      "v": 127
    },
    {
      "midi": 45,
      "hit": false,
      "t": 782.6084999999998,
      "d": 260.8695,
      "v": 127
    },
    {
      "midi": 77,
      "hit": false,
      "t": 782.6084999999999,
      "d": 260.8694999999999,
      "v": 127
    },
    {
      "midi": 72,
      "hit": false,
      "t": 1043.4779999999998,
      "d": 260.8695,
      "v": 127
    },
    {
      "midi": 41,
      "hit": false,
      "t": 1043.4779999999998,
      "d": 521.7389999999998,
      "v": 127
    },
    {
      "midi": 79,
      "hit": false,
      "t": 1304.3474999999999,
      "d": 130.4347499999999,
      "v": 127
    },
    {
      "midi": 81,
      "hit": false,
      "t": 1434.7822499999997,
      "d": 130.4347499999999,
      "v": 127
    },
    {
      "midi": 82,
      "hit": false,
      "t": 1565.2169999999996,
      "d": 130.4347499999999,
      "v": 127
    },
    {
      "midi": 40,
      "hit": false,
      "t": 1565.2169999999996,
      "d": 260.8695,
      "v": 127
    },
    {
      "midi": 81,
      "hit": false,
      "t": 1695.6517499999995,
      "d": 130.4347499999999,
      "v": 127
    },
    {
      "midi": 79,
      "hit": false,
      "t": 1826.0864999999994,
      "d": 260.8694999999998,
      "v": 127
    },
    {
      "midi": 48,
      "hit": false,
      "t": 1826.0864999999997,
      "d": 260.8695,
      "v": 127
    },
    {
      "midi": 72,
      "hit": false,
      "t": 2086.955999999999,
      "d": 260.8694999999998,
      "v": 127
    },
    {
      "midi": 40,
      "hit": false,
      "t": 2086.9559999999997,
      "d": 260.8694999999998,
      "v": 127
    },
    {
      "midi": 81,
      "hit": false,
      "t": 2347.825499999999,
      "d": 260.8694999999998,
      "v": 127
    },
    {
      "midi": 41,
      "hit": false,
      "t": 2347.8254999999995,
      "d": 260.8694999999998,
      "v": 127
    },
    {
      "midi": 79,
      "hit": false,
      "t": 2608.694999999999,
      "d": 130.4347499999999,
      "v": 127
    },
    {
      "midi": 45,
      "hit": false,
      "t": 2608.6949999999993,
      "d": 260.8694999999998,
      "v": 127
    },
    {
      "midi": 77,
      "hit": false,
      "t": 2739.1297499999987,
      "d": 130.4347499999999,
      "v": 127
    },
    {
      "midi": 76,
      "hit": false,
      "t": 2869.5644999999986,
      "d": 260.8694999999998,
      "v": 127
    },
    {
      "midi": 43,
      "hit": false,
      "t": 2869.564499999999,
      "d": 260.8694999999998,
      "v": 127
    },
    {
      "midi": 77,
      "hit": false,
      "t": 3130.4339999999984,
      "d": 260.8694999999998,
      "v": 127
    },
    {
      "midi": 41,
      "hit": false,
      "t": 3130.433999999999,
      "d": 260.8694999999998,
      "v": 127
    },
    {
      "midi": 79,
      "hit": false,
      "t": 3391.303499999998,
      "d": 130.4347499999999,
      "v": 127
    },
    {
      "midi": 48,
      "hit": false,
      "t": 3391.3034999999986,
      "d": 260.8694999999998,
      "v": 127
    },
    {
      "midi": 77,
      "hit": false,
      "t": 3521.738249999998,
      "d": 130.4347499999999,
      "v": 127
    },
    {
      "midi": 76,
      "hit": false,
      "t": 3652.172999999998,
      "d": 130.4347499999999,
      "v": 127
    },
    {
      "midi": 36,
      "hit": false,
      "t": 3652.1729999999984,
      "d": 521.739,
      "v": 127
    },
    {
      "midi": 74,
      "hit": false,
      "t": 3782.607749999998,
      "d": 130.4347499999999,
      "v": 127
    },
    {
      "midi": 72,
      "hit": false,
      "t": 3913.0424999999977,
      "d": 260.8694999999998,
      "v": 127
    },
    {
      "midi": 72,
      "hit": false,
      "t": 4173.9119999999975,
      "d": 260.8694999999998,
      "v": 127
    },
    {
      "midi": 58,
      "hit": false,
      "t": 4173.911999999998,
      "d": 260.8694999999998,
      "v": 127
    },
    {
      "midi": 77,
      "hit": false,
      "t": 4434.781499999997,
      "d": 130.43475000000035,
      "v": 127
    },
    {
      "midi": 57,
      "hit": false,
      "t": 4434.781499999998,
      "d": 260.8694999999998,
      "v": 127
    },
    {
      "midi": 76,
      "hit": false,
      "t": 4565.216249999998,
      "d": 130.43475000000035,
      "v": 127
    },
    {
      "midi": 77,
      "hit": false,
      "t": 4695.650999999998,
      "d": 130.43475000000035,
      "v": 127
    },
    {
      "midi": 55,
      "hit": false,
      "t": 4695.650999999998,
      "d": 260.8694999999998,
      "v": 127
    },
    {
      "midi": 79,
      "hit": false,
      "t": 4826.085749999998,
      "d": 130.43475000000035,
      "v": 127
    },
    {
      "midi": 53,
      "hit": false,
      "t": 4956.520499999998,
      "d": 260.8694999999998,
      "v": 127
    },
    {
      "midi": 81,
      "hit": false,
      "t": 4956.520499999999,
      "d": 260.8694999999998,
      "v": 127
    },
    {
      "midi": 57,
      "hit": false,
      "t": 5217.389999999998,
      "d": 260.8694999999998,
      "v": 127
    },
    {
      "midi": 72,
      "hit": false,
      "t": 5217.3899999999985,
      "d": 260.8694999999998,
      "v": 127
    },
    {
      "midi": 58,
      "hit": false,
      "t": 5478.259499999997,
      "d": 521.7389999999996,
      "v": 127
    },
    {
      "midi": 74,
      "hit": false,
      "t": 5478.259499999998,
      "d": 260.8694999999998,
      "v": 127
    },
    {
      "midi": 76,
      "hit": false,
      "t": 5739.128999999998,
      "d": 260.8694999999998,
      "v": 127
    },
    {
      "midi": 57,
      "hit": false,
      "t": 5999.998499999997,
      "d": 260.8694999999998,
      "v": 127
    },
    {
      "midi": 77,
      "hit": false,
      "t": 5999.998499999998,
      "d": 260.8694999999998,
      "v": 127
    },
    {
      "midi": 65,
      "hit": false,
      "t": 6260.867999999998,
      "d": 260.8694999999998,
      "v": 127
    },
    {
      "midi": 55,
      "hit": false,
      "t": 6521.7374999999965,
      "d": 260.8694999999998,
      "v": 127
    },
    {
      "midi": 70,
      "hit": false,
      "t": 6521.737499999997,
      "d": 260.8694999999998,
      "v": 127
    },
    {
      "midi": 52,
      "hit": false,
      "t": 6782.606999999996,
      "d": 260.8694999999998,
      "v": 127
    },
    {
      "midi": 79,
      "hit": false,
      "t": 6782.606999999997,
      "d": 130.43475000000035,
      "v": 127
    },
    {
      "midi": 77,
      "hit": false,
      "t": 6913.041749999998,
      "d": 130.43475000000035,
      "v": 127
    },
    {
      "midi": 60,
      "hit": false,
      "t": 7043.476499999996,
      "d": 260.8694999999998,
      "v": 127
    },
    {
      "midi": 76,
      "hit": false,
      "t": 7043.476499999998,
      "d": 130.43475000000035,
      "v": 127
    },
    {
      "midi": 74,
      "hit": false,
      "t": 7173.911249999998,
      "d": 130.43475000000035,
      "v": 127
    },
    {
      "midi": 52,
      "hit": false,
      "t": 7304.345999999996,
      "d": 260.8694999999998,
      "v": 127
    },
    {
      "midi": 72,
      "hit": false,
      "t": 7304.345999999999,
      "d": 130.43475000000035,
      "v": 127
    },
    {
      "midi": 70,
      "hit": false,
      "t": 7434.780749999999,
      "d": 130.43475000000035,
      "v": 127
    },
    {
      "midi": 53,
      "hit": false,
      "t": 7565.215499999996,
      "d": 260.8694999999998,
      "v": 127
    },
    {
      "midi": 69,
      "hit": false,
      "t": 7565.215499999999,
      "d": 521.7389999999996,
      "v": 127
    },
    {
      "midi": 52,
      "hit": false,
      "t": 7826.0849999999955,
      "d": 130.43475000000035,
      "v": 127
    },
    {
      "midi": 50,
      "hit": false,
      "t": 7956.519749999996,
      "d": 130.43475000000035,
      "v": 127
    },
    {
      "midi": 48,
      "hit": false,
      "t": 8086.954499999996,
      "d": 130.43475000000035,
      "v": 127
    },
    {
      "midi": 46,
      "hit": false,
      "t": 8217.389249999997,
      "d": 130.43475000000035,
      "v": 127
    },
    {
      "midi": 45,
      "hit": false,
      "t": 8347.823999999997,
      "d": 130.43475000000035,
      "v": 127
    },
    {
      "midi": 72,
      "hit": false,
      "t": 8347.823999999999,
      "d": 260.8695000000007,
      "v": 127
    },
    {
      "midi": 43,
      "hit": false,
      "t": 8478.258749999997,
      "d": 130.43475000000035,
      "v": 127
    },
    {
      "midi": 41,
      "hit": false,
      "t": 8608.693499999998,
      "d": 782.6085000000003,
      "v": 127
    },
    {
      "midi": 77,
      "hit": false,
      "t": 8608.6935,
      "d": 130.43475000000035,
      "v": 127
    },
    {
      "midi": 76,
      "hit": false,
      "t": 8739.12825,
      "d": 130.43475000000035,
      "v": 127
    },
    {
      "midi": 77,
      "hit": false,
      "t": 8869.563,
      "d": 130.43475000000035,
      "v": 127
    },
    {
      "midi": 79,
      "hit": false,
      "t": 8999.99775,
      "d": 130.43475000000035,
      "v": 127
    },
    {
      "midi": 81,
      "hit": false,
      "t": 9130.4325,
      "d": 260.8695000000007,
      "v": 127
    },
    {
      "midi": 57,
      "hit": false,
      "t": 9391.301999999998,
      "d": 260.8695000000007,
      "v": 127
    },
    {
      "midi": 72,
      "hit": false,
      "t": 9391.302000000001,
      "d": 260.8695000000007,
      "v": 127
    },
    {
      "midi": 55,
      "hit": false,
      "t": 9652.171499999999,
      "d": 260.8695000000007,
      "v": 127
    },
    {
      "midi": 71,
      "hit": false,
      "t": 9652.171500000002,
      "d": 260.8695000000007,
      "v": 127
    },
    {
      "midi": 57,
      "hit": false,
      "t": 9913.041,
      "d": 260.8695000000007,
      "v": 127
    },
    {
      "midi": 81,
      "hit": false,
      "t": 9913.041000000003,
      "d": 260.8695000000007,
      "v": 127
    },
    {
      "midi": 59,
      "hit": false,
      "t": 10173.9105,
      "d": 260.8695000000007,
      "v": 127
    },
    {
      "midi": 79,
      "hit": false,
      "t": 10173.910500000004,
      "d": 260.8695000000007,
      "v": 127
    },
    {
      "midi": 55,
      "hit": false,
      "t": 10434.78,
      "d": 260.8695000000007,
      "v": 127
    },
    {
      "midi": 77,
      "hit": false,
      "t": 10434.780000000004,
      "d": 260.8695000000007,
      "v": 127
    },
    {
      "midi": 48,
      "hit": false,
      "t": 10695.649500000001,
      "d": 260.8695000000007,
      "v": 127
    },
    {
      "midi": 76,
      "hit": false,
      "t": 10695.649500000005,
      "d": 260.8695000000007,
      "v": 127
    },
    {
      "midi": 52,
      "hit": false,
      "t": 10956.519000000002,
      "d": 260.8695000000007,
      "v": 127
    },
    {
      "midi": 72,
      "hit": false,
      "t": 10956.519000000006,
      "d": 130.43475000000035,
      "v": 127
    },
    {
      "midi": 74,
      "hit": false,
      "t": 11086.953750000006,
      "d": 130.43475000000035,
      "v": 127
    },
    {
      "midi": 50,
      "hit": false,
      "t": 11217.388500000003,
      "d": 260.8695000000007,
      "v": 127
    },
    {
      "midi": 76,
      "hit": false,
      "t": 11217.388500000006,
      "d": 130.43475000000035,
      "v": 127
    },
    {
      "midi": 77,
      "hit": false,
      "t": 11347.823250000007,
      "d": 130.43475000000035,
      "v": 127
    },
    {
      "midi": 48,
      "hit": false,
      "t": 11478.258000000003,
      "d": 260.8695000000007,
      "v": 127
    },
    {
      "midi": 79,
      "hit": false,
      "t": 11478.258000000007,
      "d": 130.43475000000035,
      "v": 127
    },
    {
      "midi": 81,
      "hit": false,
      "t": 11608.692750000007,
      "d": 130.43475000000035,
      "v": 127
    },
    {
      "midi": 55,
      "hit": false,
      "t": 11739.127500000004,
      "d": 260.8695000000007,
      "v": 127
    },
    {
      "midi": 71,
      "hit": false,
      "t": 11739.127500000008,
      "d": 260.8695000000007,
      "v": 127
    },
    {
      "midi": 57,
      "hit": false,
      "t": 11999.997000000005,
      "d": 260.8695000000007,
      "v": 127
    },
    {
      "midi": 81,
      "hit": false,
      "t": 11999.997000000008,
      "d": 260.8695000000007,
      "v": 127
    },
    {
      "midi": 59,
      "hit": false,
      "t": 12260.866500000006,
      "d": 260.8695000000007,
      "v": 127
    },
    {
      "midi": 79,
      "hit": false,
      "t": 12260.86650000001,
      "d": 260.8695000000007,
      "v": 127
    },
    {
      "midi": 55,
      "hit": false,
      "t": 12521.736000000006,
      "d": 260.8695000000007,
      "v": 127
    },
    {
      "midi": 77,
      "hit": false,
      "t": 12521.73600000001,
      "d": 260.8695000000007,
      "v": 127
    },
    {
      "midi": 48,
      "hit": false,
      "t": 12782.605500000007,
      "d": 260.8695000000007,
      "v": 127
    },
    {
      "midi": 76,
      "hit": false,
      "t": 12782.60550000001,
      "d": 260.8695000000007,
      "v": 127
    },
    {
      "midi": 60,
      "hit": false,
      "t": 13043.475000000008,
      "d": 260.8695000000007,
      "v": 127
    },
    {
      "midi": 77,
      "hit": false,
      "t": 13043.475000000011,
      "d": 130.43475000000035,
      "v": 127
    },
    {
      "midi": 76,
      "hit": false,
      "t": 13173.909750000012,
      "d": 130.43475000000035,
      "v": 127
    },
    {
      "midi": 59,
      "hit": false,
      "t": 13304.344500000008,
      "d": 260.8695000000007,
      "v": 127
    },
    {
      "midi": 74,
      "hit": false,
      "t": 13304.344500000012,
      "d": 260.8695000000007,
      "v": 127
    },
    {
      "midi": 57,
      "hit": false,
      "t": 13565.214000000009,
      "d": 521.7389999999996,
      "v": 127
    },
    {
      "midi": 72,
      "hit": false,
      "t": 13565.214000000013,
      "d": 260.8695000000007,
      "v": 127
    },
    {
      "midi": 78,
      "hit": false,
      "t": 13826.083500000013,
      "d": 260.8695000000007,
      "v": 127
    },
    {
      "midi": 55,
      "hit": false,
      "t": 14086.953000000009,
      "d": 130.43475000000035,
      "v": 127
    },
    {
      "midi": 79,
      "hit": false,
      "t": 14086.953000000014,
      "d": 130.43475000000035,
      "v": 127
    },
    {
      "midi": 57,
      "hit": false,
      "t": 14217.387750000009,
      "d": 130.43475000000035,
      "v": 127
    },
    {
      "midi": 78,
      "hit": false,
      "t": 14217.387750000014,
      "d": 130.43475000000035,
      "v": 127
    },
    {
      "midi": 59,
      "hit": false,
      "t": 14347.82250000001,
      "d": 260.8695000000007,
      "v": 127
    },
    {
      "midi": 79,
      "hit": false,
      "t": 14347.822500000015,
      "d": 260.8695000000007,
      "v": 127
    },
    {
      "midi": 55,
      "hit": false,
      "t": 14608.69200000001,
      "d": 260.8695000000007,
      "v": 127
    },
    {
      "midi": 71,
      "hit": false,
      "t": 14608.692000000015,
      "d": 260.8695000000007,
      "v": 127
    },
    {
      "midi": 52,
      "hit": false,
      "t": 14869.56150000001,
      "d": 260.8695000000007,
      "v": 127
    },
    {
      "midi": 72,
      "hit": false,
      "t": 14869.561500000016,
      "d": 260.8695000000007,
      "v": 127
    },
    {
      "midi": 57,
      "hit": false,
      "t": 15130.431000000011,
      "d": 130.43475000000035,
      "v": 127
    },
    {
      "midi": 64,
      "hit": false,
      "t": 15130.431000000017,
      "d": 260.8695000000007,
      "v": 127
    },
    {
      "midi": 55,
      "hit": false,
      "t": 15260.865750000012,
      "d": 130.43475000000035,
      "v": 127
    },
    {
      "midi": 53,
      "hit": false,
      "t": 15391.300500000012,
      "d": 260.8695000000007,
      "v": 127
    },
    {
      "midi": 62,
      "hit": false,
      "t": 15391.300500000018,
      "d": 260.8695000000007,
      "v": 127
    },
    {
      "midi": 55,
      "hit": false,
      "t": 15652.170000000013,
      "d": 260.8695000000007,
      "v": 127
    },
    {
      "midi": 71,
      "hit": false,
      "t": 15652.170000000018,
      "d": 260.8695000000007,
      "v": 127
    },
    {
      "midi": 48,
      "hit": false,
      "t": 15913.039500000014,
      "d": 130.43475000000035,
      "v": 127
    },
    {
      "midi": 72,
      "hit": false,
      "t": 15913.039500000019,
      "d": 260.8695000000007,
      "v": 127
    },
    {
      "midi": 50,
      "hit": false,
      "t": 16043.474250000014,
      "d": 130.43475000000035,
      "v": 127
    },
    {
      "midi": 52,
      "hit": false,
      "t": 16173.909000000014,
      "d": 130.43475000000035,
      "v": 127
    },
    {
      "midi": 60,
      "hit": false,
      "t": 16173.90900000002,
      "d": 521.7389999999996,
      "v": 127
    },
    {
      "midi": 50,
      "hit": false,
      "t": 16304.343750000015,
      "d": 130.43475000000035,
      "v": 127
    },
    {
      "midi": 48,
      "hit": false,
      "t": 16434.778500000015,
      "d": 260.8695000000007,
      "v": 127
    },
    {
      "midi": 72,
      "hit": false,
      "t": 16695.64800000002,
      "d": 260.8695000000007,
      "v": 127
    },
    {
      "midi": 57,
      "hit": false,
      "t": 16956.517500000016,
      "d": 260.8695000000007,
      "v": 127
    },
    {
      "midi": 72,
      "hit": false,
      "t": 16956.51750000002,
      "d": 130.43475000000035,
      "v": 127
    },
    {
      "midi": 77,
      "hit": false,
      "t": 17086.95225000002,
      "d": 130.43475000000035,
      "v": 127
    },
    {
      "midi": 55,
      "hit": false,
      "t": 17217.387000000017,
      "d": 260.8695000000007,
      "v": 127
    },
    {
      "midi": 76,
      "hit": false,
      "t": 17217.38700000002,
      "d": 130.43475000000035,
      "v": 127
    },
    {
      "midi": 77,
      "hit": false,
      "t": 17347.82175000002,
      "d": 130.43475000000035,
      "v": 127
    },
    {
      "midi": 57,
      "hit": false,
      "t": 17478.256500000018,
      "d": 260.8695000000007,
      "v": 127
    },
    {
      "midi": 72,
      "hit": false,
      "t": 17478.25650000002,
      "d": 130.43475000000035,
      "v": 127
    },
    {
      "midi": 77,
      "hit": false,
      "t": 17608.69125000002,
      "d": 130.43475000000035,
      "v": 127
    },
    {
      "midi": 53,
      "hit": false,
      "t": 17739.12600000002,
      "d": 260.8695000000007,
      "v": 127
    },
    {
      "midi": 76,
      "hit": false,
      "t": 17739.126000000022,
      "d": 130.43475000000035,
      "v": 127
    },
    {
      "midi": 77,
      "hit": false,
      "t": 17869.560750000022,
      "d": 130.43475000000035,
      "v": 127
    },
    {
      "midi": 46,
      "hit": false,
      "t": 17999.99550000002,
      "d": 260.8695000000007,
      "v": 127
    },
    {
      "midi": 74,
      "hit": false,
      "t": 17999.995500000023,
      "d": 130.43475000000035,
      "v": 127
    },
    {
      "midi": 77,
      "hit": false,
      "t": 18130.430250000023,
      "d": 130.43475000000035,
      "v": 127
    },
    {
      "midi": 48,
      "hit": false,
      "t": 18260.86500000002,
      "d": 260.8695000000007,
      "v": 127
    },
    {
      "midi": 76,
      "hit": false,
      "t": 18260.865000000023,
      "d": 130.43475000000035,
      "v": 127
    },
    {
      "midi": 77,
      "hit": false,
      "t": 18391.299750000024,
      "d": 130.43475000000035,
      "v": 127
    },
    {
      "midi": 50,
      "hit": false,
      "t": 18521.73450000002,
      "d": 260.8695000000007,
      "v": 127
    },
    {
      "midi": 74,
      "hit": false,
      "t": 18521.734500000024,
      "d": 130.43475000000035,
      "v": 127
    },
    {
      "midi": 77,
      "hit": false,
      "t": 18652.169250000024,
      "d": 130.43475000000035,
      "v": 127
    },
    {
      "midi": 46,
      "hit": false,
      "t": 18782.60400000002,
      "d": 260.8695000000007,
      "v": 127
    },
    {
      "midi": 76,
      "hit": false,
      "t": 18782.604000000025,
      "d": 130.43475000000035,
      "v": 127
    },
    {
      "midi": 77,
      "hit": false,
      "t": 18913.038750000025,
      "d": 130.43475000000035,
      "v": 127
    },
    {
      "midi": 45,
      "hit": false,
      "t": 19043.473500000022,
      "d": 260.8695000000007,
      "v": 127
    },
    {
      "midi": 72,
      "hit": false,
      "t": 19043.473500000026,
      "d": 130.43475000000035,
      "v": 127
    },
    {
      "midi": 77,
      "hit": false,
      "t": 19173.908250000026,
      "d": 130.43475000000035,
      "v": 127
    },
    {
      "midi": 53,
      "hit": false,
      "t": 19304.343000000023,
      "d": 521.7390000000014,
      "v": 127
    },
    {
      "midi": 69,
      "hit": false,
      "t": 19304.343000000026,
      "d": 130.43475000000035,
      "v": 127
    },
    {
      "midi": 77,
      "hit": false,
      "t": 19434.777750000027,
      "d": 130.43475000000035,
      "v": 127
    },
    {
      "midi": 72,
      "hit": false,
      "t": 19565.212500000027,
      "d": 130.43475000000035,
      "v": 127
    },
    {
      "midi": 77,
      "hit": false,
      "t": 19695.647250000027,
      "d": 130.43475000000035,
      "v": 127
    },
    {
      "midi": 53,
      "hit": false,
      "t": 19826.082000000024,
      "d": 260.8695000000007,
      "v": 127
    },
    {
      "midi": 69,
      "hit": false,
      "t": 19826.082000000028,
      "d": 130.43475000000035,
      "v": 127
    },
    {
      "midi": 77,
      "hit": false,
      "t": 19956.516750000028,
      "d": 130.43475000000035,
      "v": 127
    },
    {
      "midi": 46,
      "hit": false,
      "t": 20086.951500000025,
      "d": 260.8695000000007,
      "v": 127
    },
    {
      "midi": 74,
      "hit": false,
      "t": 20086.95150000003,
      "d": 130.43475000000035,
      "v": 127
    },
    {
      "midi": 75,
      "hit": false,
      "t": 20217.38625000003,
      "d": 130.43475000000035,
      "v": 127
    },
    {
      "midi": 48,
      "hit": false,
      "t": 20347.821000000025,
      "d": 260.8695000000007,
      "v": 127
    },
    {
      "midi": 74,
      "hit": false,
      "t": 20347.82100000003,
      "d": 130.43475000000035,
      "v": 127
    },
    {
      "midi": 72,
      "hit": false,
      "t": 20478.25575000003,
      "d": 130.43475000000035,
      "v": 127
    },
    {
      "midi": 50,
      "hit": false,
      "t": 20608.690500000026,
      "d": 260.8695000000007,
      "v": 127
    },
    {
      "midi": 70,
      "hit": false,
      "t": 20608.69050000003,
      "d": 260.8695000000007,
      "v": 127
    },
    {
      "midi": 46,
      "hit": false,
      "t": 20869.560000000027,
      "d": 260.8695000000007,
      "v": 127
    },
    {
      "midi": 74,
      "hit": false,
      "t": 20869.56000000003,
      "d": 260.8695000000007,
      "v": 127
    },
    {
      "midi": 47,
      "hit": false,
      "t": 21130.429500000027,
      "d": 260.8695000000007,
      "v": 127
    },
    {
      "midi": 74,
      "hit": false,
      "t": 21130.42950000003,
      "d": 130.43475000000035,
      "v": 127
    },
    {
      "midi": 79,
      "hit": false,
      "t": 21260.86425000003,
      "d": 130.43475000000035,
      "v": 127
    },
    {
      "midi": 45,
      "hit": false,
      "t": 21391.299000000028,
      "d": 260.8695000000007,
      "v": 127
    },
    {
      "midi": 77,
      "hit": false,
      "t": 21391.29900000003,
      "d": 130.43475000000035,
      "v": 127
    },
    {
      "midi": 79,
      "hit": false,
      "t": 21521.733750000032,
      "d": 130.43475000000035,
      "v": 127
    },
    {
      "midi": 47,
      "hit": false,
      "t": 21652.16850000003,
      "d": 260.8695000000007,
      "v": 127
    },
    {
      "midi": 74,
      "hit": false,
      "t": 21652.168500000033,
      "d": 130.43475000000035,
      "v": 127
    },
    {
      "midi": 79,
      "hit": false,
      "t": 21782.603250000033,
      "d": 130.43475000000035,
      "v": 127
    },
    {
      "midi": 43,
      "hit": false,
      "t": 21913.03800000003,
      "d": 260.8695000000007,
      "v": 127
    },
    {
      "midi": 77,
      "hit": false,
      "t": 21913.038000000033,
      "d": 130.43475000000035,
      "v": 127
    },
    {
      "midi": 79,
      "hit": false,
      "t": 22043.472750000034,
      "d": 130.43475000000035,
      "v": 127
    },
    {
      "midi": 48,
      "hit": false,
      "t": 22173.90750000003,
      "d": 260.8695000000007,
      "v": 127
    },
    {
      "midi": 76,
      "hit": false,
      "t": 22173.907500000034,
      "d": 130.43475000000035,
      "v": 127
    },
    {
      "midi": 79,
      "hit": false,
      "t": 22304.342250000034,
      "d": 130.43475000000035,
      "v": 127
    },
    {
      "midi": 50,
      "hit": false,
      "t": 22434.77700000003,
      "d": 260.8695000000007,
      "v": 127
    },
    {
      "midi": 77,
      "hit": false,
      "t": 22434.777000000035,
      "d": 130.43475000000035,
      "v": 127
    },
    {
      "midi": 79,
      "hit": false,
      "t": 22565.211750000035,
      "d": 130.43475000000035,
      "v": 127
    },
    {
      "midi": 52,
      "hit": false,
      "t": 22695.64650000003,
      "d": 260.8695000000007,
      "v": 127
    },
    {
      "midi": 76,
      "hit": false,
      "t": 22695.646500000035,
      "d": 130.43475000000035,
      "v": 127
    },
    {
      "midi": 79,
      "hit": false,
      "t": 22826.081250000036,
      "d": 130.43475000000035,
      "v": 127
    },
    {
      "midi": 48,
      "hit": false,
      "t": 22956.516000000032,
      "d": 260.8695000000007,
      "v": 127
    },
    {
      "midi": 77,
      "hit": false,
      "t": 22956.516000000036,
      "d": 130.43475000000035,
      "v": 127
    },
    {
      "midi": 79,
      "hit": false,
      "t": 23086.950750000036,
      "d": 130.43475000000035,
      "v": 127
    },
    {
      "midi": 47,
      "hit": false,
      "t": 23217.385500000033,
      "d": 260.8695000000007,
      "v": 127
    },
    {
      "midi": 74,
      "hit": false,
      "t": 23217.385500000037,
      "d": 130.43475000000035,
      "v": 127
    },
    {
      "midi": 79,
      "hit": false,
      "t": 23347.820250000037,
      "d": 130.43475000000035,
      "v": 127
    },
    {
      "midi": 55,
      "hit": false,
      "t": 23478.255000000034,
      "d": 521.7390000000014,
      "v": 127
    },
    {
      "midi": 71,
      "hit": false,
      "t": 23478.255000000037,
      "d": 130.43475000000035,
      "v": 127
    },
    {
      "midi": 79,
      "hit": false,
      "t": 23608.689750000038,
      "d": 130.43475000000035,
      "v": 127
    },
    {
      "midi": 74,
      "hit": false,
      "t": 23739.124500000038,
      "d": 130.43475000000035,
      "v": 127
    },
    {
      "midi": 79,
      "hit": false,
      "t": 23869.55925000004,
      "d": 130.43475000000035,
      "v": 127
    },
    {
      "midi": 55,
      "hit": false,
      "t": 23999.994000000035,
      "d": 260.8695000000007,
      "v": 127
    },
    {
      "midi": 71,
      "hit": false,
      "t": 23999.99400000004,
      "d": 130.43475000000035,
      "v": 127
    },
    {
      "midi": 79,
      "hit": false,
      "t": 24130.42875000004,
      "d": 130.43475000000035,
      "v": 127
    },
    {
      "midi": 48,
      "hit": false,
      "t": 24260.863500000036,
      "d": 260.8695000000007,
      "v": 127
    },
    {
      "midi": 76,
      "hit": false,
      "t": 24260.86350000004,
      "d": 130.43475000000035,
      "v": 127
    },
    {
      "midi": 77,
      "hit": false,
      "t": 24391.29825000004,
      "d": 130.43475000000035,
      "v": 127
    },
    {
      "midi": 50,
      "hit": false,
      "t": 24521.733000000037,
      "d": 260.8695000000007,
      "v": 127
    },
    {
      "midi": 76,
      "hit": false,
      "t": 24521.73300000004,
      "d": 130.43475000000035,
      "v": 127
    },
    {
      "midi": 74,
      "hit": false,
      "t": 24652.16775000004,
      "d": 130.43475000000035,
      "v": 127
    },
    {
      "midi": 52,
      "hit": false,
      "t": 24782.602500000037,
      "d": 260.8695000000007,
      "v": 127
    },
    {
      "midi": 72,
      "hit": false,
      "t": 24782.60250000004,
      "d": 260.8695000000007,
      "v": 127
    },
    {
      "midi": 48,
      "hit": false,
      "t": 25043.472000000038,
      "d": 260.8695000000007,
      "v": 127
    },
    {
      "midi": 76,
      "hit": false,
      "t": 25043.47200000004,
      "d": 260.8695000000007,
      "v": 127
    },
    {
      "midi": 49,
      "hit": false,
      "t": 25304.34150000004,
      "d": 260.8695000000007,
      "v": 127
    },
    {
      "midi": 76,
      "hit": false,
      "t": 25304.341500000042,
      "d": 130.43475000000035,
      "v": 127
    },
    {
      "midi": 81,
      "hit": false,
      "t": 25434.776250000043,
      "d": 130.43475000000035,
      "v": 127
    },
    {
      "midi": 47,
      "hit": false,
      "t": 25565.21100000004,
      "d": 260.8695000000007,
      "v": 127
    },
    {
      "midi": 79,
      "hit": false,
      "t": 25565.211000000043,
      "d": 130.43475000000035,
      "v": 127
    },
    {
      "midi": 81,
      "hit": false,
      "t": 25695.645750000043,
      "d": 130.43475000000035,
      "v": 127
    },
    {
      "midi": 49,
      "hit": false,
      "t": 25826.08050000004,
      "d": 260.8695000000007,
      "v": 127
    },
    {
      "midi": 76,
      "hit": false,
      "t": 25826.080500000044,
      "d": 130.43475000000035,
      "v": 127
    },
    {
      "midi": 81,
      "hit": false,
      "t": 25956.515250000044,
      "d": 130.43475000000035,
      "v": 127
    },
    {
      "midi": 45,
      "hit": false,
      "t": 26086.95000000004,
      "d": 260.8695000000007,
      "v": 127
    },
    {
      "midi": 79,
      "hit": false,
      "t": 26086.950000000044,
      "d": 130.43475000000035,
      "v": 127
    },
    {
      "midi": 81,
      "hit": false,
      "t": 26217.384750000045,
      "d": 130.43475000000035,
      "v": 127
    },
    {
      "midi": 50,
      "hit": false,
      "t": 26347.81950000004,
      "d": 260.8695000000007,
      "v": 127
    },
    {
      "midi": 77,
      "hit": false,
      "t": 26347.819500000045,
      "d": 130.43475000000035,
      "v": 127
    },
    {
      "midi": 81,
      "hit": false,
      "t": 26478.254250000045,
      "d": 130.43475000000035,
      "v": 127
    },
    {
      "midi": 52,
      "hit": false,
      "t": 26608.689000000042,
      "d": 260.8695000000007,
      "v": 127
    },
    {
      "midi": 79,
      "hit": false,
      "t": 26608.689000000046,
      "d": 130.43475000000035,
      "v": 127
    },
    {
      "midi": 81,
      "hit": false,
      "t": 26739.123750000046,
      "d": 130.43475000000035,
      "v": 127
    },
    {
      "midi": 53,
      "hit": false,
      "t": 26869.558500000043,
      "d": 260.8695000000007,
      "v": 127
    },
    {
      "midi": 77,
      "hit": false,
      "t": 26869.558500000046,
      "d": 130.43475000000035,
      "v": 127
    },
    {
      "midi": 81,
      "hit": false,
      "t": 26999.993250000047,
      "d": 130.43475000000035,
      "v": 127
    },
    {
      "midi": 50,
      "hit": false,
      "t": 27130.428000000044,
      "d": 260.8695000000007,
      "v": 127
    },
    {
      "midi": 79,
      "hit": false,
      "t": 27130.428000000047,
      "d": 130.43475000000035,
      "v": 127
    },
    {
      "midi": 81,
      "hit": false,
      "t": 27260.862750000048,
      "d": 130.43475000000035,
      "v": 127
    },
    {
      "midi": 49,
      "hit": false,
      "t": 27391.297500000044,
      "d": 260.8695000000007,
      "v": 127
    },
    {
      "midi": 76,
      "hit": false,
      "t": 27391.297500000048,
      "d": 130.43475000000035,
      "v": 127
    },
    {
      "midi": 81,
      "hit": false,
      "t": 27521.73225000005,
      "d": 130.43475000000035,
      "v": 127
    },
    {
      "midi": 57,
      "hit": false,
      "t": 27652.167000000045,
      "d": 521.7390000000014,
      "v": 127
    },
    {
      "midi": 73,
      "hit": false,
      "t": 27652.16700000005,
      "d": 130.43475000000035,
      "v": 127
    },
    {
      "midi": 81,
      "hit": false,
      "t": 27782.60175000005,
      "d": 130.43475000000035,
      "v": 127
    },
    {
      "midi": 76,
      "hit": false,
      "t": 27913.03650000005,
      "d": 130.43475000000035,
      "v": 127
    },
    {
      "midi": 81,
      "hit": false,
      "t": 28043.47125000005,
      "d": 130.43475000000035,
      "v": 127
    },
    {
      "midi": 57,
      "hit": false,
      "t": 28173.906000000046,
      "d": 260.8695000000007,
      "v": 127
    },
    {
      "midi": 73,
      "hit": false,
      "t": 28173.90600000005,
      "d": 130.43475000000035,
      "v": 127
    },
    {
      "midi": 81,
      "hit": false,
      "t": 28304.34075000005,
      "d": 130.43475000000035,
      "v": 127
    },
    {
      "midi": 50,
      "hit": false,
      "t": 28434.775500000047,
      "d": 260.8695000000007,
      "v": 127
    },
    {
      "midi": 77,
      "hit": false,
      "t": 28434.77550000005,
      "d": 130.43475000000035,
      "v": 127
    },
    {
      "midi": 79,
      "hit": false,
      "t": 28565.21025000005,
      "d": 130.43475000000035,
      "v": 127
    },
    {
      "midi": 52,
      "hit": false,
      "t": 28695.645000000048,
      "d": 260.8695000000007,
      "v": 127
    },
    {
      "midi": 77,
      "hit": false,
      "t": 28695.64500000005,
      "d": 130.43475000000035,
      "v": 127
    },
    {
      "midi": 76,
      "hit": false,
      "t": 28826.07975000005,
      "d": 130.43475000000035,
      "v": 127
    },
    {
      "midi": 53,
      "hit": false,
      "t": 28956.51450000005,
      "d": 260.8695000000007,
      "v": 127
    },
    {
      "midi": 74,
      "hit": false,
      "t": 28956.514500000052,
      "d": 260.8695000000007,
      "v": 127
    },
    {
      "midi": 50,
      "hit": false,
      "t": 29217.38400000005,
      "d": 521.7390000000014,
      "v": 127
    },
    {
      "midi": 69,
      "hit": false,
      "t": 29217.384000000053,
      "d": 260.8695000000007,
      "v": 127
    },
    {
      "midi": 74,
      "hit": false,
      "t": 29478.253500000053,
      "d": 130.43475000000035,
      "v": 127
    },
    {
      "midi": 76,
      "hit": false,
      "t": 29608.688250000054,
      "d": 130.43475000000035,
      "v": 127
    },
    {
      "midi": 50,
      "hit": false,
      "t": 29739.12300000005,
      "d": 260.8695000000007,
      "v": 127
    },
    {
      "midi": 77,
      "hit": false,
      "t": 29739.123000000054,
      "d": 130.43475000000035,
      "v": 127
    },
    {
      "midi": 79,
      "hit": false,
      "t": 29869.557750000055,
      "d": 130.43475000000035,
      "v": 127
    },
    {
      "midi": 53,
      "hit": false,
      "t": 29999.99250000005,
      "d": 260.8695000000007,
      "v": 127
    },
    {
      "midi": 81,
      "hit": false,
      "t": 29999.992500000055,
      "d": 260.8695000000007,
      "v": 127
    },
    {
      "midi": 58,
      "hit": false,
      "t": 30260.862000000052,
      "d": 260.8695000000007,
      "v": 127
    },
    {
      "midi": 74,
      "hit": false,
      "t": 30260.862000000056,
      "d": 260.8695000000007,
      "v": 127
    },
    {
      "midi": 57,
      "hit": false,
      "t": 30521.731500000053,
      "d": 782.6084999999985,
      "v": 127
    },
    {
      "midi": 73,
      "hit": false,
      "t": 30521.731500000056,
      "d": 260.8695000000007,
      "v": 127
    },
    {
      "midi": 82,
      "hit": false,
      "t": 30782.601000000057,
      "d": 260.8695000000007,
      "v": 127
    },
    {
      "midi": 81,
      "hit": false,
      "t": 31043.470500000058,
      "d": 260.8695000000007,
      "v": 127
    },
    {
      "midi": 49,
      "hit": false,
      "t": 31304.34000000005,
      "d": 260.8695000000007,
      "v": 127
    },
    {
      "midi": 79,
      "hit": false,
      "t": 31304.34000000006,
      "d": 260.8695000000007,
      "v": 127
    },
    {
      "midi": 50,
      "hit": false,
      "t": 31565.20950000005,
      "d": 130.43475000000035,
      "v": 127
    },
    {
      "midi": 77,
      "hit": false,
      "t": 31565.20950000006,
      "d": 260.8695000000007,
      "v": 127
    },
    {
      "midi": 52,
      "hit": false,
      "t": 31695.644250000052,
      "d": 130.43475000000035,
      "v": 127
    },
    {
      "midi": 53,
      "hit": false,
      "t": 31826.079000000052,
      "d": 130.43475000000035,
      "v": 127
    },
    {
      "midi": 74,
      "hit": false,
      "t": 31826.07900000006,
      "d": 130.43475000000035,
      "v": 127
    },
    {
      "midi": 52,
      "hit": false,
      "t": 31956.513750000053,
      "d": 130.43475000000035,
      "v": 127
    },
    {
      "midi": 76,
      "hit": false,
      "t": 31956.51375000006,
      "d": 130.43475000000035,
      "v": 127
    },
    {
      "midi": 50,
      "hit": false,
      "t": 32086.948500000053,
      "d": 260.8695000000007,
      "v": 127
    },
    {
      "midi": 77,
      "hit": false,
      "t": 32086.94850000006,
      "d": 130.43475000000035,
      "v": 127
    },
    {
      "midi": 79,
      "hit": false,
      "t": 32217.38325000006,
      "d": 130.43475000000035,
      "v": 127
    },
    {
      "midi": 43,
      "hit": false,
      "t": 32347.818000000054,
      "d": 260.8695000000007,
      "v": 127
    },
    {
      "midi": 81,
      "hit": false,
      "t": 32347.81800000006,
      "d": 130.43475000000035,
      "v": 127
    },
    {
      "midi": 82,
      "hit": false,
      "t": 32478.25275000006,
      "d": 130.43475000000035,
      "v": 127
    },
    {
      "midi": 45,
      "hit": false,
      "t": 32608.687500000055,
      "d": 782.6084999999985,
      "v": 127
    },
    {
      "midi": 73,
      "hit": false,
      "t": 32608.687500000062,
      "d": 260.86949999999706,
      "v": 127
    },
    {
      "midi": 82,
      "hit": false,
      "t": 32869.55700000006,
      "d": 260.8695000000007,
      "v": 127
    },
    {
      "midi": 81,
      "hit": false,
      "t": 33130.42650000006,
      "d": 260.8695000000007,
      "v": 127
    },
    {
      "midi": 49,
      "hit": false,
      "t": 33391.29600000005,
      "d": 260.8695000000007,
      "v": 127
    },
    {
      "midi": 79,
      "hit": false,
      "t": 33391.29600000006,
      "d": 260.8695000000007,
      "v": 127
    },
    {
      "midi": 50,
      "hit": false,
      "t": 33652.165500000054,
      "d": 782.6085000000021,
      "v": 127
    },
    {
      "midi": 77,
      "hit": false,
      "t": 33652.16550000006,
      "d": 130.43475000000035,
      "v": 127
    },
    {
      "midi": 76,
      "hit": false,
      "t": 33782.60025000006,
      "d": 130.43475000000035,
      "v": 127
    },
    {
      "midi": 74,
      "hit": false,
      "t": 33913.03500000006,
      "d": 130.43475000000035,
      "v": 127
    },
    {
      "midi": 72,
      "hit": false,
      "t": 34043.46975000006,
      "d": 130.43475000000035,
      "v": 127
    },
    {
      "midi": 70,
      "hit": false,
      "t": 34173.90450000006,
      "d": 260.8695000000007,
      "v": 127
    },
    {
      "midi": 53,
      "hit": false,
      "t": 34434.774000000056,
      "d": 260.8695000000007,
      "v": 127
    },
    {
      "midi": 69,
      "hit": false,
      "t": 34434.77400000006,
      "d": 260.8695000000007,
      "v": 127
    },
    {
      "midi": 52,
      "hit": false,
      "t": 34695.64350000006,
      "d": 782.6085000000021,
      "v": 127
    },
    {
      "midi": 68,
      "hit": false,
      "t": 34695.643500000064,
      "d": 260.8695000000007,
      "v": 127
    },
    {
      "midi": 77,
      "hit": false,
      "t": 34956.513000000064,
      "d": 260.8695000000007,
      "v": 127
    },
    {
      "midi": 76,
      "hit": false,
      "t": 35217.382500000065,
      "d": 260.8695000000007,
      "v": 127
    },
    {
      "midi": 44,
      "hit": false,
      "t": 35478.25200000006,
      "d": 260.8695000000007,
      "v": 127
    },
    {
      "midi": 74,
      "hit": false,
      "t": 35478.252000000066,
      "d": 260.8695000000007,
      "v": 127
    },
    {
      "midi": 45,
      "hit": false,
      "t": 35739.12150000006,
      "d": 260.8695000000007,
      "v": 127
    },
    {
      "midi": 72,
      "hit": false,
      "t": 35739.12150000007,
      "d": 130.43475000000035,
      "v": 127
    },
    {
      "midi": 71,
      "hit": false,
      "t": 35869.55625000007,
      "d": 130.43475000000035,
      "v": 127
    },
    {
      "midi": 41,
      "hit": false,
      "t": 35999.99100000006,
      "d": 260.8695000000007,
      "v": 127
    },
    {
      "midi": 72,
      "hit": false,
      "t": 35999.99100000007,
      "d": 130.43475000000035,
      "v": 127
    },
    {
      "midi": 81,
      "hit": false,
      "t": 36130.42575000007,
      "d": 130.43475000000035,
      "v": 127
    },
    {
      "midi": 38,
      "hit": false,
      "t": 36260.86050000006,
      "d": 260.8695000000007,
      "v": 127
    },
    {
      "midi": 71,
      "hit": false,
      "t": 36260.86050000007,
      "d": 130.43475000000035,
      "v": 127
    },
    {
      "midi": 69,
      "hit": false,
      "t": 36391.29525000007,
      "d": 130.43475000000035,
      "v": 127
    },
    {
      "midi": 40,
      "hit": false,
      "t": 36521.73000000006,
      "d": 260.8695000000007,
      "v": 127
    },
    {
      "midi": 71,
      "hit": false,
      "t": 36521.73000000007,
      "d": 130.43475000000035,
      "v": 127
    },
    {
      "midi": 80,
      "hit": false,
      "t": 36652.16475000007,
      "d": 130.43475000000035,
      "v": 127
    },
    {
      "midi": 45,
      "hit": false,
      "t": 36782.59950000006,
      "d": 130.43475000000035,
      "v": 127
    },
    {
      "midi": 69,
      "hit": false,
      "t": 36782.59950000007,
      "d": 521.7390000000014,
      "v": 127
    },
    {
      "midi": 47,
      "hit": false,
      "t": 36913.03425000006,
      "d": 130.43475000000035,
      "v": 127
    },
    {
      "midi": 48,
      "hit": false,
      "t": 37043.46900000006,
      "d": 130.43475000000035,
      "v": 127
    },
    {
      "midi": 47,
      "hit": false,
      "t": 37173.90375000006,
      "d": 130.43475000000035,
      "v": 127
    },
    {
      "midi": 45,
      "hit": false,
      "t": 37304.33850000006,
      "d": 260.8695000000007,
      "v": 127
    },
    {
      "midi": 67,
      "hit": false,
      "t": 37434.77325000007,
      "d": 130.43475000000035,
      "v": 127
    },
    {
      "midi": 48,
      "hit": false,
      "t": 37565.208000000064,
      "d": 260.8695000000007,
      "v": 127
    },
    {
      "midi": 65,
      "hit": false,
      "t": 37565.20800000007,
      "d": 130.43475000000035,
      "v": 127
    },
    {
      "midi": 64,
      "hit": false,
      "t": 37695.64275000007,
      "d": 130.43475000000035,
      "v": 127
    },
    {
      "midi": 50,
      "hit": false,
      "t": 37826.077500000065,
      "d": 130.43475000000035,
      "v": 127
    },
    {
      "midi": 65,
      "hit": false,
      "t": 37826.07750000007,
      "d": 260.8695000000007,
      "v": 127
    },
    {
      "midi": 52,
      "hit": false,
      "t": 37956.512250000065,
      "d": 130.43475000000035,
      "v": 127
    },
    {
      "midi": 53,
      "hit": false,
      "t": 38086.947000000066,
      "d": 130.43475000000035,
      "v": 127
    },
    {
      "midi": 69,
      "hit": false,
      "t": 38086.94700000007,
      "d": 391.30425000000105,
      "v": 127
    },
    {
      "midi": 52,
      "hit": false,
      "t": 38217.381750000066,
      "d": 130.43475000000035,
      "v": 127
    },
    {
      "midi": 50,
      "hit": false,
      "t": 38347.816500000066,
      "d": 260.8695000000007,
      "v": 127
    },
    {
      "midi": 67,
      "hit": false,
      "t": 38478.251250000074,
      "d": 130.43475000000035,
      "v": 127
    },
    {
      "midi": 45,
      "hit": false,
      "t": 38608.68600000007,
      "d": 260.8695000000007,
      "v": 127
    },
    {
      "midi": 65,
      "hit": false,
      "t": 38608.686000000074,
      "d": 130.43475000000035,
      "v": 127
    },
    {
      "midi": 64,
      "hit": false,
      "t": 38739.120750000075,
      "d": 130.43475000000035,
      "v": 127
    },
    {
      "midi": 47,
      "hit": false,
      "t": 38869.55550000007,
      "d": 130.43475000000035,
      "v": 127
    },
    {
      "midi": 62,
      "hit": false,
      "t": 38869.555500000075,
      "d": 260.8695000000007,
      "v": 127
    },
    {
      "midi": 48,
      "hit": false,
      "t": 38999.99025000007,
      "d": 130.43475000000035,
      "v": 127
    },
    {
      "midi": 50,
      "hit": false,
      "t": 39130.42500000007,
      "d": 130.43475000000035,
      "v": 127
    },
    {
      "midi": 71,
      "hit": false,
      "t": 39130.425000000076,
      "d": 521.7390000000014,
      "v": 127
    },
    {
      "midi": 48,
      "hit": false,
      "t": 39260.85975000007,
      "d": 130.43475000000035,
      "v": 127
    },
    {
      "midi": 47,
      "hit": false,
      "t": 39391.29450000007,
      "d": 260.8695000000007,
      "v": 127
    },
    {
      "midi": 56,
      "hit": false,
      "t": 39652.16400000007,
      "d": 260.8695000000007,
      "v": 127
    },
    {
      "midi": 62,
      "hit": false,
      "t": 39652.16400000008,
      "d": 260.8695000000007,
      "v": 127
    },
    {
      "midi": 57,
      "hit": false,
      "t": 39913.03350000007,
      "d": 130.43475000000035,
      "v": 127
    },
    {
      "midi": 60,
      "hit": false,
      "t": 39913.03350000008,
      "d": 260.8695000000007,
      "v": 127
    },
    {
      "midi": 55,
      "hit": false,
      "t": 40043.46825000007,
      "d": 130.43475000000035,
      "v": 127
    },
    {
      "midi": 53,
      "hit": false,
      "t": 40173.90300000007,
      "d": 130.43475000000035,
      "v": 127
    },
    {
      "midi": 69,
      "hit": false,
      "t": 40173.90300000008,
      "d": 260.8695000000007,
      "v": 127
    },
    {
      "midi": 52,
      "hit": false,
      "t": 40304.33775000007,
      "d": 130.43475000000035,
      "v": 127
    },
    {
      "midi": 50,
      "hit": false,
      "t": 40434.77250000007,
      "d": 260.8695000000007,
      "v": 127
    },
    {
      "midi": 59,
      "hit": false,
      "t": 40434.77250000008,
      "d": 260.8695000000007,
      "v": 127
    },
    {
      "midi": 52,
      "hit": false,
      "t": 40695.64200000007,
      "d": 260.8695000000007,
      "v": 127
    },
    {
      "midi": 68,
      "hit": false,
      "t": 40695.64200000008,
      "d": 260.8695000000007,
      "v": 127
    },
    {
      "midi": 45,
      "hit": false,
      "t": 40956.51150000007,
      "d": 130.43475000000035,
      "v": 127
    },
    {
      "midi": 57,
      "hit": false,
      "t": 40956.51150000008,
      "d": 521.7390000000014,
      "v": 127
    },
    {
      "midi": 57,
      "hit": false,
      "t": 41086.94625000007,
      "d": 130.43475000000035,
      "v": 127
    },
    {
      "midi": 55,
      "hit": false,
      "t": 41217.381000000074,
      "d": 130.43475000000035,
      "v": 127
    },
    {
      "midi": 53,
      "hit": false,
      "t": 41347.815750000074,
      "d": 130.43475000000035,
      "v": 127
    },
    {
      "midi": 52,
      "hit": false,
      "t": 41478.250500000075,
      "d": 130.43475000000035,
      "v": 127
    },
    {
      "midi": 50,
      "hit": false,
      "t": 41608.685250000075,
      "d": 130.43475000000035,
      "v": 127
    },
    {
      "midi": 48,
      "hit": false,
      "t": 41739.120000000075,
      "d": 130.43475000000035,
      "v": 127
    },
    {
      "midi": 76,
      "hit": false,
      "t": 41739.12000000008,
      "d": 260.8695000000007,
      "v": 127
    },
    {
      "midi": 47,
      "hit": false,
      "t": 41869.554750000076,
      "d": 130.43475000000035,
      "v": 127
    },
    {
      "midi": 45,
      "hit": false,
      "t": 41999.989500000076,
      "d": 260.8695000000007,
      "v": 127
    },
    {
      "midi": 72,
      "hit": false,
      "t": 41999.98950000008,
      "d": 130.43475000000035,
      "v": 127
    },
    {
      "midi": 76,
      "hit": false,
      "t": 42130.424250000084,
      "d": 130.43475000000035,
      "v": 127
    },
    {
      "midi": 57,
      "hit": false,
      "t": 42260.85900000008,
      "d": 260.8695000000007,
      "v": 127
    },
    {
      "midi": 76,
      "hit": false,
      "t": 42260.859000000084,
      "d": 130.43475000000035,
      "v": 127
    },
    {
      "midi": 76,
      "hit": false,
      "t": 42391.293750000084,
      "d": 130.43475000000035,
      "v": 127
    },
    {
      "midi": 56,
      "hit": false,
      "t": 42521.72850000008,
      "d": 260.8695000000007,
      "v": 127
    },
    {
      "midi": 71,
      "hit": false,
      "t": 42521.728500000085,
      "d": 130.43475000000035,
      "v": 127
    },
    {
      "midi": 76,
      "hit": false,
      "t": 42652.163250000085,
      "d": 130.43475000000035,
      "v": 127
    },
    {
      "midi": 52,
      "hit": false,
      "t": 42782.59800000008,
      "d": 521.7390000000014,
      "v": 127
    },
    {
      "midi": 76,
      "hit": false,
      "t": 42782.598000000085,
      "d": 130.43475000000035,
      "v": 127
    },
    {
      "midi": 76,
      "hit": false,
      "t": 42913.032750000086,
      "d": 130.43475000000035,
      "v": 127
    },
    {
      "midi": 72,
      "hit": false,
      "t": 43043.467500000086,
      "d": 130.43475000000035,
      "v": 127
    },
    {
      "midi": 76,
      "hit": false,
      "t": 43173.90225000009,
      "d": 130.43475000000035,
      "v": 127
    },
    {
      "midi": 57,
      "hit": false,
      "t": 43304.33700000008,
      "d": 260.8695000000007,
      "v": 127
    },
    {
      "midi": 76,
      "hit": false,
      "t": 43304.33700000009,
      "d": 130.43475000000035,
      "v": 127
    },
    {
      "midi": 76,
      "hit": false,
      "t": 43434.77175000009,
      "d": 130.43475000000035,
      "v": 127
    },
    {
      "midi": 56,
      "hit": false,
      "t": 43565.20650000008,
      "d": 260.8695000000007,
      "v": 127
    },
    {
      "midi": 71,
      "hit": false,
      "t": 43565.20650000009,
      "d": 130.43475000000035,
      "v": 127
    },
    {
      "midi": 76,
      "hit": false,
      "t": 43695.64125000009,
      "d": 130.43475000000035,
      "v": 127
    },
    {
      "midi": 52,
      "hit": false,
      "t": 43826.07600000008,
      "d": 521.7390000000014,
      "v": 127
    },
    {
      "midi": 76,
      "hit": false,
      "t": 43826.07600000009,
      "d": 130.43475000000035,
      "v": 127
    },
    {
      "midi": 76,
      "hit": false,
      "t": 43956.51075000009,
      "d": 130.43475000000035,
      "v": 127
    },
    {
      "midi": 72,
      "hit": false,
      "t": 44086.94550000009,
      "d": 130.43475000000035,
      "v": 127
    },
    {
      "midi": 69,
      "hit": false,
      "t": 44217.38025000009,
      "d": 130.43475000000035,
      "v": 127
    },
    {
      "midi": 45,
      "hit": false,
      "t": 44347.81500000008,
      "d": 260.8695000000007,
      "v": 127
    },
    {
      "midi": 73,
      "hit": false,
      "t": 44347.81500000009,
      "d": 130.43475000000035,
      "v": 127
    },
    {
      "midi": 76,
      "hit": false,
      "t": 44478.24975000009,
      "d": 130.43475000000035,
      "v": 127
    },
    {
      "midi": 49,
      "hit": false,
      "t": 44608.68450000008,
      "d": 260.8695000000007,
      "v": 127
    },
    {
      "midi": 81,
      "hit": false,
      "t": 44608.68450000009,
      "d": 130.43475000000035,
      "v": 127
    },
    {
      "midi": 79,
      "hit": false,
      "t": 44739.11925000009,
      "d": 130.43475000000035,
      "v": 127
    },
    {
      "midi": 45,
      "hit": false,
      "t": 44869.554000000084,
      "d": 260.8695000000007,
      "v": 127
    },
    {
      "midi": 77,
      "hit": false,
      "t": 44869.55400000009,
      "d": 130.43475000000035,
      "v": 127
    },
    {
      "midi": 76,
      "hit": false,
      "t": 44999.98875000009,
      "d": 130.43475000000035,
      "v": 127
    },
    {
      "midi": 50,
      "hit": false,
      "t": 45130.423500000084,
      "d": 130.43475000000035,
      "v": 127
    },
    {
      "midi": 77,
      "hit": false,
      "t": 45130.42350000009,
      "d": 260.8695000000007,
      "v": 127
    },
    {
      "midi": 62,
      "hit": false,
      "t": 45260.858250000085,
      "d": 130.43475000000035,
      "v": 127
    },
    {
      "midi": 60,
      "hit": false,
      "t": 45391.293000000085,
      "d": 130.43475000000035,
      "v": 127
    },
    {
      "midi": 74,
      "hit": false,
      "t": 45391.29300000009,
      "d": 521.7390000000014,
      "v": 127
    },
    {
      "midi": 58,
      "hit": false,
      "t": 45521.727750000086,
      "d": 130.43475000000035,
      "v": 127
    },
    {
      "midi": 57,
      "hit": false,
      "t": 45652.162500000086,
      "d": 130.43475000000035,
      "v": 127
    },
    {
      "midi": 55,
      "hit": false,
      "t": 45782.597250000086,
      "d": 130.43475000000035,
      "v": 127
    },
    {
      "midi": 53,
      "hit": false,
      "t": 45913.03200000009,
      "d": 130.43475000000035,
      "v": 127
    },
    {
      "midi": 69,
      "hit": false,
      "t": 45913.032000000094,
      "d": 260.8695000000007,
      "v": 127
    },
    {
      "midi": 52,
      "hit": false,
      "t": 46043.46675000009,
      "d": 130.43475000000035,
      "v": 127
    },
    {
      "midi": 50,
      "hit": false,
      "t": 46173.90150000009,
      "d": 260.8695000000007,
      "v": 127
    },
    {
      "midi": 65,
      "hit": false,
      "t": 46173.901500000095,
      "d": 130.43475000000035,
      "v": 127
    },
    {
      "midi": 69,
      "hit": false,
      "t": 46304.336250000095,
      "d": 130.43475000000035,
      "v": 127
    },
    {
      "midi": 62,
      "hit": false,
      "t": 46434.77100000009,
      "d": 260.8695000000007,
      "v": 127
    },
    {
      "midi": 69,
      "hit": false,
      "t": 46434.771000000095,
      "d": 130.43475000000035,
      "v": 127
    },
    {
      "midi": 69,
      "hit": false,
      "t": 46565.205750000096,
      "d": 130.43475000000035,
      "v": 127
    },
    {
      "midi": 61,
      "hit": false,
      "t": 46695.64050000009,
      "d": 260.8695000000007,
      "v": 127
    },
    {
      "midi": 64,
      "hit": false,
      "t": 46695.640500000096,
      "d": 130.43475000000035,
      "v": 127
    },
    {
      "midi": 69,
      "hit": false,
      "t": 46826.075250000096,
      "d": 130.43475000000035,
      "v": 127
    },
    {
      "midi": 57,
      "hit": false,
      "t": 46956.51000000009,
      "d": 521.7390000000014,
      "v": 127
    },
    {
      "midi": 69,
      "hit": false,
      "t": 46956.5100000001,
      "d": 130.43475000000035,
      "v": 127
    },
    {
      "midi": 69,
      "hit": false,
      "t": 47086.9447500001,
      "d": 130.43475000000035,
      "v": 127
    },
    {
      "midi": 65,
      "hit": false,
      "t": 47217.3795000001,
      "d": 130.43475000000035,
      "v": 127
    },
    {
      "midi": 69,
      "hit": false,
      "t": 47347.8142500001,
      "d": 130.43475000000035,
      "v": 127
    },
    {
      "midi": 62,
      "hit": false,
      "t": 47478.24900000009,
      "d": 260.8695000000007,
      "v": 127
    },
    {
      "midi": 69,
      "hit": false,
      "t": 47478.2490000001,
      "d": 130.43475000000035,
      "v": 127
    },
    {
      "midi": 69,
      "hit": false,
      "t": 47608.6837500001,
      "d": 130.43475000000035,
      "v": 127
    },
    {
      "midi": 61,
      "hit": false,
      "t": 47739.11850000009,
      "d": 260.8695000000007,
      "v": 127
    },
    {
      "midi": 64,
      "hit": false,
      "t": 47739.1185000001,
      "d": 130.43475000000035,
      "v": 127
    },
    {
      "midi": 69,
      "hit": false,
      "t": 47869.5532500001,
      "d": 130.43475000000035,
      "v": 127
    },
    {
      "midi": 57,
      "hit": false,
      "t": 47999.98800000009,
      "d": 521.7390000000014,
      "v": 127
    },
    {
      "midi": 69,
      "hit": false,
      "t": 47999.9880000001,
      "d": 130.43475000000035,
      "v": 127
    },
    {
      "midi": 69,
      "hit": false,
      "t": 48130.4227500001,
      "d": 130.43475000000035,
      "v": 127
    },
    {
      "midi": 65,
      "hit": false,
      "t": 48260.8575000001,
      "d": 130.43475000000035,
      "v": 127
    },
    {
      "midi": 62,
      "hit": false,
      "t": 48391.2922500001,
      "d": 130.43475000000035,
      "v": 127
    },
    {
      "midi": 50,
      "hit": false,
      "t": 48521.72700000009,
      "d": 260.8695000000007,
      "v": 127
    },
    {
      "midi": 66,
      "hit": false,
      "t": 48521.7270000001,
      "d": 130.43475000000035,
      "v": 127
    },
    {
      "midi": 69,
      "hit": false,
      "t": 48652.1617500001,
      "d": 130.43475000000035,
      "v": 127
    },
    {
      "midi": 54,
      "hit": false,
      "t": 48782.596500000094,
      "d": 260.8695000000007,
      "v": 127
    },
    {
      "midi": 74,
      "hit": false,
      "t": 48782.5965000001,
      "d": 130.43475000000035,
      "v": 127
    },
    {
      "midi": 72,
      "hit": false,
      "t": 48913.0312500001,
      "d": 130.43475000000035,
      "v": 127
    },
    {
      "midi": 50,
      "hit": false,
      "t": 49043.466000000095,
      "d": 260.8695000000007,
      "v": 127
    },
    {
      "midi": 70,
      "hit": false,
      "t": 49043.4660000001,
      "d": 130.43475000000035,
      "v": 127
    },
    {
      "midi": 69,
      "hit": false,
      "t": 49173.9007500001,
      "d": 130.43475000000035,
      "v": 127
    },
    {
      "midi": 43,
      "hit": false,
      "t": 49304.335500000096,
      "d": 130.43475000000035,
      "v": 127
    },
    {
      "midi": 70,
      "hit": false,
      "t": 49304.3355000001,
      "d": 260.8695000000007,
      "v": 127
    },
    {
      "midi": 55,
      "hit": false,
      "t": 49434.770250000096,
      "d": 130.43475000000035,
      "v": 127
    },
    {
      "midi": 54,
      "hit": false,
      "t": 49565.205000000096,
      "d": 130.43475000000035,
      "v": 127
    },
    {
      "midi": 67,
      "hit": false,
      "t": 49565.2050000001,
      "d": 521.7390000000014,
      "v": 127
    },
    {
      "midi": 51,
      "hit": false,
      "t": 49695.6397500001,
      "d": 130.43475000000035,
      "v": 127
    },
    {
      "midi": 50,
      "hit": false,
      "t": 49826.0745000001,
      "d": 130.43475000000035,
      "v": 127
    },
    {
      "midi": 48,
      "hit": false,
      "t": 49956.5092500001,
      "d": 130.43475000000035,
      "v": 127
    },
    {
      "midi": 46,
      "hit": false,
      "t": 50086.9440000001,
      "d": 130.43475000000035,
      "v": 127
    },
    {
      "midi": 62,
      "hit": false,
      "t": 50086.944000000105,
      "d": 260.8695000000007,
      "v": 127
    },
    {
      "midi": 45,
      "hit": false,
      "t": 50217.3787500001,
      "d": 130.43475000000035,
      "v": 127
    },
    {
      "midi": 43,
      "hit": false,
      "t": 50347.8135000001,
      "d": 782.6085000000021,
      "v": 127
    },
    {
      "midi": 67,
      "hit": false,
      "t": 50347.813500000106,
      "d": 130.43475000000035,
      "v": 127
    },
    {
      "midi": 69,
      "hit": false,
      "t": 50478.248250000106,
      "d": 130.43475000000035,
      "v": 127
    },
    {
      "midi": 70,
      "hit": false,
      "t": 50608.68300000011,
      "d": 130.43475000000035,
      "v": 127
    },
    {
      "midi": 72,
      "hit": false,
      "t": 50739.11775000011,
      "d": 130.43475000000035,
      "v": 127
    },
    {
      "midi": 74,
      "hit": false,
      "t": 50869.55250000011,
      "d": 260.8695000000007,
      "v": 127
    },
    {
      "midi": 39,
      "hit": false,
      "t": 51130.4220000001,
      "d": 260.8695000000007,
      "v": 127
    },
    {
      "midi": 67,
      "hit": false,
      "t": 51130.42200000011,
      "d": 260.8695000000007,
      "v": 127
    },
    {
      "midi": 38,
      "hit": false,
      "t": 51391.2915000001,
      "d": 782.6085000000021,
      "v": 127
    },
    {
      "midi": 66,
      "hit": false,
      "t": 51391.29150000011,
      "d": 260.8695000000007,
      "v": 127
    },
    {
      "midi": 75,
      "hit": false,
      "t": 51652.16100000011,
      "d": 260.8695000000007,
      "v": 127
    },
    {
      "midi": 74,
      "hit": false,
      "t": 51913.03050000011,
      "d": 260.8695000000007,
      "v": 127
    },
    {
      "midi": 42,
      "hit": false,
      "t": 52173.9000000001,
      "d": 260.8695000000007,
      "v": 127
    },
    {
      "midi": 72,
      "hit": false,
      "t": 52173.90000000011,
      "d": 260.8695000000007,
      "v": 127
    },
    {
      "midi": 43,
      "hit": false,
      "t": 52434.769500000104,
      "d": 130.43475000000035,
      "v": 127
    },
    {
      "midi": 70,
      "hit": false,
      "t": 52434.76950000011,
      "d": 260.8695000000007,
      "v": 127
    },
    {
      "midi": 45,
      "hit": false,
      "t": 52565.204250000104,
      "d": 130.43475000000035,
      "v": 127
    },
    {
      "midi": 46,
      "hit": false,
      "t": 52695.639000000105,
      "d": 130.43475000000035,
      "v": 127
    },
    {
      "midi": 67,
      "hit": false,
      "t": 52695.63900000011,
      "d": 130.43475000000035,
      "v": 127
    },
    {
      "midi": 45,
      "hit": false,
      "t": 52826.073750000105,
      "d": 130.43475000000035,
      "v": 127
    },
    {
      "midi": 69,
      "hit": false,
      "t": 52826.07375000011,
      "d": 130.43475000000035,
      "v": 127
    },
    {
      "midi": 43,
      "hit": false,
      "t": 52956.508500000105,
      "d": 260.8695000000007,
      "v": 127
    },
    {
      "midi": 70,
      "hit": false,
      "t": 52956.50850000011,
      "d": 130.43475000000035,
      "v": 127
    },
    {
      "midi": 72,
      "hit": false,
      "t": 53086.94325000011,
      "d": 130.43475000000035,
      "v": 127
    },
    {
      "midi": 48,
      "hit": false,
      "t": 53217.378000000106,
      "d": 260.8695000000007,
      "v": 127
    },
    {
      "midi": 74,
      "hit": false,
      "t": 53217.37800000011,
      "d": 130.43475000000035,
      "v": 127
    },
    {
      "midi": 75,
      "hit": false,
      "t": 53347.812750000114,
      "d": 130.43475000000035,
      "v": 127
    },
    {
      "midi": 50,
      "hit": false,
      "t": 53478.24750000011,
      "d": 782.6085000000021,
      "v": 127
    },
    {
      "midi": 66,
      "hit": false,
      "t": 53478.247500000114,
      "d": 260.8695000000007,
      "v": 127
    },
    {
      "midi": 75,
      "hit": false,
      "t": 53739.117000000115,
      "d": 260.8695000000007,
      "v": 127
    },
    {
      "midi": 74,
      "hit": false,
      "t": 53999.986500000115,
      "d": 260.8695000000007,
      "v": 127
    },
    {
      "midi": 42,
      "hit": false,
      "t": 54260.85600000011,
      "d": 260.8695000000007,
      "v": 127
    },
    {
      "midi": 72,
      "hit": false,
      "t": 54260.856000000116,
      "d": 260.8695000000007,
      "v": 127
    },
    {
      "midi": 43,
      "hit": false,
      "t": 54521.72550000011,
      "d": 130.43475000000035,
      "v": 127
    },
    {
      "midi": 70,
      "hit": false,
      "t": 54521.72550000012,
      "d": 260.8695000000007,
      "v": 127
    },
    {
      "midi": 45,
      "hit": false,
      "t": 54652.16025000011,
      "d": 130.43475000000035,
      "v": 127
    },
    {
      "midi": 46,
      "hit": false,
      "t": 54782.59500000011,
      "d": 130.43475000000035,
      "v": 127
    },
    {
      "midi": 74,
      "hit": false,
      "t": 54782.59500000012,
      "d": 130.43475000000035,
      "v": 127
    },
    {
      "midi": 45,
      "hit": false,
      "t": 54913.02975000011,
      "d": 130.43475000000035,
      "v": 127
    },
    {
      "midi": 72,
      "hit": false,
      "t": 54913.02975000012,
      "d": 130.43475000000035,
      "v": 127
    },
    {
      "midi": 43,
      "hit": false,
      "t": 55043.46450000011,
      "d": 260.8695000000007,
      "v": 127
    },
    {
      "midi": 70,
      "hit": false,
      "t": 55043.46450000012,
      "d": 130.43475000000035,
      "v": 127
    },
    {
      "midi": 69,
      "hit": false,
      "t": 55173.89925000012,
      "d": 130.43475000000035,
      "v": 127
    },
    {
      "midi": 46,
      "hit": false,
      "t": 55304.33400000011,
      "d": 260.8695000000007,
      "v": 127
    },
    {
      "midi": 67,
      "hit": false,
      "t": 55304.33400000012,
      "d": 130.43475000000035,
      "v": 127
    },
    {
      "midi": 65,
      "hit": false,
      "t": 55434.76875000012,
      "d": 130.43475000000035,
      "v": 127
    },
    {
      "midi": 48,
      "hit": false,
      "t": 55565.20350000011,
      "d": 782.6085000000021,
      "v": 127
    },
    {
      "midi": 64,
      "hit": false,
      "t": 55565.20350000012,
      "d": 260.8695000000007,
      "v": 127
    },
    {
      "midi": 74,
      "hit": false,
      "t": 55826.07300000012,
      "d": 260.8695000000007,
      "v": 127
    },
    {
      "midi": 72,
      "hit": false,
      "t": 56086.94250000012,
      "d": 260.8695000000007,
      "v": 127
    },
    {
      "midi": 40,
      "hit": false,
      "t": 56347.812000000114,
      "d": 260.8695000000007,
      "v": 127
    },
    {
      "midi": 70,
      "hit": false,
      "t": 56347.81200000012,
      "d": 260.8695000000007,
      "v": 127
    },
    {
      "midi": 41,
      "hit": false,
      "t": 56608.681500000115,
      "d": 130.43475000000035,
      "v": 127
    },
    {
      "midi": 69,
      "hit": false,
      "t": 56608.68150000012,
      "d": 260.8695000000007,
      "v": 127
    },
    {
      "midi": 43,
      "hit": false,
      "t": 56739.116250000116,
      "d": 130.43475000000035,
      "v": 127
    },
    {
      "midi": 45,
      "hit": false,
      "t": 56869.551000000116,
      "d": 130.43475000000035,
      "v": 127
    },
    {
      "midi": 65,
      "hit": false,
      "t": 56869.55100000012,
      "d": 130.43475000000035,
      "v": 127
    },
    {
      "midi": 43,
      "hit": false,
      "t": 56999.985750000116,
      "d": 130.43475000000035,
      "v": 127
    },
    {
      "midi": 67,
      "hit": false,
      "t": 56999.98575000012,
      "d": 130.43475000000035,
      "v": 127
    },
    {
      "midi": 41,
      "hit": false,
      "t": 57130.42050000012,
      "d": 260.8695000000007,
      "v": 127
    },
    {
      "midi": 69,
      "hit": false,
      "t": 57130.420500000124,
      "d": 130.43475000000035,
      "v": 127
    },
    {
      "midi": 70,
      "hit": false,
      "t": 57260.855250000124,
      "d": 130.43475000000035,
      "v": 127
    },
    {
      "midi": 46,
      "hit": false,
      "t": 57391.29000000012,
      "d": 260.8695000000007,
      "v": 127
    },
    {
      "midi": 72,
      "hit": false,
      "t": 57391.290000000125,
      "d": 130.43475000000035,
      "v": 127
    },
    {
      "midi": 74,
      "hit": false,
      "t": 57521.724750000125,
      "d": 130.43475000000035,
      "v": 127
    },
    {
      "midi": 48,
      "hit": false,
      "t": 57652.15950000012,
      "d": 782.6085000000021,
      "v": 127
    },
    {
      "midi": 64,
      "hit": false,
      "t": 57652.159500000125,
      "d": 260.8695000000007,
      "v": 127
    },
    {
      "midi": 74,
      "hit": false,
      "t": 57913.029000000126,
      "d": 260.8695000000007,
      "v": 127
    },
    {
      "midi": 72,
      "hit": false,
      "t": 58173.89850000013,
      "d": 260.8695000000007,
      "v": 127
    },
    {
      "midi": 52,
      "hit": false,
      "t": 58434.76800000012,
      "d": 260.8695000000007,
      "v": 127
    },
    {
      "midi": 70,
      "hit": false,
      "t": 58434.76800000013,
      "d": 260.8695000000007,
      "v": 127
    },
    {
      "midi": 53,
      "hit": false,
      "t": 58695.63750000012,
      "d": 260.8695000000007,
      "v": 127
    },
    {
      "midi": 69,
      "hit": false,
      "t": 58695.63750000013,
      "d": 130.43475000000035,
      "v": 127
    },
    {
      "midi": 77,
      "hit": false,
      "t": 58826.07225000013,
      "d": 130.43475000000035,
      "v": 127
    },
    {
      "midi": 45,
      "hit": false,
      "t": 58956.50700000012,
      "d": 260.8695000000007,
      "v": 127
    },
    {
      "midi": 76,
      "hit": false,
      "t": 58956.50700000013,
      "d": 130.43475000000035,
      "v": 127
    },
    {
      "midi": 77,
      "hit": false,
      "t": 59086.94175000013,
      "d": 130.43475000000035,
      "v": 127
    },
    {
      "midi": 53,
      "hit": false,
      "t": 59217.37650000012,
      "d": 260.8695000000007,
      "v": 127
    },
    {
      "midi": 72,
      "hit": false,
      "t": 59217.37650000013,
      "d": 130.43475000000035,
      "v": 127
    },
    {
      "midi": 77,
      "hit": false,
      "t": 59347.81125000013,
      "d": 130.43475000000035,
      "v": 127
    },
    {
      "midi": 45,
      "hit": false,
      "t": 59478.24600000012,
      "d": 521.7390000000014,
      "v": 127
    },
    {
      "midi": 76,
      "hit": false,
      "t": 59478.24600000013,
      "d": 130.43475000000035,
      "v": 127
    },
    {
      "midi": 77,
      "hit": false,
      "t": 59608.68075000013,
      "d": 130.43475000000035,
      "v": 127
    },
    {
      "midi": 74,
      "hit": false,
      "t": 59739.11550000013,
      "d": 130.43475000000035,
      "v": 127
    },
    {
      "midi": 77,
      "hit": false,
      "t": 59869.55025000013,
      "d": 130.43475000000035,
      "v": 127
    },
    {
      "midi": 46,
      "hit": false,
      "t": 59999.985000000124,
      "d": 521.7390000000014,
      "v": 127
    },
    {
      "midi": 76,
      "hit": false,
      "t": 59999.98500000013,
      "d": 130.43475000000035,
      "v": 127
    },
    {
      "midi": 77,
      "hit": false,
      "t": 60130.41975000013,
      "d": 130.43475000000035,
      "v": 127
    },
    {
      "midi": 72,
      "hit": false,
      "t": 60260.85450000013,
      "d": 130.43475000000035,
      "v": 127
    },
    {
      "midi": 77,
      "hit": false,
      "t": 60391.28925000013,
      "d": 130.43475000000035,
      "v": 127
    },
    {
      "midi": 45,
      "hit": false,
      "t": 60521.724000000126,
      "d": 521.7390000000014,
      "v": 127
    },
    {
      "midi": 76,
      "hit": false,
      "t": 60521.72400000013,
      "d": 130.43475000000035,
      "v": 127
    },
    {
      "midi": 77,
      "hit": false,
      "t": 60652.15875000013,
      "d": 130.43475000000035,
      "v": 127
    },
    {
      "midi": 74,
      "hit": false,
      "t": 60782.593500000134,
      "d": 130.43475000000035,
      "v": 127
    },
    {
      "midi": 77,
      "hit": false,
      "t": 60913.028250000134,
      "d": 130.43475000000035,
      "v": 127
    },
    {
      "midi": 46,
      "hit": false,
      "t": 61043.46300000013,
      "d": 521.7390000000014,
      "v": 127
    },
    {
      "midi": 76,
      "hit": false,
      "t": 61043.463000000134,
      "d": 130.43475000000035,
      "v": 127
    },
    {
      "midi": 77,
      "hit": false,
      "t": 61173.897750000135,
      "d": 130.43475000000035,
      "v": 127
    },
    {
      "midi": 72,
      "hit": false,
      "t": 61304.332500000135,
      "d": 130.43475000000035,
      "v": 127
    },
    {
      "midi": 77,
      "hit": false,
      "t": 61434.767250000135,
      "d": 130.43475000000035,
      "v": 127
    },
    {
      "midi": 45,
      "hit": false,
      "t": 61565.20200000013,
      "d": 260.8695000000007,
      "v": 127
    },
    {
      "midi": 76,
      "hit": false,
      "t": 61565.202000000136,
      "d": 130.43475000000035,
      "v": 127
    },
    {
      "midi": 77,
      "hit": false,
      "t": 61695.636750000136,
      "d": 130.43475000000035,
      "v": 127
    },
    {
      "midi": 43,
      "hit": false,
      "t": 61826.07150000013,
      "d": 260.8695000000007,
      "v": 127
    },
    {
      "midi": 70,
      "hit": false,
      "t": 61826.07150000014,
      "d": 130.43475000000035,
      "v": 127
    },
    {
      "midi": 77,
      "hit": false,
      "t": 61956.50625000014,
      "d": 130.43475000000035,
      "v": 127
    },
    {
      "midi": 48,
      "hit": false,
      "t": 62086.94100000013,
      "d": 260.8695000000007,
      "v": 127
    },
    {
      "midi": 76,
      "hit": false,
      "t": 62086.94100000014,
      "d": 130.43475000000035,
      "v": 127
    },
    {
      "midi": 77,
      "hit": false,
      "t": 62217.37575000014,
      "d": 130.43475000000035,
      "v": 127
    },
    {
      "midi": 41,
      "hit": false,
      "t": 62347.81050000013,
      "d": 260.8695000000007,
      "v": 127
    },
    {
      "midi": 69,
      "hit": false,
      "t": 62347.81050000014,
      "d": 130.43475000000035,
      "v": 127
    },
    {
      "midi": 77,
      "hit": false,
      "t": 62478.24525000014,
      "d": 130.43475000000035,
      "v": 127
    },
    {
      "midi": 45,
      "hit": false,
      "t": 62608.68000000013,
      "d": 521.7390000000014,
      "v": 127
    },
    {
      "midi": 76,
      "hit": false,
      "t": 62608.68000000014,
      "d": 130.43475000000035,
      "v": 127
    },
    {
      "midi": 77,
      "hit": false,
      "t": 62739.11475000014,
      "d": 130.43475000000035,
      "v": 127
    },
    {
      "midi": 74,
      "hit": false,
      "t": 62869.54950000014,
      "d": 130.43475000000035,
      "v": 127
    },
    {
      "midi": 77,
      "hit": false,
      "t": 62999.98425000014,
      "d": 130.43475000000035,
      "v": 127
    },
    {
      "midi": 46,
      "hit": false,
      "t": 63130.41900000013,
      "d": 521.7390000000014,
      "v": 127
    },
    {
      "midi": 76,
      "hit": false,
      "t": 63130.41900000014,
      "d": 130.43475000000035,
      "v": 127
    },
    {
      "midi": 77,
      "hit": false,
      "t": 63260.85375000014,
      "d": 130.43475000000035,
      "v": 127
    },
    {
      "midi": 72,
      "hit": false,
      "t": 63391.28850000014,
      "d": 130.43475000000035,
      "v": 127
    },
    {
      "midi": 77,
      "hit": false,
      "t": 63521.72325000014,
      "d": 130.43475000000035,
      "v": 127
    },
    {
      "midi": 45,
      "hit": false,
      "t": 63652.158000000134,
      "d": 260.8695000000007,
      "v": 127
    },
    {
      "midi": 76,
      "hit": false,
      "t": 63652.15800000014,
      "d": 130.43475000000035,
      "v": 127
    },
    {
      "midi": 77,
      "hit": false,
      "t": 63782.59275000014,
      "d": 130.43475000000035,
      "v": 127
    },
    {
      "midi": 43,
      "hit": false,
      "t": 63913.027500000135,
      "d": 260.8695000000007,
      "v": 127
    },
    {
      "midi": 70,
      "hit": false,
      "t": 63913.02750000014,
      "d": 130.43475000000035,
      "v": 127
    },
    {
      "midi": 77,
      "hit": false,
      "t": 64043.46225000014,
      "d": 130.43475000000035,
      "v": 127
    },
    {
      "midi": 48,
      "hit": false,
      "t": 64173.897000000135,
      "d": 260.8695000000007,
      "v": 127
    },
    {
      "midi": 76,
      "hit": false,
      "t": 64173.89700000014,
      "d": 130.43475000000035,
      "v": 127
    },
    {
      "midi": 77,
      "hit": false,
      "t": 64304.33175000014,
      "d": 130.43475000000035,
      "v": 127
    },
    {
      "midi": 41,
      "hit": false,
      "t": 64434.766500000136,
      "d": 260.8695000000007,
      "v": 127
    },
    {
      "midi": 69,
      "hit": false,
      "t": 64434.76650000014,
      "d": 130.43475000000035,
      "v": 127
    },
    {
      "midi": 77,
      "hit": false,
      "t": 64565.201250000144,
      "d": 130.43475000000035,
      "v": 127
    },
    {
      "midi": 48,
      "hit": false,
      "t": 64695.63600000014,
      "d": 260.8695000000007,
      "v": 127
    },
    {
      "midi": 76,
      "hit": false,
      "t": 64695.636000000144,
      "d": 130.43475000000035,
      "v": 127
    },
    {
      "midi": 77,
      "hit": false,
      "t": 64826.070750000144,
      "d": 130.43475000000035,
      "v": 127
    },
    {
      "midi": 50,
      "hit": false,
      "t": 64956.50550000014,
      "d": 260.8695000000007,
      "v": 127
    },
    {
      "midi": 70,
      "hit": false,
      "t": 64956.505500000145,
      "d": 130.43475000000035,
      "v": 127
    },
    {
      "midi": 77,
      "hit": false,
      "t": 65086.940250000145,
      "d": 130.43475000000035,
      "v": 127
    },
    {
      "midi": 46,
      "hit": false,
      "t": 65217.37500000014,
      "d": 260.8695000000007,
      "v": 127
    },
    {
      "midi": 76,
      "hit": false,
      "t": 65217.375000000146,
      "d": 130.43475000000035,
      "v": 127
    },
    {
      "midi": 77,
      "hit": false,
      "t": 65347.809750000146,
      "d": 130.43475000000035,
      "v": 127
    },
    {
      "midi": 48,
      "hit": false,
      "t": 65478.24450000014,
      "d": 260.8694999999934,
      "v": 127
    },
    {
      "midi": 72,
      "hit": false,
      "t": 65478.244500000146,
      "d": 260.8695000000007,
      "v": 127
    },
    {
      "midi": 36,
      "hit": false,
      "t": 65739.11400000013,
      "d": 260.8695000000007,
      "v": 127
    },
    {
      "midi": 76,
      "hit": false,
      "t": 65739.11400000015,
      "d": 260.8695000000007,
      "v": 127
    },
    {
      "midi": 41,
      "hit": false,
      "t": 65999.98350000013,
      "d": 130.43475000000035,
      "v": 127
    },
    {
      "midi": 77,
      "hit": false,
      "t": 65999.98350000015,
      "d": 260.8695000000007,
      "v": 127
    },
    {
      "midi": 43,
      "hit": false,
      "t": 66130.41825000013,
      "d": 130.43475000000035,
      "v": 127
    },
    {
      "midi": 45,
      "hit": false,
      "t": 66260.85300000013,
      "d": 130.43475000000035,
      "v": 127
    },
    {
      "midi": 65,
      "hit": false,
      "t": 66260.85300000015,
      "d": 521.7390000000014,
      "v": 127
    },
    {
      "midi": 43,
      "hit": false,
      "t": 66391.28775000013,
      "d": 130.43475000000035,
      "v": 127
    },
    {
      "midi": 41,
      "hit": false,
      "t": 66521.72250000013,
      "d": 260.8695000000007,
      "v": 127
    },
    {
      "midi": 53,
      "hit": false,
      "t": 66782.59200000014,
      "d": 521.7390000000014,
      "v": 127
    },
    {
      "midi": 72,
      "hit": false,
      "t": 66782.59200000015,
      "d": 260.8695000000007,
      "v": 127
    },
    {
      "midi": 77,
      "hit": false,
      "t": 67043.46150000015,
      "d": 130.43475000000035,
      "v": 127
    },
    {
      "midi": 79,
      "hit": false,
      "t": 67173.89625000015,
      "d": 130.43475000000035,
      "v": 127
    },
    {
      "midi": 41,
      "hit": false,
      "t": 67304.33100000014,
      "d": 260.8695000000007,
      "v": 127
    },
    {
      "midi": 81,
      "hit": false,
      "t": 67304.33100000015,
      "d": 130.43475000000035,
      "v": 127
    },
    {
      "midi": 79,
      "hit": false,
      "t": 67434.76575000015,
      "d": 130.43475000000035,
      "v": 127
    },
    {
      "midi": 45,
      "hit": false,
      "t": 67565.20050000014,
      "d": 260.8695000000007,
      "v": 127
    },
    {
      "midi": 77,
      "hit": false,
      "t": 67565.20050000015,
      "d": 260.8695000000007,
      "v": 127
    },
    {
      "midi": 41,
      "hit": false,
      "t": 67826.07000000014,
      "d": 521.7390000000014,
      "v": 127
    },
    {
      "midi": 72,
      "hit": false,
      "t": 67826.07000000015,
      "d": 260.8695000000007,
      "v": 127
    },
    {
      "midi": 79,
      "hit": false,
      "t": 68086.93950000015,
      "d": 130.43475000000035,
      "v": 127
    },
    {
      "midi": 81,
      "hit": false,
      "t": 68217.37425000015,
      "d": 130.43475000000035,
      "v": 127
    },
    {
      "midi": 40,
      "hit": false,
      "t": 68347.80900000014,
      "d": 260.8695000000007,
      "v": 127
    },
    {
      "midi": 82,
      "hit": false,
      "t": 68347.80900000015,
      "d": 130.43475000000035,
      "v": 127
    },
    {
      "midi": 81,
      "hit": false,
      "t": 68478.24375000015,
      "d": 130.43475000000035,
      "v": 127
    },
    {
      "midi": 48,
      "hit": false,
      "t": 68608.67850000014,
      "d": 260.8695000000007,
      "v": 127
    },
    {
      "midi": 79,
      "hit": false,
      "t": 68608.67850000015,
      "d": 260.8695000000007,
      "v": 127
    },
    {
      "midi": 36,
      "hit": false,
      "t": 68869.54800000014,
      "d": 260.8695000000007,
      "v": 127
    },
    {
      "midi": 72,
      "hit": false,
      "t": 68869.54800000016,
      "d": 260.8695000000007,
      "v": 127
    },
    {
      "midi": 41,
      "hit": false,
      "t": 69130.41750000014,
      "d": 260.8695000000007,
      "v": 127
    },
    {
      "midi": 81,
      "hit": false,
      "t": 69130.41750000016,
      "d": 260.8695000000007,
      "v": 127
    },
    {
      "midi": 45,
      "hit": false,
      "t": 69391.28700000014,
      "d": 260.8695000000007,
      "v": 127
    },
    {
      "midi": 79,
      "hit": false,
      "t": 69391.28700000016,
      "d": 130.43475000000035,
      "v": 127
    },
    {
      "midi": 77,
      "hit": false,
      "t": 69521.72175000016,
      "d": 130.43475000000035,
      "v": 127
    },
    {
      "midi": 43,
      "hit": false,
      "t": 69652.15650000014,
      "d": 260.8695000000007,
      "v": 127
    },
    {
      "midi": 76,
      "hit": false,
      "t": 69652.15650000016,
      "d": 260.8695000000007,
      "v": 127
    },
    {
      "midi": 41,
      "hit": false,
      "t": 69913.02600000014,
      "d": 260.8695000000007,
      "v": 127
    },
    {
      "midi": 77,
      "hit": false,
      "t": 69913.02600000016,
      "d": 260.8695000000007,
      "v": 127
    },
    {
      "midi": 36,
      "hit": false,
      "t": 70173.89550000014,
      "d": 260.8695000000007,
      "v": 127
    },
    {
      "midi": 79,
      "hit": false,
      "t": 70173.89550000016,
      "d": 130.43475000000035,
      "v": 127
    },
    {
      "midi": 77,
      "hit": false,
      "t": 70304.33025000016,
      "d": 130.43475000000035,
      "v": 127
    },
    {
      "midi": 48,
      "hit": false,
      "t": 70434.76500000014,
      "d": 130.43475000000035,
      "v": 127
    },
    {
      "midi": 76,
      "hit": false,
      "t": 70434.76500000016,
      "d": 130.43475000000035,
      "v": 127
    },
    {
      "midi": 50,
      "hit": false,
      "t": 70565.19975000015,
      "d": 130.43475000000035,
      "v": 127
    },
    {
      "midi": 74,
      "hit": false,
      "t": 70565.19975000016,
      "d": 130.43475000000035,
      "v": 127
    },
    {
      "midi": 52,
      "hit": false,
      "t": 70695.63450000015,
      "d": 260.8695000000007,
      "v": 127
    },
    {
      "midi": 72,
      "hit": false,
      "t": 70695.63450000016,
      "d": 260.8695000000007,
      "v": 127
    },
    {
      "midi": 48,
      "hit": false,
      "t": 70956.50400000015,
      "d": 521.7390000000014,
      "v": 127
    },
    {
      "midi": 72,
      "hit": false,
      "t": 70956.50400000016,
      "d": 260.8695000000007,
      "v": 127
    },
    {
      "midi": 77,
      "hit": false,
      "t": 71217.37350000016,
      "d": 130.43475000000035,
      "v": 127
    },
    {
      "midi": 79,
      "hit": false,
      "t": 71347.80825000016,
      "d": 130.43475000000035,
      "v": 127
    },
    {
      "midi": 41,
      "hit": false,
      "t": 71478.24300000015,
      "d": 260.8695000000007,
      "v": 127
    },
    {
      "midi": 80,
      "hit": false,
      "t": 71478.24300000016,
      "d": 130.43475000000035,
      "v": 127
    },
    {
      "midi": 79,
      "hit": false,
      "t": 71608.67775000016,
      "d": 130.43475000000035,
      "v": 127
    },
    {
      "midi": 44,
      "hit": false,
      "t": 71739.11250000015,
      "d": 260.8695000000007,
      "v": 127
    },
    {
      "midi": 77,
      "hit": false,
      "t": 71739.11250000016,
      "d": 260.8695000000007,
      "v": 127
    },
    {
      "midi": 41,
      "hit": false,
      "t": 71999.98200000015,
      "d": 521.7390000000014,
      "v": 127
    },
    {
      "midi": 72,
      "hit": false,
      "t": 71999.98200000016,
      "d": 260.8695000000007,
      "v": 127
    },
    {
      "midi": 79,
      "hit": false,
      "t": 72260.85150000016,
      "d": 130.43475000000035,
      "v": 127
    },
    {
      "midi": 80,
      "hit": false,
      "t": 72391.28625000016,
      "d": 130.43475000000035,
      "v": 127
    },
    {
      "midi": 40,
      "hit": false,
      "t": 72521.72100000015,
      "d": 260.8695000000007,
      "v": 127
    },
    {
      "midi": 82,
      "hit": false,
      "t": 72521.72100000017,
      "d": 130.43475000000035,
      "v": 127
    },
    {
      "midi": 80,
      "hit": false,
      "t": 72652.15575000017,
      "d": 130.43475000000035,
      "v": 127
    },
    {
      "midi": 48,
      "hit": false,
      "t": 72782.59050000015,
      "d": 260.8695000000007,
      "v": 127
    },
    {
      "midi": 79,
      "hit": false,
      "t": 72782.59050000017,
      "d": 260.8695000000007,
      "v": 127
    },
    {
      "midi": 40,
      "hit": false,
      "t": 73043.46000000015,
      "d": 260.8695000000007,
      "v": 127
    },
    {
      "midi": 72,
      "hit": false,
      "t": 73043.46000000017,
      "d": 260.8695000000007,
      "v": 127
    },
    {
      "midi": 41,
      "hit": false,
      "t": 73304.32950000015,
      "d": 260.8695000000007,
      "v": 127
    },
    {
      "midi": 80,
      "hit": false,
      "t": 73304.32950000017,
      "d": 260.8695000000007,
      "v": 127
    },
    {
      "midi": 44,
      "hit": false,
      "t": 73565.19900000015,
      "d": 260.8695000000007,
      "v": 127
    },
    {
      "midi": 79,
      "hit": false,
      "t": 73565.19900000017,
      "d": 130.43475000000035,
      "v": 127
    },
    {
      "midi": 77,
      "hit": false,
      "t": 73695.63375000017,
      "d": 130.43475000000035,
      "v": 127
    },
    {
      "midi": 43,
      "hit": false,
      "t": 73826.06850000015,
      "d": 260.8695000000007,
      "v": 127
    },
    {
      "midi": 76,
      "hit": false,
      "t": 73826.06850000017,
      "d": 260.8695000000007,
      "v": 127
    },
    {
      "midi": 41,
      "hit": false,
      "t": 74086.93800000015,
      "d": 260.8695000000007,
      "v": 127
    },
    {
      "midi": 77,
      "hit": false,
      "t": 74086.93800000017,
      "d": 260.8695000000007,
      "v": 127
    },
    {
      "midi": 36,
      "hit": false,
      "t": 74347.80750000016,
      "d": 260.8695000000007,
      "v": 127
    },
    {
      "midi": 79,
      "hit": false,
      "t": 74347.80750000017,
      "d": 130.43475000000035,
      "v": 127
    },
    {
      "midi": 77,
      "hit": false,
      "t": 74478.24225000017,
      "d": 130.43475000000035,
      "v": 127
    },
    {
      "midi": 48,
      "hit": false,
      "t": 74608.67700000016,
      "d": 130.43475000000035,
      "v": 127
    },
    {
      "midi": 76,
      "hit": false,
      "t": 74608.67700000017,
      "d": 130.43475000000035,
      "v": 127
    },
    {
      "midi": 50,
      "hit": false,
      "t": 74739.11175000016,
      "d": 130.43475000000035,
      "v": 127
    },
    {
      "midi": 74,
      "hit": false,
      "t": 74739.11175000017,
      "d": 130.43475000000035,
      "v": 127
    },
    {
      "midi": 52,
      "hit": false,
      "t": 74869.54650000016,
      "d": 260.8695000000007,
      "v": 127
    },
    {
      "midi": 72,
      "hit": false,
      "t": 74869.54650000017,
      "d": 260.8695000000007,
      "v": 127
    },
    {
      "midi": 48,
      "hit": false,
      "t": 75130.41600000016,
      "d": 260.8695000000007,
      "v": 127
    },
    {
      "midi": 72,
      "hit": false,
      "t": 75130.41600000017,
      "d": 130.43475000000035,
      "v": 127
    },
    {
      "midi": 70,
      "hit": false,
      "t": 75260.85075000017,
      "d": 130.43475000000035,
      "v": 127
    },
    {
      "midi": 53,
      "hit": false,
      "t": 75391.28550000016,
      "d": 130.43475000000035,
      "v": 127
    },
    {
      "midi": 68,
      "hit": false,
      "t": 75391.28550000017,
      "d": 260.8695000000007,
      "v": 127
    },
    {
      "midi": 55,
      "hit": false,
      "t": 75521.72025000016,
      "d": 130.43475000000035,
      "v": 127
    },
    {
      "midi": 56,
      "hit": false,
      "t": 75652.15500000016,
      "d": 130.43475000000035,
      "v": 127
    },
    {
      "midi": 72,
      "hit": false,
      "t": 75652.15500000017,
      "d": 260.8695000000007,
      "v": 127
    },
    {
      "midi": 55,
      "hit": false,
      "t": 75782.58975000016,
      "d": 130.43475000000035,
      "v": 127
    },
    {
      "midi": 53,
      "hit": false,
      "t": 75913.02450000016,
      "d": 260.8695000000007,
      "v": 127
    },
    {
      "midi": 65,
      "hit": false,
      "t": 75913.02450000017,
      "d": 260.8695000000007,
      "v": 127
    },
    {
      "midi": 46,
      "hit": false,
      "t": 76173.89400000016,
      "d": 260.8695000000007,
      "v": 127
    },
    {
      "midi": 73,
      "hit": false,
      "t": 76173.89400000017,
      "d": 260.8695000000007,
      "v": 127
    },
    {
      "midi": 48,
      "hit": false,
      "t": 76434.76350000016,
      "d": 782.6085000000021,
      "v": 127
    },
    {
      "midi": 64,
      "hit": false,
      "t": 76434.76350000018,
      "d": 260.8695000000007,
      "v": 127
    },
    {
      "midi": 73,
      "hit": false,
      "t": 76695.63300000018,
      "d": 260.8695000000007,
      "v": 127
    },
    {
      "midi": 72,
      "hit": false,
      "t": 76956.50250000018,
      "d": 260.8695000000007,
      "v": 127
    },
    {
      "midi": 52,
      "hit": false,
      "t": 77217.37200000016,
      "d": 260.8695000000007,
      "v": 127
    },
    {
      "midi": 70,
      "hit": false,
      "t": 77217.37200000018,
      "d": 260.8695000000007,
      "v": 127
    },
    {
      "midi": 53,
      "hit": false,
      "t": 77478.24150000016,
      "d": 130.43475000000035,
      "v": 127
    },
    {
      "midi": 68,
      "hit": false,
      "t": 77478.24150000018,
      "d": 260.8695000000007,
      "v": 127
    },
    {
      "midi": 55,
      "hit": false,
      "t": 77608.67625000016,
      "d": 130.43475000000035,
      "v": 127
    },
    {
      "midi": 56,
      "hit": false,
      "t": 77739.11100000016,
      "d": 130.43475000000035,
      "v": 127
    },
    {
      "midi": 65,
      "hit": false,
      "t": 77739.11100000018,
      "d": 130.43475000000035,
      "v": 127
    },
    {
      "midi": 55,
      "hit": false,
      "t": 77869.54575000016,
      "d": 130.43475000000035,
      "v": 127
    },
    {
      "midi": 67,
      "hit": false,
      "t": 77869.54575000018,
      "d": 130.43475000000035,
      "v": 127
    },
    {
      "midi": 53,
      "hit": false,
      "t": 77999.98050000017,
      "d": 260.8695000000007,
      "v": 127
    },
    {
      "midi": 68,
      "hit": false,
      "t": 77999.98050000018,
      "d": 130.43475000000035,
      "v": 127
    },
    {
      "midi": 70,
      "hit": false,
      "t": 78130.41525000018,
      "d": 130.43475000000035,
      "v": 127
    },
    {
      "midi": 46,
      "hit": false,
      "t": 78260.85000000017,
      "d": 260.8695000000007,
      "v": 127
    },
    {
      "midi": 72,
      "hit": false,
      "t": 78260.85000000018,
      "d": 130.43475000000035,
      "v": 127
    },
    {
      "midi": 73,
      "hit": false,
      "t": 78391.28475000018,
      "d": 130.43475000000035,
      "v": 127
    },
    {
      "midi": 48,
      "hit": false,
      "t": 78521.71950000017,
      "d": 782.6085000000021,
      "v": 127
    },
    {
      "midi": 64,
      "hit": false,
      "t": 78521.71950000018,
      "d": 260.8695000000007,
      "v": 127
    },
    {
      "midi": 73,
      "hit": false,
      "t": 78782.58900000018,
      "d": 260.8695000000007,
      "v": 127
    },
    {
      "midi": 72,
      "hit": false,
      "t": 79043.45850000018,
      "d": 260.8695000000007,
      "v": 127
    },
    {
      "midi": 52,
      "hit": false,
      "t": 79304.32800000017,
      "d": 260.8695000000007,
      "v": 127
    },
    {
      "midi": 70,
      "hit": false,
      "t": 79304.32800000018,
      "d": 260.8695000000007,
      "v": 127
    },
    {
      "midi": 53,
      "hit": false,
      "t": 79565.19750000017,
      "d": 130.43475000000035,
      "v": 127
    },
    {
      "midi": 68,
      "hit": false,
      "t": 79565.19750000018,
      "d": 260.8695000000007,
      "v": 127
    },
    {
      "midi": 55,
      "hit": false,
      "t": 79695.63225000017,
      "d": 130.43475000000035,
      "v": 127
    },
    {
      "midi": 56,
      "hit": false,
      "t": 79826.06700000017,
      "d": 130.43475000000035,
      "v": 127
    },
    {
      "midi": 65,
      "hit": false,
      "t": 79826.06700000018,
      "d": 130.43475000000035,
      "v": 127
    },
    {
      "midi": 55,
      "hit": false,
      "t": 79956.50175000017,
      "d": 130.43475000000035,
      "v": 127
    },
    {
      "midi": 67,
      "hit": false,
      "t": 79956.50175000018,
      "d": 130.43475000000035,
      "v": 127
    },
    {
      "midi": 53,
      "hit": false,
      "t": 80086.93650000017,
      "d": 130.43475000000035,
      "v": 127
    },
    {
      "midi": 68,
      "hit": false,
      "t": 80086.93650000019,
      "d": 260.8695000000007,
      "v": 127
    },
    {
      "midi": 56,
      "hit": false,
      "t": 80217.37125000017,
      "d": 130.43475000000035,
      "v": 127
    },
    {
      "midi": 55,
      "hit": false,
      "t": 80347.80600000017,
      "d": 130.43475000000035,
      "v": 127
    },
    {
      "midi": 71,
      "hit": false,
      "t": 80347.80600000019,
      "d": 260.8695000000007,
      "v": 127
    },
    {
      "midi": 53,
      "hit": false,
      "t": 80478.24075000017,
      "d": 130.43475000000035,
      "v": 127
    },
    {
      "midi": 52,
      "hit": false,
      "t": 80608.67550000017,
      "d": 260.8695000000007,
      "v": 127
    },
    {
      "midi": 72,
      "hit": false,
      "t": 80608.67550000019,
      "d": 260.8695000000007,
      "v": 127
    },
    {
      "midi": 48,
      "hit": false,
      "t": 80869.54500000017,
      "d": 260.8695000000007,
      "v": 127
    },
    {
      "midi": 64,
      "hit": false,
      "t": 80869.54500000019,
      "d": 260.8695000000007,
      "v": 127
    },
    {
      "midi": 50,
      "hit": false,
      "t": 81130.41450000017,
      "d": 260.8695000000007,
      "v": 127
    },
    {
      "midi": 65,
      "hit": false,
      "t": 81130.41450000019,
      "d": 260.8695000000007,
      "v": 127
    },
    {
      "midi": 43,
      "hit": false,
      "t": 81391.28400000017,
      "d": 260.8695000000007,
      "v": 127
    },
    {
      "midi": 59,
      "hit": false,
      "t": 81391.28400000019,
      "d": 260.8695000000007,
      "v": 127
    },
    {
      "midi": 36,
      "hit": false,
      "t": 81652.15350000017,
      "d": 260.8695000000007,
      "v": 127
    },
    {
      "midi": 60,
      "hit": false,
      "t": 81652.15350000019,
      "d": 521.7390000000014,
      "v": 127
    },
    {
      "midi": 48,
      "hit": false,
      "t": 81913.02300000018,
      "d": 521.7390000000014,
      "v": 127
    },
    {
      "midi": 64,
      "hit": false,
      "t": 82173.89250000019,
      "d": 521.7390000000014,
      "v": 127
    },
    {
      "midi": 36,
      "hit": false,
      "t": 82434.76200000018,
      "d": 260.8695000000007,
      "v": 127
    },
    {
      "midi": 41,
      "hit": false,
      "t": 82695.63150000018,
      "d": 130.43475000000035,
      "v": 127
    },
    {
      "midi": 65,
      "hit": false,
      "t": 82695.63150000019,
      "d": 521.7390000000014,
      "v": 127
    },
    {
      "midi": 43,
      "hit": false,
      "t": 82826.06625000018,
      "d": 130.43475000000035,
      "v": 127
    },
    {
      "midi": 45,
      "hit": false,
      "t": 82956.50100000018,
      "d": 130.43475000000035,
      "v": 127
    },
    {
      "midi": 43,
      "hit": false,
      "t": 83086.93575000018,
      "d": 130.43475000000035,
      "v": 127
    },
    {
      "midi": 41,
      "hit": false,
      "t": 83217.37050000018,
      "d": 260.8695000000007,
      "v": 127
    },
    {
      "midi": 77,
      "hit": false,
      "t": 83347.8052500002,
      "d": 130.43475000000035,
      "v": 127
    },
    {
      "midi": 45,
      "hit": false,
      "t": 83478.24000000018,
      "d": 260.8695000000007,
      "v": 127
    },
    {
      "midi": 76,
      "hit": false,
      "t": 83478.2400000002,
      "d": 130.43475000000035,
      "v": 127
    },
    {
      "midi": 77,
      "hit": false,
      "t": 83608.6747500002,
      "d": 130.43475000000035,
      "v": 127
    },
    {
      "midi": 46,
      "hit": false,
      "t": 83739.10950000018,
      "d": 260.8695000000007,
      "v": 127
    },
    {
      "midi": 74,
      "hit": false,
      "t": 83739.1095000002,
      "d": 130.43475000000035,
      "v": 127
    },
    {
      "midi": 77,
      "hit": false,
      "t": 83869.5442500002,
      "d": 130.43475000000035,
      "v": 127
    },
    {
      "midi": 46,
      "hit": false,
      "t": 83999.97900000018,
      "d": 260.8695000000007,
      "v": 127
    },
    {
      "midi": 76,
      "hit": false,
      "t": 83999.9790000002,
      "d": 130.43475000000035,
      "v": 127
    },
    {
      "midi": 77,
      "hit": false,
      "t": 84130.4137500002,
      "d": 130.43475000000035,
      "v": 127
    },
    {
      "midi": 53,
      "hit": false,
      "t": 84260.84850000018,
      "d": 260.8695000000007,
      "v": 127
    },
    {
      "midi": 74,
      "hit": false,
      "t": 84260.8485000002,
      "d": 130.43475000000035,
      "v": 127
    },
    {
      "midi": 77,
      "hit": false,
      "t": 84391.2832500002,
      "d": 130.43475000000035,
      "v": 127
    },
    {
      "midi": 46,
      "hit": false,
      "t": 84521.71800000018,
      "d": 521.7390000000014,
      "v": 127
    },
    {
      "midi": 76,
      "hit": false,
      "t": 84521.7180000002,
      "d": 130.43475000000035,
      "v": 127
    },
    {
      "midi": 77,
      "hit": false,
      "t": 84652.1527500002,
      "d": 130.43475000000035,
      "v": 127
    },
    {
      "midi": 72,
      "hit": false,
      "t": 84782.5875000002,
      "d": 130.43475000000035,
      "v": 127
    },
    {
      "midi": 77,
      "hit": false,
      "t": 84913.0222500002,
      "d": 130.43475000000035,
      "v": 127
    },
    {
      "midi": 45,
      "hit": false,
      "t": 85043.45700000018,
      "d": 260.8695000000007,
      "v": 127
    },
    {
      "midi": 76,
      "hit": false,
      "t": 85043.4570000002,
      "d": 130.43475000000035,
      "v": 127
    },
    {
      "midi": 77,
      "hit": false,
      "t": 85173.8917500002,
      "d": 130.43475000000035,
      "v": 127
    },
    {
      "midi": 53,
      "hit": false,
      "t": 85304.32650000018,
      "d": 260.8695000000007,
      "v": 127
    },
    {
      "midi": 72,
      "hit": false,
      "t": 85304.3265000002,
      "d": 130.43475000000035,
      "v": 127
    },
    {
      "midi": 77,
      "hit": false,
      "t": 85434.7612500002,
      "d": 130.43475000000035,
      "v": 127
    },
    {
      "midi": 45,
      "hit": false,
      "t": 85565.19600000019,
      "d": 521.7390000000014,
      "v": 127
    },
    {
      "midi": 76,
      "hit": false,
      "t": 85565.1960000002,
      "d": 130.43475000000035,
      "v": 127
    },
    {
      "midi": 77,
      "hit": false,
      "t": 85695.6307500002,
      "d": 130.43475000000035,
      "v": 127
    },
    {
      "midi": 74,
      "hit": false,
      "t": 85826.0655000002,
      "d": 130.43475000000035,
      "v": 127
    },
    {
      "midi": 77,
      "hit": false,
      "t": 85956.5002500002,
      "d": 130.43475000000035,
      "v": 127
    },
    {
      "midi": 46,
      "hit": false,
      "t": 86086.93500000019,
      "d": 260.8695000000007,
      "v": 127
    },
    {
      "midi": 76,
      "hit": false,
      "t": 86086.9350000002,
      "d": 130.43475000000035,
      "v": 127
    },
    {
      "midi": 77,
      "hit": false,
      "t": 86217.3697500002,
      "d": 130.43475000000035,
      "v": 127
    },
    {
      "midi": 53,
      "hit": false,
      "t": 86347.80450000019,
      "d": 260.8695000000007,
      "v": 127
    },
    {
      "midi": 74,
      "hit": false,
      "t": 86347.8045000002,
      "d": 130.43475000000035,
      "v": 127
    },
    {
      "midi": 77,
      "hit": false,
      "t": 86478.2392500002,
      "d": 130.43475000000035,
      "v": 127
    },
    {
      "midi": 46,
      "hit": false,
      "t": 86608.67400000019,
      "d": 521.7390000000014,
      "v": 127
    },
    {
      "midi": 76,
      "hit": false,
      "t": 86608.6740000002,
      "d": 130.43475000000035,
      "v": 127
    },
    {
      "midi": 77,
      "hit": false,
      "t": 86739.1087500002,
      "d": 130.43475000000035,
      "v": 127
    },
    {
      "midi": 72,
      "hit": false,
      "t": 86869.5435000002,
      "d": 130.43475000000035,
      "v": 127
    },
    {
      "midi": 77,
      "hit": false,
      "t": 86999.9782500002,
      "d": 130.43475000000035,
      "v": 127
    },
    {
      "midi": 45,
      "hit": false,
      "t": 87130.41300000019,
      "d": 260.8695000000007,
      "v": 127
    },
    {
      "midi": 76,
      "hit": false,
      "t": 87130.4130000002,
      "d": 130.43475000000035,
      "v": 127
    },
    {
      "midi": 77,
      "hit": false,
      "t": 87260.8477500002,
      "d": 130.43475000000035,
      "v": 127
    },
    {
      "midi": 53,
      "hit": false,
      "t": 87391.28250000019,
      "d": 260.8695000000007,
      "v": 127
    },
    {
      "midi": 72,
      "hit": false,
      "t": 87391.2825000002,
      "d": 130.43475000000035,
      "v": 127
    },
    {
      "midi": 77,
      "hit": false,
      "t": 87521.7172500002,
      "d": 130.43475000000035,
      "v": 127
    },
    {
      "midi": 45,
      "hit": false,
      "t": 87652.15200000019,
      "d": 260.8695000000007,
      "v": 127
    },
    {
      "midi": 76,
      "hit": false,
      "t": 87652.1520000002,
      "d": 130.43475000000035,
      "v": 127
    },
    {
      "midi": 77,
      "hit": false,
      "t": 87782.5867500002,
      "d": 130.43475000000035,
      "v": 127
    },
    {
      "midi": 46,
      "hit": false,
      "t": 87913.02150000019,
      "d": 260.8695000000007,
      "v": 127
    },
    {
      "midi": 74,
      "hit": false,
      "t": 87913.0215000002,
      "d": 260.8695000000007,
      "v": 127
    },
    {
      "midi": 43,
      "hit": false,
      "t": 88173.89100000019,
      "d": 260.8695000000007,
      "v": 127
    },
    {
      "midi": 82,
      "hit": false,
      "t": 88173.8910000002,
      "d": 260.8695000000007,
      "v": 127
    },
    {
      "midi": 45,
      "hit": false,
      "t": 88434.7605000002,
      "d": 260.8695000000007,
      "v": 127
    },
    {
      "midi": 72,
      "hit": false,
      "t": 88434.76050000021,
      "d": 260.8695000000007,
      "v": 127
    },
    {
      "midi": 41,
      "hit": false,
      "t": 88695.6300000002,
      "d": 260.8695000000007,
      "v": 127
    },
    {
      "midi": 81,
      "hit": false,
      "t": 88695.63000000021,
      "d": 260.8695000000007,
      "v": 127
    },
    {
      "midi": 43,
      "hit": false,
      "t": 88956.4995000002,
      "d": 260.8695000000007,
      "v": 127
    },
    {
      "midi": 70,
      "hit": false,
      "t": 88956.49950000021,
      "d": 260.8695000000007,
      "v": 127
    },
    {
      "midi": 40,
      "hit": false,
      "t": 89217.3690000002,
      "d": 260.8695000000007,
      "v": 127
    },
    {
      "midi": 79,
      "hit": false,
      "t": 89217.36900000021,
      "d": 260.8695000000007,
      "v": 127
    },
    {
      "midi": 41,
      "hit": false,
      "t": 89478.2385000002,
      "d": 260.8695000000007,
      "v": 127
    },
    {
      "midi": 69,
      "hit": false,
      "t": 89478.23850000021,
      "d": 260.8695000000007,
      "v": 127
    },
    {
      "midi": 46,
      "hit": false,
      "t": 89739.1080000002,
      "d": 260.8695000000007,
      "v": 127
    },
    {
      "midi": 77,
      "hit": false,
      "t": 89739.10800000021,
      "d": 260.8695000000007,
      "v": 127
    },
    {
      "midi": 48,
      "hit": false,
      "t": 89999.9775000002,
      "d": 260.8695000000007,
      "v": 127
    },
    {
      "midi": 67,
      "hit": false,
      "t": 89999.97750000021,
      "d": 521.7390000000014,
      "v": 127
    },
    {
      "midi": 46,
      "hit": false,
      "t": 90260.8470000002,
      "d": 260.8695000000007,
      "v": 127
    },
    {
      "midi": 48,
      "hit": false,
      "t": 90521.7165000002,
      "d": 260.8695000000007,
      "v": 127
    },
    {
      "midi": 76,
      "hit": false,
      "t": 90521.71650000021,
      "d": 521.7390000000014,
      "v": 127
    },
    {
      "midi": 36,
      "hit": false,
      "t": 90782.5860000002,
      "d": 260.8695000000007,
      "v": 127
    },
    {
      "midi": 41,
      "hit": false,
      "t": 91043.4555000002,
      "d": 782.6085000000021,
      "v": 127
    },
    {
      "midi": 65,
      "hit": false,
      "t": 91043.45550000021,
      "d": 782.6085000000021,
      "v": 127
    }
  ]
}