{
  "jsonPath": "Classical/Classical/George Frideric Handel/hwv361-score-2.json",
  "path": "Classical\\Classical\\George Frideric Handel\\HWV361-score-2.mid",
  "name": "HWV361-score-2",
  "difficulty": "Intermediate",
  "bpm": 40,
  "notes": [
    {
      "midi": 61,
      "hit": false,
      "t": 0,
      "d": 1500,
      "v": 127
    },
    {
      "midi": 54,
      "hit": false,
      "t": 0,
      "d": 750,
      "v": 127
    },
    {
      "midi": 56,
      "hit": false,
      "t": 750,
      "d": 750,
      "v": 127
    },
    {
      "midi": 57,
      "hit": false,
      "t": 1500,
      "d": 750,
      "v": 127
    },
    {
      "midi": 66,
      "hit": false,
      "t": 1875,
      "d": 375,
      "v": 127
    },
    {
      "midi": 69,
      "hit": false,
      "t": 1875,
      "d": 375,
      "v": 127
    },
    {
      "midi": 73,
      "hit": false,
      "t": 2250,
      "d": 375,
      "v": 127
    },
    {
      "midi": 74,
      "hit": false,
      "t": 2250,
      "d": 375,
      "v": 127
    },
    {
      "midi": 54,
      "hit": false,
      "t": 2250,
      "d": 750,
      "v": 127
    },
    {
      "midi": 71,
      "hit": false,
      "t": 2625,
      "d": 375,
      "v": 127
    },
    {
      "midi": 69,
      "hit": false,
      "t": 3000,
      "d": 1500,
      "v": 127
    },
    {
      "midi": 71,
      "hit": false,
      "t": 3000,
      "d": 1500,
      "v": 127
    },
    {
      "midi": 56,
      "hit": false,
      "t": 3000,
      "d": 750,
      "v": 127
    },
    {
      "midi": 57,
      "hit": false,
      "t": 3750,
      "d": 750,
      "v": 127
    },
    {
      "midi": 59,
      "hit": false,
      "t": 4500,
      "d": 750,
      "v": 127
    },
    {
      "midi": 56,
      "hit": false,
      "t": 5250,
      "d": 750,
      "v": 127
    },
    {
      "midi": 61,
      "hit": false,
      "t": 6000,
      "d": 1125,
      "v": 127
    },
    {
      "midi": 53,
      "hit": false,
      "t": 6000,
      "d": 750,
      "v": 127
    },
    {
      "midi": 56,
      "hit": false,
      "t": 6750,
      "d": 750,
      "v": 127
    },
    {
      "midi": 65,
      "hit": false,
      "t": 7125,
      "d": 375,
      "v": 127
    },
    {
      "midi": 68,
      "hit": false,
      "t": 7125,
      "d": 375,
      "v": 127
    },
    {
      "midi": 71,
      "hit": false,
      "t": 7500,
      "d": 375,
      "v": 127
    },
    {
      "midi": 74,
      "hit": false,
      "t": 7500,
      "d": 375,
      "v": 127
    },
    {
      "midi": 53,
      "hit": false,
      "t": 7500,
      "d": 750,
      "v": 127
    },
    {
      "midi": 73,
      "hit": false,
      "t": 7875,
      "d": 375,
      "v": 127
    },
    {
      "midi": 77,
      "hit": false,
      "t": 7875,
      "d": 375,
      "v": 127
    },
    {
      "midi": 80,
      "hit": false,
      "t": 8250,
      "d": 375,
      "v": 127
    },
    {
      "midi": 83,
      "hit": false,
      "t": 8250,
      "d": 375,
      "v": 127
    },
    {
      "midi": 49,
      "hit": false,
      "t": 8250,
      "d": 750,
      "v": 127
    },
    {
      "midi": 81,
      "hit": false,
      "t": 8625,
      "d": 375,
      "v": 127
    },
    {
      "midi": 80,
      "hit": false,
      "t": 9000,
      "d": 1500,
      "v": 127
    },
    {
      "midi": 81,
      "hit": false,
      "t": 9000,
      "d": 1500,
      "v": 127
    },
    {
      "midi": 54,
      "hit": false,
      "t": 9000,
      "d": 750,
      "v": 127
    },
    {
      "midi": 57,
      "hit": false,
      "t": 9750,
      "d": 750,
      "v": 127
    },
    {
      "midi": 61,
      "hit": false,
      "t": 10500,
      "d": 750,
      "v": 127
    },
    {
      "midi": 59,
      "hit": false,
      "t": 11250,
      "d": 750,
      "v": 127
    },
    {
      "midi": 66,
      "hit": false,
      "t": 12000,
      "d": 1125,
      "v": 127
    },
    {
      "midi": 58,
      "hit": false,
      "t": 12000,
      "d": 750,
      "v": 127
    },
    {
      "midi": 61,
      "hit": false,
      "t": 12750,
      "d": 750,
      "v": 127
    },
    {
      "midi": 70,
      "hit": false,
      "t": 13125,
      "d": 375,
      "v": 127
    },
    {
      "midi": 73,
      "hit": false,
      "t": 13125,
      "d": 375,
      "v": 127
    },
    {
      "midi": 76,
      "hit": false,
      "t": 13500,
      "d": 375,
      "v": 127
    },
    {
      "midi": 79,
      "hit": false,
      "t": 13500,
      "d": 375,
      "v": 127
    },
    {
      "midi": 58,
      "hit": false,
      "t": 13500,
      "d": 750,
      "v": 127
    },
    {
      "midi": 78,
      "hit": false,
      "t": 13875,
      "d": 375,
      "v": 127
    },
    {
      "midi": 74,
      "hit": false,
      "t": 14250,
      "d": 375,
      "v": 127
    },
    {
      "midi": 54,
      "hit": false,
      "t": 14250,
      "d": 750,
      "v": 127
    },
    {
      "midi": 73,
      "hit": false,
      "t": 14625,
      "d": 375,
      "v": 127
    },
    {
      "midi": 74,
      "hit": false,
      "t": 15000,
      "d": 750,
      "v": 127
    },
    {
      "midi": 59,
      "hit": false,
      "t": 15000,
      "d": 750,
      "v": 127
    },
    {
      "midi": 66,
      "hit": false,
      "t": 15750,
      "d": 750,
      "v": 127
    },
    {
      "midi": 47,
      "hit": false,
      "t": 15750,
      "d": 750,
      "v": 127
    },
    {
      "midi": 65,
      "hit": false,
      "t": 16500,
      "d": 750,
      "v": 127
    },
    {
      "midi": 49,
      "hit": false,
      "t": 16500,
      "d": 1500,
      "v": 127
    },
    {
      "midi": 73,
      "hit": false,
      "t": 17250,
      "d": 750,
      "v": 127
    },
    {
      "midi": 50,
      "hit": false,
      "t": 18000,
      "d": 4500,
      "v": 127
    },
    {
      "midi": 78,
      "hit": false,
      "t": 18750,
      "d": 375,
      "v": 127
    },
    {
      "midi": 74,
      "hit": false,
      "t": 19125,
      "d": 375,
      "v": 127
    },
    {
      "midi": 71,
      "hit": false,
      "t": 19500,
      "d": 375,
      "v": 127
    },
    {
      "midi": 68,
      "hit": false,
      "t": 19875,
      "d": 375,
      "v": 127
    },
    {
      "midi": 69,
      "hit": false,
      "t": 20250,
      "d": 375,
      "v": 127
    },
    {
      "midi": 65,
      "hit": false,
      "t": 20625,
      "d": 375,
      "v": 127
    },
    {
      "midi": 66,
      "hit": false,
      "t": 21000,
      "d": 750,
      "v": 127
    },
    {
      "midi": 73,
      "hit": false,
      "t": 21750,
      "d": 375,
      "v": 127
    },
    {
      "midi": 74,
      "hit": false,
      "t": 22125,
      "d": 375,
      "v": 127
    },
    {
      "midi": 71,
      "hit": false,
      "t": 22500,
      "d": 1125,
      "v": 127
    },
    {
      "midi": 50,
      "hit": false,
      "t": 22500,
      "d": 1500,
      "v": 127
    },
    {
      "midi": 73,
      "hit": false,
      "t": 23625,
      "d": 375,
      "v": 127
    },
    {
      "midi": 73,
      "hit": false,
      "t": 24000,
      "d": 6000,
      "v": 127
    },
    {
      "midi": 49,
      "hit": false,
      "t": 24000,
      "d": 6000,
      "v": 127
    }
  ]
}