{
  "jsonPath": "Classical/Classical/George Frideric Handel/menuet-trio.json",
  "path": "Classical\\Classical\\George Frideric Handel\\Menuet (Trio).mid",
  "name": "Menuet (Trio)",
  "difficulty": "Advanced",
  "bpm": 80,
  "notes": [
    {
      "midi": 76,
      "hit": false,
      "t": 0,
      "d": 750,
      "v": 127
    },
    {
      "midi": 60,
      "hit": false,
      "t": 0,
      "d": 1500,
      "v": 127
    },
    {
      "midi": 69,
      "hit": false,
      "t": 750,
      "d": 750,
      "v": 127
    },
    {
      "midi": 68,
      "hit": false,
      "t": 1500,
      "d": 750,
      "v": 127
    },
    {
      "midi": 59,
      "hit": false,
      "t": 1500,
      "d": 750,
      "v": 127
    },
    {
      "midi": 69,
      "hit": false,
      "t": 2250,
      "d": 375,
      "v": 127
    },
    {
      "midi": 57,
      "hit": false,
      "t": 2250,
      "d": 750,
      "v": 127
    },
    {
      "midi": 60,
      "hit": false,
      "t": 2250,
      "d": 750,
      "v": 127
    },
    {
      "midi": 72,
      "hit": false,
      "t": 2625,
      "d": 375,
      "v": 127
    },
    {
      "midi": 64,
      "hit": false,
      "t": 3000,
      "d": 1500,
      "v": 127
    },
    {
      "midi": 71,
      "hit": false,
      "t": 3000,
      "d": 1500,
      "v": 127
    },
    {
      "midi": 56,
      "hit": false,
      "t": 3000,
      "d": 750,
      "v": 127
    },
    {
      "midi": 52,
      "hit": false,
      "t": 3750,
      "d": 750,
      "v": 127
    },
    {
      "midi": 72,
      "hit": false,
      "t": 4500,
      "d": 750,
      "v": 127
    },
    {
      "midi": 57,
      "hit": false,
      "t": 4500,
      "d": 1500,
      "v": 127
    },
    {
      "midi": 74,
      "hit": false,
      "t": 5250,
      "d": 375,
      "v": 127
    },
    {
      "midi": 72,
      "hit": false,
      "t": 5625,
      "d": 375,
      "v": 127
    },
    {
      "midi": 71,
      "hit": false,
      "t": 6000,
      "d": 375,
      "v": 127
    },
    {
      "midi": 50,
      "hit": false,
      "t": 6000,
      "d": 750,
      "v": 127
    },
    {
      "midi": 69,
      "hit": false,
      "t": 6375,
      "d": 375,
      "v": 127
    },
    {
      "midi": 68,
      "hit": false,
      "t": 6750,
      "d": 750,
      "v": 127
    },
    {
      "midi": 52,
      "hit": false,
      "t": 6750,
      "d": 750,
      "v": 127
    },
    {
      "midi": 66,
      "hit": false,
      "t": 7500,
      "d": 375,
      "v": 127
    },
    {
      "midi": 47,
      "hit": false,
      "t": 7500,
      "d": 750,
      "v": 127
    },
    {
      "midi": 68,
      "hit": false,
      "t": 7875,
      "d": 375,
      "v": 127
    },
    {
      "midi": 56,
      "hit": false,
      "t": 8250,
      "d": 750,
      "v": 127
    },
    {
      "midi": 64,
      "hit": false,
      "t": 8250,
      "d": 750,
      "v": 127
    },
    {
      "midi": 40,
      "hit": false,
      "t": 8250,
      "d": 750,
      "v": 127
    },
    {
      "midi": 72,
      "hit": false,
      "t": 9000,
      "d": 750,
      "v": 127
    },
    {
      "midi": 76,
      "hit": false,
      "t": 9000,
      "d": 750,
      "v": 127
    },
    {
      "midi": 45,
      "hit": false,
      "t": 9000,
      "d": 750,
      "v": 127
    },
    {
      "midi": 74,
      "hit": false,
      "t": 9750,
      "d": 375,
      "v": 127
    },
    {
      "midi": 48,
      "hit": false,
      "t": 9750,
      "d": 750,
      "v": 127
    },
    {
      "midi": 72,
      "hit": false,
      "t": 10125,
      "d": 375,
      "v": 127
    },
    {
      "midi": 71,
      "hit": false,
      "t": 10500,
      "d": 375,
      "v": 127
    },
    {
      "midi": 52,
      "hit": false,
      "t": 10500,
      "d": 750,
      "v": 127
    },
    {
      "midi": 69,
      "hit": false,
      "t": 10875,
      "d": 375,
      "v": 127
    },
    {
      "midi": 68,
      "hit": false,
      "t": 11250,
      "d": 750,
      "v": 127
    },
    {
      "midi": 74,
      "hit": false,
      "t": 11250,
      "d": 750,
      "v": 127
    },
    {
      "midi": 47,
      "hit": false,
      "t": 11250,
      "d": 750,
      "v": 127
    },
    {
      "midi": 72,
      "hit": false,
      "t": 12000,
      "d": 375,
      "v": 127
    },
    {
      "midi": 50,
      "hit": false,
      "t": 12000,
      "d": 750,
      "v": 127
    },
    {
      "midi": 71,
      "hit": false,
      "t": 12375,
      "d": 375,
      "v": 127
    },
    {
      "midi": 69,
      "hit": false,
      "t": 12750,
      "d": 375,
      "v": 127
    },
    {
      "midi": 52,
      "hit": false,
      "t": 12750,
      "d": 750,
      "v": 127
    },
    {
      "midi": 68,
      "hit": false,
      "t": 13125,
      "d": 375,
      "v": 127
    },
    {
      "midi": 69,
      "hit": false,
      "t": 13500,
      "d": 375,
      "v": 127
    },
    {
      "midi": 53,
      "hit": false,
      "t": 13500,
      "d": 750,
      "v": 127
    },
    {
      "midi": 71,
      "hit": false,
      "t": 13875,
      "d": 375,
      "v": 127
    },
    {
      "midi": 69,
      "hit": false,
      "t": 14250,
      "d": 750,
      "v": 127
    },
    {
      "midi": 72,
      "hit": false,
      "t": 14250,
      "d": 750,
      "v": 127
    },
    {
      "midi": 50,
      "hit": false,
      "t": 14250,
      "d": 750,
      "v": 127
    },
    {
      "midi": 71,
      "hit": false,
      "t": 15000,
      "d": 375,
      "v": 127
    },
    {
      "midi": 52,
      "hit": false,
      "t": 15000,
      "d": 750,
      "v": 127
    },
    {
      "midi": 69,
      "hit": false,
      "t": 15375,
      "d": 375,
      "v": 127
    },
    {
      "midi": 69,
      "hit": false,
      "t": 15750,
      "d": 2250,
      "v": 127
    },
    {
      "midi": 57,
      "hit": false,
      "t": 15750,
      "d": 750,
      "v": 127
    },
    {
      "midi": 52,
      "hit": false,
      "t": 16500,
      "d": 750,
      "v": 127
    },
    {
      "midi": 45,
      "hit": false,
      "t": 17250,
      "d": 750,
      "v": 127
    },
    {
      "midi": 60,
      "hit": false,
      "t": 18000,
      "d": 750,
      "v": 127
    },
    {
      "midi": 67,
      "hit": false,
      "t": 18000,
      "d": 750,
      "v": 127
    },
    {
      "midi": 52,
      "hit": false,
      "t": 18000,
      "d": 750,
      "v": 127
    },
    {
      "midi": 72,
      "hit": false,
      "t": 18750,
      "d": 375,
      "v": 127
    },
    {
      "midi": 50,
      "hit": false,
      "t": 18750,
      "d": 750,
      "v": 127
    },
    {
      "midi": 71,
      "hit": false,
      "t": 19125,
      "d": 375,
      "v": 127
    },
    {
      "midi": 64,
      "hit": false,
      "t": 19500,
      "d": 750,
      "v": 127
    },
    {
      "midi": 72,
      "hit": false,
      "t": 19500,
      "d": 750,
      "v": 127
    },
    {
      "midi": 48,
      "hit": false,
      "t": 19500,
      "d": 750,
      "v": 127
    },
    {
      "midi": 62,
      "hit": false,
      "t": 20250,
      "d": 750,
      "v": 127
    },
    {
      "midi": 67,
      "hit": false,
      "t": 20250,
      "d": 750,
      "v": 127
    },
    {
      "midi": 47,
      "hit": false,
      "t": 20250,
      "d": 750,
      "v": 127
    },
    {
      "midi": 74,
      "hit": false,
      "t": 21000,
      "d": 375,
      "v": 127
    },
    {
      "midi": 45,
      "hit": false,
      "t": 21000,
      "d": 750,
      "v": 127
    },
    {
      "midi": 72,
      "hit": false,
      "t": 21375,
      "d": 375,
      "v": 127
    },
    {
      "midi": 71,
      "hit": false,
      "t": 21750,
      "d": 750,
      "v": 127
    },
    {
      "midi": 74,
      "hit": false,
      "t": 21750,
      "d": 750,
      "v": 127
    },
    {
      "midi": 43,
      "hit": false,
      "t": 21750,
      "d": 750,
      "v": 127
    },
    {
      "midi": 64,
      "hit": false,
      "t": 22500,
      "d": 750,
      "v": 127
    },
    {
      "midi": 67,
      "hit": false,
      "t": 22500,
      "d": 750,
      "v": 127
    },
    {
      "midi": 48,
      "hit": false,
      "t": 22500,
      "d": 750,
      "v": 127
    },
    {
      "midi": 74,
      "hit": false,
      "t": 23250,
      "d": 750,
      "v": 127
    },
    {
      "midi": 77,
      "hit": false,
      "t": 23250,
      "d": 750,
      "v": 127
    },
    {
      "midi": 47,
      "hit": false,
      "t": 23250,
      "d": 750,
      "v": 127
    },
    {
      "midi": 76,
      "hit": false,
      "t": 24000,
      "d": 375,
      "v": 127
    },
    {
      "midi": 48,
      "hit": false,
      "t": 24000,
      "d": 750,
      "v": 127
    },
    {
      "midi": 77,
      "hit": false,
      "t": 24375,
      "d": 375,
      "v": 127
    },
    {
      "midi": 74,
      "hit": false,
      "t": 24750,
      "d": 750,
      "v": 127
    },
    {
      "midi": 43,
      "hit": false,
      "t": 24750,
      "d": 750,
      "v": 127
    },
    {
      "midi": 69,
      "hit": false,
      "t": 25500,
      "d": 750,
      "v": 127
    },
    {
      "midi": 45,
      "hit": false,
      "t": 25500,
      "d": 750,
      "v": 127
    },
    {
      "midi": 67,
      "hit": false,
      "t": 26250,
      "d": 750,
      "v": 127
    },
    {
      "midi": 47,
      "hit": false,
      "t": 26250,
      "d": 750,
      "v": 127
    },
    {
      "midi": 76,
      "hit": false,
      "t": 27000,
      "d": 375,
      "v": 127
    },
    {
      "midi": 48,
      "hit": false,
      "t": 27000,
      "d": 750,
      "v": 127
    },
    {
      "midi": 77,
      "hit": false,
      "t": 27375,
      "d": 375,
      "v": 127
    },
    {
      "midi": 74,
      "hit": false,
      "t": 27750,
      "d": 375,
      "v": 127
    },
    {
      "midi": 47,
      "hit": false,
      "t": 27750,
      "d": 750,
      "v": 127
    },
    {
      "midi": 76,
      "hit": false,
      "t": 28125,
      "d": 375,
      "v": 127
    },
    {
      "midi": 72,
      "hit": false,
      "t": 28500,
      "d": 375,
      "v": 127
    },
    {
      "midi": 45,
      "hit": false,
      "t": 28500,
      "d": 750,
      "v": 127
    },
    {
      "midi": 74,
      "hit": false,
      "t": 28875,
      "d": 375,
      "v": 127
    },
    {
      "midi": 71,
      "hit": false,
      "t": 29250,
      "d": 375,
      "v": 127
    },
    {
      "midi": 43,
      "hit": false,
      "t": 29250,
      "d": 750,
      "v": 127
    },
    {
      "midi": 72,
      "hit": false,
      "t": 29625,
      "d": 375,
      "v": 127
    },
    {
      "midi": 69,
      "hit": false,
      "t": 30000,
      "d": 375,
      "v": 127
    },
    {
      "midi": 41,
      "hit": false,
      "t": 30000,
      "d": 750,
      "v": 127
    },
    {
      "midi": 71,
      "hit": false,
      "t": 30375,
      "d": 375,
      "v": 127
    },
    {
      "midi": 67,
      "hit": false,
      "t": 30750,
      "d": 750,
      "v": 127
    },
    {
      "midi": 40,
      "hit": false,
      "t": 30750,
      "d": 750,
      "v": 127
    },
    {
      "midi": 65,
      "hit": false,
      "t": 31500,
      "d": 375,
      "v": 127
    },
    {
      "midi": 41,
      "hit": false,
      "t": 31500,
      "d": 750,
      "v": 127
    },
    {
      "midi": 64,
      "hit": false,
      "t": 31875,
      "d": 375,
      "v": 127
    },
    {
      "midi": 60,
      "hit": false,
      "t": 32250,
      "d": 750,
      "v": 127
    },
    {
      "midi": 62,
      "hit": false,
      "t": 32250,
      "d": 750,
      "v": 127
    },
    {
      "midi": 43,
      "hit": false,
      "t": 32250,
      "d": 1500,
      "v": 127
    },
    {
      "midi": 59,
      "hit": false,
      "t": 33000,
      "d": 375,
      "v": 127
    },
    {
      "midi": 60,
      "hit": false,
      "t": 33375,
      "d": 375,
      "v": 127
    },
    {
      "midi": 52,
      "hit": false,
      "t": 33750,
      "d": 2250,
      "v": 127
    },
    {
      "midi": 55,
      "hit": false,
      "t": 33750,
      "d": 2250,
      "v": 127
    },
    {
      "midi": 60,
      "hit": false,
      "t": 33750,
      "d": 2250,
      "v": 127
    },
    {
      "midi": 48,
      "hit": false,
      "t": 33750,
      "d": 750,
      "v": 127
    },
    {
      "midi": 43,
      "hit": false,
      "t": 34500,
      "d": 750,
      "v": 127
    },
    {
      "midi": 36,
      "hit": false,
      "t": 35250,
      "d": 750,
      "v": 127
    },
    {
      "midi": 72,
      "hit": false,
      "t": 36000,
      "d": 375,
      "v": 127
    },
    {
      "midi": 64,
      "hit": false,
      "t": 36000,
      "d": 750,
      "v": 127
    },
    {
      "midi": 74,
      "hit": false,
      "t": 36375,
      "d": 375,
      "v": 127
    },
    {
      "midi": 76,
      "hit": false,
      "t": 36750,
      "d": 750,
      "v": 127
    },
    {
      "midi": 60,
      "hit": false,
      "t": 36750,
      "d": 750,
      "v": 127
    },
    {
      "midi": 68,
      "hit": false,
      "t": 37500,
      "d": 750,
      "v": 127
    },
    {
      "midi": 59,
      "hit": false,
      "t": 37500,
      "d": 750,
      "v": 127
    },
    {
      "midi": 69,
      "hit": false,
      "t": 38250,
      "d": 375,
      "v": 127
    },
    {
      "midi": 57,
      "hit": false,
      "t": 38250,
      "d": 750,
      "v": 127
    },
    {
      "midi": 72,
      "hit": false,
      "t": 38625,
      "d": 375,
      "v": 127
    },
    {
      "midi": 64,
      "hit": false,
      "t": 39000,
      "d": 1500,
      "v": 127
    },
    {
      "midi": 71,
      "hit": false,
      "t": 39000,
      "d": 1500,
      "v": 127
    },
    {
      "midi": 56,
      "hit": false,
      "t": 39000,
      "d": 750,
      "v": 127
    },
    {
      "midi": 52,
      "hit": false,
      "t": 39750,
      "d": 750,
      "v": 127
    },
    {
      "midi": 72,
      "hit": false,
      "t": 40500,
      "d": 750,
      "v": 127
    },
    {
      "midi": 57,
      "hit": false,
      "t": 40500,
      "d": 1500,
      "v": 127
    },
    {
      "midi": 74,
      "hit": false,
      "t": 41250,
      "d": 375,
      "v": 127
    },
    {
      "midi": 72,
      "hit": false,
      "t": 41625,
      "d": 375,
      "v": 127
    },
    {
      "midi": 71,
      "hit": false,
      "t": 42000,
      "d": 375,
      "v": 127
    },
    {
      "midi": 50,
      "hit": false,
      "t": 42000,
      "d": 750,
      "v": 127
    },
    {
      "midi": 69,
      "hit": false,
      "t": 42375,
      "d": 375,
      "v": 127
    },
    {
      "midi": 68,
      "hit": false,
      "t": 42750,
      "d": 750,
      "v": 127
    },
    {
      "midi": 52,
      "hit": false,
      "t": 42750,
      "d": 750,
      "v": 127
    },
    {
      "midi": 66,
      "hit": false,
      "t": 43500,
      "d": 375,
      "v": 127
    },
    {
      "midi": 47,
      "hit": false,
      "t": 43500,
      "d": 750,
      "v": 127
    },
    {
      "midi": 68,
      "hit": false,
      "t": 43875,
      "d": 375,
      "v": 127
    },
    {
      "midi": 56,
      "hit": false,
      "t": 44250,
      "d": 750,
      "v": 127
    },
    {
      "midi": 64,
      "hit": false,
      "t": 44250,
      "d": 750,
      "v": 127
    },
    {
      "midi": 40,
      "hit": false,
      "t": 44250,
      "d": 750,
      "v": 127
    },
    {
      "midi": 60,
      "hit": false,
      "t": 45000,
      "d": 750,
      "v": 127
    },
    {
      "midi": 64,
      "hit": false,
      "t": 45000,
      "d": 750,
      "v": 127
    },
    {
      "midi": 45,
      "hit": false,
      "t": 45000,
      "d": 750,
      "v": 127
    },
    {
      "midi": 69,
      "hit": false,
      "t": 45750,
      "d": 375,
      "v": 127
    },
    {
      "midi": 48,
      "hit": false,
      "t": 45750,
      "d": 750,
      "v": 127
    },
    {
      "midi": 68,
      "hit": false,
      "t": 46125,
      "d": 375,
      "v": 127
    },
    {
      "midi": 60,
      "hit": false,
      "t": 46500,
      "d": 750,
      "v": 127
    },
    {
      "midi": 69,
      "hit": false,
      "t": 46500,
      "d": 750,
      "v": 127
    },
    {
      "midi": 52,
      "hit": false,
      "t": 46500,
      "d": 750,
      "v": 127
    },
    {
      "midi": 59,
      "hit": false,
      "t": 47250,
      "d": 750,
      "v": 127
    },
    {
      "midi": 62,
      "hit": false,
      "t": 47250,
      "d": 750,
      "v": 127
    },
    {
      "midi": 47,
      "hit": false,
      "t": 47250,
      "d": 750,
      "v": 127
    },
    {
      "midi": 69,
      "hit": false,
      "t": 48000,
      "d": 375,
      "v": 127
    },
    {
      "midi": 50,
      "hit": false,
      "t": 48000,
      "d": 750,
      "v": 127
    },
    {
      "midi": 68,
      "hit": false,
      "t": 48375,
      "d": 375,
      "v": 127
    },
    {
      "midi": 62,
      "hit": false,
      "t": 48750,
      "d": 750,
      "v": 127
    },
    {
      "midi": 69,
      "hit": false,
      "t": 48750,
      "d": 750,
      "v": 127
    },
    {
      "midi": 52,
      "hit": false,
      "t": 48750,
      "d": 750,
      "v": 127
    },
    {
      "midi": 60,
      "hit": false,
      "t": 49500,
      "d": 750,
      "v": 127
    },
    {
      "midi": 57,
      "hit": false,
      "t": 49500,
      "d": 750,
      "v": 127
    },
    {
      "midi": 62,
      "hit": false,
      "t": 50250,
      "d": 375,
      "v": 127
    },
    {
      "midi": 50,
      "hit": false,
      "t": 50250,
      "d": 750,
      "v": 127
    },
    {
      "midi": 60,
      "hit": false,
      "t": 50625,
      "d": 375,
      "v": 127
    },
    {
      "midi": 59,
      "hit": false,
      "t": 51000,
      "d": 375,
      "v": 127
    },
    {
      "midi": 52,
      "hit": false,
      "t": 51000,
      "d": 750,
      "v": 127
    },
    {
      "midi": 60,
      "hit": false,
      "t": 51375,
      "d": 375,
      "v": 127
    },
    {
      "midi": 57,
      "hit": false,
      "t": 51750,
      "d": 2250,
      "v": 127
    },
    {
      "midi": 45,
      "hit": false,
      "t": 51750,
      "d": 2250,
      "v": 127
    }
  ]
}