{
  "jsonPath": "Classical/Classical/George Frideric Handel/ouvertuere.json",
  "path": "Classical\\Classical\\George Frideric Handel\\Ouvertuere.mid",
  "name": "Ouvertuere",
  "difficulty": "Advanced",
  "bpm": 104.00001386666851,
  "notes": [
    {
      "midi": 74,
      "hit": false,
      "t": 0,
      "d": 144.23075,
      "v": 127
    },
    {
      "midi": 77,
      "hit": false,
      "t": 144.23075,
      "d": 144.23075,
      "v": 127
    },
    {
      "midi": 73,
      "hit": false,
      "t": 288.4615,
      "d": 144.23075,
      "v": 127
    },
    {
      "midi": 76,
      "hit": false,
      "t": 432.69225,
      "d": 144.23075,
      "v": 127
    },
    {
      "midi": 74,
      "hit": false,
      "t": 576.923,
      "d": 144.23074999999994,
      "v": 127
    },
    {
      "midi": 77,
      "hit": false,
      "t": 721.15375,
      "d": 144.23074999999994,
      "v": 127
    },
    {
      "midi": 69,
      "hit": false,
      "t": 865.3844999999999,
      "d": 144.23074999999994,
      "v": 127
    },
    {
      "midi": 74,
      "hit": false,
      "t": 1009.6152499999998,
      "d": 144.23074999999994,
      "v": 127
    },
    {
      "midi": 70,
      "hit": false,
      "t": 1153.8459999999998,
      "d": 144.23074999999994,
      "v": 127
    },
    {
      "midi": 74,
      "hit": false,
      "t": 1298.0767499999997,
      "d": 144.23074999999994,
      "v": 127
    },
    {
      "midi": 69,
      "hit": false,
      "t": 1442.3074999999997,
      "d": 144.23074999999994,
      "v": 127
    },
    {
      "midi": 74,
      "hit": false,
      "t": 1586.5382499999996,
      "d": 144.23074999999994,
      "v": 127
    },
    {
      "midi": 70,
      "hit": false,
      "t": 1730.7689999999996,
      "d": 144.23074999999994,
      "v": 127
    },
    {
      "midi": 74,
      "hit": false,
      "t": 1874.9997499999995,
      "d": 144.23074999999994,
      "v": 127
    },
    {
      "midi": 65,
      "hit": false,
      "t": 2019.2304999999994,
      "d": 144.23074999999994,
      "v": 127
    },
    {
      "midi": 69,
      "hit": false,
      "t": 2163.4612499999994,
      "d": 144.23075000000017,
      "v": 127
    },
    {
      "midi": 67,
      "hit": false,
      "t": 2307.6919999999996,
      "d": 144.23075000000017,
      "v": 127
    },
    {
      "midi": 70,
      "hit": false,
      "t": 2451.9227499999997,
      "d": 144.23075000000017,
      "v": 127
    },
    {
      "midi": 65,
      "hit": false,
      "t": 2596.1535,
      "d": 144.23075000000017,
      "v": 127
    },
    {
      "midi": 69,
      "hit": false,
      "t": 2740.38425,
      "d": 144.23075000000017,
      "v": 127
    },
    {
      "midi": 67,
      "hit": false,
      "t": 2884.6150000000002,
      "d": 144.23075000000017,
      "v": 127
    },
    {
      "midi": 70,
      "hit": false,
      "t": 3028.8457500000004,
      "d": 144.23075000000017,
      "v": 127
    },
    {
      "midi": 64,
      "hit": false,
      "t": 3173.0765000000006,
      "d": 144.23075000000017,
      "v": 127
    },
    {
      "midi": 65,
      "hit": false,
      "t": 3317.3072500000007,
      "d": 144.23075000000017,
      "v": 127
    },
    {
      "midi": 67,
      "hit": false,
      "t": 3461.538000000001,
      "d": 144.23075000000017,
      "v": 127
    },
    {
      "midi": 69,
      "hit": false,
      "t": 3605.768750000001,
      "d": 144.23075000000017,
      "v": 127
    },
    {
      "midi": 64,
      "hit": false,
      "t": 3749.9995000000013,
      "d": 144.23075000000017,
      "v": 127
    },
    {
      "midi": 67,
      "hit": false,
      "t": 3894.2302500000014,
      "d": 144.23075000000017,
      "v": 127
    },
    {
      "midi": 65,
      "hit": false,
      "t": 4038.4610000000016,
      "d": 144.23075000000017,
      "v": 127
    },
    {
      "midi": 69,
      "hit": false,
      "t": 4182.691750000002,
      "d": 144.23074999999972,
      "v": 127
    },
    {
      "midi": 62,
      "hit": false,
      "t": 4326.9225000000015,
      "d": 144.23074999999972,
      "v": 127
    },
    {
      "midi": 65,
      "hit": false,
      "t": 4471.153250000001,
      "d": 144.23074999999972,
      "v": 127
    },
    {
      "midi": 64,
      "hit": false,
      "t": 4615.384000000001,
      "d": 144.23074999999972,
      "v": 127
    },
    {
      "midi": 65,
      "hit": false,
      "t": 4759.614750000001,
      "d": 144.23074999999972,
      "v": 127
    },
    {
      "midi": 64,
      "hit": false,
      "t": 4903.8455,
      "d": 144.23074999999972,
      "v": 127
    },
    {
      "midi": 62,
      "hit": false,
      "t": 5048.07625,
      "d": 144.23074999999972,
      "v": 127
    },
    {
      "midi": 61,
      "hit": false,
      "t": 5192.307,
      "d": 144.23074999999972,
      "v": 127
    },
    {
      "midi": 62,
      "hit": false,
      "t": 5336.5377499999995,
      "d": 144.23074999999972,
      "v": 127
    },
    {
      "midi": 61,
      "hit": false,
      "t": 5480.768499999999,
      "d": 144.23074999999972,
      "v": 127
    },
    {
      "midi": 59,
      "hit": false,
      "t": 5624.999249999999,
      "d": 144.23074999999972,
      "v": 127
    },
    {
      "midi": 57,
      "hit": false,
      "t": 5769.229999999999,
      "d": 576.9229999999998,
      "v": 127
    },
    {
      "midi": 52,
      "hit": false,
      "t": 5913.46075,
      "d": 144.23074999999972,
      "v": 127
    },
    {
      "midi": 53,
      "hit": false,
      "t": 6057.6915,
      "d": 144.23074999999972,
      "v": 127
    },
    {
      "midi": 55,
      "hit": false,
      "t": 6201.92225,
      "d": 144.23074999999972,
      "v": 127
    },
    {
      "midi": 53,
      "hit": false,
      "t": 6346.152999999999,
      "d": 144.23074999999972,
      "v": 127
    },
    {
      "midi": 55,
      "hit": false,
      "t": 6490.383749999999,
      "d": 144.23074999999972,
      "v": 127
    },
    {
      "midi": 53,
      "hit": false,
      "t": 6634.614499999999,
      "d": 144.23074999999972,
      "v": 127
    },
    {
      "midi": 52,
      "hit": false,
      "t": 6778.8452499999985,
      "d": 144.23074999999972,
      "v": 127
    },
    {
      "midi": 50,
      "hit": false,
      "t": 6923.075999999998,
      "d": 144.23074999999972,
      "v": 127
    },
    {
      "midi": 53,
      "hit": false,
      "t": 7067.306749999998,
      "d": 144.23074999999972,
      "v": 127
    },
    {
      "midi": 49,
      "hit": false,
      "t": 7211.537499999998,
      "d": 144.23074999999972,
      "v": 127
    },
    {
      "midi": 52,
      "hit": false,
      "t": 7355.768249999997,
      "d": 144.23074999999972,
      "v": 127
    },
    {
      "midi": 50,
      "hit": false,
      "t": 7499.998999999997,
      "d": 144.23074999999972,
      "v": 127
    },
    {
      "midi": 53,
      "hit": false,
      "t": 7644.229749999997,
      "d": 144.23074999999972,
      "v": 127
    },
    {
      "midi": 45,
      "hit": false,
      "t": 7788.4604999999965,
      "d": 144.23074999999972,
      "v": 127
    },
    {
      "midi": 50,
      "hit": false,
      "t": 7932.691249999996,
      "d": 144.23074999999972,
      "v": 127
    },
    {
      "midi": 46,
      "hit": false,
      "t": 8076.921999999996,
      "d": 144.23074999999972,
      "v": 127
    },
    {
      "midi": 50,
      "hit": false,
      "t": 8221.152749999996,
      "d": 144.23075000000063,
      "v": 127
    },
    {
      "midi": 45,
      "hit": false,
      "t": 8365.383499999996,
      "d": 144.23075000000063,
      "v": 127
    },
    {
      "midi": 50,
      "hit": false,
      "t": 8509.614249999997,
      "d": 144.23075000000063,
      "v": 127
    },
    {
      "midi": 46,
      "hit": false,
      "t": 8653.844999999998,
      "d": 144.23075000000063,
      "v": 127
    },
    {
      "midi": 50,
      "hit": false,
      "t": 8798.075749999998,
      "d": 144.23075000000063,
      "v": 127
    },
    {
      "midi": 41,
      "hit": false,
      "t": 8942.306499999999,
      "d": 144.23075000000063,
      "v": 127
    },
    {
      "midi": 50,
      "hit": false,
      "t": 9086.53725,
      "d": 144.23075000000063,
      "v": 127
    },
    {
      "midi": 43,
      "hit": false,
      "t": 9230.768,
      "d": 144.23075000000063,
      "v": 127
    },
    {
      "midi": 46,
      "hit": false,
      "t": 9374.99875,
      "d": 144.23075000000063,
      "v": 127
    },
    {
      "midi": 45,
      "hit": false,
      "t": 9519.229500000001,
      "d": 144.23075000000063,
      "v": 127
    },
    {
      "midi": 43,
      "hit": false,
      "t": 9663.460250000002,
      "d": 144.23075000000063,
      "v": 127
    },
    {
      "midi": 41,
      "hit": false,
      "t": 9807.691000000003,
      "d": 144.23075000000063,
      "v": 127
    },
    {
      "midi": 43,
      "hit": false,
      "t": 9951.921750000003,
      "d": 144.23075000000063,
      "v": 127
    },
    {
      "midi": 41,
      "hit": false,
      "t": 10096.152500000004,
      "d": 144.23075000000063,
      "v": 127
    },
    {
      "midi": 40,
      "hit": false,
      "t": 10240.383250000004,
      "d": 144.23075000000063,
      "v": 127
    },
    {
      "midi": 38,
      "hit": false,
      "t": 10384.614000000005,
      "d": 144.23075000000063,
      "v": 127
    },
    {
      "midi": 41,
      "hit": false,
      "t": 10528.844750000006,
      "d": 144.23075000000063,
      "v": 127
    },
    {
      "midi": 43,
      "hit": false,
      "t": 10673.075500000006,
      "d": 144.23075000000063,
      "v": 127
    },
    {
      "midi": 40,
      "hit": false,
      "t": 10817.306250000007,
      "d": 144.23075000000063,
      "v": 127
    },
    {
      "midi": 45,
      "hit": false,
      "t": 10961.537000000008,
      "d": 432.69225000000006,
      "v": 127
    },
    {
      "midi": 45,
      "hit": false,
      "t": 11394.229250000008,
      "d": 144.23075000000063,
      "v": 127
    },
    {
      "midi": 38,
      "hit": false,
      "t": 11538.460000000008,
      "d": 576.9230000000007,
      "v": 127
    },
    {
      "midi": 62,
      "hit": false,
      "t": 11682.690749999998,
      "d": 144.23075000000063,
      "v": 127
    },
    {
      "midi": 65,
      "hit": false,
      "t": 11826.921499999999,
      "d": 144.23075000000063,
      "v": 127
    },
    {
      "midi": 67,
      "hit": false,
      "t": 11971.15225,
      "d": 144.23075000000063,
      "v": 127
    },
    {
      "midi": 69,
      "hit": false,
      "t": 12115.383,
      "d": 144.23075000000063,
      "v": 127
    },
    {
      "midi": 67,
      "hit": false,
      "t": 12259.61375,
      "d": 144.23075000000063,
      "v": 127
    },
    {
      "midi": 69,
      "hit": false,
      "t": 12403.844500000001,
      "d": 144.23075000000063,
      "v": 127
    },
    {
      "midi": 64,
      "hit": false,
      "t": 12548.075250000002,
      "d": 144.23075000000063,
      "v": 127
    },
    {
      "midi": 65,
      "hit": false,
      "t": 12692.306000000002,
      "d": 576.9230000000007,
      "v": 127
    },
    {
      "midi": 50,
      "hit": false,
      "t": 12836.536750000008,
      "d": 144.23075000000063,
      "v": 127
    },
    {
      "midi": 53,
      "hit": false,
      "t": 12980.767500000009,
      "d": 144.23075000000063,
      "v": 127
    },
    {
      "midi": 55,
      "hit": false,
      "t": 13124.99825000001,
      "d": 144.23075000000063,
      "v": 127
    },
    {
      "midi": 64,
      "hit": false,
      "t": 13269.229000000003,
      "d": 576.9230000000007,
      "v": 127
    },
    {
      "midi": 57,
      "hit": false,
      "t": 13269.22900000001,
      "d": 144.23075000000063,
      "v": 127
    },
    {
      "midi": 55,
      "hit": false,
      "t": 13413.45975000001,
      "d": 144.23075000000063,
      "v": 127
    },
    {
      "midi": 57,
      "hit": false,
      "t": 13557.690500000012,
      "d": 144.23075000000063,
      "v": 127
    },
    {
      "midi": 52,
      "hit": false,
      "t": 13701.921250000012,
      "d": 144.23075000000063,
      "v": 127
    },
    {
      "midi": 62,
      "hit": false,
      "t": 13846.152000000004,
      "d": 144.23075000000063,
      "v": 127
    },
    {
      "midi": 53,
      "hit": false,
      "t": 13846.152000000013,
      "d": 288.46149999999943,
      "v": 127
    },
    {
      "midi": 69,
      "hit": false,
      "t": 13990.382750000004,
      "d": 144.23075000000063,
      "v": 127
    },
    {
      "midi": 70,
      "hit": false,
      "t": 14134.613500000005,
      "d": 144.23075000000063,
      "v": 127
    },
    {
      "midi": 52,
      "hit": false,
      "t": 14134.613500000012,
      "d": 288.46149999999943,
      "v": 127
    },
    {
      "midi": 72,
      "hit": false,
      "t": 14278.844250000006,
      "d": 144.23075000000063,
      "v": 127
    },
    {
      "midi": 74,
      "hit": false,
      "t": 14423.075000000006,
      "d": 144.23075000000063,
      "v": 127
    },
    {
      "midi": 50,
      "hit": false,
      "t": 14423.075000000012,
      "d": 432.69225000000006,
      "v": 127
    },
    {
      "midi": 72,
      "hit": false,
      "t": 14567.305750000007,
      "d": 144.23075000000063,
      "v": 127
    },
    {
      "midi": 74,
      "hit": false,
      "t": 14711.536500000007,
      "d": 144.23075000000063,
      "v": 127
    },
    {
      "midi": 69,
      "hit": false,
      "t": 14855.767250000008,
      "d": 144.23075000000063,
      "v": 127
    },
    {
      "midi": 53,
      "hit": false,
      "t": 14855.767250000012,
      "d": 144.23075000000063,
      "v": 127
    },
    {
      "midi": 67,
      "hit": false,
      "t": 14999.998000000009,
      "d": 288.46149999999943,
      "v": 127
    },
    {
      "midi": 70,
      "hit": false,
      "t": 14999.998000000009,
      "d": 288.46149999999943,
      "v": 127
    },
    {
      "midi": 55,
      "hit": false,
      "t": 14999.998000000012,
      "d": 144.23075000000063,
      "v": 127
    },
    {
      "midi": 43,
      "hit": false,
      "t": 15144.228750000013,
      "d": 144.23075000000063,
      "v": 127
    },
    {
      "midi": 65,
      "hit": false,
      "t": 15288.459500000008,
      "d": 288.46149999999943,
      "v": 127
    },
    {
      "midi": 69,
      "hit": false,
      "t": 15288.459500000008,
      "d": 288.46149999999943,
      "v": 127
    },
    {
      "midi": 45,
      "hit": false,
      "t": 15288.459500000014,
      "d": 144.23075000000063,
      "v": 127
    },
    {
      "midi": 46,
      "hit": false,
      "t": 15432.690250000014,
      "d": 144.23075000000063,
      "v": 127
    },
    {
      "midi": 64,
      "hit": false,
      "t": 15576.921000000008,
      "d": 576.9230000000007,
      "v": 127
    },
    {
      "midi": 67,
      "hit": false,
      "t": 15576.921000000008,
      "d": 576.9230000000007,
      "v": 127
    },
    {
      "midi": 48,
      "hit": false,
      "t": 15576.921000000015,
      "d": 144.23075000000063,
      "v": 127
    },
    {
      "midi": 46,
      "hit": false,
      "t": 15721.151750000015,
      "d": 144.23075000000063,
      "v": 127
    },
    {
      "midi": 48,
      "hit": false,
      "t": 15865.382500000016,
      "d": 144.23075000000063,
      "v": 127
    },
    {
      "midi": 43,
      "hit": false,
      "t": 16009.613250000017,
      "d": 144.23075000000063,
      "v": 127
    },
    {
      "midi": 65,
      "hit": false,
      "t": 16153.844000000008,
      "d": 144.23075000000063,
      "v": 127
    },
    {
      "midi": 45,
      "hit": false,
      "t": 16153.844000000017,
      "d": 288.46149999999943,
      "v": 127
    },
    {
      "midi": 72,
      "hit": false,
      "t": 16298.074750000009,
      "d": 144.23075000000063,
      "v": 127
    },
    {
      "midi": 74,
      "hit": false,
      "t": 16442.30550000001,
      "d": 144.2307499999988,
      "v": 127
    },
    {
      "midi": 43,
      "hit": false,
      "t": 16442.305500000017,
      "d": 288.46150000000125,
      "v": 127
    },
    {
      "midi": 76,
      "hit": false,
      "t": 16586.53625000001,
      "d": 144.2307499999988,
      "v": 127
    },
    {
      "midi": 77,
      "hit": false,
      "t": 16730.767000000007,
      "d": 144.2307499999988,
      "v": 127
    },
    {
      "midi": 41,
      "hit": false,
      "t": 16730.767000000018,
      "d": 576.9229999999989,
      "v": 127
    },
    {
      "midi": 76,
      "hit": false,
      "t": 16874.997750000006,
      "d": 144.2307499999988,
      "v": 127
    },
    {
      "midi": 77,
      "hit": false,
      "t": 17019.228500000005,
      "d": 144.2307499999988,
      "v": 127
    },
    {
      "midi": 72,
      "hit": false,
      "t": 17163.459250000004,
      "d": 144.2307499999988,
      "v": 127
    },
    {
      "midi": 65,
      "hit": false,
      "t": 17307.690000000002,
      "d": 576.9229999999989,
      "v": 127
    },
    {
      "midi": 70,
      "hit": false,
      "t": 17307.690000000002,
      "d": 576.9229999999989,
      "v": 127
    },
    {
      "midi": 74,
      "hit": false,
      "t": 17307.690000000002,
      "d": 576.9229999999989,
      "v": 127
    },
    {
      "midi": 46,
      "hit": false,
      "t": 17307.690000000017,
      "d": 144.2307499999988,
      "v": 127
    },
    {
      "midi": 53,
      "hit": false,
      "t": 17451.920750000016,
      "d": 144.2307499999988,
      "v": 127
    },
    {
      "midi": 55,
      "hit": false,
      "t": 17596.151500000014,
      "d": 144.2307499999988,
      "v": 127
    },
    {
      "midi": 57,
      "hit": false,
      "t": 17740.382250000013,
      "d": 144.2307499999988,
      "v": 127
    },
    {
      "midi": 74,
      "hit": false,
      "t": 17884.613,
      "d": 144.2307499999988,
      "v": 127
    },
    {
      "midi": 58,
      "hit": false,
      "t": 17884.613000000012,
      "d": 144.2307499999988,
      "v": 127
    },
    {
      "midi": 72,
      "hit": false,
      "t": 18028.84375,
      "d": 144.2307499999988,
      "v": 127
    },
    {
      "midi": 57,
      "hit": false,
      "t": 18028.84375000001,
      "d": 144.2307499999988,
      "v": 127
    },
    {
      "midi": 74,
      "hit": false,
      "t": 18173.0745,
      "d": 144.2307499999988,
      "v": 127
    },
    {
      "midi": 58,
      "hit": false,
      "t": 18173.07450000001,
      "d": 144.2307499999988,
      "v": 127
    },
    {
      "midi": 69,
      "hit": false,
      "t": 18317.305249999998,
      "d": 144.2307499999988,
      "v": 127
    },
    {
      "midi": 53,
      "hit": false,
      "t": 18317.30525000001,
      "d": 144.2307499999988,
      "v": 127
    },
    {
      "midi": 70,
      "hit": false,
      "t": 18461.535999999996,
      "d": 144.2307499999988,
      "v": 127
    },
    {
      "midi": 55,
      "hit": false,
      "t": 18461.536000000007,
      "d": 288.46150000000125,
      "v": 127
    },
    {
      "midi": 74,
      "hit": false,
      "t": 18605.766749999995,
      "d": 144.2307499999988,
      "v": 127
    },
    {
      "midi": 76,
      "hit": false,
      "t": 18749.997499999994,
      "d": 144.2307499999988,
      "v": 127
    },
    {
      "midi": 53,
      "hit": false,
      "t": 18749.99750000001,
      "d": 288.46150000000125,
      "v": 127
    },
    {
      "midi": 77,
      "hit": false,
      "t": 18894.228249999993,
      "d": 144.2307499999988,
      "v": 127
    },
    {
      "midi": 79,
      "hit": false,
      "t": 19038.45899999999,
      "d": 144.2307499999988,
      "v": 127
    },
    {
      "midi": 52,
      "hit": false,
      "t": 19038.45900000001,
      "d": 432.69225000000006,
      "v": 127
    },
    {
      "midi": 77,
      "hit": false,
      "t": 19182.68974999999,
      "d": 144.2307499999988,
      "v": 127
    },
    {
      "midi": 79,
      "hit": false,
      "t": 19326.92049999999,
      "d": 144.2307499999988,
      "v": 127
    },
    {
      "midi": 74,
      "hit": false,
      "t": 19471.151249999988,
      "d": 144.2307499999988,
      "v": 127
    },
    {
      "midi": 55,
      "hit": false,
      "t": 19471.15125000001,
      "d": 144.2307499999988,
      "v": 127
    },
    {
      "midi": 69,
      "hit": false,
      "t": 19615.381999999987,
      "d": 576.9229999999989,
      "v": 127
    },
    {
      "midi": 73,
      "hit": false,
      "t": 19615.381999999987,
      "d": 576.9229999999989,
      "v": 127
    },
    {
      "midi": 57,
      "hit": false,
      "t": 19615.38200000001,
      "d": 144.2307499999988,
      "v": 127
    },
    {
      "midi": 58,
      "hit": false,
      "t": 19759.612750000008,
      "d": 144.2307499999988,
      "v": 127
    },
    {
      "midi": 57,
      "hit": false,
      "t": 19903.843500000006,
      "d": 144.2307499999988,
      "v": 127
    },
    {
      "midi": 55,
      "hit": false,
      "t": 20048.074250000005,
      "d": 144.2307499999988,
      "v": 127
    },
    {
      "midi": 81,
      "hit": false,
      "t": 20192.304999999986,
      "d": 144.2307499999988,
      "v": 127
    },
    {
      "midi": 53,
      "hit": false,
      "t": 20192.305000000004,
      "d": 144.2307499999988,
      "v": 127
    },
    {
      "midi": 77,
      "hit": false,
      "t": 20336.535749999985,
      "d": 144.2307499999988,
      "v": 127
    },
    {
      "midi": 50,
      "hit": false,
      "t": 20336.535750000003,
      "d": 144.2307499999988,
      "v": 127
    },
    {
      "midi": 79,
      "hit": false,
      "t": 20480.766499999983,
      "d": 144.2307499999988,
      "v": 127
    },
    {
      "midi": 52,
      "hit": false,
      "t": 20480.7665,
      "d": 144.2307499999988,
      "v": 127
    },
    {
      "midi": 81,
      "hit": false,
      "t": 20624.997249999982,
      "d": 144.2307499999988,
      "v": 127
    },
    {
      "midi": 53,
      "hit": false,
      "t": 20624.99725,
      "d": 144.2307499999988,
      "v": 127
    },
    {
      "midi": 82,
      "hit": false,
      "t": 20769.22799999998,
      "d": 144.2307499999988,
      "v": 127
    },
    {
      "midi": 55,
      "hit": false,
      "t": 20769.228,
      "d": 144.2307499999988,
      "v": 127
    },
    {
      "midi": 81,
      "hit": false,
      "t": 20913.45874999998,
      "d": 144.2307499999988,
      "v": 127
    },
    {
      "midi": 57,
      "hit": false,
      "t": 20913.458749999998,
      "d": 144.2307499999988,
      "v": 127
    },
    {
      "midi": 79,
      "hit": false,
      "t": 21057.68949999998,
      "d": 144.2307499999988,
      "v": 127
    },
    {
      "midi": 58,
      "hit": false,
      "t": 21057.689499999997,
      "d": 144.2307499999988,
      "v": 127
    },
    {
      "midi": 77,
      "hit": false,
      "t": 21201.920249999977,
      "d": 144.2307499999988,
      "v": 127
    },
    {
      "midi": 55,
      "hit": false,
      "t": 21201.920249999996,
      "d": 144.2307499999988,
      "v": 127
    },
    {
      "midi": 76,
      "hit": false,
      "t": 21346.150999999976,
      "d": 432.69225000000006,
      "v": 127
    },
    {
      "midi": 57,
      "hit": false,
      "t": 21346.150999999994,
      "d": 288.46150000000125,
      "v": 127
    },
    {
      "midi": 45,
      "hit": false,
      "t": 21634.612499999996,
      "d": 288.46150000000125,
      "v": 127
    },
    {
      "midi": 74,
      "hit": false,
      "t": 21778.843249999976,
      "d": 144.2307499999988,
      "v": 127
    },
    {
      "midi": 74,
      "hit": false,
      "t": 21923.073999999975,
      "d": 144.2307499999988,
      "v": 127
    },
    {
      "midi": 50,
      "hit": false,
      "t": 21923.073999999997,
      "d": 576.9229999999989,
      "v": 127
    },
    {
      "midi": 69,
      "hit": false,
      "t": 22067.304749999974,
      "d": 144.2307499999988,
      "v": 127
    },
    {
      "midi": 65,
      "hit": false,
      "t": 22211.535499999973,
      "d": 144.2307499999988,
      "v": 127
    },
    {
      "midi": 69,
      "hit": false,
      "t": 22355.76624999997,
      "d": 144.2307499999988,
      "v": 127
    },
    {
      "midi": 62,
      "hit": false,
      "t": 22499.99699999997,
      "d": 576.9229999999989,
      "v": 127
    },
    {
      "midi": 38,
      "hit": false,
      "t": 22788.458499999997,
      "d": 288.46150000000125,
      "v": 127
    },
    {
      "midi": 74,
      "hit": false,
      "t": 23076.91999999997,
      "d": 288.46150000000125,
      "v": 127
    },
    {
      "midi": 77,
      "hit": false,
      "t": 23365.38149999997,
      "d": 288.46150000000125,
      "v": 127
    },
    {
      "midi": 76,
      "hit": false,
      "t": 23653.84299999997,
      "d": 288.46150000000125,
      "v": 127
    },
    {
      "midi": 74,
      "hit": false,
      "t": 23942.304499999973,
      "d": 288.46150000000125,
      "v": 127
    },
    {
      "midi": 81,
      "hit": false,
      "t": 24230.765999999974,
      "d": 144.2307499999988,
      "v": 127
    },
    {
      "midi": 69,
      "hit": false,
      "t": 24230.766,
      "d": 288.46150000000125,
      "v": 127
    },
    {
      "midi": 77,
      "hit": false,
      "t": 24374.996749999973,
      "d": 144.2307499999988,
      "v": 127
    },
    {
      "midi": 76,
      "hit": false,
      "t": 24519.22749999997,
      "d": 144.2307499999988,
      "v": 127
    },
    {
      "midi": 73,
      "hit": false,
      "t": 24519.2275,
      "d": 288.46150000000125,
      "v": 127
    },
    {
      "midi": 77,
      "hit": false,
      "t": 24663.45824999997,
      "d": 144.2307499999988,
      "v": 127
    },
    {
      "midi": 79,
      "hit": false,
      "t": 24807.68899999997,
      "d": 144.2307499999988,
      "v": 127
    },
    {
      "midi": 71,
      "hit": false,
      "t": 24807.689000000002,
      "d": 288.46150000000125,
      "v": 127
    },
    {
      "midi": 77,
      "hit": false,
      "t": 24951.91974999997,
      "d": 144.2307499999988,
      "v": 127
    },
    {
      "midi": 79,
      "hit": false,
      "t": 25096.150499999967,
      "d": 144.2307499999988,
      "v": 127
    },
    {
      "midi": 69,
      "hit": false,
      "t": 25096.150500000003,
      "d": 288.46150000000125,
      "v": 127
    },
    {
      "midi": 81,
      "hit": false,
      "t": 25240.381249999966,
      "d": 144.2307499999988,
      "v": 127
    },
    {
      "midi": 77,
      "hit": false,
      "t": 25384.611999999965,
      "d": 144.2307499999988,
      "v": 127
    },
    {
      "midi": 62,
      "hit": false,
      "t": 25384.612000000005,
      "d": 288.46150000000125,
      "v": 127
    },
    {
      "midi": 71,
      "hit": false,
      "t": 25528.842749999963,
      "d": 144.2307499999988,
      "v": 127
    },
    {
      "midi": 69,
      "hit": false,
      "t": 25673.073499999962,
      "d": 144.2307499999988,
      "v": 127
    },
    {
      "midi": 65,
      "hit": false,
      "t": 25673.073500000006,
      "d": 288.46150000000125,
      "v": 127
    },
    {
      "midi": 71,
      "hit": false,
      "t": 25817.30424999996,
      "d": 144.2307499999988,
      "v": 127
    },
    {
      "midi": 73,
      "hit": false,
      "t": 25961.53499999996,
      "d": 144.2307499999988,
      "v": 127
    },
    {
      "midi": 64,
      "hit": false,
      "t": 25961.535000000007,
      "d": 288.46150000000125,
      "v": 127
    },
    {
      "midi": 71,
      "hit": false,
      "t": 26105.76574999996,
      "d": 144.2307499999988,
      "v": 127
    },
    {
      "midi": 73,
      "hit": false,
      "t": 26249.996499999957,
      "d": 144.2307499999988,
      "v": 127
    },
    {
      "midi": 62,
      "hit": false,
      "t": 26249.99650000001,
      "d": 288.46150000000125,
      "v": 127
    },
    {
      "midi": 74,
      "hit": false,
      "t": 26394.227249999956,
      "d": 144.2307499999988,
      "v": 127
    },
    {
      "midi": 69,
      "hit": false,
      "t": 26538.457999999955,
      "d": 144.2307499999988,
      "v": 127
    },
    {
      "midi": 57,
      "hit": false,
      "t": 26538.45800000001,
      "d": 288.46150000000125,
      "v": 127
    },
    {
      "midi": 65,
      "hit": false,
      "t": 26682.688749999954,
      "d": 144.2307499999988,
      "v": 127
    },
    {
      "midi": 64,
      "hit": false,
      "t": 26826.919499999953,
      "d": 144.2307499999988,
      "v": 127
    },
    {
      "midi": 61,
      "hit": false,
      "t": 26826.91950000001,
      "d": 288.46150000000125,
      "v": 127
    },
    {
      "midi": 65,
      "hit": false,
      "t": 26971.15024999995,
      "d": 144.2307499999988,
      "v": 127
    },
    {
      "midi": 67,
      "hit": false,
      "t": 27115.38099999995,
      "d": 144.2307499999988,
      "v": 127
    },
    {
      "midi": 59,
      "hit": false,
      "t": 27115.381000000012,
      "d": 288.46150000000125,
      "v": 127
    },
    {
      "midi": 65,
      "hit": false,
      "t": 27259.61174999995,
      "d": 144.2307499999988,
      "v": 127
    },
    {
      "midi": 67,
      "hit": false,
      "t": 27403.842499999948,
      "d": 144.2307499999988,
      "v": 127
    },
    {
      "midi": 57,
      "hit": false,
      "t": 27403.842500000013,
      "d": 288.46150000000125,
      "v": 127
    },
    {
      "midi": 69,
      "hit": false,
      "t": 27548.073249999947,
      "d": 144.2307499999988,
      "v": 127
    },
    {
      "midi": 65,
      "hit": false,
      "t": 27692.303999999946,
      "d": 144.2307499999988,
      "v": 127
    },
    {
      "midi": 62,
      "hit": false,
      "t": 27692.304000000015,
      "d": 144.2307499999988,
      "v": 127
    },
    {
      "midi": 62,
      "hit": false,
      "t": 27836.534749999944,
      "d": 144.2307499999988,
      "v": 127
    },
    {
      "midi": 59,
      "hit": false,
      "t": 27836.534750000013,
      "d": 144.2307499999988,
      "v": 127
    },
    {
      "midi": 61,
      "hit": false,
      "t": 27980.765499999943,
      "d": 144.2307499999988,
      "v": 127
    },
    {
      "midi": 57,
      "hit": false,
      "t": 27980.765500000012,
      "d": 144.2307499999988,
      "v": 127
    },
    {
      "midi": 62,
      "hit": false,
      "t": 28124.996249999942,
      "d": 144.2307499999988,
      "v": 127
    },
    {
      "midi": 59,
      "hit": false,
      "t": 28124.99625000001,
      "d": 144.2307499999988,
      "v": 127
    },
    {
      "midi": 64,
      "hit": false,
      "t": 28269.22699999994,
      "d": 144.2307499999988,
      "v": 127
    },
    {
      "midi": 61,
      "hit": false,
      "t": 28269.22700000001,
      "d": 144.2307499999988,
      "v": 127
    },
    {
      "midi": 62,
      "hit": false,
      "t": 28413.45774999994,
      "d": 144.2307499999988,
      "v": 127
    },
    {
      "midi": 59,
      "hit": false,
      "t": 28413.45775000001,
      "d": 144.2307499999988,
      "v": 127
    },
    {
      "midi": 64,
      "hit": false,
      "t": 28557.68849999994,
      "d": 144.2307499999988,
      "v": 127
    },
    {
      "midi": 61,
      "hit": false,
      "t": 28557.688500000007,
      "d": 144.2307499999988,
      "v": 127
    },
    {
      "midi": 65,
      "hit": false,
      "t": 28701.919249999937,
      "d": 144.2307499999988,
      "v": 127
    },
    {
      "midi": 62,
      "hit": false,
      "t": 28701.919250000006,
      "d": 144.2307499999988,
      "v": 127
    },
    {
      "midi": 62,
      "hit": false,
      "t": 28846.149999999936,
      "d": 144.2307499999988,
      "v": 127
    },
    {
      "midi": 59,
      "hit": false,
      "t": 28846.150000000005,
      "d": 144.2307499999988,
      "v": 127
    },
    {
      "midi": 67,
      "hit": false,
      "t": 28990.380749999935,
      "d": 144.2307499999988,
      "v": 127
    },
    {
      "midi": 64,
      "hit": false,
      "t": 28990.380750000004,
      "d": 144.2307499999988,
      "v": 127
    },
    {
      "midi": 65,
      "hit": false,
      "t": 29134.611499999934,
      "d": 144.2307499999988,
      "v": 127
    },
    {
      "midi": 62,
      "hit": false,
      "t": 29134.611500000003,
      "d": 144.2307499999988,
      "v": 127
    },
    {
      "midi": 67,
      "hit": false,
      "t": 29278.842249999932,
      "d": 144.2307499999988,
      "v": 127
    },
    {
      "midi": 64,
      "hit": false,
      "t": 29278.84225,
      "d": 144.2307499999988,
      "v": 127
    },
    {
      "midi": 64,
      "hit": false,
      "t": 29423.07299999993,
      "d": 144.2307499999988,
      "v": 127
    },
    {
      "midi": 61,
      "hit": false,
      "t": 29423.073,
      "d": 288.46150000000125,
      "v": 127
    },
    {
      "midi": 65,
      "hit": false,
      "t": 29567.30374999993,
      "d": 144.2307499999988,
      "v": 127
    },
    {
      "midi": 67,
      "hit": false,
      "t": 29711.53449999993,
      "d": 144.2307499999988,
      "v": 127
    },
    {
      "midi": 57,
      "hit": false,
      "t": 29711.5345,
      "d": 288.46150000000125,
      "v": 127
    },
    {
      "midi": 69,
      "hit": false,
      "t": 29855.765249999928,
      "d": 144.2307499999988,
      "v": 127
    },
    {
      "midi": 65,
      "hit": false,
      "t": 29999.995999999926,
      "d": 144.2307499999988,
      "v": 127
    },
    {
      "midi": 50,
      "hit": false,
      "t": 29999.996000000003,
      "d": 288.46150000000125,
      "v": 127
    },
    {
      "midi": 67,
      "hit": false,
      "t": 30144.226749999925,
      "d": 144.2307499999988,
      "v": 127
    },
    {
      "midi": 69,
      "hit": false,
      "t": 30288.457499999924,
      "d": 144.2307499999988,
      "v": 127
    },
    {
      "midi": 53,
      "hit": false,
      "t": 30288.457500000004,
      "d": 288.46150000000125,
      "v": 127
    },
    {
      "midi": 70,
      "hit": false,
      "t": 30432.688249999923,
      "d": 144.2307499999988,
      "v": 127
    },
    {
      "midi": 61,
      "hit": false,
      "t": 30576.91899999992,
      "d": 288.46150000000125,
      "v": 127
    },
    {
      "midi": 67,
      "hit": false,
      "t": 30576.91899999992,
      "d": 288.46150000000125,
      "v": 127
    },
    {
      "midi": 52,
      "hit": false,
      "t": 30576.919000000005,
      "d": 288.46150000000125,
      "v": 127
    },
    {
      "midi": 62,
      "hit": false,
      "t": 30865.380499999923,
      "d": 288.46150000000125,
      "v": 127
    },
    {
      "midi": 65,
      "hit": false,
      "t": 30865.380499999923,
      "d": 288.46150000000125,
      "v": 127
    },
    {
      "midi": 50,
      "hit": false,
      "t": 30865.380500000007,
      "d": 288.46150000000125,
      "v": 127
    },
    {
      "midi": 61,
      "hit": false,
      "t": 31153.841999999924,
      "d": 288.46150000000125,
      "v": 127
    },
    {
      "midi": 64,
      "hit": false,
      "t": 31153.841999999924,
      "d": 288.46150000000125,
      "v": 127
    },
    {
      "midi": 57,
      "hit": false,
      "t": 31153.842000000008,
      "d": 144.2307499999988,
      "v": 127
    },
    {
      "midi": 53,
      "hit": false,
      "t": 31298.072750000007,
      "d": 144.2307499999988,
      "v": 127
    },
    {
      "midi": 73,
      "hit": false,
      "t": 31442.303499999925,
      "d": 288.46150000000125,
      "v": 127
    },
    {
      "midi": 52,
      "hit": false,
      "t": 31442.303500000005,
      "d": 144.2307499999988,
      "v": 127
    },
    {
      "midi": 53,
      "hit": false,
      "t": 31586.534250000004,
      "d": 144.2307499999988,
      "v": 127
    },
    {
      "midi": 71,
      "hit": false,
      "t": 31730.764999999927,
      "d": 288.46150000000125,
      "v": 127
    },
    {
      "midi": 55,
      "hit": false,
      "t": 31730.765000000003,
      "d": 144.2307499999988,
      "v": 127
    },
    {
      "midi": 53,
      "hit": false,
      "t": 31874.995750000002,
      "d": 144.2307499999988,
      "v": 127
    },
    {
      "midi": 69,
      "hit": false,
      "t": 32019.226499999928,
      "d": 288.46150000000125,
      "v": 127
    },
    {
      "midi": 55,
      "hit": false,
      "t": 32019.2265,
      "d": 144.2307499999988,
      "v": 127
    },
    {
      "midi": 57,
      "hit": false,
      "t": 32163.45725,
      "d": 144.2307499999988,
      "v": 127
    },
    {
      "midi": 74,
      "hit": false,
      "t": 32307.68799999993,
      "d": 144.2307499999988,
      "v": 127
    },
    {
      "midi": 53,
      "hit": false,
      "t": 32307.688,
      "d": 144.2307499999988,
      "v": 127
    },
    {
      "midi": 71,
      "hit": false,
      "t": 32451.918749999928,
      "d": 144.2307499999988,
      "v": 127
    },
    {
      "midi": 50,
      "hit": false,
      "t": 32451.918749999997,
      "d": 144.2307499999988,
      "v": 127
    },
    {
      "midi": 69,
      "hit": false,
      "t": 32596.149499999927,
      "d": 144.2307499999988,
      "v": 127
    },
    {
      "midi": 49,
      "hit": false,
      "t": 32596.149499999996,
      "d": 144.2307499999988,
      "v": 127
    },
    {
      "midi": 71,
      "hit": false,
      "t": 32740.380249999926,
      "d": 144.2307499999988,
      "v": 127
    },
    {
      "midi": 50,
      "hit": false,
      "t": 32740.380249999995,
      "d": 144.23075000000244,
      "v": 127
    },
    {
      "midi": 73,
      "hit": false,
      "t": 32884.610999999924,
      "d": 144.23075000000244,
      "v": 127
    },
    {
      "midi": 52,
      "hit": false,
      "t": 32884.611,
      "d": 144.23075000000244,
      "v": 127
    },
    {
      "midi": 71,
      "hit": false,
      "t": 33028.84174999993,
      "d": 144.23075000000244,
      "v": 127
    },
    {
      "midi": 50,
      "hit": false,
      "t": 33028.84175,
      "d": 144.23075000000244,
      "v": 127
    },
    {
      "midi": 73,
      "hit": false,
      "t": 33173.07249999993,
      "d": 144.23075000000244,
      "v": 127
    },
    {
      "midi": 52,
      "hit": false,
      "t": 33173.0725,
      "d": 144.23075000000244,
      "v": 127
    },
    {
      "midi": 74,
      "hit": false,
      "t": 33317.30324999993,
      "d": 144.23075000000244,
      "v": 127
    },
    {
      "midi": 53,
      "hit": false,
      "t": 33317.303250000004,
      "d": 144.23075000000244,
      "v": 127
    },
    {
      "midi": 76,
      "hit": false,
      "t": 33461.533999999934,
      "d": 144.23075000000244,
      "v": 127
    },
    {
      "midi": 55,
      "hit": false,
      "t": 33461.53400000001,
      "d": 144.23075000000244,
      "v": 127
    },
    {
      "midi": 77,
      "hit": false,
      "t": 33605.76474999994,
      "d": 144.23075000000244,
      "v": 127
    },
    {
      "midi": 57,
      "hit": false,
      "t": 33605.76475000001,
      "d": 144.23075000000244,
      "v": 127
    },
    {
      "midi": 74,
      "hit": false,
      "t": 33749.99549999994,
      "d": 144.23075000000244,
      "v": 127
    },
    {
      "midi": 58,
      "hit": false,
      "t": 33749.99550000001,
      "d": 144.23075000000244,
      "v": 127
    },
    {
      "midi": 76,
      "hit": false,
      "t": 33894.22624999994,
      "d": 144.23075000000244,
      "v": 127
    },
    {
      "midi": 55,
      "hit": false,
      "t": 33894.226250000014,
      "d": 144.23075000000244,
      "v": 127
    },
    {
      "midi": 73,
      "hit": false,
      "t": 34038.456999999944,
      "d": 432.69225000000006,
      "v": 127
    },
    {
      "midi": 57,
      "hit": false,
      "t": 34038.45700000002,
      "d": 288.4614999999976,
      "v": 127
    },
    {
      "midi": 45,
      "hit": false,
      "t": 34326.918500000014,
      "d": 288.4614999999976,
      "v": 127
    },
    {
      "midi": 74,
      "hit": false,
      "t": 34471.149249999944,
      "d": 144.23075000000244,
      "v": 127
    },
    {
      "midi": 74,
      "hit": false,
      "t": 34615.37999999995,
      "d": 288.4614999999976,
      "v": 127
    },
    {
      "midi": 50,
      "hit": false,
      "t": 34615.38000000001,
      "d": 576.9230000000025,
      "v": 127
    },
    {
      "midi": 65,
      "hit": false,
      "t": 34903.841499999944,
      "d": 288.4614999999976,
      "v": 127
    },
    {
      "midi": 64,
      "hit": false,
      "t": 35192.30299999994,
      "d": 288.4614999999976,
      "v": 127
    },
    {
      "midi": 62,
      "hit": false,
      "t": 35480.76449999994,
      "d": 288.4614999999976,
      "v": 127
    },
    {
      "midi": 69,
      "hit": false,
      "t": 35769.22599999994,
      "d": 288.4614999999976,
      "v": 127
    },
    {
      "midi": 69,
      "hit": false,
      "t": 35769.22600000002,
      "d": 144.23075000000244,
      "v": 127
    },
    {
      "midi": 65,
      "hit": false,
      "t": 35913.45675000002,
      "d": 144.23075000000244,
      "v": 127
    },
    {
      "midi": 73,
      "hit": false,
      "t": 36057.687499999935,
      "d": 288.4614999999976,
      "v": 127
    },
    {
      "midi": 64,
      "hit": false,
      "t": 36057.68750000002,
      "d": 144.23075000000244,
      "v": 127
    },
    {
      "midi": 65,
      "hit": false,
      "t": 36201.918250000024,
      "d": 144.23075000000244,
      "v": 127
    },
    {
      "midi": 71,
      "hit": false,
      "t": 36346.14899999993,
      "d": 288.4614999999976,
      "v": 127
    },
    {
      "midi": 67,
      "hit": false,
      "t": 36346.14900000003,
      "d": 144.23075000000244,
      "v": 127
    },
    {
      "midi": 65,
      "hit": false,
      "t": 36490.37975000003,
      "d": 144.23075000000244,
      "v": 127
    },
    {
      "midi": 69,
      "hit": false,
      "t": 36634.61049999993,
      "d": 288.4614999999976,
      "v": 127
    },
    {
      "midi": 67,
      "hit": false,
      "t": 36634.61050000003,
      "d": 144.23075000000244,
      "v": 127
    },
    {
      "midi": 69,
      "hit": false,
      "t": 36778.841250000034,
      "d": 144.23075000000244,
      "v": 127
    },
    {
      "midi": 74,
      "hit": false,
      "t": 36923.07199999993,
      "d": 144.23075000000244,
      "v": 127
    },
    {
      "midi": 65,
      "hit": false,
      "t": 36923.07200000004,
      "d": 288.4614999999976,
      "v": 127
    },
    {
      "midi": 71,
      "hit": false,
      "t": 37067.30274999993,
      "d": 144.23075000000244,
      "v": 127
    },
    {
      "midi": 69,
      "hit": false,
      "t": 37211.53349999993,
      "d": 144.23075000000244,
      "v": 127
    },
    {
      "midi": 67,
      "hit": false,
      "t": 37211.533500000034,
      "d": 288.4614999999976,
      "v": 127
    },
    {
      "midi": 71,
      "hit": false,
      "t": 37355.764249999935,
      "d": 144.23075000000244,
      "v": 127
    },
    {
      "midi": 73,
      "hit": false,
      "t": 37499.99499999994,
      "d": 144.23075000000244,
      "v": 127
    },
    {
      "midi": 69,
      "hit": false,
      "t": 37499.99500000003,
      "d": 432.69225000000006,
      "v": 127
    },
    {
      "midi": 71,
      "hit": false,
      "t": 37644.22574999994,
      "d": 144.23075000000244,
      "v": 127
    },
    {
      "midi": 73,
      "hit": false,
      "t": 37788.45649999994,
      "d": 144.23075000000244,
      "v": 127
    },
    {
      "midi": 74,
      "hit": false,
      "t": 37932.687249999944,
      "d": 144.23075000000244,
      "v": 127
    },
    {
      "midi": 71,
      "hit": false,
      "t": 37932.68725000003,
      "d": 144.23075000000244,
      "v": 127
    },
    {
      "midi": 76,
      "hit": false,
      "t": 38076.91799999995,
      "d": 288.4614999999976,
      "v": 127
    },
    {
      "midi": 45,
      "hit": false,
      "t": 38076.918000000034,
      "d": 288.4614999999976,
      "v": 127
    },
    {
      "midi": 64,
      "hit": false,
      "t": 38365.379499999945,
      "d": 144.23075000000244,
      "v": 127
    },
    {
      "midi": 49,
      "hit": false,
      "t": 38365.37950000003,
      "d": 288.4614999999976,
      "v": 127
    },
    {
      "midi": 65,
      "hit": false,
      "t": 38509.61024999995,
      "d": 144.23075000000244,
      "v": 127
    },
    {
      "midi": 67,
      "hit": false,
      "t": 38653.84099999995,
      "d": 144.23075000000244,
      "v": 127
    },
    {
      "midi": 47,
      "hit": false,
      "t": 38653.84100000003,
      "d": 288.4614999999976,
      "v": 127
    },
    {
      "midi": 65,
      "hit": false,
      "t": 38798.07174999995,
      "d": 144.23075000000244,
      "v": 127
    },
    {
      "midi": 67,
      "hit": false,
      "t": 38942.302499999954,
      "d": 144.23075000000244,
      "v": 127
    },
    {
      "midi": 45,
      "hit": false,
      "t": 38942.30250000003,
      "d": 288.4614999999976,
      "v": 127
    },
    {
      "midi": 69,
      "hit": false,
      "t": 39086.53324999996,
      "d": 144.23075000000244,
      "v": 127
    },
    {
      "midi": 65,
      "hit": false,
      "t": 39230.76399999996,
      "d": 288.4614999999976,
      "v": 127
    },
    {
      "midi": 50,
      "hit": false,
      "t": 39230.764000000025,
      "d": 144.23075000000244,
      "v": 127
    },
    {
      "midi": 47,
      "hit": false,
      "t": 39374.99475000003,
      "d": 144.23075000000244,
      "v": 127
    },
    {
      "midi": 77,
      "hit": false,
      "t": 39519.22549999996,
      "d": 288.4614999999976,
      "v": 127
    },
    {
      "midi": 45,
      "hit": false,
      "t": 39519.22550000003,
      "d": 144.23075000000244,
      "v": 127
    },
    {
      "midi": 47,
      "hit": false,
      "t": 39663.45625000003,
      "d": 144.23075000000244,
      "v": 127
    },
    {
      "midi": 76,
      "hit": false,
      "t": 39807.686999999954,
      "d": 288.4614999999976,
      "v": 127
    },
    {
      "midi": 49,
      "hit": false,
      "t": 39807.687000000034,
      "d": 144.23075000000244,
      "v": 127
    },
    {
      "midi": 47,
      "hit": false,
      "t": 39951.91775000004,
      "d": 144.23075000000244,
      "v": 127
    },
    {
      "midi": 74,
      "hit": false,
      "t": 40096.14849999995,
      "d": 288.4614999999976,
      "v": 127
    },
    {
      "midi": 49,
      "hit": false,
      "t": 40096.14850000004,
      "d": 144.23075000000244,
      "v": 127
    },
    {
      "midi": 50,
      "hit": false,
      "t": 40240.37925000004,
      "d": 144.23075000000244,
      "v": 127
    },
    {
      "midi": 81,
      "hit": false,
      "t": 40384.60999999995,
      "d": 144.23075000000244,
      "v": 127
    },
    {
      "midi": 49,
      "hit": false,
      "t": 40384.610000000044,
      "d": 432.69225000000006,
      "v": 127
    },
    {
      "midi": 77,
      "hit": false,
      "t": 40528.84074999995,
      "d": 144.23075000000244,
      "v": 127
    },
    {
      "midi": 76,
      "hit": false,
      "t": 40673.071499999955,
      "d": 144.23075000000244,
      "v": 127
    },
    {
      "midi": 77,
      "hit": false,
      "t": 40817.30224999996,
      "d": 144.23075000000244,
      "v": 127
    },
    {
      "midi": 50,
      "hit": false,
      "t": 40817.302250000044,
      "d": 144.23075000000244,
      "v": 127
    },
    {
      "midi": 79,
      "hit": false,
      "t": 40961.53299999996,
      "d": 144.23075000000244,
      "v": 127
    },
    {
      "midi": 52,
      "hit": false,
      "t": 40961.53300000005,
      "d": 432.69225000000006,
      "v": 127
    },
    {
      "midi": 77,
      "hit": false,
      "t": 41105.76374999996,
      "d": 144.23075000000244,
      "v": 127
    },
    {
      "midi": 79,
      "hit": false,
      "t": 41249.994499999964,
      "d": 144.23075000000244,
      "v": 127
    },
    {
      "midi": 81,
      "hit": false,
      "t": 41394.22524999997,
      "d": 144.23075000000244,
      "v": 127
    },
    {
      "midi": 49,
      "hit": false,
      "t": 41394.22525000005,
      "d": 144.23075000000244,
      "v": 127
    },
    {
      "midi": 77,
      "hit": false,
      "t": 41538.45599999997,
      "d": 288.4614999999976,
      "v": 127
    },
    {
      "midi": 50,
      "hit": false,
      "t": 41538.45600000005,
      "d": 144.23075000000244,
      "v": 127
    },
    {
      "midi": 49,
      "hit": false,
      "t": 41682.68675000005,
      "d": 144.23075000000244,
      "v": 127
    },
    {
      "midi": 76,
      "hit": false,
      "t": 41826.91749999997,
      "d": 288.4614999999976,
      "v": 127
    },
    {
      "midi": 50,
      "hit": false,
      "t": 41826.917500000054,
      "d": 144.23075000000244,
      "v": 127
    },
    {
      "midi": 52,
      "hit": false,
      "t": 41971.14825000006,
      "d": 144.23075000000244,
      "v": 127
    },
    {
      "midi": 74,
      "hit": false,
      "t": 42115.378999999964,
      "d": 432.69225000000006,
      "v": 127
    },
    {
      "midi": 53,
      "hit": false,
      "t": 42115.37900000006,
      "d": 144.23075000000244,
      "v": 127
    },
    {
      "midi": 52,
      "hit": false,
      "t": 42259.60975000006,
      "d": 144.23075000000244,
      "v": 127
    },
    {
      "midi": 53,
      "hit": false,
      "t": 42403.840500000064,
      "d": 144.23075000000244,
      "v": 127
    },
    {
      "midi": 71,
      "hit": false,
      "t": 42548.071249999964,
      "d": 144.23075000000244,
      "v": 127
    },
    {
      "midi": 55,
      "hit": false,
      "t": 42548.071250000066,
      "d": 144.23075000000244,
      "v": 127
    },
    {
      "midi": 64,
      "hit": false,
      "t": 42692.30199999997,
      "d": 288.4614999999976,
      "v": 127
    },
    {
      "midi": 69,
      "hit": false,
      "t": 42692.30199999997,
      "d": 288.4614999999976,
      "v": 127
    },
    {
      "midi": 73,
      "hit": false,
      "t": 42692.30199999997,
      "d": 288.4614999999976,
      "v": 127
    },
    {
      "midi": 57,
      "hit": false,
      "t": 42692.30200000007,
      "d": 288.4614999999976,
      "v": 127
    },
    {
      "midi": 69,
      "hit": false,
      "t": 42980.763499999965,
      "d": 144.23075000000244,
      "v": 127
    },
    {
      "midi": 61,
      "hit": false,
      "t": 42980.76350000007,
      "d": 288.4614999999976,
      "v": 127
    },
    {
      "midi": 65,
      "hit": false,
      "t": 43124.99424999997,
      "d": 144.23075000000244,
      "v": 127
    },
    {
      "midi": 62,
      "hit": false,
      "t": 43269.22499999997,
      "d": 288.4614999999976,
      "v": 127
    },
    {
      "midi": 67,
      "hit": false,
      "t": 43269.22499999997,
      "d": 288.4614999999976,
      "v": 127
    },
    {
      "midi": 59,
      "hit": false,
      "t": 43269.225000000064,
      "d": 288.4614999999976,
      "v": 127
    },
    {
      "midi": 61,
      "hit": false,
      "t": 43557.68649999997,
      "d": 288.4614999999976,
      "v": 127
    },
    {
      "midi": 69,
      "hit": false,
      "t": 43557.68649999997,
      "d": 288.4614999999976,
      "v": 127
    },
    {
      "midi": 57,
      "hit": false,
      "t": 43557.68650000006,
      "d": 288.4614999999976,
      "v": 127
    },
    {
      "midi": 65,
      "hit": false,
      "t": 43846.147999999965,
      "d": 144.23075000000244,
      "v": 127
    },
    {
      "midi": 62,
      "hit": false,
      "t": 43846.14800000006,
      "d": 144.23075000000244,
      "v": 127
    },
    {
      "midi": 62,
      "hit": false,
      "t": 43990.37874999997,
      "d": 144.23075000000244,
      "v": 127
    },
    {
      "midi": 59,
      "hit": false,
      "t": 43990.37875000006,
      "d": 144.23075000000244,
      "v": 127
    },
    {
      "midi": 61,
      "hit": false,
      "t": 44134.60949999997,
      "d": 144.23075000000244,
      "v": 127
    },
    {
      "midi": 57,
      "hit": false,
      "t": 44134.609500000064,
      "d": 144.23075000000244,
      "v": 127
    },
    {
      "midi": 62,
      "hit": false,
      "t": 44278.84024999997,
      "d": 144.23075000000244,
      "v": 127
    },
    {
      "midi": 59,
      "hit": false,
      "t": 44278.84025000007,
      "d": 144.23075000000244,
      "v": 127
    },
    {
      "midi": 64,
      "hit": false,
      "t": 44423.070999999974,
      "d": 144.23075000000244,
      "v": 127
    },
    {
      "midi": 61,
      "hit": false,
      "t": 44423.07100000007,
      "d": 144.23075000000244,
      "v": 127
    },
    {
      "midi": 62,
      "hit": false,
      "t": 44567.30174999998,
      "d": 144.23075000000244,
      "v": 127
    },
    {
      "midi": 59,
      "hit": false,
      "t": 44567.30175000007,
      "d": 144.23075000000244,
      "v": 127
    },
    {
      "midi": 64,
      "hit": false,
      "t": 44711.53249999998,
      "d": 144.23075000000244,
      "v": 127
    },
    {
      "midi": 61,
      "hit": false,
      "t": 44711.532500000074,
      "d": 144.23075000000244,
      "v": 127
    },
    {
      "midi": 65,
      "hit": false,
      "t": 44855.76324999998,
      "d": 144.23075000000244,
      "v": 127
    },
    {
      "midi": 62,
      "hit": false,
      "t": 44855.76325000008,
      "d": 144.23075000000244,
      "v": 127
    },
    {
      "midi": 69,
      "hit": false,
      "t": 44999.993999999984,
      "d": 288.4614999999976,
      "v": 127
    },
    {
      "midi": 61,
      "hit": false,
      "t": 44999.99400000008,
      "d": 288.4614999999976,
      "v": 127
    },
    {
      "midi": 73,
      "hit": false,
      "t": 45288.45549999998,
      "d": 288.4614999999976,
      "v": 127
    },
    {
      "midi": 57,
      "hit": false,
      "t": 45288.45550000008,
      "d": 288.4614999999976,
      "v": 127
    },
    {
      "midi": 71,
      "hit": false,
      "t": 45576.91699999998,
      "d": 288.4614999999976,
      "v": 127
    },
    {
      "midi": 59,
      "hit": false,
      "t": 45576.917000000074,
      "d": 288.4614999999976,
      "v": 127
    },
    {
      "midi": 69,
      "hit": false,
      "t": 45865.37849999998,
      "d": 288.4614999999976,
      "v": 127
    },
    {
      "midi": 61,
      "hit": false,
      "t": 45865.37850000007,
      "d": 288.4614999999976,
      "v": 127
    },
    {
      "midi": 74,
      "hit": false,
      "t": 46153.839999999975,
      "d": 144.23075000000244,
      "v": 127
    },
    {
      "midi": 53,
      "hit": false,
      "t": 46153.84000000007,
      "d": 144.23075000000244,
      "v": 127
    },
    {
      "midi": 71,
      "hit": false,
      "t": 46298.07074999998,
      "d": 144.23075000000244,
      "v": 127
    },
    {
      "midi": 50,
      "hit": false,
      "t": 46298.07075000007,
      "d": 144.23075000000244,
      "v": 127
    },
    {
      "midi": 69,
      "hit": false,
      "t": 46442.30149999998,
      "d": 144.23075000000244,
      "v": 127
    },
    {
      "midi": 49,
      "hit": false,
      "t": 46442.301500000074,
      "d": 144.23075000000244,
      "v": 127
    },
    {
      "midi": 71,
      "hit": false,
      "t": 46586.53224999998,
      "d": 144.23075000000244,
      "v": 127
    },
    {
      "midi": 50,
      "hit": false,
      "t": 46586.53225000008,
      "d": 144.23075000000244,
      "v": 127
    },
    {
      "midi": 73,
      "hit": false,
      "t": 46730.762999999984,
      "d": 144.23075000000244,
      "v": 127
    },
    {
      "midi": 52,
      "hit": false,
      "t": 46730.76300000008,
      "d": 144.23075000000244,
      "v": 127
    },
    {
      "midi": 71,
      "hit": false,
      "t": 46874.99374999999,
      "d": 144.23075000000244,
      "v": 127
    },
    {
      "midi": 50,
      "hit": false,
      "t": 46874.99375000008,
      "d": 144.23075000000244,
      "v": 127
    },
    {
      "midi": 73,
      "hit": false,
      "t": 47019.22449999999,
      "d": 144.23075000000244,
      "v": 127
    },
    {
      "midi": 52,
      "hit": false,
      "t": 47019.224500000084,
      "d": 144.23075000000244,
      "v": 127
    },
    {
      "midi": 74,
      "hit": false,
      "t": 47163.45524999999,
      "d": 144.23075000000244,
      "v": 127
    },
    {
      "midi": 53,
      "hit": false,
      "t": 47163.45525000009,
      "d": 144.23075000000244,
      "v": 127
    },
    {
      "midi": 69,
      "hit": false,
      "t": 47307.685999999994,
      "d": 288.4614999999976,
      "v": 127
    },
    {
      "midi": 77,
      "hit": false,
      "t": 47307.685999999994,
      "d": 288.4614999999976,
      "v": 127
    },
    {
      "midi": 50,
      "hit": false,
      "t": 47307.68600000009,
      "d": 288.4614999999976,
      "v": 127
    },
    {
      "midi": 76,
      "hit": false,
      "t": 47596.14749999999,
      "d": 144.23075000000244,
      "v": 127
    },
    {
      "midi": 55,
      "hit": false,
      "t": 47596.14750000009,
      "d": 288.4614999999976,
      "v": 127
    },
    {
      "midi": 74,
      "hit": false,
      "t": 47740.378249999994,
      "d": 144.23075000000244,
      "v": 127
    },
    {
      "midi": 73,
      "hit": false,
      "t": 47884.609,
      "d": 432.69225000000006,
      "v": 127
    },
    {
      "midi": 57,
      "hit": false,
      "t": 47884.609000000084,
      "d": 288.4614999999976,
      "v": 127
    },
    {
      "midi": 45,
      "hit": false,
      "t": 48173.07050000008,
      "d": 288.4614999999976,
      "v": 127
    },
    {
      "midi": 74,
      "hit": false,
      "t": 48317.30125,
      "d": 144.23075000000244,
      "v": 127
    },
    {
      "midi": 74,
      "hit": false,
      "t": 48461.532,
      "d": 144.23075000000244,
      "v": 127
    },
    {
      "midi": 50,
      "hit": false,
      "t": 48461.53200000008,
      "d": 576.9230000000025,
      "v": 127
    },
    {
      "midi": 69,
      "hit": false,
      "t": 48605.76275,
      "d": 144.23075000000244,
      "v": 127
    },
    {
      "midi": 65,
      "hit": false,
      "t": 48749.993500000004,
      "d": 144.23075000000244,
      "v": 127
    },
    {
      "midi": 69,
      "hit": false,
      "t": 48894.22425000001,
      "d": 144.23075000000244,
      "v": 127
    },
    {
      "midi": 62,
      "hit": false,
      "t": 49038.45500000001,
      "d": 576.9230000000025,
      "v": 127
    },
    {
      "midi": 57,
      "hit": false,
      "t": 49182.685750000084,
      "d": 144.23075000000244,
      "v": 127
    },
    {
      "midi": 53,
      "hit": false,
      "t": 49326.91650000009,
      "d": 144.23075000000244,
      "v": 127
    },
    {
      "midi": 57,
      "hit": false,
      "t": 49471.14725000009,
      "d": 144.23075000000244,
      "v": 127
    },
    {
      "midi": 50,
      "hit": false,
      "t": 49615.37800000009,
      "d": 576.9230000000025,
      "v": 127
    },
    {
      "midi": 38,
      "hit": false,
      "t": 50192.301000000094,
      "d": 288.4614999999976,
      "v": 127
    }
  ]
}