{
  "jsonPath": "Classical/Classical/George Frideric Handel/sonatina.json",
  "path": "Classical\\Classical\\George Frideric Handel\\Sonatina.mid",
  "name": "Sonatina",
  "difficulty": "Advanced",
  "bpm": 92.00012880018032,
  "notes": [
    {
      "midi": 81,
      "hit": false,
      "t": 0,
      "d": 326.0865,
      "v": 127
    },
    {
      "midi": 76,
      "hit": false,
      "t": 326.0865,
      "d": 326.0865,
      "v": 127
    },
    {
      "midi": 72,
      "hit": false,
      "t": 652.173,
      "d": 326.0865,
      "v": 127
    },
    {
      "midi": 69,
      "hit": false,
      "t": 978.2595,
      "d": 326.0865,
      "v": 127
    },
    {
      "midi": 76,
      "hit": false,
      "t": 1304.346,
      "d": 326.0864999999999,
      "v": 127
    },
    {
      "midi": 64,
      "hit": false,
      "t": 1630.4325,
      "d": 326.0864999999999,
      "v": 127
    },
    {
      "midi": 69,
      "hit": false,
      "t": 1956.5189999999998,
      "d": 652.1730000000002,
      "v": 127
    },
    {
      "midi": 57,
      "hit": false,
      "t": 1956.519,
      "d": 326.0865000000001,
      "v": 127
    },
    {
      "midi": 52,
      "hit": false,
      "t": 2282.6055,
      "d": 326.0864999999999,
      "v": 127
    },
    {
      "midi": 48,
      "hit": false,
      "t": 2608.692,
      "d": 326.0864999999999,
      "v": 127
    },
    {
      "midi": 45,
      "hit": false,
      "t": 2934.7785,
      "d": 326.0864999999999,
      "v": 127
    },
    {
      "midi": 52,
      "hit": false,
      "t": 3260.865,
      "d": 326.0864999999999,
      "v": 127
    },
    {
      "midi": 40,
      "hit": false,
      "t": 3586.9514999999997,
      "d": 326.0864999999999,
      "v": 127
    },
    {
      "midi": 45,
      "hit": false,
      "t": 3913.0379999999996,
      "d": 652.1729999999998,
      "v": 127
    },
    {
      "midi": 81,
      "hit": false,
      "t": 3913.038,
      "d": 326.0864999999999,
      "v": 127
    },
    {
      "midi": 76,
      "hit": false,
      "t": 4239.1245,
      "d": 326.08650000000034,
      "v": 127
    },
    {
      "midi": 72,
      "hit": false,
      "t": 4565.211,
      "d": 326.08650000000034,
      "v": 127
    },
    {
      "midi": 69,
      "hit": false,
      "t": 4891.297500000001,
      "d": 326.08650000000034,
      "v": 127
    },
    {
      "midi": 76,
      "hit": false,
      "t": 5217.384000000001,
      "d": 326.08650000000034,
      "v": 127
    },
    {
      "midi": 64,
      "hit": false,
      "t": 5543.470500000001,
      "d": 326.08650000000034,
      "v": 127
    },
    {
      "midi": 57,
      "hit": false,
      "t": 5869.556999999999,
      "d": 326.08650000000034,
      "v": 127
    },
    {
      "midi": 69,
      "hit": false,
      "t": 5869.557000000002,
      "d": 652.1729999999998,
      "v": 127
    },
    {
      "midi": 52,
      "hit": false,
      "t": 6195.643499999999,
      "d": 326.08650000000034,
      "v": 127
    },
    {
      "midi": 48,
      "hit": false,
      "t": 6521.73,
      "d": 326.08650000000034,
      "v": 127
    },
    {
      "midi": 45,
      "hit": false,
      "t": 6847.8165,
      "d": 326.08650000000034,
      "v": 127
    },
    {
      "midi": 52,
      "hit": false,
      "t": 7173.903,
      "d": 326.08650000000034,
      "v": 127
    },
    {
      "midi": 40,
      "hit": false,
      "t": 7499.989500000001,
      "d": 326.08650000000034,
      "v": 127
    },
    {
      "midi": 45,
      "hit": false,
      "t": 7826.076000000001,
      "d": 652.1730000000007,
      "v": 127
    },
    {
      "midi": 64,
      "hit": false,
      "t": 7989.119250000002,
      "d": 163.04324999999972,
      "v": 127
    },
    {
      "midi": 66,
      "hit": false,
      "t": 8152.162500000001,
      "d": 163.04324999999972,
      "v": 127
    },
    {
      "midi": 68,
      "hit": false,
      "t": 8315.205750000001,
      "d": 163.04325000000063,
      "v": 127
    },
    {
      "midi": 69,
      "hit": false,
      "t": 8478.249000000002,
      "d": 163.04325000000063,
      "v": 127
    },
    {
      "midi": 71,
      "hit": false,
      "t": 8641.292250000002,
      "d": 163.04325000000063,
      "v": 127
    },
    {
      "midi": 72,
      "hit": false,
      "t": 8804.335500000003,
      "d": 163.04325000000063,
      "v": 127
    },
    {
      "midi": 74,
      "hit": false,
      "t": 8967.378750000003,
      "d": 163.04325000000063,
      "v": 127
    },
    {
      "midi": 76,
      "hit": false,
      "t": 9130.422000000004,
      "d": 326.08649999999943,
      "v": 127
    },
    {
      "midi": 71,
      "hit": false,
      "t": 9456.508500000004,
      "d": 326.08649999999943,
      "v": 127
    },
    {
      "midi": 69,
      "hit": false,
      "t": 9782.595000000003,
      "d": 1304.3459999999995,
      "v": 127
    },
    {
      "midi": 72,
      "hit": false,
      "t": 9782.595000000003,
      "d": 1304.3459999999995,
      "v": 127
    },
    {
      "midi": 52,
      "hit": false,
      "t": 9945.638250000002,
      "d": 163.04325000000063,
      "v": 127
    },
    {
      "midi": 54,
      "hit": false,
      "t": 10108.681500000002,
      "d": 163.04325000000063,
      "v": 127
    },
    {
      "midi": 56,
      "hit": false,
      "t": 10271.724750000003,
      "d": 163.04325000000063,
      "v": 127
    },
    {
      "midi": 57,
      "hit": false,
      "t": 10434.768000000004,
      "d": 163.04325000000063,
      "v": 127
    },
    {
      "midi": 59,
      "hit": false,
      "t": 10597.811250000004,
      "d": 163.04325000000063,
      "v": 127
    },
    {
      "midi": 60,
      "hit": false,
      "t": 10760.854500000005,
      "d": 163.04325000000063,
      "v": 127
    },
    {
      "midi": 62,
      "hit": false,
      "t": 10923.897750000006,
      "d": 163.04325000000063,
      "v": 127
    },
    {
      "midi": 68,
      "hit": false,
      "t": 11086.941000000003,
      "d": 652.1730000000007,
      "v": 127
    },
    {
      "midi": 71,
      "hit": false,
      "t": 11086.941000000003,
      "d": 652.1730000000007,
      "v": 127
    },
    {
      "midi": 64,
      "hit": false,
      "t": 11086.941000000006,
      "d": 326.08649999999943,
      "v": 127
    },
    {
      "midi": 59,
      "hit": false,
      "t": 11413.027500000006,
      "d": 326.08649999999943,
      "v": 127
    },
    {
      "midi": 57,
      "hit": false,
      "t": 11739.114000000005,
      "d": 1304.3459999999995,
      "v": 127
    },
    {
      "midi": 60,
      "hit": false,
      "t": 11739.114000000005,
      "d": 1304.3459999999995,
      "v": 127
    },
    {
      "midi": 64,
      "hit": false,
      "t": 11902.157250000004,
      "d": 163.04325000000063,
      "v": 127
    },
    {
      "midi": 66,
      "hit": false,
      "t": 12065.200500000004,
      "d": 163.04325000000063,
      "v": 127
    },
    {
      "midi": 68,
      "hit": false,
      "t": 12228.243750000005,
      "d": 163.04325000000063,
      "v": 127
    },
    {
      "midi": 69,
      "hit": false,
      "t": 12391.287000000006,
      "d": 163.04325000000063,
      "v": 127
    },
    {
      "midi": 71,
      "hit": false,
      "t": 12554.330250000006,
      "d": 163.04325000000063,
      "v": 127
    },
    {
      "midi": 72,
      "hit": false,
      "t": 12717.373500000007,
      "d": 163.04325000000063,
      "v": 127
    },
    {
      "midi": 74,
      "hit": false,
      "t": 12880.416750000008,
      "d": 163.04325000000063,
      "v": 127
    },
    {
      "midi": 56,
      "hit": false,
      "t": 13043.460000000005,
      "d": 652.1730000000007,
      "v": 127
    },
    {
      "midi": 59,
      "hit": false,
      "t": 13043.460000000005,
      "d": 652.1730000000007,
      "v": 127
    },
    {
      "midi": 76,
      "hit": false,
      "t": 13043.460000000008,
      "d": 326.08649999999943,
      "v": 127
    },
    {
      "midi": 71,
      "hit": false,
      "t": 13369.546500000008,
      "d": 326.08649999999943,
      "v": 127
    },
    {
      "midi": 69,
      "hit": false,
      "t": 13695.633000000007,
      "d": 1304.3459999999995,
      "v": 127
    },
    {
      "midi": 72,
      "hit": false,
      "t": 13695.633000000007,
      "d": 1304.3459999999995,
      "v": 127
    },
    {
      "midi": 45,
      "hit": false,
      "t": 13858.676250000006,
      "d": 163.04325000000063,
      "v": 127
    },
    {
      "midi": 47,
      "hit": false,
      "t": 14021.719500000007,
      "d": 163.04325000000063,
      "v": 127
    },
    {
      "midi": 48,
      "hit": false,
      "t": 14184.762750000007,
      "d": 163.04325000000063,
      "v": 127
    },
    {
      "midi": 50,
      "hit": false,
      "t": 14347.806000000008,
      "d": 163.04325000000063,
      "v": 127
    },
    {
      "midi": 52,
      "hit": false,
      "t": 14510.849250000008,
      "d": 163.04325000000063,
      "v": 127
    },
    {
      "midi": 54,
      "hit": false,
      "t": 14673.892500000009,
      "d": 163.04325000000063,
      "v": 127
    },
    {
      "midi": 56,
      "hit": false,
      "t": 14836.93575000001,
      "d": 163.04325000000063,
      "v": 127
    },
    {
      "midi": 57,
      "hit": false,
      "t": 14999.97900000001,
      "d": 326.08649999999943,
      "v": 127
    },
    {
      "midi": 45,
      "hit": false,
      "t": 15326.06550000001,
      "d": 326.08649999999943,
      "v": 127
    },
    {
      "midi": 56,
      "hit": false,
      "t": 15652.15200000001,
      "d": 978.2595000000001,
      "v": 127
    },
    {
      "midi": 76,
      "hit": false,
      "t": 15815.195250000006,
      "d": 163.04325000000063,
      "v": 127
    },
    {
      "midi": 74,
      "hit": false,
      "t": 15978.238500000007,
      "d": 163.04325000000063,
      "v": 127
    },
    {
      "midi": 76,
      "hit": false,
      "t": 16141.281750000007,
      "d": 163.04325000000063,
      "v": 127
    },
    {
      "midi": 71,
      "hit": false,
      "t": 16304.325000000008,
      "d": 163.0432499999988,
      "v": 127
    },
    {
      "midi": 76,
      "hit": false,
      "t": 16467.368250000007,
      "d": 163.0432499999988,
      "v": 127
    },
    {
      "midi": 69,
      "hit": false,
      "t": 16630.411500000006,
      "d": 163.0432499999988,
      "v": 127
    },
    {
      "midi": 60,
      "hit": false,
      "t": 16630.41150000001,
      "d": 326.08650000000125,
      "v": 127
    },
    {
      "midi": 76,
      "hit": false,
      "t": 16793.454750000004,
      "d": 163.0432499999988,
      "v": 127
    },
    {
      "midi": 68,
      "hit": false,
      "t": 16956.498000000003,
      "d": 163.0432499999988,
      "v": 127
    },
    {
      "midi": 59,
      "hit": false,
      "t": 16956.49800000001,
      "d": 326.08650000000125,
      "v": 127
    },
    {
      "midi": 76,
      "hit": false,
      "t": 17119.541250000002,
      "d": 163.0432499999988,
      "v": 127
    },
    {
      "midi": 66,
      "hit": false,
      "t": 17282.5845,
      "d": 163.0432499999988,
      "v": 127
    },
    {
      "midi": 57,
      "hit": false,
      "t": 17282.58450000001,
      "d": 326.08650000000125,
      "v": 127
    },
    {
      "midi": 76,
      "hit": false,
      "t": 17445.62775,
      "d": 163.0432499999988,
      "v": 127
    },
    {
      "midi": 56,
      "hit": false,
      "t": 17608.671000000013,
      "d": 978.2595000000001,
      "v": 127
    },
    {
      "midi": 76,
      "hit": false,
      "t": 17771.714249999997,
      "d": 163.0432499999988,
      "v": 127
    },
    {
      "midi": 74,
      "hit": false,
      "t": 17934.757499999996,
      "d": 163.0432499999988,
      "v": 127
    },
    {
      "midi": 76,
      "hit": false,
      "t": 18097.800749999995,
      "d": 163.0432499999988,
      "v": 127
    },
    {
      "midi": 71,
      "hit": false,
      "t": 18260.843999999994,
      "d": 163.0432499999988,
      "v": 127
    },
    {
      "midi": 76,
      "hit": false,
      "t": 18423.887249999992,
      "d": 163.0432499999988,
      "v": 127
    },
    {
      "midi": 69,
      "hit": false,
      "t": 18586.93049999999,
      "d": 163.0432499999988,
      "v": 127
    },
    {
      "midi": 60,
      "hit": false,
      "t": 18586.930500000013,
      "d": 326.08650000000125,
      "v": 127
    },
    {
      "midi": 76,
      "hit": false,
      "t": 18749.97374999999,
      "d": 163.0432499999988,
      "v": 127
    },
    {
      "midi": 68,
      "hit": false,
      "t": 18913.01699999999,
      "d": 163.0432499999988,
      "v": 127
    },
    {
      "midi": 59,
      "hit": false,
      "t": 18913.017000000014,
      "d": 326.08650000000125,
      "v": 127
    },
    {
      "midi": 76,
      "hit": false,
      "t": 19076.060249999988,
      "d": 163.0432499999988,
      "v": 127
    },
    {
      "midi": 66,
      "hit": false,
      "t": 19239.103499999987,
      "d": 163.0432499999988,
      "v": 127
    },
    {
      "midi": 57,
      "hit": false,
      "t": 19239.103500000016,
      "d": 326.08650000000125,
      "v": 127
    },
    {
      "midi": 76,
      "hit": false,
      "t": 19402.146749999985,
      "d": 163.0432499999988,
      "v": 127
    },
    {
      "midi": 64,
      "hit": false,
      "t": 19565.189999999984,
      "d": 978.2595000000001,
      "v": 127
    },
    {
      "midi": 56,
      "hit": false,
      "t": 19565.190000000017,
      "d": 163.0432499999988,
      "v": 127
    },
    {
      "midi": 64,
      "hit": false,
      "t": 19728.233250000016,
      "d": 163.0432499999988,
      "v": 127
    },
    {
      "midi": 62,
      "hit": false,
      "t": 19891.276500000014,
      "d": 163.0432499999988,
      "v": 127
    },
    {
      "midi": 64,
      "hit": false,
      "t": 20054.319750000013,
      "d": 163.0432499999988,
      "v": 127
    },
    {
      "midi": 59,
      "hit": false,
      "t": 20217.363000000012,
      "d": 163.0432499999988,
      "v": 127
    },
    {
      "midi": 64,
      "hit": false,
      "t": 20380.40625000001,
      "d": 163.0432499999988,
      "v": 127
    },
    {
      "midi": 72,
      "hit": false,
      "t": 20543.449499999984,
      "d": 326.08650000000125,
      "v": 127
    },
    {
      "midi": 57,
      "hit": false,
      "t": 20543.44950000001,
      "d": 163.0432499999988,
      "v": 127
    },
    {
      "midi": 64,
      "hit": false,
      "t": 20706.49275000001,
      "d": 163.0432499999988,
      "v": 127
    },
    {
      "midi": 71,
      "hit": false,
      "t": 20869.535999999986,
      "d": 326.08650000000125,
      "v": 127
    },
    {
      "midi": 56,
      "hit": false,
      "t": 20869.536000000007,
      "d": 163.0432499999988,
      "v": 127
    },
    {
      "midi": 64,
      "hit": false,
      "t": 21032.579250000006,
      "d": 163.0432499999988,
      "v": 127
    },
    {
      "midi": 69,
      "hit": false,
      "t": 21195.622499999987,
      "d": 326.08650000000125,
      "v": 127
    },
    {
      "midi": 54,
      "hit": false,
      "t": 21195.622500000005,
      "d": 163.0432499999988,
      "v": 127
    },
    {
      "midi": 64,
      "hit": false,
      "t": 21358.665750000004,
      "d": 163.0432499999988,
      "v": 127
    },
    {
      "midi": 76,
      "hit": false,
      "t": 21521.708999999988,
      "d": 978.2595000000001,
      "v": 127
    },
    {
      "midi": 52,
      "hit": false,
      "t": 21521.709000000003,
      "d": 163.0432499999988,
      "v": 127
    },
    {
      "midi": 64,
      "hit": false,
      "t": 21684.75225,
      "d": 163.0432499999988,
      "v": 127
    },
    {
      "midi": 62,
      "hit": false,
      "t": 21847.7955,
      "d": 163.0432499999988,
      "v": 127
    },
    {
      "midi": 64,
      "hit": false,
      "t": 22010.83875,
      "d": 163.0432499999988,
      "v": 127
    },
    {
      "midi": 59,
      "hit": false,
      "t": 22173.881999999998,
      "d": 163.0432499999988,
      "v": 127
    },
    {
      "midi": 64,
      "hit": false,
      "t": 22336.925249999997,
      "d": 163.0432499999988,
      "v": 127
    },
    {
      "midi": 72,
      "hit": false,
      "t": 22499.968499999988,
      "d": 326.08650000000125,
      "v": 127
    },
    {
      "midi": 57,
      "hit": false,
      "t": 22499.968499999995,
      "d": 163.0432499999988,
      "v": 127
    },
    {
      "midi": 64,
      "hit": false,
      "t": 22663.011749999994,
      "d": 163.0432499999988,
      "v": 127
    },
    {
      "midi": 71,
      "hit": false,
      "t": 22826.05499999999,
      "d": 326.08650000000125,
      "v": 127
    },
    {
      "midi": 56,
      "hit": false,
      "t": 22826.054999999993,
      "d": 163.0432499999988,
      "v": 127
    },
    {
      "midi": 64,
      "hit": false,
      "t": 22989.098249999992,
      "d": 163.0432499999988,
      "v": 127
    },
    {
      "midi": 69,
      "hit": false,
      "t": 23152.14149999999,
      "d": 326.08650000000125,
      "v": 127
    },
    {
      "midi": 54,
      "hit": false,
      "t": 23152.14149999999,
      "d": 163.0432499999988,
      "v": 127
    },
    {
      "midi": 64,
      "hit": false,
      "t": 23315.18474999999,
      "d": 163.0432499999988,
      "v": 127
    },
    {
      "midi": 52,
      "hit": false,
      "t": 23478.22799999999,
      "d": 1304.3460000000014,
      "v": 127
    },
    {
      "midi": 68,
      "hit": false,
      "t": 23478.227999999992,
      "d": 163.0432499999988,
      "v": 127
    },
    {
      "midi": 76,
      "hit": false,
      "t": 23641.27124999999,
      "d": 163.0432499999988,
      "v": 127
    },
    {
      "midi": 74,
      "hit": false,
      "t": 23804.31449999999,
      "d": 163.0432499999988,
      "v": 127
    },
    {
      "midi": 76,
      "hit": false,
      "t": 23967.35774999999,
      "d": 163.0432499999988,
      "v": 127
    },
    {
      "midi": 71,
      "hit": false,
      "t": 24130.400999999987,
      "d": 163.0432499999988,
      "v": 127
    },
    {
      "midi": 76,
      "hit": false,
      "t": 24293.444249999986,
      "d": 163.0432499999988,
      "v": 127
    },
    {
      "midi": 69,
      "hit": false,
      "t": 24456.487499999985,
      "d": 163.0432499999988,
      "v": 127
    },
    {
      "midi": 76,
      "hit": false,
      "t": 24619.530749999984,
      "d": 163.0432499999988,
      "v": 127
    },
    {
      "midi": 68,
      "hit": false,
      "t": 24782.573999999982,
      "d": 163.0432499999988,
      "v": 127
    },
    {
      "midi": 52,
      "hit": false,
      "t": 24782.57399999999,
      "d": 652.1729999999989,
      "v": 127
    },
    {
      "midi": 59,
      "hit": false,
      "t": 24782.57399999999,
      "d": 652.1729999999989,
      "v": 127
    },
    {
      "midi": 76,
      "hit": false,
      "t": 24945.61724999998,
      "d": 163.0432499999988,
      "v": 127
    },
    {
      "midi": 74,
      "hit": false,
      "t": 25108.66049999998,
      "d": 163.0432499999988,
      "v": 127
    },
    {
      "midi": 76,
      "hit": false,
      "t": 25271.70374999998,
      "d": 163.0432499999988,
      "v": 127
    },
    {
      "midi": 72,
      "hit": false,
      "t": 25434.746999999978,
      "d": 978.2595000000001,
      "v": 127
    },
    {
      "midi": 57,
      "hit": false,
      "t": 25597.790249999987,
      "d": 163.0432499999988,
      "v": 127
    },
    {
      "midi": 56,
      "hit": false,
      "t": 25760.833499999986,
      "d": 163.0432499999988,
      "v": 127
    },
    {
      "midi": 57,
      "hit": false,
      "t": 25923.876749999985,
      "d": 163.0432499999988,
      "v": 127
    },
    {
      "midi": 52,
      "hit": false,
      "t": 26086.919999999984,
      "d": 163.0432499999988,
      "v": 127
    },
    {
      "midi": 57,
      "hit": false,
      "t": 26249.963249999983,
      "d": 163.0432499999988,
      "v": 127
    },
    {
      "midi": 77,
      "hit": false,
      "t": 26413.006499999978,
      "d": 326.08650000000125,
      "v": 127
    },
    {
      "midi": 50,
      "hit": false,
      "t": 26413.00649999998,
      "d": 163.0432499999988,
      "v": 127
    },
    {
      "midi": 57,
      "hit": false,
      "t": 26576.04974999998,
      "d": 163.0432499999988,
      "v": 127
    },
    {
      "midi": 76,
      "hit": false,
      "t": 26739.09299999998,
      "d": 326.08650000000125,
      "v": 127
    },
    {
      "midi": 48,
      "hit": false,
      "t": 26739.09299999998,
      "d": 163.0432499999988,
      "v": 127
    },
    {
      "midi": 57,
      "hit": false,
      "t": 26902.136249999978,
      "d": 163.0432499999988,
      "v": 127
    },
    {
      "midi": 47,
      "hit": false,
      "t": 27065.179499999977,
      "d": 163.0432499999988,
      "v": 127
    },
    {
      "midi": 74,
      "hit": false,
      "t": 27065.17949999998,
      "d": 326.08650000000125,
      "v": 127
    },
    {
      "midi": 57,
      "hit": false,
      "t": 27228.222749999975,
      "d": 163.0432499999988,
      "v": 127
    },
    {
      "midi": 45,
      "hit": false,
      "t": 27391.265999999974,
      "d": 163.0432499999988,
      "v": 127
    },
    {
      "midi": 72,
      "hit": false,
      "t": 27391.26599999998,
      "d": 978.2595000000001,
      "v": 127
    },
    {
      "midi": 57,
      "hit": false,
      "t": 27554.309249999973,
      "d": 163.0432499999988,
      "v": 127
    },
    {
      "midi": 56,
      "hit": false,
      "t": 27717.35249999997,
      "d": 163.0432499999988,
      "v": 127
    },
    {
      "midi": 57,
      "hit": false,
      "t": 27880.39574999997,
      "d": 163.0432499999988,
      "v": 127
    },
    {
      "midi": 52,
      "hit": false,
      "t": 28043.43899999997,
      "d": 163.0432499999988,
      "v": 127
    },
    {
      "midi": 57,
      "hit": false,
      "t": 28206.48224999997,
      "d": 163.0432499999988,
      "v": 127
    },
    {
      "midi": 50,
      "hit": false,
      "t": 28369.525499999967,
      "d": 163.0432499999988,
      "v": 127
    },
    {
      "midi": 77,
      "hit": false,
      "t": 28369.52549999998,
      "d": 326.08650000000125,
      "v": 127
    },
    {
      "midi": 57,
      "hit": false,
      "t": 28532.568749999966,
      "d": 163.0432499999988,
      "v": 127
    },
    {
      "midi": 48,
      "hit": false,
      "t": 28695.611999999965,
      "d": 163.0432499999988,
      "v": 127
    },
    {
      "midi": 76,
      "hit": false,
      "t": 28695.611999999983,
      "d": 326.08650000000125,
      "v": 127
    },
    {
      "midi": 57,
      "hit": false,
      "t": 28858.655249999963,
      "d": 163.0432499999988,
      "v": 127
    },
    {
      "midi": 47,
      "hit": false,
      "t": 29021.698499999962,
      "d": 163.0432499999988,
      "v": 127
    },
    {
      "midi": 74,
      "hit": false,
      "t": 29021.698499999984,
      "d": 326.08650000000125,
      "v": 127
    },
    {
      "midi": 57,
      "hit": false,
      "t": 29184.74174999996,
      "d": 163.0432499999988,
      "v": 127
    },
    {
      "midi": 45,
      "hit": false,
      "t": 29347.78499999996,
      "d": 1956.5190000000002,
      "v": 127
    },
    {
      "midi": 72,
      "hit": false,
      "t": 29347.784999999985,
      "d": 163.0432499999988,
      "v": 127
    },
    {
      "midi": 81,
      "hit": false,
      "t": 29510.828249999984,
      "d": 163.0432499999988,
      "v": 127
    },
    {
      "midi": 80,
      "hit": false,
      "t": 29673.871499999983,
      "d": 163.0432499999988,
      "v": 127
    },
    {
      "midi": 81,
      "hit": false,
      "t": 29836.91474999998,
      "d": 163.0432499999988,
      "v": 127
    },
    {
      "midi": 76,
      "hit": false,
      "t": 29999.95799999998,
      "d": 163.0432499999988,
      "v": 127
    },
    {
      "midi": 81,
      "hit": false,
      "t": 30163.00124999998,
      "d": 163.0432499999988,
      "v": 127
    },
    {
      "midi": 74,
      "hit": false,
      "t": 30326.044499999978,
      "d": 163.0432499999988,
      "v": 127
    },
    {
      "midi": 81,
      "hit": false,
      "t": 30489.087749999977,
      "d": 163.0432499999988,
      "v": 127
    },
    {
      "midi": 72,
      "hit": false,
      "t": 30652.130999999976,
      "d": 163.0432499999988,
      "v": 127
    },
    {
      "midi": 81,
      "hit": false,
      "t": 30815.174249999975,
      "d": 163.0432499999988,
      "v": 127
    },
    {
      "midi": 71,
      "hit": false,
      "t": 30978.217499999973,
      "d": 163.0432499999988,
      "v": 127
    },
    {
      "midi": 81,
      "hit": false,
      "t": 31141.260749999972,
      "d": 163.0432499999988,
      "v": 127
    },
    {
      "midi": 60,
      "hit": false,
      "t": 31304.30399999996,
      "d": 978.2595000000001,
      "v": 127
    },
    {
      "midi": 69,
      "hit": false,
      "t": 31304.30399999997,
      "d": 163.0432499999988,
      "v": 127
    },
    {
      "midi": 81,
      "hit": false,
      "t": 31467.34724999997,
      "d": 163.0432499999988,
      "v": 127
    },
    {
      "midi": 80,
      "hit": false,
      "t": 31630.39049999997,
      "d": 163.0432499999988,
      "v": 127
    },
    {
      "midi": 81,
      "hit": false,
      "t": 31793.433749999967,
      "d": 163.0432499999988,
      "v": 127
    },
    {
      "midi": 76,
      "hit": false,
      "t": 31956.476999999966,
      "d": 163.0432499999988,
      "v": 127
    },
    {
      "midi": 81,
      "hit": false,
      "t": 32119.520249999965,
      "d": 163.0432499999988,
      "v": 127
    },
    {
      "midi": 65,
      "hit": false,
      "t": 32282.56349999996,
      "d": 326.08650000000125,
      "v": 127
    },
    {
      "midi": 74,
      "hit": false,
      "t": 32282.563499999964,
      "d": 163.0432499999988,
      "v": 127
    },
    {
      "midi": 81,
      "hit": false,
      "t": 32445.606749999963,
      "d": 163.0432499999988,
      "v": 127
    },
    {
      "midi": 72,
      "hit": false,
      "t": 32608.64999999996,
      "d": 163.0432499999988,
      "v": 127
    },
    {
      "midi": 64,
      "hit": false,
      "t": 32608.64999999996,
      "d": 326.08650000000125,
      "v": 127
    },
    {
      "midi": 81,
      "hit": false,
      "t": 32771.69324999996,
      "d": 163.04325000000244,
      "v": 127
    },
    {
      "midi": 71,
      "hit": false,
      "t": 32934.73649999996,
      "d": 163.04325000000244,
      "v": 127
    },
    {
      "midi": 62,
      "hit": false,
      "t": 32934.73649999996,
      "d": 326.0864999999976,
      "v": 127
    },
    {
      "midi": 81,
      "hit": false,
      "t": 33097.779749999965,
      "d": 163.04325000000244,
      "v": 127
    },
    {
      "midi": 60,
      "hit": false,
      "t": 33260.82299999996,
      "d": 978.2595000000001,
      "v": 127
    },
    {
      "midi": 69,
      "hit": false,
      "t": 33260.82299999997,
      "d": 163.04325000000244,
      "v": 127
    },
    {
      "midi": 84,
      "hit": false,
      "t": 33423.86624999997,
      "d": 163.04325000000244,
      "v": 127
    },
    {
      "midi": 83,
      "hit": false,
      "t": 33586.90949999997,
      "d": 163.04325000000244,
      "v": 127
    },
    {
      "midi": 84,
      "hit": false,
      "t": 33749.952749999975,
      "d": 163.04325000000244,
      "v": 127
    },
    {
      "midi": 81,
      "hit": false,
      "t": 33912.99599999998,
      "d": 163.04325000000244,
      "v": 127
    },
    {
      "midi": 84,
      "hit": false,
      "t": 34076.03924999998,
      "d": 163.04325000000244,
      "v": 127
    },
    {
      "midi": 65,
      "hit": false,
      "t": 34239.08249999996,
      "d": 326.0864999999976,
      "v": 127
    },
    {
      "midi": 79,
      "hit": false,
      "t": 34239.08249999998,
      "d": 163.04325000000244,
      "v": 127
    },
    {
      "midi": 84,
      "hit": false,
      "t": 34402.125749999985,
      "d": 163.04325000000244,
      "v": 127
    },
    {
      "midi": 64,
      "hit": false,
      "t": 34565.16899999996,
      "d": 326.0864999999976,
      "v": 127
    },
    {
      "midi": 77,
      "hit": false,
      "t": 34565.16899999999,
      "d": 163.04325000000244,
      "v": 127
    },
    {
      "midi": 84,
      "hit": false,
      "t": 34728.21224999999,
      "d": 163.04325000000244,
      "v": 127
    },
    {
      "midi": 62,
      "hit": false,
      "t": 34891.255499999956,
      "d": 326.0864999999976,
      "v": 127
    },
    {
      "midi": 76,
      "hit": false,
      "t": 34891.25549999999,
      "d": 163.04325000000244,
      "v": 127
    },
    {
      "midi": 84,
      "hit": false,
      "t": 35054.298749999994,
      "d": 163.04325000000244,
      "v": 127
    },
    {
      "midi": 62,
      "hit": false,
      "t": 35217.34199999995,
      "d": 652.1730000000025,
      "v": 127
    },
    {
      "midi": 77,
      "hit": false,
      "t": 35217.342,
      "d": 163.04325000000244,
      "v": 127
    },
    {
      "midi": 84,
      "hit": false,
      "t": 35380.38525,
      "d": 163.04325000000244,
      "v": 127
    },
    {
      "midi": 83,
      "hit": false,
      "t": 35543.4285,
      "d": 163.04325000000244,
      "v": 127
    },
    {
      "midi": 84,
      "hit": false,
      "t": 35706.471750000004,
      "d": 163.04325000000244,
      "v": 127
    },
    {
      "midi": 50,
      "hit": false,
      "t": 35869.514999999956,
      "d": 652.1730000000025,
      "v": 127
    },
    {
      "midi": 77,
      "hit": false,
      "t": 35869.51500000001,
      "d": 163.04325000000244,
      "v": 127
    },
    {
      "midi": 84,
      "hit": false,
      "t": 36032.55825000001,
      "d": 163.04325000000244,
      "v": 127
    },
    {
      "midi": 83,
      "hit": false,
      "t": 36195.60150000001,
      "d": 163.04325000000244,
      "v": 127
    },
    {
      "midi": 84,
      "hit": false,
      "t": 36358.644750000014,
      "d": 163.04325000000244,
      "v": 127
    },
    {
      "midi": 62,
      "hit": false,
      "t": 36521.68799999996,
      "d": 652.1730000000025,
      "v": 127
    },
    {
      "midi": 77,
      "hit": false,
      "t": 36521.68800000002,
      "d": 163.04325000000244,
      "v": 127
    },
    {
      "midi": 84,
      "hit": false,
      "t": 36684.73125000002,
      "d": 163.04325000000244,
      "v": 127
    },
    {
      "midi": 83,
      "hit": false,
      "t": 36847.77450000002,
      "d": 163.04325000000244,
      "v": 127
    },
    {
      "midi": 84,
      "hit": false,
      "t": 37010.817750000024,
      "d": 163.04325000000244,
      "v": 127
    },
    {
      "midi": 55,
      "hit": false,
      "t": 37173.86099999996,
      "d": 652.1730000000025,
      "v": 127
    },
    {
      "midi": 77,
      "hit": false,
      "t": 37173.861000000026,
      "d": 163.04325000000244,
      "v": 127
    },
    {
      "midi": 83,
      "hit": false,
      "t": 37336.90425000003,
      "d": 163.04325000000244,
      "v": 127
    },
    {
      "midi": 81,
      "hit": false,
      "t": 37499.94750000003,
      "d": 163.04325000000244,
      "v": 127
    },
    {
      "midi": 83,
      "hit": false,
      "t": 37662.99075000003,
      "d": 163.04325000000244,
      "v": 127
    },
    {
      "midi": 64,
      "hit": false,
      "t": 37826.03399999996,
      "d": 326.0864999999976,
      "v": 127
    },
    {
      "midi": 79,
      "hit": false,
      "t": 37826.034000000036,
      "d": 163.04325000000244,
      "v": 127
    },
    {
      "midi": 83,
      "hit": false,
      "t": 37989.07725000004,
      "d": 163.04325000000244,
      "v": 127
    },
    {
      "midi": 62,
      "hit": false,
      "t": 38152.12049999996,
      "d": 326.0864999999976,
      "v": 127
    },
    {
      "midi": 77,
      "hit": false,
      "t": 38152.12050000004,
      "d": 163.04325000000244,
      "v": 127
    },
    {
      "midi": 83,
      "hit": false,
      "t": 38315.16375000004,
      "d": 163.04325000000244,
      "v": 127
    },
    {
      "midi": 60,
      "hit": false,
      "t": 38478.20699999996,
      "d": 326.0864999999976,
      "v": 127
    },
    {
      "midi": 76,
      "hit": false,
      "t": 38478.207000000046,
      "d": 163.04325000000244,
      "v": 127
    },
    {
      "midi": 83,
      "hit": false,
      "t": 38641.25025000005,
      "d": 163.04325000000244,
      "v": 127
    },
    {
      "midi": 59,
      "hit": false,
      "t": 38804.293499999956,
      "d": 326.0864999999976,
      "v": 127
    },
    {
      "midi": 74,
      "hit": false,
      "t": 38804.29350000005,
      "d": 163.04325000000244,
      "v": 127
    },
    {
      "midi": 83,
      "hit": false,
      "t": 38967.33675000005,
      "d": 163.04325000000244,
      "v": 127
    },
    {
      "midi": 60,
      "hit": false,
      "t": 39130.379999999954,
      "d": 652.1730000000025,
      "v": 127
    },
    {
      "midi": 76,
      "hit": false,
      "t": 39130.380000000056,
      "d": 163.04325000000244,
      "v": 127
    },
    {
      "midi": 83,
      "hit": false,
      "t": 39293.42325000006,
      "d": 163.04325000000244,
      "v": 127
    },
    {
      "midi": 81,
      "hit": false,
      "t": 39456.46650000006,
      "d": 163.04325000000244,
      "v": 127
    },
    {
      "midi": 83,
      "hit": false,
      "t": 39619.50975000006,
      "d": 163.04325000000244,
      "v": 127
    },
    {
      "midi": 48,
      "hit": false,
      "t": 39782.552999999956,
      "d": 652.1730000000025,
      "v": 127
    },
    {
      "midi": 76,
      "hit": false,
      "t": 39782.553000000065,
      "d": 163.04325000000244,
      "v": 127
    },
    {
      "midi": 83,
      "hit": false,
      "t": 39945.59625000007,
      "d": 163.04325000000244,
      "v": 127
    },
    {
      "midi": 81,
      "hit": false,
      "t": 40108.63950000007,
      "d": 163.04325000000244,
      "v": 127
    },
    {
      "midi": 83,
      "hit": false,
      "t": 40271.68275000007,
      "d": 163.04325000000244,
      "v": 127
    },
    {
      "midi": 60,
      "hit": false,
      "t": 40434.72599999996,
      "d": 652.1730000000025,
      "v": 127
    },
    {
      "midi": 76,
      "hit": false,
      "t": 40434.726000000075,
      "d": 163.04325000000244,
      "v": 127
    },
    {
      "midi": 83,
      "hit": false,
      "t": 40597.76925000008,
      "d": 163.04325000000244,
      "v": 127
    },
    {
      "midi": 81,
      "hit": false,
      "t": 40760.81250000008,
      "d": 163.04325000000244,
      "v": 127
    },
    {
      "midi": 83,
      "hit": false,
      "t": 40923.85575000008,
      "d": 163.04325000000244,
      "v": 127
    },
    {
      "midi": 53,
      "hit": false,
      "t": 41086.89899999996,
      "d": 652.1730000000025,
      "v": 127
    },
    {
      "midi": 76,
      "hit": false,
      "t": 41086.899000000085,
      "d": 163.04325000000244,
      "v": 127
    },
    {
      "midi": 81,
      "hit": false,
      "t": 41249.94225000009,
      "d": 163.04325000000244,
      "v": 127
    },
    {
      "midi": 79,
      "hit": false,
      "t": 41412.98550000009,
      "d": 163.04325000000244,
      "v": 127
    },
    {
      "midi": 81,
      "hit": false,
      "t": 41576.02875000009,
      "d": 163.04325000000244,
      "v": 127
    },
    {
      "midi": 62,
      "hit": false,
      "t": 41739.071999999964,
      "d": 326.0864999999976,
      "v": 127
    },
    {
      "midi": 77,
      "hit": false,
      "t": 41739.072000000095,
      "d": 163.04325000000244,
      "v": 127
    },
    {
      "midi": 81,
      "hit": false,
      "t": 41902.1152500001,
      "d": 163.04325000000244,
      "v": 127
    },
    {
      "midi": 60,
      "hit": false,
      "t": 42065.15849999996,
      "d": 326.0864999999976,
      "v": 127
    },
    {
      "midi": 76,
      "hit": false,
      "t": 42065.1585000001,
      "d": 163.04325000000244,
      "v": 127
    },
    {
      "midi": 81,
      "hit": false,
      "t": 42228.2017500001,
      "d": 163.04325000000244,
      "v": 127
    },
    {
      "midi": 59,
      "hit": false,
      "t": 42391.24499999996,
      "d": 326.0864999999976,
      "v": 127
    },
    {
      "midi": 74,
      "hit": false,
      "t": 42391.245000000104,
      "d": 163.04325000000244,
      "v": 127
    },
    {
      "midi": 81,
      "hit": false,
      "t": 42554.28825000011,
      "d": 163.04325000000244,
      "v": 127
    },
    {
      "midi": 57,
      "hit": false,
      "t": 42717.33149999996,
      "d": 326.0864999999976,
      "v": 127
    },
    {
      "midi": 72,
      "hit": false,
      "t": 42717.33150000011,
      "d": 163.04325000000244,
      "v": 127
    },
    {
      "midi": 81,
      "hit": false,
      "t": 42880.37475000011,
      "d": 163.04325000000244,
      "v": 127
    },
    {
      "midi": 59,
      "hit": false,
      "t": 43043.417999999954,
      "d": 652.1730000000025,
      "v": 127
    },
    {
      "midi": 74,
      "hit": false,
      "t": 43043.418000000114,
      "d": 163.04325000000244,
      "v": 127
    },
    {
      "midi": 81,
      "hit": false,
      "t": 43206.46125000012,
      "d": 163.04325000000244,
      "v": 127
    },
    {
      "midi": 79,
      "hit": false,
      "t": 43369.50450000012,
      "d": 163.04325000000244,
      "v": 127
    },
    {
      "midi": 81,
      "hit": false,
      "t": 43532.54775000012,
      "d": 163.04325000000244,
      "v": 127
    },
    {
      "midi": 47,
      "hit": false,
      "t": 43695.59099999996,
      "d": 652.1730000000025,
      "v": 127
    },
    {
      "midi": 77,
      "hit": false,
      "t": 43695.591000000124,
      "d": 163.04325000000244,
      "v": 127
    },
    {
      "midi": 81,
      "hit": false,
      "t": 43858.63425000013,
      "d": 163.04325000000244,
      "v": 127
    },
    {
      "midi": 76,
      "hit": false,
      "t": 44021.67750000013,
      "d": 163.04325000000244,
      "v": 127
    },
    {
      "midi": 81,
      "hit": false,
      "t": 44184.72075000013,
      "d": 163.04325000000244,
      "v": 127
    },
    {
      "midi": 59,
      "hit": false,
      "t": 44347.76399999996,
      "d": 652.1730000000025,
      "v": 127
    },
    {
      "midi": 74,
      "hit": false,
      "t": 44347.764000000134,
      "d": 163.04325000000244,
      "v": 127
    },
    {
      "midi": 81,
      "hit": false,
      "t": 44510.807250000136,
      "d": 163.04325000000244,
      "v": 127
    },
    {
      "midi": 72,
      "hit": false,
      "t": 44673.85050000014,
      "d": 163.04325000000244,
      "v": 127
    },
    {
      "midi": 81,
      "hit": false,
      "t": 44836.89375000014,
      "d": 163.04325000000244,
      "v": 127
    },
    {
      "midi": 52,
      "hit": false,
      "t": 44999.93699999996,
      "d": 652.1730000000025,
      "v": 127
    },
    {
      "midi": 74,
      "hit": false,
      "t": 44999.93700000014,
      "d": 163.04325000000244,
      "v": 127
    },
    {
      "midi": 79,
      "hit": false,
      "t": 45162.980250000146,
      "d": 163.04325000000244,
      "v": 127
    },
    {
      "midi": 77,
      "hit": false,
      "t": 45326.02350000015,
      "d": 163.04325000000244,
      "v": 127
    },
    {
      "midi": 79,
      "hit": false,
      "t": 45489.06675000015,
      "d": 163.04325000000244,
      "v": 127
    },
    {
      "midi": 60,
      "hit": false,
      "t": 45652.109999999964,
      "d": 326.0864999999976,
      "v": 127
    },
    {
      "midi": 76,
      "hit": false,
      "t": 45652.11000000015,
      "d": 163.04325000000244,
      "v": 127
    },
    {
      "midi": 79,
      "hit": false,
      "t": 45815.153250000156,
      "d": 163.04325000000244,
      "v": 127
    },
    {
      "midi": 59,
      "hit": false,
      "t": 45978.19649999996,
      "d": 326.0864999999976,
      "v": 127
    },
    {
      "midi": 74,
      "hit": false,
      "t": 45978.19650000016,
      "d": 163.04325000000244,
      "v": 127
    },
    {
      "midi": 79,
      "hit": false,
      "t": 46141.23975000016,
      "d": 163.04325000000244,
      "v": 127
    },
    {
      "midi": 57,
      "hit": false,
      "t": 46304.28299999996,
      "d": 326.0864999999976,
      "v": 127
    },
    {
      "midi": 72,
      "hit": false,
      "t": 46304.28300000016,
      "d": 163.04325000000244,
      "v": 127
    },
    {
      "midi": 79,
      "hit": false,
      "t": 46467.326250000166,
      "d": 163.04325000000244,
      "v": 127
    },
    {
      "midi": 55,
      "hit": false,
      "t": 46630.36949999996,
      "d": 326.0864999999976,
      "v": 127
    },
    {
      "midi": 71,
      "hit": false,
      "t": 46630.36950000017,
      "d": 163.04325000000244,
      "v": 127
    },
    {
      "midi": 79,
      "hit": false,
      "t": 46793.41275000017,
      "d": 163.04325000000244,
      "v": 127
    },
    {
      "midi": 57,
      "hit": false,
      "t": 46956.455999999955,
      "d": 652.1730000000025,
      "v": 127
    },
    {
      "midi": 72,
      "hit": false,
      "t": 46956.45600000017,
      "d": 163.04325000000244,
      "v": 127
    },
    {
      "midi": 79,
      "hit": false,
      "t": 47119.499250000175,
      "d": 163.04325000000244,
      "v": 127
    },
    {
      "midi": 77,
      "hit": false,
      "t": 47282.54250000018,
      "d": 163.04325000000244,
      "v": 127
    },
    {
      "midi": 79,
      "hit": false,
      "t": 47445.58575000018,
      "d": 163.04325000000244,
      "v": 127
    },
    {
      "midi": 45,
      "hit": false,
      "t": 47608.62899999996,
      "d": 652.1730000000025,
      "v": 127
    },
    {
      "midi": 72,
      "hit": false,
      "t": 47608.62900000018,
      "d": 163.04325000000244,
      "v": 127
    },
    {
      "midi": 79,
      "hit": false,
      "t": 47771.672250000185,
      "d": 163.04325000000244,
      "v": 127
    },
    {
      "midi": 77,
      "hit": false,
      "t": 47934.71550000019,
      "d": 163.04325000000244,
      "v": 127
    },
    {
      "midi": 79,
      "hit": false,
      "t": 48097.75875000019,
      "d": 163.04325000000244,
      "v": 127
    },
    {
      "midi": 57,
      "hit": false,
      "t": 48260.80199999996,
      "d": 652.1730000000025,
      "v": 127
    },
    {
      "midi": 72,
      "hit": false,
      "t": 48260.80200000019,
      "d": 163.04325000000244,
      "v": 127
    },
    {
      "midi": 79,
      "hit": false,
      "t": 48423.845250000195,
      "d": 163.04325000000244,
      "v": 127
    },
    {
      "midi": 77,
      "hit": false,
      "t": 48586.8885000002,
      "d": 163.04325000000244,
      "v": 127
    },
    {
      "midi": 79,
      "hit": false,
      "t": 48749.9317500002,
      "d": 163.04325000000244,
      "v": 127
    },
    {
      "midi": 50,
      "hit": false,
      "t": 48912.97499999996,
      "d": 652.1730000000025,
      "v": 127
    },
    {
      "midi": 72,
      "hit": false,
      "t": 48912.9750000002,
      "d": 163.04325000000244,
      "v": 127
    },
    {
      "midi": 77,
      "hit": false,
      "t": 49076.018250000205,
      "d": 163.04325000000244,
      "v": 127
    },
    {
      "midi": 76,
      "hit": false,
      "t": 49239.06150000021,
      "d": 163.04325000000244,
      "v": 127
    },
    {
      "midi": 77,
      "hit": false,
      "t": 49402.10475000021,
      "d": 163.04325000000244,
      "v": 127
    },
    {
      "midi": 59,
      "hit": false,
      "t": 49565.147999999965,
      "d": 326.0864999999976,
      "v": 127
    },
    {
      "midi": 74,
      "hit": false,
      "t": 49565.14800000021,
      "d": 163.04325000000244,
      "v": 127
    },
    {
      "midi": 77,
      "hit": false,
      "t": 49728.191250000214,
      "d": 163.04325000000244,
      "v": 127
    },
    {
      "midi": 57,
      "hit": false,
      "t": 49891.23449999996,
      "d": 326.0864999999976,
      "v": 127
    },
    {
      "midi": 72,
      "hit": false,
      "t": 49891.23450000022,
      "d": 163.04325000000244,
      "v": 127
    },
    {
      "midi": 77,
      "hit": false,
      "t": 50054.27775000022,
      "d": 163.04325000000244,
      "v": 127
    },
    {
      "midi": 55,
      "hit": false,
      "t": 50217.32099999996,
      "d": 326.0864999999976,
      "v": 127
    },
    {
      "midi": 71,
      "hit": false,
      "t": 50217.32100000022,
      "d": 163.04325000000244,
      "v": 127
    },
    {
      "midi": 77,
      "hit": false,
      "t": 50380.364250000224,
      "d": 163.04325000000244,
      "v": 127
    },
    {
      "midi": 53,
      "hit": false,
      "t": 50543.40749999996,
      "d": 326.0864999999976,
      "v": 127
    },
    {
      "midi": 69,
      "hit": false,
      "t": 50543.40750000023,
      "d": 163.04325000000244,
      "v": 127
    },
    {
      "midi": 77,
      "hit": false,
      "t": 50706.45075000023,
      "d": 163.04325000000244,
      "v": 127
    },
    {
      "midi": 43,
      "hit": false,
      "t": 50869.493999999955,
      "d": 326.0864999999976,
      "v": 127
    },
    {
      "midi": 55,
      "hit": false,
      "t": 50869.493999999955,
      "d": 326.0864999999976,
      "v": 127
    },
    {
      "midi": 71,
      "hit": false,
      "t": 50869.49400000023,
      "d": 652.1730000000025,
      "v": 127
    },
    {
      "midi": 50,
      "hit": false,
      "t": 51195.58049999995,
      "d": 326.0864999999976,
      "v": 127
    },
    {
      "midi": 55,
      "hit": false,
      "t": 51521.66699999995,
      "d": 652.1730000000025,
      "v": 127
    },
    {
      "midi": 67,
      "hit": false,
      "t": 51684.71025000024,
      "d": 163.04325000000244,
      "v": 127
    },
    {
      "midi": 69,
      "hit": false,
      "t": 51847.75350000024,
      "d": 163.04325000000244,
      "v": 127
    },
    {
      "midi": 71,
      "hit": false,
      "t": 52010.79675000024,
      "d": 163.04325000000244,
      "v": 127
    },
    {
      "midi": 53,
      "hit": false,
      "t": 52173.83999999995,
      "d": 652.1730000000025,
      "v": 127
    },
    {
      "midi": 72,
      "hit": false,
      "t": 52173.840000000244,
      "d": 163.04325000000244,
      "v": 127
    },
    {
      "midi": 74,
      "hit": false,
      "t": 52336.883250000246,
      "d": 163.04325000000244,
      "v": 127
    },
    {
      "midi": 76,
      "hit": false,
      "t": 52499.92650000025,
      "d": 163.04325000000244,
      "v": 127
    },
    {
      "midi": 77,
      "hit": false,
      "t": 52662.96975000025,
      "d": 163.04325000000244,
      "v": 127
    },
    {
      "midi": 52,
      "hit": false,
      "t": 52826.012999999955,
      "d": 326.0864999999976,
      "v": 127
    },
    {
      "midi": 79,
      "hit": false,
      "t": 52826.013000000254,
      "d": 652.1730000000025,
      "v": 127
    },
    {
      "midi": 53,
      "hit": false,
      "t": 53152.09949999995,
      "d": 326.0864999999976,
      "v": 127
    },
    {
      "midi": 64,
      "hit": false,
      "t": 53478.18599999995,
      "d": 652.1730000000025,
      "v": 127
    },
    {
      "midi": 67,
      "hit": false,
      "t": 53478.18599999995,
      "d": 652.1730000000025,
      "v": 127
    },
    {
      "midi": 72,
      "hit": false,
      "t": 53641.22925000026,
      "d": 163.04325000000244,
      "v": 127
    },
    {
      "midi": 74,
      "hit": false,
      "t": 53804.27250000026,
      "d": 163.04325000000244,
      "v": 127
    },
    {
      "midi": 76,
      "hit": false,
      "t": 53967.31575000026,
      "d": 163.04325000000244,
      "v": 127
    },
    {
      "midi": 62,
      "hit": false,
      "t": 54130.35899999995,
      "d": 652.1730000000025,
      "v": 127
    },
    {
      "midi": 65,
      "hit": false,
      "t": 54130.35899999995,
      "d": 652.1730000000025,
      "v": 127
    },
    {
      "midi": 77,
      "hit": false,
      "t": 54130.359000000266,
      "d": 163.04325000000244,
      "v": 127
    },
    {
      "midi": 79,
      "hit": false,
      "t": 54293.40225000027,
      "d": 163.04325000000244,
      "v": 127
    },
    {
      "midi": 81,
      "hit": false,
      "t": 54456.44550000027,
      "d": 163.04325000000244,
      "v": 127
    },
    {
      "midi": 83,
      "hit": false,
      "t": 54619.48875000027,
      "d": 163.04325000000244,
      "v": 127
    },
    {
      "midi": 60,
      "hit": false,
      "t": 54782.531999999956,
      "d": 652.1730000000025,
      "v": 127
    },
    {
      "midi": 64,
      "hit": false,
      "t": 54782.531999999956,
      "d": 652.1730000000025,
      "v": 127
    },
    {
      "midi": 84,
      "hit": false,
      "t": 54782.532000000276,
      "d": 163.04325000000244,
      "v": 127
    },
    {
      "midi": 83,
      "hit": false,
      "t": 54945.57525000028,
      "d": 163.04325000000244,
      "v": 127
    },
    {
      "midi": 81,
      "hit": false,
      "t": 55108.61850000028,
      "d": 163.04325000000244,
      "v": 127
    },
    {
      "midi": 79,
      "hit": false,
      "t": 55271.66175000028,
      "d": 163.04325000000244,
      "v": 127
    },
    {
      "midi": 53,
      "hit": false,
      "t": 55434.70499999996,
      "d": 652.1730000000025,
      "v": 127
    },
    {
      "midi": 57,
      "hit": false,
      "t": 55434.70499999996,
      "d": 652.1730000000025,
      "v": 127
    },
    {
      "midi": 77,
      "hit": false,
      "t": 55434.705000000286,
      "d": 163.04325000000244,
      "v": 127
    },
    {
      "midi": 76,
      "hit": false,
      "t": 55597.74825000029,
      "d": 163.04325000000244,
      "v": 127
    },
    {
      "midi": 74,
      "hit": false,
      "t": 55760.79150000029,
      "d": 163.04325000000244,
      "v": 127
    },
    {
      "midi": 72,
      "hit": false,
      "t": 55923.83475000029,
      "d": 163.04325000000244,
      "v": 127
    },
    {
      "midi": 55,
      "hit": false,
      "t": 56086.87799999996,
      "d": 652.1730000000025,
      "v": 127
    },
    {
      "midi": 71,
      "hit": false,
      "t": 56086.878000000295,
      "d": 163.04325000000244,
      "v": 127
    },
    {
      "midi": 69,
      "hit": false,
      "t": 56249.9212500003,
      "d": 163.04325000000244,
      "v": 127
    },
    {
      "midi": 67,
      "hit": false,
      "t": 56412.9645000003,
      "d": 163.04325000000244,
      "v": 127
    },
    {
      "midi": 65,
      "hit": false,
      "t": 56576.0077500003,
      "d": 163.04325000000244,
      "v": 127
    },
    {
      "midi": 60,
      "hit": false,
      "t": 56739.05099999996,
      "d": 163.04325000000244,
      "v": 127
    },
    {
      "midi": 64,
      "hit": false,
      "t": 56739.051000000305,
      "d": 652.1730000000025,
      "v": 127
    },
    {
      "midi": 59,
      "hit": false,
      "t": 56902.094249999966,
      "d": 163.04325000000244,
      "v": 127
    },
    {
      "midi": 57,
      "hit": false,
      "t": 57065.13749999997,
      "d": 163.04325000000244,
      "v": 127
    },
    {
      "midi": 55,
      "hit": false,
      "t": 57228.18074999997,
      "d": 163.04325000000244,
      "v": 127
    },
    {
      "midi": 53,
      "hit": false,
      "t": 57391.22399999997,
      "d": 163.04325000000244,
      "v": 127
    },
    {
      "midi": 72,
      "hit": false,
      "t": 57391.22400000031,
      "d": 652.1730000000025,
      "v": 127
    },
    {
      "midi": 81,
      "hit": false,
      "t": 57391.22400000031,
      "d": 652.1730000000025,
      "v": 127
    },
    {
      "midi": 52,
      "hit": false,
      "t": 57554.267249999975,
      "d": 163.04325000000244,
      "v": 127
    },
    {
      "midi": 50,
      "hit": false,
      "t": 57717.31049999998,
      "d": 163.04325000000244,
      "v": 127
    },
    {
      "midi": 48,
      "hit": false,
      "t": 57880.35374999998,
      "d": 163.04325000000244,
      "v": 127
    },
    {
      "midi": 47,
      "hit": false,
      "t": 58043.39699999998,
      "d": 163.04325000000244,
      "v": 127
    },
    {
      "midi": 74,
      "hit": false,
      "t": 58043.39700000031,
      "d": 652.1730000000025,
      "v": 127
    },
    {
      "midi": 79,
      "hit": false,
      "t": 58043.39700000031,
      "d": 652.1730000000025,
      "v": 127
    },
    {
      "midi": 45,
      "hit": false,
      "t": 58206.440249999985,
      "d": 163.04325000000244,
      "v": 127
    },
    {
      "midi": 43,
      "hit": false,
      "t": 58369.48349999999,
      "d": 163.04325000000244,
      "v": 127
    },
    {
      "midi": 41,
      "hit": false,
      "t": 58532.52674999999,
      "d": 163.04325000000244,
      "v": 127
    },
    {
      "midi": 40,
      "hit": false,
      "t": 58695.56999999999,
      "d": 1304.3459999999977,
      "v": 127
    },
    {
      "midi": 79,
      "hit": false,
      "t": 58695.57000000031,
      "d": 163.04325000000244,
      "v": 127
    },
    {
      "midi": 77,
      "hit": false,
      "t": 58858.613250000315,
      "d": 163.04325000000244,
      "v": 127
    },
    {
      "midi": 76,
      "hit": false,
      "t": 59021.65650000032,
      "d": 163.04325000000244,
      "v": 127
    },
    {
      "midi": 74,
      "hit": false,
      "t": 59184.69975000032,
      "d": 163.04325000000244,
      "v": 127
    },
    {
      "midi": 72,
      "hit": false,
      "t": 59347.74300000032,
      "d": 163.04325000000244,
      "v": 127
    },
    {
      "midi": 71,
      "hit": false,
      "t": 59510.786250000325,
      "d": 163.04325000000244,
      "v": 127
    },
    {
      "midi": 69,
      "hit": false,
      "t": 59673.82950000033,
      "d": 163.04325000000244,
      "v": 127
    },
    {
      "midi": 67,
      "hit": false,
      "t": 59836.87275000033,
      "d": 163.04325000000244,
      "v": 127
    },
    {
      "midi": 41,
      "hit": false,
      "t": 59999.91599999999,
      "d": 652.1730000000025,
      "v": 127
    },
    {
      "midi": 50,
      "hit": false,
      "t": 59999.91599999999,
      "d": 652.1730000000025,
      "v": 127
    },
    {
      "midi": 65,
      "hit": false,
      "t": 59999.91600000033,
      "d": 163.04325000000244,
      "v": 127
    },
    {
      "midi": 64,
      "hit": false,
      "t": 60162.959250000335,
      "d": 163.04325000000244,
      "v": 127
    },
    {
      "midi": 62,
      "hit": false,
      "t": 60326.00250000034,
      "d": 163.04325000000244,
      "v": 127
    },
    {
      "midi": 60,
      "hit": false,
      "t": 60489.04575000034,
      "d": 163.04325000000244,
      "v": 127
    },
    {
      "midi": 50,
      "hit": false,
      "t": 60652.08899999999,
      "d": 978.2595000000001,
      "v": 127
    },
    {
      "midi": 59,
      "hit": false,
      "t": 60652.08900000034,
      "d": 326.0864999999976,
      "v": 127
    },
    {
      "midi": 60,
      "hit": false,
      "t": 60978.17550000034,
      "d": 163.04325000000244,
      "v": 127
    },
    {
      "midi": 62,
      "hit": false,
      "t": 61141.21875000034,
      "d": 163.04325000000244,
      "v": 127
    },
    {
      "midi": 55,
      "hit": false,
      "t": 61304.262000000344,
      "d": 326.0864999999976,
      "v": 127
    },
    {
      "midi": 52,
      "hit": false,
      "t": 61630.34849999999,
      "d": 326.0864999999976,
      "v": 127
    },
    {
      "midi": 60,
      "hit": false,
      "t": 61630.34850000034,
      "d": 326.0864999999976,
      "v": 127
    },
    {
      "midi": 43,
      "hit": false,
      "t": 61956.43499999999,
      "d": 652.1730000000025,
      "v": 127
    },
    {
      "midi": 53,
      "hit": false,
      "t": 61956.43499999999,
      "d": 652.1730000000025,
      "v": 127
    },
    {
      "midi": 62,
      "hit": false,
      "t": 61956.43500000034,
      "d": 326.0864999999976,
      "v": 127
    },
    {
      "midi": 59,
      "hit": false,
      "t": 62282.52150000034,
      "d": 326.0864999999976,
      "v": 127
    },
    {
      "midi": 60,
      "hit": false,
      "t": 62608.608000000335,
      "d": 978.2595000000001,
      "v": 127
    },
    {
      "midi": 48,
      "hit": false,
      "t": 62771.651249999995,
      "d": 163.04325000000244,
      "v": 127
    },
    {
      "midi": 47,
      "hit": false,
      "t": 62934.6945,
      "d": 163.04325000000244,
      "v": 127
    },
    {
      "midi": 48,
      "hit": false,
      "t": 63097.73775,
      "d": 163.04325000000244,
      "v": 127
    },
    {
      "midi": 43,
      "hit": false,
      "t": 63260.781,
      "d": 163.04325000000244,
      "v": 127
    },
    {
      "midi": 48,
      "hit": false,
      "t": 63423.824250000005,
      "d": 163.04325000000244,
      "v": 127
    },
    {
      "midi": 41,
      "hit": false,
      "t": 63586.86750000001,
      "d": 163.04325000000244,
      "v": 127
    },
    {
      "midi": 69,
      "hit": false,
      "t": 63586.867500000335,
      "d": 326.0864999999976,
      "v": 127
    },
    {
      "midi": 48,
      "hit": false,
      "t": 63749.91075000001,
      "d": 163.04325000000244,
      "v": 127
    },
    {
      "midi": 40,
      "hit": false,
      "t": 63912.95400000001,
      "d": 163.04325000000244,
      "v": 127
    },
    {
      "midi": 67,
      "hit": false,
      "t": 63912.95400000033,
      "d": 326.0864999999976,
      "v": 127
    },
    {
      "midi": 48,
      "hit": false,
      "t": 64075.997250000015,
      "d": 163.04325000000244,
      "v": 127
    },
    {
      "midi": 38,
      "hit": false,
      "t": 64239.04050000002,
      "d": 163.04325000000244,
      "v": 127
    },
    {
      "midi": 65,
      "hit": false,
      "t": 64239.04050000033,
      "d": 326.0864999999976,
      "v": 127
    },
    {
      "midi": 48,
      "hit": false,
      "t": 64402.08375000002,
      "d": 163.04325000000244,
      "v": 127
    },
    {
      "midi": 36,
      "hit": false,
      "t": 64565.12700000002,
      "d": 163.04325000000244,
      "v": 127
    },
    {
      "midi": 64,
      "hit": false,
      "t": 64565.12700000033,
      "d": 978.2595000000001,
      "v": 127
    },
    {
      "midi": 48,
      "hit": false,
      "t": 64728.170250000025,
      "d": 163.04325000000244,
      "v": 127
    },
    {
      "midi": 47,
      "hit": false,
      "t": 64891.21350000003,
      "d": 163.04325000000244,
      "v": 127
    },
    {
      "midi": 48,
      "hit": false,
      "t": 65054.25675000003,
      "d": 163.04325000000244,
      "v": 127
    },
    {
      "midi": 43,
      "hit": false,
      "t": 65217.30000000003,
      "d": 163.04325000000244,
      "v": 127
    },
    {
      "midi": 48,
      "hit": false,
      "t": 65380.343250000034,
      "d": 163.04325000000244,
      "v": 127
    },
    {
      "midi": 41,
      "hit": false,
      "t": 65543.38650000004,
      "d": 163.04325000000244,
      "v": 127
    },
    {
      "midi": 69,
      "hit": false,
      "t": 65543.38650000033,
      "d": 326.0865000000049,
      "v": 127
    },
    {
      "midi": 48,
      "hit": false,
      "t": 65706.42975000004,
      "d": 163.04325000000244,
      "v": 127
    },
    {
      "midi": 40,
      "hit": false,
      "t": 65869.47300000004,
      "d": 163.04325000000244,
      "v": 127
    },
    {
      "midi": 67,
      "hit": false,
      "t": 65869.47300000033,
      "d": 326.0865000000049,
      "v": 127
    },
    {
      "midi": 48,
      "hit": false,
      "t": 66032.51625000004,
      "d": 163.04325000000244,
      "v": 127
    },
    {
      "midi": 38,
      "hit": false,
      "t": 66195.55950000005,
      "d": 163.04325000000244,
      "v": 127
    },
    {
      "midi": 65,
      "hit": false,
      "t": 66195.55950000034,
      "d": 326.0865000000049,
      "v": 127
    },
    {
      "midi": 48,
      "hit": false,
      "t": 66358.60275000005,
      "d": 163.04325000000244,
      "v": 127
    },
    {
      "midi": 36,
      "hit": false,
      "t": 66521.64600000005,
      "d": 1956.5190000000002,
      "v": 127
    },
    {
      "midi": 60,
      "hit": false,
      "t": 66521.64600000034,
      "d": 1956.5190000000002,
      "v": 127
    },
    {
      "midi": 64,
      "hit": false,
      "t": 66521.64600000034,
      "d": 1956.5190000000002,
      "v": 127
    },
    {
      "midi": 84,
      "hit": false,
      "t": 68641.20825000035,
      "d": 163.04325000000244,
      "v": 127
    },
    {
      "midi": 83,
      "hit": false,
      "t": 68804.25150000035,
      "d": 163.04325000000244,
      "v": 127
    },
    {
      "midi": 84,
      "hit": false,
      "t": 68967.29475000035,
      "d": 163.04325000000244,
      "v": 127
    },
    {
      "midi": 79,
      "hit": false,
      "t": 69130.33800000035,
      "d": 163.04325000000244,
      "v": 127
    },
    {
      "midi": 84,
      "hit": false,
      "t": 69293.38125000036,
      "d": 163.04325000000244,
      "v": 127
    },
    {
      "midi": 77,
      "hit": false,
      "t": 69456.42450000036,
      "d": 163.04325000000244,
      "v": 127
    },
    {
      "midi": 84,
      "hit": false,
      "t": 69619.46775000036,
      "d": 163.04325000000244,
      "v": 127
    },
    {
      "midi": 76,
      "hit": false,
      "t": 69782.51100000036,
      "d": 163.04325000000244,
      "v": 127
    },
    {
      "midi": 84,
      "hit": false,
      "t": 69945.55425000036,
      "d": 163.04325000000244,
      "v": 127
    },
    {
      "midi": 74,
      "hit": false,
      "t": 70108.59750000037,
      "d": 163.04325000000244,
      "v": 127
    },
    {
      "midi": 84,
      "hit": false,
      "t": 70271.64075000037,
      "d": 163.04325000000244,
      "v": 127
    },
    {
      "midi": 72,
      "hit": false,
      "t": 70434.68400000037,
      "d": 163.04325000000244,
      "v": 127
    },
    {
      "midi": 84,
      "hit": false,
      "t": 70597.72725000037,
      "d": 163.04325000000244,
      "v": 127
    },
    {
      "midi": 83,
      "hit": false,
      "t": 70760.77050000038,
      "d": 163.04325000000244,
      "v": 127
    },
    {
      "midi": 84,
      "hit": false,
      "t": 70923.81375000038,
      "d": 163.04325000000244,
      "v": 127
    },
    {
      "midi": 79,
      "hit": false,
      "t": 71086.85700000038,
      "d": 163.04325000000244,
      "v": 127
    },
    {
      "midi": 84,
      "hit": false,
      "t": 71249.90025000038,
      "d": 163.04325000000244,
      "v": 127
    },
    {
      "midi": 77,
      "hit": false,
      "t": 71412.94350000039,
      "d": 163.04325000000244,
      "v": 127
    },
    {
      "midi": 84,
      "hit": false,
      "t": 71575.98675000039,
      "d": 163.04325000000244,
      "v": 127
    },
    {
      "midi": 76,
      "hit": false,
      "t": 71739.03000000039,
      "d": 163.04325000000244,
      "v": 127
    },
    {
      "midi": 84,
      "hit": false,
      "t": 71902.0732500004,
      "d": 163.04325000000244,
      "v": 127
    },
    {
      "midi": 74,
      "hit": false,
      "t": 72065.1165000004,
      "d": 163.04325000000244,
      "v": 127
    },
    {
      "midi": 84,
      "hit": false,
      "t": 72228.1597500004,
      "d": 163.04325000000244,
      "v": 127
    },
    {
      "midi": 72,
      "hit": false,
      "t": 72391.2030000004,
      "d": 978.2595000000001,
      "v": 127
    },
    {
      "midi": 60,
      "hit": false,
      "t": 72554.24625000005,
      "d": 163.04325000000244,
      "v": 127
    },
    {
      "midi": 59,
      "hit": false,
      "t": 72717.28950000006,
      "d": 163.04325000000244,
      "v": 127
    },
    {
      "midi": 60,
      "hit": false,
      "t": 72880.33275000006,
      "d": 163.04325000000244,
      "v": 127
    },
    {
      "midi": 55,
      "hit": false,
      "t": 73043.37600000006,
      "d": 163.04325000000244,
      "v": 127
    },
    {
      "midi": 60,
      "hit": false,
      "t": 73206.41925000006,
      "d": 163.04325000000244,
      "v": 127
    },
    {
      "midi": 53,
      "hit": false,
      "t": 73369.46250000007,
      "d": 163.04325000000244,
      "v": 127
    },
    {
      "midi": 81,
      "hit": false,
      "t": 73369.4625000004,
      "d": 326.0865000000049,
      "v": 127
    },
    {
      "midi": 60,
      "hit": false,
      "t": 73532.50575000007,
      "d": 163.04325000000244,
      "v": 127
    },
    {
      "midi": 52,
      "hit": false,
      "t": 73695.54900000007,
      "d": 163.04325000000244,
      "v": 127
    },
    {
      "midi": 79,
      "hit": false,
      "t": 73695.5490000004,
      "d": 326.0865000000049,
      "v": 127
    },
    {
      "midi": 60,
      "hit": false,
      "t": 73858.59225000007,
      "d": 163.04325000000244,
      "v": 127
    },
    {
      "midi": 50,
      "hit": false,
      "t": 74021.63550000008,
      "d": 163.04325000000244,
      "v": 127
    },
    {
      "midi": 77,
      "hit": false,
      "t": 74021.63550000041,
      "d": 326.0865000000049,
      "v": 127
    },
    {
      "midi": 60,
      "hit": false,
      "t": 74184.67875000008,
      "d": 163.04325000000244,
      "v": 127
    },
    {
      "midi": 48,
      "hit": false,
      "t": 74347.72200000008,
      "d": 163.04325000000244,
      "v": 127
    },
    {
      "midi": 72,
      "hit": false,
      "t": 74347.72200000042,
      "d": 978.2595000000001,
      "v": 127
    },
    {
      "midi": 76,
      "hit": false,
      "t": 74347.72200000042,
      "d": 978.2595000000001,
      "v": 127
    },
    {
      "midi": 60,
      "hit": false,
      "t": 74510.76525000008,
      "d": 163.04325000000244,
      "v": 127
    },
    {
      "midi": 59,
      "hit": false,
      "t": 74673.80850000009,
      "d": 163.04325000000244,
      "v": 127
    },
    {
      "midi": 60,
      "hit": false,
      "t": 74836.85175000009,
      "d": 163.04325000000244,
      "v": 127
    },
    {
      "midi": 55,
      "hit": false,
      "t": 74999.89500000009,
      "d": 163.04325000000244,
      "v": 127
    },
    {
      "midi": 60,
      "hit": false,
      "t": 75162.9382500001,
      "d": 163.04325000000244,
      "v": 127
    },
    {
      "midi": 53,
      "hit": false,
      "t": 75325.9815000001,
      "d": 163.04325000000244,
      "v": 127
    },
    {
      "midi": 81,
      "hit": false,
      "t": 75325.98150000042,
      "d": 326.0865000000049,
      "v": 127
    },
    {
      "midi": 60,
      "hit": false,
      "t": 75489.0247500001,
      "d": 163.04325000000244,
      "v": 127
    },
    {
      "midi": 52,
      "hit": false,
      "t": 75652.0680000001,
      "d": 163.04325000000244,
      "v": 127
    },
    {
      "midi": 79,
      "hit": false,
      "t": 75652.06800000042,
      "d": 326.0865000000049,
      "v": 127
    },
    {
      "midi": 60,
      "hit": false,
      "t": 75815.1112500001,
      "d": 163.04325000000244,
      "v": 127
    },
    {
      "midi": 50,
      "hit": false,
      "t": 75978.1545000001,
      "d": 163.04325000000244,
      "v": 127
    },
    {
      "midi": 77,
      "hit": false,
      "t": 75978.15450000043,
      "d": 326.0865000000049,
      "v": 127
    },
    {
      "midi": 60,
      "hit": false,
      "t": 76141.19775000011,
      "d": 163.04325000000244,
      "v": 127
    },
    {
      "midi": 48,
      "hit": false,
      "t": 76304.24100000011,
      "d": 652.1729999999952,
      "v": 127
    },
    {
      "midi": 76,
      "hit": false,
      "t": 76304.24100000043,
      "d": 163.04325000000244,
      "v": 127
    },
    {
      "midi": 84,
      "hit": false,
      "t": 76467.28425000043,
      "d": 163.04325000000244,
      "v": 127
    },
    {
      "midi": 83,
      "hit": false,
      "t": 76630.32750000044,
      "d": 163.04325000000244,
      "v": 127
    },
    {
      "midi": 84,
      "hit": false,
      "t": 76793.37075000044,
      "d": 163.04325000000244,
      "v": 127
    },
    {
      "midi": 79,
      "hit": false,
      "t": 76956.41400000044,
      "d": 163.04325000000244,
      "v": 127
    },
    {
      "midi": 84,
      "hit": false,
      "t": 77119.45725000044,
      "d": 163.04325000000244,
      "v": 127
    },
    {
      "midi": 77,
      "hit": false,
      "t": 77282.50050000045,
      "d": 163.04325000000244,
      "v": 127
    },
    {
      "midi": 84,
      "hit": false,
      "t": 77445.54375000045,
      "d": 163.04325000000244,
      "v": 127
    },
    {
      "midi": 76,
      "hit": false,
      "t": 77608.58700000045,
      "d": 163.04325000000244,
      "v": 127
    },
    {
      "midi": 84,
      "hit": false,
      "t": 77771.63025000045,
      "d": 163.04325000000244,
      "v": 127
    },
    {
      "midi": 74,
      "hit": false,
      "t": 77934.67350000046,
      "d": 163.04325000000244,
      "v": 127
    },
    {
      "midi": 84,
      "hit": false,
      "t": 78097.71675000046,
      "d": 163.04325000000244,
      "v": 127
    },
    {
      "midi": 72,
      "hit": false,
      "t": 78260.76000000046,
      "d": 163.04325000000244,
      "v": 127
    },
    {
      "midi": 79,
      "hit": false,
      "t": 78423.80325000046,
      "d": 163.04325000000244,
      "v": 127
    },
    {
      "midi": 77,
      "hit": false,
      "t": 78586.84650000047,
      "d": 163.04325000000244,
      "v": 127
    },
    {
      "midi": 79,
      "hit": false,
      "t": 78749.88975000047,
      "d": 163.04325000000244,
      "v": 127
    },
    {
      "midi": 76,
      "hit": false,
      "t": 78912.93300000047,
      "d": 163.04325000000244,
      "v": 127
    },
    {
      "midi": 79,
      "hit": false,
      "t": 79075.97625000047,
      "d": 163.04325000000244,
      "v": 127
    },
    {
      "midi": 74,
      "hit": false,
      "t": 79239.01950000048,
      "d": 163.04325000000244,
      "v": 127
    },
    {
      "midi": 79,
      "hit": false,
      "t": 79402.06275000048,
      "d": 163.04325000000244,
      "v": 127
    },
    {
      "midi": 72,
      "hit": false,
      "t": 79565.10600000048,
      "d": 163.04325000000244,
      "v": 127
    },
    {
      "midi": 79,
      "hit": false,
      "t": 79728.14925000048,
      "d": 163.04325000000244,
      "v": 127
    },
    {
      "midi": 70,
      "hit": false,
      "t": 79891.19250000048,
      "d": 163.04325000000244,
      "v": 127
    },
    {
      "midi": 79,
      "hit": false,
      "t": 80054.23575000049,
      "d": 163.04325000000244,
      "v": 127
    },
    {
      "midi": 69,
      "hit": false,
      "t": 80217.27900000049,
      "d": 978.2595000000001,
      "v": 127
    },
    {
      "midi": 53,
      "hit": false,
      "t": 80380.3222500001,
      "d": 163.04325000000244,
      "v": 127
    },
    {
      "midi": 52,
      "hit": false,
      "t": 80543.3655000001,
      "d": 163.04325000000244,
      "v": 127
    },
    {
      "midi": 53,
      "hit": false,
      "t": 80706.4087500001,
      "d": 163.04325000000244,
      "v": 127
    },
    {
      "midi": 48,
      "hit": false,
      "t": 80869.4520000001,
      "d": 163.04325000000244,
      "v": 127
    },
    {
      "midi": 53,
      "hit": false,
      "t": 81032.49525000011,
      "d": 163.04325000000244,
      "v": 127
    },
    {
      "midi": 46,
      "hit": false,
      "t": 81195.53850000011,
      "d": 163.04325000000244,
      "v": 127
    },
    {
      "midi": 74,
      "hit": false,
      "t": 81195.53850000049,
      "d": 326.0865000000049,
      "v": 127
    },
    {
      "midi": 53,
      "hit": false,
      "t": 81358.58175000011,
      "d": 163.04325000000244,
      "v": 127
    },
    {
      "midi": 45,
      "hit": false,
      "t": 81521.62500000012,
      "d": 163.04325000000244,
      "v": 127
    },
    {
      "midi": 72,
      "hit": false,
      "t": 81521.6250000005,
      "d": 326.0865000000049,
      "v": 127
    },
    {
      "midi": 53,
      "hit": false,
      "t": 81684.66825000012,
      "d": 163.04325000000244,
      "v": 127
    },
    {
      "midi": 43,
      "hit": false,
      "t": 81847.71150000012,
      "d": 163.04325000000244,
      "v": 127
    },
    {
      "midi": 70,
      "hit": false,
      "t": 81847.7115000005,
      "d": 326.0865000000049,
      "v": 127
    },
    {
      "midi": 53,
      "hit": false,
      "t": 82010.75475000012,
      "d": 163.04325000000244,
      "v": 127
    },
    {
      "midi": 41,
      "hit": false,
      "t": 82173.79800000013,
      "d": 163.04325000000244,
      "v": 127
    },
    {
      "midi": 69,
      "hit": false,
      "t": 82173.7980000005,
      "d": 978.2595000000001,
      "v": 127
    },
    {
      "midi": 53,
      "hit": false,
      "t": 82336.84125000013,
      "d": 163.04325000000244,
      "v": 127
    },
    {
      "midi": 52,
      "hit": false,
      "t": 82499.88450000013,
      "d": 163.04325000000244,
      "v": 127
    },
    {
      "midi": 53,
      "hit": false,
      "t": 82662.92775000013,
      "d": 163.04325000000244,
      "v": 127
    },
    {
      "midi": 48,
      "hit": false,
      "t": 82825.97100000014,
      "d": 163.04325000000244,
      "v": 127
    },
    {
      "midi": 53,
      "hit": false,
      "t": 82989.01425000014,
      "d": 163.04325000000244,
      "v": 127
    },
    {
      "midi": 46,
      "hit": false,
      "t": 83152.05750000014,
      "d": 163.04325000000244,
      "v": 127
    },
    {
      "midi": 74,
      "hit": false,
      "t": 83152.0575000005,
      "d": 326.0865000000049,
      "v": 127
    },
    {
      "midi": 53,
      "hit": false,
      "t": 83315.10075000014,
      "d": 163.04325000000244,
      "v": 127
    },
    {
      "midi": 45,
      "hit": false,
      "t": 83478.14400000015,
      "d": 163.04325000000244,
      "v": 127
    },
    {
      "midi": 72,
      "hit": false,
      "t": 83478.14400000051,
      "d": 326.0865000000049,
      "v": 127
    },
    {
      "midi": 53,
      "hit": false,
      "t": 83641.18725000015,
      "d": 163.04325000000244,
      "v": 127
    },
    {
      "midi": 43,
      "hit": false,
      "t": 83804.23050000015,
      "d": 163.04325000000244,
      "v": 127
    },
    {
      "midi": 70,
      "hit": false,
      "t": 83804.23050000051,
      "d": 326.0865000000049,
      "v": 127
    },
    {
      "midi": 53,
      "hit": false,
      "t": 83967.27375000015,
      "d": 163.04325000000244,
      "v": 127
    },
    {
      "midi": 41,
      "hit": false,
      "t": 84130.31700000016,
      "d": 652.1729999999952,
      "v": 127
    },
    {
      "midi": 69,
      "hit": false,
      "t": 84130.31700000052,
      "d": 163.04325000000244,
      "v": 127
    },
    {
      "midi": 77,
      "hit": false,
      "t": 84293.36025000052,
      "d": 163.04325000000244,
      "v": 127
    },
    {
      "midi": 76,
      "hit": false,
      "t": 84456.40350000052,
      "d": 163.04325000000244,
      "v": 127
    },
    {
      "midi": 77,
      "hit": false,
      "t": 84619.44675000053,
      "d": 163.04325000000244,
      "v": 127
    },
    {
      "midi": 72,
      "hit": false,
      "t": 84782.49000000053,
      "d": 163.04325000000244,
      "v": 127
    },
    {
      "midi": 77,
      "hit": false,
      "t": 84945.53325000053,
      "d": 163.04325000000244,
      "v": 127
    },
    {
      "midi": 70,
      "hit": false,
      "t": 85108.57650000053,
      "d": 163.04325000000244,
      "v": 127
    },
    {
      "midi": 77,
      "hit": false,
      "t": 85271.61975000054,
      "d": 163.04325000000244,
      "v": 127
    },
    {
      "midi": 69,
      "hit": false,
      "t": 85434.66300000054,
      "d": 163.04325000000244,
      "v": 127
    },
    {
      "midi": 77,
      "hit": false,
      "t": 85597.70625000054,
      "d": 163.04325000000244,
      "v": 127
    },
    {
      "midi": 67,
      "hit": false,
      "t": 85760.74950000054,
      "d": 163.04325000000244,
      "v": 127
    },
    {
      "midi": 77,
      "hit": false,
      "t": 85923.79275000055,
      "d": 163.04325000000244,
      "v": 127
    },
    {
      "midi": 53,
      "hit": false,
      "t": 86086.83600000016,
      "d": 326.0865000000049,
      "v": 127
    },
    {
      "midi": 65,
      "hit": false,
      "t": 86086.83600000055,
      "d": 1304.346000000005,
      "v": 127
    },
    {
      "midi": 69,
      "hit": false,
      "t": 86086.83600000055,
      "d": 1304.346000000005,
      "v": 127
    },
    {
      "midi": 48,
      "hit": false,
      "t": 86412.92250000016,
      "d": 326.0865000000049,
      "v": 127
    },
    {
      "midi": 45,
      "hit": false,
      "t": 86739.00900000017,
      "d": 326.0865000000049,
      "v": 127
    },
    {
      "midi": 41,
      "hit": false,
      "t": 87065.09550000017,
      "d": 326.0865000000049,
      "v": 127
    },
    {
      "midi": 48,
      "hit": false,
      "t": 87391.18200000018,
      "d": 326.0865000000049,
      "v": 127
    },
    {
      "midi": 64,
      "hit": false,
      "t": 87391.18200000055,
      "d": 652.1729999999952,
      "v": 127
    },
    {
      "midi": 67,
      "hit": false,
      "t": 87391.18200000055,
      "d": 652.1729999999952,
      "v": 127
    },
    {
      "midi": 36,
      "hit": false,
      "t": 87717.26850000018,
      "d": 326.0865000000049,
      "v": 127
    },
    {
      "midi": 55,
      "hit": false,
      "t": 88043.35500000019,
      "d": 326.0865000000049,
      "v": 127
    },
    {
      "midi": 67,
      "hit": false,
      "t": 88043.35500000055,
      "d": 1304.346000000005,
      "v": 127
    },
    {
      "midi": 70,
      "hit": false,
      "t": 88043.35500000055,
      "d": 1304.346000000005,
      "v": 127
    },
    {
      "midi": 50,
      "hit": false,
      "t": 88369.44150000019,
      "d": 326.0865000000049,
      "v": 127
    },
    {
      "midi": 46,
      "hit": false,
      "t": 88695.5280000002,
      "d": 326.0865000000049,
      "v": 127
    },
    {
      "midi": 43,
      "hit": false,
      "t": 89021.6145000002,
      "d": 326.0865000000049,
      "v": 127
    },
    {
      "midi": 50,
      "hit": false,
      "t": 89347.7010000002,
      "d": 326.0865000000049,
      "v": 127
    },
    {
      "midi": 66,
      "hit": false,
      "t": 89347.70100000055,
      "d": 652.1729999999952,
      "v": 127
    },
    {
      "midi": 69,
      "hit": false,
      "t": 89347.70100000055,
      "d": 652.1729999999952,
      "v": 127
    },
    {
      "midi": 38,
      "hit": false,
      "t": 89673.78750000021,
      "d": 326.0865000000049,
      "v": 127
    },
    {
      "midi": 57,
      "hit": false,
      "t": 89999.87400000021,
      "d": 326.0865000000049,
      "v": 127
    },
    {
      "midi": 69,
      "hit": false,
      "t": 89999.87400000055,
      "d": 1304.346000000005,
      "v": 127
    },
    {
      "midi": 72,
      "hit": false,
      "t": 89999.87400000055,
      "d": 1304.346000000005,
      "v": 127
    },
    {
      "midi": 52,
      "hit": false,
      "t": 90325.96050000022,
      "d": 326.0865000000049,
      "v": 127
    },
    {
      "midi": 48,
      "hit": false,
      "t": 90652.04700000022,
      "d": 326.0865000000049,
      "v": 127
    },
    {
      "midi": 45,
      "hit": false,
      "t": 90978.13350000023,
      "d": 326.0865000000049,
      "v": 127
    },
    {
      "midi": 52,
      "hit": false,
      "t": 91304.22000000023,
      "d": 326.0865000000049,
      "v": 127
    },
    {
      "midi": 68,
      "hit": false,
      "t": 91304.22000000055,
      "d": 652.1729999999952,
      "v": 127
    },
    {
      "midi": 71,
      "hit": false,
      "t": 91304.22000000055,
      "d": 652.1729999999952,
      "v": 127
    },
    {
      "midi": 40,
      "hit": false,
      "t": 91630.30650000024,
      "d": 326.0865000000049,
      "v": 127
    },
    {
      "midi": 60,
      "hit": false,
      "t": 91956.39300000024,
      "d": 326.0865000000049,
      "v": 127
    },
    {
      "midi": 72,
      "hit": false,
      "t": 91956.39300000055,
      "d": 1304.346000000005,
      "v": 127
    },
    {
      "midi": 76,
      "hit": false,
      "t": 91956.39300000055,
      "d": 1304.346000000005,
      "v": 127
    },
    {
      "midi": 55,
      "hit": false,
      "t": 92282.47950000025,
      "d": 326.0865000000049,
      "v": 127
    },
    {
      "midi": 52,
      "hit": false,
      "t": 92608.56600000025,
      "d": 326.0865000000049,
      "v": 127
    },
    {
      "midi": 48,
      "hit": false,
      "t": 92934.65250000026,
      "d": 326.0865000000049,
      "v": 127
    },
    {
      "midi": 55,
      "hit": false,
      "t": 93260.73900000026,
      "d": 326.0865000000049,
      "v": 127
    },
    {
      "midi": 71,
      "hit": false,
      "t": 93260.73900000055,
      "d": 652.1729999999952,
      "v": 127
    },
    {
      "midi": 74,
      "hit": false,
      "t": 93260.73900000055,
      "d": 652.1729999999952,
      "v": 127
    },
    {
      "midi": 43,
      "hit": false,
      "t": 93586.82550000027,
      "d": 326.0865000000049,
      "v": 127
    },
    {
      "midi": 62,
      "hit": false,
      "t": 93912.91200000027,
      "d": 326.0865000000049,
      "v": 127
    },
    {
      "midi": 74,
      "hit": false,
      "t": 93912.91200000055,
      "d": 1304.346000000005,
      "v": 127
    },
    {
      "midi": 77,
      "hit": false,
      "t": 93912.91200000055,
      "d": 1304.346000000005,
      "v": 127
    },
    {
      "midi": 57,
      "hit": false,
      "t": 94238.99850000028,
      "d": 326.0865000000049,
      "v": 127
    },
    {
      "midi": 53,
      "hit": false,
      "t": 94565.08500000028,
      "d": 326.0865000000049,
      "v": 127
    },
    {
      "midi": 50,
      "hit": false,
      "t": 94891.17150000029,
      "d": 326.0865000000049,
      "v": 127
    },
    {
      "midi": 57,
      "hit": false,
      "t": 95217.25800000029,
      "d": 326.0865000000049,
      "v": 127
    },
    {
      "midi": 73,
      "hit": false,
      "t": 95217.25800000055,
      "d": 652.1729999999952,
      "v": 127
    },
    {
      "midi": 76,
      "hit": false,
      "t": 95217.25800000055,
      "d": 652.1729999999952,
      "v": 127
    },
    {
      "midi": 45,
      "hit": false,
      "t": 95543.3445000003,
      "d": 326.0865000000049,
      "v": 127
    },
    {
      "midi": 64,
      "hit": false,
      "t": 95869.4310000003,
      "d": 326.0865000000049,
      "v": 127
    },
    {
      "midi": 76,
      "hit": false,
      "t": 95869.43100000055,
      "d": 1304.346000000005,
      "v": 127
    },
    {
      "midi": 79,
      "hit": false,
      "t": 95869.43100000055,
      "d": 1304.346000000005,
      "v": 127
    },
    {
      "midi": 59,
      "hit": false,
      "t": 96195.51750000031,
      "d": 326.0865000000049,
      "v": 127
    },
    {
      "midi": 55,
      "hit": false,
      "t": 96521.60400000031,
      "d": 326.0865000000049,
      "v": 127
    },
    {
      "midi": 52,
      "hit": false,
      "t": 96847.69050000032,
      "d": 326.0865000000049,
      "v": 127
    },
    {
      "midi": 59,
      "hit": false,
      "t": 97173.77700000032,
      "d": 326.0865000000049,
      "v": 127
    },
    {
      "midi": 75,
      "hit": false,
      "t": 97173.77700000055,
      "d": 652.1729999999952,
      "v": 127
    },
    {
      "midi": 78,
      "hit": false,
      "t": 97173.77700000055,
      "d": 652.1729999999952,
      "v": 127
    },
    {
      "midi": 47,
      "hit": false,
      "t": 97499.86350000033,
      "d": 326.0865000000049,
      "v": 127
    },
    {
      "midi": 52,
      "hit": false,
      "t": 97825.95000000033,
      "d": 652.1729999999952,
      "v": 127
    },
    {
      "midi": 83,
      "hit": false,
      "t": 97988.99325000055,
      "d": 163.04325000000244,
      "v": 127
    },
    {
      "midi": 81,
      "hit": false,
      "t": 98152.03650000055,
      "d": 163.04325000000244,
      "v": 127
    },
    {
      "midi": 83,
      "hit": false,
      "t": 98315.07975000056,
      "d": 163.04325000000244,
      "v": 127
    },
    {
      "midi": 40,
      "hit": false,
      "t": 98478.12300000033,
      "d": 652.1729999999952,
      "v": 127
    },
    {
      "midi": 79,
      "hit": false,
      "t": 98478.12300000056,
      "d": 163.04325000000244,
      "v": 127
    },
    {
      "midi": 83,
      "hit": false,
      "t": 98641.16625000056,
      "d": 163.04325000000244,
      "v": 127
    },
    {
      "midi": 78,
      "hit": false,
      "t": 98804.20950000056,
      "d": 163.04325000000244,
      "v": 127
    },
    {
      "midi": 83,
      "hit": false,
      "t": 98967.25275000057,
      "d": 163.04325000000244,
      "v": 127
    },
    {
      "midi": 76,
      "hit": false,
      "t": 99130.29600000057,
      "d": 163.04325000000244,
      "v": 127
    },
    {
      "midi": 83,
      "hit": false,
      "t": 99293.33925000057,
      "d": 163.04325000000244,
      "v": 127
    },
    {
      "midi": 74,
      "hit": false,
      "t": 99456.38250000057,
      "d": 163.04325000000244,
      "v": 127
    },
    {
      "midi": 83,
      "hit": false,
      "t": 99619.42575000058,
      "d": 163.04325000000244,
      "v": 127
    },
    {
      "midi": 45,
      "hit": false,
      "t": 99782.46900000032,
      "d": 652.1729999999952,
      "v": 127
    },
    {
      "midi": 72,
      "hit": false,
      "t": 99782.46900000058,
      "d": 163.04325000000244,
      "v": 127
    },
    {
      "midi": 84,
      "hit": false,
      "t": 99945.51225000058,
      "d": 163.04325000000244,
      "v": 127
    },
    {
      "midi": 83,
      "hit": false,
      "t": 100108.55550000058,
      "d": 163.04325000000244,
      "v": 127
    },
    {
      "midi": 84,
      "hit": false,
      "t": 100271.59875000059,
      "d": 163.04325000000244,
      "v": 127
    },
    {
      "midi": 65,
      "hit": false,
      "t": 100434.64200000031,
      "d": 326.0865000000049,
      "v": 127
    },
    {
      "midi": 81,
      "hit": false,
      "t": 100434.64200000059,
      "d": 163.04325000000244,
      "v": 127
    },
    {
      "midi": 84,
      "hit": false,
      "t": 100597.68525000059,
      "d": 163.04325000000244,
      "v": 127
    },
    {
      "midi": 64,
      "hit": false,
      "t": 100760.72850000032,
      "d": 326.0865000000049,
      "v": 127
    },
    {
      "midi": 79,
      "hit": false,
      "t": 100760.7285000006,
      "d": 163.04325000000244,
      "v": 127
    },
    {
      "midi": 84,
      "hit": false,
      "t": 100923.7717500006,
      "d": 163.04325000000244,
      "v": 127
    },
    {
      "midi": 62,
      "hit": false,
      "t": 101086.81500000032,
      "d": 326.0865000000049,
      "v": 127
    },
    {
      "midi": 77,
      "hit": false,
      "t": 101086.8150000006,
      "d": 163.04325000000244,
      "v": 127
    },
    {
      "midi": 84,
      "hit": false,
      "t": 101249.8582500006,
      "d": 163.04325000000244,
      "v": 127
    },
    {
      "midi": 60,
      "hit": false,
      "t": 101412.90150000033,
      "d": 326.0865000000049,
      "v": 127
    },
    {
      "midi": 76,
      "hit": false,
      "t": 101412.9015000006,
      "d": 163.04325000000244,
      "v": 127
    },
    {
      "midi": 84,
      "hit": false,
      "t": 101575.9447500006,
      "d": 163.04325000000244,
      "v": 127
    },
    {
      "midi": 50,
      "hit": false,
      "t": 101738.98800000033,
      "d": 652.1729999999952,
      "v": 127
    },
    {
      "midi": 77,
      "hit": false,
      "t": 101738.98800000061,
      "d": 163.04325000000244,
      "v": 127
    },
    {
      "midi": 84,
      "hit": false,
      "t": 101902.03125000061,
      "d": 163.04325000000244,
      "v": 127
    },
    {
      "midi": 83,
      "hit": false,
      "t": 102065.07450000061,
      "d": 163.04325000000244,
      "v": 127
    },
    {
      "midi": 84,
      "hit": false,
      "t": 102228.11775000062,
      "d": 163.04325000000244,
      "v": 127
    },
    {
      "midi": 62,
      "hit": false,
      "t": 102391.16100000033,
      "d": 652.1729999999952,
      "v": 127
    },
    {
      "midi": 77,
      "hit": false,
      "t": 102391.16100000062,
      "d": 163.04325000000244,
      "v": 127
    },
    {
      "midi": 84,
      "hit": false,
      "t": 102554.20425000062,
      "d": 163.04325000000244,
      "v": 127
    },
    {
      "midi": 83,
      "hit": false,
      "t": 102717.24750000062,
      "d": 163.04325000000244,
      "v": 127
    },
    {
      "midi": 84,
      "hit": false,
      "t": 102880.29075000063,
      "d": 163.04325000000244,
      "v": 127
    },
    {
      "midi": 50,
      "hit": false,
      "t": 103043.33400000032,
      "d": 652.1729999999952,
      "v": 127
    },
    {
      "midi": 77,
      "hit": false,
      "t": 103043.33400000063,
      "d": 163.04325000000244,
      "v": 127
    },
    {
      "midi": 84,
      "hit": false,
      "t": 103206.37725000063,
      "d": 163.04325000000244,
      "v": 127
    },
    {
      "midi": 83,
      "hit": false,
      "t": 103369.42050000063,
      "d": 163.04325000000244,
      "v": 127
    },
    {
      "midi": 84,
      "hit": false,
      "t": 103532.46375000064,
      "d": 163.04325000000244,
      "v": 127
    },
    {
      "midi": 55,
      "hit": false,
      "t": 103695.50700000032,
      "d": 652.1729999999952,
      "v": 127
    },
    {
      "midi": 77,
      "hit": false,
      "t": 103695.50700000064,
      "d": 163.04325000000244,
      "v": 127
    },
    {
      "midi": 83,
      "hit": false,
      "t": 103858.55025000064,
      "d": 163.04325000000244,
      "v": 127
    },
    {
      "midi": 81,
      "hit": false,
      "t": 104021.59350000064,
      "d": 163.04325000000244,
      "v": 127
    },
    {
      "midi": 83,
      "hit": false,
      "t": 104184.63675000065,
      "d": 163.04325000000244,
      "v": 127
    },
    {
      "midi": 64,
      "hit": false,
      "t": 104347.68000000031,
      "d": 326.0865000000049,
      "v": 127
    },
    {
      "midi": 79,
      "hit": false,
      "t": 104347.68000000065,
      "d": 163.04325000000244,
      "v": 127
    },
    {
      "midi": 83,
      "hit": false,
      "t": 104510.72325000065,
      "d": 163.04325000000244,
      "v": 127
    },
    {
      "midi": 62,
      "hit": false,
      "t": 104673.76650000032,
      "d": 326.0865000000049,
      "v": 127
    },
    {
      "midi": 77,
      "hit": false,
      "t": 104673.76650000065,
      "d": 163.04325000000244,
      "v": 127
    },
    {
      "midi": 83,
      "hit": false,
      "t": 104836.80975000066,
      "d": 163.04325000000244,
      "v": 127
    },
    {
      "midi": 60,
      "hit": false,
      "t": 104999.85300000032,
      "d": 326.0865000000049,
      "v": 127
    },
    {
      "midi": 76,
      "hit": false,
      "t": 104999.85300000066,
      "d": 163.04325000000244,
      "v": 127
    },
    {
      "midi": 83,
      "hit": false,
      "t": 105162.89625000066,
      "d": 163.04325000000244,
      "v": 127
    },
    {
      "midi": 59,
      "hit": false,
      "t": 105325.93950000033,
      "d": 326.0865000000049,
      "v": 127
    },
    {
      "midi": 74,
      "hit": false,
      "t": 105325.93950000066,
      "d": 163.04325000000244,
      "v": 127
    },
    {
      "midi": 83,
      "hit": false,
      "t": 105488.98275000066,
      "d": 163.04325000000244,
      "v": 127
    },
    {
      "midi": 60,
      "hit": false,
      "t": 105652.02600000033,
      "d": 652.1729999999952,
      "v": 127
    },
    {
      "midi": 76,
      "hit": false,
      "t": 105652.02600000067,
      "d": 163.04325000000244,
      "v": 127
    },
    {
      "midi": 83,
      "hit": false,
      "t": 105815.06925000067,
      "d": 163.04325000000244,
      "v": 127
    },
    {
      "midi": 81,
      "hit": false,
      "t": 105978.11250000067,
      "d": 163.04325000000244,
      "v": 127
    },
    {
      "midi": 83,
      "hit": false,
      "t": 106141.15575000067,
      "d": 163.04325000000244,
      "v": 127
    },
    {
      "midi": 48,
      "hit": false,
      "t": 106304.19900000033,
      "d": 652.1729999999952,
      "v": 127
    },
    {
      "midi": 76,
      "hit": false,
      "t": 106304.19900000068,
      "d": 163.04325000000244,
      "v": 127
    },
    {
      "midi": 83,
      "hit": false,
      "t": 106467.24225000068,
      "d": 163.04325000000244,
      "v": 127
    },
    {
      "midi": 81,
      "hit": false,
      "t": 106630.28550000068,
      "d": 163.04325000000244,
      "v": 127
    },
    {
      "midi": 83,
      "hit": false,
      "t": 106793.32875000068,
      "d": 163.04325000000244,
      "v": 127
    },
    {
      "midi": 60,
      "hit": false,
      "t": 106956.37200000032,
      "d": 652.1729999999952,
      "v": 127
    },
    {
      "midi": 76,
      "hit": false,
      "t": 106956.37200000069,
      "d": 163.04325000000244,
      "v": 127
    },
    {
      "midi": 83,
      "hit": false,
      "t": 107119.41525000069,
      "d": 163.04325000000244,
      "v": 127
    },
    {
      "midi": 81,
      "hit": false,
      "t": 107282.45850000069,
      "d": 163.04325000000244,
      "v": 127
    },
    {
      "midi": 83,
      "hit": false,
      "t": 107445.5017500007,
      "d": 163.04325000000244,
      "v": 127
    },
    {
      "midi": 53,
      "hit": false,
      "t": 107608.54500000032,
      "d": 652.1729999999952,
      "v": 127
    },
    {
      "midi": 76,
      "hit": false,
      "t": 107608.5450000007,
      "d": 163.04325000000244,
      "v": 127
    },
    {
      "midi": 81,
      "hit": false,
      "t": 107771.5882500007,
      "d": 163.04325000000244,
      "v": 127
    },
    {
      "midi": 79,
      "hit": false,
      "t": 107934.6315000007,
      "d": 163.04325000000244,
      "v": 127
    },
    {
      "midi": 81,
      "hit": false,
      "t": 108097.6747500007,
      "d": 163.04325000000244,
      "v": 127
    },
    {
      "midi": 62,
      "hit": false,
      "t": 108260.71800000031,
      "d": 326.0865000000049,
      "v": 127
    },
    {
      "midi": 77,
      "hit": false,
      "t": 108260.7180000007,
      "d": 163.04325000000244,
      "v": 127
    },
    {
      "midi": 81,
      "hit": false,
      "t": 108423.76125000071,
      "d": 163.04325000000244,
      "v": 127
    },
    {
      "midi": 60,
      "hit": false,
      "t": 108586.80450000032,
      "d": 326.0865000000049,
      "v": 127
    },
    {
      "midi": 76,
      "hit": false,
      "t": 108586.80450000071,
      "d": 163.04325000000244,
      "v": 127
    },
    {
      "midi": 81,
      "hit": false,
      "t": 108749.84775000071,
      "d": 163.04325000000244,
      "v": 127
    },
    {
      "midi": 59,
      "hit": false,
      "t": 108912.89100000032,
      "d": 326.0865000000049,
      "v": 127
    },
    {
      "midi": 74,
      "hit": false,
      "t": 108912.89100000072,
      "d": 163.04325000000244,
      "v": 127
    },
    {
      "midi": 81,
      "hit": false,
      "t": 109075.93425000072,
      "d": 163.04325000000244,
      "v": 127
    },
    {
      "midi": 57,
      "hit": false,
      "t": 109238.97750000033,
      "d": 326.0865000000049,
      "v": 127
    },
    {
      "midi": 72,
      "hit": false,
      "t": 109238.97750000072,
      "d": 163.04325000000244,
      "v": 127
    },
    {
      "midi": 81,
      "hit": false,
      "t": 109402.02075000072,
      "d": 163.04325000000244,
      "v": 127
    },
    {
      "midi": 59,
      "hit": false,
      "t": 109565.06400000033,
      "d": 652.1729999999952,
      "v": 127
    },
    {
      "midi": 74,
      "hit": false,
      "t": 109565.06400000073,
      "d": 163.04325000000244,
      "v": 127
    },
    {
      "midi": 81,
      "hit": false,
      "t": 109728.10725000073,
      "d": 163.04325000000244,
      "v": 127
    },
    {
      "midi": 80,
      "hit": false,
      "t": 109891.15050000073,
      "d": 163.04325000000244,
      "v": 127
    },
    {
      "midi": 81,
      "hit": false,
      "t": 110054.19375000073,
      "d": 163.04325000000244,
      "v": 127
    },
    {
      "midi": 47,
      "hit": false,
      "t": 110217.23700000033,
      "d": 652.1729999999952,
      "v": 127
    },
    {
      "midi": 74,
      "hit": false,
      "t": 110217.23700000074,
      "d": 163.04325000000244,
      "v": 127
    },
    {
      "midi": 81,
      "hit": false,
      "t": 110380.28025000074,
      "d": 163.04325000000244,
      "v": 127
    },
    {
      "midi": 80,
      "hit": false,
      "t": 110543.32350000074,
      "d": 163.04325000000244,
      "v": 127
    },
    {
      "midi": 81,
      "hit": false,
      "t": 110706.36675000074,
      "d": 163.04325000000244,
      "v": 127
    },
    {
      "midi": 59,
      "hit": false,
      "t": 110869.41000000032,
      "d": 652.1729999999952,
      "v": 127
    },
    {
      "midi": 74,
      "hit": false,
      "t": 110869.41000000075,
      "d": 163.04325000000244,
      "v": 127
    },
    {
      "midi": 81,
      "hit": false,
      "t": 111032.45325000075,
      "d": 163.04325000000244,
      "v": 127
    },
    {
      "midi": 80,
      "hit": false,
      "t": 111195.49650000075,
      "d": 163.04325000000244,
      "v": 127
    },
    {
      "midi": 81,
      "hit": false,
      "t": 111358.53975000075,
      "d": 163.04325000000244,
      "v": 127
    },
    {
      "midi": 52,
      "hit": false,
      "t": 111521.58300000032,
      "d": 1304.346000000005,
      "v": 127
    },
    {
      "midi": 74,
      "hit": false,
      "t": 111521.58300000076,
      "d": 163.04325000000244,
      "v": 127
    },
    {
      "midi": 80,
      "hit": false,
      "t": 111684.62625000076,
      "d": 163.04325000000244,
      "v": 127
    },
    {
      "midi": 78,
      "hit": false,
      "t": 111847.66950000076,
      "d": 163.04325000000244,
      "v": 127
    },
    {
      "midi": 80,
      "hit": false,
      "t": 112010.71275000076,
      "d": 163.04325000000244,
      "v": 127
    },
    {
      "midi": 76,
      "hit": false,
      "t": 112173.75600000077,
      "d": 163.04325000000244,
      "v": 127
    },
    {
      "midi": 80,
      "hit": false,
      "t": 112336.79925000077,
      "d": 163.04325000000244,
      "v": 127
    },
    {
      "midi": 74,
      "hit": false,
      "t": 112499.84250000077,
      "d": 163.04325000000244,
      "v": 127
    },
    {
      "midi": 80,
      "hit": false,
      "t": 112662.88575000077,
      "d": 163.04325000000244,
      "v": 127
    },
    {
      "midi": 72,
      "hit": false,
      "t": 112825.92900000077,
      "d": 163.04325000000244,
      "v": 127
    },
    {
      "midi": 80,
      "hit": false,
      "t": 112988.97225000078,
      "d": 163.04325000000244,
      "v": 127
    },
    {
      "midi": 71,
      "hit": false,
      "t": 113152.01550000078,
      "d": 163.04325000000244,
      "v": 127
    },
    {
      "midi": 80,
      "hit": false,
      "t": 113315.05875000078,
      "d": 163.04325000000244,
      "v": 127
    },
    {
      "midi": 72,
      "hit": false,
      "t": 113478.10200000078,
      "d": 978.2595000000001,
      "v": 127
    },
    {
      "midi": 57,
      "hit": false,
      "t": 113641.14525000032,
      "d": 163.04325000000244,
      "v": 127
    },
    {
      "midi": 56,
      "hit": false,
      "t": 113804.18850000032,
      "d": 163.04325000000244,
      "v": 127
    },
    {
      "midi": 57,
      "hit": false,
      "t": 113967.23175000033,
      "d": 163.04325000000244,
      "v": 127
    },
    {
      "midi": 52,
      "hit": false,
      "t": 114130.27500000033,
      "d": 163.04325000000244,
      "v": 127
    },
    {
      "midi": 57,
      "hit": false,
      "t": 114293.31825000033,
      "d": 163.04325000000244,
      "v": 127
    },
    {
      "midi": 50,
      "hit": false,
      "t": 114456.36150000033,
      "d": 163.04325000000244,
      "v": 127
    },
    {
      "midi": 77,
      "hit": false,
      "t": 114456.36150000078,
      "d": 326.0865000000049,
      "v": 127
    },
    {
      "midi": 57,
      "hit": false,
      "t": 114619.40475000034,
      "d": 163.04325000000244,
      "v": 127
    },
    {
      "midi": 48,
      "hit": false,
      "t": 114782.44800000034,
      "d": 163.04325000000244,
      "v": 127
    },
    {
      "midi": 76,
      "hit": false,
      "t": 114782.44800000079,
      "d": 326.0865000000049,
      "v": 127
    },
    {
      "midi": 57,
      "hit": false,
      "t": 114945.49125000034,
      "d": 163.04325000000244,
      "v": 127
    },
    {
      "midi": 47,
      "hit": false,
      "t": 115108.53450000034,
      "d": 163.04325000000244,
      "v": 127
    },
    {
      "midi": 74,
      "hit": false,
      "t": 115108.5345000008,
      "d": 326.0865000000049,
      "v": 127
    },
    {
      "midi": 57,
      "hit": false,
      "t": 115271.57775000035,
      "d": 163.04325000000244,
      "v": 127
    },
    {
      "midi": 45,
      "hit": false,
      "t": 115434.62100000035,
      "d": 163.04325000000244,
      "v": 127
    },
    {
      "midi": 72,
      "hit": false,
      "t": 115434.6210000008,
      "d": 978.2595000000001,
      "v": 127
    },
    {
      "midi": 57,
      "hit": false,
      "t": 115597.66425000035,
      "d": 163.04325000000244,
      "v": 127
    },
    {
      "midi": 56,
      "hit": false,
      "t": 115760.70750000035,
      "d": 163.04325000000244,
      "v": 127
    },
    {
      "midi": 57,
      "hit": false,
      "t": 115923.75075000036,
      "d": 163.04325000000244,
      "v": 127
    },
    {
      "midi": 52,
      "hit": false,
      "t": 116086.79400000036,
      "d": 163.04325000000244,
      "v": 127
    },
    {
      "midi": 57,
      "hit": false,
      "t": 116249.83725000036,
      "d": 163.04325000000244,
      "v": 127
    },
    {
      "midi": 50,
      "hit": false,
      "t": 116412.88050000036,
      "d": 163.04325000000244,
      "v": 127
    },
    {
      "midi": 77,
      "hit": false,
      "t": 116412.8805000008,
      "d": 326.0865000000049,
      "v": 127
    },
    {
      "midi": 57,
      "hit": false,
      "t": 116575.92375000037,
      "d": 163.04325000000244,
      "v": 127
    },
    {
      "midi": 48,
      "hit": false,
      "t": 116738.96700000037,
      "d": 163.04325000000244,
      "v": 127
    },
    {
      "midi": 76,
      "hit": false,
      "t": 116738.9670000008,
      "d": 326.0865000000049,
      "v": 127
    },
    {
      "midi": 57,
      "hit": false,
      "t": 116902.01025000037,
      "d": 163.04325000000244,
      "v": 127
    },
    {
      "midi": 47,
      "hit": false,
      "t": 117065.05350000037,
      "d": 163.04325000000244,
      "v": 127
    },
    {
      "midi": 74,
      "hit": false,
      "t": 117065.05350000081,
      "d": 326.0865000000049,
      "v": 127
    },
    {
      "midi": 57,
      "hit": false,
      "t": 117228.09675000038,
      "d": 163.04325000000244,
      "v": 127
    },
    {
      "midi": 45,
      "hit": false,
      "t": 117391.14000000038,
      "d": 1304.346000000005,
      "v": 127
    },
    {
      "midi": 72,
      "hit": false,
      "t": 117391.14000000081,
      "d": 326.0865000000049,
      "v": 127
    },
    {
      "midi": 84,
      "hit": false,
      "t": 117717.22650000082,
      "d": 163.04325000000244,
      "v": 127
    },
    {
      "midi": 83,
      "hit": false,
      "t": 117880.26975000082,
      "d": 163.04325000000244,
      "v": 127
    },
    {
      "midi": 81,
      "hit": false,
      "t": 118043.31300000082,
      "d": 163.04325000000244,
      "v": 127
    },
    {
      "midi": 79,
      "hit": false,
      "t": 118206.35625000083,
      "d": 163.04325000000244,
      "v": 127
    },
    {
      "midi": 77,
      "hit": false,
      "t": 118369.39950000083,
      "d": 163.04325000000244,
      "v": 127
    },
    {
      "midi": 76,
      "hit": false,
      "t": 118532.44275000083,
      "d": 163.04325000000244,
      "v": 127
    },
    {
      "midi": 74,
      "hit": false,
      "t": 118695.48600000083,
      "d": 163.04325000000244,
      "v": 127
    },
    {
      "midi": 72,
      "hit": false,
      "t": 118858.52925000084,
      "d": 163.04325000000244,
      "v": 127
    },
    {
      "midi": 71,
      "hit": false,
      "t": 119021.57250000084,
      "d": 163.04325000000244,
      "v": 127
    },
    {
      "midi": 69,
      "hit": false,
      "t": 119184.61575000084,
      "d": 163.04325000000244,
      "v": 127
    },
    {
      "midi": 40,
      "hit": false,
      "t": 119347.65900000038,
      "d": 163.04325000000244,
      "v": 127
    },
    {
      "midi": 68,
      "hit": false,
      "t": 119347.65900000084,
      "d": 978.2595000000001,
      "v": 127
    },
    {
      "midi": 52,
      "hit": false,
      "t": 119510.70225000038,
      "d": 163.04325000000244,
      "v": 127
    },
    {
      "midi": 50,
      "hit": false,
      "t": 119673.74550000038,
      "d": 163.04325000000244,
      "v": 127
    },
    {
      "midi": 52,
      "hit": false,
      "t": 119836.78875000039,
      "d": 163.04325000000244,
      "v": 127
    },
    {
      "midi": 47,
      "hit": false,
      "t": 119999.83200000039,
      "d": 163.04325000000244,
      "v": 127
    },
    {
      "midi": 52,
      "hit": false,
      "t": 120162.87525000039,
      "d": 163.04325000000244,
      "v": 127
    },
    {
      "midi": 45,
      "hit": false,
      "t": 120325.91850000039,
      "d": 163.04325000000244,
      "v": 127
    },
    {
      "midi": 72,
      "hit": false,
      "t": 120325.91850000084,
      "d": 326.0865000000049,
      "v": 127
    },
    {
      "midi": 52,
      "hit": false,
      "t": 120488.9617500004,
      "d": 163.04325000000244,
      "v": 127
    },
    {
      "midi": 44,
      "hit": false,
      "t": 120652.0050000004,
      "d": 163.04325000000244,
      "v": 127
    },
    {
      "midi": 71,
      "hit": false,
      "t": 120652.00500000085,
      "d": 326.0865000000049,
      "v": 127
    },
    {
      "midi": 52,
      "hit": false,
      "t": 120815.0482500004,
      "d": 163.04325000000244,
      "v": 127
    },
    {
      "midi": 42,
      "hit": false,
      "t": 120978.0915000004,
      "d": 163.04325000000244,
      "v": 127
    },
    {
      "midi": 69,
      "hit": false,
      "t": 120978.09150000085,
      "d": 326.0865000000049,
      "v": 127
    },
    {
      "midi": 52,
      "hit": false,
      "t": 121141.1347500004,
      "d": 163.04325000000244,
      "v": 127
    },
    {
      "midi": 40,
      "hit": false,
      "t": 121304.17800000041,
      "d": 163.04325000000244,
      "v": 127
    },
    {
      "midi": 68,
      "hit": false,
      "t": 121304.17800000086,
      "d": 978.2595000000001,
      "v": 127
    },
    {
      "midi": 52,
      "hit": false,
      "t": 121467.22125000041,
      "d": 163.04325000000244,
      "v": 127
    },
    {
      "midi": 50,
      "hit": false,
      "t": 121630.26450000041,
      "d": 163.04325000000244,
      "v": 127
    },
    {
      "midi": 52,
      "hit": false,
      "t": 121793.30775000041,
      "d": 163.04325000000244,
      "v": 127
    },
    {
      "midi": 47,
      "hit": false,
      "t": 121956.35100000042,
      "d": 163.04325000000244,
      "v": 127
    },
    {
      "midi": 52,
      "hit": false,
      "t": 122119.39425000042,
      "d": 163.04325000000244,
      "v": 127
    },
    {
      "midi": 45,
      "hit": false,
      "t": 122282.43750000042,
      "d": 163.04325000000244,
      "v": 127
    },
    {
      "midi": 72,
      "hit": false,
      "t": 122282.43750000086,
      "d": 326.0865000000049,
      "v": 127
    },
    {
      "midi": 52,
      "hit": false,
      "t": 122445.48075000042,
      "d": 163.04325000000244,
      "v": 127
    },
    {
      "midi": 44,
      "hit": false,
      "t": 122608.52400000043,
      "d": 163.04325000000244,
      "v": 127
    },
    {
      "midi": 71,
      "hit": false,
      "t": 122608.52400000086,
      "d": 326.0865000000049,
      "v": 127
    },
    {
      "midi": 52,
      "hit": false,
      "t": 122771.56725000043,
      "d": 163.04325000000244,
      "v": 127
    },
    {
      "midi": 42,
      "hit": false,
      "t": 122934.61050000043,
      "d": 163.04325000000244,
      "v": 127
    },
    {
      "midi": 69,
      "hit": false,
      "t": 122934.61050000087,
      "d": 326.0865000000049,
      "v": 127
    },
    {
      "midi": 52,
      "hit": false,
      "t": 123097.65375000043,
      "d": 163.04325000000244,
      "v": 127
    },
    {
      "midi": 40,
      "hit": false,
      "t": 123260.69700000044,
      "d": 652.1729999999952,
      "v": 127
    },
    {
      "midi": 76,
      "hit": false,
      "t": 123260.69700000087,
      "d": 326.0865000000049,
      "v": 127
    },
    {
      "midi": 71,
      "hit": false,
      "t": 123586.78350000088,
      "d": 326.0865000000049,
      "v": 127
    },
    {
      "midi": 68,
      "hit": false,
      "t": 123912.87000000088,
      "d": 326.0865000000049,
      "v": 127
    },
    {
      "midi": 64,
      "hit": false,
      "t": 124238.95650000089,
      "d": 326.0865000000049,
      "v": 127
    },
    {
      "midi": 45,
      "hit": false,
      "t": 124565.04300000043,
      "d": 652.1729999999952,
      "v": 127
    },
    {
      "midi": 52,
      "hit": false,
      "t": 124565.04300000043,
      "d": 652.1729999999952,
      "v": 127
    },
    {
      "midi": 57,
      "hit": false,
      "t": 124565.0430000009,
      "d": 652.1729999999952,
      "v": 127
    },
    {
      "midi": 69,
      "hit": false,
      "t": 124565.0430000009,
      "d": 652.1729999999952,
      "v": 127
    },
    {
      "midi": 40,
      "hit": false,
      "t": 125217.21600000042,
      "d": 163.04325000000244,
      "v": 127
    },
    {
      "midi": 56,
      "hit": false,
      "t": 125217.21600000089,
      "d": 652.1729999999952,
      "v": 127
    },
    {
      "midi": 64,
      "hit": false,
      "t": 125217.21600000089,
      "d": 652.1729999999952,
      "v": 127
    },
    {
      "midi": 52,
      "hit": false,
      "t": 125380.25925000042,
      "d": 163.04325000000244,
      "v": 127
    },
    {
      "midi": 50,
      "hit": false,
      "t": 125543.30250000043,
      "d": 163.04325000000244,
      "v": 127
    },
    {
      "midi": 52,
      "hit": false,
      "t": 125706.34575000043,
      "d": 163.04325000000244,
      "v": 127
    },
    {
      "midi": 47,
      "hit": false,
      "t": 125869.38900000043,
      "d": 163.04325000000244,
      "v": 127
    },
    {
      "midi": 52,
      "hit": false,
      "t": 126032.43225000043,
      "d": 163.04325000000244,
      "v": 127
    },
    {
      "midi": 45,
      "hit": false,
      "t": 126195.47550000044,
      "d": 163.04325000000244,
      "v": 127
    },
    {
      "midi": 52,
      "hit": false,
      "t": 126358.51875000044,
      "d": 163.04325000000244,
      "v": 127
    },
    {
      "midi": 44,
      "hit": false,
      "t": 126521.56200000044,
      "d": 163.04325000000244,
      "v": 127
    },
    {
      "midi": 52,
      "hit": false,
      "t": 126684.60525000044,
      "d": 163.04325000000244,
      "v": 127
    },
    {
      "midi": 42,
      "hit": false,
      "t": 126847.64850000045,
      "d": 163.04325000000244,
      "v": 127
    },
    {
      "midi": 52,
      "hit": false,
      "t": 127010.69175000045,
      "d": 163.04325000000244,
      "v": 127
    },
    {
      "midi": 40,
      "hit": false,
      "t": 127173.73500000045,
      "d": 1304.346000000005,
      "v": 127
    },
    {
      "midi": 83,
      "hit": false,
      "t": 127336.77825000088,
      "d": 163.04325000000244,
      "v": 127
    },
    {
      "midi": 81,
      "hit": false,
      "t": 127499.82150000088,
      "d": 163.04325000000244,
      "v": 127
    },
    {
      "midi": 83,
      "hit": false,
      "t": 127662.86475000088,
      "d": 163.04325000000244,
      "v": 127
    },
    {
      "midi": 80,
      "hit": false,
      "t": 127825.90800000088,
      "d": 163.04325000000244,
      "v": 127
    },
    {
      "midi": 83,
      "hit": false,
      "t": 127988.95125000089,
      "d": 163.04325000000244,
      "v": 127
    },
    {
      "midi": 78,
      "hit": false,
      "t": 128151.99450000089,
      "d": 163.04325000000244,
      "v": 127
    },
    {
      "midi": 83,
      "hit": false,
      "t": 128315.03775000089,
      "d": 163.04325000000244,
      "v": 127
    },
    {
      "midi": 76,
      "hit": false,
      "t": 128478.0810000009,
      "d": 163.04325000000244,
      "v": 127
    },
    {
      "midi": 83,
      "hit": false,
      "t": 128641.1242500009,
      "d": 163.04325000000244,
      "v": 127
    },
    {
      "midi": 74,
      "hit": false,
      "t": 128804.1675000009,
      "d": 163.04325000000244,
      "v": 127
    },
    {
      "midi": 83,
      "hit": false,
      "t": 128967.2107500009,
      "d": 163.04325000000244,
      "v": 127
    },
    {
      "midi": 45,
      "hit": false,
      "t": 129130.25400000045,
      "d": 652.1729999999952,
      "v": 127
    },
    {
      "midi": 72,
      "hit": false,
      "t": 129130.2540000009,
      "d": 163.04325000000244,
      "v": 127
    },
    {
      "midi": 76,
      "hit": false,
      "t": 129293.2972500009,
      "d": 163.04325000000244,
      "v": 127
    },
    {
      "midi": 74,
      "hit": false,
      "t": 129456.34050000091,
      "d": 163.04325000000244,
      "v": 127
    },
    {
      "midi": 76,
      "hit": false,
      "t": 129619.38375000091,
      "d": 163.04325000000244,
      "v": 127
    },
    {
      "midi": 57,
      "hit": false,
      "t": 129782.42700000045,
      "d": 326.0865000000049,
      "v": 127
    },
    {
      "midi": 72,
      "hit": false,
      "t": 129782.42700000091,
      "d": 163.04325000000244,
      "v": 127
    },
    {
      "midi": 76,
      "hit": false,
      "t": 129945.47025000092,
      "d": 163.04325000000244,
      "v": 127
    },
    {
      "midi": 55,
      "hit": false,
      "t": 130108.51350000045,
      "d": 326.0865000000049,
      "v": 127
    },
    {
      "midi": 71,
      "hit": false,
      "t": 130108.51350000092,
      "d": 163.04325000000244,
      "v": 127
    },
    {
      "midi": 76,
      "hit": false,
      "t": 130271.55675000092,
      "d": 163.04325000000244,
      "v": 127
    },
    {
      "midi": 53,
      "hit": false,
      "t": 130434.60000000046,
      "d": 326.0865000000049,
      "v": 127
    },
    {
      "midi": 69,
      "hit": false,
      "t": 130434.60000000092,
      "d": 163.04325000000244,
      "v": 127
    },
    {
      "midi": 76,
      "hit": false,
      "t": 130597.64325000093,
      "d": 163.04325000000244,
      "v": 127
    },
    {
      "midi": 52,
      "hit": false,
      "t": 130760.68650000046,
      "d": 326.08649999999034,
      "v": 127
    },
    {
      "midi": 67,
      "hit": false,
      "t": 130760.68650000093,
      "d": 163.04325000000244,
      "v": 127
    },
    {
      "midi": 76,
      "hit": false,
      "t": 130923.72975000093,
      "d": 163.0432499999879,
      "v": 127
    },
    {
      "midi": 50,
      "hit": false,
      "t": 131086.77300000045,
      "d": 652.1730000000098,
      "v": 127
    },
    {
      "midi": 65,
      "hit": false,
      "t": 131086.77300000092,
      "d": 163.0432499999879,
      "v": 127
    },
    {
      "midi": 74,
      "hit": false,
      "t": 131249.8162500009,
      "d": 163.0432499999879,
      "v": 127
    },
    {
      "midi": 72,
      "hit": false,
      "t": 131412.8595000009,
      "d": 163.0432499999879,
      "v": 127
    },
    {
      "midi": 74,
      "hit": false,
      "t": 131575.90275000088,
      "d": 163.0432499999879,
      "v": 127
    },
    {
      "midi": 55,
      "hit": false,
      "t": 131738.94600000046,
      "d": 326.0865000000049,
      "v": 127
    },
    {
      "midi": 71,
      "hit": false,
      "t": 131738.94600000087,
      "d": 163.0432499999879,
      "v": 127
    },
    {
      "midi": 74,
      "hit": false,
      "t": 131901.98925000086,
      "d": 163.0432499999879,
      "v": 127
    },
    {
      "midi": 53,
      "hit": false,
      "t": 132065.03250000047,
      "d": 326.0865000000049,
      "v": 127
    },
    {
      "midi": 69,
      "hit": false,
      "t": 132065.03250000085,
      "d": 163.0432499999879,
      "v": 127
    },
    {
      "midi": 74,
      "hit": false,
      "t": 132228.07575000083,
      "d": 163.0432499999879,
      "v": 127
    },
    {
      "midi": 52,
      "hit": false,
      "t": 132391.11900000047,
      "d": 326.0865000000049,
      "v": 127
    },
    {
      "midi": 67,
      "hit": false,
      "t": 132391.11900000082,
      "d": 163.0432499999879,
      "v": 127
    },
    {
      "midi": 74,
      "hit": false,
      "t": 132554.1622500008,
      "d": 163.0432499999879,
      "v": 127
    },
    {
      "midi": 50,
      "hit": false,
      "t": 132717.20550000048,
      "d": 326.0865000000049,
      "v": 127
    },
    {
      "midi": 65,
      "hit": false,
      "t": 132717.2055000008,
      "d": 163.0432499999879,
      "v": 127
    },
    {
      "midi": 74,
      "hit": false,
      "t": 132880.24875000078,
      "d": 163.0432499999879,
      "v": 127
    },
    {
      "midi": 48,
      "hit": false,
      "t": 133043.29200000048,
      "d": 652.1730000000098,
      "v": 127
    },
    {
      "midi": 64,
      "hit": false,
      "t": 133043.29200000077,
      "d": 163.0432499999879,
      "v": 127
    },
    {
      "midi": 72,
      "hit": false,
      "t": 133206.33525000076,
      "d": 163.0432499999879,
      "v": 127
    },
    {
      "midi": 71,
      "hit": false,
      "t": 133369.37850000075,
      "d": 163.0432499999879,
      "v": 127
    },
    {
      "midi": 72,
      "hit": false,
      "t": 133532.42175000074,
      "d": 163.0432499999879,
      "v": 127
    },
    {
      "midi": 53,
      "hit": false,
      "t": 133695.4650000005,
      "d": 326.0865000000049,
      "v": 127
    },
    {
      "midi": 69,
      "hit": false,
      "t": 133695.46500000072,
      "d": 163.0432499999879,
      "v": 127
    },
    {
      "midi": 72,
      "hit": false,
      "t": 133858.5082500007,
      "d": 163.0432499999879,
      "v": 127
    },
    {
      "midi": 52,
      "hit": false,
      "t": 134021.5515000005,
      "d": 326.0865000000049,
      "v": 127
    },
    {
      "midi": 67,
      "hit": false,
      "t": 134021.5515000007,
      "d": 163.0432499999879,
      "v": 127
    },
    {
      "midi": 72,
      "hit": false,
      "t": 134184.5947500007,
      "d": 163.0432499999879,
      "v": 127
    },
    {
      "midi": 50,
      "hit": false,
      "t": 134347.6380000005,
      "d": 326.0865000000049,
      "v": 127
    },
    {
      "midi": 65,
      "hit": false,
      "t": 134347.63800000068,
      "d": 163.0432499999879,
      "v": 127
    },
    {
      "midi": 72,
      "hit": false,
      "t": 134510.68125000066,
      "d": 163.0432499999879,
      "v": 127
    },
    {
      "midi": 48,
      "hit": false,
      "t": 134673.7245000005,
      "d": 326.0865000000049,
      "v": 127
    },
    {
      "midi": 64,
      "hit": false,
      "t": 134673.72450000065,
      "d": 163.0432499999879,
      "v": 127
    },
    {
      "midi": 72,
      "hit": false,
      "t": 134836.76775000064,
      "d": 163.0432499999879,
      "v": 127
    },
    {
      "midi": 47,
      "hit": false,
      "t": 134999.8110000005,
      "d": 652.1730000000098,
      "v": 127
    },
    {
      "midi": 62,
      "hit": false,
      "t": 134999.81100000063,
      "d": 163.0432499999879,
      "v": 127
    },
    {
      "midi": 71,
      "hit": false,
      "t": 135162.85425000062,
      "d": 163.0432499999879,
      "v": 127
    },
    {
      "midi": 69,
      "hit": false,
      "t": 135325.8975000006,
      "d": 163.0432499999879,
      "v": 127
    },
    {
      "midi": 71,
      "hit": false,
      "t": 135488.9407500006,
      "d": 163.0432499999879,
      "v": 127
    },
    {
      "midi": 52,
      "hit": false,
      "t": 135651.98400000052,
      "d": 326.0865000000049,
      "v": 127
    },
    {
      "midi": 68,
      "hit": false,
      "t": 135651.98400000058,
      "d": 163.0432499999879,
      "v": 127
    },
    {
      "midi": 71,
      "hit": false,
      "t": 135815.02725000057,
      "d": 163.0432499999879,
      "v": 127
    },
    {
      "midi": 50,
      "hit": false,
      "t": 135978.07050000053,
      "d": 326.0865000000049,
      "v": 127
    },
    {
      "midi": 66,
      "hit": false,
      "t": 135978.07050000055,
      "d": 163.0432499999879,
      "v": 127
    },
    {
      "midi": 71,
      "hit": false,
      "t": 136141.11375000054,
      "d": 163.0432499999879,
      "v": 127
    },
    {
      "midi": 64,
      "hit": false,
      "t": 136304.15700000053,
      "d": 163.0432499999879,
      "v": 127
    },
    {
      "midi": 48,
      "hit": false,
      "t": 136304.15700000053,
      "d": 326.0865000000049,
      "v": 127
    },
    {
      "midi": 71,
      "hit": false,
      "t": 136467.20025000052,
      "d": 163.0432499999879,
      "v": 127
    },
    {
      "midi": 62,
      "hit": false,
      "t": 136630.2435000005,
      "d": 163.0432499999879,
      "v": 127
    },
    {
      "midi": 47,
      "hit": false,
      "t": 136630.24350000054,
      "d": 326.0865000000049,
      "v": 127
    },
    {
      "midi": 71,
      "hit": false,
      "t": 136793.2867500005,
      "d": 163.0432499999879,
      "v": 127
    },
    {
      "midi": 60,
      "hit": false,
      "t": 136956.33000000048,
      "d": 163.0432499999879,
      "v": 127
    },
    {
      "midi": 45,
      "hit": false,
      "t": 136956.33000000054,
      "d": 1304.3459999999905,
      "v": 127
    },
    {
      "midi": 69,
      "hit": false,
      "t": 137119.37325000047,
      "d": 163.0432499999879,
      "v": 127
    },
    {
      "midi": 68,
      "hit": false,
      "t": 137282.41650000046,
      "d": 163.0432499999879,
      "v": 127
    },
    {
      "midi": 69,
      "hit": false,
      "t": 137445.45975000045,
      "d": 163.0432499999879,
      "v": 127
    },
    {
      "midi": 64,
      "hit": false,
      "t": 137608.50300000043,
      "d": 163.0432499999879,
      "v": 127
    },
    {
      "midi": 69,
      "hit": false,
      "t": 137771.54625000042,
      "d": 163.0432499999879,
      "v": 127
    },
    {
      "midi": 68,
      "hit": false,
      "t": 137934.5895000004,
      "d": 163.0432499999879,
      "v": 127
    },
    {
      "midi": 69,
      "hit": false,
      "t": 138097.6327500004,
      "d": 163.0432499999879,
      "v": 127
    },
    {
      "midi": 60,
      "hit": false,
      "t": 138260.67600000039,
      "d": 163.0432499999879,
      "v": 127
    },
    {
      "midi": 69,
      "hit": false,
      "t": 138423.71925000037,
      "d": 163.0432499999879,
      "v": 127
    },
    {
      "midi": 68,
      "hit": false,
      "t": 138586.76250000036,
      "d": 163.0432499999879,
      "v": 127
    },
    {
      "midi": 69,
      "hit": false,
      "t": 138749.80575000035,
      "d": 163.0432499999879,
      "v": 127
    },
    {
      "midi": 59,
      "hit": false,
      "t": 138912.84900000034,
      "d": 163.0432499999879,
      "v": 127
    },
    {
      "midi": 40,
      "hit": false,
      "t": 138912.84900000054,
      "d": 1304.3459999999905,
      "v": 127
    },
    {
      "midi": 52,
      "hit": false,
      "t": 138912.84900000054,
      "d": 1304.3459999999905,
      "v": 127
    },
    {
      "midi": 69,
      "hit": false,
      "t": 139075.89225000032,
      "d": 163.0432499999879,
      "v": 127
    },
    {
      "midi": 68,
      "hit": false,
      "t": 139238.9355000003,
      "d": 163.0432499999879,
      "v": 127
    },
    {
      "midi": 69,
      "hit": false,
      "t": 139401.9787500003,
      "d": 163.0432499999879,
      "v": 127
    },
    {
      "midi": 64,
      "hit": false,
      "t": 139565.0220000003,
      "d": 163.0432499999879,
      "v": 127
    },
    {
      "midi": 69,
      "hit": false,
      "t": 139728.06525000028,
      "d": 163.0432499999879,
      "v": 127
    },
    {
      "midi": 68,
      "hit": false,
      "t": 139891.10850000026,
      "d": 163.0432499999879,
      "v": 127
    },
    {
      "midi": 69,
      "hit": false,
      "t": 140054.15175000025,
      "d": 163.0432499999879,
      "v": 127
    },
    {
      "midi": 59,
      "hit": false,
      "t": 140217.19500000024,
      "d": 163.0432499999879,
      "v": 127
    },
    {
      "midi": 40,
      "hit": false,
      "t": 140217.19500000053,
      "d": 652.1730000000098,
      "v": 127
    },
    {
      "midi": 52,
      "hit": false,
      "t": 140217.19500000053,
      "d": 652.1730000000098,
      "v": 127
    },
    {
      "midi": 68,
      "hit": false,
      "t": 140380.23825000023,
      "d": 163.0432499999879,
      "v": 127
    },
    {
      "midi": 66,
      "hit": false,
      "t": 140543.28150000022,
      "d": 163.0432499999879,
      "v": 127
    },
    {
      "midi": 68,
      "hit": false,
      "t": 140706.3247500002,
      "d": 163.0432499999879,
      "v": 127
    },
    {
      "midi": 69,
      "hit": false,
      "t": 140869.3680000002,
      "d": 652.1730000000098,
      "v": 127
    },
    {
      "midi": 45,
      "hit": false,
      "t": 140869.36800000054,
      "d": 163.0432499999879,
      "v": 127
    },
    {
      "midi": 57,
      "hit": false,
      "t": 141032.41125000053,
      "d": 163.0432499999879,
      "v": 127
    },
    {
      "midi": 56,
      "hit": false,
      "t": 141195.45450000052,
      "d": 163.0432499999879,
      "v": 127
    },
    {
      "midi": 57,
      "hit": false,
      "t": 141358.4977500005,
      "d": 163.0432499999879,
      "v": 127
    },
    {
      "midi": 52,
      "hit": false,
      "t": 141521.5410000005,
      "d": 163.0432499999879,
      "v": 127
    },
    {
      "midi": 57,
      "hit": false,
      "t": 141684.58425000048,
      "d": 163.0432499999879,
      "v": 127
    },
    {
      "midi": 50,
      "hit": false,
      "t": 141847.62750000047,
      "d": 163.0432499999879,
      "v": 127
    },
    {
      "midi": 57,
      "hit": false,
      "t": 142010.67075000046,
      "d": 163.0432499999879,
      "v": 127
    },
    {
      "midi": 48,
      "hit": false,
      "t": 142173.71400000044,
      "d": 163.0432499999879,
      "v": 127
    },
    {
      "midi": 57,
      "hit": false,
      "t": 142336.75725000043,
      "d": 163.0432499999879,
      "v": 127
    },
    {
      "midi": 47,
      "hit": false,
      "t": 142499.80050000042,
      "d": 163.0432499999879,
      "v": 127
    },
    {
      "midi": 57,
      "hit": false,
      "t": 142662.8437500004,
      "d": 163.0432499999879,
      "v": 127
    },
    {
      "midi": 45,
      "hit": false,
      "t": 142825.8870000004,
      "d": 652.1730000000098,
      "v": 127
    },
    {
      "midi": 69,
      "hit": false,
      "t": 142988.9302500002,
      "d": 163.0432499999879,
      "v": 127
    },
    {
      "midi": 68,
      "hit": false,
      "t": 143151.9735000002,
      "d": 163.0432499999879,
      "v": 127
    },
    {
      "midi": 69,
      "hit": false,
      "t": 143315.01675000018,
      "d": 163.0432499999879,
      "v": 127
    },
    {
      "midi": 64,
      "hit": false,
      "t": 143478.06000000017,
      "d": 163.0432499999879,
      "v": 127
    },
    {
      "midi": 69,
      "hit": false,
      "t": 143641.10325000016,
      "d": 163.0432499999879,
      "v": 127
    },
    {
      "midi": 62,
      "hit": false,
      "t": 143804.14650000015,
      "d": 163.0432499999879,
      "v": 127
    },
    {
      "midi": 69,
      "hit": false,
      "t": 143967.18975000014,
      "d": 163.0432499999879,
      "v": 127
    },
    {
      "midi": 60,
      "hit": false,
      "t": 144130.23300000012,
      "d": 163.0432499999879,
      "v": 127
    },
    {
      "midi": 69,
      "hit": false,
      "t": 144293.2762500001,
      "d": 163.0432499999879,
      "v": 127
    },
    {
      "midi": 59,
      "hit": false,
      "t": 144456.3195000001,
      "d": 163.0432499999879,
      "v": 127
    },
    {
      "midi": 69,
      "hit": false,
      "t": 144619.3627500001,
      "d": 163.0432499999879,
      "v": 127
    },
    {
      "midi": 57,
      "hit": false,
      "t": 144782.40600000008,
      "d": 163.0432499999879,
      "v": 127
    },
    {
      "midi": 45,
      "hit": false,
      "t": 144782.4060000004,
      "d": 652.1730000000098,
      "v": 127
    },
    {
      "midi": 69,
      "hit": false,
      "t": 144945.44925000006,
      "d": 163.0432499999879,
      "v": 127
    },
    {
      "midi": 68,
      "hit": false,
      "t": 145108.49250000005,
      "d": 163.0432499999879,
      "v": 127
    },
    {
      "midi": 69,
      "hit": false,
      "t": 145271.53575000004,
      "d": 163.0432499999879,
      "v": 127
    },
    {
      "midi": 64,
      "hit": false,
      "t": 145434.57900000003,
      "d": 163.0432499999879,
      "v": 127
    },
    {
      "midi": 69,
      "hit": false,
      "t": 145597.62225000001,
      "d": 163.0432499999879,
      "v": 127
    },
    {
      "midi": 62,
      "hit": false,
      "t": 145760.6655,
      "d": 163.0432499999879,
      "v": 127
    },
    {
      "midi": 69,
      "hit": false,
      "t": 145923.70875,
      "d": 163.0432499999879,
      "v": 127
    },
    {
      "midi": 60,
      "hit": false,
      "t": 146086.75199999998,
      "d": 163.0432499999879,
      "v": 127
    },
    {
      "midi": 69,
      "hit": false,
      "t": 146249.79524999997,
      "d": 163.0432499999879,
      "v": 127
    },
    {
      "midi": 59,
      "hit": false,
      "t": 146412.83849999995,
      "d": 163.0432499999879,
      "v": 127
    },
    {
      "midi": 69,
      "hit": false,
      "t": 146575.88174999994,
      "d": 163.0432499999879,
      "v": 127
    },
    {
      "midi": 57,
      "hit": false,
      "t": 146738.92499999993,
      "d": 652.1730000000098,
      "v": 127
    },
    {
      "midi": 45,
      "hit": false,
      "t": 146738.9250000004,
      "d": 163.0432499999879,
      "v": 127
    },
    {
      "midi": 57,
      "hit": false,
      "t": 146901.96825000038,
      "d": 163.0432499999879,
      "v": 127
    },
    {
      "midi": 56,
      "hit": false,
      "t": 147065.01150000037,
      "d": 163.0432499999879,
      "v": 127
    },
    {
      "midi": 57,
      "hit": false,
      "t": 147228.05475000036,
      "d": 163.0432499999879,
      "v": 127
    },
    {
      "midi": 52,
      "hit": false,
      "t": 147391.09800000035,
      "d": 163.0432499999879,
      "v": 127
    },
    {
      "midi": 57,
      "hit": false,
      "t": 147554.14125000034,
      "d": 163.0432499999879,
      "v": 127
    },
    {
      "midi": 65,
      "hit": false,
      "t": 147717.18449999994,
      "d": 326.0865000000049,
      "v": 127
    },
    {
      "midi": 50,
      "hit": false,
      "t": 147717.18450000032,
      "d": 163.0432499999879,
      "v": 127
    },
    {
      "midi": 57,
      "hit": false,
      "t": 147880.2277500003,
      "d": 163.0432499999879,
      "v": 127
    },
    {
      "midi": 64,
      "hit": false,
      "t": 148043.27099999995,
      "d": 326.0865000000049,
      "v": 127
    },
    {
      "midi": 48,
      "hit": false,
      "t": 148043.2710000003,
      "d": 163.0432499999879,
      "v": 127
    },
    {
      "midi": 57,
      "hit": false,
      "t": 148206.3142500003,
      "d": 163.0432499999879,
      "v": 127
    },
    {
      "midi": 62,
      "hit": false,
      "t": 148369.35749999995,
      "d": 326.0865000000049,
      "v": 127
    },
    {
      "midi": 47,
      "hit": false,
      "t": 148369.35750000027,
      "d": 163.0432499999879,
      "v": 127
    },
    {
      "midi": 57,
      "hit": false,
      "t": 148532.40075000026,
      "d": 163.0432499999879,
      "v": 127
    },
    {
      "midi": 60,
      "hit": false,
      "t": 148695.44399999996,
      "d": 978.2594999999856,
      "v": 127
    },
    {
      "midi": 45,
      "hit": false,
      "t": 148695.44400000025,
      "d": 163.0432499999879,
      "v": 127
    },
    {
      "midi": 57,
      "hit": false,
      "t": 148858.48725000024,
      "d": 163.0432499999879,
      "v": 127
    },
    {
      "midi": 56,
      "hit": false,
      "t": 149021.53050000023,
      "d": 163.0432499999879,
      "v": 127
    },
    {
      "midi": 57,
      "hit": false,
      "t": 149184.5737500002,
      "d": 163.0432499999879,
      "v": 127
    },
    {
      "midi": 52,
      "hit": false,
      "t": 149347.6170000002,
      "d": 163.0432499999879,
      "v": 127
    },
    {
      "midi": 57,
      "hit": false,
      "t": 149510.6602500002,
      "d": 163.0432499999879,
      "v": 127
    },
    {
      "midi": 65,
      "hit": false,
      "t": 149673.70349999995,
      "d": 326.0865000000049,
      "v": 127
    },
    {
      "midi": 50,
      "hit": false,
      "t": 149673.70350000018,
      "d": 163.0432499999879,
      "v": 127
    },
    {
      "midi": 57,
      "hit": false,
      "t": 149836.74675000017,
      "d": 163.0432499999879,
      "v": 127
    },
    {
      "midi": 64,
      "hit": false,
      "t": 149999.78999999995,
      "d": 326.0865000000049,
      "v": 127
    },
    {
      "midi": 48,
      "hit": false,
      "t": 149999.79000000015,
      "d": 163.0432499999879,
      "v": 127
    },
    {
      "midi": 57,
      "hit": false,
      "t": 150162.83325000014,
      "d": 163.0432499999879,
      "v": 127
    },
    {
      "midi": 62,
      "hit": false,
      "t": 150325.87649999995,
      "d": 326.0865000000049,
      "v": 127
    },
    {
      "midi": 47,
      "hit": false,
      "t": 150325.87650000013,
      "d": 163.0432499999879,
      "v": 127
    },
    {
      "midi": 57,
      "hit": false,
      "t": 150488.91975000012,
      "d": 163.0432499999879,
      "v": 127
    },
    {
      "midi": 60,
      "hit": false,
      "t": 150651.96299999996,
      "d": 652.1730000000098,
      "v": 127
    },
    {
      "midi": 45,
      "hit": false,
      "t": 150651.9630000001,
      "d": 326.0865000000049,
      "v": 127
    },
    {
      "midi": 40,
      "hit": false,
      "t": 150978.0495000001,
      "d": 326.0865000000049,
      "v": 127
    },
    {
      "midi": 52,
      "hit": false,
      "t": 150978.0495000001,
      "d": 326.0865000000049,
      "v": 127
    },
    {
      "midi": 36,
      "hit": false,
      "t": 151304.13600000012,
      "d": 326.0865000000049,
      "v": 127
    },
    {
      "midi": 48,
      "hit": false,
      "t": 151304.13600000012,
      "d": 326.0865000000049,
      "v": 127
    },
    {
      "midi": 33,
      "hit": false,
      "t": 151630.22250000012,
      "d": 326.0865000000049,
      "v": 127
    },
    {
      "midi": 45,
      "hit": false,
      "t": 151630.22250000012,
      "d": 326.0865000000049,
      "v": 127
    },
    {
      "midi": 59,
      "hit": false,
      "t": 151956.30899999998,
      "d": 652.1730000000098,
      "v": 127
    },
    {
      "midi": 64,
      "hit": false,
      "t": 151956.30899999998,
      "d": 652.1730000000098,
      "v": 127
    },
    {
      "midi": 68,
      "hit": false,
      "t": 151956.30899999998,
      "d": 652.1730000000098,
      "v": 127
    },
    {
      "midi": 40,
      "hit": false,
      "t": 151956.30900000012,
      "d": 326.0865000000049,
      "v": 127
    },
    {
      "midi": 28,
      "hit": false,
      "t": 152282.39550000013,
      "d": 326.0865000000049,
      "v": 127
    },
    {
      "midi": 40,
      "hit": false,
      "t": 152282.39550000013,
      "d": 326.0865000000049,
      "v": 127
    },
    {
      "midi": 60,
      "hit": false,
      "t": 152608.482,
      "d": 1956.5190000000002,
      "v": 127
    },
    {
      "midi": 64,
      "hit": false,
      "t": 152608.482,
      "d": 1956.5190000000002,
      "v": 127
    },
    {
      "midi": 69,
      "hit": false,
      "t": 152608.482,
      "d": 1956.5190000000002,
      "v": 127
    },
    {
      "midi": 33,
      "hit": false,
      "t": 152608.48200000013,
      "d": 1956.5190000000002,
      "v": 127
    },
    {
      "midi": 45,
      "hit": false,
      "t": 152608.48200000013,
      "d": 1956.5190000000002,
      "v": 127
    }
  ]
}