{
  "jsonPath": "Rock/Boston Rock/Papas Fritas/lost-in-a-dream.json",
  "path": "Rock\\Boston Rock\\Papas Fritas\\Lost in a Dream.mid",
  "name": "Lost in a Dream",
  "difficulty": "Advanced",
  "bpm": 106.0023850536637,
  "notes": [
    {
      "midi": 64,
      "hit": false,
      "t": 31723.577999999994,
      "d": 2609.5085390625027,
      "v": 84
    },
    {
      "midi": 60,
      "hit": false,
      "t": 31723.577999999994,
      "d": 2659.7950078124995,
      "v": 75
    },
    {
      "midi": 69,
      "hit": false,
      "t": 34482.149999999994,
      "d": 2566.4058515625,
      "v": 80
    },
    {
      "midi": 65,
      "hit": false,
      "t": 34482.149999999994,
      "d": 2573.589632812502,
      "v": 67
    },
    {
      "midi": 60,
      "hit": false,
      "t": 34482.149999999994,
      "d": 2580.7734140625034,
      "v": 63
    },
    {
      "midi": 65,
      "hit": false,
      "t": 39999.293999999994,
      "d": 684.2551640625024,
      "v": 84
    },
    {
      "midi": 60,
      "hit": false,
      "t": 39999.293999999994,
      "d": 827.9307890625059,
      "v": 88
    },
    {
      "midi": 48,
      "hit": false,
      "t": 39999.293999999994,
      "d": 1337.9792578125125,
      "v": 80
    },
    {
      "midi": 64,
      "hit": false,
      "t": 40688.937,
      "d": 131.10400781250064,
      "v": 75
    },
    {
      "midi": 60,
      "hit": false,
      "t": 41033.7585,
      "d": 353.8012265625075,
      "v": 86
    },
    {
      "midi": 64,
      "hit": false,
      "t": 41033.7585,
      "d": 368.16878906251077,
      "v": 90
    },
    {
      "midi": 48,
      "hit": false,
      "t": 41378.58000000001,
      "d": 281.96341406250576,
      "v": 56
    },
    {
      "midi": 72,
      "hit": false,
      "t": 41723.401500000014,
      "d": 497.47685156249645,
      "v": 94
    },
    {
      "midi": 76,
      "hit": false,
      "t": 41723.401500000014,
      "d": 497.47685156249645,
      "v": 94
    },
    {
      "midi": 71,
      "hit": false,
      "t": 42240.63375000001,
      "d": 497.47685156249645,
      "v": 88
    },
    {
      "midi": 74,
      "hit": false,
      "t": 42240.63375000001,
      "d": 497.47685156249645,
      "v": 76
    },
    {
      "midi": 72,
      "hit": false,
      "t": 42757.866,
      "d": 2609.5085390625027,
      "v": 75
    },
    {
      "midi": 69,
      "hit": false,
      "t": 42757.866,
      "d": 2638.243664062502,
      "v": 72
    },
    {
      "midi": 74,
      "hit": false,
      "t": 45516.438,
      "d": 2580.773414062496,
      "v": 75
    },
    {
      "midi": 69,
      "hit": false,
      "t": 45516.438,
      "d": 2595.1409765624994,
      "v": 67
    },
    {
      "midi": 62,
      "hit": false,
      "t": 48275.01,
      "d": 2631.0598828125003,
      "v": 90
    },
    {
      "midi": 59,
      "hit": false,
      "t": 48275.01,
      "d": 2638.243664062502,
      "v": 94
    },
    {
      "midi": 67,
      "hit": false,
      "t": 48275.01,
      "d": 2645.4274453125036,
      "v": 90
    },
    {
      "midi": 60,
      "hit": false,
      "t": 51033.582,
      "d": 583.6822265625015,
      "v": 88
    },
    {
      "midi": 57,
      "hit": false,
      "t": 51033.582,
      "d": 641.1524765624999,
      "v": 92
    },
    {
      "midi": 62,
      "hit": false,
      "t": 51033.582,
      "d": 641.1524765624999,
      "v": 90
    },
    {
      "midi": 65,
      "hit": false,
      "t": 51033.582,
      "d": 641.1524765624999,
      "v": 92
    },
    {
      "midi": 64,
      "hit": false,
      "t": 51723.225,
      "d": 231.67694531250163,
      "v": 94
    },
    {
      "midi": 55,
      "hit": false,
      "t": 51723.225,
      "d": 238.86072656250326,
      "v": 78
    },
    {
      "midi": 60,
      "hit": false,
      "t": 51723.225,
      "d": 253.22828906250652,
      "v": 82
    },
    {
      "midi": 64,
      "hit": false,
      "t": 52068.046500000004,
      "d": 1589.4116015624968,
      "v": 80
    },
    {
      "midi": 55,
      "hit": false,
      "t": 52068.046500000004,
      "d": 1603.7791640625,
      "v": 69
    },
    {
      "midi": 60,
      "hit": false,
      "t": 52068.046500000004,
      "d": 1618.1467265625033,
      "v": 82
    },
    {
      "midi": 60,
      "hit": false,
      "t": 53792.15400000001,
      "d": 1014.7091015624974,
      "v": 82
    },
    {
      "midi": 65,
      "hit": false,
      "t": 53792.15400000001,
      "d": 1014.7091015624974,
      "v": 86
    },
    {
      "midi": 59,
      "hit": false,
      "t": 54826.618500000004,
      "d": 1704.352101562501,
      "v": 74
    },
    {
      "midi": 64,
      "hit": false,
      "t": 54826.618500000004,
      "d": 1704.352101562501,
      "v": 92
    },
    {
      "midi": 60,
      "hit": false,
      "t": 56550.726,
      "d": 906.952382812502,
      "v": 80
    },
    {
      "midi": 62,
      "hit": false,
      "t": 56550.726,
      "d": 935.6875078125013,
      "v": 82
    },
    {
      "midi": 57,
      "hit": false,
      "t": 56550.726,
      "d": 950.0550703125045,
      "v": 82
    },
    {
      "midi": 55,
      "hit": false,
      "t": 57585.190500000004,
      "d": 1654.065632812497,
      "v": 82
    },
    {
      "midi": 60,
      "hit": false,
      "t": 57585.190500000004,
      "d": 1668.4331953125002,
      "v": 86
    },
    {
      "midi": 60,
      "hit": false,
      "t": 59309.298,
      "d": 871.0334765624939,
      "v": 92
    },
    {
      "midi": 67,
      "hit": false,
      "t": 59309.298,
      "d": 1402.6332890624908,
      "v": 90
    },
    {
      "midi": 48,
      "hit": false,
      "t": 59998.941,
      "d": 1919.865539062499,
      "v": 92
    },
    {
      "midi": 60,
      "hit": false,
      "t": 60343.7625,
      "d": 612.4173515624934,
      "v": 65
    },
    {
      "midi": 64,
      "hit": false,
      "t": 60688.583999999995,
      "d": 526.211976562503,
      "v": 58
    },
    {
      "midi": 60,
      "hit": false,
      "t": 61033.40549999999,
      "d": 167.0229140625015,
      "v": 61
    },
    {
      "midi": 67,
      "hit": false,
      "t": 61378.227,
      "d": 440.00660156249796,
      "v": 96
    },
    {
      "midi": 64,
      "hit": false,
      "t": 61378.227,
      "d": 533.3957578124973,
      "v": 64
    },
    {
      "midi": 60,
      "hit": false,
      "t": 61378.227,
      "d": 554.9471015625022,
      "v": 74
    },
    {
      "midi": 57,
      "hit": false,
      "t": 62067.87,
      "d": 1639.698070312501,
      "v": 94
    },
    {
      "midi": 65,
      "hit": false,
      "t": 62067.87,
      "d": 2616.692320312497,
      "v": 90
    },
    {
      "midi": 60,
      "hit": false,
      "t": 63791.9775,
      "d": 461.5579453124956,
      "v": 84
    },
    {
      "midi": 57,
      "hit": false,
      "t": 64136.799,
      "d": 389.7201328125011,
      "v": 56
    },
    {
      "midi": 60,
      "hit": false,
      "t": 64481.6205,
      "d": 181.39047656250477,
      "v": 84
    },
    {
      "midi": 59,
      "hit": false,
      "t": 64826.442,
      "d": 1539.1251328125,
      "v": 98
    },
    {
      "midi": 67,
      "hit": false,
      "t": 64826.442,
      "d": 2631.0598828125003,
      "v": 100
    },
    {
      "midi": 62,
      "hit": false,
      "t": 66205.728,
      "d": 1258.9576640625019,
      "v": 68
    },
    {
      "midi": 59,
      "hit": false,
      "t": 66895.371,
      "d": 511.844414062507,
      "v": 94
    },
    {
      "midi": 60,
      "hit": false,
      "t": 67585.01400000001,
      "d": 583.6822265624942,
      "v": 98
    },
    {
      "midi": 65,
      "hit": false,
      "t": 67585.01400000001,
      "d": 633.968695312491,
      "v": 104
    },
    {
      "midi": 64,
      "hit": false,
      "t": 68274.657,
      "d": 554.9471015625022,
      "v": 92
    },
    {
      "midi": 60,
      "hit": false,
      "t": 68274.657,
      "d": 562.1308828125038,
      "v": 90
    },
    {
      "midi": 60,
      "hit": false,
      "t": 68964.30000000002,
      "d": 1014.7091015625047,
      "v": 80
    },
    {
      "midi": 64,
      "hit": false,
      "t": 68964.30000000002,
      "d": 1388.265726562502,
      "v": 94
    },
    {
      "midi": 59,
      "hit": false,
      "t": 69998.76450000002,
      "d": 253.22828906250652,
      "v": 100
    },
    {
      "midi": 57,
      "hit": false,
      "t": 70343.58600000002,
      "d": 2243.135695312507,
      "v": 104
    },
    {
      "midi": 60,
      "hit": false,
      "t": 71033.22900000002,
      "d": 1646.881851562517,
      "v": 86
    },
    {
      "midi": 64,
      "hit": false,
      "t": 71378.05050000003,
      "d": 1309.2441328125133,
      "v": 100
    },
    {
      "midi": 57,
      "hit": false,
      "t": 72757.33650000003,
      "d": 217.30938281249837,
      "v": 84
    },
    {
      "midi": 60,
      "hit": false,
      "t": 72757.33650000003,
      "d": 217.30938281249837,
      "v": 76
    },
    {
      "midi": 64,
      "hit": false,
      "t": 72757.33650000003,
      "d": 224.4931640625,
      "v": 96
    },
    {
      "midi": 57,
      "hit": false,
      "t": 73102.15800000004,
      "d": 1934.233101562495,
      "v": 106
    },
    {
      "midi": 65,
      "hit": false,
      "t": 73102.15800000004,
      "d": 1941.4168828124966,
      "v": 102
    },
    {
      "midi": 62,
      "hit": false,
      "t": 73791.80100000004,
      "d": 1244.5901015624986,
      "v": 102
    },
    {
      "midi": 57,
      "hit": false,
      "t": 75171.08700000004,
      "d": 519.0281953124941,
      "v": 86
    },
    {
      "midi": 62,
      "hit": false,
      "t": 75171.08700000004,
      "d": 526.2119765624957,
      "v": 96
    },
    {
      "midi": 65,
      "hit": false,
      "t": 75171.08700000004,
      "d": 533.3957578124973,
      "v": 96
    },
    {
      "midi": 67,
      "hit": false,
      "t": 75860.73000000004,
      "d": 2544.8545078125026,
      "v": 94
    },
    {
      "midi": 60,
      "hit": false,
      "t": 75860.73000000004,
      "d": 2552.038289062504,
      "v": 96
    },
    {
      "midi": 43,
      "hit": false,
      "t": 75860.73000000004,
      "d": 2573.589632812509,
      "v": 90
    },
    {
      "midi": 62,
      "hit": false,
      "t": 78619.30200000005,
      "d": 547.7633203125006,
      "v": 90
    },
    {
      "midi": 57,
      "hit": false,
      "t": 78619.30200000005,
      "d": 562.1308828125038,
      "v": 92
    },
    {
      "midi": 65,
      "hit": false,
      "t": 78619.30200000005,
      "d": 576.4984453125071,
      "v": 92
    },
    {
      "midi": 60,
      "hit": false,
      "t": 78619.30200000005,
      "d": 583.6822265625087,
      "v": 88
    },
    {
      "midi": 64,
      "hit": false,
      "t": 79308.94500000007,
      "d": 231.67694531250163,
      "v": 94
    },
    {
      "midi": 55,
      "hit": false,
      "t": 79308.94500000007,
      "d": 238.86072656250326,
      "v": 78
    },
    {
      "midi": 60,
      "hit": false,
      "t": 79308.94500000007,
      "d": 253.22828906250652,
      "v": 82
    },
    {
      "midi": 64,
      "hit": false,
      "t": 79653.76650000007,
      "d": 1474.471101562507,
      "v": 80
    },
    {
      "midi": 55,
      "hit": false,
      "t": 79653.76650000007,
      "d": 1488.8386640625104,
      "v": 69
    },
    {
      "midi": 60,
      "hit": false,
      "t": 79653.76650000007,
      "d": 1503.2062265625136,
      "v": 82
    },
    {
      "midi": 64,
      "hit": false,
      "t": 81377.87400000008,
      "d": 2609.5085390625027,
      "v": 84
    },
    {
      "midi": 60,
      "hit": false,
      "t": 81377.87400000008,
      "d": 2659.7950078124995,
      "v": 75
    },
    {
      "midi": 60,
      "hit": false,
      "t": 82067.51699999999,
      "d": 2063.541164062495,
      "v": 1
    },
    {
      "midi": 64,
      "hit": false,
      "t": 82067.51699999999,
      "d": 2063.541164062495,
      "v": 1
    },
    {
      "midi": 67,
      "hit": false,
      "t": 82067.51699999999,
      "d": 2063.541164062495,
      "v": 1
    },
    {
      "midi": 60,
      "hit": false,
      "t": 84136.44599999998,
      "d": 3442.8271640625026,
      "v": 1
    },
    {
      "midi": 65,
      "hit": false,
      "t": 84136.44599999998,
      "d": 3442.8271640625026,
      "v": 1
    },
    {
      "midi": 69,
      "hit": false,
      "t": 84136.44599999998,
      "d": 3442.8271640625026,
      "v": 1
    },
    {
      "midi": 69,
      "hit": false,
      "t": 84136.44600000008,
      "d": 2451.465351562496,
      "v": 80
    },
    {
      "midi": 65,
      "hit": false,
      "t": 84136.44600000008,
      "d": 2458.6491328124976,
      "v": 67
    },
    {
      "midi": 60,
      "hit": false,
      "t": 84136.44600000008,
      "d": 2465.832914062499,
      "v": 63
    },
    {
      "midi": 62,
      "hit": false,
      "t": 87584.66099999998,
      "d": 2063.541164062495,
      "v": 1
    },
    {
      "midi": 67,
      "hit": false,
      "t": 87584.66099999998,
      "d": 2063.541164062495,
      "v": 1
    },
    {
      "midi": 71,
      "hit": false,
      "t": 87584.66099999998,
      "d": 2063.541164062495,
      "v": 1
    },
    {
      "midi": 65,
      "hit": false,
      "t": 89653.58999999997,
      "d": 684.2551640625024,
      "v": 1
    },
    {
      "midi": 69,
      "hit": false,
      "t": 89653.58999999997,
      "d": 684.2551640625024,
      "v": 1
    },
    {
      "midi": 60,
      "hit": false,
      "t": 89653.58999999997,
      "d": 1029.0766640624934,
      "v": 1
    },
    {
      "midi": 65,
      "hit": false,
      "t": 89653.59000000008,
      "d": 684.2551640625024,
      "v": 84
    },
    {
      "midi": 60,
      "hit": false,
      "t": 89653.59000000008,
      "d": 827.9307890624914,
      "v": 88
    },
    {
      "midi": 48,
      "hit": false,
      "t": 89653.59000000008,
      "d": 1337.9792578124907,
      "v": 80
    },
    {
      "midi": 64,
      "hit": false,
      "t": 90343.23299999996,
      "d": 339.433664062497,
      "v": 1
    },
    {
      "midi": 67,
      "hit": false,
      "t": 90343.23299999996,
      "d": 339.433664062497,
      "v": 1
    },
    {
      "midi": 64,
      "hit": false,
      "t": 90343.23300000008,
      "d": 131.10400781249336,
      "v": 75
    },
    {
      "midi": 60,
      "hit": false,
      "t": 90688.05449999995,
      "d": 2408.3626640625007,
      "v": 1
    },
    {
      "midi": 64,
      "hit": false,
      "t": 90688.05449999995,
      "d": 2408.3626640625007,
      "v": 1
    },
    {
      "midi": 67,
      "hit": false,
      "t": 90688.05449999995,
      "d": 2408.3626640625007,
      "v": 1
    },
    {
      "midi": 60,
      "hit": false,
      "t": 90688.05450000007,
      "d": 353.80122656250023,
      "v": 86
    },
    {
      "midi": 64,
      "hit": false,
      "t": 90688.05450000007,
      "d": 368.1687890625035,
      "v": 90
    },
    {
      "midi": 48,
      "hit": false,
      "t": 91032.87600000008,
      "d": 281.9634140624985,
      "v": 56
    },
    {
      "midi": 72,
      "hit": false,
      "t": 91377.69750000008,
      "d": 497.4768515625037,
      "v": 94
    },
    {
      "midi": 76,
      "hit": false,
      "t": 91377.69750000008,
      "d": 497.4768515625037,
      "v": 94
    },
    {
      "midi": 71,
      "hit": false,
      "t": 91894.92975000008,
      "d": 497.4768515625037,
      "v": 88
    },
    {
      "midi": 74,
      "hit": false,
      "t": 91894.92975000008,
      "d": 497.4768515625037,
      "v": 76
    },
    {
      "midi": 72,
      "hit": false,
      "t": 92412.16200000008,
      "d": 2552.038289062504,
      "v": 75
    },
    {
      "midi": 69,
      "hit": false,
      "t": 92412.16200000008,
      "d": 2580.7734140625107,
      "v": 72
    },
    {
      "midi": 60,
      "hit": false,
      "t": 93101.80499999995,
      "d": 2063.541164062495,
      "v": 1
    },
    {
      "midi": 64,
      "hit": false,
      "t": 93101.80499999995,
      "d": 2063.541164062495,
      "v": 1
    },
    {
      "midi": 69,
      "hit": false,
      "t": 93101.80499999995,
      "d": 2063.541164062495,
      "v": 1
    },
    {
      "midi": 71,
      "hit": false,
      "t": 94136.26949999995,
      "d": 325.0661015624937,
      "v": 1
    },
    {
      "midi": 72,
      "hit": false,
      "t": 94481.09099999994,
      "d": 684.2551640625024,
      "v": 1
    },
    {
      "midi": 65,
      "hit": false,
      "t": 95170.73399999994,
      "d": 2753.184164062506,
      "v": 1
    },
    {
      "midi": 69,
      "hit": false,
      "t": 95170.73399999994,
      "d": 2753.184164062506,
      "v": 1
    },
    {
      "midi": 74,
      "hit": false,
      "t": 95170.73399999994,
      "d": 2753.184164062506,
      "v": 1
    },
    {
      "midi": 74,
      "hit": false,
      "t": 95170.7340000001,
      "d": 2580.773414062496,
      "v": 75
    },
    {
      "midi": 69,
      "hit": false,
      "t": 95170.7340000001,
      "d": 2595.1409765624994,
      "v": 67
    },
    {
      "midi": 62,
      "hit": false,
      "t": 97929.30599999994,
      "d": 2753.184164062506,
      "v": 1
    },
    {
      "midi": 65,
      "hit": false,
      "t": 97929.30599999994,
      "d": 2753.184164062506,
      "v": 1
    },
    {
      "midi": 62,
      "hit": false,
      "t": 97929.3060000001,
      "d": 2688.530132812506,
      "v": 90
    },
    {
      "midi": 59,
      "hit": false,
      "t": 97929.3060000001,
      "d": 2695.7139140625077,
      "v": 94
    },
    {
      "midi": 67,
      "hit": false,
      "t": 97929.3060000001,
      "d": 2702.8976953125093,
      "v": 90
    },
    {
      "midi": 57,
      "hit": false,
      "t": 100687.87799999994,
      "d": 684.2551640625024,
      "v": 1
    },
    {
      "midi": 62,
      "hit": false,
      "t": 100687.87799999994,
      "d": 684.2551640625024,
      "v": 1
    },
    {
      "midi": 65,
      "hit": false,
      "t": 100687.87799999994,
      "d": 684.2551640625024,
      "v": 1
    },
    {
      "midi": 62,
      "hit": false,
      "t": 100687.87800000011,
      "d": 547.7633203125006,
      "v": 90
    },
    {
      "midi": 57,
      "hit": false,
      "t": 100687.87800000011,
      "d": 562.1308828125038,
      "v": 92
    },
    {
      "midi": 65,
      "hit": false,
      "t": 100687.87800000011,
      "d": 576.4984453125071,
      "v": 92
    },
    {
      "midi": 60,
      "hit": false,
      "t": 100687.87800000011,
      "d": 583.6822265625087,
      "v": 88
    },
    {
      "midi": 55,
      "hit": false,
      "t": 101377.52099999994,
      "d": 3442.8271640625026,
      "v": 1
    },
    {
      "midi": 60,
      "hit": false,
      "t": 101377.52099999994,
      "d": 3442.8271640625026,
      "v": 1
    },
    {
      "midi": 64,
      "hit": false,
      "t": 101377.52099999994,
      "d": 3442.8271640625026,
      "v": 1
    },
    {
      "midi": 64,
      "hit": false,
      "t": 101377.52100000012,
      "d": 231.67694531250163,
      "v": 94
    },
    {
      "midi": 55,
      "hit": false,
      "t": 101377.52100000012,
      "d": 238.86072656250326,
      "v": 78
    },
    {
      "midi": 60,
      "hit": false,
      "t": 101377.52100000012,
      "d": 253.22828906250652,
      "v": 82
    },
    {
      "midi": 64,
      "hit": false,
      "t": 101722.34250000013,
      "d": 1244.5901015624986,
      "v": 80
    },
    {
      "midi": 55,
      "hit": false,
      "t": 101722.34250000013,
      "d": 1258.9576640625019,
      "v": 69
    },
    {
      "midi": 60,
      "hit": false,
      "t": 101722.34250000013,
      "d": 1273.3252265625051,
      "v": 82
    },
    {
      "midi": 60,
      "hit": false,
      "t": 103446.45000000013,
      "d": 1014.7091015625047,
      "v": 82
    },
    {
      "midi": 65,
      "hit": false,
      "t": 103446.45000000013,
      "d": 1014.7091015625047,
      "v": 86
    },
    {
      "midi": 59,
      "hit": false,
      "t": 104480.91450000013,
      "d": 1704.352101562501,
      "v": 74
    },
    {
      "midi": 64,
      "hit": false,
      "t": 104480.91450000013,
      "d": 1704.352101562501,
      "v": 92
    },
    {
      "midi": 60,
      "hit": false,
      "t": 106205.02200000013,
      "d": 906.9523828124948,
      "v": 80
    },
    {
      "midi": 57,
      "hit": false,
      "t": 106205.02200000013,
      "d": 1014.7091015624901,
      "v": 82
    },
    {
      "midi": 62,
      "hit": false,
      "t": 106205.02200000013,
      "d": 1014.7091015624901,
      "v": 82
    },
    {
      "midi": 55,
      "hit": false,
      "t": 107239.48650000012,
      "d": 1567.8602578124992,
      "v": 82
    },
    {
      "midi": 60,
      "hit": false,
      "t": 107239.48650000012,
      "d": 1582.2278203125024,
      "v": 86
    },
    {
      "midi": 48,
      "hit": false,
      "t": 108963.59400000011,
      "d": 2314.9735078125086,
      "v": 92
    },
    {
      "midi": 55,
      "hit": false,
      "t": 109308.41550000012,
      "d": 1654.0656328125042,
      "v": 82
    },
    {
      "midi": 64,
      "hit": false,
      "t": 109653.23700000012,
      "d": 1603.7791640624928,
      "v": 96
    },
    {
      "midi": 55,
      "hit": false,
      "t": 111377.34450000012,
      "d": 332.24988281249534,
      "v": 64
    },
    {
      "midi": 41,
      "hit": false,
      "t": 111722.16600000011,
      "d": 2393.995101562512,
      "v": 94
    },
    {
      "midi": 57,
      "hit": false,
      "t": 112066.98750000012,
      "d": 2149.7465390625002,
      "v": 84
    },
    {
      "midi": 65,
      "hit": false,
      "t": 112411.80900000012,
      "d": 1503.206226562499,
      "v": 90
    },
    {
      "midi": 65,
      "hit": false,
      "t": 114135.91650000012,
      "d": 224.4931640625,
      "v": 57
    },
    {
      "midi": 43,
      "hit": false,
      "t": 114480.73800000013,
      "d": 2185.6654453125084,
      "v": 90
    },
    {
      "midi": 59,
      "hit": false,
      "t": 114825.55950000013,
      "d": 2393.9951015624974,
      "v": 88
    },
    {
      "midi": 62,
      "hit": false,
      "t": 115170.38100000014,
      "d": 2049.173601562492,
      "v": 82
    },
    {
      "midi": 60,
      "hit": false,
      "t": 117239.31000000013,
      "d": 892.5848203124915,
      "v": 94
    },
    {
      "midi": 65,
      "hit": false,
      "t": 117239.31000000013,
      "d": 935.6875078124867,
      "v": 94
    },
    {
      "midi": 48,
      "hit": false,
      "t": 117928.95300000013,
      "d": 1366.7143828124972,
      "v": 64
    },
    {
      "midi": 60,
      "hit": false,
      "t": 118273.77450000012,
      "d": 1632.5142890624993,
      "v": 94
    },
    {
      "midi": 64,
      "hit": false,
      "t": 118273.77450000012,
      "d": 1632.5142890624993,
      "v": 96
    },
    {
      "midi": 47,
      "hit": false,
      "t": 119308.23900000012,
      "d": 612.4173515625007,
      "v": 92
    },
    {
      "midi": 64,
      "hit": false,
      "t": 119997.88200000011,
      "d": 2595.1409765624994,
      "v": 86
    },
    {
      "midi": 69,
      "hit": false,
      "t": 119997.88200000011,
      "d": 2616.6923203125043,
      "v": 86
    },
    {
      "midi": 65,
      "hit": false,
      "t": 122756.45400000011,
      "d": 2645.427445312511,
      "v": 82
    },
    {
      "midi": 69,
      "hit": false,
      "t": 123101.27550000012,
      "d": 2336.524851562499,
      "v": 72
    },
    {
      "midi": 64,
      "hit": false,
      "t": 125515.02600000011,
      "d": 2580.773414062496,
      "v": 74
    },
    {
      "midi": 67,
      "hit": false,
      "t": 125515.02600000011,
      "d": 2580.773414062496,
      "v": 88
    },
    {
      "midi": 62,
      "hit": false,
      "t": 128273.59800000011,
      "d": 605.2335703124991,
      "v": 90
    },
    {
      "midi": 57,
      "hit": false,
      "t": 128273.59800000011,
      "d": 619.6011328125023,
      "v": 92
    },
    {
      "midi": 65,
      "hit": false,
      "t": 128273.59800000011,
      "d": 633.9686953125056,
      "v": 92
    },
    {
      "midi": 60,
      "hit": false,
      "t": 128273.59800000011,
      "d": 641.1524765625072,
      "v": 88
    },
    {
      "midi": 64,
      "hit": false,
      "t": 128963.24100000013,
      "d": 231.67694531250163,
      "v": 94
    },
    {
      "midi": 55,
      "hit": false,
      "t": 128963.24100000013,
      "d": 238.86072656250326,
      "v": 78
    },
    {
      "midi": 60,
      "hit": false,
      "t": 128963.24100000013,
      "d": 253.22828906250652,
      "v": 82
    },
    {
      "midi": 64,
      "hit": false,
      "t": 129308.06250000013,
      "d": 1417.000851562494,
      "v": 80
    },
    {
      "midi": 55,
      "hit": false,
      "t": 129308.06250000013,
      "d": 1431.3684140624973,
      "v": 69
    },
    {
      "midi": 60,
      "hit": false,
      "t": 129308.06250000013,
      "d": 1445.7359765625006,
      "v": 82
    },
    {
      "midi": 64,
      "hit": false,
      "t": 131032.17000000013,
      "d": 2552.038289062504,
      "v": 84
    },
    {
      "midi": 60,
      "hit": false,
      "t": 131032.17000000013,
      "d": 2602.3247578125156,
      "v": 75
    },
    {
      "midi": 60,
      "hit": false,
      "t": 131721.81299999994,
      "d": 2063.54116406251,
      "v": 1
    },
    {
      "midi": 64,
      "hit": false,
      "t": 131721.81299999994,
      "d": 2063.54116406251,
      "v": 1
    },
    {
      "midi": 67,
      "hit": false,
      "t": 131721.81299999994,
      "d": 2063.54116406251,
      "v": 1
    },
    {
      "midi": 60,
      "hit": false,
      "t": 133790.74199999994,
      "d": 3442.8271640625026,
      "v": 1
    },
    {
      "midi": 65,
      "hit": false,
      "t": 133790.74199999994,
      "d": 3442.8271640625026,
      "v": 1
    },
    {
      "midi": 69,
      "hit": false,
      "t": 133790.74199999994,
      "d": 3442.8271640625026,
      "v": 1
    },
    {
      "midi": 69,
      "hit": false,
      "t": 133790.74200000014,
      "d": 2393.9951015624974,
      "v": 80
    },
    {
      "midi": 65,
      "hit": false,
      "t": 133790.74200000014,
      "d": 2401.178882812499,
      "v": 67
    },
    {
      "midi": 60,
      "hit": false,
      "t": 133790.74200000014,
      "d": 2408.3626640625007,
      "v": 63
    },
    {
      "midi": 62,
      "hit": false,
      "t": 137238.95699999994,
      "d": 2063.54116406251,
      "v": 1
    },
    {
      "midi": 67,
      "hit": false,
      "t": 137238.95699999994,
      "d": 2063.54116406251,
      "v": 1
    },
    {
      "midi": 71,
      "hit": false,
      "t": 137238.95699999994,
      "d": 2063.54116406251,
      "v": 1
    },
    {
      "midi": 65,
      "hit": false,
      "t": 139307.88599999994,
      "d": 684.2551640624879,
      "v": 1
    },
    {
      "midi": 69,
      "hit": false,
      "t": 139307.88599999994,
      "d": 684.2551640624879,
      "v": 1
    },
    {
      "midi": 60,
      "hit": false,
      "t": 139307.88599999994,
      "d": 1029.0766640624788,
      "v": 1
    },
    {
      "midi": 65,
      "hit": false,
      "t": 139307.88600000014,
      "d": 684.2551640624879,
      "v": 84
    },
    {
      "midi": 60,
      "hit": false,
      "t": 139307.88600000014,
      "d": 827.9307890624914,
      "v": 88
    },
    {
      "midi": 48,
      "hit": false,
      "t": 139307.88600000014,
      "d": 1337.9792578124907,
      "v": 80
    },
    {
      "midi": 64,
      "hit": false,
      "t": 139997.52899999992,
      "d": 339.433664062497,
      "v": 1
    },
    {
      "midi": 67,
      "hit": false,
      "t": 139997.52899999992,
      "d": 339.433664062497,
      "v": 1
    },
    {
      "midi": 64,
      "hit": false,
      "t": 139997.52900000013,
      "d": 131.10400781250792,
      "v": 75
    },
    {
      "midi": 60,
      "hit": false,
      "t": 140342.3504999999,
      "d": 2408.3626640625007,
      "v": 1
    },
    {
      "midi": 64,
      "hit": false,
      "t": 140342.3504999999,
      "d": 2408.3626640625007,
      "v": 1
    },
    {
      "midi": 67,
      "hit": false,
      "t": 140342.3504999999,
      "d": 2408.3626640625007,
      "v": 1
    },
    {
      "midi": 60,
      "hit": false,
      "t": 140342.35050000015,
      "d": 353.80122656250023,
      "v": 86
    },
    {
      "midi": 64,
      "hit": false,
      "t": 140342.35050000015,
      "d": 368.1687890625035,
      "v": 90
    },
    {
      "midi": 48,
      "hit": false,
      "t": 140687.17200000014,
      "d": 281.96341406251304,
      "v": 56
    },
    {
      "midi": 72,
      "hit": false,
      "t": 141031.99350000016,
      "d": 497.4768515625037,
      "v": 94
    },
    {
      "midi": 76,
      "hit": false,
      "t": 141031.99350000016,
      "d": 497.4768515625037,
      "v": 94
    },
    {
      "midi": 71,
      "hit": false,
      "t": 141549.22575000016,
      "d": 497.4768515625037,
      "v": 88
    },
    {
      "midi": 74,
      "hit": false,
      "t": 141549.22575000016,
      "d": 497.4768515625037,
      "v": 76
    },
    {
      "midi": 72,
      "hit": false,
      "t": 142066.45800000016,
      "d": 2609.508539062488,
      "v": 75
    },
    {
      "midi": 69,
      "hit": false,
      "t": 142066.45800000016,
      "d": 2638.2436640624946,
      "v": 72
    },
    {
      "midi": 60,
      "hit": false,
      "t": 142756.1009999999,
      "d": 2063.5411640624807,
      "v": 1
    },
    {
      "midi": 64,
      "hit": false,
      "t": 142756.1009999999,
      "d": 2063.5411640624807,
      "v": 1
    },
    {
      "midi": 69,
      "hit": false,
      "t": 142756.1009999999,
      "d": 2063.5411640624807,
      "v": 1
    },
    {
      "midi": 71,
      "hit": false,
      "t": 143790.5654999999,
      "d": 325.0661015624937,
      "v": 1
    },
    {
      "midi": 72,
      "hit": false,
      "t": 144135.3869999999,
      "d": 684.2551640624879,
      "v": 1
    },
    {
      "midi": 65,
      "hit": false,
      "t": 144825.02999999988,
      "d": 2753.1841640624916,
      "v": 1
    },
    {
      "midi": 69,
      "hit": false,
      "t": 144825.02999999988,
      "d": 2753.1841640624916,
      "v": 1
    },
    {
      "midi": 74,
      "hit": false,
      "t": 144825.02999999988,
      "d": 2753.1841640624916,
      "v": 1
    },
    {
      "midi": 74,
      "hit": false,
      "t": 144825.03000000014,
      "d": 2580.7734140625107,
      "v": 75
    },
    {
      "midi": 69,
      "hit": false,
      "t": 144825.03000000014,
      "d": 2595.140976562514,
      "v": 67
    },
    {
      "midi": 62,
      "hit": false,
      "t": 147583.60199999987,
      "d": 2753.1841640624916,
      "v": 1
    },
    {
      "midi": 65,
      "hit": false,
      "t": 147583.60199999987,
      "d": 2753.1841640624916,
      "v": 1
    },
    {
      "midi": 62,
      "hit": false,
      "t": 147583.60200000016,
      "d": 2602.3247578124865,
      "v": 90
    },
    {
      "midi": 59,
      "hit": false,
      "t": 147583.60200000016,
      "d": 2609.508539062488,
      "v": 94
    },
    {
      "midi": 67,
      "hit": false,
      "t": 147583.60200000016,
      "d": 2616.6923203124898,
      "v": 90
    },
    {
      "midi": 57,
      "hit": false,
      "t": 150342.17399999985,
      "d": 684.2551640624879,
      "v": 1
    },
    {
      "midi": 62,
      "hit": false,
      "t": 150342.17399999985,
      "d": 684.2551640624879,
      "v": 1
    },
    {
      "midi": 65,
      "hit": false,
      "t": 150342.17399999985,
      "d": 684.2551640624879,
      "v": 1
    },
    {
      "midi": 62,
      "hit": false,
      "t": 150342.17400000014,
      "d": 576.4984453124925,
      "v": 90
    },
    {
      "midi": 57,
      "hit": false,
      "t": 150342.17400000014,
      "d": 590.8660078124958,
      "v": 92
    },
    {
      "midi": 65,
      "hit": false,
      "t": 150342.17400000014,
      "d": 605.2335703124991,
      "v": 92
    },
    {
      "midi": 60,
      "hit": false,
      "t": 150342.17400000014,
      "d": 612.4173515625007,
      "v": 88
    },
    {
      "midi": 55,
      "hit": false,
      "t": 151031.81699999984,
      "d": 3442.8271640625026,
      "v": 1
    },
    {
      "midi": 60,
      "hit": false,
      "t": 151031.81699999984,
      "d": 3442.8271640625026,
      "v": 1
    },
    {
      "midi": 64,
      "hit": false,
      "t": 151031.81699999984,
      "d": 3442.8271640625026,
      "v": 1
    },
    {
      "midi": 64,
      "hit": false,
      "t": 151031.81700000016,
      "d": 231.67694531250163,
      "v": 94
    },
    {
      "midi": 55,
      "hit": false,
      "t": 151031.81700000016,
      "d": 238.86072656250326,
      "v": 78
    },
    {
      "midi": 60,
      "hit": false,
      "t": 151031.81700000016,
      "d": 253.22828906250652,
      "v": 82
    },
    {
      "midi": 64,
      "hit": false,
      "t": 151376.63850000018,
      "d": 1417.0008515625086,
      "v": 80
    },
    {
      "midi": 55,
      "hit": false,
      "t": 151376.63850000018,
      "d": 1431.3684140625119,
      "v": 69
    },
    {
      "midi": 60,
      "hit": false,
      "t": 151376.63850000018,
      "d": 1445.7359765625151,
      "v": 82
    },
    {
      "midi": 60,
      "hit": false,
      "t": 153100.7460000002,
      "d": 1014.7091015625047,
      "v": 82
    },
    {
      "midi": 65,
      "hit": false,
      "t": 153100.7460000002,
      "d": 1014.7091015625047,
      "v": 86
    },
    {
      "midi": 59,
      "hit": false,
      "t": 154135.2105000002,
      "d": 1589.4116015624895,
      "v": 74
    },
    {
      "midi": 64,
      "hit": false,
      "t": 154135.2105000002,
      "d": 1589.4116015624895,
      "v": 92
    },
    {
      "midi": 60,
      "hit": false,
      "t": 155859.31800000017,
      "d": 921.3199453125126,
      "v": 98
    },
    {
      "midi": 62,
      "hit": false,
      "t": 155859.31800000017,
      "d": 942.8712890625175,
      "v": 96
    },
    {
      "midi": 46,
      "hit": false,
      "t": 155859.31800000017,
      "d": 1021.8928828125063,
      "v": 104
    },
    {
      "midi": 62,
      "hit": false,
      "t": 156893.78250000018,
      "d": 964.4226328124932,
      "v": 98
    },
    {
      "midi": 64,
      "hit": false,
      "t": 156893.78250000018,
      "d": 964.4226328124932,
      "v": 104
    },
    {
      "midi": 48,
      "hit": false,
      "t": 156893.78250000018,
      "d": 978.7901953124965,
      "v": 90
    },
    {
      "midi": 62,
      "hit": false,
      "t": 157928.24700000018,
      "d": 2609.5085390625172,
      "v": 96
    },
    {
      "midi": 66,
      "hit": false,
      "t": 157928.24700000018,
      "d": 2609.5085390625172,
      "v": 100
    },
    {
      "midi": 50,
      "hit": false,
      "t": 157928.24700000018,
      "d": 2638.2436640625237,
      "v": 102
    },
    {
      "midi": 76,
      "hit": false,
      "t": 159314.71678125017,
      "d": 375.3525703125051,
      "v": 100
    },
    {
      "midi": 81,
      "hit": false,
      "t": 159314.71678125017,
      "d": 1582.227820312546,
      "v": 98
    },
    {
      "midi": 78,
      "hit": false,
      "t": 159681.08962500017,
      "d": 1194.3036328125454,
      "v": 104
    },
    {
      "midi": 74,
      "hit": false,
      "t": 160399.46775000019,
      "d": 475.92550781252794,
      "v": 102
    },
    {
      "midi": 69,
      "hit": false,
      "t": 161046.00806250022,
      "d": 253.22828906250652,
      "v": 102
    },
    {
      "midi": 64,
      "hit": false,
      "t": 161383.64578125023,
      "d": 339.433664062497,
      "v": 102
    },
    {
      "midi": 69,
      "hit": false,
      "t": 161398.01334375024,
      "d": 317.8823203124921,
      "v": 114
    },
    {
      "midi": 69,
      "hit": false,
      "t": 161750.01862500023,
      "d": 626.7849140625331,
      "v": 76
    },
    {
      "midi": 66,
      "hit": false,
      "t": 161793.12131250024,
      "d": 526.2119765625102,
      "v": 86
    },
    {
      "midi": 66,
      "hit": false,
      "t": 162446.84540625027,
      "d": 806.3794453125156,
      "v": 92
    },
    {
      "midi": 69,
      "hit": false,
      "t": 162446.84540625027,
      "d": 1496.0224453124974,
      "v": 98
    },
    {
      "midi": 57,
      "hit": false,
      "t": 163100.56950000027,
      "d": 238.86072656250326,
      "v": 106
    },
    {
      "midi": 66,
      "hit": false,
      "t": 163445.39100000027,
      "d": 346.6174453124986,
      "v": 106
    },
    {
      "midi": 62,
      "hit": false,
      "t": 163445.39100000027,
      "d": 447.1903828124923,
      "v": 110
    },
    {
      "midi": 57,
      "hit": false,
      "t": 163790.21250000026,
      "d": 296.3309765625163,
      "v": 112
    },
    {
      "midi": 57,
      "hit": false,
      "t": 164135.03399999984,
      "d": 2767.551726562495,
      "v": 1
    },
    {
      "midi": 62,
      "hit": false,
      "t": 164135.03399999984,
      "d": 5511.756164062506,
      "v": 1
    },
    {
      "midi": 62,
      "hit": false,
      "t": 164135.03400000028,
      "d": 871.0334765625012,
      "v": 92
    },
    {
      "midi": 69,
      "hit": false,
      "t": 164135.03400000028,
      "d": 1402.6332890625054,
      "v": 90
    },
    {
      "midi": 50,
      "hit": false,
      "t": 164824.6770000003,
      "d": 1919.8655390624772,
      "v": 92
    },
    {
      "midi": 62,
      "hit": false,
      "t": 165169.49850000028,
      "d": 612.4173515625007,
      "v": 65
    },
    {
      "midi": 66,
      "hit": false,
      "t": 165514.32000000027,
      "d": 526.2119765625102,
      "v": 58
    },
    {
      "midi": 62,
      "hit": false,
      "t": 165859.1415000003,
      "d": 167.02291406248696,
      "v": 61
    },
    {
      "midi": 69,
      "hit": false,
      "t": 166203.96300000028,
      "d": 440.0066015624907,
      "v": 96
    },
    {
      "midi": 66,
      "hit": false,
      "t": 166203.96300000028,
      "d": 533.3957578124828,
      "v": 64
    },
    {
      "midi": 62,
      "hit": false,
      "t": 166203.96300000028,
      "d": 554.9471015624877,
      "v": 74
    },
    {
      "midi": 67,
      "hit": false,
      "t": 166893.60599999983,
      "d": 2753.1841640625207,
      "v": 1
    },
    {
      "midi": 59,
      "hit": false,
      "t": 166893.60600000026,
      "d": 1639.698070312501,
      "v": 94
    },
    {
      "midi": 67,
      "hit": false,
      "t": 166893.60600000026,
      "d": 2616.6923203124898,
      "v": 90
    },
    {
      "midi": 62,
      "hit": false,
      "t": 168617.71350000027,
      "d": 461.5579453124956,
      "v": 84
    },
    {
      "midi": 59,
      "hit": false,
      "t": 168962.53500000027,
      "d": 389.7201328124793,
      "v": 56
    },
    {
      "midi": 62,
      "hit": false,
      "t": 169307.35650000026,
      "d": 181.39047656249022,
      "v": 84
    },
    {
      "midi": 64,
      "hit": false,
      "t": 169652.17799999984,
      "d": 2753.1841640624916,
      "v": 1
    },
    {
      "midi": 69,
      "hit": false,
      "t": 169652.17799999984,
      "d": 2767.551726562495,
      "v": 1
    },
    {
      "midi": 61,
      "hit": false,
      "t": 169652.17800000025,
      "d": 1539.1251328125072,
      "v": 98
    },
    {
      "midi": 69,
      "hit": false,
      "t": 169652.17800000025,
      "d": 2458.649132812512,
      "v": 100
    },
    {
      "midi": 64,
      "hit": false,
      "t": 171031.46400000024,
      "d": 1086.546914062521,
      "v": 68
    },
    {
      "midi": 61,
      "hit": false,
      "t": 171721.10700000025,
      "d": 339.433664062497,
      "v": 94
    },
    {
      "midi": 67,
      "hit": false,
      "t": 172410.74999999983,
      "d": 684.255164062517,
      "v": 1
    },
    {
      "midi": 71,
      "hit": false,
      "t": 172410.74999999983,
      "d": 684.255164062517,
      "v": 1
    },
    {
      "midi": 62,
      "hit": false,
      "t": 172410.75000000026,
      "d": 583.6822265624942,
      "v": 98
    },
    {
      "midi": 67,
      "hit": false,
      "t": 172410.75000000026,
      "d": 633.9686953125056,
      "v": 104
    },
    {
      "midi": 66,
      "hit": false,
      "t": 173100.39299999984,
      "d": 2063.54116406251,
      "v": 1
    },
    {
      "midi": 69,
      "hit": false,
      "t": 173100.39299999984,
      "d": 2063.54116406251,
      "v": 1
    },
    {
      "midi": 66,
      "hit": false,
      "t": 173100.39300000027,
      "d": 554.9471015624877,
      "v": 92
    },
    {
      "midi": 62,
      "hit": false,
      "t": 173100.39300000027,
      "d": 562.1308828124893,
      "v": 90
    },
    {
      "midi": 62,
      "hit": false,
      "t": 173790.03600000025,
      "d": 1014.7091015625047,
      "v": 80
    },
    {
      "midi": 66,
      "hit": false,
      "t": 173790.03600000025,
      "d": 1388.265726562502,
      "v": 94
    },
    {
      "midi": 61,
      "hit": false,
      "t": 174824.50050000026,
      "d": 325.0661015624937,
      "v": 100
    },
    {
      "midi": 62,
      "hit": false,
      "t": 175169.32199999984,
      "d": 2753.1841640624916,
      "v": 1
    },
    {
      "midi": 71,
      "hit": false,
      "t": 175169.32199999984,
      "d": 5339.345414062496,
      "v": 1
    },
    {
      "midi": 59,
      "hit": false,
      "t": 175169.32200000025,
      "d": 2243.1356953124923,
      "v": 104
    },
    {
      "midi": 62,
      "hit": false,
      "t": 175858.96500000026,
      "d": 1646.8818515624735,
      "v": 86
    },
    {
      "midi": 66,
      "hit": false,
      "t": 176203.78650000025,
      "d": 1309.2441328124842,
      "v": 100
    },
    {
      "midi": 59,
      "hit": false,
      "t": 177583.07250000024,
      "d": 274.7796328125114,
      "v": 84
    },
    {
      "midi": 62,
      "hit": false,
      "t": 177583.07250000024,
      "d": 274.7796328125114,
      "v": 76
    },
    {
      "midi": 66,
      "hit": false,
      "t": 177583.07250000024,
      "d": 281.96341406251304,
      "v": 96
    },
    {
      "midi": 67,
      "hit": false,
      "t": 177927.89399999983,
      "d": 2580.7734140625107,
      "v": 1
    },
    {
      "midi": 59,
      "hit": false,
      "t": 177927.89400000026,
      "d": 1934.2331015625095,
      "v": 106
    },
    {
      "midi": 67,
      "hit": false,
      "t": 177927.89400000026,
      "d": 1941.4168828125112,
      "v": 102
    },
    {
      "midi": 64,
      "hit": false,
      "t": 178617.53700000027,
      "d": 1244.5901015624986,
      "v": 102
    },
    {
      "midi": 59,
      "hit": false,
      "t": 179996.82300000027,
      "d": 605.2335703124991,
      "v": 86
    },
    {
      "midi": 64,
      "hit": false,
      "t": 179996.82300000027,
      "d": 612.4173515625007,
      "v": 96
    },
    {
      "midi": 67,
      "hit": false,
      "t": 179996.82300000027,
      "d": 619.6011328125023,
      "v": 96
    },
    {
      "midi": 69,
      "hit": false,
      "t": 180686.46600000028,
      "d": 2631.059882812493,
      "v": 94
    },
    {
      "midi": 62,
      "hit": false,
      "t": 180686.46600000028,
      "d": 2638.2436640624946,
      "v": 96
    },
    {
      "midi": 45,
      "hit": false,
      "t": 180686.46600000028,
      "d": 2659.7950078124995,
      "v": 90
    },
    {
      "midi": 64,
      "hit": false,
      "t": 183445.03800000026,
      "d": 605.2335703124991,
      "v": 90
    },
    {
      "midi": 59,
      "hit": false,
      "t": 183445.03800000026,
      "d": 619.6011328125023,
      "v": 92
    },
    {
      "midi": 67,
      "hit": false,
      "t": 183445.03800000026,
      "d": 633.9686953125056,
      "v": 92
    },
    {
      "midi": 62,
      "hit": false,
      "t": 183445.03800000026,
      "d": 641.1524765625072,
      "v": 88
    },
    {
      "midi": 66,
      "hit": false,
      "t": 184134.68100000027,
      "d": 231.67694531250163,
      "v": 94
    },
    {
      "midi": 57,
      "hit": false,
      "t": 184134.68100000027,
      "d": 238.86072656250326,
      "v": 78
    },
    {
      "midi": 62,
      "hit": false,
      "t": 184134.68100000027,
      "d": 253.22828906250652,
      "v": 82
    },
    {
      "midi": 66,
      "hit": false,
      "t": 184479.5025000003,
      "d": 1244.5901015624986,
      "v": 80
    },
    {
      "midi": 57,
      "hit": false,
      "t": 184479.5025000003,
      "d": 1258.9576640625019,
      "v": 69
    },
    {
      "midi": 62,
      "hit": false,
      "t": 184479.5025000003,
      "d": 1273.3252265625051,
      "v": 82
    },
    {
      "midi": 66,
      "hit": false,
      "t": 186203.6100000003,
      "d": 2609.508539062488,
      "v": 84
    },
    {
      "midi": 62,
      "hit": false,
      "t": 186203.6100000003,
      "d": 2659.7950078124995,
      "v": 75
    },
    {
      "midi": 62,
      "hit": false,
      "t": 186893.25299999982,
      "d": 2063.54116406251,
      "v": 1
    },
    {
      "midi": 74,
      "hit": false,
      "t": 186893.25299999982,
      "d": 2063.54116406251,
      "v": 1
    },
    {
      "midi": 59,
      "hit": false,
      "t": 188962.18199999983,
      "d": 3442.8271640625026,
      "v": 1
    },
    {
      "midi": 71,
      "hit": false,
      "t": 188962.18199999983,
      "d": 3442.8271640625026,
      "v": 1
    },
    {
      "midi": 71,
      "hit": false,
      "t": 188962.1820000003,
      "d": 2451.4653515625105,
      "v": 80
    },
    {
      "midi": 67,
      "hit": false,
      "t": 188962.1820000003,
      "d": 2458.649132812512,
      "v": 67
    },
    {
      "midi": 62,
      "hit": false,
      "t": 188962.1820000003,
      "d": 2465.8329140625137,
      "v": 63
    },
    {
      "midi": 61,
      "hit": false,
      "t": 192410.39699999982,
      "d": 2063.54116406251,
      "v": 1
    },
    {
      "midi": 73,
      "hit": false,
      "t": 192410.39699999982,
      "d": 2063.54116406251,
      "v": 1
    },
    {
      "midi": 64,
      "hit": false,
      "t": 194479.32599999983,
      "d": 684.2551640624879,
      "v": 1
    },
    {
      "midi": 76,
      "hit": false,
      "t": 194479.32599999983,
      "d": 684.2551640624879,
      "v": 1
    },
    {
      "midi": 67,
      "hit": false,
      "t": 194479.3260000003,
      "d": 684.2551640624879,
      "v": 84
    },
    {
      "midi": 62,
      "hit": false,
      "t": 194479.3260000003,
      "d": 827.9307890624914,
      "v": 88
    },
    {
      "midi": 50,
      "hit": false,
      "t": 194479.3260000003,
      "d": 1337.9792578124907,
      "v": 80
    },
    {
      "midi": 62,
      "hit": false,
      "t": 195168.9689999998,
      "d": 2753.1841640624916,
      "v": 1
    },
    {
      "midi": 74,
      "hit": false,
      "t": 195168.9689999998,
      "d": 2753.1841640624916,
      "v": 1
    },
    {
      "midi": 66,
      "hit": false,
      "t": 195168.96900000027,
      "d": 131.10400781250792,
      "v": 75
    },
    {
      "midi": 62,
      "hit": false,
      "t": 195513.7905000003,
      "d": 353.80122656250023,
      "v": 86
    },
    {
      "midi": 66,
      "hit": false,
      "t": 195513.7905000003,
      "d": 368.1687890625035,
      "v": 90
    },
    {
      "midi": 50,
      "hit": false,
      "t": 195858.61200000028,
      "d": 281.96341406251304,
      "v": 56
    },
    {
      "midi": 74,
      "hit": false,
      "t": 196203.4335000003,
      "d": 497.4768515625037,
      "v": 94
    },
    {
      "midi": 78,
      "hit": false,
      "t": 196203.4335000003,
      "d": 497.4768515625037,
      "v": 94
    },
    {
      "midi": 73,
      "hit": false,
      "t": 196720.6657500003,
      "d": 497.4768515625037,
      "v": 88
    },
    {
      "midi": 76,
      "hit": false,
      "t": 196720.6657500003,
      "d": 497.4768515625037,
      "v": 76
    },
    {
      "midi": 74,
      "hit": false,
      "t": 197237.8980000003,
      "d": 2609.508539062488,
      "v": 75
    },
    {
      "midi": 71,
      "hit": false,
      "t": 197237.8980000003,
      "d": 2638.2436640624946,
      "v": 72
    },
    {
      "midi": 66,
      "hit": false,
      "t": 197927.5409999998,
      "d": 1029.076664062508,
      "v": 1
    },
    {
      "midi": 71,
      "hit": false,
      "t": 197927.5409999998,
      "d": 1029.076664062508,
      "v": 1
    },
    {
      "midi": 66,
      "hit": false,
      "t": 198962.0054999998,
      "d": 339.433664062497,
      "v": 1
    },
    {
      "midi": 71,
      "hit": false,
      "t": 198962.0054999998,
      "d": 339.433664062497,
      "v": 1
    },
    {
      "midi": 73,
      "hit": false,
      "t": 198962.0054999998,
      "d": 339.433664062497,
      "v": 1
    },
    {
      "midi": 66,
      "hit": false,
      "t": 199306.8269999998,
      "d": 684.2551640624879,
      "v": 1
    },
    {
      "midi": 71,
      "hit": false,
      "t": 199306.8269999998,
      "d": 684.2551640624879,
      "v": 1
    },
    {
      "midi": 74,
      "hit": false,
      "t": 199306.8269999998,
      "d": 684.2551640624879,
      "v": 1
    },
    {
      "midi": 67,
      "hit": false,
      "t": 199996.46999999977,
      "d": 684.2551640624879,
      "v": 1
    },
    {
      "midi": 71,
      "hit": false,
      "t": 199996.46999999977,
      "d": 684.2551640624879,
      "v": 1
    },
    {
      "midi": 76,
      "hit": false,
      "t": 199996.46999999977,
      "d": 684.2551640624879,
      "v": 1
    },
    {
      "midi": 76,
      "hit": false,
      "t": 199996.4700000003,
      "d": 2580.7734140625107,
      "v": 75
    },
    {
      "midi": 71,
      "hit": false,
      "t": 199996.4700000003,
      "d": 2595.140976562514,
      "v": 67
    },
    {
      "midi": 64,
      "hit": false,
      "t": 200686.11299999975,
      "d": 2063.54116406251,
      "v": 1
    },
    {
      "midi": 67,
      "hit": false,
      "t": 200686.11299999975,
      "d": 2063.54116406251,
      "v": 1
    },
    {
      "midi": 71,
      "hit": false,
      "t": 200686.11299999975,
      "d": 2063.54116406251,
      "v": 1
    },
    {
      "midi": 57,
      "hit": false,
      "t": 202755.04199999975,
      "d": 2753.1841640624916,
      "v": 1
    },
    {
      "midi": 69,
      "hit": false,
      "t": 202755.04199999975,
      "d": 2753.1841640624916,
      "v": 1
    },
    {
      "midi": 64,
      "hit": false,
      "t": 202755.0420000003,
      "d": 2688.530132812506,
      "v": 90
    },
    {
      "midi": 61,
      "hit": false,
      "t": 202755.0420000003,
      "d": 2695.7139140625077,
      "v": 94
    },
    {
      "midi": 69,
      "hit": false,
      "t": 202755.0420000003,
      "d": 2702.8976953125093,
      "v": 90
    },
    {
      "midi": 55,
      "hit": false,
      "t": 205513.61399999974,
      "d": 684.2551640624879,
      "v": 1
    },
    {
      "midi": 67,
      "hit": false,
      "t": 205513.61399999974,
      "d": 684.2551640624879,
      "v": 1
    },
    {
      "midi": 54,
      "hit": false,
      "t": 206203.25699999972,
      "d": 2408.3626640625007,
      "v": 1
    },
    {
      "midi": 66,
      "hit": false,
      "t": 206203.25699999972,
      "d": 2408.3626640625007,
      "v": 1
    },
    {
      "midi": 64,
      "hit": false,
      "t": 206928.81890625032,
      "d": 88.00132031249814,
      "v": 114
    },
    {
      "midi": 69,
      "hit": false,
      "t": 206936.00268750032,
      "d": 957.2388515624916,
      "v": 114
    },
    {
      "midi": 66,
      "hit": false,
      "t": 207029.39184375032,
      "d": 899.7686015625077,
      "v": 90
    },
    {
      "midi": 62,
      "hit": false,
      "t": 207920.18071875031,
      "d": 353.80122656252934,
      "v": 108
    },
    {
      "midi": 57,
      "hit": false,
      "t": 208272.18600000034,
      "d": 2746.000382812519,
      "v": 112
    },
    {
      "midi": 55,
      "hit": false,
      "t": 211030.75800000035,
      "d": 2645.4274453124963,
      "v": 80
    },
    {
      "midi": 59,
      "hit": false,
      "t": 211375.57950000034,
      "d": 626.784914062504,
      "v": 69
    },
    {
      "midi": 62,
      "hit": false,
      "t": 211720.40100000033,
      "d": 253.22828906250652,
      "v": 63
    },
    {
      "midi": 59,
      "hit": false,
      "t": 212065.22250000035,
      "d": 1603.7791640624928,
      "v": 74
    },
    {
      "midi": 62,
      "hit": false,
      "t": 212065.22250000035,
      "d": 1632.5142890624993,
      "v": 86
    },
    {
      "midi": 59,
      "hit": false,
      "t": 216547.90200000035,
      "d": 863.8496953124995,
      "v": 86
    },
    {
      "midi": 67,
      "hit": false,
      "t": 216547.90200000035,
      "d": 906.9523828125093,
      "v": 86
    },
    {
      "midi": 50,
      "hit": false,
      "t": 217237.54500000036,
      "d": 842.2983515624946,
      "v": 65
    },
    {
      "midi": 57,
      "hit": false,
      "t": 217582.36650000035,
      "d": 878.2172578125028,
      "v": 63
    },
    {
      "midi": 66,
      "hit": false,
      "t": 217582.36650000035,
      "d": 1733.087226562493,
      "v": 96
    },
    {
      "midi": 50,
      "hit": false,
      "t": 218272.00950000036,
      "d": 669.8876015624846,
      "v": 75
    },
    {
      "midi": 57,
      "hit": false,
      "t": 218616.83100000035,
      "d": 533.3957578124828,
      "v": 82
    },
    {
      "midi": 49,
      "hit": false,
      "t": 218961.65250000035,
      "d": 325.0661015624937,
      "v": 75
    },
    {
      "midi": 47,
      "hit": false,
      "t": 219306.47400000034,
      "d": 2681.3463515624753,
      "v": 102
    },
    {
      "midi": 59,
      "hit": false,
      "t": 220340.93850000034,
      "d": 1711.5358828124881,
      "v": 68
    },
    {
      "midi": 62,
      "hit": false,
      "t": 220685.76000000033,
      "d": 1337.9792578124907,
      "v": 72
    },
    {
      "midi": 66,
      "hit": false,
      "t": 221030.58150000032,
      "d": 993.1577578124998,
      "v": 67
    },
    {
      "midi": 62,
      "hit": false,
      "t": 222065.04600000032,
      "d": 2645.4274453124963,
      "v": 86
    },
    {
      "midi": 67,
      "hit": false,
      "t": 222065.04600000032,
      "d": 2674.162570312503,
      "v": 90
    },
    {
      "midi": 64,
      "hit": false,
      "t": 224823.61800000034,
      "d": 2602.3247578124865,
      "v": 90
    },
    {
      "midi": 61,
      "hit": false,
      "t": 224823.61800000034,
      "d": 2609.508539062488,
      "v": 94
    },
    {
      "midi": 69,
      "hit": false,
      "t": 224823.61800000034,
      "d": 2616.6923203124898,
      "v": 90
    },
    {
      "midi": 67,
      "hit": false,
      "t": 227582.19000000032,
      "d": 583.6822265624942,
      "v": 78
    },
    {
      "midi": 62,
      "hit": false,
      "t": 227582.19000000032,
      "d": 605.2335703124991,
      "v": 80
    },
    {
      "midi": 66,
      "hit": false,
      "t": 228271.83300000033,
      "d": 562.1308828124893,
      "v": 70
    },
    {
      "midi": 62,
      "hit": false,
      "t": 228271.83300000033,
      "d": 576.4984453124925,
      "v": 68
    },
    {
      "midi": 62,
      "hit": false,
      "t": 228961.47600000032,
      "d": 4103.735039062507,
      "v": 64
    },
    {
      "midi": 66,
      "hit": false,
      "t": 228961.47600000032,
      "d": 4103.735039062507,
      "v": 72
    }
  ]
}