{
  "jsonPath": "Country/Traditional Country/Charlie Louvin/where-the-roses-never-fade.json",
  "path": "Country\\Traditional Country\\Charlie Louvin\\Where The Roses Never Fade.mid",
  "name": "Where The Roses Never Fade",
  "difficulty": "Advanced",
  "bpm": 122.99996925000768,
  "notes": [
    {
      "midi": 60,
      "hit": false,
      "t": 3902.4400000000005,
      "d": 1642.2768333333343,
      "v": 74
    },
    {
      "midi": 65,
      "hit": false,
      "t": 3902.4400000000005,
      "d": 1695.1223750000008,
      "v": 76
    },
    {
      "midi": 69,
      "hit": false,
      "t": 3902.4400000000005,
      "d": 1711.3825416666677,
      "v": 81
    },
    {
      "midi": 41,
      "hit": false,
      "t": 3902.4400000000005,
      "d": 3902.4400000000014,
      "v": 60
    },
    {
      "midi": 57,
      "hit": false,
      "t": 5487.8062500000015,
      "d": 2178.8623333333335,
      "v": 90
    },
    {
      "midi": 60,
      "hit": false,
      "t": 5609.7575000000015,
      "d": 471.5448333333334,
      "v": 67
    },
    {
      "midi": 65,
      "hit": false,
      "t": 5731.708750000002,
      "d": 2056.9110833333334,
      "v": 68
    },
    {
      "midi": 69,
      "hit": false,
      "t": 5853.660000000002,
      "d": 1926.8297499999999,
      "v": 77
    },
    {
      "midi": 60,
      "hit": false,
      "t": 6585.367500000001,
      "d": 369.91879166666695,
      "v": 59
    },
    {
      "midi": 60,
      "hit": false,
      "t": 7073.1725000000015,
      "d": 260.16266666666706,
      "v": 68
    },
    {
      "midi": 77,
      "hit": false,
      "t": 7317.075000000002,
      "d": 471.5448333333334,
      "v": 88
    },
    {
      "midi": 55,
      "hit": false,
      "t": 7804.880000000002,
      "d": 1556.910958333333,
      "v": 65
    },
    {
      "midi": 58,
      "hit": false,
      "t": 7804.880000000002,
      "d": 1833.333791666667,
      "v": 71
    },
    {
      "midi": 60,
      "hit": false,
      "t": 7804.880000000002,
      "d": 2804.8787500000008,
      "v": 79
    },
    {
      "midi": 64,
      "hit": false,
      "t": 7804.880000000002,
      "d": 2813.008833333334,
      "v": 84
    },
    {
      "midi": 67,
      "hit": false,
      "t": 7804.880000000002,
      "d": 2833.334041666668,
      "v": 80
    },
    {
      "midi": 48,
      "hit": false,
      "t": 7804.880000000002,
      "d": 3902.4400000000014,
      "v": 79
    },
    {
      "midi": 55,
      "hit": false,
      "t": 9512.197500000002,
      "d": 800.813208333333,
      "v": 88
    },
    {
      "midi": 58,
      "hit": false,
      "t": 9756.100000000002,
      "d": 804.8782499999998,
      "v": 78
    },
    {
      "midi": 55,
      "hit": false,
      "t": 10487.807500000003,
      "d": 402.4391250000008,
      "v": 83
    },
    {
      "midi": 58,
      "hit": false,
      "t": 10609.758750000003,
      "d": 1097.5612500000007,
      "v": 79
    },
    {
      "midi": 60,
      "hit": false,
      "t": 10731.710000000003,
      "d": 975.6100000000006,
      "v": 94
    },
    {
      "midi": 55,
      "hit": false,
      "t": 10975.612500000003,
      "d": 731.7075000000004,
      "v": 80
    },
    {
      "midi": 64,
      "hit": false,
      "t": 11219.515000000003,
      "d": 284.55291666666744,
      "v": 81
    },
    {
      "midi": 67,
      "hit": false,
      "t": 11463.417500000003,
      "d": 243.90250000000015,
      "v": 88
    },
    {
      "midi": 55,
      "hit": false,
      "t": 11707.320000000003,
      "d": 1556.9109583333338,
      "v": 65
    },
    {
      "midi": 58,
      "hit": false,
      "t": 11707.320000000003,
      "d": 1833.3337916666678,
      "v": 71
    },
    {
      "midi": 60,
      "hit": false,
      "t": 11707.320000000003,
      "d": 2804.8787500000017,
      "v": 79
    },
    {
      "midi": 64,
      "hit": false,
      "t": 11707.320000000003,
      "d": 2813.008833333335,
      "v": 84
    },
    {
      "midi": 67,
      "hit": false,
      "t": 11707.320000000003,
      "d": 2833.334041666669,
      "v": 80
    },
    {
      "midi": 48,
      "hit": false,
      "t": 11707.320000000003,
      "d": 3902.4400000000023,
      "v": 79
    },
    {
      "midi": 55,
      "hit": false,
      "t": 13414.637500000004,
      "d": 800.813208333333,
      "v": 88
    },
    {
      "midi": 58,
      "hit": false,
      "t": 13658.540000000005,
      "d": 804.8782499999998,
      "v": 78
    },
    {
      "midi": 55,
      "hit": false,
      "t": 14390.247500000005,
      "d": 402.4391250000008,
      "v": 83
    },
    {
      "midi": 58,
      "hit": false,
      "t": 14512.198750000005,
      "d": 1097.5612500000007,
      "v": 79
    },
    {
      "midi": 60,
      "hit": false,
      "t": 14634.150000000005,
      "d": 975.6100000000006,
      "v": 94
    },
    {
      "midi": 55,
      "hit": false,
      "t": 14878.052500000005,
      "d": 731.7075000000004,
      "v": 80
    },
    {
      "midi": 64,
      "hit": false,
      "t": 15121.955000000005,
      "d": 284.55291666666744,
      "v": 81
    },
    {
      "midi": 67,
      "hit": false,
      "t": 15365.857500000006,
      "d": 243.90250000000015,
      "v": 88
    },
    {
      "midi": 57,
      "hit": false,
      "t": 15609.760000000006,
      "d": 1455.2849166666674,
      "v": 59
    },
    {
      "midi": 60,
      "hit": false,
      "t": 15609.760000000006,
      "d": 1597.5613749999975,
      "v": 78
    },
    {
      "midi": 65,
      "hit": false,
      "t": 15609.760000000006,
      "d": 1662.6020416666652,
      "v": 80
    },
    {
      "midi": 41,
      "hit": false,
      "t": 15609.760000000006,
      "d": 1951.219999999994,
      "v": 68
    },
    {
      "midi": 69,
      "hit": false,
      "t": 15609.760000000006,
      "d": 1951.219999999994,
      "v": 79
    },
    {
      "midi": 57,
      "hit": false,
      "t": 17195.126250000005,
      "d": 365.85374999999476,
      "v": 77
    },
    {
      "midi": 60,
      "hit": false,
      "t": 17317.077500000003,
      "d": 243.9024999999965,
      "v": 65
    },
    {
      "midi": 65,
      "hit": false,
      "t": 17439.02875,
      "d": 121.95124999999825,
      "v": 88
    },
    {
      "midi": 57,
      "hit": false,
      "t": 17560.98,
      "d": 1264.227958333333,
      "v": 75
    },
    {
      "midi": 60,
      "hit": false,
      "t": 17560.98,
      "d": 1341.463749999999,
      "v": 98
    },
    {
      "midi": 63,
      "hit": false,
      "t": 17560.98,
      "d": 1341.463749999999,
      "v": 74
    },
    {
      "midi": 65,
      "hit": false,
      "t": 17560.98,
      "d": 1353.6588749999974,
      "v": 79
    },
    {
      "midi": 41,
      "hit": false,
      "t": 17560.98,
      "d": 1951.219999999994,
      "v": 92
    },
    {
      "midi": 53,
      "hit": false,
      "t": 18780.4925,
      "d": 699.1871666666593,
      "v": 83
    },
    {
      "midi": 57,
      "hit": false,
      "t": 18914.638874999997,
      "d": 548.7806249999958,
      "v": 73
    },
    {
      "midi": 60,
      "hit": false,
      "t": 19024.394999999997,
      "d": 410.5692083333306,
      "v": 79
    },
    {
      "midi": 63,
      "hit": false,
      "t": 19146.346249999995,
      "d": 264.227708333332,
      "v": 78
    },
    {
      "midi": 65,
      "hit": false,
      "t": 19268.297499999993,
      "d": 166.6667083333341,
      "v": 88
    },
    {
      "midi": 65,
      "hit": false,
      "t": 19512.199999999993,
      "d": 28.45529166666529,
      "v": 86
    },
    {
      "midi": 62,
      "hit": false,
      "t": 19512.199999999993,
      "d": 1353.6588749999974,
      "v": 84
    },
    {
      "midi": 46,
      "hit": false,
      "t": 19512.199999999993,
      "d": 1951.219999999994,
      "v": 73
    },
    {
      "midi": 58,
      "hit": false,
      "t": 19512.199999999993,
      "d": 1951.219999999994,
      "v": 72
    },
    {
      "midi": 53,
      "hit": false,
      "t": 20731.71249999999,
      "d": 731.7074999999968,
      "v": 86
    },
    {
      "midi": 62,
      "hit": false,
      "t": 20975.61499999999,
      "d": 487.80499999999665,
      "v": 78
    },
    {
      "midi": 65,
      "hit": false,
      "t": 21219.51749999999,
      "d": 239.8374583333316,
      "v": 102
    },
    {
      "midi": 65,
      "hit": false,
      "t": 21463.419999999987,
      "d": 1000.000250000001,
      "v": 83
    },
    {
      "midi": 44,
      "hit": false,
      "t": 21463.419999999987,
      "d": 1951.2200000000012,
      "v": 66
    },
    {
      "midi": 56,
      "hit": false,
      "t": 21463.419999999987,
      "d": 1951.2200000000012,
      "v": 75
    },
    {
      "midi": 59,
      "hit": false,
      "t": 21463.419999999987,
      "d": 1951.2200000000012,
      "v": 63
    },
    {
      "midi": 62,
      "hit": false,
      "t": 21463.419999999987,
      "d": 1951.2200000000012,
      "v": 73
    },
    {
      "midi": 74,
      "hit": false,
      "t": 22439.029999999988,
      "d": 532.5204583333325,
      "v": 96
    },
    {
      "midi": 65,
      "hit": false,
      "t": 22926.83499999999,
      "d": 463.4147499999999,
      "v": 83
    },
    {
      "midi": 84,
      "hit": false,
      "t": 23414.63999999999,
      "d": 1813.0085833333324,
      "v": 81
    },
    {
      "midi": 41,
      "hit": false,
      "t": 23414.63999999999,
      "d": 3902.4399999999987,
      "v": 80
    },
    {
      "midi": 57,
      "hit": false,
      "t": 25243.908749999988,
      "d": 2073.1712499999994,
      "v": 74
    },
    {
      "midi": 60,
      "hit": false,
      "t": 26463.42124999999,
      "d": 451.2196249999979,
      "v": 70
    },
    {
      "midi": 65,
      "hit": false,
      "t": 26585.372499999987,
      "d": 731.7075000000004,
      "v": 77
    },
    {
      "midi": 69,
      "hit": false,
      "t": 26829.274999999987,
      "d": 487.8050000000003,
      "v": 79
    },
    {
      "midi": 60,
      "hit": false,
      "t": 27073.177499999987,
      "d": 243.90250000000015,
      "v": 66
    },
    {
      "midi": 84,
      "hit": false,
      "t": 27317.079999999987,
      "d": 1813.0085833333324,
      "v": 81
    },
    {
      "midi": 48,
      "hit": false,
      "t": 27317.079999999987,
      "d": 3902.4399999999987,
      "v": 80
    },
    {
      "midi": 58,
      "hit": false,
      "t": 29146.348749999986,
      "d": 2073.1712499999994,
      "v": 74
    },
    {
      "midi": 60,
      "hit": false,
      "t": 30365.861249999987,
      "d": 451.2196249999979,
      "v": 70
    },
    {
      "midi": 64,
      "hit": false,
      "t": 30487.812499999985,
      "d": 731.7075000000004,
      "v": 77
    },
    {
      "midi": 67,
      "hit": false,
      "t": 30731.714999999986,
      "d": 487.8050000000003,
      "v": 79
    },
    {
      "midi": 60,
      "hit": false,
      "t": 30975.617499999986,
      "d": 243.90250000000015,
      "v": 66
    },
    {
      "midi": 57,
      "hit": false,
      "t": 31219.519999999986,
      "d": 1455.2849166666674,
      "v": 59
    },
    {
      "midi": 60,
      "hit": false,
      "t": 31219.519999999986,
      "d": 1597.5613750000011,
      "v": 78
    },
    {
      "midi": 65,
      "hit": false,
      "t": 31219.519999999986,
      "d": 1662.6020416666688,
      "v": 80
    },
    {
      "midi": 41,
      "hit": false,
      "t": 31219.519999999986,
      "d": 1951.2199999999975,
      "v": 68
    },
    {
      "midi": 69,
      "hit": false,
      "t": 31219.519999999986,
      "d": 1951.2199999999975,
      "v": 79
    },
    {
      "midi": 57,
      "hit": false,
      "t": 32804.88624999999,
      "d": 365.85374999999476,
      "v": 77
    },
    {
      "midi": 60,
      "hit": false,
      "t": 32926.83749999999,
      "d": 243.9024999999965,
      "v": 65
    },
    {
      "midi": 65,
      "hit": false,
      "t": 33048.788749999985,
      "d": 121.95124999999825,
      "v": 88
    },
    {
      "midi": 63,
      "hit": false,
      "t": 33170.73999999998,
      "d": 1000.0002499999973,
      "v": 83
    },
    {
      "midi": 41,
      "hit": false,
      "t": 33170.73999999998,
      "d": 1951.219999999994,
      "v": 66
    },
    {
      "midi": 53,
      "hit": false,
      "t": 33170.73999999998,
      "d": 1951.219999999994,
      "v": 75
    },
    {
      "midi": 57,
      "hit": false,
      "t": 33170.73999999998,
      "d": 1951.219999999994,
      "v": 63
    },
    {
      "midi": 60,
      "hit": false,
      "t": 33170.73999999998,
      "d": 1951.219999999994,
      "v": 73
    },
    {
      "midi": 72,
      "hit": false,
      "t": 34146.349999999984,
      "d": 532.5204583333325,
      "v": 96
    },
    {
      "midi": 63,
      "hit": false,
      "t": 34634.154999999984,
      "d": 463.4147499999963,
      "v": 83
    },
    {
      "midi": 53,
      "hit": false,
      "t": 35121.95999999998,
      "d": 1556.9109583333338,
      "v": 65
    },
    {
      "midi": 58,
      "hit": false,
      "t": 35121.95999999998,
      "d": 1833.3337916666642,
      "v": 71
    },
    {
      "midi": 62,
      "hit": false,
      "t": 35121.95999999998,
      "d": 2804.8787500000035,
      "v": 79
    },
    {
      "midi": 65,
      "hit": false,
      "t": 35121.95999999998,
      "d": 2813.0088333333333,
      "v": 84
    },
    {
      "midi": 46,
      "hit": false,
      "t": 35121.95999999998,
      "d": 3902.4400000000023,
      "v": 79
    },
    {
      "midi": 53,
      "hit": false,
      "t": 36829.277499999975,
      "d": 800.8132083333403,
      "v": 88
    },
    {
      "midi": 58,
      "hit": false,
      "t": 37073.17999999998,
      "d": 804.8782500000016,
      "v": 78
    },
    {
      "midi": 53,
      "hit": false,
      "t": 37804.88749999998,
      "d": 402.43912499999715,
      "v": 83
    },
    {
      "midi": 58,
      "hit": false,
      "t": 37926.83874999998,
      "d": 1097.5612499999988,
      "v": 79
    },
    {
      "midi": 62,
      "hit": false,
      "t": 38048.78999999998,
      "d": 975.6100000000006,
      "v": 94
    },
    {
      "midi": 53,
      "hit": false,
      "t": 38292.69249999998,
      "d": 731.7074999999968,
      "v": 80
    },
    {
      "midi": 65,
      "hit": false,
      "t": 38536.59499999998,
      "d": 284.55291666666744,
      "v": 81
    },
    {
      "midi": 84,
      "hit": false,
      "t": 39024.39999999998,
      "d": 1813.008583333336,
      "v": 81
    },
    {
      "midi": 41,
      "hit": false,
      "t": 39024.39999999998,
      "d": 3902.439999999995,
      "v": 80
    },
    {
      "midi": 57,
      "hit": false,
      "t": 40853.66874999998,
      "d": 2073.171249999992,
      "v": 74
    },
    {
      "midi": 60,
      "hit": false,
      "t": 42073.18124999998,
      "d": 451.2196249999979,
      "v": 70
    },
    {
      "midi": 65,
      "hit": false,
      "t": 42195.13249999998,
      "d": 731.7074999999968,
      "v": 77
    },
    {
      "midi": 69,
      "hit": false,
      "t": 42439.034999999974,
      "d": 487.8050000000003,
      "v": 79
    },
    {
      "midi": 60,
      "hit": false,
      "t": 42682.93749999998,
      "d": 243.9024999999965,
      "v": 66
    },
    {
      "midi": 58,
      "hit": false,
      "t": 42926.839999999975,
      "d": 1642.2768333333297,
      "v": 74
    },
    {
      "midi": 60,
      "hit": false,
      "t": 42926.839999999975,
      "d": 1695.122374999999,
      "v": 76
    },
    {
      "midi": 64,
      "hit": false,
      "t": 42926.839999999975,
      "d": 1711.382541666666,
      "v": 81
    },
    {
      "midi": 67,
      "hit": false,
      "t": 42926.839999999975,
      "d": 1715.4475833333345,
      "v": 78
    },
    {
      "midi": 48,
      "hit": false,
      "t": 42926.839999999975,
      "d": 3902.4400000000023,
      "v": 60
    },
    {
      "midi": 55,
      "hit": false,
      "t": 44512.206249999974,
      "d": 2178.862333333338,
      "v": 90
    },
    {
      "midi": 58,
      "hit": false,
      "t": 44634.15749999997,
      "d": 471.54483333334065,
      "v": 67
    },
    {
      "midi": 60,
      "hit": false,
      "t": 44756.10874999998,
      "d": 2056.9110833333325,
      "v": 68
    },
    {
      "midi": 64,
      "hit": false,
      "t": 44878.059999999976,
      "d": 1926.8297500000044,
      "v": 77
    },
    {
      "midi": 58,
      "hit": false,
      "t": 45609.76749999998,
      "d": 369.9187916666633,
      "v": 59
    },
    {
      "midi": 67,
      "hit": false,
      "t": 45853.66999999998,
      "d": 951.2197500000038,
      "v": 102
    },
    {
      "midi": 58,
      "hit": false,
      "t": 46097.57249999998,
      "d": 260.1626666666634,
      "v": 68
    },
    {
      "midi": 72,
      "hit": false,
      "t": 46341.47499999998,
      "d": 471.5448333333334,
      "v": 88
    },
    {
      "midi": 60,
      "hit": false,
      "t": 46829.27999999998,
      "d": 1264.2279583333293,
      "v": 75
    },
    {
      "midi": 65,
      "hit": false,
      "t": 46829.27999999998,
      "d": 1341.4637499999953,
      "v": 98
    },
    {
      "midi": 69,
      "hit": false,
      "t": 46829.27999999998,
      "d": 1341.4637499999953,
      "v": 74
    },
    {
      "midi": 41,
      "hit": false,
      "t": 46829.27999999998,
      "d": 1951.2199999999866,
      "v": 92
    },
    {
      "midi": 57,
      "hit": false,
      "t": 48048.792499999974,
      "d": 699.1871666666557,
      "v": 83
    },
    {
      "midi": 60,
      "hit": false,
      "t": 48182.93887499997,
      "d": 548.7806249999921,
      "v": 73
    },
    {
      "midi": 65,
      "hit": false,
      "t": 48292.69499999997,
      "d": 410.56920833332697,
      "v": 79
    },
    {
      "midi": 69,
      "hit": false,
      "t": 48414.64624999997,
      "d": 264.227708333332,
      "v": 78
    },
    {
      "midi": 57,
      "hit": false,
      "t": 48780.49999999996,
      "d": 402.43912499999715,
      "v": 65
    },
    {
      "midi": 60,
      "hit": false,
      "t": 48780.49999999996,
      "d": 508.13020833333576,
      "v": 75
    },
    {
      "midi": 63,
      "hit": false,
      "t": 48780.49999999996,
      "d": 699.1871666666702,
      "v": 78
    },
    {
      "midi": 65,
      "hit": false,
      "t": 48780.49999999996,
      "d": 719.5123750000057,
      "v": 76
    },
    {
      "midi": 41,
      "hit": false,
      "t": 48780.49999999996,
      "d": 1918.6996666666528,
      "v": 83
    },
    {
      "midi": 53,
      "hit": false,
      "t": 49024.40249999996,
      "d": 792.6831250000032,
      "v": 77
    },
    {
      "midi": 57,
      "hit": false,
      "t": 49288.6302083333,
      "d": 894.3091666666587,
      "v": 75
    },
    {
      "midi": 60,
      "hit": false,
      "t": 49512.20749999997,
      "d": 504.06516666665993,
      "v": 61
    },
    {
      "midi": 63,
      "hit": false,
      "t": 49756.109999999964,
      "d": 337.3984583333295,
      "v": 76
    },
    {
      "midi": 53,
      "hit": false,
      "t": 50000.01249999996,
      "d": 447.15458333332936,
      "v": 72
    },
    {
      "midi": 57,
      "hit": false,
      "t": 50243.91499999996,
      "d": 276.42283333333035,
      "v": 30
    },
    {
      "midi": 63,
      "hit": false,
      "t": 50243.91499999996,
      "d": 276.42283333333035,
      "v": 65
    },
    {
      "midi": 65,
      "hit": false,
      "t": 50487.817499999954,
      "d": 150.40654166666354,
      "v": 107
    },
    {
      "midi": 58,
      "hit": false,
      "t": 50731.71999999995,
      "d": 1264.2279583333293,
      "v": 75
    },
    {
      "midi": 62,
      "hit": false,
      "t": 50731.71999999995,
      "d": 1341.4637499999953,
      "v": 98
    },
    {
      "midi": 65,
      "hit": false,
      "t": 50731.71999999995,
      "d": 1341.4637499999953,
      "v": 74
    },
    {
      "midi": 46,
      "hit": false,
      "t": 50731.71999999995,
      "d": 1951.2199999999866,
      "v": 92
    },
    {
      "midi": 53,
      "hit": false,
      "t": 51951.23249999995,
      "d": 699.1871666666557,
      "v": 83
    },
    {
      "midi": 58,
      "hit": false,
      "t": 52085.378874999944,
      "d": 548.7806249999921,
      "v": 73
    },
    {
      "midi": 62,
      "hit": false,
      "t": 52195.134999999944,
      "d": 410.56920833332697,
      "v": 79
    },
    {
      "midi": 65,
      "hit": false,
      "t": 52317.08624999994,
      "d": 264.227708333332,
      "v": 78
    },
    {
      "midi": 65,
      "hit": false,
      "t": 52682.93999999994,
      "d": 1000.0002499999973,
      "v": 83
    },
    {
      "midi": 44,
      "hit": false,
      "t": 52682.93999999994,
      "d": 1951.219999999994,
      "v": 66
    },
    {
      "midi": 56,
      "hit": false,
      "t": 52682.93999999994,
      "d": 1951.219999999994,
      "v": 75
    },
    {
      "midi": 59,
      "hit": false,
      "t": 52682.93999999994,
      "d": 1951.219999999994,
      "v": 63
    },
    {
      "midi": 62,
      "hit": false,
      "t": 52682.93999999994,
      "d": 1951.219999999994,
      "v": 73
    },
    {
      "midi": 74,
      "hit": false,
      "t": 53658.54999999994,
      "d": 532.5204583333325,
      "v": 96
    },
    {
      "midi": 65,
      "hit": false,
      "t": 54146.35499999994,
      "d": 463.4147499999963,
      "v": 83
    },
    {
      "midi": 57,
      "hit": false,
      "t": 54634.15999999993,
      "d": 1556.9109583333338,
      "v": 65
    },
    {
      "midi": 60,
      "hit": false,
      "t": 54634.15999999993,
      "d": 1833.3337916666642,
      "v": 71
    },
    {
      "midi": 65,
      "hit": false,
      "t": 54634.15999999993,
      "d": 2804.8787500000035,
      "v": 79
    },
    {
      "midi": 69,
      "hit": false,
      "t": 54634.15999999993,
      "d": 2813.0088333333333,
      "v": 84
    },
    {
      "midi": 41,
      "hit": false,
      "t": 54634.15999999993,
      "d": 3902.4400000000023,
      "v": 79
    },
    {
      "midi": 57,
      "hit": false,
      "t": 56341.47749999993,
      "d": 800.8132083333403,
      "v": 88
    },
    {
      "midi": 60,
      "hit": false,
      "t": 56585.37999999993,
      "d": 804.8782500000016,
      "v": 78
    },
    {
      "midi": 57,
      "hit": false,
      "t": 57317.087499999936,
      "d": 402.43912499999715,
      "v": 83
    },
    {
      "midi": 60,
      "hit": false,
      "t": 57439.038749999934,
      "d": 1097.5612499999988,
      "v": 79
    },
    {
      "midi": 65,
      "hit": false,
      "t": 57560.98999999993,
      "d": 975.6100000000006,
      "v": 94
    },
    {
      "midi": 57,
      "hit": false,
      "t": 57804.892499999936,
      "d": 731.7074999999968,
      "v": 80
    },
    {
      "midi": 69,
      "hit": false,
      "t": 58048.79499999993,
      "d": 284.55291666666744,
      "v": 81
    },
    {
      "midi": 55,
      "hit": false,
      "t": 58536.59999999993,
      "d": 1556.9109583333338,
      "v": 65
    },
    {
      "midi": 58,
      "hit": false,
      "t": 58536.59999999993,
      "d": 1833.3337916666642,
      "v": 71
    },
    {
      "midi": 60,
      "hit": false,
      "t": 58536.59999999993,
      "d": 2804.8787500000035,
      "v": 79
    },
    {
      "midi": 64,
      "hit": false,
      "t": 58536.59999999993,
      "d": 2813.0088333333333,
      "v": 84
    },
    {
      "midi": 67,
      "hit": false,
      "t": 58536.59999999993,
      "d": 2833.334041666669,
      "v": 80
    },
    {
      "midi": 48,
      "hit": false,
      "t": 58536.59999999993,
      "d": 3902.439999999995,
      "v": 79
    },
    {
      "midi": 55,
      "hit": false,
      "t": 60243.91749999993,
      "d": 800.8132083333403,
      "v": 88
    },
    {
      "midi": 58,
      "hit": false,
      "t": 60487.819999999934,
      "d": 804.8782500000016,
      "v": 78
    },
    {
      "midi": 55,
      "hit": false,
      "t": 61219.52749999994,
      "d": 402.43912499999715,
      "v": 83
    },
    {
      "midi": 58,
      "hit": false,
      "t": 61341.47874999994,
      "d": 1097.5612499999916,
      "v": 79
    },
    {
      "midi": 60,
      "hit": false,
      "t": 61463.429999999935,
      "d": 975.6099999999933,
      "v": 94
    },
    {
      "midi": 55,
      "hit": false,
      "t": 61707.33249999994,
      "d": 731.7074999999895,
      "v": 80
    },
    {
      "midi": 64,
      "hit": false,
      "t": 61951.234999999935,
      "d": 284.55291666666017,
      "v": 81
    },
    {
      "midi": 67,
      "hit": false,
      "t": 62195.13749999993,
      "d": 243.9024999999965,
      "v": 88
    },
    {
      "midi": 84,
      "hit": false,
      "t": 62439.03999999993,
      "d": 1813.008583333336,
      "v": 81
    },
    {
      "midi": 41,
      "hit": false,
      "t": 62439.03999999993,
      "d": 3902.439999999995,
      "v": 80
    },
    {
      "midi": 57,
      "hit": false,
      "t": 64268.30874999993,
      "d": 2073.171249999992,
      "v": 74
    },
    {
      "midi": 60,
      "hit": false,
      "t": 65487.82124999993,
      "d": 451.2196250000052,
      "v": 70
    },
    {
      "midi": 65,
      "hit": false,
      "t": 65609.77249999993,
      "d": 731.7074999999895,
      "v": 77
    },
    {
      "midi": 69,
      "hit": false,
      "t": 65853.67499999993,
      "d": 487.804999999993,
      "v": 79
    },
    {
      "midi": 60,
      "hit": false,
      "t": 66097.57749999993,
      "d": 243.9024999999965,
      "v": 66
    },
    {
      "midi": 57,
      "hit": false,
      "t": 66341.47999999992,
      "d": 1556.9109583333338,
      "v": 65
    },
    {
      "midi": 60,
      "hit": false,
      "t": 66341.47999999992,
      "d": 1833.3337916666642,
      "v": 71
    },
    {
      "midi": 65,
      "hit": false,
      "t": 66341.47999999992,
      "d": 2804.8787500000035,
      "v": 79
    },
    {
      "midi": 69,
      "hit": false,
      "t": 66341.47999999992,
      "d": 2813.0088333333406,
      "v": 84
    },
    {
      "midi": 41,
      "hit": false,
      "t": 66341.47999999992,
      "d": 3902.4400000000023,
      "v": 79
    },
    {
      "midi": 57,
      "hit": false,
      "t": 68048.79749999993,
      "d": 800.813208333333,
      "v": 88
    },
    {
      "midi": 60,
      "hit": false,
      "t": 68292.69999999992,
      "d": 804.8782500000088,
      "v": 78
    },
    {
      "midi": 57,
      "hit": false,
      "t": 69024.40749999993,
      "d": 402.4391249999899,
      "v": 83
    },
    {
      "midi": 60,
      "hit": false,
      "t": 69146.35874999993,
      "d": 1097.5612499999988,
      "v": 79
    },
    {
      "midi": 65,
      "hit": false,
      "t": 69268.30999999992,
      "d": 975.6100000000006,
      "v": 94
    },
    {
      "midi": 57,
      "hit": false,
      "t": 69512.21249999992,
      "d": 731.7075000000041,
      "v": 80
    },
    {
      "midi": 69,
      "hit": false,
      "t": 69756.11499999992,
      "d": 284.55291666666744,
      "v": 81
    },
    {
      "midi": 55,
      "hit": false,
      "t": 70243.91999999993,
      "d": 1556.9109583333338,
      "v": 65
    },
    {
      "midi": 58,
      "hit": false,
      "t": 70243.91999999993,
      "d": 1833.3337916666642,
      "v": 71
    },
    {
      "midi": 60,
      "hit": false,
      "t": 70243.91999999993,
      "d": 2804.8787500000035,
      "v": 79
    },
    {
      "midi": 64,
      "hit": false,
      "t": 70243.91999999993,
      "d": 2813.0088333333406,
      "v": 84
    },
    {
      "midi": 67,
      "hit": false,
      "t": 70243.91999999993,
      "d": 2833.334041666676,
      "v": 80
    },
    {
      "midi": 48,
      "hit": false,
      "t": 70243.91999999993,
      "d": 3902.440000000017,
      "v": 79
    },
    {
      "midi": 55,
      "hit": false,
      "t": 71951.23749999993,
      "d": 800.813208333333,
      "v": 88
    },
    {
      "midi": 58,
      "hit": false,
      "t": 72195.13999999993,
      "d": 804.8782500000088,
      "v": 78
    },
    {
      "midi": 55,
      "hit": false,
      "t": 72926.84749999993,
      "d": 402.4391250000044,
      "v": 83
    },
    {
      "midi": 58,
      "hit": false,
      "t": 73048.79874999993,
      "d": 1097.5612500000134,
      "v": 79
    },
    {
      "midi": 60,
      "hit": false,
      "t": 73170.74999999994,
      "d": 975.6100000000006,
      "v": 94
    },
    {
      "midi": 55,
      "hit": false,
      "t": 73414.65249999994,
      "d": 731.7075000000041,
      "v": 80
    },
    {
      "midi": 64,
      "hit": false,
      "t": 73658.55499999993,
      "d": 284.55291666666744,
      "v": 81
    },
    {
      "midi": 67,
      "hit": false,
      "t": 73902.45749999993,
      "d": 243.90250000001106,
      "v": 88
    },
    {
      "midi": 55,
      "hit": false,
      "t": 74146.35999999994,
      "d": 1556.9109583333338,
      "v": 65
    },
    {
      "midi": 58,
      "hit": false,
      "t": 74146.35999999994,
      "d": 1833.3337916666642,
      "v": 71
    },
    {
      "midi": 60,
      "hit": false,
      "t": 74146.35999999994,
      "d": 2804.8787500000035,
      "v": 79
    },
    {
      "midi": 64,
      "hit": false,
      "t": 74146.35999999994,
      "d": 2813.0088333333406,
      "v": 84
    },
    {
      "midi": 67,
      "hit": false,
      "t": 74146.35999999994,
      "d": 2833.334041666676,
      "v": 80
    },
    {
      "midi": 48,
      "hit": false,
      "t": 74146.35999999994,
      "d": 3902.440000000017,
      "v": 79
    },
    {
      "midi": 55,
      "hit": false,
      "t": 75853.67749999995,
      "d": 800.813208333333,
      "v": 88
    },
    {
      "midi": 58,
      "hit": false,
      "t": 76097.57999999994,
      "d": 804.8782500000088,
      "v": 78
    },
    {
      "midi": 55,
      "hit": false,
      "t": 76829.28749999995,
      "d": 402.4391250000044,
      "v": 83
    },
    {
      "midi": 58,
      "hit": false,
      "t": 76951.23874999995,
      "d": 1097.5612500000134,
      "v": 79
    },
    {
      "midi": 60,
      "hit": false,
      "t": 77073.18999999996,
      "d": 975.6100000000006,
      "v": 94
    },
    {
      "midi": 55,
      "hit": false,
      "t": 77317.09249999996,
      "d": 731.7075000000041,
      "v": 80
    },
    {
      "midi": 64,
      "hit": false,
      "t": 77560.99499999995,
      "d": 284.55291666666744,
      "v": 81
    },
    {
      "midi": 67,
      "hit": false,
      "t": 77804.89749999995,
      "d": 243.90250000001106,
      "v": 88
    },
    {
      "midi": 60,
      "hit": false,
      "t": 78048.79999999996,
      "d": 1264.2279583333293,
      "v": 75
    },
    {
      "midi": 65,
      "hit": false,
      "t": 78048.79999999996,
      "d": 1341.4637499999953,
      "v": 98
    },
    {
      "midi": 69,
      "hit": false,
      "t": 78048.79999999996,
      "d": 1341.4637499999953,
      "v": 74
    },
    {
      "midi": 41,
      "hit": false,
      "t": 78048.79999999996,
      "d": 1951.2199999999866,
      "v": 92
    },
    {
      "midi": 57,
      "hit": false,
      "t": 79268.31249999996,
      "d": 699.1871666666557,
      "v": 83
    },
    {
      "midi": 60,
      "hit": false,
      "t": 79402.45887499995,
      "d": 548.7806249999994,
      "v": 73
    },
    {
      "midi": 65,
      "hit": false,
      "t": 79512.21499999995,
      "d": 410.56920833332697,
      "v": 79
    },
    {
      "midi": 69,
      "hit": false,
      "t": 79634.16624999995,
      "d": 264.227708333332,
      "v": 78
    },
    {
      "midi": 65,
      "hit": false,
      "t": 80000.01999999995,
      "d": 28.455291666672565,
      "v": 50
    },
    {
      "midi": 60,
      "hit": false,
      "t": 80000.01999999995,
      "d": 1353.6588750000083,
      "v": 84
    },
    {
      "midi": 63,
      "hit": false,
      "t": 80000.01999999995,
      "d": 1638.2117916666757,
      "v": 86
    },
    {
      "midi": 41,
      "hit": false,
      "t": 80000.01999999995,
      "d": 1951.2200000000012,
      "v": 73
    },
    {
      "midi": 57,
      "hit": false,
      "t": 80000.01999999995,
      "d": 1951.2200000000012,
      "v": 72
    },
    {
      "midi": 53,
      "hit": false,
      "t": 81219.53249999996,
      "d": 731.7074999999895,
      "v": 86
    },
    {
      "midi": 60,
      "hit": false,
      "t": 81463.43499999995,
      "d": 487.804999999993,
      "v": 78
    },
    {
      "midi": 63,
      "hit": false,
      "t": 81707.33749999995,
      "d": 239.83745833333523,
      "v": 102
    },
    {
      "midi": 65,
      "hit": false,
      "t": 81951.23999999995,
      "d": 825.2034583333443,
      "v": 71
    },
    {
      "midi": 58,
      "hit": false,
      "t": 81951.23999999995,
      "d": 837.3985833333427,
      "v": 71
    },
    {
      "midi": 46,
      "hit": false,
      "t": 81951.23999999995,
      "d": 1951.2200000000157,
      "v": 72
    },
    {
      "midi": 53,
      "hit": false,
      "t": 82682.94749999995,
      "d": 1219.5125000000116,
      "v": 66
    },
    {
      "midi": 58,
      "hit": false,
      "t": 82926.84999999996,
      "d": 975.6100000000006,
      "v": 63
    },
    {
      "midi": 65,
      "hit": false,
      "t": 82926.84999999996,
      "d": 975.6100000000006,
      "v": 71
    },
    {
      "midi": 59,
      "hit": false,
      "t": 83902.45999999996,
      "d": 402.4391249999899,
      "v": 65
    },
    {
      "midi": 62,
      "hit": false,
      "t": 83902.45999999996,
      "d": 508.1302083333285,
      "v": 75
    },
    {
      "midi": 65,
      "hit": false,
      "t": 83902.45999999996,
      "d": 699.1871666666557,
      "v": 78
    },
    {
      "midi": 68,
      "hit": false,
      "t": 83902.45999999996,
      "d": 719.5123749999912,
      "v": 76
    },
    {
      "midi": 44,
      "hit": false,
      "t": 83902.45999999996,
      "d": 1918.6996666666819,
      "v": 83
    },
    {
      "midi": 56,
      "hit": false,
      "t": 84146.36249999996,
      "d": 792.6831249999959,
      "v": 77
    },
    {
      "midi": 59,
      "hit": false,
      "t": 84410.59020833329,
      "d": 894.3091666666587,
      "v": 75
    },
    {
      "midi": 62,
      "hit": false,
      "t": 84634.16749999995,
      "d": 504.0651666666672,
      "v": 61
    },
    {
      "midi": 65,
      "hit": false,
      "t": 84878.06999999995,
      "d": 337.39845833333675,
      "v": 76
    },
    {
      "midi": 56,
      "hit": false,
      "t": 85121.97249999996,
      "d": 447.15458333333663,
      "v": 72
    },
    {
      "midi": 59,
      "hit": false,
      "t": 85365.87499999996,
      "d": 276.4228333333449,
      "v": 30
    },
    {
      "midi": 65,
      "hit": false,
      "t": 85365.87499999996,
      "d": 276.4228333333449,
      "v": 65
    },
    {
      "midi": 68,
      "hit": false,
      "t": 85609.77749999997,
      "d": 150.40654166667082,
      "v": 107
    },
    {
      "midi": 84,
      "hit": false,
      "t": 85853.67999999998,
      "d": 1813.0085833333287,
      "v": 81
    },
    {
      "midi": 41,
      "hit": false,
      "t": 85853.67999999998,
      "d": 3902.439999999973,
      "v": 80
    },
    {
      "midi": 57,
      "hit": false,
      "t": 87682.94874999997,
      "d": 2073.171249999985,
      "v": 74
    },
    {
      "midi": 60,
      "hit": false,
      "t": 88902.46124999996,
      "d": 451.2196249999979,
      "v": 70
    },
    {
      "midi": 65,
      "hit": false,
      "t": 89024.41249999996,
      "d": 731.7074999999895,
      "v": 77
    },
    {
      "midi": 69,
      "hit": false,
      "t": 89268.31499999996,
      "d": 487.804999999993,
      "v": 79
    },
    {
      "midi": 60,
      "hit": false,
      "t": 89512.21749999996,
      "d": 243.9024999999965,
      "v": 66
    },
    {
      "midi": 58,
      "hit": false,
      "t": 89756.11999999995,
      "d": 1642.276833333337,
      "v": 74
    },
    {
      "midi": 60,
      "hit": false,
      "t": 89756.11999999995,
      "d": 1695.1223750000063,
      "v": 76
    },
    {
      "midi": 64,
      "hit": false,
      "t": 89756.11999999995,
      "d": 1711.382541666666,
      "v": 81
    },
    {
      "midi": 67,
      "hit": false,
      "t": 89756.11999999995,
      "d": 1715.4475833333272,
      "v": 78
    },
    {
      "midi": 48,
      "hit": false,
      "t": 89756.11999999995,
      "d": 3902.4399999999587,
      "v": 60
    },
    {
      "midi": 55,
      "hit": false,
      "t": 91341.48624999996,
      "d": 2178.8623333332944,
      "v": 90
    },
    {
      "midi": 58,
      "hit": false,
      "t": 91463.43749999996,
      "d": 471.5448333333188,
      "v": 67
    },
    {
      "midi": 60,
      "hit": false,
      "t": 91585.38874999994,
      "d": 2056.9110833333107,
      "v": 68
    },
    {
      "midi": 64,
      "hit": false,
      "t": 91707.33999999994,
      "d": 1926.8297499999753,
      "v": 77
    },
    {
      "midi": 58,
      "hit": false,
      "t": 92439.04749999994,
      "d": 369.91879166665603,
      "v": 59
    },
    {
      "midi": 67,
      "hit": false,
      "t": 92682.94999999994,
      "d": 951.2197499999747,
      "v": 102
    },
    {
      "midi": 58,
      "hit": false,
      "t": 92926.85249999994,
      "d": 260.16266666665615,
      "v": 68
    },
    {
      "midi": 72,
      "hit": false,
      "t": 93170.75499999993,
      "d": 471.5448333333188,
      "v": 88
    },
    {
      "midi": 69,
      "hit": false,
      "t": 93658.55999999991,
      "d": 1000.0002499999973,
      "v": 83
    },
    {
      "midi": 41,
      "hit": false,
      "t": 93658.55999999991,
      "d": 1951.2199999999866,
      "v": 66
    },
    {
      "midi": 57,
      "hit": false,
      "t": 93658.55999999991,
      "d": 1951.2199999999866,
      "v": 75
    },
    {
      "midi": 60,
      "hit": false,
      "t": 93658.55999999991,
      "d": 1951.2199999999866,
      "v": 63
    },
    {
      "midi": 65,
      "hit": false,
      "t": 93658.55999999991,
      "d": 1951.2199999999866,
      "v": 73
    },
    {
      "midi": 77,
      "hit": false,
      "t": 94634.16999999991,
      "d": 532.5204583333252,
      "v": 96
    },
    {
      "midi": 69,
      "hit": false,
      "t": 95121.9749999999,
      "d": 463.4147499999963,
      "v": 83
    },
    {
      "midi": 57,
      "hit": false,
      "t": 95609.7799999999,
      "d": 402.4391249999899,
      "v": 65
    },
    {
      "midi": 60,
      "hit": false,
      "t": 95609.7799999999,
      "d": 508.1302083333285,
      "v": 75
    },
    {
      "midi": 63,
      "hit": false,
      "t": 95609.7799999999,
      "d": 699.1871666666557,
      "v": 78
    },
    {
      "midi": 65,
      "hit": false,
      "t": 95609.7799999999,
      "d": 719.5123749999912,
      "v": 76
    },
    {
      "midi": 41,
      "hit": false,
      "t": 95609.7799999999,
      "d": 1918.6996666666819,
      "v": 83
    },
    {
      "midi": 53,
      "hit": false,
      "t": 95853.6824999999,
      "d": 792.6831249999959,
      "v": 77
    },
    {
      "midi": 57,
      "hit": false,
      "t": 96117.91020833323,
      "d": 894.3091666666587,
      "v": 75
    },
    {
      "midi": 60,
      "hit": false,
      "t": 96341.48749999989,
      "d": 504.0651666666672,
      "v": 61
    },
    {
      "midi": 63,
      "hit": false,
      "t": 96585.38999999988,
      "d": 337.39845833333675,
      "v": 76
    },
    {
      "midi": 53,
      "hit": false,
      "t": 96829.2924999999,
      "d": 447.15458333333663,
      "v": 72
    },
    {
      "midi": 57,
      "hit": false,
      "t": 97073.19499999989,
      "d": 276.4228333333449,
      "v": 30
    },
    {
      "midi": 63,
      "hit": false,
      "t": 97073.19499999989,
      "d": 276.4228333333449,
      "v": 65
    },
    {
      "midi": 65,
      "hit": false,
      "t": 97317.0974999999,
      "d": 150.40654166667082,
      "v": 107
    },
    {
      "midi": 53,
      "hit": false,
      "t": 97560.99999999991,
      "d": 1455.284916666671,
      "v": 59
    },
    {
      "midi": 58,
      "hit": false,
      "t": 97560.99999999991,
      "d": 1597.5613750000048,
      "v": 78
    },
    {
      "midi": 62,
      "hit": false,
      "t": 97560.99999999991,
      "d": 1662.6020416666724,
      "v": 80
    },
    {
      "midi": 46,
      "hit": false,
      "t": 97560.99999999991,
      "d": 1951.2200000000012,
      "v": 68
    },
    {
      "midi": 65,
      "hit": false,
      "t": 97560.99999999991,
      "d": 1951.2200000000012,
      "v": 79
    },
    {
      "midi": 53,
      "hit": false,
      "t": 99146.36624999992,
      "d": 365.85374999999476,
      "v": 77
    },
    {
      "midi": 58,
      "hit": false,
      "t": 99268.31749999992,
      "d": 243.9024999999965,
      "v": 65
    },
    {
      "midi": 62,
      "hit": false,
      "t": 99390.26874999992,
      "d": 121.95124999999825,
      "v": 88
    },
    {
      "midi": 58,
      "hit": false,
      "t": 99512.21999999991,
      "d": 402.4391249999899,
      "v": 65
    },
    {
      "midi": 62,
      "hit": false,
      "t": 99512.21999999991,
      "d": 508.1302083333285,
      "v": 75
    },
    {
      "midi": 65,
      "hit": false,
      "t": 99512.21999999991,
      "d": 699.1871666666557,
      "v": 78
    },
    {
      "midi": 46,
      "hit": false,
      "t": 99512.21999999991,
      "d": 1918.6996666666673,
      "v": 83
    },
    {
      "midi": 53,
      "hit": false,
      "t": 99756.12249999991,
      "d": 792.6831249999959,
      "v": 77
    },
    {
      "midi": 58,
      "hit": false,
      "t": 100020.35020833324,
      "d": 894.3091666666587,
      "v": 75
    },
    {
      "midi": 62,
      "hit": false,
      "t": 100243.9274999999,
      "d": 504.0651666666672,
      "v": 61
    },
    {
      "midi": 65,
      "hit": false,
      "t": 100487.8299999999,
      "d": 337.39845833333675,
      "v": 76
    },
    {
      "midi": 53,
      "hit": false,
      "t": 100731.73249999991,
      "d": 447.15458333333663,
      "v": 72
    },
    {
      "midi": 58,
      "hit": false,
      "t": 100975.63499999991,
      "d": 276.4228333333449,
      "v": 30
    },
    {
      "midi": 65,
      "hit": false,
      "t": 100975.63499999991,
      "d": 276.4228333333449,
      "v": 65
    },
    {
      "midi": 69,
      "hit": false,
      "t": 101463.43999999992,
      "d": 1000.0002499999973,
      "v": 83
    },
    {
      "midi": 41,
      "hit": false,
      "t": 101463.43999999992,
      "d": 1951.2199999999866,
      "v": 66
    },
    {
      "midi": 57,
      "hit": false,
      "t": 101463.43999999992,
      "d": 1951.2199999999866,
      "v": 75
    },
    {
      "midi": 60,
      "hit": false,
      "t": 101463.43999999992,
      "d": 1951.2199999999866,
      "v": 63
    },
    {
      "midi": 65,
      "hit": false,
      "t": 101463.43999999992,
      "d": 1951.2199999999866,
      "v": 73
    },
    {
      "midi": 77,
      "hit": false,
      "t": 102439.04999999992,
      "d": 532.5204583333252,
      "v": 96
    },
    {
      "midi": 69,
      "hit": false,
      "t": 102926.85499999991,
      "d": 463.4147499999963,
      "v": 83
    },
    {
      "midi": 69,
      "hit": false,
      "t": 103414.6599999999,
      "d": 28.455291666672565,
      "v": 86
    },
    {
      "midi": 65,
      "hit": false,
      "t": 103414.6599999999,
      "d": 1353.6588750000083,
      "v": 84
    },
    {
      "midi": 41,
      "hit": false,
      "t": 103414.6599999999,
      "d": 1951.2200000000012,
      "v": 73
    },
    {
      "midi": 60,
      "hit": false,
      "t": 103414.6599999999,
      "d": 1951.2200000000012,
      "v": 72
    },
    {
      "midi": 57,
      "hit": false,
      "t": 104634.17249999991,
      "d": 731.7074999999895,
      "v": 86
    },
    {
      "midi": 65,
      "hit": false,
      "t": 104878.07499999991,
      "d": 487.804999999993,
      "v": 78
    },
    {
      "midi": 69,
      "hit": false,
      "t": 105121.9774999999,
      "d": 239.83745833333523,
      "v": 102
    },
    {
      "midi": 58,
      "hit": false,
      "t": 105365.8799999999,
      "d": 1455.284916666671,
      "v": 59
    },
    {
      "midi": 60,
      "hit": false,
      "t": 105365.8799999999,
      "d": 1597.5613750000048,
      "v": 78
    },
    {
      "midi": 64,
      "hit": false,
      "t": 105365.8799999999,
      "d": 1662.6020416666724,
      "v": 80
    },
    {
      "midi": 48,
      "hit": false,
      "t": 105365.8799999999,
      "d": 1951.2200000000012,
      "v": 68
    },
    {
      "midi": 67,
      "hit": false,
      "t": 105365.8799999999,
      "d": 1951.2200000000012,
      "v": 79
    },
    {
      "midi": 58,
      "hit": false,
      "t": 106951.24624999991,
      "d": 365.85374999999476,
      "v": 77
    },
    {
      "midi": 60,
      "hit": false,
      "t": 107073.19749999991,
      "d": 243.9024999999965,
      "v": 65
    },
    {
      "midi": 64,
      "hit": false,
      "t": 107195.1487499999,
      "d": 121.95124999999825,
      "v": 88
    },
    {
      "midi": 64,
      "hit": false,
      "t": 107317.0999999999,
      "d": 1000.0002499999973,
      "v": 83
    },
    {
      "midi": 48,
      "hit": false,
      "t": 107317.0999999999,
      "d": 1951.2199999999866,
      "v": 66
    },
    {
      "midi": 55,
      "hit": false,
      "t": 107317.0999999999,
      "d": 1951.2199999999866,
      "v": 75
    },
    {
      "midi": 58,
      "hit": false,
      "t": 107317.0999999999,
      "d": 1951.2199999999866,
      "v": 63
    },
    {
      "midi": 60,
      "hit": false,
      "t": 107317.0999999999,
      "d": 1951.2199999999866,
      "v": 73
    },
    {
      "midi": 72,
      "hit": false,
      "t": 108292.7099999999,
      "d": 532.5204583333252,
      "v": 96
    },
    {
      "midi": 64,
      "hit": false,
      "t": 108780.5149999999,
      "d": 463.4147499999963,
      "v": 83
    },
    {
      "midi": 60,
      "hit": false,
      "t": 109268.31999999989,
      "d": 402.4391249999899,
      "v": 65
    },
    {
      "midi": 65,
      "hit": false,
      "t": 109268.31999999989,
      "d": 508.1302083333285,
      "v": 75
    },
    {
      "midi": 69,
      "hit": false,
      "t": 109268.31999999989,
      "d": 699.1871666666557,
      "v": 78
    },
    {
      "midi": 41,
      "hit": false,
      "t": 109268.31999999989,
      "d": 1918.6996666666673,
      "v": 83
    },
    {
      "midi": 57,
      "hit": false,
      "t": 109512.22249999989,
      "d": 792.6831249999959,
      "v": 77
    },
    {
      "midi": 60,
      "hit": false,
      "t": 109776.45020833322,
      "d": 894.3091666666587,
      "v": 75
    },
    {
      "midi": 65,
      "hit": false,
      "t": 110000.02749999988,
      "d": 504.0651666666672,
      "v": 61
    },
    {
      "midi": 69,
      "hit": false,
      "t": 110243.92999999988,
      "d": 337.39845833333675,
      "v": 76
    },
    {
      "midi": 57,
      "hit": false,
      "t": 110487.83249999989,
      "d": 447.15458333333663,
      "v": 72
    },
    {
      "midi": 60,
      "hit": false,
      "t": 110731.73499999988,
      "d": 276.4228333333449,
      "v": 30
    },
    {
      "midi": 69,
      "hit": false,
      "t": 110731.73499999988,
      "d": 276.4228333333449,
      "v": 65
    },
    {
      "midi": 65,
      "hit": false,
      "t": 111219.53999999989,
      "d": 825.2034583333443,
      "v": 71
    },
    {
      "midi": 63,
      "hit": false,
      "t": 111219.53999999989,
      "d": 833.3335416666814,
      "v": 80
    },
    {
      "midi": 57,
      "hit": false,
      "t": 111219.53999999989,
      "d": 837.3985833333427,
      "v": 71
    },
    {
      "midi": 41,
      "hit": false,
      "t": 111219.53999999989,
      "d": 1951.2200000000157,
      "v": 72
    },
    {
      "midi": 53,
      "hit": false,
      "t": 111951.2474999999,
      "d": 1219.5125000000116,
      "v": 66
    },
    {
      "midi": 57,
      "hit": false,
      "t": 112195.1499999999,
      "d": 975.6100000000006,
      "v": 63
    },
    {
      "midi": 63,
      "hit": false,
      "t": 112195.1499999999,
      "d": 975.6100000000006,
      "v": 75
    },
    {
      "midi": 65,
      "hit": false,
      "t": 112195.1499999999,
      "d": 975.6100000000006,
      "v": 71
    },
    {
      "midi": 53,
      "hit": false,
      "t": 113170.75999999991,
      "d": 1455.284916666671,
      "v": 59
    },
    {
      "midi": 58,
      "hit": false,
      "t": 113170.75999999991,
      "d": 1597.5613750000048,
      "v": 78
    },
    {
      "midi": 62,
      "hit": false,
      "t": 113170.75999999991,
      "d": 1662.6020416666724,
      "v": 80
    },
    {
      "midi": 46,
      "hit": false,
      "t": 113170.75999999991,
      "d": 1951.2200000000012,
      "v": 68
    },
    {
      "midi": 65,
      "hit": false,
      "t": 113170.75999999991,
      "d": 1951.2200000000012,
      "v": 79
    },
    {
      "midi": 53,
      "hit": false,
      "t": 114756.12624999991,
      "d": 365.85374999999476,
      "v": 77
    },
    {
      "midi": 58,
      "hit": false,
      "t": 114878.07749999991,
      "d": 243.9024999999965,
      "v": 65
    },
    {
      "midi": 62,
      "hit": false,
      "t": 115000.02874999991,
      "d": 121.95124999999825,
      "v": 88
    },
    {
      "midi": 59,
      "hit": false,
      "t": 115121.97999999991,
      "d": 1264.2279583333293,
      "v": 75
    },
    {
      "midi": 62,
      "hit": false,
      "t": 115121.97999999991,
      "d": 1341.4637499999953,
      "v": 98
    },
    {
      "midi": 65,
      "hit": false,
      "t": 115121.97999999991,
      "d": 1341.4637499999953,
      "v": 74
    },
    {
      "midi": 68,
      "hit": false,
      "t": 115121.97999999991,
      "d": 1353.6588749999937,
      "v": 79
    },
    {
      "midi": 44,
      "hit": false,
      "t": 115121.97999999991,
      "d": 1951.2199999999866,
      "v": 92
    },
    {
      "midi": 56,
      "hit": false,
      "t": 116341.4924999999,
      "d": 699.1871666666557,
      "v": 83
    },
    {
      "midi": 59,
      "hit": false,
      "t": 116475.6388749999,
      "d": 548.7806249999994,
      "v": 73
    },
    {
      "midi": 62,
      "hit": false,
      "t": 116585.3949999999,
      "d": 410.56920833332697,
      "v": 79
    },
    {
      "midi": 65,
      "hit": false,
      "t": 116707.3462499999,
      "d": 264.227708333332,
      "v": 78
    },
    {
      "midi": 68,
      "hit": false,
      "t": 116829.2974999999,
      "d": 166.66670833333046,
      "v": 88
    },
    {
      "midi": 69,
      "hit": false,
      "t": 117073.1999999999,
      "d": 28.455291666672565,
      "v": 86
    },
    {
      "midi": 65,
      "hit": false,
      "t": 117073.1999999999,
      "d": 1353.6588750000083,
      "v": 84
    },
    {
      "midi": 41,
      "hit": false,
      "t": 117073.1999999999,
      "d": 1951.2200000000012,
      "v": 73
    },
    {
      "midi": 60,
      "hit": false,
      "t": 117073.1999999999,
      "d": 1951.2200000000012,
      "v": 72
    },
    {
      "midi": 57,
      "hit": false,
      "t": 118292.7124999999,
      "d": 731.7074999999895,
      "v": 86
    },
    {
      "midi": 65,
      "hit": false,
      "t": 118536.6149999999,
      "d": 487.804999999993,
      "v": 78
    },
    {
      "midi": 69,
      "hit": false,
      "t": 118780.5174999999,
      "d": 239.83745833333523,
      "v": 102
    },
    {
      "midi": 57,
      "hit": false,
      "t": 119024.4199999999,
      "d": 1455.284916666671,
      "v": 59
    },
    {
      "midi": 60,
      "hit": false,
      "t": 119024.4199999999,
      "d": 1597.5613750000048,
      "v": 78
    },
    {
      "midi": 65,
      "hit": false,
      "t": 119024.4199999999,
      "d": 1662.6020416666724,
      "v": 80
    },
    {
      "midi": 41,
      "hit": false,
      "t": 119024.4199999999,
      "d": 1951.2200000000012,
      "v": 68
    },
    {
      "midi": 69,
      "hit": false,
      "t": 119024.4199999999,
      "d": 1951.2200000000012,
      "v": 79
    },
    {
      "midi": 57,
      "hit": false,
      "t": 120609.7862499999,
      "d": 365.85374999999476,
      "v": 77
    },
    {
      "midi": 60,
      "hit": false,
      "t": 120731.7374999999,
      "d": 243.9024999999965,
      "v": 65
    },
    {
      "midi": 65,
      "hit": false,
      "t": 120853.6887499999,
      "d": 121.95124999999825,
      "v": 88
    },
    {
      "midi": 58,
      "hit": false,
      "t": 120975.6399999999,
      "d": 1264.2279583333293,
      "v": 75
    },
    {
      "midi": 60,
      "hit": false,
      "t": 120975.6399999999,
      "d": 1341.4637499999953,
      "v": 98
    },
    {
      "midi": 64,
      "hit": false,
      "t": 120975.6399999999,
      "d": 1341.4637499999953,
      "v": 74
    },
    {
      "midi": 67,
      "hit": false,
      "t": 120975.6399999999,
      "d": 1353.6588749999937,
      "v": 79
    },
    {
      "midi": 48,
      "hit": false,
      "t": 120975.6399999999,
      "d": 1951.2199999999866,
      "v": 92
    },
    {
      "midi": 55,
      "hit": false,
      "t": 122195.1524999999,
      "d": 699.1871666666557,
      "v": 83
    },
    {
      "midi": 58,
      "hit": false,
      "t": 122329.29887499989,
      "d": 548.7806249999994,
      "v": 73
    },
    {
      "midi": 60,
      "hit": false,
      "t": 122439.05499999989,
      "d": 410.56920833332697,
      "v": 79
    },
    {
      "midi": 64,
      "hit": false,
      "t": 122561.00624999989,
      "d": 264.227708333332,
      "v": 78
    },
    {
      "midi": 67,
      "hit": false,
      "t": 122682.95749999989,
      "d": 166.66670833333046,
      "v": 88
    },
    {
      "midi": 64,
      "hit": false,
      "t": 122926.85999999988,
      "d": 1000.0002499999973,
      "v": 83
    },
    {
      "midi": 48,
      "hit": false,
      "t": 122926.85999999988,
      "d": 1951.2199999999866,
      "v": 66
    },
    {
      "midi": 55,
      "hit": false,
      "t": 122926.85999999988,
      "d": 1951.2199999999866,
      "v": 75
    },
    {
      "midi": 58,
      "hit": false,
      "t": 122926.85999999988,
      "d": 1951.2199999999866,
      "v": 63
    },
    {
      "midi": 60,
      "hit": false,
      "t": 122926.85999999988,
      "d": 1951.2199999999866,
      "v": 73
    },
    {
      "midi": 72,
      "hit": false,
      "t": 123902.46999999988,
      "d": 532.5204583333252,
      "v": 96
    },
    {
      "midi": 64,
      "hit": false,
      "t": 124390.27499999988,
      "d": 463.4147499999963,
      "v": 83
    },
    {
      "midi": 57,
      "hit": false,
      "t": 124878.07999999987,
      "d": 1455.284916666671,
      "v": 59
    },
    {
      "midi": 60,
      "hit": false,
      "t": 124878.07999999987,
      "d": 1597.5613750000048,
      "v": 78
    },
    {
      "midi": 65,
      "hit": false,
      "t": 124878.07999999987,
      "d": 1662.6020416666724,
      "v": 80
    },
    {
      "midi": 41,
      "hit": false,
      "t": 124878.07999999987,
      "d": 1951.2200000000012,
      "v": 68
    },
    {
      "midi": 69,
      "hit": false,
      "t": 124878.07999999987,
      "d": 1951.2200000000012,
      "v": 79
    },
    {
      "midi": 57,
      "hit": false,
      "t": 126463.44624999988,
      "d": 365.85374999999476,
      "v": 77
    },
    {
      "midi": 60,
      "hit": false,
      "t": 126585.39749999988,
      "d": 243.9024999999965,
      "v": 65
    },
    {
      "midi": 65,
      "hit": false,
      "t": 126707.34874999987,
      "d": 121.95124999999825,
      "v": 88
    },
    {
      "midi": 57,
      "hit": false,
      "t": 126829.29999999987,
      "d": 1878.0492499999964,
      "v": 65
    },
    {
      "midi": 60,
      "hit": false,
      "t": 126829.29999999987,
      "d": 1878.0492499999964,
      "v": 65
    },
    {
      "midi": 65,
      "hit": false,
      "t": 126829.29999999987,
      "d": 1878.0492499999964,
      "v": 65
    },
    {
      "midi": 67,
      "hit": false,
      "t": 128048.81249999987,
      "d": 235.7724166666594,
      "v": 51
    },
    {
      "midi": 69,
      "hit": false,
      "t": 128292.71499999987,
      "d": 560.9757500000123,
      "v": 31
    },
    {
      "midi": 57,
      "hit": false,
      "t": 128780.51999999987,
      "d": 1914.634625000006,
      "v": 78
    },
    {
      "midi": 60,
      "hit": false,
      "t": 128780.51999999987,
      "d": 1914.634625000006,
      "v": 78
    },
    {
      "midi": 65,
      "hit": false,
      "t": 128780.51999999987,
      "d": 1914.634625000006,
      "v": 78
    },
    {
      "midi": 41,
      "hit": false,
      "t": 129756.12999999987,
      "d": 975.6100000000006,
      "v": 43
    }
  ]
}