{
  "jsonPath": "Animes/Chuuka Ichiban MIDI Collection/now-i-can-breat.json",
  "path": "Animes\\Chuuka Ichiban MIDI Collection\\Now I Can Breat.mid",
  "name": "Now I Can Breat",
  "difficulty": "Advanced",
  "bpm": 122.99996925000768,
  "notes": [
    {
      "midi": 69,
      "hit": false,
      "t": 7619.048,
      "d": 436.5079583333336,
      "v": 120
    },
    {
      "midi": 73,
      "hit": false,
      "t": 7619.048,
      "d": 436.5079583333336,
      "v": 115
    },
    {
      "midi": 78,
      "hit": false,
      "t": 7619.048,
      "d": 436.5079583333336,
      "v": 115
    },
    {
      "midi": 78,
      "hit": false,
      "t": 7619.048,
      "d": 238.0952499999994,
      "v": 110
    },
    {
      "midi": 90,
      "hit": false,
      "t": 7619.048,
      "d": 238.0952499999994,
      "v": 110
    },
    {
      "midi": 38,
      "hit": false,
      "t": 7619.048,
      "d": 436.5079583333336,
      "v": 100
    },
    {
      "midi": 76,
      "hit": false,
      "t": 7619.048,
      "d": 3769.8414583333333,
      "v": 100
    },
    {
      "midi": 78,
      "hit": false,
      "t": 7619.048,
      "d": 3769.8414583333333,
      "v": 100
    },
    {
      "midi": 69,
      "hit": false,
      "t": 7619.048,
      "d": 3769.8414583333333,
      "v": 60
    },
    {
      "midi": 78,
      "hit": false,
      "t": 7619.048,
      "d": 3769.8414583333333,
      "v": 60
    },
    {
      "midi": 76,
      "hit": false,
      "t": 7619.048,
      "d": 3769.8414583333333,
      "v": 60
    },
    {
      "midi": 74,
      "hit": false,
      "t": 7619.048,
      "d": 3769.8414583333333,
      "v": 60
    },
    {
      "midi": 78,
      "hit": false,
      "t": 7857.143249999999,
      "d": 238.0952499999994,
      "v": 80
    },
    {
      "midi": 90,
      "hit": false,
      "t": 7857.143249999999,
      "d": 238.0952499999994,
      "v": 80
    },
    {
      "midi": 38,
      "hit": false,
      "t": 8095.2385,
      "d": 436.5079583333327,
      "v": 100
    },
    {
      "midi": 74,
      "hit": false,
      "t": 8333.333749999998,
      "d": 238.0952500000003,
      "v": 110
    },
    {
      "midi": 86,
      "hit": false,
      "t": 8333.333749999998,
      "d": 238.0952500000003,
      "v": 110
    },
    {
      "midi": 74,
      "hit": false,
      "t": 8571.428999999998,
      "d": 238.0952500000003,
      "v": 80
    },
    {
      "midi": 86,
      "hit": false,
      "t": 8571.428999999998,
      "d": 238.0952500000003,
      "v": 80
    },
    {
      "midi": 69,
      "hit": false,
      "t": 8571.429,
      "d": 436.5079583333336,
      "v": 110
    },
    {
      "midi": 73,
      "hit": false,
      "t": 8571.429,
      "d": 436.5079583333336,
      "v": 105
    },
    {
      "midi": 78,
      "hit": false,
      "t": 8571.429,
      "d": 436.5079583333336,
      "v": 105
    },
    {
      "midi": 38,
      "hit": false,
      "t": 8571.429,
      "d": 436.5079583333336,
      "v": 100
    },
    {
      "midi": 69,
      "hit": false,
      "t": 9047.619499999999,
      "d": 238.0952500000003,
      "v": 110
    },
    {
      "midi": 81,
      "hit": false,
      "t": 9047.619499999999,
      "d": 238.0952500000003,
      "v": 110
    },
    {
      "midi": 38,
      "hit": false,
      "t": 9047.6195,
      "d": 436.5079583333336,
      "v": 100
    },
    {
      "midi": 69,
      "hit": false,
      "t": 9285.71475,
      "d": 238.0952500000003,
      "v": 80
    },
    {
      "midi": 81,
      "hit": false,
      "t": 9285.71475,
      "d": 238.0952500000003,
      "v": 80
    },
    {
      "midi": 69,
      "hit": false,
      "t": 9523.81,
      "d": 436.5079583333336,
      "v": 100
    },
    {
      "midi": 73,
      "hit": false,
      "t": 9523.81,
      "d": 436.5079583333336,
      "v": 95
    },
    {
      "midi": 78,
      "hit": false,
      "t": 9523.81,
      "d": 436.5079583333336,
      "v": 95
    },
    {
      "midi": 78,
      "hit": false,
      "t": 9523.81,
      "d": 238.0952500000003,
      "v": 110
    },
    {
      "midi": 90,
      "hit": false,
      "t": 9523.81,
      "d": 238.0952500000003,
      "v": 110
    },
    {
      "midi": 38,
      "hit": false,
      "t": 9523.810000000001,
      "d": 436.5079583333336,
      "v": 100
    },
    {
      "midi": 78,
      "hit": false,
      "t": 9761.90525,
      "d": 238.0952500000003,
      "v": 80
    },
    {
      "midi": 90,
      "hit": false,
      "t": 9761.90525,
      "d": 238.0952500000003,
      "v": 80
    },
    {
      "midi": 38,
      "hit": false,
      "t": 10000.000500000002,
      "d": 436.5079583333336,
      "v": 100
    },
    {
      "midi": 74,
      "hit": false,
      "t": 10238.09575,
      "d": 222.22223333333386,
      "v": 100
    },
    {
      "midi": 86,
      "hit": false,
      "t": 10238.095750000002,
      "d": 222.22223333333386,
      "v": 100
    },
    {
      "midi": 69,
      "hit": false,
      "t": 10476.190999999999,
      "d": 436.5079583333336,
      "v": 95
    },
    {
      "midi": 73,
      "hit": false,
      "t": 10476.190999999999,
      "d": 436.5079583333336,
      "v": 90
    },
    {
      "midi": 78,
      "hit": false,
      "t": 10476.190999999999,
      "d": 436.5079583333336,
      "v": 90
    },
    {
      "midi": 38,
      "hit": false,
      "t": 10476.191000000003,
      "d": 436.5079583333336,
      "v": 100
    },
    {
      "midi": 74,
      "hit": false,
      "t": 10714.286250000001,
      "d": 238.0952500000003,
      "v": 80
    },
    {
      "midi": 86,
      "hit": false,
      "t": 10714.286250000005,
      "d": 238.09525000000212,
      "v": 80
    },
    {
      "midi": 69,
      "hit": false,
      "t": 10952.381500000001,
      "d": 238.0952500000003,
      "v": 100
    },
    {
      "midi": 38,
      "hit": false,
      "t": 10952.381500000003,
      "d": 436.5079583333336,
      "v": 100
    },
    {
      "midi": 81,
      "hit": false,
      "t": 10952.381500000007,
      "d": 238.09525000000212,
      "v": 100
    },
    {
      "midi": 69,
      "hit": false,
      "t": 11190.476750000002,
      "d": 238.0952500000003,
      "v": 80
    },
    {
      "midi": 81,
      "hit": false,
      "t": 11190.476750000009,
      "d": 238.0952500000003,
      "v": 80
    },
    {
      "midi": 81,
      "hit": false,
      "t": 11428.571999999998,
      "d": 9007.936958333246,
      "v": 115
    },
    {
      "midi": 69,
      "hit": false,
      "t": 11428.571999999998,
      "d": 436.5079583333336,
      "v": 115
    },
    {
      "midi": 73,
      "hit": false,
      "t": 11428.571999999998,
      "d": 436.5079583333336,
      "v": 115
    },
    {
      "midi": 78,
      "hit": false,
      "t": 11428.571999999998,
      "d": 436.5079583333336,
      "v": 115
    },
    {
      "midi": 62,
      "hit": false,
      "t": 11428.572,
      "d": 7603.174983333352,
      "v": 100
    },
    {
      "midi": 66,
      "hit": false,
      "t": 11428.572,
      "d": 7603.174983333352,
      "v": 100
    },
    {
      "midi": 69,
      "hit": false,
      "t": 11428.572,
      "d": 7603.174983333352,
      "v": 100
    },
    {
      "midi": 78,
      "hit": false,
      "t": 11428.572,
      "d": 3769.8414583333324,
      "v": 100
    },
    {
      "midi": 81,
      "hit": false,
      "t": 11428.572,
      "d": 3769.8414583333324,
      "v": 100
    },
    {
      "midi": 69,
      "hit": false,
      "t": 11428.572,
      "d": 3769.8414583333324,
      "v": 60
    },
    {
      "midi": 76,
      "hit": false,
      "t": 11428.572,
      "d": 3769.8414583333324,
      "v": 60
    },
    {
      "midi": 81,
      "hit": false,
      "t": 11428.572,
      "d": 3769.8414583333324,
      "v": 60
    },
    {
      "midi": 78,
      "hit": false,
      "t": 11428.572,
      "d": 3769.8414583333324,
      "v": 60
    },
    {
      "midi": 74,
      "hit": false,
      "t": 11428.572,
      "d": 3769.8414583333324,
      "v": 60
    },
    {
      "midi": 38,
      "hit": false,
      "t": 11428.572000000004,
      "d": 436.5079583333336,
      "v": 100
    },
    {
      "midi": 78,
      "hit": false,
      "t": 11515.873591666668,
      "d": 238.0952500000003,
      "v": 110
    },
    {
      "midi": 90,
      "hit": false,
      "t": 11515.873591666676,
      "d": 238.0952500000003,
      "v": 110
    },
    {
      "midi": 78,
      "hit": false,
      "t": 11753.968841666669,
      "d": 238.0952500000003,
      "v": 80
    },
    {
      "midi": 90,
      "hit": false,
      "t": 11753.968841666676,
      "d": 238.0952500000003,
      "v": 80
    },
    {
      "midi": 38,
      "hit": false,
      "t": 11904.762500000004,
      "d": 436.5079583333336,
      "v": 100
    },
    {
      "midi": 74,
      "hit": false,
      "t": 12230.15934166667,
      "d": 222.22223333333386,
      "v": 100
    },
    {
      "midi": 86,
      "hit": false,
      "t": 12230.159341666676,
      "d": 222.22223333333386,
      "v": 100
    },
    {
      "midi": 69,
      "hit": false,
      "t": 12380.952999999998,
      "d": 436.5079583333336,
      "v": 105
    },
    {
      "midi": 73,
      "hit": false,
      "t": 12380.952999999998,
      "d": 436.5079583333336,
      "v": 105
    },
    {
      "midi": 78,
      "hit": false,
      "t": 12380.952999999998,
      "d": 436.5079583333336,
      "v": 105
    },
    {
      "midi": 38,
      "hit": false,
      "t": 12380.953000000005,
      "d": 436.5079583333336,
      "v": 100
    },
    {
      "midi": 74,
      "hit": false,
      "t": 12468.25459166667,
      "d": 238.0952500000003,
      "v": 80
    },
    {
      "midi": 86,
      "hit": false,
      "t": 12468.254591666677,
      "d": 238.0952500000003,
      "v": 80
    },
    {
      "midi": 38,
      "hit": false,
      "t": 12857.143500000006,
      "d": 436.5079583333336,
      "v": 100
    },
    {
      "midi": 69,
      "hit": false,
      "t": 12944.44509166667,
      "d": 238.0952500000003,
      "v": 100
    },
    {
      "midi": 81,
      "hit": false,
      "t": 12944.44509166668,
      "d": 238.09525000000212,
      "v": 100
    },
    {
      "midi": 69,
      "hit": false,
      "t": 13182.54034166667,
      "d": 238.0952500000003,
      "v": 80
    },
    {
      "midi": 81,
      "hit": false,
      "t": 13182.540341666681,
      "d": 238.0952500000003,
      "v": 80
    },
    {
      "midi": 69,
      "hit": false,
      "t": 13333.333999999997,
      "d": 436.5079583333336,
      "v": 95
    },
    {
      "midi": 73,
      "hit": false,
      "t": 13333.333999999997,
      "d": 436.5079583333336,
      "v": 95
    },
    {
      "midi": 78,
      "hit": false,
      "t": 13333.333999999997,
      "d": 436.5079583333336,
      "v": 95
    },
    {
      "midi": 38,
      "hit": false,
      "t": 13333.334000000006,
      "d": 436.5079583333336,
      "v": 100
    },
    {
      "midi": 78,
      "hit": false,
      "t": 13420.63559166667,
      "d": 238.0952500000003,
      "v": 110
    },
    {
      "midi": 90,
      "hit": false,
      "t": 13420.635591666682,
      "d": 238.0952500000003,
      "v": 110
    },
    {
      "midi": 78,
      "hit": false,
      "t": 13658.730841666671,
      "d": 238.0952500000003,
      "v": 80
    },
    {
      "midi": 90,
      "hit": false,
      "t": 13658.730841666682,
      "d": 238.0952500000003,
      "v": 80
    },
    {
      "midi": 38,
      "hit": false,
      "t": 13809.524500000007,
      "d": 436.5079583333336,
      "v": 100
    },
    {
      "midi": 74,
      "hit": false,
      "t": 14134.921341666672,
      "d": 222.22223333333386,
      "v": 100
    },
    {
      "midi": 86,
      "hit": false,
      "t": 14134.921341666683,
      "d": 222.22223333333386,
      "v": 100
    },
    {
      "midi": 69,
      "hit": false,
      "t": 14285.714999999997,
      "d": 436.5079583333336,
      "v": 90
    },
    {
      "midi": 73,
      "hit": false,
      "t": 14285.714999999997,
      "d": 436.5079583333336,
      "v": 90
    },
    {
      "midi": 78,
      "hit": false,
      "t": 14285.714999999997,
      "d": 436.5079583333336,
      "v": 90
    },
    {
      "midi": 38,
      "hit": false,
      "t": 14285.715000000007,
      "d": 436.5079583333336,
      "v": 100
    },
    {
      "midi": 74,
      "hit": false,
      "t": 14373.016591666672,
      "d": 238.0952500000003,
      "v": 80
    },
    {
      "midi": 86,
      "hit": false,
      "t": 14373.016591666683,
      "d": 238.0952500000003,
      "v": 80
    },
    {
      "midi": 38,
      "hit": false,
      "t": 14761.905500000008,
      "d": 436.5079583333336,
      "v": 100
    },
    {
      "midi": 69,
      "hit": false,
      "t": 14849.207091666673,
      "d": 238.0952500000003,
      "v": 100
    },
    {
      "midi": 81,
      "hit": false,
      "t": 14849.207091666685,
      "d": 238.09525000000212,
      "v": 100
    },
    {
      "midi": 69,
      "hit": false,
      "t": 15087.302341666673,
      "d": 238.0952500000003,
      "v": 80
    },
    {
      "midi": 81,
      "hit": false,
      "t": 15087.302341666687,
      "d": 238.09525000000212,
      "v": 80
    },
    {
      "midi": 71,
      "hit": false,
      "t": 15238.095999999996,
      "d": 436.5079583333336,
      "v": 115
    },
    {
      "midi": 74,
      "hit": false,
      "t": 15238.095999999996,
      "d": 436.5079583333336,
      "v": 115
    },
    {
      "midi": 81,
      "hit": false,
      "t": 15238.095999999996,
      "d": 436.5079583333336,
      "v": 115
    },
    {
      "midi": 78,
      "hit": false,
      "t": 15238.096,
      "d": 4722.222458333332,
      "v": 100
    },
    {
      "midi": 81,
      "hit": false,
      "t": 15238.096,
      "d": 4722.222458333332,
      "v": 100
    },
    {
      "midi": 71,
      "hit": false,
      "t": 15238.096,
      "d": 4722.222458333332,
      "v": 60
    },
    {
      "midi": 81,
      "hit": false,
      "t": 15238.096,
      "d": 4722.222458333332,
      "v": 60
    },
    {
      "midi": 78,
      "hit": false,
      "t": 15238.096,
      "d": 4722.222458333332,
      "v": 60
    },
    {
      "midi": 74,
      "hit": false,
      "t": 15238.096,
      "d": 4722.222458333332,
      "v": 60
    },
    {
      "midi": 31,
      "hit": false,
      "t": 15238.096000000009,
      "d": 436.5079583333336,
      "v": 100
    },
    {
      "midi": 78,
      "hit": false,
      "t": 15325.397591666673,
      "d": 238.0952500000003,
      "v": 110
    },
    {
      "midi": 90,
      "hit": false,
      "t": 15325.39759166669,
      "d": 238.09525000000212,
      "v": 110
    },
    {
      "midi": 78,
      "hit": false,
      "t": 15563.492841666673,
      "d": 238.0952500000003,
      "v": 80
    },
    {
      "midi": 90,
      "hit": false,
      "t": 15563.492841666692,
      "d": 238.09525000000212,
      "v": 80
    },
    {
      "midi": 31,
      "hit": false,
      "t": 15714.28650000001,
      "d": 436.5079583333336,
      "v": 100
    },
    {
      "midi": 74,
      "hit": false,
      "t": 16039.683341666674,
      "d": 222.22223333333386,
      "v": 100
    },
    {
      "midi": 86,
      "hit": false,
      "t": 16039.683341666694,
      "d": 222.22223333333386,
      "v": 100
    },
    {
      "midi": 71,
      "hit": false,
      "t": 16190.476999999995,
      "d": 436.50795833333177,
      "v": 105
    },
    {
      "midi": 74,
      "hit": false,
      "t": 16190.476999999995,
      "d": 436.50795833333177,
      "v": 105
    },
    {
      "midi": 81,
      "hit": false,
      "t": 16190.476999999995,
      "d": 436.50795833333177,
      "v": 105
    },
    {
      "midi": 31,
      "hit": false,
      "t": 16190.47700000001,
      "d": 436.50795833333177,
      "v": 100
    },
    {
      "midi": 74,
      "hit": false,
      "t": 16277.778591666674,
      "d": 238.0952500000003,
      "v": 80
    },
    {
      "midi": 86,
      "hit": false,
      "t": 16277.778591666694,
      "d": 238.0952499999985,
      "v": 80
    },
    {
      "midi": 31,
      "hit": false,
      "t": 16666.667500000007,
      "d": 436.50795833333177,
      "v": 100
    },
    {
      "midi": 69,
      "hit": false,
      "t": 16753.969091666673,
      "d": 238.0952499999985,
      "v": 100
    },
    {
      "midi": 81,
      "hit": false,
      "t": 16753.96909166669,
      "d": 238.09525000000212,
      "v": 100
    },
    {
      "midi": 69,
      "hit": false,
      "t": 16992.06434166667,
      "d": 238.0952499999985,
      "v": 80
    },
    {
      "midi": 81,
      "hit": false,
      "t": 16992.064341666694,
      "d": 238.09525000000212,
      "v": 80
    },
    {
      "midi": 71,
      "hit": false,
      "t": 17142.857999999993,
      "d": 436.50795833333177,
      "v": 95
    },
    {
      "midi": 74,
      "hit": false,
      "t": 17142.857999999993,
      "d": 436.50795833333177,
      "v": 95
    },
    {
      "midi": 81,
      "hit": false,
      "t": 17142.857999999993,
      "d": 436.50795833333177,
      "v": 95
    },
    {
      "midi": 31,
      "hit": false,
      "t": 17142.858000000004,
      "d": 436.50795833333177,
      "v": 100
    },
    {
      "midi": 78,
      "hit": false,
      "t": 17230.15959166667,
      "d": 238.0952499999985,
      "v": 110
    },
    {
      "midi": 90,
      "hit": false,
      "t": 17230.159591666696,
      "d": 238.09525000000212,
      "v": 110
    },
    {
      "midi": 78,
      "hit": false,
      "t": 17468.25484166667,
      "d": 238.0952499999985,
      "v": 80
    },
    {
      "midi": 90,
      "hit": false,
      "t": 17468.254841666698,
      "d": 238.09525000000212,
      "v": 80
    },
    {
      "midi": 31,
      "hit": false,
      "t": 17619.0485,
      "d": 436.50795833333177,
      "v": 100
    },
    {
      "midi": 74,
      "hit": false,
      "t": 17944.445341666666,
      "d": 222.22223333333386,
      "v": 100
    },
    {
      "midi": 86,
      "hit": false,
      "t": 17944.4453416667,
      "d": 222.22223333333386,
      "v": 100
    },
    {
      "midi": 71,
      "hit": false,
      "t": 18095.23899999999,
      "d": 436.50795833333177,
      "v": 90
    },
    {
      "midi": 74,
      "hit": false,
      "t": 18095.23899999999,
      "d": 436.50795833333177,
      "v": 90
    },
    {
      "midi": 81,
      "hit": false,
      "t": 18095.23899999999,
      "d": 436.50795833333177,
      "v": 90
    },
    {
      "midi": 31,
      "hit": false,
      "t": 18095.238999999998,
      "d": 436.50795833333177,
      "v": 100
    },
    {
      "midi": 74,
      "hit": false,
      "t": 18182.540591666668,
      "d": 238.0952499999985,
      "v": 80
    },
    {
      "midi": 86,
      "hit": false,
      "t": 18182.5405916667,
      "d": 238.0952499999985,
      "v": 80
    },
    {
      "midi": 31,
      "hit": false,
      "t": 18571.429499999995,
      "d": 436.50795833333177,
      "v": 100
    },
    {
      "midi": 69,
      "hit": false,
      "t": 18658.731091666665,
      "d": 238.0952499999985,
      "v": 100
    },
    {
      "midi": 81,
      "hit": false,
      "t": 18658.731091666697,
      "d": 238.0952499999985,
      "v": 100
    },
    {
      "midi": 69,
      "hit": false,
      "t": 18896.826341666663,
      "d": 238.0952499999985,
      "v": 80
    },
    {
      "midi": 81,
      "hit": false,
      "t": 18896.826341666696,
      "d": 238.09525000000212,
      "v": 80
    },
    {
      "midi": 71,
      "hit": false,
      "t": 19047.619999999988,
      "d": 436.50795833333177,
      "v": 115
    },
    {
      "midi": 74,
      "hit": false,
      "t": 19047.619999999988,
      "d": 436.50795833333177,
      "v": 115
    },
    {
      "midi": 81,
      "hit": false,
      "t": 19047.619999999988,
      "d": 436.50795833333177,
      "v": 115
    },
    {
      "midi": 31,
      "hit": false,
      "t": 19047.61999999999,
      "d": 436.50795833333177,
      "v": 100
    },
    {
      "midi": 55,
      "hit": false,
      "t": 19047.62,
      "d": 396.82541666666657,
      "v": 115
    },
    {
      "midi": 78,
      "hit": false,
      "t": 19134.92159166666,
      "d": 238.0952499999985,
      "v": 110
    },
    {
      "midi": 90,
      "hit": false,
      "t": 19134.921591666698,
      "d": 238.09525000000212,
      "v": 110
    },
    {
      "midi": 78,
      "hit": false,
      "t": 19373.01684166666,
      "d": 238.0952499999985,
      "v": 80
    },
    {
      "midi": 90,
      "hit": false,
      "t": 19373.0168416667,
      "d": 238.09525000000212,
      "v": 80
    },
    {
      "midi": 31,
      "hit": false,
      "t": 19523.81049999999,
      "d": 436.50795833333177,
      "v": 100
    },
    {
      "midi": 54,
      "hit": false,
      "t": 19523.8105,
      "d": 396.82541666666657,
      "v": 112
    },
    {
      "midi": 74,
      "hit": false,
      "t": 19849.207341666657,
      "d": 222.22223333333386,
      "v": 100
    },
    {
      "midi": 86,
      "hit": false,
      "t": 19849.2073416667,
      "d": 222.22223333333386,
      "v": 100
    },
    {
      "midi": 71,
      "hit": false,
      "t": 20000.000999999986,
      "d": 436.50795833333177,
      "v": 105
    },
    {
      "midi": 74,
      "hit": false,
      "t": 20000.000999999986,
      "d": 436.50795833333177,
      "v": 105
    },
    {
      "midi": 81,
      "hit": false,
      "t": 20000.000999999986,
      "d": 436.50795833333177,
      "v": 105
    },
    {
      "midi": 31,
      "hit": false,
      "t": 20000.000999999986,
      "d": 436.50795833333177,
      "v": 100
    },
    {
      "midi": 78,
      "hit": false,
      "t": 20000.000999999997,
      "d": 952.3810000000012,
      "v": 100
    },
    {
      "midi": 71,
      "hit": false,
      "t": 20000.000999999997,
      "d": 952.3810000000012,
      "v": 80
    },
    {
      "midi": 78,
      "hit": false,
      "t": 20000.000999999997,
      "d": 952.3810000000012,
      "v": 80
    },
    {
      "midi": 74,
      "hit": false,
      "t": 20000.000999999997,
      "d": 952.3810000000012,
      "v": 80
    },
    {
      "midi": 74,
      "hit": false,
      "t": 20087.302591666656,
      "d": 238.0952499999985,
      "v": 80
    },
    {
      "midi": 86,
      "hit": false,
      "t": 20087.302591666703,
      "d": 238.0952499999985,
      "v": 80
    },
    {
      "midi": 31,
      "hit": false,
      "t": 20476.191499999983,
      "d": 436.50795833333177,
      "v": 100
    },
    {
      "midi": 52,
      "hit": false,
      "t": 20476.1915,
      "d": 396.82541666666657,
      "v": 110
    },
    {
      "midi": 69,
      "hit": false,
      "t": 20563.493091666653,
      "d": 238.0952499999985,
      "v": 100
    },
    {
      "midi": 81,
      "hit": false,
      "t": 20563.4930916667,
      "d": 238.0952499999985,
      "v": 100
    },
    {
      "midi": 69,
      "hit": false,
      "t": 20801.58834166665,
      "d": 238.09525000000212,
      "v": 80
    },
    {
      "midi": 81,
      "hit": false,
      "t": 20801.5883416667,
      "d": 238.09525000000212,
      "v": 80
    },
    {
      "midi": 31,
      "hit": false,
      "t": 20952.38199999998,
      "d": 436.50795833333177,
      "v": 100
    },
    {
      "midi": 71,
      "hit": false,
      "t": 20952.381999999983,
      "d": 436.50795833333177,
      "v": 95
    },
    {
      "midi": 74,
      "hit": false,
      "t": 20952.381999999983,
      "d": 436.50795833333177,
      "v": 95
    },
    {
      "midi": 81,
      "hit": false,
      "t": 20952.381999999983,
      "d": 436.50795833333177,
      "v": 95
    },
    {
      "midi": 74,
      "hit": false,
      "t": 20952.381999999998,
      "d": 952.3810000000012,
      "v": 100
    },
    {
      "midi": 71,
      "hit": false,
      "t": 20952.381999999998,
      "d": 952.3810000000012,
      "v": 80
    },
    {
      "midi": 74,
      "hit": false,
      "t": 20952.381999999998,
      "d": 952.3810000000012,
      "v": 80
    },
    {
      "midi": 78,
      "hit": false,
      "t": 21039.683591666653,
      "d": 238.0952499999985,
      "v": 110
    },
    {
      "midi": 90,
      "hit": false,
      "t": 21039.6835916667,
      "d": 238.09525000000212,
      "v": 110
    },
    {
      "midi": 78,
      "hit": false,
      "t": 21277.77884166665,
      "d": 238.0952499999985,
      "v": 80
    },
    {
      "midi": 90,
      "hit": false,
      "t": 21277.778841666703,
      "d": 238.09525000000212,
      "v": 80
    },
    {
      "midi": 31,
      "hit": false,
      "t": 21428.572499999977,
      "d": 436.50795833333177,
      "v": 100
    },
    {
      "midi": 50,
      "hit": false,
      "t": 21428.572500000002,
      "d": 396.82541666666657,
      "v": 108
    },
    {
      "midi": 74,
      "hit": false,
      "t": 21753.96934166665,
      "d": 222.22223333333386,
      "v": 100
    },
    {
      "midi": 86,
      "hit": false,
      "t": 21753.969341666707,
      "d": 222.22223333333386,
      "v": 100
    },
    {
      "midi": 31,
      "hit": false,
      "t": 21904.762999999974,
      "d": 436.50795833333177,
      "v": 100
    },
    {
      "midi": 71,
      "hit": false,
      "t": 21904.76299999998,
      "d": 436.50795833333177,
      "v": 90
    },
    {
      "midi": 74,
      "hit": false,
      "t": 21904.76299999998,
      "d": 436.50795833333177,
      "v": 90
    },
    {
      "midi": 81,
      "hit": false,
      "t": 21904.76299999998,
      "d": 436.50795833333177,
      "v": 90
    },
    {
      "midi": 71,
      "hit": false,
      "t": 21904.763,
      "d": 952.3810000000012,
      "v": 100
    },
    {
      "midi": 71,
      "hit": false,
      "t": 21904.763,
      "d": 952.3810000000012,
      "v": 70
    },
    {
      "midi": 74,
      "hit": false,
      "t": 21992.064591666647,
      "d": 238.0952499999985,
      "v": 80
    },
    {
      "midi": 86,
      "hit": false,
      "t": 21992.06459166671,
      "d": 238.0952499999985,
      "v": 80
    },
    {
      "midi": 31,
      "hit": false,
      "t": 22380.95349999997,
      "d": 436.50795833333177,
      "v": 100
    },
    {
      "midi": 45,
      "hit": false,
      "t": 22380.953500000003,
      "d": 396.82541666666657,
      "v": 102
    },
    {
      "midi": 69,
      "hit": false,
      "t": 22468.255091666644,
      "d": 238.0952499999985,
      "v": 100
    },
    {
      "midi": 81,
      "hit": false,
      "t": 22468.25509166671,
      "d": 238.09525000000212,
      "v": 100
    },
    {
      "midi": 69,
      "hit": false,
      "t": 22706.350341666643,
      "d": 238.0952499999985,
      "v": 80
    },
    {
      "midi": 81,
      "hit": false,
      "t": 22706.35034166671,
      "d": 238.09525000000212,
      "v": 80
    },
    {
      "midi": 35,
      "hit": false,
      "t": 22857.143999999967,
      "d": 436.50795833333177,
      "v": 100
    },
    {
      "midi": 69,
      "hit": false,
      "t": 22857.14399999998,
      "d": 436.50795833333177,
      "v": 115
    },
    {
      "midi": 74,
      "hit": false,
      "t": 22857.14399999998,
      "d": 436.50795833333177,
      "v": 115
    },
    {
      "midi": 78,
      "hit": false,
      "t": 22857.14399999998,
      "d": 436.50795833333177,
      "v": 115
    },
    {
      "midi": 74,
      "hit": false,
      "t": 22857.144,
      "d": 2817.460458333335,
      "v": 100
    },
    {
      "midi": 78,
      "hit": false,
      "t": 22857.144,
      "d": 2817.460458333335,
      "v": 100
    },
    {
      "midi": 69,
      "hit": false,
      "t": 22857.144,
      "d": 2817.460458333335,
      "v": 60
    },
    {
      "midi": 74,
      "hit": false,
      "t": 22857.144,
      "d": 2817.460458333335,
      "v": 60
    },
    {
      "midi": 78,
      "hit": false,
      "t": 22857.144,
      "d": 2817.460458333335,
      "v": 60
    },
    {
      "midi": 47,
      "hit": false,
      "t": 22857.144000000004,
      "d": 3730.158916666667,
      "v": 100
    },
    {
      "midi": 78,
      "hit": false,
      "t": 22944.44559166664,
      "d": 238.0952499999985,
      "v": 110
    },
    {
      "midi": 90,
      "hit": false,
      "t": 22944.445591666714,
      "d": 238.09525000000212,
      "v": 110
    },
    {
      "midi": 78,
      "hit": false,
      "t": 23182.54084166664,
      "d": 238.0952499999985,
      "v": 80
    },
    {
      "midi": 90,
      "hit": false,
      "t": 23182.540841666716,
      "d": 238.09525000000212,
      "v": 80
    },
    {
      "midi": 35,
      "hit": false,
      "t": 23333.334499999964,
      "d": 436.50795833333177,
      "v": 100
    },
    {
      "midi": 74,
      "hit": false,
      "t": 23658.73134166664,
      "d": 222.22223333333386,
      "v": 100
    },
    {
      "midi": 86,
      "hit": false,
      "t": 23658.73134166672,
      "d": 222.2222333333375,
      "v": 100
    },
    {
      "midi": 35,
      "hit": false,
      "t": 23809.52499999996,
      "d": 436.50795833333177,
      "v": 100
    },
    {
      "midi": 69,
      "hit": false,
      "t": 23809.524999999976,
      "d": 436.50795833333177,
      "v": 105
    },
    {
      "midi": 74,
      "hit": false,
      "t": 23809.524999999976,
      "d": 436.50795833333177,
      "v": 105
    },
    {
      "midi": 78,
      "hit": false,
      "t": 23809.524999999976,
      "d": 436.50795833333177,
      "v": 105
    },
    {
      "midi": 74,
      "hit": false,
      "t": 23896.826591666642,
      "d": 238.0952499999985,
      "v": 80
    },
    {
      "midi": 86,
      "hit": false,
      "t": 23896.826591666726,
      "d": 238.0952499999985,
      "v": 80
    },
    {
      "midi": 35,
      "hit": false,
      "t": 24285.71549999996,
      "d": 436.50795833333177,
      "v": 100
    },
    {
      "midi": 69,
      "hit": false,
      "t": 24373.01709166664,
      "d": 238.09525000000212,
      "v": 100
    },
    {
      "midi": 81,
      "hit": false,
      "t": 24373.017091666723,
      "d": 238.0952499999985,
      "v": 100
    },
    {
      "midi": 69,
      "hit": false,
      "t": 24611.11234166664,
      "d": 238.0952499999985,
      "v": 80
    },
    {
      "midi": 81,
      "hit": false,
      "t": 24611.11234166672,
      "d": 238.0952499999985,
      "v": 80
    },
    {
      "midi": 83,
      "hit": false,
      "t": 24761.905999999897,
      "d": 5238.095500000007,
      "v": 110
    },
    {
      "midi": 35,
      "hit": false,
      "t": 24761.905999999955,
      "d": 436.50795833333177,
      "v": 100
    },
    {
      "midi": 69,
      "hit": false,
      "t": 24761.905999999974,
      "d": 436.50795833333177,
      "v": 95
    },
    {
      "midi": 74,
      "hit": false,
      "t": 24761.905999999974,
      "d": 436.50795833333177,
      "v": 95
    },
    {
      "midi": 78,
      "hit": false,
      "t": 24761.905999999974,
      "d": 436.50795833333177,
      "v": 95
    },
    {
      "midi": 62,
      "hit": false,
      "t": 24761.90600000002,
      "d": 5238.095500000014,
      "v": 100
    },
    {
      "midi": 66,
      "hit": false,
      "t": 24761.90600000002,
      "d": 5238.095500000014,
      "v": 100
    },
    {
      "midi": 71,
      "hit": false,
      "t": 24761.90600000002,
      "d": 5238.095500000014,
      "v": 100
    },
    {
      "midi": 78,
      "hit": false,
      "t": 24849.20759166664,
      "d": 238.0952499999985,
      "v": 110
    },
    {
      "midi": 90,
      "hit": false,
      "t": 24849.20759166672,
      "d": 238.0952499999985,
      "v": 110
    },
    {
      "midi": 78,
      "hit": false,
      "t": 25087.30284166664,
      "d": 238.0952499999985,
      "v": 80
    },
    {
      "midi": 90,
      "hit": false,
      "t": 25087.30284166672,
      "d": 238.0952499999985,
      "v": 80
    },
    {
      "midi": 35,
      "hit": false,
      "t": 25238.096499999952,
      "d": 436.50795833333177,
      "v": 100
    },
    {
      "midi": 74,
      "hit": false,
      "t": 25563.493341666635,
      "d": 222.22223333333386,
      "v": 100
    },
    {
      "midi": 86,
      "hit": false,
      "t": 25563.493341666715,
      "d": 222.2222333333375,
      "v": 100
    },
    {
      "midi": 35,
      "hit": false,
      "t": 25714.28699999995,
      "d": 436.50795833333177,
      "v": 100
    },
    {
      "midi": 69,
      "hit": false,
      "t": 25714.28699999997,
      "d": 436.50795833333177,
      "v": 90
    },
    {
      "midi": 74,
      "hit": false,
      "t": 25714.28699999997,
      "d": 436.50795833333177,
      "v": 90
    },
    {
      "midi": 78,
      "hit": false,
      "t": 25714.28699999997,
      "d": 436.50795833333177,
      "v": 90
    },
    {
      "midi": 74,
      "hit": false,
      "t": 25714.287,
      "d": 952.3810000000012,
      "v": 100
    },
    {
      "midi": 78,
      "hit": false,
      "t": 25714.287,
      "d": 952.3810000000012,
      "v": 100
    },
    {
      "midi": 69,
      "hit": false,
      "t": 25714.287,
      "d": 952.3810000000012,
      "v": 70
    },
    {
      "midi": 74,
      "hit": false,
      "t": 25714.287,
      "d": 952.3810000000012,
      "v": 70
    },
    {
      "midi": 78,
      "hit": false,
      "t": 25714.287,
      "d": 952.3810000000012,
      "v": 70
    },
    {
      "midi": 74,
      "hit": false,
      "t": 25801.588591666634,
      "d": 238.0952499999985,
      "v": 80
    },
    {
      "midi": 86,
      "hit": false,
      "t": 25801.588591666718,
      "d": 238.09525000000212,
      "v": 80
    },
    {
      "midi": 35,
      "hit": false,
      "t": 26190.477499999946,
      "d": 436.50795833333177,
      "v": 100
    },
    {
      "midi": 69,
      "hit": false,
      "t": 26277.77909166663,
      "d": 238.0952499999985,
      "v": 100
    },
    {
      "midi": 81,
      "hit": false,
      "t": 26277.77909166672,
      "d": 238.09525000000212,
      "v": 100
    },
    {
      "midi": 69,
      "hit": false,
      "t": 26515.87434166663,
      "d": 238.0952499999985,
      "v": 80
    },
    {
      "midi": 81,
      "hit": false,
      "t": 26515.874341666724,
      "d": 238.0952499999985,
      "v": 80
    },
    {
      "midi": 33,
      "hit": false,
      "t": 26666.667999999943,
      "d": 436.50795833333177,
      "v": 100
    },
    {
      "midi": 81,
      "hit": false,
      "t": 26666.66799999997,
      "d": 436.50795833333177,
      "v": 115
    },
    {
      "midi": 74,
      "hit": false,
      "t": 26666.66799999997,
      "d": 436.50795833333177,
      "v": 115
    },
    {
      "midi": 78,
      "hit": false,
      "t": 26666.66799999997,
      "d": 436.50795833333177,
      "v": 115
    },
    {
      "midi": 78,
      "hit": false,
      "t": 26666.668,
      "d": 1888.8889833333342,
      "v": 100
    },
    {
      "midi": 81,
      "hit": false,
      "t": 26666.668,
      "d": 1888.8889833333342,
      "v": 100
    },
    {
      "midi": 69,
      "hit": false,
      "t": 26666.668,
      "d": 1825.3969166666684,
      "v": 60
    },
    {
      "midi": 74,
      "hit": false,
      "t": 26666.668,
      "d": 1825.3969166666684,
      "v": 60
    },
    {
      "midi": 78,
      "hit": false,
      "t": 26666.668,
      "d": 1825.3969166666684,
      "v": 60
    },
    {
      "midi": 45,
      "hit": false,
      "t": 26666.668000000005,
      "d": 3730.158916666667,
      "v": 100
    },
    {
      "midi": 78,
      "hit": false,
      "t": 26753.969591666628,
      "d": 238.0952499999985,
      "v": 110
    },
    {
      "midi": 90,
      "hit": false,
      "t": 26753.969591666722,
      "d": 238.0952499999985,
      "v": 110
    },
    {
      "midi": 78,
      "hit": false,
      "t": 26992.064841666626,
      "d": 238.0952499999985,
      "v": 80
    },
    {
      "midi": 90,
      "hit": false,
      "t": 26992.06484166672,
      "d": 238.0952499999985,
      "v": 80
    },
    {
      "midi": 33,
      "hit": false,
      "t": 27142.85849999994,
      "d": 436.50795833333177,
      "v": 100
    },
    {
      "midi": 74,
      "hit": false,
      "t": 27468.255341666623,
      "d": 222.22223333333386,
      "v": 100
    },
    {
      "midi": 86,
      "hit": false,
      "t": 27468.255341666718,
      "d": 222.22223333333386,
      "v": 100
    },
    {
      "midi": 33,
      "hit": false,
      "t": 27619.048999999937,
      "d": 436.50795833333177,
      "v": 100
    },
    {
      "midi": 81,
      "hit": false,
      "t": 27619.048999999966,
      "d": 436.50795833333177,
      "v": 105
    },
    {
      "midi": 74,
      "hit": false,
      "t": 27619.048999999966,
      "d": 436.50795833333177,
      "v": 105
    },
    {
      "midi": 78,
      "hit": false,
      "t": 27619.048999999966,
      "d": 436.50795833333177,
      "v": 105
    },
    {
      "midi": 74,
      "hit": false,
      "t": 27706.35059166662,
      "d": 238.0952499999985,
      "v": 80
    },
    {
      "midi": 86,
      "hit": false,
      "t": 27706.35059166672,
      "d": 238.0952499999985,
      "v": 80
    },
    {
      "midi": 33,
      "hit": false,
      "t": 28095.239499999934,
      "d": 436.50795833333177,
      "v": 100
    },
    {
      "midi": 69,
      "hit": false,
      "t": 28182.541091666622,
      "d": 238.0952499999985,
      "v": 100
    },
    {
      "midi": 81,
      "hit": false,
      "t": 28182.54109166672,
      "d": 238.0952499999985,
      "v": 100
    },
    {
      "midi": 69,
      "hit": false,
      "t": 28420.63634166662,
      "d": 238.0952499999985,
      "v": 80
    },
    {
      "midi": 81,
      "hit": false,
      "t": 28420.63634166672,
      "d": 238.0952499999985,
      "v": 80
    },
    {
      "midi": 33,
      "hit": false,
      "t": 28571.42999999993,
      "d": 436.50795833333177,
      "v": 100
    },
    {
      "midi": 81,
      "hit": false,
      "t": 28571.429999999964,
      "d": 436.50795833333177,
      "v": 95
    },
    {
      "midi": 74,
      "hit": false,
      "t": 28571.429999999964,
      "d": 436.50795833333177,
      "v": 95
    },
    {
      "midi": 78,
      "hit": false,
      "t": 28571.429999999964,
      "d": 436.50795833333177,
      "v": 95
    },
    {
      "midi": 74,
      "hit": false,
      "t": 28571.430000000004,
      "d": 1888.8889833333342,
      "v": 100
    },
    {
      "midi": 78,
      "hit": false,
      "t": 28571.430000000004,
      "d": 1888.8889833333342,
      "v": 100
    },
    {
      "midi": 69,
      "hit": false,
      "t": 28571.430000000004,
      "d": 1825.3969166666684,
      "v": 60
    },
    {
      "midi": 74,
      "hit": false,
      "t": 28571.430000000004,
      "d": 1825.3969166666684,
      "v": 60
    },
    {
      "midi": 78,
      "hit": false,
      "t": 28571.430000000004,
      "d": 1825.3969166666684,
      "v": 60
    },
    {
      "midi": 78,
      "hit": false,
      "t": 28658.73159166662,
      "d": 238.0952499999985,
      "v": 110
    },
    {
      "midi": 90,
      "hit": false,
      "t": 28658.731591666718,
      "d": 238.0952499999985,
      "v": 110
    },
    {
      "midi": 78,
      "hit": false,
      "t": 28896.826841666618,
      "d": 238.0952499999985,
      "v": 80
    },
    {
      "midi": 90,
      "hit": false,
      "t": 28896.826841666716,
      "d": 238.0952499999985,
      "v": 80
    },
    {
      "midi": 33,
      "hit": false,
      "t": 29047.620499999928,
      "d": 436.50795833333177,
      "v": 100
    },
    {
      "midi": 74,
      "hit": false,
      "t": 29373.017341666615,
      "d": 222.22223333333386,
      "v": 100
    },
    {
      "midi": 86,
      "hit": false,
      "t": 29373.017341666717,
      "d": 222.22223333333386,
      "v": 100
    },
    {
      "midi": 33,
      "hit": false,
      "t": 29523.810999999925,
      "d": 436.50795833333177,
      "v": 100
    },
    {
      "midi": 81,
      "hit": false,
      "t": 29523.81099999996,
      "d": 436.50795833333177,
      "v": 90
    },
    {
      "midi": 74,
      "hit": false,
      "t": 29523.81099999996,
      "d": 436.50795833333177,
      "v": 90
    },
    {
      "midi": 78,
      "hit": false,
      "t": 29523.81099999996,
      "d": 436.50795833333177,
      "v": 90
    },
    {
      "midi": 74,
      "hit": false,
      "t": 29611.112591666613,
      "d": 238.0952499999985,
      "v": 80
    },
    {
      "midi": 86,
      "hit": false,
      "t": 29611.11259166672,
      "d": 238.0952499999985,
      "v": 80
    },
    {
      "midi": 81,
      "hit": false,
      "t": 30000.001499999904,
      "d": 198.41270833333328,
      "v": 110
    },
    {
      "midi": 33,
      "hit": false,
      "t": 30000.001499999922,
      "d": 436.50795833333177,
      "v": 100
    },
    {
      "midi": 62,
      "hit": false,
      "t": 30000.001500000035,
      "d": 238.0952499999985,
      "v": 100
    },
    {
      "midi": 66,
      "hit": false,
      "t": 30000.001500000035,
      "d": 238.0952499999985,
      "v": 100
    },
    {
      "midi": 69,
      "hit": false,
      "t": 30000.001500000035,
      "d": 238.0952499999985,
      "v": 100
    },
    {
      "midi": 69,
      "hit": false,
      "t": 30087.30309166661,
      "d": 238.0952499999985,
      "v": 100
    },
    {
      "midi": 81,
      "hit": false,
      "t": 30087.303091666716,
      "d": 238.09525000000212,
      "v": 100
    },
    {
      "midi": 83,
      "hit": false,
      "t": 30238.096749999902,
      "d": 277.7777916666637,
      "v": 110
    },
    {
      "midi": 64,
      "hit": false,
      "t": 30238.096750000033,
      "d": 238.0952499999985,
      "v": 100
    },
    {
      "midi": 67,
      "hit": false,
      "t": 30238.096750000033,
      "d": 238.0952499999985,
      "v": 100
    },
    {
      "midi": 71,
      "hit": false,
      "t": 30238.096750000033,
      "d": 238.0952499999985,
      "v": 100
    },
    {
      "midi": 69,
      "hit": false,
      "t": 30325.39834166661,
      "d": 238.0952499999985,
      "v": 80
    },
    {
      "midi": 81,
      "hit": false,
      "t": 30325.398341666718,
      "d": 238.09525000000212,
      "v": 80
    },
    {
      "midi": 81,
      "hit": false,
      "t": 30476.1919999999,
      "d": 5079.365333333357,
      "v": 110
    },
    {
      "midi": 31,
      "hit": false,
      "t": 30476.19199999992,
      "d": 436.50795833333177,
      "v": 100
    },
    {
      "midi": 74,
      "hit": false,
      "t": 30476.19199999996,
      "d": 436.50795833333177,
      "v": 115
    },
    {
      "midi": 78,
      "hit": false,
      "t": 30476.19199999996,
      "d": 436.50795833333177,
      "v": 115
    },
    {
      "midi": 83,
      "hit": false,
      "t": 30476.19199999996,
      "d": 436.50795833333177,
      "v": 115
    },
    {
      "midi": 43,
      "hit": false,
      "t": 30476.192000000006,
      "d": 3730.1589166666636,
      "v": 100
    },
    {
      "midi": 78,
      "hit": false,
      "t": 30476.192000000006,
      "d": 7579.36545833333,
      "v": 100
    },
    {
      "midi": 83,
      "hit": false,
      "t": 30476.192000000006,
      "d": 7579.36545833333,
      "v": 100
    },
    {
      "midi": 71,
      "hit": false,
      "t": 30476.192000000006,
      "d": 7579.36545833333,
      "v": 60
    },
    {
      "midi": 83,
      "hit": false,
      "t": 30476.192000000006,
      "d": 7579.36545833333,
      "v": 60
    },
    {
      "midi": 78,
      "hit": false,
      "t": 30476.192000000006,
      "d": 7579.36545833333,
      "v": 60
    },
    {
      "midi": 74,
      "hit": false,
      "t": 30476.192000000006,
      "d": 7579.36545833333,
      "v": 60
    },
    {
      "midi": 62,
      "hit": false,
      "t": 30476.192000000032,
      "d": 3809.5239999999685,
      "v": 100
    },
    {
      "midi": 66,
      "hit": false,
      "t": 30476.192000000032,
      "d": 3809.5239999999685,
      "v": 100
    },
    {
      "midi": 69,
      "hit": false,
      "t": 30476.192000000032,
      "d": 3809.5239999999685,
      "v": 100
    },
    {
      "midi": 78,
      "hit": false,
      "t": 30563.493591666607,
      "d": 238.0952499999985,
      "v": 110
    },
    {
      "midi": 90,
      "hit": false,
      "t": 30563.49359166672,
      "d": 238.09525000000212,
      "v": 110
    },
    {
      "midi": 78,
      "hit": false,
      "t": 30801.588841666606,
      "d": 238.0952499999985,
      "v": 80
    },
    {
      "midi": 90,
      "hit": false,
      "t": 30801.588841666722,
      "d": 238.09525000000212,
      "v": 80
    },
    {
      "midi": 31,
      "hit": false,
      "t": 30952.382499999916,
      "d": 436.50795833333177,
      "v": 100
    },
    {
      "midi": 74,
      "hit": false,
      "t": 31277.779341666603,
      "d": 222.22223333333386,
      "v": 100
    },
    {
      "midi": 86,
      "hit": false,
      "t": 31277.779341666723,
      "d": 222.22223333333386,
      "v": 100
    },
    {
      "midi": 31,
      "hit": false,
      "t": 31428.572999999913,
      "d": 436.50795833333177,
      "v": 100
    },
    {
      "midi": 74,
      "hit": false,
      "t": 31428.572999999957,
      "d": 436.50795833333177,
      "v": 105
    },
    {
      "midi": 78,
      "hit": false,
      "t": 31428.572999999957,
      "d": 436.50795833333177,
      "v": 105
    },
    {
      "midi": 83,
      "hit": false,
      "t": 31428.572999999957,
      "d": 436.50795833333177,
      "v": 105
    },
    {
      "midi": 74,
      "hit": false,
      "t": 31515.874591666605,
      "d": 238.0952499999985,
      "v": 80
    },
    {
      "midi": 86,
      "hit": false,
      "t": 31515.874591666725,
      "d": 238.0952499999985,
      "v": 80
    },
    {
      "midi": 31,
      "hit": false,
      "t": 31904.76349999991,
      "d": 436.50795833333177,
      "v": 100
    },
    {
      "midi": 69,
      "hit": false,
      "t": 31992.0650916666,
      "d": 238.0952499999985,
      "v": 100
    },
    {
      "midi": 81,
      "hit": false,
      "t": 31992.065091666725,
      "d": 238.09525000000212,
      "v": 100
    },
    {
      "midi": 69,
      "hit": false,
      "t": 32230.1603416666,
      "d": 238.0952499999985,
      "v": 80
    },
    {
      "midi": 81,
      "hit": false,
      "t": 32230.160341666728,
      "d": 238.09525000000212,
      "v": 80
    },
    {
      "midi": 31,
      "hit": false,
      "t": 32380.953999999907,
      "d": 436.50795833333177,
      "v": 100
    },
    {
      "midi": 74,
      "hit": false,
      "t": 32380.953999999954,
      "d": 436.5079583333354,
      "v": 95
    },
    {
      "midi": 78,
      "hit": false,
      "t": 32380.953999999954,
      "d": 436.5079583333354,
      "v": 95
    },
    {
      "midi": 83,
      "hit": false,
      "t": 32380.953999999954,
      "d": 436.5079583333354,
      "v": 95
    },
    {
      "midi": 78,
      "hit": false,
      "t": 32468.2555916666,
      "d": 238.0952499999985,
      "v": 110
    },
    {
      "midi": 90,
      "hit": false,
      "t": 32468.25559166673,
      "d": 238.0952499999985,
      "v": 110
    },
    {
      "midi": 78,
      "hit": false,
      "t": 32706.350841666597,
      "d": 238.09525000000212,
      "v": 80
    },
    {
      "midi": 90,
      "hit": false,
      "t": 32706.35084166673,
      "d": 238.09525000000212,
      "v": 80
    },
    {
      "midi": 31,
      "hit": false,
      "t": 32857.14449999991,
      "d": 436.5079583333354,
      "v": 100
    },
    {
      "midi": 74,
      "hit": false,
      "t": 33182.5413416666,
      "d": 222.22223333333386,
      "v": 100
    },
    {
      "midi": 86,
      "hit": false,
      "t": 33182.54134166673,
      "d": 222.22223333332659,
      "v": 100
    },
    {
      "midi": 31,
      "hit": false,
      "t": 33333.33499999991,
      "d": 436.5079583333354,
      "v": 100
    },
    {
      "midi": 74,
      "hit": false,
      "t": 33333.334999999955,
      "d": 436.5079583333354,
      "v": 90
    },
    {
      "midi": 78,
      "hit": false,
      "t": 33333.334999999955,
      "d": 436.5079583333354,
      "v": 90
    },
    {
      "midi": 83,
      "hit": false,
      "t": 33333.334999999955,
      "d": 436.5079583333354,
      "v": 90
    },
    {
      "midi": 74,
      "hit": false,
      "t": 33420.636591666596,
      "d": 238.0952499999985,
      "v": 80
    },
    {
      "midi": 86,
      "hit": false,
      "t": 33420.63659166672,
      "d": 238.0952499999912,
      "v": 80
    },
    {
      "midi": 31,
      "hit": false,
      "t": 33809.525499999916,
      "d": 436.5079583333354,
      "v": 100
    },
    {
      "midi": 69,
      "hit": false,
      "t": 33896.82709166659,
      "d": 238.0952499999985,
      "v": 100
    },
    {
      "midi": 81,
      "hit": false,
      "t": 33896.8270916667,
      "d": 238.0952499999985,
      "v": 100
    },
    {
      "midi": 69,
      "hit": false,
      "t": 34134.92234166659,
      "d": 238.0952499999985,
      "v": 80
    },
    {
      "midi": 81,
      "hit": false,
      "t": 34134.9223416667,
      "d": 238.0952499999985,
      "v": 80
    },
    {
      "midi": 31,
      "hit": false,
      "t": 34285.71599999992,
      "d": 436.5079583333354,
      "v": 100
    },
    {
      "midi": 74,
      "hit": false,
      "t": 34285.71599999996,
      "d": 436.5079583333354,
      "v": 115
    },
    {
      "midi": 78,
      "hit": false,
      "t": 34285.71599999996,
      "d": 436.5079583333354,
      "v": 115
    },
    {
      "midi": 83,
      "hit": false,
      "t": 34285.71599999996,
      "d": 436.5079583333354,
      "v": 115
    },
    {
      "midi": 43,
      "hit": false,
      "t": 34285.716,
      "d": 396.82541666666657,
      "v": 115
    },
    {
      "midi": 78,
      "hit": false,
      "t": 34373.01759166659,
      "d": 238.0952499999985,
      "v": 110
    },
    {
      "midi": 90,
      "hit": false,
      "t": 34373.0175916667,
      "d": 238.0952499999985,
      "v": 110
    },
    {
      "midi": 78,
      "hit": false,
      "t": 34611.11284166659,
      "d": 238.0952499999985,
      "v": 80
    },
    {
      "midi": 90,
      "hit": false,
      "t": 34611.1128416667,
      "d": 238.0952499999985,
      "v": 80
    },
    {
      "midi": 31,
      "hit": false,
      "t": 34761.906499999925,
      "d": 436.5079583333354,
      "v": 100
    },
    {
      "midi": 42,
      "hit": false,
      "t": 34761.9065,
      "d": 396.82541666666657,
      "v": 112
    },
    {
      "midi": 74,
      "hit": false,
      "t": 35087.30334166659,
      "d": 222.22223333333386,
      "v": 100
    },
    {
      "midi": 86,
      "hit": false,
      "t": 35087.303341666695,
      "d": 222.22223333332659,
      "v": 100
    },
    {
      "midi": 31,
      "hit": false,
      "t": 35238.09699999993,
      "d": 436.5079583333354,
      "v": 100
    },
    {
      "midi": 74,
      "hit": false,
      "t": 35238.09699999996,
      "d": 436.5079583333354,
      "v": 105
    },
    {
      "midi": 78,
      "hit": false,
      "t": 35238.09699999996,
      "d": 436.5079583333354,
      "v": 105
    },
    {
      "midi": 83,
      "hit": false,
      "t": 35238.09699999996,
      "d": 436.5079583333354,
      "v": 105
    },
    {
      "midi": 74,
      "hit": false,
      "t": 35325.39859166659,
      "d": 238.0952499999985,
      "v": 80
    },
    {
      "midi": 86,
      "hit": false,
      "t": 35325.398591666686,
      "d": 238.0952499999912,
      "v": 80
    },
    {
      "midi": 31,
      "hit": false,
      "t": 35714.28749999993,
      "d": 436.5079583333354,
      "v": 100
    },
    {
      "midi": 40,
      "hit": false,
      "t": 35714.2875,
      "d": 396.82541666666657,
      "v": 110
    },
    {
      "midi": 69,
      "hit": false,
      "t": 35801.58909166659,
      "d": 238.0952499999985,
      "v": 100
    },
    {
      "midi": 81,
      "hit": false,
      "t": 35801.589091666676,
      "d": 238.0952499999985,
      "v": 100
    },
    {
      "midi": 69,
      "hit": false,
      "t": 36039.68434166659,
      "d": 238.09525000000576,
      "v": 80
    },
    {
      "midi": 81,
      "hit": false,
      "t": 36039.684341666674,
      "d": 238.0952499999985,
      "v": 80
    },
    {
      "midi": 31,
      "hit": false,
      "t": 36190.47799999994,
      "d": 436.5079583333354,
      "v": 100
    },
    {
      "midi": 74,
      "hit": false,
      "t": 36190.47799999996,
      "d": 436.5079583333354,
      "v": 95
    },
    {
      "midi": 78,
      "hit": false,
      "t": 36190.47799999996,
      "d": 436.5079583333354,
      "v": 95
    },
    {
      "midi": 83,
      "hit": false,
      "t": 36190.47799999996,
      "d": 436.5079583333354,
      "v": 95
    },
    {
      "midi": 78,
      "hit": false,
      "t": 36277.77959166659,
      "d": 238.0952499999985,
      "v": 110
    },
    {
      "midi": 90,
      "hit": false,
      "t": 36277.77959166667,
      "d": 238.0952499999985,
      "v": 110
    },
    {
      "midi": 78,
      "hit": false,
      "t": 36515.87484166659,
      "d": 238.0952499999985,
      "v": 80
    },
    {
      "midi": 90,
      "hit": false,
      "t": 36515.87484166667,
      "d": 238.0952499999912,
      "v": 80
    },
    {
      "midi": 31,
      "hit": false,
      "t": 36666.66849999994,
      "d": 436.5079583333354,
      "v": 100
    },
    {
      "midi": 38,
      "hit": false,
      "t": 36666.6685,
      "d": 396.82541666666657,
      "v": 108
    },
    {
      "midi": 74,
      "hit": false,
      "t": 36992.06534166659,
      "d": 222.22223333333386,
      "v": 100
    },
    {
      "midi": 86,
      "hit": false,
      "t": 36992.065341666654,
      "d": 222.22223333332659,
      "v": 100
    },
    {
      "midi": 31,
      "hit": false,
      "t": 37142.858999999946,
      "d": 436.5079583333354,
      "v": 100
    },
    {
      "midi": 74,
      "hit": false,
      "t": 37142.85899999996,
      "d": 436.5079583333354,
      "v": 90
    },
    {
      "midi": 78,
      "hit": false,
      "t": 37142.85899999996,
      "d": 436.5079583333354,
      "v": 90
    },
    {
      "midi": 83,
      "hit": false,
      "t": 37142.85899999996,
      "d": 436.5079583333354,
      "v": 90
    },
    {
      "midi": 74,
      "hit": false,
      "t": 37230.16059166659,
      "d": 238.0952499999985,
      "v": 80
    },
    {
      "midi": 86,
      "hit": false,
      "t": 37230.160591666645,
      "d": 238.0952499999912,
      "v": 80
    },
    {
      "midi": 31,
      "hit": false,
      "t": 37619.04949999995,
      "d": 436.5079583333354,
      "v": 100
    },
    {
      "midi": 42,
      "hit": false,
      "t": 37619.0495,
      "d": 396.82541666666657,
      "v": 102
    },
    {
      "midi": 69,
      "hit": false,
      "t": 37706.351091666584,
      "d": 238.0952499999985,
      "v": 100
    },
    {
      "midi": 81,
      "hit": false,
      "t": 37706.351091666635,
      "d": 238.0952499999912,
      "v": 100
    },
    {
      "midi": 69,
      "hit": false,
      "t": 37944.44634166658,
      "d": 238.0952499999985,
      "v": 80
    },
    {
      "midi": 81,
      "hit": false,
      "t": 37944.446341666626,
      "d": 238.0952499999912,
      "v": 80
    },
    {
      "midi": 79,
      "hit": false,
      "t": 38095.23999999992,
      "d": 238.0952499999985,
      "v": 110
    },
    {
      "midi": 91,
      "hit": false,
      "t": 38095.239999999954,
      "d": 238.0952499999912,
      "v": 110
    },
    {
      "midi": 28,
      "hit": false,
      "t": 38095.239999999954,
      "d": 436.5079583333354,
      "v": 100
    },
    {
      "midi": 71,
      "hit": false,
      "t": 38095.23999999996,
      "d": 436.5079583333354,
      "v": 115
    },
    {
      "midi": 74,
      "hit": false,
      "t": 38095.23999999996,
      "d": 436.5079583333354,
      "v": 115
    },
    {
      "midi": 79,
      "hit": false,
      "t": 38095.23999999996,
      "d": 436.5079583333354,
      "v": 115
    },
    {
      "midi": 40,
      "hit": false,
      "t": 38095.24,
      "d": 6587.301916666664,
      "v": 100
    },
    {
      "midi": 79,
      "hit": false,
      "t": 38095.240000000005,
      "d": 3769.841458333336,
      "v": 100
    },
    {
      "midi": 71,
      "hit": false,
      "t": 38095.240000000005,
      "d": 3769.841458333336,
      "v": 60
    },
    {
      "midi": 79,
      "hit": false,
      "t": 38095.240000000005,
      "d": 3769.841458333336,
      "v": 60
    },
    {
      "midi": 76,
      "hit": false,
      "t": 38095.240000000005,
      "d": 3769.841458333336,
      "v": 60
    },
    {
      "midi": 74,
      "hit": false,
      "t": 38095.240000000005,
      "d": 3769.841458333336,
      "v": 60
    },
    {
      "midi": 79,
      "hit": false,
      "t": 38333.33524999992,
      "d": 238.0952499999985,
      "v": 80
    },
    {
      "midi": 91,
      "hit": false,
      "t": 38333.335249999946,
      "d": 238.0952499999912,
      "v": 80
    },
    {
      "midi": 28,
      "hit": false,
      "t": 38571.43049999996,
      "d": 436.5079583333354,
      "v": 100
    },
    {
      "midi": 74,
      "hit": false,
      "t": 38809.52574999991,
      "d": 222.22223333333386,
      "v": 100
    },
    {
      "midi": 86,
      "hit": false,
      "t": 38809.52574999993,
      "d": 222.22223333332659,
      "v": 100
    },
    {
      "midi": 74,
      "hit": false,
      "t": 39047.62099999991,
      "d": 238.0952499999985,
      "v": 80
    },
    {
      "midi": 86,
      "hit": false,
      "t": 39047.62099999992,
      "d": 238.0952499999985,
      "v": 80
    },
    {
      "midi": 71,
      "hit": false,
      "t": 39047.62099999996,
      "d": 436.5079583333354,
      "v": 105
    },
    {
      "midi": 74,
      "hit": false,
      "t": 39047.62099999996,
      "d": 436.5079583333354,
      "v": 105
    },
    {
      "midi": 79,
      "hit": false,
      "t": 39047.62099999996,
      "d": 436.5079583333354,
      "v": 105
    },
    {
      "midi": 28,
      "hit": false,
      "t": 39047.62099999996,
      "d": 436.5079583333354,
      "v": 100
    },
    {
      "midi": 71,
      "hit": false,
      "t": 39523.81149999991,
      "d": 238.0952499999985,
      "v": 100
    },
    {
      "midi": 83,
      "hit": false,
      "t": 39523.811499999916,
      "d": 238.0952499999912,
      "v": 100
    },
    {
      "midi": 28,
      "hit": false,
      "t": 39523.81149999997,
      "d": 436.5079583333354,
      "v": 100
    },
    {
      "midi": 71,
      "hit": false,
      "t": 39761.90674999991,
      "d": 238.0952499999985,
      "v": 80
    },
    {
      "midi": 83,
      "hit": false,
      "t": 39761.90674999991,
      "d": 238.0952499999912,
      "v": 80
    },
    {
      "midi": 91,
      "hit": false,
      "t": 40000.0019999999,
      "d": 238.0952499999985,
      "v": 110
    },
    {
      "midi": 79,
      "hit": false,
      "t": 40000.001999999906,
      "d": 238.0952499999985,
      "v": 110
    },
    {
      "midi": 71,
      "hit": false,
      "t": 40000.001999999964,
      "d": 436.5079583333354,
      "v": 95
    },
    {
      "midi": 74,
      "hit": false,
      "t": 40000.001999999964,
      "d": 436.5079583333354,
      "v": 95
    },
    {
      "midi": 79,
      "hit": false,
      "t": 40000.001999999964,
      "d": 436.5079583333354,
      "v": 95
    },
    {
      "midi": 28,
      "hit": false,
      "t": 40000.00199999997,
      "d": 436.5079583333354,
      "v": 100
    },
    {
      "midi": 91,
      "hit": false,
      "t": 40238.0972499999,
      "d": 238.0952499999985,
      "v": 80
    },
    {
      "midi": 79,
      "hit": false,
      "t": 40238.097249999904,
      "d": 238.0952499999985,
      "v": 80
    },
    {
      "midi": 28,
      "hit": false,
      "t": 40476.192499999976,
      "d": 436.5079583333354,
      "v": 100
    },
    {
      "midi": 86,
      "hit": false,
      "t": 40714.287749999894,
      "d": 222.22223333333386,
      "v": 100
    },
    {
      "midi": 74,
      "hit": false,
      "t": 40714.2877499999,
      "d": 222.22223333333386,
      "v": 100
    },
    {
      "midi": 86,
      "hit": false,
      "t": 40952.38299999989,
      "d": 238.0952499999912,
      "v": 80
    },
    {
      "midi": 74,
      "hit": false,
      "t": 40952.3829999999,
      "d": 238.0952499999985,
      "v": 80
    },
    {
      "midi": 71,
      "hit": false,
      "t": 40952.382999999965,
      "d": 436.5079583333354,
      "v": 90
    },
    {
      "midi": 74,
      "hit": false,
      "t": 40952.382999999965,
      "d": 436.5079583333354,
      "v": 90
    },
    {
      "midi": 79,
      "hit": false,
      "t": 40952.382999999965,
      "d": 436.5079583333354,
      "v": 90
    },
    {
      "midi": 28,
      "hit": false,
      "t": 40952.38299999998,
      "d": 436.5079583333354,
      "v": 100
    },
    {
      "midi": 83,
      "hit": false,
      "t": 41428.573499999875,
      "d": 238.0952499999985,
      "v": 100
    },
    {
      "midi": 71,
      "hit": false,
      "t": 41428.5734999999,
      "d": 238.0952499999985,
      "v": 100
    },
    {
      "midi": 28,
      "hit": false,
      "t": 41428.573499999984,
      "d": 436.5079583333354,
      "v": 100
    },
    {
      "midi": 83,
      "hit": false,
      "t": 41666.66874999987,
      "d": 238.0952499999985,
      "v": 80
    },
    {
      "midi": 71,
      "hit": false,
      "t": 41666.668749999895,
      "d": 238.0952499999985,
      "v": 80
    },
    {
      "midi": 91,
      "hit": false,
      "t": 41904.76399999987,
      "d": 238.0952499999985,
      "v": 110
    },
    {
      "midi": 79,
      "hit": false,
      "t": 41904.763999999894,
      "d": 238.0952499999985,
      "v": 110
    },
    {
      "midi": 83,
      "hit": false,
      "t": 41904.763999999945,
      "d": 3333.333500000037,
      "v": 110
    },
    {
      "midi": 71,
      "hit": false,
      "t": 41904.76399999997,
      "d": 436.5079583333354,
      "v": 115
    },
    {
      "midi": 74,
      "hit": false,
      "t": 41904.76399999997,
      "d": 436.5079583333354,
      "v": 115
    },
    {
      "midi": 79,
      "hit": false,
      "t": 41904.76399999997,
      "d": 436.5079583333354,
      "v": 115
    },
    {
      "midi": 28,
      "hit": false,
      "t": 41904.76399999999,
      "d": 436.5079583333354,
      "v": 100
    },
    {
      "midi": 62,
      "hit": false,
      "t": 41904.764,
      "d": 3333.333499999979,
      "v": 100
    },
    {
      "midi": 67,
      "hit": false,
      "t": 41904.764,
      "d": 3333.333499999979,
      "v": 100
    },
    {
      "midi": 71,
      "hit": false,
      "t": 41904.764,
      "d": 3333.333499999979,
      "v": 100
    },
    {
      "midi": 79,
      "hit": false,
      "t": 41904.76400000001,
      "d": 1888.8889833333305,
      "v": 100
    },
    {
      "midi": 83,
      "hit": false,
      "t": 41904.76400000001,
      "d": 1888.8889833333305,
      "v": 100
    },
    {
      "midi": 71,
      "hit": false,
      "t": 41904.76400000001,
      "d": 1825.3969166666648,
      "v": 70
    },
    {
      "midi": 76,
      "hit": false,
      "t": 41904.76400000001,
      "d": 1825.3969166666648,
      "v": 70
    },
    {
      "midi": 83,
      "hit": false,
      "t": 41904.76400000001,
      "d": 1825.3969166666648,
      "v": 70
    },
    {
      "midi": 79,
      "hit": false,
      "t": 41904.76400000001,
      "d": 1825.3969166666648,
      "v": 70
    },
    {
      "midi": 74,
      "hit": false,
      "t": 41904.76400000001,
      "d": 1825.3969166666648,
      "v": 70
    },
    {
      "midi": 91,
      "hit": false,
      "t": 42142.85924999987,
      "d": 238.0952499999912,
      "v": 80
    },
    {
      "midi": 79,
      "hit": false,
      "t": 42142.85924999989,
      "d": 238.0952499999985,
      "v": 80
    },
    {
      "midi": 28,
      "hit": false,
      "t": 42380.95449999999,
      "d": 436.5079583333354,
      "v": 100
    },
    {
      "midi": 86,
      "hit": false,
      "t": 42619.04974999985,
      "d": 222.22223333332659,
      "v": 100
    },
    {
      "midi": 74,
      "hit": false,
      "t": 42619.04974999989,
      "d": 222.22223333333386,
      "v": 100
    },
    {
      "midi": 86,
      "hit": false,
      "t": 42857.144999999844,
      "d": 238.0952499999985,
      "v": 80
    },
    {
      "midi": 74,
      "hit": false,
      "t": 42857.14499999989,
      "d": 238.0952499999985,
      "v": 80
    },
    {
      "midi": 71,
      "hit": false,
      "t": 42857.14499999997,
      "d": 436.5079583333354,
      "v": 105
    },
    {
      "midi": 74,
      "hit": false,
      "t": 42857.14499999997,
      "d": 436.5079583333354,
      "v": 105
    },
    {
      "midi": 79,
      "hit": false,
      "t": 42857.14499999997,
      "d": 436.5079583333354,
      "v": 105
    },
    {
      "midi": 28,
      "hit": false,
      "t": 42857.145,
      "d": 436.5079583333354,
      "v": 100
    },
    {
      "midi": 83,
      "hit": false,
      "t": 43333.33549999984,
      "d": 238.0952499999985,
      "v": 100
    },
    {
      "midi": 71,
      "hit": false,
      "t": 43333.335499999885,
      "d": 238.0952499999985,
      "v": 100
    },
    {
      "midi": 28,
      "hit": false,
      "t": 43333.3355,
      "d": 436.5079583333354,
      "v": 100
    },
    {
      "midi": 83,
      "hit": false,
      "t": 43571.43074999984,
      "d": 238.0952499999985,
      "v": 80
    },
    {
      "midi": 71,
      "hit": false,
      "t": 43571.43074999988,
      "d": 238.0952499999985,
      "v": 80
    },
    {
      "midi": 91,
      "hit": false,
      "t": 43809.52599999984,
      "d": 238.0952499999912,
      "v": 110
    },
    {
      "midi": 79,
      "hit": false,
      "t": 43809.52599999988,
      "d": 238.0952499999985,
      "v": 110
    },
    {
      "midi": 71,
      "hit": false,
      "t": 43809.52599999997,
      "d": 436.5079583333354,
      "v": 95
    },
    {
      "midi": 74,
      "hit": false,
      "t": 43809.52599999997,
      "d": 436.5079583333354,
      "v": 95
    },
    {
      "midi": 79,
      "hit": false,
      "t": 43809.52599999997,
      "d": 436.5079583333354,
      "v": 95
    },
    {
      "midi": 28,
      "hit": false,
      "t": 43809.526000000005,
      "d": 436.5079583333354,
      "v": 100
    },
    {
      "midi": 76,
      "hit": false,
      "t": 43809.526000000005,
      "d": 952.3810000000012,
      "v": 100
    },
    {
      "midi": 79,
      "hit": false,
      "t": 43809.526000000005,
      "d": 952.3810000000012,
      "v": 100
    },
    {
      "midi": 71,
      "hit": false,
      "t": 43809.526000000005,
      "d": 952.3810000000012,
      "v": 80
    },
    {
      "midi": 79,
      "hit": false,
      "t": 43809.526000000005,
      "d": 952.3810000000012,
      "v": 80
    },
    {
      "midi": 76,
      "hit": false,
      "t": 43809.526000000005,
      "d": 952.3810000000012,
      "v": 80
    },
    {
      "midi": 74,
      "hit": false,
      "t": 43809.526000000005,
      "d": 952.3810000000012,
      "v": 80
    },
    {
      "midi": 91,
      "hit": false,
      "t": 44047.62124999983,
      "d": 238.0952499999985,
      "v": 80
    },
    {
      "midi": 79,
      "hit": false,
      "t": 44047.62124999988,
      "d": 238.0952499999985,
      "v": 80
    },
    {
      "midi": 28,
      "hit": false,
      "t": 44285.71650000001,
      "d": 436.5079583333354,
      "v": 100
    },
    {
      "midi": 86,
      "hit": false,
      "t": 44523.811749999826,
      "d": 222.22223333333386,
      "v": 100
    },
    {
      "midi": 74,
      "hit": false,
      "t": 44523.81174999988,
      "d": 222.22223333333386,
      "v": 100
    },
    {
      "midi": 86,
      "hit": false,
      "t": 44761.906999999825,
      "d": 238.0952499999985,
      "v": 80
    },
    {
      "midi": 74,
      "hit": false,
      "t": 44761.906999999876,
      "d": 238.0952499999985,
      "v": 80
    },
    {
      "midi": 71,
      "hit": false,
      "t": 44761.90699999997,
      "d": 436.5079583333354,
      "v": 90
    },
    {
      "midi": 74,
      "hit": false,
      "t": 44761.90699999997,
      "d": 436.5079583333354,
      "v": 90
    },
    {
      "midi": 79,
      "hit": false,
      "t": 44761.90699999997,
      "d": 436.5079583333354,
      "v": 90
    },
    {
      "midi": 40,
      "hit": false,
      "t": 44761.90699999999,
      "d": 396.82541666666657,
      "v": 102
    },
    {
      "midi": 71,
      "hit": false,
      "t": 44761.90700000001,
      "d": 952.3810000000012,
      "v": 100
    },
    {
      "midi": 74,
      "hit": false,
      "t": 44761.90700000001,
      "d": 952.3810000000012,
      "v": 100
    },
    {
      "midi": 71,
      "hit": false,
      "t": 44761.90700000001,
      "d": 952.3810000000012,
      "v": 70
    },
    {
      "midi": 74,
      "hit": false,
      "t": 44761.90700000001,
      "d": 952.3810000000012,
      "v": 70
    },
    {
      "midi": 28,
      "hit": false,
      "t": 44761.907000000014,
      "d": 436.5079583333354,
      "v": 100
    },
    {
      "midi": 83,
      "hit": false,
      "t": 45238.09749999982,
      "d": 238.0952499999985,
      "v": 100
    },
    {
      "midi": 71,
      "hit": false,
      "t": 45238.09749999987,
      "d": 238.0952499999985,
      "v": 100
    },
    {
      "midi": 81,
      "hit": false,
      "t": 45238.09749999998,
      "d": 198.41270833333692,
      "v": 110
    },
    {
      "midi": 61,
      "hit": false,
      "t": 45238.09749999998,
      "d": 238.0952499999985,
      "v": 100
    },
    {
      "midi": 66,
      "hit": false,
      "t": 45238.09749999998,
      "d": 238.0952499999985,
      "v": 100
    },
    {
      "midi": 69,
      "hit": false,
      "t": 45238.09749999998,
      "d": 238.0952499999985,
      "v": 100
    },
    {
      "midi": 41,
      "hit": false,
      "t": 45238.09749999999,
      "d": 460.31748333333235,
      "v": 102
    },
    {
      "midi": 28,
      "hit": false,
      "t": 45238.09750000002,
      "d": 436.5079583333354,
      "v": 100
    },
    {
      "midi": 83,
      "hit": false,
      "t": 45476.19274999982,
      "d": 238.0952499999985,
      "v": 80
    },
    {
      "midi": 71,
      "hit": false,
      "t": 45476.19274999987,
      "d": 238.0952499999985,
      "v": 80
    },
    {
      "midi": 62,
      "hit": false,
      "t": 45476.19274999998,
      "d": 238.0952499999985,
      "v": 100
    },
    {
      "midi": 67,
      "hit": false,
      "t": 45476.19274999998,
      "d": 238.0952499999985,
      "v": 100
    },
    {
      "midi": 71,
      "hit": false,
      "t": 45476.19274999998,
      "d": 238.0952499999985,
      "v": 100
    },
    {
      "midi": 83,
      "hit": false,
      "t": 45476.19274999999,
      "d": 198.41270833333692,
      "v": 110
    },
    {
      "midi": 85,
      "hit": false,
      "t": 45682.54196666666,
      "d": 9444.444916666675,
      "v": 110
    },
    {
      "midi": 93,
      "hit": false,
      "t": 45714.28799999982,
      "d": 238.0952499999912,
      "v": 110
    },
    {
      "midi": 81,
      "hit": false,
      "t": 45714.28799999987,
      "d": 238.0952499999985,
      "v": 110
    },
    {
      "midi": 73,
      "hit": false,
      "t": 45714.28799999997,
      "d": 436.5079583333354,
      "v": 115
    },
    {
      "midi": 76,
      "hit": false,
      "t": 45714.28799999997,
      "d": 436.5079583333354,
      "v": 115
    },
    {
      "midi": 81,
      "hit": false,
      "t": 45714.28799999997,
      "d": 436.5079583333354,
      "v": 115
    },
    {
      "midi": 64,
      "hit": false,
      "t": 45714.28799999998,
      "d": 7603.174983333272,
      "v": 100
    },
    {
      "midi": 69,
      "hit": false,
      "t": 45714.28799999998,
      "d": 7603.174983333272,
      "v": 100
    },
    {
      "midi": 73,
      "hit": false,
      "t": 45714.28799999998,
      "d": 7603.174983333272,
      "v": 100
    },
    {
      "midi": 42,
      "hit": false,
      "t": 45714.287999999986,
      "d": 1349.2064166666678,
      "v": 110
    },
    {
      "midi": 73,
      "hit": false,
      "t": 45714.28800000001,
      "d": 2817.460458333335,
      "v": 100
    },
    {
      "midi": 76,
      "hit": false,
      "t": 45714.28800000001,
      "d": 2817.460458333335,
      "v": 100
    },
    {
      "midi": 69,
      "hit": false,
      "t": 45714.28800000001,
      "d": 2817.460458333335,
      "v": 80
    },
    {
      "midi": 73,
      "hit": false,
      "t": 45714.28800000001,
      "d": 2817.460458333335,
      "v": 80
    },
    {
      "midi": 76,
      "hit": false,
      "t": 45714.28800000001,
      "d": 2817.460458333335,
      "v": 80
    },
    {
      "midi": 30,
      "hit": false,
      "t": 45714.28800000002,
      "d": 436.5079583333354,
      "v": 100
    },
    {
      "midi": 93,
      "hit": false,
      "t": 45952.38324999981,
      "d": 238.0952499999912,
      "v": 80
    },
    {
      "midi": 81,
      "hit": false,
      "t": 45952.38324999987,
      "d": 238.0952499999985,
      "v": 80
    },
    {
      "midi": 30,
      "hit": false,
      "t": 46190.47850000003,
      "d": 436.5079583333354,
      "v": 100
    },
    {
      "midi": 88,
      "hit": false,
      "t": 46428.5737499998,
      "d": 222.22223333333386,
      "v": 100
    },
    {
      "midi": 76,
      "hit": false,
      "t": 46428.573749999865,
      "d": 222.22223333333386,
      "v": 100
    },
    {
      "midi": 88,
      "hit": false,
      "t": 46666.6689999998,
      "d": 238.0952499999985,
      "v": 80
    },
    {
      "midi": 76,
      "hit": false,
      "t": 46666.66899999986,
      "d": 238.0952499999985,
      "v": 80
    },
    {
      "midi": 73,
      "hit": false,
      "t": 46666.66899999997,
      "d": 436.5079583333354,
      "v": 105
    },
    {
      "midi": 76,
      "hit": false,
      "t": 46666.66899999997,
      "d": 436.5079583333354,
      "v": 105
    },
    {
      "midi": 81,
      "hit": false,
      "t": 46666.66899999997,
      "d": 436.5079583333354,
      "v": 105
    },
    {
      "midi": 30,
      "hit": false,
      "t": 46666.66900000003,
      "d": 436.5079583333354,
      "v": 100
    },
    {
      "midi": 85,
      "hit": false,
      "t": 47142.859499999795,
      "d": 238.0952499999985,
      "v": 100
    },
    {
      "midi": 73,
      "hit": false,
      "t": 47142.85949999986,
      "d": 238.0952499999985,
      "v": 100
    },
    {
      "midi": 37,
      "hit": false,
      "t": 47142.859499999984,
      "d": 1349.2064166666678,
      "v": 110
    },
    {
      "midi": 30,
      "hit": false,
      "t": 47142.859500000035,
      "d": 436.5079583333354,
      "v": 100
    },
    {
      "midi": 85,
      "hit": false,
      "t": 47380.95474999979,
      "d": 238.0952499999912,
      "v": 80
    },
    {
      "midi": 73,
      "hit": false,
      "t": 47380.95474999986,
      "d": 238.0952499999985,
      "v": 80
    },
    {
      "midi": 93,
      "hit": false,
      "t": 47619.049999999785,
      "d": 238.0952499999912,
      "v": 110
    },
    {
      "midi": 81,
      "hit": false,
      "t": 47619.04999999986,
      "d": 238.0952499999985,
      "v": 110
    },
    {
      "midi": 73,
      "hit": false,
      "t": 47619.049999999974,
      "d": 436.5079583333354,
      "v": 95
    },
    {
      "midi": 76,
      "hit": false,
      "t": 47619.049999999974,
      "d": 436.5079583333354,
      "v": 95
    },
    {
      "midi": 81,
      "hit": false,
      "t": 47619.049999999974,
      "d": 436.5079583333354,
      "v": 95
    },
    {
      "midi": 30,
      "hit": false,
      "t": 47619.05000000004,
      "d": 436.5079583333354,
      "v": 100
    },
    {
      "midi": 93,
      "hit": false,
      "t": 47857.145249999776,
      "d": 238.0952499999912,
      "v": 80
    },
    {
      "midi": 81,
      "hit": false,
      "t": 47857.145249999856,
      "d": 238.0952499999985,
      "v": 80
    },
    {
      "midi": 30,
      "hit": false,
      "t": 48095.24050000004,
      "d": 436.5079583333354,
      "v": 100
    },
    {
      "midi": 88,
      "hit": false,
      "t": 48333.33574999976,
      "d": 222.22223333333386,
      "v": 100
    },
    {
      "midi": 76,
      "hit": false,
      "t": 48333.33574999985,
      "d": 222.22223333333386,
      "v": 100
    },
    {
      "midi": 88,
      "hit": false,
      "t": 48571.43099999976,
      "d": 238.0952499999985,
      "v": 80
    },
    {
      "midi": 76,
      "hit": false,
      "t": 48571.43099999985,
      "d": 238.0952499999985,
      "v": 80
    },
    {
      "midi": 76,
      "hit": false,
      "t": 48571.430999999975,
      "d": 436.5079583333354,
      "v": 90
    },
    {
      "midi": 81,
      "hit": false,
      "t": 48571.430999999975,
      "d": 436.5079583333354,
      "v": 90
    },
    {
      "midi": 73,
      "hit": false,
      "t": 48571.430999999975,
      "d": 436.5079583333354,
      "v": 90
    },
    {
      "midi": 30,
      "hit": false,
      "t": 48571.43099999998,
      "d": 3730.158916666667,
      "v": 110
    },
    {
      "midi": 73,
      "hit": false,
      "t": 48571.43100000001,
      "d": 952.3810000000012,
      "v": 100
    },
    {
      "midi": 76,
      "hit": false,
      "t": 48571.43100000001,
      "d": 952.3810000000012,
      "v": 100
    },
    {
      "midi": 69,
      "hit": false,
      "t": 48571.43100000001,
      "d": 952.3810000000012,
      "v": 80
    },
    {
      "midi": 73,
      "hit": false,
      "t": 48571.43100000001,
      "d": 952.3810000000012,
      "v": 80
    },
    {
      "midi": 76,
      "hit": false,
      "t": 48571.43100000001,
      "d": 952.3810000000012,
      "v": 80
    },
    {
      "midi": 30,
      "hit": false,
      "t": 48571.43100000005,
      "d": 436.5079583333354,
      "v": 100
    },
    {
      "midi": 85,
      "hit": false,
      "t": 49047.621499999754,
      "d": 238.0952499999985,
      "v": 100
    },
    {
      "midi": 73,
      "hit": false,
      "t": 49047.62149999985,
      "d": 238.0952499999985,
      "v": 100
    },
    {
      "midi": 30,
      "hit": false,
      "t": 49047.62150000005,
      "d": 436.5079583333354,
      "v": 100
    },
    {
      "midi": 85,
      "hit": false,
      "t": 49285.71674999975,
      "d": 238.0952499999985,
      "v": 80
    },
    {
      "midi": 73,
      "hit": false,
      "t": 49285.71674999985,
      "d": 238.0952499999985,
      "v": 80
    },
    {
      "midi": 93,
      "hit": false,
      "t": 49523.81199999975,
      "d": 238.0952499999985,
      "v": 110
    },
    {
      "midi": 81,
      "hit": false,
      "t": 49523.811999999845,
      "d": 238.0952499999985,
      "v": 110
    },
    {
      "midi": 73,
      "hit": false,
      "t": 49523.811999999976,
      "d": 436.5079583333354,
      "v": 115
    },
    {
      "midi": 76,
      "hit": false,
      "t": 49523.811999999976,
      "d": 436.5079583333354,
      "v": 115
    },
    {
      "midi": 81,
      "hit": false,
      "t": 49523.811999999976,
      "d": 436.5079583333354,
      "v": 115
    },
    {
      "midi": 76,
      "hit": false,
      "t": 49523.81200000001,
      "d": 1888.8889833333305,
      "v": 100
    },
    {
      "midi": 81,
      "hit": false,
      "t": 49523.81200000001,
      "d": 1888.8889833333305,
      "v": 100
    },
    {
      "midi": 69,
      "hit": false,
      "t": 49523.81200000001,
      "d": 1825.3969166666648,
      "v": 100
    },
    {
      "midi": 81,
      "hit": false,
      "t": 49523.81200000001,
      "d": 1825.3969166666648,
      "v": 100
    },
    {
      "midi": 76,
      "hit": false,
      "t": 49523.81200000001,
      "d": 1825.3969166666648,
      "v": 100
    },
    {
      "midi": 73,
      "hit": false,
      "t": 49523.81200000001,
      "d": 1825.3969166666648,
      "v": 100
    },
    {
      "midi": 30,
      "hit": false,
      "t": 49523.812000000056,
      "d": 436.5079583333354,
      "v": 100
    },
    {
      "midi": 93,
      "hit": false,
      "t": 49761.90724999975,
      "d": 238.0952499999985,
      "v": 80
    },
    {
      "midi": 81,
      "hit": false,
      "t": 49761.907249999844,
      "d": 238.0952499999985,
      "v": 80
    },
    {
      "midi": 30,
      "hit": false,
      "t": 50000.00250000006,
      "d": 436.5079583333354,
      "v": 100
    },
    {
      "midi": 88,
      "hit": false,
      "t": 50238.09774999974,
      "d": 222.22223333332659,
      "v": 100
    },
    {
      "midi": 76,
      "hit": false,
      "t": 50238.09774999984,
      "d": 222.22223333333386,
      "v": 100
    },
    {
      "midi": 88,
      "hit": false,
      "t": 50476.19299999973,
      "d": 238.0952499999912,
      "v": 80
    },
    {
      "midi": 76,
      "hit": false,
      "t": 50476.19299999984,
      "d": 238.0952499999985,
      "v": 80
    },
    {
      "midi": 73,
      "hit": false,
      "t": 50476.19299999998,
      "d": 436.5079583333354,
      "v": 105
    },
    {
      "midi": 76,
      "hit": false,
      "t": 50476.19299999998,
      "d": 436.5079583333354,
      "v": 105
    },
    {
      "midi": 81,
      "hit": false,
      "t": 50476.19299999998,
      "d": 436.5079583333354,
      "v": 105
    },
    {
      "midi": 30,
      "hit": false,
      "t": 50476.193000000065,
      "d": 436.5079583333354,
      "v": 100
    },
    {
      "midi": 85,
      "hit": false,
      "t": 50952.38349999972,
      "d": 238.0952499999985,
      "v": 100
    },
    {
      "midi": 73,
      "hit": false,
      "t": 50952.383499999836,
      "d": 238.0952499999985,
      "v": 100
    },
    {
      "midi": 30,
      "hit": false,
      "t": 50952.38350000007,
      "d": 436.5079583333354,
      "v": 100
    },
    {
      "midi": 85,
      "hit": false,
      "t": 51190.47874999972,
      "d": 238.0952499999985,
      "v": 80
    },
    {
      "midi": 73,
      "hit": false,
      "t": 51190.478749999835,
      "d": 238.0952499999985,
      "v": 80
    },
    {
      "midi": 93,
      "hit": false,
      "t": 51428.57399999972,
      "d": 238.0952499999985,
      "v": 110
    },
    {
      "midi": 81,
      "hit": false,
      "t": 51428.57399999983,
      "d": 238.0952499999985,
      "v": 110
    },
    {
      "midi": 73,
      "hit": false,
      "t": 51428.57399999998,
      "d": 436.5079583333354,
      "v": 95
    },
    {
      "midi": 76,
      "hit": false,
      "t": 51428.57399999998,
      "d": 436.5079583333354,
      "v": 95
    },
    {
      "midi": 81,
      "hit": false,
      "t": 51428.57399999998,
      "d": 436.5079583333354,
      "v": 95
    },
    {
      "midi": 57,
      "hit": false,
      "t": 51428.57399999999,
      "d": 1865.0794583333336,
      "v": 70
    },
    {
      "midi": 81,
      "hit": false,
      "t": 51428.57400000001,
      "d": 952.3810000000012,
      "v": 100
    },
    {
      "midi": 85,
      "hit": false,
      "t": 51428.57400000001,
      "d": 952.3810000000012,
      "v": 100
    },
    {
      "midi": 69,
      "hit": false,
      "t": 51428.57400000001,
      "d": 952.3810000000012,
      "v": 112
    },
    {
      "midi": 76,
      "hit": false,
      "t": 51428.57400000001,
      "d": 952.3810000000012,
      "v": 112
    },
    {
      "midi": 85,
      "hit": false,
      "t": 51428.57400000001,
      "d": 952.3810000000012,
      "v": 112
    },
    {
      "midi": 81,
      "hit": false,
      "t": 51428.57400000001,
      "d": 952.3810000000012,
      "v": 112
    },
    {
      "midi": 73,
      "hit": false,
      "t": 51428.57400000001,
      "d": 952.3810000000012,
      "v": 112
    },
    {
      "midi": 30,
      "hit": false,
      "t": 51428.57400000007,
      "d": 436.5079583333354,
      "v": 100
    },
    {
      "midi": 93,
      "hit": false,
      "t": 51666.669249999715,
      "d": 238.0952499999912,
      "v": 80
    },
    {
      "midi": 81,
      "hit": false,
      "t": 51666.66924999983,
      "d": 238.0952499999985,
      "v": 80
    },
    {
      "midi": 30,
      "hit": false,
      "t": 51904.76450000008,
      "d": 436.5079583333354,
      "v": 100
    },
    {
      "midi": 88,
      "hit": false,
      "t": 52142.8597499997,
      "d": 222.22223333332659,
      "v": 100
    },
    {
      "midi": 76,
      "hit": false,
      "t": 52142.85974999983,
      "d": 222.22223333333386,
      "v": 100
    },
    {
      "midi": 88,
      "hit": false,
      "t": 52380.95499999969,
      "d": 238.0952499999912,
      "v": 80
    },
    {
      "midi": 76,
      "hit": false,
      "t": 52380.95499999983,
      "d": 238.0952499999985,
      "v": 80
    },
    {
      "midi": 35,
      "hit": false,
      "t": 52380.95499999998,
      "d": 912.6984583333178,
      "v": 115
    },
    {
      "midi": 76,
      "hit": false,
      "t": 52380.95499999998,
      "d": 436.5079583333354,
      "v": 90
    },
    {
      "midi": 81,
      "hit": false,
      "t": 52380.95499999998,
      "d": 436.5079583333354,
      "v": 90
    },
    {
      "midi": 73,
      "hit": false,
      "t": 52380.95499999998,
      "d": 436.5079583333354,
      "v": 90
    },
    {
      "midi": 85,
      "hit": false,
      "t": 52380.95500000001,
      "d": 952.3810000000012,
      "v": 100
    },
    {
      "midi": 88,
      "hit": false,
      "t": 52380.95500000001,
      "d": 952.3810000000012,
      "v": 100
    },
    {
      "midi": 81,
      "hit": false,
      "t": 52380.95500000001,
      "d": 952.3810000000012,
      "v": 100
    },
    {
      "midi": 69,
      "hit": false,
      "t": 52380.95500000001,
      "d": 952.3810000000012,
      "v": 118
    },
    {
      "midi": 85,
      "hit": false,
      "t": 52380.95500000001,
      "d": 952.3810000000012,
      "v": 118
    },
    {
      "midi": 81,
      "hit": false,
      "t": 52380.95500000001,
      "d": 952.3810000000012,
      "v": 118
    },
    {
      "midi": 88,
      "hit": false,
      "t": 52380.95500000001,
      "d": 952.3810000000012,
      "v": 118
    },
    {
      "midi": 73,
      "hit": false,
      "t": 52380.95500000001,
      "d": 952.3810000000012,
      "v": 118
    },
    {
      "midi": 76,
      "hit": false,
      "t": 52380.95500000001,
      "d": 952.3810000000012,
      "v": 118
    },
    {
      "midi": 30,
      "hit": false,
      "t": 52380.95500000008,
      "d": 436.5079583333354,
      "v": 100
    },
    {
      "midi": 85,
      "hit": false,
      "t": 52857.14549999968,
      "d": 238.0952499999985,
      "v": 100
    },
    {
      "midi": 73,
      "hit": false,
      "t": 52857.145499999824,
      "d": 238.0952499999985,
      "v": 100
    },
    {
      "midi": 30,
      "hit": false,
      "t": 52857.145500000086,
      "d": 436.5079583333354,
      "v": 100
    },
    {
      "midi": 85,
      "hit": false,
      "t": 53095.24074999968,
      "d": 238.0952499999912,
      "v": 80
    },
    {
      "midi": 73,
      "hit": false,
      "t": 53095.24074999982,
      "d": 238.0952499999985,
      "v": 80
    },
    {
      "midi": 55,
      "hit": false,
      "t": 53301.58996666666,
      "d": 3650.793833333337,
      "v": 100
    },
    {
      "midi": 57,
      "hit": false,
      "t": 53301.58996666666,
      "d": 3650.793833333337,
      "v": 100
    },
    {
      "midi": 62,
      "hit": false,
      "t": 53301.58996666666,
      "d": 3650.793833333337,
      "v": 100
    },
    {
      "midi": 95,
      "hit": false,
      "t": 53333.33599999967,
      "d": 238.0952499999985,
      "v": 110
    },
    {
      "midi": 83,
      "hit": false,
      "t": 53333.33599999982,
      "d": 238.0952499999985,
      "v": 110
    },
    {
      "midi": 31,
      "hit": false,
      "t": 53333.33599999997,
      "d": 412.69843333333847,
      "v": 115
    },
    {
      "midi": 43,
      "hit": false,
      "t": 53333.33599999999,
      "d": 3769.8414583332487,
      "v": 100
    },
    {
      "midi": 50,
      "hit": false,
      "t": 53333.33599999999,
      "d": 3769.8414583332487,
      "v": 100
    },
    {
      "midi": 49,
      "hit": false,
      "t": 53333.335999999996,
      "d": 7.936508333332313,
      "v": 120
    },
    {
      "midi": 2,
      "hit": false,
      "t": 53333.335999999996,
      "d": 7.936508333332313,
      "v": 120
    },
    {
      "midi": 43,
      "hit": false,
      "t": 53333.335999999996,
      "d": 3730.158916666631,
      "v": 100
    },
    {
      "midi": 50,
      "hit": false,
      "t": 53333.335999999996,
      "d": 3730.158916666631,
      "v": 100
    },
    {
      "midi": 95,
      "hit": false,
      "t": 53571.43124999967,
      "d": 238.0952499999985,
      "v": 80
    },
    {
      "midi": 83,
      "hit": false,
      "t": 53571.43124999982,
      "d": 238.0952499999985,
      "v": 80
    },
    {
      "midi": 31,
      "hit": false,
      "t": 53809.52649999997,
      "d": 412.6984333333312,
      "v": 110
    },
    {
      "midi": 91,
      "hit": false,
      "t": 54047.621749999664,
      "d": 222.22223333333386,
      "v": 100
    },
    {
      "midi": 79,
      "hit": false,
      "t": 54047.62174999982,
      "d": 222.22223333333386,
      "v": 100
    },
    {
      "midi": 91,
      "hit": false,
      "t": 54285.71699999966,
      "d": 238.0952499999985,
      "v": 80
    },
    {
      "midi": 79,
      "hit": false,
      "t": 54285.716999999815,
      "d": 238.0952499999985,
      "v": 80
    },
    {
      "midi": 31,
      "hit": false,
      "t": 54285.71699999997,
      "d": 412.6984333333312,
      "v": 110
    },
    {
      "midi": 79,
      "hit": false,
      "t": 54285.71699999998,
      "d": 436.5079583333354,
      "v": 100
    },
    {
      "midi": 67,
      "hit": false,
      "t": 54285.717,
      "d": 507.9365333333335,
      "v": 110
    },
    {
      "midi": 79,
      "hit": false,
      "t": 54285.717,
      "d": 507.9365333333335,
      "v": 125
    },
    {
      "midi": 2,
      "hit": false,
      "t": 54285.717,
      "d": 7.936508333332313,
      "v": 115
    },
    {
      "midi": 67,
      "hit": false,
      "t": 54285.71700000001,
      "d": 436.5079583333354,
      "v": 100
    },
    {
      "midi": 55,
      "hit": false,
      "t": 54285.717000000084,
      "d": 507.9365333333335,
      "v": 110
    },
    {
      "midi": 86,
      "hit": false,
      "t": 54761.90749999966,
      "d": 238.0952499999985,
      "v": 100
    },
    {
      "midi": 74,
      "hit": false,
      "t": 54761.90749999981,
      "d": 238.0952499999985,
      "v": 100
    },
    {
      "midi": 31,
      "hit": false,
      "t": 54761.907499999965,
      "d": 412.6984333333312,
      "v": 110
    },
    {
      "midi": 81,
      "hit": false,
      "t": 54761.90749999999,
      "d": 436.5079583333354,
      "v": 100
    },
    {
      "midi": 81,
      "hit": false,
      "t": 54761.907499999994,
      "d": 317.46033333333617,
      "v": 125
    },
    {
      "midi": 69,
      "hit": false,
      "t": 54761.907499999994,
      "d": 317.46033333333617,
      "v": 110
    },
    {
      "midi": 69,
      "hit": false,
      "t": 54761.907500000016,
      "d": 436.5079583333354,
      "v": 100
    },
    {
      "midi": 57,
      "hit": false,
      "t": 54761.90750000008,
      "d": 507.9365333333408,
      "v": 110
    },
    {
      "midi": 86,
      "hit": false,
      "t": 55000.00274999966,
      "d": 238.0952499999985,
      "v": 80
    },
    {
      "midi": 74,
      "hit": false,
      "t": 55000.00274999981,
      "d": 238.0952499999985,
      "v": 80
    },
    {
      "midi": 95,
      "hit": false,
      "t": 55238.097999999656,
      "d": 238.0952499999985,
      "v": 110
    },
    {
      "midi": 83,
      "hit": false,
      "t": 55238.09799999981,
      "d": 238.0952499999985,
      "v": 110
    },
    {
      "midi": 31,
      "hit": false,
      "t": 55238.09799999996,
      "d": 412.6984333333312,
      "v": 110
    },
    {
      "midi": 83,
      "hit": false,
      "t": 55238.09799999999,
      "d": 436.5079583333354,
      "v": 100
    },
    {
      "midi": 71,
      "hit": false,
      "t": 55238.098,
      "d": 317.46033333333617,
      "v": 110
    },
    {
      "midi": 83,
      "hit": false,
      "t": 55238.098,
      "d": 317.46033333333617,
      "v": 125
    },
    {
      "midi": 2,
      "hit": false,
      "t": 55238.098,
      "d": 7.936508333332313,
      "v": 115
    },
    {
      "midi": 71,
      "hit": false,
      "t": 55238.09800000002,
      "d": 436.5079583333354,
      "v": 100
    },
    {
      "midi": 59,
      "hit": false,
      "t": 55238.098000000085,
      "d": 317.46033333333617,
      "v": 110
    },
    {
      "midi": 95,
      "hit": false,
      "t": 55476.193249999655,
      "d": 238.0952499999985,
      "v": 80
    },
    {
      "midi": 83,
      "hit": false,
      "t": 55476.19324999981,
      "d": 238.0952499999985,
      "v": 80
    },
    {
      "midi": 31,
      "hit": false,
      "t": 55714.28849999996,
      "d": 412.6984333333312,
      "v": 110
    },
    {
      "midi": 81,
      "hit": false,
      "t": 55714.288499999995,
      "d": 436.5079583333354,
      "v": 100
    },
    {
      "midi": 69,
      "hit": false,
      "t": 55714.2885,
      "d": 317.46033333333617,
      "v": 110
    },
    {
      "midi": 81,
      "hit": false,
      "t": 55714.2885,
      "d": 317.46033333333617,
      "v": 125
    },
    {
      "midi": 69,
      "hit": false,
      "t": 55714.288500000024,
      "d": 436.5079583333354,
      "v": 100
    },
    {
      "midi": 57,
      "hit": false,
      "t": 55714.28850000009,
      "d": 317.46033333333617,
      "v": 110
    },
    {
      "midi": 91,
      "hit": false,
      "t": 55952.38374999965,
      "d": 222.22223333333386,
      "v": 100
    },
    {
      "midi": 79,
      "hit": false,
      "t": 55952.383749999804,
      "d": 222.22223333333386,
      "v": 100
    },
    {
      "midi": 91,
      "hit": false,
      "t": 56190.47899999965,
      "d": 238.0952499999985,
      "v": 80
    },
    {
      "midi": 79,
      "hit": false,
      "t": 56190.4789999998,
      "d": 238.0952499999985,
      "v": 80
    },
    {
      "midi": 31,
      "hit": false,
      "t": 56190.478999999956,
      "d": 412.6984333333312,
      "v": 110
    },
    {
      "midi": 79,
      "hit": false,
      "t": 56190.479,
      "d": 436.5079583333354,
      "v": 100
    },
    {
      "midi": 2,
      "hit": false,
      "t": 56190.479,
      "d": 7.936508333332313,
      "v": 115
    },
    {
      "midi": 67,
      "hit": false,
      "t": 56190.47900000001,
      "d": 317.46033333333617,
      "v": 110
    },
    {
      "midi": 79,
      "hit": false,
      "t": 56190.47900000001,
      "d": 317.46033333333617,
      "v": 125
    },
    {
      "midi": 67,
      "hit": false,
      "t": 56190.47900000003,
      "d": 436.5079583333354,
      "v": 100
    },
    {
      "midi": 55,
      "hit": false,
      "t": 56190.479000000094,
      "d": 317.46033333333617,
      "v": 110
    },
    {
      "midi": 86,
      "hit": false,
      "t": 56666.66949999965,
      "d": 238.0952499999985,
      "v": 100
    },
    {
      "midi": 74,
      "hit": false,
      "t": 56666.6694999998,
      "d": 238.0952499999985,
      "v": 100
    },
    {
      "midi": 31,
      "hit": false,
      "t": 56666.66949999995,
      "d": 412.6984333333312,
      "v": 110
    },
    {
      "midi": 81,
      "hit": false,
      "t": 56666.6695,
      "d": 436.5079583333354,
      "v": 100
    },
    {
      "midi": 69,
      "hit": false,
      "t": 56666.66950000001,
      "d": 317.46033333333617,
      "v": 110
    },
    {
      "midi": 81,
      "hit": false,
      "t": 56666.66950000001,
      "d": 317.46033333333617,
      "v": 125
    },
    {
      "midi": 69,
      "hit": false,
      "t": 56666.66950000003,
      "d": 436.5079583333354,
      "v": 100
    },
    {
      "midi": 57,
      "hit": false,
      "t": 56666.6695000001,
      "d": 317.46033333333617,
      "v": 110
    },
    {
      "midi": 86,
      "hit": false,
      "t": 56904.764749999646,
      "d": 238.0952499999985,
      "v": 80
    },
    {
      "midi": 74,
      "hit": false,
      "t": 56904.7647499998,
      "d": 238.0952499999985,
      "v": 80
    },
    {
      "midi": 57,
      "hit": false,
      "t": 57111.113966666664,
      "d": 3650.793833333337,
      "v": 100
    },
    {
      "midi": 64,
      "hit": false,
      "t": 57111.113966666664,
      "d": 3650.793833333337,
      "v": 100
    },
    {
      "midi": 61,
      "hit": false,
      "t": 57111.113966666664,
      "d": 3650.793833333337,
      "v": 100
    },
    {
      "midi": 59,
      "hit": false,
      "t": 57111.113966666664,
      "d": 3650.793833333337,
      "v": 100
    },
    {
      "midi": 97,
      "hit": false,
      "t": 57142.859999999644,
      "d": 238.0952499999985,
      "v": 110
    },
    {
      "midi": 85,
      "hit": false,
      "t": 57142.8599999998,
      "d": 238.0952499999985,
      "v": 110
    },
    {
      "midi": 43,
      "hit": false,
      "t": 57142.859999999906,
      "d": 3769.8414583332924,
      "v": 100
    },
    {
      "midi": 50,
      "hit": false,
      "t": 57142.859999999906,
      "d": 3769.8414583332924,
      "v": 100
    },
    {
      "midi": 31,
      "hit": false,
      "t": 57142.85999999995,
      "d": 412.6984333333312,
      "v": 115
    },
    {
      "midi": 43,
      "hit": false,
      "t": 57142.859999999964,
      "d": 3253.968416666663,
      "v": 90
    },
    {
      "midi": 61,
      "hit": false,
      "t": 57142.859999999964,
      "d": 3253.968416666663,
      "v": 90
    },
    {
      "midi": 57,
      "hit": false,
      "t": 57142.859999999964,
      "d": 3253.968416666663,
      "v": 90
    },
    {
      "midi": 52,
      "hit": false,
      "t": 57142.859999999964,
      "d": 3253.968416666663,
      "v": 90
    },
    {
      "midi": 49,
      "hit": false,
      "t": 57142.86,
      "d": 7.936508333332313,
      "v": 120
    },
    {
      "midi": 2,
      "hit": false,
      "t": 57142.86,
      "d": 7.936508333332313,
      "v": 120
    },
    {
      "midi": 83,
      "hit": false,
      "t": 57142.86000000001,
      "d": 436.5079583333354,
      "v": 100
    },
    {
      "midi": 71,
      "hit": false,
      "t": 57142.860000000015,
      "d": 317.46033333333617,
      "v": 110
    },
    {
      "midi": 83,
      "hit": false,
      "t": 57142.860000000015,
      "d": 317.46033333333617,
      "v": 125
    },
    {
      "midi": 71,
      "hit": false,
      "t": 57142.86000000004,
      "d": 436.5079583333354,
      "v": 100
    },
    {
      "midi": 59,
      "hit": false,
      "t": 57142.8600000001,
      "d": 317.46033333333617,
      "v": 110
    },
    {
      "midi": 97,
      "hit": false,
      "t": 57380.95524999964,
      "d": 238.0952499999985,
      "v": 80
    },
    {
      "midi": 85,
      "hit": false,
      "t": 57380.955249999795,
      "d": 238.0952499999985,
      "v": 80
    },
    {
      "midi": 31,
      "hit": false,
      "t": 57619.05049999995,
      "d": 412.6984333333312,
      "v": 110
    },
    {
      "midi": 79,
      "hit": false,
      "t": 57619.05050000001,
      "d": 436.5079583333354,
      "v": 100
    },
    {
      "midi": 67,
      "hit": false,
      "t": 57619.05050000002,
      "d": 317.46033333333617,
      "v": 110
    },
    {
      "midi": 79,
      "hit": false,
      "t": 57619.05050000002,
      "d": 317.46033333333617,
      "v": 125
    },
    {
      "midi": 67,
      "hit": false,
      "t": 57619.05050000004,
      "d": 436.5079583333354,
      "v": 100
    },
    {
      "midi": 55,
      "hit": false,
      "t": 57619.05050000011,
      "d": 317.46033333333617,
      "v": 110
    },
    {
      "midi": 93,
      "hit": false,
      "t": 57857.14574999964,
      "d": 222.22223333333386,
      "v": 100
    },
    {
      "midi": 81,
      "hit": false,
      "t": 57857.14574999979,
      "d": 222.22223333333386,
      "v": 100
    },
    {
      "midi": 93,
      "hit": false,
      "t": 58095.24099999964,
      "d": 238.0952499999985,
      "v": 80
    },
    {
      "midi": 81,
      "hit": false,
      "t": 58095.24099999979,
      "d": 238.0952499999985,
      "v": 80
    },
    {
      "midi": 31,
      "hit": false,
      "t": 58095.24099999994,
      "d": 412.6984333333312,
      "v": 110
    },
    {
      "midi": 2,
      "hit": false,
      "t": 58095.241,
      "d": 7.936508333332313,
      "v": 115
    },
    {
      "midi": 81,
      "hit": false,
      "t": 58095.241000000016,
      "d": 436.5079583333354,
      "v": 100
    },
    {
      "midi": 69,
      "hit": false,
      "t": 58095.24100000002,
      "d": 317.46033333333617,
      "v": 110
    },
    {
      "midi": 81,
      "hit": false,
      "t": 58095.24100000002,
      "d": 317.46033333333617,
      "v": 125
    },
    {
      "midi": 69,
      "hit": false,
      "t": 58095.241000000045,
      "d": 436.5079583333354,
      "v": 100
    },
    {
      "midi": 57,
      "hit": false,
      "t": 58095.24100000011,
      "d": 317.46033333333617,
      "v": 110
    },
    {
      "midi": 88,
      "hit": false,
      "t": 58571.431499999635,
      "d": 238.0952499999985,
      "v": 100
    },
    {
      "midi": 76,
      "hit": false,
      "t": 58571.43149999979,
      "d": 238.0952499999985,
      "v": 100
    },
    {
      "midi": 31,
      "hit": false,
      "t": 58571.43149999994,
      "d": 412.6984333333312,
      "v": 110
    },
    {
      "midi": 83,
      "hit": false,
      "t": 58571.43150000002,
      "d": 436.5079583333354,
      "v": 100
    },
    {
      "midi": 71,
      "hit": false,
      "t": 58571.43150000003,
      "d": 317.46033333333617,
      "v": 110
    },
    {
      "midi": 83,
      "hit": false,
      "t": 58571.43150000003,
      "d": 317.46033333333617,
      "v": 125
    },
    {
      "midi": 71,
      "hit": false,
      "t": 58571.43150000005,
      "d": 436.5079583333354,
      "v": 100
    },
    {
      "midi": 59,
      "hit": false,
      "t": 58571.431500000115,
      "d": 317.46033333333617,
      "v": 110
    },
    {
      "midi": 88,
      "hit": false,
      "t": 58809.52674999963,
      "d": 238.0952499999985,
      "v": 80
    },
    {
      "midi": 76,
      "hit": false,
      "t": 58809.526749999786,
      "d": 238.0952499999985,
      "v": 80
    },
    {
      "midi": 97,
      "hit": false,
      "t": 59047.62199999963,
      "d": 238.0952499999985,
      "v": 110
    },
    {
      "midi": 85,
      "hit": false,
      "t": 59047.621999999785,
      "d": 238.0952499999985,
      "v": 110
    },
    {
      "midi": 31,
      "hit": false,
      "t": 59047.62199999994,
      "d": 412.6984333333312,
      "v": 110
    },
    {
      "midi": 2,
      "hit": false,
      "t": 59047.622,
      "d": 7.936508333332313,
      "v": 115
    },
    {
      "midi": 85,
      "hit": false,
      "t": 59047.622000000025,
      "d": 1825.3969166666648,
      "v": 100
    },
    {
      "midi": 73,
      "hit": false,
      "t": 59047.62200000003,
      "d": 1888.8889833333305,
      "v": 110
    },
    {
      "midi": 85,
      "hit": false,
      "t": 59047.62200000003,
      "d": 1888.8889833333305,
      "v": 125
    },
    {
      "midi": 73,
      "hit": false,
      "t": 59047.622000000054,
      "d": 1825.3969166666648,
      "v": 100
    },
    {
      "midi": 61,
      "hit": false,
      "t": 59047.62200000012,
      "d": 1888.8889833333305,
      "v": 110
    },
    {
      "midi": 97,
      "hit": false,
      "t": 59285.71724999963,
      "d": 238.0952499999985,
      "v": 80
    },
    {
      "midi": 85,
      "hit": false,
      "t": 59285.71724999978,
      "d": 238.0952499999985,
      "v": 80
    },
    {
      "midi": 43,
      "hit": false,
      "t": 59523.81249999994,
      "d": 412.6984333333312,
      "v": 110
    },
    {
      "midi": 93,
      "hit": false,
      "t": 59761.90774999963,
      "d": 222.22223333333386,
      "v": 100
    },
    {
      "midi": 81,
      "hit": false,
      "t": 59761.90774999978,
      "d": 222.22223333333386,
      "v": 100
    },
    {
      "midi": 93,
      "hit": false,
      "t": 60000.002999999626,
      "d": 238.0952499999985,
      "v": 80
    },
    {
      "midi": 81,
      "hit": false,
      "t": 60000.00299999978,
      "d": 238.0952499999985,
      "v": 80
    },
    {
      "midi": 43,
      "hit": false,
      "t": 60000.00299999994,
      "d": 412.6984333333312,
      "v": 110
    },
    {
      "midi": 2,
      "hit": false,
      "t": 60000.003000000004,
      "d": 7.936508333332313,
      "v": 115
    },
    {
      "midi": 88,
      "hit": false,
      "t": 60476.19349999962,
      "d": 238.0952499999985,
      "v": 100
    },
    {
      "midi": 76,
      "hit": false,
      "t": 60476.193499999776,
      "d": 238.0952499999985,
      "v": 100
    },
    {
      "midi": 43,
      "hit": false,
      "t": 60476.193499999936,
      "d": 412.6984333333312,
      "v": 110
    },
    {
      "midi": 43,
      "hit": false,
      "t": 60476.19349999996,
      "d": 158.73016666666808,
      "v": 90
    },
    {
      "midi": 59,
      "hit": false,
      "t": 60476.19349999996,
      "d": 158.73016666666808,
      "v": 90
    },
    {
      "midi": 55,
      "hit": false,
      "t": 60476.19349999996,
      "d": 158.73016666666808,
      "v": 90
    },
    {
      "midi": 50,
      "hit": false,
      "t": 60476.19349999996,
      "d": 158.73016666666808,
      "v": 90
    },
    {
      "midi": 88,
      "hit": false,
      "t": 60714.28874999962,
      "d": 238.0952499999985,
      "v": 80
    },
    {
      "midi": 76,
      "hit": false,
      "t": 60714.288749999774,
      "d": 238.0952499999985,
      "v": 80
    },
    {
      "midi": 43,
      "hit": false,
      "t": 60714.288749999956,
      "d": 158.73016666666808,
      "v": 90
    },
    {
      "midi": 59,
      "hit": false,
      "t": 60714.288749999956,
      "d": 158.73016666666808,
      "v": 90
    },
    {
      "midi": 55,
      "hit": false,
      "t": 60714.288749999956,
      "d": 158.73016666666808,
      "v": 90
    },
    {
      "midi": 50,
      "hit": false,
      "t": 60714.288749999956,
      "d": 158.73016666666808,
      "v": 90
    },
    {
      "midi": 59,
      "hit": false,
      "t": 60920.63796666667,
      "d": 3650.793833333337,
      "v": 100
    },
    {
      "midi": 57,
      "hit": false,
      "t": 60920.63796666667,
      "d": 3650.793833333337,
      "v": 100
    },
    {
      "midi": 67,
      "hit": false,
      "t": 60920.63796666667,
      "d": 3650.793833333337,
      "v": 100
    },
    {
      "midi": 62,
      "hit": false,
      "t": 60920.63796666667,
      "d": 3650.793833333337,
      "v": 100
    },
    {
      "midi": 98,
      "hit": false,
      "t": 60952.38399999962,
      "d": 238.0952499999985,
      "v": 110
    },
    {
      "midi": 86,
      "hit": false,
      "t": 60952.38399999977,
      "d": 238.0952499999985,
      "v": 110
    },
    {
      "midi": 43,
      "hit": false,
      "t": 60952.38399999987,
      "d": 3769.8414583332924,
      "v": 100
    },
    {
      "midi": 50,
      "hit": false,
      "t": 60952.38399999987,
      "d": 3769.8414583332924,
      "v": 100
    },
    {
      "midi": 31,
      "hit": false,
      "t": 60952.38399999993,
      "d": 412.6984333333312,
      "v": 115
    },
    {
      "midi": 43,
      "hit": false,
      "t": 60952.383999999955,
      "d": 3730.1589166666527,
      "v": 90
    },
    {
      "midi": 59,
      "hit": false,
      "t": 60952.383999999955,
      "d": 3730.1589166666527,
      "v": 90
    },
    {
      "midi": 55,
      "hit": false,
      "t": 60952.383999999955,
      "d": 3730.1589166666527,
      "v": 90
    },
    {
      "midi": 50,
      "hit": false,
      "t": 60952.383999999955,
      "d": 3730.1589166666527,
      "v": 90
    },
    {
      "midi": 49,
      "hit": false,
      "t": 60952.384000000005,
      "d": 7.936508333332313,
      "v": 120
    },
    {
      "midi": 2,
      "hit": false,
      "t": 60952.384000000005,
      "d": 7.936508333332313,
      "v": 120
    },
    {
      "midi": 98,
      "hit": false,
      "t": 61190.47924999962,
      "d": 238.0952499999985,
      "v": 80
    },
    {
      "midi": 86,
      "hit": false,
      "t": 61190.47924999977,
      "d": 238.0952499999985,
      "v": 80
    },
    {
      "midi": 31,
      "hit": false,
      "t": 61428.57449999993,
      "d": 412.6984333333312,
      "v": 110
    },
    {
      "midi": 95,
      "hit": false,
      "t": 61666.669749999615,
      "d": 222.22223333333386,
      "v": 100
    },
    {
      "midi": 83,
      "hit": false,
      "t": 61666.66974999977,
      "d": 222.22223333333386,
      "v": 100
    },
    {
      "midi": 95,
      "hit": false,
      "t": 61904.764999999614,
      "d": 238.0952499999985,
      "v": 80
    },
    {
      "midi": 83,
      "hit": false,
      "t": 61904.76499999977,
      "d": 238.0952499999985,
      "v": 80
    },
    {
      "midi": 31,
      "hit": false,
      "t": 61904.76499999993,
      "d": 412.6984333333312,
      "v": 110
    },
    {
      "midi": 2,
      "hit": false,
      "t": 61904.76500000001,
      "d": 7.936508333332313,
      "v": 115
    },
    {
      "midi": 83,
      "hit": false,
      "t": 61904.76500000002,
      "d": 436.5079583333354,
      "v": 100
    },
    {
      "midi": 71,
      "hit": false,
      "t": 61904.76500000003,
      "d": 507.9365333333335,
      "v": 110
    },
    {
      "midi": 83,
      "hit": false,
      "t": 61904.76500000003,
      "d": 507.9365333333335,
      "v": 125
    },
    {
      "midi": 71,
      "hit": false,
      "t": 61904.76500000005,
      "d": 436.5079583333354,
      "v": 100
    },
    {
      "midi": 59,
      "hit": false,
      "t": 61904.765000000116,
      "d": 507.9365333333335,
      "v": 110
    },
    {
      "midi": 91,
      "hit": false,
      "t": 62380.95549999961,
      "d": 238.0952499999985,
      "v": 100
    },
    {
      "midi": 79,
      "hit": false,
      "t": 62380.95549999976,
      "d": 238.0952499999985,
      "v": 100
    },
    {
      "midi": 31,
      "hit": false,
      "t": 62380.95549999992,
      "d": 412.6984333333312,
      "v": 110
    },
    {
      "midi": 85,
      "hit": false,
      "t": 62380.955500000025,
      "d": 436.5079583333354,
      "v": 100
    },
    {
      "midi": 85,
      "hit": false,
      "t": 62380.955500000025,
      "d": 317.46033333333617,
      "v": 125
    },
    {
      "midi": 73,
      "hit": false,
      "t": 62380.955500000025,
      "d": 317.46033333333617,
      "v": 110
    },
    {
      "midi": 73,
      "hit": false,
      "t": 62380.955500000055,
      "d": 436.5079583333354,
      "v": 100
    },
    {
      "midi": 61,
      "hit": false,
      "t": 62380.95550000011,
      "d": 507.9365333333408,
      "v": 110
    },
    {
      "midi": 91,
      "hit": false,
      "t": 62619.05074999961,
      "d": 238.0952499999985,
      "v": 80
    },
    {
      "midi": 79,
      "hit": false,
      "t": 62619.05074999976,
      "d": 238.0952499999985,
      "v": 80
    },
    {
      "midi": 98,
      "hit": false,
      "t": 62857.14599999961,
      "d": 238.0952499999985,
      "v": 110
    },
    {
      "midi": 86,
      "hit": false,
      "t": 62857.14599999976,
      "d": 238.0952499999985,
      "v": 110
    },
    {
      "midi": 31,
      "hit": false,
      "t": 62857.14599999992,
      "d": 412.6984333333312,
      "v": 110
    },
    {
      "midi": 2,
      "hit": false,
      "t": 62857.14600000001,
      "d": 7.936508333332313,
      "v": 115
    },
    {
      "midi": 86,
      "hit": false,
      "t": 62857.14600000003,
      "d": 436.5079583333354,
      "v": 100
    },
    {
      "midi": 74,
      "hit": false,
      "t": 62857.14600000003,
      "d": 317.46033333333617,
      "v": 110
    },
    {
      "midi": 86,
      "hit": false,
      "t": 62857.14600000003,
      "d": 317.46033333333617,
      "v": 125
    },
    {
      "midi": 74,
      "hit": false,
      "t": 62857.14600000006,
      "d": 436.5079583333354,
      "v": 100
    },
    {
      "midi": 62,
      "hit": false,
      "t": 62857.14600000012,
      "d": 317.46033333333617,
      "v": 110
    },
    {
      "midi": 98,
      "hit": false,
      "t": 63095.241249999606,
      "d": 238.0952499999985,
      "v": 80
    },
    {
      "midi": 86,
      "hit": false,
      "t": 63095.24124999976,
      "d": 238.0952499999985,
      "v": 80
    },
    {
      "midi": 31,
      "hit": false,
      "t": 63333.33649999992,
      "d": 412.6984333333312,
      "v": 110
    },
    {
      "midi": 83,
      "hit": false,
      "t": 63333.336500000034,
      "d": 436.5079583333354,
      "v": 100
    },
    {
      "midi": 71,
      "hit": false,
      "t": 63333.336500000034,
      "d": 317.46033333333617,
      "v": 110
    },
    {
      "midi": 83,
      "hit": false,
      "t": 63333.336500000034,
      "d": 317.46033333333617,
      "v": 125
    },
    {
      "midi": 71,
      "hit": false,
      "t": 63333.33650000006,
      "d": 436.5079583333354,
      "v": 100
    },
    {
      "midi": 59,
      "hit": false,
      "t": 63333.33650000012,
      "d": 317.46033333333617,
      "v": 110
    },
    {
      "midi": 95,
      "hit": false,
      "t": 63571.4317499996,
      "d": 222.22223333333386,
      "v": 100
    },
    {
      "midi": 83,
      "hit": false,
      "t": 63571.431749999756,
      "d": 222.22223333333386,
      "v": 100
    },
    {
      "midi": 95,
      "hit": false,
      "t": 63809.5269999996,
      "d": 238.0952499999985,
      "v": 80
    },
    {
      "midi": 83,
      "hit": false,
      "t": 63809.526999999754,
      "d": 238.0952499999985,
      "v": 80
    },
    {
      "midi": 31,
      "hit": false,
      "t": 63809.526999999915,
      "d": 412.6984333333312,
      "v": 110
    },
    {
      "midi": 2,
      "hit": false,
      "t": 63809.52700000001,
      "d": 7.936508333332313,
      "v": 115
    },
    {
      "midi": 85,
      "hit": false,
      "t": 63809.52700000004,
      "d": 436.5079583333354,
      "v": 100
    },
    {
      "midi": 73,
      "hit": false,
      "t": 63809.52700000004,
      "d": 317.46033333333617,
      "v": 110
    },
    {
      "midi": 85,
      "hit": false,
      "t": 63809.52700000004,
      "d": 317.46033333333617,
      "v": 125
    },
    {
      "midi": 73,
      "hit": false,
      "t": 63809.52700000007,
      "d": 436.5079583333354,
      "v": 100
    },
    {
      "midi": 61,
      "hit": false,
      "t": 63809.527000000126,
      "d": 317.46033333333617,
      "v": 110
    },
    {
      "midi": 91,
      "hit": false,
      "t": 64285.7174999996,
      "d": 238.0952499999985,
      "v": 100
    },
    {
      "midi": 79,
      "hit": false,
      "t": 64285.71749999975,
      "d": 238.0952499999985,
      "v": 100
    },
    {
      "midi": 31,
      "hit": false,
      "t": 64285.71749999991,
      "d": 412.6984333333312,
      "v": 110
    },
    {
      "midi": 86,
      "hit": false,
      "t": 64285.71750000004,
      "d": 436.5079583333354,
      "v": 100
    },
    {
      "midi": 74,
      "hit": false,
      "t": 64285.71750000004,
      "d": 317.46033333333617,
      "v": 110
    },
    {
      "midi": 86,
      "hit": false,
      "t": 64285.71750000004,
      "d": 317.46033333333617,
      "v": 125
    },
    {
      "midi": 74,
      "hit": false,
      "t": 64285.71750000007,
      "d": 436.5079583333354,
      "v": 100
    },
    {
      "midi": 62,
      "hit": false,
      "t": 64285.71750000013,
      "d": 317.46033333333617,
      "v": 110
    },
    {
      "midi": 91,
      "hit": false,
      "t": 64523.8127499996,
      "d": 238.0952499999985,
      "v": 80
    },
    {
      "midi": 79,
      "hit": false,
      "t": 64523.81274999975,
      "d": 238.0952499999985,
      "v": 80
    },
    {
      "midi": 57,
      "hit": false,
      "t": 64730.161966666674,
      "d": 1825.396916666672,
      "v": 105
    },
    {
      "midi": 69,
      "hit": false,
      "t": 64730.161966666674,
      "d": 1825.396916666672,
      "v": 105
    },
    {
      "midi": 64,
      "hit": false,
      "t": 64730.161966666674,
      "d": 1825.396916666672,
      "v": 105
    },
    {
      "midi": 61,
      "hit": false,
      "t": 64730.161966666674,
      "d": 1825.396916666672,
      "v": 105
    },
    {
      "midi": 100,
      "hit": false,
      "t": 64761.907999999596,
      "d": 238.0952499999985,
      "v": 110
    },
    {
      "midi": 88,
      "hit": false,
      "t": 64761.90799999975,
      "d": 238.0952499999985,
      "v": 110
    },
    {
      "midi": 45,
      "hit": false,
      "t": 64761.90799999982,
      "d": 1388.888958333322,
      "v": 100
    },
    {
      "midi": 52,
      "hit": false,
      "t": 64761.90799999982,
      "d": 1388.888958333322,
      "v": 100
    },
    {
      "midi": 33,
      "hit": false,
      "t": 64761.90799999991,
      "d": 412.6984333333312,
      "v": 115
    },
    {
      "midi": 45,
      "hit": false,
      "t": 64761.90799999994,
      "d": 1825.3969166666648,
      "v": 90
    },
    {
      "midi": 61,
      "hit": false,
      "t": 64761.90799999994,
      "d": 1825.3969166666648,
      "v": 90
    },
    {
      "midi": 57,
      "hit": false,
      "t": 64761.90799999994,
      "d": 1825.3969166666648,
      "v": 90
    },
    {
      "midi": 52,
      "hit": false,
      "t": 64761.90799999994,
      "d": 1825.3969166666648,
      "v": 90
    },
    {
      "midi": 2,
      "hit": false,
      "t": 64761.90800000001,
      "d": 7.936508333332313,
      "v": 120
    },
    {
      "midi": 45,
      "hit": false,
      "t": 64761.90800000001,
      "d": 7.936508333332313,
      "v": 120
    },
    {
      "midi": 88,
      "hit": false,
      "t": 64761.90800000005,
      "d": 436.5079583333354,
      "v": 100
    },
    {
      "midi": 76,
      "hit": false,
      "t": 64761.90800000005,
      "d": 317.46033333333617,
      "v": 110
    },
    {
      "midi": 88,
      "hit": false,
      "t": 64761.90800000005,
      "d": 317.46033333333617,
      "v": 125
    },
    {
      "midi": 76,
      "hit": false,
      "t": 64761.908000000076,
      "d": 436.5079583333354,
      "v": 100
    },
    {
      "midi": 64,
      "hit": false,
      "t": 64761.908000000134,
      "d": 317.46033333333617,
      "v": 110
    },
    {
      "midi": 100,
      "hit": false,
      "t": 65000.003249999594,
      "d": 238.0952499999985,
      "v": 80
    },
    {
      "midi": 88,
      "hit": false,
      "t": 65000.00324999975,
      "d": 238.0952499999985,
      "v": 80
    },
    {
      "midi": 33,
      "hit": false,
      "t": 65238.098499999905,
      "d": 412.69843333333847,
      "v": 110
    },
    {
      "midi": 40,
      "hit": false,
      "t": 65238.09850000001,
      "d": 7.936508333332313,
      "v": 120
    },
    {
      "midi": 85,
      "hit": false,
      "t": 65238.09850000005,
      "d": 436.50795833332813,
      "v": 100
    },
    {
      "midi": 73,
      "hit": false,
      "t": 65238.09850000005,
      "d": 317.46033333333617,
      "v": 110
    },
    {
      "midi": 85,
      "hit": false,
      "t": 65238.09850000005,
      "d": 317.46033333333617,
      "v": 125
    },
    {
      "midi": 73,
      "hit": false,
      "t": 65238.09850000008,
      "d": 436.50795833332813,
      "v": 100
    },
    {
      "midi": 61,
      "hit": false,
      "t": 65238.09850000014,
      "d": 317.46033333333617,
      "v": 110
    },
    {
      "midi": 40,
      "hit": false,
      "t": 65396.828666666675,
      "d": 7.936508333332313,
      "v": 120
    },
    {
      "midi": 97,
      "hit": false,
      "t": 65476.19374999959,
      "d": 238.09525000000576,
      "v": 110
    },
    {
      "midi": 85,
      "hit": false,
      "t": 65476.193749999744,
      "d": 238.0952499999985,
      "v": 110
    },
    {
      "midi": 40,
      "hit": false,
      "t": 65555.55883333334,
      "d": 7.936508333339589,
      "v": 120
    },
    {
      "midi": 97,
      "hit": false,
      "t": 65714.2889999996,
      "d": 238.0952499999985,
      "v": 80
    },
    {
      "midi": 85,
      "hit": false,
      "t": 65714.28899999974,
      "d": 238.0952499999985,
      "v": 80
    },
    {
      "midi": 33,
      "hit": false,
      "t": 65714.28899999992,
      "d": 412.69843333333847,
      "v": 110
    },
    {
      "midi": 2,
      "hit": false,
      "t": 65714.28900000002,
      "d": 7.936508333339589,
      "v": 115
    },
    {
      "midi": 47,
      "hit": false,
      "t": 65714.28900000002,
      "d": 7.936508333339589,
      "v": 120
    },
    {
      "midi": 86,
      "hit": false,
      "t": 65714.28900000005,
      "d": 436.50795833332813,
      "v": 100
    },
    {
      "midi": 74,
      "hit": false,
      "t": 65714.28900000005,
      "d": 317.46033333333617,
      "v": 110
    },
    {
      "midi": 86,
      "hit": false,
      "t": 65714.28900000005,
      "d": 317.46033333333617,
      "v": 125
    },
    {
      "midi": 74,
      "hit": false,
      "t": 65714.28900000008,
      "d": 436.50795833332813,
      "v": 100
    },
    {
      "midi": 62,
      "hit": false,
      "t": 65714.28900000014,
      "d": 317.46033333333617,
      "v": 110
    },
    {
      "midi": 93,
      "hit": false,
      "t": 66190.4794999996,
      "d": 238.0952499999985,
      "v": 110
    },
    {
      "midi": 81,
      "hit": false,
      "t": 66190.47949999974,
      "d": 238.0952499999985,
      "v": 110
    },
    {
      "midi": 45,
      "hit": false,
      "t": 66190.47949999981,
      "d": 79.36508333333768,
      "v": 100
    },
    {
      "midi": 52,
      "hit": false,
      "t": 66190.47949999981,
      "d": 79.36508333333768,
      "v": 100
    },
    {
      "midi": 33,
      "hit": false,
      "t": 66190.47949999993,
      "d": 412.69843333333847,
      "v": 110
    },
    {
      "midi": 43,
      "hit": false,
      "t": 66190.47950000003,
      "d": 7.936508333339589,
      "v": 120
    },
    {
      "midi": 88,
      "hit": false,
      "t": 66190.47950000004,
      "d": 436.50795833332813,
      "v": 100
    },
    {
      "midi": 76,
      "hit": false,
      "t": 66190.47950000004,
      "d": 317.46033333333617,
      "v": 110
    },
    {
      "midi": 88,
      "hit": false,
      "t": 66190.47950000004,
      "d": 317.46033333333617,
      "v": 125
    },
    {
      "midi": 76,
      "hit": false,
      "t": 66190.47950000007,
      "d": 436.50795833332813,
      "v": 100
    },
    {
      "midi": 64,
      "hit": false,
      "t": 66190.47950000013,
      "d": 317.46033333333617,
      "v": 110
    },
    {
      "midi": 93,
      "hit": false,
      "t": 66428.57474999959,
      "d": 238.0952499999985,
      "v": 80
    },
    {
      "midi": 81,
      "hit": false,
      "t": 66428.57474999974,
      "d": 238.0952499999985,
      "v": 80
    },
    {
      "midi": 52,
      "hit": false,
      "t": 66428.57474999981,
      "d": 79.36508333333768,
      "v": 100
    },
    {
      "midi": 45,
      "hit": false,
      "t": 66428.57474999981,
      "d": 79.36508333333768,
      "v": 100
    },
    {
      "midi": 57,
      "hit": false,
      "t": 66634.92396666668,
      "d": 873.0159166666708,
      "v": 115
    },
    {
      "midi": 61,
      "hit": false,
      "t": 66634.92396666668,
      "d": 873.0159166666708,
      "v": 115
    },
    {
      "midi": 66,
      "hit": false,
      "t": 66634.92396666668,
      "d": 873.0159166666708,
      "v": 115
    },
    {
      "midi": 61,
      "hit": false,
      "t": 66666.66999999981,
      "d": 634.9206666666723,
      "v": 100
    },
    {
      "midi": 66,
      "hit": false,
      "t": 66666.66999999981,
      "d": 634.9206666666723,
      "v": 100
    },
    {
      "midi": 69,
      "hit": false,
      "t": 66666.66999999981,
      "d": 634.9206666666723,
      "v": 100
    },
    {
      "midi": 62,
      "hit": false,
      "t": 66666.66999999993,
      "d": 873.0159166666708,
      "v": 100
    },
    {
      "midi": 69,
      "hit": false,
      "t": 66666.66999999993,
      "d": 873.0159166666708,
      "v": 100
    },
    {
      "midi": 45,
      "hit": false,
      "t": 66666.66999999993,
      "d": 873.0159166666563,
      "v": 110
    },
    {
      "midi": 54,
      "hit": false,
      "t": 66666.66999999994,
      "d": 912.6984583333251,
      "v": 110
    },
    {
      "midi": 78,
      "hit": false,
      "t": 66666.67,
      "d": 888.8889333333354,
      "v": 120
    },
    {
      "midi": 90,
      "hit": false,
      "t": 66666.67000000004,
      "d": 873.0159166666708,
      "v": 100
    },
    {
      "midi": 61,
      "hit": false,
      "t": 66666.67000000004,
      "d": 952.380999999994,
      "v": 110
    },
    {
      "midi": 90,
      "hit": false,
      "t": 66666.67000000004,
      "d": 952.380999999994,
      "v": 110
    },
    {
      "midi": 78,
      "hit": false,
      "t": 66666.67000000004,
      "d": 952.380999999994,
      "v": 110
    },
    {
      "midi": 69,
      "hit": false,
      "t": 66666.67000000004,
      "d": 952.380999999994,
      "v": 110
    },
    {
      "midi": 2,
      "hit": false,
      "t": 66666.67000000004,
      "d": 7.936508333339589,
      "v": 115
    },
    {
      "midi": 49,
      "hit": false,
      "t": 66666.67000000004,
      "d": 7.936508333339589,
      "v": 120
    },
    {
      "midi": 78,
      "hit": false,
      "t": 66666.67000000007,
      "d": 873.0159166666708,
      "v": 100
    },
    {
      "midi": 66,
      "hit": false,
      "t": 66666.67000000013,
      "d": 936.5079833333293,
      "v": 110
    },
    {
      "midi": 61,
      "hit": false,
      "t": 67380.95574999982,
      "d": 79.36508333333768,
      "v": 100
    },
    {
      "midi": 66,
      "hit": false,
      "t": 67380.95574999982,
      "d": 79.36508333333768,
      "v": 100
    },
    {
      "midi": 69,
      "hit": false,
      "t": 67380.95574999982,
      "d": 79.36508333333768,
      "v": 100
    },
    {
      "midi": 59,
      "hit": false,
      "t": 67587.30496666669,
      "d": 873.0159166666708,
      "v": 119
    },
    {
      "midi": 62,
      "hit": false,
      "t": 67587.30496666669,
      "d": 873.0159166666708,
      "v": 119
    },
    {
      "midi": 67,
      "hit": false,
      "t": 67587.30496666669,
      "d": 873.0159166666708,
      "v": 119
    },
    {
      "midi": 62,
      "hit": false,
      "t": 67619.05099999982,
      "d": 634.9206666666723,
      "v": 100
    },
    {
      "midi": 67,
      "hit": false,
      "t": 67619.05099999982,
      "d": 634.9206666666723,
      "v": 100
    },
    {
      "midi": 71,
      "hit": false,
      "t": 67619.05099999982,
      "d": 634.9206666666723,
      "v": 100
    },
    {
      "midi": 45,
      "hit": false,
      "t": 67619.0509999999,
      "d": 873.0159166666708,
      "v": 110
    },
    {
      "midi": 64,
      "hit": false,
      "t": 67619.05099999993,
      "d": 873.0159166666708,
      "v": 100
    },
    {
      "midi": 69,
      "hit": false,
      "t": 67619.05099999993,
      "d": 873.0159166666708,
      "v": 100
    },
    {
      "midi": 71,
      "hit": false,
      "t": 67619.05099999993,
      "d": 873.0159166666708,
      "v": 100
    },
    {
      "midi": 55,
      "hit": false,
      "t": 67619.05099999993,
      "d": 912.6984583333251,
      "v": 110
    },
    {
      "midi": 79,
      "hit": false,
      "t": 67619.051,
      "d": 888.8889333333354,
      "v": 120
    },
    {
      "midi": 62,
      "hit": false,
      "t": 67619.05100000004,
      "d": 952.380999999994,
      "v": 110
    },
    {
      "midi": 91,
      "hit": false,
      "t": 67619.05100000004,
      "d": 952.380999999994,
      "v": 110
    },
    {
      "midi": 79,
      "hit": false,
      "t": 67619.05100000004,
      "d": 952.380999999994,
      "v": 110
    },
    {
      "midi": 71,
      "hit": false,
      "t": 67619.05100000004,
      "d": 952.380999999994,
      "v": 110
    },
    {
      "midi": 91,
      "hit": false,
      "t": 67619.05100000005,
      "d": 873.0159166666708,
      "v": 100
    },
    {
      "midi": 2,
      "hit": false,
      "t": 67619.05100000005,
      "d": 7.936508333339589,
      "v": 115
    },
    {
      "midi": 49,
      "hit": false,
      "t": 67619.05100000005,
      "d": 7.936508333339589,
      "v": 120
    },
    {
      "midi": 79,
      "hit": false,
      "t": 67619.05100000008,
      "d": 873.0159166666708,
      "v": 100
    },
    {
      "midi": 67,
      "hit": false,
      "t": 67619.05100000012,
      "d": 936.5079833333293,
      "v": 110
    },
    {
      "midi": 62,
      "hit": false,
      "t": 68333.33674999983,
      "d": 79.36508333333768,
      "v": 100
    },
    {
      "midi": 67,
      "hit": false,
      "t": 68333.33674999983,
      "d": 79.36508333333768,
      "v": 100
    },
    {
      "midi": 71,
      "hit": false,
      "t": 68333.33674999983,
      "d": 79.36508333333768,
      "v": 100
    },
    {
      "midi": 74,
      "hit": false,
      "t": 68507.93993333346,
      "d": 3793.6509833333257,
      "v": 115
    },
    {
      "midi": 81,
      "hit": false,
      "t": 68531.74945833333,
      "d": 3571.428749999992,
      "v": 127
    },
    {
      "midi": 81,
      "hit": false,
      "t": 68531.74945833335,
      "d": 888.8889333333354,
      "v": 120
    },
    {
      "midi": 57,
      "hit": false,
      "t": 68539.6859666667,
      "d": 634.9206666666723,
      "v": 110
    },
    {
      "midi": 62,
      "hit": false,
      "t": 68539.6859666667,
      "d": 634.9206666666723,
      "v": 110
    },
    {
      "midi": 66,
      "hit": false,
      "t": 68539.6859666667,
      "d": 634.9206666666723,
      "v": 110
    },
    {
      "midi": 86,
      "hit": false,
      "t": 68555.55898333334,
      "d": 3571.428749999992,
      "v": 127
    },
    {
      "midi": 66,
      "hit": false,
      "t": 68571.43199999983,
      "d": 936.5079833333439,
      "v": 110
    },
    {
      "midi": 69,
      "hit": false,
      "t": 68571.43199999983,
      "d": 936.5079833333439,
      "v": 110
    },
    {
      "midi": 74,
      "hit": false,
      "t": 68571.43199999983,
      "d": 936.5079833333439,
      "v": 110
    },
    {
      "midi": 38,
      "hit": false,
      "t": 68571.43199999991,
      "d": 412.69843333333847,
      "v": 115
    },
    {
      "midi": 57,
      "hit": false,
      "t": 68571.43199999993,
      "d": 396.82541666667385,
      "v": 100
    },
    {
      "midi": 50,
      "hit": false,
      "t": 68571.43199999993,
      "d": 396.82541666667385,
      "v": 100
    },
    {
      "midi": 66,
      "hit": false,
      "t": 68571.43199999994,
      "d": 873.0159166666708,
      "v": 100
    },
    {
      "midi": 69,
      "hit": false,
      "t": 68571.43199999994,
      "d": 873.0159166666708,
      "v": 100
    },
    {
      "midi": 74,
      "hit": false,
      "t": 68571.43199999994,
      "d": 873.0159166666708,
      "v": 100
    },
    {
      "midi": 57,
      "hit": false,
      "t": 68571.432,
      "d": 436.50795833332813,
      "v": 100
    },
    {
      "midi": 93,
      "hit": false,
      "t": 68571.43200000003,
      "d": 7603.174983333374,
      "v": 100
    },
    {
      "midi": 81,
      "hit": false,
      "t": 68571.43200000003,
      "d": 7603.174983333374,
      "v": 100
    },
    {
      "midi": 2,
      "hit": false,
      "t": 68571.43200000006,
      "d": 7.936508333339589,
      "v": 120
    },
    {
      "midi": 40,
      "hit": false,
      "t": 68571.43200000006,
      "d": 7.936508333339589,
      "v": 127
    },
    {
      "midi": 49,
      "hit": false,
      "t": 68571.43200000006,
      "d": 7.936508333339589,
      "v": 120
    },
    {
      "midi": 88,
      "hit": false,
      "t": 68603.17803333333,
      "d": 3571.428749999992,
      "v": 127
    },
    {
      "midi": 90,
      "hit": false,
      "t": 68634.92406666666,
      "d": 3571.428749999992,
      "v": 127
    },
    {
      "midi": 38,
      "hit": false,
      "t": 69047.62249999992,
      "d": 412.69843333333847,
      "v": 110
    },
    {
      "midi": 57,
      "hit": false,
      "t": 69047.62249999994,
      "d": 119.04762500000652,
      "v": 100
    },
    {
      "midi": 50,
      "hit": false,
      "t": 69047.62249999994,
      "d": 119.04762500000652,
      "v": 100
    },
    {
      "midi": 62,
      "hit": false,
      "t": 69047.6225,
      "d": 214.28572499999427,
      "v": 100
    },
    {
      "midi": 42,
      "hit": false,
      "t": 69047.62250000007,
      "d": 7.936508333339589,
      "v": 100
    },
    {
      "midi": 57,
      "hit": false,
      "t": 69269.84473333338,
      "d": 198.41270833332965,
      "v": 110
    },
    {
      "midi": 62,
      "hit": false,
      "t": 69269.84473333338,
      "d": 198.41270833332965,
      "v": 110
    },
    {
      "midi": 66,
      "hit": false,
      "t": 69269.84473333338,
      "d": 198.41270833332965,
      "v": 110
    },
    {
      "midi": 57,
      "hit": false,
      "t": 69285.71775,
      "d": 214.28572499999427,
      "v": 100
    },
    {
      "midi": 50,
      "hit": false,
      "t": 69523.81299999983,
      "d": 119.04762500000652,
      "v": 100
    },
    {
      "midi": 57,
      "hit": false,
      "t": 69523.81299999983,
      "d": 119.04762500000652,
      "v": 100
    },
    {
      "midi": 38,
      "hit": false,
      "t": 69523.81299999994,
      "d": 412.69843333333847,
      "v": 110
    },
    {
      "midi": 50,
      "hit": false,
      "t": 69523.81299999995,
      "d": 119.04762500000652,
      "v": 100
    },
    {
      "midi": 57,
      "hit": false,
      "t": 69523.81299999995,
      "d": 119.04762500000652,
      "v": 100
    },
    {
      "midi": 64,
      "hit": false,
      "t": 69523.813,
      "d": 214.28572499999427,
      "v": 100
    },
    {
      "midi": 40,
      "hit": false,
      "t": 69523.81300000008,
      "d": 7.936508333339589,
      "v": 127
    },
    {
      "midi": 42,
      "hit": false,
      "t": 69523.81300000008,
      "d": 7.936508333339589,
      "v": 100
    },
    {
      "midi": 62,
      "hit": false,
      "t": 69761.90825,
      "d": 214.28572499999427,
      "v": 100
    },
    {
      "midi": 57,
      "hit": false,
      "t": 69984.13048333337,
      "d": 198.41270833332965,
      "v": 110
    },
    {
      "midi": 62,
      "hit": false,
      "t": 69984.13048333337,
      "d": 198.41270833332965,
      "v": 110
    },
    {
      "midi": 66,
      "hit": false,
      "t": 69984.13048333337,
      "d": 198.41270833332965,
      "v": 110
    },
    {
      "midi": 50,
      "hit": false,
      "t": 70000.00349999985,
      "d": 119.04762500000652,
      "v": 100
    },
    {
      "midi": 57,
      "hit": false,
      "t": 70000.00349999985,
      "d": 119.04762500000652,
      "v": 100
    },
    {
      "midi": 38,
      "hit": false,
      "t": 70000.00349999995,
      "d": 412.69843333333847,
      "v": 110
    },
    {
      "midi": 50,
      "hit": false,
      "t": 70000.00349999996,
      "d": 396.82541666667385,
      "v": 100
    },
    {
      "midi": 57,
      "hit": false,
      "t": 70000.00349999996,
      "d": 396.82541666667385,
      "v": 100
    },
    {
      "midi": 62,
      "hit": false,
      "t": 70000.00349999999,
      "d": 214.28572499999427,
      "v": 100
    },
    {
      "midi": 42,
      "hit": false,
      "t": 70000.0035000001,
      "d": 7.936508333339589,
      "v": 100
    },
    {
      "midi": 57,
      "hit": false,
      "t": 70222.22573333337,
      "d": 198.41270833332965,
      "v": 110
    },
    {
      "midi": 62,
      "hit": false,
      "t": 70222.22573333337,
      "d": 198.41270833332965,
      "v": 110
    },
    {
      "midi": 66,
      "hit": false,
      "t": 70222.22573333337,
      "d": 198.41270833332965,
      "v": 110
    },
    {
      "midi": 64,
      "hit": false,
      "t": 70238.09874999999,
      "d": 214.28572499999427,
      "v": 100
    },
    {
      "midi": 50,
      "hit": false,
      "t": 70476.19399999986,
      "d": 119.04762500000652,
      "v": 100
    },
    {
      "midi": 57,
      "hit": false,
      "t": 70476.19399999986,
      "d": 119.04762500000652,
      "v": 100
    },
    {
      "midi": 66,
      "hit": false,
      "t": 70476.19399999994,
      "d": 436.50795833332813,
      "v": 100
    },
    {
      "midi": 69,
      "hit": false,
      "t": 70476.19399999994,
      "d": 436.50795833332813,
      "v": 100
    },
    {
      "midi": 74,
      "hit": false,
      "t": 70476.19399999994,
      "d": 436.50795833332813,
      "v": 100
    },
    {
      "midi": 38,
      "hit": false,
      "t": 70476.19399999996,
      "d": 412.69843333333847,
      "v": 110
    },
    {
      "midi": 50,
      "hit": false,
      "t": 70476.19399999997,
      "d": 119.04762500000652,
      "v": 100
    },
    {
      "midi": 57,
      "hit": false,
      "t": 70476.19399999997,
      "d": 119.04762500000652,
      "v": 100
    },
    {
      "midi": 69,
      "hit": false,
      "t": 70476.19399999999,
      "d": 214.28572499999427,
      "v": 100
    },
    {
      "midi": 81,
      "hit": false,
      "t": 70476.19400000002,
      "d": 436.50795833332813,
      "v": 118
    },
    {
      "midi": 40,
      "hit": false,
      "t": 70476.1940000001,
      "d": 7.936508333339589,
      "v": 127
    },
    {
      "midi": 42,
      "hit": false,
      "t": 70476.1940000001,
      "d": 7.936508333339589,
      "v": 100
    },
    {
      "midi": 62,
      "hit": false,
      "t": 70714.28924999999,
      "d": 214.28572499999427,
      "v": 100
    },
    {
      "midi": 57,
      "hit": false,
      "t": 70936.51148333336,
      "d": 436.50795833332813,
      "v": 110
    },
    {
      "midi": 62,
      "hit": false,
      "t": 70936.51148333336,
      "d": 436.50795833332813,
      "v": 110
    },
    {
      "midi": 66,
      "hit": false,
      "t": 70936.51148333336,
      "d": 436.50795833332813,
      "v": 110
    },
    {
      "midi": 50,
      "hit": false,
      "t": 70952.38449999987,
      "d": 119.04762500000652,
      "v": 100
    },
    {
      "midi": 57,
      "hit": false,
      "t": 70952.38449999987,
      "d": 119.04762500000652,
      "v": 100
    },
    {
      "midi": 66,
      "hit": false,
      "t": 70952.38449999994,
      "d": 436.50795833332813,
      "v": 100
    },
    {
      "midi": 69,
      "hit": false,
      "t": 70952.38449999994,
      "d": 436.50795833332813,
      "v": 100
    },
    {
      "midi": 74,
      "hit": false,
      "t": 70952.38449999994,
      "d": 436.50795833332813,
      "v": 100
    },
    {
      "midi": 38,
      "hit": false,
      "t": 70952.38449999997,
      "d": 412.69843333333847,
      "v": 110
    },
    {
      "midi": 50,
      "hit": false,
      "t": 70952.38449999999,
      "d": 119.04762500000652,
      "v": 100
    },
    {
      "midi": 57,
      "hit": false,
      "t": 70952.38449999999,
      "d": 119.04762500000652,
      "v": 100
    },
    {
      "midi": 62,
      "hit": false,
      "t": 70952.38449999999,
      "d": 214.28572499999427,
      "v": 100
    },
    {
      "midi": 79,
      "hit": false,
      "t": 70952.38450000001,
      "d": 436.50795833332813,
      "v": 118
    },
    {
      "midi": 2,
      "hit": false,
      "t": 70952.38450000012,
      "d": 7.936508333339589,
      "v": 115
    },
    {
      "midi": 42,
      "hit": false,
      "t": 70952.38450000012,
      "d": 7.936508333339589,
      "v": 100
    },
    {
      "midi": 69,
      "hit": false,
      "t": 71190.47974999998,
      "d": 214.28572499999427,
      "v": 100
    },
    {
      "midi": 50,
      "hit": false,
      "t": 71428.57499999988,
      "d": 912.6984583333251,
      "v": 100
    },
    {
      "midi": 57,
      "hit": false,
      "t": 71428.57499999988,
      "d": 912.6984583333251,
      "v": 100
    },
    {
      "midi": 66,
      "hit": false,
      "t": 71428.57499999994,
      "d": 436.50795833332813,
      "v": 100
    },
    {
      "midi": 69,
      "hit": false,
      "t": 71428.57499999994,
      "d": 436.50795833332813,
      "v": 100
    },
    {
      "midi": 74,
      "hit": false,
      "t": 71428.57499999994,
      "d": 436.50795833332813,
      "v": 100
    },
    {
      "midi": 38,
      "hit": false,
      "t": 71428.57499999998,
      "d": 412.69843333333847,
      "v": 110
    },
    {
      "midi": 64,
      "hit": false,
      "t": 71428.57499999998,
      "d": 214.28572499999427,
      "v": 100
    },
    {
      "midi": 50,
      "hit": false,
      "t": 71428.575,
      "d": 396.82541666667385,
      "v": 100
    },
    {
      "midi": 57,
      "hit": false,
      "t": 71428.575,
      "d": 396.82541666667385,
      "v": 100
    },
    {
      "midi": 78,
      "hit": false,
      "t": 71428.57500000001,
      "d": 436.50795833332813,
      "v": 118
    },
    {
      "midi": 40,
      "hit": false,
      "t": 71428.57500000013,
      "d": 7.936508333339589,
      "v": 127
    },
    {
      "midi": 42,
      "hit": false,
      "t": 71428.57500000013,
      "d": 7.936508333339589,
      "v": 100
    },
    {
      "midi": 57,
      "hit": false,
      "t": 71650.79723333336,
      "d": 198.41270833332965,
      "v": 110
    },
    {
      "midi": 62,
      "hit": false,
      "t": 71650.79723333336,
      "d": 198.41270833332965,
      "v": 110
    },
    {
      "midi": 66,
      "hit": false,
      "t": 71650.79723333336,
      "d": 198.41270833332965,
      "v": 110
    },
    {
      "midi": 62,
      "hit": false,
      "t": 71666.67024999998,
      "d": 214.28572499999427,
      "v": 100
    },
    {
      "midi": 66,
      "hit": false,
      "t": 71904.76549999994,
      "d": 436.50795833332813,
      "v": 100
    },
    {
      "midi": 69,
      "hit": false,
      "t": 71904.76549999994,
      "d": 436.50795833332813,
      "v": 100
    },
    {
      "midi": 74,
      "hit": false,
      "t": 71904.76549999994,
      "d": 436.50795833332813,
      "v": 100
    },
    {
      "midi": 69,
      "hit": false,
      "t": 71904.76549999998,
      "d": 214.28572499999427,
      "v": 100
    },
    {
      "midi": 38,
      "hit": false,
      "t": 71904.7655,
      "d": 412.69843333333847,
      "v": 110
    },
    {
      "midi": 79,
      "hit": false,
      "t": 71904.76550000001,
      "d": 436.50795833332813,
      "v": 118
    },
    {
      "midi": 57,
      "hit": false,
      "t": 71904.76550000001,
      "d": 396.82541666667385,
      "v": 100
    },
    {
      "midi": 50,
      "hit": false,
      "t": 71904.76550000001,
      "d": 396.82541666667385,
      "v": 100
    },
    {
      "midi": 2,
      "hit": false,
      "t": 71904.76550000014,
      "d": 7.936508333339589,
      "v": 115
    },
    {
      "midi": 42,
      "hit": false,
      "t": 71904.76550000014,
      "d": 7.936508333339589,
      "v": 100
    },
    {
      "midi": 62,
      "hit": false,
      "t": 72142.86074999998,
      "d": 214.28572499999427,
      "v": 100
    },
    {
      "midi": 73,
      "hit": false,
      "t": 72317.46393333345,
      "d": 3793.6509833333403,
      "v": 115
    },
    {
      "midi": 57,
      "hit": false,
      "t": 72357.14647500002,
      "d": 634.9206666666723,
      "v": 110
    },
    {
      "midi": 64,
      "hit": false,
      "t": 72357.14647500002,
      "d": 634.9206666666723,
      "v": 110
    },
    {
      "midi": 61,
      "hit": false,
      "t": 72357.14647500002,
      "d": 634.9206666666723,
      "v": 110
    },
    {
      "midi": 59,
      "hit": false,
      "t": 72357.14647500002,
      "d": 634.9206666666723,
      "v": 110
    },
    {
      "midi": 45,
      "hit": false,
      "t": 72380.95599999987,
      "d": 912.6984583333397,
      "v": 100
    },
    {
      "midi": 52,
      "hit": false,
      "t": 72380.95599999987,
      "d": 912.6984583333397,
      "v": 100
    },
    {
      "midi": 64,
      "hit": false,
      "t": 72380.95599999993,
      "d": 1428.5715000000055,
      "v": 100
    },
    {
      "midi": 69,
      "hit": false,
      "t": 72380.95599999993,
      "d": 1428.5715000000055,
      "v": 100
    },
    {
      "midi": 73,
      "hit": false,
      "t": 72380.95599999993,
      "d": 1428.5715000000055,
      "v": 100
    },
    {
      "midi": 57,
      "hit": false,
      "t": 72380.95599999998,
      "d": 214.28572499999427,
      "v": 100
    },
    {
      "midi": 81,
      "hit": false,
      "t": 72380.956,
      "d": 1349.2064166666678,
      "v": 120
    },
    {
      "midi": 33,
      "hit": false,
      "t": 72380.956,
      "d": 412.69843333333847,
      "v": 115
    },
    {
      "midi": 45,
      "hit": false,
      "t": 72380.95600000002,
      "d": 396.82541666667385,
      "v": 100
    },
    {
      "midi": 52,
      "hit": false,
      "t": 72380.95600000002,
      "d": 396.82541666667385,
      "v": 100
    },
    {
      "midi": 2,
      "hit": false,
      "t": 72380.95600000015,
      "d": 7.936508333339589,
      "v": 120
    },
    {
      "midi": 40,
      "hit": false,
      "t": 72380.95600000015,
      "d": 7.936508333339589,
      "v": 127
    },
    {
      "midi": 42,
      "hit": false,
      "t": 72380.95600000015,
      "d": 7.936508333339589,
      "v": 100
    },
    {
      "midi": 69,
      "hit": false,
      "t": 72619.05124999997,
      "d": 214.28572499999427,
      "v": 100
    },
    {
      "midi": 61,
      "hit": false,
      "t": 72857.14649999997,
      "d": 214.28572499999427,
      "v": 100
    },
    {
      "midi": 33,
      "hit": false,
      "t": 72857.14650000002,
      "d": 412.69843333333847,
      "v": 110
    },
    {
      "midi": 45,
      "hit": false,
      "t": 72857.14650000003,
      "d": 119.04762500000652,
      "v": 100
    },
    {
      "midi": 52,
      "hit": false,
      "t": 72857.14650000003,
      "d": 119.04762500000652,
      "v": 100
    },
    {
      "midi": 42,
      "hit": false,
      "t": 72857.14650000016,
      "d": 7.936508333339589,
      "v": 100
    },
    {
      "midi": 57,
      "hit": false,
      "t": 73079.36873333335,
      "d": 198.41270833332965,
      "v": 110
    },
    {
      "midi": 64,
      "hit": false,
      "t": 73079.36873333335,
      "d": 198.41270833332965,
      "v": 110
    },
    {
      "midi": 61,
      "hit": false,
      "t": 73079.36873333335,
      "d": 198.41270833332965,
      "v": 110
    },
    {
      "midi": 59,
      "hit": false,
      "t": 73079.36873333335,
      "d": 198.41270833332965,
      "v": 110
    },
    {
      "midi": 57,
      "hit": false,
      "t": 73095.24174999997,
      "d": 214.28572499999427,
      "v": 100
    },
    {
      "midi": 45,
      "hit": false,
      "t": 73333.33699999988,
      "d": 119.04762499999197,
      "v": 100
    },
    {
      "midi": 52,
      "hit": false,
      "t": 73333.33699999988,
      "d": 119.04762499999197,
      "v": 100
    },
    {
      "midi": 64,
      "hit": false,
      "t": 73333.33699999997,
      "d": 214.28572499999427,
      "v": 100
    },
    {
      "midi": 33,
      "hit": false,
      "t": 73333.33700000003,
      "d": 412.69843333333847,
      "v": 110
    },
    {
      "midi": 45,
      "hit": false,
      "t": 73333.33700000004,
      "d": 119.04762500000652,
      "v": 100
    },
    {
      "midi": 52,
      "hit": false,
      "t": 73333.33700000004,
      "d": 119.04762500000652,
      "v": 100
    },
    {
      "midi": 40,
      "hit": false,
      "t": 73333.33700000017,
      "d": 7.936508333339589,
      "v": 127
    },
    {
      "midi": 42,
      "hit": false,
      "t": 73333.33700000017,
      "d": 7.936508333339589,
      "v": 100
    },
    {
      "midi": 61,
      "hit": false,
      "t": 73571.43224999997,
      "d": 214.28572499999427,
      "v": 100
    },
    {
      "midi": 57,
      "hit": false,
      "t": 73793.65448333335,
      "d": 873.0159166666708,
      "v": 110
    },
    {
      "midi": 64,
      "hit": false,
      "t": 73793.65448333335,
      "d": 873.0159166666708,
      "v": 110
    },
    {
      "midi": 61,
      "hit": false,
      "t": 73793.65448333335,
      "d": 873.0159166666708,
      "v": 110
    },
    {
      "midi": 59,
      "hit": false,
      "t": 73793.65448333335,
      "d": 873.0159166666708,
      "v": 110
    },
    {
      "midi": 45,
      "hit": false,
      "t": 73809.52749999988,
      "d": 119.04762500000652,
      "v": 100
    },
    {
      "midi": 52,
      "hit": false,
      "t": 73809.52749999988,
      "d": 119.04762500000652,
      "v": 100
    },
    {
      "midi": 64,
      "hit": false,
      "t": 73809.52749999994,
      "d": 436.50795833332813,
      "v": 100
    },
    {
      "midi": 69,
      "hit": false,
      "t": 73809.52749999994,
      "d": 436.50795833332813,
      "v": 100
    },
    {
      "midi": 73,
      "hit": false,
      "t": 73809.52749999994,
      "d": 436.50795833332813,
      "v": 100
    },
    {
      "midi": 61,
      "hit": false,
      "t": 73809.52749999997,
      "d": 214.28572499999427,
      "v": 100
    },
    {
      "midi": 76,
      "hit": false,
      "t": 73809.52750000001,
      "d": 436.50795833332813,
      "v": 118
    },
    {
      "midi": 33,
      "hit": false,
      "t": 73809.52750000004,
      "d": 412.69843333333847,
      "v": 110
    },
    {
      "midi": 45,
      "hit": false,
      "t": 73809.52750000005,
      "d": 396.82541666667385,
      "v": 100
    },
    {
      "midi": 52,
      "hit": false,
      "t": 73809.52750000005,
      "d": 396.82541666667385,
      "v": 100
    },
    {
      "midi": 42,
      "hit": false,
      "t": 73809.52750000019,
      "d": 7.936508333339589,
      "v": 100
    },
    {
      "midi": 64,
      "hit": false,
      "t": 74047.62274999997,
      "d": 214.28572499999427,
      "v": 100
    },
    {
      "midi": 45,
      "hit": false,
      "t": 74285.71799999989,
      "d": 119.04762500000652,
      "v": 100
    },
    {
      "midi": 52,
      "hit": false,
      "t": 74285.71799999989,
      "d": 119.04762500000652,
      "v": 100
    },
    {
      "midi": 64,
      "hit": false,
      "t": 74285.71799999994,
      "d": 873.0159166666708,
      "v": 100
    },
    {
      "midi": 69,
      "hit": false,
      "t": 74285.71799999994,
      "d": 873.0159166666708,
      "v": 100
    },
    {
      "midi": 73,
      "hit": false,
      "t": 74285.71799999994,
      "d": 873.0159166666708,
      "v": 100
    },
    {
      "midi": 69,
      "hit": false,
      "t": 74285.71799999996,
      "d": 214.28572499999427,
      "v": 100
    },
    {
      "midi": 76,
      "hit": false,
      "t": 74285.71800000001,
      "d": 793.6508333333331,
      "v": 118
    },
    {
      "midi": 33,
      "hit": false,
      "t": 74285.71800000005,
      "d": 412.69843333333847,
      "v": 110
    },
    {
      "midi": 45,
      "hit": false,
      "t": 74285.71800000007,
      "d": 119.04762500000652,
      "v": 100
    },
    {
      "midi": 52,
      "hit": false,
      "t": 74285.71800000007,
      "d": 119.04762500000652,
      "v": 100
    },
    {
      "midi": 40,
      "hit": false,
      "t": 74285.7180000002,
      "d": 7.936508333339589,
      "v": 127
    },
    {
      "midi": 42,
      "hit": false,
      "t": 74285.7180000002,
      "d": 7.936508333339589,
      "v": 100
    },
    {
      "midi": 61,
      "hit": false,
      "t": 74523.81324999996,
      "d": 214.28572499999427,
      "v": 100
    },
    {
      "midi": 57,
      "hit": false,
      "t": 74746.03548333335,
      "d": 198.41270833332965,
      "v": 110
    },
    {
      "midi": 64,
      "hit": false,
      "t": 74746.03548333335,
      "d": 198.41270833332965,
      "v": 110
    },
    {
      "midi": 61,
      "hit": false,
      "t": 74746.03548333335,
      "d": 198.41270833332965,
      "v": 110
    },
    {
      "midi": 59,
      "hit": false,
      "t": 74746.03548333335,
      "d": 198.41270833332965,
      "v": 110
    },
    {
      "midi": 52,
      "hit": false,
      "t": 74761.9084999999,
      "d": 119.04762500000652,
      "v": 100
    },
    {
      "midi": 45,
      "hit": false,
      "t": 74761.9084999999,
      "d": 119.04762500000652,
      "v": 100
    },
    {
      "midi": 64,
      "hit": false,
      "t": 74761.90849999996,
      "d": 214.28572499999427,
      "v": 100
    },
    {
      "midi": 33,
      "hit": false,
      "t": 74761.90850000006,
      "d": 412.69843333333847,
      "v": 110
    },
    {
      "midi": 45,
      "hit": false,
      "t": 74761.90850000008,
      "d": 119.04762500000652,
      "v": 100
    },
    {
      "midi": 52,
      "hit": false,
      "t": 74761.90850000008,
      "d": 119.04762500000652,
      "v": 100
    },
    {
      "midi": 2,
      "hit": false,
      "t": 74761.90850000021,
      "d": 7.936508333339589,
      "v": 115
    },
    {
      "midi": 42,
      "hit": false,
      "t": 74761.90850000021,
      "d": 7.936508333339589,
      "v": 100
    },
    {
      "midi": 57,
      "hit": false,
      "t": 74984.13073333335,
      "d": 198.41270833332965,
      "v": 110
    },
    {
      "midi": 64,
      "hit": false,
      "t": 74984.13073333335,
      "d": 198.41270833332965,
      "v": 110
    },
    {
      "midi": 61,
      "hit": false,
      "t": 74984.13073333335,
      "d": 198.41270833332965,
      "v": 110
    },
    {
      "midi": 59,
      "hit": false,
      "t": 74984.13073333335,
      "d": 198.41270833332965,
      "v": 110
    },
    {
      "midi": 69,
      "hit": false,
      "t": 75000.00374999996,
      "d": 214.28572499999427,
      "v": 100
    },
    {
      "midi": 45,
      "hit": false,
      "t": 75238.09899999991,
      "d": 912.6984583333397,
      "v": 100
    },
    {
      "midi": 52,
      "hit": false,
      "t": 75238.09899999991,
      "d": 912.6984583333397,
      "v": 100
    },
    {
      "midi": 64,
      "hit": false,
      "t": 75238.09899999994,
      "d": 436.50795833332813,
      "v": 100
    },
    {
      "midi": 69,
      "hit": false,
      "t": 75238.09899999994,
      "d": 436.50795833332813,
      "v": 100
    },
    {
      "midi": 73,
      "hit": false,
      "t": 75238.09899999994,
      "d": 436.50795833332813,
      "v": 100
    },
    {
      "midi": 69,
      "hit": false,
      "t": 75238.09899999996,
      "d": 214.28572499999427,
      "v": 100
    },
    {
      "midi": 78,
      "hit": false,
      "t": 75238.099,
      "d": 436.50795833332813,
      "v": 118
    },
    {
      "midi": 37,
      "hit": false,
      "t": 75238.09900000007,
      "d": 412.69843333333847,
      "v": 110
    },
    {
      "midi": 45,
      "hit": false,
      "t": 75238.09900000009,
      "d": 396.82541666667385,
      "v": 100
    },
    {
      "midi": 52,
      "hit": false,
      "t": 75238.09900000009,
      "d": 396.82541666667385,
      "v": 100
    },
    {
      "midi": 40,
      "hit": false,
      "t": 75238.09900000022,
      "d": 7.936508333339589,
      "v": 127
    },
    {
      "midi": 42,
      "hit": false,
      "t": 75238.09900000022,
      "d": 7.936508333339589,
      "v": 100
    },
    {
      "midi": 57,
      "hit": false,
      "t": 75460.32123333335,
      "d": 198.41270833332965,
      "v": 110
    },
    {
      "midi": 64,
      "hit": false,
      "t": 75460.32123333335,
      "d": 198.41270833332965,
      "v": 110
    },
    {
      "midi": 61,
      "hit": false,
      "t": 75460.32123333335,
      "d": 198.41270833332965,
      "v": 110
    },
    {
      "midi": 59,
      "hit": false,
      "t": 75460.32123333335,
      "d": 198.41270833332965,
      "v": 110
    },
    {
      "midi": 64,
      "hit": false,
      "t": 75476.19424999996,
      "d": 214.28572499999427,
      "v": 100
    },
    {
      "midi": 64,
      "hit": false,
      "t": 75714.28949999994,
      "d": 436.50795833332813,
      "v": 100
    },
    {
      "midi": 69,
      "hit": false,
      "t": 75714.28949999994,
      "d": 436.50795833332813,
      "v": 100
    },
    {
      "midi": 73,
      "hit": false,
      "t": 75714.28949999994,
      "d": 436.50795833332813,
      "v": 100
    },
    {
      "midi": 73,
      "hit": false,
      "t": 75714.28949999996,
      "d": 214.28572499999427,
      "v": 100
    },
    {
      "midi": 76,
      "hit": false,
      "t": 75714.2895,
      "d": 436.50795833332813,
      "v": 118
    },
    {
      "midi": 33,
      "hit": false,
      "t": 75714.28950000009,
      "d": 412.69843333333847,
      "v": 110
    },
    {
      "midi": 52,
      "hit": false,
      "t": 75714.2895000001,
      "d": 396.82541666667385,
      "v": 100
    },
    {
      "midi": 45,
      "hit": false,
      "t": 75714.2895000001,
      "d": 396.82541666667385,
      "v": 100
    },
    {
      "midi": 2,
      "hit": false,
      "t": 75714.28950000023,
      "d": 7.936508333339589,
      "v": 115
    },
    {
      "midi": 42,
      "hit": false,
      "t": 75714.28950000023,
      "d": 7.936508333339589,
      "v": 100
    },
    {
      "midi": 69,
      "hit": false,
      "t": 75952.38474999995,
      "d": 214.28572499999427,
      "v": 100
    },
    {
      "midi": 71,
      "hit": false,
      "t": 76126.98793333345,
      "d": 3793.6509833333403,
      "v": 115
    },
    {
      "midi": 74,
      "hit": false,
      "t": 76158.73396666667,
      "d": 436.50795833332813,
      "v": 118
    },
    {
      "midi": 57,
      "hit": false,
      "t": 76166.670475,
      "d": 634.9206666666723,
      "v": 110
    },
    {
      "midi": 62,
      "hit": false,
      "t": 76166.670475,
      "d": 634.9206666666723,
      "v": 110
    },
    {
      "midi": 66,
      "hit": false,
      "t": 76166.670475,
      "d": 634.9206666666723,
      "v": 110
    },
    {
      "midi": 86,
      "hit": false,
      "t": 76166.67047500006,
      "d": 3809.524000000005,
      "v": 100
    },
    {
      "midi": 98,
      "hit": false,
      "t": 76166.67047500006,
      "d": 3809.524000000005,
      "v": 100
    },
    {
      "midi": 47,
      "hit": false,
      "t": 76190.47999999992,
      "d": 912.6984583333397,
      "v": 100
    },
    {
      "midi": 54,
      "hit": false,
      "t": 76190.47999999992,
      "d": 912.6984583333397,
      "v": 100
    },
    {
      "midi": 62,
      "hit": false,
      "t": 76190.47999999994,
      "d": 436.50795833332813,
      "v": 100
    },
    {
      "midi": 66,
      "hit": false,
      "t": 76190.47999999994,
      "d": 436.50795833332813,
      "v": 100
    },
    {
      "midi": 71,
      "hit": false,
      "t": 76190.47999999994,
      "d": 436.50795833332813,
      "v": 100
    },
    {
      "midi": 59,
      "hit": false,
      "t": 76190.47999999995,
      "d": 436.50795833332813,
      "v": 100
    },
    {
      "midi": 35,
      "hit": false,
      "t": 76190.4800000001,
      "d": 412.69843333333847,
      "v": 115
    },
    {
      "midi": 47,
      "hit": false,
      "t": 76190.48000000011,
      "d": 396.82541666667385,
      "v": 100
    },
    {
      "midi": 54,
      "hit": false,
      "t": 76190.48000000011,
      "d": 396.82541666667385,
      "v": 100
    },
    {
      "midi": 2,
      "hit": false,
      "t": 76190.48000000024,
      "d": 7.936508333339589,
      "v": 120
    },
    {
      "midi": 40,
      "hit": false,
      "t": 76190.48000000024,
      "d": 7.936508333339589,
      "v": 127
    },
    {
      "midi": 42,
      "hit": false,
      "t": 76190.48000000024,
      "d": 7.936508333339589,
      "v": 100
    },
    {
      "midi": 62,
      "hit": false,
      "t": 76666.67049999993,
      "d": 873.0159166666708,
      "v": 100
    },
    {
      "midi": 66,
      "hit": false,
      "t": 76666.67049999993,
      "d": 873.0159166666708,
      "v": 100
    },
    {
      "midi": 71,
      "hit": false,
      "t": 76666.67049999993,
      "d": 873.0159166666708,
      "v": 100
    },
    {
      "midi": 62,
      "hit": false,
      "t": 76666.67049999995,
      "d": 214.28572499999427,
      "v": 100
    },
    {
      "midi": 74,
      "hit": false,
      "t": 76666.6705,
      "d": 873.0159166666708,
      "v": 118
    },
    {
      "midi": 35,
      "hit": false,
      "t": 76666.67050000011,
      "d": 412.69843333333847,
      "v": 110
    },
    {
      "midi": 47,
      "hit": false,
      "t": 76666.67050000012,
      "d": 119.04762500000652,
      "v": 100
    },
    {
      "midi": 54,
      "hit": false,
      "t": 76666.67050000012,
      "d": 119.04762500000652,
      "v": 100
    },
    {
      "midi": 42,
      "hit": false,
      "t": 76666.67050000025,
      "d": 7.936508333339589,
      "v": 100
    },
    {
      "midi": 57,
      "hit": false,
      "t": 76888.89273333334,
      "d": 198.41270833332965,
      "v": 110
    },
    {
      "midi": 62,
      "hit": false,
      "t": 76888.89273333334,
      "d": 198.41270833332965,
      "v": 110
    },
    {
      "midi": 66,
      "hit": false,
      "t": 76888.89273333334,
      "d": 198.41270833332965,
      "v": 110
    },
    {
      "midi": 59,
      "hit": false,
      "t": 76904.76574999995,
      "d": 214.28572499999427,
      "v": 100
    },
    {
      "midi": 47,
      "hit": false,
      "t": 77142.86099999993,
      "d": 119.04762500000652,
      "v": 100
    },
    {
      "midi": 54,
      "hit": false,
      "t": 77142.86099999993,
      "d": 119.04762500000652,
      "v": 100
    },
    {
      "midi": 66,
      "hit": false,
      "t": 77142.86099999995,
      "d": 214.28572499999427,
      "v": 100
    },
    {
      "midi": 35,
      "hit": false,
      "t": 77142.86100000012,
      "d": 412.69843333333847,
      "v": 110
    },
    {
      "midi": 47,
      "hit": false,
      "t": 77142.86100000014,
      "d": 119.04762500000652,
      "v": 100
    },
    {
      "midi": 54,
      "hit": false,
      "t": 77142.86100000014,
      "d": 119.04762500000652,
      "v": 100
    },
    {
      "midi": 40,
      "hit": false,
      "t": 77142.86100000027,
      "d": 7.936508333339589,
      "v": 127
    },
    {
      "midi": 42,
      "hit": false,
      "t": 77142.86100000027,
      "d": 7.936508333339589,
      "v": 100
    },
    {
      "midi": 64,
      "hit": false,
      "t": 77380.95624999994,
      "d": 214.28572499999427,
      "v": 100
    },
    {
      "midi": 57,
      "hit": false,
      "t": 77603.17848333334,
      "d": 873.0159166666708,
      "v": 110
    },
    {
      "midi": 62,
      "hit": false,
      "t": 77603.17848333334,
      "d": 873.0159166666708,
      "v": 110
    },
    {
      "midi": 66,
      "hit": false,
      "t": 77603.17848333334,
      "d": 873.0159166666708,
      "v": 110
    },
    {
      "midi": 62,
      "hit": false,
      "t": 77619.05149999994,
      "d": 436.50795833332813,
      "v": 100
    },
    {
      "midi": 66,
      "hit": false,
      "t": 77619.05149999994,
      "d": 436.50795833332813,
      "v": 100
    },
    {
      "midi": 71,
      "hit": false,
      "t": 77619.05149999994,
      "d": 436.50795833332813,
      "v": 100
    },
    {
      "midi": 54,
      "hit": false,
      "t": 77619.05149999994,
      "d": 119.04762500000652,
      "v": 100
    },
    {
      "midi": 47,
      "hit": false,
      "t": 77619.05149999994,
      "d": 119.04762500000652,
      "v": 100
    },
    {
      "midi": 64,
      "hit": false,
      "t": 77619.05149999994,
      "d": 214.28572499999427,
      "v": 100
    },
    {
      "midi": 73,
      "hit": false,
      "t": 77619.0515,
      "d": 436.50795833332813,
      "v": 118
    },
    {
      "midi": 35,
      "hit": false,
      "t": 77619.05150000013,
      "d": 412.69843333333847,
      "v": 110
    },
    {
      "midi": 47,
      "hit": false,
      "t": 77619.05150000015,
      "d": 396.82541666667385,
      "v": 100
    },
    {
      "midi": 54,
      "hit": false,
      "t": 77619.05150000015,
      "d": 396.82541666667385,
      "v": 100
    },
    {
      "midi": 42,
      "hit": false,
      "t": 77619.05150000028,
      "d": 7.936508333339589,
      "v": 100
    },
    {
      "midi": 66,
      "hit": false,
      "t": 77857.14674999994,
      "d": 214.28572499999427,
      "v": 100
    },
    {
      "midi": 62,
      "hit": false,
      "t": 78095.24199999994,
      "d": 436.50795833332813,
      "v": 100
    },
    {
      "midi": 66,
      "hit": false,
      "t": 78095.24199999994,
      "d": 436.50795833332813,
      "v": 100
    },
    {
      "midi": 71,
      "hit": false,
      "t": 78095.24199999994,
      "d": 436.50795833332813,
      "v": 100
    },
    {
      "midi": 71,
      "hit": false,
      "t": 78095.24199999994,
      "d": 214.28572499999427,
      "v": 100
    },
    {
      "midi": 47,
      "hit": false,
      "t": 78095.24199999995,
      "d": 119.04762500000652,
      "v": 100
    },
    {
      "midi": 54,
      "hit": false,
      "t": 78095.24199999995,
      "d": 119.04762500000652,
      "v": 100
    },
    {
      "midi": 74,
      "hit": false,
      "t": 78095.242,
      "d": 436.50795833332813,
      "v": 118
    },
    {
      "midi": 35,
      "hit": false,
      "t": 78095.24200000014,
      "d": 412.69843333333847,
      "v": 110
    },
    {
      "midi": 47,
      "hit": false,
      "t": 78095.24200000016,
      "d": 119.04762500000652,
      "v": 100
    },
    {
      "midi": 54,
      "hit": false,
      "t": 78095.24200000016,
      "d": 119.04762500000652,
      "v": 100
    },
    {
      "midi": 40,
      "hit": false,
      "t": 78095.24200000029,
      "d": 7.936508333339589,
      "v": 127
    },
    {
      "midi": 42,
      "hit": false,
      "t": 78095.24200000029,
      "d": 7.936508333339589,
      "v": 100
    },
    {
      "midi": 62,
      "hit": false,
      "t": 78333.33724999994,
      "d": 214.28572499999427,
      "v": 100
    },
    {
      "midi": 57,
      "hit": false,
      "t": 78555.55948333335,
      "d": 198.41270833332965,
      "v": 110
    },
    {
      "midi": 62,
      "hit": false,
      "t": 78555.55948333335,
      "d": 198.41270833332965,
      "v": 110
    },
    {
      "midi": 66,
      "hit": false,
      "t": 78555.55948333335,
      "d": 198.41270833332965,
      "v": 110
    },
    {
      "midi": 62,
      "hit": false,
      "t": 78571.43249999994,
      "d": 436.50795833332813,
      "v": 100
    },
    {
      "midi": 66,
      "hit": false,
      "t": 78571.43249999994,
      "d": 436.50795833332813,
      "v": 100
    },
    {
      "midi": 71,
      "hit": false,
      "t": 78571.43249999994,
      "d": 436.50795833332813,
      "v": 100
    },
    {
      "midi": 62,
      "hit": false,
      "t": 78571.43249999994,
      "d": 214.28572499999427,
      "v": 100
    },
    {
      "midi": 54,
      "hit": false,
      "t": 78571.43249999997,
      "d": 119.04762500000652,
      "v": 100
    },
    {
      "midi": 47,
      "hit": false,
      "t": 78571.43249999997,
      "d": 119.04762500000652,
      "v": 100
    },
    {
      "midi": 76,
      "hit": false,
      "t": 78571.4325,
      "d": 436.50795833332813,
      "v": 118
    },
    {
      "midi": 35,
      "hit": false,
      "t": 78571.43250000016,
      "d": 412.69843333333847,
      "v": 110
    },
    {
      "midi": 47,
      "hit": false,
      "t": 78571.43250000017,
      "d": 119.04762500000652,
      "v": 100
    },
    {
      "midi": 54,
      "hit": false,
      "t": 78571.43250000017,
      "d": 119.04762500000652,
      "v": 100
    },
    {
      "midi": 2,
      "hit": false,
      "t": 78571.4325000003,
      "d": 7.936508333339589,
      "v": 115
    },
    {
      "midi": 42,
      "hit": false,
      "t": 78571.4325000003,
      "d": 7.936508333339589,
      "v": 100
    },
    {
      "midi": 66,
      "hit": false,
      "t": 78793.65473333334,
      "d": 198.41270833332965,
      "v": 110
    },
    {
      "midi": 62,
      "hit": false,
      "t": 78793.65473333334,
      "d": 198.41270833332965,
      "v": 110
    },
    {
      "midi": 57,
      "hit": false,
      "t": 78793.65473333334,
      "d": 198.41270833332965,
      "v": 110
    },
    {
      "midi": 71,
      "hit": false,
      "t": 78809.52774999994,
      "d": 214.28572499999427,
      "v": 100
    },
    {
      "midi": 62,
      "hit": false,
      "t": 79047.62299999993,
      "d": 436.50795833332813,
      "v": 100
    },
    {
      "midi": 66,
      "hit": false,
      "t": 79047.62299999993,
      "d": 436.50795833332813,
      "v": 100
    },
    {
      "midi": 71,
      "hit": false,
      "t": 79047.62299999993,
      "d": 436.50795833332813,
      "v": 100
    },
    {
      "midi": 66,
      "hit": false,
      "t": 79047.62299999993,
      "d": 214.28572499999427,
      "v": 100
    },
    {
      "midi": 47,
      "hit": false,
      "t": 79047.62299999998,
      "d": 912.6984583333397,
      "v": 100
    },
    {
      "midi": 54,
      "hit": false,
      "t": 79047.62299999998,
      "d": 912.6984583333397,
      "v": 100
    },
    {
      "midi": 78,
      "hit": false,
      "t": 79047.62299999999,
      "d": 436.50795833332813,
      "v": 118
    },
    {
      "midi": 40,
      "hit": false,
      "t": 79047.62300000017,
      "d": 412.69843333333847,
      "v": 110
    },
    {
      "midi": 47,
      "hit": false,
      "t": 79047.62300000018,
      "d": 396.82541666667385,
      "v": 100
    },
    {
      "midi": 54,
      "hit": false,
      "t": 79047.62300000018,
      "d": 396.82541666667385,
      "v": 100
    },
    {
      "midi": 40,
      "hit": false,
      "t": 79047.62300000031,
      "d": 7.936508333339589,
      "v": 127
    },
    {
      "midi": 42,
      "hit": false,
      "t": 79047.62300000031,
      "d": 7.936508333339589,
      "v": 100
    },
    {
      "midi": 57,
      "hit": false,
      "t": 79269.84523333334,
      "d": 634.9206666666723,
      "v": 110
    },
    {
      "midi": 62,
      "hit": false,
      "t": 79269.84523333334,
      "d": 634.9206666666723,
      "v": 110
    },
    {
      "midi": 66,
      "hit": false,
      "t": 79269.84523333334,
      "d": 634.9206666666723,
      "v": 110
    },
    {
      "midi": 62,
      "hit": false,
      "t": 79285.71824999993,
      "d": 214.28572499999427,
      "v": 100
    },
    {
      "midi": 62,
      "hit": false,
      "t": 79523.81349999993,
      "d": 436.50795833332813,
      "v": 100
    },
    {
      "midi": 66,
      "hit": false,
      "t": 79523.81349999993,
      "d": 436.50795833332813,
      "v": 100
    },
    {
      "midi": 71,
      "hit": false,
      "t": 79523.81349999993,
      "d": 436.50795833332813,
      "v": 100
    },
    {
      "midi": 71,
      "hit": false,
      "t": 79523.81349999993,
      "d": 214.28572499999427,
      "v": 100
    },
    {
      "midi": 83,
      "hit": false,
      "t": 79523.81349999999,
      "d": 436.50795833332813,
      "v": 118
    },
    {
      "midi": 41,
      "hit": false,
      "t": 79523.81350000018,
      "d": 412.69843333333847,
      "v": 110
    },
    {
      "midi": 54,
      "hit": false,
      "t": 79523.8135000002,
      "d": 396.82541666667385,
      "v": 100
    },
    {
      "midi": 47,
      "hit": false,
      "t": 79523.8135000002,
      "d": 396.82541666667385,
      "v": 100
    },
    {
      "midi": 2,
      "hit": false,
      "t": 79523.81350000032,
      "d": 7.936508333339589,
      "v": 115
    },
    {
      "midi": 42,
      "hit": false,
      "t": 79523.81350000032,
      "d": 7.936508333339589,
      "v": 100
    },
    {
      "midi": 66,
      "hit": false,
      "t": 79761.90874999993,
      "d": 214.28572499999427,
      "v": 100
    },
    {
      "midi": 81,
      "hit": false,
      "t": 79968.25796666666,
      "d": 2134.9207416667196,
      "v": 118
    },
    {
      "midi": 61,
      "hit": false,
      "t": 79976.19447500001,
      "d": 634.9206666666723,
      "v": 110
    },
    {
      "midi": 66,
      "hit": false,
      "t": 79976.19447500001,
      "d": 634.9206666666723,
      "v": 110
    },
    {
      "midi": 69,
      "hit": false,
      "t": 79976.19447500001,
      "d": 634.9206666666723,
      "v": 110
    },
    {
      "midi": 97,
      "hit": false,
      "t": 79976.19447500007,
      "d": 3809.524000000005,
      "v": 100
    },
    {
      "midi": 73,
      "hit": false,
      "t": 79976.19447500007,
      "d": 3809.524000000005,
      "v": 100
    },
    {
      "midi": 93,
      "hit": false,
      "t": 79976.19447500013,
      "d": 936.5079833333293,
      "v": 100
    },
    {
      "midi": 81,
      "hit": false,
      "t": 79976.19447500013,
      "d": 936.5079833333293,
      "v": 100
    },
    {
      "midi": 66,
      "hit": false,
      "t": 80000.00399999993,
      "d": 1738.0953250000457,
      "v": 100
    },
    {
      "midi": 61,
      "hit": false,
      "t": 80000.00399999993,
      "d": 1777.7778666667145,
      "v": 100
    },
    {
      "midi": 73,
      "hit": false,
      "t": 80000.00399999993,
      "d": 1777.7778666667145,
      "v": 100
    },
    {
      "midi": 57,
      "hit": false,
      "t": 80000.00399999993,
      "d": 214.28572499999427,
      "v": 100
    },
    {
      "midi": 42,
      "hit": false,
      "t": 80000.00399999999,
      "d": 912.6984583333251,
      "v": 100
    },
    {
      "midi": 49,
      "hit": false,
      "t": 80000.00399999999,
      "d": 912.6984583333251,
      "v": 100
    },
    {
      "midi": 42,
      "hit": false,
      "t": 80000.00400000019,
      "d": 412.69843333333847,
      "v": 115
    },
    {
      "midi": 54,
      "hit": false,
      "t": 80000.0040000002,
      "d": 396.82541666667385,
      "v": 100
    },
    {
      "midi": 61,
      "hit": false,
      "t": 80000.0040000002,
      "d": 396.82541666667385,
      "v": 100
    },
    {
      "midi": 2,
      "hit": false,
      "t": 80000.00400000034,
      "d": 7.936508333339589,
      "v": 120
    },
    {
      "midi": 40,
      "hit": false,
      "t": 80000.00400000034,
      "d": 7.936508333339589,
      "v": 127
    },
    {
      "midi": 42,
      "hit": false,
      "t": 80000.00400000034,
      "d": 7.936508333339589,
      "v": 100
    },
    {
      "midi": 71,
      "hit": false,
      "t": 80238.09924999993,
      "d": 214.28572499999427,
      "v": 100
    },
    {
      "midi": 61,
      "hit": false,
      "t": 80476.19449999993,
      "d": 214.28572499999427,
      "v": 100
    },
    {
      "midi": 42,
      "hit": false,
      "t": 80476.1945000002,
      "d": 412.69843333333847,
      "v": 110
    },
    {
      "midi": 54,
      "hit": false,
      "t": 80476.19450000022,
      "d": 119.04762500000652,
      "v": 100
    },
    {
      "midi": 61,
      "hit": false,
      "t": 80476.19450000022,
      "d": 119.04762500000652,
      "v": 100
    },
    {
      "midi": 42,
      "hit": false,
      "t": 80476.19450000035,
      "d": 7.936508333339589,
      "v": 100
    },
    {
      "midi": 61,
      "hit": false,
      "t": 80698.41673333335,
      "d": 198.41270833332965,
      "v": 110
    },
    {
      "midi": 66,
      "hit": false,
      "t": 80698.41673333335,
      "d": 198.41270833332965,
      "v": 110
    },
    {
      "midi": 69,
      "hit": false,
      "t": 80698.41673333335,
      "d": 198.41270833332965,
      "v": 110
    },
    {
      "midi": 57,
      "hit": false,
      "t": 80714.28974999992,
      "d": 214.28572499999427,
      "v": 100
    },
    {
      "midi": 62,
      "hit": false,
      "t": 80952.38499999992,
      "d": 214.28572499999427,
      "v": 100
    },
    {
      "midi": 42,
      "hit": false,
      "t": 80952.38499999998,
      "d": 119.04762499999197,
      "v": 100
    },
    {
      "midi": 49,
      "hit": false,
      "t": 80952.38499999998,
      "d": 119.04762499999197,
      "v": 100
    },
    {
      "midi": 91,
      "hit": false,
      "t": 80952.38500000013,
      "d": 936.5079833333293,
      "v": 100
    },
    {
      "midi": 79,
      "hit": false,
      "t": 80952.38500000013,
      "d": 936.5079833333293,
      "v": 100
    },
    {
      "midi": 42,
      "hit": false,
      "t": 80952.38500000021,
      "d": 412.69843333333847,
      "v": 110
    },
    {
      "midi": 54,
      "hit": false,
      "t": 80952.38500000023,
      "d": 119.04762500000652,
      "v": 100
    },
    {
      "midi": 61,
      "hit": false,
      "t": 80952.38500000023,
      "d": 119.04762500000652,
      "v": 100
    },
    {
      "midi": 40,
      "hit": false,
      "t": 80952.38500000036,
      "d": 7.936508333339589,
      "v": 127
    },
    {
      "midi": 42,
      "hit": false,
      "t": 80952.38500000036,
      "d": 7.936508333339589,
      "v": 100
    },
    {
      "midi": 61,
      "hit": false,
      "t": 81190.48024999992,
      "d": 214.28572499999427,
      "v": 100
    },
    {
      "midi": 61,
      "hit": false,
      "t": 81412.70248333334,
      "d": 873.0159166666708,
      "v": 110
    },
    {
      "midi": 66,
      "hit": false,
      "t": 81412.70248333334,
      "d": 873.0159166666708,
      "v": 110
    },
    {
      "midi": 69,
      "hit": false,
      "t": 81412.70248333334,
      "d": 873.0159166666708,
      "v": 110
    },
    {
      "midi": 61,
      "hit": false,
      "t": 81428.57549999992,
      "d": 214.28572499999427,
      "v": 100
    },
    {
      "midi": 42,
      "hit": false,
      "t": 81428.57549999998,
      "d": 119.04762500000652,
      "v": 100
    },
    {
      "midi": 49,
      "hit": false,
      "t": 81428.57549999998,
      "d": 119.04762500000652,
      "v": 100
    },
    {
      "midi": 42,
      "hit": false,
      "t": 81428.57550000022,
      "d": 412.69843333333847,
      "v": 110
    },
    {
      "midi": 54,
      "hit": false,
      "t": 81428.57550000024,
      "d": 396.82541666667385,
      "v": 100
    },
    {
      "midi": 61,
      "hit": false,
      "t": 81428.57550000024,
      "d": 396.82541666667385,
      "v": 100
    },
    {
      "midi": 46,
      "hit": false,
      "t": 81428.57550000037,
      "d": 7.936508333339589,
      "v": 100
    },
    {
      "midi": 64,
      "hit": false,
      "t": 81666.67074999992,
      "d": 214.28572499999427,
      "v": 100
    },
    {
      "midi": 66,
      "hit": false,
      "t": 81904.76599999992,
      "d": 214.28572499999427,
      "v": 100
    },
    {
      "midi": 42,
      "hit": false,
      "t": 81904.76599999999,
      "d": 119.04762500000652,
      "v": 100
    },
    {
      "midi": 49,
      "hit": false,
      "t": 81904.76599999999,
      "d": 119.04762500000652,
      "v": 100
    },
    {
      "midi": 90,
      "hit": false,
      "t": 81904.76600000012,
      "d": 936.5079833333293,
      "v": 100
    },
    {
      "midi": 78,
      "hit": false,
      "t": 81904.76600000012,
      "d": 936.5079833333293,
      "v": 100
    },
    {
      "midi": 42,
      "hit": false,
      "t": 81904.76600000024,
      "d": 412.69843333333847,
      "v": 110
    },
    {
      "midi": 54,
      "hit": false,
      "t": 81904.76600000025,
      "d": 119.04762500000652,
      "v": 100
    },
    {
      "midi": 61,
      "hit": false,
      "t": 81904.76600000025,
      "d": 119.04762500000652,
      "v": 100
    },
    {
      "midi": 40,
      "hit": false,
      "t": 81904.76600000038,
      "d": 7.936508333339589,
      "v": 127
    },
    {
      "midi": 46,
      "hit": false,
      "t": 81904.76600000038,
      "d": 7.936508333339589,
      "v": 100
    },
    {
      "midi": 61,
      "hit": false,
      "t": 82142.86124999991,
      "d": 214.28572499999427,
      "v": 100
    },
    {
      "midi": 61,
      "hit": false,
      "t": 82365.08348333335,
      "d": 198.41270833332965,
      "v": 110
    },
    {
      "midi": 66,
      "hit": false,
      "t": 82365.08348333335,
      "d": 198.41270833332965,
      "v": 110
    },
    {
      "midi": 69,
      "hit": false,
      "t": 82365.08348333335,
      "d": 198.41270833332965,
      "v": 110
    },
    {
      "midi": 64,
      "hit": false,
      "t": 82380.95649999991,
      "d": 214.28572499999427,
      "v": 100
    },
    {
      "midi": 42,
      "hit": false,
      "t": 82380.9565,
      "d": 119.04762500000652,
      "v": 100
    },
    {
      "midi": 49,
      "hit": false,
      "t": 82380.9565,
      "d": 119.04762500000652,
      "v": 100
    },
    {
      "midi": 37,
      "hit": false,
      "t": 82380.95650000025,
      "d": 412.69843333333847,
      "v": 110
    },
    {
      "midi": 54,
      "hit": false,
      "t": 82380.95650000026,
      "d": 119.04762500000652,
      "v": 100
    },
    {
      "midi": 61,
      "hit": false,
      "t": 82380.95650000026,
      "d": 119.04762500000652,
      "v": 100
    },
    {
      "midi": 2,
      "hit": false,
      "t": 82380.9565000004,
      "d": 7.936508333339589,
      "v": 115
    },
    {
      "midi": 46,
      "hit": false,
      "t": 82380.9565000004,
      "d": 7.936508333339589,
      "v": 100
    },
    {
      "midi": 61,
      "hit": false,
      "t": 82603.17873333335,
      "d": 198.41270833332965,
      "v": 110
    },
    {
      "midi": 66,
      "hit": false,
      "t": 82603.17873333335,
      "d": 198.41270833332965,
      "v": 110
    },
    {
      "midi": 69,
      "hit": false,
      "t": 82603.17873333335,
      "d": 198.41270833332965,
      "v": 110
    },
    {
      "midi": 66,
      "hit": false,
      "t": 82619.05174999991,
      "d": 214.28572499999427,
      "v": 100
    },
    {
      "midi": 66,
      "hit": false,
      "t": 82857.14699999991,
      "d": 214.28572499999427,
      "v": 100
    },
    {
      "midi": 42,
      "hit": false,
      "t": 82857.14700000001,
      "d": 396.82541666667385,
      "v": 100
    },
    {
      "midi": 49,
      "hit": false,
      "t": 82857.14700000001,
      "d": 396.82541666667385,
      "v": 100
    },
    {
      "midi": 76,
      "hit": false,
      "t": 82857.14700000007,
      "d": 436.50795833332813,
      "v": 118
    },
    {
      "midi": 88,
      "hit": false,
      "t": 82857.14700000011,
      "d": 936.5079833333293,
      "v": 100
    },
    {
      "midi": 76,
      "hit": false,
      "t": 82857.14700000011,
      "d": 936.5079833333293,
      "v": 100
    },
    {
      "midi": 30,
      "hit": false,
      "t": 82857.14700000026,
      "d": 412.69843333333847,
      "v": 110
    },
    {
      "midi": 54,
      "hit": false,
      "t": 82857.14700000027,
      "d": 396.82541666667385,
      "v": 100
    },
    {
      "midi": 61,
      "hit": false,
      "t": 82857.14700000027,
      "d": 396.82541666667385,
      "v": 100
    },
    {
      "midi": 40,
      "hit": false,
      "t": 82857.1470000004,
      "d": 7.936508333339589,
      "v": 127
    },
    {
      "midi": 69,
      "hit": false,
      "t": 83079.36923333335,
      "d": 634.9206666666723,
      "v": 110
    },
    {
      "midi": 66,
      "hit": false,
      "t": 83079.36923333335,
      "d": 634.9206666666723,
      "v": 110
    },
    {
      "midi": 61,
      "hit": false,
      "t": 83079.36923333335,
      "d": 634.9206666666723,
      "v": 110
    },
    {
      "midi": 64,
      "hit": false,
      "t": 83095.24224999991,
      "d": 214.28572499999427,
      "v": 100
    },
    {
      "midi": 73,
      "hit": false,
      "t": 83333.3374999999,
      "d": 214.28572499999427,
      "v": 100
    },
    {
      "midi": 42,
      "hit": false,
      "t": 83333.33750000002,
      "d": 396.82541666667385,
      "v": 100
    },
    {
      "midi": 49,
      "hit": false,
      "t": 83333.33750000002,
      "d": 396.82541666667385,
      "v": 100
    },
    {
      "midi": 78,
      "hit": false,
      "t": 83333.33750000007,
      "d": 436.50795833332813,
      "v": 118
    },
    {
      "midi": 37,
      "hit": false,
      "t": 83333.33750000027,
      "d": 412.69843333333847,
      "v": 110
    },
    {
      "midi": 54,
      "hit": false,
      "t": 83333.33750000029,
      "d": 396.82541666667385,
      "v": 100
    },
    {
      "midi": 61,
      "hit": false,
      "t": 83333.33750000029,
      "d": 396.82541666667385,
      "v": 100
    },
    {
      "midi": 2,
      "hit": false,
      "t": 83333.33750000042,
      "d": 7.936508333339589,
      "v": 115
    },
    {
      "midi": 40,
      "hit": false,
      "t": 83333.33750000042,
      "d": 7.936508333339589,
      "v": 127
    },
    {
      "midi": 66,
      "hit": false,
      "t": 83571.4327499999,
      "d": 214.28572499999427,
      "v": 100
    },
    {
      "midi": 40,
      "hit": false,
      "t": 83571.43275000043,
      "d": 7.936508333339589,
      "v": 127
    },
    {
      "midi": 67,
      "hit": false,
      "t": 83746.03593333345,
      "d": 1888.8889833333233,
      "v": 100
    },
    {
      "midi": 74,
      "hit": false,
      "t": 83746.03593333345,
      "d": 1888.8889833333233,
      "v": 100
    },
    {
      "midi": 79,
      "hit": false,
      "t": 83769.84545833332,
      "d": 1825.3969166666793,
      "v": 127
    },
    {
      "midi": 79,
      "hit": false,
      "t": 83777.78196666673,
      "d": 873.0159166666708,
      "v": 118
    },
    {
      "midi": 59,
      "hit": false,
      "t": 83785.71847500002,
      "d": 873.0159166666708,
      "v": 110
    },
    {
      "midi": 62,
      "hit": false,
      "t": 83785.71847500002,
      "d": 873.0159166666708,
      "v": 110
    },
    {
      "midi": 67,
      "hit": false,
      "t": 83785.71847500002,
      "d": 873.0159166666708,
      "v": 110
    },
    {
      "midi": 95,
      "hit": false,
      "t": 83785.71847500007,
      "d": 1888.8889833333378,
      "v": 100
    },
    {
      "midi": 86,
      "hit": false,
      "t": 83785.71847500007,
      "d": 1888.8889833333378,
      "v": 100
    },
    {
      "midi": 83,
      "hit": false,
      "t": 83785.71847500007,
      "d": 1888.8889833333378,
      "v": 100
    },
    {
      "midi": 59,
      "hit": false,
      "t": 83809.5279999999,
      "d": 436.50795833332813,
      "v": 100
    },
    {
      "midi": 43,
      "hit": false,
      "t": 83809.52800000002,
      "d": 912.6984583333251,
      "v": 100
    },
    {
      "midi": 50,
      "hit": false,
      "t": 83809.52800000002,
      "d": 912.6984583333251,
      "v": 100
    },
    {
      "midi": 31,
      "hit": false,
      "t": 83809.52800000028,
      "d": 412.69843333333847,
      "v": 115
    },
    {
      "midi": 55,
      "hit": false,
      "t": 83809.5280000003,
      "d": 396.82541666667385,
      "v": 100
    },
    {
      "midi": 62,
      "hit": false,
      "t": 83809.5280000003,
      "d": 396.82541666667385,
      "v": 100
    },
    {
      "midi": 2,
      "hit": false,
      "t": 83809.52800000044,
      "d": 7.936508333339589,
      "v": 120
    },
    {
      "midi": 40,
      "hit": false,
      "t": 83809.52800000044,
      "d": 7.936508333339589,
      "v": 127
    },
    {
      "midi": 49,
      "hit": false,
      "t": 83809.52800000044,
      "d": 7.936508333339589,
      "v": 100
    },
    {
      "midi": 81,
      "hit": false,
      "t": 83825.40101666666,
      "d": 1825.3969166666793,
      "v": 127
    },
    {
      "midi": 83,
      "hit": false,
      "t": 83888.89308333333,
      "d": 1825.3969166666793,
      "v": 127
    },
    {
      "midi": 86,
      "hit": false,
      "t": 83928.575625,
      "d": 1825.3969166666793,
      "v": 127
    },
    {
      "midi": 62,
      "hit": false,
      "t": 84285.7184999999,
      "d": 214.28572499999427,
      "v": 100
    },
    {
      "midi": 31,
      "hit": false,
      "t": 84285.7185000003,
      "d": 412.69843333333847,
      "v": 110
    },
    {
      "midi": 55,
      "hit": false,
      "t": 84285.71850000031,
      "d": 396.82541666667385,
      "v": 100
    },
    {
      "midi": 62,
      "hit": false,
      "t": 84285.71850000031,
      "d": 396.82541666667385,
      "v": 100
    },
    {
      "midi": 42,
      "hit": false,
      "t": 84285.71850000045,
      "d": 7.936508333339589,
      "v": 100
    },
    {
      "midi": 59,
      "hit": false,
      "t": 84523.8137499999,
      "d": 214.28572499999427,
      "v": 100
    },
    {
      "midi": 67,
      "hit": false,
      "t": 84761.9089999999,
      "d": 214.28572499999427,
      "v": 100
    },
    {
      "midi": 59,
      "hit": false,
      "t": 84761.90900000001,
      "d": 436.50795833332813,
      "v": 115
    },
    {
      "midi": 43,
      "hit": false,
      "t": 84761.90900000001,
      "d": 119.04762499999197,
      "v": 100
    },
    {
      "midi": 50,
      "hit": false,
      "t": 84761.90900000001,
      "d": 119.04762499999197,
      "v": 100
    },
    {
      "midi": 83,
      "hit": false,
      "t": 84761.90900000007,
      "d": 436.50795833332813,
      "v": 120
    },
    {
      "midi": 31,
      "hit": false,
      "t": 84761.9090000003,
      "d": 412.69843333333847,
      "v": 110
    },
    {
      "midi": 55,
      "hit": false,
      "t": 84761.90900000032,
      "d": 119.04762500000652,
      "v": 100
    },
    {
      "midi": 62,
      "hit": false,
      "t": 84761.90900000032,
      "d": 119.04762500000652,
      "v": 100
    },
    {
      "midi": 40,
      "hit": false,
      "t": 84761.90900000047,
      "d": 7.936508333339589,
      "v": 127
    },
    {
      "midi": 42,
      "hit": false,
      "t": 84761.90900000047,
      "d": 7.936508333339589,
      "v": 100
    },
    {
      "midi": 62,
      "hit": false,
      "t": 85000.0042499999,
      "d": 214.28572499999427,
      "v": 100
    },
    {
      "midi": 62,
      "hit": false,
      "t": 85238.0994999999,
      "d": 214.28572499999427,
      "v": 100
    },
    {
      "midi": 62,
      "hit": false,
      "t": 85238.09950000001,
      "d": 436.50795833332813,
      "v": 115
    },
    {
      "midi": 43,
      "hit": false,
      "t": 85238.09950000001,
      "d": 119.04762500000652,
      "v": 100
    },
    {
      "midi": 50,
      "hit": false,
      "t": 85238.09950000001,
      "d": 119.04762500000652,
      "v": 100
    },
    {
      "midi": 83,
      "hit": false,
      "t": 85238.09950000007,
      "d": 436.50795833332813,
      "v": 120
    },
    {
      "midi": 31,
      "hit": false,
      "t": 85238.09950000032,
      "d": 412.69843333333847,
      "v": 110
    },
    {
      "midi": 55,
      "hit": false,
      "t": 85238.09950000033,
      "d": 396.82541666667385,
      "v": 100
    },
    {
      "midi": 62,
      "hit": false,
      "t": 85238.09950000033,
      "d": 396.82541666667385,
      "v": 100
    },
    {
      "midi": 42,
      "hit": false,
      "t": 85238.09950000048,
      "d": 7.936508333339589,
      "v": 100
    },
    {
      "midi": 67,
      "hit": false,
      "t": 85476.1947499999,
      "d": 214.28572499999427,
      "v": 100
    },
    {
      "midi": 81,
      "hit": false,
      "t": 85674.60745833334,
      "d": 1825.3969166666648,
      "v": 127
    },
    {
      "midi": 61,
      "hit": false,
      "t": 85698.41698333334,
      "d": 873.0159166666708,
      "v": 110
    },
    {
      "midi": 69,
      "hit": false,
      "t": 85698.41698333334,
      "d": 873.0159166666708,
      "v": 110
    },
    {
      "midi": 64,
      "hit": false,
      "t": 85698.41698333334,
      "d": 873.0159166666708,
      "v": 110
    },
    {
      "midi": 64,
      "hit": false,
      "t": 85714.28999999989,
      "d": 214.28572499999427,
      "v": 100
    },
    {
      "midi": 43,
      "hit": false,
      "t": 85714.29000000002,
      "d": 119.04762500000652,
      "v": 100
    },
    {
      "midi": 50,
      "hit": false,
      "t": 85714.29000000002,
      "d": 119.04762500000652,
      "v": 100
    },
    {
      "midi": 83,
      "hit": false,
      "t": 85714.29000000007,
      "d": 873.0159166666708,
      "v": 120
    },
    {
      "midi": 88,
      "hit": false,
      "t": 85714.29000000008,
      "d": 1888.8889833333378,
      "v": 100
    },
    {
      "midi": 31,
      "hit": false,
      "t": 85714.29000000033,
      "d": 412.69843333333847,
      "v": 110
    },
    {
      "midi": 55,
      "hit": false,
      "t": 85714.29000000034,
      "d": 119.04762500000652,
      "v": 100
    },
    {
      "midi": 64,
      "hit": false,
      "t": 85714.29000000034,
      "d": 119.04762500000652,
      "v": 100
    },
    {
      "midi": 40,
      "hit": false,
      "t": 85714.29000000049,
      "d": 7.936508333339589,
      "v": 127
    },
    {
      "midi": 49,
      "hit": false,
      "t": 85714.29000000049,
      "d": 7.936508333339589,
      "v": 100
    },
    {
      "midi": 83,
      "hit": false,
      "t": 85730.16301666667,
      "d": 1825.3969166666648,
      "v": 127
    },
    {
      "midi": 85,
      "hit": false,
      "t": 85793.65508333335,
      "d": 1825.3969166666648,
      "v": 127
    },
    {
      "midi": 88,
      "hit": false,
      "t": 85825.40111666668,
      "d": 1825.3969166666648,
      "v": 127
    },
    {
      "midi": 62,
      "hit": false,
      "t": 85952.38524999989,
      "d": 214.28572499999427,
      "v": 100
    },
    {
      "midi": 61,
      "hit": false,
      "t": 86190.48049999989,
      "d": 214.28572499999427,
      "v": 100
    },
    {
      "midi": 43,
      "hit": false,
      "t": 86190.48050000003,
      "d": 119.04762500000652,
      "v": 100
    },
    {
      "midi": 50,
      "hit": false,
      "t": 86190.48050000003,
      "d": 119.04762500000652,
      "v": 100
    },
    {
      "midi": 31,
      "hit": false,
      "t": 86190.48050000034,
      "d": 412.69843333333847,
      "v": 110
    },
    {
      "midi": 55,
      "hit": false,
      "t": 86190.48050000035,
      "d": 396.82541666667385,
      "v": 100
    },
    {
      "midi": 64,
      "hit": false,
      "t": 86190.48050000035,
      "d": 396.82541666667385,
      "v": 100
    },
    {
      "midi": 2,
      "hit": false,
      "t": 86190.4805000005,
      "d": 7.936508333339589,
      "v": 115
    },
    {
      "midi": 42,
      "hit": false,
      "t": 86190.4805000005,
      "d": 7.936508333339589,
      "v": 100
    },
    {
      "midi": 64,
      "hit": false,
      "t": 86428.57574999989,
      "d": 214.28572499999427,
      "v": 100
    },
    {
      "midi": 57,
      "hit": false,
      "t": 86650.79798333335,
      "d": 436.50795833332813,
      "v": 115
    },
    {
      "midi": 64,
      "hit": false,
      "t": 86666.67099999989,
      "d": 214.28572499999427,
      "v": 100
    },
    {
      "midi": 43,
      "hit": false,
      "t": 86666.67100000005,
      "d": 396.82541666667385,
      "v": 100
    },
    {
      "midi": 50,
      "hit": false,
      "t": 86666.67100000005,
      "d": 396.82541666667385,
      "v": 100
    },
    {
      "midi": 85,
      "hit": false,
      "t": 86666.67100000007,
      "d": 436.50795833332813,
      "v": 123
    },
    {
      "midi": 33,
      "hit": false,
      "t": 86666.67100000035,
      "d": 412.69843333333847,
      "v": 110
    },
    {
      "midi": 55,
      "hit": false,
      "t": 86666.67100000037,
      "d": 396.82541666667385,
      "v": 100
    },
    {
      "midi": 64,
      "hit": false,
      "t": 86666.67100000037,
      "d": 396.82541666667385,
      "v": 100
    },
    {
      "midi": 40,
      "hit": false,
      "t": 86666.67100000051,
      "d": 7.936508333339589,
      "v": 127
    },
    {
      "midi": 42,
      "hit": false,
      "t": 86666.67100000051,
      "d": 7.936508333339589,
      "v": 100
    },
    {
      "midi": 61,
      "hit": false,
      "t": 86904.76624999988,
      "d": 214.28572499999427,
      "v": 100
    },
    {
      "midi": 69,
      "hit": false,
      "t": 87142.86149999988,
      "d": 214.28572499999427,
      "v": 100
    },
    {
      "midi": 61,
      "hit": false,
      "t": 87142.86150000001,
      "d": 436.50795833332813,
      "v": 115
    },
    {
      "midi": 43,
      "hit": false,
      "t": 87142.86150000006,
      "d": 396.82541666667385,
      "v": 100
    },
    {
      "midi": 50,
      "hit": false,
      "t": 87142.86150000006,
      "d": 396.82541666667385,
      "v": 100
    },
    {
      "midi": 83,
      "hit": false,
      "t": 87142.86150000007,
      "d": 436.50795833332813,
      "v": 123
    },
    {
      "midi": 31,
      "hit": false,
      "t": 87142.86150000036,
      "d": 412.69843333333847,
      "v": 110
    },
    {
      "midi": 64,
      "hit": false,
      "t": 87142.86150000038,
      "d": 396.82541666667385,
      "v": 100
    },
    {
      "midi": 55,
      "hit": false,
      "t": 87142.86150000038,
      "d": 396.82541666667385,
      "v": 100
    },
    {
      "midi": 2,
      "hit": false,
      "t": 87142.86150000052,
      "d": 7.936508333339589,
      "v": 115
    },
    {
      "midi": 42,
      "hit": false,
      "t": 87142.86150000052,
      "d": 7.936508333339589,
      "v": 100
    },
    {
      "midi": 64,
      "hit": false,
      "t": 87380.95674999988,
      "d": 214.28572499999427,
      "v": 100
    },
    {
      "midi": 69,
      "hit": false,
      "t": 87555.55993333344,
      "d": 47.61904999999388,
      "v": 100
    },
    {
      "midi": 76,
      "hit": false,
      "t": 87555.55993333344,
      "d": 47.61904999999388,
      "v": 100
    },
    {
      "midi": 88,
      "hit": false,
      "t": 87555.55993333344,
      "d": 1888.8889833333233,
      "v": 100
    },
    {
      "midi": 78,
      "hit": false,
      "t": 87579.36945833334,
      "d": 1825.3969166666648,
      "v": 127
    },
    {
      "midi": 81,
      "hit": false,
      "t": 87587.30596666674,
      "d": 873.0159166666708,
      "v": 118
    },
    {
      "midi": 57,
      "hit": false,
      "t": 87595.242475,
      "d": 436.50795833332813,
      "v": 110
    },
    {
      "midi": 66,
      "hit": false,
      "t": 87595.242475,
      "d": 436.50795833332813,
      "v": 110
    },
    {
      "midi": 64,
      "hit": false,
      "t": 87595.242475,
      "d": 436.50795833332813,
      "v": 110
    },
    {
      "midi": 61,
      "hit": false,
      "t": 87595.242475,
      "d": 436.50795833332813,
      "v": 110
    },
    {
      "midi": 85,
      "hit": false,
      "t": 87595.24247500008,
      "d": 7.936508333339589,
      "v": 100
    },
    {
      "midi": 97,
      "hit": false,
      "t": 87595.24247500008,
      "d": 7.936508333339589,
      "v": 100
    },
    {
      "midi": 57,
      "hit": false,
      "t": 87619.05199999988,
      "d": 214.28572499999427,
      "v": 100
    },
    {
      "midi": 42,
      "hit": false,
      "t": 87619.05200000005,
      "d": 912.6984583333251,
      "v": 100
    },
    {
      "midi": 49,
      "hit": false,
      "t": 87619.05200000005,
      "d": 912.6984583333251,
      "v": 100
    },
    {
      "midi": 30,
      "hit": false,
      "t": 87619.05200000037,
      "d": 412.69843333333847,
      "v": 115
    },
    {
      "midi": 54,
      "hit": false,
      "t": 87619.05200000039,
      "d": 396.82541666667385,
      "v": 100
    },
    {
      "midi": 61,
      "hit": false,
      "t": 87619.05200000039,
      "d": 396.82541666667385,
      "v": 100
    },
    {
      "midi": 2,
      "hit": false,
      "t": 87619.05200000053,
      "d": 7.936508333339589,
      "v": 120
    },
    {
      "midi": 40,
      "hit": false,
      "t": 87619.05200000053,
      "d": 7.936508333339589,
      "v": 127
    },
    {
      "midi": 49,
      "hit": false,
      "t": 87619.05200000053,
      "d": 7.936508333339589,
      "v": 100
    },
    {
      "midi": 81,
      "hit": false,
      "t": 87634.92501666668,
      "d": 1825.3969166666648,
      "v": 127
    },
    {
      "midi": 85,
      "hit": false,
      "t": 87682.54406666667,
      "d": 1825.3969166666793,
      "v": 127
    },
    {
      "midi": 88,
      "hit": false,
      "t": 87738.099625,
      "d": 1825.3969166666793,
      "v": 127
    },
    {
      "midi": 69,
      "hit": false,
      "t": 87857.14724999988,
      "d": 214.28572499999427,
      "v": 100
    },
    {
      "midi": 61,
      "hit": false,
      "t": 88095.24249999988,
      "d": 214.28572499999427,
      "v": 100
    },
    {
      "midi": 54,
      "hit": false,
      "t": 88095.24250000001,
      "d": 436.50795833332813,
      "v": 115
    },
    {
      "midi": 30,
      "hit": false,
      "t": 88095.24250000039,
      "d": 412.69843333333847,
      "v": 110
    },
    {
      "midi": 61,
      "hit": false,
      "t": 88095.2425000004,
      "d": 119.04762500000652,
      "v": 100
    },
    {
      "midi": 54,
      "hit": false,
      "t": 88095.2425000004,
      "d": 119.04762500000652,
      "v": 100
    },
    {
      "midi": 42,
      "hit": false,
      "t": 88095.24250000055,
      "d": 7.936508333339589,
      "v": 100
    },
    {
      "midi": 57,
      "hit": false,
      "t": 88333.33774999988,
      "d": 214.28572499999427,
      "v": 100
    },
    {
      "midi": 64,
      "hit": false,
      "t": 88571.43299999987,
      "d": 214.28572499999427,
      "v": 100
    },
    {
      "midi": 57,
      "hit": false,
      "t": 88571.433,
      "d": 436.50795833332813,
      "v": 115
    },
    {
      "midi": 42,
      "hit": false,
      "t": 88571.43300000005,
      "d": 119.04762500000652,
      "v": 100
    },
    {
      "midi": 49,
      "hit": false,
      "t": 88571.43300000005,
      "d": 119.04762500000652,
      "v": 100
    },
    {
      "midi": 78,
      "hit": false,
      "t": 88571.43300000008,
      "d": 436.50795833332813,
      "v": 118
    },
    {
      "midi": 100,
      "hit": false,
      "t": 88571.43300000009,
      "d": 936.5079833333293,
      "v": 100
    },
    {
      "midi": 88,
      "hit": false,
      "t": 88571.43300000009,
      "d": 936.5079833333293,
      "v": 100
    },
    {
      "midi": 37,
      "hit": false,
      "t": 88571.4330000004,
      "d": 412.69843333333847,
      "v": 110
    },
    {
      "midi": 54,
      "hit": false,
      "t": 88571.43300000041,
      "d": 396.82541666667385,
      "v": 100
    },
    {
      "midi": 61,
      "hit": false,
      "t": 88571.43300000041,
      "d": 396.82541666667385,
      "v": 100
    },
    {
      "midi": 40,
      "hit": false,
      "t": 88571.43300000056,
      "d": 7.936508333339589,
      "v": 127
    },
    {
      "midi": 42,
      "hit": false,
      "t": 88571.43300000056,
      "d": 7.936508333339589,
      "v": 100
    },
    {
      "midi": 61,
      "hit": false,
      "t": 88809.52824999987,
      "d": 214.28572499999427,
      "v": 100
    },
    {
      "midi": 61,
      "hit": false,
      "t": 89047.62349999987,
      "d": 214.28572499999427,
      "v": 100
    },
    {
      "midi": 61,
      "hit": false,
      "t": 89047.6235,
      "d": 436.50795833332813,
      "v": 115
    },
    {
      "midi": 49,
      "hit": false,
      "t": 89047.62350000006,
      "d": 119.04762500000652,
      "v": 100
    },
    {
      "midi": 42,
      "hit": false,
      "t": 89047.62350000006,
      "d": 119.04762500000652,
      "v": 100
    },
    {
      "midi": 76,
      "hit": false,
      "t": 89047.62350000007,
      "d": 436.50795833332813,
      "v": 118
    },
    {
      "midi": 36,
      "hit": false,
      "t": 89047.62350000041,
      "d": 412.69843333333847,
      "v": 110
    },
    {
      "midi": 61,
      "hit": false,
      "t": 89047.62350000042,
      "d": 396.82541666667385,
      "v": 100
    },
    {
      "midi": 54,
      "hit": false,
      "t": 89047.62350000042,
      "d": 396.82541666667385,
      "v": 100
    },
    {
      "midi": 42,
      "hit": false,
      "t": 89047.62350000057,
      "d": 7.936508333339589,
      "v": 100
    },
    {
      "midi": 64,
      "hit": false,
      "t": 89285.71874999987,
      "d": 214.28572499999427,
      "v": 100
    },
    {
      "midi": 81,
      "hit": false,
      "t": 89484.13145833334,
      "d": 1825.3969166666793,
      "v": 127
    },
    {
      "midi": 57,
      "hit": false,
      "t": 89507.94098333333,
      "d": 873.0159166666708,
      "v": 110
    },
    {
      "midi": 62,
      "hit": false,
      "t": 89507.94098333333,
      "d": 873.0159166666708,
      "v": 110
    },
    {
      "midi": 66,
      "hit": false,
      "t": 89507.94098333333,
      "d": 873.0159166666708,
      "v": 110
    },
    {
      "midi": 66,
      "hit": false,
      "t": 89523.81399999987,
      "d": 214.28572499999427,
      "v": 100
    },
    {
      "midi": 47,
      "hit": false,
      "t": 89523.81400000006,
      "d": 912.6984583333251,
      "v": 100
    },
    {
      "midi": 54,
      "hit": false,
      "t": 89523.81400000006,
      "d": 912.6984583333251,
      "v": 100
    },
    {
      "midi": 74,
      "hit": false,
      "t": 89523.81400000007,
      "d": 753.9682916666643,
      "v": 118
    },
    {
      "midi": 98,
      "hit": false,
      "t": 89523.81400000009,
      "d": 1888.8889833333378,
      "v": 100
    },
    {
      "midi": 86,
      "hit": false,
      "t": 89523.81400000009,
      "d": 1888.8889833333378,
      "v": 100
    },
    {
      "midi": 90,
      "hit": false,
      "t": 89523.8140000001,
      "d": 1888.8889833333233,
      "v": 100
    },
    {
      "midi": 78,
      "hit": false,
      "t": 89523.8140000001,
      "d": 1888.8889833333233,
      "v": 100
    },
    {
      "midi": 35,
      "hit": false,
      "t": 89523.81400000042,
      "d": 412.69843333333847,
      "v": 110
    },
    {
      "midi": 47,
      "hit": false,
      "t": 89523.81400000044,
      "d": 396.82541666667385,
      "v": 100
    },
    {
      "midi": 54,
      "hit": false,
      "t": 89523.81400000044,
      "d": 396.82541666667385,
      "v": 100
    },
    {
      "midi": 40,
      "hit": false,
      "t": 89523.81400000058,
      "d": 7.936508333339589,
      "v": 127
    },
    {
      "midi": 49,
      "hit": false,
      "t": 89523.81400000058,
      "d": 7.936508333339589,
      "v": 100
    },
    {
      "midi": 83,
      "hit": false,
      "t": 89539.68701666668,
      "d": 1825.3969166666793,
      "v": 127
    },
    {
      "midi": 86,
      "hit": false,
      "t": 89587.30606666669,
      "d": 1825.3969166666793,
      "v": 127
    },
    {
      "midi": 90,
      "hit": false,
      "t": 89642.86162500002,
      "d": 1825.3969166666793,
      "v": 127
    },
    {
      "midi": 59,
      "hit": false,
      "t": 89761.90924999987,
      "d": 214.28572499999427,
      "v": 100
    },
    {
      "midi": 62,
      "hit": false,
      "t": 90000.00449999986,
      "d": 214.28572499999427,
      "v": 100
    },
    {
      "midi": 35,
      "hit": false,
      "t": 90000.00450000043,
      "d": 412.69843333333847,
      "v": 110
    },
    {
      "midi": 47,
      "hit": false,
      "t": 90000.00450000045,
      "d": 119.04762500000652,
      "v": 100
    },
    {
      "midi": 54,
      "hit": false,
      "t": 90000.00450000045,
      "d": 119.04762500000652,
      "v": 100
    },
    {
      "midi": 2,
      "hit": false,
      "t": 90000.00450000059,
      "d": 7.936508333339589,
      "v": 115
    },
    {
      "midi": 42,
      "hit": false,
      "t": 90000.00450000059,
      "d": 7.936508333339589,
      "v": 100
    },
    {
      "midi": 66,
      "hit": false,
      "t": 90238.09974999986,
      "d": 214.28572499999427,
      "v": 100
    },
    {
      "midi": 57,
      "hit": false,
      "t": 90460.32198333334,
      "d": 873.0159166666708,
      "v": 110
    },
    {
      "midi": 61,
      "hit": false,
      "t": 90460.32198333334,
      "d": 873.0159166666708,
      "v": 110
    },
    {
      "midi": 64,
      "hit": false,
      "t": 90460.32198333334,
      "d": 873.0159166666708,
      "v": 110
    },
    {
      "midi": 66,
      "hit": false,
      "t": 90476.19499999986,
      "d": 214.28572499999427,
      "v": 100
    },
    {
      "midi": 47,
      "hit": false,
      "t": 90476.19500000005,
      "d": 119.04762499999197,
      "v": 100
    },
    {
      "midi": 54,
      "hit": false,
      "t": 90476.19500000005,
      "d": 119.04762499999197,
      "v": 100
    },
    {
      "midi": 74,
      "hit": false,
      "t": 90476.19500000007,
      "d": 436.50795833332813,
      "v": 118
    },
    {
      "midi": 38,
      "hit": false,
      "t": 90476.19500000044,
      "d": 412.69843333333847,
      "v": 110
    },
    {
      "midi": 47,
      "hit": false,
      "t": 90476.19500000046,
      "d": 396.82541666667385,
      "v": 100
    },
    {
      "midi": 54,
      "hit": false,
      "t": 90476.19500000046,
      "d": 396.82541666667385,
      "v": 100
    },
    {
      "midi": 40,
      "hit": false,
      "t": 90476.1950000006,
      "d": 7.936508333339589,
      "v": 127
    },
    {
      "midi": 42,
      "hit": false,
      "t": 90476.1950000006,
      "d": 7.936508333339589,
      "v": 100
    },
    {
      "midi": 62,
      "hit": false,
      "t": 90714.29024999986,
      "d": 214.28572499999427,
      "v": 100
    },
    {
      "midi": 74,
      "hit": false,
      "t": 90952.38549999986,
      "d": 214.28572499999427,
      "v": 100
    },
    {
      "midi": 47,
      "hit": false,
      "t": 90952.38550000005,
      "d": 119.04762500000652,
      "v": 100
    },
    {
      "midi": 54,
      "hit": false,
      "t": 90952.38550000005,
      "d": 119.04762500000652,
      "v": 100
    },
    {
      "midi": 73,
      "hit": false,
      "t": 90952.38550000006,
      "d": 436.50795833332813,
      "v": 118
    },
    {
      "midi": 39,
      "hit": false,
      "t": 90952.38550000046,
      "d": 412.69843333333847,
      "v": 110
    },
    {
      "midi": 47,
      "hit": false,
      "t": 90952.38550000047,
      "d": 396.82541666667385,
      "v": 100
    },
    {
      "midi": 54,
      "hit": false,
      "t": 90952.38550000047,
      "d": 396.82541666667385,
      "v": 100
    },
    {
      "midi": 2,
      "hit": false,
      "t": 90952.38550000062,
      "d": 7.936508333339589,
      "v": 115
    },
    {
      "midi": 42,
      "hit": false,
      "t": 90952.38550000062,
      "d": 7.936508333339589,
      "v": 100
    },
    {
      "midi": 66,
      "hit": false,
      "t": 91190.48074999986,
      "d": 214.28572499999427,
      "v": 100
    },
    {
      "midi": 71,
      "hit": false,
      "t": 91365.08393333343,
      "d": 47.61904999999388,
      "v": 115
    },
    {
      "midi": 83,
      "hit": false,
      "t": 91365.08393333343,
      "d": 3793.6509833333257,
      "v": 115
    },
    {
      "midi": 79,
      "hit": false,
      "t": 91365.08393333343,
      "d": 3793.6509833333257,
      "v": 115
    },
    {
      "midi": 76,
      "hit": false,
      "t": 91388.89345833336,
      "d": 3730.1589166666818,
      "v": 127
    },
    {
      "midi": 59,
      "hit": false,
      "t": 91404.76647500001,
      "d": 634.9206666666723,
      "v": 110
    },
    {
      "midi": 62,
      "hit": false,
      "t": 91404.76647500001,
      "d": 634.9206666666723,
      "v": 110
    },
    {
      "midi": 67,
      "hit": false,
      "t": 91404.76647500001,
      "d": 634.9206666666723,
      "v": 110
    },
    {
      "midi": 59,
      "hit": false,
      "t": 91428.57599999986,
      "d": 436.50795833332813,
      "v": 100
    },
    {
      "midi": 71,
      "hit": false,
      "t": 91428.57600000006,
      "d": 873.0159166666708,
      "v": 118
    },
    {
      "midi": 40,
      "hit": false,
      "t": 91428.57600000006,
      "d": 912.6984583333251,
      "v": 100
    },
    {
      "midi": 47,
      "hit": false,
      "t": 91428.57600000006,
      "d": 912.6984583333251,
      "v": 100
    },
    {
      "midi": 91,
      "hit": false,
      "t": 91428.57600000009,
      "d": 3809.524000000005,
      "v": 100
    },
    {
      "midi": 95,
      "hit": false,
      "t": 91428.57600000009,
      "d": 3809.524000000005,
      "v": 100
    },
    {
      "midi": 40,
      "hit": false,
      "t": 91428.57600000047,
      "d": 412.69843333333847,
      "v": 115
    },
    {
      "midi": 52,
      "hit": false,
      "t": 91428.57600000048,
      "d": 396.82541666667385,
      "v": 100
    },
    {
      "midi": 59,
      "hit": false,
      "t": 91428.57600000048,
      "d": 396.82541666667385,
      "v": 100
    },
    {
      "midi": 2,
      "hit": false,
      "t": 91428.57600000063,
      "d": 7.936508333339589,
      "v": 120
    },
    {
      "midi": 40,
      "hit": false,
      "t": 91428.57600000063,
      "d": 7.936508333339589,
      "v": 127
    },
    {
      "midi": 49,
      "hit": false,
      "t": 91428.57600000063,
      "d": 7.936508333339589,
      "v": 100
    },
    {
      "midi": 79,
      "hit": false,
      "t": 91444.4490166667,
      "d": 3730.1589166666818,
      "v": 127
    },
    {
      "midi": 83,
      "hit": false,
      "t": 91492.0680666667,
      "d": 3730.1589166666818,
      "v": 127
    },
    {
      "midi": 86,
      "hit": false,
      "t": 91547.62362500004,
      "d": 3730.1589166666818,
      "v": 127
    },
    {
      "midi": 62,
      "hit": false,
      "t": 91904.76649999985,
      "d": 214.28572499999427,
      "v": 100
    },
    {
      "midi": 35,
      "hit": false,
      "t": 91904.76650000048,
      "d": 412.69843333333847,
      "v": 110
    },
    {
      "midi": 52,
      "hit": false,
      "t": 91904.76650000049,
      "d": 119.04762500000652,
      "v": 100
    },
    {
      "midi": 59,
      "hit": false,
      "t": 91904.76650000049,
      "d": 119.04762500000652,
      "v": 100
    },
    {
      "midi": 42,
      "hit": false,
      "t": 91904.76650000064,
      "d": 7.936508333339589,
      "v": 100
    },
    {
      "midi": 59,
      "hit": false,
      "t": 92126.98873333335,
      "d": 198.41270833332965,
      "v": 110
    },
    {
      "midi": 62,
      "hit": false,
      "t": 92126.98873333335,
      "d": 198.41270833332965,
      "v": 110
    },
    {
      "midi": 67,
      "hit": false,
      "t": 92126.98873333335,
      "d": 198.41270833332965,
      "v": 110
    },
    {
      "midi": 59,
      "hit": false,
      "t": 92142.86174999985,
      "d": 214.28572499999427,
      "v": 100
    },
    {
      "midi": 67,
      "hit": false,
      "t": 92380.95699999985,
      "d": 214.28572499999427,
      "v": 100
    },
    {
      "midi": 40,
      "hit": false,
      "t": 92380.95700000005,
      "d": 119.04762499999197,
      "v": 100
    },
    {
      "midi": 47,
      "hit": false,
      "t": 92380.95700000005,
      "d": 119.04762499999197,
      "v": 100
    },
    {
      "midi": 28,
      "hit": false,
      "t": 92380.95700000049,
      "d": 412.69843333333847,
      "v": 110
    },
    {
      "midi": 59,
      "hit": false,
      "t": 92380.9570000005,
      "d": 119.04762500000652,
      "v": 100
    },
    {
      "midi": 52,
      "hit": false,
      "t": 92380.9570000005,
      "d": 119.04762500000652,
      "v": 100
    },
    {
      "midi": 40,
      "hit": false,
      "t": 92380.95700000065,
      "d": 7.936508333339589,
      "v": 127
    },
    {
      "midi": 42,
      "hit": false,
      "t": 92380.95700000065,
      "d": 7.936508333339589,
      "v": 100
    },
    {
      "midi": 62,
      "hit": false,
      "t": 92619.05224999985,
      "d": 214.28572499999427,
      "v": 100
    },
    {
      "midi": 59,
      "hit": false,
      "t": 92841.27448333334,
      "d": 873.0159166666708,
      "v": 110
    },
    {
      "midi": 62,
      "hit": false,
      "t": 92841.27448333334,
      "d": 873.0159166666708,
      "v": 110
    },
    {
      "midi": 67,
      "hit": false,
      "t": 92841.27448333334,
      "d": 873.0159166666708,
      "v": 110
    },
    {
      "midi": 62,
      "hit": false,
      "t": 92857.14749999985,
      "d": 214.28572499999427,
      "v": 100
    },
    {
      "midi": 40,
      "hit": false,
      "t": 92857.14750000005,
      "d": 119.04762500000652,
      "v": 100
    },
    {
      "midi": 47,
      "hit": false,
      "t": 92857.14750000005,
      "d": 119.04762500000652,
      "v": 100
    },
    {
      "midi": 71,
      "hit": false,
      "t": 92857.14750000006,
      "d": 436.50795833332813,
      "v": 118
    },
    {
      "midi": 28,
      "hit": false,
      "t": 92857.1475000005,
      "d": 412.69843333333847,
      "v": 110
    },
    {
      "midi": 52,
      "hit": false,
      "t": 92857.14750000052,
      "d": 396.82541666667385,
      "v": 100
    },
    {
      "midi": 59,
      "hit": false,
      "t": 92857.14750000052,
      "d": 396.82541666667385,
      "v": 100
    },
    {
      "midi": 2,
      "hit": false,
      "t": 92857.14750000066,
      "d": 7.936508333339589,
      "v": 115
    },
    {
      "midi": 42,
      "hit": false,
      "t": 92857.14750000066,
      "d": 7.936508333339589,
      "v": 100
    },
    {
      "midi": 67,
      "hit": false,
      "t": 93095.24274999984,
      "d": 214.28572499999427,
      "v": 100
    },
    {
      "midi": 67,
      "hit": false,
      "t": 93333.33799999984,
      "d": 214.28572499999427,
      "v": 100
    },
    {
      "midi": 74,
      "hit": false,
      "t": 93333.33800000006,
      "d": 873.0159166666708,
      "v": 118
    },
    {
      "midi": 40,
      "hit": false,
      "t": 93333.33800000006,
      "d": 119.04762500000652,
      "v": 100
    },
    {
      "midi": 47,
      "hit": false,
      "t": 93333.33800000006,
      "d": 119.04762500000652,
      "v": 100
    },
    {
      "midi": 28,
      "hit": false,
      "t": 93333.33800000051,
      "d": 412.69843333333847,
      "v": 110
    },
    {
      "midi": 52,
      "hit": false,
      "t": 93333.33800000053,
      "d": 119.04762500000652,
      "v": 100
    },
    {
      "midi": 59,
      "hit": false,
      "t": 93333.33800000053,
      "d": 119.04762500000652,
      "v": 100
    },
    {
      "midi": 2,
      "hit": false,
      "t": 93333.33800000067,
      "d": 7.936508333339589,
      "v": 115
    },
    {
      "midi": 47,
      "hit": false,
      "t": 93333.33800000067,
      "d": 7.936508333339589,
      "v": 127
    },
    {
      "midi": 62,
      "hit": false,
      "t": 93571.43324999984,
      "d": 214.28572499999427,
      "v": 100
    },
    {
      "midi": 47,
      "hit": false,
      "t": 93571.43325000069,
      "d": 7.936508333339589,
      "v": 127
    },
    {
      "midi": 55,
      "hit": false,
      "t": 93801.59199166668,
      "d": 436.50795833332813,
      "v": 115
    },
    {
      "midi": 64,
      "hit": false,
      "t": 93809.52849999984,
      "d": 214.28572499999427,
      "v": 100
    },
    {
      "midi": 40,
      "hit": false,
      "t": 93809.52850000007,
      "d": 119.04762500000652,
      "v": 100
    },
    {
      "midi": 47,
      "hit": false,
      "t": 93809.52850000007,
      "d": 119.04762500000652,
      "v": 100
    },
    {
      "midi": 28,
      "hit": false,
      "t": 93809.52850000052,
      "d": 412.69843333333847,
      "v": 110
    },
    {
      "midi": 59,
      "hit": false,
      "t": 93809.52850000054,
      "d": 119.04762500000652,
      "v": 100
    },
    {
      "midi": 52,
      "hit": false,
      "t": 93809.52850000054,
      "d": 119.04762500000652,
      "v": 100
    },
    {
      "midi": 47,
      "hit": false,
      "t": 93809.5285000007,
      "d": 7.936508333339589,
      "v": 127
    },
    {
      "midi": 67,
      "hit": false,
      "t": 94047.62374999984,
      "d": 214.28572499999427,
      "v": 100
    },
    {
      "midi": 67,
      "hit": false,
      "t": 94285.71899999984,
      "d": 214.28572499999427,
      "v": 100
    },
    {
      "midi": 79,
      "hit": false,
      "t": 94285.71900000007,
      "d": 873.0159166666708,
      "v": 118
    },
    {
      "midi": 40,
      "hit": false,
      "t": 94285.71900000008,
      "d": 119.04762500000652,
      "v": 100
    },
    {
      "midi": 47,
      "hit": false,
      "t": 94285.71900000008,
      "d": 119.04762500000652,
      "v": 100
    },
    {
      "midi": 31,
      "hit": false,
      "t": 94285.71900000054,
      "d": 412.69843333333847,
      "v": 110
    },
    {
      "midi": 52,
      "hit": false,
      "t": 94285.71900000055,
      "d": 396.82541666667385,
      "v": 100
    },
    {
      "midi": 59,
      "hit": false,
      "t": 94285.71900000055,
      "d": 396.82541666667385,
      "v": 100
    },
    {
      "midi": 2,
      "hit": false,
      "t": 94285.71900000071,
      "d": 7.936508333339589,
      "v": 115
    },
    {
      "midi": 45,
      "hit": false,
      "t": 94285.71900000071,
      "d": 7.936508333339589,
      "v": 127
    },
    {
      "midi": 55,
      "hit": false,
      "t": 94507.94123333333,
      "d": 634.9206666666723,
      "v": 110
    },
    {
      "midi": 59,
      "hit": false,
      "t": 94507.94123333333,
      "d": 634.9206666666723,
      "v": 110
    },
    {
      "midi": 62,
      "hit": false,
      "t": 94507.94123333333,
      "d": 634.9206666666723,
      "v": 110
    },
    {
      "midi": 64,
      "hit": false,
      "t": 94523.81424999984,
      "d": 214.28572499999427,
      "v": 100
    },
    {
      "midi": 71,
      "hit": false,
      "t": 94761.90949999983,
      "d": 214.28572499999427,
      "v": 100
    },
    {
      "midi": 40,
      "hit": false,
      "t": 94761.9095000001,
      "d": 119.04762500000652,
      "v": 100
    },
    {
      "midi": 47,
      "hit": false,
      "t": 94761.9095000001,
      "d": 119.04762500000652,
      "v": 100
    },
    {
      "midi": 32,
      "hit": false,
      "t": 94761.90950000055,
      "d": 412.69843333333847,
      "v": 110
    },
    {
      "midi": 52,
      "hit": false,
      "t": 94761.90950000056,
      "d": 119.04762500000652,
      "v": 100
    },
    {
      "midi": 59,
      "hit": false,
      "t": 94761.90950000056,
      "d": 119.04762500000652,
      "v": 100
    },
    {
      "midi": 43,
      "hit": false,
      "t": 94761.90950000072,
      "d": 7.936508333339589,
      "v": 127
    },
    {
      "midi": 69,
      "hit": false,
      "t": 95000.00474999983,
      "d": 214.28572499999427,
      "v": 100
    },
    {
      "midi": 52,
      "hit": false,
      "t": 95000.00475000057,
      "d": 119.04762500000652,
      "v": 100
    },
    {
      "midi": 59,
      "hit": false,
      "t": 95000.00475000057,
      "d": 119.04762500000652,
      "v": 100
    },
    {
      "midi": 85,
      "hit": false,
      "t": 95174.60793333342,
      "d": 3793.6509833333403,
      "v": 115
    },
    {
      "midi": 81,
      "hit": false,
      "t": 95174.60793333342,
      "d": 3793.6509833333403,
      "v": 115
    },
    {
      "midi": 73,
      "hit": false,
      "t": 95174.60793333342,
      "d": 3793.6509833333403,
      "v": 115
    },
    {
      "midi": 76,
      "hit": false,
      "t": 95198.41745833338,
      "d": 3611.1112916666752,
      "v": 127
    },
    {
      "midi": 57,
      "hit": false,
      "t": 95206.35396666668,
      "d": 3730.158916666667,
      "v": 110
    },
    {
      "midi": 64,
      "hit": false,
      "t": 95206.35396666668,
      "d": 3730.158916666667,
      "v": 110
    },
    {
      "midi": 61,
      "hit": false,
      "t": 95206.35396666668,
      "d": 3730.158916666667,
      "v": 110
    },
    {
      "midi": 59,
      "hit": false,
      "t": 95206.35396666668,
      "d": 3730.158916666667,
      "v": 110
    },
    {
      "midi": 78,
      "hit": false,
      "t": 95238.10000000008,
      "d": 1349.2064166666678,
      "v": 118
    },
    {
      "midi": 93,
      "hit": false,
      "t": 95238.1000000001,
      "d": 3809.524000000005,
      "v": 100
    },
    {
      "midi": 97,
      "hit": false,
      "t": 95238.1000000001,
      "d": 3809.524000000005,
      "v": 100
    },
    {
      "midi": 45,
      "hit": false,
      "t": 95238.10000000011,
      "d": 3769.8414583333797,
      "v": 85
    },
    {
      "midi": 57,
      "hit": false,
      "t": 95238.10000000011,
      "d": 3769.8414583333797,
      "v": 85
    },
    {
      "midi": 64,
      "hit": false,
      "t": 95238.10000000011,
      "d": 3769.8414583333797,
      "v": 85
    },
    {
      "midi": 59,
      "hit": false,
      "t": 95238.10000000011,
      "d": 3769.8414583333797,
      "v": 85
    },
    {
      "midi": 52,
      "hit": false,
      "t": 95238.10000000011,
      "d": 3769.8414583333797,
      "v": 85
    },
    {
      "midi": 33,
      "hit": false,
      "t": 95238.10000000056,
      "d": 3730.158916666667,
      "v": 110
    },
    {
      "midi": 45,
      "hit": false,
      "t": 95238.10000000059,
      "d": 3730.1589166666963,
      "v": 100
    },
    {
      "midi": 52,
      "hit": false,
      "t": 95238.10000000059,
      "d": 3730.1589166666963,
      "v": 100
    },
    {
      "midi": 2,
      "hit": false,
      "t": 95238.10000000073,
      "d": 7.936508333339589,
      "v": 120
    },
    {
      "midi": 49,
      "hit": false,
      "t": 95238.10000000073,
      "d": 7.936508333339589,
      "v": 100
    },
    {
      "midi": 81,
      "hit": false,
      "t": 95253.97301666671,
      "d": 3611.1112916666752,
      "v": 127
    },
    {
      "midi": 83,
      "hit": false,
      "t": 95301.59206666672,
      "d": 3611.1112916666607,
      "v": 127
    },
    {
      "midi": 85,
      "hit": false,
      "t": 95357.14762500006,
      "d": 3611.1112916666607,
      "v": 127
    },
    {
      "midi": 88,
      "hit": false,
      "t": 95388.89365833339,
      "d": 3611.1112916666607,
      "v": 127
    },
    {
      "midi": 79,
      "hit": false,
      "t": 96666.67150000008,
      "d": 238.0952499999985,
      "v": 118
    },
    {
      "midi": 78,
      "hit": false,
      "t": 96904.76675000008,
      "d": 238.0952499999985,
      "v": 118
    },
    {
      "midi": 76,
      "hit": false,
      "t": 97142.86200000008,
      "d": 1349.2064166666678,
      "v": 118
    },
    {
      "midi": 48,
      "hit": false,
      "t": 98095.24300000074,
      "d": 7.936508333339589,
      "v": 127
    },
    {
      "midi": 74,
      "hit": false,
      "t": 98571.43350000009,
      "d": 436.50795833332813,
      "v": 118
    },
    {
      "midi": 69,
      "hit": false,
      "t": 99007.94145833343,
      "d": 2857.1429999999964,
      "v": 115
    },
    {
      "midi": 78,
      "hit": false,
      "t": 99007.94145833343,
      "d": 2857.1429999999964,
      "v": 115
    },
    {
      "midi": 69,
      "hit": false,
      "t": 99023.814475,
      "d": 2777.7779166666733,
      "v": 125
    },
    {
      "midi": 81,
      "hit": false,
      "t": 99023.814475,
      "d": 2777.7779166666733,
      "v": 125
    },
    {
      "midi": 78,
      "hit": false,
      "t": 99023.814475,
      "d": 2777.7779166666733,
      "v": 125
    },
    {
      "midi": 74,
      "hit": false,
      "t": 99023.814475,
      "d": 2777.7779166666733,
      "v": 125
    },
    {
      "midi": 62,
      "hit": false,
      "t": 99047.62399999982,
      "d": 436.50795833332813,
      "v": 100
    },
    {
      "midi": 74,
      "hit": false,
      "t": 99047.62400000008,
      "d": 1349.2064166666678,
      "v": 118
    },
    {
      "midi": 98,
      "hit": false,
      "t": 99047.6240000001,
      "d": 11412.698983333335,
      "v": 100
    },
    {
      "midi": 86,
      "hit": false,
      "t": 99047.6240000001,
      "d": 11412.698983333335,
      "v": 100
    },
    {
      "midi": 50,
      "hit": false,
      "t": 99047.62400000016,
      "d": 912.6984583333251,
      "v": 100
    },
    {
      "midi": 57,
      "hit": false,
      "t": 99047.62400000016,
      "d": 912.6984583333251,
      "v": 100
    },
    {
      "midi": 38,
      "hit": false,
      "t": 99047.62400000056,
      "d": 412.69843333333847,
      "v": 115
    },
    {
      "midi": 50,
      "hit": false,
      "t": 99047.62400000062,
      "d": 396.82541666667385,
      "v": 100
    },
    {
      "midi": 57,
      "hit": false,
      "t": 99047.62400000062,
      "d": 396.82541666667385,
      "v": 100
    },
    {
      "midi": 2,
      "hit": false,
      "t": 99047.62400000075,
      "d": 7.936508333339589,
      "v": 120
    },
    {
      "midi": 40,
      "hit": false,
      "t": 99047.62400000075,
      "d": 7.936508333339589,
      "v": 127
    },
    {
      "midi": 49,
      "hit": false,
      "t": 99047.62400000075,
      "d": 7.936508333339589,
      "v": 120
    },
    {
      "midi": 74,
      "hit": false,
      "t": 99523.81449999982,
      "d": 214.28572499999427,
      "v": 100
    },
    {
      "midi": 38,
      "hit": false,
      "t": 99523.81450000058,
      "d": 412.69843333333847,
      "v": 110
    },
    {
      "midi": 50,
      "hit": false,
      "t": 99523.81450000063,
      "d": 119.04762500000652,
      "v": 100
    },
    {
      "midi": 57,
      "hit": false,
      "t": 99523.81450000063,
      "d": 119.04762500000652,
      "v": 100
    },
    {
      "midi": 42,
      "hit": false,
      "t": 99523.81450000076,
      "d": 7.936508333339589,
      "v": 100
    },
    {
      "midi": 62,
      "hit": false,
      "t": 99761.90974999982,
      "d": 214.28572499999427,
      "v": 100
    },
    {
      "midi": 69,
      "hit": false,
      "t": 100000.00499999982,
      "d": 214.28572499999427,
      "v": 100
    },
    {
      "midi": 50,
      "hit": false,
      "t": 100000.00500000015,
      "d": 119.04762499999197,
      "v": 100
    },
    {
      "midi": 57,
      "hit": false,
      "t": 100000.00500000015,
      "d": 119.04762499999197,
      "v": 100
    },
    {
      "midi": 38,
      "hit": false,
      "t": 100000.00500000059,
      "d": 412.69843333333847,
      "v": 110
    },
    {
      "midi": 57,
      "hit": false,
      "t": 100000.00500000064,
      "d": 119.04762500000652,
      "v": 100
    },
    {
      "midi": 50,
      "hit": false,
      "t": 100000.00500000064,
      "d": 119.04762500000652,
      "v": 100
    },
    {
      "midi": 40,
      "hit": false,
      "t": 100000.00500000078,
      "d": 7.936508333339589,
      "v": 127
    },
    {
      "midi": 42,
      "hit": false,
      "t": 100000.00500000078,
      "d": 7.936508333339589,
      "v": 100
    },
    {
      "midi": 74,
      "hit": false,
      "t": 100238.10024999981,
      "d": 214.28572499999427,
      "v": 100
    },
    {
      "midi": 74,
      "hit": false,
      "t": 100476.19549999981,
      "d": 214.28572499999427,
      "v": 100
    },
    {
      "midi": 50,
      "hit": false,
      "t": 100476.19550000015,
      "d": 119.04762500000652,
      "v": 100
    },
    {
      "midi": 57,
      "hit": false,
      "t": 100476.19550000015,
      "d": 119.04762500000652,
      "v": 100
    },
    {
      "midi": 38,
      "hit": false,
      "t": 100476.1955000006,
      "d": 412.69843333333847,
      "v": 110
    },
    {
      "midi": 50,
      "hit": false,
      "t": 100476.19550000066,
      "d": 396.82541666667385,
      "v": 100
    },
    {
      "midi": 57,
      "hit": false,
      "t": 100476.19550000066,
      "d": 396.82541666667385,
      "v": 100
    },
    {
      "midi": 42,
      "hit": false,
      "t": 100476.19550000079,
      "d": 7.936508333339589,
      "v": 100
    },
    {
      "midi": 69,
      "hit": false,
      "t": 100714.29074999981,
      "d": 214.28572499999427,
      "v": 100
    },
    {
      "midi": 62,
      "hit": false,
      "t": 100952.38599999981,
      "d": 214.28572499999427,
      "v": 100
    },
    {
      "midi": 50,
      "hit": false,
      "t": 100952.38600000016,
      "d": 119.04762500000652,
      "v": 100
    },
    {
      "midi": 57,
      "hit": false,
      "t": 100952.38600000016,
      "d": 119.04762500000652,
      "v": 100
    },
    {
      "midi": 38,
      "hit": false,
      "t": 100952.38600000061,
      "d": 412.69843333333847,
      "v": 110
    },
    {
      "midi": 50,
      "hit": false,
      "t": 100952.38600000067,
      "d": 119.04762500000652,
      "v": 100
    },
    {
      "midi": 57,
      "hit": false,
      "t": 100952.38600000067,
      "d": 119.04762500000652,
      "v": 100
    },
    {
      "midi": 40,
      "hit": false,
      "t": 100952.3860000008,
      "d": 7.936508333339589,
      "v": 127
    },
    {
      "midi": 42,
      "hit": false,
      "t": 100952.3860000008,
      "d": 7.936508333339589,
      "v": 100
    },
    {
      "midi": 74,
      "hit": false,
      "t": 101190.48124999981,
      "d": 214.28572499999427,
      "v": 100
    },
    {
      "midi": 74,
      "hit": false,
      "t": 101428.5764999998,
      "d": 214.28572499999427,
      "v": 100
    },
    {
      "midi": 50,
      "hit": false,
      "t": 101428.57650000017,
      "d": 119.04762500000652,
      "v": 100
    },
    {
      "midi": 57,
      "hit": false,
      "t": 101428.57650000017,
      "d": 119.04762500000652,
      "v": 100
    },
    {
      "midi": 38,
      "hit": false,
      "t": 101428.57650000062,
      "d": 412.69843333333847,
      "v": 110
    },
    {
      "midi": 57,
      "hit": false,
      "t": 101428.57650000068,
      "d": 119.04762500000652,
      "v": 100
    },
    {
      "midi": 50,
      "hit": false,
      "t": 101428.57650000068,
      "d": 119.04762500000652,
      "v": 100
    },
    {
      "midi": 2,
      "hit": false,
      "t": 101428.57650000081,
      "d": 7.936508333339589,
      "v": 115
    },
    {
      "midi": 42,
      "hit": false,
      "t": 101428.57650000081,
      "d": 7.936508333339589,
      "v": 100
    },
    {
      "midi": 62,
      "hit": false,
      "t": 101666.6717499998,
      "d": 214.28572499999427,
      "v": 100
    },
    {
      "midi": 67,
      "hit": false,
      "t": 101880.95747500002,
      "d": 873.0159166666708,
      "v": 125
    },
    {
      "midi": 79,
      "hit": false,
      "t": 101880.95747500002,
      "d": 873.0159166666708,
      "v": 127
    },
    {
      "midi": 69,
      "hit": false,
      "t": 101904.7669999998,
      "d": 214.28572499999427,
      "v": 100
    },
    {
      "midi": 73,
      "hit": false,
      "t": 101904.7670000001,
      "d": 928.5714750000043,
      "v": 115
    },
    {
      "midi": 76,
      "hit": false,
      "t": 101904.7670000001,
      "d": 928.5714750000043,
      "v": 115
    },
    {
      "midi": 50,
      "hit": false,
      "t": 101904.76700000017,
      "d": 912.6984583333251,
      "v": 100
    },
    {
      "midi": 57,
      "hit": false,
      "t": 101904.76700000017,
      "d": 912.6984583333251,
      "v": 100
    },
    {
      "midi": 38,
      "hit": false,
      "t": 101904.76700000063,
      "d": 412.69843333333847,
      "v": 110
    },
    {
      "midi": 50,
      "hit": false,
      "t": 101904.76700000069,
      "d": 912.6984583333397,
      "v": 100
    },
    {
      "midi": 57,
      "hit": false,
      "t": 101904.76700000069,
      "d": 912.6984583333397,
      "v": 100
    },
    {
      "midi": 40,
      "hit": false,
      "t": 101904.76700000082,
      "d": 7.936508333339589,
      "v": 127
    },
    {
      "midi": 42,
      "hit": false,
      "t": 101904.76700000082,
      "d": 7.936508333339589,
      "v": 100
    },
    {
      "midi": 74,
      "hit": false,
      "t": 102142.8622499998,
      "d": 214.28572499999427,
      "v": 100
    },
    {
      "midi": 74,
      "hit": false,
      "t": 102380.9574999998,
      "d": 214.28572499999427,
      "v": 100
    },
    {
      "midi": 37,
      "hit": false,
      "t": 102380.95750000064,
      "d": 412.69843333333847,
      "v": 110
    },
    {
      "midi": 2,
      "hit": false,
      "t": 102380.95750000083,
      "d": 7.936508333339589,
      "v": 115
    },
    {
      "midi": 42,
      "hit": false,
      "t": 102380.95750000083,
      "d": 7.936508333339589,
      "v": 100
    },
    {
      "midi": 69,
      "hit": false,
      "t": 102619.0527499998,
      "d": 214.28572499999427,
      "v": 100
    },
    {
      "midi": 71,
      "hit": false,
      "t": 102825.40196666676,
      "d": 3793.6509833333403,
      "v": 115
    },
    {
      "midi": 74,
      "hit": false,
      "t": 102825.40196666676,
      "d": 3793.6509833333403,
      "v": 115
    },
    {
      "midi": 66,
      "hit": false,
      "t": 102825.40196666676,
      "d": 3793.6509833333403,
      "v": 115
    },
    {
      "midi": 66,
      "hit": false,
      "t": 102833.33847500003,
      "d": 3730.158916666667,
      "v": 125
    },
    {
      "midi": 78,
      "hit": false,
      "t": 102833.33847500003,
      "d": 3730.158916666667,
      "v": 125
    },
    {
      "midi": 74,
      "hit": false,
      "t": 102833.33847500003,
      "d": 3730.158916666667,
      "v": 125
    },
    {
      "midi": 71,
      "hit": false,
      "t": 102833.33847500003,
      "d": 3730.158916666667,
      "v": 125
    },
    {
      "midi": 59,
      "hit": false,
      "t": 102857.1479999998,
      "d": 214.28572499999427,
      "v": 100
    },
    {
      "midi": 47,
      "hit": false,
      "t": 102857.14800000016,
      "d": 912.6984583333251,
      "v": 100
    },
    {
      "midi": 54,
      "hit": false,
      "t": 102857.14800000016,
      "d": 912.6984583333251,
      "v": 100
    },
    {
      "midi": 35,
      "hit": false,
      "t": 102857.14800000066,
      "d": 412.69843333333847,
      "v": 115
    },
    {
      "midi": 47,
      "hit": false,
      "t": 102857.1480000007,
      "d": 396.8254166666593,
      "v": 100
    },
    {
      "midi": 54,
      "hit": false,
      "t": 102857.1480000007,
      "d": 396.8254166666593,
      "v": 100
    },
    {
      "midi": 2,
      "hit": false,
      "t": 102857.14800000085,
      "d": 7.936508333339589,
      "v": 120
    },
    {
      "midi": 40,
      "hit": false,
      "t": 102857.14800000085,
      "d": 7.936508333339589,
      "v": 127
    },
    {
      "midi": 42,
      "hit": false,
      "t": 102857.14800000085,
      "d": 7.936508333339589,
      "v": 100
    },
    {
      "midi": 74,
      "hit": false,
      "t": 103095.2432499998,
      "d": 214.28572499999427,
      "v": 100
    },
    {
      "midi": 71,
      "hit": false,
      "t": 103333.3384999998,
      "d": 214.28572499999427,
      "v": 100
    },
    {
      "midi": 35,
      "hit": false,
      "t": 103333.33850000067,
      "d": 412.69843333333847,
      "v": 110
    },
    {
      "midi": 47,
      "hit": false,
      "t": 103333.3385000007,
      "d": 119.04762500000652,
      "v": 100
    },
    {
      "midi": 54,
      "hit": false,
      "t": 103333.3385000007,
      "d": 119.04762500000652,
      "v": 100
    },
    {
      "midi": 42,
      "hit": false,
      "t": 103333.33850000086,
      "d": 7.936508333339589,
      "v": 100
    },
    {
      "midi": 59,
      "hit": false,
      "t": 103571.4337499998,
      "d": 214.28572499999427,
      "v": 100
    },
    {
      "midi": 74,
      "hit": false,
      "t": 103809.52899999959,
      "d": 873.0159166666708,
      "v": 127
    },
    {
      "midi": 66,
      "hit": false,
      "t": 103809.52899999979,
      "d": 214.28572499999427,
      "v": 100
    },
    {
      "midi": 47,
      "hit": false,
      "t": 103809.52900000016,
      "d": 119.04762500000652,
      "v": 100
    },
    {
      "midi": 54,
      "hit": false,
      "t": 103809.52900000016,
      "d": 119.04762500000652,
      "v": 100
    },
    {
      "midi": 35,
      "hit": false,
      "t": 103809.52900000068,
      "d": 412.69843333333847,
      "v": 110
    },
    {
      "midi": 47,
      "hit": false,
      "t": 103809.52900000071,
      "d": 119.04762500000652,
      "v": 100
    },
    {
      "midi": 54,
      "hit": false,
      "t": 103809.52900000071,
      "d": 119.04762500000652,
      "v": 100
    },
    {
      "midi": 40,
      "hit": false,
      "t": 103809.52900000087,
      "d": 7.936508333339589,
      "v": 127
    },
    {
      "midi": 42,
      "hit": false,
      "t": 103809.52900000087,
      "d": 7.936508333339589,
      "v": 100
    },
    {
      "midi": 71,
      "hit": false,
      "t": 104047.62424999979,
      "d": 214.28572499999427,
      "v": 100
    },
    {
      "midi": 69,
      "hit": false,
      "t": 104285.71949999979,
      "d": 214.28572499999427,
      "v": 100
    },
    {
      "midi": 47,
      "hit": false,
      "t": 104285.71950000017,
      "d": 119.04762500000652,
      "v": 100
    },
    {
      "midi": 54,
      "hit": false,
      "t": 104285.71950000017,
      "d": 119.04762500000652,
      "v": 100
    },
    {
      "midi": 35,
      "hit": false,
      "t": 104285.71950000069,
      "d": 412.69843333333847,
      "v": 110
    },
    {
      "midi": 47,
      "hit": false,
      "t": 104285.71950000072,
      "d": 396.82541666667385,
      "v": 100
    },
    {
      "midi": 54,
      "hit": false,
      "t": 104285.71950000072,
      "d": 396.82541666667385,
      "v": 100
    },
    {
      "midi": 42,
      "hit": false,
      "t": 104285.71950000088,
      "d": 7.936508333339589,
      "v": 100
    },
    {
      "midi": 66,
      "hit": false,
      "t": 104523.81474999979,
      "d": 214.28572499999427,
      "v": 100
    },
    {
      "midi": 78,
      "hit": false,
      "t": 104761.9099999996,
      "d": 873.0159166666708,
      "v": 127
    },
    {
      "midi": 71,
      "hit": false,
      "t": 104761.90999999979,
      "d": 214.28572499999427,
      "v": 100
    },
    {
      "midi": 47,
      "hit": false,
      "t": 104761.91000000018,
      "d": 119.04762500000652,
      "v": 100
    },
    {
      "midi": 54,
      "hit": false,
      "t": 104761.91000000018,
      "d": 119.04762500000652,
      "v": 100
    },
    {
      "midi": 35,
      "hit": false,
      "t": 104761.9100000007,
      "d": 412.69843333333847,
      "v": 110
    },
    {
      "midi": 47,
      "hit": false,
      "t": 104761.91000000073,
      "d": 119.04762500000652,
      "v": 100
    },
    {
      "midi": 54,
      "hit": false,
      "t": 104761.91000000073,
      "d": 119.04762500000652,
      "v": 100
    },
    {
      "midi": 40,
      "hit": false,
      "t": 104761.91000000089,
      "d": 7.936508333339589,
      "v": 127
    },
    {
      "midi": 42,
      "hit": false,
      "t": 104761.91000000089,
      "d": 7.936508333339589,
      "v": 100
    },
    {
      "midi": 69,
      "hit": false,
      "t": 105000.00524999978,
      "d": 214.28572499999427,
      "v": 100
    },
    {
      "midi": 59,
      "hit": false,
      "t": 105238.10049999978,
      "d": 214.28572499999427,
      "v": 100
    },
    {
      "midi": 47,
      "hit": false,
      "t": 105238.10050000019,
      "d": 119.04762500000652,
      "v": 100
    },
    {
      "midi": 54,
      "hit": false,
      "t": 105238.10050000019,
      "d": 119.04762500000652,
      "v": 100
    },
    {
      "midi": 35,
      "hit": false,
      "t": 105238.10050000071,
      "d": 412.69843333333847,
      "v": 110
    },
    {
      "midi": 47,
      "hit": false,
      "t": 105238.10050000074,
      "d": 119.04762500000652,
      "v": 100
    },
    {
      "midi": 54,
      "hit": false,
      "t": 105238.10050000074,
      "d": 119.04762500000652,
      "v": 100
    },
    {
      "midi": 2,
      "hit": false,
      "t": 105238.1005000009,
      "d": 7.936508333339589,
      "v": 115
    },
    {
      "midi": 42,
      "hit": false,
      "t": 105238.1005000009,
      "d": 7.936508333339589,
      "v": 100
    },
    {
      "midi": 71,
      "hit": false,
      "t": 105476.19574999978,
      "d": 214.28572499999427,
      "v": 100
    },
    {
      "midi": 81,
      "hit": false,
      "t": 105714.2909999996,
      "d": 873.0159166666708,
      "v": 127
    },
    {
      "midi": 66,
      "hit": false,
      "t": 105714.29099999978,
      "d": 214.28572499999427,
      "v": 100
    },
    {
      "midi": 47,
      "hit": false,
      "t": 105714.2910000002,
      "d": 912.6984583333251,
      "v": 100
    },
    {
      "midi": 54,
      "hit": false,
      "t": 105714.2910000002,
      "d": 912.6984583333251,
      "v": 100
    },
    {
      "midi": 30,
      "hit": false,
      "t": 105714.29100000073,
      "d": 412.69843333333847,
      "v": 110
    },
    {
      "midi": 47,
      "hit": false,
      "t": 105714.29100000075,
      "d": 396.82541666667385,
      "v": 100
    },
    {
      "midi": 54,
      "hit": false,
      "t": 105714.29100000075,
      "d": 396.82541666667385,
      "v": 100
    },
    {
      "midi": 40,
      "hit": false,
      "t": 105714.29100000091,
      "d": 7.936508333339589,
      "v": 127
    },
    {
      "midi": 42,
      "hit": false,
      "t": 105714.29100000091,
      "d": 7.936508333339589,
      "v": 100
    },
    {
      "midi": 59,
      "hit": false,
      "t": 105952.38624999978,
      "d": 214.28572499999427,
      "v": 100
    },
    {
      "midi": 71,
      "hit": false,
      "t": 106190.48149999978,
      "d": 214.28572499999427,
      "v": 100
    },
    {
      "midi": 29,
      "hit": false,
      "t": 106190.48150000074,
      "d": 412.69843333333847,
      "v": 110
    },
    {
      "midi": 54,
      "hit": false,
      "t": 106190.48150000077,
      "d": 396.82541666667385,
      "v": 100
    },
    {
      "midi": 47,
      "hit": false,
      "t": 106190.48150000077,
      "d": 396.82541666667385,
      "v": 100
    },
    {
      "midi": 2,
      "hit": false,
      "t": 106190.48150000093,
      "d": 7.936508333339589,
      "v": 115
    },
    {
      "midi": 42,
      "hit": false,
      "t": 106190.48150000093,
      "d": 7.936508333339589,
      "v": 100
    },
    {
      "midi": 66,
      "hit": false,
      "t": 106428.57674999977,
      "d": 214.28572499999427,
      "v": 100
    },
    {
      "midi": 67,
      "hit": false,
      "t": 106626.98945833344,
      "d": 3793.6509833333257,
      "v": 115
    },
    {
      "midi": 71,
      "hit": false,
      "t": 106626.98945833344,
      "d": 3793.6509833333257,
      "v": 115
    },
    {
      "midi": 76,
      "hit": false,
      "t": 106626.98945833344,
      "d": 3793.6509833333257,
      "v": 115
    },
    {
      "midi": 67,
      "hit": false,
      "t": 106650.79898333336,
      "d": 1825.3969166666648,
      "v": 125
    },
    {
      "midi": 79,
      "hit": false,
      "t": 106650.79898333336,
      "d": 1825.3969166666648,
      "v": 125
    },
    {
      "midi": 74,
      "hit": false,
      "t": 106650.79898333336,
      "d": 1825.3969166666648,
      "v": 125
    },
    {
      "midi": 71,
      "hit": false,
      "t": 106650.79898333336,
      "d": 1825.3969166666648,
      "v": 125
    },
    {
      "midi": 83,
      "hit": false,
      "t": 106666.67199999961,
      "d": 3174.6033333333326,
      "v": 127
    },
    {
      "midi": 59,
      "hit": false,
      "t": 106666.67199999977,
      "d": 214.28572499999427,
      "v": 100
    },
    {
      "midi": 40,
      "hit": false,
      "t": 106666.6720000002,
      "d": 912.6984583333397,
      "v": 100
    },
    {
      "midi": 47,
      "hit": false,
      "t": 106666.6720000002,
      "d": 912.6984583333397,
      "v": 100
    },
    {
      "midi": 28,
      "hit": false,
      "t": 106666.67200000075,
      "d": 412.69843333333847,
      "v": 115
    },
    {
      "midi": 40,
      "hit": false,
      "t": 106666.67200000078,
      "d": 396.82541666667385,
      "v": 100
    },
    {
      "midi": 47,
      "hit": false,
      "t": 106666.67200000078,
      "d": 396.82541666667385,
      "v": 100
    },
    {
      "midi": 2,
      "hit": false,
      "t": 106666.67200000094,
      "d": 7.936508333339589,
      "v": 120
    },
    {
      "midi": 40,
      "hit": false,
      "t": 106666.67200000094,
      "d": 7.936508333339589,
      "v": 127
    },
    {
      "midi": 49,
      "hit": false,
      "t": 106666.67200000094,
      "d": 7.936508333339589,
      "v": 100
    },
    {
      "midi": 71,
      "hit": false,
      "t": 106904.76724999977,
      "d": 214.28572499999427,
      "v": 100
    },
    {
      "midi": 71,
      "hit": false,
      "t": 107142.86249999977,
      "d": 214.28572499999427,
      "v": 100
    },
    {
      "midi": 28,
      "hit": false,
      "t": 107142.86250000076,
      "d": 412.69843333333847,
      "v": 110
    },
    {
      "midi": 40,
      "hit": false,
      "t": 107142.86250000079,
      "d": 119.04762500000652,
      "v": 100
    },
    {
      "midi": 47,
      "hit": false,
      "t": 107142.86250000079,
      "d": 119.04762500000652,
      "v": 100
    },
    {
      "midi": 42,
      "hit": false,
      "t": 107142.86250000095,
      "d": 7.936508333339589,
      "v": 100
    },
    {
      "midi": 59,
      "hit": false,
      "t": 107380.95774999977,
      "d": 214.28572499999427,
      "v": 100
    },
    {
      "midi": 64,
      "hit": false,
      "t": 107619.05299999977,
      "d": 214.28572499999427,
      "v": 100
    },
    {
      "midi": 40,
      "hit": false,
      "t": 107619.0530000002,
      "d": 119.04762500000652,
      "v": 100
    },
    {
      "midi": 47,
      "hit": false,
      "t": 107619.0530000002,
      "d": 119.04762500000652,
      "v": 100
    },
    {
      "midi": 28,
      "hit": false,
      "t": 107619.05300000077,
      "d": 412.69843333333847,
      "v": 110
    },
    {
      "midi": 47,
      "hit": false,
      "t": 107619.0530000008,
      "d": 119.04762500000652,
      "v": 100
    },
    {
      "midi": 40,
      "hit": false,
      "t": 107619.0530000008,
      "d": 119.04762500000652,
      "v": 100
    },
    {
      "midi": 40,
      "hit": false,
      "t": 107619.05300000096,
      "d": 7.936508333339589,
      "v": 127
    },
    {
      "midi": 42,
      "hit": false,
      "t": 107619.05300000096,
      "d": 7.936508333339589,
      "v": 100
    },
    {
      "midi": 71,
      "hit": false,
      "t": 107857.14824999977,
      "d": 214.28572499999427,
      "v": 100
    },
    {
      "midi": 67,
      "hit": false,
      "t": 108095.24349999976,
      "d": 214.28572499999427,
      "v": 100
    },
    {
      "midi": 40,
      "hit": false,
      "t": 108095.24350000022,
      "d": 119.04762500000652,
      "v": 100
    },
    {
      "midi": 47,
      "hit": false,
      "t": 108095.24350000022,
      "d": 119.04762500000652,
      "v": 100
    },
    {
      "midi": 28,
      "hit": false,
      "t": 108095.24350000078,
      "d": 412.69843333333847,
      "v": 110
    },
    {
      "midi": 40,
      "hit": false,
      "t": 108095.24350000081,
      "d": 396.82541666667385,
      "v": 100
    },
    {
      "midi": 47,
      "hit": false,
      "t": 108095.24350000081,
      "d": 396.82541666667385,
      "v": 100
    },
    {
      "midi": 42,
      "hit": false,
      "t": 108095.24350000097,
      "d": 7.936508333339589,
      "v": 100
    },
    {
      "midi": 64,
      "hit": false,
      "t": 108333.33874999976,
      "d": 214.28572499999427,
      "v": 100
    },
    {
      "midi": 71,
      "hit": false,
      "t": 108555.56098333336,
      "d": 1825.3969166666648,
      "v": 125
    },
    {
      "midi": 83,
      "hit": false,
      "t": 108555.56098333336,
      "d": 1825.3969166666648,
      "v": 125
    },
    {
      "midi": 71,
      "hit": false,
      "t": 108571.43399999976,
      "d": 214.28572499999427,
      "v": 100
    },
    {
      "midi": 40,
      "hit": false,
      "t": 108571.43400000023,
      "d": 119.04762500000652,
      "v": 100
    },
    {
      "midi": 47,
      "hit": false,
      "t": 108571.43400000023,
      "d": 119.04762500000652,
      "v": 100
    },
    {
      "midi": 28,
      "hit": false,
      "t": 108571.4340000008,
      "d": 412.69843333333847,
      "v": 110
    },
    {
      "midi": 40,
      "hit": false,
      "t": 108571.43400000082,
      "d": 119.04762500000652,
      "v": 100
    },
    {
      "midi": 47,
      "hit": false,
      "t": 108571.43400000082,
      "d": 119.04762500000652,
      "v": 100
    },
    {
      "midi": 40,
      "hit": false,
      "t": 108571.43400000098,
      "d": 7.936508333339589,
      "v": 127
    },
    {
      "midi": 42,
      "hit": false,
      "t": 108571.43400000098,
      "d": 7.936508333339589,
      "v": 100
    },
    {
      "midi": 67,
      "hit": false,
      "t": 108809.52924999976,
      "d": 214.28572499999427,
      "v": 100
    },
    {
      "midi": 59,
      "hit": false,
      "t": 109047.62449999976,
      "d": 214.28572499999427,
      "v": 100
    },
    {
      "midi": 40,
      "hit": false,
      "t": 109047.62450000024,
      "d": 119.04762500000652,
      "v": 100
    },
    {
      "midi": 47,
      "hit": false,
      "t": 109047.62450000024,
      "d": 119.04762500000652,
      "v": 100
    },
    {
      "midi": 28,
      "hit": false,
      "t": 109047.6245000008,
      "d": 412.69843333333847,
      "v": 110
    },
    {
      "midi": 47,
      "hit": false,
      "t": 109047.62450000083,
      "d": 119.04762500000652,
      "v": 100
    },
    {
      "midi": 40,
      "hit": false,
      "t": 109047.62450000083,
      "d": 119.04762500000652,
      "v": 100
    },
    {
      "midi": 2,
      "hit": false,
      "t": 109047.624500001,
      "d": 7.936508333339589,
      "v": 115
    },
    {
      "midi": 42,
      "hit": false,
      "t": 109047.624500001,
      "d": 7.936508333339589,
      "v": 100
    },
    {
      "midi": 71,
      "hit": false,
      "t": 109285.71974999976,
      "d": 214.28572499999427,
      "v": 100
    },
    {
      "midi": 64,
      "hit": false,
      "t": 109523.81499999975,
      "d": 214.28572499999427,
      "v": 100
    },
    {
      "midi": 40,
      "hit": false,
      "t": 109523.81500000025,
      "d": 396.82541666667385,
      "v": 100
    },
    {
      "midi": 47,
      "hit": false,
      "t": 109523.81500000025,
      "d": 396.82541666667385,
      "v": 100
    },
    {
      "midi": 28,
      "hit": false,
      "t": 109523.81500000082,
      "d": 412.69843333333847,
      "v": 110
    },
    {
      "midi": 40,
      "hit": false,
      "t": 109523.81500000085,
      "d": 396.82541666667385,
      "v": 100
    },
    {
      "midi": 47,
      "hit": false,
      "t": 109523.81500000085,
      "d": 396.82541666667385,
      "v": 100
    },
    {
      "midi": 40,
      "hit": false,
      "t": 109523.815000001,
      "d": 7.936508333339589,
      "v": 127
    },
    {
      "midi": 42,
      "hit": false,
      "t": 109523.815000001,
      "d": 7.936508333339589,
      "v": 100
    },
    {
      "midi": 59,
      "hit": false,
      "t": 109761.91024999975,
      "d": 214.28572499999427,
      "v": 100
    },
    {
      "midi": 67,
      "hit": false,
      "t": 110000.00549999975,
      "d": 214.28572499999427,
      "v": 100
    },
    {
      "midi": 47,
      "hit": false,
      "t": 110000.00550000026,
      "d": 396.82541666667385,
      "v": 100
    },
    {
      "midi": 40,
      "hit": false,
      "t": 110000.00550000026,
      "d": 396.82541666667385,
      "v": 100
    },
    {
      "midi": 28,
      "hit": false,
      "t": 110000.00550000083,
      "d": 412.69843333333847,
      "v": 110
    },
    {
      "midi": 47,
      "hit": false,
      "t": 110000.00550000086,
      "d": 396.82541666667385,
      "v": 100
    },
    {
      "midi": 40,
      "hit": false,
      "t": 110000.00550000086,
      "d": 396.82541666667385,
      "v": 100
    },
    {
      "midi": 2,
      "hit": false,
      "t": 110000.00550000102,
      "d": 7.936508333339589,
      "v": 115
    },
    {
      "midi": 42,
      "hit": false,
      "t": 110000.00550000102,
      "d": 7.936508333339589,
      "v": 100
    },
    {
      "midi": 64,
      "hit": false,
      "t": 110238.10074999975,
      "d": 214.28572499999427,
      "v": 100
    },
    {
      "midi": 85,
      "hit": false,
      "t": 110452.3864750001,
      "d": 3809.524000000005,
      "v": 100
    },
    {
      "midi": 97,
      "hit": false,
      "t": 110452.3864750001,
      "d": 3809.524000000005,
      "v": 100
    },
    {
      "midi": 78,
      "hit": false,
      "t": 110452.3864750001,
      "d": 3809.524000000005,
      "v": 100
    },
    {
      "midi": 71,
      "hit": false,
      "t": 110452.3864750001,
      "d": 1888.8889833333378,
      "v": 100
    },
    {
      "midi": 71,
      "hit": false,
      "t": 110460.32298333336,
      "d": 1825.3969166666648,
      "v": 125
    },
    {
      "midi": 83,
      "hit": false,
      "t": 110460.32298333336,
      "d": 1825.3969166666648,
      "v": 125
    },
    {
      "midi": 78,
      "hit": false,
      "t": 110460.32298333336,
      "d": 1825.3969166666648,
      "v": 125
    },
    {
      "midi": 76,
      "hit": false,
      "t": 110460.32298333336,
      "d": 1825.3969166666648,
      "v": 125
    },
    {
      "midi": 83,
      "hit": false,
      "t": 110476.19599999962,
      "d": 1825.3969166666648,
      "v": 127
    },
    {
      "midi": 66,
      "hit": false,
      "t": 110476.19599999975,
      "d": 214.28572499999427,
      "v": 100
    },
    {
      "midi": 59,
      "hit": false,
      "t": 110476.19600000026,
      "d": 1865.0794583333336,
      "v": 100
    },
    {
      "midi": 54,
      "hit": false,
      "t": 110476.19600000026,
      "d": 1865.0794583333336,
      "v": 100
    },
    {
      "midi": 30,
      "hit": false,
      "t": 110476.19600000084,
      "d": 412.69843333333847,
      "v": 115
    },
    {
      "midi": 42,
      "hit": false,
      "t": 110476.19600000087,
      "d": 396.82541666667385,
      "v": 100
    },
    {
      "midi": 49,
      "hit": false,
      "t": 110476.19600000087,
      "d": 396.82541666667385,
      "v": 100
    },
    {
      "midi": 2,
      "hit": false,
      "t": 110476.19600000103,
      "d": 7.936508333339589,
      "v": 120
    },
    {
      "midi": 42,
      "hit": false,
      "t": 110476.19600000103,
      "d": 7.936508333339589,
      "v": 100
    },
    {
      "midi": 66,
      "hit": false,
      "t": 110714.29124999975,
      "d": 214.28572499999427,
      "v": 100
    },
    {
      "midi": 59,
      "hit": false,
      "t": 110952.38649999975,
      "d": 214.28572499999427,
      "v": 100
    },
    {
      "midi": 30,
      "hit": false,
      "t": 110952.38650000085,
      "d": 412.69843333333847,
      "v": 110
    },
    {
      "midi": 42,
      "hit": false,
      "t": 110952.38650000088,
      "d": 119.04762500000652,
      "v": 100
    },
    {
      "midi": 49,
      "hit": false,
      "t": 110952.38650000088,
      "d": 119.04762500000652,
      "v": 100
    },
    {
      "midi": 42,
      "hit": false,
      "t": 110952.38650000104,
      "d": 7.936508333339589,
      "v": 100
    },
    {
      "midi": 59,
      "hit": false,
      "t": 111190.48174999974,
      "d": 214.28572499999427,
      "v": 100
    },
    {
      "midi": 64,
      "hit": false,
      "t": 111428.57699999974,
      "d": 214.28572499999427,
      "v": 100
    },
    {
      "midi": 30,
      "hit": false,
      "t": 111428.57700000086,
      "d": 412.69843333333847,
      "v": 110
    },
    {
      "midi": 49,
      "hit": false,
      "t": 111428.57700000089,
      "d": 119.04762500000652,
      "v": 100
    },
    {
      "midi": 42,
      "hit": false,
      "t": 111428.57700000089,
      "d": 119.04762500000652,
      "v": 100
    },
    {
      "midi": 40,
      "hit": false,
      "t": 111428.57700000105,
      "d": 7.936508333339589,
      "v": 127
    },
    {
      "midi": 42,
      "hit": false,
      "t": 111428.57700000105,
      "d": 7.936508333339589,
      "v": 100
    },
    {
      "midi": 2,
      "hit": false,
      "t": 111428.57700000105,
      "d": 7.936508333339589,
      "v": 115
    },
    {
      "midi": 64,
      "hit": false,
      "t": 111666.67224999974,
      "d": 214.28572499999427,
      "v": 100
    },
    {
      "midi": 66,
      "hit": false,
      "t": 111904.76749999974,
      "d": 214.28572499999427,
      "v": 100
    },
    {
      "midi": 30,
      "hit": false,
      "t": 111904.76750000087,
      "d": 412.69843333333847,
      "v": 110
    },
    {
      "midi": 42,
      "hit": false,
      "t": 111904.7675000009,
      "d": 396.82541666667385,
      "v": 100
    },
    {
      "midi": 49,
      "hit": false,
      "t": 111904.7675000009,
      "d": 396.82541666667385,
      "v": 100
    },
    {
      "midi": 46,
      "hit": false,
      "t": 111904.76750000106,
      "d": 7.936508333339589,
      "v": 100
    },
    {
      "midi": 40,
      "hit": false,
      "t": 111904.76750000106,
      "d": 7.936508333339589,
      "v": 127
    },
    {
      "midi": 2,
      "hit": false,
      "t": 111904.76750000106,
      "d": 7.936508333339589,
      "v": 115
    },
    {
      "midi": 66,
      "hit": false,
      "t": 112142.86274999974,
      "d": 214.28572499999427,
      "v": 100
    },
    {
      "midi": 70,
      "hit": false,
      "t": 112365.08498333336,
      "d": 1825.3969166666793,
      "v": 115
    },
    {
      "midi": 82,
      "hit": false,
      "t": 112365.08498333336,
      "d": 1825.3969166666793,
      "v": 115
    },
    {
      "midi": 76,
      "hit": false,
      "t": 112365.08498333336,
      "d": 1825.3969166666793,
      "v": 115
    },
    {
      "midi": 73,
      "hit": false,
      "t": 112365.08498333336,
      "d": 1825.3969166666793,
      "v": 115
    },
    {
      "midi": 82,
      "hit": false,
      "t": 112380.95799999962,
      "d": 1825.3969166666648,
      "v": 127
    },
    {
      "midi": 73,
      "hit": false,
      "t": 112380.95799999974,
      "d": 214.28572499999427,
      "v": 100
    },
    {
      "midi": 70,
      "hit": false,
      "t": 112380.9580000001,
      "d": 1888.8889833333378,
      "v": 100
    },
    {
      "midi": 58,
      "hit": false,
      "t": 112380.95800000026,
      "d": 1865.0794583333336,
      "v": 100
    },
    {
      "midi": 54,
      "hit": false,
      "t": 112380.95800000026,
      "d": 1865.0794583333336,
      "v": 100
    },
    {
      "midi": 30,
      "hit": false,
      "t": 112380.95800000089,
      "d": 412.69843333333847,
      "v": 110
    },
    {
      "midi": 42,
      "hit": false,
      "t": 112380.95800000092,
      "d": 119.04762500000652,
      "v": 100
    },
    {
      "midi": 49,
      "hit": false,
      "t": 112380.95800000092,
      "d": 119.04762500000652,
      "v": 100
    },
    {
      "midi": 40,
      "hit": false,
      "t": 112380.95800000108,
      "d": 7.936508333339589,
      "v": 127
    },
    {
      "midi": 46,
      "hit": false,
      "t": 112380.95800000108,
      "d": 7.936508333339589,
      "v": 100
    },
    {
      "midi": 2,
      "hit": false,
      "t": 112380.95800000108,
      "d": 7.936508333339589,
      "v": 115
    },
    {
      "midi": 73,
      "hit": false,
      "t": 112619.05324999974,
      "d": 214.28572499999427,
      "v": 100
    },
    {
      "midi": 70,
      "hit": false,
      "t": 112857.14849999973,
      "d": 214.28572499999427,
      "v": 100
    },
    {
      "midi": 42,
      "hit": false,
      "t": 112857.1485000009,
      "d": 412.69843333333847,
      "v": 110
    },
    {
      "midi": 49,
      "hit": false,
      "t": 112857.14850000093,
      "d": 119.04762500000652,
      "v": 100
    },
    {
      "midi": 42,
      "hit": false,
      "t": 112857.14850000093,
      "d": 119.04762500000652,
      "v": 100
    },
    {
      "midi": 46,
      "hit": false,
      "t": 112857.14850000109,
      "d": 7.936508333339589,
      "v": 100
    },
    {
      "midi": 48,
      "hit": false,
      "t": 112857.14850000109,
      "d": 7.936508333339589,
      "v": 127
    },
    {
      "midi": 70,
      "hit": false,
      "t": 113095.24374999973,
      "d": 214.28572499999427,
      "v": 100
    },
    {
      "midi": 66,
      "hit": false,
      "t": 113333.33899999973,
      "d": 214.28572499999427,
      "v": 100
    },
    {
      "midi": 37,
      "hit": false,
      "t": 113333.33900000091,
      "d": 412.69843333333847,
      "v": 110
    },
    {
      "midi": 42,
      "hit": false,
      "t": 113333.33900000094,
      "d": 912.6984583333542,
      "v": 100
    },
    {
      "midi": 49,
      "hit": false,
      "t": 113333.33900000094,
      "d": 912.6984583333542,
      "v": 100
    },
    {
      "midi": 47,
      "hit": false,
      "t": 113333.3390000011,
      "d": 7.936508333339589,
      "v": 127
    },
    {
      "midi": 2,
      "hit": false,
      "t": 113333.3390000011,
      "d": 7.936508333339589,
      "v": 115
    },
    {
      "midi": 66,
      "hit": false,
      "t": 113571.43424999973,
      "d": 214.28572499999427,
      "v": 100
    },
    {
      "midi": 45,
      "hit": false,
      "t": 113571.43425000111,
      "d": 7.936508333339589,
      "v": 127
    },
    {
      "midi": 61,
      "hit": false,
      "t": 113809.52949999973,
      "d": 214.28572499999427,
      "v": 100
    },
    {
      "midi": 30,
      "hit": false,
      "t": 113809.52950000092,
      "d": 412.69843333333847,
      "v": 110
    },
    {
      "midi": 43,
      "hit": false,
      "t": 113809.52950000112,
      "d": 7.936508333339589,
      "v": 127
    },
    {
      "midi": 61,
      "hit": false,
      "t": 114047.62474999973,
      "d": 214.28572499999427,
      "v": 100
    },
    {
      "midi": 59,
      "hit": false,
      "t": 114269.84698333338,
      "d": 2301.5874166666617,
      "v": 110
    },
    {
      "midi": 62,
      "hit": false,
      "t": 114269.84698333338,
      "d": 2301.5874166666617,
      "v": 110
    },
    {
      "midi": 67,
      "hit": false,
      "t": 114269.84698333338,
      "d": 2301.5874166666617,
      "v": 110
    },
    {
      "midi": 31,
      "hit": false,
      "t": 114285.72000000093,
      "d": 412.69843333333847,
      "v": 115
    },
    {
      "midi": 43,
      "hit": false,
      "t": 114285.72000000096,
      "d": 436.50795833332813,
      "v": 115
    },
    {
      "midi": 50,
      "hit": false,
      "t": 114285.72000000096,
      "d": 436.50795833332813,
      "v": 115
    },
    {
      "midi": 2,
      "hit": false,
      "t": 114285.72000000114,
      "d": 7.936508333339589,
      "v": 120
    },
    {
      "midi": 57,
      "hit": false,
      "t": 114285.72000000114,
      "d": 7.936508333339589,
      "v": 100
    },
    {
      "midi": 31,
      "hit": false,
      "t": 114761.91050000094,
      "d": 412.69843333333847,
      "v": 110
    },
    {
      "midi": 43,
      "hit": false,
      "t": 114761.91050000096,
      "d": 79.36508333333768,
      "v": 100
    },
    {
      "midi": 50,
      "hit": false,
      "t": 114761.91050000096,
      "d": 79.36508333333768,
      "v": 100
    },
    {
      "midi": 42,
      "hit": false,
      "t": 114761.91050000115,
      "d": 7.936508333339589,
      "v": 100
    },
    {
      "midi": 71,
      "hit": false,
      "t": 115238.10100000008,
      "d": 873.0159166666708,
      "v": 112
    },
    {
      "midi": 31,
      "hit": false,
      "t": 115238.10100000096,
      "d": 412.69843333333847,
      "v": 110
    },
    {
      "midi": 43,
      "hit": false,
      "t": 115238.10100000097,
      "d": 79.36508333333768,
      "v": 100
    },
    {
      "midi": 50,
      "hit": false,
      "t": 115238.10100000097,
      "d": 79.36508333333768,
      "v": 100
    },
    {
      "midi": 40,
      "hit": false,
      "t": 115238.10100000116,
      "d": 7.936508333339589,
      "v": 127
    },
    {
      "midi": 42,
      "hit": false,
      "t": 115238.10100000116,
      "d": 7.936508333339589,
      "v": 100
    },
    {
      "midi": 31,
      "hit": false,
      "t": 115714.29150000097,
      "d": 412.69843333333847,
      "v": 110
    },
    {
      "midi": 43,
      "hit": false,
      "t": 115714.29150000098,
      "d": 79.36508333333768,
      "v": 100
    },
    {
      "midi": 50,
      "hit": false,
      "t": 115714.29150000098,
      "d": 79.36508333333768,
      "v": 100
    },
    {
      "midi": 42,
      "hit": false,
      "t": 115714.29150000117,
      "d": 7.936508333339589,
      "v": 100
    },
    {
      "midi": 71,
      "hit": false,
      "t": 116190.48200000009,
      "d": 674.6032083333266,
      "v": 112
    },
    {
      "midi": 31,
      "hit": false,
      "t": 116190.48200000098,
      "d": 412.69843333333847,
      "v": 110
    },
    {
      "midi": 43,
      "hit": false,
      "t": 116190.482000001,
      "d": 79.36508333333768,
      "v": 100
    },
    {
      "midi": 50,
      "hit": false,
      "t": 116190.482000001,
      "d": 79.36508333333768,
      "v": 100
    },
    {
      "midi": 2,
      "hit": false,
      "t": 116190.48200000118,
      "d": 7.936508333339589,
      "v": 120
    },
    {
      "midi": 42,
      "hit": false,
      "t": 116190.48200000118,
      "d": 7.936508333339589,
      "v": 100
    },
    {
      "midi": 50,
      "hit": false,
      "t": 116666.67250000004,
      "d": 436.50795833332813,
      "v": 117
    },
    {
      "midi": 31,
      "hit": false,
      "t": 116666.67250000099,
      "d": 412.69843333333847,
      "v": 110
    },
    {
      "midi": 43,
      "hit": false,
      "t": 116666.672500001,
      "d": 79.36508333333768,
      "v": 100
    },
    {
      "midi": 50,
      "hit": false,
      "t": 116666.672500001,
      "d": 79.36508333333768,
      "v": 100
    },
    {
      "midi": 42,
      "hit": false,
      "t": 116666.6725000012,
      "d": 7.936508333339589,
      "v": 100
    },
    {
      "midi": 73,
      "hit": false,
      "t": 116904.76775000009,
      "d": 674.6032083333266,
      "v": 112
    },
    {
      "midi": 55,
      "hit": false,
      "t": 117142.86300000004,
      "d": 436.50795833332813,
      "v": 117
    },
    {
      "midi": 31,
      "hit": false,
      "t": 117142.863000001,
      "d": 412.69843333333847,
      "v": 110
    },
    {
      "midi": 43,
      "hit": false,
      "t": 117142.86300000102,
      "d": 79.36508333333768,
      "v": 100
    },
    {
      "midi": 50,
      "hit": false,
      "t": 117142.86300000102,
      "d": 79.36508333333768,
      "v": 100
    },
    {
      "midi": 40,
      "hit": false,
      "t": 117142.8630000012,
      "d": 7.936508333339589,
      "v": 127
    },
    {
      "midi": 42,
      "hit": false,
      "t": 117142.8630000012,
      "d": 7.936508333339589,
      "v": 100
    },
    {
      "midi": 59,
      "hit": false,
      "t": 117619.05350000004,
      "d": 436.50795833332813,
      "v": 117
    },
    {
      "midi": 74,
      "hit": false,
      "t": 117619.05350000008,
      "d": 436.50795833332813,
      "v": 112
    },
    {
      "midi": 31,
      "hit": false,
      "t": 117619.05350000101,
      "d": 412.69843333333847,
      "v": 110
    },
    {
      "midi": 43,
      "hit": false,
      "t": 117619.05350000103,
      "d": 79.36508333333768,
      "v": 100
    },
    {
      "midi": 50,
      "hit": false,
      "t": 117619.05350000103,
      "d": 79.36508333333768,
      "v": 100
    },
    {
      "midi": 42,
      "hit": false,
      "t": 117619.05350000122,
      "d": 7.936508333339589,
      "v": 100
    },
    {
      "midi": 74,
      "hit": false,
      "t": 118071.43447500007,
      "d": 1111.1111666666693,
      "v": 112
    },
    {
      "midi": 54,
      "hit": false,
      "t": 118079.37098333337,
      "d": 3730.158916666667,
      "v": 110
    },
    {
      "midi": 57,
      "hit": false,
      "t": 118079.37098333337,
      "d": 3730.158916666667,
      "v": 110
    },
    {
      "midi": 62,
      "hit": false,
      "t": 118079.37098333337,
      "d": 3730.158916666667,
      "v": 110
    },
    {
      "midi": 38,
      "hit": false,
      "t": 118095.24400000102,
      "d": 412.69843333333847,
      "v": 115
    },
    {
      "midi": 50,
      "hit": false,
      "t": 118095.24400000104,
      "d": 436.50795833332813,
      "v": 115
    },
    {
      "midi": 57,
      "hit": false,
      "t": 118095.24400000104,
      "d": 436.50795833332813,
      "v": 115
    },
    {
      "midi": 2,
      "hit": false,
      "t": 118095.24400000123,
      "d": 7.936508333339589,
      "v": 120
    },
    {
      "midi": 42,
      "hit": false,
      "t": 118095.24400000123,
      "d": 7.936508333339589,
      "v": 115
    },
    {
      "midi": 38,
      "hit": false,
      "t": 118571.43450000104,
      "d": 412.69843333333847,
      "v": 110
    },
    {
      "midi": 50,
      "hit": false,
      "t": 118571.43450000104,
      "d": 79.36508333333768,
      "v": 100
    },
    {
      "midi": 57,
      "hit": false,
      "t": 118571.43450000104,
      "d": 79.36508333333768,
      "v": 100
    },
    {
      "midi": 42,
      "hit": false,
      "t": 118571.43450000124,
      "d": 7.936508333339589,
      "v": 100
    },
    {
      "midi": 38,
      "hit": false,
      "t": 119047.62500000105,
      "d": 412.69843333333847,
      "v": 110
    },
    {
      "midi": 50,
      "hit": false,
      "t": 119047.62500000105,
      "d": 79.36508333333768,
      "v": 100
    },
    {
      "midi": 57,
      "hit": false,
      "t": 119047.62500000105,
      "d": 79.36508333333768,
      "v": 100
    },
    {
      "midi": 40,
      "hit": false,
      "t": 119047.62500000125,
      "d": 7.936508333339589,
      "v": 127
    },
    {
      "midi": 42,
      "hit": false,
      "t": 119047.62500000125,
      "d": 7.936508333339589,
      "v": 100
    },
    {
      "midi": 69,
      "hit": false,
      "t": 119523.81550000008,
      "d": 436.50795833332813,
      "v": 112
    },
    {
      "midi": 38,
      "hit": false,
      "t": 119523.81550000106,
      "d": 412.69843333333847,
      "v": 110
    },
    {
      "midi": 50,
      "hit": false,
      "t": 119523.81550000106,
      "d": 79.36508333333768,
      "v": 100
    },
    {
      "midi": 57,
      "hit": false,
      "t": 119523.81550000106,
      "d": 79.36508333333768,
      "v": 100
    },
    {
      "midi": 42,
      "hit": false,
      "t": 119523.81550000126,
      "d": 7.936508333339589,
      "v": 100
    },
    {
      "midi": 69,
      "hit": false,
      "t": 120000.00600000008,
      "d": 952.380999999994,
      "v": 112
    },
    {
      "midi": 38,
      "hit": false,
      "t": 120000.00600000107,
      "d": 412.69843333333847,
      "v": 110
    },
    {
      "midi": 50,
      "hit": false,
      "t": 120000.00600000107,
      "d": 79.36508333333768,
      "v": 100
    },
    {
      "midi": 57,
      "hit": false,
      "t": 120000.00600000107,
      "d": 79.36508333333768,
      "v": 100
    },
    {
      "midi": 2,
      "hit": false,
      "t": 120000.00600000127,
      "d": 7.936508333339589,
      "v": 120
    },
    {
      "midi": 42,
      "hit": false,
      "t": 120000.00600000127,
      "d": 7.936508333339589,
      "v": 115
    },
    {
      "midi": 38,
      "hit": false,
      "t": 120476.19650000108,
      "d": 412.69843333333847,
      "v": 110
    },
    {
      "midi": 50,
      "hit": false,
      "t": 120476.19650000108,
      "d": 79.36508333333768,
      "v": 100
    },
    {
      "midi": 57,
      "hit": false,
      "t": 120476.19650000108,
      "d": 79.36508333333768,
      "v": 100
    },
    {
      "midi": 42,
      "hit": false,
      "t": 120476.19650000129,
      "d": 7.936508333339589,
      "v": 100
    },
    {
      "midi": 66,
      "hit": false,
      "t": 120952.38700000008,
      "d": 396.82541666667385,
      "v": 112
    },
    {
      "midi": 38,
      "hit": false,
      "t": 120952.3870000011,
      "d": 412.69843333333847,
      "v": 110
    },
    {
      "midi": 50,
      "hit": false,
      "t": 120952.3870000011,
      "d": 79.36508333333768,
      "v": 100
    },
    {
      "midi": 57,
      "hit": false,
      "t": 120952.3870000011,
      "d": 79.36508333333768,
      "v": 100
    },
    {
      "midi": 40,
      "hit": false,
      "t": 120952.3870000013,
      "d": 7.936508333339589,
      "v": 127
    },
    {
      "midi": 42,
      "hit": false,
      "t": 120952.3870000013,
      "d": 7.936508333339589,
      "v": 100
    },
    {
      "midi": 66,
      "hit": false,
      "t": 121428.57750000009,
      "d": 396.82541666667385,
      "v": 112
    },
    {
      "midi": 38,
      "hit": false,
      "t": 121428.5775000011,
      "d": 412.69843333333847,
      "v": 110
    },
    {
      "midi": 50,
      "hit": false,
      "t": 121428.5775000011,
      "d": 79.36508333333768,
      "v": 100
    },
    {
      "midi": 57,
      "hit": false,
      "t": 121428.5775000011,
      "d": 79.36508333333768,
      "v": 100
    },
    {
      "midi": 42,
      "hit": false,
      "t": 121428.57750000131,
      "d": 7.936508333339589,
      "v": 100
    },
    {
      "midi": 57,
      "hit": false,
      "t": 121888.89498333338,
      "d": 2301.5874166666617,
      "v": 110
    },
    {
      "midi": 64,
      "hit": false,
      "t": 121888.89498333338,
      "d": 2301.5874166666617,
      "v": 110
    },
    {
      "midi": 61,
      "hit": false,
      "t": 121888.89498333338,
      "d": 2301.5874166666617,
      "v": 110
    },
    {
      "midi": 59,
      "hit": false,
      "t": 121888.89498333338,
      "d": 2301.5874166666617,
      "v": 110
    },
    {
      "midi": 69,
      "hit": false,
      "t": 121904.7680000001,
      "d": 436.50795833332813,
      "v": 112
    },
    {
      "midi": 33,
      "hit": false,
      "t": 121904.76800000112,
      "d": 412.69843333333847,
      "v": 115
    },
    {
      "midi": 45,
      "hit": false,
      "t": 121904.76800000112,
      "d": 436.50795833332813,
      "v": 115
    },
    {
      "midi": 52,
      "hit": false,
      "t": 121904.76800000112,
      "d": 436.50795833332813,
      "v": 115
    },
    {
      "midi": 2,
      "hit": false,
      "t": 121904.76800000132,
      "d": 7.936508333339589,
      "v": 120
    },
    {
      "midi": 42,
      "hit": false,
      "t": 121904.76800000132,
      "d": 7.936508333339589,
      "v": 115
    },
    {
      "midi": 69,
      "hit": false,
      "t": 122380.9585000001,
      "d": 436.50795833332813,
      "v": 112
    },
    {
      "midi": 45,
      "hit": false,
      "t": 122380.95850000111,
      "d": 79.36508333333768,
      "v": 100
    },
    {
      "midi": 52,
      "hit": false,
      "t": 122380.95850000111,
      "d": 79.36508333333768,
      "v": 100
    },
    {
      "midi": 33,
      "hit": false,
      "t": 122380.95850000113,
      "d": 412.69843333333847,
      "v": 110
    },
    {
      "midi": 42,
      "hit": false,
      "t": 122380.95850000133,
      "d": 7.936508333339589,
      "v": 100
    },
    {
      "midi": 69,
      "hit": false,
      "t": 122857.14900000009,
      "d": 436.50795833332813,
      "v": 112
    },
    {
      "midi": 45,
      "hit": false,
      "t": 122857.14900000113,
      "d": 79.36508333333768,
      "v": 100
    },
    {
      "midi": 52,
      "hit": false,
      "t": 122857.14900000113,
      "d": 79.36508333333768,
      "v": 100
    },
    {
      "midi": 33,
      "hit": false,
      "t": 122857.14900000114,
      "d": 412.69843333333847,
      "v": 110
    },
    {
      "midi": 40,
      "hit": false,
      "t": 122857.14900000134,
      "d": 7.936508333339589,
      "v": 127
    },
    {
      "midi": 42,
      "hit": false,
      "t": 122857.14900000134,
      "d": 7.936508333339589,
      "v": 100
    },
    {
      "midi": 69,
      "hit": false,
      "t": 123333.33950000009,
      "d": 436.50795833332813,
      "v": 112
    },
    {
      "midi": 45,
      "hit": false,
      "t": 123333.33950000114,
      "d": 79.36508333333768,
      "v": 100
    },
    {
      "midi": 52,
      "hit": false,
      "t": 123333.33950000114,
      "d": 79.36508333333768,
      "v": 100
    },
    {
      "midi": 33,
      "hit": false,
      "t": 123333.33950000115,
      "d": 412.69843333333847,
      "v": 110
    },
    {
      "midi": 42,
      "hit": false,
      "t": 123333.33950000136,
      "d": 7.936508333339589,
      "v": 100
    },
    {
      "midi": 69,
      "hit": false,
      "t": 123809.53000000009,
      "d": 436.50795833332813,
      "v": 112
    },
    {
      "midi": 45,
      "hit": false,
      "t": 123809.53000000115,
      "d": 79.36508333333768,
      "v": 100
    },
    {
      "midi": 52,
      "hit": false,
      "t": 123809.53000000115,
      "d": 79.36508333333768,
      "v": 100
    },
    {
      "midi": 33,
      "hit": false,
      "t": 123809.53000000116,
      "d": 412.69843333333847,
      "v": 110
    },
    {
      "midi": 2,
      "hit": false,
      "t": 123809.53000000137,
      "d": 7.936508333339589,
      "v": 120
    },
    {
      "midi": 42,
      "hit": false,
      "t": 123809.53000000137,
      "d": 7.936508333339589,
      "v": 115
    },
    {
      "midi": 61,
      "hit": false,
      "t": 124285.72050000004,
      "d": 436.50795833332813,
      "v": 110
    },
    {
      "midi": 64,
      "hit": false,
      "t": 124285.72050000004,
      "d": 436.50795833332813,
      "v": 110
    },
    {
      "midi": 69,
      "hit": false,
      "t": 124285.72050000004,
      "d": 436.50795833332813,
      "v": 110
    },
    {
      "midi": 69,
      "hit": false,
      "t": 124285.72050000008,
      "d": 436.50795833332813,
      "v": 112
    },
    {
      "midi": 45,
      "hit": false,
      "t": 124285.72050000116,
      "d": 79.36508333333768,
      "v": 100
    },
    {
      "midi": 52,
      "hit": false,
      "t": 124285.72050000116,
      "d": 79.36508333333768,
      "v": 100
    },
    {
      "midi": 33,
      "hit": false,
      "t": 124285.72050000117,
      "d": 412.69843333333847,
      "v": 110
    },
    {
      "midi": 42,
      "hit": false,
      "t": 124285.72050000138,
      "d": 7.936508333339589,
      "v": 100
    },
    {
      "midi": 57,
      "hit": false,
      "t": 124761.91100000004,
      "d": 436.50795833332813,
      "v": 117
    },
    {
      "midi": 67,
      "hit": false,
      "t": 124761.91100000008,
      "d": 952.3810000000085,
      "v": 112
    },
    {
      "midi": 45,
      "hit": false,
      "t": 124761.91100000117,
      "d": 79.36508333333768,
      "v": 100
    },
    {
      "midi": 52,
      "hit": false,
      "t": 124761.91100000117,
      "d": 79.36508333333768,
      "v": 100
    },
    {
      "midi": 33,
      "hit": false,
      "t": 124761.91100000119,
      "d": 412.69843333333847,
      "v": 110
    },
    {
      "midi": 40,
      "hit": false,
      "t": 124761.91100000139,
      "d": 7.936508333339589,
      "v": 127
    },
    {
      "midi": 42,
      "hit": false,
      "t": 124761.91100000139,
      "d": 7.936508333339589,
      "v": 100
    },
    {
      "midi": 61,
      "hit": false,
      "t": 125238.10150000003,
      "d": 436.50795833332813,
      "v": 117
    },
    {
      "midi": 45,
      "hit": false,
      "t": 125238.10150000118,
      "d": 79.36508333333768,
      "v": 100
    },
    {
      "midi": 52,
      "hit": false,
      "t": 125238.10150000118,
      "d": 79.36508333333768,
      "v": 100
    },
    {
      "midi": 33,
      "hit": false,
      "t": 125238.1015000012,
      "d": 412.69843333333847,
      "v": 110
    },
    {
      "midi": 42,
      "hit": false,
      "t": 125238.1015000014,
      "d": 7.936508333339589,
      "v": 100
    },
    {
      "midi": 66,
      "hit": false,
      "t": 125674.60945833342,
      "d": 952.3810000000085,
      "v": 112
    },
    {
      "midi": 57,
      "hit": false,
      "t": 125698.41898333337,
      "d": 1349.2064166666678,
      "v": 117
    },
    {
      "midi": 62,
      "hit": false,
      "t": 125698.41898333337,
      "d": 1349.2064166666678,
      "v": 117
    },
    {
      "midi": 66,
      "hit": false,
      "t": 125698.41898333337,
      "d": 1349.2064166666678,
      "v": 117
    },
    {
      "midi": 47,
      "hit": false,
      "t": 125714.2920000012,
      "d": 436.50795833332813,
      "v": 115
    },
    {
      "midi": 54,
      "hit": false,
      "t": 125714.2920000012,
      "d": 436.50795833332813,
      "v": 115
    },
    {
      "midi": 35,
      "hit": false,
      "t": 125714.29200000121,
      "d": 412.69843333333847,
      "v": 115
    },
    {
      "midi": 2,
      "hit": false,
      "t": 125714.29200000141,
      "d": 7.936508333339589,
      "v": 120
    },
    {
      "midi": 42,
      "hit": false,
      "t": 125714.29200000141,
      "d": 7.936508333339589,
      "v": 115
    },
    {
      "midi": 47,
      "hit": false,
      "t": 126190.48250000119,
      "d": 79.36508333333768,
      "v": 100
    },
    {
      "midi": 54,
      "hit": false,
      "t": 126190.48250000119,
      "d": 79.36508333333768,
      "v": 100
    },
    {
      "midi": 35,
      "hit": false,
      "t": 126190.48250000122,
      "d": 412.69843333333847,
      "v": 110
    },
    {
      "midi": 42,
      "hit": false,
      "t": 126190.48250000142,
      "d": 7.936508333339589,
      "v": 100
    },
    {
      "midi": 47,
      "hit": false,
      "t": 126666.6730000012,
      "d": 79.36508333333768,
      "v": 100
    },
    {
      "midi": 54,
      "hit": false,
      "t": 126666.6730000012,
      "d": 79.36508333333768,
      "v": 100
    },
    {
      "midi": 35,
      "hit": false,
      "t": 126666.67300000123,
      "d": 412.69843333333847,
      "v": 110
    },
    {
      "midi": 40,
      "hit": false,
      "t": 126666.67300000144,
      "d": 7.936508333339589,
      "v": 127
    },
    {
      "midi": 42,
      "hit": false,
      "t": 126666.67300000144,
      "d": 7.936508333339589,
      "v": 100
    },
    {
      "midi": 57,
      "hit": false,
      "t": 127126.99048333337,
      "d": 873.0159166666708,
      "v": 117
    },
    {
      "midi": 61,
      "hit": false,
      "t": 127126.99048333337,
      "d": 873.0159166666708,
      "v": 117
    },
    {
      "midi": 64,
      "hit": false,
      "t": 127126.99048333337,
      "d": 873.0159166666708,
      "v": 117
    },
    {
      "midi": 54,
      "hit": false,
      "t": 127142.86350000121,
      "d": 436.50795833332813,
      "v": 115
    },
    {
      "midi": 47,
      "hit": false,
      "t": 127142.86350000121,
      "d": 436.50795833332813,
      "v": 115
    },
    {
      "midi": 35,
      "hit": false,
      "t": 127142.86350000124,
      "d": 412.69843333333847,
      "v": 110
    },
    {
      "midi": 42,
      "hit": false,
      "t": 127142.86350000145,
      "d": 7.936508333339589,
      "v": 100
    },
    {
      "midi": 47,
      "hit": false,
      "t": 127619.05400000121,
      "d": 79.36508333333768,
      "v": 100
    },
    {
      "midi": 54,
      "hit": false,
      "t": 127619.05400000121,
      "d": 79.36508333333768,
      "v": 100
    },
    {
      "midi": 35,
      "hit": false,
      "t": 127619.05400000126,
      "d": 412.69843333333847,
      "v": 110
    },
    {
      "midi": 2,
      "hit": false,
      "t": 127619.05400000146,
      "d": 7.936508333339589,
      "v": 120
    },
    {
      "midi": 42,
      "hit": false,
      "t": 127619.05400000146,
      "d": 7.936508333339589,
      "v": 115
    },
    {
      "midi": 47,
      "hit": false,
      "t": 127857.14925000121,
      "d": 79.36508333333768,
      "v": 100
    },
    {
      "midi": 54,
      "hit": false,
      "t": 127857.14925000121,
      "d": 79.36508333333768,
      "v": 100
    },
    {
      "midi": 57,
      "hit": false,
      "t": 128079.37148333338,
      "d": 1349.2064166666678,
      "v": 117
    },
    {
      "midi": 62,
      "hit": false,
      "t": 128079.37148333338,
      "d": 1349.2064166666678,
      "v": 117
    },
    {
      "midi": 66,
      "hit": false,
      "t": 128079.37148333338,
      "d": 1349.2064166666678,
      "v": 117
    },
    {
      "midi": 47,
      "hit": false,
      "t": 128095.24450000121,
      "d": 79.36508333333768,
      "v": 100
    },
    {
      "midi": 54,
      "hit": false,
      "t": 128095.24450000121,
      "d": 79.36508333333768,
      "v": 100
    },
    {
      "midi": 35,
      "hit": false,
      "t": 128095.24450000127,
      "d": 412.69843333333847,
      "v": 110
    },
    {
      "midi": 2,
      "hit": false,
      "t": 128095.24450000147,
      "d": 7.936508333339589,
      "v": 120
    },
    {
      "midi": 42,
      "hit": false,
      "t": 128095.24450000147,
      "d": 7.936508333339589,
      "v": 100
    },
    {
      "midi": 66,
      "hit": false,
      "t": 128571.4350000001,
      "d": 436.50795833332813,
      "v": 112
    },
    {
      "midi": 47,
      "hit": false,
      "t": 128571.43500000122,
      "d": 79.36508333333768,
      "v": 100
    },
    {
      "midi": 54,
      "hit": false,
      "t": 128571.43500000122,
      "d": 79.36508333333768,
      "v": 100
    },
    {
      "midi": 35,
      "hit": false,
      "t": 128571.43500000128,
      "d": 412.69843333333847,
      "v": 110
    },
    {
      "midi": 40,
      "hit": false,
      "t": 128571.43500000148,
      "d": 7.936508333339589,
      "v": 127
    },
    {
      "midi": 42,
      "hit": false,
      "t": 128571.43500000148,
      "d": 7.936508333339589,
      "v": 100
    },
    {
      "midi": 69,
      "hit": false,
      "t": 129047.6255000001,
      "d": 436.50795833332813,
      "v": 112
    },
    {
      "midi": 47,
      "hit": false,
      "t": 129047.62550000123,
      "d": 79.36508333333768,
      "v": 100
    },
    {
      "midi": 54,
      "hit": false,
      "t": 129047.62550000123,
      "d": 79.36508333333768,
      "v": 100
    },
    {
      "midi": 35,
      "hit": false,
      "t": 129047.62550000129,
      "d": 412.69843333333847,
      "v": 110
    },
    {
      "midi": 46,
      "hit": false,
      "t": 129047.6255000015,
      "d": 7.936508333339589,
      "v": 100
    },
    {
      "midi": 47,
      "hit": false,
      "t": 129285.72075000123,
      "d": 79.36508333333768,
      "v": 100
    },
    {
      "midi": 54,
      "hit": false,
      "t": 129285.72075000123,
      "d": 79.36508333333768,
      "v": 100
    },
    {
      "midi": 55,
      "hit": false,
      "t": 129507.94298333339,
      "d": 2301.5874166666617,
      "v": 110
    },
    {
      "midi": 57,
      "hit": false,
      "t": 129507.94298333339,
      "d": 2301.5874166666617,
      "v": 110
    },
    {
      "midi": 62,
      "hit": false,
      "t": 129507.94298333339,
      "d": 2301.5874166666617,
      "v": 110
    },
    {
      "midi": 71,
      "hit": false,
      "t": 129523.8160000001,
      "d": 436.50795833332813,
      "v": 112
    },
    {
      "midi": 43,
      "hit": false,
      "t": 129523.81600000123,
      "d": 436.50795833332813,
      "v": 115
    },
    {
      "midi": 50,
      "hit": false,
      "t": 129523.81600000123,
      "d": 436.50795833332813,
      "v": 115
    },
    {
      "midi": 31,
      "hit": false,
      "t": 129523.8160000013,
      "d": 412.69843333333847,
      "v": 115
    },
    {
      "midi": 2,
      "hit": false,
      "t": 129523.8160000015,
      "d": 7.936508333339589,
      "v": 120
    },
    {
      "midi": 57,
      "hit": false,
      "t": 129523.8160000015,
      "d": 7.936508333339589,
      "v": 100
    },
    {
      "midi": 71,
      "hit": false,
      "t": 130000.00650000009,
      "d": 436.50795833332813,
      "v": 112
    },
    {
      "midi": 43,
      "hit": false,
      "t": 130000.00650000123,
      "d": 79.36508333333768,
      "v": 100
    },
    {
      "midi": 50,
      "hit": false,
      "t": 130000.00650000123,
      "d": 79.36508333333768,
      "v": 100
    },
    {
      "midi": 31,
      "hit": false,
      "t": 130000.00650000131,
      "d": 412.69843333333847,
      "v": 110
    },
    {
      "midi": 42,
      "hit": false,
      "t": 130000.00650000152,
      "d": 7.936508333339589,
      "v": 100
    },
    {
      "midi": 71,
      "hit": false,
      "t": 130476.19700000009,
      "d": 436.50795833332813,
      "v": 112
    },
    {
      "midi": 43,
      "hit": false,
      "t": 130476.19700000124,
      "d": 79.36508333333768,
      "v": 100
    },
    {
      "midi": 50,
      "hit": false,
      "t": 130476.19700000124,
      "d": 79.36508333333768,
      "v": 100
    },
    {
      "midi": 31,
      "hit": false,
      "t": 130476.19700000132,
      "d": 412.69843333333847,
      "v": 110
    },
    {
      "midi": 40,
      "hit": false,
      "t": 130476.19700000153,
      "d": 7.936508333339589,
      "v": 127
    },
    {
      "midi": 42,
      "hit": false,
      "t": 130476.19700000153,
      "d": 7.936508333339589,
      "v": 100
    },
    {
      "midi": 71,
      "hit": false,
      "t": 130952.38750000008,
      "d": 436.5079583333427,
      "v": 112
    },
    {
      "midi": 43,
      "hit": false,
      "t": 130952.38750000125,
      "d": 79.36508333333768,
      "v": 100
    },
    {
      "midi": 50,
      "hit": false,
      "t": 130952.38750000125,
      "d": 79.36508333333768,
      "v": 100
    },
    {
      "midi": 31,
      "hit": false,
      "t": 130952.38750000134,
      "d": 412.6984333333239,
      "v": 110
    },
    {
      "midi": 42,
      "hit": false,
      "t": 130952.38750000154,
      "d": 7.936508333339589,
      "v": 100
    },
    {
      "midi": 71,
      "hit": false,
      "t": 131428.5780000001,
      "d": 436.50795833332813,
      "v": 112
    },
    {
      "midi": 43,
      "hit": false,
      "t": 131428.57800000126,
      "d": 79.36508333333768,
      "v": 100
    },
    {
      "midi": 50,
      "hit": false,
      "t": 131428.57800000126,
      "d": 79.36508333333768,
      "v": 100
    },
    {
      "midi": 31,
      "hit": false,
      "t": 131428.57800000132,
      "d": 412.69843333333847,
      "v": 110
    },
    {
      "midi": 2,
      "hit": false,
      "t": 131428.57800000155,
      "d": 7.936508333339589,
      "v": 120
    },
    {
      "midi": 42,
      "hit": false,
      "t": 131428.57800000155,
      "d": 7.936508333339589,
      "v": 100
    },
    {
      "midi": 55,
      "hit": false,
      "t": 131904.76850000003,
      "d": 436.50795833332813,
      "v": 117
    },
    {
      "midi": 74,
      "hit": false,
      "t": 131904.7685000001,
      "d": 436.50795833332813,
      "v": 112
    },
    {
      "midi": 43,
      "hit": false,
      "t": 131904.76850000126,
      "d": 79.36508333333768,
      "v": 100
    },
    {
      "midi": 50,
      "hit": false,
      "t": 131904.76850000126,
      "d": 79.36508333333768,
      "v": 100
    },
    {
      "midi": 31,
      "hit": false,
      "t": 131904.76850000132,
      "d": 412.69843333333847,
      "v": 110
    },
    {
      "midi": 42,
      "hit": false,
      "t": 131904.76850000155,
      "d": 7.936508333339589,
      "v": 100
    },
    {
      "midi": 57,
      "hit": false,
      "t": 132380.95900000003,
      "d": 436.50795833332813,
      "v": 117
    },
    {
      "midi": 74,
      "hit": false,
      "t": 132380.9590000001,
      "d": 436.50795833332813,
      "v": 112
    },
    {
      "midi": 43,
      "hit": false,
      "t": 132380.95900000125,
      "d": 79.36508333333768,
      "v": 100
    },
    {
      "midi": 50,
      "hit": false,
      "t": 132380.95900000125,
      "d": 79.36508333333768,
      "v": 100
    },
    {
      "midi": 31,
      "hit": false,
      "t": 132380.9590000013,
      "d": 412.69843333333847,
      "v": 110
    },
    {
      "midi": 40,
      "hit": false,
      "t": 132380.95900000155,
      "d": 7.936508333339589,
      "v": 127
    },
    {
      "midi": 42,
      "hit": false,
      "t": 132380.95900000155,
      "d": 7.936508333339589,
      "v": 100
    },
    {
      "midi": 62,
      "hit": false,
      "t": 132857.14950000003,
      "d": 436.50795833332813,
      "v": 117
    },
    {
      "midi": 76,
      "hit": false,
      "t": 132857.1495000001,
      "d": 436.50795833332813,
      "v": 112
    },
    {
      "midi": 43,
      "hit": false,
      "t": 132857.14950000125,
      "d": 79.36508333333768,
      "v": 100
    },
    {
      "midi": 50,
      "hit": false,
      "t": 132857.14950000125,
      "d": 79.36508333333768,
      "v": 100
    },
    {
      "midi": 31,
      "hit": false,
      "t": 132857.1495000013,
      "d": 412.69843333333847,
      "v": 110
    },
    {
      "midi": 42,
      "hit": false,
      "t": 132857.14950000154,
      "d": 7.936508333339589,
      "v": 100
    },
    {
      "midi": 57,
      "hit": false,
      "t": 133317.46698333335,
      "d": 1825.3969166666793,
      "v": 110
    },
    {
      "midi": 62,
      "hit": false,
      "t": 133317.46698333335,
      "d": 1825.3969166666793,
      "v": 110
    },
    {
      "midi": 66,
      "hit": false,
      "t": 133317.46698333335,
      "d": 1825.3969166666793,
      "v": 110
    },
    {
      "midi": 74,
      "hit": false,
      "t": 133333.34000000008,
      "d": 1269.8413333333447,
      "v": 112
    },
    {
      "midi": 50,
      "hit": false,
      "t": 133333.34000000125,
      "d": 436.50795833332813,
      "v": 115
    },
    {
      "midi": 57,
      "hit": false,
      "t": 133333.34000000125,
      "d": 436.50795833332813,
      "v": 115
    },
    {
      "midi": 38,
      "hit": false,
      "t": 133333.3400000013,
      "d": 412.69843333333847,
      "v": 115
    },
    {
      "midi": 2,
      "hit": false,
      "t": 133333.34000000154,
      "d": 7.936508333339589,
      "v": 120
    },
    {
      "midi": 42,
      "hit": false,
      "t": 133333.34000000154,
      "d": 7.936508333339589,
      "v": 115
    },
    {
      "midi": 50,
      "hit": false,
      "t": 133809.53050000124,
      "d": 79.36508333333768,
      "v": 100
    },
    {
      "midi": 57,
      "hit": false,
      "t": 133809.53050000124,
      "d": 79.36508333333768,
      "v": 100
    },
    {
      "midi": 38,
      "hit": false,
      "t": 133809.5305000013,
      "d": 412.69843333333847,
      "v": 110
    },
    {
      "midi": 42,
      "hit": false,
      "t": 133809.53050000154,
      "d": 7.936508333339589,
      "v": 100
    },
    {
      "midi": 50,
      "hit": false,
      "t": 134285.72100000124,
      "d": 873.0159166666563,
      "v": 100
    },
    {
      "midi": 57,
      "hit": false,
      "t": 134285.72100000124,
      "d": 873.0159166666563,
      "v": 100
    },
    {
      "midi": 38,
      "hit": false,
      "t": 134285.7210000013,
      "d": 412.69843333333847,
      "v": 110
    },
    {
      "midi": 40,
      "hit": false,
      "t": 134285.72100000153,
      "d": 7.936508333339589,
      "v": 127
    },
    {
      "midi": 42,
      "hit": false,
      "t": 134285.72100000153,
      "d": 7.936508333339589,
      "v": 100
    },
    {
      "midi": 69,
      "hit": false,
      "t": 134761.9115000001,
      "d": 436.50795833332813,
      "v": 112
    },
    {
      "midi": 38,
      "hit": false,
      "t": 134761.9115000013,
      "d": 412.69843333333847,
      "v": 110
    },
    {
      "midi": 42,
      "hit": false,
      "t": 134761.91150000153,
      "d": 7.936508333339589,
      "v": 100
    },
    {
      "midi": 62,
      "hit": false,
      "t": 135222.22898333336,
      "d": 1825.3969166666793,
      "v": 110
    },
    {
      "midi": 66,
      "hit": false,
      "t": 135222.22898333336,
      "d": 1825.3969166666793,
      "v": 110
    },
    {
      "midi": 69,
      "hit": false,
      "t": 135222.22898333336,
      "d": 1825.3969166666793,
      "v": 110
    },
    {
      "midi": 71,
      "hit": false,
      "t": 135238.1020000001,
      "d": 634.9206666666723,
      "v": 112
    },
    {
      "midi": 47,
      "hit": false,
      "t": 135238.10200000124,
      "d": 436.50795833332813,
      "v": 115
    },
    {
      "midi": 54,
      "hit": false,
      "t": 135238.10200000124,
      "d": 436.50795833332813,
      "v": 115
    },
    {
      "midi": 35,
      "hit": false,
      "t": 135238.1020000013,
      "d": 412.69843333333847,
      "v": 110
    },
    {
      "midi": 2,
      "hit": false,
      "t": 135238.10200000153,
      "d": 7.936508333339589,
      "v": 120
    },
    {
      "midi": 42,
      "hit": false,
      "t": 135238.10200000153,
      "d": 7.936508333339589,
      "v": 115
    },
    {
      "midi": 47,
      "hit": false,
      "t": 135714.29250000123,
      "d": 79.36508333333768,
      "v": 100
    },
    {
      "midi": 54,
      "hit": false,
      "t": 135714.29250000123,
      "d": 79.36508333333768,
      "v": 100
    },
    {
      "midi": 35,
      "hit": false,
      "t": 135714.2925000013,
      "d": 412.69843333333847,
      "v": 110
    },
    {
      "midi": 42,
      "hit": false,
      "t": 135714.29250000152,
      "d": 7.936508333339589,
      "v": 100
    },
    {
      "midi": 71,
      "hit": false,
      "t": 136190.4830000001,
      "d": 436.50795833332813,
      "v": 112
    },
    {
      "midi": 47,
      "hit": false,
      "t": 136190.48300000123,
      "d": 634.9206666666723,
      "v": 100
    },
    {
      "midi": 54,
      "hit": false,
      "t": 136190.48300000123,
      "d": 634.9206666666723,
      "v": 100
    },
    {
      "midi": 35,
      "hit": false,
      "t": 136190.4830000013,
      "d": 412.69843333333847,
      "v": 110
    },
    {
      "midi": 40,
      "hit": false,
      "t": 136190.48300000152,
      "d": 7.936508333339589,
      "v": 127
    },
    {
      "midi": 42,
      "hit": false,
      "t": 136190.48300000152,
      "d": 7.936508333339589,
      "v": 100
    },
    {
      "midi": 73,
      "hit": false,
      "t": 136666.6735000001,
      "d": 436.50795833332813,
      "v": 112
    },
    {
      "midi": 35,
      "hit": false,
      "t": 136666.67350000128,
      "d": 412.69843333333847,
      "v": 110
    },
    {
      "midi": 42,
      "hit": false,
      "t": 136666.67350000152,
      "d": 7.936508333339589,
      "v": 100
    },
    {
      "midi": 47,
      "hit": false,
      "t": 136904.76875000124,
      "d": 79.36508333333768,
      "v": 100
    },
    {
      "midi": 54,
      "hit": false,
      "t": 136904.76875000124,
      "d": 79.36508333333768,
      "v": 100
    },
    {
      "midi": 59,
      "hit": false,
      "t": 137126.99098333338,
      "d": 1825.3969166666793,
      "v": 110
    },
    {
      "midi": 62,
      "hit": false,
      "t": 137126.99098333338,
      "d": 1825.3969166666793,
      "v": 110
    },
    {
      "midi": 67,
      "hit": false,
      "t": 137126.99098333338,
      "d": 1825.3969166666793,
      "v": 110
    },
    {
      "midi": 74,
      "hit": false,
      "t": 137142.8640000001,
      "d": 873.0159166666563,
      "v": 112
    },
    {
      "midi": 43,
      "hit": false,
      "t": 137142.86400000125,
      "d": 436.50795833332813,
      "v": 115
    },
    {
      "midi": 50,
      "hit": false,
      "t": 137142.86400000125,
      "d": 436.50795833332813,
      "v": 115
    },
    {
      "midi": 31,
      "hit": false,
      "t": 137142.86400000128,
      "d": 412.69843333333847,
      "v": 115
    },
    {
      "midi": 2,
      "hit": false,
      "t": 137142.86400000151,
      "d": 7.936508333339589,
      "v": 120
    },
    {
      "midi": 42,
      "hit": false,
      "t": 137142.86400000151,
      "d": 7.936508333339589,
      "v": 115
    },
    {
      "midi": 43,
      "hit": false,
      "t": 137619.05450000125,
      "d": 79.36508333333768,
      "v": 100
    },
    {
      "midi": 50,
      "hit": false,
      "t": 137619.05450000125,
      "d": 79.36508333333768,
      "v": 100
    },
    {
      "midi": 31,
      "hit": false,
      "t": 137619.05450000128,
      "d": 412.69843333333847,
      "v": 110
    },
    {
      "midi": 42,
      "hit": false,
      "t": 137619.0545000015,
      "d": 7.936508333339589,
      "v": 100
    },
    {
      "midi": 73,
      "hit": false,
      "t": 138095.24500000008,
      "d": 873.0159166666563,
      "v": 112
    },
    {
      "midi": 43,
      "hit": false,
      "t": 138095.24500000125,
      "d": 436.50795833332813,
      "v": 115
    },
    {
      "midi": 50,
      "hit": false,
      "t": 138095.24500000125,
      "d": 436.50795833332813,
      "v": 115
    },
    {
      "midi": 31,
      "hit": false,
      "t": 138095.24500000128,
      "d": 412.69843333333847,
      "v": 110
    },
    {
      "midi": 40,
      "hit": false,
      "t": 138095.2450000015,
      "d": 7.936508333339589,
      "v": 127
    },
    {
      "midi": 42,
      "hit": false,
      "t": 138095.2450000015,
      "d": 7.936508333339589,
      "v": 100
    },
    {
      "midi": 43,
      "hit": false,
      "t": 138571.43550000124,
      "d": 198.4127083333442,
      "v": 115
    },
    {
      "midi": 50,
      "hit": false,
      "t": 138571.43550000124,
      "d": 198.4127083333442,
      "v": 115
    },
    {
      "midi": 31,
      "hit": false,
      "t": 138571.43550000127,
      "d": 412.69843333333847,
      "v": 110
    },
    {
      "midi": 42,
      "hit": false,
      "t": 138571.4355000015,
      "d": 7.936508333339589,
      "v": 100
    },
    {
      "midi": 50,
      "hit": false,
      "t": 138809.53075000126,
      "d": 198.4127083333442,
      "v": 115
    },
    {
      "midi": 43,
      "hit": false,
      "t": 138809.53075000126,
      "d": 198.4127083333442,
      "v": 115
    },
    {
      "midi": 59,
      "hit": false,
      "t": 139031.7529833334,
      "d": 1825.3969166666793,
      "v": 110
    },
    {
      "midi": 71,
      "hit": false,
      "t": 139031.7529833334,
      "d": 1825.3969166666793,
      "v": 110
    },
    {
      "midi": 68,
      "hit": false,
      "t": 139031.7529833334,
      "d": 1825.3969166666793,
      "v": 110
    },
    {
      "midi": 64,
      "hit": false,
      "t": 139031.7529833334,
      "d": 1825.3969166666793,
      "v": 110
    },
    {
      "midi": 74,
      "hit": false,
      "t": 139047.62600000008,
      "d": 873.0159166666563,
      "v": 112
    },
    {
      "midi": 32,
      "hit": false,
      "t": 139047.62600000127,
      "d": 412.69843333333847,
      "v": 110
    },
    {
      "midi": 44,
      "hit": false,
      "t": 139047.62600000127,
      "d": 436.50795833332813,
      "v": 115
    },
    {
      "midi": 52,
      "hit": false,
      "t": 139047.62600000127,
      "d": 436.50795833332813,
      "v": 115
    },
    {
      "midi": 2,
      "hit": false,
      "t": 139047.6260000015,
      "d": 7.936508333339589,
      "v": 120
    },
    {
      "midi": 42,
      "hit": false,
      "t": 139047.6260000015,
      "d": 7.936508333339589,
      "v": 115
    },
    {
      "midi": 32,
      "hit": false,
      "t": 139523.81650000127,
      "d": 412.69843333333847,
      "v": 110
    },
    {
      "midi": 44,
      "hit": false,
      "t": 139523.81650000127,
      "d": 79.36508333333768,
      "v": 100
    },
    {
      "midi": 52,
      "hit": false,
      "t": 139523.81650000127,
      "d": 79.36508333333768,
      "v": 100
    },
    {
      "midi": 42,
      "hit": false,
      "t": 139523.8165000015,
      "d": 7.936508333339589,
      "v": 100
    },
    {
      "midi": 78,
      "hit": false,
      "t": 140000.00700000007,
      "d": 436.50795833332813,
      "v": 112
    },
    {
      "midi": 32,
      "hit": false,
      "t": 140000.00700000126,
      "d": 412.69843333333847,
      "v": 110
    },
    {
      "midi": 44,
      "hit": false,
      "t": 140000.00700000126,
      "d": 436.50795833332813,
      "v": 115
    },
    {
      "midi": 52,
      "hit": false,
      "t": 140000.00700000126,
      "d": 436.50795833332813,
      "v": 115
    },
    {
      "midi": 40,
      "hit": false,
      "t": 140000.0070000015,
      "d": 7.936508333339589,
      "v": 127
    },
    {
      "midi": 42,
      "hit": false,
      "t": 140000.0070000015,
      "d": 7.936508333339589,
      "v": 100
    },
    {
      "midi": 76,
      "hit": false,
      "t": 140476.19750000007,
      "d": 436.50795833332813,
      "v": 112
    },
    {
      "midi": 32,
      "hit": false,
      "t": 140476.19750000126,
      "d": 412.69843333333847,
      "v": 110
    },
    {
      "midi": 44,
      "hit": false,
      "t": 140476.19750000126,
      "d": 198.4127083333442,
      "v": 115
    },
    {
      "midi": 52,
      "hit": false,
      "t": 140476.19750000126,
      "d": 198.4127083333442,
      "v": 115
    },
    {
      "midi": 42,
      "hit": false,
      "t": 140476.1975000015,
      "d": 7.936508333339589,
      "v": 100
    },
    {
      "midi": 44,
      "hit": false,
      "t": 140714.29275000127,
      "d": 198.4127083333442,
      "v": 115
    },
    {
      "midi": 52,
      "hit": false,
      "t": 140714.29275000127,
      "d": 198.4127083333442,
      "v": 115
    },
    {
      "midi": 57,
      "hit": false,
      "t": 140936.5149833334,
      "d": 873.0159166666563,
      "v": 110
    },
    {
      "midi": 69,
      "hit": false,
      "t": 140936.5149833334,
      "d": 873.0159166666563,
      "v": 110
    },
    {
      "midi": 64,
      "hit": false,
      "t": 140936.5149833334,
      "d": 873.0159166666563,
      "v": 110
    },
    {
      "midi": 61,
      "hit": false,
      "t": 140936.5149833334,
      "d": 873.0159166666563,
      "v": 110
    },
    {
      "midi": 76,
      "hit": false,
      "t": 140952.38800000006,
      "d": 1865.0794583334064,
      "v": 112
    },
    {
      "midi": 33,
      "hit": false,
      "t": 140952.38800000126,
      "d": 412.69843333333847,
      "v": 115
    },
    {
      "midi": 45,
      "hit": false,
      "t": 140952.3880000013,
      "d": 436.50795833332813,
      "v": 115
    },
    {
      "midi": 52,
      "hit": false,
      "t": 140952.3880000013,
      "d": 436.50795833332813,
      "v": 115
    },
    {
      "midi": 2,
      "hit": false,
      "t": 140952.3880000015,
      "d": 7.936508333339589,
      "v": 120
    },
    {
      "midi": 42,
      "hit": false,
      "t": 140952.3880000015,
      "d": 7.936508333339589,
      "v": 115
    },
    {
      "midi": 33,
      "hit": false,
      "t": 141428.57850000125,
      "d": 412.69843333333847,
      "v": 110
    },
    {
      "midi": 45,
      "hit": false,
      "t": 141428.57850000128,
      "d": 79.36508333333768,
      "v": 100
    },
    {
      "midi": 52,
      "hit": false,
      "t": 141428.57850000128,
      "d": 79.36508333333768,
      "v": 100
    },
    {
      "midi": 42,
      "hit": false,
      "t": 141428.5785000015,
      "d": 7.936508333339589,
      "v": 100
    },
    {
      "midi": 57,
      "hit": false,
      "t": 141896.83249166675,
      "d": 436.50795833332813,
      "v": 117
    },
    {
      "midi": 33,
      "hit": false,
      "t": 141904.76900000125,
      "d": 412.69843333333847,
      "v": 110
    },
    {
      "midi": 45,
      "hit": false,
      "t": 141904.76900000128,
      "d": 436.50795833332813,
      "v": 115
    },
    {
      "midi": 52,
      "hit": false,
      "t": 141904.76900000128,
      "d": 436.50795833332813,
      "v": 115
    },
    {
      "midi": 40,
      "hit": false,
      "t": 141904.76900000148,
      "d": 7.936508333339589,
      "v": 127
    },
    {
      "midi": 42,
      "hit": false,
      "t": 141904.76900000148,
      "d": 7.936508333339589,
      "v": 100
    },
    {
      "midi": 61,
      "hit": false,
      "t": 142380.95950000008,
      "d": 436.50795833332813,
      "v": 117
    },
    {
      "midi": 33,
      "hit": false,
      "t": 142380.95950000125,
      "d": 412.69843333333847,
      "v": 110
    },
    {
      "midi": 45,
      "hit": false,
      "t": 142380.95950000128,
      "d": 198.4127083333442,
      "v": 115
    },
    {
      "midi": 52,
      "hit": false,
      "t": 142380.95950000128,
      "d": 198.4127083333442,
      "v": 115
    },
    {
      "midi": 42,
      "hit": false,
      "t": 142380.95950000148,
      "d": 7.936508333339589,
      "v": 100
    },
    {
      "midi": 52,
      "hit": false,
      "t": 142619.0547500013,
      "d": 198.4127083333442,
      "v": 115
    },
    {
      "midi": 45,
      "hit": false,
      "t": 142619.0547500013,
      "d": 198.4127083333442,
      "v": 115
    },
    {
      "midi": 61,
      "hit": false,
      "t": 142841.2769833334,
      "d": 873.0159166666563,
      "v": 110
    },
    {
      "midi": 66,
      "hit": false,
      "t": 142841.2769833334,
      "d": 873.0159166666563,
      "v": 110
    },
    {
      "midi": 70,
      "hit": false,
      "t": 142841.2769833334,
      "d": 873.0159166666563,
      "v": 110
    },
    {
      "midi": 30,
      "hit": false,
      "t": 142857.15000000125,
      "d": 412.69843333333847,
      "v": 110
    },
    {
      "midi": 42,
      "hit": false,
      "t": 142857.1500000013,
      "d": 436.50795833332813,
      "v": 115
    },
    {
      "midi": 49,
      "hit": false,
      "t": 142857.1500000013,
      "d": 436.50795833332813,
      "v": 115
    },
    {
      "midi": 2,
      "hit": false,
      "t": 142857.15000000148,
      "d": 7.936508333339589,
      "v": 120
    },
    {
      "midi": 42,
      "hit": false,
      "t": 142857.15000000148,
      "d": 7.936508333339589,
      "v": 115
    },
    {
      "midi": 66,
      "hit": false,
      "t": 143333.34050000017,
      "d": 436.50795833332813,
      "v": 112
    },
    {
      "midi": 42,
      "hit": false,
      "t": 143333.34050000124,
      "d": 412.69843333333847,
      "v": 110
    },
    {
      "midi": 42,
      "hit": false,
      "t": 143333.3405000013,
      "d": 79.36508333333768,
      "v": 100
    },
    {
      "midi": 49,
      "hit": false,
      "t": 143333.3405000013,
      "d": 79.36508333333768,
      "v": 100
    },
    {
      "midi": 47,
      "hit": false,
      "t": 143333.34050000148,
      "d": 7.936508333339589,
      "v": 127
    },
    {
      "midi": 42,
      "hit": false,
      "t": 143333.34050000148,
      "d": 7.936508333339589,
      "v": 100
    },
    {
      "midi": 61,
      "hit": false,
      "t": 143793.6579833334,
      "d": 873.0159166666563,
      "v": 110
    },
    {
      "midi": 78,
      "hit": false,
      "t": 143809.53100000016,
      "d": 436.50795833332813,
      "v": 112
    },
    {
      "midi": 37,
      "hit": false,
      "t": 143809.53100000124,
      "d": 412.69843333333847,
      "v": 110
    },
    {
      "midi": 42,
      "hit": false,
      "t": 143809.5310000013,
      "d": 873.0159166665981,
      "v": 100
    },
    {
      "midi": 49,
      "hit": false,
      "t": 143809.5310000013,
      "d": 873.0159166665981,
      "v": 100
    },
    {
      "midi": 40,
      "hit": false,
      "t": 143809.53100000147,
      "d": 7.936508333339589,
      "v": 127
    },
    {
      "midi": 42,
      "hit": false,
      "t": 143809.53100000147,
      "d": 7.936508333339589,
      "v": 100
    },
    {
      "midi": 76,
      "hit": false,
      "t": 144285.72150000016,
      "d": 436.50795833332813,
      "v": 112
    },
    {
      "midi": 30,
      "hit": false,
      "t": 144285.72150000124,
      "d": 412.69843333333847,
      "v": 110
    },
    {
      "midi": 43,
      "hit": false,
      "t": 144285.72150000147,
      "d": 7.936508333339589,
      "v": 127
    },
    {
      "midi": 42,
      "hit": false,
      "t": 144285.72150000147,
      "d": 7.936508333339589,
      "v": 100
    },
    {
      "midi": 62,
      "hit": false,
      "t": 144730.1659666667,
      "d": 2777.7779166666733,
      "v": 110
    },
    {
      "midi": 74,
      "hit": false,
      "t": 144730.1659666667,
      "d": 2777.7779166666733,
      "v": 110
    },
    {
      "midi": 71,
      "hit": false,
      "t": 144730.1659666667,
      "d": 2777.7779166666733,
      "v": 110
    },
    {
      "midi": 67,
      "hit": false,
      "t": 144730.1659666667,
      "d": 2777.7779166666733,
      "v": 110
    },
    {
      "midi": 67,
      "hit": false,
      "t": 144761.9120000001,
      "d": 5674.603458333324,
      "v": 115
    },
    {
      "midi": 74,
      "hit": false,
      "t": 144761.91200000016,
      "d": 873.0159166666563,
      "v": 112
    },
    {
      "midi": 55,
      "hit": false,
      "t": 144761.91200000027,
      "d": 119.04762500000652,
      "v": 115
    },
    {
      "midi": 43,
      "hit": false,
      "t": 144761.9120000012,
      "d": 436.50795833332813,
      "v": 115
    },
    {
      "midi": 50,
      "hit": false,
      "t": 144761.9120000012,
      "d": 436.50795833332813,
      "v": 115
    },
    {
      "midi": 31,
      "hit": false,
      "t": 144761.91200000123,
      "d": 412.69843333333847,
      "v": 115
    },
    {
      "midi": 2,
      "hit": false,
      "t": 144761.91200000147,
      "d": 7.936508333339589,
      "v": 120
    },
    {
      "midi": 57,
      "hit": false,
      "t": 144761.91200000147,
      "d": 7.936508333339589,
      "v": 115
    },
    {
      "midi": 62,
      "hit": false,
      "t": 145238.10250000027,
      "d": 436.50795833332813,
      "v": 120
    },
    {
      "midi": 43,
      "hit": false,
      "t": 145238.1025000012,
      "d": 79.36508333333768,
      "v": 100
    },
    {
      "midi": 50,
      "hit": false,
      "t": 145238.1025000012,
      "d": 79.36508333333768,
      "v": 100
    },
    {
      "midi": 31,
      "hit": false,
      "t": 145238.10250000123,
      "d": 412.69843333333847,
      "v": 110
    },
    {
      "midi": 42,
      "hit": false,
      "t": 145238.10250000146,
      "d": 7.936508333339589,
      "v": 100
    },
    {
      "midi": 57,
      "hit": false,
      "t": 145714.29300000027,
      "d": 119.04762500000652,
      "v": 115
    },
    {
      "midi": 43,
      "hit": false,
      "t": 145714.2930000012,
      "d": 79.36508333333768,
      "v": 100
    },
    {
      "midi": 50,
      "hit": false,
      "t": 145714.2930000012,
      "d": 79.36508333333768,
      "v": 100
    },
    {
      "midi": 31,
      "hit": false,
      "t": 145714.29300000123,
      "d": 412.69843333333847,
      "v": 110
    },
    {
      "midi": 40,
      "hit": false,
      "t": 145714.29300000146,
      "d": 7.936508333339589,
      "v": 127
    },
    {
      "midi": 42,
      "hit": false,
      "t": 145714.29300000146,
      "d": 7.936508333339589,
      "v": 100
    },
    {
      "midi": 73,
      "hit": false,
      "t": 146190.48350000015,
      "d": 436.50795833332813,
      "v": 112
    },
    {
      "midi": 55,
      "hit": false,
      "t": 146190.48350000026,
      "d": 119.04762500000652,
      "v": 115
    },
    {
      "midi": 43,
      "hit": false,
      "t": 146190.4835000012,
      "d": 79.36508333333768,
      "v": 100
    },
    {
      "midi": 50,
      "hit": false,
      "t": 146190.4835000012,
      "d": 79.36508333333768,
      "v": 100
    },
    {
      "midi": 31,
      "hit": false,
      "t": 146190.48350000122,
      "d": 412.69843333333847,
      "v": 110
    },
    {
      "midi": 42,
      "hit": false,
      "t": 146190.48350000146,
      "d": 7.936508333339589,
      "v": 100
    },
    {
      "midi": 74,
      "hit": false,
      "t": 146666.67400000014,
      "d": 873.0159166666563,
      "v": 112
    },
    {
      "midi": 62,
      "hit": false,
      "t": 146666.67400000026,
      "d": 436.50795833332813,
      "v": 120
    },
    {
      "midi": 43,
      "hit": false,
      "t": 146666.6740000012,
      "d": 79.36508333333768,
      "v": 100
    },
    {
      "midi": 50,
      "hit": false,
      "t": 146666.6740000012,
      "d": 79.36508333333768,
      "v": 100
    },
    {
      "midi": 31,
      "hit": false,
      "t": 146666.67400000122,
      "d": 412.69843333333847,
      "v": 110
    },
    {
      "midi": 2,
      "hit": false,
      "t": 146666.67400000145,
      "d": 7.936508333339589,
      "v": 120
    },
    {
      "midi": 42,
      "hit": false,
      "t": 146666.67400000145,
      "d": 7.936508333339589,
      "v": 115
    },
    {
      "midi": 57,
      "hit": false,
      "t": 147142.86450000026,
      "d": 119.04762500000652,
      "v": 115
    },
    {
      "midi": 43,
      "hit": false,
      "t": 147142.8645000012,
      "d": 79.36508333333768,
      "v": 100
    },
    {
      "midi": 50,
      "hit": false,
      "t": 147142.8645000012,
      "d": 79.36508333333768,
      "v": 100
    },
    {
      "midi": 31,
      "hit": false,
      "t": 147142.86450000122,
      "d": 412.69843333333847,
      "v": 110
    },
    {
      "midi": 2,
      "hit": false,
      "t": 147142.86450000145,
      "d": 7.936508333339589,
      "v": 120
    },
    {
      "midi": 42,
      "hit": false,
      "t": 147142.86450000145,
      "d": 7.936508333339589,
      "v": 100
    },
    {
      "midi": 55,
      "hit": false,
      "t": 147619.05500000025,
      "d": 119.04762500000652,
      "v": 115
    },
    {
      "midi": 43,
      "hit": false,
      "t": 147619.0550000012,
      "d": 79.36508333333768,
      "v": 100
    },
    {
      "midi": 50,
      "hit": false,
      "t": 147619.0550000012,
      "d": 79.36508333333768,
      "v": 100
    },
    {
      "midi": 31,
      "hit": false,
      "t": 147619.05500000122,
      "d": 412.69843333333847,
      "v": 110
    },
    {
      "midi": 40,
      "hit": false,
      "t": 147619.05500000145,
      "d": 7.936508333339589,
      "v": 127
    },
    {
      "midi": 42,
      "hit": false,
      "t": 147619.05500000145,
      "d": 7.936508333339589,
      "v": 100
    },
    {
      "midi": 71,
      "hit": false,
      "t": 148079.3724833334,
      "d": 214.28572499999427,
      "v": 95
    },
    {
      "midi": 79,
      "hit": false,
      "t": 148079.3724833334,
      "d": 214.28572499999427,
      "v": 95
    },
    {
      "midi": 83,
      "hit": false,
      "t": 148079.3724833334,
      "d": 214.28572499999427,
      "v": 95
    },
    {
      "midi": 81,
      "hit": false,
      "t": 148079.3724833334,
      "d": 214.28572499999427,
      "v": 95
    },
    {
      "midi": 74,
      "hit": false,
      "t": 148079.3724833334,
      "d": 214.28572499999427,
      "v": 95
    },
    {
      "midi": 73,
      "hit": false,
      "t": 148095.24550000014,
      "d": 436.50795833332813,
      "v": 112
    },
    {
      "midi": 57,
      "hit": false,
      "t": 148095.24550000025,
      "d": 119.04762500000652,
      "v": 115
    },
    {
      "midi": 43,
      "hit": false,
      "t": 148095.24550000118,
      "d": 79.36508333333768,
      "v": 100
    },
    {
      "midi": 50,
      "hit": false,
      "t": 148095.24550000118,
      "d": 79.36508333333768,
      "v": 100
    },
    {
      "midi": 31,
      "hit": false,
      "t": 148095.2455000012,
      "d": 412.69843333333847,
      "v": 110
    },
    {
      "midi": 42,
      "hit": false,
      "t": 148095.24550000145,
      "d": 7.936508333339589,
      "v": 100
    },
    {
      "midi": 71,
      "hit": false,
      "t": 148317.46773333338,
      "d": 214.28572499999427,
      "v": 100
    },
    {
      "midi": 83,
      "hit": false,
      "t": 148317.46773333338,
      "d": 214.28572499999427,
      "v": 100
    },
    {
      "midi": 81,
      "hit": false,
      "t": 148317.46773333338,
      "d": 214.28572499999427,
      "v": 100
    },
    {
      "midi": 86,
      "hit": false,
      "t": 148317.46773333338,
      "d": 214.28572499999427,
      "v": 100
    },
    {
      "midi": 74,
      "hit": false,
      "t": 148317.46773333338,
      "d": 214.28572499999427,
      "v": 100
    },
    {
      "midi": 79,
      "hit": false,
      "t": 148317.46773333338,
      "d": 214.28572499999427,
      "v": 100
    },
    {
      "midi": 86,
      "hit": false,
      "t": 148547.62647500006,
      "d": 3730.158916666667,
      "v": 110
    },
    {
      "midi": 81,
      "hit": false,
      "t": 148547.62647500006,
      "d": 3730.158916666667,
      "v": 110
    },
    {
      "midi": 79,
      "hit": false,
      "t": 148547.62647500006,
      "d": 3730.158916666667,
      "v": 110
    },
    {
      "midi": 83,
      "hit": false,
      "t": 148547.62647500006,
      "d": 3730.158916666667,
      "v": 110
    },
    {
      "midi": 71,
      "hit": false,
      "t": 148547.62647500006,
      "d": 3730.158916666667,
      "v": 110
    },
    {
      "midi": 74,
      "hit": false,
      "t": 148547.62647500006,
      "d": 3730.158916666667,
      "v": 110
    },
    {
      "midi": 74,
      "hit": false,
      "t": 148571.43600000013,
      "d": 436.50795833332813,
      "v": 112
    },
    {
      "midi": 55,
      "hit": false,
      "t": 148571.43600000025,
      "d": 119.04762500000652,
      "v": 115
    },
    {
      "midi": 43,
      "hit": false,
      "t": 148571.43600000118,
      "d": 79.36508333333768,
      "v": 100
    },
    {
      "midi": 50,
      "hit": false,
      "t": 148571.43600000118,
      "d": 79.36508333333768,
      "v": 100
    },
    {
      "midi": 31,
      "hit": false,
      "t": 148571.4360000012,
      "d": 412.69843333330937,
      "v": 115
    },
    {
      "midi": 2,
      "hit": false,
      "t": 148571.43600000144,
      "d": 7.936508333339589,
      "v": 120
    },
    {
      "midi": 42,
      "hit": false,
      "t": 148571.43600000144,
      "d": 7.936508333339589,
      "v": 115
    },
    {
      "midi": 74,
      "hit": false,
      "t": 149047.62650000013,
      "d": 436.50795833332813,
      "v": 112
    },
    {
      "midi": 62,
      "hit": false,
      "t": 149047.62650000025,
      "d": 436.50795833332813,
      "v": 120
    },
    {
      "midi": 31,
      "hit": false,
      "t": 149047.62650000118,
      "d": 412.69843333333847,
      "v": 110
    },
    {
      "midi": 43,
      "hit": false,
      "t": 149047.62650000118,
      "d": 79.36508333333768,
      "v": 100
    },
    {
      "midi": 50,
      "hit": false,
      "t": 149047.62650000118,
      "d": 79.36508333333768,
      "v": 100
    },
    {
      "midi": 42,
      "hit": false,
      "t": 149047.62650000144,
      "d": 7.936508333339589,
      "v": 100
    },
    {
      "midi": 57,
      "hit": false,
      "t": 149523.81700000024,
      "d": 119.04762500000652,
      "v": 115
    },
    {
      "midi": 31,
      "hit": false,
      "t": 149523.81700000117,
      "d": 412.69843333333847,
      "v": 110
    },
    {
      "midi": 50,
      "hit": false,
      "t": 149523.81700000117,
      "d": 79.36508333333768,
      "v": 100
    },
    {
      "midi": 43,
      "hit": false,
      "t": 149523.81700000117,
      "d": 79.36508333333768,
      "v": 100
    },
    {
      "midi": 40,
      "hit": false,
      "t": 149523.81700000144,
      "d": 7.936508333339589,
      "v": 127
    },
    {
      "midi": 42,
      "hit": false,
      "t": 149523.81700000144,
      "d": 7.936508333339589,
      "v": 100
    },
    {
      "midi": 73,
      "hit": false,
      "t": 150000.00750000012,
      "d": 436.50795833332813,
      "v": 112
    },
    {
      "midi": 55,
      "hit": false,
      "t": 150000.00750000024,
      "d": 119.04762500000652,
      "v": 115
    },
    {
      "midi": 31,
      "hit": false,
      "t": 150000.00750000117,
      "d": 412.69843333333847,
      "v": 110
    },
    {
      "midi": 43,
      "hit": false,
      "t": 150000.00750000117,
      "d": 79.36508333333768,
      "v": 100
    },
    {
      "midi": 50,
      "hit": false,
      "t": 150000.00750000117,
      "d": 79.36508333333768,
      "v": 100
    },
    {
      "midi": 42,
      "hit": false,
      "t": 150000.00750000143,
      "d": 7.936508333339589,
      "v": 100
    },
    {
      "midi": 71,
      "hit": false,
      "t": 150476.1980000001,
      "d": 1888.8889833333378,
      "v": 115
    },
    {
      "midi": 74,
      "hit": false,
      "t": 150476.19800000012,
      "d": 436.50795833332813,
      "v": 112
    },
    {
      "midi": 62,
      "hit": false,
      "t": 150476.19800000024,
      "d": 436.50795833332813,
      "v": 120
    },
    {
      "midi": 31,
      "hit": false,
      "t": 150476.19800000117,
      "d": 412.69843333333847,
      "v": 110
    },
    {
      "midi": 43,
      "hit": false,
      "t": 150476.19800000117,
      "d": 79.36508333333768,
      "v": 100
    },
    {
      "midi": 50,
      "hit": false,
      "t": 150476.19800000117,
      "d": 79.36508333333768,
      "v": 100
    },
    {
      "midi": 2,
      "hit": false,
      "t": 150476.19800000143,
      "d": 7.936508333339589,
      "v": 120
    },
    {
      "midi": 42,
      "hit": false,
      "t": 150476.19800000143,
      "d": 7.936508333339589,
      "v": 115
    },
    {
      "midi": 43,
      "hit": false,
      "t": 150714.29325000118,
      "d": 79.36508333333768,
      "v": 100
    },
    {
      "midi": 50,
      "hit": false,
      "t": 150714.29325000118,
      "d": 79.36508333333768,
      "v": 100
    },
    {
      "midi": 73,
      "hit": false,
      "t": 150952.38850000012,
      "d": 436.50795833332813,
      "v": 112
    },
    {
      "midi": 57,
      "hit": false,
      "t": 150952.38850000023,
      "d": 119.04762500000652,
      "v": 115
    },
    {
      "midi": 31,
      "hit": false,
      "t": 150952.38850000117,
      "d": 412.69843333333847,
      "v": 110
    },
    {
      "midi": 43,
      "hit": false,
      "t": 150952.3885000012,
      "d": 79.36508333333768,
      "v": 100
    },
    {
      "midi": 50,
      "hit": false,
      "t": 150952.3885000012,
      "d": 79.36508333333768,
      "v": 100
    },
    {
      "midi": 2,
      "hit": false,
      "t": 150952.38850000143,
      "d": 7.936508333339589,
      "v": 120
    },
    {
      "midi": 42,
      "hit": false,
      "t": 150952.38850000143,
      "d": 7.936508333339589,
      "v": 100
    },
    {
      "midi": 74,
      "hit": false,
      "t": 151428.5790000001,
      "d": 436.50795833332813,
      "v": 112
    },
    {
      "midi": 55,
      "hit": false,
      "t": 151428.57900000023,
      "d": 119.04762500000652,
      "v": 115
    },
    {
      "midi": 38,
      "hit": false,
      "t": 151428.57900000116,
      "d": 412.69843333333847,
      "v": 110
    },
    {
      "midi": 43,
      "hit": false,
      "t": 151428.5790000012,
      "d": 79.36508333333768,
      "v": 100
    },
    {
      "midi": 50,
      "hit": false,
      "t": 151428.5790000012,
      "d": 79.36508333333768,
      "v": 100
    },
    {
      "midi": 40,
      "hit": false,
      "t": 151428.57900000142,
      "d": 7.936508333339589,
      "v": 127
    },
    {
      "midi": 42,
      "hit": false,
      "t": 151428.57900000142,
      "d": 7.936508333339589,
      "v": 100
    },
    {
      "midi": 76,
      "hit": false,
      "t": 151904.7695000001,
      "d": 436.50795833332813,
      "v": 112
    },
    {
      "midi": 57,
      "hit": false,
      "t": 151904.76950000023,
      "d": 119.04762500000652,
      "v": 115
    },
    {
      "midi": 31,
      "hit": false,
      "t": 151904.76950000116,
      "d": 412.69843333333847,
      "v": 110
    },
    {
      "midi": 50,
      "hit": false,
      "t": 151904.7695000012,
      "d": 79.36508333333768,
      "v": 100
    },
    {
      "midi": 43,
      "hit": false,
      "t": 151904.7695000012,
      "d": 79.36508333333768,
      "v": 100
    },
    {
      "midi": 46,
      "hit": false,
      "t": 151904.76950000142,
      "d": 7.936508333339589,
      "v": 100
    },
    {
      "midi": 74,
      "hit": false,
      "t": 152349.21396666678,
      "d": 436.50795833332813,
      "v": 112
    },
    {
      "midi": 57,
      "hit": false,
      "t": 152365.0869833334,
      "d": 2777.7779166666733,
      "v": 110
    },
    {
      "midi": 64,
      "hit": false,
      "t": 152365.0869833334,
      "d": 2777.7779166666733,
      "v": 110
    },
    {
      "midi": 69,
      "hit": false,
      "t": 152365.0869833334,
      "d": 2777.7779166666733,
      "v": 110
    },
    {
      "midi": 66,
      "hit": false,
      "t": 152365.0869833334,
      "d": 2777.7779166666733,
      "v": 110
    },
    {
      "midi": 62,
      "hit": false,
      "t": 152365.0869833334,
      "d": 2777.7779166666733,
      "v": 110
    },
    {
      "midi": 69,
      "hit": false,
      "t": 152380.9600000001,
      "d": 5674.603458333324,
      "v": 115
    },
    {
      "midi": 54,
      "hit": false,
      "t": 152380.96000000022,
      "d": 119.04762500000652,
      "v": 115
    },
    {
      "midi": 30,
      "hit": false,
      "t": 152380.96000000116,
      "d": 412.69843333333847,
      "v": 115
    },
    {
      "midi": 42,
      "hit": false,
      "t": 152380.96000000119,
      "d": 79.36508333333768,
      "v": 100
    },
    {
      "midi": 50,
      "hit": false,
      "t": 152380.96000000119,
      "d": 79.36508333333768,
      "v": 100
    },
    {
      "midi": 2,
      "hit": false,
      "t": 152380.96000000142,
      "d": 7.936508333339589,
      "v": 120
    },
    {
      "midi": 42,
      "hit": false,
      "t": 152380.96000000142,
      "d": 7.936508333339589,
      "v": 115
    },
    {
      "midi": 42,
      "hit": false,
      "t": 152619.0552500012,
      "d": 79.36508333333768,
      "v": 100
    },
    {
      "midi": 50,
      "hit": false,
      "t": 152619.0552500012,
      "d": 79.36508333333768,
      "v": 100
    },
    {
      "midi": 74,
      "hit": false,
      "t": 152857.1505000001,
      "d": 793.6508333333477,
      "v": 112
    },
    {
      "midi": 62,
      "hit": false,
      "t": 152857.15050000022,
      "d": 436.50795833332813,
      "v": 120
    },
    {
      "midi": 30,
      "hit": false,
      "t": 152857.15050000115,
      "d": 412.69843333333847,
      "v": 110
    },
    {
      "midi": 42,
      "hit": false,
      "t": 152857.1505000012,
      "d": 79.36508333333768,
      "v": 100
    },
    {
      "midi": 50,
      "hit": false,
      "t": 152857.1505000012,
      "d": 79.36508333333768,
      "v": 100
    },
    {
      "midi": 42,
      "hit": false,
      "t": 152857.15050000141,
      "d": 7.936508333339589,
      "v": 100
    },
    {
      "midi": 57,
      "hit": false,
      "t": 153333.34100000022,
      "d": 119.04762500000652,
      "v": 115
    },
    {
      "midi": 30,
      "hit": false,
      "t": 153333.34100000115,
      "d": 412.69843333333847,
      "v": 110
    },
    {
      "midi": 42,
      "hit": false,
      "t": 153333.3410000012,
      "d": 79.36508333333768,
      "v": 100
    },
    {
      "midi": 50,
      "hit": false,
      "t": 153333.3410000012,
      "d": 79.36508333333768,
      "v": 100
    },
    {
      "midi": 40,
      "hit": false,
      "t": 153333.3410000014,
      "d": 7.936508333339589,
      "v": 127
    },
    {
      "midi": 42,
      "hit": false,
      "t": 153333.3410000014,
      "d": 7.936508333339589,
      "v": 100
    },
    {
      "midi": 73,
      "hit": false,
      "t": 153809.53150000013,
      "d": 436.50795833332813,
      "v": 112
    },
    {
      "midi": 54,
      "hit": false,
      "t": 153809.53150000022,
      "d": 119.04762500000652,
      "v": 115
    },
    {
      "midi": 30,
      "hit": false,
      "t": 153809.53150000115,
      "d": 412.69843333333847,
      "v": 110
    },
    {
      "midi": 42,
      "hit": false,
      "t": 153809.5315000012,
      "d": 79.36508333333768,
      "v": 100
    },
    {
      "midi": 50,
      "hit": false,
      "t": 153809.5315000012,
      "d": 79.36508333333768,
      "v": 100
    },
    {
      "midi": 42,
      "hit": false,
      "t": 153809.5315000014,
      "d": 7.936508333339589,
      "v": 100
    },
    {
      "midi": 74,
      "hit": false,
      "t": 154285.72200000013,
      "d": 873.0159166666563,
      "v": 112
    },
    {
      "midi": 62,
      "hit": false,
      "t": 154285.7220000002,
      "d": 436.50795833332813,
      "v": 120
    },
    {
      "midi": 30,
      "hit": false,
      "t": 154285.72200000114,
      "d": 412.69843333333847,
      "v": 110
    },
    {
      "midi": 42,
      "hit": false,
      "t": 154285.7220000012,
      "d": 79.36508333333768,
      "v": 100
    },
    {
      "midi": 50,
      "hit": false,
      "t": 154285.7220000012,
      "d": 79.36508333333768,
      "v": 100
    },
    {
      "midi": 2,
      "hit": false,
      "t": 154285.7220000014,
      "d": 7.936508333339589,
      "v": 120
    },
    {
      "midi": 42,
      "hit": false,
      "t": 154285.7220000014,
      "d": 7.936508333339589,
      "v": 115
    },
    {
      "midi": 57,
      "hit": false,
      "t": 154761.9125000002,
      "d": 119.04762500000652,
      "v": 115
    },
    {
      "midi": 30,
      "hit": false,
      "t": 154761.91250000114,
      "d": 412.69843333333847,
      "v": 110
    },
    {
      "midi": 42,
      "hit": false,
      "t": 154761.9125000012,
      "d": 79.36508333333768,
      "v": 100
    },
    {
      "midi": 50,
      "hit": false,
      "t": 154761.9125000012,
      "d": 79.36508333333768,
      "v": 100
    },
    {
      "midi": 2,
      "hit": false,
      "t": 154761.9125000014,
      "d": 7.936508333339589,
      "v": 120
    },
    {
      "midi": 42,
      "hit": false,
      "t": 154761.9125000014,
      "d": 7.936508333339589,
      "v": 100
    },
    {
      "midi": 54,
      "hit": false,
      "t": 155238.1030000002,
      "d": 119.04762500000652,
      "v": 115
    },
    {
      "midi": 30,
      "hit": false,
      "t": 155238.10300000114,
      "d": 412.69843333333847,
      "v": 110
    },
    {
      "midi": 42,
      "hit": false,
      "t": 155238.1030000012,
      "d": 79.36508333333768,
      "v": 100
    },
    {
      "midi": 50,
      "hit": false,
      "t": 155238.1030000012,
      "d": 79.36508333333768,
      "v": 100
    },
    {
      "midi": 40,
      "hit": false,
      "t": 155238.1030000014,
      "d": 7.936508333339589,
      "v": 127
    },
    {
      "midi": 42,
      "hit": false,
      "t": 155238.1030000014,
      "d": 7.936508333339589,
      "v": 100
    },
    {
      "midi": 66,
      "hit": false,
      "t": 155698.4204833334,
      "d": 214.28572499999427,
      "v": 95
    },
    {
      "midi": 74,
      "hit": false,
      "t": 155698.4204833334,
      "d": 214.28572499999427,
      "v": 95
    },
    {
      "midi": 78,
      "hit": false,
      "t": 155698.4204833334,
      "d": 214.28572499999427,
      "v": 95
    },
    {
      "midi": 76,
      "hit": false,
      "t": 155698.4204833334,
      "d": 214.28572499999427,
      "v": 95
    },
    {
      "midi": 69,
      "hit": false,
      "t": 155698.4204833334,
      "d": 214.28572499999427,
      "v": 95
    },
    {
      "midi": 57,
      "hit": false,
      "t": 155714.2935000002,
      "d": 119.04762500000652,
      "v": 115
    },
    {
      "midi": 30,
      "hit": false,
      "t": 155714.29350000113,
      "d": 412.69843333333847,
      "v": 110
    },
    {
      "midi": 42,
      "hit": false,
      "t": 155714.2935000012,
      "d": 79.36508333333768,
      "v": 100
    },
    {
      "midi": 50,
      "hit": false,
      "t": 155714.2935000012,
      "d": 79.36508333333768,
      "v": 100
    },
    {
      "midi": 42,
      "hit": false,
      "t": 155714.2935000014,
      "d": 7.936508333339589,
      "v": 100
    },
    {
      "midi": 66,
      "hit": false,
      "t": 155936.5157333334,
      "d": 214.28572499999427,
      "v": 100
    },
    {
      "midi": 78,
      "hit": false,
      "t": 155936.5157333334,
      "d": 214.28572499999427,
      "v": 100
    },
    {
      "midi": 76,
      "hit": false,
      "t": 155936.5157333334,
      "d": 214.28572499999427,
      "v": 100
    },
    {
      "midi": 81,
      "hit": false,
      "t": 155936.5157333334,
      "d": 214.28572499999427,
      "v": 100
    },
    {
      "midi": 69,
      "hit": false,
      "t": 155936.5157333334,
      "d": 214.28572499999427,
      "v": 100
    },
    {
      "midi": 74,
      "hit": false,
      "t": 155936.5157333334,
      "d": 214.28572499999427,
      "v": 100
    },
    {
      "midi": 66,
      "hit": false,
      "t": 156166.67447500007,
      "d": 3730.158916666667,
      "v": 110
    },
    {
      "midi": 81,
      "hit": false,
      "t": 156166.67447500007,
      "d": 3730.158916666667,
      "v": 110
    },
    {
      "midi": 78,
      "hit": false,
      "t": 156166.67447500007,
      "d": 3730.158916666667,
      "v": 110
    },
    {
      "midi": 74,
      "hit": false,
      "t": 156166.67447500007,
      "d": 3730.158916666667,
      "v": 110
    },
    {
      "midi": 69,
      "hit": false,
      "t": 156166.67447500007,
      "d": 3730.158916666667,
      "v": 110
    },
    {
      "midi": 76,
      "hit": false,
      "t": 156166.67447500007,
      "d": 3730.158916666667,
      "v": 110
    },
    {
      "midi": 54,
      "hit": false,
      "t": 156190.4840000002,
      "d": 119.04762500000652,
      "v": 115
    },
    {
      "midi": 30,
      "hit": false,
      "t": 156190.48400000113,
      "d": 412.69843333330937,
      "v": 115
    },
    {
      "midi": 42,
      "hit": false,
      "t": 156190.4840000012,
      "d": 79.36508333333768,
      "v": 100
    },
    {
      "midi": 50,
      "hit": false,
      "t": 156190.4840000012,
      "d": 79.36508333333768,
      "v": 100
    },
    {
      "midi": 2,
      "hit": false,
      "t": 156190.4840000014,
      "d": 7.936508333339589,
      "v": 120
    },
    {
      "midi": 42,
      "hit": false,
      "t": 156190.4840000014,
      "d": 7.936508333339589,
      "v": 115
    },
    {
      "midi": 62,
      "hit": false,
      "t": 156666.6745000002,
      "d": 436.50795833332813,
      "v": 120
    },
    {
      "midi": 30,
      "hit": false,
      "t": 156666.6745000011,
      "d": 412.69843333333847,
      "v": 110
    },
    {
      "midi": 42,
      "hit": false,
      "t": 156666.6745000012,
      "d": 79.36508333333768,
      "v": 100
    },
    {
      "midi": 50,
      "hit": false,
      "t": 156666.6745000012,
      "d": 79.36508333333768,
      "v": 100
    },
    {
      "midi": 42,
      "hit": false,
      "t": 156666.6745000014,
      "d": 7.936508333339589,
      "v": 100
    },
    {
      "midi": 74,
      "hit": false,
      "t": 157142.8650000001,
      "d": 436.50795833332813,
      "v": 112
    },
    {
      "midi": 57,
      "hit": false,
      "t": 157142.8650000002,
      "d": 119.04762500000652,
      "v": 115
    },
    {
      "midi": 30,
      "hit": false,
      "t": 157142.8650000011,
      "d": 412.69843333333847,
      "v": 110
    },
    {
      "midi": 42,
      "hit": false,
      "t": 157142.86500000118,
      "d": 79.36508333333768,
      "v": 100
    },
    {
      "midi": 50,
      "hit": false,
      "t": 157142.86500000118,
      "d": 79.36508333333768,
      "v": 100
    },
    {
      "midi": 40,
      "hit": false,
      "t": 157142.8650000014,
      "d": 7.936508333339589,
      "v": 127
    },
    {
      "midi": 42,
      "hit": false,
      "t": 157142.8650000014,
      "d": 7.936508333339589,
      "v": 100
    },
    {
      "midi": 74,
      "hit": false,
      "t": 157619.0555000001,
      "d": 436.50795833332813,
      "v": 112
    },
    {
      "midi": 54,
      "hit": false,
      "t": 157619.0555000002,
      "d": 119.04762500000652,
      "v": 115
    },
    {
      "midi": 30,
      "hit": false,
      "t": 157619.0555000011,
      "d": 412.69843333333847,
      "v": 110
    },
    {
      "midi": 42,
      "hit": false,
      "t": 157619.05550000118,
      "d": 79.36508333333768,
      "v": 100
    },
    {
      "midi": 50,
      "hit": false,
      "t": 157619.05550000118,
      "d": 79.36508333333768,
      "v": 100
    },
    {
      "midi": 42,
      "hit": false,
      "t": 157619.05550000138,
      "d": 7.936508333339589,
      "v": 100
    },
    {
      "midi": 74,
      "hit": false,
      "t": 158095.2460000001,
      "d": 436.50795833332813,
      "v": 112
    },
    {
      "midi": 71,
      "hit": false,
      "t": 158095.2460000001,
      "d": 952.380999999994,
      "v": 115
    },
    {
      "midi": 62,
      "hit": false,
      "t": 158095.2460000002,
      "d": 436.50795833332813,
      "v": 120
    },
    {
      "midi": 30,
      "hit": false,
      "t": 158095.2460000011,
      "d": 412.69843333333847,
      "v": 110
    },
    {
      "midi": 42,
      "hit": false,
      "t": 158095.24600000118,
      "d": 79.36508333333768,
      "v": 100
    },
    {
      "midi": 50,
      "hit": false,
      "t": 158095.24600000118,
      "d": 79.36508333333768,
      "v": 100
    },
    {
      "midi": 2,
      "hit": false,
      "t": 158095.24600000138,
      "d": 7.936508333339589,
      "v": 120
    },
    {
      "midi": 46,
      "hit": false,
      "t": 158095.24600000138,
      "d": 7.936508333339589,
      "v": 115
    },
    {
      "midi": 42,
      "hit": false,
      "t": 158333.3412500012,
      "d": 79.36508333333768,
      "v": 100
    },
    {
      "midi": 50,
      "hit": false,
      "t": 158333.3412500012,
      "d": 79.36508333333768,
      "v": 100
    },
    {
      "midi": 73,
      "hit": false,
      "t": 158571.4365000001,
      "d": 436.50795833332813,
      "v": 112
    },
    {
      "midi": 57,
      "hit": false,
      "t": 158571.43650000019,
      "d": 119.04762500000652,
      "v": 115
    },
    {
      "midi": 30,
      "hit": false,
      "t": 158571.4365000011,
      "d": 412.69843333333847,
      "v": 110
    },
    {
      "midi": 42,
      "hit": false,
      "t": 158571.4365000012,
      "d": 79.36508333333768,
      "v": 100
    },
    {
      "midi": 50,
      "hit": false,
      "t": 158571.4365000012,
      "d": 79.36508333333768,
      "v": 100
    },
    {
      "midi": 2,
      "hit": false,
      "t": 158571.43650000138,
      "d": 7.936508333339589,
      "v": 120
    },
    {
      "midi": 46,
      "hit": false,
      "t": 158571.43650000138,
      "d": 7.936508333339589,
      "v": 100
    },
    {
      "midi": 74,
      "hit": false,
      "t": 159047.6270000001,
      "d": 436.50795833332813,
      "v": 112
    },
    {
      "midi": 73,
      "hit": false,
      "t": 159047.6270000001,
      "d": 952.380999999994,
      "v": 115
    },
    {
      "midi": 76,
      "hit": false,
      "t": 159047.6270000001,
      "d": 198.4127083333442,
      "v": 100
    },
    {
      "midi": 54,
      "hit": false,
      "t": 159047.62700000018,
      "d": 119.04762500000652,
      "v": 115
    },
    {
      "midi": 37,
      "hit": false,
      "t": 159047.62700000108,
      "d": 412.69843333333847,
      "v": 110
    },
    {
      "midi": 42,
      "hit": false,
      "t": 159047.6270000012,
      "d": 79.36508333333768,
      "v": 100
    },
    {
      "midi": 50,
      "hit": false,
      "t": 159047.6270000012,
      "d": 79.36508333333768,
      "v": 100
    },
    {
      "midi": 40,
      "hit": false,
      "t": 159047.62700000138,
      "d": 7.936508333339589,
      "v": 127
    },
    {
      "midi": 78,
      "hit": false,
      "t": 159206.35716666677,
      "d": 198.4127083333442,
      "v": 102
    },
    {
      "midi": 79,
      "hit": false,
      "t": 159365.08733333345,
      "d": 198.4127083333442,
      "v": 106
    },
    {
      "midi": 76,
      "hit": false,
      "t": 159523.8175000001,
      "d": 436.50795833332813,
      "v": 112
    },
    {
      "midi": 81,
      "hit": false,
      "t": 159523.81750000012,
      "d": 198.4127083333442,
      "v": 110
    },
    {
      "midi": 57,
      "hit": false,
      "t": 159523.81750000018,
      "d": 119.04762500000652,
      "v": 115
    },
    {
      "midi": 30,
      "hit": false,
      "t": 159523.81750000108,
      "d": 412.69843333333847,
      "v": 110
    },
    {
      "midi": 42,
      "hit": false,
      "t": 159523.8175000012,
      "d": 79.36508333333768,
      "v": 100
    },
    {
      "midi": 50,
      "hit": false,
      "t": 159523.8175000012,
      "d": 79.36508333333768,
      "v": 100
    },
    {
      "midi": 40,
      "hit": false,
      "t": 159523.81750000137,
      "d": 7.936508333339589,
      "v": 127
    },
    {
      "midi": 83,
      "hit": false,
      "t": 159682.5476666668,
      "d": 198.4127083333442,
      "v": 118
    },
    {
      "midi": 40,
      "hit": false,
      "t": 159761.9127500014,
      "d": 7.936508333339589,
      "v": 127
    },
    {
      "midi": 85,
      "hit": false,
      "t": 159841.27783333347,
      "d": 198.4127083333442,
      "v": 120
    },
    {
      "midi": 57,
      "hit": false,
      "t": 159968.26196666673,
      "d": 873.0159166666563,
      "v": 110
    },
    {
      "midi": 62,
      "hit": false,
      "t": 159968.26196666673,
      "d": 873.0159166666563,
      "v": 110
    },
    {
      "midi": 66,
      "hit": false,
      "t": 159968.26196666673,
      "d": 873.0159166666563,
      "v": 110
    },
    {
      "midi": 86,
      "hit": false,
      "t": 159976.1984750001,
      "d": 3769.841458333336,
      "v": 100
    },
    {
      "midi": 74,
      "hit": false,
      "t": 159976.1984750001,
      "d": 3769.841458333336,
      "v": 100
    },
    {
      "midi": 71,
      "hit": false,
      "t": 159976.1984750001,
      "d": 3769.841458333336,
      "v": 100
    },
    {
      "midi": 78,
      "hit": false,
      "t": 160000.0080000001,
      "d": 436.50795833332813,
      "v": 112
    },
    {
      "midi": 54,
      "hit": false,
      "t": 160000.00800000018,
      "d": 119.04762500000652,
      "v": 115
    },
    {
      "midi": 35,
      "hit": false,
      "t": 160000.00800000108,
      "d": 412.69843333333847,
      "v": 115
    },
    {
      "midi": 47,
      "hit": false,
      "t": 160000.0080000012,
      "d": 436.50795833332813,
      "v": 115
    },
    {
      "midi": 54,
      "hit": false,
      "t": 160000.0080000012,
      "d": 436.50795833332813,
      "v": 115
    },
    {
      "midi": 2,
      "hit": false,
      "t": 160000.0080000014,
      "d": 7.936508333339589,
      "v": 120
    },
    {
      "midi": 49,
      "hit": false,
      "t": 160000.0080000014,
      "d": 7.936508333339589,
      "v": 115
    },
    {
      "midi": 78,
      "hit": false,
      "t": 160476.1985000001,
      "d": 436.50795833332813,
      "v": 112
    },
    {
      "midi": 62,
      "hit": false,
      "t": 160476.19850000017,
      "d": 436.50795833332813,
      "v": 120
    },
    {
      "midi": 35,
      "hit": false,
      "t": 160476.19850000108,
      "d": 412.69843333333847,
      "v": 110
    },
    {
      "midi": 47,
      "hit": false,
      "t": 160476.1985000012,
      "d": 79.36508333333768,
      "v": 100
    },
    {
      "midi": 54,
      "hit": false,
      "t": 160476.1985000012,
      "d": 79.36508333333768,
      "v": 100
    },
    {
      "midi": 42,
      "hit": false,
      "t": 160476.1985000014,
      "d": 7.936508333339589,
      "v": 100
    },
    {
      "midi": 57,
      "hit": false,
      "t": 160936.51598333337,
      "d": 436.50795833332813,
      "v": 110
    },
    {
      "midi": 61,
      "hit": false,
      "t": 160936.51598333337,
      "d": 436.50795833332813,
      "v": 110
    },
    {
      "midi": 64,
      "hit": false,
      "t": 160936.51598333337,
      "d": 436.50795833332813,
      "v": 110
    },
    {
      "midi": 76,
      "hit": false,
      "t": 160952.38900000008,
      "d": 436.50795833332813,
      "v": 112
    },
    {
      "midi": 59,
      "hit": false,
      "t": 160952.38900000017,
      "d": 119.04762500000652,
      "v": 115
    },
    {
      "midi": 35,
      "hit": false,
      "t": 160952.38900000107,
      "d": 412.69843333333847,
      "v": 110
    },
    {
      "midi": 47,
      "hit": false,
      "t": 160952.3890000012,
      "d": 79.36508333333768,
      "v": 100
    },
    {
      "midi": 54,
      "hit": false,
      "t": 160952.3890000012,
      "d": 79.36508333333768,
      "v": 100
    },
    {
      "midi": 40,
      "hit": false,
      "t": 160952.3890000014,
      "d": 7.936508333339589,
      "v": 127
    },
    {
      "midi": 42,
      "hit": false,
      "t": 160952.3890000014,
      "d": 7.936508333339589,
      "v": 100
    },
    {
      "midi": 57,
      "hit": false,
      "t": 161412.70648333337,
      "d": 1349.2064166666532,
      "v": 110
    },
    {
      "midi": 62,
      "hit": false,
      "t": 161412.70648333337,
      "d": 1349.2064166666532,
      "v": 110
    },
    {
      "midi": 66,
      "hit": false,
      "t": 161412.70648333337,
      "d": 1349.2064166666532,
      "v": 110
    },
    {
      "midi": 74,
      "hit": false,
      "t": 161428.57950000008,
      "d": 436.50795833332813,
      "v": 112
    },
    {
      "midi": 54,
      "hit": false,
      "t": 161428.57950000017,
      "d": 119.04762500000652,
      "v": 115
    },
    {
      "midi": 35,
      "hit": false,
      "t": 161428.57950000107,
      "d": 412.69843333333847,
      "v": 110
    },
    {
      "midi": 47,
      "hit": false,
      "t": 161428.5795000012,
      "d": 436.50795833332813,
      "v": 115
    },
    {
      "midi": 54,
      "hit": false,
      "t": 161428.5795000012,
      "d": 436.50795833332813,
      "v": 115
    },
    {
      "midi": 42,
      "hit": false,
      "t": 161428.5795000014,
      "d": 7.936508333339589,
      "v": 100
    },
    {
      "midi": 74,
      "hit": false,
      "t": 161904.77000000008,
      "d": 436.50795833332813,
      "v": 112
    },
    {
      "midi": 62,
      "hit": false,
      "t": 161904.77000000016,
      "d": 436.50795833332813,
      "v": 120
    },
    {
      "midi": 35,
      "hit": false,
      "t": 161904.77000000107,
      "d": 412.69843333333847,
      "v": 110
    },
    {
      "midi": 47,
      "hit": false,
      "t": 161904.77000000118,
      "d": 79.36508333333768,
      "v": 100
    },
    {
      "midi": 54,
      "hit": false,
      "t": 161904.77000000118,
      "d": 79.36508333333768,
      "v": 100
    },
    {
      "midi": 2,
      "hit": false,
      "t": 161904.7700000014,
      "d": 7.936508333339589,
      "v": 120
    },
    {
      "midi": 42,
      "hit": false,
      "t": 161904.7700000014,
      "d": 7.936508333339589,
      "v": 115
    },
    {
      "midi": 47,
      "hit": false,
      "t": 162142.8652500012,
      "d": 79.36508333333768,
      "v": 100
    },
    {
      "midi": 54,
      "hit": false,
      "t": 162142.8652500012,
      "d": 79.36508333333768,
      "v": 100
    },
    {
      "midi": 74,
      "hit": false,
      "t": 162380.96050000007,
      "d": 436.50795833332813,
      "v": 112
    },
    {
      "midi": 59,
      "hit": false,
      "t": 162380.96050000016,
      "d": 119.04762500000652,
      "v": 115
    },
    {
      "midi": 35,
      "hit": false,
      "t": 162380.96050000106,
      "d": 412.69843333333847,
      "v": 110
    },
    {
      "midi": 47,
      "hit": false,
      "t": 162380.9605000012,
      "d": 79.36508333333768,
      "v": 100
    },
    {
      "midi": 54,
      "hit": false,
      "t": 162380.9605000012,
      "d": 79.36508333333768,
      "v": 100
    },
    {
      "midi": 2,
      "hit": false,
      "t": 162380.96050000138,
      "d": 7.936508333339589,
      "v": 120
    },
    {
      "midi": 42,
      "hit": false,
      "t": 162380.96050000138,
      "d": 7.936508333339589,
      "v": 100
    },
    {
      "midi": 57,
      "hit": false,
      "t": 162857.151,
      "d": 436.50795833332813,
      "v": 117
    },
    {
      "midi": 78,
      "hit": false,
      "t": 162857.15100000007,
      "d": 436.50795833332813,
      "v": 115
    },
    {
      "midi": 54,
      "hit": false,
      "t": 162857.15100000016,
      "d": 119.04762500000652,
      "v": 115
    },
    {
      "midi": 35,
      "hit": false,
      "t": 162857.15100000106,
      "d": 412.69843333333847,
      "v": 110
    },
    {
      "midi": 47,
      "hit": false,
      "t": 162857.1510000012,
      "d": 436.50795833332813,
      "v": 115
    },
    {
      "midi": 54,
      "hit": false,
      "t": 162857.1510000012,
      "d": 436.50795833332813,
      "v": 115
    },
    {
      "midi": 40,
      "hit": false,
      "t": 162857.15100000138,
      "d": 7.936508333339589,
      "v": 127
    },
    {
      "midi": 42,
      "hit": false,
      "t": 162857.15100000138,
      "d": 7.936508333339589,
      "v": 100
    },
    {
      "midi": 62,
      "hit": false,
      "t": 163333.3415,
      "d": 436.50795833332813,
      "v": 117
    },
    {
      "midi": 78,
      "hit": false,
      "t": 163333.34150000007,
      "d": 436.50795833332813,
      "v": 115
    },
    {
      "midi": 59,
      "hit": false,
      "t": 163333.34150000016,
      "d": 119.04762500000652,
      "v": 115
    },
    {
      "midi": 35,
      "hit": false,
      "t": 163333.34150000106,
      "d": 412.69843333333847,
      "v": 110
    },
    {
      "midi": 47,
      "hit": false,
      "t": 163333.3415000012,
      "d": 79.36508333333768,
      "v": 100
    },
    {
      "midi": 54,
      "hit": false,
      "t": 163333.3415000012,
      "d": 79.36508333333768,
      "v": 100
    },
    {
      "midi": 42,
      "hit": false,
      "t": 163333.34150000138,
      "d": 7.936508333339589,
      "v": 100
    },
    {
      "midi": 47,
      "hit": false,
      "t": 163571.43675000122,
      "d": 79.36508333333768,
      "v": 100
    },
    {
      "midi": 54,
      "hit": false,
      "t": 163571.43675000122,
      "d": 79.36508333333768,
      "v": 100
    },
    {
      "midi": 83,
      "hit": false,
      "t": 163769.8494583334,
      "d": 436.50795833332813,
      "v": 115
    },
    {
      "midi": 57,
      "hit": false,
      "t": 163777.78596666668,
      "d": 436.50795833332813,
      "v": 110
    },
    {
      "midi": 61,
      "hit": false,
      "t": 163777.78596666668,
      "d": 436.50795833332813,
      "v": 110
    },
    {
      "midi": 66,
      "hit": false,
      "t": 163777.78596666668,
      "d": 436.50795833332813,
      "v": 110
    },
    {
      "midi": 85,
      "hit": false,
      "t": 163785.7224750001,
      "d": 3769.841458333336,
      "v": 100
    },
    {
      "midi": 69,
      "hit": false,
      "t": 163785.7224750001,
      "d": 3769.841458333336,
      "v": 100
    },
    {
      "midi": 73,
      "hit": false,
      "t": 163785.7224750001,
      "d": 3769.841458333336,
      "v": 100
    },
    {
      "midi": 54,
      "hit": false,
      "t": 163809.53200000015,
      "d": 119.04762500000652,
      "v": 115
    },
    {
      "midi": 30,
      "hit": false,
      "t": 163809.53200000105,
      "d": 412.69843333333847,
      "v": 115
    },
    {
      "midi": 42,
      "hit": false,
      "t": 163809.53200000123,
      "d": 436.50795833332813,
      "v": 115
    },
    {
      "midi": 49,
      "hit": false,
      "t": 163809.53200000123,
      "d": 436.50795833332813,
      "v": 115
    },
    {
      "midi": 2,
      "hit": false,
      "t": 163809.53200000137,
      "d": 7.936508333339589,
      "v": 120
    },
    {
      "midi": 57,
      "hit": false,
      "t": 163809.53200000137,
      "d": 7.936508333339589,
      "v": 115
    },
    {
      "midi": 57,
      "hit": false,
      "t": 164285.7225,
      "d": 436.50795833332813,
      "v": 117
    },
    {
      "midi": 81,
      "hit": false,
      "t": 164285.72250000006,
      "d": 873.0159166666563,
      "v": 115
    },
    {
      "midi": 61,
      "hit": false,
      "t": 164285.72250000015,
      "d": 436.50795833332813,
      "v": 120
    },
    {
      "midi": 30,
      "hit": false,
      "t": 164285.72250000105,
      "d": 412.69843333333847,
      "v": 110
    },
    {
      "midi": 42,
      "hit": false,
      "t": 164285.72250000123,
      "d": 79.36508333333768,
      "v": 100
    },
    {
      "midi": 49,
      "hit": false,
      "t": 164285.72250000123,
      "d": 79.36508333333768,
      "v": 100
    },
    {
      "midi": 42,
      "hit": false,
      "t": 164285.72250000137,
      "d": 7.936508333339589,
      "v": 100
    },
    {
      "midi": 61,
      "hit": false,
      "t": 164761.913,
      "d": 436.50795833332813,
      "v": 117
    },
    {
      "midi": 57,
      "hit": false,
      "t": 164761.91300000015,
      "d": 119.04762500000652,
      "v": 115
    },
    {
      "midi": 30,
      "hit": false,
      "t": 164761.91300000105,
      "d": 412.69843333333847,
      "v": 110
    },
    {
      "midi": 49,
      "hit": false,
      "t": 164761.91300000122,
      "d": 79.36508333333768,
      "v": 100
    },
    {
      "midi": 42,
      "hit": false,
      "t": 164761.91300000122,
      "d": 79.36508333333768,
      "v": 100
    },
    {
      "midi": 40,
      "hit": false,
      "t": 164761.91300000137,
      "d": 7.936508333339589,
      "v": 127
    },
    {
      "midi": 42,
      "hit": false,
      "t": 164761.91300000137,
      "d": 7.936508333339589,
      "v": 100
    },
    {
      "midi": 61,
      "hit": false,
      "t": 165222.23048333332,
      "d": 873.0159166666563,
      "v": 110
    },
    {
      "midi": 66,
      "hit": false,
      "t": 165222.23048333332,
      "d": 873.0159166666563,
      "v": 110
    },
    {
      "midi": 69,
      "hit": false,
      "t": 165222.23048333332,
      "d": 873.0159166666563,
      "v": 110
    },
    {
      "midi": 81,
      "hit": false,
      "t": 165238.10350000006,
      "d": 436.50795833332813,
      "v": 115
    },
    {
      "midi": 54,
      "hit": false,
      "t": 165238.10350000014,
      "d": 119.04762500000652,
      "v": 115
    },
    {
      "midi": 30,
      "hit": false,
      "t": 165238.10350000105,
      "d": 412.69843333333847,
      "v": 110
    },
    {
      "midi": 42,
      "hit": false,
      "t": 165238.10350000122,
      "d": 436.50795833332813,
      "v": 115
    },
    {
      "midi": 49,
      "hit": false,
      "t": 165238.10350000122,
      "d": 436.50795833332813,
      "v": 115
    },
    {
      "midi": 42,
      "hit": false,
      "t": 165238.10350000137,
      "d": 7.936508333339589,
      "v": 100
    },
    {
      "midi": 79,
      "hit": false,
      "t": 165714.29400000005,
      "d": 436.50795833332813,
      "v": 115
    },
    {
      "midi": 61,
      "hit": false,
      "t": 165714.29400000014,
      "d": 436.50795833332813,
      "v": 120
    },
    {
      "midi": 30,
      "hit": false,
      "t": 165714.29400000104,
      "d": 412.69843333333847,
      "v": 110
    },
    {
      "midi": 49,
      "hit": false,
      "t": 165714.29400000122,
      "d": 79.36508333333768,
      "v": 100
    },
    {
      "midi": 42,
      "hit": false,
      "t": 165714.29400000122,
      "d": 79.36508333333768,
      "v": 100
    },
    {
      "midi": 2,
      "hit": false,
      "t": 165714.29400000136,
      "d": 7.936508333339589,
      "v": 120
    },
    {
      "midi": 42,
      "hit": false,
      "t": 165714.29400000136,
      "d": 7.936508333339589,
      "v": 115
    },
    {
      "midi": 54,
      "hit": false,
      "t": 166190.48449999996,
      "d": 436.50795833332813,
      "v": 117
    },
    {
      "midi": 79,
      "hit": false,
      "t": 166190.48450000005,
      "d": 436.50795833332813,
      "v": 115
    },
    {
      "midi": 57,
      "hit": false,
      "t": 166190.48450000014,
      "d": 119.04762500000652,
      "v": 115
    },
    {
      "midi": 30,
      "hit": false,
      "t": 166190.48450000104,
      "d": 412.69843333333847,
      "v": 110
    },
    {
      "midi": 42,
      "hit": false,
      "t": 166190.4845000012,
      "d": 79.36508333333768,
      "v": 100
    },
    {
      "midi": 49,
      "hit": false,
      "t": 166190.4845000012,
      "d": 79.36508333333768,
      "v": 100
    },
    {
      "midi": 2,
      "hit": false,
      "t": 166190.48450000136,
      "d": 7.936508333339589,
      "v": 120
    },
    {
      "midi": 42,
      "hit": false,
      "t": 166190.48450000136,
      "d": 7.936508333339589,
      "v": 100
    },
    {
      "midi": 57,
      "hit": false,
      "t": 166666.67499999996,
      "d": 436.50795833332813,
      "v": 117
    },
    {
      "midi": 78,
      "hit": false,
      "t": 166666.67500000005,
      "d": 436.50795833332813,
      "v": 115
    },
    {
      "midi": 54,
      "hit": false,
      "t": 166666.67500000013,
      "d": 119.04762500000652,
      "v": 115
    },
    {
      "midi": 30,
      "hit": false,
      "t": 166666.67500000104,
      "d": 412.69843333333847,
      "v": 110
    },
    {
      "midi": 42,
      "hit": false,
      "t": 166666.6750000012,
      "d": 436.50795833332813,
      "v": 115
    },
    {
      "midi": 49,
      "hit": false,
      "t": 166666.6750000012,
      "d": 436.50795833332813,
      "v": 115
    },
    {
      "midi": 40,
      "hit": false,
      "t": 166666.67500000136,
      "d": 7.936508333339589,
      "v": 127
    },
    {
      "midi": 42,
      "hit": false,
      "t": 166666.67500000136,
      "d": 7.936508333339589,
      "v": 100
    },
    {
      "midi": 61,
      "hit": false,
      "t": 167142.86549999996,
      "d": 436.50795833332813,
      "v": 117
    },
    {
      "midi": 76,
      "hit": false,
      "t": 167142.86550000004,
      "d": 436.50795833332813,
      "v": 115
    },
    {
      "midi": 57,
      "hit": false,
      "t": 167142.86550000013,
      "d": 119.04762500000652,
      "v": 115
    },
    {
      "midi": 29,
      "hit": false,
      "t": 167142.86550000103,
      "d": 412.69843333333847,
      "v": 110
    },
    {
      "midi": 42,
      "hit": false,
      "t": 167142.8655000012,
      "d": 198.4127083333442,
      "v": 100
    },
    {
      "midi": 49,
      "hit": false,
      "t": 167142.8655000012,
      "d": 198.4127083333442,
      "v": 100
    },
    {
      "midi": 42,
      "hit": false,
      "t": 167142.86550000135,
      "d": 7.936508333339589,
      "v": 100
    },
    {
      "midi": 2,
      "hit": false,
      "t": 167142.86550000135,
      "d": 7.936508333339589,
      "v": 120
    },
    {
      "midi": 42,
      "hit": false,
      "t": 167380.96075000122,
      "d": 198.4127083333442,
      "v": 100
    },
    {
      "midi": 49,
      "hit": false,
      "t": 167380.96075000122,
      "d": 198.4127083333442,
      "v": 100
    },
    {
      "midi": 55,
      "hit": false,
      "t": 167587.30996666662,
      "d": 1825.3969166666793,
      "v": 117
    },
    {
      "midi": 59,
      "hit": false,
      "t": 167587.30996666662,
      "d": 1825.3969166666793,
      "v": 117
    },
    {
      "midi": 64,
      "hit": false,
      "t": 167587.30996666662,
      "d": 1825.3969166666793,
      "v": 117
    },
    {
      "midi": 78,
      "hit": false,
      "t": 167595.24647500005,
      "d": 436.50795833332813,
      "v": 115
    },
    {
      "midi": 67,
      "hit": false,
      "t": 167595.2464750001,
      "d": 3769.841458333336,
      "v": 100
    },
    {
      "midi": 71,
      "hit": false,
      "t": 167595.2464750001,
      "d": 3769.841458333336,
      "v": 100
    },
    {
      "midi": 83,
      "hit": false,
      "t": 167595.2464750001,
      "d": 3769.841458333336,
      "v": 100
    },
    {
      "midi": 55,
      "hit": false,
      "t": 167619.05600000013,
      "d": 119.04762500000652,
      "v": 115
    },
    {
      "midi": 28,
      "hit": false,
      "t": 167619.05600000103,
      "d": 412.69843333333847,
      "v": 115
    },
    {
      "midi": 40,
      "hit": false,
      "t": 167619.05600000123,
      "d": 436.50795833332813,
      "v": 115
    },
    {
      "midi": 47,
      "hit": false,
      "t": 167619.05600000123,
      "d": 436.50795833332813,
      "v": 115
    },
    {
      "midi": 2,
      "hit": false,
      "t": 167619.05600000135,
      "d": 7.936508333339589,
      "v": 120
    },
    {
      "midi": 49,
      "hit": false,
      "t": 167619.05600000135,
      "d": 7.936508333339589,
      "v": 115
    },
    {
      "midi": 76,
      "hit": false,
      "t": 168095.24650000004,
      "d": 2500.0001250000787,
      "v": 115
    },
    {
      "midi": 64,
      "hit": false,
      "t": 168095.24650000012,
      "d": 436.50795833332813,
      "v": 120
    },
    {
      "midi": 28,
      "hit": false,
      "t": 168095.24650000103,
      "d": 412.69843333333847,
      "v": 110
    },
    {
      "midi": 40,
      "hit": false,
      "t": 168095.24650000123,
      "d": 79.36508333333768,
      "v": 100
    },
    {
      "midi": 47,
      "hit": false,
      "t": 168095.24650000123,
      "d": 79.36508333333768,
      "v": 100
    },
    {
      "midi": 46,
      "hit": false,
      "t": 168095.24650000135,
      "d": 7.936508333339589,
      "v": 90
    },
    {
      "midi": 59,
      "hit": false,
      "t": 168571.43700000012,
      "d": 119.04762500000652,
      "v": 115
    },
    {
      "midi": 28,
      "hit": false,
      "t": 168571.43700000102,
      "d": 412.69843333333847,
      "v": 110
    },
    {
      "midi": 47,
      "hit": false,
      "t": 168571.43700000123,
      "d": 79.36508333333768,
      "v": 100
    },
    {
      "midi": 40,
      "hit": false,
      "t": 168571.43700000123,
      "d": 79.36508333333768,
      "v": 100
    },
    {
      "midi": 40,
      "hit": false,
      "t": 168571.43700000134,
      "d": 7.936508333339589,
      "v": 127
    },
    {
      "midi": 46,
      "hit": false,
      "t": 168571.43700000134,
      "d": 7.936508333339589,
      "v": 92
    },
    {
      "midi": 55,
      "hit": false,
      "t": 169047.62750000012,
      "d": 119.04762500000652,
      "v": 115
    },
    {
      "midi": 28,
      "hit": false,
      "t": 169047.62750000102,
      "d": 412.69843333333847,
      "v": 110
    },
    {
      "midi": 40,
      "hit": false,
      "t": 169047.62750000122,
      "d": 436.50795833332813,
      "v": 115
    },
    {
      "midi": 47,
      "hit": false,
      "t": 169047.62750000122,
      "d": 436.50795833332813,
      "v": 115
    },
    {
      "midi": 46,
      "hit": false,
      "t": 169047.62750000134,
      "d": 7.936508333339589,
      "v": 96
    },
    {
      "midi": 55,
      "hit": false,
      "t": 169507.9449833333,
      "d": 1825.3969166666793,
      "v": 117
    },
    {
      "midi": 59,
      "hit": false,
      "t": 169507.9449833333,
      "d": 1825.3969166666793,
      "v": 117
    },
    {
      "midi": 66,
      "hit": false,
      "t": 169507.9449833333,
      "d": 1825.3969166666793,
      "v": 117
    },
    {
      "midi": 64,
      "hit": false,
      "t": 169523.81800000012,
      "d": 436.50795833332813,
      "v": 120
    },
    {
      "midi": 28,
      "hit": false,
      "t": 169523.81800000102,
      "d": 412.69843333333847,
      "v": 110
    },
    {
      "midi": 40,
      "hit": false,
      "t": 169523.81800000122,
      "d": 79.36508333333768,
      "v": 100
    },
    {
      "midi": 47,
      "hit": false,
      "t": 169523.81800000122,
      "d": 79.36508333333768,
      "v": 100
    },
    {
      "midi": 40,
      "hit": false,
      "t": 169523.81800000134,
      "d": 7.936508333339589,
      "v": 127
    },
    {
      "midi": 46,
      "hit": false,
      "t": 169523.81800000134,
      "d": 7.936508333339589,
      "v": 98
    },
    {
      "midi": 40,
      "hit": false,
      "t": 169761.91325000123,
      "d": 79.36508333333768,
      "v": 100
    },
    {
      "midi": 47,
      "hit": false,
      "t": 169761.91325000123,
      "d": 79.36508333333768,
      "v": 100
    },
    {
      "midi": 59,
      "hit": false,
      "t": 170000.0085000001,
      "d": 119.04762500000652,
      "v": 115
    },
    {
      "midi": 28,
      "hit": false,
      "t": 170000.00850000101,
      "d": 412.69843333333847,
      "v": 110
    },
    {
      "midi": 40,
      "hit": false,
      "t": 170000.00850000125,
      "d": 79.36508333333768,
      "v": 100
    },
    {
      "midi": 47,
      "hit": false,
      "t": 170000.00850000125,
      "d": 79.36508333333768,
      "v": 100
    },
    {
      "midi": 2,
      "hit": false,
      "t": 170000.00850000134,
      "d": 7.936508333339589,
      "v": 120
    },
    {
      "midi": 46,
      "hit": false,
      "t": 170000.00850000134,
      "d": 7.936508333339589,
      "v": 102
    },
    {
      "midi": 55,
      "hit": false,
      "t": 170476.1990000001,
      "d": 119.04762500000652,
      "v": 115
    },
    {
      "midi": 31,
      "hit": false,
      "t": 170476.199000001,
      "d": 412.69843333333847,
      "v": 110
    },
    {
      "midi": 40,
      "hit": false,
      "t": 170476.19900000124,
      "d": 436.50795833332813,
      "v": 115
    },
    {
      "midi": 47,
      "hit": false,
      "t": 170476.19900000124,
      "d": 436.50795833332813,
      "v": 115
    },
    {
      "midi": 40,
      "hit": false,
      "t": 170476.19900000133,
      "d": 7.936508333339589,
      "v": 127
    },
    {
      "midi": 46,
      "hit": false,
      "t": 170476.19900000133,
      "d": 7.936508333339589,
      "v": 106
    },
    {
      "midi": 59,
      "hit": false,
      "t": 170952.3895000001,
      "d": 119.04762500000652,
      "v": 115
    },
    {
      "midi": 32,
      "hit": false,
      "t": 170952.389500001,
      "d": 412.69843333333847,
      "v": 110
    },
    {
      "midi": 40,
      "hit": false,
      "t": 170952.38950000124,
      "d": 79.36508333333768,
      "v": 100
    },
    {
      "midi": 47,
      "hit": false,
      "t": 170952.38950000124,
      "d": 79.36508333333768,
      "v": 100
    },
    {
      "midi": 2,
      "hit": false,
      "t": 170952.38950000133,
      "d": 7.936508333339589,
      "v": 120
    },
    {
      "midi": 46,
      "hit": false,
      "t": 170952.38950000133,
      "d": 7.936508333339589,
      "v": 110
    },
    {
      "midi": 47,
      "hit": false,
      "t": 171190.48475000125,
      "d": 79.36508333333768,
      "v": 100
    },
    {
      "midi": 40,
      "hit": false,
      "t": 171190.48475000125,
      "d": 79.36508333333768,
      "v": 100
    },
    {
      "midi": 55,
      "hit": false,
      "t": 171396.83396666663,
      "d": 1825.3969166666793,
      "v": 117
    },
    {
      "midi": 67,
      "hit": false,
      "t": 171396.83396666663,
      "d": 1825.3969166666793,
      "v": 117
    },
    {
      "midi": 64,
      "hit": false,
      "t": 171396.83396666663,
      "d": 1825.3969166666793,
      "v": 117
    },
    {
      "midi": 61,
      "hit": false,
      "t": 171396.83396666663,
      "d": 1825.3969166666793,
      "v": 117
    },
    {
      "midi": 67,
      "hit": false,
      "t": 171404.7704750001,
      "d": 1880.9524749999982,
      "v": 100
    },
    {
      "midi": 73,
      "hit": false,
      "t": 171404.7704750001,
      "d": 1880.9524749999982,
      "v": 100
    },
    {
      "midi": 85,
      "hit": false,
      "t": 171404.7704750001,
      "d": 1880.9524749999982,
      "v": 100
    },
    {
      "midi": 57,
      "hit": false,
      "t": 171428.5800000001,
      "d": 119.04762500000652,
      "v": 115
    },
    {
      "midi": 33,
      "hit": false,
      "t": 171428.580000001,
      "d": 412.69843333333847,
      "v": 115
    },
    {
      "midi": 45,
      "hit": false,
      "t": 171428.58000000124,
      "d": 1825.3969166666502,
      "v": 100
    },
    {
      "midi": 52,
      "hit": false,
      "t": 171428.58000000124,
      "d": 1825.3969166666502,
      "v": 100
    },
    {
      "midi": 2,
      "hit": false,
      "t": 171428.58000000133,
      "d": 7.936508333339589,
      "v": 120
    },
    {
      "midi": 45,
      "hit": false,
      "t": 171428.58000000133,
      "d": 7.936508333339589,
      "v": 127
    },
    {
      "midi": 64,
      "hit": false,
      "t": 171904.7705000001,
      "d": 436.50795833332813,
      "v": 120
    },
    {
      "midi": 33,
      "hit": false,
      "t": 171904.770500001,
      "d": 412.69843333333847,
      "v": 110
    },
    {
      "midi": 47,
      "hit": false,
      "t": 171904.77050000132,
      "d": 7.936508333339589,
      "v": 127
    },
    {
      "midi": 61,
      "hit": false,
      "t": 172380.9610000001,
      "d": 119.04762500000652,
      "v": 115
    },
    {
      "midi": 40,
      "hit": false,
      "t": 172380.961000001,
      "d": 412.69843333333847,
      "v": 110
    },
    {
      "midi": 40,
      "hit": false,
      "t": 172380.96100000132,
      "d": 7.936508333339589,
      "v": 127
    },
    {
      "midi": 40,
      "hit": false,
      "t": 172619.05625000133,
      "d": 7.936508333339589,
      "v": 127
    },
    {
      "midi": 57,
      "hit": false,
      "t": 172857.1515000001,
      "d": 119.04762500000652,
      "v": 115
    },
    {
      "midi": 43,
      "hit": false,
      "t": 172857.151500001,
      "d": 412.69843333333847,
      "v": 110
    },
    {
      "midi": 45,
      "hit": false,
      "t": 172857.15150000135,
      "d": 7.936508333339589,
      "v": 127
    },
    {
      "midi": 43,
      "hit": false,
      "t": 173095.24675000136,
      "d": 7.936508333339589,
      "v": 127
    },
    {
      "midi": 61,
      "hit": false,
      "t": 173309.5324750001,
      "d": 912.6984583333251,
      "v": 115
    },
    {
      "midi": 90,
      "hit": false,
      "t": 173309.5324750001,
      "d": 912.6984583333251,
      "v": 115
    },
    {
      "midi": 78,
      "hit": false,
      "t": 173309.5324750001,
      "d": 912.6984583333251,
      "v": 115
    },
    {
      "midi": 69,
      "hit": false,
      "t": 173309.5324750001,
      "d": 912.6984583333251,
      "v": 115
    },
    {
      "midi": 57,
      "hit": false,
      "t": 173317.4689833333,
      "d": 873.0159166666563,
      "v": 115
    },
    {
      "midi": 61,
      "hit": false,
      "t": 173317.4689833333,
      "d": 873.0159166666563,
      "v": 115
    },
    {
      "midi": 66,
      "hit": false,
      "t": 173317.4689833333,
      "d": 873.0159166666563,
      "v": 115
    },
    {
      "midi": 61,
      "hit": false,
      "t": 173333.3420000001,
      "d": 698.4127333333308,
      "v": 110
    },
    {
      "midi": 66,
      "hit": false,
      "t": 173333.3420000001,
      "d": 698.4127333333308,
      "v": 110
    },
    {
      "midi": 69,
      "hit": false,
      "t": 173333.3420000001,
      "d": 698.4127333333308,
      "v": 110
    },
    {
      "midi": 62,
      "hit": false,
      "t": 173333.34200000012,
      "d": 873.0159166666563,
      "v": 100
    },
    {
      "midi": 69,
      "hit": false,
      "t": 173333.34200000012,
      "d": 873.0159166666563,
      "v": 100
    },
    {
      "midi": 78,
      "hit": false,
      "t": 173333.3420000002,
      "d": 873.0159166666563,
      "v": 120
    },
    {
      "midi": 45,
      "hit": false,
      "t": 173333.342000001,
      "d": 873.0159166666563,
      "v": 110
    },
    {
      "midi": 54,
      "hit": false,
      "t": 173333.34200000123,
      "d": 873.0159166666563,
      "v": 115
    },
    {
      "midi": 2,
      "hit": false,
      "t": 173333.34200000137,
      "d": 7.936508333339589,
      "v": 120
    },
    {
      "midi": 49,
      "hit": false,
      "t": 173333.34200000137,
      "d": 7.936508333339589,
      "v": 115
    },
    {
      "midi": 61,
      "hit": false,
      "t": 174047.6277500001,
      "d": 119.04762500000652,
      "v": 110
    },
    {
      "midi": 66,
      "hit": false,
      "t": 174047.6277500001,
      "d": 119.04762500000652,
      "v": 110
    },
    {
      "midi": 69,
      "hit": false,
      "t": 174047.6277500001,
      "d": 119.04762500000652,
      "v": 110
    },
    {
      "midi": 62,
      "hit": false,
      "t": 174261.9134750001,
      "d": 912.6984583333251,
      "v": 115
    },
    {
      "midi": 91,
      "hit": false,
      "t": 174261.9134750001,
      "d": 912.6984583333251,
      "v": 115
    },
    {
      "midi": 79,
      "hit": false,
      "t": 174261.9134750001,
      "d": 912.6984583333251,
      "v": 115
    },
    {
      "midi": 71,
      "hit": false,
      "t": 174261.9134750001,
      "d": 912.6984583333251,
      "v": 115
    },
    {
      "midi": 57,
      "hit": false,
      "t": 174269.8499833333,
      "d": 873.0159166666563,
      "v": 119
    },
    {
      "midi": 61,
      "hit": false,
      "t": 174269.8499833333,
      "d": 873.0159166666563,
      "v": 119
    },
    {
      "midi": 67,
      "hit": false,
      "t": 174269.8499833333,
      "d": 873.0159166666563,
      "v": 119
    },
    {
      "midi": 64,
      "hit": false,
      "t": 174285.72300000011,
      "d": 873.0159166666563,
      "v": 100
    },
    {
      "midi": 69,
      "hit": false,
      "t": 174285.72300000011,
      "d": 873.0159166666563,
      "v": 100
    },
    {
      "midi": 71,
      "hit": false,
      "t": 174285.72300000011,
      "d": 873.0159166666563,
      "v": 100
    },
    {
      "midi": 62,
      "hit": false,
      "t": 174285.72300000011,
      "d": 698.4127333333308,
      "v": 110
    },
    {
      "midi": 67,
      "hit": false,
      "t": 174285.72300000011,
      "d": 698.4127333333308,
      "v": 110
    },
    {
      "midi": 71,
      "hit": false,
      "t": 174285.72300000011,
      "d": 698.4127333333308,
      "v": 110
    },
    {
      "midi": 79,
      "hit": false,
      "t": 174285.7230000002,
      "d": 873.0159166666563,
      "v": 120
    },
    {
      "midi": 45,
      "hit": false,
      "t": 174285.723000001,
      "d": 873.0159166666563,
      "v": 110
    },
    {
      "midi": 55,
      "hit": false,
      "t": 174285.72300000122,
      "d": 873.0159166666563,
      "v": 115
    },
    {
      "midi": 2,
      "hit": false,
      "t": 174285.72300000137,
      "d": 7.936508333339589,
      "v": 120
    },
    {
      "midi": 49,
      "hit": false,
      "t": 174285.72300000137,
      "d": 7.936508333339589,
      "v": 115
    },
    {
      "midi": 62,
      "hit": false,
      "t": 175000.00875000012,
      "d": 119.04762500000652,
      "v": 110
    },
    {
      "midi": 67,
      "hit": false,
      "t": 175000.00875000012,
      "d": 119.04762500000652,
      "v": 110
    },
    {
      "midi": 71,
      "hit": false,
      "t": 175000.00875000012,
      "d": 119.04762500000652,
      "v": 110
    },
    {
      "midi": 69,
      "hit": false,
      "t": 175198.42145833297,
      "d": 1825.3969166666502,
      "v": 90
    },
    {
      "midi": 57,
      "hit": false,
      "t": 175206.3579666666,
      "d": 634.9206666666723,
      "v": 119
    },
    {
      "midi": 62,
      "hit": false,
      "t": 175206.3579666666,
      "d": 634.9206666666723,
      "v": 119
    },
    {
      "midi": 66,
      "hit": false,
      "t": 175206.3579666666,
      "d": 634.9206666666723,
      "v": 119
    },
    {
      "midi": 81,
      "hit": false,
      "t": 175206.35796666687,
      "d": 1190.476250000007,
      "v": 120
    },
    {
      "midi": 93,
      "hit": false,
      "t": 175214.2944750001,
      "d": 7603.17498333336,
      "v": 100
    },
    {
      "midi": 81,
      "hit": false,
      "t": 175214.2944750001,
      "d": 7603.17498333336,
      "v": 100
    },
    {
      "midi": 74,
      "hit": false,
      "t": 175214.29447500015,
      "d": 3793.6509833333257,
      "v": 115
    },
    {
      "midi": 57,
      "hit": false,
      "t": 175238.1039999997,
      "d": 436.50795833332813,
      "v": 100
    },
    {
      "midi": 66,
      "hit": false,
      "t": 175238.1040000001,
      "d": 873.0159166666563,
      "v": 100
    },
    {
      "midi": 69,
      "hit": false,
      "t": 175238.1040000001,
      "d": 873.0159166666563,
      "v": 100
    },
    {
      "midi": 74,
      "hit": false,
      "t": 175238.1040000001,
      "d": 873.0159166666563,
      "v": 100
    },
    {
      "midi": 66,
      "hit": false,
      "t": 175238.10400000014,
      "d": 912.6984583333833,
      "v": 120
    },
    {
      "midi": 69,
      "hit": false,
      "t": 175238.10400000014,
      "d": 912.6984583333833,
      "v": 120
    },
    {
      "midi": 74,
      "hit": false,
      "t": 175238.10400000014,
      "d": 912.6984583333833,
      "v": 120
    },
    {
      "midi": 38,
      "hit": false,
      "t": 175238.10400000098,
      "d": 412.69843333333847,
      "v": 118
    },
    {
      "midi": 50,
      "hit": false,
      "t": 175238.1040000012,
      "d": 436.50795833332813,
      "v": 115
    },
    {
      "midi": 57,
      "hit": false,
      "t": 175238.1040000012,
      "d": 436.50795833332813,
      "v": 115
    },
    {
      "midi": 2,
      "hit": false,
      "t": 175238.10400000136,
      "d": 7.936508333339589,
      "v": 123
    },
    {
      "midi": 40,
      "hit": false,
      "t": 175238.10400000136,
      "d": 7.936508333339589,
      "v": 127
    },
    {
      "midi": 49,
      "hit": false,
      "t": 175238.10400000136,
      "d": 7.936508333339589,
      "v": 115
    },
    {
      "midi": 74,
      "hit": false,
      "t": 175253.9770166663,
      "d": 1825.3969166666502,
      "v": 90
    },
    {
      "midi": 54,
      "hit": false,
      "t": 175261.91352500138,
      "d": 7.936508333339589,
      "v": 100
    },
    {
      "midi": 76,
      "hit": false,
      "t": 175301.5960666663,
      "d": 1825.3969166666502,
      "v": 90
    },
    {
      "midi": 78,
      "hit": false,
      "t": 175333.34209999963,
      "d": 1825.3969166666502,
      "v": 90
    },
    {
      "midi": 54,
      "hit": false,
      "t": 175476.19925000137,
      "d": 7.936508333339589,
      "v": 60
    },
    {
      "midi": 62,
      "hit": false,
      "t": 175714.2944999997,
      "d": 214.28572499999427,
      "v": 100
    },
    {
      "midi": 38,
      "hit": false,
      "t": 175714.29450000098,
      "d": 412.69843333333847,
      "v": 112
    },
    {
      "midi": 50,
      "hit": false,
      "t": 175714.2945000012,
      "d": 79.36508333333768,
      "v": 100
    },
    {
      "midi": 57,
      "hit": false,
      "t": 175714.2945000012,
      "d": 79.36508333333768,
      "v": 100
    },
    {
      "midi": 42,
      "hit": false,
      "t": 175714.2945000014,
      "d": 7.936508333339589,
      "v": 100
    },
    {
      "midi": 54,
      "hit": false,
      "t": 175714.2945000014,
      "d": 7.936508333339589,
      "v": 60
    },
    {
      "midi": 57,
      "hit": false,
      "t": 175952.38974999968,
      "d": 214.28572499999427,
      "v": 100
    },
    {
      "midi": 57,
      "hit": false,
      "t": 175952.38974999994,
      "d": 214.28572499999427,
      "v": 119
    },
    {
      "midi": 62,
      "hit": false,
      "t": 175952.38974999994,
      "d": 214.28572499999427,
      "v": 119
    },
    {
      "midi": 66,
      "hit": false,
      "t": 175952.38974999994,
      "d": 214.28572499999427,
      "v": 119
    },
    {
      "midi": 54,
      "hit": false,
      "t": 175952.3897500014,
      "d": 7.936508333339589,
      "v": 60
    },
    {
      "midi": 64,
      "hit": false,
      "t": 176190.48499999967,
      "d": 214.28572499999427,
      "v": 100
    },
    {
      "midi": 50,
      "hit": false,
      "t": 176190.4850000002,
      "d": 119.04762500000652,
      "v": 115
    },
    {
      "midi": 57,
      "hit": false,
      "t": 176190.4850000002,
      "d": 119.04762500000652,
      "v": 115
    },
    {
      "midi": 38,
      "hit": false,
      "t": 176190.48500000098,
      "d": 412.69843333333847,
      "v": 112
    },
    {
      "midi": 50,
      "hit": false,
      "t": 176190.4850000012,
      "d": 79.36508333333768,
      "v": 100
    },
    {
      "midi": 57,
      "hit": false,
      "t": 176190.4850000012,
      "d": 79.36508333333768,
      "v": 100
    },
    {
      "midi": 40,
      "hit": false,
      "t": 176190.4850000014,
      "d": 7.936508333339589,
      "v": 127
    },
    {
      "midi": 42,
      "hit": false,
      "t": 176190.4850000014,
      "d": 7.936508333339589,
      "v": 100
    },
    {
      "midi": 54,
      "hit": false,
      "t": 176190.4850000014,
      "d": 7.936508333339589,
      "v": 100
    },
    {
      "midi": 62,
      "hit": false,
      "t": 176428.58024999965,
      "d": 214.28572499999427,
      "v": 100
    },
    {
      "midi": 54,
      "hit": false,
      "t": 176428.58025000143,
      "d": 7.936508333339589,
      "v": 60
    },
    {
      "midi": 57,
      "hit": false,
      "t": 176650.80248333327,
      "d": 634.9206666666723,
      "v": 119
    },
    {
      "midi": 62,
      "hit": false,
      "t": 176650.80248333327,
      "d": 634.9206666666723,
      "v": 119
    },
    {
      "midi": 66,
      "hit": false,
      "t": 176650.80248333327,
      "d": 634.9206666666723,
      "v": 119
    },
    {
      "midi": 62,
      "hit": false,
      "t": 176666.67549999963,
      "d": 214.28572499999427,
      "v": 100
    },
    {
      "midi": 50,
      "hit": false,
      "t": 176666.6755000002,
      "d": 119.04762500000652,
      "v": 115
    },
    {
      "midi": 57,
      "hit": false,
      "t": 176666.6755000002,
      "d": 119.04762500000652,
      "v": 115
    },
    {
      "midi": 38,
      "hit": false,
      "t": 176666.67550000097,
      "d": 412.69843333333847,
      "v": 112
    },
    {
      "midi": 50,
      "hit": false,
      "t": 176666.6755000012,
      "d": 436.50795833332813,
      "v": 115
    },
    {
      "midi": 57,
      "hit": false,
      "t": 176666.6755000012,
      "d": 436.50795833332813,
      "v": 115
    },
    {
      "midi": 42,
      "hit": false,
      "t": 176666.67550000144,
      "d": 7.936508333339589,
      "v": 100
    },
    {
      "midi": 54,
      "hit": false,
      "t": 176666.67550000144,
      "d": 7.936508333339589,
      "v": 65
    },
    {
      "midi": 64,
      "hit": false,
      "t": 176904.77074999962,
      "d": 214.28572499999427,
      "v": 100
    },
    {
      "midi": 54,
      "hit": false,
      "t": 176904.77075000145,
      "d": 7.936508333339589,
      "v": 60
    },
    {
      "midi": 69,
      "hit": false,
      "t": 177142.8659999996,
      "d": 214.28572499999427,
      "v": 100
    },
    {
      "midi": 66,
      "hit": false,
      "t": 177142.8660000001,
      "d": 436.50795833332813,
      "v": 100
    },
    {
      "midi": 69,
      "hit": false,
      "t": 177142.8660000001,
      "d": 436.50795833332813,
      "v": 100
    },
    {
      "midi": 74,
      "hit": false,
      "t": 177142.8660000001,
      "d": 436.50795833332813,
      "v": 100
    },
    {
      "midi": 50,
      "hit": false,
      "t": 177142.86600000018,
      "d": 119.04762500000652,
      "v": 115
    },
    {
      "midi": 57,
      "hit": false,
      "t": 177142.86600000018,
      "d": 119.04762500000652,
      "v": 115
    },
    {
      "midi": 81,
      "hit": false,
      "t": 177142.8660000002,
      "d": 436.50795833332813,
      "v": 120
    },
    {
      "midi": 38,
      "hit": false,
      "t": 177142.86600000097,
      "d": 412.69843333333847,
      "v": 112
    },
    {
      "midi": 50,
      "hit": false,
      "t": 177142.8660000012,
      "d": 79.36508333333768,
      "v": 100
    },
    {
      "midi": 57,
      "hit": false,
      "t": 177142.8660000012,
      "d": 79.36508333333768,
      "v": 100
    },
    {
      "midi": 40,
      "hit": false,
      "t": 177142.86600000146,
      "d": 7.936508333339589,
      "v": 127
    },
    {
      "midi": 42,
      "hit": false,
      "t": 177142.86600000146,
      "d": 7.936508333339589,
      "v": 115
    },
    {
      "midi": 54,
      "hit": false,
      "t": 177142.86600000146,
      "d": 7.936508333339589,
      "v": 100
    },
    {
      "midi": 57,
      "hit": false,
      "t": 177365.08823333328,
      "d": 214.28572499999427,
      "v": 119
    },
    {
      "midi": 62,
      "hit": false,
      "t": 177365.08823333328,
      "d": 214.28572499999427,
      "v": 119
    },
    {
      "midi": 66,
      "hit": false,
      "t": 177365.08823333328,
      "d": 214.28572499999427,
      "v": 119
    },
    {
      "midi": 62,
      "hit": false,
      "t": 177380.9612499996,
      "d": 214.28572499999427,
      "v": 100
    },
    {
      "midi": 54,
      "hit": false,
      "t": 177380.96125000148,
      "d": 7.936508333339589,
      "v": 60
    },
    {
      "midi": 62,
      "hit": false,
      "t": 177619.05649999957,
      "d": 214.28572499999427,
      "v": 100
    },
    {
      "midi": 66,
      "hit": false,
      "t": 177619.0565000001,
      "d": 436.50795833332813,
      "v": 100
    },
    {
      "midi": 69,
      "hit": false,
      "t": 177619.0565000001,
      "d": 436.50795833332813,
      "v": 100
    },
    {
      "midi": 74,
      "hit": false,
      "t": 177619.0565000001,
      "d": 436.50795833332813,
      "v": 100
    },
    {
      "midi": 50,
      "hit": false,
      "t": 177619.05650000018,
      "d": 119.04762500000652,
      "v": 115
    },
    {
      "midi": 57,
      "hit": false,
      "t": 177619.05650000018,
      "d": 119.04762500000652,
      "v": 115
    },
    {
      "midi": 79,
      "hit": false,
      "t": 177619.0565000002,
      "d": 436.50795833332813,
      "v": 120
    },
    {
      "midi": 38,
      "hit": false,
      "t": 177619.05650000097,
      "d": 412.69843333333847,
      "v": 112
    },
    {
      "midi": 50,
      "hit": false,
      "t": 177619.0565000012,
      "d": 79.36508333333768,
      "v": 100
    },
    {
      "midi": 57,
      "hit": false,
      "t": 177619.0565000012,
      "d": 79.36508333333768,
      "v": 100
    },
    {
      "midi": 2,
      "hit": false,
      "t": 177619.0565000015,
      "d": 7.936508333339589,
      "v": 120
    },
    {
      "midi": 42,
      "hit": false,
      "t": 177619.0565000015,
      "d": 7.936508333339589,
      "v": 100
    },
    {
      "midi": 54,
      "hit": false,
      "t": 177619.0565000015,
      "d": 7.936508333339589,
      "v": 60
    },
    {
      "midi": 69,
      "hit": false,
      "t": 177857.15174999955,
      "d": 214.28572499999427,
      "v": 100
    },
    {
      "midi": 54,
      "hit": false,
      "t": 177857.1517500015,
      "d": 7.936508333339589,
      "v": 60
    },
    {
      "midi": 57,
      "hit": false,
      "t": 178079.37398333327,
      "d": 873.0159166666563,
      "v": 119
    },
    {
      "midi": 62,
      "hit": false,
      "t": 178079.37398333327,
      "d": 873.0159166666563,
      "v": 119
    },
    {
      "midi": 66,
      "hit": false,
      "t": 178079.37398333327,
      "d": 873.0159166666563,
      "v": 119
    },
    {
      "midi": 64,
      "hit": false,
      "t": 178095.24699999954,
      "d": 214.28572499999427,
      "v": 100
    },
    {
      "midi": 66,
      "hit": false,
      "t": 178095.2470000001,
      "d": 436.50795833332813,
      "v": 100
    },
    {
      "midi": 69,
      "hit": false,
      "t": 178095.2470000001,
      "d": 436.50795833332813,
      "v": 100
    },
    {
      "midi": 74,
      "hit": false,
      "t": 178095.2470000001,
      "d": 436.50795833332813,
      "v": 100
    },
    {
      "midi": 50,
      "hit": false,
      "t": 178095.24700000018,
      "d": 912.698458333296,
      "v": 120
    },
    {
      "midi": 57,
      "hit": false,
      "t": 178095.24700000018,
      "d": 912.698458333296,
      "v": 120
    },
    {
      "midi": 78,
      "hit": false,
      "t": 178095.2470000002,
      "d": 436.50795833332813,
      "v": 120
    },
    {
      "midi": 38,
      "hit": false,
      "t": 178095.24700000096,
      "d": 412.69843333333847,
      "v": 112
    },
    {
      "midi": 50,
      "hit": false,
      "t": 178095.2470000012,
      "d": 436.50795833332813,
      "v": 115
    },
    {
      "midi": 57,
      "hit": false,
      "t": 178095.2470000012,
      "d": 436.50795833332813,
      "v": 115
    },
    {
      "midi": 40,
      "hit": false,
      "t": 178095.24700000152,
      "d": 7.936508333339589,
      "v": 127
    },
    {
      "midi": 42,
      "hit": false,
      "t": 178095.24700000152,
      "d": 7.936508333339589,
      "v": 100
    },
    {
      "midi": 54,
      "hit": false,
      "t": 178095.24700000152,
      "d": 7.936508333339589,
      "v": 100
    },
    {
      "midi": 62,
      "hit": false,
      "t": 178333.34224999952,
      "d": 214.28572499999427,
      "v": 100
    },
    {
      "midi": 54,
      "hit": false,
      "t": 178333.34225000153,
      "d": 7.936508333339589,
      "v": 60
    },
    {
      "midi": 69,
      "hit": false,
      "t": 178571.4374999995,
      "d": 214.28572499999427,
      "v": 100
    },
    {
      "midi": 66,
      "hit": false,
      "t": 178571.4375000001,
      "d": 436.50795833332813,
      "v": 100
    },
    {
      "midi": 69,
      "hit": false,
      "t": 178571.4375000001,
      "d": 436.50795833332813,
      "v": 100
    },
    {
      "midi": 74,
      "hit": false,
      "t": 178571.4375000001,
      "d": 436.50795833332813,
      "v": 100
    },
    {
      "midi": 79,
      "hit": false,
      "t": 178571.4375000002,
      "d": 436.50795833332813,
      "v": 120
    },
    {
      "midi": 38,
      "hit": false,
      "t": 178571.43750000096,
      "d": 412.69843333333847,
      "v": 112
    },
    {
      "midi": 50,
      "hit": false,
      "t": 178571.4375000012,
      "d": 198.4127083333442,
      "v": 100
    },
    {
      "midi": 57,
      "hit": false,
      "t": 178571.4375000012,
      "d": 198.4127083333442,
      "v": 100
    },
    {
      "midi": 2,
      "hit": false,
      "t": 178571.43750000154,
      "d": 7.936508333339589,
      "v": 120
    },
    {
      "midi": 42,
      "hit": false,
      "t": 178571.43750000154,
      "d": 7.936508333339589,
      "v": 100
    },
    {
      "midi": 54,
      "hit": false,
      "t": 178571.43750000154,
      "d": 7.936508333339589,
      "v": 60
    },
    {
      "midi": 62,
      "hit": false,
      "t": 178809.5327499995,
      "d": 214.28572499999427,
      "v": 100
    },
    {
      "midi": 50,
      "hit": false,
      "t": 178809.5327500012,
      "d": 198.4127083333442,
      "v": 100
    },
    {
      "midi": 57,
      "hit": false,
      "t": 178809.5327500012,
      "d": 198.4127083333442,
      "v": 100
    },
    {
      "midi": 54,
      "hit": false,
      "t": 178809.53275000156,
      "d": 7.936508333339589,
      "v": 65
    },
    {
      "midi": 57,
      "hit": false,
      "t": 179015.88196666658,
      "d": 634.9206666666723,
      "v": 119
    },
    {
      "midi": 64,
      "hit": false,
      "t": 179015.88196666658,
      "d": 634.9206666666723,
      "v": 119
    },
    {
      "midi": 61,
      "hit": false,
      "t": 179015.88196666658,
      "d": 634.9206666666723,
      "v": 119
    },
    {
      "midi": 59,
      "hit": false,
      "t": 179015.88196666658,
      "d": 634.9206666666723,
      "v": 119
    },
    {
      "midi": 81,
      "hit": false,
      "t": 179015.88196666687,
      "d": 1190.476250000007,
      "v": 120
    },
    {
      "midi": 57,
      "hit": false,
      "t": 179047.62799999947,
      "d": 214.28572499999427,
      "v": 100
    },
    {
      "midi": 64,
      "hit": false,
      "t": 179047.62800000008,
      "d": 1349.2064166666532,
      "v": 100
    },
    {
      "midi": 69,
      "hit": false,
      "t": 179047.62800000008,
      "d": 1349.2064166666532,
      "v": 100
    },
    {
      "midi": 73,
      "hit": false,
      "t": 179047.62800000008,
      "d": 1349.2064166666532,
      "v": 100
    },
    {
      "midi": 73,
      "hit": false,
      "t": 179047.62800000014,
      "d": 3793.6509833333257,
      "v": 115
    },
    {
      "midi": 45,
      "hit": false,
      "t": 179047.62800000014,
      "d": 912.6984583333251,
      "v": 120
    },
    {
      "midi": 52,
      "hit": false,
      "t": 179047.62800000014,
      "d": 912.6984583333251,
      "v": 120
    },
    {
      "midi": 33,
      "hit": false,
      "t": 179047.62800000096,
      "d": 412.69843333333847,
      "v": 118
    },
    {
      "midi": 45,
      "hit": false,
      "t": 179047.62800000122,
      "d": 436.50795833332813,
      "v": 115
    },
    {
      "midi": 52,
      "hit": false,
      "t": 179047.62800000122,
      "d": 436.50795833332813,
      "v": 115
    },
    {
      "midi": 2,
      "hit": false,
      "t": 179047.62800000157,
      "d": 7.936508333339589,
      "v": 123
    },
    {
      "midi": 54,
      "hit": false,
      "t": 179047.62800000157,
      "d": 7.936508333339589,
      "v": 100
    },
    {
      "midi": 42,
      "hit": false,
      "t": 179047.62800000157,
      "d": 7.936508333339589,
      "v": 115
    },
    {
      "midi": 40,
      "hit": false,
      "t": 179047.62800000157,
      "d": 7.936508333339589,
      "v": 127
    },
    {
      "midi": 54,
      "hit": false,
      "t": 179261.91372500156,
      "d": 7.936508333339589,
      "v": 60
    },
    {
      "midi": 69,
      "hit": false,
      "t": 179285.72324999946,
      "d": 214.28572499999427,
      "v": 100
    },
    {
      "midi": 54,
      "hit": false,
      "t": 179500.00897500158,
      "d": 7.936508333339589,
      "v": 60
    },
    {
      "midi": 61,
      "hit": false,
      "t": 179523.81849999944,
      "d": 214.28572499999427,
      "v": 100
    },
    {
      "midi": 33,
      "hit": false,
      "t": 179523.81850000095,
      "d": 412.69843333333847,
      "v": 112
    },
    {
      "midi": 45,
      "hit": false,
      "t": 179523.81850000122,
      "d": 79.36508333333768,
      "v": 100
    },
    {
      "midi": 52,
      "hit": false,
      "t": 179523.81850000122,
      "d": 79.36508333333768,
      "v": 100
    },
    {
      "midi": 42,
      "hit": false,
      "t": 179523.8185000016,
      "d": 7.936508333339589,
      "v": 100
    },
    {
      "midi": 54,
      "hit": false,
      "t": 179738.1042250016,
      "d": 7.936508333339589,
      "v": 60
    },
    {
      "midi": 57,
      "hit": false,
      "t": 179746.04073333324,
      "d": 214.28572499999427,
      "v": 119
    },
    {
      "midi": 64,
      "hit": false,
      "t": 179746.04073333324,
      "d": 214.28572499999427,
      "v": 119
    },
    {
      "midi": 61,
      "hit": false,
      "t": 179746.04073333324,
      "d": 214.28572499999427,
      "v": 119
    },
    {
      "midi": 59,
      "hit": false,
      "t": 179746.04073333324,
      "d": 214.28572499999427,
      "v": 119
    },
    {
      "midi": 57,
      "hit": false,
      "t": 179761.91374999942,
      "d": 214.28572499999427,
      "v": 100
    },
    {
      "midi": 54,
      "hit": false,
      "t": 179976.1994750016,
      "d": 7.936508333339589,
      "v": 100
    },
    {
      "midi": 64,
      "hit": false,
      "t": 180000.0089999994,
      "d": 214.28572499999427,
      "v": 100
    },
    {
      "midi": 45,
      "hit": false,
      "t": 180000.00900000014,
      "d": 119.04762500000652,
      "v": 115
    },
    {
      "midi": 52,
      "hit": false,
      "t": 180000.00900000014,
      "d": 119.04762500000652,
      "v": 115
    },
    {
      "midi": 33,
      "hit": false,
      "t": 180000.00900000095,
      "d": 412.69843333333847,
      "v": 112
    },
    {
      "midi": 52,
      "hit": false,
      "t": 180000.0090000012,
      "d": 79.36508333333768,
      "v": 100
    },
    {
      "midi": 45,
      "hit": false,
      "t": 180000.0090000012,
      "d": 79.36508333333768,
      "v": 100
    },
    {
      "midi": 40,
      "hit": false,
      "t": 180000.00900000162,
      "d": 7.936508333339589,
      "v": 127
    },
    {
      "midi": 42,
      "hit": false,
      "t": 180000.00900000162,
      "d": 7.936508333339589,
      "v": 100
    },
    {
      "midi": 54,
      "hit": false,
      "t": 180214.29472500162,
      "d": 7.936508333339589,
      "v": 60
    },
    {
      "midi": 61,
      "hit": false,
      "t": 180238.1042499994,
      "d": 214.28572499999427,
      "v": 100
    },
    {
      "midi": 54,
      "hit": false,
      "t": 180452.38997500163,
      "d": 7.936508333339589,
      "v": 65
    },
    {
      "midi": 57,
      "hit": false,
      "t": 180460.32648333322,
      "d": 873.0159166666563,
      "v": 119
    },
    {
      "midi": 64,
      "hit": false,
      "t": 180460.32648333322,
      "d": 873.0159166666563,
      "v": 119
    },
    {
      "midi": 61,
      "hit": false,
      "t": 180460.32648333322,
      "d": 873.0159166666563,
      "v": 119
    },
    {
      "midi": 59,
      "hit": false,
      "t": 180460.32648333322,
      "d": 873.0159166666563,
      "v": 119
    },
    {
      "midi": 61,
      "hit": false,
      "t": 180476.19949999938,
      "d": 214.28572499999427,
      "v": 100
    },
    {
      "midi": 64,
      "hit": false,
      "t": 180476.19950000008,
      "d": 436.50795833332813,
      "v": 100
    },
    {
      "midi": 69,
      "hit": false,
      "t": 180476.19950000008,
      "d": 436.50795833332813,
      "v": 100
    },
    {
      "midi": 73,
      "hit": false,
      "t": 180476.19950000008,
      "d": 436.50795833332813,
      "v": 100
    },
    {
      "midi": 45,
      "hit": false,
      "t": 180476.19950000013,
      "d": 119.04762500000652,
      "v": 115
    },
    {
      "midi": 52,
      "hit": false,
      "t": 180476.19950000013,
      "d": 119.04762500000652,
      "v": 115
    },
    {
      "midi": 76,
      "hit": false,
      "t": 180476.19950000022,
      "d": 436.50795833332813,
      "v": 120
    },
    {
      "midi": 33,
      "hit": false,
      "t": 180476.19950000095,
      "d": 412.69843333333847,
      "v": 112
    },
    {
      "midi": 45,
      "hit": false,
      "t": 180476.1995000012,
      "d": 436.50795833332813,
      "v": 115
    },
    {
      "midi": 52,
      "hit": false,
      "t": 180476.1995000012,
      "d": 436.50795833332813,
      "v": 115
    },
    {
      "midi": 42,
      "hit": false,
      "t": 180476.19950000165,
      "d": 7.936508333339589,
      "v": 100
    },
    {
      "midi": 54,
      "hit": false,
      "t": 180690.48522500164,
      "d": 7.936508333339589,
      "v": 60
    },
    {
      "midi": 64,
      "hit": false,
      "t": 180714.29474999936,
      "d": 214.28572499999427,
      "v": 100
    },
    {
      "midi": 54,
      "hit": false,
      "t": 180928.58047500165,
      "d": 7.936508333339589,
      "v": 100
    },
    {
      "midi": 69,
      "hit": false,
      "t": 180952.38999999934,
      "d": 214.28572499999427,
      "v": 100
    },
    {
      "midi": 64,
      "hit": false,
      "t": 180952.39000000007,
      "d": 873.0159166666563,
      "v": 100
    },
    {
      "midi": 69,
      "hit": false,
      "t": 180952.39000000007,
      "d": 873.0159166666563,
      "v": 100
    },
    {
      "midi": 73,
      "hit": false,
      "t": 180952.39000000007,
      "d": 873.0159166666563,
      "v": 100
    },
    {
      "midi": 45,
      "hit": false,
      "t": 180952.39000000013,
      "d": 119.04762500000652,
      "v": 115
    },
    {
      "midi": 52,
      "hit": false,
      "t": 180952.39000000013,
      "d": 119.04762500000652,
      "v": 115
    },
    {
      "midi": 76,
      "hit": false,
      "t": 180952.39000000022,
      "d": 873.0159166666563,
      "v": 120
    },
    {
      "midi": 33,
      "hit": false,
      "t": 180952.39000000095,
      "d": 412.69843333333847,
      "v": 112
    },
    {
      "midi": 45,
      "hit": false,
      "t": 180952.3900000012,
      "d": 79.36508333333768,
      "v": 100
    },
    {
      "midi": 52,
      "hit": false,
      "t": 180952.3900000012,
      "d": 79.36508333333768,
      "v": 100
    },
    {
      "midi": 40,
      "hit": false,
      "t": 180952.39000000167,
      "d": 7.936508333339589,
      "v": 127
    },
    {
      "midi": 42,
      "hit": false,
      "t": 180952.39000000167,
      "d": 7.936508333339589,
      "v": 115
    },
    {
      "midi": 54,
      "hit": false,
      "t": 181166.67572500167,
      "d": 7.936508333339589,
      "v": 60
    },
    {
      "midi": 61,
      "hit": false,
      "t": 181190.48524999933,
      "d": 214.28572499999427,
      "v": 100
    },
    {
      "midi": 54,
      "hit": false,
      "t": 181404.77097500168,
      "d": 7.936508333339589,
      "v": 60
    },
    {
      "midi": 57,
      "hit": false,
      "t": 181412.70748333322,
      "d": 436.50795833332813,
      "v": 119
    },
    {
      "midi": 64,
      "hit": false,
      "t": 181412.70748333322,
      "d": 436.50795833332813,
      "v": 119
    },
    {
      "midi": 61,
      "hit": false,
      "t": 181412.70748333322,
      "d": 436.50795833332813,
      "v": 119
    },
    {
      "midi": 59,
      "hit": false,
      "t": 181412.70748333322,
      "d": 436.50795833332813,
      "v": 119
    },
    {
      "midi": 64,
      "hit": false,
      "t": 181428.5804999993,
      "d": 214.28572499999427,
      "v": 100
    },
    {
      "midi": 45,
      "hit": false,
      "t": 181428.58050000013,
      "d": 119.04762500000652,
      "v": 115
    },
    {
      "midi": 52,
      "hit": false,
      "t": 181428.58050000013,
      "d": 119.04762500000652,
      "v": 115
    },
    {
      "midi": 33,
      "hit": false,
      "t": 181428.58050000094,
      "d": 412.69843333333847,
      "v": 112
    },
    {
      "midi": 52,
      "hit": false,
      "t": 181428.5805000012,
      "d": 79.36508333333768,
      "v": 100
    },
    {
      "midi": 45,
      "hit": false,
      "t": 181428.5805000012,
      "d": 79.36508333333768,
      "v": 100
    },
    {
      "midi": 2,
      "hit": false,
      "t": 181428.5805000017,
      "d": 7.936508333339589,
      "v": 120
    },
    {
      "midi": 42,
      "hit": false,
      "t": 181428.5805000017,
      "d": 7.936508333339589,
      "v": 100
    },
    {
      "midi": 54,
      "hit": false,
      "t": 181642.8662250017,
      "d": 7.936508333339589,
      "v": 60
    },
    {
      "midi": 69,
      "hit": false,
      "t": 181666.6757499993,
      "d": 214.28572499999427,
      "v": 100
    },
    {
      "midi": 54,
      "hit": false,
      "t": 181880.9614750017,
      "d": 7.936508333339589,
      "v": 100
    },
    {
      "midi": 69,
      "hit": false,
      "t": 181904.77099999928,
      "d": 214.28572499999427,
      "v": 100
    },
    {
      "midi": 64,
      "hit": false,
      "t": 181904.77100000007,
      "d": 436.50795833332813,
      "v": 100
    },
    {
      "midi": 69,
      "hit": false,
      "t": 181904.77100000007,
      "d": 436.50795833332813,
      "v": 100
    },
    {
      "midi": 73,
      "hit": false,
      "t": 181904.77100000007,
      "d": 436.50795833332813,
      "v": 100
    },
    {
      "midi": 45,
      "hit": false,
      "t": 181904.77100000015,
      "d": 912.6984583333542,
      "v": 120
    },
    {
      "midi": 52,
      "hit": false,
      "t": 181904.77100000015,
      "d": 912.6984583333542,
      "v": 120
    },
    {
      "midi": 78,
      "hit": false,
      "t": 181904.7710000002,
      "d": 436.50795833332813,
      "v": 120
    },
    {
      "midi": 37,
      "hit": false,
      "t": 181904.77100000094,
      "d": 412.69843333333847,
      "v": 112
    },
    {
      "midi": 45,
      "hit": false,
      "t": 181904.7710000012,
      "d": 873.0159166666272,
      "v": 115
    },
    {
      "midi": 52,
      "hit": false,
      "t": 181904.7710000012,
      "d": 873.0159166666272,
      "v": 115
    },
    {
      "midi": 40,
      "hit": false,
      "t": 181904.77100000173,
      "d": 7.936508333339589,
      "v": 127
    },
    {
      "midi": 42,
      "hit": false,
      "t": 181904.77100000173,
      "d": 7.936508333339589,
      "v": 100
    },
    {
      "midi": 54,
      "hit": false,
      "t": 182119.05672500172,
      "d": 7.936508333339589,
      "v": 60
    },
    {
      "midi": 57,
      "hit": false,
      "t": 182126.9932333332,
      "d": 634.9206666666723,
      "v": 119
    },
    {
      "midi": 64,
      "hit": false,
      "t": 182126.9932333332,
      "d": 634.9206666666723,
      "v": 119
    },
    {
      "midi": 61,
      "hit": false,
      "t": 182126.9932333332,
      "d": 634.9206666666723,
      "v": 119
    },
    {
      "midi": 59,
      "hit": false,
      "t": 182126.9932333332,
      "d": 634.9206666666723,
      "v": 119
    },
    {
      "midi": 64,
      "hit": false,
      "t": 182142.86624999926,
      "d": 214.28572499999427,
      "v": 100
    },
    {
      "midi": 54,
      "hit": false,
      "t": 182357.15197500173,
      "d": 7.936508333339589,
      "v": 60
    },
    {
      "midi": 73,
      "hit": false,
      "t": 182380.96149999925,
      "d": 214.28572499999427,
      "v": 100
    },
    {
      "midi": 64,
      "hit": false,
      "t": 182380.96150000006,
      "d": 436.50795833332813,
      "v": 100
    },
    {
      "midi": 73,
      "hit": false,
      "t": 182380.96150000006,
      "d": 436.50795833332813,
      "v": 100
    },
    {
      "midi": 69,
      "hit": false,
      "t": 182380.96150000006,
      "d": 436.50795833332813,
      "v": 100
    },
    {
      "midi": 76,
      "hit": false,
      "t": 182380.9615000002,
      "d": 436.50795833332813,
      "v": 120
    },
    {
      "midi": 36,
      "hit": false,
      "t": 182380.96150000094,
      "d": 412.69843333333847,
      "v": 112
    },
    {
      "midi": 2,
      "hit": false,
      "t": 182380.96150000175,
      "d": 7.936508333339589,
      "v": 120
    },
    {
      "midi": 42,
      "hit": false,
      "t": 182380.96150000175,
      "d": 7.936508333339589,
      "v": 100
    },
    {
      "midi": 54,
      "hit": false,
      "t": 182595.24722500175,
      "d": 7.936508333339589,
      "v": 65
    },
    {
      "midi": 69,
      "hit": false,
      "t": 182619.05674999923,
      "d": 214.28572499999427,
      "v": 100
    },
    {
      "midi": 57,
      "hit": false,
      "t": 182825.40596666653,
      "d": 634.9206666666723,
      "v": 119
    },
    {
      "midi": 62,
      "hit": false,
      "t": 182825.40596666653,
      "d": 634.9206666666723,
      "v": 119
    },
    {
      "midi": 66,
      "hit": false,
      "t": 182825.40596666653,
      "d": 634.9206666666723,
      "v": 119
    },
    {
      "midi": 74,
      "hit": false,
      "t": 182825.40596666688,
      "d": 873.0159166666563,
      "v": 120
    },
    {
      "midi": 98,
      "hit": false,
      "t": 182833.34247500013,
      "d": 3809.524000000005,
      "v": 100
    },
    {
      "midi": 86,
      "hit": false,
      "t": 182833.34247500013,
      "d": 3809.524000000005,
      "v": 100
    },
    {
      "midi": 71,
      "hit": false,
      "t": 182833.34247500013,
      "d": 3793.6509833333257,
      "v": 115
    },
    {
      "midi": 59,
      "hit": false,
      "t": 182857.15199999922,
      "d": 436.50795833332813,
      "v": 100
    },
    {
      "midi": 62,
      "hit": false,
      "t": 182857.15200000006,
      "d": 873.0159166666563,
      "v": 100
    },
    {
      "midi": 66,
      "hit": false,
      "t": 182857.15200000006,
      "d": 873.0159166666563,
      "v": 100
    },
    {
      "midi": 71,
      "hit": false,
      "t": 182857.15200000006,
      "d": 873.0159166666563,
      "v": 100
    },
    {
      "midi": 47,
      "hit": false,
      "t": 182857.15200000018,
      "d": 912.6984583333251,
      "v": 120
    },
    {
      "midi": 54,
      "hit": false,
      "t": 182857.15200000018,
      "d": 912.6984583333251,
      "v": 120
    },
    {
      "midi": 35,
      "hit": false,
      "t": 182857.15200000093,
      "d": 412.69843333333847,
      "v": 118
    },
    {
      "midi": 47,
      "hit": false,
      "t": 182857.15200000117,
      "d": 436.50795833332813,
      "v": 115
    },
    {
      "midi": 54,
      "hit": false,
      "t": 182857.15200000117,
      "d": 436.50795833332813,
      "v": 115
    },
    {
      "midi": 2,
      "hit": false,
      "t": 182857.15200000175,
      "d": 7.936508333339589,
      "v": 123
    },
    {
      "midi": 54,
      "hit": false,
      "t": 182857.15200000175,
      "d": 7.936508333339589,
      "v": 100
    },
    {
      "midi": 42,
      "hit": false,
      "t": 182857.15200000175,
      "d": 7.936508333339589,
      "v": 115
    },
    {
      "midi": 40,
      "hit": false,
      "t": 182857.15200000175,
      "d": 7.936508333339589,
      "v": 127
    },
    {
      "midi": 54,
      "hit": false,
      "t": 183071.43772500174,
      "d": 7.936508333339589,
      "v": 60
    },
    {
      "midi": 54,
      "hit": false,
      "t": 183309.53297500176,
      "d": 7.936508333339589,
      "v": 60
    },
    {
      "midi": 62,
      "hit": false,
      "t": 183333.3424999992,
      "d": 214.28572499999427,
      "v": 100
    },
    {
      "midi": 35,
      "hit": false,
      "t": 183333.34250000093,
      "d": 412.69843333333847,
      "v": 112
    },
    {
      "midi": 47,
      "hit": false,
      "t": 183333.34250000116,
      "d": 79.36508333333768,
      "v": 100
    },
    {
      "midi": 54,
      "hit": false,
      "t": 183333.34250000116,
      "d": 79.36508333333768,
      "v": 100
    },
    {
      "midi": 42,
      "hit": false,
      "t": 183333.34250000177,
      "d": 7.936508333339589,
      "v": 100
    },
    {
      "midi": 54,
      "hit": false,
      "t": 183547.62822500177,
      "d": 7.936508333339589,
      "v": 60
    },
    {
      "midi": 57,
      "hit": false,
      "t": 183555.5647333332,
      "d": 214.28572499999427,
      "v": 119
    },
    {
      "midi": 62,
      "hit": false,
      "t": 183555.5647333332,
      "d": 214.28572499999427,
      "v": 119
    },
    {
      "midi": 66,
      "hit": false,
      "t": 183555.5647333332,
      "d": 214.28572499999427,
      "v": 119
    },
    {
      "midi": 59,
      "hit": false,
      "t": 183571.4377499992,
      "d": 214.28572499999427,
      "v": 100
    },
    {
      "midi": 54,
      "hit": false,
      "t": 183785.72347500178,
      "d": 7.936508333339589,
      "v": 100
    },
    {
      "midi": 66,
      "hit": false,
      "t": 183809.53299999918,
      "d": 214.28572499999427,
      "v": 100
    },
    {
      "midi": 47,
      "hit": false,
      "t": 183809.53300000017,
      "d": 119.04762500000652,
      "v": 115
    },
    {
      "midi": 54,
      "hit": false,
      "t": 183809.53300000017,
      "d": 119.04762500000652,
      "v": 115
    },
    {
      "midi": 35,
      "hit": false,
      "t": 183809.53300000093,
      "d": 412.69843333333847,
      "v": 112
    },
    {
      "midi": 54,
      "hit": false,
      "t": 183809.53300000116,
      "d": 79.36508333333768,
      "v": 100
    },
    {
      "midi": 47,
      "hit": false,
      "t": 183809.53300000116,
      "d": 79.36508333333768,
      "v": 100
    },
    {
      "midi": 40,
      "hit": false,
      "t": 183809.5330000018,
      "d": 7.936508333339589,
      "v": 127
    },
    {
      "midi": 42,
      "hit": false,
      "t": 183809.5330000018,
      "d": 7.936508333339589,
      "v": 100
    },
    {
      "midi": 54,
      "hit": false,
      "t": 184023.8187250018,
      "d": 7.936508333339589,
      "v": 60
    },
    {
      "midi": 64,
      "hit": false,
      "t": 184047.62824999916,
      "d": 214.28572499999427,
      "v": 100
    },
    {
      "midi": 54,
      "hit": false,
      "t": 184261.9139750018,
      "d": 7.936508333339589,
      "v": 65
    },
    {
      "midi": 57,
      "hit": false,
      "t": 184269.85048333317,
      "d": 634.9206666666723,
      "v": 119
    },
    {
      "midi": 62,
      "hit": false,
      "t": 184269.85048333317,
      "d": 634.9206666666723,
      "v": 119
    },
    {
      "midi": 66,
      "hit": false,
      "t": 184269.85048333317,
      "d": 634.9206666666723,
      "v": 119
    },
    {
      "midi": 64,
      "hit": false,
      "t": 184285.72349999915,
      "d": 214.28572499999427,
      "v": 100
    },
    {
      "midi": 62,
      "hit": false,
      "t": 184285.72350000005,
      "d": 436.50795833332813,
      "v": 100
    },
    {
      "midi": 66,
      "hit": false,
      "t": 184285.72350000005,
      "d": 436.50795833332813,
      "v": 100
    },
    {
      "midi": 71,
      "hit": false,
      "t": 184285.72350000005,
      "d": 436.50795833332813,
      "v": 100
    },
    {
      "midi": 54,
      "hit": false,
      "t": 184285.72350000017,
      "d": 119.04762500000652,
      "v": 115
    },
    {
      "midi": 47,
      "hit": false,
      "t": 184285.72350000017,
      "d": 119.04762500000652,
      "v": 115
    },
    {
      "midi": 73,
      "hit": false,
      "t": 184285.7235000002,
      "d": 436.50795833332813,
      "v": 120
    },
    {
      "midi": 35,
      "hit": false,
      "t": 184285.72350000092,
      "d": 412.69843333333847,
      "v": 112
    },
    {
      "midi": 47,
      "hit": false,
      "t": 184285.72350000116,
      "d": 436.50795833332813,
      "v": 115
    },
    {
      "midi": 54,
      "hit": false,
      "t": 184285.72350000116,
      "d": 436.50795833332813,
      "v": 115
    },
    {
      "midi": 42,
      "hit": false,
      "t": 184285.72350000183,
      "d": 7.936508333339589,
      "v": 100
    },
    {
      "midi": 54,
      "hit": false,
      "t": 184500.00922500182,
      "d": 7.936508333339589,
      "v": 60
    },
    {
      "midi": 66,
      "hit": false,
      "t": 184523.81874999913,
      "d": 214.28572499999427,
      "v": 100
    },
    {
      "midi": 54,
      "hit": false,
      "t": 184738.10447500183,
      "d": 7.936508333339589,
      "v": 100
    },
    {
      "midi": 71,
      "hit": false,
      "t": 184761.91399999912,
      "d": 214.28572499999427,
      "v": 100
    },
    {
      "midi": 62,
      "hit": false,
      "t": 184761.91400000005,
      "d": 436.50795833332813,
      "v": 100
    },
    {
      "midi": 66,
      "hit": false,
      "t": 184761.91400000005,
      "d": 436.50795833332813,
      "v": 100
    },
    {
      "midi": 71,
      "hit": false,
      "t": 184761.91400000005,
      "d": 436.50795833332813,
      "v": 100
    },
    {
      "midi": 54,
      "hit": false,
      "t": 184761.91400000016,
      "d": 119.04762500000652,
      "v": 115
    },
    {
      "midi": 47,
      "hit": false,
      "t": 184761.91400000016,
      "d": 119.04762500000652,
      "v": 115
    },
    {
      "midi": 74,
      "hit": false,
      "t": 184761.9140000002,
      "d": 436.50795833332813,
      "v": 120
    },
    {
      "midi": 35,
      "hit": false,
      "t": 184761.91400000092,
      "d": 412.69843333333847,
      "v": 112
    },
    {
      "midi": 47,
      "hit": false,
      "t": 184761.91400000115,
      "d": 79.36508333333768,
      "v": 100
    },
    {
      "midi": 54,
      "hit": false,
      "t": 184761.91400000115,
      "d": 79.36508333333768,
      "v": 100
    },
    {
      "midi": 40,
      "hit": false,
      "t": 184761.91400000185,
      "d": 7.936508333339589,
      "v": 127
    },
    {
      "midi": 42,
      "hit": false,
      "t": 184761.91400000185,
      "d": 7.936508333339589,
      "v": 115
    },
    {
      "midi": 54,
      "hit": false,
      "t": 184976.19972500185,
      "d": 7.936508333339589,
      "v": 60
    },
    {
      "midi": 57,
      "hit": false,
      "t": 184984.13623333318,
      "d": 214.28572499999427,
      "v": 119
    },
    {
      "midi": 62,
      "hit": false,
      "t": 184984.13623333318,
      "d": 214.28572499999427,
      "v": 119
    },
    {
      "midi": 66,
      "hit": false,
      "t": 184984.13623333318,
      "d": 214.28572499999427,
      "v": 119
    },
    {
      "midi": 62,
      "hit": false,
      "t": 185000.0092499991,
      "d": 214.28572499999427,
      "v": 100
    },
    {
      "midi": 54,
      "hit": false,
      "t": 185214.29497500186,
      "d": 7.936508333339589,
      "v": 60
    },
    {
      "midi": 62,
      "hit": false,
      "t": 185238.10449999908,
      "d": 214.28572499999427,
      "v": 100
    },
    {
      "midi": 62,
      "hit": false,
      "t": 185238.10450000004,
      "d": 436.50795833332813,
      "v": 100
    },
    {
      "midi": 66,
      "hit": false,
      "t": 185238.10450000004,
      "d": 436.50795833332813,
      "v": 100
    },
    {
      "midi": 71,
      "hit": false,
      "t": 185238.10450000004,
      "d": 436.50795833332813,
      "v": 100
    },
    {
      "midi": 54,
      "hit": false,
      "t": 185238.10450000016,
      "d": 119.04762500000652,
      "v": 115
    },
    {
      "midi": 47,
      "hit": false,
      "t": 185238.10450000016,
      "d": 119.04762500000652,
      "v": 115
    },
    {
      "midi": 76,
      "hit": false,
      "t": 185238.1045000002,
      "d": 436.50795833332813,
      "v": 120
    },
    {
      "midi": 35,
      "hit": false,
      "t": 185238.10450000092,
      "d": 412.69843333333847,
      "v": 112
    },
    {
      "midi": 54,
      "hit": false,
      "t": 185238.10450000115,
      "d": 79.36508333333768,
      "v": 100
    },
    {
      "midi": 47,
      "hit": false,
      "t": 185238.10450000115,
      "d": 79.36508333333768,
      "v": 100
    },
    {
      "midi": 2,
      "hit": false,
      "t": 185238.10450000188,
      "d": 7.936508333339589,
      "v": 120
    },
    {
      "midi": 42,
      "hit": false,
      "t": 185238.10450000188,
      "d": 7.936508333339589,
      "v": 100
    },
    {
      "midi": 54,
      "hit": false,
      "t": 185452.39022500187,
      "d": 7.936508333339589,
      "v": 60
    },
    {
      "midi": 71,
      "hit": false,
      "t": 185476.19974999907,
      "d": 214.28572499999427,
      "v": 100
    },
    {
      "midi": 54,
      "hit": false,
      "t": 185690.4854750019,
      "d": 7.936508333339589,
      "v": 100
    },
    {
      "midi": 66,
      "hit": false,
      "t": 185714.29499999905,
      "d": 214.28572499999427,
      "v": 100
    },
    {
      "midi": 62,
      "hit": false,
      "t": 185714.29500000004,
      "d": 436.50795833332813,
      "v": 100
    },
    {
      "midi": 66,
      "hit": false,
      "t": 185714.29500000004,
      "d": 436.50795833332813,
      "v": 100
    },
    {
      "midi": 71,
      "hit": false,
      "t": 185714.29500000004,
      "d": 436.50795833332813,
      "v": 100
    },
    {
      "midi": 47,
      "hit": false,
      "t": 185714.29500000016,
      "d": 912.6984583333251,
      "v": 120
    },
    {
      "midi": 54,
      "hit": false,
      "t": 185714.29500000016,
      "d": 912.6984583333251,
      "v": 120
    },
    {
      "midi": 78,
      "hit": false,
      "t": 185714.2950000002,
      "d": 436.50795833332813,
      "v": 120
    },
    {
      "midi": 35,
      "hit": false,
      "t": 185714.29500000092,
      "d": 412.69843333333847,
      "v": 112
    },
    {
      "midi": 47,
      "hit": false,
      "t": 185714.29500000115,
      "d": 436.50795833332813,
      "v": 115
    },
    {
      "midi": 54,
      "hit": false,
      "t": 185714.29500000115,
      "d": 436.50795833332813,
      "v": 115
    },
    {
      "midi": 40,
      "hit": false,
      "t": 185714.2950000019,
      "d": 7.936508333339589,
      "v": 127
    },
    {
      "midi": 42,
      "hit": false,
      "t": 185714.2950000019,
      "d": 7.936508333339589,
      "v": 100
    },
    {
      "midi": 54,
      "hit": false,
      "t": 185928.5807250019,
      "d": 7.936508333339589,
      "v": 60
    },
    {
      "midi": 57,
      "hit": false,
      "t": 185936.51723333317,
      "d": 634.9206666666723,
      "v": 119
    },
    {
      "midi": 62,
      "hit": false,
      "t": 185936.51723333317,
      "d": 634.9206666666723,
      "v": 119
    },
    {
      "midi": 66,
      "hit": false,
      "t": 185936.51723333317,
      "d": 634.9206666666723,
      "v": 119
    },
    {
      "midi": 62,
      "hit": false,
      "t": 185952.39024999904,
      "d": 214.28572499999427,
      "v": 100
    },
    {
      "midi": 54,
      "hit": false,
      "t": 186166.6759750019,
      "d": 7.936508333339589,
      "v": 60
    },
    {
      "midi": 71,
      "hit": false,
      "t": 186190.48549999902,
      "d": 214.28572499999427,
      "v": 100
    },
    {
      "midi": 62,
      "hit": false,
      "t": 186190.48550000004,
      "d": 436.50795833332813,
      "v": 100
    },
    {
      "midi": 66,
      "hit": false,
      "t": 186190.48550000004,
      "d": 436.50795833332813,
      "v": 100
    },
    {
      "midi": 71,
      "hit": false,
      "t": 186190.48550000004,
      "d": 436.50795833332813,
      "v": 100
    },
    {
      "midi": 83,
      "hit": false,
      "t": 186190.48550000018,
      "d": 436.50795833332813,
      "v": 120
    },
    {
      "midi": 35,
      "hit": false,
      "t": 186190.4855000009,
      "d": 412.69843333333847,
      "v": 112
    },
    {
      "midi": 47,
      "hit": false,
      "t": 186190.48550000114,
      "d": 436.50795833332813,
      "v": 115
    },
    {
      "midi": 54,
      "hit": false,
      "t": 186190.48550000114,
      "d": 436.50795833332813,
      "v": 115
    },
    {
      "midi": 2,
      "hit": false,
      "t": 186190.48550000193,
      "d": 7.936508333339589,
      "v": 120
    },
    {
      "midi": 42,
      "hit": false,
      "t": 186190.48550000193,
      "d": 7.936508333339589,
      "v": 100
    },
    {
      "midi": 54,
      "hit": false,
      "t": 186404.77122500192,
      "d": 7.936508333339589,
      "v": 65
    },
    {
      "midi": 66,
      "hit": false,
      "t": 186428.580749999,
      "d": 214.28572499999427,
      "v": 100
    },
    {
      "midi": 57,
      "hit": false,
      "t": 186634.9299666665,
      "d": 436.50795833332813,
      "v": 119
    },
    {
      "midi": 61,
      "hit": false,
      "t": 186634.9299666665,
      "d": 436.50795833332813,
      "v": 119
    },
    {
      "midi": 66,
      "hit": false,
      "t": 186634.9299666665,
      "d": 436.50795833332813,
      "v": 119
    },
    {
      "midi": 81,
      "hit": false,
      "t": 186634.92996666685,
      "d": 2253.968366666697,
      "v": 120
    },
    {
      "midi": 73,
      "hit": false,
      "t": 186642.86647500013,
      "d": 3809.524000000005,
      "v": 100
    },
    {
      "midi": 81,
      "hit": false,
      "t": 186642.86647500013,
      "d": 936.5079833333148,
      "v": 100
    },
    {
      "midi": 57,
      "hit": false,
      "t": 186666.675999999,
      "d": 214.28572499999427,
      "v": 100
    },
    {
      "midi": 61,
      "hit": false,
      "t": 186666.67600000004,
      "d": 1904.762000000046,
      "v": 100
    },
    {
      "midi": 66,
      "hit": false,
      "t": 186666.67600000004,
      "d": 1904.762000000046,
      "v": 100
    },
    {
      "midi": 73,
      "hit": false,
      "t": 186666.67600000004,
      "d": 1904.762000000046,
      "v": 100
    },
    {
      "midi": 93,
      "hit": false,
      "t": 186666.67600000012,
      "d": 936.5079833333148,
      "v": 100
    },
    {
      "midi": 42,
      "hit": false,
      "t": 186666.67600000015,
      "d": 912.6984583333251,
      "v": 120
    },
    {
      "midi": 49,
      "hit": false,
      "t": 186666.67600000015,
      "d": 912.6984583333251,
      "v": 120
    },
    {
      "midi": 30,
      "hit": false,
      "t": 186666.6760000009,
      "d": 412.69843333333847,
      "v": 118
    },
    {
      "midi": 42,
      "hit": false,
      "t": 186666.67600000114,
      "d": 436.50795833332813,
      "v": 115
    },
    {
      "midi": 49,
      "hit": false,
      "t": 186666.67600000114,
      "d": 436.50795833332813,
      "v": 115
    },
    {
      "midi": 54,
      "hit": false,
      "t": 186666.67600000193,
      "d": 7.936508333339589,
      "v": 100
    },
    {
      "midi": 42,
      "hit": false,
      "t": 186666.67600000193,
      "d": 7.936508333339589,
      "v": 115
    },
    {
      "midi": 40,
      "hit": false,
      "t": 186666.67600000193,
      "d": 7.936508333339589,
      "v": 127
    },
    {
      "midi": 2,
      "hit": false,
      "t": 186666.67600000193,
      "d": 7.936508333339589,
      "v": 123
    },
    {
      "midi": 54,
      "hit": false,
      "t": 186880.96172500192,
      "d": 7.936508333339589,
      "v": 60
    },
    {
      "midi": 71,
      "hit": false,
      "t": 186904.77124999897,
      "d": 214.28572499999427,
      "v": 100
    },
    {
      "midi": 54,
      "hit": false,
      "t": 187119.05697500193,
      "d": 7.936508333339589,
      "v": 60
    },
    {
      "midi": 54,
      "hit": false,
      "t": 187126.99348333315,
      "d": 214.28572499999427,
      "v": 119
    },
    {
      "midi": 66,
      "hit": false,
      "t": 187126.99348333315,
      "d": 214.28572499999427,
      "v": 119
    },
    {
      "midi": 61,
      "hit": false,
      "t": 187142.86649999896,
      "d": 214.28572499999427,
      "v": 100
    },
    {
      "midi": 30,
      "hit": false,
      "t": 187142.8665000009,
      "d": 412.69843333333847,
      "v": 112
    },
    {
      "midi": 42,
      "hit": false,
      "t": 187142.86650000114,
      "d": 79.36508333333768,
      "v": 100
    },
    {
      "midi": 49,
      "hit": false,
      "t": 187142.86650000114,
      "d": 79.36508333333768,
      "v": 100
    },
    {
      "midi": 42,
      "hit": false,
      "t": 187142.86650000195,
      "d": 7.936508333339589,
      "v": 100
    },
    {
      "midi": 54,
      "hit": false,
      "t": 187357.15222500195,
      "d": 7.936508333339589,
      "v": 60
    },
    {
      "midi": 66,
      "hit": false,
      "t": 187365.08873333313,
      "d": 436.50795833332813,
      "v": 119
    },
    {
      "midi": 54,
      "hit": false,
      "t": 187365.08873333313,
      "d": 436.50795833332813,
      "v": 119
    },
    {
      "midi": 57,
      "hit": false,
      "t": 187380.96174999894,
      "d": 214.28572499999427,
      "v": 100
    },
    {
      "midi": 54,
      "hit": false,
      "t": 187595.24747500196,
      "d": 7.936508333339589,
      "v": 100
    },
    {
      "midi": 62,
      "hit": false,
      "t": 187619.05699999892,
      "d": 214.28572499999427,
      "v": 100
    },
    {
      "midi": 91,
      "hit": false,
      "t": 187619.05700000012,
      "d": 936.5079833333439,
      "v": 100
    },
    {
      "midi": 79,
      "hit": false,
      "t": 187619.05700000012,
      "d": 936.5079833333439,
      "v": 100
    },
    {
      "midi": 42,
      "hit": false,
      "t": 187619.05700000015,
      "d": 119.04762500000652,
      "v": 115
    },
    {
      "midi": 49,
      "hit": false,
      "t": 187619.05700000015,
      "d": 119.04762500000652,
      "v": 115
    },
    {
      "midi": 30,
      "hit": false,
      "t": 187619.0570000009,
      "d": 412.69843333333847,
      "v": 112
    },
    {
      "midi": 49,
      "hit": false,
      "t": 187619.05700000114,
      "d": 79.36508333333768,
      "v": 100
    },
    {
      "midi": 42,
      "hit": false,
      "t": 187619.05700000114,
      "d": 79.36508333333768,
      "v": 100
    },
    {
      "midi": 40,
      "hit": false,
      "t": 187619.05700000198,
      "d": 7.936508333339589,
      "v": 127
    },
    {
      "midi": 42,
      "hit": false,
      "t": 187619.05700000198,
      "d": 7.936508333339589,
      "v": 100
    },
    {
      "midi": 54,
      "hit": false,
      "t": 187833.34272500197,
      "d": 7.936508333339589,
      "v": 60
    },
    {
      "midi": 54,
      "hit": false,
      "t": 187841.27923333313,
      "d": 214.28572499999427,
      "v": 119
    },
    {
      "midi": 66,
      "hit": false,
      "t": 187841.27923333313,
      "d": 214.28572499999427,
      "v": 119
    },
    {
      "midi": 61,
      "hit": false,
      "t": 187857.1522499989,
      "d": 214.28572499999427,
      "v": 100
    },
    {
      "midi": 54,
      "hit": false,
      "t": 188071.437975002,
      "d": 7.936508333339589,
      "v": 65
    },
    {
      "midi": 54,
      "hit": false,
      "t": 188079.37448333311,
      "d": 436.50795833332813,
      "v": 119
    },
    {
      "midi": 66,
      "hit": false,
      "t": 188079.37448333311,
      "d": 436.50795833332813,
      "v": 119
    },
    {
      "midi": 61,
      "hit": false,
      "t": 188095.2474999989,
      "d": 214.28572499999427,
      "v": 100
    },
    {
      "midi": 42,
      "hit": false,
      "t": 188095.24750000014,
      "d": 119.04762500000652,
      "v": 115
    },
    {
      "midi": 49,
      "hit": false,
      "t": 188095.24750000014,
      "d": 119.04762500000652,
      "v": 115
    },
    {
      "midi": 30,
      "hit": false,
      "t": 188095.2475000009,
      "d": 412.69843333333847,
      "v": 112
    },
    {
      "midi": 42,
      "hit": false,
      "t": 188095.24750000113,
      "d": 436.50795833332813,
      "v": 115
    },
    {
      "midi": 49,
      "hit": false,
      "t": 188095.24750000113,
      "d": 436.50795833332813,
      "v": 115
    },
    {
      "midi": 42,
      "hit": false,
      "t": 188095.247500002,
      "d": 7.936508333339589,
      "v": 100
    },
    {
      "midi": 54,
      "hit": false,
      "t": 188309.533225002,
      "d": 7.936508333339589,
      "v": 60
    },
    {
      "midi": 64,
      "hit": false,
      "t": 188333.34274999888,
      "d": 214.28572499999427,
      "v": 100
    },
    {
      "midi": 54,
      "hit": false,
      "t": 188547.628475002,
      "d": 7.936508333339589,
      "v": 100
    },
    {
      "midi": 54,
      "hit": false,
      "t": 188555.5649833331,
      "d": 214.28572499999427,
      "v": 119
    },
    {
      "midi": 66,
      "hit": false,
      "t": 188555.5649833331,
      "d": 214.28572499999427,
      "v": 119
    },
    {
      "midi": 66,
      "hit": false,
      "t": 188571.43799999886,
      "d": 214.28572499999427,
      "v": 100
    },
    {
      "midi": 90,
      "hit": false,
      "t": 188571.43800000014,
      "d": 936.5079833333439,
      "v": 100
    },
    {
      "midi": 78,
      "hit": false,
      "t": 188571.43800000014,
      "d": 936.5079833333439,
      "v": 100
    },
    {
      "midi": 49,
      "hit": false,
      "t": 188571.43800000014,
      "d": 119.04762500000652,
      "v": 115
    },
    {
      "midi": 42,
      "hit": false,
      "t": 188571.43800000014,
      "d": 119.04762500000652,
      "v": 115
    },
    {
      "midi": 30,
      "hit": false,
      "t": 188571.4380000009,
      "d": 412.69843333333847,
      "v": 112
    },
    {
      "midi": 42,
      "hit": false,
      "t": 188571.43800000113,
      "d": 79.36508333333768,
      "v": 100
    },
    {
      "midi": 49,
      "hit": false,
      "t": 188571.43800000113,
      "d": 79.36508333333768,
      "v": 100
    },
    {
      "midi": 40,
      "hit": false,
      "t": 188571.43800000203,
      "d": 7.936508333339589,
      "v": 127
    },
    {
      "midi": 42,
      "hit": false,
      "t": 188571.43800000203,
      "d": 7.936508333339589,
      "v": 115
    },
    {
      "midi": 54,
      "hit": false,
      "t": 188785.72372500203,
      "d": 7.936508333339589,
      "v": 60
    },
    {
      "midi": 54,
      "hit": false,
      "t": 188793.6602333331,
      "d": 634.9206666666723,
      "v": 119
    },
    {
      "midi": 66,
      "hit": false,
      "t": 188793.6602333331,
      "d": 634.9206666666723,
      "v": 119
    },
    {
      "midi": 61,
      "hit": false,
      "t": 188809.53324999884,
      "d": 214.28572499999427,
      "v": 100
    },
    {
      "midi": 54,
      "hit": false,
      "t": 189023.81897500204,
      "d": 7.936508333339589,
      "v": 60
    },
    {
      "midi": 64,
      "hit": false,
      "t": 189047.62849999883,
      "d": 214.28572499999427,
      "v": 100
    },
    {
      "midi": 42,
      "hit": false,
      "t": 189047.62850000014,
      "d": 119.04762500000652,
      "v": 115
    },
    {
      "midi": 49,
      "hit": false,
      "t": 189047.62850000014,
      "d": 119.04762500000652,
      "v": 115
    },
    {
      "midi": 30,
      "hit": false,
      "t": 189047.6285000009,
      "d": 412.69843333333847,
      "v": 112
    },
    {
      "midi": 42,
      "hit": false,
      "t": 189047.62850000113,
      "d": 79.36508333333768,
      "v": 100
    },
    {
      "midi": 49,
      "hit": false,
      "t": 189047.62850000113,
      "d": 79.36508333333768,
      "v": 100
    },
    {
      "midi": 2,
      "hit": false,
      "t": 189047.62850000206,
      "d": 7.936508333339589,
      "v": 120
    },
    {
      "midi": 42,
      "hit": false,
      "t": 189047.62850000206,
      "d": 7.936508333339589,
      "v": 100
    },
    {
      "midi": 54,
      "hit": false,
      "t": 189261.91422500205,
      "d": 7.936508333339589,
      "v": 60
    },
    {
      "midi": 66,
      "hit": false,
      "t": 189285.7237499988,
      "d": 214.28572499999427,
      "v": 100
    },
    {
      "midi": 54,
      "hit": false,
      "t": 189500.00947500207,
      "d": 7.936508333339589,
      "v": 100
    },
    {
      "midi": 57,
      "hit": false,
      "t": 189507.9459833331,
      "d": 873.0159166666563,
      "v": 119
    },
    {
      "midi": 61,
      "hit": false,
      "t": 189507.9459833331,
      "d": 873.0159166666563,
      "v": 119
    },
    {
      "midi": 66,
      "hit": false,
      "t": 189507.9459833331,
      "d": 873.0159166666563,
      "v": 119
    },
    {
      "midi": 66,
      "hit": false,
      "t": 189523.8189999988,
      "d": 214.28572499999427,
      "v": 100
    },
    {
      "midi": 88,
      "hit": false,
      "t": 189523.81900000016,
      "d": 936.5079833333439,
      "v": 100
    },
    {
      "midi": 76,
      "hit": false,
      "t": 189523.81900000016,
      "d": 936.5079833333439,
      "v": 100
    },
    {
      "midi": 42,
      "hit": false,
      "t": 189523.81900000016,
      "d": 436.50795833332813,
      "v": 120
    },
    {
      "midi": 49,
      "hit": false,
      "t": 189523.81900000016,
      "d": 436.50795833332813,
      "v": 120
    },
    {
      "midi": 76,
      "hit": false,
      "t": 189523.81900000025,
      "d": 436.50795833332813,
      "v": 120
    },
    {
      "midi": 37,
      "hit": false,
      "t": 189523.8190000009,
      "d": 412.69843333333847,
      "v": 112
    },
    {
      "midi": 42,
      "hit": false,
      "t": 189523.81900000112,
      "d": 436.50795833332813,
      "v": 115
    },
    {
      "midi": 49,
      "hit": false,
      "t": 189523.81900000112,
      "d": 436.50795833332813,
      "v": 115
    },
    {
      "midi": 40,
      "hit": false,
      "t": 189523.81900000208,
      "d": 7.936508333339589,
      "v": 127
    },
    {
      "midi": 42,
      "hit": false,
      "t": 189523.81900000208,
      "d": 7.936508333339589,
      "v": 100
    },
    {
      "midi": 54,
      "hit": false,
      "t": 189738.10472500208,
      "d": 7.936508333339589,
      "v": 60
    },
    {
      "midi": 64,
      "hit": false,
      "t": 189761.91424999878,
      "d": 214.28572499999427,
      "v": 100
    },
    {
      "midi": 40,
      "hit": false,
      "t": 189761.9142500021,
      "d": 7.936508333339589,
      "v": 127
    },
    {
      "midi": 54,
      "hit": false,
      "t": 189976.1999750021,
      "d": 7.936508333339589,
      "v": 60
    },
    {
      "midi": 73,
      "hit": false,
      "t": 190000.00949999876,
      "d": 214.28572499999427,
      "v": 100
    },
    {
      "midi": 42,
      "hit": false,
      "t": 190000.00950000016,
      "d": 436.50795833335724,
      "v": 120
    },
    {
      "midi": 49,
      "hit": false,
      "t": 190000.00950000016,
      "d": 436.50795833335724,
      "v": 120
    },
    {
      "midi": 78,
      "hit": false,
      "t": 190000.00950000025,
      "d": 436.50795833332813,
      "v": 120
    },
    {
      "midi": 30,
      "hit": false,
      "t": 190000.0095000009,
      "d": 412.69843333333847,
      "v": 112
    },
    {
      "midi": 42,
      "hit": false,
      "t": 190000.00950000112,
      "d": 79.36508333333768,
      "v": 100
    },
    {
      "midi": 49,
      "hit": false,
      "t": 190000.00950000112,
      "d": 79.36508333333768,
      "v": 100
    },
    {
      "midi": 2,
      "hit": false,
      "t": 190000.0095000021,
      "d": 7.936508333339589,
      "v": 120
    },
    {
      "midi": 42,
      "hit": false,
      "t": 190000.0095000021,
      "d": 7.936508333339589,
      "v": 100
    },
    {
      "midi": 40,
      "hit": false,
      "t": 190000.0095000021,
      "d": 7.936508333339589,
      "v": 127
    },
    {
      "midi": 54,
      "hit": false,
      "t": 190214.2952250021,
      "d": 7.936508333339589,
      "v": 65
    },
    {
      "midi": 66,
      "hit": false,
      "t": 190238.10474999875,
      "d": 214.28572499999427,
      "v": 100
    },
    {
      "midi": 67,
      "hit": false,
      "t": 190436.51745833294,
      "d": 1825.3969166666502,
      "v": 90
    },
    {
      "midi": 79,
      "hit": false,
      "t": 190436.51745833358,
      "d": 873.0159166666563,
      "v": 120
    },
    {
      "midi": 59,
      "hit": false,
      "t": 190444.45396666642,
      "d": 873.0159166666563,
      "v": 119
    },
    {
      "midi": 62,
      "hit": false,
      "t": 190444.45396666642,
      "d": 873.0159166666563,
      "v": 119
    },
    {
      "midi": 67,
      "hit": false,
      "t": 190444.45396666642,
      "d": 873.0159166666563,
      "v": 119
    },
    {
      "midi": 74,
      "hit": false,
      "t": 190452.39047500014,
      "d": 1880.9524749999982,
      "v": 100
    },
    {
      "midi": 86,
      "hit": false,
      "t": 190452.39047500014,
      "d": 1880.9524749999982,
      "v": 100
    },
    {
      "midi": 67,
      "hit": false,
      "t": 190452.39047500017,
      "d": 1880.9524749999982,
      "v": 115
    },
    {
      "midi": 59,
      "hit": false,
      "t": 190476.19999999873,
      "d": 436.50795833332813,
      "v": 100
    },
    {
      "midi": 67,
      "hit": false,
      "t": 190476.20000000016,
      "d": 3785.7144750000734,
      "v": 100
    },
    {
      "midi": 74,
      "hit": false,
      "t": 190476.20000000016,
      "d": 3785.7144750000734,
      "v": 100
    },
    {
      "midi": 71,
      "hit": false,
      "t": 190476.20000000016,
      "d": 3785.7144750000734,
      "v": 100
    },
    {
      "midi": 62,
      "hit": false,
      "t": 190476.20000000016,
      "d": 3785.7144750000734,
      "v": 100
    },
    {
      "midi": 43,
      "hit": false,
      "t": 190476.2000000002,
      "d": 912.698458333296,
      "v": 120
    },
    {
      "midi": 50,
      "hit": false,
      "t": 190476.2000000002,
      "d": 912.698458333296,
      "v": 120
    },
    {
      "midi": 31,
      "hit": false,
      "t": 190476.20000000088,
      "d": 412.69843333333847,
      "v": 118
    },
    {
      "midi": 43,
      "hit": false,
      "t": 190476.20000000112,
      "d": 436.50795833332813,
      "v": 115
    },
    {
      "midi": 50,
      "hit": false,
      "t": 190476.20000000112,
      "d": 436.50795833332813,
      "v": 115
    },
    {
      "midi": 54,
      "hit": false,
      "t": 190476.2000000021,
      "d": 7.936508333339589,
      "v": 100
    },
    {
      "midi": 49,
      "hit": false,
      "t": 190476.2000000021,
      "d": 7.936508333339589,
      "v": 115
    },
    {
      "midi": 40,
      "hit": false,
      "t": 190476.2000000021,
      "d": 7.936508333339589,
      "v": 127
    },
    {
      "midi": 2,
      "hit": false,
      "t": 190476.2000000021,
      "d": 7.936508333339589,
      "v": 123
    },
    {
      "midi": 69,
      "hit": false,
      "t": 190492.07301666625,
      "d": 1825.3969166666502,
      "v": 90
    },
    {
      "midi": 71,
      "hit": false,
      "t": 190539.69206666626,
      "d": 1825.3969166666502,
      "v": 90
    },
    {
      "midi": 74,
      "hit": false,
      "t": 190571.4380999996,
      "d": 1825.3969166666502,
      "v": 90
    },
    {
      "midi": 54,
      "hit": false,
      "t": 190690.4857250021,
      "d": 7.936508333339589,
      "v": 60
    },
    {
      "midi": 54,
      "hit": false,
      "t": 190928.5809750021,
      "d": 7.936508333339589,
      "v": 60
    },
    {
      "midi": 62,
      "hit": false,
      "t": 190952.39049999873,
      "d": 214.28572499999427,
      "v": 100
    },
    {
      "midi": 31,
      "hit": false,
      "t": 190952.39050000088,
      "d": 412.69843333333847,
      "v": 112
    },
    {
      "midi": 43,
      "hit": false,
      "t": 190952.39050000111,
      "d": 79.36508333333768,
      "v": 100
    },
    {
      "midi": 50,
      "hit": false,
      "t": 190952.39050000111,
      "d": 79.36508333333768,
      "v": 100
    },
    {
      "midi": 42,
      "hit": false,
      "t": 190952.39050000213,
      "d": 7.936508333339589,
      "v": 100
    },
    {
      "midi": 54,
      "hit": false,
      "t": 191166.67622500213,
      "d": 7.936508333339589,
      "v": 60
    },
    {
      "midi": 59,
      "hit": false,
      "t": 191190.4857499987,
      "d": 214.28572499999427,
      "v": 100
    },
    {
      "midi": 54,
      "hit": false,
      "t": 191404.77147500214,
      "d": 7.936508333339589,
      "v": 100
    },
    {
      "midi": 67,
      "hit": false,
      "t": 191428.5809999987,
      "d": 214.28572499999427,
      "v": 100
    },
    {
      "midi": 59,
      "hit": false,
      "t": 191428.58099999974,
      "d": 436.50795833332813,
      "v": 125
    },
    {
      "midi": 50,
      "hit": false,
      "t": 191428.58100000015,
      "d": 119.04762500000652,
      "v": 115
    },
    {
      "midi": 43,
      "hit": false,
      "t": 191428.58100000015,
      "d": 119.04762500000652,
      "v": 115
    },
    {
      "midi": 83,
      "hit": false,
      "t": 191428.58100000024,
      "d": 436.50795833332813,
      "v": 120
    },
    {
      "midi": 31,
      "hit": false,
      "t": 191428.58100000088,
      "d": 412.69843333333847,
      "v": 112
    },
    {
      "midi": 43,
      "hit": false,
      "t": 191428.5810000011,
      "d": 436.50795833332813,
      "v": 115
    },
    {
      "midi": 50,
      "hit": false,
      "t": 191428.5810000011,
      "d": 436.50795833332813,
      "v": 115
    },
    {
      "midi": 40,
      "hit": false,
      "t": 191428.58100000216,
      "d": 7.936508333339589,
      "v": 127
    },
    {
      "midi": 42,
      "hit": false,
      "t": 191428.58100000216,
      "d": 7.936508333339589,
      "v": 100
    },
    {
      "midi": 54,
      "hit": false,
      "t": 191642.86672500215,
      "d": 7.936508333339589,
      "v": 60
    },
    {
      "midi": 62,
      "hit": false,
      "t": 191666.67624999868,
      "d": 214.28572499999427,
      "v": 100
    },
    {
      "midi": 54,
      "hit": false,
      "t": 191880.96197500217,
      "d": 7.936508333339589,
      "v": 65
    },
    {
      "midi": 62,
      "hit": false,
      "t": 191904.77149999866,
      "d": 214.28572499999427,
      "v": 100
    },
    {
      "midi": 62,
      "hit": false,
      "t": 191904.77149999974,
      "d": 436.50795833332813,
      "v": 125
    },
    {
      "midi": 43,
      "hit": false,
      "t": 191904.77150000015,
      "d": 119.04762500000652,
      "v": 115
    },
    {
      "midi": 50,
      "hit": false,
      "t": 191904.77150000015,
      "d": 119.04762500000652,
      "v": 115
    },
    {
      "midi": 83,
      "hit": false,
      "t": 191904.77150000024,
      "d": 436.50795833332813,
      "v": 120
    },
    {
      "midi": 31,
      "hit": false,
      "t": 191904.77150000088,
      "d": 412.69843333333847,
      "v": 112
    },
    {
      "midi": 50,
      "hit": false,
      "t": 191904.7715000011,
      "d": 436.50795833332813,
      "v": 115
    },
    {
      "midi": 43,
      "hit": false,
      "t": 191904.7715000011,
      "d": 436.50795833332813,
      "v": 115
    },
    {
      "midi": 42,
      "hit": false,
      "t": 191904.77150000219,
      "d": 7.936508333339589,
      "v": 100
    },
    {
      "midi": 54,
      "hit": false,
      "t": 192119.05722500218,
      "d": 7.936508333339589,
      "v": 60
    },
    {
      "midi": 67,
      "hit": false,
      "t": 192142.86674999865,
      "d": 214.28572499999427,
      "v": 100
    },
    {
      "midi": 43,
      "hit": false,
      "t": 192142.86675000016,
      "d": 119.04762500000652,
      "v": 115
    },
    {
      "midi": 50,
      "hit": false,
      "t": 192142.86675000016,
      "d": 119.04762500000652,
      "v": 115
    },
    {
      "midi": 76,
      "hit": false,
      "t": 192357.15247500013,
      "d": 1880.9524749999982,
      "v": 100
    },
    {
      "midi": 88,
      "hit": false,
      "t": 192357.15247500013,
      "d": 1880.9524749999982,
      "v": 100
    },
    {
      "midi": 69,
      "hit": false,
      "t": 192357.15247500016,
      "d": 1880.9524749999982,
      "v": 115
    },
    {
      "midi": 54,
      "hit": false,
      "t": 192357.1524750022,
      "d": 7.936508333339589,
      "v": 100
    },
    {
      "midi": 57,
      "hit": false,
      "t": 192365.08898333306,
      "d": 436.50795833332813,
      "v": 119
    },
    {
      "midi": 61,
      "hit": false,
      "t": 192365.08898333306,
      "d": 436.50795833332813,
      "v": 119
    },
    {
      "midi": 64,
      "hit": false,
      "t": 192365.08898333306,
      "d": 436.50795833332813,
      "v": 119
    },
    {
      "midi": 64,
      "hit": false,
      "t": 192380.96199999863,
      "d": 214.28572499999427,
      "v": 100
    },
    {
      "midi": 45,
      "hit": false,
      "t": 192380.96200000017,
      "d": 912.6984583333251,
      "v": 120
    },
    {
      "midi": 52,
      "hit": false,
      "t": 192380.96200000017,
      "d": 912.6984583333251,
      "v": 120
    },
    {
      "midi": 83,
      "hit": false,
      "t": 192380.96200000023,
      "d": 873.0159166666563,
      "v": 120
    },
    {
      "midi": 76,
      "hit": false,
      "t": 192380.96200000023,
      "d": 1873.0159666666586,
      "v": 100
    },
    {
      "midi": 33,
      "hit": false,
      "t": 192380.96200000087,
      "d": 412.69843333333847,
      "v": 112
    },
    {
      "midi": 45,
      "hit": false,
      "t": 192380.9620000011,
      "d": 436.50795833332813,
      "v": 115
    },
    {
      "midi": 52,
      "hit": false,
      "t": 192380.9620000011,
      "d": 436.50795833332813,
      "v": 115
    },
    {
      "midi": 40,
      "hit": false,
      "t": 192380.9620000022,
      "d": 7.936508333339589,
      "v": 127
    },
    {
      "midi": 42,
      "hit": false,
      "t": 192380.9620000022,
      "d": 7.936508333339589,
      "v": 115
    },
    {
      "midi": 54,
      "hit": false,
      "t": 192595.2477250022,
      "d": 7.936508333339589,
      "v": 60
    },
    {
      "midi": 62,
      "hit": false,
      "t": 192619.05724999862,
      "d": 214.28572499999427,
      "v": 100
    },
    {
      "midi": 54,
      "hit": false,
      "t": 192833.34297500222,
      "d": 7.936508333339589,
      "v": 60
    },
    {
      "midi": 61,
      "hit": false,
      "t": 192857.1524999986,
      "d": 214.28572499999427,
      "v": 100
    },
    {
      "midi": 57,
      "hit": false,
      "t": 192857.1524999997,
      "d": 436.50795833332813,
      "v": 125
    },
    {
      "midi": 33,
      "hit": false,
      "t": 192857.15250000087,
      "d": 412.69843333333847,
      "v": 112
    },
    {
      "midi": 45,
      "hit": false,
      "t": 192857.1525000011,
      "d": 79.36508333333768,
      "v": 100
    },
    {
      "midi": 52,
      "hit": false,
      "t": 192857.1525000011,
      "d": 79.36508333333768,
      "v": 100
    },
    {
      "midi": 2,
      "hit": false,
      "t": 192857.15250000224,
      "d": 7.936508333339589,
      "v": 120
    },
    {
      "midi": 42,
      "hit": false,
      "t": 192857.15250000224,
      "d": 7.936508333339589,
      "v": 100
    },
    {
      "midi": 54,
      "hit": false,
      "t": 193071.43822500223,
      "d": 7.936508333339589,
      "v": 60
    },
    {
      "midi": 64,
      "hit": false,
      "t": 193095.24774999858,
      "d": 214.28572499999427,
      "v": 100
    },
    {
      "midi": 54,
      "hit": false,
      "t": 193309.53347500224,
      "d": 7.936508333339589,
      "v": 100
    },
    {
      "midi": 64,
      "hit": false,
      "t": 193333.34299999857,
      "d": 214.28572499999427,
      "v": 100
    },
    {
      "midi": 61,
      "hit": false,
      "t": 193333.3429999997,
      "d": 436.50795833332813,
      "v": 125
    },
    {
      "midi": 45,
      "hit": false,
      "t": 193333.34300000017,
      "d": 119.04762500000652,
      "v": 115
    },
    {
      "midi": 52,
      "hit": false,
      "t": 193333.34300000017,
      "d": 119.04762500000652,
      "v": 115
    },
    {
      "midi": 81,
      "hit": false,
      "t": 193333.34300000023,
      "d": 436.50795833332813,
      "v": 120
    },
    {
      "midi": 33,
      "hit": false,
      "t": 193333.34300000087,
      "d": 412.69843333333847,
      "v": 112
    },
    {
      "midi": 45,
      "hit": false,
      "t": 193333.3430000011,
      "d": 873.0159166666272,
      "v": 115
    },
    {
      "midi": 52,
      "hit": false,
      "t": 193333.3430000011,
      "d": 873.0159166666272,
      "v": 115
    },
    {
      "midi": 40,
      "hit": false,
      "t": 193333.34300000226,
      "d": 7.936508333339589,
      "v": 127
    },
    {
      "midi": 42,
      "hit": false,
      "t": 193333.34300000226,
      "d": 7.936508333339589,
      "v": 100
    },
    {
      "midi": 54,
      "hit": false,
      "t": 193547.62872500226,
      "d": 7.936508333339589,
      "v": 60
    },
    {
      "midi": 61,
      "hit": false,
      "t": 193571.43824999855,
      "d": 214.28572499999427,
      "v": 100
    },
    {
      "midi": 54,
      "hit": false,
      "t": 193785.72397500227,
      "d": 7.936508333339589,
      "v": 60
    },
    {
      "midi": 69,
      "hit": false,
      "t": 193809.53349999854,
      "d": 214.28572499999427,
      "v": 100
    },
    {
      "midi": 64,
      "hit": false,
      "t": 193809.5334999997,
      "d": 436.50795833332813,
      "v": 125
    },
    {
      "midi": 52,
      "hit": false,
      "t": 193809.53350000017,
      "d": 119.04762500000652,
      "v": 115
    },
    {
      "midi": 45,
      "hit": false,
      "t": 193809.53350000017,
      "d": 119.04762500000652,
      "v": 115
    },
    {
      "midi": 79,
      "hit": false,
      "t": 193809.53350000022,
      "d": 436.50795833332813,
      "v": 120
    },
    {
      "midi": 31,
      "hit": false,
      "t": 193809.53350000086,
      "d": 412.69843333333847,
      "v": 112
    },
    {
      "midi": 2,
      "hit": false,
      "t": 193809.5335000023,
      "d": 7.936508333339589,
      "v": 120
    },
    {
      "midi": 42,
      "hit": false,
      "t": 193809.5335000023,
      "d": 7.936508333339589,
      "v": 100
    },
    {
      "midi": 54,
      "hit": false,
      "t": 194023.81922500228,
      "d": 7.936508333339589,
      "v": 65
    },
    {
      "midi": 64,
      "hit": false,
      "t": 194047.62874999852,
      "d": 214.28572499999427,
      "v": 100
    },
    {
      "midi": 76,
      "hit": false,
      "t": 194261.9144750001,
      "d": 1880.9524749999982,
      "v": 100
    },
    {
      "midi": 88,
      "hit": false,
      "t": 194261.9144750001,
      "d": 1880.9524749999982,
      "v": 100
    },
    {
      "midi": 69,
      "hit": false,
      "t": 194261.91447500014,
      "d": 1880.9524749999982,
      "v": 115
    },
    {
      "midi": 61,
      "hit": false,
      "t": 194269.85098333302,
      "d": 873.0159166666563,
      "v": 119
    },
    {
      "midi": 66,
      "hit": false,
      "t": 194269.85098333302,
      "d": 873.0159166666563,
      "v": 119
    },
    {
      "midi": 69,
      "hit": false,
      "t": 194269.85098333302,
      "d": 873.0159166666563,
      "v": 119
    },
    {
      "midi": 57,
      "hit": false,
      "t": 194285.7239999985,
      "d": 214.28572499999427,
      "v": 100
    },
    {
      "midi": 42,
      "hit": false,
      "t": 194285.7240000002,
      "d": 912.6984583333251,
      "v": 120
    },
    {
      "midi": 49,
      "hit": false,
      "t": 194285.7240000002,
      "d": 912.6984583333251,
      "v": 120
    },
    {
      "midi": 81,
      "hit": false,
      "t": 194285.72400000022,
      "d": 873.0159166666563,
      "v": 120
    },
    {
      "midi": 61,
      "hit": false,
      "t": 194285.72400000022,
      "d": 1873.0159666666586,
      "v": 100
    },
    {
      "midi": 73,
      "hit": false,
      "t": 194285.72400000022,
      "d": 1873.0159666666586,
      "v": 100
    },
    {
      "midi": 69,
      "hit": false,
      "t": 194285.72400000022,
      "d": 1873.0159666666586,
      "v": 100
    },
    {
      "midi": 66,
      "hit": false,
      "t": 194285.72400000022,
      "d": 2857.143000000011,
      "v": 100
    },
    {
      "midi": 30,
      "hit": false,
      "t": 194285.72400000086,
      "d": 412.69843333333847,
      "v": 118
    },
    {
      "midi": 42,
      "hit": false,
      "t": 194285.72400000106,
      "d": 436.50795833332813,
      "v": 115
    },
    {
      "midi": 49,
      "hit": false,
      "t": 194285.72400000106,
      "d": 436.50795833332813,
      "v": 115
    },
    {
      "midi": 54,
      "hit": false,
      "t": 194285.7240000023,
      "d": 7.936508333339589,
      "v": 100
    },
    {
      "midi": 42,
      "hit": false,
      "t": 194285.7240000023,
      "d": 7.936508333339589,
      "v": 115
    },
    {
      "midi": 40,
      "hit": false,
      "t": 194285.7240000023,
      "d": 7.936508333339589,
      "v": 127
    },
    {
      "midi": 2,
      "hit": false,
      "t": 194285.7240000023,
      "d": 7.936508333339589,
      "v": 123
    },
    {
      "midi": 54,
      "hit": false,
      "t": 194500.00972500228,
      "d": 7.936508333339589,
      "v": 60
    },
    {
      "midi": 69,
      "hit": false,
      "t": 194523.8192499985,
      "d": 214.28572499999427,
      "v": 100
    },
    {
      "midi": 54,
      "hit": false,
      "t": 194738.1049750023,
      "d": 7.936508333339589,
      "v": 60
    },
    {
      "midi": 61,
      "hit": false,
      "t": 194761.91449999847,
      "d": 214.28572499999427,
      "v": 100
    },
    {
      "midi": 30,
      "hit": false,
      "t": 194761.91450000086,
      "d": 412.69843333333847,
      "v": 112
    },
    {
      "midi": 42,
      "hit": false,
      "t": 194761.91450000106,
      "d": 79.36508333333768,
      "v": 100
    },
    {
      "midi": 49,
      "hit": false,
      "t": 194761.91450000106,
      "d": 79.36508333333768,
      "v": 100
    },
    {
      "midi": 42,
      "hit": false,
      "t": 194761.9145000023,
      "d": 7.936508333339589,
      "v": 100
    },
    {
      "midi": 54,
      "hit": false,
      "t": 194976.2002250023,
      "d": 7.936508333339589,
      "v": 60
    },
    {
      "midi": 57,
      "hit": false,
      "t": 195000.00974999845,
      "d": 214.28572499999427,
      "v": 100
    },
    {
      "midi": 54,
      "hit": false,
      "t": 195214.29547500232,
      "d": 7.936508333339589,
      "v": 100
    },
    {
      "midi": 64,
      "hit": false,
      "t": 195238.10499999844,
      "d": 214.28572499999427,
      "v": 100
    },
    {
      "midi": 57,
      "hit": false,
      "t": 195238.10499999966,
      "d": 436.50795833332813,
      "v": 125
    },
    {
      "midi": 78,
      "hit": false,
      "t": 195238.1050000002,
      "d": 436.50795833332813,
      "v": 120
    },
    {
      "midi": 42,
      "hit": false,
      "t": 195238.1050000002,
      "d": 119.04762499997742,
      "v": 115
    },
    {
      "midi": 49,
      "hit": false,
      "t": 195238.1050000002,
      "d": 119.04762499997742,
      "v": 115
    },
    {
      "midi": 30,
      "hit": false,
      "t": 195238.10500000085,
      "d": 412.69843333333847,
      "v": 112
    },
    {
      "midi": 42,
      "hit": false,
      "t": 195238.10500000106,
      "d": 436.50795833332813,
      "v": 115
    },
    {
      "midi": 49,
      "hit": false,
      "t": 195238.10500000106,
      "d": 436.50795833332813,
      "v": 115
    },
    {
      "midi": 40,
      "hit": false,
      "t": 195238.10500000234,
      "d": 7.936508333339589,
      "v": 127
    },
    {
      "midi": 42,
      "hit": false,
      "t": 195238.10500000234,
      "d": 7.936508333339589,
      "v": 100
    },
    {
      "midi": 54,
      "hit": false,
      "t": 195452.39072500233,
      "d": 7.936508333339589,
      "v": 60
    },
    {
      "midi": 61,
      "hit": false,
      "t": 195476.20024999842,
      "d": 214.28572499999427,
      "v": 100
    },
    {
      "midi": 54,
      "hit": false,
      "t": 195690.48597500235,
      "d": 7.936508333339589,
      "v": 65
    },
    {
      "midi": 61,
      "hit": false,
      "t": 195714.2954999984,
      "d": 214.28572499999427,
      "v": 100
    },
    {
      "midi": 61,
      "hit": false,
      "t": 195714.29549999966,
      "d": 436.50795833332813,
      "v": 125
    },
    {
      "midi": 49,
      "hit": false,
      "t": 195714.29550000018,
      "d": 119.04762500000652,
      "v": 115
    },
    {
      "midi": 42,
      "hit": false,
      "t": 195714.29550000018,
      "d": 119.04762500000652,
      "v": 115
    },
    {
      "midi": 76,
      "hit": false,
      "t": 195714.2955000002,
      "d": 436.50795833332813,
      "v": 120
    },
    {
      "midi": 30,
      "hit": false,
      "t": 195714.29550000085,
      "d": 412.69843333333847,
      "v": 112
    },
    {
      "midi": 49,
      "hit": false,
      "t": 195714.29550000106,
      "d": 436.50795833332813,
      "v": 115
    },
    {
      "midi": 42,
      "hit": false,
      "t": 195714.29550000106,
      "d": 436.50795833332813,
      "v": 115
    },
    {
      "midi": 42,
      "hit": false,
      "t": 195714.29550000236,
      "d": 7.936508333339589,
      "v": 100
    },
    {
      "midi": 54,
      "hit": false,
      "t": 195928.58122500236,
      "d": 7.936508333339589,
      "v": 60
    },
    {
      "midi": 64,
      "hit": false,
      "t": 195952.3907499984,
      "d": 214.28572499999427,
      "v": 100
    },
    {
      "midi": 78,
      "hit": false,
      "t": 196166.6764750001,
      "d": 1880.9524749999982,
      "v": 100
    },
    {
      "midi": 90,
      "hit": false,
      "t": 196166.6764750001,
      "d": 1880.9524749999982,
      "v": 100
    },
    {
      "midi": 71,
      "hit": false,
      "t": 196166.67647500013,
      "d": 1880.9524749999982,
      "v": 115
    },
    {
      "midi": 54,
      "hit": false,
      "t": 196166.67647500237,
      "d": 7.936508333339589,
      "v": 100
    },
    {
      "midi": 57,
      "hit": false,
      "t": 196174.61298333298,
      "d": 436.50795833332813,
      "v": 119
    },
    {
      "midi": 66,
      "hit": false,
      "t": 196174.61298333298,
      "d": 436.50795833332813,
      "v": 119
    },
    {
      "midi": 62,
      "hit": false,
      "t": 196174.61298333298,
      "d": 436.50795833332813,
      "v": 119
    },
    {
      "midi": 66,
      "hit": false,
      "t": 196190.48599999837,
      "d": 214.28572499999427,
      "v": 100
    },
    {
      "midi": 74,
      "hit": false,
      "t": 196190.4860000002,
      "d": 753.9682916666789,
      "v": 120
    },
    {
      "midi": 62,
      "hit": false,
      "t": 196190.4860000002,
      "d": 873.0159166666854,
      "v": 100
    },
    {
      "midi": 71,
      "hit": false,
      "t": 196190.4860000002,
      "d": 873.0159166666854,
      "v": 100
    },
    {
      "midi": 74,
      "hit": false,
      "t": 196190.4860000002,
      "d": 873.0159166666854,
      "v": 100
    },
    {
      "midi": 47,
      "hit": false,
      "t": 196190.4860000002,
      "d": 912.6984583333542,
      "v": 120
    },
    {
      "midi": 54,
      "hit": false,
      "t": 196190.4860000002,
      "d": 912.6984583333542,
      "v": 120
    },
    {
      "midi": 35,
      "hit": false,
      "t": 196190.48600000085,
      "d": 412.69843333333847,
      "v": 112
    },
    {
      "midi": 47,
      "hit": false,
      "t": 196190.48600000105,
      "d": 436.50795833332813,
      "v": 115
    },
    {
      "midi": 54,
      "hit": false,
      "t": 196190.48600000105,
      "d": 436.50795833332813,
      "v": 115
    },
    {
      "midi": 40,
      "hit": false,
      "t": 196190.4860000024,
      "d": 7.936508333339589,
      "v": 127
    },
    {
      "midi": 42,
      "hit": false,
      "t": 196190.4860000024,
      "d": 7.936508333339589,
      "v": 115
    },
    {
      "midi": 54,
      "hit": false,
      "t": 196404.77172500239,
      "d": 7.936508333339589,
      "v": 60
    },
    {
      "midi": 59,
      "hit": false,
      "t": 196428.58124999836,
      "d": 214.28572499999427,
      "v": 100
    },
    {
      "midi": 54,
      "hit": false,
      "t": 196642.8669750024,
      "d": 7.936508333339589,
      "v": 60
    },
    {
      "midi": 57,
      "hit": false,
      "t": 196650.80348333297,
      "d": 436.50795833332813,
      "v": 119
    },
    {
      "midi": 61,
      "hit": false,
      "t": 196650.80348333297,
      "d": 436.50795833332813,
      "v": 119
    },
    {
      "midi": 64,
      "hit": false,
      "t": 196650.80348333297,
      "d": 436.50795833332813,
      "v": 119
    },
    {
      "midi": 62,
      "hit": false,
      "t": 196666.67649999834,
      "d": 214.28572499999427,
      "v": 100
    },
    {
      "midi": 35,
      "hit": false,
      "t": 196666.67650000085,
      "d": 412.69843333333847,
      "v": 112
    },
    {
      "midi": 47,
      "hit": false,
      "t": 196666.67650000105,
      "d": 79.36508333333768,
      "v": 100
    },
    {
      "midi": 54,
      "hit": false,
      "t": 196666.67650000105,
      "d": 79.36508333333768,
      "v": 100
    },
    {
      "midi": 2,
      "hit": false,
      "t": 196666.67650000242,
      "d": 7.936508333339589,
      "v": 120
    },
    {
      "midi": 42,
      "hit": false,
      "t": 196666.67650000242,
      "d": 7.936508333339589,
      "v": 100
    },
    {
      "midi": 54,
      "hit": false,
      "t": 196880.9622250024,
      "d": 7.936508333339589,
      "v": 60
    },
    {
      "midi": 66,
      "hit": false,
      "t": 196904.77174999833,
      "d": 214.28572499999427,
      "v": 100
    },
    {
      "midi": 54,
      "hit": false,
      "t": 197119.05747500242,
      "d": 7.936508333339589,
      "v": 100
    },
    {
      "midi": 57,
      "hit": false,
      "t": 197126.99398333297,
      "d": 873.0159166666563,
      "v": 119
    },
    {
      "midi": 62,
      "hit": false,
      "t": 197126.99398333297,
      "d": 873.0159166666563,
      "v": 119
    },
    {
      "midi": 66,
      "hit": false,
      "t": 197126.99398333297,
      "d": 873.0159166666563,
      "v": 119
    },
    {
      "midi": 66,
      "hit": false,
      "t": 197142.8669999983,
      "d": 214.28572499999427,
      "v": 100
    },
    {
      "midi": 74,
      "hit": false,
      "t": 197142.86700000023,
      "d": 436.50795833332813,
      "v": 120
    },
    {
      "midi": 47,
      "hit": false,
      "t": 197142.86700000023,
      "d": 436.50795833332813,
      "v": 120
    },
    {
      "midi": 54,
      "hit": false,
      "t": 197142.86700000023,
      "d": 436.50795833332813,
      "v": 120
    },
    {
      "midi": 30,
      "hit": false,
      "t": 197142.86700000084,
      "d": 412.69843333333847,
      "v": 112
    },
    {
      "midi": 47,
      "hit": false,
      "t": 197142.86700000105,
      "d": 873.0159166666563,
      "v": 115
    },
    {
      "midi": 54,
      "hit": false,
      "t": 197142.86700000105,
      "d": 873.0159166666563,
      "v": 115
    },
    {
      "midi": 40,
      "hit": false,
      "t": 197142.86700000244,
      "d": 7.936508333339589,
      "v": 127
    },
    {
      "midi": 42,
      "hit": false,
      "t": 197142.86700000244,
      "d": 7.936508333339589,
      "v": 100
    },
    {
      "midi": 54,
      "hit": false,
      "t": 197357.15272500244,
      "d": 7.936508333339589,
      "v": 60
    },
    {
      "midi": 62,
      "hit": false,
      "t": 197380.9622499983,
      "d": 214.28572499999427,
      "v": 100
    },
    {
      "midi": 54,
      "hit": false,
      "t": 197595.24797500245,
      "d": 7.936508333339589,
      "v": 60
    },
    {
      "midi": 74,
      "hit": false,
      "t": 197619.05749999828,
      "d": 214.28572499999427,
      "v": 100
    },
    {
      "midi": 73,
      "hit": false,
      "t": 197619.05750000023,
      "d": 436.50795833332813,
      "v": 120
    },
    {
      "midi": 48,
      "hit": false,
      "t": 197619.05750000023,
      "d": 436.50795833332813,
      "v": 120
    },
    {
      "midi": 55,
      "hit": false,
      "t": 197619.05750000023,
      "d": 436.50795833332813,
      "v": 120
    },
    {
      "midi": 29,
      "hit": false,
      "t": 197619.05750000084,
      "d": 412.69843333333847,
      "v": 112
    },
    {
      "midi": 2,
      "hit": false,
      "t": 197619.05750000247,
      "d": 7.936508333339589,
      "v": 120
    },
    {
      "midi": 42,
      "hit": false,
      "t": 197619.05750000247,
      "d": 7.936508333339589,
      "v": 100
    },
    {
      "midi": 54,
      "hit": false,
      "t": 197833.34322500246,
      "d": 7.936508333339589,
      "v": 65
    },
    {
      "midi": 66,
      "hit": false,
      "t": 197857.15274999826,
      "d": 214.28572499999427,
      "v": 100
    },
    {
      "midi": 55,
      "hit": false,
      "t": 198063.50196666628,
      "d": 436.50795833332813,
      "v": 119
    },
    {
      "midi": 59,
      "hit": false,
      "t": 198063.50196666628,
      "d": 436.50795833332813,
      "v": 119
    },
    {
      "midi": 64,
      "hit": false,
      "t": 198063.50196666628,
      "d": 436.50795833332813,
      "v": 119
    },
    {
      "midi": 79,
      "hit": false,
      "t": 198071.4384750001,
      "d": 3809.524000000005,
      "v": 100
    },
    {
      "midi": 91,
      "hit": false,
      "t": 198071.4384750001,
      "d": 3809.524000000005,
      "v": 100
    },
    {
      "midi": 71,
      "hit": false,
      "t": 198071.43847500012,
      "d": 3793.6509833333257,
      "v": 115
    },
    {
      "midi": 59,
      "hit": false,
      "t": 198095.24799999825,
      "d": 436.50795833332813,
      "v": 100
    },
    {
      "midi": 71,
      "hit": false,
      "t": 198095.24800000023,
      "d": 873.0159166666563,
      "v": 120
    },
    {
      "midi": 52,
      "hit": false,
      "t": 198095.24800000023,
      "d": 912.6984583333542,
      "v": 123
    },
    {
      "midi": 59,
      "hit": false,
      "t": 198095.24800000028,
      "d": 3785.7144750000734,
      "v": 100
    },
    {
      "midi": 71,
      "hit": false,
      "t": 198095.24800000028,
      "d": 3785.7144750000734,
      "v": 100
    },
    {
      "midi": 67,
      "hit": false,
      "t": 198095.24800000028,
      "d": 3785.7144750000734,
      "v": 100
    },
    {
      "midi": 64,
      "hit": false,
      "t": 198095.24800000028,
      "d": 3785.7144750000734,
      "v": 100
    },
    {
      "midi": 28,
      "hit": false,
      "t": 198095.24800000084,
      "d": 412.69843333333847,
      "v": 118
    },
    {
      "midi": 40,
      "hit": false,
      "t": 198095.24800000104,
      "d": 79.36508333333768,
      "v": 100
    },
    {
      "midi": 54,
      "hit": false,
      "t": 198095.24800000247,
      "d": 7.936508333339589,
      "v": 100
    },
    {
      "midi": 49,
      "hit": false,
      "t": 198095.24800000247,
      "d": 7.936508333339589,
      "v": 115
    },
    {
      "midi": 40,
      "hit": false,
      "t": 198095.24800000247,
      "d": 7.936508333339589,
      "v": 127
    },
    {
      "midi": 2,
      "hit": false,
      "t": 198095.24800000247,
      "d": 7.936508333339589,
      "v": 123
    },
    {
      "midi": 54,
      "hit": false,
      "t": 198309.53372500246,
      "d": 7.936508333339589,
      "v": 60
    },
    {
      "midi": 54,
      "hit": false,
      "t": 198547.62897500247,
      "d": 7.936508333339589,
      "v": 60
    },
    {
      "midi": 62,
      "hit": false,
      "t": 198571.43849999824,
      "d": 214.28572499999427,
      "v": 100
    },
    {
      "midi": 55,
      "hit": false,
      "t": 198571.4384999996,
      "d": 436.50795833332813,
      "v": 125
    },
    {
      "midi": 28,
      "hit": false,
      "t": 198571.43850000083,
      "d": 412.69843333333847,
      "v": 112
    },
    {
      "midi": 40,
      "hit": false,
      "t": 198571.43850000104,
      "d": 79.36508333333768,
      "v": 100
    },
    {
      "midi": 42,
      "hit": false,
      "t": 198571.4385000025,
      "d": 7.936508333339589,
      "v": 100
    },
    {
      "midi": 54,
      "hit": false,
      "t": 198785.7242250025,
      "d": 7.936508333339589,
      "v": 60
    },
    {
      "midi": 59,
      "hit": false,
      "t": 198809.53374999823,
      "d": 214.28572499999427,
      "v": 100
    },
    {
      "midi": 54,
      "hit": false,
      "t": 199023.8194750025,
      "d": 7.936508333339589,
      "v": 100
    },
    {
      "midi": 54,
      "hit": false,
      "t": 199031.75598333293,
      "d": 436.50795833332813,
      "v": 119
    },
    {
      "midi": 57,
      "hit": false,
      "t": 199031.75598333293,
      "d": 436.50795833332813,
      "v": 119
    },
    {
      "midi": 62,
      "hit": false,
      "t": 199031.75598333293,
      "d": 436.50795833332813,
      "v": 119
    },
    {
      "midi": 67,
      "hit": false,
      "t": 199047.6289999982,
      "d": 214.28572499999427,
      "v": 100
    },
    {
      "midi": 54,
      "hit": false,
      "t": 199047.62900000025,
      "d": 912.6984583333251,
      "v": 123
    },
    {
      "midi": 30,
      "hit": false,
      "t": 199047.62900000083,
      "d": 412.69843333333847,
      "v": 112
    },
    {
      "midi": 42,
      "hit": false,
      "t": 199047.62900000103,
      "d": 436.50795833332813,
      "v": 115
    },
    {
      "midi": 40,
      "hit": false,
      "t": 199047.62900000252,
      "d": 7.936508333339589,
      "v": 127
    },
    {
      "midi": 42,
      "hit": false,
      "t": 199047.62900000252,
      "d": 7.936508333339589,
      "v": 100
    },
    {
      "midi": 54,
      "hit": false,
      "t": 199261.9147250025,
      "d": 7.936508333339589,
      "v": 60
    },
    {
      "midi": 62,
      "hit": false,
      "t": 199285.7242499982,
      "d": 214.28572499999427,
      "v": 100
    },
    {
      "midi": 54,
      "hit": false,
      "t": 199500.00997500253,
      "d": 7.936508333339589,
      "v": 65
    },
    {
      "midi": 55,
      "hit": false,
      "t": 199507.94648333293,
      "d": 436.50795833332813,
      "v": 125
    },
    {
      "midi": 62,
      "hit": false,
      "t": 199523.81949999818,
      "d": 214.28572499999427,
      "v": 100
    },
    {
      "midi": 73,
      "hit": false,
      "t": 199523.81950000022,
      "d": 436.50795833332813,
      "v": 120
    },
    {
      "midi": 30,
      "hit": false,
      "t": 199523.81950000083,
      "d": 412.69843333333847,
      "v": 112
    },
    {
      "midi": 42,
      "hit": false,
      "t": 199523.81950000103,
      "d": 436.50795833332813,
      "v": 115
    },
    {
      "midi": 42,
      "hit": false,
      "t": 199523.81950000254,
      "d": 7.936508333339589,
      "v": 100
    },
    {
      "midi": 54,
      "hit": false,
      "t": 199738.10522500254,
      "d": 7.936508333339589,
      "v": 60
    },
    {
      "midi": 67,
      "hit": false,
      "t": 199761.91474999816,
      "d": 214.28572499999427,
      "v": 100
    },
    {
      "midi": 54,
      "hit": false,
      "t": 199976.20047500255,
      "d": 7.936508333339589,
      "v": 100
    },
    {
      "midi": 55,
      "hit": false,
      "t": 199984.13698333292,
      "d": 436.50795833332813,
      "v": 119
    },
    {
      "midi": 59,
      "hit": false,
      "t": 199984.13698333292,
      "d": 436.50795833332813,
      "v": 119
    },
    {
      "midi": 62,
      "hit": false,
      "t": 199984.13698333292,
      "d": 436.50795833332813,
      "v": 119
    },
    {
      "midi": 67,
      "hit": false,
      "t": 200000.00999999815,
      "d": 214.28572499999427,
      "v": 100
    },
    {
      "midi": 74,
      "hit": false,
      "t": 200000.0100000002,
      "d": 873.0159166666563,
      "v": 120
    },
    {
      "midi": 55,
      "hit": false,
      "t": 200000.01000000024,
      "d": 912.6984583333251,
      "v": 123
    },
    {
      "midi": 31,
      "hit": false,
      "t": 200000.01000000082,
      "d": 412.69843333333847,
      "v": 112
    },
    {
      "midi": 43,
      "hit": false,
      "t": 200000.01000000103,
      "d": 436.50795833332813,
      "v": 115
    },
    {
      "midi": 40,
      "hit": false,
      "t": 200000.01000000257,
      "d": 7.936508333339589,
      "v": 127
    },
    {
      "midi": 42,
      "hit": false,
      "t": 200000.01000000257,
      "d": 7.936508333339589,
      "v": 115
    },
    {
      "midi": 54,
      "hit": false,
      "t": 200214.29572500256,
      "d": 7.936508333339589,
      "v": 60
    },
    {
      "midi": 62,
      "hit": false,
      "t": 200238.10524999813,
      "d": 214.28572499999427,
      "v": 100
    },
    {
      "midi": 54,
      "hit": false,
      "t": 200452.39097500258,
      "d": 7.936508333339589,
      "v": 60
    },
    {
      "midi": 64,
      "hit": false,
      "t": 200476.2004999981,
      "d": 214.28572499999427,
      "v": 100
    },
    {
      "midi": 59,
      "hit": false,
      "t": 200476.20049999957,
      "d": 436.50795833332813,
      "v": 125
    },
    {
      "midi": 31,
      "hit": false,
      "t": 200476.20050000082,
      "d": 412.69843333333847,
      "v": 112
    },
    {
      "midi": 43,
      "hit": false,
      "t": 200476.20050000102,
      "d": 436.50795833332813,
      "v": 115
    },
    {
      "midi": 2,
      "hit": false,
      "t": 200476.2005000026,
      "d": 7.936508333339589,
      "v": 120
    },
    {
      "midi": 42,
      "hit": false,
      "t": 200476.2005000026,
      "d": 7.936508333339589,
      "v": 100
    },
    {
      "midi": 54,
      "hit": false,
      "t": 200690.4862250026,
      "d": 7.936508333339589,
      "v": 60
    },
    {
      "midi": 67,
      "hit": false,
      "t": 200714.2957499981,
      "d": 214.28572499999427,
      "v": 100
    },
    {
      "midi": 54,
      "hit": false,
      "t": 200928.5814750026,
      "d": 7.936508333339589,
      "v": 100
    },
    {
      "midi": 59,
      "hit": false,
      "t": 200936.5179833329,
      "d": 436.50795833332813,
      "v": 119
    },
    {
      "midi": 62,
      "hit": false,
      "t": 200936.5179833329,
      "d": 436.50795833332813,
      "v": 119
    },
    {
      "midi": 67,
      "hit": false,
      "t": 200936.5179833329,
      "d": 436.50795833332813,
      "v": 119
    },
    {
      "midi": 67,
      "hit": false,
      "t": 200952.39099999808,
      "d": 214.28572499999427,
      "v": 100
    },
    {
      "midi": 78,
      "hit": false,
      "t": 200952.3910000002,
      "d": 436.50795833332813,
      "v": 120
    },
    {
      "midi": 59,
      "hit": false,
      "t": 200952.39100000024,
      "d": 936.507983333373,
      "v": 123
    },
    {
      "midi": 35,
      "hit": false,
      "t": 200952.39100000082,
      "d": 412.69843333333847,
      "v": 112
    },
    {
      "midi": 47,
      "hit": false,
      "t": 200952.39100000102,
      "d": 436.50795833332813,
      "v": 115
    },
    {
      "midi": 40,
      "hit": false,
      "t": 200952.39100000262,
      "d": 7.936508333339589,
      "v": 127
    },
    {
      "midi": 42,
      "hit": false,
      "t": 200952.39100000262,
      "d": 7.936508333339589,
      "v": 100
    },
    {
      "midi": 54,
      "hit": false,
      "t": 201166.67672500262,
      "d": 7.936508333339589,
      "v": 60
    },
    {
      "midi": 64,
      "hit": false,
      "t": 201190.48624999807,
      "d": 214.28572499999427,
      "v": 100
    },
    {
      "midi": 54,
      "hit": false,
      "t": 201404.77197500263,
      "d": 7.936508333339589,
      "v": 60
    },
    {
      "midi": 71,
      "hit": false,
      "t": 201428.58149999805,
      "d": 214.28572499999427,
      "v": 100
    },
    {
      "midi": 59,
      "hit": false,
      "t": 201428.58149999953,
      "d": 436.50795833332813,
      "v": 125
    },
    {
      "midi": 76,
      "hit": false,
      "t": 201428.5815000002,
      "d": 436.50795833332813,
      "v": 120
    },
    {
      "midi": 35,
      "hit": false,
      "t": 201428.58150000082,
      "d": 412.69843333333847,
      "v": 112
    },
    {
      "midi": 47,
      "hit": false,
      "t": 201428.58150000102,
      "d": 436.50795833332813,
      "v": 115
    },
    {
      "midi": 2,
      "hit": false,
      "t": 201428.58150000265,
      "d": 7.936508333339589,
      "v": 120
    },
    {
      "midi": 42,
      "hit": false,
      "t": 201428.58150000265,
      "d": 7.936508333339589,
      "v": 100
    },
    {
      "midi": 54,
      "hit": false,
      "t": 201642.86722500264,
      "d": 7.936508333339589,
      "v": 65
    },
    {
      "midi": 69,
      "hit": false,
      "t": 201666.67674999803,
      "d": 214.28572499999427,
      "v": 100
    },
    {
      "midi": 57,
      "hit": false,
      "t": 201873.0259666662,
      "d": 873.0159166666563,
      "v": 119
    },
    {
      "midi": 61,
      "hit": false,
      "t": 201873.0259666662,
      "d": 873.0159166666563,
      "v": 119
    },
    {
      "midi": 64,
      "hit": false,
      "t": 201873.0259666662,
      "d": 873.0159166666563,
      "v": 119
    },
    {
      "midi": 78,
      "hit": false,
      "t": 201873.02596666687,
      "d": 436.50795833332813,
      "v": 120
    },
    {
      "midi": 81,
      "hit": false,
      "t": 201880.9624750001,
      "d": 1880.9524749999982,
      "v": 100
    },
    {
      "midi": 93,
      "hit": false,
      "t": 201880.9624750001,
      "d": 1880.9524749999982,
      "v": 100
    },
    {
      "midi": 73,
      "hit": false,
      "t": 201880.96247500012,
      "d": 1880.9524749999982,
      "v": 115
    },
    {
      "midi": 64,
      "hit": false,
      "t": 201904.77199999802,
      "d": 214.28572499999427,
      "v": 100
    },
    {
      "midi": 57,
      "hit": false,
      "t": 201904.7720000003,
      "d": 1888.888983333396,
      "v": 123
    },
    {
      "midi": 57,
      "hit": false,
      "t": 201904.77200000035,
      "d": 1873.0159666666586,
      "v": 100
    },
    {
      "midi": 73,
      "hit": false,
      "t": 201904.77200000035,
      "d": 1873.0159666666586,
      "v": 100
    },
    {
      "midi": 69,
      "hit": false,
      "t": 201904.77200000035,
      "d": 1873.0159666666586,
      "v": 100
    },
    {
      "midi": 64,
      "hit": false,
      "t": 201904.77200000035,
      "d": 1873.0159666666586,
      "v": 100
    },
    {
      "midi": 33,
      "hit": false,
      "t": 201904.7720000008,
      "d": 412.69843333333847,
      "v": 118
    },
    {
      "midi": 43,
      "hit": false,
      "t": 201904.77200000102,
      "d": 436.50795833332813,
      "v": 115
    },
    {
      "midi": 52,
      "hit": false,
      "t": 201904.77200000102,
      "d": 436.50795833332813,
      "v": 115
    },
    {
      "midi": 2,
      "hit": false,
      "t": 201904.77200000265,
      "d": 7.936508333339589,
      "v": 123
    },
    {
      "midi": 54,
      "hit": false,
      "t": 201904.77200000265,
      "d": 7.936508333339589,
      "v": 100
    },
    {
      "midi": 49,
      "hit": false,
      "t": 201904.77200000265,
      "d": 7.936508333339589,
      "v": 115
    },
    {
      "midi": 40,
      "hit": false,
      "t": 201904.77200000265,
      "d": 7.936508333339589,
      "v": 127
    },
    {
      "midi": 54,
      "hit": false,
      "t": 202119.05772500264,
      "d": 7.936508333339589,
      "v": 60
    },
    {
      "midi": 69,
      "hit": false,
      "t": 202142.867249998,
      "d": 214.28572499999427,
      "v": 100
    },
    {
      "midi": 54,
      "hit": false,
      "t": 202357.15297500265,
      "d": 7.936508333339589,
      "v": 60
    },
    {
      "midi": 57,
      "hit": false,
      "t": 202380.962499998,
      "d": 214.28572499999427,
      "v": 100
    },
    {
      "midi": 76,
      "hit": false,
      "t": 202380.9625000002,
      "d": 436.50795833332813,
      "v": 120
    },
    {
      "midi": 33,
      "hit": false,
      "t": 202380.9625000008,
      "d": 412.69843333333847,
      "v": 112
    },
    {
      "midi": 43,
      "hit": false,
      "t": 202380.962500001,
      "d": 79.36508333333768,
      "v": 100
    },
    {
      "midi": 52,
      "hit": false,
      "t": 202380.962500001,
      "d": 79.36508333333768,
      "v": 100
    },
    {
      "midi": 42,
      "hit": false,
      "t": 202380.96250000267,
      "d": 7.936508333339589,
      "v": 100
    },
    {
      "midi": 54,
      "hit": false,
      "t": 202595.24822500267,
      "d": 7.936508333339589,
      "v": 60
    },
    {
      "midi": 64,
      "hit": false,
      "t": 202619.05774999797,
      "d": 214.28572499999427,
      "v": 100
    },
    {
      "midi": 54,
      "hit": false,
      "t": 202833.34347500268,
      "d": 7.936508333339589,
      "v": 100
    },
    {
      "midi": 61,
      "hit": false,
      "t": 202841.27998333285,
      "d": 873.0159166666563,
      "v": 119
    },
    {
      "midi": 67,
      "hit": false,
      "t": 202841.27998333285,
      "d": 873.0159166666563,
      "v": 119
    },
    {
      "midi": 69,
      "hit": false,
      "t": 202841.27998333285,
      "d": 873.0159166666563,
      "v": 119
    },
    {
      "midi": 61,
      "hit": false,
      "t": 202857.15299999795,
      "d": 214.28572499999427,
      "v": 100
    },
    {
      "midi": 40,
      "hit": false,
      "t": 202857.1530000008,
      "d": 412.69843333333847,
      "v": 112
    },
    {
      "midi": 43,
      "hit": false,
      "t": 202857.153000001,
      "d": 436.50795833332813,
      "v": 115
    },
    {
      "midi": 52,
      "hit": false,
      "t": 202857.153000001,
      "d": 436.50795833332813,
      "v": 115
    },
    {
      "midi": 40,
      "hit": false,
      "t": 202857.1530000027,
      "d": 7.936508333339589,
      "v": 127
    },
    {
      "midi": 42,
      "hit": false,
      "t": 202857.1530000027,
      "d": 7.936508333339589,
      "v": 100
    },
    {
      "midi": 54,
      "hit": false,
      "t": 203071.4387250027,
      "d": 7.936508333339589,
      "v": 60
    },
    {
      "midi": 57,
      "hit": false,
      "t": 203095.24824999794,
      "d": 214.28572499999427,
      "v": 100
    },
    {
      "midi": 54,
      "hit": false,
      "t": 203309.5339750027,
      "d": 7.936508333339589,
      "v": 65
    },
    {
      "midi": 57,
      "hit": false,
      "t": 203333.34349999792,
      "d": 214.28572499999427,
      "v": 100
    },
    {
      "midi": 43,
      "hit": false,
      "t": 203333.3435000008,
      "d": 412.69843333333847,
      "v": 112
    },
    {
      "midi": 52,
      "hit": false,
      "t": 203333.343500001,
      "d": 436.50795833335724,
      "v": 115
    },
    {
      "midi": 43,
      "hit": false,
      "t": 203333.343500001,
      "d": 436.50795833335724,
      "v": 115
    },
    {
      "midi": 2,
      "hit": false,
      "t": 203333.34350000272,
      "d": 7.936508333339589,
      "v": 120
    },
    {
      "midi": 42,
      "hit": false,
      "t": 203333.34350000272,
      "d": 7.936508333339589,
      "v": 100
    },
    {
      "midi": 54,
      "hit": false,
      "t": 203547.62922500272,
      "d": 7.936508333339589,
      "v": 60
    },
    {
      "midi": 61,
      "hit": false,
      "t": 203571.4387499979,
      "d": 214.28572499999427,
      "v": 100
    },
    {
      "midi": 78,
      "hit": false,
      "t": 203785.72447500008,
      "d": 952.380999999994,
      "v": 100
    },
    {
      "midi": 90,
      "hit": false,
      "t": 203785.72447500008,
      "d": 952.380999999994,
      "v": 100
    },
    {
      "midi": 69,
      "hit": false,
      "t": 203785.7244750001,
      "d": 936.5079833333439,
      "v": 100
    },
    {
      "midi": 54,
      "hit": false,
      "t": 203785.72447500273,
      "d": 7.936508333339589,
      "v": 100
    },
    {
      "midi": 57,
      "hit": false,
      "t": 203793.66098333284,
      "d": 873.0159166666563,
      "v": 119
    },
    {
      "midi": 61,
      "hit": false,
      "t": 203793.66098333284,
      "d": 873.0159166666563,
      "v": 119
    },
    {
      "midi": 66,
      "hit": false,
      "t": 203793.66098333284,
      "d": 873.0159166666563,
      "v": 119
    },
    {
      "midi": 69,
      "hit": false,
      "t": 203809.5339999979,
      "d": 214.28572499999427,
      "v": 100
    },
    {
      "midi": 78,
      "hit": false,
      "t": 203809.5340000002,
      "d": 873.0159166666563,
      "v": 120
    },
    {
      "midi": 62,
      "hit": false,
      "t": 203809.53400000033,
      "d": 873.0159166666563,
      "v": 100
    },
    {
      "midi": 69,
      "hit": false,
      "t": 203809.53400000033,
      "d": 873.0159166666563,
      "v": 100
    },
    {
      "midi": 61,
      "hit": false,
      "t": 203809.53400000036,
      "d": 698.4127333333599,
      "v": 110
    },
    {
      "midi": 66,
      "hit": false,
      "t": 203809.53400000036,
      "d": 698.4127333333599,
      "v": 110
    },
    {
      "midi": 69,
      "hit": false,
      "t": 203809.53400000036,
      "d": 698.4127333333599,
      "v": 110
    },
    {
      "midi": 45,
      "hit": false,
      "t": 203809.5340000008,
      "d": 412.69843333333847,
      "v": 112
    },
    {
      "midi": 54,
      "hit": false,
      "t": 203809.53400000103,
      "d": 873.0159166666854,
      "v": 115
    },
    {
      "midi": 2,
      "hit": false,
      "t": 203809.53400000275,
      "d": 7.936508333339589,
      "v": 120
    },
    {
      "midi": 48,
      "hit": false,
      "t": 203809.53400000275,
      "d": 7.936508333339589,
      "v": 127
    },
    {
      "midi": 54,
      "hit": false,
      "t": 204023.81972500274,
      "d": 7.936508333339589,
      "v": 60
    },
    {
      "midi": 57,
      "hit": false,
      "t": 204047.62924999787,
      "d": 214.28572499999427,
      "v": 100
    },
    {
      "midi": 48,
      "hit": false,
      "t": 204047.62925000276,
      "d": 7.936508333339589,
      "v": 127
    },
    {
      "midi": 54,
      "hit": false,
      "t": 204261.91497500276,
      "d": 7.936508333339589,
      "v": 60
    },
    {
      "midi": 64,
      "hit": false,
      "t": 204285.72449999786,
      "d": 214.28572499999427,
      "v": 100
    },
    {
      "midi": 45,
      "hit": false,
      "t": 204285.7245000008,
      "d": 412.69843333333847,
      "v": 112
    },
    {
      "midi": 47,
      "hit": false,
      "t": 204285.72450000278,
      "d": 7.936508333339589,
      "v": 127
    },
    {
      "midi": 54,
      "hit": false,
      "t": 204500.01022500277,
      "d": 7.936508333339589,
      "v": 60
    },
    {
      "midi": 69,
      "hit": false,
      "t": 204523.81974999784,
      "d": 214.28572499999427,
      "v": 100
    },
    {
      "midi": 61,
      "hit": false,
      "t": 204523.8197500004,
      "d": 119.04762500000652,
      "v": 110
    },
    {
      "midi": 66,
      "hit": false,
      "t": 204523.8197500004,
      "d": 119.04762500000652,
      "v": 110
    },
    {
      "midi": 69,
      "hit": false,
      "t": 204523.8197500004,
      "d": 119.04762500000652,
      "v": 110
    },
    {
      "midi": 79,
      "hit": false,
      "t": 204738.10547500008,
      "d": 952.380999999994,
      "v": 100
    },
    {
      "midi": 91,
      "hit": false,
      "t": 204738.10547500008,
      "d": 952.380999999994,
      "v": 100
    },
    {
      "midi": 71,
      "hit": false,
      "t": 204738.10547500013,
      "d": 936.5079833333439,
      "v": 100
    },
    {
      "midi": 54,
      "hit": false,
      "t": 204738.10547500278,
      "d": 7.936508333339589,
      "v": 100
    },
    {
      "midi": 59,
      "hit": false,
      "t": 204746.04198333283,
      "d": 873.0159166666563,
      "v": 119
    },
    {
      "midi": 62,
      "hit": false,
      "t": 204746.04198333283,
      "d": 873.0159166666563,
      "v": 119
    },
    {
      "midi": 67,
      "hit": false,
      "t": 204746.04198333283,
      "d": 873.0159166666563,
      "v": 119
    },
    {
      "midi": 69,
      "hit": false,
      "t": 204761.91499999783,
      "d": 214.28572499999427,
      "v": 100
    },
    {
      "midi": 79,
      "hit": false,
      "t": 204761.91500000018,
      "d": 873.0159166666563,
      "v": 120
    },
    {
      "midi": 64,
      "hit": false,
      "t": 204761.91500000033,
      "d": 873.0159166666563,
      "v": 100
    },
    {
      "midi": 69,
      "hit": false,
      "t": 204761.91500000033,
      "d": 873.0159166666563,
      "v": 100
    },
    {
      "midi": 71,
      "hit": false,
      "t": 204761.91500000033,
      "d": 873.0159166666563,
      "v": 100
    },
    {
      "midi": 62,
      "hit": false,
      "t": 204761.9150000004,
      "d": 698.4127333333308,
      "v": 110
    },
    {
      "midi": 67,
      "hit": false,
      "t": 204761.9150000004,
      "d": 698.4127333333308,
      "v": 110
    },
    {
      "midi": 71,
      "hit": false,
      "t": 204761.9150000004,
      "d": 698.4127333333308,
      "v": 110
    },
    {
      "midi": 45,
      "hit": false,
      "t": 204761.9150000008,
      "d": 412.69843333333847,
      "v": 112
    },
    {
      "midi": 55,
      "hit": false,
      "t": 204761.91500000103,
      "d": 873.0159166666854,
      "v": 115
    },
    {
      "midi": 2,
      "hit": false,
      "t": 204761.9150000028,
      "d": 7.936508333339589,
      "v": 120
    },
    {
      "midi": 40,
      "hit": false,
      "t": 204761.9150000028,
      "d": 7.936508333339589,
      "v": 127
    },
    {
      "midi": 54,
      "hit": false,
      "t": 204976.2007250028,
      "d": 7.936508333339589,
      "v": 60
    },
    {
      "midi": 64,
      "hit": false,
      "t": 205000.0102499978,
      "d": 214.28572499999427,
      "v": 100
    },
    {
      "midi": 40,
      "hit": false,
      "t": 205000.01025000282,
      "d": 7.936508333339589,
      "v": 127
    },
    {
      "midi": 54,
      "hit": false,
      "t": 205214.2959750028,
      "d": 7.936508333339589,
      "v": 60
    },
    {
      "midi": 76,
      "hit": false,
      "t": 205238.1054999978,
      "d": 214.28572499999427,
      "v": 100
    },
    {
      "midi": 45,
      "hit": false,
      "t": 205238.1055000008,
      "d": 412.69843333333847,
      "v": 112
    },
    {
      "midi": 40,
      "hit": false,
      "t": 205238.10550000283,
      "d": 7.936508333339589,
      "v": 127
    },
    {
      "midi": 54,
      "hit": false,
      "t": 205452.39122500282,
      "d": 7.936508333339589,
      "v": 65
    },
    {
      "midi": 64,
      "hit": false,
      "t": 205476.20074999778,
      "d": 214.28572499999427,
      "v": 100
    },
    {
      "midi": 62,
      "hit": false,
      "t": 205476.2007500004,
      "d": 119.04762500000652,
      "v": 110
    },
    {
      "midi": 67,
      "hit": false,
      "t": 205476.2007500004,
      "d": 119.04762500000652,
      "v": 110
    },
    {
      "midi": 71,
      "hit": false,
      "t": 205476.2007500004,
      "d": 119.04762500000652,
      "v": 110
    },
    {
      "midi": 40,
      "hit": false,
      "t": 205476.20075000284,
      "d": 7.936508333339589,
      "v": 127
    },
    {
      "midi": 69,
      "hit": false,
      "t": 205674.6134583329,
      "d": 1825.3969166666502,
      "v": 90
    },
    {
      "midi": 62,
      "hit": false,
      "t": 205682.54996666615,
      "d": 634.9206666666723,
      "v": 119
    },
    {
      "midi": 66,
      "hit": false,
      "t": 205682.54996666615,
      "d": 634.9206666666723,
      "v": 119
    },
    {
      "midi": 69,
      "hit": false,
      "t": 205682.54996666615,
      "d": 634.9206666666723,
      "v": 119
    },
    {
      "midi": 81,
      "hit": false,
      "t": 205690.48647500007,
      "d": 5690.476475000003,
      "v": 100
    },
    {
      "midi": 93,
      "hit": false,
      "t": 205690.48647500007,
      "d": 5690.476475000003,
      "v": 100
    },
    {
      "midi": 74,
      "hit": false,
      "t": 205690.48647500016,
      "d": 3793.6509833333257,
      "v": 115
    },
    {
      "midi": 57,
      "hit": false,
      "t": 205714.29599999776,
      "d": 436.50795833332813,
      "v": 100
    },
    {
      "midi": 81,
      "hit": false,
      "t": 205714.29600000018,
      "d": 396.8254166666593,
      "v": 120
    },
    {
      "midi": 66,
      "hit": false,
      "t": 205714.29600000032,
      "d": 436.50795833332813,
      "v": 100
    },
    {
      "midi": 69,
      "hit": false,
      "t": 205714.29600000032,
      "d": 436.50795833332813,
      "v": 100
    },
    {
      "midi": 74,
      "hit": false,
      "t": 205714.29600000032,
      "d": 436.50795833332813,
      "v": 100
    },
    {
      "midi": 66,
      "hit": false,
      "t": 205714.2960000004,
      "d": 912.6984583333833,
      "v": 120
    },
    {
      "midi": 69,
      "hit": false,
      "t": 205714.2960000004,
      "d": 912.6984583333833,
      "v": 120
    },
    {
      "midi": 74,
      "hit": false,
      "t": 205714.2960000004,
      "d": 912.6984583333833,
      "v": 120
    },
    {
      "midi": 38,
      "hit": false,
      "t": 205714.2960000008,
      "d": 412.69843333333847,
      "v": 118
    },
    {
      "midi": 50,
      "hit": false,
      "t": 205714.29600000102,
      "d": 436.50795833332813,
      "v": 115
    },
    {
      "midi": 57,
      "hit": false,
      "t": 205714.29600000102,
      "d": 436.50795833332813,
      "v": 115
    },
    {
      "midi": 2,
      "hit": false,
      "t": 205714.29600000285,
      "d": 7.936508333339589,
      "v": 123
    },
    {
      "midi": 54,
      "hit": false,
      "t": 205714.29600000285,
      "d": 7.936508333339589,
      "v": 100
    },
    {
      "midi": 49,
      "hit": false,
      "t": 205714.29600000285,
      "d": 7.936508333339589,
      "v": 115
    },
    {
      "midi": 40,
      "hit": false,
      "t": 205714.29600000285,
      "d": 7.936508333339589,
      "v": 127
    },
    {
      "midi": 74,
      "hit": false,
      "t": 205730.16901666622,
      "d": 1825.3969166666502,
      "v": 90
    },
    {
      "midi": 76,
      "hit": false,
      "t": 205777.78806666622,
      "d": 1825.3969166666502,
      "v": 90
    },
    {
      "midi": 78,
      "hit": false,
      "t": 205809.53409999955,
      "d": 1825.3969166666502,
      "v": 90
    },
    {
      "midi": 54,
      "hit": false,
      "t": 205928.58172500285,
      "d": 7.936508333339589,
      "v": 60
    },
    {
      "midi": 54,
      "hit": false,
      "t": 206166.67697500286,
      "d": 7.936508333339589,
      "v": 60
    },
    {
      "midi": 62,
      "hit": false,
      "t": 206190.48649999776,
      "d": 214.28572499999427,
      "v": 100
    },
    {
      "midi": 81,
      "hit": false,
      "t": 206190.48650000017,
      "d": 912.6984583333251,
      "v": 120
    },
    {
      "midi": 66,
      "hit": false,
      "t": 206190.48650000032,
      "d": 873.0159166666563,
      "v": 100
    },
    {
      "midi": 69,
      "hit": false,
      "t": 206190.48650000032,
      "d": 873.0159166666563,
      "v": 100
    },
    {
      "midi": 74,
      "hit": false,
      "t": 206190.48650000032,
      "d": 873.0159166666563,
      "v": 100
    },
    {
      "midi": 38,
      "hit": false,
      "t": 206190.48650000078,
      "d": 412.69843333333847,
      "v": 112
    },
    {
      "midi": 50,
      "hit": false,
      "t": 206190.48650000102,
      "d": 79.36508333333768,
      "v": 100
    },
    {
      "midi": 57,
      "hit": false,
      "t": 206190.48650000102,
      "d": 79.36508333333768,
      "v": 100
    },
    {
      "midi": 42,
      "hit": false,
      "t": 206190.48650000288,
      "d": 7.936508333339589,
      "v": 100
    },
    {
      "midi": 54,
      "hit": false,
      "t": 206404.77222500287,
      "d": 7.936508333339589,
      "v": 60
    },
    {
      "midi": 66,
      "hit": false,
      "t": 206412.7087333328,
      "d": 214.28572499999427,
      "v": 119
    },
    {
      "midi": 69,
      "hit": false,
      "t": 206412.7087333328,
      "d": 214.28572499999427,
      "v": 119
    },
    {
      "midi": 74,
      "hit": false,
      "t": 206412.7087333328,
      "d": 214.28572499999427,
      "v": 119
    },
    {
      "midi": 57,
      "hit": false,
      "t": 206428.58174999774,
      "d": 214.28572499999427,
      "v": 100
    },
    {
      "midi": 54,
      "hit": false,
      "t": 206642.8674750029,
      "d": 7.936508333339589,
      "v": 100
    },
    {
      "midi": 64,
      "hit": false,
      "t": 206666.67699999773,
      "d": 214.28572499999427,
      "v": 100
    },
    {
      "midi": 50,
      "hit": false,
      "t": 206666.67700000046,
      "d": 119.04762500000652,
      "v": 115
    },
    {
      "midi": 57,
      "hit": false,
      "t": 206666.67700000046,
      "d": 119.04762500000652,
      "v": 115
    },
    {
      "midi": 38,
      "hit": false,
      "t": 206666.67700000078,
      "d": 412.69843333333847,
      "v": 112
    },
    {
      "midi": 57,
      "hit": false,
      "t": 206666.67700000101,
      "d": 79.36508333333768,
      "v": 100
    },
    {
      "midi": 50,
      "hit": false,
      "t": 206666.67700000101,
      "d": 79.36508333333768,
      "v": 100
    },
    {
      "midi": 40,
      "hit": false,
      "t": 206666.6770000029,
      "d": 7.936508333339589,
      "v": 127
    },
    {
      "midi": 42,
      "hit": false,
      "t": 206666.6770000029,
      "d": 7.936508333339589,
      "v": 100
    },
    {
      "midi": 54,
      "hit": false,
      "t": 206880.9627250029,
      "d": 7.936508333339589,
      "v": 60
    },
    {
      "midi": 62,
      "hit": false,
      "t": 206904.7722499977,
      "d": 214.28572499999427,
      "v": 100
    },
    {
      "midi": 54,
      "hit": false,
      "t": 207119.0579750029,
      "d": 7.936508333339589,
      "v": 65
    },
    {
      "midi": 66,
      "hit": false,
      "t": 207126.9944833328,
      "d": 634.9206666666723,
      "v": 119
    },
    {
      "midi": 69,
      "hit": false,
      "t": 207126.9944833328,
      "d": 634.9206666666723,
      "v": 119
    },
    {
      "midi": 74,
      "hit": false,
      "t": 207126.9944833328,
      "d": 634.9206666666723,
      "v": 119
    },
    {
      "midi": 62,
      "hit": false,
      "t": 207142.8674999977,
      "d": 214.28572499999427,
      "v": 100
    },
    {
      "midi": 81,
      "hit": false,
      "t": 207142.86750000017,
      "d": 436.50795833332813,
      "v": 120
    },
    {
      "midi": 66,
      "hit": false,
      "t": 207142.8675000003,
      "d": 436.50795833332813,
      "v": 100
    },
    {
      "midi": 69,
      "hit": false,
      "t": 207142.8675000003,
      "d": 436.50795833332813,
      "v": 100
    },
    {
      "midi": 74,
      "hit": false,
      "t": 207142.8675000003,
      "d": 436.50795833332813,
      "v": 100
    },
    {
      "midi": 50,
      "hit": false,
      "t": 207142.86750000046,
      "d": 119.04762500000652,
      "v": 115
    },
    {
      "midi": 57,
      "hit": false,
      "t": 207142.86750000046,
      "d": 119.04762500000652,
      "v": 115
    },
    {
      "midi": 38,
      "hit": false,
      "t": 207142.86750000078,
      "d": 412.69843333333847,
      "v": 112
    },
    {
      "midi": 50,
      "hit": false,
      "t": 207142.867500001,
      "d": 436.50795833332813,
      "v": 115
    },
    {
      "midi": 57,
      "hit": false,
      "t": 207142.867500001,
      "d": 436.50795833332813,
      "v": 115
    },
    {
      "midi": 42,
      "hit": false,
      "t": 207142.86750000293,
      "d": 7.936508333339589,
      "v": 100
    },
    {
      "midi": 54,
      "hit": false,
      "t": 207357.15322500293,
      "d": 7.936508333339589,
      "v": 60
    },
    {
      "midi": 64,
      "hit": false,
      "t": 207380.96274999768,
      "d": 214.28572499999427,
      "v": 100
    },
    {
      "midi": 54,
      "hit": false,
      "t": 207595.24847500294,
      "d": 7.936508333339589,
      "v": 100
    },
    {
      "midi": 69,
      "hit": false,
      "t": 207619.05799999766,
      "d": 214.28572499999427,
      "v": 100
    },
    {
      "midi": 81,
      "hit": false,
      "t": 207619.05800000016,
      "d": 436.50795833332813,
      "v": 120
    },
    {
      "midi": 66,
      "hit": false,
      "t": 207619.0580000003,
      "d": 436.50795833332813,
      "v": 100
    },
    {
      "midi": 69,
      "hit": false,
      "t": 207619.0580000003,
      "d": 436.50795833332813,
      "v": 100
    },
    {
      "midi": 74,
      "hit": false,
      "t": 207619.0580000003,
      "d": 436.50795833332813,
      "v": 100
    },
    {
      "midi": 50,
      "hit": false,
      "t": 207619.05800000046,
      "d": 119.04762500000652,
      "v": 115
    },
    {
      "midi": 57,
      "hit": false,
      "t": 207619.05800000046,
      "d": 119.04762500000652,
      "v": 115
    },
    {
      "midi": 38,
      "hit": false,
      "t": 207619.05800000078,
      "d": 412.69843333333847,
      "v": 112
    },
    {
      "midi": 50,
      "hit": false,
      "t": 207619.058000001,
      "d": 79.36508333333768,
      "v": 100
    },
    {
      "midi": 57,
      "hit": false,
      "t": 207619.058000001,
      "d": 79.36508333333768,
      "v": 100
    },
    {
      "midi": 40,
      "hit": false,
      "t": 207619.05800000296,
      "d": 7.936508333339589,
      "v": 127
    },
    {
      "midi": 42,
      "hit": false,
      "t": 207619.05800000296,
      "d": 7.936508333339589,
      "v": 115
    },
    {
      "midi": 54,
      "hit": false,
      "t": 207833.34372500295,
      "d": 7.936508333339589,
      "v": 60
    },
    {
      "midi": 66,
      "hit": false,
      "t": 207841.2802333328,
      "d": 214.28572499999427,
      "v": 119
    },
    {
      "midi": 69,
      "hit": false,
      "t": 207841.2802333328,
      "d": 214.28572499999427,
      "v": 119
    },
    {
      "midi": 74,
      "hit": false,
      "t": 207841.2802333328,
      "d": 214.28572499999427,
      "v": 119
    },
    {
      "midi": 62,
      "hit": false,
      "t": 207857.15324999765,
      "d": 214.28572499999427,
      "v": 100
    },
    {
      "midi": 54,
      "hit": false,
      "t": 208071.43897500297,
      "d": 7.936508333339589,
      "v": 60
    },
    {
      "midi": 62,
      "hit": false,
      "t": 208095.24849999763,
      "d": 214.28572499999427,
      "v": 100
    },
    {
      "midi": 79,
      "hit": false,
      "t": 208095.24850000016,
      "d": 436.50795833332813,
      "v": 120
    },
    {
      "midi": 66,
      "hit": false,
      "t": 208095.2485000003,
      "d": 436.50795833332813,
      "v": 100
    },
    {
      "midi": 69,
      "hit": false,
      "t": 208095.2485000003,
      "d": 436.50795833332813,
      "v": 100
    },
    {
      "midi": 74,
      "hit": false,
      "t": 208095.2485000003,
      "d": 436.50795833332813,
      "v": 100
    },
    {
      "midi": 50,
      "hit": false,
      "t": 208095.24850000045,
      "d": 119.04762500000652,
      "v": 115
    },
    {
      "midi": 57,
      "hit": false,
      "t": 208095.24850000045,
      "d": 119.04762500000652,
      "v": 115
    },
    {
      "midi": 38,
      "hit": false,
      "t": 208095.24850000077,
      "d": 412.69843333333847,
      "v": 112
    },
    {
      "midi": 57,
      "hit": false,
      "t": 208095.248500001,
      "d": 79.36508333333768,
      "v": 100
    },
    {
      "midi": 50,
      "hit": false,
      "t": 208095.248500001,
      "d": 79.36508333333768,
      "v": 100
    },
    {
      "midi": 2,
      "hit": false,
      "t": 208095.24850000298,
      "d": 7.936508333339589,
      "v": 120
    },
    {
      "midi": 42,
      "hit": false,
      "t": 208095.24850000298,
      "d": 7.936508333339589,
      "v": 100
    },
    {
      "midi": 54,
      "hit": false,
      "t": 208309.53422500298,
      "d": 7.936508333339589,
      "v": 60
    },
    {
      "midi": 69,
      "hit": false,
      "t": 208333.3437499976,
      "d": 214.28572499999427,
      "v": 100
    },
    {
      "midi": 54,
      "hit": false,
      "t": 208547.629475003,
      "d": 7.936508333339589,
      "v": 100
    },
    {
      "midi": 66,
      "hit": false,
      "t": 208555.56598333278,
      "d": 873.0159166666563,
      "v": 119
    },
    {
      "midi": 69,
      "hit": false,
      "t": 208555.56598333278,
      "d": 873.0159166666563,
      "v": 119
    },
    {
      "midi": 74,
      "hit": false,
      "t": 208555.56598333278,
      "d": 873.0159166666563,
      "v": 119
    },
    {
      "midi": 64,
      "hit": false,
      "t": 208571.4389999976,
      "d": 214.28572499999427,
      "v": 100
    },
    {
      "midi": 78,
      "hit": false,
      "t": 208571.43900000016,
      "d": 436.50795833332813,
      "v": 120
    },
    {
      "midi": 66,
      "hit": false,
      "t": 208571.4390000003,
      "d": 436.50795833332813,
      "v": 100
    },
    {
      "midi": 69,
      "hit": false,
      "t": 208571.4390000003,
      "d": 436.50795833332813,
      "v": 100
    },
    {
      "midi": 74,
      "hit": false,
      "t": 208571.4390000003,
      "d": 436.50795833332813,
      "v": 100
    },
    {
      "midi": 50,
      "hit": false,
      "t": 208571.43900000045,
      "d": 912.698458333296,
      "v": 120
    },
    {
      "midi": 57,
      "hit": false,
      "t": 208571.43900000045,
      "d": 912.698458333296,
      "v": 120
    },
    {
      "midi": 38,
      "hit": false,
      "t": 208571.43900000077,
      "d": 412.69843333333847,
      "v": 112
    },
    {
      "midi": 50,
      "hit": false,
      "t": 208571.439000001,
      "d": 436.50795833332813,
      "v": 115
    },
    {
      "midi": 57,
      "hit": false,
      "t": 208571.439000001,
      "d": 436.50795833332813,
      "v": 115
    },
    {
      "midi": 40,
      "hit": false,
      "t": 208571.439000003,
      "d": 7.936508333339589,
      "v": 127
    },
    {
      "midi": 42,
      "hit": false,
      "t": 208571.439000003,
      "d": 7.936508333339589,
      "v": 100
    },
    {
      "midi": 54,
      "hit": false,
      "t": 208785.724725003,
      "d": 7.936508333339589,
      "v": 60
    },
    {
      "midi": 62,
      "hit": false,
      "t": 208809.53424999758,
      "d": 214.28572499999427,
      "v": 100
    },
    {
      "midi": 54,
      "hit": false,
      "t": 209023.81997500302,
      "d": 7.936508333339589,
      "v": 60
    },
    {
      "midi": 69,
      "hit": false,
      "t": 209047.62949999757,
      "d": 214.28572499999427,
      "v": 100
    },
    {
      "midi": 79,
      "hit": false,
      "t": 209047.62950000016,
      "d": 436.50795833332813,
      "v": 120
    },
    {
      "midi": 66,
      "hit": false,
      "t": 209047.6295000003,
      "d": 436.50795833332813,
      "v": 100
    },
    {
      "midi": 69,
      "hit": false,
      "t": 209047.6295000003,
      "d": 436.50795833332813,
      "v": 100
    },
    {
      "midi": 74,
      "hit": false,
      "t": 209047.6295000003,
      "d": 436.50795833332813,
      "v": 100
    },
    {
      "midi": 38,
      "hit": false,
      "t": 209047.62950000077,
      "d": 412.69843333333847,
      "v": 112
    },
    {
      "midi": 50,
      "hit": false,
      "t": 209047.629500001,
      "d": 436.50795833332813,
      "v": 115
    },
    {
      "midi": 57,
      "hit": false,
      "t": 209047.629500001,
      "d": 436.50795833332813,
      "v": 115
    },
    {
      "midi": 2,
      "hit": false,
      "t": 209047.62950000304,
      "d": 7.936508333339589,
      "v": 120
    },
    {
      "midi": 42,
      "hit": false,
      "t": 209047.62950000304,
      "d": 7.936508333339589,
      "v": 100
    },
    {
      "midi": 54,
      "hit": false,
      "t": 209261.91522500303,
      "d": 7.936508333339589,
      "v": 65
    },
    {
      "midi": 62,
      "hit": false,
      "t": 209285.72474999755,
      "d": 214.28572499999427,
      "v": 100
    },
    {
      "midi": 64,
      "hit": false,
      "t": 209492.0739666661,
      "d": 634.9206666666723,
      "v": 119
    },
    {
      "midi": 73,
      "hit": false,
      "t": 209492.0739666661,
      "d": 634.9206666666723,
      "v": 119
    },
    {
      "midi": 69,
      "hit": false,
      "t": 209492.0739666661,
      "d": 634.9206666666723,
      "v": 119
    },
    {
      "midi": 67,
      "hit": false,
      "t": 209492.0739666661,
      "d": 634.9206666666723,
      "v": 119
    },
    {
      "midi": 73,
      "hit": false,
      "t": 209500.01047500016,
      "d": 3793.6509833333257,
      "v": 115
    },
    {
      "midi": 57,
      "hit": false,
      "t": 209523.81999999753,
      "d": 214.28572499999427,
      "v": 100
    },
    {
      "midi": 81,
      "hit": false,
      "t": 209523.82000000015,
      "d": 1269.8413333333447,
      "v": 120
    },
    {
      "midi": 64,
      "hit": false,
      "t": 209523.8200000003,
      "d": 1349.2064166666532,
      "v": 100
    },
    {
      "midi": 69,
      "hit": false,
      "t": 209523.8200000003,
      "d": 1349.2064166666532,
      "v": 100
    },
    {
      "midi": 73,
      "hit": false,
      "t": 209523.8200000003,
      "d": 1349.2064166666532,
      "v": 100
    },
    {
      "midi": 45,
      "hit": false,
      "t": 209523.8200000004,
      "d": 912.6984583333251,
      "v": 120
    },
    {
      "midi": 52,
      "hit": false,
      "t": 209523.8200000004,
      "d": 912.6984583333251,
      "v": 120
    },
    {
      "midi": 33,
      "hit": false,
      "t": 209523.82000000076,
      "d": 412.69843333333847,
      "v": 118
    },
    {
      "midi": 45,
      "hit": false,
      "t": 209523.820000001,
      "d": 436.50795833332813,
      "v": 115
    },
    {
      "midi": 52,
      "hit": false,
      "t": 209523.820000001,
      "d": 436.50795833332813,
      "v": 115
    },
    {
      "midi": 2,
      "hit": false,
      "t": 209523.82000000303,
      "d": 7.936508333339589,
      "v": 123
    },
    {
      "midi": 54,
      "hit": false,
      "t": 209523.82000000303,
      "d": 7.936508333339589,
      "v": 100
    },
    {
      "midi": 42,
      "hit": false,
      "t": 209523.82000000303,
      "d": 7.936508333339589,
      "v": 115
    },
    {
      "midi": 40,
      "hit": false,
      "t": 209523.82000000303,
      "d": 7.936508333339589,
      "v": 127
    },
    {
      "midi": 54,
      "hit": false,
      "t": 209738.10572500303,
      "d": 7.936508333339589,
      "v": 60
    },
    {
      "midi": 69,
      "hit": false,
      "t": 209761.91524999752,
      "d": 214.28572499999427,
      "v": 100
    },
    {
      "midi": 54,
      "hit": false,
      "t": 209976.20097500304,
      "d": 7.936508333339589,
      "v": 60
    },
    {
      "midi": 61,
      "hit": false,
      "t": 210000.0104999975,
      "d": 214.28572499999427,
      "v": 100
    },
    {
      "midi": 33,
      "hit": false,
      "t": 210000.01050000076,
      "d": 412.69843333333847,
      "v": 112
    },
    {
      "midi": 45,
      "hit": false,
      "t": 210000.010500001,
      "d": 79.36508333333768,
      "v": 100
    },
    {
      "midi": 52,
      "hit": false,
      "t": 210000.010500001,
      "d": 79.36508333333768,
      "v": 100
    },
    {
      "midi": 42,
      "hit": false,
      "t": 210000.01050000306,
      "d": 7.936508333339589,
      "v": 100
    },
    {
      "midi": 54,
      "hit": false,
      "t": 210214.29622500305,
      "d": 7.936508333339589,
      "v": 60
    },
    {
      "midi": 64,
      "hit": false,
      "t": 210222.23273333276,
      "d": 214.28572499999427,
      "v": 119
    },
    {
      "midi": 73,
      "hit": false,
      "t": 210222.23273333276,
      "d": 214.28572499999427,
      "v": 119
    },
    {
      "midi": 69,
      "hit": false,
      "t": 210222.23273333276,
      "d": 214.28572499999427,
      "v": 119
    },
    {
      "midi": 67,
      "hit": false,
      "t": 210222.23273333276,
      "d": 214.28572499999427,
      "v": 119
    },
    {
      "midi": 57,
      "hit": false,
      "t": 210238.10574999748,
      "d": 214.28572499999427,
      "v": 100
    },
    {
      "midi": 54,
      "hit": false,
      "t": 210452.39147500307,
      "d": 7.936508333339589,
      "v": 100
    },
    {
      "midi": 64,
      "hit": false,
      "t": 210476.20099999747,
      "d": 214.28572499999427,
      "v": 100
    },
    {
      "midi": 45,
      "hit": false,
      "t": 210476.2010000004,
      "d": 119.04762500000652,
      "v": 115
    },
    {
      "midi": 52,
      "hit": false,
      "t": 210476.2010000004,
      "d": 119.04762500000652,
      "v": 115
    },
    {
      "midi": 33,
      "hit": false,
      "t": 210476.20100000076,
      "d": 412.69843333333847,
      "v": 112
    },
    {
      "midi": 45,
      "hit": false,
      "t": 210476.201000001,
      "d": 79.36508333333768,
      "v": 100
    },
    {
      "midi": 52,
      "hit": false,
      "t": 210476.201000001,
      "d": 79.36508333333768,
      "v": 100
    },
    {
      "midi": 40,
      "hit": false,
      "t": 210476.2010000031,
      "d": 7.936508333339589,
      "v": 127
    },
    {
      "midi": 42,
      "hit": false,
      "t": 210476.2010000031,
      "d": 7.936508333339589,
      "v": 100
    },
    {
      "midi": 54,
      "hit": false,
      "t": 210690.48672500308,
      "d": 7.936508333339589,
      "v": 60
    },
    {
      "midi": 61,
      "hit": false,
      "t": 210714.29624999745,
      "d": 214.28572499999427,
      "v": 100
    },
    {
      "midi": 54,
      "hit": false,
      "t": 210928.5819750031,
      "d": 7.936508333339589,
      "v": 65
    },
    {
      "midi": 64,
      "hit": false,
      "t": 210936.51848333274,
      "d": 873.0159166666563,
      "v": 119
    },
    {
      "midi": 73,
      "hit": false,
      "t": 210936.51848333274,
      "d": 873.0159166666563,
      "v": 119
    },
    {
      "midi": 69,
      "hit": false,
      "t": 210936.51848333274,
      "d": 873.0159166666563,
      "v": 119
    },
    {
      "midi": 67,
      "hit": false,
      "t": 210936.51848333274,
      "d": 873.0159166666563,
      "v": 119
    },
    {
      "midi": 61,
      "hit": false,
      "t": 210952.39149999744,
      "d": 214.28572499999427,
      "v": 100
    },
    {
      "midi": 76,
      "hit": false,
      "t": 210952.39150000017,
      "d": 436.50795833332813,
      "v": 120
    },
    {
      "midi": 64,
      "hit": false,
      "t": 210952.3915000003,
      "d": 436.50795833332813,
      "v": 100
    },
    {
      "midi": 69,
      "hit": false,
      "t": 210952.3915000003,
      "d": 436.50795833332813,
      "v": 100
    },
    {
      "midi": 73,
      "hit": false,
      "t": 210952.3915000003,
      "d": 436.50795833332813,
      "v": 100
    },
    {
      "midi": 45,
      "hit": false,
      "t": 210952.3915000004,
      "d": 119.04762500000652,
      "v": 115
    },
    {
      "midi": 52,
      "hit": false,
      "t": 210952.3915000004,
      "d": 119.04762500000652,
      "v": 115
    },
    {
      "midi": 33,
      "hit": false,
      "t": 210952.39150000075,
      "d": 412.69843333333847,
      "v": 112
    },
    {
      "midi": 45,
      "hit": false,
      "t": 210952.391500001,
      "d": 436.50795833332813,
      "v": 115
    },
    {
      "midi": 52,
      "hit": false,
      "t": 210952.391500001,
      "d": 436.50795833332813,
      "v": 115
    },
    {
      "midi": 42,
      "hit": false,
      "t": 210952.3915000031,
      "d": 7.936508333339589,
      "v": 100
    },
    {
      "midi": 54,
      "hit": false,
      "t": 211166.6772250031,
      "d": 7.936508333339589,
      "v": 60
    },
    {
      "midi": 64,
      "hit": false,
      "t": 211190.48674999742,
      "d": 214.28572499999427,
      "v": 100
    },
    {
      "midi": 83,
      "hit": false,
      "t": 211404.77247500006,
      "d": 952.380999999994,
      "v": 100
    },
    {
      "midi": 95,
      "hit": false,
      "t": 211404.77247500006,
      "d": 952.380999999994,
      "v": 100
    },
    {
      "midi": 54,
      "hit": false,
      "t": 211404.77247500312,
      "d": 7.936508333339589,
      "v": 100
    },
    {
      "midi": 69,
      "hit": false,
      "t": 211428.5819999974,
      "d": 214.28572499999427,
      "v": 100
    },
    {
      "midi": 76,
      "hit": false,
      "t": 211428.58200000017,
      "d": 674.6032083333412,
      "v": 120
    },
    {
      "midi": 64,
      "hit": false,
      "t": 211428.5820000003,
      "d": 873.0159166666563,
      "v": 100
    },
    {
      "midi": 69,
      "hit": false,
      "t": 211428.5820000003,
      "d": 873.0159166666563,
      "v": 100
    },
    {
      "midi": 73,
      "hit": false,
      "t": 211428.5820000003,
      "d": 873.0159166666563,
      "v": 100
    },
    {
      "midi": 45,
      "hit": false,
      "t": 211428.5820000004,
      "d": 119.04762500000652,
      "v": 115
    },
    {
      "midi": 52,
      "hit": false,
      "t": 211428.5820000004,
      "d": 119.04762500000652,
      "v": 115
    },
    {
      "midi": 33,
      "hit": false,
      "t": 211428.58200000075,
      "d": 412.69843333333847,
      "v": 112
    },
    {
      "midi": 45,
      "hit": false,
      "t": 211428.58200000098,
      "d": 79.36508333333768,
      "v": 100
    },
    {
      "midi": 52,
      "hit": false,
      "t": 211428.58200000098,
      "d": 79.36508333333768,
      "v": 100
    },
    {
      "midi": 40,
      "hit": false,
      "t": 211428.58200000314,
      "d": 7.936508333339589,
      "v": 127
    },
    {
      "midi": 42,
      "hit": false,
      "t": 211428.58200000314,
      "d": 7.936508333339589,
      "v": 115
    },
    {
      "midi": 54,
      "hit": false,
      "t": 211642.86772500313,
      "d": 7.936508333339589,
      "v": 60
    },
    {
      "midi": 61,
      "hit": false,
      "t": 211666.6772499974,
      "d": 214.28572499999427,
      "v": 100
    },
    {
      "midi": 54,
      "hit": false,
      "t": 211880.96297500315,
      "d": 7.936508333339589,
      "v": 60
    },
    {
      "midi": 64,
      "hit": false,
      "t": 211888.89948333273,
      "d": 436.50795833332813,
      "v": 119
    },
    {
      "midi": 73,
      "hit": false,
      "t": 211888.89948333273,
      "d": 436.50795833332813,
      "v": 119
    },
    {
      "midi": 69,
      "hit": false,
      "t": 211888.89948333273,
      "d": 436.50795833332813,
      "v": 119
    },
    {
      "midi": 67,
      "hit": false,
      "t": 211888.89948333273,
      "d": 436.50795833332813,
      "v": 119
    },
    {
      "midi": 64,
      "hit": false,
      "t": 211904.77249999737,
      "d": 214.28572499999427,
      "v": 100
    },
    {
      "midi": 45,
      "hit": false,
      "t": 211904.7725000004,
      "d": 119.04762500000652,
      "v": 115
    },
    {
      "midi": 52,
      "hit": false,
      "t": 211904.7725000004,
      "d": 119.04762500000652,
      "v": 115
    },
    {
      "midi": 33,
      "hit": false,
      "t": 211904.77250000075,
      "d": 412.69843333333847,
      "v": 112
    },
    {
      "midi": 45,
      "hit": false,
      "t": 211904.77250000098,
      "d": 79.36508333333768,
      "v": 100
    },
    {
      "midi": 52,
      "hit": false,
      "t": 211904.77250000098,
      "d": 79.36508333333768,
      "v": 100
    },
    {
      "midi": 2,
      "hit": false,
      "t": 211904.77250000316,
      "d": 7.936508333339589,
      "v": 120
    },
    {
      "midi": 42,
      "hit": false,
      "t": 211904.77250000316,
      "d": 7.936508333339589,
      "v": 100
    },
    {
      "midi": 54,
      "hit": false,
      "t": 212119.05822500316,
      "d": 7.936508333339589,
      "v": 60
    },
    {
      "midi": 69,
      "hit": false,
      "t": 212142.86774999736,
      "d": 214.28572499999427,
      "v": 100
    },
    {
      "midi": 85,
      "hit": false,
      "t": 212357.15347500006,
      "d": 952.380999999994,
      "v": 100
    },
    {
      "midi": 97,
      "hit": false,
      "t": 212357.15347500006,
      "d": 952.380999999994,
      "v": 100
    },
    {
      "midi": 54,
      "hit": false,
      "t": 212357.15347500317,
      "d": 7.936508333339589,
      "v": 100
    },
    {
      "midi": 69,
      "hit": false,
      "t": 212380.96299999734,
      "d": 214.28572499999427,
      "v": 100
    },
    {
      "midi": 78,
      "hit": false,
      "t": 212380.96300000016,
      "d": 436.50795833332813,
      "v": 120
    },
    {
      "midi": 64,
      "hit": false,
      "t": 212380.96300000028,
      "d": 436.50795833332813,
      "v": 100
    },
    {
      "midi": 69,
      "hit": false,
      "t": 212380.96300000028,
      "d": 436.50795833332813,
      "v": 100
    },
    {
      "midi": 73,
      "hit": false,
      "t": 212380.96300000028,
      "d": 436.50795833332813,
      "v": 100
    },
    {
      "midi": 45,
      "hit": false,
      "t": 212380.96300000043,
      "d": 912.6984583333542,
      "v": 120
    },
    {
      "midi": 52,
      "hit": false,
      "t": 212380.96300000043,
      "d": 912.6984583333542,
      "v": 120
    },
    {
      "midi": 37,
      "hit": false,
      "t": 212380.96300000075,
      "d": 412.69843333333847,
      "v": 112
    },
    {
      "midi": 45,
      "hit": false,
      "t": 212380.96300000098,
      "d": 436.50795833332813,
      "v": 115
    },
    {
      "midi": 52,
      "hit": false,
      "t": 212380.96300000098,
      "d": 436.50795833332813,
      "v": 115
    },
    {
      "midi": 40,
      "hit": false,
      "t": 212380.9630000032,
      "d": 7.936508333339589,
      "v": 127
    },
    {
      "midi": 42,
      "hit": false,
      "t": 212380.9630000032,
      "d": 7.936508333339589,
      "v": 100
    },
    {
      "midi": 54,
      "hit": false,
      "t": 212595.24872500318,
      "d": 7.936508333339589,
      "v": 60
    },
    {
      "midi": 64,
      "hit": false,
      "t": 212603.1852333327,
      "d": 634.9206666666723,
      "v": 119
    },
    {
      "midi": 73,
      "hit": false,
      "t": 212603.1852333327,
      "d": 634.9206666666723,
      "v": 119
    },
    {
      "midi": 69,
      "hit": false,
      "t": 212603.1852333327,
      "d": 634.9206666666723,
      "v": 119
    },
    {
      "midi": 67,
      "hit": false,
      "t": 212603.1852333327,
      "d": 634.9206666666723,
      "v": 119
    },
    {
      "midi": 64,
      "hit": false,
      "t": 212619.05824999732,
      "d": 214.28572499999427,
      "v": 100
    },
    {
      "midi": 54,
      "hit": false,
      "t": 212833.3439750032,
      "d": 7.936508333339589,
      "v": 60
    },
    {
      "midi": 73,
      "hit": false,
      "t": 212857.1534999973,
      "d": 214.28572499999427,
      "v": 100
    },
    {
      "midi": 76,
      "hit": false,
      "t": 212857.15350000016,
      "d": 436.50795833332813,
      "v": 120
    },
    {
      "midi": 64,
      "hit": false,
      "t": 212857.15350000028,
      "d": 436.50795833332813,
      "v": 100
    },
    {
      "midi": 69,
      "hit": false,
      "t": 212857.15350000028,
      "d": 436.50795833332813,
      "v": 100
    },
    {
      "midi": 73,
      "hit": false,
      "t": 212857.15350000028,
      "d": 436.50795833332813,
      "v": 100
    },
    {
      "midi": 33,
      "hit": false,
      "t": 212857.15350000074,
      "d": 412.69843333333847,
      "v": 112
    },
    {
      "midi": 45,
      "hit": false,
      "t": 212857.15350000098,
      "d": 436.50795833332813,
      "v": 115
    },
    {
      "midi": 52,
      "hit": false,
      "t": 212857.15350000098,
      "d": 436.50795833332813,
      "v": 115
    },
    {
      "midi": 2,
      "hit": false,
      "t": 212857.15350000322,
      "d": 7.936508333339589,
      "v": 120
    },
    {
      "midi": 42,
      "hit": false,
      "t": 212857.15350000322,
      "d": 7.936508333339589,
      "v": 100
    },
    {
      "midi": 54,
      "hit": false,
      "t": 213071.4392250032,
      "d": 7.936508333339589,
      "v": 65
    },
    {
      "midi": 69,
      "hit": false,
      "t": 213095.2487499973,
      "d": 214.28572499999427,
      "v": 100
    },
    {
      "midi": 62,
      "hit": false,
      "t": 213301.59796666604,
      "d": 634.9206666666723,
      "v": 119
    },
    {
      "midi": 66,
      "hit": false,
      "t": 213301.59796666604,
      "d": 634.9206666666723,
      "v": 119
    },
    {
      "midi": 71,
      "hit": false,
      "t": 213301.59796666604,
      "d": 634.9206666666723,
      "v": 119
    },
    {
      "midi": 86,
      "hit": false,
      "t": 213309.53447500005,
      "d": 3809.524000000005,
      "v": 100
    },
    {
      "midi": 98,
      "hit": false,
      "t": 213309.53447500005,
      "d": 3809.524000000005,
      "v": 100
    },
    {
      "midi": 71,
      "hit": false,
      "t": 213309.53447500017,
      "d": 3793.6509833333257,
      "v": 115
    },
    {
      "midi": 59,
      "hit": false,
      "t": 213333.34399999728,
      "d": 436.50795833332813,
      "v": 100
    },
    {
      "midi": 74,
      "hit": false,
      "t": 213333.34400000016,
      "d": 873.0159166666563,
      "v": 120
    },
    {
      "midi": 62,
      "hit": false,
      "t": 213333.34400000027,
      "d": 873.0159166666563,
      "v": 100
    },
    {
      "midi": 66,
      "hit": false,
      "t": 213333.34400000027,
      "d": 873.0159166666563,
      "v": 100
    },
    {
      "midi": 71,
      "hit": false,
      "t": 213333.34400000027,
      "d": 873.0159166666563,
      "v": 100
    },
    {
      "midi": 47,
      "hit": false,
      "t": 213333.34400000045,
      "d": 912.6984583333251,
      "v": 120
    },
    {
      "midi": 54,
      "hit": false,
      "t": 213333.34400000045,
      "d": 912.6984583333251,
      "v": 120
    },
    {
      "midi": 35,
      "hit": false,
      "t": 213333.34400000074,
      "d": 412.69843333333847,
      "v": 118
    },
    {
      "midi": 47,
      "hit": false,
      "t": 213333.34400000097,
      "d": 436.50795833332813,
      "v": 115
    },
    {
      "midi": 54,
      "hit": false,
      "t": 213333.34400000097,
      "d": 436.50795833332813,
      "v": 115
    },
    {
      "midi": 2,
      "hit": false,
      "t": 213333.3440000032,
      "d": 7.936508333339589,
      "v": 123
    },
    {
      "midi": 54,
      "hit": false,
      "t": 213333.3440000032,
      "d": 7.936508333339589,
      "v": 100
    },
    {
      "midi": 42,
      "hit": false,
      "t": 213333.3440000032,
      "d": 7.936508333339589,
      "v": 115
    },
    {
      "midi": 40,
      "hit": false,
      "t": 213333.3440000032,
      "d": 7.936508333339589,
      "v": 127
    },
    {
      "midi": 54,
      "hit": false,
      "t": 213547.6297250032,
      "d": 7.936508333339589,
      "v": 60
    },
    {
      "midi": 54,
      "hit": false,
      "t": 213785.72497500322,
      "d": 7.936508333339589,
      "v": 60
    },
    {
      "midi": 62,
      "hit": false,
      "t": 213809.53449999727,
      "d": 214.28572499999427,
      "v": 100
    },
    {
      "midi": 35,
      "hit": false,
      "t": 213809.53450000074,
      "d": 412.69843333333847,
      "v": 112
    },
    {
      "midi": 47,
      "hit": false,
      "t": 213809.53450000097,
      "d": 79.36508333333768,
      "v": 100
    },
    {
      "midi": 54,
      "hit": false,
      "t": 213809.53450000097,
      "d": 79.36508333333768,
      "v": 100
    },
    {
      "midi": 42,
      "hit": false,
      "t": 213809.53450000324,
      "d": 7.936508333339589,
      "v": 100
    },
    {
      "midi": 54,
      "hit": false,
      "t": 214023.82022500323,
      "d": 7.936508333339589,
      "v": 60
    },
    {
      "midi": 62,
      "hit": false,
      "t": 214031.7567333327,
      "d": 214.28572499999427,
      "v": 119
    },
    {
      "midi": 66,
      "hit": false,
      "t": 214031.7567333327,
      "d": 214.28572499999427,
      "v": 119
    },
    {
      "midi": 71,
      "hit": false,
      "t": 214031.7567333327,
      "d": 214.28572499999427,
      "v": 119
    },
    {
      "midi": 59,
      "hit": false,
      "t": 214047.62974999726,
      "d": 214.28572499999427,
      "v": 100
    },
    {
      "midi": 54,
      "hit": false,
      "t": 214261.91547500325,
      "d": 7.936508333339589,
      "v": 100
    },
    {
      "midi": 66,
      "hit": false,
      "t": 214285.72499999724,
      "d": 214.28572499999427,
      "v": 100
    },
    {
      "midi": 47,
      "hit": false,
      "t": 214285.72500000044,
      "d": 119.04762500000652,
      "v": 115
    },
    {
      "midi": 54,
      "hit": false,
      "t": 214285.72500000044,
      "d": 119.04762500000652,
      "v": 115
    },
    {
      "midi": 35,
      "hit": false,
      "t": 214285.72500000073,
      "d": 412.69843333333847,
      "v": 112
    },
    {
      "midi": 54,
      "hit": false,
      "t": 214285.72500000097,
      "d": 79.36508333333768,
      "v": 100
    },
    {
      "midi": 47,
      "hit": false,
      "t": 214285.72500000097,
      "d": 79.36508333333768,
      "v": 100
    },
    {
      "midi": 40,
      "hit": false,
      "t": 214285.72500000327,
      "d": 7.936508333339589,
      "v": 127
    },
    {
      "midi": 42,
      "hit": false,
      "t": 214285.72500000327,
      "d": 7.936508333339589,
      "v": 100
    },
    {
      "midi": 54,
      "hit": false,
      "t": 214500.01072500326,
      "d": 7.936508333339589,
      "v": 60
    },
    {
      "midi": 64,
      "hit": false,
      "t": 214523.82024999722,
      "d": 214.28572499999427,
      "v": 100
    },
    {
      "midi": 54,
      "hit": false,
      "t": 214738.10597500327,
      "d": 7.936508333339589,
      "v": 65
    },
    {
      "midi": 62,
      "hit": false,
      "t": 214746.04248333268,
      "d": 634.9206666666723,
      "v": 119
    },
    {
      "midi": 66,
      "hit": false,
      "t": 214746.04248333268,
      "d": 634.9206666666723,
      "v": 119
    },
    {
      "midi": 71,
      "hit": false,
      "t": 214746.04248333268,
      "d": 634.9206666666723,
      "v": 119
    },
    {
      "midi": 64,
      "hit": false,
      "t": 214761.9154999972,
      "d": 214.28572499999427,
      "v": 100
    },
    {
      "midi": 73,
      "hit": false,
      "t": 214761.91550000015,
      "d": 436.50795833332813,
      "v": 120
    },
    {
      "midi": 62,
      "hit": false,
      "t": 214761.91550000026,
      "d": 436.50795833332813,
      "v": 100
    },
    {
      "midi": 66,
      "hit": false,
      "t": 214761.91550000026,
      "d": 436.50795833332813,
      "v": 100
    },
    {
      "midi": 71,
      "hit": false,
      "t": 214761.91550000026,
      "d": 436.50795833332813,
      "v": 100
    },
    {
      "midi": 54,
      "hit": false,
      "t": 214761.91550000044,
      "d": 119.04762500000652,
      "v": 115
    },
    {
      "midi": 47,
      "hit": false,
      "t": 214761.91550000044,
      "d": 119.04762500000652,
      "v": 115
    },
    {
      "midi": 35,
      "hit": false,
      "t": 214761.91550000073,
      "d": 412.69843333333847,
      "v": 112
    },
    {
      "midi": 47,
      "hit": false,
      "t": 214761.91550000096,
      "d": 436.50795833332813,
      "v": 115
    },
    {
      "midi": 54,
      "hit": false,
      "t": 214761.91550000096,
      "d": 436.50795833332813,
      "v": 115
    },
    {
      "midi": 42,
      "hit": false,
      "t": 214761.9155000033,
      "d": 7.936508333339589,
      "v": 100
    },
    {
      "midi": 54,
      "hit": false,
      "t": 214976.2012250033,
      "d": 7.936508333339589,
      "v": 60
    },
    {
      "midi": 66,
      "hit": false,
      "t": 215000.0107499972,
      "d": 214.28572499999427,
      "v": 100
    },
    {
      "midi": 54,
      "hit": false,
      "t": 215214.2964750033,
      "d": 7.936508333339589,
      "v": 100
    },
    {
      "midi": 71,
      "hit": false,
      "t": 215238.10599999718,
      "d": 214.28572499999427,
      "v": 100
    },
    {
      "midi": 74,
      "hit": false,
      "t": 215238.10600000015,
      "d": 436.50795833332813,
      "v": 120
    },
    {
      "midi": 62,
      "hit": false,
      "t": 215238.10600000026,
      "d": 436.50795833332813,
      "v": 100
    },
    {
      "midi": 66,
      "hit": false,
      "t": 215238.10600000026,
      "d": 436.50795833332813,
      "v": 100
    },
    {
      "midi": 71,
      "hit": false,
      "t": 215238.10600000026,
      "d": 436.50795833332813,
      "v": 100
    },
    {
      "midi": 54,
      "hit": false,
      "t": 215238.10600000044,
      "d": 119.04762500000652,
      "v": 115
    },
    {
      "midi": 47,
      "hit": false,
      "t": 215238.10600000044,
      "d": 119.04762500000652,
      "v": 115
    },
    {
      "midi": 35,
      "hit": false,
      "t": 215238.10600000073,
      "d": 412.69843333333847,
      "v": 112
    },
    {
      "midi": 47,
      "hit": false,
      "t": 215238.10600000096,
      "d": 79.36508333333768,
      "v": 100
    },
    {
      "midi": 54,
      "hit": false,
      "t": 215238.10600000096,
      "d": 79.36508333333768,
      "v": 100
    },
    {
      "midi": 40,
      "hit": false,
      "t": 215238.10600000332,
      "d": 7.936508333339589,
      "v": 127
    },
    {
      "midi": 42,
      "hit": false,
      "t": 215238.10600000332,
      "d": 7.936508333339589,
      "v": 115
    },
    {
      "midi": 54,
      "hit": false,
      "t": 215452.3917250033,
      "d": 7.936508333339589,
      "v": 60
    },
    {
      "midi": 62,
      "hit": false,
      "t": 215460.3282333327,
      "d": 214.28572499999427,
      "v": 119
    },
    {
      "midi": 66,
      "hit": false,
      "t": 215460.3282333327,
      "d": 214.28572499999427,
      "v": 119
    },
    {
      "midi": 71,
      "hit": false,
      "t": 215460.3282333327,
      "d": 214.28572499999427,
      "v": 119
    },
    {
      "midi": 62,
      "hit": false,
      "t": 215476.20124999716,
      "d": 214.28572499999427,
      "v": 100
    },
    {
      "midi": 54,
      "hit": false,
      "t": 215690.48697500332,
      "d": 7.936508333339589,
      "v": 60
    },
    {
      "midi": 62,
      "hit": false,
      "t": 215714.29649999714,
      "d": 214.28572499999427,
      "v": 100
    },
    {
      "midi": 76,
      "hit": false,
      "t": 215714.29650000014,
      "d": 436.50795833332813,
      "v": 120
    },
    {
      "midi": 62,
      "hit": false,
      "t": 215714.29650000026,
      "d": 436.50795833332813,
      "v": 100
    },
    {
      "midi": 66,
      "hit": false,
      "t": 215714.29650000026,
      "d": 436.50795833332813,
      "v": 100
    },
    {
      "midi": 71,
      "hit": false,
      "t": 215714.29650000026,
      "d": 436.50795833332813,
      "v": 100
    },
    {
      "midi": 54,
      "hit": false,
      "t": 215714.29650000043,
      "d": 119.04762500000652,
      "v": 115
    },
    {
      "midi": 47,
      "hit": false,
      "t": 215714.29650000043,
      "d": 119.04762500000652,
      "v": 115
    },
    {
      "midi": 35,
      "hit": false,
      "t": 215714.29650000072,
      "d": 412.69843333333847,
      "v": 112
    },
    {
      "midi": 54,
      "hit": false,
      "t": 215714.29650000096,
      "d": 79.36508333333768,
      "v": 100
    },
    {
      "midi": 47,
      "hit": false,
      "t": 215714.29650000096,
      "d": 79.36508333333768,
      "v": 100
    },
    {
      "midi": 2,
      "hit": false,
      "t": 215714.29650000334,
      "d": 7.936508333339589,
      "v": 120
    },
    {
      "midi": 42,
      "hit": false,
      "t": 215714.29650000334,
      "d": 7.936508333339589,
      "v": 100
    },
    {
      "midi": 54,
      "hit": false,
      "t": 215928.58222500334,
      "d": 7.936508333339589,
      "v": 60
    },
    {
      "midi": 71,
      "hit": false,
      "t": 215952.39174999713,
      "d": 214.28572499999427,
      "v": 100
    },
    {
      "midi": 54,
      "hit": false,
      "t": 216166.67747500335,
      "d": 7.936508333339589,
      "v": 100
    },
    {
      "midi": 66,
      "hit": false,
      "t": 216190.4869999971,
      "d": 214.28572499999427,
      "v": 100
    },
    {
      "midi": 78,
      "hit": false,
      "t": 216190.48700000014,
      "d": 436.50795833332813,
      "v": 120
    },
    {
      "midi": 62,
      "hit": false,
      "t": 216190.48700000026,
      "d": 436.50795833332813,
      "v": 100
    },
    {
      "midi": 66,
      "hit": false,
      "t": 216190.48700000026,
      "d": 436.50795833332813,
      "v": 100
    },
    {
      "midi": 71,
      "hit": false,
      "t": 216190.48700000026,
      "d": 436.50795833332813,
      "v": 100
    },
    {
      "midi": 47,
      "hit": false,
      "t": 216190.48700000043,
      "d": 912.6984583333251,
      "v": 120
    },
    {
      "midi": 54,
      "hit": false,
      "t": 216190.48700000043,
      "d": 912.6984583333251,
      "v": 120
    },
    {
      "midi": 40,
      "hit": false,
      "t": 216190.48700000072,
      "d": 412.69843333333847,
      "v": 112
    },
    {
      "midi": 47,
      "hit": false,
      "t": 216190.48700000095,
      "d": 436.50795833332813,
      "v": 115
    },
    {
      "midi": 54,
      "hit": false,
      "t": 216190.48700000095,
      "d": 436.50795833332813,
      "v": 115
    },
    {
      "midi": 40,
      "hit": false,
      "t": 216190.48700000337,
      "d": 7.936508333339589,
      "v": 127
    },
    {
      "midi": 42,
      "hit": false,
      "t": 216190.48700000337,
      "d": 7.936508333339589,
      "v": 100
    },
    {
      "midi": 54,
      "hit": false,
      "t": 216404.77272500336,
      "d": 7.936508333339589,
      "v": 60
    },
    {
      "midi": 62,
      "hit": false,
      "t": 216412.7092333327,
      "d": 214.28572499999427,
      "v": 119
    },
    {
      "midi": 66,
      "hit": false,
      "t": 216412.7092333327,
      "d": 214.28572499999427,
      "v": 119
    },
    {
      "midi": 71,
      "hit": false,
      "t": 216412.7092333327,
      "d": 214.28572499999427,
      "v": 119
    },
    {
      "midi": 62,
      "hit": false,
      "t": 216428.5822499971,
      "d": 214.28572499999427,
      "v": 100
    },
    {
      "midi": 54,
      "hit": false,
      "t": 216642.86797500338,
      "d": 7.936508333339589,
      "v": 60
    },
    {
      "midi": 71,
      "hit": false,
      "t": 216666.67749999708,
      "d": 214.28572499999427,
      "v": 100
    },
    {
      "midi": 83,
      "hit": false,
      "t": 216666.67750000014,
      "d": 436.50795833332813,
      "v": 120
    },
    {
      "midi": 62,
      "hit": false,
      "t": 216666.67750000025,
      "d": 436.50795833332813,
      "v": 100
    },
    {
      "midi": 66,
      "hit": false,
      "t": 216666.67750000025,
      "d": 436.50795833332813,
      "v": 100
    },
    {
      "midi": 71,
      "hit": false,
      "t": 216666.67750000025,
      "d": 436.50795833332813,
      "v": 100
    },
    {
      "midi": 41,
      "hit": false,
      "t": 216666.67750000072,
      "d": 412.69843333333847,
      "v": 112
    },
    {
      "midi": 47,
      "hit": false,
      "t": 216666.67750000095,
      "d": 436.50795833332813,
      "v": 115
    },
    {
      "midi": 54,
      "hit": false,
      "t": 216666.67750000095,
      "d": 436.50795833332813,
      "v": 115
    },
    {
      "midi": 2,
      "hit": false,
      "t": 216666.6775000034,
      "d": 7.936508333339589,
      "v": 120
    },
    {
      "midi": 42,
      "hit": false,
      "t": 216666.6775000034,
      "d": 7.936508333339589,
      "v": 100
    },
    {
      "midi": 54,
      "hit": false,
      "t": 216880.9632250034,
      "d": 7.936508333339589,
      "v": 65
    },
    {
      "midi": 66,
      "hit": false,
      "t": 216904.77274999706,
      "d": 214.28572499999427,
      "v": 100
    },
    {
      "midi": 61,
      "hit": false,
      "t": 217111.12196666602,
      "d": 634.9206666666723,
      "v": 119
    },
    {
      "midi": 66,
      "hit": false,
      "t": 217111.12196666602,
      "d": 634.9206666666723,
      "v": 119
    },
    {
      "midi": 69,
      "hit": false,
      "t": 217111.12196666602,
      "d": 634.9206666666723,
      "v": 119
    },
    {
      "midi": 69,
      "hit": false,
      "t": 217119.05847500006,
      "d": 3809.524000000005,
      "v": 100
    },
    {
      "midi": 97,
      "hit": false,
      "t": 217119.05847500006,
      "d": 3809.524000000005,
      "v": 100
    },
    {
      "midi": 81,
      "hit": false,
      "t": 217119.05847500017,
      "d": 936.5079833333439,
      "v": 100
    },
    {
      "midi": 93,
      "hit": false,
      "t": 217119.05847500017,
      "d": 936.5079833333439,
      "v": 100
    },
    {
      "midi": 57,
      "hit": false,
      "t": 217142.86799999705,
      "d": 214.28572499999427,
      "v": 100
    },
    {
      "midi": 81,
      "hit": false,
      "t": 217142.86800000013,
      "d": 2396.8255166667514,
      "v": 120
    },
    {
      "midi": 61,
      "hit": false,
      "t": 217142.86800000025,
      "d": 2857.14300000004,
      "v": 100
    },
    {
      "midi": 66,
      "hit": false,
      "t": 217142.86800000025,
      "d": 2857.14300000004,
      "v": 100
    },
    {
      "midi": 73,
      "hit": false,
      "t": 217142.86800000025,
      "d": 2857.14300000004,
      "v": 100
    },
    {
      "midi": 42,
      "hit": false,
      "t": 217142.86800000042,
      "d": 912.6984583333251,
      "v": 120
    },
    {
      "midi": 49,
      "hit": false,
      "t": 217142.86800000042,
      "d": 912.6984583333251,
      "v": 120
    },
    {
      "midi": 42,
      "hit": false,
      "t": 217142.86800000072,
      "d": 412.69843333333847,
      "v": 118
    },
    {
      "midi": 54,
      "hit": false,
      "t": 217142.86800000095,
      "d": 436.50795833332813,
      "v": 115
    },
    {
      "midi": 61,
      "hit": false,
      "t": 217142.86800000095,
      "d": 436.50795833332813,
      "v": 115
    },
    {
      "midi": 2,
      "hit": false,
      "t": 217142.8680000034,
      "d": 7.936508333339589,
      "v": 123
    },
    {
      "midi": 54,
      "hit": false,
      "t": 217142.8680000034,
      "d": 7.936508333339589,
      "v": 100
    },
    {
      "midi": 42,
      "hit": false,
      "t": 217142.8680000034,
      "d": 7.936508333339589,
      "v": 115
    },
    {
      "midi": 40,
      "hit": false,
      "t": 217142.8680000034,
      "d": 7.936508333339589,
      "v": 127
    },
    {
      "midi": 54,
      "hit": false,
      "t": 217357.1537250034,
      "d": 7.936508333339589,
      "v": 60
    },
    {
      "midi": 71,
      "hit": false,
      "t": 217380.96324999703,
      "d": 214.28572499999427,
      "v": 100
    },
    {
      "midi": 54,
      "hit": false,
      "t": 217595.2489750034,
      "d": 7.936508333339589,
      "v": 60
    },
    {
      "midi": 61,
      "hit": false,
      "t": 217619.05849999702,
      "d": 214.28572499999427,
      "v": 100
    },
    {
      "midi": 42,
      "hit": false,
      "t": 217619.0585000007,
      "d": 412.69843333333847,
      "v": 112
    },
    {
      "midi": 54,
      "hit": false,
      "t": 217619.05850000095,
      "d": 79.36508333333768,
      "v": 100
    },
    {
      "midi": 61,
      "hit": false,
      "t": 217619.05850000095,
      "d": 79.36508333333768,
      "v": 100
    },
    {
      "midi": 42,
      "hit": false,
      "t": 217619.05850000342,
      "d": 7.936508333339589,
      "v": 100
    },
    {
      "midi": 54,
      "hit": false,
      "t": 217833.3442250034,
      "d": 7.936508333339589,
      "v": 60
    },
    {
      "midi": 61,
      "hit": false,
      "t": 217841.28073333268,
      "d": 634.9206666666723,
      "v": 119
    },
    {
      "midi": 66,
      "hit": false,
      "t": 217841.28073333268,
      "d": 634.9206666666723,
      "v": 119
    },
    {
      "midi": 69,
      "hit": false,
      "t": 217841.28073333268,
      "d": 634.9206666666723,
      "v": 119
    },
    {
      "midi": 57,
      "hit": false,
      "t": 217857.153749997,
      "d": 214.28572499999427,
      "v": 100
    },
    {
      "midi": 79,
      "hit": false,
      "t": 218071.4394750002,
      "d": 936.5079833333439,
      "v": 100
    },
    {
      "midi": 91,
      "hit": false,
      "t": 218071.4394750002,
      "d": 936.5079833333439,
      "v": 100
    },
    {
      "midi": 54,
      "hit": false,
      "t": 218071.43947500343,
      "d": 7.936508333339589,
      "v": 100
    },
    {
      "midi": 64,
      "hit": false,
      "t": 218095.24899999698,
      "d": 214.28572499999427,
      "v": 100
    },
    {
      "midi": 42,
      "hit": false,
      "t": 218095.24900000042,
      "d": 119.04762500000652,
      "v": 115
    },
    {
      "midi": 49,
      "hit": false,
      "t": 218095.24900000042,
      "d": 119.04762500000652,
      "v": 115
    },
    {
      "midi": 42,
      "hit": false,
      "t": 218095.2490000007,
      "d": 412.69843333333847,
      "v": 112
    },
    {
      "midi": 54,
      "hit": false,
      "t": 218095.24900000094,
      "d": 79.36508333333768,
      "v": 100
    },
    {
      "midi": 61,
      "hit": false,
      "t": 218095.24900000094,
      "d": 79.36508333333768,
      "v": 100
    },
    {
      "midi": 40,
      "hit": false,
      "t": 218095.24900000344,
      "d": 7.936508333339589,
      "v": 127
    },
    {
      "midi": 42,
      "hit": false,
      "t": 218095.24900000344,
      "d": 7.936508333339589,
      "v": 100
    },
    {
      "midi": 54,
      "hit": false,
      "t": 218309.53472500344,
      "d": 7.936508333339589,
      "v": 60
    },
    {
      "midi": 61,
      "hit": false,
      "t": 218333.34424999697,
      "d": 214.28572499999427,
      "v": 100
    },
    {
      "midi": 54,
      "hit": false,
      "t": 218547.62997500345,
      "d": 7.936508333339589,
      "v": 65
    },
    {
      "midi": 61,
      "hit": false,
      "t": 218571.43949999695,
      "d": 214.28572499999427,
      "v": 100
    },
    {
      "midi": 57,
      "hit": false,
      "t": 218571.43949999934,
      "d": 436.50795833332813,
      "v": 119
    },
    {
      "midi": 42,
      "hit": false,
      "t": 218571.43950000042,
      "d": 119.04762500000652,
      "v": 115
    },
    {
      "midi": 49,
      "hit": false,
      "t": 218571.43950000042,
      "d": 119.04762500000652,
      "v": 115
    },
    {
      "midi": 42,
      "hit": false,
      "t": 218571.4395000007,
      "d": 412.69843333333847,
      "v": 112
    },
    {
      "midi": 54,
      "hit": false,
      "t": 218571.43950000094,
      "d": 436.50795833332813,
      "v": 115
    },
    {
      "midi": 61,
      "hit": false,
      "t": 218571.43950000094,
      "d": 436.50795833332813,
      "v": 115
    },
    {
      "midi": 46,
      "hit": false,
      "t": 218571.43950000347,
      "d": 7.936508333339589,
      "v": 100
    },
    {
      "midi": 54,
      "hit": false,
      "t": 218785.72522500347,
      "d": 7.936508333339589,
      "v": 60
    },
    {
      "midi": 64,
      "hit": false,
      "t": 218809.53474999694,
      "d": 214.28572499999427,
      "v": 100
    },
    {
      "midi": 78,
      "hit": false,
      "t": 219023.82047500022,
      "d": 936.5079833333439,
      "v": 100
    },
    {
      "midi": 90,
      "hit": false,
      "t": 219023.82047500022,
      "d": 936.5079833333439,
      "v": 100
    },
    {
      "midi": 54,
      "hit": false,
      "t": 219023.82047500348,
      "d": 7.936508333339589,
      "v": 100
    },
    {
      "midi": 61,
      "hit": false,
      "t": 219031.75698333266,
      "d": 436.50795833332813,
      "v": 119
    },
    {
      "midi": 64,
      "hit": false,
      "t": 219031.75698333266,
      "d": 436.50795833332813,
      "v": 119
    },
    {
      "midi": 69,
      "hit": false,
      "t": 219031.75698333266,
      "d": 436.50795833332813,
      "v": 119
    },
    {
      "midi": 66,
      "hit": false,
      "t": 219047.62999999692,
      "d": 214.28572499999427,
      "v": 100
    },
    {
      "midi": 49,
      "hit": false,
      "t": 219047.6300000004,
      "d": 119.04762500000652,
      "v": 115
    },
    {
      "midi": 42,
      "hit": false,
      "t": 219047.6300000004,
      "d": 119.04762500000652,
      "v": 115
    },
    {
      "midi": 42,
      "hit": false,
      "t": 219047.6300000007,
      "d": 412.69843333333847,
      "v": 112
    },
    {
      "midi": 54,
      "hit": false,
      "t": 219047.63000000094,
      "d": 79.36508333333768,
      "v": 100
    },
    {
      "midi": 61,
      "hit": false,
      "t": 219047.63000000094,
      "d": 79.36508333333768,
      "v": 100
    },
    {
      "midi": 40,
      "hit": false,
      "t": 219047.6300000035,
      "d": 7.936508333339589,
      "v": 127
    },
    {
      "midi": 46,
      "hit": false,
      "t": 219047.6300000035,
      "d": 7.936508333339589,
      "v": 115
    },
    {
      "midi": 54,
      "hit": false,
      "t": 219261.9157250035,
      "d": 7.936508333339589,
      "v": 60
    },
    {
      "midi": 61,
      "hit": false,
      "t": 219285.7252499969,
      "d": 214.28572499999427,
      "v": 100
    },
    {
      "midi": 54,
      "hit": false,
      "t": 219500.0109750035,
      "d": 7.936508333339589,
      "v": 60
    },
    {
      "midi": 64,
      "hit": false,
      "t": 219523.8204999969,
      "d": 214.28572499999427,
      "v": 100
    },
    {
      "midi": 54,
      "hit": false,
      "t": 219523.8204999993,
      "d": 436.50795833332813,
      "v": 125
    },
    {
      "midi": 42,
      "hit": false,
      "t": 219523.8205000004,
      "d": 119.04762500000652,
      "v": 115
    },
    {
      "midi": 49,
      "hit": false,
      "t": 219523.8205000004,
      "d": 119.04762500000652,
      "v": 115
    },
    {
      "midi": 37,
      "hit": false,
      "t": 219523.8205000007,
      "d": 412.69843333333847,
      "v": 112
    },
    {
      "midi": 61,
      "hit": false,
      "t": 219523.82050000093,
      "d": 79.36508333333768,
      "v": 100
    },
    {
      "midi": 54,
      "hit": false,
      "t": 219523.82050000093,
      "d": 79.36508333333768,
      "v": 100
    },
    {
      "midi": 2,
      "hit": false,
      "t": 219523.82050000352,
      "d": 7.936508333339589,
      "v": 120
    },
    {
      "midi": 46,
      "hit": false,
      "t": 219523.82050000352,
      "d": 7.936508333339589,
      "v": 100
    },
    {
      "midi": 54,
      "hit": false,
      "t": 219738.10622500352,
      "d": 7.936508333339589,
      "v": 60
    },
    {
      "midi": 66,
      "hit": false,
      "t": 219761.91574999687,
      "d": 214.28572499999427,
      "v": 100
    },
    {
      "midi": 76,
      "hit": false,
      "t": 219976.20147500024,
      "d": 936.5079833333439,
      "v": 100
    },
    {
      "midi": 88,
      "hit": false,
      "t": 219976.20147500024,
      "d": 936.5079833333439,
      "v": 100
    },
    {
      "midi": 54,
      "hit": false,
      "t": 219976.20147500353,
      "d": 7.936508333339589,
      "v": 100
    },
    {
      "midi": 66,
      "hit": false,
      "t": 220000.01099999686,
      "d": 214.28572499999427,
      "v": 100
    },
    {
      "midi": 57,
      "hit": false,
      "t": 220000.0109999993,
      "d": 436.50795833332813,
      "v": 125
    },
    {
      "midi": 76,
      "hit": false,
      "t": 220000.01100000023,
      "d": 436.50795833332813,
      "v": 120
    },
    {
      "midi": 42,
      "hit": false,
      "t": 220000.01100000044,
      "d": 436.50795833332813,
      "v": 120
    },
    {
      "midi": 49,
      "hit": false,
      "t": 220000.01100000044,
      "d": 436.50795833332813,
      "v": 120
    },
    {
      "midi": 30,
      "hit": false,
      "t": 220000.0110000007,
      "d": 412.69843333333847,
      "v": 112
    },
    {
      "midi": 61,
      "hit": false,
      "t": 220000.01100000093,
      "d": 436.50795833332813,
      "v": 115
    },
    {
      "midi": 54,
      "hit": false,
      "t": 220000.01100000093,
      "d": 436.50795833332813,
      "v": 115
    },
    {
      "midi": 40,
      "hit": false,
      "t": 220000.01100000355,
      "d": 7.936508333339589,
      "v": 127
    },
    {
      "midi": 42,
      "hit": false,
      "t": 220000.01100000355,
      "d": 7.936508333339589,
      "v": 100
    },
    {
      "midi": 54,
      "hit": false,
      "t": 220214.29672500354,
      "d": 7.936508333339589,
      "v": 60
    },
    {
      "midi": 64,
      "hit": false,
      "t": 220238.10624999684,
      "d": 214.28572499999427,
      "v": 100
    },
    {
      "midi": 54,
      "hit": false,
      "t": 220452.39197500356,
      "d": 7.936508333339589,
      "v": 60
    },
    {
      "midi": 73,
      "hit": false,
      "t": 220476.20149999682,
      "d": 214.28572499999427,
      "v": 100
    },
    {
      "midi": 61,
      "hit": false,
      "t": 220476.2014999993,
      "d": 436.50795833332813,
      "v": 125
    },
    {
      "midi": 78,
      "hit": false,
      "t": 220476.20150000023,
      "d": 436.50795833332813,
      "v": 120
    },
    {
      "midi": 42,
      "hit": false,
      "t": 220476.20150000043,
      "d": 436.50795833335724,
      "v": 120
    },
    {
      "midi": 49,
      "hit": false,
      "t": 220476.20150000043,
      "d": 436.50795833335724,
      "v": 120
    },
    {
      "midi": 37,
      "hit": false,
      "t": 220476.2015000007,
      "d": 412.69843333333847,
      "v": 112
    },
    {
      "midi": 54,
      "hit": false,
      "t": 220476.20150000093,
      "d": 436.50795833332813,
      "v": 115
    },
    {
      "midi": 61,
      "hit": false,
      "t": 220476.20150000093,
      "d": 436.50795833332813,
      "v": 115
    },
    {
      "midi": 2,
      "hit": false,
      "t": 220476.20150000358,
      "d": 7.936508333339589,
      "v": 120
    },
    {
      "midi": 42,
      "hit": false,
      "t": 220476.20150000358,
      "d": 7.936508333339589,
      "v": 100
    },
    {
      "midi": 40,
      "hit": false,
      "t": 220476.20150000358,
      "d": 7.936508333339589,
      "v": 127
    },
    {
      "midi": 54,
      "hit": false,
      "t": 220690.48722500357,
      "d": 7.936508333339589,
      "v": 65
    },
    {
      "midi": 66,
      "hit": false,
      "t": 220714.2967499968,
      "d": 214.28572499999427,
      "v": 100
    },
    {
      "midi": 40,
      "hit": false,
      "t": 220714.2967500036,
      "d": 7.936508333339589,
      "v": 127
    },
    {
      "midi": 69,
      "hit": false,
      "t": 220912.70945833286,
      "d": 1825.3969166666502,
      "v": 90
    },
    {
      "midi": 62,
      "hit": false,
      "t": 220920.64596666596,
      "d": 873.0159166666563,
      "v": 119
    },
    {
      "midi": 67,
      "hit": false,
      "t": 220920.64596666596,
      "d": 873.0159166666563,
      "v": 119
    },
    {
      "midi": 59,
      "hit": false,
      "t": 220920.64596666596,
      "d": 873.0159166666563,
      "v": 119
    },
    {
      "midi": 79,
      "hit": false,
      "t": 220920.6459666669,
      "d": 873.0159166666563,
      "v": 120
    },
    {
      "midi": 83,
      "hit": false,
      "t": 220928.58247500006,
      "d": 1880.9524749999982,
      "v": 100
    },
    {
      "midi": 86,
      "hit": false,
      "t": 220928.58247500006,
      "d": 1880.9524749999982,
      "v": 100
    },
    {
      "midi": 95,
      "hit": false,
      "t": 220928.58247500006,
      "d": 1880.9524749999982,
      "v": 100
    },
    {
      "midi": 67,
      "hit": false,
      "t": 220928.58247500026,
      "d": 1880.9524749999982,
      "v": 115
    },
    {
      "midi": 74,
      "hit": false,
      "t": 220928.58247500026,
      "d": 1880.9524749999982,
      "v": 115
    },
    {
      "midi": 59,
      "hit": false,
      "t": 220952.3919999968,
      "d": 436.50795833332813,
      "v": 100
    },
    {
      "midi": 43,
      "hit": false,
      "t": 220952.39200000046,
      "d": 912.6984583333542,
      "v": 120
    },
    {
      "midi": 50,
      "hit": false,
      "t": 220952.39200000046,
      "d": 912.6984583333542,
      "v": 120
    },
    {
      "midi": 31,
      "hit": false,
      "t": 220952.3920000007,
      "d": 412.69843333333847,
      "v": 118
    },
    {
      "midi": 55,
      "hit": false,
      "t": 220952.39200000092,
      "d": 436.50795833332813,
      "v": 115
    },
    {
      "midi": 62,
      "hit": false,
      "t": 220952.39200000092,
      "d": 436.50795833332813,
      "v": 115
    },
    {
      "midi": 2,
      "hit": false,
      "t": 220952.3920000036,
      "d": 7.936508333339589,
      "v": 123
    },
    {
      "midi": 54,
      "hit": false,
      "t": 220952.3920000036,
      "d": 7.936508333339589,
      "v": 100
    },
    {
      "midi": 49,
      "hit": false,
      "t": 220952.3920000036,
      "d": 7.936508333339589,
      "v": 115
    },
    {
      "midi": 40,
      "hit": false,
      "t": 220952.3920000036,
      "d": 7.936508333339589,
      "v": 127
    },
    {
      "midi": 67,
      "hit": false,
      "t": 220968.26501666618,
      "d": 1825.3969166666502,
      "v": 90
    },
    {
      "midi": 71,
      "hit": false,
      "t": 221015.88406666619,
      "d": 1825.396916666621,
      "v": 90
    },
    {
      "midi": 74,
      "hit": false,
      "t": 221047.63009999951,
      "d": 1825.396916666621,
      "v": 90
    },
    {
      "midi": 54,
      "hit": false,
      "t": 221166.6777250036,
      "d": 7.936508333339589,
      "v": 60
    },
    {
      "midi": 54,
      "hit": false,
      "t": 221404.7729750036,
      "d": 7.936508333339589,
      "v": 60
    },
    {
      "midi": 62,
      "hit": false,
      "t": 221428.5824999968,
      "d": 214.28572499999427,
      "v": 100
    },
    {
      "midi": 31,
      "hit": false,
      "t": 221428.5825000007,
      "d": 412.69843333333847,
      "v": 112
    },
    {
      "midi": 55,
      "hit": false,
      "t": 221428.58250000092,
      "d": 79.36508333333768,
      "v": 100
    },
    {
      "midi": 62,
      "hit": false,
      "t": 221428.58250000092,
      "d": 79.36508333333768,
      "v": 100
    },
    {
      "midi": 42,
      "hit": false,
      "t": 221428.58250000363,
      "d": 7.936508333339589,
      "v": 100
    },
    {
      "midi": 54,
      "hit": false,
      "t": 221642.86822500362,
      "d": 7.936508333339589,
      "v": 60
    },
    {
      "midi": 59,
      "hit": false,
      "t": 221666.67774999677,
      "d": 214.28572499999427,
      "v": 100
    },
    {
      "midi": 54,
      "hit": false,
      "t": 221880.96347500363,
      "d": 7.936508333339589,
      "v": 100
    },
    {
      "midi": 67,
      "hit": false,
      "t": 221904.77299999676,
      "d": 214.28572499999427,
      "v": 100
    },
    {
      "midi": 59,
      "hit": false,
      "t": 221904.7729999993,
      "d": 436.50795833332813,
      "v": 125
    },
    {
      "midi": 83,
      "hit": false,
      "t": 221904.77300000022,
      "d": 436.50795833332813,
      "v": 120
    },
    {
      "midi": 43,
      "hit": false,
      "t": 221904.77300000048,
      "d": 119.04762500000652,
      "v": 115
    },
    {
      "midi": 50,
      "hit": false,
      "t": 221904.77300000048,
      "d": 119.04762500000652,
      "v": 115
    },
    {
      "midi": 31,
      "hit": false,
      "t": 221904.77300000068,
      "d": 412.69843333333847,
      "v": 112
    },
    {
      "midi": 55,
      "hit": false,
      "t": 221904.77300000092,
      "d": 436.50795833332813,
      "v": 115
    },
    {
      "midi": 62,
      "hit": false,
      "t": 221904.77300000092,
      "d": 436.50795833332813,
      "v": 115
    },
    {
      "midi": 40,
      "hit": false,
      "t": 221904.77300000365,
      "d": 7.936508333339589,
      "v": 127
    },
    {
      "midi": 42,
      "hit": false,
      "t": 221904.77300000365,
      "d": 7.936508333339589,
      "v": 100
    },
    {
      "midi": 54,
      "hit": false,
      "t": 222119.05872500365,
      "d": 7.936508333339589,
      "v": 60
    },
    {
      "midi": 62,
      "hit": false,
      "t": 222142.86824999674,
      "d": 214.28572499999427,
      "v": 100
    },
    {
      "midi": 54,
      "hit": false,
      "t": 222357.15397500366,
      "d": 7.936508333339589,
      "v": 65
    },
    {
      "midi": 62,
      "hit": false,
      "t": 222380.96349999672,
      "d": 214.28572499999427,
      "v": 100
    },
    {
      "midi": 62,
      "hit": false,
      "t": 222380.96349999928,
      "d": 436.50795833332813,
      "v": 125
    },
    {
      "midi": 83,
      "hit": false,
      "t": 222380.96350000022,
      "d": 436.50795833332813,
      "v": 120
    },
    {
      "midi": 43,
      "hit": false,
      "t": 222380.96350000048,
      "d": 119.04762500000652,
      "v": 115
    },
    {
      "midi": 50,
      "hit": false,
      "t": 222380.96350000048,
      "d": 119.04762500000652,
      "v": 115
    },
    {
      "midi": 31,
      "hit": false,
      "t": 222380.96350000068,
      "d": 412.69843333333847,
      "v": 112
    },
    {
      "midi": 55,
      "hit": false,
      "t": 222380.96350000091,
      "d": 436.50795833332813,
      "v": 115
    },
    {
      "midi": 62,
      "hit": false,
      "t": 222380.96350000091,
      "d": 436.50795833332813,
      "v": 115
    },
    {
      "midi": 42,
      "hit": false,
      "t": 222380.96350000368,
      "d": 7.936508333339589,
      "v": 100
    },
    {
      "midi": 54,
      "hit": false,
      "t": 222595.24922500367,
      "d": 7.936508333339589,
      "v": 60
    },
    {
      "midi": 67,
      "hit": false,
      "t": 222619.0587499967,
      "d": 214.28572499999427,
      "v": 100
    },
    {
      "midi": 69,
      "hit": false,
      "t": 222817.47145833282,
      "d": 1825.3969166666502,
      "v": 90
    },
    {
      "midi": 85,
      "hit": false,
      "t": 222833.34447500005,
      "d": 1880.9524749999982,
      "v": 100
    },
    {
      "midi": 88,
      "hit": false,
      "t": 222833.34447500005,
      "d": 1880.9524749999982,
      "v": 100
    },
    {
      "midi": 97,
      "hit": false,
      "t": 222833.34447500005,
      "d": 1880.9524749999982,
      "v": 100
    },
    {
      "midi": 69,
      "hit": false,
      "t": 222833.34447500025,
      "d": 1880.9524749999982,
      "v": 115
    },
    {
      "midi": 76,
      "hit": false,
      "t": 222833.34447500025,
      "d": 1880.9524749999982,
      "v": 115
    },
    {
      "midi": 54,
      "hit": false,
      "t": 222833.3444750037,
      "d": 7.936508333339589,
      "v": 100
    },
    {
      "midi": 57,
      "hit": false,
      "t": 222841.2809833326,
      "d": 436.50795833332813,
      "v": 119
    },
    {
      "midi": 61,
      "hit": false,
      "t": 222841.2809833326,
      "d": 436.50795833332813,
      "v": 119
    },
    {
      "midi": 64,
      "hit": false,
      "t": 222841.2809833326,
      "d": 436.50795833332813,
      "v": 119
    },
    {
      "midi": 64,
      "hit": false,
      "t": 222857.1539999967,
      "d": 214.28572499999427,
      "v": 100
    },
    {
      "midi": 83,
      "hit": false,
      "t": 222857.1540000002,
      "d": 873.0159166666563,
      "v": 120
    },
    {
      "midi": 43,
      "hit": false,
      "t": 222857.15400000048,
      "d": 119.04762500000652,
      "v": 115
    },
    {
      "midi": 50,
      "hit": false,
      "t": 222857.15400000048,
      "d": 119.04762500000652,
      "v": 115
    },
    {
      "midi": 31,
      "hit": false,
      "t": 222857.15400000068,
      "d": 412.69843333333847,
      "v": 112
    },
    {
      "midi": 55,
      "hit": false,
      "t": 222857.1540000009,
      "d": 79.36508333333768,
      "v": 100
    },
    {
      "midi": 64,
      "hit": false,
      "t": 222857.1540000009,
      "d": 79.36508333333768,
      "v": 100
    },
    {
      "midi": 40,
      "hit": false,
      "t": 222857.1540000037,
      "d": 7.936508333339589,
      "v": 127
    },
    {
      "midi": 49,
      "hit": false,
      "t": 222857.1540000037,
      "d": 7.936508333339589,
      "v": 115
    },
    {
      "midi": 71,
      "hit": false,
      "t": 222873.02701666614,
      "d": 1825.3969166666502,
      "v": 90
    },
    {
      "midi": 73,
      "hit": false,
      "t": 222920.64606666614,
      "d": 1825.396916666621,
      "v": 90
    },
    {
      "midi": 76,
      "hit": false,
      "t": 222952.39209999947,
      "d": 1825.396916666621,
      "v": 90
    },
    {
      "midi": 54,
      "hit": false,
      "t": 223071.4397250037,
      "d": 7.936508333339589,
      "v": 60
    },
    {
      "midi": 62,
      "hit": false,
      "t": 223095.24924999668,
      "d": 214.28572499999427,
      "v": 100
    },
    {
      "midi": 54,
      "hit": false,
      "t": 223309.5349750037,
      "d": 7.936508333339589,
      "v": 60
    },
    {
      "midi": 61,
      "hit": false,
      "t": 223333.34449999666,
      "d": 214.28572499999427,
      "v": 100
    },
    {
      "midi": 57,
      "hit": false,
      "t": 223333.34449999925,
      "d": 436.50795833332813,
      "v": 125
    },
    {
      "midi": 43,
      "hit": false,
      "t": 223333.34450000047,
      "d": 119.04762500000652,
      "v": 115
    },
    {
      "midi": 50,
      "hit": false,
      "t": 223333.34450000047,
      "d": 119.04762500000652,
      "v": 115
    },
    {
      "midi": 31,
      "hit": false,
      "t": 223333.34450000068,
      "d": 412.69843333333847,
      "v": 112
    },
    {
      "midi": 55,
      "hit": false,
      "t": 223333.3445000009,
      "d": 436.50795833332813,
      "v": 115
    },
    {
      "midi": 64,
      "hit": false,
      "t": 223333.3445000009,
      "d": 436.50795833332813,
      "v": 115
    },
    {
      "midi": 2,
      "hit": false,
      "t": 223333.34450000373,
      "d": 7.936508333339589,
      "v": 120
    },
    {
      "midi": 42,
      "hit": false,
      "t": 223333.34450000373,
      "d": 7.936508333339589,
      "v": 100
    },
    {
      "midi": 54,
      "hit": false,
      "t": 223547.63022500373,
      "d": 7.936508333339589,
      "v": 60
    },
    {
      "midi": 64,
      "hit": false,
      "t": 223571.43974999664,
      "d": 214.28572499999427,
      "v": 100
    },
    {
      "midi": 54,
      "hit": false,
      "t": 223785.72547500374,
      "d": 7.936508333339589,
      "v": 100
    },
    {
      "midi": 64,
      "hit": false,
      "t": 223809.53499999663,
      "d": 214.28572499999427,
      "v": 100
    },
    {
      "midi": 61,
      "hit": false,
      "t": 223809.53499999925,
      "d": 436.50795833332813,
      "v": 125
    },
    {
      "midi": 85,
      "hit": false,
      "t": 223809.5350000002,
      "d": 436.50795833332813,
      "v": 120
    },
    {
      "midi": 43,
      "hit": false,
      "t": 223809.53500000047,
      "d": 119.04762500000652,
      "v": 115
    },
    {
      "midi": 50,
      "hit": false,
      "t": 223809.53500000047,
      "d": 119.04762500000652,
      "v": 115
    },
    {
      "midi": 33,
      "hit": false,
      "t": 223809.53500000067,
      "d": 412.69843333333847,
      "v": 112
    },
    {
      "midi": 64,
      "hit": false,
      "t": 223809.5350000009,
      "d": 436.50795833332813,
      "v": 115
    },
    {
      "midi": 55,
      "hit": false,
      "t": 223809.5350000009,
      "d": 436.50795833332813,
      "v": 115
    },
    {
      "midi": 40,
      "hit": false,
      "t": 223809.53500000376,
      "d": 7.936508333339589,
      "v": 127
    },
    {
      "midi": 42,
      "hit": false,
      "t": 223809.53500000376,
      "d": 7.936508333339589,
      "v": 100
    },
    {
      "midi": 54,
      "hit": false,
      "t": 224023.82072500375,
      "d": 7.936508333339589,
      "v": 60
    },
    {
      "midi": 61,
      "hit": false,
      "t": 224047.6302499966,
      "d": 214.28572499999427,
      "v": 100
    },
    {
      "midi": 54,
      "hit": false,
      "t": 224261.91597500377,
      "d": 7.936508333339589,
      "v": 60
    },
    {
      "midi": 69,
      "hit": false,
      "t": 224285.7254999966,
      "d": 214.28572499999427,
      "v": 100
    },
    {
      "midi": 64,
      "hit": false,
      "t": 224285.72549999924,
      "d": 436.50795833332813,
      "v": 125
    },
    {
      "midi": 83,
      "hit": false,
      "t": 224285.7255000002,
      "d": 436.50795833332813,
      "v": 120
    },
    {
      "midi": 43,
      "hit": false,
      "t": 224285.72550000047,
      "d": 452.3809750000073,
      "v": 120
    },
    {
      "midi": 50,
      "hit": false,
      "t": 224285.72550000047,
      "d": 452.3809750000073,
      "v": 120
    },
    {
      "midi": 31,
      "hit": false,
      "t": 224285.72550000067,
      "d": 412.69843333333847,
      "v": 112
    },
    {
      "midi": 55,
      "hit": false,
      "t": 224285.7255000009,
      "d": 436.50795833332813,
      "v": 115
    },
    {
      "midi": 64,
      "hit": false,
      "t": 224285.7255000009,
      "d": 436.50795833332813,
      "v": 115
    },
    {
      "midi": 2,
      "hit": false,
      "t": 224285.72550000378,
      "d": 7.936508333339589,
      "v": 120
    },
    {
      "midi": 42,
      "hit": false,
      "t": 224285.72550000378,
      "d": 7.936508333339589,
      "v": 100
    },
    {
      "midi": 54,
      "hit": false,
      "t": 224500.01122500378,
      "d": 7.936508333339589,
      "v": 65
    },
    {
      "midi": 64,
      "hit": false,
      "t": 224523.82074999658,
      "d": 214.28572499999427,
      "v": 100
    },
    {
      "midi": 66,
      "hit": false,
      "t": 224722.23345833278,
      "d": 1825.3969166666502,
      "v": 90
    },
    {
      "midi": 61,
      "hit": false,
      "t": 224730.1699666659,
      "d": 436.50795833332813,
      "v": 119
    },
    {
      "midi": 69,
      "hit": false,
      "t": 224730.1699666659,
      "d": 436.50795833332813,
      "v": 119
    },
    {
      "midi": 66,
      "hit": false,
      "t": 224730.1699666659,
      "d": 436.50795833332813,
      "v": 119
    },
    {
      "midi": 64,
      "hit": false,
      "t": 224730.1699666659,
      "d": 436.50795833332813,
      "v": 119
    },
    {
      "midi": 81,
      "hit": false,
      "t": 224730.16996666687,
      "d": 873.0159166666563,
      "v": 120
    },
    {
      "midi": 85,
      "hit": false,
      "t": 224738.10647500004,
      "d": 952.380999999994,
      "v": 100
    },
    {
      "midi": 97,
      "hit": false,
      "t": 224738.10647500004,
      "d": 952.380999999994,
      "v": 100
    },
    {
      "midi": 69,
      "hit": false,
      "t": 224738.10647500024,
      "d": 1880.9524749999982,
      "v": 115
    },
    {
      "midi": 76,
      "hit": false,
      "t": 224738.10647500024,
      "d": 1880.9524749999982,
      "v": 115
    },
    {
      "midi": 88,
      "hit": false,
      "t": 224738.10647500024,
      "d": 1880.9524749999982,
      "v": 115
    },
    {
      "midi": 57,
      "hit": false,
      "t": 224761.91599999656,
      "d": 214.28572499999427,
      "v": 100
    },
    {
      "midi": 42,
      "hit": false,
      "t": 224761.91600000046,
      "d": 912.6984583333542,
      "v": 120
    },
    {
      "midi": 49,
      "hit": false,
      "t": 224761.91600000046,
      "d": 912.6984583333542,
      "v": 120
    },
    {
      "midi": 30,
      "hit": false,
      "t": 224761.91600000067,
      "d": 412.69843333333847,
      "v": 118
    },
    {
      "midi": 54,
      "hit": false,
      "t": 224761.9160000009,
      "d": 436.50795833332813,
      "v": 115
    },
    {
      "midi": 61,
      "hit": false,
      "t": 224761.9160000009,
      "d": 436.50795833332813,
      "v": 115
    },
    {
      "midi": 2,
      "hit": false,
      "t": 224761.91600000378,
      "d": 7.936508333339589,
      "v": 123
    },
    {
      "midi": 54,
      "hit": false,
      "t": 224761.91600000378,
      "d": 7.936508333339589,
      "v": 100
    },
    {
      "midi": 49,
      "hit": false,
      "t": 224761.91600000378,
      "d": 7.936508333339589,
      "v": 115
    },
    {
      "midi": 40,
      "hit": false,
      "t": 224761.91600000378,
      "d": 7.936508333339589,
      "v": 127
    },
    {
      "midi": 69,
      "hit": false,
      "t": 224777.7890166661,
      "d": 1825.3969166666502,
      "v": 90
    },
    {
      "midi": 73,
      "hit": false,
      "t": 224825.4080666661,
      "d": 1825.396916666621,
      "v": 90
    },
    {
      "midi": 76,
      "hit": false,
      "t": 224857.15409999943,
      "d": 1825.396916666621,
      "v": 90
    },
    {
      "midi": 54,
      "hit": false,
      "t": 224976.20172500378,
      "d": 7.936508333339589,
      "v": 60
    },
    {
      "midi": 69,
      "hit": false,
      "t": 225000.01124999655,
      "d": 214.28572499999427,
      "v": 100
    },
    {
      "midi": 54,
      "hit": false,
      "t": 225214.2969750038,
      "d": 7.936508333339589,
      "v": 60
    },
    {
      "midi": 61,
      "hit": false,
      "t": 225238.10649999653,
      "d": 214.28572499999427,
      "v": 100
    },
    {
      "midi": 54,
      "hit": false,
      "t": 225238.10649999924,
      "d": 436.50795833332813,
      "v": 125
    },
    {
      "midi": 30,
      "hit": false,
      "t": 225238.10650000066,
      "d": 412.69843333333847,
      "v": 112
    },
    {
      "midi": 54,
      "hit": false,
      "t": 225238.1065000009,
      "d": 79.36508333333768,
      "v": 100
    },
    {
      "midi": 61,
      "hit": false,
      "t": 225238.1065000009,
      "d": 79.36508333333768,
      "v": 100
    },
    {
      "midi": 42,
      "hit": false,
      "t": 225238.1065000038,
      "d": 7.936508333339589,
      "v": 100
    },
    {
      "midi": 54,
      "hit": false,
      "t": 225452.3922250038,
      "d": 7.936508333339589,
      "v": 60
    },
    {
      "midi": 57,
      "hit": false,
      "t": 225476.20174999651,
      "d": 214.28572499999427,
      "v": 100
    },
    {
      "midi": 88,
      "hit": false,
      "t": 225690.48747500003,
      "d": 952.380999999994,
      "v": 100
    },
    {
      "midi": 100,
      "hit": false,
      "t": 225690.48747500003,
      "d": 952.380999999994,
      "v": 100
    },
    {
      "midi": 54,
      "hit": false,
      "t": 225690.4874750038,
      "d": 7.936508333339589,
      "v": 100
    },
    {
      "midi": 64,
      "hit": false,
      "t": 225714.2969999965,
      "d": 214.28572499999427,
      "v": 100
    },
    {
      "midi": 57,
      "hit": false,
      "t": 225714.29699999923,
      "d": 436.50795833332813,
      "v": 125
    },
    {
      "midi": 78,
      "hit": false,
      "t": 225714.2970000002,
      "d": 436.50795833332813,
      "v": 120
    },
    {
      "midi": 42,
      "hit": false,
      "t": 225714.2970000005,
      "d": 119.04762500000652,
      "v": 115
    },
    {
      "midi": 49,
      "hit": false,
      "t": 225714.2970000005,
      "d": 119.04762500000652,
      "v": 115
    },
    {
      "midi": 37,
      "hit": false,
      "t": 225714.29700000066,
      "d": 412.69843333333847,
      "v": 112
    },
    {
      "midi": 54,
      "hit": false,
      "t": 225714.2970000009,
      "d": 436.50795833332813,
      "v": 115
    },
    {
      "midi": 61,
      "hit": false,
      "t": 225714.2970000009,
      "d": 436.50795833332813,
      "v": 115
    },
    {
      "midi": 40,
      "hit": false,
      "t": 225714.29700000383,
      "d": 7.936508333339589,
      "v": 127
    },
    {
      "midi": 42,
      "hit": false,
      "t": 225714.29700000383,
      "d": 7.936508333339589,
      "v": 100
    },
    {
      "midi": 54,
      "hit": false,
      "t": 225928.58272500383,
      "d": 7.936508333339589,
      "v": 60
    },
    {
      "midi": 61,
      "hit": false,
      "t": 225952.39224999648,
      "d": 214.28572499999427,
      "v": 100
    },
    {
      "midi": 54,
      "hit": false,
      "t": 226166.67797500384,
      "d": 7.936508333339589,
      "v": 65
    },
    {
      "midi": 61,
      "hit": false,
      "t": 226190.48749999647,
      "d": 214.28572499999427,
      "v": 100
    },
    {
      "midi": 61,
      "hit": false,
      "t": 226190.48749999923,
      "d": 436.50795833332813,
      "v": 125
    },
    {
      "midi": 76,
      "hit": false,
      "t": 226190.4875000002,
      "d": 436.50795833332813,
      "v": 120
    },
    {
      "midi": 42,
      "hit": false,
      "t": 226190.48750000048,
      "d": 119.04762500000652,
      "v": 115
    },
    {
      "midi": 49,
      "hit": false,
      "t": 226190.48750000048,
      "d": 119.04762500000652,
      "v": 115
    },
    {
      "midi": 36,
      "hit": false,
      "t": 226190.48750000066,
      "d": 412.69843333333847,
      "v": 112
    },
    {
      "midi": 54,
      "hit": false,
      "t": 226190.4875000009,
      "d": 436.50795833332813,
      "v": 115
    },
    {
      "midi": 61,
      "hit": false,
      "t": 226190.4875000009,
      "d": 436.50795833332813,
      "v": 115
    },
    {
      "midi": 42,
      "hit": false,
      "t": 226190.48750000386,
      "d": 7.936508333339589,
      "v": 100
    },
    {
      "midi": 54,
      "hit": false,
      "t": 226404.77322500385,
      "d": 7.936508333339589,
      "v": 60
    },
    {
      "midi": 64,
      "hit": false,
      "t": 226428.58274999645,
      "d": 214.28572499999427,
      "v": 100
    },
    {
      "midi": 69,
      "hit": false,
      "t": 226626.99545833273,
      "d": 1825.3969166666502,
      "v": 90
    },
    {
      "midi": 86,
      "hit": false,
      "t": 226642.86847500002,
      "d": 1880.9524749999982,
      "v": 100
    },
    {
      "midi": 98,
      "hit": false,
      "t": 226642.86847500002,
      "d": 1880.9524749999982,
      "v": 100
    },
    {
      "midi": 71,
      "hit": false,
      "t": 226642.86847500023,
      "d": 1880.9524749999982,
      "v": 115
    },
    {
      "midi": 78,
      "hit": false,
      "t": 226642.86847500023,
      "d": 1880.9524749999982,
      "v": 115
    },
    {
      "midi": 90,
      "hit": false,
      "t": 226642.86847500023,
      "d": 1880.9524749999982,
      "v": 115
    },
    {
      "midi": 54,
      "hit": false,
      "t": 226642.86847500387,
      "d": 7.936508333339589,
      "v": 100
    },
    {
      "midi": 57,
      "hit": false,
      "t": 226650.80498333255,
      "d": 634.9206666666723,
      "v": 119
    },
    {
      "midi": 62,
      "hit": false,
      "t": 226650.80498333255,
      "d": 634.9206666666723,
      "v": 119
    },
    {
      "midi": 66,
      "hit": false,
      "t": 226650.80498333255,
      "d": 634.9206666666723,
      "v": 119
    },
    {
      "midi": 66,
      "hit": false,
      "t": 226666.67799999643,
      "d": 214.28572499999427,
      "v": 100
    },
    {
      "midi": 74,
      "hit": false,
      "t": 226666.6780000002,
      "d": 873.0159166666563,
      "v": 120
    },
    {
      "midi": 47,
      "hit": false,
      "t": 226666.67800000048,
      "d": 912.6984583333251,
      "v": 120
    },
    {
      "midi": 54,
      "hit": false,
      "t": 226666.67800000048,
      "d": 912.6984583333251,
      "v": 120
    },
    {
      "midi": 35,
      "hit": false,
      "t": 226666.67800000065,
      "d": 412.69843333333847,
      "v": 112
    },
    {
      "midi": 47,
      "hit": false,
      "t": 226666.6780000009,
      "d": 436.50795833332813,
      "v": 115
    },
    {
      "midi": 54,
      "hit": false,
      "t": 226666.6780000009,
      "d": 436.50795833332813,
      "v": 115
    },
    {
      "midi": 40,
      "hit": false,
      "t": 226666.67800000389,
      "d": 7.936508333339589,
      "v": 127
    },
    {
      "midi": 49,
      "hit": false,
      "t": 226666.67800000389,
      "d": 7.936508333339589,
      "v": 115
    },
    {
      "midi": 71,
      "hit": false,
      "t": 226682.55101666605,
      "d": 1825.3969166666502,
      "v": 90
    },
    {
      "midi": 74,
      "hit": false,
      "t": 226730.17006666606,
      "d": 1825.396916666621,
      "v": 90
    },
    {
      "midi": 78,
      "hit": false,
      "t": 226761.9160999994,
      "d": 1825.396916666621,
      "v": 90
    },
    {
      "midi": 54,
      "hit": false,
      "t": 226880.96372500388,
      "d": 7.936508333339589,
      "v": 60
    },
    {
      "midi": 59,
      "hit": false,
      "t": 226904.77324999642,
      "d": 214.28572499999427,
      "v": 100
    },
    {
      "midi": 54,
      "hit": false,
      "t": 227119.0589750039,
      "d": 7.936508333339589,
      "v": 60
    },
    {
      "midi": 62,
      "hit": false,
      "t": 227142.8684999964,
      "d": 214.28572499999427,
      "v": 100
    },
    {
      "midi": 35,
      "hit": false,
      "t": 227142.86850000065,
      "d": 412.69843333333847,
      "v": 112
    },
    {
      "midi": 47,
      "hit": false,
      "t": 227142.86850000088,
      "d": 79.36508333333768,
      "v": 100
    },
    {
      "midi": 54,
      "hit": false,
      "t": 227142.86850000088,
      "d": 79.36508333333768,
      "v": 100
    },
    {
      "midi": 2,
      "hit": false,
      "t": 227142.8685000039,
      "d": 7.936508333339589,
      "v": 120
    },
    {
      "midi": 42,
      "hit": false,
      "t": 227142.8685000039,
      "d": 7.936508333339589,
      "v": 100
    },
    {
      "midi": 54,
      "hit": false,
      "t": 227357.1542250039,
      "d": 7.936508333339589,
      "v": 60
    },
    {
      "midi": 57,
      "hit": false,
      "t": 227365.09073333256,
      "d": 634.9206666666723,
      "v": 119
    },
    {
      "midi": 61,
      "hit": false,
      "t": 227365.09073333256,
      "d": 634.9206666666723,
      "v": 119
    },
    {
      "midi": 64,
      "hit": false,
      "t": 227365.09073333256,
      "d": 634.9206666666723,
      "v": 119
    },
    {
      "midi": 66,
      "hit": false,
      "t": 227380.9637499964,
      "d": 214.28572499999427,
      "v": 100
    },
    {
      "midi": 54,
      "hit": false,
      "t": 227595.24947500392,
      "d": 7.936508333339589,
      "v": 100
    },
    {
      "midi": 66,
      "hit": false,
      "t": 227619.05899999637,
      "d": 214.28572499999427,
      "v": 100
    },
    {
      "midi": 74,
      "hit": false,
      "t": 227619.05900000018,
      "d": 436.50795833332813,
      "v": 118
    },
    {
      "midi": 47,
      "hit": false,
      "t": 227619.05900000047,
      "d": 119.04762500000652,
      "v": 115
    },
    {
      "midi": 54,
      "hit": false,
      "t": 227619.05900000047,
      "d": 119.04762500000652,
      "v": 115
    },
    {
      "midi": 38,
      "hit": false,
      "t": 227619.05900000065,
      "d": 412.69843333333847,
      "v": 112
    },
    {
      "midi": 47,
      "hit": false,
      "t": 227619.05900000088,
      "d": 436.50795833332813,
      "v": 115
    },
    {
      "midi": 54,
      "hit": false,
      "t": 227619.05900000088,
      "d": 436.50795833332813,
      "v": 115
    },
    {
      "midi": 40,
      "hit": false,
      "t": 227619.05900000394,
      "d": 7.936508333339589,
      "v": 127
    },
    {
      "midi": 42,
      "hit": false,
      "t": 227619.05900000394,
      "d": 7.936508333339589,
      "v": 100
    },
    {
      "midi": 54,
      "hit": false,
      "t": 227833.34472500393,
      "d": 7.936508333339589,
      "v": 60
    },
    {
      "midi": 62,
      "hit": false,
      "t": 227857.15424999635,
      "d": 214.28572499999427,
      "v": 100
    },
    {
      "midi": 54,
      "hit": false,
      "t": 228071.43997500394,
      "d": 7.936508333339589,
      "v": 60
    },
    {
      "midi": 57,
      "hit": false,
      "t": 228079.37648333257,
      "d": 436.50795833332813,
      "v": 119
    },
    {
      "midi": 62,
      "hit": false,
      "t": 228079.37648333257,
      "d": 436.50795833332813,
      "v": 119
    },
    {
      "midi": 66,
      "hit": false,
      "t": 228079.37648333257,
      "d": 436.50795833332813,
      "v": 119
    },
    {
      "midi": 74,
      "hit": false,
      "t": 228095.24949999634,
      "d": 214.28572499999427,
      "v": 100
    },
    {
      "midi": 73,
      "hit": false,
      "t": 228095.24950000018,
      "d": 436.50795833332813,
      "v": 116
    },
    {
      "midi": 54,
      "hit": false,
      "t": 228095.24950000047,
      "d": 119.04762500000652,
      "v": 115
    },
    {
      "midi": 47,
      "hit": false,
      "t": 228095.24950000047,
      "d": 119.04762500000652,
      "v": 115
    },
    {
      "midi": 39,
      "hit": false,
      "t": 228095.24950000065,
      "d": 412.69843333333847,
      "v": 112
    },
    {
      "midi": 47,
      "hit": false,
      "t": 228095.24950000088,
      "d": 436.50795833332813,
      "v": 115
    },
    {
      "midi": 54,
      "hit": false,
      "t": 228095.24950000088,
      "d": 436.50795833332813,
      "v": 115
    },
    {
      "midi": 2,
      "hit": false,
      "t": 228095.24950000396,
      "d": 7.936508333339589,
      "v": 120
    },
    {
      "midi": 42,
      "hit": false,
      "t": 228095.24950000396,
      "d": 7.936508333339589,
      "v": 100
    },
    {
      "midi": 54,
      "hit": false,
      "t": 228309.53522500396,
      "d": 7.936508333339589,
      "v": 65
    },
    {
      "midi": 66,
      "hit": false,
      "t": 228333.34474999632,
      "d": 214.28572499999427,
      "v": 100
    },
    {
      "midi": 64,
      "hit": false,
      "t": 228531.7574583327,
      "d": 2857.142999999982,
      "v": 90
    },
    {
      "midi": 55,
      "hit": false,
      "t": 228539.6939666659,
      "d": 436.50795833332813,
      "v": 119
    },
    {
      "midi": 67,
      "hit": false,
      "t": 228539.6939666659,
      "d": 436.50795833332813,
      "v": 119
    },
    {
      "midi": 59,
      "hit": false,
      "t": 228539.6939666659,
      "d": 436.50795833332813,
      "v": 119
    },
    {
      "midi": 71,
      "hit": false,
      "t": 228539.69396666685,
      "d": 873.0159166666563,
      "v": 118
    },
    {
      "midi": 91,
      "hit": false,
      "t": 228547.630475,
      "d": 3809.524000000005,
      "v": 100
    },
    {
      "midi": 95,
      "hit": false,
      "t": 228547.630475,
      "d": 3809.524000000005,
      "v": 100
    },
    {
      "midi": 71,
      "hit": false,
      "t": 228547.63047500022,
      "d": 3793.6509833333257,
      "v": 115
    },
    {
      "midi": 79,
      "hit": false,
      "t": 228547.63047500022,
      "d": 3793.6509833333257,
      "v": 115
    },
    {
      "midi": 83,
      "hit": false,
      "t": 228547.63047500022,
      "d": 3793.6509833333257,
      "v": 115
    },
    {
      "midi": 59,
      "hit": false,
      "t": 228571.4399999963,
      "d": 436.50795833332813,
      "v": 100
    },
    {
      "midi": 40,
      "hit": false,
      "t": 228571.44000000047,
      "d": 912.6984583333542,
      "v": 120
    },
    {
      "midi": 47,
      "hit": false,
      "t": 228571.44000000047,
      "d": 912.6984583333542,
      "v": 120
    },
    {
      "midi": 40,
      "hit": false,
      "t": 228571.44000000064,
      "d": 412.69843333333847,
      "v": 118
    },
    {
      "midi": 52,
      "hit": false,
      "t": 228571.44000000088,
      "d": 436.5079583332699,
      "v": 115
    },
    {
      "midi": 59,
      "hit": false,
      "t": 228571.44000000088,
      "d": 436.5079583332699,
      "v": 115
    },
    {
      "midi": 2,
      "hit": false,
      "t": 228571.44000000396,
      "d": 7.936508333339589,
      "v": 123
    },
    {
      "midi": 54,
      "hit": false,
      "t": 228571.44000000396,
      "d": 7.936508333339589,
      "v": 100
    },
    {
      "midi": 49,
      "hit": false,
      "t": 228571.44000000396,
      "d": 7.936508333339589,
      "v": 115
    },
    {
      "midi": 40,
      "hit": false,
      "t": 228571.44000000396,
      "d": 7.936508333339589,
      "v": 127
    },
    {
      "midi": 67,
      "hit": false,
      "t": 228587.313016666,
      "d": 2857.142999999982,
      "v": 90
    },
    {
      "midi": 71,
      "hit": false,
      "t": 228634.93206666602,
      "d": 2857.142999999982,
      "v": 90
    },
    {
      "midi": 74,
      "hit": false,
      "t": 228666.67809999935,
      "d": 2857.142999999982,
      "v": 90
    },
    {
      "midi": 54,
      "hit": false,
      "t": 228785.72572500395,
      "d": 7.936508333339589,
      "v": 60
    },
    {
      "midi": 54,
      "hit": false,
      "t": 229023.82097500397,
      "d": 7.936508333339589,
      "v": 60
    },
    {
      "midi": 62,
      "hit": false,
      "t": 229047.6304999963,
      "d": 214.28572499999427,
      "v": 100
    },
    {
      "midi": 52,
      "hit": false,
      "t": 229047.6304999992,
      "d": 436.50795833332813,
      "v": 125
    },
    {
      "midi": 40,
      "hit": false,
      "t": 229047.63050000064,
      "d": 412.69843333333847,
      "v": 112
    },
    {
      "midi": 52,
      "hit": false,
      "t": 229047.6305000008,
      "d": 79.36508333333768,
      "v": 100
    },
    {
      "midi": 59,
      "hit": false,
      "t": 229047.6305000008,
      "d": 79.36508333333768,
      "v": 100
    },
    {
      "midi": 42,
      "hit": false,
      "t": 229047.630500004,
      "d": 7.936508333339589,
      "v": 100
    },
    {
      "midi": 54,
      "hit": false,
      "t": 229261.91622500398,
      "d": 7.936508333339589,
      "v": 60
    },
    {
      "midi": 59,
      "hit": false,
      "t": 229285.7257499963,
      "d": 214.28572499999427,
      "v": 100
    },
    {
      "midi": 54,
      "hit": false,
      "t": 229500.011475004,
      "d": 7.936508333339589,
      "v": 100
    },
    {
      "midi": 67,
      "hit": false,
      "t": 229523.82099999627,
      "d": 214.28572499999427,
      "v": 100
    },
    {
      "midi": 59,
      "hit": false,
      "t": 229523.8209999992,
      "d": 436.50795833332813,
      "v": 125
    },
    {
      "midi": 40,
      "hit": false,
      "t": 229523.8210000005,
      "d": 119.04762499997742,
      "v": 115
    },
    {
      "midi": 47,
      "hit": false,
      "t": 229523.8210000005,
      "d": 119.04762499997742,
      "v": 115
    },
    {
      "midi": 40,
      "hit": false,
      "t": 229523.82100000064,
      "d": 412.69843333333847,
      "v": 112
    },
    {
      "midi": 52,
      "hit": false,
      "t": 229523.8210000008,
      "d": 79.36508333333768,
      "v": 100
    },
    {
      "midi": 59,
      "hit": false,
      "t": 229523.8210000008,
      "d": 79.36508333333768,
      "v": 100
    },
    {
      "midi": 40,
      "hit": false,
      "t": 229523.821000004,
      "d": 7.936508333339589,
      "v": 127
    },
    {
      "midi": 42,
      "hit": false,
      "t": 229523.821000004,
      "d": 7.936508333339589,
      "v": 100
    },
    {
      "midi": 54,
      "hit": false,
      "t": 229738.106725004,
      "d": 7.936508333339589,
      "v": 60
    },
    {
      "midi": 62,
      "hit": false,
      "t": 229761.91624999625,
      "d": 214.28572499999427,
      "v": 100
    },
    {
      "midi": 54,
      "hit": false,
      "t": 229976.20197500402,
      "d": 7.936508333339589,
      "v": 65
    },
    {
      "midi": 59,
      "hit": false,
      "t": 229984.13848333253,
      "d": 873.0159166666563,
      "v": 119
    },
    {
      "midi": 62,
      "hit": false,
      "t": 229984.13848333253,
      "d": 873.0159166666563,
      "v": 119
    },
    {
      "midi": 67,
      "hit": false,
      "t": 229984.13848333253,
      "d": 873.0159166666563,
      "v": 119
    },
    {
      "midi": 62,
      "hit": false,
      "t": 230000.01149999624,
      "d": 214.28572499999427,
      "v": 100
    },
    {
      "midi": 71,
      "hit": false,
      "t": 230000.01150000017,
      "d": 436.50795833332813,
      "v": 116
    },
    {
      "midi": 40,
      "hit": false,
      "t": 230000.01150000046,
      "d": 119.04762500000652,
      "v": 115
    },
    {
      "midi": 47,
      "hit": false,
      "t": 230000.01150000046,
      "d": 119.04762500000652,
      "v": 115
    },
    {
      "midi": 40,
      "hit": false,
      "t": 230000.01150000063,
      "d": 412.69843333333847,
      "v": 112
    },
    {
      "midi": 52,
      "hit": false,
      "t": 230000.0115000008,
      "d": 436.5079583332699,
      "v": 115
    },
    {
      "midi": 59,
      "hit": false,
      "t": 230000.0115000008,
      "d": 436.5079583332699,
      "v": 115
    },
    {
      "midi": 2,
      "hit": false,
      "t": 230000.01150000404,
      "d": 7.936508333339589,
      "v": 120
    },
    {
      "midi": 42,
      "hit": false,
      "t": 230000.01150000404,
      "d": 7.936508333339589,
      "v": 100
    },
    {
      "midi": 54,
      "hit": false,
      "t": 230214.29722500403,
      "d": 7.936508333339589,
      "v": 60
    },
    {
      "midi": 67,
      "hit": false,
      "t": 230238.10674999622,
      "d": 214.28572499999427,
      "v": 100
    },
    {
      "midi": 54,
      "hit": false,
      "t": 230452.39247500405,
      "d": 7.936508333339589,
      "v": 100
    },
    {
      "midi": 67,
      "hit": false,
      "t": 230476.2019999962,
      "d": 214.28572499999427,
      "v": 100
    },
    {
      "midi": 74,
      "hit": false,
      "t": 230476.20200000016,
      "d": 436.50795833332813,
      "v": 116
    },
    {
      "midi": 40,
      "hit": false,
      "t": 230476.20200000046,
      "d": 119.04762500000652,
      "v": 115
    },
    {
      "midi": 47,
      "hit": false,
      "t": 230476.20200000046,
      "d": 119.04762500000652,
      "v": 115
    },
    {
      "midi": 40,
      "hit": false,
      "t": 230476.20200000063,
      "d": 412.69843333333847,
      "v": 112
    },
    {
      "midi": 52,
      "hit": false,
      "t": 230476.20200000075,
      "d": 79.36508333330858,
      "v": 100
    },
    {
      "midi": 59,
      "hit": false,
      "t": 230476.20200000075,
      "d": 79.36508333330858,
      "v": 100
    },
    {
      "midi": 2,
      "hit": false,
      "t": 230476.20200000406,
      "d": 7.936508333339589,
      "v": 120
    },
    {
      "midi": 47,
      "hit": false,
      "t": 230476.20200000406,
      "d": 7.936508333339589,
      "v": 127
    },
    {
      "midi": 54,
      "hit": false,
      "t": 230690.48772500406,
      "d": 7.936508333339589,
      "v": 60
    },
    {
      "midi": 62,
      "hit": false,
      "t": 230714.2972499962,
      "d": 214.28572499999427,
      "v": 100
    },
    {
      "midi": 47,
      "hit": false,
      "t": 230714.29725000408,
      "d": 7.936508333339589,
      "v": 127
    },
    {
      "midi": 54,
      "hit": false,
      "t": 230928.58297500407,
      "d": 7.936508333339589,
      "v": 60
    },
    {
      "midi": 62,
      "hit": false,
      "t": 230936.51948333252,
      "d": 436.50795833332813,
      "v": 119
    },
    {
      "midi": 67,
      "hit": false,
      "t": 230936.51948333252,
      "d": 436.50795833332813,
      "v": 119
    },
    {
      "midi": 71,
      "hit": false,
      "t": 230936.51948333252,
      "d": 436.50795833332813,
      "v": 119
    },
    {
      "midi": 64,
      "hit": false,
      "t": 230952.39249999617,
      "d": 214.28572499999427,
      "v": 100
    },
    {
      "midi": 74,
      "hit": false,
      "t": 230952.39250000016,
      "d": 436.50795833332813,
      "v": 116
    },
    {
      "midi": 40,
      "hit": false,
      "t": 230952.39250000045,
      "d": 119.04762500000652,
      "v": 115
    },
    {
      "midi": 47,
      "hit": false,
      "t": 230952.39250000045,
      "d": 119.04762500000652,
      "v": 115
    },
    {
      "midi": 35,
      "hit": false,
      "t": 230952.39250000063,
      "d": 412.69843333333847,
      "v": 112
    },
    {
      "midi": 52,
      "hit": false,
      "t": 230952.39250000063,
      "d": 79.36508333333768,
      "v": 100
    },
    {
      "midi": 59,
      "hit": false,
      "t": 230952.39250000063,
      "d": 79.36508333333768,
      "v": 100
    },
    {
      "midi": 47,
      "hit": false,
      "t": 230952.3925000041,
      "d": 7.936508333339589,
      "v": 127
    },
    {
      "midi": 54,
      "hit": false,
      "t": 231166.67822500409,
      "d": 7.936508333339589,
      "v": 60
    },
    {
      "midi": 67,
      "hit": false,
      "t": 231190.48774999616,
      "d": 214.28572499999427,
      "v": 100
    },
    {
      "midi": 54,
      "hit": false,
      "t": 231404.7734750041,
      "d": 7.936508333339589,
      "v": 100
    },
    {
      "midi": 67,
      "hit": false,
      "t": 231428.58299999614,
      "d": 214.28572499999427,
      "v": 100
    },
    {
      "midi": 62,
      "hit": false,
      "t": 231428.58299999917,
      "d": 873.0159166666563,
      "v": 119
    },
    {
      "midi": 79,
      "hit": false,
      "t": 231428.58300000016,
      "d": 436.50795833332813,
      "v": 116
    },
    {
      "midi": 40,
      "hit": false,
      "t": 231428.58300000045,
      "d": 119.04762500000652,
      "v": 115
    },
    {
      "midi": 47,
      "hit": false,
      "t": 231428.58300000045,
      "d": 119.04762500000652,
      "v": 115
    },
    {
      "midi": 28,
      "hit": false,
      "t": 231428.58300000062,
      "d": 412.69843333333847,
      "v": 112
    },
    {
      "midi": 52,
      "hit": false,
      "t": 231428.58300000062,
      "d": 436.50795833332813,
      "v": 115
    },
    {
      "midi": 59,
      "hit": false,
      "t": 231428.58300000062,
      "d": 436.50795833332813,
      "v": 115
    },
    {
      "midi": 2,
      "hit": false,
      "t": 231428.58300000412,
      "d": 7.936508333339589,
      "v": 120
    },
    {
      "midi": 45,
      "hit": false,
      "t": 231428.58300000412,
      "d": 7.936508333339589,
      "v": 127
    },
    {
      "midi": 54,
      "hit": false,
      "t": 231642.8687250041,
      "d": 7.936508333339589,
      "v": 60
    },
    {
      "midi": 64,
      "hit": false,
      "t": 231666.67824999613,
      "d": 214.28572499999427,
      "v": 100
    },
    {
      "midi": 54,
      "hit": false,
      "t": 231880.96397500412,
      "d": 7.936508333339589,
      "v": 60
    },
    {
      "midi": 71,
      "hit": false,
      "t": 231904.7734999961,
      "d": 214.28572499999427,
      "v": 100
    },
    {
      "midi": 79,
      "hit": false,
      "t": 231904.77350000016,
      "d": 436.50795833332813,
      "v": 116
    },
    {
      "midi": 40,
      "hit": false,
      "t": 231904.77350000045,
      "d": 119.04762500000652,
      "v": 115
    },
    {
      "midi": 47,
      "hit": false,
      "t": 231904.77350000045,
      "d": 119.04762500000652,
      "v": 115
    },
    {
      "midi": 31,
      "hit": false,
      "t": 231904.77350000062,
      "d": 412.69843333333847,
      "v": 112
    },
    {
      "midi": 52,
      "hit": false,
      "t": 231904.77350000062,
      "d": 222.22223333327565,
      "v": 100
    },
    {
      "midi": 59,
      "hit": false,
      "t": 231904.77350000062,
      "d": 222.22223333327565,
      "v": 100
    },
    {
      "midi": 43,
      "hit": false,
      "t": 231904.77350000414,
      "d": 7.936508333339589,
      "v": 127
    },
    {
      "midi": 54,
      "hit": false,
      "t": 232119.05922500414,
      "d": 7.936508333339589,
      "v": 65
    },
    {
      "midi": 67,
      "hit": false,
      "t": 232142.8687499961,
      "d": 214.28572499999427,
      "v": 100
    },
    {
      "midi": 52,
      "hit": false,
      "t": 232142.86875000058,
      "d": 222.22223333330476,
      "v": 100
    },
    {
      "midi": 59,
      "hit": false,
      "t": 232142.86875000058,
      "d": 222.22223333330476,
      "v": 100
    },
    {
      "midi": 64,
      "hit": false,
      "t": 232341.28145833267,
      "d": 2857.1429999999527,
      "v": 90
    },
    {
      "midi": 57,
      "hit": false,
      "t": 232349.21796666583,
      "d": 3730.158916666667,
      "v": 119
    },
    {
      "midi": 64,
      "hit": false,
      "t": 232349.21796666583,
      "d": 3730.158916666667,
      "v": 119
    },
    {
      "midi": 61,
      "hit": false,
      "t": 232349.21796666583,
      "d": 3730.158916666667,
      "v": 119
    },
    {
      "midi": 59,
      "hit": false,
      "t": 232349.21796666583,
      "d": 3730.158916666667,
      "v": 119
    },
    {
      "midi": 93,
      "hit": false,
      "t": 232357.15447500002,
      "d": 3809.5239999999467,
      "v": 100
    },
    {
      "midi": 97,
      "hit": false,
      "t": 232357.15447500002,
      "d": 3809.5239999999467,
      "v": 100
    },
    {
      "midi": 73,
      "hit": false,
      "t": 232357.15447500022,
      "d": 3793.6509833330347,
      "v": 115
    },
    {
      "midi": 81,
      "hit": false,
      "t": 232357.15447500022,
      "d": 3793.6509833330347,
      "v": 115
    },
    {
      "midi": 85,
      "hit": false,
      "t": 232357.15447500022,
      "d": 3793.6509833330347,
      "v": 115
    },
    {
      "midi": 78,
      "hit": false,
      "t": 232380.96400000015,
      "d": 1388.8889583333512,
      "v": 116
    },
    {
      "midi": 45,
      "hit": false,
      "t": 232380.96400000044,
      "d": 3793.6509833336168,
      "v": 105
    },
    {
      "midi": 45,
      "hit": false,
      "t": 232380.96400000056,
      "d": 3769.8414583329577,
      "v": 100
    },
    {
      "midi": 52,
      "hit": false,
      "t": 232380.96400000056,
      "d": 3769.8414583329577,
      "v": 100
    },
    {
      "midi": 33,
      "hit": false,
      "t": 232380.96400000062,
      "d": 3730.158916666667,
      "v": 118
    },
    {
      "midi": 2,
      "hit": false,
      "t": 232380.96400000414,
      "d": 7.936508333339589,
      "v": 123
    },
    {
      "midi": 49,
      "hit": false,
      "t": 232380.96400000414,
      "d": 7.936508333339589,
      "v": 115
    },
    {
      "midi": 69,
      "hit": false,
      "t": 232396.837016666,
      "d": 2857.1429999999527,
      "v": 90
    },
    {
      "midi": 52,
      "hit": false,
      "t": 232396.83701666712,
      "d": 3785.714475000277,
      "v": 105
    },
    {
      "midi": 71,
      "hit": false,
      "t": 232420.64654166598,
      "d": 2857.1429999999527,
      "v": 90
    },
    {
      "midi": 57,
      "hit": false,
      "t": 232420.64654166714,
      "d": 3761.9049500002584,
      "v": 105
    },
    {
      "midi": 59,
      "hit": false,
      "t": 232436.51955833382,
      "d": 3746.031933333579,
      "v": 105
    },
    {
      "midi": 73,
      "hit": false,
      "t": 232444.45606666597,
      "d": 2857.1429999999527,
      "v": 90
    },
    {
      "midi": 64,
      "hit": false,
      "t": 232452.3925750005,
      "d": 3730.1589166669,
      "v": 105
    },
    {
      "midi": 76,
      "hit": false,
      "t": 232476.2020999993,
      "d": 2857.1429999999527,
      "v": 90
    },
    {
      "midi": 79,
      "hit": false,
      "t": 233809.53550000017,
      "d": 238.09525000001304,
      "v": 116
    },
    {
      "midi": 78,
      "hit": false,
      "t": 234047.6307500002,
      "d": 238.09525000001304,
      "v": 116
    },
    {
      "midi": 76,
      "hit": false,
      "t": 234285.7260000002,
      "d": 1388.888958333322,
      "v": 116
    },
    {
      "midi": 48,
      "hit": false,
      "t": 235238.10700000415,
      "d": 7.936508333339589,
      "v": 127
    },
    {
      "midi": 74,
      "hit": false,
      "t": 235714.2975000002,
      "d": 436.50795833332813,
      "v": 116
    },
    {
      "midi": 74,
      "hit": false,
      "t": 236190.4880000002,
      "d": 2777.7779166667315,
      "v": 116
    },
    {
      "midi": 57,
      "hit": false,
      "t": 236190.4880000002,
      "d": 674.6032083333412,
      "v": 115
    },
    {
      "midi": 66,
      "hit": false,
      "t": 236190.4880000002,
      "d": 674.6032083333412,
      "v": 115
    },
    {
      "midi": 62,
      "hit": false,
      "t": 236190.4880000002,
      "d": 674.6032083333412,
      "v": 120
    },
    {
      "midi": 50,
      "hit": false,
      "t": 236190.4880000002,
      "d": 714.28575000001,
      "v": 127
    },
    {
      "midi": 2,
      "hit": false,
      "t": 236190.48800000414,
      "d": 7.936508333339589,
      "v": 120
    },
    {
      "midi": 49,
      "hit": false,
      "t": 236190.48800000414,
      "d": 7.936508333339589,
      "v": 105
    },
    {
      "midi": 50,
      "hit": false,
      "t": 237142.8690000002,
      "d": 23.809524999989662,
      "v": 127
    },
    {
      "midi": 57,
      "hit": false,
      "t": 237142.8690000002,
      "d": 23.809524999989662,
      "v": 115
    },
    {
      "midi": 66,
      "hit": false,
      "t": 237142.8690000002,
      "d": 23.809524999989662,
      "v": 115
    },
    {
      "midi": 62,
      "hit": false,
      "t": 237142.8690000002,
      "d": 23.809524999989662,
      "v": 120
    },
    {
      "midi": 2,
      "hit": false,
      "t": 237142.86900000414,
      "d": 7.936508333339589,
      "v": 112
    },
    {
      "midi": 50,
      "hit": false,
      "t": 237619.0595000002,
      "d": 79.36508333333768,
      "v": 100
    },
    {
      "midi": 66,
      "hit": false,
      "t": 237619.0595000002,
      "d": 79.36508333333768,
      "v": 100
    },
    {
      "midi": 62,
      "hit": false,
      "t": 237619.0595000002,
      "d": 79.36508333333768,
      "v": 100
    },
    {
      "midi": 57,
      "hit": false,
      "t": 237619.0595000002,
      "d": 79.36508333333768,
      "v": 100
    },
    {
      "midi": 66,
      "hit": false,
      "t": 237857.15475000022,
      "d": 79.36508333333768,
      "v": 100
    },
    {
      "midi": 50,
      "hit": false,
      "t": 237857.15475000022,
      "d": 79.36508333333768,
      "v": 100
    },
    {
      "midi": 57,
      "hit": false,
      "t": 237857.15475000022,
      "d": 79.36508333333768,
      "v": 100
    },
    {
      "midi": 62,
      "hit": false,
      "t": 237857.15475000022,
      "d": 79.36508333333768,
      "v": 100
    },
    {
      "midi": 50,
      "hit": false,
      "t": 238095.25000000023,
      "d": 79.36508333333768,
      "v": 100
    },
    {
      "midi": 66,
      "hit": false,
      "t": 238095.25000000023,
      "d": 79.36508333333768,
      "v": 100
    },
    {
      "midi": 62,
      "hit": false,
      "t": 238095.25000000023,
      "d": 79.36508333333768,
      "v": 100
    },
    {
      "midi": 57,
      "hit": false,
      "t": 238095.25000000023,
      "d": 79.36508333333768,
      "v": 100
    },
    {
      "midi": 2,
      "hit": false,
      "t": 238095.25000000413,
      "d": 7.936508333339589,
      "v": 112
    },
    {
      "midi": 42,
      "hit": false,
      "t": 238095.25000000413,
      "d": 7.936508333339589,
      "v": 100
    },
    {
      "midi": 66,
      "hit": false,
      "t": 238333.34525000025,
      "d": 79.36508333333768,
      "v": 100
    },
    {
      "midi": 50,
      "hit": false,
      "t": 238333.34525000025,
      "d": 79.36508333333768,
      "v": 100
    },
    {
      "midi": 57,
      "hit": false,
      "t": 238333.34525000025,
      "d": 79.36508333333768,
      "v": 100
    },
    {
      "midi": 62,
      "hit": false,
      "t": 238333.34525000025,
      "d": 79.36508333333768,
      "v": 100
    },
    {
      "midi": 50,
      "hit": false,
      "t": 238571.44050000026,
      "d": 436.50795833332813,
      "v": 120
    },
    {
      "midi": 66,
      "hit": false,
      "t": 238571.44050000026,
      "d": 436.50795833332813,
      "v": 115
    },
    {
      "midi": 62,
      "hit": false,
      "t": 238571.44050000026,
      "d": 436.50795833332813,
      "v": 120
    },
    {
      "midi": 57,
      "hit": false,
      "t": 238571.44050000026,
      "d": 436.50795833332813,
      "v": 100
    },
    {
      "midi": 42,
      "hit": false,
      "t": 238571.44050000413,
      "d": 7.936508333339589,
      "v": 100
    },
    {
      "midi": 66,
      "hit": false,
      "t": 239047.63100000026,
      "d": 436.50795833332813,
      "v": 110
    },
    {
      "midi": 50,
      "hit": false,
      "t": 239047.63100000026,
      "d": 436.50795833332813,
      "v": 110
    },
    {
      "midi": 57,
      "hit": false,
      "t": 239047.63100000026,
      "d": 436.50795833332813,
      "v": 112
    },
    {
      "midi": 62,
      "hit": false,
      "t": 239047.63100000026,
      "d": 436.50795833332813,
      "v": 110
    },
    {
      "midi": 2,
      "hit": false,
      "t": 239047.63100000413,
      "d": 7.936508333339589,
      "v": 112
    },
    {
      "midi": 42,
      "hit": false,
      "t": 239047.63100000413,
      "d": 7.936508333339589,
      "v": 100
    },
    {
      "midi": 50,
      "hit": false,
      "t": 239523.82150000025,
      "d": 79.36508333333768,
      "v": 100
    },
    {
      "midi": 66,
      "hit": false,
      "t": 239523.82150000025,
      "d": 79.36508333333768,
      "v": 100
    },
    {
      "midi": 62,
      "hit": false,
      "t": 239523.82150000025,
      "d": 79.36508333333768,
      "v": 100
    },
    {
      "midi": 57,
      "hit": false,
      "t": 239523.82150000025,
      "d": 79.36508333333768,
      "v": 100
    },
    {
      "midi": 42,
      "hit": false,
      "t": 239523.82150000412,
      "d": 7.936508333339589,
      "v": 100
    },
    {
      "midi": 50,
      "hit": false,
      "t": 239761.91675000027,
      "d": 79.36508333333768,
      "v": 100
    },
    {
      "midi": 57,
      "hit": false,
      "t": 239761.91675000027,
      "d": 79.36508333333768,
      "v": 100
    },
    {
      "midi": 62,
      "hit": false,
      "t": 239761.91675000027,
      "d": 79.36508333333768,
      "v": 100
    },
    {
      "midi": 66,
      "hit": false,
      "t": 239761.91675000027,
      "d": 79.36508333333768,
      "v": 100
    },
    {
      "midi": 57,
      "hit": false,
      "t": 240000.01200000028,
      "d": 674.6032083333412,
      "v": 115
    },
    {
      "midi": 66,
      "hit": false,
      "t": 240000.01200000028,
      "d": 674.6032083333412,
      "v": 115
    },
    {
      "midi": 62,
      "hit": false,
      "t": 240000.01200000028,
      "d": 674.6032083333412,
      "v": 120
    },
    {
      "midi": 48,
      "hit": false,
      "t": 240000.01200000028,
      "d": 714.28575000001,
      "v": 127
    },
    {
      "midi": 2,
      "hit": false,
      "t": 240000.01200000412,
      "d": 7.936508333339589,
      "v": 120
    },
    {
      "midi": 42,
      "hit": false,
      "t": 240000.01200000412,
      "d": 7.936508333339589,
      "v": 115
    },
    {
      "midi": 42,
      "hit": false,
      "t": 240476.20250000412,
      "d": 7.936508333339589,
      "v": 100
    },
    {
      "midi": 48,
      "hit": false,
      "t": 240952.3930000003,
      "d": 23.809524999989662,
      "v": 127
    },
    {
      "midi": 57,
      "hit": false,
      "t": 240952.3930000003,
      "d": 23.809524999989662,
      "v": 115
    },
    {
      "midi": 66,
      "hit": false,
      "t": 240952.3930000003,
      "d": 23.809524999989662,
      "v": 115
    },
    {
      "midi": 62,
      "hit": false,
      "t": 240952.3930000003,
      "d": 23.809524999989662,
      "v": 120
    },
    {
      "midi": 2,
      "hit": false,
      "t": 240952.39300000411,
      "d": 7.936508333339589,
      "v": 112
    },
    {
      "midi": 42,
      "hit": false,
      "t": 240952.39300000411,
      "d": 7.936508333339589,
      "v": 100
    },
    {
      "midi": 48,
      "hit": false,
      "t": 241428.5835000003,
      "d": 79.36508333333768,
      "v": 120
    },
    {
      "midi": 66,
      "hit": false,
      "t": 241428.5835000003,
      "d": 79.36508333333768,
      "v": 115
    },
    {
      "midi": 62,
      "hit": false,
      "t": 241428.5835000003,
      "d": 79.36508333333768,
      "v": 120
    },
    {
      "midi": 57,
      "hit": false,
      "t": 241428.5835000003,
      "d": 79.36508333333768,
      "v": 115
    },
    {
      "midi": 48,
      "hit": false,
      "t": 241666.6787500003,
      "d": 79.36508333333768,
      "v": 120
    },
    {
      "midi": 66,
      "hit": false,
      "t": 241666.6787500003,
      "d": 79.36508333333768,
      "v": 115
    },
    {
      "midi": 62,
      "hit": false,
      "t": 241666.6787500003,
      "d": 79.36508333333768,
      "v": 120
    },
    {
      "midi": 57,
      "hit": false,
      "t": 241666.6787500003,
      "d": 79.36508333333768,
      "v": 115
    },
    {
      "midi": 48,
      "hit": false,
      "t": 241904.77400000033,
      "d": 79.36508333333768,
      "v": 120
    },
    {
      "midi": 66,
      "hit": false,
      "t": 241904.77400000033,
      "d": 79.36508333333768,
      "v": 115
    },
    {
      "midi": 62,
      "hit": false,
      "t": 241904.77400000033,
      "d": 79.36508333333768,
      "v": 120
    },
    {
      "midi": 57,
      "hit": false,
      "t": 241904.77400000033,
      "d": 79.36508333333768,
      "v": 115
    },
    {
      "midi": 2,
      "hit": false,
      "t": 241904.7740000041,
      "d": 7.936508333339589,
      "v": 112
    },
    {
      "midi": 42,
      "hit": false,
      "t": 241904.7740000041,
      "d": 7.936508333339589,
      "v": 115
    },
    {
      "midi": 48,
      "hit": false,
      "t": 242142.86925000034,
      "d": 79.36508333333768,
      "v": 120
    },
    {
      "midi": 66,
      "hit": false,
      "t": 242142.86925000034,
      "d": 79.36508333333768,
      "v": 115
    },
    {
      "midi": 62,
      "hit": false,
      "t": 242142.86925000034,
      "d": 79.36508333333768,
      "v": 120
    },
    {
      "midi": 57,
      "hit": false,
      "t": 242142.86925000034,
      "d": 79.36508333333768,
      "v": 115
    },
    {
      "midi": 48,
      "hit": false,
      "t": 242380.96450000035,
      "d": 436.50795833332813,
      "v": 120
    },
    {
      "midi": 66,
      "hit": false,
      "t": 242380.96450000035,
      "d": 436.50795833332813,
      "v": 115
    },
    {
      "midi": 62,
      "hit": false,
      "t": 242380.96450000035,
      "d": 436.50795833332813,
      "v": 120
    },
    {
      "midi": 57,
      "hit": false,
      "t": 242380.96450000035,
      "d": 436.50795833332813,
      "v": 115
    },
    {
      "midi": 42,
      "hit": false,
      "t": 242380.9645000041,
      "d": 7.936508333339589,
      "v": 100
    },
    {
      "midi": 48,
      "hit": false,
      "t": 242857.15500000035,
      "d": 436.50795833332813,
      "v": 120
    },
    {
      "midi": 66,
      "hit": false,
      "t": 242857.15500000035,
      "d": 436.50795833332813,
      "v": 115
    },
    {
      "midi": 62,
      "hit": false,
      "t": 242857.15500000035,
      "d": 436.50795833332813,
      "v": 120
    },
    {
      "midi": 57,
      "hit": false,
      "t": 242857.15500000035,
      "d": 436.50795833332813,
      "v": 115
    },
    {
      "midi": 2,
      "hit": false,
      "t": 242857.1550000041,
      "d": 7.936508333339589,
      "v": 112
    },
    {
      "midi": 42,
      "hit": false,
      "t": 242857.1550000041,
      "d": 7.936508333339589,
      "v": 100
    },
    {
      "midi": 48,
      "hit": false,
      "t": 243333.34550000035,
      "d": 79.36508333333768,
      "v": 120
    },
    {
      "midi": 66,
      "hit": false,
      "t": 243571.44075000036,
      "d": 23.809524999989662,
      "v": 115
    },
    {
      "midi": 57,
      "hit": false,
      "t": 243571.44075000036,
      "d": 23.809524999989662,
      "v": 115
    },
    {
      "midi": 62,
      "hit": false,
      "t": 243571.44075000036,
      "d": 23.809524999989662,
      "v": 120
    },
    {
      "midi": 48,
      "hit": false,
      "t": 243571.44075000036,
      "d": 79.36508333330858,
      "v": 120
    },
    {
      "midi": 66,
      "hit": false,
      "t": 243809.53600000034,
      "d": 23.809524999989662,
      "v": 115
    },
    {
      "midi": 62,
      "hit": false,
      "t": 243809.53600000034,
      "d": 23.809524999989662,
      "v": 115
    },
    {
      "midi": 57,
      "hit": false,
      "t": 243809.53600000034,
      "d": 23.809524999989662,
      "v": 115
    },
    {
      "midi": 47,
      "hit": false,
      "t": 243809.53600000034,
      "d": 714.2857499999809,
      "v": 127
    },
    {
      "midi": 2,
      "hit": false,
      "t": 243809.5360000041,
      "d": 7.936508333339589,
      "v": 120
    },
    {
      "midi": 42,
      "hit": false,
      "t": 243809.5360000041,
      "d": 7.936508333339589,
      "v": 115
    },
    {
      "midi": 42,
      "hit": false,
      "t": 244285.7265000041,
      "d": 7.936508333339589,
      "v": 100
    },
    {
      "midi": 47,
      "hit": false,
      "t": 244761.91700000034,
      "d": 23.809524999989662,
      "v": 127
    },
    {
      "midi": 57,
      "hit": false,
      "t": 244761.91700000034,
      "d": 23.809524999989662,
      "v": 115
    },
    {
      "midi": 66,
      "hit": false,
      "t": 244761.91700000034,
      "d": 23.809524999989662,
      "v": 115
    },
    {
      "midi": 62,
      "hit": false,
      "t": 244761.91700000034,
      "d": 23.809524999989662,
      "v": 115
    },
    {
      "midi": 2,
      "hit": false,
      "t": 244761.9170000041,
      "d": 7.936508333339589,
      "v": 112
    },
    {
      "midi": 42,
      "hit": false,
      "t": 244761.9170000041,
      "d": 7.936508333339589,
      "v": 100
    },
    {
      "midi": 47,
      "hit": false,
      "t": 245238.10750000033,
      "d": 79.36508333333768,
      "v": 120
    },
    {
      "midi": 66,
      "hit": false,
      "t": 245238.10750000033,
      "d": 79.36508333333768,
      "v": 115
    },
    {
      "midi": 62,
      "hit": false,
      "t": 245238.10750000033,
      "d": 79.36508333333768,
      "v": 115
    },
    {
      "midi": 57,
      "hit": false,
      "t": 245238.10750000033,
      "d": 79.36508333333768,
      "v": 115
    },
    {
      "midi": 47,
      "hit": false,
      "t": 245476.20275000035,
      "d": 79.36508333333768,
      "v": 120
    },
    {
      "midi": 57,
      "hit": false,
      "t": 245476.20275000035,
      "d": 79.36508333333768,
      "v": 115
    },
    {
      "midi": 62,
      "hit": false,
      "t": 245476.20275000035,
      "d": 79.36508333333768,
      "v": 115
    },
    {
      "midi": 66,
      "hit": false,
      "t": 245476.20275000035,
      "d": 79.36508333333768,
      "v": 115
    },
    {
      "midi": 47,
      "hit": false,
      "t": 245714.29800000036,
      "d": 79.36508333333768,
      "v": 120
    },
    {
      "midi": 66,
      "hit": false,
      "t": 245714.29800000036,
      "d": 79.36508333333768,
      "v": 115
    },
    {
      "midi": 62,
      "hit": false,
      "t": 245714.29800000036,
      "d": 79.36508333333768,
      "v": 115
    },
    {
      "midi": 57,
      "hit": false,
      "t": 245714.29800000036,
      "d": 79.36508333333768,
      "v": 115
    },
    {
      "midi": 2,
      "hit": false,
      "t": 245714.29800000408,
      "d": 7.936508333339589,
      "v": 112
    },
    {
      "midi": 42,
      "hit": false,
      "t": 245714.29800000408,
      "d": 7.936508333339589,
      "v": 115
    },
    {
      "midi": 47,
      "hit": false,
      "t": 245952.39325000037,
      "d": 79.36508333333768,
      "v": 120
    },
    {
      "midi": 57,
      "hit": false,
      "t": 245952.39325000037,
      "d": 79.36508333333768,
      "v": 115
    },
    {
      "midi": 62,
      "hit": false,
      "t": 245952.39325000037,
      "d": 79.36508333333768,
      "v": 115
    },
    {
      "midi": 66,
      "hit": false,
      "t": 245952.39325000037,
      "d": 79.36508333333768,
      "v": 115
    },
    {
      "midi": 47,
      "hit": false,
      "t": 246190.48850000039,
      "d": 436.50795833332813,
      "v": 120
    },
    {
      "midi": 66,
      "hit": false,
      "t": 246190.48850000039,
      "d": 436.50795833332813,
      "v": 115
    },
    {
      "midi": 62,
      "hit": false,
      "t": 246190.48850000039,
      "d": 436.50795833332813,
      "v": 115
    },
    {
      "midi": 57,
      "hit": false,
      "t": 246190.48850000039,
      "d": 436.50795833332813,
      "v": 115
    },
    {
      "midi": 42,
      "hit": false,
      "t": 246190.48850000408,
      "d": 7.936508333339589,
      "v": 100
    },
    {
      "midi": 47,
      "hit": false,
      "t": 246666.67900000038,
      "d": 79.36508333333768,
      "v": 120
    },
    {
      "midi": 66,
      "hit": false,
      "t": 246666.67900000038,
      "d": 79.36508333333768,
      "v": 115
    },
    {
      "midi": 62,
      "hit": false,
      "t": 246666.67900000038,
      "d": 79.36508333333768,
      "v": 115
    },
    {
      "midi": 57,
      "hit": false,
      "t": 246666.67900000038,
      "d": 79.36508333333768,
      "v": 115
    },
    {
      "midi": 2,
      "hit": false,
      "t": 246666.67900000408,
      "d": 7.936508333339589,
      "v": 112
    },
    {
      "midi": 42,
      "hit": false,
      "t": 246666.67900000408,
      "d": 7.936508333339589,
      "v": 100
    },
    {
      "midi": 46,
      "hit": false,
      "t": 247142.86950000038,
      "d": 436.50795833332813,
      "v": 120
    },
    {
      "midi": 65,
      "hit": false,
      "t": 247142.86950000038,
      "d": 436.50795833332813,
      "v": 115
    },
    {
      "midi": 62,
      "hit": false,
      "t": 247142.86950000038,
      "d": 436.50795833332813,
      "v": 115
    },
    {
      "midi": 57,
      "hit": false,
      "t": 247142.86950000038,
      "d": 436.50795833332813,
      "v": 115
    },
    {
      "midi": 46,
      "hit": false,
      "t": 247619.06000000038,
      "d": 79.36508333333768,
      "v": 120
    },
    {
      "midi": 65,
      "hit": false,
      "t": 247619.06000000038,
      "d": 79.36508333333768,
      "v": 120
    },
    {
      "midi": 62,
      "hit": false,
      "t": 247619.06000000038,
      "d": 79.36508333333768,
      "v": 120
    },
    {
      "midi": 57,
      "hit": false,
      "t": 247619.06000000038,
      "d": 79.36508333333768,
      "v": 120
    },
    {
      "midi": 2,
      "hit": false,
      "t": 247619.06000000407,
      "d": 7.936508333339589,
      "v": 120
    },
    {
      "midi": 42,
      "hit": false,
      "t": 247619.06000000407,
      "d": 7.936508333339589,
      "v": 115
    },
    {
      "midi": 46,
      "hit": false,
      "t": 248095.25050000037,
      "d": 436.50795833332813,
      "v": 120
    },
    {
      "midi": 65,
      "hit": false,
      "t": 248095.25050000037,
      "d": 436.50795833332813,
      "v": 115
    },
    {
      "midi": 62,
      "hit": false,
      "t": 248095.25050000037,
      "d": 436.50795833332813,
      "v": 115
    },
    {
      "midi": 57,
      "hit": false,
      "t": 248095.25050000037,
      "d": 436.50795833332813,
      "v": 115
    },
    {
      "midi": 42,
      "hit": false,
      "t": 248095.25050000407,
      "d": 7.936508333339589,
      "v": 100
    },
    {
      "midi": 46,
      "hit": false,
      "t": 248571.44100000037,
      "d": 79.36508333333768,
      "v": 120
    },
    {
      "midi": 65,
      "hit": false,
      "t": 248571.44100000037,
      "d": 79.36508333333768,
      "v": 120
    },
    {
      "midi": 62,
      "hit": false,
      "t": 248571.44100000037,
      "d": 79.36508333333768,
      "v": 120
    },
    {
      "midi": 57,
      "hit": false,
      "t": 248571.44100000037,
      "d": 79.36508333333768,
      "v": 120
    },
    {
      "midi": 2,
      "hit": false,
      "t": 248571.44100000407,
      "d": 7.936508333339589,
      "v": 112
    },
    {
      "midi": 42,
      "hit": false,
      "t": 248571.44100000407,
      "d": 7.936508333339589,
      "v": 100
    },
    {
      "midi": 57,
      "hit": false,
      "t": 248809.53625000038,
      "d": 79.36508333333768,
      "v": 120
    },
    {
      "midi": 46,
      "hit": false,
      "t": 248809.53625000038,
      "d": 79.36508333333768,
      "v": 120
    },
    {
      "midi": 65,
      "hit": false,
      "t": 248809.53625000038,
      "d": 79.36508333333768,
      "v": 120
    },
    {
      "midi": 62,
      "hit": false,
      "t": 248809.53625000038,
      "d": 79.36508333333768,
      "v": 120
    },
    {
      "midi": 52,
      "hit": false,
      "t": 249047.6315000004,
      "d": 928.5714750000043,
      "v": 115
    },
    {
      "midi": 57,
      "hit": false,
      "t": 249047.6315000004,
      "d": 928.5714750000043,
      "v": 115
    },
    {
      "midi": 64,
      "hit": false,
      "t": 249047.6315000004,
      "d": 928.5714750000043,
      "v": 115
    },
    {
      "midi": 61,
      "hit": false,
      "t": 249047.6315000004,
      "d": 928.5714750000043,
      "v": 115
    },
    {
      "midi": 43,
      "hit": false,
      "t": 249047.6315000004,
      "d": 936.5079833333439,
      "v": 120
    },
    {
      "midi": 2,
      "hit": false,
      "t": 249523.82200000406,
      "d": 7.936508333339589,
      "v": 112
    },
    {
      "midi": 42,
      "hit": false,
      "t": 249523.82200000406,
      "d": 7.936508333339589,
      "v": 115
    },
    {
      "midi": 40,
      "hit": false,
      "t": 249523.82200000406,
      "d": 7.936508333339589,
      "v": 127
    },
    {
      "midi": 33,
      "hit": false,
      "t": 250000.01250000062,
      "d": 412.69843333333847,
      "v": 125
    },
    {
      "midi": 42,
      "hit": false,
      "t": 250000.01250000406,
      "d": 7.936508333339589,
      "v": 100
    },
    {
      "midi": 47,
      "hit": false,
      "t": 250000.01250000406,
      "d": 7.936508333339589,
      "v": 127
    },
    {
      "midi": 43,
      "hit": false,
      "t": 250238.10775000043,
      "d": 23.809524999989662,
      "v": 120
    },
    {
      "midi": 52,
      "hit": false,
      "t": 250238.10775000043,
      "d": 23.809524999989662,
      "v": 115
    },
    {
      "midi": 64,
      "hit": false,
      "t": 250238.10775000043,
      "d": 23.809524999989662,
      "v": 115
    },
    {
      "midi": 57,
      "hit": false,
      "t": 250238.10775000043,
      "d": 23.809524999989662,
      "v": 115
    },
    {
      "midi": 61,
      "hit": false,
      "t": 250238.10775000043,
      "d": 23.809524999989662,
      "v": 115
    },
    {
      "midi": 61,
      "hit": false,
      "t": 250476.20300000042,
      "d": 23.809524999989662,
      "v": 120
    },
    {
      "midi": 57,
      "hit": false,
      "t": 250476.20300000042,
      "d": 23.809524999989662,
      "v": 120
    },
    {
      "midi": 43,
      "hit": false,
      "t": 250476.20300000042,
      "d": 23.809524999989662,
      "v": 120
    },
    {
      "midi": 52,
      "hit": false,
      "t": 250476.20300000042,
      "d": 23.809524999989662,
      "v": 120
    },
    {
      "midi": 64,
      "hit": false,
      "t": 250476.20300000042,
      "d": 23.809524999989662,
      "v": 120
    },
    {
      "midi": 35,
      "hit": false,
      "t": 250476.20300000062,
      "d": 912.6984583332378,
      "v": 127
    },
    {
      "midi": 2,
      "hit": false,
      "t": 250476.20300000405,
      "d": 7.936508333339589,
      "v": 112
    },
    {
      "midi": 42,
      "hit": false,
      "t": 250476.20300000405,
      "d": 7.936508333339589,
      "v": 100
    },
    {
      "midi": 40,
      "hit": false,
      "t": 250476.20300000405,
      "d": 7.936508333339589,
      "v": 127
    },
    {
      "midi": 40,
      "hit": false,
      "t": 250714.29825000407,
      "d": 7.936508333339589,
      "v": 127
    },
    {
      "midi": 43,
      "hit": false,
      "t": 250952.39350000056,
      "d": 79.36508333333768,
      "v": 120
    },
    {
      "midi": 57,
      "hit": false,
      "t": 250952.39350000056,
      "d": 79.36508333333768,
      "v": 120
    },
    {
      "midi": 64,
      "hit": false,
      "t": 250952.39350000056,
      "d": 79.36508333333768,
      "v": 120
    },
    {
      "midi": 61,
      "hit": false,
      "t": 250952.39350000056,
      "d": 79.36508333333768,
      "v": 120
    },
    {
      "midi": 52,
      "hit": false,
      "t": 250952.39350000056,
      "d": 79.36508333333768,
      "v": 120
    },
    {
      "midi": 45,
      "hit": false,
      "t": 250952.39350000408,
      "d": 7.936508333339589,
      "v": 127
    },
    {
      "midi": 43,
      "hit": false,
      "t": 251190.48875000057,
      "d": 79.36508333333768,
      "v": 120
    },
    {
      "midi": 64,
      "hit": false,
      "t": 251190.48875000057,
      "d": 79.36508333333768,
      "v": 120
    },
    {
      "midi": 57,
      "hit": false,
      "t": 251190.48875000057,
      "d": 79.36508333333768,
      "v": 120
    },
    {
      "midi": 61,
      "hit": false,
      "t": 251190.48875000057,
      "d": 79.36508333333768,
      "v": 120
    },
    {
      "midi": 52,
      "hit": false,
      "t": 251190.48875000057,
      "d": 79.36508333333768,
      "v": 120
    },
    {
      "midi": 62,
      "hit": false,
      "t": 251412.7109833325,
      "d": 3730.158916666667,
      "v": 100
    },
    {
      "midi": 50,
      "hit": false,
      "t": 251412.7109833325,
      "d": 3730.158916666667,
      "v": 100
    },
    {
      "midi": 55,
      "hit": false,
      "t": 251412.7109833325,
      "d": 3730.158916666667,
      "v": 100
    },
    {
      "midi": 57,
      "hit": false,
      "t": 251412.7109833325,
      "d": 3730.158916666667,
      "v": 100
    },
    {
      "midi": 43,
      "hit": false,
      "t": 251428.58399999997,
      "d": 396.8254166666593,
      "v": 115
    },
    {
      "midi": 50,
      "hit": false,
      "t": 251428.58399999997,
      "d": 396.8254166666593,
      "v": 115
    },
    {
      "midi": 62,
      "hit": false,
      "t": 251428.58399999997,
      "d": 396.8254166666593,
      "v": 115
    },
    {
      "midi": 57,
      "hit": false,
      "t": 251428.58399999997,
      "d": 396.8254166666593,
      "v": 115
    },
    {
      "midi": 45,
      "hit": false,
      "t": 251428.58399999997,
      "d": 396.8254166666593,
      "v": 115
    },
    {
      "midi": 31,
      "hit": false,
      "t": 251428.58400000053,
      "d": 412.69843333333847,
      "v": 115
    },
    {
      "midi": 43,
      "hit": false,
      "t": 251428.58400000058,
      "d": 436.50795833332813,
      "v": 115
    },
    {
      "midi": 50,
      "hit": false,
      "t": 251428.58400000058,
      "d": 436.50795833332813,
      "v": 115
    },
    {
      "midi": 2,
      "hit": false,
      "t": 251428.58400000408,
      "d": 7.936508333339589,
      "v": 120
    },
    {
      "midi": 57,
      "hit": false,
      "t": 251428.58400000408,
      "d": 7.936508333339589,
      "v": 100
    },
    {
      "midi": 43,
      "hit": false,
      "t": 251904.77449999997,
      "d": 198.4127083333442,
      "v": 115
    },
    {
      "midi": 50,
      "hit": false,
      "t": 251904.77449999997,
      "d": 198.4127083333442,
      "v": 115
    },
    {
      "midi": 62,
      "hit": false,
      "t": 251904.77449999997,
      "d": 198.4127083333442,
      "v": 115
    },
    {
      "midi": 57,
      "hit": false,
      "t": 251904.77449999997,
      "d": 198.4127083333442,
      "v": 115
    },
    {
      "midi": 45,
      "hit": false,
      "t": 251904.77449999997,
      "d": 198.4127083333442,
      "v": 115
    },
    {
      "midi": 31,
      "hit": false,
      "t": 251904.77450000052,
      "d": 412.69843333333847,
      "v": 110
    },
    {
      "midi": 43,
      "hit": false,
      "t": 251904.77450000058,
      "d": 79.36508333333768,
      "v": 100
    },
    {
      "midi": 50,
      "hit": false,
      "t": 251904.77450000058,
      "d": 79.36508333333768,
      "v": 100
    },
    {
      "midi": 42,
      "hit": false,
      "t": 251904.77450000407,
      "d": 7.936508333339589,
      "v": 100
    },
    {
      "midi": 43,
      "hit": false,
      "t": 252142.86974999998,
      "d": 198.4127083333442,
      "v": 115
    },
    {
      "midi": 50,
      "hit": false,
      "t": 252142.86974999998,
      "d": 198.4127083333442,
      "v": 115
    },
    {
      "midi": 62,
      "hit": false,
      "t": 252142.86974999998,
      "d": 198.4127083333442,
      "v": 115
    },
    {
      "midi": 57,
      "hit": false,
      "t": 252142.86974999998,
      "d": 198.4127083333442,
      "v": 115
    },
    {
      "midi": 45,
      "hit": false,
      "t": 252142.86974999998,
      "d": 198.4127083333442,
      "v": 115
    },
    {
      "midi": 43,
      "hit": false,
      "t": 252380.965,
      "d": 396.8254166666593,
      "v": 115
    },
    {
      "midi": 50,
      "hit": false,
      "t": 252380.965,
      "d": 396.8254166666593,
      "v": 115
    },
    {
      "midi": 62,
      "hit": false,
      "t": 252380.965,
      "d": 396.8254166666593,
      "v": 115
    },
    {
      "midi": 57,
      "hit": false,
      "t": 252380.965,
      "d": 396.8254166666593,
      "v": 115
    },
    {
      "midi": 45,
      "hit": false,
      "t": 252380.965,
      "d": 396.8254166666593,
      "v": 115
    },
    {
      "midi": 71,
      "hit": false,
      "t": 252380.96500000032,
      "d": 873.0159166666563,
      "v": 112
    },
    {
      "midi": 31,
      "hit": false,
      "t": 252380.96500000052,
      "d": 412.69843333333847,
      "v": 110
    },
    {
      "midi": 43,
      "hit": false,
      "t": 252380.96500000058,
      "d": 79.36508333333768,
      "v": 100
    },
    {
      "midi": 50,
      "hit": false,
      "t": 252380.96500000058,
      "d": 79.36508333333768,
      "v": 100
    },
    {
      "midi": 40,
      "hit": false,
      "t": 252380.96500000407,
      "d": 7.936508333339589,
      "v": 127
    },
    {
      "midi": 42,
      "hit": false,
      "t": 252380.96500000407,
      "d": 7.936508333339589,
      "v": 100
    },
    {
      "midi": 43,
      "hit": false,
      "t": 252857.1555,
      "d": 198.4127083333442,
      "v": 115
    },
    {
      "midi": 50,
      "hit": false,
      "t": 252857.1555,
      "d": 198.4127083333442,
      "v": 115
    },
    {
      "midi": 62,
      "hit": false,
      "t": 252857.1555,
      "d": 198.4127083333442,
      "v": 115
    },
    {
      "midi": 57,
      "hit": false,
      "t": 252857.1555,
      "d": 198.4127083333442,
      "v": 115
    },
    {
      "midi": 45,
      "hit": false,
      "t": 252857.1555,
      "d": 198.4127083333442,
      "v": 115
    },
    {
      "midi": 31,
      "hit": false,
      "t": 252857.15550000052,
      "d": 412.69843333333847,
      "v": 110
    },
    {
      "midi": 43,
      "hit": false,
      "t": 252857.15550000058,
      "d": 79.36508333333768,
      "v": 100
    },
    {
      "midi": 50,
      "hit": false,
      "t": 252857.15550000058,
      "d": 79.36508333333768,
      "v": 100
    },
    {
      "midi": 42,
      "hit": false,
      "t": 252857.15550000407,
      "d": 7.936508333339589,
      "v": 100
    },
    {
      "midi": 43,
      "hit": false,
      "t": 253095.25075,
      "d": 198.4127083333442,
      "v": 115
    },
    {
      "midi": 50,
      "hit": false,
      "t": 253095.25075,
      "d": 198.4127083333442,
      "v": 115
    },
    {
      "midi": 62,
      "hit": false,
      "t": 253095.25075,
      "d": 198.4127083333442,
      "v": 115
    },
    {
      "midi": 57,
      "hit": false,
      "t": 253095.25075,
      "d": 198.4127083333442,
      "v": 115
    },
    {
      "midi": 45,
      "hit": false,
      "t": 253095.25075,
      "d": 198.4127083333442,
      "v": 115
    },
    {
      "midi": 43,
      "hit": false,
      "t": 253333.34600000002,
      "d": 396.8254166666593,
      "v": 115
    },
    {
      "midi": 50,
      "hit": false,
      "t": 253333.34600000002,
      "d": 396.8254166666593,
      "v": 115
    },
    {
      "midi": 62,
      "hit": false,
      "t": 253333.34600000002,
      "d": 396.8254166666593,
      "v": 115
    },
    {
      "midi": 57,
      "hit": false,
      "t": 253333.34600000002,
      "d": 396.8254166666593,
      "v": 115
    },
    {
      "midi": 45,
      "hit": false,
      "t": 253333.34600000002,
      "d": 396.8254166666593,
      "v": 115
    },
    {
      "midi": 71,
      "hit": false,
      "t": 253333.3460000003,
      "d": 674.6032083333412,
      "v": 112
    },
    {
      "midi": 31,
      "hit": false,
      "t": 253333.3460000005,
      "d": 412.69843333333847,
      "v": 110
    },
    {
      "midi": 43,
      "hit": false,
      "t": 253333.34600000057,
      "d": 79.36508333333768,
      "v": 100
    },
    {
      "midi": 50,
      "hit": false,
      "t": 253333.34600000057,
      "d": 79.36508333333768,
      "v": 100
    },
    {
      "midi": 2,
      "hit": false,
      "t": 253333.34600000406,
      "d": 7.936508333339589,
      "v": 120
    },
    {
      "midi": 42,
      "hit": false,
      "t": 253333.34600000406,
      "d": 7.936508333339589,
      "v": 100
    },
    {
      "midi": 43,
      "hit": false,
      "t": 253809.53650000002,
      "d": 198.4127083333442,
      "v": 115
    },
    {
      "midi": 50,
      "hit": false,
      "t": 253809.53650000002,
      "d": 198.4127083333442,
      "v": 115
    },
    {
      "midi": 62,
      "hit": false,
      "t": 253809.53650000002,
      "d": 198.4127083333442,
      "v": 115
    },
    {
      "midi": 57,
      "hit": false,
      "t": 253809.53650000002,
      "d": 198.4127083333442,
      "v": 115
    },
    {
      "midi": 45,
      "hit": false,
      "t": 253809.53650000002,
      "d": 198.4127083333442,
      "v": 115
    },
    {
      "midi": 31,
      "hit": false,
      "t": 253809.5365000005,
      "d": 412.69843333333847,
      "v": 110
    },
    {
      "midi": 43,
      "hit": false,
      "t": 253809.53650000057,
      "d": 79.36508333333768,
      "v": 100
    },
    {
      "midi": 50,
      "hit": false,
      "t": 253809.53650000057,
      "d": 79.36508333333768,
      "v": 100
    },
    {
      "midi": 42,
      "hit": false,
      "t": 253809.53650000406,
      "d": 7.936508333339589,
      "v": 100
    },
    {
      "midi": 43,
      "hit": false,
      "t": 254047.63175000003,
      "d": 198.4127083333442,
      "v": 115
    },
    {
      "midi": 50,
      "hit": false,
      "t": 254047.63175000003,
      "d": 198.4127083333442,
      "v": 115
    },
    {
      "midi": 62,
      "hit": false,
      "t": 254047.63175000003,
      "d": 198.4127083333442,
      "v": 115
    },
    {
      "midi": 57,
      "hit": false,
      "t": 254047.63175000003,
      "d": 198.4127083333442,
      "v": 115
    },
    {
      "midi": 45,
      "hit": false,
      "t": 254047.63175000003,
      "d": 198.4127083333442,
      "v": 115
    },
    {
      "midi": 73,
      "hit": false,
      "t": 254047.63175000032,
      "d": 674.6032083333412,
      "v": 112
    },
    {
      "midi": 43,
      "hit": false,
      "t": 254285.72700000004,
      "d": 396.8254166666593,
      "v": 115
    },
    {
      "midi": 50,
      "hit": false,
      "t": 254285.72700000004,
      "d": 396.8254166666593,
      "v": 115
    },
    {
      "midi": 62,
      "hit": false,
      "t": 254285.72700000004,
      "d": 396.8254166666593,
      "v": 115
    },
    {
      "midi": 57,
      "hit": false,
      "t": 254285.72700000004,
      "d": 396.8254166666593,
      "v": 115
    },
    {
      "midi": 45,
      "hit": false,
      "t": 254285.72700000004,
      "d": 396.8254166666593,
      "v": 115
    },
    {
      "midi": 31,
      "hit": false,
      "t": 254285.7270000005,
      "d": 412.69843333333847,
      "v": 110
    },
    {
      "midi": 43,
      "hit": false,
      "t": 254285.72700000057,
      "d": 79.36508333333768,
      "v": 100
    },
    {
      "midi": 50,
      "hit": false,
      "t": 254285.72700000057,
      "d": 79.36508333333768,
      "v": 100
    },
    {
      "midi": 40,
      "hit": false,
      "t": 254285.72700000406,
      "d": 7.936508333339589,
      "v": 127
    },
    {
      "midi": 42,
      "hit": false,
      "t": 254285.72700000406,
      "d": 7.936508333339589,
      "v": 100
    },
    {
      "midi": 43,
      "hit": false,
      "t": 254761.91750000004,
      "d": 198.4127083333442,
      "v": 115
    },
    {
      "midi": 50,
      "hit": false,
      "t": 254761.91750000004,
      "d": 198.4127083333442,
      "v": 115
    },
    {
      "midi": 62,
      "hit": false,
      "t": 254761.91750000004,
      "d": 198.4127083333442,
      "v": 115
    },
    {
      "midi": 57,
      "hit": false,
      "t": 254761.91750000004,
      "d": 198.4127083333442,
      "v": 115
    },
    {
      "midi": 45,
      "hit": false,
      "t": 254761.91750000004,
      "d": 198.4127083333442,
      "v": 115
    },
    {
      "midi": 74,
      "hit": false,
      "t": 254761.91750000033,
      "d": 436.50795833332813,
      "v": 112
    },
    {
      "midi": 31,
      "hit": false,
      "t": 254761.9175000005,
      "d": 412.69843333333847,
      "v": 110
    },
    {
      "midi": 43,
      "hit": false,
      "t": 254761.91750000056,
      "d": 79.36508333333768,
      "v": 100
    },
    {
      "midi": 50,
      "hit": false,
      "t": 254761.91750000056,
      "d": 79.36508333333768,
      "v": 100
    },
    {
      "midi": 42,
      "hit": false,
      "t": 254761.91750000406,
      "d": 7.936508333339589,
      "v": 100
    },
    {
      "midi": 43,
      "hit": false,
      "t": 255000.01275000005,
      "d": 198.4127083333442,
      "v": 115
    },
    {
      "midi": 50,
      "hit": false,
      "t": 255000.01275000005,
      "d": 198.4127083333442,
      "v": 115
    },
    {
      "midi": 62,
      "hit": false,
      "t": 255000.01275000005,
      "d": 198.4127083333442,
      "v": 115
    },
    {
      "midi": 57,
      "hit": false,
      "t": 255000.01275000005,
      "d": 198.4127083333442,
      "v": 115
    },
    {
      "midi": 45,
      "hit": false,
      "t": 255000.01275000005,
      "d": 198.4127083333442,
      "v": 115
    },
    {
      "midi": 54,
      "hit": false,
      "t": 255222.2349833325,
      "d": 436.50795833332813,
      "v": 110
    },
    {
      "midi": 57,
      "hit": false,
      "t": 255222.2349833325,
      "d": 436.50795833332813,
      "v": 110
    },
    {
      "midi": 62,
      "hit": false,
      "t": 255222.2349833325,
      "d": 436.50795833332813,
      "v": 110
    },
    {
      "midi": 50,
      "hit": false,
      "t": 255238.10800000007,
      "d": 396.8254166666593,
      "v": 115
    },
    {
      "midi": 66,
      "hit": false,
      "t": 255238.10800000007,
      "d": 396.8254166666593,
      "v": 115
    },
    {
      "midi": 62,
      "hit": false,
      "t": 255238.10800000007,
      "d": 396.8254166666593,
      "v": 115
    },
    {
      "midi": 57,
      "hit": false,
      "t": 255238.10800000007,
      "d": 396.8254166666593,
      "v": 115
    },
    {
      "midi": 74,
      "hit": false,
      "t": 255238.10800000033,
      "d": 396.8254166666593,
      "v": 112
    },
    {
      "midi": 38,
      "hit": false,
      "t": 255238.1080000005,
      "d": 412.69843333333847,
      "v": 115
    },
    {
      "midi": 50,
      "hit": false,
      "t": 255238.10800000056,
      "d": 436.50795833332813,
      "v": 115
    },
    {
      "midi": 57,
      "hit": false,
      "t": 255238.10800000056,
      "d": 436.50795833332813,
      "v": 115
    },
    {
      "midi": 2,
      "hit": false,
      "t": 255238.10800000405,
      "d": 7.936508333339589,
      "v": 120
    },
    {
      "midi": 42,
      "hit": false,
      "t": 255238.10800000405,
      "d": 7.936508333339589,
      "v": 115
    },
    {
      "midi": 50,
      "hit": false,
      "t": 255714.29849999916,
      "d": 436.50795833332813,
      "v": 115
    },
    {
      "midi": 50,
      "hit": false,
      "t": 255714.29850000006,
      "d": 396.8254166666593,
      "v": 115
    },
    {
      "midi": 66,
      "hit": false,
      "t": 255714.29850000006,
      "d": 396.8254166666593,
      "v": 115
    },
    {
      "midi": 62,
      "hit": false,
      "t": 255714.29850000006,
      "d": 396.8254166666593,
      "v": 115
    },
    {
      "midi": 57,
      "hit": false,
      "t": 255714.29850000006,
      "d": 396.8254166666593,
      "v": 115
    },
    {
      "midi": 74,
      "hit": false,
      "t": 255714.29850000032,
      "d": 873.0159166666563,
      "v": 112
    },
    {
      "midi": 38,
      "hit": false,
      "t": 255714.2985000005,
      "d": 412.69843333333847,
      "v": 110
    },
    {
      "midi": 50,
      "hit": false,
      "t": 255714.29850000056,
      "d": 79.36508333333768,
      "v": 100
    },
    {
      "midi": 57,
      "hit": false,
      "t": 255714.29850000056,
      "d": 79.36508333333768,
      "v": 100
    },
    {
      "midi": 42,
      "hit": false,
      "t": 255714.29850000405,
      "d": 7.936508333339589,
      "v": 100
    },
    {
      "midi": 52,
      "hit": false,
      "t": 256190.48899999916,
      "d": 436.50795833332813,
      "v": 115
    },
    {
      "midi": 50,
      "hit": false,
      "t": 256190.48900000006,
      "d": 396.8254166666593,
      "v": 115
    },
    {
      "midi": 66,
      "hit": false,
      "t": 256190.48900000006,
      "d": 396.8254166666593,
      "v": 115
    },
    {
      "midi": 62,
      "hit": false,
      "t": 256190.48900000006,
      "d": 396.8254166666593,
      "v": 115
    },
    {
      "midi": 57,
      "hit": false,
      "t": 256190.48900000006,
      "d": 396.8254166666593,
      "v": 115
    },
    {
      "midi": 38,
      "hit": false,
      "t": 256190.4890000005,
      "d": 412.69843333333847,
      "v": 110
    },
    {
      "midi": 50,
      "hit": false,
      "t": 256190.48900000055,
      "d": 79.36508333333768,
      "v": 100
    },
    {
      "midi": 57,
      "hit": false,
      "t": 256190.48900000055,
      "d": 79.36508333333768,
      "v": 100
    },
    {
      "midi": 40,
      "hit": false,
      "t": 256190.48900000405,
      "d": 7.936508333339589,
      "v": 127
    },
    {
      "midi": 42,
      "hit": false,
      "t": 256190.48900000405,
      "d": 7.936508333339589,
      "v": 100
    },
    {
      "midi": 54,
      "hit": false,
      "t": 256666.67949999915,
      "d": 873.0159166666563,
      "v": 115
    },
    {
      "midi": 50,
      "hit": false,
      "t": 256666.67950000006,
      "d": 396.8254166666593,
      "v": 115
    },
    {
      "midi": 66,
      "hit": false,
      "t": 256666.67950000006,
      "d": 396.8254166666593,
      "v": 115
    },
    {
      "midi": 62,
      "hit": false,
      "t": 256666.67950000006,
      "d": 396.8254166666593,
      "v": 115
    },
    {
      "midi": 57,
      "hit": false,
      "t": 256666.67950000006,
      "d": 396.8254166666593,
      "v": 115
    },
    {
      "midi": 69,
      "hit": false,
      "t": 256666.67950000032,
      "d": 436.50795833332813,
      "v": 112
    },
    {
      "midi": 38,
      "hit": false,
      "t": 256666.6795000005,
      "d": 412.69843333333847,
      "v": 110
    },
    {
      "midi": 50,
      "hit": false,
      "t": 256666.67950000055,
      "d": 79.36508333333768,
      "v": 100
    },
    {
      "midi": 57,
      "hit": false,
      "t": 256666.67950000055,
      "d": 79.36508333333768,
      "v": 100
    },
    {
      "midi": 42,
      "hit": false,
      "t": 256666.67950000404,
      "d": 7.936508333339589,
      "v": 100
    },
    {
      "midi": 50,
      "hit": false,
      "t": 257142.87000000005,
      "d": 396.8254166666593,
      "v": 115
    },
    {
      "midi": 66,
      "hit": false,
      "t": 257142.87000000005,
      "d": 396.8254166666593,
      "v": 115
    },
    {
      "midi": 62,
      "hit": false,
      "t": 257142.87000000005,
      "d": 396.8254166666593,
      "v": 115
    },
    {
      "midi": 57,
      "hit": false,
      "t": 257142.87000000005,
      "d": 396.8254166666593,
      "v": 115
    },
    {
      "midi": 69,
      "hit": false,
      "t": 257142.87000000032,
      "d": 952.380999999994,
      "v": 112
    },
    {
      "midi": 38,
      "hit": false,
      "t": 257142.8700000005,
      "d": 412.69843333333847,
      "v": 110
    },
    {
      "midi": 50,
      "hit": false,
      "t": 257142.87000000055,
      "d": 79.36508333333768,
      "v": 100
    },
    {
      "midi": 57,
      "hit": false,
      "t": 257142.87000000055,
      "d": 79.36508333333768,
      "v": 100
    },
    {
      "midi": 2,
      "hit": false,
      "t": 257142.87000000404,
      "d": 7.936508333339589,
      "v": 120
    },
    {
      "midi": 42,
      "hit": false,
      "t": 257142.87000000404,
      "d": 7.936508333339589,
      "v": 115
    },
    {
      "midi": 57,
      "hit": false,
      "t": 257619.06049999915,
      "d": 1349.2064166666532,
      "v": 115
    },
    {
      "midi": 50,
      "hit": false,
      "t": 257619.06050000005,
      "d": 396.8254166666593,
      "v": 115
    },
    {
      "midi": 66,
      "hit": false,
      "t": 257619.06050000005,
      "d": 396.8254166666593,
      "v": 115
    },
    {
      "midi": 62,
      "hit": false,
      "t": 257619.06050000005,
      "d": 396.8254166666593,
      "v": 115
    },
    {
      "midi": 57,
      "hit": false,
      "t": 257619.06050000005,
      "d": 396.8254166666593,
      "v": 115
    },
    {
      "midi": 38,
      "hit": false,
      "t": 257619.0605000005,
      "d": 412.69843333333847,
      "v": 110
    },
    {
      "midi": 50,
      "hit": false,
      "t": 257619.06050000055,
      "d": 79.36508333333768,
      "v": 100
    },
    {
      "midi": 57,
      "hit": false,
      "t": 257619.06050000055,
      "d": 79.36508333333768,
      "v": 100
    },
    {
      "midi": 42,
      "hit": false,
      "t": 257619.06050000404,
      "d": 7.936508333339589,
      "v": 100
    },
    {
      "midi": 50,
      "hit": false,
      "t": 258095.25100000005,
      "d": 396.8254166666593,
      "v": 115
    },
    {
      "midi": 66,
      "hit": false,
      "t": 258095.25100000005,
      "d": 396.8254166666593,
      "v": 115
    },
    {
      "midi": 62,
      "hit": false,
      "t": 258095.25100000005,
      "d": 396.8254166666593,
      "v": 115
    },
    {
      "midi": 57,
      "hit": false,
      "t": 258095.25100000005,
      "d": 396.8254166666593,
      "v": 115
    },
    {
      "midi": 38,
      "hit": false,
      "t": 258095.25100000048,
      "d": 412.69843333333847,
      "v": 110
    },
    {
      "midi": 50,
      "hit": false,
      "t": 258095.25100000054,
      "d": 79.36508333333768,
      "v": 100
    },
    {
      "midi": 57,
      "hit": false,
      "t": 258095.25100000054,
      "d": 79.36508333333768,
      "v": 100
    },
    {
      "midi": 40,
      "hit": false,
      "t": 258095.25100000403,
      "d": 7.936508333339589,
      "v": 127
    },
    {
      "midi": 42,
      "hit": false,
      "t": 258095.25100000403,
      "d": 7.936508333339589,
      "v": 100
    },
    {
      "midi": 50,
      "hit": false,
      "t": 258571.44150000004,
      "d": 396.8254166666593,
      "v": 115
    },
    {
      "midi": 66,
      "hit": false,
      "t": 258571.44150000004,
      "d": 396.8254166666593,
      "v": 115
    },
    {
      "midi": 62,
      "hit": false,
      "t": 258571.44150000004,
      "d": 396.8254166666593,
      "v": 115
    },
    {
      "midi": 57,
      "hit": false,
      "t": 258571.44150000004,
      "d": 396.8254166666593,
      "v": 115
    },
    {
      "midi": 66,
      "hit": false,
      "t": 258571.4415000003,
      "d": 396.8254166666593,
      "v": 112
    },
    {
      "midi": 38,
      "hit": false,
      "t": 258571.44150000048,
      "d": 412.69843333333847,
      "v": 110
    },
    {
      "midi": 50,
      "hit": false,
      "t": 258571.44150000054,
      "d": 79.36508333333768,
      "v": 100
    },
    {
      "midi": 57,
      "hit": false,
      "t": 258571.44150000054,
      "d": 79.36508333333768,
      "v": 100
    },
    {
      "midi": 42,
      "hit": false,
      "t": 258571.44150000403,
      "d": 7.936508333339589,
      "v": 100
    },
    {
      "midi": 64,
      "hit": false,
      "t": 259031.75898333246,
      "d": 2777.7779166666733,
      "v": 110
    },
    {
      "midi": 57,
      "hit": false,
      "t": 259031.75898333246,
      "d": 2777.7779166666733,
      "v": 110
    },
    {
      "midi": 59,
      "hit": false,
      "t": 259031.75898333246,
      "d": 2777.7779166666733,
      "v": 110
    },
    {
      "midi": 61,
      "hit": false,
      "t": 259031.75898333246,
      "d": 2777.7779166666733,
      "v": 110
    },
    {
      "midi": 45,
      "hit": false,
      "t": 259047.63200000004,
      "d": 396.8254166666593,
      "v": 115
    },
    {
      "midi": 57,
      "hit": false,
      "t": 259047.63200000004,
      "d": 396.8254166666593,
      "v": 115
    },
    {
      "midi": 64,
      "hit": false,
      "t": 259047.63200000004,
      "d": 396.8254166666593,
      "v": 115
    },
    {
      "midi": 61,
      "hit": false,
      "t": 259047.63200000004,
      "d": 396.8254166666593,
      "v": 115
    },
    {
      "midi": 52,
      "hit": false,
      "t": 259047.63200000004,
      "d": 396.8254166666593,
      "v": 115
    },
    {
      "midi": 69,
      "hit": false,
      "t": 259047.6320000003,
      "d": 436.50795833332813,
      "v": 112
    },
    {
      "midi": 33,
      "hit": false,
      "t": 259047.63200000048,
      "d": 412.69843333333847,
      "v": 115
    },
    {
      "midi": 45,
      "hit": false,
      "t": 259047.63200000054,
      "d": 436.50795833332813,
      "v": 115
    },
    {
      "midi": 52,
      "hit": false,
      "t": 259047.63200000054,
      "d": 436.50795833332813,
      "v": 115
    },
    {
      "midi": 2,
      "hit": false,
      "t": 259047.63200000403,
      "d": 7.936508333339589,
      "v": 120
    },
    {
      "midi": 42,
      "hit": false,
      "t": 259047.63200000403,
      "d": 7.936508333339589,
      "v": 115
    },
    {
      "midi": 45,
      "hit": false,
      "t": 259523.82250000004,
      "d": 396.8254166666593,
      "v": 115
    },
    {
      "midi": 57,
      "hit": false,
      "t": 259523.82250000004,
      "d": 396.8254166666593,
      "v": 115
    },
    {
      "midi": 64,
      "hit": false,
      "t": 259523.82250000004,
      "d": 396.8254166666593,
      "v": 115
    },
    {
      "midi": 61,
      "hit": false,
      "t": 259523.82250000004,
      "d": 396.8254166666593,
      "v": 115
    },
    {
      "midi": 52,
      "hit": false,
      "t": 259523.82250000004,
      "d": 396.8254166666593,
      "v": 115
    },
    {
      "midi": 69,
      "hit": false,
      "t": 259523.8225000003,
      "d": 436.50795833332813,
      "v": 112
    },
    {
      "midi": 33,
      "hit": false,
      "t": 259523.82250000047,
      "d": 412.69843333333847,
      "v": 110
    },
    {
      "midi": 45,
      "hit": false,
      "t": 259523.82250000053,
      "d": 79.36508333333768,
      "v": 100
    },
    {
      "midi": 52,
      "hit": false,
      "t": 259523.82250000053,
      "d": 79.36508333333768,
      "v": 100
    },
    {
      "midi": 42,
      "hit": false,
      "t": 259523.82250000403,
      "d": 7.936508333339589,
      "v": 100
    },
    {
      "midi": 45,
      "hit": false,
      "t": 260000.01300000004,
      "d": 396.8254166666593,
      "v": 115
    },
    {
      "midi": 57,
      "hit": false,
      "t": 260000.01300000004,
      "d": 396.8254166666593,
      "v": 115
    },
    {
      "midi": 64,
      "hit": false,
      "t": 260000.01300000004,
      "d": 396.8254166666593,
      "v": 115
    },
    {
      "midi": 61,
      "hit": false,
      "t": 260000.01300000004,
      "d": 396.8254166666593,
      "v": 115
    },
    {
      "midi": 52,
      "hit": false,
      "t": 260000.01300000004,
      "d": 396.8254166666593,
      "v": 115
    },
    {
      "midi": 69,
      "hit": false,
      "t": 260000.0130000003,
      "d": 873.0159166666563,
      "v": 112
    },
    {
      "midi": 33,
      "hit": false,
      "t": 260000.01300000047,
      "d": 412.69843333333847,
      "v": 110
    },
    {
      "midi": 45,
      "hit": false,
      "t": 260000.01300000053,
      "d": 79.36508333333768,
      "v": 100
    },
    {
      "midi": 52,
      "hit": false,
      "t": 260000.01300000053,
      "d": 79.36508333333768,
      "v": 100
    },
    {
      "midi": 40,
      "hit": false,
      "t": 260000.01300000402,
      "d": 7.936508333339589,
      "v": 127
    },
    {
      "midi": 42,
      "hit": false,
      "t": 260000.01300000402,
      "d": 7.936508333339589,
      "v": 100
    },
    {
      "midi": 45,
      "hit": false,
      "t": 260476.20350000003,
      "d": 396.8254166666593,
      "v": 115
    },
    {
      "midi": 57,
      "hit": false,
      "t": 260476.20350000003,
      "d": 396.8254166666593,
      "v": 115
    },
    {
      "midi": 64,
      "hit": false,
      "t": 260476.20350000003,
      "d": 396.8254166666593,
      "v": 115
    },
    {
      "midi": 61,
      "hit": false,
      "t": 260476.20350000003,
      "d": 396.8254166666593,
      "v": 115
    },
    {
      "midi": 52,
      "hit": false,
      "t": 260476.20350000003,
      "d": 396.8254166666593,
      "v": 115
    },
    {
      "midi": 33,
      "hit": false,
      "t": 260476.20350000047,
      "d": 412.69843333333847,
      "v": 110
    },
    {
      "midi": 45,
      "hit": false,
      "t": 260476.20350000053,
      "d": 79.36508333333768,
      "v": 100
    },
    {
      "midi": 52,
      "hit": false,
      "t": 260476.20350000053,
      "d": 79.36508333333768,
      "v": 100
    },
    {
      "midi": 42,
      "hit": false,
      "t": 260476.20350000402,
      "d": 7.936508333339589,
      "v": 100
    },
    {
      "midi": 45,
      "hit": false,
      "t": 260952.39400000003,
      "d": 396.8254166666593,
      "v": 115
    },
    {
      "midi": 57,
      "hit": false,
      "t": 260952.39400000003,
      "d": 396.8254166666593,
      "v": 115
    },
    {
      "midi": 64,
      "hit": false,
      "t": 260952.39400000003,
      "d": 396.8254166666593,
      "v": 115
    },
    {
      "midi": 61,
      "hit": false,
      "t": 260952.39400000003,
      "d": 396.8254166666593,
      "v": 115
    },
    {
      "midi": 52,
      "hit": false,
      "t": 260952.39400000003,
      "d": 396.8254166666593,
      "v": 115
    },
    {
      "midi": 69,
      "hit": false,
      "t": 260952.3940000003,
      "d": 873.0159166666563,
      "v": 112
    },
    {
      "midi": 33,
      "hit": false,
      "t": 260952.39400000047,
      "d": 412.69843333333847,
      "v": 110
    },
    {
      "midi": 45,
      "hit": false,
      "t": 260952.39400000052,
      "d": 79.36508333333768,
      "v": 100
    },
    {
      "midi": 52,
      "hit": false,
      "t": 260952.39400000052,
      "d": 79.36508333333768,
      "v": 100
    },
    {
      "midi": 2,
      "hit": false,
      "t": 260952.39400000402,
      "d": 7.936508333339589,
      "v": 120
    },
    {
      "midi": 42,
      "hit": false,
      "t": 260952.39400000402,
      "d": 7.936508333339589,
      "v": 115
    },
    {
      "midi": 45,
      "hit": false,
      "t": 261428.58450000003,
      "d": 396.8254166666593,
      "v": 115
    },
    {
      "midi": 57,
      "hit": false,
      "t": 261428.58450000003,
      "d": 396.8254166666593,
      "v": 115
    },
    {
      "midi": 64,
      "hit": false,
      "t": 261428.58450000003,
      "d": 396.8254166666593,
      "v": 115
    },
    {
      "midi": 61,
      "hit": false,
      "t": 261428.58450000003,
      "d": 396.8254166666593,
      "v": 115
    },
    {
      "midi": 52,
      "hit": false,
      "t": 261428.58450000003,
      "d": 396.8254166666593,
      "v": 115
    },
    {
      "midi": 33,
      "hit": false,
      "t": 261428.58450000046,
      "d": 412.69843333333847,
      "v": 110
    },
    {
      "midi": 45,
      "hit": false,
      "t": 261428.58450000052,
      "d": 79.36508333333768,
      "v": 100
    },
    {
      "midi": 52,
      "hit": false,
      "t": 261428.58450000052,
      "d": 79.36508333333768,
      "v": 100
    },
    {
      "midi": 42,
      "hit": false,
      "t": 261428.584500004,
      "d": 7.936508333339589,
      "v": 100
    },
    {
      "midi": 45,
      "hit": false,
      "t": 261904.77500000002,
      "d": 396.8254166666884,
      "v": 115
    },
    {
      "midi": 57,
      "hit": false,
      "t": 261904.77500000002,
      "d": 396.8254166666884,
      "v": 115
    },
    {
      "midi": 64,
      "hit": false,
      "t": 261904.77500000002,
      "d": 396.8254166666884,
      "v": 115
    },
    {
      "midi": 61,
      "hit": false,
      "t": 261904.77500000002,
      "d": 396.8254166666884,
      "v": 115
    },
    {
      "midi": 52,
      "hit": false,
      "t": 261904.77500000002,
      "d": 396.8254166666884,
      "v": 115
    },
    {
      "midi": 67,
      "hit": false,
      "t": 261904.77500000029,
      "d": 952.381000000023,
      "v": 112
    },
    {
      "midi": 33,
      "hit": false,
      "t": 261904.77500000046,
      "d": 412.69843333333847,
      "v": 110
    },
    {
      "midi": 45,
      "hit": false,
      "t": 261904.77500000052,
      "d": 79.36508333333768,
      "v": 100
    },
    {
      "midi": 52,
      "hit": false,
      "t": 261904.77500000052,
      "d": 79.36508333333768,
      "v": 100
    },
    {
      "midi": 40,
      "hit": false,
      "t": 261904.775000004,
      "d": 7.936508333339589,
      "v": 127
    },
    {
      "midi": 42,
      "hit": false,
      "t": 261904.775000004,
      "d": 7.936508333339589,
      "v": 100
    },
    {
      "midi": 71,
      "hit": false,
      "t": 262380.9654999991,
      "d": 198.4127083333442,
      "v": 116
    },
    {
      "midi": 45,
      "hit": false,
      "t": 262380.96550000005,
      "d": 396.8254166666884,
      "v": 115
    },
    {
      "midi": 57,
      "hit": false,
      "t": 262380.96550000005,
      "d": 396.8254166666884,
      "v": 115
    },
    {
      "midi": 64,
      "hit": false,
      "t": 262380.96550000005,
      "d": 396.8254166666884,
      "v": 115
    },
    {
      "midi": 61,
      "hit": false,
      "t": 262380.96550000005,
      "d": 396.8254166666884,
      "v": 115
    },
    {
      "midi": 52,
      "hit": false,
      "t": 262380.96550000005,
      "d": 396.8254166666884,
      "v": 115
    },
    {
      "midi": 33,
      "hit": false,
      "t": 262380.96550000046,
      "d": 412.69843333330937,
      "v": 110
    },
    {
      "midi": 45,
      "hit": false,
      "t": 262380.9655000005,
      "d": 79.36508333333768,
      "v": 100
    },
    {
      "midi": 52,
      "hit": false,
      "t": 262380.9655000005,
      "d": 79.36508333333768,
      "v": 100
    },
    {
      "midi": 42,
      "hit": false,
      "t": 262380.965500004,
      "d": 7.936508333310485,
      "v": 100
    },
    {
      "midi": 73,
      "hit": false,
      "t": 262619.06074999913,
      "d": 198.4127083333442,
      "v": 119
    },
    {
      "midi": 74,
      "hit": false,
      "t": 262841.28298333246,
      "d": 634.9206666666432,
      "v": 119
    },
    {
      "midi": 66,
      "hit": false,
      "t": 262841.28298333246,
      "d": 634.9206666666432,
      "v": 114
    },
    {
      "midi": 47,
      "hit": false,
      "t": 262857.1560000001,
      "d": 396.8254166666884,
      "v": 115
    },
    {
      "midi": 59,
      "hit": false,
      "t": 262857.1560000001,
      "d": 396.8254166666884,
      "v": 115
    },
    {
      "midi": 66,
      "hit": false,
      "t": 262857.1560000001,
      "d": 396.8254166666884,
      "v": 115
    },
    {
      "midi": 62,
      "hit": false,
      "t": 262857.1560000001,
      "d": 396.8254166666884,
      "v": 115
    },
    {
      "midi": 54,
      "hit": false,
      "t": 262857.1560000001,
      "d": 396.8254166666884,
      "v": 115
    },
    {
      "midi": 66,
      "hit": false,
      "t": 262857.1560000003,
      "d": 952.380999999994,
      "v": 112
    },
    {
      "midi": 35,
      "hit": false,
      "t": 262857.1560000004,
      "d": 412.69843333330937,
      "v": 115
    },
    {
      "midi": 47,
      "hit": false,
      "t": 262857.15600000054,
      "d": 436.50795833335724,
      "v": 115
    },
    {
      "midi": 54,
      "hit": false,
      "t": 262857.15600000054,
      "d": 436.50795833335724,
      "v": 115
    },
    {
      "midi": 2,
      "hit": false,
      "t": 262857.156000004,
      "d": 7.936508333310485,
      "v": 120
    },
    {
      "midi": 42,
      "hit": false,
      "t": 262857.156000004,
      "d": 7.936508333310485,
      "v": 115
    },
    {
      "midi": 47,
      "hit": false,
      "t": 263333.3465000001,
      "d": 396.8254166666884,
      "v": 115
    },
    {
      "midi": 59,
      "hit": false,
      "t": 263333.3465000001,
      "d": 396.8254166666884,
      "v": 115
    },
    {
      "midi": 66,
      "hit": false,
      "t": 263333.3465000001,
      "d": 396.8254166666884,
      "v": 115
    },
    {
      "midi": 62,
      "hit": false,
      "t": 263333.3465000001,
      "d": 396.8254166666884,
      "v": 115
    },
    {
      "midi": 54,
      "hit": false,
      "t": 263333.3465000001,
      "d": 396.8254166666884,
      "v": 115
    },
    {
      "midi": 35,
      "hit": false,
      "t": 263333.3465000004,
      "d": 412.69843333330937,
      "v": 110
    },
    {
      "midi": 47,
      "hit": false,
      "t": 263333.34650000057,
      "d": 79.36508333333768,
      "v": 100
    },
    {
      "midi": 54,
      "hit": false,
      "t": 263333.34650000057,
      "d": 79.36508333333768,
      "v": 100
    },
    {
      "midi": 42,
      "hit": false,
      "t": 263333.34650000394,
      "d": 7.936508333310485,
      "v": 100
    },
    {
      "midi": 73,
      "hit": false,
      "t": 263571.4417499991,
      "d": 634.9206666666432,
      "v": 119
    },
    {
      "midi": 64,
      "hit": false,
      "t": 263571.4417499991,
      "d": 634.9206666666432,
      "v": 114
    },
    {
      "midi": 47,
      "hit": false,
      "t": 263809.5370000001,
      "d": 396.8254166666884,
      "v": 115
    },
    {
      "midi": 59,
      "hit": false,
      "t": 263809.5370000001,
      "d": 396.8254166666884,
      "v": 115
    },
    {
      "midi": 66,
      "hit": false,
      "t": 263809.5370000001,
      "d": 396.8254166666884,
      "v": 115
    },
    {
      "midi": 62,
      "hit": false,
      "t": 263809.5370000001,
      "d": 396.8254166666884,
      "v": 115
    },
    {
      "midi": 54,
      "hit": false,
      "t": 263809.5370000001,
      "d": 396.8254166666884,
      "v": 115
    },
    {
      "midi": 35,
      "hit": false,
      "t": 263809.53700000036,
      "d": 412.69843333330937,
      "v": 110
    },
    {
      "midi": 47,
      "hit": false,
      "t": 263809.5370000006,
      "d": 79.36508333333768,
      "v": 100
    },
    {
      "midi": 54,
      "hit": false,
      "t": 263809.5370000006,
      "d": 79.36508333333768,
      "v": 100
    },
    {
      "midi": 40,
      "hit": false,
      "t": 263809.5370000039,
      "d": 7.936508333310485,
      "v": 127
    },
    {
      "midi": 42,
      "hit": false,
      "t": 263809.5370000039,
      "d": 7.936508333310485,
      "v": 100
    },
    {
      "midi": 71,
      "hit": false,
      "t": 264285.7274999991,
      "d": 873.0159166666563,
      "v": 119
    },
    {
      "midi": 62,
      "hit": false,
      "t": 264285.7274999991,
      "d": 873.0159166666563,
      "v": 110
    },
    {
      "midi": 47,
      "hit": false,
      "t": 264285.72750000015,
      "d": 396.8254166666884,
      "v": 115
    },
    {
      "midi": 59,
      "hit": false,
      "t": 264285.72750000015,
      "d": 396.8254166666884,
      "v": 115
    },
    {
      "midi": 66,
      "hit": false,
      "t": 264285.72750000015,
      "d": 396.8254166666884,
      "v": 115
    },
    {
      "midi": 62,
      "hit": false,
      "t": 264285.72750000015,
      "d": 396.8254166666884,
      "v": 115
    },
    {
      "midi": 54,
      "hit": false,
      "t": 264285.72750000015,
      "d": 396.8254166666884,
      "v": 115
    },
    {
      "midi": 35,
      "hit": false,
      "t": 264285.7275000003,
      "d": 412.69843333330937,
      "v": 110
    },
    {
      "midi": 54,
      "hit": false,
      "t": 264285.7275000006,
      "d": 436.50795833335724,
      "v": 115
    },
    {
      "midi": 47,
      "hit": false,
      "t": 264285.7275000006,
      "d": 436.50795833335724,
      "v": 115
    },
    {
      "midi": 42,
      "hit": false,
      "t": 264285.7275000039,
      "d": 7.936508333310485,
      "v": 100
    },
    {
      "midi": 47,
      "hit": false,
      "t": 264761.9180000002,
      "d": 396.8254166666884,
      "v": 115
    },
    {
      "midi": 59,
      "hit": false,
      "t": 264761.9180000002,
      "d": 396.8254166666884,
      "v": 115
    },
    {
      "midi": 66,
      "hit": false,
      "t": 264761.9180000002,
      "d": 396.8254166666884,
      "v": 115
    },
    {
      "midi": 62,
      "hit": false,
      "t": 264761.9180000002,
      "d": 396.8254166666884,
      "v": 115
    },
    {
      "midi": 54,
      "hit": false,
      "t": 264761.9180000002,
      "d": 396.8254166666884,
      "v": 115
    },
    {
      "midi": 66,
      "hit": false,
      "t": 264761.9180000003,
      "d": 873.0159166666563,
      "v": 111
    },
    {
      "midi": 35,
      "hit": false,
      "t": 264761.9180000003,
      "d": 412.69843333330937,
      "v": 110
    },
    {
      "midi": 47,
      "hit": false,
      "t": 264761.91800000065,
      "d": 79.36508333333768,
      "v": 100
    },
    {
      "midi": 54,
      "hit": false,
      "t": 264761.91800000065,
      "d": 79.36508333333768,
      "v": 100
    },
    {
      "midi": 2,
      "hit": false,
      "t": 264761.91800000385,
      "d": 7.936508333310485,
      "v": 120
    },
    {
      "midi": 42,
      "hit": false,
      "t": 264761.91800000385,
      "d": 7.936508333310485,
      "v": 115
    },
    {
      "midi": 47,
      "hit": false,
      "t": 265000.01325000066,
      "d": 79.36508333333768,
      "v": 100
    },
    {
      "midi": 54,
      "hit": false,
      "t": 265000.01325000066,
      "d": 79.36508333333768,
      "v": 100
    },
    {
      "midi": 61,
      "hit": false,
      "t": 265238.1084999991,
      "d": 436.50795833335724,
      "v": 119
    },
    {
      "midi": 47,
      "hit": false,
      "t": 265238.1085000002,
      "d": 396.8254166666884,
      "v": 115
    },
    {
      "midi": 59,
      "hit": false,
      "t": 265238.1085000002,
      "d": 396.8254166666884,
      "v": 115
    },
    {
      "midi": 66,
      "hit": false,
      "t": 265238.1085000002,
      "d": 396.8254166666884,
      "v": 115
    },
    {
      "midi": 62,
      "hit": false,
      "t": 265238.1085000002,
      "d": 396.8254166666884,
      "v": 115
    },
    {
      "midi": 54,
      "hit": false,
      "t": 265238.1085000002,
      "d": 396.8254166666884,
      "v": 115
    },
    {
      "midi": 35,
      "hit": false,
      "t": 265238.10850000026,
      "d": 412.69843333330937,
      "v": 110
    },
    {
      "midi": 47,
      "hit": false,
      "t": 265238.1085000007,
      "d": 79.36508333333768,
      "v": 100
    },
    {
      "midi": 54,
      "hit": false,
      "t": 265238.1085000007,
      "d": 79.36508333333768,
      "v": 100
    },
    {
      "midi": 2,
      "hit": false,
      "t": 265238.1085000038,
      "d": 7.936508333310485,
      "v": 120
    },
    {
      "midi": 42,
      "hit": false,
      "t": 265238.1085000038,
      "d": 7.936508333310485,
      "v": 100
    },
    {
      "midi": 62,
      "hit": false,
      "t": 265714.2989999991,
      "d": 436.50795833335724,
      "v": 119
    },
    {
      "midi": 35,
      "hit": false,
      "t": 265714.29900000023,
      "d": 412.69843333330937,
      "v": 110
    },
    {
      "midi": 47,
      "hit": false,
      "t": 265714.29900000023,
      "d": 396.8254166666884,
      "v": 115
    },
    {
      "midi": 59,
      "hit": false,
      "t": 265714.29900000023,
      "d": 396.8254166666884,
      "v": 115
    },
    {
      "midi": 66,
      "hit": false,
      "t": 265714.29900000023,
      "d": 396.8254166666884,
      "v": 115
    },
    {
      "midi": 62,
      "hit": false,
      "t": 265714.29900000023,
      "d": 396.8254166666884,
      "v": 115
    },
    {
      "midi": 54,
      "hit": false,
      "t": 265714.29900000023,
      "d": 396.8254166666884,
      "v": 115
    },
    {
      "midi": 66,
      "hit": false,
      "t": 265714.2990000003,
      "d": 436.50795833335724,
      "v": 112
    },
    {
      "midi": 64,
      "hit": false,
      "t": 265714.2990000003,
      "d": 873.0159166666563,
      "v": 111
    },
    {
      "midi": 47,
      "hit": false,
      "t": 265714.2990000007,
      "d": 79.36508333333768,
      "v": 100
    },
    {
      "midi": 54,
      "hit": false,
      "t": 265714.2990000007,
      "d": 79.36508333333768,
      "v": 100
    },
    {
      "midi": 40,
      "hit": false,
      "t": 265714.2990000038,
      "d": 7.936508333310485,
      "v": 127
    },
    {
      "midi": 42,
      "hit": false,
      "t": 265714.2990000038,
      "d": 7.936508333310485,
      "v": 100
    },
    {
      "midi": 66,
      "hit": false,
      "t": 266190.48949999915,
      "d": 436.50795833335724,
      "v": 119
    },
    {
      "midi": 35,
      "hit": false,
      "t": 266190.4895000002,
      "d": 412.69843333330937,
      "v": 110
    },
    {
      "midi": 47,
      "hit": false,
      "t": 266190.48950000026,
      "d": 396.8254166666884,
      "v": 115
    },
    {
      "midi": 59,
      "hit": false,
      "t": 266190.48950000026,
      "d": 396.8254166666884,
      "v": 115
    },
    {
      "midi": 66,
      "hit": false,
      "t": 266190.48950000026,
      "d": 396.8254166666884,
      "v": 115
    },
    {
      "midi": 62,
      "hit": false,
      "t": 266190.48950000026,
      "d": 396.8254166666884,
      "v": 115
    },
    {
      "midi": 54,
      "hit": false,
      "t": 266190.48950000026,
      "d": 396.8254166666884,
      "v": 115
    },
    {
      "midi": 69,
      "hit": false,
      "t": 266190.4895000003,
      "d": 436.50795833335724,
      "v": 112
    },
    {
      "midi": 47,
      "hit": false,
      "t": 266190.4895000007,
      "d": 79.36508333333768,
      "v": 100
    },
    {
      "midi": 54,
      "hit": false,
      "t": 266190.4895000007,
      "d": 79.36508333333768,
      "v": 100
    },
    {
      "midi": 46,
      "hit": false,
      "t": 266190.48950000375,
      "d": 7.936508333310485,
      "v": 100
    },
    {
      "midi": 47,
      "hit": false,
      "t": 266428.58475000074,
      "d": 79.36508333333768,
      "v": 100
    },
    {
      "midi": 54,
      "hit": false,
      "t": 266428.58475000074,
      "d": 79.36508333333768,
      "v": 100
    },
    {
      "midi": 55,
      "hit": false,
      "t": 266650.8069833325,
      "d": 2301.5874166666763,
      "v": 110
    },
    {
      "midi": 57,
      "hit": false,
      "t": 266650.8069833325,
      "d": 2301.5874166666763,
      "v": 110
    },
    {
      "midi": 62,
      "hit": false,
      "t": 266650.8069833325,
      "d": 2301.5874166666763,
      "v": 110
    },
    {
      "midi": 31,
      "hit": false,
      "t": 266666.68000000017,
      "d": 412.69843333330937,
      "v": 115
    },
    {
      "midi": 62,
      "hit": false,
      "t": 266666.6800000003,
      "d": 3809.524000000034,
      "v": 111
    },
    {
      "midi": 43,
      "hit": false,
      "t": 266666.6800000003,
      "d": 396.8254166666884,
      "v": 115
    },
    {
      "midi": 50,
      "hit": false,
      "t": 266666.6800000003,
      "d": 396.8254166666884,
      "v": 115
    },
    {
      "midi": 62,
      "hit": false,
      "t": 266666.6800000003,
      "d": 396.8254166666884,
      "v": 115
    },
    {
      "midi": 57,
      "hit": false,
      "t": 266666.6800000003,
      "d": 396.8254166666884,
      "v": 115
    },
    {
      "midi": 45,
      "hit": false,
      "t": 266666.6800000003,
      "d": 396.8254166666884,
      "v": 115
    },
    {
      "midi": 71,
      "hit": false,
      "t": 266666.68000000034,
      "d": 436.50795833335724,
      "v": 112
    },
    {
      "midi": 43,
      "hit": false,
      "t": 266666.68000000075,
      "d": 436.50795833335724,
      "v": 115
    },
    {
      "midi": 50,
      "hit": false,
      "t": 266666.68000000075,
      "d": 436.50795833335724,
      "v": 115
    },
    {
      "midi": 2,
      "hit": false,
      "t": 266666.6800000037,
      "d": 7.936508333310485,
      "v": 120
    },
    {
      "midi": 57,
      "hit": false,
      "t": 266666.6800000037,
      "d": 7.936508333310485,
      "v": 100
    },
    {
      "midi": 31,
      "hit": false,
      "t": 267142.87050000014,
      "d": 412.69843333330937,
      "v": 110
    },
    {
      "midi": 43,
      "hit": false,
      "t": 267142.8705000003,
      "d": 198.4127083333442,
      "v": 115
    },
    {
      "midi": 50,
      "hit": false,
      "t": 267142.8705000003,
      "d": 198.4127083333442,
      "v": 115
    },
    {
      "midi": 62,
      "hit": false,
      "t": 267142.8705000003,
      "d": 198.4127083333442,
      "v": 115
    },
    {
      "midi": 57,
      "hit": false,
      "t": 267142.8705000003,
      "d": 198.4127083333442,
      "v": 115
    },
    {
      "midi": 45,
      "hit": false,
      "t": 267142.8705000003,
      "d": 198.4127083333442,
      "v": 115
    },
    {
      "midi": 71,
      "hit": false,
      "t": 267142.87050000037,
      "d": 873.0159166666563,
      "v": 112
    },
    {
      "midi": 43,
      "hit": false,
      "t": 267142.8705000008,
      "d": 79.36508333333768,
      "v": 100
    },
    {
      "midi": 50,
      "hit": false,
      "t": 267142.8705000008,
      "d": 79.36508333333768,
      "v": 100
    },
    {
      "midi": 42,
      "hit": false,
      "t": 267142.8705000037,
      "d": 7.936508333310485,
      "v": 100
    },
    {
      "midi": 43,
      "hit": false,
      "t": 267380.9657500003,
      "d": 198.4127083333442,
      "v": 115
    },
    {
      "midi": 50,
      "hit": false,
      "t": 267380.9657500003,
      "d": 198.4127083333442,
      "v": 115
    },
    {
      "midi": 62,
      "hit": false,
      "t": 267380.9657500003,
      "d": 198.4127083333442,
      "v": 115
    },
    {
      "midi": 57,
      "hit": false,
      "t": 267380.9657500003,
      "d": 198.4127083333442,
      "v": 115
    },
    {
      "midi": 45,
      "hit": false,
      "t": 267380.9657500003,
      "d": 198.4127083333442,
      "v": 115
    },
    {
      "midi": 31,
      "hit": false,
      "t": 267619.0610000001,
      "d": 412.69843333330937,
      "v": 110
    },
    {
      "midi": 43,
      "hit": false,
      "t": 267619.06100000034,
      "d": 396.8254166666884,
      "v": 115
    },
    {
      "midi": 50,
      "hit": false,
      "t": 267619.06100000034,
      "d": 396.8254166666884,
      "v": 115
    },
    {
      "midi": 62,
      "hit": false,
      "t": 267619.06100000034,
      "d": 396.8254166666884,
      "v": 115
    },
    {
      "midi": 57,
      "hit": false,
      "t": 267619.06100000034,
      "d": 396.8254166666884,
      "v": 115
    },
    {
      "midi": 45,
      "hit": false,
      "t": 267619.06100000034,
      "d": 396.8254166666884,
      "v": 115
    },
    {
      "midi": 43,
      "hit": false,
      "t": 267619.0610000008,
      "d": 79.36508333333768,
      "v": 100
    },
    {
      "midi": 50,
      "hit": false,
      "t": 267619.0610000008,
      "d": 79.36508333333768,
      "v": 100
    },
    {
      "midi": 40,
      "hit": false,
      "t": 267619.06100000365,
      "d": 7.936508333310485,
      "v": 127
    },
    {
      "midi": 42,
      "hit": false,
      "t": 267619.06100000365,
      "d": 7.936508333310485,
      "v": 100
    },
    {
      "midi": 31,
      "hit": false,
      "t": 268095.2515000001,
      "d": 412.69843333330937,
      "v": 110
    },
    {
      "midi": 71,
      "hit": false,
      "t": 268095.25150000036,
      "d": 436.50795833335724,
      "v": 112
    },
    {
      "midi": 43,
      "hit": false,
      "t": 268095.25150000036,
      "d": 198.4127083333442,
      "v": 115
    },
    {
      "midi": 50,
      "hit": false,
      "t": 268095.25150000036,
      "d": 198.4127083333442,
      "v": 115
    },
    {
      "midi": 62,
      "hit": false,
      "t": 268095.25150000036,
      "d": 198.4127083333442,
      "v": 115
    },
    {
      "midi": 57,
      "hit": false,
      "t": 268095.25150000036,
      "d": 198.4127083333442,
      "v": 115
    },
    {
      "midi": 45,
      "hit": false,
      "t": 268095.25150000036,
      "d": 198.4127083333442,
      "v": 115
    },
    {
      "midi": 43,
      "hit": false,
      "t": 268095.2515000008,
      "d": 79.36508333333768,
      "v": 100
    },
    {
      "midi": 50,
      "hit": false,
      "t": 268095.2515000008,
      "d": 79.36508333333768,
      "v": 100
    },
    {
      "midi": 42,
      "hit": false,
      "t": 268095.2515000036,
      "d": 7.936508333310485,
      "v": 100
    },
    {
      "midi": 43,
      "hit": false,
      "t": 268333.3467500004,
      "d": 198.4127083333442,
      "v": 115
    },
    {
      "midi": 50,
      "hit": false,
      "t": 268333.3467500004,
      "d": 198.4127083333442,
      "v": 115
    },
    {
      "midi": 62,
      "hit": false,
      "t": 268333.3467500004,
      "d": 198.4127083333442,
      "v": 115
    },
    {
      "midi": 57,
      "hit": false,
      "t": 268333.3467500004,
      "d": 198.4127083333442,
      "v": 115
    },
    {
      "midi": 45,
      "hit": false,
      "t": 268333.3467500004,
      "d": 198.4127083333442,
      "v": 115
    },
    {
      "midi": 31,
      "hit": false,
      "t": 268571.44200000004,
      "d": 412.69843333330937,
      "v": 110
    },
    {
      "midi": 71,
      "hit": false,
      "t": 268571.4420000004,
      "d": 436.50795833335724,
      "v": 112
    },
    {
      "midi": 43,
      "hit": false,
      "t": 268571.4420000004,
      "d": 396.8254166666884,
      "v": 115
    },
    {
      "midi": 50,
      "hit": false,
      "t": 268571.4420000004,
      "d": 396.8254166666884,
      "v": 115
    },
    {
      "midi": 62,
      "hit": false,
      "t": 268571.4420000004,
      "d": 396.8254166666884,
      "v": 115
    },
    {
      "midi": 57,
      "hit": false,
      "t": 268571.4420000004,
      "d": 396.8254166666884,
      "v": 115
    },
    {
      "midi": 45,
      "hit": false,
      "t": 268571.4420000004,
      "d": 396.8254166666884,
      "v": 115
    },
    {
      "midi": 43,
      "hit": false,
      "t": 268571.44200000085,
      "d": 79.36508333333768,
      "v": 100
    },
    {
      "midi": 50,
      "hit": false,
      "t": 268571.44200000085,
      "d": 79.36508333333768,
      "v": 100
    },
    {
      "midi": 2,
      "hit": false,
      "t": 268571.4420000036,
      "d": 7.936508333310485,
      "v": 120
    },
    {
      "midi": 42,
      "hit": false,
      "t": 268571.4420000036,
      "d": 7.936508333310485,
      "v": 100
    },
    {
      "midi": 55,
      "hit": false,
      "t": 269047.6324999992,
      "d": 436.50795833335724,
      "v": 117
    },
    {
      "midi": 31,
      "hit": false,
      "t": 269047.6325,
      "d": 412.69843333330937,
      "v": 110
    },
    {
      "midi": 74,
      "hit": false,
      "t": 269047.6325000004,
      "d": 436.50795833335724,
      "v": 112
    },
    {
      "midi": 43,
      "hit": false,
      "t": 269047.6325000004,
      "d": 198.4127083333442,
      "v": 115
    },
    {
      "midi": 50,
      "hit": false,
      "t": 269047.6325000004,
      "d": 198.4127083333442,
      "v": 115
    },
    {
      "midi": 62,
      "hit": false,
      "t": 269047.6325000004,
      "d": 198.4127083333442,
      "v": 115
    },
    {
      "midi": 57,
      "hit": false,
      "t": 269047.6325000004,
      "d": 198.4127083333442,
      "v": 115
    },
    {
      "midi": 45,
      "hit": false,
      "t": 269047.6325000004,
      "d": 198.4127083333442,
      "v": 115
    },
    {
      "midi": 43,
      "hit": false,
      "t": 269047.6325000009,
      "d": 79.36508333333768,
      "v": 100
    },
    {
      "midi": 50,
      "hit": false,
      "t": 269047.6325000009,
      "d": 79.36508333333768,
      "v": 100
    },
    {
      "midi": 42,
      "hit": false,
      "t": 269047.63250000356,
      "d": 7.936508333310485,
      "v": 100
    },
    {
      "midi": 43,
      "hit": false,
      "t": 269285.7277500004,
      "d": 198.4127083333442,
      "v": 115
    },
    {
      "midi": 50,
      "hit": false,
      "t": 269285.7277500004,
      "d": 198.4127083333442,
      "v": 115
    },
    {
      "midi": 62,
      "hit": false,
      "t": 269285.7277500004,
      "d": 198.4127083333442,
      "v": 115
    },
    {
      "midi": 57,
      "hit": false,
      "t": 269285.7277500004,
      "d": 198.4127083333442,
      "v": 115
    },
    {
      "midi": 45,
      "hit": false,
      "t": 269285.7277500004,
      "d": 198.4127083333442,
      "v": 115
    },
    {
      "midi": 57,
      "hit": false,
      "t": 269523.8229999992,
      "d": 436.50795833335724,
      "v": 117
    },
    {
      "midi": 31,
      "hit": false,
      "t": 269523.823,
      "d": 412.69843333330937,
      "v": 110
    },
    {
      "midi": 74,
      "hit": false,
      "t": 269523.82300000044,
      "d": 436.50795833335724,
      "v": 112
    },
    {
      "midi": 43,
      "hit": false,
      "t": 269523.82300000044,
      "d": 396.8254166666884,
      "v": 115
    },
    {
      "midi": 50,
      "hit": false,
      "t": 269523.82300000044,
      "d": 396.8254166666884,
      "v": 115
    },
    {
      "midi": 62,
      "hit": false,
      "t": 269523.82300000044,
      "d": 396.8254166666884,
      "v": 115
    },
    {
      "midi": 57,
      "hit": false,
      "t": 269523.82300000044,
      "d": 396.8254166666884,
      "v": 115
    },
    {
      "midi": 45,
      "hit": false,
      "t": 269523.82300000044,
      "d": 396.8254166666884,
      "v": 115
    },
    {
      "midi": 43,
      "hit": false,
      "t": 269523.8230000009,
      "d": 79.36508333333768,
      "v": 100
    },
    {
      "midi": 50,
      "hit": false,
      "t": 269523.8230000009,
      "d": 79.36508333333768,
      "v": 100
    },
    {
      "midi": 40,
      "hit": false,
      "t": 269523.8230000035,
      "d": 7.936508333310485,
      "v": 127
    },
    {
      "midi": 42,
      "hit": false,
      "t": 269523.8230000035,
      "d": 7.936508333310485,
      "v": 100
    },
    {
      "midi": 62,
      "hit": false,
      "t": 270000.01349999924,
      "d": 436.50795833335724,
      "v": 117
    },
    {
      "midi": 31,
      "hit": false,
      "t": 270000.01349999994,
      "d": 412.69843333330937,
      "v": 110
    },
    {
      "midi": 76,
      "hit": false,
      "t": 270000.01350000047,
      "d": 436.50795833335724,
      "v": 112
    },
    {
      "midi": 43,
      "hit": false,
      "t": 270000.01350000047,
      "d": 198.4127083333442,
      "v": 115
    },
    {
      "midi": 50,
      "hit": false,
      "t": 270000.01350000047,
      "d": 198.4127083333442,
      "v": 115
    },
    {
      "midi": 62,
      "hit": false,
      "t": 270000.01350000047,
      "d": 198.4127083333442,
      "v": 115
    },
    {
      "midi": 57,
      "hit": false,
      "t": 270000.01350000047,
      "d": 198.4127083333442,
      "v": 115
    },
    {
      "midi": 45,
      "hit": false,
      "t": 270000.01350000047,
      "d": 198.4127083333442,
      "v": 115
    },
    {
      "midi": 43,
      "hit": false,
      "t": 270000.01350000093,
      "d": 79.36508333333768,
      "v": 100
    },
    {
      "midi": 50,
      "hit": false,
      "t": 270000.01350000093,
      "d": 79.36508333333768,
      "v": 100
    },
    {
      "midi": 42,
      "hit": false,
      "t": 270000.0135000035,
      "d": 7.936508333310485,
      "v": 100
    },
    {
      "midi": 43,
      "hit": false,
      "t": 270238.1087500005,
      "d": 198.4127083333442,
      "v": 115
    },
    {
      "midi": 50,
      "hit": false,
      "t": 270238.1087500005,
      "d": 198.4127083333442,
      "v": 115
    },
    {
      "midi": 62,
      "hit": false,
      "t": 270238.1087500005,
      "d": 198.4127083333442,
      "v": 115
    },
    {
      "midi": 57,
      "hit": false,
      "t": 270238.1087500005,
      "d": 198.4127083333442,
      "v": 115
    },
    {
      "midi": 45,
      "hit": false,
      "t": 270238.1087500005,
      "d": 198.4127083333442,
      "v": 115
    },
    {
      "midi": 57,
      "hit": false,
      "t": 270460.3309833326,
      "d": 1825.3969166666502,
      "v": 110
    },
    {
      "midi": 62,
      "hit": false,
      "t": 270460.3309833326,
      "d": 1825.3969166666502,
      "v": 110
    },
    {
      "midi": 66,
      "hit": false,
      "t": 270460.3309833326,
      "d": 1825.3969166666502,
      "v": 110
    },
    {
      "midi": 38,
      "hit": false,
      "t": 270476.2039999999,
      "d": 412.69843333330937,
      "v": 115
    },
    {
      "midi": 74,
      "hit": false,
      "t": 270476.2040000005,
      "d": 1349.2064166666823,
      "v": 112
    },
    {
      "midi": 50,
      "hit": false,
      "t": 270476.2040000005,
      "d": 396.8254166666884,
      "v": 115
    },
    {
      "midi": 66,
      "hit": false,
      "t": 270476.2040000005,
      "d": 396.8254166666884,
      "v": 115
    },
    {
      "midi": 62,
      "hit": false,
      "t": 270476.2040000005,
      "d": 396.8254166666884,
      "v": 115
    },
    {
      "midi": 57,
      "hit": false,
      "t": 270476.2040000005,
      "d": 396.8254166666884,
      "v": 115
    },
    {
      "midi": 50,
      "hit": false,
      "t": 270476.20400000096,
      "d": 436.50795833335724,
      "v": 115
    },
    {
      "midi": 57,
      "hit": false,
      "t": 270476.20400000096,
      "d": 436.50795833335724,
      "v": 115
    },
    {
      "midi": 2,
      "hit": false,
      "t": 270476.20400000346,
      "d": 7.936508333310485,
      "v": 120
    },
    {
      "midi": 42,
      "hit": false,
      "t": 270476.20400000346,
      "d": 7.936508333310485,
      "v": 115
    },
    {
      "midi": 38,
      "hit": false,
      "t": 270952.3944999999,
      "d": 412.69843333330937,
      "v": 110
    },
    {
      "midi": 50,
      "hit": false,
      "t": 270952.3945000005,
      "d": 396.8254166666884,
      "v": 115
    },
    {
      "midi": 66,
      "hit": false,
      "t": 270952.3945000005,
      "d": 396.8254166666884,
      "v": 115
    },
    {
      "midi": 62,
      "hit": false,
      "t": 270952.3945000005,
      "d": 396.8254166666884,
      "v": 115
    },
    {
      "midi": 57,
      "hit": false,
      "t": 270952.3945000005,
      "d": 396.8254166666884,
      "v": 115
    },
    {
      "midi": 50,
      "hit": false,
      "t": 270952.394500001,
      "d": 79.36508333333768,
      "v": 100
    },
    {
      "midi": 57,
      "hit": false,
      "t": 270952.394500001,
      "d": 79.36508333333768,
      "v": 100
    },
    {
      "midi": 42,
      "hit": false,
      "t": 270952.39450000343,
      "d": 7.936508333310485,
      "v": 100
    },
    {
      "midi": 38,
      "hit": false,
      "t": 271428.58499999985,
      "d": 412.69843333330937,
      "v": 110
    },
    {
      "midi": 50,
      "hit": false,
      "t": 271428.58500000054,
      "d": 396.8254166666884,
      "v": 115
    },
    {
      "midi": 66,
      "hit": false,
      "t": 271428.58500000054,
      "d": 396.8254166666884,
      "v": 115
    },
    {
      "midi": 62,
      "hit": false,
      "t": 271428.58500000054,
      "d": 396.8254166666884,
      "v": 115
    },
    {
      "midi": 57,
      "hit": false,
      "t": 271428.58500000054,
      "d": 396.8254166666884,
      "v": 115
    },
    {
      "midi": 50,
      "hit": false,
      "t": 271428.585000001,
      "d": 873.0159166666563,
      "v": 100
    },
    {
      "midi": 57,
      "hit": false,
      "t": 271428.585000001,
      "d": 873.0159166666563,
      "v": 100
    },
    {
      "midi": 40,
      "hit": false,
      "t": 271428.5850000034,
      "d": 7.936508333310485,
      "v": 127
    },
    {
      "midi": 42,
      "hit": false,
      "t": 271428.5850000034,
      "d": 7.936508333310485,
      "v": 100
    },
    {
      "midi": 38,
      "hit": false,
      "t": 271904.7754999998,
      "d": 412.69843333330937,
      "v": 110
    },
    {
      "midi": 69,
      "hit": false,
      "t": 271904.7755000005,
      "d": 436.50795833335724,
      "v": 112
    },
    {
      "midi": 50,
      "hit": false,
      "t": 271904.7755000006,
      "d": 396.8254166666884,
      "v": 115
    },
    {
      "midi": 66,
      "hit": false,
      "t": 271904.7755000006,
      "d": 396.8254166666884,
      "v": 115
    },
    {
      "midi": 62,
      "hit": false,
      "t": 271904.7755000006,
      "d": 396.8254166666884,
      "v": 115
    },
    {
      "midi": 57,
      "hit": false,
      "t": 271904.7755000006,
      "d": 396.8254166666884,
      "v": 115
    },
    {
      "midi": 42,
      "hit": false,
      "t": 271904.77550000336,
      "d": 7.936508333310485,
      "v": 100
    },
    {
      "midi": 57,
      "hit": false,
      "t": 272365.0929833326,
      "d": 873.0159166666563,
      "v": 110
    },
    {
      "midi": 62,
      "hit": false,
      "t": 272365.0929833326,
      "d": 873.0159166666563,
      "v": 110
    },
    {
      "midi": 64,
      "hit": false,
      "t": 272365.0929833326,
      "d": 873.0159166666563,
      "v": 110
    },
    {
      "midi": 35,
      "hit": false,
      "t": 272380.9659999998,
      "d": 412.69843333330937,
      "v": 110
    },
    {
      "midi": 71,
      "hit": false,
      "t": 272380.96600000054,
      "d": 634.9206666666432,
      "v": 112
    },
    {
      "midi": 47,
      "hit": false,
      "t": 272380.9660000006,
      "d": 396.8254166666884,
      "v": 115
    },
    {
      "midi": 59,
      "hit": false,
      "t": 272380.9660000006,
      "d": 396.8254166666884,
      "v": 115
    },
    {
      "midi": 66,
      "hit": false,
      "t": 272380.9660000006,
      "d": 396.8254166666884,
      "v": 115
    },
    {
      "midi": 62,
      "hit": false,
      "t": 272380.9660000006,
      "d": 396.8254166666884,
      "v": 115
    },
    {
      "midi": 54,
      "hit": false,
      "t": 272380.9660000006,
      "d": 396.8254166666884,
      "v": 115
    },
    {
      "midi": 47,
      "hit": false,
      "t": 272380.966000001,
      "d": 436.50795833329903,
      "v": 115
    },
    {
      "midi": 54,
      "hit": false,
      "t": 272380.966000001,
      "d": 436.50795833329903,
      "v": 115
    },
    {
      "midi": 2,
      "hit": false,
      "t": 272380.96600000333,
      "d": 7.936508333310485,
      "v": 120
    },
    {
      "midi": 42,
      "hit": false,
      "t": 272380.96600000333,
      "d": 7.936508333310485,
      "v": 115
    },
    {
      "midi": 35,
      "hit": false,
      "t": 272857.15649999975,
      "d": 412.69843333330937,
      "v": 110
    },
    {
      "midi": 47,
      "hit": false,
      "t": 272857.1565000006,
      "d": 396.8254166666884,
      "v": 115
    },
    {
      "midi": 59,
      "hit": false,
      "t": 272857.1565000006,
      "d": 396.8254166666884,
      "v": 115
    },
    {
      "midi": 66,
      "hit": false,
      "t": 272857.1565000006,
      "d": 396.8254166666884,
      "v": 115
    },
    {
      "midi": 62,
      "hit": false,
      "t": 272857.1565000006,
      "d": 396.8254166666884,
      "v": 115
    },
    {
      "midi": 54,
      "hit": false,
      "t": 272857.1565000006,
      "d": 396.8254166666884,
      "v": 115
    },
    {
      "midi": 47,
      "hit": false,
      "t": 272857.156500001,
      "d": 79.36508333333768,
      "v": 100
    },
    {
      "midi": 54,
      "hit": false,
      "t": 272857.156500001,
      "d": 79.36508333333768,
      "v": 100
    },
    {
      "midi": 42,
      "hit": false,
      "t": 272857.1565000033,
      "d": 7.936508333310485,
      "v": 100
    },
    {
      "midi": 57,
      "hit": false,
      "t": 273317.4739833326,
      "d": 873.0159166666563,
      "v": 110
    },
    {
      "midi": 62,
      "hit": false,
      "t": 273317.4739833326,
      "d": 873.0159166666563,
      "v": 110
    },
    {
      "midi": 66,
      "hit": false,
      "t": 273317.4739833326,
      "d": 873.0159166666563,
      "v": 110
    },
    {
      "midi": 35,
      "hit": false,
      "t": 273333.3469999997,
      "d": 412.69843333330937,
      "v": 110
    },
    {
      "midi": 71,
      "hit": false,
      "t": 273333.34700000053,
      "d": 436.50795833335724,
      "v": 112
    },
    {
      "midi": 47,
      "hit": false,
      "t": 273333.34700000065,
      "d": 396.8254166666884,
      "v": 115
    },
    {
      "midi": 59,
      "hit": false,
      "t": 273333.34700000065,
      "d": 396.8254166666884,
      "v": 115
    },
    {
      "midi": 66,
      "hit": false,
      "t": 273333.34700000065,
      "d": 396.8254166666884,
      "v": 115
    },
    {
      "midi": 62,
      "hit": false,
      "t": 273333.34700000065,
      "d": 396.8254166666884,
      "v": 115
    },
    {
      "midi": 54,
      "hit": false,
      "t": 273333.34700000065,
      "d": 396.8254166666884,
      "v": 115
    },
    {
      "midi": 47,
      "hit": false,
      "t": 273333.347000001,
      "d": 634.9206666666432,
      "v": 100
    },
    {
      "midi": 54,
      "hit": false,
      "t": 273333.347000001,
      "d": 634.9206666666432,
      "v": 100
    },
    {
      "midi": 40,
      "hit": false,
      "t": 273333.34700000327,
      "d": 7.936508333310485,
      "v": 127
    },
    {
      "midi": 42,
      "hit": false,
      "t": 273333.34700000327,
      "d": 7.936508333310485,
      "v": 100
    },
    {
      "midi": 35,
      "hit": false,
      "t": 273809.5374999997,
      "d": 412.69843333330937,
      "v": 110
    },
    {
      "midi": 73,
      "hit": false,
      "t": 273809.53750000056,
      "d": 436.50795833335724,
      "v": 112
    },
    {
      "midi": 47,
      "hit": false,
      "t": 273809.5375000007,
      "d": 396.8254166666884,
      "v": 115
    },
    {
      "midi": 59,
      "hit": false,
      "t": 273809.5375000007,
      "d": 396.8254166666884,
      "v": 115
    },
    {
      "midi": 66,
      "hit": false,
      "t": 273809.5375000007,
      "d": 396.8254166666884,
      "v": 115
    },
    {
      "midi": 62,
      "hit": false,
      "t": 273809.5375000007,
      "d": 396.8254166666884,
      "v": 115
    },
    {
      "midi": 54,
      "hit": false,
      "t": 273809.5375000007,
      "d": 396.8254166666884,
      "v": 115
    },
    {
      "midi": 42,
      "hit": false,
      "t": 273809.53750000324,
      "d": 7.936508333310485,
      "v": 100
    },
    {
      "midi": 47,
      "hit": false,
      "t": 274047.632750001,
      "d": 79.36508333333768,
      "v": 100
    },
    {
      "midi": 54,
      "hit": false,
      "t": 274047.632750001,
      "d": 79.36508333333768,
      "v": 100
    },
    {
      "midi": 59,
      "hit": false,
      "t": 274269.85498333257,
      "d": 436.50795833335724,
      "v": 117
    },
    {
      "midi": 62,
      "hit": false,
      "t": 274269.85498333257,
      "d": 436.50795833335724,
      "v": 117
    },
    {
      "midi": 67,
      "hit": false,
      "t": 274269.85498333257,
      "d": 436.50795833335724,
      "v": 117
    },
    {
      "midi": 31,
      "hit": false,
      "t": 274285.72799999965,
      "d": 412.69843333330937,
      "v": 115
    },
    {
      "midi": 74,
      "hit": false,
      "t": 274285.7280000006,
      "d": 436.50795833335724,
      "v": 112
    },
    {
      "midi": 43,
      "hit": false,
      "t": 274285.7280000007,
      "d": 396.8254166666884,
      "v": 115
    },
    {
      "midi": 50,
      "hit": false,
      "t": 274285.7280000007,
      "d": 396.8254166666884,
      "v": 115
    },
    {
      "midi": 59,
      "hit": false,
      "t": 274285.7280000007,
      "d": 396.8254166666884,
      "v": 115
    },
    {
      "midi": 55,
      "hit": false,
      "t": 274285.7280000007,
      "d": 396.8254166666884,
      "v": 115
    },
    {
      "midi": 47,
      "hit": false,
      "t": 274285.7280000007,
      "d": 396.8254166666884,
      "v": 115
    },
    {
      "midi": 43,
      "hit": false,
      "t": 274285.728000001,
      "d": 436.50795833335724,
      "v": 115
    },
    {
      "midi": 50,
      "hit": false,
      "t": 274285.728000001,
      "d": 436.50795833335724,
      "v": 115
    },
    {
      "midi": 2,
      "hit": false,
      "t": 274285.7280000032,
      "d": 7.936508333310485,
      "v": 120
    },
    {
      "midi": 42,
      "hit": false,
      "t": 274285.7280000032,
      "d": 7.936508333310485,
      "v": 115
    },
    {
      "midi": 59,
      "hit": false,
      "t": 274761.9184999993,
      "d": 436.50795833335724,
      "v": 117
    },
    {
      "midi": 31,
      "hit": false,
      "t": 274761.9184999996,
      "d": 412.69843333330937,
      "v": 110
    },
    {
      "midi": 74,
      "hit": false,
      "t": 274761.9185000006,
      "d": 436.50795833335724,
      "v": 112
    },
    {
      "midi": 43,
      "hit": false,
      "t": 274761.9185000007,
      "d": 396.8254166666884,
      "v": 115
    },
    {
      "midi": 50,
      "hit": false,
      "t": 274761.9185000007,
      "d": 396.8254166666884,
      "v": 115
    },
    {
      "midi": 59,
      "hit": false,
      "t": 274761.9185000007,
      "d": 396.8254166666884,
      "v": 115
    },
    {
      "midi": 55,
      "hit": false,
      "t": 274761.9185000007,
      "d": 396.8254166666884,
      "v": 115
    },
    {
      "midi": 47,
      "hit": false,
      "t": 274761.9185000007,
      "d": 396.8254166666884,
      "v": 115
    },
    {
      "midi": 43,
      "hit": false,
      "t": 274761.918500001,
      "d": 79.36508333333768,
      "v": 100
    },
    {
      "midi": 50,
      "hit": false,
      "t": 274761.918500001,
      "d": 79.36508333333768,
      "v": 100
    },
    {
      "midi": 42,
      "hit": false,
      "t": 274761.9185000032,
      "d": 7.936508333310485,
      "v": 100
    },
    {
      "midi": 62,
      "hit": false,
      "t": 275238.1089999993,
      "d": 436.50795833335724,
      "v": 117
    },
    {
      "midi": 31,
      "hit": false,
      "t": 275238.1089999996,
      "d": 412.69843333330937,
      "v": 110
    },
    {
      "midi": 73,
      "hit": false,
      "t": 275238.10900000064,
      "d": 873.0159166666563,
      "v": 112
    },
    {
      "midi": 43,
      "hit": false,
      "t": 275238.10900000075,
      "d": 396.8254166666884,
      "v": 115
    },
    {
      "midi": 50,
      "hit": false,
      "t": 275238.10900000075,
      "d": 396.8254166666884,
      "v": 115
    },
    {
      "midi": 59,
      "hit": false,
      "t": 275238.10900000075,
      "d": 396.8254166666884,
      "v": 115
    },
    {
      "midi": 55,
      "hit": false,
      "t": 275238.10900000075,
      "d": 396.8254166666884,
      "v": 115
    },
    {
      "midi": 47,
      "hit": false,
      "t": 275238.10900000075,
      "d": 396.8254166666884,
      "v": 115
    },
    {
      "midi": 43,
      "hit": false,
      "t": 275238.10900000104,
      "d": 436.50795833335724,
      "v": 115
    },
    {
      "midi": 50,
      "hit": false,
      "t": 275238.10900000104,
      "d": 436.50795833335724,
      "v": 115
    },
    {
      "midi": 40,
      "hit": false,
      "t": 275238.10900000314,
      "d": 7.936508333310485,
      "v": 127
    },
    {
      "midi": 42,
      "hit": false,
      "t": 275238.10900000314,
      "d": 7.936508333310485,
      "v": 100
    },
    {
      "midi": 67,
      "hit": false,
      "t": 275714.2994999993,
      "d": 436.50795833335724,
      "v": 117
    },
    {
      "midi": 31,
      "hit": false,
      "t": 275714.29949999956,
      "d": 412.69843333330937,
      "v": 110
    },
    {
      "midi": 43,
      "hit": false,
      "t": 275714.2995000008,
      "d": 396.8254166666884,
      "v": 115
    },
    {
      "midi": 50,
      "hit": false,
      "t": 275714.2995000008,
      "d": 396.8254166666884,
      "v": 115
    },
    {
      "midi": 59,
      "hit": false,
      "t": 275714.2995000008,
      "d": 396.8254166666884,
      "v": 115
    },
    {
      "midi": 55,
      "hit": false,
      "t": 275714.2995000008,
      "d": 396.8254166666884,
      "v": 115
    },
    {
      "midi": 47,
      "hit": false,
      "t": 275714.2995000008,
      "d": 396.8254166666884,
      "v": 115
    },
    {
      "midi": 43,
      "hit": false,
      "t": 275714.29950000107,
      "d": 198.4127083333442,
      "v": 115
    },
    {
      "midi": 50,
      "hit": false,
      "t": 275714.29950000107,
      "d": 198.4127083333442,
      "v": 115
    },
    {
      "midi": 42,
      "hit": false,
      "t": 275714.2995000031,
      "d": 7.936508333310485,
      "v": 100
    },
    {
      "midi": 50,
      "hit": false,
      "t": 275952.3947500011,
      "d": 198.4127083333442,
      "v": 115
    },
    {
      "midi": 43,
      "hit": false,
      "t": 275952.3947500011,
      "d": 198.4127083333442,
      "v": 115
    },
    {
      "midi": 59,
      "hit": false,
      "t": 276174.6169833327,
      "d": 436.50795833335724,
      "v": 117
    },
    {
      "midi": 64,
      "hit": false,
      "t": 276174.6169833327,
      "d": 436.50795833335724,
      "v": 117
    },
    {
      "midi": 68,
      "hit": false,
      "t": 276174.6169833327,
      "d": 436.50795833335724,
      "v": 117
    },
    {
      "midi": 32,
      "hit": false,
      "t": 276190.4899999995,
      "d": 412.69843333330937,
      "v": 110
    },
    {
      "midi": 74,
      "hit": false,
      "t": 276190.49000000063,
      "d": 873.0159166666563,
      "v": 112
    },
    {
      "midi": 56,
      "hit": false,
      "t": 276190.4900000008,
      "d": 396.8254166666884,
      "v": 115
    },
    {
      "midi": 68,
      "hit": false,
      "t": 276190.4900000008,
      "d": 396.8254166666884,
      "v": 115
    },
    {
      "midi": 64,
      "hit": false,
      "t": 276190.4900000008,
      "d": 396.8254166666884,
      "v": 115
    },
    {
      "midi": 59,
      "hit": false,
      "t": 276190.4900000008,
      "d": 396.8254166666884,
      "v": 115
    },
    {
      "midi": 44,
      "hit": false,
      "t": 276190.4900000011,
      "d": 436.50795833335724,
      "v": 115
    },
    {
      "midi": 52,
      "hit": false,
      "t": 276190.4900000011,
      "d": 436.50795833335724,
      "v": 115
    },
    {
      "midi": 2,
      "hit": false,
      "t": 276190.4900000031,
      "d": 7.936508333310485,
      "v": 120
    },
    {
      "midi": 42,
      "hit": false,
      "t": 276190.4900000031,
      "d": 7.936508333310485,
      "v": 115
    },
    {
      "midi": 59,
      "hit": false,
      "t": 276666.6804999994,
      "d": 436.50795833335724,
      "v": 117
    },
    {
      "midi": 32,
      "hit": false,
      "t": 276666.6804999995,
      "d": 412.69843333330937,
      "v": 110
    },
    {
      "midi": 56,
      "hit": false,
      "t": 276666.68050000083,
      "d": 396.8254166666884,
      "v": 115
    },
    {
      "midi": 68,
      "hit": false,
      "t": 276666.68050000083,
      "d": 396.8254166666884,
      "v": 115
    },
    {
      "midi": 64,
      "hit": false,
      "t": 276666.68050000083,
      "d": 396.8254166666884,
      "v": 115
    },
    {
      "midi": 59,
      "hit": false,
      "t": 276666.68050000083,
      "d": 396.8254166666884,
      "v": 115
    },
    {
      "midi": 44,
      "hit": false,
      "t": 276666.6805000011,
      "d": 79.36508333333768,
      "v": 100
    },
    {
      "midi": 52,
      "hit": false,
      "t": 276666.6805000011,
      "d": 79.36508333333768,
      "v": 100
    },
    {
      "midi": 42,
      "hit": false,
      "t": 276666.68050000304,
      "d": 7.936508333310485,
      "v": 100
    },
    {
      "midi": 64,
      "hit": false,
      "t": 277142.8709999994,
      "d": 436.50795833335724,
      "v": 117
    },
    {
      "midi": 32,
      "hit": false,
      "t": 277142.87099999946,
      "d": 412.69843333330937,
      "v": 110
    },
    {
      "midi": 78,
      "hit": false,
      "t": 277142.8710000006,
      "d": 436.50795833335724,
      "v": 112
    },
    {
      "midi": 56,
      "hit": false,
      "t": 277142.87100000086,
      "d": 396.8254166666884,
      "v": 115
    },
    {
      "midi": 68,
      "hit": false,
      "t": 277142.87100000086,
      "d": 396.8254166666884,
      "v": 115
    },
    {
      "midi": 64,
      "hit": false,
      "t": 277142.87100000086,
      "d": 396.8254166666884,
      "v": 115
    },
    {
      "midi": 59,
      "hit": false,
      "t": 277142.87100000086,
      "d": 396.8254166666884,
      "v": 115
    },
    {
      "midi": 44,
      "hit": false,
      "t": 277142.87100000115,
      "d": 436.50795833335724,
      "v": 115
    },
    {
      "midi": 52,
      "hit": false,
      "t": 277142.87100000115,
      "d": 436.50795833335724,
      "v": 115
    },
    {
      "midi": 40,
      "hit": false,
      "t": 277142.871000003,
      "d": 7.936508333310485,
      "v": 127
    },
    {
      "midi": 42,
      "hit": false,
      "t": 277142.871000003,
      "d": 7.936508333310485,
      "v": 100
    },
    {
      "midi": 32,
      "hit": false,
      "t": 277619.0614999994,
      "d": 412.69843333330937,
      "v": 110
    },
    {
      "midi": 67,
      "hit": false,
      "t": 277619.0614999994,
      "d": 436.50795833335724,
      "v": 117
    },
    {
      "midi": 76,
      "hit": false,
      "t": 277619.06150000065,
      "d": 436.50795833335724,
      "v": 112
    },
    {
      "midi": 56,
      "hit": false,
      "t": 277619.0615000009,
      "d": 396.8254166666884,
      "v": 115
    },
    {
      "midi": 68,
      "hit": false,
      "t": 277619.0615000009,
      "d": 396.8254166666884,
      "v": 115
    },
    {
      "midi": 64,
      "hit": false,
      "t": 277619.0615000009,
      "d": 396.8254166666884,
      "v": 115
    },
    {
      "midi": 59,
      "hit": false,
      "t": 277619.0615000009,
      "d": 396.8254166666884,
      "v": 115
    },
    {
      "midi": 44,
      "hit": false,
      "t": 277619.0615000012,
      "d": 198.4127083333442,
      "v": 115
    },
    {
      "midi": 52,
      "hit": false,
      "t": 277619.0615000012,
      "d": 198.4127083333442,
      "v": 115
    },
    {
      "midi": 42,
      "hit": false,
      "t": 277619.061500003,
      "d": 7.936508333310485,
      "v": 100
    },
    {
      "midi": 44,
      "hit": false,
      "t": 277857.1567500012,
      "d": 198.4127083333442,
      "v": 115
    },
    {
      "midi": 52,
      "hit": false,
      "t": 277857.1567500012,
      "d": 198.4127083333442,
      "v": 115
    },
    {
      "midi": 61,
      "hit": false,
      "t": 278079.3789833328,
      "d": 436.50795833335724,
      "v": 117
    },
    {
      "midi": 64,
      "hit": false,
      "t": 278079.3789833328,
      "d": 436.50795833335724,
      "v": 117
    },
    {
      "midi": 69,
      "hit": false,
      "t": 278079.3789833328,
      "d": 436.50795833335724,
      "v": 117
    },
    {
      "midi": 33,
      "hit": false,
      "t": 278095.2519999994,
      "d": 412.69843333330937,
      "v": 115
    },
    {
      "midi": 76,
      "hit": false,
      "t": 278095.2520000007,
      "d": 1920.6350166667253,
      "v": 112
    },
    {
      "midi": 45,
      "hit": false,
      "t": 278095.2520000009,
      "d": 396.8254166666884,
      "v": 115
    },
    {
      "midi": 57,
      "hit": false,
      "t": 278095.2520000009,
      "d": 396.8254166666884,
      "v": 115
    },
    {
      "midi": 64,
      "hit": false,
      "t": 278095.2520000009,
      "d": 396.8254166666884,
      "v": 115
    },
    {
      "midi": 61,
      "hit": false,
      "t": 278095.2520000009,
      "d": 396.8254166666884,
      "v": 115
    },
    {
      "midi": 52,
      "hit": false,
      "t": 278095.2520000009,
      "d": 396.8254166666884,
      "v": 115
    },
    {
      "midi": 45,
      "hit": false,
      "t": 278095.2520000012,
      "d": 436.50795833335724,
      "v": 115
    },
    {
      "midi": 52,
      "hit": false,
      "t": 278095.2520000012,
      "d": 436.50795833335724,
      "v": 115
    },
    {
      "midi": 2,
      "hit": false,
      "t": 278095.25200000295,
      "d": 7.936508333310485,
      "v": 120
    },
    {
      "midi": 42,
      "hit": false,
      "t": 278095.25200000295,
      "d": 7.936508333310485,
      "v": 115
    },
    {
      "midi": 33,
      "hit": false,
      "t": 278571.44249999936,
      "d": 412.69843333330937,
      "v": 110
    },
    {
      "midi": 61,
      "hit": false,
      "t": 278571.4424999995,
      "d": 436.50795833335724,
      "v": 117
    },
    {
      "midi": 45,
      "hit": false,
      "t": 278571.44250000094,
      "d": 396.8254166666884,
      "v": 115
    },
    {
      "midi": 57,
      "hit": false,
      "t": 278571.44250000094,
      "d": 396.8254166666884,
      "v": 115
    },
    {
      "midi": 64,
      "hit": false,
      "t": 278571.44250000094,
      "d": 396.8254166666884,
      "v": 115
    },
    {
      "midi": 61,
      "hit": false,
      "t": 278571.44250000094,
      "d": 396.8254166666884,
      "v": 115
    },
    {
      "midi": 52,
      "hit": false,
      "t": 278571.44250000094,
      "d": 396.8254166666884,
      "v": 115
    },
    {
      "midi": 45,
      "hit": false,
      "t": 278571.4425000012,
      "d": 79.36508333333768,
      "v": 100
    },
    {
      "midi": 52,
      "hit": false,
      "t": 278571.4425000012,
      "d": 79.36508333333768,
      "v": 100
    },
    {
      "midi": 42,
      "hit": false,
      "t": 278571.4425000029,
      "d": 7.936508333310485,
      "v": 100
    },
    {
      "midi": 33,
      "hit": false,
      "t": 279047.63299999933,
      "d": 412.69843333330937,
      "v": 110
    },
    {
      "midi": 64,
      "hit": false,
      "t": 279047.6329999995,
      "d": 436.50795833335724,
      "v": 117
    },
    {
      "midi": 45,
      "hit": false,
      "t": 279047.63300000096,
      "d": 396.8254166666884,
      "v": 115
    },
    {
      "midi": 57,
      "hit": false,
      "t": 279047.63300000096,
      "d": 396.8254166666884,
      "v": 115
    },
    {
      "midi": 64,
      "hit": false,
      "t": 279047.63300000096,
      "d": 396.8254166666884,
      "v": 115
    },
    {
      "midi": 61,
      "hit": false,
      "t": 279047.63300000096,
      "d": 396.8254166666884,
      "v": 115
    },
    {
      "midi": 52,
      "hit": false,
      "t": 279047.63300000096,
      "d": 396.8254166666884,
      "v": 115
    },
    {
      "midi": 45,
      "hit": false,
      "t": 279047.63300000125,
      "d": 436.50795833335724,
      "v": 115
    },
    {
      "midi": 52,
      "hit": false,
      "t": 279047.63300000125,
      "d": 436.50795833335724,
      "v": 115
    },
    {
      "midi": 40,
      "hit": false,
      "t": 279047.6330000029,
      "d": 7.936508333310485,
      "v": 127
    },
    {
      "midi": 42,
      "hit": false,
      "t": 279047.6330000029,
      "d": 7.936508333310485,
      "v": 100
    },
    {
      "midi": 33,
      "hit": false,
      "t": 279523.8234999993,
      "d": 412.69843333330937,
      "v": 110
    },
    {
      "midi": 69,
      "hit": false,
      "t": 279523.82349999953,
      "d": 436.50795833335724,
      "v": 117
    },
    {
      "midi": 45,
      "hit": false,
      "t": 279523.823500001,
      "d": 396.8254166666884,
      "v": 115
    },
    {
      "midi": 57,
      "hit": false,
      "t": 279523.823500001,
      "d": 396.8254166666884,
      "v": 115
    },
    {
      "midi": 64,
      "hit": false,
      "t": 279523.823500001,
      "d": 396.8254166666884,
      "v": 115
    },
    {
      "midi": 61,
      "hit": false,
      "t": 279523.823500001,
      "d": 396.8254166666884,
      "v": 115
    },
    {
      "midi": 52,
      "hit": false,
      "t": 279523.823500001,
      "d": 396.8254166666884,
      "v": 115
    },
    {
      "midi": 45,
      "hit": false,
      "t": 279523.8235000013,
      "d": 198.4127083333442,
      "v": 115
    },
    {
      "midi": 52,
      "hit": false,
      "t": 279523.8235000013,
      "d": 198.4127083333442,
      "v": 115
    },
    {
      "midi": 42,
      "hit": false,
      "t": 279523.82350000285,
      "d": 7.936508333310485,
      "v": 100
    },
    {
      "midi": 52,
      "hit": false,
      "t": 279761.9187500013,
      "d": 198.4127083333442,
      "v": 115
    },
    {
      "midi": 45,
      "hit": false,
      "t": 279761.9187500013,
      "d": 198.4127083333442,
      "v": 115
    },
    {
      "midi": 61,
      "hit": false,
      "t": 279984.1409833329,
      "d": 634.9206666666432,
      "v": 123
    },
    {
      "midi": 70,
      "hit": false,
      "t": 279984.1409833329,
      "d": 634.9206666666432,
      "v": 123
    },
    {
      "midi": 30,
      "hit": false,
      "t": 280000.01399999927,
      "d": 412.69843333330937,
      "v": 110
    },
    {
      "midi": 42,
      "hit": false,
      "t": 280000.014000001,
      "d": 396.8254166666884,
      "v": 115
    },
    {
      "midi": 61,
      "hit": false,
      "t": 280000.014000001,
      "d": 396.8254166666884,
      "v": 115
    },
    {
      "midi": 58,
      "hit": false,
      "t": 280000.014000001,
      "d": 396.8254166666884,
      "v": 115
    },
    {
      "midi": 66,
      "hit": false,
      "t": 280000.014000001,
      "d": 396.8254166666884,
      "v": 115
    },
    {
      "midi": 49,
      "hit": false,
      "t": 280000.014000001,
      "d": 396.8254166666884,
      "v": 115
    },
    {
      "midi": 54,
      "hit": false,
      "t": 280000.014000001,
      "d": 396.8254166666884,
      "v": 115
    },
    {
      "midi": 42,
      "hit": false,
      "t": 280000.0140000013,
      "d": 436.50795833335724,
      "v": 115
    },
    {
      "midi": 49,
      "hit": false,
      "t": 280000.0140000013,
      "d": 436.50795833335724,
      "v": 115
    },
    {
      "midi": 2,
      "hit": false,
      "t": 280000.0140000028,
      "d": 7.936508333310485,
      "v": 120
    },
    {
      "midi": 42,
      "hit": false,
      "t": 280000.0140000028,
      "d": 7.936508333310485,
      "v": 115
    },
    {
      "midi": 42,
      "hit": false,
      "t": 280476.20449999924,
      "d": 412.69843333330937,
      "v": 110
    },
    {
      "midi": 66,
      "hit": false,
      "t": 280476.2045000004,
      "d": 436.50795833335724,
      "v": 108
    },
    {
      "midi": 66,
      "hit": false,
      "t": 280476.20450000075,
      "d": 436.50795833335724,
      "v": 112
    },
    {
      "midi": 42,
      "hit": false,
      "t": 280476.20450000104,
      "d": 396.8254166666884,
      "v": 115
    },
    {
      "midi": 61,
      "hit": false,
      "t": 280476.20450000104,
      "d": 396.8254166666884,
      "v": 115
    },
    {
      "midi": 58,
      "hit": false,
      "t": 280476.20450000104,
      "d": 396.8254166666884,
      "v": 115
    },
    {
      "midi": 66,
      "hit": false,
      "t": 280476.20450000104,
      "d": 396.8254166666884,
      "v": 115
    },
    {
      "midi": 49,
      "hit": false,
      "t": 280476.20450000104,
      "d": 396.8254166666884,
      "v": 115
    },
    {
      "midi": 54,
      "hit": false,
      "t": 280476.20450000104,
      "d": 396.8254166666884,
      "v": 115
    },
    {
      "midi": 42,
      "hit": false,
      "t": 280476.20450000133,
      "d": 79.36508333333768,
      "v": 100
    },
    {
      "midi": 49,
      "hit": false,
      "t": 280476.20450000133,
      "d": 79.36508333333768,
      "v": 100
    },
    {
      "midi": 47,
      "hit": false,
      "t": 280476.2045000028,
      "d": 7.936508333310485,
      "v": 127
    },
    {
      "midi": 42,
      "hit": false,
      "t": 280476.2045000028,
      "d": 7.936508333310485,
      "v": 100
    },
    {
      "midi": 62,
      "hit": false,
      "t": 280714.29974999954,
      "d": 634.9206666666432,
      "v": 123
    },
    {
      "midi": 71,
      "hit": false,
      "t": 280714.29974999954,
      "d": 634.9206666666432,
      "v": 123
    },
    {
      "midi": 37,
      "hit": false,
      "t": 280952.3949999992,
      "d": 412.69843333330937,
      "v": 110
    },
    {
      "midi": 69,
      "hit": false,
      "t": 280952.3950000004,
      "d": 436.50795833335724,
      "v": 108
    },
    {
      "midi": 78,
      "hit": false,
      "t": 280952.3950000008,
      "d": 436.50795833335724,
      "v": 112
    },
    {
      "midi": 42,
      "hit": false,
      "t": 280952.39500000107,
      "d": 873.0159166666563,
      "v": 115
    },
    {
      "midi": 61,
      "hit": false,
      "t": 280952.39500000107,
      "d": 873.0159166666563,
      "v": 115
    },
    {
      "midi": 58,
      "hit": false,
      "t": 280952.39500000107,
      "d": 873.0159166666563,
      "v": 115
    },
    {
      "midi": 66,
      "hit": false,
      "t": 280952.39500000107,
      "d": 873.0159166666563,
      "v": 115
    },
    {
      "midi": 49,
      "hit": false,
      "t": 280952.39500000107,
      "d": 873.0159166666563,
      "v": 115
    },
    {
      "midi": 54,
      "hit": false,
      "t": 280952.39500000107,
      "d": 873.0159166666563,
      "v": 115
    },
    {
      "midi": 42,
      "hit": false,
      "t": 280952.39500000136,
      "d": 873.0159166666563,
      "v": 100
    },
    {
      "midi": 49,
      "hit": false,
      "t": 280952.39500000136,
      "d": 873.0159166666563,
      "v": 100
    },
    {
      "midi": 40,
      "hit": false,
      "t": 280952.39500000275,
      "d": 7.936508333310485,
      "v": 127
    },
    {
      "midi": 42,
      "hit": false,
      "t": 280952.39500000275,
      "d": 7.936508333310485,
      "v": 100
    },
    {
      "midi": 30,
      "hit": false,
      "t": 281428.5854999992,
      "d": 412.69843333330937,
      "v": 110
    },
    {
      "midi": 64,
      "hit": false,
      "t": 281428.5854999995,
      "d": 436.50795833335724,
      "v": 123
    },
    {
      "midi": 73,
      "hit": false,
      "t": 281428.5854999995,
      "d": 436.50795833335724,
      "v": 123
    },
    {
      "midi": 69,
      "hit": false,
      "t": 281428.58550000045,
      "d": 436.50795833335724,
      "v": 108
    },
    {
      "midi": 76,
      "hit": false,
      "t": 281428.5855000008,
      "d": 436.50795833335724,
      "v": 112
    },
    {
      "midi": 43,
      "hit": false,
      "t": 281428.5855000027,
      "d": 7.936508333310485,
      "v": 127
    },
    {
      "midi": 42,
      "hit": false,
      "t": 281428.5855000027,
      "d": 7.936508333310485,
      "v": 100
    },
    {
      "midi": 62,
      "hit": false,
      "t": 281888.90298333287,
      "d": 2777.777916666644,
      "v": 110
    },
    {
      "midi": 74,
      "hit": false,
      "t": 281888.90298333287,
      "d": 2777.777916666644,
      "v": 110
    },
    {
      "midi": 71,
      "hit": false,
      "t": 281888.90298333287,
      "d": 2777.777916666644,
      "v": 110
    },
    {
      "midi": 67,
      "hit": false,
      "t": 281888.90298333287,
      "d": 2777.777916666644,
      "v": 110
    },
    {
      "midi": 31,
      "hit": false,
      "t": 281904.77599999914,
      "d": 412.69843333330937,
      "v": 115
    },
    {
      "midi": 67,
      "hit": false,
      "t": 281904.77599999995,
      "d": 5674.603458333353,
      "v": 115
    },
    {
      "midi": 67,
      "hit": false,
      "t": 281904.7760000005,
      "d": 873.0159166666563,
      "v": 108
    },
    {
      "midi": 55,
      "hit": false,
      "t": 281904.77600000077,
      "d": 119.04762500000652,
      "v": 115
    },
    {
      "midi": 74,
      "hit": false,
      "t": 281904.7760000008,
      "d": 873.0159166666563,
      "v": 112
    },
    {
      "midi": 43,
      "hit": false,
      "t": 281904.77600000135,
      "d": 436.50795833329903,
      "v": 115
    },
    {
      "midi": 50,
      "hit": false,
      "t": 281904.77600000135,
      "d": 436.50795833329903,
      "v": 115
    },
    {
      "midi": 2,
      "hit": false,
      "t": 281904.7760000027,
      "d": 7.936508333310485,
      "v": 120
    },
    {
      "midi": 57,
      "hit": false,
      "t": 281904.7760000027,
      "d": 7.936508333310485,
      "v": 115
    },
    {
      "midi": 31,
      "hit": false,
      "t": 282380.9664999991,
      "d": 412.69843333330937,
      "v": 110
    },
    {
      "midi": 62,
      "hit": false,
      "t": 282380.9665000008,
      "d": 436.50795833335724,
      "v": 120
    },
    {
      "midi": 43,
      "hit": false,
      "t": 282380.9665000013,
      "d": 79.36508333333768,
      "v": 100
    },
    {
      "midi": 50,
      "hit": false,
      "t": 282380.9665000013,
      "d": 79.36508333333768,
      "v": 100
    },
    {
      "midi": 42,
      "hit": false,
      "t": 282380.96650000266,
      "d": 7.936508333310485,
      "v": 100
    },
    {
      "midi": 31,
      "hit": false,
      "t": 282857.1569999991,
      "d": 412.69843333330937,
      "v": 110
    },
    {
      "midi": 57,
      "hit": false,
      "t": 282857.1570000008,
      "d": 119.04762500000652,
      "v": 115
    },
    {
      "midi": 43,
      "hit": false,
      "t": 282857.15700000135,
      "d": 79.36508333333768,
      "v": 100
    },
    {
      "midi": 50,
      "hit": false,
      "t": 282857.15700000135,
      "d": 79.36508333333768,
      "v": 100
    },
    {
      "midi": 40,
      "hit": false,
      "t": 282857.1570000026,
      "d": 7.936508333310485,
      "v": 127
    },
    {
      "midi": 42,
      "hit": false,
      "t": 282857.1570000026,
      "d": 7.936508333310485,
      "v": 100
    },
    {
      "midi": 31,
      "hit": false,
      "t": 283333.34749999904,
      "d": 412.69843333330937,
      "v": 110
    },
    {
      "midi": 66,
      "hit": false,
      "t": 283333.34750000044,
      "d": 436.50795833335724,
      "v": 108
    },
    {
      "midi": 73,
      "hit": false,
      "t": 283333.3475000008,
      "d": 436.50795833335724,
      "v": 112
    },
    {
      "midi": 55,
      "hit": false,
      "t": 283333.34750000085,
      "d": 119.04762500000652,
      "v": 115
    },
    {
      "midi": 43,
      "hit": false,
      "t": 283333.3475000014,
      "d": 79.36508333333768,
      "v": 100
    },
    {
      "midi": 50,
      "hit": false,
      "t": 283333.3475000014,
      "d": 79.36508333333768,
      "v": 100
    },
    {
      "midi": 42,
      "hit": false,
      "t": 283333.3475000026,
      "d": 7.936508333310485,
      "v": 100
    },
    {
      "midi": 31,
      "hit": false,
      "t": 283809.537999999,
      "d": 412.6984333333676,
      "v": 110
    },
    {
      "midi": 67,
      "hit": false,
      "t": 283809.53800000047,
      "d": 436.50795833335724,
      "v": 108
    },
    {
      "midi": 74,
      "hit": false,
      "t": 283809.5380000008,
      "d": 436.50795833335724,
      "v": 112
    },
    {
      "midi": 62,
      "hit": false,
      "t": 283809.5380000009,
      "d": 436.50795833335724,
      "v": 120
    },
    {
      "midi": 43,
      "hit": false,
      "t": 283809.5380000014,
      "d": 79.36508333333768,
      "v": 100
    },
    {
      "midi": 50,
      "hit": false,
      "t": 283809.5380000014,
      "d": 79.36508333333768,
      "v": 100
    },
    {
      "midi": 2,
      "hit": false,
      "t": 283809.53800000256,
      "d": 7.936508333310485,
      "v": 120
    },
    {
      "midi": 42,
      "hit": false,
      "t": 283809.53800000256,
      "d": 7.936508333310485,
      "v": 115
    },
    {
      "midi": 31,
      "hit": false,
      "t": 284285.72849999904,
      "d": 412.69843333330937,
      "v": 110
    },
    {
      "midi": 67,
      "hit": false,
      "t": 284285.7285000005,
      "d": 436.50795833335724,
      "v": 108
    },
    {
      "midi": 74,
      "hit": false,
      "t": 284285.72850000084,
      "d": 436.50795833335724,
      "v": 112
    },
    {
      "midi": 57,
      "hit": false,
      "t": 284285.7285000009,
      "d": 119.04762500000652,
      "v": 115
    },
    {
      "midi": 43,
      "hit": false,
      "t": 284285.7285000014,
      "d": 79.36508333333768,
      "v": 100
    },
    {
      "midi": 50,
      "hit": false,
      "t": 284285.7285000014,
      "d": 79.36508333333768,
      "v": 100
    },
    {
      "midi": 2,
      "hit": false,
      "t": 284285.72850000253,
      "d": 7.936508333310485,
      "v": 120
    },
    {
      "midi": 42,
      "hit": false,
      "t": 284285.72850000253,
      "d": 7.936508333310485,
      "v": 100
    },
    {
      "midi": 31,
      "hit": false,
      "t": 284761.918999999,
      "d": 412.69843333330937,
      "v": 110
    },
    {
      "midi": 55,
      "hit": false,
      "t": 284761.9190000009,
      "d": 119.04762500000652,
      "v": 115
    },
    {
      "midi": 43,
      "hit": false,
      "t": 284761.91900000145,
      "d": 79.36508333333768,
      "v": 100
    },
    {
      "midi": 50,
      "hit": false,
      "t": 284761.91900000145,
      "d": 79.36508333333768,
      "v": 100
    },
    {
      "midi": 40,
      "hit": false,
      "t": 284761.9190000025,
      "d": 7.936508333310485,
      "v": 127
    },
    {
      "midi": 42,
      "hit": false,
      "t": 284761.9190000025,
      "d": 7.936508333310485,
      "v": 100
    },
    {
      "midi": 71,
      "hit": false,
      "t": 285222.2364833328,
      "d": 214.28572500002338,
      "v": 95
    },
    {
      "midi": 79,
      "hit": false,
      "t": 285222.2364833328,
      "d": 214.28572500002338,
      "v": 95
    },
    {
      "midi": 83,
      "hit": false,
      "t": 285222.2364833328,
      "d": 214.28572500002338,
      "v": 95
    },
    {
      "midi": 81,
      "hit": false,
      "t": 285222.2364833328,
      "d": 214.28572500002338,
      "v": 95
    },
    {
      "midi": 74,
      "hit": false,
      "t": 285222.2364833328,
      "d": 214.28572500002338,
      "v": 95
    },
    {
      "midi": 31,
      "hit": false,
      "t": 285238.109499999,
      "d": 412.69843333330937,
      "v": 110
    },
    {
      "midi": 66,
      "hit": false,
      "t": 285238.10950000054,
      "d": 436.50795833335724,
      "v": 108
    },
    {
      "midi": 73,
      "hit": false,
      "t": 285238.1095000009,
      "d": 436.50795833335724,
      "v": 112
    },
    {
      "midi": 57,
      "hit": false,
      "t": 285238.10950000095,
      "d": 119.04762500000652,
      "v": 115
    },
    {
      "midi": 43,
      "hit": false,
      "t": 285238.1095000015,
      "d": 79.36508333333768,
      "v": 100
    },
    {
      "midi": 50,
      "hit": false,
      "t": 285238.1095000015,
      "d": 79.36508333333768,
      "v": 100
    },
    {
      "midi": 42,
      "hit": false,
      "t": 285238.10950000247,
      "d": 7.936508333310485,
      "v": 100
    },
    {
      "midi": 71,
      "hit": false,
      "t": 285460.33173333283,
      "d": 214.28572500002338,
      "v": 100
    },
    {
      "midi": 83,
      "hit": false,
      "t": 285460.33173333283,
      "d": 214.28572500002338,
      "v": 100
    },
    {
      "midi": 81,
      "hit": false,
      "t": 285460.33173333283,
      "d": 214.28572500002338,
      "v": 100
    },
    {
      "midi": 86,
      "hit": false,
      "t": 285460.33173333283,
      "d": 214.28572500002338,
      "v": 100
    },
    {
      "midi": 74,
      "hit": false,
      "t": 285460.33173333283,
      "d": 214.28572500002338,
      "v": 100
    },
    {
      "midi": 79,
      "hit": false,
      "t": 285460.33173333283,
      "d": 214.28572500002338,
      "v": 100
    },
    {
      "midi": 86,
      "hit": false,
      "t": 285690.49047499953,
      "d": 3730.158916666638,
      "v": 110
    },
    {
      "midi": 81,
      "hit": false,
      "t": 285690.49047499953,
      "d": 3730.158916666638,
      "v": 110
    },
    {
      "midi": 79,
      "hit": false,
      "t": 285690.49047499953,
      "d": 3730.158916666638,
      "v": 110
    },
    {
      "midi": 83,
      "hit": false,
      "t": 285690.49047499953,
      "d": 3730.158916666638,
      "v": 110
    },
    {
      "midi": 71,
      "hit": false,
      "t": 285690.49047499953,
      "d": 3730.158916666638,
      "v": 110
    },
    {
      "midi": 74,
      "hit": false,
      "t": 285690.49047499953,
      "d": 3730.158916666638,
      "v": 110
    },
    {
      "midi": 31,
      "hit": false,
      "t": 285714.29999999894,
      "d": 412.6984333333676,
      "v": 115
    },
    {
      "midi": 67,
      "hit": false,
      "t": 285714.30000000057,
      "d": 436.50795833335724,
      "v": 108
    },
    {
      "midi": 74,
      "hit": false,
      "t": 285714.3000000009,
      "d": 436.50795833335724,
      "v": 112
    },
    {
      "midi": 55,
      "hit": false,
      "t": 285714.300000001,
      "d": 119.04762500000652,
      "v": 115
    },
    {
      "midi": 43,
      "hit": false,
      "t": 285714.3000000015,
      "d": 79.36508333333768,
      "v": 100
    },
    {
      "midi": 50,
      "hit": false,
      "t": 285714.3000000015,
      "d": 79.36508333333768,
      "v": 100
    },
    {
      "midi": 2,
      "hit": false,
      "t": 285714.30000000243,
      "d": 7.936508333310485,
      "v": 120
    },
    {
      "midi": 42,
      "hit": false,
      "t": 285714.30000000243,
      "d": 7.936508333310485,
      "v": 115
    },
    {
      "midi": 31,
      "hit": false,
      "t": 286190.49049999897,
      "d": 412.69843333330937,
      "v": 110
    },
    {
      "midi": 67,
      "hit": false,
      "t": 286190.4905000006,
      "d": 436.50795833335724,
      "v": 108
    },
    {
      "midi": 74,
      "hit": false,
      "t": 286190.49050000095,
      "d": 436.50795833335724,
      "v": 112
    },
    {
      "midi": 62,
      "hit": false,
      "t": 286190.490500001,
      "d": 436.50795833335724,
      "v": 120
    },
    {
      "midi": 43,
      "hit": false,
      "t": 286190.4905000015,
      "d": 79.36508333333768,
      "v": 100
    },
    {
      "midi": 50,
      "hit": false,
      "t": 286190.4905000015,
      "d": 79.36508333333768,
      "v": 100
    },
    {
      "midi": 42,
      "hit": false,
      "t": 286190.4905000024,
      "d": 7.936508333310485,
      "v": 100
    },
    {
      "midi": 31,
      "hit": false,
      "t": 286666.68099999893,
      "d": 412.69843333330937,
      "v": 110
    },
    {
      "midi": 57,
      "hit": false,
      "t": 286666.68100000103,
      "d": 119.04762500000652,
      "v": 115
    },
    {
      "midi": 50,
      "hit": false,
      "t": 286666.68100000155,
      "d": 79.36508333333768,
      "v": 100
    },
    {
      "midi": 43,
      "hit": false,
      "t": 286666.68100000155,
      "d": 79.36508333333768,
      "v": 100
    },
    {
      "midi": 40,
      "hit": false,
      "t": 286666.68100000237,
      "d": 7.936508333310485,
      "v": 127
    },
    {
      "midi": 42,
      "hit": false,
      "t": 286666.68100000237,
      "d": 7.936508333310485,
      "v": 100
    },
    {
      "midi": 31,
      "hit": false,
      "t": 287142.87149999896,
      "d": 412.6984333333676,
      "v": 110
    },
    {
      "midi": 66,
      "hit": false,
      "t": 287142.87150000065,
      "d": 436.50795833335724,
      "v": 108
    },
    {
      "midi": 73,
      "hit": false,
      "t": 287142.871500001,
      "d": 436.50795833335724,
      "v": 112
    },
    {
      "midi": 55,
      "hit": false,
      "t": 287142.87150000106,
      "d": 119.04762500000652,
      "v": 115
    },
    {
      "midi": 43,
      "hit": false,
      "t": 287142.8715000016,
      "d": 79.36508333333768,
      "v": 100
    },
    {
      "midi": 50,
      "hit": false,
      "t": 287142.8715000016,
      "d": 79.36508333333768,
      "v": 100
    },
    {
      "midi": 42,
      "hit": false,
      "t": 287142.87150000234,
      "d": 7.936508333310485,
      "v": 100
    },
    {
      "midi": 31,
      "hit": false,
      "t": 287619.061999999,
      "d": 412.69843333330937,
      "v": 110
    },
    {
      "midi": 71,
      "hit": false,
      "t": 287619.062,
      "d": 1888.8889833333087,
      "v": 115
    },
    {
      "midi": 67,
      "hit": false,
      "t": 287619.0620000007,
      "d": 436.50795833335724,
      "v": 108
    },
    {
      "midi": 74,
      "hit": false,
      "t": 287619.062000001,
      "d": 436.50795833335724,
      "v": 112
    },
    {
      "midi": 62,
      "hit": false,
      "t": 287619.0620000011,
      "d": 436.50795833335724,
      "v": 120
    },
    {
      "midi": 43,
      "hit": false,
      "t": 287619.0620000016,
      "d": 79.36508333333768,
      "v": 100
    },
    {
      "midi": 50,
      "hit": false,
      "t": 287619.0620000016,
      "d": 79.36508333333768,
      "v": 100
    },
    {
      "midi": 2,
      "hit": false,
      "t": 287619.0620000023,
      "d": 7.936508333310485,
      "v": 120
    },
    {
      "midi": 42,
      "hit": false,
      "t": 287619.0620000023,
      "d": 7.936508333310485,
      "v": 115
    },
    {
      "midi": 43,
      "hit": false,
      "t": 287857.1572500016,
      "d": 79.36508333333768,
      "v": 100
    },
    {
      "midi": 50,
      "hit": false,
      "t": 287857.1572500016,
      "d": 79.36508333333768,
      "v": 100
    },
    {
      "midi": 31,
      "hit": false,
      "t": 288095.25249999895,
      "d": 412.69843333330937,
      "v": 110
    },
    {
      "midi": 66,
      "hit": false,
      "t": 288095.2525000007,
      "d": 436.50795833335724,
      "v": 108
    },
    {
      "midi": 73,
      "hit": false,
      "t": 288095.25250000105,
      "d": 436.50795833335724,
      "v": 112
    },
    {
      "midi": 57,
      "hit": false,
      "t": 288095.2525000011,
      "d": 119.04762500000652,
      "v": 115
    },
    {
      "midi": 43,
      "hit": false,
      "t": 288095.25250000163,
      "d": 79.36508333333768,
      "v": 100
    },
    {
      "midi": 50,
      "hit": false,
      "t": 288095.25250000163,
      "d": 79.36508333333768,
      "v": 100
    },
    {
      "midi": 2,
      "hit": false,
      "t": 288095.2525000023,
      "d": 7.936508333310485,
      "v": 120
    },
    {
      "midi": 42,
      "hit": false,
      "t": 288095.2525000023,
      "d": 7.936508333310485,
      "v": 100
    },
    {
      "midi": 38,
      "hit": false,
      "t": 288571.4429999989,
      "d": 412.69843333330937,
      "v": 110
    },
    {
      "midi": 67,
      "hit": false,
      "t": 288571.4430000007,
      "d": 436.50795833335724,
      "v": 108
    },
    {
      "midi": 74,
      "hit": false,
      "t": 288571.4430000011,
      "d": 436.50795833335724,
      "v": 112
    },
    {
      "midi": 55,
      "hit": false,
      "t": 288571.44300000113,
      "d": 119.04762500000652,
      "v": 115
    },
    {
      "midi": 43,
      "hit": false,
      "t": 288571.44300000166,
      "d": 79.36508333333768,
      "v": 100
    },
    {
      "midi": 50,
      "hit": false,
      "t": 288571.44300000166,
      "d": 79.36508333333768,
      "v": 100
    },
    {
      "midi": 40,
      "hit": false,
      "t": 288571.44300000224,
      "d": 7.936508333310485,
      "v": 127
    },
    {
      "midi": 42,
      "hit": false,
      "t": 288571.44300000224,
      "d": 7.936508333310485,
      "v": 100
    },
    {
      "midi": 31,
      "hit": false,
      "t": 289047.6334999989,
      "d": 412.69843333330937,
      "v": 110
    },
    {
      "midi": 69,
      "hit": false,
      "t": 289047.63350000075,
      "d": 436.50795833335724,
      "v": 108
    },
    {
      "midi": 76,
      "hit": false,
      "t": 289047.6335000011,
      "d": 436.50795833335724,
      "v": 112
    },
    {
      "midi": 57,
      "hit": false,
      "t": 289047.63350000116,
      "d": 119.04762500000652,
      "v": 115
    },
    {
      "midi": 50,
      "hit": false,
      "t": 289047.6335000017,
      "d": 79.36508333333768,
      "v": 100
    },
    {
      "midi": 43,
      "hit": false,
      "t": 289047.6335000017,
      "d": 79.36508333333768,
      "v": 100
    },
    {
      "midi": 46,
      "hit": false,
      "t": 289047.6335000022,
      "d": 7.936508333310485,
      "v": 100
    },
    {
      "midi": 57,
      "hit": false,
      "t": 289507.9509833328,
      "d": 2777.777916666644,
      "v": 110
    },
    {
      "midi": 64,
      "hit": false,
      "t": 289507.9509833328,
      "d": 2777.777916666644,
      "v": 110
    },
    {
      "midi": 69,
      "hit": false,
      "t": 289507.9509833328,
      "d": 2777.777916666644,
      "v": 110
    },
    {
      "midi": 66,
      "hit": false,
      "t": 289507.9509833328,
      "d": 2777.777916666644,
      "v": 110
    },
    {
      "midi": 62,
      "hit": false,
      "t": 289507.9509833328,
      "d": 2777.777916666644,
      "v": 110
    },
    {
      "midi": 30,
      "hit": false,
      "t": 289523.82399999886,
      "d": 412.69843333330937,
      "v": 115
    },
    {
      "midi": 69,
      "hit": false,
      "t": 289523.82399999996,
      "d": 5674.603458333353,
      "v": 115
    },
    {
      "midi": 66,
      "hit": false,
      "t": 289523.8240000008,
      "d": 436.50795833335724,
      "v": 108
    },
    {
      "midi": 74,
      "hit": false,
      "t": 289523.8240000011,
      "d": 436.50795833335724,
      "v": 112
    },
    {
      "midi": 54,
      "hit": false,
      "t": 289523.8240000012,
      "d": 119.04762500000652,
      "v": 115
    },
    {
      "midi": 42,
      "hit": false,
      "t": 289523.8240000017,
      "d": 79.36508333333768,
      "v": 100
    },
    {
      "midi": 50,
      "hit": false,
      "t": 289523.8240000017,
      "d": 79.36508333333768,
      "v": 100
    },
    {
      "midi": 2,
      "hit": false,
      "t": 289523.8240000022,
      "d": 7.936508333310485,
      "v": 120
    },
    {
      "midi": 42,
      "hit": false,
      "t": 289523.8240000022,
      "d": 7.936508333310485,
      "v": 115
    },
    {
      "midi": 42,
      "hit": false,
      "t": 289761.9192500017,
      "d": 79.36508333333768,
      "v": 100
    },
    {
      "midi": 50,
      "hit": false,
      "t": 289761.9192500017,
      "d": 79.36508333333768,
      "v": 100
    },
    {
      "midi": 30,
      "hit": false,
      "t": 290000.0144999988,
      "d": 412.69843333330937,
      "v": 110
    },
    {
      "midi": 66,
      "hit": false,
      "t": 290000.0145000008,
      "d": 436.50795833335724,
      "v": 108
    },
    {
      "midi": 74,
      "hit": false,
      "t": 290000.01450000115,
      "d": 436.50795833335724,
      "v": 112
    },
    {
      "midi": 62,
      "hit": false,
      "t": 290000.0145000012,
      "d": 436.50795833335724,
      "v": 120
    },
    {
      "midi": 42,
      "hit": false,
      "t": 290000.01450000174,
      "d": 79.36508333333768,
      "v": 100
    },
    {
      "midi": 50,
      "hit": false,
      "t": 290000.01450000174,
      "d": 79.36508333333768,
      "v": 100
    },
    {
      "midi": 42,
      "hit": false,
      "t": 290000.01450000214,
      "d": 7.936508333310485,
      "v": 100
    },
    {
      "midi": 30,
      "hit": false,
      "t": 290476.2049999988,
      "d": 412.69843333330937,
      "v": 110
    },
    {
      "midi": 66,
      "hit": false,
      "t": 290476.20500000083,
      "d": 436.50795833335724,
      "v": 108
    },
    {
      "midi": 74,
      "hit": false,
      "t": 290476.2050000012,
      "d": 436.50795833335724,
      "v": 112
    },
    {
      "midi": 57,
      "hit": false,
      "t": 290476.20500000124,
      "d": 119.04762500000652,
      "v": 115
    },
    {
      "midi": 42,
      "hit": false,
      "t": 290476.20500000176,
      "d": 79.36508333333768,
      "v": 100
    },
    {
      "midi": 50,
      "hit": false,
      "t": 290476.20500000176,
      "d": 79.36508333333768,
      "v": 100
    },
    {
      "midi": 40,
      "hit": false,
      "t": 290476.2050000021,
      "d": 7.936508333310485,
      "v": 127
    },
    {
      "midi": 42,
      "hit": false,
      "t": 290476.2050000021,
      "d": 7.936508333310485,
      "v": 100
    },
    {
      "midi": 30,
      "hit": false,
      "t": 290952.39549999876,
      "d": 412.69843333330937,
      "v": 110
    },
    {
      "midi": 64,
      "hit": false,
      "t": 290952.39550000086,
      "d": 436.50795833335724,
      "v": 108
    },
    {
      "midi": 73,
      "hit": false,
      "t": 290952.3955000012,
      "d": 436.50795833335724,
      "v": 112
    },
    {
      "midi": 54,
      "hit": false,
      "t": 290952.39550000126,
      "d": 119.04762500000652,
      "v": 115
    },
    {
      "midi": 42,
      "hit": false,
      "t": 290952.3955000018,
      "d": 79.36508333333768,
      "v": 100
    },
    {
      "midi": 50,
      "hit": false,
      "t": 290952.3955000018,
      "d": 79.36508333333768,
      "v": 100
    },
    {
      "midi": 42,
      "hit": false,
      "t": 290952.3955000021,
      "d": 7.936508333310485,
      "v": 100
    },
    {
      "midi": 30,
      "hit": false,
      "t": 291428.58599999873,
      "d": 412.6984333333676,
      "v": 110
    },
    {
      "midi": 66,
      "hit": false,
      "t": 291428.5860000009,
      "d": 873.0159166666563,
      "v": 108
    },
    {
      "midi": 74,
      "hit": false,
      "t": 291428.58600000123,
      "d": 873.0159166666563,
      "v": 112
    },
    {
      "midi": 62,
      "hit": false,
      "t": 291428.5860000013,
      "d": 436.50795833335724,
      "v": 120
    },
    {
      "midi": 42,
      "hit": false,
      "t": 291428.5860000018,
      "d": 79.36508333333768,
      "v": 100
    },
    {
      "midi": 50,
      "hit": false,
      "t": 291428.5860000018,
      "d": 79.36508333333768,
      "v": 100
    },
    {
      "midi": 2,
      "hit": false,
      "t": 291428.58600000205,
      "d": 7.936508333310485,
      "v": 120
    },
    {
      "midi": 42,
      "hit": false,
      "t": 291428.58600000205,
      "d": 7.936508333310485,
      "v": 115
    },
    {
      "midi": 30,
      "hit": false,
      "t": 291904.77649999876,
      "d": 412.69843333330937,
      "v": 110
    },
    {
      "midi": 57,
      "hit": false,
      "t": 291904.7765000013,
      "d": 119.04762500000652,
      "v": 115
    },
    {
      "midi": 42,
      "hit": false,
      "t": 291904.77650000184,
      "d": 79.36508333333768,
      "v": 100
    },
    {
      "midi": 50,
      "hit": false,
      "t": 291904.77650000184,
      "d": 79.36508333333768,
      "v": 100
    },
    {
      "midi": 2,
      "hit": false,
      "t": 291904.776500002,
      "d": 7.936508333310485,
      "v": 120
    },
    {
      "midi": 42,
      "hit": false,
      "t": 291904.776500002,
      "d": 7.936508333310485,
      "v": 100
    },
    {
      "midi": 30,
      "hit": false,
      "t": 292380.9669999987,
      "d": 412.69843333330937,
      "v": 110
    },
    {
      "midi": 54,
      "hit": false,
      "t": 292380.96700000134,
      "d": 119.04762500000652,
      "v": 115
    },
    {
      "midi": 42,
      "hit": false,
      "t": 292380.96700000187,
      "d": 79.36508333333768,
      "v": 100
    },
    {
      "midi": 50,
      "hit": false,
      "t": 292380.96700000187,
      "d": 79.36508333333768,
      "v": 100
    },
    {
      "midi": 40,
      "hit": false,
      "t": 292380.967000002,
      "d": 7.936508333310485,
      "v": 127
    },
    {
      "midi": 42,
      "hit": false,
      "t": 292380.967000002,
      "d": 7.936508333310485,
      "v": 100
    },
    {
      "midi": 66,
      "hit": false,
      "t": 292841.28448333277,
      "d": 214.28572500002338,
      "v": 95
    },
    {
      "midi": 74,
      "hit": false,
      "t": 292841.28448333277,
      "d": 214.28572500002338,
      "v": 95
    },
    {
      "midi": 78,
      "hit": false,
      "t": 292841.28448333277,
      "d": 214.28572500002338,
      "v": 95
    },
    {
      "midi": 76,
      "hit": false,
      "t": 292841.28448333277,
      "d": 214.28572500002338,
      "v": 95
    },
    {
      "midi": 69,
      "hit": false,
      "t": 292841.28448333277,
      "d": 214.28572500002338,
      "v": 95
    },
    {
      "midi": 30,
      "hit": false,
      "t": 292857.1574999987,
      "d": 412.69843333330937,
      "v": 110
    },
    {
      "midi": 57,
      "hit": false,
      "t": 292857.15750000137,
      "d": 119.04762500000652,
      "v": 115
    },
    {
      "midi": 42,
      "hit": false,
      "t": 292857.1575000019,
      "d": 79.36508333333768,
      "v": 100
    },
    {
      "midi": 50,
      "hit": false,
      "t": 292857.1575000019,
      "d": 79.36508333333768,
      "v": 100
    },
    {
      "midi": 42,
      "hit": false,
      "t": 292857.15750000195,
      "d": 7.936508333310485,
      "v": 100
    },
    {
      "midi": 66,
      "hit": false,
      "t": 293079.3797333328,
      "d": 214.28572500002338,
      "v": 100
    },
    {
      "midi": 78,
      "hit": false,
      "t": 293079.3797333328,
      "d": 214.28572500002338,
      "v": 100
    },
    {
      "midi": 76,
      "hit": false,
      "t": 293079.3797333328,
      "d": 214.28572500002338,
      "v": 100
    },
    {
      "midi": 81,
      "hit": false,
      "t": 293079.3797333328,
      "d": 214.28572500002338,
      "v": 100
    },
    {
      "midi": 69,
      "hit": false,
      "t": 293079.3797333328,
      "d": 214.28572500002338,
      "v": 100
    },
    {
      "midi": 74,
      "hit": false,
      "t": 293079.3797333328,
      "d": 214.28572500002338,
      "v": 100
    },
    {
      "midi": 66,
      "hit": false,
      "t": 293309.5384749995,
      "d": 3730.158916666638,
      "v": 110
    },
    {
      "midi": 81,
      "hit": false,
      "t": 293309.5384749995,
      "d": 3730.158916666638,
      "v": 110
    },
    {
      "midi": 78,
      "hit": false,
      "t": 293309.5384749995,
      "d": 3730.158916666638,
      "v": 110
    },
    {
      "midi": 74,
      "hit": false,
      "t": 293309.5384749995,
      "d": 3730.158916666638,
      "v": 110
    },
    {
      "midi": 69,
      "hit": false,
      "t": 293309.5384749995,
      "d": 3730.158916666638,
      "v": 110
    },
    {
      "midi": 76,
      "hit": false,
      "t": 293309.5384749995,
      "d": 3730.158916666638,
      "v": 110
    },
    {
      "midi": 30,
      "hit": false,
      "t": 293333.3479999987,
      "d": 412.6984333333676,
      "v": 115
    },
    {
      "midi": 54,
      "hit": false,
      "t": 293333.3480000014,
      "d": 119.04762500000652,
      "v": 115
    },
    {
      "midi": 2,
      "hit": false,
      "t": 293333.3480000019,
      "d": 7.936508333310485,
      "v": 120
    },
    {
      "midi": 42,
      "hit": false,
      "t": 293333.3480000019,
      "d": 7.936508333310485,
      "v": 115
    },
    {
      "midi": 42,
      "hit": false,
      "t": 293333.3480000019,
      "d": 79.36508333333768,
      "v": 100
    },
    {
      "midi": 50,
      "hit": false,
      "t": 293333.3480000019,
      "d": 79.36508333333768,
      "v": 100
    },
    {
      "midi": 30,
      "hit": false,
      "t": 293809.53849999874,
      "d": 412.69843333330937,
      "v": 110
    },
    {
      "midi": 62,
      "hit": false,
      "t": 293809.5385000014,
      "d": 436.50795833335724,
      "v": 120
    },
    {
      "midi": 42,
      "hit": false,
      "t": 293809.5385000019,
      "d": 7.936508333310485,
      "v": 100
    },
    {
      "midi": 42,
      "hit": false,
      "t": 293809.53850000195,
      "d": 79.36508333333768,
      "v": 100
    },
    {
      "midi": 50,
      "hit": false,
      "t": 293809.53850000195,
      "d": 79.36508333333768,
      "v": 100
    },
    {
      "midi": 30,
      "hit": false,
      "t": 294285.7289999987,
      "d": 412.69843333330937,
      "v": 110
    },
    {
      "midi": 57,
      "hit": false,
      "t": 294285.72900000145,
      "d": 119.04762500000652,
      "v": 115
    },
    {
      "midi": 40,
      "hit": false,
      "t": 294285.72900000185,
      "d": 7.936508333310485,
      "v": 127
    },
    {
      "midi": 42,
      "hit": false,
      "t": 294285.72900000185,
      "d": 7.936508333310485,
      "v": 100
    },
    {
      "midi": 42,
      "hit": false,
      "t": 294285.729000002,
      "d": 79.36508333333768,
      "v": 100
    },
    {
      "midi": 50,
      "hit": false,
      "t": 294285.729000002,
      "d": 79.36508333333768,
      "v": 100
    },
    {
      "midi": 30,
      "hit": false,
      "t": 294761.9194999987,
      "d": 412.6984333333676,
      "v": 110
    },
    {
      "midi": 74,
      "hit": false,
      "t": 294761.91950000124,
      "d": 873.0159166666563,
      "v": 112
    },
    {
      "midi": 54,
      "hit": false,
      "t": 294761.9195000015,
      "d": 119.04762500000652,
      "v": 115
    },
    {
      "midi": 42,
      "hit": false,
      "t": 294761.9195000018,
      "d": 7.936508333310485,
      "v": 100
    },
    {
      "midi": 42,
      "hit": false,
      "t": 294761.919500002,
      "d": 79.36508333333768,
      "v": 100
    },
    {
      "midi": 50,
      "hit": false,
      "t": 294761.919500002,
      "d": 79.36508333333768,
      "v": 100
    },
    {
      "midi": 30,
      "hit": false,
      "t": 295238.1099999987,
      "d": 412.69843333330937,
      "v": 110
    },
    {
      "midi": 71,
      "hit": false,
      "t": 295238.11,
      "d": 952.380999999994,
      "v": 115
    },
    {
      "midi": 62,
      "hit": false,
      "t": 295238.1100000015,
      "d": 436.50795833335724,
      "v": 120
    },
    {
      "midi": 2,
      "hit": false,
      "t": 295238.1100000018,
      "d": 7.936508333310485,
      "v": 120
    },
    {
      "midi": 46,
      "hit": false,
      "t": 295238.1100000018,
      "d": 7.936508333310485,
      "v": 115
    },
    {
      "midi": 42,
      "hit": false,
      "t": 295238.110000002,
      "d": 79.36508333333768,
      "v": 100
    },
    {
      "midi": 50,
      "hit": false,
      "t": 295238.110000002,
      "d": 79.36508333333768,
      "v": 100
    },
    {
      "midi": 42,
      "hit": false,
      "t": 295476.20525000204,
      "d": 79.36508333333768,
      "v": 100
    },
    {
      "midi": 50,
      "hit": false,
      "t": 295476.20525000204,
      "d": 79.36508333333768,
      "v": 100
    },
    {
      "midi": 30,
      "hit": false,
      "t": 295714.3004999987,
      "d": 412.69843333330937,
      "v": 110
    },
    {
      "midi": 73,
      "hit": false,
      "t": 295714.30050000123,
      "d": 436.50795833335724,
      "v": 112
    },
    {
      "midi": 57,
      "hit": false,
      "t": 295714.3005000015,
      "d": 119.04762500000652,
      "v": 115
    },
    {
      "midi": 2,
      "hit": false,
      "t": 295714.30050000176,
      "d": 7.936508333310485,
      "v": 120
    },
    {
      "midi": 46,
      "hit": false,
      "t": 295714.30050000176,
      "d": 7.936508333310485,
      "v": 100
    },
    {
      "midi": 42,
      "hit": false,
      "t": 295714.30050000205,
      "d": 79.36508333333768,
      "v": 100
    },
    {
      "midi": 50,
      "hit": false,
      "t": 295714.30050000205,
      "d": 79.36508333333768,
      "v": 100
    },
    {
      "midi": 37,
      "hit": false,
      "t": 296190.49099999864,
      "d": 412.69843333330937,
      "v": 110
    },
    {
      "midi": 76,
      "hit": false,
      "t": 296190.4909999999,
      "d": 198.4127083333442,
      "v": 100
    },
    {
      "midi": 73,
      "hit": false,
      "t": 296190.491,
      "d": 952.380999999994,
      "v": 115
    },
    {
      "midi": 74,
      "hit": false,
      "t": 296190.49100000126,
      "d": 436.50795833335724,
      "v": 112
    },
    {
      "midi": 54,
      "hit": false,
      "t": 296190.49100000155,
      "d": 119.04762500000652,
      "v": 115
    },
    {
      "midi": 40,
      "hit": false,
      "t": 296190.4910000017,
      "d": 7.936508333310485,
      "v": 127
    },
    {
      "midi": 42,
      "hit": false,
      "t": 296190.4910000021,
      "d": 79.36508333333768,
      "v": 100
    },
    {
      "midi": 50,
      "hit": false,
      "t": 296190.4910000021,
      "d": 79.36508333333768,
      "v": 100
    },
    {
      "midi": 78,
      "hit": false,
      "t": 296349.2211666666,
      "d": 198.4127083333442,
      "v": 102
    },
    {
      "midi": 79,
      "hit": false,
      "t": 296507.9513333333,
      "d": 198.4127083333442,
      "v": 106
    },
    {
      "midi": 30,
      "hit": false,
      "t": 296666.6814999986,
      "d": 412.69843333330937,
      "v": 110
    },
    {
      "midi": 81,
      "hit": false,
      "t": 296666.68149999995,
      "d": 198.4127083333442,
      "v": 110
    },
    {
      "midi": 76,
      "hit": false,
      "t": 296666.6815000013,
      "d": 436.50795833335724,
      "v": 112
    },
    {
      "midi": 57,
      "hit": false,
      "t": 296666.6815000016,
      "d": 119.04762500000652,
      "v": 115
    },
    {
      "midi": 40,
      "hit": false,
      "t": 296666.6815000017,
      "d": 7.936508333310485,
      "v": 127
    },
    {
      "midi": 42,
      "hit": false,
      "t": 296666.6815000021,
      "d": 79.36508333333768,
      "v": 100
    },
    {
      "midi": 50,
      "hit": false,
      "t": 296666.6815000021,
      "d": 79.36508333333768,
      "v": 100
    },
    {
      "midi": 83,
      "hit": false,
      "t": 296825.4116666666,
      "d": 198.4127083333442,
      "v": 118
    },
    {
      "midi": 40,
      "hit": false,
      "t": 296904.77675000165,
      "d": 7.936508333310485,
      "v": 127
    },
    {
      "midi": 85,
      "hit": false,
      "t": 296984.1418333333,
      "d": 198.4127083333442,
      "v": 120
    },
    {
      "midi": 57,
      "hit": false,
      "t": 297111.12596666615,
      "d": 873.0159166666563,
      "v": 110
    },
    {
      "midi": 62,
      "hit": false,
      "t": 297111.12596666615,
      "d": 873.0159166666563,
      "v": 110
    },
    {
      "midi": 66,
      "hit": false,
      "t": 297111.12596666615,
      "d": 873.0159166666563,
      "v": 110
    },
    {
      "midi": 86,
      "hit": false,
      "t": 297119.062475,
      "d": 3769.841458333307,
      "v": 100
    },
    {
      "midi": 74,
      "hit": false,
      "t": 297119.062475,
      "d": 3769.841458333307,
      "v": 100
    },
    {
      "midi": 71,
      "hit": false,
      "t": 297119.062475,
      "d": 3769.841458333307,
      "v": 100
    },
    {
      "midi": 35,
      "hit": false,
      "t": 297142.8719999986,
      "d": 412.69843333330937,
      "v": 115
    },
    {
      "midi": 62,
      "hit": false,
      "t": 297142.8720000009,
      "d": 3809.524000000092,
      "v": 108
    },
    {
      "midi": 59,
      "hit": false,
      "t": 297142.8720000009,
      "d": 3809.524000000092,
      "v": 108
    },
    {
      "midi": 66,
      "hit": false,
      "t": 297142.8720000009,
      "d": 7579.365458333399,
      "v": 108
    },
    {
      "midi": 78,
      "hit": false,
      "t": 297142.8720000013,
      "d": 436.50795833335724,
      "v": 112
    },
    {
      "midi": 2,
      "hit": false,
      "t": 297142.8720000016,
      "d": 7.936508333310485,
      "v": 120
    },
    {
      "midi": 49,
      "hit": false,
      "t": 297142.8720000016,
      "d": 7.936508333310485,
      "v": 115
    },
    {
      "midi": 54,
      "hit": false,
      "t": 297142.8720000016,
      "d": 119.04762500000652,
      "v": 115
    },
    {
      "midi": 47,
      "hit": false,
      "t": 297142.8720000021,
      "d": 436.50795833335724,
      "v": 115
    },
    {
      "midi": 54,
      "hit": false,
      "t": 297142.8720000021,
      "d": 436.50795833335724,
      "v": 115
    },
    {
      "midi": 35,
      "hit": false,
      "t": 297619.06249999854,
      "d": 412.69843333330937,
      "v": 110
    },
    {
      "midi": 78,
      "hit": false,
      "t": 297619.06250000134,
      "d": 436.50795833335724,
      "v": 112
    },
    {
      "midi": 42,
      "hit": false,
      "t": 297619.0625000016,
      "d": 7.936508333310485,
      "v": 100
    },
    {
      "midi": 62,
      "hit": false,
      "t": 297619.06250000163,
      "d": 436.50795833335724,
      "v": 120
    },
    {
      "midi": 47,
      "hit": false,
      "t": 297619.06250000215,
      "d": 79.36508333333768,
      "v": 100
    },
    {
      "midi": 54,
      "hit": false,
      "t": 297619.06250000215,
      "d": 79.36508333333768,
      "v": 100
    },
    {
      "midi": 57,
      "hit": false,
      "t": 298079.3799833328,
      "d": 436.50795833335724,
      "v": 110
    },
    {
      "midi": 61,
      "hit": false,
      "t": 298079.3799833328,
      "d": 436.50795833335724,
      "v": 110
    },
    {
      "midi": 64,
      "hit": false,
      "t": 298079.3799833328,
      "d": 436.50795833335724,
      "v": 110
    },
    {
      "midi": 35,
      "hit": false,
      "t": 298095.2529999985,
      "d": 412.69843333330937,
      "v": 110
    },
    {
      "midi": 76,
      "hit": false,
      "t": 298095.25300000136,
      "d": 436.50795833335724,
      "v": 112
    },
    {
      "midi": 40,
      "hit": false,
      "t": 298095.25300000154,
      "d": 7.936508333310485,
      "v": 127
    },
    {
      "midi": 42,
      "hit": false,
      "t": 298095.25300000154,
      "d": 7.936508333310485,
      "v": 100
    },
    {
      "midi": 59,
      "hit": false,
      "t": 298095.25300000166,
      "d": 119.04762500000652,
      "v": 115
    },
    {
      "midi": 47,
      "hit": false,
      "t": 298095.2530000022,
      "d": 79.36508333333768,
      "v": 100
    },
    {
      "midi": 54,
      "hit": false,
      "t": 298095.2530000022,
      "d": 79.36508333333768,
      "v": 100
    },
    {
      "midi": 57,
      "hit": false,
      "t": 298555.57048333285,
      "d": 1349.2064166666823,
      "v": 110
    },
    {
      "midi": 62,
      "hit": false,
      "t": 298555.57048333285,
      "d": 1349.2064166666823,
      "v": 110
    },
    {
      "midi": 66,
      "hit": false,
      "t": 298555.57048333285,
      "d": 1349.2064166666823,
      "v": 110
    },
    {
      "midi": 35,
      "hit": false,
      "t": 298571.4434999985,
      "d": 412.69843333330937,
      "v": 110
    },
    {
      "midi": 74,
      "hit": false,
      "t": 298571.4435000014,
      "d": 436.50795833335724,
      "v": 112
    },
    {
      "midi": 42,
      "hit": false,
      "t": 298571.4435000015,
      "d": 7.936508333310485,
      "v": 100
    },
    {
      "midi": 54,
      "hit": false,
      "t": 298571.4435000017,
      "d": 119.04762500000652,
      "v": 115
    },
    {
      "midi": 47,
      "hit": false,
      "t": 298571.4435000022,
      "d": 436.50795833335724,
      "v": 115
    },
    {
      "midi": 54,
      "hit": false,
      "t": 298571.4435000022,
      "d": 436.50795833335724,
      "v": 115
    },
    {
      "midi": 35,
      "hit": false,
      "t": 299047.63399999845,
      "d": 412.69843333330937,
      "v": 110
    },
    {
      "midi": 74,
      "hit": false,
      "t": 299047.6340000014,
      "d": 436.50795833335724,
      "v": 112
    },
    {
      "midi": 2,
      "hit": false,
      "t": 299047.6340000015,
      "d": 7.936508333310485,
      "v": 120
    },
    {
      "midi": 42,
      "hit": false,
      "t": 299047.6340000015,
      "d": 7.936508333310485,
      "v": 115
    },
    {
      "midi": 62,
      "hit": false,
      "t": 299047.6340000017,
      "d": 436.50795833335724,
      "v": 120
    },
    {
      "midi": 47,
      "hit": false,
      "t": 299047.63400000223,
      "d": 79.36508333333768,
      "v": 100
    },
    {
      "midi": 54,
      "hit": false,
      "t": 299047.63400000223,
      "d": 79.36508333333768,
      "v": 100
    },
    {
      "midi": 47,
      "hit": false,
      "t": 299285.72925000224,
      "d": 79.36508333333768,
      "v": 100
    },
    {
      "midi": 54,
      "hit": false,
      "t": 299285.72925000224,
      "d": 79.36508333333768,
      "v": 100
    },
    {
      "midi": 35,
      "hit": false,
      "t": 299523.8244999984,
      "d": 412.69843333330937,
      "v": 110
    },
    {
      "midi": 74,
      "hit": false,
      "t": 299523.82450000144,
      "d": 436.50795833335724,
      "v": 112
    },
    {
      "midi": 2,
      "hit": false,
      "t": 299523.82450000144,
      "d": 7.936508333310485,
      "v": 120
    },
    {
      "midi": 42,
      "hit": false,
      "t": 299523.82450000144,
      "d": 7.936508333310485,
      "v": 100
    },
    {
      "midi": 59,
      "hit": false,
      "t": 299523.82450000173,
      "d": 119.04762500000652,
      "v": 115
    },
    {
      "midi": 47,
      "hit": false,
      "t": 299523.82450000226,
      "d": 79.36508333333768,
      "v": 100
    },
    {
      "midi": 54,
      "hit": false,
      "t": 299523.82450000226,
      "d": 79.36508333333768,
      "v": 100
    },
    {
      "midi": 35,
      "hit": false,
      "t": 300000.0149999984,
      "d": 412.69843333330937,
      "v": 110
    },
    {
      "midi": 57,
      "hit": false,
      "t": 300000.01499999955,
      "d": 436.50795833335724,
      "v": 117
    },
    {
      "midi": 40,
      "hit": false,
      "t": 300000.0150000014,
      "d": 7.936508333310485,
      "v": 127
    },
    {
      "midi": 42,
      "hit": false,
      "t": 300000.0150000014,
      "d": 7.936508333310485,
      "v": 100
    },
    {
      "midi": 78,
      "hit": false,
      "t": 300000.01500000147,
      "d": 873.0159166666563,
      "v": 115
    },
    {
      "midi": 54,
      "hit": false,
      "t": 300000.01500000176,
      "d": 119.04762500000652,
      "v": 115
    },
    {
      "midi": 47,
      "hit": false,
      "t": 300000.0150000023,
      "d": 436.50795833335724,
      "v": 115
    },
    {
      "midi": 54,
      "hit": false,
      "t": 300000.0150000023,
      "d": 436.50795833335724,
      "v": 115
    },
    {
      "midi": 35,
      "hit": false,
      "t": 300476.20549999835,
      "d": 412.69843333330937,
      "v": 110
    },
    {
      "midi": 62,
      "hit": false,
      "t": 300476.2054999996,
      "d": 436.50795833335724,
      "v": 117
    },
    {
      "midi": 42,
      "hit": false,
      "t": 300476.2055000014,
      "d": 7.936508333310485,
      "v": 100
    },
    {
      "midi": 59,
      "hit": false,
      "t": 300476.2055000018,
      "d": 119.04762500000652,
      "v": 115
    },
    {
      "midi": 47,
      "hit": false,
      "t": 300476.2055000023,
      "d": 79.36508333333768,
      "v": 100
    },
    {
      "midi": 54,
      "hit": false,
      "t": 300476.2055000023,
      "d": 79.36508333333768,
      "v": 100
    },
    {
      "midi": 47,
      "hit": false,
      "t": 300714.3007500023,
      "d": 79.36508333333768,
      "v": 100
    },
    {
      "midi": 54,
      "hit": false,
      "t": 300714.3007500023,
      "d": 79.36508333333768,
      "v": 100
    },
    {
      "midi": 57,
      "hit": false,
      "t": 300912.7134583343,
      "d": 3809.523999999976,
      "v": 108
    },
    {
      "midi": 61,
      "hit": false,
      "t": 300912.7134583343,
      "d": 3809.523999999976,
      "v": 108
    },
    {
      "midi": 57,
      "hit": false,
      "t": 300920.64996666624,
      "d": 436.50795833335724,
      "v": 110
    },
    {
      "midi": 61,
      "hit": false,
      "t": 300920.64996666624,
      "d": 436.50795833335724,
      "v": 110
    },
    {
      "midi": 66,
      "hit": false,
      "t": 300920.64996666624,
      "d": 436.50795833335724,
      "v": 110
    },
    {
      "midi": 69,
      "hit": false,
      "t": 300928.58647499996,
      "d": 3769.841458333307,
      "v": 100
    },
    {
      "midi": 73,
      "hit": false,
      "t": 300928.58647499996,
      "d": 3769.841458333307,
      "v": 100
    },
    {
      "midi": 85,
      "hit": false,
      "t": 300928.58647499996,
      "d": 3769.841458333307,
      "v": 100
    },
    {
      "midi": 30,
      "hit": false,
      "t": 300952.3959999983,
      "d": 412.69843333330937,
      "v": 115
    },
    {
      "midi": 2,
      "hit": false,
      "t": 300952.39600000135,
      "d": 7.936508333310485,
      "v": 120
    },
    {
      "midi": 57,
      "hit": false,
      "t": 300952.39600000135,
      "d": 7.936508333310485,
      "v": 115
    },
    {
      "midi": 83,
      "hit": false,
      "t": 300952.39600000146,
      "d": 436.50795833335724,
      "v": 115
    },
    {
      "midi": 54,
      "hit": false,
      "t": 300952.3960000018,
      "d": 119.04762500000652,
      "v": 115
    },
    {
      "midi": 42,
      "hit": false,
      "t": 300952.39600000234,
      "d": 436.50795833335724,
      "v": 115
    },
    {
      "midi": 49,
      "hit": false,
      "t": 300952.39600000234,
      "d": 436.50795833335724,
      "v": 115
    },
    {
      "midi": 30,
      "hit": false,
      "t": 301428.5864999983,
      "d": 412.69843333330937,
      "v": 110
    },
    {
      "midi": 57,
      "hit": false,
      "t": 301428.5864999996,
      "d": 436.50795833335724,
      "v": 117
    },
    {
      "midi": 42,
      "hit": false,
      "t": 301428.5865000013,
      "d": 7.936508333310485,
      "v": 100
    },
    {
      "midi": 81,
      "hit": false,
      "t": 301428.5865000015,
      "d": 873.0159166666563,
      "v": 115
    },
    {
      "midi": 61,
      "hit": false,
      "t": 301428.58650000184,
      "d": 436.50795833335724,
      "v": 120
    },
    {
      "midi": 42,
      "hit": false,
      "t": 301428.58650000236,
      "d": 79.36508333333768,
      "v": 100
    },
    {
      "midi": 49,
      "hit": false,
      "t": 301428.58650000236,
      "d": 79.36508333333768,
      "v": 100
    },
    {
      "midi": 30,
      "hit": false,
      "t": 301904.77699999826,
      "d": 412.69843333330937,
      "v": 110
    },
    {
      "midi": 61,
      "hit": false,
      "t": 301904.77699999965,
      "d": 436.50795833335724,
      "v": 117
    },
    {
      "midi": 40,
      "hit": false,
      "t": 301904.7770000013,
      "d": 7.936508333310485,
      "v": 127
    },
    {
      "midi": 42,
      "hit": false,
      "t": 301904.7770000013,
      "d": 7.936508333310485,
      "v": 100
    },
    {
      "midi": 57,
      "hit": false,
      "t": 301904.77700000186,
      "d": 119.04762500000652,
      "v": 115
    },
    {
      "midi": 49,
      "hit": false,
      "t": 301904.7770000024,
      "d": 79.36508333333768,
      "v": 100
    },
    {
      "midi": 42,
      "hit": false,
      "t": 301904.7770000024,
      "d": 79.36508333333768,
      "v": 100
    },
    {
      "midi": 61,
      "hit": false,
      "t": 302365.094483333,
      "d": 873.0159166666563,
      "v": 110
    },
    {
      "midi": 66,
      "hit": false,
      "t": 302365.094483333,
      "d": 873.0159166666563,
      "v": 110
    },
    {
      "midi": 69,
      "hit": false,
      "t": 302365.094483333,
      "d": 873.0159166666563,
      "v": 110
    },
    {
      "midi": 30,
      "hit": false,
      "t": 302380.9674999982,
      "d": 412.69843333330937,
      "v": 110
    },
    {
      "midi": 42,
      "hit": false,
      "t": 302380.96750000125,
      "d": 7.936508333310485,
      "v": 100
    },
    {
      "midi": 81,
      "hit": false,
      "t": 302380.9675000015,
      "d": 436.50795833335724,
      "v": 115
    },
    {
      "midi": 54,
      "hit": false,
      "t": 302380.9675000019,
      "d": 119.04762500000652,
      "v": 115
    },
    {
      "midi": 42,
      "hit": false,
      "t": 302380.9675000024,
      "d": 436.50795833335724,
      "v": 115
    },
    {
      "midi": 49,
      "hit": false,
      "t": 302380.9675000024,
      "d": 436.50795833335724,
      "v": 115
    },
    {
      "midi": 30,
      "hit": false,
      "t": 302857.1579999982,
      "d": 412.69843333330937,
      "v": 110
    },
    {
      "midi": 2,
      "hit": false,
      "t": 302857.1580000012,
      "d": 7.936508333310485,
      "v": 120
    },
    {
      "midi": 42,
      "hit": false,
      "t": 302857.1580000012,
      "d": 7.936508333310485,
      "v": 115
    },
    {
      "midi": 79,
      "hit": false,
      "t": 302857.1580000015,
      "d": 436.50795833335724,
      "v": 115
    },
    {
      "midi": 61,
      "hit": false,
      "t": 302857.1580000019,
      "d": 436.50795833335724,
      "v": 120
    },
    {
      "midi": 49,
      "hit": false,
      "t": 302857.15800000244,
      "d": 79.36508333333768,
      "v": 100
    },
    {
      "midi": 42,
      "hit": false,
      "t": 302857.15800000244,
      "d": 79.36508333333768,
      "v": 100
    },
    {
      "midi": 30,
      "hit": false,
      "t": 303333.34849999816,
      "d": 412.69843333330937,
      "v": 110
    },
    {
      "midi": 54,
      "hit": false,
      "t": 303333.3484999997,
      "d": 436.50795833335724,
      "v": 117
    },
    {
      "midi": 2,
      "hit": false,
      "t": 303333.3485000012,
      "d": 7.936508333310485,
      "v": 120
    },
    {
      "midi": 42,
      "hit": false,
      "t": 303333.3485000012,
      "d": 7.936508333310485,
      "v": 100
    },
    {
      "midi": 79,
      "hit": false,
      "t": 303333.34850000154,
      "d": 436.50795833335724,
      "v": 115
    },
    {
      "midi": 57,
      "hit": false,
      "t": 303333.34850000194,
      "d": 119.04762500000652,
      "v": 115
    },
    {
      "midi": 42,
      "hit": false,
      "t": 303333.34850000247,
      "d": 79.36508333333768,
      "v": 100
    },
    {
      "midi": 49,
      "hit": false,
      "t": 303333.34850000247,
      "d": 79.36508333333768,
      "v": 100
    },
    {
      "midi": 30,
      "hit": false,
      "t": 303809.5389999981,
      "d": 412.69843333330937,
      "v": 110
    },
    {
      "midi": 57,
      "hit": false,
      "t": 303809.5389999997,
      "d": 436.50795833335724,
      "v": 117
    },
    {
      "midi": 40,
      "hit": false,
      "t": 303809.53900000115,
      "d": 7.936508333310485,
      "v": 127
    },
    {
      "midi": 42,
      "hit": false,
      "t": 303809.53900000115,
      "d": 7.936508333310485,
      "v": 100
    },
    {
      "midi": 78,
      "hit": false,
      "t": 303809.53900000156,
      "d": 436.50795833335724,
      "v": 115
    },
    {
      "midi": 54,
      "hit": false,
      "t": 303809.53900000197,
      "d": 119.04762500000652,
      "v": 115
    },
    {
      "midi": 42,
      "hit": false,
      "t": 303809.5390000025,
      "d": 436.50795833335724,
      "v": 115
    },
    {
      "midi": 49,
      "hit": false,
      "t": 303809.5390000025,
      "d": 436.50795833335724,
      "v": 115
    },
    {
      "midi": 40,
      "hit": false,
      "t": 304047.6342500011,
      "d": 7.936508333310485,
      "v": 127
    },
    {
      "midi": 29,
      "hit": false,
      "t": 304285.7294999981,
      "d": 412.69843333330937,
      "v": 110
    },
    {
      "midi": 61,
      "hit": false,
      "t": 304285.7294999997,
      "d": 436.50795833335724,
      "v": 117
    },
    {
      "midi": 42,
      "hit": false,
      "t": 304285.72950000106,
      "d": 7.936508333310485,
      "v": 100
    },
    {
      "midi": 47,
      "hit": false,
      "t": 304285.72950000106,
      "d": 7.936508333310485,
      "v": 127
    },
    {
      "midi": 76,
      "hit": false,
      "t": 304285.7295000016,
      "d": 436.50795833335724,
      "v": 115
    },
    {
      "midi": 57,
      "hit": false,
      "t": 304285.729500002,
      "d": 119.04762500000652,
      "v": 115
    },
    {
      "midi": 42,
      "hit": false,
      "t": 304285.7295000025,
      "d": 198.4127083333442,
      "v": 100
    },
    {
      "midi": 49,
      "hit": false,
      "t": 304285.7295000025,
      "d": 198.4127083333442,
      "v": 100
    },
    {
      "midi": 42,
      "hit": false,
      "t": 304523.82475000253,
      "d": 198.4127083333442,
      "v": 100
    },
    {
      "midi": 49,
      "hit": false,
      "t": 304523.82475000253,
      "d": 198.4127083333442,
      "v": 100
    },
    {
      "midi": 55,
      "hit": false,
      "t": 304730.1739666664,
      "d": 873.0159166666563,
      "v": 115
    },
    {
      "midi": 59,
      "hit": false,
      "t": 304730.1739666664,
      "d": 873.0159166666563,
      "v": 115
    },
    {
      "midi": 64,
      "hit": false,
      "t": 304730.1739666664,
      "d": 873.0159166666563,
      "v": 115
    },
    {
      "midi": 55,
      "hit": false,
      "t": 304730.1739666676,
      "d": 3809.523999999976,
      "v": 108
    },
    {
      "midi": 59,
      "hit": false,
      "t": 304730.1739666676,
      "d": 3809.523999999976,
      "v": 108
    },
    {
      "midi": 67,
      "hit": false,
      "t": 304738.11047499994,
      "d": 3769.841458333307,
      "v": 100
    },
    {
      "midi": 71,
      "hit": false,
      "t": 304738.11047499994,
      "d": 3769.841458333307,
      "v": 100
    },
    {
      "midi": 83,
      "hit": false,
      "t": 304738.11047499994,
      "d": 3769.841458333307,
      "v": 100
    },
    {
      "midi": 78,
      "hit": false,
      "t": 304738.1104750016,
      "d": 436.50795833335724,
      "v": 115
    },
    {
      "midi": 28,
      "hit": false,
      "t": 304761.91999999806,
      "d": 412.69843333330937,
      "v": 115
    },
    {
      "midi": 2,
      "hit": false,
      "t": 304761.92000000103,
      "d": 7.936508333310485,
      "v": 120
    },
    {
      "midi": 49,
      "hit": false,
      "t": 304761.92000000103,
      "d": 7.936508333310485,
      "v": 115
    },
    {
      "midi": 55,
      "hit": false,
      "t": 304761.920000002,
      "d": 119.04762500000652,
      "v": 115
    },
    {
      "midi": 40,
      "hit": false,
      "t": 304761.92000000254,
      "d": 436.50795833335724,
      "v": 115
    },
    {
      "midi": 47,
      "hit": false,
      "t": 304761.92000000254,
      "d": 436.50795833335724,
      "v": 115
    },
    {
      "midi": 28,
      "hit": false,
      "t": 305238.11049999803,
      "d": 412.69843333330937,
      "v": 110
    },
    {
      "midi": 46,
      "hit": false,
      "t": 305238.110500001,
      "d": 7.936508333310485,
      "v": 90
    },
    {
      "midi": 76,
      "hit": false,
      "t": 305238.11050000164,
      "d": 2380.952500000072,
      "v": 115
    },
    {
      "midi": 64,
      "hit": false,
      "t": 305238.11050000205,
      "d": 436.50795833335724,
      "v": 120
    },
    {
      "midi": 40,
      "hit": false,
      "t": 305238.1105000026,
      "d": 79.36508333333768,
      "v": 100
    },
    {
      "midi": 47,
      "hit": false,
      "t": 305238.1105000026,
      "d": 79.36508333333768,
      "v": 100
    },
    {
      "midi": 28,
      "hit": false,
      "t": 305714.300999998,
      "d": 412.69843333330937,
      "v": 110
    },
    {
      "midi": 55,
      "hit": false,
      "t": 305714.3009999997,
      "d": 436.50795833335724,
      "v": 117
    },
    {
      "midi": 40,
      "hit": false,
      "t": 305714.30100000097,
      "d": 7.936508333310485,
      "v": 127
    },
    {
      "midi": 46,
      "hit": false,
      "t": 305714.30100000097,
      "d": 7.936508333310485,
      "v": 92
    },
    {
      "midi": 59,
      "hit": false,
      "t": 305714.3010000021,
      "d": 119.04762500000652,
      "v": 115
    },
    {
      "midi": 47,
      "hit": false,
      "t": 305714.3010000026,
      "d": 79.36508333333768,
      "v": 100
    },
    {
      "midi": 40,
      "hit": false,
      "t": 305714.3010000026,
      "d": 79.36508333333768,
      "v": 100
    },
    {
      "midi": 28,
      "hit": false,
      "t": 306190.49149999797,
      "d": 412.69843333330937,
      "v": 110
    },
    {
      "midi": 59,
      "hit": false,
      "t": 306190.4914999997,
      "d": 436.50795833335724,
      "v": 117
    },
    {
      "midi": 46,
      "hit": false,
      "t": 306190.49150000094,
      "d": 7.936508333310485,
      "v": 96
    },
    {
      "midi": 55,
      "hit": false,
      "t": 306190.4915000021,
      "d": 119.04762500000652,
      "v": 115
    },
    {
      "midi": 40,
      "hit": false,
      "t": 306190.4915000026,
      "d": 436.50795833335724,
      "v": 115
    },
    {
      "midi": 47,
      "hit": false,
      "t": 306190.4915000026,
      "d": 436.50795833335724,
      "v": 115
    },
    {
      "midi": 55,
      "hit": false,
      "t": 306650.80898333306,
      "d": 436.50795833335724,
      "v": 110
    },
    {
      "midi": 59,
      "hit": false,
      "t": 306650.80898333306,
      "d": 436.50795833335724,
      "v": 110
    },
    {
      "midi": 66,
      "hit": false,
      "t": 306650.80898333306,
      "d": 436.50795833335724,
      "v": 110
    },
    {
      "midi": 28,
      "hit": false,
      "t": 306666.68199999793,
      "d": 412.69843333330937,
      "v": 110
    },
    {
      "midi": 40,
      "hit": false,
      "t": 306666.6820000009,
      "d": 7.936508333310485,
      "v": 127
    },
    {
      "midi": 46,
      "hit": false,
      "t": 306666.6820000009,
      "d": 7.936508333310485,
      "v": 98
    },
    {
      "midi": 64,
      "hit": false,
      "t": 306666.6820000021,
      "d": 436.50795833335724,
      "v": 120
    },
    {
      "midi": 40,
      "hit": false,
      "t": 306666.68200000265,
      "d": 79.36508333333768,
      "v": 100
    },
    {
      "midi": 47,
      "hit": false,
      "t": 306666.68200000265,
      "d": 79.36508333333768,
      "v": 100
    },
    {
      "midi": 40,
      "hit": false,
      "t": 306904.77725000266,
      "d": 79.36508333333768,
      "v": 100
    },
    {
      "midi": 47,
      "hit": false,
      "t": 306904.77725000266,
      "d": 79.36508333333768,
      "v": 100
    },
    {
      "midi": 28,
      "hit": false,
      "t": 307142.8724999979,
      "d": 412.69843333330937,
      "v": 110
    },
    {
      "midi": 55,
      "hit": false,
      "t": 307142.87249999976,
      "d": 436.50795833335724,
      "v": 117
    },
    {
      "midi": 2,
      "hit": false,
      "t": 307142.87250000087,
      "d": 7.936508333310485,
      "v": 120
    },
    {
      "midi": 46,
      "hit": false,
      "t": 307142.87250000087,
      "d": 7.936508333310485,
      "v": 102
    },
    {
      "midi": 59,
      "hit": false,
      "t": 307142.87250000215,
      "d": 119.04762500000652,
      "v": 115
    },
    {
      "midi": 40,
      "hit": false,
      "t": 307142.8725000027,
      "d": 79.36508333333768,
      "v": 100
    },
    {
      "midi": 47,
      "hit": false,
      "t": 307142.8725000027,
      "d": 79.36508333333768,
      "v": 100
    },
    {
      "midi": 31,
      "hit": false,
      "t": 307619.06299999787,
      "d": 412.69843333330937,
      "v": 110
    },
    {
      "midi": 59,
      "hit": false,
      "t": 307619.0629999998,
      "d": 436.50795833335724,
      "v": 117
    },
    {
      "midi": 40,
      "hit": false,
      "t": 307619.06300000084,
      "d": 7.936508333310485,
      "v": 127
    },
    {
      "midi": 46,
      "hit": false,
      "t": 307619.06300000084,
      "d": 7.936508333310485,
      "v": 106
    },
    {
      "midi": 55,
      "hit": false,
      "t": 307619.0630000022,
      "d": 119.04762500000652,
      "v": 115
    },
    {
      "midi": 40,
      "hit": false,
      "t": 307619.0630000027,
      "d": 436.50795833335724,
      "v": 115
    },
    {
      "midi": 47,
      "hit": false,
      "t": 307619.0630000027,
      "d": 436.50795833335724,
      "v": 115
    },
    {
      "midi": 32,
      "hit": false,
      "t": 308095.25349999784,
      "d": 412.69843333330937,
      "v": 110
    },
    {
      "midi": 66,
      "hit": false,
      "t": 308095.2534999998,
      "d": 436.50795833335724,
      "v": 117
    },
    {
      "midi": 2,
      "hit": false,
      "t": 308095.2535000008,
      "d": 7.936508333310485,
      "v": 120
    },
    {
      "midi": 46,
      "hit": false,
      "t": 308095.2535000008,
      "d": 7.936508333310485,
      "v": 110
    },
    {
      "midi": 59,
      "hit": false,
      "t": 308095.2535000022,
      "d": 119.04762500000652,
      "v": 115
    },
    {
      "midi": 40,
      "hit": false,
      "t": 308095.2535000027,
      "d": 79.36508333333768,
      "v": 100
    },
    {
      "midi": 47,
      "hit": false,
      "t": 308095.2535000027,
      "d": 79.36508333333768,
      "v": 100
    },
    {
      "midi": 47,
      "hit": false,
      "t": 308333.34875000274,
      "d": 79.36508333333768,
      "v": 100
    },
    {
      "midi": 40,
      "hit": false,
      "t": 308333.34875000274,
      "d": 79.36508333333768,
      "v": 100
    },
    {
      "midi": 64,
      "hit": false,
      "t": 308531.7614583343,
      "d": 7.936508333310485,
      "v": 108
    },
    {
      "midi": 61,
      "hit": false,
      "t": 308531.7614583343,
      "d": 1904.761999999988,
      "v": 108
    },
    {
      "midi": 57,
      "hit": false,
      "t": 308531.7614583343,
      "d": 1904.761999999988,
      "v": 108
    },
    {
      "midi": 55,
      "hit": false,
      "t": 308539.6979666665,
      "d": 1825.3969166666502,
      "v": 117
    },
    {
      "midi": 67,
      "hit": false,
      "t": 308539.6979666665,
      "d": 1825.3969166666502,
      "v": 117
    },
    {
      "midi": 64,
      "hit": false,
      "t": 308539.6979666665,
      "d": 1825.3969166666502,
      "v": 117
    },
    {
      "midi": 61,
      "hit": false,
      "t": 308539.6979666665,
      "d": 1825.3969166666502,
      "v": 117
    },
    {
      "midi": 67,
      "hit": false,
      "t": 308547.6344749999,
      "d": 1880.9524749999982,
      "v": 100
    },
    {
      "midi": 73,
      "hit": false,
      "t": 308547.6344749999,
      "d": 1880.9524749999982,
      "v": 100
    },
    {
      "midi": 85,
      "hit": false,
      "t": 308547.6344749999,
      "d": 1880.9524749999982,
      "v": 100
    },
    {
      "midi": 33,
      "hit": false,
      "t": 308571.4439999978,
      "d": 412.69843333330937,
      "v": 115
    },
    {
      "midi": 2,
      "hit": false,
      "t": 308571.4440000008,
      "d": 7.936508333310485,
      "v": 120
    },
    {
      "midi": 45,
      "hit": false,
      "t": 308571.4440000008,
      "d": 7.936508333310485,
      "v": 127
    },
    {
      "midi": 57,
      "hit": false,
      "t": 308571.44400000223,
      "d": 119.04762500000652,
      "v": 115
    },
    {
      "midi": 45,
      "hit": false,
      "t": 308571.44400000275,
      "d": 1825.3969166667084,
      "v": 100
    },
    {
      "midi": 52,
      "hit": false,
      "t": 308571.44400000275,
      "d": 1825.3969166667084,
      "v": 100
    },
    {
      "midi": 33,
      "hit": false,
      "t": 309047.6344999978,
      "d": 412.69843333330937,
      "v": 110
    },
    {
      "midi": 40,
      "hit": false,
      "t": 309047.63450000074,
      "d": 7.936508333310485,
      "v": 127
    },
    {
      "midi": 64,
      "hit": false,
      "t": 309047.63450000226,
      "d": 436.50795833335724,
      "v": 120
    },
    {
      "midi": 40,
      "hit": false,
      "t": 309206.36466666736,
      "d": 7.936508333310485,
      "v": 127
    },
    {
      "midi": 40,
      "hit": false,
      "t": 309365.094833334,
      "d": 7.936508333310485,
      "v": 127
    },
    {
      "midi": 40,
      "hit": false,
      "t": 309523.82499999774,
      "d": 412.69843333330937,
      "v": 110
    },
    {
      "midi": 40,
      "hit": false,
      "t": 309523.8250000006,
      "d": 7.936508333310485,
      "v": 127
    },
    {
      "midi": 61,
      "hit": false,
      "t": 309523.8250000023,
      "d": 119.04762500000652,
      "v": 115
    },
    {
      "midi": 40,
      "hit": false,
      "t": 309761.92025000055,
      "d": 7.936508333310485,
      "v": 127
    },
    {
      "midi": 43,
      "hit": false,
      "t": 310000.0154999977,
      "d": 412.69843333330937,
      "v": 110
    },
    {
      "midi": 45,
      "hit": false,
      "t": 310000.0155000005,
      "d": 7.936508333310485,
      "v": 127
    },
    {
      "midi": 57,
      "hit": false,
      "t": 310000.0155000023,
      "d": 119.04762500000652,
      "v": 115
    },
    {
      "midi": 43,
      "hit": false,
      "t": 310238.11075000046,
      "d": 7.936508333310485,
      "v": 127
    },
    {
      "midi": 61,
      "hit": false,
      "t": 310452.3964749999,
      "d": 912.6984583333251,
      "v": 115
    },
    {
      "midi": 90,
      "hit": false,
      "t": 310452.3964749999,
      "d": 912.6984583333251,
      "v": 115
    },
    {
      "midi": 78,
      "hit": false,
      "t": 310452.3964749999,
      "d": 912.6984583333251,
      "v": 115
    },
    {
      "midi": 69,
      "hit": false,
      "t": 310452.3964749999,
      "d": 912.6984583333251,
      "v": 115
    },
    {
      "midi": 57,
      "hit": false,
      "t": 310460.33298333315,
      "d": 873.0159166666563,
      "v": 115
    },
    {
      "midi": 61,
      "hit": false,
      "t": 310460.33298333315,
      "d": 873.0159166666563,
      "v": 115
    },
    {
      "midi": 66,
      "hit": false,
      "t": 310460.33298333315,
      "d": 873.0159166666563,
      "v": 115
    },
    {
      "midi": 45,
      "hit": false,
      "t": 310476.2059999977,
      "d": 873.0159166666563,
      "v": 110
    },
    {
      "midi": 2,
      "hit": false,
      "t": 310476.2060000004,
      "d": 7.936508333310485,
      "v": 120
    },
    {
      "midi": 49,
      "hit": false,
      "t": 310476.2060000004,
      "d": 7.936508333310485,
      "v": 115
    },
    {
      "midi": 62,
      "hit": false,
      "t": 310476.20600000094,
      "d": 896.8254416666459,
      "v": 108
    },
    {
      "midi": 69,
      "hit": false,
      "t": 310476.20600000094,
      "d": 896.8254416666459,
      "v": 108
    },
    {
      "midi": 78,
      "hit": false,
      "t": 310476.2060000018,
      "d": 873.0159166666563,
      "v": 120
    },
    {
      "midi": 61,
      "hit": false,
      "t": 310476.20600000233,
      "d": 698.4127333333599,
      "v": 110
    },
    {
      "midi": 66,
      "hit": false,
      "t": 310476.20600000233,
      "d": 698.4127333333599,
      "v": 110
    },
    {
      "midi": 69,
      "hit": false,
      "t": 310476.20600000233,
      "d": 698.4127333333599,
      "v": 110
    },
    {
      "midi": 54,
      "hit": false,
      "t": 310476.2060000028,
      "d": 873.0159166667145,
      "v": 115
    },
    {
      "midi": 61,
      "hit": false,
      "t": 311190.4917500024,
      "d": 119.04762500000652,
      "v": 110
    },
    {
      "midi": 66,
      "hit": false,
      "t": 311190.4917500024,
      "d": 119.04762500000652,
      "v": 110
    },
    {
      "midi": 69,
      "hit": false,
      "t": 311190.4917500024,
      "d": 119.04762500000652,
      "v": 110
    },
    {
      "midi": 62,
      "hit": false,
      "t": 311404.7774749999,
      "d": 912.6984583333251,
      "v": 115
    },
    {
      "midi": 91,
      "hit": false,
      "t": 311404.7774749999,
      "d": 912.6984583333251,
      "v": 115
    },
    {
      "midi": 79,
      "hit": false,
      "t": 311404.7774749999,
      "d": 912.6984583333251,
      "v": 115
    },
    {
      "midi": 71,
      "hit": false,
      "t": 311404.7774749999,
      "d": 912.6984583333251,
      "v": 115
    },
    {
      "midi": 57,
      "hit": false,
      "t": 311412.71398333315,
      "d": 873.0159166666563,
      "v": 119
    },
    {
      "midi": 61,
      "hit": false,
      "t": 311412.71398333315,
      "d": 873.0159166666563,
      "v": 119
    },
    {
      "midi": 67,
      "hit": false,
      "t": 311412.71398333315,
      "d": 873.0159166666563,
      "v": 119
    },
    {
      "midi": 45,
      "hit": false,
      "t": 311428.5869999977,
      "d": 873.0159166666563,
      "v": 110
    },
    {
      "midi": 2,
      "hit": false,
      "t": 311428.5870000004,
      "d": 7.936508333310485,
      "v": 120
    },
    {
      "midi": 49,
      "hit": false,
      "t": 311428.5870000004,
      "d": 7.936508333310485,
      "v": 115
    },
    {
      "midi": 64,
      "hit": false,
      "t": 311428.58700000093,
      "d": 436.50795833335724,
      "v": 108
    },
    {
      "midi": 69,
      "hit": false,
      "t": 311428.58700000093,
      "d": 436.50795833335724,
      "v": 108
    },
    {
      "midi": 71,
      "hit": false,
      "t": 311428.58700000093,
      "d": 436.50795833335724,
      "v": 108
    },
    {
      "midi": 79,
      "hit": false,
      "t": 311428.5870000018,
      "d": 436.50795833335724,
      "v": 120
    },
    {
      "midi": 62,
      "hit": false,
      "t": 311428.5870000024,
      "d": 698.4127333333599,
      "v": 110
    },
    {
      "midi": 67,
      "hit": false,
      "t": 311428.5870000024,
      "d": 698.4127333333599,
      "v": 110
    },
    {
      "midi": 71,
      "hit": false,
      "t": 311428.5870000024,
      "d": 698.4127333333599,
      "v": 110
    },
    {
      "midi": 55,
      "hit": false,
      "t": 311428.58700000285,
      "d": 873.0159166666563,
      "v": 115
    },
    {
      "midi": 64,
      "hit": false,
      "t": 311904.77750000096,
      "d": 436.50795833335724,
      "v": 108
    },
    {
      "midi": 69,
      "hit": false,
      "t": 311904.77750000096,
      "d": 436.50795833335724,
      "v": 108
    },
    {
      "midi": 71,
      "hit": false,
      "t": 311904.77750000096,
      "d": 436.50795833335724,
      "v": 108
    },
    {
      "midi": 79,
      "hit": false,
      "t": 311904.77750000183,
      "d": 436.50795833335724,
      "v": 120
    },
    {
      "midi": 62,
      "hit": false,
      "t": 312142.8727500024,
      "d": 119.04762500000652,
      "v": 110
    },
    {
      "midi": 67,
      "hit": false,
      "t": 312142.8727500024,
      "d": 119.04762500000652,
      "v": 110
    },
    {
      "midi": 71,
      "hit": false,
      "t": 312142.8727500024,
      "d": 119.04762500000652,
      "v": 110
    },
    {
      "midi": 69,
      "hit": false,
      "t": 312341.28545833257,
      "d": 1825.3969166667084,
      "v": 90
    },
    {
      "midi": 57,
      "hit": false,
      "t": 312349.22196666646,
      "d": 634.9206666666432,
      "v": 119
    },
    {
      "midi": 62,
      "hit": false,
      "t": 312349.22196666646,
      "d": 634.9206666666432,
      "v": 119
    },
    {
      "midi": 66,
      "hit": false,
      "t": 312349.22196666646,
      "d": 634.9206666666432,
      "v": 119
    },
    {
      "midi": 81,
      "hit": false,
      "t": 312349.2219666685,
      "d": 873.0159166666563,
      "v": 120
    },
    {
      "midi": 93,
      "hit": false,
      "t": 312357.1584749999,
      "d": 7603.174983332981,
      "v": 100
    },
    {
      "midi": 81,
      "hit": false,
      "t": 312357.1584749999,
      "d": 7603.174983332981,
      "v": 100
    },
    {
      "midi": 74,
      "hit": false,
      "t": 312357.15847499995,
      "d": 3793.650983333355,
      "v": 115
    },
    {
      "midi": 57,
      "hit": false,
      "t": 312380.9679999961,
      "d": 436.50795833335724,
      "v": 100
    },
    {
      "midi": 38,
      "hit": false,
      "t": 312380.96799999767,
      "d": 412.69843333330937,
      "v": 118
    },
    {
      "midi": 2,
      "hit": false,
      "t": 312380.9680000004,
      "d": 7.936508333310485,
      "v": 123
    },
    {
      "midi": 40,
      "hit": false,
      "t": 312380.9680000004,
      "d": 7.936508333310485,
      "v": 127
    },
    {
      "midi": 49,
      "hit": false,
      "t": 312380.9680000004,
      "d": 7.936508333310485,
      "v": 115
    },
    {
      "midi": 66,
      "hit": false,
      "t": 312380.968000001,
      "d": 896.8254416666459,
      "v": 108
    },
    {
      "midi": 69,
      "hit": false,
      "t": 312380.968000001,
      "d": 896.8254416666459,
      "v": 108
    },
    {
      "midi": 74,
      "hit": false,
      "t": 312380.968000001,
      "d": 896.8254416666459,
      "v": 108
    },
    {
      "midi": 66,
      "hit": false,
      "t": 312380.96800000244,
      "d": 912.6984583333251,
      "v": 120
    },
    {
      "midi": 69,
      "hit": false,
      "t": 312380.96800000244,
      "d": 912.6984583333251,
      "v": 120
    },
    {
      "midi": 74,
      "hit": false,
      "t": 312380.96800000244,
      "d": 912.6984583333251,
      "v": 120
    },
    {
      "midi": 50,
      "hit": false,
      "t": 312380.96800000285,
      "d": 436.50795833329903,
      "v": 115
    },
    {
      "midi": 57,
      "hit": false,
      "t": 312380.96800000285,
      "d": 436.50795833329903,
      "v": 115
    },
    {
      "midi": 74,
      "hit": false,
      "t": 312396.8410166659,
      "d": 1825.3969166667084,
      "v": 90
    },
    {
      "midi": 54,
      "hit": false,
      "t": 312404.7775250004,
      "d": 7.936508333310485,
      "v": 100
    },
    {
      "midi": 76,
      "hit": false,
      "t": 312444.4600666659,
      "d": 1825.3969166667084,
      "v": 90
    },
    {
      "midi": 78,
      "hit": false,
      "t": 312476.20609999925,
      "d": 1825.3969166667084,
      "v": 90
    },
    {
      "midi": 54,
      "hit": false,
      "t": 312619.06325000036,
      "d": 7.936508333310485,
      "v": 60
    },
    {
      "midi": 62,
      "hit": false,
      "t": 312857.1584999961,
      "d": 214.28572500002338,
      "v": 100
    },
    {
      "midi": 38,
      "hit": false,
      "t": 312857.15849999763,
      "d": 412.69843333330937,
      "v": 112
    },
    {
      "midi": 42,
      "hit": false,
      "t": 312857.1585000003,
      "d": 7.936508333310485,
      "v": 100
    },
    {
      "midi": 54,
      "hit": false,
      "t": 312857.1585000003,
      "d": 7.936508333310485,
      "v": 60
    },
    {
      "midi": 50,
      "hit": false,
      "t": 312857.1585000028,
      "d": 79.36508333333768,
      "v": 100
    },
    {
      "midi": 57,
      "hit": false,
      "t": 312857.1585000028,
      "d": 79.36508333333768,
      "v": 100
    },
    {
      "midi": 57,
      "hit": false,
      "t": 313095.25374999613,
      "d": 214.28572500002338,
      "v": 100
    },
    {
      "midi": 57,
      "hit": false,
      "t": 313095.25374999974,
      "d": 214.28572500002338,
      "v": 119
    },
    {
      "midi": 62,
      "hit": false,
      "t": 313095.25374999974,
      "d": 214.28572500002338,
      "v": 119
    },
    {
      "midi": 66,
      "hit": false,
      "t": 313095.25374999974,
      "d": 214.28572500002338,
      "v": 119
    },
    {
      "midi": 54,
      "hit": false,
      "t": 313095.25375000027,
      "d": 7.936508333310485,
      "v": 60
    },
    {
      "midi": 64,
      "hit": false,
      "t": 313333.34899999615,
      "d": 214.28572500002338,
      "v": 100
    },
    {
      "midi": 38,
      "hit": false,
      "t": 313333.3489999976,
      "d": 412.69843333330937,
      "v": 112
    },
    {
      "midi": 40,
      "hit": false,
      "t": 313333.3490000002,
      "d": 7.936508333310485,
      "v": 127
    },
    {
      "midi": 42,
      "hit": false,
      "t": 313333.3490000002,
      "d": 7.936508333310485,
      "v": 100
    },
    {
      "midi": 54,
      "hit": false,
      "t": 313333.3490000002,
      "d": 7.936508333310485,
      "v": 100
    },
    {
      "midi": 66,
      "hit": false,
      "t": 313333.349000001,
      "d": 436.50795833335724,
      "v": 108
    },
    {
      "midi": 69,
      "hit": false,
      "t": 313333.349000001,
      "d": 436.50795833335724,
      "v": 108
    },
    {
      "midi": 74,
      "hit": false,
      "t": 313333.349000001,
      "d": 436.50795833335724,
      "v": 108
    },
    {
      "midi": 81,
      "hit": false,
      "t": 313333.3490000018,
      "d": 436.50795833335724,
      "v": 120
    },
    {
      "midi": 50,
      "hit": false,
      "t": 313333.34900000243,
      "d": 119.04762500000652,
      "v": 115
    },
    {
      "midi": 57,
      "hit": false,
      "t": 313333.34900000243,
      "d": 119.04762500000652,
      "v": 115
    },
    {
      "midi": 50,
      "hit": false,
      "t": 313333.34900000284,
      "d": 79.36508333333768,
      "v": 100
    },
    {
      "midi": 57,
      "hit": false,
      "t": 313333.34900000284,
      "d": 79.36508333333768,
      "v": 100
    },
    {
      "midi": 62,
      "hit": false,
      "t": 313571.44424999616,
      "d": 214.28572500002338,
      "v": 100
    },
    {
      "midi": 54,
      "hit": false,
      "t": 313571.4442500002,
      "d": 7.936508333310485,
      "v": 60
    },
    {
      "midi": 62,
      "hit": false,
      "t": 313809.5394999962,
      "d": 214.28572500002338,
      "v": 100
    },
    {
      "midi": 38,
      "hit": false,
      "t": 313809.53949999757,
      "d": 412.69843333330937,
      "v": 112
    },
    {
      "midi": 57,
      "hit": false,
      "t": 313809.5394999998,
      "d": 634.9206666666432,
      "v": 119
    },
    {
      "midi": 62,
      "hit": false,
      "t": 313809.5394999998,
      "d": 634.9206666666432,
      "v": 119
    },
    {
      "midi": 66,
      "hit": false,
      "t": 313809.5394999998,
      "d": 634.9206666666432,
      "v": 119
    },
    {
      "midi": 42,
      "hit": false,
      "t": 313809.53950000013,
      "d": 7.936508333310485,
      "v": 100
    },
    {
      "midi": 54,
      "hit": false,
      "t": 313809.53950000013,
      "d": 7.936508333310485,
      "v": 65
    },
    {
      "midi": 66,
      "hit": false,
      "t": 313809.539500001,
      "d": 436.50795833335724,
      "v": 108
    },
    {
      "midi": 69,
      "hit": false,
      "t": 313809.539500001,
      "d": 436.50795833335724,
      "v": 108
    },
    {
      "midi": 74,
      "hit": false,
      "t": 313809.539500001,
      "d": 436.50795833335724,
      "v": 108
    },
    {
      "midi": 81,
      "hit": false,
      "t": 313809.5395000018,
      "d": 436.50795833335724,
      "v": 120
    },
    {
      "midi": 50,
      "hit": false,
      "t": 313809.53950000246,
      "d": 119.04762500000652,
      "v": 115
    },
    {
      "midi": 57,
      "hit": false,
      "t": 313809.53950000246,
      "d": 119.04762500000652,
      "v": 115
    },
    {
      "midi": 50,
      "hit": false,
      "t": 313809.53950000287,
      "d": 436.50795833335724,
      "v": 115
    },
    {
      "midi": 57,
      "hit": false,
      "t": 313809.53950000287,
      "d": 436.50795833335724,
      "v": 115
    },
    {
      "midi": 64,
      "hit": false,
      "t": 314047.6347499962,
      "d": 214.28572500002338,
      "v": 100
    },
    {
      "midi": 54,
      "hit": false,
      "t": 314047.6347500001,
      "d": 7.936508333310485,
      "v": 60
    },
    {
      "midi": 69,
      "hit": false,
      "t": 314285.7299999962,
      "d": 214.28572500002338,
      "v": 100
    },
    {
      "midi": 38,
      "hit": false,
      "t": 314285.72999999754,
      "d": 412.69843333330937,
      "v": 112
    },
    {
      "midi": 40,
      "hit": false,
      "t": 314285.73000000004,
      "d": 7.936508333310485,
      "v": 127
    },
    {
      "midi": 42,
      "hit": false,
      "t": 314285.73000000004,
      "d": 7.936508333310485,
      "v": 115
    },
    {
      "midi": 54,
      "hit": false,
      "t": 314285.73000000004,
      "d": 7.936508333310485,
      "v": 100
    },
    {
      "midi": 66,
      "hit": false,
      "t": 314285.73000000103,
      "d": 436.50795833335724,
      "v": 108
    },
    {
      "midi": 69,
      "hit": false,
      "t": 314285.73000000103,
      "d": 436.50795833335724,
      "v": 108
    },
    {
      "midi": 74,
      "hit": false,
      "t": 314285.73000000103,
      "d": 436.50795833335724,
      "v": 108
    },
    {
      "midi": 81,
      "hit": false,
      "t": 314285.73000000184,
      "d": 436.50795833335724,
      "v": 120
    },
    {
      "midi": 50,
      "hit": false,
      "t": 314285.7300000025,
      "d": 119.04762500000652,
      "v": 115
    },
    {
      "midi": 57,
      "hit": false,
      "t": 314285.7300000025,
      "d": 119.04762500000652,
      "v": 115
    },
    {
      "midi": 50,
      "hit": false,
      "t": 314285.7300000029,
      "d": 79.36508333333768,
      "v": 100
    },
    {
      "midi": 57,
      "hit": false,
      "t": 314285.7300000029,
      "d": 79.36508333333768,
      "v": 100
    },
    {
      "midi": 62,
      "hit": false,
      "t": 314523.8252499962,
      "d": 214.28572500002338,
      "v": 100
    },
    {
      "midi": 57,
      "hit": false,
      "t": 314523.82524999976,
      "d": 214.28572500002338,
      "v": 119
    },
    {
      "midi": 62,
      "hit": false,
      "t": 314523.82524999976,
      "d": 214.28572500002338,
      "v": 119
    },
    {
      "midi": 66,
      "hit": false,
      "t": 314523.82524999976,
      "d": 214.28572500002338,
      "v": 119
    },
    {
      "midi": 54,
      "hit": false,
      "t": 314523.82525,
      "d": 7.936508333310485,
      "v": 60
    },
    {
      "midi": 62,
      "hit": false,
      "t": 314761.9204999962,
      "d": 214.28572500002338,
      "v": 100
    },
    {
      "midi": 38,
      "hit": false,
      "t": 314761.9204999975,
      "d": 412.69843333330937,
      "v": 112
    },
    {
      "midi": 2,
      "hit": false,
      "t": 314761.92049999995,
      "d": 7.936508333310485,
      "v": 120
    },
    {
      "midi": 42,
      "hit": false,
      "t": 314761.92049999995,
      "d": 7.936508333310485,
      "v": 100
    },
    {
      "midi": 54,
      "hit": false,
      "t": 314761.92049999995,
      "d": 7.936508333310485,
      "v": 60
    },
    {
      "midi": 66,
      "hit": false,
      "t": 314761.92050000106,
      "d": 436.50795833335724,
      "v": 108
    },
    {
      "midi": 69,
      "hit": false,
      "t": 314761.92050000106,
      "d": 436.50795833335724,
      "v": 108
    },
    {
      "midi": 74,
      "hit": false,
      "t": 314761.92050000106,
      "d": 436.50795833335724,
      "v": 108
    },
    {
      "midi": 79,
      "hit": false,
      "t": 314761.92050000187,
      "d": 436.50795833335724,
      "v": 120
    },
    {
      "midi": 50,
      "hit": false,
      "t": 314761.9205000025,
      "d": 119.04762500000652,
      "v": 115
    },
    {
      "midi": 57,
      "hit": false,
      "t": 314761.9205000025,
      "d": 119.04762500000652,
      "v": 115
    },
    {
      "midi": 50,
      "hit": false,
      "t": 314761.9205000029,
      "d": 79.36508333333768,
      "v": 100
    },
    {
      "midi": 57,
      "hit": false,
      "t": 314761.9205000029,
      "d": 79.36508333333768,
      "v": 100
    },
    {
      "midi": 69,
      "hit": false,
      "t": 315000.01574999624,
      "d": 214.28572500002338,
      "v": 100
    },
    {
      "midi": 54,
      "hit": false,
      "t": 315000.0157499999,
      "d": 7.936508333310485,
      "v": 60
    },
    {
      "midi": 57,
      "hit": false,
      "t": 315222.2379833331,
      "d": 873.0159166666563,
      "v": 119
    },
    {
      "midi": 62,
      "hit": false,
      "t": 315222.2379833331,
      "d": 873.0159166666563,
      "v": 119
    },
    {
      "midi": 66,
      "hit": false,
      "t": 315222.2379833331,
      "d": 873.0159166666563,
      "v": 119
    },
    {
      "midi": 64,
      "hit": false,
      "t": 315238.11099999625,
      "d": 214.28572500002338,
      "v": 100
    },
    {
      "midi": 38,
      "hit": false,
      "t": 315238.1109999975,
      "d": 412.69843333330937,
      "v": 112
    },
    {
      "midi": 40,
      "hit": false,
      "t": 315238.11099999986,
      "d": 7.936508333310485,
      "v": 127
    },
    {
      "midi": 42,
      "hit": false,
      "t": 315238.11099999986,
      "d": 7.936508333310485,
      "v": 100
    },
    {
      "midi": 54,
      "hit": false,
      "t": 315238.11099999986,
      "d": 7.936508333310485,
      "v": 100
    },
    {
      "midi": 66,
      "hit": false,
      "t": 315238.1110000011,
      "d": 436.50795833335724,
      "v": 108
    },
    {
      "midi": 69,
      "hit": false,
      "t": 315238.1110000011,
      "d": 436.50795833335724,
      "v": 108
    },
    {
      "midi": 74,
      "hit": false,
      "t": 315238.1110000011,
      "d": 436.50795833335724,
      "v": 108
    },
    {
      "midi": 78,
      "hit": false,
      "t": 315238.1110000019,
      "d": 436.50795833335724,
      "v": 120
    },
    {
      "midi": 50,
      "hit": false,
      "t": 315238.11100000254,
      "d": 912.6984583333251,
      "v": 120
    },
    {
      "midi": 57,
      "hit": false,
      "t": 315238.11100000254,
      "d": 912.6984583333251,
      "v": 120
    },
    {
      "midi": 50,
      "hit": false,
      "t": 315238.11100000294,
      "d": 436.50795833335724,
      "v": 115
    },
    {
      "midi": 57,
      "hit": false,
      "t": 315238.11100000294,
      "d": 436.50795833335724,
      "v": 115
    },
    {
      "midi": 62,
      "hit": false,
      "t": 315476.20624999626,
      "d": 214.28572500002338,
      "v": 100
    },
    {
      "midi": 54,
      "hit": false,
      "t": 315476.2062499998,
      "d": 7.936508333310485,
      "v": 60
    },
    {
      "midi": 69,
      "hit": false,
      "t": 315714.3014999963,
      "d": 214.28572500002338,
      "v": 100
    },
    {
      "midi": 38,
      "hit": false,
      "t": 315714.30149999744,
      "d": 412.69843333330937,
      "v": 112
    },
    {
      "midi": 2,
      "hit": false,
      "t": 315714.30149999977,
      "d": 7.936508333310485,
      "v": 120
    },
    {
      "midi": 42,
      "hit": false,
      "t": 315714.30149999977,
      "d": 7.936508333310485,
      "v": 100
    },
    {
      "midi": 54,
      "hit": false,
      "t": 315714.30149999977,
      "d": 7.936508333310485,
      "v": 60
    },
    {
      "midi": 66,
      "hit": false,
      "t": 315714.3015000011,
      "d": 436.50795833335724,
      "v": 108
    },
    {
      "midi": 69,
      "hit": false,
      "t": 315714.3015000011,
      "d": 436.50795833335724,
      "v": 108
    },
    {
      "midi": 74,
      "hit": false,
      "t": 315714.3015000011,
      "d": 436.50795833335724,
      "v": 108
    },
    {
      "midi": 79,
      "hit": false,
      "t": 315714.3015000019,
      "d": 436.50795833335724,
      "v": 120
    },
    {
      "midi": 50,
      "hit": false,
      "t": 315714.30150000297,
      "d": 198.4127083333442,
      "v": 100
    },
    {
      "midi": 57,
      "hit": false,
      "t": 315714.30150000297,
      "d": 198.4127083333442,
      "v": 100
    },
    {
      "midi": 62,
      "hit": false,
      "t": 315952.3967499963,
      "d": 214.28572500002338,
      "v": 100
    },
    {
      "midi": 54,
      "hit": false,
      "t": 315952.3967499997,
      "d": 7.936508333310485,
      "v": 65
    },
    {
      "midi": 50,
      "hit": false,
      "t": 315952.396750003,
      "d": 198.4127083333442,
      "v": 100
    },
    {
      "midi": 57,
      "hit": false,
      "t": 315952.396750003,
      "d": 198.4127083333442,
      "v": 100
    },
    {
      "midi": 57,
      "hit": false,
      "t": 316158.74596666644,
      "d": 634.9206666666432,
      "v": 119
    },
    {
      "midi": 64,
      "hit": false,
      "t": 316158.74596666644,
      "d": 634.9206666666432,
      "v": 119
    },
    {
      "midi": 61,
      "hit": false,
      "t": 316158.74596666644,
      "d": 634.9206666666432,
      "v": 119
    },
    {
      "midi": 59,
      "hit": false,
      "t": 316158.74596666644,
      "d": 634.9206666666432,
      "v": 119
    },
    {
      "midi": 57,
      "hit": false,
      "t": 316190.4919999963,
      "d": 214.28572500002338,
      "v": 100
    },
    {
      "midi": 33,
      "hit": false,
      "t": 316190.4919999974,
      "d": 412.69843333330937,
      "v": 118
    },
    {
      "midi": 2,
      "hit": false,
      "t": 316190.4919999997,
      "d": 7.936508333310485,
      "v": 123
    },
    {
      "midi": 54,
      "hit": false,
      "t": 316190.4919999997,
      "d": 7.936508333310485,
      "v": 100
    },
    {
      "midi": 42,
      "hit": false,
      "t": 316190.4919999997,
      "d": 7.936508333310485,
      "v": 115
    },
    {
      "midi": 40,
      "hit": false,
      "t": 316190.4919999997,
      "d": 7.936508333310485,
      "v": 127
    },
    {
      "midi": 73,
      "hit": false,
      "t": 316190.49199999997,
      "d": 3793.6509833332966,
      "v": 115
    },
    {
      "midi": 64,
      "hit": false,
      "t": 316190.49200000113,
      "d": 1388.8889583333512,
      "v": 108
    },
    {
      "midi": 69,
      "hit": false,
      "t": 316190.49200000113,
      "d": 1388.8889583333512,
      "v": 108
    },
    {
      "midi": 73,
      "hit": false,
      "t": 316190.49200000113,
      "d": 1388.8889583333512,
      "v": 108
    },
    {
      "midi": 81,
      "hit": false,
      "t": 316190.49200000195,
      "d": 1190.476250000007,
      "v": 120
    },
    {
      "midi": 45,
      "hit": false,
      "t": 316190.49200000253,
      "d": 912.6984583333251,
      "v": 120
    },
    {
      "midi": 52,
      "hit": false,
      "t": 316190.49200000253,
      "d": 912.6984583333251,
      "v": 120
    },
    {
      "midi": 45,
      "hit": false,
      "t": 316190.492000003,
      "d": 436.50795833335724,
      "v": 115
    },
    {
      "midi": 52,
      "hit": false,
      "t": 316190.492000003,
      "d": 436.50795833335724,
      "v": 115
    },
    {
      "midi": 54,
      "hit": false,
      "t": 316404.77772499964,
      "d": 7.936508333310485,
      "v": 60
    },
    {
      "midi": 69,
      "hit": false,
      "t": 316428.5872499963,
      "d": 214.28572500002338,
      "v": 100
    },
    {
      "midi": 54,
      "hit": false,
      "t": 316642.8729749996,
      "d": 7.936508333310485,
      "v": 60
    },
    {
      "midi": 61,
      "hit": false,
      "t": 316666.6824999963,
      "d": 214.28572500002338,
      "v": 100
    },
    {
      "midi": 33,
      "hit": false,
      "t": 316666.6824999974,
      "d": 412.69843333330937,
      "v": 112
    },
    {
      "midi": 42,
      "hit": false,
      "t": 316666.6824999996,
      "d": 7.936508333310485,
      "v": 100
    },
    {
      "midi": 45,
      "hit": false,
      "t": 316666.682500003,
      "d": 79.36508333333768,
      "v": 100
    },
    {
      "midi": 52,
      "hit": false,
      "t": 316666.682500003,
      "d": 79.36508333333768,
      "v": 100
    },
    {
      "midi": 54,
      "hit": false,
      "t": 316880.96822499955,
      "d": 7.936508333310485,
      "v": 60
    },
    {
      "midi": 57,
      "hit": false,
      "t": 316904.77774999634,
      "d": 214.28572500002338,
      "v": 100
    },
    {
      "midi": 57,
      "hit": false,
      "t": 316904.7777499997,
      "d": 214.28572500002338,
      "v": 119
    },
    {
      "midi": 64,
      "hit": false,
      "t": 316904.7777499997,
      "d": 214.28572500002338,
      "v": 119
    },
    {
      "midi": 61,
      "hit": false,
      "t": 316904.7777499997,
      "d": 214.28572500002338,
      "v": 119
    },
    {
      "midi": 59,
      "hit": false,
      "t": 316904.7777499997,
      "d": 214.28572500002338,
      "v": 119
    },
    {
      "midi": 54,
      "hit": false,
      "t": 317119.0634749995,
      "d": 7.936508333310485,
      "v": 100
    },
    {
      "midi": 64,
      "hit": false,
      "t": 317142.87299999635,
      "d": 214.28572500002338,
      "v": 100
    },
    {
      "midi": 33,
      "hit": false,
      "t": 317142.87299999734,
      "d": 412.69843333330937,
      "v": 112
    },
    {
      "midi": 40,
      "hit": false,
      "t": 317142.8729999995,
      "d": 7.936508333310485,
      "v": 127
    },
    {
      "midi": 42,
      "hit": false,
      "t": 317142.8729999995,
      "d": 7.936508333310485,
      "v": 100
    },
    {
      "midi": 45,
      "hit": false,
      "t": 317142.8730000025,
      "d": 119.04762500000652,
      "v": 115
    },
    {
      "midi": 52,
      "hit": false,
      "t": 317142.8730000025,
      "d": 119.04762500000652,
      "v": 115
    },
    {
      "midi": 52,
      "hit": false,
      "t": 317142.87300000305,
      "d": 79.36508333333768,
      "v": 100
    },
    {
      "midi": 45,
      "hit": false,
      "t": 317142.87300000305,
      "d": 79.36508333333768,
      "v": 100
    },
    {
      "midi": 54,
      "hit": false,
      "t": 317357.15872499946,
      "d": 7.936508333310485,
      "v": 60
    },
    {
      "midi": 61,
      "hit": false,
      "t": 317380.96824999637,
      "d": 214.28572500002338,
      "v": 100
    },
    {
      "midi": 54,
      "hit": false,
      "t": 317595.2539749994,
      "d": 7.936508333310485,
      "v": 65
    },
    {
      "midi": 57,
      "hit": false,
      "t": 317603.1904833331,
      "d": 873.0159166666563,
      "v": 119
    },
    {
      "midi": 64,
      "hit": false,
      "t": 317603.1904833331,
      "d": 873.0159166666563,
      "v": 119
    },
    {
      "midi": 61,
      "hit": false,
      "t": 317603.1904833331,
      "d": 873.0159166666563,
      "v": 119
    },
    {
      "midi": 59,
      "hit": false,
      "t": 317603.1904833331,
      "d": 873.0159166666563,
      "v": 119
    },
    {
      "midi": 61,
      "hit": false,
      "t": 317619.0634999964,
      "d": 214.28572500002338,
      "v": 100
    },
    {
      "midi": 33,
      "hit": false,
      "t": 317619.0634999973,
      "d": 412.69843333330937,
      "v": 112
    },
    {
      "midi": 42,
      "hit": false,
      "t": 317619.0634999994,
      "d": 7.936508333310485,
      "v": 100
    },
    {
      "midi": 64,
      "hit": false,
      "t": 317619.06350000115,
      "d": 436.50795833335724,
      "v": 108
    },
    {
      "midi": 69,
      "hit": false,
      "t": 317619.06350000115,
      "d": 436.50795833335724,
      "v": 108
    },
    {
      "midi": 73,
      "hit": false,
      "t": 317619.06350000115,
      "d": 436.50795833335724,
      "v": 108
    },
    {
      "midi": 76,
      "hit": false,
      "t": 317619.06350000197,
      "d": 436.50795833335724,
      "v": 120
    },
    {
      "midi": 45,
      "hit": false,
      "t": 317619.06350000255,
      "d": 119.04762500000652,
      "v": 115
    },
    {
      "midi": 52,
      "hit": false,
      "t": 317619.06350000255,
      "d": 119.04762500000652,
      "v": 115
    },
    {
      "midi": 45,
      "hit": false,
      "t": 317619.0635000031,
      "d": 436.50795833335724,
      "v": 115
    },
    {
      "midi": 52,
      "hit": false,
      "t": 317619.0635000031,
      "d": 436.50795833335724,
      "v": 115
    },
    {
      "midi": 54,
      "hit": false,
      "t": 317833.3492249994,
      "d": 7.936508333310485,
      "v": 60
    },
    {
      "midi": 64,
      "hit": false,
      "t": 317857.1587499964,
      "d": 214.28572500002338,
      "v": 100
    },
    {
      "midi": 54,
      "hit": false,
      "t": 318071.4444749993,
      "d": 7.936508333310485,
      "v": 100
    },
    {
      "midi": 69,
      "hit": false,
      "t": 318095.2539999964,
      "d": 214.28572500002338,
      "v": 100
    },
    {
      "midi": 33,
      "hit": false,
      "t": 318095.2539999973,
      "d": 412.69843333330937,
      "v": 112
    },
    {
      "midi": 40,
      "hit": false,
      "t": 318095.2539999993,
      "d": 7.936508333310485,
      "v": 127
    },
    {
      "midi": 42,
      "hit": false,
      "t": 318095.2539999993,
      "d": 7.936508333310485,
      "v": 115
    },
    {
      "midi": 64,
      "hit": false,
      "t": 318095.2540000012,
      "d": 896.8254416666459,
      "v": 108
    },
    {
      "midi": 69,
      "hit": false,
      "t": 318095.2540000012,
      "d": 896.8254416666459,
      "v": 108
    },
    {
      "midi": 73,
      "hit": false,
      "t": 318095.2540000012,
      "d": 896.8254416666459,
      "v": 108
    },
    {
      "midi": 76,
      "hit": false,
      "t": 318095.254000002,
      "d": 873.0159166666563,
      "v": 120
    },
    {
      "midi": 45,
      "hit": false,
      "t": 318095.2540000026,
      "d": 119.04762500000652,
      "v": 115
    },
    {
      "midi": 52,
      "hit": false,
      "t": 318095.2540000026,
      "d": 119.04762500000652,
      "v": 115
    },
    {
      "midi": 45,
      "hit": false,
      "t": 318095.2540000031,
      "d": 79.36508333333768,
      "v": 100
    },
    {
      "midi": 52,
      "hit": false,
      "t": 318095.2540000031,
      "d": 79.36508333333768,
      "v": 100
    },
    {
      "midi": 54,
      "hit": false,
      "t": 318309.5397249993,
      "d": 7.936508333310485,
      "v": 60
    },
    {
      "midi": 61,
      "hit": false,
      "t": 318333.3492499964,
      "d": 214.28572500002338,
      "v": 100
    },
    {
      "midi": 54,
      "hit": false,
      "t": 318547.63497499924,
      "d": 7.936508333310485,
      "v": 60
    },
    {
      "midi": 57,
      "hit": false,
      "t": 318555.5714833331,
      "d": 436.50795833335724,
      "v": 119
    },
    {
      "midi": 64,
      "hit": false,
      "t": 318555.5714833331,
      "d": 436.50795833335724,
      "v": 119
    },
    {
      "midi": 61,
      "hit": false,
      "t": 318555.5714833331,
      "d": 436.50795833335724,
      "v": 119
    },
    {
      "midi": 59,
      "hit": false,
      "t": 318555.5714833331,
      "d": 436.50795833335724,
      "v": 119
    },
    {
      "midi": 64,
      "hit": false,
      "t": 318571.44449999643,
      "d": 214.28572500002338,
      "v": 100
    },
    {
      "midi": 33,
      "hit": false,
      "t": 318571.44449999725,
      "d": 412.69843333330937,
      "v": 112
    },
    {
      "midi": 2,
      "hit": false,
      "t": 318571.4444999992,
      "d": 7.936508333310485,
      "v": 120
    },
    {
      "midi": 42,
      "hit": false,
      "t": 318571.4444999992,
      "d": 7.936508333310485,
      "v": 100
    },
    {
      "midi": 45,
      "hit": false,
      "t": 318571.4445000026,
      "d": 119.04762500000652,
      "v": 115
    },
    {
      "midi": 52,
      "hit": false,
      "t": 318571.4445000026,
      "d": 119.04762500000652,
      "v": 115
    },
    {
      "midi": 52,
      "hit": false,
      "t": 318571.4445000031,
      "d": 79.36508333333768,
      "v": 100
    },
    {
      "midi": 45,
      "hit": false,
      "t": 318571.4445000031,
      "d": 79.36508333333768,
      "v": 100
    },
    {
      "midi": 54,
      "hit": false,
      "t": 318785.7302249992,
      "d": 7.936508333310485,
      "v": 60
    },
    {
      "midi": 69,
      "hit": false,
      "t": 318809.53974999645,
      "d": 214.28572500002338,
      "v": 100
    },
    {
      "midi": 54,
      "hit": false,
      "t": 319023.82547499915,
      "d": 7.936508333310485,
      "v": 100
    },
    {
      "midi": 69,
      "hit": false,
      "t": 319047.63499999646,
      "d": 214.28572500002338,
      "v": 100
    },
    {
      "midi": 37,
      "hit": false,
      "t": 319047.6349999972,
      "d": 412.69843333330937,
      "v": 112
    },
    {
      "midi": 40,
      "hit": false,
      "t": 319047.63499999914,
      "d": 7.936508333310485,
      "v": 127
    },
    {
      "midi": 42,
      "hit": false,
      "t": 319047.63499999914,
      "d": 7.936508333310485,
      "v": 100
    },
    {
      "midi": 64,
      "hit": false,
      "t": 319047.6350000012,
      "d": 436.50795833335724,
      "v": 108
    },
    {
      "midi": 69,
      "hit": false,
      "t": 319047.6350000012,
      "d": 436.50795833335724,
      "v": 108
    },
    {
      "midi": 73,
      "hit": false,
      "t": 319047.6350000012,
      "d": 436.50795833335724,
      "v": 108
    },
    {
      "midi": 78,
      "hit": false,
      "t": 319047.635000002,
      "d": 436.50795833335724,
      "v": 120
    },
    {
      "midi": 45,
      "hit": false,
      "t": 319047.63500000257,
      "d": 912.6984583333251,
      "v": 120
    },
    {
      "midi": 52,
      "hit": false,
      "t": 319047.63500000257,
      "d": 912.6984583333251,
      "v": 120
    },
    {
      "midi": 45,
      "hit": false,
      "t": 319047.63500000315,
      "d": 873.0159166666563,
      "v": 115
    },
    {
      "midi": 52,
      "hit": false,
      "t": 319047.63500000315,
      "d": 873.0159166666563,
      "v": 115
    },
    {
      "midi": 54,
      "hit": false,
      "t": 319261.9207249991,
      "d": 7.936508333310485,
      "v": 60
    },
    {
      "midi": 57,
      "hit": false,
      "t": 319269.8572333331,
      "d": 634.9206666666432,
      "v": 119
    },
    {
      "midi": 64,
      "hit": false,
      "t": 319269.8572333331,
      "d": 634.9206666666432,
      "v": 119
    },
    {
      "midi": 61,
      "hit": false,
      "t": 319269.8572333331,
      "d": 634.9206666666432,
      "v": 119
    },
    {
      "midi": 59,
      "hit": false,
      "t": 319269.8572333331,
      "d": 634.9206666666432,
      "v": 119
    },
    {
      "midi": 64,
      "hit": false,
      "t": 319285.7302499965,
      "d": 214.28572500002338,
      "v": 100
    },
    {
      "midi": 54,
      "hit": false,
      "t": 319500.01597499906,
      "d": 7.936508333310485,
      "v": 60
    },
    {
      "midi": 73,
      "hit": false,
      "t": 319523.8254999965,
      "d": 214.28572500002338,
      "v": 100
    },
    {
      "midi": 36,
      "hit": false,
      "t": 319523.8254999972,
      "d": 412.69843333330937,
      "v": 112
    },
    {
      "midi": 2,
      "hit": false,
      "t": 319523.82549999905,
      "d": 7.936508333310485,
      "v": 120
    },
    {
      "midi": 42,
      "hit": false,
      "t": 319523.82549999905,
      "d": 7.936508333310485,
      "v": 100
    },
    {
      "midi": 64,
      "hit": false,
      "t": 319523.8255000012,
      "d": 436.50795833335724,
      "v": 108
    },
    {
      "midi": 69,
      "hit": false,
      "t": 319523.8255000012,
      "d": 436.50795833335724,
      "v": 108
    },
    {
      "midi": 73,
      "hit": false,
      "t": 319523.8255000012,
      "d": 436.50795833335724,
      "v": 108
    },
    {
      "midi": 76,
      "hit": false,
      "t": 319523.825500002,
      "d": 436.50795833335724,
      "v": 120
    },
    {
      "midi": 54,
      "hit": false,
      "t": 319738.111224999,
      "d": 7.936508333310485,
      "v": 65
    },
    {
      "midi": 69,
      "hit": false,
      "t": 319761.9207499965,
      "d": 214.28572500002338,
      "v": 100
    },
    {
      "midi": 57,
      "hit": false,
      "t": 319968.2699666664,
      "d": 634.9206666666432,
      "v": 119
    },
    {
      "midi": 62,
      "hit": false,
      "t": 319968.2699666664,
      "d": 634.9206666666432,
      "v": 119
    },
    {
      "midi": 66,
      "hit": false,
      "t": 319968.2699666664,
      "d": 634.9206666666432,
      "v": 119
    },
    {
      "midi": 98,
      "hit": false,
      "t": 319976.20647499955,
      "d": 3809.524000000034,
      "v": 100
    },
    {
      "midi": 86,
      "hit": false,
      "t": 319976.20647499955,
      "d": 3809.524000000034,
      "v": 100
    },
    {
      "midi": 71,
      "hit": false,
      "t": 319976.20647499996,
      "d": 3793.6509833332966,
      "v": 115
    },
    {
      "midi": 59,
      "hit": false,
      "t": 320000.0159999965,
      "d": 436.50795833335724,
      "v": 100
    },
    {
      "midi": 35,
      "hit": false,
      "t": 320000.01599999715,
      "d": 412.69843333330937,
      "v": 118
    },
    {
      "midi": 2,
      "hit": false,
      "t": 320000.015999999,
      "d": 7.936508333310485,
      "v": 123
    },
    {
      "midi": 54,
      "hit": false,
      "t": 320000.015999999,
      "d": 7.936508333310485,
      "v": 100
    },
    {
      "midi": 42,
      "hit": false,
      "t": 320000.015999999,
      "d": 7.936508333310485,
      "v": 115
    },
    {
      "midi": 40,
      "hit": false,
      "t": 320000.015999999,
      "d": 7.936508333310485,
      "v": 127
    },
    {
      "midi": 62,
      "hit": false,
      "t": 320000.0160000012,
      "d": 896.8254416666459,
      "v": 108
    },
    {
      "midi": 66,
      "hit": false,
      "t": 320000.0160000012,
      "d": 896.8254416666459,
      "v": 108
    },
    {
      "midi": 71,
      "hit": false,
      "t": 320000.0160000012,
      "d": 896.8254416666459,
      "v": 108
    },
    {
      "midi": 74,
      "hit": false,
      "t": 320000.01600000204,
      "d": 873.0159166666563,
      "v": 120
    },
    {
      "midi": 47,
      "hit": false,
      "t": 320000.01600000256,
      "d": 912.6984583333251,
      "v": 120
    },
    {
      "midi": 54,
      "hit": false,
      "t": 320000.01600000256,
      "d": 912.6984583333251,
      "v": 120
    },
    {
      "midi": 47,
      "hit": false,
      "t": 320000.01600000315,
      "d": 436.50795833335724,
      "v": 115
    },
    {
      "midi": 54,
      "hit": false,
      "t": 320000.01600000315,
      "d": 436.50795833335724,
      "v": 115
    },
    {
      "midi": 54,
      "hit": false,
      "t": 320214.301724999,
      "d": 7.936508333310485,
      "v": 60
    },
    {
      "midi": 54,
      "hit": false,
      "t": 320452.39697499893,
      "d": 7.936508333310485,
      "v": 60
    },
    {
      "midi": 62,
      "hit": false,
      "t": 320476.20649999654,
      "d": 214.28572500002338,
      "v": 100
    },
    {
      "midi": 35,
      "hit": false,
      "t": 320476.2064999971,
      "d": 412.69843333330937,
      "v": 112
    },
    {
      "midi": 42,
      "hit": false,
      "t": 320476.2064999989,
      "d": 7.936508333310485,
      "v": 100
    },
    {
      "midi": 47,
      "hit": false,
      "t": 320476.2065000032,
      "d": 79.36508333333768,
      "v": 100
    },
    {
      "midi": 54,
      "hit": false,
      "t": 320476.2065000032,
      "d": 79.36508333333768,
      "v": 100
    },
    {
      "midi": 54,
      "hit": false,
      "t": 320690.4922249989,
      "d": 7.936508333310485,
      "v": 60
    },
    {
      "midi": 57,
      "hit": false,
      "t": 320698.4287333331,
      "d": 214.28572500002338,
      "v": 119
    },
    {
      "midi": 62,
      "hit": false,
      "t": 320698.4287333331,
      "d": 214.28572500002338,
      "v": 119
    },
    {
      "midi": 66,
      "hit": false,
      "t": 320698.4287333331,
      "d": 214.28572500002338,
      "v": 119
    },
    {
      "midi": 59,
      "hit": false,
      "t": 320714.30174999655,
      "d": 214.28572500002338,
      "v": 100
    },
    {
      "midi": 54,
      "hit": false,
      "t": 320928.58747499884,
      "d": 7.936508333310485,
      "v": 100
    },
    {
      "midi": 66,
      "hit": false,
      "t": 320952.39699999656,
      "d": 214.28572500002338,
      "v": 100
    },
    {
      "midi": 35,
      "hit": false,
      "t": 320952.3969999971,
      "d": 412.69843333330937,
      "v": 112
    },
    {
      "midi": 40,
      "hit": false,
      "t": 320952.39699999883,
      "d": 7.936508333310485,
      "v": 127
    },
    {
      "midi": 42,
      "hit": false,
      "t": 320952.39699999883,
      "d": 7.936508333310485,
      "v": 100
    },
    {
      "midi": 47,
      "hit": false,
      "t": 320952.39700000256,
      "d": 119.04762500000652,
      "v": 115
    },
    {
      "midi": 54,
      "hit": false,
      "t": 320952.39700000256,
      "d": 119.04762500000652,
      "v": 115
    },
    {
      "midi": 54,
      "hit": false,
      "t": 320952.3970000032,
      "d": 79.36508333333768,
      "v": 100
    },
    {
      "midi": 47,
      "hit": false,
      "t": 320952.3970000032,
      "d": 79.36508333333768,
      "v": 100
    },
    {
      "midi": 54,
      "hit": false,
      "t": 321166.6827249988,
      "d": 7.936508333310485,
      "v": 60
    },
    {
      "midi": 64,
      "hit": false,
      "t": 321190.4922499966,
      "d": 214.28572500002338,
      "v": 100
    },
    {
      "midi": 54,
      "hit": false,
      "t": 321404.77797499875,
      "d": 7.936508333310485,
      "v": 65
    },
    {
      "midi": 57,
      "hit": false,
      "t": 321412.7144833331,
      "d": 634.9206666666432,
      "v": 119
    },
    {
      "midi": 62,
      "hit": false,
      "t": 321412.7144833331,
      "d": 634.9206666666432,
      "v": 119
    },
    {
      "midi": 66,
      "hit": false,
      "t": 321412.7144833331,
      "d": 634.9206666666432,
      "v": 119
    },
    {
      "midi": 64,
      "hit": false,
      "t": 321428.5874999966,
      "d": 214.28572500002338,
      "v": 100
    },
    {
      "midi": 35,
      "hit": false,
      "t": 321428.58749999705,
      "d": 412.69843333330937,
      "v": 112
    },
    {
      "midi": 42,
      "hit": false,
      "t": 321428.58749999874,
      "d": 7.936508333310485,
      "v": 100
    },
    {
      "midi": 62,
      "hit": false,
      "t": 321428.5875000012,
      "d": 436.50795833335724,
      "v": 108
    },
    {
      "midi": 66,
      "hit": false,
      "t": 321428.5875000012,
      "d": 436.50795833335724,
      "v": 108
    },
    {
      "midi": 71,
      "hit": false,
      "t": 321428.5875000012,
      "d": 436.50795833335724,
      "v": 108
    },
    {
      "midi": 73,
      "hit": false,
      "t": 321428.587500002,
      "d": 436.50795833335724,
      "v": 120
    },
    {
      "midi": 54,
      "hit": false,
      "t": 321428.5875000026,
      "d": 119.04762500000652,
      "v": 115
    },
    {
      "midi": 47,
      "hit": false,
      "t": 321428.5875000026,
      "d": 119.04762500000652,
      "v": 115
    },
    {
      "midi": 47,
      "hit": false,
      "t": 321428.5875000032,
      "d": 436.50795833335724,
      "v": 115
    },
    {
      "midi": 54,
      "hit": false,
      "t": 321428.5875000032,
      "d": 436.50795833335724,
      "v": 115
    },
    {
      "midi": 54,
      "hit": false,
      "t": 321642.8732249987,
      "d": 7.936508333310485,
      "v": 60
    },
    {
      "midi": 66,
      "hit": false,
      "t": 321666.6827499966,
      "d": 214.28572500002338,
      "v": 100
    },
    {
      "midi": 54,
      "hit": false,
      "t": 321880.96847499866,
      "d": 7.936508333310485,
      "v": 100
    },
    {
      "midi": 71,
      "hit": false,
      "t": 321904.7779999966,
      "d": 214.28572500002338,
      "v": 100
    },
    {
      "midi": 35,
      "hit": false,
      "t": 321904.777999997,
      "d": 412.69843333330937,
      "v": 112
    },
    {
      "midi": 40,
      "hit": false,
      "t": 321904.77799999865,
      "d": 7.936508333310485,
      "v": 127
    },
    {
      "midi": 42,
      "hit": false,
      "t": 321904.77799999865,
      "d": 7.936508333310485,
      "v": 115
    },
    {
      "midi": 62,
      "hit": false,
      "t": 321904.7780000012,
      "d": 436.50795833335724,
      "v": 108
    },
    {
      "midi": 66,
      "hit": false,
      "t": 321904.7780000012,
      "d": 436.50795833335724,
      "v": 108
    },
    {
      "midi": 71,
      "hit": false,
      "t": 321904.7780000012,
      "d": 436.50795833335724,
      "v": 108
    },
    {
      "midi": 74,
      "hit": false,
      "t": 321904.778000002,
      "d": 436.50795833335724,
      "v": 120
    },
    {
      "midi": 54,
      "hit": false,
      "t": 321904.7780000026,
      "d": 119.04762500000652,
      "v": 115
    },
    {
      "midi": 47,
      "hit": false,
      "t": 321904.7780000026,
      "d": 119.04762500000652,
      "v": 115
    },
    {
      "midi": 47,
      "hit": false,
      "t": 321904.77800000325,
      "d": 79.36508333333768,
      "v": 100
    },
    {
      "midi": 54,
      "hit": false,
      "t": 321904.77800000325,
      "d": 79.36508333333768,
      "v": 100
    },
    {
      "midi": 54,
      "hit": false,
      "t": 322119.0637249986,
      "d": 7.936508333310485,
      "v": 60
    },
    {
      "midi": 57,
      "hit": false,
      "t": 322127.0002333331,
      "d": 214.28572500002338,
      "v": 119
    },
    {
      "midi": 62,
      "hit": false,
      "t": 322127.0002333331,
      "d": 214.28572500002338,
      "v": 119
    },
    {
      "midi": 66,
      "hit": false,
      "t": 322127.0002333331,
      "d": 214.28572500002338,
      "v": 119
    },
    {
      "midi": 62,
      "hit": false,
      "t": 322142.8732499966,
      "d": 214.28572500002338,
      "v": 100
    },
    {
      "midi": 54,
      "hit": false,
      "t": 322357.1589749986,
      "d": 7.936508333310485,
      "v": 60
    },
    {
      "midi": 62,
      "hit": false,
      "t": 322380.96849999664,
      "d": 214.28572500002338,
      "v": 100
    },
    {
      "midi": 35,
      "hit": false,
      "t": 322380.968499997,
      "d": 412.69843333330937,
      "v": 112
    },
    {
      "midi": 2,
      "hit": false,
      "t": 322380.96849999856,
      "d": 7.936508333310485,
      "v": 120
    },
    {
      "midi": 42,
      "hit": false,
      "t": 322380.96849999856,
      "d": 7.936508333310485,
      "v": 100
    },
    {
      "midi": 62,
      "hit": false,
      "t": 322380.96850000124,
      "d": 436.50795833335724,
      "v": 108
    },
    {
      "midi": 66,
      "hit": false,
      "t": 322380.96850000124,
      "d": 436.50795833335724,
      "v": 108
    },
    {
      "midi": 71,
      "hit": false,
      "t": 322380.96850000124,
      "d": 436.50795833335724,
      "v": 108
    },
    {
      "midi": 76,
      "hit": false,
      "t": 322380.96850000205,
      "d": 436.50795833335724,
      "v": 120
    },
    {
      "midi": 54,
      "hit": false,
      "t": 322380.96850000264,
      "d": 119.04762500000652,
      "v": 115
    },
    {
      "midi": 47,
      "hit": false,
      "t": 322380.96850000264,
      "d": 119.04762500000652,
      "v": 115
    },
    {
      "midi": 54,
      "hit": false,
      "t": 322380.9685000033,
      "d": 79.36508333333768,
      "v": 100
    },
    {
      "midi": 47,
      "hit": false,
      "t": 322380.9685000033,
      "d": 79.36508333333768,
      "v": 100
    },
    {
      "midi": 54,
      "hit": false,
      "t": 322595.2542249985,
      "d": 7.936508333310485,
      "v": 60
    },
    {
      "midi": 71,
      "hit": false,
      "t": 322619.06374999665,
      "d": 214.28572500002338,
      "v": 100
    },
    {
      "midi": 54,
      "hit": false,
      "t": 322833.3494749985,
      "d": 7.936508333310485,
      "v": 100
    },
    {
      "midi": 66,
      "hit": false,
      "t": 322857.15899999667,
      "d": 214.28572500002338,
      "v": 100
    },
    {
      "midi": 35,
      "hit": false,
      "t": 322857.15899999696,
      "d": 412.69843333330937,
      "v": 112
    },
    {
      "midi": 40,
      "hit": false,
      "t": 322857.1589999985,
      "d": 7.936508333310485,
      "v": 127
    },
    {
      "midi": 42,
      "hit": false,
      "t": 322857.1589999985,
      "d": 7.936508333310485,
      "v": 100
    },
    {
      "midi": 62,
      "hit": false,
      "t": 322857.15900000127,
      "d": 436.50795833335724,
      "v": 108
    },
    {
      "midi": 66,
      "hit": false,
      "t": 322857.15900000127,
      "d": 436.50795833335724,
      "v": 108
    },
    {
      "midi": 71,
      "hit": false,
      "t": 322857.15900000127,
      "d": 436.50795833335724,
      "v": 108
    },
    {
      "midi": 78,
      "hit": false,
      "t": 322857.1590000021,
      "d": 436.50795833335724,
      "v": 120
    },
    {
      "midi": 47,
      "hit": false,
      "t": 322857.15900000266,
      "d": 912.6984583333251,
      "v": 120
    },
    {
      "midi": 54,
      "hit": false,
      "t": 322857.15900000266,
      "d": 912.6984583333251,
      "v": 120
    },
    {
      "midi": 47,
      "hit": false,
      "t": 322857.1590000033,
      "d": 436.50795833335724,
      "v": 115
    },
    {
      "midi": 54,
      "hit": false,
      "t": 322857.1590000033,
      "d": 436.50795833335724,
      "v": 115
    },
    {
      "midi": 54,
      "hit": false,
      "t": 323071.44472499844,
      "d": 7.936508333310485,
      "v": 60
    },
    {
      "midi": 57,
      "hit": false,
      "t": 323079.38123333314,
      "d": 634.9206666666432,
      "v": 119
    },
    {
      "midi": 62,
      "hit": false,
      "t": 323079.38123333314,
      "d": 634.9206666666432,
      "v": 119
    },
    {
      "midi": 66,
      "hit": false,
      "t": 323079.38123333314,
      "d": 634.9206666666432,
      "v": 119
    },
    {
      "midi": 62,
      "hit": false,
      "t": 323095.2542499967,
      "d": 214.28572500002338,
      "v": 100
    },
    {
      "midi": 54,
      "hit": false,
      "t": 323309.5399749984,
      "d": 7.936508333310485,
      "v": 60
    },
    {
      "midi": 71,
      "hit": false,
      "t": 323333.3494999967,
      "d": 214.28572500002338,
      "v": 100
    },
    {
      "midi": 35,
      "hit": false,
      "t": 323333.3494999969,
      "d": 412.69843333330937,
      "v": 112
    },
    {
      "midi": 2,
      "hit": false,
      "t": 323333.3494999984,
      "d": 7.936508333310485,
      "v": 120
    },
    {
      "midi": 42,
      "hit": false,
      "t": 323333.3494999984,
      "d": 7.936508333310485,
      "v": 100
    },
    {
      "midi": 62,
      "hit": false,
      "t": 323333.3495000013,
      "d": 436.50795833335724,
      "v": 108
    },
    {
      "midi": 66,
      "hit": false,
      "t": 323333.3495000013,
      "d": 436.50795833335724,
      "v": 108
    },
    {
      "midi": 71,
      "hit": false,
      "t": 323333.3495000013,
      "d": 436.50795833335724,
      "v": 108
    },
    {
      "midi": 83,
      "hit": false,
      "t": 323333.3495000021,
      "d": 436.50795833335724,
      "v": 120
    },
    {
      "midi": 47,
      "hit": false,
      "t": 323333.3495000033,
      "d": 436.50795833335724,
      "v": 115
    },
    {
      "midi": 54,
      "hit": false,
      "t": 323333.3495000033,
      "d": 436.50795833335724,
      "v": 115
    },
    {
      "midi": 54,
      "hit": false,
      "t": 323547.63522499835,
      "d": 7.936508333310485,
      "v": 65
    },
    {
      "midi": 66,
      "hit": false,
      "t": 323571.4447499967,
      "d": 214.28572500002338,
      "v": 100
    },
    {
      "midi": 57,
      "hit": false,
      "t": 323777.79396666645,
      "d": 436.50795833335724,
      "v": 119
    },
    {
      "midi": 61,
      "hit": false,
      "t": 323777.79396666645,
      "d": 436.50795833335724,
      "v": 119
    },
    {
      "midi": 66,
      "hit": false,
      "t": 323777.79396666645,
      "d": 436.50795833335724,
      "v": 119
    },
    {
      "midi": 81,
      "hit": false,
      "t": 323777.7939666688,
      "d": 2150.793758333428,
      "v": 120
    },
    {
      "midi": 73,
      "hit": false,
      "t": 323785.7304749996,
      "d": 3809.523999999976,
      "v": 100
    },
    {
      "midi": 93,
      "hit": false,
      "t": 323785.73047499993,
      "d": 936.5079833333148,
      "v": 100
    },
    {
      "midi": 81,
      "hit": false,
      "t": 323785.73047499993,
      "d": 936.5079833333148,
      "v": 100
    },
    {
      "midi": 57,
      "hit": false,
      "t": 323809.5399999967,
      "d": 214.28572500002338,
      "v": 100
    },
    {
      "midi": 30,
      "hit": false,
      "t": 323809.5399999969,
      "d": 412.69843333330937,
      "v": 118
    },
    {
      "midi": 54,
      "hit": false,
      "t": 323809.53999999835,
      "d": 7.936508333310485,
      "v": 100
    },
    {
      "midi": 42,
      "hit": false,
      "t": 323809.53999999835,
      "d": 7.936508333310485,
      "v": 115
    },
    {
      "midi": 40,
      "hit": false,
      "t": 323809.53999999835,
      "d": 7.936508333310485,
      "v": 127
    },
    {
      "midi": 2,
      "hit": false,
      "t": 323809.53999999835,
      "d": 7.936508333310485,
      "v": 123
    },
    {
      "midi": 61,
      "hit": false,
      "t": 323809.5400000013,
      "d": 2817.460458333371,
      "v": 108
    },
    {
      "midi": 73,
      "hit": false,
      "t": 323809.5400000013,
      "d": 2833.3334750000504,
      "v": 108
    },
    {
      "midi": 66,
      "hit": false,
      "t": 323809.5400000013,
      "d": 2873.016016666719,
      "v": 108
    },
    {
      "midi": 42,
      "hit": false,
      "t": 323809.54000000266,
      "d": 912.6984583333251,
      "v": 120
    },
    {
      "midi": 49,
      "hit": false,
      "t": 323809.54000000266,
      "d": 912.6984583333251,
      "v": 120
    },
    {
      "midi": 42,
      "hit": false,
      "t": 323809.54000000336,
      "d": 436.50795833335724,
      "v": 115
    },
    {
      "midi": 49,
      "hit": false,
      "t": 323809.54000000336,
      "d": 436.50795833335724,
      "v": 115
    },
    {
      "midi": 54,
      "hit": false,
      "t": 324023.8257249983,
      "d": 7.936508333310485,
      "v": 60
    },
    {
      "midi": 71,
      "hit": false,
      "t": 324047.63524999673,
      "d": 214.28572500002338,
      "v": 100
    },
    {
      "midi": 54,
      "hit": false,
      "t": 324261.92097499827,
      "d": 7.936508333310485,
      "v": 60
    },
    {
      "midi": 54,
      "hit": false,
      "t": 324269.85748333315,
      "d": 214.28572500002338,
      "v": 119
    },
    {
      "midi": 66,
      "hit": false,
      "t": 324269.85748333315,
      "d": 214.28572500002338,
      "v": 119
    },
    {
      "midi": 61,
      "hit": false,
      "t": 324285.73049999675,
      "d": 214.28572500002338,
      "v": 100
    },
    {
      "midi": 30,
      "hit": false,
      "t": 324285.73049999686,
      "d": 412.69843333330937,
      "v": 112
    },
    {
      "midi": 42,
      "hit": false,
      "t": 324285.73049999826,
      "d": 7.936508333310485,
      "v": 100
    },
    {
      "midi": 42,
      "hit": false,
      "t": 324285.7305000034,
      "d": 79.36508333333768,
      "v": 100
    },
    {
      "midi": 49,
      "hit": false,
      "t": 324285.7305000034,
      "d": 79.36508333333768,
      "v": 100
    },
    {
      "midi": 54,
      "hit": false,
      "t": 324500.0162249982,
      "d": 7.936508333310485,
      "v": 60
    },
    {
      "midi": 66,
      "hit": false,
      "t": 324507.95273333316,
      "d": 436.50795833335724,
      "v": 119
    },
    {
      "midi": 54,
      "hit": false,
      "t": 324507.95273333316,
      "d": 436.50795833335724,
      "v": 119
    },
    {
      "midi": 57,
      "hit": false,
      "t": 324523.82574999676,
      "d": 214.28572500002338,
      "v": 100
    },
    {
      "midi": 54,
      "hit": false,
      "t": 324738.1114749982,
      "d": 7.936508333310485,
      "v": 100
    },
    {
      "midi": 91,
      "hit": false,
      "t": 324738.1114749999,
      "d": 936.5079833333148,
      "v": 100
    },
    {
      "midi": 79,
      "hit": false,
      "t": 324738.1114749999,
      "d": 936.5079833333148,
      "v": 100
    },
    {
      "midi": 62,
      "hit": false,
      "t": 324761.9209999968,
      "d": 214.28572500002338,
      "v": 100
    },
    {
      "midi": 30,
      "hit": false,
      "t": 324761.92099999683,
      "d": 412.69843333330937,
      "v": 112
    },
    {
      "midi": 40,
      "hit": false,
      "t": 324761.92099999817,
      "d": 7.936508333310485,
      "v": 127
    },
    {
      "midi": 42,
      "hit": false,
      "t": 324761.92099999817,
      "d": 7.936508333310485,
      "v": 100
    },
    {
      "midi": 42,
      "hit": false,
      "t": 324761.92100000265,
      "d": 119.04762500000652,
      "v": 115
    },
    {
      "midi": 49,
      "hit": false,
      "t": 324761.92100000265,
      "d": 119.04762500000652,
      "v": 115
    },
    {
      "midi": 49,
      "hit": false,
      "t": 324761.9210000034,
      "d": 79.36508333333768,
      "v": 100
    },
    {
      "midi": 42,
      "hit": false,
      "t": 324761.9210000034,
      "d": 79.36508333333768,
      "v": 100
    },
    {
      "midi": 54,
      "hit": false,
      "t": 324976.20672499813,
      "d": 7.936508333310485,
      "v": 60
    },
    {
      "midi": 54,
      "hit": false,
      "t": 324984.1432333332,
      "d": 214.28572500002338,
      "v": 119
    },
    {
      "midi": 66,
      "hit": false,
      "t": 324984.1432333332,
      "d": 214.28572500002338,
      "v": 119
    },
    {
      "midi": 61,
      "hit": false,
      "t": 325000.0162499968,
      "d": 214.28572500002338,
      "v": 100
    },
    {
      "midi": 54,
      "hit": false,
      "t": 325214.3019749981,
      "d": 7.936508333310485,
      "v": 65
    },
    {
      "midi": 54,
      "hit": false,
      "t": 325222.2384833332,
      "d": 436.50795833335724,
      "v": 119
    },
    {
      "midi": 66,
      "hit": false,
      "t": 325222.2384833332,
      "d": 436.50795833335724,
      "v": 119
    },
    {
      "midi": 30,
      "hit": false,
      "t": 325238.1114999968,
      "d": 412.69843333330937,
      "v": 112
    },
    {
      "midi": 61,
      "hit": false,
      "t": 325238.1114999968,
      "d": 214.28572500002338,
      "v": 100
    },
    {
      "midi": 42,
      "hit": false,
      "t": 325238.1114999981,
      "d": 7.936508333310485,
      "v": 100
    },
    {
      "midi": 42,
      "hit": false,
      "t": 325238.1115000027,
      "d": 119.04762500000652,
      "v": 115
    },
    {
      "midi": 49,
      "hit": false,
      "t": 325238.1115000027,
      "d": 119.04762500000652,
      "v": 115
    },
    {
      "midi": 42,
      "hit": false,
      "t": 325238.11150000343,
      "d": 436.50795833335724,
      "v": 115
    },
    {
      "midi": 49,
      "hit": false,
      "t": 325238.11150000343,
      "d": 436.50795833335724,
      "v": 115
    },
    {
      "midi": 54,
      "hit": false,
      "t": 325452.39722499804,
      "d": 7.936508333310485,
      "v": 60
    },
    {
      "midi": 64,
      "hit": false,
      "t": 325476.2067499968,
      "d": 214.28572500002338,
      "v": 100
    },
    {
      "midi": 54,
      "hit": false,
      "t": 325690.492474998,
      "d": 7.936508333310485,
      "v": 100
    },
    {
      "midi": 90,
      "hit": false,
      "t": 325690.4924749999,
      "d": 936.5079833333148,
      "v": 100
    },
    {
      "midi": 78,
      "hit": false,
      "t": 325690.4924749999,
      "d": 936.5079833333148,
      "v": 100
    },
    {
      "midi": 54,
      "hit": false,
      "t": 325698.42898333323,
      "d": 214.28572500002338,
      "v": 119
    },
    {
      "midi": 66,
      "hit": false,
      "t": 325698.42898333323,
      "d": 214.28572500002338,
      "v": 119
    },
    {
      "midi": 30,
      "hit": false,
      "t": 325714.30199999677,
      "d": 412.69843333330937,
      "v": 112
    },
    {
      "midi": 66,
      "hit": false,
      "t": 325714.3019999968,
      "d": 214.28572500002338,
      "v": 100
    },
    {
      "midi": 40,
      "hit": false,
      "t": 325714.301999998,
      "d": 7.936508333310485,
      "v": 127
    },
    {
      "midi": 42,
      "hit": false,
      "t": 325714.301999998,
      "d": 7.936508333310485,
      "v": 115
    },
    {
      "midi": 49,
      "hit": false,
      "t": 325714.3020000027,
      "d": 119.04762500000652,
      "v": 115
    },
    {
      "midi": 42,
      "hit": false,
      "t": 325714.3020000027,
      "d": 119.04762500000652,
      "v": 115
    },
    {
      "midi": 42,
      "hit": false,
      "t": 325714.30200000346,
      "d": 79.36508333333768,
      "v": 100
    },
    {
      "midi": 49,
      "hit": false,
      "t": 325714.30200000346,
      "d": 79.36508333333768,
      "v": 100
    },
    {
      "midi": 54,
      "hit": false,
      "t": 325928.58772499795,
      "d": 7.936508333310485,
      "v": 60
    },
    {
      "midi": 61,
      "hit": false,
      "t": 325952.39724999684,
      "d": 214.28572500002338,
      "v": 100
    },
    {
      "midi": 54,
      "hit": false,
      "t": 325952.3972499999,
      "d": 634.9206666666432,
      "v": 119
    },
    {
      "midi": 66,
      "hit": false,
      "t": 325952.3972499999,
      "d": 634.9206666666432,
      "v": 119
    },
    {
      "midi": 54,
      "hit": false,
      "t": 326166.6829749979,
      "d": 7.936508333310485,
      "v": 60
    },
    {
      "midi": 30,
      "hit": false,
      "t": 326190.49249999673,
      "d": 412.69843333330937,
      "v": 112
    },
    {
      "midi": 64,
      "hit": false,
      "t": 326190.49249999685,
      "d": 214.28572500002338,
      "v": 100
    },
    {
      "midi": 2,
      "hit": false,
      "t": 326190.4924999979,
      "d": 7.936508333310485,
      "v": 120
    },
    {
      "midi": 42,
      "hit": false,
      "t": 326190.4924999979,
      "d": 7.936508333310485,
      "v": 100
    },
    {
      "midi": 42,
      "hit": false,
      "t": 326190.4925000027,
      "d": 119.04762500000652,
      "v": 115
    },
    {
      "midi": 49,
      "hit": false,
      "t": 326190.4925000027,
      "d": 119.04762500000652,
      "v": 115
    },
    {
      "midi": 42,
      "hit": false,
      "t": 326190.4925000035,
      "d": 79.36508333333768,
      "v": 100
    },
    {
      "midi": 49,
      "hit": false,
      "t": 326190.4925000035,
      "d": 79.36508333333768,
      "v": 100
    },
    {
      "midi": 54,
      "hit": false,
      "t": 326404.77822499786,
      "d": 7.936508333310485,
      "v": 60
    },
    {
      "midi": 66,
      "hit": false,
      "t": 326428.58774999686,
      "d": 214.28572500002338,
      "v": 100
    },
    {
      "midi": 54,
      "hit": false,
      "t": 326642.8734749978,
      "d": 7.936508333310485,
      "v": 100
    },
    {
      "midi": 88,
      "hit": false,
      "t": 326642.8734749999,
      "d": 936.5079833333148,
      "v": 100
    },
    {
      "midi": 76,
      "hit": false,
      "t": 326642.8734749999,
      "d": 936.5079833333148,
      "v": 100
    },
    {
      "midi": 57,
      "hit": false,
      "t": 326650.8099833332,
      "d": 873.0159166666563,
      "v": 119
    },
    {
      "midi": 61,
      "hit": false,
      "t": 326650.8099833332,
      "d": 873.0159166666563,
      "v": 119
    },
    {
      "midi": 66,
      "hit": false,
      "t": 326650.8099833332,
      "d": 873.0159166666563,
      "v": 119
    },
    {
      "midi": 37,
      "hit": false,
      "t": 326666.6829999967,
      "d": 412.69843333330937,
      "v": 112
    },
    {
      "midi": 66,
      "hit": false,
      "t": 326666.6829999969,
      "d": 214.28572500002338,
      "v": 100
    },
    {
      "midi": 40,
      "hit": false,
      "t": 326666.6829999978,
      "d": 7.936508333310485,
      "v": 127
    },
    {
      "midi": 42,
      "hit": false,
      "t": 326666.6829999978,
      "d": 7.936508333310485,
      "v": 100
    },
    {
      "midi": 76,
      "hit": false,
      "t": 326666.68300000223,
      "d": 436.50795833335724,
      "v": 120
    },
    {
      "midi": 42,
      "hit": false,
      "t": 326666.6830000027,
      "d": 436.50795833335724,
      "v": 120
    },
    {
      "midi": 49,
      "hit": false,
      "t": 326666.6830000027,
      "d": 436.50795833335724,
      "v": 120
    },
    {
      "midi": 42,
      "hit": false,
      "t": 326666.6830000035,
      "d": 436.50795833335724,
      "v": 115
    },
    {
      "midi": 49,
      "hit": false,
      "t": 326666.6830000035,
      "d": 436.50795833335724,
      "v": 115
    },
    {
      "midi": 54,
      "hit": false,
      "t": 326880.9687249978,
      "d": 7.936508333310485,
      "v": 60
    },
    {
      "midi": 64,
      "hit": false,
      "t": 326904.7782499969,
      "d": 214.28572500002338,
      "v": 100
    },
    {
      "midi": 40,
      "hit": false,
      "t": 326904.77824999776,
      "d": 7.936508333310485,
      "v": 127
    },
    {
      "midi": 54,
      "hit": false,
      "t": 327119.0639749977,
      "d": 7.936508333310485,
      "v": 60
    },
    {
      "midi": 30,
      "hit": false,
      "t": 327142.87349999667,
      "d": 412.69843333330937,
      "v": 112
    },
    {
      "midi": 73,
      "hit": false,
      "t": 327142.8734999969,
      "d": 214.28572500002338,
      "v": 100
    },
    {
      "midi": 2,
      "hit": false,
      "t": 327142.8734999977,
      "d": 7.936508333310485,
      "v": 120
    },
    {
      "midi": 42,
      "hit": false,
      "t": 327142.8734999977,
      "d": 7.936508333310485,
      "v": 100
    },
    {
      "midi": 40,
      "hit": false,
      "t": 327142.8734999977,
      "d": 7.936508333310485,
      "v": 127
    },
    {
      "midi": 78,
      "hit": false,
      "t": 327142.87350000226,
      "d": 436.50795833335724,
      "v": 120
    },
    {
      "midi": 42,
      "hit": false,
      "t": 327142.8735000027,
      "d": 436.50795833329903,
      "v": 120
    },
    {
      "midi": 49,
      "hit": false,
      "t": 327142.8735000027,
      "d": 436.50795833329903,
      "v": 120
    },
    {
      "midi": 42,
      "hit": false,
      "t": 327142.87350000354,
      "d": 79.36508333333768,
      "v": 100
    },
    {
      "midi": 49,
      "hit": false,
      "t": 327142.87350000354,
      "d": 79.36508333333768,
      "v": 100
    },
    {
      "midi": 54,
      "hit": false,
      "t": 327357.1592249977,
      "d": 7.936508333310485,
      "v": 65
    },
    {
      "midi": 66,
      "hit": false,
      "t": 327380.9687499969,
      "d": 214.28572500002338,
      "v": 100
    },
    {
      "midi": 67,
      "hit": false,
      "t": 327579.38145833265,
      "d": 1825.3969166667084,
      "v": 90
    },
    {
      "midi": 79,
      "hit": false,
      "t": 327579.3814583356,
      "d": 873.0159166666563,
      "v": 120
    },
    {
      "midi": 59,
      "hit": false,
      "t": 327587.31796666654,
      "d": 873.0159166666563,
      "v": 119
    },
    {
      "midi": 62,
      "hit": false,
      "t": 327587.31796666654,
      "d": 873.0159166666563,
      "v": 119
    },
    {
      "midi": 67,
      "hit": false,
      "t": 327587.31796666654,
      "d": 873.0159166666563,
      "v": 119
    },
    {
      "midi": 74,
      "hit": false,
      "t": 327595.25447499956,
      "d": 1880.9524749999982,
      "v": 100
    },
    {
      "midi": 86,
      "hit": false,
      "t": 327595.25447499956,
      "d": 1880.9524749999982,
      "v": 100
    },
    {
      "midi": 67,
      "hit": false,
      "t": 327595.2544749999,
      "d": 1880.9524749999982,
      "v": 115
    },
    {
      "midi": 31,
      "hit": false,
      "t": 327619.06399999664,
      "d": 412.69843333330937,
      "v": 118
    },
    {
      "midi": 59,
      "hit": false,
      "t": 327619.0639999969,
      "d": 436.50795833335724,
      "v": 100
    },
    {
      "midi": 54,
      "hit": false,
      "t": 327619.0639999977,
      "d": 7.936508333310485,
      "v": 100
    },
    {
      "midi": 49,
      "hit": false,
      "t": 327619.0639999977,
      "d": 7.936508333310485,
      "v": 115
    },
    {
      "midi": 40,
      "hit": false,
      "t": 327619.0639999977,
      "d": 7.936508333310485,
      "v": 127
    },
    {
      "midi": 2,
      "hit": false,
      "t": 327619.0639999977,
      "d": 7.936508333310485,
      "v": 123
    },
    {
      "midi": 67,
      "hit": false,
      "t": 327619.0640000014,
      "d": 3785.7144750000443,
      "v": 100
    },
    {
      "midi": 74,
      "hit": false,
      "t": 327619.0640000014,
      "d": 3785.7144750000443,
      "v": 100
    },
    {
      "midi": 71,
      "hit": false,
      "t": 327619.0640000014,
      "d": 3785.7144750000443,
      "v": 100
    },
    {
      "midi": 62,
      "hit": false,
      "t": 327619.0640000014,
      "d": 3785.7144750000443,
      "v": 100
    },
    {
      "midi": 43,
      "hit": false,
      "t": 327619.0640000027,
      "d": 912.6984583333251,
      "v": 120
    },
    {
      "midi": 50,
      "hit": false,
      "t": 327619.0640000027,
      "d": 912.6984583333251,
      "v": 120
    },
    {
      "midi": 43,
      "hit": false,
      "t": 327619.06400000356,
      "d": 436.50795833335724,
      "v": 115
    },
    {
      "midi": 50,
      "hit": false,
      "t": 327619.06400000356,
      "d": 436.50795833335724,
      "v": 115
    },
    {
      "midi": 69,
      "hit": false,
      "t": 327634.937016666,
      "d": 1825.3969166667084,
      "v": 90
    },
    {
      "midi": 71,
      "hit": false,
      "t": 327682.556066666,
      "d": 1825.3969166667084,
      "v": 90
    },
    {
      "midi": 74,
      "hit": false,
      "t": 327714.30209999933,
      "d": 1825.3969166667084,
      "v": 90
    },
    {
      "midi": 54,
      "hit": false,
      "t": 327833.34972499765,
      "d": 7.936508333310485,
      "v": 60
    },
    {
      "midi": 54,
      "hit": false,
      "t": 328071.4449749976,
      "d": 7.936508333310485,
      "v": 60
    },
    {
      "midi": 31,
      "hit": false,
      "t": 328095.2544999966,
      "d": 412.69843333330937,
      "v": 112
    },
    {
      "midi": 62,
      "hit": false,
      "t": 328095.25449999695,
      "d": 214.28572500002338,
      "v": 100
    },
    {
      "midi": 42,
      "hit": false,
      "t": 328095.2544999976,
      "d": 7.936508333310485,
      "v": 100
    },
    {
      "midi": 43,
      "hit": false,
      "t": 328095.2545000036,
      "d": 79.36508333333768,
      "v": 100
    },
    {
      "midi": 50,
      "hit": false,
      "t": 328095.2545000036,
      "d": 79.36508333333768,
      "v": 100
    },
    {
      "midi": 54,
      "hit": false,
      "t": 328309.54022499756,
      "d": 7.936508333310485,
      "v": 60
    },
    {
      "midi": 59,
      "hit": false,
      "t": 328333.34974999697,
      "d": 214.28572500002338,
      "v": 100
    },
    {
      "midi": 54,
      "hit": false,
      "t": 328547.6354749975,
      "d": 7.936508333310485,
      "v": 100
    },
    {
      "midi": 31,
      "hit": false,
      "t": 328571.4449999966,
      "d": 412.69843333330937,
      "v": 112
    },
    {
      "midi": 67,
      "hit": false,
      "t": 328571.444999997,
      "d": 214.28572500002338,
      "v": 100
    },
    {
      "midi": 40,
      "hit": false,
      "t": 328571.4449999975,
      "d": 7.936508333310485,
      "v": 127
    },
    {
      "midi": 42,
      "hit": false,
      "t": 328571.4449999975,
      "d": 7.936508333310485,
      "v": 100
    },
    {
      "midi": 59,
      "hit": false,
      "t": 328571.44499999983,
      "d": 436.50795833335724,
      "v": 125
    },
    {
      "midi": 83,
      "hit": false,
      "t": 328571.4450000023,
      "d": 436.50795833335724,
      "v": 120
    },
    {
      "midi": 50,
      "hit": false,
      "t": 328571.4450000027,
      "d": 119.04762500000652,
      "v": 115
    },
    {
      "midi": 43,
      "hit": false,
      "t": 328571.4450000027,
      "d": 119.04762500000652,
      "v": 115
    },
    {
      "midi": 43,
      "hit": false,
      "t": 328571.4450000036,
      "d": 436.50795833335724,
      "v": 115
    },
    {
      "midi": 50,
      "hit": false,
      "t": 328571.4450000036,
      "d": 436.50795833335724,
      "v": 115
    },
    {
      "midi": 54,
      "hit": false,
      "t": 328785.73072499747,
      "d": 7.936508333310485,
      "v": 60
    },
    {
      "midi": 62,
      "hit": false,
      "t": 328809.540249997,
      "d": 214.28572500002338,
      "v": 100
    },
    {
      "midi": 54,
      "hit": false,
      "t": 329023.8259749974,
      "d": 7.936508333310485,
      "v": 65
    },
    {
      "midi": 31,
      "hit": false,
      "t": 329047.63549999654,
      "d": 412.69843333330937,
      "v": 112
    },
    {
      "midi": 62,
      "hit": false,
      "t": 329047.635499997,
      "d": 214.28572500002338,
      "v": 100
    },
    {
      "midi": 42,
      "hit": false,
      "t": 329047.6354999974,
      "d": 7.936508333310485,
      "v": 100
    },
    {
      "midi": 62,
      "hit": false,
      "t": 329047.63549999986,
      "d": 436.50795833335724,
      "v": 125
    },
    {
      "midi": 83,
      "hit": false,
      "t": 329047.6355000023,
      "d": 436.50795833335724,
      "v": 120
    },
    {
      "midi": 43,
      "hit": false,
      "t": 329047.6355000027,
      "d": 119.04762500000652,
      "v": 115
    },
    {
      "midi": 50,
      "hit": false,
      "t": 329047.6355000027,
      "d": 119.04762500000652,
      "v": 115
    },
    {
      "midi": 50,
      "hit": false,
      "t": 329047.63550000364,
      "d": 436.50795833335724,
      "v": 115
    },
    {
      "midi": 43,
      "hit": false,
      "t": 329047.63550000364,
      "d": 436.50795833335724,
      "v": 115
    },
    {
      "midi": 54,
      "hit": false,
      "t": 329261.9212249974,
      "d": 7.936508333310485,
      "v": 60
    },
    {
      "midi": 67,
      "hit": false,
      "t": 329285.730749997,
      "d": 214.28572500002338,
      "v": 100
    },
    {
      "midi": 43,
      "hit": false,
      "t": 329285.7307500027,
      "d": 119.04762500000652,
      "v": 115
    },
    {
      "midi": 50,
      "hit": false,
      "t": 329285.7307500027,
      "d": 119.04762500000652,
      "v": 115
    },
    {
      "midi": 54,
      "hit": false,
      "t": 329500.01647499733,
      "d": 7.936508333310485,
      "v": 100
    },
    {
      "midi": 76,
      "hit": false,
      "t": 329500.01647499955,
      "d": 1880.9524749999982,
      "v": 100
    },
    {
      "midi": 88,
      "hit": false,
      "t": 329500.01647499955,
      "d": 1880.9524749999982,
      "v": 100
    },
    {
      "midi": 69,
      "hit": false,
      "t": 329500.0164749999,
      "d": 1880.9524749999982,
      "v": 115
    },
    {
      "midi": 57,
      "hit": false,
      "t": 329507.9529833332,
      "d": 436.50795833335724,
      "v": 119
    },
    {
      "midi": 61,
      "hit": false,
      "t": 329507.9529833332,
      "d": 436.50795833335724,
      "v": 119
    },
    {
      "midi": 64,
      "hit": false,
      "t": 329507.9529833332,
      "d": 436.50795833335724,
      "v": 119
    },
    {
      "midi": 33,
      "hit": false,
      "t": 329523.8259999965,
      "d": 412.69843333330937,
      "v": 112
    },
    {
      "midi": 64,
      "hit": false,
      "t": 329523.82599999703,
      "d": 214.28572500002338,
      "v": 100
    },
    {
      "midi": 40,
      "hit": false,
      "t": 329523.8259999973,
      "d": 7.936508333310485,
      "v": 127
    },
    {
      "midi": 42,
      "hit": false,
      "t": 329523.8259999973,
      "d": 7.936508333310485,
      "v": 115
    },
    {
      "midi": 76,
      "hit": false,
      "t": 329523.82600000146,
      "d": 1873.0159666666877,
      "v": 100
    },
    {
      "midi": 83,
      "hit": false,
      "t": 329523.82600000233,
      "d": 873.0159166666563,
      "v": 120
    },
    {
      "midi": 45,
      "hit": false,
      "t": 329523.82600000274,
      "d": 912.6984583333251,
      "v": 120
    },
    {
      "midi": 52,
      "hit": false,
      "t": 329523.82600000274,
      "d": 912.6984583333251,
      "v": 120
    },
    {
      "midi": 45,
      "hit": false,
      "t": 329523.82600000367,
      "d": 436.50795833335724,
      "v": 115
    },
    {
      "midi": 52,
      "hit": false,
      "t": 329523.82600000367,
      "d": 436.50795833335724,
      "v": 115
    },
    {
      "midi": 54,
      "hit": false,
      "t": 329738.1117249973,
      "d": 7.936508333310485,
      "v": 60
    },
    {
      "midi": 62,
      "hit": false,
      "t": 329761.92124999705,
      "d": 214.28572500002338,
      "v": 100
    },
    {
      "midi": 54,
      "hit": false,
      "t": 329976.20697499724,
      "d": 7.936508333310485,
      "v": 60
    },
    {
      "midi": 33,
      "hit": false,
      "t": 330000.0164999965,
      "d": 412.69843333330937,
      "v": 112
    },
    {
      "midi": 61,
      "hit": false,
      "t": 330000.01649999706,
      "d": 214.28572500002338,
      "v": 100
    },
    {
      "midi": 2,
      "hit": false,
      "t": 330000.01649999723,
      "d": 7.936508333310485,
      "v": 120
    },
    {
      "midi": 42,
      "hit": false,
      "t": 330000.01649999723,
      "d": 7.936508333310485,
      "v": 100
    },
    {
      "midi": 57,
      "hit": false,
      "t": 330000.0164999999,
      "d": 436.50795833335724,
      "v": 125
    },
    {
      "midi": 45,
      "hit": false,
      "t": 330000.0165000037,
      "d": 79.36508333333768,
      "v": 100
    },
    {
      "midi": 52,
      "hit": false,
      "t": 330000.0165000037,
      "d": 79.36508333333768,
      "v": 100
    },
    {
      "midi": 54,
      "hit": false,
      "t": 330214.3022249972,
      "d": 7.936508333310485,
      "v": 60
    },
    {
      "midi": 64,
      "hit": false,
      "t": 330238.1117499971,
      "d": 214.28572500002338,
      "v": 100
    },
    {
      "midi": 54,
      "hit": false,
      "t": 330452.39747499715,
      "d": 7.936508333310485,
      "v": 100
    },
    {
      "midi": 33,
      "hit": false,
      "t": 330476.20699999644,
      "d": 412.69843333330937,
      "v": 112
    },
    {
      "midi": 64,
      "hit": false,
      "t": 330476.2069999971,
      "d": 214.28572500002338,
      "v": 100
    },
    {
      "midi": 40,
      "hit": false,
      "t": 330476.20699999714,
      "d": 7.936508333310485,
      "v": 127
    },
    {
      "midi": 42,
      "hit": false,
      "t": 330476.20699999714,
      "d": 7.936508333310485,
      "v": 100
    },
    {
      "midi": 61,
      "hit": false,
      "t": 330476.20699999994,
      "d": 436.50795833335724,
      "v": 125
    },
    {
      "midi": 81,
      "hit": false,
      "t": 330476.2070000023,
      "d": 436.50795833335724,
      "v": 120
    },
    {
      "midi": 45,
      "hit": false,
      "t": 330476.20700000273,
      "d": 119.04762500000652,
      "v": 115
    },
    {
      "midi": 52,
      "hit": false,
      "t": 330476.20700000273,
      "d": 119.04762500000652,
      "v": 115
    },
    {
      "midi": 45,
      "hit": false,
      "t": 330476.2070000037,
      "d": 873.0159166667145,
      "v": 115
    },
    {
      "midi": 52,
      "hit": false,
      "t": 330476.2070000037,
      "d": 873.0159166667145,
      "v": 115
    },
    {
      "midi": 54,
      "hit": false,
      "t": 330690.4927249971,
      "d": 7.936508333310485,
      "v": 60
    },
    {
      "midi": 61,
      "hit": false,
      "t": 330714.3022499971,
      "d": 214.28572500002338,
      "v": 100
    },
    {
      "midi": 54,
      "hit": false,
      "t": 330928.58797499706,
      "d": 7.936508333310485,
      "v": 60
    },
    {
      "midi": 31,
      "hit": false,
      "t": 330952.3974999964,
      "d": 412.69843333330937,
      "v": 112
    },
    {
      "midi": 2,
      "hit": false,
      "t": 330952.39749999705,
      "d": 7.936508333310485,
      "v": 120
    },
    {
      "midi": 42,
      "hit": false,
      "t": 330952.39749999705,
      "d": 7.936508333310485,
      "v": 100
    },
    {
      "midi": 69,
      "hit": false,
      "t": 330952.3974999971,
      "d": 214.28572500002338,
      "v": 100
    },
    {
      "midi": 64,
      "hit": false,
      "t": 330952.39749999996,
      "d": 436.50795833335724,
      "v": 125
    },
    {
      "midi": 79,
      "hit": false,
      "t": 330952.39750000235,
      "d": 436.50795833335724,
      "v": 120
    },
    {
      "midi": 52,
      "hit": false,
      "t": 330952.39750000276,
      "d": 119.04762500000652,
      "v": 115
    },
    {
      "midi": 45,
      "hit": false,
      "t": 330952.39750000276,
      "d": 119.04762500000652,
      "v": 115
    },
    {
      "midi": 54,
      "hit": false,
      "t": 331166.683224997,
      "d": 7.936508333310485,
      "v": 65
    },
    {
      "midi": 64,
      "hit": false,
      "t": 331190.4927499971,
      "d": 214.28572500002338,
      "v": 100
    },
    {
      "midi": 76,
      "hit": false,
      "t": 331404.77847499953,
      "d": 1880.9524749999982,
      "v": 100
    },
    {
      "midi": 88,
      "hit": false,
      "t": 331404.77847499953,
      "d": 1880.9524749999982,
      "v": 100
    },
    {
      "midi": 69,
      "hit": false,
      "t": 331404.7784749999,
      "d": 1880.9524749999982,
      "v": 115
    },
    {
      "midi": 61,
      "hit": false,
      "t": 331412.7149833333,
      "d": 873.0159166666563,
      "v": 119
    },
    {
      "midi": 69,
      "hit": false,
      "t": 331412.7149833333,
      "d": 873.0159166666563,
      "v": 119
    },
    {
      "midi": 66,
      "hit": false,
      "t": 331412.7149833333,
      "d": 873.0159166666563,
      "v": 119
    },
    {
      "midi": 30,
      "hit": false,
      "t": 331428.5879999964,
      "d": 412.69843333330937,
      "v": 118
    },
    {
      "midi": 54,
      "hit": false,
      "t": 331428.587999997,
      "d": 7.936508333310485,
      "v": 100
    },
    {
      "midi": 42,
      "hit": false,
      "t": 331428.587999997,
      "d": 7.936508333310485,
      "v": 115
    },
    {
      "midi": 40,
      "hit": false,
      "t": 331428.587999997,
      "d": 7.936508333310485,
      "v": 127
    },
    {
      "midi": 2,
      "hit": false,
      "t": 331428.587999997,
      "d": 7.936508333310485,
      "v": 123
    },
    {
      "midi": 57,
      "hit": false,
      "t": 331428.58799999714,
      "d": 214.28572500002338,
      "v": 100
    },
    {
      "midi": 61,
      "hit": false,
      "t": 331428.58800000144,
      "d": 1873.0159666666877,
      "v": 100
    },
    {
      "midi": 73,
      "hit": false,
      "t": 331428.58800000144,
      "d": 1873.0159666666877,
      "v": 100
    },
    {
      "midi": 69,
      "hit": false,
      "t": 331428.58800000144,
      "d": 1873.0159666666877,
      "v": 100
    },
    {
      "midi": 66,
      "hit": false,
      "t": 331428.58800000144,
      "d": 2857.14300000004,
      "v": 100
    },
    {
      "midi": 81,
      "hit": false,
      "t": 331428.5880000024,
      "d": 436.50795833335724,
      "v": 120
    },
    {
      "midi": 42,
      "hit": false,
      "t": 331428.5880000027,
      "d": 912.6984583333251,
      "v": 120
    },
    {
      "midi": 49,
      "hit": false,
      "t": 331428.5880000027,
      "d": 912.6984583333251,
      "v": 120
    },
    {
      "midi": 42,
      "hit": false,
      "t": 331428.5880000038,
      "d": 436.50795833329903,
      "v": 115
    },
    {
      "midi": 49,
      "hit": false,
      "t": 331428.5880000038,
      "d": 436.50795833329903,
      "v": 115
    },
    {
      "midi": 54,
      "hit": false,
      "t": 331642.873724997,
      "d": 7.936508333310485,
      "v": 60
    },
    {
      "midi": 69,
      "hit": false,
      "t": 331666.68324999715,
      "d": 214.28572500002338,
      "v": 100
    },
    {
      "midi": 54,
      "hit": false,
      "t": 331880.96897499694,
      "d": 7.936508333310485,
      "v": 60
    },
    {
      "midi": 30,
      "hit": false,
      "t": 331904.77849999635,
      "d": 412.69843333330937,
      "v": 112
    },
    {
      "midi": 42,
      "hit": false,
      "t": 331904.77849999693,
      "d": 7.936508333310485,
      "v": 100
    },
    {
      "midi": 61,
      "hit": false,
      "t": 331904.77849999716,
      "d": 214.28572500002338,
      "v": 100
    },
    {
      "midi": 81,
      "hit": false,
      "t": 331904.7785000024,
      "d": 436.50795833335724,
      "v": 120
    },
    {
      "midi": 42,
      "hit": false,
      "t": 331904.77850000374,
      "d": 79.36508333333768,
      "v": 100
    },
    {
      "midi": 49,
      "hit": false,
      "t": 331904.77850000374,
      "d": 79.36508333333768,
      "v": 100
    },
    {
      "midi": 54,
      "hit": false,
      "t": 332119.0642249969,
      "d": 7.936508333310485,
      "v": 60
    },
    {
      "midi": 57,
      "hit": false,
      "t": 332142.8737499972,
      "d": 214.28572500002338,
      "v": 100
    },
    {
      "midi": 54,
      "hit": false,
      "t": 332357.15947499685,
      "d": 7.936508333310485,
      "v": 100
    },
    {
      "midi": 30,
      "hit": false,
      "t": 332380.9689999963,
      "d": 412.69843333330937,
      "v": 112
    },
    {
      "midi": 40,
      "hit": false,
      "t": 332380.96899999684,
      "d": 7.936508333310485,
      "v": 127
    },
    {
      "midi": 42,
      "hit": false,
      "t": 332380.96899999684,
      "d": 7.936508333310485,
      "v": 100
    },
    {
      "midi": 64,
      "hit": false,
      "t": 332380.9689999972,
      "d": 214.28572500002338,
      "v": 100
    },
    {
      "midi": 57,
      "hit": false,
      "t": 332380.969,
      "d": 436.50795833335724,
      "v": 125
    },
    {
      "midi": 78,
      "hit": false,
      "t": 332380.9690000024,
      "d": 436.50795833335724,
      "v": 120
    },
    {
      "midi": 42,
      "hit": false,
      "t": 332380.9690000027,
      "d": 119.04762500000652,
      "v": 115
    },
    {
      "midi": 49,
      "hit": false,
      "t": 332380.9690000027,
      "d": 119.04762500000652,
      "v": 115
    },
    {
      "midi": 42,
      "hit": false,
      "t": 332380.96900000377,
      "d": 436.50795833335724,
      "v": 115
    },
    {
      "midi": 49,
      "hit": false,
      "t": 332380.96900000377,
      "d": 436.50795833335724,
      "v": 115
    },
    {
      "midi": 54,
      "hit": false,
      "t": 332595.2547249968,
      "d": 7.936508333310485,
      "v": 60
    },
    {
      "midi": 61,
      "hit": false,
      "t": 332619.0642499972,
      "d": 214.28572500002338,
      "v": 100
    },
    {
      "midi": 54,
      "hit": false,
      "t": 332833.34997499676,
      "d": 7.936508333310485,
      "v": 65
    },
    {
      "midi": 30,
      "hit": false,
      "t": 332857.1594999963,
      "d": 412.69843333330937,
      "v": 112
    },
    {
      "midi": 42,
      "hit": false,
      "t": 332857.15949999675,
      "d": 7.936508333310485,
      "v": 100
    },
    {
      "midi": 61,
      "hit": false,
      "t": 332857.1594999972,
      "d": 214.28572500002338,
      "v": 100
    },
    {
      "midi": 61,
      "hit": false,
      "t": 332857.1595,
      "d": 436.50795833335724,
      "v": 125
    },
    {
      "midi": 76,
      "hit": false,
      "t": 332857.15950000245,
      "d": 436.50795833335724,
      "v": 120
    },
    {
      "midi": 49,
      "hit": false,
      "t": 332857.15950000274,
      "d": 119.04762500000652,
      "v": 115
    },
    {
      "midi": 42,
      "hit": false,
      "t": 332857.15950000274,
      "d": 119.04762500000652,
      "v": 115
    },
    {
      "midi": 49,
      "hit": false,
      "t": 332857.1595000038,
      "d": 436.50795833335724,
      "v": 115
    },
    {
      "midi": 42,
      "hit": false,
      "t": 332857.1595000038,
      "d": 436.50795833335724,
      "v": 115
    },
    {
      "midi": 54,
      "hit": false,
      "t": 333071.4452249967,
      "d": 7.936508333310485,
      "v": 60
    },
    {
      "midi": 64,
      "hit": false,
      "t": 333095.2547499972,
      "d": 214.28572500002338,
      "v": 100
    },
    {
      "midi": 54,
      "hit": false,
      "t": 333309.54047499667,
      "d": 7.936508333310485,
      "v": 100
    },
    {
      "midi": 78,
      "hit": false,
      "t": 333309.5404749995,
      "d": 1880.9524749999982,
      "v": 100
    },
    {
      "midi": 90,
      "hit": false,
      "t": 333309.5404749995,
      "d": 1880.9524749999982,
      "v": 100
    },
    {
      "midi": 71,
      "hit": false,
      "t": 333309.54047499987,
      "d": 1880.9524749999982,
      "v": 115
    },
    {
      "midi": 57,
      "hit": false,
      "t": 333317.47698333336,
      "d": 436.50795833335724,
      "v": 119
    },
    {
      "midi": 62,
      "hit": false,
      "t": 333317.47698333336,
      "d": 436.50795833335724,
      "v": 119
    },
    {
      "midi": 66,
      "hit": false,
      "t": 333317.47698333336,
      "d": 436.50795833335724,
      "v": 119
    },
    {
      "midi": 35,
      "hit": false,
      "t": 333333.34999999625,
      "d": 412.69843333330937,
      "v": 112
    },
    {
      "midi": 40,
      "hit": false,
      "t": 333333.34999999666,
      "d": 7.936508333310485,
      "v": 127
    },
    {
      "midi": 42,
      "hit": false,
      "t": 333333.34999999666,
      "d": 7.936508333310485,
      "v": 115
    },
    {
      "midi": 66,
      "hit": false,
      "t": 333333.34999999724,
      "d": 214.28572500002338,
      "v": 100
    },
    {
      "midi": 62,
      "hit": false,
      "t": 333333.3500000015,
      "d": 873.0159166666563,
      "v": 100
    },
    {
      "midi": 71,
      "hit": false,
      "t": 333333.3500000015,
      "d": 873.0159166666563,
      "v": 100
    },
    {
      "midi": 74,
      "hit": false,
      "t": 333333.3500000015,
      "d": 873.0159166666563,
      "v": 100
    },
    {
      "midi": 74,
      "hit": false,
      "t": 333333.3500000025,
      "d": 873.0159166666563,
      "v": 120
    },
    {
      "midi": 47,
      "hit": false,
      "t": 333333.3500000027,
      "d": 912.6984583333251,
      "v": 120
    },
    {
      "midi": 54,
      "hit": false,
      "t": 333333.3500000027,
      "d": 912.6984583333251,
      "v": 120
    },
    {
      "midi": 47,
      "hit": false,
      "t": 333333.3500000038,
      "d": 436.50795833335724,
      "v": 115
    },
    {
      "midi": 54,
      "hit": false,
      "t": 333333.3500000038,
      "d": 436.50795833335724,
      "v": 115
    },
    {
      "midi": 54,
      "hit": false,
      "t": 333547.6357249966,
      "d": 7.936508333310485,
      "v": 60
    },
    {
      "midi": 59,
      "hit": false,
      "t": 333571.44524999725,
      "d": 214.28572500002338,
      "v": 100
    },
    {
      "midi": 54,
      "hit": false,
      "t": 333785.7309749966,
      "d": 7.936508333310485,
      "v": 60
    },
    {
      "midi": 35,
      "hit": false,
      "t": 333809.5404999962,
      "d": 412.69843333330937,
      "v": 112
    },
    {
      "midi": 2,
      "hit": false,
      "t": 333809.54049999657,
      "d": 7.936508333310485,
      "v": 120
    },
    {
      "midi": 42,
      "hit": false,
      "t": 333809.54049999657,
      "d": 7.936508333310485,
      "v": 100
    },
    {
      "midi": 62,
      "hit": false,
      "t": 333809.54049999727,
      "d": 214.28572500002338,
      "v": 100
    },
    {
      "midi": 57,
      "hit": false,
      "t": 333809.54050000006,
      "d": 436.50795833335724,
      "v": 119
    },
    {
      "midi": 61,
      "hit": false,
      "t": 333809.54050000006,
      "d": 436.50795833335724,
      "v": 119
    },
    {
      "midi": 64,
      "hit": false,
      "t": 333809.54050000006,
      "d": 436.50795833335724,
      "v": 119
    },
    {
      "midi": 47,
      "hit": false,
      "t": 333809.54050000384,
      "d": 79.36508333333768,
      "v": 100
    },
    {
      "midi": 54,
      "hit": false,
      "t": 333809.54050000384,
      "d": 79.36508333333768,
      "v": 100
    },
    {
      "midi": 54,
      "hit": false,
      "t": 334023.82622499653,
      "d": 7.936508333310485,
      "v": 60
    },
    {
      "midi": 66,
      "hit": false,
      "t": 334047.6357499973,
      "d": 214.28572500002338,
      "v": 100
    },
    {
      "midi": 54,
      "hit": false,
      "t": 334261.9214749965,
      "d": 7.936508333310485,
      "v": 100
    },
    {
      "midi": 57,
      "hit": false,
      "t": 334269.8579833334,
      "d": 873.0159166666563,
      "v": 119
    },
    {
      "midi": 62,
      "hit": false,
      "t": 334269.8579833334,
      "d": 873.0159166666563,
      "v": 119
    },
    {
      "midi": 66,
      "hit": false,
      "t": 334269.8579833334,
      "d": 873.0159166666563,
      "v": 119
    },
    {
      "midi": 30,
      "hit": false,
      "t": 334285.7309999962,
      "d": 412.69843333330937,
      "v": 112
    },
    {
      "midi": 40,
      "hit": false,
      "t": 334285.7309999965,
      "d": 7.936508333310485,
      "v": 127
    },
    {
      "midi": 42,
      "hit": false,
      "t": 334285.7309999965,
      "d": 7.936508333310485,
      "v": 100
    },
    {
      "midi": 66,
      "hit": false,
      "t": 334285.7309999973,
      "d": 214.28572500002338,
      "v": 100
    },
    {
      "midi": 74,
      "hit": false,
      "t": 334285.7310000025,
      "d": 436.50795833335724,
      "v": 120
    },
    {
      "midi": 47,
      "hit": false,
      "t": 334285.7310000027,
      "d": 436.50795833335724,
      "v": 120
    },
    {
      "midi": 54,
      "hit": false,
      "t": 334285.7310000027,
      "d": 436.50795833335724,
      "v": 120
    },
    {
      "midi": 47,
      "hit": false,
      "t": 334285.73100000387,
      "d": 873.0159166666563,
      "v": 115
    },
    {
      "midi": 54,
      "hit": false,
      "t": 334285.73100000387,
      "d": 873.0159166666563,
      "v": 115
    },
    {
      "midi": 54,
      "hit": false,
      "t": 334500.01672499644,
      "d": 7.936508333310485,
      "v": 60
    },
    {
      "midi": 62,
      "hit": false,
      "t": 334523.8262499973,
      "d": 214.28572500002338,
      "v": 100
    },
    {
      "midi": 54,
      "hit": false,
      "t": 334738.1119749964,
      "d": 7.936508333310485,
      "v": 60
    },
    {
      "midi": 29,
      "hit": false,
      "t": 334761.92149999616,
      "d": 412.69843333330937,
      "v": 112
    },
    {
      "midi": 2,
      "hit": false,
      "t": 334761.9214999964,
      "d": 7.936508333310485,
      "v": 120
    },
    {
      "midi": 42,
      "hit": false,
      "t": 334761.9214999964,
      "d": 7.936508333310485,
      "v": 100
    },
    {
      "midi": 74,
      "hit": false,
      "t": 334761.9214999973,
      "d": 214.28572500002338,
      "v": 100
    },
    {
      "midi": 73,
      "hit": false,
      "t": 334761.9215000025,
      "d": 436.50795833335724,
      "v": 120
    },
    {
      "midi": 48,
      "hit": false,
      "t": 334761.92150000273,
      "d": 436.50795833329903,
      "v": 120
    },
    {
      "midi": 55,
      "hit": false,
      "t": 334761.92150000273,
      "d": 436.50795833329903,
      "v": 120
    },
    {
      "midi": 54,
      "hit": false,
      "t": 334976.20722499635,
      "d": 7.936508333310485,
      "v": 65
    },
    {
      "midi": 66,
      "hit": false,
      "t": 335000.01674999733,
      "d": 214.28572500002338,
      "v": 100
    },
    {
      "midi": 55,
      "hit": false,
      "t": 335206.3659666667,
      "d": 436.50795833335724,
      "v": 119
    },
    {
      "midi": 59,
      "hit": false,
      "t": 335206.3659666667,
      "d": 436.50795833335724,
      "v": 119
    },
    {
      "midi": 64,
      "hit": false,
      "t": 335206.3659666667,
      "d": 436.50795833335724,
      "v": 119
    },
    {
      "midi": 79,
      "hit": false,
      "t": 335214.3024749995,
      "d": 3809.523999999976,
      "v": 100
    },
    {
      "midi": 91,
      "hit": false,
      "t": 335214.3024749995,
      "d": 3809.523999999976,
      "v": 100
    },
    {
      "midi": 71,
      "hit": false,
      "t": 335214.30247499986,
      "d": 3793.650983333355,
      "v": 115
    },
    {
      "midi": 28,
      "hit": false,
      "t": 335238.1119999961,
      "d": 412.69843333330937,
      "v": 118
    },
    {
      "midi": 54,
      "hit": false,
      "t": 335238.11199999636,
      "d": 7.936508333310485,
      "v": 100
    },
    {
      "midi": 49,
      "hit": false,
      "t": 335238.11199999636,
      "d": 7.936508333310485,
      "v": 115
    },
    {
      "midi": 40,
      "hit": false,
      "t": 335238.11199999636,
      "d": 7.936508333310485,
      "v": 127
    },
    {
      "midi": 2,
      "hit": false,
      "t": 335238.11199999636,
      "d": 7.936508333310485,
      "v": 123
    },
    {
      "midi": 59,
      "hit": false,
      "t": 335238.11199999735,
      "d": 436.50795833335724,
      "v": 100
    },
    {
      "midi": 59,
      "hit": false,
      "t": 335238.11200000154,
      "d": 3785.7144750000443,
      "v": 100
    },
    {
      "midi": 71,
      "hit": false,
      "t": 335238.11200000154,
      "d": 3785.7144750000443,
      "v": 100
    },
    {
      "midi": 67,
      "hit": false,
      "t": 335238.11200000154,
      "d": 3785.7144750000443,
      "v": 100
    },
    {
      "midi": 64,
      "hit": false,
      "t": 335238.11200000154,
      "d": 3785.7144750000443,
      "v": 100
    },
    {
      "midi": 71,
      "hit": false,
      "t": 335238.1120000025,
      "d": 873.0159166666563,
      "v": 120
    },
    {
      "midi": 52,
      "hit": false,
      "t": 335238.1120000027,
      "d": 912.6984583333251,
      "v": 123
    },
    {
      "midi": 40,
      "hit": false,
      "t": 335238.11200000386,
      "d": 79.36508333333768,
      "v": 100
    },
    {
      "midi": 54,
      "hit": false,
      "t": 335452.3977249963,
      "d": 7.936508333310485,
      "v": 60
    },
    {
      "midi": 54,
      "hit": false,
      "t": 335690.4929749963,
      "d": 7.936508333310485,
      "v": 60
    },
    {
      "midi": 28,
      "hit": false,
      "t": 335714.3024999961,
      "d": 412.69843333330937,
      "v": 112
    },
    {
      "midi": 42,
      "hit": false,
      "t": 335714.30249999627,
      "d": 7.936508333310485,
      "v": 100
    },
    {
      "midi": 62,
      "hit": false,
      "t": 335714.3024999974,
      "d": 214.28572500002338,
      "v": 100
    },
    {
      "midi": 55,
      "hit": false,
      "t": 335714.3025000001,
      "d": 436.50795833335724,
      "v": 125
    },
    {
      "midi": 40,
      "hit": false,
      "t": 335714.3025000039,
      "d": 79.36508333333768,
      "v": 100
    },
    {
      "midi": 54,
      "hit": false,
      "t": 335928.58822499623,
      "d": 7.936508333310485,
      "v": 60
    },
    {
      "midi": 59,
      "hit": false,
      "t": 335952.3977499974,
      "d": 214.28572500002338,
      "v": 100
    },
    {
      "midi": 54,
      "hit": false,
      "t": 336166.6834749962,
      "d": 7.936508333310485,
      "v": 100
    },
    {
      "midi": 54,
      "hit": false,
      "t": 336174.61998333345,
      "d": 436.50795833335724,
      "v": 119
    },
    {
      "midi": 57,
      "hit": false,
      "t": 336174.61998333345,
      "d": 436.50795833335724,
      "v": 119
    },
    {
      "midi": 62,
      "hit": false,
      "t": 336174.61998333345,
      "d": 436.50795833335724,
      "v": 119
    },
    {
      "midi": 30,
      "hit": false,
      "t": 336190.49299999606,
      "d": 412.69843333330937,
      "v": 112
    },
    {
      "midi": 40,
      "hit": false,
      "t": 336190.4929999962,
      "d": 7.936508333310485,
      "v": 127
    },
    {
      "midi": 42,
      "hit": false,
      "t": 336190.4929999962,
      "d": 7.936508333310485,
      "v": 100
    },
    {
      "midi": 67,
      "hit": false,
      "t": 336190.4929999974,
      "d": 214.28572500002338,
      "v": 100
    },
    {
      "midi": 54,
      "hit": false,
      "t": 336190.4930000027,
      "d": 912.6984583333251,
      "v": 123
    },
    {
      "midi": 42,
      "hit": false,
      "t": 336190.4930000039,
      "d": 436.50795833335724,
      "v": 115
    },
    {
      "midi": 54,
      "hit": false,
      "t": 336404.77872499614,
      "d": 7.936508333310485,
      "v": 60
    },
    {
      "midi": 62,
      "hit": false,
      "t": 336428.5882499974,
      "d": 214.28572500002338,
      "v": 100
    },
    {
      "midi": 54,
      "hit": false,
      "t": 336642.8739749961,
      "d": 7.936508333310485,
      "v": 65
    },
    {
      "midi": 30,
      "hit": false,
      "t": 336666.683499996,
      "d": 412.69843333330937,
      "v": 112
    },
    {
      "midi": 42,
      "hit": false,
      "t": 336666.6834999961,
      "d": 7.936508333310485,
      "v": 100
    },
    {
      "midi": 62,
      "hit": false,
      "t": 336666.6834999974,
      "d": 214.28572500002338,
      "v": 100
    },
    {
      "midi": 55,
      "hit": false,
      "t": 336666.68350000016,
      "d": 436.50795833335724,
      "v": 125
    },
    {
      "midi": 73,
      "hit": false,
      "t": 336666.6835000025,
      "d": 436.50795833335724,
      "v": 120
    },
    {
      "midi": 42,
      "hit": false,
      "t": 336666.68350000394,
      "d": 436.50795833335724,
      "v": 115
    },
    {
      "midi": 54,
      "hit": false,
      "t": 336880.96922499605,
      "d": 7.936508333310485,
      "v": 60
    },
    {
      "midi": 67,
      "hit": false,
      "t": 336904.77874999744,
      "d": 214.28572500002338,
      "v": 100
    },
    {
      "midi": 54,
      "hit": false,
      "t": 337119.064474996,
      "d": 7.936508333310485,
      "v": 100
    },
    {
      "midi": 55,
      "hit": false,
      "t": 337127.0009833335,
      "d": 436.50795833335724,
      "v": 119
    },
    {
      "midi": 59,
      "hit": false,
      "t": 337127.0009833335,
      "d": 436.50795833335724,
      "v": 119
    },
    {
      "midi": 62,
      "hit": false,
      "t": 337127.0009833335,
      "d": 436.50795833335724,
      "v": 119
    },
    {
      "midi": 31,
      "hit": false,
      "t": 337142.873999996,
      "d": 412.69843333330937,
      "v": 112
    },
    {
      "midi": 40,
      "hit": false,
      "t": 337142.873999996,
      "d": 7.936508333310485,
      "v": 127
    },
    {
      "midi": 42,
      "hit": false,
      "t": 337142.873999996,
      "d": 7.936508333310485,
      "v": 115
    },
    {
      "midi": 67,
      "hit": false,
      "t": 337142.87399999745,
      "d": 214.28572500002338,
      "v": 100
    },
    {
      "midi": 74,
      "hit": false,
      "t": 337142.8740000025,
      "d": 873.0159166666563,
      "v": 120
    },
    {
      "midi": 55,
      "hit": false,
      "t": 337142.8740000027,
      "d": 912.6984583333251,
      "v": 123
    },
    {
      "midi": 43,
      "hit": false,
      "t": 337142.87400000397,
      "d": 436.50795833335724,
      "v": 115
    },
    {
      "midi": 54,
      "hit": false,
      "t": 337357.15972499596,
      "d": 7.936508333310485,
      "v": 60
    },
    {
      "midi": 62,
      "hit": false,
      "t": 337380.96924999746,
      "d": 214.28572500002338,
      "v": 100
    },
    {
      "midi": 54,
      "hit": false,
      "t": 337595.2549749959,
      "d": 7.936508333310485,
      "v": 60
    },
    {
      "midi": 2,
      "hit": false,
      "t": 337619.0644999959,
      "d": 7.936508333310485,
      "v": 120
    },
    {
      "midi": 42,
      "hit": false,
      "t": 337619.0644999959,
      "d": 7.936508333310485,
      "v": 100
    },
    {
      "midi": 31,
      "hit": false,
      "t": 337619.06449999596,
      "d": 412.69843333330937,
      "v": 112
    },
    {
      "midi": 64,
      "hit": false,
      "t": 337619.0644999975,
      "d": 214.28572500002338,
      "v": 100
    },
    {
      "midi": 59,
      "hit": false,
      "t": 337619.0645000002,
      "d": 436.50795833335724,
      "v": 125
    },
    {
      "midi": 43,
      "hit": false,
      "t": 337619.064500004,
      "d": 436.50795833335724,
      "v": 115
    },
    {
      "midi": 54,
      "hit": false,
      "t": 337833.35022499587,
      "d": 7.936508333310485,
      "v": 60
    },
    {
      "midi": 67,
      "hit": false,
      "t": 337857.1597499975,
      "d": 214.28572500002338,
      "v": 100
    },
    {
      "midi": 54,
      "hit": false,
      "t": 338071.4454749958,
      "d": 7.936508333310485,
      "v": 100
    },
    {
      "midi": 59,
      "hit": false,
      "t": 338079.38198333356,
      "d": 436.50795833335724,
      "v": 119
    },
    {
      "midi": 62,
      "hit": false,
      "t": 338079.38198333356,
      "d": 436.50795833335724,
      "v": 119
    },
    {
      "midi": 67,
      "hit": false,
      "t": 338079.38198333356,
      "d": 436.50795833335724,
      "v": 119
    },
    {
      "midi": 40,
      "hit": false,
      "t": 338095.2549999958,
      "d": 7.936508333310485,
      "v": 127
    },
    {
      "midi": 42,
      "hit": false,
      "t": 338095.2549999958,
      "d": 7.936508333310485,
      "v": 100
    },
    {
      "midi": 35,
      "hit": false,
      "t": 338095.25499999593,
      "d": 412.69843333330937,
      "v": 112
    },
    {
      "midi": 67,
      "hit": false,
      "t": 338095.2549999975,
      "d": 214.28572500002338,
      "v": 100
    },
    {
      "midi": 78,
      "hit": false,
      "t": 338095.2550000025,
      "d": 436.50795833335724,
      "v": 120
    },
    {
      "midi": 59,
      "hit": false,
      "t": 338095.2550000027,
      "d": 936.507983333373,
      "v": 123
    },
    {
      "midi": 47,
      "hit": false,
      "t": 338095.255000004,
      "d": 436.50795833335724,
      "v": 115
    },
    {
      "midi": 54,
      "hit": false,
      "t": 338309.5407249958,
      "d": 7.936508333310485,
      "v": 60
    },
    {
      "midi": 64,
      "hit": false,
      "t": 338333.3502499975,
      "d": 214.28572500002338,
      "v": 100
    },
    {
      "midi": 54,
      "hit": false,
      "t": 338547.63597499573,
      "d": 7.936508333310485,
      "v": 60
    },
    {
      "midi": 2,
      "hit": false,
      "t": 338571.4454999957,
      "d": 7.936508333310485,
      "v": 120
    },
    {
      "midi": 42,
      "hit": false,
      "t": 338571.4454999957,
      "d": 7.936508333310485,
      "v": 100
    },
    {
      "midi": 35,
      "hit": false,
      "t": 338571.4454999959,
      "d": 412.69843333330937,
      "v": 112
    },
    {
      "midi": 71,
      "hit": false,
      "t": 338571.4454999975,
      "d": 214.28572500002338,
      "v": 100
    },
    {
      "midi": 59,
      "hit": false,
      "t": 338571.44550000026,
      "d": 436.50795833335724,
      "v": 125
    },
    {
      "midi": 76,
      "hit": false,
      "t": 338571.44550000253,
      "d": 436.50795833335724,
      "v": 120
    },
    {
      "midi": 47,
      "hit": false,
      "t": 338571.44550000405,
      "d": 436.50795833335724,
      "v": 115
    },
    {
      "midi": 54,
      "hit": false,
      "t": 338785.7312249957,
      "d": 7.936508333310485,
      "v": 65
    },
    {
      "midi": 69,
      "hit": false,
      "t": 338809.54074999754,
      "d": 214.28572500002338,
      "v": 100
    },
    {
      "midi": 57,
      "hit": false,
      "t": 339015.88996666693,
      "d": 873.0159166666563,
      "v": 119
    },
    {
      "midi": 61,
      "hit": false,
      "t": 339015.88996666693,
      "d": 873.0159166666563,
      "v": 119
    },
    {
      "midi": 64,
      "hit": false,
      "t": 339015.88996666693,
      "d": 873.0159166666563,
      "v": 119
    },
    {
      "midi": 81,
      "hit": false,
      "t": 339023.8264749995,
      "d": 1880.9524749999982,
      "v": 100
    },
    {
      "midi": 93,
      "hit": false,
      "t": 339023.8264749995,
      "d": 1880.9524749999982,
      "v": 100
    },
    {
      "midi": 73,
      "hit": false,
      "t": 339023.8264749999,
      "d": 1880.9524749999982,
      "v": 115
    },
    {
      "midi": 2,
      "hit": false,
      "t": 339047.6359999957,
      "d": 7.936508333310485,
      "v": 123
    },
    {
      "midi": 54,
      "hit": false,
      "t": 339047.6359999957,
      "d": 7.936508333310485,
      "v": 100
    },
    {
      "midi": 49,
      "hit": false,
      "t": 339047.6359999957,
      "d": 7.936508333310485,
      "v": 115
    },
    {
      "midi": 40,
      "hit": false,
      "t": 339047.6359999957,
      "d": 7.936508333310485,
      "v": 127
    },
    {
      "midi": 33,
      "hit": false,
      "t": 339047.63599999587,
      "d": 412.69843333330937,
      "v": 118
    },
    {
      "midi": 64,
      "hit": false,
      "t": 339047.63599999755,
      "d": 214.28572500002338,
      "v": 100
    },
    {
      "midi": 57,
      "hit": false,
      "t": 339047.63600000157,
      "d": 1873.0159666666877,
      "v": 100
    },
    {
      "midi": 73,
      "hit": false,
      "t": 339047.63600000157,
      "d": 1873.0159666666877,
      "v": 100
    },
    {
      "midi": 69,
      "hit": false,
      "t": 339047.63600000157,
      "d": 1873.0159666666877,
      "v": 100
    },
    {
      "midi": 64,
      "hit": false,
      "t": 339047.63600000157,
      "d": 1873.0159666666877,
      "v": 100
    },
    {
      "midi": 78,
      "hit": false,
      "t": 339047.63600000256,
      "d": 436.50795833335724,
      "v": 120
    },
    {
      "midi": 57,
      "hit": false,
      "t": 339047.63600000273,
      "d": 1888.8889833334251,
      "v": 123
    },
    {
      "midi": 43,
      "hit": false,
      "t": 339047.6360000041,
      "d": 436.50795833335724,
      "v": 115
    },
    {
      "midi": 52,
      "hit": false,
      "t": 339047.6360000041,
      "d": 436.50795833335724,
      "v": 115
    },
    {
      "midi": 54,
      "hit": false,
      "t": 339261.92172499566,
      "d": 7.936508333310485,
      "v": 60
    },
    {
      "midi": 69,
      "hit": false,
      "t": 339285.73124999757,
      "d": 214.28572500002338,
      "v": 100
    },
    {
      "midi": 54,
      "hit": false,
      "t": 339500.0169749956,
      "d": 7.936508333310485,
      "v": 60
    },
    {
      "midi": 42,
      "hit": false,
      "t": 339523.8264999956,
      "d": 7.936508333310485,
      "v": 100
    },
    {
      "midi": 33,
      "hit": false,
      "t": 339523.82649999583,
      "d": 412.69843333330937,
      "v": 112
    },
    {
      "midi": 57,
      "hit": false,
      "t": 339523.8264999976,
      "d": 214.28572500002338,
      "v": 100
    },
    {
      "midi": 76,
      "hit": false,
      "t": 339523.8265000026,
      "d": 436.50795833335724,
      "v": 120
    },
    {
      "midi": 43,
      "hit": false,
      "t": 339523.8265000041,
      "d": 79.36508333333768,
      "v": 100
    },
    {
      "midi": 52,
      "hit": false,
      "t": 339523.8265000041,
      "d": 79.36508333333768,
      "v": 100
    },
    {
      "midi": 54,
      "hit": false,
      "t": 339738.11222499557,
      "d": 7.936508333310485,
      "v": 60
    },
    {
      "midi": 64,
      "hit": false,
      "t": 339761.9217499976,
      "d": 214.28572500002338,
      "v": 100
    },
    {
      "midi": 54,
      "hit": false,
      "t": 339976.2074749955,
      "d": 7.936508333310485,
      "v": 100
    },
    {
      "midi": 61,
      "hit": false,
      "t": 339984.1439833336,
      "d": 873.0159166666563,
      "v": 119
    },
    {
      "midi": 67,
      "hit": false,
      "t": 339984.1439833336,
      "d": 873.0159166666563,
      "v": 119
    },
    {
      "midi": 69,
      "hit": false,
      "t": 339984.1439833336,
      "d": 873.0159166666563,
      "v": 119
    },
    {
      "midi": 40,
      "hit": false,
      "t": 340000.0169999955,
      "d": 7.936508333310485,
      "v": 127
    },
    {
      "midi": 42,
      "hit": false,
      "t": 340000.0169999955,
      "d": 7.936508333310485,
      "v": 100
    },
    {
      "midi": 40,
      "hit": false,
      "t": 340000.0169999958,
      "d": 412.69843333330937,
      "v": 112
    },
    {
      "midi": 61,
      "hit": false,
      "t": 340000.0169999976,
      "d": 214.28572500002338,
      "v": 100
    },
    {
      "midi": 43,
      "hit": false,
      "t": 340000.0170000041,
      "d": 436.50795833335724,
      "v": 115
    },
    {
      "midi": 52,
      "hit": false,
      "t": 340000.0170000041,
      "d": 436.50795833335724,
      "v": 115
    },
    {
      "midi": 54,
      "hit": false,
      "t": 340214.3027249955,
      "d": 7.936508333310485,
      "v": 60
    },
    {
      "midi": 57,
      "hit": false,
      "t": 340238.1122499976,
      "d": 214.28572500002338,
      "v": 100
    },
    {
      "midi": 54,
      "hit": false,
      "t": 340452.39797499543,
      "d": 7.936508333310485,
      "v": 65
    },
    {
      "midi": 2,
      "hit": false,
      "t": 340476.2074999954,
      "d": 7.936508333310485,
      "v": 120
    },
    {
      "midi": 42,
      "hit": false,
      "t": 340476.2074999954,
      "d": 7.936508333310485,
      "v": 100
    },
    {
      "midi": 43,
      "hit": false,
      "t": 340476.20749999577,
      "d": 412.69843333330937,
      "v": 112
    },
    {
      "midi": 57,
      "hit": false,
      "t": 340476.20749999763,
      "d": 214.28572500002338,
      "v": 100
    },
    {
      "midi": 52,
      "hit": false,
      "t": 340476.20750000415,
      "d": 436.50795833335724,
      "v": 115
    },
    {
      "midi": 43,
      "hit": false,
      "t": 340476.20750000415,
      "d": 436.50795833335724,
      "v": 115
    },
    {
      "midi": 54,
      "hit": false,
      "t": 340690.4932249954,
      "d": 7.936508333310485,
      "v": 60
    },
    {
      "midi": 61,
      "hit": false,
      "t": 340714.30274999765,
      "d": 214.28572500002338,
      "v": 100
    },
    {
      "midi": 54,
      "hit": false,
      "t": 340928.58847499534,
      "d": 7.936508333310485,
      "v": 100
    },
    {
      "midi": 78,
      "hit": false,
      "t": 340928.5884749995,
      "d": 952.380999999994,
      "v": 100
    },
    {
      "midi": 90,
      "hit": false,
      "t": 340928.5884749995,
      "d": 952.380999999994,
      "v": 100
    },
    {
      "midi": 69,
      "hit": false,
      "t": 340928.5884749999,
      "d": 936.5079833333148,
      "v": 100
    },
    {
      "midi": 57,
      "hit": false,
      "t": 340936.5249833336,
      "d": 873.0159166666563,
      "v": 119
    },
    {
      "midi": 61,
      "hit": false,
      "t": 340936.5249833336,
      "d": 873.0159166666563,
      "v": 119
    },
    {
      "midi": 66,
      "hit": false,
      "t": 340936.5249833336,
      "d": 873.0159166666563,
      "v": 119
    },
    {
      "midi": 2,
      "hit": false,
      "t": 340952.39799999533,
      "d": 7.936508333310485,
      "v": 120
    },
    {
      "midi": 48,
      "hit": false,
      "t": 340952.39799999533,
      "d": 7.936508333310485,
      "v": 127
    },
    {
      "midi": 45,
      "hit": false,
      "t": 340952.39799999574,
      "d": 412.69843333330937,
      "v": 112
    },
    {
      "midi": 69,
      "hit": false,
      "t": 340952.39799999766,
      "d": 214.28572500002338,
      "v": 100
    },
    {
      "midi": 62,
      "hit": false,
      "t": 340952.3980000016,
      "d": 873.0159166666563,
      "v": 100
    },
    {
      "midi": 69,
      "hit": false,
      "t": 340952.3980000016,
      "d": 873.0159166666563,
      "v": 100
    },
    {
      "midi": 78,
      "hit": false,
      "t": 340952.3980000026,
      "d": 873.0159166666563,
      "v": 120
    },
    {
      "midi": 61,
      "hit": false,
      "t": 340952.39800000284,
      "d": 698.4127333333599,
      "v": 110
    },
    {
      "midi": 66,
      "hit": false,
      "t": 340952.39800000284,
      "d": 698.4127333333599,
      "v": 110
    },
    {
      "midi": 69,
      "hit": false,
      "t": 340952.39800000284,
      "d": 698.4127333333599,
      "v": 110
    },
    {
      "midi": 54,
      "hit": false,
      "t": 340952.3980000042,
      "d": 873.0159166666563,
      "v": 115
    },
    {
      "midi": 54,
      "hit": false,
      "t": 341166.6837249953,
      "d": 7.936508333310485,
      "v": 60
    },
    {
      "midi": 48,
      "hit": false,
      "t": 341190.4932499953,
      "d": 7.936508333310485,
      "v": 127
    },
    {
      "midi": 57,
      "hit": false,
      "t": 341190.4932499977,
      "d": 214.28572500002338,
      "v": 100
    },
    {
      "midi": 54,
      "hit": false,
      "t": 341404.77897499525,
      "d": 7.936508333310485,
      "v": 60
    },
    {
      "midi": 47,
      "hit": false,
      "t": 341428.58849999524,
      "d": 7.936508333310485,
      "v": 127
    },
    {
      "midi": 45,
      "hit": false,
      "t": 341428.5884999957,
      "d": 412.69843333330937,
      "v": 112
    },
    {
      "midi": 64,
      "hit": false,
      "t": 341428.5884999977,
      "d": 214.28572500002338,
      "v": 100
    },
    {
      "midi": 54,
      "hit": false,
      "t": 341642.8742249952,
      "d": 7.936508333310485,
      "v": 60
    },
    {
      "midi": 69,
      "hit": false,
      "t": 341666.6837499977,
      "d": 214.28572500002338,
      "v": 100
    },
    {
      "midi": 61,
      "hit": false,
      "t": 341666.6837500029,
      "d": 119.04762500000652,
      "v": 110
    },
    {
      "midi": 66,
      "hit": false,
      "t": 341666.6837500029,
      "d": 119.04762500000652,
      "v": 110
    },
    {
      "midi": 69,
      "hit": false,
      "t": 341666.6837500029,
      "d": 119.04762500000652,
      "v": 110
    },
    {
      "midi": 54,
      "hit": false,
      "t": 341880.96947499516,
      "d": 7.936508333310485,
      "v": 100
    },
    {
      "midi": 79,
      "hit": false,
      "t": 341880.96947499947,
      "d": 952.380999999994,
      "v": 100
    },
    {
      "midi": 91,
      "hit": false,
      "t": 341880.96947499947,
      "d": 952.380999999994,
      "v": 100
    },
    {
      "midi": 71,
      "hit": false,
      "t": 341880.9694749999,
      "d": 936.5079833333148,
      "v": 100
    },
    {
      "midi": 59,
      "hit": false,
      "t": 341888.9059833336,
      "d": 873.0159166666563,
      "v": 119
    },
    {
      "midi": 62,
      "hit": false,
      "t": 341888.9059833336,
      "d": 873.0159166666563,
      "v": 119
    },
    {
      "midi": 67,
      "hit": false,
      "t": 341888.9059833336,
      "d": 873.0159166666563,
      "v": 119
    },
    {
      "midi": 2,
      "hit": false,
      "t": 341904.77899999515,
      "d": 7.936508333310485,
      "v": 120
    },
    {
      "midi": 40,
      "hit": false,
      "t": 341904.77899999515,
      "d": 7.936508333310485,
      "v": 127
    },
    {
      "midi": 45,
      "hit": false,
      "t": 341904.7789999957,
      "d": 412.69843333330937,
      "v": 112
    },
    {
      "midi": 69,
      "hit": false,
      "t": 341904.7789999977,
      "d": 214.28572500002338,
      "v": 100
    },
    {
      "midi": 64,
      "hit": false,
      "t": 341904.7790000016,
      "d": 873.0159166666563,
      "v": 100
    },
    {
      "midi": 69,
      "hit": false,
      "t": 341904.7790000016,
      "d": 873.0159166666563,
      "v": 100
    },
    {
      "midi": 71,
      "hit": false,
      "t": 341904.7790000016,
      "d": 873.0159166666563,
      "v": 100
    },
    {
      "midi": 79,
      "hit": false,
      "t": 341904.7790000026,
      "d": 873.0159166666563,
      "v": 120
    },
    {
      "midi": 62,
      "hit": false,
      "t": 341904.7790000029,
      "d": 698.4127333333599,
      "v": 110
    },
    {
      "midi": 67,
      "hit": false,
      "t": 341904.7790000029,
      "d": 698.4127333333599,
      "v": 110
    },
    {
      "midi": 71,
      "hit": false,
      "t": 341904.7790000029,
      "d": 698.4127333333599,
      "v": 110
    },
    {
      "midi": 55,
      "hit": false,
      "t": 341904.7790000042,
      "d": 873.0159166666563,
      "v": 115
    },
    {
      "midi": 54,
      "hit": false,
      "t": 342119.0647249951,
      "d": 7.936508333310485,
      "v": 60
    },
    {
      "midi": 40,
      "hit": false,
      "t": 342142.8742499951,
      "d": 7.936508333310485,
      "v": 127
    },
    {
      "midi": 64,
      "hit": false,
      "t": 342142.8742499977,
      "d": 214.28572500002338,
      "v": 100
    },
    {
      "midi": 54,
      "hit": false,
      "t": 342357.15997499507,
      "d": 7.936508333310485,
      "v": 60
    },
    {
      "midi": 40,
      "hit": false,
      "t": 342380.96949999506,
      "d": 7.936508333310485,
      "v": 127
    },
    {
      "midi": 45,
      "hit": false,
      "t": 342380.96949999564,
      "d": 412.69843333330937,
      "v": 112
    },
    {
      "midi": 76,
      "hit": false,
      "t": 342380.96949999774,
      "d": 214.28572500002338,
      "v": 100
    },
    {
      "midi": 54,
      "hit": false,
      "t": 342595.255224995,
      "d": 7.936508333310485,
      "v": 65
    },
    {
      "midi": 40,
      "hit": false,
      "t": 342619.064749995,
      "d": 7.936508333310485,
      "v": 127
    },
    {
      "midi": 64,
      "hit": false,
      "t": 342619.06474999775,
      "d": 214.28572500002338,
      "v": 100
    },
    {
      "midi": 62,
      "hit": false,
      "t": 342619.06475000293,
      "d": 119.04762500000652,
      "v": 110
    },
    {
      "midi": 67,
      "hit": false,
      "t": 342619.06475000293,
      "d": 119.04762500000652,
      "v": 110
    },
    {
      "midi": 71,
      "hit": false,
      "t": 342619.06475000293,
      "d": 119.04762500000652,
      "v": 110
    },
    {
      "midi": 69,
      "hit": false,
      "t": 342817.4774583327,
      "d": 1825.3969166667084,
      "v": 90
    },
    {
      "midi": 62,
      "hit": false,
      "t": 342825.4139666669,
      "d": 634.9206666666432,
      "v": 119
    },
    {
      "midi": 66,
      "hit": false,
      "t": 342825.4139666669,
      "d": 634.9206666666432,
      "v": 119
    },
    {
      "midi": 69,
      "hit": false,
      "t": 342825.4139666669,
      "d": 634.9206666666432,
      "v": 119
    },
    {
      "midi": 81,
      "hit": false,
      "t": 342833.35047499946,
      "d": 5690.476474999974,
      "v": 100
    },
    {
      "midi": 93,
      "hit": false,
      "t": 342833.35047499946,
      "d": 5690.476474999974,
      "v": 100
    },
    {
      "midi": 74,
      "hit": false,
      "t": 342833.35047499987,
      "d": 3793.650983333355,
      "v": 115
    },
    {
      "midi": 2,
      "hit": false,
      "t": 342857.15999999497,
      "d": 7.936508333310485,
      "v": 123
    },
    {
      "midi": 54,
      "hit": false,
      "t": 342857.15999999497,
      "d": 7.936508333310485,
      "v": 100
    },
    {
      "midi": 49,
      "hit": false,
      "t": 342857.15999999497,
      "d": 7.936508333310485,
      "v": 115
    },
    {
      "midi": 40,
      "hit": false,
      "t": 342857.15999999497,
      "d": 7.936508333310485,
      "v": 127
    },
    {
      "midi": 38,
      "hit": false,
      "t": 342857.1599999956,
      "d": 412.69843333330937,
      "v": 118
    },
    {
      "midi": 57,
      "hit": false,
      "t": 342857.15999999776,
      "d": 436.50795833335724,
      "v": 100
    },
    {
      "midi": 66,
      "hit": false,
      "t": 342857.1600000016,
      "d": 436.50795833335724,
      "v": 100
    },
    {
      "midi": 69,
      "hit": false,
      "t": 342857.1600000016,
      "d": 436.50795833335724,
      "v": 100
    },
    {
      "midi": 74,
      "hit": false,
      "t": 342857.1600000016,
      "d": 436.50795833335724,
      "v": 100
    },
    {
      "midi": 81,
      "hit": false,
      "t": 342857.1600000026,
      "d": 396.8254166666884,
      "v": 120
    },
    {
      "midi": 66,
      "hit": false,
      "t": 342857.16000000294,
      "d": 912.6984583333251,
      "v": 120
    },
    {
      "midi": 69,
      "hit": false,
      "t": 342857.16000000294,
      "d": 912.6984583333251,
      "v": 120
    },
    {
      "midi": 74,
      "hit": false,
      "t": 342857.16000000294,
      "d": 912.6984583333251,
      "v": 120
    },
    {
      "midi": 50,
      "hit": false,
      "t": 342857.16000000417,
      "d": 436.50795833335724,
      "v": 115
    },
    {
      "midi": 57,
      "hit": false,
      "t": 342857.16000000417,
      "d": 436.50795833335724,
      "v": 115
    },
    {
      "midi": 74,
      "hit": false,
      "t": 342873.0330166661,
      "d": 1825.3969166667084,
      "v": 90
    },
    {
      "midi": 76,
      "hit": false,
      "t": 342920.65206666605,
      "d": 1825.3969166667084,
      "v": 90
    },
    {
      "midi": 78,
      "hit": false,
      "t": 342952.3980999994,
      "d": 1825.3969166667084,
      "v": 90
    },
    {
      "midi": 54,
      "hit": false,
      "t": 343071.44572499493,
      "d": 7.936508333310485,
      "v": 60
    },
    {
      "midi": 54,
      "hit": false,
      "t": 343309.5409749949,
      "d": 7.936508333310485,
      "v": 60
    },
    {
      "midi": 42,
      "hit": false,
      "t": 343333.3504999949,
      "d": 7.936508333310485,
      "v": 100
    },
    {
      "midi": 38,
      "hit": false,
      "t": 343333.3504999956,
      "d": 412.69843333330937,
      "v": 112
    },
    {
      "midi": 62,
      "hit": false,
      "t": 343333.3504999978,
      "d": 214.28572500002338,
      "v": 100
    },
    {
      "midi": 66,
      "hit": false,
      "t": 343333.35050000163,
      "d": 873.0159166666563,
      "v": 100
    },
    {
      "midi": 69,
      "hit": false,
      "t": 343333.35050000163,
      "d": 873.0159166666563,
      "v": 100
    },
    {
      "midi": 74,
      "hit": false,
      "t": 343333.35050000163,
      "d": 873.0159166666563,
      "v": 100
    },
    {
      "midi": 81,
      "hit": false,
      "t": 343333.3505000026,
      "d": 912.6984583333251,
      "v": 120
    },
    {
      "midi": 50,
      "hit": false,
      "t": 343333.3505000042,
      "d": 79.36508333333768,
      "v": 100
    },
    {
      "midi": 57,
      "hit": false,
      "t": 343333.3505000042,
      "d": 79.36508333333768,
      "v": 100
    },
    {
      "midi": 54,
      "hit": false,
      "t": 343547.63622499484,
      "d": 7.936508333310485,
      "v": 60
    },
    {
      "midi": 57,
      "hit": false,
      "t": 343571.4457499978,
      "d": 214.28572500002338,
      "v": 100
    },
    {
      "midi": 66,
      "hit": false,
      "t": 343571.4457500002,
      "d": 214.28572500002338,
      "v": 119
    },
    {
      "midi": 69,
      "hit": false,
      "t": 343571.4457500002,
      "d": 214.28572500002338,
      "v": 119
    },
    {
      "midi": 74,
      "hit": false,
      "t": 343571.4457500002,
      "d": 214.28572500002338,
      "v": 119
    },
    {
      "midi": 54,
      "hit": false,
      "t": 343785.7314749948,
      "d": 7.936508333310485,
      "v": 100
    },
    {
      "midi": 40,
      "hit": false,
      "t": 343809.5409999948,
      "d": 7.936508333310485,
      "v": 127
    },
    {
      "midi": 42,
      "hit": false,
      "t": 343809.5409999948,
      "d": 7.936508333310485,
      "v": 100
    },
    {
      "midi": 38,
      "hit": false,
      "t": 343809.54099999554,
      "d": 412.69843333330937,
      "v": 112
    },
    {
      "midi": 64,
      "hit": false,
      "t": 343809.5409999978,
      "d": 214.28572500002338,
      "v": 100
    },
    {
      "midi": 50,
      "hit": false,
      "t": 343809.54100000294,
      "d": 119.04762500000652,
      "v": 115
    },
    {
      "midi": 57,
      "hit": false,
      "t": 343809.54100000294,
      "d": 119.04762500000652,
      "v": 115
    },
    {
      "midi": 57,
      "hit": false,
      "t": 343809.5410000042,
      "d": 79.36508333333768,
      "v": 100
    },
    {
      "midi": 50,
      "hit": false,
      "t": 343809.5410000042,
      "d": 79.36508333333768,
      "v": 100
    },
    {
      "midi": 54,
      "hit": false,
      "t": 344023.82672499475,
      "d": 7.936508333310485,
      "v": 60
    },
    {
      "midi": 62,
      "hit": false,
      "t": 344047.6362499978,
      "d": 214.28572500002338,
      "v": 100
    },
    {
      "midi": 54,
      "hit": false,
      "t": 344261.9219749947,
      "d": 7.936508333310485,
      "v": 65
    },
    {
      "midi": 42,
      "hit": false,
      "t": 344285.7314999947,
      "d": 7.936508333310485,
      "v": 100
    },
    {
      "midi": 38,
      "hit": false,
      "t": 344285.7314999955,
      "d": 412.69843333330937,
      "v": 112
    },
    {
      "midi": 62,
      "hit": false,
      "t": 344285.73149999784,
      "d": 214.28572500002338,
      "v": 100
    },
    {
      "midi": 66,
      "hit": false,
      "t": 344285.7315000002,
      "d": 634.9206666666432,
      "v": 119
    },
    {
      "midi": 69,
      "hit": false,
      "t": 344285.7315000002,
      "d": 634.9206666666432,
      "v": 119
    },
    {
      "midi": 74,
      "hit": false,
      "t": 344285.7315000002,
      "d": 634.9206666666432,
      "v": 119
    },
    {
      "midi": 66,
      "hit": false,
      "t": 344285.7315000016,
      "d": 436.50795833335724,
      "v": 100
    },
    {
      "midi": 69,
      "hit": false,
      "t": 344285.7315000016,
      "d": 436.50795833335724,
      "v": 100
    },
    {
      "midi": 74,
      "hit": false,
      "t": 344285.7315000016,
      "d": 436.50795833335724,
      "v": 100
    },
    {
      "midi": 81,
      "hit": false,
      "t": 344285.7315000026,
      "d": 436.50795833335724,
      "v": 120
    },
    {
      "midi": 50,
      "hit": false,
      "t": 344285.73150000296,
      "d": 119.04762500000652,
      "v": 115
    },
    {
      "midi": 57,
      "hit": false,
      "t": 344285.73150000296,
      "d": 119.04762500000652,
      "v": 115
    },
    {
      "midi": 50,
      "hit": false,
      "t": 344285.73150000424,
      "d": 436.50795833335724,
      "v": 115
    },
    {
      "midi": 57,
      "hit": false,
      "t": 344285.73150000424,
      "d": 436.50795833335724,
      "v": 115
    },
    {
      "midi": 54,
      "hit": false,
      "t": 344500.01722499466,
      "d": 7.936508333310485,
      "v": 60
    },
    {
      "midi": 64,
      "hit": false,
      "t": 344523.82674999785,
      "d": 214.28572500002338,
      "v": 100
    },
    {
      "midi": 54,
      "hit": false,
      "t": 344738.1124749946,
      "d": 7.936508333310485,
      "v": 100
    },
    {
      "midi": 40,
      "hit": false,
      "t": 344761.9219999946,
      "d": 7.936508333310485,
      "v": 127
    },
    {
      "midi": 42,
      "hit": false,
      "t": 344761.9219999946,
      "d": 7.936508333310485,
      "v": 115
    },
    {
      "midi": 38,
      "hit": false,
      "t": 344761.9219999955,
      "d": 412.69843333330937,
      "v": 112
    },
    {
      "midi": 69,
      "hit": false,
      "t": 344761.92199999787,
      "d": 214.28572500002338,
      "v": 100
    },
    {
      "midi": 66,
      "hit": false,
      "t": 344761.92200000165,
      "d": 436.50795833335724,
      "v": 100
    },
    {
      "midi": 69,
      "hit": false,
      "t": 344761.92200000165,
      "d": 436.50795833335724,
      "v": 100
    },
    {
      "midi": 74,
      "hit": false,
      "t": 344761.92200000165,
      "d": 436.50795833335724,
      "v": 100
    },
    {
      "midi": 81,
      "hit": false,
      "t": 344761.92200000264,
      "d": 436.50795833335724,
      "v": 120
    },
    {
      "midi": 50,
      "hit": false,
      "t": 344761.922000003,
      "d": 119.04762500000652,
      "v": 115
    },
    {
      "midi": 57,
      "hit": false,
      "t": 344761.922000003,
      "d": 119.04762500000652,
      "v": 115
    },
    {
      "midi": 50,
      "hit": false,
      "t": 344761.92200000427,
      "d": 79.36508333333768,
      "v": 100
    },
    {
      "midi": 57,
      "hit": false,
      "t": 344761.92200000427,
      "d": 79.36508333333768,
      "v": 100
    },
    {
      "midi": 54,
      "hit": false,
      "t": 344976.2077249946,
      "d": 7.936508333310485,
      "v": 60
    },
    {
      "midi": 62,
      "hit": false,
      "t": 345000.0172499979,
      "d": 214.28572500002338,
      "v": 100
    },
    {
      "midi": 66,
      "hit": false,
      "t": 345000.0172500002,
      "d": 214.28572500002338,
      "v": 119
    },
    {
      "midi": 69,
      "hit": false,
      "t": 345000.0172500002,
      "d": 214.28572500002338,
      "v": 119
    },
    {
      "midi": 74,
      "hit": false,
      "t": 345000.0172500002,
      "d": 214.28572500002338,
      "v": 119
    },
    {
      "midi": 54,
      "hit": false,
      "t": 345214.3029749945,
      "d": 7.936508333310485,
      "v": 60
    },
    {
      "midi": 2,
      "hit": false,
      "t": 345238.1124999945,
      "d": 7.936508333310485,
      "v": 120
    },
    {
      "midi": 42,
      "hit": false,
      "t": 345238.1124999945,
      "d": 7.936508333310485,
      "v": 100
    },
    {
      "midi": 38,
      "hit": false,
      "t": 345238.11249999545,
      "d": 412.69843333330937,
      "v": 112
    },
    {
      "midi": 62,
      "hit": false,
      "t": 345238.1124999979,
      "d": 214.28572500002338,
      "v": 100
    },
    {
      "midi": 66,
      "hit": false,
      "t": 345238.1125000017,
      "d": 436.50795833335724,
      "v": 100
    },
    {
      "midi": 69,
      "hit": false,
      "t": 345238.1125000017,
      "d": 436.50795833335724,
      "v": 100
    },
    {
      "midi": 74,
      "hit": false,
      "t": 345238.1125000017,
      "d": 436.50795833335724,
      "v": 100
    },
    {
      "midi": 79,
      "hit": false,
      "t": 345238.11250000267,
      "d": 436.50795833335724,
      "v": 120
    },
    {
      "midi": 50,
      "hit": false,
      "t": 345238.112500003,
      "d": 119.04762500000652,
      "v": 115
    },
    {
      "midi": 57,
      "hit": false,
      "t": 345238.112500003,
      "d": 119.04762500000652,
      "v": 115
    },
    {
      "midi": 57,
      "hit": false,
      "t": 345238.1125000043,
      "d": 79.36508333333768,
      "v": 100
    },
    {
      "midi": 50,
      "hit": false,
      "t": 345238.1125000043,
      "d": 79.36508333333768,
      "v": 100
    },
    {
      "midi": 54,
      "hit": false,
      "t": 345452.3982249945,
      "d": 7.936508333310485,
      "v": 60
    },
    {
      "midi": 69,
      "hit": false,
      "t": 345476.2077499979,
      "d": 214.28572500002338,
      "v": 100
    },
    {
      "midi": 54,
      "hit": false,
      "t": 345690.49347499444,
      "d": 7.936508333310485,
      "v": 100
    },
    {
      "midi": 66,
      "hit": false,
      "t": 345698.42998333357,
      "d": 873.0159166666563,
      "v": 119
    },
    {
      "midi": 69,
      "hit": false,
      "t": 345698.42998333357,
      "d": 873.0159166666563,
      "v": 119
    },
    {
      "midi": 74,
      "hit": false,
      "t": 345698.42998333357,
      "d": 873.0159166666563,
      "v": 119
    },
    {
      "midi": 40,
      "hit": false,
      "t": 345714.3029999944,
      "d": 7.936508333310485,
      "v": 127
    },
    {
      "midi": 42,
      "hit": false,
      "t": 345714.3029999944,
      "d": 7.936508333310485,
      "v": 100
    },
    {
      "midi": 38,
      "hit": false,
      "t": 345714.3029999954,
      "d": 412.69843333330937,
      "v": 112
    },
    {
      "midi": 64,
      "hit": false,
      "t": 345714.3029999979,
      "d": 214.28572500002338,
      "v": 100
    },
    {
      "midi": 66,
      "hit": false,
      "t": 345714.3030000017,
      "d": 436.50795833335724,
      "v": 100
    },
    {
      "midi": 69,
      "hit": false,
      "t": 345714.3030000017,
      "d": 436.50795833335724,
      "v": 100
    },
    {
      "midi": 74,
      "hit": false,
      "t": 345714.3030000017,
      "d": 436.50795833335724,
      "v": 100
    },
    {
      "midi": 78,
      "hit": false,
      "t": 345714.3030000027,
      "d": 436.50795833335724,
      "v": 120
    },
    {
      "midi": 50,
      "hit": false,
      "t": 345714.30300000304,
      "d": 912.6984583333251,
      "v": 120
    },
    {
      "midi": 57,
      "hit": false,
      "t": 345714.30300000304,
      "d": 912.6984583333251,
      "v": 120
    },
    {
      "midi": 50,
      "hit": false,
      "t": 345714.3030000043,
      "d": 436.50795833335724,
      "v": 115
    },
    {
      "midi": 57,
      "hit": false,
      "t": 345714.3030000043,
      "d": 436.50795833335724,
      "v": 115
    },
    {
      "midi": 54,
      "hit": false,
      "t": 345928.5887249944,
      "d": 7.936508333310485,
      "v": 60
    },
    {
      "midi": 62,
      "hit": false,
      "t": 345952.39824999793,
      "d": 214.28572500002338,
      "v": 100
    },
    {
      "midi": 54,
      "hit": false,
      "t": 346166.68397499435,
      "d": 7.936508333310485,
      "v": 60
    },
    {
      "midi": 2,
      "hit": false,
      "t": 346190.49349999434,
      "d": 7.936508333310485,
      "v": 120
    },
    {
      "midi": 42,
      "hit": false,
      "t": 346190.49349999434,
      "d": 7.936508333310485,
      "v": 100
    },
    {
      "midi": 38,
      "hit": false,
      "t": 346190.4934999954,
      "d": 412.69843333330937,
      "v": 112
    },
    {
      "midi": 69,
      "hit": false,
      "t": 346190.49349999795,
      "d": 214.28572500002338,
      "v": 100
    },
    {
      "midi": 66,
      "hit": false,
      "t": 346190.4935000017,
      "d": 436.50795833335724,
      "v": 100
    },
    {
      "midi": 69,
      "hit": false,
      "t": 346190.4935000017,
      "d": 436.50795833335724,
      "v": 100
    },
    {
      "midi": 74,
      "hit": false,
      "t": 346190.4935000017,
      "d": 436.50795833335724,
      "v": 100
    },
    {
      "midi": 79,
      "hit": false,
      "t": 346190.4935000027,
      "d": 436.50795833335724,
      "v": 120
    },
    {
      "midi": 50,
      "hit": false,
      "t": 346190.49350000435,
      "d": 436.50795833335724,
      "v": 115
    },
    {
      "midi": 57,
      "hit": false,
      "t": 346190.49350000435,
      "d": 436.50795833335724,
      "v": 115
    },
    {
      "midi": 54,
      "hit": false,
      "t": 346404.7792249943,
      "d": 7.936508333310485,
      "v": 65
    },
    {
      "midi": 62,
      "hit": false,
      "t": 346428.58874999796,
      "d": 214.28572500002338,
      "v": 100
    },
    {
      "midi": 64,
      "hit": false,
      "t": 346634.9379666669,
      "d": 634.9206666666432,
      "v": 119
    },
    {
      "midi": 73,
      "hit": false,
      "t": 346634.9379666669,
      "d": 634.9206666666432,
      "v": 119
    },
    {
      "midi": 69,
      "hit": false,
      "t": 346634.9379666669,
      "d": 634.9206666666432,
      "v": 119
    },
    {
      "midi": 67,
      "hit": false,
      "t": 346634.9379666669,
      "d": 634.9206666666432,
      "v": 119
    },
    {
      "midi": 73,
      "hit": false,
      "t": 346642.8744749999,
      "d": 3793.650983333355,
      "v": 115
    },
    {
      "midi": 2,
      "hit": false,
      "t": 346666.6839999943,
      "d": 7.936508333310485,
      "v": 123
    },
    {
      "midi": 54,
      "hit": false,
      "t": 346666.6839999943,
      "d": 7.936508333310485,
      "v": 100
    },
    {
      "midi": 42,
      "hit": false,
      "t": 346666.6839999943,
      "d": 7.936508333310485,
      "v": 115
    },
    {
      "midi": 40,
      "hit": false,
      "t": 346666.6839999943,
      "d": 7.936508333310485,
      "v": 127
    },
    {
      "midi": 33,
      "hit": false,
      "t": 346666.68399999535,
      "d": 412.69843333330937,
      "v": 118
    },
    {
      "midi": 57,
      "hit": false,
      "t": 346666.683999998,
      "d": 214.28572500002338,
      "v": 100
    },
    {
      "midi": 64,
      "hit": false,
      "t": 346666.68400000175,
      "d": 1349.2064166666823,
      "v": 100
    },
    {
      "midi": 69,
      "hit": false,
      "t": 346666.68400000175,
      "d": 1349.2064166666823,
      "v": 100
    },
    {
      "midi": 73,
      "hit": false,
      "t": 346666.68400000175,
      "d": 1349.2064166666823,
      "v": 100
    },
    {
      "midi": 81,
      "hit": false,
      "t": 346666.68400000274,
      "d": 1428.57150000002,
      "v": 120
    },
    {
      "midi": 45,
      "hit": false,
      "t": 346666.68400000304,
      "d": 912.6984583333251,
      "v": 120
    },
    {
      "midi": 52,
      "hit": false,
      "t": 346666.68400000304,
      "d": 912.6984583333251,
      "v": 120
    },
    {
      "midi": 45,
      "hit": false,
      "t": 346666.6840000044,
      "d": 436.50795833335724,
      "v": 115
    },
    {
      "midi": 52,
      "hit": false,
      "t": 346666.6840000044,
      "d": 436.50795833335724,
      "v": 115
    },
    {
      "midi": 54,
      "hit": false,
      "t": 346880.96972499427,
      "d": 7.936508333310485,
      "v": 60
    },
    {
      "midi": 69,
      "hit": false,
      "t": 346904.779249998,
      "d": 214.28572500002338,
      "v": 100
    },
    {
      "midi": 54,
      "hit": false,
      "t": 347119.0649749942,
      "d": 7.936508333310485,
      "v": 60
    },
    {
      "midi": 42,
      "hit": false,
      "t": 347142.8744999942,
      "d": 7.936508333310485,
      "v": 100
    },
    {
      "midi": 33,
      "hit": false,
      "t": 347142.8744999953,
      "d": 412.69843333330937,
      "v": 112
    },
    {
      "midi": 61,
      "hit": false,
      "t": 347142.874499998,
      "d": 214.28572500002338,
      "v": 100
    },
    {
      "midi": 45,
      "hit": false,
      "t": 347142.8745000044,
      "d": 79.36508333333768,
      "v": 100
    },
    {
      "midi": 52,
      "hit": false,
      "t": 347142.8745000044,
      "d": 79.36508333333768,
      "v": 100
    },
    {
      "midi": 54,
      "hit": false,
      "t": 347357.1602249942,
      "d": 7.936508333310485,
      "v": 60
    },
    {
      "midi": 57,
      "hit": false,
      "t": 347380.969749998,
      "d": 214.28572500002338,
      "v": 100
    },
    {
      "midi": 64,
      "hit": false,
      "t": 347380.96975000016,
      "d": 214.28572500002338,
      "v": 119
    },
    {
      "midi": 73,
      "hit": false,
      "t": 347380.96975000016,
      "d": 214.28572500002338,
      "v": 119
    },
    {
      "midi": 69,
      "hit": false,
      "t": 347380.96975000016,
      "d": 214.28572500002338,
      "v": 119
    },
    {
      "midi": 67,
      "hit": false,
      "t": 347380.96975000016,
      "d": 214.28572500002338,
      "v": 119
    },
    {
      "midi": 54,
      "hit": false,
      "t": 347595.25547499413,
      "d": 7.936508333310485,
      "v": 100
    },
    {
      "midi": 40,
      "hit": false,
      "t": 347619.0649999941,
      "d": 7.936508333310485,
      "v": 127
    },
    {
      "midi": 42,
      "hit": false,
      "t": 347619.0649999941,
      "d": 7.936508333310485,
      "v": 100
    },
    {
      "midi": 33,
      "hit": false,
      "t": 347619.0649999953,
      "d": 412.69843333330937,
      "v": 112
    },
    {
      "midi": 64,
      "hit": false,
      "t": 347619.064999998,
      "d": 214.28572500002338,
      "v": 100
    },
    {
      "midi": 45,
      "hit": false,
      "t": 347619.06500000303,
      "d": 119.04762500000652,
      "v": 115
    },
    {
      "midi": 52,
      "hit": false,
      "t": 347619.06500000303,
      "d": 119.04762500000652,
      "v": 115
    },
    {
      "midi": 45,
      "hit": false,
      "t": 347619.0650000044,
      "d": 79.36508333333768,
      "v": 100
    },
    {
      "midi": 52,
      "hit": false,
      "t": 347619.0650000044,
      "d": 79.36508333333768,
      "v": 100
    },
    {
      "midi": 54,
      "hit": false,
      "t": 347833.3507249941,
      "d": 7.936508333310485,
      "v": 60
    },
    {
      "midi": 61,
      "hit": false,
      "t": 347857.16024999804,
      "d": 214.28572500002338,
      "v": 100
    },
    {
      "midi": 54,
      "hit": false,
      "t": 348071.44597499404,
      "d": 7.936508333310485,
      "v": 65
    },
    {
      "midi": 64,
      "hit": false,
      "t": 348079.3824833335,
      "d": 873.0159166666563,
      "v": 119
    },
    {
      "midi": 73,
      "hit": false,
      "t": 348079.3824833335,
      "d": 873.0159166666563,
      "v": 119
    },
    {
      "midi": 69,
      "hit": false,
      "t": 348079.3824833335,
      "d": 873.0159166666563,
      "v": 119
    },
    {
      "midi": 67,
      "hit": false,
      "t": 348079.3824833335,
      "d": 873.0159166666563,
      "v": 119
    },
    {
      "midi": 42,
      "hit": false,
      "t": 348095.25549999403,
      "d": 7.936508333310485,
      "v": 100
    },
    {
      "midi": 33,
      "hit": false,
      "t": 348095.25549999526,
      "d": 412.69843333330937,
      "v": 112
    },
    {
      "midi": 61,
      "hit": false,
      "t": 348095.25549999805,
      "d": 214.28572500002338,
      "v": 100
    },
    {
      "midi": 64,
      "hit": false,
      "t": 348095.2555000018,
      "d": 436.50795833335724,
      "v": 100
    },
    {
      "midi": 69,
      "hit": false,
      "t": 348095.2555000018,
      "d": 436.50795833335724,
      "v": 100
    },
    {
      "midi": 73,
      "hit": false,
      "t": 348095.2555000018,
      "d": 436.50795833335724,
      "v": 100
    },
    {
      "midi": 76,
      "hit": false,
      "t": 348095.25550000276,
      "d": 436.50795833335724,
      "v": 120
    },
    {
      "midi": 45,
      "hit": false,
      "t": 348095.25550000306,
      "d": 119.04762500000652,
      "v": 115
    },
    {
      "midi": 52,
      "hit": false,
      "t": 348095.25550000306,
      "d": 119.04762500000652,
      "v": 115
    },
    {
      "midi": 45,
      "hit": false,
      "t": 348095.25550000445,
      "d": 436.50795833335724,
      "v": 115
    },
    {
      "midi": 52,
      "hit": false,
      "t": 348095.25550000445,
      "d": 436.50795833335724,
      "v": 115
    },
    {
      "midi": 54,
      "hit": false,
      "t": 348309.541224994,
      "d": 7.936508333310485,
      "v": 60
    },
    {
      "midi": 64,
      "hit": false,
      "t": 348333.35074999806,
      "d": 214.28572500002338,
      "v": 100
    },
    {
      "midi": 54,
      "hit": false,
      "t": 348547.63647499395,
      "d": 7.936508333310485,
      "v": 100
    },
    {
      "midi": 83,
      "hit": false,
      "t": 348547.6364749994,
      "d": 952.380999999994,
      "v": 100
    },
    {
      "midi": 95,
      "hit": false,
      "t": 348547.6364749994,
      "d": 952.380999999994,
      "v": 100
    },
    {
      "midi": 40,
      "hit": false,
      "t": 348571.44599999394,
      "d": 7.936508333310485,
      "v": 127
    },
    {
      "midi": 42,
      "hit": false,
      "t": 348571.44599999394,
      "d": 7.936508333310485,
      "v": 115
    },
    {
      "midi": 33,
      "hit": false,
      "t": 348571.4459999952,
      "d": 412.69843333330937,
      "v": 112
    },
    {
      "midi": 69,
      "hit": false,
      "t": 348571.4459999981,
      "d": 214.28572500002338,
      "v": 100
    },
    {
      "midi": 64,
      "hit": false,
      "t": 348571.4460000018,
      "d": 873.0159166666563,
      "v": 100
    },
    {
      "midi": 69,
      "hit": false,
      "t": 348571.4460000018,
      "d": 873.0159166666563,
      "v": 100
    },
    {
      "midi": 73,
      "hit": false,
      "t": 348571.4460000018,
      "d": 873.0159166666563,
      "v": 100
    },
    {
      "midi": 76,
      "hit": false,
      "t": 348571.4460000028,
      "d": 674.6032083333121,
      "v": 120
    },
    {
      "midi": 45,
      "hit": false,
      "t": 348571.4460000031,
      "d": 119.04762500000652,
      "v": 115
    },
    {
      "midi": 52,
      "hit": false,
      "t": 348571.4460000031,
      "d": 119.04762500000652,
      "v": 115
    },
    {
      "midi": 45,
      "hit": false,
      "t": 348571.4460000045,
      "d": 79.36508333333768,
      "v": 100
    },
    {
      "midi": 52,
      "hit": false,
      "t": 348571.4460000045,
      "d": 79.36508333333768,
      "v": 100
    },
    {
      "midi": 54,
      "hit": false,
      "t": 348785.7317249939,
      "d": 7.936508333310485,
      "v": 60
    },
    {
      "midi": 61,
      "hit": false,
      "t": 348809.5412499981,
      "d": 214.28572500002338,
      "v": 100
    },
    {
      "midi": 54,
      "hit": false,
      "t": 349023.82697499386,
      "d": 7.936508333310485,
      "v": 60
    },
    {
      "midi": 64,
      "hit": false,
      "t": 349031.7634833335,
      "d": 436.50795833335724,
      "v": 119
    },
    {
      "midi": 73,
      "hit": false,
      "t": 349031.7634833335,
      "d": 436.50795833335724,
      "v": 119
    },
    {
      "midi": 69,
      "hit": false,
      "t": 349031.7634833335,
      "d": 436.50795833335724,
      "v": 119
    },
    {
      "midi": 67,
      "hit": false,
      "t": 349031.7634833335,
      "d": 436.50795833335724,
      "v": 119
    },
    {
      "midi": 2,
      "hit": false,
      "t": 349047.63649999385,
      "d": 7.936508333310485,
      "v": 120
    },
    {
      "midi": 42,
      "hit": false,
      "t": 349047.63649999385,
      "d": 7.936508333310485,
      "v": 100
    },
    {
      "midi": 33,
      "hit": false,
      "t": 349047.6364999952,
      "d": 412.69843333330937,
      "v": 112
    },
    {
      "midi": 64,
      "hit": false,
      "t": 349047.6364999981,
      "d": 214.28572500002338,
      "v": 100
    },
    {
      "midi": 45,
      "hit": false,
      "t": 349047.6365000031,
      "d": 119.04762500000652,
      "v": 115
    },
    {
      "midi": 52,
      "hit": false,
      "t": 349047.6365000031,
      "d": 119.04762500000652,
      "v": 115
    },
    {
      "midi": 45,
      "hit": false,
      "t": 349047.6365000045,
      "d": 79.36508333333768,
      "v": 100
    },
    {
      "midi": 52,
      "hit": false,
      "t": 349047.6365000045,
      "d": 79.36508333333768,
      "v": 100
    },
    {
      "midi": 54,
      "hit": false,
      "t": 349261.9222249938,
      "d": 7.936508333310485,
      "v": 60
    },
    {
      "midi": 69,
      "hit": false,
      "t": 349285.7317499981,
      "d": 214.28572500002338,
      "v": 100
    },
    {
      "midi": 54,
      "hit": false,
      "t": 349500.0174749938,
      "d": 7.936508333310485,
      "v": 100
    },
    {
      "midi": 85,
      "hit": false,
      "t": 349500.0174749994,
      "d": 952.380999999994,
      "v": 100
    },
    {
      "midi": 97,
      "hit": false,
      "t": 349500.0174749994,
      "d": 952.380999999994,
      "v": 100
    },
    {
      "midi": 40,
      "hit": false,
      "t": 349523.82699999376,
      "d": 7.936508333310485,
      "v": 127
    },
    {
      "midi": 42,
      "hit": false,
      "t": 349523.82699999376,
      "d": 7.936508333310485,
      "v": 100
    },
    {
      "midi": 37,
      "hit": false,
      "t": 349523.82699999516,
      "d": 412.69843333330937,
      "v": 112
    },
    {
      "midi": 69,
      "hit": false,
      "t": 349523.8269999981,
      "d": 214.28572500002338,
      "v": 100
    },
    {
      "midi": 64,
      "hit": false,
      "t": 349523.8270000018,
      "d": 436.50795833335724,
      "v": 100
    },
    {
      "midi": 69,
      "hit": false,
      "t": 349523.8270000018,
      "d": 436.50795833335724,
      "v": 100
    },
    {
      "midi": 73,
      "hit": false,
      "t": 349523.8270000018,
      "d": 436.50795833335724,
      "v": 100
    },
    {
      "midi": 78,
      "hit": false,
      "t": 349523.8270000028,
      "d": 436.50795833335724,
      "v": 120
    },
    {
      "midi": 45,
      "hit": false,
      "t": 349523.8270000031,
      "d": 912.6984583333251,
      "v": 120
    },
    {
      "midi": 52,
      "hit": false,
      "t": 349523.8270000031,
      "d": 912.6984583333251,
      "v": 120
    },
    {
      "midi": 45,
      "hit": false,
      "t": 349523.82700000453,
      "d": 436.50795833335724,
      "v": 115
    },
    {
      "midi": 52,
      "hit": false,
      "t": 349523.82700000453,
      "d": 436.50795833335724,
      "v": 115
    },
    {
      "midi": 54,
      "hit": false,
      "t": 349738.1127249937,
      "d": 7.936508333310485,
      "v": 60
    },
    {
      "midi": 64,
      "hit": false,
      "t": 349746.04923333356,
      "d": 634.9206666666432,
      "v": 119
    },
    {
      "midi": 73,
      "hit": false,
      "t": 349746.04923333356,
      "d": 634.9206666666432,
      "v": 119
    },
    {
      "midi": 69,
      "hit": false,
      "t": 349746.04923333356,
      "d": 634.9206666666432,
      "v": 119
    },
    {
      "midi": 67,
      "hit": false,
      "t": 349746.04923333356,
      "d": 634.9206666666432,
      "v": 119
    },
    {
      "midi": 64,
      "hit": false,
      "t": 349761.92224999814,
      "d": 214.28572500002338,
      "v": 100
    },
    {
      "midi": 54,
      "hit": false,
      "t": 349976.2079749937,
      "d": 7.936508333310485,
      "v": 60
    },
    {
      "midi": 2,
      "hit": false,
      "t": 350000.0174999937,
      "d": 7.936508333310485,
      "v": 120
    },
    {
      "midi": 42,
      "hit": false,
      "t": 350000.0174999937,
      "d": 7.936508333310485,
      "v": 100
    },
    {
      "midi": 33,
      "hit": false,
      "t": 350000.0174999951,
      "d": 412.69843333330937,
      "v": 112
    },
    {
      "midi": 73,
      "hit": false,
      "t": 350000.01749999815,
      "d": 214.28572500002338,
      "v": 100
    },
    {
      "midi": 64,
      "hit": false,
      "t": 350000.0175000018,
      "d": 436.50795833335724,
      "v": 100
    },
    {
      "midi": 73,
      "hit": false,
      "t": 350000.0175000018,
      "d": 436.50795833335724,
      "v": 100
    },
    {
      "midi": 69,
      "hit": false,
      "t": 350000.0175000018,
      "d": 436.50795833335724,
      "v": 100
    },
    {
      "midi": 76,
      "hit": false,
      "t": 350000.0175000028,
      "d": 436.50795833335724,
      "v": 120
    },
    {
      "midi": 45,
      "hit": false,
      "t": 350000.01750000456,
      "d": 436.50795833335724,
      "v": 115
    },
    {
      "midi": 52,
      "hit": false,
      "t": 350000.01750000456,
      "d": 436.50795833335724,
      "v": 115
    },
    {
      "midi": 54,
      "hit": false,
      "t": 350214.30322499364,
      "d": 7.936508333310485,
      "v": 65
    },
    {
      "midi": 69,
      "hit": false,
      "t": 350238.11274999817,
      "d": 214.28572500002338,
      "v": 100
    },
    {
      "midi": 62,
      "hit": false,
      "t": 350444.46196666686,
      "d": 634.9206666666432,
      "v": 119
    },
    {
      "midi": 66,
      "hit": false,
      "t": 350444.46196666686,
      "d": 634.9206666666432,
      "v": 119
    },
    {
      "midi": 71,
      "hit": false,
      "t": 350444.46196666686,
      "d": 634.9206666666432,
      "v": 119
    },
    {
      "midi": 86,
      "hit": false,
      "t": 350452.3984749994,
      "d": 3809.523999999976,
      "v": 100
    },
    {
      "midi": 98,
      "hit": false,
      "t": 350452.3984749994,
      "d": 3809.523999999976,
      "v": 100
    },
    {
      "midi": 71,
      "hit": false,
      "t": 350452.39847499994,
      "d": 3793.650983333355,
      "v": 115
    },
    {
      "midi": 2,
      "hit": false,
      "t": 350476.20799999364,
      "d": 7.936508333310485,
      "v": 123
    },
    {
      "midi": 54,
      "hit": false,
      "t": 350476.20799999364,
      "d": 7.936508333310485,
      "v": 100
    },
    {
      "midi": 42,
      "hit": false,
      "t": 350476.20799999364,
      "d": 7.936508333310485,
      "v": 115
    },
    {
      "midi": 40,
      "hit": false,
      "t": 350476.20799999364,
      "d": 7.936508333310485,
      "v": 127
    },
    {
      "midi": 35,
      "hit": false,
      "t": 350476.2079999951,
      "d": 412.69843333330937,
      "v": 118
    },
    {
      "midi": 59,
      "hit": false,
      "t": 350476.2079999982,
      "d": 436.50795833335724,
      "v": 100
    },
    {
      "midi": 62,
      "hit": false,
      "t": 350476.20800000185,
      "d": 873.0159166666563,
      "v": 100
    },
    {
      "midi": 66,
      "hit": false,
      "t": 350476.20800000185,
      "d": 873.0159166666563,
      "v": 100
    },
    {
      "midi": 71,
      "hit": false,
      "t": 350476.20800000185,
      "d": 873.0159166666563,
      "v": 100
    },
    {
      "midi": 74,
      "hit": false,
      "t": 350476.20800000284,
      "d": 436.50795833335724,
      "v": 120
    },
    {
      "midi": 47,
      "hit": false,
      "t": 350476.20800000307,
      "d": 912.6984583333251,
      "v": 120
    },
    {
      "midi": 54,
      "hit": false,
      "t": 350476.20800000307,
      "d": 912.6984583333251,
      "v": 120
    },
    {
      "midi": 47,
      "hit": false,
      "t": 350476.2080000046,
      "d": 436.50795833335724,
      "v": 115
    },
    {
      "midi": 54,
      "hit": false,
      "t": 350476.2080000046,
      "d": 436.50795833335724,
      "v": 115
    },
    {
      "midi": 54,
      "hit": false,
      "t": 350690.4937249936,
      "d": 7.936508333310485,
      "v": 60
    },
    {
      "midi": 54,
      "hit": false,
      "t": 350928.58897499356,
      "d": 7.936508333310485,
      "v": 60
    },
    {
      "midi": 42,
      "hit": false,
      "t": 350952.39849999355,
      "d": 7.936508333310485,
      "v": 100
    },
    {
      "midi": 35,
      "hit": false,
      "t": 350952.39849999506,
      "d": 412.69843333330937,
      "v": 112
    },
    {
      "midi": 62,
      "hit": false,
      "t": 350952.3984999982,
      "d": 214.28572500002338,
      "v": 100
    },
    {
      "midi": 74,
      "hit": false,
      "t": 350952.39850000286,
      "d": 436.50795833335724,
      "v": 120
    },
    {
      "midi": 47,
      "hit": false,
      "t": 350952.3985000046,
      "d": 79.36508333333768,
      "v": 100
    },
    {
      "midi": 54,
      "hit": false,
      "t": 350952.3985000046,
      "d": 79.36508333333768,
      "v": 100
    },
    {
      "midi": 54,
      "hit": false,
      "t": 351166.6842249935,
      "d": 7.936508333310485,
      "v": 60
    },
    {
      "midi": 62,
      "hit": false,
      "t": 351174.6207333335,
      "d": 214.28572500002338,
      "v": 119
    },
    {
      "midi": 66,
      "hit": false,
      "t": 351174.6207333335,
      "d": 214.28572500002338,
      "v": 119
    },
    {
      "midi": 71,
      "hit": false,
      "t": 351174.6207333335,
      "d": 214.28572500002338,
      "v": 119
    },
    {
      "midi": 59,
      "hit": false,
      "t": 351190.4937499982,
      "d": 214.28572500002338,
      "v": 100
    },
    {
      "midi": 54,
      "hit": false,
      "t": 351404.77947499347,
      "d": 7.936508333310485,
      "v": 100
    },
    {
      "midi": 40,
      "hit": false,
      "t": 351428.58899999346,
      "d": 7.936508333310485,
      "v": 127
    },
    {
      "midi": 42,
      "hit": false,
      "t": 351428.58899999346,
      "d": 7.936508333310485,
      "v": 100
    },
    {
      "midi": 35,
      "hit": false,
      "t": 351428.58899999503,
      "d": 412.69843333330937,
      "v": 112
    },
    {
      "midi": 66,
      "hit": false,
      "t": 351428.58899999823,
      "d": 214.28572500002338,
      "v": 100
    },
    {
      "midi": 62,
      "hit": false,
      "t": 351428.58900000184,
      "d": 436.50795833335724,
      "v": 100
    },
    {
      "midi": 66,
      "hit": false,
      "t": 351428.58900000184,
      "d": 436.50795833335724,
      "v": 100
    },
    {
      "midi": 71,
      "hit": false,
      "t": 351428.58900000184,
      "d": 436.50795833335724,
      "v": 100
    },
    {
      "midi": 74,
      "hit": false,
      "t": 351428.5890000029,
      "d": 436.50795833335724,
      "v": 120
    },
    {
      "midi": 47,
      "hit": false,
      "t": 351428.58900000306,
      "d": 119.04762500000652,
      "v": 115
    },
    {
      "midi": 54,
      "hit": false,
      "t": 351428.58900000306,
      "d": 119.04762500000652,
      "v": 115
    },
    {
      "midi": 54,
      "hit": false,
      "t": 351428.58900000463,
      "d": 79.36508333333768,
      "v": 100
    },
    {
      "midi": 47,
      "hit": false,
      "t": 351428.58900000463,
      "d": 79.36508333333768,
      "v": 100
    },
    {
      "midi": 54,
      "hit": false,
      "t": 351642.8747249934,
      "d": 7.936508333310485,
      "v": 60
    },
    {
      "midi": 64,
      "hit": false,
      "t": 351666.68424999824,
      "d": 214.28572500002338,
      "v": 100
    },
    {
      "midi": 54,
      "hit": false,
      "t": 351880.9699749934,
      "d": 7.936508333310485,
      "v": 65
    },
    {
      "midi": 62,
      "hit": false,
      "t": 351888.90648333356,
      "d": 634.9206666666432,
      "v": 119
    },
    {
      "midi": 66,
      "hit": false,
      "t": 351888.90648333356,
      "d": 634.9206666666432,
      "v": 119
    },
    {
      "midi": 71,
      "hit": false,
      "t": 351888.90648333356,
      "d": 634.9206666666432,
      "v": 119
    },
    {
      "midi": 42,
      "hit": false,
      "t": 351904.77949999337,
      "d": 7.936508333310485,
      "v": 100
    },
    {
      "midi": 35,
      "hit": false,
      "t": 351904.779499995,
      "d": 412.69843333330937,
      "v": 112
    },
    {
      "midi": 64,
      "hit": false,
      "t": 351904.77949999826,
      "d": 214.28572500002338,
      "v": 100
    },
    {
      "midi": 62,
      "hit": false,
      "t": 351904.77950000187,
      "d": 436.50795833335724,
      "v": 100
    },
    {
      "midi": 66,
      "hit": false,
      "t": 351904.77950000187,
      "d": 436.50795833335724,
      "v": 100
    },
    {
      "midi": 71,
      "hit": false,
      "t": 351904.77950000187,
      "d": 436.50795833335724,
      "v": 100
    },
    {
      "midi": 73,
      "hit": false,
      "t": 351904.7795000029,
      "d": 436.50795833335724,
      "v": 120
    },
    {
      "midi": 54,
      "hit": false,
      "t": 351904.7795000031,
      "d": 119.04762500000652,
      "v": 115
    },
    {
      "midi": 47,
      "hit": false,
      "t": 351904.7795000031,
      "d": 119.04762500000652,
      "v": 115
    },
    {
      "midi": 47,
      "hit": false,
      "t": 351904.77950000466,
      "d": 436.50795833335724,
      "v": 115
    },
    {
      "midi": 54,
      "hit": false,
      "t": 351904.77950000466,
      "d": 436.50795833335724,
      "v": 115
    },
    {
      "midi": 54,
      "hit": false,
      "t": 352119.06522499333,
      "d": 7.936508333310485,
      "v": 60
    },
    {
      "midi": 66,
      "hit": false,
      "t": 352142.8747499983,
      "d": 214.28572500002338,
      "v": 100
    },
    {
      "midi": 54,
      "hit": false,
      "t": 352357.1604749933,
      "d": 7.936508333310485,
      "v": 100
    },
    {
      "midi": 40,
      "hit": false,
      "t": 352380.9699999933,
      "d": 7.936508333310485,
      "v": 127
    },
    {
      "midi": 42,
      "hit": false,
      "t": 352380.9699999933,
      "d": 7.936508333310485,
      "v": 115
    },
    {
      "midi": 35,
      "hit": false,
      "t": 352380.96999999497,
      "d": 412.69843333330937,
      "v": 112
    },
    {
      "midi": 71,
      "hit": false,
      "t": 352380.9699999983,
      "d": 214.28572500002338,
      "v": 100
    },
    {
      "midi": 62,
      "hit": false,
      "t": 352380.9700000019,
      "d": 436.50795833335724,
      "v": 100
    },
    {
      "midi": 66,
      "hit": false,
      "t": 352380.9700000019,
      "d": 436.50795833335724,
      "v": 100
    },
    {
      "midi": 71,
      "hit": false,
      "t": 352380.9700000019,
      "d": 436.50795833335724,
      "v": 100
    },
    {
      "midi": 74,
      "hit": false,
      "t": 352380.97000000294,
      "d": 436.50795833335724,
      "v": 120
    },
    {
      "midi": 54,
      "hit": false,
      "t": 352380.9700000031,
      "d": 119.04762500000652,
      "v": 115
    },
    {
      "midi": 47,
      "hit": false,
      "t": 352380.9700000031,
      "d": 119.04762500000652,
      "v": 115
    },
    {
      "midi": 47,
      "hit": false,
      "t": 352380.9700000047,
      "d": 79.36508333333768,
      "v": 100
    },
    {
      "midi": 54,
      "hit": false,
      "t": 352380.9700000047,
      "d": 79.36508333333768,
      "v": 100
    },
    {
      "midi": 54,
      "hit": false,
      "t": 352595.25572499324,
      "d": 7.936508333310485,
      "v": 60
    },
    {
      "midi": 62,
      "hit": false,
      "t": 352603.19223333354,
      "d": 214.28572500002338,
      "v": 119
    },
    {
      "midi": 66,
      "hit": false,
      "t": 352603.19223333354,
      "d": 214.28572500002338,
      "v": 119
    },
    {
      "midi": 71,
      "hit": false,
      "t": 352603.19223333354,
      "d": 214.28572500002338,
      "v": 119
    },
    {
      "midi": 62,
      "hit": false,
      "t": 352619.0652499983,
      "d": 214.28572500002338,
      "v": 100
    },
    {
      "midi": 54,
      "hit": false,
      "t": 352833.3509749932,
      "d": 7.936508333310485,
      "v": 60
    },
    {
      "midi": 2,
      "hit": false,
      "t": 352857.1604999932,
      "d": 7.936508333310485,
      "v": 120
    },
    {
      "midi": 42,
      "hit": false,
      "t": 352857.1604999932,
      "d": 7.936508333310485,
      "v": 100
    },
    {
      "midi": 35,
      "hit": false,
      "t": 352857.16049999493,
      "d": 412.69843333330937,
      "v": 112
    },
    {
      "midi": 62,
      "hit": false,
      "t": 352857.1604999983,
      "d": 214.28572500002338,
      "v": 100
    },
    {
      "midi": 62,
      "hit": false,
      "t": 352857.1605000019,
      "d": 436.50795833335724,
      "v": 100
    },
    {
      "midi": 66,
      "hit": false,
      "t": 352857.1605000019,
      "d": 436.50795833335724,
      "v": 100
    },
    {
      "midi": 71,
      "hit": false,
      "t": 352857.1605000019,
      "d": 436.50795833335724,
      "v": 100
    },
    {
      "midi": 76,
      "hit": false,
      "t": 352857.16050000297,
      "d": 436.50795833335724,
      "v": 120
    },
    {
      "midi": 54,
      "hit": false,
      "t": 352857.16050000314,
      "d": 119.04762500000652,
      "v": 115
    },
    {
      "midi": 47,
      "hit": false,
      "t": 352857.16050000314,
      "d": 119.04762500000652,
      "v": 115
    },
    {
      "midi": 54,
      "hit": false,
      "t": 352857.1605000047,
      "d": 79.36508333333768,
      "v": 100
    },
    {
      "midi": 47,
      "hit": false,
      "t": 352857.1605000047,
      "d": 79.36508333333768,
      "v": 100
    },
    {
      "midi": 54,
      "hit": false,
      "t": 353071.44622499315,
      "d": 7.936508333310485,
      "v": 60
    },
    {
      "midi": 71,
      "hit": false,
      "t": 353095.2557499983,
      "d": 214.28572500002338,
      "v": 100
    },
    {
      "midi": 54,
      "hit": false,
      "t": 353309.5414749931,
      "d": 7.936508333310485,
      "v": 100
    },
    {
      "midi": 40,
      "hit": false,
      "t": 353333.3509999931,
      "d": 7.936508333310485,
      "v": 127
    },
    {
      "midi": 42,
      "hit": false,
      "t": 353333.3509999931,
      "d": 7.936508333310485,
      "v": 100
    },
    {
      "midi": 40,
      "hit": false,
      "t": 353333.3509999949,
      "d": 412.69843333330937,
      "v": 112
    },
    {
      "midi": 66,
      "hit": false,
      "t": 353333.35099999834,
      "d": 214.28572500002338,
      "v": 100
    },
    {
      "midi": 62,
      "hit": false,
      "t": 353333.35100000195,
      "d": 436.50795833335724,
      "v": 100
    },
    {
      "midi": 66,
      "hit": false,
      "t": 353333.35100000195,
      "d": 436.50795833335724,
      "v": 100
    },
    {
      "midi": 71,
      "hit": false,
      "t": 353333.35100000195,
      "d": 436.50795833335724,
      "v": 100
    },
    {
      "midi": 78,
      "hit": false,
      "t": 353333.351000003,
      "d": 436.50795833335724,
      "v": 120
    },
    {
      "midi": 47,
      "hit": false,
      "t": 353333.35100000317,
      "d": 912.6984583333251,
      "v": 120
    },
    {
      "midi": 54,
      "hit": false,
      "t": 353333.35100000317,
      "d": 912.6984583333251,
      "v": 120
    },
    {
      "midi": 47,
      "hit": false,
      "t": 353333.35100000474,
      "d": 436.50795833335724,
      "v": 115
    },
    {
      "midi": 54,
      "hit": false,
      "t": 353333.35100000474,
      "d": 436.50795833335724,
      "v": 115
    },
    {
      "midi": 54,
      "hit": false,
      "t": 353547.63672499306,
      "d": 7.936508333310485,
      "v": 60
    },
    {
      "midi": 62,
      "hit": false,
      "t": 353555.5732333336,
      "d": 214.28572500002338,
      "v": 119
    },
    {
      "midi": 66,
      "hit": false,
      "t": 353555.5732333336,
      "d": 214.28572500002338,
      "v": 119
    },
    {
      "midi": 71,
      "hit": false,
      "t": 353555.5732333336,
      "d": 214.28572500002338,
      "v": 119
    },
    {
      "midi": 62,
      "hit": false,
      "t": 353571.44624999835,
      "d": 214.28572500002338,
      "v": 100
    },
    {
      "midi": 54,
      "hit": false,
      "t": 353785.731974993,
      "d": 7.936508333310485,
      "v": 60
    },
    {
      "midi": 2,
      "hit": false,
      "t": 353809.541499993,
      "d": 7.936508333310485,
      "v": 120
    },
    {
      "midi": 42,
      "hit": false,
      "t": 353809.541499993,
      "d": 7.936508333310485,
      "v": 100
    },
    {
      "midi": 41,
      "hit": false,
      "t": 353809.54149999487,
      "d": 412.69843333330937,
      "v": 112
    },
    {
      "midi": 71,
      "hit": false,
      "t": 353809.54149999836,
      "d": 214.28572500002338,
      "v": 100
    },
    {
      "midi": 62,
      "hit": false,
      "t": 353809.541500002,
      "d": 436.50795833335724,
      "v": 100
    },
    {
      "midi": 66,
      "hit": false,
      "t": 353809.541500002,
      "d": 436.50795833335724,
      "v": 100
    },
    {
      "midi": 71,
      "hit": false,
      "t": 353809.541500002,
      "d": 436.50795833335724,
      "v": 100
    },
    {
      "midi": 83,
      "hit": false,
      "t": 353809.541500003,
      "d": 436.50795833335724,
      "v": 120
    },
    {
      "midi": 47,
      "hit": false,
      "t": 353809.54150000477,
      "d": 436.50795833335724,
      "v": 115
    },
    {
      "midi": 54,
      "hit": false,
      "t": 353809.54150000477,
      "d": 436.50795833335724,
      "v": 115
    },
    {
      "midi": 54,
      "hit": false,
      "t": 354023.827224993,
      "d": 7.936508333310485,
      "v": 65
    },
    {
      "midi": 66,
      "hit": false,
      "t": 354047.6367499984,
      "d": 214.28572500002338,
      "v": 100
    },
    {
      "midi": 61,
      "hit": false,
      "t": 354253.98596666695,
      "d": 634.9206666666432,
      "v": 119
    },
    {
      "midi": 66,
      "hit": false,
      "t": 354253.98596666695,
      "d": 634.9206666666432,
      "v": 119
    },
    {
      "midi": 69,
      "hit": false,
      "t": 354253.98596666695,
      "d": 634.9206666666432,
      "v": 119
    },
    {
      "midi": 69,
      "hit": false,
      "t": 354261.9224749994,
      "d": 3809.523999999976,
      "v": 100
    },
    {
      "midi": 97,
      "hit": false,
      "t": 354261.9224749994,
      "d": 3809.523999999976,
      "v": 100
    },
    {
      "midi": 81,
      "hit": false,
      "t": 354261.92247499997,
      "d": 936.5079833333148,
      "v": 100
    },
    {
      "midi": 93,
      "hit": false,
      "t": 354261.92247499997,
      "d": 936.5079833333148,
      "v": 100
    },
    {
      "midi": 2,
      "hit": false,
      "t": 354285.731999993,
      "d": 7.936508333310485,
      "v": 123
    },
    {
      "midi": 54,
      "hit": false,
      "t": 354285.731999993,
      "d": 7.936508333310485,
      "v": 100
    },
    {
      "midi": 42,
      "hit": false,
      "t": 354285.731999993,
      "d": 7.936508333310485,
      "v": 115
    },
    {
      "midi": 40,
      "hit": false,
      "t": 354285.731999993,
      "d": 7.936508333310485,
      "v": 127
    },
    {
      "midi": 42,
      "hit": false,
      "t": 354285.73199999484,
      "d": 412.69843333330937,
      "v": 118
    },
    {
      "midi": 57,
      "hit": false,
      "t": 354285.7319999984,
      "d": 214.28572500002338,
      "v": 100
    },
    {
      "midi": 61,
      "hit": false,
      "t": 354285.732000002,
      "d": 2674.603308333375,
      "v": 100
    },
    {
      "midi": 66,
      "hit": false,
      "t": 354285.732000002,
      "d": 2674.603308333375,
      "v": 100
    },
    {
      "midi": 73,
      "hit": false,
      "t": 354285.732000002,
      "d": 2777.7779166667024,
      "v": 100
    },
    {
      "midi": 81,
      "hit": false,
      "t": 354285.73200000304,
      "d": 2460.31758333341,
      "v": 120
    },
    {
      "midi": 42,
      "hit": false,
      "t": 354285.73200000316,
      "d": 912.6984583333251,
      "v": 120
    },
    {
      "midi": 49,
      "hit": false,
      "t": 354285.73200000316,
      "d": 912.6984583333251,
      "v": 120
    },
    {
      "midi": 54,
      "hit": false,
      "t": 354285.7320000048,
      "d": 436.50795833335724,
      "v": 115
    },
    {
      "midi": 61,
      "hit": false,
      "t": 354285.7320000048,
      "d": 436.50795833335724,
      "v": 115
    },
    {
      "midi": 54,
      "hit": false,
      "t": 354500.01772499294,
      "d": 7.936508333310485,
      "v": 60
    },
    {
      "midi": 71,
      "hit": false,
      "t": 354523.8272499984,
      "d": 214.28572500002338,
      "v": 100
    },
    {
      "midi": 54,
      "hit": false,
      "t": 354738.1129749929,
      "d": 7.936508333310485,
      "v": 60
    },
    {
      "midi": 42,
      "hit": false,
      "t": 354761.9224999929,
      "d": 7.936508333310485,
      "v": 100
    },
    {
      "midi": 42,
      "hit": false,
      "t": 354761.9224999948,
      "d": 412.69843333330937,
      "v": 112
    },
    {
      "midi": 61,
      "hit": false,
      "t": 354761.9224999984,
      "d": 214.28572500002338,
      "v": 100
    },
    {
      "midi": 54,
      "hit": false,
      "t": 354761.9225000048,
      "d": 79.36508333333768,
      "v": 100
    },
    {
      "midi": 61,
      "hit": false,
      "t": 354761.9225000048,
      "d": 79.36508333333768,
      "v": 100
    },
    {
      "midi": 54,
      "hit": false,
      "t": 354976.20822499285,
      "d": 7.936508333310485,
      "v": 60
    },
    {
      "midi": 57,
      "hit": false,
      "t": 355000.0177499984,
      "d": 214.28572500002338,
      "v": 100
    },
    {
      "midi": 61,
      "hit": false,
      "t": 355000.01775000023,
      "d": 634.9206666666432,
      "v": 119
    },
    {
      "midi": 66,
      "hit": false,
      "t": 355000.01775000023,
      "d": 634.9206666666432,
      "v": 119
    },
    {
      "midi": 69,
      "hit": false,
      "t": 355000.01775000023,
      "d": 634.9206666666432,
      "v": 119
    },
    {
      "midi": 54,
      "hit": false,
      "t": 355214.3034749928,
      "d": 7.936508333310485,
      "v": 100
    },
    {
      "midi": 79,
      "hit": false,
      "t": 355214.30347499996,
      "d": 936.5079833333148,
      "v": 100
    },
    {
      "midi": 91,
      "hit": false,
      "t": 355214.30347499996,
      "d": 936.5079833333148,
      "v": 100
    },
    {
      "midi": 40,
      "hit": false,
      "t": 355238.1129999928,
      "d": 7.936508333310485,
      "v": 127
    },
    {
      "midi": 42,
      "hit": false,
      "t": 355238.1129999928,
      "d": 7.936508333310485,
      "v": 100
    },
    {
      "midi": 42,
      "hit": false,
      "t": 355238.1129999948,
      "d": 412.69843333330937,
      "v": 112
    },
    {
      "midi": 64,
      "hit": false,
      "t": 355238.11299999844,
      "d": 214.28572500002338,
      "v": 100
    },
    {
      "midi": 42,
      "hit": false,
      "t": 355238.11300000316,
      "d": 119.04762500000652,
      "v": 115
    },
    {
      "midi": 49,
      "hit": false,
      "t": 355238.11300000316,
      "d": 119.04762500000652,
      "v": 115
    },
    {
      "midi": 54,
      "hit": false,
      "t": 355238.11300000484,
      "d": 79.36508333333768,
      "v": 100
    },
    {
      "midi": 61,
      "hit": false,
      "t": 355238.11300000484,
      "d": 79.36508333333768,
      "v": 100
    },
    {
      "midi": 54,
      "hit": false,
      "t": 355452.39872499276,
      "d": 7.936508333310485,
      "v": 60
    },
    {
      "midi": 61,
      "hit": false,
      "t": 355476.20824999845,
      "d": 214.28572500002338,
      "v": 100
    },
    {
      "midi": 54,
      "hit": false,
      "t": 355690.4939749927,
      "d": 7.936508333310485,
      "v": 65
    },
    {
      "midi": 46,
      "hit": false,
      "t": 355714.3034999927,
      "d": 7.936508333310485,
      "v": 100
    },
    {
      "midi": 42,
      "hit": false,
      "t": 355714.30349999474,
      "d": 412.69843333330937,
      "v": 112
    },
    {
      "midi": 61,
      "hit": false,
      "t": 355714.30349999847,
      "d": 214.28572500002338,
      "v": 100
    },
    {
      "midi": 57,
      "hit": false,
      "t": 355714.3035000002,
      "d": 436.50795833335724,
      "v": 119
    },
    {
      "midi": 42,
      "hit": false,
      "t": 355714.3035000032,
      "d": 119.04762500000652,
      "v": 115
    },
    {
      "midi": 49,
      "hit": false,
      "t": 355714.3035000032,
      "d": 119.04762500000652,
      "v": 115
    },
    {
      "midi": 54,
      "hit": false,
      "t": 355714.30350000487,
      "d": 436.50795833335724,
      "v": 115
    },
    {
      "midi": 61,
      "hit": false,
      "t": 355714.30350000487,
      "d": 436.50795833335724,
      "v": 115
    },
    {
      "midi": 54,
      "hit": false,
      "t": 355928.58922499267,
      "d": 7.936508333310485,
      "v": 60
    },
    {
      "midi": 64,
      "hit": false,
      "t": 355952.3987499985,
      "d": 214.28572500002338,
      "v": 100
    },
    {
      "midi": 54,
      "hit": false,
      "t": 356166.6844749926,
      "d": 7.936508333310485,
      "v": 100
    },
    {
      "midi": 78,
      "hit": false,
      "t": 356166.68447499996,
      "d": 936.5079833333148,
      "v": 100
    },
    {
      "midi": 90,
      "hit": false,
      "t": 356166.68447499996,
      "d": 936.5079833333148,
      "v": 100
    },
    {
      "midi": 61,
      "hit": false,
      "t": 356174.62098333356,
      "d": 436.50795833335724,
      "v": 119
    },
    {
      "midi": 64,
      "hit": false,
      "t": 356174.62098333356,
      "d": 436.50795833335724,
      "v": 119
    },
    {
      "midi": 69,
      "hit": false,
      "t": 356174.62098333356,
      "d": 436.50795833335724,
      "v": 119
    },
    {
      "midi": 40,
      "hit": false,
      "t": 356190.4939999926,
      "d": 7.936508333310485,
      "v": 127
    },
    {
      "midi": 46,
      "hit": false,
      "t": 356190.4939999926,
      "d": 7.936508333310485,
      "v": 115
    },
    {
      "midi": 42,
      "hit": false,
      "t": 356190.4939999947,
      "d": 412.69843333330937,
      "v": 112
    },
    {
      "midi": 66,
      "hit": false,
      "t": 356190.4939999985,
      "d": 214.28572500002338,
      "v": 100
    },
    {
      "midi": 49,
      "hit": false,
      "t": 356190.4940000032,
      "d": 119.04762500000652,
      "v": 115
    },
    {
      "midi": 42,
      "hit": false,
      "t": 356190.4940000032,
      "d": 119.04762500000652,
      "v": 115
    },
    {
      "midi": 54,
      "hit": false,
      "t": 356190.4940000049,
      "d": 79.36508333333768,
      "v": 100
    },
    {
      "midi": 61,
      "hit": false,
      "t": 356190.4940000049,
      "d": 79.36508333333768,
      "v": 100
    },
    {
      "midi": 54,
      "hit": false,
      "t": 356404.7797249926,
      "d": 7.936508333310485,
      "v": 60
    },
    {
      "midi": 61,
      "hit": false,
      "t": 356428.5892499985,
      "d": 214.28572500002338,
      "v": 100
    },
    {
      "midi": 54,
      "hit": false,
      "t": 356642.87497499253,
      "d": 7.936508333310485,
      "v": 60
    },
    {
      "midi": 2,
      "hit": false,
      "t": 356666.6844999925,
      "d": 7.936508333310485,
      "v": 120
    },
    {
      "midi": 46,
      "hit": false,
      "t": 356666.6844999925,
      "d": 7.936508333310485,
      "v": 100
    },
    {
      "midi": 37,
      "hit": false,
      "t": 356666.6844999947,
      "d": 412.69843333330937,
      "v": 112
    },
    {
      "midi": 64,
      "hit": false,
      "t": 356666.6844999985,
      "d": 214.28572500002338,
      "v": 100
    },
    {
      "midi": 54,
      "hit": false,
      "t": 356666.68450000026,
      "d": 436.50795833335724,
      "v": 125
    },
    {
      "midi": 42,
      "hit": false,
      "t": 356666.68450000323,
      "d": 119.04762500000652,
      "v": 115
    },
    {
      "midi": 49,
      "hit": false,
      "t": 356666.68450000323,
      "d": 119.04762500000652,
      "v": 115
    },
    {
      "midi": 61,
      "hit": false,
      "t": 356666.6845000049,
      "d": 79.36508333333768,
      "v": 100
    },
    {
      "midi": 54,
      "hit": false,
      "t": 356666.6845000049,
      "d": 79.36508333333768,
      "v": 100
    },
    {
      "midi": 54,
      "hit": false,
      "t": 356880.9702249925,
      "d": 7.936508333310485,
      "v": 60
    },
    {
      "midi": 66,
      "hit": false,
      "t": 356904.77974999853,
      "d": 214.28572500002338,
      "v": 100
    },
    {
      "midi": 54,
      "hit": false,
      "t": 357119.06547499244,
      "d": 7.936508333310485,
      "v": 100
    },
    {
      "midi": 76,
      "hit": false,
      "t": 357119.06547499995,
      "d": 936.5079833333148,
      "v": 100
    },
    {
      "midi": 88,
      "hit": false,
      "t": 357119.06547499995,
      "d": 936.5079833333148,
      "v": 100
    },
    {
      "midi": 40,
      "hit": false,
      "t": 357142.87499999243,
      "d": 7.936508333310485,
      "v": 127
    },
    {
      "midi": 42,
      "hit": false,
      "t": 357142.87499999243,
      "d": 7.936508333310485,
      "v": 100
    },
    {
      "midi": 30,
      "hit": false,
      "t": 357142.87499999464,
      "d": 412.69843333330937,
      "v": 112
    },
    {
      "midi": 66,
      "hit": false,
      "t": 357142.87499999854,
      "d": 214.28572500002338,
      "v": 100
    },
    {
      "midi": 57,
      "hit": false,
      "t": 357142.8750000003,
      "d": 436.50795833335724,
      "v": 125
    },
    {
      "midi": 76,
      "hit": false,
      "t": 357142.87500000314,
      "d": 436.50795833335724,
      "v": 120
    },
    {
      "midi": 42,
      "hit": false,
      "t": 357142.8750000032,
      "d": 436.50795833335724,
      "v": 120
    },
    {
      "midi": 49,
      "hit": false,
      "t": 357142.8750000032,
      "d": 436.50795833335724,
      "v": 120
    },
    {
      "midi": 61,
      "hit": false,
      "t": 357142.87500000495,
      "d": 436.50795833335724,
      "v": 115
    },
    {
      "midi": 54,
      "hit": false,
      "t": 357142.87500000495,
      "d": 436.50795833335724,
      "v": 115
    },
    {
      "midi": 54,
      "hit": false,
      "t": 357357.1607249924,
      "d": 7.936508333310485,
      "v": 60
    },
    {
      "midi": 64,
      "hit": false,
      "t": 357380.97024999856,
      "d": 214.28572500002338,
      "v": 100
    },
    {
      "midi": 54,
      "hit": false,
      "t": 357595.25597499235,
      "d": 7.936508333310485,
      "v": 60
    },
    {
      "midi": 2,
      "hit": false,
      "t": 357619.06549999234,
      "d": 7.936508333310485,
      "v": 120
    },
    {
      "midi": 42,
      "hit": false,
      "t": 357619.06549999234,
      "d": 7.936508333310485,
      "v": 100
    },
    {
      "midi": 40,
      "hit": false,
      "t": 357619.06549999234,
      "d": 7.936508333310485,
      "v": 127
    },
    {
      "midi": 37,
      "hit": false,
      "t": 357619.0654999946,
      "d": 412.69843333330937,
      "v": 112
    },
    {
      "midi": 73,
      "hit": false,
      "t": 357619.06549999857,
      "d": 214.28572500002338,
      "v": 100
    },
    {
      "midi": 61,
      "hit": false,
      "t": 357619.0655000003,
      "d": 436.50795833335724,
      "v": 125
    },
    {
      "midi": 78,
      "hit": false,
      "t": 357619.06550000317,
      "d": 436.50795833335724,
      "v": 120
    },
    {
      "midi": 42,
      "hit": false,
      "t": 357619.0655000032,
      "d": 436.50795833329903,
      "v": 120
    },
    {
      "midi": 49,
      "hit": false,
      "t": 357619.0655000032,
      "d": 436.50795833329903,
      "v": 120
    },
    {
      "midi": 54,
      "hit": false,
      "t": 357619.065500005,
      "d": 436.50795833335724,
      "v": 115
    },
    {
      "midi": 61,
      "hit": false,
      "t": 357619.065500005,
      "d": 436.50795833335724,
      "v": 115
    },
    {
      "midi": 54,
      "hit": false,
      "t": 357833.3512249923,
      "d": 7.936508333310485,
      "v": 65
    },
    {
      "midi": 40,
      "hit": false,
      "t": 357857.1607499923,
      "d": 7.936508333310485,
      "v": 127
    },
    {
      "midi": 66,
      "hit": false,
      "t": 357857.1607499986,
      "d": 214.28572500002338,
      "v": 100
    },
    {
      "midi": 69,
      "hit": false,
      "t": 358055.5734583328,
      "d": 1825.3969166667084,
      "v": 90
    },
    {
      "midi": 62,
      "hit": false,
      "t": 358063.509966667,
      "d": 873.0159166666563,
      "v": 119
    },
    {
      "midi": 67,
      "hit": false,
      "t": 358063.509966667,
      "d": 873.0159166666563,
      "v": 119
    },
    {
      "midi": 59,
      "hit": false,
      "t": 358063.509966667,
      "d": 873.0159166666563,
      "v": 119
    },
    {
      "midi": 79,
      "hit": false,
      "t": 358063.50996666984,
      "d": 873.0159166666563,
      "v": 120
    },
    {
      "midi": 83,
      "hit": false,
      "t": 358071.44647499936,
      "d": 1880.9524749999982,
      "v": 100
    },
    {
      "midi": 86,
      "hit": false,
      "t": 358071.44647499936,
      "d": 1880.9524749999982,
      "v": 100
    },
    {
      "midi": 95,
      "hit": false,
      "t": 358071.44647499936,
      "d": 1880.9524749999982,
      "v": 100
    },
    {
      "midi": 67,
      "hit": false,
      "t": 358071.44647499995,
      "d": 1880.9524749999982,
      "v": 115
    },
    {
      "midi": 74,
      "hit": false,
      "t": 358071.44647499995,
      "d": 1880.9524749999982,
      "v": 115
    },
    {
      "midi": 2,
      "hit": false,
      "t": 358095.25599999225,
      "d": 7.936508333310485,
      "v": 123
    },
    {
      "midi": 54,
      "hit": false,
      "t": 358095.25599999225,
      "d": 7.936508333310485,
      "v": 100
    },
    {
      "midi": 49,
      "hit": false,
      "t": 358095.25599999225,
      "d": 7.936508333310485,
      "v": 115
    },
    {
      "midi": 40,
      "hit": false,
      "t": 358095.25599999225,
      "d": 7.936508333310485,
      "v": 127
    },
    {
      "midi": 31,
      "hit": false,
      "t": 358095.2559999946,
      "d": 412.69843333330937,
      "v": 118
    },
    {
      "midi": 59,
      "hit": false,
      "t": 358095.2559999986,
      "d": 436.50795833335724,
      "v": 100
    },
    {
      "midi": 62,
      "hit": false,
      "t": 358095.2560000021,
      "d": 1873.0159666666877,
      "v": 100
    },
    {
      "midi": 74,
      "hit": false,
      "t": 358095.2560000021,
      "d": 1873.0159666666877,
      "v": 100
    },
    {
      "midi": 71,
      "hit": false,
      "t": 358095.2560000021,
      "d": 1873.0159666666877,
      "v": 100
    },
    {
      "midi": 67,
      "hit": false,
      "t": 358095.2560000021,
      "d": 1873.0159666666877,
      "v": 100
    },
    {
      "midi": 43,
      "hit": false,
      "t": 358095.2560000032,
      "d": 912.6984583333251,
      "v": 120
    },
    {
      "midi": 50,
      "hit": false,
      "t": 358095.2560000032,
      "d": 912.6984583333251,
      "v": 120
    },
    {
      "midi": 55,
      "hit": false,
      "t": 358095.256000005,
      "d": 436.50795833335724,
      "v": 115
    },
    {
      "midi": 62,
      "hit": false,
      "t": 358095.256000005,
      "d": 436.50795833335724,
      "v": 115
    },
    {
      "midi": 67,
      "hit": false,
      "t": 358111.12901666615,
      "d": 1825.3969166667084,
      "v": 90
    },
    {
      "midi": 71,
      "hit": false,
      "t": 358158.7480666661,
      "d": 1825.3969166667084,
      "v": 90
    },
    {
      "midi": 74,
      "hit": false,
      "t": 358190.4940999995,
      "d": 1825.3969166667084,
      "v": 90
    },
    {
      "midi": 54,
      "hit": false,
      "t": 358309.5417249922,
      "d": 7.936508333310485,
      "v": 60
    },
    {
      "midi": 54,
      "hit": false,
      "t": 358547.6369749922,
      "d": 7.936508333310485,
      "v": 60
    },
    {
      "midi": 42,
      "hit": false,
      "t": 358571.44649999216,
      "d": 7.936508333310485,
      "v": 100
    },
    {
      "midi": 31,
      "hit": false,
      "t": 358571.44649999455,
      "d": 412.69843333330937,
      "v": 112
    },
    {
      "midi": 62,
      "hit": false,
      "t": 358571.4464999986,
      "d": 214.28572500002338,
      "v": 100
    },
    {
      "midi": 55,
      "hit": false,
      "t": 358571.446500005,
      "d": 79.36508333333768,
      "v": 100
    },
    {
      "midi": 62,
      "hit": false,
      "t": 358571.446500005,
      "d": 79.36508333333768,
      "v": 100
    },
    {
      "midi": 54,
      "hit": false,
      "t": 358785.7322249921,
      "d": 7.936508333310485,
      "v": 60
    },
    {
      "midi": 59,
      "hit": false,
      "t": 358809.54174999864,
      "d": 214.28572500002338,
      "v": 100
    },
    {
      "midi": 54,
      "hit": false,
      "t": 359023.8274749921,
      "d": 7.936508333310485,
      "v": 100
    },
    {
      "midi": 40,
      "hit": false,
      "t": 359047.6369999921,
      "d": 7.936508333310485,
      "v": 127
    },
    {
      "midi": 42,
      "hit": false,
      "t": 359047.6369999921,
      "d": 7.936508333310485,
      "v": 100
    },
    {
      "midi": 31,
      "hit": false,
      "t": 359047.6369999945,
      "d": 412.69843333330937,
      "v": 112
    },
    {
      "midi": 67,
      "hit": false,
      "t": 359047.63699999865,
      "d": 214.28572500002338,
      "v": 100
    },
    {
      "midi": 59,
      "hit": false,
      "t": 359047.6370000003,
      "d": 436.50795833335724,
      "v": 125
    },
    {
      "midi": 83,
      "hit": false,
      "t": 359047.63700000313,
      "d": 873.0159166666563,
      "v": 120
    },
    {
      "midi": 43,
      "hit": false,
      "t": 359047.6370000032,
      "d": 119.04762500000652,
      "v": 115
    },
    {
      "midi": 50,
      "hit": false,
      "t": 359047.6370000032,
      "d": 119.04762500000652,
      "v": 115
    },
    {
      "midi": 55,
      "hit": false,
      "t": 359047.63700000505,
      "d": 436.50795833335724,
      "v": 115
    },
    {
      "midi": 62,
      "hit": false,
      "t": 359047.63700000505,
      "d": 436.50795833335724,
      "v": 115
    },
    {
      "midi": 54,
      "hit": false,
      "t": 359261.92272499204,
      "d": 7.936508333310485,
      "v": 60
    },
    {
      "midi": 62,
      "hit": false,
      "t": 359285.73224999866,
      "d": 214.28572500002338,
      "v": 100
    },
    {
      "midi": 54,
      "hit": false,
      "t": 359500.017974992,
      "d": 7.936508333310485,
      "v": 65
    },
    {
      "midi": 42,
      "hit": false,
      "t": 359523.827499992,
      "d": 7.936508333310485,
      "v": 100
    },
    {
      "midi": 31,
      "hit": false,
      "t": 359523.8274999945,
      "d": 412.69843333330937,
      "v": 112
    },
    {
      "midi": 62,
      "hit": false,
      "t": 359523.8274999987,
      "d": 214.28572500002338,
      "v": 100
    },
    {
      "midi": 62,
      "hit": false,
      "t": 359523.8275000003,
      "d": 436.50795833335724,
      "v": 125
    },
    {
      "midi": 43,
      "hit": false,
      "t": 359523.8275000032,
      "d": 119.04762500000652,
      "v": 115
    },
    {
      "midi": 50,
      "hit": false,
      "t": 359523.8275000032,
      "d": 119.04762500000652,
      "v": 115
    },
    {
      "midi": 55,
      "hit": false,
      "t": 359523.8275000051,
      "d": 436.50795833335724,
      "v": 115
    },
    {
      "midi": 62,
      "hit": false,
      "t": 359523.8275000051,
      "d": 436.50795833335724,
      "v": 115
    },
    {
      "midi": 54,
      "hit": false,
      "t": 359738.11322499195,
      "d": 7.936508333310485,
      "v": 60
    },
    {
      "midi": 67,
      "hit": false,
      "t": 359761.9227499987,
      "d": 214.28572500002338,
      "v": 100
    },
    {
      "midi": 69,
      "hit": false,
      "t": 359960.33545833285,
      "d": 1825.3969166667084,
      "v": 90
    },
    {
      "midi": 54,
      "hit": false,
      "t": 359976.2084749919,
      "d": 7.936508333310485,
      "v": 100
    },
    {
      "midi": 85,
      "hit": false,
      "t": 359976.20847499935,
      "d": 1880.9524749999982,
      "v": 100
    },
    {
      "midi": 88,
      "hit": false,
      "t": 359976.20847499935,
      "d": 1880.9524749999982,
      "v": 100
    },
    {
      "midi": 97,
      "hit": false,
      "t": 359976.20847499935,
      "d": 1880.9524749999982,
      "v": 100
    },
    {
      "midi": 69,
      "hit": false,
      "t": 359976.20847499993,
      "d": 1880.9524749999982,
      "v": 115
    },
    {
      "midi": 76,
      "hit": false,
      "t": 359976.20847499993,
      "d": 1880.9524749999982,
      "v": 115
    },
    {
      "midi": 57,
      "hit": false,
      "t": 359984.14498333365,
      "d": 436.50795833335724,
      "v": 119
    },
    {
      "midi": 61,
      "hit": false,
      "t": 359984.14498333365,
      "d": 436.50795833335724,
      "v": 119
    },
    {
      "midi": 64,
      "hit": false,
      "t": 359984.14498333365,
      "d": 436.50795833335724,
      "v": 119
    },
    {
      "midi": 40,
      "hit": false,
      "t": 360000.0179999919,
      "d": 7.936508333310485,
      "v": 127
    },
    {
      "midi": 49,
      "hit": false,
      "t": 360000.0179999919,
      "d": 7.936508333310485,
      "v": 115
    },
    {
      "midi": 31,
      "hit": false,
      "t": 360000.01799999445,
      "d": 412.69843333330937,
      "v": 112
    },
    {
      "midi": 64,
      "hit": false,
      "t": 360000.0179999987,
      "d": 214.28572500002338,
      "v": 100
    },
    {
      "midi": 64,
      "hit": false,
      "t": 360000.01800000214,
      "d": 1873.0159666666877,
      "v": 100
    },
    {
      "midi": 71,
      "hit": false,
      "t": 360000.01800000214,
      "d": 1873.0159666666877,
      "v": 100
    },
    {
      "midi": 76,
      "hit": false,
      "t": 360000.01800000214,
      "d": 1873.0159666666877,
      "v": 100
    },
    {
      "midi": 74,
      "hit": false,
      "t": 360000.01800000214,
      "d": 1873.0159666666877,
      "v": 100
    },
    {
      "midi": 67,
      "hit": false,
      "t": 360000.01800000214,
      "d": 1873.0159666666877,
      "v": 100
    },
    {
      "midi": 83,
      "hit": false,
      "t": 360000.0180000031,
      "d": 873.0159166666563,
      "v": 120
    },
    {
      "midi": 43,
      "hit": false,
      "t": 360000.01800000324,
      "d": 119.04762500000652,
      "v": 115
    },
    {
      "midi": 50,
      "hit": false,
      "t": 360000.01800000324,
      "d": 119.04762500000652,
      "v": 115
    },
    {
      "midi": 55,
      "hit": false,
      "t": 360000.0180000051,
      "d": 79.36508333333768,
      "v": 100
    },
    {
      "midi": 64,
      "hit": false,
      "t": 360000.0180000051,
      "d": 79.36508333333768,
      "v": 100
    },
    {
      "midi": 71,
      "hit": false,
      "t": 360015.8910166662,
      "d": 1825.3969166667084,
      "v": 90
    },
    {
      "midi": 73,
      "hit": false,
      "t": 360063.5100666662,
      "d": 1825.3969166667084,
      "v": 90
    },
    {
      "midi": 76,
      "hit": false,
      "t": 360095.25609999953,
      "d": 1825.3969166667084,
      "v": 90
    },
    {
      "midi": 54,
      "hit": false,
      "t": 360214.30372499186,
      "d": 7.936508333310485,
      "v": 60
    },
    {
      "midi": 62,
      "hit": false,
      "t": 360238.1132499987,
      "d": 214.28572500002338,
      "v": 100
    },
    {
      "midi": 54,
      "hit": false,
      "t": 360452.3989749918,
      "d": 7.936508333310485,
      "v": 60
    },
    {
      "midi": 2,
      "hit": false,
      "t": 360476.2084999918,
      "d": 7.936508333310485,
      "v": 120
    },
    {
      "midi": 42,
      "hit": false,
      "t": 360476.2084999918,
      "d": 7.936508333310485,
      "v": 100
    },
    {
      "midi": 31,
      "hit": false,
      "t": 360476.2084999944,
      "d": 412.69843333330937,
      "v": 112
    },
    {
      "midi": 61,
      "hit": false,
      "t": 360476.2084999987,
      "d": 214.28572500002338,
      "v": 100
    },
    {
      "midi": 57,
      "hit": false,
      "t": 360476.20850000036,
      "d": 436.50795833335724,
      "v": 125
    },
    {
      "midi": 43,
      "hit": false,
      "t": 360476.20850000327,
      "d": 119.04762500000652,
      "v": 115
    },
    {
      "midi": 50,
      "hit": false,
      "t": 360476.20850000327,
      "d": 119.04762500000652,
      "v": 115
    },
    {
      "midi": 55,
      "hit": false,
      "t": 360476.20850000513,
      "d": 436.50795833335724,
      "v": 115
    },
    {
      "midi": 64,
      "hit": false,
      "t": 360476.20850000513,
      "d": 436.50795833335724,
      "v": 115
    },
    {
      "midi": 54,
      "hit": false,
      "t": 360690.49422499177,
      "d": 7.936508333310485,
      "v": 60
    },
    {
      "midi": 64,
      "hit": false,
      "t": 360714.30374999874,
      "d": 214.28572500002338,
      "v": 100
    },
    {
      "midi": 54,
      "hit": false,
      "t": 360928.5894749917,
      "d": 7.936508333310485,
      "v": 100
    },
    {
      "midi": 40,
      "hit": false,
      "t": 360952.3989999917,
      "d": 7.936508333310485,
      "v": 127
    },
    {
      "midi": 42,
      "hit": false,
      "t": 360952.3989999917,
      "d": 7.936508333310485,
      "v": 100
    },
    {
      "midi": 33,
      "hit": false,
      "t": 360952.3989999944,
      "d": 412.69843333330937,
      "v": 112
    },
    {
      "midi": 64,
      "hit": false,
      "t": 360952.39899999875,
      "d": 214.28572500002338,
      "v": 100
    },
    {
      "midi": 61,
      "hit": false,
      "t": 360952.3990000004,
      "d": 436.50795833335724,
      "v": 125
    },
    {
      "midi": 85,
      "hit": false,
      "t": 360952.3990000031,
      "d": 436.50795833335724,
      "v": 120
    },
    {
      "midi": 43,
      "hit": false,
      "t": 360952.3990000033,
      "d": 119.04762500000652,
      "v": 115
    },
    {
      "midi": 50,
      "hit": false,
      "t": 360952.3990000033,
      "d": 119.04762500000652,
      "v": 115
    },
    {
      "midi": 64,
      "hit": false,
      "t": 360952.39900000516,
      "d": 436.50795833335724,
      "v": 115
    },
    {
      "midi": 55,
      "hit": false,
      "t": 360952.39900000516,
      "d": 436.50795833335724,
      "v": 115
    },
    {
      "midi": 54,
      "hit": false,
      "t": 361166.6847249917,
      "d": 7.936508333310485,
      "v": 60
    },
    {
      "midi": 61,
      "hit": false,
      "t": 361190.49424999877,
      "d": 214.28572500002338,
      "v": 100
    },
    {
      "midi": 54,
      "hit": false,
      "t": 361404.77997499163,
      "d": 7.936508333310485,
      "v": 60
    },
    {
      "midi": 2,
      "hit": false,
      "t": 361428.5894999916,
      "d": 7.936508333310485,
      "v": 120
    },
    {
      "midi": 42,
      "hit": false,
      "t": 361428.5894999916,
      "d": 7.936508333310485,
      "v": 100
    },
    {
      "midi": 31,
      "hit": false,
      "t": 361428.58949999436,
      "d": 412.69843333330937,
      "v": 112
    },
    {
      "midi": 69,
      "hit": false,
      "t": 361428.5894999988,
      "d": 214.28572500002338,
      "v": 100
    },
    {
      "midi": 64,
      "hit": false,
      "t": 361428.5895000004,
      "d": 436.50795833335724,
      "v": 125
    },
    {
      "midi": 83,
      "hit": false,
      "t": 361428.58950000315,
      "d": 436.50795833335724,
      "v": 120
    },
    {
      "midi": 43,
      "hit": false,
      "t": 361428.5895000033,
      "d": 452.3809750000364,
      "v": 120
    },
    {
      "midi": 50,
      "hit": false,
      "t": 361428.5895000033,
      "d": 452.3809750000364,
      "v": 120
    },
    {
      "midi": 55,
      "hit": false,
      "t": 361428.5895000052,
      "d": 436.50795833335724,
      "v": 115
    },
    {
      "midi": 64,
      "hit": false,
      "t": 361428.5895000052,
      "d": 436.50795833335724,
      "v": 115
    },
    {
      "midi": 54,
      "hit": false,
      "t": 361642.8752249916,
      "d": 7.936508333310485,
      "v": 65
    },
    {
      "midi": 64,
      "hit": false,
      "t": 361666.6847499988,
      "d": 214.28572500002338,
      "v": 100
    },
    {
      "midi": 66,
      "hit": false,
      "t": 361865.0974583329,
      "d": 1825.3969166667084,
      "v": 90
    },
    {
      "midi": 61,
      "hit": false,
      "t": 361873.0339666671,
      "d": 436.50795833335724,
      "v": 119
    },
    {
      "midi": 69,
      "hit": false,
      "t": 361873.0339666671,
      "d": 436.50795833335724,
      "v": 119
    },
    {
      "midi": 66,
      "hit": false,
      "t": 361873.0339666671,
      "d": 436.50795833335724,
      "v": 119
    },
    {
      "midi": 64,
      "hit": false,
      "t": 361873.0339666671,
      "d": 436.50795833335724,
      "v": 119
    },
    {
      "midi": 81,
      "hit": false,
      "t": 361873.0339666698,
      "d": 873.0159166666563,
      "v": 120
    },
    {
      "midi": 85,
      "hit": false,
      "t": 361880.97047499934,
      "d": 952.380999999994,
      "v": 100
    },
    {
      "midi": 97,
      "hit": false,
      "t": 361880.97047499934,
      "d": 952.380999999994,
      "v": 100
    },
    {
      "midi": 69,
      "hit": false,
      "t": 361880.9704749999,
      "d": 1880.9524749999982,
      "v": 115
    },
    {
      "midi": 76,
      "hit": false,
      "t": 361880.9704749999,
      "d": 1880.9524749999982,
      "v": 115
    },
    {
      "midi": 88,
      "hit": false,
      "t": 361880.9704749999,
      "d": 1880.9524749999982,
      "v": 115
    },
    {
      "midi": 2,
      "hit": false,
      "t": 361904.7799999916,
      "d": 7.936508333310485,
      "v": 123
    },
    {
      "midi": 54,
      "hit": false,
      "t": 361904.7799999916,
      "d": 7.936508333310485,
      "v": 100
    },
    {
      "midi": 49,
      "hit": false,
      "t": 361904.7799999916,
      "d": 7.936508333310485,
      "v": 115
    },
    {
      "midi": 40,
      "hit": false,
      "t": 361904.7799999916,
      "d": 7.936508333310485,
      "v": 127
    },
    {
      "midi": 30,
      "hit": false,
      "t": 361904.7799999943,
      "d": 412.69843333330937,
      "v": 118
    },
    {
      "midi": 57,
      "hit": false,
      "t": 361904.7799999988,
      "d": 214.28572500002338,
      "v": 100
    },
    {
      "midi": 61,
      "hit": false,
      "t": 361904.7800000022,
      "d": 1873.0159666666877,
      "v": 100
    },
    {
      "midi": 69,
      "hit": false,
      "t": 361904.7800000022,
      "d": 1873.0159666666877,
      "v": 100
    },
    {
      "midi": 76,
      "hit": false,
      "t": 361904.7800000022,
      "d": 1873.0159666666877,
      "v": 100
    },
    {
      "midi": 73,
      "hit": false,
      "t": 361904.7800000022,
      "d": 1873.0159666666877,
      "v": 100
    },
    {
      "midi": 66,
      "hit": false,
      "t": 361904.7800000022,
      "d": 1873.0159666666877,
      "v": 100
    },
    {
      "midi": 42,
      "hit": false,
      "t": 361904.78000000335,
      "d": 912.6984583333251,
      "v": 120
    },
    {
      "midi": 49,
      "hit": false,
      "t": 361904.78000000335,
      "d": 912.6984583333251,
      "v": 120
    },
    {
      "midi": 54,
      "hit": false,
      "t": 361904.7800000052,
      "d": 436.50795833335724,
      "v": 115
    },
    {
      "midi": 61,
      "hit": false,
      "t": 361904.7800000052,
      "d": 436.50795833335724,
      "v": 115
    },
    {
      "midi": 69,
      "hit": false,
      "t": 361920.65301666624,
      "d": 1825.3969166667084,
      "v": 90
    },
    {
      "midi": 73,
      "hit": false,
      "t": 361968.2720666662,
      "d": 1825.3969166667084,
      "v": 90
    },
    {
      "midi": 76,
      "hit": false,
      "t": 362000.0180999996,
      "d": 1825.3969166667084,
      "v": 90
    },
    {
      "midi": 54,
      "hit": false,
      "t": 362119.06572499155,
      "d": 7.936508333310485,
      "v": 60
    },
    {
      "midi": 69,
      "hit": false,
      "t": 362142.8752499988,
      "d": 214.28572500002338,
      "v": 100
    },
    {
      "midi": 54,
      "hit": false,
      "t": 362357.1609749915,
      "d": 7.936508333310485,
      "v": 60
    },
    {
      "midi": 42,
      "hit": false,
      "t": 362380.9704999915,
      "d": 7.936508333310485,
      "v": 100
    },
    {
      "midi": 30,
      "hit": false,
      "t": 362380.9704999943,
      "d": 412.69843333330937,
      "v": 112
    },
    {
      "midi": 61,
      "hit": false,
      "t": 362380.97049999883,
      "d": 214.28572500002338,
      "v": 100
    },
    {
      "midi": 54,
      "hit": false,
      "t": 362380.97050000046,
      "d": 436.50795833335724,
      "v": 125
    },
    {
      "midi": 54,
      "hit": false,
      "t": 362380.97050000523,
      "d": 79.36508333333768,
      "v": 100
    },
    {
      "midi": 61,
      "hit": false,
      "t": 362380.97050000523,
      "d": 79.36508333333768,
      "v": 100
    },
    {
      "midi": 54,
      "hit": false,
      "t": 362595.25622499146,
      "d": 7.936508333310485,
      "v": 60
    },
    {
      "midi": 57,
      "hit": false,
      "t": 362619.06574999884,
      "d": 214.28572500002338,
      "v": 100
    },
    {
      "midi": 54,
      "hit": false,
      "t": 362833.3514749914,
      "d": 7.936508333310485,
      "v": 100
    },
    {
      "midi": 88,
      "hit": false,
      "t": 362833.35147499933,
      "d": 952.380999999994,
      "v": 100
    },
    {
      "midi": 100,
      "hit": false,
      "t": 362833.35147499933,
      "d": 952.380999999994,
      "v": 100
    },
    {
      "midi": 40,
      "hit": false,
      "t": 362857.1609999914,
      "d": 7.936508333310485,
      "v": 127
    },
    {
      "midi": 42,
      "hit": false,
      "t": 362857.1609999914,
      "d": 7.936508333310485,
      "v": 100
    },
    {
      "midi": 37,
      "hit": false,
      "t": 362857.16099999426,
      "d": 412.69843333330937,
      "v": 112
    },
    {
      "midi": 64,
      "hit": false,
      "t": 362857.16099999886,
      "d": 214.28572500002338,
      "v": 100
    },
    {
      "midi": 57,
      "hit": false,
      "t": 362857.1610000005,
      "d": 436.50795833335724,
      "v": 125
    },
    {
      "midi": 78,
      "hit": false,
      "t": 362857.1610000031,
      "d": 436.50795833335724,
      "v": 120
    },
    {
      "midi": 42,
      "hit": false,
      "t": 362857.16100000334,
      "d": 119.04762500000652,
      "v": 115
    },
    {
      "midi": 49,
      "hit": false,
      "t": 362857.16100000334,
      "d": 119.04762500000652,
      "v": 115
    },
    {
      "midi": 54,
      "hit": false,
      "t": 362857.16100000526,
      "d": 436.50795833335724,
      "v": 115
    },
    {
      "midi": 61,
      "hit": false,
      "t": 362857.16100000526,
      "d": 436.50795833335724,
      "v": 115
    },
    {
      "midi": 54,
      "hit": false,
      "t": 363071.4467249914,
      "d": 7.936508333310485,
      "v": 60
    },
    {
      "midi": 61,
      "hit": false,
      "t": 363095.25624999887,
      "d": 214.28572500002338,
      "v": 100
    },
    {
      "midi": 54,
      "hit": false,
      "t": 363309.5419749913,
      "d": 7.936508333310485,
      "v": 65
    },
    {
      "midi": 42,
      "hit": false,
      "t": 363333.3514999913,
      "d": 7.936508333310485,
      "v": 100
    },
    {
      "midi": 36,
      "hit": false,
      "t": 363333.3514999942,
      "d": 412.69843333330937,
      "v": 112
    },
    {
      "midi": 61,
      "hit": false,
      "t": 363333.3514999989,
      "d": 214.28572500002338,
      "v": 100
    },
    {
      "midi": 61,
      "hit": false,
      "t": 363333.3515000005,
      "d": 436.50795833335724,
      "v": 125
    },
    {
      "midi": 76,
      "hit": false,
      "t": 363333.35150000313,
      "d": 436.50795833335724,
      "v": 120
    },
    {
      "midi": 42,
      "hit": false,
      "t": 363333.35150000337,
      "d": 119.04762500000652,
      "v": 115
    },
    {
      "midi": 49,
      "hit": false,
      "t": 363333.35150000337,
      "d": 119.04762500000652,
      "v": 115
    },
    {
      "midi": 54,
      "hit": false,
      "t": 363333.3515000053,
      "d": 436.50795833335724,
      "v": 115
    },
    {
      "midi": 61,
      "hit": false,
      "t": 363333.3515000053,
      "d": 436.50795833335724,
      "v": 115
    },
    {
      "midi": 54,
      "hit": false,
      "t": 363547.6372249913,
      "d": 7.936508333310485,
      "v": 60
    },
    {
      "midi": 64,
      "hit": false,
      "t": 363571.4467499989,
      "d": 214.28572500002338,
      "v": 100
    },
    {
      "midi": 69,
      "hit": false,
      "t": 363769.85945833294,
      "d": 1825.3969166667084,
      "v": 90
    },
    {
      "midi": 54,
      "hit": false,
      "t": 363785.73247499124,
      "d": 7.936508333310485,
      "v": 100
    },
    {
      "midi": 86,
      "hit": false,
      "t": 363785.7324749993,
      "d": 1880.9524749999982,
      "v": 100
    },
    {
      "midi": 98,
      "hit": false,
      "t": 363785.7324749993,
      "d": 1880.9524749999982,
      "v": 100
    },
    {
      "midi": 71,
      "hit": false,
      "t": 363785.7324749999,
      "d": 1880.9524749999982,
      "v": 115
    },
    {
      "midi": 78,
      "hit": false,
      "t": 363785.7324749999,
      "d": 1880.9524749999982,
      "v": 115
    },
    {
      "midi": 90,
      "hit": false,
      "t": 363785.7324749999,
      "d": 1880.9524749999982,
      "v": 115
    },
    {
      "midi": 57,
      "hit": false,
      "t": 363793.66898333386,
      "d": 634.9206666666432,
      "v": 119
    },
    {
      "midi": 62,
      "hit": false,
      "t": 363793.66898333386,
      "d": 634.9206666666432,
      "v": 119
    },
    {
      "midi": 66,
      "hit": false,
      "t": 363793.66898333386,
      "d": 634.9206666666432,
      "v": 119
    },
    {
      "midi": 40,
      "hit": false,
      "t": 363809.5419999912,
      "d": 7.936508333310485,
      "v": 127
    },
    {
      "midi": 49,
      "hit": false,
      "t": 363809.5419999912,
      "d": 7.936508333310485,
      "v": 115
    },
    {
      "midi": 35,
      "hit": false,
      "t": 363809.5419999942,
      "d": 412.69843333330937,
      "v": 112
    },
    {
      "midi": 66,
      "hit": false,
      "t": 363809.5419999989,
      "d": 214.28572500002338,
      "v": 100
    },
    {
      "midi": 62,
      "hit": false,
      "t": 363809.5420000022,
      "d": 952.380999999994,
      "v": 100
    },
    {
      "midi": 74,
      "hit": false,
      "t": 363809.5420000022,
      "d": 952.380999999994,
      "v": 100
    },
    {
      "midi": 71,
      "hit": false,
      "t": 363809.5420000022,
      "d": 952.380999999994,
      "v": 100
    },
    {
      "midi": 66,
      "hit": false,
      "t": 363809.5420000022,
      "d": 952.380999999994,
      "v": 100
    },
    {
      "midi": 74,
      "hit": false,
      "t": 363809.54200000316,
      "d": 753.9682916666497,
      "v": 120
    },
    {
      "midi": 47,
      "hit": false,
      "t": 363809.5420000034,
      "d": 912.6984583333833,
      "v": 120
    },
    {
      "midi": 54,
      "hit": false,
      "t": 363809.5420000034,
      "d": 912.6984583333833,
      "v": 120
    },
    {
      "midi": 47,
      "hit": false,
      "t": 363809.5420000053,
      "d": 436.50795833335724,
      "v": 115
    },
    {
      "midi": 54,
      "hit": false,
      "t": 363809.5420000053,
      "d": 436.50795833335724,
      "v": 115
    },
    {
      "midi": 71,
      "hit": false,
      "t": 363825.4150166663,
      "d": 1825.3969166667084,
      "v": 90
    },
    {
      "midi": 74,
      "hit": false,
      "t": 363873.03406666627,
      "d": 1825.3969166667084,
      "v": 90
    },
    {
      "midi": 78,
      "hit": false,
      "t": 363904.7800999996,
      "d": 1825.3969166667084,
      "v": 90
    },
    {
      "midi": 54,
      "hit": false,
      "t": 364023.8277249912,
      "d": 7.936508333310485,
      "v": 60
    },
    {
      "midi": 59,
      "hit": false,
      "t": 364047.6372499989,
      "d": 214.28572500002338,
      "v": 100
    },
    {
      "midi": 54,
      "hit": false,
      "t": 364261.92297499115,
      "d": 7.936508333310485,
      "v": 60
    },
    {
      "midi": 2,
      "hit": false,
      "t": 364285.73249999114,
      "d": 7.936508333310485,
      "v": 120
    },
    {
      "midi": 42,
      "hit": false,
      "t": 364285.73249999114,
      "d": 7.936508333310485,
      "v": 100
    },
    {
      "midi": 35,
      "hit": false,
      "t": 364285.73249999416,
      "d": 412.69843333330937,
      "v": 112
    },
    {
      "midi": 62,
      "hit": false,
      "t": 364285.73249999894,
      "d": 214.28572500002338,
      "v": 100
    },
    {
      "midi": 47,
      "hit": false,
      "t": 364285.73250000534,
      "d": 79.36508333333768,
      "v": 100
    },
    {
      "midi": 54,
      "hit": false,
      "t": 364285.73250000534,
      "d": 79.36508333333768,
      "v": 100
    },
    {
      "midi": 54,
      "hit": false,
      "t": 364500.0182249911,
      "d": 7.936508333310485,
      "v": 60
    },
    {
      "midi": 66,
      "hit": false,
      "t": 364523.82774999895,
      "d": 214.28572500002338,
      "v": 100
    },
    {
      "midi": 57,
      "hit": false,
      "t": 364523.8277500005,
      "d": 634.9206666666432,
      "v": 119
    },
    {
      "midi": 61,
      "hit": false,
      "t": 364523.8277500005,
      "d": 634.9206666666432,
      "v": 119
    },
    {
      "midi": 64,
      "hit": false,
      "t": 364523.8277500005,
      "d": 634.9206666666432,
      "v": 119
    },
    {
      "midi": 54,
      "hit": false,
      "t": 364738.11347499106,
      "d": 7.936508333310485,
      "v": 100
    },
    {
      "midi": 40,
      "hit": false,
      "t": 364761.92299999105,
      "d": 7.936508333310485,
      "v": 127
    },
    {
      "midi": 42,
      "hit": false,
      "t": 364761.92299999105,
      "d": 7.936508333310485,
      "v": 100
    },
    {
      "midi": 38,
      "hit": false,
      "t": 364761.92299999413,
      "d": 412.69843333330937,
      "v": 112
    },
    {
      "midi": 66,
      "hit": false,
      "t": 364761.92299999896,
      "d": 214.28572500002338,
      "v": 100
    },
    {
      "midi": 74,
      "hit": false,
      "t": 364761.92300000315,
      "d": 436.50795833335724,
      "v": 118
    },
    {
      "midi": 47,
      "hit": false,
      "t": 364761.92300000344,
      "d": 119.04762500000652,
      "v": 115
    },
    {
      "midi": 54,
      "hit": false,
      "t": 364761.92300000344,
      "d": 119.04762500000652,
      "v": 115
    },
    {
      "midi": 47,
      "hit": false,
      "t": 364761.92300000536,
      "d": 436.50795833335724,
      "v": 115
    },
    {
      "midi": 54,
      "hit": false,
      "t": 364761.92300000536,
      "d": 436.50795833335724,
      "v": 115
    },
    {
      "midi": 54,
      "hit": false,
      "t": 364976.208724991,
      "d": 7.936508333310485,
      "v": 60
    },
    {
      "midi": 62,
      "hit": false,
      "t": 365000.018249999,
      "d": 214.28572500002338,
      "v": 100
    },
    {
      "midi": 54,
      "hit": false,
      "t": 365214.30397499097,
      "d": 7.936508333310485,
      "v": 60
    },
    {
      "midi": 2,
      "hit": false,
      "t": 365238.11349999096,
      "d": 7.936508333310485,
      "v": 120
    },
    {
      "midi": 42,
      "hit": false,
      "t": 365238.11349999096,
      "d": 7.936508333310485,
      "v": 100
    },
    {
      "midi": 39,
      "hit": false,
      "t": 365238.1134999941,
      "d": 412.69843333330937,
      "v": 112
    },
    {
      "midi": 74,
      "hit": false,
      "t": 365238.113499999,
      "d": 214.28572500002338,
      "v": 100
    },
    {
      "midi": 57,
      "hit": false,
      "t": 365238.1135000005,
      "d": 436.50795833335724,
      "v": 119
    },
    {
      "midi": 62,
      "hit": false,
      "t": 365238.1135000005,
      "d": 436.50795833335724,
      "v": 119
    },
    {
      "midi": 66,
      "hit": false,
      "t": 365238.1135000005,
      "d": 436.50795833335724,
      "v": 119
    },
    {
      "midi": 73,
      "hit": false,
      "t": 365238.1135000032,
      "d": 436.50795833335724,
      "v": 116
    },
    {
      "midi": 54,
      "hit": false,
      "t": 365238.11350000347,
      "d": 119.04762500000652,
      "v": 115
    },
    {
      "midi": 47,
      "hit": false,
      "t": 365238.11350000347,
      "d": 119.04762500000652,
      "v": 115
    },
    {
      "midi": 47,
      "hit": false,
      "t": 365238.1135000054,
      "d": 436.50795833335724,
      "v": 115
    },
    {
      "midi": 54,
      "hit": false,
      "t": 365238.1135000054,
      "d": 436.50795833335724,
      "v": 115
    },
    {
      "midi": 54,
      "hit": false,
      "t": 365452.3992249909,
      "d": 7.936508333310485,
      "v": 65
    },
    {
      "midi": 66,
      "hit": false,
      "t": 365476.208749999,
      "d": 214.28572500002338,
      "v": 100
    },
    {
      "midi": 64,
      "hit": false,
      "t": 365674.621458333,
      "d": 2857.14300000004,
      "v": 90
    },
    {
      "midi": 55,
      "hit": false,
      "t": 365682.55796666717,
      "d": 436.50795833335724,
      "v": 119
    },
    {
      "midi": 67,
      "hit": false,
      "t": 365682.55796666717,
      "d": 436.50795833335724,
      "v": 119
    },
    {
      "midi": 59,
      "hit": false,
      "t": 365682.55796666717,
      "d": 436.50795833335724,
      "v": 119
    },
    {
      "midi": 71,
      "hit": false,
      "t": 365682.55796666985,
      "d": 873.0159166666563,
      "v": 118
    },
    {
      "midi": 91,
      "hit": false,
      "t": 365690.4944749993,
      "d": 3809.523999999976,
      "v": 100
    },
    {
      "midi": 95,
      "hit": false,
      "t": 365690.4944749993,
      "d": 3809.523999999976,
      "v": 100
    },
    {
      "midi": 71,
      "hit": false,
      "t": 365690.4944749999,
      "d": 3793.650983333355,
      "v": 115
    },
    {
      "midi": 79,
      "hit": false,
      "t": 365690.4944749999,
      "d": 3793.650983333355,
      "v": 115
    },
    {
      "midi": 83,
      "hit": false,
      "t": 365690.4944749999,
      "d": 3793.650983333355,
      "v": 115
    },
    {
      "midi": 2,
      "hit": false,
      "t": 365714.3039999909,
      "d": 7.936508333310485,
      "v": 123
    },
    {
      "midi": 54,
      "hit": false,
      "t": 365714.3039999909,
      "d": 7.936508333310485,
      "v": 100
    },
    {
      "midi": 49,
      "hit": false,
      "t": 365714.3039999909,
      "d": 7.936508333310485,
      "v": 115
    },
    {
      "midi": 40,
      "hit": false,
      "t": 365714.3039999909,
      "d": 7.936508333310485,
      "v": 127
    },
    {
      "midi": 40,
      "hit": false,
      "t": 365714.30399999407,
      "d": 412.69843333330937,
      "v": 118
    },
    {
      "midi": 59,
      "hit": false,
      "t": 365714.303999999,
      "d": 436.50795833335724,
      "v": 100
    },
    {
      "midi": 55,
      "hit": false,
      "t": 365714.3040000022,
      "d": 3785.7144750000443,
      "v": 100
    },
    {
      "midi": 79,
      "hit": false,
      "t": 365714.3040000022,
      "d": 3785.7144750000443,
      "v": 100
    },
    {
      "midi": 74,
      "hit": false,
      "t": 365714.3040000022,
      "d": 3785.7144750000443,
      "v": 100
    },
    {
      "midi": 71,
      "hit": false,
      "t": 365714.3040000022,
      "d": 3785.7144750000443,
      "v": 100
    },
    {
      "midi": 40,
      "hit": false,
      "t": 365714.3040000035,
      "d": 912.6984583333251,
      "v": 120
    },
    {
      "midi": 47,
      "hit": false,
      "t": 365714.3040000035,
      "d": 912.6984583333251,
      "v": 120
    },
    {
      "midi": 52,
      "hit": false,
      "t": 365714.3040000054,
      "d": 436.50795833335724,
      "v": 115
    },
    {
      "midi": 59,
      "hit": false,
      "t": 365714.3040000054,
      "d": 436.50795833335724,
      "v": 115
    },
    {
      "midi": 67,
      "hit": false,
      "t": 365730.17701666633,
      "d": 2857.14300000004,
      "v": 90
    },
    {
      "midi": 71,
      "hit": false,
      "t": 365777.7960666663,
      "d": 2857.14300000004,
      "v": 90
    },
    {
      "midi": 74,
      "hit": false,
      "t": 365809.5420999997,
      "d": 2857.14300000004,
      "v": 90
    },
    {
      "midi": 54,
      "hit": false,
      "t": 365928.5897249909,
      "d": 7.936508333310485,
      "v": 60
    },
    {
      "midi": 54,
      "hit": false,
      "t": 366166.68497499084,
      "d": 7.936508333310485,
      "v": 60
    },
    {
      "midi": 42,
      "hit": false,
      "t": 366190.49449999083,
      "d": 7.936508333310485,
      "v": 100
    },
    {
      "midi": 40,
      "hit": false,
      "t": 366190.49449999403,
      "d": 412.69843333330937,
      "v": 112
    },
    {
      "midi": 62,
      "hit": false,
      "t": 366190.49449999904,
      "d": 214.28572500002338,
      "v": 100
    },
    {
      "midi": 52,
      "hit": false,
      "t": 366190.49450000055,
      "d": 436.50795833335724,
      "v": 125
    },
    {
      "midi": 52,
      "hit": false,
      "t": 366190.49450000544,
      "d": 79.36508333333768,
      "v": 100
    },
    {
      "midi": 59,
      "hit": false,
      "t": 366190.49450000544,
      "d": 79.36508333333768,
      "v": 100
    },
    {
      "midi": 54,
      "hit": false,
      "t": 366404.7802249908,
      "d": 7.936508333310485,
      "v": 60
    },
    {
      "midi": 59,
      "hit": false,
      "t": 366428.58974999905,
      "d": 214.28572500002338,
      "v": 100
    },
    {
      "midi": 54,
      "hit": false,
      "t": 366642.87547499075,
      "d": 7.936508333310485,
      "v": 100
    },
    {
      "midi": 40,
      "hit": false,
      "t": 366666.68499999074,
      "d": 7.936508333310485,
      "v": 127
    },
    {
      "midi": 42,
      "hit": false,
      "t": 366666.68499999074,
      "d": 7.936508333310485,
      "v": 100
    },
    {
      "midi": 40,
      "hit": false,
      "t": 366666.684999994,
      "d": 412.69843333330937,
      "v": 112
    },
    {
      "midi": 67,
      "hit": false,
      "t": 366666.68499999907,
      "d": 214.28572500002338,
      "v": 100
    },
    {
      "midi": 59,
      "hit": false,
      "t": 366666.6850000006,
      "d": 436.50795833335724,
      "v": 125
    },
    {
      "midi": 40,
      "hit": false,
      "t": 366666.6850000035,
      "d": 119.04762500000652,
      "v": 115
    },
    {
      "midi": 47,
      "hit": false,
      "t": 366666.6850000035,
      "d": 119.04762500000652,
      "v": 115
    },
    {
      "midi": 52,
      "hit": false,
      "t": 366666.68500000547,
      "d": 79.36508333333768,
      "v": 100
    },
    {
      "midi": 59,
      "hit": false,
      "t": 366666.68500000547,
      "d": 79.36508333333768,
      "v": 100
    },
    {
      "midi": 54,
      "hit": false,
      "t": 366880.9707249907,
      "d": 7.936508333310485,
      "v": 60
    },
    {
      "midi": 62,
      "hit": false,
      "t": 366904.7802499991,
      "d": 214.28572500002338,
      "v": 100
    },
    {
      "midi": 54,
      "hit": false,
      "t": 367119.06597499066,
      "d": 7.936508333310485,
      "v": 65
    },
    {
      "midi": 59,
      "hit": false,
      "t": 367127.0024833339,
      "d": 873.0159166666563,
      "v": 119
    },
    {
      "midi": 62,
      "hit": false,
      "t": 367127.0024833339,
      "d": 873.0159166666563,
      "v": 119
    },
    {
      "midi": 67,
      "hit": false,
      "t": 367127.0024833339,
      "d": 873.0159166666563,
      "v": 119
    },
    {
      "midi": 2,
      "hit": false,
      "t": 367142.87549999065,
      "d": 7.936508333310485,
      "v": 120
    },
    {
      "midi": 42,
      "hit": false,
      "t": 367142.87549999065,
      "d": 7.936508333310485,
      "v": 100
    },
    {
      "midi": 40,
      "hit": false,
      "t": 367142.87549999397,
      "d": 412.69843333330937,
      "v": 112
    },
    {
      "midi": 62,
      "hit": false,
      "t": 367142.8754999991,
      "d": 214.28572500002338,
      "v": 100
    },
    {
      "midi": 71,
      "hit": false,
      "t": 367142.87550000317,
      "d": 436.50795833335724,
      "v": 116
    },
    {
      "midi": 40,
      "hit": false,
      "t": 367142.8755000035,
      "d": 119.04762500000652,
      "v": 115
    },
    {
      "midi": 47,
      "hit": false,
      "t": 367142.8755000035,
      "d": 119.04762500000652,
      "v": 115
    },
    {
      "midi": 52,
      "hit": false,
      "t": 367142.8755000055,
      "d": 436.50795833335724,
      "v": 115
    },
    {
      "midi": 59,
      "hit": false,
      "t": 367142.8755000055,
      "d": 436.50795833335724,
      "v": 115
    },
    {
      "midi": 54,
      "hit": false,
      "t": 367357.1612249906,
      "d": 7.936508333310485,
      "v": 60
    },
    {
      "midi": 67,
      "hit": false,
      "t": 367380.9707499991,
      "d": 214.28572500002338,
      "v": 100
    },
    {
      "midi": 54,
      "hit": false,
      "t": 367595.2564749906,
      "d": 7.936508333310485,
      "v": 100
    },
    {
      "midi": 2,
      "hit": false,
      "t": 367619.06599999056,
      "d": 7.936508333310485,
      "v": 120
    },
    {
      "midi": 40,
      "hit": false,
      "t": 367619.06599999056,
      "d": 7.936508333310485,
      "v": 127
    },
    {
      "midi": 42,
      "hit": false,
      "t": 367619.06599999056,
      "d": 7.936508333310485,
      "v": 100
    },
    {
      "midi": 40,
      "hit": false,
      "t": 367619.06599999394,
      "d": 412.69843333330937,
      "v": 112
    },
    {
      "midi": 67,
      "hit": false,
      "t": 367619.0659999991,
      "d": 214.28572500002338,
      "v": 100
    },
    {
      "midi": 74,
      "hit": false,
      "t": 367619.0660000032,
      "d": 873.0159166666563,
      "v": 116
    },
    {
      "midi": 40,
      "hit": false,
      "t": 367619.06600000354,
      "d": 119.04762500000652,
      "v": 115
    },
    {
      "midi": 47,
      "hit": false,
      "t": 367619.06600000354,
      "d": 119.04762500000652,
      "v": 115
    },
    {
      "midi": 52,
      "hit": false,
      "t": 367619.0660000055,
      "d": 79.36508333333768,
      "v": 100
    },
    {
      "midi": 59,
      "hit": false,
      "t": 367619.0660000055,
      "d": 79.36508333333768,
      "v": 100
    },
    {
      "midi": 54,
      "hit": false,
      "t": 367833.3517249905,
      "d": 7.936508333310485,
      "v": 60
    },
    {
      "midi": 62,
      "hit": false,
      "t": 367857.16124999913,
      "d": 214.28572500002338,
      "v": 100
    },
    {
      "midi": 54,
      "hit": false,
      "t": 368071.4469749905,
      "d": 7.936508333310485,
      "v": 60
    },
    {
      "midi": 62,
      "hit": false,
      "t": 368079.3834833339,
      "d": 436.50795833335724,
      "v": 119
    },
    {
      "midi": 67,
      "hit": false,
      "t": 368079.3834833339,
      "d": 436.50795833335724,
      "v": 119
    },
    {
      "midi": 71,
      "hit": false,
      "t": 368079.3834833339,
      "d": 436.50795833335724,
      "v": 119
    },
    {
      "midi": 42,
      "hit": false,
      "t": 368095.2564999905,
      "d": 7.936508333310485,
      "v": 100
    },
    {
      "midi": 35,
      "hit": false,
      "t": 368095.2564999939,
      "d": 412.69843333330937,
      "v": 112
    },
    {
      "midi": 64,
      "hit": false,
      "t": 368095.25649999914,
      "d": 214.28572500002338,
      "v": 100
    },
    {
      "midi": 40,
      "hit": false,
      "t": 368095.25650000357,
      "d": 119.04762500000652,
      "v": 115
    },
    {
      "midi": 47,
      "hit": false,
      "t": 368095.25650000357,
      "d": 119.04762500000652,
      "v": 115
    },
    {
      "midi": 52,
      "hit": false,
      "t": 368095.25650000555,
      "d": 79.36508333333768,
      "v": 100
    },
    {
      "midi": 59,
      "hit": false,
      "t": 368095.25650000555,
      "d": 79.36508333333768,
      "v": 100
    },
    {
      "midi": 54,
      "hit": false,
      "t": 368309.54222499044,
      "d": 7.936508333310485,
      "v": 60
    },
    {
      "midi": 67,
      "hit": false,
      "t": 368333.35174999916,
      "d": 214.28572500002338,
      "v": 100
    },
    {
      "midi": 54,
      "hit": false,
      "t": 368547.6374749904,
      "d": 7.936508333310485,
      "v": 100
    },
    {
      "midi": 62,
      "hit": false,
      "t": 368555.57398333395,
      "d": 873.0159166666563,
      "v": 119
    },
    {
      "midi": 2,
      "hit": false,
      "t": 368571.4469999904,
      "d": 7.936508333310485,
      "v": 120
    },
    {
      "midi": 40,
      "hit": false,
      "t": 368571.4469999904,
      "d": 7.936508333310485,
      "v": 127
    },
    {
      "midi": 42,
      "hit": false,
      "t": 368571.4469999904,
      "d": 7.936508333310485,
      "v": 100
    },
    {
      "midi": 28,
      "hit": false,
      "t": 368571.4469999939,
      "d": 412.69843333330937,
      "v": 112
    },
    {
      "midi": 67,
      "hit": false,
      "t": 368571.44699999917,
      "d": 214.28572500002338,
      "v": 100
    },
    {
      "midi": 79,
      "hit": false,
      "t": 368571.4470000032,
      "d": 912.6984583333251,
      "v": 116
    },
    {
      "midi": 40,
      "hit": false,
      "t": 368571.4470000036,
      "d": 119.04762500000652,
      "v": 115
    },
    {
      "midi": 47,
      "hit": false,
      "t": 368571.4470000036,
      "d": 119.04762500000652,
      "v": 115
    },
    {
      "midi": 52,
      "hit": false,
      "t": 368571.4470000056,
      "d": 436.50795833335724,
      "v": 115
    },
    {
      "midi": 59,
      "hit": false,
      "t": 368571.4470000056,
      "d": 436.50795833335724,
      "v": 115
    },
    {
      "midi": 54,
      "hit": false,
      "t": 368785.73272499035,
      "d": 7.936508333310485,
      "v": 60
    },
    {
      "midi": 64,
      "hit": false,
      "t": 368809.5422499992,
      "d": 214.28572500002338,
      "v": 100
    },
    {
      "midi": 54,
      "hit": false,
      "t": 369023.8279749903,
      "d": 7.936508333310485,
      "v": 60
    },
    {
      "midi": 42,
      "hit": false,
      "t": 369047.6374999903,
      "d": 7.936508333310485,
      "v": 100
    },
    {
      "midi": 31,
      "hit": false,
      "t": 369047.63749999384,
      "d": 412.69843333330937,
      "v": 112
    },
    {
      "midi": 71,
      "hit": false,
      "t": 369047.6374999992,
      "d": 214.28572500002338,
      "v": 100
    },
    {
      "midi": 40,
      "hit": false,
      "t": 369047.6375000036,
      "d": 119.04762500000652,
      "v": 115
    },
    {
      "midi": 47,
      "hit": false,
      "t": 369047.6375000036,
      "d": 119.04762500000652,
      "v": 115
    },
    {
      "midi": 52,
      "hit": false,
      "t": 369047.6375000056,
      "d": 222.22223333333386,
      "v": 100
    },
    {
      "midi": 59,
      "hit": false,
      "t": 369047.6375000056,
      "d": 222.22223333333386,
      "v": 100
    },
    {
      "midi": 54,
      "hit": false,
      "t": 369261.92322499026,
      "d": 7.936508333310485,
      "v": 65
    },
    {
      "midi": 67,
      "hit": false,
      "t": 369285.7327499992,
      "d": 214.28572500002338,
      "v": 100
    },
    {
      "midi": 52,
      "hit": false,
      "t": 369285.7327500056,
      "d": 222.22223333333386,
      "v": 100
    },
    {
      "midi": 59,
      "hit": false,
      "t": 369285.7327500056,
      "d": 222.22223333333386,
      "v": 100
    },
    {
      "midi": 64,
      "hit": false,
      "t": 369484.145458333,
      "d": 2857.14300000004,
      "v": 90
    },
    {
      "midi": 57,
      "hit": false,
      "t": 369492.08196666726,
      "d": 3730.158916666638,
      "v": 119
    },
    {
      "midi": 64,
      "hit": false,
      "t": 369492.08196666726,
      "d": 3730.158916666638,
      "v": 119
    },
    {
      "midi": 61,
      "hit": false,
      "t": 369492.08196666726,
      "d": 3730.158916666638,
      "v": 119
    },
    {
      "midi": 59,
      "hit": false,
      "t": 369492.08196666726,
      "d": 3730.158916666638,
      "v": 119
    },
    {
      "midi": 93,
      "hit": false,
      "t": 369500.0184749993,
      "d": 3809.5240000001504,
      "v": 100
    },
    {
      "midi": 97,
      "hit": false,
      "t": 369500.0184749993,
      "d": 3809.5240000001504,
      "v": 100
    },
    {
      "midi": 73,
      "hit": false,
      "t": 369500.01847499993,
      "d": 3793.6509833334712,
      "v": 115
    },
    {
      "midi": 81,
      "hit": false,
      "t": 369500.01847499993,
      "d": 3793.6509833334712,
      "v": 115
    },
    {
      "midi": 85,
      "hit": false,
      "t": 369500.01847499993,
      "d": 3793.6509833334712,
      "v": 115
    },
    {
      "midi": 2,
      "hit": false,
      "t": 369523.82799999026,
      "d": 7.936508333310485,
      "v": 123
    },
    {
      "midi": 49,
      "hit": false,
      "t": 369523.82799999026,
      "d": 7.936508333310485,
      "v": 115
    },
    {
      "midi": 40,
      "hit": false,
      "t": 369523.82799999026,
      "d": 7.936508333310485,
      "v": 127
    },
    {
      "midi": 33,
      "hit": false,
      "t": 369523.8279999938,
      "d": 412.69843333330937,
      "v": 118
    },
    {
      "midi": 57,
      "hit": false,
      "t": 369523.82800000225,
      "d": 3785.7144750001607,
      "v": 100
    },
    {
      "midi": 76,
      "hit": false,
      "t": 369523.82800000225,
      "d": 3785.7144750001607,
      "v": 100
    },
    {
      "midi": 71,
      "hit": false,
      "t": 369523.82800000225,
      "d": 3785.7144750001607,
      "v": 100
    },
    {
      "midi": 73,
      "hit": false,
      "t": 369523.82800000225,
      "d": 3785.7144750001607,
      "v": 100
    },
    {
      "midi": 78,
      "hit": false,
      "t": 369523.8280000032,
      "d": 1388.8889583333512,
      "v": 116
    },
    {
      "midi": 45,
      "hit": false,
      "t": 369523.82800000365,
      "d": 3793.6509833334712,
      "v": 105
    },
    {
      "midi": 45,
      "hit": false,
      "t": 369523.8280000056,
      "d": 3769.841458333365,
      "v": 100
    },
    {
      "midi": 52,
      "hit": false,
      "t": 369523.8280000056,
      "d": 3769.841458333365,
      "v": 100
    },
    {
      "midi": 69,
      "hit": false,
      "t": 369539.70101666637,
      "d": 2857.14300000004,
      "v": 90
    },
    {
      "midi": 52,
      "hit": false,
      "t": 369539.7010166703,
      "d": 3785.7144750001025,
      "v": 105
    },
    {
      "midi": 71,
      "hit": false,
      "t": 369563.51054166636,
      "d": 2857.14300000004,
      "v": 90
    },
    {
      "midi": 57,
      "hit": false,
      "t": 369563.5105416703,
      "d": 3761.904950000113,
      "v": 105
    },
    {
      "midi": 59,
      "hit": false,
      "t": 369579.383558337,
      "d": 3746.0319333334337,
      "v": 105
    },
    {
      "midi": 73,
      "hit": false,
      "t": 369587.32006666635,
      "d": 2857.14300000004,
      "v": 90
    },
    {
      "midi": 64,
      "hit": false,
      "t": 369595.2565750036,
      "d": 3730.1589166668127,
      "v": 105
    },
    {
      "midi": 76,
      "hit": false,
      "t": 369619.0660999997,
      "d": 2857.14300000004,
      "v": 90
    },
    {
      "midi": 42,
      "hit": false,
      "t": 370000.0184999902,
      "d": 7.936508333310485,
      "v": 100
    },
    {
      "midi": 33,
      "hit": false,
      "t": 370000.0184999938,
      "d": 412.69843333330937,
      "v": 112
    },
    {
      "midi": 40,
      "hit": false,
      "t": 370476.2089999902,
      "d": 7.936508333310485,
      "v": 127
    },
    {
      "midi": 42,
      "hit": false,
      "t": 370476.2089999902,
      "d": 7.936508333310485,
      "v": 100
    },
    {
      "midi": 33,
      "hit": false,
      "t": 370476.20899999375,
      "d": 412.69843333330937,
      "v": 112
    },
    {
      "midi": 2,
      "hit": false,
      "t": 370952.39949999016,
      "d": 7.936508333310485,
      "v": 123
    },
    {
      "midi": 42,
      "hit": false,
      "t": 370952.39949999016,
      "d": 7.936508333310485,
      "v": 100
    },
    {
      "midi": 33,
      "hit": false,
      "t": 370952.3994999937,
      "d": 412.69843333330937,
      "v": 112
    },
    {
      "midi": 79,
      "hit": false,
      "t": 370952.3995000032,
      "d": 238.09525000001304,
      "v": 116
    },
    {
      "midi": 78,
      "hit": false,
      "t": 371190.4947500032,
      "d": 238.09525000001304,
      "v": 116
    },
    {
      "midi": 2,
      "hit": false,
      "t": 371428.58999999013,
      "d": 7.936508333310485,
      "v": 123
    },
    {
      "midi": 48,
      "hit": false,
      "t": 371428.58999999013,
      "d": 7.936508333310485,
      "v": 127
    },
    {
      "midi": 33,
      "hit": false,
      "t": 371428.5899999937,
      "d": 412.69843333330937,
      "v": 112
    },
    {
      "midi": 76,
      "hit": false,
      "t": 371428.5900000032,
      "d": 1388.8889583333512,
      "v": 116
    },
    {
      "midi": 48,
      "hit": false,
      "t": 371666.6852499901,
      "d": 7.936508333310485,
      "v": 127
    },
    {
      "midi": 47,
      "hit": false,
      "t": 371904.78049999004,
      "d": 7.936508333310485,
      "v": 127
    },
    {
      "midi": 33,
      "hit": false,
      "t": 371904.78049999365,
      "d": 412.69843333330937,
      "v": 112
    },
    {
      "midi": 40,
      "hit": false,
      "t": 372380.97099999,
      "d": 7.936508333310485,
      "v": 127
    },
    {
      "midi": 2,
      "hit": false,
      "t": 372380.97099999,
      "d": 7.936508333310485,
      "v": 123
    },
    {
      "midi": 33,
      "hit": false,
      "t": 372380.9709999936,
      "d": 412.69843333330937,
      "v": 112
    },
    {
      "midi": 40,
      "hit": false,
      "t": 372619.06624998996,
      "d": 7.936508333310485,
      "v": 127
    },
    {
      "midi": 40,
      "hit": false,
      "t": 372857.1614999899,
      "d": 7.936508333310485,
      "v": 127
    },
    {
      "midi": 74,
      "hit": false,
      "t": 372857.16150000325,
      "d": 436.50795833335724,
      "v": 116
    },
    {
      "midi": 40,
      "hit": false,
      "t": 373095.2567499899,
      "d": 7.936508333310485,
      "v": 127
    },
    {
      "midi": 2,
      "hit": false,
      "t": 373333.3519999898,
      "d": 7.936508333310485,
      "v": 118
    },
    {
      "midi": 49,
      "hit": false,
      "t": 373333.3519999898,
      "d": 7.936508333310485,
      "v": 115
    },
    {
      "midi": 40,
      "hit": false,
      "t": 373333.3519999898,
      "d": 7.936508333310485,
      "v": 122
    },
    {
      "midi": 54,
      "hit": false,
      "t": 373333.3519999898,
      "d": 7.936508333310485,
      "v": 100
    },
    {
      "midi": 38,
      "hit": false,
      "t": 373333.35200000054,
      "d": 396.8254166666884,
      "v": 101
    },
    {
      "midi": 50,
      "hit": false,
      "t": 373333.35200000054,
      "d": 396.8254166666884,
      "v": 101
    },
    {
      "midi": 66,
      "hit": false,
      "t": 373333.35200000054,
      "d": 634.9206666667014,
      "v": 119
    },
    {
      "midi": 74,
      "hit": false,
      "t": 373333.35200000054,
      "d": 634.9206666667014,
      "v": 119
    },
    {
      "midi": 69,
      "hit": false,
      "t": 373333.35200000054,
      "d": 634.9206666667014,
      "v": 119
    },
    {
      "midi": 62,
      "hit": false,
      "t": 373333.35200000054,
      "d": 634.9206666667014,
      "v": 119
    },
    {
      "midi": 74,
      "hit": false,
      "t": 373333.3520000033,
      "d": 1904.761999999988,
      "v": 116
    },
    {
      "midi": 54,
      "hit": false,
      "t": 373571.4472499898,
      "d": 7.936508333310485,
      "v": 60
    },
    {
      "midi": 54,
      "hit": false,
      "t": 373809.54249998974,
      "d": 7.936508333310485,
      "v": 60
    },
    {
      "midi": 42,
      "hit": false,
      "t": 373809.54249998974,
      "d": 7.936508333310485,
      "v": 100
    },
    {
      "midi": 50,
      "hit": false,
      "t": 373809.54250000056,
      "d": 396.8254166666884,
      "v": 101
    },
    {
      "midi": 54,
      "hit": false,
      "t": 374047.6377499897,
      "d": 7.936508333310485,
      "v": 60
    },
    {
      "midi": 62,
      "hit": false,
      "t": 374047.6377500006,
      "d": 634.9206666667014,
      "v": 119
    },
    {
      "midi": 74,
      "hit": false,
      "t": 374047.6377500006,
      "d": 634.9206666667014,
      "v": 119
    },
    {
      "midi": 54,
      "hit": false,
      "t": 374285.73299998965,
      "d": 7.936508333310485,
      "v": 100
    },
    {
      "midi": 40,
      "hit": false,
      "t": 374285.73299998965,
      "d": 7.936508333310485,
      "v": 122
    },
    {
      "midi": 42,
      "hit": false,
      "t": 374285.73299998965,
      "d": 7.936508333310485,
      "v": 100
    },
    {
      "midi": 50,
      "hit": false,
      "t": 374285.7330000006,
      "d": 206.34921666665468,
      "v": 101
    },
    {
      "midi": 54,
      "hit": false,
      "t": 374523.8282499896,
      "d": 7.936508333310485,
      "v": 60
    },
    {
      "midi": 50,
      "hit": false,
      "t": 374523.8282500006,
      "d": 634.9206666667014,
      "v": 101
    },
    {
      "midi": 38,
      "hit": false,
      "t": 374523.8282500006,
      "d": 634.9206666667014,
      "v": 101
    },
    {
      "midi": 54,
      "hit": false,
      "t": 374761.92349998956,
      "d": 7.936508333310485,
      "v": 60
    },
    {
      "midi": 42,
      "hit": false,
      "t": 374761.92349998956,
      "d": 7.936508333310485,
      "v": 100
    },
    {
      "midi": 62,
      "hit": false,
      "t": 374761.9235000006,
      "d": 206.34921666665468,
      "v": 119
    },
    {
      "midi": 71,
      "hit": false,
      "t": 374761.9235000006,
      "d": 206.34921666665468,
      "v": 119
    },
    {
      "midi": 74,
      "hit": false,
      "t": 374761.9235000006,
      "d": 206.34921666665468,
      "v": 119
    },
    {
      "midi": 67,
      "hit": false,
      "t": 374761.9235000006,
      "d": 206.34921666665468,
      "v": 119
    },
    {
      "midi": 54,
      "hit": false,
      "t": 375000.0187499895,
      "d": 7.936508333310485,
      "v": 60
    },
    {
      "midi": 67,
      "hit": false,
      "t": 375000.0187500006,
      "d": 206.34921666665468,
      "v": 119
    },
    {
      "midi": 71,
      "hit": false,
      "t": 375000.0187500006,
      "d": 206.34921666665468,
      "v": 119
    },
    {
      "midi": 62,
      "hit": false,
      "t": 375000.0187500006,
      "d": 206.34921666665468,
      "v": 119
    },
    {
      "midi": 74,
      "hit": false,
      "t": 375000.0187500006,
      "d": 206.34921666665468,
      "v": 119
    },
    {
      "midi": 54,
      "hit": false,
      "t": 375238.11399998947,
      "d": 7.936508333310485,
      "v": 100
    },
    {
      "midi": 40,
      "hit": false,
      "t": 375238.11399998947,
      "d": 7.936508333310485,
      "v": 122
    },
    {
      "midi": 42,
      "hit": false,
      "t": 375238.11399998947,
      "d": 7.936508333310485,
      "v": 100
    },
    {
      "midi": 50,
      "hit": false,
      "t": 375238.11400000064,
      "d": 396.8254166666884,
      "v": 101
    },
    {
      "midi": 54,
      "hit": false,
      "t": 375476.2092499894,
      "d": 7.936508333310485,
      "v": 60
    },
    {
      "midi": 62,
      "hit": false,
      "t": 375476.20925000065,
      "d": 634.9206666667014,
      "v": 119
    },
    {
      "midi": 66,
      "hit": false,
      "t": 375476.20925000065,
      "d": 634.9206666667014,
      "v": 119
    },
    {
      "midi": 74,
      "hit": false,
      "t": 375476.20925000065,
      "d": 634.9206666667014,
      "v": 119
    },
    {
      "midi": 69,
      "hit": false,
      "t": 375476.20925000065,
      "d": 634.9206666667014,
      "v": 119
    },
    {
      "midi": 72,
      "hit": false,
      "t": 375476.20925000065,
      "d": 634.9206666667014,
      "v": 119
    },
    {
      "midi": 2,
      "hit": false,
      "t": 375714.3044999894,
      "d": 7.936508333310485,
      "v": 117
    },
    {
      "midi": 42,
      "hit": false,
      "t": 375714.3044999894,
      "d": 7.936508333310485,
      "v": 100
    },
    {
      "midi": 54,
      "hit": false,
      "t": 375714.3044999894,
      "d": 7.936508333310485,
      "v": 60
    },
    {
      "midi": 50,
      "hit": false,
      "t": 375714.30450000067,
      "d": 206.34921666665468,
      "v": 101
    },
    {
      "midi": 54,
      "hit": false,
      "t": 375952.39974998933,
      "d": 7.936508333310485,
      "v": 60
    },
    {
      "midi": 50,
      "hit": false,
      "t": 375952.3997500007,
      "d": 396.8254166666884,
      "v": 101
    },
    {
      "midi": 38,
      "hit": false,
      "t": 375952.3997500007,
      "d": 396.8254166666884,
      "v": 101
    },
    {
      "midi": 54,
      "hit": false,
      "t": 376190.4949999893,
      "d": 7.936508333310485,
      "v": 100
    },
    {
      "midi": 40,
      "hit": false,
      "t": 376190.4949999893,
      "d": 7.936508333310485,
      "v": 122
    },
    {
      "midi": 42,
      "hit": false,
      "t": 376190.4949999893,
      "d": 7.936508333310485,
      "v": 100
    },
    {
      "midi": 66,
      "hit": false,
      "t": 376190.4950000007,
      "d": 396.8254166666884,
      "v": 119
    },
    {
      "midi": 74,
      "hit": false,
      "t": 376190.4950000007,
      "d": 396.8254166666884,
      "v": 119
    },
    {
      "midi": 69,
      "hit": false,
      "t": 376190.4950000007,
      "d": 396.8254166666884,
      "v": 119
    },
    {
      "midi": 62,
      "hit": false,
      "t": 376190.4950000007,
      "d": 396.8254166666884,
      "v": 119
    },
    {
      "midi": 54,
      "hit": false,
      "t": 376428.59024998924,
      "d": 7.936508333310485,
      "v": 60
    },
    {
      "midi": 50,
      "hit": false,
      "t": 376428.5902500007,
      "d": 396.8254166666884,
      "v": 101
    },
    {
      "midi": 2,
      "hit": false,
      "t": 376666.6854999892,
      "d": 7.936508333310485,
      "v": 117
    },
    {
      "midi": 42,
      "hit": false,
      "t": 376666.6854999892,
      "d": 7.936508333310485,
      "v": 100
    },
    {
      "midi": 54,
      "hit": false,
      "t": 376666.6854999892,
      "d": 7.936508333310485,
      "v": 60
    },
    {
      "midi": 67,
      "hit": false,
      "t": 376666.6855000007,
      "d": 396.8254166666884,
      "v": 119
    },
    {
      "midi": 62,
      "hit": false,
      "t": 376666.6855000007,
      "d": 396.8254166666884,
      "v": 119
    },
    {
      "midi": 74,
      "hit": false,
      "t": 376666.6855000007,
      "d": 396.8254166666884,
      "v": 119
    },
    {
      "midi": 71,
      "hit": false,
      "t": 376666.6855000007,
      "d": 396.8254166666884,
      "v": 119
    },
    {
      "midi": 54,
      "hit": false,
      "t": 376904.78074998915,
      "d": 7.936508333310485,
      "v": 60
    },
    {
      "midi": 50,
      "hit": false,
      "t": 376904.78075000073,
      "d": 634.9206666667014,
      "v": 101
    },
    {
      "midi": 2,
      "hit": false,
      "t": 377142.8759999891,
      "d": 7.936508333310485,
      "v": 118
    },
    {
      "midi": 42,
      "hit": false,
      "t": 377142.8759999891,
      "d": 7.936508333310485,
      "v": 115
    },
    {
      "midi": 40,
      "hit": false,
      "t": 377142.8759999891,
      "d": 7.936508333310485,
      "v": 122
    },
    {
      "midi": 54,
      "hit": false,
      "t": 377142.8759999891,
      "d": 7.936508333310485,
      "v": 100
    },
    {
      "midi": 69,
      "hit": false,
      "t": 377142.87600000075,
      "d": 634.9206666667014,
      "v": 119
    },
    {
      "midi": 62,
      "hit": false,
      "t": 377142.87600000075,
      "d": 634.9206666667014,
      "v": 119
    },
    {
      "midi": 74,
      "hit": false,
      "t": 377142.87600000075,
      "d": 634.9206666667014,
      "v": 119
    },
    {
      "midi": 72,
      "hit": false,
      "t": 377142.87600000075,
      "d": 634.9206666667014,
      "v": 119
    },
    {
      "midi": 54,
      "hit": false,
      "t": 377380.97124998906,
      "d": 7.936508333310485,
      "v": 60
    },
    {
      "midi": 54,
      "hit": false,
      "t": 377619.066499989,
      "d": 7.936508333310485,
      "v": 60
    },
    {
      "midi": 42,
      "hit": false,
      "t": 377619.066499989,
      "d": 7.936508333310485,
      "v": 100
    },
    {
      "midi": 50,
      "hit": false,
      "t": 377619.0665000008,
      "d": 396.8254166666884,
      "v": 101
    },
    {
      "midi": 54,
      "hit": false,
      "t": 377857.16174998897,
      "d": 7.936508333310485,
      "v": 60
    },
    {
      "midi": 62,
      "hit": false,
      "t": 377857.1617500008,
      "d": 634.9206666667014,
      "v": 119
    },
    {
      "midi": 67,
      "hit": false,
      "t": 377857.1617500008,
      "d": 634.9206666667014,
      "v": 119
    },
    {
      "midi": 74,
      "hit": false,
      "t": 377857.1617500008,
      "d": 634.9206666667014,
      "v": 119
    },
    {
      "midi": 71,
      "hit": false,
      "t": 377857.1617500008,
      "d": 634.9206666667014,
      "v": 119
    },
    {
      "midi": 54,
      "hit": false,
      "t": 378095.2569999889,
      "d": 7.936508333310485,
      "v": 100
    },
    {
      "midi": 40,
      "hit": false,
      "t": 378095.2569999889,
      "d": 7.936508333310485,
      "v": 122
    },
    {
      "midi": 42,
      "hit": false,
      "t": 378095.2569999889,
      "d": 7.936508333310485,
      "v": 100
    },
    {
      "midi": 50,
      "hit": false,
      "t": 378095.2570000008,
      "d": 206.34921666665468,
      "v": 101
    },
    {
      "midi": 54,
      "hit": false,
      "t": 378333.3522499889,
      "d": 7.936508333310485,
      "v": 60
    },
    {
      "midi": 38,
      "hit": false,
      "t": 378333.3522500008,
      "d": 634.9206666667014,
      "v": 101
    },
    {
      "midi": 50,
      "hit": false,
      "t": 378333.3522500008,
      "d": 634.9206666667014,
      "v": 101
    },
    {
      "midi": 54,
      "hit": false,
      "t": 378571.44749998883,
      "d": 7.936508333310485,
      "v": 60
    },
    {
      "midi": 42,
      "hit": false,
      "t": 378571.44749998883,
      "d": 7.936508333310485,
      "v": 100
    },
    {
      "midi": 62,
      "hit": false,
      "t": 378571.4475000008,
      "d": 206.34921666665468,
      "v": 119
    },
    {
      "midi": 69,
      "hit": false,
      "t": 378571.4475000008,
      "d": 206.34921666665468,
      "v": 119
    },
    {
      "midi": 74,
      "hit": false,
      "t": 378571.4475000008,
      "d": 206.34921666665468,
      "v": 119
    },
    {
      "midi": 66,
      "hit": false,
      "t": 378571.4475000008,
      "d": 206.34921666665468,
      "v": 119
    },
    {
      "midi": 54,
      "hit": false,
      "t": 378809.5427499888,
      "d": 7.936508333310485,
      "v": 60
    },
    {
      "midi": 66,
      "hit": false,
      "t": 378809.54275000084,
      "d": 206.34921666665468,
      "v": 119
    },
    {
      "midi": 69,
      "hit": false,
      "t": 378809.54275000084,
      "d": 206.34921666665468,
      "v": 119
    },
    {
      "midi": 62,
      "hit": false,
      "t": 378809.54275000084,
      "d": 206.34921666665468,
      "v": 119
    },
    {
      "midi": 74,
      "hit": false,
      "t": 378809.54275000084,
      "d": 206.34921666665468,
      "v": 119
    },
    {
      "midi": 54,
      "hit": false,
      "t": 379047.63799998874,
      "d": 7.936508333310485,
      "v": 100
    },
    {
      "midi": 40,
      "hit": false,
      "t": 379047.63799998874,
      "d": 7.936508333310485,
      "v": 122
    },
    {
      "midi": 42,
      "hit": false,
      "t": 379047.63799998874,
      "d": 7.936508333310485,
      "v": 100
    },
    {
      "midi": 50,
      "hit": false,
      "t": 379047.63800000085,
      "d": 396.8254166666884,
      "v": 101
    },
    {
      "midi": 54,
      "hit": false,
      "t": 379285.7332499887,
      "d": 7.936508333310485,
      "v": 60
    },
    {
      "midi": 62,
      "hit": false,
      "t": 379285.73325000086,
      "d": 634.9206666667014,
      "v": 119
    },
    {
      "midi": 67,
      "hit": false,
      "t": 379285.73325000086,
      "d": 634.9206666667014,
      "v": 119
    },
    {
      "midi": 74,
      "hit": false,
      "t": 379285.73325000086,
      "d": 634.9206666667014,
      "v": 119
    },
    {
      "midi": 71,
      "hit": false,
      "t": 379285.73325000086,
      "d": 634.9206666667014,
      "v": 119
    },
    {
      "midi": 2,
      "hit": false,
      "t": 379523.82849998865,
      "d": 7.936508333310485,
      "v": 117
    },
    {
      "midi": 42,
      "hit": false,
      "t": 379523.82849998865,
      "d": 7.936508333310485,
      "v": 100
    },
    {
      "midi": 54,
      "hit": false,
      "t": 379523.82849998865,
      "d": 7.936508333310485,
      "v": 60
    },
    {
      "midi": 50,
      "hit": false,
      "t": 379523.8285000009,
      "d": 206.34921666665468,
      "v": 101
    },
    {
      "midi": 54,
      "hit": false,
      "t": 379761.9237499886,
      "d": 7.936508333310485,
      "v": 60
    },
    {
      "midi": 50,
      "hit": false,
      "t": 379761.9237500009,
      "d": 634.9206666667014,
      "v": 101
    },
    {
      "midi": 38,
      "hit": false,
      "t": 379761.9237500009,
      "d": 634.9206666667014,
      "v": 101
    },
    {
      "midi": 54,
      "hit": false,
      "t": 380000.01899998856,
      "d": 7.936508333310485,
      "v": 100
    },
    {
      "midi": 40,
      "hit": false,
      "t": 380000.01899998856,
      "d": 7.936508333310485,
      "v": 122
    },
    {
      "midi": 42,
      "hit": false,
      "t": 380000.01899998856,
      "d": 7.936508333310485,
      "v": 100
    },
    {
      "midi": 66,
      "hit": false,
      "t": 380000.0190000009,
      "d": 857.1429000000353,
      "v": 119
    },
    {
      "midi": 74,
      "hit": false,
      "t": 380000.0190000009,
      "d": 857.1429000000353,
      "v": 119
    },
    {
      "midi": 69,
      "hit": false,
      "t": 380000.0190000009,
      "d": 857.1429000000353,
      "v": 119
    },
    {
      "midi": 62,
      "hit": false,
      "t": 380000.0190000009,
      "d": 857.1429000000353,
      "v": 119
    },
    {
      "midi": 54,
      "hit": false,
      "t": 380238.1142499885,
      "d": 7.936508333310485,
      "v": 60
    },
    {
      "midi": 2,
      "hit": false,
      "t": 380476.2094999885,
      "d": 7.936508333310485,
      "v": 117
    },
    {
      "midi": 42,
      "hit": false,
      "t": 380476.2094999885,
      "d": 7.936508333310485,
      "v": 100
    },
    {
      "midi": 54,
      "hit": false,
      "t": 380476.2094999885,
      "d": 7.936508333310485,
      "v": 60
    },
    {
      "midi": 50,
      "hit": false,
      "t": 380476.2095000009,
      "d": 396.8254166666884,
      "v": 101
    },
    {
      "midi": 54,
      "hit": false,
      "t": 380714.3047499884,
      "d": 7.936508333310485,
      "v": 60
    },
    {
      "midi": 2,
      "hit": false,
      "t": 380952.3999999884,
      "d": 7.936508333310485,
      "v": 118
    },
    {
      "midi": 42,
      "hit": false,
      "t": 380952.3999999884,
      "d": 7.936508333310485,
      "v": 115
    },
    {
      "midi": 40,
      "hit": false,
      "t": 380952.3999999884,
      "d": 7.936508333310485,
      "v": 122
    },
    {
      "midi": 54,
      "hit": false,
      "t": 380952.3999999884,
      "d": 7.936508333310485,
      "v": 100
    },
    {
      "midi": 60,
      "hit": false,
      "t": 380952.40000000095,
      "d": 206.34921666665468,
      "v": 119
    },
    {
      "midi": 69,
      "hit": false,
      "t": 380952.40000000095,
      "d": 206.34921666665468,
      "v": 119
    },
    {
      "midi": 66,
      "hit": false,
      "t": 380952.40000000095,
      "d": 206.34921666665468,
      "v": 119
    },
    {
      "midi": 42,
      "hit": false,
      "t": 380952.40000000095,
      "d": 396.8254166666884,
      "v": 101
    },
    {
      "midi": 54,
      "hit": false,
      "t": 381190.49524998834,
      "d": 7.936508333310485,
      "v": 60
    },
    {
      "midi": 60,
      "hit": false,
      "t": 381190.49525000097,
      "d": 634.9206666667014,
      "v": 119
    },
    {
      "midi": 66,
      "hit": false,
      "t": 381190.49525000097,
      "d": 634.9206666667014,
      "v": 119
    },
    {
      "midi": 69,
      "hit": false,
      "t": 381190.49525000097,
      "d": 634.9206666667014,
      "v": 119
    },
    {
      "midi": 54,
      "hit": false,
      "t": 381428.5904999883,
      "d": 7.936508333310485,
      "v": 60
    },
    {
      "midi": 42,
      "hit": false,
      "t": 381428.5904999883,
      "d": 7.936508333310485,
      "v": 100
    },
    {
      "midi": 42,
      "hit": false,
      "t": 381428.59050000005,
      "d": 1412.6984833333408,
      "v": 105
    },
    {
      "midi": 42,
      "hit": false,
      "t": 381428.590500001,
      "d": 396.8254166666884,
      "v": 101
    },
    {
      "midi": 54,
      "hit": false,
      "t": 381666.68574998825,
      "d": 7.936508333310485,
      "v": 60
    },
    {
      "midi": 54,
      "hit": false,
      "t": 381904.7809999882,
      "d": 7.936508333310485,
      "v": 100
    },
    {
      "midi": 40,
      "hit": false,
      "t": 381904.7809999882,
      "d": 7.936508333310485,
      "v": 122
    },
    {
      "midi": 42,
      "hit": false,
      "t": 381904.7809999882,
      "d": 7.936508333310485,
      "v": 100
    },
    {
      "midi": 59,
      "hit": false,
      "t": 381904.781000001,
      "d": 206.34921666665468,
      "v": 119
    },
    {
      "midi": 69,
      "hit": false,
      "t": 381904.781000001,
      "d": 206.34921666665468,
      "v": 119
    },
    {
      "midi": 62,
      "hit": false,
      "t": 381904.781000001,
      "d": 206.34921666665468,
      "v": 119
    },
    {
      "midi": 31,
      "hit": false,
      "t": 381904.781000001,
      "d": 396.8254166666884,
      "v": 101
    },
    {
      "midi": 54,
      "hit": false,
      "t": 382142.87624998816,
      "d": 7.936508333310485,
      "v": 60
    },
    {
      "midi": 59,
      "hit": false,
      "t": 382142.876250001,
      "d": 634.9206666667014,
      "v": 119
    },
    {
      "midi": 62,
      "hit": false,
      "t": 382142.876250001,
      "d": 634.9206666667014,
      "v": 119
    },
    {
      "midi": 69,
      "hit": false,
      "t": 382142.876250001,
      "d": 634.9206666667014,
      "v": 119
    },
    {
      "midi": 54,
      "hit": false,
      "t": 382380.9714999881,
      "d": 7.936508333310485,
      "v": 60
    },
    {
      "midi": 42,
      "hit": false,
      "t": 382380.9714999881,
      "d": 7.936508333310485,
      "v": 100
    },
    {
      "midi": 43,
      "hit": false,
      "t": 382380.97150000103,
      "d": 396.8254166666884,
      "v": 101
    },
    {
      "midi": 54,
      "hit": false,
      "t": 382619.06674998807,
      "d": 7.936508333310485,
      "v": 60
    },
    {
      "midi": 54,
      "hit": false,
      "t": 382857.161999988,
      "d": 7.936508333310485,
      "v": 100
    },
    {
      "midi": 40,
      "hit": false,
      "t": 382857.161999988,
      "d": 7.936508333310485,
      "v": 122
    },
    {
      "midi": 42,
      "hit": false,
      "t": 382857.161999988,
      "d": 7.936508333310485,
      "v": 100
    },
    {
      "midi": 32,
      "hit": false,
      "t": 382857.16200000007,
      "d": 1888.8889833333087,
      "v": 105
    },
    {
      "midi": 56,
      "hit": false,
      "t": 382857.16200000106,
      "d": 206.34921666665468,
      "v": 119
    },
    {
      "midi": 59,
      "hit": false,
      "t": 382857.16200000106,
      "d": 206.34921666665468,
      "v": 119
    },
    {
      "midi": 65,
      "hit": false,
      "t": 382857.16200000106,
      "d": 206.34921666665468,
      "v": 119
    },
    {
      "midi": 62,
      "hit": false,
      "t": 382857.16200000106,
      "d": 206.34921666665468,
      "v": 119
    },
    {
      "midi": 32,
      "hit": false,
      "t": 382857.16200000106,
      "d": 396.8254166666884,
      "v": 101
    },
    {
      "midi": 54,
      "hit": false,
      "t": 383095.257249988,
      "d": 7.936508333310485,
      "v": 60
    },
    {
      "midi": 56,
      "hit": false,
      "t": 383095.2572500011,
      "d": 634.9206666667014,
      "v": 119
    },
    {
      "midi": 65,
      "hit": false,
      "t": 383095.2572500011,
      "d": 634.9206666667014,
      "v": 119
    },
    {
      "midi": 62,
      "hit": false,
      "t": 383095.2572500011,
      "d": 634.9206666667014,
      "v": 119
    },
    {
      "midi": 59,
      "hit": false,
      "t": 383095.2572500011,
      "d": 634.9206666667014,
      "v": 119
    },
    {
      "midi": 2,
      "hit": false,
      "t": 383333.35249998793,
      "d": 7.936508333310485,
      "v": 117
    },
    {
      "midi": 42,
      "hit": false,
      "t": 383333.35249998793,
      "d": 7.936508333310485,
      "v": 100
    },
    {
      "midi": 54,
      "hit": false,
      "t": 383333.35249998793,
      "d": 7.936508333310485,
      "v": 60
    },
    {
      "midi": 44,
      "hit": false,
      "t": 383333.3525000011,
      "d": 396.8254166666884,
      "v": 101
    },
    {
      "midi": 54,
      "hit": false,
      "t": 383571.4477499879,
      "d": 7.936508333310485,
      "v": 60
    },
    {
      "midi": 54,
      "hit": false,
      "t": 383809.54299998784,
      "d": 7.936508333310485,
      "v": 100
    },
    {
      "midi": 40,
      "hit": false,
      "t": 383809.54299998784,
      "d": 7.936508333310485,
      "v": 122
    },
    {
      "midi": 42,
      "hit": false,
      "t": 383809.54299998784,
      "d": 7.936508333310485,
      "v": 100
    },
    {
      "midi": 55,
      "hit": false,
      "t": 383809.5430000011,
      "d": 206.34921666665468,
      "v": 119
    },
    {
      "midi": 59,
      "hit": false,
      "t": 383809.5430000011,
      "d": 206.34921666665468,
      "v": 119
    },
    {
      "midi": 64,
      "hit": false,
      "t": 383809.5430000011,
      "d": 206.34921666665468,
      "v": 119
    },
    {
      "midi": 61,
      "hit": false,
      "t": 383809.5430000011,
      "d": 206.34921666665468,
      "v": 119
    },
    {
      "midi": 33,
      "hit": false,
      "t": 383809.5430000011,
      "d": 396.8254166666884,
      "v": 101
    },
    {
      "midi": 54,
      "hit": false,
      "t": 384047.6382499878,
      "d": 7.936508333310485,
      "v": 60
    },
    {
      "midi": 55,
      "hit": false,
      "t": 384047.6382500011,
      "d": 634.9206666667014,
      "v": 119
    },
    {
      "midi": 64,
      "hit": false,
      "t": 384047.6382500011,
      "d": 634.9206666667014,
      "v": 119
    },
    {
      "midi": 61,
      "hit": false,
      "t": 384047.6382500011,
      "d": 634.9206666667014,
      "v": 119
    },
    {
      "midi": 59,
      "hit": false,
      "t": 384047.6382500011,
      "d": 634.9206666667014,
      "v": 119
    },
    {
      "midi": 2,
      "hit": false,
      "t": 384285.73349998775,
      "d": 7.936508333310485,
      "v": 117
    },
    {
      "midi": 42,
      "hit": false,
      "t": 384285.73349998775,
      "d": 7.936508333310485,
      "v": 100
    },
    {
      "midi": 54,
      "hit": false,
      "t": 384285.73349998775,
      "d": 7.936508333310485,
      "v": 60
    },
    {
      "midi": 45,
      "hit": false,
      "t": 384285.73350000114,
      "d": 396.8254166666884,
      "v": 101
    },
    {
      "midi": 54,
      "hit": false,
      "t": 384523.8287499877,
      "d": 7.936508333310485,
      "v": 60
    },
    {
      "midi": 2,
      "hit": false,
      "t": 384761.92399998766,
      "d": 7.936508333310485,
      "v": 118
    },
    {
      "midi": 54,
      "hit": false,
      "t": 384761.92399998766,
      "d": 7.936508333310485,
      "v": 100
    },
    {
      "midi": 47,
      "hit": false,
      "t": 384761.92399998766,
      "d": 7.936508333310485,
      "v": 122
    },
    {
      "midi": 38,
      "hit": false,
      "t": 384761.92400000006,
      "d": 1904.761999999988,
      "v": 105
    },
    {
      "midi": 38,
      "hit": false,
      "t": 384761.92400000116,
      "d": 396.8254166666884,
      "v": 101
    },
    {
      "midi": 66,
      "hit": false,
      "t": 384761.92400000116,
      "d": 634.9206666667014,
      "v": 119
    },
    {
      "midi": 62,
      "hit": false,
      "t": 384761.92400000116,
      "d": 634.9206666667014,
      "v": 119
    },
    {
      "midi": 74,
      "hit": false,
      "t": 384761.92400000116,
      "d": 634.9206666667014,
      "v": 119
    },
    {
      "midi": 69,
      "hit": false,
      "t": 384761.92400000116,
      "d": 634.9206666667014,
      "v": 119
    },
    {
      "midi": 54,
      "hit": false,
      "t": 385000.0192499876,
      "d": 7.936508333310485,
      "v": 60
    },
    {
      "midi": 54,
      "hit": false,
      "t": 385238.11449998757,
      "d": 7.936508333310485,
      "v": 60
    },
    {
      "midi": 38,
      "hit": false,
      "t": 385238.11449998757,
      "d": 7.936508333310485,
      "v": 122
    },
    {
      "midi": 38,
      "hit": false,
      "t": 385238.1145000012,
      "d": 396.8254166666884,
      "v": 101
    },
    {
      "midi": 38,
      "hit": false,
      "t": 385396.8446666542,
      "d": 7.936508333310485,
      "v": 122
    },
    {
      "midi": 54,
      "hit": false,
      "t": 385476.2097499875,
      "d": 7.936508333310485,
      "v": 60
    },
    {
      "midi": 62,
      "hit": false,
      "t": 385476.2097500012,
      "d": 634.9206666667014,
      "v": 119
    },
    {
      "midi": 67,
      "hit": false,
      "t": 385476.2097500012,
      "d": 634.9206666667014,
      "v": 119
    },
    {
      "midi": 74,
      "hit": false,
      "t": 385476.2097500012,
      "d": 634.9206666667014,
      "v": 119
    },
    {
      "midi": 71,
      "hit": false,
      "t": 385476.2097500012,
      "d": 634.9206666667014,
      "v": 119
    },
    {
      "midi": 38,
      "hit": false,
      "t": 385555.57483332086,
      "d": 7.936508333310485,
      "v": 122
    },
    {
      "midi": 54,
      "hit": false,
      "t": 385714.3049999875,
      "d": 7.936508333310485,
      "v": 100
    },
    {
      "midi": 38,
      "hit": false,
      "t": 385714.3049999875,
      "d": 7.936508333310485,
      "v": 122
    },
    {
      "midi": 38,
      "hit": false,
      "t": 385714.3050000012,
      "d": 206.34921666665468,
      "v": 101
    },
    {
      "midi": 54,
      "hit": false,
      "t": 385952.40024998743,
      "d": 7.936508333310485,
      "v": 60
    },
    {
      "midi": 38,
      "hit": false,
      "t": 385952.4002500012,
      "d": 396.8254166666884,
      "v": 101
    },
    {
      "midi": 54,
      "hit": false,
      "t": 386190.4954999874,
      "d": 7.936508333310485,
      "v": 60
    },
    {
      "midi": 43,
      "hit": false,
      "t": 386190.4954999874,
      "d": 7.936508333310485,
      "v": 122
    },
    {
      "midi": 2,
      "hit": false,
      "t": 386190.4954999874,
      "d": 7.936508333310485,
      "v": 117
    },
    {
      "midi": 66,
      "hit": false,
      "t": 386190.49550000124,
      "d": 396.8254166666884,
      "v": 119
    },
    {
      "midi": 62,
      "hit": false,
      "t": 386190.49550000124,
      "d": 396.8254166666884,
      "v": 119
    },
    {
      "midi": 74,
      "hit": false,
      "t": 386190.49550000124,
      "d": 396.8254166666884,
      "v": 119
    },
    {
      "midi": 69,
      "hit": false,
      "t": 386190.49550000124,
      "d": 396.8254166666884,
      "v": 119
    },
    {
      "midi": 54,
      "hit": false,
      "t": 386428.59074998734,
      "d": 7.936508333310485,
      "v": 60
    },
    {
      "midi": 38,
      "hit": false,
      "t": 386428.59075000125,
      "d": 206.34921666665468,
      "v": 101
    },
    {
      "midi": 54,
      "hit": false,
      "t": 386666.6859999873,
      "d": 7.936508333310485,
      "v": 100
    },
    {
      "midi": 38,
      "hit": false,
      "t": 386666.6859999873,
      "d": 7.936508333310485,
      "v": 122
    },
    {
      "midi": 84,
      "hit": false,
      "t": 386746.0510833346,
      "d": 95.23810000001686,
      "v": 77
    },
    {
      "midi": 83,
      "hit": false,
      "t": 386809.54315000126,
      "d": 87.30159166670637,
      "v": 83
    },
    {
      "midi": 38,
      "hit": false,
      "t": 386825.4161666539,
      "d": 7.936508333310485,
      "v": 122
    },
    {
      "midi": 81,
      "hit": false,
      "t": 386857.1622000013,
      "d": 103.17460833332734,
      "v": 94
    },
    {
      "midi": 54,
      "hit": false,
      "t": 386904.78124998725,
      "d": 7.936508333310485,
      "v": 60
    },
    {
      "midi": 79,
      "hit": false,
      "t": 386912.71775833465,
      "d": 134.9206416666275,
      "v": 89
    },
    {
      "midi": 38,
      "hit": false,
      "t": 386984.1463333206,
      "d": 7.936508333310485,
      "v": 122
    },
    {
      "midi": 77,
      "hit": false,
      "t": 386984.1463333346,
      "d": 150.79365833336487,
      "v": 65
    },
    {
      "midi": 76,
      "hit": false,
      "t": 387063.51141666796,
      "d": 134.9206416666857,
      "v": 74
    },
    {
      "midi": 54,
      "hit": false,
      "t": 387142.8764999872,
      "d": 7.936508333310485,
      "v": 60
    },
    {
      "midi": 38,
      "hit": false,
      "t": 387142.8764999872,
      "d": 7.936508333310485,
      "v": 122
    },
    {
      "midi": 74,
      "hit": false,
      "t": 387142.8765000013,
      "d": 119.04762500000652,
      "v": 80
    },
    {
      "midi": 72,
      "hit": false,
      "t": 387214.3050750013,
      "d": 111.11111666663783,
      "v": 81
    },
    {
      "midi": 71,
      "hit": false,
      "t": 387277.797141668,
      "d": 95.23809999995865,
      "v": 89
    },
    {
      "midi": 69,
      "hit": false,
      "t": 387325.41619166796,
      "d": 111.11111666663783,
      "v": 95
    },
    {
      "midi": 54,
      "hit": false,
      "t": 387380.97174998716,
      "d": 7.936508333310485,
      "v": 60
    },
    {
      "midi": 67,
      "hit": false,
      "t": 387388.9082583346,
      "d": 95.23809999995865,
      "v": 89
    },
    {
      "midi": 65,
      "hit": false,
      "t": 387444.4638166679,
      "d": 103.17460833332734,
      "v": 89
    },
    {
      "midi": 64,
      "hit": false,
      "t": 387492.0828666679,
      "d": 119.04762500000652,
      "v": 94
    },
    {
      "midi": 62,
      "hit": false,
      "t": 387547.63842500123,
      "d": 119.04762500000652,
      "v": 95
    },
    {
      "midi": 60,
      "hit": false,
      "t": 387611.1304916679,
      "d": 111.11111666669603,
      "v": 94
    },
    {
      "midi": 54,
      "hit": false,
      "t": 387619.0669999871,
      "d": 7.936508333310485,
      "v": 100
    },
    {
      "midi": 40,
      "hit": false,
      "t": 387619.0669999871,
      "d": 7.936508333310485,
      "v": 122
    },
    {
      "midi": 59,
      "hit": false,
      "t": 387666.68605000124,
      "d": 103.17460833332734,
      "v": 95
    },
    {
      "midi": 57,
      "hit": false,
      "t": 387730.1781166679,
      "d": 103.17460833332734,
      "v": 103
    },
    {
      "midi": 55,
      "hit": false,
      "t": 387793.67018333456,
      "d": 95.23809999995865,
      "v": 95
    },
    {
      "midi": 53,
      "hit": false,
      "t": 387841.28923333454,
      "d": 95.23809999995865,
      "v": 95
    },
    {
      "midi": 54,
      "hit": false,
      "t": 387857.1622499871,
      "d": 7.936508333310485,
      "v": 60
    },
    {
      "midi": 40,
      "hit": false,
      "t": 387857.1622499871,
      "d": 7.936508333310485,
      "v": 122
    },
    {
      "midi": 52,
      "hit": false,
      "t": 387896.8447916678,
      "d": 87.30159166670637,
      "v": 103
    },
    {
      "midi": 50,
      "hit": false,
      "t": 387952.4003500012,
      "d": 79.36508333333768,
      "v": 103
    },
    {
      "midi": 48,
      "hit": false,
      "t": 387992.08289166784,
      "d": 119.04762500000652,
      "v": 106
    },
    {
      "midi": 54,
      "hit": false,
      "t": 388095.257499987,
      "d": 7.936508333310485,
      "v": 60
    },
    {
      "midi": 2,
      "hit": false,
      "t": 388095.257499987,
      "d": 7.936508333310485,
      "v": 118
    },
    {
      "midi": 43,
      "hit": false,
      "t": 388095.257499987,
      "d": 7.936508333310485,
      "v": 122
    },
    {
      "midi": 47,
      "hit": false,
      "t": 388103.19400833454,
      "d": 365.07938333333004,
      "v": 77
    },
    {
      "midi": 45,
      "hit": false,
      "t": 388166.6860750012,
      "d": 309.523824999982,
      "v": 47
    },
    {
      "midi": 54,
      "hit": false,
      "t": 388333.352749987,
      "d": 7.936508333310485,
      "v": 60
    },
    {
      "midi": 61,
      "hit": false,
      "t": 388531.76545833715,
      "d": 1904.762000000046,
      "v": 127
    },
    {
      "midi": 65,
      "hit": false,
      "t": 388531.76545833715,
      "d": 1904.762000000046,
      "v": 87
    },
    {
      "midi": 2,
      "hit": false,
      "t": 388571.44799998694,
      "d": 7.936508333310485,
      "v": 118
    },
    {
      "midi": 49,
      "hit": false,
      "t": 388571.44799998694,
      "d": 7.936508333310485,
      "v": 115
    },
    {
      "midi": 40,
      "hit": false,
      "t": 388571.44799998694,
      "d": 7.936508333310485,
      "v": 122
    },
    {
      "midi": 54,
      "hit": false,
      "t": 388571.44799998694,
      "d": 7.936508333310485,
      "v": 100
    },
    {
      "midi": 30,
      "hit": false,
      "t": 388571.4479999936,
      "d": 412.69843333330937,
      "v": 118
    },
    {
      "midi": 66,
      "hit": false,
      "t": 388571.4479999992,
      "d": 436.50795833335724,
      "v": 100
    },
    {
      "midi": 73,
      "hit": false,
      "t": 388571.4479999994,
      "d": 1880.9524749999982,
      "v": 100
    },
    {
      "midi": 58,
      "hit": false,
      "t": 388571.4480000001,
      "d": 1880.9524749999982,
      "v": 115
    },
    {
      "midi": 66,
      "hit": false,
      "t": 388571.4480000001,
      "d": 1880.9524749999982,
      "v": 115
    },
    {
      "midi": 58,
      "hit": false,
      "t": 388571.44800000114,
      "d": 873.0159166666563,
      "v": 119
    },
    {
      "midi": 54,
      "hit": false,
      "t": 388571.44800000114,
      "d": 873.0159166666563,
      "v": 119
    },
    {
      "midi": 61,
      "hit": false,
      "t": 388571.44800000114,
      "d": 873.0159166666563,
      "v": 119
    },
    {
      "midi": 42,
      "hit": false,
      "t": 388571.4480000056,
      "d": 436.50795833335724,
      "v": 115
    },
    {
      "midi": 49,
      "hit": false,
      "t": 388571.4480000056,
      "d": 436.50795833335724,
      "v": 115
    },
    {
      "midi": 54,
      "hit": false,
      "t": 388809.5432499869,
      "d": 7.936508333310485,
      "v": 60
    },
    {
      "midi": 54,
      "hit": false,
      "t": 389047.63849998685,
      "d": 7.936508333310485,
      "v": 60
    },
    {
      "midi": 42,
      "hit": false,
      "t": 389047.63849998685,
      "d": 7.936508333310485,
      "v": 100
    },
    {
      "midi": 30,
      "hit": false,
      "t": 389047.63849999354,
      "d": 412.69843333330937,
      "v": 112
    },
    {
      "midi": 54,
      "hit": false,
      "t": 389047.63849999924,
      "d": 214.28572500002338,
      "v": 100
    },
    {
      "midi": 42,
      "hit": false,
      "t": 389047.63850000565,
      "d": 79.36508333333768,
      "v": 100
    },
    {
      "midi": 49,
      "hit": false,
      "t": 389047.63850000565,
      "d": 79.36508333333768,
      "v": 100
    },
    {
      "midi": 54,
      "hit": false,
      "t": 389285.7337499868,
      "d": 7.936508333310485,
      "v": 60
    },
    {
      "midi": 66,
      "hit": false,
      "t": 389285.73374999926,
      "d": 214.28572500002338,
      "v": 100
    },
    {
      "midi": 54,
      "hit": false,
      "t": 389523.82899998676,
      "d": 7.936508333310485,
      "v": 100
    },
    {
      "midi": 40,
      "hit": false,
      "t": 389523.82899998676,
      "d": 7.936508333310485,
      "v": 122
    },
    {
      "midi": 42,
      "hit": false,
      "t": 389523.82899998676,
      "d": 7.936508333310485,
      "v": 100
    },
    {
      "midi": 30,
      "hit": false,
      "t": 389523.8289999935,
      "d": 412.69843333330937,
      "v": 112
    },
    {
      "midi": 61,
      "hit": false,
      "t": 389523.82899999927,
      "d": 214.28572500002338,
      "v": 100
    },
    {
      "midi": 54,
      "hit": false,
      "t": 389523.82900000113,
      "d": 396.8254166666884,
      "v": 124
    },
    {
      "midi": 42,
      "hit": false,
      "t": 389523.8290000057,
      "d": 436.50795833335724,
      "v": 115
    },
    {
      "midi": 49,
      "hit": false,
      "t": 389523.8290000057,
      "d": 436.50795833335724,
      "v": 115
    },
    {
      "midi": 54,
      "hit": false,
      "t": 389761.9242499867,
      "d": 7.936508333310485,
      "v": 60
    },
    {
      "midi": 54,
      "hit": false,
      "t": 389761.9242499993,
      "d": 214.28572500002338,
      "v": 100
    },
    {
      "midi": 54,
      "hit": false,
      "t": 390000.01949998667,
      "d": 7.936508333310485,
      "v": 60
    },
    {
      "midi": 42,
      "hit": false,
      "t": 390000.01949998667,
      "d": 7.936508333310485,
      "v": 100
    },
    {
      "midi": 30,
      "hit": false,
      "t": 390000.0194999935,
      "d": 412.69843333330937,
      "v": 112
    },
    {
      "midi": 66,
      "hit": false,
      "t": 390000.0194999993,
      "d": 214.28572500002338,
      "v": 100
    },
    {
      "midi": 58,
      "hit": false,
      "t": 390000.01950000116,
      "d": 396.8254166666884,
      "v": 124
    },
    {
      "midi": 42,
      "hit": false,
      "t": 390000.0195000057,
      "d": 436.50795833335724,
      "v": 115
    },
    {
      "midi": 49,
      "hit": false,
      "t": 390000.0195000057,
      "d": 436.50795833335724,
      "v": 115
    },
    {
      "midi": 54,
      "hit": false,
      "t": 390238.1147499866,
      "d": 7.936508333310485,
      "v": 60
    },
    {
      "midi": 61,
      "hit": false,
      "t": 390238.1147499993,
      "d": 214.28572500002338,
      "v": 100
    },
    {
      "midi": 54,
      "hit": false,
      "t": 390476.2099999866,
      "d": 7.936508333310485,
      "v": 100
    },
    {
      "midi": 40,
      "hit": false,
      "t": 390476.2099999866,
      "d": 7.936508333310485,
      "v": 122
    },
    {
      "midi": 42,
      "hit": false,
      "t": 390476.2099999866,
      "d": 7.936508333310485,
      "v": 100
    },
    {
      "midi": 32,
      "hit": false,
      "t": 390476.20999999344,
      "d": 412.69843333330937,
      "v": 118
    },
    {
      "midi": 68,
      "hit": false,
      "t": 390476.2099999993,
      "d": 214.28572500002338,
      "v": 100
    },
    {
      "midi": 75,
      "hit": false,
      "t": 390476.2099999994,
      "d": 936.5079833333148,
      "v": 100
    },
    {
      "midi": 60,
      "hit": false,
      "t": 390476.2100000001,
      "d": 1880.9524749999982,
      "v": 115
    },
    {
      "midi": 68,
      "hit": false,
      "t": 390476.2100000001,
      "d": 1880.9524749999982,
      "v": 115
    },
    {
      "midi": 56,
      "hit": false,
      "t": 390476.2100000012,
      "d": 873.0159166666563,
      "v": 119
    },
    {
      "midi": 60,
      "hit": false,
      "t": 390476.2100000012,
      "d": 873.0159166666563,
      "v": 119
    },
    {
      "midi": 63,
      "hit": false,
      "t": 390476.2100000012,
      "d": 873.0159166666563,
      "v": 119
    },
    {
      "midi": 66,
      "hit": false,
      "t": 390476.21000000386,
      "d": 920.6349666666938,
      "v": 91
    },
    {
      "midi": 63,
      "hit": false,
      "t": 390476.21000000386,
      "d": 936.507983333373,
      "v": 127
    },
    {
      "midi": 44,
      "hit": false,
      "t": 390476.2100000057,
      "d": 436.50795833335724,
      "v": 115
    },
    {
      "midi": 51,
      "hit": false,
      "t": 390476.2100000057,
      "d": 436.50795833335724,
      "v": 115
    },
    {
      "midi": 54,
      "hit": false,
      "t": 390714.30524998653,
      "d": 7.936508333310485,
      "v": 60
    },
    {
      "midi": 66,
      "hit": false,
      "t": 390714.30524999934,
      "d": 214.28572500002338,
      "v": 100
    },
    {
      "midi": 2,
      "hit": false,
      "t": 390952.4004999865,
      "d": 7.936508333310485,
      "v": 117
    },
    {
      "midi": 42,
      "hit": false,
      "t": 390952.4004999865,
      "d": 7.936508333310485,
      "v": 100
    },
    {
      "midi": 54,
      "hit": false,
      "t": 390952.4004999865,
      "d": 7.936508333310485,
      "v": 60
    },
    {
      "midi": 32,
      "hit": false,
      "t": 390952.4004999934,
      "d": 412.69843333330937,
      "v": 112
    },
    {
      "midi": 56,
      "hit": false,
      "t": 390952.40049999935,
      "d": 214.28572500002338,
      "v": 100
    },
    {
      "midi": 44,
      "hit": false,
      "t": 390952.40050000575,
      "d": 79.36508333333768,
      "v": 100
    },
    {
      "midi": 51,
      "hit": false,
      "t": 390952.40050000575,
      "d": 79.36508333333768,
      "v": 100
    },
    {
      "midi": 54,
      "hit": false,
      "t": 391190.49574998644,
      "d": 7.936508333310485,
      "v": 60
    },
    {
      "midi": 68,
      "hit": false,
      "t": 391190.49574999936,
      "d": 214.28572500002338,
      "v": 100
    },
    {
      "midi": 54,
      "hit": false,
      "t": 391428.5909999864,
      "d": 7.936508333310485,
      "v": 100
    },
    {
      "midi": 40,
      "hit": false,
      "t": 391428.5909999864,
      "d": 7.936508333310485,
      "v": 122
    },
    {
      "midi": 42,
      "hit": false,
      "t": 391428.5909999864,
      "d": 7.936508333310485,
      "v": 100
    },
    {
      "midi": 32,
      "hit": false,
      "t": 391428.5909999934,
      "d": 412.69843333330937,
      "v": 112
    },
    {
      "midi": 73,
      "hit": false,
      "t": 391428.5909999994,
      "d": 452.3809749999782,
      "v": 100
    },
    {
      "midi": 63,
      "hit": false,
      "t": 391428.5909999994,
      "d": 214.28572500002338,
      "v": 100
    },
    {
      "midi": 56,
      "hit": false,
      "t": 391428.5910000012,
      "d": 396.8254166666884,
      "v": 124
    },
    {
      "midi": 61,
      "hit": false,
      "t": 391428.5910000039,
      "d": 476.1905000000261,
      "v": 127
    },
    {
      "midi": 44,
      "hit": false,
      "t": 391428.5910000058,
      "d": 436.50795833335724,
      "v": 115
    },
    {
      "midi": 51,
      "hit": false,
      "t": 391428.5910000058,
      "d": 436.50795833335724,
      "v": 115
    },
    {
      "midi": 54,
      "hit": false,
      "t": 391666.68624998635,
      "d": 7.936508333310485,
      "v": 60
    },
    {
      "midi": 56,
      "hit": false,
      "t": 391666.6862499994,
      "d": 214.28572500002338,
      "v": 100
    },
    {
      "midi": 2,
      "hit": false,
      "t": 391904.7814999863,
      "d": 7.936508333310485,
      "v": 117
    },
    {
      "midi": 42,
      "hit": false,
      "t": 391904.7814999863,
      "d": 7.936508333310485,
      "v": 100
    },
    {
      "midi": 54,
      "hit": false,
      "t": 391904.7814999863,
      "d": 7.936508333310485,
      "v": 60
    },
    {
      "midi": 32,
      "hit": false,
      "t": 391904.78149999335,
      "d": 412.69843333330937,
      "v": 112
    },
    {
      "midi": 75,
      "hit": false,
      "t": 391904.78149999934,
      "d": 452.3809749999782,
      "v": 100
    },
    {
      "midi": 68,
      "hit": false,
      "t": 391904.7814999994,
      "d": 214.28572500002338,
      "v": 100
    },
    {
      "midi": 61,
      "hit": false,
      "t": 391904.7815000012,
      "d": 396.8254166666884,
      "v": 124
    },
    {
      "midi": 63,
      "hit": false,
      "t": 391904.78150000394,
      "d": 476.19049999990966,
      "v": 127
    },
    {
      "midi": 44,
      "hit": false,
      "t": 391904.7815000058,
      "d": 436.50795833335724,
      "v": 115
    },
    {
      "midi": 51,
      "hit": false,
      "t": 391904.7815000058,
      "d": 436.50795833335724,
      "v": 115
    },
    {
      "midi": 54,
      "hit": false,
      "t": 392142.87674998626,
      "d": 7.936508333310485,
      "v": 60
    },
    {
      "midi": 63,
      "hit": false,
      "t": 392142.8767499994,
      "d": 214.28572500002338,
      "v": 100
    },
    {
      "midi": 65,
      "hit": false,
      "t": 392349.22596667055,
      "d": 1880.9524749999982,
      "v": 127
    },
    {
      "midi": 2,
      "hit": false,
      "t": 392380.9719999862,
      "d": 7.936508333310485,
      "v": 118
    },
    {
      "midi": 42,
      "hit": false,
      "t": 392380.9719999862,
      "d": 7.936508333310485,
      "v": 115
    },
    {
      "midi": 40,
      "hit": false,
      "t": 392380.9719999862,
      "d": 7.936508333310485,
      "v": 122
    },
    {
      "midi": 54,
      "hit": false,
      "t": 392380.9719999862,
      "d": 7.936508333310485,
      "v": 100
    },
    {
      "midi": 34,
      "hit": false,
      "t": 392380.9719999933,
      "d": 412.69843333330937,
      "v": 118
    },
    {
      "midi": 77,
      "hit": false,
      "t": 392380.9719999993,
      "d": 2357.1429750000243,
      "v": 100
    },
    {
      "midi": 70,
      "hit": false,
      "t": 392380.9719999994,
      "d": 214.28572500002338,
      "v": 100
    },
    {
      "midi": 61,
      "hit": false,
      "t": 392380.97200000007,
      "d": 3793.650983333355,
      "v": 115
    },
    {
      "midi": 68,
      "hit": false,
      "t": 392380.97200000007,
      "d": 3793.650983333355,
      "v": 115
    },
    {
      "midi": 56,
      "hit": false,
      "t": 392380.97200000123,
      "d": 634.9206666666432,
      "v": 119
    },
    {
      "midi": 61,
      "hit": false,
      "t": 392380.97200000123,
      "d": 634.9206666666432,
      "v": 119
    },
    {
      "midi": 65,
      "hit": false,
      "t": 392380.97200000123,
      "d": 634.9206666666432,
      "v": 119
    },
    {
      "midi": 70,
      "hit": false,
      "t": 392380.97200000385,
      "d": 1880.9524750000564,
      "v": 87
    },
    {
      "midi": 46,
      "hit": false,
      "t": 392380.97200000583,
      "d": 436.50795833335724,
      "v": 115
    },
    {
      "midi": 53,
      "hit": false,
      "t": 392380.97200000583,
      "d": 436.50795833335724,
      "v": 115
    },
    {
      "midi": 54,
      "hit": false,
      "t": 392619.06724998617,
      "d": 7.936508333310485,
      "v": 60
    },
    {
      "midi": 68,
      "hit": false,
      "t": 392619.06724999944,
      "d": 214.28572500002338,
      "v": 100
    },
    {
      "midi": 54,
      "hit": false,
      "t": 392857.1624999861,
      "d": 7.936508333310485,
      "v": 60
    },
    {
      "midi": 42,
      "hit": false,
      "t": 392857.1624999861,
      "d": 7.936508333310485,
      "v": 100
    },
    {
      "midi": 34,
      "hit": false,
      "t": 392857.1624999933,
      "d": 412.69843333330937,
      "v": 112
    },
    {
      "midi": 58,
      "hit": false,
      "t": 392857.16249999945,
      "d": 214.28572500002338,
      "v": 100
    },
    {
      "midi": 46,
      "hit": false,
      "t": 392857.16250000586,
      "d": 79.36508333333768,
      "v": 100
    },
    {
      "midi": 53,
      "hit": false,
      "t": 392857.16250000586,
      "d": 79.36508333333768,
      "v": 100
    },
    {
      "midi": 54,
      "hit": false,
      "t": 393095.2577499861,
      "d": 7.936508333310485,
      "v": 60
    },
    {
      "midi": 70,
      "hit": false,
      "t": 393095.25774999947,
      "d": 214.28572500002338,
      "v": 100
    },
    {
      "midi": 56,
      "hit": false,
      "t": 393095.2577500012,
      "d": 634.9206666666432,
      "v": 119
    },
    {
      "midi": 60,
      "hit": false,
      "t": 393095.2577500012,
      "d": 634.9206666666432,
      "v": 119
    },
    {
      "midi": 63,
      "hit": false,
      "t": 393095.2577500012,
      "d": 634.9206666666432,
      "v": 119
    },
    {
      "midi": 54,
      "hit": false,
      "t": 393333.35299998603,
      "d": 7.936508333310485,
      "v": 100
    },
    {
      "midi": 40,
      "hit": false,
      "t": 393333.35299998603,
      "d": 7.936508333310485,
      "v": 122
    },
    {
      "midi": 42,
      "hit": false,
      "t": 393333.35299998603,
      "d": 7.936508333310485,
      "v": 100
    },
    {
      "midi": 34,
      "hit": false,
      "t": 393333.35299999325,
      "d": 412.69843333330937,
      "v": 112
    },
    {
      "midi": 63,
      "hit": false,
      "t": 393333.3529999995,
      "d": 214.28572500002338,
      "v": 100
    },
    {
      "midi": 46,
      "hit": false,
      "t": 393333.3530000059,
      "d": 79.36508333333768,
      "v": 100
    },
    {
      "midi": 53,
      "hit": false,
      "t": 393333.3530000059,
      "d": 79.36508333333768,
      "v": 100
    },
    {
      "midi": 54,
      "hit": false,
      "t": 393571.448249986,
      "d": 7.936508333310485,
      "v": 60
    },
    {
      "midi": 58,
      "hit": false,
      "t": 393571.4482499995,
      "d": 214.28572500002338,
      "v": 100
    },
    {
      "midi": 54,
      "hit": false,
      "t": 393809.54349998594,
      "d": 7.936508333310485,
      "v": 60
    },
    {
      "midi": 42,
      "hit": false,
      "t": 393809.54349998594,
      "d": 7.936508333310485,
      "v": 100
    },
    {
      "midi": 34,
      "hit": false,
      "t": 393809.5434999932,
      "d": 412.69843333330937,
      "v": 112
    },
    {
      "midi": 65,
      "hit": false,
      "t": 393809.5434999995,
      "d": 214.28572500002338,
      "v": 100
    },
    {
      "midi": 53,
      "hit": false,
      "t": 393809.5435000012,
      "d": 873.0159166666563,
      "v": 119
    },
    {
      "midi": 58,
      "hit": false,
      "t": 393809.5435000012,
      "d": 873.0159166666563,
      "v": 119
    },
    {
      "midi": 61,
      "hit": false,
      "t": 393809.5435000012,
      "d": 873.0159166666563,
      "v": 119
    },
    {
      "midi": 46,
      "hit": false,
      "t": 393809.5435000059,
      "d": 436.50795833335724,
      "v": 115
    },
    {
      "midi": 53,
      "hit": false,
      "t": 393809.5435000059,
      "d": 436.50795833335724,
      "v": 115
    },
    {
      "midi": 54,
      "hit": false,
      "t": 394047.6387499859,
      "d": 7.936508333310485,
      "v": 60
    },
    {
      "midi": 63,
      "hit": false,
      "t": 394047.6387499995,
      "d": 214.28572500002338,
      "v": 100
    },
    {
      "midi": 54,
      "hit": false,
      "t": 394285.73399998585,
      "d": 7.936508333310485,
      "v": 100
    },
    {
      "midi": 40,
      "hit": false,
      "t": 394285.73399998585,
      "d": 7.936508333310485,
      "v": 122
    },
    {
      "midi": 42,
      "hit": false,
      "t": 394285.73399998585,
      "d": 7.936508333310485,
      "v": 100
    },
    {
      "midi": 34,
      "hit": false,
      "t": 394285.7339999932,
      "d": 412.69843333330937,
      "v": 112
    },
    {
      "midi": 70,
      "hit": false,
      "t": 394285.73399999953,
      "d": 214.28572500002338,
      "v": 100
    },
    {
      "midi": 70,
      "hit": false,
      "t": 394285.7340000039,
      "d": 476.1905000000261,
      "v": 127
    },
    {
      "midi": 73,
      "hit": false,
      "t": 394285.7340000039,
      "d": 476.1905000000261,
      "v": 90
    },
    {
      "midi": 46,
      "hit": false,
      "t": 394285.73400000593,
      "d": 79.36508333333768,
      "v": 100
    },
    {
      "midi": 53,
      "hit": false,
      "t": 394285.73400000593,
      "d": 79.36508333333768,
      "v": 100
    },
    {
      "midi": 54,
      "hit": false,
      "t": 394523.8292499858,
      "d": 7.936508333310485,
      "v": 60
    },
    {
      "midi": 65,
      "hit": false,
      "t": 394523.82924999954,
      "d": 214.28572500002338,
      "v": 100
    },
    {
      "midi": 46,
      "hit": false,
      "t": 394523.82925000595,
      "d": 79.36508333333768,
      "v": 100
    },
    {
      "midi": 53,
      "hit": false,
      "t": 394523.82925000595,
      "d": 79.36508333333768,
      "v": 100
    },
    {
      "midi": 2,
      "hit": false,
      "t": 394761.92449998576,
      "d": 7.936508333310485,
      "v": 117
    },
    {
      "midi": 42,
      "hit": false,
      "t": 394761.92449998576,
      "d": 7.936508333310485,
      "v": 100
    },
    {
      "midi": 54,
      "hit": false,
      "t": 394761.92449998576,
      "d": 7.936508333310485,
      "v": 60
    },
    {
      "midi": 34,
      "hit": false,
      "t": 394761.92449999315,
      "d": 412.69843333330937,
      "v": 112
    },
    {
      "midi": 77,
      "hit": false,
      "t": 394761.9244999993,
      "d": 452.3809749999782,
      "v": 100
    },
    {
      "midi": 61,
      "hit": false,
      "t": 394761.92449999956,
      "d": 214.28572500002338,
      "v": 100
    },
    {
      "midi": 58,
      "hit": false,
      "t": 394761.9245000012,
      "d": 198.4127083333442,
      "v": 119
    },
    {
      "midi": 70,
      "hit": false,
      "t": 394761.9245000012,
      "d": 198.4127083333442,
      "v": 119
    },
    {
      "midi": 68,
      "hit": false,
      "t": 394761.9245000039,
      "d": 158.73016666667536,
      "v": 127
    },
    {
      "midi": 72,
      "hit": false,
      "t": 394761.9245000039,
      "d": 158.73016666667536,
      "v": 90
    },
    {
      "midi": 46,
      "hit": false,
      "t": 394761.92450000596,
      "d": 79.36508333333768,
      "v": 100
    },
    {
      "midi": 53,
      "hit": false,
      "t": 394761.92450000596,
      "d": 79.36508333333768,
      "v": 100
    },
    {
      "midi": 70,
      "hit": false,
      "t": 394920.6546666706,
      "d": 158.73016666667536,
      "v": 127
    },
    {
      "midi": 73,
      "hit": false,
      "t": 394920.6546666706,
      "d": 158.73016666667536,
      "v": 90
    },
    {
      "midi": 54,
      "hit": false,
      "t": 395000.0197499857,
      "d": 7.936508333310485,
      "v": 60
    },
    {
      "midi": 70,
      "hit": false,
      "t": 395000.01974999957,
      "d": 214.28572500002338,
      "v": 100
    },
    {
      "midi": 58,
      "hit": false,
      "t": 395000.0197500012,
      "d": 198.4127083333442,
      "v": 119
    },
    {
      "midi": 70,
      "hit": false,
      "t": 395000.0197500012,
      "d": 198.4127083333442,
      "v": 119
    },
    {
      "midi": 68,
      "hit": false,
      "t": 395079.3848333373,
      "d": 158.73016666667536,
      "v": 127
    },
    {
      "midi": 72,
      "hit": false,
      "t": 395079.3848333373,
      "d": 158.73016666667536,
      "v": 90
    },
    {
      "midi": 54,
      "hit": false,
      "t": 395238.1149999857,
      "d": 7.936508333310485,
      "v": 100
    },
    {
      "midi": 40,
      "hit": false,
      "t": 395238.1149999857,
      "d": 7.936508333310485,
      "v": 122
    },
    {
      "midi": 42,
      "hit": false,
      "t": 395238.1149999857,
      "d": 7.936508333310485,
      "v": 100
    },
    {
      "midi": 37,
      "hit": false,
      "t": 395238.1149999931,
      "d": 412.69843333330937,
      "v": 112
    },
    {
      "midi": 78,
      "hit": false,
      "t": 395238.1149999993,
      "d": 452.3809749999782,
      "v": 100
    },
    {
      "midi": 65,
      "hit": false,
      "t": 395238.1149999996,
      "d": 214.28572500002338,
      "v": 100
    },
    {
      "midi": 66,
      "hit": false,
      "t": 395238.11500000395,
      "d": 476.1905000000261,
      "v": 127
    },
    {
      "midi": 70,
      "hit": false,
      "t": 395238.11500000395,
      "d": 476.1905000000261,
      "v": 90
    },
    {
      "midi": 46,
      "hit": false,
      "t": 395238.115000006,
      "d": 436.50795833335724,
      "v": 115
    },
    {
      "midi": 53,
      "hit": false,
      "t": 395238.115000006,
      "d": 436.50795833335724,
      "v": 115
    },
    {
      "midi": 54,
      "hit": false,
      "t": 395476.2102499856,
      "d": 7.936508333310485,
      "v": 60
    },
    {
      "midi": 61,
      "hit": false,
      "t": 395476.2102499996,
      "d": 214.28572500002338,
      "v": 100
    },
    {
      "midi": 58,
      "hit": false,
      "t": 395476.2102500012,
      "d": 634.9206666666432,
      "v": 119
    },
    {
      "midi": 70,
      "hit": false,
      "t": 395476.2102500012,
      "d": 634.9206666666432,
      "v": 119
    },
    {
      "midi": 2,
      "hit": false,
      "t": 395714.3054999856,
      "d": 7.936508333310485,
      "v": 117
    },
    {
      "midi": 42,
      "hit": false,
      "t": 395714.3054999856,
      "d": 7.936508333310485,
      "v": 100
    },
    {
      "midi": 54,
      "hit": false,
      "t": 395714.3054999856,
      "d": 7.936508333310485,
      "v": 60
    },
    {
      "midi": 38,
      "hit": false,
      "t": 395714.3054999931,
      "d": 412.69843333330937,
      "v": 112
    },
    {
      "midi": 80,
      "hit": false,
      "t": 395714.30549999926,
      "d": 452.3809749999782,
      "v": 100
    },
    {
      "midi": 70,
      "hit": false,
      "t": 395714.3054999996,
      "d": 214.28572500002338,
      "v": 100
    },
    {
      "midi": 65,
      "hit": false,
      "t": 395714.305500004,
      "d": 476.1905000000261,
      "v": 127
    },
    {
      "midi": 68,
      "hit": false,
      "t": 395714.305500004,
      "d": 476.1905000000261,
      "v": 90
    },
    {
      "midi": 46,
      "hit": false,
      "t": 395714.305500006,
      "d": 436.50795833335724,
      "v": 115
    },
    {
      "midi": 53,
      "hit": false,
      "t": 395714.305500006,
      "d": 436.50795833335724,
      "v": 115
    },
    {
      "midi": 54,
      "hit": false,
      "t": 395952.40074998554,
      "d": 7.936508333310485,
      "v": 60
    },
    {
      "midi": 65,
      "hit": false,
      "t": 395952.4007499996,
      "d": 214.28572500002338,
      "v": 100
    },
    {
      "midi": 2,
      "hit": false,
      "t": 396190.4959999855,
      "d": 7.936508333310485,
      "v": 118
    },
    {
      "midi": 42,
      "hit": false,
      "t": 396190.4959999855,
      "d": 7.936508333310485,
      "v": 115
    },
    {
      "midi": 40,
      "hit": false,
      "t": 396190.4959999855,
      "d": 7.936508333310485,
      "v": 122
    },
    {
      "midi": 54,
      "hit": false,
      "t": 396190.4959999855,
      "d": 7.936508333310485,
      "v": 100
    },
    {
      "midi": 39,
      "hit": false,
      "t": 396190.49599999306,
      "d": 412.69843333330937,
      "v": 118
    },
    {
      "midi": 82,
      "hit": false,
      "t": 396190.4959999992,
      "d": 1880.9524749999982,
      "v": 100
    },
    {
      "midi": 66,
      "hit": false,
      "t": 396190.49599999964,
      "d": 214.28572500002338,
      "v": 100
    },
    {
      "midi": 66,
      "hit": false,
      "t": 396190.4960000001,
      "d": 1880.9524749999982,
      "v": 115
    },
    {
      "midi": 73,
      "hit": false,
      "t": 396190.4960000001,
      "d": 1880.9524749999982,
      "v": 115
    },
    {
      "midi": 58,
      "hit": false,
      "t": 396190.4960000012,
      "d": 873.0159166666563,
      "v": 119
    },
    {
      "midi": 54,
      "hit": false,
      "t": 396190.4960000012,
      "d": 873.0159166666563,
      "v": 119
    },
    {
      "midi": 61,
      "hit": false,
      "t": 396190.4960000012,
      "d": 873.0159166666563,
      "v": 119
    },
    {
      "midi": 70,
      "hit": false,
      "t": 396190.496000004,
      "d": 1880.9524750000564,
      "v": 127
    },
    {
      "midi": 73,
      "hit": false,
      "t": 396190.496000004,
      "d": 1880.9524750000564,
      "v": 87
    },
    {
      "midi": 51,
      "hit": false,
      "t": 396190.49600000604,
      "d": 436.50795833335724,
      "v": 115
    },
    {
      "midi": 58,
      "hit": false,
      "t": 396190.49600000604,
      "d": 436.50795833335724,
      "v": 115
    },
    {
      "midi": 54,
      "hit": false,
      "t": 396428.59124998545,
      "d": 7.936508333310485,
      "v": 60
    },
    {
      "midi": 70,
      "hit": false,
      "t": 396428.59124999965,
      "d": 214.28572500002338,
      "v": 100
    },
    {
      "midi": 54,
      "hit": false,
      "t": 396666.6864999854,
      "d": 7.936508333310485,
      "v": 60
    },
    {
      "midi": 42,
      "hit": false,
      "t": 396666.6864999854,
      "d": 7.936508333310485,
      "v": 100
    },
    {
      "midi": 39,
      "hit": false,
      "t": 396666.686499993,
      "d": 412.69843333330937,
      "v": 112
    },
    {
      "midi": 58,
      "hit": false,
      "t": 396666.68649999966,
      "d": 214.28572500002338,
      "v": 100
    },
    {
      "midi": 51,
      "hit": false,
      "t": 396666.68650000606,
      "d": 79.36508333333768,
      "v": 100
    },
    {
      "midi": 58,
      "hit": false,
      "t": 396666.68650000606,
      "d": 79.36508333333768,
      "v": 100
    },
    {
      "midi": 54,
      "hit": false,
      "t": 396904.78174998536,
      "d": 7.936508333310485,
      "v": 60
    },
    {
      "midi": 66,
      "hit": false,
      "t": 396904.7817499997,
      "d": 214.28572500002338,
      "v": 100
    },
    {
      "midi": 54,
      "hit": false,
      "t": 397142.8769999853,
      "d": 7.936508333310485,
      "v": 100
    },
    {
      "midi": 40,
      "hit": false,
      "t": 397142.8769999853,
      "d": 7.936508333310485,
      "v": 122
    },
    {
      "midi": 42,
      "hit": false,
      "t": 397142.8769999853,
      "d": 7.936508333310485,
      "v": 100
    },
    {
      "midi": 39,
      "hit": false,
      "t": 397142.876999993,
      "d": 412.69843333330937,
      "v": 112
    },
    {
      "midi": 61,
      "hit": false,
      "t": 397142.8769999997,
      "d": 214.28572500002338,
      "v": 100
    },
    {
      "midi": 54,
      "hit": false,
      "t": 397142.8770000012,
      "d": 396.8254166666884,
      "v": 124
    },
    {
      "midi": 51,
      "hit": false,
      "t": 397142.8770000061,
      "d": 436.50795833335724,
      "v": 115
    },
    {
      "midi": 58,
      "hit": false,
      "t": 397142.8770000061,
      "d": 436.50795833335724,
      "v": 115
    },
    {
      "midi": 54,
      "hit": false,
      "t": 397380.97224998527,
      "d": 7.936508333310485,
      "v": 60
    },
    {
      "midi": 58,
      "hit": false,
      "t": 397380.9722499997,
      "d": 214.28572500002338,
      "v": 100
    },
    {
      "midi": 54,
      "hit": false,
      "t": 397619.0674999852,
      "d": 7.936508333310485,
      "v": 60
    },
    {
      "midi": 42,
      "hit": false,
      "t": 397619.0674999852,
      "d": 7.936508333310485,
      "v": 100
    },
    {
      "midi": 39,
      "hit": false,
      "t": 397619.06749999296,
      "d": 412.69843333330937,
      "v": 112
    },
    {
      "midi": 66,
      "hit": false,
      "t": 397619.0674999997,
      "d": 214.28572500002338,
      "v": 100
    },
    {
      "midi": 58,
      "hit": false,
      "t": 397619.0675000012,
      "d": 396.8254166666884,
      "v": 124
    },
    {
      "midi": 51,
      "hit": false,
      "t": 397619.0675000061,
      "d": 79.36508333333768,
      "v": 100
    },
    {
      "midi": 58,
      "hit": false,
      "t": 397619.0675000061,
      "d": 79.36508333333768,
      "v": 100
    },
    {
      "midi": 54,
      "hit": false,
      "t": 397857.1627499852,
      "d": 7.936508333310485,
      "v": 60
    },
    {
      "midi": 61,
      "hit": false,
      "t": 397857.1627499997,
      "d": 214.28572500002338,
      "v": 100
    },
    {
      "midi": 58,
      "hit": false,
      "t": 397857.16275000613,
      "d": 79.36508333333768,
      "v": 100
    },
    {
      "midi": 51,
      "hit": false,
      "t": 397857.16275000613,
      "d": 79.36508333333768,
      "v": 100
    },
    {
      "midi": 54,
      "hit": false,
      "t": 398095.25799998513,
      "d": 7.936508333310485,
      "v": 100
    },
    {
      "midi": 40,
      "hit": false,
      "t": 398095.25799998513,
      "d": 7.936508333310485,
      "v": 122
    },
    {
      "midi": 42,
      "hit": false,
      "t": 398095.25799998513,
      "d": 7.936508333310485,
      "v": 100
    },
    {
      "midi": 32,
      "hit": false,
      "t": 398095.25799999293,
      "d": 412.69843333330937,
      "v": 118
    },
    {
      "midi": 80,
      "hit": false,
      "t": 398095.2579999992,
      "d": 936.5079833333148,
      "v": 100
    },
    {
      "midi": 68,
      "hit": false,
      "t": 398095.25799999974,
      "d": 214.28572500002338,
      "v": 100
    },
    {
      "midi": 66,
      "hit": false,
      "t": 398095.2580000001,
      "d": 952.380999999994,
      "v": 115
    },
    {
      "midi": 72,
      "hit": false,
      "t": 398095.2580000001,
      "d": 952.380999999994,
      "v": 115
    },
    {
      "midi": 56,
      "hit": false,
      "t": 398095.25800000125,
      "d": 873.0159166666563,
      "v": 119
    },
    {
      "midi": 60,
      "hit": false,
      "t": 398095.25800000125,
      "d": 873.0159166666563,
      "v": 119
    },
    {
      "midi": 63,
      "hit": false,
      "t": 398095.25800000125,
      "d": 873.0159166666563,
      "v": 119
    },
    {
      "midi": 72,
      "hit": false,
      "t": 398095.25800000405,
      "d": 920.6349666666938,
      "v": 91
    },
    {
      "midi": 68,
      "hit": false,
      "t": 398095.25800000405,
      "d": 936.507983333373,
      "v": 127
    },
    {
      "midi": 44,
      "hit": false,
      "t": 398095.25800000614,
      "d": 436.50795833335724,
      "v": 115
    },
    {
      "midi": 51,
      "hit": false,
      "t": 398095.25800000614,
      "d": 436.50795833335724,
      "v": 115
    },
    {
      "midi": 54,
      "hit": false,
      "t": 398333.3532499851,
      "d": 7.936508333310485,
      "v": 60
    },
    {
      "midi": 66,
      "hit": false,
      "t": 398333.35324999975,
      "d": 214.28572500002338,
      "v": 100
    },
    {
      "midi": 2,
      "hit": false,
      "t": 398571.44849998504,
      "d": 7.936508333310485,
      "v": 117
    },
    {
      "midi": 42,
      "hit": false,
      "t": 398571.44849998504,
      "d": 7.936508333310485,
      "v": 100
    },
    {
      "midi": 54,
      "hit": false,
      "t": 398571.44849998504,
      "d": 7.936508333310485,
      "v": 60
    },
    {
      "midi": 32,
      "hit": false,
      "t": 398571.4484999929,
      "d": 412.69843333330937,
      "v": 112
    },
    {
      "midi": 56,
      "hit": false,
      "t": 398571.44849999977,
      "d": 214.28572500002338,
      "v": 100
    },
    {
      "midi": 44,
      "hit": false,
      "t": 398571.44850000617,
      "d": 79.36508333333768,
      "v": 100
    },
    {
      "midi": 51,
      "hit": false,
      "t": 398571.44850000617,
      "d": 79.36508333333768,
      "v": 100
    },
    {
      "midi": 54,
      "hit": false,
      "t": 398809.543749985,
      "d": 7.936508333310485,
      "v": 60
    },
    {
      "midi": 68,
      "hit": false,
      "t": 398809.5437499998,
      "d": 214.28572500002338,
      "v": 100
    },
    {
      "midi": 54,
      "hit": false,
      "t": 399047.63899998495,
      "d": 7.936508333310485,
      "v": 100
    },
    {
      "midi": 40,
      "hit": false,
      "t": 399047.63899998495,
      "d": 7.936508333310485,
      "v": 122
    },
    {
      "midi": 42,
      "hit": false,
      "t": 399047.63899998495,
      "d": 7.936508333310485,
      "v": 100
    },
    {
      "midi": 32,
      "hit": false,
      "t": 399047.63899999287,
      "d": 412.69843333330937,
      "v": 112
    },
    {
      "midi": 75,
      "hit": false,
      "t": 399047.6389999992,
      "d": 936.5079833333148,
      "v": 100
    },
    {
      "midi": 63,
      "hit": false,
      "t": 399047.6389999998,
      "d": 214.28572500002338,
      "v": 100
    },
    {
      "midi": 60,
      "hit": false,
      "t": 399047.6390000001,
      "d": 952.380999999994,
      "v": 115
    },
    {
      "midi": 68,
      "hit": false,
      "t": 399047.6390000001,
      "d": 952.380999999994,
      "v": 115
    },
    {
      "midi": 56,
      "hit": false,
      "t": 399047.63900000125,
      "d": 396.8254166666884,
      "v": 124
    },
    {
      "midi": 66,
      "hit": false,
      "t": 399047.6390000041,
      "d": 920.6349666666938,
      "v": 91
    },
    {
      "midi": 63,
      "hit": false,
      "t": 399047.6390000041,
      "d": 936.5079833333148,
      "v": 127
    },
    {
      "midi": 44,
      "hit": false,
      "t": 399047.6390000062,
      "d": 436.50795833335724,
      "v": 115
    },
    {
      "midi": 51,
      "hit": false,
      "t": 399047.6390000062,
      "d": 436.50795833335724,
      "v": 115
    },
    {
      "midi": 54,
      "hit": false,
      "t": 399285.7342499849,
      "d": 7.936508333310485,
      "v": 60
    },
    {
      "midi": 56,
      "hit": false,
      "t": 399285.7342499998,
      "d": 214.28572500002338,
      "v": 100
    },
    {
      "midi": 2,
      "hit": false,
      "t": 399523.82949998486,
      "d": 7.936508333310485,
      "v": 117
    },
    {
      "midi": 42,
      "hit": false,
      "t": 399523.82949998486,
      "d": 7.936508333310485,
      "v": 100
    },
    {
      "midi": 54,
      "hit": false,
      "t": 399523.82949998486,
      "d": 7.936508333310485,
      "v": 60
    },
    {
      "midi": 32,
      "hit": false,
      "t": 399523.82949999283,
      "d": 412.69843333330937,
      "v": 112
    },
    {
      "midi": 68,
      "hit": false,
      "t": 399523.8294999998,
      "d": 214.28572500002338,
      "v": 100
    },
    {
      "midi": 61,
      "hit": false,
      "t": 399523.8295000013,
      "d": 396.8254166666884,
      "v": 124
    },
    {
      "midi": 44,
      "hit": false,
      "t": 399523.8295000062,
      "d": 79.36508333333768,
      "v": 100
    },
    {
      "midi": 51,
      "hit": false,
      "t": 399523.8295000062,
      "d": 79.36508333333768,
      "v": 100
    },
    {
      "midi": 54,
      "hit": false,
      "t": 399761.9247499848,
      "d": 7.936508333310485,
      "v": 60
    },
    {
      "midi": 63,
      "hit": false,
      "t": 399761.92474999983,
      "d": 214.28572500002338,
      "v": 100
    },
    {
      "midi": 51,
      "hit": false,
      "t": 399761.92475000623,
      "d": 79.36508333333768,
      "v": 100
    },
    {
      "midi": 44,
      "hit": false,
      "t": 399761.92475000623,
      "d": 79.36508333333768,
      "v": 100
    },
    {
      "midi": 2,
      "hit": false,
      "t": 400000.01999998477,
      "d": 7.936508333310485,
      "v": 118
    },
    {
      "midi": 42,
      "hit": false,
      "t": 400000.01999998477,
      "d": 7.936508333310485,
      "v": 115
    },
    {
      "midi": 40,
      "hit": false,
      "t": 400000.01999998477,
      "d": 7.936508333310485,
      "v": 122
    },
    {
      "midi": 54,
      "hit": false,
      "t": 400000.01999998477,
      "d": 7.936508333310485,
      "v": 100
    },
    {
      "midi": 37,
      "hit": false,
      "t": 400000.0199999928,
      "d": 412.69843333330937,
      "v": 118
    },
    {
      "midi": 77,
      "hit": false,
      "t": 400000.0199999992,
      "d": 2357.1429750000243,
      "v": 100
    },
    {
      "midi": 65,
      "hit": false,
      "t": 400000.01999999984,
      "d": 214.28572500002338,
      "v": 100
    },
    {
      "midi": 61,
      "hit": false,
      "t": 400000.0200000001,
      "d": 3793.650983333355,
      "v": 115
    },
    {
      "midi": 68,
      "hit": false,
      "t": 400000.0200000001,
      "d": 3793.650983333355,
      "v": 115
    },
    {
      "midi": 56,
      "hit": false,
      "t": 400000.0200000013,
      "d": 634.9206666666432,
      "v": 119
    },
    {
      "midi": 60,
      "hit": false,
      "t": 400000.0200000013,
      "d": 634.9206666666432,
      "v": 119
    },
    {
      "midi": 65,
      "hit": false,
      "t": 400000.0200000013,
      "d": 634.9206666666432,
      "v": 119
    },
    {
      "midi": 49,
      "hit": false,
      "t": 400000.02000000625,
      "d": 436.50795833335724,
      "v": 115
    },
    {
      "midi": 56,
      "hit": false,
      "t": 400000.02000000625,
      "d": 436.50795833335724,
      "v": 115
    },
    {
      "midi": 65,
      "hit": false,
      "t": 400007.9565083374,
      "d": 2253.968366666697,
      "v": 127
    },
    {
      "midi": 68,
      "hit": false,
      "t": 400007.9565083374,
      "d": 2269.841383333376,
      "v": 87
    },
    {
      "midi": 54,
      "hit": false,
      "t": 400238.1152499847,
      "d": 7.936508333310485,
      "v": 60
    },
    {
      "midi": 68,
      "hit": false,
      "t": 400238.11524999986,
      "d": 214.28572500002338,
      "v": 100
    },
    {
      "midi": 54,
      "hit": false,
      "t": 400476.2104999847,
      "d": 7.936508333310485,
      "v": 60
    },
    {
      "midi": 42,
      "hit": false,
      "t": 400476.2104999847,
      "d": 7.936508333310485,
      "v": 100
    },
    {
      "midi": 37,
      "hit": false,
      "t": 400476.21049999277,
      "d": 412.69843333330937,
      "v": 112
    },
    {
      "midi": 56,
      "hit": false,
      "t": 400476.21049999987,
      "d": 214.28572500002338,
      "v": 100
    },
    {
      "midi": 56,
      "hit": false,
      "t": 400476.2105000063,
      "d": 436.50795833335724,
      "v": 115
    },
    {
      "midi": 49,
      "hit": false,
      "t": 400476.2105000063,
      "d": 936.507983333373,
      "v": 115
    },
    {
      "midi": 54,
      "hit": false,
      "t": 400714.30574998463,
      "d": 7.936508333310485,
      "v": 60
    },
    {
      "midi": 65,
      "hit": false,
      "t": 400714.3057499999,
      "d": 214.28572500002338,
      "v": 100
    },
    {
      "midi": 60,
      "hit": false,
      "t": 400714.3057500013,
      "d": 198.4127083333442,
      "v": 119
    },
    {
      "midi": 65,
      "hit": false,
      "t": 400714.3057500013,
      "d": 198.4127083333442,
      "v": 119
    },
    {
      "midi": 68,
      "hit": false,
      "t": 400714.3057500013,
      "d": 198.4127083333442,
      "v": 119
    },
    {
      "midi": 54,
      "hit": false,
      "t": 400952.4009999846,
      "d": 7.936508333310485,
      "v": 100
    },
    {
      "midi": 40,
      "hit": false,
      "t": 400952.4009999846,
      "d": 7.936508333310485,
      "v": 122
    },
    {
      "midi": 42,
      "hit": false,
      "t": 400952.4009999846,
      "d": 7.936508333310485,
      "v": 100
    },
    {
      "midi": 37,
      "hit": false,
      "t": 400952.40099999274,
      "d": 412.69843333330937,
      "v": 112
    },
    {
      "midi": 61,
      "hit": false,
      "t": 400952.4009999999,
      "d": 214.28572500002338,
      "v": 100
    },
    {
      "midi": 54,
      "hit": false,
      "t": 401190.49624998454,
      "d": 7.936508333310485,
      "v": 60
    },
    {
      "midi": 56,
      "hit": false,
      "t": 401190.4962499999,
      "d": 214.28572500002338,
      "v": 100
    },
    {
      "midi": 54,
      "hit": false,
      "t": 401428.5914999845,
      "d": 7.936508333310485,
      "v": 60
    },
    {
      "midi": 42,
      "hit": false,
      "t": 401428.5914999845,
      "d": 7.936508333310485,
      "v": 100
    },
    {
      "midi": 49,
      "hit": false,
      "t": 401428.5914999927,
      "d": 412.69843333330937,
      "v": 112
    },
    {
      "midi": 65,
      "hit": false,
      "t": 401428.5914999999,
      "d": 214.28572500002338,
      "v": 100
    },
    {
      "midi": 60,
      "hit": false,
      "t": 401428.5915000013,
      "d": 1349.2064166666823,
      "v": 119
    },
    {
      "midi": 65,
      "hit": false,
      "t": 401428.5915000013,
      "d": 1349.2064166666823,
      "v": 119
    },
    {
      "midi": 68,
      "hit": false,
      "t": 401428.5915000013,
      "d": 1349.2064166666823,
      "v": 119
    },
    {
      "midi": 56,
      "hit": false,
      "t": 401428.5915000063,
      "d": 436.50795833335724,
      "v": 115
    },
    {
      "midi": 61,
      "hit": false,
      "t": 401428.5915000063,
      "d": 436.50795833335724,
      "v": 115
    },
    {
      "midi": 54,
      "hit": false,
      "t": 401666.68674998445,
      "d": 7.936508333310485,
      "v": 60
    },
    {
      "midi": 60,
      "hit": false,
      "t": 401666.68674999994,
      "d": 214.28572500002338,
      "v": 100
    },
    {
      "midi": 54,
      "hit": false,
      "t": 401904.7819999844,
      "d": 7.936508333310485,
      "v": 100
    },
    {
      "midi": 40,
      "hit": false,
      "t": 401904.7819999844,
      "d": 7.936508333310485,
      "v": 122
    },
    {
      "midi": 42,
      "hit": false,
      "t": 401904.7819999844,
      "d": 7.936508333310485,
      "v": 100
    },
    {
      "midi": 49,
      "hit": false,
      "t": 401904.7819999927,
      "d": 412.69843333330937,
      "v": 112
    },
    {
      "midi": 68,
      "hit": false,
      "t": 401904.78199999995,
      "d": 214.28572500002338,
      "v": 100
    },
    {
      "midi": 58,
      "hit": false,
      "t": 401904.78200000635,
      "d": 436.50795833335724,
      "v": 115
    },
    {
      "midi": 54,
      "hit": false,
      "t": 402142.87724998436,
      "d": 7.936508333310485,
      "v": 60
    },
    {
      "midi": 65,
      "hit": false,
      "t": 402142.87724999996,
      "d": 214.28572500002338,
      "v": 100
    },
    {
      "midi": 2,
      "hit": false,
      "t": 402380.9724999843,
      "d": 7.936508333310485,
      "v": 117
    },
    {
      "midi": 42,
      "hit": false,
      "t": 402380.9724999843,
      "d": 7.936508333310485,
      "v": 100
    },
    {
      "midi": 54,
      "hit": false,
      "t": 402380.9724999843,
      "d": 7.936508333310485,
      "v": 60
    },
    {
      "midi": 44,
      "hit": false,
      "t": 402380.97249999264,
      "d": 412.69843333330937,
      "v": 112
    },
    {
      "midi": 77,
      "hit": false,
      "t": 402380.9724999992,
      "d": 452.3809749999782,
      "v": 100
    },
    {
      "midi": 65,
      "hit": false,
      "t": 402380.9725,
      "d": 214.28572500002338,
      "v": 100
    },
    {
      "midi": 60,
      "hit": false,
      "t": 402380.9725000041,
      "d": 476.1905000000261,
      "v": 110
    },
    {
      "midi": 53,
      "hit": false,
      "t": 402380.9725000064,
      "d": 436.50795833335724,
      "v": 115
    },
    {
      "midi": 54,
      "hit": false,
      "t": 402619.0677499843,
      "d": 7.936508333310485,
      "v": 60
    },
    {
      "midi": 68,
      "hit": false,
      "t": 402619.06775,
      "d": 214.28572500002338,
      "v": 100
    },
    {
      "midi": 54,
      "hit": false,
      "t": 402857.1629999842,
      "d": 7.936508333310485,
      "v": 100
    },
    {
      "midi": 40,
      "hit": false,
      "t": 402857.1629999842,
      "d": 7.936508333310485,
      "v": 122
    },
    {
      "midi": 37,
      "hit": false,
      "t": 402857.1629999926,
      "d": 412.69843333330937,
      "v": 112
    },
    {
      "midi": 78,
      "hit": false,
      "t": 402857.1629999992,
      "d": 452.3809749999782,
      "v": 100
    },
    {
      "midi": 68,
      "hit": false,
      "t": 402857.163,
      "d": 214.28572500002338,
      "v": 100
    },
    {
      "midi": 60,
      "hit": false,
      "t": 402857.16300000134,
      "d": 873.0159166666563,
      "v": 119
    },
    {
      "midi": 65,
      "hit": false,
      "t": 402857.16300000134,
      "d": 873.0159166666563,
      "v": 119
    },
    {
      "midi": 68,
      "hit": false,
      "t": 402857.16300000134,
      "d": 873.0159166666563,
      "v": 119
    },
    {
      "midi": 65,
      "hit": false,
      "t": 402857.16300000413,
      "d": 928.5714750000625,
      "v": 110
    },
    {
      "midi": 56,
      "hit": false,
      "t": 402857.1630000064,
      "d": 436.50795833335724,
      "v": 115
    },
    {
      "midi": 61,
      "hit": false,
      "t": 402857.1630000064,
      "d": 436.50795833335724,
      "v": 115
    },
    {
      "midi": 54,
      "hit": false,
      "t": 403095.2582499842,
      "d": 7.936508333310485,
      "v": 60
    },
    {
      "midi": 65,
      "hit": false,
      "t": 403095.25825,
      "d": 214.28572500002338,
      "v": 100
    },
    {
      "midi": 2,
      "hit": false,
      "t": 403333.35349998414,
      "d": 7.936508333310485,
      "v": 117
    },
    {
      "midi": 54,
      "hit": false,
      "t": 403333.35349998414,
      "d": 7.936508333310485,
      "v": 60
    },
    {
      "midi": 40,
      "hit": false,
      "t": 403333.35349998414,
      "d": 7.936508333310485,
      "v": 122
    },
    {
      "midi": 44,
      "hit": false,
      "t": 403333.3534999926,
      "d": 412.69843333330937,
      "v": 112
    },
    {
      "midi": 80,
      "hit": false,
      "t": 403333.35349999915,
      "d": 452.3809749999782,
      "v": 100
    },
    {
      "midi": 73,
      "hit": false,
      "t": 403333.3535,
      "d": 214.28572500002338,
      "v": 100
    },
    {
      "midi": 53,
      "hit": false,
      "t": 403333.35350000643,
      "d": 436.50795833329903,
      "v": 125
    },
    {
      "midi": 54,
      "hit": false,
      "t": 403571.4487499841,
      "d": 7.936508333310485,
      "v": 60
    },
    {
      "midi": 40,
      "hit": false,
      "t": 403571.4487499841,
      "d": 7.936508333310485,
      "v": 122
    },
    {
      "midi": 68,
      "hit": false,
      "t": 403571.44875000004,
      "d": 214.28572500002338,
      "v": 100
    },
    {
      "midi": 2,
      "hit": false,
      "t": 403809.54399998405,
      "d": 7.936508333310485,
      "v": 118
    },
    {
      "midi": 49,
      "hit": false,
      "t": 403809.54399998405,
      "d": 7.936508333310485,
      "v": 115
    },
    {
      "midi": 40,
      "hit": false,
      "t": 403809.54399998405,
      "d": 7.936508333310485,
      "v": 122
    },
    {
      "midi": 54,
      "hit": false,
      "t": 403809.54399998405,
      "d": 7.936508333310485,
      "v": 100
    },
    {
      "midi": 30,
      "hit": false,
      "t": 403809.54399999254,
      "d": 412.69843333330937,
      "v": 118
    },
    {
      "midi": 73,
      "hit": false,
      "t": 403809.5439999991,
      "d": 1880.9524749999982,
      "v": 100
    },
    {
      "midi": 82,
      "hit": false,
      "t": 403809.5439999991,
      "d": 1880.9524749999982,
      "v": 100
    },
    {
      "midi": 66,
      "hit": false,
      "t": 403809.54400000005,
      "d": 214.28572500002338,
      "v": 100
    },
    {
      "midi": 66,
      "hit": false,
      "t": 403809.5440000001,
      "d": 1880.9524749999982,
      "v": 115
    },
    {
      "midi": 61,
      "hit": false,
      "t": 403809.54400000133,
      "d": 436.50795833335724,
      "v": 119
    },
    {
      "midi": 66,
      "hit": false,
      "t": 403809.54400000133,
      "d": 436.50795833335724,
      "v": 119
    },
    {
      "midi": 70,
      "hit": false,
      "t": 403809.54400000133,
      "d": 436.50795833335724,
      "v": 119
    },
    {
      "midi": 70,
      "hit": false,
      "t": 403809.5440000042,
      "d": 277.7777916666819,
      "v": 125
    },
    {
      "midi": 42,
      "hit": false,
      "t": 403809.5440000064,
      "d": 436.50795833335724,
      "v": 115
    },
    {
      "midi": 49,
      "hit": false,
      "t": 403809.5440000064,
      "d": 436.50795833335724,
      "v": 115
    },
    {
      "midi": 54,
      "hit": false,
      "t": 404047.639249984,
      "d": 7.936508333310485,
      "v": 60
    },
    {
      "midi": 73,
      "hit": false,
      "t": 404047.63925000007,
      "d": 214.28572500002338,
      "v": 100
    },
    {
      "midi": 72,
      "hit": false,
      "t": 404047.6392500042,
      "d": 277.7777916666819,
      "v": 125
    },
    {
      "midi": 54,
      "hit": false,
      "t": 404285.73449998396,
      "d": 7.936508333310485,
      "v": 60
    },
    {
      "midi": 42,
      "hit": false,
      "t": 404285.73449998396,
      "d": 7.936508333310485,
      "v": 100
    },
    {
      "midi": 30,
      "hit": false,
      "t": 404285.7344999925,
      "d": 412.69843333330937,
      "v": 112
    },
    {
      "midi": 58,
      "hit": false,
      "t": 404285.7345000001,
      "d": 214.28572500002338,
      "v": 100
    },
    {
      "midi": 61,
      "hit": false,
      "t": 404285.73450000136,
      "d": 436.50795833335724,
      "v": 127
    },
    {
      "midi": 73,
      "hit": false,
      "t": 404285.7345000042,
      "d": 277.7777916666819,
      "v": 125
    },
    {
      "midi": 42,
      "hit": false,
      "t": 404285.7345000064,
      "d": 79.36508333333768,
      "v": 100
    },
    {
      "midi": 49,
      "hit": false,
      "t": 404285.7345000064,
      "d": 79.36508333333768,
      "v": 100
    },
    {
      "midi": 54,
      "hit": false,
      "t": 404523.8297499839,
      "d": 7.936508333310485,
      "v": 60
    },
    {
      "midi": 66,
      "hit": false,
      "t": 404523.8297500001,
      "d": 214.28572500002338,
      "v": 100
    },
    {
      "midi": 70,
      "hit": false,
      "t": 404523.8297500042,
      "d": 277.7777916666819,
      "v": 125
    },
    {
      "midi": 54,
      "hit": false,
      "t": 404761.92499998386,
      "d": 7.936508333310485,
      "v": 100
    },
    {
      "midi": 40,
      "hit": false,
      "t": 404761.92499998386,
      "d": 7.936508333310485,
      "v": 122
    },
    {
      "midi": 42,
      "hit": false,
      "t": 404761.92499998386,
      "d": 7.936508333310485,
      "v": 100
    },
    {
      "midi": 30,
      "hit": false,
      "t": 404761.9249999925,
      "d": 412.69843333330937,
      "v": 112
    },
    {
      "midi": 61,
      "hit": false,
      "t": 404761.9250000001,
      "d": 214.28572500002338,
      "v": 100
    },
    {
      "midi": 66,
      "hit": false,
      "t": 404761.9250000014,
      "d": 436.50795833335724,
      "v": 127
    },
    {
      "midi": 75,
      "hit": false,
      "t": 404761.92500000424,
      "d": 277.7777916666819,
      "v": 125
    },
    {
      "midi": 42,
      "hit": false,
      "t": 404761.92500000645,
      "d": 436.50795833335724,
      "v": 115
    },
    {
      "midi": 49,
      "hit": false,
      "t": 404761.92500000645,
      "d": 436.50795833335724,
      "v": 115
    },
    {
      "midi": 54,
      "hit": false,
      "t": 405000.0202499838,
      "d": 7.936508333310485,
      "v": 60
    },
    {
      "midi": 58,
      "hit": false,
      "t": 405000.0202500001,
      "d": 214.28572500002338,
      "v": 100
    },
    {
      "midi": 73,
      "hit": false,
      "t": 405000.02025000425,
      "d": 277.7777916666819,
      "v": 125
    },
    {
      "midi": 54,
      "hit": false,
      "t": 405238.1154999838,
      "d": 7.936508333310485,
      "v": 60
    },
    {
      "midi": 42,
      "hit": false,
      "t": 405238.1154999838,
      "d": 7.936508333310485,
      "v": 100
    },
    {
      "midi": 30,
      "hit": false,
      "t": 405238.11549999245,
      "d": 412.69843333330937,
      "v": 112
    },
    {
      "midi": 66,
      "hit": false,
      "t": 405238.11550000013,
      "d": 214.28572500002338,
      "v": 100
    },
    {
      "midi": 70,
      "hit": false,
      "t": 405238.1155000014,
      "d": 436.50795833335724,
      "v": 127
    },
    {
      "midi": 72,
      "hit": false,
      "t": 405238.11550000426,
      "d": 277.7777916666819,
      "v": 125
    },
    {
      "midi": 42,
      "hit": false,
      "t": 405238.1155000065,
      "d": 436.50795833335724,
      "v": 115
    },
    {
      "midi": 49,
      "hit": false,
      "t": 405238.1155000065,
      "d": 436.50795833335724,
      "v": 115
    },
    {
      "midi": 54,
      "hit": false,
      "t": 405476.21074998373,
      "d": 7.936508333310485,
      "v": 60
    },
    {
      "midi": 61,
      "hit": false,
      "t": 405476.21075000014,
      "d": 214.28572500002338,
      "v": 100
    },
    {
      "midi": 70,
      "hit": false,
      "t": 405476.2107500043,
      "d": 277.7777916666819,
      "v": 125
    },
    {
      "midi": 54,
      "hit": false,
      "t": 405714.3059999837,
      "d": 7.936508333310485,
      "v": 100
    },
    {
      "midi": 40,
      "hit": false,
      "t": 405714.3059999837,
      "d": 7.936508333310485,
      "v": 122
    },
    {
      "midi": 49,
      "hit": false,
      "t": 405714.3059999837,
      "d": 7.936508333310485,
      "v": 100
    },
    {
      "midi": 32,
      "hit": false,
      "t": 405714.3059999924,
      "d": 412.69843333330937,
      "v": 118
    },
    {
      "midi": 75,
      "hit": false,
      "t": 405714.3059999991,
      "d": 1880.9524749999982,
      "v": 100
    },
    {
      "midi": 84,
      "hit": false,
      "t": 405714.3059999991,
      "d": 1880.9524749999982,
      "v": 100
    },
    {
      "midi": 68,
      "hit": false,
      "t": 405714.3060000001,
      "d": 952.380999999994,
      "v": 115
    },
    {
      "midi": 68,
      "hit": false,
      "t": 405714.30600000016,
      "d": 214.28572500002338,
      "v": 100
    },
    {
      "midi": 63,
      "hit": false,
      "t": 405714.30600000144,
      "d": 873.0159166666563,
      "v": 119
    },
    {
      "midi": 68,
      "hit": false,
      "t": 405714.30600000144,
      "d": 873.0159166666563,
      "v": 119
    },
    {
      "midi": 72,
      "hit": false,
      "t": 405714.30600000144,
      "d": 873.0159166666563,
      "v": 119
    },
    {
      "midi": 72,
      "hit": false,
      "t": 405714.3060000043,
      "d": 277.7777916666819,
      "v": 125
    },
    {
      "midi": 44,
      "hit": false,
      "t": 405714.3060000065,
      "d": 928.5714750000043,
      "v": 115
    },
    {
      "midi": 51,
      "hit": false,
      "t": 405714.3060000065,
      "d": 928.5714750000043,
      "v": 115
    },
    {
      "midi": 54,
      "hit": false,
      "t": 405952.40124998364,
      "d": 7.936508333310485,
      "v": 60
    },
    {
      "midi": 66,
      "hit": false,
      "t": 405952.40125000017,
      "d": 214.28572500002338,
      "v": 100
    },
    {
      "midi": 73,
      "hit": false,
      "t": 405952.4012500043,
      "d": 277.7777916666819,
      "v": 125
    },
    {
      "midi": 2,
      "hit": false,
      "t": 406190.4964999836,
      "d": 7.936508333310485,
      "v": 117
    },
    {
      "midi": 42,
      "hit": false,
      "t": 406190.4964999836,
      "d": 7.936508333310485,
      "v": 100
    },
    {
      "midi": 54,
      "hit": false,
      "t": 406190.4964999836,
      "d": 7.936508333310485,
      "v": 60
    },
    {
      "midi": 32,
      "hit": false,
      "t": 406190.4964999924,
      "d": 412.69843333330937,
      "v": 112
    },
    {
      "midi": 63,
      "hit": false,
      "t": 406190.4965000002,
      "d": 214.28572500002338,
      "v": 100
    },
    {
      "midi": 75,
      "hit": false,
      "t": 406190.4965000043,
      "d": 277.7777916666819,
      "v": 125
    },
    {
      "midi": 54,
      "hit": false,
      "t": 406428.59174998355,
      "d": 7.936508333310485,
      "v": 60
    },
    {
      "midi": 68,
      "hit": false,
      "t": 406428.5917500002,
      "d": 214.28572500002338,
      "v": 100
    },
    {
      "midi": 72,
      "hit": false,
      "t": 406428.5917500043,
      "d": 277.7777916666819,
      "v": 125
    },
    {
      "midi": 54,
      "hit": false,
      "t": 406666.6869999835,
      "d": 7.936508333310485,
      "v": 100
    },
    {
      "midi": 40,
      "hit": false,
      "t": 406666.6869999835,
      "d": 7.936508333310485,
      "v": 122
    },
    {
      "midi": 42,
      "hit": false,
      "t": 406666.6869999835,
      "d": 7.936508333310485,
      "v": 100
    },
    {
      "midi": 33,
      "hit": false,
      "t": 406666.68699999235,
      "d": 412.69843333330937,
      "v": 112
    },
    {
      "midi": 69,
      "hit": false,
      "t": 406666.6870000001,
      "d": 952.380999999994,
      "v": 115
    },
    {
      "midi": 65,
      "hit": false,
      "t": 406666.6870000002,
      "d": 214.28572500002338,
      "v": 100
    },
    {
      "midi": 63,
      "hit": false,
      "t": 406666.68700000143,
      "d": 873.0159166666563,
      "v": 119
    },
    {
      "midi": 69,
      "hit": false,
      "t": 406666.68700000143,
      "d": 873.0159166666563,
      "v": 119
    },
    {
      "midi": 72,
      "hit": false,
      "t": 406666.68700000143,
      "d": 873.0159166666563,
      "v": 119
    },
    {
      "midi": 77,
      "hit": false,
      "t": 406666.68700000434,
      "d": 277.7777916666819,
      "v": 125
    },
    {
      "midi": 48,
      "hit": false,
      "t": 406666.6870000065,
      "d": 928.5714750000625,
      "v": 124
    },
    {
      "midi": 54,
      "hit": false,
      "t": 406904.78224998346,
      "d": 7.936508333310485,
      "v": 60
    },
    {
      "midi": 63,
      "hit": false,
      "t": 406904.7822500002,
      "d": 214.28572500002338,
      "v": 100
    },
    {
      "midi": 75,
      "hit": false,
      "t": 406904.78225000435,
      "d": 277.7777916666819,
      "v": 125
    },
    {
      "midi": 2,
      "hit": false,
      "t": 407142.8774999834,
      "d": 7.936508333310485,
      "v": 117
    },
    {
      "midi": 42,
      "hit": false,
      "t": 407142.8774999834,
      "d": 7.936508333310485,
      "v": 100
    },
    {
      "midi": 54,
      "hit": false,
      "t": 407142.8774999834,
      "d": 7.936508333310485,
      "v": 60
    },
    {
      "midi": 33,
      "hit": false,
      "t": 407142.8774999923,
      "d": 412.69843333330937,
      "v": 112
    },
    {
      "midi": 68,
      "hit": false,
      "t": 407142.87750000024,
      "d": 214.28572500002338,
      "v": 100
    },
    {
      "midi": 54,
      "hit": false,
      "t": 407380.97274998337,
      "d": 7.936508333310485,
      "v": 60
    },
    {
      "midi": 63,
      "hit": false,
      "t": 407380.97275000025,
      "d": 214.28572500002338,
      "v": 100
    },
    {
      "midi": 2,
      "hit": false,
      "t": 407619.0679999833,
      "d": 7.936508333310485,
      "v": 118
    },
    {
      "midi": 49,
      "hit": false,
      "t": 407619.0679999833,
      "d": 7.936508333310485,
      "v": 115
    },
    {
      "midi": 40,
      "hit": false,
      "t": 407619.0679999833,
      "d": 7.936508333310485,
      "v": 122
    },
    {
      "midi": 54,
      "hit": false,
      "t": 407619.0679999833,
      "d": 7.936508333310485,
      "v": 100
    },
    {
      "midi": 34,
      "hit": false,
      "t": 407619.0679999923,
      "d": 412.69843333330937,
      "v": 118
    },
    {
      "midi": 85,
      "hit": false,
      "t": 407619.0679999991,
      "d": 936.5079833333148,
      "v": 100
    },
    {
      "midi": 70,
      "hit": false,
      "t": 407619.0680000001,
      "d": 952.380999999994,
      "v": 115
    },
    {
      "midi": 70,
      "hit": false,
      "t": 407619.06800000026,
      "d": 214.28572500002338,
      "v": 100
    },
    {
      "midi": 65,
      "hit": false,
      "t": 407619.0680000014,
      "d": 873.0159166666563,
      "v": 119
    },
    {
      "midi": 70,
      "hit": false,
      "t": 407619.0680000014,
      "d": 873.0159166666563,
      "v": 119
    },
    {
      "midi": 73,
      "hit": false,
      "t": 407619.0680000014,
      "d": 873.0159166666563,
      "v": 119
    },
    {
      "midi": 73,
      "hit": false,
      "t": 407619.0680000044,
      "d": 15.873016666679177,
      "v": 125
    },
    {
      "midi": 46,
      "hit": false,
      "t": 407619.06800000655,
      "d": 436.50795833335724,
      "v": 115
    },
    {
      "midi": 53,
      "hit": false,
      "t": 407619.06800000655,
      "d": 436.50795833335724,
      "v": 115
    },
    {
      "midi": 54,
      "hit": false,
      "t": 407857.1632499833,
      "d": 7.936508333310485,
      "v": 60
    },
    {
      "midi": 72,
      "hit": false,
      "t": 407857.1632500003,
      "d": 214.28572500002338,
      "v": 100
    },
    {
      "midi": 54,
      "hit": false,
      "t": 408095.25849998323,
      "d": 7.936508333310485,
      "v": 60
    },
    {
      "midi": 42,
      "hit": false,
      "t": 408095.25849998323,
      "d": 7.936508333310485,
      "v": 100
    },
    {
      "midi": 34,
      "hit": false,
      "t": 408095.25849999225,
      "d": 412.69843333330937,
      "v": 112
    },
    {
      "midi": 61,
      "hit": false,
      "t": 408095.2585000003,
      "d": 214.28572500002338,
      "v": 100
    },
    {
      "midi": 72,
      "hit": false,
      "t": 408095.2585000044,
      "d": 277.7777916666819,
      "v": 125
    },
    {
      "midi": 46,
      "hit": false,
      "t": 408095.2585000066,
      "d": 79.36508333333768,
      "v": 100
    },
    {
      "midi": 53,
      "hit": false,
      "t": 408095.2585000066,
      "d": 79.36508333333768,
      "v": 100
    },
    {
      "midi": 54,
      "hit": false,
      "t": 408333.3537499832,
      "d": 7.936508333310485,
      "v": 60
    },
    {
      "midi": 70,
      "hit": false,
      "t": 408333.3537500003,
      "d": 214.28572500002338,
      "v": 100
    },
    {
      "midi": 73,
      "hit": false,
      "t": 408333.35375000443,
      "d": 277.7777916666819,
      "v": 125
    },
    {
      "midi": 54,
      "hit": false,
      "t": 408571.44899998314,
      "d": 7.936508333310485,
      "v": 100
    },
    {
      "midi": 40,
      "hit": false,
      "t": 408571.44899998314,
      "d": 7.936508333310485,
      "v": 122
    },
    {
      "midi": 42,
      "hit": false,
      "t": 408571.44899998314,
      "d": 7.936508333310485,
      "v": 100
    },
    {
      "midi": 34,
      "hit": false,
      "t": 408571.4489999922,
      "d": 412.69843333330937,
      "v": 112
    },
    {
      "midi": 84,
      "hit": false,
      "t": 408571.4489999991,
      "d": 936.5079833333148,
      "v": 100
    },
    {
      "midi": 68,
      "hit": false,
      "t": 408571.4490000001,
      "d": 952.380999999994,
      "v": 115
    },
    {
      "midi": 65,
      "hit": false,
      "t": 408571.4490000003,
      "d": 214.28572500002338,
      "v": 100
    },
    {
      "midi": 65,
      "hit": false,
      "t": 408571.4490000014,
      "d": 873.0159166666563,
      "v": 119
    },
    {
      "midi": 68,
      "hit": false,
      "t": 408571.4490000014,
      "d": 873.0159166666563,
      "v": 119
    },
    {
      "midi": 72,
      "hit": false,
      "t": 408571.4490000014,
      "d": 873.0159166666563,
      "v": 119
    },
    {
      "midi": 70,
      "hit": false,
      "t": 408571.44900000445,
      "d": 277.7777916666819,
      "v": 125
    },
    {
      "midi": 46,
      "hit": false,
      "t": 408571.4490000066,
      "d": 928.5714750000043,
      "v": 115
    },
    {
      "midi": 53,
      "hit": false,
      "t": 408571.4490000066,
      "d": 928.5714750000043,
      "v": 115
    },
    {
      "midi": 54,
      "hit": false,
      "t": 408809.5442499831,
      "d": 7.936508333310485,
      "v": 60
    },
    {
      "midi": 61,
      "hit": false,
      "t": 408809.5442500003,
      "d": 214.28572500002338,
      "v": 100
    },
    {
      "midi": 73,
      "hit": false,
      "t": 408809.54425000446,
      "d": 277.7777916666819,
      "v": 125
    },
    {
      "midi": 54,
      "hit": false,
      "t": 409047.63949998305,
      "d": 7.936508333310485,
      "v": 60
    },
    {
      "midi": 42,
      "hit": false,
      "t": 409047.63949998305,
      "d": 7.936508333310485,
      "v": 100
    },
    {
      "midi": 34,
      "hit": false,
      "t": 409047.6394999922,
      "d": 412.69843333330937,
      "v": 112
    },
    {
      "midi": 61,
      "hit": false,
      "t": 409047.63950000034,
      "d": 214.28572500002338,
      "v": 100
    },
    {
      "midi": 68,
      "hit": false,
      "t": 409047.6395000045,
      "d": 277.7777916666819,
      "v": 125
    },
    {
      "midi": 54,
      "hit": false,
      "t": 409285.734749983,
      "d": 7.936508333310485,
      "v": 60
    },
    {
      "midi": 65,
      "hit": false,
      "t": 409285.73475000035,
      "d": 214.28572500002338,
      "v": 100
    },
    {
      "midi": 73,
      "hit": false,
      "t": 409285.7347500045,
      "d": 277.7777916666819,
      "v": 125
    },
    {
      "midi": 54,
      "hit": false,
      "t": 409523.82999998296,
      "d": 7.936508333310485,
      "v": 100
    },
    {
      "midi": 40,
      "hit": false,
      "t": 409523.82999998296,
      "d": 7.936508333310485,
      "v": 122
    },
    {
      "midi": 49,
      "hit": false,
      "t": 409523.82999998296,
      "d": 7.936508333310485,
      "v": 100
    },
    {
      "midi": 31,
      "hit": false,
      "t": 409523.82999999216,
      "d": 412.69843333330937,
      "v": 118
    },
    {
      "midi": 82,
      "hit": false,
      "t": 409523.8299999991,
      "d": 1880.9524749999982,
      "v": 100
    },
    {
      "midi": 67,
      "hit": false,
      "t": 409523.8300000001,
      "d": 1880.9524749999982,
      "v": 115
    },
    {
      "midi": 70,
      "hit": false,
      "t": 409523.83000000037,
      "d": 214.28572500002338,
      "v": 100
    },
    {
      "midi": 63,
      "hit": false,
      "t": 409523.8300000014,
      "d": 1825.3969166666502,
      "v": 119
    },
    {
      "midi": 67,
      "hit": false,
      "t": 409523.8300000014,
      "d": 1825.3969166666502,
      "v": 119
    },
    {
      "midi": 70,
      "hit": false,
      "t": 409523.8300000014,
      "d": 1825.3969166666502,
      "v": 119
    },
    {
      "midi": 67,
      "hit": false,
      "t": 409523.8300000045,
      "d": 936.507983333373,
      "v": 125
    },
    {
      "midi": 43,
      "hit": false,
      "t": 409523.8300000066,
      "d": 436.50795833335724,
      "v": 115
    },
    {
      "midi": 51,
      "hit": false,
      "t": 409523.8300000066,
      "d": 436.50795833335724,
      "v": 115
    },
    {
      "midi": 54,
      "hit": false,
      "t": 409761.9252499829,
      "d": 7.936508333310485,
      "v": 60
    },
    {
      "midi": 61,
      "hit": false,
      "t": 409761.9252500004,
      "d": 214.28572500002338,
      "v": 100
    },
    {
      "midi": 2,
      "hit": false,
      "t": 410000.0204999829,
      "d": 7.936508333310485,
      "v": 117
    },
    {
      "midi": 42,
      "hit": false,
      "t": 410000.0204999829,
      "d": 7.936508333310485,
      "v": 100
    },
    {
      "midi": 54,
      "hit": false,
      "t": 410000.0204999829,
      "d": 7.936508333310485,
      "v": 60
    },
    {
      "midi": 31,
      "hit": false,
      "t": 410000.0204999921,
      "d": 412.69843333330937,
      "v": 112
    },
    {
      "midi": 68,
      "hit": false,
      "t": 410000.0205000004,
      "d": 214.28572500002338,
      "v": 100
    },
    {
      "midi": 43,
      "hit": false,
      "t": 410000.0205000066,
      "d": 79.36508333333768,
      "v": 100
    },
    {
      "midi": 51,
      "hit": false,
      "t": 410000.0205000066,
      "d": 79.36508333333768,
      "v": 100
    },
    {
      "midi": 54,
      "hit": false,
      "t": 410238.1157499828,
      "d": 7.936508333310485,
      "v": 60
    },
    {
      "midi": 70,
      "hit": false,
      "t": 410238.1157500004,
      "d": 214.28572500002338,
      "v": 100
    },
    {
      "midi": 54,
      "hit": false,
      "t": 410476.2109999828,
      "d": 7.936508333310485,
      "v": 100
    },
    {
      "midi": 40,
      "hit": false,
      "t": 410476.2109999828,
      "d": 7.936508333310485,
      "v": 122
    },
    {
      "midi": 42,
      "hit": false,
      "t": 410476.2109999828,
      "d": 7.936508333310485,
      "v": 100
    },
    {
      "midi": 31,
      "hit": false,
      "t": 410476.2109999921,
      "d": 412.69843333330937,
      "v": 112
    },
    {
      "midi": 63,
      "hit": false,
      "t": 410476.2110000004,
      "d": 214.28572500002338,
      "v": 100
    },
    {
      "midi": 68,
      "hit": false,
      "t": 410476.21100000455,
      "d": 198.4127083333442,
      "v": 80
    },
    {
      "midi": 43,
      "hit": false,
      "t": 410476.21100000665,
      "d": 436.50795833335724,
      "v": 115
    },
    {
      "midi": 51,
      "hit": false,
      "t": 410476.21100000665,
      "d": 436.50795833335724,
      "v": 115
    },
    {
      "midi": 70,
      "hit": false,
      "t": 410634.9411666712,
      "d": 198.4127083333442,
      "v": 85
    },
    {
      "midi": 54,
      "hit": false,
      "t": 410714.30624998274,
      "d": 7.936508333310485,
      "v": 60
    },
    {
      "midi": 68,
      "hit": false,
      "t": 410714.30625000043,
      "d": 214.28572500002338,
      "v": 100
    },
    {
      "midi": 72,
      "hit": false,
      "t": 410793.6713333379,
      "d": 198.4127083333442,
      "v": 87
    },
    {
      "midi": 2,
      "hit": false,
      "t": 410952.4014999827,
      "d": 7.936508333310485,
      "v": 117
    },
    {
      "midi": 42,
      "hit": false,
      "t": 410952.4014999827,
      "d": 7.936508333310485,
      "v": 100
    },
    {
      "midi": 54,
      "hit": false,
      "t": 410952.4014999827,
      "d": 7.936508333310485,
      "v": 60
    },
    {
      "midi": 31,
      "hit": false,
      "t": 410952.40149999206,
      "d": 412.69843333330937,
      "v": 112
    },
    {
      "midi": 58,
      "hit": false,
      "t": 410952.40150000044,
      "d": 214.28572500002338,
      "v": 100
    },
    {
      "midi": 73,
      "hit": false,
      "t": 410952.4015000046,
      "d": 198.4127083333442,
      "v": 95
    },
    {
      "midi": 43,
      "hit": false,
      "t": 410952.4015000067,
      "d": 436.50795833335724,
      "v": 115
    },
    {
      "midi": 51,
      "hit": false,
      "t": 410952.4015000067,
      "d": 436.50795833335724,
      "v": 115
    },
    {
      "midi": 75,
      "hit": false,
      "t": 411111.13166667125,
      "d": 198.4127083333442,
      "v": 105
    },
    {
      "midi": 54,
      "hit": false,
      "t": 411190.49674998265,
      "d": 7.936508333310485,
      "v": 60
    },
    {
      "midi": 63,
      "hit": false,
      "t": 411190.49675000046,
      "d": 214.28572500002338,
      "v": 100
    },
    {
      "midi": 77,
      "hit": false,
      "t": 411269.8618333379,
      "d": 198.4127083333442,
      "v": 112
    },
    {
      "midi": 2,
      "hit": false,
      "t": 411428.5919999826,
      "d": 7.936508333310485,
      "v": 118
    },
    {
      "midi": 49,
      "hit": false,
      "t": 411428.5919999826,
      "d": 7.936508333310485,
      "v": 115
    },
    {
      "midi": 40,
      "hit": false,
      "t": 411428.5919999826,
      "d": 7.936508333310485,
      "v": 122
    },
    {
      "midi": 54,
      "hit": false,
      "t": 411428.5919999826,
      "d": 7.936508333310485,
      "v": 100
    },
    {
      "midi": 36,
      "hit": false,
      "t": 411428.59199999203,
      "d": 412.69843333330937,
      "v": 118
    },
    {
      "midi": 78,
      "hit": false,
      "t": 411428.5919999991,
      "d": 3793.650983333355,
      "v": 100
    },
    {
      "midi": 63,
      "hit": false,
      "t": 411428.59200000006,
      "d": 3793.650983333355,
      "v": 115
    },
    {
      "midi": 70,
      "hit": false,
      "t": 411428.59200000006,
      "d": 3793.650983333355,
      "v": 115
    },
    {
      "midi": 66,
      "hit": false,
      "t": 411428.59200000047,
      "d": 214.28572500002338,
      "v": 100
    },
    {
      "midi": 58,
      "hit": false,
      "t": 411428.5920000014,
      "d": 634.9206666666432,
      "v": 119
    },
    {
      "midi": 61,
      "hit": false,
      "t": 411428.5920000014,
      "d": 634.9206666666432,
      "v": 119
    },
    {
      "midi": 66,
      "hit": false,
      "t": 411428.5920000014,
      "d": 634.9206666666432,
      "v": 119
    },
    {
      "midi": 78,
      "hit": false,
      "t": 411428.5920000046,
      "d": 2857.14300000004,
      "v": 127
    },
    {
      "midi": 51,
      "hit": false,
      "t": 411428.5920000067,
      "d": 436.50795833335724,
      "v": 115
    },
    {
      "midi": 58,
      "hit": false,
      "t": 411428.5920000067,
      "d": 436.50795833335724,
      "v": 115
    },
    {
      "midi": 54,
      "hit": false,
      "t": 411666.68724998255,
      "d": 7.936508333310485,
      "v": 60
    },
    {
      "midi": 58,
      "hit": false,
      "t": 411666.6872500005,
      "d": 214.28572500002338,
      "v": 100
    },
    {
      "midi": 54,
      "hit": false,
      "t": 411904.7824999825,
      "d": 7.936508333310485,
      "v": 60
    },
    {
      "midi": 42,
      "hit": false,
      "t": 411904.7824999825,
      "d": 7.936508333310485,
      "v": 100
    },
    {
      "midi": 36,
      "hit": false,
      "t": 411904.782499992,
      "d": 412.69843333330937,
      "v": 112
    },
    {
      "midi": 58,
      "hit": false,
      "t": 411904.7825000005,
      "d": 214.28572500002338,
      "v": 100
    },
    {
      "midi": 51,
      "hit": false,
      "t": 411904.7825000067,
      "d": 79.36508333333768,
      "v": 100
    },
    {
      "midi": 58,
      "hit": false,
      "t": 411904.7825000067,
      "d": 79.36508333333768,
      "v": 100
    },
    {
      "midi": 54,
      "hit": false,
      "t": 412142.87774998246,
      "d": 7.936508333310485,
      "v": 60
    },
    {
      "midi": 66,
      "hit": false,
      "t": 412142.8777500005,
      "d": 214.28572500002338,
      "v": 100
    },
    {
      "midi": 56,
      "hit": false,
      "t": 412142.8777500014,
      "d": 634.9206666666432,
      "v": 119
    },
    {
      "midi": 61,
      "hit": false,
      "t": 412142.8777500014,
      "d": 634.9206666666432,
      "v": 119
    },
    {
      "midi": 65,
      "hit": false,
      "t": 412142.8777500014,
      "d": 634.9206666666432,
      "v": 119
    },
    {
      "midi": 54,
      "hit": false,
      "t": 412380.9729999824,
      "d": 7.936508333310485,
      "v": 100
    },
    {
      "midi": 40,
      "hit": false,
      "t": 412380.9729999824,
      "d": 7.936508333310485,
      "v": 122
    },
    {
      "midi": 42,
      "hit": false,
      "t": 412380.9729999824,
      "d": 7.936508333310485,
      "v": 100
    },
    {
      "midi": 36,
      "hit": false,
      "t": 412380.97299999197,
      "d": 412.69843333330937,
      "v": 112
    },
    {
      "midi": 63,
      "hit": false,
      "t": 412380.9730000005,
      "d": 214.28572500002338,
      "v": 100
    },
    {
      "midi": 51,
      "hit": false,
      "t": 412380.97300000675,
      "d": 79.36508333333768,
      "v": 100
    },
    {
      "midi": 58,
      "hit": false,
      "t": 412380.97300000675,
      "d": 79.36508333333768,
      "v": 100
    },
    {
      "midi": 54,
      "hit": false,
      "t": 412619.0682499824,
      "d": 7.936508333310485,
      "v": 60
    },
    {
      "midi": 58,
      "hit": false,
      "t": 412619.06825000054,
      "d": 214.28572500002338,
      "v": 100
    },
    {
      "midi": 54,
      "hit": false,
      "t": 412857.1634999823,
      "d": 7.936508333310485,
      "v": 60
    },
    {
      "midi": 42,
      "hit": false,
      "t": 412857.1634999823,
      "d": 7.936508333310485,
      "v": 100
    },
    {
      "midi": 36,
      "hit": false,
      "t": 412857.16349999193,
      "d": 412.69843333330937,
      "v": 112
    },
    {
      "midi": 65,
      "hit": false,
      "t": 412857.16350000055,
      "d": 214.28572500002338,
      "v": 100
    },
    {
      "midi": 54,
      "hit": false,
      "t": 412857.16350000136,
      "d": 873.0159166666563,
      "v": 119
    },
    {
      "midi": 58,
      "hit": false,
      "t": 412857.16350000136,
      "d": 873.0159166666563,
      "v": 119
    },
    {
      "midi": 63,
      "hit": false,
      "t": 412857.16350000136,
      "d": 873.0159166666563,
      "v": 119
    },
    {
      "midi": 51,
      "hit": false,
      "t": 412857.1635000068,
      "d": 436.50795833335724,
      "v": 115
    },
    {
      "midi": 58,
      "hit": false,
      "t": 412857.1635000068,
      "d": 436.50795833335724,
      "v": 115
    },
    {
      "midi": 54,
      "hit": false,
      "t": 413095.2587499823,
      "d": 7.936508333310485,
      "v": 60
    },
    {
      "midi": 63,
      "hit": false,
      "t": 413095.25875000056,
      "d": 214.28572500002338,
      "v": 100
    },
    {
      "midi": 54,
      "hit": false,
      "t": 413333.35399998224,
      "d": 7.936508333310485,
      "v": 100
    },
    {
      "midi": 40,
      "hit": false,
      "t": 413333.35399998224,
      "d": 7.936508333310485,
      "v": 122
    },
    {
      "midi": 42,
      "hit": false,
      "t": 413333.35399998224,
      "d": 7.936508333310485,
      "v": 100
    },
    {
      "midi": 36,
      "hit": false,
      "t": 413333.3539999919,
      "d": 412.69843333330937,
      "v": 112
    },
    {
      "midi": 70,
      "hit": false,
      "t": 413333.3540000006,
      "d": 214.28572500002338,
      "v": 100
    },
    {
      "midi": 51,
      "hit": false,
      "t": 413333.3540000068,
      "d": 79.36508333333768,
      "v": 100
    },
    {
      "midi": 58,
      "hit": false,
      "t": 413333.3540000068,
      "d": 79.36508333333768,
      "v": 100
    },
    {
      "midi": 54,
      "hit": false,
      "t": 413571.4492499822,
      "d": 7.936508333310485,
      "v": 60
    },
    {
      "midi": 65,
      "hit": false,
      "t": 413571.4492500006,
      "d": 214.28572500002338,
      "v": 100
    },
    {
      "midi": 2,
      "hit": false,
      "t": 413809.54449998215,
      "d": 7.936508333310485,
      "v": 117
    },
    {
      "midi": 42,
      "hit": false,
      "t": 413809.54449998215,
      "d": 7.936508333310485,
      "v": 100
    },
    {
      "midi": 54,
      "hit": false,
      "t": 413809.54449998215,
      "d": 7.936508333310485,
      "v": 60
    },
    {
      "midi": 46,
      "hit": false,
      "t": 413809.54449999187,
      "d": 412.69843333330937,
      "v": 112
    },
    {
      "midi": 63,
      "hit": false,
      "t": 413809.5445000006,
      "d": 214.28572500002338,
      "v": 100
    },
    {
      "midi": 63,
      "hit": false,
      "t": 413809.54450000136,
      "d": 198.4127083333442,
      "v": 119
    },
    {
      "midi": 75,
      "hit": false,
      "t": 413809.54450000136,
      "d": 198.4127083333442,
      "v": 119
    },
    {
      "midi": 58,
      "hit": false,
      "t": 413809.5445000068,
      "d": 79.36508333333768,
      "v": 100
    },
    {
      "midi": 51,
      "hit": false,
      "t": 413809.5445000068,
      "d": 79.36508333333768,
      "v": 100
    },
    {
      "midi": 54,
      "hit": false,
      "t": 414047.6397499821,
      "d": 7.936508333310485,
      "v": 60
    },
    {
      "midi": 70,
      "hit": false,
      "t": 414047.6397500006,
      "d": 214.28572500002338,
      "v": 100
    },
    {
      "midi": 63,
      "hit": false,
      "t": 414047.63975000137,
      "d": 198.4127083333442,
      "v": 119
    },
    {
      "midi": 75,
      "hit": false,
      "t": 414047.63975000137,
      "d": 198.4127083333442,
      "v": 119
    },
    {
      "midi": 54,
      "hit": false,
      "t": 414285.73499998206,
      "d": 7.936508333310485,
      "v": 100
    },
    {
      "midi": 40,
      "hit": false,
      "t": 414285.73499998206,
      "d": 7.936508333310485,
      "v": 122
    },
    {
      "midi": 42,
      "hit": false,
      "t": 414285.73499998206,
      "d": 7.936508333310485,
      "v": 100
    },
    {
      "midi": 49,
      "hit": false,
      "t": 414285.73499999184,
      "d": 412.69843333330937,
      "v": 112
    },
    {
      "midi": 66,
      "hit": false,
      "t": 414285.7350000006,
      "d": 214.28572500002338,
      "v": 100
    },
    {
      "midi": 78,
      "hit": false,
      "t": 414285.73500000464,
      "d": 277.7777916666819,
      "v": 125
    },
    {
      "midi": 51,
      "hit": false,
      "t": 414285.73500000685,
      "d": 436.50795833335724,
      "v": 115
    },
    {
      "midi": 58,
      "hit": false,
      "t": 414285.73500000685,
      "d": 436.50795833335724,
      "v": 115
    },
    {
      "midi": 54,
      "hit": false,
      "t": 414523.830249982,
      "d": 7.936508333310485,
      "v": 60
    },
    {
      "midi": 63,
      "hit": false,
      "t": 414523.83025000064,
      "d": 214.28572500002338,
      "v": 100
    },
    {
      "midi": 63,
      "hit": false,
      "t": 414523.8302500014,
      "d": 634.9206666666432,
      "v": 119
    },
    {
      "midi": 75,
      "hit": false,
      "t": 414523.8302500014,
      "d": 634.9206666666432,
      "v": 119
    },
    {
      "midi": 73,
      "hit": false,
      "t": 414523.83025000466,
      "d": 277.7777916666819,
      "v": 125
    },
    {
      "midi": 2,
      "hit": false,
      "t": 414761.92549998197,
      "d": 7.936508333310485,
      "v": 117
    },
    {
      "midi": 42,
      "hit": false,
      "t": 414761.92549998197,
      "d": 7.936508333310485,
      "v": 100
    },
    {
      "midi": 54,
      "hit": false,
      "t": 414761.92549998197,
      "d": 7.936508333310485,
      "v": 60
    },
    {
      "midi": 50,
      "hit": false,
      "t": 414761.9254999918,
      "d": 412.69843333330937,
      "v": 112
    },
    {
      "midi": 58,
      "hit": false,
      "t": 414761.92550000065,
      "d": 214.28572500002338,
      "v": 100
    },
    {
      "midi": 78,
      "hit": false,
      "t": 414761.92550000467,
      "d": 277.7777916666819,
      "v": 125
    },
    {
      "midi": 51,
      "hit": false,
      "t": 414761.9255000069,
      "d": 79.36508333333768,
      "v": 100
    },
    {
      "midi": 58,
      "hit": false,
      "t": 414761.9255000069,
      "d": 79.36508333333768,
      "v": 100
    },
    {
      "midi": 54,
      "hit": false,
      "t": 415000.0207499819,
      "d": 7.936508333310485,
      "v": 60
    },
    {
      "midi": 66,
      "hit": false,
      "t": 415000.02075000067,
      "d": 214.28572500002338,
      "v": 100
    },
    {
      "midi": 82,
      "hit": false,
      "t": 415000.0207500047,
      "d": 277.7777916666819,
      "v": 125
    },
    {
      "midi": 51,
      "hit": false,
      "t": 415000.0207500069,
      "d": 79.36508333333768,
      "v": 100
    },
    {
      "midi": 58,
      "hit": false,
      "t": 415000.0207500069,
      "d": 79.36508333333768,
      "v": 100
    },
    {
      "midi": 2,
      "hit": false,
      "t": 415238.1159999819,
      "d": 7.936508333310485,
      "v": 118
    },
    {
      "midi": 49,
      "hit": false,
      "t": 415238.1159999819,
      "d": 7.936508333310485,
      "v": 115
    },
    {
      "midi": 40,
      "hit": false,
      "t": 415238.1159999819,
      "d": 7.936508333310485,
      "v": 122
    },
    {
      "midi": 54,
      "hit": false,
      "t": 415238.1159999819,
      "d": 7.936508333310485,
      "v": 100
    },
    {
      "midi": 51,
      "hit": false,
      "t": 415238.1159999918,
      "d": 412.69843333330937,
      "v": 112
    },
    {
      "midi": 82,
      "hit": false,
      "t": 415238.1159999991,
      "d": 3793.650983333355,
      "v": 100
    },
    {
      "midi": 66,
      "hit": false,
      "t": 415238.1160000001,
      "d": 3793.650983333355,
      "v": 115
    },
    {
      "midi": 73,
      "hit": false,
      "t": 415238.1160000001,
      "d": 3793.650983333355,
      "v": 115
    },
    {
      "midi": 66,
      "hit": false,
      "t": 415238.1160000007,
      "d": 214.28572500002338,
      "v": 100
    },
    {
      "midi": 66,
      "hit": false,
      "t": 415238.1160000014,
      "d": 634.9206666666432,
      "v": 119
    },
    {
      "midi": 70,
      "hit": false,
      "t": 415238.1160000014,
      "d": 634.9206666666432,
      "v": 119
    },
    {
      "midi": 73,
      "hit": false,
      "t": 415238.1160000014,
      "d": 634.9206666666432,
      "v": 119
    },
    {
      "midi": 85,
      "hit": false,
      "t": 415238.1160000047,
      "d": 1412.6984833333408,
      "v": 127
    },
    {
      "midi": 51,
      "hit": false,
      "t": 415238.1160000069,
      "d": 436.50795833335724,
      "v": 115
    },
    {
      "midi": 58,
      "hit": false,
      "t": 415238.1160000069,
      "d": 436.50795833335724,
      "v": 115
    },
    {
      "midi": 54,
      "hit": false,
      "t": 415476.21124998183,
      "d": 7.936508333310485,
      "v": 60
    },
    {
      "midi": 58,
      "hit": false,
      "t": 415476.2112500007,
      "d": 214.28572500002338,
      "v": 100
    },
    {
      "midi": 54,
      "hit": false,
      "t": 415714.3064999818,
      "d": 7.936508333310485,
      "v": 60
    },
    {
      "midi": 42,
      "hit": false,
      "t": 415714.3064999818,
      "d": 7.936508333310485,
      "v": 100
    },
    {
      "midi": 46,
      "hit": false,
      "t": 415714.30649999174,
      "d": 412.69843333330937,
      "v": 112
    },
    {
      "midi": 58,
      "hit": false,
      "t": 415714.3065000007,
      "d": 214.28572500002338,
      "v": 100
    },
    {
      "midi": 51,
      "hit": false,
      "t": 415714.30650000693,
      "d": 79.36508333333768,
      "v": 100
    },
    {
      "midi": 58,
      "hit": false,
      "t": 415714.30650000693,
      "d": 79.36508333333768,
      "v": 100
    },
    {
      "midi": 54,
      "hit": false,
      "t": 415952.40174998174,
      "d": 7.936508333310485,
      "v": 60
    },
    {
      "midi": 66,
      "hit": false,
      "t": 415952.4017500007,
      "d": 214.28572500002338,
      "v": 100
    },
    {
      "midi": 65,
      "hit": false,
      "t": 415952.40175000136,
      "d": 634.9206666666432,
      "v": 119
    },
    {
      "midi": 68,
      "hit": false,
      "t": 415952.40175000136,
      "d": 634.9206666666432,
      "v": 119
    },
    {
      "midi": 73,
      "hit": false,
      "t": 415952.40175000136,
      "d": 634.9206666666432,
      "v": 119
    },
    {
      "midi": 54,
      "hit": false,
      "t": 416190.4969999817,
      "d": 7.936508333310485,
      "v": 100
    },
    {
      "midi": 40,
      "hit": false,
      "t": 416190.4969999817,
      "d": 7.936508333310485,
      "v": 122
    },
    {
      "midi": 42,
      "hit": false,
      "t": 416190.4969999817,
      "d": 7.936508333310485,
      "v": 100
    },
    {
      "midi": 39,
      "hit": false,
      "t": 416190.4969999917,
      "d": 412.69843333330937,
      "v": 112
    },
    {
      "midi": 63,
      "hit": false,
      "t": 416190.49700000073,
      "d": 214.28572500002338,
      "v": 100
    },
    {
      "midi": 51,
      "hit": false,
      "t": 416190.49700000696,
      "d": 79.36508333333768,
      "v": 100
    },
    {
      "midi": 58,
      "hit": false,
      "t": 416190.49700000696,
      "d": 79.36508333333768,
      "v": 100
    },
    {
      "midi": 54,
      "hit": false,
      "t": 416428.59224998165,
      "d": 7.936508333310485,
      "v": 60
    },
    {
      "midi": 58,
      "hit": false,
      "t": 416428.59225000074,
      "d": 214.28572500002338,
      "v": 100
    },
    {
      "midi": 54,
      "hit": false,
      "t": 416666.6874999816,
      "d": 7.936508333310485,
      "v": 60
    },
    {
      "midi": 40,
      "hit": false,
      "t": 416666.6874999816,
      "d": 7.936508333310485,
      "v": 122
    },
    {
      "midi": 2,
      "hit": false,
      "t": 416666.6874999816,
      "d": 7.936508333310485,
      "v": 117
    },
    {
      "midi": 42,
      "hit": false,
      "t": 416666.6874999816,
      "d": 7.936508333310485,
      "v": 100
    },
    {
      "midi": 34,
      "hit": false,
      "t": 416666.6874999917,
      "d": 412.69843333330937,
      "v": 112
    },
    {
      "midi": 65,
      "hit": false,
      "t": 416666.68750000076,
      "d": 214.28572500002338,
      "v": 100
    },
    {
      "midi": 66,
      "hit": false,
      "t": 416666.68750000134,
      "d": 873.0159166666563,
      "v": 119
    },
    {
      "midi": 70,
      "hit": false,
      "t": 416666.68750000134,
      "d": 873.0159166666563,
      "v": 119
    },
    {
      "midi": 73,
      "hit": false,
      "t": 416666.68750000134,
      "d": 873.0159166666563,
      "v": 119
    },
    {
      "midi": 85,
      "hit": false,
      "t": 416666.6875000047,
      "d": 928.5714750000043,
      "v": 127
    },
    {
      "midi": 51,
      "hit": false,
      "t": 416666.687500007,
      "d": 436.50795833335724,
      "v": 115
    },
    {
      "midi": 58,
      "hit": false,
      "t": 416666.687500007,
      "d": 436.50795833335724,
      "v": 115
    },
    {
      "midi": 54,
      "hit": false,
      "t": 416904.78274998156,
      "d": 7.936508333310485,
      "v": 60
    },
    {
      "midi": 40,
      "hit": false,
      "t": 416904.78274998156,
      "d": 7.936508333310485,
      "v": 122
    },
    {
      "midi": 63,
      "hit": false,
      "t": 416904.78275000077,
      "d": 214.28572500002338,
      "v": 100
    },
    {
      "midi": 54,
      "hit": false,
      "t": 417142.8779999815,
      "d": 7.936508333310485,
      "v": 100
    },
    {
      "midi": 47,
      "hit": false,
      "t": 417142.8779999815,
      "d": 7.936508333310485,
      "v": 122
    },
    {
      "midi": 42,
      "hit": false,
      "t": 417142.8779999815,
      "d": 7.936508333310485,
      "v": 100
    },
    {
      "midi": 39,
      "hit": false,
      "t": 417142.87799999164,
      "d": 412.69843333330937,
      "v": 112
    },
    {
      "midi": 70,
      "hit": false,
      "t": 417142.8780000008,
      "d": 214.28572500002338,
      "v": 100
    },
    {
      "midi": 51,
      "hit": false,
      "t": 417142.878000007,
      "d": 79.36508333333768,
      "v": 100
    },
    {
      "midi": 58,
      "hit": false,
      "t": 417142.878000007,
      "d": 79.36508333333768,
      "v": 100
    },
    {
      "midi": 54,
      "hit": false,
      "t": 417380.97324998147,
      "d": 7.936508333310485,
      "v": 60
    },
    {
      "midi": 65,
      "hit": false,
      "t": 417380.9732500008,
      "d": 214.28572500002338,
      "v": 100
    },
    {
      "midi": 2,
      "hit": false,
      "t": 417619.0684999814,
      "d": 7.936508333310485,
      "v": 117
    },
    {
      "midi": 42,
      "hit": false,
      "t": 417619.0684999814,
      "d": 7.936508333310485,
      "v": 100
    },
    {
      "midi": 54,
      "hit": false,
      "t": 417619.0684999814,
      "d": 7.936508333310485,
      "v": 60
    },
    {
      "midi": 39,
      "hit": false,
      "t": 417619.0684999916,
      "d": 412.69843333330937,
      "v": 112
    },
    {
      "midi": 63,
      "hit": false,
      "t": 417619.0685000008,
      "d": 214.28572500002338,
      "v": 100
    },
    {
      "midi": 65,
      "hit": false,
      "t": 417619.06850000133,
      "d": 198.4127083333442,
      "v": 119
    },
    {
      "midi": 75,
      "hit": false,
      "t": 417619.06850000133,
      "d": 198.4127083333442,
      "v": 119
    },
    {
      "midi": 85,
      "hit": false,
      "t": 417619.0685000047,
      "d": 1412.698483333399,
      "v": 127
    },
    {
      "midi": 58,
      "hit": false,
      "t": 417619.06850000704,
      "d": 79.36508333333768,
      "v": 100
    },
    {
      "midi": 51,
      "hit": false,
      "t": 417619.06850000704,
      "d": 79.36508333333768,
      "v": 100
    },
    {
      "midi": 54,
      "hit": false,
      "t": 417857.1637499814,
      "d": 7.936508333310485,
      "v": 60
    },
    {
      "midi": 70,
      "hit": false,
      "t": 417857.1637500008,
      "d": 214.28572500002338,
      "v": 100
    },
    {
      "midi": 65,
      "hit": false,
      "t": 417857.16375000135,
      "d": 198.4127083333442,
      "v": 119
    },
    {
      "midi": 75,
      "hit": false,
      "t": 417857.16375000135,
      "d": 198.4127083333442,
      "v": 119
    },
    {
      "midi": 54,
      "hit": false,
      "t": 418095.25899998134,
      "d": 7.936508333310485,
      "v": 100
    },
    {
      "midi": 45,
      "hit": false,
      "t": 418095.25899998134,
      "d": 7.936508333310485,
      "v": 122
    },
    {
      "midi": 42,
      "hit": false,
      "t": 418095.25899998134,
      "d": 7.936508333310485,
      "v": 100
    },
    {
      "midi": 39,
      "hit": false,
      "t": 418095.2589999916,
      "d": 412.69843333330937,
      "v": 112
    },
    {
      "midi": 70,
      "hit": false,
      "t": 418095.25900000083,
      "d": 214.28572500002338,
      "v": 100
    },
    {
      "midi": 51,
      "hit": false,
      "t": 418095.25900000706,
      "d": 436.50795833335724,
      "v": 115
    },
    {
      "midi": 58,
      "hit": false,
      "t": 418095.25900000706,
      "d": 436.50795833335724,
      "v": 115
    },
    {
      "midi": 54,
      "hit": false,
      "t": 418333.3542499813,
      "d": 7.936508333310485,
      "v": 60
    },
    {
      "midi": 63,
      "hit": false,
      "t": 418333.35425000085,
      "d": 214.28572500002338,
      "v": 100
    },
    {
      "midi": 65,
      "hit": false,
      "t": 418333.3542500014,
      "d": 634.9206666666432,
      "v": 119
    },
    {
      "midi": 75,
      "hit": false,
      "t": 418333.3542500014,
      "d": 634.9206666666432,
      "v": 119
    },
    {
      "midi": 2,
      "hit": false,
      "t": 418571.44949998125,
      "d": 7.936508333310485,
      "v": 117
    },
    {
      "midi": 43,
      "hit": false,
      "t": 418571.44949998125,
      "d": 7.936508333310485,
      "v": 122
    },
    {
      "midi": 54,
      "hit": false,
      "t": 418571.44949998125,
      "d": 7.936508333310485,
      "v": 60
    },
    {
      "midi": 42,
      "hit": false,
      "t": 418571.44949998125,
      "d": 7.936508333310485,
      "v": 100
    },
    {
      "midi": 39,
      "hit": false,
      "t": 418571.44949999155,
      "d": 412.69843333330937,
      "v": 112
    },
    {
      "midi": 73,
      "hit": false,
      "t": 418571.44950000086,
      "d": 214.28572500002338,
      "v": 100
    },
    {
      "midi": 51,
      "hit": false,
      "t": 418571.4495000071,
      "d": 79.36508333333768,
      "v": 100
    },
    {
      "midi": 58,
      "hit": false,
      "t": 418571.4495000071,
      "d": 79.36508333333768,
      "v": 100
    },
    {
      "midi": 54,
      "hit": false,
      "t": 418809.5447499812,
      "d": 7.936508333310485,
      "v": 60
    },
    {
      "midi": 70,
      "hit": false,
      "t": 418809.5447500009,
      "d": 214.28572500002338,
      "v": 100
    },
    {
      "midi": 51,
      "hit": false,
      "t": 418809.5447500071,
      "d": 79.36508333333768,
      "v": 100
    },
    {
      "midi": 58,
      "hit": false,
      "t": 418809.5447500071,
      "d": 79.36508333333768,
      "v": 100
    },
    {
      "midi": 84,
      "hit": false,
      "t": 419007.9574583381,
      "d": 1412.6984833333408,
      "v": 127
    },
    {
      "midi": 2,
      "hit": false,
      "t": 419047.63999998115,
      "d": 7.936508333310485,
      "v": 118
    },
    {
      "midi": 49,
      "hit": false,
      "t": 419047.63999998115,
      "d": 7.936508333310485,
      "v": 115
    },
    {
      "midi": 40,
      "hit": false,
      "t": 419047.63999998115,
      "d": 7.936508333310485,
      "v": 122
    },
    {
      "midi": 54,
      "hit": false,
      "t": 419047.63999998115,
      "d": 7.936508333310485,
      "v": 100
    },
    {
      "midi": 32,
      "hit": false,
      "t": 419047.6399999915,
      "d": 412.69843333330937,
      "v": 118
    },
    {
      "midi": 85,
      "hit": false,
      "t": 419047.63999999914,
      "d": 3793.650983333355,
      "v": 100
    },
    {
      "midi": 68,
      "hit": false,
      "t": 419047.64000000013,
      "d": 3793.650983333355,
      "v": 115
    },
    {
      "midi": 75,
      "hit": false,
      "t": 419047.64000000013,
      "d": 3793.650983333355,
      "v": 115
    },
    {
      "midi": 68,
      "hit": false,
      "t": 419047.6400000009,
      "d": 214.28572500002338,
      "v": 100
    },
    {
      "midi": 61,
      "hit": false,
      "t": 419047.64000000135,
      "d": 1349.2064166666823,
      "v": 119
    },
    {
      "midi": 66,
      "hit": false,
      "t": 419047.64000000135,
      "d": 1349.2064166666823,
      "v": 119
    },
    {
      "midi": 70,
      "hit": false,
      "t": 419047.64000000135,
      "d": 1349.2064166666823,
      "v": 119
    },
    {
      "midi": 44,
      "hit": false,
      "t": 419047.6400000071,
      "d": 436.50795833335724,
      "v": 115
    },
    {
      "midi": 51,
      "hit": false,
      "t": 419047.6400000071,
      "d": 436.50795833335724,
      "v": 115
    },
    {
      "midi": 54,
      "hit": false,
      "t": 419285.7352499811,
      "d": 7.936508333310485,
      "v": 60
    },
    {
      "midi": 73,
      "hit": false,
      "t": 419285.7352500009,
      "d": 214.28572500002338,
      "v": 100
    },
    {
      "midi": 54,
      "hit": false,
      "t": 419523.83049998106,
      "d": 7.936508333310485,
      "v": 60
    },
    {
      "midi": 42,
      "hit": false,
      "t": 419523.83049998106,
      "d": 7.936508333310485,
      "v": 100
    },
    {
      "midi": 32,
      "hit": false,
      "t": 419523.8304999915,
      "d": 412.69843333330937,
      "v": 112
    },
    {
      "midi": 56,
      "hit": false,
      "t": 419523.8305000009,
      "d": 214.28572500002338,
      "v": 100
    },
    {
      "midi": 44,
      "hit": false,
      "t": 419523.83050000714,
      "d": 79.36508333333768,
      "v": 100
    },
    {
      "midi": 51,
      "hit": false,
      "t": 419523.83050000714,
      "d": 79.36508333333768,
      "v": 100
    },
    {
      "midi": 54,
      "hit": false,
      "t": 419761.925749981,
      "d": 7.936508333310485,
      "v": 60
    },
    {
      "midi": 68,
      "hit": false,
      "t": 419761.9257500009,
      "d": 214.28572500002338,
      "v": 100
    },
    {
      "midi": 54,
      "hit": false,
      "t": 420000.020999981,
      "d": 7.936508333310485,
      "v": 100
    },
    {
      "midi": 40,
      "hit": false,
      "t": 420000.020999981,
      "d": 7.936508333310485,
      "v": 122
    },
    {
      "midi": 42,
      "hit": false,
      "t": 420000.020999981,
      "d": 7.936508333310485,
      "v": 100
    },
    {
      "midi": 32,
      "hit": false,
      "t": 420000.02099999145,
      "d": 412.69843333330937,
      "v": 112
    },
    {
      "midi": 61,
      "hit": false,
      "t": 420000.02100000094,
      "d": 214.28572500002338,
      "v": 100
    },
    {
      "midi": 44,
      "hit": false,
      "t": 420000.02100000717,
      "d": 79.36508333333768,
      "v": 100
    },
    {
      "midi": 51,
      "hit": false,
      "t": 420000.02100000717,
      "d": 79.36508333333768,
      "v": 100
    },
    {
      "midi": 54,
      "hit": false,
      "t": 420238.1162499809,
      "d": 7.936508333310485,
      "v": 60
    },
    {
      "midi": 56,
      "hit": false,
      "t": 420238.11625000095,
      "d": 214.28572500002338,
      "v": 100
    },
    {
      "midi": 54,
      "hit": false,
      "t": 420476.2114999809,
      "d": 7.936508333310485,
      "v": 60
    },
    {
      "midi": 42,
      "hit": false,
      "t": 420476.2114999809,
      "d": 7.936508333310485,
      "v": 100
    },
    {
      "midi": 32,
      "hit": false,
      "t": 420476.2114999914,
      "d": 412.69843333330937,
      "v": 112
    },
    {
      "midi": 63,
      "hit": false,
      "t": 420476.21150000097,
      "d": 214.28572500002338,
      "v": 100
    },
    {
      "midi": 58,
      "hit": false,
      "t": 420476.2115000014,
      "d": 873.0159166666563,
      "v": 119
    },
    {
      "midi": 61,
      "hit": false,
      "t": 420476.2115000014,
      "d": 873.0159166666563,
      "v": 119
    },
    {
      "midi": 66,
      "hit": false,
      "t": 420476.2115000014,
      "d": 873.0159166666563,
      "v": 119
    },
    {
      "midi": 84,
      "hit": false,
      "t": 420476.2115000048,
      "d": 928.5714750000043,
      "v": 127
    },
    {
      "midi": 44,
      "hit": false,
      "t": 420476.2115000072,
      "d": 436.50795833335724,
      "v": 115
    },
    {
      "midi": 51,
      "hit": false,
      "t": 420476.2115000072,
      "d": 436.50795833335724,
      "v": 115
    },
    {
      "midi": 54,
      "hit": false,
      "t": 420714.30674998084,
      "d": 7.936508333310485,
      "v": 60
    },
    {
      "midi": 61,
      "hit": false,
      "t": 420714.306750001,
      "d": 214.28572500002338,
      "v": 100
    },
    {
      "midi": 54,
      "hit": false,
      "t": 420952.4019999808,
      "d": 7.936508333310485,
      "v": 100
    },
    {
      "midi": 40,
      "hit": false,
      "t": 420952.4019999808,
      "d": 7.936508333310485,
      "v": 122
    },
    {
      "midi": 42,
      "hit": false,
      "t": 420952.4019999808,
      "d": 7.936508333310485,
      "v": 100
    },
    {
      "midi": 32,
      "hit": false,
      "t": 420952.4019999914,
      "d": 412.69843333330937,
      "v": 112
    },
    {
      "midi": 68,
      "hit": false,
      "t": 420952.402000001,
      "d": 214.28572500002338,
      "v": 100
    },
    {
      "midi": 44,
      "hit": false,
      "t": 420952.4020000072,
      "d": 79.36508333333768,
      "v": 100
    },
    {
      "midi": 51,
      "hit": false,
      "t": 420952.4020000072,
      "d": 79.36508333333768,
      "v": 100
    },
    {
      "midi": 54,
      "hit": false,
      "t": 421190.49724998075,
      "d": 7.936508333310485,
      "v": 60
    },
    {
      "midi": 63,
      "hit": false,
      "t": 421190.497250001,
      "d": 214.28572500002338,
      "v": 100
    },
    {
      "midi": 2,
      "hit": false,
      "t": 421428.5924999807,
      "d": 7.936508333310485,
      "v": 117
    },
    {
      "midi": 42,
      "hit": false,
      "t": 421428.5924999807,
      "d": 7.936508333310485,
      "v": 100
    },
    {
      "midi": 54,
      "hit": false,
      "t": 421428.5924999807,
      "d": 7.936508333310485,
      "v": 60
    },
    {
      "midi": 32,
      "hit": false,
      "t": 421428.59249999135,
      "d": 412.69843333330937,
      "v": 112
    },
    {
      "midi": 56,
      "hit": false,
      "t": 421428.592500001,
      "d": 214.28572500002338,
      "v": 100
    },
    {
      "midi": 54,
      "hit": false,
      "t": 421428.59250000137,
      "d": 1349.2064166666823,
      "v": 119
    },
    {
      "midi": 58,
      "hit": false,
      "t": 421428.59250000137,
      "d": 1349.2064166666823,
      "v": 119
    },
    {
      "midi": 61,
      "hit": false,
      "t": 421428.59250000137,
      "d": 1349.2064166666823,
      "v": 119
    },
    {
      "midi": 82,
      "hit": false,
      "t": 421428.5925000048,
      "d": 476.1905000000261,
      "v": 127
    },
    {
      "midi": 44,
      "hit": false,
      "t": 421428.59250000725,
      "d": 79.36508333333768,
      "v": 100
    },
    {
      "midi": 51,
      "hit": false,
      "t": 421428.59250000725,
      "d": 79.36508333333768,
      "v": 100
    },
    {
      "midi": 54,
      "hit": false,
      "t": 421666.68774998066,
      "d": 7.936508333310485,
      "v": 60
    },
    {
      "midi": 68,
      "hit": false,
      "t": 421666.68775000103,
      "d": 214.28572500002338,
      "v": 100
    },
    {
      "midi": 54,
      "hit": false,
      "t": 421904.7829999806,
      "d": 7.936508333310485,
      "v": 100
    },
    {
      "midi": 40,
      "hit": false,
      "t": 421904.7829999806,
      "d": 7.936508333310485,
      "v": 122
    },
    {
      "midi": 42,
      "hit": false,
      "t": 421904.7829999806,
      "d": 7.936508333310485,
      "v": 100
    },
    {
      "midi": 32,
      "hit": false,
      "t": 421904.7829999913,
      "d": 412.69843333330937,
      "v": 112
    },
    {
      "midi": 63,
      "hit": false,
      "t": 421904.78300000104,
      "d": 214.28572500002338,
      "v": 100
    },
    {
      "midi": 84,
      "hit": false,
      "t": 421904.7830000048,
      "d": 476.1905000000261,
      "v": 127
    },
    {
      "midi": 44,
      "hit": false,
      "t": 421904.7830000073,
      "d": 436.50795833335724,
      "v": 115
    },
    {
      "midi": 51,
      "hit": false,
      "t": 421904.7830000073,
      "d": 436.50795833335724,
      "v": 115
    },
    {
      "midi": 54,
      "hit": false,
      "t": 422142.87824998057,
      "d": 7.936508333310485,
      "v": 60
    },
    {
      "midi": 56,
      "hit": false,
      "t": 422142.87825000106,
      "d": 214.28572500002338,
      "v": 100
    },
    {
      "midi": 2,
      "hit": false,
      "t": 422380.9734999805,
      "d": 7.936508333310485,
      "v": 117
    },
    {
      "midi": 42,
      "hit": false,
      "t": 422380.9734999805,
      "d": 7.936508333310485,
      "v": 100
    },
    {
      "midi": 54,
      "hit": false,
      "t": 422380.9734999805,
      "d": 7.936508333310485,
      "v": 60
    },
    {
      "midi": 32,
      "hit": false,
      "t": 422380.9734999913,
      "d": 412.69843333330937,
      "v": 112
    },
    {
      "midi": 61,
      "hit": false,
      "t": 422380.97350000107,
      "d": 214.28572500002338,
      "v": 100
    },
    {
      "midi": 85,
      "hit": false,
      "t": 422380.97350000485,
      "d": 476.19049999996787,
      "v": 127
    },
    {
      "midi": 44,
      "hit": false,
      "t": 422380.9735000073,
      "d": 79.36508333333768,
      "v": 100
    },
    {
      "midi": 51,
      "hit": false,
      "t": 422380.9735000073,
      "d": 79.36508333333768,
      "v": 100
    },
    {
      "midi": 54,
      "hit": false,
      "t": 422619.0687499805,
      "d": 7.936508333310485,
      "v": 60
    },
    {
      "midi": 63,
      "hit": false,
      "t": 422619.0687500011,
      "d": 214.28572500002338,
      "v": 100
    },
    {
      "midi": 2,
      "hit": false,
      "t": 422857.16399998043,
      "d": 7.936508333310485,
      "v": 118
    },
    {
      "midi": 49,
      "hit": false,
      "t": 422857.16399998043,
      "d": 7.936508333310485,
      "v": 115
    },
    {
      "midi": 44,
      "hit": false,
      "t": 422857.16399999126,
      "d": 1825.3969166666502,
      "v": 112
    },
    {
      "midi": 84,
      "hit": false,
      "t": 422857.1639999992,
      "d": 1880.9524749999982,
      "v": 100
    },
    {
      "midi": 68,
      "hit": false,
      "t": 422857.16400000016,
      "d": 1880.9524749999982,
      "v": 115
    },
    {
      "midi": 75,
      "hit": false,
      "t": 422857.16400000016,
      "d": 1880.9524749999982,
      "v": 115
    },
    {
      "midi": 56,
      "hit": false,
      "t": 422857.1640000014,
      "d": 1825.3969166666502,
      "v": 119
    },
    {
      "midi": 60,
      "hit": false,
      "t": 422857.1640000014,
      "d": 1825.3969166666502,
      "v": 119
    },
    {
      "midi": 63,
      "hit": false,
      "t": 422857.1640000014,
      "d": 1825.3969166666502,
      "v": 119
    },
    {
      "midi": 87,
      "hit": false,
      "t": 422857.1640000048,
      "d": 1904.762000000046,
      "v": 127
    },
    {
      "midi": 44,
      "hit": false,
      "t": 422857.1640000073,
      "d": 1904.761999999988,
      "v": 115
    },
    {
      "midi": 51,
      "hit": false,
      "t": 422857.1640000073,
      "d": 1904.761999999988,
      "v": 115
    },
    {
      "midi": 57,
      "hit": false,
      "t": 424761.9259999804,
      "d": 7.936508333310485,
      "v": 70
    },
    {
      "midi": 45,
      "hit": false,
      "t": 424761.92599999125,
      "d": 1825.3969166666502,
      "v": 112
    },
    {
      "midi": 68,
      "hit": false,
      "t": 424761.926,
      "d": 873.0159166666563,
      "v": 90
    },
    {
      "midi": 72,
      "hit": false,
      "t": 424761.926,
      "d": 873.0159166666563,
      "v": 90
    },
    {
      "midi": 78,
      "hit": false,
      "t": 424761.926,
      "d": 873.0159166666563,
      "v": 90
    },
    {
      "midi": 78,
      "hit": false,
      "t": 424761.92600000335,
      "d": 912.6984583333251,
      "v": 116
    },
    {
      "midi": 74,
      "hit": false,
      "t": 424761.92600000487,
      "d": 198.4127083333442,
      "v": 85
    },
    {
      "midi": 57,
      "hit": false,
      "t": 424777.79901664704,
      "d": 7.936508333310485,
      "v": 70
    },
    {
      "midi": 57,
      "hit": false,
      "t": 424793.67203331366,
      "d": 7.936508333310485,
      "v": 71
    },
    {
      "midi": 57,
      "hit": false,
      "t": 424809.5450499803,
      "d": 7.936508333310485,
      "v": 71
    },
    {
      "midi": 57,
      "hit": false,
      "t": 424825.4180666469,
      "d": 7.936508333310485,
      "v": 72
    },
    {
      "midi": 57,
      "hit": false,
      "t": 424857.1640999802,
      "d": 7.936508333310485,
      "v": 72
    },
    {
      "midi": 57,
      "hit": false,
      "t": 424873.0371166468,
      "d": 7.936508333310485,
      "v": 72
    },
    {
      "midi": 57,
      "hit": false,
      "t": 424904.7831499801,
      "d": 7.936508333310485,
      "v": 75
    },
    {
      "midi": 73,
      "hit": false,
      "t": 424920.65616667154,
      "d": 198.4127083333442,
      "v": 80
    },
    {
      "midi": 57,
      "hit": false,
      "t": 424936.5291833134,
      "d": 7.936508333310485,
      "v": 75
    },
    {
      "midi": 57,
      "hit": false,
      "t": 424960.3387083134,
      "d": 7.936508333310485,
      "v": 75
    },
    {
      "midi": 57,
      "hit": false,
      "t": 425000.0212499801,
      "d": 7.936508333310485,
      "v": 75
    },
    {
      "midi": 57,
      "hit": false,
      "t": 425023.8307749801,
      "d": 7.936508333310485,
      "v": 75
    },
    {
      "midi": 57,
      "hit": false,
      "t": 425055.5768083134,
      "d": 7.936508333310485,
      "v": 75
    },
    {
      "midi": 71,
      "hit": false,
      "t": 425079.3863333382,
      "d": 198.4127083333442,
      "v": 77
    },
    {
      "midi": 57,
      "hit": false,
      "t": 425087.3228416467,
      "d": 7.936508333310485,
      "v": 75
    },
    {
      "midi": 57,
      "hit": false,
      "t": 425119.06887498,
      "d": 7.936508333310485,
      "v": 80
    },
    {
      "midi": 57,
      "hit": false,
      "t": 425142.87839997996,
      "d": 7.936508333310485,
      "v": 80
    },
    {
      "midi": 57,
      "hit": false,
      "t": 425174.62443331326,
      "d": 7.936508333310485,
      "v": 80
    },
    {
      "midi": 57,
      "hit": false,
      "t": 425190.4974499799,
      "d": 7.936508333310485,
      "v": 80
    },
    {
      "midi": 57,
      "hit": false,
      "t": 425222.2434833132,
      "d": 7.936508333310485,
      "v": 80
    },
    {
      "midi": 69,
      "hit": false,
      "t": 425238.1165000049,
      "d": 198.4127083333442,
      "v": 75
    },
    {
      "midi": 57,
      "hit": false,
      "t": 425261.92602497985,
      "d": 7.936508333310485,
      "v": 85
    },
    {
      "midi": 57,
      "hit": false,
      "t": 425293.67205831315,
      "d": 7.936508333310485,
      "v": 85
    },
    {
      "midi": 57,
      "hit": false,
      "t": 425325.41809164645,
      "d": 7.936508333310485,
      "v": 85
    },
    {
      "midi": 57,
      "hit": false,
      "t": 425357.16412497975,
      "d": 7.936508333310485,
      "v": 85
    },
    {
      "midi": 57,
      "hit": false,
      "t": 425380.97364997974,
      "d": 7.936508333310485,
      "v": 85
    },
    {
      "midi": 67,
      "hit": false,
      "t": 425396.84666667157,
      "d": 198.4127083333442,
      "v": 73
    },
    {
      "midi": 57,
      "hit": false,
      "t": 425412.71968331304,
      "d": 7.936508333310485,
      "v": 85
    },
    {
      "midi": 57,
      "hit": false,
      "t": 425460.338733313,
      "d": 7.936508333310485,
      "v": 85
    },
    {
      "midi": 57,
      "hit": false,
      "t": 425484.148258313,
      "d": 7.936508333310485,
      "v": 90
    },
    {
      "midi": 57,
      "hit": false,
      "t": 425539.7038166463,
      "d": 7.936508333310485,
      "v": 90
    },
    {
      "midi": 65,
      "hit": false,
      "t": 425555.57683333824,
      "d": 198.4127083333442,
      "v": 71
    },
    {
      "midi": 57,
      "hit": false,
      "t": 425579.386358313,
      "d": 7.936508333310485,
      "v": 90
    },
    {
      "midi": 57,
      "hit": false,
      "t": 425611.1323916463,
      "d": 7.936508333310485,
      "v": 90
    },
    {
      "midi": 57,
      "hit": false,
      "t": 425642.8784249796,
      "d": 7.936508333310485,
      "v": 90
    },
    {
      "midi": 57,
      "hit": false,
      "t": 425674.6244583129,
      "d": 7.936508333310485,
      "v": 90
    },
    {
      "midi": 57,
      "hit": false,
      "t": 425698.43398331286,
      "d": 7.936508333310485,
      "v": 96
    },
    {
      "midi": 57,
      "hit": false,
      "t": 425714.3069999795,
      "d": 7.936508333310485,
      "v": 96
    },
    {
      "midi": 71,
      "hit": false,
      "t": 425714.307,
      "d": 873.0159166666563,
      "v": 90
    },
    {
      "midi": 74,
      "hit": false,
      "t": 425714.307,
      "d": 873.0159166666563,
      "v": 90
    },
    {
      "midi": 79,
      "hit": false,
      "t": 425714.307,
      "d": 873.0159166666563,
      "v": 90
    },
    {
      "midi": 79,
      "hit": false,
      "t": 425714.30700000335,
      "d": 912.6984583333251,
      "v": 116
    },
    {
      "midi": 64,
      "hit": false,
      "t": 425714.3070000049,
      "d": 198.4127083333442,
      "v": 71
    },
    {
      "midi": 57,
      "hit": false,
      "t": 425730.1800166461,
      "d": 7.936508333310485,
      "v": 96
    },
    {
      "midi": 57,
      "hit": false,
      "t": 425746.0530333127,
      "d": 7.936508333310485,
      "v": 96
    },
    {
      "midi": 57,
      "hit": false,
      "t": 425761.92604997935,
      "d": 7.936508333310485,
      "v": 96
    },
    {
      "midi": 57,
      "hit": false,
      "t": 425777.79906664597,
      "d": 7.936508333310485,
      "v": 96
    },
    {
      "midi": 57,
      "hit": false,
      "t": 425809.54509997927,
      "d": 7.936508333310485,
      "v": 96
    },
    {
      "midi": 57,
      "hit": false,
      "t": 425825.4181166459,
      "d": 7.936508333310485,
      "v": 96
    },
    {
      "midi": 57,
      "hit": false,
      "t": 425857.1641499792,
      "d": 7.936508333310485,
      "v": 96
    },
    {
      "midi": 62,
      "hit": false,
      "t": 425873.0371666716,
      "d": 198.4127083333442,
      "v": 71
    },
    {
      "midi": 57,
      "hit": false,
      "t": 425888.9101833125,
      "d": 7.936508333310485,
      "v": 103
    },
    {
      "midi": 57,
      "hit": false,
      "t": 425912.7197083125,
      "d": 7.936508333310485,
      "v": 103
    },
    {
      "midi": 57,
      "hit": false,
      "t": 425952.40224997915,
      "d": 7.936508333310485,
      "v": 103
    },
    {
      "midi": 57,
      "hit": false,
      "t": 425976.21177497914,
      "d": 7.936508333310485,
      "v": 103
    },
    {
      "midi": 57,
      "hit": false,
      "t": 426007.95780831244,
      "d": 7.936508333310485,
      "v": 103
    },
    {
      "midi": 61,
      "hit": false,
      "t": 426031.76733333827,
      "d": 198.4127083333442,
      "v": 71
    },
    {
      "midi": 57,
      "hit": false,
      "t": 426039.70384164574,
      "d": 7.936508333310485,
      "v": 103
    },
    {
      "midi": 57,
      "hit": false,
      "t": 426071.44987497904,
      "d": 7.936508333310485,
      "v": 110
    },
    {
      "midi": 57,
      "hit": false,
      "t": 426095.259399979,
      "d": 7.936508333310485,
      "v": 110
    },
    {
      "midi": 57,
      "hit": false,
      "t": 426127.0054333123,
      "d": 7.936508333310485,
      "v": 110
    },
    {
      "midi": 57,
      "hit": false,
      "t": 426142.87844997895,
      "d": 7.936508333310485,
      "v": 110
    },
    {
      "midi": 57,
      "hit": false,
      "t": 426174.62448331225,
      "d": 7.936508333310485,
      "v": 110
    },
    {
      "midi": 62,
      "hit": false,
      "t": 426190.49750000495,
      "d": 460.3174833333469,
      "v": 77
    },
    {
      "midi": 57,
      "hit": false,
      "t": 426214.3070249789,
      "d": 7.936508333310485,
      "v": 110
    },
    {
      "midi": 57,
      "hit": false,
      "t": 426246.0530583122,
      "d": 7.936508333310485,
      "v": 110
    },
    {
      "midi": 57,
      "hit": false,
      "t": 426277.7990916455,
      "d": 7.936508333310485,
      "v": 115
    },
    {
      "midi": 57,
      "hit": false,
      "t": 426309.5451249788,
      "d": 7.936508333310485,
      "v": 115
    },
    {
      "midi": 57,
      "hit": false,
      "t": 426333.3546499788,
      "d": 7.936508333310485,
      "v": 115
    },
    {
      "midi": 57,
      "hit": false,
      "t": 426365.1006833121,
      "d": 7.936508333310485,
      "v": 115
    },
    {
      "midi": 57,
      "hit": false,
      "t": 426412.7197333121,
      "d": 7.936508333310485,
      "v": 118
    },
    {
      "midi": 57,
      "hit": false,
      "t": 426436.5292583121,
      "d": 7.936508333310485,
      "v": 118
    },
    {
      "midi": 57,
      "hit": false,
      "t": 426492.08481664537,
      "d": 7.936508333310485,
      "v": 118
    },
    {
      "midi": 57,
      "hit": false,
      "t": 426531.76735831203,
      "d": 7.936508333310485,
      "v": 118
    },
    {
      "midi": 57,
      "hit": false,
      "t": 426563.51339164533,
      "d": 7.936508333310485,
      "v": 120
    },
    {
      "midi": 57,
      "hit": false,
      "t": 426595.25942497863,
      "d": 7.936508333310485,
      "v": 120
    },
    {
      "midi": 57,
      "hit": false,
      "t": 426627.00545831193,
      "d": 7.936508333310485,
      "v": 125
    },
    {
      "midi": 57,
      "hit": false,
      "t": 426650.8149833119,
      "d": 7.936508333310485,
      "v": 127
    },
    {
      "midi": 57,
      "hit": false,
      "t": 426666.68799997855,
      "d": 7.936508333310485,
      "v": 127
    },
    {
      "midi": 78,
      "hit": false,
      "t": 426666.68799999973,
      "d": 238.09525000001304,
      "v": 110
    },
    {
      "midi": 78,
      "hit": false,
      "t": 426666.68799999973,
      "d": 238.09525000001304,
      "v": 110
    },
    {
      "midi": 69,
      "hit": false,
      "t": 426666.68799999997,
      "d": 436.50795833335724,
      "v": 120
    },
    {
      "midi": 74,
      "hit": false,
      "t": 426666.68799999997,
      "d": 436.50795833335724,
      "v": 115
    },
    {
      "midi": 78,
      "hit": false,
      "t": 426666.68799999997,
      "d": 436.50795833335724,
      "v": 115
    },
    {
      "midi": 69,
      "hit": false,
      "t": 426666.6880000001,
      "d": 3785.714474999986,
      "v": 100
    },
    {
      "midi": 78,
      "hit": false,
      "t": 426666.6880000001,
      "d": 3785.714474999986,
      "v": 100
    },
    {
      "midi": 76,
      "hit": false,
      "t": 426666.6880000001,
      "d": 3785.714474999986,
      "v": 100
    },
    {
      "midi": 74,
      "hit": false,
      "t": 426666.6880000001,
      "d": 3785.714474999986,
      "v": 100
    },
    {
      "midi": 38,
      "hit": false,
      "t": 426666.68800000113,
      "d": 404.7619249999989,
      "v": 100
    },
    {
      "midi": 81,
      "hit": false,
      "t": 426666.68800000334,
      "d": 1674.6032583334018,
      "v": 116
    },
    {
      "midi": 50,
      "hit": false,
      "t": 426690.49752500496,
      "d": 1904.762000000046,
      "v": 80
    },
    {
      "midi": 57,
      "hit": false,
      "t": 426746.0530833119,
      "d": 7.936508333310485,
      "v": 127
    },
    {
      "midi": 57,
      "hit": false,
      "t": 426825.4181666452,
      "d": 7.936508333310485,
      "v": 127
    },
    {
      "midi": 78,
      "hit": false,
      "t": 426904.78324999975,
      "d": 238.09525000001304,
      "v": 80
    },
    {
      "midi": 78,
      "hit": false,
      "t": 426904.78324999975,
      "d": 238.09525000001304,
      "v": 80
    },
    {
      "midi": 38,
      "hit": false,
      "t": 427142.87850000116,
      "d": 404.7619249999989,
      "v": 100
    },
    {
      "midi": 74,
      "hit": false,
      "t": 427380.9737499998,
      "d": 238.09525000001304,
      "v": 110
    },
    {
      "midi": 74,
      "hit": false,
      "t": 427380.9737499998,
      "d": 238.09525000001304,
      "v": 110
    },
    {
      "midi": 74,
      "hit": false,
      "t": 427619.0689999998,
      "d": 238.09525000001304,
      "v": 80
    },
    {
      "midi": 74,
      "hit": false,
      "t": 427619.0689999998,
      "d": 238.09525000001304,
      "v": 80
    },
    {
      "midi": 69,
      "hit": false,
      "t": 427619.069,
      "d": 436.50795833335724,
      "v": 110
    },
    {
      "midi": 74,
      "hit": false,
      "t": 427619.069,
      "d": 436.50795833335724,
      "v": 105
    },
    {
      "midi": 78,
      "hit": false,
      "t": 427619.069,
      "d": 436.50795833335724,
      "v": 105
    },
    {
      "midi": 38,
      "hit": false,
      "t": 427619.0690000012,
      "d": 404.7619249999989,
      "v": 100
    },
    {
      "midi": 69,
      "hit": false,
      "t": 428095.2594999998,
      "d": 238.09525000001304,
      "v": 110
    },
    {
      "midi": 69,
      "hit": false,
      "t": 428095.2594999998,
      "d": 238.09525000001304,
      "v": 110
    },
    {
      "midi": 38,
      "hit": false,
      "t": 428095.2595000012,
      "d": 404.7619249999989,
      "v": 100
    },
    {
      "midi": 69,
      "hit": false,
      "t": 428333.3547499998,
      "d": 238.09525000001304,
      "v": 80
    },
    {
      "midi": 69,
      "hit": false,
      "t": 428333.3547499998,
      "d": 238.09525000001304,
      "v": 80
    },
    {
      "midi": 78,
      "hit": false,
      "t": 428571.44999999984,
      "d": 238.09525000001304,
      "v": 110
    },
    {
      "midi": 78,
      "hit": false,
      "t": 428571.44999999984,
      "d": 238.09525000001304,
      "v": 110
    },
    {
      "midi": 69,
      "hit": false,
      "t": 428571.45000000007,
      "d": 436.50795833335724,
      "v": 100
    },
    {
      "midi": 74,
      "hit": false,
      "t": 428571.45000000007,
      "d": 436.50795833335724,
      "v": 95
    },
    {
      "midi": 78,
      "hit": false,
      "t": 428571.45000000007,
      "d": 436.50795833335724,
      "v": 95
    },
    {
      "midi": 38,
      "hit": false,
      "t": 428571.45000000123,
      "d": 404.7619249999989,
      "v": 100
    },
    {
      "midi": 81,
      "hit": false,
      "t": 428571.4500000034,
      "d": 420.63494166667806,
      "v": 116
    },
    {
      "midi": 78,
      "hit": false,
      "t": 428809.54524999985,
      "d": 238.09525000001304,
      "v": 80
    },
    {
      "midi": 78,
      "hit": false,
      "t": 428809.54524999985,
      "d": 238.09525000001304,
      "v": 80
    },
    {
      "midi": 38,
      "hit": false,
      "t": 429047.64050000126,
      "d": 404.7619249999989,
      "v": 100
    },
    {
      "midi": 79,
      "hit": false,
      "t": 429047.6405000034,
      "d": 420.63494166667806,
      "v": 116
    },
    {
      "midi": 74,
      "hit": false,
      "t": 429285.7357499999,
      "d": 222.22223333333386,
      "v": 100
    },
    {
      "midi": 74,
      "hit": false,
      "t": 429285.7357499999,
      "d": 222.22223333333386,
      "v": 100
    },
    {
      "midi": 74,
      "hit": false,
      "t": 429523.8309999999,
      "d": 238.09525000001304,
      "v": 80
    },
    {
      "midi": 74,
      "hit": false,
      "t": 429523.8309999999,
      "d": 238.09525000001304,
      "v": 80
    },
    {
      "midi": 69,
      "hit": false,
      "t": 429523.8310000001,
      "d": 436.50795833335724,
      "v": 95
    },
    {
      "midi": 74,
      "hit": false,
      "t": 429523.8310000001,
      "d": 436.50795833335724,
      "v": 90
    },
    {
      "midi": 78,
      "hit": false,
      "t": 429523.8310000001,
      "d": 436.50795833335724,
      "v": 90
    },
    {
      "midi": 38,
      "hit": false,
      "t": 429523.8310000013,
      "d": 404.7619249999989,
      "v": 100
    },
    {
      "midi": 78,
      "hit": false,
      "t": 429523.83100000344,
      "d": 420.63494166667806,
      "v": 116
    },
    {
      "midi": 69,
      "hit": false,
      "t": 430000.0214999999,
      "d": 238.09525000001304,
      "v": 100
    },
    {
      "midi": 69,
      "hit": false,
      "t": 430000.0214999999,
      "d": 238.09525000001304,
      "v": 100
    },
    {
      "midi": 38,
      "hit": false,
      "t": 430000.0215000013,
      "d": 404.7619249999989,
      "v": 100
    },
    {
      "midi": 79,
      "hit": false,
      "t": 430000.02150000347,
      "d": 420.63494166667806,
      "v": 116
    },
    {
      "midi": 69,
      "hit": false,
      "t": 430238.1167499999,
      "d": 238.09525000001304,
      "v": 80
    },
    {
      "midi": 69,
      "hit": false,
      "t": 430238.1167499999,
      "d": 238.09525000001304,
      "v": 80
    },
    {
      "midi": 76,
      "hit": false,
      "t": 430476.21199999994,
      "d": 238.09525000001304,
      "v": 110
    },
    {
      "midi": 76,
      "hit": false,
      "t": 430476.21199999994,
      "d": 238.09525000001304,
      "v": 110
    },
    {
      "midi": 73,
      "hit": false,
      "t": 430476.21200000006,
      "d": 2857.142999999982,
      "v": 100
    },
    {
      "midi": 76,
      "hit": false,
      "t": 430476.21200000006,
      "d": 2857.142999999982,
      "v": 100
    },
    {
      "midi": 81,
      "hit": false,
      "t": 430476.21200000006,
      "d": 2857.142999999982,
      "v": 100
    },
    {
      "midi": 69,
      "hit": false,
      "t": 430476.2120000002,
      "d": 436.50795833335724,
      "v": 120
    },
    {
      "midi": 73,
      "hit": false,
      "t": 430476.2120000002,
      "d": 436.50795833335724,
      "v": 115
    },
    {
      "midi": 76,
      "hit": false,
      "t": 430476.2120000002,
      "d": 436.50795833335724,
      "v": 115
    },
    {
      "midi": 33,
      "hit": false,
      "t": 430476.21200000134,
      "d": 404.7619249999989,
      "v": 100
    },
    {
      "midi": 81,
      "hit": false,
      "t": 430476.2120000035,
      "d": 1269.8413333333447,
      "v": 116
    },
    {
      "midi": 76,
      "hit": false,
      "t": 430714.30724999995,
      "d": 238.09525000001304,
      "v": 80
    },
    {
      "midi": 76,
      "hit": false,
      "t": 430714.30724999995,
      "d": 238.09525000001304,
      "v": 80
    },
    {
      "midi": 33,
      "hit": false,
      "t": 430952.40250000136,
      "d": 404.7619249999989,
      "v": 100
    },
    {
      "midi": 73,
      "hit": false,
      "t": 431190.49775,
      "d": 238.09525000001304,
      "v": 110
    },
    {
      "midi": 73,
      "hit": false,
      "t": 431190.49775,
      "d": 238.09525000001304,
      "v": 110
    },
    {
      "midi": 73,
      "hit": false,
      "t": 431428.593,
      "d": 238.09525000001304,
      "v": 80
    },
    {
      "midi": 73,
      "hit": false,
      "t": 431428.593,
      "d": 238.09525000001304,
      "v": 80
    },
    {
      "midi": 69,
      "hit": false,
      "t": 431428.5930000002,
      "d": 436.50795833335724,
      "v": 110
    },
    {
      "midi": 73,
      "hit": false,
      "t": 431428.5930000002,
      "d": 436.50795833335724,
      "v": 105
    },
    {
      "midi": 76,
      "hit": false,
      "t": 431428.5930000002,
      "d": 436.50795833335724,
      "v": 105
    },
    {
      "midi": 33,
      "hit": false,
      "t": 431428.5930000014,
      "d": 404.7619249999989,
      "v": 100
    },
    {
      "midi": 69,
      "hit": false,
      "t": 431904.7835,
      "d": 238.09525000001304,
      "v": 110
    },
    {
      "midi": 69,
      "hit": false,
      "t": 431904.7835,
      "d": 238.09525000001304,
      "v": 110
    },
    {
      "midi": 33,
      "hit": false,
      "t": 431904.7835000014,
      "d": 404.7619249999989,
      "v": 100
    },
    {
      "midi": 76,
      "hit": false,
      "t": 431904.7835000035,
      "d": 420.63494166667806,
      "v": 116
    },
    {
      "midi": 69,
      "hit": false,
      "t": 432142.87875000003,
      "d": 238.09525000001304,
      "v": 80
    },
    {
      "midi": 69,
      "hit": false,
      "t": 432142.87875000003,
      "d": 238.09525000001304,
      "v": 80
    },
    {
      "midi": 76,
      "hit": false,
      "t": 432380.97400000005,
      "d": 238.09525000001304,
      "v": 110
    },
    {
      "midi": 76,
      "hit": false,
      "t": 432380.97400000005,
      "d": 238.09525000001304,
      "v": 110
    },
    {
      "midi": 69,
      "hit": false,
      "t": 432380.9740000003,
      "d": 436.50795833335724,
      "v": 100
    },
    {
      "midi": 73,
      "hit": false,
      "t": 432380.9740000003,
      "d": 436.50795833335724,
      "v": 95
    },
    {
      "midi": 76,
      "hit": false,
      "t": 432380.9740000003,
      "d": 436.50795833335724,
      "v": 95
    },
    {
      "midi": 33,
      "hit": false,
      "t": 432380.97400000144,
      "d": 404.7619249999989,
      "v": 100
    },
    {
      "midi": 76,
      "hit": false,
      "t": 432380.97400000354,
      "d": 753.9682916666497,
      "v": 116
    },
    {
      "midi": 76,
      "hit": false,
      "t": 432619.06925000006,
      "d": 238.09525000001304,
      "v": 80
    },
    {
      "midi": 76,
      "hit": false,
      "t": 432619.06925000006,
      "d": 238.09525000001304,
      "v": 80
    },
    {
      "midi": 33,
      "hit": false,
      "t": 432857.16450000147,
      "d": 404.7619249999989,
      "v": 100
    },
    {
      "midi": 73,
      "hit": false,
      "t": 433095.2597500001,
      "d": 222.22223333333386,
      "v": 100
    },
    {
      "midi": 73,
      "hit": false,
      "t": 433095.2597500001,
      "d": 222.22223333333386,
      "v": 100
    },
    {
      "midi": 71,
      "hit": false,
      "t": 433333.35500000004,
      "d": 952.380999999994,
      "v": 100
    },
    {
      "midi": 73,
      "hit": false,
      "t": 433333.35500000004,
      "d": 952.380999999994,
      "v": 100
    },
    {
      "midi": 76,
      "hit": false,
      "t": 433333.35500000004,
      "d": 952.380999999994,
      "v": 100
    },
    {
      "midi": 73,
      "hit": false,
      "t": 433333.3550000001,
      "d": 238.09525000001304,
      "v": 80
    },
    {
      "midi": 73,
      "hit": false,
      "t": 433333.3550000001,
      "d": 238.09525000001304,
      "v": 80
    },
    {
      "midi": 69,
      "hit": false,
      "t": 433333.35500000033,
      "d": 436.50795833335724,
      "v": 95
    },
    {
      "midi": 73,
      "hit": false,
      "t": 433333.35500000033,
      "d": 436.50795833335724,
      "v": 90
    },
    {
      "midi": 76,
      "hit": false,
      "t": 433333.35500000033,
      "d": 436.50795833335724,
      "v": 90
    },
    {
      "midi": 33,
      "hit": false,
      "t": 433333.3550000015,
      "d": 404.7619249999989,
      "v": 100
    },
    {
      "midi": 78,
      "hit": false,
      "t": 433333.35500000353,
      "d": 420.63494166667806,
      "v": 116
    },
    {
      "midi": 69,
      "hit": false,
      "t": 433809.5455000001,
      "d": 238.09525000001304,
      "v": 100
    },
    {
      "midi": 69,
      "hit": false,
      "t": 433809.5455000001,
      "d": 238.09525000001304,
      "v": 100
    },
    {
      "midi": 33,
      "hit": false,
      "t": 433809.5455000015,
      "d": 404.7619249999989,
      "v": 100
    },
    {
      "midi": 76,
      "hit": false,
      "t": 433809.54550000356,
      "d": 420.63494166667806,
      "v": 116
    },
    {
      "midi": 69,
      "hit": false,
      "t": 434047.64075000014,
      "d": 238.09525000001304,
      "v": 80
    },
    {
      "midi": 69,
      "hit": false,
      "t": 434047.64075000014,
      "d": 238.09525000001304,
      "v": 80
    },
    {
      "midi": 69,
      "hit": false,
      "t": 434285.73600000003,
      "d": 3785.714474999986,
      "v": 100
    },
    {
      "midi": 74,
      "hit": false,
      "t": 434285.73600000003,
      "d": 3785.714474999986,
      "v": 100
    },
    {
      "midi": 78,
      "hit": false,
      "t": 434285.73600000003,
      "d": 3785.714474999986,
      "v": 100
    },
    {
      "midi": 78,
      "hit": false,
      "t": 434285.73600000015,
      "d": 238.09525000001304,
      "v": 110
    },
    {
      "midi": 78,
      "hit": false,
      "t": 434285.73600000015,
      "d": 238.09525000001304,
      "v": 110
    },
    {
      "midi": 69,
      "hit": false,
      "t": 434285.7360000004,
      "d": 436.50795833335724,
      "v": 120
    },
    {
      "midi": 74,
      "hit": false,
      "t": 434285.7360000004,
      "d": 436.50795833335724,
      "v": 115
    },
    {
      "midi": 78,
      "hit": false,
      "t": 434285.7360000004,
      "d": 436.50795833335724,
      "v": 115
    },
    {
      "midi": 35,
      "hit": false,
      "t": 434285.73600000155,
      "d": 404.7619249999989,
      "v": 100
    },
    {
      "midi": 74,
      "hit": false,
      "t": 434285.7360000036,
      "d": 420.63494166667806,
      "v": 116
    },
    {
      "midi": 78,
      "hit": false,
      "t": 434523.83125000016,
      "d": 238.09525000001304,
      "v": 80
    },
    {
      "midi": 78,
      "hit": false,
      "t": 434523.83125000016,
      "d": 238.09525000001304,
      "v": 80
    },
    {
      "midi": 35,
      "hit": false,
      "t": 434761.9265000016,
      "d": 404.7619249999989,
      "v": 100
    },
    {
      "midi": 74,
      "hit": false,
      "t": 434761.9265000036,
      "d": 873.0159166666563,
      "v": 116
    },
    {
      "midi": 74,
      "hit": false,
      "t": 435000.0217500002,
      "d": 238.09525000001304,
      "v": 110
    },
    {
      "midi": 74,
      "hit": false,
      "t": 435000.0217500002,
      "d": 238.09525000001304,
      "v": 110
    },
    {
      "midi": 74,
      "hit": false,
      "t": 435238.1170000002,
      "d": 238.09525000001304,
      "v": 80
    },
    {
      "midi": 74,
      "hit": false,
      "t": 435238.1170000002,
      "d": 238.09525000001304,
      "v": 80
    },
    {
      "midi": 69,
      "hit": false,
      "t": 435238.11700000043,
      "d": 436.50795833335724,
      "v": 110
    },
    {
      "midi": 74,
      "hit": false,
      "t": 435238.11700000043,
      "d": 436.50795833335724,
      "v": 105
    },
    {
      "midi": 78,
      "hit": false,
      "t": 435238.11700000043,
      "d": 436.50795833335724,
      "v": 105
    },
    {
      "midi": 35,
      "hit": false,
      "t": 435238.1170000016,
      "d": 404.7619249999989,
      "v": 100
    },
    {
      "midi": 69,
      "hit": false,
      "t": 435714.3075000002,
      "d": 238.09525000001304,
      "v": 110
    },
    {
      "midi": 69,
      "hit": false,
      "t": 435714.3075000002,
      "d": 238.09525000001304,
      "v": 110
    },
    {
      "midi": 35,
      "hit": false,
      "t": 435714.3075000016,
      "d": 404.7619249999989,
      "v": 100
    },
    {
      "midi": 73,
      "hit": false,
      "t": 435714.3075000036,
      "d": 420.63494166667806,
      "v": 116
    },
    {
      "midi": 69,
      "hit": false,
      "t": 435952.40275000024,
      "d": 238.09525000001304,
      "v": 80
    },
    {
      "midi": 69,
      "hit": false,
      "t": 435952.40275000024,
      "d": 238.09525000001304,
      "v": 80
    },
    {
      "midi": 78,
      "hit": false,
      "t": 436190.49800000025,
      "d": 238.09525000001304,
      "v": 110
    },
    {
      "midi": 78,
      "hit": false,
      "t": 436190.49800000025,
      "d": 238.09525000001304,
      "v": 110
    },
    {
      "midi": 69,
      "hit": false,
      "t": 436190.4980000005,
      "d": 436.50795833335724,
      "v": 100
    },
    {
      "midi": 74,
      "hit": false,
      "t": 436190.4980000005,
      "d": 436.50795833335724,
      "v": 95
    },
    {
      "midi": 78,
      "hit": false,
      "t": 436190.4980000005,
      "d": 436.50795833335724,
      "v": 95
    },
    {
      "midi": 35,
      "hit": false,
      "t": 436190.49800000165,
      "d": 404.7619249999989,
      "v": 100
    },
    {
      "midi": 74,
      "hit": false,
      "t": 436190.49800000363,
      "d": 420.63494166667806,
      "v": 116
    },
    {
      "midi": 78,
      "hit": false,
      "t": 436428.59325000027,
      "d": 238.09525000001304,
      "v": 80
    },
    {
      "midi": 78,
      "hit": false,
      "t": 436428.59325000027,
      "d": 238.09525000001304,
      "v": 80
    },
    {
      "midi": 35,
      "hit": false,
      "t": 436666.6885000017,
      "d": 404.7619249999989,
      "v": 100
    },
    {
      "midi": 76,
      "hit": false,
      "t": 436666.68850000366,
      "d": 420.63494166667806,
      "v": 116
    },
    {
      "midi": 74,
      "hit": false,
      "t": 436904.7837500003,
      "d": 222.22223333333386,
      "v": 100
    },
    {
      "midi": 74,
      "hit": false,
      "t": 436904.7837500003,
      "d": 222.22223333333386,
      "v": 100
    },
    {
      "midi": 74,
      "hit": false,
      "t": 437142.8790000003,
      "d": 238.09525000001304,
      "v": 80
    },
    {
      "midi": 74,
      "hit": false,
      "t": 437142.8790000003,
      "d": 238.09525000001304,
      "v": 80
    },
    {
      "midi": 69,
      "hit": false,
      "t": 437142.87900000054,
      "d": 436.50795833335724,
      "v": 95
    },
    {
      "midi": 74,
      "hit": false,
      "t": 437142.87900000054,
      "d": 436.50795833335724,
      "v": 90
    },
    {
      "midi": 78,
      "hit": false,
      "t": 437142.87900000054,
      "d": 436.50795833335724,
      "v": 90
    },
    {
      "midi": 35,
      "hit": false,
      "t": 437142.8790000017,
      "d": 404.7619249999989,
      "v": 100
    },
    {
      "midi": 78,
      "hit": false,
      "t": 437142.8790000037,
      "d": 420.63494166667806,
      "v": 116
    },
    {
      "midi": 69,
      "hit": false,
      "t": 437619.06950000033,
      "d": 238.09525000001304,
      "v": 100
    },
    {
      "midi": 69,
      "hit": false,
      "t": 437619.06950000033,
      "d": 238.09525000001304,
      "v": 100
    },
    {
      "midi": 35,
      "hit": false,
      "t": 437619.06950000173,
      "d": 404.7619249999989,
      "v": 100
    },
    {
      "midi": 83,
      "hit": false,
      "t": 437619.0695000037,
      "d": 420.63494166667806,
      "v": 116
    },
    {
      "midi": 69,
      "hit": false,
      "t": 437857.16475000035,
      "d": 238.09525000001304,
      "v": 80
    },
    {
      "midi": 69,
      "hit": false,
      "t": 437857.16475000035,
      "d": 238.09525000001304,
      "v": 80
    },
    {
      "midi": 73,
      "hit": false,
      "t": 438095.26,
      "d": 3785.714474999986,
      "v": 100
    },
    {
      "midi": 76,
      "hit": false,
      "t": 438095.26,
      "d": 3785.714474999986,
      "v": 100
    },
    {
      "midi": 81,
      "hit": false,
      "t": 438095.26,
      "d": 3785.714474999986,
      "v": 100
    },
    {
      "midi": 76,
      "hit": false,
      "t": 438095.26000000036,
      "d": 238.09525000001304,
      "v": 110
    },
    {
      "midi": 76,
      "hit": false,
      "t": 438095.26000000036,
      "d": 238.09525000001304,
      "v": 110
    },
    {
      "midi": 69,
      "hit": false,
      "t": 438095.2600000006,
      "d": 436.50795833335724,
      "v": 120
    },
    {
      "midi": 73,
      "hit": false,
      "t": 438095.2600000006,
      "d": 436.50795833335724,
      "v": 115
    },
    {
      "midi": 76,
      "hit": false,
      "t": 438095.2600000006,
      "d": 436.50795833335724,
      "v": 115
    },
    {
      "midi": 30,
      "hit": false,
      "t": 438095.26000000176,
      "d": 404.7619249999989,
      "v": 100
    },
    {
      "midi": 81,
      "hit": false,
      "t": 438095.26000000373,
      "d": 2380.952500000014,
      "v": 116
    },
    {
      "midi": 76,
      "hit": false,
      "t": 438333.3552500004,
      "d": 238.09525000001304,
      "v": 80
    },
    {
      "midi": 76,
      "hit": false,
      "t": 438333.3552500004,
      "d": 238.09525000001304,
      "v": 80
    },
    {
      "midi": 30,
      "hit": false,
      "t": 438571.4505000018,
      "d": 404.7619249999989,
      "v": 100
    },
    {
      "midi": 73,
      "hit": false,
      "t": 438809.5457500004,
      "d": 238.09525000001304,
      "v": 110
    },
    {
      "midi": 73,
      "hit": false,
      "t": 438809.5457500004,
      "d": 238.09525000001304,
      "v": 110
    },
    {
      "midi": 73,
      "hit": false,
      "t": 439047.6410000004,
      "d": 238.09525000001304,
      "v": 80
    },
    {
      "midi": 73,
      "hit": false,
      "t": 439047.6410000004,
      "d": 238.09525000001304,
      "v": 80
    },
    {
      "midi": 69,
      "hit": false,
      "t": 439047.64100000064,
      "d": 436.50795833335724,
      "v": 110
    },
    {
      "midi": 73,
      "hit": false,
      "t": 439047.64100000064,
      "d": 436.50795833335724,
      "v": 105
    },
    {
      "midi": 76,
      "hit": false,
      "t": 439047.64100000064,
      "d": 436.50795833335724,
      "v": 105
    },
    {
      "midi": 30,
      "hit": false,
      "t": 439047.6410000018,
      "d": 404.7619249999989,
      "v": 100
    },
    {
      "midi": 69,
      "hit": false,
      "t": 439523.83150000044,
      "d": 238.09525000001304,
      "v": 110
    },
    {
      "midi": 69,
      "hit": false,
      "t": 439523.83150000044,
      "d": 238.09525000001304,
      "v": 110
    },
    {
      "midi": 30,
      "hit": false,
      "t": 439523.83150000183,
      "d": 404.7619249999989,
      "v": 100
    },
    {
      "midi": 69,
      "hit": false,
      "t": 439761.92675000045,
      "d": 238.09525000001304,
      "v": 80
    },
    {
      "midi": 69,
      "hit": false,
      "t": 439761.92675000045,
      "d": 238.09525000001304,
      "v": 80
    },
    {
      "midi": 76,
      "hit": false,
      "t": 440000.02200000046,
      "d": 238.09525000001304,
      "v": 110
    },
    {
      "midi": 76,
      "hit": false,
      "t": 440000.02200000046,
      "d": 238.09525000001304,
      "v": 110
    },
    {
      "midi": 69,
      "hit": false,
      "t": 440000.0220000007,
      "d": 436.50795833335724,
      "v": 100
    },
    {
      "midi": 73,
      "hit": false,
      "t": 440000.0220000007,
      "d": 436.50795833335724,
      "v": 95
    },
    {
      "midi": 76,
      "hit": false,
      "t": 440000.0220000007,
      "d": 436.50795833335724,
      "v": 95
    },
    {
      "midi": 30,
      "hit": false,
      "t": 440000.02200000186,
      "d": 404.7619249999989,
      "v": 100
    },
    {
      "midi": 76,
      "hit": false,
      "t": 440238.1172500005,
      "d": 238.09525000001304,
      "v": 80
    },
    {
      "midi": 76,
      "hit": false,
      "t": 440238.1172500005,
      "d": 238.09525000001304,
      "v": 80
    },
    {
      "midi": 30,
      "hit": false,
      "t": 440476.2125000019,
      "d": 404.7619249999989,
      "v": 100
    },
    {
      "midi": 73,
      "hit": false,
      "t": 440714.3077500005,
      "d": 222.22223333333386,
      "v": 100
    },
    {
      "midi": 73,
      "hit": false,
      "t": 440714.3077500005,
      "d": 222.22223333333386,
      "v": 100
    },
    {
      "midi": 73,
      "hit": false,
      "t": 440952.4030000005,
      "d": 238.09525000001304,
      "v": 80
    },
    {
      "midi": 73,
      "hit": false,
      "t": 440952.4030000005,
      "d": 238.09525000001304,
      "v": 80
    },
    {
      "midi": 69,
      "hit": false,
      "t": 440952.40300000075,
      "d": 436.50795833335724,
      "v": 95
    },
    {
      "midi": 73,
      "hit": false,
      "t": 440952.40300000075,
      "d": 436.50795833335724,
      "v": 90
    },
    {
      "midi": 76,
      "hit": false,
      "t": 440952.40300000075,
      "d": 436.50795833335724,
      "v": 90
    },
    {
      "midi": 30,
      "hit": false,
      "t": 440952.4030000019,
      "d": 404.7619249999989,
      "v": 100
    },
    {
      "midi": 76,
      "hit": false,
      "t": 440952.4030000038,
      "d": 420.63494166667806,
      "v": 116
    },
    {
      "midi": 69,
      "hit": false,
      "t": 441428.59350000054,
      "d": 238.09525000001304,
      "v": 100
    },
    {
      "midi": 69,
      "hit": false,
      "t": 441428.59350000054,
      "d": 238.09525000001304,
      "v": 100
    },
    {
      "midi": 30,
      "hit": false,
      "t": 441428.59350000194,
      "d": 404.7619249999989,
      "v": 100
    },
    {
      "midi": 78,
      "hit": false,
      "t": 441428.5935000038,
      "d": 420.63494166667806,
      "v": 116
    },
    {
      "midi": 69,
      "hit": false,
      "t": 441666.68875000055,
      "d": 238.09525000001304,
      "v": 80
    },
    {
      "midi": 69,
      "hit": false,
      "t": 441666.68875000055,
      "d": 238.09525000001304,
      "v": 80
    },
    {
      "midi": 71,
      "hit": false,
      "t": 441904.784,
      "d": 1904.761999999988,
      "v": 100
    },
    {
      "midi": 74,
      "hit": false,
      "t": 441904.784,
      "d": 1904.761999999988,
      "v": 100
    },
    {
      "midi": 79,
      "hit": false,
      "t": 441904.784,
      "d": 1904.761999999988,
      "v": 100
    },
    {
      "midi": 79,
      "hit": false,
      "t": 441904.78400000057,
      "d": 238.09525000001304,
      "v": 110
    },
    {
      "midi": 79,
      "hit": false,
      "t": 441904.78400000057,
      "d": 238.09525000001304,
      "v": 110
    },
    {
      "midi": 71,
      "hit": false,
      "t": 441904.7840000008,
      "d": 436.50795833335724,
      "v": 120
    },
    {
      "midi": 74,
      "hit": false,
      "t": 441904.7840000008,
      "d": 436.50795833335724,
      "v": 115
    },
    {
      "midi": 79,
      "hit": false,
      "t": 441904.7840000008,
      "d": 436.50795833335724,
      "v": 115
    },
    {
      "midi": 31,
      "hit": false,
      "t": 441904.78400000196,
      "d": 404.7619249999989,
      "v": 100
    },
    {
      "midi": 79,
      "hit": false,
      "t": 441904.7840000038,
      "d": 912.6984583333251,
      "v": 116
    },
    {
      "midi": 79,
      "hit": false,
      "t": 442142.8792500006,
      "d": 238.09525000001304,
      "v": 80
    },
    {
      "midi": 79,
      "hit": false,
      "t": 442142.8792500006,
      "d": 238.09525000001304,
      "v": 80
    },
    {
      "midi": 31,
      "hit": false,
      "t": 442380.974500002,
      "d": 404.7619249999989,
      "v": 100
    },
    {
      "midi": 74,
      "hit": false,
      "t": 442619.0697500006,
      "d": 238.09525000001304,
      "v": 110
    },
    {
      "midi": 74,
      "hit": false,
      "t": 442619.0697500006,
      "d": 238.09525000001304,
      "v": 110
    },
    {
      "midi": 74,
      "hit": false,
      "t": 442857.1650000006,
      "d": 238.09525000001304,
      "v": 80
    },
    {
      "midi": 74,
      "hit": false,
      "t": 442857.1650000006,
      "d": 238.09525000001304,
      "v": 80
    },
    {
      "midi": 71,
      "hit": false,
      "t": 442857.16500000085,
      "d": 436.50795833335724,
      "v": 110
    },
    {
      "midi": 74,
      "hit": false,
      "t": 442857.16500000085,
      "d": 436.50795833335724,
      "v": 105
    },
    {
      "midi": 79,
      "hit": false,
      "t": 442857.16500000085,
      "d": 436.50795833335724,
      "v": 105
    },
    {
      "midi": 31,
      "hit": false,
      "t": 442857.165000002,
      "d": 404.7619249999989,
      "v": 100
    },
    {
      "midi": 83,
      "hit": false,
      "t": 442857.1650000038,
      "d": 420.63494166667806,
      "v": 116
    },
    {
      "midi": 71,
      "hit": false,
      "t": 443333.35550000065,
      "d": 238.09525000001304,
      "v": 110
    },
    {
      "midi": 71,
      "hit": false,
      "t": 443333.35550000065,
      "d": 238.09525000001304,
      "v": 110
    },
    {
      "midi": 31,
      "hit": false,
      "t": 443333.35550000204,
      "d": 404.7619249999989,
      "v": 100
    },
    {
      "midi": 83,
      "hit": false,
      "t": 443333.35550000385,
      "d": 420.63494166667806,
      "v": 116
    },
    {
      "midi": 71,
      "hit": false,
      "t": 443571.45075000066,
      "d": 238.09525000001304,
      "v": 80
    },
    {
      "midi": 71,
      "hit": false,
      "t": 443571.45075000066,
      "d": 238.09525000001304,
      "v": 80
    },
    {
      "midi": 73,
      "hit": false,
      "t": 443809.546,
      "d": 1904.761999999988,
      "v": 100
    },
    {
      "midi": 76,
      "hit": false,
      "t": 443809.546,
      "d": 1904.761999999988,
      "v": 100
    },
    {
      "midi": 81,
      "hit": false,
      "t": 443809.546,
      "d": 1904.761999999988,
      "v": 100
    },
    {
      "midi": 81,
      "hit": false,
      "t": 443809.5460000007,
      "d": 238.09525000001304,
      "v": 110
    },
    {
      "midi": 81,
      "hit": false,
      "t": 443809.5460000007,
      "d": 238.09525000001304,
      "v": 110
    },
    {
      "midi": 73,
      "hit": false,
      "t": 443809.5460000009,
      "d": 436.50795833335724,
      "v": 100
    },
    {
      "midi": 76,
      "hit": false,
      "t": 443809.5460000009,
      "d": 436.50795833335724,
      "v": 95
    },
    {
      "midi": 81,
      "hit": false,
      "t": 443809.5460000009,
      "d": 436.50795833335724,
      "v": 95
    },
    {
      "midi": 33,
      "hit": false,
      "t": 443809.54600000207,
      "d": 404.7619249999989,
      "v": 100
    },
    {
      "midi": 83,
      "hit": false,
      "t": 443809.5460000039,
      "d": 420.63494166667806,
      "v": 116
    },
    {
      "midi": 81,
      "hit": false,
      "t": 444047.6412500007,
      "d": 238.09525000001304,
      "v": 80
    },
    {
      "midi": 81,
      "hit": false,
      "t": 444047.6412500007,
      "d": 238.09525000001304,
      "v": 80
    },
    {
      "midi": 33,
      "hit": false,
      "t": 444285.7365000021,
      "d": 404.7619249999989,
      "v": 100
    },
    {
      "midi": 83,
      "hit": false,
      "t": 444285.7365000039,
      "d": 420.63494166667806,
      "v": 116
    },
    {
      "midi": 76,
      "hit": false,
      "t": 444523.8317500007,
      "d": 222.22223333333386,
      "v": 100
    },
    {
      "midi": 76,
      "hit": false,
      "t": 444523.8317500007,
      "d": 222.22223333333386,
      "v": 100
    },
    {
      "midi": 76,
      "hit": false,
      "t": 444761.9270000007,
      "d": 238.09525000001304,
      "v": 80
    },
    {
      "midi": 76,
      "hit": false,
      "t": 444761.9270000007,
      "d": 238.09525000001304,
      "v": 80
    },
    {
      "midi": 73,
      "hit": false,
      "t": 444761.92700000096,
      "d": 436.50795833335724,
      "v": 95
    },
    {
      "midi": 76,
      "hit": false,
      "t": 444761.92700000096,
      "d": 436.50795833335724,
      "v": 90
    },
    {
      "midi": 81,
      "hit": false,
      "t": 444761.92700000096,
      "d": 436.50795833335724,
      "v": 90
    },
    {
      "midi": 33,
      "hit": false,
      "t": 444761.9270000021,
      "d": 404.7619249999989,
      "v": 100
    },
    {
      "midi": 81,
      "hit": false,
      "t": 444761.9270000039,
      "d": 420.63494166667806,
      "v": 116
    },
    {
      "midi": 73,
      "hit": false,
      "t": 445238.11750000075,
      "d": 238.09525000001304,
      "v": 100
    },
    {
      "midi": 73,
      "hit": false,
      "t": 445238.11750000075,
      "d": 238.09525000001304,
      "v": 100
    },
    {
      "midi": 33,
      "hit": false,
      "t": 445238.11750000215,
      "d": 404.7619249999989,
      "v": 100
    },
    {
      "midi": 79,
      "hit": false,
      "t": 445238.11750000395,
      "d": 420.63494166667806,
      "v": 116
    },
    {
      "midi": 73,
      "hit": false,
      "t": 445476.21275000076,
      "d": 238.09525000001304,
      "v": 80
    },
    {
      "midi": 73,
      "hit": false,
      "t": 445476.21275000076,
      "d": 238.09525000001304,
      "v": 80
    },
    {
      "midi": 73,
      "hit": false,
      "t": 445714.30799999996,
      "d": 1904.761999999988,
      "v": 100
    },
    {
      "midi": 76,
      "hit": false,
      "t": 445714.30799999996,
      "d": 1904.761999999988,
      "v": 100
    },
    {
      "midi": 81,
      "hit": false,
      "t": 445714.30799999996,
      "d": 1904.761999999988,
      "v": 100
    },
    {
      "midi": 81,
      "hit": false,
      "t": 445714.3080000008,
      "d": 238.09525000001304,
      "v": 110
    },
    {
      "midi": 81,
      "hit": false,
      "t": 445714.3080000008,
      "d": 238.09525000001304,
      "v": 110
    },
    {
      "midi": 73,
      "hit": false,
      "t": 445714.308000001,
      "d": 436.50795833335724,
      "v": 120
    },
    {
      "midi": 76,
      "hit": false,
      "t": 445714.308000001,
      "d": 436.50795833335724,
      "v": 115
    },
    {
      "midi": 81,
      "hit": false,
      "t": 445714.308000001,
      "d": 436.50795833335724,
      "v": 115
    },
    {
      "midi": 30,
      "hit": false,
      "t": 445714.3080000022,
      "d": 404.7619249999989,
      "v": 100
    },
    {
      "midi": 81,
      "hit": false,
      "t": 445714.308000004,
      "d": 793.6508333333186,
      "v": 116
    },
    {
      "midi": 81,
      "hit": false,
      "t": 445952.4032500008,
      "d": 238.09525000001304,
      "v": 80
    },
    {
      "midi": 81,
      "hit": false,
      "t": 445952.4032500008,
      "d": 238.09525000001304,
      "v": 80
    },
    {
      "midi": 30,
      "hit": false,
      "t": 446190.4985000022,
      "d": 404.7619249999989,
      "v": 100
    },
    {
      "midi": 76,
      "hit": false,
      "t": 446428.5937500008,
      "d": 238.09525000001304,
      "v": 110
    },
    {
      "midi": 76,
      "hit": false,
      "t": 446428.5937500008,
      "d": 238.09525000001304,
      "v": 110
    },
    {
      "midi": 76,
      "hit": false,
      "t": 446666.6890000008,
      "d": 238.09525000001304,
      "v": 80
    },
    {
      "midi": 76,
      "hit": false,
      "t": 446666.6890000008,
      "d": 238.09525000001304,
      "v": 80
    },
    {
      "midi": 73,
      "hit": false,
      "t": 446666.68900000106,
      "d": 436.50795833335724,
      "v": 110
    },
    {
      "midi": 76,
      "hit": false,
      "t": 446666.68900000106,
      "d": 436.50795833335724,
      "v": 105
    },
    {
      "midi": 81,
      "hit": false,
      "t": 446666.68900000106,
      "d": 436.50795833335724,
      "v": 105
    },
    {
      "midi": 30,
      "hit": false,
      "t": 446666.6890000022,
      "d": 404.7619249999989,
      "v": 100
    },
    {
      "midi": 78,
      "hit": false,
      "t": 446666.689000004,
      "d": 420.63494166667806,
      "v": 116
    },
    {
      "midi": 73,
      "hit": false,
      "t": 447142.87950000085,
      "d": 238.09525000001304,
      "v": 110
    },
    {
      "midi": 73,
      "hit": false,
      "t": 447142.87950000085,
      "d": 238.09525000001304,
      "v": 110
    },
    {
      "midi": 30,
      "hit": false,
      "t": 447142.87950000225,
      "d": 404.7619249999989,
      "v": 100
    },
    {
      "midi": 76,
      "hit": false,
      "t": 447142.879500004,
      "d": 420.63494166667806,
      "v": 116
    },
    {
      "midi": 73,
      "hit": false,
      "t": 447380.97475000087,
      "d": 238.09525000001304,
      "v": 80
    },
    {
      "midi": 73,
      "hit": false,
      "t": 447380.97475000087,
      "d": 238.09525000001304,
      "v": 80
    },
    {
      "midi": 69,
      "hit": false,
      "t": 447619.06999999995,
      "d": 1904.761999999988,
      "v": 100
    },
    {
      "midi": 74,
      "hit": false,
      "t": 447619.06999999995,
      "d": 1904.761999999988,
      "v": 100
    },
    {
      "midi": 78,
      "hit": false,
      "t": 447619.06999999995,
      "d": 1904.761999999988,
      "v": 100
    },
    {
      "midi": 83,
      "hit": false,
      "t": 447619.0700000009,
      "d": 238.09525000001304,
      "v": 110
    },
    {
      "midi": 83,
      "hit": false,
      "t": 447619.0700000009,
      "d": 238.09525000001304,
      "v": 110
    },
    {
      "midi": 74,
      "hit": false,
      "t": 447619.0700000011,
      "d": 436.50795833335724,
      "v": 100
    },
    {
      "midi": 78,
      "hit": false,
      "t": 447619.0700000011,
      "d": 436.50795833335724,
      "v": 95
    },
    {
      "midi": 83,
      "hit": false,
      "t": 447619.0700000011,
      "d": 436.50795833335724,
      "v": 95
    },
    {
      "midi": 35,
      "hit": false,
      "t": 447619.0700000023,
      "d": 404.7619249999989,
      "v": 100
    },
    {
      "midi": 74,
      "hit": false,
      "t": 447619.070000004,
      "d": 753.9682916666497,
      "v": 116
    },
    {
      "midi": 83,
      "hit": false,
      "t": 447857.1652500009,
      "d": 238.09525000001304,
      "v": 80
    },
    {
      "midi": 83,
      "hit": false,
      "t": 447857.1652500009,
      "d": 238.09525000001304,
      "v": 80
    },
    {
      "midi": 35,
      "hit": false,
      "t": 448095.26049999124,
      "d": 1388.8889583333512,
      "v": 118
    },
    {
      "midi": 47,
      "hit": false,
      "t": 448095.26050000003,
      "d": 1666.6667499999749,
      "v": 127
    },
    {
      "midi": 59,
      "hit": false,
      "t": 448095.26050000003,
      "d": 1666.6667499999749,
      "v": 110
    },
    {
      "midi": 43,
      "hit": false,
      "t": 448095.260500001,
      "d": 1388.8889583333512,
      "v": 100
    },
    {
      "midi": 35,
      "hit": false,
      "t": 448095.2605000023,
      "d": 404.7619249999989,
      "v": 100
    },
    {
      "midi": 35,
      "hit": false,
      "t": 448095.2605000073,
      "d": 1388.8889583333512,
      "v": 115
    },
    {
      "midi": 78,
      "hit": false,
      "t": 448333.3557500009,
      "d": 222.22223333333386,
      "v": 100
    },
    {
      "midi": 78,
      "hit": false,
      "t": 448333.3557500009,
      "d": 222.22223333333386,
      "v": 100
    },
    {
      "midi": 78,
      "hit": false,
      "t": 448571.45100000093,
      "d": 238.09525000001304,
      "v": 80
    },
    {
      "midi": 78,
      "hit": false,
      "t": 448571.45100000093,
      "d": 238.09525000001304,
      "v": 80
    },
    {
      "midi": 74,
      "hit": false,
      "t": 448571.45100000117,
      "d": 436.50795833335724,
      "v": 95
    },
    {
      "midi": 78,
      "hit": false,
      "t": 448571.45100000117,
      "d": 436.50795833335724,
      "v": 90
    },
    {
      "midi": 83,
      "hit": false,
      "t": 448571.45100000117,
      "d": 436.50795833335724,
      "v": 90
    },
    {
      "midi": 35,
      "hit": false,
      "t": 448571.45100000233,
      "d": 404.7619249999989,
      "v": 100
    },
    {
      "midi": 74,
      "hit": false,
      "t": 448571.451000004,
      "d": 420.63494166667806,
      "v": 116
    },
    {
      "midi": 74,
      "hit": false,
      "t": 449047.64150000096,
      "d": 238.09525000001304,
      "v": 100
    },
    {
      "midi": 74,
      "hit": false,
      "t": 449047.64150000096,
      "d": 238.09525000001304,
      "v": 100
    },
    {
      "midi": 35,
      "hit": false,
      "t": 449047.64150000236,
      "d": 404.7619249999989,
      "v": 100
    },
    {
      "midi": 73,
      "hit": false,
      "t": 449047.64150000404,
      "d": 420.63494166667806,
      "v": 116
    },
    {
      "midi": 74,
      "hit": false,
      "t": 449285.736750001,
      "d": 238.09525000001304,
      "v": 80
    },
    {
      "midi": 74,
      "hit": false,
      "t": 449285.736750001,
      "d": 238.09525000001304,
      "v": 80
    },
    {
      "midi": 91,
      "hit": false,
      "t": 449500.0224749992,
      "d": 3793.6509833334712,
      "v": 100
    },
    {
      "midi": 79,
      "hit": false,
      "t": 449500.0224749992,
      "d": 3793.6509833334712,
      "v": 100
    },
    {
      "midi": 71,
      "hit": false,
      "t": 449500.02247500024,
      "d": 3793.6509833334712,
      "v": 100
    },
    {
      "midi": 55,
      "hit": false,
      "t": 449515.895491668,
      "d": 2301.5874166666763,
      "v": 119
    },
    {
      "midi": 59,
      "hit": false,
      "t": 449515.895491668,
      "d": 2301.5874166666763,
      "v": 119
    },
    {
      "midi": 64,
      "hit": false,
      "t": 449515.895491668,
      "d": 2301.5874166666763,
      "v": 119
    },
    {
      "midi": 2,
      "hit": false,
      "t": 449523.8319999785,
      "d": 7.936508333310485,
      "v": 118
    },
    {
      "midi": 49,
      "hit": false,
      "t": 449523.8319999785,
      "d": 7.936508333310485,
      "v": 115
    },
    {
      "midi": 28,
      "hit": false,
      "t": 449523.83199999126,
      "d": 3730.1589166666963,
      "v": 118
    },
    {
      "midi": 79,
      "hit": false,
      "t": 449523.832000001,
      "d": 238.09525000001304,
      "v": 110
    },
    {
      "midi": 79,
      "hit": false,
      "t": 449523.832000001,
      "d": 238.09525000001304,
      "v": 110
    },
    {
      "midi": 71,
      "hit": false,
      "t": 449523.83200000407,
      "d": 912.6984583333251,
      "v": 116
    },
    {
      "midi": 40,
      "hit": false,
      "t": 449523.832000005,
      "d": 3706.349391666765,
      "v": 115
    },
    {
      "midi": 47,
      "hit": false,
      "t": 449523.832000005,
      "d": 3730.1589166667545,
      "v": 115
    },
    {
      "midi": 47,
      "hit": false,
      "t": 449523.8320000073,
      "d": 3333.333500000066,
      "v": 115
    },
    {
      "midi": 40,
      "hit": false,
      "t": 449523.8320000073,
      "d": 3333.333500000066,
      "v": 115
    },
    {
      "midi": 79,
      "hit": false,
      "t": 449761.927250001,
      "d": 238.09525000001304,
      "v": 80
    },
    {
      "midi": 79,
      "hit": false,
      "t": 449761.927250001,
      "d": 238.09525000001304,
      "v": 80
    },
    {
      "midi": 74,
      "hit": false,
      "t": 450238.117750001,
      "d": 238.09525000001304,
      "v": 110
    },
    {
      "midi": 74,
      "hit": false,
      "t": 450238.117750001,
      "d": 238.09525000001304,
      "v": 110
    },
    {
      "midi": 2,
      "hit": false,
      "t": 450476.2129999785,
      "d": 7.936508333310485,
      "v": 118
    },
    {
      "midi": 74,
      "hit": false,
      "t": 450476.21300000104,
      "d": 238.09525000001304,
      "v": 80
    },
    {
      "midi": 74,
      "hit": false,
      "t": 450476.21300000104,
      "d": 238.09525000001304,
      "v": 80
    },
    {
      "midi": 71,
      "hit": false,
      "t": 450952.40350000106,
      "d": 238.09525000001304,
      "v": 110
    },
    {
      "midi": 71,
      "hit": false,
      "t": 450952.40350000106,
      "d": 238.09525000001304,
      "v": 110
    },
    {
      "midi": 73,
      "hit": false,
      "t": 450952.4035000041,
      "d": 420.63494166667806,
      "v": 116
    },
    {
      "midi": 71,
      "hit": false,
      "t": 451190.4987500011,
      "d": 238.09525000001304,
      "v": 80
    },
    {
      "midi": 71,
      "hit": false,
      "t": 451190.4987500011,
      "d": 238.09525000001304,
      "v": 80
    },
    {
      "midi": 2,
      "hit": false,
      "t": 451428.5939999785,
      "d": 7.936508333310485,
      "v": 118
    },
    {
      "midi": 79,
      "hit": false,
      "t": 451428.5940000011,
      "d": 238.09525000001304,
      "v": 110
    },
    {
      "midi": 79,
      "hit": false,
      "t": 451428.5940000011,
      "d": 238.09525000001304,
      "v": 110
    },
    {
      "midi": 74,
      "hit": false,
      "t": 451428.5940000041,
      "d": 420.63494166667806,
      "v": 116
    },
    {
      "midi": 79,
      "hit": false,
      "t": 451666.6892500011,
      "d": 238.09525000001304,
      "v": 80
    },
    {
      "midi": 79,
      "hit": false,
      "t": 451666.6892500011,
      "d": 238.09525000001304,
      "v": 80
    },
    {
      "midi": 52,
      "hit": false,
      "t": 451896.84799166804,
      "d": 396.8254166666884,
      "v": 127
    },
    {
      "midi": 74,
      "hit": false,
      "t": 451904.78450000414,
      "d": 420.63494166667806,
      "v": 116
    },
    {
      "midi": 74,
      "hit": false,
      "t": 452142.8797500011,
      "d": 222.22223333333386,
      "v": 100
    },
    {
      "midi": 74,
      "hit": false,
      "t": 452142.8797500011,
      "d": 222.22223333333386,
      "v": 100
    },
    {
      "midi": 55,
      "hit": false,
      "t": 452373.03849166806,
      "d": 396.8254166666884,
      "v": 127
    },
    {
      "midi": 2,
      "hit": false,
      "t": 452380.9749999785,
      "d": 7.936508333310485,
      "v": 118
    },
    {
      "midi": 74,
      "hit": false,
      "t": 452380.97500000114,
      "d": 238.09525000001304,
      "v": 80
    },
    {
      "midi": 74,
      "hit": false,
      "t": 452380.97500000114,
      "d": 238.09525000001304,
      "v": 80
    },
    {
      "midi": 78,
      "hit": false,
      "t": 452380.97500000417,
      "d": 420.63494166667806,
      "v": 116
    },
    {
      "midi": 59,
      "hit": false,
      "t": 452849.2289916681,
      "d": 396.8254166666884,
      "v": 127
    },
    {
      "midi": 71,
      "hit": false,
      "t": 452857.16550000117,
      "d": 238.09525000001304,
      "v": 100
    },
    {
      "midi": 71,
      "hit": false,
      "t": 452857.16550000117,
      "d": 238.09525000001304,
      "v": 100
    },
    {
      "midi": 76,
      "hit": false,
      "t": 452857.1655000042,
      "d": 420.63494166667806,
      "v": 116
    },
    {
      "midi": 45,
      "hit": false,
      "t": 452857.1655000074,
      "d": 158.73016666667536,
      "v": 115
    },
    {
      "midi": 52,
      "hit": false,
      "t": 452857.1655000074,
      "d": 158.73016666667536,
      "v": 115
    },
    {
      "midi": 71,
      "hit": false,
      "t": 453095.2607500012,
      "d": 238.09525000001304,
      "v": 80
    },
    {
      "midi": 71,
      "hit": false,
      "t": 453095.2607500012,
      "d": 238.09525000001304,
      "v": 80
    },
    {
      "midi": 45,
      "hit": false,
      "t": 453095.2607500074,
      "d": 158.73016666667536,
      "v": 115
    },
    {
      "midi": 52,
      "hit": false,
      "t": 453095.2607500074,
      "d": 158.73016666667536,
      "v": 115
    },
    {
      "midi": 73,
      "hit": false,
      "t": 453309.54647499934,
      "d": 1880.9524749999982,
      "v": 100
    },
    {
      "midi": 81,
      "hit": false,
      "t": 453309.54647499934,
      "d": 1880.9524749999982,
      "v": 100
    },
    {
      "midi": 93,
      "hit": false,
      "t": 453309.54647499934,
      "d": 1880.9524749999982,
      "v": 100
    },
    {
      "midi": 57,
      "hit": false,
      "t": 453325.4194916681,
      "d": 396.8254166666884,
      "v": 119
    },
    {
      "midi": 61,
      "hit": false,
      "t": 453325.4194916681,
      "d": 396.8254166666884,
      "v": 119
    },
    {
      "midi": 64,
      "hit": false,
      "t": 453325.4194916681,
      "d": 396.8254166666884,
      "v": 119
    },
    {
      "midi": 2,
      "hit": false,
      "t": 453333.3559999785,
      "d": 7.936508333310485,
      "v": 118
    },
    {
      "midi": 45,
      "hit": false,
      "t": 453333.3559999785,
      "d": 7.936508333310485,
      "v": 90
    },
    {
      "midi": 33,
      "hit": false,
      "t": 453333.3559999913,
      "d": 396.8254166666884,
      "v": 118
    },
    {
      "midi": 79,
      "hit": false,
      "t": 453333.3560000012,
      "d": 238.09525000001304,
      "v": 110
    },
    {
      "midi": 79,
      "hit": false,
      "t": 453333.3560000012,
      "d": 238.09525000001304,
      "v": 110
    },
    {
      "midi": 78,
      "hit": false,
      "t": 453333.3560000042,
      "d": 420.63494166667806,
      "v": 116
    },
    {
      "midi": 45,
      "hit": false,
      "t": 453333.3560000051,
      "d": 1396.8254666666617,
      "v": 115
    },
    {
      "midi": 52,
      "hit": false,
      "t": 453333.3560000051,
      "d": 1396.8254666666617,
      "v": 115
    },
    {
      "midi": 45,
      "hit": false,
      "t": 453333.3560000074,
      "d": 71.4285750000272,
      "v": 115
    },
    {
      "midi": 52,
      "hit": false,
      "t": 453333.3560000074,
      "d": 71.4285750000272,
      "v": 115
    },
    {
      "midi": 38,
      "hit": false,
      "t": 453373.03854164516,
      "d": 7.936508333310485,
      "v": 90
    },
    {
      "midi": 79,
      "hit": false,
      "t": 453571.4512500012,
      "d": 238.09525000001304,
      "v": 80
    },
    {
      "midi": 79,
      "hit": false,
      "t": 453571.4512500012,
      "d": 238.09525000001304,
      "v": 80
    },
    {
      "midi": 57,
      "hit": false,
      "t": 453801.60999166814,
      "d": 396.8254166666884,
      "v": 119
    },
    {
      "midi": 69,
      "hit": false,
      "t": 453801.60999166814,
      "d": 396.8254166666884,
      "v": 119
    },
    {
      "midi": 45,
      "hit": false,
      "t": 453809.54649997846,
      "d": 7.936508333310485,
      "v": 95
    },
    {
      "midi": 33,
      "hit": false,
      "t": 453809.5464999913,
      "d": 396.8254166666884,
      "v": 118
    },
    {
      "midi": 76,
      "hit": false,
      "t": 453809.54650000425,
      "d": 420.63494166667806,
      "v": 116
    },
    {
      "midi": 45,
      "hit": false,
      "t": 453809.54650000745,
      "d": 71.4285750000272,
      "v": 115
    },
    {
      "midi": 52,
      "hit": false,
      "t": 453809.54650000745,
      "d": 71.4285750000272,
      "v": 115
    },
    {
      "midi": 38,
      "hit": false,
      "t": 453849.2290416451,
      "d": 7.936508333310485,
      "v": 95
    },
    {
      "midi": 74,
      "hit": false,
      "t": 454047.64175000123,
      "d": 238.09525000001304,
      "v": 110
    },
    {
      "midi": 74,
      "hit": false,
      "t": 454047.64175000123,
      "d": 238.09525000001304,
      "v": 110
    },
    {
      "midi": 57,
      "hit": false,
      "t": 454277.80049166817,
      "d": 396.8254166666884,
      "v": 119
    },
    {
      "midi": 69,
      "hit": false,
      "t": 454277.80049166817,
      "d": 396.8254166666884,
      "v": 119
    },
    {
      "midi": 2,
      "hit": false,
      "t": 454285.7369999784,
      "d": 7.936508333310485,
      "v": 118
    },
    {
      "midi": 45,
      "hit": false,
      "t": 454285.7369999784,
      "d": 7.936508333310485,
      "v": 100
    },
    {
      "midi": 33,
      "hit": false,
      "t": 454285.73699999135,
      "d": 396.8254166666884,
      "v": 118
    },
    {
      "midi": 74,
      "hit": false,
      "t": 454285.73700000125,
      "d": 238.09525000001304,
      "v": 80
    },
    {
      "midi": 74,
      "hit": false,
      "t": 454285.73700000125,
      "d": 238.09525000001304,
      "v": 80
    },
    {
      "midi": 45,
      "hit": false,
      "t": 454285.7370000075,
      "d": 71.4285750000272,
      "v": 115
    },
    {
      "midi": 52,
      "hit": false,
      "t": 454285.7370000075,
      "d": 71.4285750000272,
      "v": 115
    },
    {
      "midi": 38,
      "hit": false,
      "t": 454325.4195416451,
      "d": 7.936508333310485,
      "v": 100
    },
    {
      "midi": 69,
      "hit": false,
      "t": 454753.9909916682,
      "d": 396.8254166666884,
      "v": 119
    },
    {
      "midi": 57,
      "hit": false,
      "t": 454753.9909916682,
      "d": 396.8254166666884,
      "v": 119
    },
    {
      "midi": 45,
      "hit": false,
      "t": 454761.9274999784,
      "d": 7.936508333310485,
      "v": 110
    },
    {
      "midi": 33,
      "hit": false,
      "t": 454761.9274999914,
      "d": 396.8254166666884,
      "v": 118
    },
    {
      "midi": 71,
      "hit": false,
      "t": 454761.9275000013,
      "d": 238.09525000001304,
      "v": 110
    },
    {
      "midi": 71,
      "hit": false,
      "t": 454761.9275000013,
      "d": 238.09525000001304,
      "v": 110
    },
    {
      "midi": 45,
      "hit": false,
      "t": 454761.9275000051,
      "d": 95.23810000001686,
      "v": 115
    },
    {
      "midi": 52,
      "hit": false,
      "t": 454761.9275000051,
      "d": 95.23810000001686,
      "v": 115
    },
    {
      "midi": 45,
      "hit": false,
      "t": 454761.9275000075,
      "d": 71.4285750000272,
      "v": 115
    },
    {
      "midi": 52,
      "hit": false,
      "t": 454761.9275000075,
      "d": 71.4285750000272,
      "v": 115
    },
    {
      "midi": 38,
      "hit": false,
      "t": 454801.61004164506,
      "d": 7.936508333310485,
      "v": 110
    },
    {
      "midi": 71,
      "hit": false,
      "t": 455000.0227500013,
      "d": 238.09525000001304,
      "v": 80
    },
    {
      "midi": 71,
      "hit": false,
      "t": 455000.0227500013,
      "d": 238.09525000001304,
      "v": 80
    },
    {
      "midi": 52,
      "hit": false,
      "t": 455000.0227500051,
      "d": 95.23810000001686,
      "v": 115
    },
    {
      "midi": 45,
      "hit": false,
      "t": 455000.0227500051,
      "d": 95.23810000001686,
      "v": 115
    },
    {
      "midi": 69,
      "hit": false,
      "t": 455214.3084749993,
      "d": 936.5079833333148,
      "v": 100
    },
    {
      "midi": 78,
      "hit": false,
      "t": 455214.3084749993,
      "d": 936.5079833333148,
      "v": 100
    },
    {
      "midi": 90,
      "hit": false,
      "t": 455214.3084749993,
      "d": 936.5079833333148,
      "v": 100
    },
    {
      "midi": 57,
      "hit": false,
      "t": 455230.1814916682,
      "d": 873.0159166666563,
      "v": 119
    },
    {
      "midi": 61,
      "hit": false,
      "t": 455230.1814916682,
      "d": 873.0159166666563,
      "v": 119
    },
    {
      "midi": 66,
      "hit": false,
      "t": 455230.1814916682,
      "d": 873.0159166666563,
      "v": 119
    },
    {
      "midi": 2,
      "hit": false,
      "t": 455238.11799997836,
      "d": 7.936508333310485,
      "v": 118
    },
    {
      "midi": 57,
      "hit": false,
      "t": 455238.11799997836,
      "d": 7.936508333310485,
      "v": 115
    },
    {
      "midi": 40,
      "hit": false,
      "t": 455238.11799997836,
      "d": 7.936508333310485,
      "v": 120
    },
    {
      "midi": 43,
      "hit": false,
      "t": 455238.11799997836,
      "d": 7.936508333310485,
      "v": 120
    },
    {
      "midi": 45,
      "hit": false,
      "t": 455238.1179999914,
      "d": 396.8254166666884,
      "v": 118
    },
    {
      "midi": 79,
      "hit": false,
      "t": 455238.1180000013,
      "d": 238.09525000001304,
      "v": 110
    },
    {
      "midi": 79,
      "hit": false,
      "t": 455238.1180000013,
      "d": 238.09525000001304,
      "v": 110
    },
    {
      "midi": 62,
      "hit": false,
      "t": 455238.1180000024,
      "d": 873.0159166666563,
      "v": 110
    },
    {
      "midi": 69,
      "hit": false,
      "t": 455238.1180000024,
      "d": 873.0159166666563,
      "v": 110
    },
    {
      "midi": 78,
      "hit": false,
      "t": 455238.11800000427,
      "d": 396.8254166666884,
      "v": 124
    },
    {
      "midi": 61,
      "hit": false,
      "t": 455238.11800000514,
      "d": 674.6032083333703,
      "v": 105
    },
    {
      "midi": 66,
      "hit": false,
      "t": 455238.11800000514,
      "d": 674.6032083333703,
      "v": 105
    },
    {
      "midi": 69,
      "hit": false,
      "t": 455238.11800000514,
      "d": 674.6032083333703,
      "v": 105
    },
    {
      "midi": 54,
      "hit": false,
      "t": 455238.1180000075,
      "d": 912.6984583333251,
      "v": 115
    },
    {
      "midi": 79,
      "hit": false,
      "t": 455476.2132500013,
      "d": 238.09525000001304,
      "v": 80
    },
    {
      "midi": 79,
      "hit": false,
      "t": 455476.2132500013,
      "d": 238.09525000001304,
      "v": 80
    },
    {
      "midi": 43,
      "hit": false,
      "t": 455714.30849997833,
      "d": 7.936508333310485,
      "v": 120
    },
    {
      "midi": 40,
      "hit": false,
      "t": 455714.30849997833,
      "d": 7.936508333310485,
      "v": 120
    },
    {
      "midi": 45,
      "hit": false,
      "t": 455714.3084999914,
      "d": 396.8254166666884,
      "v": 118
    },
    {
      "midi": 78,
      "hit": false,
      "t": 455714.3085000043,
      "d": 396.8254166666884,
      "v": 124
    },
    {
      "midi": 74,
      "hit": false,
      "t": 455952.40375000134,
      "d": 222.22223333333386,
      "v": 100
    },
    {
      "midi": 74,
      "hit": false,
      "t": 455952.40375000134,
      "d": 222.22223333333386,
      "v": 100
    },
    {
      "midi": 61,
      "hit": false,
      "t": 455952.4037500052,
      "d": 95.23810000001686,
      "v": 115
    },
    {
      "midi": 66,
      "hit": false,
      "t": 455952.4037500052,
      "d": 95.23810000001686,
      "v": 115
    },
    {
      "midi": 69,
      "hit": false,
      "t": 455952.4037500052,
      "d": 95.23810000001686,
      "v": 115
    },
    {
      "midi": 71,
      "hit": false,
      "t": 456166.6894749993,
      "d": 936.5079833333148,
      "v": 100
    },
    {
      "midi": 79,
      "hit": false,
      "t": 456166.6894749993,
      "d": 936.5079833333148,
      "v": 100
    },
    {
      "midi": 91,
      "hit": false,
      "t": 456166.6894749993,
      "d": 936.5079833333148,
      "v": 100
    },
    {
      "midi": 59,
      "hit": false,
      "t": 456182.5624916682,
      "d": 873.0159166666563,
      "v": 119
    },
    {
      "midi": 62,
      "hit": false,
      "t": 456182.5624916682,
      "d": 873.0159166666563,
      "v": 119
    },
    {
      "midi": 67,
      "hit": false,
      "t": 456182.5624916682,
      "d": 873.0159166666563,
      "v": 119
    },
    {
      "midi": 2,
      "hit": false,
      "t": 456190.4989999783,
      "d": 7.936508333310485,
      "v": 118
    },
    {
      "midi": 45,
      "hit": false,
      "t": 456190.4989999783,
      "d": 7.936508333310485,
      "v": 127
    },
    {
      "midi": 57,
      "hit": false,
      "t": 456190.4989999783,
      "d": 7.936508333310485,
      "v": 115
    },
    {
      "midi": 45,
      "hit": false,
      "t": 456190.49899999145,
      "d": 396.8254166666884,
      "v": 118
    },
    {
      "midi": 74,
      "hit": false,
      "t": 456190.49900000135,
      "d": 238.09525000001304,
      "v": 80
    },
    {
      "midi": 74,
      "hit": false,
      "t": 456190.49900000135,
      "d": 238.09525000001304,
      "v": 80
    },
    {
      "midi": 64,
      "hit": false,
      "t": 456190.4990000024,
      "d": 444.4444666666677,
      "v": 110
    },
    {
      "midi": 71,
      "hit": false,
      "t": 456190.4990000024,
      "d": 444.4444666666677,
      "v": 110
    },
    {
      "midi": 69,
      "hit": false,
      "t": 456190.4990000024,
      "d": 444.4444666666677,
      "v": 110
    },
    {
      "midi": 79,
      "hit": false,
      "t": 456190.4990000043,
      "d": 420.63494166667806,
      "v": 125
    },
    {
      "midi": 62,
      "hit": false,
      "t": 456190.4990000052,
      "d": 674.6032083333703,
      "v": 105
    },
    {
      "midi": 67,
      "hit": false,
      "t": 456190.4990000052,
      "d": 674.6032083333703,
      "v": 105
    },
    {
      "midi": 71,
      "hit": false,
      "t": 456190.4990000052,
      "d": 674.6032083333703,
      "v": 105
    },
    {
      "midi": 55,
      "hit": false,
      "t": 456190.4990000075,
      "d": 912.6984583333251,
      "v": 115
    },
    {
      "midi": 40,
      "hit": false,
      "t": 456230.18154164497,
      "d": 7.936508333310485,
      "v": 127
    },
    {
      "midi": 40,
      "hit": false,
      "t": 456428.59424997825,
      "d": 7.936508333310485,
      "v": 127
    },
    {
      "midi": 47,
      "hit": false,
      "t": 456666.6894999782,
      "d": 7.936508333310485,
      "v": 127
    },
    {
      "midi": 45,
      "hit": false,
      "t": 456666.6894999915,
      "d": 396.8254166666884,
      "v": 118
    },
    {
      "midi": 71,
      "hit": false,
      "t": 456666.6895000014,
      "d": 238.09525000001304,
      "v": 100
    },
    {
      "midi": 71,
      "hit": false,
      "t": 456666.6895000014,
      "d": 238.09525000001304,
      "v": 100
    },
    {
      "midi": 64,
      "hit": false,
      "t": 456666.6895000024,
      "d": 444.4444666666677,
      "v": 110
    },
    {
      "midi": 71,
      "hit": false,
      "t": 456666.6895000024,
      "d": 444.4444666666677,
      "v": 110
    },
    {
      "midi": 69,
      "hit": false,
      "t": 456666.6895000024,
      "d": 444.4444666666677,
      "v": 110
    },
    {
      "midi": 79,
      "hit": false,
      "t": 456666.68950000434,
      "d": 420.63494166667806,
      "v": 125
    },
    {
      "midi": 71,
      "hit": false,
      "t": 456904.7847500014,
      "d": 238.09525000001304,
      "v": 80
    },
    {
      "midi": 71,
      "hit": false,
      "t": 456904.7847500014,
      "d": 238.09525000001304,
      "v": 80
    },
    {
      "midi": 62,
      "hit": false,
      "t": 456904.78475000523,
      "d": 95.23810000001686,
      "v": 115
    },
    {
      "midi": 67,
      "hit": false,
      "t": 456904.78475000523,
      "d": 95.23810000001686,
      "v": 115
    },
    {
      "midi": 71,
      "hit": false,
      "t": 456904.78475000523,
      "d": 95.23810000001686,
      "v": 115
    },
    {
      "midi": 69,
      "hit": false,
      "t": 457095.2609500014,
      "d": 1825.3969166666502,
      "v": 100
    },
    {
      "midi": 93,
      "hit": false,
      "t": 457111.13396666595,
      "d": 5690.476474999974,
      "v": 100
    },
    {
      "midi": 66,
      "hit": false,
      "t": 457111.1339666691,
      "d": 444.4444666666677,
      "v": 110
    },
    {
      "midi": 69,
      "hit": false,
      "t": 457111.1339666691,
      "d": 444.4444666666677,
      "v": 110
    },
    {
      "midi": 74,
      "hit": false,
      "t": 457111.1339666691,
      "d": 444.4444666666677,
      "v": 110
    },
    {
      "midi": 81,
      "hit": false,
      "t": 457119.07047499926,
      "d": 5690.476474999974,
      "v": 100
    },
    {
      "midi": 74,
      "hit": false,
      "t": 457119.07047500036,
      "d": 3793.650983333355,
      "v": 100
    },
    {
      "midi": 74,
      "hit": false,
      "t": 457134.9434916681,
      "d": 1825.3969166666502,
      "v": 100
    },
    {
      "midi": 57,
      "hit": false,
      "t": 457134.9434916682,
      "d": 634.9206666666432,
      "v": 119
    },
    {
      "midi": 62,
      "hit": false,
      "t": 457134.9434916682,
      "d": 634.9206666666432,
      "v": 119
    },
    {
      "midi": 66,
      "hit": false,
      "t": 457134.9434916682,
      "d": 634.9206666666432,
      "v": 119
    },
    {
      "midi": 2,
      "hit": false,
      "t": 457142.8799999782,
      "d": 7.936508333310485,
      "v": 118
    },
    {
      "midi": 49,
      "hit": false,
      "t": 457142.8799999782,
      "d": 7.936508333310485,
      "v": 115
    },
    {
      "midi": 40,
      "hit": false,
      "t": 457142.8799999782,
      "d": 7.936508333310485,
      "v": 122
    },
    {
      "midi": 54,
      "hit": false,
      "t": 457142.8799999782,
      "d": 7.936508333310485,
      "v": 100
    },
    {
      "midi": 38,
      "hit": false,
      "t": 457142.8799999915,
      "d": 396.8254166666884,
      "v": 123
    },
    {
      "midi": 57,
      "hit": false,
      "t": 457142.88000000245,
      "d": 436.50795833335724,
      "v": 100
    },
    {
      "midi": 81,
      "hit": false,
      "t": 457142.88000000437,
      "d": 420.63494166667806,
      "v": 125
    },
    {
      "midi": 66,
      "hit": false,
      "t": 457142.88000000524,
      "d": 912.6984583333251,
      "v": 105
    },
    {
      "midi": 69,
      "hit": false,
      "t": 457142.88000000524,
      "d": 912.6984583333251,
      "v": 105
    },
    {
      "midi": 74,
      "hit": false,
      "t": 457142.88000000524,
      "d": 912.6984583333251,
      "v": 105
    },
    {
      "midi": 50,
      "hit": false,
      "t": 457142.8800000075,
      "d": 396.8254166666884,
      "v": 111
    },
    {
      "midi": 57,
      "hit": false,
      "t": 457142.8800000075,
      "d": 396.8254166666884,
      "v": 111
    },
    {
      "midi": 76,
      "hit": false,
      "t": 457166.6895250014,
      "d": 1825.3969166667084,
      "v": 100
    },
    {
      "midi": 78,
      "hit": false,
      "t": 457206.37206666806,
      "d": 1825.3969166667084,
      "v": 100
    },
    {
      "midi": 54,
      "hit": false,
      "t": 457380.97524997813,
      "d": 7.936508333310485,
      "v": 60
    },
    {
      "midi": 66,
      "hit": false,
      "t": 457611.1339916691,
      "d": 873.0159166666563,
      "v": 110
    },
    {
      "midi": 69,
      "hit": false,
      "t": 457611.1339916691,
      "d": 873.0159166666563,
      "v": 110
    },
    {
      "midi": 74,
      "hit": false,
      "t": 457611.1339916691,
      "d": 873.0159166666563,
      "v": 110
    },
    {
      "midi": 54,
      "hit": false,
      "t": 457619.0704999781,
      "d": 7.936508333310485,
      "v": 60
    },
    {
      "midi": 42,
      "hit": false,
      "t": 457619.0704999781,
      "d": 7.936508333310485,
      "v": 100
    },
    {
      "midi": 38,
      "hit": false,
      "t": 457619.07049999153,
      "d": 396.8254166666884,
      "v": 118
    },
    {
      "midi": 62,
      "hit": false,
      "t": 457619.0705000025,
      "d": 214.28572500002338,
      "v": 100
    },
    {
      "midi": 81,
      "hit": false,
      "t": 457619.0705000044,
      "d": 952.380999999994,
      "v": 125
    },
    {
      "midi": 50,
      "hit": false,
      "t": 457619.07050000754,
      "d": 71.4285750000272,
      "v": 115
    },
    {
      "midi": 57,
      "hit": false,
      "t": 457619.07050000754,
      "d": 71.4285750000272,
      "v": 115
    },
    {
      "midi": 57,
      "hit": false,
      "t": 457849.2292416682,
      "d": 198.4127083333442,
      "v": 119
    },
    {
      "midi": 62,
      "hit": false,
      "t": 457849.2292416682,
      "d": 198.4127083333442,
      "v": 119
    },
    {
      "midi": 66,
      "hit": false,
      "t": 457849.2292416682,
      "d": 198.4127083333442,
      "v": 119
    },
    {
      "midi": 54,
      "hit": false,
      "t": 457857.16574997804,
      "d": 7.936508333310485,
      "v": 60
    },
    {
      "midi": 57,
      "hit": false,
      "t": 457857.1657500025,
      "d": 214.28572500002338,
      "v": 100
    },
    {
      "midi": 54,
      "hit": false,
      "t": 458095.260999978,
      "d": 7.936508333310485,
      "v": 100
    },
    {
      "midi": 40,
      "hit": false,
      "t": 458095.260999978,
      "d": 7.936508333310485,
      "v": 122
    },
    {
      "midi": 42,
      "hit": false,
      "t": 458095.260999978,
      "d": 7.936508333310485,
      "v": 100
    },
    {
      "midi": 38,
      "hit": false,
      "t": 458095.26099999156,
      "d": 396.8254166666884,
      "v": 118
    },
    {
      "midi": 64,
      "hit": false,
      "t": 458095.2610000025,
      "d": 214.28572500002338,
      "v": 100
    },
    {
      "midi": 50,
      "hit": false,
      "t": 458095.26100000524,
      "d": 95.23810000001686,
      "v": 115
    },
    {
      "midi": 57,
      "hit": false,
      "t": 458095.26100000524,
      "d": 95.23810000001686,
      "v": 115
    },
    {
      "midi": 50,
      "hit": false,
      "t": 458095.26100000757,
      "d": 71.4285750000272,
      "v": 115
    },
    {
      "midi": 57,
      "hit": false,
      "t": 458095.26100000757,
      "d": 71.4285750000272,
      "v": 115
    },
    {
      "midi": 54,
      "hit": false,
      "t": 458333.35624997795,
      "d": 7.936508333310485,
      "v": 60
    },
    {
      "midi": 62,
      "hit": false,
      "t": 458333.3562500025,
      "d": 214.28572500002338,
      "v": 100
    },
    {
      "midi": 57,
      "hit": false,
      "t": 458563.5149916682,
      "d": 873.0159166666563,
      "v": 119
    },
    {
      "midi": 62,
      "hit": false,
      "t": 458563.5149916682,
      "d": 873.0159166666563,
      "v": 119
    },
    {
      "midi": 66,
      "hit": false,
      "t": 458563.5149916682,
      "d": 873.0159166666563,
      "v": 119
    },
    {
      "midi": 54,
      "hit": false,
      "t": 458571.4514999779,
      "d": 7.936508333310485,
      "v": 60
    },
    {
      "midi": 42,
      "hit": false,
      "t": 458571.4514999779,
      "d": 7.936508333310485,
      "v": 100
    },
    {
      "midi": 38,
      "hit": false,
      "t": 458571.4514999916,
      "d": 396.8254166666884,
      "v": 118
    },
    {
      "midi": 62,
      "hit": false,
      "t": 458571.4515000025,
      "d": 214.28572500002338,
      "v": 100
    },
    {
      "midi": 50,
      "hit": false,
      "t": 458571.45150000526,
      "d": 95.23810000001686,
      "v": 115
    },
    {
      "midi": 57,
      "hit": false,
      "t": 458571.45150000526,
      "d": 95.23810000001686,
      "v": 115
    },
    {
      "midi": 50,
      "hit": false,
      "t": 458571.4515000076,
      "d": 396.8254166666884,
      "v": 111
    },
    {
      "midi": 57,
      "hit": false,
      "t": 458571.4515000076,
      "d": 396.8254166666884,
      "v": 111
    },
    {
      "midi": 54,
      "hit": false,
      "t": 458809.54674997786,
      "d": 7.936508333310485,
      "v": 60
    },
    {
      "midi": 64,
      "hit": false,
      "t": 458809.54675000254,
      "d": 214.28572500002338,
      "v": 100
    },
    {
      "midi": 69,
      "hit": false,
      "t": 459015.8959666691,
      "d": 444.4444666666677,
      "v": 110
    },
    {
      "midi": 66,
      "hit": false,
      "t": 459023.8324750024,
      "d": 444.4444666666677,
      "v": 110
    },
    {
      "midi": 74,
      "hit": false,
      "t": 459023.8324750024,
      "d": 444.4444666666677,
      "v": 110
    },
    {
      "midi": 54,
      "hit": false,
      "t": 459047.6419999778,
      "d": 7.936508333310485,
      "v": 100
    },
    {
      "midi": 40,
      "hit": false,
      "t": 459047.6419999778,
      "d": 7.936508333310485,
      "v": 122
    },
    {
      "midi": 42,
      "hit": false,
      "t": 459047.6419999778,
      "d": 7.936508333310485,
      "v": 100
    },
    {
      "midi": 38,
      "hit": false,
      "t": 459047.6419999916,
      "d": 396.8254166666884,
      "v": 123
    },
    {
      "midi": 69,
      "hit": false,
      "t": 459047.64200000255,
      "d": 214.28572500002338,
      "v": 100
    },
    {
      "midi": 81,
      "hit": false,
      "t": 459047.6420000044,
      "d": 420.63494166667806,
      "v": 125
    },
    {
      "midi": 50,
      "hit": false,
      "t": 459047.6420000053,
      "d": 95.23810000001686,
      "v": 115
    },
    {
      "midi": 57,
      "hit": false,
      "t": 459047.6420000053,
      "d": 95.23810000001686,
      "v": 115
    },
    {
      "midi": 50,
      "hit": false,
      "t": 459047.6420000076,
      "d": 71.4285750000272,
      "v": 115
    },
    {
      "midi": 57,
      "hit": false,
      "t": 459047.6420000076,
      "d": 71.4285750000272,
      "v": 115
    },
    {
      "midi": 54,
      "hit": false,
      "t": 459285.73724997777,
      "d": 7.936508333310485,
      "v": 60
    },
    {
      "midi": 62,
      "hit": false,
      "t": 459285.73725000257,
      "d": 214.28572500002338,
      "v": 100
    },
    {
      "midi": 57,
      "hit": false,
      "t": 459515.8959916682,
      "d": 396.8254166666884,
      "v": 119
    },
    {
      "midi": 62,
      "hit": false,
      "t": 459515.8959916682,
      "d": 396.8254166666884,
      "v": 119
    },
    {
      "midi": 66,
      "hit": false,
      "t": 459515.8959916682,
      "d": 396.8254166666884,
      "v": 119
    },
    {
      "midi": 74,
      "hit": false,
      "t": 459515.89599166904,
      "d": 444.4444666666677,
      "v": 110
    },
    {
      "midi": 69,
      "hit": false,
      "t": 459515.89599166904,
      "d": 444.4444666666677,
      "v": 110
    },
    {
      "midi": 66,
      "hit": false,
      "t": 459515.89599166904,
      "d": 444.4444666666677,
      "v": 110
    },
    {
      "midi": 2,
      "hit": false,
      "t": 459523.8324999777,
      "d": 7.936508333310485,
      "v": 117
    },
    {
      "midi": 42,
      "hit": false,
      "t": 459523.8324999777,
      "d": 7.936508333310485,
      "v": 100
    },
    {
      "midi": 54,
      "hit": false,
      "t": 459523.8324999777,
      "d": 7.936508333310485,
      "v": 60
    },
    {
      "midi": 38,
      "hit": false,
      "t": 459523.83249999164,
      "d": 396.8254166666884,
      "v": 118
    },
    {
      "midi": 62,
      "hit": false,
      "t": 459523.8325000026,
      "d": 214.28572500002338,
      "v": 100
    },
    {
      "midi": 79,
      "hit": false,
      "t": 459523.83250000444,
      "d": 420.63494166667806,
      "v": 125
    },
    {
      "midi": 50,
      "hit": false,
      "t": 459523.8325000053,
      "d": 95.23810000001686,
      "v": 115
    },
    {
      "midi": 57,
      "hit": false,
      "t": 459523.8325000053,
      "d": 95.23810000001686,
      "v": 115
    },
    {
      "midi": 50,
      "hit": false,
      "t": 459523.83250000764,
      "d": 71.4285750000272,
      "v": 115
    },
    {
      "midi": 57,
      "hit": false,
      "t": 459523.83250000764,
      "d": 71.4285750000272,
      "v": 115
    },
    {
      "midi": 54,
      "hit": false,
      "t": 459761.9277499777,
      "d": 7.936508333310485,
      "v": 60
    },
    {
      "midi": 69,
      "hit": false,
      "t": 459761.9277500026,
      "d": 214.28572500002338,
      "v": 100
    },
    {
      "midi": 66,
      "hit": false,
      "t": 459984.1499833357,
      "d": 873.0159166666563,
      "v": 110
    },
    {
      "midi": 69,
      "hit": false,
      "t": 459984.1499833357,
      "d": 873.0159166666563,
      "v": 110
    },
    {
      "midi": 74,
      "hit": false,
      "t": 459984.1499833357,
      "d": 873.0159166666563,
      "v": 110
    },
    {
      "midi": 54,
      "hit": false,
      "t": 460000.02299997763,
      "d": 7.936508333310485,
      "v": 100
    },
    {
      "midi": 40,
      "hit": false,
      "t": 460000.02299997763,
      "d": 7.936508333310485,
      "v": 122
    },
    {
      "midi": 42,
      "hit": false,
      "t": 460000.02299997763,
      "d": 7.936508333310485,
      "v": 100
    },
    {
      "midi": 38,
      "hit": false,
      "t": 460000.02299999166,
      "d": 396.8254166666884,
      "v": 118
    },
    {
      "midi": 64,
      "hit": false,
      "t": 460000.0230000026,
      "d": 214.28572500002338,
      "v": 100
    },
    {
      "midi": 78,
      "hit": false,
      "t": 460000.02300000447,
      "d": 420.63494166667806,
      "v": 125
    },
    {
      "midi": 50,
      "hit": false,
      "t": 460000.0230000053,
      "d": 912.6984583333251,
      "v": 105
    },
    {
      "midi": 57,
      "hit": false,
      "t": 460000.0230000053,
      "d": 912.6984583333251,
      "v": 105
    },
    {
      "midi": 50,
      "hit": false,
      "t": 460000.02300000767,
      "d": 396.8254166666884,
      "v": 111
    },
    {
      "midi": 57,
      "hit": false,
      "t": 460000.02300000767,
      "d": 396.8254166666884,
      "v": 111
    },
    {
      "midi": 57,
      "hit": false,
      "t": 460230.18174166826,
      "d": 634.9206666666432,
      "v": 119
    },
    {
      "midi": 62,
      "hit": false,
      "t": 460230.18174166826,
      "d": 634.9206666666432,
      "v": 119
    },
    {
      "midi": 66,
      "hit": false,
      "t": 460230.18174166826,
      "d": 634.9206666666432,
      "v": 119
    },
    {
      "midi": 54,
      "hit": false,
      "t": 460238.1182499776,
      "d": 7.936508333310485,
      "v": 60
    },
    {
      "midi": 62,
      "hit": false,
      "t": 460238.1182500026,
      "d": 214.28572500002338,
      "v": 100
    },
    {
      "midi": 2,
      "hit": false,
      "t": 460476.21349997754,
      "d": 7.936508333310485,
      "v": 117
    },
    {
      "midi": 42,
      "hit": false,
      "t": 460476.21349997754,
      "d": 7.936508333310485,
      "v": 100
    },
    {
      "midi": 54,
      "hit": false,
      "t": 460476.21349997754,
      "d": 7.936508333310485,
      "v": 60
    },
    {
      "midi": 38,
      "hit": false,
      "t": 460476.2134999917,
      "d": 396.8254166666884,
      "v": 118
    },
    {
      "midi": 69,
      "hit": false,
      "t": 460476.21350000263,
      "d": 214.28572500002338,
      "v": 100
    },
    {
      "midi": 79,
      "hit": false,
      "t": 460476.2135000045,
      "d": 420.63494166667806,
      "v": 125
    },
    {
      "midi": 50,
      "hit": false,
      "t": 460476.2135000077,
      "d": 396.8254166666884,
      "v": 111
    },
    {
      "midi": 57,
      "hit": false,
      "t": 460476.2135000077,
      "d": 396.8254166666884,
      "v": 111
    },
    {
      "midi": 54,
      "hit": false,
      "t": 460714.3087499775,
      "d": 7.936508333310485,
      "v": 60
    },
    {
      "midi": 62,
      "hit": false,
      "t": 460714.30875000264,
      "d": 214.28572500002338,
      "v": 100
    },
    {
      "midi": 81,
      "hit": false,
      "t": 460920.65796667116,
      "d": 1349.2064166666823,
      "v": 125
    },
    {
      "midi": 73,
      "hit": false,
      "t": 460928.5944750004,
      "d": 3793.650983333355,
      "v": 100
    },
    {
      "midi": 64,
      "hit": false,
      "t": 460936.5309833357,
      "d": 1388.8889583333512,
      "v": 110
    },
    {
      "midi": 69,
      "hit": false,
      "t": 460936.5309833357,
      "d": 1388.8889583333512,
      "v": 110
    },
    {
      "midi": 73,
      "hit": false,
      "t": 460936.5309833357,
      "d": 1388.8889583333512,
      "v": 110
    },
    {
      "midi": 57,
      "hit": false,
      "t": 460944.46749166824,
      "d": 634.9206666666432,
      "v": 119
    },
    {
      "midi": 61,
      "hit": false,
      "t": 460944.46749166824,
      "d": 634.9206666666432,
      "v": 119
    },
    {
      "midi": 64,
      "hit": false,
      "t": 460944.46749166824,
      "d": 634.9206666666432,
      "v": 119
    },
    {
      "midi": 2,
      "hit": false,
      "t": 460952.40399997745,
      "d": 7.936508333310485,
      "v": 118
    },
    {
      "midi": 42,
      "hit": false,
      "t": 460952.40399997745,
      "d": 7.936508333310485,
      "v": 115
    },
    {
      "midi": 40,
      "hit": false,
      "t": 460952.40399997745,
      "d": 7.936508333310485,
      "v": 122
    },
    {
      "midi": 54,
      "hit": false,
      "t": 460952.40399997745,
      "d": 7.936508333310485,
      "v": 100
    },
    {
      "midi": 33,
      "hit": false,
      "t": 460952.4039999917,
      "d": 396.8254166666884,
      "v": 123
    },
    {
      "midi": 57,
      "hit": false,
      "t": 460952.40400000266,
      "d": 214.28572500002338,
      "v": 100
    },
    {
      "midi": 45,
      "hit": false,
      "t": 460952.4040000053,
      "d": 912.6984583333833,
      "v": 105
    },
    {
      "midi": 52,
      "hit": false,
      "t": 460952.4040000053,
      "d": 912.6984583333833,
      "v": 105
    },
    {
      "midi": 45,
      "hit": false,
      "t": 460952.4040000077,
      "d": 396.8254166666884,
      "v": 111
    },
    {
      "midi": 52,
      "hit": false,
      "t": 460952.4040000077,
      "d": 396.8254166666884,
      "v": 111
    },
    {
      "midi": 54,
      "hit": false,
      "t": 461190.4992499774,
      "d": 7.936508333310485,
      "v": 60
    },
    {
      "midi": 69,
      "hit": false,
      "t": 461190.4992500027,
      "d": 214.28572500002338,
      "v": 100
    },
    {
      "midi": 54,
      "hit": false,
      "t": 461428.59449997736,
      "d": 7.936508333310485,
      "v": 60
    },
    {
      "midi": 42,
      "hit": false,
      "t": 461428.59449997736,
      "d": 7.936508333310485,
      "v": 100
    },
    {
      "midi": 33,
      "hit": false,
      "t": 461428.59449999174,
      "d": 396.8254166666884,
      "v": 118
    },
    {
      "midi": 61,
      "hit": false,
      "t": 461428.5945000027,
      "d": 214.28572500002338,
      "v": 100
    },
    {
      "midi": 45,
      "hit": false,
      "t": 461428.59450000775,
      "d": 71.4285750000272,
      "v": 115
    },
    {
      "midi": 52,
      "hit": false,
      "t": 461428.59450000775,
      "d": 71.4285750000272,
      "v": 115
    },
    {
      "midi": 57,
      "hit": false,
      "t": 461658.7532416682,
      "d": 198.4127083333442,
      "v": 127
    },
    {
      "midi": 54,
      "hit": false,
      "t": 461666.6897499773,
      "d": 7.936508333310485,
      "v": 60
    },
    {
      "midi": 57,
      "hit": false,
      "t": 461666.6897500027,
      "d": 214.28572500002338,
      "v": 100
    },
    {
      "midi": 54,
      "hit": false,
      "t": 461904.7849999773,
      "d": 7.936508333310485,
      "v": 100
    },
    {
      "midi": 40,
      "hit": false,
      "t": 461904.7849999773,
      "d": 7.936508333310485,
      "v": 122
    },
    {
      "midi": 42,
      "hit": false,
      "t": 461904.7849999773,
      "d": 7.936508333310485,
      "v": 100
    },
    {
      "midi": 33,
      "hit": false,
      "t": 461904.78499999177,
      "d": 396.8254166666884,
      "v": 118
    },
    {
      "midi": 64,
      "hit": false,
      "t": 461904.7850000027,
      "d": 214.28572500002338,
      "v": 100
    },
    {
      "midi": 45,
      "hit": false,
      "t": 461904.78500000533,
      "d": 95.23810000001686,
      "v": 115
    },
    {
      "midi": 52,
      "hit": false,
      "t": 461904.78500000533,
      "d": 95.23810000001686,
      "v": 115
    },
    {
      "midi": 52,
      "hit": false,
      "t": 461904.7850000078,
      "d": 71.4285750000272,
      "v": 115
    },
    {
      "midi": 45,
      "hit": false,
      "t": 461904.7850000078,
      "d": 71.4285750000272,
      "v": 115
    },
    {
      "midi": 54,
      "hit": false,
      "t": 462142.8802499772,
      "d": 7.936508333310485,
      "v": 60
    },
    {
      "midi": 61,
      "hit": false,
      "t": 462142.8802500027,
      "d": 214.28572500002338,
      "v": 100
    },
    {
      "midi": 64,
      "hit": false,
      "t": 462365.1024833357,
      "d": 444.4444666666677,
      "v": 110
    },
    {
      "midi": 69,
      "hit": false,
      "t": 462365.1024833357,
      "d": 444.4444666666677,
      "v": 110
    },
    {
      "midi": 73,
      "hit": false,
      "t": 462365.1024833357,
      "d": 444.4444666666677,
      "v": 110
    },
    {
      "midi": 57,
      "hit": false,
      "t": 462373.03899166826,
      "d": 873.0159166666563,
      "v": 119
    },
    {
      "midi": 61,
      "hit": false,
      "t": 462373.03899166826,
      "d": 873.0159166666563,
      "v": 119
    },
    {
      "midi": 64,
      "hit": false,
      "t": 462373.03899166826,
      "d": 873.0159166666563,
      "v": 119
    },
    {
      "midi": 54,
      "hit": false,
      "t": 462380.9754999772,
      "d": 7.936508333310485,
      "v": 60
    },
    {
      "midi": 42,
      "hit": false,
      "t": 462380.9754999772,
      "d": 7.936508333310485,
      "v": 100
    },
    {
      "midi": 33,
      "hit": false,
      "t": 462380.9754999918,
      "d": 396.8254166666884,
      "v": 118
    },
    {
      "midi": 61,
      "hit": false,
      "t": 462380.97550000274,
      "d": 214.28572500002338,
      "v": 100
    },
    {
      "midi": 76,
      "hit": false,
      "t": 462380.9755000045,
      "d": 420.63494166667806,
      "v": 125
    },
    {
      "midi": 45,
      "hit": false,
      "t": 462380.97550000536,
      "d": 95.23810000001686,
      "v": 115
    },
    {
      "midi": 52,
      "hit": false,
      "t": 462380.97550000536,
      "d": 95.23810000001686,
      "v": 115
    },
    {
      "midi": 45,
      "hit": false,
      "t": 462380.9755000078,
      "d": 396.8254166666884,
      "v": 111
    },
    {
      "midi": 52,
      "hit": false,
      "t": 462380.9755000078,
      "d": 396.8254166666884,
      "v": 111
    },
    {
      "midi": 54,
      "hit": false,
      "t": 462619.07074997714,
      "d": 7.936508333310485,
      "v": 60
    },
    {
      "midi": 64,
      "hit": false,
      "t": 462619.07075000275,
      "d": 214.28572500002338,
      "v": 100
    },
    {
      "midi": 83,
      "hit": false,
      "t": 462833.3564749992,
      "d": 936.5079833333148,
      "v": 100
    },
    {
      "midi": 95,
      "hit": false,
      "t": 462833.3564749992,
      "d": 936.5079833333148,
      "v": 100
    },
    {
      "midi": 64,
      "hit": false,
      "t": 462841.29298333573,
      "d": 873.0159166666563,
      "v": 110
    },
    {
      "midi": 69,
      "hit": false,
      "t": 462841.29298333573,
      "d": 873.0159166666563,
      "v": 110
    },
    {
      "midi": 73,
      "hit": false,
      "t": 462841.29298333573,
      "d": 873.0159166666563,
      "v": 110
    },
    {
      "midi": 54,
      "hit": false,
      "t": 462857.1659999771,
      "d": 7.936508333310485,
      "v": 100
    },
    {
      "midi": 40,
      "hit": false,
      "t": 462857.1659999771,
      "d": 7.936508333310485,
      "v": 122
    },
    {
      "midi": 42,
      "hit": false,
      "t": 462857.1659999771,
      "d": 7.936508333310485,
      "v": 100
    },
    {
      "midi": 33,
      "hit": false,
      "t": 462857.1659999918,
      "d": 396.8254166666884,
      "v": 123
    },
    {
      "midi": 69,
      "hit": false,
      "t": 462857.16600000276,
      "d": 214.28572500002338,
      "v": 100
    },
    {
      "midi": 76,
      "hit": false,
      "t": 462857.1660000045,
      "d": 793.6508333333186,
      "v": 125
    },
    {
      "midi": 45,
      "hit": false,
      "t": 462857.1660000054,
      "d": 95.23810000001686,
      "v": 115
    },
    {
      "midi": 52,
      "hit": false,
      "t": 462857.1660000054,
      "d": 95.23810000001686,
      "v": 115
    },
    {
      "midi": 45,
      "hit": false,
      "t": 462857.1660000078,
      "d": 71.4285750000272,
      "v": 115
    },
    {
      "midi": 52,
      "hit": false,
      "t": 462857.1660000078,
      "d": 71.4285750000272,
      "v": 115
    },
    {
      "midi": 54,
      "hit": false,
      "t": 463095.26124997705,
      "d": 7.936508333310485,
      "v": 60
    },
    {
      "midi": 61,
      "hit": false,
      "t": 463095.2612500028,
      "d": 214.28572500002338,
      "v": 100
    },
    {
      "midi": 57,
      "hit": false,
      "t": 463325.41999166826,
      "d": 198.4127083333442,
      "v": 127
    },
    {
      "midi": 69,
      "hit": false,
      "t": 463325.41999166826,
      "d": 198.4127083333442,
      "v": 127
    },
    {
      "midi": 2,
      "hit": false,
      "t": 463333.356499977,
      "d": 7.936508333310485,
      "v": 117
    },
    {
      "midi": 42,
      "hit": false,
      "t": 463333.356499977,
      "d": 7.936508333310485,
      "v": 100
    },
    {
      "midi": 54,
      "hit": false,
      "t": 463333.356499977,
      "d": 7.936508333310485,
      "v": 60
    },
    {
      "midi": 33,
      "hit": false,
      "t": 463333.35649999185,
      "d": 396.8254166666884,
      "v": 118
    },
    {
      "midi": 64,
      "hit": false,
      "t": 463333.3565000028,
      "d": 214.28572500002338,
      "v": 100
    },
    {
      "midi": 45,
      "hit": false,
      "t": 463333.3565000054,
      "d": 95.23810000001686,
      "v": 115
    },
    {
      "midi": 52,
      "hit": false,
      "t": 463333.3565000054,
      "d": 95.23810000001686,
      "v": 115
    },
    {
      "midi": 52,
      "hit": false,
      "t": 463333.35650000785,
      "d": 71.4285750000272,
      "v": 115
    },
    {
      "midi": 45,
      "hit": false,
      "t": 463333.35650000785,
      "d": 71.4285750000272,
      "v": 115
    },
    {
      "midi": 57,
      "hit": false,
      "t": 463563.51524166827,
      "d": 198.4127083333442,
      "v": 127
    },
    {
      "midi": 69,
      "hit": false,
      "t": 463563.51524166827,
      "d": 198.4127083333442,
      "v": 127
    },
    {
      "midi": 54,
      "hit": false,
      "t": 463571.45174997696,
      "d": 7.936508333310485,
      "v": 60
    },
    {
      "midi": 69,
      "hit": false,
      "t": 463571.4517500028,
      "d": 214.28572500002338,
      "v": 100
    },
    {
      "midi": 85,
      "hit": false,
      "t": 463785.7374749992,
      "d": 936.5079833333148,
      "v": 100
    },
    {
      "midi": 97,
      "hit": false,
      "t": 463785.7374749992,
      "d": 936.5079833333148,
      "v": 100
    },
    {
      "midi": 64,
      "hit": false,
      "t": 463793.6739833357,
      "d": 444.4444666666677,
      "v": 110
    },
    {
      "midi": 69,
      "hit": false,
      "t": 463793.6739833357,
      "d": 444.4444666666677,
      "v": 110
    },
    {
      "midi": 73,
      "hit": false,
      "t": 463793.6739833357,
      "d": 444.4444666666677,
      "v": 110
    },
    {
      "midi": 54,
      "hit": false,
      "t": 463809.5469999769,
      "d": 7.936508333310485,
      "v": 100
    },
    {
      "midi": 40,
      "hit": false,
      "t": 463809.5469999769,
      "d": 7.936508333310485,
      "v": 122
    },
    {
      "midi": 42,
      "hit": false,
      "t": 463809.5469999769,
      "d": 7.936508333310485,
      "v": 100
    },
    {
      "midi": 37,
      "hit": false,
      "t": 463809.5469999919,
      "d": 396.8254166666884,
      "v": 118
    },
    {
      "midi": 69,
      "hit": false,
      "t": 463809.5470000028,
      "d": 214.28572500002338,
      "v": 100
    },
    {
      "midi": 78,
      "hit": false,
      "t": 463809.5470000045,
      "d": 420.63494166667806,
      "v": 125
    },
    {
      "midi": 45,
      "hit": false,
      "t": 463809.5470000054,
      "d": 912.6984583333251,
      "v": 105
    },
    {
      "midi": 52,
      "hit": false,
      "t": 463809.5470000054,
      "d": 912.6984583333251,
      "v": 105
    },
    {
      "midi": 45,
      "hit": false,
      "t": 463809.5470000079,
      "d": 396.8254166666884,
      "v": 111
    },
    {
      "midi": 52,
      "hit": false,
      "t": 463809.5470000079,
      "d": 396.8254166666884,
      "v": 111
    },
    {
      "midi": 57,
      "hit": false,
      "t": 464039.7057416683,
      "d": 634.9206666666432,
      "v": 119
    },
    {
      "midi": 61,
      "hit": false,
      "t": 464039.7057416683,
      "d": 634.9206666666432,
      "v": 119
    },
    {
      "midi": 64,
      "hit": false,
      "t": 464039.7057416683,
      "d": 634.9206666666432,
      "v": 119
    },
    {
      "midi": 54,
      "hit": false,
      "t": 464047.64224997687,
      "d": 7.936508333310485,
      "v": 60
    },
    {
      "midi": 64,
      "hit": false,
      "t": 464047.6422500028,
      "d": 214.28572500002338,
      "v": 100
    },
    {
      "midi": 64,
      "hit": false,
      "t": 464269.86448333575,
      "d": 444.4444666666677,
      "v": 110
    },
    {
      "midi": 73,
      "hit": false,
      "t": 464269.86448333575,
      "d": 444.4444666666677,
      "v": 110
    },
    {
      "midi": 69,
      "hit": false,
      "t": 464269.86448333575,
      "d": 444.4444666666677,
      "v": 110
    },
    {
      "midi": 2,
      "hit": false,
      "t": 464285.7374999768,
      "d": 7.936508333310485,
      "v": 117
    },
    {
      "midi": 42,
      "hit": false,
      "t": 464285.7374999768,
      "d": 7.936508333310485,
      "v": 100
    },
    {
      "midi": 54,
      "hit": false,
      "t": 464285.7374999768,
      "d": 7.936508333310485,
      "v": 60
    },
    {
      "midi": 33,
      "hit": false,
      "t": 464285.7374999919,
      "d": 396.8254166666884,
      "v": 118
    },
    {
      "midi": 73,
      "hit": false,
      "t": 464285.73750000284,
      "d": 214.28572500002338,
      "v": 100
    },
    {
      "midi": 76,
      "hit": false,
      "t": 464285.7375000045,
      "d": 420.63494166667806,
      "v": 125
    },
    {
      "midi": 52,
      "hit": false,
      "t": 464285.7375000079,
      "d": 396.8254166666884,
      "v": 111
    },
    {
      "midi": 45,
      "hit": false,
      "t": 464285.7375000079,
      "d": 396.8254166666884,
      "v": 111
    },
    {
      "midi": 54,
      "hit": false,
      "t": 464523.8327499768,
      "d": 7.936508333310485,
      "v": 60
    },
    {
      "midi": 69,
      "hit": false,
      "t": 464523.83275000285,
      "d": 214.28572500002338,
      "v": 100
    },
    {
      "midi": 86,
      "hit": false,
      "t": 464738.1184749992,
      "d": 3809.523999999976,
      "v": 100
    },
    {
      "midi": 98,
      "hit": false,
      "t": 464738.1184749992,
      "d": 3809.523999999976,
      "v": 100
    },
    {
      "midi": 71,
      "hit": false,
      "t": 464738.11847500043,
      "d": 3793.650983333355,
      "v": 100
    },
    {
      "midi": 62,
      "hit": false,
      "t": 464746.0549833358,
      "d": 873.0159166666563,
      "v": 110
    },
    {
      "midi": 66,
      "hit": false,
      "t": 464746.0549833358,
      "d": 873.0159166666563,
      "v": 110
    },
    {
      "midi": 71,
      "hit": false,
      "t": 464746.0549833358,
      "d": 873.0159166666563,
      "v": 110
    },
    {
      "midi": 57,
      "hit": false,
      "t": 464753.9914916683,
      "d": 634.9206666666432,
      "v": 119
    },
    {
      "midi": 62,
      "hit": false,
      "t": 464753.9914916683,
      "d": 634.9206666666432,
      "v": 119
    },
    {
      "midi": 66,
      "hit": false,
      "t": 464753.9914916683,
      "d": 634.9206666666432,
      "v": 119
    },
    {
      "midi": 2,
      "hit": false,
      "t": 464761.92799997673,
      "d": 7.936508333310485,
      "v": 118
    },
    {
      "midi": 42,
      "hit": false,
      "t": 464761.92799997673,
      "d": 7.936508333310485,
      "v": 115
    },
    {
      "midi": 40,
      "hit": false,
      "t": 464761.92799997673,
      "d": 7.936508333310485,
      "v": 122
    },
    {
      "midi": 54,
      "hit": false,
      "t": 464761.92799997673,
      "d": 7.936508333310485,
      "v": 100
    },
    {
      "midi": 35,
      "hit": false,
      "t": 464761.9279999919,
      "d": 396.8254166666884,
      "v": 123
    },
    {
      "midi": 59,
      "hit": false,
      "t": 464761.92800000287,
      "d": 436.50795833335724,
      "v": 100
    },
    {
      "midi": 74,
      "hit": false,
      "t": 464761.92800000455,
      "d": 873.0159166666563,
      "v": 125
    },
    {
      "midi": 47,
      "hit": false,
      "t": 464761.92800000537,
      "d": 912.6984583333251,
      "v": 105
    },
    {
      "midi": 54,
      "hit": false,
      "t": 464761.92800000537,
      "d": 912.6984583333251,
      "v": 105
    },
    {
      "midi": 47,
      "hit": false,
      "t": 464761.92800000793,
      "d": 396.8254166666884,
      "v": 111
    },
    {
      "midi": 54,
      "hit": false,
      "t": 464761.92800000793,
      "d": 396.8254166666884,
      "v": 111
    },
    {
      "midi": 54,
      "hit": false,
      "t": 465000.0232499767,
      "d": 7.936508333310485,
      "v": 60
    },
    {
      "midi": 54,
      "hit": false,
      "t": 465238.11849997664,
      "d": 7.936508333310485,
      "v": 60
    },
    {
      "midi": 42,
      "hit": false,
      "t": 465238.11849997664,
      "d": 7.936508333310485,
      "v": 100
    },
    {
      "midi": 35,
      "hit": false,
      "t": 465238.11849999195,
      "d": 396.8254166666884,
      "v": 118
    },
    {
      "midi": 62,
      "hit": false,
      "t": 465238.1185000029,
      "d": 214.28572500002338,
      "v": 100
    },
    {
      "midi": 47,
      "hit": false,
      "t": 465238.11850000796,
      "d": 71.4285750000272,
      "v": 115
    },
    {
      "midi": 54,
      "hit": false,
      "t": 465238.11850000796,
      "d": 71.4285750000272,
      "v": 115
    },
    {
      "midi": 57,
      "hit": false,
      "t": 465468.27724166826,
      "d": 198.4127083333442,
      "v": 119
    },
    {
      "midi": 62,
      "hit": false,
      "t": 465468.27724166826,
      "d": 198.4127083333442,
      "v": 119
    },
    {
      "midi": 66,
      "hit": false,
      "t": 465468.27724166826,
      "d": 198.4127083333442,
      "v": 119
    },
    {
      "midi": 54,
      "hit": false,
      "t": 465476.2137499766,
      "d": 7.936508333310485,
      "v": 60
    },
    {
      "midi": 59,
      "hit": false,
      "t": 465476.2137500029,
      "d": 214.28572500002338,
      "v": 100
    },
    {
      "midi": 54,
      "hit": false,
      "t": 465714.30899997655,
      "d": 7.936508333310485,
      "v": 100
    },
    {
      "midi": 40,
      "hit": false,
      "t": 465714.30899997655,
      "d": 7.936508333310485,
      "v": 122
    },
    {
      "midi": 42,
      "hit": false,
      "t": 465714.30899997655,
      "d": 7.936508333310485,
      "v": 100
    },
    {
      "midi": 35,
      "hit": false,
      "t": 465714.308999992,
      "d": 396.8254166666884,
      "v": 118
    },
    {
      "midi": 66,
      "hit": false,
      "t": 465714.3090000029,
      "d": 214.28572500002338,
      "v": 100
    },
    {
      "midi": 47,
      "hit": false,
      "t": 465714.30900000536,
      "d": 95.23810000001686,
      "v": 115
    },
    {
      "midi": 54,
      "hit": false,
      "t": 465714.30900000536,
      "d": 95.23810000001686,
      "v": 115
    },
    {
      "midi": 47,
      "hit": false,
      "t": 465714.309000008,
      "d": 71.4285750000272,
      "v": 115
    },
    {
      "midi": 54,
      "hit": false,
      "t": 465714.309000008,
      "d": 71.4285750000272,
      "v": 115
    },
    {
      "midi": 54,
      "hit": false,
      "t": 465952.4042499765,
      "d": 7.936508333310485,
      "v": 60
    },
    {
      "midi": 64,
      "hit": false,
      "t": 465952.40425000293,
      "d": 214.28572500002338,
      "v": 100
    },
    {
      "midi": 62,
      "hit": false,
      "t": 466174.62648333574,
      "d": 444.4444666666677,
      "v": 110
    },
    {
      "midi": 66,
      "hit": false,
      "t": 466174.62648333574,
      "d": 444.4444666666677,
      "v": 110
    },
    {
      "midi": 71,
      "hit": false,
      "t": 466174.62648333574,
      "d": 444.4444666666677,
      "v": 110
    },
    {
      "midi": 57,
      "hit": false,
      "t": 466182.5629916683,
      "d": 198.4127083333442,
      "v": 119
    },
    {
      "midi": 62,
      "hit": false,
      "t": 466182.5629916683,
      "d": 198.4127083333442,
      "v": 119
    },
    {
      "midi": 66,
      "hit": false,
      "t": 466182.5629916683,
      "d": 198.4127083333442,
      "v": 119
    },
    {
      "midi": 54,
      "hit": false,
      "t": 466190.49949997646,
      "d": 7.936508333310485,
      "v": 60
    },
    {
      "midi": 42,
      "hit": false,
      "t": 466190.49949997646,
      "d": 7.936508333310485,
      "v": 100
    },
    {
      "midi": 35,
      "hit": false,
      "t": 466190.499499992,
      "d": 396.8254166666884,
      "v": 118
    },
    {
      "midi": 64,
      "hit": false,
      "t": 466190.49950000294,
      "d": 214.28572500002338,
      "v": 100
    },
    {
      "midi": 73,
      "hit": false,
      "t": 466190.4995000045,
      "d": 420.63494166667806,
      "v": 125
    },
    {
      "midi": 47,
      "hit": false,
      "t": 466190.4995000054,
      "d": 95.23810000001686,
      "v": 115
    },
    {
      "midi": 54,
      "hit": false,
      "t": 466190.4995000054,
      "d": 95.23810000001686,
      "v": 115
    },
    {
      "midi": 47,
      "hit": false,
      "t": 466190.499500008,
      "d": 396.8254166666884,
      "v": 111
    },
    {
      "midi": 54,
      "hit": false,
      "t": 466190.499500008,
      "d": 396.8254166666884,
      "v": 111
    },
    {
      "midi": 66,
      "hit": false,
      "t": 466420.6582416683,
      "d": 198.4127083333442,
      "v": 119
    },
    {
      "midi": 62,
      "hit": false,
      "t": 466420.6582416683,
      "d": 198.4127083333442,
      "v": 119
    },
    {
      "midi": 57,
      "hit": false,
      "t": 466420.6582416683,
      "d": 198.4127083333442,
      "v": 119
    },
    {
      "midi": 54,
      "hit": false,
      "t": 466428.5947499764,
      "d": 7.936508333310485,
      "v": 60
    },
    {
      "midi": 66,
      "hit": false,
      "t": 466428.59475000296,
      "d": 214.28572500002338,
      "v": 100
    },
    {
      "midi": 62,
      "hit": false,
      "t": 466650.81698333577,
      "d": 444.4444666666677,
      "v": 110
    },
    {
      "midi": 66,
      "hit": false,
      "t": 466650.81698333577,
      "d": 444.4444666666677,
      "v": 110
    },
    {
      "midi": 71,
      "hit": false,
      "t": 466650.81698333577,
      "d": 444.4444666666677,
      "v": 110
    },
    {
      "midi": 54,
      "hit": false,
      "t": 466666.68999997637,
      "d": 7.936508333310485,
      "v": 100
    },
    {
      "midi": 40,
      "hit": false,
      "t": 466666.68999997637,
      "d": 7.936508333310485,
      "v": 122
    },
    {
      "midi": 42,
      "hit": false,
      "t": 466666.68999997637,
      "d": 7.936508333310485,
      "v": 100
    },
    {
      "midi": 35,
      "hit": false,
      "t": 466666.689999992,
      "d": 396.8254166666884,
      "v": 123
    },
    {
      "midi": 71,
      "hit": false,
      "t": 466666.690000003,
      "d": 214.28572500002338,
      "v": 100
    },
    {
      "midi": 74,
      "hit": false,
      "t": 466666.69000000454,
      "d": 420.63494166667806,
      "v": 125
    },
    {
      "midi": 47,
      "hit": false,
      "t": 466666.6900000054,
      "d": 95.23810000001686,
      "v": 115
    },
    {
      "midi": 54,
      "hit": false,
      "t": 466666.6900000054,
      "d": 95.23810000001686,
      "v": 115
    },
    {
      "midi": 47,
      "hit": false,
      "t": 466666.69000000803,
      "d": 71.4285750000272,
      "v": 115
    },
    {
      "midi": 54,
      "hit": false,
      "t": 466666.69000000803,
      "d": 71.4285750000272,
      "v": 115
    },
    {
      "midi": 54,
      "hit": false,
      "t": 466904.7852499763,
      "d": 7.936508333310485,
      "v": 60
    },
    {
      "midi": 62,
      "hit": false,
      "t": 466904.785250003,
      "d": 214.28572500002338,
      "v": 100
    },
    {
      "midi": 62,
      "hit": false,
      "t": 467127.0074833358,
      "d": 444.4444666666677,
      "v": 110
    },
    {
      "midi": 66,
      "hit": false,
      "t": 467127.0074833358,
      "d": 444.4444666666677,
      "v": 110
    },
    {
      "midi": 71,
      "hit": false,
      "t": 467127.0074833358,
      "d": 444.4444666666677,
      "v": 110
    },
    {
      "midi": 57,
      "hit": false,
      "t": 467134.94399166835,
      "d": 396.8254166666884,
      "v": 119
    },
    {
      "midi": 62,
      "hit": false,
      "t": 467134.94399166835,
      "d": 396.8254166666884,
      "v": 119
    },
    {
      "midi": 66,
      "hit": false,
      "t": 467134.94399166835,
      "d": 396.8254166666884,
      "v": 119
    },
    {
      "midi": 2,
      "hit": false,
      "t": 467142.8804999763,
      "d": 7.936508333310485,
      "v": 117
    },
    {
      "midi": 42,
      "hit": false,
      "t": 467142.8804999763,
      "d": 7.936508333310485,
      "v": 100
    },
    {
      "midi": 54,
      "hit": false,
      "t": 467142.8804999763,
      "d": 7.936508333310485,
      "v": 60
    },
    {
      "midi": 35,
      "hit": false,
      "t": 467142.88049999205,
      "d": 396.8254166666884,
      "v": 118
    },
    {
      "midi": 62,
      "hit": false,
      "t": 467142.880500003,
      "d": 214.28572500002338,
      "v": 100
    },
    {
      "midi": 76,
      "hit": false,
      "t": 467142.88050000457,
      "d": 420.63494166667806,
      "v": 125
    },
    {
      "midi": 47,
      "hit": false,
      "t": 467142.88050000544,
      "d": 95.23810000001686,
      "v": 115
    },
    {
      "midi": 54,
      "hit": false,
      "t": 467142.88050000544,
      "d": 95.23810000001686,
      "v": 115
    },
    {
      "midi": 54,
      "hit": false,
      "t": 467142.88050000806,
      "d": 71.4285750000272,
      "v": 115
    },
    {
      "midi": 47,
      "hit": false,
      "t": 467142.88050000806,
      "d": 71.4285750000272,
      "v": 115
    },
    {
      "midi": 54,
      "hit": false,
      "t": 467380.97574997623,
      "d": 7.936508333310485,
      "v": 60
    },
    {
      "midi": 71,
      "hit": false,
      "t": 467380.975750003,
      "d": 214.28572500002338,
      "v": 100
    },
    {
      "midi": 62,
      "hit": false,
      "t": 467603.1979833358,
      "d": 444.4444666666677,
      "v": 110
    },
    {
      "midi": 66,
      "hit": false,
      "t": 467603.1979833358,
      "d": 444.4444666666677,
      "v": 110
    },
    {
      "midi": 71,
      "hit": false,
      "t": 467603.1979833358,
      "d": 444.4444666666677,
      "v": 110
    },
    {
      "midi": 54,
      "hit": false,
      "t": 467619.0709999762,
      "d": 7.936508333310485,
      "v": 100
    },
    {
      "midi": 40,
      "hit": false,
      "t": 467619.0709999762,
      "d": 7.936508333310485,
      "v": 122
    },
    {
      "midi": 42,
      "hit": false,
      "t": 467619.0709999762,
      "d": 7.936508333310485,
      "v": 100
    },
    {
      "midi": 40,
      "hit": false,
      "t": 467619.0709999921,
      "d": 396.8254166666884,
      "v": 118
    },
    {
      "midi": 66,
      "hit": false,
      "t": 467619.071000003,
      "d": 214.28572500002338,
      "v": 100
    },
    {
      "midi": 78,
      "hit": false,
      "t": 467619.0710000046,
      "d": 420.63494166667806,
      "v": 125
    },
    {
      "midi": 47,
      "hit": false,
      "t": 467619.0710000054,
      "d": 912.6984583333251,
      "v": 105
    },
    {
      "midi": 54,
      "hit": false,
      "t": 467619.0710000054,
      "d": 912.6984583333251,
      "v": 105
    },
    {
      "midi": 47,
      "hit": false,
      "t": 467619.0710000081,
      "d": 928.5714750000625,
      "v": 111
    },
    {
      "midi": 54,
      "hit": false,
      "t": 467619.0710000081,
      "d": 928.5714750000625,
      "v": 111
    },
    {
      "midi": 57,
      "hit": false,
      "t": 467849.2297416684,
      "d": 198.4127083333442,
      "v": 119
    },
    {
      "midi": 62,
      "hit": false,
      "t": 467849.2297416684,
      "d": 198.4127083333442,
      "v": 119
    },
    {
      "midi": 66,
      "hit": false,
      "t": 467849.2297416684,
      "d": 198.4127083333442,
      "v": 119
    },
    {
      "midi": 54,
      "hit": false,
      "t": 467857.16624997614,
      "d": 7.936508333310485,
      "v": 60
    },
    {
      "midi": 62,
      "hit": false,
      "t": 467857.16625000304,
      "d": 214.28572500002338,
      "v": 100
    },
    {
      "midi": 62,
      "hit": false,
      "t": 468079.38848333585,
      "d": 444.4444666666677,
      "v": 110
    },
    {
      "midi": 66,
      "hit": false,
      "t": 468079.38848333585,
      "d": 444.4444666666677,
      "v": 110
    },
    {
      "midi": 71,
      "hit": false,
      "t": 468079.38848333585,
      "d": 444.4444666666677,
      "v": 110
    },
    {
      "midi": 2,
      "hit": false,
      "t": 468095.2614999761,
      "d": 7.936508333310485,
      "v": 117
    },
    {
      "midi": 42,
      "hit": false,
      "t": 468095.2614999761,
      "d": 7.936508333310485,
      "v": 100
    },
    {
      "midi": 54,
      "hit": false,
      "t": 468095.2614999761,
      "d": 7.936508333310485,
      "v": 60
    },
    {
      "midi": 41,
      "hit": false,
      "t": 468095.2614999921,
      "d": 396.8254166666884,
      "v": 118
    },
    {
      "midi": 71,
      "hit": false,
      "t": 468095.26150000305,
      "d": 214.28572500002338,
      "v": 100
    },
    {
      "midi": 83,
      "hit": false,
      "t": 468095.2615000046,
      "d": 420.63494166667806,
      "v": 125
    },
    {
      "midi": 54,
      "hit": false,
      "t": 468333.35674997605,
      "d": 7.936508333310485,
      "v": 60
    },
    {
      "midi": 66,
      "hit": false,
      "t": 468333.35675000306,
      "d": 214.28572500002338,
      "v": 100
    },
    {
      "midi": 81,
      "hit": false,
      "t": 468539.7059666713,
      "d": 2539.6826666666893,
      "v": 125
    },
    {
      "midi": 69,
      "hit": false,
      "t": 468547.6424749992,
      "d": 3809.523999999976,
      "v": 100
    },
    {
      "midi": 97,
      "hit": false,
      "t": 468547.6424749992,
      "d": 3809.523999999976,
      "v": 100
    },
    {
      "midi": 81,
      "hit": false,
      "t": 468547.64247500047,
      "d": 920.6349666666938,
      "v": 100
    },
    {
      "midi": 93,
      "hit": false,
      "t": 468547.64247500047,
      "d": 920.6349666666938,
      "v": 100
    },
    {
      "midi": 61,
      "hit": false,
      "t": 468555.5789833359,
      "d": 873.0159166666563,
      "v": 110
    },
    {
      "midi": 66,
      "hit": false,
      "t": 468555.5789833359,
      "d": 873.0159166666563,
      "v": 110
    },
    {
      "midi": 73,
      "hit": false,
      "t": 468555.5789833359,
      "d": 873.0159166666563,
      "v": 110
    },
    {
      "midi": 61,
      "hit": false,
      "t": 468563.5154916684,
      "d": 634.9206666666432,
      "v": 119
    },
    {
      "midi": 66,
      "hit": false,
      "t": 468563.5154916684,
      "d": 634.9206666666432,
      "v": 119
    },
    {
      "midi": 69,
      "hit": false,
      "t": 468563.5154916684,
      "d": 634.9206666666432,
      "v": 119
    },
    {
      "midi": 2,
      "hit": false,
      "t": 468571.451999976,
      "d": 7.936508333310485,
      "v": 118
    },
    {
      "midi": 42,
      "hit": false,
      "t": 468571.451999976,
      "d": 7.936508333310485,
      "v": 115
    },
    {
      "midi": 40,
      "hit": false,
      "t": 468571.451999976,
      "d": 7.936508333310485,
      "v": 122
    },
    {
      "midi": 54,
      "hit": false,
      "t": 468571.451999976,
      "d": 7.936508333310485,
      "v": 100
    },
    {
      "midi": 42,
      "hit": false,
      "t": 468571.45199999213,
      "d": 396.8254166666884,
      "v": 123
    },
    {
      "midi": 57,
      "hit": false,
      "t": 468571.4520000031,
      "d": 214.28572500002338,
      "v": 100
    },
    {
      "midi": 42,
      "hit": false,
      "t": 468571.4520000054,
      "d": 912.6984583333251,
      "v": 105
    },
    {
      "midi": 49,
      "hit": false,
      "t": 468571.4520000054,
      "d": 912.6984583333251,
      "v": 105
    },
    {
      "midi": 54,
      "hit": false,
      "t": 468571.45200000814,
      "d": 396.8254166666302,
      "v": 111
    },
    {
      "midi": 61,
      "hit": false,
      "t": 468571.45200000814,
      "d": 396.8254166666302,
      "v": 111
    },
    {
      "midi": 54,
      "hit": false,
      "t": 468809.54724997596,
      "d": 7.936508333310485,
      "v": 60
    },
    {
      "midi": 71,
      "hit": false,
      "t": 468809.5472500031,
      "d": 214.28572500002338,
      "v": 100
    },
    {
      "midi": 54,
      "hit": false,
      "t": 469047.6424999759,
      "d": 7.936508333310485,
      "v": 60
    },
    {
      "midi": 42,
      "hit": false,
      "t": 469047.6424999759,
      "d": 7.936508333310485,
      "v": 100
    },
    {
      "midi": 42,
      "hit": false,
      "t": 469047.64249999216,
      "d": 396.8254166666884,
      "v": 118
    },
    {
      "midi": 61,
      "hit": false,
      "t": 469047.6425000031,
      "d": 214.28572500002338,
      "v": 100
    },
    {
      "midi": 54,
      "hit": false,
      "t": 469047.6425000081,
      "d": 71.4285750000272,
      "v": 115
    },
    {
      "midi": 61,
      "hit": false,
      "t": 469047.6425000081,
      "d": 71.4285750000272,
      "v": 115
    },
    {
      "midi": 61,
      "hit": false,
      "t": 469277.8012416684,
      "d": 198.4127083333442,
      "v": 119
    },
    {
      "midi": 66,
      "hit": false,
      "t": 469277.8012416684,
      "d": 198.4127083333442,
      "v": 119
    },
    {
      "midi": 69,
      "hit": false,
      "t": 469277.8012416684,
      "d": 198.4127083333442,
      "v": 119
    },
    {
      "midi": 54,
      "hit": false,
      "t": 469285.7377499759,
      "d": 7.936508333310485,
      "v": 60
    },
    {
      "midi": 57,
      "hit": false,
      "t": 469285.7377500031,
      "d": 214.28572500002338,
      "v": 100
    },
    {
      "midi": 79,
      "hit": false,
      "t": 469500.0234750005,
      "d": 920.6349666666938,
      "v": 100
    },
    {
      "midi": 91,
      "hit": false,
      "t": 469500.0234750005,
      "d": 920.6349666666938,
      "v": 100
    },
    {
      "midi": 66,
      "hit": false,
      "t": 469507.95998333587,
      "d": 873.0159166666563,
      "v": 127
    },
    {
      "midi": 61,
      "hit": false,
      "t": 469507.95998333587,
      "d": 873.0159166666563,
      "v": 127
    },
    {
      "midi": 73,
      "hit": false,
      "t": 469507.95998333587,
      "d": 873.0159166666563,
      "v": 127
    },
    {
      "midi": 69,
      "hit": false,
      "t": 469507.95998333587,
      "d": 873.0159166666563,
      "v": 127
    },
    {
      "midi": 54,
      "hit": false,
      "t": 469523.8329999758,
      "d": 7.936508333310485,
      "v": 100
    },
    {
      "midi": 40,
      "hit": false,
      "t": 469523.8329999758,
      "d": 7.936508333310485,
      "v": 122
    },
    {
      "midi": 42,
      "hit": false,
      "t": 469523.8329999758,
      "d": 7.936508333310485,
      "v": 100
    },
    {
      "midi": 42,
      "hit": false,
      "t": 469523.8329999922,
      "d": 396.8254166666884,
      "v": 118
    },
    {
      "midi": 64,
      "hit": false,
      "t": 469523.8330000031,
      "d": 214.28572500002338,
      "v": 100
    },
    {
      "midi": 42,
      "hit": false,
      "t": 469523.8330000054,
      "d": 95.23810000001686,
      "v": 115
    },
    {
      "midi": 49,
      "hit": false,
      "t": 469523.8330000054,
      "d": 95.23810000001686,
      "v": 115
    },
    {
      "midi": 61,
      "hit": false,
      "t": 469523.83300000813,
      "d": 71.4285750000272,
      "v": 115
    },
    {
      "midi": 54,
      "hit": false,
      "t": 469523.83300000813,
      "d": 71.4285750000272,
      "v": 115
    },
    {
      "midi": 54,
      "hit": false,
      "t": 469761.9282499758,
      "d": 7.936508333310485,
      "v": 60
    },
    {
      "midi": 61,
      "hit": false,
      "t": 469761.92825000314,
      "d": 214.28572500002338,
      "v": 100
    },
    {
      "midi": 61,
      "hit": false,
      "t": 469992.08699166845,
      "d": 873.0159166666563,
      "v": 119
    },
    {
      "midi": 66,
      "hit": false,
      "t": 469992.08699166845,
      "d": 873.0159166666563,
      "v": 119
    },
    {
      "midi": 69,
      "hit": false,
      "t": 469992.08699166845,
      "d": 873.0159166666563,
      "v": 119
    },
    {
      "midi": 54,
      "hit": false,
      "t": 470000.02349997574,
      "d": 7.936508333310485,
      "v": 60
    },
    {
      "midi": 46,
      "hit": false,
      "t": 470000.02349997574,
      "d": 7.936508333310485,
      "v": 100
    },
    {
      "midi": 42,
      "hit": false,
      "t": 470000.0234999922,
      "d": 396.8254166666884,
      "v": 118
    },
    {
      "midi": 61,
      "hit": false,
      "t": 470000.02350000315,
      "d": 214.28572500002338,
      "v": 100
    },
    {
      "midi": 49,
      "hit": false,
      "t": 470000.0235000054,
      "d": 95.23810000001686,
      "v": 115
    },
    {
      "midi": 42,
      "hit": false,
      "t": 470000.0235000054,
      "d": 95.23810000001686,
      "v": 115
    },
    {
      "midi": 54,
      "hit": false,
      "t": 470000.02350000816,
      "d": 396.8254166666884,
      "v": 111
    },
    {
      "midi": 61,
      "hit": false,
      "t": 470000.02350000816,
      "d": 396.8254166666884,
      "v": 111
    },
    {
      "midi": 54,
      "hit": false,
      "t": 470238.1187499757,
      "d": 7.936508333310485,
      "v": 60
    },
    {
      "midi": 64,
      "hit": false,
      "t": 470238.11875000317,
      "d": 214.28572500002338,
      "v": 100
    },
    {
      "midi": 78,
      "hit": false,
      "t": 470452.40447500057,
      "d": 920.6349666666938,
      "v": 100
    },
    {
      "midi": 90,
      "hit": false,
      "t": 470452.40447500057,
      "d": 920.6349666666938,
      "v": 100
    },
    {
      "midi": 61,
      "hit": false,
      "t": 470460.34098333586,
      "d": 444.4444666666677,
      "v": 127
    },
    {
      "midi": 73,
      "hit": false,
      "t": 470460.34098333586,
      "d": 444.4444666666677,
      "v": 127
    },
    {
      "midi": 69,
      "hit": false,
      "t": 470460.34098333586,
      "d": 444.4444666666677,
      "v": 127
    },
    {
      "midi": 66,
      "hit": false,
      "t": 470460.34098333586,
      "d": 444.4444666666677,
      "v": 127
    },
    {
      "midi": 54,
      "hit": false,
      "t": 470476.21399997565,
      "d": 7.936508333310485,
      "v": 100
    },
    {
      "midi": 40,
      "hit": false,
      "t": 470476.21399997565,
      "d": 7.936508333310485,
      "v": 122
    },
    {
      "midi": 46,
      "hit": false,
      "t": 470476.21399997565,
      "d": 7.936508333310485,
      "v": 100
    },
    {
      "midi": 42,
      "hit": false,
      "t": 470476.21399999224,
      "d": 396.8254166666884,
      "v": 118
    },
    {
      "midi": 66,
      "hit": false,
      "t": 470476.2140000032,
      "d": 214.28572500002338,
      "v": 100
    },
    {
      "midi": 42,
      "hit": false,
      "t": 470476.21400000545,
      "d": 95.23810000001686,
      "v": 115
    },
    {
      "midi": 49,
      "hit": false,
      "t": 470476.21400000545,
      "d": 95.23810000001686,
      "v": 115
    },
    {
      "midi": 54,
      "hit": false,
      "t": 470476.2140000082,
      "d": 71.4285750000272,
      "v": 115
    },
    {
      "midi": 61,
      "hit": false,
      "t": 470476.2140000082,
      "d": 71.4285750000272,
      "v": 115
    },
    {
      "midi": 54,
      "hit": false,
      "t": 470714.3092499756,
      "d": 7.936508333310485,
      "v": 60
    },
    {
      "midi": 61,
      "hit": false,
      "t": 470714.3092500032,
      "d": 214.28572500002338,
      "v": 100
    },
    {
      "midi": 61,
      "hit": false,
      "t": 470936.5314833359,
      "d": 873.0159166666563,
      "v": 127
    },
    {
      "midi": 73,
      "hit": false,
      "t": 470936.5314833359,
      "d": 873.0159166666563,
      "v": 127
    },
    {
      "midi": 69,
      "hit": false,
      "t": 470936.5314833359,
      "d": 873.0159166666563,
      "v": 127
    },
    {
      "midi": 66,
      "hit": false,
      "t": 470936.5314833359,
      "d": 873.0159166666563,
      "v": 127
    },
    {
      "midi": 66,
      "hit": false,
      "t": 470944.46799166844,
      "d": 396.8254166666884,
      "v": 119
    },
    {
      "midi": 69,
      "hit": false,
      "t": 470944.46799166844,
      "d": 396.8254166666884,
      "v": 119
    },
    {
      "midi": 73,
      "hit": false,
      "t": 470944.46799166844,
      "d": 396.8254166666884,
      "v": 119
    },
    {
      "midi": 2,
      "hit": false,
      "t": 470952.40449997556,
      "d": 7.936508333310485,
      "v": 117
    },
    {
      "midi": 46,
      "hit": false,
      "t": 470952.40449997556,
      "d": 7.936508333310485,
      "v": 100
    },
    {
      "midi": 54,
      "hit": false,
      "t": 470952.40449997556,
      "d": 7.936508333310485,
      "v": 60
    },
    {
      "midi": 37,
      "hit": false,
      "t": 470952.40449999226,
      "d": 396.8254166666884,
      "v": 118
    },
    {
      "midi": 64,
      "hit": false,
      "t": 470952.4045000032,
      "d": 214.28572500002338,
      "v": 100
    },
    {
      "midi": 42,
      "hit": false,
      "t": 470952.4045000055,
      "d": 95.23810000001686,
      "v": 115
    },
    {
      "midi": 49,
      "hit": false,
      "t": 470952.4045000055,
      "d": 95.23810000001686,
      "v": 115
    },
    {
      "midi": 61,
      "hit": false,
      "t": 470952.4045000082,
      "d": 71.4285750000272,
      "v": 115
    },
    {
      "midi": 54,
      "hit": false,
      "t": 470952.4045000082,
      "d": 71.4285750000272,
      "v": 115
    },
    {
      "midi": 54,
      "hit": false,
      "t": 471190.4997499755,
      "d": 7.936508333310485,
      "v": 60
    },
    {
      "midi": 66,
      "hit": false,
      "t": 471190.4997500032,
      "d": 214.28572500002338,
      "v": 100
    },
    {
      "midi": 76,
      "hit": false,
      "t": 471404.7854750006,
      "d": 920.6349666666938,
      "v": 100
    },
    {
      "midi": 88,
      "hit": false,
      "t": 471404.7854750006,
      "d": 920.6349666666938,
      "v": 100
    },
    {
      "midi": 54,
      "hit": false,
      "t": 471428.59499997547,
      "d": 7.936508333310485,
      "v": 100
    },
    {
      "midi": 40,
      "hit": false,
      "t": 471428.59499997547,
      "d": 7.936508333310485,
      "v": 122
    },
    {
      "midi": 30,
      "hit": false,
      "t": 471428.5949999923,
      "d": 396.8254166666884,
      "v": 118
    },
    {
      "midi": 66,
      "hit": false,
      "t": 471428.59500000323,
      "d": 214.28572500002338,
      "v": 100
    },
    {
      "midi": 76,
      "hit": false,
      "t": 471428.5950000046,
      "d": 420.63494166667806,
      "v": 125
    },
    {
      "midi": 42,
      "hit": false,
      "t": 471428.5950000055,
      "d": 357.14287500001956,
      "v": 115
    },
    {
      "midi": 49,
      "hit": false,
      "t": 471428.5950000055,
      "d": 357.14287500001956,
      "v": 115
    },
    {
      "midi": 54,
      "hit": false,
      "t": 471428.59500000824,
      "d": 396.8254166666884,
      "v": 111
    },
    {
      "midi": 61,
      "hit": false,
      "t": 471428.59500000824,
      "d": 396.8254166666884,
      "v": 111
    },
    {
      "midi": 69,
      "hit": false,
      "t": 471658.7537416685,
      "d": 634.9206666666432,
      "v": 119
    },
    {
      "midi": 73,
      "hit": false,
      "t": 471658.7537416685,
      "d": 634.9206666666432,
      "v": 119
    },
    {
      "midi": 78,
      "hit": false,
      "t": 471658.7537416685,
      "d": 634.9206666666432,
      "v": 119
    },
    {
      "midi": 54,
      "hit": false,
      "t": 471666.6902499754,
      "d": 7.936508333310485,
      "v": 60
    },
    {
      "midi": 64,
      "hit": false,
      "t": 471666.69025000324,
      "d": 214.28572500002338,
      "v": 100
    },
    {
      "midi": 61,
      "hit": false,
      "t": 471888.9124833359,
      "d": 444.4444666666677,
      "v": 127
    },
    {
      "midi": 73,
      "hit": false,
      "t": 471888.9124833359,
      "d": 444.4444666666677,
      "v": 127
    },
    {
      "midi": 69,
      "hit": false,
      "t": 471888.9124833359,
      "d": 444.4444666666677,
      "v": 127
    },
    {
      "midi": 66,
      "hit": false,
      "t": 471888.9124833359,
      "d": 444.4444666666677,
      "v": 127
    },
    {
      "midi": 2,
      "hit": false,
      "t": 471904.7854999754,
      "d": 7.936508333310485,
      "v": 117
    },
    {
      "midi": 54,
      "hit": false,
      "t": 471904.7854999754,
      "d": 7.936508333310485,
      "v": 60
    },
    {
      "midi": 40,
      "hit": false,
      "t": 471904.7854999754,
      "d": 7.936508333310485,
      "v": 122
    },
    {
      "midi": 37,
      "hit": false,
      "t": 471904.7854999923,
      "d": 396.8254166666884,
      "v": 118
    },
    {
      "midi": 73,
      "hit": false,
      "t": 471904.78550000326,
      "d": 214.28572500002338,
      "v": 100
    },
    {
      "midi": 78,
      "hit": false,
      "t": 471904.78550000465,
      "d": 420.63494166667806,
      "v": 125
    },
    {
      "midi": 49,
      "hit": false,
      "t": 471904.7855000055,
      "d": 357.14287500001956,
      "v": 115
    },
    {
      "midi": 42,
      "hit": false,
      "t": 471904.7855000055,
      "d": 357.14287500001956,
      "v": 115
    },
    {
      "midi": 61,
      "hit": false,
      "t": 471904.78550000826,
      "d": 396.8254166666884,
      "v": 111
    },
    {
      "midi": 54,
      "hit": false,
      "t": 471904.78550000826,
      "d": 396.8254166666884,
      "v": 111
    },
    {
      "midi": 54,
      "hit": false,
      "t": 472142.88074997533,
      "d": 7.936508333310485,
      "v": 60
    },
    {
      "midi": 40,
      "hit": false,
      "t": 472142.88074997533,
      "d": 7.936508333310485,
      "v": 122
    },
    {
      "midi": 66,
      "hit": false,
      "t": 472142.88075000327,
      "d": 214.28572500002338,
      "v": 100
    },
    {
      "midi": 67,
      "hit": false,
      "t": 472333.35695000144,
      "d": 1825.3969166667084,
      "v": 100
    },
    {
      "midi": 79,
      "hit": false,
      "t": 472341.293458338,
      "d": 873.0159166666563,
      "v": 125
    },
    {
      "midi": 86,
      "hit": false,
      "t": 472357.16647499916,
      "d": 1880.9524749999982,
      "v": 100
    },
    {
      "midi": 95,
      "hit": false,
      "t": 472357.16647499916,
      "d": 1880.9524749999982,
      "v": 100
    },
    {
      "midi": 67,
      "hit": false,
      "t": 472357.1664750007,
      "d": 1880.9524749999982,
      "v": 100
    },
    {
      "midi": 74,
      "hit": false,
      "t": 472357.1664750007,
      "d": 1880.9524749999982,
      "v": 100
    },
    {
      "midi": 83,
      "hit": false,
      "t": 472357.1664750007,
      "d": 1880.9524749999982,
      "v": 100
    },
    {
      "midi": 74,
      "hit": false,
      "t": 472365.10298333585,
      "d": 1888.8889833334251,
      "v": 110
    },
    {
      "midi": 62,
      "hit": false,
      "t": 472365.10298333585,
      "d": 2817.4604583334294,
      "v": 110
    },
    {
      "midi": 67,
      "hit": false,
      "t": 472365.10298333585,
      "d": 2817.4604583334294,
      "v": 110
    },
    {
      "midi": 71,
      "hit": false,
      "t": 472365.10298333585,
      "d": 2817.4604583334294,
      "v": 110
    },
    {
      "midi": 69,
      "hit": false,
      "t": 472373.0394916681,
      "d": 1825.3969166667084,
      "v": 100
    },
    {
      "midi": 71,
      "hit": false,
      "t": 472373.03949166846,
      "d": 873.0159166666563,
      "v": 119
    },
    {
      "midi": 74,
      "hit": false,
      "t": 472373.03949166846,
      "d": 873.0159166666563,
      "v": 119
    },
    {
      "midi": 79,
      "hit": false,
      "t": 472373.03949166846,
      "d": 873.0159166666563,
      "v": 119
    },
    {
      "midi": 2,
      "hit": false,
      "t": 472380.9759999753,
      "d": 7.936508333310485,
      "v": 118
    },
    {
      "midi": 49,
      "hit": false,
      "t": 472380.9759999753,
      "d": 7.936508333310485,
      "v": 115
    },
    {
      "midi": 40,
      "hit": false,
      "t": 472380.9759999753,
      "d": 7.936508333310485,
      "v": 122
    },
    {
      "midi": 54,
      "hit": false,
      "t": 472380.9759999753,
      "d": 7.936508333310485,
      "v": 100
    },
    {
      "midi": 31,
      "hit": false,
      "t": 472380.97599999234,
      "d": 396.8254166666884,
      "v": 123
    },
    {
      "midi": 59,
      "hit": false,
      "t": 472380.9760000033,
      "d": 436.50795833335724,
      "v": 100
    },
    {
      "midi": 43,
      "hit": false,
      "t": 472380.97600000555,
      "d": 912.6984583333251,
      "v": 105
    },
    {
      "midi": 50,
      "hit": false,
      "t": 472380.97600000555,
      "d": 912.6984583333251,
      "v": 105
    },
    {
      "midi": 62,
      "hit": false,
      "t": 472380.9760000083,
      "d": 396.8254166666884,
      "v": 111
    },
    {
      "midi": 55,
      "hit": false,
      "t": 472380.9760000083,
      "d": 396.8254166666884,
      "v": 111
    },
    {
      "midi": 71,
      "hit": false,
      "t": 472404.78552500147,
      "d": 1825.3969166667084,
      "v": 100
    },
    {
      "midi": 62,
      "hit": false,
      "t": 472444.46806666814,
      "d": 1825.3969166667084,
      "v": 100
    },
    {
      "midi": 54,
      "hit": false,
      "t": 472619.07124997524,
      "d": 7.936508333310485,
      "v": 60
    },
    {
      "midi": 54,
      "hit": false,
      "t": 472857.1664999752,
      "d": 7.936508333310485,
      "v": 60
    },
    {
      "midi": 42,
      "hit": false,
      "t": 472857.1664999752,
      "d": 7.936508333310485,
      "v": 100
    },
    {
      "midi": 31,
      "hit": false,
      "t": 472857.16649999237,
      "d": 396.8254166666884,
      "v": 118
    },
    {
      "midi": 62,
      "hit": false,
      "t": 472857.1665000033,
      "d": 214.28572500002338,
      "v": 100
    },
    {
      "midi": 55,
      "hit": false,
      "t": 472857.1665000083,
      "d": 71.4285750000272,
      "v": 115
    },
    {
      "midi": 62,
      "hit": false,
      "t": 472857.1665000083,
      "d": 71.4285750000272,
      "v": 115
    },
    {
      "midi": 54,
      "hit": false,
      "t": 473095.26174997515,
      "d": 7.936508333310485,
      "v": 60
    },
    {
      "midi": 59,
      "hit": false,
      "t": 473095.2617500033,
      "d": 214.28572500002338,
      "v": 100
    },
    {
      "midi": 62,
      "hit": false,
      "t": 473325.42049166845,
      "d": 396.8254166666884,
      "v": 127
    },
    {
      "midi": 54,
      "hit": false,
      "t": 473333.3569999751,
      "d": 7.936508333310485,
      "v": 100
    },
    {
      "midi": 40,
      "hit": false,
      "t": 473333.3569999751,
      "d": 7.936508333310485,
      "v": 122
    },
    {
      "midi": 42,
      "hit": false,
      "t": 473333.3569999751,
      "d": 7.936508333310485,
      "v": 100
    },
    {
      "midi": 31,
      "hit": false,
      "t": 473333.3569999924,
      "d": 396.8254166666884,
      "v": 118
    },
    {
      "midi": 67,
      "hit": false,
      "t": 473333.35700000334,
      "d": 214.28572500002338,
      "v": 100
    },
    {
      "midi": 83,
      "hit": false,
      "t": 473333.3570000047,
      "d": 420.63494166667806,
      "v": 125
    },
    {
      "midi": 43,
      "hit": false,
      "t": 473333.35700000555,
      "d": 95.23810000001686,
      "v": 115
    },
    {
      "midi": 50,
      "hit": false,
      "t": 473333.35700000555,
      "d": 95.23810000001686,
      "v": 115
    },
    {
      "midi": 55,
      "hit": false,
      "t": 473333.35700000834,
      "d": 396.8254166666884,
      "v": 111
    },
    {
      "midi": 62,
      "hit": false,
      "t": 473333.35700000834,
      "d": 396.8254166666884,
      "v": 111
    },
    {
      "midi": 54,
      "hit": false,
      "t": 473571.45224997506,
      "d": 7.936508333310485,
      "v": 60
    },
    {
      "midi": 62,
      "hit": false,
      "t": 473571.45225000335,
      "d": 214.28572500002338,
      "v": 100
    },
    {
      "midi": 67,
      "hit": false,
      "t": 473801.6109916685,
      "d": 396.8254166666884,
      "v": 127
    },
    {
      "midi": 54,
      "hit": false,
      "t": 473809.547499975,
      "d": 7.936508333310485,
      "v": 60
    },
    {
      "midi": 42,
      "hit": false,
      "t": 473809.547499975,
      "d": 7.936508333310485,
      "v": 100
    },
    {
      "midi": 31,
      "hit": false,
      "t": 473809.5474999924,
      "d": 396.8254166666884,
      "v": 118
    },
    {
      "midi": 62,
      "hit": false,
      "t": 473809.54750000336,
      "d": 214.28572500002338,
      "v": 100
    },
    {
      "midi": 83,
      "hit": false,
      "t": 473809.5475000047,
      "d": 420.63494166667806,
      "v": 125
    },
    {
      "midi": 43,
      "hit": false,
      "t": 473809.5475000056,
      "d": 95.23810000001686,
      "v": 115
    },
    {
      "midi": 50,
      "hit": false,
      "t": 473809.5475000056,
      "d": 95.23810000001686,
      "v": 115
    },
    {
      "midi": 55,
      "hit": false,
      "t": 473809.54750000837,
      "d": 182.53969166666502,
      "v": 111
    },
    {
      "midi": 62,
      "hit": false,
      "t": 473809.54750000837,
      "d": 182.53969166666502,
      "v": 111
    },
    {
      "midi": 54,
      "hit": false,
      "t": 474047.64274997497,
      "d": 7.936508333310485,
      "v": 60
    },
    {
      "midi": 67,
      "hit": false,
      "t": 474047.6427500034,
      "d": 214.28572500002338,
      "v": 100
    },
    {
      "midi": 62,
      "hit": false,
      "t": 474047.6427500084,
      "d": 182.53969166666502,
      "v": 111
    },
    {
      "midi": 55,
      "hit": false,
      "t": 474047.6427500084,
      "d": 182.53969166666502,
      "v": 111
    },
    {
      "midi": 69,
      "hit": false,
      "t": 474238.1189500015,
      "d": 1825.3969166667084,
      "v": 100
    },
    {
      "midi": 88,
      "hit": false,
      "t": 474261.92847499915,
      "d": 1880.9524749999982,
      "v": 100
    },
    {
      "midi": 97,
      "hit": false,
      "t": 474261.92847499915,
      "d": 1880.9524749999982,
      "v": 100
    },
    {
      "midi": 69,
      "hit": false,
      "t": 474261.92847500066,
      "d": 1880.9524749999982,
      "v": 100
    },
    {
      "midi": 76,
      "hit": false,
      "t": 474261.92847500066,
      "d": 1880.9524749999982,
      "v": 100
    },
    {
      "midi": 85,
      "hit": false,
      "t": 474261.92847500066,
      "d": 1880.9524749999982,
      "v": 100
    },
    {
      "midi": 76,
      "hit": false,
      "t": 474269.86498333595,
      "d": 873.0159166666563,
      "v": 127
    },
    {
      "midi": 71,
      "hit": false,
      "t": 474277.80149166816,
      "d": 1825.3969166667084,
      "v": 100
    },
    {
      "midi": 61,
      "hit": false,
      "t": 474277.8014916685,
      "d": 396.8254166666884,
      "v": 119
    },
    {
      "midi": 64,
      "hit": false,
      "t": 474277.8014916685,
      "d": 396.8254166666884,
      "v": 119
    },
    {
      "midi": 69,
      "hit": false,
      "t": 474277.8014916685,
      "d": 396.8254166666884,
      "v": 119
    },
    {
      "midi": 54,
      "hit": false,
      "t": 474285.7379999749,
      "d": 7.936508333310485,
      "v": 100
    },
    {
      "midi": 40,
      "hit": false,
      "t": 474285.7379999749,
      "d": 7.936508333310485,
      "v": 122
    },
    {
      "midi": 57,
      "hit": false,
      "t": 474285.7379999749,
      "d": 7.936508333310485,
      "v": 100
    },
    {
      "midi": 31,
      "hit": false,
      "t": 474285.73799999245,
      "d": 396.8254166666884,
      "v": 118
    },
    {
      "midi": 64,
      "hit": false,
      "t": 474285.7380000034,
      "d": 214.28572500002338,
      "v": 100
    },
    {
      "midi": 83,
      "hit": false,
      "t": 474285.7380000047,
      "d": 873.0159166666563,
      "v": 125
    },
    {
      "midi": 43,
      "hit": false,
      "t": 474285.7380000056,
      "d": 95.23810000001686,
      "v": 115
    },
    {
      "midi": 50,
      "hit": false,
      "t": 474285.7380000056,
      "d": 95.23810000001686,
      "v": 115
    },
    {
      "midi": 55,
      "hit": false,
      "t": 474285.7380000084,
      "d": 396.8254166666884,
      "v": 111
    },
    {
      "midi": 64,
      "hit": false,
      "t": 474285.7380000084,
      "d": 396.8254166666884,
      "v": 111
    },
    {
      "midi": 73,
      "hit": false,
      "t": 474309.5475250015,
      "d": 1825.3969166667084,
      "v": 100
    },
    {
      "midi": 76,
      "hit": false,
      "t": 474349.2300666682,
      "d": 1825.3969166667084,
      "v": 100
    },
    {
      "midi": 54,
      "hit": false,
      "t": 474523.8332499749,
      "d": 7.936508333310485,
      "v": 60
    },
    {
      "midi": 62,
      "hit": false,
      "t": 474523.8332500034,
      "d": 214.28572500002338,
      "v": 100
    },
    {
      "midi": 55,
      "hit": false,
      "t": 474753.99199166853,
      "d": 396.8254166666884,
      "v": 127
    },
    {
      "midi": 2,
      "hit": false,
      "t": 474761.92849997483,
      "d": 7.936508333310485,
      "v": 117
    },
    {
      "midi": 42,
      "hit": false,
      "t": 474761.92849997483,
      "d": 7.936508333310485,
      "v": 100
    },
    {
      "midi": 54,
      "hit": false,
      "t": 474761.92849997483,
      "d": 7.936508333310485,
      "v": 60
    },
    {
      "midi": 31,
      "hit": false,
      "t": 474761.9284999925,
      "d": 396.8254166666884,
      "v": 118
    },
    {
      "midi": 61,
      "hit": false,
      "t": 474761.9285000034,
      "d": 214.28572500002338,
      "v": 100
    },
    {
      "midi": 43,
      "hit": false,
      "t": 474761.9285000056,
      "d": 95.23810000001686,
      "v": 115
    },
    {
      "midi": 50,
      "hit": false,
      "t": 474761.9285000056,
      "d": 95.23810000001686,
      "v": 115
    },
    {
      "midi": 55,
      "hit": false,
      "t": 474761.9285000084,
      "d": 71.4285750000272,
      "v": 115
    },
    {
      "midi": 64,
      "hit": false,
      "t": 474761.9285000084,
      "d": 71.4285750000272,
      "v": 115
    },
    {
      "midi": 54,
      "hit": false,
      "t": 475000.0237499748,
      "d": 7.936508333310485,
      "v": 60
    },
    {
      "midi": 64,
      "hit": false,
      "t": 475000.0237500034,
      "d": 214.28572500002338,
      "v": 100
    },
    {
      "midi": 59,
      "hit": false,
      "t": 475230.18249166856,
      "d": 396.8254166666884,
      "v": 127
    },
    {
      "midi": 54,
      "hit": false,
      "t": 475238.11899997474,
      "d": 7.936508333310485,
      "v": 100
    },
    {
      "midi": 40,
      "hit": false,
      "t": 475238.11899997474,
      "d": 7.936508333310485,
      "v": 122
    },
    {
      "midi": 42,
      "hit": false,
      "t": 475238.11899997474,
      "d": 7.936508333310485,
      "v": 100
    },
    {
      "midi": 33,
      "hit": false,
      "t": 475238.1189999925,
      "d": 396.8254166666884,
      "v": 118
    },
    {
      "midi": 64,
      "hit": false,
      "t": 475238.11900000344,
      "d": 214.28572500002338,
      "v": 100
    },
    {
      "midi": 85,
      "hit": false,
      "t": 475238.1190000047,
      "d": 420.63494166667806,
      "v": 125
    },
    {
      "midi": 43,
      "hit": false,
      "t": 475238.11900000565,
      "d": 95.23810000001686,
      "v": 115
    },
    {
      "midi": 50,
      "hit": false,
      "t": 475238.11900000565,
      "d": 95.23810000001686,
      "v": 115
    },
    {
      "midi": 55,
      "hit": false,
      "t": 475238.11900000845,
      "d": 396.8254166666884,
      "v": 111
    },
    {
      "midi": 64,
      "hit": false,
      "t": 475238.11900000845,
      "d": 396.8254166666884,
      "v": 111
    },
    {
      "midi": 54,
      "hit": false,
      "t": 475476.2142499747,
      "d": 7.936508333310485,
      "v": 60
    },
    {
      "midi": 61,
      "hit": false,
      "t": 475476.21425000345,
      "d": 214.28572500002338,
      "v": 100
    },
    {
      "midi": 61,
      "hit": false,
      "t": 475706.3729916686,
      "d": 396.8254166666884,
      "v": 127
    },
    {
      "midi": 2,
      "hit": false,
      "t": 475714.30949997465,
      "d": 7.936508333310485,
      "v": 117
    },
    {
      "midi": 42,
      "hit": false,
      "t": 475714.30949997465,
      "d": 7.936508333310485,
      "v": 100
    },
    {
      "midi": 54,
      "hit": false,
      "t": 475714.30949997465,
      "d": 7.936508333310485,
      "v": 60
    },
    {
      "midi": 31,
      "hit": false,
      "t": 475714.3094999925,
      "d": 396.8254166666884,
      "v": 118
    },
    {
      "midi": 69,
      "hit": false,
      "t": 475714.30950000347,
      "d": 214.28572500002338,
      "v": 100
    },
    {
      "midi": 83,
      "hit": false,
      "t": 475714.30950000475,
      "d": 420.63494166667806,
      "v": 125
    },
    {
      "midi": 43,
      "hit": false,
      "t": 475714.3095000057,
      "d": 95.23810000001686,
      "v": 115
    },
    {
      "midi": 50,
      "hit": false,
      "t": 475714.3095000057,
      "d": 95.23810000001686,
      "v": 115
    },
    {
      "midi": 55,
      "hit": false,
      "t": 475714.3095000085,
      "d": 182.53969166666502,
      "v": 111
    },
    {
      "midi": 64,
      "hit": false,
      "t": 475714.3095000085,
      "d": 182.53969166666502,
      "v": 111
    },
    {
      "midi": 54,
      "hit": false,
      "t": 475952.4047499746,
      "d": 7.936508333310485,
      "v": 60
    },
    {
      "midi": 64,
      "hit": false,
      "t": 475952.4047500035,
      "d": 214.28572500002338,
      "v": 100
    },
    {
      "midi": 55,
      "hit": false,
      "t": 475952.4047500085,
      "d": 182.53969166666502,
      "v": 111
    },
    {
      "midi": 64,
      "hit": false,
      "t": 475952.4047500085,
      "d": 182.53969166666502,
      "v": 111
    },
    {
      "midi": 66,
      "hit": false,
      "t": 476142.88095000153,
      "d": 1825.3969166667084,
      "v": 100
    },
    {
      "midi": 85,
      "hit": false,
      "t": 476166.69047499914,
      "d": 936.5079833333148,
      "v": 100
    },
    {
      "midi": 97,
      "hit": false,
      "t": 476166.69047499914,
      "d": 936.5079833333148,
      "v": 100
    },
    {
      "midi": 69,
      "hit": false,
      "t": 476166.69047500065,
      "d": 1880.9524749999982,
      "v": 100
    },
    {
      "midi": 76,
      "hit": false,
      "t": 476166.69047500065,
      "d": 1880.9524749999982,
      "v": 100
    },
    {
      "midi": 88,
      "hit": false,
      "t": 476166.69047500065,
      "d": 1880.9524749999982,
      "v": 100
    },
    {
      "midi": 81,
      "hit": false,
      "t": 476166.6904750048,
      "d": 420.63494166667806,
      "v": 125
    },
    {
      "midi": 66,
      "hit": false,
      "t": 476174.62698333594,
      "d": 1888.8889833333087,
      "v": 110
    },
    {
      "midi": 76,
      "hit": false,
      "t": 476174.62698333594,
      "d": 1888.8889833333087,
      "v": 110
    },
    {
      "midi": 73,
      "hit": false,
      "t": 476174.62698333594,
      "d": 1888.8889833333087,
      "v": 110
    },
    {
      "midi": 69,
      "hit": false,
      "t": 476174.62698333594,
      "d": 1888.8889833333087,
      "v": 110
    },
    {
      "midi": 69,
      "hit": false,
      "t": 476182.5634916682,
      "d": 1825.3969166667084,
      "v": 100
    },
    {
      "midi": 61,
      "hit": false,
      "t": 476182.5634916686,
      "d": 873.0159166666563,
      "v": 119
    },
    {
      "midi": 69,
      "hit": false,
      "t": 476182.5634916686,
      "d": 873.0159166666563,
      "v": 119
    },
    {
      "midi": 66,
      "hit": false,
      "t": 476182.5634916686,
      "d": 873.0159166666563,
      "v": 119
    },
    {
      "midi": 64,
      "hit": false,
      "t": 476182.5634916686,
      "d": 873.0159166666563,
      "v": 119
    },
    {
      "midi": 2,
      "hit": false,
      "t": 476190.49999997456,
      "d": 7.936508333310485,
      "v": 118
    },
    {
      "midi": 49,
      "hit": false,
      "t": 476190.49999997456,
      "d": 7.936508333310485,
      "v": 115
    },
    {
      "midi": 40,
      "hit": false,
      "t": 476190.49999997456,
      "d": 7.936508333310485,
      "v": 122
    },
    {
      "midi": 54,
      "hit": false,
      "t": 476190.49999997456,
      "d": 7.936508333310485,
      "v": 100
    },
    {
      "midi": 30,
      "hit": false,
      "t": 476190.49999999255,
      "d": 396.8254166666884,
      "v": 123
    },
    {
      "midi": 57,
      "hit": false,
      "t": 476190.5000000035,
      "d": 214.28572500002338,
      "v": 100
    },
    {
      "midi": 42,
      "hit": false,
      "t": 476190.5000000057,
      "d": 357.14287500001956,
      "v": 115
    },
    {
      "midi": 49,
      "hit": false,
      "t": 476190.5000000057,
      "d": 357.14287500001956,
      "v": 115
    },
    {
      "midi": 54,
      "hit": false,
      "t": 476190.5000000085,
      "d": 396.8254166666884,
      "v": 111
    },
    {
      "midi": 61,
      "hit": false,
      "t": 476190.5000000085,
      "d": 396.8254166666884,
      "v": 111
    },
    {
      "midi": 73,
      "hit": false,
      "t": 476214.30952500156,
      "d": 1825.3969166667084,
      "v": 100
    },
    {
      "midi": 76,
      "hit": false,
      "t": 476253.99206666823,
      "d": 1825.3969166667084,
      "v": 100
    },
    {
      "midi": 54,
      "hit": false,
      "t": 476428.5952499745,
      "d": 7.936508333310485,
      "v": 60
    },
    {
      "midi": 69,
      "hit": false,
      "t": 476428.5952500035,
      "d": 214.28572500002338,
      "v": 100
    },
    {
      "midi": 54,
      "hit": false,
      "t": 476666.6904999745,
      "d": 7.936508333310485,
      "v": 60
    },
    {
      "midi": 42,
      "hit": false,
      "t": 476666.6904999745,
      "d": 7.936508333310485,
      "v": 100
    },
    {
      "midi": 30,
      "hit": false,
      "t": 476666.6904999926,
      "d": 396.8254166666884,
      "v": 118
    },
    {
      "midi": 61,
      "hit": false,
      "t": 476666.6905000035,
      "d": 214.28572500002338,
      "v": 100
    },
    {
      "midi": 81,
      "hit": false,
      "t": 476666.6905000048,
      "d": 420.63494166667806,
      "v": 125
    },
    {
      "midi": 42,
      "hit": false,
      "t": 476666.69050000573,
      "d": 95.23810000001686,
      "v": 115
    },
    {
      "midi": 49,
      "hit": false,
      "t": 476666.69050000573,
      "d": 95.23810000001686,
      "v": 115
    },
    {
      "midi": 54,
      "hit": false,
      "t": 476666.6905000085,
      "d": 71.4285750000272,
      "v": 115
    },
    {
      "midi": 61,
      "hit": false,
      "t": 476666.6905000085,
      "d": 71.4285750000272,
      "v": 115
    },
    {
      "midi": 54,
      "hit": false,
      "t": 476904.7857499744,
      "d": 7.936508333310485,
      "v": 60
    },
    {
      "midi": 57,
      "hit": false,
      "t": 476904.78575000353,
      "d": 214.28572500002338,
      "v": 100
    },
    {
      "midi": 100,
      "hit": false,
      "t": 477119.07147499913,
      "d": 936.5079833333148,
      "v": 100
    },
    {
      "midi": 88,
      "hit": false,
      "t": 477119.07147499913,
      "d": 936.5079833333148,
      "v": 100
    },
    {
      "midi": 57,
      "hit": false,
      "t": 477134.9444916686,
      "d": 396.8254166666884,
      "v": 127
    },
    {
      "midi": 54,
      "hit": false,
      "t": 477142.8809999744,
      "d": 7.936508333310485,
      "v": 100
    },
    {
      "midi": 40,
      "hit": false,
      "t": 477142.8809999744,
      "d": 7.936508333310485,
      "v": 122
    },
    {
      "midi": 42,
      "hit": false,
      "t": 477142.8809999744,
      "d": 7.936508333310485,
      "v": 100
    },
    {
      "midi": 37,
      "hit": false,
      "t": 477142.8809999926,
      "d": 396.8254166666884,
      "v": 118
    },
    {
      "midi": 64,
      "hit": false,
      "t": 477142.88100000354,
      "d": 214.28572500002338,
      "v": 100
    },
    {
      "midi": 78,
      "hit": false,
      "t": 477142.8810000048,
      "d": 420.63494166667806,
      "v": 125
    },
    {
      "midi": 42,
      "hit": false,
      "t": 477142.88100000576,
      "d": 95.23810000001686,
      "v": 115
    },
    {
      "midi": 49,
      "hit": false,
      "t": 477142.88100000576,
      "d": 95.23810000001686,
      "v": 115
    },
    {
      "midi": 54,
      "hit": false,
      "t": 477142.88100000855,
      "d": 396.8254166666884,
      "v": 111
    },
    {
      "midi": 61,
      "hit": false,
      "t": 477142.88100000855,
      "d": 396.8254166666884,
      "v": 111
    },
    {
      "midi": 54,
      "hit": false,
      "t": 477380.97624997434,
      "d": 7.936508333310485,
      "v": 60
    },
    {
      "midi": 61,
      "hit": false,
      "t": 477380.97625000356,
      "d": 214.28572500002338,
      "v": 100
    },
    {
      "midi": 61,
      "hit": false,
      "t": 477611.13499166863,
      "d": 396.8254166666884,
      "v": 127
    },
    {
      "midi": 54,
      "hit": false,
      "t": 477619.0714999743,
      "d": 7.936508333310485,
      "v": 60
    },
    {
      "midi": 42,
      "hit": false,
      "t": 477619.0714999743,
      "d": 7.936508333310485,
      "v": 100
    },
    {
      "midi": 36,
      "hit": false,
      "t": 477619.0714999926,
      "d": 396.8254166666884,
      "v": 118
    },
    {
      "midi": 61,
      "hit": false,
      "t": 477619.07150000357,
      "d": 214.28572500002338,
      "v": 100
    },
    {
      "midi": 76,
      "hit": false,
      "t": 477619.07150000485,
      "d": 420.63494166667806,
      "v": 125
    },
    {
      "midi": 42,
      "hit": false,
      "t": 477619.0715000058,
      "d": 95.23810000001686,
      "v": 115
    },
    {
      "midi": 49,
      "hit": false,
      "t": 477619.0715000058,
      "d": 95.23810000001686,
      "v": 115
    },
    {
      "midi": 54,
      "hit": false,
      "t": 477619.0715000086,
      "d": 182.53969166666502,
      "v": 111
    },
    {
      "midi": 61,
      "hit": false,
      "t": 477619.0715000086,
      "d": 182.53969166666502,
      "v": 111
    },
    {
      "midi": 54,
      "hit": false,
      "t": 477857.16674997425,
      "d": 7.936508333310485,
      "v": 60
    },
    {
      "midi": 64,
      "hit": false,
      "t": 477857.1667500036,
      "d": 214.28572500002338,
      "v": 100
    },
    {
      "midi": 61,
      "hit": false,
      "t": 477857.1667500086,
      "d": 182.53969166666502,
      "v": 111
    },
    {
      "midi": 54,
      "hit": false,
      "t": 477857.1667500086,
      "d": 182.53969166666502,
      "v": 111
    },
    {
      "midi": 69,
      "hit": false,
      "t": 478047.6429500016,
      "d": 1825.3969166667084,
      "v": 100
    },
    {
      "midi": 86,
      "hit": false,
      "t": 478071.4524749991,
      "d": 1880.9524749999982,
      "v": 100
    },
    {
      "midi": 98,
      "hit": false,
      "t": 478071.4524749991,
      "d": 1880.9524749999982,
      "v": 100
    },
    {
      "midi": 71,
      "hit": false,
      "t": 478071.45247500064,
      "d": 1880.9524749999982,
      "v": 100
    },
    {
      "midi": 78,
      "hit": false,
      "t": 478071.45247500064,
      "d": 1880.9524749999982,
      "v": 100
    },
    {
      "midi": 90,
      "hit": false,
      "t": 478071.45247500064,
      "d": 1880.9524749999982,
      "v": 100
    },
    {
      "midi": 71,
      "hit": false,
      "t": 478079.3889833359,
      "d": 873.0159166666563,
      "v": 127
    },
    {
      "midi": 74,
      "hit": false,
      "t": 478079.3889833359,
      "d": 873.0159166666563,
      "v": 127
    },
    {
      "midi": 78,
      "hit": false,
      "t": 478079.3889833359,
      "d": 873.0159166666563,
      "v": 127
    },
    {
      "midi": 71,
      "hit": false,
      "t": 478087.32549166825,
      "d": 1825.3969166667084,
      "v": 100
    },
    {
      "midi": 57,
      "hit": false,
      "t": 478087.32549166866,
      "d": 634.9206666666432,
      "v": 119
    },
    {
      "midi": 62,
      "hit": false,
      "t": 478087.32549166866,
      "d": 634.9206666666432,
      "v": 119
    },
    {
      "midi": 66,
      "hit": false,
      "t": 478087.32549166866,
      "d": 634.9206666666432,
      "v": 119
    },
    {
      "midi": 54,
      "hit": false,
      "t": 478095.2619999742,
      "d": 7.936508333310485,
      "v": 100
    },
    {
      "midi": 40,
      "hit": false,
      "t": 478095.2619999742,
      "d": 7.936508333310485,
      "v": 122
    },
    {
      "midi": 57,
      "hit": false,
      "t": 478095.2619999742,
      "d": 7.936508333310485,
      "v": 100
    },
    {
      "midi": 35,
      "hit": false,
      "t": 478095.26199999265,
      "d": 396.8254166666884,
      "v": 118
    },
    {
      "midi": 66,
      "hit": false,
      "t": 478095.2620000036,
      "d": 214.28572500002338,
      "v": 100
    },
    {
      "midi": 74,
      "hit": false,
      "t": 478095.2620000049,
      "d": 873.0159166666563,
      "v": 125
    },
    {
      "midi": 47,
      "hit": false,
      "t": 478095.2620000058,
      "d": 912.6984583333251,
      "v": 105
    },
    {
      "midi": 54,
      "hit": false,
      "t": 478095.2620000058,
      "d": 912.6984583333251,
      "v": 105
    },
    {
      "midi": 47,
      "hit": false,
      "t": 478095.2620000086,
      "d": 396.8254166666884,
      "v": 111
    },
    {
      "midi": 54,
      "hit": false,
      "t": 478095.2620000086,
      "d": 396.8254166666884,
      "v": 111
    },
    {
      "midi": 74,
      "hit": false,
      "t": 478119.0715250016,
      "d": 1825.3969166667084,
      "v": 100
    },
    {
      "midi": 78,
      "hit": false,
      "t": 478158.7540666683,
      "d": 1825.3969166667084,
      "v": 100
    },
    {
      "midi": 54,
      "hit": false,
      "t": 478333.35724997416,
      "d": 7.936508333310485,
      "v": 60
    },
    {
      "midi": 59,
      "hit": false,
      "t": 478333.3572500036,
      "d": 214.28572500002338,
      "v": 100
    },
    {
      "midi": 2,
      "hit": false,
      "t": 478571.4524999741,
      "d": 7.936508333310485,
      "v": 117
    },
    {
      "midi": 42,
      "hit": false,
      "t": 478571.4524999741,
      "d": 7.936508333310485,
      "v": 100
    },
    {
      "midi": 54,
      "hit": false,
      "t": 478571.4524999741,
      "d": 7.936508333310485,
      "v": 60
    },
    {
      "midi": 35,
      "hit": false,
      "t": 478571.4524999927,
      "d": 396.8254166666884,
      "v": 118
    },
    {
      "midi": 62,
      "hit": false,
      "t": 478571.4525000036,
      "d": 214.28572500002338,
      "v": 100
    },
    {
      "midi": 47,
      "hit": false,
      "t": 478571.4525000086,
      "d": 71.4285750000272,
      "v": 115
    },
    {
      "midi": 54,
      "hit": false,
      "t": 478571.4525000086,
      "d": 71.4285750000272,
      "v": 115
    },
    {
      "midi": 57,
      "hit": false,
      "t": 478801.61124166864,
      "d": 634.9206666666432,
      "v": 119
    },
    {
      "midi": 61,
      "hit": false,
      "t": 478801.61124166864,
      "d": 634.9206666666432,
      "v": 119
    },
    {
      "midi": 64,
      "hit": false,
      "t": 478801.61124166864,
      "d": 634.9206666666432,
      "v": 119
    },
    {
      "midi": 54,
      "hit": false,
      "t": 478809.54774997407,
      "d": 7.936508333310485,
      "v": 60
    },
    {
      "midi": 66,
      "hit": false,
      "t": 478809.54775000364,
      "d": 214.28572500002338,
      "v": 100
    },
    {
      "midi": 54,
      "hit": false,
      "t": 479047.642999974,
      "d": 7.936508333310485,
      "v": 100
    },
    {
      "midi": 40,
      "hit": false,
      "t": 479047.642999974,
      "d": 7.936508333310485,
      "v": 122
    },
    {
      "midi": 42,
      "hit": false,
      "t": 479047.642999974,
      "d": 7.936508333310485,
      "v": 100
    },
    {
      "midi": 38,
      "hit": false,
      "t": 479047.6429999927,
      "d": 396.8254166666884,
      "v": 118
    },
    {
      "midi": 66,
      "hit": false,
      "t": 479047.64300000365,
      "d": 214.28572500002338,
      "v": 100
    },
    {
      "midi": 74,
      "hit": false,
      "t": 479047.6430000049,
      "d": 420.63494166667806,
      "v": 125
    },
    {
      "midi": 47,
      "hit": false,
      "t": 479047.6430000058,
      "d": 95.23810000001686,
      "v": 115
    },
    {
      "midi": 54,
      "hit": false,
      "t": 479047.6430000058,
      "d": 95.23810000001686,
      "v": 115
    },
    {
      "midi": 47,
      "hit": false,
      "t": 479047.64300000865,
      "d": 396.8254166666884,
      "v": 111
    },
    {
      "midi": 54,
      "hit": false,
      "t": 479047.64300000865,
      "d": 396.8254166666884,
      "v": 111
    },
    {
      "midi": 54,
      "hit": false,
      "t": 479285.738249974,
      "d": 7.936508333310485,
      "v": 60
    },
    {
      "midi": 62,
      "hit": false,
      "t": 479285.73825000366,
      "d": 214.28572500002338,
      "v": 100
    },
    {
      "midi": 57,
      "hit": false,
      "t": 479515.8969916686,
      "d": 396.8254166666884,
      "v": 119
    },
    {
      "midi": 62,
      "hit": false,
      "t": 479515.8969916686,
      "d": 396.8254166666884,
      "v": 119
    },
    {
      "midi": 66,
      "hit": false,
      "t": 479515.8969916686,
      "d": 396.8254166666884,
      "v": 119
    },
    {
      "midi": 2,
      "hit": false,
      "t": 479523.83349997393,
      "d": 7.936508333310485,
      "v": 117
    },
    {
      "midi": 42,
      "hit": false,
      "t": 479523.83349997393,
      "d": 7.936508333310485,
      "v": 100
    },
    {
      "midi": 54,
      "hit": false,
      "t": 479523.83349997393,
      "d": 7.936508333310485,
      "v": 60
    },
    {
      "midi": 39,
      "hit": false,
      "t": 479523.83349999273,
      "d": 396.8254166666884,
      "v": 118
    },
    {
      "midi": 74,
      "hit": false,
      "t": 479523.8335000037,
      "d": 214.28572500002338,
      "v": 100
    },
    {
      "midi": 73,
      "hit": false,
      "t": 479523.8335000049,
      "d": 420.63494166667806,
      "v": 125
    },
    {
      "midi": 54,
      "hit": false,
      "t": 479523.8335000058,
      "d": 95.23810000001686,
      "v": 115
    },
    {
      "midi": 47,
      "hit": false,
      "t": 479523.8335000058,
      "d": 95.23810000001686,
      "v": 115
    },
    {
      "midi": 47,
      "hit": false,
      "t": 479523.8335000087,
      "d": 182.53969166666502,
      "v": 111
    },
    {
      "midi": 54,
      "hit": false,
      "t": 479523.8335000087,
      "d": 182.53969166666502,
      "v": 111
    },
    {
      "midi": 54,
      "hit": false,
      "t": 479761.9287499739,
      "d": 7.936508333310485,
      "v": 60
    },
    {
      "midi": 66,
      "hit": false,
      "t": 479761.9287500037,
      "d": 214.28572500002338,
      "v": 100
    },
    {
      "midi": 54,
      "hit": false,
      "t": 479761.9287500087,
      "d": 182.53969166666502,
      "v": 111
    },
    {
      "midi": 47,
      "hit": false,
      "t": 479761.9287500087,
      "d": 182.53969166666502,
      "v": 111
    },
    {
      "midi": 64,
      "hit": false,
      "t": 479952.4049500016,
      "d": 3730.1589166666963,
      "v": 100
    },
    {
      "midi": 91,
      "hit": false,
      "t": 479976.2144749991,
      "d": 3809.523999999976,
      "v": 100
    },
    {
      "midi": 95,
      "hit": false,
      "t": 479976.2144749991,
      "d": 3809.523999999976,
      "v": 100
    },
    {
      "midi": 71,
      "hit": false,
      "t": 479976.2144750006,
      "d": 3793.650983333355,
      "v": 100
    },
    {
      "midi": 79,
      "hit": false,
      "t": 479976.2144750006,
      "d": 3793.650983333355,
      "v": 100
    },
    {
      "midi": 83,
      "hit": false,
      "t": 479976.2144750006,
      "d": 3793.650983333355,
      "v": 100
    },
    {
      "midi": 55,
      "hit": false,
      "t": 479984.1509833359,
      "d": 3785.7144750001025,
      "v": 110
    },
    {
      "midi": 71,
      "hit": false,
      "t": 479984.1509833359,
      "d": 3785.7144750001025,
      "v": 110
    },
    {
      "midi": 79,
      "hit": false,
      "t": 479984.1509833359,
      "d": 3785.7144750001025,
      "v": 110
    },
    {
      "midi": 74,
      "hit": false,
      "t": 479984.1509833359,
      "d": 3785.7144750001025,
      "v": 110
    },
    {
      "midi": 62,
      "hit": false,
      "t": 479984.1509833359,
      "d": 3785.7144750001025,
      "v": 110
    },
    {
      "midi": 67,
      "hit": false,
      "t": 479992.0874916683,
      "d": 3730.1589166666963,
      "v": 100
    },
    {
      "midi": 59,
      "hit": false,
      "t": 479992.08749166864,
      "d": 396.8254166666884,
      "v": 119
    },
    {
      "midi": 62,
      "hit": false,
      "t": 479992.08749166864,
      "d": 396.8254166666884,
      "v": 119
    },
    {
      "midi": 67,
      "hit": false,
      "t": 479992.08749166864,
      "d": 396.8254166666884,
      "v": 119
    },
    {
      "midi": 2,
      "hit": false,
      "t": 480000.02399997384,
      "d": 7.936508333310485,
      "v": 118
    },
    {
      "midi": 49,
      "hit": false,
      "t": 480000.02399997384,
      "d": 7.936508333310485,
      "v": 115
    },
    {
      "midi": 40,
      "hit": false,
      "t": 480000.02399997384,
      "d": 7.936508333310485,
      "v": 122
    },
    {
      "midi": 54,
      "hit": false,
      "t": 480000.02399997384,
      "d": 7.936508333310485,
      "v": 100
    },
    {
      "midi": 40,
      "hit": false,
      "t": 480000.02399999276,
      "d": 396.8254166666884,
      "v": 123
    },
    {
      "midi": 59,
      "hit": false,
      "t": 480000.0240000037,
      "d": 436.50795833335724,
      "v": 100
    },
    {
      "midi": 71,
      "hit": false,
      "t": 480000.0240000049,
      "d": 420.63494166667806,
      "v": 125
    },
    {
      "midi": 40,
      "hit": false,
      "t": 480000.0240000058,
      "d": 912.6984583333251,
      "v": 105
    },
    {
      "midi": 47,
      "hit": false,
      "t": 480000.0240000058,
      "d": 912.6984583333251,
      "v": 105
    },
    {
      "midi": 52,
      "hit": false,
      "t": 480000.0240000087,
      "d": 396.8254166666884,
      "v": 111
    },
    {
      "midi": 59,
      "hit": false,
      "t": 480000.0240000087,
      "d": 396.8254166666884,
      "v": 111
    },
    {
      "midi": 71,
      "hit": false,
      "t": 480023.83352500165,
      "d": 3730.1589166666963,
      "v": 100
    },
    {
      "midi": 74,
      "hit": false,
      "t": 480063.5160666683,
      "d": 3730.1589166666963,
      "v": 100
    },
    {
      "midi": 54,
      "hit": false,
      "t": 480238.1192499738,
      "d": 7.936508333310485,
      "v": 60
    },
    {
      "midi": 52,
      "hit": false,
      "t": 480468.27799166867,
      "d": 396.8254166666884,
      "v": 127
    },
    {
      "midi": 54,
      "hit": false,
      "t": 480476.21449997375,
      "d": 7.936508333310485,
      "v": 60
    },
    {
      "midi": 42,
      "hit": false,
      "t": 480476.21449997375,
      "d": 7.936508333310485,
      "v": 100
    },
    {
      "midi": 40,
      "hit": false,
      "t": 480476.2144999928,
      "d": 396.8254166666884,
      "v": 118
    },
    {
      "midi": 62,
      "hit": false,
      "t": 480476.2145000037,
      "d": 214.28572500002338,
      "v": 100
    },
    {
      "midi": 71,
      "hit": false,
      "t": 480476.21450000495,
      "d": 420.63494166667806,
      "v": 125
    },
    {
      "midi": 52,
      "hit": false,
      "t": 480476.21450000873,
      "d": 71.4285750000272,
      "v": 115
    },
    {
      "midi": 59,
      "hit": false,
      "t": 480476.21450000873,
      "d": 71.4285750000272,
      "v": 115
    },
    {
      "midi": 54,
      "hit": false,
      "t": 480714.3097499737,
      "d": 7.936508333310485,
      "v": 60
    },
    {
      "midi": 59,
      "hit": false,
      "t": 480714.30975000374,
      "d": 214.28572500002338,
      "v": 100
    },
    {
      "midi": 59,
      "hit": false,
      "t": 480944.4684916687,
      "d": 396.8254166666884,
      "v": 127
    },
    {
      "midi": 54,
      "hit": false,
      "t": 480952.40499997366,
      "d": 7.936508333310485,
      "v": 100
    },
    {
      "midi": 40,
      "hit": false,
      "t": 480952.40499997366,
      "d": 7.936508333310485,
      "v": 122
    },
    {
      "midi": 42,
      "hit": false,
      "t": 480952.40499997366,
      "d": 7.936508333310485,
      "v": 100
    },
    {
      "midi": 40,
      "hit": false,
      "t": 480952.4049999928,
      "d": 396.8254166666884,
      "v": 118
    },
    {
      "midi": 67,
      "hit": false,
      "t": 480952.40500000375,
      "d": 214.28572500002338,
      "v": 100
    },
    {
      "midi": 40,
      "hit": false,
      "t": 480952.4050000058,
      "d": 95.23810000001686,
      "v": 115
    },
    {
      "midi": 47,
      "hit": false,
      "t": 480952.4050000058,
      "d": 95.23810000001686,
      "v": 115
    },
    {
      "midi": 52,
      "hit": false,
      "t": 480952.40500000876,
      "d": 71.4285750000272,
      "v": 115
    },
    {
      "midi": 59,
      "hit": false,
      "t": 480952.40500000876,
      "d": 71.4285750000272,
      "v": 115
    },
    {
      "midi": 54,
      "hit": false,
      "t": 481190.5002499736,
      "d": 7.936508333310485,
      "v": 60
    },
    {
      "midi": 62,
      "hit": false,
      "t": 481190.50025000377,
      "d": 214.28572500002338,
      "v": 100
    },
    {
      "midi": 62,
      "hit": false,
      "t": 481420.6589916687,
      "d": 873.0159166666563,
      "v": 119
    },
    {
      "midi": 67,
      "hit": false,
      "t": 481420.6589916687,
      "d": 873.0159166666563,
      "v": 119
    },
    {
      "midi": 71,
      "hit": false,
      "t": 481420.6589916687,
      "d": 873.0159166666563,
      "v": 119
    },
    {
      "midi": 54,
      "hit": false,
      "t": 481428.59549997357,
      "d": 7.936508333310485,
      "v": 60
    },
    {
      "midi": 42,
      "hit": false,
      "t": 481428.59549997357,
      "d": 7.936508333310485,
      "v": 100
    },
    {
      "midi": 40,
      "hit": false,
      "t": 481428.59549999284,
      "d": 396.8254166666884,
      "v": 118
    },
    {
      "midi": 62,
      "hit": false,
      "t": 481428.5955000038,
      "d": 214.28572500002338,
      "v": 100
    },
    {
      "midi": 71,
      "hit": false,
      "t": 481428.59550000494,
      "d": 420.63494166667806,
      "v": 125
    },
    {
      "midi": 40,
      "hit": false,
      "t": 481428.5955000058,
      "d": 95.23810000001686,
      "v": 115
    },
    {
      "midi": 47,
      "hit": false,
      "t": 481428.5955000058,
      "d": 95.23810000001686,
      "v": 115
    },
    {
      "midi": 52,
      "hit": false,
      "t": 481428.5955000088,
      "d": 396.8254166666884,
      "v": 111
    },
    {
      "midi": 59,
      "hit": false,
      "t": 481428.5955000088,
      "d": 396.8254166666884,
      "v": 111
    },
    {
      "midi": 54,
      "hit": false,
      "t": 481666.6907499735,
      "d": 7.936508333310485,
      "v": 60
    },
    {
      "midi": 67,
      "hit": false,
      "t": 481666.6907500038,
      "d": 214.28572500002338,
      "v": 100
    },
    {
      "midi": 54,
      "hit": false,
      "t": 481904.7859999735,
      "d": 7.936508333310485,
      "v": 100
    },
    {
      "midi": 40,
      "hit": false,
      "t": 481904.7859999735,
      "d": 7.936508333310485,
      "v": 122
    },
    {
      "midi": 42,
      "hit": false,
      "t": 481904.7859999735,
      "d": 7.936508333310485,
      "v": 100
    },
    {
      "midi": 40,
      "hit": false,
      "t": 481904.78599999286,
      "d": 396.8254166666884,
      "v": 118
    },
    {
      "midi": 67,
      "hit": false,
      "t": 481904.7860000038,
      "d": 214.28572500002338,
      "v": 100
    },
    {
      "midi": 74,
      "hit": false,
      "t": 481904.78600000497,
      "d": 873.0159166666563,
      "v": 125
    },
    {
      "midi": 40,
      "hit": false,
      "t": 481904.78600000584,
      "d": 95.23810000001686,
      "v": 115
    },
    {
      "midi": 47,
      "hit": false,
      "t": 481904.78600000584,
      "d": 95.23810000001686,
      "v": 115
    },
    {
      "midi": 52,
      "hit": false,
      "t": 481904.7860000088,
      "d": 71.4285750000272,
      "v": 115
    },
    {
      "midi": 59,
      "hit": false,
      "t": 481904.7860000088,
      "d": 71.4285750000272,
      "v": 115
    },
    {
      "midi": 54,
      "hit": false,
      "t": 482142.88124997343,
      "d": 7.936508333310485,
      "v": 60
    },
    {
      "midi": 62,
      "hit": false,
      "t": 482142.8812500038,
      "d": 214.28572500002338,
      "v": 100
    },
    {
      "midi": 59,
      "hit": false,
      "t": 482373.0399916687,
      "d": 873.0159166666563,
      "v": 119
    },
    {
      "midi": 62,
      "hit": false,
      "t": 482373.0399916687,
      "d": 873.0159166666563,
      "v": 119
    },
    {
      "midi": 67,
      "hit": false,
      "t": 482373.0399916687,
      "d": 873.0159166666563,
      "v": 119
    },
    {
      "midi": 2,
      "hit": false,
      "t": 482380.9764999734,
      "d": 7.936508333310485,
      "v": 117
    },
    {
      "midi": 42,
      "hit": false,
      "t": 482380.9764999734,
      "d": 7.936508333310485,
      "v": 100
    },
    {
      "midi": 54,
      "hit": false,
      "t": 482380.9764999734,
      "d": 7.936508333310485,
      "v": 60
    },
    {
      "midi": 35,
      "hit": false,
      "t": 482380.9764999929,
      "d": 396.8254166666884,
      "v": 118
    },
    {
      "midi": 64,
      "hit": false,
      "t": 482380.97650000383,
      "d": 214.28572500002338,
      "v": 100
    },
    {
      "midi": 40,
      "hit": false,
      "t": 482380.97650000587,
      "d": 95.23810000001686,
      "v": 115
    },
    {
      "midi": 47,
      "hit": false,
      "t": 482380.97650000587,
      "d": 95.23810000001686,
      "v": 115
    },
    {
      "midi": 59,
      "hit": false,
      "t": 482380.97650000884,
      "d": 71.4285750000272,
      "v": 115
    },
    {
      "midi": 52,
      "hit": false,
      "t": 482380.97650000884,
      "d": 71.4285750000272,
      "v": 115
    },
    {
      "midi": 54,
      "hit": false,
      "t": 482619.07174997334,
      "d": 7.936508333310485,
      "v": 60
    },
    {
      "midi": 67,
      "hit": false,
      "t": 482619.07175000384,
      "d": 214.28572500002338,
      "v": 100
    },
    {
      "midi": 54,
      "hit": false,
      "t": 482857.1669999733,
      "d": 7.936508333310485,
      "v": 100
    },
    {
      "midi": 40,
      "hit": false,
      "t": 482857.1669999733,
      "d": 7.936508333310485,
      "v": 122
    },
    {
      "midi": 42,
      "hit": false,
      "t": 482857.1669999733,
      "d": 7.936508333310485,
      "v": 100
    },
    {
      "midi": 28,
      "hit": false,
      "t": 482857.1669999929,
      "d": 396.8254166666884,
      "v": 118
    },
    {
      "midi": 67,
      "hit": false,
      "t": 482857.16700000386,
      "d": 214.28572500002338,
      "v": 100
    },
    {
      "midi": 79,
      "hit": false,
      "t": 482857.16700000496,
      "d": 420.63494166667806,
      "v": 125
    },
    {
      "midi": 40,
      "hit": false,
      "t": 482857.1670000059,
      "d": 357.14287500001956,
      "v": 115
    },
    {
      "midi": 47,
      "hit": false,
      "t": 482857.1670000059,
      "d": 357.14287500001956,
      "v": 115
    },
    {
      "midi": 52,
      "hit": false,
      "t": 482857.16700000886,
      "d": 396.8254166666884,
      "v": 111
    },
    {
      "midi": 59,
      "hit": false,
      "t": 482857.16700000886,
      "d": 396.8254166666884,
      "v": 111
    },
    {
      "midi": 54,
      "hit": false,
      "t": 483095.26224997325,
      "d": 7.936508333310485,
      "v": 60
    },
    {
      "midi": 64,
      "hit": false,
      "t": 483095.26225000387,
      "d": 214.28572500002338,
      "v": 100
    },
    {
      "midi": 62,
      "hit": false,
      "t": 483325.4209916687,
      "d": 396.8254166666884,
      "v": 127
    },
    {
      "midi": 2,
      "hit": false,
      "t": 483333.3574999732,
      "d": 7.936508333310485,
      "v": 117
    },
    {
      "midi": 42,
      "hit": false,
      "t": 483333.3574999732,
      "d": 7.936508333310485,
      "v": 100
    },
    {
      "midi": 54,
      "hit": false,
      "t": 483333.3574999732,
      "d": 7.936508333310485,
      "v": 60
    },
    {
      "midi": 31,
      "hit": false,
      "t": 483333.35749999294,
      "d": 396.8254166666884,
      "v": 118
    },
    {
      "midi": 71,
      "hit": false,
      "t": 483333.3575000039,
      "d": 214.28572500002338,
      "v": 100
    },
    {
      "midi": 79,
      "hit": false,
      "t": 483333.357500005,
      "d": 420.63494166667806,
      "v": 125
    },
    {
      "midi": 40,
      "hit": false,
      "t": 483333.3575000059,
      "d": 357.14287500001956,
      "v": 115
    },
    {
      "midi": 47,
      "hit": false,
      "t": 483333.3575000059,
      "d": 357.14287500001956,
      "v": 115
    },
    {
      "midi": 59,
      "hit": false,
      "t": 483333.3575000089,
      "d": 396.8254166666884,
      "v": 111
    },
    {
      "midi": 52,
      "hit": false,
      "t": 483333.3575000089,
      "d": 396.8254166666884,
      "v": 111
    },
    {
      "midi": 54,
      "hit": false,
      "t": 483571.45274997316,
      "d": 7.936508333310485,
      "v": 60
    },
    {
      "midi": 67,
      "hit": false,
      "t": 483571.4527500039,
      "d": 214.28572500002338,
      "v": 100
    },
    {
      "midi": 69,
      "hit": false,
      "t": 483761.92895000166,
      "d": 3730.1589166666963,
      "v": 100
    },
    {
      "midi": 78,
      "hit": false,
      "t": 483769.86545833835,
      "d": 1349.2064166666823,
      "v": 125
    },
    {
      "midi": 97,
      "hit": false,
      "t": 483785.7384749991,
      "d": 2817.460458333313,
      "v": 100
    },
    {
      "midi": 93,
      "hit": false,
      "t": 483785.7384749991,
      "d": 2817.460458333313,
      "v": 100
    },
    {
      "midi": 81,
      "hit": false,
      "t": 483785.73847500066,
      "d": 2817.460458333313,
      "v": 100
    },
    {
      "midi": 85,
      "hit": false,
      "t": 483785.73847500066,
      "d": 2817.460458333313,
      "v": 100
    },
    {
      "midi": 73,
      "hit": false,
      "t": 483785.73847500066,
      "d": 2817.460458333313,
      "v": 100
    },
    {
      "midi": 57,
      "hit": false,
      "t": 483793.674983336,
      "d": 2817.4604583334294,
      "v": 110
    },
    {
      "midi": 69,
      "hit": false,
      "t": 483793.674983336,
      "d": 2817.4604583334294,
      "v": 110
    },
    {
      "midi": 76,
      "hit": false,
      "t": 483793.674983336,
      "d": 2817.4604583334294,
      "v": 110
    },
    {
      "midi": 73,
      "hit": false,
      "t": 483793.674983336,
      "d": 2817.4604583334294,
      "v": 110
    },
    {
      "midi": 64,
      "hit": false,
      "t": 483793.674983336,
      "d": 2817.4604583334294,
      "v": 110
    },
    {
      "midi": 71,
      "hit": false,
      "t": 483801.61149166833,
      "d": 3730.1589166666963,
      "v": 100
    },
    {
      "midi": 59,
      "hit": false,
      "t": 483801.61149166874,
      "d": 873.0159166666563,
      "v": 119
    },
    {
      "midi": 69,
      "hit": false,
      "t": 483801.61149166874,
      "d": 873.0159166666563,
      "v": 119
    },
    {
      "midi": 64,
      "hit": false,
      "t": 483801.61149166874,
      "d": 873.0159166666563,
      "v": 119
    },
    {
      "midi": 61,
      "hit": false,
      "t": 483801.61149166874,
      "d": 873.0159166666563,
      "v": 119
    },
    {
      "midi": 2,
      "hit": false,
      "t": 483809.5479999731,
      "d": 7.936508333310485,
      "v": 118
    },
    {
      "midi": 49,
      "hit": false,
      "t": 483809.5479999731,
      "d": 7.936508333310485,
      "v": 115
    },
    {
      "midi": 40,
      "hit": false,
      "t": 483809.5479999731,
      "d": 7.936508333310485,
      "v": 122
    },
    {
      "midi": 54,
      "hit": false,
      "t": 483809.5479999731,
      "d": 7.936508333310485,
      "v": 100
    },
    {
      "midi": 33,
      "hit": false,
      "t": 483809.54799999297,
      "d": 396.8254166666884,
      "v": 123
    },
    {
      "midi": 62,
      "hit": false,
      "t": 483809.5480000039,
      "d": 214.28572500002338,
      "v": 100
    },
    {
      "midi": 45,
      "hit": false,
      "t": 483809.54800000595,
      "d": 912.6984583333251,
      "v": 105
    },
    {
      "midi": 52,
      "hit": false,
      "t": 483809.54800000595,
      "d": 912.6984583333251,
      "v": 105
    },
    {
      "midi": 45,
      "hit": false,
      "t": 483809.5480000089,
      "d": 396.8254166666884,
      "v": 111
    },
    {
      "midi": 52,
      "hit": false,
      "t": 483809.5480000089,
      "d": 396.8254166666884,
      "v": 111
    },
    {
      "midi": 73,
      "hit": false,
      "t": 483833.3575250017,
      "d": 3730.1589166666963,
      "v": 100
    },
    {
      "midi": 76,
      "hit": false,
      "t": 483873.04006666836,
      "d": 3730.1589166666963,
      "v": 100
    },
    {
      "midi": 54,
      "hit": false,
      "t": 484047.6432499731,
      "d": 7.936508333310485,
      "v": 60
    },
    {
      "midi": 69,
      "hit": false,
      "t": 484047.6432500039,
      "d": 214.28572500002338,
      "v": 100
    },
    {
      "midi": 54,
      "hit": false,
      "t": 484285.738499973,
      "d": 7.936508333310485,
      "v": 60
    },
    {
      "midi": 42,
      "hit": false,
      "t": 484285.738499973,
      "d": 7.936508333310485,
      "v": 100
    },
    {
      "midi": 33,
      "hit": false,
      "t": 484285.738499993,
      "d": 396.8254166666884,
      "v": 118
    },
    {
      "midi": 57,
      "hit": false,
      "t": 484285.73850000394,
      "d": 214.28572500002338,
      "v": 100
    },
    {
      "midi": 45,
      "hit": false,
      "t": 484285.73850000894,
      "d": 71.4285750000272,
      "v": 115
    },
    {
      "midi": 52,
      "hit": false,
      "t": 484285.73850000894,
      "d": 71.4285750000272,
      "v": 115
    },
    {
      "midi": 54,
      "hit": false,
      "t": 484523.833749973,
      "d": 7.936508333310485,
      "v": 60
    },
    {
      "midi": 64,
      "hit": false,
      "t": 484523.83375000395,
      "d": 214.28572500002338,
      "v": 100
    },
    {
      "midi": 71,
      "hit": false,
      "t": 484753.99249166873,
      "d": 873.0159166666563,
      "v": 119
    },
    {
      "midi": 81,
      "hit": false,
      "t": 484753.99249166873,
      "d": 873.0159166666563,
      "v": 119
    },
    {
      "midi": 76,
      "hit": false,
      "t": 484753.99249166873,
      "d": 873.0159166666563,
      "v": 119
    },
    {
      "midi": 73,
      "hit": false,
      "t": 484753.99249166873,
      "d": 873.0159166666563,
      "v": 119
    },
    {
      "midi": 54,
      "hit": false,
      "t": 484761.92899997294,
      "d": 7.936508333310485,
      "v": 100
    },
    {
      "midi": 40,
      "hit": false,
      "t": 484761.92899997294,
      "d": 7.936508333310485,
      "v": 122
    },
    {
      "midi": 42,
      "hit": false,
      "t": 484761.92899997294,
      "d": 7.936508333310485,
      "v": 100
    },
    {
      "midi": 33,
      "hit": false,
      "t": 484761.928999993,
      "d": 396.8254166666884,
      "v": 118
    },
    {
      "midi": 61,
      "hit": false,
      "t": 484761.92900000396,
      "d": 214.28572500002338,
      "v": 100
    },
    {
      "midi": 45,
      "hit": false,
      "t": 484761.92900000594,
      "d": 95.23810000001686,
      "v": 115
    },
    {
      "midi": 52,
      "hit": false,
      "t": 484761.92900000594,
      "d": 95.23810000001686,
      "v": 115
    },
    {
      "midi": 45,
      "hit": false,
      "t": 484761.92900000897,
      "d": 71.4285750000272,
      "v": 115
    },
    {
      "midi": 52,
      "hit": false,
      "t": 484761.92900000897,
      "d": 71.4285750000272,
      "v": 115
    },
    {
      "midi": 54,
      "hit": false,
      "t": 485000.0242499729,
      "d": 7.936508333310485,
      "v": 60
    },
    {
      "midi": 57,
      "hit": false,
      "t": 485000.024250004,
      "d": 214.28572500002338,
      "v": 100
    },
    {
      "midi": 54,
      "hit": false,
      "t": 485238.11949997285,
      "d": 7.936508333310485,
      "v": 60
    },
    {
      "midi": 42,
      "hit": false,
      "t": 485238.11949997285,
      "d": 7.936508333310485,
      "v": 100
    },
    {
      "midi": 33,
      "hit": false,
      "t": 485238.11949999304,
      "d": 396.8254166666884,
      "v": 118
    },
    {
      "midi": 57,
      "hit": false,
      "t": 485238.119500004,
      "d": 214.28572500002338,
      "v": 100
    },
    {
      "midi": 79,
      "hit": false,
      "t": 485238.11950000504,
      "d": 238.09525000001304,
      "v": 125
    },
    {
      "midi": 52,
      "hit": false,
      "t": 485238.11950000597,
      "d": 95.23810000001686,
      "v": 115
    },
    {
      "midi": 45,
      "hit": false,
      "t": 485238.11950000597,
      "d": 95.23810000001686,
      "v": 115
    },
    {
      "midi": 45,
      "hit": false,
      "t": 485238.119500009,
      "d": 396.8254166666884,
      "v": 111
    },
    {
      "midi": 52,
      "hit": false,
      "t": 485238.119500009,
      "d": 396.8254166666884,
      "v": 111
    },
    {
      "midi": 54,
      "hit": false,
      "t": 485476.2147499728,
      "d": 7.936508333310485,
      "v": 60
    },
    {
      "midi": 61,
      "hit": false,
      "t": 485476.214750004,
      "d": 214.28572500002338,
      "v": 100
    },
    {
      "midi": 78,
      "hit": false,
      "t": 485476.21475000505,
      "d": 238.09525000001304,
      "v": 125
    },
    {
      "midi": 69,
      "hit": false,
      "t": 485706.3734916687,
      "d": 396.8254166666884,
      "v": 119
    },
    {
      "midi": 81,
      "hit": false,
      "t": 485706.3734916687,
      "d": 396.8254166666884,
      "v": 119
    },
    {
      "midi": 54,
      "hit": false,
      "t": 485714.30999997276,
      "d": 7.936508333310485,
      "v": 100
    },
    {
      "midi": 40,
      "hit": false,
      "t": 485714.30999997276,
      "d": 7.936508333310485,
      "v": 122
    },
    {
      "midi": 42,
      "hit": false,
      "t": 485714.30999997276,
      "d": 7.936508333310485,
      "v": 100
    },
    {
      "midi": 33,
      "hit": false,
      "t": 485714.3099999931,
      "d": 396.8254166666884,
      "v": 118
    },
    {
      "midi": 69,
      "hit": false,
      "t": 485714.310000004,
      "d": 214.28572500002338,
      "v": 100
    },
    {
      "midi": 76,
      "hit": false,
      "t": 485714.31000000506,
      "d": 1349.2064166666823,
      "v": 125
    },
    {
      "midi": 52,
      "hit": false,
      "t": 485714.310000006,
      "d": 95.23810000001686,
      "v": 115
    },
    {
      "midi": 45,
      "hit": false,
      "t": 485714.310000006,
      "d": 95.23810000001686,
      "v": 115
    },
    {
      "midi": 45,
      "hit": false,
      "t": 485714.310000009,
      "d": 71.4285750000272,
      "v": 115
    },
    {
      "midi": 52,
      "hit": false,
      "t": 485714.310000009,
      "d": 71.4285750000272,
      "v": 115
    },
    {
      "midi": 54,
      "hit": false,
      "t": 485952.4052499727,
      "d": 7.936508333310485,
      "v": 60
    },
    {
      "midi": 57,
      "hit": false,
      "t": 485952.405250004,
      "d": 214.28572500002338,
      "v": 100
    },
    {
      "midi": 57,
      "hit": false,
      "t": 486182.56399166875,
      "d": 873.0159166666563,
      "v": 127
    },
    {
      "midi": 2,
      "hit": false,
      "t": 486190.50049997267,
      "d": 7.936508333310485,
      "v": 117
    },
    {
      "midi": 42,
      "hit": false,
      "t": 486190.50049997267,
      "d": 7.936508333310485,
      "v": 100
    },
    {
      "midi": 54,
      "hit": false,
      "t": 486190.50049997267,
      "d": 7.936508333310485,
      "v": 60
    },
    {
      "midi": 33,
      "hit": false,
      "t": 486190.5004999931,
      "d": 396.8254166666884,
      "v": 118
    },
    {
      "midi": 64,
      "hit": false,
      "t": 486190.50050000404,
      "d": 214.28572500002338,
      "v": 100
    },
    {
      "midi": 52,
      "hit": false,
      "t": 486190.500500006,
      "d": 95.23810000001686,
      "v": 115
    },
    {
      "midi": 45,
      "hit": false,
      "t": 486190.500500006,
      "d": 95.23810000001686,
      "v": 115
    },
    {
      "midi": 52,
      "hit": false,
      "t": 486190.50050000905,
      "d": 71.4285750000272,
      "v": 115
    },
    {
      "midi": 45,
      "hit": false,
      "t": 486190.50050000905,
      "d": 71.4285750000272,
      "v": 115
    },
    {
      "midi": 54,
      "hit": false,
      "t": 486428.5957499726,
      "d": 7.936508333310485,
      "v": 60
    },
    {
      "midi": 69,
      "hit": false,
      "t": 486428.59575000405,
      "d": 214.28572500002338,
      "v": 100
    },
    {
      "midi": 54,
      "hit": false,
      "t": 486666.6909999726,
      "d": 7.936508333310485,
      "v": 100
    },
    {
      "midi": 40,
      "hit": false,
      "t": 486666.6909999726,
      "d": 7.936508333310485,
      "v": 122
    },
    {
      "midi": 36,
      "hit": false,
      "t": 486666.6909999931,
      "d": 396.8254166666884,
      "v": 118
    },
    {
      "midi": 88,
      "hit": false,
      "t": 486666.69099999906,
      "d": 277.7777916666819,
      "v": 100
    },
    {
      "midi": 76,
      "hit": false,
      "t": 486666.69100000063,
      "d": 277.7777916666819,
      "v": 110
    },
    {
      "midi": 69,
      "hit": false,
      "t": 486666.69100000407,
      "d": 214.28572500002338,
      "v": 100
    },
    {
      "midi": 45,
      "hit": false,
      "t": 486666.69100000605,
      "d": 357.14287500001956,
      "v": 115
    },
    {
      "midi": 52,
      "hit": false,
      "t": 486666.69100000605,
      "d": 357.14287500001956,
      "v": 115
    },
    {
      "midi": 45,
      "hit": false,
      "t": 486666.6910000091,
      "d": 396.8254166666884,
      "v": 111
    },
    {
      "midi": 52,
      "hit": false,
      "t": 486666.6910000091,
      "d": 396.8254166666884,
      "v": 111
    },
    {
      "midi": 90,
      "hit": false,
      "t": 486825.42116666574,
      "d": 277.7777916666819,
      "v": 100
    },
    {
      "midi": 78,
      "hit": false,
      "t": 486825.4211666673,
      "d": 277.7777916666819,
      "v": 115
    },
    {
      "midi": 54,
      "hit": false,
      "t": 486904.78624997253,
      "d": 7.936508333310485,
      "v": 60
    },
    {
      "midi": 40,
      "hit": false,
      "t": 486904.78624997253,
      "d": 7.936508333310485,
      "v": 122
    },
    {
      "midi": 64,
      "hit": false,
      "t": 486904.7862500041,
      "d": 214.28572500002338,
      "v": 100
    },
    {
      "midi": 91,
      "hit": false,
      "t": 486984.1513333324,
      "d": 277.7777916666819,
      "v": 100
    },
    {
      "midi": 79,
      "hit": false,
      "t": 486984.151333334,
      "d": 277.7777916666819,
      "v": 117
    },
    {
      "midi": 61,
      "hit": false,
      "t": 487134.94499166874,
      "d": 396.8254166666884,
      "v": 127
    },
    {
      "midi": 2,
      "hit": false,
      "t": 487142.8814999725,
      "d": 7.936508333310485,
      "v": 117
    },
    {
      "midi": 54,
      "hit": false,
      "t": 487142.8814999725,
      "d": 7.936508333310485,
      "v": 60
    },
    {
      "midi": 43,
      "hit": false,
      "t": 487142.8814999725,
      "d": 7.936508333310485,
      "v": 122
    },
    {
      "midi": 37,
      "hit": false,
      "t": 487142.88149999315,
      "d": 396.8254166666884,
      "v": 118
    },
    {
      "midi": 93,
      "hit": false,
      "t": 487142.8814999991,
      "d": 277.7777916666819,
      "v": 100
    },
    {
      "midi": 81,
      "hit": false,
      "t": 487142.88150000066,
      "d": 277.7777916666819,
      "v": 119
    },
    {
      "midi": 69,
      "hit": false,
      "t": 487142.8815000041,
      "d": 214.28572500002338,
      "v": 100
    },
    {
      "midi": 74,
      "hit": false,
      "t": 487142.8815000051,
      "d": 420.63494166667806,
      "v": 125
    },
    {
      "midi": 45,
      "hit": false,
      "t": 487142.8815000061,
      "d": 357.14287500001956,
      "v": 115
    },
    {
      "midi": 52,
      "hit": false,
      "t": 487142.8815000061,
      "d": 357.14287500001956,
      "v": 115
    },
    {
      "midi": 52,
      "hit": false,
      "t": 487142.8815000091,
      "d": 396.8254166666884,
      "v": 111
    },
    {
      "midi": 45,
      "hit": false,
      "t": 487142.8815000091,
      "d": 396.8254166666884,
      "v": 111
    },
    {
      "midi": 95,
      "hit": false,
      "t": 487301.61166666576,
      "d": 277.7777916666819,
      "v": 100
    },
    {
      "midi": 83,
      "hit": false,
      "t": 487301.61166666733,
      "d": 277.7777916666819,
      "v": 123
    },
    {
      "midi": 54,
      "hit": false,
      "t": 487380.97674997244,
      "d": 7.936508333310485,
      "v": 60
    },
    {
      "midi": 64,
      "hit": false,
      "t": 487380.9767500041,
      "d": 214.28572500002338,
      "v": 100
    },
    {
      "midi": 97,
      "hit": false,
      "t": 487460.34183333244,
      "d": 277.7777916666819,
      "v": 100
    },
    {
      "midi": 85,
      "hit": false,
      "t": 487460.341833334,
      "d": 277.7777916666819,
      "v": 127
    },
    {
      "midi": 93,
      "hit": false,
      "t": 487595.2624749991,
      "d": 3793.650983333355,
      "v": 100
    },
    {
      "midi": 98,
      "hit": false,
      "t": 487595.2624749991,
      "d": 5698.412983333343,
      "v": 100
    },
    {
      "midi": 86,
      "hit": false,
      "t": 487595.2624749991,
      "d": 5698.412983333343,
      "v": 100
    },
    {
      "midi": 74,
      "hit": false,
      "t": 487595.2624750007,
      "d": 3793.650983333355,
      "v": 100
    },
    {
      "midi": 81,
      "hit": false,
      "t": 487595.2624750007,
      "d": 3793.650983333355,
      "v": 100
    },
    {
      "midi": 66,
      "hit": false,
      "t": 487603.1989833361,
      "d": 3785.7144750001025,
      "v": 110
    },
    {
      "midi": 74,
      "hit": false,
      "t": 487603.1989833361,
      "d": 3785.7144750001025,
      "v": 110
    },
    {
      "midi": 69,
      "hit": false,
      "t": 487603.1989833361,
      "d": 3785.7144750001025,
      "v": 110
    },
    {
      "midi": 62,
      "hit": false,
      "t": 487603.1989833361,
      "d": 5690.47647500009,
      "v": 110
    },
    {
      "midi": 62,
      "hit": false,
      "t": 487611.13549166877,
      "d": 873.0159166666563,
      "v": 119
    },
    {
      "midi": 69,
      "hit": false,
      "t": 487611.13549166877,
      "d": 873.0159166666563,
      "v": 119
    },
    {
      "midi": 66,
      "hit": false,
      "t": 487611.13549166877,
      "d": 873.0159166666563,
      "v": 119
    },
    {
      "midi": 64,
      "hit": false,
      "t": 487611.13549166877,
      "d": 873.0159166666563,
      "v": 119
    },
    {
      "midi": 2,
      "hit": false,
      "t": 487619.0719999724,
      "d": 7.936508333310485,
      "v": 118
    },
    {
      "midi": 49,
      "hit": false,
      "t": 487619.0719999724,
      "d": 7.936508333310485,
      "v": 115
    },
    {
      "midi": 40,
      "hit": false,
      "t": 487619.0719999724,
      "d": 7.936508333310485,
      "v": 122
    },
    {
      "midi": 54,
      "hit": false,
      "t": 487619.0719999724,
      "d": 7.936508333310485,
      "v": 100
    },
    {
      "midi": 38,
      "hit": false,
      "t": 487619.0719999932,
      "d": 396.8254166666884,
      "v": 123
    },
    {
      "midi": 57,
      "hit": false,
      "t": 487619.0720000041,
      "d": 214.28572500002338,
      "v": 100
    },
    {
      "midi": 74,
      "hit": false,
      "t": 487619.0720000051,
      "d": 2777.7779166667606,
      "v": 125
    },
    {
      "midi": 50,
      "hit": false,
      "t": 487619.0720000061,
      "d": 912.6984583333251,
      "v": 105
    },
    {
      "midi": 57,
      "hit": false,
      "t": 487619.0720000061,
      "d": 912.6984583333251,
      "v": 105
    },
    {
      "midi": 50,
      "hit": false,
      "t": 487619.0720000091,
      "d": 396.8254166666884,
      "v": 111
    },
    {
      "midi": 57,
      "hit": false,
      "t": 487619.0720000091,
      "d": 396.8254166666884,
      "v": 111
    },
    {
      "midi": 54,
      "hit": false,
      "t": 487857.16724997235,
      "d": 7.936508333310485,
      "v": 60
    },
    {
      "midi": 62,
      "hit": false,
      "t": 487857.16725000413,
      "d": 214.28572500002338,
      "v": 100
    },
    {
      "midi": 54,
      "hit": false,
      "t": 488095.2624999723,
      "d": 7.936508333310485,
      "v": 60
    },
    {
      "midi": 42,
      "hit": false,
      "t": 488095.2624999723,
      "d": 7.936508333310485,
      "v": 100
    },
    {
      "midi": 38,
      "hit": false,
      "t": 488095.2624999932,
      "d": 396.8254166666884,
      "v": 118
    },
    {
      "midi": 57,
      "hit": false,
      "t": 488095.26250000414,
      "d": 214.28572500002338,
      "v": 100
    },
    {
      "midi": 50,
      "hit": false,
      "t": 488095.26250000915,
      "d": 71.4285750000272,
      "v": 115
    },
    {
      "midi": 57,
      "hit": false,
      "t": 488095.26250000915,
      "d": 71.4285750000272,
      "v": 115
    },
    {
      "midi": 54,
      "hit": false,
      "t": 488333.35774997226,
      "d": 7.936508333310485,
      "v": 60
    },
    {
      "midi": 62,
      "hit": false,
      "t": 488563.51649166876,
      "d": 198.4127083333442,
      "v": 119
    },
    {
      "midi": 74,
      "hit": false,
      "t": 488563.51649166876,
      "d": 198.4127083333442,
      "v": 119
    },
    {
      "midi": 54,
      "hit": false,
      "t": 488571.4529999722,
      "d": 7.936508333310485,
      "v": 100
    },
    {
      "midi": 40,
      "hit": false,
      "t": 488571.4529999722,
      "d": 7.936508333310485,
      "v": 122
    },
    {
      "midi": 42,
      "hit": false,
      "t": 488571.4529999722,
      "d": 7.936508333310485,
      "v": 100
    },
    {
      "midi": 38,
      "hit": false,
      "t": 488571.4529999932,
      "d": 396.8254166666884,
      "v": 118
    },
    {
      "midi": 64,
      "hit": false,
      "t": 488571.45300000417,
      "d": 214.28572500002338,
      "v": 100
    },
    {
      "midi": 57,
      "hit": false,
      "t": 488571.4530000061,
      "d": 95.23810000001686,
      "v": 115
    },
    {
      "midi": 50,
      "hit": false,
      "t": 488571.4530000061,
      "d": 95.23810000001686,
      "v": 115
    },
    {
      "midi": 50,
      "hit": false,
      "t": 488571.4530000092,
      "d": 71.4285750000272,
      "v": 115
    },
    {
      "midi": 57,
      "hit": false,
      "t": 488571.4530000092,
      "d": 71.4285750000272,
      "v": 115
    },
    {
      "midi": 62,
      "hit": false,
      "t": 488801.6117416688,
      "d": 396.8254166666884,
      "v": 119
    },
    {
      "midi": 74,
      "hit": false,
      "t": 488801.6117416688,
      "d": 396.8254166666884,
      "v": 119
    },
    {
      "midi": 54,
      "hit": false,
      "t": 488809.54824997217,
      "d": 7.936508333310485,
      "v": 60
    },
    {
      "midi": 62,
      "hit": false,
      "t": 488809.5482500042,
      "d": 214.28572500002338,
      "v": 100
    },
    {
      "midi": 54,
      "hit": false,
      "t": 489047.6434999721,
      "d": 7.936508333310485,
      "v": 60
    },
    {
      "midi": 42,
      "hit": false,
      "t": 489047.6434999721,
      "d": 7.936508333310485,
      "v": 100
    },
    {
      "midi": 38,
      "hit": false,
      "t": 489047.64349999325,
      "d": 396.8254166666884,
      "v": 118
    },
    {
      "midi": 62,
      "hit": false,
      "t": 489047.6435000042,
      "d": 214.28572500002338,
      "v": 100
    },
    {
      "midi": 50,
      "hit": false,
      "t": 489047.6435000061,
      "d": 95.23810000001686,
      "v": 115
    },
    {
      "midi": 57,
      "hit": false,
      "t": 489047.6435000061,
      "d": 95.23810000001686,
      "v": 115
    },
    {
      "midi": 50,
      "hit": false,
      "t": 489047.6435000092,
      "d": 396.8254166666884,
      "v": 111
    },
    {
      "midi": 57,
      "hit": false,
      "t": 489047.6435000092,
      "d": 396.8254166666884,
      "v": 111
    },
    {
      "midi": 62,
      "hit": false,
      "t": 489277.8022416688,
      "d": 396.8254166666884,
      "v": 119
    },
    {
      "midi": 74,
      "hit": false,
      "t": 489277.8022416688,
      "d": 396.8254166666884,
      "v": 119
    },
    {
      "midi": 54,
      "hit": false,
      "t": 489285.7387499721,
      "d": 7.936508333310485,
      "v": 60
    },
    {
      "midi": 64,
      "hit": false,
      "t": 489285.7387500042,
      "d": 214.28572500002338,
      "v": 100
    },
    {
      "midi": 54,
      "hit": false,
      "t": 489523.83399997203,
      "d": 7.936508333310485,
      "v": 100
    },
    {
      "midi": 40,
      "hit": false,
      "t": 489523.83399997203,
      "d": 7.936508333310485,
      "v": 122
    },
    {
      "midi": 42,
      "hit": false,
      "t": 489523.83399997203,
      "d": 7.936508333310485,
      "v": 100
    },
    {
      "midi": 38,
      "hit": false,
      "t": 489523.8339999933,
      "d": 396.8254166666884,
      "v": 118
    },
    {
      "midi": 69,
      "hit": false,
      "t": 489523.8340000042,
      "d": 214.28572500002338,
      "v": 100
    },
    {
      "midi": 50,
      "hit": false,
      "t": 489523.83400000614,
      "d": 95.23810000001686,
      "v": 115
    },
    {
      "midi": 57,
      "hit": false,
      "t": 489523.83400000614,
      "d": 95.23810000001686,
      "v": 115
    },
    {
      "midi": 50,
      "hit": false,
      "t": 489523.8340000092,
      "d": 71.4285750000272,
      "v": 115
    },
    {
      "midi": 57,
      "hit": false,
      "t": 489523.8340000092,
      "d": 71.4285750000272,
      "v": 115
    },
    {
      "midi": 62,
      "hit": false,
      "t": 489753.99274166883,
      "d": 198.4127083333442,
      "v": 119
    },
    {
      "midi": 74,
      "hit": false,
      "t": 489753.99274166883,
      "d": 198.4127083333442,
      "v": 119
    },
    {
      "midi": 54,
      "hit": false,
      "t": 489761.929249972,
      "d": 7.936508333310485,
      "v": 60
    },
    {
      "midi": 62,
      "hit": false,
      "t": 489761.92925000424,
      "d": 214.28572500002338,
      "v": 100
    },
    {
      "midi": 62,
      "hit": false,
      "t": 489992.08799166884,
      "d": 396.8254166666884,
      "v": 119
    },
    {
      "midi": 74,
      "hit": false,
      "t": 489992.08799166884,
      "d": 396.8254166666884,
      "v": 119
    },
    {
      "midi": 2,
      "hit": false,
      "t": 490000.02449997194,
      "d": 7.936508333310485,
      "v": 117
    },
    {
      "midi": 42,
      "hit": false,
      "t": 490000.02449997194,
      "d": 7.936508333310485,
      "v": 100
    },
    {
      "midi": 54,
      "hit": false,
      "t": 490000.02449997194,
      "d": 7.936508333310485,
      "v": 60
    },
    {
      "midi": 45,
      "hit": false,
      "t": 490000.0244999933,
      "d": 396.8254166666302,
      "v": 118
    },
    {
      "midi": 62,
      "hit": false,
      "t": 490000.02450000425,
      "d": 214.28572500002338,
      "v": 100
    },
    {
      "midi": 50,
      "hit": false,
      "t": 490000.02450000617,
      "d": 95.23810000001686,
      "v": 115
    },
    {
      "midi": 57,
      "hit": false,
      "t": 490000.02450000617,
      "d": 95.23810000001686,
      "v": 115
    },
    {
      "midi": 50,
      "hit": false,
      "t": 490000.02450000925,
      "d": 71.4285750000272,
      "v": 115
    },
    {
      "midi": 57,
      "hit": false,
      "t": 490000.02450000925,
      "d": 71.4285750000272,
      "v": 115
    },
    {
      "midi": 54,
      "hit": false,
      "t": 490238.1197499719,
      "d": 7.936508333310485,
      "v": 60
    },
    {
      "midi": 69,
      "hit": false,
      "t": 490238.11975000426,
      "d": 214.28572500002338,
      "v": 100
    },
    {
      "midi": 62,
      "hit": false,
      "t": 490468.27849166887,
      "d": 396.8254166666884,
      "v": 119
    },
    {
      "midi": 74,
      "hit": false,
      "t": 490468.27849166887,
      "d": 396.8254166666884,
      "v": 119
    },
    {
      "midi": 54,
      "hit": false,
      "t": 490476.21499997185,
      "d": 7.936508333310485,
      "v": 100
    },
    {
      "midi": 40,
      "hit": false,
      "t": 490476.21499997185,
      "d": 7.936508333310485,
      "v": 122
    },
    {
      "midi": 42,
      "hit": false,
      "t": 490476.21499997185,
      "d": 7.936508333310485,
      "v": 100
    },
    {
      "midi": 48,
      "hit": false,
      "t": 490476.2149999933,
      "d": 396.8254166666884,
      "v": 118
    },
    {
      "midi": 64,
      "hit": false,
      "t": 490476.2150000043,
      "d": 214.28572500002338,
      "v": 100
    },
    {
      "midi": 50,
      "hit": false,
      "t": 490476.2150000062,
      "d": 357.14287500001956,
      "v": 115
    },
    {
      "midi": 57,
      "hit": false,
      "t": 490476.2150000062,
      "d": 357.14287500001956,
      "v": 115
    },
    {
      "midi": 50,
      "hit": false,
      "t": 490476.2150000093,
      "d": 396.8254166666884,
      "v": 111
    },
    {
      "midi": 57,
      "hit": false,
      "t": 490476.2150000093,
      "d": 396.8254166666884,
      "v": 111
    },
    {
      "midi": 54,
      "hit": false,
      "t": 490714.3102499718,
      "d": 7.936508333310485,
      "v": 60
    },
    {
      "midi": 62,
      "hit": false,
      "t": 490714.3102500043,
      "d": 214.28572500002338,
      "v": 100
    },
    {
      "midi": 62,
      "hit": false,
      "t": 490944.4689916689,
      "d": 396.8254166666884,
      "v": 119
    },
    {
      "midi": 66,
      "hit": false,
      "t": 490944.4689916689,
      "d": 396.8254166666884,
      "v": 119
    },
    {
      "midi": 2,
      "hit": false,
      "t": 490952.40549997176,
      "d": 7.936508333310485,
      "v": 117
    },
    {
      "midi": 42,
      "hit": false,
      "t": 490952.40549997176,
      "d": 7.936508333310485,
      "v": 100
    },
    {
      "midi": 54,
      "hit": false,
      "t": 490952.40549997176,
      "d": 7.936508333310485,
      "v": 60
    },
    {
      "midi": 49,
      "hit": false,
      "t": 490952.4054999933,
      "d": 396.8254166666884,
      "v": 118
    },
    {
      "midi": 62,
      "hit": false,
      "t": 490952.4055000043,
      "d": 214.28572500002338,
      "v": 100
    },
    {
      "midi": 50,
      "hit": false,
      "t": 490952.4055000062,
      "d": 357.14287500001956,
      "v": 115
    },
    {
      "midi": 57,
      "hit": false,
      "t": 490952.4055000062,
      "d": 357.14287500001956,
      "v": 115
    },
    {
      "midi": 50,
      "hit": false,
      "t": 490952.4055000093,
      "d": 182.53969166666502,
      "v": 111
    },
    {
      "midi": 57,
      "hit": false,
      "t": 490952.4055000093,
      "d": 182.53969166666502,
      "v": 111
    },
    {
      "midi": 54,
      "hit": false,
      "t": 491190.5007499717,
      "d": 7.936508333310485,
      "v": 60
    },
    {
      "midi": 64,
      "hit": false,
      "t": 491190.5007500043,
      "d": 214.28572500002338,
      "v": 100
    },
    {
      "midi": 57,
      "hit": false,
      "t": 491190.5007500093,
      "d": 182.53969166666502,
      "v": 111
    },
    {
      "midi": 50,
      "hit": false,
      "t": 491190.5007500093,
      "d": 182.53969166666502,
      "v": 111
    },
    {
      "midi": 79,
      "hit": false,
      "t": 491404.7864750007,
      "d": 1888.8889833333087,
      "v": 100
    },
    {
      "midi": 72,
      "hit": false,
      "t": 491404.7864750007,
      "d": 1888.8889833333087,
      "v": 100
    },
    {
      "midi": 72,
      "hit": false,
      "t": 491412.7229833362,
      "d": 1888.8889833333087,
      "v": 110
    },
    {
      "midi": 67,
      "hit": false,
      "t": 491412.7229833362,
      "d": 1888.8889833333087,
      "v": 110
    },
    {
      "midi": 64,
      "hit": false,
      "t": 491412.7229833362,
      "d": 1888.8889833333087,
      "v": 110
    },
    {
      "midi": 64,
      "hit": false,
      "t": 491420.6594916689,
      "d": 634.9206666666432,
      "v": 119
    },
    {
      "midi": 74,
      "hit": false,
      "t": 491420.6594916689,
      "d": 634.9206666666432,
      "v": 119
    },
    {
      "midi": 72,
      "hit": false,
      "t": 491420.6594916689,
      "d": 634.9206666666432,
      "v": 119
    },
    {
      "midi": 67,
      "hit": false,
      "t": 491420.6594916689,
      "d": 634.9206666666432,
      "v": 119
    },
    {
      "midi": 2,
      "hit": false,
      "t": 491428.5959999717,
      "d": 7.936508333310485,
      "v": 118
    },
    {
      "midi": 49,
      "hit": false,
      "t": 491428.5959999717,
      "d": 7.936508333310485,
      "v": 115
    },
    {
      "midi": 50,
      "hit": false,
      "t": 491428.5959999933,
      "d": 396.8254166666884,
      "v": 113
    },
    {
      "midi": 57,
      "hit": false,
      "t": 491428.5960000043,
      "d": 214.28572500002338,
      "v": 100
    },
    {
      "midi": 50,
      "hit": false,
      "t": 491428.59600000625,
      "d": 1880.9524749999982,
      "v": 101
    },
    {
      "midi": 55,
      "hit": false,
      "t": 491428.59600000625,
      "d": 1880.9524749999982,
      "v": 101
    },
    {
      "midi": 60,
      "hit": false,
      "t": 491428.59600000625,
      "d": 1880.9524749999982,
      "v": 101
    },
    {
      "midi": 50,
      "hit": false,
      "t": 491428.59600000933,
      "d": 1404.7619750000304,
      "v": 108
    },
    {
      "midi": 55,
      "hit": false,
      "t": 491428.59600000933,
      "d": 1404.7619750000304,
      "v": 108
    },
    {
      "midi": 60,
      "hit": false,
      "t": 491428.59600000933,
      "d": 1404.7619750000304,
      "v": 108
    },
    {
      "midi": 62,
      "hit": false,
      "t": 491666.69125000434,
      "d": 214.28572500002338,
      "v": 100
    },
    {
      "midi": 40,
      "hit": false,
      "t": 491904.78649997164,
      "d": 7.936508333310485,
      "v": 122
    },
    {
      "midi": 48,
      "hit": false,
      "t": 491904.78649997164,
      "d": 7.936508333310485,
      "v": 122
    },
    {
      "midi": 50,
      "hit": false,
      "t": 491904.78649999335,
      "d": 396.8254166666884,
      "v": 113
    },
    {
      "midi": 60,
      "hit": false,
      "t": 491904.78650000435,
      "d": 214.28572500002338,
      "v": 100
    },
    {
      "midi": 64,
      "hit": false,
      "t": 492134.9452416689,
      "d": 634.9206666666432,
      "v": 127
    },
    {
      "midi": 57,
      "hit": false,
      "t": 492142.88175000437,
      "d": 214.28572500002338,
      "v": 100
    },
    {
      "midi": 2,
      "hit": false,
      "t": 492380.9769999716,
      "d": 7.936508333310485,
      "v": 118
    },
    {
      "midi": 45,
      "hit": false,
      "t": 492380.9769999716,
      "d": 7.936508333310485,
      "v": 122
    },
    {
      "midi": 50,
      "hit": false,
      "t": 492380.9769999934,
      "d": 396.8254166666884,
      "v": 113
    },
    {
      "midi": 64,
      "hit": false,
      "t": 492380.9770000044,
      "d": 214.28572500002338,
      "v": 100
    },
    {
      "midi": 38,
      "hit": false,
      "t": 492420.6595416383,
      "d": 7.936508333310485,
      "v": 122
    },
    {
      "midi": 60,
      "hit": false,
      "t": 492619.0722500044,
      "d": 214.28572500002338,
      "v": 100
    },
    {
      "midi": 67,
      "hit": false,
      "t": 492849.2309916689,
      "d": 396.8254166666884,
      "v": 127
    },
    {
      "midi": 45,
      "hit": false,
      "t": 492857.1674999716,
      "d": 7.936508333310485,
      "v": 122
    },
    {
      "midi": 50,
      "hit": false,
      "t": 492857.1674999934,
      "d": 396.8254166666884,
      "v": 113
    },
    {
      "midi": 62,
      "hit": false,
      "t": 492857.1675000044,
      "d": 214.28572500002338,
      "v": 100
    },
    {
      "midi": 50,
      "hit": false,
      "t": 492857.16750000935,
      "d": 182.53969166666502,
      "v": 111
    },
    {
      "midi": 57,
      "hit": false,
      "t": 492857.16750000935,
      "d": 182.53969166666502,
      "v": 111
    },
    {
      "midi": 62,
      "hit": false,
      "t": 492857.16750000935,
      "d": 182.53969166666502,
      "v": 111
    },
    {
      "midi": 38,
      "hit": false,
      "t": 492896.85004163824,
      "d": 7.936508333310485,
      "v": 122
    },
    {
      "midi": 64,
      "hit": false,
      "t": 493095.2627500044,
      "d": 214.28572500002338,
      "v": 100
    },
    {
      "midi": 50,
      "hit": false,
      "t": 493095.26275000937,
      "d": 182.53969166666502,
      "v": 111
    },
    {
      "midi": 57,
      "hit": false,
      "t": 493095.26275000937,
      "d": 182.53969166666502,
      "v": 111
    },
    {
      "midi": 62,
      "hit": false,
      "t": 493095.26275000937,
      "d": 182.53969166666502,
      "v": 111
    },
    {
      "midi": 74,
      "hit": false,
      "t": 493309.54847499914,
      "d": 698.4127333333599,
      "v": 100
    },
    {
      "midi": 84,
      "hit": false,
      "t": 493309.54847499914,
      "d": 698.4127333333599,
      "v": 100
    },
    {
      "midi": 96,
      "hit": false,
      "t": 493309.54847499914,
      "d": 698.4127333333599,
      "v": 100
    },
    {
      "midi": 62,
      "hit": false,
      "t": 493317.4849833362,
      "d": 1888.8889833334251,
      "v": 110
    },
    {
      "midi": 66,
      "hit": false,
      "t": 493317.4849833362,
      "d": 1888.8889833334251,
      "v": 110
    },
    {
      "midi": 69,
      "hit": false,
      "t": 493317.4849833362,
      "d": 1888.8889833334251,
      "v": 110
    },
    {
      "midi": 62,
      "hit": false,
      "t": 493325.4214916689,
      "d": 634.9206666666432,
      "v": 119
    },
    {
      "midi": 74,
      "hit": false,
      "t": 493325.4214916689,
      "d": 634.9206666666432,
      "v": 119
    },
    {
      "midi": 69,
      "hit": false,
      "t": 493325.4214916689,
      "d": 634.9206666666432,
      "v": 119
    },
    {
      "midi": 66,
      "hit": false,
      "t": 493325.4214916689,
      "d": 634.9206666666432,
      "v": 119
    },
    {
      "midi": 2,
      "hit": false,
      "t": 493333.35799997154,
      "d": 7.936508333310485,
      "v": 118
    },
    {
      "midi": 43,
      "hit": false,
      "t": 493333.35799997154,
      "d": 7.936508333310485,
      "v": 116
    },
    {
      "midi": 38,
      "hit": false,
      "t": 493333.35799997154,
      "d": 7.936508333310485,
      "v": 116
    },
    {
      "midi": 50,
      "hit": false,
      "t": 493333.35799999343,
      "d": 396.8254166666884,
      "v": 113
    },
    {
      "midi": 69,
      "hit": false,
      "t": 493333.35800000443,
      "d": 214.28572500002338,
      "v": 100
    },
    {
      "midi": 50,
      "hit": false,
      "t": 493333.35800000624,
      "d": 1880.9524749999982,
      "v": 101
    },
    {
      "midi": 57,
      "hit": false,
      "t": 493333.35800000624,
      "d": 1880.9524749999982,
      "v": 101
    },
    {
      "midi": 62,
      "hit": false,
      "t": 493333.35800000624,
      "d": 1880.9524749999982,
      "v": 101
    },
    {
      "midi": 50,
      "hit": false,
      "t": 493333.3580000094,
      "d": 1888.888983333367,
      "v": 108
    },
    {
      "midi": 57,
      "hit": false,
      "t": 493333.3580000094,
      "d": 1888.888983333367,
      "v": 108
    },
    {
      "midi": 62,
      "hit": false,
      "t": 493333.3580000094,
      "d": 1888.888983333367,
      "v": 108
    },
    {
      "midi": 62,
      "hit": false,
      "t": 493571.45325000444,
      "d": 214.28572500002338,
      "v": 100
    },
    {
      "midi": 43,
      "hit": false,
      "t": 493809.5484999715,
      "d": 7.936508333310485,
      "v": 118
    },
    {
      "midi": 40,
      "hit": false,
      "t": 493809.5484999715,
      "d": 7.936508333310485,
      "v": 118
    },
    {
      "midi": 45,
      "hit": false,
      "t": 493809.54849999346,
      "d": 396.8254166666884,
      "v": 113
    },
    {
      "midi": 62,
      "hit": false,
      "t": 493809.54850000446,
      "d": 214.28572500002338,
      "v": 100
    },
    {
      "midi": 62,
      "hit": false,
      "t": 494039.7072416689,
      "d": 634.9206666666432,
      "v": 127
    },
    {
      "midi": 95,
      "hit": false,
      "t": 494047.6437499992,
      "d": 698.4127333333599,
      "v": 100
    },
    {
      "midi": 83,
      "hit": false,
      "t": 494047.6437499992,
      "d": 698.4127333333599,
      "v": 100
    },
    {
      "midi": 69,
      "hit": false,
      "t": 494047.64375000447,
      "d": 214.28572500002338,
      "v": 100
    },
    {
      "midi": 2,
      "hit": false,
      "t": 494285.7389999715,
      "d": 7.936508333310485,
      "v": 118
    },
    {
      "midi": 43,
      "hit": false,
      "t": 494285.7389999715,
      "d": 7.936508333310485,
      "v": 125
    },
    {
      "midi": 40,
      "hit": false,
      "t": 494285.7389999715,
      "d": 7.936508333310485,
      "v": 125
    },
    {
      "midi": 38,
      "hit": false,
      "t": 494285.7389999935,
      "d": 912.6984583333251,
      "v": 113
    },
    {
      "midi": 64,
      "hit": false,
      "t": 494285.7390000045,
      "d": 214.28572500002338,
      "v": 100
    },
    {
      "midi": 76,
      "hit": false,
      "t": 494285.7390000053,
      "d": 420.63494166667806,
      "v": 119
    },
    {
      "midi": 62,
      "hit": false,
      "t": 494523.8342500045,
      "d": 214.28572500002338,
      "v": 100
    },
    {
      "midi": 66,
      "hit": false,
      "t": 494753.99299166887,
      "d": 396.8254166666884,
      "v": 127
    },
    {
      "midi": 43,
      "hit": false,
      "t": 494761.92949997145,
      "d": 7.936508333310485,
      "v": 127
    },
    {
      "midi": 40,
      "hit": false,
      "t": 494761.92949997145,
      "d": 7.936508333310485,
      "v": 127
    },
    {
      "midi": 81,
      "hit": false,
      "t": 494761.9294999992,
      "d": 436.50795833335724,
      "v": 100
    },
    {
      "midi": 93,
      "hit": false,
      "t": 494761.9294999992,
      "d": 436.50795833335724,
      "v": 100
    },
    {
      "midi": 69,
      "hit": false,
      "t": 494761.9295000045,
      "d": 214.28572500002338,
      "v": 100
    },
    {
      "midi": 78,
      "hit": false,
      "t": 494761.9295000053,
      "d": 420.63494166667806,
      "v": 119
    },
    {
      "midi": 64,
      "hit": false,
      "t": 495000.0247500045,
      "d": 214.28572500002338,
      "v": 100
    },
    {
      "midi": 67,
      "hit": false,
      "t": 495198.4374583351,
      "d": 3730.1589166666963,
      "v": 100
    },
    {
      "midi": 31,
      "hit": false,
      "t": 495238.11999999994,
      "d": 396.8254166666884,
      "v": 109
    },
    {
      "midi": 74,
      "hit": false,
      "t": 495238.12000000116,
      "d": 436.50795833335724,
      "v": 120
    },
    {
      "midi": 79,
      "hit": false,
      "t": 495238.12000000116,
      "d": 436.50795833335724,
      "v": 115
    },
    {
      "midi": 83,
      "hit": false,
      "t": 495238.12000000116,
      "d": 436.50795833335724,
      "v": 115
    },
    {
      "midi": 69,
      "hit": false,
      "t": 495238.12000000174,
      "d": 3730.1589166666963,
      "v": 100
    },
    {
      "midi": 62,
      "hit": false,
      "t": 495238.1200000022,
      "d": 396.8254166666884,
      "v": 105
    },
    {
      "midi": 67,
      "hit": false,
      "t": 495238.1200000022,
      "d": 396.8254166666884,
      "v": 105
    },
    {
      "midi": 71,
      "hit": false,
      "t": 495238.1200000022,
      "d": 396.8254166666884,
      "v": 105
    },
    {
      "midi": 79,
      "hit": false,
      "t": 495238.12000000535,
      "d": 873.0159166666563,
      "v": 119
    },
    {
      "midi": 71,
      "hit": false,
      "t": 495269.8660333351,
      "d": 3730.1589166666963,
      "v": 100
    },
    {
      "midi": 74,
      "hit": false,
      "t": 495317.4850833351,
      "d": 3730.1589166666963,
      "v": 100
    },
    {
      "midi": 31,
      "hit": false,
      "t": 495714.31049999996,
      "d": 396.8254166666884,
      "v": 109
    },
    {
      "midi": 50,
      "hit": false,
      "t": 495714.31050000223,
      "d": 396.8254166666884,
      "v": 117
    },
    {
      "midi": 31,
      "hit": false,
      "t": 496190.501,
      "d": 396.8254166666884,
      "v": 109
    },
    {
      "midi": 74,
      "hit": false,
      "t": 496190.5010000012,
      "d": 436.50795833335724,
      "v": 110
    },
    {
      "midi": 79,
      "hit": false,
      "t": 496190.5010000012,
      "d": 436.50795833335724,
      "v": 105
    },
    {
      "midi": 83,
      "hit": false,
      "t": 496190.5010000012,
      "d": 436.50795833335724,
      "v": 105
    },
    {
      "midi": 55,
      "hit": false,
      "t": 496190.50100000226,
      "d": 396.8254166666884,
      "v": 117
    },
    {
      "midi": 83,
      "hit": false,
      "t": 496190.50100000534,
      "d": 420.63494166667806,
      "v": 119
    },
    {
      "midi": 31,
      "hit": false,
      "t": 496666.6915,
      "d": 396.8254166666884,
      "v": 109
    },
    {
      "midi": 59,
      "hit": false,
      "t": 496666.6915000023,
      "d": 396.8254166666884,
      "v": 117
    },
    {
      "midi": 83,
      "hit": false,
      "t": 496666.69150000537,
      "d": 420.63494166667806,
      "v": 119
    },
    {
      "midi": 31,
      "hit": false,
      "t": 497142.88200000004,
      "d": 396.8254166666884,
      "v": 109
    },
    {
      "midi": 76,
      "hit": false,
      "t": 497142.88200000126,
      "d": 436.50795833335724,
      "v": 100
    },
    {
      "midi": 81,
      "hit": false,
      "t": 497142.88200000126,
      "d": 436.50795833335724,
      "v": 95
    },
    {
      "midi": 85,
      "hit": false,
      "t": 497142.88200000126,
      "d": 436.50795833335724,
      "v": 95
    },
    {
      "midi": 61,
      "hit": false,
      "t": 497142.8820000023,
      "d": 396.8254166666884,
      "v": 105
    },
    {
      "midi": 64,
      "hit": false,
      "t": 497142.8820000023,
      "d": 396.8254166666884,
      "v": 105
    },
    {
      "midi": 69,
      "hit": false,
      "t": 497142.8820000023,
      "d": 396.8254166666884,
      "v": 105
    },
    {
      "midi": 83,
      "hit": false,
      "t": 497142.8820000054,
      "d": 873.0159166666563,
      "v": 119
    },
    {
      "midi": 31,
      "hit": false,
      "t": 497619.07250000007,
      "d": 396.8254166666884,
      "v": 109
    },
    {
      "midi": 55,
      "hit": false,
      "t": 497619.07250000234,
      "d": 396.8254166666884,
      "v": 117
    },
    {
      "midi": 31,
      "hit": false,
      "t": 498095.2630000001,
      "d": 396.8254166666884,
      "v": 109
    },
    {
      "midi": 76,
      "hit": false,
      "t": 498095.2630000013,
      "d": 436.50795833335724,
      "v": 95
    },
    {
      "midi": 81,
      "hit": false,
      "t": 498095.2630000013,
      "d": 436.50795833335724,
      "v": 90
    },
    {
      "midi": 85,
      "hit": false,
      "t": 498095.2630000013,
      "d": 436.50795833335724,
      "v": 90
    },
    {
      "midi": 57,
      "hit": false,
      "t": 498095.26300000236,
      "d": 396.8254166666884,
      "v": 117
    },
    {
      "midi": 85,
      "hit": false,
      "t": 498095.2630000054,
      "d": 420.63494166667806,
      "v": 119
    },
    {
      "midi": 31,
      "hit": false,
      "t": 498571.4535000001,
      "d": 396.8254166666884,
      "v": 109
    },
    {
      "midi": 61,
      "hit": false,
      "t": 498571.4535000024,
      "d": 396.8254166666884,
      "v": 117
    },
    {
      "midi": 83,
      "hit": false,
      "t": 498571.4535000054,
      "d": 420.63494166667806,
      "v": 119
    },
    {
      "midi": 30,
      "hit": false,
      "t": 499047.64400000015,
      "d": 396.8254166666884,
      "v": 109
    },
    {
      "midi": 76,
      "hit": false,
      "t": 499047.64400000137,
      "d": 436.50795833335724,
      "v": 120
    },
    {
      "midi": 81,
      "hit": false,
      "t": 499047.64400000137,
      "d": 436.50795833335724,
      "v": 115
    },
    {
      "midi": 85,
      "hit": false,
      "t": 499047.64400000137,
      "d": 436.50795833335724,
      "v": 115
    },
    {
      "midi": 61,
      "hit": false,
      "t": 499047.6440000024,
      "d": 833.3333749999874,
      "v": 105
    },
    {
      "midi": 64,
      "hit": false,
      "t": 499047.6440000024,
      "d": 833.3333749999874,
      "v": 105
    },
    {
      "midi": 69,
      "hit": false,
      "t": 499047.6440000024,
      "d": 833.3333749999874,
      "v": 105
    },
    {
      "midi": 81,
      "hit": false,
      "t": 499047.64400000544,
      "d": 873.0159166666563,
      "v": 119
    },
    {
      "midi": 30,
      "hit": false,
      "t": 499523.8345000002,
      "d": 396.8254166666884,
      "v": 109
    },
    {
      "midi": 30,
      "hit": false,
      "t": 500000.0250000002,
      "d": 396.8254166666884,
      "v": 109
    },
    {
      "midi": 76,
      "hit": false,
      "t": 500000.0250000014,
      "d": 436.50795833335724,
      "v": 110
    },
    {
      "midi": 81,
      "hit": false,
      "t": 500000.0250000014,
      "d": 436.50795833335724,
      "v": 105
    },
    {
      "midi": 85,
      "hit": false,
      "t": 500000.0250000014,
      "d": 436.50795833335724,
      "v": 105
    },
    {
      "midi": 54,
      "hit": false,
      "t": 500000.0250000024,
      "d": 396.8254166666884,
      "v": 117
    },
    {
      "midi": 78,
      "hit": false,
      "t": 500000.02500000544,
      "d": 420.63494166667806,
      "v": 119
    },
    {
      "midi": 30,
      "hit": false,
      "t": 500476.2155000002,
      "d": 396.8254166666884,
      "v": 109
    },
    {
      "midi": 71,
      "hit": false,
      "t": 500476.21550000244,
      "d": 238.09525000001304,
      "v": 117
    },
    {
      "midi": 76,
      "hit": false,
      "t": 500476.21550000546,
      "d": 420.63494166667806,
      "v": 119
    },
    {
      "midi": 73,
      "hit": false,
      "t": 500714.31075000245,
      "d": 238.09525000001304,
      "v": 117
    },
    {
      "midi": 35,
      "hit": false,
      "t": 500952.40600000025,
      "d": 396.8254166666884,
      "v": 109
    },
    {
      "midi": 78,
      "hit": false,
      "t": 500952.4060000015,
      "d": 436.50795833335724,
      "v": 100
    },
    {
      "midi": 81,
      "hit": false,
      "t": 500952.4060000015,
      "d": 436.50795833335724,
      "v": 95
    },
    {
      "midi": 86,
      "hit": false,
      "t": 500952.4060000015,
      "d": 436.50795833335724,
      "v": 95
    },
    {
      "midi": 66,
      "hit": false,
      "t": 500952.40600000246,
      "d": 396.8254166666884,
      "v": 105
    },
    {
      "midi": 69,
      "hit": false,
      "t": 500952.40600000246,
      "d": 396.8254166666884,
      "v": 105
    },
    {
      "midi": 74,
      "hit": false,
      "t": 500952.40600000246,
      "d": 396.8254166666884,
      "v": 105
    },
    {
      "midi": 74,
      "hit": false,
      "t": 500952.4060000055,
      "d": 873.0159166666563,
      "v": 119
    },
    {
      "midi": 35,
      "hit": false,
      "t": 501428.5965000003,
      "d": 396.8254166666884,
      "v": 109
    },
    {
      "midi": 54,
      "hit": false,
      "t": 501428.5965000025,
      "d": 396.8254166666884,
      "v": 117
    },
    {
      "midi": 35,
      "hit": false,
      "t": 501904.7870000003,
      "d": 396.8254166666884,
      "v": 109
    },
    {
      "midi": 78,
      "hit": false,
      "t": 501904.7870000015,
      "d": 436.50795833335724,
      "v": 95
    },
    {
      "midi": 81,
      "hit": false,
      "t": 501904.7870000015,
      "d": 436.50795833335724,
      "v": 90
    },
    {
      "midi": 86,
      "hit": false,
      "t": 501904.7870000015,
      "d": 436.50795833335724,
      "v": 90
    },
    {
      "midi": 64,
      "hit": false,
      "t": 501904.7870000025,
      "d": 396.8254166666884,
      "v": 105
    },
    {
      "midi": 69,
      "hit": false,
      "t": 501904.7870000025,
      "d": 396.8254166666884,
      "v": 105
    },
    {
      "midi": 73,
      "hit": false,
      "t": 501904.7870000025,
      "d": 396.8254166666884,
      "v": 105
    },
    {
      "midi": 74,
      "hit": false,
      "t": 501904.7870000055,
      "d": 420.63494166667806,
      "v": 119
    },
    {
      "midi": 35,
      "hit": false,
      "t": 502380.9775000003,
      "d": 396.8254166666884,
      "v": 109
    },
    {
      "midi": 54,
      "hit": false,
      "t": 502380.97750000254,
      "d": 396.8254166666884,
      "v": 117
    },
    {
      "midi": 73,
      "hit": false,
      "t": 502380.9775000055,
      "d": 420.63494166667806,
      "v": 119
    },
    {
      "midi": 40,
      "hit": false,
      "t": 502857.16800000035,
      "d": 396.8254166666884,
      "v": 109
    },
    {
      "midi": 74,
      "hit": false,
      "t": 502857.1680000016,
      "d": 436.50795833335724,
      "v": 120
    },
    {
      "midi": 79,
      "hit": false,
      "t": 502857.1680000016,
      "d": 436.50795833335724,
      "v": 115
    },
    {
      "midi": 83,
      "hit": false,
      "t": 502857.1680000016,
      "d": 436.50795833335724,
      "v": 115
    },
    {
      "midi": 62,
      "hit": false,
      "t": 502857.16800000257,
      "d": 1349.2064166666823,
      "v": 105
    },
    {
      "midi": 71,
      "hit": false,
      "t": 502857.16800000257,
      "d": 1349.2064166666823,
      "v": 105
    },
    {
      "midi": 67,
      "hit": false,
      "t": 502857.16800000257,
      "d": 1349.2064166666823,
      "v": 105
    },
    {
      "midi": 66,
      "hit": false,
      "t": 502857.16800000257,
      "d": 1349.2064166666823,
      "v": 105
    },
    {
      "midi": 71,
      "hit": false,
      "t": 502857.16800000553,
      "d": 873.0159166666563,
      "v": 119
    },
    {
      "midi": 40,
      "hit": false,
      "t": 503333.3585000004,
      "d": 396.8254166666884,
      "v": 109
    },
    {
      "midi": 40,
      "hit": false,
      "t": 503809.5490000004,
      "d": 396.8254166666884,
      "v": 109
    },
    {
      "midi": 74,
      "hit": false,
      "t": 503809.5490000016,
      "d": 436.50795833335724,
      "v": 110
    },
    {
      "midi": 79,
      "hit": false,
      "t": 503809.5490000016,
      "d": 436.50795833335724,
      "v": 105
    },
    {
      "midi": 83,
      "hit": false,
      "t": 503809.5490000016,
      "d": 436.50795833335724,
      "v": 105
    },
    {
      "midi": 40,
      "hit": false,
      "t": 504285.73950000043,
      "d": 396.8254166666884,
      "v": 109
    },
    {
      "midi": 79,
      "hit": false,
      "t": 504285.7395000026,
      "d": 158.73016666667536,
      "v": 105
    },
    {
      "midi": 71,
      "hit": false,
      "t": 504285.7395000055,
      "d": 420.63494166667806,
      "v": 119
    },
    {
      "midi": 78,
      "hit": false,
      "t": 504444.46966666926,
      "d": 158.73016666667536,
      "v": 105
    },
    {
      "midi": 74,
      "hit": false,
      "t": 504603.19983333594,
      "d": 158.73016666667536,
      "v": 105
    },
    {
      "midi": 40,
      "hit": false,
      "t": 504761.93000000046,
      "d": 396.8254166666884,
      "v": 109
    },
    {
      "midi": 74,
      "hit": false,
      "t": 504761.9300000017,
      "d": 436.50795833335724,
      "v": 100
    },
    {
      "midi": 79,
      "hit": false,
      "t": 504761.9300000017,
      "d": 436.50795833335724,
      "v": 95
    },
    {
      "midi": 83,
      "hit": false,
      "t": 504761.9300000017,
      "d": 436.50795833335724,
      "v": 95
    },
    {
      "midi": 71,
      "hit": false,
      "t": 504761.9300000026,
      "d": 1349.2064166666823,
      "v": 105
    },
    {
      "midi": 74,
      "hit": false,
      "t": 504761.9300000055,
      "d": 873.0159166666563,
      "v": 119
    },
    {
      "midi": 40,
      "hit": false,
      "t": 505238.1205000005,
      "d": 396.8254166666884,
      "v": 109
    },
    {
      "midi": 40,
      "hit": false,
      "t": 505714.3110000005,
      "d": 396.8254166666884,
      "v": 109
    },
    {
      "midi": 74,
      "hit": false,
      "t": 505714.31100000173,
      "d": 436.50795833335724,
      "v": 95
    },
    {
      "midi": 79,
      "hit": false,
      "t": 505714.31100000173,
      "d": 436.50795833335724,
      "v": 90
    },
    {
      "midi": 83,
      "hit": false,
      "t": 505714.31100000173,
      "d": 436.50795833335724,
      "v": 90
    },
    {
      "midi": 79,
      "hit": false,
      "t": 505714.3110000055,
      "d": 873.0159166666563,
      "v": 119
    },
    {
      "midi": 40,
      "hit": false,
      "t": 506190.50150000054,
      "d": 396.8254166666884,
      "v": 109
    },
    {
      "midi": 52,
      "hit": false,
      "t": 506190.50150000263,
      "d": 396.8254166666884,
      "v": 105
    },
    {
      "midi": 33,
      "hit": false,
      "t": 506666.69200000056,
      "d": 396.8254166666884,
      "v": 109
    },
    {
      "midi": 76,
      "hit": false,
      "t": 506666.6920000018,
      "d": 436.50795833335724,
      "v": 120
    },
    {
      "midi": 81,
      "hit": false,
      "t": 506666.6920000018,
      "d": 436.50795833335724,
      "v": 115
    },
    {
      "midi": 85,
      "hit": false,
      "t": 506666.6920000018,
      "d": 436.50795833335724,
      "v": 115
    },
    {
      "midi": 57,
      "hit": false,
      "t": 506666.69200000266,
      "d": 1904.761999999988,
      "v": 105
    },
    {
      "midi": 78,
      "hit": false,
      "t": 506666.6920000055,
      "d": 1349.2064166666823,
      "v": 119
    },
    {
      "midi": 59,
      "hit": false,
      "t": 506690.50152500265,
      "d": 1904.761999999988,
      "v": 105
    },
    {
      "midi": 61,
      "hit": false,
      "t": 506714.31105000264,
      "d": 1904.761999999988,
      "v": 105
    },
    {
      "midi": 64,
      "hit": false,
      "t": 506746.057083336,
      "d": 1904.761999999988,
      "v": 105
    },
    {
      "midi": 33,
      "hit": false,
      "t": 507142.8825000006,
      "d": 396.8254166666884,
      "v": 109
    },
    {
      "midi": 33,
      "hit": false,
      "t": 507619.0730000006,
      "d": 396.8254166666884,
      "v": 109
    },
    {
      "midi": 33,
      "hit": false,
      "t": 508095.26350000064,
      "d": 396.8254166666884,
      "v": 109
    },
    {
      "midi": 79,
      "hit": false,
      "t": 508095.26350000553,
      "d": 238.09525000001304,
      "v": 119
    },
    {
      "midi": 78,
      "hit": false,
      "t": 508333.35875000554,
      "d": 238.09525000001304,
      "v": 119
    },
    {
      "midi": 33,
      "hit": false,
      "t": 508571.45400000067,
      "d": 396.8254166666884,
      "v": 109
    },
    {
      "midi": 76,
      "hit": false,
      "t": 508571.45400000556,
      "d": 1349.2064166666823,
      "v": 119
    },
    {
      "midi": 33,
      "hit": false,
      "t": 509047.6445000007,
      "d": 396.8254166666884,
      "v": 109
    },
    {
      "midi": 33,
      "hit": false,
      "t": 509523.8350000007,
      "d": 396.8254166666884,
      "v": 109
    },
    {
      "midi": 33,
      "hit": false,
      "t": 510000.02550000075,
      "d": 396.8254166666884,
      "v": 109
    },
    {
      "midi": 74,
      "hit": false,
      "t": 510000.0255000056,
      "d": 420.63494166667806,
      "v": 119
    },
    {
      "midi": 43,
      "hit": false,
      "t": 510000.0255000094,
      "d": 182.53969166666502,
      "v": 111
    },
    {
      "midi": 50,
      "hit": false,
      "t": 510000.0255000094,
      "d": 182.53969166666502,
      "v": 111
    },
    {
      "midi": 43,
      "hit": false,
      "t": 510238.12075000943,
      "d": 182.53969166666502,
      "v": 111
    },
    {
      "midi": 50,
      "hit": false,
      "t": 510238.12075000943,
      "d": 182.53969166666502,
      "v": 111
    },
    {
      "midi": 2,
      "hit": false,
      "t": 510476.21599997143,
      "d": 7.936508333310485,
      "v": 118
    },
    {
      "midi": 49,
      "hit": false,
      "t": 510476.21599997143,
      "d": 7.936508333310485,
      "v": 115
    },
    {
      "midi": 40,
      "hit": false,
      "t": 510476.21599997143,
      "d": 7.936508333310485,
      "v": 122
    },
    {
      "midi": 54,
      "hit": false,
      "t": 510476.21599997143,
      "d": 7.936508333310485,
      "v": 100
    },
    {
      "midi": 31,
      "hit": false,
      "t": 510476.2159999935,
      "d": 396.8254166666884,
      "v": 123
    },
    {
      "midi": 83,
      "hit": false,
      "t": 510476.2160000014,
      "d": 238.09525000001304,
      "v": 110
    },
    {
      "midi": 95,
      "hit": false,
      "t": 510476.21600000176,
      "d": 238.09525000001304,
      "v": 110
    },
    {
      "midi": 57,
      "hit": false,
      "t": 510476.21600000263,
      "d": 841.2698833333561,
      "v": 118
    },
    {
      "midi": 59,
      "hit": false,
      "t": 510476.21600000263,
      "d": 841.2698833333561,
      "v": 118
    },
    {
      "midi": 62,
      "hit": false,
      "t": 510476.21600000263,
      "d": 841.2698833333561,
      "v": 118
    },
    {
      "midi": 74,
      "hit": false,
      "t": 510476.2160000056,
      "d": 6309.524125000229,
      "v": 119
    },
    {
      "midi": 43,
      "hit": false,
      "t": 510476.2160000063,
      "d": 3253.9684166667284,
      "v": 94
    },
    {
      "midi": 62,
      "hit": false,
      "t": 510476.2160000063,
      "d": 3253.9684166667284,
      "v": 94
    },
    {
      "midi": 55,
      "hit": false,
      "t": 510476.2160000063,
      "d": 3253.9684166667284,
      "v": 94
    },
    {
      "midi": 67,
      "hit": false,
      "t": 510476.2160000063,
      "d": 3253.9684166667284,
      "v": 94
    },
    {
      "midi": 47,
      "hit": false,
      "t": 510476.2160000063,
      "d": 3253.9684166667284,
      "v": 94
    },
    {
      "midi": 50,
      "hit": false,
      "t": 510476.2160000063,
      "d": 3253.9684166667284,
      "v": 94
    },
    {
      "midi": 43,
      "hit": false,
      "t": 510476.21600000944,
      "d": 396.8254166666884,
      "v": 111
    },
    {
      "midi": 50,
      "hit": false,
      "t": 510476.21600000944,
      "d": 396.8254166666884,
      "v": 111
    },
    {
      "midi": 54,
      "hit": false,
      "t": 510714.3112499714,
      "d": 7.936508333310485,
      "v": 60
    },
    {
      "midi": 83,
      "hit": false,
      "t": 510714.3112500014,
      "d": 238.09525000001304,
      "v": 80
    },
    {
      "midi": 95,
      "hit": false,
      "t": 510714.3112500018,
      "d": 238.09525000001304,
      "v": 80
    },
    {
      "midi": 54,
      "hit": false,
      "t": 510952.40649997134,
      "d": 7.936508333310485,
      "v": 60
    },
    {
      "midi": 42,
      "hit": false,
      "t": 510952.40649997134,
      "d": 7.936508333310485,
      "v": 100
    },
    {
      "midi": 31,
      "hit": false,
      "t": 510952.4064999935,
      "d": 396.8254166666884,
      "v": 113
    },
    {
      "midi": 43,
      "hit": false,
      "t": 510952.40650000947,
      "d": 71.4285750000272,
      "v": 111
    },
    {
      "midi": 50,
      "hit": false,
      "t": 510952.40650000947,
      "d": 71.4285750000272,
      "v": 111
    },
    {
      "midi": 54,
      "hit": false,
      "t": 511190.5017499713,
      "d": 7.936508333310485,
      "v": 60
    },
    {
      "midi": 79,
      "hit": false,
      "t": 511190.5017500014,
      "d": 222.22223333333386,
      "v": 100
    },
    {
      "midi": 91,
      "hit": false,
      "t": 511190.5017500018,
      "d": 222.22223333333386,
      "v": 100
    },
    {
      "midi": 54,
      "hit": false,
      "t": 511428.59699997125,
      "d": 7.936508333310485,
      "v": 100
    },
    {
      "midi": 40,
      "hit": false,
      "t": 511428.59699997125,
      "d": 7.936508333310485,
      "v": 122
    },
    {
      "midi": 42,
      "hit": false,
      "t": 511428.59699997125,
      "d": 7.936508333310485,
      "v": 100
    },
    {
      "midi": 31,
      "hit": false,
      "t": 511428.59699999355,
      "d": 396.8254166666884,
      "v": 113
    },
    {
      "midi": 67,
      "hit": false,
      "t": 511428.59699999925,
      "d": 373.0158916666405,
      "v": 110
    },
    {
      "midi": 79,
      "hit": false,
      "t": 511428.59699999925,
      "d": 373.0158916666405,
      "v": 127
    },
    {
      "midi": 91,
      "hit": false,
      "t": 511428.59699999925,
      "d": 373.0158916666405,
      "v": 110
    },
    {
      "midi": 79,
      "hit": false,
      "t": 511428.5970000014,
      "d": 238.09525000001304,
      "v": 80
    },
    {
      "midi": 91,
      "hit": false,
      "t": 511428.5970000018,
      "d": 238.09525000001304,
      "v": 80
    },
    {
      "midi": 55,
      "hit": false,
      "t": 511428.5970000026,
      "d": 396.8254166666884,
      "v": 125
    },
    {
      "midi": 43,
      "hit": false,
      "t": 511428.5970000095,
      "d": 71.4285750000272,
      "v": 111
    },
    {
      "midi": 50,
      "hit": false,
      "t": 511428.5970000095,
      "d": 71.4285750000272,
      "v": 111
    },
    {
      "midi": 54,
      "hit": false,
      "t": 511666.6922499712,
      "d": 7.936508333310485,
      "v": 60
    },
    {
      "midi": 54,
      "hit": false,
      "t": 511904.78749997116,
      "d": 7.936508333310485,
      "v": 60
    },
    {
      "midi": 42,
      "hit": false,
      "t": 511904.78749997116,
      "d": 7.936508333310485,
      "v": 100
    },
    {
      "midi": 31,
      "hit": false,
      "t": 511904.7874999936,
      "d": 396.8254166666884,
      "v": 113
    },
    {
      "midi": 81,
      "hit": false,
      "t": 511904.7874999992,
      "d": 373.0158916666405,
      "v": 127
    },
    {
      "midi": 69,
      "hit": false,
      "t": 511904.7874999992,
      "d": 373.0158916666405,
      "v": 110
    },
    {
      "midi": 93,
      "hit": false,
      "t": 511904.7874999992,
      "d": 373.0158916666405,
      "v": 110
    },
    {
      "midi": 74,
      "hit": false,
      "t": 511904.78750000143,
      "d": 238.09525000001304,
      "v": 100
    },
    {
      "midi": 86,
      "hit": false,
      "t": 511904.78750000184,
      "d": 238.09525000001304,
      "v": 100
    },
    {
      "midi": 57,
      "hit": false,
      "t": 511904.78750000265,
      "d": 873.0159166666563,
      "v": 125
    },
    {
      "midi": 43,
      "hit": false,
      "t": 511904.7875000095,
      "d": 71.4285750000272,
      "v": 111
    },
    {
      "midi": 50,
      "hit": false,
      "t": 511904.7875000095,
      "d": 71.4285750000272,
      "v": 111
    },
    {
      "midi": 54,
      "hit": false,
      "t": 512142.8827499711,
      "d": 7.936508333310485,
      "v": 60
    },
    {
      "midi": 74,
      "hit": false,
      "t": 512142.88275000144,
      "d": 238.09525000001304,
      "v": 80
    },
    {
      "midi": 86,
      "hit": false,
      "t": 512142.88275000185,
      "d": 238.09525000001304,
      "v": 80
    },
    {
      "midi": 54,
      "hit": false,
      "t": 512380.9779999711,
      "d": 7.936508333310485,
      "v": 100
    },
    {
      "midi": 40,
      "hit": false,
      "t": 512380.9779999711,
      "d": 7.936508333310485,
      "v": 122
    },
    {
      "midi": 42,
      "hit": false,
      "t": 512380.9779999711,
      "d": 7.936508333310485,
      "v": 100
    },
    {
      "midi": 31,
      "hit": false,
      "t": 512380.9779999936,
      "d": 396.8254166666884,
      "v": 123
    },
    {
      "midi": 83,
      "hit": false,
      "t": 512380.9779999992,
      "d": 373.0158916666405,
      "v": 127
    },
    {
      "midi": 71,
      "hit": false,
      "t": 512380.9779999992,
      "d": 373.0158916666405,
      "v": 110
    },
    {
      "midi": 95,
      "hit": false,
      "t": 512380.9779999992,
      "d": 373.0158916666405,
      "v": 110
    },
    {
      "midi": 83,
      "hit": false,
      "t": 512380.97800000146,
      "d": 238.09525000001304,
      "v": 110
    },
    {
      "midi": 95,
      "hit": false,
      "t": 512380.97800000187,
      "d": 238.09525000001304,
      "v": 110
    },
    {
      "midi": 43,
      "hit": false,
      "t": 512380.97800000955,
      "d": 71.4285750000272,
      "v": 111
    },
    {
      "midi": 50,
      "hit": false,
      "t": 512380.97800000955,
      "d": 71.4285750000272,
      "v": 111
    },
    {
      "midi": 54,
      "hit": false,
      "t": 512619.073249971,
      "d": 7.936508333310485,
      "v": 60
    },
    {
      "midi": 83,
      "hit": false,
      "t": 512619.0732500015,
      "d": 238.09524999995483,
      "v": 80
    },
    {
      "midi": 95,
      "hit": false,
      "t": 512619.0732500019,
      "d": 238.09525000001304,
      "v": 80
    },
    {
      "midi": 2,
      "hit": false,
      "t": 512857.168499971,
      "d": 7.936508333310485,
      "v": 117
    },
    {
      "midi": 42,
      "hit": false,
      "t": 512857.168499971,
      "d": 7.936508333310485,
      "v": 100
    },
    {
      "midi": 54,
      "hit": false,
      "t": 512857.168499971,
      "d": 7.936508333310485,
      "v": 60
    },
    {
      "midi": 31,
      "hit": false,
      "t": 512857.1684999936,
      "d": 396.8254166666884,
      "v": 113
    },
    {
      "midi": 81,
      "hit": false,
      "t": 512857.16849999916,
      "d": 373.0158916666405,
      "v": 127
    },
    {
      "midi": 69,
      "hit": false,
      "t": 512857.16849999916,
      "d": 373.0158916666405,
      "v": 110
    },
    {
      "midi": 93,
      "hit": false,
      "t": 512857.16849999916,
      "d": 373.0158916666405,
      "v": 110
    },
    {
      "midi": 59,
      "hit": false,
      "t": 512857.16850000265,
      "d": 1349.2064166666823,
      "v": 125
    },
    {
      "midi": 43,
      "hit": false,
      "t": 512857.1685000096,
      "d": 71.4285750000272,
      "v": 111
    },
    {
      "midi": 50,
      "hit": false,
      "t": 512857.1685000096,
      "d": 71.4285750000272,
      "v": 111
    },
    {
      "midi": 54,
      "hit": false,
      "t": 513095.26374997094,
      "d": 7.936508333310485,
      "v": 60
    },
    {
      "midi": 79,
      "hit": false,
      "t": 513095.26375000144,
      "d": 222.22223333333386,
      "v": 100
    },
    {
      "midi": 91,
      "hit": false,
      "t": 513095.2637500019,
      "d": 222.22223333333386,
      "v": 100
    },
    {
      "midi": 54,
      "hit": false,
      "t": 513333.3589999709,
      "d": 7.936508333310485,
      "v": 100
    },
    {
      "midi": 40,
      "hit": false,
      "t": 513333.3589999709,
      "d": 7.936508333310485,
      "v": 122
    },
    {
      "midi": 42,
      "hit": false,
      "t": 513333.3589999709,
      "d": 7.936508333310485,
      "v": 100
    },
    {
      "midi": 31,
      "hit": false,
      "t": 513333.35899999365,
      "d": 396.8254166666884,
      "v": 113
    },
    {
      "midi": 79,
      "hit": false,
      "t": 513333.3589999991,
      "d": 373.0158916666405,
      "v": 127
    },
    {
      "midi": 67,
      "hit": false,
      "t": 513333.3589999991,
      "d": 373.0158916666405,
      "v": 110
    },
    {
      "midi": 91,
      "hit": false,
      "t": 513333.3589999991,
      "d": 373.0158916666405,
      "v": 110
    },
    {
      "midi": 79,
      "hit": false,
      "t": 513333.35900000145,
      "d": 238.09525000001304,
      "v": 80
    },
    {
      "midi": 91,
      "hit": false,
      "t": 513333.3590000019,
      "d": 238.09525000001304,
      "v": 80
    },
    {
      "midi": 43,
      "hit": false,
      "t": 513333.3590000096,
      "d": 71.4285750000272,
      "v": 111
    },
    {
      "midi": 50,
      "hit": false,
      "t": 513333.3590000096,
      "d": 71.4285750000272,
      "v": 111
    },
    {
      "midi": 54,
      "hit": false,
      "t": 513571.45424997085,
      "d": 7.936508333310485,
      "v": 60
    },
    {
      "midi": 2,
      "hit": false,
      "t": 513809.5494999708,
      "d": 7.936508333310485,
      "v": 117
    },
    {
      "midi": 42,
      "hit": false,
      "t": 513809.5494999708,
      "d": 7.936508333310485,
      "v": 100
    },
    {
      "midi": 54,
      "hit": false,
      "t": 513809.5494999708,
      "d": 7.936508333310485,
      "v": 60
    },
    {
      "midi": 31,
      "hit": false,
      "t": 513809.5494999937,
      "d": 396.8254166666884,
      "v": 113
    },
    {
      "midi": 81,
      "hit": false,
      "t": 513809.5494999991,
      "d": 373.0158916666405,
      "v": 127
    },
    {
      "midi": 69,
      "hit": false,
      "t": 513809.5494999991,
      "d": 373.0158916666405,
      "v": 110
    },
    {
      "midi": 93,
      "hit": false,
      "t": 513809.5494999991,
      "d": 373.0158916666405,
      "v": 110
    },
    {
      "midi": 74,
      "hit": false,
      "t": 513809.5495000015,
      "d": 238.09525000001304,
      "v": 100
    },
    {
      "midi": 86,
      "hit": false,
      "t": 513809.54950000194,
      "d": 238.09525000001304,
      "v": 100
    },
    {
      "midi": 43,
      "hit": false,
      "t": 513809.54950000637,
      "d": 198.4127083333442,
      "v": 100
    },
    {
      "midi": 62,
      "hit": false,
      "t": 513809.54950000637,
      "d": 198.4127083333442,
      "v": 100
    },
    {
      "midi": 55,
      "hit": false,
      "t": 513809.54950000637,
      "d": 198.4127083333442,
      "v": 100
    },
    {
      "midi": 67,
      "hit": false,
      "t": 513809.54950000637,
      "d": 198.4127083333442,
      "v": 100
    },
    {
      "midi": 47,
      "hit": false,
      "t": 513809.54950000637,
      "d": 198.4127083333442,
      "v": 100
    },
    {
      "midi": 50,
      "hit": false,
      "t": 513809.54950000637,
      "d": 198.4127083333442,
      "v": 100
    },
    {
      "midi": 43,
      "hit": false,
      "t": 513809.5495000096,
      "d": 71.4285750000272,
      "v": 111
    },
    {
      "midi": 50,
      "hit": false,
      "t": 513809.5495000096,
      "d": 71.4285750000272,
      "v": 111
    },
    {
      "midi": 54,
      "hit": false,
      "t": 514047.64474997076,
      "d": 7.936508333310485,
      "v": 60
    },
    {
      "midi": 74,
      "hit": false,
      "t": 514047.6447500015,
      "d": 238.09525000001304,
      "v": 80
    },
    {
      "midi": 86,
      "hit": false,
      "t": 514047.64475000196,
      "d": 238.09525000001304,
      "v": 80
    },
    {
      "midi": 43,
      "hit": false,
      "t": 514047.6447500064,
      "d": 198.4127083333442,
      "v": 100
    },
    {
      "midi": 62,
      "hit": false,
      "t": 514047.6447500064,
      "d": 198.4127083333442,
      "v": 100
    },
    {
      "midi": 55,
      "hit": false,
      "t": 514047.6447500064,
      "d": 198.4127083333442,
      "v": 100
    },
    {
      "midi": 67,
      "hit": false,
      "t": 514047.6447500064,
      "d": 198.4127083333442,
      "v": 100
    },
    {
      "midi": 47,
      "hit": false,
      "t": 514047.6447500064,
      "d": 198.4127083333442,
      "v": 100
    },
    {
      "midi": 50,
      "hit": false,
      "t": 514047.6447500064,
      "d": 198.4127083333442,
      "v": 100
    },
    {
      "midi": 2,
      "hit": false,
      "t": 514285.7399999707,
      "d": 7.936508333310485,
      "v": 118
    },
    {
      "midi": 42,
      "hit": false,
      "t": 514285.7399999707,
      "d": 7.936508333310485,
      "v": 115
    },
    {
      "midi": 40,
      "hit": false,
      "t": 514285.7399999707,
      "d": 7.936508333310485,
      "v": 122
    },
    {
      "midi": 54,
      "hit": false,
      "t": 514285.7399999707,
      "d": 7.936508333310485,
      "v": 100
    },
    {
      "midi": 31,
      "hit": false,
      "t": 514285.7399999937,
      "d": 396.8254166666884,
      "v": 123
    },
    {
      "midi": 83,
      "hit": false,
      "t": 514285.73999999906,
      "d": 373.0158916666405,
      "v": 127
    },
    {
      "midi": 71,
      "hit": false,
      "t": 514285.73999999906,
      "d": 373.0158916666405,
      "v": 110
    },
    {
      "midi": 95,
      "hit": false,
      "t": 514285.73999999906,
      "d": 373.0158916666405,
      "v": 110
    },
    {
      "midi": 85,
      "hit": false,
      "t": 514285.7400000015,
      "d": 238.09525000001304,
      "v": 110
    },
    {
      "midi": 97,
      "hit": false,
      "t": 514285.74000000197,
      "d": 238.09524999995483,
      "v": 110
    },
    {
      "midi": 57,
      "hit": false,
      "t": 514285.74000000267,
      "d": 396.8254166666884,
      "v": 118
    },
    {
      "midi": 61,
      "hit": false,
      "t": 514285.74000000267,
      "d": 396.8254166666884,
      "v": 118
    },
    {
      "midi": 64,
      "hit": false,
      "t": 514285.74000000267,
      "d": 396.8254166666884,
      "v": 118
    },
    {
      "midi": 43,
      "hit": false,
      "t": 514285.7400000064,
      "d": 3253.9684166667284,
      "v": 94
    },
    {
      "midi": 62,
      "hit": false,
      "t": 514285.7400000064,
      "d": 3253.9684166667284,
      "v": 94
    },
    {
      "midi": 55,
      "hit": false,
      "t": 514285.7400000064,
      "d": 3253.9684166667284,
      "v": 94
    },
    {
      "midi": 67,
      "hit": false,
      "t": 514285.7400000064,
      "d": 3253.9684166667284,
      "v": 94
    },
    {
      "midi": 47,
      "hit": false,
      "t": 514285.7400000064,
      "d": 3253.9684166667284,
      "v": 94
    },
    {
      "midi": 50,
      "hit": false,
      "t": 514285.7400000064,
      "d": 3253.9684166667284,
      "v": 94
    },
    {
      "midi": 43,
      "hit": false,
      "t": 514285.74000000965,
      "d": 71.4285750000272,
      "v": 111
    },
    {
      "midi": 50,
      "hit": false,
      "t": 514285.74000000965,
      "d": 71.4285750000272,
      "v": 111
    },
    {
      "midi": 54,
      "hit": false,
      "t": 514523.83524997067,
      "d": 7.936508333310485,
      "v": 60
    },
    {
      "midi": 85,
      "hit": false,
      "t": 514523.8352500015,
      "d": 238.09525000001304,
      "v": 80
    },
    {
      "midi": 97,
      "hit": false,
      "t": 514523.8352500019,
      "d": 238.09525000001304,
      "v": 80
    },
    {
      "midi": 54,
      "hit": false,
      "t": 514761.9304999706,
      "d": 7.936508333310485,
      "v": 60
    },
    {
      "midi": 42,
      "hit": false,
      "t": 514761.9304999706,
      "d": 7.936508333310485,
      "v": 100
    },
    {
      "midi": 31,
      "hit": false,
      "t": 514761.93049999373,
      "d": 396.8254166666884,
      "v": 113
    },
    {
      "midi": 79,
      "hit": false,
      "t": 514761.930499999,
      "d": 373.0158916666405,
      "v": 127
    },
    {
      "midi": 67,
      "hit": false,
      "t": 514761.930499999,
      "d": 373.0158916666405,
      "v": 110
    },
    {
      "midi": 91,
      "hit": false,
      "t": 514761.930499999,
      "d": 373.0158916666405,
      "v": 110
    },
    {
      "midi": 52,
      "hit": false,
      "t": 514761.9305000027,
      "d": 396.8254166666884,
      "v": 125
    },
    {
      "midi": 43,
      "hit": false,
      "t": 514761.9305000097,
      "d": 71.4285750000272,
      "v": 111
    },
    {
      "midi": 50,
      "hit": false,
      "t": 514761.9305000097,
      "d": 71.4285750000272,
      "v": 111
    },
    {
      "midi": 54,
      "hit": false,
      "t": 515000.0257499706,
      "d": 7.936508333310485,
      "v": 60
    },
    {
      "midi": 81,
      "hit": false,
      "t": 515000.0257500015,
      "d": 222.22223333333386,
      "v": 100
    },
    {
      "midi": 93,
      "hit": false,
      "t": 515000.02575000195,
      "d": 222.22223333333386,
      "v": 100
    },
    {
      "midi": 54,
      "hit": false,
      "t": 515238.12099997053,
      "d": 7.936508333310485,
      "v": 100
    },
    {
      "midi": 40,
      "hit": false,
      "t": 515238.12099997053,
      "d": 7.936508333310485,
      "v": 122
    },
    {
      "midi": 42,
      "hit": false,
      "t": 515238.12099997053,
      "d": 7.936508333310485,
      "v": 100
    },
    {
      "midi": 31,
      "hit": false,
      "t": 515238.12099999376,
      "d": 396.8254166666884,
      "v": 113
    },
    {
      "midi": 81,
      "hit": false,
      "t": 515238.120999999,
      "d": 373.0158916666405,
      "v": 127
    },
    {
      "midi": 69,
      "hit": false,
      "t": 515238.120999999,
      "d": 373.0158916666405,
      "v": 110
    },
    {
      "midi": 93,
      "hit": false,
      "t": 515238.120999999,
      "d": 373.0158916666405,
      "v": 110
    },
    {
      "midi": 81,
      "hit": false,
      "t": 515238.1210000015,
      "d": 238.09525000001304,
      "v": 80
    },
    {
      "midi": 93,
      "hit": false,
      "t": 515238.12100000196,
      "d": 238.09525000001304,
      "v": 80
    },
    {
      "midi": 57,
      "hit": false,
      "t": 515238.1210000027,
      "d": 396.8254166666884,
      "v": 125
    },
    {
      "midi": 43,
      "hit": false,
      "t": 515238.1210000097,
      "d": 71.4285750000272,
      "v": 111
    },
    {
      "midi": 50,
      "hit": false,
      "t": 515238.1210000097,
      "d": 71.4285750000272,
      "v": 111
    },
    {
      "midi": 54,
      "hit": false,
      "t": 515476.2162499705,
      "d": 7.936508333310485,
      "v": 60
    },
    {
      "midi": 54,
      "hit": false,
      "t": 515714.31149997044,
      "d": 7.936508333310485,
      "v": 60
    },
    {
      "midi": 42,
      "hit": false,
      "t": 515714.31149997044,
      "d": 7.936508333310485,
      "v": 100
    },
    {
      "midi": 31,
      "hit": false,
      "t": 515714.3114999938,
      "d": 396.8254166666884,
      "v": 113
    },
    {
      "midi": 83,
      "hit": false,
      "t": 515714.31149999896,
      "d": 373.0158916666405,
      "v": 127
    },
    {
      "midi": 71,
      "hit": false,
      "t": 515714.31149999896,
      "d": 373.0158916666405,
      "v": 110
    },
    {
      "midi": 95,
      "hit": false,
      "t": 515714.31149999896,
      "d": 373.0158916666405,
      "v": 110
    },
    {
      "midi": 76,
      "hit": false,
      "t": 515714.3115000015,
      "d": 238.09525000001304,
      "v": 100
    },
    {
      "midi": 88,
      "hit": false,
      "t": 515714.311500002,
      "d": 238.09525000001304,
      "v": 100
    },
    {
      "midi": 61,
      "hit": false,
      "t": 515714.31150000275,
      "d": 396.8254166666884,
      "v": 125
    },
    {
      "midi": 43,
      "hit": false,
      "t": 515714.31150000973,
      "d": 71.4285750000272,
      "v": 111
    },
    {
      "midi": 50,
      "hit": false,
      "t": 515714.31150000973,
      "d": 71.4285750000272,
      "v": 111
    },
    {
      "midi": 54,
      "hit": false,
      "t": 515952.4067499704,
      "d": 7.936508333310485,
      "v": 60
    },
    {
      "midi": 76,
      "hit": false,
      "t": 515952.40675000154,
      "d": 238.09525000001304,
      "v": 80
    },
    {
      "midi": 88,
      "hit": false,
      "t": 515952.406750002,
      "d": 238.09525000001304,
      "v": 80
    },
    {
      "midi": 54,
      "hit": false,
      "t": 516190.50199997035,
      "d": 7.936508333310485,
      "v": 100
    },
    {
      "midi": 40,
      "hit": false,
      "t": 516190.50199997035,
      "d": 7.936508333310485,
      "v": 122
    },
    {
      "midi": 42,
      "hit": false,
      "t": 516190.50199997035,
      "d": 7.936508333310485,
      "v": 100
    },
    {
      "midi": 31,
      "hit": false,
      "t": 516190.5019999938,
      "d": 396.8254166666884,
      "v": 113
    },
    {
      "midi": 85,
      "hit": false,
      "t": 516190.50199999893,
      "d": 1880.9524749999982,
      "v": 127
    },
    {
      "midi": 73,
      "hit": false,
      "t": 516190.50199999893,
      "d": 1880.9524749999982,
      "v": 110
    },
    {
      "midi": 97,
      "hit": false,
      "t": 516190.50199999893,
      "d": 1880.9524749999982,
      "v": 110
    },
    {
      "midi": 85,
      "hit": false,
      "t": 516190.50200000155,
      "d": 238.09525000001304,
      "v": 110
    },
    {
      "midi": 97,
      "hit": false,
      "t": 516190.502000002,
      "d": 238.09525000001304,
      "v": 110
    },
    {
      "midi": 64,
      "hit": false,
      "t": 516190.5020000028,
      "d": 396.8254166666884,
      "v": 125
    },
    {
      "midi": 43,
      "hit": false,
      "t": 516190.50200000976,
      "d": 71.4285750000272,
      "v": 111
    },
    {
      "midi": 50,
      "hit": false,
      "t": 516190.50200000976,
      "d": 71.4285750000272,
      "v": 111
    },
    {
      "midi": 54,
      "hit": false,
      "t": 516428.5972499703,
      "d": 7.936508333310485,
      "v": 60
    },
    {
      "midi": 85,
      "hit": false,
      "t": 516428.59725000156,
      "d": 238.09525000001304,
      "v": 80
    },
    {
      "midi": 97,
      "hit": false,
      "t": 516428.597250002,
      "d": 238.09525000001304,
      "v": 80
    },
    {
      "midi": 2,
      "hit": false,
      "t": 516666.69249997026,
      "d": 7.936508333310485,
      "v": 117
    },
    {
      "midi": 42,
      "hit": false,
      "t": 516666.69249997026,
      "d": 7.936508333310485,
      "v": 100
    },
    {
      "midi": 54,
      "hit": false,
      "t": 516666.69249997026,
      "d": 7.936508333310485,
      "v": 60
    },
    {
      "midi": 43,
      "hit": false,
      "t": 516666.69249999383,
      "d": 396.8254166666884,
      "v": 113
    },
    {
      "midi": 69,
      "hit": false,
      "t": 516666.6925000028,
      "d": 396.8254166666884,
      "v": 125
    },
    {
      "midi": 76,
      "hit": false,
      "t": 516666.6925000028,
      "d": 396.8254166666884,
      "v": 125
    },
    {
      "midi": 43,
      "hit": false,
      "t": 516666.6925000098,
      "d": 71.4285750000272,
      "v": 111
    },
    {
      "midi": 50,
      "hit": false,
      "t": 516666.6925000098,
      "d": 71.4285750000272,
      "v": 111
    },
    {
      "midi": 54,
      "hit": false,
      "t": 516904.7877499702,
      "d": 7.936508333310485,
      "v": 60
    },
    {
      "midi": 81,
      "hit": false,
      "t": 516904.7877500016,
      "d": 222.22223333333386,
      "v": 100
    },
    {
      "midi": 93,
      "hit": false,
      "t": 516904.78775000205,
      "d": 222.22223333333386,
      "v": 100
    },
    {
      "midi": 54,
      "hit": false,
      "t": 517142.88299997017,
      "d": 7.936508333310485,
      "v": 100
    },
    {
      "midi": 40,
      "hit": false,
      "t": 517142.88299997017,
      "d": 7.936508333310485,
      "v": 122
    },
    {
      "midi": 42,
      "hit": false,
      "t": 517142.88299997017,
      "d": 7.936508333310485,
      "v": 100
    },
    {
      "midi": 43,
      "hit": false,
      "t": 517142.88299999386,
      "d": 396.8254166666884,
      "v": 113
    },
    {
      "midi": 81,
      "hit": false,
      "t": 517142.8830000016,
      "d": 238.09525000001304,
      "v": 80
    },
    {
      "midi": 93,
      "hit": false,
      "t": 517142.88300000207,
      "d": 238.09525000001304,
      "v": 80
    },
    {
      "midi": 64,
      "hit": false,
      "t": 517142.8830000028,
      "d": 873.0159166666563,
      "v": 125
    },
    {
      "midi": 43,
      "hit": false,
      "t": 517142.8830000098,
      "d": 71.4285750000272,
      "v": 111
    },
    {
      "midi": 50,
      "hit": false,
      "t": 517142.8830000098,
      "d": 71.4285750000272,
      "v": 111
    },
    {
      "midi": 54,
      "hit": false,
      "t": 517380.9782499701,
      "d": 7.936508333310485,
      "v": 60
    },
    {
      "midi": 2,
      "hit": false,
      "t": 517619.0734999701,
      "d": 7.936508333310485,
      "v": 117
    },
    {
      "midi": 42,
      "hit": false,
      "t": 517619.0734999701,
      "d": 7.936508333310485,
      "v": 100
    },
    {
      "midi": 54,
      "hit": false,
      "t": 517619.0734999701,
      "d": 7.936508333310485,
      "v": 60
    },
    {
      "midi": 43,
      "hit": false,
      "t": 517619.0734999939,
      "d": 396.8254166666884,
      "v": 113
    },
    {
      "midi": 76,
      "hit": false,
      "t": 517619.0735000016,
      "d": 238.09525000001304,
      "v": 100
    },
    {
      "midi": 88,
      "hit": false,
      "t": 517619.07350000204,
      "d": 238.09525000001304,
      "v": 100
    },
    {
      "midi": 43,
      "hit": false,
      "t": 517619.07350000646,
      "d": 198.4127083333442,
      "v": 100
    },
    {
      "midi": 62,
      "hit": false,
      "t": 517619.07350000646,
      "d": 198.4127083333442,
      "v": 100
    },
    {
      "midi": 55,
      "hit": false,
      "t": 517619.07350000646,
      "d": 198.4127083333442,
      "v": 100
    },
    {
      "midi": 67,
      "hit": false,
      "t": 517619.07350000646,
      "d": 198.4127083333442,
      "v": 100
    },
    {
      "midi": 47,
      "hit": false,
      "t": 517619.07350000646,
      "d": 198.4127083333442,
      "v": 100
    },
    {
      "midi": 50,
      "hit": false,
      "t": 517619.07350000646,
      "d": 198.4127083333442,
      "v": 100
    },
    {
      "midi": 43,
      "hit": false,
      "t": 517619.07350000984,
      "d": 71.4285750000272,
      "v": 111
    },
    {
      "midi": 50,
      "hit": false,
      "t": 517619.07350000984,
      "d": 71.4285750000272,
      "v": 111
    },
    {
      "midi": 54,
      "hit": false,
      "t": 517857.16874997003,
      "d": 7.936508333310485,
      "v": 60
    },
    {
      "midi": 76,
      "hit": false,
      "t": 517857.16875000164,
      "d": 238.09525000001304,
      "v": 80
    },
    {
      "midi": 88,
      "hit": false,
      "t": 517857.16875000205,
      "d": 238.09525000001304,
      "v": 80
    },
    {
      "midi": 43,
      "hit": false,
      "t": 517857.1687500065,
      "d": 198.4127083333442,
      "v": 100
    },
    {
      "midi": 62,
      "hit": false,
      "t": 517857.1687500065,
      "d": 198.4127083333442,
      "v": 100
    },
    {
      "midi": 55,
      "hit": false,
      "t": 517857.1687500065,
      "d": 198.4127083333442,
      "v": 100
    },
    {
      "midi": 67,
      "hit": false,
      "t": 517857.1687500065,
      "d": 198.4127083333442,
      "v": 100
    },
    {
      "midi": 47,
      "hit": false,
      "t": 517857.1687500065,
      "d": 198.4127083333442,
      "v": 100
    },
    {
      "midi": 50,
      "hit": false,
      "t": 517857.1687500065,
      "d": 198.4127083333442,
      "v": 100
    },
    {
      "midi": 2,
      "hit": false,
      "t": 518095.26399997,
      "d": 7.936508333310485,
      "v": 118
    },
    {
      "midi": 42,
      "hit": false,
      "t": 518095.26399997,
      "d": 7.936508333310485,
      "v": 115
    },
    {
      "midi": 40,
      "hit": false,
      "t": 518095.26399997,
      "d": 7.936508333310485,
      "v": 122
    },
    {
      "midi": 54,
      "hit": false,
      "t": 518095.26399997,
      "d": 7.936508333310485,
      "v": 100
    },
    {
      "midi": 31,
      "hit": false,
      "t": 518095.2639999939,
      "d": 396.8254166666884,
      "v": 123
    },
    {
      "midi": 86,
      "hit": false,
      "t": 518095.26400000165,
      "d": 238.09525000001304,
      "v": 110
    },
    {
      "midi": 98,
      "hit": false,
      "t": 518095.26400000206,
      "d": 238.09524999995483,
      "v": 110
    },
    {
      "midi": 57,
      "hit": false,
      "t": 518095.2640000028,
      "d": 396.8254166666884,
      "v": 118
    },
    {
      "midi": 67,
      "hit": false,
      "t": 518095.2640000028,
      "d": 396.8254166666884,
      "v": 118
    },
    {
      "midi": 62,
      "hit": false,
      "t": 518095.2640000028,
      "d": 396.8254166666884,
      "v": 118
    },
    {
      "midi": 59,
      "hit": false,
      "t": 518095.2640000028,
      "d": 396.8254166666884,
      "v": 118
    },
    {
      "midi": 43,
      "hit": false,
      "t": 518095.2640000065,
      "d": 3253.9684166666702,
      "v": 94
    },
    {
      "midi": 62,
      "hit": false,
      "t": 518095.2640000065,
      "d": 3253.9684166666702,
      "v": 94
    },
    {
      "midi": 55,
      "hit": false,
      "t": 518095.2640000065,
      "d": 3253.9684166666702,
      "v": 94
    },
    {
      "midi": 67,
      "hit": false,
      "t": 518095.2640000065,
      "d": 3253.9684166666702,
      "v": 94
    },
    {
      "midi": 47,
      "hit": false,
      "t": 518095.2640000065,
      "d": 3253.9684166666702,
      "v": 94
    },
    {
      "midi": 50,
      "hit": false,
      "t": 518095.2640000065,
      "d": 3253.9684166666702,
      "v": 94
    },
    {
      "midi": 43,
      "hit": false,
      "t": 518095.26400000986,
      "d": 396.8254166666884,
      "v": 111
    },
    {
      "midi": 50,
      "hit": false,
      "t": 518095.26400000986,
      "d": 396.8254166666884,
      "v": 111
    },
    {
      "midi": 54,
      "hit": false,
      "t": 518333.35924996994,
      "d": 7.936508333310485,
      "v": 60
    },
    {
      "midi": 86,
      "hit": false,
      "t": 518333.35925000167,
      "d": 238.09525000001304,
      "v": 80
    },
    {
      "midi": 98,
      "hit": false,
      "t": 518333.359250002,
      "d": 238.09525000001304,
      "v": 80
    },
    {
      "midi": 54,
      "hit": false,
      "t": 518571.4544999699,
      "d": 7.936508333310485,
      "v": 60
    },
    {
      "midi": 42,
      "hit": false,
      "t": 518571.4544999699,
      "d": 7.936508333310485,
      "v": 100
    },
    {
      "midi": 31,
      "hit": false,
      "t": 518571.45449999394,
      "d": 396.8254166666884,
      "v": 113
    },
    {
      "midi": 50,
      "hit": false,
      "t": 518571.45450000284,
      "d": 396.8254166666884,
      "v": 125
    },
    {
      "midi": 43,
      "hit": false,
      "t": 518571.4545000099,
      "d": 71.4285750000272,
      "v": 111
    },
    {
      "midi": 50,
      "hit": false,
      "t": 518571.4545000099,
      "d": 71.4285750000272,
      "v": 111
    },
    {
      "midi": 54,
      "hit": false,
      "t": 518809.54974996985,
      "d": 7.936508333310485,
      "v": 60
    },
    {
      "midi": 83,
      "hit": false,
      "t": 518809.5497500017,
      "d": 222.22223333333386,
      "v": 100
    },
    {
      "midi": 95,
      "hit": false,
      "t": 518809.54975000204,
      "d": 222.22223333333386,
      "v": 100
    },
    {
      "midi": 54,
      "hit": false,
      "t": 519047.6449999698,
      "d": 7.936508333310485,
      "v": 100
    },
    {
      "midi": 40,
      "hit": false,
      "t": 519047.6449999698,
      "d": 7.936508333310485,
      "v": 122
    },
    {
      "midi": 42,
      "hit": false,
      "t": 519047.6449999698,
      "d": 7.936508333310485,
      "v": 100
    },
    {
      "midi": 31,
      "hit": false,
      "t": 519047.64499999397,
      "d": 396.8254166666884,
      "v": 113
    },
    {
      "midi": 95,
      "hit": false,
      "t": 519047.6449999989,
      "d": 373.0158916666405,
      "v": 110
    },
    {
      "midi": 71,
      "hit": false,
      "t": 519047.6449999989,
      "d": 373.0158916666405,
      "v": 110
    },
    {
      "midi": 83,
      "hit": false,
      "t": 519047.6449999989,
      "d": 373.0158916666405,
      "v": 127
    },
    {
      "midi": 83,
      "hit": false,
      "t": 519047.6450000017,
      "d": 238.09525000001304,
      "v": 80
    },
    {
      "midi": 95,
      "hit": false,
      "t": 519047.64500000206,
      "d": 238.09525000001304,
      "v": 80
    },
    {
      "midi": 55,
      "hit": false,
      "t": 519047.64500000287,
      "d": 396.8254166666884,
      "v": 125
    },
    {
      "midi": 50,
      "hit": false,
      "t": 519047.6450000099,
      "d": 71.4285750000272,
      "v": 111
    },
    {
      "midi": 43,
      "hit": false,
      "t": 519047.6450000099,
      "d": 71.4285750000272,
      "v": 111
    },
    {
      "midi": 54,
      "hit": false,
      "t": 519285.74024996976,
      "d": 7.936508333310485,
      "v": 60
    },
    {
      "midi": 54,
      "hit": false,
      "t": 519523.8354999697,
      "d": 7.936508333310485,
      "v": 60
    },
    {
      "midi": 42,
      "hit": false,
      "t": 519523.8354999697,
      "d": 7.936508333310485,
      "v": 100
    },
    {
      "midi": 31,
      "hit": false,
      "t": 519523.835499994,
      "d": 396.8254166666884,
      "v": 113
    },
    {
      "midi": 97,
      "hit": false,
      "t": 519523.8354999989,
      "d": 373.0158916666405,
      "v": 110
    },
    {
      "midi": 73,
      "hit": false,
      "t": 519523.8354999989,
      "d": 373.0158916666405,
      "v": 110
    },
    {
      "midi": 85,
      "hit": false,
      "t": 519523.8354999989,
      "d": 373.0158916666405,
      "v": 127
    },
    {
      "midi": 79,
      "hit": false,
      "t": 519523.83550000173,
      "d": 238.09524999995483,
      "v": 100
    },
    {
      "midi": 91,
      "hit": false,
      "t": 519523.8355000021,
      "d": 238.09525000001304,
      "v": 100
    },
    {
      "midi": 57,
      "hit": false,
      "t": 519523.8355000029,
      "d": 396.8254166666884,
      "v": 125
    },
    {
      "midi": 43,
      "hit": false,
      "t": 519523.83550000994,
      "d": 71.4285750000272,
      "v": 111
    },
    {
      "midi": 50,
      "hit": false,
      "t": 519523.83550000994,
      "d": 71.4285750000272,
      "v": 111
    },
    {
      "midi": 54,
      "hit": false,
      "t": 519761.9307499697,
      "d": 7.936508333310485,
      "v": 60
    },
    {
      "midi": 79,
      "hit": false,
      "t": 519761.9307500017,
      "d": 238.09525000001304,
      "v": 80
    },
    {
      "midi": 91,
      "hit": false,
      "t": 519761.9307500021,
      "d": 238.09525000001304,
      "v": 80
    },
    {
      "midi": 54,
      "hit": false,
      "t": 520000.0259999696,
      "d": 7.936508333310485,
      "v": 100
    },
    {
      "midi": 40,
      "hit": false,
      "t": 520000.0259999696,
      "d": 7.936508333310485,
      "v": 122
    },
    {
      "midi": 42,
      "hit": false,
      "t": 520000.0259999696,
      "d": 7.936508333310485,
      "v": 100
    },
    {
      "midi": 31,
      "hit": false,
      "t": 520000.025999994,
      "d": 396.8254166666884,
      "v": 113
    },
    {
      "midi": 74,
      "hit": false,
      "t": 520000.02599999885,
      "d": 373.0158916666405,
      "v": 110
    },
    {
      "midi": 98,
      "hit": false,
      "t": 520000.02599999885,
      "d": 373.0158916666405,
      "v": 110
    },
    {
      "midi": 86,
      "hit": false,
      "t": 520000.02599999885,
      "d": 373.0158916666405,
      "v": 127
    },
    {
      "midi": 86,
      "hit": false,
      "t": 520000.0260000017,
      "d": 238.09525000001304,
      "v": 110
    },
    {
      "midi": 98,
      "hit": false,
      "t": 520000.0260000021,
      "d": 238.09525000001304,
      "v": 110
    },
    {
      "midi": 59,
      "hit": false,
      "t": 520000.0260000029,
      "d": 396.8254166666884,
      "v": 125
    },
    {
      "midi": 43,
      "hit": false,
      "t": 520000.02600000997,
      "d": 396.8254166666884,
      "v": 111
    },
    {
      "midi": 50,
      "hit": false,
      "t": 520000.02600000997,
      "d": 396.8254166666884,
      "v": 111
    },
    {
      "midi": 54,
      "hit": false,
      "t": 520238.1212499696,
      "d": 7.936508333310485,
      "v": 60
    },
    {
      "midi": 86,
      "hit": false,
      "t": 520238.1212500017,
      "d": 238.09525000001304,
      "v": 80
    },
    {
      "midi": 98,
      "hit": false,
      "t": 520238.1212500021,
      "d": 238.09525000001304,
      "v": 80
    },
    {
      "midi": 2,
      "hit": false,
      "t": 520476.21649996954,
      "d": 7.936508333310485,
      "v": 117
    },
    {
      "midi": 42,
      "hit": false,
      "t": 520476.21649996954,
      "d": 7.936508333310485,
      "v": 100
    },
    {
      "midi": 54,
      "hit": false,
      "t": 520476.21649996954,
      "d": 7.936508333310485,
      "v": 60
    },
    {
      "midi": 31,
      "hit": false,
      "t": 520476.21649999404,
      "d": 396.8254166666884,
      "v": 113
    },
    {
      "midi": 95,
      "hit": false,
      "t": 520476.2164999988,
      "d": 373.0158916666405,
      "v": 110
    },
    {
      "midi": 71,
      "hit": false,
      "t": 520476.2164999988,
      "d": 373.0158916666405,
      "v": 110
    },
    {
      "midi": 83,
      "hit": false,
      "t": 520476.2164999988,
      "d": 373.0158916666405,
      "v": 127
    },
    {
      "midi": 57,
      "hit": false,
      "t": 520476.21650000295,
      "d": 396.8254166666884,
      "v": 118
    },
    {
      "midi": 67,
      "hit": false,
      "t": 520476.21650000295,
      "d": 396.8254166666884,
      "v": 118
    },
    {
      "midi": 62,
      "hit": false,
      "t": 520476.21650000295,
      "d": 396.8254166666884,
      "v": 118
    },
    {
      "midi": 59,
      "hit": false,
      "t": 520476.21650000295,
      "d": 396.8254166666884,
      "v": 118
    },
    {
      "midi": 43,
      "hit": false,
      "t": 520476.21650001,
      "d": 396.8254166666884,
      "v": 111
    },
    {
      "midi": 50,
      "hit": false,
      "t": 520476.21650001,
      "d": 396.8254166666884,
      "v": 111
    },
    {
      "midi": 54,
      "hit": false,
      "t": 520714.3117499695,
      "d": 7.936508333310485,
      "v": 60
    },
    {
      "midi": 83,
      "hit": false,
      "t": 520714.31175000174,
      "d": 222.22223333333386,
      "v": 100
    },
    {
      "midi": 95,
      "hit": false,
      "t": 520714.31175000215,
      "d": 222.22223333333386,
      "v": 100
    },
    {
      "midi": 54,
      "hit": false,
      "t": 520952.40699996945,
      "d": 7.936508333310485,
      "v": 100
    },
    {
      "midi": 40,
      "hit": false,
      "t": 520952.40699996945,
      "d": 7.936508333310485,
      "v": 122
    },
    {
      "midi": 42,
      "hit": false,
      "t": 520952.40699996945,
      "d": 7.936508333310485,
      "v": 100
    },
    {
      "midi": 31,
      "hit": false,
      "t": 520952.40699999407,
      "d": 396.8254166666884,
      "v": 113
    },
    {
      "midi": 97,
      "hit": false,
      "t": 520952.4069999988,
      "d": 373.0158916666405,
      "v": 110
    },
    {
      "midi": 73,
      "hit": false,
      "t": 520952.4069999988,
      "d": 373.0158916666405,
      "v": 110
    },
    {
      "midi": 85,
      "hit": false,
      "t": 520952.4069999988,
      "d": 373.0158916666405,
      "v": 127
    },
    {
      "midi": 83,
      "hit": false,
      "t": 520952.40700000175,
      "d": 238.09525000001304,
      "v": 80
    },
    {
      "midi": 95,
      "hit": false,
      "t": 520952.40700000216,
      "d": 238.09525000001304,
      "v": 80
    },
    {
      "midi": 57,
      "hit": false,
      "t": 520952.407000003,
      "d": 396.8254166666884,
      "v": 125
    },
    {
      "midi": 43,
      "hit": false,
      "t": 520952.40700001,
      "d": 396.8254166666884,
      "v": 111
    },
    {
      "midi": 50,
      "hit": false,
      "t": 520952.40700001,
      "d": 396.8254166666884,
      "v": 111
    },
    {
      "midi": 54,
      "hit": false,
      "t": 521190.5022499694,
      "d": 7.936508333310485,
      "v": 60
    },
    {
      "midi": 2,
      "hit": false,
      "t": 521428.59749996936,
      "d": 7.936508333310485,
      "v": 117
    },
    {
      "midi": 42,
      "hit": false,
      "t": 521428.59749996936,
      "d": 7.936508333310485,
      "v": 100
    },
    {
      "midi": 54,
      "hit": false,
      "t": 521428.59749996936,
      "d": 7.936508333310485,
      "v": 60
    },
    {
      "midi": 31,
      "hit": false,
      "t": 521428.5974999941,
      "d": 396.8254166666884,
      "v": 113
    },
    {
      "midi": 98,
      "hit": false,
      "t": 521428.59749999875,
      "d": 373.0158916666405,
      "v": 110
    },
    {
      "midi": 74,
      "hit": false,
      "t": 521428.59749999875,
      "d": 373.0158916666405,
      "v": 110
    },
    {
      "midi": 86,
      "hit": false,
      "t": 521428.59749999875,
      "d": 373.0158916666405,
      "v": 127
    },
    {
      "midi": 79,
      "hit": false,
      "t": 521428.5975000018,
      "d": 238.09524999995483,
      "v": 100
    },
    {
      "midi": 91,
      "hit": false,
      "t": 521428.5975000022,
      "d": 238.09525000001304,
      "v": 100
    },
    {
      "midi": 55,
      "hit": false,
      "t": 521428.597500003,
      "d": 396.8254166666884,
      "v": 125
    },
    {
      "midi": 43,
      "hit": false,
      "t": 521428.5975000065,
      "d": 198.412708333286,
      "v": 100
    },
    {
      "midi": 62,
      "hit": false,
      "t": 521428.5975000065,
      "d": 198.412708333286,
      "v": 100
    },
    {
      "midi": 55,
      "hit": false,
      "t": 521428.5975000065,
      "d": 198.412708333286,
      "v": 100
    },
    {
      "midi": 67,
      "hit": false,
      "t": 521428.5975000065,
      "d": 198.412708333286,
      "v": 100
    },
    {
      "midi": 47,
      "hit": false,
      "t": 521428.5975000065,
      "d": 198.412708333286,
      "v": 100
    },
    {
      "midi": 50,
      "hit": false,
      "t": 521428.5975000065,
      "d": 198.412708333286,
      "v": 100
    },
    {
      "midi": 43,
      "hit": false,
      "t": 521428.59750001004,
      "d": 396.8254166666884,
      "v": 111
    },
    {
      "midi": 50,
      "hit": false,
      "t": 521428.59750001004,
      "d": 396.8254166666884,
      "v": 111
    },
    {
      "midi": 54,
      "hit": false,
      "t": 521666.6927499693,
      "d": 7.936508333310485,
      "v": 60
    },
    {
      "midi": 79,
      "hit": false,
      "t": 521666.69275000173,
      "d": 238.09525000001304,
      "v": 80
    },
    {
      "midi": 91,
      "hit": false,
      "t": 521666.6927500022,
      "d": 238.09525000001304,
      "v": 80
    },
    {
      "midi": 43,
      "hit": false,
      "t": 521666.69275000645,
      "d": 198.4127083333442,
      "v": 100
    },
    {
      "midi": 62,
      "hit": false,
      "t": 521666.69275000645,
      "d": 198.4127083333442,
      "v": 100
    },
    {
      "midi": 55,
      "hit": false,
      "t": 521666.69275000645,
      "d": 198.4127083333442,
      "v": 100
    },
    {
      "midi": 67,
      "hit": false,
      "t": 521666.69275000645,
      "d": 198.4127083333442,
      "v": 100
    },
    {
      "midi": 47,
      "hit": false,
      "t": 521666.69275000645,
      "d": 198.4127083333442,
      "v": 100
    },
    {
      "midi": 50,
      "hit": false,
      "t": 521666.69275000645,
      "d": 198.4127083333442,
      "v": 100
    },
    {
      "midi": 2,
      "hit": false,
      "t": 521904.78799996927,
      "d": 7.936508333310485,
      "v": 118
    },
    {
      "midi": 54,
      "hit": false,
      "t": 521904.78799996927,
      "d": 7.936508333310485,
      "v": 100
    },
    {
      "midi": 40,
      "hit": false,
      "t": 521904.78799996927,
      "d": 7.936508333310485,
      "v": 122
    },
    {
      "midi": 33,
      "hit": false,
      "t": 521904.7879999941,
      "d": 396.8254166666884,
      "v": 123
    },
    {
      "midi": 100,
      "hit": false,
      "t": 521904.7879999987,
      "d": 373.0158916666405,
      "v": 110
    },
    {
      "midi": 76,
      "hit": false,
      "t": 521904.7879999987,
      "d": 373.0158916666405,
      "v": 110
    },
    {
      "midi": 88,
      "hit": false,
      "t": 521904.7879999987,
      "d": 373.0158916666405,
      "v": 127
    },
    {
      "midi": 88,
      "hit": false,
      "t": 521904.78800000175,
      "d": 238.09525000001304,
      "v": 110
    },
    {
      "midi": 100,
      "hit": false,
      "t": 521904.7880000022,
      "d": 238.09525000001304,
      "v": 110
    },
    {
      "midi": 61,
      "hit": false,
      "t": 521904.788000003,
      "d": 1825.3969166666502,
      "v": 115
    },
    {
      "midi": 64,
      "hit": false,
      "t": 521904.788000003,
      "d": 1825.3969166666502,
      "v": 115
    },
    {
      "midi": 69,
      "hit": false,
      "t": 521904.788000003,
      "d": 1825.3969166666502,
      "v": 115
    },
    {
      "midi": 45,
      "hit": false,
      "t": 521904.78800000646,
      "d": 1880.9524749999982,
      "v": 94
    },
    {
      "midi": 57,
      "hit": false,
      "t": 521904.78800000646,
      "d": 1880.9524749999982,
      "v": 94
    },
    {
      "midi": 64,
      "hit": false,
      "t": 521904.78800000646,
      "d": 1880.9524749999982,
      "v": 94
    },
    {
      "midi": 61,
      "hit": false,
      "t": 521904.78800000646,
      "d": 1880.9524749999982,
      "v": 94
    },
    {
      "midi": 52,
      "hit": false,
      "t": 521904.78800000646,
      "d": 1880.9524749999982,
      "v": 94
    },
    {
      "midi": 45,
      "hit": false,
      "t": 521904.78800001007,
      "d": 396.8254166666884,
      "v": 111
    },
    {
      "midi": 52,
      "hit": false,
      "t": 521904.78800001007,
      "d": 396.8254166666884,
      "v": 111
    },
    {
      "midi": 54,
      "hit": false,
      "t": 522142.8832499692,
      "d": 7.936508333310485,
      "v": 60
    },
    {
      "midi": 88,
      "hit": false,
      "t": 522142.88325000176,
      "d": 238.09525000001304,
      "v": 80
    },
    {
      "midi": 100,
      "hit": false,
      "t": 522142.8832500022,
      "d": 238.09525000001304,
      "v": 80
    },
    {
      "midi": 54,
      "hit": false,
      "t": 522380.9784999692,
      "d": 7.936508333310485,
      "v": 60
    },
    {
      "midi": 47,
      "hit": false,
      "t": 522380.9784999692,
      "d": 7.936508333310485,
      "v": 122
    },
    {
      "midi": 33,
      "hit": false,
      "t": 522380.97849999415,
      "d": 396.8254166666884,
      "v": 113
    },
    {
      "midi": 97,
      "hit": false,
      "t": 522380.9784999987,
      "d": 373.0158916666405,
      "v": 110
    },
    {
      "midi": 73,
      "hit": false,
      "t": 522380.9784999987,
      "d": 373.0158916666405,
      "v": 110
    },
    {
      "midi": 85,
      "hit": false,
      "t": 522380.9784999987,
      "d": 373.0158916666405,
      "v": 127
    },
    {
      "midi": 45,
      "hit": false,
      "t": 522380.9785000101,
      "d": 396.8254166666884,
      "v": 111
    },
    {
      "midi": 52,
      "hit": false,
      "t": 522380.9785000101,
      "d": 396.8254166666884,
      "v": 111
    },
    {
      "midi": 54,
      "hit": false,
      "t": 522619.07374996913,
      "d": 7.936508333310485,
      "v": 60
    },
    {
      "midi": 85,
      "hit": false,
      "t": 522619.0737500018,
      "d": 222.22223333333386,
      "v": 100
    },
    {
      "midi": 97,
      "hit": false,
      "t": 522619.07375000225,
      "d": 222.22223333333386,
      "v": 100
    },
    {
      "midi": 2,
      "hit": false,
      "t": 522857.1689999691,
      "d": 7.936508333310485,
      "v": 117
    },
    {
      "midi": 54,
      "hit": false,
      "t": 522857.1689999691,
      "d": 7.936508333310485,
      "v": 100
    },
    {
      "midi": 38,
      "hit": false,
      "t": 522857.1689999691,
      "d": 7.936508333310485,
      "v": 122
    },
    {
      "midi": 33,
      "hit": false,
      "t": 522857.1689999942,
      "d": 396.8254166666884,
      "v": 113
    },
    {
      "midi": 98,
      "hit": false,
      "t": 522857.16899999866,
      "d": 373.0158916666405,
      "v": 110
    },
    {
      "midi": 74,
      "hit": false,
      "t": 522857.16899999866,
      "d": 373.0158916666405,
      "v": 110
    },
    {
      "midi": 86,
      "hit": false,
      "t": 522857.16899999866,
      "d": 373.0158916666405,
      "v": 127
    },
    {
      "midi": 85,
      "hit": false,
      "t": 522857.1690000018,
      "d": 238.09525000001304,
      "v": 80
    },
    {
      "midi": 97,
      "hit": false,
      "t": 522857.16900000226,
      "d": 238.09525000001304,
      "v": 80
    },
    {
      "midi": 45,
      "hit": false,
      "t": 522857.1690000101,
      "d": 396.8254166666884,
      "v": 111
    },
    {
      "midi": 52,
      "hit": false,
      "t": 522857.1690000101,
      "d": 396.8254166666884,
      "v": 111
    },
    {
      "midi": 54,
      "hit": false,
      "t": 523095.26424996904,
      "d": 7.936508333310485,
      "v": 60
    },
    {
      "midi": 38,
      "hit": false,
      "t": 523095.26424996904,
      "d": 7.936508333310485,
      "v": 122
    },
    {
      "midi": 54,
      "hit": false,
      "t": 523333.359499969,
      "d": 7.936508333310485,
      "v": 60
    },
    {
      "midi": 43,
      "hit": false,
      "t": 523333.359499969,
      "d": 7.936508333310485,
      "v": 122
    },
    {
      "midi": 33,
      "hit": false,
      "t": 523333.3594999942,
      "d": 396.8254166666884,
      "v": 113
    },
    {
      "midi": 100,
      "hit": false,
      "t": 523333.3594999986,
      "d": 373.0158916666405,
      "v": 110
    },
    {
      "midi": 76,
      "hit": false,
      "t": 523333.3594999986,
      "d": 373.0158916666405,
      "v": 110
    },
    {
      "midi": 88,
      "hit": false,
      "t": 523333.3594999986,
      "d": 373.0158916666405,
      "v": 127
    },
    {
      "midi": 81,
      "hit": false,
      "t": 523333.3595000018,
      "d": 238.09525000001304,
      "v": 100
    },
    {
      "midi": 93,
      "hit": false,
      "t": 523333.3595000023,
      "d": 238.09525000001304,
      "v": 100
    },
    {
      "midi": 45,
      "hit": false,
      "t": 523333.35950001015,
      "d": 396.8254166666884,
      "v": 111
    },
    {
      "midi": 52,
      "hit": false,
      "t": 523333.35950001015,
      "d": 396.8254166666884,
      "v": 111
    },
    {
      "midi": 54,
      "hit": false,
      "t": 523571.45474996895,
      "d": 7.936508333310485,
      "v": 60
    },
    {
      "midi": 81,
      "hit": false,
      "t": 523571.45475000184,
      "d": 238.09525000001304,
      "v": 80
    },
    {
      "midi": 93,
      "hit": false,
      "t": 523571.4547500023,
      "d": 238.09525000001304,
      "v": 80
    },
    {
      "midi": 2,
      "hit": false,
      "t": 523809.5499999689,
      "d": 7.936508333310485,
      "v": 117
    },
    {
      "midi": 54,
      "hit": false,
      "t": 523809.5499999689,
      "d": 7.936508333310485,
      "v": 100
    },
    {
      "midi": 49,
      "hit": false,
      "t": 523809.5499999689,
      "d": 7.936508333310485,
      "v": 110
    },
    {
      "midi": 33,
      "hit": false,
      "t": 523809.5499999942,
      "d": 5714.2860000001965,
      "v": 123
    },
    {
      "midi": 103,
      "hit": false,
      "t": 523809.5499999986,
      "d": 5714.286000000138,
      "v": 110
    },
    {
      "midi": 79,
      "hit": false,
      "t": 523809.5499999986,
      "d": 5714.286000000138,
      "v": 110
    },
    {
      "midi": 91,
      "hit": false,
      "t": 523809.5499999986,
      "d": 5714.286000000138,
      "v": 127
    },
    {
      "midi": 55,
      "hit": false,
      "t": 523809.550000003,
      "d": 5714.286000000138,
      "v": 112
    },
    {
      "midi": 61,
      "hit": false,
      "t": 523809.550000003,
      "d": 5714.286000000138,
      "v": 112
    },
    {
      "midi": 67,
      "hit": false,
      "t": 523809.550000003,
      "d": 5714.286000000138,
      "v": 112
    },
    {
      "midi": 64,
      "hit": false,
      "t": 523809.550000003,
      "d": 5714.286000000138,
      "v": 112
    },
    {
      "midi": 57,
      "hit": false,
      "t": 523809.550000003,
      "d": 5714.286000000138,
      "v": 112
    },
    {
      "midi": 45,
      "hit": false,
      "t": 523809.55000000645,
      "d": 5714.286000000313,
      "v": 94
    },
    {
      "midi": 57,
      "hit": false,
      "t": 523809.55000000645,
      "d": 5714.286000000313,
      "v": 94
    },
    {
      "midi": 64,
      "hit": false,
      "t": 523809.55000000645,
      "d": 5714.286000000313,
      "v": 94
    },
    {
      "midi": 61,
      "hit": false,
      "t": 523809.55000000645,
      "d": 5714.286000000313,
      "v": 94
    },
    {
      "midi": 52,
      "hit": false,
      "t": 523809.55000000645,
      "d": 5714.286000000313,
      "v": 94
    },
    {
      "midi": 45,
      "hit": false,
      "t": 523809.5500000102,
      "d": 5714.2860000001965,
      "v": 111
    },
    {
      "midi": 52,
      "hit": false,
      "t": 523809.5500000102,
      "d": 5714.2860000001965,
      "v": 111
    }
  ]
}