{
  "jsonPath": "World/Swedish Synthpop/This Vision/exit-utopia.json",
  "path": "World\\Swedish Synthpop\\This Vision\\Exit Utopia.mid",
  "name": "Exit Utopia",
  "difficulty": "Advanced",
  "bpm": 78.00017940041262,
  "notes": [
    {
      "midi": 36,
      "hit": false,
      "t": 3076.9159999999997,
      "d": 1510.413192708333,
      "v": 64
    },
    {
      "midi": 48,
      "hit": false,
      "t": 3076.9159999999997,
      "d": 1510.413192708333,
      "v": 64
    },
    {
      "midi": 60,
      "hit": false,
      "t": 3076.9159999999997,
      "d": 1510.413192708333,
      "v": 64
    },
    {
      "midi": 55,
      "hit": false,
      "t": 3076.9159999999997,
      "d": 1999.1941197916672,
      "v": 64
    },
    {
      "midi": 64,
      "hit": false,
      "t": 3076.9159999999997,
      "d": 2023.232526041667,
      "v": 64
    },
    {
      "midi": 36,
      "hit": false,
      "t": 3076.916,
      "d": 1510.4131927083336,
      "v": 64
    },
    {
      "midi": 48,
      "hit": false,
      "t": 3076.916,
      "d": 1510.4131927083336,
      "v": 64
    },
    {
      "midi": 60,
      "hit": false,
      "t": 3076.916,
      "d": 1510.4131927083336,
      "v": 64
    },
    {
      "midi": 55,
      "hit": false,
      "t": 3076.916,
      "d": 1999.1941197916667,
      "v": 64
    },
    {
      "midi": 64,
      "hit": false,
      "t": 3076.916,
      "d": 2023.2325260416665,
      "v": 64
    },
    {
      "midi": 60,
      "hit": false,
      "t": 4615.374,
      "d": 484.77452604166683,
      "v": 64
    },
    {
      "midi": 36,
      "hit": false,
      "t": 4615.374,
      "d": 1410.2531666666664,
      "v": 64
    },
    {
      "midi": 48,
      "hit": false,
      "t": 4615.374,
      "d": 1510.4131927083326,
      "v": 64
    },
    {
      "midi": 60,
      "hit": false,
      "t": 4615.374000000001,
      "d": 484.7745260416659,
      "v": 64
    },
    {
      "midi": 36,
      "hit": false,
      "t": 4615.374000000001,
      "d": 1410.2531666666655,
      "v": 64
    },
    {
      "midi": 48,
      "hit": false,
      "t": 4615.374000000001,
      "d": 1510.4131927083317,
      "v": 64
    },
    {
      "midi": 55,
      "hit": false,
      "t": 5128.193333333334,
      "d": 384.6144999999997,
      "v": 64
    },
    {
      "midi": 64,
      "hit": false,
      "t": 5128.193333333334,
      "d": 384.6144999999997,
      "v": 64
    },
    {
      "midi": 60,
      "hit": false,
      "t": 5128.193333333334,
      "d": 536.8577395833327,
      "v": 64
    },
    {
      "midi": 55,
      "hit": false,
      "t": 5128.193333333334,
      "d": 384.6144999999997,
      "v": 64
    },
    {
      "midi": 64,
      "hit": false,
      "t": 5128.193333333334,
      "d": 384.6144999999997,
      "v": 64
    },
    {
      "midi": 60,
      "hit": false,
      "t": 5128.193333333334,
      "d": 536.8577395833327,
      "v": 64
    },
    {
      "midi": 55,
      "hit": false,
      "t": 5641.0126666666665,
      "d": 384.6144999999997,
      "v": 64
    },
    {
      "midi": 62,
      "hit": false,
      "t": 5641.0126666666665,
      "d": 384.6144999999997,
      "v": 64
    },
    {
      "midi": 65,
      "hit": false,
      "t": 5641.0126666666665,
      "d": 384.6144999999997,
      "v": 64
    },
    {
      "midi": 55,
      "hit": false,
      "t": 5641.0126666666665,
      "d": 384.6144999999997,
      "v": 64
    },
    {
      "midi": 62,
      "hit": false,
      "t": 5641.0126666666665,
      "d": 384.6144999999997,
      "v": 64
    },
    {
      "midi": 65,
      "hit": false,
      "t": 5641.0126666666665,
      "d": 384.6144999999997,
      "v": 64
    },
    {
      "midi": 26,
      "hit": false,
      "t": 5961.52475,
      "d": 192.30724999999984,
      "v": 64
    },
    {
      "midi": 26,
      "hit": false,
      "t": 5961.52475,
      "d": 192.30724999999984,
      "v": 64
    },
    {
      "midi": 31,
      "hit": false,
      "t": 6153.831999999999,
      "d": 1282.0483333333332,
      "v": 64
    },
    {
      "midi": 43,
      "hit": false,
      "t": 6153.831999999999,
      "d": 1510.4131927083336,
      "v": 64
    },
    {
      "midi": 55,
      "hit": false,
      "t": 6153.831999999999,
      "d": 2023.2325260416674,
      "v": 64
    },
    {
      "midi": 59,
      "hit": false,
      "t": 6153.831999999999,
      "d": 2023.2325260416674,
      "v": 64
    },
    {
      "midi": 62,
      "hit": false,
      "t": 6153.831999999999,
      "d": 2023.2325260416674,
      "v": 64
    },
    {
      "midi": 31,
      "hit": false,
      "t": 6153.831999999999,
      "d": 1282.0483333333332,
      "v": 64
    },
    {
      "midi": 43,
      "hit": false,
      "t": 6153.831999999999,
      "d": 1510.4131927083336,
      "v": 64
    },
    {
      "midi": 55,
      "hit": false,
      "t": 6153.831999999999,
      "d": 2023.2325260416674,
      "v": 64
    },
    {
      "midi": 59,
      "hit": false,
      "t": 6153.831999999999,
      "d": 2023.2325260416674,
      "v": 64
    },
    {
      "midi": 62,
      "hit": false,
      "t": 6153.831999999999,
      "d": 2023.2325260416674,
      "v": 64
    },
    {
      "midi": 31,
      "hit": false,
      "t": 7499.982749999999,
      "d": 164.26244270833377,
      "v": 64
    },
    {
      "midi": 31,
      "hit": false,
      "t": 7499.982749999999,
      "d": 164.26244270833377,
      "v": 64
    },
    {
      "midi": 31,
      "hit": false,
      "t": 7692.29,
      "d": 1282.0483333333332,
      "v": 64
    },
    {
      "midi": 43,
      "hit": false,
      "t": 7692.29,
      "d": 1510.4131927083317,
      "v": 64
    },
    {
      "midi": 31,
      "hit": false,
      "t": 7692.29,
      "d": 1282.0483333333332,
      "v": 64
    },
    {
      "midi": 43,
      "hit": false,
      "t": 7692.29,
      "d": 1510.4131927083317,
      "v": 64
    },
    {
      "midi": 55,
      "hit": false,
      "t": 8205.109333333334,
      "d": 432.6913124999992,
      "v": 64
    },
    {
      "midi": 59,
      "hit": false,
      "t": 8205.109333333334,
      "d": 432.6913124999992,
      "v": 64
    },
    {
      "midi": 62,
      "hit": false,
      "t": 8205.109333333334,
      "d": 432.6913124999992,
      "v": 64
    },
    {
      "midi": 55,
      "hit": false,
      "t": 8205.109333333334,
      "d": 432.6913124999992,
      "v": 64
    },
    {
      "midi": 59,
      "hit": false,
      "t": 8205.109333333334,
      "d": 432.6913124999992,
      "v": 64
    },
    {
      "midi": 62,
      "hit": false,
      "t": 8205.109333333334,
      "d": 432.6913124999992,
      "v": 64
    },
    {
      "midi": 55,
      "hit": false,
      "t": 8717.928666666667,
      "d": 432.6913124999992,
      "v": 64
    },
    {
      "midi": 60,
      "hit": false,
      "t": 8717.928666666667,
      "d": 432.6913124999992,
      "v": 64
    },
    {
      "midi": 64,
      "hit": false,
      "t": 8717.928666666667,
      "d": 432.6913124999992,
      "v": 64
    },
    {
      "midi": 55,
      "hit": false,
      "t": 8717.928666666667,
      "d": 432.6913124999992,
      "v": 64
    },
    {
      "midi": 60,
      "hit": false,
      "t": 8717.928666666667,
      "d": 432.6913124999992,
      "v": 64
    },
    {
      "midi": 64,
      "hit": false,
      "t": 8717.928666666667,
      "d": 432.6913124999992,
      "v": 64
    },
    {
      "midi": 26,
      "hit": false,
      "t": 9102.543166666666,
      "d": 152.24323958333116,
      "v": 64
    },
    {
      "midi": 26,
      "hit": false,
      "t": 9102.543166666666,
      "d": 152.24323958333116,
      "v": 64
    },
    {
      "midi": 29,
      "hit": false,
      "t": 9230.747999999998,
      "d": 1510.4131927083326,
      "v": 64
    },
    {
      "midi": 41,
      "hit": false,
      "t": 9230.747999999998,
      "d": 1510.4131927083326,
      "v": 64
    },
    {
      "midi": 53,
      "hit": false,
      "t": 9230.747999999998,
      "d": 2023.2325260416656,
      "v": 64
    },
    {
      "midi": 57,
      "hit": false,
      "t": 9230.747999999998,
      "d": 2023.2325260416656,
      "v": 64
    },
    {
      "midi": 60,
      "hit": false,
      "t": 9230.747999999998,
      "d": 2023.2325260416656,
      "v": 64
    },
    {
      "midi": 65,
      "hit": false,
      "t": 9230.747999999998,
      "d": 2023.2325260416656,
      "v": 64
    },
    {
      "midi": 29,
      "hit": false,
      "t": 9230.747999999998,
      "d": 1510.4131927083326,
      "v": 64
    },
    {
      "midi": 41,
      "hit": false,
      "t": 9230.747999999998,
      "d": 1510.4131927083326,
      "v": 64
    },
    {
      "midi": 53,
      "hit": false,
      "t": 9230.747999999998,
      "d": 2023.2325260416656,
      "v": 64
    },
    {
      "midi": 57,
      "hit": false,
      "t": 9230.747999999998,
      "d": 2023.2325260416656,
      "v": 64
    },
    {
      "midi": 60,
      "hit": false,
      "t": 9230.747999999998,
      "d": 2023.2325260416656,
      "v": 64
    },
    {
      "midi": 65,
      "hit": false,
      "t": 9230.747999999998,
      "d": 2023.2325260416656,
      "v": 64
    },
    {
      "midi": 29,
      "hit": false,
      "t": 10769.205999999996,
      "d": 1410.2531666666655,
      "v": 64
    },
    {
      "midi": 41,
      "hit": false,
      "t": 10769.205999999996,
      "d": 1510.4131927083326,
      "v": 64
    },
    {
      "midi": 29,
      "hit": false,
      "t": 10769.205999999996,
      "d": 1410.2531666666655,
      "v": 64
    },
    {
      "midi": 41,
      "hit": false,
      "t": 10769.205999999996,
      "d": 1510.4131927083326,
      "v": 64
    },
    {
      "midi": 65,
      "hit": false,
      "t": 11282.02533333333,
      "d": 356.5696927083336,
      "v": 64
    },
    {
      "midi": 53,
      "hit": false,
      "t": 11282.02533333333,
      "d": 408.65290624999943,
      "v": 64
    },
    {
      "midi": 55,
      "hit": false,
      "t": 11282.02533333333,
      "d": 408.65290624999943,
      "v": 64
    },
    {
      "midi": 60,
      "hit": false,
      "t": 11282.02533333333,
      "d": 408.65290624999943,
      "v": 64
    },
    {
      "midi": 65,
      "hit": false,
      "t": 11282.02533333333,
      "d": 356.5696927083336,
      "v": 64
    },
    {
      "midi": 53,
      "hit": false,
      "t": 11282.02533333333,
      "d": 408.65290624999943,
      "v": 64
    },
    {
      "midi": 55,
      "hit": false,
      "t": 11282.02533333333,
      "d": 408.65290624999943,
      "v": 64
    },
    {
      "midi": 60,
      "hit": false,
      "t": 11282.02533333333,
      "d": 408.65290624999943,
      "v": 64
    },
    {
      "midi": 55,
      "hit": false,
      "t": 11794.844666666662,
      "d": 332.53128645833385,
      "v": 64
    },
    {
      "midi": 53,
      "hit": false,
      "t": 11794.844666666662,
      "d": 356.5696927083336,
      "v": 64
    },
    {
      "midi": 65,
      "hit": false,
      "t": 11794.844666666662,
      "d": 356.5696927083336,
      "v": 64
    },
    {
      "midi": 60,
      "hit": false,
      "t": 11794.844666666662,
      "d": 408.65290624999943,
      "v": 64
    },
    {
      "midi": 55,
      "hit": false,
      "t": 11794.844666666662,
      "d": 332.53128645833385,
      "v": 64
    },
    {
      "midi": 53,
      "hit": false,
      "t": 11794.844666666662,
      "d": 356.5696927083336,
      "v": 64
    },
    {
      "midi": 65,
      "hit": false,
      "t": 11794.844666666662,
      "d": 356.5696927083336,
      "v": 64
    },
    {
      "midi": 60,
      "hit": false,
      "t": 11794.844666666662,
      "d": 408.65290624999943,
      "v": 64
    },
    {
      "midi": 26,
      "hit": false,
      "t": 12179.459166666662,
      "d": 124.1984322916669,
      "v": 64
    },
    {
      "midi": 26,
      "hit": false,
      "t": 12179.459166666662,
      "d": 124.1984322916669,
      "v": 64
    },
    {
      "midi": 55,
      "hit": false,
      "t": 12303.657598958329,
      "d": 128.20483333333323,
      "v": 64
    },
    {
      "midi": 29,
      "hit": false,
      "t": 12303.657598958329,
      "d": 1514.4195937500008,
      "v": 64
    },
    {
      "midi": 41,
      "hit": false,
      "t": 12303.657598958329,
      "d": 1514.4195937500008,
      "v": 64
    },
    {
      "midi": 53,
      "hit": false,
      "t": 12303.657598958329,
      "d": 1514.4195937500008,
      "v": 64
    },
    {
      "midi": 65,
      "hit": false,
      "t": 12303.657598958329,
      "d": 2003.200520833334,
      "v": 64
    },
    {
      "midi": 60,
      "hit": false,
      "t": 12303.657598958329,
      "d": 2027.2389270833337,
      "v": 64
    },
    {
      "midi": 55,
      "hit": false,
      "t": 12303.657598958329,
      "d": 128.20483333333323,
      "v": 64
    },
    {
      "midi": 29,
      "hit": false,
      "t": 12303.657598958329,
      "d": 1514.4195937500008,
      "v": 64
    },
    {
      "midi": 41,
      "hit": false,
      "t": 12303.657598958329,
      "d": 1514.4195937500008,
      "v": 64
    },
    {
      "midi": 53,
      "hit": false,
      "t": 12303.657598958329,
      "d": 1514.4195937500008,
      "v": 64
    },
    {
      "midi": 65,
      "hit": false,
      "t": 12303.657598958329,
      "d": 2003.200520833334,
      "v": 64
    },
    {
      "midi": 60,
      "hit": false,
      "t": 12303.657598958329,
      "d": 2027.2389270833337,
      "v": 64
    },
    {
      "midi": 57,
      "hit": false,
      "t": 12431.862432291662,
      "d": 1899.0340937500005,
      "v": 64
    },
    {
      "midi": 57,
      "hit": false,
      "t": 12431.862432291662,
      "d": 1899.0340937500005,
      "v": 64
    },
    {
      "midi": 41,
      "hit": false,
      "t": 13842.11559895833,
      "d": 232.3712604166667,
      "v": 64
    },
    {
      "midi": 53,
      "hit": false,
      "t": 13842.11559895833,
      "d": 488.78092708333315,
      "v": 64
    },
    {
      "midi": 29,
      "hit": false,
      "t": 13842.11559895833,
      "d": 1514.419593749999,
      "v": 64
    },
    {
      "midi": 41,
      "hit": false,
      "t": 13842.11559895833,
      "d": 232.3712604166667,
      "v": 64
    },
    {
      "midi": 53,
      "hit": false,
      "t": 13842.11559895833,
      "d": 488.78092708333315,
      "v": 64
    },
    {
      "midi": 29,
      "hit": false,
      "t": 13842.11559895833,
      "d": 1514.419593749999,
      "v": 64
    },
    {
      "midi": 41,
      "hit": false,
      "t": 14098.525265624996,
      "d": 1258.0099270833325,
      "v": 64
    },
    {
      "midi": 41,
      "hit": false,
      "t": 14098.525265624996,
      "d": 1258.0099270833325,
      "v": 64
    },
    {
      "midi": 53,
      "hit": false,
      "t": 14354.934932291662,
      "d": 488.78092708333315,
      "v": 64
    },
    {
      "midi": 57,
      "hit": false,
      "t": 14354.934932291662,
      "d": 488.78092708333315,
      "v": 64
    },
    {
      "midi": 60,
      "hit": false,
      "t": 14354.934932291662,
      "d": 488.78092708333315,
      "v": 64
    },
    {
      "midi": 53,
      "hit": false,
      "t": 14354.934932291662,
      "d": 488.78092708333315,
      "v": 64
    },
    {
      "midi": 57,
      "hit": false,
      "t": 14354.934932291662,
      "d": 488.78092708333315,
      "v": 64
    },
    {
      "midi": 60,
      "hit": false,
      "t": 14354.934932291662,
      "d": 488.78092708333315,
      "v": 64
    },
    {
      "midi": 53,
      "hit": false,
      "t": 14867.754265624995,
      "d": 488.78092708333315,
      "v": 64
    },
    {
      "midi": 57,
      "hit": false,
      "t": 14867.754265624995,
      "d": 488.78092708333315,
      "v": 64
    },
    {
      "midi": 62,
      "hit": false,
      "t": 14867.754265624995,
      "d": 488.78092708333315,
      "v": 64
    },
    {
      "midi": 53,
      "hit": false,
      "t": 14867.754265624995,
      "d": 488.78092708333315,
      "v": 64
    },
    {
      "midi": 57,
      "hit": false,
      "t": 14867.754265624995,
      "d": 488.78092708333315,
      "v": 64
    },
    {
      "midi": 62,
      "hit": false,
      "t": 14867.754265624995,
      "d": 488.78092708333315,
      "v": 64
    },
    {
      "midi": 31,
      "hit": false,
      "t": 15252.368765624995,
      "d": 128.20483333333323,
      "v": 64
    },
    {
      "midi": 31,
      "hit": false,
      "t": 15252.368765624995,
      "d": 128.20483333333323,
      "v": 64
    },
    {
      "midi": 36,
      "hit": false,
      "t": 15380.573598958328,
      "d": 1514.419593749999,
      "v": 64
    },
    {
      "midi": 48,
      "hit": false,
      "t": 15380.573598958328,
      "d": 1514.419593749999,
      "v": 64
    },
    {
      "midi": 60,
      "hit": false,
      "t": 15380.573598958328,
      "d": 1514.419593749999,
      "v": 64
    },
    {
      "midi": 55,
      "hit": false,
      "t": 15380.573598958328,
      "d": 2003.200520833334,
      "v": 64
    },
    {
      "midi": 64,
      "hit": false,
      "t": 15380.573598958328,
      "d": 2027.2389270833355,
      "v": 64
    },
    {
      "midi": 36,
      "hit": false,
      "t": 15380.573598958328,
      "d": 1514.419593749999,
      "v": 64
    },
    {
      "midi": 48,
      "hit": false,
      "t": 15380.573598958328,
      "d": 1514.419593749999,
      "v": 64
    },
    {
      "midi": 60,
      "hit": false,
      "t": 15380.573598958328,
      "d": 1514.419593749999,
      "v": 64
    },
    {
      "midi": 55,
      "hit": false,
      "t": 15380.573598958328,
      "d": 2003.200520833334,
      "v": 64
    },
    {
      "midi": 64,
      "hit": false,
      "t": 15380.573598958328,
      "d": 2027.2389270833355,
      "v": 64
    },
    {
      "midi": 60,
      "hit": false,
      "t": 16919.03159895833,
      "d": 488.780927083335,
      "v": 64
    },
    {
      "midi": 36,
      "hit": false,
      "t": 16919.03159895833,
      "d": 1410.2531666666691,
      "v": 64
    },
    {
      "midi": 48,
      "hit": false,
      "t": 16919.03159895833,
      "d": 1514.4195937500008,
      "v": 64
    },
    {
      "midi": 60,
      "hit": false,
      "t": 16919.03159895833,
      "d": 488.780927083335,
      "v": 64
    },
    {
      "midi": 36,
      "hit": false,
      "t": 16919.03159895833,
      "d": 1410.2531666666691,
      "v": 64
    },
    {
      "midi": 48,
      "hit": false,
      "t": 16919.03159895833,
      "d": 1514.4195937500008,
      "v": 64
    },
    {
      "midi": 55,
      "hit": false,
      "t": 17431.850932291665,
      "d": 384.6144999999997,
      "v": 64
    },
    {
      "midi": 64,
      "hit": false,
      "t": 17431.850932291665,
      "d": 384.6144999999997,
      "v": 64
    },
    {
      "midi": 60,
      "hit": false,
      "t": 17431.850932291665,
      "d": 540.864140624999,
      "v": 64
    },
    {
      "midi": 55,
      "hit": false,
      "t": 17431.850932291665,
      "d": 384.6144999999997,
      "v": 64
    },
    {
      "midi": 64,
      "hit": false,
      "t": 17431.850932291665,
      "d": 384.6144999999997,
      "v": 64
    },
    {
      "midi": 60,
      "hit": false,
      "t": 17431.850932291665,
      "d": 540.864140624999,
      "v": 64
    },
    {
      "midi": 55,
      "hit": false,
      "t": 17944.670265624998,
      "d": 384.6144999999997,
      "v": 64
    },
    {
      "midi": 62,
      "hit": false,
      "t": 17944.670265624998,
      "d": 384.6144999999997,
      "v": 64
    },
    {
      "midi": 65,
      "hit": false,
      "t": 17944.670265624998,
      "d": 384.6144999999997,
      "v": 64
    },
    {
      "midi": 55,
      "hit": false,
      "t": 17944.670265624998,
      "d": 384.6144999999997,
      "v": 64
    },
    {
      "midi": 62,
      "hit": false,
      "t": 17944.670265624998,
      "d": 384.6144999999997,
      "v": 64
    },
    {
      "midi": 65,
      "hit": false,
      "t": 17944.670265624998,
      "d": 384.6144999999997,
      "v": 64
    },
    {
      "midi": 26,
      "hit": false,
      "t": 18265.18234895833,
      "d": 192.30725000000166,
      "v": 64
    },
    {
      "midi": 26,
      "hit": false,
      "t": 18265.18234895833,
      "d": 192.30725000000166,
      "v": 64
    },
    {
      "midi": 31,
      "hit": false,
      "t": 18457.48959895833,
      "d": 1282.0483333333323,
      "v": 64
    },
    {
      "midi": 43,
      "hit": false,
      "t": 18457.48959895833,
      "d": 1514.4195937500008,
      "v": 64
    },
    {
      "midi": 55,
      "hit": false,
      "t": 18457.48959895833,
      "d": 2027.2389270833373,
      "v": 64
    },
    {
      "midi": 59,
      "hit": false,
      "t": 18457.48959895833,
      "d": 2027.2389270833373,
      "v": 64
    },
    {
      "midi": 62,
      "hit": false,
      "t": 18457.48959895833,
      "d": 2027.2389270833373,
      "v": 64
    },
    {
      "midi": 31,
      "hit": false,
      "t": 18457.48959895833,
      "d": 1282.0483333333323,
      "v": 64
    },
    {
      "midi": 43,
      "hit": false,
      "t": 18457.48959895833,
      "d": 1514.4195937500008,
      "v": 64
    },
    {
      "midi": 55,
      "hit": false,
      "t": 18457.48959895833,
      "d": 2027.2389270833373,
      "v": 64
    },
    {
      "midi": 59,
      "hit": false,
      "t": 18457.48959895833,
      "d": 2027.2389270833373,
      "v": 64
    },
    {
      "midi": 62,
      "hit": false,
      "t": 18457.48959895833,
      "d": 2027.2389270833373,
      "v": 64
    },
    {
      "midi": 31,
      "hit": false,
      "t": 19803.64034895833,
      "d": 168.2688437500001,
      "v": 64
    },
    {
      "midi": 31,
      "hit": false,
      "t": 19803.64034895833,
      "d": 168.2688437500001,
      "v": 64
    },
    {
      "midi": 31,
      "hit": false,
      "t": 19995.947598958333,
      "d": 1282.048333333336,
      "v": 64
    },
    {
      "midi": 43,
      "hit": false,
      "t": 19995.947598958333,
      "d": 1514.4195937500044,
      "v": 64
    },
    {
      "midi": 31,
      "hit": false,
      "t": 19995.947598958333,
      "d": 1282.048333333336,
      "v": 64
    },
    {
      "midi": 43,
      "hit": false,
      "t": 19995.947598958333,
      "d": 1514.4195937500044,
      "v": 64
    },
    {
      "midi": 55,
      "hit": false,
      "t": 20508.76693229167,
      "d": 436.6977135416673,
      "v": 64
    },
    {
      "midi": 59,
      "hit": false,
      "t": 20508.76693229167,
      "d": 436.6977135416673,
      "v": 64
    },
    {
      "midi": 62,
      "hit": false,
      "t": 20508.76693229167,
      "d": 436.6977135416673,
      "v": 64
    },
    {
      "midi": 55,
      "hit": false,
      "t": 20508.76693229167,
      "d": 436.6977135416673,
      "v": 64
    },
    {
      "midi": 59,
      "hit": false,
      "t": 20508.76693229167,
      "d": 436.6977135416673,
      "v": 64
    },
    {
      "midi": 62,
      "hit": false,
      "t": 20508.76693229167,
      "d": 436.6977135416673,
      "v": 64
    },
    {
      "midi": 55,
      "hit": false,
      "t": 21021.586265625003,
      "d": 436.6977135416673,
      "v": 64
    },
    {
      "midi": 60,
      "hit": false,
      "t": 21021.586265625003,
      "d": 436.6977135416673,
      "v": 64
    },
    {
      "midi": 64,
      "hit": false,
      "t": 21021.586265625003,
      "d": 436.6977135416673,
      "v": 64
    },
    {
      "midi": 55,
      "hit": false,
      "t": 21021.586265625003,
      "d": 436.6977135416673,
      "v": 64
    },
    {
      "midi": 60,
      "hit": false,
      "t": 21021.586265625003,
      "d": 436.6977135416673,
      "v": 64
    },
    {
      "midi": 64,
      "hit": false,
      "t": 21021.586265625003,
      "d": 436.6977135416673,
      "v": 64
    },
    {
      "midi": 26,
      "hit": false,
      "t": 21406.200765625003,
      "d": 156.24964062500294,
      "v": 64
    },
    {
      "midi": 26,
      "hit": false,
      "t": 21406.200765625003,
      "d": 156.24964062500294,
      "v": 64
    },
    {
      "midi": 29,
      "hit": false,
      "t": 21534.40559895834,
      "d": 1514.4195937500008,
      "v": 64
    },
    {
      "midi": 41,
      "hit": false,
      "t": 21534.40559895834,
      "d": 1514.4195937500008,
      "v": 64
    },
    {
      "midi": 53,
      "hit": false,
      "t": 21534.40559895834,
      "d": 2027.2389270833373,
      "v": 64
    },
    {
      "midi": 57,
      "hit": false,
      "t": 21534.40559895834,
      "d": 2027.2389270833373,
      "v": 64
    },
    {
      "midi": 60,
      "hit": false,
      "t": 21534.40559895834,
      "d": 2027.2389270833373,
      "v": 64
    },
    {
      "midi": 65,
      "hit": false,
      "t": 21534.40559895834,
      "d": 2027.2389270833373,
      "v": 64
    },
    {
      "midi": 29,
      "hit": false,
      "t": 21534.40559895834,
      "d": 1514.4195937500008,
      "v": 64
    },
    {
      "midi": 41,
      "hit": false,
      "t": 21534.40559895834,
      "d": 1514.4195937500008,
      "v": 64
    },
    {
      "midi": 53,
      "hit": false,
      "t": 21534.40559895834,
      "d": 2027.2389270833373,
      "v": 64
    },
    {
      "midi": 57,
      "hit": false,
      "t": 21534.40559895834,
      "d": 2027.2389270833373,
      "v": 64
    },
    {
      "midi": 60,
      "hit": false,
      "t": 21534.40559895834,
      "d": 2027.2389270833373,
      "v": 64
    },
    {
      "midi": 65,
      "hit": false,
      "t": 21534.40559895834,
      "d": 2027.2389270833373,
      "v": 64
    },
    {
      "midi": 29,
      "hit": false,
      "t": 23072.86359895834,
      "d": 1410.2531666666764,
      "v": 64
    },
    {
      "midi": 41,
      "hit": false,
      "t": 23072.86359895834,
      "d": 1514.419593750008,
      "v": 64
    },
    {
      "midi": 29,
      "hit": false,
      "t": 23072.86359895834,
      "d": 1410.2531666666764,
      "v": 64
    },
    {
      "midi": 41,
      "hit": false,
      "t": 23072.86359895834,
      "d": 1514.419593750008,
      "v": 64
    },
    {
      "midi": 65,
      "hit": false,
      "t": 23585.68293229168,
      "d": 360.57609375000175,
      "v": 64
    },
    {
      "midi": 53,
      "hit": false,
      "t": 23585.68293229168,
      "d": 412.6593072916694,
      "v": 64
    },
    {
      "midi": 55,
      "hit": false,
      "t": 23585.68293229168,
      "d": 412.6593072916694,
      "v": 64
    },
    {
      "midi": 60,
      "hit": false,
      "t": 23585.68293229168,
      "d": 412.6593072916694,
      "v": 64
    },
    {
      "midi": 65,
      "hit": false,
      "t": 23585.68293229168,
      "d": 360.57609375000175,
      "v": 64
    },
    {
      "midi": 53,
      "hit": false,
      "t": 23585.68293229168,
      "d": 412.6593072916694,
      "v": 64
    },
    {
      "midi": 55,
      "hit": false,
      "t": 23585.68293229168,
      "d": 412.6593072916694,
      "v": 64
    },
    {
      "midi": 60,
      "hit": false,
      "t": 23585.68293229168,
      "d": 412.6593072916694,
      "v": 64
    },
    {
      "midi": 55,
      "hit": false,
      "t": 24098.502265625015,
      "d": 336.5376875000002,
      "v": 64
    },
    {
      "midi": 53,
      "hit": false,
      "t": 24098.502265625015,
      "d": 360.57609375000175,
      "v": 64
    },
    {
      "midi": 65,
      "hit": false,
      "t": 24098.502265625015,
      "d": 360.57609375000175,
      "v": 64
    },
    {
      "midi": 60,
      "hit": false,
      "t": 24098.502265625015,
      "d": 412.6593072916694,
      "v": 64
    },
    {
      "midi": 55,
      "hit": false,
      "t": 24098.502265625015,
      "d": 336.5376875000002,
      "v": 64
    },
    {
      "midi": 53,
      "hit": false,
      "t": 24098.502265625015,
      "d": 360.57609375000175,
      "v": 64
    },
    {
      "midi": 65,
      "hit": false,
      "t": 24098.502265625015,
      "d": 360.57609375000175,
      "v": 64
    },
    {
      "midi": 60,
      "hit": false,
      "t": 24098.502265625015,
      "d": 412.6593072916694,
      "v": 64
    },
    {
      "midi": 26,
      "hit": false,
      "t": 24483.116765625018,
      "d": 128.20483333333323,
      "v": 64
    },
    {
      "midi": 26,
      "hit": false,
      "t": 24483.116765625018,
      "d": 128.20483333333323,
      "v": 64
    },
    {
      "midi": 55,
      "hit": false,
      "t": 24611.32159895835,
      "d": 128.20483333333323,
      "v": 64
    },
    {
      "midi": 29,
      "hit": false,
      "t": 24611.32159895835,
      "d": 1514.4195937500008,
      "v": 64
    },
    {
      "midi": 41,
      "hit": false,
      "t": 24611.32159895835,
      "d": 1514.4195937500008,
      "v": 64
    },
    {
      "midi": 53,
      "hit": false,
      "t": 24611.32159895835,
      "d": 1514.4195937500008,
      "v": 64
    },
    {
      "midi": 65,
      "hit": false,
      "t": 24611.32159895835,
      "d": 2003.2005208333358,
      "v": 64
    },
    {
      "midi": 60,
      "hit": false,
      "t": 24611.32159895835,
      "d": 2027.2389270833373,
      "v": 64
    },
    {
      "midi": 55,
      "hit": false,
      "t": 24611.32159895835,
      "d": 128.20483333333323,
      "v": 64
    },
    {
      "midi": 29,
      "hit": false,
      "t": 24611.32159895835,
      "d": 1514.4195937500008,
      "v": 64
    },
    {
      "midi": 41,
      "hit": false,
      "t": 24611.32159895835,
      "d": 1514.4195937500008,
      "v": 64
    },
    {
      "midi": 53,
      "hit": false,
      "t": 24611.32159895835,
      "d": 1514.4195937500008,
      "v": 64
    },
    {
      "midi": 65,
      "hit": false,
      "t": 24611.32159895835,
      "d": 2003.2005208333358,
      "v": 64
    },
    {
      "midi": 60,
      "hit": false,
      "t": 24611.32159895835,
      "d": 2027.2389270833373,
      "v": 64
    },
    {
      "midi": 57,
      "hit": false,
      "t": 24739.526432291685,
      "d": 1899.034093750004,
      "v": 64
    },
    {
      "midi": 57,
      "hit": false,
      "t": 24739.526432291685,
      "d": 1899.034093750004,
      "v": 64
    },
    {
      "midi": 41,
      "hit": false,
      "t": 26149.779598958354,
      "d": 232.37126041666488,
      "v": 64
    },
    {
      "midi": 53,
      "hit": false,
      "t": 26149.779598958354,
      "d": 488.780927083335,
      "v": 64
    },
    {
      "midi": 29,
      "hit": false,
      "t": 26149.779598958354,
      "d": 1514.4195937500044,
      "v": 64
    },
    {
      "midi": 41,
      "hit": false,
      "t": 26149.779598958354,
      "d": 232.37126041666488,
      "v": 64
    },
    {
      "midi": 53,
      "hit": false,
      "t": 26149.779598958354,
      "d": 488.780927083335,
      "v": 64
    },
    {
      "midi": 29,
      "hit": false,
      "t": 26149.779598958354,
      "d": 1514.4195937500044,
      "v": 64
    },
    {
      "midi": 41,
      "hit": false,
      "t": 26406.18926562502,
      "d": 1258.009927083338,
      "v": 64
    },
    {
      "midi": 41,
      "hit": false,
      "t": 26406.18926562502,
      "d": 1258.009927083338,
      "v": 64
    },
    {
      "midi": 53,
      "hit": false,
      "t": 26662.59893229169,
      "d": 488.780927083335,
      "v": 64
    },
    {
      "midi": 57,
      "hit": false,
      "t": 26662.59893229169,
      "d": 488.780927083335,
      "v": 64
    },
    {
      "midi": 60,
      "hit": false,
      "t": 26662.59893229169,
      "d": 488.780927083335,
      "v": 64
    },
    {
      "midi": 53,
      "hit": false,
      "t": 26662.59893229169,
      "d": 488.780927083335,
      "v": 64
    },
    {
      "midi": 57,
      "hit": false,
      "t": 26662.59893229169,
      "d": 488.780927083335,
      "v": 64
    },
    {
      "midi": 60,
      "hit": false,
      "t": 26662.59893229169,
      "d": 488.780927083335,
      "v": 64
    },
    {
      "midi": 53,
      "hit": false,
      "t": 27175.418265625027,
      "d": 488.78092708333133,
      "v": 64
    },
    {
      "midi": 57,
      "hit": false,
      "t": 27175.418265625027,
      "d": 488.78092708333133,
      "v": 64
    },
    {
      "midi": 62,
      "hit": false,
      "t": 27175.418265625027,
      "d": 488.78092708333133,
      "v": 64
    },
    {
      "midi": 53,
      "hit": false,
      "t": 27175.418265625027,
      "d": 488.78092708333133,
      "v": 64
    },
    {
      "midi": 57,
      "hit": false,
      "t": 27175.418265625027,
      "d": 488.78092708333133,
      "v": 64
    },
    {
      "midi": 62,
      "hit": false,
      "t": 27175.418265625027,
      "d": 488.78092708333133,
      "v": 64
    },
    {
      "midi": 31,
      "hit": false,
      "t": 27560.032765625027,
      "d": 128.20483333333323,
      "v": 64
    },
    {
      "midi": 31,
      "hit": false,
      "t": 27560.032765625027,
      "d": 128.20483333333323,
      "v": 64
    },
    {
      "midi": 36,
      "hit": false,
      "t": 27688.23759895836,
      "d": 1514.4195937500008,
      "v": 64
    },
    {
      "midi": 48,
      "hit": false,
      "t": 27688.23759895836,
      "d": 1514.4195937500008,
      "v": 64
    },
    {
      "midi": 60,
      "hit": false,
      "t": 27688.23759895836,
      "d": 1514.4195937500008,
      "v": 64
    },
    {
      "midi": 55,
      "hit": false,
      "t": 27688.23759895836,
      "d": 2003.2005208333358,
      "v": 64
    },
    {
      "midi": 64,
      "hit": false,
      "t": 27688.23759895836,
      "d": 2027.2389270833373,
      "v": 64
    },
    {
      "midi": 36,
      "hit": false,
      "t": 27688.23759895836,
      "d": 1514.4195937500008,
      "v": 64
    },
    {
      "midi": 48,
      "hit": false,
      "t": 27688.23759895836,
      "d": 1514.4195937500008,
      "v": 64
    },
    {
      "midi": 60,
      "hit": false,
      "t": 27688.23759895836,
      "d": 1514.4195937500008,
      "v": 64
    },
    {
      "midi": 55,
      "hit": false,
      "t": 27688.23759895836,
      "d": 2003.2005208333358,
      "v": 64
    },
    {
      "midi": 64,
      "hit": false,
      "t": 27688.23759895836,
      "d": 2027.2389270833373,
      "v": 64
    },
    {
      "midi": 60,
      "hit": false,
      "t": 29226.695598958362,
      "d": 488.780927083335,
      "v": 64
    },
    {
      "midi": 36,
      "hit": false,
      "t": 29226.695598958362,
      "d": 1410.2531666666691,
      "v": 64
    },
    {
      "midi": 48,
      "hit": false,
      "t": 29226.695598958362,
      "d": 1514.4195937500008,
      "v": 64
    },
    {
      "midi": 60,
      "hit": false,
      "t": 29226.695598958362,
      "d": 488.780927083335,
      "v": 64
    },
    {
      "midi": 36,
      "hit": false,
      "t": 29226.695598958362,
      "d": 1410.2531666666691,
      "v": 64
    },
    {
      "midi": 48,
      "hit": false,
      "t": 29226.695598958362,
      "d": 1514.4195937500008,
      "v": 64
    },
    {
      "midi": 55,
      "hit": false,
      "t": 29739.5149322917,
      "d": 384.6144999999997,
      "v": 64
    },
    {
      "midi": 64,
      "hit": false,
      "t": 29739.5149322917,
      "d": 384.6144999999997,
      "v": 64
    },
    {
      "midi": 60,
      "hit": false,
      "t": 29739.5149322917,
      "d": 540.864140624999,
      "v": 64
    },
    {
      "midi": 55,
      "hit": false,
      "t": 29739.5149322917,
      "d": 384.6144999999997,
      "v": 64
    },
    {
      "midi": 64,
      "hit": false,
      "t": 29739.5149322917,
      "d": 384.6144999999997,
      "v": 64
    },
    {
      "midi": 60,
      "hit": false,
      "t": 29739.5149322917,
      "d": 540.864140624999,
      "v": 64
    },
    {
      "midi": 55,
      "hit": false,
      "t": 30252.33426562503,
      "d": 384.6144999999997,
      "v": 64
    },
    {
      "midi": 62,
      "hit": false,
      "t": 30252.33426562503,
      "d": 384.6144999999997,
      "v": 64
    },
    {
      "midi": 65,
      "hit": false,
      "t": 30252.33426562503,
      "d": 384.6144999999997,
      "v": 64
    },
    {
      "midi": 55,
      "hit": false,
      "t": 30252.33426562503,
      "d": 384.6144999999997,
      "v": 64
    },
    {
      "midi": 62,
      "hit": false,
      "t": 30252.33426562503,
      "d": 384.6144999999997,
      "v": 64
    },
    {
      "midi": 65,
      "hit": false,
      "t": 30252.33426562503,
      "d": 384.6144999999997,
      "v": 64
    },
    {
      "midi": 26,
      "hit": false,
      "t": 30572.846348958363,
      "d": 192.30725000000166,
      "v": 64
    },
    {
      "midi": 26,
      "hit": false,
      "t": 30572.846348958363,
      "d": 192.30725000000166,
      "v": 64
    },
    {
      "midi": 31,
      "hit": false,
      "t": 30765.153598958364,
      "d": 1105.7666874999995,
      "v": 64
    },
    {
      "midi": 43,
      "hit": false,
      "t": 30765.153598958364,
      "d": 1514.4195937499971,
      "v": 64
    },
    {
      "midi": 55,
      "hit": false,
      "t": 30765.153598958364,
      "d": 2027.23892708333,
      "v": 64
    },
    {
      "midi": 59,
      "hit": false,
      "t": 30765.153598958364,
      "d": 2027.23892708333,
      "v": 64
    },
    {
      "midi": 62,
      "hit": false,
      "t": 30765.153598958364,
      "d": 2027.23892708333,
      "v": 64
    },
    {
      "midi": 31,
      "hit": false,
      "t": 30765.153598958364,
      "d": 1105.7666874999995,
      "v": 64
    },
    {
      "midi": 43,
      "hit": false,
      "t": 30765.153598958364,
      "d": 1514.4195937499971,
      "v": 64
    },
    {
      "midi": 55,
      "hit": false,
      "t": 30765.153598958364,
      "d": 2027.23892708333,
      "v": 64
    },
    {
      "midi": 59,
      "hit": false,
      "t": 30765.153598958364,
      "d": 2027.23892708333,
      "v": 64
    },
    {
      "midi": 62,
      "hit": false,
      "t": 30765.153598958364,
      "d": 2027.23892708333,
      "v": 64
    },
    {
      "midi": 31,
      "hit": false,
      "t": 31918.997098958363,
      "d": 208.33285416666695,
      "v": 64
    },
    {
      "midi": 31,
      "hit": false,
      "t": 31918.997098958363,
      "d": 208.33285416666695,
      "v": 64
    },
    {
      "midi": 31,
      "hit": false,
      "t": 32175.40676562503,
      "d": 1282.048333333336,
      "v": 64
    },
    {
      "midi": 31,
      "hit": false,
      "t": 32175.40676562503,
      "d": 1282.048333333336,
      "v": 64
    },
    {
      "midi": 43,
      "hit": false,
      "t": 32303.611598958363,
      "d": 1514.4195937499971,
      "v": 64
    },
    {
      "midi": 43,
      "hit": false,
      "t": 32303.611598958363,
      "d": 1514.4195937499971,
      "v": 64
    },
    {
      "midi": 55,
      "hit": false,
      "t": 32816.430932291696,
      "d": 436.6977135416673,
      "v": 64
    },
    {
      "midi": 59,
      "hit": false,
      "t": 32816.430932291696,
      "d": 436.6977135416673,
      "v": 64
    },
    {
      "midi": 62,
      "hit": false,
      "t": 32816.430932291696,
      "d": 436.6977135416673,
      "v": 64
    },
    {
      "midi": 55,
      "hit": false,
      "t": 32816.430932291696,
      "d": 436.6977135416673,
      "v": 64
    },
    {
      "midi": 59,
      "hit": false,
      "t": 32816.430932291696,
      "d": 436.6977135416673,
      "v": 64
    },
    {
      "midi": 62,
      "hit": false,
      "t": 32816.430932291696,
      "d": 436.6977135416673,
      "v": 64
    },
    {
      "midi": 55,
      "hit": false,
      "t": 33329.25026562503,
      "d": 436.6977135416673,
      "v": 64
    },
    {
      "midi": 60,
      "hit": false,
      "t": 33329.25026562503,
      "d": 436.6977135416673,
      "v": 64
    },
    {
      "midi": 64,
      "hit": false,
      "t": 33329.25026562503,
      "d": 436.6977135416673,
      "v": 64
    },
    {
      "midi": 55,
      "hit": false,
      "t": 33329.25026562503,
      "d": 436.6977135416673,
      "v": 64
    },
    {
      "midi": 60,
      "hit": false,
      "t": 33329.25026562503,
      "d": 436.6977135416673,
      "v": 64
    },
    {
      "midi": 64,
      "hit": false,
      "t": 33329.25026562503,
      "d": 436.6977135416673,
      "v": 64
    },
    {
      "midi": 26,
      "hit": false,
      "t": 33713.86476562503,
      "d": 156.2496406249993,
      "v": 64
    },
    {
      "midi": 26,
      "hit": false,
      "t": 33713.86476562503,
      "d": 156.2496406249993,
      "v": 64
    },
    {
      "midi": 29,
      "hit": false,
      "t": 33842.06959895836,
      "d": 1514.4195937500044,
      "v": 64
    },
    {
      "midi": 41,
      "hit": false,
      "t": 33842.06959895836,
      "d": 1514.4195937500044,
      "v": 64
    },
    {
      "midi": 53,
      "hit": false,
      "t": 33842.06959895836,
      "d": 2027.2389270833373,
      "v": 64
    },
    {
      "midi": 57,
      "hit": false,
      "t": 33842.06959895836,
      "d": 2027.2389270833373,
      "v": 64
    },
    {
      "midi": 60,
      "hit": false,
      "t": 33842.06959895836,
      "d": 2027.2389270833373,
      "v": 64
    },
    {
      "midi": 65,
      "hit": false,
      "t": 33842.06959895836,
      "d": 2027.2389270833373,
      "v": 64
    },
    {
      "midi": 29,
      "hit": false,
      "t": 33842.06959895836,
      "d": 1514.4195937500044,
      "v": 64
    },
    {
      "midi": 41,
      "hit": false,
      "t": 33842.06959895836,
      "d": 1514.4195937500044,
      "v": 64
    },
    {
      "midi": 53,
      "hit": false,
      "t": 33842.06959895836,
      "d": 2027.2389270833373,
      "v": 64
    },
    {
      "midi": 57,
      "hit": false,
      "t": 33842.06959895836,
      "d": 2027.2389270833373,
      "v": 64
    },
    {
      "midi": 60,
      "hit": false,
      "t": 33842.06959895836,
      "d": 2027.2389270833373,
      "v": 64
    },
    {
      "midi": 65,
      "hit": false,
      "t": 33842.06959895836,
      "d": 2027.2389270833373,
      "v": 64
    },
    {
      "midi": 29,
      "hit": false,
      "t": 35380.52759895837,
      "d": 1410.2531666666691,
      "v": 64
    },
    {
      "midi": 41,
      "hit": false,
      "t": 35380.52759895837,
      "d": 1514.4195937500044,
      "v": 64
    },
    {
      "midi": 29,
      "hit": false,
      "t": 35380.52759895837,
      "d": 1410.2531666666691,
      "v": 64
    },
    {
      "midi": 41,
      "hit": false,
      "t": 35380.52759895837,
      "d": 1514.4195937500044,
      "v": 64
    },
    {
      "midi": 65,
      "hit": false,
      "t": 35893.3469322917,
      "d": 360.57609375000175,
      "v": 64
    },
    {
      "midi": 53,
      "hit": false,
      "t": 35893.3469322917,
      "d": 412.65930729166575,
      "v": 64
    },
    {
      "midi": 55,
      "hit": false,
      "t": 35893.3469322917,
      "d": 412.65930729166575,
      "v": 64
    },
    {
      "midi": 60,
      "hit": false,
      "t": 35893.3469322917,
      "d": 412.65930729166575,
      "v": 64
    },
    {
      "midi": 65,
      "hit": false,
      "t": 35893.3469322917,
      "d": 360.57609375000175,
      "v": 64
    },
    {
      "midi": 53,
      "hit": false,
      "t": 35893.3469322917,
      "d": 412.65930729166575,
      "v": 64
    },
    {
      "midi": 55,
      "hit": false,
      "t": 35893.3469322917,
      "d": 412.65930729166575,
      "v": 64
    },
    {
      "midi": 60,
      "hit": false,
      "t": 35893.3469322917,
      "d": 412.65930729166575,
      "v": 64
    },
    {
      "midi": 55,
      "hit": false,
      "t": 36406.166265625034,
      "d": 336.5376875000002,
      "v": 64
    },
    {
      "midi": 53,
      "hit": false,
      "t": 36406.166265625034,
      "d": 360.57609375000175,
      "v": 64
    },
    {
      "midi": 65,
      "hit": false,
      "t": 36406.166265625034,
      "d": 360.57609375000175,
      "v": 64
    },
    {
      "midi": 60,
      "hit": false,
      "t": 36406.166265625034,
      "d": 412.65930729167303,
      "v": 64
    },
    {
      "midi": 55,
      "hit": false,
      "t": 36406.166265625034,
      "d": 336.5376875000002,
      "v": 64
    },
    {
      "midi": 53,
      "hit": false,
      "t": 36406.166265625034,
      "d": 360.57609375000175,
      "v": 64
    },
    {
      "midi": 65,
      "hit": false,
      "t": 36406.166265625034,
      "d": 360.57609375000175,
      "v": 64
    },
    {
      "midi": 60,
      "hit": false,
      "t": 36406.166265625034,
      "d": 412.65930729167303,
      "v": 64
    },
    {
      "midi": 26,
      "hit": false,
      "t": 36790.78076562504,
      "d": 132.211234375005,
      "v": 64
    },
    {
      "midi": 26,
      "hit": false,
      "t": 36790.78076562504,
      "d": 132.211234375005,
      "v": 64
    },
    {
      "midi": 55,
      "hit": false,
      "t": 36922.99200000004,
      "d": 128.20483333333686,
      "v": 64
    },
    {
      "midi": 29,
      "hit": false,
      "t": 36922.99200000004,
      "d": 1510.4131927083363,
      "v": 64
    },
    {
      "midi": 41,
      "hit": false,
      "t": 36922.99200000004,
      "d": 1510.4131927083363,
      "v": 64
    },
    {
      "midi": 53,
      "hit": false,
      "t": 36922.99200000004,
      "d": 1510.4131927083363,
      "v": 64
    },
    {
      "midi": 65,
      "hit": false,
      "t": 36922.99200000004,
      "d": 1999.194119791675,
      "v": 64
    },
    {
      "midi": 60,
      "hit": false,
      "t": 36922.99200000004,
      "d": 2023.2325260416765,
      "v": 64
    },
    {
      "midi": 55,
      "hit": false,
      "t": 36922.99200000004,
      "d": 128.20483333333686,
      "v": 64
    },
    {
      "midi": 29,
      "hit": false,
      "t": 36922.99200000004,
      "d": 1510.4131927083363,
      "v": 64
    },
    {
      "midi": 41,
      "hit": false,
      "t": 36922.99200000004,
      "d": 1510.4131927083363,
      "v": 64
    },
    {
      "midi": 53,
      "hit": false,
      "t": 36922.99200000004,
      "d": 1510.4131927083363,
      "v": 64
    },
    {
      "midi": 65,
      "hit": false,
      "t": 36922.99200000004,
      "d": 1999.194119791675,
      "v": 64
    },
    {
      "midi": 60,
      "hit": false,
      "t": 36922.99200000004,
      "d": 2023.2325260416765,
      "v": 64
    },
    {
      "midi": 57,
      "hit": false,
      "t": 37051.19683333338,
      "d": 1895.0276927083396,
      "v": 64
    },
    {
      "midi": 57,
      "hit": false,
      "t": 37051.19683333338,
      "d": 1895.0276927083396,
      "v": 64
    },
    {
      "midi": 41,
      "hit": false,
      "t": 38461.45000000005,
      "d": 228.36485937499674,
      "v": 64
    },
    {
      "midi": 53,
      "hit": false,
      "t": 38461.45000000005,
      "d": 484.77452604167047,
      "v": 64
    },
    {
      "midi": 29,
      "hit": false,
      "t": 38461.45000000005,
      "d": 1510.4131927083436,
      "v": 64
    },
    {
      "midi": 41,
      "hit": false,
      "t": 38461.45000000005,
      "d": 228.36485937499674,
      "v": 64
    },
    {
      "midi": 53,
      "hit": false,
      "t": 38461.45000000005,
      "d": 484.77452604167047,
      "v": 64
    },
    {
      "midi": 29,
      "hit": false,
      "t": 38461.45000000005,
      "d": 1510.4131927083436,
      "v": 64
    },
    {
      "midi": 41,
      "hit": false,
      "t": 38717.859666666714,
      "d": 1254.003526041677,
      "v": 64
    },
    {
      "midi": 41,
      "hit": false,
      "t": 38717.859666666714,
      "d": 1254.003526041677,
      "v": 64
    },
    {
      "midi": 53,
      "hit": false,
      "t": 38974.26933333339,
      "d": 484.7745260416632,
      "v": 64
    },
    {
      "midi": 57,
      "hit": false,
      "t": 38974.26933333339,
      "d": 484.7745260416632,
      "v": 64
    },
    {
      "midi": 60,
      "hit": false,
      "t": 38974.26933333339,
      "d": 484.7745260416632,
      "v": 64
    },
    {
      "midi": 53,
      "hit": false,
      "t": 38974.26933333339,
      "d": 484.7745260416632,
      "v": 64
    },
    {
      "midi": 57,
      "hit": false,
      "t": 38974.26933333339,
      "d": 484.7745260416632,
      "v": 64
    },
    {
      "midi": 60,
      "hit": false,
      "t": 38974.26933333339,
      "d": 484.7745260416632,
      "v": 64
    },
    {
      "midi": 53,
      "hit": false,
      "t": 39487.08866666672,
      "d": 484.77452604167047,
      "v": 64
    },
    {
      "midi": 57,
      "hit": false,
      "t": 39487.08866666672,
      "d": 484.77452604167047,
      "v": 64
    },
    {
      "midi": 62,
      "hit": false,
      "t": 39487.08866666672,
      "d": 484.77452604167047,
      "v": 64
    },
    {
      "midi": 53,
      "hit": false,
      "t": 39487.08866666672,
      "d": 484.77452604167047,
      "v": 64
    },
    {
      "midi": 57,
      "hit": false,
      "t": 39487.08866666672,
      "d": 484.77452604167047,
      "v": 64
    },
    {
      "midi": 62,
      "hit": false,
      "t": 39487.08866666672,
      "d": 484.77452604167047,
      "v": 64
    },
    {
      "midi": 31,
      "hit": false,
      "t": 39871.703166666724,
      "d": 128.20483333333686,
      "v": 64
    },
    {
      "midi": 31,
      "hit": false,
      "t": 39871.703166666724,
      "d": 128.20483333333686,
      "v": 64
    },
    {
      "midi": 36,
      "hit": false,
      "t": 39999.90800000006,
      "d": 1510.4131927083363,
      "v": 64
    },
    {
      "midi": 48,
      "hit": false,
      "t": 39999.90800000006,
      "d": 1510.4131927083363,
      "v": 64
    },
    {
      "midi": 60,
      "hit": false,
      "t": 39999.90800000006,
      "d": 1510.4131927083363,
      "v": 64
    },
    {
      "midi": 55,
      "hit": false,
      "t": 39999.90800000006,
      "d": 1999.194119791675,
      "v": 64
    },
    {
      "midi": 64,
      "hit": false,
      "t": 39999.90800000006,
      "d": 2023.2325260416765,
      "v": 64
    },
    {
      "midi": 36,
      "hit": false,
      "t": 39999.90800000006,
      "d": 1510.4131927083363,
      "v": 64
    },
    {
      "midi": 48,
      "hit": false,
      "t": 39999.90800000006,
      "d": 1510.4131927083363,
      "v": 64
    },
    {
      "midi": 60,
      "hit": false,
      "t": 39999.90800000006,
      "d": 1510.4131927083363,
      "v": 64
    },
    {
      "midi": 55,
      "hit": false,
      "t": 39999.90800000006,
      "d": 1999.194119791675,
      "v": 64
    },
    {
      "midi": 64,
      "hit": false,
      "t": 39999.90800000006,
      "d": 2023.2325260416765,
      "v": 64
    },
    {
      "midi": 60,
      "hit": false,
      "t": 41538.36600000007,
      "d": 484.77452604167047,
      "v": 64
    },
    {
      "midi": 36,
      "hit": false,
      "t": 41538.36600000007,
      "d": 1410.2531666666837,
      "v": 64
    },
    {
      "midi": 48,
      "hit": false,
      "t": 41538.36600000007,
      "d": 1510.4131927083508,
      "v": 64
    },
    {
      "midi": 60,
      "hit": false,
      "t": 41538.36600000007,
      "d": 484.77452604167047,
      "v": 64
    },
    {
      "midi": 36,
      "hit": false,
      "t": 41538.36600000007,
      "d": 1410.2531666666837,
      "v": 64
    },
    {
      "midi": 48,
      "hit": false,
      "t": 41538.36600000007,
      "d": 1510.4131927083508,
      "v": 64
    },
    {
      "midi": 55,
      "hit": false,
      "t": 42051.18533333341,
      "d": 384.6145000000033,
      "v": 64
    },
    {
      "midi": 64,
      "hit": false,
      "t": 42051.18533333341,
      "d": 384.6145000000033,
      "v": 64
    },
    {
      "midi": 60,
      "hit": false,
      "t": 42051.18533333341,
      "d": 536.8577395833418,
      "v": 64
    },
    {
      "midi": 55,
      "hit": false,
      "t": 42051.18533333341,
      "d": 384.6145000000033,
      "v": 64
    },
    {
      "midi": 64,
      "hit": false,
      "t": 42051.18533333341,
      "d": 384.6145000000033,
      "v": 64
    },
    {
      "midi": 60,
      "hit": false,
      "t": 42051.18533333341,
      "d": 536.8577395833418,
      "v": 64
    },
    {
      "midi": 55,
      "hit": false,
      "t": 42564.00466666675,
      "d": 384.6145000000033,
      "v": 64
    },
    {
      "midi": 62,
      "hit": false,
      "t": 42564.00466666675,
      "d": 384.6145000000033,
      "v": 64
    },
    {
      "midi": 65,
      "hit": false,
      "t": 42564.00466666675,
      "d": 384.6145000000033,
      "v": 64
    },
    {
      "midi": 55,
      "hit": false,
      "t": 42564.00466666675,
      "d": 384.6145000000033,
      "v": 64
    },
    {
      "midi": 62,
      "hit": false,
      "t": 42564.00466666675,
      "d": 384.6145000000033,
      "v": 64
    },
    {
      "midi": 65,
      "hit": false,
      "t": 42564.00466666675,
      "d": 384.6145000000033,
      "v": 64
    },
    {
      "midi": 26,
      "hit": false,
      "t": 42884.51675000008,
      "d": 192.3072500000053,
      "v": 64
    },
    {
      "midi": 26,
      "hit": false,
      "t": 42884.51675000008,
      "d": 192.3072500000053,
      "v": 64
    },
    {
      "midi": 31,
      "hit": false,
      "t": 43076.82400000009,
      "d": 1101.7602864583314,
      "v": 64
    },
    {
      "midi": 43,
      "hit": false,
      "t": 43076.82400000009,
      "d": 1510.413192708329,
      "v": 64
    },
    {
      "midi": 55,
      "hit": false,
      "t": 43076.82400000009,
      "d": 2023.232526041662,
      "v": 64
    },
    {
      "midi": 59,
      "hit": false,
      "t": 43076.82400000009,
      "d": 2023.232526041662,
      "v": 64
    },
    {
      "midi": 62,
      "hit": false,
      "t": 43076.82400000009,
      "d": 2023.232526041662,
      "v": 64
    },
    {
      "midi": 31,
      "hit": false,
      "t": 43076.82400000009,
      "d": 1101.7602864583314,
      "v": 64
    },
    {
      "midi": 43,
      "hit": false,
      "t": 43076.82400000009,
      "d": 1510.413192708329,
      "v": 64
    },
    {
      "midi": 55,
      "hit": false,
      "t": 43076.82400000009,
      "d": 2023.232526041662,
      "v": 64
    },
    {
      "midi": 59,
      "hit": false,
      "t": 43076.82400000009,
      "d": 2023.232526041662,
      "v": 64
    },
    {
      "midi": 62,
      "hit": false,
      "t": 43076.82400000009,
      "d": 2023.232526041662,
      "v": 64
    },
    {
      "midi": 31,
      "hit": false,
      "t": 44230.66750000008,
      "d": 204.32645312500244,
      "v": 64
    },
    {
      "midi": 31,
      "hit": false,
      "t": 44230.66750000008,
      "d": 204.32645312500244,
      "v": 64
    },
    {
      "midi": 31,
      "hit": false,
      "t": 44487.07716666675,
      "d": 1282.0483333333395,
      "v": 64
    },
    {
      "midi": 31,
      "hit": false,
      "t": 44487.07716666675,
      "d": 1282.0483333333395,
      "v": 64
    },
    {
      "midi": 43,
      "hit": false,
      "t": 44615.28200000009,
      "d": 1510.4131927083363,
      "v": 64
    },
    {
      "midi": 43,
      "hit": false,
      "t": 44615.28200000009,
      "d": 1510.4131927083363,
      "v": 64
    },
    {
      "midi": 55,
      "hit": false,
      "t": 45128.10133333342,
      "d": 432.6913124999992,
      "v": 64
    },
    {
      "midi": 59,
      "hit": false,
      "t": 45128.10133333342,
      "d": 432.6913124999992,
      "v": 64
    },
    {
      "midi": 62,
      "hit": false,
      "t": 45128.10133333342,
      "d": 432.6913124999992,
      "v": 64
    },
    {
      "midi": 55,
      "hit": false,
      "t": 45128.10133333342,
      "d": 432.6913124999992,
      "v": 64
    },
    {
      "midi": 59,
      "hit": false,
      "t": 45128.10133333342,
      "d": 432.6913124999992,
      "v": 64
    },
    {
      "midi": 62,
      "hit": false,
      "t": 45128.10133333342,
      "d": 432.6913124999992,
      "v": 64
    },
    {
      "midi": 55,
      "hit": false,
      "t": 45640.92066666675,
      "d": 432.69131250000646,
      "v": 64
    },
    {
      "midi": 60,
      "hit": false,
      "t": 45640.92066666675,
      "d": 432.69131250000646,
      "v": 64
    },
    {
      "midi": 64,
      "hit": false,
      "t": 45640.92066666675,
      "d": 432.69131250000646,
      "v": 64
    },
    {
      "midi": 55,
      "hit": false,
      "t": 45640.92066666675,
      "d": 432.69131250000646,
      "v": 64
    },
    {
      "midi": 60,
      "hit": false,
      "t": 45640.92066666675,
      "d": 432.69131250000646,
      "v": 64
    },
    {
      "midi": 64,
      "hit": false,
      "t": 45640.92066666675,
      "d": 432.69131250000646,
      "v": 64
    },
    {
      "midi": 26,
      "hit": false,
      "t": 46025.535166666756,
      "d": 152.24323958333844,
      "v": 64
    },
    {
      "midi": 26,
      "hit": false,
      "t": 46025.535166666756,
      "d": 152.24323958333844,
      "v": 64
    },
    {
      "midi": 41,
      "hit": false,
      "t": 46153.74000000009,
      "d": 973.5554531250018,
      "v": 64
    },
    {
      "midi": 29,
      "hit": false,
      "t": 46153.74000000009,
      "d": 1510.4131927083363,
      "v": 64
    },
    {
      "midi": 60,
      "hit": false,
      "t": 46153.74000000009,
      "d": 1895.0276927083396,
      "v": 64
    },
    {
      "midi": 53,
      "hit": false,
      "t": 46153.74000000009,
      "d": 1923.0725000000093,
      "v": 64
    },
    {
      "midi": 57,
      "hit": false,
      "t": 46153.74000000009,
      "d": 2051.277333333346,
      "v": 64
    },
    {
      "midi": 65,
      "hit": false,
      "t": 46153.74000000009,
      "d": 6125.787192708376,
      "v": 64
    },
    {
      "midi": 41,
      "hit": false,
      "t": 46153.74000000009,
      "d": 973.5554531250018,
      "v": 64
    },
    {
      "midi": 29,
      "hit": false,
      "t": 46153.74000000009,
      "d": 1510.4131927083363,
      "v": 64
    },
    {
      "midi": 60,
      "hit": false,
      "t": 46153.74000000009,
      "d": 1895.0276927083396,
      "v": 64
    },
    {
      "midi": 53,
      "hit": false,
      "t": 46153.74000000009,
      "d": 1923.0725000000093,
      "v": 64
    },
    {
      "midi": 57,
      "hit": false,
      "t": 46153.74000000009,
      "d": 2051.277333333346,
      "v": 64
    },
    {
      "midi": 65,
      "hit": false,
      "t": 46153.74000000009,
      "d": 6125.787192708376,
      "v": 64
    },
    {
      "midi": 41,
      "hit": false,
      "t": 47179.37866666676,
      "d": 460.7361197916689,
      "v": 64
    },
    {
      "midi": 41,
      "hit": false,
      "t": 47179.37866666676,
      "d": 460.7361197916689,
      "v": 64
    },
    {
      "midi": 41,
      "hit": false,
      "t": 47692.1980000001,
      "d": 588.9409531250058,
      "v": 64
    },
    {
      "midi": 29,
      "hit": false,
      "t": 47692.1980000001,
      "d": 1410.2531666666764,
      "v": 64
    },
    {
      "midi": 41,
      "hit": false,
      "t": 47692.1980000001,
      "d": 588.9409531250058,
      "v": 64
    },
    {
      "midi": 29,
      "hit": false,
      "t": 47692.1980000001,
      "d": 1410.2531666666764,
      "v": 64
    },
    {
      "midi": 55,
      "hit": false,
      "t": 48076.8125000001,
      "d": 228.36485937500402,
      "v": 64
    },
    {
      "midi": 60,
      "hit": false,
      "t": 48076.8125000001,
      "d": 228.36485937500402,
      "v": 64
    },
    {
      "midi": 55,
      "hit": false,
      "t": 48076.8125000001,
      "d": 228.36485937500402,
      "v": 64
    },
    {
      "midi": 60,
      "hit": false,
      "t": 48076.8125000001,
      "d": 228.36485937500402,
      "v": 64
    },
    {
      "midi": 41,
      "hit": false,
      "t": 48333.222166666776,
      "d": 460.7361197916689,
      "v": 64
    },
    {
      "midi": 41,
      "hit": false,
      "t": 48333.222166666776,
      "d": 460.7361197916689,
      "v": 64
    },
    {
      "midi": 57,
      "hit": false,
      "t": 48461.42700000011,
      "d": 717.1457864583281,
      "v": 64
    },
    {
      "midi": 60,
      "hit": false,
      "t": 48461.42700000011,
      "d": 741.1841927083296,
      "v": 64
    },
    {
      "midi": 57,
      "hit": false,
      "t": 48461.42700000011,
      "d": 717.1457864583281,
      "v": 64
    },
    {
      "midi": 60,
      "hit": false,
      "t": 48461.42700000011,
      "d": 741.1841927083296,
      "v": 64
    },
    {
      "midi": 41,
      "hit": false,
      "t": 48846.04150000011,
      "d": 280.448072916668,
      "v": 64
    },
    {
      "midi": 41,
      "hit": false,
      "t": 48846.04150000011,
      "d": 280.448072916668,
      "v": 64
    },
    {
      "midi": 36,
      "hit": false,
      "t": 49102.451166666775,
      "d": 128.20483333333686,
      "v": 64
    },
    {
      "midi": 36,
      "hit": false,
      "t": 49102.451166666775,
      "d": 128.20483333333686,
      "v": 64
    },
    {
      "midi": 29,
      "hit": false,
      "t": 49230.65600000011,
      "d": 3048.871192708357,
      "v": 64
    },
    {
      "midi": 29,
      "hit": false,
      "t": 49230.65600000011,
      "d": 3048.871192708357,
      "v": 64
    },
    {
      "midi": 55,
      "hit": false,
      "t": 49615.270500000115,
      "d": 256.40966666666645,
      "v": 64
    },
    {
      "midi": 60,
      "hit": false,
      "t": 49615.270500000115,
      "d": 280.448072916668,
      "v": 64
    },
    {
      "midi": 41,
      "hit": false,
      "t": 49615.270500000115,
      "d": 356.5696927083336,
      "v": 64
    },
    {
      "midi": 55,
      "hit": false,
      "t": 49615.270500000115,
      "d": 256.40966666666645,
      "v": 64
    },
    {
      "midi": 60,
      "hit": false,
      "t": 49615.270500000115,
      "d": 280.448072916668,
      "v": 64
    },
    {
      "midi": 41,
      "hit": false,
      "t": 49615.270500000115,
      "d": 356.5696927083336,
      "v": 64
    },
    {
      "midi": 57,
      "hit": false,
      "t": 49871.68016666678,
      "d": 100.16002604166715,
      "v": 27
    },
    {
      "midi": 57,
      "hit": false,
      "t": 49871.68016666678,
      "d": 100.16002604166715,
      "v": 27
    },
    {
      "midi": 55,
      "hit": false,
      "t": 49999.88500000012,
      "d": 256.40966666666645,
      "v": 64
    },
    {
      "midi": 60,
      "hit": false,
      "t": 49999.88500000012,
      "d": 256.40966666666645,
      "v": 64
    },
    {
      "midi": 41,
      "hit": false,
      "t": 49999.88500000012,
      "d": 356.5696927083336,
      "v": 64
    },
    {
      "midi": 55,
      "hit": false,
      "t": 49999.88500000012,
      "d": 256.40966666666645,
      "v": 64
    },
    {
      "midi": 60,
      "hit": false,
      "t": 49999.88500000012,
      "d": 256.40966666666645,
      "v": 64
    },
    {
      "midi": 41,
      "hit": false,
      "t": 49999.88500000012,
      "d": 356.5696927083336,
      "v": 64
    },
    {
      "midi": 57,
      "hit": false,
      "t": 50256.294666666785,
      "d": 100.16002604166715,
      "v": 27
    },
    {
      "midi": 57,
      "hit": false,
      "t": 50256.294666666785,
      "d": 100.16002604166715,
      "v": 27
    },
    {
      "midi": 55,
      "hit": false,
      "t": 50384.49950000012,
      "d": 256.40966666666645,
      "v": 64
    },
    {
      "midi": 60,
      "hit": false,
      "t": 50384.49950000012,
      "d": 256.40966666666645,
      "v": 64
    },
    {
      "midi": 41,
      "hit": false,
      "t": 50384.49950000012,
      "d": 356.5696927083336,
      "v": 64
    },
    {
      "midi": 55,
      "hit": false,
      "t": 50384.49950000012,
      "d": 256.40966666666645,
      "v": 64
    },
    {
      "midi": 60,
      "hit": false,
      "t": 50384.49950000012,
      "d": 256.40966666666645,
      "v": 64
    },
    {
      "midi": 41,
      "hit": false,
      "t": 50384.49950000012,
      "d": 356.5696927083336,
      "v": 64
    },
    {
      "midi": 57,
      "hit": false,
      "t": 50640.90916666679,
      "d": 100.16002604166715,
      "v": 27
    },
    {
      "midi": 57,
      "hit": false,
      "t": 50640.90916666679,
      "d": 100.16002604166715,
      "v": 27
    },
    {
      "midi": 55,
      "hit": false,
      "t": 50769.114000000125,
      "d": 256.40966666666645,
      "v": 64
    },
    {
      "midi": 60,
      "hit": false,
      "t": 50769.114000000125,
      "d": 256.40966666666645,
      "v": 64
    },
    {
      "midi": 41,
      "hit": false,
      "t": 50769.114000000125,
      "d": 356.5696927083336,
      "v": 64
    },
    {
      "midi": 55,
      "hit": false,
      "t": 50769.114000000125,
      "d": 256.40966666666645,
      "v": 64
    },
    {
      "midi": 60,
      "hit": false,
      "t": 50769.114000000125,
      "d": 256.40966666666645,
      "v": 64
    },
    {
      "midi": 41,
      "hit": false,
      "t": 50769.114000000125,
      "d": 356.5696927083336,
      "v": 64
    },
    {
      "midi": 57,
      "hit": false,
      "t": 51025.52366666679,
      "d": 100.16002604166715,
      "v": 27
    },
    {
      "midi": 57,
      "hit": false,
      "t": 51025.52366666679,
      "d": 100.16002604166715,
      "v": 27
    },
    {
      "midi": 55,
      "hit": false,
      "t": 51153.72850000013,
      "d": 256.40966666666645,
      "v": 64
    },
    {
      "midi": 60,
      "hit": false,
      "t": 51153.72850000013,
      "d": 256.40966666666645,
      "v": 64
    },
    {
      "midi": 41,
      "hit": false,
      "t": 51153.72850000013,
      "d": 356.5696927083336,
      "v": 64
    },
    {
      "midi": 55,
      "hit": false,
      "t": 51153.72850000013,
      "d": 256.40966666666645,
      "v": 64
    },
    {
      "midi": 60,
      "hit": false,
      "t": 51153.72850000013,
      "d": 256.40966666666645,
      "v": 64
    },
    {
      "midi": 41,
      "hit": false,
      "t": 51153.72850000013,
      "d": 356.5696927083336,
      "v": 64
    },
    {
      "midi": 53,
      "hit": false,
      "t": 51410.138166666795,
      "d": 128.20483333333686,
      "v": 64
    },
    {
      "midi": 53,
      "hit": false,
      "t": 51410.138166666795,
      "d": 128.20483333333686,
      "v": 64
    },
    {
      "midi": 55,
      "hit": false,
      "t": 51538.34300000013,
      "d": 280.448072916668,
      "v": 64
    },
    {
      "midi": 41,
      "hit": false,
      "t": 51538.34300000013,
      "d": 717.1457864583354,
      "v": 64
    },
    {
      "midi": 60,
      "hit": false,
      "t": 51538.34300000013,
      "d": 741.1841927083369,
      "v": 64
    },
    {
      "midi": 55,
      "hit": false,
      "t": 51538.34300000013,
      "d": 280.448072916668,
      "v": 64
    },
    {
      "midi": 41,
      "hit": false,
      "t": 51538.34300000013,
      "d": 717.1457864583354,
      "v": 64
    },
    {
      "midi": 60,
      "hit": false,
      "t": 51538.34300000013,
      "d": 741.1841927083369,
      "v": 64
    },
    {
      "midi": 57,
      "hit": false,
      "t": 51794.7526666668,
      "d": 356.5696927083336,
      "v": 64
    },
    {
      "midi": 57,
      "hit": false,
      "t": 51794.7526666668,
      "d": 356.5696927083336,
      "v": 64
    },
    {
      "midi": 55,
      "hit": false,
      "t": 52307.57200000014,
      "d": 741.1841927083369,
      "v": 45
    },
    {
      "midi": 59,
      "hit": false,
      "t": 52307.57200000014,
      "d": 741.1841927083369,
      "v": 45
    },
    {
      "midi": 62,
      "hit": false,
      "t": 52307.57200000014,
      "d": 741.1841927083369,
      "v": 45
    },
    {
      "midi": 31,
      "hit": false,
      "t": 52307.57200000014,
      "d": 3048.871192708357,
      "v": 44
    },
    {
      "midi": 55,
      "hit": false,
      "t": 52307.57200000014,
      "d": 741.1841927083369,
      "v": 45
    },
    {
      "midi": 59,
      "hit": false,
      "t": 52307.57200000014,
      "d": 741.1841927083369,
      "v": 45
    },
    {
      "midi": 62,
      "hit": false,
      "t": 52307.57200000014,
      "d": 741.1841927083369,
      "v": 45
    },
    {
      "midi": 31,
      "hit": false,
      "t": 52307.57200000014,
      "d": 3048.871192708357,
      "v": 44
    },
    {
      "midi": 55,
      "hit": false,
      "t": 53076.801000000145,
      "d": 741.1841927083369,
      "v": 43
    },
    {
      "midi": 59,
      "hit": false,
      "t": 53076.801000000145,
      "d": 741.1841927083369,
      "v": 43
    },
    {
      "midi": 62,
      "hit": false,
      "t": 53076.801000000145,
      "d": 741.1841927083369,
      "v": 43
    },
    {
      "midi": 55,
      "hit": false,
      "t": 53076.801000000145,
      "d": 741.1841927083369,
      "v": 43
    },
    {
      "midi": 59,
      "hit": false,
      "t": 53076.801000000145,
      "d": 741.1841927083369,
      "v": 43
    },
    {
      "midi": 62,
      "hit": false,
      "t": 53076.801000000145,
      "d": 741.1841927083369,
      "v": 43
    },
    {
      "midi": 55,
      "hit": false,
      "t": 53846.03000000015,
      "d": 741.1841927083369,
      "v": 42
    },
    {
      "midi": 59,
      "hit": false,
      "t": 53846.03000000015,
      "d": 741.1841927083369,
      "v": 42
    },
    {
      "midi": 62,
      "hit": false,
      "t": 53846.03000000015,
      "d": 741.1841927083369,
      "v": 42
    },
    {
      "midi": 55,
      "hit": false,
      "t": 53846.03000000015,
      "d": 741.1841927083369,
      "v": 42
    },
    {
      "midi": 59,
      "hit": false,
      "t": 53846.03000000015,
      "d": 741.1841927083369,
      "v": 42
    },
    {
      "midi": 62,
      "hit": false,
      "t": 53846.03000000015,
      "d": 741.1841927083369,
      "v": 42
    },
    {
      "midi": 55,
      "hit": false,
      "t": 54615.25900000016,
      "d": 741.1841927083369,
      "v": 44
    },
    {
      "midi": 59,
      "hit": false,
      "t": 54615.25900000016,
      "d": 741.1841927083369,
      "v": 44
    },
    {
      "midi": 62,
      "hit": false,
      "t": 54615.25900000016,
      "d": 741.1841927083369,
      "v": 44
    },
    {
      "midi": 55,
      "hit": false,
      "t": 54615.25900000016,
      "d": 741.1841927083369,
      "v": 44
    },
    {
      "midi": 59,
      "hit": false,
      "t": 54615.25900000016,
      "d": 741.1841927083369,
      "v": 44
    },
    {
      "midi": 62,
      "hit": false,
      "t": 54615.25900000016,
      "d": 741.1841927083369,
      "v": 44
    },
    {
      "midi": 54,
      "hit": false,
      "t": 55384.488000000165,
      "d": 741.1841927083369,
      "v": 44
    },
    {
      "midi": 57,
      "hit": false,
      "t": 55384.488000000165,
      "d": 741.1841927083369,
      "v": 44
    },
    {
      "midi": 62,
      "hit": false,
      "t": 55384.488000000165,
      "d": 741.1841927083369,
      "v": 44
    },
    {
      "midi": 66,
      "hit": false,
      "t": 55384.488000000165,
      "d": 741.1841927083369,
      "v": 44
    },
    {
      "midi": 38,
      "hit": false,
      "t": 55384.488000000165,
      "d": 3048.871192708357,
      "v": 44
    },
    {
      "midi": 54,
      "hit": false,
      "t": 55384.488000000165,
      "d": 741.1841927083369,
      "v": 44
    },
    {
      "midi": 57,
      "hit": false,
      "t": 55384.488000000165,
      "d": 741.1841927083369,
      "v": 44
    },
    {
      "midi": 62,
      "hit": false,
      "t": 55384.488000000165,
      "d": 741.1841927083369,
      "v": 44
    },
    {
      "midi": 66,
      "hit": false,
      "t": 55384.488000000165,
      "d": 741.1841927083369,
      "v": 44
    },
    {
      "midi": 38,
      "hit": false,
      "t": 55384.488000000165,
      "d": 3048.871192708357,
      "v": 44
    },
    {
      "midi": 54,
      "hit": false,
      "t": 56153.71700000017,
      "d": 741.1841927083369,
      "v": 44
    },
    {
      "midi": 57,
      "hit": false,
      "t": 56153.71700000017,
      "d": 741.1841927083369,
      "v": 44
    },
    {
      "midi": 62,
      "hit": false,
      "t": 56153.71700000017,
      "d": 741.1841927083369,
      "v": 44
    },
    {
      "midi": 66,
      "hit": false,
      "t": 56153.71700000017,
      "d": 741.1841927083369,
      "v": 44
    },
    {
      "midi": 54,
      "hit": false,
      "t": 56153.71700000017,
      "d": 741.1841927083369,
      "v": 44
    },
    {
      "midi": 57,
      "hit": false,
      "t": 56153.71700000017,
      "d": 741.1841927083369,
      "v": 44
    },
    {
      "midi": 62,
      "hit": false,
      "t": 56153.71700000017,
      "d": 741.1841927083369,
      "v": 44
    },
    {
      "midi": 66,
      "hit": false,
      "t": 56153.71700000017,
      "d": 741.1841927083369,
      "v": 44
    },
    {
      "midi": 54,
      "hit": false,
      "t": 56922.94600000018,
      "d": 741.1841927083369,
      "v": 44
    },
    {
      "midi": 57,
      "hit": false,
      "t": 56922.94600000018,
      "d": 741.1841927083369,
      "v": 44
    },
    {
      "midi": 62,
      "hit": false,
      "t": 56922.94600000018,
      "d": 741.1841927083369,
      "v": 44
    },
    {
      "midi": 66,
      "hit": false,
      "t": 56922.94600000018,
      "d": 741.1841927083369,
      "v": 44
    },
    {
      "midi": 54,
      "hit": false,
      "t": 56922.94600000018,
      "d": 741.1841927083369,
      "v": 44
    },
    {
      "midi": 57,
      "hit": false,
      "t": 56922.94600000018,
      "d": 741.1841927083369,
      "v": 44
    },
    {
      "midi": 62,
      "hit": false,
      "t": 56922.94600000018,
      "d": 741.1841927083369,
      "v": 44
    },
    {
      "midi": 66,
      "hit": false,
      "t": 56922.94600000018,
      "d": 741.1841927083369,
      "v": 44
    },
    {
      "midi": 54,
      "hit": false,
      "t": 57692.175000000185,
      "d": 741.1841927083369,
      "v": 44
    },
    {
      "midi": 57,
      "hit": false,
      "t": 57692.175000000185,
      "d": 741.1841927083369,
      "v": 44
    },
    {
      "midi": 62,
      "hit": false,
      "t": 57692.175000000185,
      "d": 741.1841927083369,
      "v": 44
    },
    {
      "midi": 66,
      "hit": false,
      "t": 57692.175000000185,
      "d": 741.1841927083369,
      "v": 44
    },
    {
      "midi": 54,
      "hit": false,
      "t": 57692.175000000185,
      "d": 741.1841927083369,
      "v": 44
    },
    {
      "midi": 57,
      "hit": false,
      "t": 57692.175000000185,
      "d": 741.1841927083369,
      "v": 44
    },
    {
      "midi": 62,
      "hit": false,
      "t": 57692.175000000185,
      "d": 741.1841927083369,
      "v": 44
    },
    {
      "midi": 66,
      "hit": false,
      "t": 57692.175000000185,
      "d": 741.1841927083369,
      "v": 44
    },
    {
      "midi": 53,
      "hit": false,
      "t": 58461.40400000019,
      "d": 741.1841927083369,
      "v": 44
    },
    {
      "midi": 57,
      "hit": false,
      "t": 58461.40400000019,
      "d": 741.1841927083369,
      "v": 44
    },
    {
      "midi": 60,
      "hit": false,
      "t": 58461.40400000019,
      "d": 741.1841927083369,
      "v": 44
    },
    {
      "midi": 65,
      "hit": false,
      "t": 58461.40400000019,
      "d": 741.1841927083369,
      "v": 44
    },
    {
      "midi": 29,
      "hit": false,
      "t": 58461.40400000019,
      "d": 3048.871192708357,
      "v": 44
    },
    {
      "midi": 53,
      "hit": false,
      "t": 58461.40400000019,
      "d": 741.1841927083369,
      "v": 44
    },
    {
      "midi": 57,
      "hit": false,
      "t": 58461.40400000019,
      "d": 741.1841927083369,
      "v": 44
    },
    {
      "midi": 60,
      "hit": false,
      "t": 58461.40400000019,
      "d": 741.1841927083369,
      "v": 44
    },
    {
      "midi": 65,
      "hit": false,
      "t": 58461.40400000019,
      "d": 741.1841927083369,
      "v": 44
    },
    {
      "midi": 29,
      "hit": false,
      "t": 58461.40400000019,
      "d": 3048.871192708357,
      "v": 44
    },
    {
      "midi": 53,
      "hit": false,
      "t": 59230.6330000002,
      "d": 741.1841927083369,
      "v": 44
    },
    {
      "midi": 57,
      "hit": false,
      "t": 59230.6330000002,
      "d": 741.1841927083369,
      "v": 44
    },
    {
      "midi": 60,
      "hit": false,
      "t": 59230.6330000002,
      "d": 741.1841927083369,
      "v": 44
    },
    {
      "midi": 65,
      "hit": false,
      "t": 59230.6330000002,
      "d": 741.1841927083369,
      "v": 44
    },
    {
      "midi": 53,
      "hit": false,
      "t": 59230.6330000002,
      "d": 741.1841927083369,
      "v": 44
    },
    {
      "midi": 57,
      "hit": false,
      "t": 59230.6330000002,
      "d": 741.1841927083369,
      "v": 44
    },
    {
      "midi": 60,
      "hit": false,
      "t": 59230.6330000002,
      "d": 741.1841927083369,
      "v": 44
    },
    {
      "midi": 65,
      "hit": false,
      "t": 59230.6330000002,
      "d": 741.1841927083369,
      "v": 44
    },
    {
      "midi": 53,
      "hit": false,
      "t": 59999.862000000205,
      "d": 741.1841927083369,
      "v": 44
    },
    {
      "midi": 57,
      "hit": false,
      "t": 59999.862000000205,
      "d": 741.1841927083369,
      "v": 44
    },
    {
      "midi": 60,
      "hit": false,
      "t": 59999.862000000205,
      "d": 741.1841927083369,
      "v": 44
    },
    {
      "midi": 65,
      "hit": false,
      "t": 59999.862000000205,
      "d": 741.1841927083369,
      "v": 44
    },
    {
      "midi": 53,
      "hit": false,
      "t": 59999.862000000205,
      "d": 741.1841927083369,
      "v": 44
    },
    {
      "midi": 57,
      "hit": false,
      "t": 59999.862000000205,
      "d": 741.1841927083369,
      "v": 44
    },
    {
      "midi": 60,
      "hit": false,
      "t": 59999.862000000205,
      "d": 741.1841927083369,
      "v": 44
    },
    {
      "midi": 65,
      "hit": false,
      "t": 59999.862000000205,
      "d": 741.1841927083369,
      "v": 44
    },
    {
      "midi": 53,
      "hit": false,
      "t": 60769.09100000021,
      "d": 741.1841927083369,
      "v": 44
    },
    {
      "midi": 57,
      "hit": false,
      "t": 60769.09100000021,
      "d": 741.1841927083369,
      "v": 44
    },
    {
      "midi": 60,
      "hit": false,
      "t": 60769.09100000021,
      "d": 741.1841927083369,
      "v": 44
    },
    {
      "midi": 65,
      "hit": false,
      "t": 60769.09100000021,
      "d": 741.1841927083369,
      "v": 44
    },
    {
      "midi": 53,
      "hit": false,
      "t": 60769.09100000021,
      "d": 741.1841927083369,
      "v": 44
    },
    {
      "midi": 57,
      "hit": false,
      "t": 60769.09100000021,
      "d": 741.1841927083369,
      "v": 44
    },
    {
      "midi": 60,
      "hit": false,
      "t": 60769.09100000021,
      "d": 741.1841927083369,
      "v": 44
    },
    {
      "midi": 65,
      "hit": false,
      "t": 60769.09100000021,
      "d": 741.1841927083369,
      "v": 44
    },
    {
      "midi": 52,
      "hit": false,
      "t": 61538.32000000022,
      "d": 741.1841927083369,
      "v": 44
    },
    {
      "midi": 55,
      "hit": false,
      "t": 61538.32000000022,
      "d": 741.1841927083369,
      "v": 44
    },
    {
      "midi": 60,
      "hit": false,
      "t": 61538.32000000022,
      "d": 741.1841927083369,
      "v": 44
    },
    {
      "midi": 64,
      "hit": false,
      "t": 61538.32000000022,
      "d": 741.1841927083369,
      "v": 44
    },
    {
      "midi": 36,
      "hit": false,
      "t": 61538.32000000022,
      "d": 3048.871192708357,
      "v": 44
    },
    {
      "midi": 52,
      "hit": false,
      "t": 61538.32000000022,
      "d": 741.1841927083369,
      "v": 44
    },
    {
      "midi": 55,
      "hit": false,
      "t": 61538.32000000022,
      "d": 741.1841927083369,
      "v": 44
    },
    {
      "midi": 60,
      "hit": false,
      "t": 61538.32000000022,
      "d": 741.1841927083369,
      "v": 44
    },
    {
      "midi": 64,
      "hit": false,
      "t": 61538.32000000022,
      "d": 741.1841927083369,
      "v": 44
    },
    {
      "midi": 36,
      "hit": false,
      "t": 61538.32000000022,
      "d": 3048.871192708357,
      "v": 44
    },
    {
      "midi": 52,
      "hit": false,
      "t": 62307.549000000225,
      "d": 741.1841927083369,
      "v": 44
    },
    {
      "midi": 55,
      "hit": false,
      "t": 62307.549000000225,
      "d": 741.1841927083369,
      "v": 44
    },
    {
      "midi": 60,
      "hit": false,
      "t": 62307.549000000225,
      "d": 741.1841927083369,
      "v": 44
    },
    {
      "midi": 64,
      "hit": false,
      "t": 62307.549000000225,
      "d": 741.1841927083369,
      "v": 44
    },
    {
      "midi": 52,
      "hit": false,
      "t": 62307.549000000225,
      "d": 741.1841927083369,
      "v": 44
    },
    {
      "midi": 55,
      "hit": false,
      "t": 62307.549000000225,
      "d": 741.1841927083369,
      "v": 44
    },
    {
      "midi": 60,
      "hit": false,
      "t": 62307.549000000225,
      "d": 741.1841927083369,
      "v": 44
    },
    {
      "midi": 64,
      "hit": false,
      "t": 62307.549000000225,
      "d": 741.1841927083369,
      "v": 44
    },
    {
      "midi": 52,
      "hit": false,
      "t": 63076.77800000023,
      "d": 741.1841927083369,
      "v": 44
    },
    {
      "midi": 55,
      "hit": false,
      "t": 63076.77800000023,
      "d": 741.1841927083369,
      "v": 44
    },
    {
      "midi": 60,
      "hit": false,
      "t": 63076.77800000023,
      "d": 741.1841927083369,
      "v": 44
    },
    {
      "midi": 64,
      "hit": false,
      "t": 63076.77800000023,
      "d": 741.1841927083369,
      "v": 44
    },
    {
      "midi": 52,
      "hit": false,
      "t": 63076.77800000023,
      "d": 741.1841927083369,
      "v": 44
    },
    {
      "midi": 55,
      "hit": false,
      "t": 63076.77800000023,
      "d": 741.1841927083369,
      "v": 44
    },
    {
      "midi": 60,
      "hit": false,
      "t": 63076.77800000023,
      "d": 741.1841927083369,
      "v": 44
    },
    {
      "midi": 64,
      "hit": false,
      "t": 63076.77800000023,
      "d": 741.1841927083369,
      "v": 44
    },
    {
      "midi": 52,
      "hit": false,
      "t": 63846.00700000024,
      "d": 741.1841927083369,
      "v": 44
    },
    {
      "midi": 55,
      "hit": false,
      "t": 63846.00700000024,
      "d": 741.1841927083369,
      "v": 44
    },
    {
      "midi": 60,
      "hit": false,
      "t": 63846.00700000024,
      "d": 741.1841927083369,
      "v": 44
    },
    {
      "midi": 64,
      "hit": false,
      "t": 63846.00700000024,
      "d": 741.1841927083369,
      "v": 44
    },
    {
      "midi": 52,
      "hit": false,
      "t": 63846.00700000024,
      "d": 741.1841927083369,
      "v": 44
    },
    {
      "midi": 55,
      "hit": false,
      "t": 63846.00700000024,
      "d": 741.1841927083369,
      "v": 44
    },
    {
      "midi": 60,
      "hit": false,
      "t": 63846.00700000024,
      "d": 741.1841927083369,
      "v": 44
    },
    {
      "midi": 64,
      "hit": false,
      "t": 63846.00700000024,
      "d": 741.1841927083369,
      "v": 44
    },
    {
      "midi": 55,
      "hit": false,
      "t": 64615.236000000245,
      "d": 741.1841927083369,
      "v": 45
    },
    {
      "midi": 59,
      "hit": false,
      "t": 64615.236000000245,
      "d": 741.1841927083369,
      "v": 45
    },
    {
      "midi": 62,
      "hit": false,
      "t": 64615.236000000245,
      "d": 741.1841927083369,
      "v": 45
    },
    {
      "midi": 31,
      "hit": false,
      "t": 64615.236000000245,
      "d": 3048.8711927083277,
      "v": 44
    },
    {
      "midi": 55,
      "hit": false,
      "t": 64615.236000000245,
      "d": 741.1841927083369,
      "v": 45
    },
    {
      "midi": 59,
      "hit": false,
      "t": 64615.236000000245,
      "d": 741.1841927083369,
      "v": 45
    },
    {
      "midi": 62,
      "hit": false,
      "t": 64615.236000000245,
      "d": 741.1841927083369,
      "v": 45
    },
    {
      "midi": 31,
      "hit": false,
      "t": 64615.236000000245,
      "d": 3048.8711927083277,
      "v": 44
    },
    {
      "midi": 55,
      "hit": false,
      "t": 65384.46500000025,
      "d": 741.1841927083369,
      "v": 43
    },
    {
      "midi": 59,
      "hit": false,
      "t": 65384.46500000025,
      "d": 741.1841927083369,
      "v": 43
    },
    {
      "midi": 62,
      "hit": false,
      "t": 65384.46500000025,
      "d": 741.1841927083369,
      "v": 43
    },
    {
      "midi": 55,
      "hit": false,
      "t": 65384.46500000025,
      "d": 741.1841927083369,
      "v": 43
    },
    {
      "midi": 59,
      "hit": false,
      "t": 65384.46500000025,
      "d": 741.1841927083369,
      "v": 43
    },
    {
      "midi": 62,
      "hit": false,
      "t": 65384.46500000025,
      "d": 741.1841927083369,
      "v": 43
    },
    {
      "midi": 55,
      "hit": false,
      "t": 66153.69400000025,
      "d": 741.1841927083296,
      "v": 42
    },
    {
      "midi": 59,
      "hit": false,
      "t": 66153.69400000025,
      "d": 741.1841927083296,
      "v": 42
    },
    {
      "midi": 62,
      "hit": false,
      "t": 66153.69400000025,
      "d": 741.1841927083296,
      "v": 42
    },
    {
      "midi": 55,
      "hit": false,
      "t": 66153.69400000025,
      "d": 741.1841927083296,
      "v": 42
    },
    {
      "midi": 59,
      "hit": false,
      "t": 66153.69400000025,
      "d": 741.1841927083296,
      "v": 42
    },
    {
      "midi": 62,
      "hit": false,
      "t": 66153.69400000025,
      "d": 741.1841927083296,
      "v": 42
    },
    {
      "midi": 55,
      "hit": false,
      "t": 66922.92300000024,
      "d": 741.1841927083296,
      "v": 44
    },
    {
      "midi": 59,
      "hit": false,
      "t": 66922.92300000024,
      "d": 741.1841927083296,
      "v": 44
    },
    {
      "midi": 62,
      "hit": false,
      "t": 66922.92300000024,
      "d": 741.1841927083296,
      "v": 44
    },
    {
      "midi": 55,
      "hit": false,
      "t": 66922.92300000024,
      "d": 741.1841927083296,
      "v": 44
    },
    {
      "midi": 59,
      "hit": false,
      "t": 66922.92300000024,
      "d": 741.1841927083296,
      "v": 44
    },
    {
      "midi": 62,
      "hit": false,
      "t": 66922.92300000024,
      "d": 741.1841927083296,
      "v": 44
    },
    {
      "midi": 54,
      "hit": false,
      "t": 67692.15200000023,
      "d": 741.1841927083296,
      "v": 44
    },
    {
      "midi": 57,
      "hit": false,
      "t": 67692.15200000023,
      "d": 741.1841927083296,
      "v": 44
    },
    {
      "midi": 62,
      "hit": false,
      "t": 67692.15200000023,
      "d": 741.1841927083296,
      "v": 44
    },
    {
      "midi": 66,
      "hit": false,
      "t": 67692.15200000023,
      "d": 741.1841927083296,
      "v": 44
    },
    {
      "midi": 38,
      "hit": false,
      "t": 67692.15200000023,
      "d": 3048.871192708306,
      "v": 44
    },
    {
      "midi": 54,
      "hit": false,
      "t": 67692.15200000023,
      "d": 741.1841927083296,
      "v": 44
    },
    {
      "midi": 57,
      "hit": false,
      "t": 67692.15200000023,
      "d": 741.1841927083296,
      "v": 44
    },
    {
      "midi": 62,
      "hit": false,
      "t": 67692.15200000023,
      "d": 741.1841927083296,
      "v": 44
    },
    {
      "midi": 66,
      "hit": false,
      "t": 67692.15200000023,
      "d": 741.1841927083296,
      "v": 44
    },
    {
      "midi": 38,
      "hit": false,
      "t": 67692.15200000023,
      "d": 3048.871192708306,
      "v": 44
    },
    {
      "midi": 54,
      "hit": false,
      "t": 68461.38100000023,
      "d": 741.1841927083296,
      "v": 44
    },
    {
      "midi": 57,
      "hit": false,
      "t": 68461.38100000023,
      "d": 741.1841927083296,
      "v": 44
    },
    {
      "midi": 62,
      "hit": false,
      "t": 68461.38100000023,
      "d": 741.1841927083296,
      "v": 44
    },
    {
      "midi": 66,
      "hit": false,
      "t": 68461.38100000023,
      "d": 741.1841927083296,
      "v": 44
    },
    {
      "midi": 54,
      "hit": false,
      "t": 68461.38100000023,
      "d": 741.1841927083296,
      "v": 44
    },
    {
      "midi": 57,
      "hit": false,
      "t": 68461.38100000023,
      "d": 741.1841927083296,
      "v": 44
    },
    {
      "midi": 62,
      "hit": false,
      "t": 68461.38100000023,
      "d": 741.1841927083296,
      "v": 44
    },
    {
      "midi": 66,
      "hit": false,
      "t": 68461.38100000023,
      "d": 741.1841927083296,
      "v": 44
    },
    {
      "midi": 54,
      "hit": false,
      "t": 69230.61000000022,
      "d": 741.1841927083296,
      "v": 44
    },
    {
      "midi": 57,
      "hit": false,
      "t": 69230.61000000022,
      "d": 741.1841927083296,
      "v": 44
    },
    {
      "midi": 62,
      "hit": false,
      "t": 69230.61000000022,
      "d": 741.1841927083296,
      "v": 44
    },
    {
      "midi": 66,
      "hit": false,
      "t": 69230.61000000022,
      "d": 741.1841927083296,
      "v": 44
    },
    {
      "midi": 54,
      "hit": false,
      "t": 69230.61000000022,
      "d": 741.1841927083296,
      "v": 44
    },
    {
      "midi": 57,
      "hit": false,
      "t": 69230.61000000022,
      "d": 741.1841927083296,
      "v": 44
    },
    {
      "midi": 62,
      "hit": false,
      "t": 69230.61000000022,
      "d": 741.1841927083296,
      "v": 44
    },
    {
      "midi": 66,
      "hit": false,
      "t": 69230.61000000022,
      "d": 741.1841927083296,
      "v": 44
    },
    {
      "midi": 54,
      "hit": false,
      "t": 69999.83900000021,
      "d": 741.1841927083296,
      "v": 44
    },
    {
      "midi": 57,
      "hit": false,
      "t": 69999.83900000021,
      "d": 741.1841927083296,
      "v": 44
    },
    {
      "midi": 62,
      "hit": false,
      "t": 69999.83900000021,
      "d": 741.1841927083296,
      "v": 44
    },
    {
      "midi": 66,
      "hit": false,
      "t": 69999.83900000021,
      "d": 741.1841927083296,
      "v": 44
    },
    {
      "midi": 54,
      "hit": false,
      "t": 69999.83900000021,
      "d": 741.1841927083296,
      "v": 44
    },
    {
      "midi": 57,
      "hit": false,
      "t": 69999.83900000021,
      "d": 741.1841927083296,
      "v": 44
    },
    {
      "midi": 62,
      "hit": false,
      "t": 69999.83900000021,
      "d": 741.1841927083296,
      "v": 44
    },
    {
      "midi": 66,
      "hit": false,
      "t": 69999.83900000021,
      "d": 741.1841927083296,
      "v": 44
    },
    {
      "midi": 50,
      "hit": false,
      "t": 70769.0680000002,
      "d": 741.1841927083296,
      "v": 44
    },
    {
      "midi": 57,
      "hit": false,
      "t": 70769.0680000002,
      "d": 741.1841927083296,
      "v": 44
    },
    {
      "midi": 62,
      "hit": false,
      "t": 70769.0680000002,
      "d": 741.1841927083296,
      "v": 44
    },
    {
      "midi": 65,
      "hit": false,
      "t": 70769.0680000002,
      "d": 741.1841927083296,
      "v": 44
    },
    {
      "midi": 38,
      "hit": false,
      "t": 70769.0680000002,
      "d": 3048.871192708306,
      "v": 44
    },
    {
      "midi": 50,
      "hit": false,
      "t": 70769.0680000002,
      "d": 741.1841927083296,
      "v": 44
    },
    {
      "midi": 57,
      "hit": false,
      "t": 70769.0680000002,
      "d": 741.1841927083296,
      "v": 44
    },
    {
      "midi": 62,
      "hit": false,
      "t": 70769.0680000002,
      "d": 741.1841927083296,
      "v": 44
    },
    {
      "midi": 65,
      "hit": false,
      "t": 70769.0680000002,
      "d": 741.1841927083296,
      "v": 44
    },
    {
      "midi": 38,
      "hit": false,
      "t": 70769.0680000002,
      "d": 3048.871192708306,
      "v": 44
    },
    {
      "midi": 50,
      "hit": false,
      "t": 71538.2970000002,
      "d": 741.1841927083296,
      "v": 44
    },
    {
      "midi": 57,
      "hit": false,
      "t": 71538.2970000002,
      "d": 741.1841927083296,
      "v": 44
    },
    {
      "midi": 62,
      "hit": false,
      "t": 71538.2970000002,
      "d": 741.1841927083296,
      "v": 44
    },
    {
      "midi": 65,
      "hit": false,
      "t": 71538.2970000002,
      "d": 741.1841927083296,
      "v": 44
    },
    {
      "midi": 50,
      "hit": false,
      "t": 71538.2970000002,
      "d": 741.1841927083296,
      "v": 44
    },
    {
      "midi": 57,
      "hit": false,
      "t": 71538.2970000002,
      "d": 741.1841927083296,
      "v": 44
    },
    {
      "midi": 62,
      "hit": false,
      "t": 71538.2970000002,
      "d": 741.1841927083296,
      "v": 44
    },
    {
      "midi": 65,
      "hit": false,
      "t": 71538.2970000002,
      "d": 741.1841927083296,
      "v": 44
    },
    {
      "midi": 50,
      "hit": false,
      "t": 72307.52600000019,
      "d": 741.1841927083296,
      "v": 44
    },
    {
      "midi": 57,
      "hit": false,
      "t": 72307.52600000019,
      "d": 741.1841927083296,
      "v": 44
    },
    {
      "midi": 62,
      "hit": false,
      "t": 72307.52600000019,
      "d": 741.1841927083296,
      "v": 44
    },
    {
      "midi": 65,
      "hit": false,
      "t": 72307.52600000019,
      "d": 741.1841927083296,
      "v": 44
    },
    {
      "midi": 50,
      "hit": false,
      "t": 72307.52600000019,
      "d": 741.1841927083296,
      "v": 44
    },
    {
      "midi": 57,
      "hit": false,
      "t": 72307.52600000019,
      "d": 741.1841927083296,
      "v": 44
    },
    {
      "midi": 62,
      "hit": false,
      "t": 72307.52600000019,
      "d": 741.1841927083296,
      "v": 44
    },
    {
      "midi": 65,
      "hit": false,
      "t": 72307.52600000019,
      "d": 741.1841927083296,
      "v": 44
    },
    {
      "midi": 62,
      "hit": false,
      "t": 73076.75500000018,
      "d": 228.36485937499674,
      "v": 44
    },
    {
      "midi": 65,
      "hit": false,
      "t": 73076.75500000018,
      "d": 256.4096666666592,
      "v": 44
    },
    {
      "midi": 50,
      "hit": false,
      "t": 73076.75500000018,
      "d": 741.1841927083296,
      "v": 44
    },
    {
      "midi": 57,
      "hit": false,
      "t": 73076.75500000018,
      "d": 741.1841927083296,
      "v": 44
    },
    {
      "midi": 62,
      "hit": false,
      "t": 73076.75500000018,
      "d": 228.36485937499674,
      "v": 44
    },
    {
      "midi": 65,
      "hit": false,
      "t": 73076.75500000018,
      "d": 256.4096666666592,
      "v": 44
    },
    {
      "midi": 50,
      "hit": false,
      "t": 73076.75500000018,
      "d": 741.1841927083296,
      "v": 44
    },
    {
      "midi": 57,
      "hit": false,
      "t": 73076.75500000018,
      "d": 741.1841927083296,
      "v": 44
    },
    {
      "midi": 62,
      "hit": false,
      "t": 73333.16466666684,
      "d": 484.77452604167047,
      "v": 44
    },
    {
      "midi": 64,
      "hit": false,
      "t": 73333.16466666684,
      "d": 484.77452604167047,
      "v": 44
    },
    {
      "midi": 62,
      "hit": false,
      "t": 73333.16466666684,
      "d": 484.77452604167047,
      "v": 44
    },
    {
      "midi": 64,
      "hit": false,
      "t": 73333.16466666684,
      "d": 484.77452604167047,
      "v": 44
    },
    {
      "midi": 53,
      "hit": false,
      "t": 73845.98400000017,
      "d": 741.1841927083296,
      "v": 44
    },
    {
      "midi": 57,
      "hit": false,
      "t": 73845.98400000017,
      "d": 741.1841927083296,
      "v": 44
    },
    {
      "midi": 60,
      "hit": false,
      "t": 73845.98400000017,
      "d": 741.1841927083296,
      "v": 44
    },
    {
      "midi": 65,
      "hit": false,
      "t": 73845.98400000017,
      "d": 741.1841927083296,
      "v": 44
    },
    {
      "midi": 41,
      "hit": false,
      "t": 73845.98400000017,
      "d": 3048.871192708306,
      "v": 44
    },
    {
      "midi": 53,
      "hit": false,
      "t": 73845.98400000017,
      "d": 741.1841927083296,
      "v": 44
    },
    {
      "midi": 57,
      "hit": false,
      "t": 73845.98400000017,
      "d": 741.1841927083296,
      "v": 44
    },
    {
      "midi": 60,
      "hit": false,
      "t": 73845.98400000017,
      "d": 741.1841927083296,
      "v": 44
    },
    {
      "midi": 65,
      "hit": false,
      "t": 73845.98400000017,
      "d": 741.1841927083296,
      "v": 44
    },
    {
      "midi": 41,
      "hit": false,
      "t": 73845.98400000017,
      "d": 3048.871192708306,
      "v": 44
    },
    {
      "midi": 53,
      "hit": false,
      "t": 74615.21300000016,
      "d": 741.1841927083296,
      "v": 44
    },
    {
      "midi": 57,
      "hit": false,
      "t": 74615.21300000016,
      "d": 741.1841927083296,
      "v": 44
    },
    {
      "midi": 60,
      "hit": false,
      "t": 74615.21300000016,
      "d": 741.1841927083296,
      "v": 44
    },
    {
      "midi": 65,
      "hit": false,
      "t": 74615.21300000016,
      "d": 741.1841927083296,
      "v": 44
    },
    {
      "midi": 53,
      "hit": false,
      "t": 74615.21300000016,
      "d": 741.1841927083296,
      "v": 44
    },
    {
      "midi": 57,
      "hit": false,
      "t": 74615.21300000016,
      "d": 741.1841927083296,
      "v": 44
    },
    {
      "midi": 60,
      "hit": false,
      "t": 74615.21300000016,
      "d": 741.1841927083296,
      "v": 44
    },
    {
      "midi": 65,
      "hit": false,
      "t": 74615.21300000016,
      "d": 741.1841927083296,
      "v": 44
    },
    {
      "midi": 53,
      "hit": false,
      "t": 75384.44200000016,
      "d": 741.1841927083296,
      "v": 44
    },
    {
      "midi": 57,
      "hit": false,
      "t": 75384.44200000016,
      "d": 741.1841927083296,
      "v": 44
    },
    {
      "midi": 60,
      "hit": false,
      "t": 75384.44200000016,
      "d": 741.1841927083296,
      "v": 44
    },
    {
      "midi": 65,
      "hit": false,
      "t": 75384.44200000016,
      "d": 741.1841927083296,
      "v": 44
    },
    {
      "midi": 53,
      "hit": false,
      "t": 75384.44200000016,
      "d": 741.1841927083296,
      "v": 44
    },
    {
      "midi": 57,
      "hit": false,
      "t": 75384.44200000016,
      "d": 741.1841927083296,
      "v": 44
    },
    {
      "midi": 60,
      "hit": false,
      "t": 75384.44200000016,
      "d": 741.1841927083296,
      "v": 44
    },
    {
      "midi": 65,
      "hit": false,
      "t": 75384.44200000016,
      "d": 741.1841927083296,
      "v": 44
    },
    {
      "midi": 53,
      "hit": false,
      "t": 76153.67100000015,
      "d": 741.1841927083296,
      "v": 44
    },
    {
      "midi": 57,
      "hit": false,
      "t": 76153.67100000015,
      "d": 741.1841927083296,
      "v": 44
    },
    {
      "midi": 60,
      "hit": false,
      "t": 76153.67100000015,
      "d": 741.1841927083296,
      "v": 44
    },
    {
      "midi": 65,
      "hit": false,
      "t": 76153.67100000015,
      "d": 741.1841927083296,
      "v": 44
    },
    {
      "midi": 53,
      "hit": false,
      "t": 76153.67100000015,
      "d": 741.1841927083296,
      "v": 44
    },
    {
      "midi": 57,
      "hit": false,
      "t": 76153.67100000015,
      "d": 741.1841927083296,
      "v": 44
    },
    {
      "midi": 60,
      "hit": false,
      "t": 76153.67100000015,
      "d": 741.1841927083296,
      "v": 44
    },
    {
      "midi": 65,
      "hit": false,
      "t": 76153.67100000015,
      "d": 741.1841927083296,
      "v": 44
    },
    {
      "midi": 36,
      "hit": false,
      "t": 76922.90000000014,
      "d": 1510.4131927083363,
      "v": 64
    },
    {
      "midi": 48,
      "hit": false,
      "t": 76922.90000000014,
      "d": 1510.4131927083363,
      "v": 64
    },
    {
      "midi": 60,
      "hit": false,
      "t": 76922.90000000014,
      "d": 1510.4131927083363,
      "v": 64
    },
    {
      "midi": 64,
      "hit": false,
      "t": 76922.90000000014,
      "d": 1870.989286458338,
      "v": 64
    },
    {
      "midi": 55,
      "hit": false,
      "t": 76922.90000000014,
      "d": 1895.0276927083323,
      "v": 64
    },
    {
      "midi": 36,
      "hit": false,
      "t": 76922.90000000014,
      "d": 1510.4131927083363,
      "v": 64
    },
    {
      "midi": 48,
      "hit": false,
      "t": 76922.90000000014,
      "d": 1510.4131927083363,
      "v": 64
    },
    {
      "midi": 60,
      "hit": false,
      "t": 76922.90000000014,
      "d": 1510.4131927083363,
      "v": 64
    },
    {
      "midi": 64,
      "hit": false,
      "t": 76922.90000000014,
      "d": 1870.989286458338,
      "v": 64
    },
    {
      "midi": 55,
      "hit": false,
      "t": 76922.90000000014,
      "d": 1895.0276927083323,
      "v": 64
    },
    {
      "midi": 60,
      "hit": false,
      "t": 78461.35800000014,
      "d": 356.5696927083336,
      "v": 64
    },
    {
      "midi": 36,
      "hit": false,
      "t": 78461.35800000014,
      "d": 1410.2531666666619,
      "v": 64
    },
    {
      "midi": 48,
      "hit": false,
      "t": 78461.35800000014,
      "d": 1510.4131927083217,
      "v": 64
    },
    {
      "midi": 60,
      "hit": false,
      "t": 78461.35800000014,
      "d": 356.5696927083336,
      "v": 64
    },
    {
      "midi": 36,
      "hit": false,
      "t": 78461.35800000014,
      "d": 1410.2531666666619,
      "v": 64
    },
    {
      "midi": 48,
      "hit": false,
      "t": 78461.35800000014,
      "d": 1510.4131927083217,
      "v": 64
    },
    {
      "midi": 55,
      "hit": false,
      "t": 78845.97250000013,
      "d": 588.9409531249985,
      "v": 64
    },
    {
      "midi": 60,
      "hit": false,
      "t": 78845.97250000013,
      "d": 641.0241666666698,
      "v": 64
    },
    {
      "midi": 64,
      "hit": false,
      "t": 78845.97250000013,
      "d": 641.0241666666698,
      "v": 64
    },
    {
      "midi": 55,
      "hit": false,
      "t": 78845.97250000013,
      "d": 588.9409531249985,
      "v": 64
    },
    {
      "midi": 60,
      "hit": false,
      "t": 78845.97250000013,
      "d": 641.0241666666698,
      "v": 64
    },
    {
      "midi": 64,
      "hit": false,
      "t": 78845.97250000013,
      "d": 641.0241666666698,
      "v": 64
    },
    {
      "midi": 55,
      "hit": false,
      "t": 79486.9966666668,
      "d": 384.61449999999604,
      "v": 64
    },
    {
      "midi": 62,
      "hit": false,
      "t": 79486.9966666668,
      "d": 384.61449999999604,
      "v": 64
    },
    {
      "midi": 65,
      "hit": false,
      "t": 79486.9966666668,
      "d": 384.61449999999604,
      "v": 64
    },
    {
      "midi": 55,
      "hit": false,
      "t": 79486.9966666668,
      "d": 384.61449999999604,
      "v": 64
    },
    {
      "midi": 62,
      "hit": false,
      "t": 79486.9966666668,
      "d": 384.61449999999604,
      "v": 64
    },
    {
      "midi": 65,
      "hit": false,
      "t": 79486.9966666668,
      "d": 384.61449999999604,
      "v": 64
    },
    {
      "midi": 26,
      "hit": false,
      "t": 79807.50875000014,
      "d": 192.30724999998347,
      "v": 64
    },
    {
      "midi": 26,
      "hit": false,
      "t": 79807.50875000014,
      "d": 192.30724999998347,
      "v": 64
    },
    {
      "midi": 31,
      "hit": false,
      "t": 79999.81600000012,
      "d": 1382.2083593749994,
      "v": 64
    },
    {
      "midi": 43,
      "hit": false,
      "t": 79999.81600000012,
      "d": 1510.4131927083217,
      "v": 64
    },
    {
      "midi": 55,
      "hit": false,
      "t": 79999.81600000012,
      "d": 1870.9892864583235,
      "v": 64
    },
    {
      "midi": 59,
      "hit": false,
      "t": 79999.81600000012,
      "d": 1870.9892864583235,
      "v": 64
    },
    {
      "midi": 62,
      "hit": false,
      "t": 79999.81600000012,
      "d": 1895.0276927083178,
      "v": 64
    },
    {
      "midi": 31,
      "hit": false,
      "t": 79999.81600000012,
      "d": 1382.2083593749994,
      "v": 64
    },
    {
      "midi": 43,
      "hit": false,
      "t": 79999.81600000012,
      "d": 1510.4131927083217,
      "v": 64
    },
    {
      "midi": 55,
      "hit": false,
      "t": 79999.81600000012,
      "d": 1870.9892864583235,
      "v": 64
    },
    {
      "midi": 59,
      "hit": false,
      "t": 79999.81600000012,
      "d": 1870.9892864583235,
      "v": 64
    },
    {
      "midi": 62,
      "hit": false,
      "t": 79999.81600000012,
      "d": 1895.0276927083178,
      "v": 64
    },
    {
      "midi": 31,
      "hit": false,
      "t": 81410.06916666678,
      "d": 100.16002604165988,
      "v": 64
    },
    {
      "midi": 31,
      "hit": false,
      "t": 81410.06916666678,
      "d": 100.16002604165988,
      "v": 64
    },
    {
      "midi": 31,
      "hit": false,
      "t": 81538.2740000001,
      "d": 1282.048333333325,
      "v": 64
    },
    {
      "midi": 43,
      "hit": false,
      "t": 81538.2740000001,
      "d": 1510.4131927083363,
      "v": 64
    },
    {
      "midi": 31,
      "hit": false,
      "t": 81538.2740000001,
      "d": 1282.048333333325,
      "v": 64
    },
    {
      "midi": 43,
      "hit": false,
      "t": 81538.2740000001,
      "d": 1510.4131927083363,
      "v": 64
    },
    {
      "midi": 55,
      "hit": false,
      "t": 81922.8885000001,
      "d": 588.9409531249985,
      "v": 64
    },
    {
      "midi": 59,
      "hit": false,
      "t": 81922.8885000001,
      "d": 641.0241666666698,
      "v": 64
    },
    {
      "midi": 62,
      "hit": false,
      "t": 81922.8885000001,
      "d": 665.0625729166641,
      "v": 64
    },
    {
      "midi": 55,
      "hit": false,
      "t": 81922.8885000001,
      "d": 588.9409531249985,
      "v": 64
    },
    {
      "midi": 59,
      "hit": false,
      "t": 81922.8885000001,
      "d": 641.0241666666698,
      "v": 64
    },
    {
      "midi": 62,
      "hit": false,
      "t": 81922.8885000001,
      "d": 665.0625729166641,
      "v": 64
    },
    {
      "midi": 55,
      "hit": false,
      "t": 82563.91266666677,
      "d": 432.6913124999992,
      "v": 64
    },
    {
      "midi": 60,
      "hit": false,
      "t": 82563.91266666677,
      "d": 432.6913124999992,
      "v": 64
    },
    {
      "midi": 64,
      "hit": false,
      "t": 82563.91266666677,
      "d": 432.6913124999992,
      "v": 64
    },
    {
      "midi": 55,
      "hit": false,
      "t": 82563.91266666677,
      "d": 432.6913124999992,
      "v": 64
    },
    {
      "midi": 60,
      "hit": false,
      "t": 82563.91266666677,
      "d": 432.6913124999992,
      "v": 64
    },
    {
      "midi": 64,
      "hit": false,
      "t": 82563.91266666677,
      "d": 432.6913124999992,
      "v": 64
    },
    {
      "midi": 26,
      "hit": false,
      "t": 82948.52716666677,
      "d": 152.24323958333116,
      "v": 64
    },
    {
      "midi": 26,
      "hit": false,
      "t": 82948.52716666677,
      "d": 152.24323958333116,
      "v": 64
    },
    {
      "midi": 29,
      "hit": false,
      "t": 83076.7320000001,
      "d": 1510.4131927083217,
      "v": 64
    },
    {
      "midi": 41,
      "hit": false,
      "t": 83076.7320000001,
      "d": 1510.4131927083217,
      "v": 64
    },
    {
      "midi": 65,
      "hit": false,
      "t": 83076.7320000001,
      "d": 1842.9444791666465,
      "v": 64
    },
    {
      "midi": 60,
      "hit": false,
      "t": 83076.7320000001,
      "d": 1895.0276927083178,
      "v": 64
    },
    {
      "midi": 57,
      "hit": false,
      "t": 83076.7320000001,
      "d": 1999.1941197916458,
      "v": 64
    },
    {
      "midi": 53,
      "hit": false,
      "t": 83076.7320000001,
      "d": 2023.23252604164,
      "v": 64
    },
    {
      "midi": 29,
      "hit": false,
      "t": 83076.7320000001,
      "d": 1510.4131927083217,
      "v": 64
    },
    {
      "midi": 41,
      "hit": false,
      "t": 83076.7320000001,
      "d": 1510.4131927083217,
      "v": 64
    },
    {
      "midi": 65,
      "hit": false,
      "t": 83076.7320000001,
      "d": 1842.9444791666465,
      "v": 64
    },
    {
      "midi": 60,
      "hit": false,
      "t": 83076.7320000001,
      "d": 1895.0276927083178,
      "v": 64
    },
    {
      "midi": 57,
      "hit": false,
      "t": 83076.7320000001,
      "d": 1999.1941197916458,
      "v": 64
    },
    {
      "midi": 53,
      "hit": false,
      "t": 83076.7320000001,
      "d": 2023.23252604164,
      "v": 64
    },
    {
      "midi": 29,
      "hit": false,
      "t": 84615.19000000009,
      "d": 1406.2467656249646,
      "v": 64
    },
    {
      "midi": 41,
      "hit": false,
      "t": 84615.19000000009,
      "d": 1510.4131927082926,
      "v": 64
    },
    {
      "midi": 29,
      "hit": false,
      "t": 84615.19000000009,
      "d": 1406.2467656249646,
      "v": 64
    },
    {
      "midi": 41,
      "hit": false,
      "t": 84615.19000000009,
      "d": 1510.4131927082926,
      "v": 64
    },
    {
      "midi": 55,
      "hit": false,
      "t": 84999.80450000009,
      "d": 588.9409531249839,
      "v": 64
    },
    {
      "midi": 60,
      "hit": false,
      "t": 84999.80450000009,
      "d": 588.9409531249839,
      "v": 64
    },
    {
      "midi": 65,
      "hit": false,
      "t": 84999.80450000009,
      "d": 588.9409531249839,
      "v": 64
    },
    {
      "midi": 55,
      "hit": false,
      "t": 84999.80450000009,
      "d": 588.9409531249839,
      "v": 64
    },
    {
      "midi": 60,
      "hit": false,
      "t": 84999.80450000009,
      "d": 588.9409531249839,
      "v": 64
    },
    {
      "midi": 65,
      "hit": false,
      "t": 84999.80450000009,
      "d": 588.9409531249839,
      "v": 64
    },
    {
      "midi": 53,
      "hit": false,
      "t": 85128.00933333341,
      "d": 460.7361197916616,
      "v": 64
    },
    {
      "midi": 53,
      "hit": false,
      "t": 85128.00933333341,
      "d": 460.7361197916616,
      "v": 64
    },
    {
      "midi": 55,
      "hit": false,
      "t": 85636.82226562507,
      "d": 336.5376874999929,
      "v": 64
    },
    {
      "midi": 53,
      "hit": false,
      "t": 85636.82226562507,
      "d": 360.5760937499872,
      "v": 64
    },
    {
      "midi": 65,
      "hit": false,
      "t": 85636.82226562507,
      "d": 360.5760937499872,
      "v": 64
    },
    {
      "midi": 60,
      "hit": false,
      "t": 85636.82226562507,
      "d": 412.6593072916439,
      "v": 64
    },
    {
      "midi": 55,
      "hit": false,
      "t": 85636.82226562507,
      "d": 336.5376874999929,
      "v": 64
    },
    {
      "midi": 53,
      "hit": false,
      "t": 85636.82226562507,
      "d": 360.5760937499872,
      "v": 64
    },
    {
      "midi": 65,
      "hit": false,
      "t": 85636.82226562507,
      "d": 360.5760937499872,
      "v": 64
    },
    {
      "midi": 60,
      "hit": false,
      "t": 85636.82226562507,
      "d": 412.6593072916439,
      "v": 64
    },
    {
      "midi": 26,
      "hit": false,
      "t": 86021.43676562505,
      "d": 128.2048333333223,
      "v": 64
    },
    {
      "midi": 26,
      "hit": false,
      "t": 86021.43676562505,
      "d": 128.2048333333223,
      "v": 64
    },
    {
      "midi": 55,
      "hit": false,
      "t": 86149.64159895838,
      "d": 128.20483333333686,
      "v": 64
    },
    {
      "midi": 29,
      "hit": false,
      "t": 86149.64159895838,
      "d": 1514.4195937500044,
      "v": 64
    },
    {
      "midi": 41,
      "hit": false,
      "t": 86149.64159895838,
      "d": 1514.4195937500044,
      "v": 64
    },
    {
      "midi": 53,
      "hit": false,
      "t": 86149.64159895838,
      "d": 1514.4195937500044,
      "v": 64
    },
    {
      "midi": 60,
      "hit": false,
      "t": 86149.64159895838,
      "d": 1899.034093749986,
      "v": 64
    },
    {
      "midi": 65,
      "hit": false,
      "t": 86149.64159895838,
      "d": 3052.877593749974,
      "v": 64
    },
    {
      "midi": 55,
      "hit": false,
      "t": 86149.64159895838,
      "d": 128.20483333333686,
      "v": 64
    },
    {
      "midi": 29,
      "hit": false,
      "t": 86149.64159895838,
      "d": 1514.4195937500044,
      "v": 64
    },
    {
      "midi": 41,
      "hit": false,
      "t": 86149.64159895838,
      "d": 1514.4195937500044,
      "v": 64
    },
    {
      "midi": 53,
      "hit": false,
      "t": 86149.64159895838,
      "d": 1514.4195937500044,
      "v": 64
    },
    {
      "midi": 60,
      "hit": false,
      "t": 86149.64159895838,
      "d": 1899.034093749986,
      "v": 64
    },
    {
      "midi": 65,
      "hit": false,
      "t": 86149.64159895838,
      "d": 3052.877593749974,
      "v": 64
    },
    {
      "midi": 57,
      "hit": false,
      "t": 86277.84643229171,
      "d": 1746.7908541666548,
      "v": 64
    },
    {
      "midi": 57,
      "hit": false,
      "t": 86277.84643229171,
      "d": 1746.7908541666548,
      "v": 64
    },
    {
      "midi": 41,
      "hit": false,
      "t": 87688.09959895838,
      "d": 232.37126041666488,
      "v": 64
    },
    {
      "midi": 53,
      "hit": false,
      "t": 87688.09959895838,
      "d": 336.5376874999929,
      "v": 64
    },
    {
      "midi": 29,
      "hit": false,
      "t": 87688.09959895838,
      "d": 1514.4195937499753,
      "v": 64
    },
    {
      "midi": 41,
      "hit": false,
      "t": 87688.09959895838,
      "d": 232.37126041666488,
      "v": 64
    },
    {
      "midi": 53,
      "hit": false,
      "t": 87688.09959895838,
      "d": 336.5376874999929,
      "v": 64
    },
    {
      "midi": 29,
      "hit": false,
      "t": 87688.09959895838,
      "d": 1514.4195937499753,
      "v": 64
    },
    {
      "midi": 41,
      "hit": false,
      "t": 87944.50926562503,
      "d": 1258.0099270833161,
      "v": 64
    },
    {
      "midi": 41,
      "hit": false,
      "t": 87944.50926562503,
      "d": 1258.0099270833161,
      "v": 64
    },
    {
      "midi": 53,
      "hit": false,
      "t": 88072.71409895836,
      "d": 488.7809270833386,
      "v": 64
    },
    {
      "midi": 57,
      "hit": false,
      "t": 88072.71409895836,
      "d": 488.7809270833386,
      "v": 64
    },
    {
      "midi": 60,
      "hit": false,
      "t": 88072.71409895836,
      "d": 488.7809270833386,
      "v": 64
    },
    {
      "midi": 53,
      "hit": false,
      "t": 88072.71409895836,
      "d": 488.7809270833386,
      "v": 64
    },
    {
      "midi": 57,
      "hit": false,
      "t": 88072.71409895836,
      "d": 488.7809270833386,
      "v": 64
    },
    {
      "midi": 60,
      "hit": false,
      "t": 88072.71409895836,
      "d": 488.7809270833386,
      "v": 64
    },
    {
      "midi": 53,
      "hit": false,
      "t": 88713.73826562503,
      "d": 488.78092708332406,
      "v": 64
    },
    {
      "midi": 57,
      "hit": false,
      "t": 88713.73826562503,
      "d": 488.78092708332406,
      "v": 64
    },
    {
      "midi": 62,
      "hit": false,
      "t": 88713.73826562503,
      "d": 488.78092708332406,
      "v": 64
    },
    {
      "midi": 53,
      "hit": false,
      "t": 88713.73826562503,
      "d": 488.78092708332406,
      "v": 64
    },
    {
      "midi": 57,
      "hit": false,
      "t": 88713.73826562503,
      "d": 488.78092708332406,
      "v": 64
    },
    {
      "midi": 62,
      "hit": false,
      "t": 88713.73826562503,
      "d": 488.78092708332406,
      "v": 64
    },
    {
      "midi": 31,
      "hit": false,
      "t": 89098.35276562502,
      "d": 128.2048333333223,
      "v": 64
    },
    {
      "midi": 31,
      "hit": false,
      "t": 89098.35276562502,
      "d": 128.2048333333223,
      "v": 64
    },
    {
      "midi": 36,
      "hit": false,
      "t": 89226.55759895834,
      "d": 1514.4195937500044,
      "v": 64
    },
    {
      "midi": 48,
      "hit": false,
      "t": 89226.55759895834,
      "d": 1514.4195937500044,
      "v": 64
    },
    {
      "midi": 60,
      "hit": false,
      "t": 89226.55759895834,
      "d": 1514.4195937500044,
      "v": 64
    },
    {
      "midi": 64,
      "hit": false,
      "t": 89226.55759895834,
      "d": 1874.9956874999916,
      "v": 64
    },
    {
      "midi": 55,
      "hit": false,
      "t": 89226.55759895834,
      "d": 1899.034093749986,
      "v": 64
    },
    {
      "midi": 36,
      "hit": false,
      "t": 89226.55759895834,
      "d": 1514.4195937500044,
      "v": 64
    },
    {
      "midi": 48,
      "hit": false,
      "t": 89226.55759895834,
      "d": 1514.4195937500044,
      "v": 64
    },
    {
      "midi": 60,
      "hit": false,
      "t": 89226.55759895834,
      "d": 1514.4195937500044,
      "v": 64
    },
    {
      "midi": 64,
      "hit": false,
      "t": 89226.55759895834,
      "d": 1874.9956874999916,
      "v": 64
    },
    {
      "midi": 55,
      "hit": false,
      "t": 89226.55759895834,
      "d": 1899.034093749986,
      "v": 64
    },
    {
      "midi": 60,
      "hit": false,
      "t": 90765.01559895834,
      "d": 360.5760937499872,
      "v": 64
    },
    {
      "midi": 36,
      "hit": false,
      "t": 90765.01559895834,
      "d": 1410.2531666666473,
      "v": 64
    },
    {
      "midi": 48,
      "hit": false,
      "t": 90765.01559895834,
      "d": 1514.4195937499753,
      "v": 64
    },
    {
      "midi": 60,
      "hit": false,
      "t": 90765.01559895834,
      "d": 360.5760937499872,
      "v": 64
    },
    {
      "midi": 36,
      "hit": false,
      "t": 90765.01559895834,
      "d": 1410.2531666666473,
      "v": 64
    },
    {
      "midi": 48,
      "hit": false,
      "t": 90765.01559895834,
      "d": 1514.4195937499753,
      "v": 64
    },
    {
      "midi": 55,
      "hit": false,
      "t": 91149.63009895833,
      "d": 592.9473541666666,
      "v": 64
    },
    {
      "midi": 60,
      "hit": false,
      "t": 91149.63009895833,
      "d": 641.0241666666698,
      "v": 64
    },
    {
      "midi": 64,
      "hit": false,
      "t": 91149.63009895833,
      "d": 641.0241666666698,
      "v": 64
    },
    {
      "midi": 55,
      "hit": false,
      "t": 91149.63009895833,
      "d": 592.9473541666666,
      "v": 64
    },
    {
      "midi": 60,
      "hit": false,
      "t": 91149.63009895833,
      "d": 641.0241666666698,
      "v": 64
    },
    {
      "midi": 64,
      "hit": false,
      "t": 91149.63009895833,
      "d": 641.0241666666698,
      "v": 64
    },
    {
      "midi": 55,
      "hit": false,
      "t": 91790.654265625,
      "d": 384.61449999999604,
      "v": 64
    },
    {
      "midi": 62,
      "hit": false,
      "t": 91790.654265625,
      "d": 384.61449999999604,
      "v": 64
    },
    {
      "midi": 65,
      "hit": false,
      "t": 91790.654265625,
      "d": 384.61449999999604,
      "v": 64
    },
    {
      "midi": 55,
      "hit": false,
      "t": 91790.654265625,
      "d": 384.61449999999604,
      "v": 64
    },
    {
      "midi": 62,
      "hit": false,
      "t": 91790.654265625,
      "d": 384.61449999999604,
      "v": 64
    },
    {
      "midi": 65,
      "hit": false,
      "t": 91790.654265625,
      "d": 384.61449999999604,
      "v": 64
    },
    {
      "midi": 26,
      "hit": false,
      "t": 92111.16634895833,
      "d": 192.30724999998347,
      "v": 64
    },
    {
      "midi": 26,
      "hit": false,
      "t": 92111.16634895833,
      "d": 192.30724999998347,
      "v": 64
    },
    {
      "midi": 31,
      "hit": false,
      "t": 92303.47359895831,
      "d": 1386.2147604166676,
      "v": 64
    },
    {
      "midi": 43,
      "hit": false,
      "t": 92303.47359895831,
      "d": 1514.4195937499899,
      "v": 64
    },
    {
      "midi": 55,
      "hit": false,
      "t": 92303.47359895831,
      "d": 1874.995687499977,
      "v": 64
    },
    {
      "midi": 59,
      "hit": false,
      "t": 92303.47359895831,
      "d": 1874.995687499977,
      "v": 64
    },
    {
      "midi": 62,
      "hit": false,
      "t": 92303.47359895831,
      "d": 1899.0340937499714,
      "v": 64
    },
    {
      "midi": 31,
      "hit": false,
      "t": 92303.47359895831,
      "d": 1386.2147604166676,
      "v": 64
    },
    {
      "midi": 43,
      "hit": false,
      "t": 92303.47359895831,
      "d": 1514.4195937499899,
      "v": 64
    },
    {
      "midi": 55,
      "hit": false,
      "t": 92303.47359895831,
      "d": 1874.995687499977,
      "v": 64
    },
    {
      "midi": 59,
      "hit": false,
      "t": 92303.47359895831,
      "d": 1874.995687499977,
      "v": 64
    },
    {
      "midi": 62,
      "hit": false,
      "t": 92303.47359895831,
      "d": 1899.0340937499714,
      "v": 64
    },
    {
      "midi": 31,
      "hit": false,
      "t": 93713.72676562498,
      "d": 104.16642708332802,
      "v": 64
    },
    {
      "midi": 31,
      "hit": false,
      "t": 93713.72676562498,
      "d": 104.16642708332802,
      "v": 64
    },
    {
      "midi": 31,
      "hit": false,
      "t": 93841.9315989583,
      "d": 1282.0483333333104,
      "v": 64
    },
    {
      "midi": 43,
      "hit": false,
      "t": 93841.9315989583,
      "d": 1514.4195937499899,
      "v": 64
    },
    {
      "midi": 31,
      "hit": false,
      "t": 93841.9315989583,
      "d": 1282.0483333333104,
      "v": 64
    },
    {
      "midi": 43,
      "hit": false,
      "t": 93841.9315989583,
      "d": 1514.4195937499899,
      "v": 64
    },
    {
      "midi": 55,
      "hit": false,
      "t": 94226.54609895828,
      "d": 592.9473541666666,
      "v": 64
    },
    {
      "midi": 59,
      "hit": false,
      "t": 94226.54609895828,
      "d": 641.0241666666698,
      "v": 64
    },
    {
      "midi": 62,
      "hit": false,
      "t": 94226.54609895828,
      "d": 669.0689739583322,
      "v": 64
    },
    {
      "midi": 55,
      "hit": false,
      "t": 94226.54609895828,
      "d": 592.9473541666666,
      "v": 64
    },
    {
      "midi": 59,
      "hit": false,
      "t": 94226.54609895828,
      "d": 641.0241666666698,
      "v": 64
    },
    {
      "midi": 62,
      "hit": false,
      "t": 94226.54609895828,
      "d": 669.0689739583322,
      "v": 64
    },
    {
      "midi": 55,
      "hit": false,
      "t": 94867.57026562495,
      "d": 436.6977135416673,
      "v": 64
    },
    {
      "midi": 60,
      "hit": false,
      "t": 94867.57026562495,
      "d": 436.6977135416673,
      "v": 64
    },
    {
      "midi": 64,
      "hit": false,
      "t": 94867.57026562495,
      "d": 436.6977135416673,
      "v": 64
    },
    {
      "midi": 55,
      "hit": false,
      "t": 94867.57026562495,
      "d": 436.6977135416673,
      "v": 64
    },
    {
      "midi": 60,
      "hit": false,
      "t": 94867.57026562495,
      "d": 436.6977135416673,
      "v": 64
    },
    {
      "midi": 64,
      "hit": false,
      "t": 94867.57026562495,
      "d": 436.6977135416673,
      "v": 64
    },
    {
      "midi": 26,
      "hit": false,
      "t": 95252.18476562494,
      "d": 156.2496406249993,
      "v": 64
    },
    {
      "midi": 26,
      "hit": false,
      "t": 95252.18476562494,
      "d": 156.2496406249993,
      "v": 64
    },
    {
      "midi": 29,
      "hit": false,
      "t": 95380.38959895828,
      "d": 1514.4195937499899,
      "v": 64
    },
    {
      "midi": 41,
      "hit": false,
      "t": 95380.38959895828,
      "d": 1514.4195937499899,
      "v": 64
    },
    {
      "midi": 65,
      "hit": false,
      "t": 95380.38959895828,
      "d": 1846.9508802083146,
      "v": 64
    },
    {
      "midi": 60,
      "hit": false,
      "t": 95380.38959895828,
      "d": 1899.034093749986,
      "v": 64
    },
    {
      "midi": 57,
      "hit": false,
      "t": 95380.38959895828,
      "d": 2003.200520833314,
      "v": 64
    },
    {
      "midi": 53,
      "hit": false,
      "t": 95380.38959895828,
      "d": 2027.2389270833082,
      "v": 64
    },
    {
      "midi": 29,
      "hit": false,
      "t": 95380.38959895828,
      "d": 1514.4195937499899,
      "v": 64
    },
    {
      "midi": 41,
      "hit": false,
      "t": 95380.38959895828,
      "d": 1514.4195937499899,
      "v": 64
    },
    {
      "midi": 65,
      "hit": false,
      "t": 95380.38959895828,
      "d": 1846.9508802083146,
      "v": 64
    },
    {
      "midi": 60,
      "hit": false,
      "t": 95380.38959895828,
      "d": 1899.034093749986,
      "v": 64
    },
    {
      "midi": 57,
      "hit": false,
      "t": 95380.38959895828,
      "d": 2003.200520833314,
      "v": 64
    },
    {
      "midi": 53,
      "hit": false,
      "t": 95380.38959895828,
      "d": 2027.2389270833082,
      "v": 64
    },
    {
      "midi": 29,
      "hit": false,
      "t": 96918.84759895827,
      "d": 1410.2531666666328,
      "v": 64
    },
    {
      "midi": 41,
      "hit": false,
      "t": 96918.84759895827,
      "d": 1514.4195937499608,
      "v": 64
    },
    {
      "midi": 29,
      "hit": false,
      "t": 96918.84759895827,
      "d": 1410.2531666666328,
      "v": 64
    },
    {
      "midi": 41,
      "hit": false,
      "t": 96918.84759895827,
      "d": 1514.4195937499608,
      "v": 64
    },
    {
      "midi": 55,
      "hit": false,
      "t": 97303.46209895826,
      "d": 592.9473541666521,
      "v": 64
    },
    {
      "midi": 60,
      "hit": false,
      "t": 97303.46209895826,
      "d": 592.9473541666521,
      "v": 64
    },
    {
      "midi": 65,
      "hit": false,
      "t": 97303.46209895826,
      "d": 592.9473541666521,
      "v": 64
    },
    {
      "midi": 55,
      "hit": false,
      "t": 97303.46209895826,
      "d": 592.9473541666521,
      "v": 64
    },
    {
      "midi": 60,
      "hit": false,
      "t": 97303.46209895826,
      "d": 592.9473541666521,
      "v": 64
    },
    {
      "midi": 65,
      "hit": false,
      "t": 97303.46209895826,
      "d": 592.9473541666521,
      "v": 64
    },
    {
      "midi": 53,
      "hit": false,
      "t": 97431.66693229158,
      "d": 464.74252083332976,
      "v": 64
    },
    {
      "midi": 53,
      "hit": false,
      "t": 97431.66693229158,
      "d": 464.74252083332976,
      "v": 64
    },
    {
      "midi": 55,
      "hit": false,
      "t": 97944.48626562492,
      "d": 336.5376874999929,
      "v": 64
    },
    {
      "midi": 53,
      "hit": false,
      "t": 97944.48626562492,
      "d": 360.5760937499872,
      "v": 64
    },
    {
      "midi": 65,
      "hit": false,
      "t": 97944.48626562492,
      "d": 360.5760937499872,
      "v": 64
    },
    {
      "midi": 60,
      "hit": false,
      "t": 97944.48626562492,
      "d": 412.6593072916439,
      "v": 64
    },
    {
      "midi": 55,
      "hit": false,
      "t": 97944.48626562492,
      "d": 336.5376874999929,
      "v": 64
    },
    {
      "midi": 53,
      "hit": false,
      "t": 97944.48626562492,
      "d": 360.5760937499872,
      "v": 64
    },
    {
      "midi": 65,
      "hit": false,
      "t": 97944.48626562492,
      "d": 360.5760937499872,
      "v": 64
    },
    {
      "midi": 60,
      "hit": false,
      "t": 97944.48626562492,
      "d": 412.6593072916439,
      "v": 64
    },
    {
      "midi": 26,
      "hit": false,
      "t": 98329.1007656249,
      "d": 128.2048333333223,
      "v": 64
    },
    {
      "midi": 26,
      "hit": false,
      "t": 98329.1007656249,
      "d": 128.2048333333223,
      "v": 64
    },
    {
      "midi": 55,
      "hit": false,
      "t": 98457.30559895822,
      "d": 128.20483333333686,
      "v": 64
    },
    {
      "midi": 29,
      "hit": false,
      "t": 98457.30559895822,
      "d": 1514.4195937500044,
      "v": 64
    },
    {
      "midi": 41,
      "hit": false,
      "t": 98457.30559895822,
      "d": 1514.4195937500044,
      "v": 64
    },
    {
      "midi": 53,
      "hit": false,
      "t": 98457.30559895822,
      "d": 1514.4195937500044,
      "v": 64
    },
    {
      "midi": 60,
      "hit": false,
      "t": 98457.30559895822,
      "d": 1899.034093749986,
      "v": 64
    },
    {
      "midi": 65,
      "hit": false,
      "t": 98457.30559895822,
      "d": 3052.877593749974,
      "v": 64
    },
    {
      "midi": 55,
      "hit": false,
      "t": 98457.30559895822,
      "d": 128.20483333333686,
      "v": 64
    },
    {
      "midi": 29,
      "hit": false,
      "t": 98457.30559895822,
      "d": 1514.4195937500044,
      "v": 64
    },
    {
      "midi": 41,
      "hit": false,
      "t": 98457.30559895822,
      "d": 1514.4195937500044,
      "v": 64
    },
    {
      "midi": 53,
      "hit": false,
      "t": 98457.30559895822,
      "d": 1514.4195937500044,
      "v": 64
    },
    {
      "midi": 60,
      "hit": false,
      "t": 98457.30559895822,
      "d": 1899.034093749986,
      "v": 64
    },
    {
      "midi": 65,
      "hit": false,
      "t": 98457.30559895822,
      "d": 3052.877593749974,
      "v": 64
    },
    {
      "midi": 57,
      "hit": false,
      "t": 98585.51043229156,
      "d": 1746.7908541666548,
      "v": 64
    },
    {
      "midi": 57,
      "hit": false,
      "t": 98585.51043229156,
      "d": 1746.7908541666548,
      "v": 64
    },
    {
      "midi": 41,
      "hit": false,
      "t": 99995.76359895822,
      "d": 232.37126041666488,
      "v": 64
    },
    {
      "midi": 53,
      "hit": false,
      "t": 99995.76359895822,
      "d": 336.5376874999929,
      "v": 64
    },
    {
      "midi": 29,
      "hit": false,
      "t": 99995.76359895822,
      "d": 1514.4195937499753,
      "v": 64
    },
    {
      "midi": 41,
      "hit": false,
      "t": 99995.76359895822,
      "d": 232.37126041666488,
      "v": 64
    },
    {
      "midi": 53,
      "hit": false,
      "t": 99995.76359895822,
      "d": 336.5376874999929,
      "v": 64
    },
    {
      "midi": 29,
      "hit": false,
      "t": 99995.76359895822,
      "d": 1514.4195937499753,
      "v": 64
    },
    {
      "midi": 41,
      "hit": false,
      "t": 100252.17326562488,
      "d": 1258.0099270833161,
      "v": 64
    },
    {
      "midi": 41,
      "hit": false,
      "t": 100252.17326562488,
      "d": 1258.0099270833161,
      "v": 64
    },
    {
      "midi": 53,
      "hit": false,
      "t": 100380.3780989582,
      "d": 488.7809270833386,
      "v": 64
    },
    {
      "midi": 57,
      "hit": false,
      "t": 100380.3780989582,
      "d": 488.7809270833386,
      "v": 64
    },
    {
      "midi": 60,
      "hit": false,
      "t": 100380.3780989582,
      "d": 488.7809270833386,
      "v": 64
    },
    {
      "midi": 53,
      "hit": false,
      "t": 100380.3780989582,
      "d": 488.7809270833386,
      "v": 64
    },
    {
      "midi": 57,
      "hit": false,
      "t": 100380.3780989582,
      "d": 488.7809270833386,
      "v": 64
    },
    {
      "midi": 60,
      "hit": false,
      "t": 100380.3780989582,
      "d": 488.7809270833386,
      "v": 64
    },
    {
      "midi": 53,
      "hit": false,
      "t": 101021.40226562487,
      "d": 488.78092708332406,
      "v": 64
    },
    {
      "midi": 57,
      "hit": false,
      "t": 101021.40226562487,
      "d": 488.78092708332406,
      "v": 64
    },
    {
      "midi": 62,
      "hit": false,
      "t": 101021.40226562487,
      "d": 488.78092708332406,
      "v": 64
    },
    {
      "midi": 53,
      "hit": false,
      "t": 101021.40226562487,
      "d": 488.78092708332406,
      "v": 64
    },
    {
      "midi": 57,
      "hit": false,
      "t": 101021.40226562487,
      "d": 488.78092708332406,
      "v": 64
    },
    {
      "midi": 62,
      "hit": false,
      "t": 101021.40226562487,
      "d": 488.78092708332406,
      "v": 64
    },
    {
      "midi": 31,
      "hit": false,
      "t": 101406.01676562487,
      "d": 128.2048333333223,
      "v": 64
    },
    {
      "midi": 31,
      "hit": false,
      "t": 101406.01676562487,
      "d": 128.2048333333223,
      "v": 64
    },
    {
      "midi": 36,
      "hit": false,
      "t": 101534.22159895819,
      "d": 1514.4195937500044,
      "v": 64
    },
    {
      "midi": 48,
      "hit": false,
      "t": 101534.22159895819,
      "d": 1514.4195937500044,
      "v": 64
    },
    {
      "midi": 60,
      "hit": false,
      "t": 101534.22159895819,
      "d": 1514.4195937500044,
      "v": 64
    },
    {
      "midi": 64,
      "hit": false,
      "t": 101534.22159895819,
      "d": 1874.9956874999916,
      "v": 64
    },
    {
      "midi": 55,
      "hit": false,
      "t": 101534.22159895819,
      "d": 1899.034093749986,
      "v": 64
    },
    {
      "midi": 36,
      "hit": false,
      "t": 101534.22159895819,
      "d": 1514.4195937500044,
      "v": 64
    },
    {
      "midi": 48,
      "hit": false,
      "t": 101534.22159895819,
      "d": 1514.4195937500044,
      "v": 64
    },
    {
      "midi": 60,
      "hit": false,
      "t": 101534.22159895819,
      "d": 1514.4195937500044,
      "v": 64
    },
    {
      "midi": 64,
      "hit": false,
      "t": 101534.22159895819,
      "d": 1874.9956874999916,
      "v": 64
    },
    {
      "midi": 55,
      "hit": false,
      "t": 101534.22159895819,
      "d": 1899.034093749986,
      "v": 64
    },
    {
      "midi": 60,
      "hit": false,
      "t": 103072.67959895819,
      "d": 360.5760937499872,
      "v": 64
    },
    {
      "midi": 36,
      "hit": false,
      "t": 103072.67959895819,
      "d": 1410.2531666666473,
      "v": 64
    },
    {
      "midi": 48,
      "hit": false,
      "t": 103072.67959895819,
      "d": 1514.4195937499753,
      "v": 64
    },
    {
      "midi": 60,
      "hit": false,
      "t": 103072.67959895819,
      "d": 360.5760937499872,
      "v": 64
    },
    {
      "midi": 36,
      "hit": false,
      "t": 103072.67959895819,
      "d": 1410.2531666666473,
      "v": 64
    },
    {
      "midi": 48,
      "hit": false,
      "t": 103072.67959895819,
      "d": 1514.4195937499753,
      "v": 64
    },
    {
      "midi": 55,
      "hit": false,
      "t": 103457.29409895817,
      "d": 592.9473541666666,
      "v": 64
    },
    {
      "midi": 60,
      "hit": false,
      "t": 103457.29409895817,
      "d": 641.0241666666698,
      "v": 64
    },
    {
      "midi": 64,
      "hit": false,
      "t": 103457.29409895817,
      "d": 641.0241666666698,
      "v": 64
    },
    {
      "midi": 55,
      "hit": false,
      "t": 103457.29409895817,
      "d": 592.9473541666666,
      "v": 64
    },
    {
      "midi": 60,
      "hit": false,
      "t": 103457.29409895817,
      "d": 641.0241666666698,
      "v": 64
    },
    {
      "midi": 64,
      "hit": false,
      "t": 103457.29409895817,
      "d": 641.0241666666698,
      "v": 64
    },
    {
      "midi": 55,
      "hit": false,
      "t": 104098.31826562484,
      "d": 384.61449999999604,
      "v": 64
    },
    {
      "midi": 62,
      "hit": false,
      "t": 104098.31826562484,
      "d": 384.61449999999604,
      "v": 64
    },
    {
      "midi": 65,
      "hit": false,
      "t": 104098.31826562484,
      "d": 384.61449999999604,
      "v": 64
    },
    {
      "midi": 55,
      "hit": false,
      "t": 104098.31826562484,
      "d": 384.61449999999604,
      "v": 64
    },
    {
      "midi": 62,
      "hit": false,
      "t": 104098.31826562484,
      "d": 384.61449999999604,
      "v": 64
    },
    {
      "midi": 65,
      "hit": false,
      "t": 104098.31826562484,
      "d": 384.61449999999604,
      "v": 64
    },
    {
      "midi": 26,
      "hit": false,
      "t": 104418.83034895817,
      "d": 192.30724999998347,
      "v": 64
    },
    {
      "midi": 26,
      "hit": false,
      "t": 104418.83034895817,
      "d": 192.30724999998347,
      "v": 64
    },
    {
      "midi": 31,
      "hit": false,
      "t": 104611.13759895816,
      "d": 1386.2147604166676,
      "v": 64
    },
    {
      "midi": 43,
      "hit": false,
      "t": 104611.13759895816,
      "d": 1514.4195937499899,
      "v": 64
    },
    {
      "midi": 55,
      "hit": false,
      "t": 104611.13759895816,
      "d": 1874.995687499977,
      "v": 64
    },
    {
      "midi": 59,
      "hit": false,
      "t": 104611.13759895816,
      "d": 1874.995687499977,
      "v": 64
    },
    {
      "midi": 62,
      "hit": false,
      "t": 104611.13759895816,
      "d": 1899.0340937499714,
      "v": 64
    },
    {
      "midi": 31,
      "hit": false,
      "t": 104611.13759895816,
      "d": 1386.2147604166676,
      "v": 64
    },
    {
      "midi": 43,
      "hit": false,
      "t": 104611.13759895816,
      "d": 1514.4195937499899,
      "v": 64
    },
    {
      "midi": 55,
      "hit": false,
      "t": 104611.13759895816,
      "d": 1874.995687499977,
      "v": 64
    },
    {
      "midi": 59,
      "hit": false,
      "t": 104611.13759895816,
      "d": 1874.995687499977,
      "v": 64
    },
    {
      "midi": 62,
      "hit": false,
      "t": 104611.13759895816,
      "d": 1899.0340937499714,
      "v": 64
    },
    {
      "midi": 31,
      "hit": false,
      "t": 106021.39076562482,
      "d": 104.16642708332802,
      "v": 64
    },
    {
      "midi": 31,
      "hit": false,
      "t": 106021.39076562482,
      "d": 104.16642708332802,
      "v": 64
    },
    {
      "midi": 31,
      "hit": false,
      "t": 106149.59559895814,
      "d": 1282.0483333333104,
      "v": 64
    },
    {
      "midi": 43,
      "hit": false,
      "t": 106149.59559895814,
      "d": 1514.4195937499899,
      "v": 64
    },
    {
      "midi": 31,
      "hit": false,
      "t": 106149.59559895814,
      "d": 1282.0483333333104,
      "v": 64
    },
    {
      "midi": 43,
      "hit": false,
      "t": 106149.59559895814,
      "d": 1514.4195937499899,
      "v": 64
    },
    {
      "midi": 55,
      "hit": false,
      "t": 106534.21009895812,
      "d": 592.9473541666666,
      "v": 64
    },
    {
      "midi": 59,
      "hit": false,
      "t": 106534.21009895812,
      "d": 641.0241666666698,
      "v": 64
    },
    {
      "midi": 62,
      "hit": false,
      "t": 106534.21009895812,
      "d": 669.0689739583322,
      "v": 64
    },
    {
      "midi": 55,
      "hit": false,
      "t": 106534.21009895812,
      "d": 592.9473541666666,
      "v": 64
    },
    {
      "midi": 59,
      "hit": false,
      "t": 106534.21009895812,
      "d": 641.0241666666698,
      "v": 64
    },
    {
      "midi": 62,
      "hit": false,
      "t": 106534.21009895812,
      "d": 669.0689739583322,
      "v": 64
    },
    {
      "midi": 55,
      "hit": false,
      "t": 107175.2342656248,
      "d": 436.6977135416673,
      "v": 64
    },
    {
      "midi": 60,
      "hit": false,
      "t": 107175.2342656248,
      "d": 436.6977135416673,
      "v": 64
    },
    {
      "midi": 64,
      "hit": false,
      "t": 107175.2342656248,
      "d": 436.6977135416673,
      "v": 64
    },
    {
      "midi": 55,
      "hit": false,
      "t": 107175.2342656248,
      "d": 436.6977135416673,
      "v": 64
    },
    {
      "midi": 60,
      "hit": false,
      "t": 107175.2342656248,
      "d": 436.6977135416673,
      "v": 64
    },
    {
      "midi": 64,
      "hit": false,
      "t": 107175.2342656248,
      "d": 436.6977135416673,
      "v": 64
    },
    {
      "midi": 26,
      "hit": false,
      "t": 107559.84876562479,
      "d": 156.2496406249993,
      "v": 64
    },
    {
      "midi": 26,
      "hit": false,
      "t": 107559.84876562479,
      "d": 156.2496406249993,
      "v": 64
    },
    {
      "midi": 29,
      "hit": false,
      "t": 107688.05359895813,
      "d": 1514.4195937499899,
      "v": 64
    },
    {
      "midi": 41,
      "hit": false,
      "t": 107688.05359895813,
      "d": 1514.4195937499899,
      "v": 64
    },
    {
      "midi": 65,
      "hit": false,
      "t": 107688.05359895813,
      "d": 1846.9508802083146,
      "v": 64
    },
    {
      "midi": 60,
      "hit": false,
      "t": 107688.05359895813,
      "d": 1899.034093749986,
      "v": 64
    },
    {
      "midi": 57,
      "hit": false,
      "t": 107688.05359895813,
      "d": 2003.200520833314,
      "v": 64
    },
    {
      "midi": 53,
      "hit": false,
      "t": 107688.05359895813,
      "d": 2027.2389270833082,
      "v": 64
    },
    {
      "midi": 29,
      "hit": false,
      "t": 107688.05359895813,
      "d": 1514.4195937499899,
      "v": 64
    },
    {
      "midi": 41,
      "hit": false,
      "t": 107688.05359895813,
      "d": 1514.4195937499899,
      "v": 64
    },
    {
      "midi": 65,
      "hit": false,
      "t": 107688.05359895813,
      "d": 1846.9508802083146,
      "v": 64
    },
    {
      "midi": 60,
      "hit": false,
      "t": 107688.05359895813,
      "d": 1899.034093749986,
      "v": 64
    },
    {
      "midi": 57,
      "hit": false,
      "t": 107688.05359895813,
      "d": 2003.200520833314,
      "v": 64
    },
    {
      "midi": 53,
      "hit": false,
      "t": 107688.05359895813,
      "d": 2027.2389270833082,
      "v": 64
    },
    {
      "midi": 29,
      "hit": false,
      "t": 109226.51159895811,
      "d": 1410.2531666666328,
      "v": 64
    },
    {
      "midi": 41,
      "hit": false,
      "t": 109226.51159895811,
      "d": 1514.4195937499608,
      "v": 64
    },
    {
      "midi": 29,
      "hit": false,
      "t": 109226.51159895811,
      "d": 1410.2531666666328,
      "v": 64
    },
    {
      "midi": 41,
      "hit": false,
      "t": 109226.51159895811,
      "d": 1514.4195937499608,
      "v": 64
    },
    {
      "midi": 55,
      "hit": false,
      "t": 109611.1260989581,
      "d": 592.9473541666521,
      "v": 64
    },
    {
      "midi": 60,
      "hit": false,
      "t": 109611.1260989581,
      "d": 592.9473541666521,
      "v": 64
    },
    {
      "midi": 65,
      "hit": false,
      "t": 109611.1260989581,
      "d": 592.9473541666521,
      "v": 64
    },
    {
      "midi": 55,
      "hit": false,
      "t": 109611.1260989581,
      "d": 592.9473541666521,
      "v": 64
    },
    {
      "midi": 60,
      "hit": false,
      "t": 109611.1260989581,
      "d": 592.9473541666521,
      "v": 64
    },
    {
      "midi": 65,
      "hit": false,
      "t": 109611.1260989581,
      "d": 592.9473541666521,
      "v": 64
    },
    {
      "midi": 53,
      "hit": false,
      "t": 109739.33093229143,
      "d": 464.74252083332976,
      "v": 64
    },
    {
      "midi": 53,
      "hit": false,
      "t": 109739.33093229143,
      "d": 464.74252083332976,
      "v": 64
    },
    {
      "midi": 55,
      "hit": false,
      "t": 110252.15026562476,
      "d": 336.5376874999929,
      "v": 64
    },
    {
      "midi": 53,
      "hit": false,
      "t": 110252.15026562476,
      "d": 360.5760937499872,
      "v": 64
    },
    {
      "midi": 65,
      "hit": false,
      "t": 110252.15026562476,
      "d": 360.5760937499872,
      "v": 64
    },
    {
      "midi": 60,
      "hit": false,
      "t": 110252.15026562476,
      "d": 412.6593072916439,
      "v": 64
    },
    {
      "midi": 55,
      "hit": false,
      "t": 110252.15026562476,
      "d": 336.5376874999929,
      "v": 64
    },
    {
      "midi": 53,
      "hit": false,
      "t": 110252.15026562476,
      "d": 360.5760937499872,
      "v": 64
    },
    {
      "midi": 65,
      "hit": false,
      "t": 110252.15026562476,
      "d": 360.5760937499872,
      "v": 64
    },
    {
      "midi": 60,
      "hit": false,
      "t": 110252.15026562476,
      "d": 412.6593072916439,
      "v": 64
    },
    {
      "midi": 26,
      "hit": false,
      "t": 110636.76476562474,
      "d": 128.2048333333223,
      "v": 64
    },
    {
      "midi": 26,
      "hit": false,
      "t": 110636.76476562474,
      "d": 128.2048333333223,
      "v": 64
    },
    {
      "midi": 55,
      "hit": false,
      "t": 110764.96959895807,
      "d": 128.20483333333686,
      "v": 64
    },
    {
      "midi": 29,
      "hit": false,
      "t": 110764.96959895807,
      "d": 1514.4195937500044,
      "v": 64
    },
    {
      "midi": 41,
      "hit": false,
      "t": 110764.96959895807,
      "d": 1514.4195937500044,
      "v": 64
    },
    {
      "midi": 53,
      "hit": false,
      "t": 110764.96959895807,
      "d": 1514.4195937500044,
      "v": 64
    },
    {
      "midi": 60,
      "hit": false,
      "t": 110764.96959895807,
      "d": 1899.034093749986,
      "v": 64
    },
    {
      "midi": 65,
      "hit": false,
      "t": 110764.96959895807,
      "d": 3052.877593749974,
      "v": 64
    },
    {
      "midi": 55,
      "hit": false,
      "t": 110764.96959895807,
      "d": 128.20483333333686,
      "v": 64
    },
    {
      "midi": 29,
      "hit": false,
      "t": 110764.96959895807,
      "d": 1514.4195937500044,
      "v": 64
    },
    {
      "midi": 41,
      "hit": false,
      "t": 110764.96959895807,
      "d": 1514.4195937500044,
      "v": 64
    },
    {
      "midi": 53,
      "hit": false,
      "t": 110764.96959895807,
      "d": 1514.4195937500044,
      "v": 64
    },
    {
      "midi": 60,
      "hit": false,
      "t": 110764.96959895807,
      "d": 1899.034093749986,
      "v": 64
    },
    {
      "midi": 65,
      "hit": false,
      "t": 110764.96959895807,
      "d": 3052.877593749974,
      "v": 64
    },
    {
      "midi": 57,
      "hit": false,
      "t": 110893.1744322914,
      "d": 1746.7908541666548,
      "v": 64
    },
    {
      "midi": 57,
      "hit": false,
      "t": 110893.1744322914,
      "d": 1746.7908541666548,
      "v": 64
    },
    {
      "midi": 41,
      "hit": false,
      "t": 112303.42759895806,
      "d": 232.37126041666488,
      "v": 64
    },
    {
      "midi": 53,
      "hit": false,
      "t": 112303.42759895806,
      "d": 336.5376874999929,
      "v": 64
    },
    {
      "midi": 29,
      "hit": false,
      "t": 112303.42759895806,
      "d": 1514.4195937499753,
      "v": 64
    },
    {
      "midi": 41,
      "hit": false,
      "t": 112303.42759895806,
      "d": 232.37126041666488,
      "v": 64
    },
    {
      "midi": 53,
      "hit": false,
      "t": 112303.42759895806,
      "d": 336.5376874999929,
      "v": 64
    },
    {
      "midi": 29,
      "hit": false,
      "t": 112303.42759895806,
      "d": 1514.4195937499753,
      "v": 64
    },
    {
      "midi": 41,
      "hit": false,
      "t": 112559.83726562472,
      "d": 1258.0099270833161,
      "v": 64
    },
    {
      "midi": 41,
      "hit": false,
      "t": 112559.83726562472,
      "d": 1258.0099270833161,
      "v": 64
    },
    {
      "midi": 53,
      "hit": false,
      "t": 112688.04209895805,
      "d": 488.7809270833386,
      "v": 64
    },
    {
      "midi": 57,
      "hit": false,
      "t": 112688.04209895805,
      "d": 488.7809270833386,
      "v": 64
    },
    {
      "midi": 60,
      "hit": false,
      "t": 112688.04209895805,
      "d": 488.7809270833386,
      "v": 64
    },
    {
      "midi": 53,
      "hit": false,
      "t": 112688.04209895805,
      "d": 488.7809270833386,
      "v": 64
    },
    {
      "midi": 57,
      "hit": false,
      "t": 112688.04209895805,
      "d": 488.7809270833386,
      "v": 64
    },
    {
      "midi": 60,
      "hit": false,
      "t": 112688.04209895805,
      "d": 488.7809270833386,
      "v": 64
    },
    {
      "midi": 53,
      "hit": false,
      "t": 113329.06626562472,
      "d": 488.78092708332406,
      "v": 64
    },
    {
      "midi": 57,
      "hit": false,
      "t": 113329.06626562472,
      "d": 488.78092708332406,
      "v": 64
    },
    {
      "midi": 62,
      "hit": false,
      "t": 113329.06626562472,
      "d": 488.78092708332406,
      "v": 64
    },
    {
      "midi": 53,
      "hit": false,
      "t": 113329.06626562472,
      "d": 488.78092708332406,
      "v": 64
    },
    {
      "midi": 57,
      "hit": false,
      "t": 113329.06626562472,
      "d": 488.78092708332406,
      "v": 64
    },
    {
      "midi": 62,
      "hit": false,
      "t": 113329.06626562472,
      "d": 488.78092708332406,
      "v": 64
    },
    {
      "midi": 31,
      "hit": false,
      "t": 113713.68076562471,
      "d": 128.2048333333223,
      "v": 64
    },
    {
      "midi": 31,
      "hit": false,
      "t": 113713.68076562471,
      "d": 128.2048333333223,
      "v": 64
    },
    {
      "midi": 36,
      "hit": false,
      "t": 113841.88559895803,
      "d": 1514.4195937500044,
      "v": 64
    },
    {
      "midi": 48,
      "hit": false,
      "t": 113841.88559895803,
      "d": 1514.4195937500044,
      "v": 64
    },
    {
      "midi": 60,
      "hit": false,
      "t": 113841.88559895803,
      "d": 1514.4195937500044,
      "v": 64
    },
    {
      "midi": 64,
      "hit": false,
      "t": 113841.88559895803,
      "d": 1874.9956874999916,
      "v": 64
    },
    {
      "midi": 55,
      "hit": false,
      "t": 113841.88559895803,
      "d": 1899.034093749986,
      "v": 64
    },
    {
      "midi": 36,
      "hit": false,
      "t": 113841.88559895803,
      "d": 1514.4195937500044,
      "v": 64
    },
    {
      "midi": 48,
      "hit": false,
      "t": 113841.88559895803,
      "d": 1514.4195937500044,
      "v": 64
    },
    {
      "midi": 60,
      "hit": false,
      "t": 113841.88559895803,
      "d": 1514.4195937500044,
      "v": 64
    },
    {
      "midi": 64,
      "hit": false,
      "t": 113841.88559895803,
      "d": 1874.9956874999916,
      "v": 64
    },
    {
      "midi": 55,
      "hit": false,
      "t": 113841.88559895803,
      "d": 1899.034093749986,
      "v": 64
    },
    {
      "midi": 60,
      "hit": false,
      "t": 115380.34359895803,
      "d": 360.5760937499872,
      "v": 64
    },
    {
      "midi": 36,
      "hit": false,
      "t": 115380.34359895803,
      "d": 1410.2531666666473,
      "v": 64
    },
    {
      "midi": 48,
      "hit": false,
      "t": 115380.34359895803,
      "d": 1514.4195937499753,
      "v": 64
    },
    {
      "midi": 60,
      "hit": false,
      "t": 115380.34359895803,
      "d": 360.5760937499872,
      "v": 64
    },
    {
      "midi": 36,
      "hit": false,
      "t": 115380.34359895803,
      "d": 1410.2531666666473,
      "v": 64
    },
    {
      "midi": 48,
      "hit": false,
      "t": 115380.34359895803,
      "d": 1514.4195937499753,
      "v": 64
    },
    {
      "midi": 55,
      "hit": false,
      "t": 115764.95809895801,
      "d": 592.9473541666666,
      "v": 64
    },
    {
      "midi": 60,
      "hit": false,
      "t": 115764.95809895801,
      "d": 641.0241666666698,
      "v": 64
    },
    {
      "midi": 64,
      "hit": false,
      "t": 115764.95809895801,
      "d": 641.0241666666698,
      "v": 64
    },
    {
      "midi": 55,
      "hit": false,
      "t": 115764.95809895801,
      "d": 592.9473541666666,
      "v": 64
    },
    {
      "midi": 60,
      "hit": false,
      "t": 115764.95809895801,
      "d": 641.0241666666698,
      "v": 64
    },
    {
      "midi": 64,
      "hit": false,
      "t": 115764.95809895801,
      "d": 641.0241666666698,
      "v": 64
    },
    {
      "midi": 55,
      "hit": false,
      "t": 116405.98226562468,
      "d": 384.61449999999604,
      "v": 64
    },
    {
      "midi": 62,
      "hit": false,
      "t": 116405.98226562468,
      "d": 384.61449999999604,
      "v": 64
    },
    {
      "midi": 65,
      "hit": false,
      "t": 116405.98226562468,
      "d": 384.61449999999604,
      "v": 64
    },
    {
      "midi": 55,
      "hit": false,
      "t": 116405.98226562468,
      "d": 384.61449999999604,
      "v": 64
    },
    {
      "midi": 62,
      "hit": false,
      "t": 116405.98226562468,
      "d": 384.61449999999604,
      "v": 64
    },
    {
      "midi": 65,
      "hit": false,
      "t": 116405.98226562468,
      "d": 384.61449999999604,
      "v": 64
    },
    {
      "midi": 26,
      "hit": false,
      "t": 116726.49434895802,
      "d": 192.30724999998347,
      "v": 64
    },
    {
      "midi": 26,
      "hit": false,
      "t": 116726.49434895802,
      "d": 192.30724999998347,
      "v": 64
    },
    {
      "midi": 31,
      "hit": false,
      "t": 116918.801598958,
      "d": 1386.2147604166676,
      "v": 64
    },
    {
      "midi": 43,
      "hit": false,
      "t": 116918.801598958,
      "d": 1514.4195937499899,
      "v": 64
    },
    {
      "midi": 55,
      "hit": false,
      "t": 116918.801598958,
      "d": 1874.995687499977,
      "v": 64
    },
    {
      "midi": 59,
      "hit": false,
      "t": 116918.801598958,
      "d": 1874.995687499977,
      "v": 64
    },
    {
      "midi": 62,
      "hit": false,
      "t": 116918.801598958,
      "d": 1899.0340937499714,
      "v": 64
    },
    {
      "midi": 31,
      "hit": false,
      "t": 116918.801598958,
      "d": 1386.2147604166676,
      "v": 64
    },
    {
      "midi": 43,
      "hit": false,
      "t": 116918.801598958,
      "d": 1514.4195937499899,
      "v": 64
    },
    {
      "midi": 55,
      "hit": false,
      "t": 116918.801598958,
      "d": 1874.995687499977,
      "v": 64
    },
    {
      "midi": 59,
      "hit": false,
      "t": 116918.801598958,
      "d": 1874.995687499977,
      "v": 64
    },
    {
      "midi": 62,
      "hit": false,
      "t": 116918.801598958,
      "d": 1899.0340937499714,
      "v": 64
    },
    {
      "midi": 31,
      "hit": false,
      "t": 118329.05476562466,
      "d": 104.16642708332802,
      "v": 64
    },
    {
      "midi": 31,
      "hit": false,
      "t": 118329.05476562466,
      "d": 104.16642708332802,
      "v": 64
    },
    {
      "midi": 31,
      "hit": false,
      "t": 118457.25959895799,
      "d": 1282.0483333333104,
      "v": 64
    },
    {
      "midi": 43,
      "hit": false,
      "t": 118457.25959895799,
      "d": 1514.4195937499899,
      "v": 64
    },
    {
      "midi": 31,
      "hit": false,
      "t": 118457.25959895799,
      "d": 1282.0483333333104,
      "v": 64
    },
    {
      "midi": 43,
      "hit": false,
      "t": 118457.25959895799,
      "d": 1514.4195937499899,
      "v": 64
    },
    {
      "midi": 55,
      "hit": false,
      "t": 118841.87409895797,
      "d": 592.9473541666666,
      "v": 64
    },
    {
      "midi": 59,
      "hit": false,
      "t": 118841.87409895797,
      "d": 641.0241666666698,
      "v": 64
    },
    {
      "midi": 62,
      "hit": false,
      "t": 118841.87409895797,
      "d": 669.0689739583322,
      "v": 64
    },
    {
      "midi": 55,
      "hit": false,
      "t": 118841.87409895797,
      "d": 592.9473541666666,
      "v": 64
    },
    {
      "midi": 59,
      "hit": false,
      "t": 118841.87409895797,
      "d": 641.0241666666698,
      "v": 64
    },
    {
      "midi": 62,
      "hit": false,
      "t": 118841.87409895797,
      "d": 669.0689739583322,
      "v": 64
    },
    {
      "midi": 55,
      "hit": false,
      "t": 119482.89826562464,
      "d": 436.6977135416673,
      "v": 64
    },
    {
      "midi": 60,
      "hit": false,
      "t": 119482.89826562464,
      "d": 436.6977135416673,
      "v": 64
    },
    {
      "midi": 64,
      "hit": false,
      "t": 119482.89826562464,
      "d": 436.6977135416673,
      "v": 64
    },
    {
      "midi": 55,
      "hit": false,
      "t": 119482.89826562464,
      "d": 436.6977135416673,
      "v": 64
    },
    {
      "midi": 60,
      "hit": false,
      "t": 119482.89826562464,
      "d": 436.6977135416673,
      "v": 64
    },
    {
      "midi": 64,
      "hit": false,
      "t": 119482.89826562464,
      "d": 436.6977135416673,
      "v": 64
    },
    {
      "midi": 26,
      "hit": false,
      "t": 119867.51276562463,
      "d": 156.2496406249993,
      "v": 64
    },
    {
      "midi": 26,
      "hit": false,
      "t": 119867.51276562463,
      "d": 156.2496406249993,
      "v": 64
    },
    {
      "midi": 29,
      "hit": false,
      "t": 119995.71759895797,
      "d": 1514.4195937499899,
      "v": 64
    },
    {
      "midi": 41,
      "hit": false,
      "t": 119995.71759895797,
      "d": 1514.4195937499899,
      "v": 64
    },
    {
      "midi": 65,
      "hit": false,
      "t": 119995.71759895797,
      "d": 1846.9508802083146,
      "v": 64
    },
    {
      "midi": 60,
      "hit": false,
      "t": 119995.71759895797,
      "d": 1899.034093749986,
      "v": 64
    },
    {
      "midi": 57,
      "hit": false,
      "t": 119995.71759895797,
      "d": 2003.200520833314,
      "v": 64
    },
    {
      "midi": 53,
      "hit": false,
      "t": 119995.71759895797,
      "d": 2027.2389270833082,
      "v": 64
    },
    {
      "midi": 29,
      "hit": false,
      "t": 119995.71759895797,
      "d": 1514.4195937499899,
      "v": 64
    },
    {
      "midi": 41,
      "hit": false,
      "t": 119995.71759895797,
      "d": 1514.4195937499899,
      "v": 64
    },
    {
      "midi": 65,
      "hit": false,
      "t": 119995.71759895797,
      "d": 1846.9508802083146,
      "v": 64
    },
    {
      "midi": 60,
      "hit": false,
      "t": 119995.71759895797,
      "d": 1899.034093749986,
      "v": 64
    },
    {
      "midi": 57,
      "hit": false,
      "t": 119995.71759895797,
      "d": 2003.200520833314,
      "v": 64
    },
    {
      "midi": 53,
      "hit": false,
      "t": 119995.71759895797,
      "d": 2027.2389270833082,
      "v": 64
    },
    {
      "midi": 29,
      "hit": false,
      "t": 121534.17559895795,
      "d": 1410.2531666666328,
      "v": 64
    },
    {
      "midi": 41,
      "hit": false,
      "t": 121534.17559895795,
      "d": 1514.4195937499608,
      "v": 64
    },
    {
      "midi": 29,
      "hit": false,
      "t": 121534.17559895795,
      "d": 1410.2531666666328,
      "v": 64
    },
    {
      "midi": 41,
      "hit": false,
      "t": 121534.17559895795,
      "d": 1514.4195937499608,
      "v": 64
    },
    {
      "midi": 55,
      "hit": false,
      "t": 121918.79009895795,
      "d": 592.9473541666521,
      "v": 64
    },
    {
      "midi": 60,
      "hit": false,
      "t": 121918.79009895795,
      "d": 592.9473541666521,
      "v": 64
    },
    {
      "midi": 65,
      "hit": false,
      "t": 121918.79009895795,
      "d": 592.9473541666521,
      "v": 64
    },
    {
      "midi": 55,
      "hit": false,
      "t": 121918.79009895795,
      "d": 592.9473541666521,
      "v": 64
    },
    {
      "midi": 60,
      "hit": false,
      "t": 121918.79009895795,
      "d": 592.9473541666521,
      "v": 64
    },
    {
      "midi": 65,
      "hit": false,
      "t": 121918.79009895795,
      "d": 592.9473541666521,
      "v": 64
    },
    {
      "midi": 53,
      "hit": false,
      "t": 122046.99493229127,
      "d": 464.74252083332976,
      "v": 64
    },
    {
      "midi": 53,
      "hit": false,
      "t": 122046.99493229127,
      "d": 464.74252083332976,
      "v": 64
    },
    {
      "midi": 55,
      "hit": false,
      "t": 122559.8142656246,
      "d": 336.5376874999929,
      "v": 64
    },
    {
      "midi": 53,
      "hit": false,
      "t": 122559.8142656246,
      "d": 360.5760937499872,
      "v": 64
    },
    {
      "midi": 65,
      "hit": false,
      "t": 122559.8142656246,
      "d": 360.5760937499872,
      "v": 64
    },
    {
      "midi": 60,
      "hit": false,
      "t": 122559.8142656246,
      "d": 412.6593072916439,
      "v": 64
    },
    {
      "midi": 55,
      "hit": false,
      "t": 122559.8142656246,
      "d": 336.5376874999929,
      "v": 64
    },
    {
      "midi": 53,
      "hit": false,
      "t": 122559.8142656246,
      "d": 360.5760937499872,
      "v": 64
    },
    {
      "midi": 65,
      "hit": false,
      "t": 122559.8142656246,
      "d": 360.5760937499872,
      "v": 64
    },
    {
      "midi": 60,
      "hit": false,
      "t": 122559.8142656246,
      "d": 412.6593072916439,
      "v": 64
    },
    {
      "midi": 26,
      "hit": false,
      "t": 122944.42876562459,
      "d": 128.2048333333223,
      "v": 64
    },
    {
      "midi": 26,
      "hit": false,
      "t": 122944.42876562459,
      "d": 128.2048333333223,
      "v": 64
    },
    {
      "midi": 55,
      "hit": false,
      "t": 123072.63359895791,
      "d": 128.20483333333686,
      "v": 64
    },
    {
      "midi": 29,
      "hit": false,
      "t": 123072.63359895791,
      "d": 1514.4195937500044,
      "v": 64
    },
    {
      "midi": 41,
      "hit": false,
      "t": 123072.63359895791,
      "d": 1514.4195937500044,
      "v": 64
    },
    {
      "midi": 53,
      "hit": false,
      "t": 123072.63359895791,
      "d": 1514.4195937500044,
      "v": 64
    },
    {
      "midi": 60,
      "hit": false,
      "t": 123072.63359895791,
      "d": 1899.034093749986,
      "v": 64
    },
    {
      "midi": 65,
      "hit": false,
      "t": 123072.63359895791,
      "d": 3052.877593749974,
      "v": 64
    },
    {
      "midi": 55,
      "hit": false,
      "t": 123072.63359895791,
      "d": 128.20483333333686,
      "v": 64
    },
    {
      "midi": 29,
      "hit": false,
      "t": 123072.63359895791,
      "d": 1514.4195937500044,
      "v": 64
    },
    {
      "midi": 41,
      "hit": false,
      "t": 123072.63359895791,
      "d": 1514.4195937500044,
      "v": 64
    },
    {
      "midi": 53,
      "hit": false,
      "t": 123072.63359895791,
      "d": 1514.4195937500044,
      "v": 64
    },
    {
      "midi": 60,
      "hit": false,
      "t": 123072.63359895791,
      "d": 1899.034093749986,
      "v": 64
    },
    {
      "midi": 65,
      "hit": false,
      "t": 123072.63359895791,
      "d": 3052.877593749974,
      "v": 64
    },
    {
      "midi": 57,
      "hit": false,
      "t": 123200.83843229125,
      "d": 1746.7908541666548,
      "v": 64
    },
    {
      "midi": 57,
      "hit": false,
      "t": 123200.83843229125,
      "d": 1746.7908541666548,
      "v": 64
    },
    {
      "midi": 41,
      "hit": false,
      "t": 124611.09159895791,
      "d": 232.37126041666488,
      "v": 64
    },
    {
      "midi": 53,
      "hit": false,
      "t": 124611.09159895791,
      "d": 336.5376874999929,
      "v": 64
    },
    {
      "midi": 29,
      "hit": false,
      "t": 124611.09159895791,
      "d": 1514.4195937499753,
      "v": 64
    },
    {
      "midi": 41,
      "hit": false,
      "t": 124611.09159895791,
      "d": 232.37126041666488,
      "v": 64
    },
    {
      "midi": 53,
      "hit": false,
      "t": 124611.09159895791,
      "d": 336.5376874999929,
      "v": 64
    },
    {
      "midi": 29,
      "hit": false,
      "t": 124611.09159895791,
      "d": 1514.4195937499753,
      "v": 64
    },
    {
      "midi": 41,
      "hit": false,
      "t": 124867.50126562457,
      "d": 1258.0099270833161,
      "v": 64
    },
    {
      "midi": 41,
      "hit": false,
      "t": 124867.50126562457,
      "d": 1258.0099270833161,
      "v": 64
    },
    {
      "midi": 53,
      "hit": false,
      "t": 124995.70609895789,
      "d": 488.7809270833386,
      "v": 64
    },
    {
      "midi": 57,
      "hit": false,
      "t": 124995.70609895789,
      "d": 488.7809270833386,
      "v": 64
    },
    {
      "midi": 60,
      "hit": false,
      "t": 124995.70609895789,
      "d": 488.7809270833386,
      "v": 64
    },
    {
      "midi": 53,
      "hit": false,
      "t": 124995.70609895789,
      "d": 488.7809270833386,
      "v": 64
    },
    {
      "midi": 57,
      "hit": false,
      "t": 124995.70609895789,
      "d": 488.7809270833386,
      "v": 64
    },
    {
      "midi": 60,
      "hit": false,
      "t": 124995.70609895789,
      "d": 488.7809270833386,
      "v": 64
    },
    {
      "midi": 53,
      "hit": false,
      "t": 125636.73026562456,
      "d": 488.78092708332406,
      "v": 64
    },
    {
      "midi": 57,
      "hit": false,
      "t": 125636.73026562456,
      "d": 488.78092708332406,
      "v": 64
    },
    {
      "midi": 62,
      "hit": false,
      "t": 125636.73026562456,
      "d": 488.78092708332406,
      "v": 64
    },
    {
      "midi": 53,
      "hit": false,
      "t": 125636.73026562456,
      "d": 488.78092708332406,
      "v": 64
    },
    {
      "midi": 57,
      "hit": false,
      "t": 125636.73026562456,
      "d": 488.78092708332406,
      "v": 64
    },
    {
      "midi": 62,
      "hit": false,
      "t": 125636.73026562456,
      "d": 488.78092708332406,
      "v": 64
    },
    {
      "midi": 31,
      "hit": false,
      "t": 126021.34476562456,
      "d": 128.2048333333223,
      "v": 64
    },
    {
      "midi": 31,
      "hit": false,
      "t": 126021.34476562456,
      "d": 128.2048333333223,
      "v": 64
    },
    {
      "midi": 55,
      "hit": false,
      "t": 126149.54959895788,
      "d": 745.1905937499978,
      "v": 45
    },
    {
      "midi": 59,
      "hit": false,
      "t": 126149.54959895788,
      "d": 745.1905937499978,
      "v": 45
    },
    {
      "midi": 62,
      "hit": false,
      "t": 126149.54959895788,
      "d": 745.1905937499978,
      "v": 45
    },
    {
      "midi": 31,
      "hit": false,
      "t": 126149.54959895788,
      "d": 3052.877593749974,
      "v": 44
    },
    {
      "midi": 55,
      "hit": false,
      "t": 126149.54959895788,
      "d": 745.1905937499978,
      "v": 45
    },
    {
      "midi": 59,
      "hit": false,
      "t": 126149.54959895788,
      "d": 745.1905937499978,
      "v": 45
    },
    {
      "midi": 62,
      "hit": false,
      "t": 126149.54959895788,
      "d": 745.1905937499978,
      "v": 45
    },
    {
      "midi": 31,
      "hit": false,
      "t": 126149.54959895788,
      "d": 3052.877593749974,
      "v": 44
    },
    {
      "midi": 55,
      "hit": false,
      "t": 126918.77859895787,
      "d": 745.1905937499978,
      "v": 43
    },
    {
      "midi": 59,
      "hit": false,
      "t": 126918.77859895787,
      "d": 745.1905937499978,
      "v": 43
    },
    {
      "midi": 62,
      "hit": false,
      "t": 126918.77859895787,
      "d": 745.1905937499978,
      "v": 43
    },
    {
      "midi": 55,
      "hit": false,
      "t": 126918.77859895787,
      "d": 745.1905937499978,
      "v": 43
    },
    {
      "midi": 59,
      "hit": false,
      "t": 126918.77859895787,
      "d": 745.1905937499978,
      "v": 43
    },
    {
      "midi": 62,
      "hit": false,
      "t": 126918.77859895787,
      "d": 745.1905937499978,
      "v": 43
    },
    {
      "midi": 55,
      "hit": false,
      "t": 127688.00759895786,
      "d": 745.1905937499978,
      "v": 42
    },
    {
      "midi": 59,
      "hit": false,
      "t": 127688.00759895786,
      "d": 745.1905937499978,
      "v": 42
    },
    {
      "midi": 62,
      "hit": false,
      "t": 127688.00759895786,
      "d": 745.1905937499978,
      "v": 42
    },
    {
      "midi": 55,
      "hit": false,
      "t": 127688.00759895786,
      "d": 745.1905937499978,
      "v": 42
    },
    {
      "midi": 59,
      "hit": false,
      "t": 127688.00759895786,
      "d": 745.1905937499978,
      "v": 42
    },
    {
      "midi": 62,
      "hit": false,
      "t": 127688.00759895786,
      "d": 745.1905937499978,
      "v": 42
    },
    {
      "midi": 55,
      "hit": false,
      "t": 128457.23659895785,
      "d": 745.1905937499978,
      "v": 44
    },
    {
      "midi": 59,
      "hit": false,
      "t": 128457.23659895785,
      "d": 745.1905937499978,
      "v": 44
    },
    {
      "midi": 62,
      "hit": false,
      "t": 128457.23659895785,
      "d": 745.1905937499978,
      "v": 44
    },
    {
      "midi": 55,
      "hit": false,
      "t": 128457.23659895785,
      "d": 745.1905937499978,
      "v": 44
    },
    {
      "midi": 59,
      "hit": false,
      "t": 128457.23659895785,
      "d": 745.1905937499978,
      "v": 44
    },
    {
      "midi": 62,
      "hit": false,
      "t": 128457.23659895785,
      "d": 745.1905937499978,
      "v": 44
    },
    {
      "midi": 54,
      "hit": false,
      "t": 129226.46559895785,
      "d": 745.1905937499978,
      "v": 44
    },
    {
      "midi": 57,
      "hit": false,
      "t": 129226.46559895785,
      "d": 745.1905937499978,
      "v": 44
    },
    {
      "midi": 62,
      "hit": false,
      "t": 129226.46559895785,
      "d": 745.1905937499978,
      "v": 44
    },
    {
      "midi": 66,
      "hit": false,
      "t": 129226.46559895785,
      "d": 745.1905937499978,
      "v": 44
    },
    {
      "midi": 38,
      "hit": false,
      "t": 129226.46559895785,
      "d": 3052.8775937500177,
      "v": 44
    },
    {
      "midi": 54,
      "hit": false,
      "t": 129226.46559895785,
      "d": 745.1905937499978,
      "v": 44
    },
    {
      "midi": 57,
      "hit": false,
      "t": 129226.46559895785,
      "d": 745.1905937499978,
      "v": 44
    },
    {
      "midi": 62,
      "hit": false,
      "t": 129226.46559895785,
      "d": 745.1905937499978,
      "v": 44
    },
    {
      "midi": 66,
      "hit": false,
      "t": 129226.46559895785,
      "d": 745.1905937499978,
      "v": 44
    },
    {
      "midi": 38,
      "hit": false,
      "t": 129226.46559895785,
      "d": 3052.8775937500177,
      "v": 44
    },
    {
      "midi": 54,
      "hit": false,
      "t": 129995.69459895784,
      "d": 745.1905937499978,
      "v": 44
    },
    {
      "midi": 57,
      "hit": false,
      "t": 129995.69459895784,
      "d": 745.1905937499978,
      "v": 44
    },
    {
      "midi": 62,
      "hit": false,
      "t": 129995.69459895784,
      "d": 745.1905937499978,
      "v": 44
    },
    {
      "midi": 66,
      "hit": false,
      "t": 129995.69459895784,
      "d": 745.1905937499978,
      "v": 44
    },
    {
      "midi": 54,
      "hit": false,
      "t": 129995.69459895784,
      "d": 745.1905937499978,
      "v": 44
    },
    {
      "midi": 57,
      "hit": false,
      "t": 129995.69459895784,
      "d": 745.1905937499978,
      "v": 44
    },
    {
      "midi": 62,
      "hit": false,
      "t": 129995.69459895784,
      "d": 745.1905937499978,
      "v": 44
    },
    {
      "midi": 66,
      "hit": false,
      "t": 129995.69459895784,
      "d": 745.1905937499978,
      "v": 44
    },
    {
      "midi": 54,
      "hit": false,
      "t": 130764.92359895783,
      "d": 745.1905937500123,
      "v": 44
    },
    {
      "midi": 57,
      "hit": false,
      "t": 130764.92359895783,
      "d": 745.1905937500123,
      "v": 44
    },
    {
      "midi": 62,
      "hit": false,
      "t": 130764.92359895783,
      "d": 745.1905937500123,
      "v": 44
    },
    {
      "midi": 66,
      "hit": false,
      "t": 130764.92359895783,
      "d": 745.1905937500123,
      "v": 44
    },
    {
      "midi": 54,
      "hit": false,
      "t": 130764.92359895783,
      "d": 745.1905937500123,
      "v": 44
    },
    {
      "midi": 57,
      "hit": false,
      "t": 130764.92359895783,
      "d": 745.1905937500123,
      "v": 44
    },
    {
      "midi": 62,
      "hit": false,
      "t": 130764.92359895783,
      "d": 745.1905937500123,
      "v": 44
    },
    {
      "midi": 66,
      "hit": false,
      "t": 130764.92359895783,
      "d": 745.1905937500123,
      "v": 44
    },
    {
      "midi": 54,
      "hit": false,
      "t": 131534.15259895785,
      "d": 745.1905937500123,
      "v": 44
    },
    {
      "midi": 57,
      "hit": false,
      "t": 131534.15259895785,
      "d": 745.1905937500123,
      "v": 44
    },
    {
      "midi": 62,
      "hit": false,
      "t": 131534.15259895785,
      "d": 745.1905937500123,
      "v": 44
    },
    {
      "midi": 66,
      "hit": false,
      "t": 131534.15259895785,
      "d": 745.1905937500123,
      "v": 44
    },
    {
      "midi": 54,
      "hit": false,
      "t": 131534.15259895785,
      "d": 745.1905937500123,
      "v": 44
    },
    {
      "midi": 57,
      "hit": false,
      "t": 131534.15259895785,
      "d": 745.1905937500123,
      "v": 44
    },
    {
      "midi": 62,
      "hit": false,
      "t": 131534.15259895785,
      "d": 745.1905937500123,
      "v": 44
    },
    {
      "midi": 66,
      "hit": false,
      "t": 131534.15259895785,
      "d": 745.1905937500123,
      "v": 44
    },
    {
      "midi": 53,
      "hit": false,
      "t": 132303.38159895787,
      "d": 745.1905937500123,
      "v": 44
    },
    {
      "midi": 57,
      "hit": false,
      "t": 132303.38159895787,
      "d": 745.1905937500123,
      "v": 44
    },
    {
      "midi": 60,
      "hit": false,
      "t": 132303.38159895787,
      "d": 745.1905937500123,
      "v": 44
    },
    {
      "midi": 65,
      "hit": false,
      "t": 132303.38159895787,
      "d": 745.1905937500123,
      "v": 44
    },
    {
      "midi": 29,
      "hit": false,
      "t": 132303.38159895787,
      "d": 3052.877593750076,
      "v": 44
    },
    {
      "midi": 53,
      "hit": false,
      "t": 132303.38159895787,
      "d": 745.1905937500123,
      "v": 44
    },
    {
      "midi": 57,
      "hit": false,
      "t": 132303.38159895787,
      "d": 745.1905937500123,
      "v": 44
    },
    {
      "midi": 60,
      "hit": false,
      "t": 132303.38159895787,
      "d": 745.1905937500123,
      "v": 44
    },
    {
      "midi": 65,
      "hit": false,
      "t": 132303.38159895787,
      "d": 745.1905937500123,
      "v": 44
    },
    {
      "midi": 29,
      "hit": false,
      "t": 132303.38159895787,
      "d": 3052.877593750076,
      "v": 44
    },
    {
      "midi": 53,
      "hit": false,
      "t": 133072.6105989579,
      "d": 745.1905937500123,
      "v": 44
    },
    {
      "midi": 57,
      "hit": false,
      "t": 133072.6105989579,
      "d": 745.1905937500123,
      "v": 44
    },
    {
      "midi": 60,
      "hit": false,
      "t": 133072.6105989579,
      "d": 745.1905937500123,
      "v": 44
    },
    {
      "midi": 65,
      "hit": false,
      "t": 133072.6105989579,
      "d": 745.1905937500123,
      "v": 44
    },
    {
      "midi": 53,
      "hit": false,
      "t": 133072.6105989579,
      "d": 745.1905937500123,
      "v": 44
    },
    {
      "midi": 57,
      "hit": false,
      "t": 133072.6105989579,
      "d": 745.1905937500123,
      "v": 44
    },
    {
      "midi": 60,
      "hit": false,
      "t": 133072.6105989579,
      "d": 745.1905937500123,
      "v": 44
    },
    {
      "midi": 65,
      "hit": false,
      "t": 133072.6105989579,
      "d": 745.1905937500123,
      "v": 44
    },
    {
      "midi": 53,
      "hit": false,
      "t": 133841.83959895791,
      "d": 745.1905937500123,
      "v": 44
    },
    {
      "midi": 57,
      "hit": false,
      "t": 133841.83959895791,
      "d": 745.1905937500123,
      "v": 44
    },
    {
      "midi": 60,
      "hit": false,
      "t": 133841.83959895791,
      "d": 745.1905937500123,
      "v": 44
    },
    {
      "midi": 65,
      "hit": false,
      "t": 133841.83959895791,
      "d": 745.1905937500123,
      "v": 44
    },
    {
      "midi": 53,
      "hit": false,
      "t": 133841.83959895791,
      "d": 745.1905937500123,
      "v": 44
    },
    {
      "midi": 57,
      "hit": false,
      "t": 133841.83959895791,
      "d": 745.1905937500123,
      "v": 44
    },
    {
      "midi": 60,
      "hit": false,
      "t": 133841.83959895791,
      "d": 745.1905937500123,
      "v": 44
    },
    {
      "midi": 65,
      "hit": false,
      "t": 133841.83959895791,
      "d": 745.1905937500123,
      "v": 44
    },
    {
      "midi": 53,
      "hit": false,
      "t": 134611.06859895794,
      "d": 745.1905937500123,
      "v": 44
    },
    {
      "midi": 57,
      "hit": false,
      "t": 134611.06859895794,
      "d": 745.1905937500123,
      "v": 44
    },
    {
      "midi": 60,
      "hit": false,
      "t": 134611.06859895794,
      "d": 745.1905937500123,
      "v": 44
    },
    {
      "midi": 65,
      "hit": false,
      "t": 134611.06859895794,
      "d": 745.1905937500123,
      "v": 44
    },
    {
      "midi": 53,
      "hit": false,
      "t": 134611.06859895794,
      "d": 745.1905937500123,
      "v": 44
    },
    {
      "midi": 57,
      "hit": false,
      "t": 134611.06859895794,
      "d": 745.1905937500123,
      "v": 44
    },
    {
      "midi": 60,
      "hit": false,
      "t": 134611.06859895794,
      "d": 745.1905937500123,
      "v": 44
    },
    {
      "midi": 65,
      "hit": false,
      "t": 134611.06859895794,
      "d": 745.1905937500123,
      "v": 44
    },
    {
      "midi": 52,
      "hit": false,
      "t": 135380.29759895796,
      "d": 745.1905937500123,
      "v": 44
    },
    {
      "midi": 55,
      "hit": false,
      "t": 135380.29759895796,
      "d": 745.1905937500123,
      "v": 44
    },
    {
      "midi": 60,
      "hit": false,
      "t": 135380.29759895796,
      "d": 745.1905937500123,
      "v": 44
    },
    {
      "midi": 64,
      "hit": false,
      "t": 135380.29759895796,
      "d": 745.1905937500123,
      "v": 44
    },
    {
      "midi": 36,
      "hit": false,
      "t": 135380.29759895796,
      "d": 3052.877593750076,
      "v": 44
    },
    {
      "midi": 52,
      "hit": false,
      "t": 135380.29759895796,
      "d": 745.1905937500123,
      "v": 44
    },
    {
      "midi": 55,
      "hit": false,
      "t": 135380.29759895796,
      "d": 745.1905937500123,
      "v": 44
    },
    {
      "midi": 60,
      "hit": false,
      "t": 135380.29759895796,
      "d": 745.1905937500123,
      "v": 44
    },
    {
      "midi": 64,
      "hit": false,
      "t": 135380.29759895796,
      "d": 745.1905937500123,
      "v": 44
    },
    {
      "midi": 36,
      "hit": false,
      "t": 135380.29759895796,
      "d": 3052.877593750076,
      "v": 44
    },
    {
      "midi": 52,
      "hit": false,
      "t": 136149.52659895798,
      "d": 745.1905937500123,
      "v": 44
    },
    {
      "midi": 55,
      "hit": false,
      "t": 136149.52659895798,
      "d": 745.1905937500123,
      "v": 44
    },
    {
      "midi": 60,
      "hit": false,
      "t": 136149.52659895798,
      "d": 745.1905937500123,
      "v": 44
    },
    {
      "midi": 64,
      "hit": false,
      "t": 136149.52659895798,
      "d": 745.1905937500123,
      "v": 44
    },
    {
      "midi": 52,
      "hit": false,
      "t": 136149.52659895798,
      "d": 745.1905937500123,
      "v": 44
    },
    {
      "midi": 55,
      "hit": false,
      "t": 136149.52659895798,
      "d": 745.1905937500123,
      "v": 44
    },
    {
      "midi": 60,
      "hit": false,
      "t": 136149.52659895798,
      "d": 745.1905937500123,
      "v": 44
    },
    {
      "midi": 64,
      "hit": false,
      "t": 136149.52659895798,
      "d": 745.1905937500123,
      "v": 44
    },
    {
      "midi": 52,
      "hit": false,
      "t": 136918.755598958,
      "d": 745.1905937500123,
      "v": 44
    },
    {
      "midi": 55,
      "hit": false,
      "t": 136918.755598958,
      "d": 745.1905937500123,
      "v": 44
    },
    {
      "midi": 60,
      "hit": false,
      "t": 136918.755598958,
      "d": 745.1905937500123,
      "v": 44
    },
    {
      "midi": 64,
      "hit": false,
      "t": 136918.755598958,
      "d": 745.1905937500123,
      "v": 44
    },
    {
      "midi": 52,
      "hit": false,
      "t": 136918.755598958,
      "d": 745.1905937500123,
      "v": 44
    },
    {
      "midi": 55,
      "hit": false,
      "t": 136918.755598958,
      "d": 745.1905937500123,
      "v": 44
    },
    {
      "midi": 60,
      "hit": false,
      "t": 136918.755598958,
      "d": 745.1905937500123,
      "v": 44
    },
    {
      "midi": 64,
      "hit": false,
      "t": 136918.755598958,
      "d": 745.1905937500123,
      "v": 44
    },
    {
      "midi": 52,
      "hit": false,
      "t": 137687.98459895802,
      "d": 745.1905937500123,
      "v": 44
    },
    {
      "midi": 55,
      "hit": false,
      "t": 137687.98459895802,
      "d": 745.1905937500123,
      "v": 44
    },
    {
      "midi": 60,
      "hit": false,
      "t": 137687.98459895802,
      "d": 745.1905937500123,
      "v": 44
    },
    {
      "midi": 64,
      "hit": false,
      "t": 137687.98459895802,
      "d": 745.1905937500123,
      "v": 44
    },
    {
      "midi": 52,
      "hit": false,
      "t": 137687.98459895802,
      "d": 745.1905937500123,
      "v": 44
    },
    {
      "midi": 55,
      "hit": false,
      "t": 137687.98459895802,
      "d": 745.1905937500123,
      "v": 44
    },
    {
      "midi": 60,
      "hit": false,
      "t": 137687.98459895802,
      "d": 745.1905937500123,
      "v": 44
    },
    {
      "midi": 64,
      "hit": false,
      "t": 137687.98459895802,
      "d": 745.1905937500123,
      "v": 44
    },
    {
      "midi": 55,
      "hit": false,
      "t": 138457.21359895804,
      "d": 745.1905937500123,
      "v": 45
    },
    {
      "midi": 59,
      "hit": false,
      "t": 138457.21359895804,
      "d": 745.1905937500123,
      "v": 45
    },
    {
      "midi": 62,
      "hit": false,
      "t": 138457.21359895804,
      "d": 745.1905937500123,
      "v": 45
    },
    {
      "midi": 31,
      "hit": false,
      "t": 138457.21359895804,
      "d": 3052.877593750076,
      "v": 44
    },
    {
      "midi": 55,
      "hit": false,
      "t": 138457.21359895804,
      "d": 745.1905937500123,
      "v": 45
    },
    {
      "midi": 59,
      "hit": false,
      "t": 138457.21359895804,
      "d": 745.1905937500123,
      "v": 45
    },
    {
      "midi": 62,
      "hit": false,
      "t": 138457.21359895804,
      "d": 745.1905937500123,
      "v": 45
    },
    {
      "midi": 31,
      "hit": false,
      "t": 138457.21359895804,
      "d": 3052.877593750076,
      "v": 44
    },
    {
      "midi": 55,
      "hit": false,
      "t": 139226.44259895806,
      "d": 745.1905937500123,
      "v": 43
    },
    {
      "midi": 59,
      "hit": false,
      "t": 139226.44259895806,
      "d": 745.1905937500123,
      "v": 43
    },
    {
      "midi": 62,
      "hit": false,
      "t": 139226.44259895806,
      "d": 745.1905937500123,
      "v": 43
    },
    {
      "midi": 55,
      "hit": false,
      "t": 139226.44259895806,
      "d": 745.1905937500123,
      "v": 43
    },
    {
      "midi": 59,
      "hit": false,
      "t": 139226.44259895806,
      "d": 745.1905937500123,
      "v": 43
    },
    {
      "midi": 62,
      "hit": false,
      "t": 139226.44259895806,
      "d": 745.1905937500123,
      "v": 43
    },
    {
      "midi": 55,
      "hit": false,
      "t": 139995.67159895808,
      "d": 745.1905937500123,
      "v": 42
    },
    {
      "midi": 59,
      "hit": false,
      "t": 139995.67159895808,
      "d": 745.1905937500123,
      "v": 42
    },
    {
      "midi": 62,
      "hit": false,
      "t": 139995.67159895808,
      "d": 745.1905937500123,
      "v": 42
    },
    {
      "midi": 55,
      "hit": false,
      "t": 139995.67159895808,
      "d": 745.1905937500123,
      "v": 42
    },
    {
      "midi": 59,
      "hit": false,
      "t": 139995.67159895808,
      "d": 745.1905937500123,
      "v": 42
    },
    {
      "midi": 62,
      "hit": false,
      "t": 139995.67159895808,
      "d": 745.1905937500123,
      "v": 42
    },
    {
      "midi": 55,
      "hit": false,
      "t": 140764.9005989581,
      "d": 745.1905937500123,
      "v": 44
    },
    {
      "midi": 59,
      "hit": false,
      "t": 140764.9005989581,
      "d": 745.1905937500123,
      "v": 44
    },
    {
      "midi": 62,
      "hit": false,
      "t": 140764.9005989581,
      "d": 745.1905937500123,
      "v": 44
    },
    {
      "midi": 55,
      "hit": false,
      "t": 140764.9005989581,
      "d": 745.1905937500123,
      "v": 44
    },
    {
      "midi": 59,
      "hit": false,
      "t": 140764.9005989581,
      "d": 745.1905937500123,
      "v": 44
    },
    {
      "midi": 62,
      "hit": false,
      "t": 140764.9005989581,
      "d": 745.1905937500123,
      "v": 44
    },
    {
      "midi": 54,
      "hit": false,
      "t": 141534.12959895813,
      "d": 745.1905937500123,
      "v": 44
    },
    {
      "midi": 57,
      "hit": false,
      "t": 141534.12959895813,
      "d": 745.1905937500123,
      "v": 44
    },
    {
      "midi": 62,
      "hit": false,
      "t": 141534.12959895813,
      "d": 745.1905937500123,
      "v": 44
    },
    {
      "midi": 66,
      "hit": false,
      "t": 141534.12959895813,
      "d": 745.1905937500123,
      "v": 44
    },
    {
      "midi": 38,
      "hit": false,
      "t": 141534.12959895813,
      "d": 3052.877593750076,
      "v": 44
    },
    {
      "midi": 54,
      "hit": false,
      "t": 141534.12959895813,
      "d": 745.1905937500123,
      "v": 44
    },
    {
      "midi": 57,
      "hit": false,
      "t": 141534.12959895813,
      "d": 745.1905937500123,
      "v": 44
    },
    {
      "midi": 62,
      "hit": false,
      "t": 141534.12959895813,
      "d": 745.1905937500123,
      "v": 44
    },
    {
      "midi": 66,
      "hit": false,
      "t": 141534.12959895813,
      "d": 745.1905937500123,
      "v": 44
    },
    {
      "midi": 38,
      "hit": false,
      "t": 141534.12959895813,
      "d": 3052.877593750076,
      "v": 44
    },
    {
      "midi": 54,
      "hit": false,
      "t": 142303.35859895815,
      "d": 745.1905937500123,
      "v": 44
    },
    {
      "midi": 57,
      "hit": false,
      "t": 142303.35859895815,
      "d": 745.1905937500123,
      "v": 44
    },
    {
      "midi": 62,
      "hit": false,
      "t": 142303.35859895815,
      "d": 745.1905937500123,
      "v": 44
    },
    {
      "midi": 66,
      "hit": false,
      "t": 142303.35859895815,
      "d": 745.1905937500123,
      "v": 44
    },
    {
      "midi": 54,
      "hit": false,
      "t": 142303.35859895815,
      "d": 745.1905937500123,
      "v": 44
    },
    {
      "midi": 57,
      "hit": false,
      "t": 142303.35859895815,
      "d": 745.1905937500123,
      "v": 44
    },
    {
      "midi": 62,
      "hit": false,
      "t": 142303.35859895815,
      "d": 745.1905937500123,
      "v": 44
    },
    {
      "midi": 66,
      "hit": false,
      "t": 142303.35859895815,
      "d": 745.1905937500123,
      "v": 44
    },
    {
      "midi": 54,
      "hit": false,
      "t": 143072.58759895817,
      "d": 745.1905937500123,
      "v": 44
    },
    {
      "midi": 57,
      "hit": false,
      "t": 143072.58759895817,
      "d": 745.1905937500123,
      "v": 44
    },
    {
      "midi": 62,
      "hit": false,
      "t": 143072.58759895817,
      "d": 745.1905937500123,
      "v": 44
    },
    {
      "midi": 66,
      "hit": false,
      "t": 143072.58759895817,
      "d": 745.1905937500123,
      "v": 44
    },
    {
      "midi": 54,
      "hit": false,
      "t": 143072.58759895817,
      "d": 745.1905937500123,
      "v": 44
    },
    {
      "midi": 57,
      "hit": false,
      "t": 143072.58759895817,
      "d": 745.1905937500123,
      "v": 44
    },
    {
      "midi": 62,
      "hit": false,
      "t": 143072.58759895817,
      "d": 745.1905937500123,
      "v": 44
    },
    {
      "midi": 66,
      "hit": false,
      "t": 143072.58759895817,
      "d": 745.1905937500123,
      "v": 44
    },
    {
      "midi": 54,
      "hit": false,
      "t": 143841.8165989582,
      "d": 745.1905937500123,
      "v": 44
    },
    {
      "midi": 57,
      "hit": false,
      "t": 143841.8165989582,
      "d": 745.1905937500123,
      "v": 44
    },
    {
      "midi": 62,
      "hit": false,
      "t": 143841.8165989582,
      "d": 745.1905937500123,
      "v": 44
    },
    {
      "midi": 66,
      "hit": false,
      "t": 143841.8165989582,
      "d": 745.1905937500123,
      "v": 44
    },
    {
      "midi": 54,
      "hit": false,
      "t": 143841.8165989582,
      "d": 745.1905937500123,
      "v": 44
    },
    {
      "midi": 57,
      "hit": false,
      "t": 143841.8165989582,
      "d": 745.1905937500123,
      "v": 44
    },
    {
      "midi": 62,
      "hit": false,
      "t": 143841.8165989582,
      "d": 745.1905937500123,
      "v": 44
    },
    {
      "midi": 66,
      "hit": false,
      "t": 143841.8165989582,
      "d": 745.1905937500123,
      "v": 44
    },
    {
      "midi": 50,
      "hit": false,
      "t": 144611.0455989582,
      "d": 745.1905937500123,
      "v": 44
    },
    {
      "midi": 57,
      "hit": false,
      "t": 144611.0455989582,
      "d": 745.1905937500123,
      "v": 44
    },
    {
      "midi": 62,
      "hit": false,
      "t": 144611.0455989582,
      "d": 745.1905937500123,
      "v": 44
    },
    {
      "midi": 65,
      "hit": false,
      "t": 144611.0455989582,
      "d": 745.1905937500123,
      "v": 44
    },
    {
      "midi": 38,
      "hit": false,
      "t": 144611.0455989582,
      "d": 3052.877593750076,
      "v": 44
    },
    {
      "midi": 50,
      "hit": false,
      "t": 144611.0455989582,
      "d": 745.1905937500123,
      "v": 44
    },
    {
      "midi": 57,
      "hit": false,
      "t": 144611.0455989582,
      "d": 745.1905937500123,
      "v": 44
    },
    {
      "midi": 62,
      "hit": false,
      "t": 144611.0455989582,
      "d": 745.1905937500123,
      "v": 44
    },
    {
      "midi": 65,
      "hit": false,
      "t": 144611.0455989582,
      "d": 745.1905937500123,
      "v": 44
    },
    {
      "midi": 38,
      "hit": false,
      "t": 144611.0455989582,
      "d": 3052.877593750076,
      "v": 44
    },
    {
      "midi": 50,
      "hit": false,
      "t": 145380.27459895823,
      "d": 745.1905937500123,
      "v": 44
    },
    {
      "midi": 57,
      "hit": false,
      "t": 145380.27459895823,
      "d": 745.1905937500123,
      "v": 44
    },
    {
      "midi": 62,
      "hit": false,
      "t": 145380.27459895823,
      "d": 745.1905937500123,
      "v": 44
    },
    {
      "midi": 65,
      "hit": false,
      "t": 145380.27459895823,
      "d": 745.1905937500123,
      "v": 44
    },
    {
      "midi": 50,
      "hit": false,
      "t": 145380.27459895823,
      "d": 745.1905937500123,
      "v": 44
    },
    {
      "midi": 57,
      "hit": false,
      "t": 145380.27459895823,
      "d": 745.1905937500123,
      "v": 44
    },
    {
      "midi": 62,
      "hit": false,
      "t": 145380.27459895823,
      "d": 745.1905937500123,
      "v": 44
    },
    {
      "midi": 65,
      "hit": false,
      "t": 145380.27459895823,
      "d": 745.1905937500123,
      "v": 44
    },
    {
      "midi": 50,
      "hit": false,
      "t": 146149.50359895825,
      "d": 745.1905937500123,
      "v": 44
    },
    {
      "midi": 57,
      "hit": false,
      "t": 146149.50359895825,
      "d": 745.1905937500123,
      "v": 44
    },
    {
      "midi": 62,
      "hit": false,
      "t": 146149.50359895825,
      "d": 745.1905937500123,
      "v": 44
    },
    {
      "midi": 65,
      "hit": false,
      "t": 146149.50359895825,
      "d": 745.1905937500123,
      "v": 44
    },
    {
      "midi": 50,
      "hit": false,
      "t": 146149.50359895825,
      "d": 745.1905937500123,
      "v": 44
    },
    {
      "midi": 57,
      "hit": false,
      "t": 146149.50359895825,
      "d": 745.1905937500123,
      "v": 44
    },
    {
      "midi": 62,
      "hit": false,
      "t": 146149.50359895825,
      "d": 745.1905937500123,
      "v": 44
    },
    {
      "midi": 65,
      "hit": false,
      "t": 146149.50359895825,
      "d": 745.1905937500123,
      "v": 44
    },
    {
      "midi": 62,
      "hit": false,
      "t": 146918.73259895828,
      "d": 232.37126041666488,
      "v": 44
    },
    {
      "midi": 65,
      "hit": false,
      "t": 146918.73259895828,
      "d": 256.40966666667373,
      "v": 44
    },
    {
      "midi": 50,
      "hit": false,
      "t": 146918.73259895828,
      "d": 745.1905937500123,
      "v": 44
    },
    {
      "midi": 57,
      "hit": false,
      "t": 146918.73259895828,
      "d": 745.1905937500123,
      "v": 44
    },
    {
      "midi": 62,
      "hit": false,
      "t": 146918.73259895828,
      "d": 232.37126041666488,
      "v": 44
    },
    {
      "midi": 65,
      "hit": false,
      "t": 146918.73259895828,
      "d": 256.40966666667373,
      "v": 44
    },
    {
      "midi": 50,
      "hit": false,
      "t": 146918.73259895828,
      "d": 745.1905937500123,
      "v": 44
    },
    {
      "midi": 57,
      "hit": false,
      "t": 146918.73259895828,
      "d": 745.1905937500123,
      "v": 44
    },
    {
      "midi": 62,
      "hit": false,
      "t": 147175.14226562495,
      "d": 488.7809270833386,
      "v": 44
    },
    {
      "midi": 64,
      "hit": false,
      "t": 147175.14226562495,
      "d": 488.7809270833386,
      "v": 44
    },
    {
      "midi": 62,
      "hit": false,
      "t": 147175.14226562495,
      "d": 488.7809270833386,
      "v": 44
    },
    {
      "midi": 64,
      "hit": false,
      "t": 147175.14226562495,
      "d": 488.7809270833386,
      "v": 44
    },
    {
      "midi": 53,
      "hit": false,
      "t": 147687.9615989583,
      "d": 745.1905937500123,
      "v": 44
    },
    {
      "midi": 57,
      "hit": false,
      "t": 147687.9615989583,
      "d": 745.1905937500123,
      "v": 44
    },
    {
      "midi": 60,
      "hit": false,
      "t": 147687.9615989583,
      "d": 745.1905937500123,
      "v": 44
    },
    {
      "midi": 65,
      "hit": false,
      "t": 147687.9615989583,
      "d": 745.1905937500123,
      "v": 44
    },
    {
      "midi": 41,
      "hit": false,
      "t": 147687.9615989583,
      "d": 3052.877593750076,
      "v": 44
    },
    {
      "midi": 53,
      "hit": false,
      "t": 147687.9615989583,
      "d": 745.1905937500123,
      "v": 44
    },
    {
      "midi": 57,
      "hit": false,
      "t": 147687.9615989583,
      "d": 745.1905937500123,
      "v": 44
    },
    {
      "midi": 60,
      "hit": false,
      "t": 147687.9615989583,
      "d": 745.1905937500123,
      "v": 44
    },
    {
      "midi": 65,
      "hit": false,
      "t": 147687.9615989583,
      "d": 745.1905937500123,
      "v": 44
    },
    {
      "midi": 41,
      "hit": false,
      "t": 147687.9615989583,
      "d": 3052.877593750076,
      "v": 44
    },
    {
      "midi": 53,
      "hit": false,
      "t": 148457.19059895832,
      "d": 745.1905937500123,
      "v": 44
    },
    {
      "midi": 57,
      "hit": false,
      "t": 148457.19059895832,
      "d": 745.1905937500123,
      "v": 44
    },
    {
      "midi": 60,
      "hit": false,
      "t": 148457.19059895832,
      "d": 745.1905937500123,
      "v": 44
    },
    {
      "midi": 65,
      "hit": false,
      "t": 148457.19059895832,
      "d": 745.1905937500123,
      "v": 44
    },
    {
      "midi": 53,
      "hit": false,
      "t": 148457.19059895832,
      "d": 745.1905937500123,
      "v": 44
    },
    {
      "midi": 57,
      "hit": false,
      "t": 148457.19059895832,
      "d": 745.1905937500123,
      "v": 44
    },
    {
      "midi": 60,
      "hit": false,
      "t": 148457.19059895832,
      "d": 745.1905937500123,
      "v": 44
    },
    {
      "midi": 65,
      "hit": false,
      "t": 148457.19059895832,
      "d": 745.1905937500123,
      "v": 44
    },
    {
      "midi": 53,
      "hit": false,
      "t": 149226.41959895834,
      "d": 745.1905937500123,
      "v": 44
    },
    {
      "midi": 57,
      "hit": false,
      "t": 149226.41959895834,
      "d": 745.1905937500123,
      "v": 44
    },
    {
      "midi": 60,
      "hit": false,
      "t": 149226.41959895834,
      "d": 745.1905937500123,
      "v": 44
    },
    {
      "midi": 65,
      "hit": false,
      "t": 149226.41959895834,
      "d": 745.1905937500123,
      "v": 44
    },
    {
      "midi": 53,
      "hit": false,
      "t": 149226.41959895834,
      "d": 745.1905937500123,
      "v": 44
    },
    {
      "midi": 57,
      "hit": false,
      "t": 149226.41959895834,
      "d": 745.1905937500123,
      "v": 44
    },
    {
      "midi": 60,
      "hit": false,
      "t": 149226.41959895834,
      "d": 745.1905937500123,
      "v": 44
    },
    {
      "midi": 65,
      "hit": false,
      "t": 149226.41959895834,
      "d": 745.1905937500123,
      "v": 44
    },
    {
      "midi": 53,
      "hit": false,
      "t": 149995.64859895836,
      "d": 745.1905937500123,
      "v": 44
    },
    {
      "midi": 57,
      "hit": false,
      "t": 149995.64859895836,
      "d": 745.1905937500123,
      "v": 44
    },
    {
      "midi": 60,
      "hit": false,
      "t": 149995.64859895836,
      "d": 745.1905937500123,
      "v": 44
    },
    {
      "midi": 65,
      "hit": false,
      "t": 149995.64859895836,
      "d": 745.1905937500123,
      "v": 44
    },
    {
      "midi": 53,
      "hit": false,
      "t": 149995.64859895836,
      "d": 745.1905937500123,
      "v": 44
    },
    {
      "midi": 57,
      "hit": false,
      "t": 149995.64859895836,
      "d": 745.1905937500123,
      "v": 44
    },
    {
      "midi": 60,
      "hit": false,
      "t": 149995.64859895836,
      "d": 745.1905937500123,
      "v": 44
    },
    {
      "midi": 65,
      "hit": false,
      "t": 149995.64859895836,
      "d": 745.1905937500123,
      "v": 44
    },
    {
      "midi": 36,
      "hit": false,
      "t": 150764.87759895838,
      "d": 1514.4195937500044,
      "v": 64
    },
    {
      "midi": 48,
      "hit": false,
      "t": 150764.87759895838,
      "d": 1514.4195937500044,
      "v": 64
    },
    {
      "midi": 60,
      "hit": false,
      "t": 150764.87759895838,
      "d": 1514.4195937500044,
      "v": 64
    },
    {
      "midi": 64,
      "hit": false,
      "t": 150764.87759895838,
      "d": 1870.9892864583526,
      "v": 64
    },
    {
      "midi": 55,
      "hit": false,
      "t": 150764.87759895838,
      "d": 1899.0340937500296,
      "v": 64
    },
    {
      "midi": 36,
      "hit": false,
      "t": 150764.87759895838,
      "d": 1514.4195937500044,
      "v": 64
    },
    {
      "midi": 48,
      "hit": false,
      "t": 150764.87759895838,
      "d": 1514.4195937500044,
      "v": 64
    },
    {
      "midi": 60,
      "hit": false,
      "t": 150764.87759895838,
      "d": 1514.4195937500044,
      "v": 64
    },
    {
      "midi": 64,
      "hit": false,
      "t": 150764.87759895838,
      "d": 1870.9892864583526,
      "v": 64
    },
    {
      "midi": 55,
      "hit": false,
      "t": 150764.87759895838,
      "d": 1899.0340937500296,
      "v": 64
    },
    {
      "midi": 60,
      "hit": false,
      "t": 152303.3355989584,
      "d": 360.5760937500163,
      "v": 64
    },
    {
      "midi": 36,
      "hit": false,
      "t": 152303.3355989584,
      "d": 1410.253166666691,
      "v": 64
    },
    {
      "midi": 48,
      "hit": false,
      "t": 152303.3355989584,
      "d": 1514.4195937500335,
      "v": 64
    },
    {
      "midi": 60,
      "hit": false,
      "t": 152303.3355989584,
      "d": 360.5760937500163,
      "v": 64
    },
    {
      "midi": 36,
      "hit": false,
      "t": 152303.3355989584,
      "d": 1410.253166666691,
      "v": 64
    },
    {
      "midi": 48,
      "hit": false,
      "t": 152303.3355989584,
      "d": 1514.4195937500335,
      "v": 64
    },
    {
      "midi": 55,
      "hit": false,
      "t": 152687.95009895842,
      "d": 588.940953125013,
      "v": 64
    },
    {
      "midi": 60,
      "hit": false,
      "t": 152687.95009895842,
      "d": 641.0241666666698,
      "v": 64
    },
    {
      "midi": 64,
      "hit": false,
      "t": 152687.95009895842,
      "d": 641.0241666666698,
      "v": 64
    },
    {
      "midi": 55,
      "hit": false,
      "t": 152687.95009895842,
      "d": 588.940953125013,
      "v": 64
    },
    {
      "midi": 60,
      "hit": false,
      "t": 152687.95009895842,
      "d": 641.0241666666698,
      "v": 64
    },
    {
      "midi": 64,
      "hit": false,
      "t": 152687.95009895842,
      "d": 641.0241666666698,
      "v": 64
    },
    {
      "midi": 55,
      "hit": false,
      "t": 153328.9742656251,
      "d": 384.61449999999604,
      "v": 64
    },
    {
      "midi": 62,
      "hit": false,
      "t": 153328.9742656251,
      "d": 384.61449999999604,
      "v": 64
    },
    {
      "midi": 65,
      "hit": false,
      "t": 153328.9742656251,
      "d": 384.61449999999604,
      "v": 64
    },
    {
      "midi": 55,
      "hit": false,
      "t": 153328.9742656251,
      "d": 384.61449999999604,
      "v": 64
    },
    {
      "midi": 62,
      "hit": false,
      "t": 153328.9742656251,
      "d": 384.61449999999604,
      "v": 64
    },
    {
      "midi": 65,
      "hit": false,
      "t": 153328.9742656251,
      "d": 384.61449999999604,
      "v": 64
    },
    {
      "midi": 26,
      "hit": false,
      "t": 153649.48634895842,
      "d": 192.30725000001257,
      "v": 64
    },
    {
      "midi": 26,
      "hit": false,
      "t": 153649.48634895842,
      "d": 192.30725000001257,
      "v": 64
    },
    {
      "midi": 31,
      "hit": false,
      "t": 153841.79359895844,
      "d": 1386.214760416653,
      "v": 64
    },
    {
      "midi": 43,
      "hit": false,
      "t": 153841.79359895844,
      "d": 1514.4195937500044,
      "v": 64
    },
    {
      "midi": 55,
      "hit": false,
      "t": 153841.79359895844,
      "d": 1870.9892864583526,
      "v": 64
    },
    {
      "midi": 59,
      "hit": false,
      "t": 153841.79359895844,
      "d": 1870.9892864583526,
      "v": 64
    },
    {
      "midi": 62,
      "hit": false,
      "t": 153841.79359895844,
      "d": 1899.0340937500296,
      "v": 64
    },
    {
      "midi": 31,
      "hit": false,
      "t": 153841.79359895844,
      "d": 1386.214760416653,
      "v": 64
    },
    {
      "midi": 43,
      "hit": false,
      "t": 153841.79359895844,
      "d": 1514.4195937500044,
      "v": 64
    },
    {
      "midi": 55,
      "hit": false,
      "t": 153841.79359895844,
      "d": 1870.9892864583526,
      "v": 64
    },
    {
      "midi": 59,
      "hit": false,
      "t": 153841.79359895844,
      "d": 1870.9892864583526,
      "v": 64
    },
    {
      "midi": 62,
      "hit": false,
      "t": 153841.79359895844,
      "d": 1899.0340937500296,
      "v": 64
    },
    {
      "midi": 31,
      "hit": false,
      "t": 155252.0467656251,
      "d": 104.16642708334257,
      "v": 64
    },
    {
      "midi": 31,
      "hit": false,
      "t": 155252.0467656251,
      "d": 104.16642708334257,
      "v": 64
    },
    {
      "midi": 31,
      "hit": false,
      "t": 155380.25159895845,
      "d": 1282.0483333333686,
      "v": 64
    },
    {
      "midi": 43,
      "hit": false,
      "t": 155380.25159895845,
      "d": 1514.4195937500044,
      "v": 64
    },
    {
      "midi": 31,
      "hit": false,
      "t": 155380.25159895845,
      "d": 1282.0483333333686,
      "v": 64
    },
    {
      "midi": 43,
      "hit": false,
      "t": 155380.25159895845,
      "d": 1514.4195937500044,
      "v": 64
    },
    {
      "midi": 55,
      "hit": false,
      "t": 155764.86609895848,
      "d": 588.940953125013,
      "v": 64
    },
    {
      "midi": 59,
      "hit": false,
      "t": 155764.86609895848,
      "d": 641.0241666666698,
      "v": 64
    },
    {
      "midi": 62,
      "hit": false,
      "t": 155764.86609895848,
      "d": 669.0689739583468,
      "v": 64
    },
    {
      "midi": 55,
      "hit": false,
      "t": 155764.86609895848,
      "d": 588.940953125013,
      "v": 64
    },
    {
      "midi": 59,
      "hit": false,
      "t": 155764.86609895848,
      "d": 641.0241666666698,
      "v": 64
    },
    {
      "midi": 62,
      "hit": false,
      "t": 155764.86609895848,
      "d": 669.0689739583468,
      "v": 64
    },
    {
      "midi": 55,
      "hit": false,
      "t": 156405.89026562514,
      "d": 436.6977135416528,
      "v": 64
    },
    {
      "midi": 60,
      "hit": false,
      "t": 156405.89026562514,
      "d": 436.6977135416528,
      "v": 64
    },
    {
      "midi": 64,
      "hit": false,
      "t": 156405.89026562514,
      "d": 436.6977135416528,
      "v": 64
    },
    {
      "midi": 55,
      "hit": false,
      "t": 156405.89026562514,
      "d": 436.6977135416528,
      "v": 64
    },
    {
      "midi": 60,
      "hit": false,
      "t": 156405.89026562514,
      "d": 436.6977135416528,
      "v": 64
    },
    {
      "midi": 64,
      "hit": false,
      "t": 156405.89026562514,
      "d": 436.6977135416528,
      "v": 64
    },
    {
      "midi": 26,
      "hit": false,
      "t": 156790.50476562514,
      "d": 156.2496406249993,
      "v": 64
    },
    {
      "midi": 26,
      "hit": false,
      "t": 156790.50476562514,
      "d": 156.2496406249993,
      "v": 64
    },
    {
      "midi": 29,
      "hit": false,
      "t": 156918.70959895846,
      "d": 1514.4195937500044,
      "v": 64
    },
    {
      "midi": 41,
      "hit": false,
      "t": 156918.70959895846,
      "d": 1514.4195937500044,
      "v": 64
    },
    {
      "midi": 65,
      "hit": false,
      "t": 156918.70959895846,
      "d": 1846.9508802083437,
      "v": 64
    },
    {
      "midi": 60,
      "hit": false,
      "t": 156918.70959895846,
      "d": 1899.0340937500005,
      "v": 64
    },
    {
      "midi": 57,
      "hit": false,
      "t": 156918.70959895846,
      "d": 1999.194119791675,
      "v": 64
    },
    {
      "midi": 53,
      "hit": false,
      "t": 156918.70959895846,
      "d": 2027.2389270833519,
      "v": 64
    },
    {
      "midi": 29,
      "hit": false,
      "t": 156918.70959895846,
      "d": 1514.4195937500044,
      "v": 64
    },
    {
      "midi": 41,
      "hit": false,
      "t": 156918.70959895846,
      "d": 1514.4195937500044,
      "v": 64
    },
    {
      "midi": 65,
      "hit": false,
      "t": 156918.70959895846,
      "d": 1846.9508802083437,
      "v": 64
    },
    {
      "midi": 60,
      "hit": false,
      "t": 156918.70959895846,
      "d": 1899.0340937500005,
      "v": 64
    },
    {
      "midi": 57,
      "hit": false,
      "t": 156918.70959895846,
      "d": 1999.194119791675,
      "v": 64
    },
    {
      "midi": 53,
      "hit": false,
      "t": 156918.70959895846,
      "d": 2027.2389270833519,
      "v": 64
    },
    {
      "midi": 29,
      "hit": false,
      "t": 158457.16759895848,
      "d": 1410.253166666691,
      "v": 64
    },
    {
      "midi": 41,
      "hit": false,
      "t": 158457.16759895848,
      "d": 1514.4195937500335,
      "v": 64
    },
    {
      "midi": 29,
      "hit": false,
      "t": 158457.16759895848,
      "d": 1410.253166666691,
      "v": 64
    },
    {
      "midi": 41,
      "hit": false,
      "t": 158457.16759895848,
      "d": 1514.4195937500335,
      "v": 64
    },
    {
      "midi": 55,
      "hit": false,
      "t": 158841.78209895847,
      "d": 588.940953125013,
      "v": 64
    },
    {
      "midi": 60,
      "hit": false,
      "t": 158841.78209895847,
      "d": 588.940953125013,
      "v": 64
    },
    {
      "midi": 65,
      "hit": false,
      "t": 158841.78209895847,
      "d": 588.940953125013,
      "v": 64
    },
    {
      "midi": 55,
      "hit": false,
      "t": 158841.78209895847,
      "d": 588.940953125013,
      "v": 64
    },
    {
      "midi": 60,
      "hit": false,
      "t": 158841.78209895847,
      "d": 588.940953125013,
      "v": 64
    },
    {
      "midi": 65,
      "hit": false,
      "t": 158841.78209895847,
      "d": 588.940953125013,
      "v": 64
    },
    {
      "midi": 53,
      "hit": false,
      "t": 158969.98693229182,
      "d": 460.7361197916616,
      "v": 64
    },
    {
      "midi": 53,
      "hit": false,
      "t": 158969.98693229182,
      "d": 460.7361197916616,
      "v": 64
    },
    {
      "midi": 55,
      "hit": false,
      "t": 159482.80626562514,
      "d": 332.5312864583393,
      "v": 64
    },
    {
      "midi": 53,
      "hit": false,
      "t": 159482.80626562514,
      "d": 360.5760937500163,
      "v": 64
    },
    {
      "midi": 65,
      "hit": false,
      "t": 159482.80626562514,
      "d": 360.5760937500163,
      "v": 64
    },
    {
      "midi": 60,
      "hit": false,
      "t": 159482.80626562514,
      "d": 412.65930729170213,
      "v": 64
    },
    {
      "midi": 55,
      "hit": false,
      "t": 159482.80626562514,
      "d": 332.5312864583393,
      "v": 64
    },
    {
      "midi": 53,
      "hit": false,
      "t": 159482.80626562514,
      "d": 360.5760937500163,
      "v": 64
    },
    {
      "midi": 65,
      "hit": false,
      "t": 159482.80626562514,
      "d": 360.5760937500163,
      "v": 64
    },
    {
      "midi": 60,
      "hit": false,
      "t": 159482.80626562514,
      "d": 412.65930729170213,
      "v": 64
    },
    {
      "midi": 26,
      "hit": false,
      "t": 159867.42076562517,
      "d": 128.20483333335142,
      "v": 64
    },
    {
      "midi": 26,
      "hit": false,
      "t": 159867.42076562517,
      "d": 128.20483333335142,
      "v": 64
    },
    {
      "midi": 55,
      "hit": false,
      "t": 159995.62559895852,
      "d": 128.2048333333223,
      "v": 64
    },
    {
      "midi": 29,
      "hit": false,
      "t": 159995.62559895852,
      "d": 1514.4195937499753,
      "v": 64
    },
    {
      "midi": 41,
      "hit": false,
      "t": 159995.62559895852,
      "d": 1514.4195937499753,
      "v": 64
    },
    {
      "midi": 53,
      "hit": false,
      "t": 159995.62559895852,
      "d": 1514.4195937499753,
      "v": 64
    },
    {
      "midi": 60,
      "hit": false,
      "t": 159995.62559895852,
      "d": 1899.0340937500005,
      "v": 64
    },
    {
      "midi": 65,
      "hit": false,
      "t": 159995.62559895852,
      "d": 3052.8775937500177,
      "v": 64
    },
    {
      "midi": 55,
      "hit": false,
      "t": 159995.62559895852,
      "d": 128.2048333333223,
      "v": 64
    },
    {
      "midi": 29,
      "hit": false,
      "t": 159995.62559895852,
      "d": 1514.4195937499753,
      "v": 64
    },
    {
      "midi": 41,
      "hit": false,
      "t": 159995.62559895852,
      "d": 1514.4195937499753,
      "v": 64
    },
    {
      "midi": 53,
      "hit": false,
      "t": 159995.62559895852,
      "d": 1514.4195937499753,
      "v": 64
    },
    {
      "midi": 60,
      "hit": false,
      "t": 159995.62559895852,
      "d": 1899.0340937500005,
      "v": 64
    },
    {
      "midi": 65,
      "hit": false,
      "t": 159995.62559895852,
      "d": 3052.8775937500177,
      "v": 64
    },
    {
      "midi": 57,
      "hit": false,
      "t": 160123.83043229184,
      "d": 1742.7844531250012,
      "v": 64
    },
    {
      "midi": 57,
      "hit": false,
      "t": 160123.83043229184,
      "d": 1742.7844531250012,
      "v": 64
    },
    {
      "midi": 41,
      "hit": false,
      "t": 161534.0835989585,
      "d": 232.37126041666488,
      "v": 64
    },
    {
      "midi": 53,
      "hit": false,
      "t": 161534.0835989585,
      "d": 332.5312864583393,
      "v": 64
    },
    {
      "midi": 29,
      "hit": false,
      "t": 161534.0835989585,
      "d": 1514.4195937500335,
      "v": 64
    },
    {
      "midi": 41,
      "hit": false,
      "t": 161534.0835989585,
      "d": 232.37126041666488,
      "v": 64
    },
    {
      "midi": 53,
      "hit": false,
      "t": 161534.0835989585,
      "d": 332.5312864583393,
      "v": 64
    },
    {
      "midi": 29,
      "hit": false,
      "t": 161534.0835989585,
      "d": 1514.4195937500335,
      "v": 64
    },
    {
      "midi": 41,
      "hit": false,
      "t": 161790.49326562518,
      "d": 1258.0099270833598,
      "v": 64
    },
    {
      "midi": 41,
      "hit": false,
      "t": 161790.49326562518,
      "d": 1258.0099270833598,
      "v": 64
    },
    {
      "midi": 53,
      "hit": false,
      "t": 161918.69809895853,
      "d": 488.7809270833386,
      "v": 64
    },
    {
      "midi": 57,
      "hit": false,
      "t": 161918.69809895853,
      "d": 488.7809270833386,
      "v": 64
    },
    {
      "midi": 60,
      "hit": false,
      "t": 161918.69809895853,
      "d": 488.7809270833386,
      "v": 64
    },
    {
      "midi": 53,
      "hit": false,
      "t": 161918.69809895853,
      "d": 488.7809270833386,
      "v": 64
    },
    {
      "midi": 57,
      "hit": false,
      "t": 161918.69809895853,
      "d": 488.7809270833386,
      "v": 64
    },
    {
      "midi": 60,
      "hit": false,
      "t": 161918.69809895853,
      "d": 488.7809270833386,
      "v": 64
    },
    {
      "midi": 53,
      "hit": false,
      "t": 162559.7222656252,
      "d": 488.7809270833386,
      "v": 64
    },
    {
      "midi": 57,
      "hit": false,
      "t": 162559.7222656252,
      "d": 488.7809270833386,
      "v": 64
    },
    {
      "midi": 62,
      "hit": false,
      "t": 162559.7222656252,
      "d": 488.7809270833386,
      "v": 64
    },
    {
      "midi": 53,
      "hit": false,
      "t": 162559.7222656252,
      "d": 488.7809270833386,
      "v": 64
    },
    {
      "midi": 57,
      "hit": false,
      "t": 162559.7222656252,
      "d": 488.7809270833386,
      "v": 64
    },
    {
      "midi": 62,
      "hit": false,
      "t": 162559.7222656252,
      "d": 488.7809270833386,
      "v": 64
    },
    {
      "midi": 31,
      "hit": false,
      "t": 162944.3367656252,
      "d": 128.20483333335142,
      "v": 64
    },
    {
      "midi": 31,
      "hit": false,
      "t": 162944.3367656252,
      "d": 128.20483333335142,
      "v": 64
    },
    {
      "midi": 36,
      "hit": false,
      "t": 163072.54159895855,
      "d": 1514.4195937500044,
      "v": 64
    },
    {
      "midi": 48,
      "hit": false,
      "t": 163072.54159895855,
      "d": 1514.4195937500044,
      "v": 64
    },
    {
      "midi": 60,
      "hit": false,
      "t": 163072.54159895855,
      "d": 1514.4195937500044,
      "v": 64
    },
    {
      "midi": 64,
      "hit": false,
      "t": 163072.54159895855,
      "d": 1870.9892864583526,
      "v": 64
    },
    {
      "midi": 55,
      "hit": false,
      "t": 163072.54159895855,
      "d": 1899.0340937500296,
      "v": 64
    },
    {
      "midi": 36,
      "hit": false,
      "t": 163072.54159895855,
      "d": 1514.4195937500044,
      "v": 64
    },
    {
      "midi": 48,
      "hit": false,
      "t": 163072.54159895855,
      "d": 1514.4195937500044,
      "v": 64
    },
    {
      "midi": 60,
      "hit": false,
      "t": 163072.54159895855,
      "d": 1514.4195937500044,
      "v": 64
    },
    {
      "midi": 64,
      "hit": false,
      "t": 163072.54159895855,
      "d": 1870.9892864583526,
      "v": 64
    },
    {
      "midi": 55,
      "hit": false,
      "t": 163072.54159895855,
      "d": 1899.0340937500296,
      "v": 64
    },
    {
      "midi": 60,
      "hit": false,
      "t": 164610.99959895856,
      "d": 360.5760937500163,
      "v": 64
    },
    {
      "midi": 36,
      "hit": false,
      "t": 164610.99959895856,
      "d": 1410.253166666691,
      "v": 64
    },
    {
      "midi": 48,
      "hit": false,
      "t": 164610.99959895856,
      "d": 1514.4195937500335,
      "v": 64
    },
    {
      "midi": 60,
      "hit": false,
      "t": 164610.99959895856,
      "d": 360.5760937500163,
      "v": 64
    },
    {
      "midi": 36,
      "hit": false,
      "t": 164610.99959895856,
      "d": 1410.253166666691,
      "v": 64
    },
    {
      "midi": 48,
      "hit": false,
      "t": 164610.99959895856,
      "d": 1514.4195937500335,
      "v": 64
    },
    {
      "midi": 55,
      "hit": false,
      "t": 164995.61409895858,
      "d": 588.940953125013,
      "v": 64
    },
    {
      "midi": 60,
      "hit": false,
      "t": 164995.61409895858,
      "d": 641.0241666666698,
      "v": 64
    },
    {
      "midi": 64,
      "hit": false,
      "t": 164995.61409895858,
      "d": 641.0241666666698,
      "v": 64
    },
    {
      "midi": 55,
      "hit": false,
      "t": 164995.61409895858,
      "d": 588.940953125013,
      "v": 64
    },
    {
      "midi": 60,
      "hit": false,
      "t": 164995.61409895858,
      "d": 641.0241666666698,
      "v": 64
    },
    {
      "midi": 64,
      "hit": false,
      "t": 164995.61409895858,
      "d": 641.0241666666698,
      "v": 64
    },
    {
      "midi": 55,
      "hit": false,
      "t": 165636.63826562525,
      "d": 384.61449999999604,
      "v": 64
    },
    {
      "midi": 62,
      "hit": false,
      "t": 165636.63826562525,
      "d": 384.61449999999604,
      "v": 64
    },
    {
      "midi": 65,
      "hit": false,
      "t": 165636.63826562525,
      "d": 384.61449999999604,
      "v": 64
    },
    {
      "midi": 55,
      "hit": false,
      "t": 165636.63826562525,
      "d": 384.61449999999604,
      "v": 64
    },
    {
      "midi": 62,
      "hit": false,
      "t": 165636.63826562525,
      "d": 384.61449999999604,
      "v": 64
    },
    {
      "midi": 65,
      "hit": false,
      "t": 165636.63826562525,
      "d": 384.61449999999604,
      "v": 64
    },
    {
      "midi": 26,
      "hit": false,
      "t": 165957.1503489586,
      "d": 192.30725000001257,
      "v": 64
    },
    {
      "midi": 26,
      "hit": false,
      "t": 165957.1503489586,
      "d": 192.30725000001257,
      "v": 64
    },
    {
      "midi": 31,
      "hit": false,
      "t": 166149.4575989586,
      "d": 1386.214760416653,
      "v": 64
    },
    {
      "midi": 43,
      "hit": false,
      "t": 166149.4575989586,
      "d": 1514.4195937500044,
      "v": 64
    },
    {
      "midi": 55,
      "hit": false,
      "t": 166149.4575989586,
      "d": 1870.9892864583526,
      "v": 64
    },
    {
      "midi": 59,
      "hit": false,
      "t": 166149.4575989586,
      "d": 1870.9892864583526,
      "v": 64
    },
    {
      "midi": 62,
      "hit": false,
      "t": 166149.4575989586,
      "d": 1899.0340937500296,
      "v": 64
    },
    {
      "midi": 31,
      "hit": false,
      "t": 166149.4575989586,
      "d": 1386.214760416653,
      "v": 64
    },
    {
      "midi": 43,
      "hit": false,
      "t": 166149.4575989586,
      "d": 1514.4195937500044,
      "v": 64
    },
    {
      "midi": 55,
      "hit": false,
      "t": 166149.4575989586,
      "d": 1870.9892864583526,
      "v": 64
    },
    {
      "midi": 59,
      "hit": false,
      "t": 166149.4575989586,
      "d": 1870.9892864583526,
      "v": 64
    },
    {
      "midi": 62,
      "hit": false,
      "t": 166149.4575989586,
      "d": 1899.0340937500296,
      "v": 64
    },
    {
      "midi": 31,
      "hit": false,
      "t": 167559.71076562526,
      "d": 104.16642708334257,
      "v": 64
    },
    {
      "midi": 31,
      "hit": false,
      "t": 167559.71076562526,
      "d": 104.16642708334257,
      "v": 64
    },
    {
      "midi": 31,
      "hit": false,
      "t": 167687.9155989586,
      "d": 1282.0483333333686,
      "v": 64
    },
    {
      "midi": 43,
      "hit": false,
      "t": 167687.9155989586,
      "d": 1514.4195937500044,
      "v": 64
    },
    {
      "midi": 31,
      "hit": false,
      "t": 167687.9155989586,
      "d": 1282.0483333333686,
      "v": 64
    },
    {
      "midi": 43,
      "hit": false,
      "t": 167687.9155989586,
      "d": 1514.4195937500044,
      "v": 64
    },
    {
      "midi": 55,
      "hit": false,
      "t": 168072.53009895864,
      "d": 588.940953125013,
      "v": 64
    },
    {
      "midi": 59,
      "hit": false,
      "t": 168072.53009895864,
      "d": 641.0241666666698,
      "v": 64
    },
    {
      "midi": 62,
      "hit": false,
      "t": 168072.53009895864,
      "d": 665.0625729166786,
      "v": 64
    },
    {
      "midi": 55,
      "hit": false,
      "t": 168072.53009895864,
      "d": 588.940953125013,
      "v": 64
    },
    {
      "midi": 59,
      "hit": false,
      "t": 168072.53009895864,
      "d": 641.0241666666698,
      "v": 64
    },
    {
      "midi": 62,
      "hit": false,
      "t": 168072.53009895864,
      "d": 665.0625729166786,
      "v": 64
    },
    {
      "midi": 55,
      "hit": false,
      "t": 168713.5542656253,
      "d": 436.6977135416528,
      "v": 64
    },
    {
      "midi": 60,
      "hit": false,
      "t": 168713.5542656253,
      "d": 436.6977135416528,
      "v": 64
    },
    {
      "midi": 64,
      "hit": false,
      "t": 168713.5542656253,
      "d": 436.6977135416528,
      "v": 64
    },
    {
      "midi": 55,
      "hit": false,
      "t": 168713.5542656253,
      "d": 436.6977135416528,
      "v": 64
    },
    {
      "midi": 60,
      "hit": false,
      "t": 168713.5542656253,
      "d": 436.6977135416528,
      "v": 64
    },
    {
      "midi": 64,
      "hit": false,
      "t": 168713.5542656253,
      "d": 436.6977135416528,
      "v": 64
    },
    {
      "midi": 26,
      "hit": false,
      "t": 169098.1687656253,
      "d": 152.24323958333116,
      "v": 64
    },
    {
      "midi": 26,
      "hit": false,
      "t": 169098.1687656253,
      "d": 152.24323958333116,
      "v": 64
    },
    {
      "midi": 29,
      "hit": false,
      "t": 169226.37359895863,
      "d": 1514.4195937500044,
      "v": 64
    },
    {
      "midi": 41,
      "hit": false,
      "t": 169226.37359895863,
      "d": 1514.4195937500044,
      "v": 64
    },
    {
      "midi": 65,
      "hit": false,
      "t": 169226.37359895863,
      "d": 1846.9508802083437,
      "v": 64
    },
    {
      "midi": 60,
      "hit": false,
      "t": 169226.37359895863,
      "d": 1899.0340937500005,
      "v": 64
    },
    {
      "midi": 57,
      "hit": false,
      "t": 169226.37359895863,
      "d": 1999.194119791675,
      "v": 64
    },
    {
      "midi": 53,
      "hit": false,
      "t": 169226.37359895863,
      "d": 2027.2389270833519,
      "v": 64
    },
    {
      "midi": 29,
      "hit": false,
      "t": 169226.37359895863,
      "d": 1514.4195937500044,
      "v": 64
    },
    {
      "midi": 41,
      "hit": false,
      "t": 169226.37359895863,
      "d": 1514.4195937500044,
      "v": 64
    },
    {
      "midi": 65,
      "hit": false,
      "t": 169226.37359895863,
      "d": 1846.9508802083437,
      "v": 64
    },
    {
      "midi": 60,
      "hit": false,
      "t": 169226.37359895863,
      "d": 1899.0340937500005,
      "v": 64
    },
    {
      "midi": 57,
      "hit": false,
      "t": 169226.37359895863,
      "d": 1999.194119791675,
      "v": 64
    },
    {
      "midi": 53,
      "hit": false,
      "t": 169226.37359895863,
      "d": 2027.2389270833519,
      "v": 64
    },
    {
      "midi": 29,
      "hit": false,
      "t": 170764.83159895864,
      "d": 1410.253166666691,
      "v": 64
    },
    {
      "midi": 41,
      "hit": false,
      "t": 170764.83159895864,
      "d": 1514.4195937500335,
      "v": 64
    },
    {
      "midi": 29,
      "hit": false,
      "t": 170764.83159895864,
      "d": 1410.253166666691,
      "v": 64
    },
    {
      "midi": 41,
      "hit": false,
      "t": 170764.83159895864,
      "d": 1514.4195937500335,
      "v": 64
    },
    {
      "midi": 55,
      "hit": false,
      "t": 171149.44609895864,
      "d": 588.940953125013,
      "v": 64
    },
    {
      "midi": 60,
      "hit": false,
      "t": 171149.44609895864,
      "d": 588.940953125013,
      "v": 64
    },
    {
      "midi": 65,
      "hit": false,
      "t": 171149.44609895864,
      "d": 588.940953125013,
      "v": 64
    },
    {
      "midi": 55,
      "hit": false,
      "t": 171149.44609895864,
      "d": 588.940953125013,
      "v": 64
    },
    {
      "midi": 60,
      "hit": false,
      "t": 171149.44609895864,
      "d": 588.940953125013,
      "v": 64
    },
    {
      "midi": 65,
      "hit": false,
      "t": 171149.44609895864,
      "d": 588.940953125013,
      "v": 64
    },
    {
      "midi": 53,
      "hit": false,
      "t": 171277.650932292,
      "d": 460.7361197916616,
      "v": 64
    },
    {
      "midi": 53,
      "hit": false,
      "t": 171277.650932292,
      "d": 460.7361197916616,
      "v": 64
    },
    {
      "midi": 55,
      "hit": false,
      "t": 171790.4702656253,
      "d": 332.5312864583393,
      "v": 64
    },
    {
      "midi": 53,
      "hit": false,
      "t": 171790.4702656253,
      "d": 360.5760937500163,
      "v": 64
    },
    {
      "midi": 65,
      "hit": false,
      "t": 171790.4702656253,
      "d": 360.5760937500163,
      "v": 64
    },
    {
      "midi": 60,
      "hit": false,
      "t": 171790.4702656253,
      "d": 408.652906250034,
      "v": 64
    },
    {
      "midi": 55,
      "hit": false,
      "t": 171790.4702656253,
      "d": 332.5312864583393,
      "v": 64
    },
    {
      "midi": 53,
      "hit": false,
      "t": 171790.4702656253,
      "d": 360.5760937500163,
      "v": 64
    },
    {
      "midi": 65,
      "hit": false,
      "t": 171790.4702656253,
      "d": 360.5760937500163,
      "v": 64
    },
    {
      "midi": 60,
      "hit": false,
      "t": 171790.4702656253,
      "d": 408.652906250034,
      "v": 64
    },
    {
      "midi": 26,
      "hit": false,
      "t": 172175.08476562533,
      "d": 128.20483333335142,
      "v": 64
    },
    {
      "midi": 26,
      "hit": false,
      "t": 172175.08476562533,
      "d": 128.20483333335142,
      "v": 64
    },
    {
      "midi": 55,
      "hit": false,
      "t": 172303.28959895868,
      "d": 128.2048333333223,
      "v": 64
    },
    {
      "midi": 29,
      "hit": false,
      "t": 172303.28959895868,
      "d": 1514.4195937499753,
      "v": 64
    },
    {
      "midi": 41,
      "hit": false,
      "t": 172303.28959895868,
      "d": 1514.4195937499753,
      "v": 64
    },
    {
      "midi": 53,
      "hit": false,
      "t": 172303.28959895868,
      "d": 1514.4195937499753,
      "v": 64
    },
    {
      "midi": 60,
      "hit": false,
      "t": 172303.28959895868,
      "d": 1899.0340937500005,
      "v": 64
    },
    {
      "midi": 65,
      "hit": false,
      "t": 172303.28959895868,
      "d": 3052.8775937500177,
      "v": 64
    },
    {
      "midi": 55,
      "hit": false,
      "t": 172303.28959895868,
      "d": 128.2048333333223,
      "v": 64
    },
    {
      "midi": 29,
      "hit": false,
      "t": 172303.28959895868,
      "d": 1514.4195937499753,
      "v": 64
    },
    {
      "midi": 41,
      "hit": false,
      "t": 172303.28959895868,
      "d": 1514.4195937499753,
      "v": 64
    },
    {
      "midi": 53,
      "hit": false,
      "t": 172303.28959895868,
      "d": 1514.4195937499753,
      "v": 64
    },
    {
      "midi": 60,
      "hit": false,
      "t": 172303.28959895868,
      "d": 1899.0340937500005,
      "v": 64
    },
    {
      "midi": 65,
      "hit": false,
      "t": 172303.28959895868,
      "d": 3052.8775937500177,
      "v": 64
    },
    {
      "midi": 57,
      "hit": false,
      "t": 172431.494432292,
      "d": 1742.7844531250012,
      "v": 64
    },
    {
      "midi": 57,
      "hit": false,
      "t": 172431.494432292,
      "d": 1742.7844531250012,
      "v": 64
    },
    {
      "midi": 41,
      "hit": false,
      "t": 173841.74759895867,
      "d": 232.37126041666488,
      "v": 64
    },
    {
      "midi": 53,
      "hit": false,
      "t": 173841.74759895867,
      "d": 332.5312864583393,
      "v": 64
    },
    {
      "midi": 29,
      "hit": false,
      "t": 173841.74759895867,
      "d": 1514.4195937500335,
      "v": 64
    },
    {
      "midi": 41,
      "hit": false,
      "t": 173841.74759895867,
      "d": 232.37126041666488,
      "v": 64
    },
    {
      "midi": 53,
      "hit": false,
      "t": 173841.74759895867,
      "d": 332.5312864583393,
      "v": 64
    },
    {
      "midi": 29,
      "hit": false,
      "t": 173841.74759895867,
      "d": 1514.4195937500335,
      "v": 64
    },
    {
      "midi": 41,
      "hit": false,
      "t": 174098.15726562534,
      "d": 1258.0099270833598,
      "v": 64
    },
    {
      "midi": 41,
      "hit": false,
      "t": 174098.15726562534,
      "d": 1258.0099270833598,
      "v": 64
    },
    {
      "midi": 53,
      "hit": false,
      "t": 174226.3620989587,
      "d": 488.7809270833386,
      "v": 64
    },
    {
      "midi": 57,
      "hit": false,
      "t": 174226.3620989587,
      "d": 488.7809270833386,
      "v": 64
    },
    {
      "midi": 60,
      "hit": false,
      "t": 174226.3620989587,
      "d": 488.7809270833386,
      "v": 64
    },
    {
      "midi": 53,
      "hit": false,
      "t": 174226.3620989587,
      "d": 488.7809270833386,
      "v": 64
    },
    {
      "midi": 57,
      "hit": false,
      "t": 174226.3620989587,
      "d": 488.7809270833386,
      "v": 64
    },
    {
      "midi": 60,
      "hit": false,
      "t": 174226.3620989587,
      "d": 488.7809270833386,
      "v": 64
    },
    {
      "midi": 53,
      "hit": false,
      "t": 174867.38626562536,
      "d": 488.7809270833386,
      "v": 64
    },
    {
      "midi": 57,
      "hit": false,
      "t": 174867.38626562536,
      "d": 488.7809270833386,
      "v": 64
    },
    {
      "midi": 62,
      "hit": false,
      "t": 174867.38626562536,
      "d": 488.7809270833386,
      "v": 64
    },
    {
      "midi": 53,
      "hit": false,
      "t": 174867.38626562536,
      "d": 488.7809270833386,
      "v": 64
    },
    {
      "midi": 57,
      "hit": false,
      "t": 174867.38626562536,
      "d": 488.7809270833386,
      "v": 64
    },
    {
      "midi": 62,
      "hit": false,
      "t": 174867.38626562536,
      "d": 488.7809270833386,
      "v": 64
    },
    {
      "midi": 31,
      "hit": false,
      "t": 175252.00076562536,
      "d": 128.20483333335142,
      "v": 64
    },
    {
      "midi": 31,
      "hit": false,
      "t": 175252.00076562536,
      "d": 128.20483333335142,
      "v": 64
    },
    {
      "midi": 36,
      "hit": false,
      "t": 175380.2055989587,
      "d": 1514.4195937500044,
      "v": 64
    },
    {
      "midi": 48,
      "hit": false,
      "t": 175380.2055989587,
      "d": 1514.4195937500044,
      "v": 64
    },
    {
      "midi": 60,
      "hit": false,
      "t": 175380.2055989587,
      "d": 1514.4195937500044,
      "v": 64
    },
    {
      "midi": 64,
      "hit": false,
      "t": 175380.2055989587,
      "d": 1870.9892864583526,
      "v": 64
    },
    {
      "midi": 55,
      "hit": false,
      "t": 175380.2055989587,
      "d": 1899.0340937500296,
      "v": 64
    },
    {
      "midi": 36,
      "hit": false,
      "t": 175380.2055989587,
      "d": 1514.4195937500044,
      "v": 64
    },
    {
      "midi": 48,
      "hit": false,
      "t": 175380.2055989587,
      "d": 1514.4195937500044,
      "v": 64
    },
    {
      "midi": 60,
      "hit": false,
      "t": 175380.2055989587,
      "d": 1514.4195937500044,
      "v": 64
    },
    {
      "midi": 64,
      "hit": false,
      "t": 175380.2055989587,
      "d": 1870.9892864583526,
      "v": 64
    },
    {
      "midi": 55,
      "hit": false,
      "t": 175380.2055989587,
      "d": 1899.0340937500296,
      "v": 64
    },
    {
      "midi": 60,
      "hit": false,
      "t": 176918.66359895872,
      "d": 360.5760937500163,
      "v": 64
    },
    {
      "midi": 36,
      "hit": false,
      "t": 176918.66359895872,
      "d": 1410.253166666691,
      "v": 64
    },
    {
      "midi": 48,
      "hit": false,
      "t": 176918.66359895872,
      "d": 1514.4195937500335,
      "v": 64
    },
    {
      "midi": 60,
      "hit": false,
      "t": 176918.66359895872,
      "d": 360.5760937500163,
      "v": 64
    },
    {
      "midi": 36,
      "hit": false,
      "t": 176918.66359895872,
      "d": 1410.253166666691,
      "v": 64
    },
    {
      "midi": 48,
      "hit": false,
      "t": 176918.66359895872,
      "d": 1514.4195937500335,
      "v": 64
    },
    {
      "midi": 55,
      "hit": false,
      "t": 177303.27809895875,
      "d": 588.940953125013,
      "v": 64
    },
    {
      "midi": 60,
      "hit": false,
      "t": 177303.27809895875,
      "d": 641.0241666666698,
      "v": 64
    },
    {
      "midi": 64,
      "hit": false,
      "t": 177303.27809895875,
      "d": 641.0241666666698,
      "v": 64
    },
    {
      "midi": 55,
      "hit": false,
      "t": 177303.27809895875,
      "d": 588.940953125013,
      "v": 64
    },
    {
      "midi": 60,
      "hit": false,
      "t": 177303.27809895875,
      "d": 641.0241666666698,
      "v": 64
    },
    {
      "midi": 64,
      "hit": false,
      "t": 177303.27809895875,
      "d": 641.0241666666698,
      "v": 64
    },
    {
      "midi": 55,
      "hit": false,
      "t": 177944.30226562542,
      "d": 384.61449999999604,
      "v": 64
    },
    {
      "midi": 62,
      "hit": false,
      "t": 177944.30226562542,
      "d": 384.61449999999604,
      "v": 64
    },
    {
      "midi": 65,
      "hit": false,
      "t": 177944.30226562542,
      "d": 384.61449999999604,
      "v": 64
    },
    {
      "midi": 55,
      "hit": false,
      "t": 177944.30226562542,
      "d": 384.61449999999604,
      "v": 64
    },
    {
      "midi": 62,
      "hit": false,
      "t": 177944.30226562542,
      "d": 384.61449999999604,
      "v": 64
    },
    {
      "midi": 65,
      "hit": false,
      "t": 177944.30226562542,
      "d": 384.61449999999604,
      "v": 64
    },
    {
      "midi": 26,
      "hit": false,
      "t": 178264.81434895875,
      "d": 192.30725000001257,
      "v": 64
    },
    {
      "midi": 26,
      "hit": false,
      "t": 178264.81434895875,
      "d": 192.30725000001257,
      "v": 64
    },
    {
      "midi": 31,
      "hit": false,
      "t": 178457.12159895877,
      "d": 1386.214760416653,
      "v": 64
    },
    {
      "midi": 43,
      "hit": false,
      "t": 178457.12159895877,
      "d": 1514.4195937500044,
      "v": 64
    },
    {
      "midi": 55,
      "hit": false,
      "t": 178457.12159895877,
      "d": 1870.9892864583526,
      "v": 64
    },
    {
      "midi": 59,
      "hit": false,
      "t": 178457.12159895877,
      "d": 1870.9892864583526,
      "v": 64
    },
    {
      "midi": 62,
      "hit": false,
      "t": 178457.12159895877,
      "d": 1899.0340937500296,
      "v": 64
    },
    {
      "midi": 31,
      "hit": false,
      "t": 178457.12159895877,
      "d": 1386.214760416653,
      "v": 64
    },
    {
      "midi": 43,
      "hit": false,
      "t": 178457.12159895877,
      "d": 1514.4195937500044,
      "v": 64
    },
    {
      "midi": 55,
      "hit": false,
      "t": 178457.12159895877,
      "d": 1870.9892864583526,
      "v": 64
    },
    {
      "midi": 59,
      "hit": false,
      "t": 178457.12159895877,
      "d": 1870.9892864583526,
      "v": 64
    },
    {
      "midi": 62,
      "hit": false,
      "t": 178457.12159895877,
      "d": 1899.0340937500296,
      "v": 64
    },
    {
      "midi": 31,
      "hit": false,
      "t": 179867.37476562543,
      "d": 104.16642708334257,
      "v": 64
    },
    {
      "midi": 31,
      "hit": false,
      "t": 179867.37476562543,
      "d": 104.16642708334257,
      "v": 64
    },
    {
      "midi": 31,
      "hit": false,
      "t": 179995.57959895878,
      "d": 1282.0483333333686,
      "v": 64
    },
    {
      "midi": 43,
      "hit": false,
      "t": 179995.57959895878,
      "d": 1514.4195937500335,
      "v": 64
    },
    {
      "midi": 31,
      "hit": false,
      "t": 179995.57959895878,
      "d": 1282.0483333333686,
      "v": 64
    },
    {
      "midi": 43,
      "hit": false,
      "t": 179995.57959895878,
      "d": 1514.4195937500335,
      "v": 64
    },
    {
      "midi": 55,
      "hit": false,
      "t": 180380.1940989588,
      "d": 588.940953125013,
      "v": 64
    },
    {
      "midi": 59,
      "hit": false,
      "t": 180380.1940989588,
      "d": 641.0241666666698,
      "v": 64
    },
    {
      "midi": 62,
      "hit": false,
      "t": 180380.1940989588,
      "d": 665.0625729166786,
      "v": 64
    },
    {
      "midi": 55,
      "hit": false,
      "t": 180380.1940989588,
      "d": 588.940953125013,
      "v": 64
    },
    {
      "midi": 59,
      "hit": false,
      "t": 180380.1940989588,
      "d": 641.0241666666698,
      "v": 64
    },
    {
      "midi": 62,
      "hit": false,
      "t": 180380.1940989588,
      "d": 665.0625729166786,
      "v": 64
    },
    {
      "midi": 55,
      "hit": false,
      "t": 181021.21826562547,
      "d": 436.6977135416819,
      "v": 64
    },
    {
      "midi": 60,
      "hit": false,
      "t": 181021.21826562547,
      "d": 436.6977135416819,
      "v": 64
    },
    {
      "midi": 64,
      "hit": false,
      "t": 181021.21826562547,
      "d": 436.6977135416819,
      "v": 64
    },
    {
      "midi": 55,
      "hit": false,
      "t": 181021.21826562547,
      "d": 436.6977135416819,
      "v": 64
    },
    {
      "midi": 60,
      "hit": false,
      "t": 181021.21826562547,
      "d": 436.6977135416819,
      "v": 64
    },
    {
      "midi": 64,
      "hit": false,
      "t": 181021.21826562547,
      "d": 436.6977135416819,
      "v": 64
    },
    {
      "midi": 58,
      "hit": false,
      "t": 181534.03759895882,
      "d": 436.6977135416528,
      "v": 64
    },
    {
      "midi": 62,
      "hit": false,
      "t": 181534.03759895882,
      "d": 436.6977135416528,
      "v": 64
    },
    {
      "midi": 65,
      "hit": false,
      "t": 181534.03759895882,
      "d": 436.6977135416528,
      "v": 64
    },
    {
      "midi": 46,
      "hit": false,
      "t": 181534.03759895882,
      "d": 745.1905937499832,
      "v": 64
    },
    {
      "midi": 58,
      "hit": false,
      "t": 181534.03759895882,
      "d": 436.6977135416528,
      "v": 64
    },
    {
      "midi": 62,
      "hit": false,
      "t": 181534.03759895882,
      "d": 436.6977135416528,
      "v": 64
    },
    {
      "midi": 65,
      "hit": false,
      "t": 181534.03759895882,
      "d": 436.6977135416528,
      "v": 64
    },
    {
      "midi": 46,
      "hit": false,
      "t": 181534.03759895882,
      "d": 745.1905937499832,
      "v": 64
    },
    {
      "midi": 58,
      "hit": false,
      "t": 182303.2665989588,
      "d": 436.6977135416528,
      "v": 64
    },
    {
      "midi": 62,
      "hit": false,
      "t": 182303.2665989588,
      "d": 436.6977135416528,
      "v": 64
    },
    {
      "midi": 64,
      "hit": false,
      "t": 182303.2665989588,
      "d": 436.6977135416528,
      "v": 64
    },
    {
      "midi": 65,
      "hit": false,
      "t": 182303.2665989588,
      "d": 436.6977135416528,
      "v": 64
    },
    {
      "midi": 46,
      "hit": false,
      "t": 182303.2665989588,
      "d": 745.1905937499832,
      "v": 64
    },
    {
      "midi": 58,
      "hit": false,
      "t": 182303.2665989588,
      "d": 436.6977135416528,
      "v": 64
    },
    {
      "midi": 62,
      "hit": false,
      "t": 182303.2665989588,
      "d": 436.6977135416528,
      "v": 64
    },
    {
      "midi": 64,
      "hit": false,
      "t": 182303.2665989588,
      "d": 436.6977135416528,
      "v": 64
    },
    {
      "midi": 65,
      "hit": false,
      "t": 182303.2665989588,
      "d": 436.6977135416528,
      "v": 64
    },
    {
      "midi": 46,
      "hit": false,
      "t": 182303.2665989588,
      "d": 745.1905937499832,
      "v": 64
    },
    {
      "midi": 58,
      "hit": false,
      "t": 183072.4955989588,
      "d": 436.6977135416528,
      "v": 64
    },
    {
      "midi": 62,
      "hit": false,
      "t": 183072.4955989588,
      "d": 436.6977135416528,
      "v": 64
    },
    {
      "midi": 65,
      "hit": false,
      "t": 183072.4955989588,
      "d": 436.6977135416528,
      "v": 64
    },
    {
      "midi": 46,
      "hit": false,
      "t": 183072.4955989588,
      "d": 745.1905937499832,
      "v": 64
    },
    {
      "midi": 58,
      "hit": false,
      "t": 183072.4955989588,
      "d": 436.6977135416528,
      "v": 64
    },
    {
      "midi": 62,
      "hit": false,
      "t": 183072.4955989588,
      "d": 436.6977135416528,
      "v": 64
    },
    {
      "midi": 65,
      "hit": false,
      "t": 183072.4955989588,
      "d": 436.6977135416528,
      "v": 64
    },
    {
      "midi": 46,
      "hit": false,
      "t": 183072.4955989588,
      "d": 745.1905937499832,
      "v": 64
    },
    {
      "midi": 58,
      "hit": false,
      "t": 183841.7245989588,
      "d": 436.6977135416528,
      "v": 64
    },
    {
      "midi": 62,
      "hit": false,
      "t": 183841.7245989588,
      "d": 436.6977135416528,
      "v": 64
    },
    {
      "midi": 65,
      "hit": false,
      "t": 183841.7245989588,
      "d": 436.6977135416528,
      "v": 64
    },
    {
      "midi": 70,
      "hit": false,
      "t": 183841.7245989588,
      "d": 436.6977135416528,
      "v": 64
    },
    {
      "midi": 46,
      "hit": false,
      "t": 183841.7245989588,
      "d": 745.1905937499832,
      "v": 64
    },
    {
      "midi": 58,
      "hit": false,
      "t": 183841.7245989588,
      "d": 436.6977135416528,
      "v": 64
    },
    {
      "midi": 62,
      "hit": false,
      "t": 183841.7245989588,
      "d": 436.6977135416528,
      "v": 64
    },
    {
      "midi": 65,
      "hit": false,
      "t": 183841.7245989588,
      "d": 436.6977135416528,
      "v": 64
    },
    {
      "midi": 70,
      "hit": false,
      "t": 183841.7245989588,
      "d": 436.6977135416528,
      "v": 64
    },
    {
      "midi": 46,
      "hit": false,
      "t": 183841.7245989588,
      "d": 745.1905937499832,
      "v": 64
    },
    {
      "midi": 41,
      "hit": false,
      "t": 184610.9535989588,
      "d": 2179.482166666654,
      "v": 64
    },
    {
      "midi": 57,
      "hit": false,
      "t": 184610.9535989588,
      "d": 3052.8775937499595,
      "v": 64
    },
    {
      "midi": 60,
      "hit": false,
      "t": 184610.9535989588,
      "d": 3052.8775937499595,
      "v": 64
    },
    {
      "midi": 65,
      "hit": false,
      "t": 184610.9535989588,
      "d": 3052.8775937499595,
      "v": 64
    },
    {
      "midi": 69,
      "hit": false,
      "t": 184610.9535989588,
      "d": 3052.8775937499595,
      "v": 64
    },
    {
      "midi": 41,
      "hit": false,
      "t": 184610.9535989588,
      "d": 2179.482166666654,
      "v": 64
    },
    {
      "midi": 57,
      "hit": false,
      "t": 184610.9535989588,
      "d": 3052.8775937499595,
      "v": 64
    },
    {
      "midi": 60,
      "hit": false,
      "t": 184610.9535989588,
      "d": 3052.8775937499595,
      "v": 64
    },
    {
      "midi": 65,
      "hit": false,
      "t": 184610.9535989588,
      "d": 3052.8775937499595,
      "v": 64
    },
    {
      "midi": 69,
      "hit": false,
      "t": 184610.9535989588,
      "d": 3052.8775937499595,
      "v": 64
    },
    {
      "midi": 38,
      "hit": false,
      "t": 186790.43576562544,
      "d": 128.2048333333223,
      "v": 64
    },
    {
      "midi": 38,
      "hit": false,
      "t": 186790.43576562544,
      "d": 128.2048333333223,
      "v": 64
    },
    {
      "midi": 41,
      "hit": false,
      "t": 186918.64059895877,
      "d": 384.61449999999604,
      "v": 64
    },
    {
      "midi": 41,
      "hit": false,
      "t": 186918.64059895877,
      "d": 384.61449999999604,
      "v": 64
    },
    {
      "midi": 42,
      "hit": false,
      "t": 187175.05026562544,
      "d": 488.7809270833095,
      "v": 64
    },
    {
      "midi": 42,
      "hit": false,
      "t": 187175.05026562544,
      "d": 488.7809270833095,
      "v": 64
    },
    {
      "midi": 43,
      "hit": false,
      "t": 187687.86959895876,
      "d": 745.1905937500123,
      "v": 64
    },
    {
      "midi": 55,
      "hit": false,
      "t": 187687.86959895876,
      "d": 745.1905937500123,
      "v": 45
    },
    {
      "midi": 59,
      "hit": false,
      "t": 187687.86959895876,
      "d": 745.1905937500123,
      "v": 45
    },
    {
      "midi": 62,
      "hit": false,
      "t": 187687.86959895876,
      "d": 745.1905937500123,
      "v": 45
    },
    {
      "midi": 31,
      "hit": false,
      "t": 187687.86959895876,
      "d": 3052.877593750076,
      "v": 44
    },
    {
      "midi": 43,
      "hit": false,
      "t": 187687.86959895876,
      "d": 745.1905937500123,
      "v": 64
    },
    {
      "midi": 55,
      "hit": false,
      "t": 187687.86959895876,
      "d": 745.1905937500123,
      "v": 45
    },
    {
      "midi": 59,
      "hit": false,
      "t": 187687.86959895876,
      "d": 745.1905937500123,
      "v": 45
    },
    {
      "midi": 62,
      "hit": false,
      "t": 187687.86959895876,
      "d": 745.1905937500123,
      "v": 45
    },
    {
      "midi": 31,
      "hit": false,
      "t": 187687.86959895876,
      "d": 3052.877593750076,
      "v": 44
    },
    {
      "midi": 43,
      "hit": false,
      "t": 188457.09859895878,
      "d": 745.1905937500123,
      "v": 64
    },
    {
      "midi": 55,
      "hit": false,
      "t": 188457.09859895878,
      "d": 745.1905937500123,
      "v": 43
    },
    {
      "midi": 59,
      "hit": false,
      "t": 188457.09859895878,
      "d": 745.1905937500123,
      "v": 43
    },
    {
      "midi": 62,
      "hit": false,
      "t": 188457.09859895878,
      "d": 745.1905937500123,
      "v": 43
    },
    {
      "midi": 43,
      "hit": false,
      "t": 188457.09859895878,
      "d": 745.1905937500123,
      "v": 64
    },
    {
      "midi": 55,
      "hit": false,
      "t": 188457.09859895878,
      "d": 745.1905937500123,
      "v": 43
    },
    {
      "midi": 59,
      "hit": false,
      "t": 188457.09859895878,
      "d": 745.1905937500123,
      "v": 43
    },
    {
      "midi": 62,
      "hit": false,
      "t": 188457.09859895878,
      "d": 745.1905937500123,
      "v": 43
    },
    {
      "midi": 43,
      "hit": false,
      "t": 189226.3275989588,
      "d": 332.5312864583393,
      "v": 64
    },
    {
      "midi": 55,
      "hit": false,
      "t": 189226.3275989588,
      "d": 745.1905937500123,
      "v": 42
    },
    {
      "midi": 59,
      "hit": false,
      "t": 189226.3275989588,
      "d": 745.1905937500123,
      "v": 42
    },
    {
      "midi": 62,
      "hit": false,
      "t": 189226.3275989588,
      "d": 745.1905937500123,
      "v": 42
    },
    {
      "midi": 43,
      "hit": false,
      "t": 189226.3275989588,
      "d": 332.5312864583393,
      "v": 64
    },
    {
      "midi": 55,
      "hit": false,
      "t": 189226.3275989588,
      "d": 745.1905937500123,
      "v": 42
    },
    {
      "midi": 59,
      "hit": false,
      "t": 189226.3275989588,
      "d": 745.1905937500123,
      "v": 42
    },
    {
      "midi": 62,
      "hit": false,
      "t": 189226.3275989588,
      "d": 745.1905937500123,
      "v": 42
    },
    {
      "midi": 43,
      "hit": false,
      "t": 189610.9420989588,
      "d": 232.37126041666488,
      "v": 64
    },
    {
      "midi": 43,
      "hit": false,
      "t": 189610.9420989588,
      "d": 232.37126041666488,
      "v": 64
    },
    {
      "midi": 43,
      "hit": false,
      "t": 189867.35176562547,
      "d": 104.16642708334257,
      "v": 64
    },
    {
      "midi": 43,
      "hit": false,
      "t": 189867.35176562547,
      "d": 104.16642708334257,
      "v": 64
    },
    {
      "midi": 43,
      "hit": false,
      "t": 189995.55659895882,
      "d": 332.5312864583393,
      "v": 64
    },
    {
      "midi": 55,
      "hit": false,
      "t": 189995.55659895882,
      "d": 745.1905937500123,
      "v": 44
    },
    {
      "midi": 59,
      "hit": false,
      "t": 189995.55659895882,
      "d": 745.1905937500123,
      "v": 44
    },
    {
      "midi": 62,
      "hit": false,
      "t": 189995.55659895882,
      "d": 745.1905937500123,
      "v": 44
    },
    {
      "midi": 43,
      "hit": false,
      "t": 189995.55659895882,
      "d": 332.5312864583393,
      "v": 64
    },
    {
      "midi": 55,
      "hit": false,
      "t": 189995.55659895882,
      "d": 745.1905937500123,
      "v": 44
    },
    {
      "midi": 59,
      "hit": false,
      "t": 189995.55659895882,
      "d": 745.1905937500123,
      "v": 44
    },
    {
      "midi": 62,
      "hit": false,
      "t": 189995.55659895882,
      "d": 745.1905937500123,
      "v": 44
    },
    {
      "midi": 45,
      "hit": false,
      "t": 190251.9662656255,
      "d": 332.5312864583393,
      "v": 64
    },
    {
      "midi": 45,
      "hit": false,
      "t": 190251.9662656255,
      "d": 332.5312864583393,
      "v": 64
    },
    {
      "midi": 50,
      "hit": false,
      "t": 190764.78559895884,
      "d": 745.1905937500123,
      "v": 64
    },
    {
      "midi": 54,
      "hit": false,
      "t": 190764.78559895884,
      "d": 745.1905937500123,
      "v": 44
    },
    {
      "midi": 57,
      "hit": false,
      "t": 190764.78559895884,
      "d": 745.1905937500123,
      "v": 44
    },
    {
      "midi": 62,
      "hit": false,
      "t": 190764.78559895884,
      "d": 745.1905937500123,
      "v": 44
    },
    {
      "midi": 66,
      "hit": false,
      "t": 190764.78559895884,
      "d": 745.1905937500123,
      "v": 44
    },
    {
      "midi": 38,
      "hit": false,
      "t": 190764.78559895884,
      "d": 3052.877593750076,
      "v": 44
    },
    {
      "midi": 50,
      "hit": false,
      "t": 190764.78559895884,
      "d": 745.1905937500123,
      "v": 64
    },
    {
      "midi": 54,
      "hit": false,
      "t": 190764.78559895884,
      "d": 745.1905937500123,
      "v": 44
    },
    {
      "midi": 57,
      "hit": false,
      "t": 190764.78559895884,
      "d": 745.1905937500123,
      "v": 44
    },
    {
      "midi": 62,
      "hit": false,
      "t": 190764.78559895884,
      "d": 745.1905937500123,
      "v": 44
    },
    {
      "midi": 66,
      "hit": false,
      "t": 190764.78559895884,
      "d": 745.1905937500123,
      "v": 44
    },
    {
      "midi": 38,
      "hit": false,
      "t": 190764.78559895884,
      "d": 3052.877593750076,
      "v": 44
    },
    {
      "midi": 50,
      "hit": false,
      "t": 191534.01459895886,
      "d": 745.1905937500123,
      "v": 64
    },
    {
      "midi": 54,
      "hit": false,
      "t": 191534.01459895886,
      "d": 745.1905937500123,
      "v": 44
    },
    {
      "midi": 57,
      "hit": false,
      "t": 191534.01459895886,
      "d": 745.1905937500123,
      "v": 44
    },
    {
      "midi": 62,
      "hit": false,
      "t": 191534.01459895886,
      "d": 745.1905937500123,
      "v": 44
    },
    {
      "midi": 66,
      "hit": false,
      "t": 191534.01459895886,
      "d": 745.1905937500123,
      "v": 44
    },
    {
      "midi": 50,
      "hit": false,
      "t": 191534.01459895886,
      "d": 745.1905937500123,
      "v": 64
    },
    {
      "midi": 54,
      "hit": false,
      "t": 191534.01459895886,
      "d": 745.1905937500123,
      "v": 44
    },
    {
      "midi": 57,
      "hit": false,
      "t": 191534.01459895886,
      "d": 745.1905937500123,
      "v": 44
    },
    {
      "midi": 62,
      "hit": false,
      "t": 191534.01459895886,
      "d": 745.1905937500123,
      "v": 44
    },
    {
      "midi": 66,
      "hit": false,
      "t": 191534.01459895886,
      "d": 745.1905937500123,
      "v": 44
    },
    {
      "midi": 50,
      "hit": false,
      "t": 192303.24359895888,
      "d": 360.5760937499872,
      "v": 64
    },
    {
      "midi": 54,
      "hit": false,
      "t": 192303.24359895888,
      "d": 745.1905937500123,
      "v": 44
    },
    {
      "midi": 57,
      "hit": false,
      "t": 192303.24359895888,
      "d": 745.1905937500123,
      "v": 44
    },
    {
      "midi": 62,
      "hit": false,
      "t": 192303.24359895888,
      "d": 745.1905937500123,
      "v": 44
    },
    {
      "midi": 66,
      "hit": false,
      "t": 192303.24359895888,
      "d": 745.1905937500123,
      "v": 44
    },
    {
      "midi": 50,
      "hit": false,
      "t": 192303.24359895888,
      "d": 360.5760937499872,
      "v": 64
    },
    {
      "midi": 54,
      "hit": false,
      "t": 192303.24359895888,
      "d": 745.1905937500123,
      "v": 44
    },
    {
      "midi": 57,
      "hit": false,
      "t": 192303.24359895888,
      "d": 745.1905937500123,
      "v": 44
    },
    {
      "midi": 62,
      "hit": false,
      "t": 192303.24359895888,
      "d": 745.1905937500123,
      "v": 44
    },
    {
      "midi": 66,
      "hit": false,
      "t": 192303.24359895888,
      "d": 745.1905937500123,
      "v": 44
    },
    {
      "midi": 50,
      "hit": false,
      "t": 192687.85809895888,
      "d": 280.4480729166826,
      "v": 64
    },
    {
      "midi": 50,
      "hit": false,
      "t": 192687.85809895888,
      "d": 280.4480729166826,
      "v": 64
    },
    {
      "midi": 48,
      "hit": false,
      "t": 192944.26776562555,
      "d": 104.16642708334257,
      "v": 64
    },
    {
      "midi": 48,
      "hit": false,
      "t": 192944.26776562555,
      "d": 104.16642708334257,
      "v": 64
    },
    {
      "midi": 50,
      "hit": false,
      "t": 193072.4725989589,
      "d": 232.37126041666488,
      "v": 64
    },
    {
      "midi": 54,
      "hit": false,
      "t": 193072.4725989589,
      "d": 745.1905937500123,
      "v": 44
    },
    {
      "midi": 57,
      "hit": false,
      "t": 193072.4725989589,
      "d": 745.1905937500123,
      "v": 44
    },
    {
      "midi": 62,
      "hit": false,
      "t": 193072.4725989589,
      "d": 745.1905937500123,
      "v": 44
    },
    {
      "midi": 66,
      "hit": false,
      "t": 193072.4725989589,
      "d": 745.1905937500123,
      "v": 44
    },
    {
      "midi": 50,
      "hit": false,
      "t": 193072.4725989589,
      "d": 232.37126041666488,
      "v": 64
    },
    {
      "midi": 54,
      "hit": false,
      "t": 193072.4725989589,
      "d": 745.1905937500123,
      "v": 44
    },
    {
      "midi": 57,
      "hit": false,
      "t": 193072.4725989589,
      "d": 745.1905937500123,
      "v": 44
    },
    {
      "midi": 62,
      "hit": false,
      "t": 193072.4725989589,
      "d": 745.1905937500123,
      "v": 44
    },
    {
      "midi": 66,
      "hit": false,
      "t": 193072.4725989589,
      "d": 745.1905937500123,
      "v": 44
    },
    {
      "midi": 52,
      "hit": false,
      "t": 193328.88226562558,
      "d": 488.7809270833386,
      "v": 64
    },
    {
      "midi": 52,
      "hit": false,
      "t": 193328.88226562558,
      "d": 488.7809270833386,
      "v": 64
    },
    {
      "midi": 53,
      "hit": false,
      "t": 193841.70159895893,
      "d": 745.1905937500123,
      "v": 44
    },
    {
      "midi": 57,
      "hit": false,
      "t": 193841.70159895893,
      "d": 745.1905937500123,
      "v": 44
    },
    {
      "midi": 60,
      "hit": false,
      "t": 193841.70159895893,
      "d": 745.1905937500123,
      "v": 44
    },
    {
      "midi": 65,
      "hit": false,
      "t": 193841.70159895893,
      "d": 745.1905937500123,
      "v": 44
    },
    {
      "midi": 29,
      "hit": false,
      "t": 193841.70159895893,
      "d": 3052.877593750076,
      "v": 44
    },
    {
      "midi": 53,
      "hit": false,
      "t": 193841.70159895893,
      "d": 745.1905937500123,
      "v": 44
    },
    {
      "midi": 57,
      "hit": false,
      "t": 193841.70159895893,
      "d": 745.1905937500123,
      "v": 44
    },
    {
      "midi": 60,
      "hit": false,
      "t": 193841.70159895893,
      "d": 745.1905937500123,
      "v": 44
    },
    {
      "midi": 65,
      "hit": false,
      "t": 193841.70159895893,
      "d": 745.1905937500123,
      "v": 44
    },
    {
      "midi": 29,
      "hit": false,
      "t": 193841.70159895893,
      "d": 3052.877593750076,
      "v": 44
    },
    {
      "midi": 53,
      "hit": false,
      "t": 194610.93059895895,
      "d": 745.1905937500123,
      "v": 44
    },
    {
      "midi": 57,
      "hit": false,
      "t": 194610.93059895895,
      "d": 745.1905937500123,
      "v": 44
    },
    {
      "midi": 60,
      "hit": false,
      "t": 194610.93059895895,
      "d": 745.1905937500123,
      "v": 44
    },
    {
      "midi": 65,
      "hit": false,
      "t": 194610.93059895895,
      "d": 745.1905937500123,
      "v": 44
    },
    {
      "midi": 53,
      "hit": false,
      "t": 194610.93059895895,
      "d": 745.1905937500123,
      "v": 44
    },
    {
      "midi": 57,
      "hit": false,
      "t": 194610.93059895895,
      "d": 745.1905937500123,
      "v": 44
    },
    {
      "midi": 60,
      "hit": false,
      "t": 194610.93059895895,
      "d": 745.1905937500123,
      "v": 44
    },
    {
      "midi": 65,
      "hit": false,
      "t": 194610.93059895895,
      "d": 745.1905937500123,
      "v": 44
    },
    {
      "midi": 53,
      "hit": false,
      "t": 195380.15959895897,
      "d": 745.1905937500123,
      "v": 44
    },
    {
      "midi": 57,
      "hit": false,
      "t": 195380.15959895897,
      "d": 745.1905937500123,
      "v": 44
    },
    {
      "midi": 60,
      "hit": false,
      "t": 195380.15959895897,
      "d": 745.1905937500123,
      "v": 44
    },
    {
      "midi": 65,
      "hit": false,
      "t": 195380.15959895897,
      "d": 745.1905937500123,
      "v": 44
    },
    {
      "midi": 53,
      "hit": false,
      "t": 195380.15959895897,
      "d": 745.1905937500123,
      "v": 44
    },
    {
      "midi": 57,
      "hit": false,
      "t": 195380.15959895897,
      "d": 745.1905937500123,
      "v": 44
    },
    {
      "midi": 60,
      "hit": false,
      "t": 195380.15959895897,
      "d": 745.1905937500123,
      "v": 44
    },
    {
      "midi": 65,
      "hit": false,
      "t": 195380.15959895897,
      "d": 745.1905937500123,
      "v": 44
    },
    {
      "midi": 53,
      "hit": false,
      "t": 196149.388598959,
      "d": 745.1905937500123,
      "v": 44
    },
    {
      "midi": 57,
      "hit": false,
      "t": 196149.388598959,
      "d": 745.1905937500123,
      "v": 44
    },
    {
      "midi": 60,
      "hit": false,
      "t": 196149.388598959,
      "d": 745.1905937500123,
      "v": 44
    },
    {
      "midi": 65,
      "hit": false,
      "t": 196149.388598959,
      "d": 745.1905937500123,
      "v": 44
    },
    {
      "midi": 53,
      "hit": false,
      "t": 196149.388598959,
      "d": 745.1905937500123,
      "v": 44
    },
    {
      "midi": 57,
      "hit": false,
      "t": 196149.388598959,
      "d": 745.1905937500123,
      "v": 44
    },
    {
      "midi": 60,
      "hit": false,
      "t": 196149.388598959,
      "d": 745.1905937500123,
      "v": 44
    },
    {
      "midi": 65,
      "hit": false,
      "t": 196149.388598959,
      "d": 745.1905937500123,
      "v": 44
    },
    {
      "midi": 64,
      "hit": false,
      "t": 196918.617598959,
      "d": 332.5312864583393,
      "v": 44
    },
    {
      "midi": 52,
      "hit": false,
      "t": 196918.617598959,
      "d": 745.1905937500123,
      "v": 44
    },
    {
      "midi": 55,
      "hit": false,
      "t": 196918.617598959,
      "d": 745.1905937500123,
      "v": 44
    },
    {
      "midi": 60,
      "hit": false,
      "t": 196918.617598959,
      "d": 745.1905937500123,
      "v": 44
    },
    {
      "midi": 36,
      "hit": false,
      "t": 196918.617598959,
      "d": 3052.877593750076,
      "v": 44
    },
    {
      "midi": 64,
      "hit": false,
      "t": 196918.617598959,
      "d": 332.5312864583393,
      "v": 44
    },
    {
      "midi": 52,
      "hit": false,
      "t": 196918.617598959,
      "d": 745.1905937500123,
      "v": 44
    },
    {
      "midi": 55,
      "hit": false,
      "t": 196918.617598959,
      "d": 745.1905937500123,
      "v": 44
    },
    {
      "midi": 60,
      "hit": false,
      "t": 196918.617598959,
      "d": 745.1905937500123,
      "v": 44
    },
    {
      "midi": 36,
      "hit": false,
      "t": 196918.617598959,
      "d": 3052.877593750076,
      "v": 44
    },
    {
      "midi": 62,
      "hit": false,
      "t": 197303.232098959,
      "d": 332.5312864583393,
      "v": 44
    },
    {
      "midi": 62,
      "hit": false,
      "t": 197303.232098959,
      "d": 332.5312864583393,
      "v": 44
    },
    {
      "midi": 62,
      "hit": false,
      "t": 197687.84659895903,
      "d": 256.40966666667373,
      "v": 44
    },
    {
      "midi": 52,
      "hit": false,
      "t": 197687.84659895903,
      "d": 745.1905937500123,
      "v": 44
    },
    {
      "midi": 55,
      "hit": false,
      "t": 197687.84659895903,
      "d": 745.1905937500123,
      "v": 44
    },
    {
      "midi": 60,
      "hit": false,
      "t": 197687.84659895903,
      "d": 745.1905937500123,
      "v": 44
    },
    {
      "midi": 62,
      "hit": false,
      "t": 197687.84659895903,
      "d": 256.40966666667373,
      "v": 44
    },
    {
      "midi": 52,
      "hit": false,
      "t": 197687.84659895903,
      "d": 745.1905937500123,
      "v": 44
    },
    {
      "midi": 55,
      "hit": false,
      "t": 197687.84659895903,
      "d": 745.1905937500123,
      "v": 44
    },
    {
      "midi": 60,
      "hit": false,
      "t": 197687.84659895903,
      "d": 745.1905937500123,
      "v": 44
    },
    {
      "midi": 64,
      "hit": false,
      "t": 197944.2562656257,
      "d": 308.49288020833046,
      "v": 44
    },
    {
      "midi": 64,
      "hit": false,
      "t": 197944.2562656257,
      "d": 308.49288020833046,
      "v": 44
    },
    {
      "midi": 62,
      "hit": false,
      "t": 198328.8707656257,
      "d": 308.49288020835957,
      "v": 44
    },
    {
      "midi": 62,
      "hit": false,
      "t": 198328.8707656257,
      "d": 308.49288020835957,
      "v": 44
    },
    {
      "midi": 60,
      "hit": false,
      "t": 198457.07559895905,
      "d": 588.940953125013,
      "v": 44
    },
    {
      "midi": 52,
      "hit": false,
      "t": 198457.07559895905,
      "d": 745.1905937500123,
      "v": 44
    },
    {
      "midi": 55,
      "hit": false,
      "t": 198457.07559895905,
      "d": 745.1905937500123,
      "v": 44
    },
    {
      "midi": 60,
      "hit": false,
      "t": 198457.07559895905,
      "d": 588.940953125013,
      "v": 44
    },
    {
      "midi": 52,
      "hit": false,
      "t": 198457.07559895905,
      "d": 745.1905937500123,
      "v": 44
    },
    {
      "midi": 55,
      "hit": false,
      "t": 198457.07559895905,
      "d": 745.1905937500123,
      "v": 44
    },
    {
      "midi": 62,
      "hit": false,
      "t": 198713.48526562573,
      "d": 104.16642708334257,
      "v": 44
    },
    {
      "midi": 62,
      "hit": false,
      "t": 198713.48526562573,
      "d": 104.16642708334257,
      "v": 44
    },
    {
      "midi": 62,
      "hit": false,
      "t": 198841.69009895908,
      "d": 204.3264531249879,
      "v": 44
    },
    {
      "midi": 62,
      "hit": false,
      "t": 198841.69009895908,
      "d": 204.3264531249879,
      "v": 44
    },
    {
      "midi": 60,
      "hit": false,
      "t": 199098.09976562572,
      "d": 873.3954270833638,
      "v": 44
    },
    {
      "midi": 60,
      "hit": false,
      "t": 199098.09976562572,
      "d": 873.3954270833638,
      "v": 44
    },
    {
      "midi": 52,
      "hit": false,
      "t": 199226.30459895908,
      "d": 745.1905937500123,
      "v": 44
    },
    {
      "midi": 55,
      "hit": false,
      "t": 199226.30459895908,
      "d": 745.1905937500123,
      "v": 44
    },
    {
      "midi": 62,
      "hit": false,
      "t": 199226.30459895908,
      "d": 745.1905937500123,
      "v": 44
    },
    {
      "midi": 52,
      "hit": false,
      "t": 199226.30459895908,
      "d": 745.1905937500123,
      "v": 44
    },
    {
      "midi": 55,
      "hit": false,
      "t": 199226.30459895908,
      "d": 745.1905937500123,
      "v": 44
    },
    {
      "midi": 62,
      "hit": false,
      "t": 199226.30459895908,
      "d": 745.1905937500123,
      "v": 44
    },
    {
      "midi": 64,
      "hit": false,
      "t": 199482.71426562575,
      "d": 488.7809270833386,
      "v": 44
    },
    {
      "midi": 64,
      "hit": false,
      "t": 199482.71426562575,
      "d": 488.7809270833386,
      "v": 44
    },
    {
      "midi": 55,
      "hit": false,
      "t": 199995.5335989591,
      "d": 745.1905937500123,
      "v": 45
    },
    {
      "midi": 59,
      "hit": false,
      "t": 199995.5335989591,
      "d": 745.1905937500123,
      "v": 45
    },
    {
      "midi": 62,
      "hit": false,
      "t": 199995.5335989591,
      "d": 745.1905937500123,
      "v": 45
    },
    {
      "midi": 31,
      "hit": false,
      "t": 199995.5335989591,
      "d": 3052.877593750076,
      "v": 44
    },
    {
      "midi": 55,
      "hit": false,
      "t": 199995.5335989591,
      "d": 745.1905937500123,
      "v": 45
    },
    {
      "midi": 59,
      "hit": false,
      "t": 199995.5335989591,
      "d": 745.1905937500123,
      "v": 45
    },
    {
      "midi": 62,
      "hit": false,
      "t": 199995.5335989591,
      "d": 745.1905937500123,
      "v": 45
    },
    {
      "midi": 31,
      "hit": false,
      "t": 199995.5335989591,
      "d": 3052.877593750076,
      "v": 44
    },
    {
      "midi": 55,
      "hit": false,
      "t": 200764.76259895912,
      "d": 745.1905937500123,
      "v": 43
    },
    {
      "midi": 59,
      "hit": false,
      "t": 200764.76259895912,
      "d": 745.1905937500123,
      "v": 43
    },
    {
      "midi": 62,
      "hit": false,
      "t": 200764.76259895912,
      "d": 745.1905937500123,
      "v": 43
    },
    {
      "midi": 55,
      "hit": false,
      "t": 200764.76259895912,
      "d": 745.1905937500123,
      "v": 43
    },
    {
      "midi": 59,
      "hit": false,
      "t": 200764.76259895912,
      "d": 745.1905937500123,
      "v": 43
    },
    {
      "midi": 62,
      "hit": false,
      "t": 200764.76259895912,
      "d": 745.1905937500123,
      "v": 43
    },
    {
      "midi": 55,
      "hit": false,
      "t": 201533.99159895914,
      "d": 745.1905937500123,
      "v": 42
    },
    {
      "midi": 59,
      "hit": false,
      "t": 201533.99159895914,
      "d": 745.1905937500123,
      "v": 42
    },
    {
      "midi": 62,
      "hit": false,
      "t": 201533.99159895914,
      "d": 745.1905937500123,
      "v": 42
    },
    {
      "midi": 55,
      "hit": false,
      "t": 201533.99159895914,
      "d": 745.1905937500123,
      "v": 42
    },
    {
      "midi": 59,
      "hit": false,
      "t": 201533.99159895914,
      "d": 745.1905937500123,
      "v": 42
    },
    {
      "midi": 62,
      "hit": false,
      "t": 201533.99159895914,
      "d": 745.1905937500123,
      "v": 42
    },
    {
      "midi": 55,
      "hit": false,
      "t": 202303.22059895916,
      "d": 745.1905937500123,
      "v": 44
    },
    {
      "midi": 59,
      "hit": false,
      "t": 202303.22059895916,
      "d": 745.1905937500123,
      "v": 44
    },
    {
      "midi": 62,
      "hit": false,
      "t": 202303.22059895916,
      "d": 745.1905937500123,
      "v": 44
    },
    {
      "midi": 55,
      "hit": false,
      "t": 202303.22059895916,
      "d": 745.1905937500123,
      "v": 44
    },
    {
      "midi": 59,
      "hit": false,
      "t": 202303.22059895916,
      "d": 745.1905937500123,
      "v": 44
    },
    {
      "midi": 62,
      "hit": false,
      "t": 202303.22059895916,
      "d": 745.1905937500123,
      "v": 44
    },
    {
      "midi": 54,
      "hit": false,
      "t": 203072.44959895918,
      "d": 745.1905937500123,
      "v": 44
    },
    {
      "midi": 57,
      "hit": false,
      "t": 203072.44959895918,
      "d": 745.1905937500123,
      "v": 44
    },
    {
      "midi": 62,
      "hit": false,
      "t": 203072.44959895918,
      "d": 745.1905937500123,
      "v": 44
    },
    {
      "midi": 66,
      "hit": false,
      "t": 203072.44959895918,
      "d": 745.1905937500123,
      "v": 44
    },
    {
      "midi": 38,
      "hit": false,
      "t": 203072.44959895918,
      "d": 3052.877593750076,
      "v": 44
    },
    {
      "midi": 54,
      "hit": false,
      "t": 203072.44959895918,
      "d": 745.1905937500123,
      "v": 44
    },
    {
      "midi": 57,
      "hit": false,
      "t": 203072.44959895918,
      "d": 745.1905937500123,
      "v": 44
    },
    {
      "midi": 62,
      "hit": false,
      "t": 203072.44959895918,
      "d": 745.1905937500123,
      "v": 44
    },
    {
      "midi": 66,
      "hit": false,
      "t": 203072.44959895918,
      "d": 745.1905937500123,
      "v": 44
    },
    {
      "midi": 38,
      "hit": false,
      "t": 203072.44959895918,
      "d": 3052.877593750076,
      "v": 44
    },
    {
      "midi": 54,
      "hit": false,
      "t": 203841.6785989592,
      "d": 745.1905937500123,
      "v": 44
    },
    {
      "midi": 57,
      "hit": false,
      "t": 203841.6785989592,
      "d": 745.1905937500123,
      "v": 44
    },
    {
      "midi": 62,
      "hit": false,
      "t": 203841.6785989592,
      "d": 745.1905937500123,
      "v": 44
    },
    {
      "midi": 66,
      "hit": false,
      "t": 203841.6785989592,
      "d": 745.1905937500123,
      "v": 44
    },
    {
      "midi": 54,
      "hit": false,
      "t": 203841.6785989592,
      "d": 745.1905937500123,
      "v": 44
    },
    {
      "midi": 57,
      "hit": false,
      "t": 203841.6785989592,
      "d": 745.1905937500123,
      "v": 44
    },
    {
      "midi": 62,
      "hit": false,
      "t": 203841.6785989592,
      "d": 745.1905937500123,
      "v": 44
    },
    {
      "midi": 66,
      "hit": false,
      "t": 203841.6785989592,
      "d": 745.1905937500123,
      "v": 44
    },
    {
      "midi": 54,
      "hit": false,
      "t": 204610.90759895922,
      "d": 745.1905937500123,
      "v": 44
    },
    {
      "midi": 57,
      "hit": false,
      "t": 204610.90759895922,
      "d": 745.1905937500123,
      "v": 44
    },
    {
      "midi": 62,
      "hit": false,
      "t": 204610.90759895922,
      "d": 745.1905937500123,
      "v": 44
    },
    {
      "midi": 66,
      "hit": false,
      "t": 204610.90759895922,
      "d": 745.1905937500123,
      "v": 44
    },
    {
      "midi": 54,
      "hit": false,
      "t": 204610.90759895922,
      "d": 745.1905937500123,
      "v": 44
    },
    {
      "midi": 57,
      "hit": false,
      "t": 204610.90759895922,
      "d": 745.1905937500123,
      "v": 44
    },
    {
      "midi": 62,
      "hit": false,
      "t": 204610.90759895922,
      "d": 745.1905937500123,
      "v": 44
    },
    {
      "midi": 66,
      "hit": false,
      "t": 204610.90759895922,
      "d": 745.1905937500123,
      "v": 44
    },
    {
      "midi": 54,
      "hit": false,
      "t": 205380.13659895925,
      "d": 745.1905937500123,
      "v": 44
    },
    {
      "midi": 57,
      "hit": false,
      "t": 205380.13659895925,
      "d": 745.1905937500123,
      "v": 44
    },
    {
      "midi": 62,
      "hit": false,
      "t": 205380.13659895925,
      "d": 745.1905937500123,
      "v": 44
    },
    {
      "midi": 66,
      "hit": false,
      "t": 205380.13659895925,
      "d": 745.1905937500123,
      "v": 44
    },
    {
      "midi": 54,
      "hit": false,
      "t": 205380.13659895925,
      "d": 745.1905937500123,
      "v": 44
    },
    {
      "midi": 57,
      "hit": false,
      "t": 205380.13659895925,
      "d": 745.1905937500123,
      "v": 44
    },
    {
      "midi": 62,
      "hit": false,
      "t": 205380.13659895925,
      "d": 745.1905937500123,
      "v": 44
    },
    {
      "midi": 66,
      "hit": false,
      "t": 205380.13659895925,
      "d": 745.1905937500123,
      "v": 44
    },
    {
      "midi": 53,
      "hit": false,
      "t": 206149.36559895927,
      "d": 745.1905937500123,
      "v": 44
    },
    {
      "midi": 57,
      "hit": false,
      "t": 206149.36559895927,
      "d": 745.1905937500123,
      "v": 44
    },
    {
      "midi": 60,
      "hit": false,
      "t": 206149.36559895927,
      "d": 745.1905937500123,
      "v": 44
    },
    {
      "midi": 65,
      "hit": false,
      "t": 206149.36559895927,
      "d": 745.1905937500123,
      "v": 44
    },
    {
      "midi": 29,
      "hit": false,
      "t": 206149.36559895927,
      "d": 3048.8711927084078,
      "v": 44
    },
    {
      "midi": 53,
      "hit": false,
      "t": 206149.36559895927,
      "d": 745.1905937500123,
      "v": 44
    },
    {
      "midi": 57,
      "hit": false,
      "t": 206149.36559895927,
      "d": 745.1905937500123,
      "v": 44
    },
    {
      "midi": 60,
      "hit": false,
      "t": 206149.36559895927,
      "d": 745.1905937500123,
      "v": 44
    },
    {
      "midi": 65,
      "hit": false,
      "t": 206149.36559895927,
      "d": 745.1905937500123,
      "v": 44
    },
    {
      "midi": 29,
      "hit": false,
      "t": 206149.36559895927,
      "d": 3048.8711927084078,
      "v": 44
    },
    {
      "midi": 53,
      "hit": false,
      "t": 206918.5945989593,
      "d": 745.1905937500123,
      "v": 44
    },
    {
      "midi": 57,
      "hit": false,
      "t": 206918.5945989593,
      "d": 745.1905937500123,
      "v": 44
    },
    {
      "midi": 60,
      "hit": false,
      "t": 206918.5945989593,
      "d": 745.1905937500123,
      "v": 44
    },
    {
      "midi": 65,
      "hit": false,
      "t": 206918.5945989593,
      "d": 745.1905937500123,
      "v": 44
    },
    {
      "midi": 53,
      "hit": false,
      "t": 206918.5945989593,
      "d": 745.1905937500123,
      "v": 44
    },
    {
      "midi": 57,
      "hit": false,
      "t": 206918.5945989593,
      "d": 745.1905937500123,
      "v": 44
    },
    {
      "midi": 60,
      "hit": false,
      "t": 206918.5945989593,
      "d": 745.1905937500123,
      "v": 44
    },
    {
      "midi": 65,
      "hit": false,
      "t": 206918.5945989593,
      "d": 745.1905937500123,
      "v": 44
    },
    {
      "midi": 53,
      "hit": false,
      "t": 207687.8235989593,
      "d": 741.1841927083442,
      "v": 44
    },
    {
      "midi": 57,
      "hit": false,
      "t": 207687.8235989593,
      "d": 741.1841927083442,
      "v": 44
    },
    {
      "midi": 60,
      "hit": false,
      "t": 207687.8235989593,
      "d": 741.1841927083442,
      "v": 44
    },
    {
      "midi": 65,
      "hit": false,
      "t": 207687.8235989593,
      "d": 741.1841927083442,
      "v": 44
    },
    {
      "midi": 53,
      "hit": false,
      "t": 207687.8235989593,
      "d": 741.1841927083442,
      "v": 44
    },
    {
      "midi": 57,
      "hit": false,
      "t": 207687.8235989593,
      "d": 741.1841927083442,
      "v": 44
    },
    {
      "midi": 60,
      "hit": false,
      "t": 207687.8235989593,
      "d": 741.1841927083442,
      "v": 44
    },
    {
      "midi": 65,
      "hit": false,
      "t": 207687.8235989593,
      "d": 741.1841927083442,
      "v": 44
    },
    {
      "midi": 53,
      "hit": false,
      "t": 208457.05259895933,
      "d": 741.1841927083442,
      "v": 44
    },
    {
      "midi": 57,
      "hit": false,
      "t": 208457.05259895933,
      "d": 741.1841927083442,
      "v": 44
    },
    {
      "midi": 60,
      "hit": false,
      "t": 208457.05259895933,
      "d": 741.1841927083442,
      "v": 44
    },
    {
      "midi": 65,
      "hit": false,
      "t": 208457.05259895933,
      "d": 741.1841927083442,
      "v": 44
    },
    {
      "midi": 53,
      "hit": false,
      "t": 208457.05259895933,
      "d": 741.1841927083442,
      "v": 44
    },
    {
      "midi": 57,
      "hit": false,
      "t": 208457.05259895933,
      "d": 741.1841927083442,
      "v": 44
    },
    {
      "midi": 60,
      "hit": false,
      "t": 208457.05259895933,
      "d": 741.1841927083442,
      "v": 44
    },
    {
      "midi": 65,
      "hit": false,
      "t": 208457.05259895933,
      "d": 741.1841927083442,
      "v": 44
    },
    {
      "midi": 52,
      "hit": false,
      "t": 209226.28159895935,
      "d": 741.1841927083442,
      "v": 44
    },
    {
      "midi": 55,
      "hit": false,
      "t": 209226.28159895935,
      "d": 741.1841927083442,
      "v": 44
    },
    {
      "midi": 60,
      "hit": false,
      "t": 209226.28159895935,
      "d": 741.1841927083442,
      "v": 44
    },
    {
      "midi": 64,
      "hit": false,
      "t": 209226.28159895935,
      "d": 741.1841927083442,
      "v": 44
    },
    {
      "midi": 36,
      "hit": false,
      "t": 209226.28159895935,
      "d": 3048.8711927084078,
      "v": 44
    },
    {
      "midi": 52,
      "hit": false,
      "t": 209226.28159895935,
      "d": 741.1841927083442,
      "v": 44
    },
    {
      "midi": 55,
      "hit": false,
      "t": 209226.28159895935,
      "d": 741.1841927083442,
      "v": 44
    },
    {
      "midi": 60,
      "hit": false,
      "t": 209226.28159895935,
      "d": 741.1841927083442,
      "v": 44
    },
    {
      "midi": 64,
      "hit": false,
      "t": 209226.28159895935,
      "d": 741.1841927083442,
      "v": 44
    },
    {
      "midi": 36,
      "hit": false,
      "t": 209226.28159895935,
      "d": 3048.8711927084078,
      "v": 44
    },
    {
      "midi": 52,
      "hit": false,
      "t": 209995.51059895937,
      "d": 741.1841927083442,
      "v": 44
    },
    {
      "midi": 55,
      "hit": false,
      "t": 209995.51059895937,
      "d": 741.1841927083442,
      "v": 44
    },
    {
      "midi": 60,
      "hit": false,
      "t": 209995.51059895937,
      "d": 741.1841927083442,
      "v": 44
    },
    {
      "midi": 64,
      "hit": false,
      "t": 209995.51059895937,
      "d": 741.1841927083442,
      "v": 44
    },
    {
      "midi": 52,
      "hit": false,
      "t": 209995.51059895937,
      "d": 741.1841927083442,
      "v": 44
    },
    {
      "midi": 55,
      "hit": false,
      "t": 209995.51059895937,
      "d": 741.1841927083442,
      "v": 44
    },
    {
      "midi": 60,
      "hit": false,
      "t": 209995.51059895937,
      "d": 741.1841927083442,
      "v": 44
    },
    {
      "midi": 64,
      "hit": false,
      "t": 209995.51059895937,
      "d": 741.1841927083442,
      "v": 44
    },
    {
      "midi": 52,
      "hit": false,
      "t": 210764.7395989594,
      "d": 741.1841927083442,
      "v": 44
    },
    {
      "midi": 55,
      "hit": false,
      "t": 210764.7395989594,
      "d": 741.1841927083442,
      "v": 44
    },
    {
      "midi": 60,
      "hit": false,
      "t": 210764.7395989594,
      "d": 741.1841927083442,
      "v": 44
    },
    {
      "midi": 64,
      "hit": false,
      "t": 210764.7395989594,
      "d": 741.1841927083442,
      "v": 44
    },
    {
      "midi": 52,
      "hit": false,
      "t": 210764.7395989594,
      "d": 741.1841927083442,
      "v": 44
    },
    {
      "midi": 55,
      "hit": false,
      "t": 210764.7395989594,
      "d": 741.1841927083442,
      "v": 44
    },
    {
      "midi": 60,
      "hit": false,
      "t": 210764.7395989594,
      "d": 741.1841927083442,
      "v": 44
    },
    {
      "midi": 64,
      "hit": false,
      "t": 210764.7395989594,
      "d": 741.1841927083442,
      "v": 44
    },
    {
      "midi": 52,
      "hit": false,
      "t": 211533.9685989594,
      "d": 741.1841927083442,
      "v": 44
    },
    {
      "midi": 55,
      "hit": false,
      "t": 211533.9685989594,
      "d": 741.1841927083442,
      "v": 44
    },
    {
      "midi": 60,
      "hit": false,
      "t": 211533.9685989594,
      "d": 741.1841927083442,
      "v": 44
    },
    {
      "midi": 64,
      "hit": false,
      "t": 211533.9685989594,
      "d": 741.1841927083442,
      "v": 44
    },
    {
      "midi": 52,
      "hit": false,
      "t": 211533.9685989594,
      "d": 741.1841927083442,
      "v": 44
    },
    {
      "midi": 55,
      "hit": false,
      "t": 211533.9685989594,
      "d": 741.1841927083442,
      "v": 44
    },
    {
      "midi": 60,
      "hit": false,
      "t": 211533.9685989594,
      "d": 741.1841927083442,
      "v": 44
    },
    {
      "midi": 64,
      "hit": false,
      "t": 211533.9685989594,
      "d": 741.1841927083442,
      "v": 44
    },
    {
      "midi": 55,
      "hit": false,
      "t": 212303.19759895944,
      "d": 741.1841927083442,
      "v": 45
    },
    {
      "midi": 59,
      "hit": false,
      "t": 212303.19759895944,
      "d": 741.1841927083442,
      "v": 45
    },
    {
      "midi": 62,
      "hit": false,
      "t": 212303.19759895944,
      "d": 741.1841927083442,
      "v": 45
    },
    {
      "midi": 31,
      "hit": false,
      "t": 212303.19759895944,
      "d": 3048.8711927084078,
      "v": 44
    },
    {
      "midi": 55,
      "hit": false,
      "t": 212303.19759895944,
      "d": 741.1841927083442,
      "v": 45
    },
    {
      "midi": 59,
      "hit": false,
      "t": 212303.19759895944,
      "d": 741.1841927083442,
      "v": 45
    },
    {
      "midi": 62,
      "hit": false,
      "t": 212303.19759895944,
      "d": 741.1841927083442,
      "v": 45
    },
    {
      "midi": 31,
      "hit": false,
      "t": 212303.19759895944,
      "d": 3048.8711927084078,
      "v": 44
    },
    {
      "midi": 55,
      "hit": false,
      "t": 213072.42659895946,
      "d": 741.1841927083442,
      "v": 43
    },
    {
      "midi": 59,
      "hit": false,
      "t": 213072.42659895946,
      "d": 741.1841927083442,
      "v": 43
    },
    {
      "midi": 62,
      "hit": false,
      "t": 213072.42659895946,
      "d": 741.1841927083442,
      "v": 43
    },
    {
      "midi": 55,
      "hit": false,
      "t": 213072.42659895946,
      "d": 741.1841927083442,
      "v": 43
    },
    {
      "midi": 59,
      "hit": false,
      "t": 213072.42659895946,
      "d": 741.1841927083442,
      "v": 43
    },
    {
      "midi": 62,
      "hit": false,
      "t": 213072.42659895946,
      "d": 741.1841927083442,
      "v": 43
    },
    {
      "midi": 55,
      "hit": false,
      "t": 213841.65559895948,
      "d": 741.1841927083442,
      "v": 42
    },
    {
      "midi": 59,
      "hit": false,
      "t": 213841.65559895948,
      "d": 741.1841927083442,
      "v": 42
    },
    {
      "midi": 62,
      "hit": false,
      "t": 213841.65559895948,
      "d": 741.1841927083442,
      "v": 42
    },
    {
      "midi": 55,
      "hit": false,
      "t": 213841.65559895948,
      "d": 741.1841927083442,
      "v": 42
    },
    {
      "midi": 59,
      "hit": false,
      "t": 213841.65559895948,
      "d": 741.1841927083442,
      "v": 42
    },
    {
      "midi": 62,
      "hit": false,
      "t": 213841.65559895948,
      "d": 741.1841927083442,
      "v": 42
    },
    {
      "midi": 55,
      "hit": false,
      "t": 214610.8845989595,
      "d": 741.1841927083442,
      "v": 44
    },
    {
      "midi": 59,
      "hit": false,
      "t": 214610.8845989595,
      "d": 741.1841927083442,
      "v": 44
    },
    {
      "midi": 62,
      "hit": false,
      "t": 214610.8845989595,
      "d": 741.1841927083442,
      "v": 44
    },
    {
      "midi": 55,
      "hit": false,
      "t": 214610.8845989595,
      "d": 741.1841927083442,
      "v": 44
    },
    {
      "midi": 59,
      "hit": false,
      "t": 214610.8845989595,
      "d": 741.1841927083442,
      "v": 44
    },
    {
      "midi": 62,
      "hit": false,
      "t": 214610.8845989595,
      "d": 741.1841927083442,
      "v": 44
    },
    {
      "midi": 54,
      "hit": false,
      "t": 215380.11359895952,
      "d": 741.1841927083442,
      "v": 44
    },
    {
      "midi": 57,
      "hit": false,
      "t": 215380.11359895952,
      "d": 741.1841927083442,
      "v": 44
    },
    {
      "midi": 62,
      "hit": false,
      "t": 215380.11359895952,
      "d": 741.1841927083442,
      "v": 44
    },
    {
      "midi": 66,
      "hit": false,
      "t": 215380.11359895952,
      "d": 741.1841927083442,
      "v": 44
    },
    {
      "midi": 38,
      "hit": false,
      "t": 215380.11359895952,
      "d": 3048.8711927084078,
      "v": 44
    },
    {
      "midi": 54,
      "hit": false,
      "t": 215380.11359895952,
      "d": 741.1841927083442,
      "v": 44
    },
    {
      "midi": 57,
      "hit": false,
      "t": 215380.11359895952,
      "d": 741.1841927083442,
      "v": 44
    },
    {
      "midi": 62,
      "hit": false,
      "t": 215380.11359895952,
      "d": 741.1841927083442,
      "v": 44
    },
    {
      "midi": 66,
      "hit": false,
      "t": 215380.11359895952,
      "d": 741.1841927083442,
      "v": 44
    },
    {
      "midi": 38,
      "hit": false,
      "t": 215380.11359895952,
      "d": 3048.8711927084078,
      "v": 44
    },
    {
      "midi": 54,
      "hit": false,
      "t": 216149.34259895954,
      "d": 741.1841927083442,
      "v": 44
    },
    {
      "midi": 57,
      "hit": false,
      "t": 216149.34259895954,
      "d": 741.1841927083442,
      "v": 44
    },
    {
      "midi": 62,
      "hit": false,
      "t": 216149.34259895954,
      "d": 741.1841927083442,
      "v": 44
    },
    {
      "midi": 66,
      "hit": false,
      "t": 216149.34259895954,
      "d": 741.1841927083442,
      "v": 44
    },
    {
      "midi": 54,
      "hit": false,
      "t": 216149.34259895954,
      "d": 741.1841927083442,
      "v": 44
    },
    {
      "midi": 57,
      "hit": false,
      "t": 216149.34259895954,
      "d": 741.1841927083442,
      "v": 44
    },
    {
      "midi": 62,
      "hit": false,
      "t": 216149.34259895954,
      "d": 741.1841927083442,
      "v": 44
    },
    {
      "midi": 66,
      "hit": false,
      "t": 216149.34259895954,
      "d": 741.1841927083442,
      "v": 44
    },
    {
      "midi": 54,
      "hit": false,
      "t": 216918.57159895956,
      "d": 741.1841927083442,
      "v": 44
    },
    {
      "midi": 57,
      "hit": false,
      "t": 216918.57159895956,
      "d": 741.1841927083442,
      "v": 44
    },
    {
      "midi": 62,
      "hit": false,
      "t": 216918.57159895956,
      "d": 741.1841927083442,
      "v": 44
    },
    {
      "midi": 66,
      "hit": false,
      "t": 216918.57159895956,
      "d": 741.1841927083442,
      "v": 44
    },
    {
      "midi": 54,
      "hit": false,
      "t": 216918.57159895956,
      "d": 741.1841927083442,
      "v": 44
    },
    {
      "midi": 57,
      "hit": false,
      "t": 216918.57159895956,
      "d": 741.1841927083442,
      "v": 44
    },
    {
      "midi": 62,
      "hit": false,
      "t": 216918.57159895956,
      "d": 741.1841927083442,
      "v": 44
    },
    {
      "midi": 66,
      "hit": false,
      "t": 216918.57159895956,
      "d": 741.1841927083442,
      "v": 44
    },
    {
      "midi": 54,
      "hit": false,
      "t": 217687.80059895958,
      "d": 741.1841927083442,
      "v": 44
    },
    {
      "midi": 57,
      "hit": false,
      "t": 217687.80059895958,
      "d": 741.1841927083442,
      "v": 44
    },
    {
      "midi": 62,
      "hit": false,
      "t": 217687.80059895958,
      "d": 741.1841927083442,
      "v": 44
    },
    {
      "midi": 66,
      "hit": false,
      "t": 217687.80059895958,
      "d": 741.1841927083442,
      "v": 44
    },
    {
      "midi": 54,
      "hit": false,
      "t": 217687.80059895958,
      "d": 741.1841927083442,
      "v": 44
    },
    {
      "midi": 57,
      "hit": false,
      "t": 217687.80059895958,
      "d": 741.1841927083442,
      "v": 44
    },
    {
      "midi": 62,
      "hit": false,
      "t": 217687.80059895958,
      "d": 741.1841927083442,
      "v": 44
    },
    {
      "midi": 66,
      "hit": false,
      "t": 217687.80059895958,
      "d": 741.1841927083442,
      "v": 44
    },
    {
      "midi": 50,
      "hit": false,
      "t": 218457.0295989596,
      "d": 741.1841927083442,
      "v": 44
    },
    {
      "midi": 57,
      "hit": false,
      "t": 218457.0295989596,
      "d": 741.1841927083442,
      "v": 44
    },
    {
      "midi": 62,
      "hit": false,
      "t": 218457.0295989596,
      "d": 741.1841927083442,
      "v": 44
    },
    {
      "midi": 65,
      "hit": false,
      "t": 218457.0295989596,
      "d": 741.1841927083442,
      "v": 44
    },
    {
      "midi": 38,
      "hit": false,
      "t": 218457.0295989596,
      "d": 3048.8711927084078,
      "v": 44
    },
    {
      "midi": 50,
      "hit": false,
      "t": 218457.0295989596,
      "d": 741.1841927083442,
      "v": 44
    },
    {
      "midi": 57,
      "hit": false,
      "t": 218457.0295989596,
      "d": 741.1841927083442,
      "v": 44
    },
    {
      "midi": 62,
      "hit": false,
      "t": 218457.0295989596,
      "d": 741.1841927083442,
      "v": 44
    },
    {
      "midi": 65,
      "hit": false,
      "t": 218457.0295989596,
      "d": 741.1841927083442,
      "v": 44
    },
    {
      "midi": 38,
      "hit": false,
      "t": 218457.0295989596,
      "d": 3048.8711927084078,
      "v": 44
    },
    {
      "midi": 50,
      "hit": false,
      "t": 219226.25859895963,
      "d": 741.1841927083442,
      "v": 44
    },
    {
      "midi": 57,
      "hit": false,
      "t": 219226.25859895963,
      "d": 741.1841927083442,
      "v": 44
    },
    {
      "midi": 62,
      "hit": false,
      "t": 219226.25859895963,
      "d": 741.1841927083442,
      "v": 44
    },
    {
      "midi": 65,
      "hit": false,
      "t": 219226.25859895963,
      "d": 741.1841927083442,
      "v": 44
    },
    {
      "midi": 50,
      "hit": false,
      "t": 219226.25859895963,
      "d": 741.1841927083442,
      "v": 44
    },
    {
      "midi": 57,
      "hit": false,
      "t": 219226.25859895963,
      "d": 741.1841927083442,
      "v": 44
    },
    {
      "midi": 62,
      "hit": false,
      "t": 219226.25859895963,
      "d": 741.1841927083442,
      "v": 44
    },
    {
      "midi": 65,
      "hit": false,
      "t": 219226.25859895963,
      "d": 741.1841927083442,
      "v": 44
    },
    {
      "midi": 50,
      "hit": false,
      "t": 219995.48759895965,
      "d": 741.1841927083442,
      "v": 44
    },
    {
      "midi": 57,
      "hit": false,
      "t": 219995.48759895965,
      "d": 741.1841927083442,
      "v": 44
    },
    {
      "midi": 62,
      "hit": false,
      "t": 219995.48759895965,
      "d": 741.1841927083442,
      "v": 44
    },
    {
      "midi": 65,
      "hit": false,
      "t": 219995.48759895965,
      "d": 741.1841927083442,
      "v": 44
    },
    {
      "midi": 50,
      "hit": false,
      "t": 219995.48759895965,
      "d": 741.1841927083442,
      "v": 44
    },
    {
      "midi": 57,
      "hit": false,
      "t": 219995.48759895965,
      "d": 741.1841927083442,
      "v": 44
    },
    {
      "midi": 62,
      "hit": false,
      "t": 219995.48759895965,
      "d": 741.1841927083442,
      "v": 44
    },
    {
      "midi": 65,
      "hit": false,
      "t": 219995.48759895965,
      "d": 741.1841927083442,
      "v": 44
    },
    {
      "midi": 62,
      "hit": false,
      "t": 220764.71659895967,
      "d": 228.36485937499674,
      "v": 44
    },
    {
      "midi": 65,
      "hit": false,
      "t": 220764.71659895967,
      "d": 256.40966666667373,
      "v": 44
    },
    {
      "midi": 50,
      "hit": false,
      "t": 220764.71659895967,
      "d": 741.1841927083442,
      "v": 44
    },
    {
      "midi": 57,
      "hit": false,
      "t": 220764.71659895967,
      "d": 741.1841927083442,
      "v": 44
    },
    {
      "midi": 62,
      "hit": false,
      "t": 220764.71659895967,
      "d": 228.36485937499674,
      "v": 44
    },
    {
      "midi": 65,
      "hit": false,
      "t": 220764.71659895967,
      "d": 256.40966666667373,
      "v": 44
    },
    {
      "midi": 50,
      "hit": false,
      "t": 220764.71659895967,
      "d": 741.1841927083442,
      "v": 44
    },
    {
      "midi": 57,
      "hit": false,
      "t": 220764.71659895967,
      "d": 741.1841927083442,
      "v": 44
    },
    {
      "midi": 62,
      "hit": false,
      "t": 221021.12626562634,
      "d": 484.77452604167047,
      "v": 44
    },
    {
      "midi": 64,
      "hit": false,
      "t": 221021.12626562634,
      "d": 484.77452604167047,
      "v": 44
    },
    {
      "midi": 62,
      "hit": false,
      "t": 221021.12626562634,
      "d": 484.77452604167047,
      "v": 44
    },
    {
      "midi": 64,
      "hit": false,
      "t": 221021.12626562634,
      "d": 484.77452604167047,
      "v": 44
    },
    {
      "midi": 53,
      "hit": false,
      "t": 221533.9455989597,
      "d": 741.1841927083442,
      "v": 44
    },
    {
      "midi": 57,
      "hit": false,
      "t": 221533.9455989597,
      "d": 741.1841927083442,
      "v": 44
    },
    {
      "midi": 60,
      "hit": false,
      "t": 221533.9455989597,
      "d": 741.1841927083442,
      "v": 44
    },
    {
      "midi": 65,
      "hit": false,
      "t": 221533.9455989597,
      "d": 741.1841927083442,
      "v": 44
    },
    {
      "midi": 41,
      "hit": false,
      "t": 221533.9455989597,
      "d": 2279.6421927083866,
      "v": 44
    },
    {
      "midi": 53,
      "hit": false,
      "t": 221533.9455989597,
      "d": 741.1841927083442,
      "v": 44
    },
    {
      "midi": 57,
      "hit": false,
      "t": 221533.9455989597,
      "d": 741.1841927083442,
      "v": 44
    },
    {
      "midi": 60,
      "hit": false,
      "t": 221533.9455989597,
      "d": 741.1841927083442,
      "v": 44
    },
    {
      "midi": 65,
      "hit": false,
      "t": 221533.9455989597,
      "d": 741.1841927083442,
      "v": 44
    },
    {
      "midi": 41,
      "hit": false,
      "t": 221533.9455989597,
      "d": 2279.6421927083866,
      "v": 44
    },
    {
      "midi": 53,
      "hit": false,
      "t": 222303.1745989597,
      "d": 741.1841927083442,
      "v": 44
    },
    {
      "midi": 57,
      "hit": false,
      "t": 222303.1745989597,
      "d": 741.1841927083442,
      "v": 44
    },
    {
      "midi": 60,
      "hit": false,
      "t": 222303.1745989597,
      "d": 741.1841927083442,
      "v": 44
    },
    {
      "midi": 65,
      "hit": false,
      "t": 222303.1745989597,
      "d": 741.1841927083442,
      "v": 44
    },
    {
      "midi": 53,
      "hit": false,
      "t": 222303.1745989597,
      "d": 741.1841927083442,
      "v": 44
    },
    {
      "midi": 57,
      "hit": false,
      "t": 222303.1745989597,
      "d": 741.1841927083442,
      "v": 44
    },
    {
      "midi": 60,
      "hit": false,
      "t": 222303.1745989597,
      "d": 741.1841927083442,
      "v": 44
    },
    {
      "midi": 65,
      "hit": false,
      "t": 222303.1745989597,
      "d": 741.1841927083442,
      "v": 44
    },
    {
      "midi": 53,
      "hit": false,
      "t": 223072.40359895973,
      "d": 741.1841927083442,
      "v": 44
    },
    {
      "midi": 57,
      "hit": false,
      "t": 223072.40359895973,
      "d": 741.1841927083442,
      "v": 44
    },
    {
      "midi": 60,
      "hit": false,
      "t": 223072.40359895973,
      "d": 741.1841927083442,
      "v": 44
    },
    {
      "midi": 65,
      "hit": false,
      "t": 223072.40359895973,
      "d": 741.1841927083442,
      "v": 44
    },
    {
      "midi": 53,
      "hit": false,
      "t": 223072.40359895973,
      "d": 741.1841927083442,
      "v": 44
    },
    {
      "midi": 57,
      "hit": false,
      "t": 223072.40359895973,
      "d": 741.1841927083442,
      "v": 44
    },
    {
      "midi": 60,
      "hit": false,
      "t": 223072.40359895973,
      "d": 741.1841927083442,
      "v": 44
    },
    {
      "midi": 65,
      "hit": false,
      "t": 223072.40359895973,
      "d": 741.1841927083442,
      "v": 44
    },
    {
      "midi": 36,
      "hit": false,
      "t": 224610.86159895975,
      "d": 1510.4131927083363,
      "v": 64
    },
    {
      "midi": 48,
      "hit": false,
      "t": 224610.86159895975,
      "d": 1510.4131927083363,
      "v": 64
    },
    {
      "midi": 60,
      "hit": false,
      "t": 224610.86159895975,
      "d": 1510.4131927083363,
      "v": 64
    },
    {
      "midi": 64,
      "hit": false,
      "t": 224610.86159895975,
      "d": 1870.9892864583526,
      "v": 64
    },
    {
      "midi": 55,
      "hit": false,
      "t": 224610.86159895975,
      "d": 1895.0276927083614,
      "v": 64
    },
    {
      "midi": 36,
      "hit": false,
      "t": 224610.86159895975,
      "d": 1510.4131927083363,
      "v": 64
    },
    {
      "midi": 48,
      "hit": false,
      "t": 224610.86159895975,
      "d": 1510.4131927083363,
      "v": 64
    },
    {
      "midi": 60,
      "hit": false,
      "t": 224610.86159895975,
      "d": 1510.4131927083363,
      "v": 64
    },
    {
      "midi": 64,
      "hit": false,
      "t": 224610.86159895975,
      "d": 1870.9892864583526,
      "v": 64
    },
    {
      "midi": 55,
      "hit": false,
      "t": 224610.86159895975,
      "d": 1895.0276927083614,
      "v": 64
    },
    {
      "midi": 60,
      "hit": false,
      "t": 226149.31959895976,
      "d": 356.56969270834816,
      "v": 64
    },
    {
      "midi": 36,
      "hit": false,
      "t": 226149.31959895976,
      "d": 1410.253166666691,
      "v": 64
    },
    {
      "midi": 48,
      "hit": false,
      "t": 226149.31959895976,
      "d": 1510.4131927083654,
      "v": 64
    },
    {
      "midi": 60,
      "hit": false,
      "t": 226149.31959895976,
      "d": 356.56969270834816,
      "v": 64
    },
    {
      "midi": 36,
      "hit": false,
      "t": 226149.31959895976,
      "d": 1410.253166666691,
      "v": 64
    },
    {
      "midi": 48,
      "hit": false,
      "t": 226149.31959895976,
      "d": 1510.4131927083654,
      "v": 64
    },
    {
      "midi": 55,
      "hit": false,
      "t": 226533.93409895978,
      "d": 588.940953125013,
      "v": 64
    },
    {
      "midi": 60,
      "hit": false,
      "t": 226533.93409895978,
      "d": 641.0241666666698,
      "v": 64
    },
    {
      "midi": 64,
      "hit": false,
      "t": 226533.93409895978,
      "d": 641.0241666666698,
      "v": 64
    },
    {
      "midi": 55,
      "hit": false,
      "t": 226533.93409895978,
      "d": 588.940953125013,
      "v": 64
    },
    {
      "midi": 60,
      "hit": false,
      "t": 226533.93409895978,
      "d": 641.0241666666698,
      "v": 64
    },
    {
      "midi": 64,
      "hit": false,
      "t": 226533.93409895978,
      "d": 641.0241666666698,
      "v": 64
    },
    {
      "midi": 55,
      "hit": false,
      "t": 227174.95826562645,
      "d": 384.61449999999604,
      "v": 64
    },
    {
      "midi": 62,
      "hit": false,
      "t": 227174.95826562645,
      "d": 384.61449999999604,
      "v": 64
    },
    {
      "midi": 65,
      "hit": false,
      "t": 227174.95826562645,
      "d": 384.61449999999604,
      "v": 64
    },
    {
      "midi": 55,
      "hit": false,
      "t": 227174.95826562645,
      "d": 384.61449999999604,
      "v": 64
    },
    {
      "midi": 62,
      "hit": false,
      "t": 227174.95826562645,
      "d": 384.61449999999604,
      "v": 64
    },
    {
      "midi": 65,
      "hit": false,
      "t": 227174.95826562645,
      "d": 384.61449999999604,
      "v": 64
    },
    {
      "midi": 26,
      "hit": false,
      "t": 227495.4703489598,
      "d": 192.30725000001257,
      "v": 64
    },
    {
      "midi": 26,
      "hit": false,
      "t": 227495.4703489598,
      "d": 192.30725000001257,
      "v": 64
    },
    {
      "midi": 31,
      "hit": false,
      "t": 227687.7775989598,
      "d": 1382.208359375014,
      "v": 64
    },
    {
      "midi": 43,
      "hit": false,
      "t": 227687.7775989598,
      "d": 1510.4131927083654,
      "v": 64
    },
    {
      "midi": 55,
      "hit": false,
      "t": 227687.7775989598,
      "d": 1870.9892864583817,
      "v": 64
    },
    {
      "midi": 59,
      "hit": false,
      "t": 227687.7775989598,
      "d": 1870.9892864583817,
      "v": 64
    },
    {
      "midi": 62,
      "hit": false,
      "t": 227687.7775989598,
      "d": 1895.0276927083905,
      "v": 64
    },
    {
      "midi": 31,
      "hit": false,
      "t": 227687.7775989598,
      "d": 1382.208359375014,
      "v": 64
    },
    {
      "midi": 43,
      "hit": false,
      "t": 227687.7775989598,
      "d": 1510.4131927083654,
      "v": 64
    },
    {
      "midi": 55,
      "hit": false,
      "t": 227687.7775989598,
      "d": 1870.9892864583817,
      "v": 64
    },
    {
      "midi": 59,
      "hit": false,
      "t": 227687.7775989598,
      "d": 1870.9892864583817,
      "v": 64
    },
    {
      "midi": 62,
      "hit": false,
      "t": 227687.7775989598,
      "d": 1895.0276927083905,
      "v": 64
    },
    {
      "midi": 31,
      "hit": false,
      "t": 229098.0307656265,
      "d": 100.16002604167443,
      "v": 64
    },
    {
      "midi": 31,
      "hit": false,
      "t": 229098.0307656265,
      "d": 100.16002604167443,
      "v": 64
    },
    {
      "midi": 31,
      "hit": false,
      "t": 229226.23559895984,
      "d": 1282.0483333333686,
      "v": 64
    },
    {
      "midi": 43,
      "hit": false,
      "t": 229226.23559895984,
      "d": 1510.4131927083363,
      "v": 64
    },
    {
      "midi": 31,
      "hit": false,
      "t": 229226.23559895984,
      "d": 1282.0483333333686,
      "v": 64
    },
    {
      "midi": 43,
      "hit": false,
      "t": 229226.23559895984,
      "d": 1510.4131927083363,
      "v": 64
    },
    {
      "midi": 55,
      "hit": false,
      "t": 229610.85009895987,
      "d": 588.940953125013,
      "v": 64
    },
    {
      "midi": 59,
      "hit": false,
      "t": 229610.85009895987,
      "d": 641.0241666666698,
      "v": 64
    },
    {
      "midi": 62,
      "hit": false,
      "t": 229610.85009895987,
      "d": 665.0625729166786,
      "v": 64
    },
    {
      "midi": 55,
      "hit": false,
      "t": 229610.85009895987,
      "d": 588.940953125013,
      "v": 64
    },
    {
      "midi": 59,
      "hit": false,
      "t": 229610.85009895987,
      "d": 641.0241666666698,
      "v": 64
    },
    {
      "midi": 62,
      "hit": false,
      "t": 229610.85009895987,
      "d": 665.0625729166786,
      "v": 64
    },
    {
      "midi": 55,
      "hit": false,
      "t": 230251.87426562654,
      "d": 436.6977135416528,
      "v": 64
    },
    {
      "midi": 60,
      "hit": false,
      "t": 230251.87426562654,
      "d": 436.6977135416528,
      "v": 64
    },
    {
      "midi": 64,
      "hit": false,
      "t": 230251.87426562654,
      "d": 436.6977135416528,
      "v": 64
    },
    {
      "midi": 55,
      "hit": false,
      "t": 230251.87426562654,
      "d": 436.6977135416528,
      "v": 64
    },
    {
      "midi": 60,
      "hit": false,
      "t": 230251.87426562654,
      "d": 436.6977135416528,
      "v": 64
    },
    {
      "midi": 64,
      "hit": false,
      "t": 230251.87426562654,
      "d": 436.6977135416528,
      "v": 64
    },
    {
      "midi": 26,
      "hit": false,
      "t": 230636.48876562653,
      "d": 152.24323958333116,
      "v": 64
    },
    {
      "midi": 26,
      "hit": false,
      "t": 230636.48876562653,
      "d": 152.24323958333116,
      "v": 64
    },
    {
      "midi": 29,
      "hit": false,
      "t": 230764.69359895986,
      "d": 1510.4131927083363,
      "v": 64
    },
    {
      "midi": 41,
      "hit": false,
      "t": 230764.69359895986,
      "d": 1510.4131927083363,
      "v": 64
    },
    {
      "midi": 65,
      "hit": false,
      "t": 230764.69359895986,
      "d": 1842.9444791666756,
      "v": 64
    },
    {
      "midi": 60,
      "hit": false,
      "t": 230764.69359895986,
      "d": 1895.0276927083323,
      "v": 64
    },
    {
      "midi": 57,
      "hit": false,
      "t": 230764.69359895986,
      "d": 1999.194119791675,
      "v": 64
    },
    {
      "midi": 53,
      "hit": false,
      "t": 230764.69359895986,
      "d": 2023.2325260416837,
      "v": 64
    },
    {
      "midi": 29,
      "hit": false,
      "t": 230764.69359895986,
      "d": 1510.4131927083363,
      "v": 64
    },
    {
      "midi": 41,
      "hit": false,
      "t": 230764.69359895986,
      "d": 1510.4131927083363,
      "v": 64
    },
    {
      "midi": 65,
      "hit": false,
      "t": 230764.69359895986,
      "d": 1842.9444791666756,
      "v": 64
    },
    {
      "midi": 60,
      "hit": false,
      "t": 230764.69359895986,
      "d": 1895.0276927083323,
      "v": 64
    },
    {
      "midi": 57,
      "hit": false,
      "t": 230764.69359895986,
      "d": 1999.194119791675,
      "v": 64
    },
    {
      "midi": 53,
      "hit": false,
      "t": 230764.69359895986,
      "d": 2023.2325260416837,
      "v": 64
    },
    {
      "midi": 29,
      "hit": false,
      "t": 232303.15159895987,
      "d": 1410.253166666691,
      "v": 64
    },
    {
      "midi": 41,
      "hit": false,
      "t": 232303.15159895987,
      "d": 1510.4131927083654,
      "v": 64
    },
    {
      "midi": 29,
      "hit": false,
      "t": 232303.15159895987,
      "d": 1410.253166666691,
      "v": 64
    },
    {
      "midi": 41,
      "hit": false,
      "t": 232303.15159895987,
      "d": 1510.4131927083654,
      "v": 64
    },
    {
      "midi": 55,
      "hit": false,
      "t": 232687.76609895987,
      "d": 588.940953125013,
      "v": 64
    },
    {
      "midi": 60,
      "hit": false,
      "t": 232687.76609895987,
      "d": 588.940953125013,
      "v": 64
    },
    {
      "midi": 65,
      "hit": false,
      "t": 232687.76609895987,
      "d": 588.940953125013,
      "v": 64
    },
    {
      "midi": 55,
      "hit": false,
      "t": 232687.76609895987,
      "d": 588.940953125013,
      "v": 64
    },
    {
      "midi": 60,
      "hit": false,
      "t": 232687.76609895987,
      "d": 588.940953125013,
      "v": 64
    },
    {
      "midi": 65,
      "hit": false,
      "t": 232687.76609895987,
      "d": 588.940953125013,
      "v": 64
    },
    {
      "midi": 53,
      "hit": false,
      "t": 232815.97093229322,
      "d": 460.7361197916616,
      "v": 64
    },
    {
      "midi": 53,
      "hit": false,
      "t": 232815.97093229322,
      "d": 460.7361197916616,
      "v": 64
    },
    {
      "midi": 55,
      "hit": false,
      "t": 233328.79026562654,
      "d": 332.5312864583393,
      "v": 64
    },
    {
      "midi": 53,
      "hit": false,
      "t": 233328.79026562654,
      "d": 356.56969270834816,
      "v": 64
    },
    {
      "midi": 65,
      "hit": false,
      "t": 233328.79026562654,
      "d": 356.56969270834816,
      "v": 64
    },
    {
      "midi": 60,
      "hit": false,
      "t": 233328.79026562654,
      "d": 408.652906250034,
      "v": 64
    },
    {
      "midi": 55,
      "hit": false,
      "t": 233328.79026562654,
      "d": 332.5312864583393,
      "v": 64
    },
    {
      "midi": 53,
      "hit": false,
      "t": 233328.79026562654,
      "d": 356.56969270834816,
      "v": 64
    },
    {
      "midi": 65,
      "hit": false,
      "t": 233328.79026562654,
      "d": 356.56969270834816,
      "v": 64
    },
    {
      "midi": 60,
      "hit": false,
      "t": 233328.79026562654,
      "d": 408.652906250034,
      "v": 64
    },
    {
      "midi": 26,
      "hit": false,
      "t": 233713.40476562656,
      "d": 128.20483333335142,
      "v": 64
    },
    {
      "midi": 26,
      "hit": false,
      "t": 233713.40476562656,
      "d": 128.20483333335142,
      "v": 64
    },
    {
      "midi": 55,
      "hit": false,
      "t": 233841.6095989599,
      "d": 128.2048333333223,
      "v": 64
    },
    {
      "midi": 29,
      "hit": false,
      "t": 233841.6095989599,
      "d": 1510.4131927083363,
      "v": 64
    },
    {
      "midi": 41,
      "hit": false,
      "t": 233841.6095989599,
      "d": 1510.4131927083363,
      "v": 64
    },
    {
      "midi": 53,
      "hit": false,
      "t": 233841.6095989599,
      "d": 1510.4131927083363,
      "v": 64
    },
    {
      "midi": 60,
      "hit": false,
      "t": 233841.6095989599,
      "d": 1895.0276927083614,
      "v": 64
    },
    {
      "midi": 65,
      "hit": false,
      "t": 233841.6095989599,
      "d": 3048.8711927083787,
      "v": 64
    },
    {
      "midi": 55,
      "hit": false,
      "t": 233841.6095989599,
      "d": 128.2048333333223,
      "v": 64
    },
    {
      "midi": 29,
      "hit": false,
      "t": 233841.6095989599,
      "d": 1510.4131927083363,
      "v": 64
    },
    {
      "midi": 41,
      "hit": false,
      "t": 233841.6095989599,
      "d": 1510.4131927083363,
      "v": 64
    },
    {
      "midi": 53,
      "hit": false,
      "t": 233841.6095989599,
      "d": 1510.4131927083363,
      "v": 64
    },
    {
      "midi": 60,
      "hit": false,
      "t": 233841.6095989599,
      "d": 1895.0276927083614,
      "v": 64
    },
    {
      "midi": 65,
      "hit": false,
      "t": 233841.6095989599,
      "d": 3048.8711927083787,
      "v": 64
    },
    {
      "midi": 57,
      "hit": false,
      "t": 233969.81443229323,
      "d": 1742.7844531250303,
      "v": 64
    },
    {
      "midi": 57,
      "hit": false,
      "t": 233969.81443229323,
      "d": 1742.7844531250303,
      "v": 64
    },
    {
      "midi": 41,
      "hit": false,
      "t": 235380.06759895993,
      "d": 228.36485937499674,
      "v": 64
    },
    {
      "midi": 53,
      "hit": false,
      "t": 235380.06759895993,
      "d": 332.5312864583393,
      "v": 64
    },
    {
      "midi": 29,
      "hit": false,
      "t": 235380.06759895993,
      "d": 1510.4131927083654,
      "v": 64
    },
    {
      "midi": 41,
      "hit": false,
      "t": 235380.06759895993,
      "d": 228.36485937499674,
      "v": 64
    },
    {
      "midi": 53,
      "hit": false,
      "t": 235380.06759895993,
      "d": 332.5312864583393,
      "v": 64
    },
    {
      "midi": 29,
      "hit": false,
      "t": 235380.06759895993,
      "d": 1510.4131927083654,
      "v": 64
    },
    {
      "midi": 41,
      "hit": false,
      "t": 235636.4772656266,
      "d": 1254.0035260416917,
      "v": 64
    },
    {
      "midi": 41,
      "hit": false,
      "t": 235636.4772656266,
      "d": 1254.0035260416917,
      "v": 64
    },
    {
      "midi": 53,
      "hit": false,
      "t": 235764.68209895995,
      "d": 484.77452604167047,
      "v": 64
    },
    {
      "midi": 57,
      "hit": false,
      "t": 235764.68209895995,
      "d": 484.77452604167047,
      "v": 64
    },
    {
      "midi": 60,
      "hit": false,
      "t": 235764.68209895995,
      "d": 484.77452604167047,
      "v": 64
    },
    {
      "midi": 53,
      "hit": false,
      "t": 235764.68209895995,
      "d": 484.77452604167047,
      "v": 64
    },
    {
      "midi": 57,
      "hit": false,
      "t": 235764.68209895995,
      "d": 484.77452604167047,
      "v": 64
    },
    {
      "midi": 60,
      "hit": false,
      "t": 235764.68209895995,
      "d": 484.77452604167047,
      "v": 64
    },
    {
      "midi": 53,
      "hit": false,
      "t": 236405.70626562662,
      "d": 484.77452604167047,
      "v": 64
    },
    {
      "midi": 57,
      "hit": false,
      "t": 236405.70626562662,
      "d": 484.77452604167047,
      "v": 64
    },
    {
      "midi": 62,
      "hit": false,
      "t": 236405.70626562662,
      "d": 484.77452604167047,
      "v": 64
    },
    {
      "midi": 53,
      "hit": false,
      "t": 236405.70626562662,
      "d": 484.77452604167047,
      "v": 64
    },
    {
      "midi": 57,
      "hit": false,
      "t": 236405.70626562662,
      "d": 484.77452604167047,
      "v": 64
    },
    {
      "midi": 62,
      "hit": false,
      "t": 236405.70626562662,
      "d": 484.77452604167047,
      "v": 64
    },
    {
      "midi": 31,
      "hit": false,
      "t": 236790.32076562662,
      "d": 128.20483333335142,
      "v": 64
    },
    {
      "midi": 31,
      "hit": false,
      "t": 236790.32076562662,
      "d": 128.20483333335142,
      "v": 64
    },
    {
      "midi": 36,
      "hit": false,
      "t": 236918.52559895997,
      "d": 1510.4131927083363,
      "v": 64
    },
    {
      "midi": 48,
      "hit": false,
      "t": 236918.52559895997,
      "d": 1510.4131927083363,
      "v": 64
    },
    {
      "midi": 60,
      "hit": false,
      "t": 236918.52559895997,
      "d": 1510.4131927083363,
      "v": 64
    },
    {
      "midi": 64,
      "hit": false,
      "t": 236918.52559895997,
      "d": 1870.9892864583526,
      "v": 64
    },
    {
      "midi": 55,
      "hit": false,
      "t": 236918.52559895997,
      "d": 1895.0276927083614,
      "v": 64
    },
    {
      "midi": 36,
      "hit": false,
      "t": 236918.52559895997,
      "d": 1510.4131927083363,
      "v": 64
    },
    {
      "midi": 48,
      "hit": false,
      "t": 236918.52559895997,
      "d": 1510.4131927083363,
      "v": 64
    },
    {
      "midi": 60,
      "hit": false,
      "t": 236918.52559895997,
      "d": 1510.4131927083363,
      "v": 64
    },
    {
      "midi": 64,
      "hit": false,
      "t": 236918.52559895997,
      "d": 1870.9892864583526,
      "v": 64
    },
    {
      "midi": 55,
      "hit": false,
      "t": 236918.52559895997,
      "d": 1895.0276927083614,
      "v": 64
    },
    {
      "midi": 60,
      "hit": false,
      "t": 238456.98359895998,
      "d": 356.56969270834816,
      "v": 64
    },
    {
      "midi": 36,
      "hit": false,
      "t": 238456.98359895998,
      "d": 1410.253166666691,
      "v": 64
    },
    {
      "midi": 48,
      "hit": false,
      "t": 238456.98359895998,
      "d": 1510.4131927083654,
      "v": 64
    },
    {
      "midi": 60,
      "hit": false,
      "t": 238456.98359895998,
      "d": 356.56969270834816,
      "v": 64
    },
    {
      "midi": 36,
      "hit": false,
      "t": 238456.98359895998,
      "d": 1410.253166666691,
      "v": 64
    },
    {
      "midi": 48,
      "hit": false,
      "t": 238456.98359895998,
      "d": 1510.4131927083654,
      "v": 64
    },
    {
      "midi": 55,
      "hit": false,
      "t": 238841.59809896,
      "d": 588.940953125013,
      "v": 64
    },
    {
      "midi": 60,
      "hit": false,
      "t": 238841.59809896,
      "d": 641.0241666666698,
      "v": 64
    },
    {
      "midi": 64,
      "hit": false,
      "t": 238841.59809896,
      "d": 641.0241666666698,
      "v": 64
    },
    {
      "midi": 55,
      "hit": false,
      "t": 238841.59809896,
      "d": 588.940953125013,
      "v": 64
    },
    {
      "midi": 60,
      "hit": false,
      "t": 238841.59809896,
      "d": 641.0241666666698,
      "v": 64
    },
    {
      "midi": 64,
      "hit": false,
      "t": 238841.59809896,
      "d": 641.0241666666698,
      "v": 64
    },
    {
      "midi": 55,
      "hit": false,
      "t": 239482.62226562668,
      "d": 384.61449999999604,
      "v": 64
    },
    {
      "midi": 62,
      "hit": false,
      "t": 239482.62226562668,
      "d": 384.61449999999604,
      "v": 64
    },
    {
      "midi": 65,
      "hit": false,
      "t": 239482.62226562668,
      "d": 384.61449999999604,
      "v": 64
    },
    {
      "midi": 55,
      "hit": false,
      "t": 239482.62226562668,
      "d": 384.61449999999604,
      "v": 64
    },
    {
      "midi": 62,
      "hit": false,
      "t": 239482.62226562668,
      "d": 384.61449999999604,
      "v": 64
    },
    {
      "midi": 65,
      "hit": false,
      "t": 239482.62226562668,
      "d": 384.61449999999604,
      "v": 64
    },
    {
      "midi": 26,
      "hit": false,
      "t": 239803.13434896,
      "d": 192.30725000001257,
      "v": 64
    },
    {
      "midi": 26,
      "hit": false,
      "t": 239803.13434896,
      "d": 192.30725000001257,
      "v": 64
    },
    {
      "midi": 31,
      "hit": false,
      "t": 239995.44159896002,
      "d": 1382.208359375014,
      "v": 64
    },
    {
      "midi": 43,
      "hit": false,
      "t": 239995.44159896002,
      "d": 1510.4131927083654,
      "v": 64
    },
    {
      "midi": 55,
      "hit": false,
      "t": 239995.44159896002,
      "d": 1870.9892864583817,
      "v": 64
    },
    {
      "midi": 59,
      "hit": false,
      "t": 239995.44159896002,
      "d": 1870.9892864583817,
      "v": 64
    },
    {
      "midi": 62,
      "hit": false,
      "t": 239995.44159896002,
      "d": 1895.0276927083905,
      "v": 64
    },
    {
      "midi": 31,
      "hit": false,
      "t": 239995.44159896002,
      "d": 1382.208359375014,
      "v": 64
    },
    {
      "midi": 43,
      "hit": false,
      "t": 239995.44159896002,
      "d": 1510.4131927083654,
      "v": 64
    },
    {
      "midi": 55,
      "hit": false,
      "t": 239995.44159896002,
      "d": 1870.9892864583817,
      "v": 64
    },
    {
      "midi": 59,
      "hit": false,
      "t": 239995.44159896002,
      "d": 1870.9892864583817,
      "v": 64
    },
    {
      "midi": 62,
      "hit": false,
      "t": 239995.44159896002,
      "d": 1895.0276927083905,
      "v": 64
    },
    {
      "midi": 31,
      "hit": false,
      "t": 241405.69476562671,
      "d": 100.16002604167443,
      "v": 64
    },
    {
      "midi": 31,
      "hit": false,
      "t": 241405.69476562671,
      "d": 100.16002604167443,
      "v": 64
    },
    {
      "midi": 31,
      "hit": false,
      "t": 241533.89959896007,
      "d": 1282.0483333333686,
      "v": 64
    },
    {
      "midi": 43,
      "hit": false,
      "t": 241533.89959896007,
      "d": 1510.4131927083363,
      "v": 64
    },
    {
      "midi": 31,
      "hit": false,
      "t": 241533.89959896007,
      "d": 1282.0483333333686,
      "v": 64
    },
    {
      "midi": 43,
      "hit": false,
      "t": 241533.89959896007,
      "d": 1510.4131927083363,
      "v": 64
    },
    {
      "midi": 55,
      "hit": false,
      "t": 241918.5140989601,
      "d": 588.940953125013,
      "v": 64
    },
    {
      "midi": 59,
      "hit": false,
      "t": 241918.5140989601,
      "d": 641.0241666666698,
      "v": 64
    },
    {
      "midi": 62,
      "hit": false,
      "t": 241918.5140989601,
      "d": 665.0625729166786,
      "v": 64
    },
    {
      "midi": 55,
      "hit": false,
      "t": 241918.5140989601,
      "d": 588.940953125013,
      "v": 64
    },
    {
      "midi": 59,
      "hit": false,
      "t": 241918.5140989601,
      "d": 641.0241666666698,
      "v": 64
    },
    {
      "midi": 62,
      "hit": false,
      "t": 241918.5140989601,
      "d": 665.0625729166786,
      "v": 64
    },
    {
      "midi": 55,
      "hit": false,
      "t": 242559.53826562676,
      "d": 432.69131249998463,
      "v": 64
    },
    {
      "midi": 60,
      "hit": false,
      "t": 242559.53826562676,
      "d": 432.69131249998463,
      "v": 64
    },
    {
      "midi": 64,
      "hit": false,
      "t": 242559.53826562676,
      "d": 432.69131249998463,
      "v": 64
    },
    {
      "midi": 55,
      "hit": false,
      "t": 242559.53826562676,
      "d": 432.69131249998463,
      "v": 64
    },
    {
      "midi": 60,
      "hit": false,
      "t": 242559.53826562676,
      "d": 432.69131249998463,
      "v": 64
    },
    {
      "midi": 64,
      "hit": false,
      "t": 242559.53826562676,
      "d": 432.69131249998463,
      "v": 64
    },
    {
      "midi": 26,
      "hit": false,
      "t": 242944.15276562676,
      "d": 152.24323958333116,
      "v": 64
    },
    {
      "midi": 26,
      "hit": false,
      "t": 242944.15276562676,
      "d": 152.24323958333116,
      "v": 64
    },
    {
      "midi": 29,
      "hit": false,
      "t": 243072.35759896008,
      "d": 1510.4131927083363,
      "v": 64
    },
    {
      "midi": 41,
      "hit": false,
      "t": 243072.35759896008,
      "d": 1510.4131927083363,
      "v": 64
    },
    {
      "midi": 65,
      "hit": false,
      "t": 243072.35759896008,
      "d": 1842.9444791666756,
      "v": 64
    },
    {
      "midi": 60,
      "hit": false,
      "t": 243072.35759896008,
      "d": 1895.0276927083323,
      "v": 64
    },
    {
      "midi": 57,
      "hit": false,
      "t": 243072.35759896008,
      "d": 1999.194119791675,
      "v": 64
    },
    {
      "midi": 53,
      "hit": false,
      "t": 243072.35759896008,
      "d": 2023.2325260416837,
      "v": 64
    },
    {
      "midi": 29,
      "hit": false,
      "t": 243072.35759896008,
      "d": 1510.4131927083363,
      "v": 64
    },
    {
      "midi": 41,
      "hit": false,
      "t": 243072.35759896008,
      "d": 1510.4131927083363,
      "v": 64
    },
    {
      "midi": 65,
      "hit": false,
      "t": 243072.35759896008,
      "d": 1842.9444791666756,
      "v": 64
    },
    {
      "midi": 60,
      "hit": false,
      "t": 243072.35759896008,
      "d": 1895.0276927083323,
      "v": 64
    },
    {
      "midi": 57,
      "hit": false,
      "t": 243072.35759896008,
      "d": 1999.194119791675,
      "v": 64
    },
    {
      "midi": 53,
      "hit": false,
      "t": 243072.35759896008,
      "d": 2023.2325260416837,
      "v": 64
    },
    {
      "midi": 29,
      "hit": false,
      "t": 244606.80919791842,
      "d": 1410.253166666691,
      "v": 64
    },
    {
      "midi": 41,
      "hit": false,
      "t": 244606.80919791842,
      "d": 1514.4195937500335,
      "v": 64
    },
    {
      "midi": 29,
      "hit": false,
      "t": 244606.80919791842,
      "d": 1410.253166666691,
      "v": 64
    },
    {
      "midi": 41,
      "hit": false,
      "t": 244606.80919791842,
      "d": 1514.4195937500335,
      "v": 64
    },
    {
      "midi": 55,
      "hit": false,
      "t": 244991.42369791842,
      "d": 592.9473541666812,
      "v": 64
    },
    {
      "midi": 60,
      "hit": false,
      "t": 244991.42369791842,
      "d": 592.9473541666812,
      "v": 64
    },
    {
      "midi": 65,
      "hit": false,
      "t": 244991.42369791842,
      "d": 592.9473541666812,
      "v": 64
    },
    {
      "midi": 55,
      "hit": false,
      "t": 244991.42369791842,
      "d": 592.9473541666812,
      "v": 64
    },
    {
      "midi": 60,
      "hit": false,
      "t": 244991.42369791842,
      "d": 592.9473541666812,
      "v": 64
    },
    {
      "midi": 65,
      "hit": false,
      "t": 244991.42369791842,
      "d": 592.9473541666812,
      "v": 64
    },
    {
      "midi": 53,
      "hit": false,
      "t": 245119.62853125177,
      "d": 464.74252083332976,
      "v": 64
    },
    {
      "midi": 53,
      "hit": false,
      "t": 245119.62853125177,
      "d": 464.74252083332976,
      "v": 64
    },
    {
      "midi": 55,
      "hit": false,
      "t": 245632.4478645851,
      "d": 336.53768750000745,
      "v": 64
    },
    {
      "midi": 53,
      "hit": false,
      "t": 245632.4478645851,
      "d": 360.5760937500163,
      "v": 64
    },
    {
      "midi": 65,
      "hit": false,
      "t": 245632.4478645851,
      "d": 360.5760937500163,
      "v": 64
    },
    {
      "midi": 60,
      "hit": false,
      "t": 245632.4478645851,
      "d": 412.65930729170213,
      "v": 64
    },
    {
      "midi": 55,
      "hit": false,
      "t": 245632.4478645851,
      "d": 336.53768750000745,
      "v": 64
    },
    {
      "midi": 53,
      "hit": false,
      "t": 245632.4478645851,
      "d": 360.5760937500163,
      "v": 64
    },
    {
      "midi": 65,
      "hit": false,
      "t": 245632.4478645851,
      "d": 360.5760937500163,
      "v": 64
    },
    {
      "midi": 60,
      "hit": false,
      "t": 245632.4478645851,
      "d": 412.65930729170213,
      "v": 64
    },
    {
      "midi": 26,
      "hit": false,
      "t": 246017.06236458512,
      "d": 128.20483333335142,
      "v": 64
    },
    {
      "midi": 26,
      "hit": false,
      "t": 246017.06236458512,
      "d": 128.20483333335142,
      "v": 64
    },
    {
      "midi": 55,
      "hit": false,
      "t": 246145.26719791847,
      "d": 128.2048333333223,
      "v": 64
    },
    {
      "midi": 29,
      "hit": false,
      "t": 246145.26719791847,
      "d": 1514.4195937499753,
      "v": 64
    },
    {
      "midi": 41,
      "hit": false,
      "t": 246145.26719791847,
      "d": 1514.4195937499753,
      "v": 64
    },
    {
      "midi": 53,
      "hit": false,
      "t": 246145.26719791847,
      "d": 1514.4195937499753,
      "v": 64
    },
    {
      "midi": 60,
      "hit": false,
      "t": 246145.26719791847,
      "d": 1899.0340937500005,
      "v": 64
    },
    {
      "midi": 65,
      "hit": false,
      "t": 246145.26719791847,
      "d": 3052.8775937500177,
      "v": 64
    },
    {
      "midi": 55,
      "hit": false,
      "t": 246145.26719791847,
      "d": 128.2048333333223,
      "v": 64
    },
    {
      "midi": 29,
      "hit": false,
      "t": 246145.26719791847,
      "d": 1514.4195937499753,
      "v": 64
    },
    {
      "midi": 41,
      "hit": false,
      "t": 246145.26719791847,
      "d": 1514.4195937499753,
      "v": 64
    },
    {
      "midi": 53,
      "hit": false,
      "t": 246145.26719791847,
      "d": 1514.4195937499753,
      "v": 64
    },
    {
      "midi": 60,
      "hit": false,
      "t": 246145.26719791847,
      "d": 1899.0340937500005,
      "v": 64
    },
    {
      "midi": 65,
      "hit": false,
      "t": 246145.26719791847,
      "d": 3052.8775937500177,
      "v": 64
    },
    {
      "midi": 57,
      "hit": false,
      "t": 246273.4720312518,
      "d": 1746.7908541666693,
      "v": 64
    },
    {
      "midi": 57,
      "hit": false,
      "t": 246273.4720312518,
      "d": 1746.7908541666693,
      "v": 64
    },
    {
      "midi": 41,
      "hit": false,
      "t": 247683.72519791845,
      "d": 232.37126041666488,
      "v": 64
    },
    {
      "midi": 53,
      "hit": false,
      "t": 247683.72519791845,
      "d": 336.53768750000745,
      "v": 64
    },
    {
      "midi": 29,
      "hit": false,
      "t": 247683.72519791845,
      "d": 1514.4195937500335,
      "v": 64
    },
    {
      "midi": 41,
      "hit": false,
      "t": 247683.72519791845,
      "d": 232.37126041666488,
      "v": 64
    },
    {
      "midi": 53,
      "hit": false,
      "t": 247683.72519791845,
      "d": 336.53768750000745,
      "v": 64
    },
    {
      "midi": 29,
      "hit": false,
      "t": 247683.72519791845,
      "d": 1514.4195937500335,
      "v": 64
    },
    {
      "midi": 41,
      "hit": false,
      "t": 247940.13486458512,
      "d": 1258.0099270833598,
      "v": 64
    },
    {
      "midi": 41,
      "hit": false,
      "t": 247940.13486458512,
      "d": 1258.0099270833598,
      "v": 64
    },
    {
      "midi": 53,
      "hit": false,
      "t": 248068.33969791848,
      "d": 488.7809270833386,
      "v": 64
    },
    {
      "midi": 57,
      "hit": false,
      "t": 248068.33969791848,
      "d": 488.7809270833386,
      "v": 64
    },
    {
      "midi": 60,
      "hit": false,
      "t": 248068.33969791848,
      "d": 488.7809270833386,
      "v": 64
    },
    {
      "midi": 53,
      "hit": false,
      "t": 248068.33969791848,
      "d": 488.7809270833386,
      "v": 64
    },
    {
      "midi": 57,
      "hit": false,
      "t": 248068.33969791848,
      "d": 488.7809270833386,
      "v": 64
    },
    {
      "midi": 60,
      "hit": false,
      "t": 248068.33969791848,
      "d": 488.7809270833386,
      "v": 64
    },
    {
      "midi": 53,
      "hit": false,
      "t": 248709.36386458515,
      "d": 488.7809270833386,
      "v": 64
    },
    {
      "midi": 57,
      "hit": false,
      "t": 248709.36386458515,
      "d": 488.7809270833386,
      "v": 64
    },
    {
      "midi": 62,
      "hit": false,
      "t": 248709.36386458515,
      "d": 488.7809270833386,
      "v": 64
    },
    {
      "midi": 53,
      "hit": false,
      "t": 248709.36386458515,
      "d": 488.7809270833386,
      "v": 64
    },
    {
      "midi": 57,
      "hit": false,
      "t": 248709.36386458515,
      "d": 488.7809270833386,
      "v": 64
    },
    {
      "midi": 62,
      "hit": false,
      "t": 248709.36386458515,
      "d": 488.7809270833386,
      "v": 64
    },
    {
      "midi": 31,
      "hit": false,
      "t": 249093.97836458514,
      "d": 128.20483333335142,
      "v": 64
    },
    {
      "midi": 31,
      "hit": false,
      "t": 249093.97836458514,
      "d": 128.20483333335142,
      "v": 64
    },
    {
      "midi": 36,
      "hit": false,
      "t": 249222.1831979185,
      "d": 1514.4195937500044,
      "v": 64
    },
    {
      "midi": 48,
      "hit": false,
      "t": 249222.1831979185,
      "d": 1514.4195937500044,
      "v": 64
    },
    {
      "midi": 60,
      "hit": false,
      "t": 249222.1831979185,
      "d": 1514.4195937500044,
      "v": 64
    },
    {
      "midi": 64,
      "hit": false,
      "t": 249222.1831979185,
      "d": 1874.9956875000207,
      "v": 64
    },
    {
      "midi": 55,
      "hit": false,
      "t": 249222.1831979185,
      "d": 1899.0340937500296,
      "v": 64
    },
    {
      "midi": 36,
      "hit": false,
      "t": 249222.1831979185,
      "d": 1514.4195937500044,
      "v": 64
    },
    {
      "midi": 48,
      "hit": false,
      "t": 249222.1831979185,
      "d": 1514.4195937500044,
      "v": 64
    },
    {
      "midi": 60,
      "hit": false,
      "t": 249222.1831979185,
      "d": 1514.4195937500044,
      "v": 64
    },
    {
      "midi": 64,
      "hit": false,
      "t": 249222.1831979185,
      "d": 1874.9956875000207,
      "v": 64
    },
    {
      "midi": 55,
      "hit": false,
      "t": 249222.1831979185,
      "d": 1899.0340937500296,
      "v": 64
    },
    {
      "midi": 60,
      "hit": false,
      "t": 250760.6411979185,
      "d": 360.5760937500163,
      "v": 64
    },
    {
      "midi": 36,
      "hit": false,
      "t": 250760.6411979185,
      "d": 1410.2531666666619,
      "v": 64
    },
    {
      "midi": 48,
      "hit": false,
      "t": 250760.6411979185,
      "d": 1514.4195937500044,
      "v": 64
    },
    {
      "midi": 60,
      "hit": false,
      "t": 250760.6411979185,
      "d": 360.5760937500163,
      "v": 64
    },
    {
      "midi": 36,
      "hit": false,
      "t": 250760.6411979185,
      "d": 1410.2531666666619,
      "v": 64
    },
    {
      "midi": 48,
      "hit": false,
      "t": 250760.6411979185,
      "d": 1514.4195937500044,
      "v": 64
    },
    {
      "midi": 55,
      "hit": false,
      "t": 251145.25569791853,
      "d": 592.9473541666521,
      "v": 64
    },
    {
      "midi": 60,
      "hit": false,
      "t": 251145.25569791853,
      "d": 641.0241666666407,
      "v": 64
    },
    {
      "midi": 64,
      "hit": false,
      "t": 251145.25569791853,
      "d": 641.0241666666407,
      "v": 64
    },
    {
      "midi": 55,
      "hit": false,
      "t": 251145.25569791853,
      "d": 592.9473541666521,
      "v": 64
    },
    {
      "midi": 60,
      "hit": false,
      "t": 251145.25569791853,
      "d": 641.0241666666407,
      "v": 64
    },
    {
      "midi": 64,
      "hit": false,
      "t": 251145.25569791853,
      "d": 641.0241666666407,
      "v": 64
    },
    {
      "midi": 55,
      "hit": false,
      "t": 251786.27986458517,
      "d": 384.61449999999604,
      "v": 64
    },
    {
      "midi": 62,
      "hit": false,
      "t": 251786.27986458517,
      "d": 384.61449999999604,
      "v": 64
    },
    {
      "midi": 65,
      "hit": false,
      "t": 251786.27986458517,
      "d": 384.61449999999604,
      "v": 64
    },
    {
      "midi": 55,
      "hit": false,
      "t": 251786.27986458517,
      "d": 384.61449999999604,
      "v": 64
    },
    {
      "midi": 62,
      "hit": false,
      "t": 251786.27986458517,
      "d": 384.61449999999604,
      "v": 64
    },
    {
      "midi": 65,
      "hit": false,
      "t": 251786.27986458517,
      "d": 384.61449999999604,
      "v": 64
    },
    {
      "midi": 26,
      "hit": false,
      "t": 252106.7919479185,
      "d": 192.30725000001257,
      "v": 64
    },
    {
      "midi": 26,
      "hit": false,
      "t": 252106.7919479185,
      "d": 192.30725000001257,
      "v": 64
    },
    {
      "midi": 31,
      "hit": false,
      "t": 252299.09919791852,
      "d": 1386.214760416653,
      "v": 64
    },
    {
      "midi": 43,
      "hit": false,
      "t": 252299.09919791852,
      "d": 1514.4195937500044,
      "v": 64
    },
    {
      "midi": 55,
      "hit": false,
      "t": 252299.09919791852,
      "d": 1874.9956875000207,
      "v": 64
    },
    {
      "midi": 59,
      "hit": false,
      "t": 252299.09919791852,
      "d": 1874.9956875000207,
      "v": 64
    },
    {
      "midi": 62,
      "hit": false,
      "t": 252299.09919791852,
      "d": 1899.0340937500296,
      "v": 64
    },
    {
      "midi": 31,
      "hit": false,
      "t": 252299.09919791852,
      "d": 1386.214760416653,
      "v": 64
    },
    {
      "midi": 43,
      "hit": false,
      "t": 252299.09919791852,
      "d": 1514.4195937500044,
      "v": 64
    },
    {
      "midi": 55,
      "hit": false,
      "t": 252299.09919791852,
      "d": 1874.9956875000207,
      "v": 64
    },
    {
      "midi": 59,
      "hit": false,
      "t": 252299.09919791852,
      "d": 1874.9956875000207,
      "v": 64
    },
    {
      "midi": 62,
      "hit": false,
      "t": 252299.09919791852,
      "d": 1899.0340937500296,
      "v": 64
    },
    {
      "midi": 31,
      "hit": false,
      "t": 253709.35236458518,
      "d": 104.16642708334257,
      "v": 64
    },
    {
      "midi": 31,
      "hit": false,
      "t": 253709.35236458518,
      "d": 104.16642708334257,
      "v": 64
    },
    {
      "midi": 31,
      "hit": false,
      "t": 253837.55719791853,
      "d": 1282.0483333333395,
      "v": 64
    },
    {
      "midi": 43,
      "hit": false,
      "t": 253837.55719791853,
      "d": 1514.4195937499753,
      "v": 64
    },
    {
      "midi": 31,
      "hit": false,
      "t": 253837.55719791853,
      "d": 1282.0483333333395,
      "v": 64
    },
    {
      "midi": 43,
      "hit": false,
      "t": 253837.55719791853,
      "d": 1514.4195937499753,
      "v": 64
    },
    {
      "midi": 55,
      "hit": false,
      "t": 254222.17169791856,
      "d": 592.9473541666521,
      "v": 64
    },
    {
      "midi": 59,
      "hit": false,
      "t": 254222.17169791856,
      "d": 641.0241666666407,
      "v": 64
    },
    {
      "midi": 62,
      "hit": false,
      "t": 254222.17169791856,
      "d": 669.0689739583177,
      "v": 64
    },
    {
      "midi": 55,
      "hit": false,
      "t": 254222.17169791856,
      "d": 592.9473541666521,
      "v": 64
    },
    {
      "midi": 59,
      "hit": false,
      "t": 254222.17169791856,
      "d": 641.0241666666407,
      "v": 64
    },
    {
      "midi": 62,
      "hit": false,
      "t": 254222.17169791856,
      "d": 669.0689739583177,
      "v": 64
    },
    {
      "midi": 55,
      "hit": false,
      "t": 254863.1958645852,
      "d": 436.6977135416528,
      "v": 64
    },
    {
      "midi": 60,
      "hit": false,
      "t": 254863.1958645852,
      "d": 436.6977135416528,
      "v": 64
    },
    {
      "midi": 64,
      "hit": false,
      "t": 254863.1958645852,
      "d": 436.6977135416528,
      "v": 64
    },
    {
      "midi": 55,
      "hit": false,
      "t": 254863.1958645852,
      "d": 436.6977135416528,
      "v": 64
    },
    {
      "midi": 60,
      "hit": false,
      "t": 254863.1958645852,
      "d": 436.6977135416528,
      "v": 64
    },
    {
      "midi": 64,
      "hit": false,
      "t": 254863.1958645852,
      "d": 436.6977135416528,
      "v": 64
    },
    {
      "midi": 26,
      "hit": false,
      "t": 255247.8103645852,
      "d": 156.2496406249993,
      "v": 64
    },
    {
      "midi": 26,
      "hit": false,
      "t": 255247.8103645852,
      "d": 156.2496406249993,
      "v": 64
    },
    {
      "midi": 29,
      "hit": false,
      "t": 255376.01519791852,
      "d": 1514.4195937500044,
      "v": 64
    },
    {
      "midi": 41,
      "hit": false,
      "t": 255376.01519791852,
      "d": 1514.4195937500044,
      "v": 64
    },
    {
      "midi": 65,
      "hit": false,
      "t": 255376.01519791852,
      "d": 1846.9508802083437,
      "v": 64
    },
    {
      "midi": 60,
      "hit": false,
      "t": 255376.01519791852,
      "d": 1899.0340937500005,
      "v": 64
    },
    {
      "midi": 57,
      "hit": false,
      "t": 255376.01519791852,
      "d": 1999.194119791675,
      "v": 64
    },
    {
      "midi": 53,
      "hit": false,
      "t": 255376.01519791852,
      "d": 2027.2389270833519,
      "v": 64
    },
    {
      "midi": 29,
      "hit": false,
      "t": 255376.01519791852,
      "d": 1514.4195937500044,
      "v": 64
    },
    {
      "midi": 41,
      "hit": false,
      "t": 255376.01519791852,
      "d": 1514.4195937500044,
      "v": 64
    },
    {
      "midi": 65,
      "hit": false,
      "t": 255376.01519791852,
      "d": 1846.9508802083437,
      "v": 64
    },
    {
      "midi": 60,
      "hit": false,
      "t": 255376.01519791852,
      "d": 1899.0340937500005,
      "v": 64
    },
    {
      "midi": 57,
      "hit": false,
      "t": 255376.01519791852,
      "d": 1999.194119791675,
      "v": 64
    },
    {
      "midi": 53,
      "hit": false,
      "t": 255376.01519791852,
      "d": 2027.2389270833519,
      "v": 64
    },
    {
      "midi": 29,
      "hit": false,
      "t": 256914.47319791853,
      "d": 1410.253166666691,
      "v": 64
    },
    {
      "midi": 41,
      "hit": false,
      "t": 256914.47319791853,
      "d": 1514.4195937500335,
      "v": 64
    },
    {
      "midi": 29,
      "hit": false,
      "t": 256914.47319791853,
      "d": 1410.253166666691,
      "v": 64
    },
    {
      "midi": 41,
      "hit": false,
      "t": 256914.47319791853,
      "d": 1514.4195937500335,
      "v": 64
    },
    {
      "midi": 55,
      "hit": false,
      "t": 257299.08769791853,
      "d": 588.940953125013,
      "v": 64
    },
    {
      "midi": 60,
      "hit": false,
      "t": 257299.08769791853,
      "d": 588.940953125013,
      "v": 64
    },
    {
      "midi": 65,
      "hit": false,
      "t": 257299.08769791853,
      "d": 588.940953125013,
      "v": 64
    },
    {
      "midi": 55,
      "hit": false,
      "t": 257299.08769791853,
      "d": 588.940953125013,
      "v": 64
    },
    {
      "midi": 60,
      "hit": false,
      "t": 257299.08769791853,
      "d": 588.940953125013,
      "v": 64
    },
    {
      "midi": 65,
      "hit": false,
      "t": 257299.08769791853,
      "d": 588.940953125013,
      "v": 64
    },
    {
      "midi": 53,
      "hit": false,
      "t": 257427.29253125188,
      "d": 460.7361197916616,
      "v": 64
    },
    {
      "midi": 53,
      "hit": false,
      "t": 257427.29253125188,
      "d": 460.7361197916616,
      "v": 64
    },
    {
      "midi": 55,
      "hit": false,
      "t": 257940.1118645852,
      "d": 332.5312864583393,
      "v": 64
    },
    {
      "midi": 53,
      "hit": false,
      "t": 257940.1118645852,
      "d": 360.5760937500163,
      "v": 64
    },
    {
      "midi": 65,
      "hit": false,
      "t": 257940.1118645852,
      "d": 360.5760937500163,
      "v": 64
    },
    {
      "midi": 60,
      "hit": false,
      "t": 257940.1118645852,
      "d": 412.65930729170213,
      "v": 64
    },
    {
      "midi": 55,
      "hit": false,
      "t": 257940.1118645852,
      "d": 332.5312864583393,
      "v": 64
    },
    {
      "midi": 53,
      "hit": false,
      "t": 257940.1118645852,
      "d": 360.5760937500163,
      "v": 64
    },
    {
      "midi": 65,
      "hit": false,
      "t": 257940.1118645852,
      "d": 360.5760937500163,
      "v": 64
    },
    {
      "midi": 60,
      "hit": false,
      "t": 257940.1118645852,
      "d": 412.65930729170213,
      "v": 64
    },
    {
      "midi": 26,
      "hit": false,
      "t": 258324.72636458522,
      "d": 128.20483333335142,
      "v": 64
    },
    {
      "midi": 26,
      "hit": false,
      "t": 258324.72636458522,
      "d": 128.20483333335142,
      "v": 64
    },
    {
      "midi": 55,
      "hit": false,
      "t": 258452.93119791857,
      "d": 128.2048333333223,
      "v": 64
    },
    {
      "midi": 29,
      "hit": false,
      "t": 258452.93119791857,
      "d": 1514.4195937499753,
      "v": 64
    },
    {
      "midi": 41,
      "hit": false,
      "t": 258452.93119791857,
      "d": 1514.4195937499753,
      "v": 64
    },
    {
      "midi": 53,
      "hit": false,
      "t": 258452.93119791857,
      "d": 1514.4195937499753,
      "v": 64
    },
    {
      "midi": 60,
      "hit": false,
      "t": 258452.93119791857,
      "d": 1899.0340937500005,
      "v": 64
    },
    {
      "midi": 65,
      "hit": false,
      "t": 258452.93119791857,
      "d": 3052.8775937500177,
      "v": 64
    },
    {
      "midi": 55,
      "hit": false,
      "t": 258452.93119791857,
      "d": 128.2048333333223,
      "v": 64
    },
    {
      "midi": 29,
      "hit": false,
      "t": 258452.93119791857,
      "d": 1514.4195937499753,
      "v": 64
    },
    {
      "midi": 41,
      "hit": false,
      "t": 258452.93119791857,
      "d": 1514.4195937499753,
      "v": 64
    },
    {
      "midi": 53,
      "hit": false,
      "t": 258452.93119791857,
      "d": 1514.4195937499753,
      "v": 64
    },
    {
      "midi": 60,
      "hit": false,
      "t": 258452.93119791857,
      "d": 1899.0340937500005,
      "v": 64
    },
    {
      "midi": 65,
      "hit": false,
      "t": 258452.93119791857,
      "d": 3052.8775937500177,
      "v": 64
    },
    {
      "midi": 57,
      "hit": false,
      "t": 258581.1360312519,
      "d": 1742.7844531250012,
      "v": 64
    },
    {
      "midi": 57,
      "hit": false,
      "t": 258581.1360312519,
      "d": 1742.7844531250012,
      "v": 64
    },
    {
      "midi": 41,
      "hit": false,
      "t": 259991.38919791856,
      "d": 232.37126041666488,
      "v": 64
    },
    {
      "midi": 53,
      "hit": false,
      "t": 259991.38919791856,
      "d": 332.5312864583393,
      "v": 64
    },
    {
      "midi": 29,
      "hit": false,
      "t": 259991.38919791856,
      "d": 1514.4195937500335,
      "v": 64
    },
    {
      "midi": 41,
      "hit": false,
      "t": 259991.38919791856,
      "d": 232.37126041666488,
      "v": 64
    },
    {
      "midi": 53,
      "hit": false,
      "t": 259991.38919791856,
      "d": 332.5312864583393,
      "v": 64
    },
    {
      "midi": 29,
      "hit": false,
      "t": 259991.38919791856,
      "d": 1514.4195937500335,
      "v": 64
    },
    {
      "midi": 41,
      "hit": false,
      "t": 260247.79886458523,
      "d": 1258.0099270833598,
      "v": 64
    },
    {
      "midi": 41,
      "hit": false,
      "t": 260247.79886458523,
      "d": 1258.0099270833598,
      "v": 64
    },
    {
      "midi": 53,
      "hit": false,
      "t": 260376.00369791858,
      "d": 488.7809270833386,
      "v": 64
    },
    {
      "midi": 57,
      "hit": false,
      "t": 260376.00369791858,
      "d": 488.7809270833386,
      "v": 64
    },
    {
      "midi": 60,
      "hit": false,
      "t": 260376.00369791858,
      "d": 488.7809270833386,
      "v": 64
    },
    {
      "midi": 53,
      "hit": false,
      "t": 260376.00369791858,
      "d": 488.7809270833386,
      "v": 64
    },
    {
      "midi": 57,
      "hit": false,
      "t": 260376.00369791858,
      "d": 488.7809270833386,
      "v": 64
    },
    {
      "midi": 60,
      "hit": false,
      "t": 260376.00369791858,
      "d": 488.7809270833386,
      "v": 64
    },
    {
      "midi": 53,
      "hit": false,
      "t": 261017.02786458525,
      "d": 488.7809270833386,
      "v": 64
    },
    {
      "midi": 57,
      "hit": false,
      "t": 261017.02786458525,
      "d": 488.7809270833386,
      "v": 64
    },
    {
      "midi": 62,
      "hit": false,
      "t": 261017.02786458525,
      "d": 488.7809270833386,
      "v": 64
    },
    {
      "midi": 53,
      "hit": false,
      "t": 261017.02786458525,
      "d": 488.7809270833386,
      "v": 64
    },
    {
      "midi": 57,
      "hit": false,
      "t": 261017.02786458525,
      "d": 488.7809270833386,
      "v": 64
    },
    {
      "midi": 62,
      "hit": false,
      "t": 261017.02786458525,
      "d": 488.7809270833386,
      "v": 64
    },
    {
      "midi": 31,
      "hit": false,
      "t": 261401.64236458525,
      "d": 128.20483333335142,
      "v": 64
    },
    {
      "midi": 31,
      "hit": false,
      "t": 261401.64236458525,
      "d": 128.20483333335142,
      "v": 64
    },
    {
      "midi": 36,
      "hit": false,
      "t": 261529.8471979186,
      "d": 1514.4195937500044,
      "v": 64
    },
    {
      "midi": 48,
      "hit": false,
      "t": 261529.8471979186,
      "d": 1514.4195937500044,
      "v": 64
    },
    {
      "midi": 60,
      "hit": false,
      "t": 261529.8471979186,
      "d": 1514.4195937500044,
      "v": 64
    },
    {
      "midi": 64,
      "hit": false,
      "t": 261529.8471979186,
      "d": 1870.9892864583235,
      "v": 64
    },
    {
      "midi": 55,
      "hit": false,
      "t": 261529.8471979186,
      "d": 1899.0340937499714,
      "v": 64
    },
    {
      "midi": 36,
      "hit": false,
      "t": 261529.8471979186,
      "d": 1514.4195937500044,
      "v": 64
    },
    {
      "midi": 48,
      "hit": false,
      "t": 261529.8471979186,
      "d": 1514.4195937500044,
      "v": 64
    },
    {
      "midi": 60,
      "hit": false,
      "t": 261529.8471979186,
      "d": 1514.4195937500044,
      "v": 64
    },
    {
      "midi": 64,
      "hit": false,
      "t": 261529.8471979186,
      "d": 1870.9892864583235,
      "v": 64
    },
    {
      "midi": 55,
      "hit": false,
      "t": 261529.8471979186,
      "d": 1899.0340937499714,
      "v": 64
    },
    {
      "midi": 60,
      "hit": false,
      "t": 263068.3051979186,
      "d": 360.5760937499581,
      "v": 64
    },
    {
      "midi": 36,
      "hit": false,
      "t": 263068.3051979186,
      "d": 1410.2531666666619,
      "v": 64
    },
    {
      "midi": 48,
      "hit": false,
      "t": 263068.3051979186,
      "d": 1514.4195937499753,
      "v": 64
    },
    {
      "midi": 60,
      "hit": false,
      "t": 263068.3051979186,
      "d": 360.5760937499581,
      "v": 64
    },
    {
      "midi": 36,
      "hit": false,
      "t": 263068.3051979186,
      "d": 1410.2531666666619,
      "v": 64
    },
    {
      "midi": 48,
      "hit": false,
      "t": 263068.3051979186,
      "d": 1514.4195937499753,
      "v": 64
    },
    {
      "midi": 55,
      "hit": false,
      "t": 263452.9196979186,
      "d": 588.940953125013,
      "v": 64
    },
    {
      "midi": 60,
      "hit": false,
      "t": 263452.9196979186,
      "d": 641.0241666666698,
      "v": 64
    },
    {
      "midi": 64,
      "hit": false,
      "t": 263452.9196979186,
      "d": 641.0241666666698,
      "v": 64
    },
    {
      "midi": 55,
      "hit": false,
      "t": 263452.9196979186,
      "d": 588.940953125013,
      "v": 64
    },
    {
      "midi": 60,
      "hit": false,
      "t": 263452.9196979186,
      "d": 641.0241666666698,
      "v": 64
    },
    {
      "midi": 64,
      "hit": false,
      "t": 263452.9196979186,
      "d": 641.0241666666698,
      "v": 64
    },
    {
      "midi": 55,
      "hit": false,
      "t": 264093.94386458525,
      "d": 384.61450000002515,
      "v": 64
    },
    {
      "midi": 62,
      "hit": false,
      "t": 264093.94386458525,
      "d": 384.61450000002515,
      "v": 64
    },
    {
      "midi": 65,
      "hit": false,
      "t": 264093.94386458525,
      "d": 384.61450000002515,
      "v": 64
    },
    {
      "midi": 55,
      "hit": false,
      "t": 264093.94386458525,
      "d": 384.61450000002515,
      "v": 64
    },
    {
      "midi": 62,
      "hit": false,
      "t": 264093.94386458525,
      "d": 384.61450000002515,
      "v": 64
    },
    {
      "midi": 65,
      "hit": false,
      "t": 264093.94386458525,
      "d": 384.61450000002515,
      "v": 64
    },
    {
      "midi": 26,
      "hit": false,
      "t": 264414.4559479186,
      "d": 192.30725000001257,
      "v": 64
    },
    {
      "midi": 26,
      "hit": false,
      "t": 264414.4559479186,
      "d": 192.30725000001257,
      "v": 64
    },
    {
      "midi": 31,
      "hit": false,
      "t": 264606.7631979186,
      "d": 1386.214760416653,
      "v": 64
    },
    {
      "midi": 43,
      "hit": false,
      "t": 264606.7631979186,
      "d": 1514.4195937499753,
      "v": 64
    },
    {
      "midi": 55,
      "hit": false,
      "t": 264606.7631979186,
      "d": 1870.9892864582944,
      "v": 64
    },
    {
      "midi": 59,
      "hit": false,
      "t": 264606.7631979186,
      "d": 1870.9892864582944,
      "v": 64
    },
    {
      "midi": 62,
      "hit": false,
      "t": 264606.7631979186,
      "d": 1899.0340937499423,
      "v": 64
    },
    {
      "midi": 31,
      "hit": false,
      "t": 264606.7631979186,
      "d": 1386.214760416653,
      "v": 64
    },
    {
      "midi": 43,
      "hit": false,
      "t": 264606.7631979186,
      "d": 1514.4195937499753,
      "v": 64
    },
    {
      "midi": 55,
      "hit": false,
      "t": 264606.7631979186,
      "d": 1870.9892864582944,
      "v": 64
    },
    {
      "midi": 59,
      "hit": false,
      "t": 264606.7631979186,
      "d": 1870.9892864582944,
      "v": 64
    },
    {
      "midi": 62,
      "hit": false,
      "t": 264606.7631979186,
      "d": 1899.0340937499423,
      "v": 64
    },
    {
      "midi": 31,
      "hit": false,
      "t": 266017.01636458526,
      "d": 104.16642708331347,
      "v": 64
    },
    {
      "midi": 31,
      "hit": false,
      "t": 266017.01636458526,
      "d": 104.16642708331347,
      "v": 64
    },
    {
      "midi": 31,
      "hit": false,
      "t": 266145.2211979186,
      "d": 1282.0483333332813,
      "v": 64
    },
    {
      "midi": 43,
      "hit": false,
      "t": 266145.2211979186,
      "d": 1514.419593749917,
      "v": 64
    },
    {
      "midi": 31,
      "hit": false,
      "t": 266145.2211979186,
      "d": 1282.0483333332813,
      "v": 64
    },
    {
      "midi": 43,
      "hit": false,
      "t": 266145.2211979186,
      "d": 1514.419593749917,
      "v": 64
    },
    {
      "midi": 55,
      "hit": false,
      "t": 266529.83569791855,
      "d": 588.940953125013,
      "v": 64
    },
    {
      "midi": 59,
      "hit": false,
      "t": 266529.83569791855,
      "d": 641.0241666666698,
      "v": 64
    },
    {
      "midi": 62,
      "hit": false,
      "t": 266529.83569791855,
      "d": 669.0689739583177,
      "v": 64
    },
    {
      "midi": 55,
      "hit": false,
      "t": 266529.83569791855,
      "d": 588.940953125013,
      "v": 64
    },
    {
      "midi": 59,
      "hit": false,
      "t": 266529.83569791855,
      "d": 641.0241666666698,
      "v": 64
    },
    {
      "midi": 62,
      "hit": false,
      "t": 266529.83569791855,
      "d": 669.0689739583177,
      "v": 64
    },
    {
      "midi": 55,
      "hit": false,
      "t": 267170.8598645852,
      "d": 436.69771354162367,
      "v": 64
    },
    {
      "midi": 60,
      "hit": false,
      "t": 267170.8598645852,
      "d": 436.69771354162367,
      "v": 64
    },
    {
      "midi": 64,
      "hit": false,
      "t": 267170.8598645852,
      "d": 436.69771354162367,
      "v": 64
    },
    {
      "midi": 55,
      "hit": false,
      "t": 267170.8598645852,
      "d": 436.69771354162367,
      "v": 64
    },
    {
      "midi": 60,
      "hit": false,
      "t": 267170.8598645852,
      "d": 436.69771354162367,
      "v": 64
    },
    {
      "midi": 64,
      "hit": false,
      "t": 267170.8598645852,
      "d": 436.69771354162367,
      "v": 64
    },
    {
      "midi": 26,
      "hit": false,
      "t": 267555.4743645852,
      "d": 156.2496406249702,
      "v": 64
    },
    {
      "midi": 26,
      "hit": false,
      "t": 267555.4743645852,
      "d": 156.2496406249702,
      "v": 64
    },
    {
      "midi": 58,
      "hit": false,
      "t": 267683.6791979185,
      "d": 436.69771354162367,
      "v": 64
    },
    {
      "midi": 62,
      "hit": false,
      "t": 267683.6791979185,
      "d": 436.69771354162367,
      "v": 64
    },
    {
      "midi": 65,
      "hit": false,
      "t": 267683.6791979185,
      "d": 436.69771354162367,
      "v": 64
    },
    {
      "midi": 46,
      "hit": false,
      "t": 267683.6791979185,
      "d": 745.1905937499832,
      "v": 64
    },
    {
      "midi": 58,
      "hit": false,
      "t": 267683.6791979185,
      "d": 436.69771354162367,
      "v": 64
    },
    {
      "midi": 62,
      "hit": false,
      "t": 267683.6791979185,
      "d": 436.69771354162367,
      "v": 64
    },
    {
      "midi": 65,
      "hit": false,
      "t": 267683.6791979185,
      "d": 436.69771354162367,
      "v": 64
    },
    {
      "midi": 46,
      "hit": false,
      "t": 267683.6791979185,
      "d": 745.1905937499832,
      "v": 64
    },
    {
      "midi": 58,
      "hit": false,
      "t": 268452.9081979185,
      "d": 436.6977135416819,
      "v": 64
    },
    {
      "midi": 62,
      "hit": false,
      "t": 268452.9081979185,
      "d": 436.6977135416819,
      "v": 64
    },
    {
      "midi": 64,
      "hit": false,
      "t": 268452.9081979185,
      "d": 436.6977135416819,
      "v": 64
    },
    {
      "midi": 65,
      "hit": false,
      "t": 268452.9081979185,
      "d": 436.6977135416819,
      "v": 64
    },
    {
      "midi": 46,
      "hit": false,
      "t": 268452.9081979185,
      "d": 745.1905937500414,
      "v": 64
    },
    {
      "midi": 58,
      "hit": false,
      "t": 268452.9081979185,
      "d": 436.6977135416819,
      "v": 64
    },
    {
      "midi": 62,
      "hit": false,
      "t": 268452.9081979185,
      "d": 436.6977135416819,
      "v": 64
    },
    {
      "midi": 64,
      "hit": false,
      "t": 268452.9081979185,
      "d": 436.6977135416819,
      "v": 64
    },
    {
      "midi": 65,
      "hit": false,
      "t": 268452.9081979185,
      "d": 436.6977135416819,
      "v": 64
    },
    {
      "midi": 46,
      "hit": false,
      "t": 268452.9081979185,
      "d": 745.1905937500414,
      "v": 64
    },
    {
      "midi": 58,
      "hit": false,
      "t": 269222.13719791855,
      "d": 436.6977135416819,
      "v": 64
    },
    {
      "midi": 62,
      "hit": false,
      "t": 269222.13719791855,
      "d": 436.6977135416819,
      "v": 64
    },
    {
      "midi": 65,
      "hit": false,
      "t": 269222.13719791855,
      "d": 436.6977135416819,
      "v": 64
    },
    {
      "midi": 46,
      "hit": false,
      "t": 269222.13719791855,
      "d": 745.1905937500414,
      "v": 64
    },
    {
      "midi": 58,
      "hit": false,
      "t": 269222.13719791855,
      "d": 436.6977135416819,
      "v": 64
    },
    {
      "midi": 62,
      "hit": false,
      "t": 269222.13719791855,
      "d": 436.6977135416819,
      "v": 64
    },
    {
      "midi": 65,
      "hit": false,
      "t": 269222.13719791855,
      "d": 436.6977135416819,
      "v": 64
    },
    {
      "midi": 46,
      "hit": false,
      "t": 269222.13719791855,
      "d": 745.1905937500414,
      "v": 64
    },
    {
      "midi": 58,
      "hit": false,
      "t": 269991.3661979186,
      "d": 436.6977135416819,
      "v": 64
    },
    {
      "midi": 62,
      "hit": false,
      "t": 269991.3661979186,
      "d": 436.6977135416819,
      "v": 64
    },
    {
      "midi": 65,
      "hit": false,
      "t": 269991.3661979186,
      "d": 436.6977135416819,
      "v": 64
    },
    {
      "midi": 70,
      "hit": false,
      "t": 269991.3661979186,
      "d": 436.6977135416819,
      "v": 64
    },
    {
      "midi": 46,
      "hit": false,
      "t": 269991.3661979186,
      "d": 745.1905937500414,
      "v": 64
    },
    {
      "midi": 58,
      "hit": false,
      "t": 269991.3661979186,
      "d": 436.6977135416819,
      "v": 64
    },
    {
      "midi": 62,
      "hit": false,
      "t": 269991.3661979186,
      "d": 436.6977135416819,
      "v": 64
    },
    {
      "midi": 65,
      "hit": false,
      "t": 269991.3661979186,
      "d": 436.6977135416819,
      "v": 64
    },
    {
      "midi": 70,
      "hit": false,
      "t": 269991.3661979186,
      "d": 436.6977135416819,
      "v": 64
    },
    {
      "midi": 46,
      "hit": false,
      "t": 269991.3661979186,
      "d": 745.1905937500414,
      "v": 64
    },
    {
      "midi": 41,
      "hit": false,
      "t": 270760.59519791865,
      "d": 2179.482166666654,
      "v": 64
    },
    {
      "midi": 57,
      "hit": false,
      "t": 270760.59519791865,
      "d": 3052.8775937499595,
      "v": 64
    },
    {
      "midi": 60,
      "hit": false,
      "t": 270760.59519791865,
      "d": 3052.8775937499595,
      "v": 64
    },
    {
      "midi": 65,
      "hit": false,
      "t": 270760.59519791865,
      "d": 3052.8775937499595,
      "v": 64
    },
    {
      "midi": 69,
      "hit": false,
      "t": 270760.59519791865,
      "d": 3052.8775937499595,
      "v": 64
    },
    {
      "midi": 41,
      "hit": false,
      "t": 270760.59519791865,
      "d": 2179.482166666654,
      "v": 64
    },
    {
      "midi": 57,
      "hit": false,
      "t": 270760.59519791865,
      "d": 3052.8775937499595,
      "v": 64
    },
    {
      "midi": 60,
      "hit": false,
      "t": 270760.59519791865,
      "d": 3052.8775937499595,
      "v": 64
    },
    {
      "midi": 65,
      "hit": false,
      "t": 270760.59519791865,
      "d": 3052.8775937499595,
      "v": 64
    },
    {
      "midi": 69,
      "hit": false,
      "t": 270760.59519791865,
      "d": 3052.8775937499595,
      "v": 64
    }
  ]
}