{
  "jsonPath": "Unknown/Unknown/Care Factor/impatient-eyes.json",
  "path": "Unknown\\Unknown\\Care Factor\\Impatient Eyes.mid",
  "name": "Impatient Eyes",
  "difficulty": "Advanced",
  "bpm": 56.00358422939068,
  "notes": [
    {
      "midi": 57,
      "hit": false,
      "t": 4095.0600000000004,
      "d": 31.26000000000022,
      "v": 118
    },
    {
      "midi": 57,
      "hit": false,
      "t": 5355.880000000001,
      "d": 291.7600000000002,
      "v": 120
    },
    {
      "midi": 59,
      "hit": false,
      "t": 5678.9000000000015,
      "d": 302.1800000000003,
      "v": 106
    },
    {
      "midi": 52,
      "hit": false,
      "t": 6022.760000000002,
      "d": 1948.5400000000009,
      "v": 81
    },
    {
      "midi": 57,
      "hit": false,
      "t": 6033.180000000002,
      "d": 1292.08,
      "v": 104
    },
    {
      "midi": 60,
      "hit": false,
      "t": 6033.180000000002,
      "d": 1292.08,
      "v": 112
    },
    {
      "midi": 57,
      "hit": false,
      "t": 7346.100000000002,
      "d": 302.1800000000003,
      "v": 73
    },
    {
      "midi": 59,
      "hit": false,
      "t": 7689.960000000003,
      "d": 291.7600000000002,
      "v": 89
    },
    {
      "midi": 57,
      "hit": false,
      "t": 8023.400000000003,
      "d": 1292.08,
      "v": 111
    },
    {
      "midi": 60,
      "hit": false,
      "t": 8023.400000000003,
      "d": 1292.08,
      "v": 123
    },
    {
      "midi": 52,
      "hit": false,
      "t": 8023.400000000003,
      "d": 1948.5400000000009,
      "v": 89
    },
    {
      "midi": 57,
      "hit": false,
      "t": 9357.160000000003,
      "d": 291.7600000000002,
      "v": 83
    },
    {
      "midi": 59,
      "hit": false,
      "t": 9680.180000000004,
      "d": 302.1800000000003,
      "v": 77
    },
    {
      "midi": 55,
      "hit": false,
      "t": 10013.620000000004,
      "d": 635.6200000000008,
      "v": 107
    },
    {
      "midi": 60,
      "hit": false,
      "t": 10024.040000000005,
      "d": 625.2000000000007,
      "v": 117
    },
    {
      "midi": 50,
      "hit": false,
      "t": 10024.040000000005,
      "d": 1292.0800000000017,
      "v": 84
    },
    {
      "midi": 55,
      "hit": false,
      "t": 10680.500000000005,
      "d": 635.6200000000008,
      "v": 117
    },
    {
      "midi": 62,
      "hit": false,
      "t": 10680.500000000005,
      "d": 646.0400000000009,
      "v": 94
    },
    {
      "midi": 55,
      "hit": false,
      "t": 11347.380000000006,
      "d": 635.6200000000008,
      "v": 103
    },
    {
      "midi": 60,
      "hit": false,
      "t": 11347.380000000006,
      "d": 646.0400000000009,
      "v": 112
    },
    {
      "midi": 64,
      "hit": false,
      "t": 11357.800000000007,
      "d": 635.6200000000008,
      "v": 104
    },
    {
      "midi": 62,
      "hit": false,
      "t": 12035.100000000008,
      "d": 1281.6599999999999,
      "v": 120
    },
    {
      "midi": 50,
      "hit": false,
      "t": 12035.100000000008,
      "d": 1292.08,
      "v": 82
    },
    {
      "midi": 57,
      "hit": false,
      "t": 12035.100000000008,
      "d": 1292.08,
      "v": 117
    },
    {
      "midi": 53,
      "hit": false,
      "t": 12045.520000000008,
      "d": 1281.6599999999999,
      "v": 99
    },
    {
      "midi": 65,
      "hit": false,
      "t": 12045.520000000008,
      "d": 1281.6599999999999,
      "v": 96
    },
    {
      "midi": 57,
      "hit": false,
      "t": 13358.440000000008,
      "d": 625.2000000000007,
      "v": 63
    },
    {
      "midi": 62,
      "hit": false,
      "t": 13368.860000000008,
      "d": 281.34000000000015,
      "v": 66
    },
    {
      "midi": 64,
      "hit": false,
      "t": 13681.460000000008,
      "d": 312.60000000000036,
      "v": 86
    },
    {
      "midi": 48,
      "hit": false,
      "t": 14035.740000000009,
      "d": 1292.08,
      "v": 84
    },
    {
      "midi": 53,
      "hit": false,
      "t": 14035.740000000009,
      "d": 1292.08,
      "v": 82
    },
    {
      "midi": 62,
      "hit": false,
      "t": 14035.740000000009,
      "d": 1302.5,
      "v": 104
    },
    {
      "midi": 65,
      "hit": false,
      "t": 14035.740000000009,
      "d": 1302.5,
      "v": 99
    },
    {
      "midi": 62,
      "hit": false,
      "t": 15348.660000000009,
      "d": 302.1800000000003,
      "v": 81
    },
    {
      "midi": 57,
      "hit": false,
      "t": 15348.660000000009,
      "d": 468.90000000000146,
      "v": 90
    },
    {
      "midi": 64,
      "hit": false,
      "t": 15692.52000000001,
      "d": 323.02000000000226,
      "v": 89
    },
    {
      "midi": 53,
      "hit": false,
      "t": 15859.24000000001,
      "d": 1886.0200000000023,
      "v": 74
    },
    {
      "midi": 57,
      "hit": false,
      "t": 15932.180000000011,
      "d": 1813.0800000000017,
      "v": 73
    },
    {
      "midi": 62,
      "hit": false,
      "t": 16025.960000000012,
      "d": 1719.300000000001,
      "v": 72
    },
    {
      "midi": 65,
      "hit": false,
      "t": 16036.380000000012,
      "d": 625.2000000000007,
      "v": 107
    },
    {
      "midi": 47,
      "hit": false,
      "t": 16036.380000000012,
      "d": 1708.880000000001,
      "v": 82
    },
    {
      "midi": 64,
      "hit": false,
      "t": 16682.420000000013,
      "d": 635.619999999999,
      "v": 89
    },
    {
      "midi": 65,
      "hit": false,
      "t": 17359.720000000012,
      "d": 614.7799999999988,
      "v": 109
    },
    {
      "midi": 50,
      "hit": false,
      "t": 17766.100000000013,
      "d": 2250.7199999999975,
      "v": 72
    },
    {
      "midi": 52,
      "hit": false,
      "t": 17776.52000000001,
      "d": 2240.2999999999993,
      "v": 72
    },
    {
      "midi": 56,
      "hit": false,
      "t": 17859.880000000012,
      "d": 2125.6800000000003,
      "v": 75
    },
    {
      "midi": 64,
      "hit": false,
      "t": 17974.50000000001,
      "d": 2011.0600000000013,
      "v": 90
    },
    {
      "midi": 60,
      "hit": false,
      "t": 20068.92,
      "d": 1979.7999999999993,
      "v": 90
    },
    {
      "midi": 45,
      "hit": false,
      "t": 20068.92,
      "d": 1990.2199999999975,
      "v": 74
    },
    {
      "midi": 57,
      "hit": false,
      "t": 20068.92,
      "d": 1990.2199999999975,
      "v": 92
    },
    {
      "midi": 65,
      "hit": false,
      "t": 22673.919999999995,
      "d": 698.1399999999994,
      "v": 95
    },
    {
      "midi": 69,
      "hit": false,
      "t": 22673.919999999995,
      "d": 1281.6599999999999,
      "v": 70
    },
    {
      "midi": 62,
      "hit": false,
      "t": 22673.919999999995,
      "d": 1292.079999999998,
      "v": 90
    },
    {
      "midi": 74,
      "hit": false,
      "t": 23361.639999999996,
      "d": 604.359999999997,
      "v": 88
    },
    {
      "midi": 65,
      "hit": false,
      "t": 23372.059999999994,
      "d": 583.5200000000004,
      "v": 80
    },
    {
      "midi": 62,
      "hit": false,
      "t": 23997.25999999999,
      "d": 1646.359999999997,
      "v": 86
    },
    {
      "midi": 65,
      "hit": false,
      "t": 24028.51999999999,
      "d": 1615.0999999999985,
      "v": 87
    },
    {
      "midi": 69,
      "hit": false,
      "t": 24028.51999999999,
      "d": 1615.0999999999985,
      "v": 69
    },
    {
      "midi": 62,
      "hit": false,
      "t": 25695.719999999987,
      "d": 281.34000000000015,
      "v": 44
    },
    {
      "midi": 69,
      "hit": false,
      "t": 25997.899999999987,
      "d": 1948.5399999999972,
      "v": 82
    },
    {
      "midi": 74,
      "hit": false,
      "t": 26018.739999999987,
      "d": 1927.699999999997,
      "v": 68
    },
    {
      "midi": 65,
      "hit": false,
      "t": 26029.159999999985,
      "d": 1917.2799999999988,
      "v": 84
    },
    {
      "midi": 65,
      "hit": false,
      "t": 28029.799999999985,
      "d": 31.2599999999984,
      "v": 90
    },
    {
      "midi": 57,
      "hit": false,
      "t": 28040.219999999983,
      "d": 20.840000000000146,
      "v": 72
    },
    {
      "midi": 62,
      "hit": false,
      "t": 28040.219999999983,
      "d": 20.840000000000146,
      "v": 84
    },
    {
      "midi": 71,
      "hit": false,
      "t": 30040.85999999998,
      "d": 1938.119999999999,
      "v": 79
    },
    {
      "midi": 68,
      "hit": false,
      "t": 30040.85999999998,
      "d": 1948.5399999999972,
      "v": 92
    },
    {
      "midi": 74,
      "hit": false,
      "t": 30040.85999999998,
      "d": 1948.5399999999972,
      "v": 84
    },
    {
      "midi": 64,
      "hit": false,
      "t": 32031.079999999976,
      "d": 1917.2799999999952,
      "v": 96
    },
    {
      "midi": 68,
      "hit": false,
      "t": 32031.079999999976,
      "d": 1917.2799999999952,
      "v": 86
    },
    {
      "midi": 62,
      "hit": false,
      "t": 32041.499999999975,
      "d": 1906.859999999997,
      "v": 72
    },
    {
      "midi": 71,
      "hit": false,
      "t": 34042.13999999997,
      "d": 31.25999999999476,
      "v": 81
    },
    {
      "midi": 62,
      "hit": false,
      "t": 34052.55999999997,
      "d": 20.839999999996508,
      "v": 82
    },
    {
      "midi": 68,
      "hit": false,
      "t": 34052.55999999997,
      "d": 20.839999999996508,
      "v": 81
    },
    {
      "midi": 76,
      "hit": false,
      "t": 34698.59999999996,
      "d": 1260.8199999999997,
      "v": 75
    },
    {
      "midi": 69,
      "hit": false,
      "t": 34709.01999999996,
      "d": 1250.4000000000015,
      "v": 60
    },
    {
      "midi": 72,
      "hit": false,
      "t": 34709.01999999996,
      "d": 1250.4000000000015,
      "v": 65
    },
    {
      "midi": 60,
      "hit": false,
      "t": 36063.61999999996,
      "d": 1958.9599999999991,
      "v": 90
    },
    {
      "midi": 57,
      "hit": false,
      "t": 36074.03999999996,
      "d": 1948.5400000000009,
      "v": 92
    },
    {
      "midi": 52,
      "hit": false,
      "t": 36074.03999999996,
      "d": 1958.9599999999991,
      "v": 74
    },
    {
      "midi": 62,
      "hit": false,
      "t": 38668.61999999996,
      "d": 354.27999999999884,
      "v": 90
    },
    {
      "midi": 69,
      "hit": false,
      "t": 38668.61999999996,
      "d": 354.27999999999884,
      "v": 70
    },
    {
      "midi": 65,
      "hit": false,
      "t": 38668.61999999996,
      "d": 364.6999999999971,
      "v": 95
    },
    {
      "midi": 69,
      "hit": false,
      "t": 39366.75999999996,
      "d": 593.939999999995,
      "v": 88
    },
    {
      "midi": 60,
      "hit": false,
      "t": 39377.17999999996,
      "d": 583.5199999999968,
      "v": 80
    },
    {
      "midi": 57,
      "hit": false,
      "t": 40002.379999999954,
      "d": 20.839999999996508,
      "v": 86
    },
    {
      "midi": 69,
      "hit": false,
      "t": 40033.63999999995,
      "d": 1615.0999999999985,
      "v": 69
    },
    {
      "midi": 65,
      "hit": false,
      "t": 40033.63999999995,
      "d": 1625.5199999999968,
      "v": 87
    },
    {
      "midi": 62,
      "hit": false,
      "t": 41700.839999999946,
      "d": 281.3399999999965,
      "v": 44
    },
    {
      "midi": 69,
      "hit": false,
      "t": 42003.01999999994,
      "d": 1958.9599999999919,
      "v": 82
    },
    {
      "midi": 74,
      "hit": false,
      "t": 42023.859999999935,
      "d": 1938.1199999999953,
      "v": 68
    },
    {
      "midi": 65,
      "hit": false,
      "t": 42034.27999999993,
      "d": 1938.1199999999953,
      "v": 84
    },
    {
      "midi": 64,
      "hit": false,
      "t": 44034.91999999993,
      "d": 1917.2799999999988,
      "v": 84
    },
    {
      "midi": 68,
      "hit": false,
      "t": 44045.33999999993,
      "d": 1906.8600000000006,
      "v": 82
    },
    {
      "midi": 62,
      "hit": false,
      "t": 44045.33999999993,
      "d": 1917.2799999999988,
      "v": 71
    },
    {
      "midi": 71,
      "hit": false,
      "t": 46045.97999999993,
      "d": 1938.1200000000026,
      "v": 79
    },
    {
      "midi": 68,
      "hit": false,
      "t": 46045.97999999993,
      "d": 1948.5400000000009,
      "v": 92
    },
    {
      "midi": 74,
      "hit": false,
      "t": 46045.97999999993,
      "d": 1948.5400000000009,
      "v": 84
    },
    {
      "midi": 64,
      "hit": false,
      "t": 48036.19999999993,
      "d": 1917.2799999999988,
      "v": 96
    },
    {
      "midi": 68,
      "hit": false,
      "t": 48036.19999999993,
      "d": 1917.2799999999988,
      "v": 86
    },
    {
      "midi": 62,
      "hit": false,
      "t": 48046.61999999993,
      "d": 1917.2799999999988,
      "v": 72
    },
    {
      "midi": 71,
      "hit": false,
      "t": 50026.419999999925,
      "d": 41.68000000000029,
      "v": 81
    },
    {
      "midi": 62,
      "hit": false,
      "t": 50036.839999999924,
      "d": 31.260000000002037,
      "v": 82
    },
    {
      "midi": 68,
      "hit": false,
      "t": 50036.839999999924,
      "d": 31.260000000002037,
      "v": 81
    },
    {
      "midi": 76,
      "hit": false,
      "t": 50703.71999999992,
      "d": 291.75999999999476,
      "v": 75
    },
    {
      "midi": 69,
      "hit": false,
      "t": 50714.13999999992,
      "d": 270.91999999999825,
      "v": 60
    },
    {
      "midi": 72,
      "hit": false,
      "t": 50714.13999999992,
      "d": 281.3399999999965,
      "v": 65
    },
    {
      "midi": 60,
      "hit": false,
      "t": 51058,
      "d": 31.25999999999476,
      "v": 114
    },
    {
      "midi": 57,
      "hit": false,
      "t": 51058,
      "d": 52.09999999999127,
      "v": 109
    },
    {
      "midi": 69,
      "hit": false,
      "t": 51058,
      "d": 62.51999999998952,
      "v": 100
    },
    {
      "midi": 64,
      "hit": false,
      "t": 51068.42,
      "d": 20.839999999996508,
      "v": 114
    },
    {
      "midi": 60,
      "hit": false,
      "t": 51370.59999999999,
      "d": 62.5199999999968,
      "v": 80
    },
    {
      "midi": 64,
      "hit": false,
      "t": 51370.59999999999,
      "d": 62.5199999999968,
      "v": 79
    },
    {
      "midi": 57,
      "hit": false,
      "t": 51370.59999999999,
      "d": 72.93999999999505,
      "v": 81
    },
    {
      "midi": 69,
      "hit": false,
      "t": 51370.59999999999,
      "d": 72.93999999999505,
      "v": 79
    },
    {
      "midi": 60,
      "hit": false,
      "t": 51704.039999999986,
      "d": 31.25999999999476,
      "v": 76
    },
    {
      "midi": 57,
      "hit": false,
      "t": 51714.459999999985,
      "d": 31.25999999999476,
      "v": 75
    },
    {
      "midi": 64,
      "hit": false,
      "t": 51714.459999999985,
      "d": 31.25999999999476,
      "v": 70
    },
    {
      "midi": 69,
      "hit": false,
      "t": 51714.459999999985,
      "d": 31.25999999999476,
      "v": 70
    },
    {
      "midi": 57,
      "hit": false,
      "t": 52079.15999999991,
      "d": 1948.5400000000009,
      "v": 92
    },
    {
      "midi": 60,
      "hit": false,
      "t": 52079.15999999991,
      "d": 1948.5400000000009,
      "v": 90
    },
    {
      "midi": 45,
      "hit": false,
      "t": 52079.15999999991,
      "d": 1958.9599999999991,
      "v": 74
    },
    {
      "midi": 65,
      "hit": false,
      "t": 54673.73999999991,
      "d": 708.5599999999977,
      "v": 95
    },
    {
      "midi": 69,
      "hit": false,
      "t": 54673.73999999991,
      "d": 1281.6599999999962,
      "v": 70
    },
    {
      "midi": 62,
      "hit": false,
      "t": 54673.73999999991,
      "d": 1292.0799999999945,
      "v": 90
    },
    {
      "midi": 74,
      "hit": false,
      "t": 55371.87999999991,
      "d": 583.5199999999968,
      "v": 88
    },
    {
      "midi": 65,
      "hit": false,
      "t": 55382.29999999991,
      "d": 573.0999999999985,
      "v": 80
    },
    {
      "midi": 62,
      "hit": false,
      "t": 56007.499999999905,
      "d": 1646.3600000000006,
      "v": 86
    },
    {
      "midi": 65,
      "hit": false,
      "t": 56038.75999999991,
      "d": 1615.0999999999985,
      "v": 87
    },
    {
      "midi": 69,
      "hit": false,
      "t": 56038.75999999991,
      "d": 1615.0999999999985,
      "v": 69
    },
    {
      "midi": 62,
      "hit": false,
      "t": 57705.959999999905,
      "d": 281.3399999999965,
      "v": 44
    },
    {
      "midi": 69,
      "hit": false,
      "t": 58008.1399999999,
      "d": 1948.5400000000009,
      "v": 82
    },
    {
      "midi": 65,
      "hit": false,
      "t": 58049.8199999999,
      "d": 1906.8600000000006,
      "v": 84
    },
    {
      "midi": 74,
      "hit": false,
      "t": 58049.8199999999,
      "d": 1906.8600000000006,
      "v": 68
    },
    {
      "midi": 62,
      "hit": false,
      "t": 60050.4599999999,
      "d": 1906.8600000000006,
      "v": 71
    },
    {
      "midi": 67,
      "hit": false,
      "t": 60050.4599999999,
      "d": 1906.8600000000006,
      "v": 84
    },
    {
      "midi": 71,
      "hit": false,
      "t": 60050.4599999999,
      "d": 1906.8600000000006,
      "v": 82
    },
    {
      "midi": 74,
      "hit": false,
      "t": 62051.0999999999,
      "d": 1948.5400000000009,
      "v": 79
    },
    {
      "midi": 71,
      "hit": false,
      "t": 62051.0999999999,
      "d": 1958.9599999999991,
      "v": 92
    },
    {
      "midi": 77,
      "hit": false,
      "t": 62061.519999999895,
      "d": 1948.5400000000009,
      "v": 84
    },
    {
      "midi": 67,
      "hit": false,
      "t": 64041.3199999999,
      "d": 1000.3199999999997,
      "v": 96
    },
    {
      "midi": 71,
      "hit": false,
      "t": 64041.3199999999,
      "d": 1000.3199999999997,
      "v": 86
    },
    {
      "midi": 65,
      "hit": false,
      "t": 64051.739999999896,
      "d": 1000.3199999999997,
      "v": 72
    },
    {
      "midi": 60,
      "hit": false,
      "t": 66052.3799999999,
      "d": 656.4600000000064,
      "v": 82
    },
    {
      "midi": 64,
      "hit": false,
      "t": 66052.3799999999,
      "d": 656.4600000000064,
      "v": 81
    },
    {
      "midi": 67,
      "hit": false,
      "t": 66052.3799999999,
      "d": 656.4600000000064,
      "v": 81
    },
    {
      "midi": 60,
      "hit": false,
      "t": 66750.51999999997,
      "d": 20.839999999996508,
      "v": 83
    },
    {
      "midi": 67,
      "hit": false,
      "t": 66750.51999999997,
      "d": 20.839999999996508,
      "v": 81
    },
    {
      "midi": 72,
      "hit": false,
      "t": 66750.51999999997,
      "d": 20.839999999996508,
      "v": 80
    },
    {
      "midi": 64,
      "hit": false,
      "t": 66760.93999999997,
      "d": 10.419999999998254,
      "v": 85
    },
    {
      "midi": 74,
      "hit": false,
      "t": 67031.85999999997,
      "d": 93.77999999999884,
      "v": 100
    },
    {
      "midi": 68,
      "hit": false,
      "t": 67042.27999999997,
      "d": 52.10000000000582,
      "v": 114
    },
    {
      "midi": 71,
      "hit": false,
      "t": 67042.27999999997,
      "d": 52.10000000000582,
      "v": 114
    },
    {
      "midi": 64,
      "hit": false,
      "t": 67042.27999999997,
      "d": 72.94000000000233,
      "v": 109
    },
    {
      "midi": 68,
      "hit": false,
      "t": 67375.71999999997,
      "d": 52.10000000000582,
      "v": 80
    },
    {
      "midi": 71,
      "hit": false,
      "t": 67375.71999999997,
      "d": 52.10000000000582,
      "v": 79
    },
    {
      "midi": 64,
      "hit": false,
      "t": 67375.71999999997,
      "d": 72.94000000000233,
      "v": 81
    },
    {
      "midi": 74,
      "hit": false,
      "t": 67375.71999999997,
      "d": 72.94000000000233,
      "v": 79
    },
    {
      "midi": 68,
      "hit": false,
      "t": 67698.73999999998,
      "d": 41.679999999993015,
      "v": 76
    },
    {
      "midi": 64,
      "hit": false,
      "t": 67709.15999999997,
      "d": 41.679999999993015,
      "v": 75
    },
    {
      "midi": 71,
      "hit": false,
      "t": 67709.15999999997,
      "d": 41.679999999993015,
      "v": 70
    },
    {
      "midi": 74,
      "hit": false,
      "t": 67709.15999999997,
      "d": 41.679999999993015,
      "v": 70
    },
    {
      "midi": 45,
      "hit": false,
      "t": 68084.2799999999,
      "d": 197.97999999999593,
      "v": 74
    },
    {
      "midi": 57,
      "hit": false,
      "t": 68084.2799999999,
      "d": 197.97999999999593,
      "v": 92
    },
    {
      "midi": 60,
      "hit": false,
      "t": 68084.2799999999,
      "d": 197.97999999999593,
      "v": 90
    },
    {
      "midi": 55,
      "hit": false,
      "t": 70053.65999999989,
      "d": 1437.9600000000064,
      "v": 84
    },
    {
      "midi": 61,
      "hit": false,
      "t": 70053.65999999989,
      "d": 1437.9600000000064,
      "v": 92
    },
    {
      "midi": 64,
      "hit": false,
      "t": 70053.65999999989,
      "d": 1437.9600000000064,
      "v": 79
    },
    {
      "midi": 57,
      "hit": false,
      "t": 72043.87999999989,
      "d": 1917.2799999999988,
      "v": 96
    },
    {
      "midi": 61,
      "hit": false,
      "t": 72043.87999999989,
      "d": 1917.2799999999988,
      "v": 86
    },
    {
      "midi": 55,
      "hit": false,
      "t": 72054.29999999989,
      "d": 1917.2799999999988,
      "v": 72
    },
    {
      "midi": 65,
      "hit": false,
      "t": 74054.93999999989,
      "d": 1906.8600000000006,
      "v": 84
    },
    {
      "midi": 74,
      "hit": false,
      "t": 74054.93999999989,
      "d": 1906.8600000000006,
      "v": 68
    },
    {
      "midi": 67,
      "hit": false,
      "t": 76065.99999999988,
      "d": 969.0599999999977,
      "v": 84
    },
    {
      "midi": 71,
      "hit": false,
      "t": 76065.99999999988,
      "d": 969.0599999999977,
      "v": 82
    },
    {
      "midi": 62,
      "hit": false,
      "t": 76065.99999999988,
      "d": 979.4799999999959,
      "v": 71
    },
    {
      "midi": 74,
      "hit": false,
      "t": 78045.79999999989,
      "d": 1948.5399999999936,
      "v": 79
    },
    {
      "midi": 71,
      "hit": false,
      "t": 78045.79999999989,
      "d": 1958.9599999999919,
      "v": 92
    },
    {
      "midi": 77,
      "hit": false,
      "t": 78045.79999999989,
      "d": 1958.9599999999919,
      "v": 84
    },
    {
      "midi": 67,
      "hit": false,
      "t": 80046.43999999987,
      "d": 948.2200000000012,
      "v": 96
    },
    {
      "midi": 71,
      "hit": false,
      "t": 80046.43999999987,
      "d": 948.2200000000012,
      "v": 86
    },
    {
      "midi": 65,
      "hit": false,
      "t": 80056.85999999987,
      "d": 937.8000000000029,
      "v": 72
    },
    {
      "midi": 67,
      "hit": false,
      "t": 82036.65999999987,
      "d": 635.6199999999953,
      "v": 81
    },
    {
      "midi": 60,
      "hit": false,
      "t": 82047.07999999987,
      "d": 614.7799999999988,
      "v": 82
    },
    {
      "midi": 64,
      "hit": false,
      "t": 82047.07999999987,
      "d": 614.7799999999988,
      "v": 81
    },
    {
      "midi": 72,
      "hit": false,
      "t": 82755.63999999996,
      "d": 20.839999999996508,
      "v": 80
    },
    {
      "midi": 60,
      "hit": false,
      "t": 82766.05999999995,
      "d": 10.419999999998254,
      "v": 83
    },
    {
      "midi": 64,
      "hit": false,
      "t": 82766.05999999995,
      "d": 10.419999999998254,
      "v": 85
    },
    {
      "midi": 67,
      "hit": false,
      "t": 82766.05999999995,
      "d": 10.419999999998254,
      "v": 81
    },
    {
      "midi": 74,
      "hit": false,
      "t": 83047.39999999995,
      "d": 83.35999999998603,
      "v": 100
    },
    {
      "midi": 68,
      "hit": false,
      "t": 83057.81999999995,
      "d": 41.679999999993015,
      "v": 114
    },
    {
      "midi": 71,
      "hit": false,
      "t": 83057.81999999995,
      "d": 41.679999999993015,
      "v": 114
    },
    {
      "midi": 64,
      "hit": false,
      "t": 83057.81999999995,
      "d": 62.51999999998952,
      "v": 109
    },
    {
      "midi": 68,
      "hit": false,
      "t": 83380.83999999994,
      "d": 52.10000000000582,
      "v": 80
    },
    {
      "midi": 71,
      "hit": false,
      "t": 83380.83999999994,
      "d": 52.10000000000582,
      "v": 79
    },
    {
      "midi": 64,
      "hit": false,
      "t": 83380.83999999994,
      "d": 72.94000000000233,
      "v": 81
    },
    {
      "midi": 74,
      "hit": false,
      "t": 83380.83999999994,
      "d": 72.94000000000233,
      "v": 79
    },
    {
      "midi": 68,
      "hit": false,
      "t": 83703.85999999994,
      "d": 41.679999999993015,
      "v": 76
    },
    {
      "midi": 64,
      "hit": false,
      "t": 83714.27999999994,
      "d": 41.679999999993015,
      "v": 75
    },
    {
      "midi": 71,
      "hit": false,
      "t": 83714.27999999994,
      "d": 41.679999999993015,
      "v": 70
    },
    {
      "midi": 74,
      "hit": false,
      "t": 83714.27999999994,
      "d": 41.679999999993015,
      "v": 70
    },
    {
      "midi": 45,
      "hit": false,
      "t": 84089.39999999986,
      "d": 1948.5399999999936,
      "v": 74
    },
    {
      "midi": 57,
      "hit": false,
      "t": 84089.39999999986,
      "d": 1948.5399999999936,
      "v": 92
    },
    {
      "midi": 60,
      "hit": false,
      "t": 84089.39999999986,
      "d": 1948.5399999999936,
      "v": 90
    },
    {
      "midi": 62,
      "hit": false,
      "t": 86683.97999999985,
      "d": 479.320000000007,
      "v": 90
    },
    {
      "midi": 65,
      "hit": false,
      "t": 86683.97999999985,
      "d": 479.320000000007,
      "v": 95
    },
    {
      "midi": 69,
      "hit": false,
      "t": 86683.97999999985,
      "d": 479.320000000007,
      "v": 70
    },
    {
      "midi": 69,
      "hit": false,
      "t": 87382.11999999986,
      "d": 593.9400000000023,
      "v": 88
    },
    {
      "midi": 60,
      "hit": false,
      "t": 87392.53999999986,
      "d": 583.5200000000041,
      "v": 80
    },
    {
      "midi": 57,
      "hit": false,
      "t": 88017.73999999986,
      "d": 31.25999999999476,
      "v": 86
    },
    {
      "midi": 65,
      "hit": false,
      "t": 88059.41999999985,
      "d": 1604.679999999993,
      "v": 87
    },
    {
      "midi": 69,
      "hit": false,
      "t": 88059.41999999985,
      "d": 1604.679999999993,
      "v": 69
    },
    {
      "midi": 62,
      "hit": false,
      "t": 89716.19999999985,
      "d": 281.3399999999965,
      "v": 44
    },
    {
      "midi": 69,
      "hit": false,
      "t": 90018.37999999984,
      "d": 104.19999999999709,
      "v": 82
    },
    {
      "midi": 74,
      "hit": false,
      "t": 90039.21999999984,
      "d": 83.36000000000058,
      "v": 68
    },
    {
      "midi": 65,
      "hit": false,
      "t": 90049.63999999984,
      "d": 72.94000000000233,
      "v": 84
    },
    {
      "midi": 80,
      "hit": false,
      "t": 91049.95999999983,
      "d": 969.0599999999977,
      "v": 84
    },
    {
      "midi": 74,
      "hit": false,
      "t": 91404.23999999983,
      "d": 593.9400000000023,
      "v": 64
    },
    {
      "midi": 71,
      "hit": false,
      "t": 91716.83999999984,
      "d": 291.75999999999476,
      "v": 66
    },
    {
      "midi": 62,
      "hit": false,
      "t": 92071.11999999984,
      "d": 1906.8600000000006,
      "v": 71
    },
    {
      "midi": 64,
      "hit": false,
      "t": 92071.11999999984,
      "d": 1906.8600000000006,
      "v": 84
    },
    {
      "midi": 68,
      "hit": false,
      "t": 92071.11999999984,
      "d": 1906.8600000000006,
      "v": 82
    },
    {
      "midi": 71,
      "hit": false,
      "t": 94050.91999999984,
      "d": 1948.5399999999936,
      "v": 79
    },
    {
      "midi": 68,
      "hit": false,
      "t": 94050.91999999984,
      "d": 1958.9599999999919,
      "v": 92
    },
    {
      "midi": 74,
      "hit": false,
      "t": 94050.91999999984,
      "d": 1958.9599999999919,
      "v": 84
    },
    {
      "midi": 64,
      "hit": false,
      "t": 96061.97999999984,
      "d": 1906.8600000000006,
      "v": 96
    },
    {
      "midi": 68,
      "hit": false,
      "t": 96061.97999999984,
      "d": 1906.8600000000006,
      "v": 86
    },
    {
      "midi": 62,
      "hit": false,
      "t": 96072.39999999983,
      "d": 1906.8600000000006,
      "v": 72
    },
    {
      "midi": 64,
      "hit": false,
      "t": 98375.21999999993,
      "d": 52.09999999999127,
      "v": 77
    },
    {
      "midi": 60,
      "hit": false,
      "t": 98385.63999999993,
      "d": 41.679999999993015,
      "v": 79
    },
    {
      "midi": 57,
      "hit": false,
      "t": 98385.63999999993,
      "d": 52.09999999999127,
      "v": 78
    },
    {
      "midi": 69,
      "hit": false,
      "t": 98385.63999999993,
      "d": 52.09999999999127,
      "v": 74
    },
    {
      "midi": 64,
      "hit": false,
      "t": 98719.07999999991,
      "d": 31.25999999999476,
      "v": 81
    },
    {
      "midi": 57,
      "hit": false,
      "t": 98719.07999999991,
      "d": 52.09999999999127,
      "v": 83
    },
    {
      "midi": 69,
      "hit": false,
      "t": 98719.07999999991,
      "d": 52.09999999999127,
      "v": 80
    },
    {
      "midi": 60,
      "hit": false,
      "t": 98729.49999999991,
      "d": 20.839999999996508,
      "v": 85
    },
    {
      "midi": 69,
      "hit": false,
      "t": 99052.5199999999,
      "d": 83.35999999998603,
      "v": 100
    },
    {
      "midi": 60,
      "hit": false,
      "t": 99062.9399999999,
      "d": 41.679999999993015,
      "v": 114
    },
    {
      "midi": 64,
      "hit": false,
      "t": 99062.9399999999,
      "d": 41.679999999993015,
      "v": 114
    },
    {
      "midi": 57,
      "hit": false,
      "t": 99062.9399999999,
      "d": 62.51999999998952,
      "v": 109
    },
    {
      "midi": 60,
      "hit": false,
      "t": 99385.95999999989,
      "d": 52.10000000000582,
      "v": 80
    },
    {
      "midi": 64,
      "hit": false,
      "t": 99385.95999999989,
      "d": 52.10000000000582,
      "v": 79
    },
    {
      "midi": 57,
      "hit": false,
      "t": 99385.95999999989,
      "d": 72.94000000000233,
      "v": 81
    },
    {
      "midi": 69,
      "hit": false,
      "t": 99385.95999999989,
      "d": 72.94000000000233,
      "v": 79
    },
    {
      "midi": 60,
      "hit": false,
      "t": 99708.9799999999,
      "d": 41.679999999993015,
      "v": 76
    },
    {
      "midi": 57,
      "hit": false,
      "t": 99719.39999999989,
      "d": 41.679999999993015,
      "v": 75
    },
    {
      "midi": 64,
      "hit": false,
      "t": 99719.39999999989,
      "d": 41.679999999993015,
      "v": 70
    },
    {
      "midi": 69,
      "hit": false,
      "t": 99719.39999999989,
      "d": 41.679999999993015,
      "v": 70
    },
    {
      "midi": 45,
      "hit": false,
      "t": 100104.93999999983,
      "d": 1979.800000000003,
      "v": 74
    },
    {
      "midi": 57,
      "hit": false,
      "t": 100104.93999999983,
      "d": 1979.800000000003,
      "v": 92
    },
    {
      "midi": 60,
      "hit": false,
      "t": 100104.93999999983,
      "d": 1979.800000000003,
      "v": 90
    },
    {
      "midi": 62,
      "hit": false,
      "t": 102689.09999999983,
      "d": 354.27999999999884,
      "v": 90
    },
    {
      "midi": 65,
      "hit": false,
      "t": 102689.09999999983,
      "d": 354.27999999999884,
      "v": 95
    },
    {
      "midi": 69,
      "hit": false,
      "t": 102689.09999999983,
      "d": 354.27999999999884,
      "v": 70
    },
    {
      "midi": 69,
      "hit": false,
      "t": 103387.23999999983,
      "d": 583.5200000000041,
      "v": 88
    },
    {
      "midi": 60,
      "hit": false,
      "t": 103397.65999999983,
      "d": 573.1000000000058,
      "v": 80
    },
    {
      "midi": 57,
      "hit": false,
      "t": 104022.85999999984,
      "d": 1646.359999999986,
      "v": 86
    },
    {
      "midi": 60,
      "hit": false,
      "t": 104064.53999999983,
      "d": 1604.679999999993,
      "v": 87
    },
    {
      "midi": 64,
      "hit": false,
      "t": 104064.53999999983,
      "d": 1604.679999999993,
      "v": 69
    },
    {
      "midi": 57,
      "hit": false,
      "t": 105731.73999999983,
      "d": 270.91999999999825,
      "v": 44
    },
    {
      "midi": 64,
      "hit": false,
      "t": 106023.49999999983,
      "d": 20.839999999996508,
      "v": 82
    },
    {
      "midi": 65,
      "hit": false,
      "t": 106054.75999999982,
      "d": 1917.2799999999988,
      "v": 84
    },
    {
      "midi": 74,
      "hit": false,
      "t": 106054.75999999982,
      "d": 1917.2799999999988,
      "v": 68
    },
    {
      "midi": 65,
      "hit": false,
      "t": 108055.39999999982,
      "d": 31.25999999999476,
      "v": 90
    },
    {
      "midi": 57,
      "hit": false,
      "t": 108065.81999999982,
      "d": 20.839999999996508,
      "v": 72
    },
    {
      "midi": 62,
      "hit": false,
      "t": 108065.81999999982,
      "d": 20.839999999996508,
      "v": 84
    },
    {
      "midi": 71,
      "hit": false,
      "t": 110056.0399999998,
      "d": 1948.5399999999936,
      "v": 79
    },
    {
      "midi": 68,
      "hit": false,
      "t": 110056.0399999998,
      "d": 1958.9599999999919,
      "v": 92
    },
    {
      "midi": 74,
      "hit": false,
      "t": 110056.0399999998,
      "d": 1958.9599999999919,
      "v": 84
    },
    {
      "midi": 64,
      "hit": false,
      "t": 112067.0999999998,
      "d": 1906.8600000000006,
      "v": 96
    },
    {
      "midi": 68,
      "hit": false,
      "t": 112067.0999999998,
      "d": 1906.8600000000006,
      "v": 86
    },
    {
      "midi": 62,
      "hit": false,
      "t": 112077.5199999998,
      "d": 1896.4400000000023,
      "v": 72
    },
    {
      "midi": 71,
      "hit": false,
      "t": 114046.8999999998,
      "d": 41.679999999993015,
      "v": 81
    },
    {
      "midi": 62,
      "hit": false,
      "t": 114057.3199999998,
      "d": 31.25999999999476,
      "v": 82
    },
    {
      "midi": 68,
      "hit": false,
      "t": 114067.7399999998,
      "d": 20.839999999996508,
      "v": 81
    },
    {
      "midi": 69,
      "hit": false,
      "t": 114713.7799999998,
      "d": 1260.820000000007,
      "v": 60
    },
    {
      "midi": 72,
      "hit": false,
      "t": 114713.7799999998,
      "d": 1260.820000000007,
      "v": 65
    },
    {
      "midi": 76,
      "hit": false,
      "t": 114713.7799999998,
      "d": 1271.2400000000052,
      "v": 75
    },
    {
      "midi": 60,
      "hit": false,
      "t": 116089.2199999998,
      "d": 2000.6399999999994,
      "v": 90
    },
    {
      "midi": 52,
      "hit": false,
      "t": 116099.6399999998,
      "d": 1990.2200000000012,
      "v": 74
    },
    {
      "midi": 57,
      "hit": false,
      "t": 116099.6399999998,
      "d": 1990.2200000000012,
      "v": 92
    },
    {
      "midi": 62,
      "hit": false,
      "t": 118694.2199999998,
      "d": 354.27999999999884,
      "v": 90
    },
    {
      "midi": 69,
      "hit": false,
      "t": 118694.2199999998,
      "d": 354.27999999999884,
      "v": 70
    },
    {
      "midi": 65,
      "hit": false,
      "t": 118694.2199999998,
      "d": 364.6999999999971,
      "v": 95
    },
    {
      "midi": 69,
      "hit": false,
      "t": 119392.3599999998,
      "d": 583.5200000000041,
      "v": 88
    },
    {
      "midi": 60,
      "hit": false,
      "t": 119402.7799999998,
      "d": 573.1000000000058,
      "v": 80
    },
    {
      "midi": 57,
      "hit": false,
      "t": 120027.9799999998,
      "d": 1646.359999999986,
      "v": 86
    },
    {
      "midi": 60,
      "hit": false,
      "t": 120069.6599999998,
      "d": 1604.679999999993,
      "v": 87
    },
    {
      "midi": 64,
      "hit": false,
      "t": 120069.6599999998,
      "d": 1604.679999999993,
      "v": 69
    },
    {
      "midi": 57,
      "hit": false,
      "t": 121736.8599999998,
      "d": 270.91999999999825,
      "v": 44
    },
    {
      "midi": 69,
      "hit": false,
      "t": 122028.61999999979,
      "d": 1948.5399999999936,
      "v": 82
    },
    {
      "midi": 74,
      "hit": false,
      "t": 122049.45999999979,
      "d": 1927.699999999997,
      "v": 68
    },
    {
      "midi": 65,
      "hit": false,
      "t": 122049.45999999979,
      "d": 1938.1199999999953,
      "v": 84
    },
    {
      "midi": 65,
      "hit": false,
      "t": 124060.51999999979,
      "d": 2031.8999999999942,
      "v": 90
    },
    {
      "midi": 57,
      "hit": false,
      "t": 124070.93999999978,
      "d": 2021.479999999996,
      "v": 72
    },
    {
      "midi": 62,
      "hit": false,
      "t": 124070.93999999978,
      "d": 2021.479999999996,
      "v": 84
    },
    {
      "midi": 67,
      "hit": false,
      "t": 128072.21999999978,
      "d": 1906.8600000000006,
      "v": 96
    },
    {
      "midi": 71,
      "hit": false,
      "t": 128072.21999999978,
      "d": 1906.8600000000006,
      "v": 86
    },
    {
      "midi": 62,
      "hit": false,
      "t": 128082.63999999978,
      "d": 1906.8600000000006,
      "v": 72
    },
    {
      "midi": 67,
      "hit": false,
      "t": 130052.01999999979,
      "d": 1042,
      "v": 81
    },
    {
      "midi": 60,
      "hit": false,
      "t": 130062.43999999978,
      "d": 1031.5800000000017,
      "v": 82
    },
    {
      "midi": 64,
      "hit": false,
      "t": 130062.43999999978,
      "d": 1031.5800000000017,
      "v": 81
    },
    {
      "midi": 79,
      "hit": false,
      "t": 131083.59999999977,
      "d": 10.420000000012806,
      "v": 75
    },
    {
      "midi": 68,
      "hit": false,
      "t": 131396.1999999999,
      "d": 52.10000000000582,
      "v": 80
    },
    {
      "midi": 71,
      "hit": false,
      "t": 131396.1999999999,
      "d": 52.10000000000582,
      "v": 79
    },
    {
      "midi": 64,
      "hit": false,
      "t": 131396.1999999999,
      "d": 72.94000000000233,
      "v": 81
    },
    {
      "midi": 74,
      "hit": false,
      "t": 131396.1999999999,
      "d": 72.94000000000233,
      "v": 79
    },
    {
      "midi": 68,
      "hit": false,
      "t": 131719.21999999988,
      "d": 52.10000000000582,
      "v": 76
    },
    {
      "midi": 64,
      "hit": false,
      "t": 131729.6399999999,
      "d": 52.10000000000582,
      "v": 75
    },
    {
      "midi": 71,
      "hit": false,
      "t": 131729.6399999999,
      "d": 52.10000000000582,
      "v": 70
    },
    {
      "midi": 74,
      "hit": false,
      "t": 131729.6399999999,
      "d": 52.10000000000582,
      "v": 70
    },
    {
      "midi": 57,
      "hit": false,
      "t": 132094.3399999998,
      "d": 10.420000000012806,
      "v": 84
    },
    {
      "midi": 45,
      "hit": false,
      "t": 132104.7599999998,
      "d": 10.420000000012806,
      "v": 71
    },
    {
      "midi": 64,
      "hit": false,
      "t": 134074.1399999998,
      "d": 1948.5400000000081,
      "v": 79
    },
    {
      "midi": 55,
      "hit": false,
      "t": 134074.1399999998,
      "d": 1958.960000000021,
      "v": 84
    },
    {
      "midi": 61,
      "hit": false,
      "t": 134074.1399999998,
      "d": 1958.960000000021,
      "v": 92
    },
    {
      "midi": 61,
      "hit": false,
      "t": 136064.35999999984,
      "d": 1917.2799999999988,
      "v": 86
    },
    {
      "midi": 57,
      "hit": false,
      "t": 136074.77999999985,
      "d": 1906.859999999986,
      "v": 96
    },
    {
      "midi": 55,
      "hit": false,
      "t": 136074.77999999985,
      "d": 1917.2799999999988,
      "v": 72
    },
    {
      "midi": 69,
      "hit": false,
      "t": 138054.57999999987,
      "d": 1927.7000000000116,
      "v": 82
    },
    {
      "midi": 74,
      "hit": false,
      "t": 138064.99999999988,
      "d": 1917.2799999999988,
      "v": 68
    },
    {
      "midi": 65,
      "hit": false,
      "t": 138064.99999999988,
      "d": 1927.7000000000116,
      "v": 84
    },
    {
      "midi": 65,
      "hit": false,
      "t": 140076.05999999988,
      "d": 20.84000000002561,
      "v": 90
    },
    {
      "midi": 57,
      "hit": false,
      "t": 140086.4799999999,
      "d": 10.420000000012806,
      "v": 72
    },
    {
      "midi": 62,
      "hit": false,
      "t": 140086.4799999999,
      "d": 10.420000000012806,
      "v": 84
    },
    {
      "midi": 74,
      "hit": false,
      "t": 142066.2799999999,
      "d": 1948.5400000000081,
      "v": 79
    },
    {
      "midi": 71,
      "hit": false,
      "t": 142066.2799999999,
      "d": 1958.960000000021,
      "v": 92
    },
    {
      "midi": 77,
      "hit": false,
      "t": 142066.2799999999,
      "d": 1958.960000000021,
      "v": 84
    },
    {
      "midi": 67,
      "hit": false,
      "t": 144077.33999999994,
      "d": 979.4800000000105,
      "v": 96
    },
    {
      "midi": 71,
      "hit": false,
      "t": 144077.33999999994,
      "d": 979.4800000000105,
      "v": 86
    },
    {
      "midi": 65,
      "hit": false,
      "t": 144087.75999999995,
      "d": 969.0599999999977,
      "v": 72
    },
    {
      "midi": 67,
      "hit": false,
      "t": 146057.13999999996,
      "d": 677.3000000000175,
      "v": 81
    },
    {
      "midi": 60,
      "hit": false,
      "t": 146067.55999999997,
      "d": 656.4599999999919,
      "v": 82
    },
    {
      "midi": 64,
      "hit": false,
      "t": 146067.55999999997,
      "d": 656.4599999999919,
      "v": 81
    },
    {
      "midi": 72,
      "hit": false,
      "t": 146765.69999999992,
      "d": 62.52000000001863,
      "v": 80
    },
    {
      "midi": 60,
      "hit": false,
      "t": 146776.11999999994,
      "d": 52.10000000000582,
      "v": 83
    },
    {
      "midi": 64,
      "hit": false,
      "t": 146776.11999999994,
      "d": 52.10000000000582,
      "v": 85
    },
    {
      "midi": 67,
      "hit": false,
      "t": 146776.11999999994,
      "d": 52.10000000000582,
      "v": 81
    },
    {
      "midi": 74,
      "hit": false,
      "t": 147067.87999999995,
      "d": 83.36000000001513,
      "v": 100
    },
    {
      "midi": 68,
      "hit": false,
      "t": 147078.29999999996,
      "d": 41.679999999993015,
      "v": 114
    },
    {
      "midi": 71,
      "hit": false,
      "t": 147078.29999999996,
      "d": 41.679999999993015,
      "v": 114
    },
    {
      "midi": 64,
      "hit": false,
      "t": 147078.29999999996,
      "d": 62.51999999998952,
      "v": 109
    },
    {
      "midi": 68,
      "hit": false,
      "t": 147401.31999999995,
      "d": 52.10000000000582,
      "v": 80
    },
    {
      "midi": 71,
      "hit": false,
      "t": 147401.31999999995,
      "d": 52.10000000000582,
      "v": 79
    },
    {
      "midi": 64,
      "hit": false,
      "t": 147401.31999999995,
      "d": 72.94000000000233,
      "v": 81
    },
    {
      "midi": 74,
      "hit": false,
      "t": 147401.31999999995,
      "d": 72.94000000000233,
      "v": 79
    },
    {
      "midi": 68,
      "hit": false,
      "t": 147745.17999999996,
      "d": 20.839999999996508,
      "v": 76
    },
    {
      "midi": 64,
      "hit": false,
      "t": 147745.17999999996,
      "d": 31.260000000009313,
      "v": 75
    },
    {
      "midi": 71,
      "hit": false,
      "t": 147745.17999999996,
      "d": 31.260000000009313,
      "v": 70
    },
    {
      "midi": 74,
      "hit": false,
      "t": 147745.17999999996,
      "d": 31.260000000009313,
      "v": 70
    },
    {
      "midi": 45,
      "hit": false,
      "t": 148130.72,
      "d": 1938.1199999999953,
      "v": 74
    },
    {
      "midi": 57,
      "hit": false,
      "t": 148130.72,
      "d": 1938.1199999999953,
      "v": 92
    },
    {
      "midi": 60,
      "hit": false,
      "t": 148130.72,
      "d": 1938.1199999999953,
      "v": 90
    },
    {
      "midi": 62,
      "hit": false,
      "t": 150714.88,
      "d": 343.85999999998603,
      "v": 90
    },
    {
      "midi": 69,
      "hit": false,
      "t": 150714.88,
      "d": 343.85999999998603,
      "v": 70
    },
    {
      "midi": 65,
      "hit": false,
      "t": 150714.88,
      "d": 354.27999999999884,
      "v": 95
    },
    {
      "midi": 69,
      "hit": false,
      "t": 151402.6,
      "d": 583.5200000000186,
      "v": 88
    },
    {
      "midi": 60,
      "hit": false,
      "t": 151413.02000000002,
      "d": 573.1000000000058,
      "v": 80
    },
    {
      "midi": 57,
      "hit": false,
      "t": 152038.22000000003,
      "d": 62.51999999998952,
      "v": 86
    },
    {
      "midi": 60,
      "hit": false,
      "t": 152079.90000000002,
      "d": 20.839999999996508,
      "v": 87
    },
    {
      "midi": 64,
      "hit": false,
      "t": 152079.90000000002,
      "d": 20.839999999996508,
      "v": 69
    },
    {
      "midi": 62,
      "hit": false,
      "t": 153736.68000000002,
      "d": 281.3399999999965,
      "v": 44
    },
    {
      "midi": 69,
      "hit": false,
      "t": 154038.86000000002,
      "d": 20.839999999996508,
      "v": 82
    },
    {
      "midi": 59,
      "hit": false,
      "t": 154070.12000000002,
      "d": 31.260000000009313,
      "v": 84
    },
    {
      "midi": 68,
      "hit": false,
      "t": 154070.12000000002,
      "d": 31.260000000009313,
      "v": 68
    },
    {
      "midi": 80,
      "hit": false,
      "t": 155080.86000000007,
      "d": 958.640000000014,
      "v": 84
    },
    {
      "midi": 74,
      "hit": false,
      "t": 155424.72000000006,
      "d": 593.9400000000023,
      "v": 64
    },
    {
      "midi": 71,
      "hit": false,
      "t": 155737.32000000007,
      "d": 291.7600000000093,
      "v": 66
    },
    {
      "midi": 62,
      "hit": false,
      "t": 156091.6000000001,
      "d": 1896.4400000000023,
      "v": 71
    },
    {
      "midi": 64,
      "hit": false,
      "t": 156091.6000000001,
      "d": 1896.4400000000023,
      "v": 84
    },
    {
      "midi": 68,
      "hit": false,
      "t": 156091.6000000001,
      "d": 1896.4400000000023,
      "v": 82
    },
    {
      "midi": 71,
      "hit": false,
      "t": 158071.40000000008,
      "d": 1948.5400000000081,
      "v": 79
    },
    {
      "midi": 68,
      "hit": false,
      "t": 158071.40000000008,
      "d": 1958.960000000021,
      "v": 92
    },
    {
      "midi": 74,
      "hit": false,
      "t": 158071.40000000008,
      "d": 1958.960000000021,
      "v": 84
    },
    {
      "midi": 64,
      "hit": false,
      "t": 160082.4600000001,
      "d": 1917.2799999999988,
      "v": 96
    },
    {
      "midi": 68,
      "hit": false,
      "t": 160082.4600000001,
      "d": 1917.2799999999988,
      "v": 86
    },
    {
      "midi": 62,
      "hit": false,
      "t": 160092.88000000012,
      "d": 1906.859999999986,
      "v": 72
    },
    {
      "midi": 71,
      "hit": false,
      "t": 162062.2600000001,
      "d": 52.100000000034925,
      "v": 81
    },
    {
      "midi": 62,
      "hit": false,
      "t": 162072.6800000001,
      "d": 31.260000000009313,
      "v": 82
    },
    {
      "midi": 68,
      "hit": false,
      "t": 162083.10000000012,
      "d": 20.839999999996508,
      "v": 81
    },
    {
      "midi": 76,
      "hit": false,
      "t": 162729.14000000013,
      "d": 1260.820000000007,
      "v": 75
    },
    {
      "midi": 69,
      "hit": false,
      "t": 162739.56000000014,
      "d": 1250.3999999999942,
      "v": 60
    },
    {
      "midi": 72,
      "hit": false,
      "t": 162739.56000000014,
      "d": 1250.3999999999942,
      "v": 65
    },
    {
      "midi": 60,
      "hit": false,
      "t": 164073.32000000012,
      "d": 5001.600000000064,
      "v": 99
    },
    {
      "midi": 67,
      "hit": false,
      "t": 164156.6800000001,
      "d": 2125.680000000022,
      "v": 99
    },
    {
      "midi": 71,
      "hit": false,
      "t": 164354.66000000012,
      "d": 4709.840000000055,
      "v": 65
    },
    {
      "midi": 69,
      "hit": false,
      "t": 166292.78000000014,
      "d": 2771.7200000000303,
      "v": 70
    },
    {
      "midi": 76,
      "hit": false,
      "t": 166938.82000000015,
      "d": 2136.100000000035,
      "v": 50
    },
    {
      "midi": 81,
      "hit": false,
      "t": 167584.86000000016,
      "d": 1479.640000000014,
      "v": 40
    }
  ]
}