{
  "jsonPath": "Classical/Operatic Pop/Yanni/in-the-morning-light.json",
  "path": "Classical\\Operatic Pop\\Yanni\\In The Morning Light.mid",
  "name": "In The Morning Light",
  "difficulty": "Advanced",
  "bpm": 100,
  "notes": [
    {
      "midi": 69,
      "hit": false,
      "t": 2483.75,
      "d": 965,
      "v": 36
    },
    {
      "midi": 57,
      "hit": false,
      "t": 2496.25,
      "d": 2123.75,
      "v": 16
    },
    {
      "midi": 61,
      "hit": false,
      "t": 2808.75,
      "d": 747.5,
      "v": 34
    },
    {
      "midi": 64,
      "hit": false,
      "t": 3143.75,
      "d": 56.25,
      "v": 34
    },
    {
      "midi": 64,
      "hit": false,
      "t": 3485,
      "d": 1373.75,
      "v": 39
    },
    {
      "midi": 61,
      "hit": false,
      "t": 4508.75,
      "d": 175,
      "v": 32
    },
    {
      "midi": 69,
      "hit": false,
      "t": 4817.5,
      "d": 337.5,
      "v": 57
    },
    {
      "midi": 71,
      "hit": false,
      "t": 5147.5,
      "d": 1136.25,
      "v": 57
    },
    {
      "midi": 56,
      "hit": false,
      "t": 5160,
      "d": 1561.25,
      "v": 34
    },
    {
      "midi": 59,
      "hit": false,
      "t": 5507.5,
      "d": 768.75,
      "v": 34
    },
    {
      "midi": 64,
      "hit": false,
      "t": 5833.75,
      "d": 65,
      "v": 34
    },
    {
      "midi": 64,
      "hit": false,
      "t": 6163.75,
      "d": 896.25,
      "v": 41
    },
    {
      "midi": 76,
      "hit": false,
      "t": 7097.5,
      "d": 315,
      "v": 43
    },
    {
      "midi": 66,
      "hit": false,
      "t": 7768.75,
      "d": 980,
      "v": 36
    },
    {
      "midi": 74,
      "hit": false,
      "t": 7790,
      "d": 1011.25,
      "v": 36
    },
    {
      "midi": 54,
      "hit": false,
      "t": 7811.25,
      "d": 340,
      "v": 28
    },
    {
      "midi": 57,
      "hit": false,
      "t": 8147.5,
      "d": 1336.25,
      "v": 32
    },
    {
      "midi": 62,
      "hit": false,
      "t": 8460,
      "d": 336.25,
      "v": 46
    },
    {
      "midi": 73,
      "hit": false,
      "t": 8821.25,
      "d": 966.25,
      "v": 40
    },
    {
      "midi": 64,
      "hit": false,
      "t": 8848.75,
      "d": 683.75,
      "v": 22
    },
    {
      "midi": 69,
      "hit": false,
      "t": 9748.75,
      "d": 598.75,
      "v": 36
    },
    {
      "midi": 66,
      "hit": false,
      "t": 10400,
      "d": 616.25,
      "v": 28
    },
    {
      "midi": 45,
      "hit": false,
      "t": 10412.5,
      "d": 316.25,
      "v": 16
    },
    {
      "midi": 74,
      "hit": false,
      "t": 10438.75,
      "d": 605,
      "v": 23
    },
    {
      "midi": 52,
      "hit": false,
      "t": 10733.75,
      "d": 260,
      "v": 36
    },
    {
      "midi": 57,
      "hit": false,
      "t": 11051.25,
      "d": 210,
      "v": 43
    },
    {
      "midi": 64,
      "hit": false,
      "t": 11376.25,
      "d": 871.25,
      "v": 36
    },
    {
      "midi": 73,
      "hit": false,
      "t": 11378.75,
      "d": 1153.75,
      "v": 41
    },
    {
      "midi": 61,
      "hit": false,
      "t": 11388.75,
      "d": 168.75,
      "v": 27
    },
    {
      "midi": 71,
      "hit": false,
      "t": 12358.75,
      "d": 341.25,
      "v": 39
    },
    {
      "midi": 71,
      "hit": false,
      "t": 12917.5,
      "d": 126.25,
      "v": 45
    },
    {
      "midi": 50,
      "hit": false,
      "t": 13028.75,
      "d": 556.25,
      "v": 27
    },
    {
      "midi": 69,
      "hit": false,
      "t": 13033.75,
      "d": 941.25,
      "v": 45
    },
    {
      "midi": 54,
      "hit": false,
      "t": 13326.25,
      "d": 331.25,
      "v": 39
    },
    {
      "midi": 57,
      "hit": false,
      "t": 13628.75,
      "d": 65,
      "v": 43
    },
    {
      "midi": 66,
      "hit": false,
      "t": 13985,
      "d": 1202.5,
      "v": 47
    },
    {
      "midi": 62,
      "hit": false,
      "t": 14865,
      "d": 46.25,
      "v": 34
    },
    {
      "midi": 69,
      "hit": false,
      "t": 15197.5,
      "d": 131.25,
      "v": 41
    },
    {
      "midi": 71,
      "hit": false,
      "t": 15343.75,
      "d": 193.75,
      "v": 48
    },
    {
      "midi": 45,
      "hit": false,
      "t": 15518.75,
      "d": 352.5,
      "v": 27
    },
    {
      "midi": 69,
      "hit": false,
      "t": 15528.75,
      "d": 938.75,
      "v": 41
    },
    {
      "midi": 52,
      "hit": false,
      "t": 15838.75,
      "d": 263.75,
      "v": 39
    },
    {
      "midi": 57,
      "hit": false,
      "t": 16160,
      "d": 267.5,
      "v": 39
    },
    {
      "midi": 64,
      "hit": false,
      "t": 16473.75,
      "d": 1223.75,
      "v": 43
    },
    {
      "midi": 61,
      "hit": false,
      "t": 16491.25,
      "d": 316.25,
      "v": 28
    },
    {
      "midi": 69,
      "hit": false,
      "t": 17748.75,
      "d": 325,
      "v": 47
    },
    {
      "midi": 52,
      "hit": false,
      "t": 18060,
      "d": 453.75,
      "v": 36
    },
    {
      "midi": 68,
      "hit": false,
      "t": 18068.75,
      "d": 395,
      "v": 43
    },
    {
      "midi": 69,
      "hit": false,
      "t": 18361.25,
      "d": 331.25,
      "v": 47
    },
    {
      "midi": 56,
      "hit": false,
      "t": 18362.5,
      "d": 551.25,
      "v": 43
    },
    {
      "midi": 71,
      "hit": false,
      "t": 18688.75,
      "d": 898.75,
      "v": 51
    },
    {
      "midi": 59,
      "hit": false,
      "t": 18701.25,
      "d": 227.5,
      "v": 28
    },
    {
      "midi": 64,
      "hit": false,
      "t": 18968.75,
      "d": 682.5,
      "v": 34
    },
    {
      "midi": 56,
      "hit": false,
      "t": 19278.75,
      "d": 628.75,
      "v": 45
    },
    {
      "midi": 68,
      "hit": false,
      "t": 19608.75,
      "d": 587.5,
      "v": 41
    },
    {
      "midi": 59,
      "hit": false,
      "t": 19918.75,
      "d": 606.25,
      "v": 39
    },
    {
      "midi": 69,
      "hit": false,
      "t": 20201.25,
      "d": 318.75,
      "v": 45
    },
    {
      "midi": 50,
      "hit": false,
      "t": 20503.75,
      "d": 345,
      "v": 41
    },
    {
      "midi": 68,
      "hit": false,
      "t": 20528.75,
      "d": 340,
      "v": 41
    },
    {
      "midi": 56,
      "hit": false,
      "t": 20808.75,
      "d": 431.25,
      "v": 43
    },
    {
      "midi": 69,
      "hit": false,
      "t": 20843.75,
      "d": 243.75,
      "v": 48
    },
    {
      "midi": 59,
      "hit": false,
      "t": 21123.75,
      "d": 290,
      "v": 39
    },
    {
      "midi": 71,
      "hit": false,
      "t": 21136.25,
      "d": 582.5,
      "v": 51
    },
    {
      "midi": 62,
      "hit": false,
      "t": 21453.75,
      "d": 610,
      "v": 43
    },
    {
      "midi": 59,
      "hit": false,
      "t": 21751.25,
      "d": 392.5,
      "v": 41
    },
    {
      "midi": 68,
      "hit": false,
      "t": 22076.25,
      "d": 677.5,
      "v": 43
    },
    {
      "midi": 59,
      "hit": false,
      "t": 22403.75,
      "d": 106.25,
      "v": 43
    },
    {
      "midi": 69,
      "hit": false,
      "t": 22733.75,
      "d": 448.75,
      "v": 45
    },
    {
      "midi": 49,
      "hit": false,
      "t": 23120,
      "d": 358.75,
      "v": 36
    },
    {
      "midi": 68,
      "hit": false,
      "t": 23136.25,
      "d": 265,
      "v": 39
    },
    {
      "midi": 69,
      "hit": false,
      "t": 23426.25,
      "d": 327.5,
      "v": 61
    },
    {
      "midi": 53,
      "hit": false,
      "t": 23448.75,
      "d": 1035,
      "v": 41
    },
    {
      "midi": 56,
      "hit": false,
      "t": 23713.75,
      "d": 377.5,
      "v": 43
    },
    {
      "midi": 71,
      "hit": false,
      "t": 23718.75,
      "d": 285,
      "v": 61
    },
    {
      "midi": 73,
      "hit": false,
      "t": 24023.75,
      "d": 946.25,
      "v": 47
    },
    {
      "midi": 61,
      "hit": false,
      "t": 24062.5,
      "d": 576.25,
      "v": 28
    },
    {
      "midi": 56,
      "hit": false,
      "t": 24646.25,
      "d": 318.75,
      "v": 32
    },
    {
      "midi": 68,
      "hit": false,
      "t": 24968.75,
      "d": 596.25,
      "v": 39
    },
    {
      "midi": 42,
      "hit": false,
      "t": 25575,
      "d": 332.5,
      "v": 30
    },
    {
      "midi": 71,
      "hit": false,
      "t": 25575,
      "d": 935,
      "v": 45
    },
    {
      "midi": 49,
      "hit": false,
      "t": 25882.5,
      "d": 270,
      "v": 43
    },
    {
      "midi": 54,
      "hit": false,
      "t": 26187.5,
      "d": 88.75,
      "v": 43
    },
    {
      "midi": 57,
      "hit": false,
      "t": 26472.5,
      "d": 1033.75,
      "v": 43
    },
    {
      "midi": 69,
      "hit": false,
      "t": 26492.5,
      "d": 1327.5,
      "v": 45
    },
    {
      "midi": 61,
      "hit": false,
      "t": 26823.75,
      "d": 343.75,
      "v": 41
    },
    {
      "midi": 61,
      "hit": false,
      "t": 27501.25,
      "d": 10,
      "v": 18
    },
    {
      "midi": 68,
      "hit": false,
      "t": 27815,
      "d": 120,
      "v": 41
    },
    {
      "midi": 64,
      "hit": false,
      "t": 27977.5,
      "d": 207.5,
      "v": 43
    },
    {
      "midi": 38,
      "hit": false,
      "t": 28185,
      "d": 277.5,
      "v": 28
    },
    {
      "midi": 66,
      "hit": false,
      "t": 28185,
      "d": 813.75,
      "v": 44
    },
    {
      "midi": 45,
      "hit": false,
      "t": 28420,
      "d": 247.5,
      "v": 39
    },
    {
      "midi": 50,
      "hit": false,
      "t": 28730,
      "d": 203.75,
      "v": 47
    },
    {
      "midi": 78,
      "hit": false,
      "t": 29017.5,
      "d": 608.75,
      "v": 42
    },
    {
      "midi": 54,
      "hit": false,
      "t": 29028.75,
      "d": 316.25,
      "v": 32
    },
    {
      "midi": 57,
      "hit": false,
      "t": 29312.5,
      "d": 493.75,
      "v": 39
    },
    {
      "midi": 76,
      "hit": false,
      "t": 29657.5,
      "d": 546.25,
      "v": 43
    },
    {
      "midi": 74,
      "hit": false,
      "t": 30283.75,
      "d": 293.75,
      "v": 45
    },
    {
      "midi": 45,
      "hit": false,
      "t": 30596.25,
      "d": 321.25,
      "v": 28
    },
    {
      "midi": 73,
      "hit": false,
      "t": 30600,
      "d": 411.25,
      "v": 47
    },
    {
      "midi": 74,
      "hit": false,
      "t": 30898.75,
      "d": 295,
      "v": 43
    },
    {
      "midi": 52,
      "hit": false,
      "t": 30906.25,
      "d": 208.75,
      "v": 34
    },
    {
      "midi": 57,
      "hit": false,
      "t": 31178.75,
      "d": 237.5,
      "v": 41
    },
    {
      "midi": 76,
      "hit": false,
      "t": 31197.5,
      "d": 280,
      "v": 45
    },
    {
      "midi": 69,
      "hit": false,
      "t": 31507.5,
      "d": 1205,
      "v": 47
    },
    {
      "midi": 61,
      "hit": false,
      "t": 31513.75,
      "d": 990,
      "v": 34
    },
    {
      "midi": 64,
      "hit": false,
      "t": 31828.75,
      "d": 338.75,
      "v": 43
    },
    {
      "midi": 64,
      "hit": false,
      "t": 32453.75,
      "d": 55,
      "v": 39
    },
    {
      "midi": 73,
      "hit": false,
      "t": 32768.75,
      "d": 285,
      "v": 39
    },
    {
      "midi": 66,
      "hit": false,
      "t": 33092.5,
      "d": 877.5,
      "v": 34
    },
    {
      "midi": 74,
      "hit": false,
      "t": 33103.75,
      "d": 885,
      "v": 36
    },
    {
      "midi": 47,
      "hit": false,
      "t": 33128.75,
      "d": 218.75,
      "v": 25
    },
    {
      "midi": 54,
      "hit": false,
      "t": 33378.75,
      "d": 248.75,
      "v": 41
    },
    {
      "midi": 59,
      "hit": false,
      "t": 33672.5,
      "d": 1080,
      "v": 39
    },
    {
      "midi": 73,
      "hit": false,
      "t": 33985,
      "d": 907.5,
      "v": 47
    },
    {
      "midi": 62,
      "hit": false,
      "t": 34285,
      "d": 402.5,
      "v": 41
    },
    {
      "midi": 69,
      "hit": false,
      "t": 34907.5,
      "d": 287.5,
      "v": 57
    },
    {
      "midi": 73,
      "hit": false,
      "t": 35190,
      "d": 203.75,
      "v": 54
    },
    {
      "midi": 69,
      "hit": false,
      "t": 35338.75,
      "d": 285,
      "v": 51
    },
    {
      "midi": 40,
      "hit": false,
      "t": 35493.75,
      "d": 300,
      "v": 22
    },
    {
      "midi": 71,
      "hit": false,
      "t": 35525,
      "d": 853.75,
      "v": 46
    },
    {
      "midi": 47,
      "hit": false,
      "t": 35823.75,
      "d": 206.25,
      "v": 34
    },
    {
      "midi": 52,
      "hit": false,
      "t": 36113.75,
      "d": 230,
      "v": 41
    },
    {
      "midi": 64,
      "hit": false,
      "t": 36438.75,
      "d": 668.75,
      "v": 43
    },
    {
      "midi": 56,
      "hit": false,
      "t": 36448.75,
      "d": 895,
      "v": 30
    },
    {
      "midi": 68,
      "hit": false,
      "t": 37091.25,
      "d": 603.75,
      "v": 36
    },
    {
      "midi": 69,
      "hit": false,
      "t": 37397.5,
      "d": 287.5,
      "v": 43
    },
    {
      "midi": 71,
      "hit": false,
      "t": 37678.75,
      "d": 73.75,
      "v": 47
    },
    {
      "midi": 52,
      "hit": false,
      "t": 38003.75,
      "d": 393.75,
      "v": 34
    },
    {
      "midi": 74,
      "hit": false,
      "t": 38025,
      "d": 905,
      "v": 43
    },
    {
      "midi": 56,
      "hit": false,
      "t": 38283.75,
      "d": 1315,
      "v": 45
    },
    {
      "midi": 59,
      "hit": false,
      "t": 38617.5,
      "d": 916.25,
      "v": 51
    },
    {
      "midi": 64,
      "hit": false,
      "t": 38928.75,
      "d": 496.25,
      "v": 34
    },
    {
      "midi": 76,
      "hit": false,
      "t": 38948.75,
      "d": 685,
      "v": 52
    },
    {
      "midi": 80,
      "hit": false,
      "t": 39616.25,
      "d": 352.5,
      "v": 48
    },
    {
      "midi": 81,
      "hit": false,
      "t": 39913.75,
      "d": 263.75,
      "v": 61
    },
    {
      "midi": 83,
      "hit": false,
      "t": 40178.75,
      "d": 410,
      "v": 66
    },
    {
      "midi": 45,
      "hit": false,
      "t": 40483.75,
      "d": 325,
      "v": 28
    },
    {
      "midi": 81,
      "hit": false,
      "t": 40516.25,
      "d": 853.75,
      "v": 45
    },
    {
      "midi": 52,
      "hit": false,
      "t": 40797.5,
      "d": 225,
      "v": 47
    },
    {
      "midi": 57,
      "hit": false,
      "t": 41085,
      "d": 160,
      "v": 45
    },
    {
      "midi": 61,
      "hit": false,
      "t": 41365,
      "d": 923.75,
      "v": 39
    },
    {
      "midi": 76,
      "hit": false,
      "t": 41378.75,
      "d": 927.5,
      "v": 43
    },
    {
      "midi": 64,
      "hit": false,
      "t": 41708.75,
      "d": 347.5,
      "v": 43
    },
    {
      "midi": 64,
      "hit": false,
      "t": 42340,
      "d": 397.5,
      "v": 28
    },
    {
      "midi": 81,
      "hit": false,
      "t": 42353.75,
      "d": 60,
      "v": 45
    },
    {
      "midi": 83,
      "hit": false,
      "t": 42458.75,
      "d": 92.5,
      "v": 43
    },
    {
      "midi": 81,
      "hit": false,
      "t": 42541.25,
      "d": 87.5,
      "v": 33
    },
    {
      "midi": 80,
      "hit": false,
      "t": 42653.75,
      "d": 173.75,
      "v": 52
    },
    {
      "midi": 81,
      "hit": false,
      "t": 42751.25,
      "d": 230,
      "v": 49
    },
    {
      "midi": 83,
      "hit": false,
      "t": 42937.5,
      "d": 826.25,
      "v": 51
    },
    {
      "midi": 56,
      "hit": false,
      "t": 42968.75,
      "d": 551.25,
      "v": 39
    },
    {
      "midi": 59,
      "hit": false,
      "t": 43238.75,
      "d": 281.25,
      "v": 41
    },
    {
      "midi": 64,
      "hit": false,
      "t": 43531.25,
      "d": 322.5,
      "v": 48
    },
    {
      "midi": 76,
      "hit": false,
      "t": 43817.5,
      "d": 551.25,
      "v": 45
    },
    {
      "midi": 59,
      "hit": false,
      "t": 43845,
      "d": 268.75,
      "v": 30
    },
    {
      "midi": 56,
      "hit": false,
      "t": 44130,
      "d": 563.75,
      "v": 45
    },
    {
      "midi": 59,
      "hit": false,
      "t": 44428.75,
      "d": 332.5,
      "v": 43
    },
    {
      "midi": 76,
      "hit": false,
      "t": 44743.75,
      "d": 115,
      "v": 45
    },
    {
      "midi": 88,
      "hit": false,
      "t": 44753.75,
      "d": 113.75,
      "v": 46
    },
    {
      "midi": 64,
      "hit": false,
      "t": 44787.5,
      "d": 76.25,
      "v": 34
    },
    {
      "midi": 54,
      "hit": false,
      "t": 45368.75,
      "d": 1805,
      "v": 30
    },
    {
      "midi": 78,
      "hit": false,
      "t": 45370,
      "d": 970,
      "v": 31
    },
    {
      "midi": 86,
      "hit": false,
      "t": 45388.75,
      "d": 925,
      "v": 34
    },
    {
      "midi": 57,
      "hit": false,
      "t": 45662.5,
      "d": 362.5,
      "v": 41
    },
    {
      "midi": 62,
      "hit": false,
      "t": 45961.25,
      "d": 838.75,
      "v": 47
    },
    {
      "midi": 85,
      "hit": false,
      "t": 46251.25,
      "d": 917.5,
      "v": 52
    },
    {
      "midi": 57,
      "hit": false,
      "t": 46833.75,
      "d": 332.5,
      "v": 30
    },
    {
      "midi": 81,
      "hit": false,
      "t": 47116.25,
      "d": 625,
      "v": 52
    },
    {
      "midi": 62,
      "hit": false,
      "t": 47123.75,
      "d": 65,
      "v": 45
    },
    {
      "midi": 78,
      "hit": false,
      "t": 47731.25,
      "d": 417.5,
      "v": 40
    },
    {
      "midi": 86,
      "hit": false,
      "t": 47750,
      "d": 481.25,
      "v": 39
    },
    {
      "midi": 45,
      "hit": false,
      "t": 47755,
      "d": 338.75,
      "v": 27
    },
    {
      "midi": 52,
      "hit": false,
      "t": 48041.25,
      "d": 235,
      "v": 45
    },
    {
      "midi": 57,
      "hit": false,
      "t": 48346.25,
      "d": 218.75,
      "v": 48
    },
    {
      "midi": 76,
      "hit": false,
      "t": 48620,
      "d": 938.75,
      "v": 43
    },
    {
      "midi": 61,
      "hit": false,
      "t": 48638.75,
      "d": 975,
      "v": 28
    },
    {
      "midi": 85,
      "hit": false,
      "t": 48662.5,
      "d": 916.25,
      "v": 52
    },
    {
      "midi": 64,
      "hit": false,
      "t": 48973.75,
      "d": 350,
      "v": 41
    },
    {
      "midi": 83,
      "hit": false,
      "t": 49586.25,
      "d": 660,
      "v": 45
    },
    {
      "midi": 64,
      "hit": false,
      "t": 49597.5,
      "d": 51.25,
      "v": 41
    },
    {
      "midi": 38,
      "hit": false,
      "t": 50207.5,
      "d": 288.75,
      "v": 39
    },
    {
      "midi": 81,
      "hit": false,
      "t": 50255,
      "d": 891.25,
      "v": 43
    },
    {
      "midi": 45,
      "hit": false,
      "t": 50500,
      "d": 223.75,
      "v": 32
    },
    {
      "midi": 50,
      "hit": false,
      "t": 50788.75,
      "d": 193.75,
      "v": 43
    },
    {
      "midi": 78,
      "hit": false,
      "t": 51100,
      "d": 1260,
      "v": 39
    },
    {
      "midi": 54,
      "hit": false,
      "t": 51122.5,
      "d": 230,
      "v": 30
    },
    {
      "midi": 57,
      "hit": false,
      "t": 51410,
      "d": 583.75,
      "v": 39
    },
    {
      "midi": 62,
      "hit": false,
      "t": 52000,
      "d": 56.25,
      "v": 41
    },
    {
      "midi": 81,
      "hit": false,
      "t": 52305,
      "d": 112.5,
      "v": 48
    },
    {
      "midi": 83,
      "hit": false,
      "t": 52413.75,
      "d": 203.75,
      "v": 45
    },
    {
      "midi": 81,
      "hit": false,
      "t": 52573.75,
      "d": 875,
      "v": 45
    },
    {
      "midi": 45,
      "hit": false,
      "t": 52580,
      "d": 338.75,
      "v": 27
    },
    {
      "midi": 52,
      "hit": false,
      "t": 52871.25,
      "d": 238.75,
      "v": 47
    },
    {
      "midi": 57,
      "hit": false,
      "t": 53151.25,
      "d": 232.5,
      "v": 52
    },
    {
      "midi": 76,
      "hit": false,
      "t": 53436.25,
      "d": 1285,
      "v": 45
    },
    {
      "midi": 61,
      "hit": false,
      "t": 53443.75,
      "d": 940,
      "v": 34
    },
    {
      "midi": 64,
      "hit": false,
      "t": 53788.75,
      "d": 422.5,
      "v": 39
    },
    {
      "midi": 64,
      "hit": false,
      "t": 54395,
      "d": 607.5,
      "v": 45
    },
    {
      "midi": 81,
      "hit": false,
      "t": 54676.25,
      "d": 377.5,
      "v": 49
    },
    {
      "midi": 80,
      "hit": false,
      "t": 55027.5,
      "d": 356.25,
      "v": 51
    },
    {
      "midi": 52,
      "hit": false,
      "t": 55033.75,
      "d": 502.5,
      "v": 43
    },
    {
      "midi": 56,
      "hit": false,
      "t": 55313.75,
      "d": 643.75,
      "v": 51
    },
    {
      "midi": 81,
      "hit": false,
      "t": 55318.75,
      "d": 330,
      "v": 49
    },
    {
      "midi": 59,
      "hit": false,
      "t": 55591.25,
      "d": 292.5,
      "v": 45
    },
    {
      "midi": 83,
      "hit": false,
      "t": 55603.75,
      "d": 847.5,
      "v": 54
    },
    {
      "midi": 64,
      "hit": false,
      "t": 55856.25,
      "d": 405,
      "v": 41
    },
    {
      "midi": 76,
      "hit": false,
      "t": 55888.75,
      "d": 595,
      "v": 49
    },
    {
      "midi": 56,
      "hit": false,
      "t": 56125,
      "d": 677.5,
      "v": 61
    },
    {
      "midi": 80,
      "hit": false,
      "t": 56437.5,
      "d": 638.75,
      "v": 54
    },
    {
      "midi": 59,
      "hit": false,
      "t": 56745,
      "d": 670,
      "v": 43
    },
    {
      "midi": 81,
      "hit": false,
      "t": 57035,
      "d": 368.75,
      "v": 54
    },
    {
      "midi": 80,
      "hit": false,
      "t": 57390,
      "d": 370,
      "v": 54
    },
    {
      "midi": 50,
      "hit": false,
      "t": 57391.25,
      "d": 326.25,
      "v": 41
    },
    {
      "midi": 56,
      "hit": false,
      "t": 57702.5,
      "d": 360,
      "v": 48
    },
    {
      "midi": 81,
      "hit": false,
      "t": 57713.75,
      "d": 295,
      "v": 52
    },
    {
      "midi": 83,
      "hit": false,
      "t": 57985,
      "d": 275,
      "v": 61
    },
    {
      "midi": 59,
      "hit": false,
      "t": 57985,
      "d": 618.75,
      "v": 45
    },
    {
      "midi": 74,
      "hit": false,
      "t": 58268.75,
      "d": 727.5,
      "v": 45
    },
    {
      "midi": 50,
      "hit": false,
      "t": 58573.75,
      "d": 600,
      "v": 43
    },
    {
      "midi": 80,
      "hit": false,
      "t": 58888.75,
      "d": 612.5,
      "v": 45
    },
    {
      "midi": 56,
      "hit": false,
      "t": 59165,
      "d": 190,
      "v": 36
    },
    {
      "midi": 81,
      "hit": false,
      "t": 59532.5,
      "d": 323.75,
      "v": 45
    },
    {
      "midi": 49,
      "hit": false,
      "t": 59905,
      "d": 313.75,
      "v": 32
    },
    {
      "midi": 80,
      "hit": false,
      "t": 59906.25,
      "d": 277.5,
      "v": 49
    },
    {
      "midi": 81,
      "hit": false,
      "t": 60203.75,
      "d": 337.5,
      "v": 54
    },
    {
      "midi": 53,
      "hit": false,
      "t": 60222.5,
      "d": 573.75,
      "v": 43
    },
    {
      "midi": 56,
      "hit": false,
      "t": 60481.25,
      "d": 322.5,
      "v": 41
    },
    {
      "midi": 83,
      "hit": false,
      "t": 60492.5,
      "d": 290,
      "v": 68
    },
    {
      "midi": 85,
      "hit": false,
      "t": 60758.75,
      "d": 925,
      "v": 70
    },
    {
      "midi": 61,
      "hit": false,
      "t": 60775,
      "d": 263.75,
      "v": 41
    },
    {
      "midi": 56,
      "hit": false,
      "t": 61053.75,
      "d": 340,
      "v": 49
    },
    {
      "midi": 53,
      "hit": false,
      "t": 61340,
      "d": 463.75,
      "v": 54
    },
    {
      "midi": 80,
      "hit": false,
      "t": 61643.75,
      "d": 648.75,
      "v": 68
    },
    {
      "midi": 56,
      "hit": false,
      "t": 61648.75,
      "d": 150,
      "v": 52
    },
    {
      "midi": 42,
      "hit": false,
      "t": 62243.75,
      "d": 265,
      "v": 36
    },
    {
      "midi": 83,
      "hit": false,
      "t": 62253.75,
      "d": 1063.75,
      "v": 45
    },
    {
      "midi": 49,
      "hit": false,
      "t": 62536.25,
      "d": 252.5,
      "v": 36
    },
    {
      "midi": 54,
      "hit": false,
      "t": 62818.75,
      "d": 97.5,
      "v": 41
    },
    {
      "midi": 57,
      "hit": false,
      "t": 63152.5,
      "d": 287.5,
      "v": 36
    },
    {
      "midi": 81,
      "hit": false,
      "t": 63205,
      "d": 1298.75,
      "v": 43
    },
    {
      "midi": 61,
      "hit": false,
      "t": 63491.25,
      "d": 638.75,
      "v": 34
    },
    {
      "midi": 66,
      "hit": false,
      "t": 64135,
      "d": 63.75,
      "v": 27
    },
    {
      "midi": 80,
      "hit": false,
      "t": 64512.5,
      "d": 96.25,
      "v": 49
    },
    {
      "midi": 76,
      "hit": false,
      "t": 64640,
      "d": 176.25,
      "v": 41
    },
    {
      "midi": 38,
      "hit": false,
      "t": 64778.75,
      "d": 302.5,
      "v": 39
    },
    {
      "midi": 78,
      "hit": false,
      "t": 64833.75,
      "d": 1390,
      "v": 38
    },
    {
      "midi": 45,
      "hit": false,
      "t": 65073.75,
      "d": 247.5,
      "v": 41
    },
    {
      "midi": 50,
      "hit": false,
      "t": 65367.5,
      "d": 235,
      "v": 51
    },
    {
      "midi": 90,
      "hit": false,
      "t": 65633.75,
      "d": 541.25,
      "v": 64
    },
    {
      "midi": 54,
      "hit": false,
      "t": 65662.5,
      "d": 343.75,
      "v": 39
    },
    {
      "midi": 57,
      "hit": false,
      "t": 65948.75,
      "d": 605,
      "v": 57
    },
    {
      "midi": 88,
      "hit": false,
      "t": 66247.5,
      "d": 631.25,
      "v": 49
    },
    {
      "midi": 54,
      "hit": false,
      "t": 66558.75,
      "d": 76.25,
      "v": 43
    },
    {
      "midi": 86,
      "hit": false,
      "t": 66798.75,
      "d": 385,
      "v": 70
    },
    {
      "midi": 85,
      "hit": false,
      "t": 67127.5,
      "d": 588.75,
      "v": 64
    },
    {
      "midi": 45,
      "hit": false,
      "t": 67140,
      "d": 301.25,
      "v": 34
    },
    {
      "midi": 86,
      "hit": false,
      "t": 67417.5,
      "d": 330,
      "v": 54
    },
    {
      "midi": 52,
      "hit": false,
      "t": 67421.25,
      "d": 233.75,
      "v": 43
    },
    {
      "midi": 88,
      "hit": false,
      "t": 67711.25,
      "d": 282.5,
      "v": 61
    },
    {
      "midi": 57,
      "hit": false,
      "t": 67716.25,
      "d": 221.25,
      "v": 41
    },
    {
      "midi": 81,
      "hit": false,
      "t": 68040,
      "d": 1177.5,
      "v": 49
    },
    {
      "midi": 61,
      "hit": false,
      "t": 68045,
      "d": 288.75,
      "v": 27
    },
    {
      "midi": 64,
      "hit": false,
      "t": 68353.75,
      "d": 555,
      "v": 36
    },
    {
      "midi": 61,
      "hit": false,
      "t": 68952.5,
      "d": 40,
      "v": 41
    },
    {
      "midi": 85,
      "hit": false,
      "t": 69261.25,
      "d": 432.5,
      "v": 61
    },
    {
      "midi": 47,
      "hit": false,
      "t": 69708.75,
      "d": 325,
      "v": 34
    },
    {
      "midi": 86,
      "hit": false,
      "t": 69713.75,
      "d": 857.5,
      "v": 45
    },
    {
      "midi": 78,
      "hit": false,
      "t": 69721.25,
      "d": 900,
      "v": 37
    },
    {
      "midi": 50,
      "hit": false,
      "t": 70042.5,
      "d": 258.75,
      "v": 43
    },
    {
      "midi": 54,
      "hit": false,
      "t": 70323.75,
      "d": 243.75,
      "v": 51
    },
    {
      "midi": 59,
      "hit": false,
      "t": 70582.5,
      "d": 361.25,
      "v": 39
    },
    {
      "midi": 85,
      "hit": false,
      "t": 70586.25,
      "d": 942.5,
      "v": 51
    },
    {
      "midi": 62,
      "hit": false,
      "t": 70901.25,
      "d": 618.75,
      "v": 43
    },
    {
      "midi": 59,
      "hit": false,
      "t": 71505,
      "d": 128.75,
      "v": 32
    },
    {
      "midi": 81,
      "hit": false,
      "t": 71515,
      "d": 261.25,
      "v": 43
    },
    {
      "midi": 85,
      "hit": false,
      "t": 71783.75,
      "d": 181.25,
      "v": 61
    },
    {
      "midi": 81,
      "hit": false,
      "t": 71907.5,
      "d": 295,
      "v": 54
    },
    {
      "midi": 40,
      "hit": false,
      "t": 72108.75,
      "d": 325,
      "v": 27
    },
    {
      "midi": 83,
      "hit": false,
      "t": 72110,
      "d": 832.5,
      "v": 43
    },
    {
      "midi": 47,
      "hit": false,
      "t": 72438.75,
      "d": 212.5,
      "v": 36
    },
    {
      "midi": 52,
      "hit": false,
      "t": 72713.75,
      "d": 193.75,
      "v": 39
    },
    {
      "midi": 76,
      "hit": false,
      "t": 72983.75,
      "d": 787.5,
      "v": 43
    },
    {
      "midi": 56,
      "hit": false,
      "t": 73003.75,
      "d": 531.25,
      "v": 34
    },
    {
      "midi": 59,
      "hit": false,
      "t": 73288.75,
      "d": 605,
      "v": 41
    },
    {
      "midi": 80,
      "hit": false,
      "t": 73588.75,
      "d": 595,
      "v": 43
    },
    {
      "midi": 81,
      "hit": false,
      "t": 73906.25,
      "d": 266.25,
      "v": 45
    },
    {
      "midi": 56,
      "hit": false,
      "t": 73926.25,
      "d": 47.5,
      "v": 30
    },
    {
      "midi": 83,
      "hit": false,
      "t": 74207.5,
      "d": 360,
      "v": 45
    },
    {
      "midi": 74,
      "hit": false,
      "t": 74556.25,
      "d": 892.5,
      "v": 45
    },
    {
      "midi": 52,
      "hit": false,
      "t": 74573.75,
      "d": 586.25,
      "v": 32
    },
    {
      "midi": 56,
      "hit": false,
      "t": 74903.75,
      "d": 698.75,
      "v": 41
    },
    {
      "midi": 59,
      "hit": false,
      "t": 75181.25,
      "d": 357.5,
      "v": 41
    },
    {
      "midi": 64,
      "hit": false,
      "t": 75478.75,
      "d": 911.25,
      "v": 30
    },
    {
      "midi": 80,
      "hit": false,
      "t": 75480,
      "d": 563.75,
      "v": 43
    },
    {
      "midi": 81,
      "hit": false,
      "t": 76072.5,
      "d": 676.25,
      "v": 43
    },
    {
      "midi": 59,
      "hit": false,
      "t": 76372.5,
      "d": 938.75,
      "v": 28
    },
    {
      "midi": 83,
      "hit": false,
      "t": 76678.75,
      "d": 346.25,
      "v": 36
    },
    {
      "midi": 88,
      "hit": false,
      "t": 77013.75,
      "d": 802.5,
      "v": 41
    },
    {
      "midi": 76,
      "hit": false,
      "t": 77928.75,
      "d": 968.75,
      "v": 39
    },
    {
      "midi": 64,
      "hit": false,
      "t": 78262.5,
      "d": 310,
      "v": 30
    },
    {
      "midi": 52,
      "hit": false,
      "t": 78836.25,
      "d": 70,
      "v": 41
    },
    {
      "midi": 45,
      "hit": false,
      "t": 79471.25,
      "d": 257.5,
      "v": 19
    },
    {
      "midi": 76,
      "hit": false,
      "t": 79486.25,
      "d": 237.5,
      "v": 34
    },
    {
      "midi": 52,
      "hit": false,
      "t": 79743.75,
      "d": 228.75,
      "v": 41
    },
    {
      "midi": 69,
      "hit": false,
      "t": 79802.5,
      "d": 31.25,
      "v": 40
    },
    {
      "midi": 69,
      "hit": false,
      "t": 79931.25,
      "d": 163.75,
      "v": 64
    },
    {
      "midi": 57,
      "hit": false,
      "t": 80053.75,
      "d": 175,
      "v": 41
    },
    {
      "midi": 69,
      "hit": false,
      "t": 80218.75,
      "d": 122.5,
      "v": 54
    },
    {
      "midi": 61,
      "hit": false,
      "t": 80318.75,
      "d": 300,
      "v": 34
    },
    {
      "midi": 76,
      "hit": false,
      "t": 80348.75,
      "d": 247.5,
      "v": 57
    },
    {
      "midi": 74,
      "hit": false,
      "t": 80613.75,
      "d": 267.5,
      "v": 46
    },
    {
      "midi": 64,
      "hit": false,
      "t": 80621.25,
      "d": 328.75,
      "v": 41
    },
    {
      "midi": 73,
      "hit": false,
      "t": 80901.25,
      "d": 490,
      "v": 54
    },
    {
      "midi": 64,
      "hit": false,
      "t": 81180,
      "d": 315,
      "v": 41
    },
    {
      "midi": 71,
      "hit": false,
      "t": 81188.75,
      "d": 252.5,
      "v": 54
    },
    {
      "midi": 69,
      "hit": false,
      "t": 81460,
      "d": 331.25,
      "v": 45
    },
    {
      "midi": 61,
      "hit": false,
      "t": 81468.75,
      "d": 348.75,
      "v": 34
    },
    {
      "midi": 71,
      "hit": false,
      "t": 81761.25,
      "d": 382.5,
      "v": 51
    },
    {
      "midi": 57,
      "hit": false,
      "t": 81783.75,
      "d": 135,
      "v": 47
    },
    {
      "midi": 69,
      "hit": false,
      "t": 82156.25,
      "d": 607.5,
      "v": 52
    },
    {
      "midi": 52,
      "hit": false,
      "t": 82382.5,
      "d": 276.25,
      "v": 45
    },
    {
      "midi": 57,
      "hit": false,
      "t": 82662.5,
      "d": 46.25,
      "v": 43
    },
    {
      "midi": 73,
      "hit": false,
      "t": 82668.75,
      "d": 290,
      "v": 48
    },
    {
      "midi": 74,
      "hit": false,
      "t": 82955,
      "d": 278.75,
      "v": 44
    },
    {
      "midi": 76,
      "hit": false,
      "t": 83238.75,
      "d": 296.25,
      "v": 51
    },
    {
      "midi": 61,
      "hit": false,
      "t": 83247.5,
      "d": 236.25,
      "v": 32
    },
    {
      "midi": 64,
      "hit": false,
      "t": 83528.75,
      "d": 120,
      "v": 47
    },
    {
      "midi": 71,
      "hit": false,
      "t": 83528.75,
      "d": 276.25,
      "v": 64
    },
    {
      "midi": 52,
      "hit": false,
      "t": 83812.5,
      "d": 41.25,
      "v": 43
    },
    {
      "midi": 69,
      "hit": false,
      "t": 83822.5,
      "d": 306.25,
      "v": 52
    },
    {
      "midi": 81,
      "hit": false,
      "t": 84115,
      "d": 365,
      "v": 51
    },
    {
      "midi": 42,
      "hit": false,
      "t": 84121.25,
      "d": 262.5,
      "v": 41
    },
    {
      "midi": 49,
      "hit": false,
      "t": 84382.5,
      "d": 236.25,
      "v": 46
    },
    {
      "midi": 69,
      "hit": false,
      "t": 84526.25,
      "d": 427.5,
      "v": 49
    },
    {
      "midi": 54,
      "hit": false,
      "t": 84671.25,
      "d": 66.25,
      "v": 36
    },
    {
      "midi": 57,
      "hit": false,
      "t": 84978.75,
      "d": 28.75,
      "v": 28
    },
    {
      "midi": 76,
      "hit": false,
      "t": 84988.75,
      "d": 195,
      "v": 28
    },
    {
      "midi": 54,
      "hit": false,
      "t": 85317.5,
      "d": 315,
      "v": 41
    },
    {
      "midi": 74,
      "hit": false,
      "t": 85348.75,
      "d": 238.75,
      "v": 41
    },
    {
      "midi": 57,
      "hit": false,
      "t": 85547.5,
      "d": 311.25,
      "v": 41
    },
    {
      "midi": 73,
      "hit": false,
      "t": 85591.25,
      "d": 263.75,
      "v": 49
    },
    {
      "midi": 71,
      "hit": false,
      "t": 85853.75,
      "d": 243.75,
      "v": 57
    },
    {
      "midi": 61,
      "hit": false,
      "t": 85865,
      "d": 263.75,
      "v": 41
    },
    {
      "midi": 69,
      "hit": false,
      "t": 86120,
      "d": 340,
      "v": 51
    },
    {
      "midi": 66,
      "hit": false,
      "t": 86123.75,
      "d": 17.5,
      "v": 23
    },
    {
      "midi": 81,
      "hit": false,
      "t": 86431.25,
      "d": 471.25,
      "v": 54
    },
    {
      "midi": 38,
      "hit": false,
      "t": 86450,
      "d": 285,
      "v": 49
    },
    {
      "midi": 45,
      "hit": false,
      "t": 86721.25,
      "d": 236.25,
      "v": 41
    },
    {
      "midi": 69,
      "hit": false,
      "t": 86853.75,
      "d": 450,
      "v": 57
    },
    {
      "midi": 50,
      "hit": false,
      "t": 87018.75,
      "d": 210,
      "v": 44
    },
    {
      "midi": 54,
      "hit": false,
      "t": 87263.75,
      "d": 50,
      "v": 39
    },
    {
      "midi": 74,
      "hit": false,
      "t": 87285,
      "d": 300,
      "v": 57
    },
    {
      "midi": 40,
      "hit": false,
      "t": 87591.25,
      "d": 292.5,
      "v": 43
    },
    {
      "midi": 76,
      "hit": false,
      "t": 87596.25,
      "d": 332.5,
      "v": 51
    },
    {
      "midi": 74,
      "hit": false,
      "t": 87855,
      "d": 338.75,
      "v": 70
    },
    {
      "midi": 47,
      "hit": false,
      "t": 87867.5,
      "d": 220,
      "v": 45
    },
    {
      "midi": 52,
      "hit": false,
      "t": 88193.75,
      "d": 160,
      "v": 41
    },
    {
      "midi": 73,
      "hit": false,
      "t": 88193.75,
      "d": 238.75,
      "v": 72
    },
    {
      "midi": 71,
      "hit": false,
      "t": 88401.25,
      "d": 337.5,
      "v": 66
    },
    {
      "midi": 76,
      "hit": false,
      "t": 88727.5,
      "d": 283.75,
      "v": 43
    },
    {
      "midi": 45,
      "hit": false,
      "t": 88742.5,
      "d": 296.25,
      "v": 39
    },
    {
      "midi": 69,
      "hit": false,
      "t": 88973.75,
      "d": 58.75,
      "v": 48
    },
    {
      "midi": 52,
      "hit": false,
      "t": 88995,
      "d": 226.25,
      "v": 41
    },
    {
      "midi": 69,
      "hit": false,
      "t": 89101.25,
      "d": 218.75,
      "v": 70
    },
    {
      "midi": 57,
      "hit": false,
      "t": 89276.25,
      "d": 212.5,
      "v": 49
    },
    {
      "midi": 69,
      "hit": false,
      "t": 89428.75,
      "d": 110,
      "v": 51
    },
    {
      "midi": 76,
      "hit": false,
      "t": 89528.75,
      "d": 303.75,
      "v": 52
    },
    {
      "midi": 74,
      "hit": false,
      "t": 89798.75,
      "d": 327.5,
      "v": 49
    },
    {
      "midi": 61,
      "hit": false,
      "t": 89828.75,
      "d": 538.75,
      "v": 36
    },
    {
      "midi": 73,
      "hit": false,
      "t": 90121.25,
      "d": 342.5,
      "v": 61
    },
    {
      "midi": 71,
      "hit": false,
      "t": 90378.75,
      "d": 286.25,
      "v": 61
    },
    {
      "midi": 57,
      "hit": false,
      "t": 90398.75,
      "d": 46.25,
      "v": 39
    },
    {
      "midi": 69,
      "hit": false,
      "t": 90643.75,
      "d": 320,
      "v": 68
    },
    {
      "midi": 42,
      "hit": false,
      "t": 90897.5,
      "d": 256.25,
      "v": 43
    },
    {
      "midi": 71,
      "hit": false,
      "t": 90938.75,
      "d": 400,
      "v": 64
    },
    {
      "midi": 49,
      "hit": false,
      "t": 91165,
      "d": 277.5,
      "v": 41
    },
    {
      "midi": 69,
      "hit": false,
      "t": 91303.75,
      "d": 542.5,
      "v": 68
    },
    {
      "midi": 54,
      "hit": false,
      "t": 91480,
      "d": 72.5,
      "v": 43
    },
    {
      "midi": 57,
      "hit": false,
      "t": 91765,
      "d": 260,
      "v": 41
    },
    {
      "midi": 73,
      "hit": false,
      "t": 91772.5,
      "d": 502.5,
      "v": 52
    },
    {
      "midi": 74,
      "hit": false,
      "t": 92040,
      "d": 251.25,
      "v": 51
    },
    {
      "midi": 61,
      "hit": false,
      "t": 92055,
      "d": 386.25,
      "v": 36
    },
    {
      "midi": 76,
      "hit": false,
      "t": 92280,
      "d": 312.5,
      "v": 52
    },
    {
      "midi": 71,
      "hit": false,
      "t": 92583.75,
      "d": 277.5,
      "v": 70
    },
    {
      "midi": 57,
      "hit": false,
      "t": 92597.5,
      "d": 36.25,
      "v": 32
    },
    {
      "midi": 69,
      "hit": false,
      "t": 92862.5,
      "d": 342.5,
      "v": 54
    },
    {
      "midi": 47,
      "hit": false,
      "t": 93168.75,
      "d": 420,
      "v": 36
    },
    {
      "midi": 81,
      "hit": false,
      "t": 93180,
      "d": 437.5,
      "v": 51
    },
    {
      "midi": 50,
      "hit": false,
      "t": 93480,
      "d": 335,
      "v": 45
    },
    {
      "midi": 69,
      "hit": false,
      "t": 93612.5,
      "d": 405,
      "v": 49
    },
    {
      "midi": 54,
      "hit": false,
      "t": 93776.25,
      "d": 317.5,
      "v": 45
    },
    {
      "midi": 74,
      "hit": false,
      "t": 94040,
      "d": 276.25,
      "v": 46
    },
    {
      "midi": 59,
      "hit": false,
      "t": 94062.5,
      "d": 791.25,
      "v": 39
    },
    {
      "midi": 76,
      "hit": false,
      "t": 94345,
      "d": 322.5,
      "v": 47
    },
    {
      "midi": 74,
      "hit": false,
      "t": 94631.25,
      "d": 330,
      "v": 57
    },
    {
      "midi": 73,
      "hit": false,
      "t": 94917.5,
      "d": 301.25,
      "v": 52
    },
    {
      "midi": 71,
      "hit": false,
      "t": 95193.75,
      "d": 60,
      "v": 61
    },
    {
      "midi": 40,
      "hit": false,
      "t": 95531.25,
      "d": 402.5,
      "v": 26
    },
    {
      "midi": 74,
      "hit": false,
      "t": 95582.5,
      "d": 975,
      "v": 49
    },
    {
      "midi": 47,
      "hit": false,
      "t": 95892.5,
      "d": 210,
      "v": 36
    },
    {
      "midi": 52,
      "hit": false,
      "t": 96170,
      "d": 175,
      "v": 43
    },
    {
      "midi": 56,
      "hit": false,
      "t": 96485,
      "d": 287.5,
      "v": 28
    },
    {
      "midi": 80,
      "hit": false,
      "t": 96491.25,
      "d": 2107.5,
      "v": 48
    },
    {
      "midi": 52,
      "hit": false,
      "t": 96827.5,
      "d": 2536.25,
      "v": 32
    },
    {
      "midi": 83,
      "hit": false,
      "t": 97421.25,
      "d": 631.25,
      "v": 36
    },
    {
      "midi": 56,
      "hit": false,
      "t": 97997.5,
      "d": 1455,
      "v": 30
    },
    {
      "midi": 88,
      "hit": false,
      "t": 98016.25,
      "d": 555,
      "v": 41
    },
    {
      "midi": 59,
      "hit": false,
      "t": 98066.25,
      "d": 1478.75,
      "v": 27
    },
    {
      "midi": 71,
      "hit": false,
      "t": 98953.75,
      "d": 943.75,
      "v": 41
    },
    {
      "midi": 57,
      "hit": false,
      "t": 100748.75,
      "d": 1963.75,
      "v": 27
    },
    {
      "midi": 69,
      "hit": false,
      "t": 100752.5,
      "d": 923.75,
      "v": 41
    },
    {
      "midi": 61,
      "hit": false,
      "t": 101083.75,
      "d": 707.5,
      "v": 36
    },
    {
      "midi": 64,
      "hit": false,
      "t": 101408.75,
      "d": 48.75,
      "v": 30
    },
    {
      "midi": 64,
      "hit": false,
      "t": 101703.75,
      "d": 1225,
      "v": 36
    },
    {
      "midi": 61,
      "hit": false,
      "t": 102588.75,
      "d": 195,
      "v": 28
    },
    {
      "midi": 69,
      "hit": false,
      "t": 102863.75,
      "d": 332.5,
      "v": 48
    },
    {
      "midi": 56,
      "hit": false,
      "t": 103191.25,
      "d": 1510,
      "v": 32
    },
    {
      "midi": 71,
      "hit": false,
      "t": 103198.75,
      "d": 831.25,
      "v": 43
    },
    {
      "midi": 59,
      "hit": false,
      "t": 103493.75,
      "d": 640,
      "v": 39
    },
    {
      "midi": 64,
      "hit": false,
      "t": 103783.75,
      "d": 130,
      "v": 51
    },
    {
      "midi": 64,
      "hit": false,
      "t": 104092.5,
      "d": 723.75,
      "v": 43
    },
    {
      "midi": 76,
      "hit": false,
      "t": 104950,
      "d": 86.25,
      "v": 41
    },
    {
      "midi": 66,
      "hit": false,
      "t": 105618.75,
      "d": 895,
      "v": 32
    },
    {
      "midi": 54,
      "hit": false,
      "t": 105643.75,
      "d": 323.75,
      "v": 27
    },
    {
      "midi": 74,
      "hit": false,
      "t": 105656.25,
      "d": 881.25,
      "v": 30
    },
    {
      "midi": 57,
      "hit": false,
      "t": 105958.75,
      "d": 1531.25,
      "v": 41
    },
    {
      "midi": 62,
      "hit": false,
      "t": 106245,
      "d": 302.5,
      "v": 49
    },
    {
      "midi": 64,
      "hit": false,
      "t": 106533.75,
      "d": 825,
      "v": 43
    },
    {
      "midi": 73,
      "hit": false,
      "t": 106568.75,
      "d": 867.5,
      "v": 43
    },
    {
      "midi": 62,
      "hit": false,
      "t": 107412.5,
      "d": 58.75,
      "v": 19
    },
    {
      "midi": 69,
      "hit": false,
      "t": 107426.25,
      "d": 600,
      "v": 43
    },
    {
      "midi": 74,
      "hit": false,
      "t": 108050,
      "d": 637.5,
      "v": 43
    },
    {
      "midi": 66,
      "hit": false,
      "t": 108055,
      "d": 551.25,
      "v": 34
    },
    {
      "midi": 45,
      "hit": false,
      "t": 108090,
      "d": 301.25,
      "v": 28
    },
    {
      "midi": 52,
      "hit": false,
      "t": 108378.75,
      "d": 246.25,
      "v": 41
    },
    {
      "midi": 57,
      "hit": false,
      "t": 108683.75,
      "d": 237.5,
      "v": 45
    },
    {
      "midi": 64,
      "hit": false,
      "t": 108977.5,
      "d": 765,
      "v": 39
    },
    {
      "midi": 73,
      "hit": false,
      "t": 108982.5,
      "d": 963.75,
      "v": 46
    },
    {
      "midi": 61,
      "hit": false,
      "t": 108988.75,
      "d": 780,
      "v": 34
    },
    {
      "midi": 71,
      "hit": false,
      "t": 109850,
      "d": 351.25,
      "v": 47
    },
    {
      "midi": 71,
      "hit": false,
      "t": 110346.25,
      "d": 153.75,
      "v": 41
    },
    {
      "midi": 50,
      "hit": false,
      "t": 110445,
      "d": 593.75,
      "v": 28
    },
    {
      "midi": 69,
      "hit": false,
      "t": 110451.25,
      "d": 966.25,
      "v": 47
    },
    {
      "midi": 54,
      "hit": false,
      "t": 110790,
      "d": 225,
      "v": 34
    },
    {
      "midi": 57,
      "hit": false,
      "t": 111067.5,
      "d": 35,
      "v": 39
    },
    {
      "midi": 66,
      "hit": false,
      "t": 111385,
      "d": 821.25,
      "v": 41
    },
    {
      "midi": 62,
      "hit": false,
      "t": 112267.5,
      "d": 41.25,
      "v": 36
    },
    {
      "midi": 69,
      "hit": false,
      "t": 112596.25,
      "d": 117.5,
      "v": 49
    },
    {
      "midi": 71,
      "hit": false,
      "t": 112718.75,
      "d": 200,
      "v": 57
    },
    {
      "midi": 69,
      "hit": false,
      "t": 112878.75,
      "d": 870,
      "v": 45
    },
    {
      "midi": 45,
      "hit": false,
      "t": 112891.25,
      "d": 316.25,
      "v": 28
    },
    {
      "midi": 52,
      "hit": false,
      "t": 113190,
      "d": 232.5,
      "v": 45
    },
    {
      "midi": 57,
      "hit": false,
      "t": 113466.25,
      "d": 211.25,
      "v": 51
    },
    {
      "midi": 61,
      "hit": false,
      "t": 113773.75,
      "d": 336.25,
      "v": 43
    },
    {
      "midi": 64,
      "hit": false,
      "t": 113777.5,
      "d": 940,
      "v": 45
    },
    {
      "midi": 61,
      "hit": false,
      "t": 114683.75,
      "d": 56.25,
      "v": 34
    },
    {
      "midi": 69,
      "hit": false,
      "t": 114980,
      "d": 302.5,
      "v": 51
    },
    {
      "midi": 68,
      "hit": false,
      "t": 115287.5,
      "d": 386.25,
      "v": 45
    },
    {
      "midi": 52,
      "hit": false,
      "t": 115297.5,
      "d": 565,
      "v": 36
    },
    {
      "midi": 69,
      "hit": false,
      "t": 115587.5,
      "d": 300,
      "v": 48
    },
    {
      "midi": 56,
      "hit": false,
      "t": 115613.75,
      "d": 360,
      "v": 43
    },
    {
      "midi": 71,
      "hit": false,
      "t": 115868.75,
      "d": 905,
      "v": 61
    },
    {
      "midi": 59,
      "hit": false,
      "t": 115878.75,
      "d": 597.5,
      "v": 45
    },
    {
      "midi": 64,
      "hit": false,
      "t": 116162.5,
      "d": 685,
      "v": 45
    },
    {
      "midi": 56,
      "hit": false,
      "t": 116520,
      "d": 778.75,
      "v": 48
    },
    {
      "midi": 68,
      "hit": false,
      "t": 116795,
      "d": 647.5,
      "v": 54
    },
    {
      "midi": 59,
      "hit": false,
      "t": 117103.75,
      "d": 237.5,
      "v": 51
    },
    {
      "midi": 69,
      "hit": false,
      "t": 117387.5,
      "d": 387.5,
      "v": 70
    },
    {
      "midi": 50,
      "hit": false,
      "t": 117717.5,
      "d": 511.25,
      "v": 45
    },
    {
      "midi": 68,
      "hit": false,
      "t": 117726.25,
      "d": 335,
      "v": 51
    },
    {
      "midi": 69,
      "hit": false,
      "t": 117992.5,
      "d": 310,
      "v": 51
    },
    {
      "midi": 56,
      "hit": false,
      "t": 118011.25,
      "d": 323.75,
      "v": 43
    },
    {
      "midi": 59,
      "hit": false,
      "t": 118293.75,
      "d": 630,
      "v": 43
    },
    {
      "midi": 71,
      "hit": false,
      "t": 118306.25,
      "d": 238.75,
      "v": 51
    },
    {
      "midi": 62,
      "hit": false,
      "t": 118600,
      "d": 666.25,
      "v": 34
    },
    {
      "midi": 50,
      "hit": false,
      "t": 118916.25,
      "d": 575,
      "v": 43
    },
    {
      "midi": 68,
      "hit": false,
      "t": 119252.5,
      "d": 567.5,
      "v": 39
    },
    {
      "midi": 56,
      "hit": false,
      "t": 119532.5,
      "d": 51.25,
      "v": 32
    },
    {
      "midi": 69,
      "hit": false,
      "t": 119856.25,
      "d": 337.5,
      "v": 45
    },
    {
      "midi": 49,
      "hit": false,
      "t": 120186.25,
      "d": 418.75,
      "v": 39
    },
    {
      "midi": 68,
      "hit": false,
      "t": 120200,
      "d": 280,
      "v": 45
    },
    {
      "midi": 69,
      "hit": false,
      "t": 120503.75,
      "d": 327.5,
      "v": 61
    },
    {
      "midi": 53,
      "hit": false,
      "t": 120510,
      "d": 542.5,
      "v": 43
    },
    {
      "midi": 56,
      "hit": false,
      "t": 120786.25,
      "d": 312.5,
      "v": 41
    },
    {
      "midi": 71,
      "hit": false,
      "t": 120790,
      "d": 285,
      "v": 68
    },
    {
      "midi": 73,
      "hit": false,
      "t": 121070,
      "d": 923.75,
      "v": 61
    },
    {
      "midi": 61,
      "hit": false,
      "t": 121083.75,
      "d": 265,
      "v": 41
    },
    {
      "midi": 56,
      "hit": false,
      "t": 121338.75,
      "d": 320,
      "v": 57
    },
    {
      "midi": 53,
      "hit": false,
      "t": 121613.75,
      "d": 446.25,
      "v": 57
    },
    {
      "midi": 68,
      "hit": false,
      "t": 121948.75,
      "d": 601.25,
      "v": 49
    },
    {
      "midi": 56,
      "hit": false,
      "t": 121953.75,
      "d": 182.5,
      "v": 45
    },
    {
      "midi": 42,
      "hit": false,
      "t": 122545,
      "d": 381.25,
      "v": 39
    },
    {
      "midi": 71,
      "hit": false,
      "t": 122550,
      "d": 963.75,
      "v": 48
    },
    {
      "midi": 49,
      "hit": false,
      "t": 122846.25,
      "d": 281.25,
      "v": 39
    },
    {
      "midi": 54,
      "hit": false,
      "t": 123165,
      "d": 93.75,
      "v": 45
    },
    {
      "midi": 57,
      "hit": false,
      "t": 123432.5,
      "d": 1033.75,
      "v": 36
    },
    {
      "midi": 69,
      "hit": false,
      "t": 123440,
      "d": 1267.5,
      "v": 47
    },
    {
      "midi": 61,
      "hit": false,
      "t": 123752.5,
      "d": 231.25,
      "v": 34
    },
    {
      "midi": 61,
      "hit": false,
      "t": 124380,
      "d": 62.5,
      "v": 39
    },
    {
      "midi": 68,
      "hit": false,
      "t": 124687.5,
      "d": 161.25,
      "v": 54
    },
    {
      "midi": 64,
      "hit": false,
      "t": 124828.75,
      "d": 207.5,
      "v": 51
    },
    {
      "midi": 66,
      "hit": false,
      "t": 125022.5,
      "d": 871.25,
      "v": 48
    },
    {
      "midi": 38,
      "hit": false,
      "t": 125035,
      "d": 312.5,
      "v": 36
    },
    {
      "midi": 45,
      "hit": false,
      "t": 125323.75,
      "d": 235,
      "v": 46
    },
    {
      "midi": 50,
      "hit": false,
      "t": 125603.75,
      "d": 218.75,
      "v": 51
    },
    {
      "midi": 54,
      "hit": false,
      "t": 125870,
      "d": 303.75,
      "v": 41
    },
    {
      "midi": 78,
      "hit": false,
      "t": 125892.5,
      "d": 563.75,
      "v": 42
    },
    {
      "midi": 57,
      "hit": false,
      "t": 126186.25,
      "d": 566.25,
      "v": 54
    },
    {
      "midi": 76,
      "hit": false,
      "t": 126482.5,
      "d": 617.5,
      "v": 61
    },
    {
      "midi": 54,
      "hit": false,
      "t": 126775,
      "d": 88.75,
      "v": 43
    },
    {
      "midi": 74,
      "hit": false,
      "t": 127041.25,
      "d": 315,
      "v": 70
    },
    {
      "midi": 73,
      "hit": false,
      "t": 127355,
      "d": 278.75,
      "v": 52
    },
    {
      "midi": 45,
      "hit": false,
      "t": 127376.25,
      "d": 261.25,
      "v": 23
    },
    {
      "midi": 52,
      "hit": false,
      "t": 127643.75,
      "d": 230,
      "v": 41
    },
    {
      "midi": 74,
      "hit": false,
      "t": 127647.5,
      "d": 282.5,
      "v": 46
    },
    {
      "midi": 76,
      "hit": false,
      "t": 127923.75,
      "d": 332.5,
      "v": 45
    },
    {
      "midi": 57,
      "hit": false,
      "t": 127933.75,
      "d": 305,
      "v": 39
    },
    {
      "midi": 69,
      "hit": false,
      "t": 128252.5,
      "d": 1125,
      "v": 45
    },
    {
      "midi": 61,
      "hit": false,
      "t": 128561.25,
      "d": 620,
      "v": 41
    },
    {
      "midi": 64,
      "hit": false,
      "t": 129106.25,
      "d": 97.5,
      "v": 41
    },
    {
      "midi": 73,
      "hit": false,
      "t": 129411.25,
      "d": 357.5,
      "v": 52
    },
    {
      "midi": 74,
      "hit": false,
      "t": 129793.75,
      "d": 835,
      "v": 43
    },
    {
      "midi": 66,
      "hit": false,
      "t": 129798.75,
      "d": 856.25,
      "v": 36
    },
    {
      "midi": 47,
      "hit": false,
      "t": 129831.25,
      "d": 242.5,
      "v": 25
    },
    {
      "midi": 50,
      "hit": false,
      "t": 130106.25,
      "d": 723.75,
      "v": 42
    },
    {
      "midi": 54,
      "hit": false,
      "t": 130376.25,
      "d": 347.5,
      "v": 45
    },
    {
      "midi": 73,
      "hit": false,
      "t": 130660,
      "d": 872.5,
      "v": 48
    },
    {
      "midi": 59,
      "hit": false,
      "t": 130670,
      "d": 380,
      "v": 41
    },
    {
      "midi": 54,
      "hit": false,
      "t": 130962.5,
      "d": 571.25,
      "v": 46
    },
    {
      "midi": 50,
      "hit": false,
      "t": 131537.5,
      "d": 70,
      "v": 45
    },
    {
      "midi": 69,
      "hit": false,
      "t": 131550,
      "d": 266.25,
      "v": 49
    },
    {
      "midi": 73,
      "hit": false,
      "t": 131821.25,
      "d": 172.5,
      "v": 66
    },
    {
      "midi": 69,
      "hit": false,
      "t": 131955,
      "d": 270,
      "v": 52
    },
    {
      "midi": 40,
      "hit": false,
      "t": 132068.75,
      "d": 395,
      "v": 23
    },
    {
      "midi": 71,
      "hit": false,
      "t": 132158.75,
      "d": 760,
      "v": 52
    },
    {
      "midi": 47,
      "hit": false,
      "t": 132367.5,
      "d": 638.75,
      "v": 39
    },
    {
      "midi": 52,
      "hit": false,
      "t": 132695,
      "d": 1195,
      "v": 39
    },
    {
      "midi": 64,
      "hit": false,
      "t": 132977.5,
      "d": 1051.25,
      "v": 48
    },
    {
      "midi": 68,
      "hit": false,
      "t": 133567.5,
      "d": 681.25,
      "v": 32
    },
    {
      "midi": 69,
      "hit": false,
      "t": 133868.75,
      "d": 300,
      "v": 41
    },
    {
      "midi": 71,
      "hit": false,
      "t": 134181.25,
      "d": 110,
      "v": 43
    },
    {
      "midi": 52,
      "hit": false,
      "t": 134497.5,
      "d": 461.25,
      "v": 34
    },
    {
      "midi": 74,
      "hit": false,
      "t": 134520,
      "d": 851.25,
      "v": 43
    },
    {
      "midi": 56,
      "hit": false,
      "t": 134801.25,
      "d": 1766.25,
      "v": 43
    },
    {
      "midi": 59,
      "hit": false,
      "t": 135088.75,
      "d": 340,
      "v": 52
    },
    {
      "midi": 76,
      "hit": false,
      "t": 135393.75,
      "d": 983.75,
      "v": 52
    },
    {
      "midi": 64,
      "hit": false,
      "t": 135402.5,
      "d": 1230,
      "v": 39
    },
    {
      "midi": 80,
      "hit": false,
      "t": 136363.75,
      "d": 330,
      "v": 45
    },
    {
      "midi": 81,
      "hit": false,
      "t": 136688.75,
      "d": 320,
      "v": 49
    },
    {
      "midi": 59,
      "hit": false,
      "t": 136697.5,
      "d": 45,
      "v": 34
    },
    {
      "midi": 83,
      "hit": false,
      "t": 136976.25,
      "d": 447.5,
      "v": 64
    },
    {
      "midi": 45,
      "hit": false,
      "t": 137278.75,
      "d": 353.75,
      "v": 24
    },
    {
      "midi": 81,
      "hit": false,
      "t": 137336.25,
      "d": 842.5,
      "v": 52
    },
    {
      "midi": 52,
      "hit": false,
      "t": 137603.75,
      "d": 223.75,
      "v": 45
    },
    {
      "midi": 57,
      "hit": false,
      "t": 137898.75,
      "d": 166.25,
      "v": 47
    },
    {
      "midi": 61,
      "hit": false,
      "t": 138175,
      "d": 288.75,
      "v": 34
    },
    {
      "midi": 76,
      "hit": false,
      "t": 138183.75,
      "d": 890,
      "v": 49
    },
    {
      "midi": 64,
      "hit": false,
      "t": 138488.75,
      "d": 603.75,
      "v": 39
    },
    {
      "midi": 61,
      "hit": false,
      "t": 139063.75,
      "d": 137.5,
      "v": 36
    },
    {
      "midi": 81,
      "hit": false,
      "t": 139073.75,
      "d": 91.25,
      "v": 48
    },
    {
      "midi": 83,
      "hit": false,
      "t": 139182.5,
      "d": 135,
      "v": 51
    },
    {
      "midi": 81,
      "hit": false,
      "t": 139282.5,
      "d": 110,
      "v": 48
    },
    {
      "midi": 80,
      "hit": false,
      "t": 139383.75,
      "d": 183.75,
      "v": 68
    },
    {
      "midi": 81,
      "hit": false,
      "t": 139506.25,
      "d": 267.5,
      "v": 72
    },
    {
      "midi": 56,
      "hit": false,
      "t": 139683.75,
      "d": 346.25,
      "v": 34
    },
    {
      "midi": 83,
      "hit": false,
      "t": 139703.75,
      "d": 796.25,
      "v": 54
    },
    {
      "midi": 59,
      "hit": false,
      "t": 139985,
      "d": 277.5,
      "v": 41
    },
    {
      "midi": 64,
      "hit": false,
      "t": 140270,
      "d": 305,
      "v": 43
    },
    {
      "midi": 76,
      "hit": false,
      "t": 140537.5,
      "d": 626.25,
      "v": 48
    },
    {
      "midi": 56,
      "hit": false,
      "t": 140603.75,
      "d": 821.25,
      "v": 34
    },
    {
      "midi": 59,
      "hit": false,
      "t": 140851.25,
      "d": 315,
      "v": 41
    },
    {
      "midi": 64,
      "hit": false,
      "t": 141145,
      "d": 275,
      "v": 43
    },
    {
      "midi": 88,
      "hit": false,
      "t": 141448.75,
      "d": 125,
      "v": 57
    },
    {
      "midi": 76,
      "hit": false,
      "t": 141452.5,
      "d": 131.25,
      "v": 48
    },
    {
      "midi": 86,
      "hit": false,
      "t": 142092.5,
      "d": 935,
      "v": 41
    },
    {
      "midi": 54,
      "hit": false,
      "t": 142108.75,
      "d": 1710,
      "v": 28
    },
    {
      "midi": 78,
      "hit": false,
      "t": 142116.25,
      "d": 907.5,
      "v": 38
    },
    {
      "midi": 57,
      "hit": false,
      "t": 142418.75,
      "d": 600,
      "v": 36
    },
    {
      "midi": 62,
      "hit": false,
      "t": 142703.75,
      "d": 897.5,
      "v": 45
    },
    {
      "midi": 85,
      "hit": false,
      "t": 143005,
      "d": 1031.25,
      "v": 54
    },
    {
      "midi": 81,
      "hit": false,
      "t": 143060,
      "d": 623.75,
      "v": 41
    },
    {
      "midi": 57,
      "hit": false,
      "t": 143615,
      "d": 392.5,
      "v": 41
    },
    {
      "midi": 81,
      "hit": false,
      "t": 143960,
      "d": 626.25,
      "v": 45
    },
    {
      "midi": 62,
      "hit": false,
      "t": 143993.75,
      "d": 47.5,
      "v": 32
    },
    {
      "midi": 78,
      "hit": false,
      "t": 144581.25,
      "d": 617.5,
      "v": 42
    },
    {
      "midi": 86,
      "hit": false,
      "t": 144600,
      "d": 663.75,
      "v": 41
    },
    {
      "midi": 45,
      "hit": false,
      "t": 144603.75,
      "d": 225,
      "v": 25
    },
    {
      "midi": 52,
      "hit": false,
      "t": 144900,
      "d": 246.25,
      "v": 36
    },
    {
      "midi": 57,
      "hit": false,
      "t": 145193.75,
      "d": 195,
      "v": 41
    },
    {
      "midi": 76,
      "hit": false,
      "t": 145452.5,
      "d": 896.25,
      "v": 41
    },
    {
      "midi": 61,
      "hit": false,
      "t": 145482.5,
      "d": 808.75,
      "v": 32
    },
    {
      "midi": 85,
      "hit": false,
      "t": 145538.75,
      "d": 860,
      "v": 51
    },
    {
      "midi": 57,
      "hit": false,
      "t": 146358.75,
      "d": 45,
      "v": 39
    },
    {
      "midi": 83,
      "hit": false,
      "t": 146371.25,
      "d": 377.5,
      "v": 49
    },
    {
      "midi": 83,
      "hit": false,
      "t": 146885,
      "d": 128.75,
      "v": 48
    },
    {
      "midi": 38,
      "hit": false,
      "t": 146943.75,
      "d": 326.25,
      "v": 43
    },
    {
      "midi": 81,
      "hit": false,
      "t": 146978.75,
      "d": 867.5,
      "v": 49
    },
    {
      "midi": 45,
      "hit": false,
      "t": 147250,
      "d": 261.25,
      "v": 40
    },
    {
      "midi": 50,
      "hit": false,
      "t": 147555,
      "d": 212.5,
      "v": 47
    },
    {
      "midi": 54,
      "hit": false,
      "t": 147833.75,
      "d": 262.5,
      "v": 34
    },
    {
      "midi": 78,
      "hit": false,
      "t": 147842.5,
      "d": 1291.25,
      "v": 47
    },
    {
      "midi": 57,
      "hit": false,
      "t": 148133.75,
      "d": 550,
      "v": 39
    },
    {
      "midi": 62,
      "hit": false,
      "t": 148740,
      "d": 91.25,
      "v": 41
    },
    {
      "midi": 81,
      "hit": false,
      "t": 149053.75,
      "d": 137.5,
      "v": 45
    },
    {
      "midi": 83,
      "hit": false,
      "t": 149183.75,
      "d": 250,
      "v": 45
    },
    {
      "midi": 81,
      "hit": false,
      "t": 149347.5,
      "d": 907.5,
      "v": 43
    },
    {
      "midi": 45,
      "hit": false,
      "t": 149361.25,
      "d": 280,
      "v": 28
    },
    {
      "midi": 52,
      "hit": false,
      "t": 149637.5,
      "d": 258.75,
      "v": 47
    },
    {
      "midi": 57,
      "hit": false,
      "t": 149946.25,
      "d": 202.5,
      "v": 43
    },
    {
      "midi": 76,
      "hit": false,
      "t": 150233.75,
      "d": 1280,
      "v": 43
    },
    {
      "midi": 61,
      "hit": false,
      "t": 150237.5,
      "d": 308.75,
      "v": 39
    },
    {
      "midi": 64,
      "hit": false,
      "t": 150545,
      "d": 781.25,
      "v": 43
    },
    {
      "midi": 61,
      "hit": false,
      "t": 151161.25,
      "d": 176.25,
      "v": 36
    },
    {
      "midi": 81,
      "hit": false,
      "t": 151468.75,
      "d": 335,
      "v": 52
    },
    {
      "midi": 52,
      "hit": false,
      "t": 151790,
      "d": 407.5,
      "v": 34
    },
    {
      "midi": 80,
      "hit": false,
      "t": 151795,
      "d": 296.25,
      "v": 54
    },
    {
      "midi": 56,
      "hit": false,
      "t": 152065,
      "d": 378.75,
      "v": 48
    },
    {
      "midi": 81,
      "hit": false,
      "t": 152081.25,
      "d": 313.75,
      "v": 57
    },
    {
      "midi": 59,
      "hit": false,
      "t": 152353.75,
      "d": 690,
      "v": 43
    },
    {
      "midi": 83,
      "hit": false,
      "t": 152382.5,
      "d": 286.25,
      "v": 64
    },
    {
      "midi": 76,
      "hit": false,
      "t": 152672.5,
      "d": 771.25,
      "v": 51
    },
    {
      "midi": 52,
      "hit": false,
      "t": 152983.75,
      "d": 625,
      "v": 39
    },
    {
      "midi": 80,
      "hit": false,
      "t": 153297.5,
      "d": 641.25,
      "v": 52
    },
    {
      "midi": 56,
      "hit": false,
      "t": 153593.75,
      "d": 605,
      "v": 45
    },
    {
      "midi": 81,
      "hit": false,
      "t": 153876.25,
      "d": 386.25,
      "v": 54
    },
    {
      "midi": 50,
      "hit": false,
      "t": 154228.75,
      "d": 405,
      "v": 45
    },
    {
      "midi": 80,
      "hit": false,
      "t": 154233.75,
      "d": 561.25,
      "v": 61
    },
    {
      "midi": 56,
      "hit": false,
      "t": 154495,
      "d": 358.75,
      "v": 45
    },
    {
      "midi": 81,
      "hit": false,
      "t": 154518.75,
      "d": 293.75,
      "v": 45
    },
    {
      "midi": 59,
      "hit": false,
      "t": 154801.25,
      "d": 656.25,
      "v": 43
    },
    {
      "midi": 83,
      "hit": false,
      "t": 154801.25,
      "d": 917.5,
      "v": 49
    },
    {
      "midi": 76,
      "hit": false,
      "t": 155083.75,
      "d": 746.25,
      "v": 45
    },
    {
      "midi": 50,
      "hit": false,
      "t": 155421.25,
      "d": 677.5,
      "v": 43
    },
    {
      "midi": 80,
      "hit": false,
      "t": 155718.75,
      "d": 648.75,
      "v": 52
    },
    {
      "midi": 56,
      "hit": false,
      "t": 156028.75,
      "d": 200,
      "v": 39
    },
    {
      "midi": 81,
      "hit": false,
      "t": 156363.75,
      "d": 411.25,
      "v": 45
    },
    {
      "midi": 49,
      "hit": false,
      "t": 156700,
      "d": 437.5,
      "v": 39
    },
    {
      "midi": 80,
      "hit": false,
      "t": 156731.25,
      "d": 297.5,
      "v": 52
    },
    {
      "midi": 81,
      "hit": false,
      "t": 157033.75,
      "d": 335,
      "v": 54
    },
    {
      "midi": 53,
      "hit": false,
      "t": 157038.75,
      "d": 495,
      "v": 43
    },
    {
      "midi": 56,
      "hit": false,
      "t": 157301.25,
      "d": 408.75,
      "v": 43
    },
    {
      "midi": 83,
      "hit": false,
      "t": 157310,
      "d": 293.75,
      "v": 57
    },
    {
      "midi": 85,
      "hit": false,
      "t": 157596.25,
      "d": 1012.5,
      "v": 68
    },
    {
      "midi": 61,
      "hit": false,
      "t": 157631.25,
      "d": 322.5,
      "v": 39
    },
    {
      "midi": 53,
      "hit": false,
      "t": 157946.25,
      "d": 607.5,
      "v": 41
    },
    {
      "midi": 80,
      "hit": false,
      "t": 158538.75,
      "d": 578.75,
      "v": 45
    },
    {
      "midi": 56,
      "hit": false,
      "t": 158558.75,
      "d": 63.75,
      "v": 41
    },
    {
      "midi": 83,
      "hit": false,
      "t": 159107.5,
      "d": 1653.75,
      "v": 43
    },
    {
      "midi": 42,
      "hit": false,
      "t": 159111.25,
      "d": 308.75,
      "v": 36
    },
    {
      "midi": 49,
      "hit": false,
      "t": 159423.75,
      "d": 251.25,
      "v": 43
    },
    {
      "midi": 54,
      "hit": false,
      "t": 159698.75,
      "d": 86.25,
      "v": 45
    },
    {
      "midi": 57,
      "hit": false,
      "t": 159993.75,
      "d": 283.75,
      "v": 39
    },
    {
      "midi": 81,
      "hit": false,
      "t": 160013.75,
      "d": 1188.75,
      "v": 43
    },
    {
      "midi": 61,
      "hit": false,
      "t": 160327.5,
      "d": 553.75,
      "v": 36
    },
    {
      "midi": 66,
      "hit": false,
      "t": 160865,
      "d": 53.75,
      "v": 36
    },
    {
      "midi": 80,
      "hit": false,
      "t": 161191.25,
      "d": 138.75,
      "v": 68
    },
    {
      "midi": 76,
      "hit": false,
      "t": 161333.75,
      "d": 235,
      "v": 64
    },
    {
      "midi": 38,
      "hit": false,
      "t": 161483.75,
      "d": 285,
      "v": 39
    },
    {
      "midi": 78,
      "hit": false,
      "t": 161568.75,
      "d": 810,
      "v": 41
    },
    {
      "midi": 45,
      "hit": false,
      "t": 161803.75,
      "d": 232.5,
      "v": 28
    },
    {
      "midi": 50,
      "hit": false,
      "t": 162080,
      "d": 215,
      "v": 45
    },
    {
      "midi": 54,
      "hit": false,
      "t": 162383.75,
      "d": 810,
      "v": 32
    },
    {
      "midi": 90,
      "hit": false,
      "t": 162388.75,
      "d": 510,
      "v": 57
    },
    {
      "midi": 88,
      "hit": false,
      "t": 162925,
      "d": 638.75,
      "v": 41
    },
    {
      "midi": 50,
      "hit": false,
      "t": 163205,
      "d": 66.25,
      "v": 43
    },
    {
      "midi": 86,
      "hit": false,
      "t": 163492.5,
      "d": 323.75,
      "v": 70
    },
    {
      "midi": 85,
      "hit": false,
      "t": 163788.75,
      "d": 565,
      "v": 61
    },
    {
      "midi": 45,
      "hit": false,
      "t": 163820,
      "d": 265,
      "v": 22
    },
    {
      "midi": 52,
      "hit": false,
      "t": 164088.75,
      "d": 230,
      "v": 41
    },
    {
      "midi": 86,
      "hit": false,
      "t": 164093.75,
      "d": 301.25,
      "v": 48
    },
    {
      "midi": 88,
      "hit": false,
      "t": 164375,
      "d": 260,
      "v": 51
    },
    {
      "midi": 57,
      "hit": false,
      "t": 164391.25,
      "d": 225,
      "v": 39
    },
    {
      "midi": 81,
      "hit": false,
      "t": 164657.5,
      "d": 1117.5,
      "v": 45
    },
    {
      "midi": 61,
      "hit": false,
      "t": 164678.75,
      "d": 533.75,
      "v": 32
    },
    {
      "midi": 64,
      "hit": false,
      "t": 164978.75,
      "d": 220,
      "v": 36
    },
    {
      "midi": 85,
      "hit": false,
      "t": 165805,
      "d": 375,
      "v": 54
    },
    {
      "midi": 78,
      "hit": false,
      "t": 166168.75,
      "d": 890,
      "v": 40
    },
    {
      "midi": 86,
      "hit": false,
      "t": 166175,
      "d": 855,
      "v": 45
    },
    {
      "midi": 47,
      "hit": false,
      "t": 166197.5,
      "d": 342.5,
      "v": 30
    },
    {
      "midi": 50,
      "hit": false,
      "t": 166463.75,
      "d": 265,
      "v": 43
    },
    {
      "midi": 54,
      "hit": false,
      "t": 166743.75,
      "d": 245,
      "v": 45
    },
    {
      "midi": 59,
      "hit": false,
      "t": 167033.75,
      "d": 303.75,
      "v": 36
    },
    {
      "midi": 85,
      "hit": false,
      "t": 167038.75,
      "d": 1027.5,
      "v": 51
    },
    {
      "midi": 62,
      "hit": false,
      "t": 167342.5,
      "d": 740,
      "v": 43
    },
    {
      "midi": 81,
      "hit": false,
      "t": 168041.25,
      "d": 310,
      "v": 43
    },
    {
      "midi": 59,
      "hit": false,
      "t": 168057.5,
      "d": 101.25,
      "v": 32
    },
    {
      "midi": 85,
      "hit": false,
      "t": 168343.75,
      "d": 215,
      "v": 57
    },
    {
      "midi": 81,
      "hit": false,
      "t": 168497.5,
      "d": 341.25,
      "v": 45
    },
    {
      "midi": 83,
      "hit": false,
      "t": 168757.5,
      "d": 917.5,
      "v": 41
    },
    {
      "midi": 40,
      "hit": false,
      "t": 168800,
      "d": 327.5,
      "v": 28
    },
    {
      "midi": 47,
      "hit": false,
      "t": 169080,
      "d": 206.25,
      "v": 41
    },
    {
      "midi": 52,
      "hit": false,
      "t": 169358.75,
      "d": 235,
      "v": 45
    },
    {
      "midi": 56,
      "hit": false,
      "t": 169665,
      "d": 960,
      "v": 34
    },
    {
      "midi": 76,
      "hit": false,
      "t": 169730,
      "d": 993.75,
      "v": 22
    },
    {
      "midi": 80,
      "hit": false,
      "t": 170341.25,
      "d": 548.75,
      "v": 45
    },
    {
      "midi": 52,
      "hit": false,
      "t": 170642.5,
      "d": 53.75,
      "v": 32
    },
    {
      "midi": 81,
      "hit": false,
      "t": 170648.75,
      "d": 687.5,
      "v": 43
    },
    {
      "midi": 83,
      "hit": false,
      "t": 170957.5,
      "d": 1213.75,
      "v": 41
    },
    {
      "midi": 52,
      "hit": false,
      "t": 171322.5,
      "d": 530,
      "v": 34
    },
    {
      "midi": 56,
      "hit": false,
      "t": 171641.25,
      "d": 728.75,
      "v": 41
    },
    {
      "midi": 59,
      "hit": false,
      "t": 171950,
      "d": 2397.5,
      "v": 34
    },
    {
      "midi": 74,
      "hit": false,
      "t": 172203.75,
      "d": 551.25,
      "v": 45
    },
    {
      "midi": 80,
      "hit": false,
      "t": 172816.25,
      "d": 273.75,
      "v": 43
    },
    {
      "midi": 81,
      "hit": false,
      "t": 173123.75,
      "d": 337.5,
      "v": 54
    },
    {
      "midi": 83,
      "hit": false,
      "t": 173418.75,
      "d": 351.25,
      "v": 45
    },
    {
      "midi": 88,
      "hit": false,
      "t": 173763.75,
      "d": 810,
      "v": 46
    },
    {
      "midi": 76,
      "hit": false,
      "t": 174600,
      "d": 963.75,
      "v": 39
    },
    {
      "midi": 64,
      "hit": false,
      "t": 174893.75,
      "d": 345,
      "v": 32
    },
    {
      "midi": 52,
      "hit": false,
      "t": 175443.75,
      "d": 87.5,
      "v": 41
    },
    {
      "midi": 45,
      "hit": false,
      "t": 176092.5,
      "d": 276.25,
      "v": 23
    },
    {
      "midi": 76,
      "hit": false,
      "t": 176100,
      "d": 323.75,
      "v": 45
    },
    {
      "midi": 52,
      "hit": false,
      "t": 176380,
      "d": 238.75,
      "v": 34
    },
    {
      "midi": 69,
      "hit": false,
      "t": 176418.75,
      "d": 16.25,
      "v": 27
    },
    {
      "midi": 69,
      "hit": false,
      "t": 176538.75,
      "d": 200,
      "v": 64
    },
    {
      "midi": 57,
      "hit": false,
      "t": 176670,
      "d": 176.25,
      "v": 45
    },
    {
      "midi": 69,
      "hit": false,
      "t": 176852.5,
      "d": 148.75,
      "v": 52
    },
    {
      "midi": 61,
      "hit": false,
      "t": 176908.75,
      "d": 390,
      "v": 36
    },
    {
      "midi": 76,
      "hit": false,
      "t": 177007.5,
      "d": 206.25,
      "v": 54
    },
    {
      "midi": 64,
      "hit": false,
      "t": 177236.25,
      "d": 372.5,
      "v": 45
    },
    {
      "midi": 74,
      "hit": false,
      "t": 177240,
      "d": 343.75,
      "v": 51
    },
    {
      "midi": 73,
      "hit": false,
      "t": 177556.25,
      "d": 386.25,
      "v": 61
    },
    {
      "midi": 64,
      "hit": false,
      "t": 177823.75,
      "d": 278.75,
      "v": 45
    },
    {
      "midi": 71,
      "hit": false,
      "t": 177830,
      "d": 267.5,
      "v": 68
    },
    {
      "midi": 69,
      "hit": false,
      "t": 178093.75,
      "d": 340,
      "v": 54
    },
    {
      "midi": 61,
      "hit": false,
      "t": 178097.5,
      "d": 361.25,
      "v": 39
    },
    {
      "midi": 71,
      "hit": false,
      "t": 178386.25,
      "d": 392.5,
      "v": 64
    },
    {
      "midi": 57,
      "hit": false,
      "t": 178403.75,
      "d": 168.75,
      "v": 49
    },
    {
      "midi": 69,
      "hit": false,
      "t": 178793.75,
      "d": 565,
      "v": 49
    },
    {
      "midi": 52,
      "hit": false,
      "t": 178997.5,
      "d": 285,
      "v": 45
    },
    {
      "midi": 57,
      "hit": false,
      "t": 179286.25,
      "d": 62.5,
      "v": 43
    },
    {
      "midi": 73,
      "hit": false,
      "t": 179297.5,
      "d": 541.25,
      "v": 52
    },
    {
      "midi": 74,
      "hit": false,
      "t": 179586.25,
      "d": 297.5,
      "v": 42
    },
    {
      "midi": 76,
      "hit": false,
      "t": 179855,
      "d": 323.75,
      "v": 45
    },
    {
      "midi": 61,
      "hit": false,
      "t": 179858.75,
      "d": 315,
      "v": 43
    },
    {
      "midi": 64,
      "hit": false,
      "t": 180136.25,
      "d": 172.5,
      "v": 39
    },
    {
      "midi": 71,
      "hit": false,
      "t": 180138.75,
      "d": 265,
      "v": 61
    },
    {
      "midi": 57,
      "hit": false,
      "t": 180421.25,
      "d": 25,
      "v": 30
    },
    {
      "midi": 69,
      "hit": false,
      "t": 180425,
      "d": 393.75,
      "v": 48
    },
    {
      "midi": 81,
      "hit": false,
      "t": 180721.25,
      "d": 403.75,
      "v": 51
    },
    {
      "midi": 42,
      "hit": false,
      "t": 180735,
      "d": 272.5,
      "v": 45
    },
    {
      "midi": 49,
      "hit": false,
      "t": 180991.25,
      "d": 237.5,
      "v": 45
    },
    {
      "midi": 69,
      "hit": false,
      "t": 181147.5,
      "d": 376.25,
      "v": 54
    },
    {
      "midi": 54,
      "hit": false,
      "t": 181253.75,
      "d": 75,
      "v": 49
    },
    {
      "midi": 76,
      "hit": false,
      "t": 181550,
      "d": 298.75,
      "v": 48
    },
    {
      "midi": 57,
      "hit": false,
      "t": 181598.75,
      "d": 8.75,
      "v": 15
    },
    {
      "midi": 74,
      "hit": false,
      "t": 181825,
      "d": 318.75,
      "v": 57
    },
    {
      "midi": 54,
      "hit": false,
      "t": 181851.25,
      "d": 335,
      "v": 36
    },
    {
      "midi": 73,
      "hit": false,
      "t": 182107.5,
      "d": 330,
      "v": 61
    },
    {
      "midi": 57,
      "hit": false,
      "t": 182120,
      "d": 233.75,
      "v": 43
    },
    {
      "midi": 71,
      "hit": false,
      "t": 182373.75,
      "d": 285,
      "v": 70
    },
    {
      "midi": 61,
      "hit": false,
      "t": 182385,
      "d": 268.75,
      "v": 47
    },
    {
      "midi": 66,
      "hit": false,
      "t": 182632.5,
      "d": 31.25,
      "v": 34
    },
    {
      "midi": 69,
      "hit": false,
      "t": 182663.75,
      "d": 312.5,
      "v": 61
    },
    {
      "midi": 81,
      "hit": false,
      "t": 182966.25,
      "d": 442.5,
      "v": 61
    },
    {
      "midi": 38,
      "hit": false,
      "t": 183003.75,
      "d": 288.75,
      "v": 43
    },
    {
      "midi": 45,
      "hit": false,
      "t": 183243.75,
      "d": 230,
      "v": 54
    },
    {
      "midi": 69,
      "hit": false,
      "t": 183381.25,
      "d": 432.5,
      "v": 64
    },
    {
      "midi": 50,
      "hit": false,
      "t": 183547.5,
      "d": 210,
      "v": 44
    },
    {
      "midi": 54,
      "hit": false,
      "t": 183778.75,
      "d": 61.25,
      "v": 45
    },
    {
      "midi": 74,
      "hit": false,
      "t": 183797.5,
      "d": 311.25,
      "v": 68
    },
    {
      "midi": 40,
      "hit": false,
      "t": 184088.75,
      "d": 277.5,
      "v": 43
    },
    {
      "midi": 76,
      "hit": false,
      "t": 184103.75,
      "d": 350,
      "v": 57
    },
    {
      "midi": 47,
      "hit": false,
      "t": 184352.5,
      "d": 205,
      "v": 48
    },
    {
      "midi": 74,
      "hit": false,
      "t": 184358.75,
      "d": 330,
      "v": 70
    },
    {
      "midi": 52,
      "hit": false,
      "t": 184606.25,
      "d": 212.5,
      "v": 47
    },
    {
      "midi": 73,
      "hit": false,
      "t": 184636.25,
      "d": 268.75,
      "v": 70
    },
    {
      "midi": 71,
      "hit": false,
      "t": 184891.25,
      "d": 297.5,
      "v": 66
    },
    {
      "midi": 76,
      "hit": false,
      "t": 185182.5,
      "d": 316.25,
      "v": 52
    },
    {
      "midi": 45,
      "hit": false,
      "t": 185200,
      "d": 305,
      "v": 42
    },
    {
      "midi": 69,
      "hit": false,
      "t": 185468.75,
      "d": 60,
      "v": 51
    },
    {
      "midi": 52,
      "hit": false,
      "t": 185505,
      "d": 198.75,
      "v": 41
    },
    {
      "midi": 69,
      "hit": false,
      "t": 185613.75,
      "d": 185,
      "v": 54
    },
    {
      "midi": 57,
      "hit": false,
      "t": 185758.75,
      "d": 377.5,
      "v": 43
    },
    {
      "midi": 69,
      "hit": false,
      "t": 185908.75,
      "d": 110,
      "v": 66
    },
    {
      "midi": 76,
      "hit": false,
      "t": 186021.25,
      "d": 297.5,
      "v": 48
    },
    {
      "midi": 74,
      "hit": false,
      "t": 186292.5,
      "d": 300,
      "v": 49
    },
    {
      "midi": 61,
      "hit": false,
      "t": 186325,
      "d": 638.75,
      "v": 41
    },
    {
      "midi": 73,
      "hit": false,
      "t": 186585,
      "d": 570,
      "v": 64
    },
    {
      "midi": 64,
      "hit": false,
      "t": 186853.75,
      "d": 63.75,
      "v": 45
    },
    {
      "midi": 71,
      "hit": false,
      "t": 186868.75,
      "d": 317.5,
      "v": 68
    },
    {
      "midi": 57,
      "hit": false,
      "t": 186906.25,
      "d": 80,
      "v": 43
    },
    {
      "midi": 69,
      "hit": false,
      "t": 187143.75,
      "d": 315,
      "v": 70
    },
    {
      "midi": 71,
      "hit": false,
      "t": 187417.5,
      "d": 396.25,
      "v": 61
    },
    {
      "midi": 42,
      "hit": false,
      "t": 187426.25,
      "d": 235,
      "v": 43
    },
    {
      "midi": 49,
      "hit": false,
      "t": 187682.5,
      "d": 260,
      "v": 49
    },
    {
      "midi": 69,
      "hit": false,
      "t": 187805,
      "d": 517.5,
      "v": 72
    },
    {
      "midi": 54,
      "hit": false,
      "t": 187975,
      "d": 102.5,
      "v": 49
    },
    {
      "midi": 57,
      "hit": false,
      "t": 188248.75,
      "d": 267.5,
      "v": 39
    },
    {
      "midi": 73,
      "hit": false,
      "t": 188263.75,
      "d": 495,
      "v": 64
    },
    {
      "midi": 61,
      "hit": false,
      "t": 188527.5,
      "d": 506.25,
      "v": 41
    },
    {
      "midi": 74,
      "hit": false,
      "t": 188536.25,
      "d": 247.5,
      "v": 52
    },
    {
      "midi": 76,
      "hit": false,
      "t": 188776.25,
      "d": 340,
      "v": 61
    },
    {
      "midi": 57,
      "hit": false,
      "t": 189068.75,
      "d": 61.25,
      "v": 43
    },
    {
      "midi": 71,
      "hit": false,
      "t": 189088.75,
      "d": 252.5,
      "v": 72
    },
    {
      "midi": 69,
      "hit": false,
      "t": 189350,
      "d": 467.5,
      "v": 61
    },
    {
      "midi": 47,
      "hit": false,
      "t": 189676.25,
      "d": 462.5,
      "v": 34
    },
    {
      "midi": 81,
      "hit": false,
      "t": 189713.75,
      "d": 455,
      "v": 41
    },
    {
      "midi": 50,
      "hit": false,
      "t": 190000,
      "d": 523.75,
      "v": 44
    },
    {
      "midi": 69,
      "hit": false,
      "t": 190143.75,
      "d": 437.5,
      "v": 52
    },
    {
      "midi": 54,
      "hit": false,
      "t": 190308.75,
      "d": 262.5,
      "v": 49
    },
    {
      "midi": 74,
      "hit": false,
      "t": 190586.25,
      "d": 277.5,
      "v": 51
    },
    {
      "midi": 59,
      "hit": false,
      "t": 190591.25,
      "d": 757.5,
      "v": 41
    },
    {
      "midi": 76,
      "hit": false,
      "t": 190876.25,
      "d": 390,
      "v": 54
    },
    {
      "midi": 74,
      "hit": false,
      "t": 191168.75,
      "d": 385,
      "v": 61
    },
    {
      "midi": 73,
      "hit": false,
      "t": 191495,
      "d": 301.25,
      "v": 64
    },
    {
      "midi": 71,
      "hit": false,
      "t": 191760,
      "d": 68.75,
      "v": 64
    },
    {
      "midi": 40,
      "hit": false,
      "t": 192188.75,
      "d": 400,
      "v": 30
    },
    {
      "midi": 74,
      "hit": false,
      "t": 192237.5,
      "d": 2012.5,
      "v": 48
    },
    {
      "midi": 47,
      "hit": false,
      "t": 192540,
      "d": 211.25,
      "v": 39
    },
    {
      "midi": 52,
      "hit": false,
      "t": 192807.5,
      "d": 145,
      "v": 45
    },
    {
      "midi": 56,
      "hit": false,
      "t": 193097.5,
      "d": 216.25,
      "v": 39
    },
    {
      "midi": 80,
      "hit": false,
      "t": 193106.25,
      "d": 1598.75,
      "v": 45
    },
    {
      "midi": 59,
      "hit": false,
      "t": 193377.5,
      "d": 77.5,
      "v": 43
    },
    {
      "midi": 64,
      "hit": false,
      "t": 193693.75,
      "d": 252.5,
      "v": 34
    },
    {
      "midi": 68,
      "hit": false,
      "t": 194033.75,
      "d": 2955,
      "v": 32
    },
    {
      "midi": 71,
      "hit": false,
      "t": 194338.75,
      "d": 2663.75,
      "v": 41
    },
    {
      "midi": 76,
      "hit": false,
      "t": 194740,
      "d": 941.25,
      "v": 45
    },
    {
      "midi": 80,
      "hit": false,
      "t": 195172.5,
      "d": 633.75,
      "v": 34
    },
    {
      "midi": 83,
      "hit": false,
      "t": 195681.25,
      "d": 462.5,
      "v": 34
    },
    {
      "midi": 88,
      "hit": false,
      "t": 196121.25,
      "d": 813.75,
      "v": 39
    },
    {
      "midi": 93,
      "hit": false,
      "t": 198448.75,
      "d": 580,
      "v": 45
    },
    {
      "midi": 93,
      "hit": false,
      "t": 199303.75,
      "d": 980,
      "v": 48
    },
    {
      "midi": 69,
      "hit": false,
      "t": 199316.25,
      "d": 602.5,
      "v": 43
    },
    {
      "midi": 73,
      "hit": false,
      "t": 199617.5,
      "d": 250,
      "v": 41
    },
    {
      "midi": 76,
      "hit": false,
      "t": 199883.75,
      "d": 295,
      "v": 41
    },
    {
      "midi": 88,
      "hit": false,
      "t": 200178.75,
      "d": 1076.25,
      "v": 51
    },
    {
      "midi": 73,
      "hit": false,
      "t": 200186.25,
      "d": 302.5,
      "v": 41
    },
    {
      "midi": 69,
      "hit": false,
      "t": 200493.75,
      "d": 625,
      "v": 39
    },
    {
      "midi": 81,
      "hit": false,
      "t": 201103.75,
      "d": 1435,
      "v": 32
    },
    {
      "midi": 76,
      "hit": false,
      "t": 201113.75,
      "d": 108.75,
      "v": 32
    },
    {
      "midi": 73,
      "hit": false,
      "t": 201118.75,
      "d": 145,
      "v": 39
    },
    {
      "midi": 93,
      "hit": false,
      "t": 201743.75,
      "d": 846.25,
      "v": 57
    },
    {
      "midi": 66,
      "hit": false,
      "t": 201748.75,
      "d": 455,
      "v": 41
    },
    {
      "midi": 69,
      "hit": false,
      "t": 202046.25,
      "d": 297.5,
      "v": 39
    },
    {
      "midi": 74,
      "hit": false,
      "t": 202357.5,
      "d": 260,
      "v": 47
    },
    {
      "midi": 86,
      "hit": false,
      "t": 202621.25,
      "d": 563.75,
      "v": 54
    },
    {
      "midi": 69,
      "hit": false,
      "t": 202631.25,
      "d": 633.75,
      "v": 39
    },
    {
      "midi": 66,
      "hit": false,
      "t": 202938.75,
      "d": 545,
      "v": 30
    },
    {
      "midi": 74,
      "hit": false,
      "t": 202943.75,
      "d": 572.5,
      "v": 41
    },
    {
      "midi": 81,
      "hit": false,
      "t": 203217.5,
      "d": 325,
      "v": 39
    },
    {
      "midi": 90,
      "hit": false,
      "t": 203536.25,
      "d": 197.5,
      "v": 57
    },
    {
      "midi": 69,
      "hit": false,
      "t": 203561.25,
      "d": 42.5,
      "v": 36
    },
    {
      "midi": 88,
      "hit": false,
      "t": 203668.75,
      "d": 207.5,
      "v": 57
    },
    {
      "midi": 86,
      "hit": false,
      "t": 203816.25,
      "d": 1117.5,
      "v": 68
    },
    {
      "midi": 57,
      "hit": false,
      "t": 204108.75,
      "d": 273.75,
      "v": 39
    },
    {
      "midi": 88,
      "hit": false,
      "t": 204118.75,
      "d": 815,
      "v": 48
    },
    {
      "midi": 64,
      "hit": false,
      "t": 204396.25,
      "d": 192.5,
      "v": 41
    },
    {
      "midi": 69,
      "hit": false,
      "t": 204660,
      "d": 196.25,
      "v": 43
    },
    {
      "midi": 81,
      "hit": false,
      "t": 204937.5,
      "d": 916.25,
      "v": 45
    },
    {
      "midi": 73,
      "hit": false,
      "t": 204940,
      "d": 341.25,
      "v": 31
    },
    {
      "midi": 69,
      "hit": false,
      "t": 205243.75,
      "d": 705,
      "v": 41
    },
    {
      "midi": 76,
      "hit": false,
      "t": 205847.5,
      "d": 76.25,
      "v": 43
    },
    {
      "midi": 73,
      "hit": false,
      "t": 205853.75,
      "d": 88.75,
      "v": 39
    },
    {
      "midi": 86,
      "hit": false,
      "t": 205888.75,
      "d": 240,
      "v": 43
    },
    {
      "midi": 85,
      "hit": false,
      "t": 206143.75,
      "d": 315,
      "v": 72
    },
    {
      "midi": 78,
      "hit": false,
      "t": 206476.25,
      "d": 471.25,
      "v": 42
    },
    {
      "midi": 86,
      "hit": false,
      "t": 206480,
      "d": 398.75,
      "v": 48
    },
    {
      "midi": 54,
      "hit": false,
      "t": 206498.75,
      "d": 1568.75,
      "v": 30
    },
    {
      "midi": 57,
      "hit": false,
      "t": 206767.5,
      "d": 580,
      "v": 43
    },
    {
      "midi": 85,
      "hit": false,
      "t": 206878.75,
      "d": 540,
      "v": 68
    },
    {
      "midi": 62,
      "hit": false,
      "t": 207060,
      "d": 887.5,
      "v": 47
    },
    {
      "midi": 81,
      "hit": false,
      "t": 207343.75,
      "d": 245,
      "v": 64
    },
    {
      "midi": 57,
      "hit": false,
      "t": 207952.5,
      "d": 363.75,
      "v": 41
    },
    {
      "midi": 69,
      "hit": false,
      "t": 208271.25,
      "d": 481.25,
      "v": 52
    },
    {
      "midi": 62,
      "hit": false,
      "t": 208308.75,
      "d": 41.25,
      "v": 28
    },
    {
      "midi": 81,
      "hit": false,
      "t": 208578.75,
      "d": 206.25,
      "v": 66
    },
    {
      "midi": 81,
      "hit": false,
      "t": 208942.5,
      "d": 985,
      "v": 54
    },
    {
      "midi": 45,
      "hit": false,
      "t": 208947.5,
      "d": 366.25,
      "v": 43
    },
    {
      "midi": 69,
      "hit": false,
      "t": 208951.25,
      "d": 912.5,
      "v": 52
    },
    {
      "midi": 52,
      "hit": false,
      "t": 209267.5,
      "d": 816.25,
      "v": 48
    },
    {
      "midi": 57,
      "hit": false,
      "t": 209583.75,
      "d": 820,
      "v": 61
    },
    {
      "midi": 76,
      "hit": false,
      "t": 209857.5,
      "d": 1173.75,
      "v": 52
    },
    {
      "midi": 52,
      "hit": false,
      "t": 210411.25,
      "d": 318.75,
      "v": 43
    },
    {
      "midi": 83,
      "hit": false,
      "t": 210733.75,
      "d": 170,
      "v": 52
    },
    {
      "midi": 57,
      "hit": false,
      "t": 210748.75,
      "d": 78.75,
      "v": 41
    },
    {
      "midi": 69,
      "hit": false,
      "t": 211025,
      "d": 1083.75,
      "v": 39
    },
    {
      "midi": 81,
      "hit": false,
      "t": 211318.75,
      "d": 838.75,
      "v": 54
    },
    {
      "midi": 54,
      "hit": false,
      "t": 211336.25,
      "d": 437.5,
      "v": 41
    },
    {
      "midi": 57,
      "hit": false,
      "t": 211603.75,
      "d": 288.75,
      "v": 43
    },
    {
      "midi": 62,
      "hit": false,
      "t": 211898.75,
      "d": 268.75,
      "v": 48
    },
    {
      "midi": 74,
      "hit": false,
      "t": 212148.75,
      "d": 885,
      "v": 52
    },
    {
      "midi": 57,
      "hit": false,
      "t": 212181.25,
      "d": 647.5,
      "v": 39
    },
    {
      "midi": 54,
      "hit": false,
      "t": 212443.75,
      "d": 610,
      "v": 41
    },
    {
      "midi": 62,
      "hit": false,
      "t": 212477.5,
      "d": 571.25,
      "v": 45
    },
    {
      "midi": 69,
      "hit": false,
      "t": 212746.25,
      "d": 357.5,
      "v": 43
    },
    {
      "midi": 78,
      "hit": false,
      "t": 213040,
      "d": 162.5,
      "v": 44
    },
    {
      "midi": 57,
      "hit": false,
      "t": 213103.75,
      "d": 16.25,
      "v": 36
    },
    {
      "midi": 76,
      "hit": false,
      "t": 213166.25,
      "d": 212.5,
      "v": 54
    },
    {
      "midi": 74,
      "hit": false,
      "t": 213303.75,
      "d": 1198.75,
      "v": 70
    },
    {
      "midi": 76,
      "hit": false,
      "t": 213613.75,
      "d": 870,
      "v": 51
    },
    {
      "midi": 45,
      "hit": false,
      "t": 213618.75,
      "d": 341.25,
      "v": 30
    },
    {
      "midi": 52,
      "hit": false,
      "t": 213901.25,
      "d": 710,
      "v": 48
    },
    {
      "midi": 57,
      "hit": false,
      "t": 214215,
      "d": 1461.25,
      "v": 45
    },
    {
      "midi": 69,
      "hit": false,
      "t": 214507.5,
      "d": 441.25,
      "v": 45
    },
    {
      "midi": 52,
      "hit": false,
      "t": 215122.5,
      "d": 601.25,
      "v": 39
    },
    {
      "midi": 66,
      "hit": false,
      "t": 215411.25,
      "d": 207.5,
      "v": 46
    },
    {
      "midi": 74,
      "hit": false,
      "t": 215416.25,
      "d": 225,
      "v": 44
    },
    {
      "midi": 73,
      "hit": false,
      "t": 215708.75,
      "d": 25,
      "v": 34
    },
    {
      "midi": 42,
      "hit": false,
      "t": 216061.25,
      "d": 686.25,
      "v": 45
    },
    {
      "midi": 86,
      "hit": false,
      "t": 216066.25,
      "d": 443.75,
      "v": 57
    },
    {
      "midi": 78,
      "hit": false,
      "t": 216077.5,
      "d": 521.25,
      "v": 48
    },
    {
      "midi": 45,
      "hit": false,
      "t": 216363.75,
      "d": 696.25,
      "v": 47
    },
    {
      "midi": 85,
      "hit": false,
      "t": 216458.75,
      "d": 558.75,
      "v": 64
    },
    {
      "midi": 50,
      "hit": false,
      "t": 216622.5,
      "d": 1213.75,
      "v": 57
    },
    {
      "midi": 81,
      "hit": false,
      "t": 216920,
      "d": 430,
      "v": 61
    },
    {
      "midi": 45,
      "hit": false,
      "t": 217451.25,
      "d": 328.75,
      "v": 34
    },
    {
      "midi": 78,
      "hit": false,
      "t": 217718.75,
      "d": 202.5,
      "v": 48
    },
    {
      "midi": 81,
      "hit": false,
      "t": 217883.75,
      "d": 146.25,
      "v": 54
    },
    {
      "midi": 81,
      "hit": false,
      "t": 218485,
      "d": 896.25,
      "v": 51
    },
    {
      "midi": 76,
      "hit": false,
      "t": 218491.25,
      "d": 623.75,
      "v": 45
    },
    {
      "midi": 45,
      "hit": false,
      "t": 218528.75,
      "d": 295,
      "v": 42
    },
    {
      "midi": 52,
      "hit": false,
      "t": 218783.75,
      "d": 630,
      "v": 45
    },
    {
      "midi": 57,
      "hit": false,
      "t": 219077.5,
      "d": 918.75,
      "v": 61
    },
    {
      "midi": 76,
      "hit": false,
      "t": 219365,
      "d": 698.75,
      "v": 52
    },
    {
      "midi": 69,
      "hit": false,
      "t": 219368.75,
      "d": 597.5,
      "v": 52
    },
    {
      "midi": 52,
      "hit": false,
      "t": 219970,
      "d": 266.25,
      "v": 49
    },
    {
      "midi": 76,
      "hit": false,
      "t": 220246.25,
      "d": 431.25,
      "v": 68
    },
    {
      "midi": 81,
      "hit": false,
      "t": 220253.75,
      "d": 371.25,
      "v": 61
    },
    {
      "midi": 57,
      "hit": false,
      "t": 220288.75,
      "d": 563.75,
      "v": 43
    },
    {
      "midi": 76,
      "hit": false,
      "t": 220835,
      "d": 631.25,
      "v": 49
    },
    {
      "midi": 81,
      "hit": false,
      "t": 220847.5,
      "d": 885,
      "v": 48
    },
    {
      "midi": 50,
      "hit": false,
      "t": 220851.25,
      "d": 930,
      "v": 43
    },
    {
      "midi": 54,
      "hit": false,
      "t": 221168.75,
      "d": 733.75,
      "v": 46
    },
    {
      "midi": 57,
      "hit": false,
      "t": 221460,
      "d": 903.75,
      "v": 64
    },
    {
      "midi": 74,
      "hit": false,
      "t": 221758.75,
      "d": 657.5,
      "v": 64
    },
    {
      "midi": 54,
      "hit": false,
      "t": 222321.25,
      "d": 133.75,
      "v": 46
    },
    {
      "midi": 78,
      "hit": false,
      "t": 222637.5,
      "d": 158.75,
      "v": 47
    },
    {
      "midi": 74,
      "hit": false,
      "t": 222646.25,
      "d": 118.75,
      "v": 46
    },
    {
      "midi": 76,
      "hit": false,
      "t": 222781.25,
      "d": 202.5,
      "v": 52
    },
    {
      "midi": 74,
      "hit": false,
      "t": 222902.5,
      "d": 1198.75,
      "v": 64
    },
    {
      "midi": 45,
      "hit": false,
      "t": 223177.5,
      "d": 2002.5,
      "v": 28
    },
    {
      "midi": 76,
      "hit": false,
      "t": 223206.25,
      "d": 875,
      "v": 39
    },
    {
      "midi": 52,
      "hit": false,
      "t": 223503.75,
      "d": 1111.25,
      "v": 34
    },
    {
      "midi": 57,
      "hit": false,
      "t": 223807.5,
      "d": 1251.25,
      "v": 45
    },
    {
      "midi": 69,
      "hit": false,
      "t": 224113.75,
      "d": 955,
      "v": 45
    },
    {
      "midi": 76,
      "hit": false,
      "t": 225058.75,
      "d": 285,
      "v": 48
    },
    {
      "midi": 52,
      "hit": false,
      "t": 225061.25,
      "d": 66.25,
      "v": 39
    },
    {
      "midi": 73,
      "hit": false,
      "t": 225333.75,
      "d": 310,
      "v": 66
    },
    {
      "midi": 38,
      "hit": false,
      "t": 225622.5,
      "d": 606.25,
      "v": 41
    },
    {
      "midi": 74,
      "hit": false,
      "t": 225636.25,
      "d": 545,
      "v": 46
    },
    {
      "midi": 45,
      "hit": false,
      "t": 225958.75,
      "d": 430,
      "v": 30
    },
    {
      "midi": 73,
      "hit": false,
      "t": 226151.25,
      "d": 1248.75,
      "v": 48
    },
    {
      "midi": 50,
      "hit": false,
      "t": 226398.75,
      "d": 245,
      "v": 36
    },
    {
      "midi": 69,
      "hit": false,
      "t": 226668.75,
      "d": 1332.5,
      "v": 48
    },
    {
      "midi": 62,
      "hit": false,
      "t": 227296.25,
      "d": 302.5,
      "v": 41
    },
    {
      "midi": 64,
      "hit": false,
      "t": 227608.75,
      "d": 255,
      "v": 41
    },
    {
      "midi": 62,
      "hit": false,
      "t": 227901.25,
      "d": 1407.5,
      "v": 45
    },
    {
      "midi": 69,
      "hit": false,
      "t": 228251.25,
      "d": 1962.5,
      "v": 52
    },
    {
      "midi": 74,
      "hit": false,
      "t": 228938.75,
      "d": 1358.75,
      "v": 47
    },
    {
      "midi": 76,
      "hit": false,
      "t": 229638.75,
      "d": 682.5,
      "v": 43
    },
    {
      "midi": 69,
      "hit": false,
      "t": 230447.5,
      "d": 822.5,
      "v": 25
    },
    {
      "midi": 74,
      "hit": false,
      "t": 230497.5,
      "d": 2430,
      "v": 39
    },
    {
      "midi": 76,
      "hit": false,
      "t": 230543.75,
      "d": 2362.5,
      "v": 28
    },
    {
      "midi": 81,
      "hit": false,
      "t": 230633.75,
      "d": 646.25,
      "v": 43
    },
    {
      "midi": 83,
      "hit": false,
      "t": 231656.25,
      "d": 703.75,
      "v": 39
    },
    {
      "midi": 81,
      "hit": false,
      "t": 232881.25,
      "d": 2677.5,
      "v": 41
    },
    {
      "midi": 45,
      "hit": false,
      "t": 232941.25,
      "d": 472.5,
      "v": 26
    },
    {
      "midi": 52,
      "hit": false,
      "t": 233400,
      "d": 296.25,
      "v": 27
    },
    {
      "midi": 57,
      "hit": false,
      "t": 233756.25,
      "d": 116.25,
      "v": 32
    },
    {
      "midi": 59,
      "hit": false,
      "t": 234065,
      "d": 246.25,
      "v": 34
    },
    {
      "midi": 64,
      "hit": false,
      "t": 234375,
      "d": 276.25,
      "v": 39
    },
    {
      "midi": 69,
      "hit": false,
      "t": 234778.75,
      "d": 5105,
      "v": 30
    },
    {
      "midi": 71,
      "hit": false,
      "t": 235241.25,
      "d": 4642.5,
      "v": 36
    },
    {
      "midi": 76,
      "hit": false,
      "t": 235603.75,
      "d": 471.25,
      "v": 43
    },
    {
      "midi": 81,
      "hit": false,
      "t": 236052.5,
      "d": 560,
      "v": 32
    },
    {
      "midi": 83,
      "hit": false,
      "t": 236497.5,
      "d": 432.5,
      "v": 39
    },
    {
      "midi": 88,
      "hit": false,
      "t": 236946.25,
      "d": 92.5,
      "v": 36
    },
    {
      "midi": 93,
      "hit": false,
      "t": 237528.75,
      "d": 620,
      "v": 23
    },
    {
      "midi": 100,
      "hit": false,
      "t": 238166.25,
      "d": 1171.25,
      "v": 27
    }
  ]
}