{
  "jsonPath": "Classical/Operatic Pop/Yanni/one-mans-dream.json",
  "path": "Classical\\Operatic Pop\\Yanni\\One Mans Dream.mid",
  "name": "One Mans Dream",
  "difficulty": "Advanced",
  "bpm": 100,
  "notes": [
    {
      "midi": 60,
      "hit": false,
      "t": 4285.712,
      "d": 647.3210833333342,
      "v": 111
    },
    {
      "midi": 62,
      "hit": false,
      "t": 4821.426000000001,
      "d": 535.7139999999999,
      "v": 104
    },
    {
      "midi": 63,
      "hit": false,
      "t": 5379.461416666668,
      "d": 468.74974999999995,
      "v": 111
    },
    {
      "midi": 67,
      "hit": false,
      "t": 5904.014708333335,
      "d": 647.3210833333333,
      "v": 110
    },
    {
      "midi": 60,
      "hit": false,
      "t": 6439.728708333335,
      "d": 691.9639166666675,
      "v": 111
    },
    {
      "midi": 62,
      "hit": false,
      "t": 7008.924833333335,
      "d": 535.7140000000009,
      "v": 99
    },
    {
      "midi": 63,
      "hit": false,
      "t": 7522.3174166666695,
      "d": 479.91045833333374,
      "v": 113
    },
    {
      "midi": 67,
      "hit": false,
      "t": 8046.870708333337,
      "d": 624.9996666666675,
      "v": 114
    },
    {
      "midi": 60,
      "hit": false,
      "t": 8560.26329166667,
      "d": 691.9639166666675,
      "v": 117
    },
    {
      "midi": 62,
      "hit": false,
      "t": 9118.298708333337,
      "d": 558.0354166666657,
      "v": 104
    },
    {
      "midi": 63,
      "hit": false,
      "t": 9665.17341666667,
      "d": 502.2318749999995,
      "v": 116
    },
    {
      "midi": 67,
      "hit": false,
      "t": 10212.048125000003,
      "d": 558.0354166666675,
      "v": 108
    },
    {
      "midi": 60,
      "hit": false,
      "t": 10725.440708333337,
      "d": 703.1246250000004,
      "v": 101
    },
    {
      "midi": 62,
      "hit": false,
      "t": 11261.154708333337,
      "d": 513.3925833333342,
      "v": 96
    },
    {
      "midi": 63,
      "hit": false,
      "t": 11785.708000000004,
      "d": 546.8747083333328,
      "v": 111
    },
    {
      "midi": 67,
      "hit": false,
      "t": 12354.904125000005,
      "d": 602.6782500000027,
      "v": 107
    },
    {
      "midi": 79,
      "hit": false,
      "t": 12823.653875000005,
      "d": 3839.283666666668,
      "v": 114
    },
    {
      "midi": 60,
      "hit": false,
      "t": 12845.975291666673,
      "d": 725.446041666668,
      "v": 103
    },
    {
      "midi": 62,
      "hit": false,
      "t": 13392.850000000008,
      "d": 524.5532916666671,
      "v": 98
    },
    {
      "midi": 63,
      "hit": false,
      "t": 13928.564000000008,
      "d": 558.0354166666675,
      "v": 98
    },
    {
      "midi": 67,
      "hit": false,
      "t": 14486.599416666675,
      "d": 658.481791666667,
      "v": 114
    },
    {
      "midi": 60,
      "hit": false,
      "t": 14988.831291666675,
      "d": 725.446041666668,
      "v": 108
    },
    {
      "midi": 62,
      "hit": false,
      "t": 15535.70600000001,
      "d": 580.3568333333333,
      "v": 104
    },
    {
      "midi": 63,
      "hit": false,
      "t": 16060.259291666676,
      "d": 491.0711666666648,
      "v": 113
    },
    {
      "midi": 77,
      "hit": false,
      "t": 16573.651875000007,
      "d": 647.3210833333324,
      "v": 102
    },
    {
      "midi": 67,
      "hit": false,
      "t": 16584.81258333334,
      "d": 881.6959583333337,
      "v": 104
    },
    {
      "midi": 60,
      "hit": false,
      "t": 17109.365875000007,
      "d": 714.2853333333333,
      "v": 101
    },
    {
      "midi": 75,
      "hit": false,
      "t": 17109.365875000007,
      "d": 1707.588375000003,
      "v": 116
    },
    {
      "midi": 62,
      "hit": false,
      "t": 17633.919166666674,
      "d": 602.6782500000008,
      "v": 101
    },
    {
      "midi": 63,
      "hit": false,
      "t": 18169.633166666674,
      "d": 513.3925833333342,
      "v": 111
    },
    {
      "midi": 67,
      "hit": false,
      "t": 18727.668583333343,
      "d": 636.1603749999995,
      "v": 97
    },
    {
      "midi": 74,
      "hit": false,
      "t": 18738.829291666676,
      "d": 513.3925833333342,
      "v": 103
    },
    {
      "midi": 60,
      "hit": false,
      "t": 19274.543291666676,
      "d": 770.0888750000013,
      "v": 95
    },
    {
      "midi": 72,
      "hit": false,
      "t": 19285.70400000001,
      "d": 1640.6241249999985,
      "v": 107
    },
    {
      "midi": 62,
      "hit": false,
      "t": 19787.93587500001,
      "d": 613.8389583333337,
      "v": 95
    },
    {
      "midi": 63,
      "hit": false,
      "t": 20345.971291666676,
      "d": 513.3925833333342,
      "v": 111
    },
    {
      "midi": 77,
      "hit": false,
      "t": 20870.524583333343,
      "d": 546.8747083333292,
      "v": 103
    },
    {
      "midi": 67,
      "hit": false,
      "t": 20904.00670833334,
      "d": 535.7139999999963,
      "v": 103
    },
    {
      "midi": 79,
      "hit": false,
      "t": 21417.399291666672,
      "d": 2243.3023749999993,
      "v": 111
    },
    {
      "midi": 55,
      "hit": false,
      "t": 21417.399291666672,
      "d": 2332.588041666666,
      "v": 106
    },
    {
      "midi": 58,
      "hit": false,
      "t": 21986.59541666667,
      "d": 1752.2312083333345,
      "v": 72
    },
    {
      "midi": 62,
      "hit": false,
      "t": 22544.630833333336,
      "d": 1160.7136666666702,
      "v": 102
    },
    {
      "midi": 67,
      "hit": false,
      "t": 23080.344833333336,
      "d": 669.6425000000017,
      "v": 101
    },
    {
      "midi": 74,
      "hit": false,
      "t": 23571.416000000005,
      "d": 6395.085875000008,
      "v": 118
    },
    {
      "midi": 67,
      "hit": false,
      "t": 24140.612125000003,
      "d": 424.10691666666753,
      "v": 101
    },
    {
      "midi": 62,
      "hit": false,
      "t": 24709.808250000006,
      "d": 602.6782500000008,
      "v": 98
    },
    {
      "midi": 58,
      "hit": false,
      "t": 25200.879416666674,
      "d": 435.2676250000004,
      "v": 86
    },
    {
      "midi": 55,
      "hit": false,
      "t": 25703.111291666675,
      "d": 904.0173749999994,
      "v": 106
    },
    {
      "midi": 58,
      "hit": false,
      "t": 26249.986000000008,
      "d": 457.58904166666616,
      "v": 94
    },
    {
      "midi": 62,
      "hit": false,
      "t": 26774.539291666675,
      "d": 256.6962916666671,
      "v": 112
    },
    {
      "midi": 63,
      "hit": false,
      "t": 27287.93187500001,
      "d": 256.6962916666671,
      "v": 100
    },
    {
      "midi": 62,
      "hit": false,
      "t": 27834.806583333342,
      "d": 491.07116666666843,
      "v": 108
    },
    {
      "midi": 58,
      "hit": false,
      "t": 28381.68129166668,
      "d": 390.62479166666526,
      "v": 98
    },
    {
      "midi": 55,
      "hit": false,
      "t": 28883.913166666676,
      "d": 580.3568333333351,
      "v": 107
    },
    {
      "midi": 58,
      "hit": false,
      "t": 29397.30575000001,
      "d": 267.8570000000036,
      "v": 103
    },
    {
      "midi": 75,
      "hit": false,
      "t": 29933.019750000014,
      "d": 3872.765791666672,
      "v": 105
    },
    {
      "midi": 60,
      "hit": false,
      "t": 29955.34116666668,
      "d": 624.9996666666666,
      "v": 106
    },
    {
      "midi": 62,
      "hit": false,
      "t": 30513.376583333345,
      "d": 468.7497500000027,
      "v": 107
    },
    {
      "midi": 63,
      "hit": false,
      "t": 31026.769166666683,
      "d": 546.8747083333328,
      "v": 107
    },
    {
      "midi": 67,
      "hit": false,
      "t": 31607.126000000015,
      "d": 647.321083333336,
      "v": 108
    },
    {
      "midi": 60,
      "hit": false,
      "t": 32109.357875000016,
      "d": 624.9996666666666,
      "v": 111
    },
    {
      "midi": 62,
      "hit": false,
      "t": 32645.071875000016,
      "d": 524.5532916666634,
      "v": 104
    },
    {
      "midi": 63,
      "hit": false,
      "t": 33180.785875000016,
      "d": 535.7139999999999,
      "v": 116
    },
    {
      "midi": 74,
      "hit": false,
      "t": 33705.33916666668,
      "d": 535.7140000000072,
      "v": 91
    },
    {
      "midi": 67,
      "hit": false,
      "t": 33749.98200000002,
      "d": 602.6782500000045,
      "v": 111
    },
    {
      "midi": 60,
      "hit": false,
      "t": 34241.05316666669,
      "d": 758.928166666672,
      "v": 98
    },
    {
      "midi": 72,
      "hit": false,
      "t": 34252.21387500002,
      "d": 1685.2669583333482,
      "v": 106
    },
    {
      "midi": 62,
      "hit": false,
      "t": 34787.92787500002,
      "d": 558.035416666673,
      "v": 98
    },
    {
      "midi": 63,
      "hit": false,
      "t": 35334.80258333336,
      "d": 479.9104583333392,
      "v": 109
    },
    {
      "midi": 74,
      "hit": false,
      "t": 35848.1951666667,
      "d": 636.1603750000068,
      "v": 108
    },
    {
      "midi": 67,
      "hit": false,
      "t": 35848.1951666667,
      "d": 680.8032083333383,
      "v": 105
    },
    {
      "midi": 60,
      "hit": false,
      "t": 36395.06987500004,
      "d": 1015.6244583333319,
      "v": 108
    },
    {
      "midi": 75,
      "hit": false,
      "t": 36395.06987500004,
      "d": 1685.2669583333409,
      "v": 111
    },
    {
      "midi": 62,
      "hit": false,
      "t": 36930.78387500004,
      "d": 569.1961250000022,
      "v": 98
    },
    {
      "midi": 63,
      "hit": false,
      "t": 37466.49787500004,
      "d": 491.07116666666843,
      "v": 116
    },
    {
      "midi": 77,
      "hit": false,
      "t": 37957.569041666706,
      "d": 669.642500000009,
      "v": 98
    },
    {
      "midi": 67,
      "hit": false,
      "t": 37991.05116666671,
      "d": 546.8747083333365,
      "v": 106
    },
    {
      "midi": 79,
      "hit": false,
      "t": 38560.24729166671,
      "d": 8080.352833333345,
      "v": 115
    },
    {
      "midi": 55,
      "hit": false,
      "t": 38571.40800000005,
      "d": 1529.0170416666733,
      "v": 105
    },
    {
      "midi": 58,
      "hit": false,
      "t": 39073.63987500005,
      "d": 1026.7851666666684,
      "v": 82
    },
    {
      "midi": 62,
      "hit": false,
      "t": 39642.836000000054,
      "d": 457.58904166666616,
      "v": 111
    },
    {
      "midi": 67,
      "hit": false,
      "t": 40156.22858333339,
      "d": 558.035416666673,
      "v": 107
    },
    {
      "midi": 69,
      "hit": false,
      "t": 40703.103291666725,
      "d": 491.07116666666843,
      "v": 99
    },
    {
      "midi": 67,
      "hit": false,
      "t": 41227.656583333395,
      "d": 479.9104583333319,
      "v": 90
    },
    {
      "midi": 70,
      "hit": false,
      "t": 41752.20987500006,
      "d": 636.1603749999995,
      "v": 113
    },
    {
      "midi": 67,
      "hit": false,
      "t": 42287.92387500006,
      "d": 457.58904166666616,
      "v": 94
    },
    {
      "midi": 74,
      "hit": false,
      "t": 42823.63787500006,
      "d": 156.24991666666756,
      "v": 106
    },
    {
      "midi": 58,
      "hit": false,
      "t": 43359.35187500006,
      "d": 133.9285000000018,
      "v": 100
    },
    {
      "midi": 62,
      "hit": false,
      "t": 43895.06587500006,
      "d": 491.07116666666843,
      "v": 104
    },
    {
      "midi": 67,
      "hit": false,
      "t": 44441.940583333395,
      "d": 457.58904166666616,
      "v": 102
    },
    {
      "midi": 69,
      "hit": false,
      "t": 44977.654583333395,
      "d": 580.3568333333315,
      "v": 115
    },
    {
      "midi": 67,
      "hit": false,
      "t": 45491.04716666673,
      "d": 468.7497499999954,
      "v": 81
    },
    {
      "midi": 70,
      "hit": false,
      "t": 46026.76116666672,
      "d": 156.24991666666756,
      "v": 105
    },
    {
      "midi": 75,
      "hit": false,
      "t": 46573.63587500006,
      "d": 535.7139999999999,
      "v": 109
    },
    {
      "midi": 46,
      "hit": false,
      "t": 47098.18916666672,
      "d": 1071.4280000000072,
      "v": 86
    },
    {
      "midi": 77,
      "hit": false,
      "t": 47142.83200000006,
      "d": 3906.247916666689,
      "v": 98
    },
    {
      "midi": 50,
      "hit": false,
      "t": 47678.54600000006,
      "d": 491.07116666666843,
      "v": 87
    },
    {
      "midi": 53,
      "hit": false,
      "t": 48203.09929166673,
      "d": 156.24991666666756,
      "v": 107
    },
    {
      "midi": 58,
      "hit": false,
      "t": 48794.6168333334,
      "d": 457.58904166666616,
      "v": 102
    },
    {
      "midi": 62,
      "hit": false,
      "t": 49308.00941666673,
      "d": 948.6602083333346,
      "v": 102
    },
    {
      "midi": 58,
      "hit": false,
      "t": 49854.88412500007,
      "d": 491.07116666666843,
      "v": 102
    },
    {
      "midi": 53,
      "hit": false,
      "t": 50357.116000000075,
      "d": 602.6782500000045,
      "v": 102
    },
    {
      "midi": 58,
      "hit": false,
      "t": 50903.99070833341,
      "d": 178.5713333333406,
      "v": 109
    },
    {
      "midi": 79,
      "hit": false,
      "t": 50937.47283333341,
      "d": 624.9996666666775,
      "v": 105
    },
    {
      "midi": 41,
      "hit": false,
      "t": 51473.18683333342,
      "d": 982.1423333333441,
      "v": 115
    },
    {
      "midi": 80,
      "hit": false,
      "t": 51473.18683333342,
      "d": 2243.302375000014,
      "v": 107
    },
    {
      "midi": 48,
      "hit": false,
      "t": 52008.90083333343,
      "d": 412.94620833333465,
      "v": 86
    },
    {
      "midi": 53,
      "hit": false,
      "t": 52499.972000000096,
      "d": 133.9285000000018,
      "v": 111
    },
    {
      "midi": 56,
      "hit": false,
      "t": 53058.00741666676,
      "d": 468.7497500000027,
      "v": 95
    },
    {
      "midi": 60,
      "hit": false,
      "t": 53582.56070833343,
      "d": 703.124625000004,
      "v": 107
    },
    {
      "midi": 82,
      "hit": false,
      "t": 53616.042833333435,
      "d": 2198.659541666668,
      "v": 103
    },
    {
      "midi": 53,
      "hit": false,
      "t": 54151.756833333435,
      "d": 982.1423333333369,
      "v": 90
    },
    {
      "midi": 56,
      "hit": false,
      "t": 54676.310125000105,
      "d": 535.7139999999999,
      "v": 105
    },
    {
      "midi": 60,
      "hit": false,
      "t": 55245.50625000011,
      "d": 502.2318749999977,
      "v": 106
    },
    {
      "midi": 48,
      "hit": false,
      "t": 55736.57741666677,
      "d": 1517.8563333333368,
      "v": 108
    },
    {
      "midi": 84,
      "hit": false,
      "t": 55736.57741666677,
      "d": 4084.819250000015,
      "v": 104
    },
    {
      "midi": 51,
      "hit": false,
      "t": 56249.9700000001,
      "d": 1004.4637500000026,
      "v": 69
    },
    {
      "midi": 55,
      "hit": false,
      "t": 56785.6840000001,
      "d": 513.3925833333342,
      "v": 102
    },
    {
      "midi": 60,
      "hit": false,
      "t": 57332.55870833344,
      "d": 479.9104583333319,
      "v": 103
    },
    {
      "midi": 62,
      "hit": false,
      "t": 57834.79058333344,
      "d": 558.0354166666657,
      "v": 114
    },
    {
      "midi": 63,
      "hit": false,
      "t": 58392.8260000001,
      "d": 580.3568333333387,
      "v": 97
    },
    {
      "midi": 67,
      "hit": false,
      "t": 58939.70070833344,
      "d": 513.3925833333415,
      "v": 105
    },
    {
      "midi": 60,
      "hit": false,
      "t": 59419.61116666678,
      "d": 89.2856666666703,
      "v": 81
    },
    {
      "midi": 77,
      "hit": false,
      "t": 59832.55737500012,
      "d": 3069.194791666654,
      "v": 110
    },
    {
      "midi": 43,
      "hit": false,
      "t": 59999.96800000012,
      "d": 959.8209166666638,
      "v": 115
    },
    {
      "midi": 86,
      "hit": false,
      "t": 60011.128708333454,
      "d": 2890.6234583333207,
      "v": 92
    },
    {
      "midi": 50,
      "hit": false,
      "t": 60513.36058333345,
      "d": 401.78549999999814,
      "v": 89
    },
    {
      "midi": 55,
      "hit": false,
      "t": 60982.11033333345,
      "d": 580.3568333333315,
      "v": 104
    },
    {
      "midi": 59,
      "hit": false,
      "t": 61595.94929166678,
      "d": 1763.3919166666674,
      "v": 107
    },
    {
      "midi": 62,
      "hit": false,
      "t": 62153.984708333446,
      "d": 1194.1957916666652,
      "v": 106
    },
    {
      "midi": 67,
      "hit": false,
      "t": 62756.66295833344,
      "d": 580.3568333333315,
      "v": 107
    },
    {
      "midi": 86,
      "hit": false,
      "t": 63236.573416666775,
      "d": 111.60708333333605,
      "v": 115
    },
    {
      "midi": 87,
      "hit": false,
      "t": 63616.037500000115,
      "d": 178.5713333333333,
      "v": 103
    },
    {
      "midi": 86,
      "hit": false,
      "t": 63749.96600000012,
      "d": 89.28566666666302,
      "v": 82
    },
    {
      "midi": 84,
      "hit": false,
      "t": 63839.25166666678,
      "d": 156.24991666666756,
      "v": 89
    },
    {
      "midi": 86,
      "hit": false,
      "t": 63973.18016666678,
      "d": 100.44637499999953,
      "v": 92
    },
    {
      "midi": 79,
      "hit": false,
      "t": 64118.26937500011,
      "d": 3973.2121666666862,
      "v": 107
    },
    {
      "midi": 87,
      "hit": false,
      "t": 64341.48354166678,
      "d": 4229.908458333361,
      "v": 126
    },
    {
      "midi": 44,
      "hit": false,
      "t": 64352.644250000114,
      "d": 959.8209166666711,
      "v": 109
    },
    {
      "midi": 51,
      "hit": false,
      "t": 64866.03683333345,
      "d": 457.58904166667344,
      "v": 82
    },
    {
      "midi": 56,
      "hit": false,
      "t": 65390.59012500012,
      "d": 457.58904166666616,
      "v": 111
    },
    {
      "midi": 58,
      "hit": false,
      "t": 65903.98270833345,
      "d": 412.94620833333465,
      "v": 103
    },
    {
      "midi": 60,
      "hit": false,
      "t": 66406.21458333345,
      "d": 613.8389583333337,
      "v": 121
    },
    {
      "midi": 56,
      "hit": false,
      "t": 66953.08929166678,
      "d": 535.7140000000072,
      "v": 113
    },
    {
      "midi": 51,
      "hit": false,
      "t": 67488.80329166679,
      "d": 580.3568333333387,
      "v": 111
    },
    {
      "midi": 56,
      "hit": false,
      "t": 68013.35658333346,
      "d": 156.24991666666756,
      "v": 118
    },
    {
      "midi": 41,
      "hit": false,
      "t": 68504.42775000013,
      "d": 1049.1065833333414,
      "v": 101
    },
    {
      "midi": 89,
      "hit": false,
      "t": 68504.42775000013,
      "d": 2209.820250000019,
      "v": 95
    },
    {
      "midi": 80,
      "hit": false,
      "t": 68515.58845833347,
      "d": 1941.9632500000153,
      "v": 105
    },
    {
      "midi": 48,
      "hit": false,
      "t": 69107.10600000015,
      "d": 412.94620833333465,
      "v": 81
    },
    {
      "midi": 53,
      "hit": false,
      "t": 69587.01645833347,
      "d": 122.76779166667257,
      "v": 114
    },
    {
      "midi": 56,
      "hit": false,
      "t": 70133.89116666681,
      "d": 479.9104583333392,
      "v": 98
    },
    {
      "midi": 60,
      "hit": false,
      "t": 70658.44445833348,
      "d": 736.6067499999917,
      "v": 97
    },
    {
      "midi": 87,
      "hit": false,
      "t": 70669.60516666682,
      "d": 2053.570333333293,
      "v": 91
    },
    {
      "midi": 79,
      "hit": false,
      "t": 70680.76587500016,
      "d": 1908.481124999962,
      "v": 111
    },
    {
      "midi": 53,
      "hit": false,
      "t": 71205.31916666681,
      "d": 1160.7136666666484,
      "v": 97
    },
    {
      "midi": 56,
      "hit": false,
      "t": 71729.87245833347,
      "d": 624.9996666666557,
      "v": 105
    },
    {
      "midi": 60,
      "hit": false,
      "t": 72321.39000000013,
      "d": 145.08920833333104,
      "v": 98
    },
    {
      "midi": 43,
      "hit": false,
      "t": 72801.30045833344,
      "d": 1037.945875000005,
      "v": 111
    },
    {
      "midi": 86,
      "hit": false,
      "t": 72801.30045833344,
      "d": 3392.855333333311,
      "v": 92
    },
    {
      "midi": 77,
      "hit": false,
      "t": 72823.62187500011,
      "d": 3325.8910833333066,
      "v": 99
    },
    {
      "midi": 50,
      "hit": false,
      "t": 73381.65729166678,
      "d": 435.26762499999313,
      "v": 81
    },
    {
      "midi": 55,
      "hit": false,
      "t": 73872.72845833344,
      "d": 145.08920833333104,
      "v": 105
    },
    {
      "midi": 58,
      "hit": false,
      "t": 74475.40670833344,
      "d": 479.9104583333392,
      "v": 95
    },
    {
      "midi": 62,
      "hit": false,
      "t": 74999.96000000011,
      "d": 781.2495833333232,
      "v": 112
    },
    {
      "midi": 58,
      "hit": false,
      "t": 75546.83470833344,
      "d": 479.91045833332464,
      "v": 109
    },
    {
      "midi": 55,
      "hit": false,
      "t": 76071.3880000001,
      "d": 602.6782499999972,
      "v": 104
    },
    {
      "midi": 58,
      "hit": false,
      "t": 76618.26270833342,
      "d": 111.60708333333605,
      "v": 100
    },
    {
      "midi": 79,
      "hit": false,
      "t": 76863.79829166675,
      "d": 1774.5526250000112,
      "v": 99
    },
    {
      "midi": 87,
      "hit": false,
      "t": 77120.49458333342,
      "d": 2209.820250000019,
      "v": 113
    },
    {
      "midi": 43,
      "hit": false,
      "t": 77142.8160000001,
      "d": 1004.4637499999953,
      "v": 114
    },
    {
      "midi": 50,
      "hit": false,
      "t": 77656.20858333343,
      "d": 446.42833333332965,
      "v": 89
    },
    {
      "midi": 55,
      "hit": false,
      "t": 78169.60116666676,
      "d": 468.7497500000027,
      "v": 103
    },
    {
      "midi": 59,
      "hit": false,
      "t": 78749.9580000001,
      "d": 558.0354166666657,
      "v": 103
    },
    {
      "midi": 62,
      "hit": false,
      "t": 79263.35058333343,
      "d": 546.8747083333437,
      "v": 101
    },
    {
      "midi": 81,
      "hit": false,
      "t": 79263.35058333343,
      "d": 736.6067500000063,
      "v": 107
    },
    {
      "midi": 89,
      "hit": false,
      "t": 79263.35058333343,
      "d": 803.5710000000108,
      "v": 99
    },
    {
      "midi": 59,
      "hit": false,
      "t": 79810.22529166678,
      "d": 502.2318749999977,
      "v": 85
    },
    {
      "midi": 67,
      "hit": false,
      "t": 80323.61787500011,
      "d": 189.73204166666255,
      "v": 102
    },
    {
      "midi": 82,
      "hit": false,
      "t": 81171.83170833344,
      "d": 301.3391249999986,
      "v": 94
    },
    {
      "midi": 87,
      "hit": false,
      "t": 81428.52800000011,
      "d": 133.92849999999453,
      "v": 50
    },
    {
      "midi": 48,
      "hit": false,
      "t": 81506.65295833343,
      "d": 1484.37420833332,
      "v": 105
    },
    {
      "midi": 91,
      "hit": false,
      "t": 81506.65295833343,
      "d": 3772.319416666651,
      "v": 112
    },
    {
      "midi": 51,
      "hit": false,
      "t": 82053.52766666676,
      "d": 948.6602083333273,
      "v": 88
    },
    {
      "midi": 55,
      "hit": false,
      "t": 82555.75954166676,
      "d": 468.7497500000027,
      "v": 103
    },
    {
      "midi": 60,
      "hit": false,
      "t": 83057.99141666676,
      "d": 468.7497500000027,
      "v": 105
    },
    {
      "midi": 62,
      "hit": false,
      "t": 83560.22329166676,
      "d": 502.2318749999977,
      "v": 114
    },
    {
      "midi": 63,
      "hit": false,
      "t": 84095.93729166675,
      "d": 479.9104583333392,
      "v": 98
    },
    {
      "midi": 67,
      "hit": false,
      "t": 84620.49058333342,
      "d": 703.1246249999967,
      "v": 110
    },
    {
      "midi": 62,
      "hit": false,
      "t": 85178.52600000009,
      "d": 446.42833333332965,
      "v": 102
    },
    {
      "midi": 89,
      "hit": false,
      "t": 85178.52600000009,
      "d": 624.9996666666557,
      "v": 95
    },
    {
      "midi": 87,
      "hit": false,
      "t": 85703.07929166674,
      "d": 1674.106249999997,
      "v": 113
    },
    {
      "midi": 60,
      "hit": false,
      "t": 85747.72212500007,
      "d": 569.1961249999877,
      "v": 94
    },
    {
      "midi": 62,
      "hit": false,
      "t": 86238.79329166673,
      "d": 535.7139999999927,
      "v": 101
    },
    {
      "midi": 63,
      "hit": false,
      "t": 86741.02516666673,
      "d": 535.7139999999927,
      "v": 103
    },
    {
      "midi": 86,
      "hit": false,
      "t": 87299.0605833334,
      "d": 513.3925833333342,
      "v": 103
    },
    {
      "midi": 67,
      "hit": false,
      "t": 87310.22129166673,
      "d": 502.2318749999977,
      "v": 110
    },
    {
      "midi": 60,
      "hit": false,
      "t": 87812.45316666673,
      "d": 1049.1065833333414,
      "v": 108
    },
    {
      "midi": 84,
      "hit": false,
      "t": 87823.61387500007,
      "d": 1685.2669583333336,
      "v": 106
    },
    {
      "midi": 62,
      "hit": false,
      "t": 88303.52433333341,
      "d": 602.6782499999972,
      "v": 93
    },
    {
      "midi": 63,
      "hit": false,
      "t": 88861.55975000007,
      "d": 156.24991666666756,
      "v": 121
    },
    {
      "midi": 89,
      "hit": false,
      "t": 89430.75587500008,
      "d": 569.1961250000022,
      "v": 112
    },
    {
      "midi": 91,
      "hit": false,
      "t": 89955.30916666675,
      "d": 2276.7844999999943,
      "v": 112
    },
    {
      "midi": 43,
      "hit": false,
      "t": 89988.79129166674,
      "d": 1037.945875000005,
      "v": 112
    },
    {
      "midi": 50,
      "hit": false,
      "t": 90546.8267083334,
      "d": 457.58904166666616,
      "v": 99
    },
    {
      "midi": 55,
      "hit": false,
      "t": 91071.38000000008,
      "d": 502.2318749999977,
      "v": 114
    },
    {
      "midi": 57,
      "hit": false,
      "t": 91629.41541666674,
      "d": 580.3568333333242,
      "v": 92
    },
    {
      "midi": 58,
      "hit": false,
      "t": 92142.80800000008,
      "d": 669.6425000000017,
      "v": 103
    },
    {
      "midi": 86,
      "hit": false,
      "t": 92176.29012500007,
      "d": 6406.24658333337,
      "v": 111
    },
    {
      "midi": 62,
      "hit": false,
      "t": 92689.6827083334,
      "d": 468.7497500000027,
      "v": 101
    },
    {
      "midi": 55,
      "hit": false,
      "t": 93191.9145833334,
      "d": 1071.4279999999999,
      "v": 110
    },
    {
      "midi": 67,
      "hit": false,
      "t": 93749.95000000007,
      "d": 647.3210833333433,
      "v": 102
    },
    {
      "midi": 62,
      "hit": false,
      "t": 94285.66400000008,
      "d": 491.0711666666757,
      "v": 114
    },
    {
      "midi": 55,
      "hit": false,
      "t": 94821.37800000008,
      "d": 658.4817916666798,
      "v": 104
    },
    {
      "midi": 58,
      "hit": false,
      "t": 95357.09200000009,
      "d": 457.58904166666616,
      "v": 107
    },
    {
      "midi": 62,
      "hit": false,
      "t": 95859.32387500009,
      "d": 345.9819583333301,
      "v": 107
    },
    {
      "midi": 63,
      "hit": false,
      "t": 96406.19858333342,
      "d": 212.05345833333558,
      "v": 102
    },
    {
      "midi": 62,
      "hit": false,
      "t": 96941.91258333343,
      "d": 412.94620833333465,
      "v": 107
    },
    {
      "midi": 58,
      "hit": false,
      "t": 97455.30516666676,
      "d": 513.3925833333342,
      "v": 111
    },
    {
      "midi": 55,
      "hit": false,
      "t": 97979.85845833343,
      "d": 223.2141666666721,
      "v": 105
    },
    {
      "midi": 48,
      "hit": false,
      "t": 98537.89387500011,
      "d": 1584.8205833333486,
      "v": 112
    },
    {
      "midi": 87,
      "hit": false,
      "t": 98537.89387500011,
      "d": 3883.9265000000305,
      "v": 109
    },
    {
      "midi": 51,
      "hit": false,
      "t": 99107.09000000011,
      "d": 1004.4637500000099,
      "v": 88
    },
    {
      "midi": 55,
      "hit": false,
      "t": 99631.64329166678,
      "d": 502.2318750000122,
      "v": 103
    },
    {
      "midi": 60,
      "hit": false,
      "t": 100178.51800000013,
      "d": 535.7140000000072,
      "v": 102
    },
    {
      "midi": 62,
      "hit": false,
      "t": 100725.39270833347,
      "d": 457.58904166666616,
      "v": 111
    },
    {
      "midi": 63,
      "hit": false,
      "t": 101216.46387500013,
      "d": 479.9104583333392,
      "v": 102
    },
    {
      "midi": 67,
      "hit": false,
      "t": 101741.0171666668,
      "d": 703.1246250000113,
      "v": 110
    },
    {
      "midi": 86,
      "hit": false,
      "t": 102299.05258333347,
      "d": 513.3925833333342,
      "v": 107
    },
    {
      "midi": 62,
      "hit": false,
      "t": 102310.2132916668,
      "d": 424.10691666667117,
      "v": 103
    },
    {
      "midi": 60,
      "hit": false,
      "t": 102812.4451666668,
      "d": 658.4817916666652,
      "v": 98
    },
    {
      "midi": 84,
      "hit": false,
      "t": 102823.60587500014,
      "d": 1707.5883749999775,
      "v": 108
    },
    {
      "midi": 62,
      "hit": false,
      "t": 103392.80200000014,
      "d": 491.07116666666116,
      "v": 105
    },
    {
      "midi": 63,
      "hit": false,
      "t": 103883.8731666668,
      "d": 491.07116666666116,
      "v": 113
    },
    {
      "midi": 67,
      "hit": false,
      "t": 104408.42645833346,
      "d": 457.5890416666516,
      "v": 105
    },
    {
      "midi": 86,
      "hit": false,
      "t": 104441.90858333345,
      "d": 602.6782499999972,
      "v": 102
    },
    {
      "midi": 62,
      "hit": false,
      "t": 104921.81904166678,
      "d": 1060.267291666678,
      "v": 120
    },
    {
      "midi": 87,
      "hit": false,
      "t": 104932.97975000012,
      "d": 1629.4634166666801,
      "v": 100
    },
    {
      "midi": 63,
      "hit": false,
      "t": 105468.69375000012,
      "d": 513.3925833333342,
      "v": 107
    },
    {
      "midi": 67,
      "hit": false,
      "t": 105982.08633333346,
      "d": 178.5713333333406,
      "v": 118
    },
    {
      "midi": 89,
      "hit": false,
      "t": 106506.63962500013,
      "d": 279.0177083333401,
      "v": 89
    },
    {
      "midi": 82,
      "hit": false,
      "t": 106785.65733333347,
      "d": 6841.514208333363,
      "v": 97
    },
    {
      "midi": 91,
      "hit": false,
      "t": 107109.31787500014,
      "d": 6450.889416666687,
      "v": 110
    },
    {
      "midi": 43,
      "hit": false,
      "t": 107131.63929166681,
      "d": 993.3030416666734,
      "v": 111
    },
    {
      "midi": 50,
      "hit": false,
      "t": 107656.19258333348,
      "d": 446.42833333332965,
      "v": 95
    },
    {
      "midi": 55,
      "hit": false,
      "t": 108169.58516666682,
      "d": 535.7140000000072,
      "v": 111
    },
    {
      "midi": 57,
      "hit": false,
      "t": 108738.78129166682,
      "d": 591.5175416666752,
      "v": 99
    },
    {
      "midi": 58,
      "hit": false,
      "t": 109263.33458333349,
      "d": 1015.6244583333464,
      "v": 103
    },
    {
      "midi": 62,
      "hit": false,
      "t": 109799.0485833335,
      "d": 513.3925833333342,
      "v": 103
    },
    {
      "midi": 67,
      "hit": false,
      "t": 110334.7625833335,
      "d": 647.3210833333433,
      "v": 108
    },
    {
      "midi": 62,
      "hit": false,
      "t": 110859.31587500017,
      "d": 558.0354166666657,
      "v": 103
    },
    {
      "midi": 67,
      "hit": false,
      "t": 111383.86916666685,
      "d": 669.6424999999872,
      "v": 114
    },
    {
      "midi": 55,
      "hit": false,
      "t": 111964.22600000017,
      "d": 669.6425000000017,
      "v": 94
    },
    {
      "midi": 57,
      "hit": false,
      "t": 112455.29716666683,
      "d": 669.6425000000017,
      "v": 107
    },
    {
      "midi": 58,
      "hit": false,
      "t": 113024.49329166683,
      "d": 491.07116666666116,
      "v": 88
    },
    {
      "midi": 62,
      "hit": false,
      "t": 113526.72516666683,
      "d": 837.0531250000058,
      "v": 114
    },
    {
      "midi": 58,
      "hit": false,
      "t": 114084.7605833335,
      "d": 569.1961250000022,
      "v": 73
    },
    {
      "midi": 55,
      "hit": false,
      "t": 114564.67104166684,
      "d": 301.3391249999986,
      "v": 98
    },
    {
      "midi": 75,
      "hit": false,
      "t": 115145.02787500017,
      "d": 636.1603750000068,
      "v": 91
    },
    {
      "midi": 46,
      "hit": false,
      "t": 115714.22400000018,
      "d": 1026.785166666683,
      "v": 103
    },
    {
      "midi": 70,
      "hit": false,
      "t": 115714.22400000018,
      "d": 3571.4266666666954,
      "v": 103
    },
    {
      "midi": 77,
      "hit": false,
      "t": 115714.22400000018,
      "d": 3616.069500000027,
      "v": 107
    },
    {
      "midi": 50,
      "hit": false,
      "t": 116238.77729166685,
      "d": 479.9104583333392,
      "v": 92
    },
    {
      "midi": 53,
      "hit": false,
      "t": 116785.65200000019,
      "d": 133.92849999999453,
      "v": 106
    },
    {
      "midi": 58,
      "hit": false,
      "t": 117343.68741666686,
      "d": 424.10691666667117,
      "v": 97
    },
    {
      "midi": 62,
      "hit": false,
      "t": 117834.75858333353,
      "d": 703.1246249999967,
      "v": 104
    },
    {
      "midi": 58,
      "hit": false,
      "t": 118392.7940000002,
      "d": 502.2318749999977,
      "v": 102
    },
    {
      "midi": 53,
      "hit": false,
      "t": 118917.34729166687,
      "d": 591.5175416666607,
      "v": 102
    },
    {
      "midi": 79,
      "hit": false,
      "t": 119386.09704166687,
      "d": 558.0354166666657,
      "v": 69
    },
    {
      "midi": 58,
      "hit": false,
      "t": 119430.7398750002,
      "d": 145.08920833333104,
      "v": 105
    },
    {
      "midi": 80,
      "hit": false,
      "t": 119966.45387500021,
      "d": 2198.659541666697,
      "v": 109
    },
    {
      "midi": 41,
      "hit": false,
      "t": 119977.61458333355,
      "d": 1037.945875000005,
      "v": 114
    },
    {
      "midi": 72,
      "hit": false,
      "t": 119977.61458333355,
      "d": 1718.7490833333432,
      "v": 103
    },
    {
      "midi": 48,
      "hit": false,
      "t": 120557.97141666689,
      "d": 412.94620833333465,
      "v": 92
    },
    {
      "midi": 53,
      "hit": false,
      "t": 121037.88187500022,
      "d": 133.92849999999453,
      "v": 105
    },
    {
      "midi": 56,
      "hit": false,
      "t": 121651.72083333356,
      "d": 401.78549999999814,
      "v": 105
    },
    {
      "midi": 82,
      "hit": false,
      "t": 122064.6670416669,
      "d": 2287.9452083333745,
      "v": 80
    },
    {
      "midi": 74,
      "hit": false,
      "t": 122086.98845833357,
      "d": 1763.3919166666747,
      "v": 107
    },
    {
      "midi": 60,
      "hit": false,
      "t": 122098.1491666669,
      "d": 770.0888750000013,
      "v": 106
    },
    {
      "midi": 53,
      "hit": false,
      "t": 122656.18458333357,
      "d": 1049.1065833333414,
      "v": 99
    },
    {
      "midi": 56,
      "hit": false,
      "t": 123180.73787500024,
      "d": 524.5532916666707,
      "v": 107
    },
    {
      "midi": 60,
      "hit": false,
      "t": 123749.93400000024,
      "d": 535.7140000000218,
      "v": 106
    },
    {
      "midi": 48,
      "hit": false,
      "t": 124252.16587500025,
      "d": 1551.3384583333536,
      "v": 108
    },
    {
      "midi": 84,
      "hit": false,
      "t": 124252.16587500025,
      "d": 4162.9442083333415,
      "v": 92
    },
    {
      "midi": 75,
      "hit": false,
      "t": 124263.32658333359,
      "d": 3370.5339166666818,
      "v": 103
    },
    {
      "midi": 51,
      "hit": false,
      "t": 124821.36200000027,
      "d": 982.1423333333369,
      "v": 71
    },
    {
      "midi": 55,
      "hit": false,
      "t": 125357.07600000028,
      "d": 491.07116666666116,
      "v": 101
    },
    {
      "midi": 60,
      "hit": false,
      "t": 125881.62929166693,
      "d": 479.9104583333392,
      "v": 105
    },
    {
      "midi": 62,
      "hit": false,
      "t": 126395.02187500027,
      "d": 558.0354166666657,
      "v": 110
    },
    {
      "midi": 63,
      "hit": false,
      "t": 126919.57516666694,
      "d": 580.3568333333387,
      "v": 100
    },
    {
      "midi": 67,
      "hit": false,
      "t": 127477.6105833336,
      "d": 513.3925833333342,
      "v": 101
    },
    {
      "midi": 60,
      "hit": false,
      "t": 127957.52104166694,
      "d": 133.92849999999453,
      "v": 89
    },
    {
      "midi": 77,
      "hit": false,
      "t": 128336.98512500027,
      "d": 3549.1052500000224,
      "v": 90
    },
    {
      "midi": 86,
      "hit": false,
      "t": 128470.91362500026,
      "d": 3392.855333333355,
      "v": 96
    },
    {
      "midi": 55,
      "hit": false,
      "t": 128493.23504166694,
      "d": 602.6782499999972,
      "v": 103
    },
    {
      "midi": 59,
      "hit": false,
      "t": 129073.59187500026,
      "d": 479.9104583333392,
      "v": 101
    },
    {
      "midi": 62,
      "hit": false,
      "t": 129687.4308333336,
      "d": 357.1426666666666,
      "v": 87
    },
    {
      "midi": 59,
      "hit": false,
      "t": 130178.50200000026,
      "d": 535.7140000000072,
      "v": 96
    },
    {
      "midi": 55,
      "hit": false,
      "t": 130658.4124583336,
      "d": 145.08920833333104,
      "v": 112
    },
    {
      "midi": 50,
      "hit": false,
      "t": 131272.25141666693,
      "d": 457.5890416666807,
      "v": 102
    },
    {
      "midi": 47,
      "hit": false,
      "t": 131752.16187500028,
      "d": 345.98195833334466,
      "v": 111
    },
    {
      "midi": 43,
      "hit": false,
      "t": 132064.66170833362,
      "d": 122.76779166667257,
      "v": 110
    },
    {
      "midi": 86,
      "hit": false,
      "t": 132098.14383333363,
      "d": 66.96424999998999,
      "v": 117
    },
    {
      "midi": 87,
      "hit": false,
      "t": 132321.3580000003,
      "d": 145.0892083333456,
      "v": 107
    },
    {
      "midi": 86,
      "hit": false,
      "t": 132444.12579166697,
      "d": 100.44637499999953,
      "v": 86
    },
    {
      "midi": 84,
      "hit": false,
      "t": 132544.57216666697,
      "d": 133.92850000000908,
      "v": 86
    },
    {
      "midi": 86,
      "hit": false,
      "t": 132656.1792500003,
      "d": 111.60708333333605,
      "v": 94
    },
    {
      "midi": 79,
      "hit": false,
      "t": 132790.10775000032,
      "d": 3973.2121666666935,
      "v": 105
    },
    {
      "midi": 44,
      "hit": false,
      "t": 132979.83979166698,
      "d": 948.6602083333419,
      "v": 116
    },
    {
      "midi": 87,
      "hit": false,
      "t": 132979.83979166698,
      "d": 4207.587041666702,
      "v": 126
    },
    {
      "midi": 51,
      "hit": false,
      "t": 133482.07166666698,
      "d": 446.4283333333442,
      "v": 97
    },
    {
      "midi": 56,
      "hit": false,
      "t": 134006.62495833365,
      "d": 591.5175416666898,
      "v": 116
    },
    {
      "midi": 58,
      "hit": false,
      "t": 134553.499666667,
      "d": 390.6247916666907,
      "v": 116
    },
    {
      "midi": 60,
      "hit": false,
      "t": 135033.41012500034,
      "d": 636.1603750000068,
      "v": 117
    },
    {
      "midi": 56,
      "hit": false,
      "t": 135580.2848333337,
      "d": 479.91045833332464,
      "v": 113
    },
    {
      "midi": 51,
      "hit": false,
      "t": 136037.87387500034,
      "d": 647.3210833333433,
      "v": 113
    },
    {
      "midi": 56,
      "hit": false,
      "t": 136584.74858333368,
      "d": 167.41062499998952,
      "v": 109
    },
    {
      "midi": 41,
      "hit": false,
      "t": 137086.98045833368,
      "d": 1127.231541666668,
      "v": 114
    },
    {
      "midi": 80,
      "hit": false,
      "t": 137086.98045833368,
      "d": 1975.4453749999811,
      "v": 100
    },
    {
      "midi": 89,
      "hit": false,
      "t": 137086.98045833368,
      "d": 2243.30237499997,
      "v": 94
    },
    {
      "midi": 48,
      "hit": false,
      "t": 137711.98012500035,
      "d": 468.7497499999881,
      "v": 74
    },
    {
      "midi": 53,
      "hit": false,
      "t": 138225.37270833369,
      "d": 156.249916666653,
      "v": 105
    },
    {
      "midi": 56,
      "hit": false,
      "t": 138794.56883333367,
      "d": 446.4283333333151,
      "v": 103
    },
    {
      "midi": 60,
      "hit": false,
      "t": 139274.479291667,
      "d": 691.9639166666602,
      "v": 104
    },
    {
      "midi": 79,
      "hit": false,
      "t": 139274.479291667,
      "d": 1941.9632500000007,
      "v": 106
    },
    {
      "midi": 87,
      "hit": false,
      "t": 139274.479291667,
      "d": 2042.4096250000002,
      "v": 92
    },
    {
      "midi": 53,
      "hit": false,
      "t": 139787.87187500033,
      "d": 1149.552958333341,
      "v": 97
    },
    {
      "midi": 56,
      "hit": false,
      "t": 140357.06800000032,
      "d": 546.8747083333437,
      "v": 113
    },
    {
      "midi": 60,
      "hit": false,
      "t": 140937.42483333367,
      "d": 156.249916666653,
      "v": 107
    },
    {
      "midi": 86,
      "hit": false,
      "t": 141395.01387500032,
      "d": 3203.123291666794,
      "v": 94
    },
    {
      "midi": 77,
      "hit": false,
      "t": 141406.17458333366,
      "d": 3147.3197500001115,
      "v": 96
    },
    {
      "midi": 43,
      "hit": false,
      "t": 141428.49600000033,
      "d": 1026.7851666666975,
      "v": 107
    },
    {
      "midi": 50,
      "hit": false,
      "t": 141986.531416667,
      "d": 446.4283333333442,
      "v": 93
    },
    {
      "midi": 55,
      "hit": false,
      "t": 142488.76329166704,
      "d": 133.92850000000908,
      "v": 106
    },
    {
      "midi": 58,
      "hit": false,
      "t": 143035.63800000038,
      "d": 435.2676250000077,
      "v": 103
    },
    {
      "midi": 62,
      "hit": false,
      "t": 143515.54845833374,
      "d": 703.1246250000258,
      "v": 114
    },
    {
      "midi": 58,
      "hit": false,
      "t": 144073.58387500042,
      "d": 502.2318750000268,
      "v": 105
    },
    {
      "midi": 55,
      "hit": false,
      "t": 144609.29787500045,
      "d": 580.3568333333533,
      "v": 97
    },
    {
      "midi": 58,
      "hit": false,
      "t": 145156.1725833338,
      "d": 78.12495833335561,
      "v": 94
    },
    {
      "midi": 79,
      "hit": false,
      "t": 145412.86887500048,
      "d": 1685.2669583333773,
      "v": 98
    },
    {
      "midi": 87,
      "hit": false,
      "t": 145691.88658333384,
      "d": 1372.767125000013,
      "v": 109
    },
    {
      "midi": 43,
      "hit": false,
      "t": 145714.2080000005,
      "d": 1015.6244583333319,
      "v": 110
    },
    {
      "midi": 50,
      "hit": false,
      "t": 146238.76129166718,
      "d": 424.10691666667117,
      "v": 89
    },
    {
      "midi": 55,
      "hit": false,
      "t": 146740.99316666718,
      "d": 491.07116666669026,
      "v": 100
    },
    {
      "midi": 59,
      "hit": false,
      "t": 147310.1892916672,
      "d": 502.2318749999977,
      "v": 95
    },
    {
      "midi": 77,
      "hit": false,
      "t": 147790.09975000052,
      "d": 1049.1065833333414,
      "v": 96
    },
    {
      "midi": 86,
      "hit": false,
      "t": 147790.09975000052,
      "d": 1082.588708333351,
      "v": 92
    },
    {
      "midi": 62,
      "hit": false,
      "t": 147823.58187500053,
      "d": 513.3925833333342,
      "v": 102
    },
    {
      "midi": 59,
      "hit": false,
      "t": 148348.1351666672,
      "d": 580.3568333333533,
      "v": 85
    },
    {
      "midi": 67,
      "hit": false,
      "t": 148917.33129166721,
      "d": 200.89274999999907,
      "v": 106
    },
    {
      "midi": 79,
      "hit": false,
      "t": 149698.58087500054,
      "d": 8258.924166666839,
      "v": 99
    },
    {
      "midi": 84,
      "hit": false,
      "t": 149910.63433333387,
      "d": 8002.227875000157,
      "v": 78
    },
    {
      "midi": 87,
      "hit": false,
      "t": 149966.43787500053,
      "d": 7912.942208333494,
      "v": 98
    },
    {
      "midi": 48,
      "hit": false,
      "t": 150011.08070833387,
      "d": 1529.017041666666,
      "v": 103
    },
    {
      "midi": 51,
      "hit": false,
      "t": 150557.95541666722,
      "d": 1004.4637499999953,
      "v": 81
    },
    {
      "midi": 55,
      "hit": false,
      "t": 151071.34800000055,
      "d": 513.3925833333342,
      "v": 103
    },
    {
      "midi": 60,
      "hit": false,
      "t": 151629.38341666723,
      "d": 524.5532916666707,
      "v": 98
    },
    {
      "midi": 62,
      "hit": false,
      "t": 152165.09741666724,
      "d": 524.5532916666707,
      "v": 104
    },
    {
      "midi": 63,
      "hit": false,
      "t": 152723.13283333392,
      "d": 457.5890416666807,
      "v": 98
    },
    {
      "midi": 67,
      "hit": false,
      "t": 153214.2040000006,
      "d": 647.3210833333433,
      "v": 110
    },
    {
      "midi": 62,
      "hit": false,
      "t": 153749.91800000062,
      "d": 468.74975000001723,
      "v": 107
    },
    {
      "midi": 60,
      "hit": false,
      "t": 154285.63200000062,
      "d": 613.8389583333337,
      "v": 108
    },
    {
      "midi": 62,
      "hit": false,
      "t": 154810.1852916673,
      "d": 546.8747083333437,
      "v": 105
    },
    {
      "midi": 63,
      "hit": false,
      "t": 155357.06000000064,
      "d": 535.7140000000072,
      "v": 111
    },
    {
      "midi": 67,
      "hit": false,
      "t": 155903.93470833398,
      "d": 524.5532916666707,
      "v": 111
    },
    {
      "midi": 60,
      "hit": false,
      "t": 156417.32729166732,
      "d": 1082.588708333351,
      "v": 114
    },
    {
      "midi": 62,
      "hit": false,
      "t": 156874.916333334,
      "d": 658.4817916666798,
      "v": 93
    },
    {
      "midi": 63,
      "hit": false,
      "t": 157455.27316666732,
      "d": 178.57133333335514,
      "v": 121
    },
    {
      "midi": 86,
      "hit": false,
      "t": 157924.02291666737,
      "d": 647.3210833333724,
      "v": 84
    },
    {
      "midi": 89,
      "hit": false,
      "t": 157935.1836250007,
      "d": 658.4817916667089,
      "v": 84
    },
    {
      "midi": 87,
      "hit": false,
      "t": 158504.37975000072,
      "d": 8013.388583333377,
      "v": 91
    },
    {
      "midi": 60,
      "hit": false,
      "t": 158526.7011666674,
      "d": 703.1246249999967,
      "v": 106
    },
    {
      "midi": 84,
      "hit": false,
      "t": 158526.7011666674,
      "d": 8069.19212500006,
      "v": 104
    },
    {
      "midi": 62,
      "hit": false,
      "t": 159073.57587500074,
      "d": 513.3925833333342,
      "v": 100
    },
    {
      "midi": 63,
      "hit": false,
      "t": 159598.1291666674,
      "d": 535.7140000000072,
      "v": 111
    },
    {
      "midi": 67,
      "hit": false,
      "t": 160178.48600000076,
      "d": 558.0354166666511,
      "v": 104
    },
    {
      "midi": 60,
      "hit": false,
      "t": 160680.71787500076,
      "d": 770.0888749999867,
      "v": 110
    },
    {
      "midi": 62,
      "hit": false,
      "t": 161227.59258333407,
      "d": 546.8747083333437,
      "v": 103
    },
    {
      "midi": 63,
      "hit": false,
      "t": 161729.82445833407,
      "d": 479.91045833335374,
      "v": 109
    },
    {
      "midi": 67,
      "hit": false,
      "t": 162243.21704166743,
      "d": 669.6425000000163,
      "v": 107
    },
    {
      "midi": 60,
      "hit": false,
      "t": 162767.7703333341,
      "d": 792.4102916666598,
      "v": 108
    },
    {
      "midi": 62,
      "hit": false,
      "t": 163381.60929166744,
      "d": 569.1961249999877,
      "v": 104
    },
    {
      "midi": 63,
      "hit": false,
      "t": 163883.84116666744,
      "d": 535.7139999999781,
      "v": 113
    },
    {
      "midi": 67,
      "hit": false,
      "t": 164453.03729166742,
      "d": 580.3568333333242,
      "v": 106
    },
    {
      "midi": 60,
      "hit": false,
      "t": 164932.94775000075,
      "d": 1149.552958333341,
      "v": 108
    },
    {
      "midi": 62,
      "hit": false,
      "t": 165513.30458333407,
      "d": 602.6782500000263,
      "v": 86
    },
    {
      "midi": 63,
      "hit": false,
      "t": 166049.01858333408,
      "d": 156.2499166666821,
      "v": 118
    },
    {
      "midi": 86,
      "hit": false,
      "t": 166540.08975000077,
      "d": 714.2853333333624,
      "v": 89
    },
    {
      "midi": 82,
      "hit": false,
      "t": 166551.2504583341,
      "d": 680.8032083333528,
      "v": 92
    },
    {
      "midi": 87,
      "hit": false,
      "t": 167165.08941666744,
      "d": 7109.37120833341,
      "v": 105
    },
    {
      "midi": 48,
      "hit": false,
      "t": 167187.4108333341,
      "d": 1495.5349166666856,
      "v": 103
    },
    {
      "midi": 84,
      "hit": false,
      "t": 167187.4108333341,
      "d": 7053.567666666728,
      "v": 101
    },
    {
      "midi": 51,
      "hit": false,
      "t": 167745.4462500008,
      "d": 993.3030416666588,
      "v": 82
    },
    {
      "midi": 55,
      "hit": false,
      "t": 168258.83883333413,
      "d": 491.07116666666116,
      "v": 108
    },
    {
      "midi": 60,
      "hit": false,
      "t": 168794.55283333414,
      "d": 502.2318749999977,
      "v": 91
    },
    {
      "midi": 62,
      "hit": false,
      "t": 169319.1061250008,
      "d": 502.2318749999977,
      "v": 108
    },
    {
      "midi": 63,
      "hit": false,
      "t": 169843.65941666748,
      "d": 502.2318749999977,
      "v": 98
    },
    {
      "midi": 67,
      "hit": false,
      "t": 170379.37341666748,
      "d": 624.9996666666702,
      "v": 106
    },
    {
      "midi": 62,
      "hit": false,
      "t": 170915.0874166675,
      "d": 479.91045833332464,
      "v": 114
    },
    {
      "midi": 60,
      "hit": false,
      "t": 171428.48000000083,
      "d": 624.9996666666702,
      "v": 107
    },
    {
      "midi": 62,
      "hit": false,
      "t": 171953.0332916675,
      "d": 546.8747083333437,
      "v": 110
    },
    {
      "midi": 63,
      "hit": false,
      "t": 172477.58658333417,
      "d": 524.5532916666707,
      "v": 111
    },
    {
      "midi": 67,
      "hit": false,
      "t": 173024.4612916675,
      "d": 569.1961249999877,
      "v": 107
    },
    {
      "midi": 60,
      "hit": false,
      "t": 173526.6931666675,
      "d": 1082.588708333351,
      "v": 111
    },
    {
      "midi": 62,
      "hit": false,
      "t": 174095.8892916675,
      "d": 602.6782500000263,
      "v": 106
    },
    {
      "midi": 63,
      "hit": false,
      "t": 174598.12116666752,
      "d": 535.7140000000072,
      "v": 118
    },
    {
      "midi": 67,
      "hit": false,
      "t": 175167.31729166754,
      "d": 535.7140000000072,
      "v": 102
    },
    {
      "midi": 91,
      "hit": false,
      "t": 175647.22775000086,
      "d": 3906.2479166667035,
      "v": 115
    },
    {
      "midi": 60,
      "hit": false,
      "t": 175658.3884583342,
      "d": 725.4460416666698,
      "v": 106
    },
    {
      "midi": 62,
      "hit": false,
      "t": 176227.58458333422,
      "d": 591.5175416666316,
      "v": 107
    },
    {
      "midi": 63,
      "hit": false,
      "t": 176763.2985833342,
      "d": 513.3925833333342,
      "v": 116
    },
    {
      "midi": 67,
      "hit": false,
      "t": 177310.17329166754,
      "d": 636.1603750000068,
      "v": 111
    },
    {
      "midi": 60,
      "hit": false,
      "t": 177812.40516666754,
      "d": 758.9281666666793,
      "v": 106
    },
    {
      "midi": 62,
      "hit": false,
      "t": 178370.44058333422,
      "d": 580.3568333333242,
      "v": 96
    },
    {
      "midi": 63,
      "hit": false,
      "t": 178883.83316666755,
      "d": 491.07116666666116,
      "v": 116
    },
    {
      "midi": 67,
      "hit": false,
      "t": 179397.2257500009,
      "d": 792.4102916666889,
      "v": 104
    },
    {
      "midi": 89,
      "hit": false,
      "t": 179430.7078750009,
      "d": 658.4817916666798,
      "v": 95
    },
    {
      "midi": 60,
      "hit": false,
      "t": 179944.10045833423,
      "d": 770.0888750000158,
      "v": 105
    },
    {
      "midi": 87,
      "hit": false,
      "t": 179988.74329166758,
      "d": 1685.266958333319,
      "v": 111
    },
    {
      "midi": 62,
      "hit": false,
      "t": 180535.61800000092,
      "d": 558.0354166666511,
      "v": 105
    },
    {
      "midi": 63,
      "hit": false,
      "t": 181026.68916666758,
      "d": 535.7139999999781,
      "v": 116
    },
    {
      "midi": 86,
      "hit": false,
      "t": 181607.0460000009,
      "d": 524.5532916666707,
      "v": 106
    },
    {
      "midi": 67,
      "hit": false,
      "t": 181607.0460000009,
      "d": 647.3210833333433,
      "v": 103
    },
    {
      "midi": 60,
      "hit": false,
      "t": 182131.59929166758,
      "d": 1127.231541666668,
      "v": 102
    },
    {
      "midi": 84,
      "hit": false,
      "t": 182131.59929166758,
      "d": 1729.9097916666651,
      "v": 101
    },
    {
      "midi": 62,
      "hit": false,
      "t": 182589.18833333426,
      "d": 1071.4279999999853,
      "v": 93
    },
    {
      "midi": 63,
      "hit": false,
      "t": 183203.0272916676,
      "d": 513.3925833333051,
      "v": 116
    },
    {
      "midi": 67,
      "hit": false,
      "t": 183738.74129166757,
      "d": 457.5890416666516,
      "v": 108
    },
    {
      "midi": 89,
      "hit": false,
      "t": 183761.06270833424,
      "d": 535.7139999999781,
      "v": 94
    },
    {
      "midi": 55,
      "hit": false,
      "t": 184285.61600000088,
      "d": 2098.213166666683,
      "v": 106
    },
    {
      "midi": 91,
      "hit": false,
      "t": 184285.61600000088,
      "d": 2187.498833333346,
      "v": 107
    },
    {
      "midi": 58,
      "hit": false,
      "t": 184821.3300000009,
      "d": 1517.8563333333295,
      "v": 84
    },
    {
      "midi": 62,
      "hit": false,
      "t": 185345.88329166756,
      "d": 982.1423333333223,
      "v": 105
    },
    {
      "midi": 67,
      "hit": false,
      "t": 185859.2758750009,
      "d": 658.4817916666798,
      "v": 101
    },
    {
      "midi": 86,
      "hit": false,
      "t": 186383.82916666757,
      "d": 6506.692958333297,
      "v": 110
    },
    {
      "midi": 62,
      "hit": false,
      "t": 186986.50741666756,
      "d": 446.4283333333442,
      "v": 106
    },
    {
      "midi": 67,
      "hit": false,
      "t": 187499.9000000009,
      "d": 591.5175416666607,
      "v": 114
    },
    {
      "midi": 62,
      "hit": false,
      "t": 188024.45329166757,
      "d": 457.5890416666516,
      "v": 112
    },
    {
      "midi": 55,
      "hit": false,
      "t": 188571.32800000088,
      "d": 669.6425000000163,
      "v": 107
    },
    {
      "midi": 58,
      "hit": false,
      "t": 189107.0420000009,
      "d": 446.4283333333442,
      "v": 102
    },
    {
      "midi": 62,
      "hit": false,
      "t": 189609.2738750009,
      "d": 301.3391249999986,
      "v": 114
    },
    {
      "midi": 63,
      "hit": false,
      "t": 190167.30929166754,
      "d": 200.89274999999907,
      "v": 87
    },
    {
      "midi": 62,
      "hit": false,
      "t": 190691.8625833342,
      "d": 424.10691666667117,
      "v": 108
    },
    {
      "midi": 62,
      "hit": false,
      "t": 191272.21941666753,
      "d": 66.96424999998999,
      "v": 60
    },
    {
      "midi": 58,
      "hit": false,
      "t": 191272.21941666753,
      "d": 390.6247916666616,
      "v": 103
    },
    {
      "midi": 55,
      "hit": false,
      "t": 191763.2905833342,
      "d": 602.6782499999972,
      "v": 103
    },
    {
      "midi": 58,
      "hit": false,
      "t": 192299.0045833342,
      "d": 200.89274999999907,
      "v": 107
    },
    {
      "midi": 60,
      "hit": false,
      "t": 192812.39716666754,
      "d": 624.9996666666411,
      "v": 115
    },
    {
      "midi": 87,
      "hit": false,
      "t": 192812.39716666754,
      "d": 3883.9265000000305,
      "v": 107
    },
    {
      "midi": 62,
      "hit": false,
      "t": 193370.4325833342,
      "d": 524.5532916666707,
      "v": 100
    },
    {
      "midi": 63,
      "hit": false,
      "t": 193906.1465833342,
      "d": 491.07116666666116,
      "v": 111
    },
    {
      "midi": 67,
      "hit": false,
      "t": 194464.18200000084,
      "d": 647.3210833333433,
      "v": 108
    },
    {
      "midi": 60,
      "hit": false,
      "t": 194966.41387500084,
      "d": 725.4460416666698,
      "v": 106
    },
    {
      "midi": 62,
      "hit": false,
      "t": 195535.61000000086,
      "d": 558.0354166666802,
      "v": 105
    },
    {
      "midi": 63,
      "hit": false,
      "t": 196049.0025833342,
      "d": 502.2318750000268,
      "v": 111
    },
    {
      "midi": 67,
      "hit": false,
      "t": 196562.39516666756,
      "d": 624.9996666666702,
      "v": 92
    },
    {
      "midi": 86,
      "hit": false,
      "t": 196584.71658333423,
      "d": 513.3925833333342,
      "v": 104
    },
    {
      "midi": 60,
      "hit": false,
      "t": 197098.10916666756,
      "d": 703.1246249999967,
      "v": 99
    },
    {
      "midi": 84,
      "hit": false,
      "t": 197109.2698750009,
      "d": 1729.9097916666651,
      "v": 102
    },
    {
      "midi": 62,
      "hit": false,
      "t": 197644.9838750009,
      "d": 580.3568333332951,
      "v": 99
    },
    {
      "midi": 63,
      "hit": false,
      "t": 198169.53716666755,
      "d": 491.07116666666116,
      "v": 109
    },
    {
      "midi": 67,
      "hit": false,
      "t": 198694.09045833422,
      "d": 558.0354166667094,
      "v": 92
    },
    {
      "midi": 86,
      "hit": false,
      "t": 198716.4118750009,
      "d": 569.1961250000459,
      "v": 111
    },
    {
      "midi": 87,
      "hit": false,
      "t": 199196.32233333425,
      "d": 1796.8740416667424,
      "v": 109
    },
    {
      "midi": 60,
      "hit": false,
      "t": 199229.80445833426,
      "d": 758.9281666667084,
      "v": 106
    },
    {
      "midi": 62,
      "hit": false,
      "t": 199743.19704166762,
      "d": 602.6782500000263,
      "v": 105
    },
    {
      "midi": 63,
      "hit": false,
      "t": 200301.2324583343,
      "d": 457.5890416666807,
      "v": 116
    },
    {
      "midi": 67,
      "hit": false,
      "t": 200859.26787500098,
      "d": 613.8389583333337,
      "v": 89
    },
    {
      "midi": 89,
      "hit": false,
      "t": 200870.42858333432,
      "d": 602.6782499999972,
      "v": 93
    },
    {
      "midi": 55,
      "hit": false,
      "t": 201383.82116666765,
      "d": 1551.3384583333682,
      "v": 104
    },
    {
      "midi": 91,
      "hit": false,
      "t": 201383.82116666765,
      "d": 6707.585708333354,
      "v": 108
    },
    {
      "midi": 58,
      "hit": false,
      "t": 201919.53516666766,
      "d": 993.3030416666879,
      "v": 73
    },
    {
      "midi": 62,
      "hit": false,
      "t": 202455.24916666767,
      "d": 457.5890416666807,
      "v": 106
    },
    {
      "midi": 67,
      "hit": false,
      "t": 202957.4810416677,
      "d": 569.1961249999877,
      "v": 105
    },
    {
      "midi": 69,
      "hit": false,
      "t": 203526.67716666768,
      "d": 513.3925833333342,
      "v": 103
    },
    {
      "midi": 67,
      "hit": false,
      "t": 204062.3911666677,
      "d": 569.1961250000168,
      "v": 102
    },
    {
      "midi": 70,
      "hit": false,
      "t": 204609.26587500103,
      "d": 636.1603750000068,
      "v": 111
    },
    {
      "midi": 67,
      "hit": false,
      "t": 205178.46200000105,
      "d": 446.4283333333151,
      "v": 104
    },
    {
      "midi": 74,
      "hit": false,
      "t": 205714.17600000103,
      "d": 145.0892083333456,
      "v": 107
    },
    {
      "midi": 58,
      "hit": false,
      "t": 206249.89000000103,
      "d": 111.60708333333605,
      "v": 87
    },
    {
      "midi": 62,
      "hit": false,
      "t": 206763.28258333437,
      "d": 491.07116666666116,
      "v": 106
    },
    {
      "midi": 67,
      "hit": false,
      "t": 207310.15729166768,
      "d": 435.2676250000077,
      "v": 107
    },
    {
      "midi": 69,
      "hit": false,
      "t": 207823.54987500102,
      "d": 613.8389583333046,
      "v": 120
    },
    {
      "midi": 67,
      "hit": false,
      "t": 208370.42458333433,
      "d": 569.1961249999877,
      "v": 89
    },
    {
      "midi": 70,
      "hit": false,
      "t": 208906.1385833343,
      "d": 145.0892083333456,
      "v": 113
    },
    {
      "midi": 75,
      "hit": false,
      "t": 209475.33470833433,
      "d": 435.2676250000077,
      "v": 121
    },
    {
      "midi": 46,
      "hit": false,
      "t": 210011.04870833433,
      "d": 613.8389583333337,
      "v": 111
    },
    {
      "midi": 77,
      "hit": false,
      "t": 210011.04870833433,
      "d": 3895.087208333396,
      "v": 105
    },
    {
      "midi": 50,
      "hit": false,
      "t": 210557.92341666768,
      "d": 457.5890416666516,
      "v": 111
    },
    {
      "midi": 53,
      "hit": false,
      "t": 211048.99458333434,
      "d": 156.249916666653,
      "v": 114
    },
    {
      "midi": 58,
      "hit": false,
      "t": 211607.030000001,
      "d": 446.4283333333442,
      "v": 107
    },
    {
      "midi": 62,
      "hit": false,
      "t": 212098.10116666768,
      "d": 837.0531249999767,
      "v": 112
    },
    {
      "midi": 58,
      "hit": false,
      "t": 212678.458000001,
      "d": 491.07116666666116,
      "v": 102
    },
    {
      "midi": 53,
      "hit": false,
      "t": 213214.172000001,
      "d": 624.9996666666993,
      "v": 96
    },
    {
      "midi": 58,
      "hit": false,
      "t": 213749.88600000102,
      "d": 156.24991666671121,
      "v": 103
    },
    {
      "midi": 79,
      "hit": false,
      "t": 213794.52883333436,
      "d": 580.3568333333533,
      "v": 96
    },
    {
      "midi": 80,
      "hit": false,
      "t": 214285.60000000105,
      "d": 2209.820250000048,
      "v": 107
    },
    {
      "midi": 41,
      "hit": false,
      "t": 214319.08212500106,
      "d": 970.9816249999858,
      "v": 112
    },
    {
      "midi": 48,
      "hit": false,
      "t": 214843.6354166677,
      "d": 424.10691666667117,
      "v": 94
    },
    {
      "midi": 53,
      "hit": false,
      "t": 215312.38516666772,
      "d": 133.92850000000908,
      "v": 106
    },
    {
      "midi": 56,
      "hit": false,
      "t": 215892.74200000108,
      "d": 446.4283333333442,
      "v": 98
    },
    {
      "midi": 82,
      "hit": false,
      "t": 216383.81316666777,
      "d": 2276.784500000009,
      "v": 111
    },
    {
      "midi": 60,
      "hit": false,
      "t": 216394.9738750011,
      "d": 725.4460416666407,
      "v": 103
    },
    {
      "midi": 53,
      "hit": false,
      "t": 216964.1700000011,
      "d": 1037.9458749999758,
      "v": 97
    },
    {
      "midi": 56,
      "hit": false,
      "t": 217499.88400000107,
      "d": 535.7140000000072,
      "v": 100
    },
    {
      "midi": 60,
      "hit": false,
      "t": 218080.24083333442,
      "d": 535.7140000000072,
      "v": 107
    },
    {
      "midi": 48,
      "hit": false,
      "t": 218571.31200000108,
      "d": 1551.3384583333973,
      "v": 108
    },
    {
      "midi": 84,
      "hit": false,
      "t": 218582.47270833442,
      "d": 4241.069166666741,
      "v": 101
    },
    {
      "midi": 51,
      "hit": false,
      "t": 219118.18670833446,
      "d": 982.1423333333514,
      "v": 84
    },
    {
      "midi": 55,
      "hit": false,
      "t": 219642.74000000113,
      "d": 535.7140000000072,
      "v": 101
    },
    {
      "midi": 60,
      "hit": false,
      "t": 220178.45400000113,
      "d": 524.5532916666707,
      "v": 106
    },
    {
      "midi": 62,
      "hit": false,
      "t": 220736.4894166678,
      "d": 591.5175416666607,
      "v": 105
    },
    {
      "midi": 63,
      "hit": false,
      "t": 221261.04270833448,
      "d": 569.1961249999877,
      "v": 100
    },
    {
      "midi": 67,
      "hit": false,
      "t": 221819.07812500114,
      "d": 546.8747083333437,
      "v": 105
    },
    {
      "midi": 60,
      "hit": false,
      "t": 222287.82787500115,
      "d": 156.249916666653,
      "v": 101
    },
    {
      "midi": 77,
      "hit": false,
      "t": 222778.8990416678,
      "d": 3426.33745833335,
      "v": 80
    },
    {
      "midi": 86,
      "hit": false,
      "t": 222812.38116666782,
      "d": 3381.6946250000037,
      "v": 101
    },
    {
      "midi": 55,
      "hit": false,
      "t": 222857.02400000117,
      "d": 613.8389583333337,
      "v": 101
    },
    {
      "midi": 59,
      "hit": false,
      "t": 223392.73800000118,
      "d": 446.4283333333151,
      "v": 98
    },
    {
      "midi": 62,
      "hit": false,
      "t": 223883.80916666784,
      "d": 680.8032083333237,
      "v": 114
    },
    {
      "midi": 59,
      "hit": false,
      "t": 224464.16600000116,
      "d": 535.7139999999781,
      "v": 100
    },
    {
      "midi": 55,
      "hit": false,
      "t": 224944.0764583345,
      "d": 145.0892083333165,
      "v": 106
    },
    {
      "midi": 50,
      "hit": false,
      "t": 225535.59400000115,
      "d": 491.07116666666116,
      "v": 99
    },
    {
      "midi": 47,
      "hit": false,
      "t": 226071.30800000115,
      "d": 345.98195833334466,
      "v": 108
    },
    {
      "midi": 43,
      "hit": false,
      "t": 226361.48641666782,
      "d": 133.92850000000908,
      "v": 117
    },
    {
      "midi": 86,
      "hit": false,
      "t": 226383.8078333345,
      "d": 89.28566666666302,
      "v": 108
    },
    {
      "midi": 87,
      "hit": false,
      "t": 226651.66483333448,
      "d": 156.2499166666821,
      "v": 100
    },
    {
      "midi": 86,
      "hit": false,
      "t": 226774.43262500115,
      "d": 100.44637500002864,
      "v": 64
    },
    {
      "midi": 84,
      "hit": false,
      "t": 226852.5575833345,
      "d": 156.2499166666821,
      "v": 92
    },
    {
      "midi": 86,
      "hit": false,
      "t": 226986.48608333452,
      "d": 89.28566666666302,
      "v": 97
    },
    {
      "midi": 79,
      "hit": false,
      "t": 227098.09316666785,
      "d": 4040.1764166666544,
      "v": 105
    },
    {
      "midi": 44,
      "hit": false,
      "t": 227321.3073333345,
      "d": 926.3387916666688,
      "v": 111
    },
    {
      "midi": 87,
      "hit": false,
      "t": 227332.46804166783,
      "d": 4140.622791666683,
      "v": 124
    },
    {
      "midi": 51,
      "hit": false,
      "t": 227823.5392083345,
      "d": 435.2676250000077,
      "v": 95
    },
    {
      "midi": 56,
      "hit": false,
      "t": 228314.61037500115,
      "d": 524.5532916666707,
      "v": 113
    },
    {
      "midi": 58,
      "hit": false,
      "t": 228839.16366666782,
      "d": 390.6247916666616,
      "v": 109
    },
    {
      "midi": 60,
      "hit": false,
      "t": 229307.9134166678,
      "d": 647.3210833333433,
      "v": 114
    },
    {
      "midi": 56,
      "hit": false,
      "t": 229865.9488333345,
      "d": 491.07116666666116,
      "v": 109
    },
    {
      "midi": 51,
      "hit": false,
      "t": 230357.02000000115,
      "d": 624.9996666666702,
      "v": 113
    },
    {
      "midi": 56,
      "hit": false,
      "t": 230915.05541666783,
      "d": 156.249916666653,
      "v": 109
    },
    {
      "midi": 41,
      "hit": false,
      "t": 231383.80516666785,
      "d": 1071.4280000000144,
      "v": 118
    },
    {
      "midi": 80,
      "hit": false,
      "t": 231383.80516666785,
      "d": 1919.6418333333568,
      "v": 102
    },
    {
      "midi": 89,
      "hit": false,
      "t": 231383.80516666785,
      "d": 2209.820250000048,
      "v": 93
    },
    {
      "midi": 48,
      "hit": false,
      "t": 231964.16200000118,
      "d": 446.4283333333442,
      "v": 86
    },
    {
      "midi": 53,
      "hit": false,
      "t": 232477.55458333454,
      "d": 156.249916666653,
      "v": 104
    },
    {
      "midi": 56,
      "hit": false,
      "t": 233069.0721250012,
      "d": 435.2676250000077,
      "v": 87
    },
    {
      "midi": 87,
      "hit": false,
      "t": 233537.82187500122,
      "d": 2031.2489166666928,
      "v": 94
    },
    {
      "midi": 79,
      "hit": false,
      "t": 233548.98258333455,
      "d": 1930.8025416666933,
      "v": 110
    },
    {
      "midi": 60,
      "hit": false,
      "t": 233571.30400000123,
      "d": 636.1603750000068,
      "v": 104
    },
    {
      "midi": 53,
      "hit": false,
      "t": 234084.69658333456,
      "d": 1183.0350833333505,
      "v": 103
    },
    {
      "midi": 56,
      "hit": false,
      "t": 234598.0891666679,
      "d": 647.3210833333433,
      "v": 109
    },
    {
      "midi": 60,
      "hit": false,
      "t": 235223.08883333456,
      "d": 133.92850000000908,
      "v": 101
    },
    {
      "midi": 86,
      "hit": false,
      "t": 235669.5171666679,
      "d": 3091.5162083334,
      "v": 106
    },
    {
      "midi": 46,
      "hit": false,
      "t": 235680.67787500125,
      "d": 1015.624458333361,
      "v": 109
    },
    {
      "midi": 77,
      "hit": false,
      "t": 235680.67787500125,
      "d": 3069.194791666727,
      "v": 105
    },
    {
      "midi": 50,
      "hit": false,
      "t": 236238.71329166793,
      "d": 457.5890416666807,
      "v": 89
    },
    {
      "midi": 53,
      "hit": false,
      "t": 236729.78445833462,
      "d": 145.0892083333456,
      "v": 114
    },
    {
      "midi": 58,
      "hit": false,
      "t": 237287.8198750013,
      "d": 435.2676250000077,
      "v": 111
    },
    {
      "midi": 62,
      "hit": false,
      "t": 237790.0517500013,
      "d": 703.1246250000258,
      "v": 112
    },
    {
      "midi": 58,
      "hit": false,
      "t": 238348.08716666797,
      "d": 535.7140000000072,
      "v": 98
    },
    {
      "midi": 53,
      "hit": false,
      "t": 238872.64045833464,
      "d": 580.3568333333242,
      "v": 111
    },
    {
      "midi": 58,
      "hit": false,
      "t": 239386.03304166798,
      "d": 111.60708333333605,
      "v": 98
    },
    {
      "midi": 79,
      "hit": false,
      "t": 239653.890041668,
      "d": 1874.999000000069,
      "v": 112
    },
    {
      "midi": 87,
      "hit": false,
      "t": 239921.74704166802,
      "d": 2109.3738750000775,
      "v": 116
    },
    {
      "midi": 43,
      "hit": false,
      "t": 239955.22916666802,
      "d": 1026.7851666666975,
      "v": 110
    },
    {
      "midi": 50,
      "hit": false,
      "t": 240502.10387500137,
      "d": 457.5890416666807,
      "v": 95
    },
    {
      "midi": 55,
      "hit": false,
      "t": 241026.65716666807,
      "d": 524.5532916666707,
      "v": 111
    },
    {
      "midi": 59,
      "hit": false,
      "t": 241595.85329166809,
      "d": 569.1961249999877,
      "v": 103
    },
    {
      "midi": 81,
      "hit": false,
      "t": 242086.92445833475,
      "d": 1183.0350833333214,
      "v": 100
    },
    {
      "midi": 62,
      "hit": false,
      "t": 242098.08516666808,
      "d": 546.8747083333146,
      "v": 103
    },
    {
      "midi": 89,
      "hit": false,
      "t": 242098.08516666808,
      "d": 1238.8386249999749,
      "v": 92
    },
    {
      "midi": 43,
      "hit": false,
      "t": 242120.40658333336,
      "d": 156.249916666653,
      "v": 55
    },
    {
      "midi": 45,
      "hit": false,
      "t": 242187.37083333335,
      "d": 200.89274999999907,
      "v": 56
    },
    {
      "midi": 47,
      "hit": false,
      "t": 242321.29933333336,
      "d": 156.2499166666821,
      "v": 59
    },
    {
      "midi": 48,
      "hit": false,
      "t": 242410.58500000002,
      "d": 145.0892083333456,
      "v": 59
    },
    {
      "midi": 49,
      "hit": false,
      "t": 242455.22783333337,
      "d": 33.482125000009546,
      "v": 61
    },
    {
      "midi": 50,
      "hit": false,
      "t": 242488.70995833338,
      "d": 145.0892083333456,
      "v": 61
    },
    {
      "midi": 51,
      "hit": false,
      "t": 242544.51350000003,
      "d": 44.64283333334606,
      "v": 65
    },
    {
      "midi": 52,
      "hit": false,
      "t": 242577.99562500004,
      "d": 145.0892083333747,
      "v": 65
    },
    {
      "midi": 59,
      "hit": false,
      "t": 242656.12058333473,
      "d": 513.3925833333342,
      "v": 89
    },
    {
      "midi": 53,
      "hit": false,
      "t": 242667.28129166673,
      "d": 122.76779166670167,
      "v": 67
    },
    {
      "midi": 54,
      "hit": false,
      "t": 242678.44200000007,
      "d": 55.80354166668258,
      "v": 67
    },
    {
      "midi": 55,
      "hit": false,
      "t": 242734.24554166675,
      "d": 122.76779166670167,
      "v": 67
    },
    {
      "midi": 56,
      "hit": false,
      "t": 242767.72766666676,
      "d": 44.64283333334606,
      "v": 67
    },
    {
      "midi": 57,
      "hit": false,
      "t": 242790.04908333343,
      "d": 145.0892083333747,
      "v": 68
    },
    {
      "midi": 58,
      "hit": false,
      "t": 242857.01333333345,
      "d": 44.64283333334606,
      "v": 71
    },
    {
      "midi": 59,
      "hit": false,
      "t": 242857.01333333345,
      "d": 145.0892083333747,
      "v": 71
    },
    {
      "midi": 60,
      "hit": false,
      "t": 242923.97758333347,
      "d": 156.24991666671121,
      "v": 74
    },
    {
      "midi": 61,
      "hit": false,
      "t": 242968.62041666682,
      "d": 44.64283333334606,
      "v": 76
    },
    {
      "midi": 62,
      "hit": false,
      "t": 242990.9418333335,
      "d": 156.24991666671121,
      "v": 79
    },
    {
      "midi": 63,
      "hit": false,
      "t": 243057.9060833335,
      "d": 44.64283333334606,
      "v": 81
    },
    {
      "midi": 64,
      "hit": false,
      "t": 243057.9060833335,
      "d": 156.24991666671121,
      "v": 81
    },
    {
      "midi": 65,
      "hit": false,
      "t": 243124.87033333353,
      "d": 167.41062500001863,
      "v": 81
    },
    {
      "midi": 66,
      "hit": false,
      "t": 243180.6738750002,
      "d": 33.482125000009546,
      "v": 82
    },
    {
      "midi": 67,
      "hit": false,
      "t": 243191.83458333474,
      "d": 167.41062499998952,
      "v": 107
    },
    {
      "midi": 67,
      "hit": false,
      "t": 243202.99529166688,
      "d": 156.249916666653,
      "v": 82
    },
    {
      "midi": 69,
      "hit": false,
      "t": 243281.1202500002,
      "d": 145.0892083333165,
      "v": 87
    },
    {
      "midi": 71,
      "hit": false,
      "t": 243348.0845000002,
      "d": 145.0892083333165,
      "v": 88
    },
    {
      "midi": 72,
      "hit": false,
      "t": 243415.0487500002,
      "d": 156.249916666653,
      "v": 88
    },
    {
      "midi": 74,
      "hit": false,
      "t": 243493.17370833352,
      "d": 133.92849999997998,
      "v": 91
    },
    {
      "midi": 76,
      "hit": false,
      "t": 243560.1379583335,
      "d": 145.0892083333165,
      "v": 92
    },
    {
      "midi": 77,
      "hit": false,
      "t": 243627.1022083335,
      "d": 133.92849999997998,
      "v": 95
    },
    {
      "midi": 79,
      "hit": false,
      "t": 243705.22716666682,
      "d": 133.92849999997998,
      "v": 98
    },
    {
      "midi": 81,
      "hit": false,
      "t": 243772.1914166668,
      "d": 156.249916666653,
      "v": 100
    },
    {
      "midi": 83,
      "hit": false,
      "t": 243861.47708333348,
      "d": 145.0892083333165,
      "v": 100
    },
    {
      "midi": 84,
      "hit": false,
      "t": 243939.6020416668,
      "d": 156.249916666653,
      "v": 100
    },
    {
      "midi": 86,
      "hit": false,
      "t": 244017.72700000013,
      "d": 167.41062499998952,
      "v": 100
    },
    {
      "midi": 82,
      "hit": false,
      "t": 244051.2091250014,
      "d": 279.0177083333256,
      "v": 92
    },
    {
      "midi": 88,
      "hit": false,
      "t": 244107.0126666668,
      "d": 145.0892083333456,
      "v": 100
    },
    {
      "midi": 89,
      "hit": false,
      "t": 244218.61975000013,
      "d": 357.1426666666812,
      "v": 100
    },
    {
      "midi": 87,
      "hit": false,
      "t": 244240.94116666805,
      "d": 178.57133333332604,
      "v": 74
    },
    {
      "midi": 91,
      "hit": false,
      "t": 244296.74470833348,
      "d": 1473.2134999999835,
      "v": 98
    },
    {
      "midi": 91,
      "hit": false,
      "t": 244319.06612500138,
      "d": 3749.9980000000505,
      "v": 111
    },
    {
      "midi": 48,
      "hit": false,
      "t": 244363.70895833473,
      "d": 1506.695624999993,
      "v": 112
    },
    {
      "midi": 51,
      "hit": false,
      "t": 244910.58366666804,
      "d": 982.1423333333514,
      "v": 94
    },
    {
      "midi": 55,
      "hit": false,
      "t": 245412.81554166804,
      "d": 491.07116666669026,
      "v": 107
    },
    {
      "midi": 60,
      "hit": false,
      "t": 245926.2081250014,
      "d": 457.5890416666807,
      "v": 108
    },
    {
      "midi": 62,
      "hit": false,
      "t": 246450.76141666807,
      "d": 491.07116666666116,
      "v": 117
    },
    {
      "midi": 63,
      "hit": false,
      "t": 246964.1540000014,
      "d": 491.07116666666116,
      "v": 107
    },
    {
      "midi": 67,
      "hit": false,
      "t": 247477.54658333474,
      "d": 669.6425000000163,
      "v": 108
    },
    {
      "midi": 89,
      "hit": false,
      "t": 248002.0998750014,
      "d": 636.1603750000068,
      "v": 97
    },
    {
      "midi": 62,
      "hit": false,
      "t": 248024.42129166808,
      "d": 446.4283333333442,
      "v": 111
    },
    {
      "midi": 87,
      "hit": false,
      "t": 248537.81387500142,
      "d": 1729.9097916666651,
      "v": 116
    },
    {
      "midi": 60,
      "hit": false,
      "t": 248571.29600000143,
      "d": 647.3210833333142,
      "v": 102
    },
    {
      "midi": 62,
      "hit": false,
      "t": 249118.17070833474,
      "d": 524.5532916666707,
      "v": 107
    },
    {
      "midi": 63,
      "hit": false,
      "t": 249642.7240000014,
      "d": 502.2318749999977,
      "v": 109
    },
    {
      "midi": 67,
      "hit": false,
      "t": 250178.43800000142,
      "d": 502.2318749999977,
      "v": 106
    },
    {
      "midi": 86,
      "hit": false,
      "t": 250178.43800000142,
      "d": 502.2318749999977,
      "v": 105
    },
    {
      "midi": 60,
      "hit": false,
      "t": 250680.66987500142,
      "d": 1071.4280000000144,
      "v": 108
    },
    {
      "midi": 84,
      "hit": false,
      "t": 250691.83058333475,
      "d": 1707.5883750000212,
      "v": 111
    },
    {
      "midi": 62,
      "hit": false,
      "t": 251216.38387500143,
      "d": 569.1961250000168,
      "v": 86
    },
    {
      "midi": 63,
      "hit": false,
      "t": 251752.09787500143,
      "d": 122.76779166667257,
      "v": 118
    },
    {
      "midi": 89,
      "hit": false,
      "t": 252310.1332916681,
      "d": 546.8747083333728,
      "v": 120
    },
    {
      "midi": 43,
      "hit": false,
      "t": 252812.36516666814,
      "d": 1060.2672916666488,
      "v": 115
    },
    {
      "midi": 91,
      "hit": false,
      "t": 252812.36516666814,
      "d": 2265.6237916666723,
      "v": 117
    },
    {
      "midi": 50,
      "hit": false,
      "t": 253348.07916666815,
      "d": 468.7497499999881,
      "v": 97
    },
    {
      "midi": 55,
      "hit": false,
      "t": 253883.79316666813,
      "d": 491.07116666666116,
      "v": 112
    },
    {
      "midi": 57,
      "hit": false,
      "t": 254419.50716666813,
      "d": 624.9996666666702,
      "v": 105
    },
    {
      "midi": 58,
      "hit": false,
      "t": 254955.22116666814,
      "d": 591.5175416666898,
      "v": 95
    },
    {
      "midi": 86,
      "hit": false,
      "t": 254988.70329166815,
      "d": 6484.371541666769,
      "v": 117
    },
    {
      "midi": 62,
      "hit": false,
      "t": 255502.09587500148,
      "d": 468.74975000001723,
      "v": 106
    },
    {
      "midi": 55,
      "hit": false,
      "t": 256015.48845833485,
      "d": 1037.945875000005,
      "v": 108
    },
    {
      "midi": 67,
      "hit": false,
      "t": 256540.04175000152,
      "d": 558.0354166666802,
      "v": 104
    },
    {
      "midi": 62,
      "hit": false,
      "t": 257053.43433333485,
      "d": 491.07116666669026,
      "v": 114
    },
    {
      "midi": 55,
      "hit": false,
      "t": 257622.63045833487,
      "d": 636.1603750000068,
      "v": 103
    },
    {
      "midi": 58,
      "hit": false,
      "t": 258169.5051666682,
      "d": 524.5532916666707,
      "v": 103
    },
    {
      "midi": 62,
      "hit": false,
      "t": 258749.86200000154,
      "d": 345.98195833334466,
      "v": 107
    },
    {
      "midi": 63,
      "hit": false,
      "t": 259252.09387500153,
      "d": 234.37487500000861,
      "v": 111
    },
    {
      "midi": 62,
      "hit": false,
      "t": 259821.29000000155,
      "d": 580.3568333333242,
      "v": 108
    },
    {
      "midi": 58,
      "hit": false,
      "t": 260312.3611666682,
      "d": 546.8747083333437,
      "v": 111
    },
    {
      "midi": 55,
      "hit": false,
      "t": 260892.71800000157,
      "d": 200.89274999999907,
      "v": 106
    },
    {
      "midi": 87,
      "hit": false,
      "t": 261417.27129166824,
      "d": 3839.2836666666553,
      "v": 113
    },
    {
      "midi": 48,
      "hit": false,
      "t": 261461.91412500158,
      "d": 535.7140000000072,
      "v": 87
    },
    {
      "midi": 51,
      "hit": false,
      "t": 261997.6281250016,
      "d": 1015.6244583333319,
      "v": 92
    },
    {
      "midi": 55,
      "hit": false,
      "t": 262499.8600000016,
      "d": 535.7139999999781,
      "v": 108
    },
    {
      "midi": 60,
      "hit": false,
      "t": 263035.5740000016,
      "d": 468.74975000001723,
      "v": 107
    },
    {
      "midi": 62,
      "hit": false,
      "t": 263548.96658333496,
      "d": 513.3925833333051,
      "v": 118
    },
    {
      "midi": 63,
      "hit": false,
      "t": 264095.84129166824,
      "d": 502.2318749999977,
      "v": 97
    },
    {
      "midi": 67,
      "hit": false,
      "t": 264609.23387500155,
      "d": 680.8032083333237,
      "v": 111
    },
    {
      "midi": 86,
      "hit": false,
      "t": 265156.1085833349,
      "d": 513.3925833333051,
      "v": 111
    },
    {
      "midi": 62,
      "hit": false,
      "t": 265178.43000000156,
      "d": 424.10691666661296,
      "v": 100
    },
    {
      "midi": 84,
      "hit": false,
      "t": 265680.6618750015,
      "d": 1729.909791666607,
      "v": 111
    },
    {
      "midi": 60,
      "hit": false,
      "t": 265691.8225833348,
      "d": 636.1603749999776,
      "v": 102
    },
    {
      "midi": 62,
      "hit": false,
      "t": 266227.5365833348,
      "d": 546.8747083332855,
      "v": 107
    },
    {
      "midi": 63,
      "hit": false,
      "t": 266740.9291666681,
      "d": 457.5890416666516,
      "v": 113
    },
    {
      "midi": 67,
      "hit": false,
      "t": 267265.48245833477,
      "d": 457.5890416666516,
      "v": 105
    },
    {
      "midi": 86,
      "hit": false,
      "t": 267321.2860000014,
      "d": 580.3568333333242,
      "v": 97
    },
    {
      "midi": 62,
      "hit": false,
      "t": 267778.87504166807,
      "d": 1104.9101249999949,
      "v": 115
    },
    {
      "midi": 87,
      "hit": false,
      "t": 267801.19645833474,
      "d": 1651.7848333333386,
      "v": 97
    },
    {
      "midi": 63,
      "hit": false,
      "t": 268359.2318750014,
      "d": 569.1961249999586,
      "v": 103
    },
    {
      "midi": 67,
      "hit": false,
      "t": 268894.9458750014,
      "d": 200.89274999999907,
      "v": 118
    },
    {
      "midi": 89,
      "hit": false,
      "t": 269386.01704166806,
      "d": 290.1784166666912,
      "v": 90
    },
    {
      "midi": 82,
      "hit": false,
      "t": 269676.19545833475,
      "d": 6830.353499999852,
      "v": 98
    },
    {
      "midi": 91,
      "hit": false,
      "t": 269966.3738750014,
      "d": 6450.889416666527,
      "v": 111
    },
    {
      "midi": 43,
      "hit": false,
      "t": 269999.85600000137,
      "d": 970.9816249999567,
      "v": 117
    },
    {
      "midi": 50,
      "hit": false,
      "t": 270502.08787500137,
      "d": 435.2676249999786,
      "v": 100
    },
    {
      "midi": 55,
      "hit": false,
      "t": 271004.3197500013,
      "d": 558.0354166666511,
      "v": 110
    },
    {
      "midi": 57,
      "hit": false,
      "t": 271573.51587500126,
      "d": 613.8389583333628,
      "v": 111
    },
    {
      "midi": 58,
      "hit": false,
      "t": 272098.06916666793,
      "d": 1026.7851666667266,
      "v": 107
    },
    {
      "midi": 62,
      "hit": false,
      "t": 272656.10458333464,
      "d": 502.2318749999977,
      "v": 104
    },
    {
      "midi": 67,
      "hit": false,
      "t": 273169.49716666795,
      "d": 602.6782499999972,
      "v": 106
    },
    {
      "midi": 62,
      "hit": false,
      "t": 273705.2111666679,
      "d": 558.0354166667094,
      "v": 103
    },
    {
      "midi": 67,
      "hit": false,
      "t": 274263.24658333464,
      "d": 513.3925833333051,
      "v": 115
    },
    {
      "midi": 55,
      "hit": false,
      "t": 274810.1212916679,
      "d": 703.1246249999967,
      "v": 102
    },
    {
      "midi": 57,
      "hit": false,
      "t": 275312.3531666679,
      "d": 680.8032083333237,
      "v": 108
    },
    {
      "midi": 58,
      "hit": false,
      "t": 275859.22787500126,
      "d": 535.7139999999781,
      "v": 92
    },
    {
      "midi": 62,
      "hit": false,
      "t": 276383.78116666793,
      "d": 770.0888749999576,
      "v": 114
    },
    {
      "midi": 58,
      "hit": false,
      "t": 276919.4951666679,
      "d": 580.3568333333242,
      "v": 82
    },
    {
      "midi": 55,
      "hit": false,
      "t": 277432.8877500012,
      "d": 345.98195833334466,
      "v": 99
    },
    {
      "midi": 75,
      "hit": false,
      "t": 277990.92316666787,
      "d": 691.9639166666893,
      "v": 88
    },
    {
      "midi": 46,
      "hit": false,
      "t": 278582.44070833456,
      "d": 1037.945875000034,
      "v": 103
    },
    {
      "midi": 77,
      "hit": false,
      "t": 278593.60141666787,
      "d": 3805.801541666675,
      "v": 110
    },
    {
      "midi": 70,
      "hit": false,
      "t": 278615.92283333454,
      "d": 3716.5158749999828,
      "v": 109
    },
    {
      "midi": 50,
      "hit": false,
      "t": 279173.95825000125,
      "d": 468.74975000001723,
      "v": 111
    },
    {
      "midi": 53,
      "hit": false,
      "t": 279676.19012500125,
      "d": 145.0892083333456,
      "v": 112
    },
    {
      "midi": 58,
      "hit": false,
      "t": 280245.38625000126,
      "d": 424.10691666667117,
      "v": 97
    },
    {
      "midi": 62,
      "hit": false,
      "t": 280747.61812500126,
      "d": 725.4460416666698,
      "v": 110
    },
    {
      "midi": 58,
      "hit": false,
      "t": 281283.33212500124,
      "d": 502.2318749999977,
      "v": 98
    },
    {
      "midi": 53,
      "hit": false,
      "t": 281774.4032916679,
      "d": 624.999666666612,
      "v": 104
    },
    {
      "midi": 79,
      "hit": false,
      "t": 282298.95658333454,
      "d": 569.1961249999003,
      "v": 93
    },
    {
      "midi": 58,
      "hit": false,
      "t": 282321.2780000012,
      "d": 133.92849999997998,
      "v": 102
    },
    {
      "midi": 78,
      "hit": false,
      "t": 282667.2599583345,
      "d": 167.41062500001863,
      "v": 10
    },
    {
      "midi": 41,
      "hit": false,
      "t": 282845.8312916678,
      "d": 1004.4637499998789,
      "v": 114
    },
    {
      "midi": 80,
      "hit": false,
      "t": 282845.8312916678,
      "d": 2154.0167083331617,
      "v": 105
    },
    {
      "midi": 72,
      "hit": false,
      "t": 282856.99200000113,
      "d": 1607.1419999998761,
      "v": 94
    },
    {
      "midi": 48,
      "hit": false,
      "t": 283426.1881250011,
      "d": 412.94620833330555,
      "v": 80
    },
    {
      "midi": 53,
      "hit": false,
      "t": 283883.7771666677,
      "d": 133.92849999997998,
      "v": 110
    },
    {
      "midi": 56,
      "hit": false,
      "t": 284441.81258333434,
      "d": 446.4283333333442,
      "v": 100
    },
    {
      "midi": 82,
      "hit": false,
      "t": 284888.2409166677,
      "d": 2265.623791666585,
      "v": 81
    },
    {
      "midi": 60,
      "hit": false,
      "t": 284921.72304166766,
      "d": 725.4460416666698,
      "v": 106
    },
    {
      "midi": 74,
      "hit": false,
      "t": 284921.72304166766,
      "d": 1964.2846666666446,
      "v": 104
    },
    {
      "midi": 53,
      "hit": false,
      "t": 285468.597750001,
      "d": 1093.7494166666293,
      "v": 96
    },
    {
      "midi": 56,
      "hit": false,
      "t": 286004.311750001,
      "d": 580.3568333333242,
      "v": 111
    },
    {
      "midi": 60,
      "hit": false,
      "t": 286606.990000001,
      "d": 491.07116666663205,
      "v": 105
    },
    {
      "midi": 48,
      "hit": false,
      "t": 287131.5432916676,
      "d": 1584.8205833333195,
      "v": 103
    },
    {
      "midi": 84,
      "hit": false,
      "t": 287131.5432916676,
      "d": 4296.872708333307,
      "v": 82
    },
    {
      "midi": 75,
      "hit": false,
      "t": 287165.0254166676,
      "d": 3537.9445416666567,
      "v": 98
    },
    {
      "midi": 51,
      "hit": false,
      "t": 287689.57870833424,
      "d": 1049.1065833333414,
      "v": 81
    },
    {
      "midi": 55,
      "hit": false,
      "t": 288258.77483333426,
      "d": 524.5532916666707,
      "v": 102
    },
    {
      "midi": 60,
      "hit": false,
      "t": 288761.00670833426,
      "d": 502.2318749999977,
      "v": 110
    },
    {
      "midi": 62,
      "hit": false,
      "t": 289285.5600000009,
      "d": 602.6782499999972,
      "v": 107
    },
    {
      "midi": 63,
      "hit": false,
      "t": 289832.4347083343,
      "d": 524.5532916666125,
      "v": 103
    },
    {
      "midi": 67,
      "hit": false,
      "t": 290345.8272916676,
      "d": 546.8747083333437,
      "v": 108
    },
    {
      "midi": 60,
      "hit": false,
      "t": 290848.0591666676,
      "d": 133.92850000003818,
      "v": 99
    },
    {
      "midi": 86,
      "hit": false,
      "t": 291372.6124583343,
      "d": 3381.6946249998873,
      "v": 100
    },
    {
      "midi": 55,
      "hit": false,
      "t": 291383.7731666676,
      "d": 636.1603749999194,
      "v": 99
    },
    {
      "midi": 77,
      "hit": false,
      "t": 291394.9338750009,
      "d": 3370.53391666658,
      "v": 95
    },
    {
      "midi": 59,
      "hit": false,
      "t": 291964.1300000009,
      "d": 457.5890416666516,
      "v": 105
    },
    {
      "midi": 62,
      "hit": false,
      "t": 292466.3618750009,
      "d": 714.2853333333042,
      "v": 110
    },
    {
      "midi": 59,
      "hit": false,
      "t": 293046.7187083342,
      "d": 535.7139999999781,
      "v": 105
    },
    {
      "midi": 55,
      "hit": false,
      "t": 293526.6291666675,
      "d": 145.0892083333456,
      "v": 111
    },
    {
      "midi": 50,
      "hit": false,
      "t": 294129.3074166675,
      "d": 479.91045833332464,
      "v": 107
    },
    {
      "midi": 47,
      "hit": false,
      "t": 294665.0214166675,
      "d": 279.0177083333256,
      "v": 111
    },
    {
      "midi": 86,
      "hit": false,
      "t": 294910.55700000084,
      "d": 78.1249583333265,
      "v": 112
    },
    {
      "midi": 43,
      "hit": false,
      "t": 294910.55700000084,
      "d": 122.76779166667257,
      "v": 121
    },
    {
      "midi": 87,
      "hit": false,
      "t": 295133.7711666675,
      "d": 145.0892083333456,
      "v": 111
    },
    {
      "midi": 86,
      "hit": false,
      "t": 295256.5389583342,
      "d": 111.60708333330695,
      "v": 86
    },
    {
      "midi": 84,
      "hit": false,
      "t": 295356.9853333342,
      "d": 133.92849999997998,
      "v": 92
    },
    {
      "midi": 86,
      "hit": false,
      "t": 295468.5924166675,
      "d": 100.44637499999953,
      "v": 93
    },
    {
      "midi": 79,
      "hit": false,
      "t": 295591.36020833417,
      "d": 4029.015708333289,
      "v": 110
    },
    {
      "midi": 44,
      "hit": false,
      "t": 295702.96729166753,
      "d": 993.3030416666297,
      "v": 113
    },
    {
      "midi": 87,
      "hit": false,
      "t": 295714.12800000084,
      "d": 4330.354833333229,
      "v": 121
    },
    {
      "midi": 51,
      "hit": false,
      "t": 296227.52058333415,
      "d": 468.74975000001723,
      "v": 92
    },
    {
      "midi": 56,
      "hit": false,
      "t": 296729.75245833414,
      "d": 558.0354166666511,
      "v": 113
    },
    {
      "midi": 58,
      "hit": false,
      "t": 297298.9485833341,
      "d": 491.07116666669026,
      "v": 105
    },
    {
      "midi": 60,
      "hit": false,
      "t": 297834.66258333414,
      "d": 647.3210833333433,
      "v": 114
    },
    {
      "midi": 56,
      "hit": false,
      "t": 298392.6980000008,
      "d": 535.7140000000363,
      "v": 109
    },
    {
      "midi": 51,
      "hit": false,
      "t": 298906.09058333415,
      "d": 613.8389583333046,
      "v": 107
    },
    {
      "midi": 56,
      "hit": false,
      "t": 299441.80458333413,
      "d": 189.73204166663345,
      "v": 111
    },
    {
      "midi": 80,
      "hit": false,
      "t": 299921.71504166746,
      "d": 1953.1239583333372,
      "v": 97
    },
    {
      "midi": 89,
      "hit": false,
      "t": 299932.87575000076,
      "d": 2176.3381250000093,
      "v": 91
    },
    {
      "midi": 41,
      "hit": false,
      "t": 299944.03645833407,
      "d": 1060.267291666707,
      "v": 115
    },
    {
      "midi": 48,
      "hit": false,
      "t": 300513.2325833341,
      "d": 468.74975000001723,
      "v": 84
    },
    {
      "midi": 53,
      "hit": false,
      "t": 301037.78587500076,
      "d": 122.76779166667257,
      "v": 112
    },
    {
      "midi": 56,
      "hit": false,
      "t": 301651.6248333341,
      "d": 412.94620833336376,
      "v": 113
    },
    {
      "midi": 60,
      "hit": false,
      "t": 302098.05316666747,
      "d": 669.6424999999581,
      "v": 112
    },
    {
      "midi": 87,
      "hit": false,
      "t": 302109.2138750008,
      "d": 2053.5703333332785,
      "v": 86
    },
    {
      "midi": 79,
      "hit": false,
      "t": 302120.3745833341,
      "d": 1941.9632499999716,
      "v": 108
    },
    {
      "midi": 53,
      "hit": false,
      "t": 302622.6064583341,
      "d": 1160.7136666666484,
      "v": 99
    },
    {
      "midi": 56,
      "hit": false,
      "t": 303169.4811666674,
      "d": 658.4817916666507,
      "v": 107
    },
    {
      "midi": 60,
      "hit": false,
      "t": 303738.67729166744,
      "d": 223.2141666666139,
      "v": 106
    },
    {
      "midi": 43,
      "hit": false,
      "t": 304229.74845833407,
      "d": 993.3030416666297,
      "v": 108
    },
    {
      "midi": 77,
      "hit": false,
      "t": 304229.74845833407,
      "d": 3359.3732083332725,
      "v": 96
    },
    {
      "midi": 86,
      "hit": false,
      "t": 304229.74845833407,
      "d": 3426.3374583332916,
      "v": 91
    },
    {
      "midi": 50,
      "hit": false,
      "t": 304765.46245833405,
      "d": 424.10691666667117,
      "v": 92
    },
    {
      "midi": 55,
      "hit": false,
      "t": 305267.69433333405,
      "d": 133.92849999997998,
      "v": 108
    },
    {
      "midi": 58,
      "hit": false,
      "t": 305825.7297500007,
      "d": 446.4283333333442,
      "v": 107
    },
    {
      "midi": 62,
      "hit": false,
      "t": 306339.12233333406,
      "d": 680.8032083333237,
      "v": 117
    },
    {
      "midi": 58,
      "hit": false,
      "t": 306897.1577500007,
      "d": 513.3925833333051,
      "v": 109
    },
    {
      "midi": 55,
      "hit": false,
      "t": 307399.3896250007,
      "d": 669.6424999999581,
      "v": 104
    },
    {
      "midi": 58,
      "hit": false,
      "t": 307968.58575000067,
      "d": 145.0892083333456,
      "v": 107
    },
    {
      "midi": 79,
      "hit": false,
      "t": 308247.603458334,
      "d": 1874.998999999836,
      "v": 82
    },
    {
      "midi": 87,
      "hit": false,
      "t": 308515.46045833395,
      "d": 1551.3384583332227,
      "v": 116
    },
    {
      "midi": 43,
      "hit": false,
      "t": 308526.62116666726,
      "d": 1004.4637499999371,
      "v": 114
    },
    {
      "midi": 50,
      "hit": false,
      "t": 309084.6565833339,
      "d": 412.94620833330555,
      "v": 95
    },
    {
      "midi": 55,
      "hit": false,
      "t": 309564.5670416672,
      "d": 479.91045833332464,
      "v": 110
    },
    {
      "midi": 59,
      "hit": false,
      "t": 310111.4417500005,
      "d": 479.91045833326643,
      "v": 92
    },
    {
      "midi": 86,
      "hit": false,
      "t": 310535.54866666713,
      "d": 1149.5529583332827,
      "v": 93
    },
    {
      "midi": 77,
      "hit": false,
      "t": 310535.54866666713,
      "d": 1171.8743749999558,
      "v": 92
    },
    {
      "midi": 62,
      "hit": false,
      "t": 310557.8700833338,
      "d": 502.23187499993946,
      "v": 104
    },
    {
      "midi": 59,
      "hit": false,
      "t": 311004.2984166671,
      "d": 915.1780833333614,
      "v": 80
    },
    {
      "midi": 67,
      "hit": false,
      "t": 311528.85170833376,
      "d": 368.3033750000177,
      "v": 107
    },
    {
      "midi": 82,
      "hit": false,
      "t": 312165.0120833338,
      "d": 189.73204166669166,
      "v": 88
    },
    {
      "midi": 86,
      "hit": false,
      "t": 312354.7441250005,
      "d": 379.4640833333251,
      "v": 84
    },
    {
      "midi": 85,
      "hit": false,
      "t": 312544.4761666672,
      "d": 111.60708333330695,
      "v": 18
    },
    {
      "midi": 75,
      "hit": false,
      "t": 312845.8152916671,
      "d": 3046.8733749999665,
      "v": 88
    },
    {
      "midi": 84,
      "hit": false,
      "t": 312845.8152916671,
      "d": 3772.319416666578,
      "v": 102
    },
    {
      "midi": 44,
      "hit": false,
      "t": 312868.1367083338,
      "d": 848.2138333333423,
      "v": 103
    },
    {
      "midi": 51,
      "hit": false,
      "t": 313325.72575000045,
      "d": 390.6247916666907,
      "v": 97
    },
    {
      "midi": 56,
      "hit": false,
      "t": 313749.8326666671,
      "d": 691.9639166666311,
      "v": 116
    },
    {
      "midi": 58,
      "hit": false,
      "t": 314385.9930416671,
      "d": 535.7139999999781,
      "v": 105
    },
    {
      "midi": 63,
      "hit": false,
      "t": 314955.18916666706,
      "d": 223.2141666666721,
      "v": 116
    },
    {
      "midi": 68,
      "hit": false,
      "t": 315546.70670833375,
      "d": 870.5352499999572,
      "v": 111
    },
    {
      "midi": 70,
      "hit": false,
      "t": 316104.7421250004,
      "d": 279.0177083333256,
      "v": 124
    },
    {
      "midi": 75,
      "hit": false,
      "t": 316629.295416667,
      "d": 78.1249583333265,
      "v": 100
    },
    {
      "midi": 80,
      "hit": false,
      "t": 317243.1343750003,
      "d": 1194.1957916666288,
      "v": 116
    },
    {
      "midi": 72,
      "hit": false,
      "t": 317243.1343750003,
      "d": 1216.5172083333018,
      "v": 99
    },
    {
      "midi": 41,
      "hit": false,
      "t": 317254.2950833336,
      "d": 1015.6244583333028,
      "v": 107
    },
    {
      "midi": 48,
      "hit": false,
      "t": 317767.6876666669,
      "d": 457.5890416666516,
      "v": 92
    },
    {
      "midi": 53,
      "hit": false,
      "t": 318214.1160000003,
      "d": 11.160708333307412,
      "v": 92
    },
    {
      "midi": 56,
      "hit": false,
      "t": 318872.5977916669,
      "d": 100.44637499999953,
      "v": 103
    },
    {
      "midi": 70,
      "hit": false,
      "t": 319341.3475416669,
      "d": 1082.5887083332636,
      "v": 78
    },
    {
      "midi": 43,
      "hit": false,
      "t": 319352.5082500002,
      "d": 970.9816249999567,
      "v": 114
    },
    {
      "midi": 79,
      "hit": false,
      "t": 319363.6689583335,
      "d": 1071.4279999999562,
      "v": 106
    },
    {
      "midi": 50,
      "hit": false,
      "t": 319865.9008333335,
      "d": 435.2676249999786,
      "v": 102
    },
    {
      "midi": 55,
      "hit": false,
      "t": 320334.65058333345,
      "d": 89.28566666669212,
      "v": 102
    },
    {
      "midi": 58,
      "hit": false,
      "t": 320892.6860000001,
      "d": 89.28566666669212,
      "v": 97
    },
    {
      "midi": 75,
      "hit": false,
      "t": 321383.7571666668,
      "d": 5937.496833333222,
      "v": 98
    },
    {
      "midi": 84,
      "hit": false,
      "t": 321383.7571666668,
      "d": 5948.657541666529,
      "v": 96
    },
    {
      "midi": 48,
      "hit": false,
      "t": 321406.07858333347,
      "d": 1495.5349166666856,
      "v": 105
    },
    {
      "midi": 51,
      "hit": false,
      "t": 321897.14975000016,
      "d": 982.1423333333223,
      "v": 92
    },
    {
      "midi": 55,
      "hit": false,
      "t": 322365.8995000002,
      "d": 546.8747083332855,
      "v": 114
    },
    {
      "midi": 60,
      "hit": false,
      "t": 322912.77420833346,
      "d": 558.0354166666511,
      "v": 104
    },
    {
      "midi": 62,
      "hit": false,
      "t": 323481.9703333334,
      "d": 613.8389583333628,
      "v": 108
    },
    {
      "midi": 63,
      "hit": false,
      "t": 324028.84504166676,
      "d": 647.3210833333433,
      "v": 109
    },
    {
      "midi": 67,
      "hit": false,
      "t": 324676.1661250001,
      "d": 569.1961249999586,
      "v": 106
    },
    {
      "midi": 62,
      "hit": false,
      "t": 325189.5587083334,
      "d": 569.1961249999586,
      "v": 105
    },
    {
      "midi": 60,
      "hit": false,
      "t": 325792.23695833335,
      "d": 558.0354166667094,
      "v": 90
    },
    {
      "midi": 55,
      "hit": false,
      "t": 326283.30812500004,
      "d": 591.5175416666898,
      "v": 100
    },
    {
      "midi": 51,
      "hit": false,
      "t": 326819.0221250001,
      "d": 491.07116666663205,
      "v": 98
    },
    {
      "midi": 48,
      "hit": false,
      "t": 327310.0932916667,
      "d": 100.44637499994133,
      "v": 85
    },
    {
      "midi": 36,
      "hit": false,
      "t": 327901.61083333334,
      "d": 3348.2125000000233,
      "v": 117
    },
    {
      "midi": 96,
      "hit": false,
      "t": 327901.61083333334,
      "d": 3370.5339166666963,
      "v": 97
    }
  ]
}