{
  "jsonPath": "Unknown/Unknown/Bob Carlisle/butterfly-kisses.json",
  "path": "Unknown\\Unknown\\Bob Carlisle\\Butterfly Kisses.mid",
  "name": "Butterfly Kisses",
  "difficulty": "Advanced",
  "bpm": 84.000084000084,
  "notes": [
    {
      "midi": 65,
      "hit": false,
      "t": 3571.4249999999997,
      "d": 714.2850000000003,
      "v": 100
    },
    {
      "midi": 67,
      "hit": false,
      "t": 3571.4249999999997,
      "d": 714.2850000000003,
      "v": 100
    },
    {
      "midi": 74,
      "hit": false,
      "t": 3571.4249999999997,
      "d": 714.2850000000003,
      "v": 100
    },
    {
      "midi": 48,
      "hit": false,
      "t": 3928.5674999999997,
      "d": 714.2850000000003,
      "v": 100
    },
    {
      "midi": 67,
      "hit": false,
      "t": 4285.71,
      "d": 714.2849999999999,
      "v": 100
    },
    {
      "midi": 64,
      "hit": false,
      "t": 4285.71,
      "d": 1428.5699999999997,
      "v": 100
    },
    {
      "midi": 72,
      "hit": false,
      "t": 4285.71,
      "d": 1428.5699999999997,
      "v": 100
    },
    {
      "midi": 48,
      "hit": false,
      "t": 4642.8525,
      "d": 714.2849999999999,
      "v": 100
    },
    {
      "midi": 67,
      "hit": false,
      "t": 4999.995,
      "d": 714.2849999999999,
      "v": 100
    },
    {
      "midi": 48,
      "hit": false,
      "t": 5357.1375,
      "d": 714.2849999999999,
      "v": 100
    },
    {
      "midi": 67,
      "hit": false,
      "t": 5714.28,
      "d": 714.2849999999999,
      "v": 100
    },
    {
      "midi": 36,
      "hit": false,
      "t": 5714.28,
      "d": 2857.1400000000003,
      "v": 100
    },
    {
      "midi": 65,
      "hit": false,
      "t": 6428.565,
      "d": 714.2849999999999,
      "v": 100
    },
    {
      "midi": 67,
      "hit": false,
      "t": 6428.565,
      "d": 714.2849999999999,
      "v": 100
    },
    {
      "midi": 74,
      "hit": false,
      "t": 6428.565,
      "d": 714.2849999999999,
      "v": 100
    },
    {
      "midi": 48,
      "hit": false,
      "t": 6785.7074999999995,
      "d": 714.2849999999999,
      "v": 100
    },
    {
      "midi": 67,
      "hit": false,
      "t": 7142.849999999999,
      "d": 714.2849999999999,
      "v": 100
    },
    {
      "midi": 64,
      "hit": false,
      "t": 7142.849999999999,
      "d": 1428.5700000000006,
      "v": 100
    },
    {
      "midi": 72,
      "hit": false,
      "t": 7142.849999999999,
      "d": 1428.5700000000006,
      "v": 100
    },
    {
      "midi": 48,
      "hit": false,
      "t": 7499.992499999999,
      "d": 714.2850000000008,
      "v": 100
    },
    {
      "midi": 67,
      "hit": false,
      "t": 7857.134999999999,
      "d": 714.2850000000008,
      "v": 100
    },
    {
      "midi": 76,
      "hit": false,
      "t": 8214.2775,
      "d": 714.2849999999999,
      "v": 100
    },
    {
      "midi": 48,
      "hit": false,
      "t": 8214.2775,
      "d": 714.2849999999999,
      "v": 100
    },
    {
      "midi": 36,
      "hit": false,
      "t": 8571.42,
      "d": 2857.1399999999994,
      "v": 100
    },
    {
      "midi": 65,
      "hit": false,
      "t": 9285.705,
      "d": 714.2849999999999,
      "v": 100
    },
    {
      "midi": 67,
      "hit": false,
      "t": 9285.705,
      "d": 714.2849999999999,
      "v": 100
    },
    {
      "midi": 74,
      "hit": false,
      "t": 9285.705,
      "d": 714.2849999999999,
      "v": 100
    },
    {
      "midi": 48,
      "hit": false,
      "t": 9642.8475,
      "d": 714.2849999999999,
      "v": 100
    },
    {
      "midi": 67,
      "hit": false,
      "t": 9999.99,
      "d": 714.2849999999999,
      "v": 100
    },
    {
      "midi": 64,
      "hit": false,
      "t": 9999.99,
      "d": 1428.5699999999997,
      "v": 100
    },
    {
      "midi": 72,
      "hit": false,
      "t": 9999.99,
      "d": 1428.5699999999997,
      "v": 100
    },
    {
      "midi": 48,
      "hit": false,
      "t": 10357.1325,
      "d": 714.2849999999999,
      "v": 100
    },
    {
      "midi": 67,
      "hit": false,
      "t": 10714.275,
      "d": 714.2849999999999,
      "v": 100
    },
    {
      "midi": 48,
      "hit": false,
      "t": 11071.4175,
      "d": 357.1424999999999,
      "v": 100
    },
    {
      "midi": 62,
      "hit": false,
      "t": 11428.56,
      "d": 714.2849999999999,
      "v": 100
    },
    {
      "midi": 64,
      "hit": false,
      "t": 11428.56,
      "d": 714.2849999999999,
      "v": 100
    },
    {
      "midi": 71,
      "hit": false,
      "t": 11428.56,
      "d": 714.2849999999999,
      "v": 100
    },
    {
      "midi": 36,
      "hit": false,
      "t": 11428.56,
      "d": 1428.5699999999997,
      "v": 100
    },
    {
      "midi": 45,
      "hit": false,
      "t": 11785.7025,
      "d": 714.2849999999999,
      "v": 100
    },
    {
      "midi": 62,
      "hit": false,
      "t": 12142.845,
      "d": 714.2849999999999,
      "v": 100
    },
    {
      "midi": 64,
      "hit": false,
      "t": 12142.845,
      "d": 714.2849999999999,
      "v": 100
    },
    {
      "midi": 71,
      "hit": false,
      "t": 12142.845,
      "d": 714.2849999999999,
      "v": 100
    },
    {
      "midi": 45,
      "hit": false,
      "t": 12499.9875,
      "d": 357.1424999999999,
      "v": 100
    },
    {
      "midi": 60,
      "hit": false,
      "t": 12857.13,
      "d": 1071.4274999999998,
      "v": 100
    },
    {
      "midi": 65,
      "hit": false,
      "t": 12857.13,
      "d": 1071.4274999999998,
      "v": 100
    },
    {
      "midi": 69,
      "hit": false,
      "t": 12857.13,
      "d": 1071.4274999999998,
      "v": 100
    },
    {
      "midi": 31,
      "hit": false,
      "t": 12857.13,
      "d": 1428.5699999999997,
      "v": 100
    },
    {
      "midi": 43,
      "hit": false,
      "t": 12857.13,
      "d": 1428.5699999999997,
      "v": 100
    },
    {
      "midi": 67,
      "hit": false,
      "t": 13928.557499999999,
      "d": 178.57125000000087,
      "v": 100
    },
    {
      "midi": 65,
      "hit": false,
      "t": 14107.12875,
      "d": 178.57125000000087,
      "v": 100
    },
    {
      "midi": 36,
      "hit": false,
      "t": 14258.9143125,
      "d": 2857.1399999999976,
      "v": 100
    },
    {
      "midi": 43,
      "hit": false,
      "t": 14285.699999999999,
      "d": 2857.1399999999976,
      "v": 100
    },
    {
      "midi": 60,
      "hit": false,
      "t": 14285.7,
      "d": 2857.1399999999994,
      "v": 100
    },
    {
      "midi": 62,
      "hit": false,
      "t": 14285.7,
      "d": 2857.1399999999994,
      "v": 100
    },
    {
      "midi": 67,
      "hit": false,
      "t": 14285.7,
      "d": 2857.1399999999994,
      "v": 100
    },
    {
      "midi": 52,
      "hit": false,
      "t": 14308.021406249998,
      "d": 2857.1399999999994,
      "v": 100
    },
    {
      "midi": 33,
      "hit": false,
      "t": 17142.839999999997,
      "d": 2857.1399999999994,
      "v": 100
    },
    {
      "midi": 52,
      "hit": false,
      "t": 17142.84,
      "d": 2857.1399999999994,
      "v": 100
    },
    {
      "midi": 55,
      "hit": false,
      "t": 17142.84,
      "d": 2857.1399999999994,
      "v": 100
    },
    {
      "midi": 60,
      "hit": false,
      "t": 17142.84,
      "d": 2857.1399999999994,
      "v": 100
    },
    {
      "midi": 36,
      "hit": false,
      "t": 19999.979999999996,
      "d": 1071.4275000000016,
      "v": 100
    },
    {
      "midi": 52,
      "hit": false,
      "t": 19999.98,
      "d": 2857.1399999999994,
      "v": 100
    },
    {
      "midi": 55,
      "hit": false,
      "t": 19999.98,
      "d": 2857.1399999999994,
      "v": 100
    },
    {
      "midi": 60,
      "hit": false,
      "t": 19999.98,
      "d": 2857.1399999999994,
      "v": 100
    },
    {
      "midi": 36,
      "hit": false,
      "t": 21071.407499999998,
      "d": 357.14250000000175,
      "v": 100
    },
    {
      "midi": 36,
      "hit": false,
      "t": 21428.55,
      "d": 1428.5699999999997,
      "v": 100
    },
    {
      "midi": 52,
      "hit": false,
      "t": 22857.12,
      "d": 2857.1399999999994,
      "v": 100
    },
    {
      "midi": 55,
      "hit": false,
      "t": 22857.12,
      "d": 2857.1399999999994,
      "v": 100
    },
    {
      "midi": 60,
      "hit": false,
      "t": 22857.12,
      "d": 2857.1399999999994,
      "v": 100
    },
    {
      "midi": 33,
      "hit": false,
      "t": 22857.12,
      "d": 2857.1399999999994,
      "v": 100
    },
    {
      "midi": 52,
      "hit": false,
      "t": 25714.26,
      "d": 1785.7125000000015,
      "v": 100
    },
    {
      "midi": 55,
      "hit": false,
      "t": 25714.26,
      "d": 1785.7125000000015,
      "v": 100
    },
    {
      "midi": 60,
      "hit": false,
      "t": 25714.26,
      "d": 1785.7125000000015,
      "v": 100
    },
    {
      "midi": 36,
      "hit": false,
      "t": 25714.26,
      "d": 1071.4275000000016,
      "v": 100
    },
    {
      "midi": 36,
      "hit": false,
      "t": 26785.6875,
      "d": 357.14250000000175,
      "v": 100
    },
    {
      "midi": 36,
      "hit": false,
      "t": 27142.83,
      "d": 1428.5699999999997,
      "v": 100
    },
    {
      "midi": 60,
      "hit": false,
      "t": 27499.9725,
      "d": 357.14250000000175,
      "v": 100
    },
    {
      "midi": 64,
      "hit": false,
      "t": 27857.115,
      "d": 357.14250000000175,
      "v": 100
    },
    {
      "midi": 67,
      "hit": false,
      "t": 28214.257500000003,
      "d": 357.14250000000175,
      "v": 100
    },
    {
      "midi": 38,
      "hit": false,
      "t": 28571.4,
      "d": 1428.5699999999997,
      "v": 100
    },
    {
      "midi": 57,
      "hit": false,
      "t": 28571.400000000005,
      "d": 1428.5699999999997,
      "v": 100
    },
    {
      "midi": 60,
      "hit": false,
      "t": 28571.400000000005,
      "d": 1428.5699999999997,
      "v": 100
    },
    {
      "midi": 65,
      "hit": false,
      "t": 28571.400000000005,
      "d": 1428.5699999999997,
      "v": 100
    },
    {
      "midi": 40,
      "hit": false,
      "t": 29999.97,
      "d": 1428.5699999999997,
      "v": 100
    },
    {
      "midi": 55,
      "hit": false,
      "t": 29999.970000000005,
      "d": 1428.5699999999997,
      "v": 100
    },
    {
      "midi": 60,
      "hit": false,
      "t": 29999.970000000005,
      "d": 1428.5699999999997,
      "v": 100
    },
    {
      "midi": 64,
      "hit": false,
      "t": 29999.970000000005,
      "d": 1428.5699999999997,
      "v": 100
    },
    {
      "midi": 41,
      "hit": false,
      "t": 31428.54,
      "d": 1428.5699999999997,
      "v": 100
    },
    {
      "midi": 55,
      "hit": false,
      "t": 31428.540000000005,
      "d": 1428.5700000000033,
      "v": 100
    },
    {
      "midi": 60,
      "hit": false,
      "t": 31428.540000000005,
      "d": 1428.5700000000033,
      "v": 100
    },
    {
      "midi": 62,
      "hit": false,
      "t": 31428.540000000005,
      "d": 1428.5700000000033,
      "v": 100
    },
    {
      "midi": 43,
      "hit": false,
      "t": 32857.11,
      "d": 1428.5699999999997,
      "v": 100
    },
    {
      "midi": 60,
      "hit": false,
      "t": 32857.11000000001,
      "d": 714.2850000000035,
      "v": 100
    },
    {
      "midi": 55,
      "hit": false,
      "t": 32857.11000000001,
      "d": 1428.570000000007,
      "v": 100
    },
    {
      "midi": 62,
      "hit": false,
      "t": 32857.11000000001,
      "d": 1428.570000000007,
      "v": 100
    },
    {
      "midi": 59,
      "hit": false,
      "t": 33571.39500000001,
      "d": 714.2850000000035,
      "v": 100
    },
    {
      "midi": 38,
      "hit": false,
      "t": 34285.68,
      "d": 1428.5699999999997,
      "v": 100
    },
    {
      "midi": 57,
      "hit": false,
      "t": 34285.680000000015,
      "d": 1428.5699999999997,
      "v": 100
    },
    {
      "midi": 60,
      "hit": false,
      "t": 34285.680000000015,
      "d": 1428.5699999999997,
      "v": 100
    },
    {
      "midi": 65,
      "hit": false,
      "t": 34285.680000000015,
      "d": 1428.5699999999997,
      "v": 100
    },
    {
      "midi": 40,
      "hit": false,
      "t": 35714.25,
      "d": 1428.5699999999997,
      "v": 100
    },
    {
      "midi": 55,
      "hit": false,
      "t": 35714.250000000015,
      "d": 1428.5699999999997,
      "v": 100
    },
    {
      "midi": 60,
      "hit": false,
      "t": 35714.250000000015,
      "d": 1428.5699999999997,
      "v": 100
    },
    {
      "midi": 64,
      "hit": false,
      "t": 35714.250000000015,
      "d": 1428.5699999999997,
      "v": 100
    },
    {
      "midi": 41,
      "hit": false,
      "t": 37142.82,
      "d": 1428.5699999999997,
      "v": 100
    },
    {
      "midi": 55,
      "hit": false,
      "t": 37142.820000000014,
      "d": 1071.427499999998,
      "v": 100
    },
    {
      "midi": 60,
      "hit": false,
      "t": 37142.820000000014,
      "d": 1071.427499999998,
      "v": 100
    },
    {
      "midi": 62,
      "hit": false,
      "t": 37142.820000000014,
      "d": 1071.427499999998,
      "v": 100
    },
    {
      "midi": 67,
      "hit": false,
      "t": 38214.24750000001,
      "d": 357.14250000000175,
      "v": 100
    },
    {
      "midi": 43,
      "hit": false,
      "t": 38571.39,
      "d": 1071.427499999998,
      "v": 100
    },
    {
      "midi": 60,
      "hit": false,
      "t": 38571.390000000014,
      "d": 714.2850000000035,
      "v": 100
    },
    {
      "midi": 62,
      "hit": false,
      "t": 38571.390000000014,
      "d": 1428.570000000007,
      "v": 100
    },
    {
      "midi": 67,
      "hit": false,
      "t": 38571.390000000014,
      "d": 1428.570000000007,
      "v": 100
    },
    {
      "midi": 59,
      "hit": false,
      "t": 39285.67500000002,
      "d": 714.2850000000035,
      "v": 100
    },
    {
      "midi": 31,
      "hit": false,
      "t": 39642.8175,
      "d": 357.14250000000175,
      "v": 100
    },
    {
      "midi": 33,
      "hit": false,
      "t": 39999.96,
      "d": 1071.427499999998,
      "v": 100
    },
    {
      "midi": 53,
      "hit": false,
      "t": 39999.96000000002,
      "d": 1428.5699999999997,
      "v": 100
    },
    {
      "midi": 55,
      "hit": false,
      "t": 39999.96000000002,
      "d": 1428.5699999999997,
      "v": 100
    },
    {
      "midi": 60,
      "hit": false,
      "t": 39999.96000000002,
      "d": 1428.5699999999997,
      "v": 100
    },
    {
      "midi": 33,
      "hit": false,
      "t": 41071.3875,
      "d": 357.14250000000175,
      "v": 100
    },
    {
      "midi": 35,
      "hit": false,
      "t": 41428.53,
      "d": 1428.5699999999997,
      "v": 100
    },
    {
      "midi": 55,
      "hit": false,
      "t": 41428.53000000002,
      "d": 1428.5699999999997,
      "v": 100
    },
    {
      "midi": 57,
      "hit": false,
      "t": 41428.53000000002,
      "d": 1428.5699999999997,
      "v": 100
    },
    {
      "midi": 62,
      "hit": false,
      "t": 41428.53000000002,
      "d": 1428.5699999999997,
      "v": 100
    },
    {
      "midi": 36,
      "hit": false,
      "t": 42857.1,
      "d": 1428.5699999999997,
      "v": 100
    },
    {
      "midi": 64,
      "hit": false,
      "t": 42857.10000000002,
      "d": 714.2850000000035,
      "v": 100
    },
    {
      "midi": 55,
      "hit": false,
      "t": 42857.10000000002,
      "d": 1428.570000000007,
      "v": 100
    },
    {
      "midi": 60,
      "hit": false,
      "t": 42857.10000000002,
      "d": 1428.570000000007,
      "v": 100
    },
    {
      "midi": 67,
      "hit": false,
      "t": 43571.385000000024,
      "d": 714.2850000000035,
      "v": 100
    },
    {
      "midi": 45,
      "hit": false,
      "t": 44285.67,
      "d": 2857.1399999999994,
      "v": 100
    },
    {
      "midi": 53,
      "hit": false,
      "t": 44285.67000000003,
      "d": 2857.1399999999994,
      "v": 100
    },
    {
      "midi": 55,
      "hit": false,
      "t": 44285.67000000003,
      "d": 2857.1399999999994,
      "v": 100
    },
    {
      "midi": 60,
      "hit": false,
      "t": 44285.67000000003,
      "d": 2857.1399999999994,
      "v": 100
    },
    {
      "midi": 43,
      "hit": false,
      "t": 47142.81,
      "d": 2857.1399999999994,
      "v": 100
    },
    {
      "midi": 53,
      "hit": false,
      "t": 47142.81000000003,
      "d": 2857.1399999999994,
      "v": 100
    },
    {
      "midi": 57,
      "hit": false,
      "t": 47142.81000000003,
      "d": 2857.1399999999994,
      "v": 100
    },
    {
      "midi": 60,
      "hit": false,
      "t": 47142.81000000003,
      "d": 2857.1399999999994,
      "v": 100
    },
    {
      "midi": 36,
      "hit": false,
      "t": 49999.95,
      "d": 2857.140000000014,
      "v": 100
    },
    {
      "midi": 65,
      "hit": false,
      "t": 49999.950000000026,
      "d": 714.2850000000035,
      "v": 100
    },
    {
      "midi": 67,
      "hit": false,
      "t": 49999.950000000026,
      "d": 714.2850000000035,
      "v": 100
    },
    {
      "midi": 74,
      "hit": false,
      "t": 49999.950000000026,
      "d": 714.2850000000035,
      "v": 100
    },
    {
      "midi": 48,
      "hit": false,
      "t": 50357.0925,
      "d": 714.2850000000035,
      "v": 100
    },
    {
      "midi": 65,
      "hit": false,
      "t": 50714.23500000003,
      "d": 714.2850000000035,
      "v": 100
    },
    {
      "midi": 67,
      "hit": false,
      "t": 50714.23500000003,
      "d": 714.2850000000035,
      "v": 100
    },
    {
      "midi": 74,
      "hit": false,
      "t": 50714.23500000003,
      "d": 714.2850000000035,
      "v": 100
    },
    {
      "midi": 48,
      "hit": false,
      "t": 51071.3775,
      "d": 714.2850000000035,
      "v": 100
    },
    {
      "midi": 64,
      "hit": false,
      "t": 51428.52000000003,
      "d": 714.2850000000035,
      "v": 100
    },
    {
      "midi": 67,
      "hit": false,
      "t": 51428.52000000003,
      "d": 714.2850000000035,
      "v": 100
    },
    {
      "midi": 72,
      "hit": false,
      "t": 51428.52000000003,
      "d": 714.2850000000035,
      "v": 100
    },
    {
      "midi": 48,
      "hit": false,
      "t": 51785.662500000006,
      "d": 714.2850000000035,
      "v": 100
    },
    {
      "midi": 67,
      "hit": false,
      "t": 52142.80500000004,
      "d": 714.2850000000035,
      "v": 100
    },
    {
      "midi": 48,
      "hit": false,
      "t": 52499.94750000001,
      "d": 357.14250000000175,
      "v": 100
    },
    {
      "midi": 36,
      "hit": false,
      "t": 52857.09000000001,
      "d": 2857.140000000014,
      "v": 100
    },
    {
      "midi": 65,
      "hit": false,
      "t": 52857.09000000004,
      "d": 714.2850000000035,
      "v": 100
    },
    {
      "midi": 67,
      "hit": false,
      "t": 52857.09000000004,
      "d": 714.2850000000035,
      "v": 100
    },
    {
      "midi": 74,
      "hit": false,
      "t": 52857.09000000004,
      "d": 714.2850000000035,
      "v": 100
    },
    {
      "midi": 48,
      "hit": false,
      "t": 53214.23250000001,
      "d": 714.2850000000035,
      "v": 100
    },
    {
      "midi": 65,
      "hit": false,
      "t": 53571.375000000044,
      "d": 714.2850000000035,
      "v": 100
    },
    {
      "midi": 67,
      "hit": false,
      "t": 53571.375000000044,
      "d": 714.2850000000035,
      "v": 100
    },
    {
      "midi": 74,
      "hit": false,
      "t": 53571.375000000044,
      "d": 714.2850000000035,
      "v": 100
    },
    {
      "midi": 48,
      "hit": false,
      "t": 53928.517500000016,
      "d": 714.2850000000035,
      "v": 100
    },
    {
      "midi": 64,
      "hit": false,
      "t": 54285.66000000005,
      "d": 714.2850000000035,
      "v": 100
    },
    {
      "midi": 67,
      "hit": false,
      "t": 54285.66000000005,
      "d": 714.2850000000035,
      "v": 100
    },
    {
      "midi": 72,
      "hit": false,
      "t": 54285.66000000005,
      "d": 714.2850000000035,
      "v": 100
    },
    {
      "midi": 48,
      "hit": false,
      "t": 54642.80250000002,
      "d": 714.2850000000035,
      "v": 100
    },
    {
      "midi": 67,
      "hit": false,
      "t": 54999.94500000005,
      "d": 357.14250000000175,
      "v": 100
    },
    {
      "midi": 48,
      "hit": false,
      "t": 55357.08750000002,
      "d": 357.14250000000175,
      "v": 100
    },
    {
      "midi": 76,
      "hit": false,
      "t": 55357.08750000005,
      "d": 357.14250000000175,
      "v": 100
    },
    {
      "midi": 36,
      "hit": false,
      "t": 55714.230000000025,
      "d": 2857.140000000014,
      "v": 100
    },
    {
      "midi": 65,
      "hit": false,
      "t": 55714.230000000054,
      "d": 714.2850000000035,
      "v": 100
    },
    {
      "midi": 67,
      "hit": false,
      "t": 55714.230000000054,
      "d": 714.2850000000035,
      "v": 100
    },
    {
      "midi": 74,
      "hit": false,
      "t": 55714.230000000054,
      "d": 714.2850000000035,
      "v": 100
    },
    {
      "midi": 48,
      "hit": false,
      "t": 56071.37250000003,
      "d": 714.2850000000035,
      "v": 100
    },
    {
      "midi": 65,
      "hit": false,
      "t": 56428.51500000006,
      "d": 714.2850000000035,
      "v": 100
    },
    {
      "midi": 67,
      "hit": false,
      "t": 56428.51500000006,
      "d": 714.2850000000035,
      "v": 100
    },
    {
      "midi": 74,
      "hit": false,
      "t": 56428.51500000006,
      "d": 714.2850000000035,
      "v": 100
    },
    {
      "midi": 48,
      "hit": false,
      "t": 56785.65750000003,
      "d": 714.2850000000035,
      "v": 100
    },
    {
      "midi": 64,
      "hit": false,
      "t": 57142.80000000006,
      "d": 714.2850000000035,
      "v": 100
    },
    {
      "midi": 67,
      "hit": false,
      "t": 57142.80000000006,
      "d": 714.2850000000035,
      "v": 100
    },
    {
      "midi": 72,
      "hit": false,
      "t": 57142.80000000006,
      "d": 714.2850000000035,
      "v": 100
    },
    {
      "midi": 48,
      "hit": false,
      "t": 57499.942500000034,
      "d": 714.2850000000035,
      "v": 100
    },
    {
      "midi": 67,
      "hit": false,
      "t": 57857.085000000065,
      "d": 714.2850000000035,
      "v": 100
    },
    {
      "midi": 48,
      "hit": false,
      "t": 58214.22750000004,
      "d": 357.14250000000175,
      "v": 100
    },
    {
      "midi": 36,
      "hit": false,
      "t": 58571.37000000004,
      "d": 1428.570000000007,
      "v": 100
    },
    {
      "midi": 62,
      "hit": false,
      "t": 58571.37000000007,
      "d": 714.2850000000035,
      "v": 100
    },
    {
      "midi": 67,
      "hit": false,
      "t": 58571.37000000007,
      "d": 714.2850000000035,
      "v": 100
    },
    {
      "midi": 71,
      "hit": false,
      "t": 58571.37000000007,
      "d": 714.2850000000035,
      "v": 100
    },
    {
      "midi": 48,
      "hit": false,
      "t": 58928.51250000004,
      "d": 714.2850000000035,
      "v": 100
    },
    {
      "midi": 62,
      "hit": false,
      "t": 59285.65500000007,
      "d": 714.2850000000035,
      "v": 100
    },
    {
      "midi": 67,
      "hit": false,
      "t": 59285.65500000007,
      "d": 714.2850000000035,
      "v": 100
    },
    {
      "midi": 71,
      "hit": false,
      "t": 59285.65500000007,
      "d": 714.2850000000035,
      "v": 100
    },
    {
      "midi": 48,
      "hit": false,
      "t": 59642.797500000044,
      "d": 357.14250000000175,
      "v": 100
    },
    {
      "midi": 45,
      "hit": false,
      "t": 59999.940000000046,
      "d": 1071.427499999998,
      "v": 100
    },
    {
      "midi": 62,
      "hit": false,
      "t": 59999.940000000075,
      "d": 714.2850000000035,
      "v": 100
    },
    {
      "midi": 64,
      "hit": false,
      "t": 59999.940000000075,
      "d": 714.2850000000035,
      "v": 100
    },
    {
      "midi": 71,
      "hit": false,
      "t": 59999.940000000075,
      "d": 714.2850000000035,
      "v": 100
    },
    {
      "midi": 60,
      "hit": false,
      "t": 60714.22500000008,
      "d": 1428.5699999999997,
      "v": 100
    },
    {
      "midi": 64,
      "hit": false,
      "t": 60714.22500000008,
      "d": 1428.5699999999997,
      "v": 100
    },
    {
      "midi": 69,
      "hit": false,
      "t": 60714.22500000008,
      "d": 1428.5699999999997,
      "v": 100
    },
    {
      "midi": 45,
      "hit": false,
      "t": 61071.367500000044,
      "d": 357.14250000000175,
      "v": 100
    },
    {
      "midi": 43,
      "hit": false,
      "t": 61428.510000000046,
      "d": 1071.427499999998,
      "v": 100
    },
    {
      "midi": 59,
      "hit": false,
      "t": 62142.79500000008,
      "d": 714.2850000000035,
      "v": 100
    },
    {
      "midi": 67,
      "hit": false,
      "t": 62142.79500000008,
      "d": 714.2850000000035,
      "v": 100
    },
    {
      "midi": 43,
      "hit": false,
      "t": 62499.937500000044,
      "d": 357.14250000000175,
      "v": 100
    },
    {
      "midi": 41,
      "hit": false,
      "t": 62857.080000000045,
      "d": 357.14250000000175,
      "v": 100
    },
    {
      "midi": 60,
      "hit": false,
      "t": 62857.08000000008,
      "d": 1071.427499999998,
      "v": 100
    },
    {
      "midi": 48,
      "hit": false,
      "t": 63214.22250000005,
      "d": 357.14250000000175,
      "v": 100
    },
    {
      "midi": 55,
      "hit": false,
      "t": 63571.36500000005,
      "d": 357.14250000000175,
      "v": 100
    },
    {
      "midi": 57,
      "hit": false,
      "t": 63928.50750000005,
      "d": 714.2850000000035,
      "v": 100
    },
    {
      "midi": 65,
      "hit": false,
      "t": 63928.50750000008,
      "d": 1071.427499999998,
      "v": 100
    },
    {
      "midi": 55,
      "hit": false,
      "t": 64642.792500000054,
      "d": 357.14250000000175,
      "v": 100
    },
    {
      "midi": 53,
      "hit": false,
      "t": 64999.935000000056,
      "d": 357.14250000000175,
      "v": 100
    },
    {
      "midi": 72,
      "hit": false,
      "t": 64999.93500000008,
      "d": 714.2849999999962,
      "v": 100
    },
    {
      "midi": 48,
      "hit": false,
      "t": 65357.07750000006,
      "d": 357.14250000000175,
      "v": 100
    },
    {
      "midi": 40,
      "hit": false,
      "t": 65714.22000000006,
      "d": 357.14250000000175,
      "v": 100
    },
    {
      "midi": 72,
      "hit": false,
      "t": 65714.22000000007,
      "d": 1428.570000000007,
      "v": 100
    },
    {
      "midi": 48,
      "hit": false,
      "t": 66071.36250000006,
      "d": 357.14250000000175,
      "v": 100
    },
    {
      "midi": 55,
      "hit": false,
      "t": 66428.50500000006,
      "d": 357.14250000000175,
      "v": 100
    },
    {
      "midi": 60,
      "hit": false,
      "t": 66785.64750000006,
      "d": 1785.7124999999942,
      "v": 100
    },
    {
      "midi": 84,
      "hit": false,
      "t": 67142.79000000008,
      "d": 357.14250000000175,
      "v": 100
    },
    {
      "midi": 83,
      "hit": false,
      "t": 67499.93250000008,
      "d": 357.14250000000175,
      "v": 100
    },
    {
      "midi": 81,
      "hit": false,
      "t": 67857.07500000008,
      "d": 357.14250000000175,
      "v": 100
    },
    {
      "midi": 79,
      "hit": false,
      "t": 68214.21750000009,
      "d": 357.14250000000175,
      "v": 100
    },
    {
      "midi": 41,
      "hit": false,
      "t": 68571.36000000006,
      "d": 357.14250000000175,
      "v": 100
    },
    {
      "midi": 79,
      "hit": false,
      "t": 68571.36000000009,
      "d": 178.5712499999936,
      "v": 100
    },
    {
      "midi": 81,
      "hit": false,
      "t": 68571.36000000009,
      "d": 1071.4274999999907,
      "v": 100
    },
    {
      "midi": 48,
      "hit": false,
      "t": 68928.50250000006,
      "d": 357.14250000000175,
      "v": 100
    },
    {
      "midi": 52,
      "hit": false,
      "t": 69285.64500000006,
      "d": 357.14250000000175,
      "v": 100
    },
    {
      "midi": 57,
      "hit": false,
      "t": 69642.78750000006,
      "d": 714.2850000000035,
      "v": 100
    },
    {
      "midi": 72,
      "hit": false,
      "t": 69642.78750000008,
      "d": 714.2850000000035,
      "v": 100
    },
    {
      "midi": 55,
      "hit": false,
      "t": 70357.07250000007,
      "d": 357.14250000000175,
      "v": 100
    },
    {
      "midi": 69,
      "hit": false,
      "t": 70357.07250000008,
      "d": 714.2850000000035,
      "v": 100
    },
    {
      "midi": 53,
      "hit": false,
      "t": 70714.21500000007,
      "d": 357.14250000000175,
      "v": 100
    },
    {
      "midi": 48,
      "hit": false,
      "t": 71071.35750000007,
      "d": 357.14250000000175,
      "v": 100
    },
    {
      "midi": 65,
      "hit": false,
      "t": 71071.35750000009,
      "d": 178.5712499999936,
      "v": 100
    },
    {
      "midi": 64,
      "hit": false,
      "t": 71249.92875000008,
      "d": 178.5712499999936,
      "v": 100
    },
    {
      "midi": 62,
      "hit": false,
      "t": 71428.50000000007,
      "d": 1428.570000000007,
      "v": 100
    },
    {
      "midi": 40,
      "hit": false,
      "t": 71428.50000000007,
      "d": 357.14250000000175,
      "v": 100
    },
    {
      "midi": 48,
      "hit": false,
      "t": 71785.64250000007,
      "d": 357.14250000000175,
      "v": 100
    },
    {
      "midi": 55,
      "hit": false,
      "t": 72142.78500000008,
      "d": 357.14250000000175,
      "v": 100
    },
    {
      "midi": 60,
      "hit": false,
      "t": 72499.92750000008,
      "d": 1785.7124999999942,
      "v": 100
    },
    {
      "midi": 64,
      "hit": false,
      "t": 72857.07000000008,
      "d": 714.2850000000035,
      "v": 100
    },
    {
      "midi": 72,
      "hit": false,
      "t": 72857.07000000008,
      "d": 714.2850000000035,
      "v": 100
    },
    {
      "midi": 62,
      "hit": false,
      "t": 73571.35500000008,
      "d": 714.2850000000035,
      "v": 100
    },
    {
      "midi": 71,
      "hit": false,
      "t": 73571.35500000008,
      "d": 714.2850000000035,
      "v": 100
    },
    {
      "midi": 45,
      "hit": false,
      "t": 74285.64000000007,
      "d": 1428.570000000007,
      "v": 100
    },
    {
      "midi": 60,
      "hit": false,
      "t": 74285.64000000009,
      "d": 714.2850000000035,
      "v": 100
    },
    {
      "midi": 65,
      "hit": false,
      "t": 74285.64000000009,
      "d": 714.2850000000035,
      "v": 100
    },
    {
      "midi": 69,
      "hit": false,
      "t": 74285.64000000009,
      "d": 714.2850000000035,
      "v": 100
    },
    {
      "midi": 53,
      "hit": false,
      "t": 74999.92500000009,
      "d": 357.14250000000175,
      "v": 100
    },
    {
      "midi": 60,
      "hit": false,
      "t": 75357.06750000009,
      "d": 357.14250000000175,
      "v": 100
    },
    {
      "midi": 47,
      "hit": false,
      "t": 75714.21000000008,
      "d": 1428.570000000007,
      "v": 100
    },
    {
      "midi": 55,
      "hit": false,
      "t": 75714.2100000001,
      "d": 714.2850000000035,
      "v": 100
    },
    {
      "midi": 57,
      "hit": false,
      "t": 75714.2100000001,
      "d": 714.2850000000035,
      "v": 100
    },
    {
      "midi": 62,
      "hit": false,
      "t": 75714.2100000001,
      "d": 714.2850000000035,
      "v": 100
    },
    {
      "midi": 62,
      "hit": false,
      "t": 76428.4950000001,
      "d": 357.14250000000175,
      "v": 100
    },
    {
      "midi": 67,
      "hit": false,
      "t": 76785.6375000001,
      "d": 357.14250000000175,
      "v": 100
    },
    {
      "midi": 48,
      "hit": false,
      "t": 77142.78000000009,
      "d": 357.14250000000175,
      "v": 100
    },
    {
      "midi": 62,
      "hit": false,
      "t": 77142.7800000001,
      "d": 178.5712499999936,
      "v": 100
    },
    {
      "midi": 64,
      "hit": false,
      "t": 77142.7800000001,
      "d": 714.2849999999889,
      "v": 100
    },
    {
      "midi": 67,
      "hit": false,
      "t": 77142.7800000001,
      "d": 714.2849999999889,
      "v": 100
    },
    {
      "midi": 43,
      "hit": false,
      "t": 77499.92250000009,
      "d": 357.14250000000175,
      "v": 100
    },
    {
      "midi": 60,
      "hit": false,
      "t": 77857.06500000009,
      "d": 357.14250000000175,
      "v": 100
    },
    {
      "midi": 36,
      "hit": false,
      "t": 77857.06500000009,
      "d": 714.2850000000035,
      "v": 100
    },
    {
      "midi": 67,
      "hit": false,
      "t": 78214.20750000009,
      "d": 357.14250000000175,
      "v": 100
    },
    {
      "midi": 62,
      "hit": false,
      "t": 78571.3500000001,
      "d": 714.2850000000035,
      "v": 100
    },
    {
      "midi": 67,
      "hit": false,
      "t": 78571.3500000001,
      "d": 714.2850000000035,
      "v": 100
    },
    {
      "midi": 69,
      "hit": false,
      "t": 78571.3500000001,
      "d": 714.2850000000035,
      "v": 100
    },
    {
      "midi": 74,
      "hit": false,
      "t": 78571.3500000001,
      "d": 714.2850000000035,
      "v": 100
    },
    {
      "midi": 38,
      "hit": false,
      "t": 78571.3500000001,
      "d": 357.14250000000175,
      "v": 100
    },
    {
      "midi": 45,
      "hit": false,
      "t": 78928.4925000001,
      "d": 357.14250000000175,
      "v": 100
    },
    {
      "midi": 55,
      "hit": false,
      "t": 79285.6350000001,
      "d": 357.14250000000175,
      "v": 100
    },
    {
      "midi": 50,
      "hit": false,
      "t": 79285.6350000001,
      "d": 2142.854999999996,
      "v": 100
    },
    {
      "midi": 62,
      "hit": false,
      "t": 79642.7775000001,
      "d": 1785.7125000000087,
      "v": 100
    },
    {
      "midi": 54,
      "hit": false,
      "t": 79999.9200000001,
      "d": 1428.570000000007,
      "v": 100
    },
    {
      "midi": 41,
      "hit": false,
      "t": 81428.49000000009,
      "d": 357.14250000000175,
      "v": 100
    },
    {
      "midi": 53,
      "hit": false,
      "t": 81428.4900000001,
      "d": 1071.4275000000052,
      "v": 100
    },
    {
      "midi": 55,
      "hit": false,
      "t": 81428.4900000001,
      "d": 1071.4275000000052,
      "v": 100
    },
    {
      "midi": 60,
      "hit": false,
      "t": 81428.4900000001,
      "d": 1071.4275000000052,
      "v": 100
    },
    {
      "midi": 48,
      "hit": false,
      "t": 81785.6325000001,
      "d": 357.14250000000175,
      "v": 100
    },
    {
      "midi": 53,
      "hit": false,
      "t": 82142.7750000001,
      "d": 357.14250000000175,
      "v": 100
    },
    {
      "midi": 55,
      "hit": false,
      "t": 82499.9175000001,
      "d": 357.14250000000175,
      "v": 100
    },
    {
      "midi": 60,
      "hit": false,
      "t": 82499.91750000011,
      "d": 357.14250000000175,
      "v": 100
    },
    {
      "midi": 57,
      "hit": false,
      "t": 82857.0600000001,
      "d": 1428.570000000007,
      "v": 100
    },
    {
      "midi": 60,
      "hit": false,
      "t": 82857.06000000011,
      "d": 1071.4275000000052,
      "v": 100
    },
    {
      "midi": 65,
      "hit": false,
      "t": 82857.06000000011,
      "d": 1071.4275000000052,
      "v": 100
    },
    {
      "midi": 67,
      "hit": false,
      "t": 82857.06000000011,
      "d": 1071.4275000000052,
      "v": 100
    },
    {
      "midi": 72,
      "hit": false,
      "t": 82857.06000000011,
      "d": 1071.4275000000052,
      "v": 100
    },
    {
      "midi": 53,
      "hit": false,
      "t": 83928.48750000012,
      "d": 178.5712499999936,
      "v": 100
    },
    {
      "midi": 53,
      "hit": false,
      "t": 84107.05875000011,
      "d": 178.5712499999936,
      "v": 100
    },
    {
      "midi": 60,
      "hit": false,
      "t": 84107.05875000011,
      "d": 178.5712499999936,
      "v": 100
    },
    {
      "midi": 53,
      "hit": false,
      "t": 84285.6300000001,
      "d": 2857.1399999999994,
      "v": 100
    },
    {
      "midi": 60,
      "hit": false,
      "t": 84285.6300000001,
      "d": 2857.1399999999994,
      "v": 100
    },
    {
      "midi": 62,
      "hit": false,
      "t": 84285.6300000001,
      "d": 2857.1399999999994,
      "v": 100
    },
    {
      "midi": 31,
      "hit": false,
      "t": 84285.6300000001,
      "d": 2857.1399999999994,
      "v": 100
    },
    {
      "midi": 65,
      "hit": false,
      "t": 87142.7700000001,
      "d": 714.2850000000035,
      "v": 100
    },
    {
      "midi": 67,
      "hit": false,
      "t": 87142.7700000001,
      "d": 714.2850000000035,
      "v": 100
    },
    {
      "midi": 74,
      "hit": false,
      "t": 87142.7700000001,
      "d": 714.2850000000035,
      "v": 100
    },
    {
      "midi": 48,
      "hit": false,
      "t": 87499.91250000011,
      "d": 714.2850000000035,
      "v": 100
    },
    {
      "midi": 65,
      "hit": false,
      "t": 87857.05500000011,
      "d": 714.2850000000035,
      "v": 100
    },
    {
      "midi": 67,
      "hit": false,
      "t": 87857.05500000011,
      "d": 714.2850000000035,
      "v": 100
    },
    {
      "midi": 74,
      "hit": false,
      "t": 87857.05500000011,
      "d": 714.2850000000035,
      "v": 100
    },
    {
      "midi": 48,
      "hit": false,
      "t": 88214.19750000011,
      "d": 714.2850000000035,
      "v": 100
    },
    {
      "midi": 64,
      "hit": false,
      "t": 88571.34000000011,
      "d": 1071.4275000000052,
      "v": 100
    },
    {
      "midi": 67,
      "hit": false,
      "t": 88571.34000000011,
      "d": 1071.4275000000052,
      "v": 100
    },
    {
      "midi": 72,
      "hit": false,
      "t": 88571.34000000011,
      "d": 1071.4275000000052,
      "v": 100
    },
    {
      "midi": 48,
      "hit": false,
      "t": 88928.48250000011,
      "d": 714.2850000000035,
      "v": 100
    },
    {
      "midi": 67,
      "hit": false,
      "t": 89642.76750000012,
      "d": 178.5712499999936,
      "v": 100
    },
    {
      "midi": 48,
      "hit": false,
      "t": 89642.76750000012,
      "d": 357.14250000000175,
      "v": 100
    },
    {
      "midi": 65,
      "hit": false,
      "t": 89821.33875000011,
      "d": 178.5712499999936,
      "v": 100
    },
    {
      "midi": 36,
      "hit": false,
      "t": 89973.12431250012,
      "d": 26.785687499999767,
      "v": 100
    },
    {
      "midi": 60,
      "hit": false,
      "t": 89999.9100000001,
      "d": 2857.1399999999994,
      "v": 100
    },
    {
      "midi": 62,
      "hit": false,
      "t": 89999.9100000001,
      "d": 2857.1399999999994,
      "v": 100
    },
    {
      "midi": 67,
      "hit": false,
      "t": 89999.9100000001,
      "d": 2857.1399999999994,
      "v": 100
    },
    {
      "midi": 43,
      "hit": false,
      "t": 89999.91000000012,
      "d": 2857.1399999999994,
      "v": 100
    },
    {
      "midi": 52,
      "hit": false,
      "t": 90022.23140625012,
      "d": 2857.1399999999994,
      "v": 100
    },
    {
      "midi": 52,
      "hit": false,
      "t": 92857.0500000001,
      "d": 2857.1399999999994,
      "v": 100
    },
    {
      "midi": 55,
      "hit": false,
      "t": 92857.0500000001,
      "d": 2857.1399999999994,
      "v": 100
    },
    {
      "midi": 60,
      "hit": false,
      "t": 92857.0500000001,
      "d": 2857.1399999999994,
      "v": 100
    },
    {
      "midi": 33,
      "hit": false,
      "t": 92857.05000000012,
      "d": 1071.4275000000052,
      "v": 100
    },
    {
      "midi": 33,
      "hit": false,
      "t": 93928.47750000012,
      "d": 357.14250000000175,
      "v": 100
    },
    {
      "midi": 33,
      "hit": false,
      "t": 94285.62000000013,
      "d": 1428.570000000007,
      "v": 100
    },
    {
      "midi": 52,
      "hit": false,
      "t": 95714.1900000001,
      "d": 1428.570000000007,
      "v": 100
    },
    {
      "midi": 55,
      "hit": false,
      "t": 95714.1900000001,
      "d": 1428.570000000007,
      "v": 100
    },
    {
      "midi": 60,
      "hit": false,
      "t": 95714.1900000001,
      "d": 1428.570000000007,
      "v": 100
    },
    {
      "midi": 36,
      "hit": false,
      "t": 95714.19000000013,
      "d": 1071.4275000000052,
      "v": 100
    },
    {
      "midi": 36,
      "hit": false,
      "t": 96785.61750000014,
      "d": 357.14250000000175,
      "v": 100
    },
    {
      "midi": 60,
      "hit": false,
      "t": 97142.76000000011,
      "d": 476.1900000000023,
      "v": 100
    },
    {
      "midi": 36,
      "hit": false,
      "t": 97142.76000000014,
      "d": 1428.570000000007,
      "v": 100
    },
    {
      "midi": 62,
      "hit": false,
      "t": 97618.95000000011,
      "d": 476.1900000000023,
      "v": 100
    },
    {
      "midi": 64,
      "hit": false,
      "t": 98095.14000000012,
      "d": 476.1900000000023,
      "v": 100
    },
    {
      "midi": 55,
      "hit": false,
      "t": 98571.33000000012,
      "d": 2142.854999999996,
      "v": 100
    },
    {
      "midi": 60,
      "hit": false,
      "t": 98571.33000000012,
      "d": 2142.854999999996,
      "v": 100
    },
    {
      "midi": 64,
      "hit": false,
      "t": 98571.33000000012,
      "d": 2142.854999999996,
      "v": 100
    },
    {
      "midi": 33,
      "hit": false,
      "t": 98571.33000000015,
      "d": 1071.4275000000052,
      "v": 100
    },
    {
      "midi": 33,
      "hit": false,
      "t": 99642.75750000015,
      "d": 357.14250000000175,
      "v": 100
    },
    {
      "midi": 33,
      "hit": false,
      "t": 99999.90000000015,
      "d": 1428.570000000007,
      "v": 100
    },
    {
      "midi": 55,
      "hit": false,
      "t": 100714.18500000011,
      "d": 714.2850000000035,
      "v": 100
    },
    {
      "midi": 62,
      "hit": false,
      "t": 100714.18500000011,
      "d": 714.2850000000035,
      "v": 100
    },
    {
      "midi": 52,
      "hit": false,
      "t": 101428.47000000012,
      "d": 2857.1399999999994,
      "v": 100
    },
    {
      "midi": 55,
      "hit": false,
      "t": 101428.47000000012,
      "d": 2857.1399999999994,
      "v": 100
    },
    {
      "midi": 60,
      "hit": false,
      "t": 101428.47000000012,
      "d": 2857.1399999999994,
      "v": 100
    },
    {
      "midi": 36,
      "hit": false,
      "t": 101428.47000000016,
      "d": 1071.4275000000052,
      "v": 100
    },
    {
      "midi": 36,
      "hit": false,
      "t": 102499.89750000017,
      "d": 357.14250000000175,
      "v": 100
    },
    {
      "midi": 36,
      "hit": false,
      "t": 102857.04000000017,
      "d": 1428.570000000007,
      "v": 100
    },
    {
      "midi": 57,
      "hit": false,
      "t": 104285.61000000012,
      "d": 1428.570000000007,
      "v": 100
    },
    {
      "midi": 60,
      "hit": false,
      "t": 104285.61000000012,
      "d": 1428.570000000007,
      "v": 100
    },
    {
      "midi": 65,
      "hit": false,
      "t": 104285.61000000012,
      "d": 1428.570000000007,
      "v": 100
    },
    {
      "midi": 38,
      "hit": false,
      "t": 104285.61000000018,
      "d": 1071.4275000000052,
      "v": 100
    },
    {
      "midi": 38,
      "hit": false,
      "t": 105357.03750000018,
      "d": 357.14250000000175,
      "v": 100
    },
    {
      "midi": 55,
      "hit": false,
      "t": 105714.18000000012,
      "d": 1428.570000000007,
      "v": 100
    },
    {
      "midi": 60,
      "hit": false,
      "t": 105714.18000000012,
      "d": 1428.570000000007,
      "v": 100
    },
    {
      "midi": 64,
      "hit": false,
      "t": 105714.18000000012,
      "d": 1428.570000000007,
      "v": 100
    },
    {
      "midi": 40,
      "hit": false,
      "t": 105714.18000000018,
      "d": 1071.4275000000052,
      "v": 100
    },
    {
      "midi": 40,
      "hit": false,
      "t": 106785.60750000019,
      "d": 357.14250000000175,
      "v": 100
    },
    {
      "midi": 55,
      "hit": false,
      "t": 107142.75000000013,
      "d": 1071.4275000000052,
      "v": 100
    },
    {
      "midi": 57,
      "hit": false,
      "t": 107142.75000000013,
      "d": 1071.4275000000052,
      "v": 100
    },
    {
      "midi": 62,
      "hit": false,
      "t": 107142.75000000013,
      "d": 1071.4275000000052,
      "v": 100
    },
    {
      "midi": 41,
      "hit": false,
      "t": 107142.75000000019,
      "d": 1071.4275000000052,
      "v": 100
    },
    {
      "midi": 55,
      "hit": false,
      "t": 108214.17750000014,
      "d": 178.5712499999936,
      "v": 100
    },
    {
      "midi": 41,
      "hit": false,
      "t": 108214.1775000002,
      "d": 357.14250000000175,
      "v": 100
    },
    {
      "midi": 62,
      "hit": false,
      "t": 108392.74875000013,
      "d": 178.5712499999936,
      "v": 100
    },
    {
      "midi": 60,
      "hit": false,
      "t": 108571.32000000012,
      "d": 714.2850000000035,
      "v": 100
    },
    {
      "midi": 62,
      "hit": false,
      "t": 108571.32000000012,
      "d": 1428.570000000007,
      "v": 100
    },
    {
      "midi": 67,
      "hit": false,
      "t": 108571.32000000012,
      "d": 1428.570000000007,
      "v": 100
    },
    {
      "midi": 43,
      "hit": false,
      "t": 108571.3200000002,
      "d": 1428.570000000007,
      "v": 100
    },
    {
      "midi": 59,
      "hit": false,
      "t": 109285.60500000013,
      "d": 714.2850000000035,
      "v": 100
    },
    {
      "midi": 57,
      "hit": false,
      "t": 109999.89000000013,
      "d": 1428.570000000007,
      "v": 100
    },
    {
      "midi": 60,
      "hit": false,
      "t": 109999.89000000013,
      "d": 1428.570000000007,
      "v": 100
    },
    {
      "midi": 65,
      "hit": false,
      "t": 109999.89000000013,
      "d": 1428.570000000007,
      "v": 100
    },
    {
      "midi": 38,
      "hit": false,
      "t": 109999.8900000002,
      "d": 714.2850000000035,
      "v": 100
    },
    {
      "midi": 38,
      "hit": false,
      "t": 111071.31750000021,
      "d": 357.14250000000175,
      "v": 100
    },
    {
      "midi": 55,
      "hit": false,
      "t": 111428.46000000014,
      "d": 1428.570000000007,
      "v": 100
    },
    {
      "midi": 60,
      "hit": false,
      "t": 111428.46000000014,
      "d": 1428.570000000007,
      "v": 100
    },
    {
      "midi": 64,
      "hit": false,
      "t": 111428.46000000014,
      "d": 1428.570000000007,
      "v": 100
    },
    {
      "midi": 40,
      "hit": false,
      "t": 111428.46000000021,
      "d": 714.2850000000035,
      "v": 100
    },
    {
      "midi": 40,
      "hit": false,
      "t": 112499.88750000022,
      "d": 357.14250000000175,
      "v": 100
    },
    {
      "midi": 55,
      "hit": false,
      "t": 112857.03000000014,
      "d": 1428.570000000007,
      "v": 100
    },
    {
      "midi": 57,
      "hit": false,
      "t": 112857.03000000014,
      "d": 1428.570000000007,
      "v": 100
    },
    {
      "midi": 60,
      "hit": false,
      "t": 112857.03000000014,
      "d": 1428.570000000007,
      "v": 100
    },
    {
      "midi": 41,
      "hit": false,
      "t": 112857.03000000022,
      "d": 1071.4275000000052,
      "v": 100
    },
    {
      "midi": 41,
      "hit": false,
      "t": 113928.45750000022,
      "d": 357.14250000000175,
      "v": 100
    },
    {
      "midi": 60,
      "hit": false,
      "t": 114285.60000000015,
      "d": 714.2850000000035,
      "v": 100
    },
    {
      "midi": 53,
      "hit": false,
      "t": 114285.60000000015,
      "d": 1428.570000000007,
      "v": 100
    },
    {
      "midi": 55,
      "hit": false,
      "t": 114285.60000000015,
      "d": 1428.570000000007,
      "v": 100
    },
    {
      "midi": 43,
      "hit": false,
      "t": 114285.60000000022,
      "d": 1428.570000000007,
      "v": 100
    },
    {
      "midi": 59,
      "hit": false,
      "t": 114999.88500000015,
      "d": 714.2850000000035,
      "v": 100
    },
    {
      "midi": 53,
      "hit": false,
      "t": 115714.17000000016,
      "d": 357.14250000000175,
      "v": 100
    },
    {
      "midi": 33,
      "hit": false,
      "t": 115714.17000000023,
      "d": 1071.4275000000052,
      "v": 100
    },
    {
      "midi": 45,
      "hit": false,
      "t": 115714.17000000023,
      "d": 1071.4275000000052,
      "v": 100
    },
    {
      "midi": 55,
      "hit": false,
      "t": 116071.31250000016,
      "d": 357.14250000000175,
      "v": 100
    },
    {
      "midi": 60,
      "hit": false,
      "t": 116428.45500000016,
      "d": 714.2850000000035,
      "v": 100
    },
    {
      "midi": 33,
      "hit": false,
      "t": 116785.59750000024,
      "d": 357.14250000000175,
      "v": 100
    },
    {
      "midi": 45,
      "hit": false,
      "t": 116785.59750000024,
      "d": 357.14250000000175,
      "v": 100
    },
    {
      "midi": 55,
      "hit": false,
      "t": 117142.74000000017,
      "d": 357.14250000000175,
      "v": 100
    },
    {
      "midi": 35,
      "hit": false,
      "t": 117142.74000000024,
      "d": 1071.4275000000052,
      "v": 100
    },
    {
      "midi": 47,
      "hit": false,
      "t": 117142.74000000024,
      "d": 1071.4275000000052,
      "v": 100
    },
    {
      "midi": 57,
      "hit": false,
      "t": 117499.88250000017,
      "d": 357.14250000000175,
      "v": 100
    },
    {
      "midi": 62,
      "hit": false,
      "t": 117857.02500000017,
      "d": 714.2850000000035,
      "v": 100
    },
    {
      "midi": 35,
      "hit": false,
      "t": 118214.16750000024,
      "d": 357.14250000000175,
      "v": 100
    },
    {
      "midi": 47,
      "hit": false,
      "t": 118214.16750000024,
      "d": 357.14250000000175,
      "v": 100
    },
    {
      "midi": 60,
      "hit": false,
      "t": 118571.31000000017,
      "d": 1071.4275000000052,
      "v": 100
    },
    {
      "midi": 62,
      "hit": false,
      "t": 118571.31000000017,
      "d": 1071.4275000000052,
      "v": 100
    },
    {
      "midi": 67,
      "hit": false,
      "t": 118571.31000000017,
      "d": 1071.4275000000052,
      "v": 100
    },
    {
      "midi": 36,
      "hit": false,
      "t": 118571.31000000025,
      "d": 357.14250000000175,
      "v": 100
    },
    {
      "midi": 43,
      "hit": false,
      "t": 118928.45250000025,
      "d": 357.14250000000175,
      "v": 100
    },
    {
      "midi": 52,
      "hit": false,
      "t": 119285.59500000025,
      "d": 714.2850000000035,
      "v": 100
    },
    {
      "midi": 60,
      "hit": false,
      "t": 119642.73750000018,
      "d": 357.14250000000175,
      "v": 100
    },
    {
      "midi": 53,
      "hit": false,
      "t": 119999.88000000018,
      "d": 2857.1399999999994,
      "v": 100
    },
    {
      "midi": 55,
      "hit": false,
      "t": 119999.88000000018,
      "d": 2857.1399999999994,
      "v": 100
    },
    {
      "midi": 60,
      "hit": false,
      "t": 119999.88000000018,
      "d": 2857.1399999999994,
      "v": 100
    },
    {
      "midi": 45,
      "hit": false,
      "t": 119999.88000000025,
      "d": 2857.1399999999994,
      "v": 100
    },
    {
      "midi": 53,
      "hit": false,
      "t": 122857.02000000018,
      "d": 1428.570000000007,
      "v": 100
    },
    {
      "midi": 55,
      "hit": false,
      "t": 122857.02000000018,
      "d": 1428.570000000007,
      "v": 100
    },
    {
      "midi": 60,
      "hit": false,
      "t": 122857.02000000018,
      "d": 1428.570000000007,
      "v": 100
    },
    {
      "midi": 35,
      "hit": false,
      "t": 122857.02000000025,
      "d": 2857.1399999999994,
      "v": 100
    },
    {
      "midi": 43,
      "hit": false,
      "t": 122857.02000000025,
      "d": 2857.1399999999994,
      "v": 100
    },
    {
      "midi": 65,
      "hit": false,
      "t": 125714.16000000019,
      "d": 714.2850000000035,
      "v": 100
    },
    {
      "midi": 67,
      "hit": false,
      "t": 125714.16000000019,
      "d": 714.2850000000035,
      "v": 100
    },
    {
      "midi": 74,
      "hit": false,
      "t": 125714.16000000019,
      "d": 714.2850000000035,
      "v": 100
    },
    {
      "midi": 36,
      "hit": false,
      "t": 125714.16000000025,
      "d": 2857.140000000014,
      "v": 100
    },
    {
      "midi": 48,
      "hit": false,
      "t": 126071.30250000025,
      "d": 714.2850000000035,
      "v": 100
    },
    {
      "midi": 65,
      "hit": false,
      "t": 126428.4450000002,
      "d": 714.2850000000035,
      "v": 100
    },
    {
      "midi": 67,
      "hit": false,
      "t": 126428.4450000002,
      "d": 714.2850000000035,
      "v": 100
    },
    {
      "midi": 74,
      "hit": false,
      "t": 126428.4450000002,
      "d": 714.2850000000035,
      "v": 100
    },
    {
      "midi": 48,
      "hit": false,
      "t": 126785.58750000026,
      "d": 714.2850000000035,
      "v": 100
    },
    {
      "midi": 64,
      "hit": false,
      "t": 127142.7300000002,
      "d": 714.2850000000035,
      "v": 100
    },
    {
      "midi": 67,
      "hit": false,
      "t": 127142.7300000002,
      "d": 714.2850000000035,
      "v": 100
    },
    {
      "midi": 72,
      "hit": false,
      "t": 127142.7300000002,
      "d": 714.2850000000035,
      "v": 100
    },
    {
      "midi": 48,
      "hit": false,
      "t": 127499.87250000026,
      "d": 714.2850000000035,
      "v": 100
    },
    {
      "midi": 67,
      "hit": false,
      "t": 127857.0150000002,
      "d": 714.2850000000035,
      "v": 100
    },
    {
      "midi": 48,
      "hit": false,
      "t": 128214.15750000026,
      "d": 357.14250000000175,
      "v": 100
    },
    {
      "midi": 65,
      "hit": false,
      "t": 128571.3000000002,
      "d": 714.2850000000035,
      "v": 100
    },
    {
      "midi": 67,
      "hit": false,
      "t": 128571.3000000002,
      "d": 714.2850000000035,
      "v": 100
    },
    {
      "midi": 74,
      "hit": false,
      "t": 128571.3000000002,
      "d": 714.2850000000035,
      "v": 100
    },
    {
      "midi": 36,
      "hit": false,
      "t": 128571.30000000026,
      "d": 2857.1399999999994,
      "v": 100
    },
    {
      "midi": 48,
      "hit": false,
      "t": 128928.44250000027,
      "d": 714.2850000000035,
      "v": 100
    },
    {
      "midi": 65,
      "hit": false,
      "t": 129285.58500000021,
      "d": 714.2850000000035,
      "v": 100
    },
    {
      "midi": 67,
      "hit": false,
      "t": 129285.58500000021,
      "d": 714.2850000000035,
      "v": 100
    },
    {
      "midi": 74,
      "hit": false,
      "t": 129285.58500000021,
      "d": 714.2850000000035,
      "v": 100
    },
    {
      "midi": 48,
      "hit": false,
      "t": 129642.72750000027,
      "d": 714.2850000000035,
      "v": 100
    },
    {
      "midi": 64,
      "hit": false,
      "t": 129999.87000000021,
      "d": 714.2850000000035,
      "v": 100
    },
    {
      "midi": 67,
      "hit": false,
      "t": 129999.87000000021,
      "d": 714.2850000000035,
      "v": 100
    },
    {
      "midi": 72,
      "hit": false,
      "t": 129999.87000000021,
      "d": 714.2850000000035,
      "v": 100
    },
    {
      "midi": 48,
      "hit": false,
      "t": 130357.01250000027,
      "d": 714.2850000000035,
      "v": 100
    },
    {
      "midi": 67,
      "hit": false,
      "t": 130714.15500000022,
      "d": 357.14250000000175,
      "v": 100
    },
    {
      "midi": 76,
      "hit": false,
      "t": 131071.29750000022,
      "d": 357.1424999999872,
      "v": 100
    },
    {
      "midi": 48,
      "hit": false,
      "t": 131071.29750000028,
      "d": 357.1424999999872,
      "v": 100
    },
    {
      "midi": 65,
      "hit": false,
      "t": 131428.4400000002,
      "d": 714.2850000000035,
      "v": 100
    },
    {
      "midi": 67,
      "hit": false,
      "t": 131428.4400000002,
      "d": 714.2850000000035,
      "v": 100
    },
    {
      "midi": 74,
      "hit": false,
      "t": 131428.4400000002,
      "d": 714.2850000000035,
      "v": 100
    },
    {
      "midi": 36,
      "hit": false,
      "t": 131428.44000000026,
      "d": 2857.139999999985,
      "v": 100
    },
    {
      "midi": 48,
      "hit": false,
      "t": 131785.58250000025,
      "d": 714.2850000000035,
      "v": 100
    },
    {
      "midi": 65,
      "hit": false,
      "t": 132142.7250000002,
      "d": 714.2850000000035,
      "v": 100
    },
    {
      "midi": 67,
      "hit": false,
      "t": 132142.7250000002,
      "d": 714.2850000000035,
      "v": 100
    },
    {
      "midi": 74,
      "hit": false,
      "t": 132142.7250000002,
      "d": 714.2850000000035,
      "v": 100
    },
    {
      "midi": 48,
      "hit": false,
      "t": 132499.86750000025,
      "d": 714.2850000000035,
      "v": 100
    },
    {
      "midi": 64,
      "hit": false,
      "t": 132857.0100000002,
      "d": 714.2850000000035,
      "v": 100
    },
    {
      "midi": 67,
      "hit": false,
      "t": 132857.0100000002,
      "d": 714.2850000000035,
      "v": 100
    },
    {
      "midi": 72,
      "hit": false,
      "t": 132857.0100000002,
      "d": 714.2850000000035,
      "v": 100
    },
    {
      "midi": 48,
      "hit": false,
      "t": 133214.15250000026,
      "d": 714.2850000000035,
      "v": 100
    },
    {
      "midi": 67,
      "hit": false,
      "t": 133571.29500000022,
      "d": 714.2850000000035,
      "v": 100
    },
    {
      "midi": 48,
      "hit": false,
      "t": 133928.43750000026,
      "d": 357.1424999999872,
      "v": 100
    },
    {
      "midi": 62,
      "hit": false,
      "t": 134285.58000000022,
      "d": 714.2850000000035,
      "v": 100
    },
    {
      "midi": 67,
      "hit": false,
      "t": 134285.58000000022,
      "d": 714.2850000000035,
      "v": 100
    },
    {
      "midi": 71,
      "hit": false,
      "t": 134285.58000000022,
      "d": 714.2850000000035,
      "v": 100
    },
    {
      "midi": 36,
      "hit": false,
      "t": 134285.58000000025,
      "d": 1428.5699999999779,
      "v": 100
    },
    {
      "midi": 48,
      "hit": false,
      "t": 134642.72250000024,
      "d": 714.2850000000035,
      "v": 100
    },
    {
      "midi": 62,
      "hit": false,
      "t": 134999.86500000022,
      "d": 714.2850000000035,
      "v": 100
    },
    {
      "midi": 67,
      "hit": false,
      "t": 134999.86500000022,
      "d": 714.2850000000035,
      "v": 100
    },
    {
      "midi": 71,
      "hit": false,
      "t": 134999.86500000022,
      "d": 714.2850000000035,
      "v": 100
    },
    {
      "midi": 48,
      "hit": false,
      "t": 135357.00750000024,
      "d": 357.1424999999872,
      "v": 100
    },
    {
      "midi": 62,
      "hit": false,
      "t": 135714.15000000023,
      "d": 714.2850000000035,
      "v": 100
    },
    {
      "midi": 64,
      "hit": false,
      "t": 135714.15000000023,
      "d": 714.2850000000035,
      "v": 100
    },
    {
      "midi": 71,
      "hit": false,
      "t": 135714.15000000023,
      "d": 714.2850000000035,
      "v": 100
    },
    {
      "midi": 45,
      "hit": false,
      "t": 135714.15000000023,
      "d": 1071.4274999999907,
      "v": 100
    },
    {
      "midi": 60,
      "hit": false,
      "t": 136428.43500000023,
      "d": 1428.570000000007,
      "v": 100
    },
    {
      "midi": 64,
      "hit": false,
      "t": 136428.43500000023,
      "d": 1428.570000000007,
      "v": 100
    },
    {
      "midi": 69,
      "hit": false,
      "t": 136428.43500000023,
      "d": 1428.570000000007,
      "v": 100
    },
    {
      "midi": 45,
      "hit": false,
      "t": 136785.57750000022,
      "d": 357.1424999999872,
      "v": 100
    },
    {
      "midi": 43,
      "hit": false,
      "t": 137142.7200000002,
      "d": 1071.4274999999907,
      "v": 100
    },
    {
      "midi": 59,
      "hit": false,
      "t": 137857.00500000024,
      "d": 714.2850000000035,
      "v": 100
    },
    {
      "midi": 67,
      "hit": false,
      "t": 137857.00500000024,
      "d": 714.2850000000035,
      "v": 100
    },
    {
      "midi": 43,
      "hit": false,
      "t": 138214.1475000002,
      "d": 357.1424999999872,
      "v": 100
    },
    {
      "midi": 41,
      "hit": false,
      "t": 138571.29000000018,
      "d": 357.1424999999872,
      "v": 100
    },
    {
      "midi": 60,
      "hit": false,
      "t": 138571.29000000024,
      "d": 1071.4274999999907,
      "v": 100
    },
    {
      "midi": 48,
      "hit": false,
      "t": 138928.43250000017,
      "d": 357.1424999999872,
      "v": 100
    },
    {
      "midi": 55,
      "hit": false,
      "t": 139285.57500000016,
      "d": 357.1424999999872,
      "v": 100
    },
    {
      "midi": 57,
      "hit": false,
      "t": 139642.71750000014,
      "d": 714.2850000000035,
      "v": 100
    },
    {
      "midi": 65,
      "hit": false,
      "t": 139642.71750000023,
      "d": 1071.4274999999907,
      "v": 100
    },
    {
      "midi": 55,
      "hit": false,
      "t": 140357.00250000015,
      "d": 357.1424999999872,
      "v": 100
    },
    {
      "midi": 53,
      "hit": false,
      "t": 140714.14500000014,
      "d": 357.1424999999872,
      "v": 100
    },
    {
      "midi": 72,
      "hit": false,
      "t": 140714.14500000022,
      "d": 714.2850000000035,
      "v": 100
    },
    {
      "midi": 48,
      "hit": false,
      "t": 141071.28750000012,
      "d": 357.1424999999872,
      "v": 100
    },
    {
      "midi": 40,
      "hit": false,
      "t": 141428.4300000001,
      "d": 357.1424999999872,
      "v": 100
    },
    {
      "midi": 72,
      "hit": false,
      "t": 141428.43000000023,
      "d": 1428.570000000007,
      "v": 100
    },
    {
      "midi": 48,
      "hit": false,
      "t": 141785.5725000001,
      "d": 357.1424999999872,
      "v": 100
    },
    {
      "midi": 55,
      "hit": false,
      "t": 142142.71500000008,
      "d": 357.1424999999872,
      "v": 100
    },
    {
      "midi": 60,
      "hit": false,
      "t": 142499.85750000007,
      "d": 1785.7124999999942,
      "v": 100
    },
    {
      "midi": 84,
      "hit": false,
      "t": 142857.00000000023,
      "d": 357.1424999999872,
      "v": 100
    },
    {
      "midi": 83,
      "hit": false,
      "t": 143214.14250000022,
      "d": 357.1424999999872,
      "v": 100
    },
    {
      "midi": 81,
      "hit": false,
      "t": 143571.2850000002,
      "d": 357.1424999999872,
      "v": 100
    },
    {
      "midi": 79,
      "hit": false,
      "t": 143928.4275000002,
      "d": 357.1424999999872,
      "v": 100
    },
    {
      "midi": 41,
      "hit": false,
      "t": 144285.57000000007,
      "d": 357.1424999999872,
      "v": 100
    },
    {
      "midi": 79,
      "hit": false,
      "t": 144285.57000000018,
      "d": 178.57125000000815,
      "v": 100
    },
    {
      "midi": 81,
      "hit": false,
      "t": 144285.57000000018,
      "d": 1071.4275000000198,
      "v": 100
    },
    {
      "midi": 48,
      "hit": false,
      "t": 144642.71250000005,
      "d": 357.1424999999872,
      "v": 100
    },
    {
      "midi": 52,
      "hit": false,
      "t": 144999.85500000004,
      "d": 357.1424999999872,
      "v": 100
    },
    {
      "midi": 57,
      "hit": false,
      "t": 145356.99750000003,
      "d": 714.2850000000035,
      "v": 100
    },
    {
      "midi": 72,
      "hit": false,
      "t": 145356.9975000002,
      "d": 714.2850000000035,
      "v": 100
    },
    {
      "midi": 55,
      "hit": false,
      "t": 146071.28250000003,
      "d": 357.1424999999872,
      "v": 100
    },
    {
      "midi": 69,
      "hit": false,
      "t": 146071.2825000002,
      "d": 714.2850000000035,
      "v": 100
    },
    {
      "midi": 53,
      "hit": false,
      "t": 146428.42500000002,
      "d": 357.1424999999872,
      "v": 100
    },
    {
      "midi": 48,
      "hit": false,
      "t": 146785.5675,
      "d": 357.1424999999872,
      "v": 100
    },
    {
      "midi": 65,
      "hit": false,
      "t": 146785.5675000002,
      "d": 178.57125000000815,
      "v": 100
    },
    {
      "midi": 64,
      "hit": false,
      "t": 146964.13875000022,
      "d": 178.57125000000815,
      "v": 100
    },
    {
      "midi": 40,
      "hit": false,
      "t": 147142.71,
      "d": 357.1424999999872,
      "v": 100
    },
    {
      "midi": 62,
      "hit": false,
      "t": 147142.71000000022,
      "d": 1428.570000000007,
      "v": 100
    },
    {
      "midi": 48,
      "hit": false,
      "t": 147499.85249999998,
      "d": 357.1424999999872,
      "v": 100
    },
    {
      "midi": 55,
      "hit": false,
      "t": 147856.99499999997,
      "d": 357.1424999999872,
      "v": 100
    },
    {
      "midi": 60,
      "hit": false,
      "t": 148214.13749999995,
      "d": 1785.7124999999942,
      "v": 100
    },
    {
      "midi": 64,
      "hit": false,
      "t": 148571.28000000023,
      "d": 714.2850000000035,
      "v": 100
    },
    {
      "midi": 72,
      "hit": false,
      "t": 148571.28000000023,
      "d": 714.2850000000035,
      "v": 100
    },
    {
      "midi": 62,
      "hit": false,
      "t": 149285.56500000024,
      "d": 714.2850000000035,
      "v": 100
    },
    {
      "midi": 71,
      "hit": false,
      "t": 149285.56500000024,
      "d": 714.2850000000035,
      "v": 100
    },
    {
      "midi": 45,
      "hit": false,
      "t": 149999.84999999995,
      "d": 1428.570000000007,
      "v": 100
    },
    {
      "midi": 60,
      "hit": false,
      "t": 149999.85000000024,
      "d": 714.2850000000035,
      "v": 100
    },
    {
      "midi": 65,
      "hit": false,
      "t": 149999.85000000024,
      "d": 714.2850000000035,
      "v": 100
    },
    {
      "midi": 69,
      "hit": false,
      "t": 149999.85000000024,
      "d": 714.2850000000035,
      "v": 100
    },
    {
      "midi": 53,
      "hit": false,
      "t": 150714.13500000024,
      "d": 357.1424999999872,
      "v": 100
    },
    {
      "midi": 60,
      "hit": false,
      "t": 151071.27750000023,
      "d": 357.1424999999872,
      "v": 100
    },
    {
      "midi": 47,
      "hit": false,
      "t": 151428.41999999995,
      "d": 1428.570000000007,
      "v": 100
    },
    {
      "midi": 55,
      "hit": false,
      "t": 151428.42000000022,
      "d": 714.2850000000035,
      "v": 100
    },
    {
      "midi": 57,
      "hit": false,
      "t": 151428.42000000022,
      "d": 714.2850000000035,
      "v": 100
    },
    {
      "midi": 62,
      "hit": false,
      "t": 151428.42000000022,
      "d": 714.2850000000035,
      "v": 100
    },
    {
      "midi": 62,
      "hit": false,
      "t": 152142.70500000022,
      "d": 357.1424999999872,
      "v": 100
    },
    {
      "midi": 67,
      "hit": false,
      "t": 152499.8475000002,
      "d": 357.1424999999872,
      "v": 100
    },
    {
      "midi": 48,
      "hit": false,
      "t": 152856.98999999996,
      "d": 357.1424999999872,
      "v": 100
    },
    {
      "midi": 62,
      "hit": false,
      "t": 152856.9900000002,
      "d": 178.57125000000815,
      "v": 100
    },
    {
      "midi": 64,
      "hit": false,
      "t": 152856.9900000002,
      "d": 714.2850000000035,
      "v": 100
    },
    {
      "midi": 67,
      "hit": false,
      "t": 152856.9900000002,
      "d": 714.2850000000035,
      "v": 100
    },
    {
      "midi": 43,
      "hit": false,
      "t": 153214.13249999995,
      "d": 357.1424999999872,
      "v": 100
    },
    {
      "midi": 36,
      "hit": false,
      "t": 153571.27499999994,
      "d": 714.2850000000035,
      "v": 100
    },
    {
      "midi": 60,
      "hit": false,
      "t": 153571.2750000002,
      "d": 357.1424999999872,
      "v": 100
    },
    {
      "midi": 67,
      "hit": false,
      "t": 153928.41750000019,
      "d": 357.1424999999872,
      "v": 100
    },
    {
      "midi": 38,
      "hit": false,
      "t": 154285.55999999994,
      "d": 357.1424999999872,
      "v": 100
    },
    {
      "midi": 62,
      "hit": false,
      "t": 154285.56000000017,
      "d": 714.2850000000035,
      "v": 100
    },
    {
      "midi": 67,
      "hit": false,
      "t": 154285.56000000017,
      "d": 714.2850000000035,
      "v": 100
    },
    {
      "midi": 69,
      "hit": false,
      "t": 154285.56000000017,
      "d": 714.2850000000035,
      "v": 100
    },
    {
      "midi": 74,
      "hit": false,
      "t": 154285.56000000017,
      "d": 714.2850000000035,
      "v": 100
    },
    {
      "midi": 45,
      "hit": false,
      "t": 154642.70249999993,
      "d": 357.1424999999872,
      "v": 100
    },
    {
      "midi": 50,
      "hit": false,
      "t": 154999.8449999999,
      "d": 2142.8550000000105,
      "v": 100
    },
    {
      "midi": 55,
      "hit": false,
      "t": 154999.84500000018,
      "d": 357.1424999999872,
      "v": 100
    },
    {
      "midi": 62,
      "hit": false,
      "t": 155356.98750000016,
      "d": 1785.7124999999942,
      "v": 100
    },
    {
      "midi": 54,
      "hit": false,
      "t": 155714.13000000015,
      "d": 1428.570000000007,
      "v": 100
    },
    {
      "midi": 41,
      "hit": false,
      "t": 157142.69999999992,
      "d": 357.1424999999872,
      "v": 100
    },
    {
      "midi": 53,
      "hit": false,
      "t": 157142.70000000016,
      "d": 1071.4274999999907,
      "v": 100
    },
    {
      "midi": 55,
      "hit": false,
      "t": 157142.70000000016,
      "d": 1071.4274999999907,
      "v": 100
    },
    {
      "midi": 60,
      "hit": false,
      "t": 157142.70000000016,
      "d": 1071.4274999999907,
      "v": 100
    },
    {
      "midi": 48,
      "hit": false,
      "t": 157499.8424999999,
      "d": 357.1424999999872,
      "v": 100
    },
    {
      "midi": 53,
      "hit": false,
      "t": 157856.9849999999,
      "d": 357.1424999999872,
      "v": 100
    },
    {
      "midi": 55,
      "hit": false,
      "t": 158214.1274999999,
      "d": 357.1424999999872,
      "v": 100
    },
    {
      "midi": 60,
      "hit": false,
      "t": 158214.12750000015,
      "d": 357.1424999999872,
      "v": 100
    },
    {
      "midi": 57,
      "hit": false,
      "t": 158571.26999999987,
      "d": 1428.570000000007,
      "v": 100
    },
    {
      "midi": 60,
      "hit": false,
      "t": 158571.27000000014,
      "d": 1071.4274999999907,
      "v": 100
    },
    {
      "midi": 65,
      "hit": false,
      "t": 158571.27000000014,
      "d": 1071.4274999999907,
      "v": 100
    },
    {
      "midi": 67,
      "hit": false,
      "t": 158571.27000000014,
      "d": 1071.4274999999907,
      "v": 100
    },
    {
      "midi": 72,
      "hit": false,
      "t": 158571.27000000014,
      "d": 1071.4274999999907,
      "v": 100
    },
    {
      "midi": 53,
      "hit": false,
      "t": 159642.69750000013,
      "d": 178.57125000000815,
      "v": 100
    },
    {
      "midi": 53,
      "hit": false,
      "t": 159821.26875000013,
      "d": 178.57125000000815,
      "v": 100
    },
    {
      "midi": 60,
      "hit": false,
      "t": 159821.26875000013,
      "d": 178.57125000000815,
      "v": 100
    },
    {
      "midi": 31,
      "hit": false,
      "t": 159999.83999999988,
      "d": 2857.140000000014,
      "v": 100
    },
    {
      "midi": 53,
      "hit": false,
      "t": 159999.84000000014,
      "d": 2857.140000000014,
      "v": 100
    },
    {
      "midi": 60,
      "hit": false,
      "t": 159999.84000000014,
      "d": 2857.140000000014,
      "v": 100
    },
    {
      "midi": 62,
      "hit": false,
      "t": 159999.84000000014,
      "d": 2857.140000000014,
      "v": 100
    },
    {
      "midi": 48,
      "hit": false,
      "t": 162856.9799999999,
      "d": 2857.139999999985,
      "v": 100
    },
    {
      "midi": 65,
      "hit": false,
      "t": 162856.98000000016,
      "d": 714.2850000000035,
      "v": 100
    },
    {
      "midi": 67,
      "hit": false,
      "t": 162856.98000000016,
      "d": 714.2850000000035,
      "v": 100
    },
    {
      "midi": 74,
      "hit": false,
      "t": 162856.98000000016,
      "d": 714.2850000000035,
      "v": 100
    },
    {
      "midi": 60,
      "hit": false,
      "t": 163214.12249999988,
      "d": 714.2850000000035,
      "v": 100
    },
    {
      "midi": 65,
      "hit": false,
      "t": 163571.26500000016,
      "d": 714.2850000000035,
      "v": 100
    },
    {
      "midi": 67,
      "hit": false,
      "t": 163571.26500000016,
      "d": 714.2850000000035,
      "v": 100
    },
    {
      "midi": 74,
      "hit": false,
      "t": 163571.26500000016,
      "d": 714.2850000000035,
      "v": 100
    },
    {
      "midi": 60,
      "hit": false,
      "t": 163928.40749999988,
      "d": 714.2850000000035,
      "v": 100
    },
    {
      "midi": 64,
      "hit": false,
      "t": 164285.55000000016,
      "d": 1071.4274999999907,
      "v": 100
    },
    {
      "midi": 72,
      "hit": false,
      "t": 164285.55000000016,
      "d": 1071.4274999999907,
      "v": 100
    },
    {
      "midi": 60,
      "hit": false,
      "t": 164642.6924999999,
      "d": 714.2850000000035,
      "v": 100
    },
    {
      "midi": 67,
      "hit": false,
      "t": 164999.83500000017,
      "d": 357.1424999999872,
      "v": 100
    },
    {
      "midi": 60,
      "hit": false,
      "t": 165356.9774999999,
      "d": 357.1424999999872,
      "v": 100
    },
    {
      "midi": 48,
      "hit": false,
      "t": 165714.11999999988,
      "d": 2857.139999999985,
      "v": 100
    },
    {
      "midi": 65,
      "hit": false,
      "t": 165714.12000000014,
      "d": 714.2850000000035,
      "v": 100
    },
    {
      "midi": 67,
      "hit": false,
      "t": 165714.12000000014,
      "d": 714.2850000000035,
      "v": 100
    },
    {
      "midi": 74,
      "hit": false,
      "t": 165714.12000000014,
      "d": 714.2850000000035,
      "v": 100
    },
    {
      "midi": 60,
      "hit": false,
      "t": 166071.26249999987,
      "d": 714.2850000000035,
      "v": 100
    },
    {
      "midi": 65,
      "hit": false,
      "t": 166428.40500000014,
      "d": 714.2850000000035,
      "v": 100
    },
    {
      "midi": 67,
      "hit": false,
      "t": 166428.40500000014,
      "d": 714.2850000000035,
      "v": 100
    },
    {
      "midi": 74,
      "hit": false,
      "t": 166428.40500000014,
      "d": 714.2850000000035,
      "v": 100
    },
    {
      "midi": 60,
      "hit": false,
      "t": 166785.54749999987,
      "d": 714.2850000000035,
      "v": 100
    },
    {
      "midi": 64,
      "hit": false,
      "t": 167142.69000000015,
      "d": 357.1424999999872,
      "v": 100
    },
    {
      "midi": 72,
      "hit": false,
      "t": 167142.69000000015,
      "d": 357.1424999999872,
      "v": 100
    },
    {
      "midi": 60,
      "hit": false,
      "t": 167499.83249999987,
      "d": 714.2850000000035,
      "v": 100
    },
    {
      "midi": 65,
      "hit": false,
      "t": 167499.83250000014,
      "d": 357.1424999999872,
      "v": 100
    },
    {
      "midi": 74,
      "hit": false,
      "t": 167499.83250000014,
      "d": 357.1424999999872,
      "v": 100
    },
    {
      "midi": 67,
      "hit": false,
      "t": 167856.97500000012,
      "d": 357.1424999999872,
      "v": 100
    },
    {
      "midi": 76,
      "hit": false,
      "t": 167856.97500000012,
      "d": 357.1424999999872,
      "v": 100
    },
    {
      "midi": 60,
      "hit": false,
      "t": 168214.11749999988,
      "d": 357.1424999999872,
      "v": 100
    },
    {
      "midi": 69,
      "hit": false,
      "t": 168214.1175000001,
      "d": 357.1424999999872,
      "v": 100
    },
    {
      "midi": 77,
      "hit": false,
      "t": 168214.1175000001,
      "d": 357.1424999999872,
      "v": 100
    },
    {
      "midi": 39,
      "hit": false,
      "t": 168571.25999999986,
      "d": 357.1424999999872,
      "v": 100
    },
    {
      "midi": 70,
      "hit": false,
      "t": 168571.2600000001,
      "d": 1428.570000000007,
      "v": 100
    },
    {
      "midi": 79,
      "hit": false,
      "t": 168571.2600000001,
      "d": 1428.570000000007,
      "v": 100
    },
    {
      "midi": 46,
      "hit": false,
      "t": 168928.40249999985,
      "d": 357.1424999999872,
      "v": 100
    },
    {
      "midi": 51,
      "hit": false,
      "t": 169285.54499999984,
      "d": 357.1424999999872,
      "v": 100
    },
    {
      "midi": 53,
      "hit": false,
      "t": 169642.68749999983,
      "d": 357.1424999999872,
      "v": 100
    },
    {
      "midi": 55,
      "hit": false,
      "t": 169999.8299999998,
      "d": 714.2850000000035,
      "v": 100
    },
    {
      "midi": 67,
      "hit": false,
      "t": 170356.9725000001,
      "d": 357.1424999999872,
      "v": 100
    },
    {
      "midi": 46,
      "hit": false,
      "t": 170714.11499999982,
      "d": 714.2850000000035,
      "v": 100
    },
    {
      "midi": 70,
      "hit": false,
      "t": 170714.11500000008,
      "d": 357.1424999999872,
      "v": 100
    },
    {
      "midi": 79,
      "hit": false,
      "t": 171071.25750000007,
      "d": 357.1424999999872,
      "v": 100
    },
    {
      "midi": 38,
      "hit": false,
      "t": 171428.39999999982,
      "d": 357.1424999999872,
      "v": 100
    },
    {
      "midi": 69,
      "hit": false,
      "t": 171428.40000000005,
      "d": 1428.570000000007,
      "v": 100
    },
    {
      "midi": 77,
      "hit": false,
      "t": 171428.40000000005,
      "d": 1428.570000000007,
      "v": 100
    },
    {
      "midi": 45,
      "hit": false,
      "t": 171785.5424999998,
      "d": 357.1424999999872,
      "v": 100
    },
    {
      "midi": 50,
      "hit": false,
      "t": 172142.6849999998,
      "d": 357.1424999999872,
      "v": 100
    },
    {
      "midi": 52,
      "hit": false,
      "t": 172499.82749999978,
      "d": 357.1424999999872,
      "v": 100
    },
    {
      "midi": 53,
      "hit": false,
      "t": 172856.96999999977,
      "d": 1428.570000000007,
      "v": 100
    },
    {
      "midi": 62,
      "hit": false,
      "t": 172856.97000000006,
      "d": 357.1424999999872,
      "v": 100
    },
    {
      "midi": 69,
      "hit": false,
      "t": 173214.11250000005,
      "d": 357.1424999999872,
      "v": 100
    },
    {
      "midi": 74,
      "hit": false,
      "t": 173571.25500000003,
      "d": 714.2850000000035,
      "v": 100
    },
    {
      "midi": 36,
      "hit": false,
      "t": 174285.53999999978,
      "d": 2857.139999999985,
      "v": 100
    },
    {
      "midi": 65,
      "hit": false,
      "t": 174285.54000000004,
      "d": 714.2850000000035,
      "v": 100
    },
    {
      "midi": 67,
      "hit": false,
      "t": 174285.54000000004,
      "d": 714.2850000000035,
      "v": 100
    },
    {
      "midi": 74,
      "hit": false,
      "t": 174285.54000000004,
      "d": 714.2850000000035,
      "v": 100
    },
    {
      "midi": 48,
      "hit": false,
      "t": 174642.68249999976,
      "d": 714.2850000000035,
      "v": 100
    },
    {
      "midi": 65,
      "hit": false,
      "t": 174999.82500000004,
      "d": 714.2850000000035,
      "v": 100
    },
    {
      "midi": 67,
      "hit": false,
      "t": 174999.82500000004,
      "d": 714.2850000000035,
      "v": 100
    },
    {
      "midi": 74,
      "hit": false,
      "t": 174999.82500000004,
      "d": 714.2850000000035,
      "v": 100
    },
    {
      "midi": 48,
      "hit": false,
      "t": 175356.96749999977,
      "d": 714.2850000000035,
      "v": 100
    },
    {
      "midi": 64,
      "hit": false,
      "t": 175714.11000000004,
      "d": 714.2850000000035,
      "v": 100
    },
    {
      "midi": 67,
      "hit": false,
      "t": 175714.11000000004,
      "d": 714.2850000000035,
      "v": 100
    },
    {
      "midi": 72,
      "hit": false,
      "t": 175714.11000000004,
      "d": 714.2850000000035,
      "v": 100
    },
    {
      "midi": 48,
      "hit": false,
      "t": 176071.25249999977,
      "d": 714.2850000000035,
      "v": 100
    },
    {
      "midi": 67,
      "hit": false,
      "t": 176428.39500000005,
      "d": 357.1424999999872,
      "v": 100
    },
    {
      "midi": 48,
      "hit": false,
      "t": 176785.53749999977,
      "d": 357.1424999999872,
      "v": 100
    },
    {
      "midi": 76,
      "hit": false,
      "t": 176785.53750000003,
      "d": 357.1424999999872,
      "v": 100
    },
    {
      "midi": 36,
      "hit": false,
      "t": 177142.67999999976,
      "d": 2857.139999999985,
      "v": 100
    },
    {
      "midi": 65,
      "hit": false,
      "t": 177142.68000000002,
      "d": 714.2850000000035,
      "v": 100
    },
    {
      "midi": 67,
      "hit": false,
      "t": 177142.68000000002,
      "d": 714.2850000000035,
      "v": 100
    },
    {
      "midi": 74,
      "hit": false,
      "t": 177142.68000000002,
      "d": 714.2850000000035,
      "v": 100
    },
    {
      "midi": 48,
      "hit": false,
      "t": 177499.82249999975,
      "d": 714.2850000000035,
      "v": 100
    },
    {
      "midi": 65,
      "hit": false,
      "t": 177856.96500000003,
      "d": 714.2850000000035,
      "v": 100
    },
    {
      "midi": 67,
      "hit": false,
      "t": 177856.96500000003,
      "d": 714.2850000000035,
      "v": 100
    },
    {
      "midi": 74,
      "hit": false,
      "t": 177856.96500000003,
      "d": 714.2850000000035,
      "v": 100
    },
    {
      "midi": 48,
      "hit": false,
      "t": 178214.10749999975,
      "d": 714.2850000000035,
      "v": 100
    },
    {
      "midi": 64,
      "hit": false,
      "t": 178571.25000000003,
      "d": 357.1424999999872,
      "v": 100
    },
    {
      "midi": 72,
      "hit": false,
      "t": 178571.25000000003,
      "d": 357.1424999999872,
      "v": 100
    },
    {
      "midi": 48,
      "hit": false,
      "t": 178928.39249999975,
      "d": 714.2850000000035,
      "v": 100
    },
    {
      "midi": 65,
      "hit": false,
      "t": 178928.39250000002,
      "d": 357.1424999999872,
      "v": 100
    },
    {
      "midi": 74,
      "hit": false,
      "t": 178928.39250000002,
      "d": 357.1424999999872,
      "v": 100
    },
    {
      "midi": 67,
      "hit": false,
      "t": 179285.535,
      "d": 357.1424999999872,
      "v": 100
    },
    {
      "midi": 76,
      "hit": false,
      "t": 179285.535,
      "d": 357.1424999999872,
      "v": 100
    },
    {
      "midi": 48,
      "hit": false,
      "t": 179642.67749999976,
      "d": 357.1424999999872,
      "v": 100
    },
    {
      "midi": 69,
      "hit": false,
      "t": 179642.6775,
      "d": 357.1424999999872,
      "v": 100
    },
    {
      "midi": 77,
      "hit": false,
      "t": 179642.6775,
      "d": 357.1424999999872,
      "v": 100
    },
    {
      "midi": 39,
      "hit": false,
      "t": 179999.81999999975,
      "d": 357.1424999999872,
      "v": 100
    },
    {
      "midi": 70,
      "hit": false,
      "t": 179999.81999999998,
      "d": 1428.570000000007,
      "v": 100
    },
    {
      "midi": 79,
      "hit": false,
      "t": 179999.81999999998,
      "d": 1428.570000000007,
      "v": 100
    },
    {
      "midi": 46,
      "hit": false,
      "t": 180356.96249999973,
      "d": 357.1424999999872,
      "v": 100
    },
    {
      "midi": 51,
      "hit": false,
      "t": 180714.10499999972,
      "d": 357.1424999999872,
      "v": 100
    },
    {
      "midi": 53,
      "hit": false,
      "t": 181071.2474999997,
      "d": 357.1424999999872,
      "v": 100
    },
    {
      "midi": 55,
      "hit": false,
      "t": 181428.3899999997,
      "d": 714.2850000000035,
      "v": 100
    },
    {
      "midi": 67,
      "hit": false,
      "t": 181785.53249999997,
      "d": 357.1424999999872,
      "v": 100
    },
    {
      "midi": 46,
      "hit": false,
      "t": 182142.6749999997,
      "d": 714.2850000000035,
      "v": 100
    },
    {
      "midi": 70,
      "hit": false,
      "t": 182142.67499999996,
      "d": 357.1424999999872,
      "v": 100
    },
    {
      "midi": 79,
      "hit": false,
      "t": 182499.81749999995,
      "d": 357.1424999999872,
      "v": 100
    },
    {
      "midi": 38,
      "hit": false,
      "t": 182856.9599999997,
      "d": 357.1424999999872,
      "v": 100
    },
    {
      "midi": 69,
      "hit": false,
      "t": 182856.95999999993,
      "d": 1428.570000000007,
      "v": 100
    },
    {
      "midi": 77,
      "hit": false,
      "t": 182856.95999999993,
      "d": 1428.570000000007,
      "v": 100
    },
    {
      "midi": 45,
      "hit": false,
      "t": 183214.1024999997,
      "d": 357.1424999999872,
      "v": 100
    },
    {
      "midi": 50,
      "hit": false,
      "t": 183571.24499999968,
      "d": 357.1424999999872,
      "v": 100
    },
    {
      "midi": 52,
      "hit": false,
      "t": 183928.38749999966,
      "d": 357.1424999999872,
      "v": 100
    },
    {
      "midi": 53,
      "hit": false,
      "t": 184285.52999999965,
      "d": 1428.570000000007,
      "v": 100
    },
    {
      "midi": 62,
      "hit": false,
      "t": 184285.52999999994,
      "d": 357.1424999999872,
      "v": 100
    },
    {
      "midi": 69,
      "hit": false,
      "t": 184642.67249999993,
      "d": 357.1424999999872,
      "v": 100
    },
    {
      "midi": 74,
      "hit": false,
      "t": 184999.81499999992,
      "d": 714.2850000000035,
      "v": 100
    },
    {
      "midi": 33,
      "hit": false,
      "t": 185714.09999999966,
      "d": 1071.4274999999907,
      "v": 100
    },
    {
      "midi": 45,
      "hit": false,
      "t": 185714.09999999966,
      "d": 1071.4274999999907,
      "v": 100
    },
    {
      "midi": 72,
      "hit": false,
      "t": 185714.09999999992,
      "d": 714.2850000000035,
      "v": 100
    },
    {
      "midi": 77,
      "hit": false,
      "t": 185714.09999999992,
      "d": 714.2850000000035,
      "v": 100
    },
    {
      "midi": 81,
      "hit": false,
      "t": 185714.09999999992,
      "d": 714.2850000000035,
      "v": 100
    },
    {
      "midi": 69,
      "hit": false,
      "t": 186428.38499999992,
      "d": 714.2850000000035,
      "v": 100
    },
    {
      "midi": 77,
      "hit": false,
      "t": 186428.38499999992,
      "d": 714.2850000000035,
      "v": 100
    },
    {
      "midi": 33,
      "hit": false,
      "t": 186785.52749999965,
      "d": 357.1424999999872,
      "v": 100
    },
    {
      "midi": 45,
      "hit": false,
      "t": 186785.52749999965,
      "d": 357.1424999999872,
      "v": 100
    },
    {
      "midi": 33,
      "hit": false,
      "t": 187142.66999999963,
      "d": 1071.4274999999907,
      "v": 100
    },
    {
      "midi": 45,
      "hit": false,
      "t": 187142.66999999963,
      "d": 1071.4274999999907,
      "v": 100
    },
    {
      "midi": 65,
      "hit": false,
      "t": 187142.66999999993,
      "d": 714.2850000000035,
      "v": 100
    },
    {
      "midi": 74,
      "hit": false,
      "t": 187142.66999999993,
      "d": 714.2850000000035,
      "v": 100
    },
    {
      "midi": 64,
      "hit": false,
      "t": 187856.95499999993,
      "d": 714.2850000000035,
      "v": 100
    },
    {
      "midi": 72,
      "hit": false,
      "t": 187856.95499999993,
      "d": 714.2850000000035,
      "v": 100
    },
    {
      "midi": 43,
      "hit": false,
      "t": 188571.2399999996,
      "d": 2857.140000000014,
      "v": 100
    },
    {
      "midi": 50,
      "hit": false,
      "t": 188571.2399999996,
      "d": 2857.140000000014,
      "v": 100
    },
    {
      "midi": 62,
      "hit": false,
      "t": 188571.23999999993,
      "d": 2142.8550000000105,
      "v": 100
    },
    {
      "midi": 71,
      "hit": false,
      "t": 188571.23999999993,
      "d": 2142.8550000000105,
      "v": 100
    },
    {
      "midi": 33,
      "hit": false,
      "t": 191428.37999999963,
      "d": 2857.140000000014,
      "v": 100
    },
    {
      "midi": 52,
      "hit": false,
      "t": 191428.37999999995,
      "d": 2857.140000000014,
      "v": 100
    },
    {
      "midi": 55,
      "hit": false,
      "t": 191428.37999999995,
      "d": 2857.140000000014,
      "v": 100
    },
    {
      "midi": 60,
      "hit": false,
      "t": 191428.37999999995,
      "d": 2857.140000000014,
      "v": 100
    },
    {
      "midi": 36,
      "hit": false,
      "t": 194285.51999999964,
      "d": 1071.4274999999907,
      "v": 100
    },
    {
      "midi": 52,
      "hit": false,
      "t": 194285.51999999996,
      "d": 2857.140000000014,
      "v": 100
    },
    {
      "midi": 55,
      "hit": false,
      "t": 194285.51999999996,
      "d": 2857.140000000014,
      "v": 100
    },
    {
      "midi": 60,
      "hit": false,
      "t": 194285.51999999996,
      "d": 2857.140000000014,
      "v": 100
    },
    {
      "midi": 36,
      "hit": false,
      "t": 195356.94749999963,
      "d": 357.1424999999872,
      "v": 100
    },
    {
      "midi": 36,
      "hit": false,
      "t": 195714.08999999962,
      "d": 1428.570000000007,
      "v": 100
    },
    {
      "midi": 33,
      "hit": false,
      "t": 197142.65999999963,
      "d": 2857.140000000014,
      "v": 100
    },
    {
      "midi": 52,
      "hit": false,
      "t": 197142.65999999997,
      "d": 2857.140000000014,
      "v": 100
    },
    {
      "midi": 55,
      "hit": false,
      "t": 197142.65999999997,
      "d": 2857.140000000014,
      "v": 100
    },
    {
      "midi": 60,
      "hit": false,
      "t": 197142.65999999997,
      "d": 2857.140000000014,
      "v": 100
    },
    {
      "midi": 36,
      "hit": false,
      "t": 199999.79999999964,
      "d": 1071.4274999999907,
      "v": 100
    },
    {
      "midi": 52,
      "hit": false,
      "t": 199999.8,
      "d": 1785.7124999999942,
      "v": 100
    },
    {
      "midi": 55,
      "hit": false,
      "t": 199999.8,
      "d": 1785.7124999999942,
      "v": 100
    },
    {
      "midi": 60,
      "hit": false,
      "t": 199999.8,
      "d": 1785.7124999999942,
      "v": 100
    },
    {
      "midi": 36,
      "hit": false,
      "t": 201071.22749999963,
      "d": 357.1424999999872,
      "v": 100
    },
    {
      "midi": 36,
      "hit": false,
      "t": 201428.36999999962,
      "d": 1428.570000000007,
      "v": 100
    },
    {
      "midi": 60,
      "hit": false,
      "t": 201785.51249999998,
      "d": 357.1424999999872,
      "v": 100
    },
    {
      "midi": 64,
      "hit": false,
      "t": 202142.65499999997,
      "d": 357.1424999999872,
      "v": 100
    },
    {
      "midi": 67,
      "hit": false,
      "t": 202499.79749999996,
      "d": 357.1424999999872,
      "v": 100
    },
    {
      "midi": 38,
      "hit": false,
      "t": 202856.93999999962,
      "d": 1428.570000000007,
      "v": 100
    },
    {
      "midi": 57,
      "hit": false,
      "t": 202856.93999999994,
      "d": 1428.570000000007,
      "v": 100
    },
    {
      "midi": 60,
      "hit": false,
      "t": 202856.93999999994,
      "d": 1428.570000000007,
      "v": 100
    },
    {
      "midi": 65,
      "hit": false,
      "t": 202856.93999999994,
      "d": 1428.570000000007,
      "v": 100
    },
    {
      "midi": 40,
      "hit": false,
      "t": 204285.50999999963,
      "d": 1428.570000000007,
      "v": 100
    },
    {
      "midi": 55,
      "hit": false,
      "t": 204285.50999999995,
      "d": 1428.570000000007,
      "v": 100
    },
    {
      "midi": 60,
      "hit": false,
      "t": 204285.50999999995,
      "d": 1428.570000000007,
      "v": 100
    },
    {
      "midi": 64,
      "hit": false,
      "t": 204285.50999999995,
      "d": 1428.570000000007,
      "v": 100
    },
    {
      "midi": 41,
      "hit": false,
      "t": 205714.07999999964,
      "d": 1428.570000000007,
      "v": 100
    },
    {
      "midi": 55,
      "hit": false,
      "t": 205714.07999999996,
      "d": 1428.570000000007,
      "v": 100
    },
    {
      "midi": 60,
      "hit": false,
      "t": 205714.07999999996,
      "d": 1428.570000000007,
      "v": 100
    },
    {
      "midi": 62,
      "hit": false,
      "t": 205714.07999999996,
      "d": 1428.570000000007,
      "v": 100
    },
    {
      "midi": 43,
      "hit": false,
      "t": 207142.64999999964,
      "d": 1428.570000000007,
      "v": 100
    },
    {
      "midi": 60,
      "hit": false,
      "t": 207142.64999999997,
      "d": 714.2850000000035,
      "v": 100
    },
    {
      "midi": 55,
      "hit": false,
      "t": 207142.64999999997,
      "d": 1428.570000000007,
      "v": 100
    },
    {
      "midi": 62,
      "hit": false,
      "t": 207142.64999999997,
      "d": 1428.570000000007,
      "v": 100
    },
    {
      "midi": 59,
      "hit": false,
      "t": 207856.93499999997,
      "d": 714.2850000000035,
      "v": 100
    },
    {
      "midi": 38,
      "hit": false,
      "t": 208571.21999999965,
      "d": 1428.570000000007,
      "v": 100
    },
    {
      "midi": 57,
      "hit": false,
      "t": 208571.21999999997,
      "d": 1428.570000000007,
      "v": 100
    },
    {
      "midi": 60,
      "hit": false,
      "t": 208571.21999999997,
      "d": 1428.570000000007,
      "v": 100
    },
    {
      "midi": 65,
      "hit": false,
      "t": 208571.21999999997,
      "d": 1428.570000000007,
      "v": 100
    },
    {
      "midi": 40,
      "hit": false,
      "t": 209999.78999999966,
      "d": 1428.570000000007,
      "v": 100
    },
    {
      "midi": 55,
      "hit": false,
      "t": 209999.78999999998,
      "d": 1428.570000000007,
      "v": 100
    },
    {
      "midi": 60,
      "hit": false,
      "t": 209999.78999999998,
      "d": 1428.570000000007,
      "v": 100
    },
    {
      "midi": 64,
      "hit": false,
      "t": 209999.78999999998,
      "d": 1428.570000000007,
      "v": 100
    },
    {
      "midi": 41,
      "hit": false,
      "t": 211428.35999999967,
      "d": 1428.570000000007,
      "v": 100
    },
    {
      "midi": 55,
      "hit": false,
      "t": 211428.36,
      "d": 1071.4274999999907,
      "v": 100
    },
    {
      "midi": 60,
      "hit": false,
      "t": 211428.36,
      "d": 1071.4274999999907,
      "v": 100
    },
    {
      "midi": 62,
      "hit": false,
      "t": 211428.36,
      "d": 1071.4274999999907,
      "v": 100
    },
    {
      "midi": 67,
      "hit": false,
      "t": 212499.78749999998,
      "d": 357.1424999999872,
      "v": 100
    },
    {
      "midi": 43,
      "hit": false,
      "t": 212856.92999999967,
      "d": 1071.4274999999907,
      "v": 100
    },
    {
      "midi": 60,
      "hit": false,
      "t": 212856.92999999996,
      "d": 714.2850000000035,
      "v": 100
    },
    {
      "midi": 62,
      "hit": false,
      "t": 212856.92999999996,
      "d": 1428.570000000007,
      "v": 100
    },
    {
      "midi": 67,
      "hit": false,
      "t": 212856.92999999996,
      "d": 1428.570000000007,
      "v": 100
    },
    {
      "midi": 59,
      "hit": false,
      "t": 213571.21499999997,
      "d": 714.2850000000035,
      "v": 100
    },
    {
      "midi": 31,
      "hit": false,
      "t": 213928.35749999966,
      "d": 357.1424999999872,
      "v": 100
    },
    {
      "midi": 33,
      "hit": false,
      "t": 214285.49999999965,
      "d": 1071.4274999999907,
      "v": 100
    },
    {
      "midi": 53,
      "hit": false,
      "t": 214285.49999999997,
      "d": 1428.570000000007,
      "v": 100
    },
    {
      "midi": 55,
      "hit": false,
      "t": 214285.49999999997,
      "d": 1428.570000000007,
      "v": 100
    },
    {
      "midi": 60,
      "hit": false,
      "t": 214285.49999999997,
      "d": 1428.570000000007,
      "v": 100
    },
    {
      "midi": 33,
      "hit": false,
      "t": 215356.92749999964,
      "d": 357.1424999999872,
      "v": 100
    },
    {
      "midi": 35,
      "hit": false,
      "t": 215714.06999999963,
      "d": 1428.570000000007,
      "v": 100
    },
    {
      "midi": 55,
      "hit": false,
      "t": 215714.06999999998,
      "d": 1428.570000000007,
      "v": 100
    },
    {
      "midi": 57,
      "hit": false,
      "t": 215714.06999999998,
      "d": 1428.570000000007,
      "v": 100
    },
    {
      "midi": 62,
      "hit": false,
      "t": 215714.06999999998,
      "d": 1428.570000000007,
      "v": 100
    },
    {
      "midi": 36,
      "hit": false,
      "t": 217142.63999999964,
      "d": 1428.570000000007,
      "v": 100
    },
    {
      "midi": 64,
      "hit": false,
      "t": 217142.63999999998,
      "d": 714.2850000000035,
      "v": 100
    },
    {
      "midi": 55,
      "hit": false,
      "t": 217142.63999999998,
      "d": 1428.570000000007,
      "v": 100
    },
    {
      "midi": 60,
      "hit": false,
      "t": 217142.63999999998,
      "d": 1428.570000000007,
      "v": 100
    },
    {
      "midi": 67,
      "hit": false,
      "t": 217856.925,
      "d": 714.2850000000035,
      "v": 100
    },
    {
      "midi": 45,
      "hit": false,
      "t": 218571.20999999964,
      "d": 2857.140000000014,
      "v": 100
    },
    {
      "midi": 53,
      "hit": false,
      "t": 218571.21,
      "d": 2857.140000000014,
      "v": 100
    },
    {
      "midi": 55,
      "hit": false,
      "t": 218571.21,
      "d": 2857.140000000014,
      "v": 100
    },
    {
      "midi": 60,
      "hit": false,
      "t": 218571.21,
      "d": 2857.140000000014,
      "v": 100
    },
    {
      "midi": 43,
      "hit": false,
      "t": 221428.34999999966,
      "d": 2857.140000000014,
      "v": 100
    },
    {
      "midi": 53,
      "hit": false,
      "t": 221428.35,
      "d": 2857.140000000014,
      "v": 100
    },
    {
      "midi": 57,
      "hit": false,
      "t": 221428.35,
      "d": 2857.140000000014,
      "v": 100
    },
    {
      "midi": 60,
      "hit": false,
      "t": 221428.35,
      "d": 2857.140000000014,
      "v": 100
    },
    {
      "midi": 36,
      "hit": false,
      "t": 224285.48999999967,
      "d": 2857.139999999985,
      "v": 100
    },
    {
      "midi": 65,
      "hit": false,
      "t": 224285.49000000002,
      "d": 714.2850000000035,
      "v": 100
    },
    {
      "midi": 67,
      "hit": false,
      "t": 224285.49000000002,
      "d": 714.2850000000035,
      "v": 100
    },
    {
      "midi": 74,
      "hit": false,
      "t": 224285.49000000002,
      "d": 714.2850000000035,
      "v": 100
    },
    {
      "midi": 48,
      "hit": false,
      "t": 224642.63249999966,
      "d": 714.2850000000035,
      "v": 100
    },
    {
      "midi": 65,
      "hit": false,
      "t": 224999.77500000002,
      "d": 714.2850000000035,
      "v": 100
    },
    {
      "midi": 67,
      "hit": false,
      "t": 224999.77500000002,
      "d": 714.2850000000035,
      "v": 100
    },
    {
      "midi": 74,
      "hit": false,
      "t": 224999.77500000002,
      "d": 714.2850000000035,
      "v": 100
    },
    {
      "midi": 48,
      "hit": false,
      "t": 225356.91749999966,
      "d": 714.2850000000035,
      "v": 100
    },
    {
      "midi": 64,
      "hit": false,
      "t": 225714.06000000003,
      "d": 714.2850000000035,
      "v": 100
    },
    {
      "midi": 67,
      "hit": false,
      "t": 225714.06000000003,
      "d": 714.2850000000035,
      "v": 100
    },
    {
      "midi": 72,
      "hit": false,
      "t": 225714.06000000003,
      "d": 714.2850000000035,
      "v": 100
    },
    {
      "midi": 48,
      "hit": false,
      "t": 226071.20249999966,
      "d": 714.2850000000035,
      "v": 100
    },
    {
      "midi": 67,
      "hit": false,
      "t": 226428.34500000003,
      "d": 714.2850000000035,
      "v": 100
    },
    {
      "midi": 48,
      "hit": false,
      "t": 226785.48749999967,
      "d": 357.1424999999872,
      "v": 100
    },
    {
      "midi": 36,
      "hit": false,
      "t": 227142.62999999966,
      "d": 2857.139999999985,
      "v": 100
    },
    {
      "midi": 65,
      "hit": false,
      "t": 227142.63000000003,
      "d": 714.2850000000035,
      "v": 100
    },
    {
      "midi": 67,
      "hit": false,
      "t": 227142.63000000003,
      "d": 714.2850000000035,
      "v": 100
    },
    {
      "midi": 74,
      "hit": false,
      "t": 227142.63000000003,
      "d": 714.2850000000035,
      "v": 100
    },
    {
      "midi": 48,
      "hit": false,
      "t": 227499.77249999964,
      "d": 714.2850000000035,
      "v": 100
    },
    {
      "midi": 65,
      "hit": false,
      "t": 227856.91500000004,
      "d": 714.2850000000035,
      "v": 100
    },
    {
      "midi": 67,
      "hit": false,
      "t": 227856.91500000004,
      "d": 714.2850000000035,
      "v": 100
    },
    {
      "midi": 74,
      "hit": false,
      "t": 227856.91500000004,
      "d": 714.2850000000035,
      "v": 100
    },
    {
      "midi": 48,
      "hit": false,
      "t": 228214.05749999965,
      "d": 714.2850000000035,
      "v": 100
    },
    {
      "midi": 64,
      "hit": false,
      "t": 228571.20000000004,
      "d": 714.2850000000035,
      "v": 100
    },
    {
      "midi": 67,
      "hit": false,
      "t": 228571.20000000004,
      "d": 714.2850000000035,
      "v": 100
    },
    {
      "midi": 72,
      "hit": false,
      "t": 228571.20000000004,
      "d": 714.2850000000035,
      "v": 100
    },
    {
      "midi": 48,
      "hit": false,
      "t": 228928.34249999965,
      "d": 714.2850000000035,
      "v": 100
    },
    {
      "midi": 67,
      "hit": false,
      "t": 229285.48500000004,
      "d": 357.1424999999872,
      "v": 100
    },
    {
      "midi": 48,
      "hit": false,
      "t": 229642.62749999965,
      "d": 357.1424999999872,
      "v": 100
    },
    {
      "midi": 76,
      "hit": false,
      "t": 229642.62750000003,
      "d": 357.1424999999872,
      "v": 100
    },
    {
      "midi": 36,
      "hit": false,
      "t": 229999.76999999964,
      "d": 2857.139999999985,
      "v": 100
    },
    {
      "midi": 65,
      "hit": false,
      "t": 229999.77000000002,
      "d": 714.2850000000035,
      "v": 100
    },
    {
      "midi": 67,
      "hit": false,
      "t": 229999.77000000002,
      "d": 714.2850000000035,
      "v": 100
    },
    {
      "midi": 74,
      "hit": false,
      "t": 229999.77000000002,
      "d": 714.2850000000035,
      "v": 100
    },
    {
      "midi": 48,
      "hit": false,
      "t": 230356.91249999963,
      "d": 714.2850000000035,
      "v": 100
    },
    {
      "midi": 65,
      "hit": false,
      "t": 230714.05500000002,
      "d": 714.2850000000035,
      "v": 100
    },
    {
      "midi": 67,
      "hit": false,
      "t": 230714.05500000002,
      "d": 714.2850000000035,
      "v": 100
    },
    {
      "midi": 74,
      "hit": false,
      "t": 230714.05500000002,
      "d": 714.2850000000035,
      "v": 100
    },
    {
      "midi": 48,
      "hit": false,
      "t": 231071.19749999963,
      "d": 714.2850000000035,
      "v": 100
    },
    {
      "midi": 64,
      "hit": false,
      "t": 231428.34000000003,
      "d": 714.2850000000035,
      "v": 100
    },
    {
      "midi": 67,
      "hit": false,
      "t": 231428.34000000003,
      "d": 714.2850000000035,
      "v": 100
    },
    {
      "midi": 72,
      "hit": false,
      "t": 231428.34000000003,
      "d": 714.2850000000035,
      "v": 100
    },
    {
      "midi": 48,
      "hit": false,
      "t": 231785.48249999963,
      "d": 714.2850000000035,
      "v": 100
    },
    {
      "midi": 67,
      "hit": false,
      "t": 232142.62500000003,
      "d": 714.2850000000035,
      "v": 100
    },
    {
      "midi": 48,
      "hit": false,
      "t": 232499.76749999964,
      "d": 357.1424999999872,
      "v": 100
    },
    {
      "midi": 36,
      "hit": false,
      "t": 232856.90999999963,
      "d": 1428.5699999999779,
      "v": 100
    },
    {
      "midi": 62,
      "hit": false,
      "t": 232856.91000000003,
      "d": 714.2850000000035,
      "v": 100
    },
    {
      "midi": 67,
      "hit": false,
      "t": 232856.91000000003,
      "d": 714.2850000000035,
      "v": 100
    },
    {
      "midi": 71,
      "hit": false,
      "t": 232856.91000000003,
      "d": 714.2850000000035,
      "v": 100
    },
    {
      "midi": 48,
      "hit": false,
      "t": 233214.0524999996,
      "d": 714.2850000000035,
      "v": 100
    },
    {
      "midi": 62,
      "hit": false,
      "t": 233571.19500000004,
      "d": 714.2850000000035,
      "v": 100
    },
    {
      "midi": 67,
      "hit": false,
      "t": 233571.19500000004,
      "d": 714.2850000000035,
      "v": 100
    },
    {
      "midi": 71,
      "hit": false,
      "t": 233571.19500000004,
      "d": 714.2850000000035,
      "v": 100
    },
    {
      "midi": 48,
      "hit": false,
      "t": 233928.33749999962,
      "d": 357.1424999999872,
      "v": 100
    },
    {
      "midi": 45,
      "hit": false,
      "t": 234285.4799999996,
      "d": 1071.4274999999907,
      "v": 100
    },
    {
      "midi": 62,
      "hit": false,
      "t": 234285.48000000004,
      "d": 714.2850000000035,
      "v": 100
    },
    {
      "midi": 64,
      "hit": false,
      "t": 234285.48000000004,
      "d": 714.2850000000035,
      "v": 100
    },
    {
      "midi": 71,
      "hit": false,
      "t": 234285.48000000004,
      "d": 714.2850000000035,
      "v": 100
    },
    {
      "midi": 60,
      "hit": false,
      "t": 234999.76500000004,
      "d": 1428.570000000007,
      "v": 100
    },
    {
      "midi": 64,
      "hit": false,
      "t": 234999.76500000004,
      "d": 1428.570000000007,
      "v": 100
    },
    {
      "midi": 69,
      "hit": false,
      "t": 234999.76500000004,
      "d": 1428.570000000007,
      "v": 100
    },
    {
      "midi": 45,
      "hit": false,
      "t": 235356.9074999996,
      "d": 357.1424999999872,
      "v": 100
    },
    {
      "midi": 43,
      "hit": false,
      "t": 235714.04999999958,
      "d": 1071.4274999999907,
      "v": 100
    },
    {
      "midi": 59,
      "hit": false,
      "t": 236428.33500000005,
      "d": 714.2850000000035,
      "v": 100
    },
    {
      "midi": 67,
      "hit": false,
      "t": 236428.33500000005,
      "d": 714.2850000000035,
      "v": 100
    },
    {
      "midi": 43,
      "hit": false,
      "t": 236785.47749999957,
      "d": 357.1424999999872,
      "v": 100
    },
    {
      "midi": 41,
      "hit": false,
      "t": 237142.61999999956,
      "d": 357.1424999999872,
      "v": 100
    },
    {
      "midi": 60,
      "hit": false,
      "t": 237142.62000000005,
      "d": 1071.4274999999907,
      "v": 100
    },
    {
      "midi": 48,
      "hit": false,
      "t": 237499.76249999955,
      "d": 357.1424999999872,
      "v": 100
    },
    {
      "midi": 55,
      "hit": false,
      "t": 237856.90499999953,
      "d": 357.1424999999872,
      "v": 100
    },
    {
      "midi": 57,
      "hit": false,
      "t": 238214.04749999952,
      "d": 714.2850000000035,
      "v": 100
    },
    {
      "midi": 65,
      "hit": false,
      "t": 238214.04750000004,
      "d": 1071.4274999999907,
      "v": 100
    },
    {
      "midi": 55,
      "hit": false,
      "t": 238928.33249999952,
      "d": 357.1424999999872,
      "v": 100
    },
    {
      "midi": 53,
      "hit": false,
      "t": 239285.4749999995,
      "d": 357.1424999999872,
      "v": 100
    },
    {
      "midi": 72,
      "hit": false,
      "t": 239285.47500000003,
      "d": 714.2850000000035,
      "v": 100
    },
    {
      "midi": 48,
      "hit": false,
      "t": 239642.6174999995,
      "d": 357.1424999999872,
      "v": 100
    },
    {
      "midi": 40,
      "hit": false,
      "t": 239999.75999999949,
      "d": 357.1424999999872,
      "v": 100
    },
    {
      "midi": 72,
      "hit": false,
      "t": 239999.76000000004,
      "d": 1428.570000000007,
      "v": 100
    },
    {
      "midi": 48,
      "hit": false,
      "t": 240356.90249999947,
      "d": 357.1424999999872,
      "v": 100
    },
    {
      "midi": 55,
      "hit": false,
      "t": 240714.04499999946,
      "d": 357.1424999999872,
      "v": 100
    },
    {
      "midi": 60,
      "hit": false,
      "t": 241071.18749999945,
      "d": 1785.7124999999942,
      "v": 100
    },
    {
      "midi": 84,
      "hit": false,
      "t": 241428.33000000005,
      "d": 357.1424999999872,
      "v": 100
    },
    {
      "midi": 83,
      "hit": false,
      "t": 241785.47250000003,
      "d": 357.1424999999872,
      "v": 100
    },
    {
      "midi": 81,
      "hit": false,
      "t": 242142.61500000002,
      "d": 357.1424999999872,
      "v": 100
    },
    {
      "midi": 79,
      "hit": false,
      "t": 242499.7575,
      "d": 357.1424999999872,
      "v": 100
    },
    {
      "midi": 41,
      "hit": false,
      "t": 242856.89999999944,
      "d": 357.1424999999872,
      "v": 100
    },
    {
      "midi": 79,
      "hit": false,
      "t": 242856.9,
      "d": 178.57125000000815,
      "v": 100
    },
    {
      "midi": 81,
      "hit": false,
      "t": 242856.9,
      "d": 1071.4275000000198,
      "v": 100
    },
    {
      "midi": 48,
      "hit": false,
      "t": 243214.04249999943,
      "d": 357.1424999999872,
      "v": 100
    },
    {
      "midi": 52,
      "hit": false,
      "t": 243571.18499999942,
      "d": 357.1424999999872,
      "v": 100
    },
    {
      "midi": 57,
      "hit": false,
      "t": 243928.3274999994,
      "d": 714.2850000000035,
      "v": 100
    },
    {
      "midi": 72,
      "hit": false,
      "t": 243928.3275,
      "d": 714.2850000000035,
      "v": 100
    },
    {
      "midi": 55,
      "hit": false,
      "t": 244642.6124999994,
      "d": 357.1424999999872,
      "v": 100
    },
    {
      "midi": 69,
      "hit": false,
      "t": 244642.61250000002,
      "d": 714.2850000000035,
      "v": 100
    },
    {
      "midi": 53,
      "hit": false,
      "t": 244999.7549999994,
      "d": 357.1424999999872,
      "v": 100
    },
    {
      "midi": 48,
      "hit": false,
      "t": 245356.89749999938,
      "d": 357.1424999999872,
      "v": 100
    },
    {
      "midi": 65,
      "hit": false,
      "t": 245356.89750000002,
      "d": 178.57125000000815,
      "v": 100
    },
    {
      "midi": 64,
      "hit": false,
      "t": 245535.46875000003,
      "d": 178.57125000000815,
      "v": 100
    },
    {
      "midi": 40,
      "hit": false,
      "t": 245714.03999999937,
      "d": 357.1424999999872,
      "v": 100
    },
    {
      "midi": 62,
      "hit": false,
      "t": 245714.04000000004,
      "d": 1428.570000000007,
      "v": 100
    },
    {
      "midi": 48,
      "hit": false,
      "t": 246071.18249999936,
      "d": 357.1424999999872,
      "v": 100
    },
    {
      "midi": 55,
      "hit": false,
      "t": 246428.32499999934,
      "d": 357.1424999999872,
      "v": 100
    },
    {
      "midi": 60,
      "hit": false,
      "t": 246785.46749999933,
      "d": 1785.7124999999942,
      "v": 100
    },
    {
      "midi": 64,
      "hit": false,
      "t": 247142.61000000004,
      "d": 714.2850000000035,
      "v": 100
    },
    {
      "midi": 72,
      "hit": false,
      "t": 247142.61000000004,
      "d": 714.2850000000035,
      "v": 100
    },
    {
      "midi": 62,
      "hit": false,
      "t": 247856.89500000005,
      "d": 714.2850000000035,
      "v": 100
    },
    {
      "midi": 71,
      "hit": false,
      "t": 247856.89500000005,
      "d": 714.2850000000035,
      "v": 100
    },
    {
      "midi": 45,
      "hit": false,
      "t": 248571.17999999932,
      "d": 1428.570000000007,
      "v": 100
    },
    {
      "midi": 60,
      "hit": false,
      "t": 248571.18000000005,
      "d": 714.2850000000035,
      "v": 100
    },
    {
      "midi": 65,
      "hit": false,
      "t": 248571.18000000005,
      "d": 714.2850000000035,
      "v": 100
    },
    {
      "midi": 69,
      "hit": false,
      "t": 248571.18000000005,
      "d": 714.2850000000035,
      "v": 100
    },
    {
      "midi": 53,
      "hit": false,
      "t": 249285.46500000005,
      "d": 357.1424999999872,
      "v": 100
    },
    {
      "midi": 60,
      "hit": false,
      "t": 249642.60750000004,
      "d": 357.1424999999872,
      "v": 100
    },
    {
      "midi": 47,
      "hit": false,
      "t": 249999.74999999933,
      "d": 1428.570000000007,
      "v": 100
    },
    {
      "midi": 55,
      "hit": false,
      "t": 249999.75000000003,
      "d": 714.2850000000035,
      "v": 100
    },
    {
      "midi": 57,
      "hit": false,
      "t": 249999.75000000003,
      "d": 714.2850000000035,
      "v": 100
    },
    {
      "midi": 62,
      "hit": false,
      "t": 249999.75000000003,
      "d": 714.2850000000035,
      "v": 100
    },
    {
      "midi": 62,
      "hit": false,
      "t": 250714.03500000003,
      "d": 357.1424999999872,
      "v": 100
    },
    {
      "midi": 67,
      "hit": false,
      "t": 251071.17750000002,
      "d": 357.1424999999872,
      "v": 100
    },
    {
      "midi": 48,
      "hit": false,
      "t": 251428.31999999934,
      "d": 357.1424999999872,
      "v": 100
    },
    {
      "midi": 62,
      "hit": false,
      "t": 251428.32,
      "d": 178.57125000000815,
      "v": 100
    },
    {
      "midi": 64,
      "hit": false,
      "t": 251428.32,
      "d": 714.2850000000035,
      "v": 100
    },
    {
      "midi": 67,
      "hit": false,
      "t": 251428.32,
      "d": 714.2850000000035,
      "v": 100
    },
    {
      "midi": 43,
      "hit": false,
      "t": 251785.46249999932,
      "d": 357.1424999999872,
      "v": 100
    },
    {
      "midi": 36,
      "hit": false,
      "t": 252142.6049999993,
      "d": 714.2850000000035,
      "v": 100
    },
    {
      "midi": 60,
      "hit": false,
      "t": 252142.605,
      "d": 357.1424999999872,
      "v": 100
    },
    {
      "midi": 67,
      "hit": false,
      "t": 252499.7475,
      "d": 357.1424999999872,
      "v": 100
    },
    {
      "midi": 38,
      "hit": false,
      "t": 252856.88999999932,
      "d": 357.1424999999872,
      "v": 100
    },
    {
      "midi": 62,
      "hit": false,
      "t": 252856.88999999998,
      "d": 714.2850000000035,
      "v": 100
    },
    {
      "midi": 67,
      "hit": false,
      "t": 252856.88999999998,
      "d": 714.2850000000035,
      "v": 100
    },
    {
      "midi": 69,
      "hit": false,
      "t": 252856.88999999998,
      "d": 714.2850000000035,
      "v": 100
    },
    {
      "midi": 74,
      "hit": false,
      "t": 252856.88999999998,
      "d": 714.2850000000035,
      "v": 100
    },
    {
      "midi": 45,
      "hit": false,
      "t": 253214.0324999993,
      "d": 357.1424999999872,
      "v": 100
    },
    {
      "midi": 50,
      "hit": false,
      "t": 253571.1749999993,
      "d": 2142.8550000000105,
      "v": 100
    },
    {
      "midi": 55,
      "hit": false,
      "t": 253571.175,
      "d": 357.1424999999872,
      "v": 100
    },
    {
      "midi": 62,
      "hit": false,
      "t": 253928.31749999998,
      "d": 1785.7124999999942,
      "v": 100
    },
    {
      "midi": 54,
      "hit": false,
      "t": 254285.45999999996,
      "d": 1428.570000000007,
      "v": 100
    },
    {
      "midi": 29,
      "hit": false,
      "t": 255714.0299999993,
      "d": 1071.4274999999907,
      "v": 100
    },
    {
      "midi": 41,
      "hit": false,
      "t": 255714.0299999993,
      "d": 1071.4274999999907,
      "v": 100
    },
    {
      "midi": 53,
      "hit": false,
      "t": 255714.02999999997,
      "d": 1785.7124999999942,
      "v": 100
    },
    {
      "midi": 55,
      "hit": false,
      "t": 255714.02999999997,
      "d": 1785.7124999999942,
      "v": 100
    },
    {
      "midi": 60,
      "hit": false,
      "t": 255714.02999999997,
      "d": 1785.7124999999942,
      "v": 100
    },
    {
      "midi": 41,
      "hit": false,
      "t": 256785.4574999993,
      "d": 357.1424999999872,
      "v": 100
    },
    {
      "midi": 41,
      "hit": false,
      "t": 257142.59999999928,
      "d": 1428.570000000007,
      "v": 100
    },
    {
      "midi": 53,
      "hit": false,
      "t": 257499.74249999996,
      "d": 357.1424999999872,
      "v": 100
    },
    {
      "midi": 55,
      "hit": false,
      "t": 257856.88499999995,
      "d": 357.1424999999872,
      "v": 100
    },
    {
      "midi": 60,
      "hit": false,
      "t": 258214.02749999994,
      "d": 357.1424999999872,
      "v": 100
    },
    {
      "midi": 31,
      "hit": false,
      "t": 258571.16999999929,
      "d": 1071.4274999999907,
      "v": 100
    },
    {
      "midi": 53,
      "hit": false,
      "t": 258571.16999999993,
      "d": 1785.7124999999942,
      "v": 100
    },
    {
      "midi": 55,
      "hit": false,
      "t": 258571.16999999993,
      "d": 1785.7124999999942,
      "v": 100
    },
    {
      "midi": 60,
      "hit": false,
      "t": 258571.16999999993,
      "d": 1785.7124999999942,
      "v": 100
    },
    {
      "midi": 62,
      "hit": false,
      "t": 258571.16999999993,
      "d": 1785.7124999999942,
      "v": 100
    },
    {
      "midi": 31,
      "hit": false,
      "t": 259642.59749999928,
      "d": 357.1424999999872,
      "v": 100
    },
    {
      "midi": 31,
      "hit": false,
      "t": 259999.73999999926,
      "d": 1428.570000000007,
      "v": 100
    },
    {
      "midi": 64,
      "hit": false,
      "t": 260356.88249999992,
      "d": 714.2850000000035,
      "v": 127
    },
    {
      "midi": 72,
      "hit": false,
      "t": 260356.88249999992,
      "d": 714.2850000000035,
      "v": 127
    },
    {
      "midi": 62,
      "hit": false,
      "t": 261071.16749999992,
      "d": 357.1424999999872,
      "v": 127
    },
    {
      "midi": 71,
      "hit": false,
      "t": 261071.16749999992,
      "d": 357.1424999999872,
      "v": 127
    },
    {
      "midi": 33,
      "hit": false,
      "t": 261428.30999999927,
      "d": 1071.4275000000198,
      "v": 100
    },
    {
      "midi": 60,
      "hit": false,
      "t": 261428.3099999999,
      "d": 714.2850000000035,
      "v": 100
    },
    {
      "midi": 65,
      "hit": false,
      "t": 261428.3099999999,
      "d": 714.2850000000035,
      "v": 100
    },
    {
      "midi": 67,
      "hit": false,
      "t": 261428.3099999999,
      "d": 714.2850000000035,
      "v": 100
    },
    {
      "midi": 72,
      "hit": false,
      "t": 261428.3099999999,
      "d": 714.2850000000035,
      "v": 100
    },
    {
      "midi": 60,
      "hit": false,
      "t": 262142.5949999999,
      "d": 357.1425000000163,
      "v": 100
    },
    {
      "midi": 67,
      "hit": false,
      "t": 262142.5949999999,
      "d": 357.1425000000163,
      "v": 100
    },
    {
      "midi": 33,
      "hit": false,
      "t": 262499.7374999993,
      "d": 357.1425000000163,
      "v": 100
    },
    {
      "midi": 60,
      "hit": false,
      "t": 262499.73749999993,
      "d": 714.2849999999744,
      "v": 100
    },
    {
      "midi": 67,
      "hit": false,
      "t": 262499.73749999993,
      "d": 714.2849999999744,
      "v": 100
    },
    {
      "midi": 33,
      "hit": false,
      "t": 262856.8799999993,
      "d": 1428.570000000007,
      "v": 100
    },
    {
      "midi": 60,
      "hit": false,
      "t": 263214.0224999999,
      "d": 357.1425000000163,
      "v": 100
    },
    {
      "midi": 67,
      "hit": false,
      "t": 263571.1649999999,
      "d": 357.1425000000163,
      "v": 100
    },
    {
      "midi": 72,
      "hit": false,
      "t": 263928.30749999994,
      "d": 357.1425000000163,
      "v": 100
    },
    {
      "midi": 35,
      "hit": false,
      "t": 264285.4499999993,
      "d": 1071.4274999999907,
      "v": 100
    },
    {
      "midi": 62,
      "hit": false,
      "t": 264285.44999999995,
      "d": 2142.8549999999814,
      "v": 100
    },
    {
      "midi": 67,
      "hit": false,
      "t": 264285.44999999995,
      "d": 2142.8549999999814,
      "v": 100
    },
    {
      "midi": 74,
      "hit": false,
      "t": 264285.44999999995,
      "d": 2142.8549999999814,
      "v": 100
    },
    {
      "midi": 35,
      "hit": false,
      "t": 265356.8774999993,
      "d": 357.1425000000163,
      "v": 100
    },
    {
      "midi": 35,
      "hit": false,
      "t": 265714.0199999993,
      "d": 1428.570000000007,
      "v": 100
    },
    {
      "midi": 67,
      "hit": false,
      "t": 266428.30499999993,
      "d": 714.2849999999744,
      "v": 100
    },
    {
      "midi": 44,
      "hit": false,
      "t": 267142.5899999993,
      "d": 357.1425000000163,
      "v": 100
    },
    {
      "midi": 70,
      "hit": false,
      "t": 267142.5899999999,
      "d": 1071.4274999999907,
      "v": 100
    },
    {
      "midi": 72,
      "hit": false,
      "t": 267142.5899999999,
      "d": 1071.4274999999907,
      "v": 100
    },
    {
      "midi": 79,
      "hit": false,
      "t": 267142.5899999999,
      "d": 1071.4274999999907,
      "v": 100
    },
    {
      "midi": 51,
      "hit": false,
      "t": 267499.73249999934,
      "d": 357.1425000000163,
      "v": 100
    },
    {
      "midi": 55,
      "hit": false,
      "t": 267856.87499999936,
      "d": 357.1425000000163,
      "v": 100
    },
    {
      "midi": 58,
      "hit": false,
      "t": 268214.0174999994,
      "d": 357.1425000000163,
      "v": 100
    },
    {
      "midi": 77,
      "hit": false,
      "t": 268214.0174999999,
      "d": 1428.570000000007,
      "v": 100
    },
    {
      "midi": 60,
      "hit": false,
      "t": 268571.1599999994,
      "d": 714.2849999999744,
      "v": 100
    },
    {
      "midi": 60,
      "hit": false,
      "t": 269285.44499999937,
      "d": 714.2849999999744,
      "v": 100
    },
    {
      "midi": 76,
      "hit": false,
      "t": 269285.4449999999,
      "d": 357.1425000000163,
      "v": 100
    },
    {
      "midi": 79,
      "hit": false,
      "t": 269642.5874999999,
      "d": 178.57124999997905,
      "v": 100
    },
    {
      "midi": 77,
      "hit": false,
      "t": 269821.1587499999,
      "d": 178.57124999997905,
      "v": 100
    },
    {
      "midi": 55,
      "hit": false,
      "t": 269999.72999999934,
      "d": 1428.570000000007,
      "v": 100
    },
    {
      "midi": 64,
      "hit": false,
      "t": 269999.72999999934,
      "d": 1428.570000000007,
      "v": 100
    },
    {
      "midi": 67,
      "hit": false,
      "t": 269999.72999999986,
      "d": 357.1425000000163,
      "v": 100
    },
    {
      "midi": 72,
      "hit": false,
      "t": 269999.72999999986,
      "d": 357.1425000000163,
      "v": 100
    },
    {
      "midi": 74,
      "hit": false,
      "t": 269999.72999999986,
      "d": 357.1425000000163,
      "v": 100
    },
    {
      "midi": 79,
      "hit": false,
      "t": 269999.72999999986,
      "d": 357.1425000000163,
      "v": 100
    },
    {
      "midi": 79,
      "hit": false,
      "t": 270356.8724999999,
      "d": 357.1425000000163,
      "v": 100
    },
    {
      "midi": 84,
      "hit": false,
      "t": 270714.0149999999,
      "d": 357.1425000000163,
      "v": 100
    },
    {
      "midi": 86,
      "hit": false,
      "t": 271071.1574999999,
      "d": 357.1425000000163,
      "v": 100
    },
    {
      "midi": 43,
      "hit": false,
      "t": 271428.29999999935,
      "d": 2857.140000000014,
      "v": 100
    },
    {
      "midi": 52,
      "hit": false,
      "t": 271428.29999999935,
      "d": 2857.140000000014,
      "v": 100
    },
    {
      "midi": 55,
      "hit": false,
      "t": 271428.29999999935,
      "d": 2857.140000000014,
      "v": 100
    },
    {
      "midi": 79,
      "hit": false,
      "t": 271428.29999999993,
      "d": 2857.140000000014,
      "v": 100
    },
    {
      "midi": 84,
      "hit": false,
      "t": 271428.29999999993,
      "d": 2857.140000000014,
      "v": 100
    },
    {
      "midi": 86,
      "hit": false,
      "t": 271428.29999999993,
      "d": 2857.140000000014,
      "v": 100
    },
    {
      "midi": 91,
      "hit": false,
      "t": 271428.29999999993,
      "d": 2857.140000000014,
      "v": 100
    },
    {
      "midi": 41,
      "hit": false,
      "t": 274285.43999999936,
      "d": 2857.140000000014,
      "v": 100
    },
    {
      "midi": 55,
      "hit": false,
      "t": 274285.43999999994,
      "d": 2857.140000000014,
      "v": 100
    },
    {
      "midi": 57,
      "hit": false,
      "t": 274285.43999999994,
      "d": 2857.140000000014,
      "v": 100
    },
    {
      "midi": 60,
      "hit": false,
      "t": 274285.43999999994,
      "d": 2857.140000000014,
      "v": 100
    },
    {
      "midi": 43,
      "hit": false,
      "t": 277142.5799999994,
      "d": 2857.140000000014,
      "v": 100
    },
    {
      "midi": 53,
      "hit": false,
      "t": 277142.57999999996,
      "d": 2857.140000000014,
      "v": 100
    },
    {
      "midi": 55,
      "hit": false,
      "t": 277142.57999999996,
      "d": 2857.140000000014,
      "v": 100
    },
    {
      "midi": 60,
      "hit": false,
      "t": 277142.57999999996,
      "d": 2857.140000000014,
      "v": 100
    },
    {
      "midi": 48,
      "hit": false,
      "t": 279999.7199999994,
      "d": 2857.1399999999558,
      "v": 100
    },
    {
      "midi": 65,
      "hit": false,
      "t": 279999.72,
      "d": 714.2849999999744,
      "v": 100
    },
    {
      "midi": 67,
      "hit": false,
      "t": 279999.72,
      "d": 714.2849999999744,
      "v": 100
    },
    {
      "midi": 74,
      "hit": false,
      "t": 279999.72,
      "d": 714.2849999999744,
      "v": 100
    },
    {
      "midi": 60,
      "hit": false,
      "t": 280356.8624999994,
      "d": 714.2849999999744,
      "v": 100
    },
    {
      "midi": 65,
      "hit": false,
      "t": 280714.00499999995,
      "d": 714.2849999999744,
      "v": 100
    },
    {
      "midi": 67,
      "hit": false,
      "t": 280714.00499999995,
      "d": 714.2849999999744,
      "v": 100
    },
    {
      "midi": 74,
      "hit": false,
      "t": 280714.00499999995,
      "d": 714.2849999999744,
      "v": 100
    },
    {
      "midi": 60,
      "hit": false,
      "t": 281071.1474999994,
      "d": 714.2849999999744,
      "v": 100
    },
    {
      "midi": 64,
      "hit": false,
      "t": 281428.2899999999,
      "d": 714.2849999999744,
      "v": 100
    },
    {
      "midi": 67,
      "hit": false,
      "t": 281428.2899999999,
      "d": 714.2849999999744,
      "v": 100
    },
    {
      "midi": 72,
      "hit": false,
      "t": 281428.2899999999,
      "d": 714.2849999999744,
      "v": 100
    },
    {
      "midi": 60,
      "hit": false,
      "t": 281785.43249999936,
      "d": 714.2849999999744,
      "v": 100
    },
    {
      "midi": 67,
      "hit": false,
      "t": 282142.5749999999,
      "d": 714.2849999999744,
      "v": 100
    },
    {
      "midi": 60,
      "hit": false,
      "t": 282499.71749999933,
      "d": 357.1425000000163,
      "v": 100
    },
    {
      "midi": 33,
      "hit": false,
      "t": 282856.85999999935,
      "d": 1071.4274999999907,
      "v": 100
    },
    {
      "midi": 67,
      "hit": false,
      "t": 282856.85999999987,
      "d": 714.2849999999744,
      "v": 100
    },
    {
      "midi": 71,
      "hit": false,
      "t": 282856.85999999987,
      "d": 714.2849999999744,
      "v": 100
    },
    {
      "midi": 74,
      "hit": false,
      "t": 282856.85999999987,
      "d": 714.2849999999744,
      "v": 100
    },
    {
      "midi": 67,
      "hit": false,
      "t": 283571.14499999984,
      "d": 714.2849999999744,
      "v": 100
    },
    {
      "midi": 71,
      "hit": false,
      "t": 283571.14499999984,
      "d": 714.2849999999744,
      "v": 100
    },
    {
      "midi": 74,
      "hit": false,
      "t": 283571.14499999984,
      "d": 714.2849999999744,
      "v": 100
    },
    {
      "midi": 33,
      "hit": false,
      "t": 283928.28749999934,
      "d": 357.1425000000163,
      "v": 100
    },
    {
      "midi": 31,
      "hit": false,
      "t": 284285.42999999935,
      "d": 1428.5699999999488,
      "v": 100
    },
    {
      "midi": 60,
      "hit": false,
      "t": 284285.4299999998,
      "d": 1071.4274999999907,
      "v": 100
    },
    {
      "midi": 65,
      "hit": false,
      "t": 284285.4299999998,
      "d": 1071.4274999999907,
      "v": 100
    },
    {
      "midi": 67,
      "hit": false,
      "t": 284285.4299999998,
      "d": 1071.4274999999907,
      "v": 100
    },
    {
      "midi": 72,
      "hit": false,
      "t": 284285.4299999998,
      "d": 1071.4274999999907,
      "v": 100
    },
    {
      "midi": 67,
      "hit": false,
      "t": 285356.8574999998,
      "d": 178.57124999997905,
      "v": 100
    },
    {
      "midi": 65,
      "hit": false,
      "t": 285535.4287499998,
      "d": 178.57124999997905,
      "v": 100
    },
    {
      "midi": 36,
      "hit": false,
      "t": 285664.8929062493,
      "d": 8523.801000000036,
      "v": 100
    },
    {
      "midi": 24,
      "hit": false,
      "t": 285713.9999999993,
      "d": 7142.850000000035,
      "v": 100
    },
    {
      "midi": 43,
      "hit": false,
      "t": 285713.9999999993,
      "d": 8571.420000000042,
      "v": 100
    },
    {
      "midi": 60,
      "hit": false,
      "t": 285713.99999999977,
      "d": 8571.419999999984,
      "v": 100
    },
    {
      "midi": 62,
      "hit": false,
      "t": 285713.99999999977,
      "d": 8571.419999999984,
      "v": 100
    },
    {
      "midi": 67,
      "hit": false,
      "t": 285713.99999999977,
      "d": 8571.419999999984,
      "v": 100
    },
    {
      "midi": 52,
      "hit": false,
      "t": 285758.6428124993,
      "d": 8571.420000000042,
      "v": 100
    }
  ]
}