{
  "jsonPath": "Rock/Dutch Rock/Ruth Jacott/vrede.json",
  "path": "Rock\\Dutch Rock\\Ruth Jacott\\Vrede.mid",
  "name": "Vrede",
  "difficulty": "Advanced",
  "bpm": 103.0000480666891,
  "notes": [
    {
      "midi": 58,
      "hit": false,
      "t": 12244.880000000001,
      "d": 191.32625000000007,
      "v": 83
    },
    {
      "midi": 60,
      "hit": false,
      "t": 12244.880000000001,
      "d": 191.32625000000007,
      "v": 83
    },
    {
      "midi": 63,
      "hit": false,
      "t": 12244.880000000001,
      "d": 191.32625000000007,
      "v": 83
    },
    {
      "midi": 67,
      "hit": false,
      "t": 12244.880000000001,
      "d": 191.32625000000007,
      "v": 83
    },
    {
      "midi": 58,
      "hit": false,
      "t": 12857.124000000002,
      "d": 191.32625000000007,
      "v": 83
    },
    {
      "midi": 60,
      "hit": false,
      "t": 12857.124000000002,
      "d": 191.32625000000007,
      "v": 83
    },
    {
      "midi": 63,
      "hit": false,
      "t": 12857.124000000002,
      "d": 191.32625000000007,
      "v": 83
    },
    {
      "midi": 67,
      "hit": false,
      "t": 12857.124000000002,
      "d": 191.32625000000007,
      "v": 83
    },
    {
      "midi": 58,
      "hit": false,
      "t": 13351.383479166669,
      "d": 306.1219999999994,
      "v": 83
    },
    {
      "midi": 60,
      "hit": false,
      "t": 13351.383479166669,
      "d": 306.1219999999994,
      "v": 83
    },
    {
      "midi": 63,
      "hit": false,
      "t": 13351.383479166669,
      "d": 306.1219999999994,
      "v": 83
    },
    {
      "midi": 67,
      "hit": false,
      "t": 13351.383479166669,
      "d": 309.31077083333184,
      "v": 83
    },
    {
      "midi": 58,
      "hit": false,
      "t": 13775.49,
      "d": 95.66312499999913,
      "v": 83
    },
    {
      "midi": 60,
      "hit": false,
      "t": 13775.49,
      "d": 95.66312499999913,
      "v": 83
    },
    {
      "midi": 63,
      "hit": false,
      "t": 13775.49,
      "d": 95.66312499999913,
      "v": 83
    },
    {
      "midi": 67,
      "hit": false,
      "t": 13775.49,
      "d": 95.66312499999913,
      "v": 83
    },
    {
      "midi": 58,
      "hit": false,
      "t": 14693.856,
      "d": 191.32625000000007,
      "v": 83
    },
    {
      "midi": 62,
      "hit": false,
      "t": 14693.856,
      "d": 191.32625000000007,
      "v": 83
    },
    {
      "midi": 65,
      "hit": false,
      "t": 14693.856,
      "d": 194.51502083333253,
      "v": 83
    },
    {
      "midi": 58,
      "hit": false,
      "t": 15306.099999999999,
      "d": 191.32625000000007,
      "v": 83
    },
    {
      "midi": 62,
      "hit": false,
      "t": 15306.099999999999,
      "d": 191.32625000000007,
      "v": 83
    },
    {
      "midi": 65,
      "hit": false,
      "t": 15306.099999999999,
      "d": 191.32625000000007,
      "v": 83
    },
    {
      "midi": 57,
      "hit": false,
      "t": 15800.359479166666,
      "d": 299.74445833333266,
      "v": 83
    },
    {
      "midi": 60,
      "hit": false,
      "t": 15800.359479166666,
      "d": 309.31077083333184,
      "v": 83
    },
    {
      "midi": 65,
      "hit": false,
      "t": 15800.359479166666,
      "d": 312.4995416666643,
      "v": 83
    },
    {
      "midi": 57,
      "hit": false,
      "t": 16224.465999999997,
      "d": 95.66312499999913,
      "v": 83
    },
    {
      "midi": 60,
      "hit": false,
      "t": 16224.465999999997,
      "d": 95.66312499999913,
      "v": 83
    },
    {
      "midi": 65,
      "hit": false,
      "t": 16224.465999999997,
      "d": 95.66312499999913,
      "v": 83
    },
    {
      "midi": 58,
      "hit": false,
      "t": 17142.831999999995,
      "d": 191.32624999999825,
      "v": 83
    },
    {
      "midi": 60,
      "hit": false,
      "t": 17142.831999999995,
      "d": 191.32624999999825,
      "v": 83
    },
    {
      "midi": 63,
      "hit": false,
      "t": 17142.831999999995,
      "d": 191.32624999999825,
      "v": 83
    },
    {
      "midi": 67,
      "hit": false,
      "t": 17142.831999999995,
      "d": 191.32624999999825,
      "v": 83
    },
    {
      "midi": 58,
      "hit": false,
      "t": 17755.075999999994,
      "d": 191.32624999999825,
      "v": 83
    },
    {
      "midi": 60,
      "hit": false,
      "t": 17755.075999999994,
      "d": 191.32624999999825,
      "v": 83
    },
    {
      "midi": 63,
      "hit": false,
      "t": 17755.075999999994,
      "d": 191.32624999999825,
      "v": 83
    },
    {
      "midi": 67,
      "hit": false,
      "t": 17755.075999999994,
      "d": 191.32624999999825,
      "v": 83
    },
    {
      "midi": 58,
      "hit": false,
      "t": 18249.335479166657,
      "d": 306.1219999999994,
      "v": 83
    },
    {
      "midi": 60,
      "hit": false,
      "t": 18249.335479166657,
      "d": 306.1219999999994,
      "v": 83
    },
    {
      "midi": 63,
      "hit": false,
      "t": 18249.335479166657,
      "d": 306.1219999999994,
      "v": 83
    },
    {
      "midi": 67,
      "hit": false,
      "t": 18249.335479166657,
      "d": 309.31077083333366,
      "v": 83
    },
    {
      "midi": 58,
      "hit": false,
      "t": 18673.441999999992,
      "d": 95.66312499999913,
      "v": 83
    },
    {
      "midi": 60,
      "hit": false,
      "t": 18673.441999999992,
      "d": 95.66312499999913,
      "v": 83
    },
    {
      "midi": 63,
      "hit": false,
      "t": 18673.441999999992,
      "d": 95.66312499999913,
      "v": 83
    },
    {
      "midi": 67,
      "hit": false,
      "t": 18673.441999999992,
      "d": 95.66312499999913,
      "v": 83
    },
    {
      "midi": 58,
      "hit": false,
      "t": 19591.80799999999,
      "d": 191.32624999999825,
      "v": 83
    },
    {
      "midi": 62,
      "hit": false,
      "t": 19591.80799999999,
      "d": 191.32624999999825,
      "v": 83
    },
    {
      "midi": 65,
      "hit": false,
      "t": 19591.80799999999,
      "d": 194.51502083333253,
      "v": 83
    },
    {
      "midi": 58,
      "hit": false,
      "t": 20204.05199999999,
      "d": 191.32624999999825,
      "v": 83
    },
    {
      "midi": 62,
      "hit": false,
      "t": 20204.05199999999,
      "d": 191.32624999999825,
      "v": 83
    },
    {
      "midi": 65,
      "hit": false,
      "t": 20204.05199999999,
      "d": 191.32624999999825,
      "v": 83
    },
    {
      "midi": 57,
      "hit": false,
      "t": 20698.311479166652,
      "d": 299.7444583333345,
      "v": 83
    },
    {
      "midi": 60,
      "hit": false,
      "t": 20698.311479166652,
      "d": 309.31077083333366,
      "v": 83
    },
    {
      "midi": 65,
      "hit": false,
      "t": 20698.311479166652,
      "d": 312.49954166666794,
      "v": 83
    },
    {
      "midi": 57,
      "hit": false,
      "t": 21122.417999999987,
      "d": 95.66312499999913,
      "v": 83
    },
    {
      "midi": 60,
      "hit": false,
      "t": 21122.417999999987,
      "d": 95.66312499999913,
      "v": 83
    },
    {
      "midi": 65,
      "hit": false,
      "t": 21122.417999999987,
      "d": 95.66312499999913,
      "v": 83
    },
    {
      "midi": 58,
      "hit": false,
      "t": 22040.783999999985,
      "d": 191.32624999999825,
      "v": 83
    },
    {
      "midi": 60,
      "hit": false,
      "t": 22040.783999999985,
      "d": 191.32624999999825,
      "v": 83
    },
    {
      "midi": 63,
      "hit": false,
      "t": 22040.783999999985,
      "d": 191.32624999999825,
      "v": 83
    },
    {
      "midi": 67,
      "hit": false,
      "t": 22040.783999999985,
      "d": 191.32624999999825,
      "v": 83
    },
    {
      "midi": 58,
      "hit": false,
      "t": 22653.027999999984,
      "d": 191.32624999999825,
      "v": 83
    },
    {
      "midi": 60,
      "hit": false,
      "t": 22653.027999999984,
      "d": 191.32624999999825,
      "v": 83
    },
    {
      "midi": 63,
      "hit": false,
      "t": 22653.027999999984,
      "d": 191.32624999999825,
      "v": 83
    },
    {
      "midi": 67,
      "hit": false,
      "t": 22653.027999999984,
      "d": 191.32624999999825,
      "v": 83
    },
    {
      "midi": 58,
      "hit": false,
      "t": 23147.287479166647,
      "d": 306.1219999999994,
      "v": 83
    },
    {
      "midi": 60,
      "hit": false,
      "t": 23147.287479166647,
      "d": 306.1219999999994,
      "v": 83
    },
    {
      "midi": 63,
      "hit": false,
      "t": 23147.287479166647,
      "d": 306.1219999999994,
      "v": 83
    },
    {
      "midi": 67,
      "hit": false,
      "t": 23147.287479166647,
      "d": 309.31077083333366,
      "v": 83
    },
    {
      "midi": 58,
      "hit": false,
      "t": 23571.393999999982,
      "d": 95.66312499999913,
      "v": 83
    },
    {
      "midi": 60,
      "hit": false,
      "t": 23571.393999999982,
      "d": 95.66312499999913,
      "v": 83
    },
    {
      "midi": 63,
      "hit": false,
      "t": 23571.393999999982,
      "d": 95.66312499999913,
      "v": 83
    },
    {
      "midi": 67,
      "hit": false,
      "t": 23571.393999999982,
      "d": 95.66312499999913,
      "v": 83
    },
    {
      "midi": 58,
      "hit": false,
      "t": 24489.75999999998,
      "d": 191.32624999999825,
      "v": 83
    },
    {
      "midi": 62,
      "hit": false,
      "t": 24489.75999999998,
      "d": 191.32624999999825,
      "v": 83
    },
    {
      "midi": 65,
      "hit": false,
      "t": 24489.75999999998,
      "d": 194.51502083333253,
      "v": 83
    },
    {
      "midi": 58,
      "hit": false,
      "t": 25102.00399999998,
      "d": 191.32624999999825,
      "v": 83
    },
    {
      "midi": 62,
      "hit": false,
      "t": 25102.00399999998,
      "d": 191.32624999999825,
      "v": 83
    },
    {
      "midi": 65,
      "hit": false,
      "t": 25102.00399999998,
      "d": 191.32624999999825,
      "v": 83
    },
    {
      "midi": 57,
      "hit": false,
      "t": 25596.263479166642,
      "d": 299.7444583333345,
      "v": 83
    },
    {
      "midi": 60,
      "hit": false,
      "t": 25596.263479166642,
      "d": 309.31077083333366,
      "v": 83
    },
    {
      "midi": 65,
      "hit": false,
      "t": 25596.263479166642,
      "d": 312.49954166666794,
      "v": 83
    },
    {
      "midi": 57,
      "hit": false,
      "t": 26020.369999999977,
      "d": 95.66312499999913,
      "v": 83
    },
    {
      "midi": 60,
      "hit": false,
      "t": 26020.369999999977,
      "d": 95.66312499999913,
      "v": 83
    },
    {
      "midi": 65,
      "hit": false,
      "t": 26020.369999999977,
      "d": 95.66312499999913,
      "v": 83
    },
    {
      "midi": 58,
      "hit": false,
      "t": 26938.735999999975,
      "d": 191.32624999999825,
      "v": 83
    },
    {
      "midi": 60,
      "hit": false,
      "t": 26938.735999999975,
      "d": 191.32624999999825,
      "v": 83
    },
    {
      "midi": 63,
      "hit": false,
      "t": 26938.735999999975,
      "d": 191.32624999999825,
      "v": 83
    },
    {
      "midi": 67,
      "hit": false,
      "t": 26938.735999999975,
      "d": 191.32624999999825,
      "v": 83
    },
    {
      "midi": 58,
      "hit": false,
      "t": 27550.979999999974,
      "d": 191.32624999999825,
      "v": 83
    },
    {
      "midi": 60,
      "hit": false,
      "t": 27550.979999999974,
      "d": 191.32624999999825,
      "v": 83
    },
    {
      "midi": 63,
      "hit": false,
      "t": 27550.979999999974,
      "d": 191.32624999999825,
      "v": 83
    },
    {
      "midi": 67,
      "hit": false,
      "t": 27550.979999999974,
      "d": 191.32624999999825,
      "v": 83
    },
    {
      "midi": 58,
      "hit": false,
      "t": 28045.239479166637,
      "d": 306.1219999999994,
      "v": 83
    },
    {
      "midi": 60,
      "hit": false,
      "t": 28045.239479166637,
      "d": 306.1219999999994,
      "v": 83
    },
    {
      "midi": 63,
      "hit": false,
      "t": 28045.239479166637,
      "d": 306.1219999999994,
      "v": 83
    },
    {
      "midi": 67,
      "hit": false,
      "t": 28045.239479166637,
      "d": 309.31077083333366,
      "v": 83
    },
    {
      "midi": 58,
      "hit": false,
      "t": 28469.345999999972,
      "d": 95.66312499999913,
      "v": 83
    },
    {
      "midi": 60,
      "hit": false,
      "t": 28469.345999999972,
      "d": 95.66312499999913,
      "v": 83
    },
    {
      "midi": 63,
      "hit": false,
      "t": 28469.345999999972,
      "d": 95.66312499999913,
      "v": 83
    },
    {
      "midi": 67,
      "hit": false,
      "t": 28469.345999999972,
      "d": 95.66312499999913,
      "v": 83
    },
    {
      "midi": 58,
      "hit": false,
      "t": 29387.71199999997,
      "d": 191.32624999999825,
      "v": 83
    },
    {
      "midi": 62,
      "hit": false,
      "t": 29387.71199999997,
      "d": 191.32624999999825,
      "v": 83
    },
    {
      "midi": 65,
      "hit": false,
      "t": 29387.71199999997,
      "d": 194.51502083333253,
      "v": 83
    },
    {
      "midi": 58,
      "hit": false,
      "t": 29999.95599999997,
      "d": 191.32624999999825,
      "v": 83
    },
    {
      "midi": 62,
      "hit": false,
      "t": 29999.95599999997,
      "d": 191.32624999999825,
      "v": 83
    },
    {
      "midi": 65,
      "hit": false,
      "t": 29999.95599999997,
      "d": 191.32624999999825,
      "v": 83
    },
    {
      "midi": 57,
      "hit": false,
      "t": 30494.215479166633,
      "d": 299.7444583333345,
      "v": 83
    },
    {
      "midi": 60,
      "hit": false,
      "t": 30494.215479166633,
      "d": 309.31077083333366,
      "v": 83
    },
    {
      "midi": 65,
      "hit": false,
      "t": 30494.215479166633,
      "d": 312.49954166666794,
      "v": 83
    },
    {
      "midi": 57,
      "hit": false,
      "t": 30918.321999999967,
      "d": 95.66312499999913,
      "v": 83
    },
    {
      "midi": 60,
      "hit": false,
      "t": 30918.321999999967,
      "d": 95.66312499999913,
      "v": 83
    },
    {
      "midi": 65,
      "hit": false,
      "t": 30918.321999999967,
      "d": 95.66312499999913,
      "v": 83
    },
    {
      "midi": 58,
      "hit": false,
      "t": 31836.687999999966,
      "d": 191.32624999999825,
      "v": 83
    },
    {
      "midi": 60,
      "hit": false,
      "t": 31836.687999999966,
      "d": 191.32624999999825,
      "v": 83
    },
    {
      "midi": 63,
      "hit": false,
      "t": 31836.687999999966,
      "d": 191.32624999999825,
      "v": 83
    },
    {
      "midi": 67,
      "hit": false,
      "t": 31836.687999999966,
      "d": 191.32624999999825,
      "v": 83
    },
    {
      "midi": 58,
      "hit": false,
      "t": 32448.931999999964,
      "d": 191.32624999999825,
      "v": 83
    },
    {
      "midi": 60,
      "hit": false,
      "t": 32448.931999999964,
      "d": 191.32624999999825,
      "v": 83
    },
    {
      "midi": 63,
      "hit": false,
      "t": 32448.931999999964,
      "d": 191.32624999999825,
      "v": 83
    },
    {
      "midi": 67,
      "hit": false,
      "t": 32448.931999999964,
      "d": 191.32624999999825,
      "v": 83
    },
    {
      "midi": 58,
      "hit": false,
      "t": 32943.19147916663,
      "d": 306.122000000003,
      "v": 83
    },
    {
      "midi": 60,
      "hit": false,
      "t": 32943.19147916663,
      "d": 306.122000000003,
      "v": 83
    },
    {
      "midi": 63,
      "hit": false,
      "t": 32943.19147916663,
      "d": 306.122000000003,
      "v": 83
    },
    {
      "midi": 67,
      "hit": false,
      "t": 32943.19147916663,
      "d": 309.31077083333366,
      "v": 83
    },
    {
      "midi": 58,
      "hit": false,
      "t": 33367.29799999996,
      "d": 95.66312499999913,
      "v": 83
    },
    {
      "midi": 60,
      "hit": false,
      "t": 33367.29799999996,
      "d": 95.66312499999913,
      "v": 83
    },
    {
      "midi": 63,
      "hit": false,
      "t": 33367.29799999996,
      "d": 95.66312499999913,
      "v": 83
    },
    {
      "midi": 67,
      "hit": false,
      "t": 33367.29799999996,
      "d": 95.66312499999913,
      "v": 83
    },
    {
      "midi": 58,
      "hit": false,
      "t": 34285.66399999996,
      "d": 191.32624999999825,
      "v": 83
    },
    {
      "midi": 60,
      "hit": false,
      "t": 34285.66399999996,
      "d": 191.32624999999825,
      "v": 83
    },
    {
      "midi": 63,
      "hit": false,
      "t": 34285.66399999996,
      "d": 191.32624999999825,
      "v": 83
    },
    {
      "midi": 67,
      "hit": false,
      "t": 34285.66399999996,
      "d": 191.32624999999825,
      "v": 83
    },
    {
      "midi": 58,
      "hit": false,
      "t": 34897.90799999996,
      "d": 191.32624999999825,
      "v": 83
    },
    {
      "midi": 60,
      "hit": false,
      "t": 34897.90799999996,
      "d": 191.32624999999825,
      "v": 83
    },
    {
      "midi": 63,
      "hit": false,
      "t": 34897.90799999996,
      "d": 191.32624999999825,
      "v": 83
    },
    {
      "midi": 67,
      "hit": false,
      "t": 34897.90799999996,
      "d": 191.32624999999825,
      "v": 83
    },
    {
      "midi": 58,
      "hit": false,
      "t": 35392.16747916662,
      "d": 306.122000000003,
      "v": 83
    },
    {
      "midi": 60,
      "hit": false,
      "t": 35392.16747916662,
      "d": 306.122000000003,
      "v": 83
    },
    {
      "midi": 63,
      "hit": false,
      "t": 35392.16747916662,
      "d": 306.122000000003,
      "v": 83
    },
    {
      "midi": 67,
      "hit": false,
      "t": 35392.16747916662,
      "d": 309.31077083333366,
      "v": 83
    },
    {
      "midi": 58,
      "hit": false,
      "t": 35816.273999999954,
      "d": 95.66312499999913,
      "v": 83
    },
    {
      "midi": 60,
      "hit": false,
      "t": 35816.273999999954,
      "d": 95.66312499999913,
      "v": 83
    },
    {
      "midi": 63,
      "hit": false,
      "t": 35816.273999999954,
      "d": 95.66312499999913,
      "v": 83
    },
    {
      "midi": 67,
      "hit": false,
      "t": 35816.273999999954,
      "d": 95.66312499999913,
      "v": 83
    },
    {
      "midi": 60,
      "hit": false,
      "t": 36734.639999999956,
      "d": 191.32624999999825,
      "v": 83
    },
    {
      "midi": 62,
      "hit": false,
      "t": 36734.639999999956,
      "d": 191.32624999999825,
      "v": 83
    },
    {
      "midi": 65,
      "hit": false,
      "t": 36734.639999999956,
      "d": 191.32624999999825,
      "v": 83
    },
    {
      "midi": 68,
      "hit": false,
      "t": 36734.639999999956,
      "d": 191.32624999999825,
      "v": 83
    },
    {
      "midi": 60,
      "hit": false,
      "t": 37346.883999999955,
      "d": 191.32624999999825,
      "v": 83
    },
    {
      "midi": 62,
      "hit": false,
      "t": 37346.883999999955,
      "d": 191.32624999999825,
      "v": 83
    },
    {
      "midi": 65,
      "hit": false,
      "t": 37346.883999999955,
      "d": 191.32624999999825,
      "v": 83
    },
    {
      "midi": 68,
      "hit": false,
      "t": 37346.883999999955,
      "d": 191.32624999999825,
      "v": 83
    },
    {
      "midi": 60,
      "hit": false,
      "t": 37841.14347916662,
      "d": 306.122000000003,
      "v": 83
    },
    {
      "midi": 63,
      "hit": false,
      "t": 37841.14347916662,
      "d": 306.122000000003,
      "v": 83
    },
    {
      "midi": 65,
      "hit": false,
      "t": 37841.14347916662,
      "d": 306.122000000003,
      "v": 83
    },
    {
      "midi": 68,
      "hit": false,
      "t": 37841.14347916662,
      "d": 309.31077083333366,
      "v": 83
    },
    {
      "midi": 60,
      "hit": false,
      "t": 38265.24999999995,
      "d": 95.66312499999913,
      "v": 83
    },
    {
      "midi": 63,
      "hit": false,
      "t": 38265.24999999995,
      "d": 95.66312499999913,
      "v": 83
    },
    {
      "midi": 65,
      "hit": false,
      "t": 38265.24999999995,
      "d": 95.66312499999913,
      "v": 83
    },
    {
      "midi": 68,
      "hit": false,
      "t": 38265.24999999995,
      "d": 95.66312499999913,
      "v": 83
    },
    {
      "midi": 59,
      "hit": false,
      "t": 39183.61599999995,
      "d": 191.32624999999825,
      "v": 83
    },
    {
      "midi": 63,
      "hit": false,
      "t": 39183.61599999995,
      "d": 191.32624999999825,
      "v": 83
    },
    {
      "midi": 65,
      "hit": false,
      "t": 39183.61599999995,
      "d": 191.32624999999825,
      "v": 83
    },
    {
      "midi": 68,
      "hit": false,
      "t": 39183.61599999995,
      "d": 191.32624999999825,
      "v": 83
    },
    {
      "midi": 59,
      "hit": false,
      "t": 39795.85999999995,
      "d": 191.32624999999825,
      "v": 83
    },
    {
      "midi": 63,
      "hit": false,
      "t": 39795.85999999995,
      "d": 191.32624999999825,
      "v": 83
    },
    {
      "midi": 65,
      "hit": false,
      "t": 39795.85999999995,
      "d": 191.32624999999825,
      "v": 83
    },
    {
      "midi": 68,
      "hit": false,
      "t": 39795.85999999995,
      "d": 191.32624999999825,
      "v": 83
    },
    {
      "midi": 59,
      "hit": false,
      "t": 40290.11947916661,
      "d": 306.122000000003,
      "v": 83
    },
    {
      "midi": 62,
      "hit": false,
      "t": 40290.11947916661,
      "d": 306.122000000003,
      "v": 83
    },
    {
      "midi": 65,
      "hit": false,
      "t": 40290.11947916661,
      "d": 306.122000000003,
      "v": 83
    },
    {
      "midi": 68,
      "hit": false,
      "t": 40290.11947916661,
      "d": 309.31077083333366,
      "v": 83
    },
    {
      "midi": 59,
      "hit": false,
      "t": 40714.225999999944,
      "d": 95.66312499999913,
      "v": 83
    },
    {
      "midi": 62,
      "hit": false,
      "t": 40714.225999999944,
      "d": 95.66312499999913,
      "v": 83
    },
    {
      "midi": 65,
      "hit": false,
      "t": 40714.225999999944,
      "d": 95.66312499999913,
      "v": 83
    },
    {
      "midi": 68,
      "hit": false,
      "t": 40714.225999999944,
      "d": 95.66312499999913,
      "v": 83
    },
    {
      "midi": 58,
      "hit": false,
      "t": 41632.591999999946,
      "d": 191.32624999999825,
      "v": 83
    },
    {
      "midi": 60,
      "hit": false,
      "t": 41632.591999999946,
      "d": 191.32624999999825,
      "v": 83
    },
    {
      "midi": 63,
      "hit": false,
      "t": 41632.591999999946,
      "d": 191.32624999999825,
      "v": 83
    },
    {
      "midi": 67,
      "hit": false,
      "t": 41632.591999999946,
      "d": 191.32624999999825,
      "v": 83
    },
    {
      "midi": 58,
      "hit": false,
      "t": 42244.835999999945,
      "d": 191.32624999999825,
      "v": 83
    },
    {
      "midi": 60,
      "hit": false,
      "t": 42244.835999999945,
      "d": 191.32624999999825,
      "v": 83
    },
    {
      "midi": 63,
      "hit": false,
      "t": 42244.835999999945,
      "d": 191.32624999999825,
      "v": 83
    },
    {
      "midi": 67,
      "hit": false,
      "t": 42244.835999999945,
      "d": 191.32624999999825,
      "v": 83
    },
    {
      "midi": 58,
      "hit": false,
      "t": 42739.09547916661,
      "d": 306.122000000003,
      "v": 83
    },
    {
      "midi": 60,
      "hit": false,
      "t": 42739.09547916661,
      "d": 306.122000000003,
      "v": 83
    },
    {
      "midi": 63,
      "hit": false,
      "t": 42739.09547916661,
      "d": 306.122000000003,
      "v": 83
    },
    {
      "midi": 67,
      "hit": false,
      "t": 42739.09547916661,
      "d": 309.31077083333366,
      "v": 83
    },
    {
      "midi": 58,
      "hit": false,
      "t": 43163.20199999994,
      "d": 95.66312499999913,
      "v": 83
    },
    {
      "midi": 60,
      "hit": false,
      "t": 43163.20199999994,
      "d": 95.66312499999913,
      "v": 83
    },
    {
      "midi": 63,
      "hit": false,
      "t": 43163.20199999994,
      "d": 95.66312499999913,
      "v": 83
    },
    {
      "midi": 67,
      "hit": false,
      "t": 43163.20199999994,
      "d": 95.66312499999913,
      "v": 83
    },
    {
      "midi": 58,
      "hit": false,
      "t": 44081.56799999994,
      "d": 191.32624999999825,
      "v": 83
    },
    {
      "midi": 62,
      "hit": false,
      "t": 44081.56799999994,
      "d": 191.32624999999825,
      "v": 83
    },
    {
      "midi": 65,
      "hit": false,
      "t": 44081.56799999994,
      "d": 194.5150208333289,
      "v": 83
    },
    {
      "midi": 58,
      "hit": false,
      "t": 44693.81199999994,
      "d": 191.32624999999825,
      "v": 83
    },
    {
      "midi": 62,
      "hit": false,
      "t": 44693.81199999994,
      "d": 191.32624999999825,
      "v": 83
    },
    {
      "midi": 65,
      "hit": false,
      "t": 44693.81199999994,
      "d": 191.32624999999825,
      "v": 83
    },
    {
      "midi": 57,
      "hit": false,
      "t": 45188.0714791666,
      "d": 299.7444583333345,
      "v": 83
    },
    {
      "midi": 60,
      "hit": false,
      "t": 45188.0714791666,
      "d": 309.31077083333366,
      "v": 83
    },
    {
      "midi": 65,
      "hit": false,
      "t": 45188.0714791666,
      "d": 312.4995416666643,
      "v": 83
    },
    {
      "midi": 57,
      "hit": false,
      "t": 45612.177999999934,
      "d": 95.66312499999913,
      "v": 83
    },
    {
      "midi": 60,
      "hit": false,
      "t": 45612.177999999934,
      "d": 95.66312499999913,
      "v": 83
    },
    {
      "midi": 65,
      "hit": false,
      "t": 45612.177999999934,
      "d": 95.66312499999913,
      "v": 83
    },
    {
      "midi": 58,
      "hit": false,
      "t": 46530.543999999936,
      "d": 191.32624999999825,
      "v": 83
    },
    {
      "midi": 60,
      "hit": false,
      "t": 46530.543999999936,
      "d": 191.32624999999825,
      "v": 83
    },
    {
      "midi": 63,
      "hit": false,
      "t": 46530.543999999936,
      "d": 191.32624999999825,
      "v": 83
    },
    {
      "midi": 67,
      "hit": false,
      "t": 46530.543999999936,
      "d": 191.32624999999825,
      "v": 83
    },
    {
      "midi": 58,
      "hit": false,
      "t": 47142.787999999935,
      "d": 191.32624999999825,
      "v": 83
    },
    {
      "midi": 60,
      "hit": false,
      "t": 47142.787999999935,
      "d": 191.32624999999825,
      "v": 83
    },
    {
      "midi": 63,
      "hit": false,
      "t": 47142.787999999935,
      "d": 191.32624999999825,
      "v": 83
    },
    {
      "midi": 67,
      "hit": false,
      "t": 47142.787999999935,
      "d": 191.32624999999825,
      "v": 83
    },
    {
      "midi": 58,
      "hit": false,
      "t": 47637.0474791666,
      "d": 306.122000000003,
      "v": 83
    },
    {
      "midi": 60,
      "hit": false,
      "t": 47637.0474791666,
      "d": 306.122000000003,
      "v": 83
    },
    {
      "midi": 63,
      "hit": false,
      "t": 47637.0474791666,
      "d": 306.122000000003,
      "v": 83
    },
    {
      "midi": 67,
      "hit": false,
      "t": 47637.0474791666,
      "d": 309.31077083333366,
      "v": 83
    },
    {
      "midi": 58,
      "hit": false,
      "t": 48061.15399999993,
      "d": 95.66312499999913,
      "v": 83
    },
    {
      "midi": 60,
      "hit": false,
      "t": 48061.15399999993,
      "d": 95.66312499999913,
      "v": 83
    },
    {
      "midi": 63,
      "hit": false,
      "t": 48061.15399999993,
      "d": 95.66312499999913,
      "v": 83
    },
    {
      "midi": 67,
      "hit": false,
      "t": 48061.15399999993,
      "d": 95.66312499999913,
      "v": 83
    },
    {
      "midi": 58,
      "hit": false,
      "t": 48979.51999999993,
      "d": 191.32624999999825,
      "v": 83
    },
    {
      "midi": 62,
      "hit": false,
      "t": 48979.51999999993,
      "d": 191.32624999999825,
      "v": 83
    },
    {
      "midi": 65,
      "hit": false,
      "t": 48979.51999999993,
      "d": 194.5150208333289,
      "v": 83
    },
    {
      "midi": 58,
      "hit": false,
      "t": 49591.76399999993,
      "d": 191.32624999999825,
      "v": 83
    },
    {
      "midi": 62,
      "hit": false,
      "t": 49591.76399999993,
      "d": 191.32624999999825,
      "v": 83
    },
    {
      "midi": 65,
      "hit": false,
      "t": 49591.76399999993,
      "d": 191.32624999999825,
      "v": 83
    },
    {
      "midi": 57,
      "hit": false,
      "t": 50086.02347916659,
      "d": 299.7444583333345,
      "v": 83
    },
    {
      "midi": 60,
      "hit": false,
      "t": 50086.02347916659,
      "d": 309.31077083333366,
      "v": 83
    },
    {
      "midi": 65,
      "hit": false,
      "t": 50086.02347916659,
      "d": 312.4995416666643,
      "v": 83
    },
    {
      "midi": 57,
      "hit": false,
      "t": 50510.129999999925,
      "d": 95.66312499999913,
      "v": 83
    },
    {
      "midi": 60,
      "hit": false,
      "t": 50510.129999999925,
      "d": 95.66312499999913,
      "v": 83
    },
    {
      "midi": 65,
      "hit": false,
      "t": 50510.129999999925,
      "d": 95.66312499999913,
      "v": 83
    },
    {
      "midi": 58,
      "hit": false,
      "t": 51428.49599999993,
      "d": 191.32624999999825,
      "v": 83
    },
    {
      "midi": 60,
      "hit": false,
      "t": 51428.49599999993,
      "d": 191.32624999999825,
      "v": 83
    },
    {
      "midi": 63,
      "hit": false,
      "t": 51428.49599999993,
      "d": 191.32624999999825,
      "v": 83
    },
    {
      "midi": 67,
      "hit": false,
      "t": 51428.49599999993,
      "d": 191.32624999999825,
      "v": 83
    },
    {
      "midi": 58,
      "hit": false,
      "t": 52040.739999999925,
      "d": 191.32624999999825,
      "v": 83
    },
    {
      "midi": 60,
      "hit": false,
      "t": 52040.739999999925,
      "d": 191.32624999999825,
      "v": 83
    },
    {
      "midi": 63,
      "hit": false,
      "t": 52040.739999999925,
      "d": 191.32624999999825,
      "v": 83
    },
    {
      "midi": 67,
      "hit": false,
      "t": 52040.739999999925,
      "d": 191.32624999999825,
      "v": 83
    },
    {
      "midi": 58,
      "hit": false,
      "t": 52534.99947916659,
      "d": 306.122000000003,
      "v": 83
    },
    {
      "midi": 60,
      "hit": false,
      "t": 52534.99947916659,
      "d": 306.122000000003,
      "v": 83
    },
    {
      "midi": 63,
      "hit": false,
      "t": 52534.99947916659,
      "d": 306.122000000003,
      "v": 83
    },
    {
      "midi": 67,
      "hit": false,
      "t": 52534.99947916659,
      "d": 309.31077083333366,
      "v": 83
    },
    {
      "midi": 58,
      "hit": false,
      "t": 52959.10599999992,
      "d": 95.66312499999913,
      "v": 83
    },
    {
      "midi": 60,
      "hit": false,
      "t": 52959.10599999992,
      "d": 95.66312499999913,
      "v": 83
    },
    {
      "midi": 63,
      "hit": false,
      "t": 52959.10599999992,
      "d": 95.66312499999913,
      "v": 83
    },
    {
      "midi": 67,
      "hit": false,
      "t": 52959.10599999992,
      "d": 95.66312499999913,
      "v": 83
    },
    {
      "midi": 58,
      "hit": false,
      "t": 53877.47199999992,
      "d": 191.32624999999825,
      "v": 83
    },
    {
      "midi": 60,
      "hit": false,
      "t": 53877.47199999992,
      "d": 191.32624999999825,
      "v": 83
    },
    {
      "midi": 63,
      "hit": false,
      "t": 53877.47199999992,
      "d": 191.32624999999825,
      "v": 83
    },
    {
      "midi": 67,
      "hit": false,
      "t": 53877.47199999992,
      "d": 191.32624999999825,
      "v": 83
    },
    {
      "midi": 58,
      "hit": false,
      "t": 54489.71599999992,
      "d": 191.32624999999825,
      "v": 83
    },
    {
      "midi": 60,
      "hit": false,
      "t": 54489.71599999992,
      "d": 191.32624999999825,
      "v": 83
    },
    {
      "midi": 63,
      "hit": false,
      "t": 54489.71599999992,
      "d": 191.32624999999825,
      "v": 83
    },
    {
      "midi": 67,
      "hit": false,
      "t": 54489.71599999992,
      "d": 191.32624999999825,
      "v": 83
    },
    {
      "midi": 58,
      "hit": false,
      "t": 54983.975479166584,
      "d": 306.122000000003,
      "v": 83
    },
    {
      "midi": 60,
      "hit": false,
      "t": 54983.975479166584,
      "d": 306.122000000003,
      "v": 83
    },
    {
      "midi": 63,
      "hit": false,
      "t": 54983.975479166584,
      "d": 306.122000000003,
      "v": 83
    },
    {
      "midi": 67,
      "hit": false,
      "t": 54983.975479166584,
      "d": 309.31077083333366,
      "v": 83
    },
    {
      "midi": 58,
      "hit": false,
      "t": 55408.081999999915,
      "d": 95.66312499999913,
      "v": 83
    },
    {
      "midi": 60,
      "hit": false,
      "t": 55408.081999999915,
      "d": 95.66312499999913,
      "v": 83
    },
    {
      "midi": 63,
      "hit": false,
      "t": 55408.081999999915,
      "d": 95.66312499999913,
      "v": 83
    },
    {
      "midi": 67,
      "hit": false,
      "t": 55408.081999999915,
      "d": 95.66312499999913,
      "v": 83
    },
    {
      "midi": 60,
      "hit": false,
      "t": 56326.44799999992,
      "d": 191.32624999999825,
      "v": 83
    },
    {
      "midi": 63,
      "hit": false,
      "t": 56326.44799999992,
      "d": 191.32624999999825,
      "v": 83
    },
    {
      "midi": 65,
      "hit": false,
      "t": 56326.44799999992,
      "d": 191.32624999999825,
      "v": 83
    },
    {
      "midi": 68,
      "hit": false,
      "t": 56326.44799999992,
      "d": 191.32624999999825,
      "v": 83
    },
    {
      "midi": 60,
      "hit": false,
      "t": 56938.691999999915,
      "d": 191.32624999999825,
      "v": 83
    },
    {
      "midi": 63,
      "hit": false,
      "t": 56938.691999999915,
      "d": 191.32624999999825,
      "v": 83
    },
    {
      "midi": 65,
      "hit": false,
      "t": 56938.691999999915,
      "d": 191.32624999999825,
      "v": 83
    },
    {
      "midi": 68,
      "hit": false,
      "t": 56938.691999999915,
      "d": 191.32624999999825,
      "v": 83
    },
    {
      "midi": 60,
      "hit": false,
      "t": 57432.95147916658,
      "d": 306.122000000003,
      "v": 83
    },
    {
      "midi": 63,
      "hit": false,
      "t": 57432.95147916658,
      "d": 306.122000000003,
      "v": 83
    },
    {
      "midi": 65,
      "hit": false,
      "t": 57432.95147916658,
      "d": 306.122000000003,
      "v": 83
    },
    {
      "midi": 68,
      "hit": false,
      "t": 57432.95147916658,
      "d": 309.31077083333366,
      "v": 83
    },
    {
      "midi": 60,
      "hit": false,
      "t": 57857.05799999991,
      "d": 95.66312499999913,
      "v": 83
    },
    {
      "midi": 63,
      "hit": false,
      "t": 57857.05799999991,
      "d": 95.66312499999913,
      "v": 83
    },
    {
      "midi": 65,
      "hit": false,
      "t": 57857.05799999991,
      "d": 95.66312499999913,
      "v": 83
    },
    {
      "midi": 68,
      "hit": false,
      "t": 57857.05799999991,
      "d": 95.66312499999913,
      "v": 83
    },
    {
      "midi": 58,
      "hit": false,
      "t": 58775.42399999991,
      "d": 191.32624999999825,
      "v": 83
    },
    {
      "midi": 63,
      "hit": false,
      "t": 58775.42399999991,
      "d": 191.32624999999825,
      "v": 83
    },
    {
      "midi": 65,
      "hit": false,
      "t": 58775.42399999991,
      "d": 191.32624999999825,
      "v": 83
    },
    {
      "midi": 68,
      "hit": false,
      "t": 58775.42399999991,
      "d": 191.32624999999825,
      "v": 83
    },
    {
      "midi": 58,
      "hit": false,
      "t": 59387.66799999991,
      "d": 191.32624999999825,
      "v": 83
    },
    {
      "midi": 63,
      "hit": false,
      "t": 59387.66799999991,
      "d": 191.32624999999825,
      "v": 83
    },
    {
      "midi": 65,
      "hit": false,
      "t": 59387.66799999991,
      "d": 191.32624999999825,
      "v": 83
    },
    {
      "midi": 68,
      "hit": false,
      "t": 59387.66799999991,
      "d": 191.32624999999825,
      "v": 83
    },
    {
      "midi": 58,
      "hit": false,
      "t": 59881.927479166574,
      "d": 306.122000000003,
      "v": 83
    },
    {
      "midi": 63,
      "hit": false,
      "t": 59881.927479166574,
      "d": 306.122000000003,
      "v": 83
    },
    {
      "midi": 68,
      "hit": false,
      "t": 59881.927479166574,
      "d": 306.122000000003,
      "v": 83
    },
    {
      "midi": 65,
      "hit": false,
      "t": 59881.927479166574,
      "d": 309.31077083333366,
      "v": 83
    },
    {
      "midi": 58,
      "hit": false,
      "t": 60306.033999999905,
      "d": 95.66312499999913,
      "v": 83
    },
    {
      "midi": 63,
      "hit": false,
      "t": 60306.033999999905,
      "d": 95.66312499999913,
      "v": 83
    },
    {
      "midi": 65,
      "hit": false,
      "t": 60306.033999999905,
      "d": 95.66312499999913,
      "v": 83
    },
    {
      "midi": 68,
      "hit": false,
      "t": 60306.033999999905,
      "d": 95.66312499999913,
      "v": 83
    },
    {
      "midi": 58,
      "hit": false,
      "t": 61224.39999999991,
      "d": 191.32624999999825,
      "v": 83
    },
    {
      "midi": 63,
      "hit": false,
      "t": 61224.39999999991,
      "d": 191.32624999999825,
      "v": 83
    },
    {
      "midi": 65,
      "hit": false,
      "t": 61224.39999999991,
      "d": 191.32624999999825,
      "v": 83
    },
    {
      "midi": 74,
      "hit": false,
      "t": 61224.4,
      "d": 277.4230624999982,
      "v": 60
    },
    {
      "midi": 86,
      "hit": false,
      "t": 61233.9663125,
      "d": 216.83641666666517,
      "v": 74
    },
    {
      "midi": 70,
      "hit": false,
      "t": 61540.0883125,
      "d": 213.64764583333454,
      "v": 58
    },
    {
      "midi": 82,
      "hit": false,
      "t": 61546.465854166665,
      "d": 210.45887499999662,
      "v": 73
    },
    {
      "midi": 58,
      "hit": false,
      "t": 61836.643999999906,
      "d": 191.32624999999825,
      "v": 83
    },
    {
      "midi": 63,
      "hit": false,
      "t": 61836.643999999906,
      "d": 191.32624999999825,
      "v": 83
    },
    {
      "midi": 65,
      "hit": false,
      "t": 61836.643999999906,
      "d": 191.32624999999825,
      "v": 83
    },
    {
      "midi": 84,
      "hit": false,
      "t": 61839.83277083333,
      "d": 197.7037916666668,
      "v": 73
    },
    {
      "midi": 72,
      "hit": false,
      "t": 61843.02154166666,
      "d": 213.64764583333454,
      "v": 82
    },
    {
      "midi": 74,
      "hit": false,
      "t": 62142.765999999996,
      "d": 220.0251874999958,
      "v": 73
    },
    {
      "midi": 86,
      "hit": false,
      "t": 62145.95477083333,
      "d": 191.32624999999825,
      "v": 73
    },
    {
      "midi": 58,
      "hit": false,
      "t": 62330.90347916657,
      "d": 306.122000000003,
      "v": 83
    },
    {
      "midi": 63,
      "hit": false,
      "t": 62330.90347916657,
      "d": 306.122000000003,
      "v": 83
    },
    {
      "midi": 65,
      "hit": false,
      "t": 62330.90347916657,
      "d": 309.31077083333366,
      "v": 83
    },
    {
      "midi": 75,
      "hit": false,
      "t": 62436.13291666666,
      "d": 235.96904166666354,
      "v": 73
    },
    {
      "midi": 87,
      "hit": false,
      "t": 62442.51045833333,
      "d": 216.83641666666517,
      "v": 73
    },
    {
      "midi": 89,
      "hit": false,
      "t": 62742.25491666666,
      "d": 229.59150000000227,
      "v": 67
    },
    {
      "midi": 77,
      "hit": false,
      "t": 62748.632458333326,
      "d": 207.270104166666,
      "v": 64
    },
    {
      "midi": 58,
      "hit": false,
      "t": 62755.0099999999,
      "d": 95.66312499999913,
      "v": 83
    },
    {
      "midi": 63,
      "hit": false,
      "t": 62755.0099999999,
      "d": 95.66312499999913,
      "v": 83
    },
    {
      "midi": 65,
      "hit": false,
      "t": 62755.0099999999,
      "d": 95.66312499999913,
      "v": 83
    },
    {
      "midi": 79,
      "hit": false,
      "t": 63057.94322916666,
      "d": 213.64764583333454,
      "v": 82
    },
    {
      "midi": 91,
      "hit": false,
      "t": 63057.94322916666,
      "d": 226.40272916666436,
      "v": 60
    },
    {
      "midi": 80,
      "hit": false,
      "t": 63364.065229166656,
      "d": 226.40272916666436,
      "v": 73
    },
    {
      "midi": 92,
      "hit": false,
      "t": 63373.631541666655,
      "d": 210.45887499999662,
      "v": 82
    },
    {
      "midi": 58,
      "hit": false,
      "t": 63673.3759999999,
      "d": 191.32624999999825,
      "v": 83
    },
    {
      "midi": 63,
      "hit": false,
      "t": 63673.3759999999,
      "d": 191.32624999999825,
      "v": 83
    },
    {
      "midi": 67,
      "hit": false,
      "t": 63673.3759999999,
      "d": 191.32624999999825,
      "v": 83
    },
    {
      "midi": 58,
      "hit": false,
      "t": 64285.6199999999,
      "d": 191.32624999999825,
      "v": 83
    },
    {
      "midi": 63,
      "hit": false,
      "t": 64285.6199999999,
      "d": 191.32624999999825,
      "v": 83
    },
    {
      "midi": 67,
      "hit": false,
      "t": 64285.6199999999,
      "d": 191.32624999999825,
      "v": 83
    },
    {
      "midi": 58,
      "hit": false,
      "t": 64779.879479166564,
      "d": 306.122000000003,
      "v": 83
    },
    {
      "midi": 60,
      "hit": false,
      "t": 64779.879479166564,
      "d": 306.122000000003,
      "v": 83
    },
    {
      "midi": 63,
      "hit": false,
      "t": 64779.879479166564,
      "d": 306.122000000003,
      "v": 83
    },
    {
      "midi": 67,
      "hit": false,
      "t": 64779.879479166564,
      "d": 309.31077083333366,
      "v": 83
    },
    {
      "midi": 58,
      "hit": false,
      "t": 65203.985999999895,
      "d": 95.66312499999913,
      "v": 83
    },
    {
      "midi": 60,
      "hit": false,
      "t": 65203.985999999895,
      "d": 95.66312499999913,
      "v": 83
    },
    {
      "midi": 63,
      "hit": false,
      "t": 65203.985999999895,
      "d": 95.66312499999913,
      "v": 83
    },
    {
      "midi": 67,
      "hit": false,
      "t": 65203.985999999895,
      "d": 95.66312499999913,
      "v": 83
    },
    {
      "midi": 58,
      "hit": false,
      "t": 66122.3519999999,
      "d": 191.32624999999825,
      "v": 83
    },
    {
      "midi": 63,
      "hit": false,
      "t": 66122.3519999999,
      "d": 191.32624999999825,
      "v": 83
    },
    {
      "midi": 65,
      "hit": false,
      "t": 66122.3519999999,
      "d": 191.32624999999825,
      "v": 83
    },
    {
      "midi": 58,
      "hit": false,
      "t": 66734.59599999989,
      "d": 191.32624999999825,
      "v": 83
    },
    {
      "midi": 63,
      "hit": false,
      "t": 66734.59599999989,
      "d": 191.32624999999825,
      "v": 83
    },
    {
      "midi": 65,
      "hit": false,
      "t": 66734.59599999989,
      "d": 191.32624999999825,
      "v": 83
    },
    {
      "midi": 58,
      "hit": false,
      "t": 67228.85547916655,
      "d": 306.122000000003,
      "v": 83
    },
    {
      "midi": 62,
      "hit": false,
      "t": 67228.85547916655,
      "d": 306.122000000003,
      "v": 83
    },
    {
      "midi": 65,
      "hit": false,
      "t": 67228.85547916655,
      "d": 306.122000000003,
      "v": 83
    },
    {
      "midi": 58,
      "hit": false,
      "t": 67652.96199999988,
      "d": 95.6631250000064,
      "v": 83
    },
    {
      "midi": 62,
      "hit": false,
      "t": 67652.96199999988,
      "d": 95.6631250000064,
      "v": 83
    },
    {
      "midi": 65,
      "hit": false,
      "t": 67652.96199999988,
      "d": 95.6631250000064,
      "v": 83
    },
    {
      "midi": 58,
      "hit": false,
      "t": 68571.32799999989,
      "d": 191.32624999999825,
      "v": 83
    },
    {
      "midi": 63,
      "hit": false,
      "t": 68571.32799999989,
      "d": 191.32624999999825,
      "v": 83
    },
    {
      "midi": 67,
      "hit": false,
      "t": 68571.32799999989,
      "d": 191.32624999999825,
      "v": 83
    },
    {
      "midi": 58,
      "hit": false,
      "t": 69183.57199999988,
      "d": 191.32624999999825,
      "v": 83
    },
    {
      "midi": 63,
      "hit": false,
      "t": 69183.57199999988,
      "d": 191.32624999999825,
      "v": 83
    },
    {
      "midi": 67,
      "hit": false,
      "t": 69183.57199999988,
      "d": 191.32624999999825,
      "v": 83
    },
    {
      "midi": 60,
      "hit": false,
      "t": 69795.81599999988,
      "d": 213.64764583333454,
      "v": 83
    },
    {
      "midi": 65,
      "hit": false,
      "t": 69795.81599999988,
      "d": 239.15781249999418,
      "v": 83
    },
    {
      "midi": 68,
      "hit": false,
      "t": 69795.81599999988,
      "d": 242.3465833333321,
      "v": 83
    },
    {
      "midi": 67,
      "hit": false,
      "t": 70101.93799999988,
      "d": 184.94870833333698,
      "v": 83
    },
    {
      "midi": 63,
      "hit": false,
      "t": 70101.93799999988,
      "d": 220.02518750001036,
      "v": 83
    },
    {
      "midi": 58,
      "hit": false,
      "t": 70101.93799999988,
      "d": 226.40272916667163,
      "v": 83
    },
    {
      "midi": 65,
      "hit": false,
      "t": 70408.05999999988,
      "d": 188.13747916666034,
      "v": 83
    },
    {
      "midi": 56,
      "hit": false,
      "t": 70408.05999999988,
      "d": 210.45887499999662,
      "v": 83
    },
    {
      "midi": 62,
      "hit": false,
      "t": 70408.05999999988,
      "d": 223.21395833333372,
      "v": 83
    },
    {
      "midi": 55,
      "hit": false,
      "t": 70714.18199999988,
      "d": 191.32624999999825,
      "v": 83
    },
    {
      "midi": 60,
      "hit": false,
      "t": 70714.18199999988,
      "d": 213.64764583333454,
      "v": 83
    },
    {
      "midi": 63,
      "hit": false,
      "t": 70714.18199999988,
      "d": 226.40272916667163,
      "v": 83
    },
    {
      "midi": 67,
      "hit": false,
      "t": 71020.30399999989,
      "d": 749.3611458333326,
      "v": 83
    },
    {
      "midi": 58,
      "hit": false,
      "t": 71020.30399999989,
      "d": 794.0039375000051,
      "v": 83
    },
    {
      "midi": 63,
      "hit": false,
      "t": 71020.30399999989,
      "d": 825.8916458333406,
      "v": 83
    },
    {
      "midi": 62,
      "hit": false,
      "t": 71938.6699999999,
      "d": 570.7899791666714,
      "v": 83
    },
    {
      "midi": 58,
      "hit": false,
      "t": 71938.6699999999,
      "d": 583.5450625000085,
      "v": 83
    },
    {
      "midi": 65,
      "hit": false,
      "t": 71938.6699999999,
      "d": 583.5450625000085,
      "v": 83
    },
    {
      "midi": 58,
      "hit": false,
      "t": 72550.9139999999,
      "d": 255.1016666666692,
      "v": 83
    },
    {
      "midi": 62,
      "hit": false,
      "t": 72550.9139999999,
      "d": 267.8567500000063,
      "v": 83
    },
    {
      "midi": 65,
      "hit": false,
      "t": 72550.9139999999,
      "d": 267.8567500000063,
      "v": 83
    },
    {
      "midi": 58,
      "hit": false,
      "t": 72857.0359999999,
      "d": 255.1016666666692,
      "v": 83
    },
    {
      "midi": 62,
      "hit": false,
      "t": 72857.0359999999,
      "d": 255.1016666666692,
      "v": 83
    },
    {
      "midi": 65,
      "hit": false,
      "t": 72857.0359999999,
      "d": 255.1016666666692,
      "v": 83
    },
    {
      "midi": 58,
      "hit": false,
      "t": 73469.27999999991,
      "d": 191.32624999999825,
      "v": 83
    },
    {
      "midi": 63,
      "hit": false,
      "t": 73469.27999999991,
      "d": 191.32624999999825,
      "v": 83
    },
    {
      "midi": 67,
      "hit": false,
      "t": 73469.27999999991,
      "d": 191.32624999999825,
      "v": 83
    },
    {
      "midi": 58,
      "hit": false,
      "t": 74081.5239999999,
      "d": 191.32624999999825,
      "v": 83
    },
    {
      "midi": 63,
      "hit": false,
      "t": 74081.5239999999,
      "d": 191.32624999999825,
      "v": 83
    },
    {
      "midi": 67,
      "hit": false,
      "t": 74081.5239999999,
      "d": 191.32624999999825,
      "v": 83
    },
    {
      "midi": 58,
      "hit": false,
      "t": 74575.78347916657,
      "d": 306.122000000003,
      "v": 83
    },
    {
      "midi": 60,
      "hit": false,
      "t": 74575.78347916657,
      "d": 306.122000000003,
      "v": 83
    },
    {
      "midi": 63,
      "hit": false,
      "t": 74575.78347916657,
      "d": 306.122000000003,
      "v": 83
    },
    {
      "midi": 67,
      "hit": false,
      "t": 74575.78347916657,
      "d": 309.31077083334094,
      "v": 83
    },
    {
      "midi": 58,
      "hit": false,
      "t": 74999.88999999991,
      "d": 95.6631250000064,
      "v": 83
    },
    {
      "midi": 60,
      "hit": false,
      "t": 74999.88999999991,
      "d": 95.6631250000064,
      "v": 83
    },
    {
      "midi": 63,
      "hit": false,
      "t": 74999.88999999991,
      "d": 95.6631250000064,
      "v": 83
    },
    {
      "midi": 67,
      "hit": false,
      "t": 74999.88999999991,
      "d": 95.6631250000064,
      "v": 83
    },
    {
      "midi": 58,
      "hit": false,
      "t": 76224.37799999992,
      "d": 235.96904166667082,
      "v": 83
    },
    {
      "midi": 65,
      "hit": false,
      "t": 76224.37799999992,
      "d": 245.53535416667,
      "v": 83
    },
    {
      "midi": 62,
      "hit": false,
      "t": 76224.37799999992,
      "d": 248.72412500000792,
      "v": 83
    },
    {
      "midi": 62,
      "hit": false,
      "t": 76530.49999999993,
      "d": 248.72412499999336,
      "v": 83
    },
    {
      "midi": 58,
      "hit": false,
      "t": 76530.49999999993,
      "d": 251.91289583333128,
      "v": 83
    },
    {
      "midi": 63,
      "hit": false,
      "t": 76530.49999999993,
      "d": 251.91289583333128,
      "v": 83
    },
    {
      "midi": 67,
      "hit": false,
      "t": 76836.62199999993,
      "d": 532.5247291666601,
      "v": 83
    },
    {
      "midi": 63,
      "hit": false,
      "t": 76836.62199999993,
      "d": 542.0910416666593,
      "v": 83
    },
    {
      "midi": 58,
      "hit": false,
      "t": 76836.62199999993,
      "d": 545.2798124999972,
      "v": 83
    },
    {
      "midi": 67,
      "hit": false,
      "t": 77448.86599999992,
      "d": 220.0251874999958,
      "v": 83
    },
    {
      "midi": 63,
      "hit": false,
      "t": 77448.86599999992,
      "d": 235.96904166665627,
      "v": 83
    },
    {
      "midi": 60,
      "hit": false,
      "t": 77448.86599999992,
      "d": 242.34658333331754,
      "v": 83
    },
    {
      "midi": 56,
      "hit": false,
      "t": 77754.98799999991,
      "d": 204.08133333333535,
      "v": 83
    },
    {
      "midi": 60,
      "hit": false,
      "t": 77754.98799999991,
      "d": 207.27010416667326,
      "v": 83
    },
    {
      "midi": 65,
      "hit": false,
      "t": 77754.98799999991,
      "d": 248.72412500000792,
      "v": 83
    },
    {
      "midi": 67,
      "hit": false,
      "t": 78061.10999999991,
      "d": 220.0251874999958,
      "v": 83
    },
    {
      "midi": 58,
      "hit": false,
      "t": 78061.10999999991,
      "d": 226.40272916665708,
      "v": 83
    },
    {
      "midi": 62,
      "hit": false,
      "t": 78061.10999999991,
      "d": 248.72412499999336,
      "v": 83
    },
    {
      "midi": 68,
      "hit": false,
      "t": 78367.2319999999,
      "d": 2228.9508124999993,
      "v": 83
    },
    {
      "midi": 60,
      "hit": false,
      "t": 78367.2319999999,
      "d": 2235.3283541666606,
      "v": 83
    },
    {
      "midi": 65,
      "hit": false,
      "t": 78367.2319999999,
      "d": 2238.5171249999985,
      "v": 83
    },
    {
      "midi": 63,
      "hit": false,
      "t": 78367.2319999999,
      "d": 2244.8946666666598,
      "v": 83
    },
    {
      "midi": 56,
      "hit": false,
      "t": 80816.2079999999,
      "d": 2270.404833333334,
      "v": 83
    },
    {
      "midi": 68,
      "hit": false,
      "t": 80816.2079999999,
      "d": 2276.782374999995,
      "v": 83
    },
    {
      "midi": 61,
      "hit": false,
      "t": 80816.2079999999,
      "d": 2308.6700833333307,
      "v": 83
    },
    {
      "midi": 65,
      "hit": false,
      "t": 80816.2079999999,
      "d": 2315.047624999992,
      "v": 83
    },
    {
      "midi": 59,
      "hit": false,
      "t": 83265.18399999989,
      "d": 2267.216062499996,
      "v": 83
    },
    {
      "midi": 63,
      "hit": false,
      "t": 83265.18399999989,
      "d": 2299.1037708333315,
      "v": 83
    },
    {
      "midi": 65,
      "hit": false,
      "t": 83265.18399999989,
      "d": 2302.2925416666694,
      "v": 83
    },
    {
      "midi": 68,
      "hit": false,
      "t": 83265.18399999989,
      "d": 2308.6700833333307,
      "v": 83
    },
    {
      "midi": 58,
      "hit": false,
      "t": 85714.15999999989,
      "d": 2279.971145833333,
      "v": 83
    },
    {
      "midi": 67,
      "hit": false,
      "t": 85714.15999999989,
      "d": 2350.1241041666653,
      "v": 83
    },
    {
      "midi": 63,
      "hit": false,
      "t": 85714.15999999989,
      "d": 2372.4455000000016,
      "v": 83
    },
    {
      "midi": 59,
      "hit": false,
      "t": 88163.13599999988,
      "d": 2267.216062499996,
      "v": 83
    },
    {
      "midi": 63,
      "hit": false,
      "t": 88163.13599999988,
      "d": 2299.1037708333315,
      "v": 83
    },
    {
      "midi": 65,
      "hit": false,
      "t": 88163.13599999988,
      "d": 2302.2925416666694,
      "v": 83
    },
    {
      "midi": 68,
      "hit": false,
      "t": 88163.13599999988,
      "d": 2308.6700833333307,
      "v": 83
    },
    {
      "midi": 58,
      "hit": false,
      "t": 90612.11199999988,
      "d": 2279.971145833333,
      "v": 83
    },
    {
      "midi": 67,
      "hit": false,
      "t": 90612.11199999988,
      "d": 2350.1241041666653,
      "v": 83
    },
    {
      "midi": 63,
      "hit": false,
      "t": 90612.11199999988,
      "d": 2372.4455000000016,
      "v": 83
    },
    {
      "midi": 58,
      "hit": false,
      "t": 93061.08799999987,
      "d": 191.32624999999825,
      "v": 83
    },
    {
      "midi": 60,
      "hit": false,
      "t": 93061.08799999987,
      "d": 191.32624999999825,
      "v": 83
    },
    {
      "midi": 63,
      "hit": false,
      "t": 93061.08799999987,
      "d": 191.32624999999825,
      "v": 83
    },
    {
      "midi": 67,
      "hit": false,
      "t": 93061.08799999987,
      "d": 191.32624999999825,
      "v": 83
    },
    {
      "midi": 58,
      "hit": false,
      "t": 93673.33199999986,
      "d": 191.32624999999825,
      "v": 83
    },
    {
      "midi": 60,
      "hit": false,
      "t": 93673.33199999986,
      "d": 191.32624999999825,
      "v": 83
    },
    {
      "midi": 63,
      "hit": false,
      "t": 93673.33199999986,
      "d": 191.32624999999825,
      "v": 83
    },
    {
      "midi": 67,
      "hit": false,
      "t": 93673.33199999986,
      "d": 191.32624999999825,
      "v": 83
    },
    {
      "midi": 58,
      "hit": false,
      "t": 94167.59147916653,
      "d": 306.122000000003,
      "v": 83
    },
    {
      "midi": 60,
      "hit": false,
      "t": 94167.59147916653,
      "d": 306.122000000003,
      "v": 83
    },
    {
      "midi": 63,
      "hit": false,
      "t": 94167.59147916653,
      "d": 306.122000000003,
      "v": 83
    },
    {
      "midi": 67,
      "hit": false,
      "t": 94167.59147916653,
      "d": 309.31077083334094,
      "v": 83
    },
    {
      "midi": 58,
      "hit": false,
      "t": 94591.69799999987,
      "d": 95.6631250000064,
      "v": 83
    },
    {
      "midi": 60,
      "hit": false,
      "t": 94591.69799999987,
      "d": 95.6631250000064,
      "v": 83
    },
    {
      "midi": 63,
      "hit": false,
      "t": 94591.69799999987,
      "d": 95.6631250000064,
      "v": 83
    },
    {
      "midi": 67,
      "hit": false,
      "t": 94591.69799999987,
      "d": 95.6631250000064,
      "v": 83
    },
    {
      "midi": 58,
      "hit": false,
      "t": 95510.06399999988,
      "d": 191.32624999999825,
      "v": 83
    },
    {
      "midi": 62,
      "hit": false,
      "t": 95510.06399999988,
      "d": 191.32624999999825,
      "v": 83
    },
    {
      "midi": 65,
      "hit": false,
      "t": 95510.06399999988,
      "d": 194.51502083333617,
      "v": 83
    },
    {
      "midi": 58,
      "hit": false,
      "t": 96122.30799999989,
      "d": 191.32624999999825,
      "v": 83
    },
    {
      "midi": 62,
      "hit": false,
      "t": 96122.30799999989,
      "d": 191.32624999999825,
      "v": 83
    },
    {
      "midi": 65,
      "hit": false,
      "t": 96122.30799999989,
      "d": 191.32624999999825,
      "v": 83
    },
    {
      "midi": 57,
      "hit": false,
      "t": 96616.56747916655,
      "d": 299.7444583333272,
      "v": 83
    },
    {
      "midi": 60,
      "hit": false,
      "t": 96616.56747916655,
      "d": 309.3107708333264,
      "v": 83
    },
    {
      "midi": 65,
      "hit": false,
      "t": 96616.56747916655,
      "d": 312.4995416666643,
      "v": 83
    },
    {
      "midi": 57,
      "hit": false,
      "t": 97040.67399999988,
      "d": 95.6631250000064,
      "v": 83
    },
    {
      "midi": 60,
      "hit": false,
      "t": 97040.67399999988,
      "d": 95.6631250000064,
      "v": 83
    },
    {
      "midi": 65,
      "hit": false,
      "t": 97040.67399999988,
      "d": 95.6631250000064,
      "v": 83
    },
    {
      "midi": 58,
      "hit": false,
      "t": 97959.03999999989,
      "d": 191.32624999999825,
      "v": 83
    },
    {
      "midi": 60,
      "hit": false,
      "t": 97959.03999999989,
      "d": 191.32624999999825,
      "v": 83
    },
    {
      "midi": 63,
      "hit": false,
      "t": 97959.03999999989,
      "d": 191.32624999999825,
      "v": 83
    },
    {
      "midi": 67,
      "hit": false,
      "t": 97959.03999999989,
      "d": 191.32624999999825,
      "v": 83
    },
    {
      "midi": 58,
      "hit": false,
      "t": 98571.28399999988,
      "d": 191.32624999999825,
      "v": 83
    },
    {
      "midi": 60,
      "hit": false,
      "t": 98571.28399999988,
      "d": 191.32624999999825,
      "v": 83
    },
    {
      "midi": 63,
      "hit": false,
      "t": 98571.28399999988,
      "d": 191.32624999999825,
      "v": 83
    },
    {
      "midi": 67,
      "hit": false,
      "t": 98571.28399999988,
      "d": 191.32624999999825,
      "v": 83
    },
    {
      "midi": 58,
      "hit": false,
      "t": 99065.54347916655,
      "d": 306.122000000003,
      "v": 83
    },
    {
      "midi": 60,
      "hit": false,
      "t": 99065.54347916655,
      "d": 306.122000000003,
      "v": 83
    },
    {
      "midi": 63,
      "hit": false,
      "t": 99065.54347916655,
      "d": 306.122000000003,
      "v": 83
    },
    {
      "midi": 67,
      "hit": false,
      "t": 99065.54347916655,
      "d": 309.31077083334094,
      "v": 83
    },
    {
      "midi": 58,
      "hit": false,
      "t": 99489.64999999989,
      "d": 95.6631250000064,
      "v": 83
    },
    {
      "midi": 60,
      "hit": false,
      "t": 99489.64999999989,
      "d": 95.6631250000064,
      "v": 83
    },
    {
      "midi": 63,
      "hit": false,
      "t": 99489.64999999989,
      "d": 95.6631250000064,
      "v": 83
    },
    {
      "midi": 67,
      "hit": false,
      "t": 99489.64999999989,
      "d": 95.6631250000064,
      "v": 83
    },
    {
      "midi": 58,
      "hit": false,
      "t": 100408.0159999999,
      "d": 191.32624999999825,
      "v": 83
    },
    {
      "midi": 62,
      "hit": false,
      "t": 100408.0159999999,
      "d": 191.32624999999825,
      "v": 83
    },
    {
      "midi": 65,
      "hit": false,
      "t": 100408.0159999999,
      "d": 194.51502083333617,
      "v": 83
    },
    {
      "midi": 58,
      "hit": false,
      "t": 101020.25999999991,
      "d": 191.32624999999825,
      "v": 83
    },
    {
      "midi": 62,
      "hit": false,
      "t": 101020.25999999991,
      "d": 191.32624999999825,
      "v": 83
    },
    {
      "midi": 65,
      "hit": false,
      "t": 101020.25999999991,
      "d": 191.32624999999825,
      "v": 83
    },
    {
      "midi": 48,
      "hit": false,
      "t": 101492.19808333332,
      "d": 296.55568750000384,
      "v": 93
    },
    {
      "midi": 57,
      "hit": false,
      "t": 101514.51947916657,
      "d": 299.7444583333272,
      "v": 83
    },
    {
      "midi": 60,
      "hit": false,
      "t": 101514.51947916657,
      "d": 309.3107708333264,
      "v": 83
    },
    {
      "midi": 65,
      "hit": false,
      "t": 101514.51947916657,
      "d": 312.4995416666643,
      "v": 83
    },
    {
      "midi": 58,
      "hit": false,
      "t": 101632.50399999999,
      "d": 258.2904375000071,
      "v": 75
    },
    {
      "midi": 60,
      "hit": false,
      "t": 101775.99868749999,
      "d": 178.57116666666116,
      "v": 82
    },
    {
      "midi": 63,
      "hit": false,
      "t": 101929.05968749999,
      "d": 156.24977083332487,
      "v": 72
    },
    {
      "midi": 57,
      "hit": false,
      "t": 101938.6259999999,
      "d": 95.6631250000064,
      "v": 83
    },
    {
      "midi": 60,
      "hit": false,
      "t": 101938.6259999999,
      "d": 95.6631250000064,
      "v": 83
    },
    {
      "midi": 65,
      "hit": false,
      "t": 101938.6259999999,
      "d": 95.6631250000064,
      "v": 83
    },
    {
      "midi": 67,
      "hit": false,
      "t": 102078.93191666665,
      "d": 153.0610000000015,
      "v": 91
    },
    {
      "midi": 70,
      "hit": false,
      "t": 102231.99291666666,
      "d": 149.8722291666636,
      "v": 75
    },
    {
      "midi": 72,
      "hit": false,
      "t": 102391.43145833332,
      "d": 127.55083333332732,
      "v": 91
    },
    {
      "midi": 75,
      "hit": false,
      "t": 102538.11491666664,
      "d": 105.22943750000559,
      "v": 64
    },
    {
      "midi": 79,
      "hit": false,
      "t": 102697.55345833332,
      "d": 127.55083333332732,
      "v": 82
    },
    {
      "midi": 84,
      "hit": false,
      "t": 102844.23691666665,
      "d": 615.4327708333294,
      "v": 109
    },
    {
      "midi": 58,
      "hit": false,
      "t": 102856.99199999991,
      "d": 191.32624999999825,
      "v": 83
    },
    {
      "midi": 60,
      "hit": false,
      "t": 102856.99199999991,
      "d": 191.32624999999825,
      "v": 83
    },
    {
      "midi": 63,
      "hit": false,
      "t": 102856.99199999991,
      "d": 191.32624999999825,
      "v": 83
    },
    {
      "midi": 67,
      "hit": false,
      "t": 102856.99199999991,
      "d": 191.32624999999825,
      "v": 83
    },
    {
      "midi": 58,
      "hit": false,
      "t": 103469.2359999999,
      "d": 191.32624999999825,
      "v": 83
    },
    {
      "midi": 60,
      "hit": false,
      "t": 103469.2359999999,
      "d": 191.32624999999825,
      "v": 83
    },
    {
      "midi": 63,
      "hit": false,
      "t": 103469.2359999999,
      "d": 191.32624999999825,
      "v": 83
    },
    {
      "midi": 67,
      "hit": false,
      "t": 103469.2359999999,
      "d": 191.32624999999825,
      "v": 83
    },
    {
      "midi": 58,
      "hit": false,
      "t": 103963.49547916657,
      "d": 306.122000000003,
      "v": 83
    },
    {
      "midi": 60,
      "hit": false,
      "t": 103963.49547916657,
      "d": 306.122000000003,
      "v": 83
    },
    {
      "midi": 63,
      "hit": false,
      "t": 103963.49547916657,
      "d": 306.122000000003,
      "v": 83
    },
    {
      "midi": 67,
      "hit": false,
      "t": 103963.49547916657,
      "d": 309.31077083334094,
      "v": 83
    },
    {
      "midi": 82,
      "hit": false,
      "t": 104078.29122916664,
      "d": 1100.1259374999936,
      "v": 73
    },
    {
      "midi": 58,
      "hit": false,
      "t": 104387.60199999991,
      "d": 95.6631250000064,
      "v": 83
    },
    {
      "midi": 60,
      "hit": false,
      "t": 104387.60199999991,
      "d": 95.6631250000064,
      "v": 83
    },
    {
      "midi": 63,
      "hit": false,
      "t": 104387.60199999991,
      "d": 95.6631250000064,
      "v": 83
    },
    {
      "midi": 67,
      "hit": false,
      "t": 104387.60199999991,
      "d": 95.6631250000064,
      "v": 83
    },
    {
      "midi": 80,
      "hit": false,
      "t": 105290.0241458333,
      "d": 1128.8248750000057,
      "v": 82
    },
    {
      "midi": 58,
      "hit": false,
      "t": 105305.96799999992,
      "d": 191.32624999999825,
      "v": 83
    },
    {
      "midi": 60,
      "hit": false,
      "t": 105305.96799999992,
      "d": 191.32624999999825,
      "v": 83
    },
    {
      "midi": 63,
      "hit": false,
      "t": 105305.96799999992,
      "d": 191.32624999999825,
      "v": 83
    },
    {
      "midi": 67,
      "hit": false,
      "t": 105305.96799999992,
      "d": 191.32624999999825,
      "v": 83
    },
    {
      "midi": 58,
      "hit": false,
      "t": 105918.21199999991,
      "d": 191.32624999999825,
      "v": 83
    },
    {
      "midi": 60,
      "hit": false,
      "t": 105918.21199999991,
      "d": 191.32624999999825,
      "v": 83
    },
    {
      "midi": 63,
      "hit": false,
      "t": 105918.21199999991,
      "d": 191.32624999999825,
      "v": 83
    },
    {
      "midi": 67,
      "hit": false,
      "t": 105918.21199999991,
      "d": 191.32624999999825,
      "v": 83
    },
    {
      "midi": 58,
      "hit": false,
      "t": 106412.47147916658,
      "d": 306.122000000003,
      "v": 83
    },
    {
      "midi": 60,
      "hit": false,
      "t": 106412.47147916658,
      "d": 306.122000000003,
      "v": 83
    },
    {
      "midi": 63,
      "hit": false,
      "t": 106412.47147916658,
      "d": 306.122000000003,
      "v": 83
    },
    {
      "midi": 67,
      "hit": false,
      "t": 106412.47147916658,
      "d": 309.31077083334094,
      "v": 83
    },
    {
      "midi": 79,
      "hit": false,
      "t": 106540.02231249998,
      "d": 1141.5799583333282,
      "v": 56
    },
    {
      "midi": 58,
      "hit": false,
      "t": 106836.57799999992,
      "d": 95.6631250000064,
      "v": 83
    },
    {
      "midi": 60,
      "hit": false,
      "t": 106836.57799999992,
      "d": 95.6631250000064,
      "v": 83
    },
    {
      "midi": 63,
      "hit": false,
      "t": 106836.57799999992,
      "d": 95.6631250000064,
      "v": 83
    },
    {
      "midi": 67,
      "hit": false,
      "t": 106836.57799999992,
      "d": 95.6631250000064,
      "v": 83
    },
    {
      "midi": 60,
      "hit": false,
      "t": 107754.94399999993,
      "d": 191.32624999999825,
      "v": 83
    },
    {
      "midi": 63,
      "hit": false,
      "t": 107754.94399999993,
      "d": 191.32624999999825,
      "v": 83
    },
    {
      "midi": 65,
      "hit": false,
      "t": 107754.94399999993,
      "d": 191.32624999999825,
      "v": 83
    },
    {
      "midi": 68,
      "hit": false,
      "t": 107754.94399999993,
      "d": 191.32624999999825,
      "v": 83
    },
    {
      "midi": 60,
      "hit": false,
      "t": 108367.18799999992,
      "d": 191.32624999999825,
      "v": 83
    },
    {
      "midi": 63,
      "hit": false,
      "t": 108367.18799999992,
      "d": 191.32624999999825,
      "v": 83
    },
    {
      "midi": 65,
      "hit": false,
      "t": 108367.18799999992,
      "d": 191.32624999999825,
      "v": 83
    },
    {
      "midi": 68,
      "hit": false,
      "t": 108367.18799999992,
      "d": 191.32624999999825,
      "v": 83
    },
    {
      "midi": 60,
      "hit": false,
      "t": 108861.44747916659,
      "d": 306.122000000003,
      "v": 83
    },
    {
      "midi": 63,
      "hit": false,
      "t": 108861.44747916659,
      "d": 306.122000000003,
      "v": 83
    },
    {
      "midi": 65,
      "hit": false,
      "t": 108861.44747916659,
      "d": 306.122000000003,
      "v": 83
    },
    {
      "midi": 68,
      "hit": false,
      "t": 108861.44747916659,
      "d": 309.31077083334094,
      "v": 83
    },
    {
      "midi": 60,
      "hit": false,
      "t": 109285.55399999993,
      "d": 95.6631250000064,
      "v": 83
    },
    {
      "midi": 63,
      "hit": false,
      "t": 109285.55399999993,
      "d": 95.6631250000064,
      "v": 83
    },
    {
      "midi": 65,
      "hit": false,
      "t": 109285.55399999993,
      "d": 95.6631250000064,
      "v": 83
    },
    {
      "midi": 68,
      "hit": false,
      "t": 109285.55399999993,
      "d": 95.6631250000064,
      "v": 83
    },
    {
      "midi": 58,
      "hit": false,
      "t": 110203.91999999994,
      "d": 191.32624999999825,
      "v": 83
    },
    {
      "midi": 63,
      "hit": false,
      "t": 110203.91999999994,
      "d": 191.32624999999825,
      "v": 83
    },
    {
      "midi": 65,
      "hit": false,
      "t": 110203.91999999994,
      "d": 191.32624999999825,
      "v": 83
    },
    {
      "midi": 68,
      "hit": false,
      "t": 110203.91999999994,
      "d": 191.32624999999825,
      "v": 83
    },
    {
      "midi": 58,
      "hit": false,
      "t": 110816.16399999993,
      "d": 191.32624999999825,
      "v": 83
    },
    {
      "midi": 63,
      "hit": false,
      "t": 110816.16399999993,
      "d": 191.32624999999825,
      "v": 83
    },
    {
      "midi": 65,
      "hit": false,
      "t": 110816.16399999993,
      "d": 191.32624999999825,
      "v": 83
    },
    {
      "midi": 68,
      "hit": false,
      "t": 110816.16399999993,
      "d": 191.32624999999825,
      "v": 83
    },
    {
      "midi": 58,
      "hit": false,
      "t": 111310.4234791666,
      "d": 306.122000000003,
      "v": 83
    },
    {
      "midi": 63,
      "hit": false,
      "t": 111310.4234791666,
      "d": 306.122000000003,
      "v": 83
    },
    {
      "midi": 68,
      "hit": false,
      "t": 111310.4234791666,
      "d": 306.122000000003,
      "v": 83
    },
    {
      "midi": 65,
      "hit": false,
      "t": 111310.4234791666,
      "d": 309.31077083334094,
      "v": 83
    },
    {
      "midi": 58,
      "hit": false,
      "t": 111734.52999999994,
      "d": 95.6631250000064,
      "v": 83
    },
    {
      "midi": 63,
      "hit": false,
      "t": 111734.52999999994,
      "d": 95.6631250000064,
      "v": 83
    },
    {
      "midi": 65,
      "hit": false,
      "t": 111734.52999999994,
      "d": 95.6631250000064,
      "v": 83
    },
    {
      "midi": 68,
      "hit": false,
      "t": 111734.52999999994,
      "d": 95.6631250000064,
      "v": 83
    },
    {
      "midi": 58,
      "hit": false,
      "t": 112652.89599999995,
      "d": 191.32624999999825,
      "v": 83
    },
    {
      "midi": 63,
      "hit": false,
      "t": 112652.89599999995,
      "d": 191.32624999999825,
      "v": 83
    },
    {
      "midi": 65,
      "hit": false,
      "t": 112652.89599999995,
      "d": 191.32624999999825,
      "v": 83
    },
    {
      "midi": 74,
      "hit": false,
      "t": 112652.89599999996,
      "d": 277.42306250000547,
      "v": 60
    },
    {
      "midi": 86,
      "hit": false,
      "t": 112662.46231249996,
      "d": 216.83641666667245,
      "v": 74
    },
    {
      "midi": 70,
      "hit": false,
      "t": 112968.58431249997,
      "d": 213.64764583333454,
      "v": 58
    },
    {
      "midi": 82,
      "hit": false,
      "t": 112974.96185416663,
      "d": 210.45887500001118,
      "v": 73
    },
    {
      "midi": 58,
      "hit": false,
      "t": 113265.13999999994,
      "d": 191.32624999999825,
      "v": 83
    },
    {
      "midi": 63,
      "hit": false,
      "t": 113265.13999999994,
      "d": 191.32624999999825,
      "v": 83
    },
    {
      "midi": 65,
      "hit": false,
      "t": 113265.13999999994,
      "d": 191.32624999999825,
      "v": 83
    },
    {
      "midi": 84,
      "hit": false,
      "t": 113268.32877083331,
      "d": 197.70379166667408,
      "v": 73
    },
    {
      "midi": 72,
      "hit": false,
      "t": 113271.51754166665,
      "d": 213.64764583333454,
      "v": 82
    },
    {
      "midi": 74,
      "hit": false,
      "t": 113571.26199999999,
      "d": 220.0251874999958,
      "v": 73
    },
    {
      "midi": 86,
      "hit": false,
      "t": 113574.45077083333,
      "d": 191.32624999999825,
      "v": 73
    },
    {
      "midi": 58,
      "hit": false,
      "t": 113759.3994791666,
      "d": 306.122000000003,
      "v": 83
    },
    {
      "midi": 63,
      "hit": false,
      "t": 113759.3994791666,
      "d": 306.122000000003,
      "v": 83
    },
    {
      "midi": 65,
      "hit": false,
      "t": 113759.3994791666,
      "d": 309.31077083334094,
      "v": 83
    },
    {
      "midi": 75,
      "hit": false,
      "t": 113864.62891666665,
      "d": 235.96904166667082,
      "v": 73
    },
    {
      "midi": 87,
      "hit": false,
      "t": 113871.00645833332,
      "d": 216.83641666667245,
      "v": 73
    },
    {
      "midi": 89,
      "hit": false,
      "t": 114170.75091666666,
      "d": 229.591499999995,
      "v": 67
    },
    {
      "midi": 77,
      "hit": false,
      "t": 114177.12845833332,
      "d": 207.27010416667326,
      "v": 64
    },
    {
      "midi": 58,
      "hit": false,
      "t": 114183.50599999995,
      "d": 95.6631250000064,
      "v": 83
    },
    {
      "midi": 63,
      "hit": false,
      "t": 114183.50599999995,
      "d": 95.6631250000064,
      "v": 83
    },
    {
      "midi": 65,
      "hit": false,
      "t": 114183.50599999995,
      "d": 95.6631250000064,
      "v": 83
    },
    {
      "midi": 79,
      "hit": false,
      "t": 114486.43922916666,
      "d": 213.64764583333454,
      "v": 82
    },
    {
      "midi": 91,
      "hit": false,
      "t": 114486.43922916666,
      "d": 226.40272916667163,
      "v": 60
    },
    {
      "midi": 80,
      "hit": false,
      "t": 114792.56122916666,
      "d": 226.40272916665708,
      "v": 73
    },
    {
      "midi": 92,
      "hit": false,
      "t": 114802.12754166666,
      "d": 210.45887499999662,
      "v": 82
    },
    {
      "midi": 58,
      "hit": false,
      "t": 115101.87199999996,
      "d": 191.32624999999825,
      "v": 83
    },
    {
      "midi": 63,
      "hit": false,
      "t": 115101.87199999996,
      "d": 191.32624999999825,
      "v": 83
    },
    {
      "midi": 67,
      "hit": false,
      "t": 115101.87199999996,
      "d": 191.32624999999825,
      "v": 83
    },
    {
      "midi": 58,
      "hit": false,
      "t": 115714.11599999995,
      "d": 191.32624999999825,
      "v": 83
    },
    {
      "midi": 63,
      "hit": false,
      "t": 115714.11599999995,
      "d": 191.32624999999825,
      "v": 83
    },
    {
      "midi": 67,
      "hit": false,
      "t": 115714.11599999995,
      "d": 191.32624999999825,
      "v": 83
    },
    {
      "midi": 58,
      "hit": false,
      "t": 116208.37547916661,
      "d": 306.122000000003,
      "v": 83
    },
    {
      "midi": 60,
      "hit": false,
      "t": 116208.37547916661,
      "d": 306.122000000003,
      "v": 83
    },
    {
      "midi": 63,
      "hit": false,
      "t": 116208.37547916661,
      "d": 306.122000000003,
      "v": 83
    },
    {
      "midi": 67,
      "hit": false,
      "t": 116208.37547916661,
      "d": 309.31077083334094,
      "v": 83
    },
    {
      "midi": 58,
      "hit": false,
      "t": 116632.48199999996,
      "d": 95.6631250000064,
      "v": 83
    },
    {
      "midi": 60,
      "hit": false,
      "t": 116632.48199999996,
      "d": 95.6631250000064,
      "v": 83
    },
    {
      "midi": 63,
      "hit": false,
      "t": 116632.48199999996,
      "d": 95.6631250000064,
      "v": 83
    },
    {
      "midi": 67,
      "hit": false,
      "t": 116632.48199999996,
      "d": 95.6631250000064,
      "v": 83
    },
    {
      "midi": 58,
      "hit": false,
      "t": 117550.84799999997,
      "d": 191.32624999999825,
      "v": 83
    },
    {
      "midi": 63,
      "hit": false,
      "t": 117550.84799999997,
      "d": 191.32624999999825,
      "v": 83
    },
    {
      "midi": 65,
      "hit": false,
      "t": 117550.84799999997,
      "d": 191.32624999999825,
      "v": 83
    },
    {
      "midi": 58,
      "hit": false,
      "t": 118163.09199999996,
      "d": 191.32624999999825,
      "v": 83
    },
    {
      "midi": 63,
      "hit": false,
      "t": 118163.09199999996,
      "d": 191.32624999999825,
      "v": 83
    },
    {
      "midi": 65,
      "hit": false,
      "t": 118163.09199999996,
      "d": 191.32624999999825,
      "v": 83
    },
    {
      "midi": 58,
      "hit": false,
      "t": 118657.35147916662,
      "d": 306.122000000003,
      "v": 83
    },
    {
      "midi": 62,
      "hit": false,
      "t": 118657.35147916662,
      "d": 306.122000000003,
      "v": 83
    },
    {
      "midi": 65,
      "hit": false,
      "t": 118657.35147916662,
      "d": 306.122000000003,
      "v": 83
    },
    {
      "midi": 58,
      "hit": false,
      "t": 119081.45799999996,
      "d": 95.6631250000064,
      "v": 83
    },
    {
      "midi": 62,
      "hit": false,
      "t": 119081.45799999996,
      "d": 95.6631250000064,
      "v": 83
    },
    {
      "midi": 65,
      "hit": false,
      "t": 119081.45799999996,
      "d": 95.6631250000064,
      "v": 83
    },
    {
      "midi": 58,
      "hit": false,
      "t": 119999.82399999996,
      "d": 191.32624999999825,
      "v": 83
    },
    {
      "midi": 63,
      "hit": false,
      "t": 119999.82399999996,
      "d": 191.32624999999825,
      "v": 83
    },
    {
      "midi": 67,
      "hit": false,
      "t": 119999.82399999996,
      "d": 191.32624999999825,
      "v": 83
    },
    {
      "midi": 58,
      "hit": false,
      "t": 120612.06799999996,
      "d": 191.32624999999825,
      "v": 83
    },
    {
      "midi": 63,
      "hit": false,
      "t": 120612.06799999996,
      "d": 191.32624999999825,
      "v": 83
    },
    {
      "midi": 67,
      "hit": false,
      "t": 120612.06799999996,
      "d": 191.32624999999825,
      "v": 83
    },
    {
      "midi": 60,
      "hit": false,
      "t": 121224.31199999995,
      "d": 213.64764583333454,
      "v": 83
    },
    {
      "midi": 65,
      "hit": false,
      "t": 121224.31199999995,
      "d": 239.15781249999418,
      "v": 83
    },
    {
      "midi": 68,
      "hit": false,
      "t": 121224.31199999995,
      "d": 242.3465833333321,
      "v": 83
    },
    {
      "midi": 67,
      "hit": false,
      "t": 121530.43399999995,
      "d": 184.94870833333698,
      "v": 83
    },
    {
      "midi": 63,
      "hit": false,
      "t": 121530.43399999995,
      "d": 220.02518750001036,
      "v": 83
    },
    {
      "midi": 58,
      "hit": false,
      "t": 121530.43399999995,
      "d": 226.40272916667163,
      "v": 83
    },
    {
      "midi": 65,
      "hit": false,
      "t": 121836.55599999995,
      "d": 188.13747916666034,
      "v": 83
    },
    {
      "midi": 56,
      "hit": false,
      "t": 121836.55599999995,
      "d": 210.45887499999662,
      "v": 83
    },
    {
      "midi": 62,
      "hit": false,
      "t": 121836.55599999995,
      "d": 223.21395833333372,
      "v": 83
    },
    {
      "midi": 55,
      "hit": false,
      "t": 122142.67799999996,
      "d": 191.32624999999825,
      "v": 83
    },
    {
      "midi": 60,
      "hit": false,
      "t": 122142.67799999996,
      "d": 213.64764583333454,
      "v": 83
    },
    {
      "midi": 63,
      "hit": false,
      "t": 122142.67799999996,
      "d": 226.40272916667163,
      "v": 83
    },
    {
      "midi": 67,
      "hit": false,
      "t": 122448.79999999996,
      "d": 749.3611458333326,
      "v": 83
    },
    {
      "midi": 58,
      "hit": false,
      "t": 122448.79999999996,
      "d": 794.0039375000051,
      "v": 83
    },
    {
      "midi": 63,
      "hit": false,
      "t": 122448.79999999996,
      "d": 825.8916458333406,
      "v": 83
    },
    {
      "midi": 62,
      "hit": false,
      "t": 123367.16599999997,
      "d": 570.7899791666714,
      "v": 83
    },
    {
      "midi": 58,
      "hit": false,
      "t": 123367.16599999997,
      "d": 583.5450625000085,
      "v": 83
    },
    {
      "midi": 65,
      "hit": false,
      "t": 123367.16599999997,
      "d": 583.5450625000085,
      "v": 83
    },
    {
      "midi": 58,
      "hit": false,
      "t": 123979.40999999997,
      "d": 255.1016666666692,
      "v": 83
    },
    {
      "midi": 62,
      "hit": false,
      "t": 123979.40999999997,
      "d": 267.8567500000063,
      "v": 83
    },
    {
      "midi": 65,
      "hit": false,
      "t": 123979.40999999997,
      "d": 267.8567500000063,
      "v": 83
    },
    {
      "midi": 58,
      "hit": false,
      "t": 124285.53199999998,
      "d": 255.1016666666692,
      "v": 83
    },
    {
      "midi": 62,
      "hit": false,
      "t": 124285.53199999998,
      "d": 255.1016666666692,
      "v": 83
    },
    {
      "midi": 65,
      "hit": false,
      "t": 124285.53199999998,
      "d": 255.1016666666692,
      "v": 83
    },
    {
      "midi": 58,
      "hit": false,
      "t": 124897.77599999998,
      "d": 191.32624999999825,
      "v": 83
    },
    {
      "midi": 63,
      "hit": false,
      "t": 124897.77599999998,
      "d": 191.32624999999825,
      "v": 83
    },
    {
      "midi": 67,
      "hit": false,
      "t": 124897.77599999998,
      "d": 191.32624999999825,
      "v": 83
    },
    {
      "midi": 58,
      "hit": false,
      "t": 125510.01999999997,
      "d": 191.32624999999825,
      "v": 83
    },
    {
      "midi": 63,
      "hit": false,
      "t": 125510.01999999997,
      "d": 191.32624999999825,
      "v": 83
    },
    {
      "midi": 67,
      "hit": false,
      "t": 125510.01999999997,
      "d": 191.32624999999825,
      "v": 83
    },
    {
      "midi": 58,
      "hit": false,
      "t": 126004.27947916664,
      "d": 306.122000000003,
      "v": 83
    },
    {
      "midi": 60,
      "hit": false,
      "t": 126004.27947916664,
      "d": 306.122000000003,
      "v": 83
    },
    {
      "midi": 63,
      "hit": false,
      "t": 126004.27947916664,
      "d": 306.122000000003,
      "v": 83
    },
    {
      "midi": 67,
      "hit": false,
      "t": 126004.27947916664,
      "d": 309.31077083334094,
      "v": 83
    },
    {
      "midi": 58,
      "hit": false,
      "t": 126428.38599999998,
      "d": 95.6631250000064,
      "v": 83
    },
    {
      "midi": 60,
      "hit": false,
      "t": 126428.38599999998,
      "d": 95.6631250000064,
      "v": 83
    },
    {
      "midi": 63,
      "hit": false,
      "t": 126428.38599999998,
      "d": 95.6631250000064,
      "v": 83
    },
    {
      "midi": 67,
      "hit": false,
      "t": 126428.38599999998,
      "d": 95.6631250000064,
      "v": 83
    },
    {
      "midi": 58,
      "hit": false,
      "t": 127652.874,
      "d": 235.96904166667082,
      "v": 83
    },
    {
      "midi": 65,
      "hit": false,
      "t": 127652.874,
      "d": 245.53535416667,
      "v": 83
    },
    {
      "midi": 62,
      "hit": false,
      "t": 127652.874,
      "d": 248.72412500000792,
      "v": 83
    },
    {
      "midi": 62,
      "hit": false,
      "t": 127958.996,
      "d": 248.72412499999336,
      "v": 83
    },
    {
      "midi": 58,
      "hit": false,
      "t": 127958.996,
      "d": 251.91289583333128,
      "v": 83
    },
    {
      "midi": 63,
      "hit": false,
      "t": 127958.996,
      "d": 251.91289583333128,
      "v": 83
    },
    {
      "midi": 67,
      "hit": false,
      "t": 128265.118,
      "d": 532.5247291666601,
      "v": 83
    },
    {
      "midi": 63,
      "hit": false,
      "t": 128265.118,
      "d": 542.0910416666593,
      "v": 83
    },
    {
      "midi": 58,
      "hit": false,
      "t": 128265.118,
      "d": 545.2798124999972,
      "v": 83
    },
    {
      "midi": 67,
      "hit": false,
      "t": 128877.362,
      "d": 220.0251874999958,
      "v": 83
    },
    {
      "midi": 63,
      "hit": false,
      "t": 128877.362,
      "d": 235.96904166665627,
      "v": 83
    },
    {
      "midi": 60,
      "hit": false,
      "t": 128877.362,
      "d": 242.34658333331754,
      "v": 83
    },
    {
      "midi": 56,
      "hit": false,
      "t": 129183.48399999998,
      "d": 204.08133333333535,
      "v": 83
    },
    {
      "midi": 60,
      "hit": false,
      "t": 129183.48399999998,
      "d": 207.27010416667326,
      "v": 83
    },
    {
      "midi": 65,
      "hit": false,
      "t": 129183.48399999998,
      "d": 248.72412500000792,
      "v": 83
    },
    {
      "midi": 67,
      "hit": false,
      "t": 129489.60599999999,
      "d": 220.0251874999958,
      "v": 83
    },
    {
      "midi": 58,
      "hit": false,
      "t": 129489.60599999999,
      "d": 226.40272916665708,
      "v": 83
    },
    {
      "midi": 62,
      "hit": false,
      "t": 129489.60599999999,
      "d": 248.72412499999336,
      "v": 83
    },
    {
      "midi": 68,
      "hit": false,
      "t": 129795.72799999997,
      "d": 2228.9508124999993,
      "v": 83
    },
    {
      "midi": 60,
      "hit": false,
      "t": 129795.72799999997,
      "d": 2235.328354166675,
      "v": 83
    },
    {
      "midi": 65,
      "hit": false,
      "t": 129795.72799999997,
      "d": 2238.517125000013,
      "v": 83
    },
    {
      "midi": 63,
      "hit": false,
      "t": 129795.72799999997,
      "d": 2244.894666666689,
      "v": 83
    },
    {
      "midi": 56,
      "hit": false,
      "t": 132244.704,
      "d": 2270.404833333334,
      "v": 83
    },
    {
      "midi": 68,
      "hit": false,
      "t": 132244.704,
      "d": 2276.78237500001,
      "v": 83
    },
    {
      "midi": 61,
      "hit": false,
      "t": 132244.704,
      "d": 2308.6700833333307,
      "v": 83
    },
    {
      "midi": 65,
      "hit": false,
      "t": 132244.704,
      "d": 2315.0476250000065,
      "v": 83
    },
    {
      "midi": 59,
      "hit": false,
      "t": 134693.68,
      "d": 2267.216062499996,
      "v": 83
    },
    {
      "midi": 63,
      "hit": false,
      "t": 134693.68,
      "d": 2299.103770833317,
      "v": 83
    },
    {
      "midi": 65,
      "hit": false,
      "t": 134693.68,
      "d": 2302.292541666655,
      "v": 83
    },
    {
      "midi": 68,
      "hit": false,
      "t": 134693.68,
      "d": 2308.6700833333307,
      "v": 83
    },
    {
      "midi": 58,
      "hit": false,
      "t": 137142.656,
      "d": 191.3262500000128,
      "v": 83
    },
    {
      "midi": 63,
      "hit": false,
      "t": 137142.656,
      "d": 191.3262500000128,
      "v": 83
    },
    {
      "midi": 67,
      "hit": false,
      "t": 137142.656,
      "d": 191.3262500000128,
      "v": 83
    },
    {
      "midi": 58,
      "hit": false,
      "t": 137754.9,
      "d": 191.3262500000128,
      "v": 83
    },
    {
      "midi": 63,
      "hit": false,
      "t": 137754.9,
      "d": 191.3262500000128,
      "v": 83
    },
    {
      "midi": 67,
      "hit": false,
      "t": 137754.9,
      "d": 191.3262500000128,
      "v": 83
    },
    {
      "midi": 58,
      "hit": false,
      "t": 138249.15947916667,
      "d": 306.122000000003,
      "v": 83
    },
    {
      "midi": 63,
      "hit": false,
      "t": 138249.15947916667,
      "d": 306.122000000003,
      "v": 83
    },
    {
      "midi": 67,
      "hit": false,
      "t": 138249.15947916667,
      "d": 309.31077083334094,
      "v": 83
    },
    {
      "midi": 58,
      "hit": false,
      "t": 138673.266,
      "d": 95.66312499999185,
      "v": 83
    },
    {
      "midi": 63,
      "hit": false,
      "t": 138673.266,
      "d": 95.66312499999185,
      "v": 83
    },
    {
      "midi": 67,
      "hit": false,
      "t": 138673.266,
      "d": 95.66312499999185,
      "v": 83
    },
    {
      "midi": 66,
      "hit": false,
      "t": 139591.63199999998,
      "d": 1517.8549166666635,
      "v": 83
    },
    {
      "midi": 58,
      "hit": false,
      "t": 139591.63199999998,
      "d": 2238.517124999984,
      "v": 83
    },
    {
      "midi": 61,
      "hit": false,
      "t": 139591.63199999998,
      "d": 2264.027291666658,
      "v": 83
    },
    {
      "midi": 68,
      "hit": false,
      "t": 141122.24199999997,
      "d": 896.0446041666728,
      "v": 83
    },
    {
      "midi": 65,
      "hit": false,
      "t": 142040.60799999998,
      "d": 1399.8703958333354,
      "v": 83
    },
    {
      "midi": 56,
      "hit": false,
      "t": 142040.60799999998,
      "d": 1419.0030208333337,
      "v": 83
    },
    {
      "midi": 61,
      "hit": false,
      "t": 142040.60799999998,
      "d": 1450.8907291666546,
      "v": 83
    },
    {
      "midi": 61,
      "hit": false,
      "t": 143571.21799999996,
      "d": 229.59150000000955,
      "v": 83
    },
    {
      "midi": 56,
      "hit": false,
      "t": 143571.21799999996,
      "d": 255.10166666668374,
      "v": 83
    },
    {
      "midi": 65,
      "hit": false,
      "t": 143571.21799999996,
      "d": 427.2952916666982,
      "v": 83
    },
    {
      "midi": 61,
      "hit": false,
      "t": 144065.47747916667,
      "d": 296.5556874999893,
      "v": 83
    },
    {
      "midi": 58,
      "hit": false,
      "t": 144065.47747916667,
      "d": 312.49954166664975,
      "v": 83
    },
    {
      "midi": 66,
      "hit": false,
      "t": 144065.47747916667,
      "d": 382.6524999999965,
      "v": 83
    },
    {
      "midi": 59,
      "hit": false,
      "t": 144489.584,
      "d": 1913.2625000000116,
      "v": 83
    },
    {
      "midi": 63,
      "hit": false,
      "t": 144489.584,
      "d": 1913.2625000000116,
      "v": 83
    },
    {
      "midi": 65,
      "hit": false,
      "t": 144489.584,
      "d": 1913.2625000000116,
      "v": 83
    },
    {
      "midi": 68,
      "hit": false,
      "t": 144489.584,
      "d": 1913.2625000000116,
      "v": 83
    },
    {
      "midi": 68,
      "hit": false,
      "t": 146632.43800000002,
      "d": 312.49954166667885,
      "v": 83
    },
    {
      "midi": 59,
      "hit": false,
      "t": 146632.43800000002,
      "d": 315.68831250001676,
      "v": 83
    },
    {
      "midi": 63,
      "hit": false,
      "t": 146632.43800000002,
      "d": 338.00970833335305,
      "v": 83
    },
    {
      "midi": 58,
      "hit": false,
      "t": 147244.68200000003,
      "d": 86.09681250000722,
      "v": 83
    },
    {
      "midi": 66,
      "hit": false,
      "t": 147244.68200000003,
      "d": 86.09681250000722,
      "v": 83
    },
    {
      "midi": 63,
      "hit": false,
      "t": 147244.68200000003,
      "d": 92.47435416668304,
      "v": 83
    },
    {
      "midi": 66,
      "hit": false,
      "t": 147550.80400000003,
      "d": 669.6418750000012,
      "v": 83
    },
    {
      "midi": 58,
      "hit": false,
      "t": 147550.80400000003,
      "d": 672.8306458333391,
      "v": 83
    },
    {
      "midi": 63,
      "hit": false,
      "t": 147550.80400000003,
      "d": 695.1520416666754,
      "v": 83
    },
    {
      "midi": 58,
      "hit": false,
      "t": 148469.17000000004,
      "d": 242.3465833333321,
      "v": 83
    },
    {
      "midi": 66,
      "hit": false,
      "t": 148469.17000000004,
      "d": 261.47920833333046,
      "v": 83
    },
    {
      "midi": 63,
      "hit": false,
      "t": 148469.17000000004,
      "d": 274.234291666653,
      "v": 83
    },
    {
      "midi": 61,
      "hit": false,
      "t": 148963.4294791667,
      "d": 280.61183333332883,
      "v": 83
    },
    {
      "midi": 65,
      "hit": false,
      "t": 148963.4294791667,
      "d": 286.98937500000466,
      "v": 83
    },
    {
      "midi": 68,
      "hit": false,
      "t": 148963.4294791667,
      "d": 299.7444583333272,
      "v": 83
    },
    {
      "midi": 61,
      "hit": false,
      "t": 149387.53600000002,
      "d": 2248.0834374999977,
      "v": 83
    },
    {
      "midi": 70,
      "hit": false,
      "t": 149387.53600000002,
      "d": 2283.1599166666565,
      "v": 83
    },
    {
      "midi": 66,
      "hit": false,
      "t": 149387.53600000002,
      "d": 2286.3486874999944,
      "v": 83
    },
    {
      "midi": 56,
      "hit": false,
      "t": 151836.51200000002,
      "d": 1304.2072708333435,
      "v": 83
    },
    {
      "midi": 65,
      "hit": false,
      "t": 151836.51200000002,
      "d": 1326.5286666666798,
      "v": 83
    },
    {
      "midi": 61,
      "hit": false,
      "t": 151836.51200000002,
      "d": 1329.7174375000177,
      "v": 83
    },
    {
      "midi": 65,
      "hit": false,
      "t": 153367.12200000003,
      "d": 299.7444583333272,
      "v": 83
    },
    {
      "midi": 56,
      "hit": false,
      "t": 153367.12200000003,
      "d": 306.122000000003,
      "v": 83
    },
    {
      "midi": 61,
      "hit": false,
      "t": 153367.12200000003,
      "d": 315.68831250001676,
      "v": 83
    },
    {
      "midi": 58,
      "hit": false,
      "t": 153861.3814791667,
      "d": 328.4433958333393,
      "v": 83
    },
    {
      "midi": 66,
      "hit": false,
      "t": 153861.3814791667,
      "d": 347.5760208333377,
      "v": 83
    },
    {
      "midi": 61,
      "hit": false,
      "t": 153861.3814791667,
      "d": 350.7647916666756,
      "v": 83
    },
    {
      "midi": 65,
      "hit": false,
      "t": 154285.48800000004,
      "d": 1852.6758541666786,
      "v": 83
    },
    {
      "midi": 59,
      "hit": false,
      "t": 154285.48800000004,
      "d": 1855.8646250000165,
      "v": 83
    },
    {
      "midi": 68,
      "hit": false,
      "t": 154285.48800000004,
      "d": 1874.997250000015,
      "v": 83
    },
    {
      "midi": 63,
      "hit": false,
      "t": 154285.48800000004,
      "d": 1903.696187500027,
      "v": 83
    },
    {
      "midi": 59,
      "hit": false,
      "t": 156428.34200000006,
      "d": 267.8567500000063,
      "v": 83
    },
    {
      "midi": 63,
      "hit": false,
      "t": 156428.34200000006,
      "d": 306.122000000003,
      "v": 83
    },
    {
      "midi": 68,
      "hit": false,
      "t": 156428.34200000006,
      "d": 315.68831250001676,
      "v": 83
    },
    {
      "midi": 58,
      "hit": false,
      "t": 157040.58600000007,
      "d": 86.09681250000722,
      "v": 83
    },
    {
      "midi": 67,
      "hit": false,
      "t": 157040.58600000007,
      "d": 89.28558333334513,
      "v": 83
    },
    {
      "midi": 63,
      "hit": false,
      "t": 157040.58600000007,
      "d": 108.4182083333435,
      "v": 83
    },
    {
      "midi": 58,
      "hit": false,
      "t": 157346.70800000007,
      "d": 1275.5083333333314,
      "v": 83
    },
    {
      "midi": 63,
      "hit": false,
      "t": 157346.70800000007,
      "d": 1275.5083333333314,
      "v": 83
    },
    {
      "midi": 67,
      "hit": false,
      "t": 157346.70800000007,
      "d": 1275.5083333333314,
      "v": 83
    },
    {
      "midi": 67,
      "hit": false,
      "t": 158877.31800000006,
      "d": 309.31077083334094,
      "v": 83
    },
    {
      "midi": 58,
      "hit": false,
      "t": 158877.31800000006,
      "d": 325.2546250000014,
      "v": 83
    },
    {
      "midi": 63,
      "hit": false,
      "t": 158877.31800000006,
      "d": 347.5760208333377,
      "v": 83
    },
    {
      "midi": 62,
      "hit": false,
      "t": 159489.56200000006,
      "d": 73.34172916665557,
      "v": 83
    },
    {
      "midi": 65,
      "hit": false,
      "t": 159489.56200000006,
      "d": 76.53049999999348,
      "v": 83
    },
    {
      "midi": 58,
      "hit": false,
      "t": 159489.56200000006,
      "d": 86.09681250000722,
      "v": 83
    },
    {
      "midi": 62,
      "hit": false,
      "t": 159795.68400000007,
      "d": 1830.3544583333423,
      "v": 83
    },
    {
      "midi": 65,
      "hit": false,
      "t": 159795.68400000007,
      "d": 1833.5432291666802,
      "v": 83
    },
    {
      "midi": 58,
      "hit": false,
      "t": 159795.68400000007,
      "d": 1839.920770833356,
      "v": 83
    },
    {
      "midi": 51,
      "hit": false,
      "t": 171428.3200000001,
      "d": 2404.3332083333516,
      "v": 56
    },
    {
      "midi": 39,
      "hit": false,
      "t": 171428.3200000001,
      "d": 2410.7107500000275,
      "v": 52
    },
    {
      "midi": 58,
      "hit": false,
      "t": 171428.3200000001,
      "d": 2413.8995208333654,
      "v": 54
    },
    {
      "midi": 65,
      "hit": false,
      "t": 171434.69754166677,
      "d": 2433.0321458333638,
      "v": 64
    },
    {
      "midi": 63,
      "hit": false,
      "t": 171434.69754166677,
      "d": 2439.4096875000396,
      "v": 60
    },
    {
      "midi": 72,
      "hit": false,
      "t": 172636.86414583345,
      "d": 338.00970833332394,
      "v": 60
    },
    {
      "midi": 70,
      "hit": false,
      "t": 172971.68508333343,
      "d": 290.17814583334257,
      "v": 56
    },
    {
      "midi": 68,
      "hit": false,
      "t": 173268.24077083345,
      "d": 309.31077083334094,
      "v": 60
    },
    {
      "midi": 67,
      "hit": false,
      "t": 173590.3066250001,
      "d": 322.0658541666926,
      "v": 73
    },
    {
      "midi": 58,
      "hit": false,
      "t": 173890.05108333347,
      "d": 2369.2567291666637,
      "v": 44
    },
    {
      "midi": 53,
      "hit": false,
      "t": 173902.8061666668,
      "d": 2330.991479166667,
      "v": 64
    },
    {
      "midi": 60,
      "hit": false,
      "t": 173902.8061666668,
      "d": 2353.3128750000033,
      "v": 58
    },
    {
      "midi": 65,
      "hit": false,
      "t": 173905.99493750013,
      "d": 1836.7320000000182,
      "v": 66
    },
    {
      "midi": 55,
      "hit": false,
      "t": 173909.18370833347,
      "d": 2292.7262291666702,
      "v": 56
    },
    {
      "midi": 43,
      "hit": false,
      "t": 173912.3724791668,
      "d": 2279.9711458333186,
      "v": 48
    },
    {
      "midi": 63,
      "hit": false,
      "t": 175701.2729166668,
      "d": 280.61183333332883,
      "v": 60
    },
    {
      "midi": 65,
      "hit": false,
      "t": 176039.28262500014,
      "d": 280.61183333332883,
      "v": 73
    },
    {
      "midi": 41,
      "hit": false,
      "t": 176345.40462500014,
      "d": 2468.1086250000226,
      "v": 60
    },
    {
      "midi": 67,
      "hit": false,
      "t": 176348.59339583348,
      "d": 2385.200583333324,
      "v": 60
    },
    {
      "midi": 53,
      "hit": false,
      "t": 176348.59339583348,
      "d": 2410.7107499999984,
      "v": 52
    },
    {
      "midi": 63,
      "hit": false,
      "t": 176351.78216666682,
      "d": 2382.0118124999863,
      "v": 52
    },
    {
      "midi": 59,
      "hit": false,
      "t": 176351.78216666682,
      "d": 2407.5219791666605,
      "v": 52
    },
    {
      "midi": 48,
      "hit": false,
      "t": 178772.0592291668,
      "d": 918.3660000000382,
      "v": 58
    },
    {
      "midi": 51,
      "hit": false,
      "t": 178778.43677083348,
      "d": 931.1210833333898,
      "v": 50
    },
    {
      "midi": 56,
      "hit": false,
      "t": 178781.6255416668,
      "d": 2397.955666666734,
      "v": 61
    },
    {
      "midi": 67,
      "hit": false,
      "t": 178784.81431250015,
      "d": 864.1568958333519,
      "v": 60
    },
    {
      "midi": 63,
      "hit": false,
      "t": 178784.81431250015,
      "d": 2385.2005833333824,
      "v": 64
    },
    {
      "midi": 60,
      "hit": false,
      "t": 178788.0030833335,
      "d": 876.9119791666744,
      "v": 64
    },
    {
      "midi": 59,
      "hit": false,
      "t": 179690.42522916684,
      "d": 1485.9672083333717,
      "v": 70
    },
    {
      "midi": 65,
      "hit": false,
      "t": 179690.42522916684,
      "d": 1489.1559791667096,
      "v": 56
    },
    {
      "midi": 53,
      "hit": false,
      "t": 179699.99154166685,
      "d": 1470.023354166682,
      "v": 55
    },
    {
      "midi": 46,
      "hit": false,
      "t": 179706.36908333353,
      "d": 1457.2682708333305,
      "v": 66
    },
    {
      "midi": 58,
      "hit": false,
      "t": 180315.4243125002,
      "d": 889.6670625000261,
      "v": 60
    },
    {
      "midi": 51,
      "hit": false,
      "t": 181224.22400000022,
      "d": 2404.3332083333516,
      "v": 56
    },
    {
      "midi": 58,
      "hit": false,
      "t": 181224.22400000022,
      "d": 2413.8995208333654,
      "v": 54
    },
    {
      "midi": 65,
      "hit": false,
      "t": 181230.6015416669,
      "d": 2433.0321458333638,
      "v": 64
    },
    {
      "midi": 63,
      "hit": false,
      "t": 181230.6015416669,
      "d": 2439.4096875000396,
      "v": 60
    },
    {
      "midi": 62,
      "hit": false,
      "t": 183969.75568750026,
      "d": 682.3969583333528,
      "v": 60
    },
    {
      "midi": 65,
      "hit": false,
      "t": 183969.75568750026,
      "d": 2110.9662916667003,
      "v": 60
    },
    {
      "midi": 70,
      "hit": false,
      "t": 183976.13322916694,
      "d": 663.2643333333544,
      "v": 60
    },
    {
      "midi": 58,
      "hit": false,
      "t": 183982.5107708336,
      "d": 2120.532604166685,
      "v": 52
    },
    {
      "midi": 50,
      "hit": false,
      "t": 183985.69954166695,
      "d": 631.3766250000044,
      "v": 56
    },
    {
      "midi": 67,
      "hit": false,
      "t": 184620.2649375003,
      "d": 1450.8907291666546,
      "v": 60
    },
    {
      "midi": 51,
      "hit": false,
      "t": 184620.2649375003,
      "d": 1460.4570416666684,
      "v": 56
    },
    {
      "midi": 63,
      "hit": false,
      "t": 184623.45370833363,
      "d": 1444.5131874999788,
      "v": 56
    },
    {
      "midi": 50,
      "hit": false,
      "t": 186096.66583333362,
      "d": 2445.787229166657,
      "v": 60
    },
    {
      "midi": 68,
      "hit": false,
      "t": 186115.79845833362,
      "d": 2433.0321458333347,
      "v": 52
    },
    {
      "midi": 65,
      "hit": false,
      "t": 186115.79845833362,
      "d": 2448.975999999995,
      "v": 64
    },
    {
      "midi": 60,
      "hit": false,
      "t": 186115.79845833362,
      "d": 2461.7310833333177,
      "v": 60
    },
    {
      "midi": 49,
      "hit": false,
      "t": 188580.71831250028,
      "d": 2289.5374583333614,
      "v": 56
    },
    {
      "midi": 65,
      "hit": false,
      "t": 188618.98356250027,
      "d": 2241.705895833351,
      "v": 48
    },
    {
      "midi": 56,
      "hit": false,
      "t": 188618.98356250027,
      "d": 2273.593604166701,
      "v": 40
    },
    {
      "midi": 61,
      "hit": false,
      "t": 188618.98356250027,
      "d": 2276.782375000039,
      "v": 52
    },
    {
      "midi": 59,
      "hit": false,
      "t": 188628.5498750003,
      "d": 2264.0272916666872,
      "v": 48
    },
    {
      "midi": 63,
      "hit": false,
      "t": 188634.92741666696,
      "d": 2244.894666666689,
      "v": 48
    },
    {
      "midi": 51,
      "hit": false,
      "t": 190953.1638125003,
      "d": 2286.3486874999944,
      "v": 53
    },
    {
      "midi": 39,
      "hit": false,
      "t": 190953.1638125003,
      "d": 2289.5374583333323,
      "v": 46
    },
    {
      "midi": 59,
      "hit": false,
      "t": 190994.61783333364,
      "d": 2311.8588541666686,
      "v": 56
    },
    {
      "midi": 65,
      "hit": false,
      "t": 191032.88308333364,
      "d": 2289.5374583333323,
      "v": 71
    },
    {
      "midi": 68,
      "hit": false,
      "t": 191055.20447916698,
      "d": 2273.593604166672,
      "v": 71
    },
    {
      "midi": 39,
      "hit": false,
      "t": 193338.36439583366,
      "d": 2359.69041666665,
      "v": 49
    },
    {
      "midi": 46,
      "hit": false,
      "t": 193395.76227083366,
      "d": 2359.69041666665,
      "v": 53
    },
    {
      "midi": 55,
      "hit": false,
      "t": 193440.40506250033,
      "d": 2359.69041666665,
      "v": 62
    },
    {
      "midi": 58,
      "hit": false,
      "t": 193453.16014583365,
      "d": 2359.690416666679,
      "v": 37
    },
    {
      "midi": 63,
      "hit": false,
      "t": 193478.67031250033,
      "d": 2327.802708333329,
      "v": 55
    },
    {
      "midi": 67,
      "hit": false,
      "t": 193481.85908333366,
      "d": 1572.0640208333207,
      "v": 71
    },
    {
      "midi": 75,
      "hit": false,
      "t": 194419.35770833367,
      "d": 255.10166666665464,
      "v": 44
    },
    {
      "midi": 75,
      "hit": false,
      "t": 194728.66847916698,
      "d": 267.8567500000063,
      "v": 60
    },
    {
      "midi": 70,
      "hit": false,
      "t": 195012.46908333365,
      "d": 271.0455208333442,
      "v": 48
    },
    {
      "midi": 70,
      "hit": false,
      "t": 195321.779854167,
      "d": 318.8770833333256,
      "v": 56
    },
    {
      "midi": 67,
      "hit": false,
      "t": 195640.65693750032,
      "d": 296.5556875000184,
      "v": 60
    },
    {
      "midi": 39,
      "hit": false,
      "t": 195876.625979167,
      "d": 2289.5374583333323,
      "v": 57
    },
    {
      "midi": 51,
      "hit": false,
      "t": 195892.56983333366,
      "d": 2286.3486874999944,
      "v": 64
    },
    {
      "midi": 59,
      "hit": false,
      "t": 195934.023854167,
      "d": 2311.8588541666686,
      "v": 67
    },
    {
      "midi": 65,
      "hit": false,
      "t": 195972.289104167,
      "d": 2289.5374583333323,
      "v": 82
    },
    {
      "midi": 68,
      "hit": false,
      "t": 196013.74312500033,
      "d": 2273.593604166672,
      "v": 72
    },
    {
      "midi": 39,
      "hit": false,
      "t": 198236.31639583365,
      "d": 5012.747750000039,
      "v": 60
    },
    {
      "midi": 46,
      "hit": false,
      "t": 198293.71427083368,
      "d": 4974.482500000013,
      "v": 64
    },
    {
      "midi": 55,
      "hit": false,
      "t": 198338.35706250035,
      "d": 4901.140770833328,
      "v": 73
    },
    {
      "midi": 58,
      "hit": false,
      "t": 198354.300916667,
      "d": 5003.181437500025,
      "v": 48
    },
    {
      "midi": 63,
      "hit": false,
      "t": 198376.62231250035,
      "d": 4866.064291666669,
      "v": 66
    },
    {
      "midi": 67,
      "hit": false,
      "t": 198379.81108333368,
      "d": 4968.104958333337,
      "v": 82
    }
  ]
}