{
  "jsonPath": "Rock/Norwegian Rock/CC Cowboys/synder-i-sommersol.json",
  "path": "Rock\\Norwegian Rock\\CC Cowboys\\Synder i sommersol.mid",
  "name": "Synder i sommersol",
  "difficulty": "Advanced",
  "bpm": 127.00025400050801,
  "notes": [
    {
      "midi": 52,
      "hit": false,
      "t": 3307.08,
      "d": 467.5187500000002,
      "v": 113
    },
    {
      "midi": 33,
      "hit": false,
      "t": 3779.5199999999995,
      "d": 511.8100000000004,
      "v": 108
    },
    {
      "midi": 64,
      "hit": false,
      "t": 3779.5199999999995,
      "d": 3809.0474999999997,
      "v": 81
    },
    {
      "midi": 57,
      "hit": false,
      "t": 3779.5199999999995,
      "d": 7551.658124999999,
      "v": 85
    },
    {
      "midi": 60,
      "hit": false,
      "t": 3779.5199999999995,
      "d": 7566.421874999997,
      "v": 79
    },
    {
      "midi": 45,
      "hit": false,
      "t": 3779.52,
      "d": 3302.158749999999,
      "v": 109
    },
    {
      "midi": 52,
      "hit": false,
      "t": 3779.52,
      "d": 3302.158749999999,
      "v": 105
    },
    {
      "midi": 69,
      "hit": false,
      "t": 4251.96,
      "d": 590.5500000000002,
      "v": 116
    },
    {
      "midi": 76,
      "hit": false,
      "t": 4251.96,
      "d": 600.3924999999999,
      "v": 107
    },
    {
      "midi": 72,
      "hit": false,
      "t": 4251.96,
      "d": 629.9200000000001,
      "v": 110
    },
    {
      "midi": 33,
      "hit": false,
      "t": 4488.18,
      "d": 100.88562499999989,
      "v": 99
    },
    {
      "midi": 33,
      "hit": false,
      "t": 4724.400000000001,
      "d": 642.2231249999995,
      "v": 99
    },
    {
      "midi": 69,
      "hit": false,
      "t": 4960.62,
      "d": 583.1681250000001,
      "v": 114
    },
    {
      "midi": 71,
      "hit": false,
      "t": 4960.62,
      "d": 610.2350000000006,
      "v": 107
    },
    {
      "midi": 74,
      "hit": false,
      "t": 4960.62,
      "d": 622.538125000001,
      "v": 105
    },
    {
      "midi": 33,
      "hit": false,
      "t": 5669.28,
      "d": 511.8100000000004,
      "v": 97
    },
    {
      "midi": 77,
      "hit": false,
      "t": 5669.280000000001,
      "d": 600.3924999999999,
      "v": 113
    },
    {
      "midi": 69,
      "hit": false,
      "t": 5669.280000000001,
      "d": 605.3137500000003,
      "v": 116
    },
    {
      "midi": 74,
      "hit": false,
      "t": 5669.280000000001,
      "d": 629.9200000000001,
      "v": 110
    },
    {
      "midi": 28,
      "hit": false,
      "t": 6377.9400000000005,
      "d": 172.24374999999964,
      "v": 101
    },
    {
      "midi": 76,
      "hit": false,
      "t": 6377.9400000000005,
      "d": 1154.033125,
      "v": 106
    },
    {
      "midi": 69,
      "hit": false,
      "t": 6377.9400000000005,
      "d": 1166.3362500000003,
      "v": 112
    },
    {
      "midi": 72,
      "hit": false,
      "t": 6377.9400000000005,
      "d": 1171.2575000000006,
      "v": 114
    },
    {
      "midi": 33,
      "hit": false,
      "t": 6614.16,
      "d": 430.609375,
      "v": 96
    },
    {
      "midi": 36,
      "hit": false,
      "t": 7086.599999999999,
      "d": 442.91250000000036,
      "v": 102
    },
    {
      "midi": 48,
      "hit": false,
      "t": 7086.599999999999,
      "d": 467.5187500000002,
      "v": 110
    },
    {
      "midi": 65,
      "hit": false,
      "t": 7559.039999999999,
      "d": 3789.3624999999975,
      "v": 83
    },
    {
      "midi": 29,
      "hit": false,
      "t": 7559.04,
      "d": 472.4399999999996,
      "v": 104
    },
    {
      "midi": 41,
      "hit": false,
      "t": 7559.04,
      "d": 3302.1587499999996,
      "v": 103
    },
    {
      "midi": 48,
      "hit": false,
      "t": 7559.04,
      "d": 3302.1587499999996,
      "v": 108
    },
    {
      "midi": 69,
      "hit": false,
      "t": 8031.480000000001,
      "d": 610.2350000000006,
      "v": 108
    },
    {
      "midi": 76,
      "hit": false,
      "t": 8031.480000000001,
      "d": 612.6956250000003,
      "v": 106
    },
    {
      "midi": 72,
      "hit": false,
      "t": 8031.480000000001,
      "d": 639.7625000000007,
      "v": 116
    },
    {
      "midi": 29,
      "hit": false,
      "t": 8267.699999999999,
      "d": 110.72812499999964,
      "v": 102
    },
    {
      "midi": 29,
      "hit": false,
      "t": 8503.919999999998,
      "d": 556.1012499999997,
      "v": 99
    },
    {
      "midi": 69,
      "hit": false,
      "t": 8740.140000000001,
      "d": 570.8649999999998,
      "v": 110
    },
    {
      "midi": 71,
      "hit": false,
      "t": 8740.140000000001,
      "d": 602.8531249999996,
      "v": 111
    },
    {
      "midi": 74,
      "hit": false,
      "t": 8740.140000000001,
      "d": 620.0774999999994,
      "v": 104
    },
    {
      "midi": 29,
      "hit": false,
      "t": 9448.799999999997,
      "d": 501.96750000000065,
      "v": 113
    },
    {
      "midi": 69,
      "hit": false,
      "t": 9448.800000000001,
      "d": 583.1681250000001,
      "v": 108
    },
    {
      "midi": 77,
      "hit": false,
      "t": 9448.800000000001,
      "d": 590.5499999999993,
      "v": 115
    },
    {
      "midi": 74,
      "hit": false,
      "t": 9448.800000000001,
      "d": 629.9200000000001,
      "v": 116
    },
    {
      "midi": 29,
      "hit": false,
      "t": 10157.459999999997,
      "d": 108.26749999999993,
      "v": 107
    },
    {
      "midi": 76,
      "hit": false,
      "t": 10157.460000000001,
      "d": 944.8799999999992,
      "v": 104
    },
    {
      "midi": 69,
      "hit": false,
      "t": 10157.460000000001,
      "d": 984.25,
      "v": 106
    },
    {
      "midi": 72,
      "hit": false,
      "t": 10157.460000000001,
      "d": 984.25,
      "v": 114
    },
    {
      "midi": 29,
      "hit": false,
      "t": 10393.679999999997,
      "d": 600.3924999999999,
      "v": 101
    },
    {
      "midi": 41,
      "hit": false,
      "t": 10866.119999999999,
      "d": 467.5187499999993,
      "v": 105
    },
    {
      "midi": 29,
      "hit": false,
      "t": 11102.339999999997,
      "d": 199.31062500000007,
      "v": 101
    },
    {
      "midi": 28,
      "hit": false,
      "t": 11338.559999999996,
      "d": 511.8099999999995,
      "v": 106
    },
    {
      "midi": 55,
      "hit": false,
      "t": 11338.559999999998,
      "d": 3769.677499999998,
      "v": 82
    },
    {
      "midi": 59,
      "hit": false,
      "t": 11338.559999999998,
      "d": 3779.5199999999986,
      "v": 78
    },
    {
      "midi": 64,
      "hit": false,
      "t": 11338.559999999998,
      "d": 7615.634374999998,
      "v": 86
    },
    {
      "midi": 40,
      "hit": false,
      "t": 11338.559999999998,
      "d": 3774.598749999999,
      "v": 102
    },
    {
      "midi": 47,
      "hit": false,
      "t": 11338.559999999998,
      "d": 3774.598749999999,
      "v": 112
    },
    {
      "midi": 64,
      "hit": false,
      "t": 11338.560000000001,
      "d": 383.8575000000001,
      "v": 108
    },
    {
      "midi": 67,
      "hit": false,
      "t": 11338.560000000001,
      "d": 408.4637500000008,
      "v": 118
    },
    {
      "midi": 71,
      "hit": false,
      "t": 11338.560000000001,
      "d": 428.1487500000003,
      "v": 117
    },
    {
      "midi": 64,
      "hit": false,
      "t": 11811.000000000002,
      "d": 152.55875000000015,
      "v": 101
    },
    {
      "midi": 72,
      "hit": false,
      "t": 11811.000000000002,
      "d": 187.0074999999997,
      "v": 97
    },
    {
      "midi": 67,
      "hit": false,
      "t": 11811.000000000002,
      "d": 201.77124999999978,
      "v": 108
    },
    {
      "midi": 28,
      "hit": false,
      "t": 12047.219999999996,
      "d": 110.72812499999964,
      "v": 103
    },
    {
      "midi": 64,
      "hit": false,
      "t": 12047.220000000001,
      "d": 386.3181249999998,
      "v": 108
    },
    {
      "midi": 67,
      "hit": false,
      "t": 12047.220000000001,
      "d": 391.2393749999992,
      "v": 107
    },
    {
      "midi": 71,
      "hit": false,
      "t": 12047.220000000001,
      "d": 435.5306249999994,
      "v": 107
    },
    {
      "midi": 28,
      "hit": false,
      "t": 12283.439999999995,
      "d": 514.2706249999992,
      "v": 106
    },
    {
      "midi": 64,
      "hit": false,
      "t": 12519.66,
      "d": 2406.491249999999,
      "v": 103
    },
    {
      "midi": 67,
      "hit": false,
      "t": 12519.66,
      "d": 2428.6368749999983,
      "v": 109
    },
    {
      "midi": 28,
      "hit": false,
      "t": 13228.319999999994,
      "d": 492.125,
      "v": 110
    },
    {
      "midi": 28,
      "hit": false,
      "t": 13936.979999999994,
      "d": 209.15312500000073,
      "v": 108
    },
    {
      "midi": 26,
      "hit": false,
      "t": 14173.199999999995,
      "d": 223.9168750000008,
      "v": 103
    },
    {
      "midi": 28,
      "hit": false,
      "t": 14409.419999999996,
      "d": 233.75937499999964,
      "v": 97
    },
    {
      "midi": 31,
      "hit": false,
      "t": 14645.639999999996,
      "d": 233.75937499999964,
      "v": 101
    },
    {
      "midi": 28,
      "hit": false,
      "t": 14881.859999999995,
      "d": 233.75937499999964,
      "v": 91
    },
    {
      "midi": 33,
      "hit": false,
      "t": 15118.079999999994,
      "d": 511.8099999999995,
      "v": 112
    },
    {
      "midi": 57,
      "hit": false,
      "t": 15118.079999999996,
      "d": 7517.209375,
      "v": 78
    },
    {
      "midi": 60,
      "hit": false,
      "t": 15118.079999999996,
      "d": 7539.355000000001,
      "v": 79
    },
    {
      "midi": 45,
      "hit": false,
      "t": 15118.079999999996,
      "d": 3302.1587500000005,
      "v": 104
    },
    {
      "midi": 52,
      "hit": false,
      "t": 15118.079999999996,
      "d": 3302.1587500000005,
      "v": 108
    },
    {
      "midi": 69,
      "hit": false,
      "t": 15590.519999999999,
      "d": 595.4712500000005,
      "v": 103
    },
    {
      "midi": 76,
      "hit": false,
      "t": 15590.519999999999,
      "d": 600.3924999999999,
      "v": 112
    },
    {
      "midi": 72,
      "hit": false,
      "t": 15590.519999999999,
      "d": 627.4593750000004,
      "v": 115
    },
    {
      "midi": 33,
      "hit": false,
      "t": 15826.739999999994,
      "d": 100.8856250000008,
      "v": 105
    },
    {
      "midi": 33,
      "hit": false,
      "t": 16062.959999999995,
      "d": 477.36125000000175,
      "v": 112
    },
    {
      "midi": 69,
      "hit": false,
      "t": 16299.179999999998,
      "d": 590.5500000000011,
      "v": 110
    },
    {
      "midi": 71,
      "hit": false,
      "t": 16299.179999999998,
      "d": 610.2350000000024,
      "v": 116
    },
    {
      "midi": 74,
      "hit": false,
      "t": 16299.179999999998,
      "d": 620.0775000000012,
      "v": 104
    },
    {
      "midi": 33,
      "hit": false,
      "t": 17007.839999999997,
      "d": 529.0343749999993,
      "v": 103
    },
    {
      "midi": 77,
      "hit": false,
      "t": 17007.84,
      "d": 590.5499999999993,
      "v": 105
    },
    {
      "midi": 69,
      "hit": false,
      "t": 17007.84,
      "d": 595.4712499999987,
      "v": 109
    },
    {
      "midi": 74,
      "hit": false,
      "t": 17007.84,
      "d": 617.6168749999997,
      "v": 107
    },
    {
      "midi": 28,
      "hit": false,
      "t": 17716.499999999996,
      "d": 194.38937499999884,
      "v": 97
    },
    {
      "midi": 69,
      "hit": false,
      "t": 17716.5,
      "d": 1124.5056250000016,
      "v": 106
    },
    {
      "midi": 72,
      "hit": false,
      "t": 17716.5,
      "d": 1124.5056250000016,
      "v": 111
    },
    {
      "midi": 76,
      "hit": false,
      "t": 17716.5,
      "d": 1124.5056250000016,
      "v": 105
    },
    {
      "midi": 33,
      "hit": false,
      "t": 17952.719999999994,
      "d": 226.3774999999987,
      "v": 98
    },
    {
      "midi": 36,
      "hit": false,
      "t": 18188.93999999999,
      "d": 233.75937500000146,
      "v": 106
    },
    {
      "midi": 35,
      "hit": false,
      "t": 18425.159999999993,
      "d": 233.75937500000146,
      "v": 104
    },
    {
      "midi": 48,
      "hit": false,
      "t": 18425.159999999996,
      "d": 467.5187499999993,
      "v": 108
    },
    {
      "midi": 33,
      "hit": false,
      "t": 18661.379999999994,
      "d": 233.75937500000146,
      "v": 94
    },
    {
      "midi": 29,
      "hit": false,
      "t": 18897.599999999995,
      "d": 465.05812499999956,
      "v": 106
    },
    {
      "midi": 65,
      "hit": false,
      "t": 18897.599999999995,
      "d": 3786.901875000003,
      "v": 83
    },
    {
      "midi": 41,
      "hit": false,
      "t": 18897.599999999995,
      "d": 3302.1587499999987,
      "v": 109
    },
    {
      "midi": 48,
      "hit": false,
      "t": 18897.599999999995,
      "d": 3302.1587499999987,
      "v": 101
    },
    {
      "midi": 69,
      "hit": false,
      "t": 19370.04,
      "d": 578.2468750000007,
      "v": 110
    },
    {
      "midi": 76,
      "hit": false,
      "t": 19370.04,
      "d": 590.5499999999993,
      "v": 105
    },
    {
      "midi": 72,
      "hit": false,
      "t": 19370.04,
      "d": 610.2350000000006,
      "v": 116
    },
    {
      "midi": 29,
      "hit": false,
      "t": 19606.259999999995,
      "d": 125.49187499999971,
      "v": 106
    },
    {
      "midi": 29,
      "hit": false,
      "t": 19842.479999999996,
      "d": 482.28250000000116,
      "v": 101
    },
    {
      "midi": 69,
      "hit": false,
      "t": 20078.7,
      "d": 597.9318749999984,
      "v": 107
    },
    {
      "midi": 71,
      "hit": false,
      "t": 20078.7,
      "d": 615.15625,
      "v": 110
    },
    {
      "midi": 74,
      "hit": false,
      "t": 20078.7,
      "d": 627.4593749999985,
      "v": 107
    },
    {
      "midi": 29,
      "hit": false,
      "t": 20787.359999999997,
      "d": 570.8650000000016,
      "v": 101
    },
    {
      "midi": 69,
      "hit": false,
      "t": 20787.36,
      "d": 570.8650000000016,
      "v": 110
    },
    {
      "midi": 77,
      "hit": false,
      "t": 20787.36,
      "d": 575.786250000001,
      "v": 107
    },
    {
      "midi": 74,
      "hit": false,
      "t": 20787.36,
      "d": 610.2350000000006,
      "v": 117
    },
    {
      "midi": 29,
      "hit": false,
      "t": 21496.019999999997,
      "d": 211.61375000000044,
      "v": 97
    },
    {
      "midi": 69,
      "hit": false,
      "t": 21496.02,
      "d": 600.3924999999981,
      "v": 109
    },
    {
      "midi": 72,
      "hit": false,
      "t": 21496.02,
      "d": 600.3924999999981,
      "v": 108
    },
    {
      "midi": 76,
      "hit": false,
      "t": 21496.02,
      "d": 664.3687499999978,
      "v": 105
    },
    {
      "midi": 28,
      "hit": false,
      "t": 21732.239999999998,
      "d": 233.75937500000146,
      "v": 104
    },
    {
      "midi": 29,
      "hit": false,
      "t": 21968.46,
      "d": 223.91687499999898,
      "v": 89
    },
    {
      "midi": 41,
      "hit": false,
      "t": 22204.679999999993,
      "d": 467.5187499999993,
      "v": 110
    },
    {
      "midi": 33,
      "hit": false,
      "t": 22204.679999999997,
      "d": 415.84562500000175,
      "v": 88
    },
    {
      "midi": 64,
      "hit": false,
      "t": 22204.679999999997,
      "d": 324.8025000000016,
      "v": 104
    },
    {
      "midi": 69,
      "hit": false,
      "t": 22204.679999999997,
      "d": 349.4087500000023,
      "v": 95
    },
    {
      "midi": 72,
      "hit": false,
      "t": 22204.679999999997,
      "d": 374.01500000000306,
      "v": 102
    },
    {
      "midi": 40,
      "hit": false,
      "t": 22677.11999999999,
      "d": 1884.838749999999,
      "v": 95
    },
    {
      "midi": 47,
      "hit": false,
      "t": 22677.11999999999,
      "d": 1884.838749999999,
      "v": 106
    },
    {
      "midi": 28,
      "hit": false,
      "t": 22677.12,
      "d": 455.2156250000007,
      "v": 110
    },
    {
      "midi": 64,
      "hit": false,
      "t": 22677.12,
      "d": 393.7000000000007,
      "v": 112
    },
    {
      "midi": 67,
      "hit": false,
      "t": 22677.12,
      "d": 413.38500000000204,
      "v": 114
    },
    {
      "midi": 71,
      "hit": false,
      "t": 22677.12,
      "d": 413.38500000000204,
      "v": 112
    },
    {
      "midi": 64,
      "hit": false,
      "t": 22677.12,
      "d": 1739.661874999998,
      "v": 86
    },
    {
      "midi": 55,
      "hit": false,
      "t": 22677.12,
      "d": 1811.0199999999968,
      "v": 80
    },
    {
      "midi": 59,
      "hit": false,
      "t": 22677.12,
      "d": 1843.0081249999967,
      "v": 82
    },
    {
      "midi": 64,
      "hit": false,
      "t": 23149.56,
      "d": 159.94062499999927,
      "v": 103
    },
    {
      "midi": 67,
      "hit": false,
      "t": 23149.56,
      "d": 189.46812499999942,
      "v": 100
    },
    {
      "midi": 72,
      "hit": false,
      "t": 23149.56,
      "d": 204.23187499999767,
      "v": 96
    },
    {
      "midi": 28,
      "hit": false,
      "t": 23385.78,
      "d": 110.72812500000146,
      "v": 105
    },
    {
      "midi": 64,
      "hit": false,
      "t": 23385.78,
      "d": 374.0149999999994,
      "v": 111
    },
    {
      "midi": 67,
      "hit": false,
      "t": 23385.78,
      "d": 374.0149999999994,
      "v": 109
    },
    {
      "midi": 71,
      "hit": false,
      "t": 23385.78,
      "d": 415.8456249999981,
      "v": 115
    },
    {
      "midi": 28,
      "hit": false,
      "t": 23622,
      "d": 738.1875,
      "v": 112
    },
    {
      "midi": 64,
      "hit": false,
      "t": 23858.219999999998,
      "d": 521.6525000000001,
      "v": 107
    },
    {
      "midi": 67,
      "hit": false,
      "t": 23858.219999999998,
      "d": 575.786250000001,
      "v": 112
    },
    {
      "midi": 41,
      "hit": false,
      "t": 24566.87999999999,
      "d": 1845.46875,
      "v": 101
    },
    {
      "midi": 48,
      "hit": false,
      "t": 24566.87999999999,
      "d": 1845.46875,
      "v": 107
    },
    {
      "midi": 60,
      "hit": false,
      "t": 24566.879999999997,
      "d": 1840.5475000000006,
      "v": 119
    },
    {
      "midi": 65,
      "hit": false,
      "t": 24566.879999999997,
      "d": 1847.9293749999997,
      "v": 108
    },
    {
      "midi": 69,
      "hit": false,
      "t": 24566.879999999997,
      "d": 1857.7718749999985,
      "v": 107
    },
    {
      "midi": 77,
      "hit": false,
      "t": 24566.879999999997,
      "d": 1732.2799999999988,
      "v": 81
    },
    {
      "midi": 57,
      "hit": false,
      "t": 24566.879999999997,
      "d": 1734.7406249999985,
      "v": 78
    },
    {
      "midi": 72,
      "hit": false,
      "t": 24566.879999999997,
      "d": 1742.1224999999977,
      "v": 82
    },
    {
      "midi": 65,
      "hit": false,
      "t": 24566.879999999997,
      "d": 1751.9649999999965,
      "v": 86
    },
    {
      "midi": 60,
      "hit": false,
      "t": 24566.879999999997,
      "d": 1754.4256249999962,
      "v": 83
    },
    {
      "midi": 69,
      "hit": false,
      "t": 24566.879999999997,
      "d": 1756.886249999996,
      "v": 85
    },
    {
      "midi": 29,
      "hit": false,
      "t": 24566.88,
      "d": 1663.3824999999997,
      "v": 110
    },
    {
      "midi": 69,
      "hit": false,
      "t": 26456.639999999992,
      "d": 91.04312500000015,
      "v": 78
    },
    {
      "midi": 76,
      "hit": false,
      "t": 26456.639999999992,
      "d": 105.8068749999984,
      "v": 80
    },
    {
      "midi": 72,
      "hit": false,
      "t": 26456.639999999992,
      "d": 108.26749999999811,
      "v": 86
    },
    {
      "midi": 57,
      "hit": false,
      "t": 26456.639999999996,
      "d": 66.43687499999942,
      "v": 64
    },
    {
      "midi": 33,
      "hit": false,
      "t": 26456.64,
      "d": 506.88874999999825,
      "v": 104
    },
    {
      "midi": 69,
      "hit": false,
      "t": 26692.85999999999,
      "d": 88.58250000000044,
      "v": 85
    },
    {
      "midi": 72,
      "hit": false,
      "t": 26692.85999999999,
      "d": 103.34624999999869,
      "v": 79
    },
    {
      "midi": 76,
      "hit": false,
      "t": 26692.85999999999,
      "d": 105.8068749999984,
      "v": 80
    },
    {
      "midi": 57,
      "hit": false,
      "t": 26692.859999999997,
      "d": 66.43687499999942,
      "v": 63
    },
    {
      "midi": 69,
      "hit": false,
      "t": 26929.079999999987,
      "d": 88.58250000000044,
      "v": 83
    },
    {
      "midi": 72,
      "hit": false,
      "t": 26929.079999999987,
      "d": 98.42499999999927,
      "v": 81
    },
    {
      "midi": 76,
      "hit": false,
      "t": 26929.079999999987,
      "d": 103.34624999999869,
      "v": 78
    },
    {
      "midi": 57,
      "hit": false,
      "t": 26929.079999999998,
      "d": 76.27937499999825,
      "v": 67
    },
    {
      "midi": 64,
      "hit": false,
      "t": 26929.079999999998,
      "d": 115.64937500000087,
      "v": 113
    },
    {
      "midi": 69,
      "hit": false,
      "t": 27165.299999999985,
      "d": 86.12187500000073,
      "v": 79
    },
    {
      "midi": 72,
      "hit": false,
      "t": 27165.299999999985,
      "d": 95.96437499999956,
      "v": 84
    },
    {
      "midi": 76,
      "hit": false,
      "t": 27165.299999999985,
      "d": 100.88562499999898,
      "v": 79
    },
    {
      "midi": 57,
      "hit": false,
      "t": 27165.299999999996,
      "d": 76.27937499999825,
      "v": 68
    },
    {
      "midi": 33,
      "hit": false,
      "t": 27165.3,
      "d": 103.34624999999869,
      "v": 105
    },
    {
      "midi": 64,
      "hit": false,
      "t": 27165.3,
      "d": 130.41312499999913,
      "v": 106
    },
    {
      "midi": 69,
      "hit": false,
      "t": 27401.519999999982,
      "d": 86.12187500000073,
      "v": 86
    },
    {
      "midi": 72,
      "hit": false,
      "t": 27401.519999999982,
      "d": 88.58250000000044,
      "v": 83
    },
    {
      "midi": 76,
      "hit": false,
      "t": 27401.519999999982,
      "d": 110.72812500000146,
      "v": 84
    },
    {
      "midi": 57,
      "hit": false,
      "t": 27401.519999999993,
      "d": 73.81874999999854,
      "v": 68
    },
    {
      "midi": 33,
      "hit": false,
      "t": 27401.519999999997,
      "d": 127.95249999999942,
      "v": 97
    },
    {
      "midi": 64,
      "hit": false,
      "t": 27401.519999999997,
      "d": 150.09812500000044,
      "v": 106
    },
    {
      "midi": 69,
      "hit": false,
      "t": 27637.739999999983,
      "d": 83.66125000000102,
      "v": 87
    },
    {
      "midi": 72,
      "hit": false,
      "t": 27637.739999999983,
      "d": 93.50374999999985,
      "v": 80
    },
    {
      "midi": 76,
      "hit": false,
      "t": 27637.739999999983,
      "d": 103.34624999999869,
      "v": 83
    },
    {
      "midi": 57,
      "hit": false,
      "t": 27637.73999999999,
      "d": 73.81874999999854,
      "v": 66
    },
    {
      "midi": 33,
      "hit": false,
      "t": 27637.739999999998,
      "d": 132.87374999999884,
      "v": 103
    },
    {
      "midi": 62,
      "hit": false,
      "t": 27637.739999999998,
      "d": 120.57062500000029,
      "v": 108
    },
    {
      "midi": 69,
      "hit": false,
      "t": 27873.95999999998,
      "d": 88.58250000000044,
      "v": 87
    },
    {
      "midi": 72,
      "hit": false,
      "t": 27873.95999999998,
      "d": 98.42499999999927,
      "v": 84
    },
    {
      "midi": 76,
      "hit": false,
      "t": 27873.95999999998,
      "d": 110.72812499999782,
      "v": 82
    },
    {
      "midi": 57,
      "hit": false,
      "t": 27873.95999999999,
      "d": 76.27937499999825,
      "v": 67
    },
    {
      "midi": 62,
      "hit": false,
      "t": 27873.96,
      "d": 132.87374999999884,
      "v": 103
    },
    {
      "midi": 69,
      "hit": false,
      "t": 28110.17999999998,
      "d": 83.66125000000102,
      "v": 80
    },
    {
      "midi": 76,
      "hit": false,
      "t": 28110.17999999998,
      "d": 98.42499999999927,
      "v": 87
    },
    {
      "midi": 72,
      "hit": false,
      "t": 28110.17999999998,
      "d": 100.88562499999898,
      "v": 83
    },
    {
      "midi": 57,
      "hit": false,
      "t": 28110.179999999986,
      "d": 76.27937499999825,
      "v": 63
    },
    {
      "midi": 62,
      "hit": false,
      "t": 28110.179999999997,
      "d": 118.11000000000058,
      "v": 111
    },
    {
      "midi": 69,
      "hit": false,
      "t": 28346.399999999976,
      "d": 88.58250000000044,
      "v": 81
    },
    {
      "midi": 72,
      "hit": false,
      "t": 28346.399999999976,
      "d": 93.50374999999985,
      "v": 86
    },
    {
      "midi": 76,
      "hit": false,
      "t": 28346.399999999976,
      "d": 105.8068749999984,
      "v": 86
    },
    {
      "midi": 57,
      "hit": false,
      "t": 28346.399999999983,
      "d": 76.27937499999825,
      "v": 69
    },
    {
      "midi": 33,
      "hit": false,
      "t": 28346.399999999998,
      "d": 509.3493750000016,
      "v": 103
    },
    {
      "midi": 62,
      "hit": false,
      "t": 28346.399999999998,
      "d": 216.53499999999985,
      "v": 106
    },
    {
      "midi": 69,
      "hit": false,
      "t": 28582.619999999974,
      "d": 88.58250000000044,
      "v": 87
    },
    {
      "midi": 72,
      "hit": false,
      "t": 28582.619999999974,
      "d": 95.96437499999956,
      "v": 88
    },
    {
      "midi": 76,
      "hit": false,
      "t": 28582.619999999974,
      "d": 100.88562499999898,
      "v": 79
    },
    {
      "midi": 57,
      "hit": false,
      "t": 28582.61999999998,
      "d": 68.89749999999913,
      "v": 58
    },
    {
      "midi": 60,
      "hit": false,
      "t": 28582.62,
      "d": 206.69250000000102,
      "v": 107
    },
    {
      "midi": 69,
      "hit": false,
      "t": 28818.83999999997,
      "d": 86.12187500000073,
      "v": 86
    },
    {
      "midi": 72,
      "hit": false,
      "t": 28818.83999999997,
      "d": 93.50374999999985,
      "v": 79
    },
    {
      "midi": 76,
      "hit": false,
      "t": 28818.83999999997,
      "d": 108.26749999999811,
      "v": 79
    },
    {
      "midi": 57,
      "hit": false,
      "t": 28818.83999999998,
      "d": 76.27937499999825,
      "v": 63
    },
    {
      "midi": 64,
      "hit": false,
      "t": 28818.84,
      "d": 455.2156250000007,
      "v": 105
    },
    {
      "midi": 69,
      "hit": false,
      "t": 29055.05999999997,
      "d": 86.12187500000073,
      "v": 84
    },
    {
      "midi": 72,
      "hit": false,
      "t": 29055.05999999997,
      "d": 103.34625000000233,
      "v": 78
    },
    {
      "midi": 76,
      "hit": false,
      "t": 29055.05999999997,
      "d": 110.72812500000146,
      "v": 85
    },
    {
      "midi": 57,
      "hit": false,
      "t": 29055.059999999976,
      "d": 73.81874999999854,
      "v": 57
    },
    {
      "midi": 33,
      "hit": false,
      "t": 29055.059999999998,
      "d": 103.34624999999869,
      "v": 99
    },
    {
      "midi": 69,
      "hit": false,
      "t": 29291.27999999997,
      "d": 88.58250000000044,
      "v": 78
    },
    {
      "midi": 72,
      "hit": false,
      "t": 29291.27999999997,
      "d": 98.42499999999927,
      "v": 78
    },
    {
      "midi": 76,
      "hit": false,
      "t": 29291.27999999997,
      "d": 103.34624999999869,
      "v": 82
    },
    {
      "midi": 57,
      "hit": false,
      "t": 29291.279999999973,
      "d": 76.27937499999825,
      "v": 58
    },
    {
      "midi": 33,
      "hit": false,
      "t": 29291.279999999995,
      "d": 127.95249999999942,
      "v": 103
    },
    {
      "midi": 69,
      "hit": false,
      "t": 29527.499999999967,
      "d": 86.12187500000073,
      "v": 80
    },
    {
      "midi": 72,
      "hit": false,
      "t": 29527.499999999967,
      "d": 98.42499999999927,
      "v": 81
    },
    {
      "midi": 76,
      "hit": false,
      "t": 29527.499999999967,
      "d": 98.42499999999927,
      "v": 86
    },
    {
      "midi": 57,
      "hit": false,
      "t": 29527.49999999997,
      "d": 76.27937499999825,
      "v": 58
    },
    {
      "midi": 33,
      "hit": false,
      "t": 29527.499999999996,
      "d": 120.57062500000029,
      "v": 100
    },
    {
      "midi": 69,
      "hit": false,
      "t": 29763.719999999965,
      "d": 86.12187500000073,
      "v": 82
    },
    {
      "midi": 72,
      "hit": false,
      "t": 29763.719999999965,
      "d": 88.58250000000044,
      "v": 85
    },
    {
      "midi": 76,
      "hit": false,
      "t": 29763.719999999965,
      "d": 95.96437499999956,
      "v": 82
    },
    {
      "midi": 57,
      "hit": false,
      "t": 29763.71999999997,
      "d": 76.27937499999825,
      "v": 63
    },
    {
      "midi": 69,
      "hit": false,
      "t": 29999.939999999966,
      "d": 95.96437499999956,
      "v": 84
    },
    {
      "midi": 72,
      "hit": false,
      "t": 29999.939999999966,
      "d": 95.96437499999956,
      "v": 78
    },
    {
      "midi": 76,
      "hit": false,
      "t": 29999.939999999966,
      "d": 95.96437499999956,
      "v": 87
    },
    {
      "midi": 57,
      "hit": false,
      "t": 29999.939999999966,
      "d": 83.66125000000102,
      "v": 70
    },
    {
      "midi": 33,
      "hit": false,
      "t": 29999.939999999995,
      "d": 93.50374999999985,
      "v": 95
    },
    {
      "midi": 67,
      "hit": false,
      "t": 30236.159999999967,
      "d": 91.04312500000015,
      "v": 86
    },
    {
      "midi": 71,
      "hit": false,
      "t": 30236.159999999967,
      "d": 91.04312500000015,
      "v": 78
    },
    {
      "midi": 74,
      "hit": false,
      "t": 30236.159999999967,
      "d": 105.8068749999984,
      "v": 84
    },
    {
      "midi": 55,
      "hit": false,
      "t": 30236.159999999967,
      "d": 81.20062500000131,
      "v": 60
    },
    {
      "midi": 31,
      "hit": false,
      "t": 30236.159999999996,
      "d": 489.6643750000003,
      "v": 110
    },
    {
      "midi": 67,
      "hit": false,
      "t": 30472.379999999965,
      "d": 88.58250000000044,
      "v": 86
    },
    {
      "midi": 71,
      "hit": false,
      "t": 30472.379999999965,
      "d": 95.96437499999956,
      "v": 86
    },
    {
      "midi": 74,
      "hit": false,
      "t": 30472.379999999965,
      "d": 105.8068749999984,
      "v": 85
    },
    {
      "midi": 55,
      "hit": false,
      "t": 30472.37999999997,
      "d": 76.27937499999825,
      "v": 61
    },
    {
      "midi": 62,
      "hit": false,
      "t": 30472.38,
      "d": 108.26750000000175,
      "v": 113
    },
    {
      "midi": 67,
      "hit": false,
      "t": 30708.599999999962,
      "d": 88.58250000000044,
      "v": 81
    },
    {
      "midi": 71,
      "hit": false,
      "t": 30708.599999999962,
      "d": 95.96437499999956,
      "v": 78
    },
    {
      "midi": 74,
      "hit": false,
      "t": 30708.599999999962,
      "d": 108.26749999999811,
      "v": 79
    },
    {
      "midi": 55,
      "hit": false,
      "t": 30708.599999999966,
      "d": 83.66125000000102,
      "v": 61
    },
    {
      "midi": 62,
      "hit": false,
      "t": 30708.600000000002,
      "d": 123.03125,
      "v": 106
    },
    {
      "midi": 67,
      "hit": false,
      "t": 30944.81999999996,
      "d": 86.12187500000073,
      "v": 79
    },
    {
      "midi": 71,
      "hit": false,
      "t": 30944.81999999996,
      "d": 93.50374999999985,
      "v": 83
    },
    {
      "midi": 74,
      "hit": false,
      "t": 30944.81999999996,
      "d": 108.26749999999811,
      "v": 84
    },
    {
      "midi": 55,
      "hit": false,
      "t": 30944.819999999967,
      "d": 76.27937499999825,
      "v": 65
    },
    {
      "midi": 31,
      "hit": false,
      "t": 30944.819999999996,
      "d": 115.64937500000087,
      "v": 98
    },
    {
      "midi": 62,
      "hit": false,
      "t": 30944.820000000003,
      "d": 115.64937500000087,
      "v": 108
    },
    {
      "midi": 67,
      "hit": false,
      "t": 31181.039999999957,
      "d": 88.58250000000044,
      "v": 78
    },
    {
      "midi": 71,
      "hit": false,
      "t": 31181.039999999957,
      "d": 88.58250000000044,
      "v": 78
    },
    {
      "midi": 74,
      "hit": false,
      "t": 31181.039999999957,
      "d": 108.26750000000175,
      "v": 79
    },
    {
      "midi": 55,
      "hit": false,
      "t": 31181.039999999964,
      "d": 78.7400000000016,
      "v": 65
    },
    {
      "midi": 31,
      "hit": false,
      "t": 31181.039999999997,
      "d": 127.95249999999942,
      "v": 98
    },
    {
      "midi": 62,
      "hit": false,
      "t": 31181.040000000005,
      "d": 123.03125,
      "v": 108
    },
    {
      "midi": 67,
      "hit": false,
      "t": 31417.25999999996,
      "d": 88.58250000000044,
      "v": 80
    },
    {
      "midi": 71,
      "hit": false,
      "t": 31417.25999999996,
      "d": 98.42499999999927,
      "v": 79
    },
    {
      "midi": 74,
      "hit": false,
      "t": 31417.25999999996,
      "d": 108.26749999999811,
      "v": 86
    },
    {
      "midi": 55,
      "hit": false,
      "t": 31417.259999999966,
      "d": 71.35812499999884,
      "v": 69
    },
    {
      "midi": 31,
      "hit": false,
      "t": 31417.26,
      "d": 137.79499999999825,
      "v": 99
    },
    {
      "midi": 62,
      "hit": false,
      "t": 31417.260000000006,
      "d": 152.55875000000015,
      "v": 102
    },
    {
      "midi": 67,
      "hit": false,
      "t": 31653.479999999956,
      "d": 95.96437499999956,
      "v": 85
    },
    {
      "midi": 71,
      "hit": false,
      "t": 31653.479999999956,
      "d": 95.96437499999956,
      "v": 78
    },
    {
      "midi": 74,
      "hit": false,
      "t": 31653.479999999956,
      "d": 110.72812499999782,
      "v": 85
    },
    {
      "midi": 55,
      "hit": false,
      "t": 31653.479999999963,
      "d": 81.20062500000131,
      "v": 64
    },
    {
      "midi": 62,
      "hit": false,
      "t": 31653.480000000007,
      "d": 214.07437500000015,
      "v": 102
    },
    {
      "midi": 71,
      "hit": false,
      "t": 31889.699999999953,
      "d": 88.58250000000044,
      "v": 80
    },
    {
      "midi": 67,
      "hit": false,
      "t": 31889.699999999953,
      "d": 91.04312500000015,
      "v": 80
    },
    {
      "midi": 74,
      "hit": false,
      "t": 31889.699999999953,
      "d": 105.8068749999984,
      "v": 82
    },
    {
      "midi": 55,
      "hit": false,
      "t": 31889.699999999964,
      "d": 73.81874999999854,
      "v": 63
    },
    {
      "midi": 60,
      "hit": false,
      "t": 31889.700000000008,
      "d": 204.2318750000013,
      "v": 111
    },
    {
      "midi": 67,
      "hit": false,
      "t": 32125.91999999995,
      "d": 83.66125000000102,
      "v": 84
    },
    {
      "midi": 71,
      "hit": false,
      "t": 32125.91999999995,
      "d": 88.58250000000044,
      "v": 86
    },
    {
      "midi": 74,
      "hit": false,
      "t": 32125.91999999995,
      "d": 103.34624999999869,
      "v": 78
    },
    {
      "midi": 55,
      "hit": false,
      "t": 32125.919999999962,
      "d": 71.35812499999884,
      "v": 66
    },
    {
      "midi": 31,
      "hit": false,
      "t": 32125.92,
      "d": 506.88874999999825,
      "v": 102
    },
    {
      "midi": 62,
      "hit": false,
      "t": 32125.92000000001,
      "d": 233.75937500000146,
      "v": 105
    },
    {
      "midi": 67,
      "hit": false,
      "t": 32362.13999999995,
      "d": 88.58250000000044,
      "v": 84
    },
    {
      "midi": 71,
      "hit": false,
      "t": 32362.13999999995,
      "d": 88.58250000000044,
      "v": 86
    },
    {
      "midi": 74,
      "hit": false,
      "t": 32362.13999999995,
      "d": 108.26750000000175,
      "v": 80
    },
    {
      "midi": 55,
      "hit": false,
      "t": 32362.13999999996,
      "d": 68.89749999999913,
      "v": 62
    },
    {
      "midi": 60,
      "hit": false,
      "t": 32362.14000000001,
      "d": 231.29875000000175,
      "v": 112
    },
    {
      "midi": 67,
      "hit": false,
      "t": 32598.35999999995,
      "d": 88.58250000000044,
      "v": 80
    },
    {
      "midi": 71,
      "hit": false,
      "t": 32598.35999999995,
      "d": 93.50374999999985,
      "v": 80
    },
    {
      "midi": 74,
      "hit": false,
      "t": 32598.35999999995,
      "d": 108.26749999999811,
      "v": 80
    },
    {
      "midi": 55,
      "hit": false,
      "t": 32598.359999999957,
      "d": 73.81874999999854,
      "v": 69
    },
    {
      "midi": 64,
      "hit": false,
      "t": 32598.36000000001,
      "d": 233.75937499999782,
      "v": 106
    },
    {
      "midi": 67,
      "hit": false,
      "t": 32834.57999999995,
      "d": 93.50375000000349,
      "v": 87
    },
    {
      "midi": 71,
      "hit": false,
      "t": 32834.57999999995,
      "d": 93.50375000000349,
      "v": 80
    },
    {
      "midi": 74,
      "hit": false,
      "t": 32834.57999999995,
      "d": 105.80687500000204,
      "v": 81
    },
    {
      "midi": 55,
      "hit": false,
      "t": 32834.57999999996,
      "d": 73.81874999999854,
      "v": 66
    },
    {
      "midi": 31,
      "hit": false,
      "t": 32834.579999999994,
      "d": 108.26750000000175,
      "v": 101
    },
    {
      "midi": 62,
      "hit": false,
      "t": 32834.58000000001,
      "d": 469.9793750000026,
      "v": 108
    },
    {
      "midi": 67,
      "hit": false,
      "t": 33070.79999999995,
      "d": 88.5824999999968,
      "v": 88
    },
    {
      "midi": 71,
      "hit": false,
      "t": 33070.79999999995,
      "d": 88.5824999999968,
      "v": 84
    },
    {
      "midi": 74,
      "hit": false,
      "t": 33070.79999999995,
      "d": 105.80687499999476,
      "v": 78
    },
    {
      "midi": 55,
      "hit": false,
      "t": 33070.79999999996,
      "d": 76.27937499999825,
      "v": 64
    },
    {
      "midi": 31,
      "hit": false,
      "t": 33070.799999999996,
      "d": 127.95249999999942,
      "v": 98
    },
    {
      "midi": 67,
      "hit": false,
      "t": 33307.019999999946,
      "d": 83.66124999999738,
      "v": 82
    },
    {
      "midi": 71,
      "hit": false,
      "t": 33307.019999999946,
      "d": 88.5824999999968,
      "v": 86
    },
    {
      "midi": 74,
      "hit": false,
      "t": 33307.019999999946,
      "d": 108.26749999999447,
      "v": 86
    },
    {
      "midi": 55,
      "hit": false,
      "t": 33307.01999999996,
      "d": 73.81874999999854,
      "v": 69
    },
    {
      "midi": 31,
      "hit": false,
      "t": 33307.02,
      "d": 125.49187499999971,
      "v": 104
    },
    {
      "midi": 60,
      "hit": false,
      "t": 33307.02000000001,
      "d": 226.37750000000233,
      "v": 94
    },
    {
      "midi": 67,
      "hit": false,
      "t": 33543.23999999994,
      "d": 86.12187499999709,
      "v": 78
    },
    {
      "midi": 71,
      "hit": false,
      "t": 33543.23999999994,
      "d": 88.5824999999968,
      "v": 85
    },
    {
      "midi": 74,
      "hit": false,
      "t": 33543.23999999994,
      "d": 98.42499999999563,
      "v": 87
    },
    {
      "midi": 55,
      "hit": false,
      "t": 33543.23999999996,
      "d": 68.89749999999913,
      "v": 69
    },
    {
      "midi": 57,
      "hit": false,
      "t": 33543.24000000001,
      "d": 282.9718750000029,
      "v": 83
    },
    {
      "midi": 67,
      "hit": false,
      "t": 33779.459999999934,
      "d": 88.5824999999968,
      "v": 80
    },
    {
      "midi": 71,
      "hit": false,
      "t": 33779.459999999934,
      "d": 88.5824999999968,
      "v": 81
    },
    {
      "midi": 74,
      "hit": false,
      "t": 33779.459999999934,
      "d": 93.50374999999622,
      "v": 86
    },
    {
      "midi": 55,
      "hit": false,
      "t": 33779.45999999996,
      "d": 71.35812499999884,
      "v": 68
    },
    {
      "midi": 31,
      "hit": false,
      "t": 33779.46,
      "d": 110.72812500000146,
      "v": 99
    },
    {
      "midi": 66,
      "hit": false,
      "t": 34015.67999999993,
      "d": 88.5824999999968,
      "v": 78
    },
    {
      "midi": 69,
      "hit": false,
      "t": 34015.67999999993,
      "d": 95.96437499999593,
      "v": 81
    },
    {
      "midi": 74,
      "hit": false,
      "t": 34015.67999999993,
      "d": 98.42499999999563,
      "v": 80
    },
    {
      "midi": 50,
      "hit": false,
      "t": 34015.679999999964,
      "d": 59.05500000000029,
      "v": 66
    },
    {
      "midi": 26,
      "hit": false,
      "t": 34015.68,
      "d": 521.6524999999965,
      "v": 109
    },
    {
      "midi": 66,
      "hit": false,
      "t": 34251.89999999992,
      "d": 88.5824999999968,
      "v": 85
    },
    {
      "midi": 69,
      "hit": false,
      "t": 34251.89999999992,
      "d": 95.96437499999593,
      "v": 82
    },
    {
      "midi": 74,
      "hit": false,
      "t": 34251.89999999992,
      "d": 98.42499999999563,
      "v": 86
    },
    {
      "midi": 50,
      "hit": false,
      "t": 34251.899999999965,
      "d": 71.35812499999884,
      "v": 66
    },
    {
      "midi": 66,
      "hit": false,
      "t": 34488.119999999915,
      "d": 88.5824999999968,
      "v": 86
    },
    {
      "midi": 69,
      "hit": false,
      "t": 34488.119999999915,
      "d": 105.80687499999476,
      "v": 79
    },
    {
      "midi": 74,
      "hit": false,
      "t": 34488.119999999915,
      "d": 113.18874999999389,
      "v": 85
    },
    {
      "midi": 50,
      "hit": false,
      "t": 34488.119999999966,
      "d": 73.81874999999854,
      "v": 64
    },
    {
      "midi": 62,
      "hit": false,
      "t": 34488.12000000002,
      "d": 132.87374999999884,
      "v": 106
    },
    {
      "midi": 66,
      "hit": false,
      "t": 34724.33999999991,
      "d": 88.5824999999968,
      "v": 79
    },
    {
      "midi": 69,
      "hit": false,
      "t": 34724.33999999991,
      "d": 95.96437499999593,
      "v": 83
    },
    {
      "midi": 74,
      "hit": false,
      "t": 34724.33999999991,
      "d": 105.80687499999476,
      "v": 87
    },
    {
      "midi": 50,
      "hit": false,
      "t": 34724.33999999997,
      "d": 66.43687499999942,
      "v": 65
    },
    {
      "midi": 26,
      "hit": false,
      "t": 34724.34,
      "d": 103.34625000000233,
      "v": 99
    },
    {
      "midi": 62,
      "hit": false,
      "t": 34724.34000000002,
      "d": 172.24375000000146,
      "v": 111
    },
    {
      "midi": 66,
      "hit": false,
      "t": 34960.5599999999,
      "d": 91.04312499999651,
      "v": 80
    },
    {
      "midi": 69,
      "hit": false,
      "t": 34960.5599999999,
      "d": 95.96437499999593,
      "v": 79
    },
    {
      "midi": 74,
      "hit": false,
      "t": 34960.5599999999,
      "d": 105.80687499999476,
      "v": 81
    },
    {
      "midi": 50,
      "hit": false,
      "t": 34960.55999999997,
      "d": 66.43687499999942,
      "v": 71
    },
    {
      "midi": 26,
      "hit": false,
      "t": 34960.56,
      "d": 123.03125,
      "v": 106
    },
    {
      "midi": 62,
      "hit": false,
      "t": 34960.56000000002,
      "d": 216.5350000000035,
      "v": 107
    },
    {
      "midi": 66,
      "hit": false,
      "t": 35196.7799999999,
      "d": 81.20062499999767,
      "v": 78
    },
    {
      "midi": 69,
      "hit": false,
      "t": 35196.7799999999,
      "d": 95.96437499999593,
      "v": 83
    },
    {
      "midi": 74,
      "hit": false,
      "t": 35196.7799999999,
      "d": 103.34624999999505,
      "v": 79
    },
    {
      "midi": 50,
      "hit": false,
      "t": 35196.77999999997,
      "d": 68.89749999999913,
      "v": 70
    },
    {
      "midi": 26,
      "hit": false,
      "t": 35196.78,
      "d": 125.49187499999971,
      "v": 101
    },
    {
      "midi": 62,
      "hit": false,
      "t": 35196.78000000002,
      "d": 211.6137499999968,
      "v": 105
    },
    {
      "midi": 69,
      "hit": false,
      "t": 35432.99999999989,
      "d": 88.5824999999968,
      "v": 80
    },
    {
      "midi": 66,
      "hit": false,
      "t": 35432.99999999989,
      "d": 91.04312499999651,
      "v": 85
    },
    {
      "midi": 74,
      "hit": false,
      "t": 35432.99999999989,
      "d": 98.42499999999563,
      "v": 78
    },
    {
      "midi": 50,
      "hit": false,
      "t": 35432.99999999997,
      "d": 100.88562500000262,
      "v": 70
    },
    {
      "midi": 62,
      "hit": false,
      "t": 35433.000000000015,
      "d": 233.75937500000146,
      "v": 109
    },
    {
      "midi": 74,
      "hit": false,
      "t": 35669.219999999885,
      "d": 93.50375000000349,
      "v": 81
    },
    {
      "midi": 66,
      "hit": false,
      "t": 35669.219999999885,
      "d": 95.9643750000032,
      "v": 87
    },
    {
      "midi": 69,
      "hit": false,
      "t": 35669.219999999885,
      "d": 98.42500000000291,
      "v": 84
    },
    {
      "midi": 50,
      "hit": false,
      "t": 35669.21999999997,
      "d": 88.5824999999968,
      "v": 67
    },
    {
      "midi": 64,
      "hit": false,
      "t": 35669.220000000016,
      "d": 233.75937500000146,
      "v": 93
    },
    {
      "midi": 65,
      "hit": false,
      "t": 35905.439999999886,
      "d": 71.35812499999884,
      "v": 81
    },
    {
      "midi": 69,
      "hit": false,
      "t": 35905.439999999886,
      "d": 78.73999999999796,
      "v": 87
    },
    {
      "midi": 72,
      "hit": false,
      "t": 35905.439999999886,
      "d": 113.18875000000116,
      "v": 83
    },
    {
      "midi": 53,
      "hit": false,
      "t": 35905.439999999966,
      "d": 63.97624999999971,
      "v": 67
    },
    {
      "midi": 29,
      "hit": false,
      "t": 35905.439999999995,
      "d": 501.96749999999884,
      "v": 104
    },
    {
      "midi": 62,
      "hit": false,
      "t": 35905.44000000002,
      "d": 233.75937500000146,
      "v": 106
    },
    {
      "midi": 65,
      "hit": false,
      "t": 36141.65999999989,
      "d": 83.66124999999738,
      "v": 80
    },
    {
      "midi": 69,
      "hit": false,
      "t": 36141.65999999989,
      "d": 83.66124999999738,
      "v": 85
    },
    {
      "midi": 72,
      "hit": false,
      "t": 36141.65999999989,
      "d": 105.80687499999476,
      "v": 86
    },
    {
      "midi": 53,
      "hit": false,
      "t": 36141.65999999997,
      "d": 78.73999999999796,
      "v": 66
    },
    {
      "midi": 60,
      "hit": false,
      "t": 36141.66000000002,
      "d": 233.75937500000146,
      "v": 102
    },
    {
      "midi": 65,
      "hit": false,
      "t": 36377.87999999988,
      "d": 88.5824999999968,
      "v": 81
    },
    {
      "midi": 69,
      "hit": false,
      "t": 36377.87999999988,
      "d": 91.04312499999651,
      "v": 85
    },
    {
      "midi": 72,
      "hit": false,
      "t": 36377.87999999988,
      "d": 103.34624999999505,
      "v": 86
    },
    {
      "midi": 53,
      "hit": false,
      "t": 36377.87999999997,
      "d": 66.43687499999942,
      "v": 61
    },
    {
      "midi": 57,
      "hit": false,
      "t": 36377.88000000002,
      "d": 369.09375,
      "v": 104
    },
    {
      "midi": 65,
      "hit": false,
      "t": 36614.099999999875,
      "d": 76.27937499999825,
      "v": 80
    },
    {
      "midi": 69,
      "hit": false,
      "t": 36614.099999999875,
      "d": 86.12187499999709,
      "v": 84
    },
    {
      "midi": 72,
      "hit": false,
      "t": 36614.099999999875,
      "d": 98.42499999999563,
      "v": 86
    },
    {
      "midi": 53,
      "hit": false,
      "t": 36614.09999999997,
      "d": 81.20062499999767,
      "v": 60
    },
    {
      "midi": 29,
      "hit": false,
      "t": 36614.09999999999,
      "d": 108.26750000000175,
      "v": 98
    },
    {
      "midi": 65,
      "hit": false,
      "t": 36850.31999999987,
      "d": 78.73999999999796,
      "v": 87
    },
    {
      "midi": 69,
      "hit": false,
      "t": 36850.31999999987,
      "d": 93.50374999999622,
      "v": 86
    },
    {
      "midi": 72,
      "hit": false,
      "t": 36850.31999999987,
      "d": 98.42499999999563,
      "v": 81
    },
    {
      "midi": 53,
      "hit": false,
      "t": 36850.31999999997,
      "d": 68.89749999999913,
      "v": 64
    },
    {
      "midi": 29,
      "hit": false,
      "t": 36850.31999999999,
      "d": 127.95249999999942,
      "v": 97
    },
    {
      "midi": 57,
      "hit": false,
      "t": 36850.32000000002,
      "d": 447.83374999999796,
      "v": 106
    },
    {
      "midi": 65,
      "hit": false,
      "t": 37086.53999999986,
      "d": 76.27937499999825,
      "v": 79
    },
    {
      "midi": 69,
      "hit": false,
      "t": 37086.53999999986,
      "d": 88.5824999999968,
      "v": 85
    },
    {
      "midi": 72,
      "hit": false,
      "t": 37086.53999999986,
      "d": 103.34624999999505,
      "v": 87
    },
    {
      "midi": 53,
      "hit": false,
      "t": 37086.53999999997,
      "d": 86.12187499999709,
      "v": 63
    },
    {
      "midi": 29,
      "hit": false,
      "t": 37086.53999999999,
      "d": 132.87374999999884,
      "v": 106
    },
    {
      "midi": 65,
      "hit": false,
      "t": 37322.75999999986,
      "d": 76.27937499999825,
      "v": 87
    },
    {
      "midi": 69,
      "hit": false,
      "t": 37322.75999999986,
      "d": 86.12187499999709,
      "v": 84
    },
    {
      "midi": 72,
      "hit": false,
      "t": 37322.75999999986,
      "d": 100.88562499999534,
      "v": 82
    },
    {
      "midi": 53,
      "hit": false,
      "t": 37322.759999999966,
      "d": 73.81874999999854,
      "v": 65
    },
    {
      "midi": 57,
      "hit": false,
      "t": 37322.76000000002,
      "d": 174.70437500000116,
      "v": 106
    },
    {
      "midi": 65,
      "hit": false,
      "t": 37558.97999999985,
      "d": 88.5824999999968,
      "v": 82
    },
    {
      "midi": 72,
      "hit": false,
      "t": 37558.97999999985,
      "d": 88.5824999999968,
      "v": 79
    },
    {
      "midi": 69,
      "hit": false,
      "t": 37558.97999999985,
      "d": 91.04312499999651,
      "v": 81
    },
    {
      "midi": 53,
      "hit": false,
      "t": 37558.97999999997,
      "d": 86.12187499999709,
      "v": 63
    },
    {
      "midi": 29,
      "hit": false,
      "t": 37558.979999999996,
      "d": 91.04312499999651,
      "v": 71
    },
    {
      "midi": 60,
      "hit": false,
      "t": 37558.98000000002,
      "d": 206.69249999999738,
      "v": 107
    },
    {
      "midi": 67,
      "hit": false,
      "t": 37795.199999999844,
      "d": 83.66124999999738,
      "v": 85
    },
    {
      "midi": 64,
      "hit": false,
      "t": 37795.199999999844,
      "d": 88.5824999999968,
      "v": 85
    },
    {
      "midi": 71,
      "hit": false,
      "t": 37795.199999999844,
      "d": 93.50374999999622,
      "v": 78
    },
    {
      "midi": 52,
      "hit": false,
      "t": 37795.19999999996,
      "d": 78.73999999999796,
      "v": 72
    },
    {
      "midi": 28,
      "hit": false,
      "t": 37795.19999999999,
      "d": 543.7981250000012,
      "v": 111
    },
    {
      "midi": 57,
      "hit": false,
      "t": 37795.20000000001,
      "d": 231.29875000000175,
      "v": 100
    },
    {
      "midi": 64,
      "hit": false,
      "t": 38031.41999999984,
      "d": 88.5824999999968,
      "v": 83
    },
    {
      "midi": 67,
      "hit": false,
      "t": 38031.41999999984,
      "d": 95.96437499999593,
      "v": 88
    },
    {
      "midi": 71,
      "hit": false,
      "t": 38031.41999999984,
      "d": 105.80687499999476,
      "v": 83
    },
    {
      "midi": 52,
      "hit": false,
      "t": 38031.41999999996,
      "d": 78.73999999999796,
      "v": 61
    },
    {
      "midi": 55,
      "hit": false,
      "t": 38031.42000000001,
      "d": 233.75937500000146,
      "v": 92
    },
    {
      "midi": 64,
      "hit": false,
      "t": 38267.63999999983,
      "d": 73.81874999999854,
      "v": 79
    },
    {
      "midi": 67,
      "hit": false,
      "t": 38267.63999999983,
      "d": 88.5824999999968,
      "v": 83
    },
    {
      "midi": 71,
      "hit": false,
      "t": 38267.63999999983,
      "d": 105.80687499999476,
      "v": 85
    },
    {
      "midi": 52,
      "hit": false,
      "t": 38267.63999999996,
      "d": 83.66124999999738,
      "v": 68
    },
    {
      "midi": 52,
      "hit": false,
      "t": 38267.639999999985,
      "d": 167.32250000000204,
      "v": 106
    },
    {
      "midi": 47,
      "hit": false,
      "t": 38267.639999999985,
      "d": 206.69250000000466,
      "v": 110
    },
    {
      "midi": 52,
      "hit": false,
      "t": 38267.640000000014,
      "d": 435.5306249999994,
      "v": 82
    },
    {
      "midi": 64,
      "hit": false,
      "t": 38503.859999999826,
      "d": 78.73999999999796,
      "v": 81
    },
    {
      "midi": 67,
      "hit": false,
      "t": 38503.859999999826,
      "d": 88.5824999999968,
      "v": 86
    },
    {
      "midi": 71,
      "hit": false,
      "t": 38503.859999999826,
      "d": 98.42499999999563,
      "v": 79
    },
    {
      "midi": 52,
      "hit": false,
      "t": 38503.85999999996,
      "d": 86.12187499999709,
      "v": 62
    },
    {
      "midi": 28,
      "hit": false,
      "t": 38503.85999999999,
      "d": 118.11000000000058,
      "v": 107
    },
    {
      "midi": 64,
      "hit": false,
      "t": 38740.07999999982,
      "d": 76.27937499999825,
      "v": 81
    },
    {
      "midi": 67,
      "hit": false,
      "t": 38740.07999999982,
      "d": 86.12187499999709,
      "v": 86
    },
    {
      "midi": 71,
      "hit": false,
      "t": 38740.07999999982,
      "d": 98.42499999999563,
      "v": 81
    },
    {
      "midi": 52,
      "hit": false,
      "t": 38740.07999999995,
      "d": 78.73999999999796,
      "v": 70
    },
    {
      "midi": 45,
      "hit": false,
      "t": 38740.07999999999,
      "d": 231.29875000000175,
      "v": 96
    },
    {
      "midi": 50,
      "hit": false,
      "t": 38740.07999999999,
      "d": 253.44437499999913,
      "v": 99
    },
    {
      "midi": 26,
      "hit": false,
      "t": 38740.079999999994,
      "d": 211.6137499999968,
      "v": 108
    },
    {
      "midi": 52,
      "hit": false,
      "t": 38740.080000000016,
      "d": 681.5931249999994,
      "v": 86
    },
    {
      "midi": 64,
      "hit": false,
      "t": 38976.299999999814,
      "d": 81.20062499999767,
      "v": 78
    },
    {
      "midi": 67,
      "hit": false,
      "t": 38976.299999999814,
      "d": 83.66124999999738,
      "v": 82
    },
    {
      "midi": 71,
      "hit": false,
      "t": 38976.299999999814,
      "d": 100.88562499999534,
      "v": 83
    },
    {
      "midi": 52,
      "hit": false,
      "t": 38976.29999999995,
      "d": 91.04312499999651,
      "v": 65
    },
    {
      "midi": 28,
      "hit": false,
      "t": 38976.29999999999,
      "d": 127.95249999999942,
      "v": 108
    },
    {
      "midi": 52,
      "hit": false,
      "t": 38976.29999999999,
      "d": 484.7431250000009,
      "v": 97
    },
    {
      "midi": 47,
      "hit": false,
      "t": 38976.29999999999,
      "d": 492.125,
      "v": 97
    },
    {
      "midi": 64,
      "hit": false,
      "t": 39212.51999999981,
      "d": 83.66124999999738,
      "v": 87
    },
    {
      "midi": 67,
      "hit": false,
      "t": 39212.51999999981,
      "d": 88.5824999999968,
      "v": 81
    },
    {
      "midi": 71,
      "hit": false,
      "t": 39212.51999999981,
      "d": 108.26749999999447,
      "v": 80
    },
    {
      "midi": 52,
      "hit": false,
      "t": 39212.519999999946,
      "d": 73.81874999999854,
      "v": 71
    },
    {
      "midi": 64,
      "hit": false,
      "t": 39448.7399999998,
      "d": 78.73999999999796,
      "v": 79
    },
    {
      "midi": 67,
      "hit": false,
      "t": 39448.7399999998,
      "d": 88.5824999999968,
      "v": 85
    },
    {
      "midi": 71,
      "hit": false,
      "t": 39448.7399999998,
      "d": 105.80687499999476,
      "v": 82
    },
    {
      "midi": 52,
      "hit": false,
      "t": 39448.73999999995,
      "d": 95.9643750000032,
      "v": 69
    },
    {
      "midi": 64,
      "hit": false,
      "t": 39684.959999999795,
      "d": 78.73999999999796,
      "v": 83
    },
    {
      "midi": 67,
      "hit": false,
      "t": 39684.959999999795,
      "d": 83.66124999999738,
      "v": 78
    },
    {
      "midi": 71,
      "hit": false,
      "t": 39684.959999999795,
      "d": 103.34624999999505,
      "v": 80
    },
    {
      "midi": 52,
      "hit": false,
      "t": 39684.95999999995,
      "d": 78.73999999999796,
      "v": 74
    },
    {
      "midi": 28,
      "hit": false,
      "t": 39684.959999999985,
      "d": 551.1800000000003,
      "v": 106
    },
    {
      "midi": 64,
      "hit": false,
      "t": 39921.17999999979,
      "d": 81.20062499999767,
      "v": 85
    },
    {
      "midi": 67,
      "hit": false,
      "t": 39921.17999999979,
      "d": 86.12187499999709,
      "v": 83
    },
    {
      "midi": 71,
      "hit": false,
      "t": 39921.17999999979,
      "d": 98.42499999999563,
      "v": 79
    },
    {
      "midi": 52,
      "hit": false,
      "t": 39921.17999999995,
      "d": 95.9643750000032,
      "v": 71
    },
    {
      "midi": 64,
      "hit": false,
      "t": 40157.39999999978,
      "d": 81.20062499999767,
      "v": 80
    },
    {
      "midi": 67,
      "hit": false,
      "t": 40157.39999999978,
      "d": 88.5824999999968,
      "v": 83
    },
    {
      "midi": 71,
      "hit": false,
      "t": 40157.39999999978,
      "d": 103.34624999999505,
      "v": 86
    },
    {
      "midi": 52,
      "hit": false,
      "t": 40157.39999999995,
      "d": 73.81874999999854,
      "v": 66
    },
    {
      "midi": 52,
      "hit": false,
      "t": 40157.39999999999,
      "d": 169.78312500000175,
      "v": 104
    },
    {
      "midi": 47,
      "hit": false,
      "t": 40157.39999999999,
      "d": 191.92874999999913,
      "v": 99
    },
    {
      "midi": 64,
      "hit": false,
      "t": 40393.61999999978,
      "d": 76.27937499999825,
      "v": 85
    },
    {
      "midi": 67,
      "hit": false,
      "t": 40393.61999999978,
      "d": 78.73999999999796,
      "v": 81
    },
    {
      "midi": 71,
      "hit": false,
      "t": 40393.61999999978,
      "d": 100.88562499999534,
      "v": 79
    },
    {
      "midi": 52,
      "hit": false,
      "t": 40393.61999999995,
      "d": 93.50375000000349,
      "v": 71
    },
    {
      "midi": 28,
      "hit": false,
      "t": 40393.61999999999,
      "d": 211.6137499999968,
      "v": 106
    },
    {
      "midi": 64,
      "hit": false,
      "t": 40629.83999999977,
      "d": 81.20062499999767,
      "v": 86
    },
    {
      "midi": 67,
      "hit": false,
      "t": 40629.83999999977,
      "d": 88.5824999999968,
      "v": 83
    },
    {
      "midi": 71,
      "hit": false,
      "t": 40629.83999999977,
      "d": 95.96437499999593,
      "v": 82
    },
    {
      "midi": 52,
      "hit": false,
      "t": 40629.83999999995,
      "d": 78.73999999999796,
      "v": 75
    },
    {
      "midi": 26,
      "hit": false,
      "t": 40629.83999999998,
      "d": 201.77124999999796,
      "v": 99
    },
    {
      "midi": 50,
      "hit": false,
      "t": 40629.83999999999,
      "d": 246.0625,
      "v": 93
    },
    {
      "midi": 45,
      "hit": false,
      "t": 40629.83999999999,
      "d": 250.98374999999942,
      "v": 92
    },
    {
      "midi": 50,
      "hit": false,
      "t": 40629.84,
      "d": 265.7474999999977,
      "v": 99
    },
    {
      "midi": 64,
      "hit": false,
      "t": 40866.059999999765,
      "d": 81.20062499999767,
      "v": 78
    },
    {
      "midi": 67,
      "hit": false,
      "t": 40866.059999999765,
      "d": 83.66124999999738,
      "v": 78
    },
    {
      "midi": 71,
      "hit": false,
      "t": 40866.059999999765,
      "d": 98.42499999999563,
      "v": 79
    },
    {
      "midi": 52,
      "hit": false,
      "t": 40866.059999999954,
      "d": 95.9643750000032,
      "v": 73
    },
    {
      "midi": 28,
      "hit": false,
      "t": 40866.05999999998,
      "d": 228.83812500000204,
      "v": 104
    },
    {
      "midi": 52,
      "hit": false,
      "t": 40866.05999999999,
      "d": 472.43999999999505,
      "v": 98
    },
    {
      "midi": 47,
      "hit": false,
      "t": 40866.05999999999,
      "d": 492.1249999999927,
      "v": 94
    },
    {
      "midi": 52,
      "hit": false,
      "t": 40866.06,
      "d": 194.38937499999884,
      "v": 93
    },
    {
      "midi": 64,
      "hit": false,
      "t": 41102.27999999976,
      "d": 83.66124999999738,
      "v": 78
    },
    {
      "midi": 67,
      "hit": false,
      "t": 41102.27999999976,
      "d": 88.5824999999968,
      "v": 82
    },
    {
      "midi": 71,
      "hit": false,
      "t": 41102.27999999976,
      "d": 103.34624999999505,
      "v": 86
    },
    {
      "midi": 52,
      "hit": false,
      "t": 41102.279999999955,
      "d": 78.73999999999796,
      "v": 68
    },
    {
      "midi": 31,
      "hit": false,
      "t": 41102.279999999984,
      "d": 233.75937500000146,
      "v": 101
    },
    {
      "midi": 55,
      "hit": false,
      "t": 41102.28,
      "d": 265.7474999999977,
      "v": 92
    },
    {
      "midi": 64,
      "hit": false,
      "t": 41338.49999999975,
      "d": 98.42500000000291,
      "v": 80
    },
    {
      "midi": 67,
      "hit": false,
      "t": 41338.49999999975,
      "d": 118.11000000000058,
      "v": 79
    },
    {
      "midi": 71,
      "hit": false,
      "t": 41338.49999999975,
      "d": 123.03125,
      "v": 85
    },
    {
      "midi": 52,
      "hit": false,
      "t": 41338.499999999956,
      "d": 98.42500000000291,
      "v": 65
    },
    {
      "midi": 28,
      "hit": false,
      "t": 41338.499999999985,
      "d": 199.31062499999825,
      "v": 101
    },
    {
      "midi": 52,
      "hit": false,
      "t": 41338.5,
      "d": 223.91687499999534,
      "v": 92
    },
    {
      "midi": 69,
      "hit": false,
      "t": 41574.719999999754,
      "d": 78.73999999999796,
      "v": 87
    },
    {
      "midi": 72,
      "hit": false,
      "t": 41574.719999999754,
      "d": 83.66124999999738,
      "v": 79
    },
    {
      "midi": 76,
      "hit": false,
      "t": 41574.719999999754,
      "d": 86.12187499999709,
      "v": 79
    },
    {
      "midi": 57,
      "hit": false,
      "t": 41574.71999999996,
      "d": 66.43687499999942,
      "v": 72
    },
    {
      "midi": 33,
      "hit": false,
      "t": 41574.71999999999,
      "d": 526.5737500000032,
      "v": 102
    },
    {
      "midi": 57,
      "hit": false,
      "t": 41574.719999999994,
      "d": 551.1800000000003,
      "v": 100
    },
    {
      "midi": 69,
      "hit": false,
      "t": 41810.93999999975,
      "d": 88.5824999999968,
      "v": 79
    },
    {
      "midi": 72,
      "hit": false,
      "t": 41810.93999999975,
      "d": 88.5824999999968,
      "v": 83
    },
    {
      "midi": 76,
      "hit": false,
      "t": 41810.93999999975,
      "d": 93.50374999999622,
      "v": 86
    },
    {
      "midi": 57,
      "hit": false,
      "t": 41810.93999999996,
      "d": 66.43687499999942,
      "v": 64
    },
    {
      "midi": 69,
      "hit": false,
      "t": 42047.15999999974,
      "d": 78.73999999999796,
      "v": 78
    },
    {
      "midi": 72,
      "hit": false,
      "t": 42047.15999999974,
      "d": 88.5824999999968,
      "v": 80
    },
    {
      "midi": 76,
      "hit": false,
      "t": 42047.15999999974,
      "d": 98.42499999999563,
      "v": 80
    },
    {
      "midi": 57,
      "hit": false,
      "t": 42047.15999999996,
      "d": 76.27937499999825,
      "v": 68
    },
    {
      "midi": 64,
      "hit": false,
      "t": 42047.16000000002,
      "d": 159.9406250000029,
      "v": 110
    },
    {
      "midi": 69,
      "hit": false,
      "t": 42283.379999999735,
      "d": 81.20062499999767,
      "v": 83
    },
    {
      "midi": 72,
      "hit": false,
      "t": 42283.379999999735,
      "d": 81.20062499999767,
      "v": 81
    },
    {
      "midi": 76,
      "hit": false,
      "t": 42283.379999999735,
      "d": 100.88562499999534,
      "v": 79
    },
    {
      "midi": 57,
      "hit": false,
      "t": 42283.37999999996,
      "d": 76.27937499999825,
      "v": 62
    },
    {
      "midi": 33,
      "hit": false,
      "t": 42283.37999999999,
      "d": 110.72812500000146,
      "v": 101
    },
    {
      "midi": 64,
      "hit": false,
      "t": 42283.38000000002,
      "d": 167.32250000000204,
      "v": 106
    },
    {
      "midi": 69,
      "hit": false,
      "t": 42519.59999999973,
      "d": 81.20062499999767,
      "v": 82
    },
    {
      "midi": 72,
      "hit": false,
      "t": 42519.59999999973,
      "d": 91.04312499999651,
      "v": 79
    },
    {
      "midi": 76,
      "hit": false,
      "t": 42519.59999999973,
      "d": 100.88562499999534,
      "v": 87
    },
    {
      "midi": 57,
      "hit": false,
      "t": 42519.59999999996,
      "d": 73.81874999999854,
      "v": 61
    },
    {
      "midi": 33,
      "hit": false,
      "t": 42519.59999999999,
      "d": 135.33437499999854,
      "v": 98
    },
    {
      "midi": 64,
      "hit": false,
      "t": 42519.60000000002,
      "d": 167.32250000000204,
      "v": 114
    },
    {
      "midi": 69,
      "hit": false,
      "t": 42755.81999999972,
      "d": 86.12187499999709,
      "v": 82
    },
    {
      "midi": 72,
      "hit": false,
      "t": 42755.81999999972,
      "d": 88.5824999999968,
      "v": 86
    },
    {
      "midi": 76,
      "hit": false,
      "t": 42755.81999999972,
      "d": 103.34624999999505,
      "v": 78
    },
    {
      "midi": 57,
      "hit": false,
      "t": 42755.81999999996,
      "d": 73.81874999999854,
      "v": 67
    },
    {
      "midi": 33,
      "hit": false,
      "t": 42755.81999999999,
      "d": 127.95249999999942,
      "v": 97
    },
    {
      "midi": 62,
      "hit": false,
      "t": 42755.82000000002,
      "d": 130.41312499999913,
      "v": 113
    },
    {
      "midi": 69,
      "hit": false,
      "t": 42992.03999999972,
      "d": 88.5824999999968,
      "v": 82
    },
    {
      "midi": 72,
      "hit": false,
      "t": 42992.03999999972,
      "d": 93.50374999999622,
      "v": 80
    },
    {
      "midi": 76,
      "hit": false,
      "t": 42992.03999999972,
      "d": 108.26749999999447,
      "v": 82
    },
    {
      "midi": 57,
      "hit": false,
      "t": 42992.039999999964,
      "d": 76.27937499999825,
      "v": 60
    },
    {
      "midi": 62,
      "hit": false,
      "t": 42992.04000000002,
      "d": 142.71624999999767,
      "v": 103
    },
    {
      "midi": 69,
      "hit": false,
      "t": 43228.25999999971,
      "d": 78.73999999999796,
      "v": 87
    },
    {
      "midi": 72,
      "hit": false,
      "t": 43228.25999999971,
      "d": 95.96437499999593,
      "v": 84
    },
    {
      "midi": 76,
      "hit": false,
      "t": 43228.25999999971,
      "d": 105.80687499999476,
      "v": 78
    },
    {
      "midi": 57,
      "hit": false,
      "t": 43228.259999999966,
      "d": 76.27937499999825,
      "v": 66
    },
    {
      "midi": 62,
      "hit": false,
      "t": 43228.260000000024,
      "d": 120.57062500000029,
      "v": 113
    },
    {
      "midi": 69,
      "hit": false,
      "t": 43464.479999999705,
      "d": 88.5824999999968,
      "v": 80
    },
    {
      "midi": 72,
      "hit": false,
      "t": 43464.479999999705,
      "d": 88.5824999999968,
      "v": 81
    },
    {
      "midi": 76,
      "hit": false,
      "t": 43464.479999999705,
      "d": 105.80687499999476,
      "v": 79
    },
    {
      "midi": 57,
      "hit": false,
      "t": 43464.47999999997,
      "d": 76.27937499999825,
      "v": 71
    },
    {
      "midi": 33,
      "hit": false,
      "t": 43464.47999999999,
      "d": 504.42812499999854,
      "v": 104
    },
    {
      "midi": 62,
      "hit": false,
      "t": 43464.480000000025,
      "d": 214.0743749999965,
      "v": 112
    },
    {
      "midi": 69,
      "hit": false,
      "t": 43700.6999999997,
      "d": 81.20062499999767,
      "v": 78
    },
    {
      "midi": 72,
      "hit": false,
      "t": 43700.6999999997,
      "d": 88.5824999999968,
      "v": 80
    },
    {
      "midi": 76,
      "hit": false,
      "t": 43700.6999999997,
      "d": 108.26749999999447,
      "v": 87
    },
    {
      "midi": 57,
      "hit": false,
      "t": 43700.69999999997,
      "d": 68.89749999999913,
      "v": 65
    },
    {
      "midi": 60,
      "hit": false,
      "t": 43700.70000000002,
      "d": 216.5350000000035,
      "v": 111
    },
    {
      "midi": 69,
      "hit": false,
      "t": 43936.91999999969,
      "d": 88.5824999999968,
      "v": 86
    },
    {
      "midi": 72,
      "hit": false,
      "t": 43936.91999999969,
      "d": 93.50374999999622,
      "v": 85
    },
    {
      "midi": 76,
      "hit": false,
      "t": 43936.91999999969,
      "d": 110.72812499999418,
      "v": 81
    },
    {
      "midi": 57,
      "hit": false,
      "t": 43936.91999999997,
      "d": 76.27937499999825,
      "v": 64
    },
    {
      "midi": 64,
      "hit": false,
      "t": 43936.92000000002,
      "d": 501.96749999999884,
      "v": 102
    },
    {
      "midi": 69,
      "hit": false,
      "t": 44173.13999999969,
      "d": 78.73999999999796,
      "v": 80
    },
    {
      "midi": 72,
      "hit": false,
      "t": 44173.13999999969,
      "d": 88.5824999999968,
      "v": 79
    },
    {
      "midi": 76,
      "hit": false,
      "t": 44173.13999999969,
      "d": 105.80687499999476,
      "v": 81
    },
    {
      "midi": 57,
      "hit": false,
      "t": 44173.13999999997,
      "d": 73.81874999999854,
      "v": 63
    },
    {
      "midi": 33,
      "hit": false,
      "t": 44173.139999999985,
      "d": 108.26750000000175,
      "v": 96
    },
    {
      "midi": 69,
      "hit": false,
      "t": 44409.35999999968,
      "d": 88.5824999999968,
      "v": 84
    },
    {
      "midi": 72,
      "hit": false,
      "t": 44409.35999999968,
      "d": 98.42499999999563,
      "v": 87
    },
    {
      "midi": 76,
      "hit": false,
      "t": 44409.35999999968,
      "d": 105.80687499999476,
      "v": 80
    },
    {
      "midi": 57,
      "hit": false,
      "t": 44409.35999999997,
      "d": 76.27937499999825,
      "v": 65
    },
    {
      "midi": 33,
      "hit": false,
      "t": 44409.359999999986,
      "d": 130.41312499999913,
      "v": 96
    },
    {
      "midi": 69,
      "hit": false,
      "t": 44645.579999999674,
      "d": 83.66124999999738,
      "v": 81
    },
    {
      "midi": 72,
      "hit": false,
      "t": 44645.579999999674,
      "d": 88.5824999999968,
      "v": 87
    },
    {
      "midi": 76,
      "hit": false,
      "t": 44645.579999999674,
      "d": 103.34624999999505,
      "v": 82
    },
    {
      "midi": 57,
      "hit": false,
      "t": 44645.57999999997,
      "d": 76.27937499999825,
      "v": 56
    },
    {
      "midi": 33,
      "hit": false,
      "t": 44645.57999999999,
      "d": 118.11000000000058,
      "v": 102
    },
    {
      "midi": 69,
      "hit": false,
      "t": 44881.79999999967,
      "d": 81.20062499999767,
      "v": 81
    },
    {
      "midi": 72,
      "hit": false,
      "t": 44881.79999999967,
      "d": 91.04312499999651,
      "v": 87
    },
    {
      "midi": 76,
      "hit": false,
      "t": 44881.79999999967,
      "d": 98.42499999999563,
      "v": 81
    },
    {
      "midi": 57,
      "hit": false,
      "t": 44881.799999999974,
      "d": 76.27937499999825,
      "v": 55
    },
    {
      "midi": 72,
      "hit": false,
      "t": 45118.01999999966,
      "d": 83.66124999999738,
      "v": 83
    },
    {
      "midi": 69,
      "hit": false,
      "t": 45118.01999999966,
      "d": 86.12187499999709,
      "v": 84
    },
    {
      "midi": 76,
      "hit": false,
      "t": 45118.01999999966,
      "d": 88.5824999999968,
      "v": 84
    },
    {
      "midi": 57,
      "hit": false,
      "t": 45118.019999999975,
      "d": 83.66124999999738,
      "v": 64
    },
    {
      "midi": 33,
      "hit": false,
      "t": 45118.01999999999,
      "d": 91.04312499999651,
      "v": 101
    },
    {
      "midi": 67,
      "hit": false,
      "t": 45354.239999999656,
      "d": 86.12187499999709,
      "v": 84
    },
    {
      "midi": 71,
      "hit": false,
      "t": 45354.239999999656,
      "d": 93.50374999999622,
      "v": 85
    },
    {
      "midi": 74,
      "hit": false,
      "t": 45354.239999999656,
      "d": 100.88562499999534,
      "v": 82
    },
    {
      "midi": 55,
      "hit": false,
      "t": 45354.23999999997,
      "d": 81.20062499999767,
      "v": 66
    },
    {
      "midi": 31,
      "hit": false,
      "t": 45354.23999999998,
      "d": 482.28250000000116,
      "v": 100
    },
    {
      "midi": 67,
      "hit": false,
      "t": 45590.45999999965,
      "d": 83.66124999999738,
      "v": 84
    },
    {
      "midi": 71,
      "hit": false,
      "t": 45590.45999999965,
      "d": 93.50374999999622,
      "v": 78
    },
    {
      "midi": 74,
      "hit": false,
      "t": 45590.45999999965,
      "d": 105.80687499999476,
      "v": 85
    },
    {
      "midi": 55,
      "hit": false,
      "t": 45590.45999999997,
      "d": 76.27937499999825,
      "v": 65
    },
    {
      "midi": 62,
      "hit": false,
      "t": 45590.46000000002,
      "d": 137.79499999999825,
      "v": 109
    },
    {
      "midi": 67,
      "hit": false,
      "t": 45826.679999999644,
      "d": 86.12187499999709,
      "v": 85
    },
    {
      "midi": 71,
      "hit": false,
      "t": 45826.679999999644,
      "d": 93.50374999999622,
      "v": 81
    },
    {
      "midi": 74,
      "hit": false,
      "t": 45826.679999999644,
      "d": 105.80687499999476,
      "v": 80
    },
    {
      "midi": 55,
      "hit": false,
      "t": 45826.67999999997,
      "d": 83.66124999999738,
      "v": 61
    },
    {
      "midi": 62,
      "hit": false,
      "t": 45826.68000000002,
      "d": 137.79499999999825,
      "v": 110
    },
    {
      "midi": 67,
      "hit": false,
      "t": 46062.89999999964,
      "d": 83.66124999999738,
      "v": 87
    },
    {
      "midi": 71,
      "hit": false,
      "t": 46062.89999999964,
      "d": 91.04312499999651,
      "v": 78
    },
    {
      "midi": 74,
      "hit": false,
      "t": 46062.89999999964,
      "d": 103.34624999999505,
      "v": 78
    },
    {
      "midi": 55,
      "hit": false,
      "t": 46062.899999999965,
      "d": 76.27937499999825,
      "v": 63
    },
    {
      "midi": 31,
      "hit": false,
      "t": 46062.89999999999,
      "d": 105.80687500000204,
      "v": 105
    },
    {
      "midi": 62,
      "hit": false,
      "t": 46062.90000000002,
      "d": 127.95249999999942,
      "v": 112
    },
    {
      "midi": 67,
      "hit": false,
      "t": 46299.11999999963,
      "d": 81.20062499999767,
      "v": 83
    },
    {
      "midi": 71,
      "hit": false,
      "t": 46299.11999999963,
      "d": 91.04312499999651,
      "v": 78
    },
    {
      "midi": 74,
      "hit": false,
      "t": 46299.11999999963,
      "d": 98.42499999999563,
      "v": 81
    },
    {
      "midi": 55,
      "hit": false,
      "t": 46299.119999999966,
      "d": 78.73999999999796,
      "v": 66
    },
    {
      "midi": 31,
      "hit": false,
      "t": 46299.11999999999,
      "d": 132.87374999999884,
      "v": 103
    },
    {
      "midi": 62,
      "hit": false,
      "t": 46299.120000000024,
      "d": 135.33437499999854,
      "v": 107
    },
    {
      "midi": 67,
      "hit": false,
      "t": 46535.339999999625,
      "d": 81.20062499999767,
      "v": 79
    },
    {
      "midi": 71,
      "hit": false,
      "t": 46535.339999999625,
      "d": 88.5824999999968,
      "v": 84
    },
    {
      "midi": 74,
      "hit": false,
      "t": 46535.339999999625,
      "d": 98.42499999999563,
      "v": 84
    },
    {
      "midi": 55,
      "hit": false,
      "t": 46535.33999999997,
      "d": 71.35812499999884,
      "v": 64
    },
    {
      "midi": 31,
      "hit": false,
      "t": 46535.33999999999,
      "d": 127.95249999999942,
      "v": 104
    },
    {
      "midi": 62,
      "hit": false,
      "t": 46535.340000000026,
      "d": 147.6374999999971,
      "v": 106
    },
    {
      "midi": 67,
      "hit": false,
      "t": 46771.55999999962,
      "d": 83.66124999999738,
      "v": 78
    },
    {
      "midi": 71,
      "hit": false,
      "t": 46771.55999999962,
      "d": 93.50374999999622,
      "v": 87
    },
    {
      "midi": 74,
      "hit": false,
      "t": 46771.55999999962,
      "d": 105.80687499999476,
      "v": 84
    },
    {
      "midi": 55,
      "hit": false,
      "t": 46771.55999999997,
      "d": 81.20062499999767,
      "v": 66
    },
    {
      "midi": 62,
      "hit": false,
      "t": 46771.56000000002,
      "d": 157.4800000000032,
      "v": 105
    },
    {
      "midi": 67,
      "hit": false,
      "t": 47007.77999999961,
      "d": 71.35812499999884,
      "v": 82
    },
    {
      "midi": 71,
      "hit": false,
      "t": 47007.77999999961,
      "d": 93.50374999999622,
      "v": 80
    },
    {
      "midi": 74,
      "hit": false,
      "t": 47007.77999999961,
      "d": 103.34624999999505,
      "v": 87
    },
    {
      "midi": 55,
      "hit": false,
      "t": 47007.77999999997,
      "d": 73.81874999999854,
      "v": 69
    },
    {
      "midi": 62,
      "hit": false,
      "t": 47007.78000000002,
      "d": 118.11000000000058,
      "v": 112
    },
    {
      "midi": 67,
      "hit": false,
      "t": 47243.99999999961,
      "d": 78.73999999999796,
      "v": 81
    },
    {
      "midi": 71,
      "hit": false,
      "t": 47243.99999999961,
      "d": 95.96437499999593,
      "v": 85
    },
    {
      "midi": 74,
      "hit": false,
      "t": 47243.99999999961,
      "d": 105.80687499999476,
      "v": 80
    },
    {
      "midi": 55,
      "hit": false,
      "t": 47243.99999999997,
      "d": 71.35812499999884,
      "v": 67
    },
    {
      "midi": 31,
      "hit": false,
      "t": 47243.999999999985,
      "d": 511.8099999999977,
      "v": 105
    },
    {
      "midi": 62,
      "hit": false,
      "t": 47244.00000000002,
      "d": 233.75937500000146,
      "v": 98
    },
    {
      "midi": 67,
      "hit": false,
      "t": 47480.2199999996,
      "d": 81.20062499999767,
      "v": 79
    },
    {
      "midi": 71,
      "hit": false,
      "t": 47480.2199999996,
      "d": 93.50374999999622,
      "v": 78
    },
    {
      "midi": 74,
      "hit": false,
      "t": 47480.2199999996,
      "d": 105.80687499999476,
      "v": 82
    },
    {
      "midi": 55,
      "hit": false,
      "t": 47480.21999999997,
      "d": 68.89749999999913,
      "v": 64
    },
    {
      "midi": 60,
      "hit": false,
      "t": 47480.22000000002,
      "d": 233.75937500000146,
      "v": 108
    },
    {
      "midi": 67,
      "hit": false,
      "t": 47716.439999999595,
      "d": 78.73999999999796,
      "v": 78
    },
    {
      "midi": 71,
      "hit": false,
      "t": 47716.439999999595,
      "d": 93.50374999999622,
      "v": 80
    },
    {
      "midi": 74,
      "hit": false,
      "t": 47716.439999999595,
      "d": 105.80687499999476,
      "v": 81
    },
    {
      "midi": 55,
      "hit": false,
      "t": 47716.43999999997,
      "d": 73.81874999999854,
      "v": 68
    },
    {
      "midi": 64,
      "hit": false,
      "t": 47716.440000000024,
      "d": 233.75937500000146,
      "v": 107
    },
    {
      "midi": 67,
      "hit": false,
      "t": 47952.65999999959,
      "d": 81.20062499999767,
      "v": 86
    },
    {
      "midi": 71,
      "hit": false,
      "t": 47952.65999999959,
      "d": 98.42499999999563,
      "v": 80
    },
    {
      "midi": 74,
      "hit": false,
      "t": 47952.65999999959,
      "d": 105.80687499999476,
      "v": 81
    },
    {
      "midi": 55,
      "hit": false,
      "t": 47952.659999999974,
      "d": 73.81874999999854,
      "v": 66
    },
    {
      "midi": 31,
      "hit": false,
      "t": 47952.65999999998,
      "d": 105.80687500000204,
      "v": 99
    },
    {
      "midi": 62,
      "hit": false,
      "t": 47952.660000000025,
      "d": 469.9793750000026,
      "v": 112
    },
    {
      "midi": 67,
      "hit": false,
      "t": 48188.87999999958,
      "d": 83.66124999999738,
      "v": 82
    },
    {
      "midi": 71,
      "hit": false,
      "t": 48188.87999999958,
      "d": 95.96437499999593,
      "v": 86
    },
    {
      "midi": 74,
      "hit": false,
      "t": 48188.87999999958,
      "d": 108.26749999999447,
      "v": 84
    },
    {
      "midi": 55,
      "hit": false,
      "t": 48188.879999999976,
      "d": 76.27937499999825,
      "v": 60
    },
    {
      "midi": 31,
      "hit": false,
      "t": 48188.87999999998,
      "d": 137.79499999999825,
      "v": 101
    },
    {
      "midi": 67,
      "hit": false,
      "t": 48425.09999999958,
      "d": 86.12187499999709,
      "v": 78
    },
    {
      "midi": 71,
      "hit": false,
      "t": 48425.09999999958,
      "d": 88.5824999999968,
      "v": 80
    },
    {
      "midi": 74,
      "hit": false,
      "t": 48425.09999999958,
      "d": 113.18874999999389,
      "v": 86
    },
    {
      "midi": 55,
      "hit": false,
      "t": 48425.09999999998,
      "d": 73.81874999999854,
      "v": 61
    },
    {
      "midi": 31,
      "hit": false,
      "t": 48425.099999999984,
      "d": 115.64937500000087,
      "v": 102
    },
    {
      "midi": 60,
      "hit": false,
      "t": 48425.10000000003,
      "d": 228.83812500000204,
      "v": 105
    },
    {
      "midi": 67,
      "hit": false,
      "t": 48661.31999999957,
      "d": 86.12187499999709,
      "v": 86
    },
    {
      "midi": 71,
      "hit": false,
      "t": 48661.31999999957,
      "d": 93.50374999999622,
      "v": 81
    },
    {
      "midi": 74,
      "hit": false,
      "t": 48661.31999999957,
      "d": 98.42499999999563,
      "v": 85
    },
    {
      "midi": 55,
      "hit": false,
      "t": 48661.31999999998,
      "d": 68.89749999999913,
      "v": 70
    },
    {
      "midi": 57,
      "hit": false,
      "t": 48661.32000000003,
      "d": 332.1843749999971,
      "v": 87
    },
    {
      "midi": 67,
      "hit": false,
      "t": 48897.539999999564,
      "d": 78.73999999999796,
      "v": 83
    },
    {
      "midi": 74,
      "hit": false,
      "t": 48897.539999999564,
      "d": 98.42499999999563,
      "v": 87
    },
    {
      "midi": 71,
      "hit": false,
      "t": 48897.539999999564,
      "d": 100.88562499999534,
      "v": 85
    },
    {
      "midi": 55,
      "hit": false,
      "t": 48897.53999999998,
      "d": 71.35812499999884,
      "v": 67
    },
    {
      "midi": 31,
      "hit": false,
      "t": 48897.539999999986,
      "d": 88.5824999999968,
      "v": 87
    },
    {
      "midi": 66,
      "hit": false,
      "t": 49133.75999999956,
      "d": 61.515625,
      "v": 85
    },
    {
      "midi": 69,
      "hit": false,
      "t": 49133.75999999956,
      "d": 98.42500000000291,
      "v": 82
    },
    {
      "midi": 74,
      "hit": false,
      "t": 49133.75999999956,
      "d": 105.80687500000204,
      "v": 86
    },
    {
      "midi": 26,
      "hit": false,
      "t": 49133.75999999998,
      "d": 516.7312499999971,
      "v": 105
    },
    {
      "midi": 50,
      "hit": false,
      "t": 49133.75999999998,
      "d": 59.05500000000029,
      "v": 61
    },
    {
      "midi": 66,
      "hit": false,
      "t": 49369.97999999956,
      "d": 88.5824999999968,
      "v": 87
    },
    {
      "midi": 69,
      "hit": false,
      "t": 49369.97999999956,
      "d": 100.88562499999534,
      "v": 83
    },
    {
      "midi": 74,
      "hit": false,
      "t": 49369.97999999956,
      "d": 100.88562499999534,
      "v": 80
    },
    {
      "midi": 50,
      "hit": false,
      "t": 49369.97999999998,
      "d": 71.35812499999884,
      "v": 64
    },
    {
      "midi": 66,
      "hit": false,
      "t": 49606.19999999955,
      "d": 78.73999999999796,
      "v": 79
    },
    {
      "midi": 69,
      "hit": false,
      "t": 49606.19999999955,
      "d": 88.5824999999968,
      "v": 85
    },
    {
      "midi": 74,
      "hit": false,
      "t": 49606.19999999955,
      "d": 105.80687499999476,
      "v": 85
    },
    {
      "midi": 50,
      "hit": false,
      "t": 49606.19999999998,
      "d": 73.81874999999854,
      "v": 63
    },
    {
      "midi": 62,
      "hit": false,
      "t": 49606.200000000026,
      "d": 132.87374999999884,
      "v": 107
    },
    {
      "midi": 66,
      "hit": false,
      "t": 49842.41999999955,
      "d": 78.73999999999796,
      "v": 81
    },
    {
      "midi": 69,
      "hit": false,
      "t": 49842.41999999955,
      "d": 86.12187499999709,
      "v": 88
    },
    {
      "midi": 74,
      "hit": false,
      "t": 49842.41999999955,
      "d": 108.26749999999447,
      "v": 85
    },
    {
      "midi": 26,
      "hit": false,
      "t": 49842.41999999998,
      "d": 100.88562500000262,
      "v": 105
    },
    {
      "midi": 50,
      "hit": false,
      "t": 49842.419999999984,
      "d": 66.43687499999942,
      "v": 67
    },
    {
      "midi": 62,
      "hit": false,
      "t": 49842.42000000003,
      "d": 172.24375000000146,
      "v": 107
    },
    {
      "midi": 66,
      "hit": false,
      "t": 50078.63999999954,
      "d": 73.81874999999854,
      "v": 84
    },
    {
      "midi": 69,
      "hit": false,
      "t": 50078.63999999954,
      "d": 83.66124999999738,
      "v": 83
    },
    {
      "midi": 74,
      "hit": false,
      "t": 50078.63999999954,
      "d": 103.34624999999505,
      "v": 82
    },
    {
      "midi": 26,
      "hit": false,
      "t": 50078.63999999998,
      "d": 132.87374999999884,
      "v": 100
    },
    {
      "midi": 50,
      "hit": false,
      "t": 50078.639999999985,
      "d": 66.43687499999942,
      "v": 71
    },
    {
      "midi": 62,
      "hit": false,
      "t": 50078.64000000003,
      "d": 216.5350000000035,
      "v": 110
    },
    {
      "midi": 66,
      "hit": false,
      "t": 50314.859999999535,
      "d": 71.35812499999884,
      "v": 80
    },
    {
      "midi": 69,
      "hit": false,
      "t": 50314.859999999535,
      "d": 86.12187499999709,
      "v": 87
    },
    {
      "midi": 74,
      "hit": false,
      "t": 50314.859999999535,
      "d": 98.42499999999563,
      "v": 81
    },
    {
      "midi": 26,
      "hit": false,
      "t": 50314.85999999998,
      "d": 152.5587499999965,
      "v": 106
    },
    {
      "midi": 50,
      "hit": false,
      "t": 50314.859999999986,
      "d": 68.89749999999913,
      "v": 69
    },
    {
      "midi": 62,
      "hit": false,
      "t": 50314.86000000003,
      "d": 211.6137499999968,
      "v": 105
    },
    {
      "midi": 66,
      "hit": false,
      "t": 50551.07999999953,
      "d": 68.89749999999913,
      "v": 87
    },
    {
      "midi": 69,
      "hit": false,
      "t": 50551.07999999953,
      "d": 78.73999999999796,
      "v": 83
    },
    {
      "midi": 74,
      "hit": false,
      "t": 50551.07999999953,
      "d": 93.50374999999622,
      "v": 86
    },
    {
      "midi": 50,
      "hit": false,
      "t": 50551.07999999999,
      "d": 100.88562500000262,
      "v": 71
    },
    {
      "midi": 62,
      "hit": false,
      "t": 50551.08000000002,
      "d": 233.75937500000146,
      "v": 102
    },
    {
      "midi": 66,
      "hit": false,
      "t": 50787.29999999952,
      "d": 71.35812499999884,
      "v": 82
    },
    {
      "midi": 69,
      "hit": false,
      "t": 50787.29999999952,
      "d": 88.5824999999968,
      "v": 83
    },
    {
      "midi": 74,
      "hit": false,
      "t": 50787.29999999952,
      "d": 103.34624999999505,
      "v": 79
    },
    {
      "midi": 50,
      "hit": false,
      "t": 50787.29999999999,
      "d": 88.5824999999968,
      "v": 67
    },
    {
      "midi": 64,
      "hit": false,
      "t": 50787.300000000025,
      "d": 233.75937500000146,
      "v": 94
    },
    {
      "midi": 65,
      "hit": false,
      "t": 51023.51999999952,
      "d": 73.81874999999854,
      "v": 78
    },
    {
      "midi": 69,
      "hit": false,
      "t": 51023.51999999952,
      "d": 81.20062499999767,
      "v": 79
    },
    {
      "midi": 72,
      "hit": false,
      "t": 51023.51999999952,
      "d": 108.26749999999447,
      "v": 83
    },
    {
      "midi": 29,
      "hit": false,
      "t": 51023.519999999975,
      "d": 519.1918749999968,
      "v": 104
    },
    {
      "midi": 53,
      "hit": false,
      "t": 51023.51999999998,
      "d": 63.97624999999971,
      "v": 66
    },
    {
      "midi": 62,
      "hit": false,
      "t": 51023.520000000026,
      "d": 233.75937500000146,
      "v": 107
    },
    {
      "midi": 65,
      "hit": false,
      "t": 51259.73999999951,
      "d": 81.20062499999767,
      "v": 79
    },
    {
      "midi": 69,
      "hit": false,
      "t": 51259.73999999951,
      "d": 81.20062499999767,
      "v": 85
    },
    {
      "midi": 72,
      "hit": false,
      "t": 51259.73999999951,
      "d": 115.64937500000087,
      "v": 82
    },
    {
      "midi": 53,
      "hit": false,
      "t": 51259.73999999998,
      "d": 78.73999999999796,
      "v": 61
    },
    {
      "midi": 60,
      "hit": false,
      "t": 51259.74000000003,
      "d": 233.75937500000146,
      "v": 107
    },
    {
      "midi": 65,
      "hit": false,
      "t": 51495.95999999951,
      "d": 88.5824999999968,
      "v": 78
    },
    {
      "midi": 69,
      "hit": false,
      "t": 51495.95999999951,
      "d": 95.96437499999593,
      "v": 79
    },
    {
      "midi": 72,
      "hit": false,
      "t": 51495.95999999951,
      "d": 108.26749999999447,
      "v": 85
    },
    {
      "midi": 53,
      "hit": false,
      "t": 51495.959999999985,
      "d": 66.43687499999942,
      "v": 59
    },
    {
      "midi": 57,
      "hit": false,
      "t": 51495.96000000003,
      "d": 369.09375,
      "v": 108
    },
    {
      "midi": 65,
      "hit": false,
      "t": 51732.179999999506,
      "d": 78.73999999999796,
      "v": 83
    },
    {
      "midi": 69,
      "hit": false,
      "t": 51732.179999999506,
      "d": 91.04312499999651,
      "v": 83
    },
    {
      "midi": 72,
      "hit": false,
      "t": 51732.179999999506,
      "d": 105.80687499999476,
      "v": 80
    },
    {
      "midi": 29,
      "hit": false,
      "t": 51732.17999999997,
      "d": 98.42500000000291,
      "v": 101
    },
    {
      "midi": 53,
      "hit": false,
      "t": 51732.179999999986,
      "d": 81.20062499999767,
      "v": 64
    },
    {
      "midi": 65,
      "hit": false,
      "t": 51968.3999999995,
      "d": 81.20062499999767,
      "v": 80
    },
    {
      "midi": 69,
      "hit": false,
      "t": 51968.3999999995,
      "d": 93.50374999999622,
      "v": 82
    },
    {
      "midi": 72,
      "hit": false,
      "t": 51968.3999999995,
      "d": 103.34624999999505,
      "v": 86
    },
    {
      "midi": 29,
      "hit": false,
      "t": 51968.39999999997,
      "d": 132.87374999999884,
      "v": 96
    },
    {
      "midi": 53,
      "hit": false,
      "t": 51968.39999999999,
      "d": 68.89749999999913,
      "v": 68
    },
    {
      "midi": 57,
      "hit": false,
      "t": 51968.40000000003,
      "d": 447.83374999999796,
      "v": 107
    },
    {
      "midi": 65,
      "hit": false,
      "t": 52204.61999999949,
      "d": 78.73999999999796,
      "v": 78
    },
    {
      "midi": 69,
      "hit": false,
      "t": 52204.61999999949,
      "d": 93.50374999999622,
      "v": 87
    },
    {
      "midi": 72,
      "hit": false,
      "t": 52204.61999999949,
      "d": 98.42499999999563,
      "v": 81
    },
    {
      "midi": 29,
      "hit": false,
      "t": 52204.61999999997,
      "d": 127.95249999999942,
      "v": 101
    },
    {
      "midi": 53,
      "hit": false,
      "t": 52204.61999999999,
      "d": 86.12187499999709,
      "v": 59
    },
    {
      "midi": 65,
      "hit": false,
      "t": 52440.83999999949,
      "d": 68.89749999999913,
      "v": 84
    },
    {
      "midi": 69,
      "hit": false,
      "t": 52440.83999999949,
      "d": 86.12187499999709,
      "v": 84
    },
    {
      "midi": 72,
      "hit": false,
      "t": 52440.83999999949,
      "d": 93.50374999999622,
      "v": 79
    },
    {
      "midi": 53,
      "hit": false,
      "t": 52440.83999999998,
      "d": 73.81874999999854,
      "v": 65
    },
    {
      "midi": 57,
      "hit": false,
      "t": 52440.840000000026,
      "d": 174.70437500000116,
      "v": 100
    },
    {
      "midi": 65,
      "hit": false,
      "t": 52677.05999999948,
      "d": 91.04312499999651,
      "v": 79
    },
    {
      "midi": 69,
      "hit": false,
      "t": 52677.05999999948,
      "d": 91.04312499999651,
      "v": 85
    },
    {
      "midi": 72,
      "hit": false,
      "t": 52677.05999999948,
      "d": 93.50374999999622,
      "v": 84
    },
    {
      "midi": 29,
      "hit": false,
      "t": 52677.059999999976,
      "d": 86.12187499999709,
      "v": 88
    },
    {
      "midi": 53,
      "hit": false,
      "t": 52677.05999999998,
      "d": 86.12187499999709,
      "v": 65
    },
    {
      "midi": 60,
      "hit": false,
      "t": 52677.06000000003,
      "d": 206.69249999999738,
      "v": 104
    },
    {
      "midi": 64,
      "hit": false,
      "t": 52913.279999999475,
      "d": 93.50375000000349,
      "v": 81
    },
    {
      "midi": 67,
      "hit": false,
      "t": 52913.279999999475,
      "d": 95.9643750000032,
      "v": 79
    },
    {
      "midi": 71,
      "hit": false,
      "t": 52913.279999999475,
      "d": 110.72812500000146,
      "v": 83
    },
    {
      "midi": 28,
      "hit": false,
      "t": 52913.27999999997,
      "d": 514.2706249999974,
      "v": 106
    },
    {
      "midi": 52,
      "hit": false,
      "t": 52913.27999999998,
      "d": 78.73999999999796,
      "v": 66
    },
    {
      "midi": 57,
      "hit": false,
      "t": 52913.28000000002,
      "d": 231.29875000000175,
      "v": 105
    },
    {
      "midi": 64,
      "hit": false,
      "t": 53149.499999999476,
      "d": 78.73999999999796,
      "v": 78
    },
    {
      "midi": 67,
      "hit": false,
      "t": 53149.499999999476,
      "d": 88.5824999999968,
      "v": 87
    },
    {
      "midi": 71,
      "hit": false,
      "t": 53149.499999999476,
      "d": 108.26749999999447,
      "v": 81
    },
    {
      "midi": 52,
      "hit": false,
      "t": 53149.49999999998,
      "d": 78.73999999999796,
      "v": 63
    },
    {
      "midi": 55,
      "hit": false,
      "t": 53149.50000000002,
      "d": 233.75937500000146,
      "v": 89
    },
    {
      "midi": 64,
      "hit": false,
      "t": 53385.71999999947,
      "d": 91.04312499999651,
      "v": 80
    },
    {
      "midi": 67,
      "hit": false,
      "t": 53385.71999999947,
      "d": 98.42499999999563,
      "v": 83
    },
    {
      "midi": 71,
      "hit": false,
      "t": 53385.71999999947,
      "d": 115.6493749999936,
      "v": 84
    },
    {
      "midi": 52,
      "hit": false,
      "t": 53385.71999999998,
      "d": 167.32250000000204,
      "v": 105
    },
    {
      "midi": 47,
      "hit": false,
      "t": 53385.71999999998,
      "d": 206.69250000000466,
      "v": 107
    },
    {
      "midi": 52,
      "hit": false,
      "t": 53385.71999999998,
      "d": 83.66124999999738,
      "v": 65
    },
    {
      "midi": 52,
      "hit": false,
      "t": 53385.72000000002,
      "d": 435.5306249999994,
      "v": 85
    },
    {
      "midi": 64,
      "hit": false,
      "t": 53621.939999999464,
      "d": 88.5824999999968,
      "v": 86
    },
    {
      "midi": 67,
      "hit": false,
      "t": 53621.939999999464,
      "d": 91.04312499999651,
      "v": 79
    },
    {
      "midi": 71,
      "hit": false,
      "t": 53621.939999999464,
      "d": 108.26749999999447,
      "v": 80
    },
    {
      "midi": 28,
      "hit": false,
      "t": 53621.939999999966,
      "d": 105.80687500000204,
      "v": 99
    },
    {
      "midi": 52,
      "hit": false,
      "t": 53621.93999999997,
      "d": 86.12187499999709,
      "v": 68
    },
    {
      "midi": 64,
      "hit": false,
      "t": 53858.15999999946,
      "d": 88.5824999999968,
      "v": 84
    },
    {
      "midi": 67,
      "hit": false,
      "t": 53858.15999999946,
      "d": 95.96437499999593,
      "v": 84
    },
    {
      "midi": 71,
      "hit": false,
      "t": 53858.15999999946,
      "d": 108.26749999999447,
      "v": 80
    },
    {
      "midi": 26,
      "hit": false,
      "t": 53858.15999999997,
      "d": 196.84999999999854,
      "v": 98
    },
    {
      "midi": 52,
      "hit": false,
      "t": 53858.15999999997,
      "d": 78.73999999999796,
      "v": 69
    },
    {
      "midi": 45,
      "hit": false,
      "t": 53858.15999999998,
      "d": 231.29875000000175,
      "v": 99
    },
    {
      "midi": 50,
      "hit": false,
      "t": 53858.15999999998,
      "d": 253.44437499999913,
      "v": 100
    },
    {
      "midi": 52,
      "hit": false,
      "t": 53858.160000000025,
      "d": 681.5931249999994,
      "v": 83
    },
    {
      "midi": 64,
      "hit": false,
      "t": 54094.37999999945,
      "d": 86.12187499999709,
      "v": 84
    },
    {
      "midi": 67,
      "hit": false,
      "t": 54094.37999999945,
      "d": 88.5824999999968,
      "v": 84
    },
    {
      "midi": 71,
      "hit": false,
      "t": 54094.37999999945,
      "d": 100.88562499999534,
      "v": 79
    },
    {
      "midi": 28,
      "hit": false,
      "t": 54094.37999999997,
      "d": 137.79499999999825,
      "v": 103
    },
    {
      "midi": 52,
      "hit": false,
      "t": 54094.37999999997,
      "d": 91.04312499999651,
      "v": 68
    },
    {
      "midi": 52,
      "hit": false,
      "t": 54094.37999999998,
      "d": 484.7431250000009,
      "v": 98
    },
    {
      "midi": 47,
      "hit": false,
      "t": 54094.37999999998,
      "d": 492.125,
      "v": 103
    },
    {
      "midi": 64,
      "hit": false,
      "t": 54330.599999999446,
      "d": 88.5824999999968,
      "v": 78
    },
    {
      "midi": 67,
      "hit": false,
      "t": 54330.599999999446,
      "d": 98.42499999999563,
      "v": 87
    },
    {
      "midi": 71,
      "hit": false,
      "t": 54330.599999999446,
      "d": 110.72812499999418,
      "v": 87
    },
    {
      "midi": 52,
      "hit": false,
      "t": 54330.59999999996,
      "d": 73.81874999999854,
      "v": 70
    },
    {
      "midi": 64,
      "hit": false,
      "t": 54566.81999999944,
      "d": 78.73999999999796,
      "v": 78
    },
    {
      "midi": 67,
      "hit": false,
      "t": 54566.81999999944,
      "d": 78.73999999999796,
      "v": 83
    },
    {
      "midi": 71,
      "hit": false,
      "t": 54566.81999999944,
      "d": 105.80687499999476,
      "v": 84
    },
    {
      "midi": 52,
      "hit": false,
      "t": 54566.81999999996,
      "d": 95.9643750000032,
      "v": 63
    },
    {
      "midi": 64,
      "hit": false,
      "t": 54803.03999999943,
      "d": 86.12187499999709,
      "v": 78
    },
    {
      "midi": 67,
      "hit": false,
      "t": 54803.03999999943,
      "d": 86.12187499999709,
      "v": 85
    },
    {
      "midi": 71,
      "hit": false,
      "t": 54803.03999999943,
      "d": 110.72812499999418,
      "v": 79
    },
    {
      "midi": 28,
      "hit": false,
      "t": 54803.039999999964,
      "d": 472.4400000000023,
      "v": 113
    },
    {
      "midi": 52,
      "hit": false,
      "t": 54803.039999999964,
      "d": 78.73999999999796,
      "v": 72
    },
    {
      "midi": 64,
      "hit": false,
      "t": 55039.25999999943,
      "d": 78.73999999999796,
      "v": 87
    },
    {
      "midi": 67,
      "hit": false,
      "t": 55039.25999999943,
      "d": 81.20062499999767,
      "v": 82
    },
    {
      "midi": 71,
      "hit": false,
      "t": 55039.25999999943,
      "d": 98.42499999999563,
      "v": 78
    },
    {
      "midi": 52,
      "hit": false,
      "t": 55039.259999999966,
      "d": 95.9643750000032,
      "v": 70
    },
    {
      "midi": 64,
      "hit": false,
      "t": 55275.47999999942,
      "d": 81.20062499999767,
      "v": 86
    },
    {
      "midi": 67,
      "hit": false,
      "t": 55275.47999999942,
      "d": 88.5824999999968,
      "v": 81
    },
    {
      "midi": 71,
      "hit": false,
      "t": 55275.47999999942,
      "d": 108.26749999999447,
      "v": 85
    },
    {
      "midi": 52,
      "hit": false,
      "t": 55275.47999999997,
      "d": 73.81874999999854,
      "v": 72
    },
    {
      "midi": 52,
      "hit": false,
      "t": 55275.47999999998,
      "d": 169.78312500000175,
      "v": 104
    },
    {
      "midi": 47,
      "hit": false,
      "t": 55275.47999999998,
      "d": 191.92874999999913,
      "v": 102
    },
    {
      "midi": 64,
      "hit": false,
      "t": 55511.699999999415,
      "d": 76.27937499999825,
      "v": 82
    },
    {
      "midi": 67,
      "hit": false,
      "t": 55511.699999999415,
      "d": 88.5824999999968,
      "v": 78
    },
    {
      "midi": 71,
      "hit": false,
      "t": 55511.699999999415,
      "d": 108.26749999999447,
      "v": 87
    },
    {
      "midi": 28,
      "hit": false,
      "t": 55511.69999999997,
      "d": 199.31062499999825,
      "v": 106
    },
    {
      "midi": 52,
      "hit": false,
      "t": 55511.69999999997,
      "d": 93.50375000000349,
      "v": 69
    },
    {
      "midi": 64,
      "hit": false,
      "t": 55747.91999999941,
      "d": 73.81874999999854,
      "v": 78
    },
    {
      "midi": 67,
      "hit": false,
      "t": 55747.91999999941,
      "d": 81.20062499999767,
      "v": 83
    },
    {
      "midi": 71,
      "hit": false,
      "t": 55747.91999999941,
      "d": 98.42499999999563,
      "v": 86
    },
    {
      "midi": 26,
      "hit": false,
      "t": 55747.91999999997,
      "d": 209.1531249999971,
      "v": 97
    },
    {
      "midi": 52,
      "hit": false,
      "t": 55747.91999999997,
      "d": 78.73999999999796,
      "v": 68
    },
    {
      "midi": 50,
      "hit": false,
      "t": 55747.919999999984,
      "d": 246.0625,
      "v": 101
    },
    {
      "midi": 45,
      "hit": false,
      "t": 55747.919999999984,
      "d": 250.98374999999942,
      "v": 94
    },
    {
      "midi": 50,
      "hit": false,
      "t": 55747.91999999999,
      "d": 265.7474999999977,
      "v": 97
    },
    {
      "midi": 64,
      "hit": false,
      "t": 55984.1399999994,
      "d": 78.73999999999796,
      "v": 81
    },
    {
      "midi": 67,
      "hit": false,
      "t": 55984.1399999994,
      "d": 83.66124999999738,
      "v": 80
    },
    {
      "midi": 71,
      "hit": false,
      "t": 55984.1399999994,
      "d": 100.88562499999534,
      "v": 87
    },
    {
      "midi": 28,
      "hit": false,
      "t": 55984.13999999996,
      "d": 226.37750000000233,
      "v": 102
    },
    {
      "midi": 52,
      "hit": false,
      "t": 55984.13999999997,
      "d": 95.9643750000032,
      "v": 73
    },
    {
      "midi": 52,
      "hit": false,
      "t": 55984.139999999985,
      "d": 472.43999999999505,
      "v": 96
    },
    {
      "midi": 47,
      "hit": false,
      "t": 55984.139999999985,
      "d": 492.1249999999927,
      "v": 94
    },
    {
      "midi": 52,
      "hit": false,
      "t": 55984.13999999999,
      "d": 194.38937499999884,
      "v": 96
    },
    {
      "midi": 64,
      "hit": false,
      "t": 56220.3599999994,
      "d": 78.73999999999796,
      "v": 83
    },
    {
      "midi": 67,
      "hit": false,
      "t": 56220.3599999994,
      "d": 86.12187499999709,
      "v": 85
    },
    {
      "midi": 71,
      "hit": false,
      "t": 56220.3599999994,
      "d": 100.88562499999534,
      "v": 82
    },
    {
      "midi": 31,
      "hit": false,
      "t": 56220.359999999964,
      "d": 233.75937500000146,
      "v": 104
    },
    {
      "midi": 52,
      "hit": false,
      "t": 56220.35999999997,
      "d": 78.73999999999796,
      "v": 67
    },
    {
      "midi": 55,
      "hit": false,
      "t": 56220.35999999999,
      "d": 236.22000000000116,
      "v": 96
    },
    {
      "midi": 64,
      "hit": false,
      "t": 56456.57999999939,
      "d": 98.42500000000291,
      "v": 80
    },
    {
      "midi": 67,
      "hit": false,
      "t": 56456.57999999939,
      "d": 108.26750000000175,
      "v": 81
    },
    {
      "midi": 71,
      "hit": false,
      "t": 56456.57999999939,
      "d": 127.95249999999942,
      "v": 83
    },
    {
      "midi": 28,
      "hit": false,
      "t": 56456.579999999965,
      "d": 206.69249999999738,
      "v": 101
    },
    {
      "midi": 52,
      "hit": false,
      "t": 56456.57999999997,
      "d": 98.42500000000291,
      "v": 70
    },
    {
      "midi": 52,
      "hit": false,
      "t": 56456.579999999994,
      "d": 223.91687500000262,
      "v": 90
    },
    {
      "midi": 64,
      "hit": false,
      "t": 56692.79999999939,
      "d": 1914.3662499999991,
      "v": 82
    },
    {
      "midi": 60,
      "hit": false,
      "t": 56692.79999999939,
      "d": 1926.6693749999977,
      "v": 78
    },
    {
      "midi": 57,
      "hit": false,
      "t": 56692.79999999939,
      "d": 3796.7443749999948,
      "v": 82
    },
    {
      "midi": 33,
      "hit": false,
      "t": 56692.79999999996,
      "d": 531.4950000000026,
      "v": 109
    },
    {
      "midi": 45,
      "hit": false,
      "t": 56692.799999999996,
      "d": 1874.9962499999965,
      "v": 96
    },
    {
      "midi": 57,
      "hit": false,
      "t": 56692.799999999996,
      "d": 3809.0474999999933,
      "v": 104
    },
    {
      "midi": 60,
      "hit": false,
      "t": 56929.02,
      "d": 108.26750000000175,
      "v": 101
    },
    {
      "midi": 64,
      "hit": false,
      "t": 56929.02,
      "d": 130.41312499999913,
      "v": 99
    },
    {
      "midi": 57,
      "hit": false,
      "t": 56929.02,
      "d": 137.79499999999825,
      "v": 104
    },
    {
      "midi": 64,
      "hit": false,
      "t": 56929.020000000026,
      "d": 118.11000000000058,
      "v": 115
    },
    {
      "midi": 60,
      "hit": false,
      "t": 57165.24,
      "d": 88.5824999999968,
      "v": 100
    },
    {
      "midi": 57,
      "hit": false,
      "t": 57165.24,
      "d": 100.88562499999534,
      "v": 96
    },
    {
      "midi": 64,
      "hit": false,
      "t": 57165.24,
      "d": 120.57062499999302,
      "v": 91
    },
    {
      "midi": 64,
      "hit": false,
      "t": 57165.24000000003,
      "d": 130.41312499999913,
      "v": 109
    },
    {
      "midi": 33,
      "hit": false,
      "t": 57401.45999999996,
      "d": 100.88562500000262,
      "v": 103
    },
    {
      "midi": 60,
      "hit": false,
      "t": 57401.45999999999,
      "d": 88.5824999999968,
      "v": 108
    },
    {
      "midi": 57,
      "hit": false,
      "t": 57401.45999999999,
      "d": 98.42499999999563,
      "v": 103
    },
    {
      "midi": 64,
      "hit": false,
      "t": 57401.45999999999,
      "d": 110.72812499999418,
      "v": 94
    },
    {
      "midi": 64,
      "hit": false,
      "t": 57401.46000000003,
      "d": 103.34625000000233,
      "v": 112
    },
    {
      "midi": 33,
      "hit": false,
      "t": 57637.679999999964,
      "d": 125.49187499999971,
      "v": 112
    },
    {
      "midi": 60,
      "hit": false,
      "t": 57637.679999999986,
      "d": 369.09375,
      "v": 103
    },
    {
      "midi": 57,
      "hit": false,
      "t": 57637.679999999986,
      "d": 374.0149999999994,
      "v": 103
    },
    {
      "midi": 64,
      "hit": false,
      "t": 57637.679999999986,
      "d": 376.4756249999991,
      "v": 96
    },
    {
      "midi": 64,
      "hit": false,
      "t": 57637.68000000003,
      "d": 364.1725000000006,
      "v": 112
    },
    {
      "midi": 33,
      "hit": false,
      "t": 57873.899999999965,
      "d": 376.4756249999991,
      "v": 108
    },
    {
      "midi": 60,
      "hit": false,
      "t": 58110.11999999999,
      "d": 120.57062500000029,
      "v": 102
    },
    {
      "midi": 57,
      "hit": false,
      "t": 58110.11999999999,
      "d": 125.49187499999971,
      "v": 97
    },
    {
      "midi": 64,
      "hit": false,
      "t": 58110.11999999999,
      "d": 132.87374999999884,
      "v": 99
    },
    {
      "midi": 64,
      "hit": false,
      "t": 58110.12000000003,
      "d": 130.41312499999913,
      "v": 111
    },
    {
      "midi": 33,
      "hit": false,
      "t": 58346.33999999997,
      "d": 137.79499999999825,
      "v": 110
    },
    {
      "midi": 57,
      "hit": false,
      "t": 58346.33999999999,
      "d": 110.72812500000146,
      "v": 93
    },
    {
      "midi": 60,
      "hit": false,
      "t": 58346.33999999999,
      "d": 115.64937500000087,
      "v": 99
    },
    {
      "midi": 64,
      "hit": false,
      "t": 58346.33999999999,
      "d": 125.49187499999971,
      "v": 92
    },
    {
      "midi": 64,
      "hit": false,
      "t": 58346.34000000003,
      "d": 142.71624999999767,
      "v": 110
    },
    {
      "midi": 62,
      "hit": false,
      "t": 58582.559999999394,
      "d": 1911.9056249999921,
      "v": 78
    },
    {
      "midi": 65,
      "hit": false,
      "t": 58582.559999999394,
      "d": 1929.12999999999,
      "v": 82
    },
    {
      "midi": 26,
      "hit": false,
      "t": 58582.55999999997,
      "d": 521.6524999999965,
      "v": 104
    },
    {
      "midi": 57,
      "hit": false,
      "t": 58582.55999999999,
      "d": 123.03125,
      "v": 101
    },
    {
      "midi": 60,
      "hit": false,
      "t": 58582.55999999999,
      "d": 140.25562499999796,
      "v": 101
    },
    {
      "midi": 64,
      "hit": false,
      "t": 58582.55999999999,
      "d": 142.71624999999767,
      "v": 93
    },
    {
      "midi": 50,
      "hit": false,
      "t": 58582.55999999999,
      "d": 1916.8268749999988,
      "v": 94
    },
    {
      "midi": 64,
      "hit": false,
      "t": 58582.560000000034,
      "d": 147.6374999999971,
      "v": 113
    },
    {
      "midi": 62,
      "hit": false,
      "t": 58818.77999999999,
      "d": 115.64937500000087,
      "v": 100
    },
    {
      "midi": 57,
      "hit": false,
      "t": 58818.77999999999,
      "d": 118.11000000000058,
      "v": 103
    },
    {
      "midi": 65,
      "hit": false,
      "t": 58818.77999999999,
      "d": 120.57062500000029,
      "v": 94
    },
    {
      "midi": 65,
      "hit": false,
      "t": 58818.78000000003,
      "d": 169.78312500000175,
      "v": 116
    },
    {
      "midi": 65,
      "hit": false,
      "t": 59054.99999999999,
      "d": 361.7118750000009,
      "v": 95
    },
    {
      "midi": 57,
      "hit": false,
      "t": 59054.99999999999,
      "d": 364.1725000000006,
      "v": 100
    },
    {
      "midi": 62,
      "hit": false,
      "t": 59054.99999999999,
      "d": 374.0149999999994,
      "v": 99
    },
    {
      "midi": 65,
      "hit": false,
      "t": 59055.00000000003,
      "d": 374.0149999999994,
      "v": 112
    },
    {
      "midi": 26,
      "hit": false,
      "t": 59291.219999999965,
      "d": 100.88562500000262,
      "v": 97
    },
    {
      "midi": 26,
      "hit": false,
      "t": 59527.439999999966,
      "d": 118.11000000000058,
      "v": 96
    },
    {
      "midi": 62,
      "hit": false,
      "t": 59527.439999999995,
      "d": 322.34187499999825,
      "v": 102
    },
    {
      "midi": 65,
      "hit": false,
      "t": 59527.439999999995,
      "d": 361.7118750000009,
      "v": 101
    },
    {
      "midi": 57,
      "hit": false,
      "t": 59527.439999999995,
      "d": 371.5543749999997,
      "v": 104
    },
    {
      "midi": 65,
      "hit": false,
      "t": 59527.44000000003,
      "d": 351.86937500000204,
      "v": 109
    },
    {
      "midi": 26,
      "hit": false,
      "t": 59763.65999999997,
      "d": 364.1725000000006,
      "v": 100
    },
    {
      "midi": 60,
      "hit": false,
      "t": 59881.77,
      "d": 135.33437499999854,
      "v": 89
    },
    {
      "midi": 64,
      "hit": false,
      "t": 59881.77,
      "d": 142.71624999999767,
      "v": 85
    },
    {
      "midi": 64,
      "hit": false,
      "t": 59881.77000000003,
      "d": 115.64937500000087,
      "v": 91
    },
    {
      "midi": 62,
      "hit": false,
      "t": 59999.88,
      "d": 297.7356249999939,
      "v": 88
    },
    {
      "midi": 62,
      "hit": false,
      "t": 59999.880000000034,
      "d": 258.36562499999854,
      "v": 85
    },
    {
      "midi": 26,
      "hit": false,
      "t": 60236.09999999997,
      "d": 147.6374999999971,
      "v": 100
    },
    {
      "midi": 59,
      "hit": false,
      "t": 60472.31999999939,
      "d": 1887.299374999995,
      "v": 78
    },
    {
      "midi": 56,
      "hit": false,
      "t": 60472.31999999939,
      "d": 1899.6024999999936,
      "v": 87
    },
    {
      "midi": 64,
      "hit": false,
      "t": 60472.31999999939,
      "d": 1919.2874999999913,
      "v": 85
    },
    {
      "midi": 28,
      "hit": false,
      "t": 60472.31999999996,
      "d": 533.9556250000023,
      "v": 104
    },
    {
      "midi": 52,
      "hit": false,
      "t": 60472.31999999999,
      "d": 1833.1656249999942,
      "v": 101
    },
    {
      "midi": 59,
      "hit": false,
      "t": 60472.31999999999,
      "d": 1904.523749999993,
      "v": 106
    },
    {
      "midi": 59,
      "hit": false,
      "t": 60708.53999999999,
      "d": 81.20062499999767,
      "v": 94
    },
    {
      "midi": 64,
      "hit": false,
      "t": 60708.53999999999,
      "d": 115.64937500000087,
      "v": 97
    },
    {
      "midi": 56,
      "hit": false,
      "t": 60708.53999999999,
      "d": 120.57062500000029,
      "v": 100
    },
    {
      "midi": 64,
      "hit": false,
      "t": 60708.54000000003,
      "d": 110.72812500000146,
      "v": 106
    },
    {
      "midi": 59,
      "hit": false,
      "t": 60944.759999999995,
      "d": 93.50375000000349,
      "v": 92
    },
    {
      "midi": 56,
      "hit": false,
      "t": 60944.759999999995,
      "d": 110.72812500000146,
      "v": 99
    },
    {
      "midi": 64,
      "hit": false,
      "t": 60944.759999999995,
      "d": 118.11000000000058,
      "v": 94
    },
    {
      "midi": 64,
      "hit": false,
      "t": 60944.76000000003,
      "d": 137.79499999999825,
      "v": 113
    },
    {
      "midi": 28,
      "hit": false,
      "t": 61180.97999999997,
      "d": 93.50375000000349,
      "v": 104
    },
    {
      "midi": 59,
      "hit": false,
      "t": 61180.979999999996,
      "d": 86.12187499999709,
      "v": 97
    },
    {
      "midi": 56,
      "hit": false,
      "t": 61180.979999999996,
      "d": 98.42499999999563,
      "v": 103
    },
    {
      "midi": 64,
      "hit": false,
      "t": 61180.979999999996,
      "d": 103.34624999999505,
      "v": 96
    },
    {
      "midi": 64,
      "hit": false,
      "t": 61180.98000000003,
      "d": 127.95249999999942,
      "v": 106
    },
    {
      "midi": 28,
      "hit": false,
      "t": 61417.19999999997,
      "d": 113.18875000000116,
      "v": 103
    },
    {
      "midi": 59,
      "hit": false,
      "t": 61417.19999999999,
      "d": 71.35812499999884,
      "v": 93
    },
    {
      "midi": 56,
      "hit": false,
      "t": 61417.19999999999,
      "d": 81.20062499999767,
      "v": 98
    },
    {
      "midi": 64,
      "hit": false,
      "t": 61417.19999999999,
      "d": 98.42499999999563,
      "v": 100
    },
    {
      "midi": 64,
      "hit": false,
      "t": 61417.20000000003,
      "d": 150.0981249999968,
      "v": 110
    },
    {
      "midi": 28,
      "hit": false,
      "t": 61653.41999999997,
      "d": 359.25125000000116,
      "v": 106
    },
    {
      "midi": 59,
      "hit": false,
      "t": 61653.419999999984,
      "d": 314.9599999999991,
      "v": 94
    },
    {
      "midi": 64,
      "hit": false,
      "t": 61653.419999999984,
      "d": 344.48749999999563,
      "v": 100
    },
    {
      "midi": 56,
      "hit": false,
      "t": 61653.419999999984,
      "d": 346.94812499999534,
      "v": 106
    },
    {
      "midi": 64,
      "hit": false,
      "t": 61653.42000000003,
      "d": 661.9081250000017,
      "v": 113
    },
    {
      "midi": 28,
      "hit": false,
      "t": 62125.85999999997,
      "d": 125.49187499999971,
      "v": 94
    },
    {
      "midi": 59,
      "hit": false,
      "t": 62125.85999999998,
      "d": 118.11000000000058,
      "v": 89
    },
    {
      "midi": 64,
      "hit": false,
      "t": 62125.85999999998,
      "d": 137.79499999999825,
      "v": 91
    },
    {
      "midi": 56,
      "hit": false,
      "t": 62125.85999999998,
      "d": 174.70437500000116,
      "v": 96
    },
    {
      "midi": 57,
      "hit": false,
      "t": 62362.07999999938,
      "d": 1712.594999999994,
      "v": 78
    },
    {
      "midi": 66,
      "hit": false,
      "t": 62362.07999999938,
      "d": 1732.2799999999916,
      "v": 83
    },
    {
      "midi": 26,
      "hit": false,
      "t": 62362.07999999997,
      "d": 511.8099999999977,
      "v": 104
    },
    {
      "midi": 62,
      "hit": false,
      "t": 62362.07999999998,
      "d": 1363.1862499999988,
      "v": 104
    },
    {
      "midi": 57,
      "hit": false,
      "t": 62362.07999999998,
      "d": 1368.1074999999983,
      "v": 97
    },
    {
      "midi": 66,
      "hit": false,
      "t": 62362.07999999998,
      "d": 1422.2412499999991,
      "v": 107
    },
    {
      "midi": 57,
      "hit": false,
      "t": 62362.07999999999,
      "d": 1680.6068749999977,
      "v": 98
    },
    {
      "midi": 50,
      "hit": false,
      "t": 62362.07999999999,
      "d": 5659.4375,
      "v": 99
    },
    {
      "midi": 66,
      "hit": false,
      "t": 62362.08000000003,
      "d": 1397.635000000002,
      "v": 121
    },
    {
      "midi": 26,
      "hit": false,
      "t": 63070.73999999997,
      "d": 108.26750000000175,
      "v": 108
    },
    {
      "midi": 26,
      "hit": false,
      "t": 63306.95999999997,
      "d": 824.3093749999971,
      "v": 107
    },
    {
      "midi": 57,
      "hit": false,
      "t": 63779.39999999998,
      "d": 145.17687499999738,
      "v": 94
    },
    {
      "midi": 62,
      "hit": false,
      "t": 63779.39999999998,
      "d": 159.94062499999563,
      "v": 99
    },
    {
      "midi": 62,
      "hit": false,
      "t": 63779.40000000003,
      "d": 233.75937500000146,
      "v": 115
    },
    {
      "midi": 59,
      "hit": false,
      "t": 64015.61999999938,
      "d": 3986.2125000000015,
      "v": 84
    },
    {
      "midi": 67,
      "hit": false,
      "t": 64015.61999999938,
      "d": 4003.4368750000067,
      "v": 84
    },
    {
      "midi": 62,
      "hit": false,
      "t": 64015.61999999997,
      "d": 2738.675624999996,
      "v": 101
    },
    {
      "midi": 67,
      "hit": false,
      "t": 64015.61999999997,
      "d": 2787.8881249999904,
      "v": 103
    },
    {
      "midi": 59,
      "hit": false,
      "t": 64015.61999999997,
      "d": 3870.5631249999788,
      "v": 89
    },
    {
      "midi": 59,
      "hit": false,
      "t": 64015.61999999999,
      "d": 4003.436874999992,
      "v": 107
    },
    {
      "midi": 67,
      "hit": false,
      "t": 64015.62000000003,
      "d": 2706.6874999999927,
      "v": 111
    },
    {
      "midi": 26,
      "hit": false,
      "t": 64251.83999999997,
      "d": 501.96749999999884,
      "v": 106
    },
    {
      "midi": 26,
      "hit": false,
      "t": 64960.49999999996,
      "d": 98.42500000000291,
      "v": 111
    },
    {
      "midi": 26,
      "hit": false,
      "t": 65196.719999999965,
      "d": 787.4000000000015,
      "v": 110
    },
    {
      "midi": 71,
      "hit": false,
      "t": 65905.37999999998,
      "d": 868.6006249999919,
      "v": 105
    },
    {
      "midi": 26,
      "hit": false,
      "t": 66141.59999999996,
      "d": 509.34937500000524,
      "v": 114
    },
    {
      "midi": 26,
      "hit": false,
      "t": 66850.25999999997,
      "d": 118.11000000000058,
      "v": 108
    },
    {
      "midi": 62,
      "hit": false,
      "t": 66850.25999999997,
      "d": 388.7787499999977,
      "v": 102
    },
    {
      "midi": 62,
      "hit": false,
      "t": 66850.26000000002,
      "d": 140.25562500000524,
      "v": 111
    },
    {
      "midi": 26,
      "hit": false,
      "t": 67086.47999999997,
      "d": 804.6243749999994,
      "v": 105
    },
    {
      "midi": 71,
      "hit": false,
      "t": 67086.47999999997,
      "d": 159.9406250000029,
      "v": 97
    },
    {
      "midi": 67,
      "hit": false,
      "t": 67086.47999999997,
      "d": 184.546875,
      "v": 102
    },
    {
      "midi": 67,
      "hit": false,
      "t": 67086.48000000003,
      "d": 167.32249999999476,
      "v": 106
    },
    {
      "midi": 71,
      "hit": false,
      "t": 67322.69999999997,
      "d": 162.40124999999534,
      "v": 96
    },
    {
      "midi": 67,
      "hit": false,
      "t": 67322.69999999997,
      "d": 182.08624999999302,
      "v": 96
    },
    {
      "midi": 67,
      "hit": false,
      "t": 67322.70000000003,
      "d": 179.62562500000058,
      "v": 107
    },
    {
      "midi": 67,
      "hit": false,
      "t": 67558.91999999995,
      "d": 137.79499999999825,
      "v": 100
    },
    {
      "midi": 71,
      "hit": false,
      "t": 67558.91999999995,
      "d": 140.25562500000524,
      "v": 88
    },
    {
      "midi": 67,
      "hit": false,
      "t": 67558.92000000003,
      "d": 216.5350000000035,
      "v": 105
    },
    {
      "midi": 66,
      "hit": false,
      "t": 67795.13999999996,
      "d": 118.11000000000058,
      "v": 99
    },
    {
      "midi": 69,
      "hit": false,
      "t": 67795.13999999996,
      "d": 167.32249999999476,
      "v": 94
    },
    {
      "midi": 66,
      "hit": false,
      "t": 67795.14000000003,
      "d": 115.6493749999936,
      "v": 112
    },
    {
      "midi": 64,
      "hit": false,
      "t": 67913.24999999996,
      "d": 127.95249999999942,
      "v": 91
    },
    {
      "midi": 67,
      "hit": false,
      "t": 67913.24999999996,
      "d": 132.87374999999884,
      "v": 95
    },
    {
      "midi": 64,
      "hit": false,
      "t": 67913.25000000003,
      "d": 115.6493749999936,
      "v": 106
    },
    {
      "midi": 62,
      "hit": false,
      "t": 68031.35999999939,
      "d": 29.527499999996508,
      "v": 86
    },
    {
      "midi": 57,
      "hit": false,
      "t": 68031.35999999939,
      "d": 1909.4449999999924,
      "v": 81
    },
    {
      "midi": 66,
      "hit": false,
      "t": 68031.35999999939,
      "d": 1919.2874999999913,
      "v": 82
    },
    {
      "midi": 57,
      "hit": false,
      "t": 68031.35999999996,
      "d": 912.8918750000012,
      "v": 84
    },
    {
      "midi": 62,
      "hit": false,
      "t": 68031.35999999996,
      "d": 915.3525000000081,
      "v": 100
    },
    {
      "midi": 66,
      "hit": false,
      "t": 68031.35999999996,
      "d": 915.3525000000081,
      "v": 100
    },
    {
      "midi": 26,
      "hit": false,
      "t": 68031.35999999997,
      "d": 501.96749999999884,
      "v": 108
    },
    {
      "midi": 57,
      "hit": false,
      "t": 68031.35999999999,
      "d": 1934.0512499999895,
      "v": 102
    },
    {
      "midi": 50,
      "hit": false,
      "t": 68031.35999999999,
      "d": 9404.508750000008,
      "v": 86
    },
    {
      "midi": 62,
      "hit": false,
      "t": 68031.36000000003,
      "d": 1360.7256250000064,
      "v": 107
    },
    {
      "midi": 26,
      "hit": false,
      "t": 68740.01999999997,
      "d": 98.42500000000291,
      "v": 98
    },
    {
      "midi": 26,
      "hit": false,
      "t": 68976.23999999998,
      "d": 765.2543750000041,
      "v": 109
    },
    {
      "midi": 66,
      "hit": false,
      "t": 69448.67999999996,
      "d": 228.83812499999476,
      "v": 103
    },
    {
      "midi": 69,
      "hit": false,
      "t": 69448.67999999996,
      "d": 302.6568750000006,
      "v": 99
    },
    {
      "midi": 66,
      "hit": false,
      "t": 69448.68000000004,
      "d": 233.75937499999418,
      "v": 125
    },
    {
      "midi": 64,
      "hit": false,
      "t": 69684.89999999997,
      "d": 433.06999999999243,
      "v": 95
    },
    {
      "midi": 67,
      "hit": false,
      "t": 69684.89999999997,
      "d": 445.37312499999825,
      "v": 91
    },
    {
      "midi": 64,
      "hit": false,
      "t": 69684.90000000004,
      "d": 469.97937499999534,
      "v": 108
    },
    {
      "midi": 59,
      "hit": false,
      "t": 69921.11999999938,
      "d": 1862.6931249999907,
      "v": 87
    },
    {
      "midi": 67,
      "hit": false,
      "t": 69921.11999999938,
      "d": 1884.8387499999953,
      "v": 88
    },
    {
      "midi": 26,
      "hit": false,
      "t": 69921.11999999998,
      "d": 487.2037500000006,
      "v": 112
    },
    {
      "midi": 47,
      "hit": false,
      "t": 69921.11999999998,
      "d": 233.75937499999418,
      "v": 86
    },
    {
      "midi": 59,
      "hit": false,
      "t": 69921.11999999998,
      "d": 1865.1537499999977,
      "v": 88
    },
    {
      "midi": 62,
      "hit": false,
      "t": 70157.33999999997,
      "d": 167.32249999999476,
      "v": 79
    },
    {
      "midi": 66,
      "hit": false,
      "t": 70157.33999999997,
      "d": 167.32249999999476,
      "v": 85
    },
    {
      "midi": 45,
      "hit": false,
      "t": 70157.33999999998,
      "d": 241.14125000000058,
      "v": 66
    },
    {
      "midi": 62,
      "hit": false,
      "t": 70157.34000000004,
      "d": 157.47999999999593,
      "v": 85
    },
    {
      "midi": 43,
      "hit": false,
      "t": 70393.55999999998,
      "d": 388.7787499999977,
      "v": 83
    },
    {
      "midi": 26,
      "hit": false,
      "t": 70629.77999999998,
      "d": 103.34625000000233,
      "v": 103
    },
    {
      "midi": 62,
      "hit": false,
      "t": 70629.78000000004,
      "d": 127.95249999999942,
      "v": 111
    },
    {
      "midi": 71,
      "hit": false,
      "t": 70865.99999999996,
      "d": 169.78312500000175,
      "v": 101
    },
    {
      "midi": 67,
      "hit": false,
      "t": 70865.99999999996,
      "d": 172.24375000000873,
      "v": 103
    },
    {
      "midi": 26,
      "hit": false,
      "t": 70865.99999999999,
      "d": 745.5693750000064,
      "v": 99
    },
    {
      "midi": 43,
      "hit": false,
      "t": 70865.99999999999,
      "d": 292.81437500000175,
      "v": 77
    },
    {
      "midi": 67,
      "hit": false,
      "t": 70866.00000000004,
      "d": 140.25562500000524,
      "v": 111
    },
    {
      "midi": 67,
      "hit": false,
      "t": 71102.21999999997,
      "d": 123.03125,
      "v": 95
    },
    {
      "midi": 71,
      "hit": false,
      "t": 71102.21999999997,
      "d": 147.6374999999971,
      "v": 93
    },
    {
      "midi": 45,
      "hit": false,
      "t": 71102.21999999999,
      "d": 236.22000000000116,
      "v": 80
    },
    {
      "midi": 67,
      "hit": false,
      "t": 71102.22000000004,
      "d": 162.40124999999534,
      "v": 112
    },
    {
      "midi": 67,
      "hit": false,
      "t": 71338.43999999997,
      "d": 187.00750000000698,
      "v": 97
    },
    {
      "midi": 71,
      "hit": false,
      "t": 71338.43999999997,
      "d": 211.61375000000407,
      "v": 93
    },
    {
      "midi": 47,
      "hit": false,
      "t": 71338.43999999999,
      "d": 388.7787499999977,
      "v": 79
    },
    {
      "midi": 67,
      "hit": false,
      "t": 71338.44000000005,
      "d": 233.75937499999418,
      "v": 112
    },
    {
      "midi": 66,
      "hit": false,
      "t": 71574.65999999997,
      "d": 118.11000000000058,
      "v": 92
    },
    {
      "midi": 69,
      "hit": false,
      "t": 71574.65999999997,
      "d": 137.79499999999825,
      "v": 101
    },
    {
      "midi": 66,
      "hit": false,
      "t": 71574.66000000005,
      "d": 115.6493749999936,
      "v": 101
    },
    {
      "midi": 67,
      "hit": false,
      "t": 71692.76999999997,
      "d": 127.95249999999942,
      "v": 84
    },
    {
      "midi": 64,
      "hit": false,
      "t": 71692.76999999997,
      "d": 137.79499999999825,
      "v": 87
    },
    {
      "midi": 64,
      "hit": false,
      "t": 71692.77000000005,
      "d": 115.6493749999936,
      "v": 105
    },
    {
      "midi": 57,
      "hit": false,
      "t": 71810.87999999938,
      "d": 1860.2324999999983,
      "v": 82
    },
    {
      "midi": 66,
      "hit": false,
      "t": 71810.87999999938,
      "d": 1882.378125000003,
      "v": 80
    },
    {
      "midi": 62,
      "hit": false,
      "t": 71810.87999999998,
      "d": 1232.7731249999924,
      "v": 89
    },
    {
      "midi": 66,
      "hit": false,
      "t": 71810.87999999998,
      "d": 1259.8399999999965,
      "v": 109
    },
    {
      "midi": 57,
      "hit": false,
      "t": 71810.87999999998,
      "d": 1852.8506250000064,
      "v": 89
    },
    {
      "midi": 26,
      "hit": false,
      "t": 71810.87999999999,
      "d": 509.34937500000524,
      "v": 105
    },
    {
      "midi": 62,
      "hit": false,
      "t": 71810.88000000005,
      "d": 1353.34375,
      "v": 106
    },
    {
      "midi": 26,
      "hit": false,
      "t": 72519.54,
      "d": 100.88562499999534,
      "v": 102
    },
    {
      "midi": 26,
      "hit": false,
      "t": 72755.76,
      "d": 730.8056249999936,
      "v": 99
    },
    {
      "midi": 66,
      "hit": false,
      "t": 73228.19999999997,
      "d": 177.1649999999936,
      "v": 97
    },
    {
      "midi": 69,
      "hit": false,
      "t": 73228.19999999997,
      "d": 187.00749999999243,
      "v": 96
    },
    {
      "midi": 66,
      "hit": false,
      "t": 73228.20000000006,
      "d": 206.69250000000466,
      "v": 112
    },
    {
      "midi": 64,
      "hit": false,
      "t": 73464.41999999995,
      "d": 455.2156249999971,
      "v": 102
    },
    {
      "midi": 67,
      "hit": false,
      "t": 73464.41999999995,
      "d": 477.36125000000175,
      "v": 98
    },
    {
      "midi": 64,
      "hit": false,
      "t": 73464.42000000006,
      "d": 469.97937499999534,
      "v": 107
    },
    {
      "midi": 59,
      "hit": false,
      "t": 73700.63999999939,
      "d": 1867.6143750000047,
      "v": 87
    },
    {
      "midi": 67,
      "hit": false,
      "t": 73700.63999999939,
      "d": 1914.3662500000064,
      "v": 80
    },
    {
      "midi": 26,
      "hit": false,
      "t": 73700.63999999998,
      "d": 511.8099999999977,
      "v": 105
    },
    {
      "midi": 47,
      "hit": false,
      "t": 73700.63999999998,
      "d": 268.20812500000466,
      "v": 90
    },
    {
      "midi": 59,
      "hit": false,
      "t": 73700.63999999998,
      "d": 1899.6025000000081,
      "v": 93
    },
    {
      "midi": 66,
      "hit": false,
      "t": 73936.85999999996,
      "d": 150.09812500000407,
      "v": 100
    },
    {
      "midi": 62,
      "hit": false,
      "t": 73936.85999999996,
      "d": 169.78312500000175,
      "v": 89
    },
    {
      "midi": 45,
      "hit": false,
      "t": 73936.85999999999,
      "d": 211.61375000000407,
      "v": 71
    },
    {
      "midi": 62,
      "hit": false,
      "t": 73936.86000000006,
      "d": 159.9406250000029,
      "v": 102
    },
    {
      "midi": 43,
      "hit": false,
      "t": 74173.07999999999,
      "d": 398.6212499999965,
      "v": 66
    },
    {
      "midi": 66,
      "hit": false,
      "t": 74409.29999999996,
      "d": 105.80687499999476,
      "v": 103
    },
    {
      "midi": 62,
      "hit": false,
      "t": 74409.29999999996,
      "d": 147.6374999999971,
      "v": 88
    },
    {
      "midi": 26,
      "hit": false,
      "t": 74409.29999999999,
      "d": 105.80687499999476,
      "v": 106
    },
    {
      "midi": 62,
      "hit": false,
      "t": 74409.30000000006,
      "d": 140.25562500000524,
      "v": 111
    },
    {
      "midi": 67,
      "hit": false,
      "t": 74645.51999999996,
      "d": 108.26750000000175,
      "v": 98
    },
    {
      "midi": 71,
      "hit": false,
      "t": 74645.51999999996,
      "d": 115.64937500000815,
      "v": 103
    },
    {
      "midi": 26,
      "hit": false,
      "t": 74645.51999999999,
      "d": 728.3450000000012,
      "v": 95
    },
    {
      "midi": 43,
      "hit": false,
      "t": 74645.51999999999,
      "d": 241.14125000000058,
      "v": 78
    },
    {
      "midi": 67,
      "hit": false,
      "t": 74645.52000000006,
      "d": 142.71624999999767,
      "v": 109
    },
    {
      "midi": 67,
      "hit": false,
      "t": 74881.73999999996,
      "d": 120.57062499999302,
      "v": 92
    },
    {
      "midi": 71,
      "hit": false,
      "t": 74881.73999999996,
      "d": 125.49187499999243,
      "v": 96
    },
    {
      "midi": 45,
      "hit": false,
      "t": 74881.73999999999,
      "d": 221.4562500000029,
      "v": 61
    },
    {
      "midi": 67,
      "hit": false,
      "t": 74881.74000000006,
      "d": 164.86187500000233,
      "v": 110
    },
    {
      "midi": 71,
      "hit": false,
      "t": 75117.95999999995,
      "d": 177.1649999999936,
      "v": 105
    },
    {
      "midi": 67,
      "hit": false,
      "t": 75117.95999999995,
      "d": 182.08624999999302,
      "v": 95
    },
    {
      "midi": 47,
      "hit": false,
      "t": 75117.95999999999,
      "d": 425.6881250000006,
      "v": 78
    },
    {
      "midi": 67,
      "hit": false,
      "t": 75117.96000000006,
      "d": 216.5350000000035,
      "v": 107
    },
    {
      "midi": 66,
      "hit": false,
      "t": 75354.17999999993,
      "d": 86.12187499999709,
      "v": 100
    },
    {
      "midi": 69,
      "hit": false,
      "t": 75354.17999999993,
      "d": 108.26750000000175,
      "v": 89
    },
    {
      "midi": 66,
      "hit": false,
      "t": 75354.18000000007,
      "d": 115.6493749999936,
      "v": 102
    },
    {
      "midi": 67,
      "hit": false,
      "t": 75472.28999999994,
      "d": 103.34625000000233,
      "v": 88
    },
    {
      "midi": 64,
      "hit": false,
      "t": 75472.28999999994,
      "d": 127.95249999999942,
      "v": 84
    },
    {
      "midi": 64,
      "hit": false,
      "t": 75472.29000000007,
      "d": 115.6493749999936,
      "v": 103
    },
    {
      "midi": 66,
      "hit": false,
      "t": 75590.3999999994,
      "d": 1872.535625000004,
      "v": 83
    },
    {
      "midi": 57,
      "hit": false,
      "t": 75590.3999999994,
      "d": 1877.4568750000035,
      "v": 80
    },
    {
      "midi": 62,
      "hit": false,
      "t": 75590.39999999994,
      "d": 1461.6112500000017,
      "v": 88
    },
    {
      "midi": 66,
      "hit": false,
      "t": 75590.39999999994,
      "d": 1473.9143750000076,
      "v": 102
    },
    {
      "midi": 26,
      "hit": false,
      "t": 75590.4,
      "d": 521.6524999999965,
      "v": 100
    },
    {
      "midi": 57,
      "hit": false,
      "t": 75590.4,
      "d": 1884.8387499999953,
      "v": 93
    },
    {
      "midi": 62,
      "hit": false,
      "t": 75590.40000000007,
      "d": 1407.4774999999936,
      "v": 104
    },
    {
      "midi": 26,
      "hit": false,
      "t": 76299.06,
      "d": 108.26750000000175,
      "v": 96
    },
    {
      "midi": 26,
      "hit": false,
      "t": 76535.28,
      "d": 760.3331250000047,
      "v": 99
    },
    {
      "midi": 64,
      "hit": false,
      "t": 77480.1599999994,
      "d": 3779.520000000004,
      "v": 87
    },
    {
      "midi": 57,
      "hit": false,
      "t": 77480.1599999994,
      "d": 7512.288125000006,
      "v": 84
    },
    {
      "midi": 60,
      "hit": false,
      "t": 77480.1599999994,
      "d": 7546.736875000002,
      "v": 81
    },
    {
      "midi": 45,
      "hit": false,
      "t": 77480.15999999997,
      "d": 3270.170624999999,
      "v": 90
    },
    {
      "midi": 33,
      "hit": false,
      "t": 77480.16,
      "d": 509.34937500000524,
      "v": 107
    },
    {
      "midi": 60,
      "hit": false,
      "t": 77952.60000000006,
      "d": 698.8175000000047,
      "v": 121
    },
    {
      "midi": 33,
      "hit": false,
      "t": 78188.82,
      "d": 108.26750000000175,
      "v": 102
    },
    {
      "midi": 33,
      "hit": false,
      "t": 78425.04000000001,
      "d": 533.9556250000023,
      "v": 100
    },
    {
      "midi": 59,
      "hit": false,
      "t": 78661.26000000007,
      "d": 706.1993749999965,
      "v": 107
    },
    {
      "midi": 33,
      "hit": false,
      "t": 79369.92000000001,
      "d": 563.4831249999988,
      "v": 107
    },
    {
      "midi": 62,
      "hit": false,
      "t": 79369.92000000007,
      "d": 706.1993749999965,
      "v": 111
    },
    {
      "midi": 28,
      "hit": false,
      "t": 80078.58000000002,
      "d": 127.95249999999942,
      "v": 102
    },
    {
      "midi": 60,
      "hit": false,
      "t": 80078.58000000007,
      "d": 802.163750000007,
      "v": 104
    },
    {
      "midi": 33,
      "hit": false,
      "t": 80314.80000000002,
      "d": 442.9125000000058,
      "v": 105
    },
    {
      "midi": 48,
      "hit": false,
      "t": 80787.23999999998,
      "d": 501.96749999999884,
      "v": 83
    },
    {
      "midi": 31,
      "hit": false,
      "t": 80787.24000000002,
      "d": 425.6881250000006,
      "v": 104
    },
    {
      "midi": 65,
      "hit": false,
      "t": 81259.67999999941,
      "d": 3769.6775000000052,
      "v": 84
    },
    {
      "midi": 41,
      "hit": false,
      "t": 81259.67999999998,
      "d": 3737.6893750000017,
      "v": 81
    },
    {
      "midi": 29,
      "hit": false,
      "t": 81259.68000000002,
      "d": 541.3374999999942,
      "v": 97
    },
    {
      "midi": 60,
      "hit": false,
      "t": 81732.12000000008,
      "d": 676.671875,
      "v": 116
    },
    {
      "midi": 29,
      "hit": false,
      "t": 81968.34000000001,
      "d": 108.26750000000175,
      "v": 103
    },
    {
      "midi": 29,
      "hit": false,
      "t": 82204.56000000001,
      "d": 533.9556250000023,
      "v": 99
    },
    {
      "midi": 59,
      "hit": false,
      "t": 82440.78000000009,
      "d": 671.7506250000006,
      "v": 106
    },
    {
      "midi": 29,
      "hit": false,
      "t": 83149.44000000002,
      "d": 514.2706250000047,
      "v": 98
    },
    {
      "midi": 62,
      "hit": false,
      "t": 83149.44000000009,
      "d": 706.1993749999965,
      "v": 107
    },
    {
      "midi": 29,
      "hit": false,
      "t": 83858.10000000002,
      "d": 115.6493749999936,
      "v": 102
    },
    {
      "midi": 60,
      "hit": false,
      "t": 83858.1000000001,
      "d": 797.242499999993,
      "v": 112
    },
    {
      "midi": 29,
      "hit": false,
      "t": 84094.32,
      "d": 612.695624999993,
      "v": 102
    },
    {
      "midi": 29,
      "hit": false,
      "t": 84802.98,
      "d": 174.70437500000116,
      "v": 96
    },
    {
      "midi": 57,
      "hit": false,
      "t": 84802.98000000008,
      "d": 233.75937499999418,
      "v": 96
    },
    {
      "midi": 55,
      "hit": false,
      "t": 85039.19999999942,
      "d": 3777.059374999997,
      "v": 79
    },
    {
      "midi": 59,
      "hit": false,
      "t": 85039.19999999942,
      "d": 3789.362500000003,
      "v": 80
    },
    {
      "midi": 40,
      "hit": false,
      "t": 85039.19999999998,
      "d": 3668.7918749999953,
      "v": 83
    },
    {
      "midi": 28,
      "hit": false,
      "t": 85039.2,
      "d": 533.9556250000023,
      "v": 104
    },
    {
      "midi": 59,
      "hit": false,
      "t": 85039.20000000008,
      "d": 469.97937499999534,
      "v": 106
    },
    {
      "midi": 60,
      "hit": false,
      "t": 85511.64000000009,
      "d": 233.75937499999418,
      "v": 110
    },
    {
      "midi": 28,
      "hit": false,
      "t": 85747.86,
      "d": 105.80687499999476,
      "v": 99
    },
    {
      "midi": 59,
      "hit": false,
      "t": 85747.86000000009,
      "d": 423.2274999999936,
      "v": 108
    },
    {
      "midi": 28,
      "hit": false,
      "t": 85984.08,
      "d": 531.4949999999953,
      "v": 94
    },
    {
      "midi": 55,
      "hit": false,
      "t": 86220.30000000008,
      "d": 179.62562500000058,
      "v": 106
    },
    {
      "midi": 55,
      "hit": false,
      "t": 86456.52000000008,
      "d": 1163.8756250000006,
      "v": 107
    },
    {
      "midi": 28,
      "hit": false,
      "t": 86928.95999999999,
      "d": 506.88874999999825,
      "v": 102
    },
    {
      "midi": 28,
      "hit": false,
      "t": 87637.62,
      "d": 233.75937499999418,
      "v": 97
    },
    {
      "midi": 26,
      "hit": false,
      "t": 87873.84,
      "d": 216.5350000000035,
      "v": 95
    },
    {
      "midi": 28,
      "hit": false,
      "t": 88110.06,
      "d": 233.75937499999418,
      "v": 97
    },
    {
      "midi": 31,
      "hit": false,
      "t": 88346.28,
      "d": 233.75937499999418,
      "v": 94
    },
    {
      "midi": 28,
      "hit": false,
      "t": 88582.5,
      "d": 233.75937499999418,
      "v": 94
    },
    {
      "midi": 64,
      "hit": false,
      "t": 88818.71999999942,
      "d": 19.68499999999767,
      "v": 81
    },
    {
      "midi": 57,
      "hit": false,
      "t": 88818.71999999942,
      "d": 7561.500625000015,
      "v": 86
    },
    {
      "midi": 60,
      "hit": false,
      "t": 88818.71999999942,
      "d": 7568.8825000000215,
      "v": 78
    },
    {
      "midi": 45,
      "hit": false,
      "t": 88818.71999999997,
      "d": 3294.776874999996,
      "v": 81
    },
    {
      "midi": 33,
      "hit": false,
      "t": 88818.72,
      "d": 543.7981250000012,
      "v": 105
    },
    {
      "midi": 64,
      "hit": false,
      "t": 89291.15999999995,
      "d": 698.8175000000047,
      "v": 116
    },
    {
      "midi": 60,
      "hit": false,
      "t": 89291.16000000008,
      "d": 698.8175000000047,
      "v": 123
    },
    {
      "midi": 33,
      "hit": false,
      "t": 89527.38,
      "d": 95.96437499999593,
      "v": 102
    },
    {
      "midi": 33,
      "hit": false,
      "t": 89763.6,
      "d": 487.2037500000006,
      "v": 97
    },
    {
      "midi": 62,
      "hit": false,
      "t": 89999.81999999995,
      "d": 728.3450000000012,
      "v": 103
    },
    {
      "midi": 59,
      "hit": false,
      "t": 89999.82000000008,
      "d": 706.1993749999965,
      "v": 113
    },
    {
      "midi": 65,
      "hit": false,
      "t": 90708.47999999995,
      "d": 718.5025000000023,
      "v": 102
    },
    {
      "midi": 33,
      "hit": false,
      "t": 90708.48000000001,
      "d": 656.9868750000023,
      "v": 105
    },
    {
      "midi": 62,
      "hit": false,
      "t": 90708.48000000008,
      "d": 706.1993749999965,
      "v": 105
    },
    {
      "midi": 64,
      "hit": false,
      "t": 91417.13999999996,
      "d": 802.1637499999924,
      "v": 98
    },
    {
      "midi": 28,
      "hit": false,
      "t": 91417.14000000001,
      "d": 182.08624999999302,
      "v": 97
    },
    {
      "midi": 60,
      "hit": false,
      "t": 91417.14000000009,
      "d": 802.163750000007,
      "v": 109
    },
    {
      "midi": 36,
      "hit": false,
      "t": 91653.36,
      "d": 233.75937499999418,
      "v": 106
    },
    {
      "midi": 35,
      "hit": false,
      "t": 91889.58,
      "d": 209.1531249999971,
      "v": 112
    },
    {
      "midi": 48,
      "hit": false,
      "t": 92125.79999999997,
      "d": 474.9006250000093,
      "v": 88
    },
    {
      "midi": 33,
      "hit": false,
      "t": 92125.8,
      "d": 231.29875000000175,
      "v": 95
    },
    {
      "midi": 31,
      "hit": false,
      "t": 92362.02,
      "d": 218.99562499999593,
      "v": 93
    },
    {
      "midi": 65,
      "hit": false,
      "t": 92598.23999999942,
      "d": 3838.5750000000116,
      "v": 85
    },
    {
      "midi": 41,
      "hit": false,
      "t": 92598.23999999998,
      "d": 3722.9256250000035,
      "v": 84
    },
    {
      "midi": 29,
      "hit": false,
      "t": 92598.24,
      "d": 526.5737499999959,
      "v": 103
    },
    {
      "midi": 64,
      "hit": false,
      "t": 93070.67999999995,
      "d": 676.671875,
      "v": 117
    },
    {
      "midi": 60,
      "hit": false,
      "t": 93070.6800000001,
      "d": 676.671875,
      "v": 117
    },
    {
      "midi": 29,
      "hit": false,
      "t": 93306.9,
      "d": 110.72812499999418,
      "v": 102
    },
    {
      "midi": 29,
      "hit": false,
      "t": 93543.12,
      "d": 531.4949999999953,
      "v": 105
    },
    {
      "midi": 62,
      "hit": false,
      "t": 93779.33999999995,
      "d": 671.7506250000006,
      "v": 103
    },
    {
      "midi": 59,
      "hit": false,
      "t": 93779.3400000001,
      "d": 671.7506250000006,
      "v": 107
    },
    {
      "midi": 65,
      "hit": false,
      "t": 94487.99999999996,
      "d": 745.5693750000064,
      "v": 109
    },
    {
      "midi": 29,
      "hit": false,
      "t": 94487.99999999999,
      "d": 511.8099999999977,
      "v": 102
    },
    {
      "midi": 62,
      "hit": false,
      "t": 94488.0000000001,
      "d": 706.1993749999965,
      "v": 106
    },
    {
      "midi": 64,
      "hit": false,
      "t": 95196.65999999996,
      "d": 797.2425000000076,
      "v": 100
    },
    {
      "midi": 29,
      "hit": false,
      "t": 95196.65999999999,
      "d": 167.32249999999476,
      "v": 95
    },
    {
      "midi": 60,
      "hit": false,
      "t": 95196.6600000001,
      "d": 797.242499999993,
      "v": 105
    },
    {
      "midi": 29,
      "hit": false,
      "t": 95432.87999999999,
      "d": 452.75500000000466,
      "v": 101
    },
    {
      "midi": 31,
      "hit": false,
      "t": 95905.31999999999,
      "d": 233.75937499999418,
      "v": 97
    },
    {
      "midi": 60,
      "hit": false,
      "t": 96141.53999999996,
      "d": 238.68062500000815,
      "v": 100
    },
    {
      "midi": 33,
      "hit": false,
      "t": 96141.54,
      "d": 218.99562499999593,
      "v": 84
    },
    {
      "midi": 57,
      "hit": false,
      "t": 96141.5400000001,
      "d": 233.75937499999418,
      "v": 99
    },
    {
      "midi": 59,
      "hit": false,
      "t": 96377.75999999943,
      "d": 1865.1537500000122,
      "v": 85
    },
    {
      "midi": 55,
      "hit": false,
      "t": 96377.75999999943,
      "d": 1879.9175000000105,
      "v": 83
    },
    {
      "midi": 64,
      "hit": false,
      "t": 96377.75999999943,
      "d": 1879.9175000000105,
      "v": 81
    },
    {
      "midi": 62,
      "hit": false,
      "t": 96377.75999999997,
      "d": 472.4400000000023,
      "v": 110
    },
    {
      "midi": 40,
      "hit": false,
      "t": 96377.75999999998,
      "d": 1879.917499999996,
      "v": 76
    },
    {
      "midi": 28,
      "hit": false,
      "t": 96377.76,
      "d": 526.5737499999959,
      "v": 103
    },
    {
      "midi": 59,
      "hit": false,
      "t": 96377.7600000001,
      "d": 469.97937499999534,
      "v": 115
    },
    {
      "midi": 64,
      "hit": false,
      "t": 96850.19999999997,
      "d": 238.68062500000815,
      "v": 102
    },
    {
      "midi": 60,
      "hit": false,
      "t": 96850.2000000001,
      "d": 233.75937499999418,
      "v": 111
    },
    {
      "midi": 62,
      "hit": false,
      "t": 97086.41999999997,
      "d": 423.22750000000815,
      "v": 107
    },
    {
      "midi": 28,
      "hit": false,
      "t": 97086.41999999998,
      "d": 100.88562499999534,
      "v": 104
    },
    {
      "midi": 59,
      "hit": false,
      "t": 97086.4200000001,
      "d": 423.2274999999936,
      "v": 113
    },
    {
      "midi": 28,
      "hit": false,
      "t": 97322.63999999998,
      "d": 627.4593750000058,
      "v": 104
    },
    {
      "midi": 59,
      "hit": false,
      "t": 97558.85999999997,
      "d": 179.62562500000058,
      "v": 104
    },
    {
      "midi": 55,
      "hit": false,
      "t": 97558.86000000009,
      "d": 179.62562500000058,
      "v": 104
    },
    {
      "midi": 59,
      "hit": false,
      "t": 97795.07999999997,
      "d": 376.4756250000064,
      "v": 98
    },
    {
      "midi": 55,
      "hit": false,
      "t": 97795.08000000009,
      "d": 376.4756250000064,
      "v": 100
    },
    {
      "midi": 57,
      "hit": false,
      "t": 98267.51999999944,
      "d": 1904.523749999993,
      "v": 82
    },
    {
      "midi": 60,
      "hit": false,
      "t": 98267.51999999944,
      "d": 1909.4449999999924,
      "v": 78
    },
    {
      "midi": 65,
      "hit": false,
      "t": 98267.51999999944,
      "d": 1909.4449999999924,
      "v": 87
    },
    {
      "midi": 41,
      "hit": false,
      "t": 98267.51999999997,
      "d": 1838.0868749999936,
      "v": 76
    },
    {
      "midi": 60,
      "hit": false,
      "t": 98267.51999999997,
      "d": 745.5693750000064,
      "v": 104
    },
    {
      "midi": 29,
      "hit": false,
      "t": 98267.51999999999,
      "d": 1786.413750000007,
      "v": 104
    },
    {
      "midi": 57,
      "hit": false,
      "t": 98267.52000000009,
      "d": 706.1993749999965,
      "v": 112
    },
    {
      "midi": 59,
      "hit": false,
      "t": 98976.17999999998,
      "d": 693.8962500000052,
      "v": 100
    },
    {
      "midi": 55,
      "hit": false,
      "t": 98976.1800000001,
      "d": 693.8962500000052,
      "v": 102
    },
    {
      "midi": 57,
      "hit": false,
      "t": 99684.83999999998,
      "d": 479.8218749999942,
      "v": 83
    },
    {
      "midi": 53,
      "hit": false,
      "t": 99684.8400000001,
      "d": 469.97937499999534,
      "v": 61
    },
    {
      "midi": 69,
      "hit": false,
      "t": 100157.27999999943,
      "d": 3710.6224999999977,
      "v": 60
    },
    {
      "midi": 72,
      "hit": false,
      "t": 100157.27999999943,
      "d": 3794.2837500000023,
      "v": 69
    },
    {
      "midi": 76,
      "hit": false,
      "t": 100157.27999999943,
      "d": 3828.7324999999983,
      "v": 64
    },
    {
      "midi": 57,
      "hit": false,
      "t": 100157.27999999997,
      "d": 66.43687499999942,
      "v": 65
    },
    {
      "midi": 33,
      "hit": false,
      "t": 100157.28,
      "d": 526.5737499999959,
      "v": 103
    },
    {
      "midi": 52,
      "hit": false,
      "t": 100157.2800000001,
      "d": 231.29875000000175,
      "v": 56
    },
    {
      "midi": 57,
      "hit": false,
      "t": 100393.49999999997,
      "d": 66.43687499999942,
      "v": 60
    },
    {
      "midi": 57,
      "hit": false,
      "t": 100629.71999999997,
      "d": 76.27937499999825,
      "v": 64
    },
    {
      "midi": 64,
      "hit": false,
      "t": 100629.7200000001,
      "d": 159.9406250000029,
      "v": 113
    },
    {
      "midi": 57,
      "hit": false,
      "t": 100865.93999999997,
      "d": 76.27937499999825,
      "v": 62
    },
    {
      "midi": 33,
      "hit": false,
      "t": 100865.93999999999,
      "d": 110.72812499999418,
      "v": 104
    },
    {
      "midi": 64,
      "hit": false,
      "t": 100865.9400000001,
      "d": 167.32249999999476,
      "v": 106
    },
    {
      "midi": 57,
      "hit": false,
      "t": 101102.15999999997,
      "d": 73.81875000000582,
      "v": 68
    },
    {
      "midi": 33,
      "hit": false,
      "t": 101102.15999999999,
      "d": 135.33437500000582,
      "v": 98
    },
    {
      "midi": 64,
      "hit": false,
      "t": 101102.1600000001,
      "d": 167.32249999999476,
      "v": 106
    },
    {
      "midi": 57,
      "hit": false,
      "t": 101338.37999999998,
      "d": 73.81875000000582,
      "v": 64
    },
    {
      "midi": 33,
      "hit": false,
      "t": 101338.37999999999,
      "d": 127.95249999999942,
      "v": 105
    },
    {
      "midi": 62,
      "hit": false,
      "t": 101338.3800000001,
      "d": 130.4131250000064,
      "v": 104
    },
    {
      "midi": 57,
      "hit": false,
      "t": 101574.59999999998,
      "d": 76.27937499999825,
      "v": 68
    },
    {
      "midi": 62,
      "hit": false,
      "t": 101574.60000000011,
      "d": 142.71624999999767,
      "v": 107
    },
    {
      "midi": 57,
      "hit": false,
      "t": 101810.81999999998,
      "d": 76.27937499999825,
      "v": 64
    },
    {
      "midi": 62,
      "hit": false,
      "t": 101810.82000000011,
      "d": 120.57062499999302,
      "v": 108
    },
    {
      "midi": 57,
      "hit": false,
      "t": 102047.03999999998,
      "d": 76.27937499999825,
      "v": 68
    },
    {
      "midi": 33,
      "hit": false,
      "t": 102047.04,
      "d": 504.4281250000058,
      "v": 97
    },
    {
      "midi": 62,
      "hit": false,
      "t": 102047.0400000001,
      "d": 214.0743749999965,
      "v": 111
    },
    {
      "midi": 57,
      "hit": false,
      "t": 102283.25999999998,
      "d": 68.8975000000064,
      "v": 58
    },
    {
      "midi": 60,
      "hit": false,
      "t": 102283.2600000001,
      "d": 216.5350000000035,
      "v": 107
    },
    {
      "midi": 57,
      "hit": false,
      "t": 102519.47999999998,
      "d": 76.27937499999825,
      "v": 59
    },
    {
      "midi": 64,
      "hit": false,
      "t": 102519.4800000001,
      "d": 501.96749999999884,
      "v": 100
    },
    {
      "midi": 57,
      "hit": false,
      "t": 102755.69999999998,
      "d": 73.81875000000582,
      "v": 64
    },
    {
      "midi": 33,
      "hit": false,
      "t": 102755.7,
      "d": 108.26750000000175,
      "v": 100
    },
    {
      "midi": 57,
      "hit": false,
      "t": 102991.91999999998,
      "d": 76.27937499999825,
      "v": 57
    },
    {
      "midi": 33,
      "hit": false,
      "t": 102991.92,
      "d": 130.4131250000064,
      "v": 99
    },
    {
      "midi": 57,
      "hit": false,
      "t": 103228.13999999997,
      "d": 196.85000000000582,
      "v": 86
    },
    {
      "midi": 52,
      "hit": false,
      "t": 103228.13999999997,
      "d": 211.61375000000407,
      "v": 90
    },
    {
      "midi": 45,
      "hit": false,
      "t": 103228.13999999997,
      "d": 226.37750000000233,
      "v": 86
    },
    {
      "midi": 57,
      "hit": false,
      "t": 103228.13999999998,
      "d": 76.27937499999825,
      "v": 60
    },
    {
      "midi": 33,
      "hit": false,
      "t": 103228.14,
      "d": 118.11000000000058,
      "v": 98
    },
    {
      "midi": 57,
      "hit": false,
      "t": 103464.35999999999,
      "d": 76.27937499999825,
      "v": 63
    },
    {
      "midi": 45,
      "hit": false,
      "t": 103700.57999999997,
      "d": 206.69250000000466,
      "v": 88
    },
    {
      "midi": 57,
      "hit": false,
      "t": 103700.57999999997,
      "d": 221.4562500000029,
      "v": 87
    },
    {
      "midi": 52,
      "hit": false,
      "t": 103700.57999999997,
      "d": 236.22000000000116,
      "v": 87
    },
    {
      "midi": 57,
      "hit": false,
      "t": 103700.57999999999,
      "d": 83.66125000000466,
      "v": 64
    },
    {
      "midi": 33,
      "hit": false,
      "t": 103700.58,
      "d": 91.04312499999651,
      "v": 104
    },
    {
      "midi": 67,
      "hit": false,
      "t": 103936.79999999944,
      "d": 3759.834999999992,
      "v": 55
    },
    {
      "midi": 71,
      "hit": false,
      "t": 103936.79999999944,
      "d": 3764.7562499999913,
      "v": 42
    },
    {
      "midi": 74,
      "hit": false,
      "t": 103936.79999999944,
      "d": 5684.0437499999825,
      "v": 48
    },
    {
      "midi": 50,
      "hit": false,
      "t": 103936.79999999997,
      "d": 226.37750000000233,
      "v": 78
    },
    {
      "midi": 55,
      "hit": false,
      "t": 103936.79999999997,
      "d": 236.22000000000116,
      "v": 93
    },
    {
      "midi": 43,
      "hit": false,
      "t": 103936.79999999997,
      "d": 260.82624999999825,
      "v": 89
    },
    {
      "midi": 55,
      "hit": false,
      "t": 103936.79999999999,
      "d": 81.20062499999767,
      "v": 68
    },
    {
      "midi": 31,
      "hit": false,
      "t": 103936.8,
      "d": 482.28250000000116,
      "v": 100
    },
    {
      "midi": 55,
      "hit": false,
      "t": 104173.01999999999,
      "d": 76.27937499999825,
      "v": 65
    },
    {
      "midi": 62,
      "hit": false,
      "t": 104173.02000000009,
      "d": 137.79499999999825,
      "v": 114
    },
    {
      "midi": 55,
      "hit": false,
      "t": 104409.23999999999,
      "d": 83.66125000000466,
      "v": 65
    },
    {
      "midi": 62,
      "hit": false,
      "t": 104409.24000000009,
      "d": 137.79499999999825,
      "v": 105
    },
    {
      "midi": 55,
      "hit": false,
      "t": 104645.45999999999,
      "d": 76.27937499999825,
      "v": 66
    },
    {
      "midi": 31,
      "hit": false,
      "t": 104645.46,
      "d": 105.80687499999476,
      "v": 105
    },
    {
      "midi": 62,
      "hit": false,
      "t": 104645.4600000001,
      "d": 127.95249999999942,
      "v": 113
    },
    {
      "midi": 55,
      "hit": false,
      "t": 104881.68,
      "d": 78.74000000000524,
      "v": 63
    },
    {
      "midi": 31,
      "hit": false,
      "t": 104881.68000000001,
      "d": 132.87374999999884,
      "v": 97
    },
    {
      "midi": 62,
      "hit": false,
      "t": 104881.6800000001,
      "d": 135.33437500000582,
      "v": 113
    },
    {
      "midi": 55,
      "hit": false,
      "t": 105117.9,
      "d": 71.35812499999884,
      "v": 65
    },
    {
      "midi": 31,
      "hit": false,
      "t": 105117.90000000001,
      "d": 127.95249999999942,
      "v": 104
    },
    {
      "midi": 62,
      "hit": false,
      "t": 105117.9000000001,
      "d": 147.6374999999971,
      "v": 103
    },
    {
      "midi": 55,
      "hit": false,
      "t": 105354.12,
      "d": 81.20062499999767,
      "v": 62
    },
    {
      "midi": 62,
      "hit": false,
      "t": 105354.1200000001,
      "d": 157.47999999999593,
      "v": 109
    },
    {
      "midi": 55,
      "hit": false,
      "t": 105590.34,
      "d": 73.81875000000582,
      "v": 61
    },
    {
      "midi": 62,
      "hit": false,
      "t": 105590.3400000001,
      "d": 118.11000000000058,
      "v": 106
    },
    {
      "midi": 55,
      "hit": false,
      "t": 105826.56,
      "d": 71.35812499999884,
      "v": 63
    },
    {
      "midi": 31,
      "hit": false,
      "t": 105826.56000000001,
      "d": 511.8099999999977,
      "v": 108
    },
    {
      "midi": 62,
      "hit": false,
      "t": 105826.5600000001,
      "d": 233.75937499999418,
      "v": 107
    },
    {
      "midi": 55,
      "hit": false,
      "t": 106062.78,
      "d": 68.8975000000064,
      "v": 60
    },
    {
      "midi": 60,
      "hit": false,
      "t": 106062.7800000001,
      "d": 233.75937499999418,
      "v": 106
    },
    {
      "midi": 55,
      "hit": false,
      "t": 106299,
      "d": 73.81875000000582,
      "v": 62
    },
    {
      "midi": 64,
      "hit": false,
      "t": 106299.0000000001,
      "d": 233.75937499999418,
      "v": 103
    },
    {
      "midi": 55,
      "hit": false,
      "t": 106535.22,
      "d": 73.81875000000582,
      "v": 61
    },
    {
      "midi": 31,
      "hit": false,
      "t": 106535.22000000002,
      "d": 105.80687499999476,
      "v": 100
    },
    {
      "midi": 62,
      "hit": false,
      "t": 106535.2200000001,
      "d": 469.97937499999534,
      "v": 103
    },
    {
      "midi": 55,
      "hit": false,
      "t": 106771.44,
      "d": 76.27937499999825,
      "v": 61
    },
    {
      "midi": 31,
      "hit": false,
      "t": 106771.44000000002,
      "d": 137.79499999999825,
      "v": 104
    },
    {
      "midi": 43,
      "hit": false,
      "t": 107007.65999999997,
      "d": 236.22000000000116,
      "v": 88
    },
    {
      "midi": 55,
      "hit": false,
      "t": 107007.65999999997,
      "d": 248.52312500000698,
      "v": 96
    },
    {
      "midi": 50,
      "hit": false,
      "t": 107007.65999999997,
      "d": 255.9050000000134,
      "v": 90
    },
    {
      "midi": 55,
      "hit": false,
      "t": 107007.66,
      "d": 73.81875000000582,
      "v": 68
    },
    {
      "midi": 31,
      "hit": false,
      "t": 107007.66000000002,
      "d": 115.6493749999936,
      "v": 97
    },
    {
      "midi": 60,
      "hit": false,
      "t": 107007.6600000001,
      "d": 228.83812499999476,
      "v": 103
    },
    {
      "midi": 55,
      "hit": false,
      "t": 107243.88,
      "d": 68.8975000000064,
      "v": 66
    },
    {
      "midi": 57,
      "hit": false,
      "t": 107243.8800000001,
      "d": 332.1843749999971,
      "v": 91
    },
    {
      "midi": 55,
      "hit": false,
      "t": 107480.09999999999,
      "d": 223.91687499999534,
      "v": 90
    },
    {
      "midi": 43,
      "hit": false,
      "t": 107480.09999999999,
      "d": 238.68062500000815,
      "v": 90
    },
    {
      "midi": 50,
      "hit": false,
      "t": 107480.09999999999,
      "d": 465.0581250000105,
      "v": 83
    },
    {
      "midi": 31,
      "hit": false,
      "t": 107480.1,
      "d": 88.58250000000407,
      "v": 88
    },
    {
      "midi": 55,
      "hit": false,
      "t": 107480.1,
      "d": 71.35812499999884,
      "v": 70
    },
    {
      "midi": 66,
      "hit": false,
      "t": 107716.31999999942,
      "d": 1941.433124999996,
      "v": 63
    },
    {
      "midi": 69,
      "hit": false,
      "t": 107716.31999999942,
      "d": 3838.574999999997,
      "v": 53
    },
    {
      "midi": 54,
      "hit": false,
      "t": 107716.31999999999,
      "d": 226.37750000000233,
      "v": 70
    },
    {
      "midi": 26,
      "hit": false,
      "t": 107716.32,
      "d": 516.7312499999971,
      "v": 109
    },
    {
      "midi": 50,
      "hit": false,
      "t": 107716.32,
      "d": 59.054999999993015,
      "v": 61
    },
    {
      "midi": 50,
      "hit": false,
      "t": 107952.54,
      "d": 71.35812499999884,
      "v": 67
    },
    {
      "midi": 50,
      "hit": false,
      "t": 108188.76,
      "d": 73.81875000000582,
      "v": 66
    },
    {
      "midi": 62,
      "hit": false,
      "t": 108188.7600000001,
      "d": 132.87374999999884,
      "v": 110
    },
    {
      "midi": 50,
      "hit": false,
      "t": 108424.98,
      "d": 66.43687499999942,
      "v": 64
    },
    {
      "midi": 26,
      "hit": false,
      "t": 108424.98000000001,
      "d": 100.88562499999534,
      "v": 97
    },
    {
      "midi": 62,
      "hit": false,
      "t": 108424.9800000001,
      "d": 172.24374999999418,
      "v": 106
    },
    {
      "midi": 50,
      "hit": false,
      "t": 108661.2,
      "d": 66.43687499999942,
      "v": 66
    },
    {
      "midi": 26,
      "hit": false,
      "t": 108661.20000000001,
      "d": 132.87374999999884,
      "v": 99
    },
    {
      "midi": 62,
      "hit": false,
      "t": 108661.2000000001,
      "d": 216.5350000000035,
      "v": 104
    },
    {
      "midi": 50,
      "hit": false,
      "t": 108897.42,
      "d": 68.8975000000064,
      "v": 73
    },
    {
      "midi": 26,
      "hit": false,
      "t": 108897.42000000001,
      "d": 152.5587499999965,
      "v": 100
    },
    {
      "midi": 62,
      "hit": false,
      "t": 108897.4200000001,
      "d": 211.61375000000407,
      "v": 105
    },
    {
      "midi": 50,
      "hit": false,
      "t": 109133.64,
      "d": 100.88562499999534,
      "v": 66
    },
    {
      "midi": 62,
      "hit": false,
      "t": 109133.6400000001,
      "d": 233.75937499999418,
      "v": 107
    },
    {
      "midi": 50,
      "hit": false,
      "t": 109369.86,
      "d": 88.58250000000407,
      "v": 62
    },
    {
      "midi": 64,
      "hit": false,
      "t": 109369.8600000001,
      "d": 233.75937499999418,
      "v": 98
    },
    {
      "midi": 72,
      "hit": false,
      "t": 109606.07999999942,
      "d": 1889.7599999999948,
      "v": 59
    },
    {
      "midi": 65,
      "hit": false,
      "t": 109606.07999999942,
      "d": 1892.2206250000017,
      "v": 53
    },
    {
      "midi": 53,
      "hit": false,
      "t": 109606.08,
      "d": 63.976250000006985,
      "v": 71
    },
    {
      "midi": 29,
      "hit": false,
      "t": 109606.08000000002,
      "d": 519.1918750000041,
      "v": 105
    },
    {
      "midi": 62,
      "hit": false,
      "t": 109606.0800000001,
      "d": 233.75937499999418,
      "v": 107
    },
    {
      "midi": 53,
      "hit": false,
      "t": 109842.3,
      "d": 78.74000000000524,
      "v": 61
    },
    {
      "midi": 60,
      "hit": false,
      "t": 109842.3000000001,
      "d": 233.75937499999418,
      "v": 101
    },
    {
      "midi": 53,
      "hit": false,
      "t": 110078.52,
      "d": 66.43687499999942,
      "v": 61
    },
    {
      "midi": 57,
      "hit": false,
      "t": 110078.5200000001,
      "d": 369.09375,
      "v": 102
    },
    {
      "midi": 53,
      "hit": false,
      "t": 110314.74,
      "d": 81.20062499999767,
      "v": 63
    },
    {
      "midi": 29,
      "hit": false,
      "t": 110314.74000000002,
      "d": 98.42500000000291,
      "v": 103
    },
    {
      "midi": 53,
      "hit": false,
      "t": 110550.96,
      "d": 68.8975000000064,
      "v": 68
    },
    {
      "midi": 29,
      "hit": false,
      "t": 110550.96000000002,
      "d": 132.87374999999884,
      "v": 97
    },
    {
      "midi": 57,
      "hit": false,
      "t": 110550.96000000011,
      "d": 447.83375000000524,
      "v": 108
    },
    {
      "midi": 53,
      "hit": false,
      "t": 110787.18000000001,
      "d": 86.12187499999709,
      "v": 60
    },
    {
      "midi": 29,
      "hit": false,
      "t": 110787.18000000002,
      "d": 127.95249999999942,
      "v": 104
    },
    {
      "midi": 53,
      "hit": false,
      "t": 111023.40000000001,
      "d": 73.81875000000582,
      "v": 69
    },
    {
      "midi": 57,
      "hit": false,
      "t": 111023.40000000011,
      "d": 174.70437500000116,
      "v": 105
    },
    {
      "midi": 53,
      "hit": false,
      "t": 111259.62000000001,
      "d": 86.12187499999709,
      "v": 62
    },
    {
      "midi": 29,
      "hit": false,
      "t": 111259.62000000002,
      "d": 86.12187499999709,
      "v": 88
    },
    {
      "midi": 60,
      "hit": false,
      "t": 111259.62000000011,
      "d": 206.69250000000466,
      "v": 105
    },
    {
      "midi": 64,
      "hit": false,
      "t": 111495.83999999941,
      "d": 3767.216875000013,
      "v": 53
    },
    {
      "midi": 67,
      "hit": false,
      "t": 111495.83999999941,
      "d": 3772.138125000012,
      "v": 47
    },
    {
      "midi": 71,
      "hit": false,
      "t": 111495.83999999941,
      "d": 3772.138125000012,
      "v": 45
    },
    {
      "midi": 52,
      "hit": false,
      "t": 111495.84000000001,
      "d": 78.74000000000524,
      "v": 65
    },
    {
      "midi": 28,
      "hit": false,
      "t": 111495.84000000003,
      "d": 514.2706250000047,
      "v": 109
    },
    {
      "midi": 57,
      "hit": false,
      "t": 111495.84000000011,
      "d": 231.29875000000175,
      "v": 106
    },
    {
      "midi": 52,
      "hit": false,
      "t": 111732.06000000001,
      "d": 78.74000000000524,
      "v": 60
    },
    {
      "midi": 55,
      "hit": false,
      "t": 111732.06000000011,
      "d": 233.75937499999418,
      "v": 96
    },
    {
      "midi": 52,
      "hit": false,
      "t": 111968.28,
      "d": 167.32249999999476,
      "v": 101
    },
    {
      "midi": 47,
      "hit": false,
      "t": 111968.28,
      "d": 206.6924999999901,
      "v": 105
    },
    {
      "midi": 52,
      "hit": false,
      "t": 111968.28000000001,
      "d": 83.66125000000466,
      "v": 67
    },
    {
      "midi": 52,
      "hit": false,
      "t": 111968.28000000012,
      "d": 435.5306249999994,
      "v": 87
    },
    {
      "midi": 52,
      "hit": false,
      "t": 112204.50000000001,
      "d": 86.12187499999709,
      "v": 68
    },
    {
      "midi": 28,
      "hit": false,
      "t": 112204.50000000003,
      "d": 105.80687499999476,
      "v": 99
    },
    {
      "midi": 45,
      "hit": false,
      "t": 112440.71999999999,
      "d": 231.29875000000175,
      "v": 95
    },
    {
      "midi": 50,
      "hit": false,
      "t": 112440.71999999999,
      "d": 253.4443750000064,
      "v": 93
    },
    {
      "midi": 52,
      "hit": false,
      "t": 112440.72000000002,
      "d": 78.74000000000524,
      "v": 63
    },
    {
      "midi": 26,
      "hit": false,
      "t": 112440.72000000003,
      "d": 196.85000000000582,
      "v": 96
    },
    {
      "midi": 52,
      "hit": false,
      "t": 112440.72000000012,
      "d": 681.5931249999994,
      "v": 81
    },
    {
      "midi": 52,
      "hit": false,
      "t": 112676.93999999999,
      "d": 484.74312500000815,
      "v": 95
    },
    {
      "midi": 47,
      "hit": false,
      "t": 112676.93999999999,
      "d": 492.12500000001455,
      "v": 103
    },
    {
      "midi": 52,
      "hit": false,
      "t": 112676.94000000002,
      "d": 91.04312499999651,
      "v": 65
    },
    {
      "midi": 28,
      "hit": false,
      "t": 112676.94000000003,
      "d": 137.79499999999825,
      "v": 106
    },
    {
      "midi": 52,
      "hit": false,
      "t": 112913.16000000002,
      "d": 73.81875000000582,
      "v": 64
    },
    {
      "midi": 52,
      "hit": false,
      "t": 113149.38000000002,
      "d": 95.96437499999593,
      "v": 62
    },
    {
      "midi": 52,
      "hit": false,
      "t": 113385.60000000002,
      "d": 78.74000000000524,
      "v": 66
    },
    {
      "midi": 28,
      "hit": false,
      "t": 113385.60000000003,
      "d": 472.4400000000023,
      "v": 107
    },
    {
      "midi": 52,
      "hit": false,
      "t": 113621.82000000002,
      "d": 95.96437499999593,
      "v": 64
    },
    {
      "midi": 52,
      "hit": false,
      "t": 113858.04000000001,
      "d": 169.78312500000175,
      "v": 99
    },
    {
      "midi": 47,
      "hit": false,
      "t": 113858.04000000001,
      "d": 191.9287500000064,
      "v": 100
    },
    {
      "midi": 52,
      "hit": false,
      "t": 113858.04000000002,
      "d": 73.81875000000582,
      "v": 64
    },
    {
      "midi": 52,
      "hit": false,
      "t": 114094.26000000002,
      "d": 93.50375000000349,
      "v": 71
    },
    {
      "midi": 28,
      "hit": false,
      "t": 114094.26000000004,
      "d": 199.31062499999825,
      "v": 105
    },
    {
      "midi": 50,
      "hit": false,
      "t": 114330.47999999998,
      "d": 265.7474999999977,
      "v": 98
    },
    {
      "midi": 50,
      "hit": false,
      "t": 114330.48000000001,
      "d": 246.0625,
      "v": 95
    },
    {
      "midi": 45,
      "hit": false,
      "t": 114330.48000000001,
      "d": 250.98374999999942,
      "v": 95
    },
    {
      "midi": 52,
      "hit": false,
      "t": 114330.48000000003,
      "d": 78.74000000000524,
      "v": 66
    },
    {
      "midi": 26,
      "hit": false,
      "t": 114330.48000000004,
      "d": 209.1531249999971,
      "v": 105
    },
    {
      "midi": 52,
      "hit": false,
      "t": 114566.69999999998,
      "d": 194.38937499999884,
      "v": 91
    },
    {
      "midi": 52,
      "hit": false,
      "t": 114566.70000000001,
      "d": 472.4400000000023,
      "v": 89
    },
    {
      "midi": 47,
      "hit": false,
      "t": 114566.70000000001,
      "d": 492.125,
      "v": 97
    },
    {
      "midi": 52,
      "hit": false,
      "t": 114566.70000000003,
      "d": 95.96437499999593,
      "v": 68
    },
    {
      "midi": 28,
      "hit": false,
      "t": 114566.70000000004,
      "d": 226.37750000000233,
      "v": 100
    },
    {
      "midi": 55,
      "hit": false,
      "t": 114802.91999999998,
      "d": 236.22000000000116,
      "v": 91
    },
    {
      "midi": 52,
      "hit": false,
      "t": 114802.92000000003,
      "d": 78.74000000000524,
      "v": 70
    },
    {
      "midi": 31,
      "hit": false,
      "t": 114802.92000000004,
      "d": 233.75937499999418,
      "v": 100
    },
    {
      "midi": 52,
      "hit": false,
      "t": 115039.13999999998,
      "d": 223.91687499999534,
      "v": 96
    },
    {
      "midi": 52,
      "hit": false,
      "t": 115039.14000000003,
      "d": 98.42500000000291,
      "v": 71
    },
    {
      "midi": 28,
      "hit": false,
      "t": 115039.14000000004,
      "d": 206.69250000000466,
      "v": 96
    },
    {
      "midi": 64,
      "hit": false,
      "t": 115275.35999999943,
      "d": 1914.3662499999919,
      "v": 87
    },
    {
      "midi": 60,
      "hit": false,
      "t": 115275.35999999943,
      "d": 1926.6693749999977,
      "v": 79
    },
    {
      "midi": 57,
      "hit": false,
      "t": 115275.35999999943,
      "d": 3796.7443750000093,
      "v": 84
    },
    {
      "midi": 45,
      "hit": false,
      "t": 115275.35999999999,
      "d": 1874.9962499999965,
      "v": 102
    },
    {
      "midi": 57,
      "hit": false,
      "t": 115275.35999999999,
      "d": 3809.0475000000006,
      "v": 102
    },
    {
      "midi": 33,
      "hit": false,
      "t": 115275.36000000004,
      "d": 531.4949999999953,
      "v": 103
    },
    {
      "midi": 60,
      "hit": false,
      "t": 115511.57999999997,
      "d": 108.26750000000175,
      "v": 109
    },
    {
      "midi": 64,
      "hit": false,
      "t": 115511.57999999997,
      "d": 130.4131250000064,
      "v": 96
    },
    {
      "midi": 57,
      "hit": false,
      "t": 115511.57999999997,
      "d": 137.7950000000128,
      "v": 100
    },
    {
      "midi": 64,
      "hit": false,
      "t": 115511.58000000012,
      "d": 118.11000000000058,
      "v": 112
    },
    {
      "midi": 60,
      "hit": false,
      "t": 115747.79999999999,
      "d": 88.58250000000407,
      "v": 100
    },
    {
      "midi": 57,
      "hit": false,
      "t": 115747.79999999999,
      "d": 100.8856250000099,
      "v": 101
    },
    {
      "midi": 64,
      "hit": false,
      "t": 115747.79999999999,
      "d": 120.57062500000757,
      "v": 96
    },
    {
      "midi": 64,
      "hit": false,
      "t": 115747.80000000012,
      "d": 130.4131250000064,
      "v": 108
    },
    {
      "midi": 60,
      "hit": false,
      "t": 115984.01999999999,
      "d": 88.58250000000407,
      "v": 100
    },
    {
      "midi": 57,
      "hit": false,
      "t": 115984.01999999999,
      "d": 98.42500000000291,
      "v": 99
    },
    {
      "midi": 64,
      "hit": false,
      "t": 115984.01999999999,
      "d": 110.72812500000873,
      "v": 100
    },
    {
      "midi": 33,
      "hit": false,
      "t": 115984.02000000003,
      "d": 100.88562499999534,
      "v": 101
    },
    {
      "midi": 64,
      "hit": false,
      "t": 115984.02000000012,
      "d": 103.34625000000233,
      "v": 104
    },
    {
      "midi": 60,
      "hit": false,
      "t": 116220.24,
      "d": 369.09375,
      "v": 108
    },
    {
      "midi": 57,
      "hit": false,
      "t": 116220.24,
      "d": 374.0149999999994,
      "v": 100
    },
    {
      "midi": 64,
      "hit": false,
      "t": 116220.24,
      "d": 376.4756250000064,
      "v": 105
    },
    {
      "midi": 33,
      "hit": false,
      "t": 116220.24000000003,
      "d": 125.49187500000698,
      "v": 111
    },
    {
      "midi": 64,
      "hit": false,
      "t": 116220.24000000012,
      "d": 364.1725000000006,
      "v": 113
    },
    {
      "midi": 33,
      "hit": false,
      "t": 116456.46000000004,
      "d": 376.4756250000064,
      "v": 107
    },
    {
      "midi": 60,
      "hit": false,
      "t": 116692.68000000001,
      "d": 120.57062499999302,
      "v": 104
    },
    {
      "midi": 57,
      "hit": false,
      "t": 116692.68000000001,
      "d": 125.49187499999243,
      "v": 104
    },
    {
      "midi": 64,
      "hit": false,
      "t": 116692.68000000001,
      "d": 132.87374999999884,
      "v": 95
    },
    {
      "midi": 64,
      "hit": false,
      "t": 116692.68000000012,
      "d": 130.4131250000064,
      "v": 106
    },
    {
      "midi": 57,
      "hit": false,
      "t": 116928.90000000001,
      "d": 110.72812499999418,
      "v": 99
    },
    {
      "midi": 60,
      "hit": false,
      "t": 116928.90000000001,
      "d": 115.6493749999936,
      "v": 100
    },
    {
      "midi": 64,
      "hit": false,
      "t": 116928.90000000001,
      "d": 125.49187499999243,
      "v": 97
    },
    {
      "midi": 33,
      "hit": false,
      "t": 116928.90000000004,
      "d": 137.79499999999825,
      "v": 106
    },
    {
      "midi": 64,
      "hit": false,
      "t": 116928.90000000013,
      "d": 142.71624999999767,
      "v": 102
    },
    {
      "midi": 62,
      "hit": false,
      "t": 117165.11999999943,
      "d": 1911.905625000014,
      "v": 79
    },
    {
      "midi": 65,
      "hit": false,
      "t": 117165.11999999943,
      "d": 1929.1300000000192,
      "v": 79
    },
    {
      "midi": 50,
      "hit": false,
      "t": 117165.11999999998,
      "d": 1916.8268749999988,
      "v": 92
    },
    {
      "midi": 57,
      "hit": false,
      "t": 117165.12,
      "d": 123.03125,
      "v": 102
    },
    {
      "midi": 60,
      "hit": false,
      "t": 117165.12,
      "d": 140.25562500000524,
      "v": 97
    },
    {
      "midi": 64,
      "hit": false,
      "t": 117165.12,
      "d": 142.71625000001222,
      "v": 96
    },
    {
      "midi": 26,
      "hit": false,
      "t": 117165.12000000004,
      "d": 521.6524999999965,
      "v": 104
    },
    {
      "midi": 64,
      "hit": false,
      "t": 117165.12000000013,
      "d": 147.6374999999971,
      "v": 108
    },
    {
      "midi": 62,
      "hit": false,
      "t": 117401.34000000001,
      "d": 115.6493749999936,
      "v": 100
    },
    {
      "midi": 57,
      "hit": false,
      "t": 117401.34000000001,
      "d": 118.11000000000058,
      "v": 96
    },
    {
      "midi": 65,
      "hit": false,
      "t": 117401.34000000001,
      "d": 120.57062500000757,
      "v": 100
    },
    {
      "midi": 65,
      "hit": false,
      "t": 117401.34000000013,
      "d": 169.78312500000175,
      "v": 113
    },
    {
      "midi": 65,
      "hit": false,
      "t": 117637.56000000001,
      "d": 361.7118749999936,
      "v": 100
    },
    {
      "midi": 57,
      "hit": false,
      "t": 117637.56000000001,
      "d": 364.1725000000006,
      "v": 103
    },
    {
      "midi": 62,
      "hit": false,
      "t": 117637.56000000001,
      "d": 374.0149999999994,
      "v": 102
    },
    {
      "midi": 65,
      "hit": false,
      "t": 117637.56000000013,
      "d": 374.0149999999994,
      "v": 107
    },
    {
      "midi": 26,
      "hit": false,
      "t": 117873.78000000004,
      "d": 100.88562499999534,
      "v": 99
    },
    {
      "midi": 62,
      "hit": false,
      "t": 118110.00000000001,
      "d": 322.34187499999825,
      "v": 102
    },
    {
      "midi": 65,
      "hit": false,
      "t": 118110.00000000001,
      "d": 361.71187500000815,
      "v": 100
    },
    {
      "midi": 57,
      "hit": false,
      "t": 118110.00000000001,
      "d": 371.554375000007,
      "v": 96
    },
    {
      "midi": 26,
      "hit": false,
      "t": 118110.00000000004,
      "d": 118.11000000000058,
      "v": 97
    },
    {
      "midi": 65,
      "hit": false,
      "t": 118110.00000000013,
      "d": 351.86937499999476,
      "v": 103
    },
    {
      "midi": 26,
      "hit": false,
      "t": 118346.22000000004,
      "d": 364.1725000000006,
      "v": 103
    },
    {
      "midi": 60,
      "hit": false,
      "t": 118464.33000000002,
      "d": 135.33437500000582,
      "v": 85
    },
    {
      "midi": 64,
      "hit": false,
      "t": 118464.33000000002,
      "d": 142.71625000001222,
      "v": 87
    },
    {
      "midi": 64,
      "hit": false,
      "t": 118464.33000000013,
      "d": 115.6493749999936,
      "v": 84
    },
    {
      "midi": 62,
      "hit": false,
      "t": 118582.44000000002,
      "d": 297.7356250000157,
      "v": 86
    },
    {
      "midi": 62,
      "hit": false,
      "t": 118582.44000000013,
      "d": 258.3656250000058,
      "v": 85
    },
    {
      "midi": 26,
      "hit": false,
      "t": 118818.66000000005,
      "d": 147.6374999999971,
      "v": 94
    },
    {
      "midi": 59,
      "hit": false,
      "t": 119054.87999999944,
      "d": 1887.2993750000169,
      "v": 84
    },
    {
      "midi": 56,
      "hit": false,
      "t": 119054.87999999944,
      "d": 1899.6025000000227,
      "v": 86
    },
    {
      "midi": 64,
      "hit": false,
      "t": 119054.87999999944,
      "d": 1919.2875000000204,
      "v": 84
    },
    {
      "midi": 52,
      "hit": false,
      "t": 119054.87999999998,
      "d": 1833.1656250000087,
      "v": 96
    },
    {
      "midi": 59,
      "hit": false,
      "t": 119054.87999999998,
      "d": 1904.5237500000076,
      "v": 104
    },
    {
      "midi": 28,
      "hit": false,
      "t": 119054.88000000005,
      "d": 533.9556250000023,
      "v": 109
    },
    {
      "midi": 59,
      "hit": false,
      "t": 119291.10000000003,
      "d": 81.20062499999767,
      "v": 100
    },
    {
      "midi": 64,
      "hit": false,
      "t": 119291.10000000003,
      "d": 115.6493749999936,
      "v": 98
    },
    {
      "midi": 56,
      "hit": false,
      "t": 119291.10000000003,
      "d": 120.57062499999302,
      "v": 98
    },
    {
      "midi": 64,
      "hit": false,
      "t": 119291.10000000014,
      "d": 110.72812499999418,
      "v": 114
    },
    {
      "midi": 59,
      "hit": false,
      "t": 119527.32000000002,
      "d": 93.50375000000349,
      "v": 90
    },
    {
      "midi": 56,
      "hit": false,
      "t": 119527.32000000002,
      "d": 110.72812500000873,
      "v": 96
    },
    {
      "midi": 64,
      "hit": false,
      "t": 119527.32000000002,
      "d": 118.11000000001513,
      "v": 99
    },
    {
      "midi": 64,
      "hit": false,
      "t": 119527.32000000014,
      "d": 137.79499999999825,
      "v": 112
    },
    {
      "midi": 59,
      "hit": false,
      "t": 119763.54000000004,
      "d": 86.12187499999709,
      "v": 96
    },
    {
      "midi": 56,
      "hit": false,
      "t": 119763.54000000004,
      "d": 98.42500000000291,
      "v": 99
    },
    {
      "midi": 64,
      "hit": false,
      "t": 119763.54000000004,
      "d": 103.34625000000233,
      "v": 100
    },
    {
      "midi": 28,
      "hit": false,
      "t": 119763.54000000005,
      "d": 93.50375000000349,
      "v": 106
    },
    {
      "midi": 64,
      "hit": false,
      "t": 119763.54000000014,
      "d": 127.95249999999942,
      "v": 104
    },
    {
      "midi": 59,
      "hit": false,
      "t": 119999.76000000004,
      "d": 71.35812499999884,
      "v": 94
    },
    {
      "midi": 56,
      "hit": false,
      "t": 119999.76000000004,
      "d": 81.20062499999767,
      "v": 103
    },
    {
      "midi": 64,
      "hit": false,
      "t": 119999.76000000004,
      "d": 98.42500000000291,
      "v": 106
    },
    {
      "midi": 28,
      "hit": false,
      "t": 119999.76000000005,
      "d": 113.18875000000116,
      "v": 99
    },
    {
      "midi": 64,
      "hit": false,
      "t": 119999.76000000014,
      "d": 150.09812500000407,
      "v": 109
    },
    {
      "midi": 59,
      "hit": false,
      "t": 120235.98000000004,
      "d": 314.9600000000064,
      "v": 90
    },
    {
      "midi": 64,
      "hit": false,
      "t": 120235.98000000004,
      "d": 344.4875000000029,
      "v": 105
    },
    {
      "midi": 56,
      "hit": false,
      "t": 120235.98000000004,
      "d": 346.9481250000099,
      "v": 97
    },
    {
      "midi": 28,
      "hit": false,
      "t": 120235.98000000005,
      "d": 359.25125000000116,
      "v": 99
    },
    {
      "midi": 64,
      "hit": false,
      "t": 120235.98000000014,
      "d": 661.9081250000017,
      "v": 107
    },
    {
      "midi": 28,
      "hit": false,
      "t": 120708.42000000006,
      "d": 125.49187500000698,
      "v": 94
    },
    {
      "midi": 59,
      "hit": false,
      "t": 120708.42000000006,
      "d": 118.11000000000058,
      "v": 97
    },
    {
      "midi": 64,
      "hit": false,
      "t": 120708.42000000006,
      "d": 137.79499999999825,
      "v": 94
    },
    {
      "midi": 56,
      "hit": false,
      "t": 120708.42000000006,
      "d": 174.70437500000116,
      "v": 103
    },
    {
      "midi": 57,
      "hit": false,
      "t": 120944.63999999946,
      "d": 1712.5949999999866,
      "v": 78
    },
    {
      "midi": 66,
      "hit": false,
      "t": 120944.63999999946,
      "d": 1732.2799999999843,
      "v": 83
    },
    {
      "midi": 57,
      "hit": false,
      "t": 120944.63999999998,
      "d": 1680.6068749999977,
      "v": 101
    },
    {
      "midi": 50,
      "hit": false,
      "t": 120944.63999999998,
      "d": 5659.4375,
      "v": 100
    },
    {
      "midi": 26,
      "hit": false,
      "t": 120944.64000000006,
      "d": 511.8099999999977,
      "v": 104
    },
    {
      "midi": 62,
      "hit": false,
      "t": 120944.64000000006,
      "d": 1363.1862499999988,
      "v": 98
    },
    {
      "midi": 57,
      "hit": false,
      "t": 120944.64000000006,
      "d": 1368.1074999999983,
      "v": 100
    },
    {
      "midi": 66,
      "hit": false,
      "t": 120944.64000000006,
      "d": 1422.2412499999919,
      "v": 106
    },
    {
      "midi": 66,
      "hit": false,
      "t": 120944.64000000014,
      "d": 1397.6349999999948,
      "v": 116
    },
    {
      "midi": 26,
      "hit": false,
      "t": 121653.30000000006,
      "d": 108.26750000000175,
      "v": 102
    },
    {
      "midi": 26,
      "hit": false,
      "t": 121889.52000000006,
      "d": 824.3093749999971,
      "v": 111
    },
    {
      "midi": 57,
      "hit": false,
      "t": 122361.96000000005,
      "d": 145.17687500000466,
      "v": 96
    },
    {
      "midi": 62,
      "hit": false,
      "t": 122361.96000000005,
      "d": 159.9406250000029,
      "v": 100
    },
    {
      "midi": 62,
      "hit": false,
      "t": 122361.96000000014,
      "d": 233.75937499999418,
      "v": 115
    },
    {
      "midi": 59,
      "hit": false,
      "t": 122598.17999999945,
      "d": 3986.212499999994,
      "v": 87
    },
    {
      "midi": 67,
      "hit": false,
      "t": 122598.17999999945,
      "d": 4003.4368749999994,
      "v": 87
    },
    {
      "midi": 59,
      "hit": false,
      "t": 122598.17999999998,
      "d": 4003.4368749999994,
      "v": 100
    },
    {
      "midi": 62,
      "hit": false,
      "t": 122598.18000000005,
      "d": 2738.675624999989,
      "v": 103
    },
    {
      "midi": 67,
      "hit": false,
      "t": 122598.18000000005,
      "d": 2787.888124999983,
      "v": 99
    },
    {
      "midi": 59,
      "hit": false,
      "t": 122598.18000000005,
      "d": 3870.5631249999715,
      "v": 97
    },
    {
      "midi": 67,
      "hit": false,
      "t": 122598.18000000014,
      "d": 2706.6875,
      "v": 110
    },
    {
      "midi": 26,
      "hit": false,
      "t": 122834.40000000005,
      "d": 501.96749999999884,
      "v": 111
    },
    {
      "midi": 26,
      "hit": false,
      "t": 123543.06000000006,
      "d": 98.42500000000291,
      "v": 108
    },
    {
      "midi": 26,
      "hit": false,
      "t": 123779.28000000006,
      "d": 787.3999999999942,
      "v": 109
    },
    {
      "midi": 71,
      "hit": false,
      "t": 124487.94000000005,
      "d": 868.6006249999919,
      "v": 102
    },
    {
      "midi": 26,
      "hit": false,
      "t": 124724.16000000005,
      "d": 509.34937500000524,
      "v": 113
    },
    {
      "midi": 62,
      "hit": false,
      "t": 125432.82000000004,
      "d": 388.7787499999977,
      "v": 104
    },
    {
      "midi": 26,
      "hit": false,
      "t": 125432.82000000005,
      "d": 118.11000000000058,
      "v": 109
    },
    {
      "midi": 62,
      "hit": false,
      "t": 125432.82000000014,
      "d": 140.25562500000524,
      "v": 108
    },
    {
      "midi": 71,
      "hit": false,
      "t": 125669.04000000004,
      "d": 159.9406250000029,
      "v": 96
    },
    {
      "midi": 67,
      "hit": false,
      "t": 125669.04000000004,
      "d": 184.546875,
      "v": 103
    },
    {
      "midi": 26,
      "hit": false,
      "t": 125669.04000000005,
      "d": 804.6243749999994,
      "v": 107
    },
    {
      "midi": 67,
      "hit": false,
      "t": 125669.04000000014,
      "d": 167.32249999999476,
      "v": 113
    },
    {
      "midi": 71,
      "hit": false,
      "t": 125905.26000000004,
      "d": 162.40124999999534,
      "v": 92
    },
    {
      "midi": 67,
      "hit": false,
      "t": 125905.26000000004,
      "d": 182.08624999999302,
      "v": 91
    },
    {
      "midi": 67,
      "hit": false,
      "t": 125905.26000000014,
      "d": 179.62562500000058,
      "v": 109
    },
    {
      "midi": 67,
      "hit": false,
      "t": 126141.48000000003,
      "d": 137.79499999999825,
      "v": 104
    },
    {
      "midi": 71,
      "hit": false,
      "t": 126141.48000000003,
      "d": 140.25562500000524,
      "v": 88
    },
    {
      "midi": 67,
      "hit": false,
      "t": 126141.48000000014,
      "d": 216.5350000000035,
      "v": 111
    },
    {
      "midi": 66,
      "hit": false,
      "t": 126377.70000000003,
      "d": 118.11000000000058,
      "v": 101
    },
    {
      "midi": 69,
      "hit": false,
      "t": 126377.70000000003,
      "d": 167.32249999999476,
      "v": 94
    },
    {
      "midi": 66,
      "hit": false,
      "t": 126377.70000000014,
      "d": 115.6493749999936,
      "v": 109
    },
    {
      "midi": 64,
      "hit": false,
      "t": 126495.81000000003,
      "d": 127.95249999999942,
      "v": 97
    },
    {
      "midi": 67,
      "hit": false,
      "t": 126495.81000000003,
      "d": 132.87374999999884,
      "v": 95
    },
    {
      "midi": 64,
      "hit": false,
      "t": 126495.81000000014,
      "d": 115.6493749999936,
      "v": 109
    },
    {
      "midi": 62,
      "hit": false,
      "t": 126613.91999999946,
      "d": 29.527499999996508,
      "v": 78
    },
    {
      "midi": 57,
      "hit": false,
      "t": 126613.91999999946,
      "d": 1909.4449999999924,
      "v": 81
    },
    {
      "midi": 66,
      "hit": false,
      "t": 126613.91999999946,
      "d": 1919.2874999999913,
      "v": 78
    },
    {
      "midi": 57,
      "hit": false,
      "t": 126613.91999999998,
      "d": 1934.0512499999895,
      "v": 95
    },
    {
      "midi": 50,
      "hit": false,
      "t": 126613.91999999998,
      "d": 9404.508749999979,
      "v": 94
    },
    {
      "midi": 57,
      "hit": false,
      "t": 126613.92000000003,
      "d": 912.8918750000012,
      "v": 88
    },
    {
      "midi": 62,
      "hit": false,
      "t": 126613.92000000003,
      "d": 915.3525000000081,
      "v": 98
    },
    {
      "midi": 66,
      "hit": false,
      "t": 126613.92000000003,
      "d": 915.3525000000081,
      "v": 105
    },
    {
      "midi": 26,
      "hit": false,
      "t": 126613.92000000006,
      "d": 501.96749999999884,
      "v": 106
    },
    {
      "midi": 62,
      "hit": false,
      "t": 126613.92000000014,
      "d": 1360.7256250000064,
      "v": 100
    },
    {
      "midi": 69,
      "hit": false,
      "t": 127086.35999999999,
      "d": 113.18875000000116,
      "v": 87
    },
    {
      "midi": 67,
      "hit": false,
      "t": 127322.57999999999,
      "d": 105.80687499999476,
      "v": 80
    },
    {
      "midi": 26,
      "hit": false,
      "t": 127322.58000000006,
      "d": 98.42500000000291,
      "v": 105
    },
    {
      "midi": 69,
      "hit": false,
      "t": 127558.79999999999,
      "d": 108.26750000000175,
      "v": 84
    },
    {
      "midi": 26,
      "hit": false,
      "t": 127558.80000000006,
      "d": 765.2543750000041,
      "v": 106
    },
    {
      "midi": 74,
      "hit": false,
      "t": 127795.01999999999,
      "d": 113.18875000000116,
      "v": 85
    },
    {
      "midi": 66,
      "hit": false,
      "t": 128031.24000000003,
      "d": 228.83812499999476,
      "v": 104
    },
    {
      "midi": 69,
      "hit": false,
      "t": 128031.24000000003,
      "d": 302.6568750000006,
      "v": 98
    },
    {
      "midi": 66,
      "hit": false,
      "t": 128031.24000000015,
      "d": 233.75937499999418,
      "v": 121
    },
    {
      "midi": 64,
      "hit": false,
      "t": 128267.46000000004,
      "d": 433.06999999999243,
      "v": 94
    },
    {
      "midi": 67,
      "hit": false,
      "t": 128267.46000000004,
      "d": 445.37312499999825,
      "v": 97
    },
    {
      "midi": 64,
      "hit": false,
      "t": 128267.46000000015,
      "d": 469.97937499999534,
      "v": 113
    },
    {
      "midi": 59,
      "hit": false,
      "t": 128503.67999999945,
      "d": 1862.6931249999907,
      "v": 85
    },
    {
      "midi": 67,
      "hit": false,
      "t": 128503.67999999945,
      "d": 1884.8387499999953,
      "v": 86
    },
    {
      "midi": 59,
      "hit": false,
      "t": 128503.67999999998,
      "d": 1865.1537499999977,
      "v": 95
    },
    {
      "midi": 26,
      "hit": false,
      "t": 128503.68000000007,
      "d": 487.2037500000006,
      "v": 106
    },
    {
      "midi": 62,
      "hit": false,
      "t": 128739.90000000004,
      "d": 167.32249999999476,
      "v": 82
    },
    {
      "midi": 66,
      "hit": false,
      "t": 128739.90000000004,
      "d": 167.32249999999476,
      "v": 85
    },
    {
      "midi": 62,
      "hit": false,
      "t": 128739.90000000015,
      "d": 157.47999999999593,
      "v": 83
    },
    {
      "midi": 69,
      "hit": false,
      "t": 128976.12,
      "d": 95.96437499999593,
      "v": 80
    },
    {
      "midi": 67,
      "hit": false,
      "t": 129212.34,
      "d": 118.11000000000058,
      "v": 74
    },
    {
      "midi": 26,
      "hit": false,
      "t": 129212.34000000007,
      "d": 103.34625000000233,
      "v": 97
    },
    {
      "midi": 62,
      "hit": false,
      "t": 129212.34000000016,
      "d": 127.95249999999942,
      "v": 115
    },
    {
      "midi": 69,
      "hit": false,
      "t": 129448.56,
      "d": 147.6374999999971,
      "v": 86
    },
    {
      "midi": 71,
      "hit": false,
      "t": 129448.56000000003,
      "d": 169.78312500000175,
      "v": 97
    },
    {
      "midi": 67,
      "hit": false,
      "t": 129448.56000000003,
      "d": 172.24375000000873,
      "v": 109
    },
    {
      "midi": 26,
      "hit": false,
      "t": 129448.56000000007,
      "d": 745.5693750000064,
      "v": 96
    },
    {
      "midi": 67,
      "hit": false,
      "t": 129448.56000000016,
      "d": 140.25562500000524,
      "v": 107
    },
    {
      "midi": 67,
      "hit": false,
      "t": 129684.78000000004,
      "d": 123.03125,
      "v": 104
    },
    {
      "midi": 71,
      "hit": false,
      "t": 129684.78000000004,
      "d": 147.6374999999971,
      "v": 99
    },
    {
      "midi": 67,
      "hit": false,
      "t": 129684.78000000016,
      "d": 162.40124999999534,
      "v": 105
    },
    {
      "midi": 67,
      "hit": false,
      "t": 129921.00000000004,
      "d": 187.00750000000698,
      "v": 96
    },
    {
      "midi": 71,
      "hit": false,
      "t": 129921.00000000004,
      "d": 211.61375000000407,
      "v": 93
    },
    {
      "midi": 67,
      "hit": false,
      "t": 129921.00000000016,
      "d": 233.75937499999418,
      "v": 110
    },
    {
      "midi": 79,
      "hit": false,
      "t": 130157.22,
      "d": 199.31062499999825,
      "v": 77
    },
    {
      "midi": 66,
      "hit": false,
      "t": 130157.22000000004,
      "d": 118.11000000000058,
      "v": 100
    },
    {
      "midi": 69,
      "hit": false,
      "t": 130157.22000000004,
      "d": 137.79499999999825,
      "v": 94
    },
    {
      "midi": 66,
      "hit": false,
      "t": 130157.22000000016,
      "d": 115.6493749999936,
      "v": 101
    },
    {
      "midi": 67,
      "hit": false,
      "t": 130275.33000000005,
      "d": 127.95249999999942,
      "v": 89
    },
    {
      "midi": 64,
      "hit": false,
      "t": 130275.33000000005,
      "d": 137.79499999999825,
      "v": 86
    },
    {
      "midi": 64,
      "hit": false,
      "t": 130275.33000000016,
      "d": 115.6493749999936,
      "v": 108
    },
    {
      "midi": 57,
      "hit": false,
      "t": 130393.43999999945,
      "d": 1860.2325000000128,
      "v": 84
    },
    {
      "midi": 66,
      "hit": false,
      "t": 130393.43999999945,
      "d": 1882.3781250000175,
      "v": 79
    },
    {
      "midi": 57,
      "hit": false,
      "t": 130393.43999999997,
      "d": 1852.8506249999919,
      "v": 93
    },
    {
      "midi": 78,
      "hit": false,
      "t": 130393.44,
      "d": 172.24374999999418,
      "v": 88
    },
    {
      "midi": 62,
      "hit": false,
      "t": 130393.44000000005,
      "d": 1232.7731249999924,
      "v": 93
    },
    {
      "midi": 66,
      "hit": false,
      "t": 130393.44000000005,
      "d": 1259.839999999982,
      "v": 105
    },
    {
      "midi": 26,
      "hit": false,
      "t": 130393.44000000008,
      "d": 509.34937500000524,
      "v": 109
    },
    {
      "midi": 62,
      "hit": false,
      "t": 130393.44000000016,
      "d": 1353.3437499999854,
      "v": 106
    },
    {
      "midi": 69,
      "hit": false,
      "t": 130865.87999999999,
      "d": 110.72812499999418,
      "v": 87
    },
    {
      "midi": 67,
      "hit": false,
      "t": 131102.09999999998,
      "d": 127.95250000001397,
      "v": 78
    },
    {
      "midi": 26,
      "hit": false,
      "t": 131102.1000000001,
      "d": 100.88562499999534,
      "v": 98
    },
    {
      "midi": 69,
      "hit": false,
      "t": 131338.31999999998,
      "d": 130.41312499999185,
      "v": 78
    },
    {
      "midi": 26,
      "hit": false,
      "t": 131338.3200000001,
      "d": 730.8056250000081,
      "v": 103
    },
    {
      "midi": 74,
      "hit": false,
      "t": 131574.53999999998,
      "d": 140.2556249999907,
      "v": 84
    },
    {
      "midi": 66,
      "hit": false,
      "t": 131810.76000000004,
      "d": 177.16500000000815,
      "v": 96
    },
    {
      "midi": 69,
      "hit": false,
      "t": 131810.76000000004,
      "d": 187.00750000000698,
      "v": 104
    },
    {
      "midi": 66,
      "hit": false,
      "t": 131810.76000000015,
      "d": 206.69250000000466,
      "v": 111
    },
    {
      "midi": 64,
      "hit": false,
      "t": 132046.98000000004,
      "d": 455.21562500001164,
      "v": 99
    },
    {
      "midi": 67,
      "hit": false,
      "t": 132046.98000000004,
      "d": 477.3612500000163,
      "v": 100
    },
    {
      "midi": 64,
      "hit": false,
      "t": 132046.98000000016,
      "d": 469.97937499999534,
      "v": 106
    },
    {
      "midi": 59,
      "hit": false,
      "t": 132283.19999999946,
      "d": 1867.6143750000047,
      "v": 87
    },
    {
      "midi": 67,
      "hit": false,
      "t": 132283.19999999946,
      "d": 1914.366250000021,
      "v": 79
    },
    {
      "midi": 59,
      "hit": false,
      "t": 132283.19999999995,
      "d": 1899.6025000000081,
      "v": 89
    },
    {
      "midi": 26,
      "hit": false,
      "t": 132283.2000000001,
      "d": 511.8099999999977,
      "v": 96
    },
    {
      "midi": 66,
      "hit": false,
      "t": 132519.42000000004,
      "d": 150.09812500001863,
      "v": 94
    },
    {
      "midi": 62,
      "hit": false,
      "t": 132519.42000000004,
      "d": 169.7831250000163,
      "v": 87
    },
    {
      "midi": 62,
      "hit": false,
      "t": 132519.42000000016,
      "d": 159.94062499998836,
      "v": 104
    },
    {
      "midi": 69,
      "hit": false,
      "t": 132755.63999999996,
      "d": 103.34625000000233,
      "v": 81
    },
    {
      "midi": 67,
      "hit": false,
      "t": 132991.85999999996,
      "d": 118.10999999998603,
      "v": 83
    },
    {
      "midi": 66,
      "hit": false,
      "t": 132991.86000000004,
      "d": 105.80687500000931,
      "v": 100
    },
    {
      "midi": 62,
      "hit": false,
      "t": 132991.86000000004,
      "d": 147.63750000001164,
      "v": 96
    },
    {
      "midi": 26,
      "hit": false,
      "t": 132991.8600000001,
      "d": 105.80687500000931,
      "v": 97
    },
    {
      "midi": 62,
      "hit": false,
      "t": 132991.86000000016,
      "d": 140.2556249999907,
      "v": 112
    },
    {
      "midi": 69,
      "hit": false,
      "t": 133228.07999999993,
      "d": 118.10999999998603,
      "v": 82
    },
    {
      "midi": 67,
      "hit": false,
      "t": 133228.08000000005,
      "d": 108.2674999999872,
      "v": 96
    },
    {
      "midi": 71,
      "hit": false,
      "t": 133228.08000000005,
      "d": 115.64937499997905,
      "v": 103
    },
    {
      "midi": 26,
      "hit": false,
      "t": 133228.0800000001,
      "d": 728.3450000000012,
      "v": 100
    },
    {
      "midi": 67,
      "hit": false,
      "t": 133228.08000000016,
      "d": 142.71624999999767,
      "v": 108
    },
    {
      "midi": 74,
      "hit": false,
      "t": 133464.2999999999,
      "d": 120.57062499999302,
      "v": 86
    },
    {
      "midi": 67,
      "hit": false,
      "t": 133464.30000000002,
      "d": 120.57062499999302,
      "v": 101
    },
    {
      "midi": 71,
      "hit": false,
      "t": 133464.30000000002,
      "d": 125.49187500000698,
      "v": 103
    },
    {
      "midi": 67,
      "hit": false,
      "t": 133464.30000000016,
      "d": 164.86187500000233,
      "v": 113
    },
    {
      "midi": 71,
      "hit": false,
      "t": 133700.52000000002,
      "d": 177.16500000000815,
      "v": 106
    },
    {
      "midi": 67,
      "hit": false,
      "t": 133700.52000000002,
      "d": 182.08625000002212,
      "v": 97
    },
    {
      "midi": 67,
      "hit": false,
      "t": 133700.52000000016,
      "d": 216.5350000000035,
      "v": 105
    },
    {
      "midi": 66,
      "hit": false,
      "t": 133936.74000000005,
      "d": 86.12187500001164,
      "v": 100
    },
    {
      "midi": 69,
      "hit": false,
      "t": 133936.74000000005,
      "d": 108.2675000000163,
      "v": 89
    },
    {
      "midi": 66,
      "hit": false,
      "t": 133936.74000000017,
      "d": 115.64937500000815,
      "v": 106
    },
    {
      "midi": 67,
      "hit": false,
      "t": 134054.85000000006,
      "d": 103.34625000000233,
      "v": 94
    },
    {
      "midi": 64,
      "hit": false,
      "t": 134054.85000000006,
      "d": 127.95250000001397,
      "v": 92
    },
    {
      "midi": 64,
      "hit": false,
      "t": 134054.85000000018,
      "d": 115.64937500000815,
      "v": 106
    },
    {
      "midi": 66,
      "hit": false,
      "t": 134172.95999999947,
      "d": 1872.5356250000186,
      "v": 78
    },
    {
      "midi": 57,
      "hit": false,
      "t": 134172.95999999947,
      "d": 1877.4568750000326,
      "v": 85
    },
    {
      "midi": 57,
      "hit": false,
      "t": 134172.95999999996,
      "d": 1884.8387499999953,
      "v": 99
    },
    {
      "midi": 62,
      "hit": false,
      "t": 134172.96000000008,
      "d": 1461.6112499999872,
      "v": 91
    },
    {
      "midi": 66,
      "hit": false,
      "t": 134172.96000000008,
      "d": 1473.914374999993,
      "v": 102
    },
    {
      "midi": 26,
      "hit": false,
      "t": 134172.9600000001,
      "d": 521.6524999999965,
      "v": 101
    },
    {
      "midi": 62,
      "hit": false,
      "t": 134172.9600000002,
      "d": 1407.4775000000081,
      "v": 97
    },
    {
      "midi": 69,
      "hit": false,
      "t": 134881.6199999999,
      "d": 231.2987499999872,
      "v": 94
    },
    {
      "midi": 26,
      "hit": false,
      "t": 134881.6200000001,
      "d": 108.2674999999872,
      "v": 105
    },
    {
      "midi": 67,
      "hit": false,
      "t": 135117.8399999999,
      "d": 248.52312500000698,
      "v": 91
    },
    {
      "midi": 26,
      "hit": false,
      "t": 135117.8400000001,
      "d": 760.3331250000047,
      "v": 98
    },
    {
      "midi": 66,
      "hit": false,
      "t": 135354.0599999999,
      "d": 253.44437499999185,
      "v": 95
    },
    {
      "midi": 64,
      "hit": false,
      "t": 135590.2799999999,
      "d": 238.68062500000815,
      "v": 94
    },
    {
      "midi": 62,
      "hit": false,
      "t": 135826.4999999999,
      "d": 194.38937499999884,
      "v": 79
    },
    {
      "midi": 64,
      "hit": false,
      "t": 136062.7199999995,
      "d": 3799.204999999987,
      "v": 97
    },
    {
      "midi": 57,
      "hit": false,
      "t": 136062.7199999995,
      "d": 7576.26437499997,
      "v": 95
    },
    {
      "midi": 60,
      "hit": false,
      "t": 136062.7199999995,
      "d": 7608.252499999973,
      "v": 101
    },
    {
      "midi": 45,
      "hit": false,
      "t": 136062.72,
      "d": 3272.631250000006,
      "v": 104
    },
    {
      "midi": 33,
      "hit": false,
      "t": 136062.72000000012,
      "d": 509.3493749999907,
      "v": 110
    },
    {
      "midi": 60,
      "hit": false,
      "t": 136535.1600000002,
      "d": 698.8175000000047,
      "v": 121
    },
    {
      "midi": 33,
      "hit": false,
      "t": 136771.38000000012,
      "d": 108.2674999999872,
      "v": 105
    },
    {
      "midi": 33,
      "hit": false,
      "t": 137007.60000000012,
      "d": 533.9556250000023,
      "v": 99
    },
    {
      "midi": 59,
      "hit": false,
      "t": 137243.8200000002,
      "d": 706.1993749999965,
      "v": 109
    },
    {
      "midi": 33,
      "hit": false,
      "t": 137952.48000000013,
      "d": 563.4831249999988,
      "v": 105
    },
    {
      "midi": 62,
      "hit": false,
      "t": 137952.4800000002,
      "d": 706.1993749999965,
      "v": 107
    },
    {
      "midi": 28,
      "hit": false,
      "t": 138661.14000000013,
      "d": 127.95250000001397,
      "v": 101
    },
    {
      "midi": 60,
      "hit": false,
      "t": 138661.14000000022,
      "d": 802.163750000007,
      "v": 104
    },
    {
      "midi": 33,
      "hit": false,
      "t": 138897.36000000013,
      "d": 442.9125000000058,
      "v": 106
    },
    {
      "midi": 48,
      "hit": false,
      "t": 139369.80000000002,
      "d": 494.585625000007,
      "v": 103
    },
    {
      "midi": 31,
      "hit": false,
      "t": 139369.80000000013,
      "d": 425.68812499998603,
      "v": 96
    },
    {
      "midi": 65,
      "hit": false,
      "t": 139842.2399999995,
      "d": 3804.126249999972,
      "v": 93
    },
    {
      "midi": 41,
      "hit": false,
      "t": 139842.24000000002,
      "d": 3772.1381249999977,
      "v": 100
    },
    {
      "midi": 29,
      "hit": false,
      "t": 139842.2400000001,
      "d": 541.3374999999942,
      "v": 105
    },
    {
      "midi": 60,
      "hit": false,
      "t": 140314.68000000023,
      "d": 676.671875,
      "v": 119
    },
    {
      "midi": 29,
      "hit": false,
      "t": 140550.9000000001,
      "d": 108.2674999999872,
      "v": 105
    },
    {
      "midi": 29,
      "hit": false,
      "t": 140787.1200000001,
      "d": 533.9556250000023,
      "v": 104
    },
    {
      "midi": 59,
      "hit": false,
      "t": 141023.34000000023,
      "d": 671.750624999986,
      "v": 111
    },
    {
      "midi": 29,
      "hit": false,
      "t": 141732.00000000012,
      "d": 514.2706250000047,
      "v": 97
    },
    {
      "midi": 62,
      "hit": false,
      "t": 141732.0000000002,
      "d": 706.1993749999965,
      "v": 114
    },
    {
      "midi": 29,
      "hit": false,
      "t": 142440.66000000012,
      "d": 115.64937500000815,
      "v": 100
    },
    {
      "midi": 60,
      "hit": false,
      "t": 142440.6600000002,
      "d": 797.242499999993,
      "v": 110
    },
    {
      "midi": 29,
      "hit": false,
      "t": 142676.88000000012,
      "d": 612.695624999993,
      "v": 96
    },
    {
      "midi": 29,
      "hit": false,
      "t": 143385.54000000012,
      "d": 174.70437500000116,
      "v": 99
    },
    {
      "midi": 57,
      "hit": false,
      "t": 143385.5400000002,
      "d": 233.75937499999418,
      "v": 99
    },
    {
      "midi": 64,
      "hit": false,
      "t": 143621.75999999949,
      "d": 3737.689374999987,
      "v": 86
    },
    {
      "midi": 59,
      "hit": false,
      "t": 143621.75999999949,
      "d": 3752.453125,
      "v": 89
    },
    {
      "midi": 55,
      "hit": false,
      "t": 143621.75999999949,
      "d": 3764.756250000006,
      "v": 95
    },
    {
      "midi": 40,
      "hit": false,
      "t": 143621.76,
      "d": 3681.095000000001,
      "v": 105
    },
    {
      "midi": 28,
      "hit": false,
      "t": 143621.76000000013,
      "d": 533.9556250000023,
      "v": 102
    },
    {
      "midi": 59,
      "hit": false,
      "t": 143621.7600000002,
      "d": 469.97937499999534,
      "v": 111
    },
    {
      "midi": 60,
      "hit": false,
      "t": 144094.20000000022,
      "d": 233.75937499999418,
      "v": 110
    },
    {
      "midi": 28,
      "hit": false,
      "t": 144330.42000000013,
      "d": 105.80687500000931,
      "v": 97
    },
    {
      "midi": 59,
      "hit": false,
      "t": 144330.42000000022,
      "d": 423.22750000000815,
      "v": 113
    },
    {
      "midi": 28,
      "hit": false,
      "t": 144566.64000000013,
      "d": 531.4949999999953,
      "v": 98
    },
    {
      "midi": 55,
      "hit": false,
      "t": 144802.86000000022,
      "d": 179.62562499998603,
      "v": 102
    },
    {
      "midi": 55,
      "hit": false,
      "t": 145039.0800000002,
      "d": 1163.875624999986,
      "v": 101
    },
    {
      "midi": 28,
      "hit": false,
      "t": 145511.52000000014,
      "d": 506.8887500000128,
      "v": 100
    },
    {
      "midi": 28,
      "hit": false,
      "t": 146220.18000000014,
      "d": 233.75937499999418,
      "v": 98
    },
    {
      "midi": 26,
      "hit": false,
      "t": 146456.40000000014,
      "d": 216.5350000000035,
      "v": 95
    },
    {
      "midi": 28,
      "hit": false,
      "t": 146692.62000000014,
      "d": 233.75937499999418,
      "v": 98
    },
    {
      "midi": 31,
      "hit": false,
      "t": 146928.84000000014,
      "d": 233.75937499999418,
      "v": 103
    },
    {
      "midi": 28,
      "hit": false,
      "t": 147165.06000000014,
      "d": 233.75937499999418,
      "v": 90
    },
    {
      "midi": 64,
      "hit": false,
      "t": 147401.2799999995,
      "d": 3757.374375000014,
      "v": 89
    },
    {
      "midi": 60,
      "hit": false,
      "t": 147401.2799999995,
      "d": 7529.512500000012,
      "v": 102
    },
    {
      "midi": 57,
      "hit": false,
      "t": 147401.2799999995,
      "d": 7544.276250000024,
      "v": 93
    },
    {
      "midi": 45,
      "hit": false,
      "t": 147401.28,
      "d": 3292.3162500000035,
      "v": 96
    },
    {
      "midi": 33,
      "hit": false,
      "t": 147401.28000000014,
      "d": 506.8887500000128,
      "v": 97
    },
    {
      "midi": 64,
      "hit": false,
      "t": 147873.72000000006,
      "d": 698.8175000000047,
      "v": 117
    },
    {
      "midi": 60,
      "hit": false,
      "t": 147873.72000000018,
      "d": 698.8175000000047,
      "v": 116
    },
    {
      "midi": 33,
      "hit": false,
      "t": 148109.94000000015,
      "d": 118.10999999998603,
      "v": 98
    },
    {
      "midi": 33,
      "hit": false,
      "t": 148346.16000000012,
      "d": 487.20374999998603,
      "v": 101
    },
    {
      "midi": 62,
      "hit": false,
      "t": 148582.38000000006,
      "d": 728.3450000000012,
      "v": 101
    },
    {
      "midi": 59,
      "hit": false,
      "t": 148582.38000000018,
      "d": 706.1993749999965,
      "v": 106
    },
    {
      "midi": 65,
      "hit": false,
      "t": 149291.04000000007,
      "d": 718.5025000000023,
      "v": 101
    },
    {
      "midi": 33,
      "hit": false,
      "t": 149291.0400000001,
      "d": 688.9750000000058,
      "v": 101
    },
    {
      "midi": 62,
      "hit": false,
      "t": 149291.04000000018,
      "d": 706.1993749999965,
      "v": 105
    },
    {
      "midi": 64,
      "hit": false,
      "t": 149999.70000000007,
      "d": 802.163750000007,
      "v": 102
    },
    {
      "midi": 28,
      "hit": false,
      "t": 149999.7000000001,
      "d": 177.16500000000815,
      "v": 95
    },
    {
      "midi": 60,
      "hit": false,
      "t": 149999.7000000002,
      "d": 802.163750000007,
      "v": 111
    },
    {
      "midi": 36,
      "hit": false,
      "t": 150235.9200000001,
      "d": 233.75937499999418,
      "v": 101
    },
    {
      "midi": 35,
      "hit": false,
      "t": 150472.1400000001,
      "d": 218.99562500001048,
      "v": 96
    },
    {
      "midi": 48,
      "hit": false,
      "t": 150708.36000000002,
      "d": 494.585625000007,
      "v": 105
    },
    {
      "midi": 33,
      "hit": false,
      "t": 150708.3600000001,
      "d": 233.75937499999418,
      "v": 93
    },
    {
      "midi": 31,
      "hit": false,
      "t": 150944.5800000001,
      "d": 206.69250000000466,
      "v": 90
    },
    {
      "midi": 65,
      "hit": false,
      "t": 151180.79999999952,
      "d": 3821.350625000021,
      "v": 91
    },
    {
      "midi": 41,
      "hit": false,
      "t": 151180.80000000002,
      "d": 3740.149999999994,
      "v": 97
    },
    {
      "midi": 29,
      "hit": false,
      "t": 151180.8000000001,
      "d": 499.50687499999185,
      "v": 98
    },
    {
      "midi": 64,
      "hit": false,
      "t": 151653.24000000008,
      "d": 676.671875,
      "v": 116
    },
    {
      "midi": 60,
      "hit": false,
      "t": 151653.2400000002,
      "d": 676.671875,
      "v": 119
    },
    {
      "midi": 29,
      "hit": false,
      "t": 151889.4600000001,
      "d": 113.18875000000116,
      "v": 105
    },
    {
      "midi": 29,
      "hit": false,
      "t": 152125.6800000001,
      "d": 506.8887500000128,
      "v": 108
    },
    {
      "midi": 62,
      "hit": false,
      "t": 152361.90000000008,
      "d": 671.750624999986,
      "v": 109
    },
    {
      "midi": 59,
      "hit": false,
      "t": 152361.9000000002,
      "d": 671.750624999986,
      "v": 110
    },
    {
      "midi": 65,
      "hit": false,
      "t": 153070.56000000006,
      "d": 745.5693749999919,
      "v": 109
    },
    {
      "midi": 29,
      "hit": false,
      "t": 153070.5600000001,
      "d": 563.4831249999988,
      "v": 103
    },
    {
      "midi": 62,
      "hit": false,
      "t": 153070.56000000017,
      "d": 706.1993749999965,
      "v": 105
    },
    {
      "midi": 64,
      "hit": false,
      "t": 153779.22000000006,
      "d": 797.242499999993,
      "v": 99
    },
    {
      "midi": 29,
      "hit": false,
      "t": 153779.22000000012,
      "d": 189.46812500001397,
      "v": 94
    },
    {
      "midi": 60,
      "hit": false,
      "t": 153779.22000000018,
      "d": 797.242499999993,
      "v": 106
    },
    {
      "midi": 29,
      "hit": false,
      "t": 154015.44000000012,
      "d": 442.9125000000058,
      "v": 98
    },
    {
      "midi": 31,
      "hit": false,
      "t": 154487.88000000012,
      "d": 214.0743749999965,
      "v": 92
    },
    {
      "midi": 60,
      "hit": false,
      "t": 154724.10000000006,
      "d": 238.68062500000815,
      "v": 95
    },
    {
      "midi": 33,
      "hit": false,
      "t": 154724.10000000012,
      "d": 191.92874999999185,
      "v": 82
    },
    {
      "midi": 57,
      "hit": false,
      "t": 154724.10000000018,
      "d": 233.75937499999418,
      "v": 100
    },
    {
      "midi": 55,
      "hit": false,
      "t": 154960.31999999954,
      "d": 1924.2087500000198,
      "v": 87
    },
    {
      "midi": 59,
      "hit": false,
      "t": 154960.31999999954,
      "d": 1948.8150000000314,
      "v": 78
    },
    {
      "midi": 64,
      "hit": false,
      "t": 154960.31999999954,
      "d": 1966.0393750000221,
      "v": 84
    },
    {
      "midi": 40,
      "hit": false,
      "t": 154960.32,
      "d": 1884.8387499999953,
      "v": 99
    },
    {
      "midi": 62,
      "hit": false,
      "t": 154960.32000000007,
      "d": 472.4400000000023,
      "v": 104
    },
    {
      "midi": 28,
      "hit": false,
      "t": 154960.32000000012,
      "d": 492.125,
      "v": 107
    },
    {
      "midi": 59,
      "hit": false,
      "t": 154960.32000000018,
      "d": 469.97937499999534,
      "v": 113
    },
    {
      "midi": 64,
      "hit": false,
      "t": 155432.76000000007,
      "d": 238.68062500000815,
      "v": 109
    },
    {
      "midi": 60,
      "hit": false,
      "t": 155432.76000000018,
      "d": 233.75937499999418,
      "v": 112
    },
    {
      "midi": 62,
      "hit": false,
      "t": 155668.98000000007,
      "d": 423.22750000000815,
      "v": 107
    },
    {
      "midi": 28,
      "hit": false,
      "t": 155668.98000000013,
      "d": 115.64937500000815,
      "v": 99
    },
    {
      "midi": 59,
      "hit": false,
      "t": 155668.98000000019,
      "d": 423.22750000000815,
      "v": 105
    },
    {
      "midi": 28,
      "hit": false,
      "t": 155905.20000000013,
      "d": 767.7149999999965,
      "v": 107
    },
    {
      "midi": 59,
      "hit": false,
      "t": 156141.42000000007,
      "d": 179.62562499998603,
      "v": 104
    },
    {
      "midi": 55,
      "hit": false,
      "t": 156141.4200000002,
      "d": 179.62562499998603,
      "v": 102
    },
    {
      "midi": 59,
      "hit": false,
      "t": 156377.64000000004,
      "d": 376.47562499999185,
      "v": 98
    },
    {
      "midi": 55,
      "hit": false,
      "t": 156377.64000000016,
      "d": 376.47562499999185,
      "v": 107
    },
    {
      "midi": 65,
      "hit": false,
      "t": 156850.07999999955,
      "d": 5620.067500000005,
      "v": 93
    },
    {
      "midi": 57,
      "hit": false,
      "t": 156850.07999999955,
      "d": 5637.291874999995,
      "v": 86
    },
    {
      "midi": 60,
      "hit": false,
      "t": 156850.07999999955,
      "d": 9448.799999999988,
      "v": 93
    },
    {
      "midi": 72,
      "hit": false,
      "t": 156850.07999999996,
      "d": 5656.976874999993,
      "v": 81
    },
    {
      "midi": 41,
      "hit": false,
      "t": 156850.08000000002,
      "d": 5558.551875000005,
      "v": 99
    },
    {
      "midi": 60,
      "hit": false,
      "t": 156850.08000000005,
      "d": 745.5693749999919,
      "v": 104
    },
    {
      "midi": 29,
      "hit": false,
      "t": 156850.08000000013,
      "d": 5546.248749999999,
      "v": 102
    },
    {
      "midi": 57,
      "hit": false,
      "t": 156850.08000000016,
      "d": 706.1993749999965,
      "v": 113
    },
    {
      "midi": 59,
      "hit": false,
      "t": 157558.74000000005,
      "d": 693.8962499999907,
      "v": 95
    },
    {
      "midi": 55,
      "hit": false,
      "t": 157558.74000000017,
      "d": 693.8962499999907,
      "v": 107
    },
    {
      "midi": 57,
      "hit": false,
      "t": 158267.40000000005,
      "d": 462.5975000000035,
      "v": 88
    },
    {
      "midi": 53,
      "hit": false,
      "t": 158267.40000000017,
      "d": 479.8218749999942,
      "v": 61
    },
    {
      "midi": 57,
      "hit": false,
      "t": 158739.84000000005,
      "d": 642.2231249999895,
      "v": 90
    },
    {
      "midi": 60,
      "hit": false,
      "t": 158739.84000000005,
      "d": 691.4356249999837,
      "v": 99
    },
    {
      "midi": 55,
      "hit": false,
      "t": 159448.50000000003,
      "d": 679.132500000007,
      "v": 97
    },
    {
      "midi": 59,
      "hit": false,
      "t": 159448.50000000003,
      "d": 679.132500000007,
      "v": 96
    },
    {
      "midi": 57,
      "hit": false,
      "t": 160157.16000000003,
      "d": 452.75500000000466,
      "v": 93
    },
    {
      "midi": 53,
      "hit": false,
      "t": 160157.16000000003,
      "d": 460.1368749999965,
      "v": 82
    },
    {
      "midi": 60,
      "hit": false,
      "t": 160629.60000000003,
      "d": 639.7625000000116,
      "v": 91
    },
    {
      "midi": 57,
      "hit": false,
      "t": 160629.60000000003,
      "d": 649.6050000000105,
      "v": 91
    },
    {
      "midi": 72,
      "hit": false,
      "t": 160629.60000000015,
      "d": 706.1993749999965,
      "v": 109
    },
    {
      "midi": 55,
      "hit": false,
      "t": 161338.26000000004,
      "d": 720.9631250000093,
      "v": 92
    },
    {
      "midi": 59,
      "hit": false,
      "t": 161338.26000000004,
      "d": 728.3450000000012,
      "v": 96
    },
    {
      "midi": 74,
      "hit": false,
      "t": 161338.26000000015,
      "d": 691.4356250000128,
      "v": 103
    },
    {
      "midi": 53,
      "hit": false,
      "t": 162046.92000000004,
      "d": 430.609375,
      "v": 85
    },
    {
      "midi": 57,
      "hit": false,
      "t": 162046.92000000004,
      "d": 447.8337499999907,
      "v": 92
    },
    {
      "midi": 77,
      "hit": false,
      "t": 162046.92000000016,
      "d": 469.97937499999534,
      "v": 110
    },
    {
      "midi": 55,
      "hit": false,
      "t": 162519.35999999955,
      "d": 3804.126250000001,
      "v": 89
    },
    {
      "midi": 64,
      "hit": false,
      "t": 162519.35999999955,
      "d": 3821.350624999992,
      "v": 86
    },
    {
      "midi": 67,
      "hit": false,
      "t": 162519.3599999999,
      "d": 95.96437500001048,
      "v": 103
    },
    {
      "midi": 79,
      "hit": false,
      "t": 162519.35999999996,
      "d": 3769.6774999999907,
      "v": 88
    },
    {
      "midi": 48,
      "hit": false,
      "t": 162519.36000000002,
      "d": 3754.913750000007,
      "v": 95
    },
    {
      "midi": 52,
      "hit": false,
      "t": 162519.36000000004,
      "d": 698.8175000000047,
      "v": 86
    },
    {
      "midi": 55,
      "hit": false,
      "t": 162519.36000000004,
      "d": 698.8175000000047,
      "v": 102
    },
    {
      "midi": 24,
      "hit": false,
      "t": 162519.36000000013,
      "d": 3720.4649999999965,
      "v": 100
    },
    {
      "midi": 76,
      "hit": false,
      "t": 162519.36000000016,
      "d": 706.1993749999965,
      "v": 104
    },
    {
      "midi": 67,
      "hit": false,
      "t": 162755.5799999999,
      "d": 105.80687500000931,
      "v": 92
    },
    {
      "midi": 67,
      "hit": false,
      "t": 162991.7999999999,
      "d": 100.88562499999534,
      "v": 93
    },
    {
      "midi": 65,
      "hit": false,
      "t": 163228.0199999999,
      "d": 100.88562499999534,
      "v": 92
    },
    {
      "midi": 50,
      "hit": false,
      "t": 163228.02000000005,
      "d": 659.4475000000093,
      "v": 84
    },
    {
      "midi": 53,
      "hit": false,
      "t": 163228.02000000005,
      "d": 669.2900000000081,
      "v": 89
    },
    {
      "midi": 74,
      "hit": false,
      "t": 163228.02000000016,
      "d": 706.1993749999965,
      "v": 100
    },
    {
      "midi": 65,
      "hit": false,
      "t": 163464.2399999999,
      "d": 113.18875000000116,
      "v": 92
    },
    {
      "midi": 65,
      "hit": false,
      "t": 163700.4599999999,
      "d": 98.42499999998836,
      "v": 98
    },
    {
      "midi": 64,
      "hit": false,
      "t": 163936.6799999999,
      "d": 103.34625000000233,
      "v": 97
    },
    {
      "midi": 52,
      "hit": false,
      "t": 163936.68000000005,
      "d": 467.51874999998836,
      "v": 81
    },
    {
      "midi": 48,
      "hit": false,
      "t": 163936.68000000005,
      "d": 474.9006250000093,
      "v": 88
    },
    {
      "midi": 72,
      "hit": false,
      "t": 163936.68000000017,
      "d": 2172.731875000114,
      "v": 88
    },
    {
      "midi": 64,
      "hit": false,
      "t": 164172.8999999999,
      "d": 100.88562499999534,
      "v": 94
    },
    {
      "midi": 67,
      "hit": false,
      "t": 164409.1199999999,
      "d": 98.42499999998836,
      "v": 94
    },
    {
      "midi": 55,
      "hit": false,
      "t": 164409.12000000005,
      "d": 698.8175000000047,
      "v": 105
    },
    {
      "midi": 52,
      "hit": false,
      "t": 164409.12000000005,
      "d": 701.2781250000116,
      "v": 96
    },
    {
      "midi": 67,
      "hit": false,
      "t": 164645.3399999999,
      "d": 108.2674999999872,
      "v": 96
    },
    {
      "midi": 67,
      "hit": false,
      "t": 164881.5599999999,
      "d": 93.50375000000349,
      "v": 95
    },
    {
      "midi": 65,
      "hit": false,
      "t": 165117.7799999999,
      "d": 93.50375000000349,
      "v": 98
    },
    {
      "midi": 50,
      "hit": false,
      "t": 165117.78000000006,
      "d": 669.2900000000081,
      "v": 91
    },
    {
      "midi": 53,
      "hit": false,
      "t": 165117.78000000006,
      "d": 713.5812500000175,
      "v": 94
    },
    {
      "midi": 65,
      "hit": false,
      "t": 165353.9999999999,
      "d": 108.2674999999872,
      "v": 100
    },
    {
      "midi": 65,
      "hit": false,
      "t": 165590.2199999999,
      "d": 100.88562499999534,
      "v": 98
    },
    {
      "midi": 64,
      "hit": false,
      "t": 165826.43999999992,
      "d": 98.42499999998836,
      "v": 100
    },
    {
      "midi": 52,
      "hit": false,
      "t": 165826.44000000006,
      "d": 477.3612500000163,
      "v": 89
    },
    {
      "midi": 48,
      "hit": false,
      "t": 165826.44000000006,
      "d": 501.96750000002794,
      "v": 92
    },
    {
      "midi": 64,
      "hit": false,
      "t": 166062.65999999992,
      "d": 108.2674999999872,
      "v": 94
    },
    {
      "midi": 66,
      "hit": false,
      "t": 166298.87999999954,
      "d": 5624.9887499999895,
      "v": 93
    },
    {
      "midi": 62,
      "hit": false,
      "t": 166298.87999999954,
      "d": 5632.370624999981,
      "v": 91
    },
    {
      "midi": 57,
      "hit": false,
      "t": 166298.87999999954,
      "d": 5639.752499999973,
      "v": 82
    },
    {
      "midi": 69,
      "hit": false,
      "t": 166298.87999999992,
      "d": 95.96437500001048,
      "v": 95
    },
    {
      "midi": 81,
      "hit": false,
      "t": 166298.87999999995,
      "d": 5659.4375,
      "v": 85
    },
    {
      "midi": 50,
      "hit": false,
      "t": 166298.88000000003,
      "d": 2044.7793749999837,
      "v": 94
    },
    {
      "midi": 54,
      "hit": false,
      "t": 166298.88000000006,
      "d": 607.7743750000373,
      "v": 99
    },
    {
      "midi": 57,
      "hit": false,
      "t": 166298.88000000006,
      "d": 706.1993750000256,
      "v": 95
    },
    {
      "midi": 26,
      "hit": false,
      "t": 166298.88000000012,
      "d": 1833.1656249999942,
      "v": 107
    },
    {
      "midi": 69,
      "hit": false,
      "t": 166535.09999999992,
      "d": 108.2674999999872,
      "v": 96
    },
    {
      "midi": 69,
      "hit": false,
      "t": 166771.31999999992,
      "d": 98.42499999998836,
      "v": 100
    },
    {
      "midi": 67,
      "hit": false,
      "t": 167007.53999999992,
      "d": 108.2674999999872,
      "v": 92
    },
    {
      "midi": 52,
      "hit": false,
      "t": 167007.5400000001,
      "d": 740.648125000007,
      "v": 92
    },
    {
      "midi": 55,
      "hit": false,
      "t": 167007.5400000001,
      "d": 743.108750000014,
      "v": 102
    },
    {
      "midi": 67,
      "hit": false,
      "t": 167243.75999999992,
      "d": 98.42499999998836,
      "v": 90
    },
    {
      "midi": 67,
      "hit": false,
      "t": 167479.97999999992,
      "d": 110.72812499999418,
      "v": 98
    },
    {
      "midi": 66,
      "hit": false,
      "t": 167716.19999999992,
      "d": 98.42499999998836,
      "v": 100
    },
    {
      "midi": 50,
      "hit": false,
      "t": 167716.2000000001,
      "d": 4119.086250000022,
      "v": 84
    },
    {
      "midi": 54,
      "hit": false,
      "t": 167716.2000000001,
      "d": 4143.692500000034,
      "v": 89
    },
    {
      "midi": 66,
      "hit": false,
      "t": 167952.41999999993,
      "d": 103.34625000000233,
      "v": 96
    },
    {
      "midi": 66,
      "hit": false,
      "t": 168188.63999999993,
      "d": 118.10999999998603,
      "v": 98
    },
    {
      "midi": 57,
      "hit": false,
      "t": 168188.64000000004,
      "d": 118.10999999998603,
      "v": 69
    },
    {
      "midi": 26,
      "hit": false,
      "t": 168188.6400000001,
      "d": 127.95250000001397,
      "v": 68
    },
    {
      "midi": 62,
      "hit": false,
      "t": 168306.7499999999,
      "d": 125.49187499997788,
      "v": 87
    },
    {
      "midi": 64,
      "hit": false,
      "t": 168424.8599999999,
      "d": 118.10999999998603,
      "v": 84
    },
    {
      "midi": 57,
      "hit": false,
      "t": 168424.86000000002,
      "d": 103.34625000000233,
      "v": 67
    },
    {
      "midi": 50,
      "hit": false,
      "t": 168424.86000000002,
      "d": 120.57062499999302,
      "v": 65
    },
    {
      "midi": 26,
      "hit": false,
      "t": 168424.8600000001,
      "d": 125.49187500000698,
      "v": 58
    },
    {
      "midi": 66,
      "hit": false,
      "t": 168542.96999999988,
      "d": 105.80687500000931,
      "v": 86
    },
    {
      "midi": 67,
      "hit": false,
      "t": 168661.0799999999,
      "d": 120.57062499999302,
      "v": 89
    },
    {
      "midi": 57,
      "hit": false,
      "t": 168661.08000000002,
      "d": 113.18875000000116,
      "v": 65
    },
    {
      "midi": 50,
      "hit": false,
      "t": 168661.08000000002,
      "d": 137.7950000000128,
      "v": 73
    },
    {
      "midi": 26,
      "hit": false,
      "t": 168661.0800000001,
      "d": 125.49187500000698,
      "v": 75
    },
    {
      "midi": 64,
      "hit": false,
      "t": 168779.1899999999,
      "d": 130.41312500002095,
      "v": 80
    },
    {
      "midi": 66,
      "hit": false,
      "t": 168897.2999999999,
      "d": 132.87375000002794,
      "v": 86
    },
    {
      "midi": 57,
      "hit": false,
      "t": 168897.30000000002,
      "d": 120.57062499999302,
      "v": 74
    },
    {
      "midi": 50,
      "hit": false,
      "t": 168897.30000000002,
      "d": 127.95249999998487,
      "v": 66
    },
    {
      "midi": 26,
      "hit": false,
      "t": 168897.3000000001,
      "d": 147.63750000001164,
      "v": 67
    },
    {
      "midi": 67,
      "hit": false,
      "t": 169015.40999999992,
      "d": 123.0312500000291,
      "v": 76
    },
    {
      "midi": 69,
      "hit": false,
      "t": 169133.51999999993,
      "d": 132.87375000002794,
      "v": 79
    },
    {
      "midi": 57,
      "hit": false,
      "t": 169133.52,
      "d": 137.7950000000128,
      "v": 76
    },
    {
      "midi": 50,
      "hit": false,
      "t": 169133.52,
      "d": 147.63750000001164,
      "v": 81
    },
    {
      "midi": 26,
      "hit": false,
      "t": 169133.5200000001,
      "d": 145.17687500000466,
      "v": 79
    },
    {
      "midi": 69,
      "hit": false,
      "t": 169133.5200000001,
      "d": 100.88562499999534,
      "v": 73
    },
    {
      "midi": 66,
      "hit": false,
      "t": 169251.62999999995,
      "d": 127.95250000001397,
      "v": 84
    },
    {
      "midi": 67,
      "hit": false,
      "t": 169369.73999999996,
      "d": 120.57062499999302,
      "v": 81
    },
    {
      "midi": 50,
      "hit": false,
      "t": 169369.74,
      "d": 130.41312499999185,
      "v": 71
    },
    {
      "midi": 57,
      "hit": false,
      "t": 169369.74,
      "d": 137.7949999999837,
      "v": 76
    },
    {
      "midi": 26,
      "hit": false,
      "t": 169369.7400000001,
      "d": 152.5587499999965,
      "v": 79
    },
    {
      "midi": 69,
      "hit": false,
      "t": 169487.84999999995,
      "d": 127.95250000001397,
      "v": 75
    },
    {
      "midi": 57,
      "hit": false,
      "t": 169605.95999999996,
      "d": 118.10999999998603,
      "v": 79
    },
    {
      "midi": 50,
      "hit": false,
      "t": 169605.95999999996,
      "d": 140.2556249999907,
      "v": 76
    },
    {
      "midi": 71,
      "hit": false,
      "t": 169605.95999999996,
      "d": 127.95249999998487,
      "v": 85
    },
    {
      "midi": 26,
      "hit": false,
      "t": 169605.9600000001,
      "d": 142.71624999999767,
      "v": 85
    },
    {
      "midi": 67,
      "hit": false,
      "t": 169724.06999999995,
      "d": 125.49187499997788,
      "v": 80
    },
    {
      "midi": 69,
      "hit": false,
      "t": 169842.17999999993,
      "d": 130.41312499999185,
      "v": 81
    },
    {
      "midi": 57,
      "hit": false,
      "t": 169842.17999999996,
      "d": 123.03125,
      "v": 78
    },
    {
      "midi": 50,
      "hit": false,
      "t": 169842.17999999996,
      "d": 127.95250000001397,
      "v": 69
    },
    {
      "midi": 26,
      "hit": false,
      "t": 169842.1800000001,
      "d": 164.86187500000233,
      "v": 87
    },
    {
      "midi": 71,
      "hit": false,
      "t": 169960.28999999992,
      "d": 123.0312500000291,
      "v": 75
    },
    {
      "midi": 73,
      "hit": false,
      "t": 170078.39999999994,
      "d": 123.0312500000291,
      "v": 86
    },
    {
      "midi": 57,
      "hit": false,
      "t": 170078.39999999997,
      "d": 120.57062499999302,
      "v": 81
    },
    {
      "midi": 50,
      "hit": false,
      "t": 170078.39999999997,
      "d": 145.17687500000466,
      "v": 68
    },
    {
      "midi": 26,
      "hit": false,
      "t": 170078.4000000001,
      "d": 147.63750000001164,
      "v": 91
    },
    {
      "midi": 74,
      "hit": false,
      "t": 170078.4000000001,
      "d": 184.546875,
      "v": 100
    },
    {
      "midi": 69,
      "hit": false,
      "t": 170196.50999999995,
      "d": 132.87375000002794,
      "v": 77
    },
    {
      "midi": 57,
      "hit": false,
      "t": 170314.61999999997,
      "d": 125.49187500000698,
      "v": 73
    },
    {
      "midi": 50,
      "hit": false,
      "t": 170314.61999999997,
      "d": 127.95250000001397,
      "v": 74
    },
    {
      "midi": 71,
      "hit": false,
      "t": 170314.61999999997,
      "d": 127.95250000001397,
      "v": 78
    },
    {
      "midi": 26,
      "hit": false,
      "t": 170314.6200000001,
      "d": 172.24374999999418,
      "v": 90
    },
    {
      "midi": 73,
      "hit": false,
      "t": 170432.72999999998,
      "d": 123.03125,
      "v": 87
    },
    {
      "midi": 57,
      "hit": false,
      "t": 170550.83999999997,
      "d": 125.49187500000698,
      "v": 85
    },
    {
      "midi": 50,
      "hit": false,
      "t": 170550.83999999997,
      "d": 155.0193750000035,
      "v": 79
    },
    {
      "midi": 74,
      "hit": false,
      "t": 170550.83999999997,
      "d": 113.18875000000116,
      "v": 83
    },
    {
      "midi": 26,
      "hit": false,
      "t": 170550.8400000001,
      "d": 147.63750000001164,
      "v": 101
    },
    {
      "midi": 71,
      "hit": false,
      "t": 170668.94999999998,
      "d": 127.95249999998487,
      "v": 82
    },
    {
      "midi": 50,
      "hit": false,
      "t": 170787.05999999997,
      "d": 127.95250000001397,
      "v": 73
    },
    {
      "midi": 57,
      "hit": false,
      "t": 170787.05999999997,
      "d": 127.95250000001397,
      "v": 83
    },
    {
      "midi": 73,
      "hit": false,
      "t": 170787.05999999997,
      "d": 127.95249999998487,
      "v": 90
    },
    {
      "midi": 26,
      "hit": false,
      "t": 170787.0600000001,
      "d": 157.48000000001048,
      "v": 105
    },
    {
      "midi": 74,
      "hit": false,
      "t": 170905.16999999995,
      "d": 127.95249999998487,
      "v": 82
    },
    {
      "midi": 76,
      "hit": false,
      "t": 171023.27999999994,
      "d": 132.87374999999884,
      "v": 79
    },
    {
      "midi": 57,
      "hit": false,
      "t": 171023.27999999997,
      "d": 118.10999999998603,
      "v": 83
    },
    {
      "midi": 50,
      "hit": false,
      "t": 171023.27999999997,
      "d": 140.2556249999907,
      "v": 84
    },
    {
      "midi": 26,
      "hit": false,
      "t": 171023.28000000012,
      "d": 140.2556249999907,
      "v": 99
    },
    {
      "midi": 74,
      "hit": false,
      "t": 171023.28000000012,
      "d": 218.99562500001048,
      "v": 105
    },
    {
      "midi": 73,
      "hit": false,
      "t": 171141.38999999993,
      "d": 132.87375000002794,
      "v": 79
    },
    {
      "midi": 74,
      "hit": false,
      "t": 171259.49999999994,
      "d": 123.0312500000291,
      "v": 81
    },
    {
      "midi": 50,
      "hit": false,
      "t": 171259.49999999997,
      "d": 137.7950000000128,
      "v": 77
    },
    {
      "midi": 57,
      "hit": false,
      "t": 171259.49999999997,
      "d": 137.7950000000128,
      "v": 80
    },
    {
      "midi": 26,
      "hit": false,
      "t": 171259.50000000012,
      "d": 157.48000000001048,
      "v": 109
    },
    {
      "midi": 76,
      "hit": false,
      "t": 171377.60999999996,
      "d": 137.7950000000128,
      "v": 79
    },
    {
      "midi": 57,
      "hit": false,
      "t": 171495.71999999997,
      "d": 125.49187500000698,
      "v": 84
    },
    {
      "midi": 50,
      "hit": false,
      "t": 171495.71999999997,
      "d": 164.86187500000233,
      "v": 82
    },
    {
      "midi": 78,
      "hit": false,
      "t": 171495.71999999997,
      "d": 132.87374999999884,
      "v": 88
    },
    {
      "midi": 26,
      "hit": false,
      "t": 171495.72000000012,
      "d": 147.63750000001164,
      "v": 109
    },
    {
      "midi": 79,
      "hit": false,
      "t": 171613.82999999996,
      "d": 135.33437500000582,
      "v": 69
    },
    {
      "midi": 50,
      "hit": false,
      "t": 171731.93999999997,
      "d": 142.71624999999767,
      "v": 76
    },
    {
      "midi": 57,
      "hit": false,
      "t": 171731.93999999997,
      "d": 142.71624999999767,
      "v": 86
    },
    {
      "midi": 81,
      "hit": false,
      "t": 171731.93999999997,
      "d": 137.7949999999837,
      "v": 77
    },
    {
      "midi": 26,
      "hit": false,
      "t": 171731.94000000012,
      "d": 184.546875,
      "v": 106
    },
    {
      "midi": 83,
      "hit": false,
      "t": 171850.04999999996,
      "d": 120.57062499999302,
      "v": 78
    },
    {
      "midi": 60,
      "hit": false,
      "t": 171968.1599999995,
      "d": 3727.8468749999884,
      "v": 78
    },
    {
      "midi": 57,
      "hit": false,
      "t": 171968.1599999995,
      "d": 3749.992499999993,
      "v": 79
    },
    {
      "midi": 64,
      "hit": false,
      "t": 171968.1599999995,
      "d": 3769.6774999999907,
      "v": 86
    },
    {
      "midi": 45,
      "hit": false,
      "t": 171968.15999999997,
      "d": 172.24374999999418,
      "v": 115
    },
    {
      "midi": 57,
      "hit": false,
      "t": 171968.15999999997,
      "d": 172.24374999999418,
      "v": 98
    },
    {
      "midi": 33,
      "hit": false,
      "t": 171968.16000000012,
      "d": 501.96749999999884,
      "v": 105
    },
    {
      "midi": 45,
      "hit": false,
      "t": 172204.37999999998,
      "d": 231.2987499999872,
      "v": 108
    },
    {
      "midi": 57,
      "hit": false,
      "t": 172204.37999999998,
      "d": 231.2987499999872,
      "v": 88
    },
    {
      "midi": 48,
      "hit": false,
      "t": 172440.59999999998,
      "d": 231.2987499999872,
      "v": 117
    },
    {
      "midi": 60,
      "hit": false,
      "t": 172440.59999999998,
      "d": 231.2987499999872,
      "v": 104
    },
    {
      "midi": 45,
      "hit": false,
      "t": 172676.81999999998,
      "d": 206.69250000000466,
      "v": 103
    },
    {
      "midi": 57,
      "hit": false,
      "t": 172676.81999999998,
      "d": 206.69250000000466,
      "v": 99
    },
    {
      "midi": 33,
      "hit": false,
      "t": 172676.82000000012,
      "d": 127.95250000001397,
      "v": 99
    },
    {
      "midi": 50,
      "hit": false,
      "t": 172913.03999999998,
      "d": 231.2987499999872,
      "v": 114
    },
    {
      "midi": 62,
      "hit": false,
      "t": 172913.03999999998,
      "d": 231.2987499999872,
      "v": 105
    },
    {
      "midi": 33,
      "hit": false,
      "t": 172913.04000000012,
      "d": 445.3731250000128,
      "v": 103
    },
    {
      "midi": 45,
      "hit": false,
      "t": 173149.25999999998,
      "d": 218.99562500001048,
      "v": 112
    },
    {
      "midi": 57,
      "hit": false,
      "t": 173149.25999999998,
      "d": 218.99562500001048,
      "v": 101
    },
    {
      "midi": 48,
      "hit": false,
      "t": 173385.47999999998,
      "d": 211.61374999998952,
      "v": 113
    },
    {
      "midi": 60,
      "hit": false,
      "t": 173385.47999999998,
      "d": 211.61374999998952,
      "v": 108
    },
    {
      "midi": 45,
      "hit": false,
      "t": 173621.69999999998,
      "d": 425.68812499998603,
      "v": 110
    },
    {
      "midi": 57,
      "hit": false,
      "t": 173621.69999999998,
      "d": 425.68812499998603,
      "v": 99
    },
    {
      "midi": 33,
      "hit": false,
      "t": 173857.92000000013,
      "d": 501.96749999999884,
      "v": 104
    },
    {
      "midi": 45,
      "hit": false,
      "t": 174094.13999999996,
      "d": 231.2987499999872,
      "v": 114
    },
    {
      "midi": 57,
      "hit": false,
      "t": 174094.13999999996,
      "d": 231.2987499999872,
      "v": 103
    },
    {
      "midi": 48,
      "hit": false,
      "t": 174330.35999999996,
      "d": 214.0743749999965,
      "v": 109
    },
    {
      "midi": 60,
      "hit": false,
      "t": 174330.35999999996,
      "d": 214.0743749999965,
      "v": 107
    },
    {
      "midi": 45,
      "hit": false,
      "t": 174566.57999999996,
      "d": 231.2987499999872,
      "v": 101
    },
    {
      "midi": 57,
      "hit": false,
      "t": 174566.57999999996,
      "d": 231.2987499999872,
      "v": 89
    },
    {
      "midi": 33,
      "hit": false,
      "t": 174566.58000000013,
      "d": 123.03125,
      "v": 96
    },
    {
      "midi": 50,
      "hit": false,
      "t": 174802.79999999996,
      "d": 231.2987499999872,
      "v": 110
    },
    {
      "midi": 62,
      "hit": false,
      "t": 174802.79999999996,
      "d": 231.2987499999872,
      "v": 99
    },
    {
      "midi": 33,
      "hit": false,
      "t": 174802.80000000013,
      "d": 437.99124999999185,
      "v": 94
    },
    {
      "midi": 45,
      "hit": false,
      "t": 175039.01999999996,
      "d": 214.0743749999965,
      "v": 106
    },
    {
      "midi": 57,
      "hit": false,
      "t": 175039.01999999996,
      "d": 214.0743749999965,
      "v": 95
    },
    {
      "midi": 48,
      "hit": false,
      "t": 175275.23999999996,
      "d": 218.99562500001048,
      "v": 115
    },
    {
      "midi": 60,
      "hit": false,
      "t": 175275.23999999996,
      "d": 218.99562500001048,
      "v": 107
    },
    {
      "midi": 43,
      "hit": false,
      "t": 175511.45999999996,
      "d": 437.99124999999185,
      "v": 115
    },
    {
      "midi": 55,
      "hit": false,
      "t": 175511.45999999996,
      "d": 437.99124999999185,
      "v": 100
    },
    {
      "midi": 33,
      "hit": false,
      "t": 175511.46000000014,
      "d": 123.03125,
      "v": 86
    },
    {
      "midi": 55,
      "hit": false,
      "t": 175747.6799999995,
      "d": 3772.1381249999977,
      "v": 87
    },
    {
      "midi": 59,
      "hit": false,
      "t": 175747.6799999995,
      "d": 3801.665624999994,
      "v": 80
    },
    {
      "midi": 62,
      "hit": false,
      "t": 175747.6799999995,
      "d": 5708.649999999994,
      "v": 87
    },
    {
      "midi": 31,
      "hit": false,
      "t": 175747.68000000014,
      "d": 504.4281250000058,
      "v": 102
    },
    {
      "midi": 43,
      "hit": false,
      "t": 175983.89999999997,
      "d": 226.37750000000233,
      "v": 112
    },
    {
      "midi": 55,
      "hit": false,
      "t": 175983.89999999997,
      "d": 226.37750000000233,
      "v": 99
    },
    {
      "midi": 47,
      "hit": false,
      "t": 176220.11999999997,
      "d": 231.2987499999872,
      "v": 109
    },
    {
      "midi": 59,
      "hit": false,
      "t": 176220.11999999997,
      "d": 231.2987499999872,
      "v": 107
    },
    {
      "midi": 43,
      "hit": false,
      "t": 176456.33999999997,
      "d": 231.2987499999872,
      "v": 113
    },
    {
      "midi": 55,
      "hit": false,
      "t": 176456.33999999997,
      "d": 231.2987499999872,
      "v": 101
    },
    {
      "midi": 31,
      "hit": false,
      "t": 176456.34000000014,
      "d": 130.41312499999185,
      "v": 99
    },
    {
      "midi": 48,
      "hit": false,
      "t": 176692.55999999997,
      "d": 231.2987499999872,
      "v": 116
    },
    {
      "midi": 60,
      "hit": false,
      "t": 176692.55999999997,
      "d": 231.2987499999872,
      "v": 104
    },
    {
      "midi": 31,
      "hit": false,
      "t": 176692.56000000014,
      "d": 477.3612499999872,
      "v": 95
    },
    {
      "midi": 43,
      "hit": false,
      "t": 176928.77999999997,
      "d": 226.37750000000233,
      "v": 109
    },
    {
      "midi": 55,
      "hit": false,
      "t": 176928.77999999997,
      "d": 226.37750000000233,
      "v": 93
    },
    {
      "midi": 47,
      "hit": false,
      "t": 177164.99999999997,
      "d": 218.99562500001048,
      "v": 115
    },
    {
      "midi": 59,
      "hit": false,
      "t": 177164.99999999997,
      "d": 218.99562500001048,
      "v": 102
    },
    {
      "midi": 43,
      "hit": false,
      "t": 177401.21999999997,
      "d": 420.76687500000116,
      "v": 111
    },
    {
      "midi": 55,
      "hit": false,
      "t": 177401.21999999997,
      "d": 420.76687500000116,
      "v": 98
    },
    {
      "midi": 31,
      "hit": false,
      "t": 177637.44000000012,
      "d": 511.8099999999977,
      "v": 103
    },
    {
      "midi": 43,
      "hit": false,
      "t": 177873.65999999997,
      "d": 216.5350000000035,
      "v": 110
    },
    {
      "midi": 55,
      "hit": false,
      "t": 177873.65999999997,
      "d": 216.5350000000035,
      "v": 107
    },
    {
      "midi": 47,
      "hit": false,
      "t": 178109.87999999998,
      "d": 231.2987499999872,
      "v": 112
    },
    {
      "midi": 59,
      "hit": false,
      "t": 178109.87999999998,
      "d": 231.2987499999872,
      "v": 100
    },
    {
      "midi": 43,
      "hit": false,
      "t": 178346.09999999998,
      "d": 231.2987499999872,
      "v": 112
    },
    {
      "midi": 55,
      "hit": false,
      "t": 178346.09999999998,
      "d": 231.2987499999872,
      "v": 99
    },
    {
      "midi": 31,
      "hit": false,
      "t": 178346.10000000012,
      "d": 113.18875000000116,
      "v": 101
    },
    {
      "midi": 48,
      "hit": false,
      "t": 178582.31999999998,
      "d": 231.2987499999872,
      "v": 121
    },
    {
      "midi": 60,
      "hit": false,
      "t": 178582.31999999998,
      "d": 231.2987499999872,
      "v": 109
    },
    {
      "midi": 31,
      "hit": false,
      "t": 178582.32000000012,
      "d": 511.8099999999977,
      "v": 97
    },
    {
      "midi": 43,
      "hit": false,
      "t": 178818.53999999998,
      "d": 231.2987499999872,
      "v": 107
    },
    {
      "midi": 55,
      "hit": false,
      "t": 178818.53999999998,
      "d": 231.2987499999872,
      "v": 97
    },
    {
      "midi": 47,
      "hit": false,
      "t": 179054.75999999998,
      "d": 216.5350000000035,
      "v": 118
    },
    {
      "midi": 59,
      "hit": false,
      "t": 179054.75999999998,
      "d": 216.5350000000035,
      "v": 107
    },
    {
      "midi": 50,
      "hit": false,
      "t": 179290.97999999998,
      "d": 428.148749999993,
      "v": 118
    },
    {
      "midi": 62,
      "hit": false,
      "t": 179290.97999999998,
      "d": 428.148749999993,
      "v": 106
    },
    {
      "midi": 31,
      "hit": false,
      "t": 179290.98000000013,
      "d": 118.10999999998603,
      "v": 90
    },
    {
      "midi": 54,
      "hit": false,
      "t": 179527.1999999995,
      "d": 1882.3781250000175,
      "v": 87
    },
    {
      "midi": 57,
      "hit": false,
      "t": 179527.1999999995,
      "d": 3781.9806250000256,
      "v": 87
    },
    {
      "midi": 26,
      "hit": false,
      "t": 179527.2000000001,
      "d": 462.5975000000035,
      "v": 101
    },
    {
      "midi": 50,
      "hit": false,
      "t": 179763.41999999998,
      "d": 191.92874999999185,
      "v": 108
    },
    {
      "midi": 62,
      "hit": false,
      "t": 179763.41999999998,
      "d": 191.92874999999185,
      "v": 100
    },
    {
      "midi": 54,
      "hit": false,
      "t": 179999.63999999998,
      "d": 231.2987499999872,
      "v": 116
    },
    {
      "midi": 66,
      "hit": false,
      "t": 179999.63999999998,
      "d": 231.2987499999872,
      "v": 106
    },
    {
      "midi": 50,
      "hit": false,
      "t": 180235.86,
      "d": 231.2987499999872,
      "v": 107
    },
    {
      "midi": 62,
      "hit": false,
      "t": 180235.86,
      "d": 231.2987499999872,
      "v": 95
    },
    {
      "midi": 26,
      "hit": false,
      "t": 180235.8600000001,
      "d": 118.10999999998603,
      "v": 93
    },
    {
      "midi": 55,
      "hit": false,
      "t": 180472.08,
      "d": 231.2987499999872,
      "v": 111
    },
    {
      "midi": 67,
      "hit": false,
      "t": 180472.08,
      "d": 231.2987499999872,
      "v": 100
    },
    {
      "midi": 26,
      "hit": false,
      "t": 180472.08000000007,
      "d": 465.0581250000105,
      "v": 95
    },
    {
      "midi": 54,
      "hit": false,
      "t": 180708.3,
      "d": 452.75500000000466,
      "v": 110
    },
    {
      "midi": 66,
      "hit": false,
      "t": 180708.3,
      "d": 452.75500000000466,
      "v": 99
    },
    {
      "midi": 53,
      "hit": false,
      "t": 181180.74,
      "d": 442.9125000000058,
      "v": 117
    },
    {
      "midi": 65,
      "hit": false,
      "t": 181180.74,
      "d": 442.9125000000058,
      "v": 111
    },
    {
      "midi": 53,
      "hit": false,
      "t": 181416.9599999995,
      "d": 1899.6025000000081,
      "v": 83
    },
    {
      "midi": 60,
      "hit": false,
      "t": 181416.9599999995,
      "d": 1919.2875000000058,
      "v": 83
    },
    {
      "midi": 29,
      "hit": false,
      "t": 181416.96000000008,
      "d": 489.664374999993,
      "v": 104
    },
    {
      "midi": 53,
      "hit": false,
      "t": 181653.18,
      "d": 223.91687499999534,
      "v": 109
    },
    {
      "midi": 65,
      "hit": false,
      "t": 181653.18,
      "d": 223.91687499999534,
      "v": 95
    },
    {
      "midi": 57,
      "hit": false,
      "t": 181889.4,
      "d": 231.2987499999872,
      "v": 104
    },
    {
      "midi": 69,
      "hit": false,
      "t": 181889.4,
      "d": 231.2987499999872,
      "v": 93
    },
    {
      "midi": 53,
      "hit": false,
      "t": 182125.62,
      "d": 231.2987499999872,
      "v": 103
    },
    {
      "midi": 65,
      "hit": false,
      "t": 182125.62,
      "d": 231.2987499999872,
      "v": 92
    },
    {
      "midi": 29,
      "hit": false,
      "t": 182125.62000000008,
      "d": 123.03125,
      "v": 91
    },
    {
      "midi": 58,
      "hit": false,
      "t": 182361.84,
      "d": 231.2987499999872,
      "v": 111
    },
    {
      "midi": 70,
      "hit": false,
      "t": 182361.84,
      "d": 231.2987499999872,
      "v": 95
    },
    {
      "midi": 29,
      "hit": false,
      "t": 182361.84000000008,
      "d": 433.070000000007,
      "v": 93
    },
    {
      "midi": 57,
      "hit": false,
      "t": 182598.06,
      "d": 652.0656249999884,
      "v": 111
    },
    {
      "midi": 69,
      "hit": false,
      "t": 182598.06,
      "d": 652.0656249999884,
      "v": 92
    },
    {
      "midi": 29,
      "hit": false,
      "t": 183070.5000000001,
      "d": 91.04312499999651,
      "v": 97
    },
    {
      "midi": 55,
      "hit": false,
      "t": 183306.7199999995,
      "d": 3809.047499999986,
      "v": 78
    },
    {
      "midi": 59,
      "hit": false,
      "t": 183306.7199999995,
      "d": 3809.047499999986,
      "v": 78
    },
    {
      "midi": 52,
      "hit": false,
      "t": 183306.71999999997,
      "d": 447.8337499999907,
      "v": 102
    },
    {
      "midi": 28,
      "hit": false,
      "t": 183306.7200000001,
      "d": 489.664374999993,
      "v": 94
    },
    {
      "midi": 52,
      "hit": false,
      "t": 183779.15999999997,
      "d": 314.95999999999185,
      "v": 89
    },
    {
      "midi": 28,
      "hit": false,
      "t": 184015.3800000001,
      "d": 118.10999999998603,
      "v": 97
    },
    {
      "midi": 50,
      "hit": false,
      "t": 184133.48999999996,
      "d": 110.72812499999418,
      "v": 93
    },
    {
      "midi": 52,
      "hit": false,
      "t": 184251.59999999995,
      "d": 403.5425000000105,
      "v": 91
    },
    {
      "midi": 28,
      "hit": false,
      "t": 184251.60000000006,
      "d": 472.4400000000023,
      "v": 98
    },
    {
      "midi": 45,
      "hit": false,
      "t": 184724.03999999995,
      "d": 140.2556249999907,
      "v": 92
    },
    {
      "midi": 47,
      "hit": false,
      "t": 184842.14999999994,
      "d": 118.11000000001513,
      "v": 90
    },
    {
      "midi": 50,
      "hit": false,
      "t": 184960.25999999995,
      "d": 125.49187499997788,
      "v": 76
    },
    {
      "midi": 52,
      "hit": false,
      "t": 185078.36999999994,
      "d": 105.80687499998021,
      "v": 88
    },
    {
      "midi": 52,
      "hit": false,
      "t": 185196.47999999992,
      "d": 120.57062499999302,
      "v": 88
    },
    {
      "midi": 28,
      "hit": false,
      "t": 185196.48000000007,
      "d": 506.8887500000128,
      "v": 98
    },
    {
      "midi": 57,
      "hit": false,
      "t": 185314.5899999999,
      "d": 105.80687500000931,
      "v": 93
    },
    {
      "midi": 55,
      "hit": false,
      "t": 185432.69999999992,
      "d": 110.72812499999418,
      "v": 94
    },
    {
      "midi": 59,
      "hit": false,
      "t": 185550.8099999999,
      "d": 108.2674999999872,
      "v": 92
    },
    {
      "midi": 57,
      "hit": false,
      "t": 185668.9199999999,
      "d": 130.41312499999185,
      "v": 85
    },
    {
      "midi": 62,
      "hit": false,
      "t": 185787.02999999988,
      "d": 110.72812499999418,
      "v": 86
    },
    {
      "midi": 59,
      "hit": false,
      "t": 185905.13999999987,
      "d": 113.18875000000116,
      "v": 92
    },
    {
      "midi": 28,
      "hit": false,
      "t": 185905.14000000007,
      "d": 216.5350000000035,
      "v": 103
    },
    {
      "midi": 64,
      "hit": false,
      "t": 186023.24999999988,
      "d": 108.2674999999872,
      "v": 88
    },
    {
      "midi": 62,
      "hit": false,
      "t": 186141.35999999987,
      "d": 123.03125,
      "v": 85
    },
    {
      "midi": 26,
      "hit": false,
      "t": 186141.36000000007,
      "d": 223.91687499999534,
      "v": 96
    },
    {
      "midi": 67,
      "hit": false,
      "t": 186259.46999999986,
      "d": 108.2675000000163,
      "v": 89
    },
    {
      "midi": 64,
      "hit": false,
      "t": 186377.57999999987,
      "d": 123.03125,
      "v": 87
    },
    {
      "midi": 28,
      "hit": false,
      "t": 186377.58000000007,
      "d": 233.75937499999418,
      "v": 89
    },
    {
      "midi": 69,
      "hit": false,
      "t": 186495.68999999986,
      "d": 118.11000000001513,
      "v": 93
    },
    {
      "midi": 67,
      "hit": false,
      "t": 186613.79999999987,
      "d": 120.57062499999302,
      "v": 93
    },
    {
      "midi": 31,
      "hit": false,
      "t": 186613.80000000008,
      "d": 233.75937499999418,
      "v": 98
    },
    {
      "midi": 71,
      "hit": false,
      "t": 186731.90999999986,
      "d": 118.11000000001513,
      "v": 90
    },
    {
      "midi": 69,
      "hit": false,
      "t": 186850.01999999987,
      "d": 137.7949999999837,
      "v": 89
    },
    {
      "midi": 28,
      "hit": false,
      "t": 186850.02000000008,
      "d": 218.99562500001048,
      "v": 92
    },
    {
      "midi": 74,
      "hit": false,
      "t": 186968.12999999986,
      "d": 113.18875000000116,
      "v": 93
    },
    {
      "midi": 64,
      "hit": false,
      "t": 187086.2399999995,
      "d": 36.90937499998836,
      "v": 102
    },
    {
      "midi": 60,
      "hit": false,
      "t": 187086.2399999995,
      "d": 1926.6693749999686,
      "v": 106
    },
    {
      "midi": 57,
      "hit": false,
      "t": 187086.2399999995,
      "d": 3796.744374999951,
      "v": 99
    },
    {
      "midi": 45,
      "hit": false,
      "t": 187086.23999999987,
      "d": 1916.8268749999988,
      "v": 98
    },
    {
      "midi": 81,
      "hit": false,
      "t": 187086.23999999987,
      "d": 3663.8706250000105,
      "v": 101
    },
    {
      "midi": 45,
      "hit": false,
      "t": 187086.23999999993,
      "d": 1874.9962499999965,
      "v": 99
    },
    {
      "midi": 57,
      "hit": false,
      "t": 187086.23999999993,
      "d": 3809.047500000015,
      "v": 100
    },
    {
      "midi": 33,
      "hit": false,
      "t": 187086.24000000008,
      "d": 531.4949999999953,
      "v": 101
    },
    {
      "midi": 60,
      "hit": false,
      "t": 187322.46000000014,
      "d": 108.2674999999872,
      "v": 101
    },
    {
      "midi": 64,
      "hit": false,
      "t": 187322.46000000014,
      "d": 130.41312499999185,
      "v": 98
    },
    {
      "midi": 57,
      "hit": false,
      "t": 187322.46000000014,
      "d": 137.7949999999837,
      "v": 98
    },
    {
      "midi": 64,
      "hit": false,
      "t": 187322.4600000003,
      "d": 118.10999999998603,
      "v": 115
    },
    {
      "midi": 60,
      "hit": false,
      "t": 187558.6800000001,
      "d": 88.58249999998952,
      "v": 103
    },
    {
      "midi": 57,
      "hit": false,
      "t": 187558.6800000001,
      "d": 100.88562499999534,
      "v": 101
    },
    {
      "midi": 64,
      "hit": false,
      "t": 187558.6800000001,
      "d": 120.57062499999302,
      "v": 98
    },
    {
      "midi": 64,
      "hit": false,
      "t": 187558.68000000028,
      "d": 130.41312499999185,
      "v": 112
    },
    {
      "midi": 33,
      "hit": false,
      "t": 187794.90000000008,
      "d": 100.88562499999534,
      "v": 110
    },
    {
      "midi": 60,
      "hit": false,
      "t": 187794.9000000001,
      "d": 88.58249999998952,
      "v": 107
    },
    {
      "midi": 57,
      "hit": false,
      "t": 187794.9000000001,
      "d": 98.42499999998836,
      "v": 101
    },
    {
      "midi": 64,
      "hit": false,
      "t": 187794.9000000001,
      "d": 110.72812499999418,
      "v": 101
    },
    {
      "midi": 64,
      "hit": false,
      "t": 187794.90000000029,
      "d": 103.34625000000233,
      "v": 106
    },
    {
      "midi": 33,
      "hit": false,
      "t": 188031.12000000008,
      "d": 125.49187500000698,
      "v": 112
    },
    {
      "midi": 60,
      "hit": false,
      "t": 188031.1200000001,
      "d": 369.09375,
      "v": 103
    },
    {
      "midi": 57,
      "hit": false,
      "t": 188031.1200000001,
      "d": 374.01500000001397,
      "v": 102
    },
    {
      "midi": 64,
      "hit": false,
      "t": 188031.1200000001,
      "d": 376.47562500002095,
      "v": 103
    },
    {
      "midi": 64,
      "hit": false,
      "t": 188031.1200000003,
      "d": 364.17249999998603,
      "v": 114
    },
    {
      "midi": 33,
      "hit": false,
      "t": 188267.34000000008,
      "d": 376.47562499999185,
      "v": 103
    },
    {
      "midi": 60,
      "hit": false,
      "t": 188503.56000000014,
      "d": 120.57062499999302,
      "v": 102
    },
    {
      "midi": 57,
      "hit": false,
      "t": 188503.56000000014,
      "d": 125.49187500000698,
      "v": 95
    },
    {
      "midi": 64,
      "hit": false,
      "t": 188503.56000000014,
      "d": 132.87374999999884,
      "v": 95
    },
    {
      "midi": 64,
      "hit": false,
      "t": 188503.56000000026,
      "d": 130.41312499999185,
      "v": 113
    },
    {
      "midi": 33,
      "hit": false,
      "t": 188739.7800000001,
      "d": 137.7950000000128,
      "v": 102
    },
    {
      "midi": 57,
      "hit": false,
      "t": 188739.78000000014,
      "d": 110.72812499999418,
      "v": 99
    },
    {
      "midi": 60,
      "hit": false,
      "t": 188739.78000000014,
      "d": 115.64937500000815,
      "v": 101
    },
    {
      "midi": 64,
      "hit": false,
      "t": 188739.78000000014,
      "d": 125.49187500000698,
      "v": 97
    },
    {
      "midi": 64,
      "hit": false,
      "t": 188739.78000000026,
      "d": 142.71624999999767,
      "v": 105
    },
    {
      "midi": 62,
      "hit": false,
      "t": 188975.99999999948,
      "d": 1911.9056249999849,
      "v": 99
    },
    {
      "midi": 65,
      "hit": false,
      "t": 188975.99999999948,
      "d": 1929.1299999999756,
      "v": 103
    },
    {
      "midi": 50,
      "hit": false,
      "t": 188975.99999999988,
      "d": 1865.1537499999977,
      "v": 96
    },
    {
      "midi": 50,
      "hit": false,
      "t": 188975.99999999994,
      "d": 1916.8268749999988,
      "v": 100
    },
    {
      "midi": 26,
      "hit": false,
      "t": 188976.0000000001,
      "d": 521.6524999999965,
      "v": 102
    },
    {
      "midi": 57,
      "hit": false,
      "t": 188976.00000000015,
      "d": 123.03125,
      "v": 104
    },
    {
      "midi": 60,
      "hit": false,
      "t": 188976.00000000015,
      "d": 140.2556249999907,
      "v": 97
    },
    {
      "midi": 64,
      "hit": false,
      "t": 188976.00000000015,
      "d": 142.71624999999767,
      "v": 93
    },
    {
      "midi": 64,
      "hit": false,
      "t": 188976.00000000026,
      "d": 147.63750000001164,
      "v": 114
    },
    {
      "midi": 62,
      "hit": false,
      "t": 189212.22000000015,
      "d": 115.64937500000815,
      "v": 99
    },
    {
      "midi": 57,
      "hit": false,
      "t": 189212.22000000015,
      "d": 118.11000000001513,
      "v": 100
    },
    {
      "midi": 65,
      "hit": false,
      "t": 189212.22000000015,
      "d": 120.57062500002212,
      "v": 97
    },
    {
      "midi": 65,
      "hit": false,
      "t": 189212.22000000026,
      "d": 169.7831249999872,
      "v": 108
    },
    {
      "midi": 65,
      "hit": false,
      "t": 189448.44000000018,
      "d": 361.71187500000815,
      "v": 99
    },
    {
      "midi": 57,
      "hit": false,
      "t": 189448.44000000018,
      "d": 364.17250000001513,
      "v": 100
    },
    {
      "midi": 62,
      "hit": false,
      "t": 189448.44000000018,
      "d": 374.01500000001397,
      "v": 99
    },
    {
      "midi": 65,
      "hit": false,
      "t": 189448.44000000026,
      "d": 374.01500000001397,
      "v": 105
    },
    {
      "midi": 26,
      "hit": false,
      "t": 189684.6600000001,
      "d": 100.88562499999534,
      "v": 102
    },
    {
      "midi": 26,
      "hit": false,
      "t": 189920.8800000001,
      "d": 118.10999999998603,
      "v": 94
    },
    {
      "midi": 62,
      "hit": false,
      "t": 189920.88000000018,
      "d": 322.3418750000128,
      "v": 102
    },
    {
      "midi": 65,
      "hit": false,
      "t": 189920.88000000018,
      "d": 361.71187500000815,
      "v": 99
    },
    {
      "midi": 57,
      "hit": false,
      "t": 189920.88000000018,
      "d": 371.554375000007,
      "v": 104
    },
    {
      "midi": 65,
      "hit": false,
      "t": 189920.88000000027,
      "d": 351.8693750000093,
      "v": 109
    },
    {
      "midi": 26,
      "hit": false,
      "t": 190157.10000000006,
      "d": 364.17249999998603,
      "v": 98
    },
    {
      "midi": 60,
      "hit": false,
      "t": 190275.2100000002,
      "d": 135.33437499997672,
      "v": 85
    },
    {
      "midi": 64,
      "hit": false,
      "t": 190275.2100000002,
      "d": 142.71624999996857,
      "v": 86
    },
    {
      "midi": 64,
      "hit": false,
      "t": 190275.21000000028,
      "d": 115.64937500000815,
      "v": 88
    },
    {
      "midi": 62,
      "hit": false,
      "t": 190393.32000000018,
      "d": 297.73562499997206,
      "v": 87
    },
    {
      "midi": 62,
      "hit": false,
      "t": 190393.3200000003,
      "d": 258.3656250000058,
      "v": 85
    },
    {
      "midi": 26,
      "hit": false,
      "t": 190629.54000000004,
      "d": 147.63750000001164,
      "v": 99
    },
    {
      "midi": 59,
      "hit": false,
      "t": 190865.75999999946,
      "d": 1887.2993750000023,
      "v": 103
    },
    {
      "midi": 56,
      "hit": false,
      "t": 190865.75999999946,
      "d": 1899.6025000000081,
      "v": 108
    },
    {
      "midi": 64,
      "hit": false,
      "t": 190865.75999999946,
      "d": 1919.2875000000058,
      "v": 100
    },
    {
      "midi": 52,
      "hit": false,
      "t": 190865.7599999999,
      "d": 1919.2875000000058,
      "v": 83
    },
    {
      "midi": 52,
      "hit": false,
      "t": 190865.75999999995,
      "d": 1833.1656249999942,
      "v": 98
    },
    {
      "midi": 59,
      "hit": false,
      "t": 190865.75999999995,
      "d": 1904.523749999993,
      "v": 101
    },
    {
      "midi": 28,
      "hit": false,
      "t": 190865.76000000004,
      "d": 533.9556250000023,
      "v": 111
    },
    {
      "midi": 59,
      "hit": false,
      "t": 191101.98000000016,
      "d": 81.20062499999767,
      "v": 99
    },
    {
      "midi": 64,
      "hit": false,
      "t": 191101.98000000016,
      "d": 115.64937500000815,
      "v": 97
    },
    {
      "midi": 56,
      "hit": false,
      "t": 191101.98000000016,
      "d": 120.57062500002212,
      "v": 103
    },
    {
      "midi": 64,
      "hit": false,
      "t": 191101.9800000003,
      "d": 110.72812499999418,
      "v": 115
    },
    {
      "midi": 59,
      "hit": false,
      "t": 191338.2000000002,
      "d": 93.50375000000349,
      "v": 93
    },
    {
      "midi": 56,
      "hit": false,
      "t": 191338.2000000002,
      "d": 110.72812499999418,
      "v": 95
    },
    {
      "midi": 64,
      "hit": false,
      "t": 191338.2000000002,
      "d": 118.10999999998603,
      "v": 92
    },
    {
      "midi": 64,
      "hit": false,
      "t": 191338.2000000003,
      "d": 137.7950000000128,
      "v": 108
    },
    {
      "midi": 28,
      "hit": false,
      "t": 191574.42000000004,
      "d": 93.50375000000349,
      "v": 107
    },
    {
      "midi": 59,
      "hit": false,
      "t": 191574.42000000016,
      "d": 86.12187500001164,
      "v": 88
    },
    {
      "midi": 56,
      "hit": false,
      "t": 191574.42000000016,
      "d": 98.42500000001746,
      "v": 104
    },
    {
      "midi": 64,
      "hit": false,
      "t": 191574.42000000016,
      "d": 103.34625000003143,
      "v": 102
    },
    {
      "midi": 64,
      "hit": false,
      "t": 191574.4200000003,
      "d": 127.95250000001397,
      "v": 106
    },
    {
      "midi": 28,
      "hit": false,
      "t": 191810.64000000004,
      "d": 113.18875000000116,
      "v": 100
    },
    {
      "midi": 59,
      "hit": false,
      "t": 191810.6400000002,
      "d": 71.35812499999884,
      "v": 100
    },
    {
      "midi": 56,
      "hit": false,
      "t": 191810.6400000002,
      "d": 81.20062499999767,
      "v": 104
    },
    {
      "midi": 64,
      "hit": false,
      "t": 191810.6400000002,
      "d": 98.42499999998836,
      "v": 101
    },
    {
      "midi": 64,
      "hit": false,
      "t": 191810.6400000003,
      "d": 150.09812499998952,
      "v": 109
    },
    {
      "midi": 28,
      "hit": false,
      "t": 192046.86000000004,
      "d": 359.25125000000116,
      "v": 105
    },
    {
      "midi": 59,
      "hit": false,
      "t": 192046.8600000002,
      "d": 314.95999999999185,
      "v": 89
    },
    {
      "midi": 64,
      "hit": false,
      "t": 192046.8600000002,
      "d": 344.48749999998836,
      "v": 101
    },
    {
      "midi": 56,
      "hit": false,
      "t": 192046.8600000002,
      "d": 346.94812499999534,
      "v": 105
    },
    {
      "midi": 64,
      "hit": false,
      "t": 192046.8600000003,
      "d": 661.9081249999872,
      "v": 109
    },
    {
      "midi": 28,
      "hit": false,
      "t": 192519.30000000005,
      "d": 125.49187500000698,
      "v": 103
    },
    {
      "midi": 59,
      "hit": false,
      "t": 192519.3000000002,
      "d": 118.10999999998603,
      "v": 95
    },
    {
      "midi": 64,
      "hit": false,
      "t": 192519.3000000002,
      "d": 137.7949999999837,
      "v": 97
    },
    {
      "midi": 56,
      "hit": false,
      "t": 192519.3000000002,
      "d": 174.70437499997206,
      "v": 101
    },
    {
      "midi": 57,
      "hit": false,
      "t": 192755.51999999947,
      "d": 1712.5950000000012,
      "v": 108
    },
    {
      "midi": 66,
      "hit": false,
      "t": 192755.51999999947,
      "d": 1732.2799999999988,
      "v": 103
    },
    {
      "midi": 50,
      "hit": false,
      "t": 192755.5199999999,
      "d": 5669.279999999999,
      "v": 92
    },
    {
      "midi": 57,
      "hit": false,
      "t": 192755.51999999993,
      "d": 1680.6068749999977,
      "v": 102
    },
    {
      "midi": 50,
      "hit": false,
      "t": 192755.51999999993,
      "d": 5659.4375,
      "v": 99
    },
    {
      "midi": 26,
      "hit": false,
      "t": 192755.52000000005,
      "d": 511.8099999999977,
      "v": 102
    },
    {
      "midi": 62,
      "hit": false,
      "t": 192755.52000000016,
      "d": 1363.1862499999988,
      "v": 96
    },
    {
      "midi": 57,
      "hit": false,
      "t": 192755.52000000016,
      "d": 1368.1075000000128,
      "v": 96
    },
    {
      "midi": 66,
      "hit": false,
      "t": 192755.52000000016,
      "d": 1422.241250000021,
      "v": 106
    },
    {
      "midi": 66,
      "hit": false,
      "t": 192755.52000000028,
      "d": 1397.6350000000093,
      "v": 117
    },
    {
      "midi": 26,
      "hit": false,
      "t": 193464.18000000005,
      "d": 108.2674999999872,
      "v": 107
    },
    {
      "midi": 26,
      "hit": false,
      "t": 193700.40000000005,
      "d": 824.3093750000116,
      "v": 113
    },
    {
      "midi": 57,
      "hit": false,
      "t": 194172.84000000017,
      "d": 145.17687500000466,
      "v": 91
    },
    {
      "midi": 62,
      "hit": false,
      "t": 194172.84000000017,
      "d": 159.94062500001746,
      "v": 102
    },
    {
      "midi": 62,
      "hit": false,
      "t": 194172.8400000003,
      "d": 233.75937499999418,
      "v": 109
    },
    {
      "midi": 59,
      "hit": false,
      "t": 194409.05999999947,
      "d": 3986.212499999994,
      "v": 102
    },
    {
      "midi": 67,
      "hit": false,
      "t": 194409.05999999947,
      "d": 4003.436874999985,
      "v": 103
    },
    {
      "midi": 59,
      "hit": false,
      "t": 194409.05999999994,
      "d": 4003.436874999985,
      "v": 104
    },
    {
      "midi": 62,
      "hit": false,
      "t": 194409.0600000002,
      "d": 2738.6756250000035,
      "v": 106
    },
    {
      "midi": 67,
      "hit": false,
      "t": 194409.0600000002,
      "d": 2787.8881249999977,
      "v": 99
    },
    {
      "midi": 59,
      "hit": false,
      "t": 194409.0600000002,
      "d": 3870.563125000015,
      "v": 90
    },
    {
      "midi": 67,
      "hit": false,
      "t": 194409.0600000003,
      "d": 2706.6875,
      "v": 111
    },
    {
      "midi": 26,
      "hit": false,
      "t": 194645.28000000006,
      "d": 501.96749999999884,
      "v": 112
    },
    {
      "midi": 26,
      "hit": false,
      "t": 195353.94000000006,
      "d": 98.42499999998836,
      "v": 104
    },
    {
      "midi": 26,
      "hit": false,
      "t": 195590.16000000006,
      "d": 787.3999999999942,
      "v": 101
    },
    {
      "midi": 71,
      "hit": false,
      "t": 196298.8200000002,
      "d": 868.6006249999919,
      "v": 102
    },
    {
      "midi": 26,
      "hit": false,
      "t": 196535.04000000007,
      "d": 509.3493749999907,
      "v": 114
    },
    {
      "midi": 26,
      "hit": false,
      "t": 197243.70000000007,
      "d": 118.10999999998603,
      "v": 108
    },
    {
      "midi": 62,
      "hit": false,
      "t": 197243.7000000002,
      "d": 388.7787499999977,
      "v": 103
    },
    {
      "midi": 62,
      "hit": false,
      "t": 197243.7000000003,
      "d": 140.2556249999907,
      "v": 113
    },
    {
      "midi": 26,
      "hit": false,
      "t": 197479.92000000004,
      "d": 804.624375000014,
      "v": 110
    },
    {
      "midi": 71,
      "hit": false,
      "t": 197479.9200000002,
      "d": 159.94062499998836,
      "v": 99
    },
    {
      "midi": 67,
      "hit": false,
      "t": 197479.9200000002,
      "d": 184.546875,
      "v": 106
    },
    {
      "midi": 67,
      "hit": false,
      "t": 197479.9200000003,
      "d": 167.3225000000093,
      "v": 106
    },
    {
      "midi": 71,
      "hit": false,
      "t": 197716.1400000002,
      "d": 162.40124999999534,
      "v": 95
    },
    {
      "midi": 67,
      "hit": false,
      "t": 197716.1400000002,
      "d": 182.08624999999302,
      "v": 91
    },
    {
      "midi": 67,
      "hit": false,
      "t": 197716.1400000003,
      "d": 179.62562499998603,
      "v": 105
    },
    {
      "midi": 67,
      "hit": false,
      "t": 197952.3600000002,
      "d": 137.7950000000128,
      "v": 102
    },
    {
      "midi": 71,
      "hit": false,
      "t": 197952.3600000002,
      "d": 140.2556250000198,
      "v": 84
    },
    {
      "midi": 67,
      "hit": false,
      "t": 197952.36000000028,
      "d": 216.5350000000035,
      "v": 111
    },
    {
      "midi": 66,
      "hit": false,
      "t": 198188.58000000022,
      "d": 118.10999999998603,
      "v": 100
    },
    {
      "midi": 69,
      "hit": false,
      "t": 198188.58000000022,
      "d": 167.3224999999802,
      "v": 100
    },
    {
      "midi": 66,
      "hit": false,
      "t": 198188.58000000028,
      "d": 115.64937500000815,
      "v": 104
    },
    {
      "midi": 64,
      "hit": false,
      "t": 198306.6900000002,
      "d": 127.95249999998487,
      "v": 92
    },
    {
      "midi": 67,
      "hit": false,
      "t": 198306.6900000002,
      "d": 132.87374999999884,
      "v": 89
    },
    {
      "midi": 64,
      "hit": false,
      "t": 198306.6900000003,
      "d": 115.64937500000815,
      "v": 109
    },
    {
      "midi": 62,
      "hit": false,
      "t": 198424.79999999946,
      "d": 29.527499999996508,
      "v": 78
    },
    {
      "midi": 57,
      "hit": false,
      "t": 198424.79999999946,
      "d": 1594.484999999986,
      "v": 80
    },
    {
      "midi": 66,
      "hit": false,
      "t": 198424.79999999946,
      "d": 1683.0674999999756,
      "v": 80
    },
    {
      "midi": 50,
      "hit": false,
      "t": 198424.7999999999,
      "d": 1574.7999999999884,
      "v": 105
    },
    {
      "midi": 57,
      "hit": false,
      "t": 198424.79999999993,
      "d": 1673.2250000000058,
      "v": 93
    },
    {
      "midi": 50,
      "hit": false,
      "t": 198424.79999999993,
      "d": 15061.48562500006,
      "v": 91
    },
    {
      "midi": 86,
      "hit": false,
      "t": 198424.79999999993,
      "d": 45302.566875000164,
      "v": 75
    },
    {
      "midi": 74,
      "hit": false,
      "t": 198424.79999999996,
      "d": 147.63750000001164,
      "v": 84
    },
    {
      "midi": 26,
      "hit": false,
      "t": 198424.80000000005,
      "d": 526.5737500000105,
      "v": 105
    },
    {
      "midi": 57,
      "hit": false,
      "t": 198424.8000000002,
      "d": 912.8918750000012,
      "v": 82
    },
    {
      "midi": 62,
      "hit": false,
      "t": 198424.8000000002,
      "d": 915.3525000000081,
      "v": 100
    },
    {
      "midi": 66,
      "hit": false,
      "t": 198424.8000000002,
      "d": 915.3525000000081,
      "v": 98
    },
    {
      "midi": 62,
      "hit": false,
      "t": 198424.8000000003,
      "d": 1360.7256249999919,
      "v": 103
    },
    {
      "midi": 74,
      "hit": false,
      "t": 198897.23999999996,
      "d": 142.71624999999767,
      "v": 92
    },
    {
      "midi": 76,
      "hit": false,
      "t": 199133.45999999996,
      "d": 137.7950000000128,
      "v": 73
    },
    {
      "midi": 26,
      "hit": false,
      "t": 199133.46000000005,
      "d": 105.80687500000931,
      "v": 96
    },
    {
      "midi": 73,
      "hit": false,
      "t": 199369.67999999996,
      "d": 147.63750000001164,
      "v": 78
    },
    {
      "midi": 26,
      "hit": false,
      "t": 199369.68000000005,
      "d": 511.8099999999977,
      "v": 100
    },
    {
      "midi": 74,
      "hit": false,
      "t": 199605.89999999997,
      "d": 159.94062499998836,
      "v": 87
    },
    {
      "midi": 66,
      "hit": false,
      "t": 199842.1200000002,
      "d": 228.8381250000093,
      "v": 109
    },
    {
      "midi": 69,
      "hit": false,
      "t": 199842.1200000002,
      "d": 302.65687500001513,
      "v": 100
    },
    {
      "midi": 66,
      "hit": false,
      "t": 199842.1200000003,
      "d": 233.75937499999418,
      "v": 119
    },
    {
      "midi": 59,
      "hit": false,
      "t": 200078.33999999944,
      "d": 1988.1849999999977,
      "v": 82
    },
    {
      "midi": 67,
      "hit": false,
      "t": 200078.33999999944,
      "d": 2103.834375000006,
      "v": 86
    },
    {
      "midi": 50,
      "hit": false,
      "t": 200078.33999999988,
      "d": 1968.5,
      "v": 99
    },
    {
      "midi": 59,
      "hit": false,
      "t": 200078.33999999994,
      "d": 2116.1375000000116,
      "v": 89
    },
    {
      "midi": 64,
      "hit": false,
      "t": 200078.3400000002,
      "d": 433.070000000007,
      "v": 94
    },
    {
      "midi": 67,
      "hit": false,
      "t": 200078.3400000002,
      "d": 445.3731250000128,
      "v": 94
    },
    {
      "midi": 64,
      "hit": false,
      "t": 200078.3400000003,
      "d": 469.97937499999534,
      "v": 111
    },
    {
      "midi": 74,
      "hit": false,
      "t": 200314.55999999994,
      "d": 145.17687500000466,
      "v": 86
    },
    {
      "midi": 26,
      "hit": false,
      "t": 200314.56000000006,
      "d": 482.28250000000116,
      "v": 97
    },
    {
      "midi": 62,
      "hit": false,
      "t": 200550.7800000002,
      "d": 167.3225000000093,
      "v": 78
    },
    {
      "midi": 66,
      "hit": false,
      "t": 200550.7800000002,
      "d": 167.3225000000093,
      "v": 87
    },
    {
      "midi": 62,
      "hit": false,
      "t": 200550.7800000003,
      "d": 157.48000000001048,
      "v": 76
    },
    {
      "midi": 74,
      "hit": false,
      "t": 200786.99999999994,
      "d": 132.87374999999884,
      "v": 84
    },
    {
      "midi": 76,
      "hit": false,
      "t": 201023.21999999994,
      "d": 125.49187500000698,
      "v": 79
    },
    {
      "midi": 26,
      "hit": false,
      "t": 201023.22000000006,
      "d": 110.72812499999418,
      "v": 104
    },
    {
      "midi": 62,
      "hit": false,
      "t": 201023.2200000003,
      "d": 127.95250000001397,
      "v": 115
    },
    {
      "midi": 73,
      "hit": false,
      "t": 201259.43999999994,
      "d": 140.2556249999907,
      "v": 84
    },
    {
      "midi": 26,
      "hit": false,
      "t": 201259.44000000006,
      "d": 467.51874999998836,
      "v": 98
    },
    {
      "midi": 71,
      "hit": false,
      "t": 201259.4400000002,
      "d": 169.7831249999872,
      "v": 103
    },
    {
      "midi": 67,
      "hit": false,
      "t": 201259.4400000002,
      "d": 172.24374999999418,
      "v": 105
    },
    {
      "midi": 67,
      "hit": false,
      "t": 201259.4400000003,
      "d": 140.2556249999907,
      "v": 110
    },
    {
      "midi": 74,
      "hit": false,
      "t": 201495.65999999995,
      "d": 172.24374999999418,
      "v": 90
    },
    {
      "midi": 67,
      "hit": false,
      "t": 201495.6600000002,
      "d": 123.03125,
      "v": 100
    },
    {
      "midi": 71,
      "hit": false,
      "t": 201495.6600000002,
      "d": 147.63750000001164,
      "v": 100
    },
    {
      "midi": 67,
      "hit": false,
      "t": 201495.6600000003,
      "d": 162.40124999999534,
      "v": 112
    },
    {
      "midi": 67,
      "hit": false,
      "t": 201731.8800000002,
      "d": 187.00750000000698,
      "v": 96
    },
    {
      "midi": 71,
      "hit": false,
      "t": 201731.8800000002,
      "d": 211.61375000001863,
      "v": 90
    },
    {
      "midi": 67,
      "hit": false,
      "t": 201731.8800000003,
      "d": 233.75937499999418,
      "v": 112
    },
    {
      "midi": 79,
      "hit": false,
      "t": 201968.09999999995,
      "d": 157.48000000001048,
      "v": 86
    },
    {
      "midi": 66,
      "hit": false,
      "t": 201968.10000000024,
      "d": 118.10999999998603,
      "v": 91
    },
    {
      "midi": 69,
      "hit": false,
      "t": 201968.10000000024,
      "d": 137.7949999999837,
      "v": 99
    },
    {
      "midi": 66,
      "hit": false,
      "t": 201968.1000000003,
      "d": 115.64937500000815,
      "v": 102
    },
    {
      "midi": 67,
      "hit": false,
      "t": 202086.21000000022,
      "d": 127.95249999998487,
      "v": 88
    },
    {
      "midi": 64,
      "hit": false,
      "t": 202086.21000000022,
      "d": 137.7949999999837,
      "v": 84
    },
    {
      "midi": 64,
      "hit": false,
      "t": 202086.2100000003,
      "d": 115.64937500000815,
      "v": 106
    },
    {
      "midi": 57,
      "hit": false,
      "t": 202204.31999999945,
      "d": 1599.40625,
      "v": 79
    },
    {
      "midi": 66,
      "hit": false,
      "t": 202204.31999999945,
      "d": 1702.7525000000023,
      "v": 79
    },
    {
      "midi": 50,
      "hit": false,
      "t": 202204.3199999999,
      "d": 1564.9574999999895,
      "v": 100
    },
    {
      "midi": 57,
      "hit": false,
      "t": 202204.31999999995,
      "d": 1663.382500000007,
      "v": 91
    },
    {
      "midi": 78,
      "hit": false,
      "t": 202204.31999999995,
      "d": 108.2674999999872,
      "v": 86
    },
    {
      "midi": 26,
      "hit": false,
      "t": 202204.32000000004,
      "d": 482.28250000000116,
      "v": 96
    },
    {
      "midi": 62,
      "hit": false,
      "t": 202204.3200000002,
      "d": 1232.773125000007,
      "v": 92
    },
    {
      "midi": 66,
      "hit": false,
      "t": 202204.3200000002,
      "d": 1259.8399999999965,
      "v": 107
    },
    {
      "midi": 62,
      "hit": false,
      "t": 202204.32000000033,
      "d": 1353.34375,
      "v": 105
    },
    {
      "midi": 74,
      "hit": false,
      "t": 202440.53999999995,
      "d": 95.96437500001048,
      "v": 78
    },
    {
      "midi": 69,
      "hit": false,
      "t": 202676.75999999995,
      "d": 127.95250000001397,
      "v": 80
    },
    {
      "midi": 67,
      "hit": false,
      "t": 202912.97999999995,
      "d": 135.33437500000582,
      "v": 84
    },
    {
      "midi": 26,
      "hit": false,
      "t": 202912.98000000004,
      "d": 125.49187500000698,
      "v": 96
    },
    {
      "midi": 69,
      "hit": false,
      "t": 203149.19999999995,
      "d": 152.5587499999965,
      "v": 84
    },
    {
      "midi": 26,
      "hit": false,
      "t": 203149.20000000004,
      "d": 497.04625000001397,
      "v": 97
    },
    {
      "midi": 74,
      "hit": false,
      "t": 203385.41999999995,
      "d": 137.7950000000128,
      "v": 88
    },
    {
      "midi": 66,
      "hit": false,
      "t": 203621.64000000022,
      "d": 177.16500000000815,
      "v": 103
    },
    {
      "midi": 69,
      "hit": false,
      "t": 203621.64000000022,
      "d": 187.00750000000698,
      "v": 101
    },
    {
      "midi": 66,
      "hit": false,
      "t": 203621.64000000033,
      "d": 206.69250000000466,
      "v": 110
    },
    {
      "midi": 59,
      "hit": false,
      "t": 203857.85999999946,
      "d": 1953.7362499999872,
      "v": 83
    },
    {
      "midi": 67,
      "hit": false,
      "t": 203857.85999999946,
      "d": 2054.6218749999825,
      "v": 87
    },
    {
      "midi": 50,
      "hit": false,
      "t": 203857.85999999987,
      "d": 2002.9487500000105,
      "v": 94
    },
    {
      "midi": 59,
      "hit": false,
      "t": 203857.85999999996,
      "d": 2106.295000000013,
      "v": 93
    },
    {
      "midi": 64,
      "hit": false,
      "t": 203857.86000000022,
      "d": 455.21562500001164,
      "v": 96
    },
    {
      "midi": 67,
      "hit": false,
      "t": 203857.86000000022,
      "d": 477.3612500000163,
      "v": 102
    },
    {
      "midi": 64,
      "hit": false,
      "t": 203857.86000000034,
      "d": 469.97937499999534,
      "v": 108
    },
    {
      "midi": 71,
      "hit": false,
      "t": 204094.07999999996,
      "d": 118.10999999998603,
      "v": 88
    },
    {
      "midi": 26,
      "hit": false,
      "t": 204094.08000000005,
      "d": 497.04625000001397,
      "v": 101
    },
    {
      "midi": 69,
      "hit": false,
      "t": 204330.29999999993,
      "d": 118.10999999998603,
      "v": 87
    },
    {
      "midi": 66,
      "hit": false,
      "t": 204330.30000000022,
      "d": 150.09812500001863,
      "v": 95
    },
    {
      "midi": 62,
      "hit": false,
      "t": 204330.30000000022,
      "d": 169.7831250000163,
      "v": 84
    },
    {
      "midi": 62,
      "hit": false,
      "t": 204330.30000000034,
      "d": 159.94062499998836,
      "v": 103
    },
    {
      "midi": 67,
      "hit": false,
      "t": 204566.5199999999,
      "d": 878.4431249999907,
      "v": 83
    },
    {
      "midi": 26,
      "hit": false,
      "t": 204802.74000000005,
      "d": 125.49187500000698,
      "v": 102
    },
    {
      "midi": 66,
      "hit": false,
      "t": 204802.74000000022,
      "d": 105.80687500000931,
      "v": 109
    },
    {
      "midi": 62,
      "hit": false,
      "t": 204802.74000000022,
      "d": 147.63750000001164,
      "v": 89
    },
    {
      "midi": 62,
      "hit": false,
      "t": 204802.74000000034,
      "d": 140.2556249999907,
      "v": 109
    },
    {
      "midi": 26,
      "hit": false,
      "t": 205038.96000000005,
      "d": 442.9125000000058,
      "v": 105
    },
    {
      "midi": 67,
      "hit": false,
      "t": 205038.96000000022,
      "d": 108.2674999999872,
      "v": 98
    },
    {
      "midi": 71,
      "hit": false,
      "t": 205038.96000000022,
      "d": 115.64937499997905,
      "v": 110
    },
    {
      "midi": 67,
      "hit": false,
      "t": 205038.96000000034,
      "d": 142.71624999999767,
      "v": 106
    },
    {
      "midi": 67,
      "hit": false,
      "t": 205275.1800000002,
      "d": 120.57062499999302,
      "v": 96
    },
    {
      "midi": 71,
      "hit": false,
      "t": 205275.1800000002,
      "d": 125.49187500000698,
      "v": 96
    },
    {
      "midi": 67,
      "hit": false,
      "t": 205275.18000000034,
      "d": 164.86187500000233,
      "v": 111
    },
    {
      "midi": 74,
      "hit": false,
      "t": 205511.3999999999,
      "d": 231.2987499999872,
      "v": 90
    },
    {
      "midi": 71,
      "hit": false,
      "t": 205511.4000000002,
      "d": 177.16500000000815,
      "v": 99
    },
    {
      "midi": 67,
      "hit": false,
      "t": 205511.4000000002,
      "d": 182.08625000002212,
      "v": 99
    },
    {
      "midi": 67,
      "hit": false,
      "t": 205511.40000000034,
      "d": 216.5350000000035,
      "v": 106
    },
    {
      "midi": 73,
      "hit": false,
      "t": 205747.6199999999,
      "d": 157.48000000001048,
      "v": 85
    },
    {
      "midi": 66,
      "hit": false,
      "t": 205747.62000000023,
      "d": 86.12187500001164,
      "v": 99
    },
    {
      "midi": 69,
      "hit": false,
      "t": 205747.62000000023,
      "d": 108.2675000000163,
      "v": 89
    },
    {
      "midi": 66,
      "hit": false,
      "t": 205747.62000000034,
      "d": 115.64937500000815,
      "v": 105
    },
    {
      "midi": 57,
      "hit": false,
      "t": 205865.72999999946,
      "d": 1614.1699999999837,
      "v": 82
    },
    {
      "midi": 66,
      "hit": false,
      "t": 205865.72999999946,
      "d": 1710.1343749999942,
      "v": 85
    },
    {
      "midi": 67,
      "hit": false,
      "t": 205865.73000000024,
      "d": 103.34625000000233,
      "v": 90
    },
    {
      "midi": 64,
      "hit": false,
      "t": 205865.73000000024,
      "d": 127.95250000001397,
      "v": 86
    },
    {
      "midi": 64,
      "hit": false,
      "t": 205865.73000000036,
      "d": 115.64937500000815,
      "v": 102
    },
    {
      "midi": 50,
      "hit": false,
      "t": 205983.83999999988,
      "d": 1601.866875000007,
      "v": 92
    },
    {
      "midi": 74,
      "hit": false,
      "t": 205983.8399999999,
      "d": 147.63750000001164,
      "v": 89
    },
    {
      "midi": 57,
      "hit": false,
      "t": 205983.83999999997,
      "d": 1683.0675000000047,
      "v": 90
    },
    {
      "midi": 26,
      "hit": false,
      "t": 205983.84000000005,
      "d": 543.7981250000012,
      "v": 104
    },
    {
      "midi": 62,
      "hit": false,
      "t": 205983.84000000026,
      "d": 1232.773125000007,
      "v": 97
    },
    {
      "midi": 66,
      "hit": false,
      "t": 205983.84000000026,
      "d": 1259.8399999999965,
      "v": 104
    },
    {
      "midi": 62,
      "hit": false,
      "t": 205983.84000000037,
      "d": 1353.34375,
      "v": 104
    },
    {
      "midi": 74,
      "hit": false,
      "t": 206456.2799999999,
      "d": 142.71624999999767,
      "v": 92
    },
    {
      "midi": 76,
      "hit": false,
      "t": 206692.4999999999,
      "d": 137.7950000000128,
      "v": 78
    },
    {
      "midi": 26,
      "hit": false,
      "t": 206692.50000000006,
      "d": 113.18875000000116,
      "v": 98
    },
    {
      "midi": 73,
      "hit": false,
      "t": 206928.7199999999,
      "d": 147.63750000001164,
      "v": 86
    },
    {
      "midi": 26,
      "hit": false,
      "t": 206928.72000000006,
      "d": 455.21562500001164,
      "v": 101
    },
    {
      "midi": 74,
      "hit": false,
      "t": 207164.93999999992,
      "d": 159.94062499998836,
      "v": 87
    },
    {
      "midi": 66,
      "hit": false,
      "t": 207401.16000000027,
      "d": 177.16500000000815,
      "v": 99
    },
    {
      "midi": 69,
      "hit": false,
      "t": 207401.16000000027,
      "d": 187.00750000000698,
      "v": 100
    },
    {
      "midi": 66,
      "hit": false,
      "t": 207401.16000000038,
      "d": 206.69250000000466,
      "v": 115
    },
    {
      "midi": 59,
      "hit": false,
      "t": 207637.37999999945,
      "d": 1988.1849999999977,
      "v": 80
    },
    {
      "midi": 67,
      "hit": false,
      "t": 207637.37999999945,
      "d": 2079.228124999994,
      "v": 85
    },
    {
      "midi": 50,
      "hit": false,
      "t": 207637.3799999999,
      "d": 1985.7243749999907,
      "v": 90
    },
    {
      "midi": 59,
      "hit": false,
      "t": 207637.37999999998,
      "d": 2081.688750000001,
      "v": 87
    },
    {
      "midi": 64,
      "hit": false,
      "t": 207637.38000000027,
      "d": 455.21562500001164,
      "v": 92
    },
    {
      "midi": 67,
      "hit": false,
      "t": 207637.38000000027,
      "d": 477.3612500000163,
      "v": 101
    },
    {
      "midi": 64,
      "hit": false,
      "t": 207637.38000000038,
      "d": 469.97937499999534,
      "v": 103
    },
    {
      "midi": 74,
      "hit": false,
      "t": 207873.5999999999,
      "d": 145.17687500000466,
      "v": 86
    },
    {
      "midi": 26,
      "hit": false,
      "t": 207873.60000000006,
      "d": 489.664374999993,
      "v": 99
    },
    {
      "midi": 66,
      "hit": false,
      "t": 208109.82000000027,
      "d": 150.09812500001863,
      "v": 96
    },
    {
      "midi": 62,
      "hit": false,
      "t": 208109.82000000027,
      "d": 169.7831250000163,
      "v": 82
    },
    {
      "midi": 62,
      "hit": false,
      "t": 208109.82000000039,
      "d": 159.94062499998836,
      "v": 99
    },
    {
      "midi": 74,
      "hit": false,
      "t": 208346.0399999999,
      "d": 132.87374999999884,
      "v": 88
    },
    {
      "midi": 76,
      "hit": false,
      "t": 208582.2599999999,
      "d": 125.49187500000698,
      "v": 79
    },
    {
      "midi": 26,
      "hit": false,
      "t": 208582.26000000007,
      "d": 103.34625000000233,
      "v": 96
    },
    {
      "midi": 66,
      "hit": false,
      "t": 208582.26000000027,
      "d": 105.80687500000931,
      "v": 109
    },
    {
      "midi": 62,
      "hit": false,
      "t": 208582.26000000027,
      "d": 147.63750000001164,
      "v": 94
    },
    {
      "midi": 62,
      "hit": false,
      "t": 208582.2600000004,
      "d": 140.2556249999907,
      "v": 112
    },
    {
      "midi": 73,
      "hit": false,
      "t": 208818.4799999999,
      "d": 140.2556249999907,
      "v": 80
    },
    {
      "midi": 26,
      "hit": false,
      "t": 208818.48000000007,
      "d": 418.3062499999942,
      "v": 92
    },
    {
      "midi": 67,
      "hit": false,
      "t": 208818.48000000027,
      "d": 108.2674999999872,
      "v": 103
    },
    {
      "midi": 71,
      "hit": false,
      "t": 208818.48000000027,
      "d": 115.64937499997905,
      "v": 109
    },
    {
      "midi": 67,
      "hit": false,
      "t": 208818.4800000004,
      "d": 142.71624999999767,
      "v": 109
    },
    {
      "midi": 74,
      "hit": false,
      "t": 209054.6999999999,
      "d": 172.24374999999418,
      "v": 83
    },
    {
      "midi": 67,
      "hit": false,
      "t": 209054.70000000024,
      "d": 120.57062499999302,
      "v": 99
    },
    {
      "midi": 71,
      "hit": false,
      "t": 209054.70000000024,
      "d": 125.49187500000698,
      "v": 98
    },
    {
      "midi": 67,
      "hit": false,
      "t": 209054.7000000004,
      "d": 164.86187500000233,
      "v": 107
    },
    {
      "midi": 71,
      "hit": false,
      "t": 209290.92000000025,
      "d": 177.16500000000815,
      "v": 104
    },
    {
      "midi": 67,
      "hit": false,
      "t": 209290.92000000025,
      "d": 182.08625000002212,
      "v": 98
    },
    {
      "midi": 67,
      "hit": false,
      "t": 209290.9200000004,
      "d": 216.5350000000035,
      "v": 110
    },
    {
      "midi": 79,
      "hit": false,
      "t": 209527.1399999999,
      "d": 157.48000000001048,
      "v": 88
    },
    {
      "midi": 66,
      "hit": false,
      "t": 209527.14000000028,
      "d": 86.12187500001164,
      "v": 97
    },
    {
      "midi": 69,
      "hit": false,
      "t": 209527.14000000028,
      "d": 108.2675000000163,
      "v": 91
    },
    {
      "midi": 66,
      "hit": false,
      "t": 209527.1400000004,
      "d": 115.64937500000815,
      "v": 110
    },
    {
      "midi": 67,
      "hit": false,
      "t": 209645.2500000003,
      "d": 103.34625000000233,
      "v": 95
    },
    {
      "midi": 64,
      "hit": false,
      "t": 209645.2500000003,
      "d": 127.95250000001397,
      "v": 93
    },
    {
      "midi": 64,
      "hit": false,
      "t": 209645.2500000004,
      "d": 115.64937500000815,
      "v": 108
    },
    {
      "midi": 57,
      "hit": false,
      "t": 209763.35999999943,
      "d": 1562.4968750000116,
      "v": 79
    },
    {
      "midi": 66,
      "hit": false,
      "t": 209763.35999999943,
      "d": 1678.1462500000198,
      "v": 80
    },
    {
      "midi": 50,
      "hit": false,
      "t": 209763.35999999987,
      "d": 1567.4181249999965,
      "v": 95
    },
    {
      "midi": 78,
      "hit": false,
      "t": 209763.3599999999,
      "d": 108.2674999999872,
      "v": 83
    },
    {
      "midi": 57,
      "hit": false,
      "t": 209763.36,
      "d": 1680.6068749999977,
      "v": 80
    },
    {
      "midi": 26,
      "hit": false,
      "t": 209763.36000000007,
      "d": 487.20374999998603,
      "v": 96
    },
    {
      "midi": 62,
      "hit": false,
      "t": 209763.3600000003,
      "d": 1232.773125000007,
      "v": 90
    },
    {
      "midi": 66,
      "hit": false,
      "t": 209763.3600000003,
      "d": 1259.8399999999965,
      "v": 108
    },
    {
      "midi": 62,
      "hit": false,
      "t": 209763.36000000042,
      "d": 1353.34375,
      "v": 101
    },
    {
      "midi": 74,
      "hit": false,
      "t": 209999.5799999999,
      "d": 95.96437500001048,
      "v": 84
    },
    {
      "midi": 69,
      "hit": false,
      "t": 210235.7999999999,
      "d": 127.95250000001397,
      "v": 83
    },
    {
      "midi": 67,
      "hit": false,
      "t": 210472.0199999999,
      "d": 135.33437500000582,
      "v": 84
    },
    {
      "midi": 26,
      "hit": false,
      "t": 210472.02000000005,
      "d": 110.72812499999418,
      "v": 106
    },
    {
      "midi": 69,
      "hit": false,
      "t": 210708.2399999999,
      "d": 152.5587499999965,
      "v": 86
    },
    {
      "midi": 26,
      "hit": false,
      "t": 210708.24000000005,
      "d": 474.9006250000093,
      "v": 96
    },
    {
      "midi": 74,
      "hit": false,
      "t": 210944.4599999999,
      "d": 137.7950000000128,
      "v": 91
    },
    {
      "midi": 66,
      "hit": false,
      "t": 211180.6800000003,
      "d": 177.16500000000815,
      "v": 102
    },
    {
      "midi": 69,
      "hit": false,
      "t": 211180.6800000003,
      "d": 187.00750000000698,
      "v": 97
    },
    {
      "midi": 66,
      "hit": false,
      "t": 211180.68000000043,
      "d": 206.69250000000466,
      "v": 116
    },
    {
      "midi": 59,
      "hit": false,
      "t": 211416.89999999944,
      "d": 2066.9250000000175,
      "v": 81
    },
    {
      "midi": 67,
      "hit": false,
      "t": 211416.89999999944,
      "d": 2086.610000000015,
      "v": 83
    },
    {
      "midi": 50,
      "hit": false,
      "t": 211416.89999999988,
      "d": 1978.3424999999988,
      "v": 92
    },
    {
      "midi": 59,
      "hit": false,
      "t": 211416.9,
      "d": 2057.0824999999895,
      "v": 83
    },
    {
      "midi": 64,
      "hit": false,
      "t": 211416.9000000003,
      "d": 455.21562500001164,
      "v": 96
    },
    {
      "midi": 67,
      "hit": false,
      "t": 211416.9000000003,
      "d": 477.3612500000163,
      "v": 94
    },
    {
      "midi": 64,
      "hit": false,
      "t": 211416.90000000043,
      "d": 469.97937499999534,
      "v": 107
    },
    {
      "midi": 71,
      "hit": false,
      "t": 211653.1199999999,
      "d": 118.10999999998603,
      "v": 87
    },
    {
      "midi": 26,
      "hit": false,
      "t": 211653.12000000005,
      "d": 519.1918749999895,
      "v": 106
    },
    {
      "midi": 69,
      "hit": false,
      "t": 211889.33999999988,
      "d": 118.10999999998603,
      "v": 88
    },
    {
      "midi": 66,
      "hit": false,
      "t": 211889.34000000032,
      "d": 150.09812500001863,
      "v": 99
    },
    {
      "midi": 62,
      "hit": false,
      "t": 211889.34000000032,
      "d": 169.7831250000163,
      "v": 85
    },
    {
      "midi": 62,
      "hit": false,
      "t": 211889.34000000043,
      "d": 159.94062499998836,
      "v": 99
    },
    {
      "midi": 67,
      "hit": false,
      "t": 212125.55999999985,
      "d": 878.4431249999907,
      "v": 88
    },
    {
      "midi": 26,
      "hit": false,
      "t": 212361.78000000006,
      "d": 125.49187500000698,
      "v": 100
    },
    {
      "midi": 66,
      "hit": false,
      "t": 212361.78000000032,
      "d": 105.80687500000931,
      "v": 103
    },
    {
      "midi": 62,
      "hit": false,
      "t": 212361.78000000032,
      "d": 147.63750000001164,
      "v": 90
    },
    {
      "midi": 62,
      "hit": false,
      "t": 212361.78000000044,
      "d": 140.2556249999907,
      "v": 114
    },
    {
      "midi": 26,
      "hit": false,
      "t": 212598.00000000006,
      "d": 484.74312500000815,
      "v": 98
    },
    {
      "midi": 67,
      "hit": false,
      "t": 212598.00000000032,
      "d": 108.2674999999872,
      "v": 104
    },
    {
      "midi": 71,
      "hit": false,
      "t": 212598.00000000032,
      "d": 115.64937499997905,
      "v": 106
    },
    {
      "midi": 67,
      "hit": false,
      "t": 212598.00000000044,
      "d": 142.71624999999767,
      "v": 112
    },
    {
      "midi": 67,
      "hit": false,
      "t": 212834.2200000003,
      "d": 120.57062499999302,
      "v": 93
    },
    {
      "midi": 71,
      "hit": false,
      "t": 212834.2200000003,
      "d": 125.49187500000698,
      "v": 100
    },
    {
      "midi": 67,
      "hit": false,
      "t": 212834.22000000044,
      "d": 164.86187500000233,
      "v": 105
    },
    {
      "midi": 74,
      "hit": false,
      "t": 213070.43999999986,
      "d": 231.2987499999872,
      "v": 88
    },
    {
      "midi": 71,
      "hit": false,
      "t": 213070.4400000003,
      "d": 177.16500000000815,
      "v": 102
    },
    {
      "midi": 67,
      "hit": false,
      "t": 213070.4400000003,
      "d": 182.08625000002212,
      "v": 101
    },
    {
      "midi": 67,
      "hit": false,
      "t": 213070.44000000044,
      "d": 216.5350000000035,
      "v": 105
    },
    {
      "midi": 73,
      "hit": false,
      "t": 213306.65999999986,
      "d": 157.48000000001048,
      "v": 83
    },
    {
      "midi": 66,
      "hit": false,
      "t": 213306.66000000032,
      "d": 86.12187500001164,
      "v": 100
    },
    {
      "midi": 69,
      "hit": false,
      "t": 213306.66000000032,
      "d": 108.2675000000163,
      "v": 93
    },
    {
      "midi": 66,
      "hit": false,
      "t": 213306.66000000044,
      "d": 115.64937500000815,
      "v": 101
    },
    {
      "midi": 67,
      "hit": false,
      "t": 213424.77000000034,
      "d": 103.34625000000233,
      "v": 93
    },
    {
      "midi": 64,
      "hit": false,
      "t": 213424.77000000034,
      "d": 127.95250000001397,
      "v": 86
    },
    {
      "midi": 64,
      "hit": false,
      "t": 213424.77000000046,
      "d": 115.64937500000815,
      "v": 107
    },
    {
      "midi": 57,
      "hit": false,
      "t": 213542.87999999945,
      "d": 1594.484999999986,
      "v": 84
    },
    {
      "midi": 66,
      "hit": false,
      "t": 213542.87999999945,
      "d": 1683.0674999999756,
      "v": 79
    },
    {
      "midi": 62,
      "hit": false,
      "t": 213542.87999999945,
      "d": 15081.170624999999,
      "v": 82
    },
    {
      "midi": 74,
      "hit": false,
      "t": 213542.87999999986,
      "d": 147.63750000001164,
      "v": 86
    },
    {
      "midi": 50,
      "hit": false,
      "t": 213542.8799999999,
      "d": 1624.0125000000116,
      "v": 85
    },
    {
      "midi": 57,
      "hit": false,
      "t": 213542.87999999998,
      "d": 1673.2250000000058,
      "v": 94
    },
    {
      "midi": 50,
      "hit": false,
      "t": 213542.87999999998,
      "d": 15061.48562500006,
      "v": 93
    },
    {
      "midi": 26,
      "hit": false,
      "t": 213542.88000000006,
      "d": 526.5737500000105,
      "v": 105
    },
    {
      "midi": 62,
      "hit": false,
      "t": 213542.88000000035,
      "d": 1232.773125000007,
      "v": 88
    },
    {
      "midi": 66,
      "hit": false,
      "t": 213542.88000000035,
      "d": 1259.8399999999965,
      "v": 108
    },
    {
      "midi": 62,
      "hit": false,
      "t": 213542.88000000047,
      "d": 1353.34375,
      "v": 104
    },
    {
      "midi": 74,
      "hit": false,
      "t": 214015.31999999986,
      "d": 142.71624999999767,
      "v": 93
    },
    {
      "midi": 76,
      "hit": false,
      "t": 214251.53999999986,
      "d": 137.7950000000128,
      "v": 73
    },
    {
      "midi": 26,
      "hit": false,
      "t": 214251.54000000007,
      "d": 105.80687500000931,
      "v": 100
    },
    {
      "midi": 73,
      "hit": false,
      "t": 214487.75999999986,
      "d": 147.63750000001164,
      "v": 85
    },
    {
      "midi": 26,
      "hit": false,
      "t": 214487.76000000007,
      "d": 511.8099999999977,
      "v": 102
    },
    {
      "midi": 74,
      "hit": false,
      "t": 214723.97999999986,
      "d": 159.94062499998836,
      "v": 87
    },
    {
      "midi": 66,
      "hit": false,
      "t": 214960.20000000036,
      "d": 177.16500000000815,
      "v": 100
    },
    {
      "midi": 69,
      "hit": false,
      "t": 214960.20000000036,
      "d": 187.00750000000698,
      "v": 99
    },
    {
      "midi": 66,
      "hit": false,
      "t": 214960.20000000048,
      "d": 206.69250000000466,
      "v": 112
    },
    {
      "midi": 59,
      "hit": false,
      "t": 215196.41999999943,
      "d": 1988.1849999999977,
      "v": 83
    },
    {
      "midi": 67,
      "hit": false,
      "t": 215196.41999999943,
      "d": 2103.834375000006,
      "v": 78
    },
    {
      "midi": 50,
      "hit": false,
      "t": 215196.4199999999,
      "d": 1973.421250000014,
      "v": 95
    },
    {
      "midi": 59,
      "hit": false,
      "t": 215196.41999999998,
      "d": 2116.1375000000116,
      "v": 93
    },
    {
      "midi": 64,
      "hit": false,
      "t": 215196.42000000036,
      "d": 455.21562500001164,
      "v": 101
    },
    {
      "midi": 67,
      "hit": false,
      "t": 215196.42000000036,
      "d": 477.3612500000163,
      "v": 93
    },
    {
      "midi": 64,
      "hit": false,
      "t": 215196.42000000048,
      "d": 469.97937499999534,
      "v": 107
    },
    {
      "midi": 74,
      "hit": false,
      "t": 215432.63999999984,
      "d": 145.17687500000466,
      "v": 87
    },
    {
      "midi": 26,
      "hit": false,
      "t": 215432.64000000007,
      "d": 482.28250000000116,
      "v": 96
    },
    {
      "midi": 66,
      "hit": false,
      "t": 215668.86000000036,
      "d": 150.09812500001863,
      "v": 94
    },
    {
      "midi": 62,
      "hit": false,
      "t": 215668.86000000036,
      "d": 169.7831250000163,
      "v": 85
    },
    {
      "midi": 62,
      "hit": false,
      "t": 215668.86000000048,
      "d": 159.94062499998836,
      "v": 105
    },
    {
      "midi": 74,
      "hit": false,
      "t": 215905.07999999984,
      "d": 132.87374999999884,
      "v": 84
    },
    {
      "midi": 76,
      "hit": false,
      "t": 216141.29999999984,
      "d": 125.49187500000698,
      "v": 75
    },
    {
      "midi": 26,
      "hit": false,
      "t": 216141.30000000008,
      "d": 110.72812499999418,
      "v": 98
    },
    {
      "midi": 66,
      "hit": false,
      "t": 216141.30000000037,
      "d": 105.80687500000931,
      "v": 110
    },
    {
      "midi": 62,
      "hit": false,
      "t": 216141.30000000037,
      "d": 147.63750000001164,
      "v": 96
    },
    {
      "midi": 62,
      "hit": false,
      "t": 216141.30000000048,
      "d": 140.2556249999907,
      "v": 112
    },
    {
      "midi": 73,
      "hit": false,
      "t": 216377.51999999984,
      "d": 140.2556249999907,
      "v": 84
    },
    {
      "midi": 26,
      "hit": false,
      "t": 216377.52000000008,
      "d": 467.51874999998836,
      "v": 98
    },
    {
      "midi": 67,
      "hit": false,
      "t": 216377.52000000037,
      "d": 108.2674999999872,
      "v": 99
    },
    {
      "midi": 71,
      "hit": false,
      "t": 216377.52000000037,
      "d": 115.64937499997905,
      "v": 101
    },
    {
      "midi": 67,
      "hit": false,
      "t": 216377.52000000048,
      "d": 142.71624999999767,
      "v": 105
    },
    {
      "midi": 74,
      "hit": false,
      "t": 216613.73999999985,
      "d": 172.24374999999418,
      "v": 81
    },
    {
      "midi": 67,
      "hit": false,
      "t": 216613.74000000034,
      "d": 120.57062499999302,
      "v": 93
    },
    {
      "midi": 71,
      "hit": false,
      "t": 216613.74000000034,
      "d": 125.49187500000698,
      "v": 96
    },
    {
      "midi": 67,
      "hit": false,
      "t": 216613.7400000005,
      "d": 164.86187500000233,
      "v": 112
    },
    {
      "midi": 71,
      "hit": false,
      "t": 216849.96000000034,
      "d": 177.16500000000815,
      "v": 105
    },
    {
      "midi": 67,
      "hit": false,
      "t": 216849.96000000034,
      "d": 182.08625000002212,
      "v": 100
    },
    {
      "midi": 67,
      "hit": false,
      "t": 216849.9600000005,
      "d": 216.5350000000035,
      "v": 107
    },
    {
      "midi": 79,
      "hit": false,
      "t": 217086.17999999985,
      "d": 157.48000000001048,
      "v": 91
    },
    {
      "midi": 66,
      "hit": false,
      "t": 217086.18000000037,
      "d": 86.12187500001164,
      "v": 98
    },
    {
      "midi": 69,
      "hit": false,
      "t": 217086.18000000037,
      "d": 108.2675000000163,
      "v": 95
    },
    {
      "midi": 66,
      "hit": false,
      "t": 217086.1800000005,
      "d": 115.64937500000815,
      "v": 110
    },
    {
      "midi": 67,
      "hit": false,
      "t": 217204.2900000004,
      "d": 103.34625000000233,
      "v": 89
    },
    {
      "midi": 64,
      "hit": false,
      "t": 217204.2900000004,
      "d": 127.95250000001397,
      "v": 93
    },
    {
      "midi": 64,
      "hit": false,
      "t": 217204.2900000005,
      "d": 115.64937500000815,
      "v": 109
    },
    {
      "midi": 57,
      "hit": false,
      "t": 217322.39999999944,
      "d": 1599.40625,
      "v": 82
    },
    {
      "midi": 66,
      "hit": false,
      "t": 217322.39999999944,
      "d": 1702.7525000000023,
      "v": 83
    },
    {
      "midi": 78,
      "hit": false,
      "t": 217322.39999999985,
      "d": 108.2674999999872,
      "v": 85
    },
    {
      "midi": 50,
      "hit": false,
      "t": 217322.3999999999,
      "d": 1535.429999999993,
      "v": 93
    },
    {
      "midi": 57,
      "hit": false,
      "t": 217322.4,
      "d": 1663.382500000007,
      "v": 86
    },
    {
      "midi": 26,
      "hit": false,
      "t": 217322.40000000005,
      "d": 482.28250000000116,
      "v": 98
    },
    {
      "midi": 62,
      "hit": false,
      "t": 217322.4000000004,
      "d": 1232.773125000007,
      "v": 96
    },
    {
      "midi": 66,
      "hit": false,
      "t": 217322.4000000004,
      "d": 1259.8399999999965,
      "v": 109
    },
    {
      "midi": 62,
      "hit": false,
      "t": 217322.40000000052,
      "d": 1353.34375,
      "v": 103
    },
    {
      "midi": 74,
      "hit": false,
      "t": 217558.61999999985,
      "d": 95.96437500001048,
      "v": 84
    },
    {
      "midi": 69,
      "hit": false,
      "t": 217794.83999999985,
      "d": 127.95250000001397,
      "v": 87
    },
    {
      "midi": 67,
      "hit": false,
      "t": 218031.05999999985,
      "d": 135.33437500000582,
      "v": 83
    },
    {
      "midi": 26,
      "hit": false,
      "t": 218031.06000000006,
      "d": 125.49187500000698,
      "v": 96
    },
    {
      "midi": 69,
      "hit": false,
      "t": 218267.27999999985,
      "d": 152.5587499999965,
      "v": 83
    },
    {
      "midi": 26,
      "hit": false,
      "t": 218267.28000000006,
      "d": 497.04625000001397,
      "v": 100
    },
    {
      "midi": 74,
      "hit": false,
      "t": 218503.49999999985,
      "d": 137.7950000000128,
      "v": 82
    },
    {
      "midi": 66,
      "hit": false,
      "t": 218739.7200000004,
      "d": 177.16500000000815,
      "v": 102
    },
    {
      "midi": 69,
      "hit": false,
      "t": 218739.7200000004,
      "d": 187.00750000000698,
      "v": 98
    },
    {
      "midi": 66,
      "hit": false,
      "t": 218739.72000000053,
      "d": 206.69250000000466,
      "v": 115
    },
    {
      "midi": 59,
      "hit": false,
      "t": 218975.93999999945,
      "d": 1953.7362499999872,
      "v": 86
    },
    {
      "midi": 67,
      "hit": false,
      "t": 218975.93999999945,
      "d": 2054.6218749999825,
      "v": 79
    },
    {
      "midi": 50,
      "hit": false,
      "t": 218975.9399999999,
      "d": 1988.1849999999977,
      "v": 88
    },
    {
      "midi": 59,
      "hit": false,
      "t": 218975.94,
      "d": 2106.295000000013,
      "v": 89
    },
    {
      "midi": 64,
      "hit": false,
      "t": 218975.9400000004,
      "d": 455.21562500001164,
      "v": 94
    },
    {
      "midi": 67,
      "hit": false,
      "t": 218975.9400000004,
      "d": 477.3612500000163,
      "v": 100
    },
    {
      "midi": 64,
      "hit": false,
      "t": 218975.94000000053,
      "d": 469.97937499999534,
      "v": 112
    },
    {
      "midi": 71,
      "hit": false,
      "t": 219212.15999999986,
      "d": 118.10999999998603,
      "v": 91
    },
    {
      "midi": 26,
      "hit": false,
      "t": 219212.16000000006,
      "d": 497.04625000001397,
      "v": 101
    },
    {
      "midi": 69,
      "hit": false,
      "t": 219448.37999999983,
      "d": 118.10999999998603,
      "v": 84
    },
    {
      "midi": 66,
      "hit": false,
      "t": 219448.3800000004,
      "d": 150.09812500001863,
      "v": 101
    },
    {
      "midi": 62,
      "hit": false,
      "t": 219448.3800000004,
      "d": 169.7831250000163,
      "v": 86
    },
    {
      "midi": 62,
      "hit": false,
      "t": 219448.38000000053,
      "d": 159.94062499998836,
      "v": 106
    },
    {
      "midi": 67,
      "hit": false,
      "t": 219684.5999999998,
      "d": 878.4431249999907,
      "v": 85
    },
    {
      "midi": 26,
      "hit": false,
      "t": 219920.82000000007,
      "d": 125.49187500000698,
      "v": 105
    },
    {
      "midi": 66,
      "hit": false,
      "t": 219920.8200000004,
      "d": 105.80687500000931,
      "v": 104
    },
    {
      "midi": 62,
      "hit": false,
      "t": 219920.8200000004,
      "d": 147.63750000001164,
      "v": 97
    },
    {
      "midi": 62,
      "hit": false,
      "t": 219920.82000000053,
      "d": 140.2556249999907,
      "v": 117
    },
    {
      "midi": 26,
      "hit": false,
      "t": 220157.04000000007,
      "d": 442.9125000000058,
      "v": 105
    },
    {
      "midi": 67,
      "hit": false,
      "t": 220157.04000000042,
      "d": 108.2674999999872,
      "v": 98
    },
    {
      "midi": 71,
      "hit": false,
      "t": 220157.04000000042,
      "d": 115.64937499997905,
      "v": 104
    },
    {
      "midi": 67,
      "hit": false,
      "t": 220157.04000000053,
      "d": 142.71624999999767,
      "v": 114
    },
    {
      "midi": 67,
      "hit": false,
      "t": 220393.2600000004,
      "d": 120.57062499999302,
      "v": 96
    },
    {
      "midi": 71,
      "hit": false,
      "t": 220393.2600000004,
      "d": 125.49187500000698,
      "v": 96
    },
    {
      "midi": 67,
      "hit": false,
      "t": 220393.26000000053,
      "d": 164.86187500000233,
      "v": 114
    },
    {
      "midi": 74,
      "hit": false,
      "t": 220629.4799999998,
      "d": 231.2987499999872,
      "v": 89
    },
    {
      "midi": 71,
      "hit": false,
      "t": 220629.4800000004,
      "d": 177.16500000000815,
      "v": 100
    },
    {
      "midi": 67,
      "hit": false,
      "t": 220629.4800000004,
      "d": 182.08625000002212,
      "v": 100
    },
    {
      "midi": 67,
      "hit": false,
      "t": 220629.48000000053,
      "d": 216.5350000000035,
      "v": 104
    },
    {
      "midi": 73,
      "hit": false,
      "t": 220865.6999999998,
      "d": 157.48000000001048,
      "v": 90
    },
    {
      "midi": 66,
      "hit": false,
      "t": 220865.70000000042,
      "d": 86.12187500001164,
      "v": 95
    },
    {
      "midi": 69,
      "hit": false,
      "t": 220865.70000000042,
      "d": 108.2675000000163,
      "v": 92
    },
    {
      "midi": 66,
      "hit": false,
      "t": 220865.70000000054,
      "d": 115.64937500000815,
      "v": 110
    },
    {
      "midi": 57,
      "hit": false,
      "t": 220983.80999999944,
      "d": 1614.1699999999837,
      "v": 78
    },
    {
      "midi": 66,
      "hit": false,
      "t": 220983.80999999944,
      "d": 1710.1343749999942,
      "v": 86
    },
    {
      "midi": 67,
      "hit": false,
      "t": 220983.81000000043,
      "d": 103.34625000000233,
      "v": 96
    },
    {
      "midi": 64,
      "hit": false,
      "t": 220983.81000000043,
      "d": 127.95250000001397,
      "v": 93
    },
    {
      "midi": 64,
      "hit": false,
      "t": 220983.81000000055,
      "d": 115.64937500000815,
      "v": 104
    },
    {
      "midi": 74,
      "hit": false,
      "t": 221101.9199999998,
      "d": 147.63750000001164,
      "v": 84
    },
    {
      "midi": 50,
      "hit": false,
      "t": 221101.9199999999,
      "d": 1545.2724999999919,
      "v": 92
    },
    {
      "midi": 57,
      "hit": false,
      "t": 221101.92,
      "d": 1683.0675000000047,
      "v": 92
    },
    {
      "midi": 26,
      "hit": false,
      "t": 221101.92000000007,
      "d": 543.7981250000012,
      "v": 101
    },
    {
      "midi": 62,
      "hit": false,
      "t": 221101.92000000045,
      "d": 1232.773125000007,
      "v": 92
    },
    {
      "midi": 66,
      "hit": false,
      "t": 221101.92000000045,
      "d": 1259.8399999999965,
      "v": 100
    },
    {
      "midi": 62,
      "hit": false,
      "t": 221101.92000000057,
      "d": 1353.34375,
      "v": 101
    },
    {
      "midi": 74,
      "hit": false,
      "t": 221574.3599999998,
      "d": 142.71624999999767,
      "v": 85
    },
    {
      "midi": 76,
      "hit": false,
      "t": 221810.5799999998,
      "d": 137.7950000000128,
      "v": 73
    },
    {
      "midi": 26,
      "hit": false,
      "t": 221810.58000000007,
      "d": 113.18875000000116,
      "v": 101
    },
    {
      "midi": 73,
      "hit": false,
      "t": 222046.7999999998,
      "d": 147.63750000001164,
      "v": 82
    },
    {
      "midi": 26,
      "hit": false,
      "t": 222046.80000000008,
      "d": 455.21562500001164,
      "v": 105
    },
    {
      "midi": 74,
      "hit": false,
      "t": 222283.01999999981,
      "d": 159.94062499998836,
      "v": 82
    },
    {
      "midi": 66,
      "hit": false,
      "t": 222519.24000000046,
      "d": 177.16500000000815,
      "v": 105
    },
    {
      "midi": 69,
      "hit": false,
      "t": 222519.24000000046,
      "d": 187.00750000000698,
      "v": 101
    },
    {
      "midi": 66,
      "hit": false,
      "t": 222519.24000000057,
      "d": 206.69250000000466,
      "v": 114
    },
    {
      "midi": 59,
      "hit": false,
      "t": 222755.45999999944,
      "d": 1988.1849999999977,
      "v": 87
    },
    {
      "midi": 67,
      "hit": false,
      "t": 222755.45999999944,
      "d": 2079.228124999994,
      "v": 86
    },
    {
      "midi": 50,
      "hit": false,
      "t": 222755.45999999988,
      "d": 1983.2637500000128,
      "v": 92
    },
    {
      "midi": 59,
      "hit": false,
      "t": 222755.46000000002,
      "d": 2081.688750000001,
      "v": 81
    },
    {
      "midi": 64,
      "hit": false,
      "t": 222755.46000000046,
      "d": 455.21562500001164,
      "v": 101
    },
    {
      "midi": 67,
      "hit": false,
      "t": 222755.46000000046,
      "d": 477.3612500000163,
      "v": 98
    },
    {
      "midi": 64,
      "hit": false,
      "t": 222755.46000000057,
      "d": 469.97937499999534,
      "v": 105
    },
    {
      "midi": 74,
      "hit": false,
      "t": 222991.6799999998,
      "d": 145.17687500000466,
      "v": 83
    },
    {
      "midi": 26,
      "hit": false,
      "t": 222991.68000000008,
      "d": 489.664374999993,
      "v": 98
    },
    {
      "midi": 66,
      "hit": false,
      "t": 223227.90000000046,
      "d": 150.09812500001863,
      "v": 100
    },
    {
      "midi": 62,
      "hit": false,
      "t": 223227.90000000046,
      "d": 169.7831250000163,
      "v": 91
    },
    {
      "midi": 62,
      "hit": false,
      "t": 223227.90000000058,
      "d": 159.94062499998836,
      "v": 106
    },
    {
      "midi": 74,
      "hit": false,
      "t": 223464.1199999998,
      "d": 132.87374999999884,
      "v": 86
    },
    {
      "midi": 76,
      "hit": false,
      "t": 223700.3399999998,
      "d": 125.49187500000698,
      "v": 72
    },
    {
      "midi": 26,
      "hit": false,
      "t": 223700.34000000008,
      "d": 103.34625000000233,
      "v": 94
    },
    {
      "midi": 66,
      "hit": false,
      "t": 223700.34000000046,
      "d": 105.80687500000931,
      "v": 106
    },
    {
      "midi": 62,
      "hit": false,
      "t": 223700.34000000046,
      "d": 147.63750000001164,
      "v": 89
    },
    {
      "midi": 62,
      "hit": false,
      "t": 223700.34000000058,
      "d": 140.2556249999907,
      "v": 108
    },
    {
      "midi": 73,
      "hit": false,
      "t": 223936.5599999998,
      "d": 140.2556249999907,
      "v": 85
    },
    {
      "midi": 26,
      "hit": false,
      "t": 223936.56000000008,
      "d": 418.3062499999942,
      "v": 100
    },
    {
      "midi": 67,
      "hit": false,
      "t": 223936.56000000046,
      "d": 108.2674999999872,
      "v": 98
    },
    {
      "midi": 71,
      "hit": false,
      "t": 223936.56000000046,
      "d": 115.64937499997905,
      "v": 104
    },
    {
      "midi": 67,
      "hit": false,
      "t": 223936.56000000058,
      "d": 142.71624999999767,
      "v": 106
    },
    {
      "midi": 74,
      "hit": false,
      "t": 224172.7799999998,
      "d": 172.24374999999418,
      "v": 81
    },
    {
      "midi": 67,
      "hit": false,
      "t": 224172.78000000044,
      "d": 120.57062499999302,
      "v": 95
    },
    {
      "midi": 71,
      "hit": false,
      "t": 224172.78000000044,
      "d": 125.49187500000698,
      "v": 104
    },
    {
      "midi": 67,
      "hit": false,
      "t": 224172.78000000058,
      "d": 164.86187500000233,
      "v": 107
    },
    {
      "midi": 71,
      "hit": false,
      "t": 224409.00000000044,
      "d": 177.16500000000815,
      "v": 100
    },
    {
      "midi": 67,
      "hit": false,
      "t": 224409.00000000044,
      "d": 182.08625000002212,
      "v": 93
    },
    {
      "midi": 67,
      "hit": false,
      "t": 224409.00000000058,
      "d": 216.5350000000035,
      "v": 105
    },
    {
      "midi": 79,
      "hit": false,
      "t": 224645.2199999998,
      "d": 157.48000000001048,
      "v": 90
    },
    {
      "midi": 66,
      "hit": false,
      "t": 224645.22000000047,
      "d": 86.12187500001164,
      "v": 97
    },
    {
      "midi": 69,
      "hit": false,
      "t": 224645.22000000047,
      "d": 108.2675000000163,
      "v": 94
    },
    {
      "midi": 66,
      "hit": false,
      "t": 224645.22000000058,
      "d": 115.64937500000815,
      "v": 109
    },
    {
      "midi": 67,
      "hit": false,
      "t": 224763.33000000048,
      "d": 103.34625000000233,
      "v": 91
    },
    {
      "midi": 64,
      "hit": false,
      "t": 224763.33000000048,
      "d": 127.95250000001397,
      "v": 92
    },
    {
      "midi": 64,
      "hit": false,
      "t": 224763.3300000006,
      "d": 115.64937500000815,
      "v": 109
    },
    {
      "midi": 57,
      "hit": false,
      "t": 224881.43999999942,
      "d": 1562.4968750000116,
      "v": 82
    },
    {
      "midi": 66,
      "hit": false,
      "t": 224881.43999999942,
      "d": 1678.1462500000198,
      "v": 87
    },
    {
      "midi": 78,
      "hit": false,
      "t": 224881.4399999998,
      "d": 108.2674999999872,
      "v": 83
    },
    {
      "midi": 50,
      "hit": false,
      "t": 224881.4399999999,
      "d": 1537.890625,
      "v": 93
    },
    {
      "midi": 57,
      "hit": false,
      "t": 224881.44000000003,
      "d": 1680.6068749999977,
      "v": 80
    },
    {
      "midi": 26,
      "hit": false,
      "t": 224881.4400000001,
      "d": 487.20374999998603,
      "v": 102
    },
    {
      "midi": 62,
      "hit": false,
      "t": 224881.4400000005,
      "d": 1232.773125000007,
      "v": 89
    },
    {
      "midi": 66,
      "hit": false,
      "t": 224881.4400000005,
      "d": 1259.8399999999965,
      "v": 107
    },
    {
      "midi": 62,
      "hit": false,
      "t": 224881.4400000006,
      "d": 1353.34375,
      "v": 107
    },
    {
      "midi": 74,
      "hit": false,
      "t": 225117.6599999998,
      "d": 95.96437500001048,
      "v": 84
    },
    {
      "midi": 69,
      "hit": false,
      "t": 225353.8799999998,
      "d": 127.95250000001397,
      "v": 85
    },
    {
      "midi": 67,
      "hit": false,
      "t": 225590.0999999998,
      "d": 135.33437500000582,
      "v": 86
    },
    {
      "midi": 26,
      "hit": false,
      "t": 225590.10000000006,
      "d": 110.72812499999418,
      "v": 101
    },
    {
      "midi": 69,
      "hit": false,
      "t": 225826.3199999998,
      "d": 152.5587499999965,
      "v": 88
    },
    {
      "midi": 26,
      "hit": false,
      "t": 225826.32000000007,
      "d": 474.9006250000093,
      "v": 100
    },
    {
      "midi": 74,
      "hit": false,
      "t": 226062.5399999998,
      "d": 137.7950000000128,
      "v": 84
    },
    {
      "midi": 66,
      "hit": false,
      "t": 226298.7600000005,
      "d": 177.16500000000815,
      "v": 99
    },
    {
      "midi": 69,
      "hit": false,
      "t": 226298.7600000005,
      "d": 187.00750000000698,
      "v": 100
    },
    {
      "midi": 66,
      "hit": false,
      "t": 226298.76000000062,
      "d": 206.69250000000466,
      "v": 110
    },
    {
      "midi": 59,
      "hit": false,
      "t": 226534.97999999943,
      "d": 2066.9250000000175,
      "v": 85
    },
    {
      "midi": 67,
      "hit": false,
      "t": 226534.97999999943,
      "d": 2086.610000000015,
      "v": 86
    },
    {
      "midi": 50,
      "hit": false,
      "t": 226534.9799999999,
      "d": 1973.421250000014,
      "v": 100
    },
    {
      "midi": 59,
      "hit": false,
      "t": 226534.98000000004,
      "d": 2057.0824999999895,
      "v": 81
    },
    {
      "midi": 64,
      "hit": false,
      "t": 226534.9800000005,
      "d": 455.21562500001164,
      "v": 98
    },
    {
      "midi": 67,
      "hit": false,
      "t": 226534.9800000005,
      "d": 477.3612500000163,
      "v": 98
    },
    {
      "midi": 64,
      "hit": false,
      "t": 226534.98000000062,
      "d": 469.97937499999534,
      "v": 103
    },
    {
      "midi": 71,
      "hit": false,
      "t": 226771.1999999998,
      "d": 118.10999999998603,
      "v": 92
    },
    {
      "midi": 26,
      "hit": false,
      "t": 226771.20000000007,
      "d": 519.1918749999895,
      "v": 104
    },
    {
      "midi": 69,
      "hit": false,
      "t": 227007.41999999978,
      "d": 118.10999999998603,
      "v": 83
    },
    {
      "midi": 66,
      "hit": false,
      "t": 227007.4200000005,
      "d": 150.09812500001863,
      "v": 99
    },
    {
      "midi": 62,
      "hit": false,
      "t": 227007.4200000005,
      "d": 169.7831250000163,
      "v": 84
    },
    {
      "midi": 62,
      "hit": false,
      "t": 227007.42000000062,
      "d": 159.94062499998836,
      "v": 102
    },
    {
      "midi": 67,
      "hit": false,
      "t": 227243.63999999975,
      "d": 878.4431249999907,
      "v": 83
    },
    {
      "midi": 26,
      "hit": false,
      "t": 227479.86000000007,
      "d": 125.49187500000698,
      "v": 99
    },
    {
      "midi": 66,
      "hit": false,
      "t": 227479.8600000005,
      "d": 105.80687500000931,
      "v": 101
    },
    {
      "midi": 62,
      "hit": false,
      "t": 227479.8600000005,
      "d": 147.63750000001164,
      "v": 97
    },
    {
      "midi": 62,
      "hit": false,
      "t": 227479.86000000063,
      "d": 140.2556249999907,
      "v": 116
    },
    {
      "midi": 26,
      "hit": false,
      "t": 227716.08000000007,
      "d": 484.74312500000815,
      "v": 97
    },
    {
      "midi": 67,
      "hit": false,
      "t": 227716.0800000005,
      "d": 108.2674999999872,
      "v": 98
    },
    {
      "midi": 71,
      "hit": false,
      "t": 227716.0800000005,
      "d": 115.64937499997905,
      "v": 102
    },
    {
      "midi": 67,
      "hit": false,
      "t": 227716.08000000063,
      "d": 142.71624999999767,
      "v": 108
    },
    {
      "midi": 67,
      "hit": false,
      "t": 227952.30000000048,
      "d": 120.57062499999302,
      "v": 100
    },
    {
      "midi": 71,
      "hit": false,
      "t": 227952.30000000048,
      "d": 125.49187500000698,
      "v": 101
    },
    {
      "midi": 67,
      "hit": false,
      "t": 227952.30000000063,
      "d": 164.86187500000233,
      "v": 112
    },
    {
      "midi": 74,
      "hit": false,
      "t": 228188.51999999976,
      "d": 231.2987499999872,
      "v": 89
    },
    {
      "midi": 71,
      "hit": false,
      "t": 228188.52000000048,
      "d": 177.16500000000815,
      "v": 101
    },
    {
      "midi": 67,
      "hit": false,
      "t": 228188.52000000048,
      "d": 182.08625000002212,
      "v": 94
    },
    {
      "midi": 67,
      "hit": false,
      "t": 228188.52000000063,
      "d": 216.5350000000035,
      "v": 107
    },
    {
      "midi": 73,
      "hit": false,
      "t": 228424.73999999976,
      "d": 157.48000000001048,
      "v": 92
    },
    {
      "midi": 66,
      "hit": false,
      "t": 228424.74000000051,
      "d": 86.12187500001164,
      "v": 100
    },
    {
      "midi": 69,
      "hit": false,
      "t": 228424.74000000051,
      "d": 108.2675000000163,
      "v": 94
    },
    {
      "midi": 66,
      "hit": false,
      "t": 228424.74000000063,
      "d": 115.64937500000815,
      "v": 107
    },
    {
      "midi": 67,
      "hit": false,
      "t": 228542.85000000053,
      "d": 103.34625000000233,
      "v": 96
    },
    {
      "midi": 64,
      "hit": false,
      "t": 228542.85000000053,
      "d": 127.95250000001397,
      "v": 92
    },
    {
      "midi": 64,
      "hit": false,
      "t": 228542.85000000065,
      "d": 115.64937500000815,
      "v": 106
    },
    {
      "midi": 57,
      "hit": false,
      "t": 228660.95999999944,
      "d": 1594.484999999986,
      "v": 81
    },
    {
      "midi": 66,
      "hit": false,
      "t": 228660.95999999944,
      "d": 1683.0674999999756,
      "v": 84
    },
    {
      "midi": 62,
      "hit": false,
      "t": 228660.95999999944,
      "d": 15081.170624999999,
      "v": 79
    },
    {
      "midi": 74,
      "hit": false,
      "t": 228660.95999999976,
      "d": 157.48000000001048,
      "v": 78
    },
    {
      "midi": 86,
      "hit": false,
      "t": 228660.95999999976,
      "d": 159.94062500001746,
      "v": 70
    },
    {
      "midi": 50,
      "hit": false,
      "t": 228660.9599999999,
      "d": 1584.6424999999872,
      "v": 91
    },
    {
      "midi": 57,
      "hit": false,
      "t": 228660.96000000002,
      "d": 1673.2250000000058,
      "v": 98
    },
    {
      "midi": 50,
      "hit": false,
      "t": 228660.96000000002,
      "d": 15061.48562500006,
      "v": 91
    },
    {
      "midi": 26,
      "hit": false,
      "t": 228660.96000000008,
      "d": 526.5737500000105,
      "v": 101
    },
    {
      "midi": 62,
      "hit": false,
      "t": 228660.96000000054,
      "d": 1232.773125000007,
      "v": 95
    },
    {
      "midi": 66,
      "hit": false,
      "t": 228660.96000000054,
      "d": 1259.8399999999965,
      "v": 109
    },
    {
      "midi": 62,
      "hit": false,
      "t": 228660.96000000066,
      "d": 1353.34375,
      "v": 107
    },
    {
      "midi": 86,
      "hit": false,
      "t": 229133.3999999998,
      "d": 177.16500000000815,
      "v": 75
    },
    {
      "midi": 74,
      "hit": false,
      "t": 229133.3999999998,
      "d": 189.46812500001397,
      "v": 77
    },
    {
      "midi": 26,
      "hit": false,
      "t": 229369.62000000008,
      "d": 105.80687500000931,
      "v": 100
    },
    {
      "midi": 86,
      "hit": false,
      "t": 229605.8399999998,
      "d": 162.40124999999534,
      "v": 62
    },
    {
      "midi": 74,
      "hit": false,
      "t": 229605.8399999998,
      "d": 211.61374999998952,
      "v": 68
    },
    {
      "midi": 26,
      "hit": false,
      "t": 229605.84000000008,
      "d": 511.8099999999977,
      "v": 104
    },
    {
      "midi": 86,
      "hit": false,
      "t": 230078.2799999998,
      "d": 159.94062499998836,
      "v": 60
    },
    {
      "midi": 74,
      "hit": false,
      "t": 230078.2799999998,
      "d": 187.00749999997788,
      "v": 66
    },
    {
      "midi": 66,
      "hit": false,
      "t": 230078.28000000055,
      "d": 177.16500000000815,
      "v": 102
    },
    {
      "midi": 69,
      "hit": false,
      "t": 230078.28000000055,
      "d": 187.00750000000698,
      "v": 103
    },
    {
      "midi": 66,
      "hit": false,
      "t": 230078.28000000067,
      "d": 206.69250000000466,
      "v": 109
    },
    {
      "midi": 59,
      "hit": false,
      "t": 230314.49999999942,
      "d": 1988.1849999999977,
      "v": 79
    },
    {
      "midi": 67,
      "hit": false,
      "t": 230314.49999999942,
      "d": 2103.834375000006,
      "v": 78
    },
    {
      "midi": 50,
      "hit": false,
      "t": 230314.49999999988,
      "d": 1926.6693749999977,
      "v": 92
    },
    {
      "midi": 59,
      "hit": false,
      "t": 230314.50000000003,
      "d": 2116.1375000000116,
      "v": 88
    },
    {
      "midi": 64,
      "hit": false,
      "t": 230314.50000000055,
      "d": 455.21562500001164,
      "v": 99
    },
    {
      "midi": 67,
      "hit": false,
      "t": 230314.50000000055,
      "d": 477.3612500000163,
      "v": 93
    },
    {
      "midi": 64,
      "hit": false,
      "t": 230314.50000000067,
      "d": 469.97937499999534,
      "v": 107
    },
    {
      "midi": 86,
      "hit": false,
      "t": 230550.71999999977,
      "d": 172.24374999999418,
      "v": 68
    },
    {
      "midi": 74,
      "hit": false,
      "t": 230550.71999999977,
      "d": 189.46812499998487,
      "v": 68
    },
    {
      "midi": 26,
      "hit": false,
      "t": 230550.7200000001,
      "d": 482.28250000000116,
      "v": 97
    },
    {
      "midi": 66,
      "hit": false,
      "t": 230786.94000000056,
      "d": 150.09812500001863,
      "v": 99
    },
    {
      "midi": 62,
      "hit": false,
      "t": 230786.94000000056,
      "d": 169.7831250000163,
      "v": 87
    },
    {
      "midi": 62,
      "hit": false,
      "t": 230786.94000000067,
      "d": 159.94062499998836,
      "v": 99
    },
    {
      "midi": 86,
      "hit": false,
      "t": 231023.15999999974,
      "d": 167.3225000000093,
      "v": 59
    },
    {
      "midi": 74,
      "hit": false,
      "t": 231023.15999999974,
      "d": 184.546875,
      "v": 68
    },
    {
      "midi": 26,
      "hit": false,
      "t": 231259.3800000001,
      "d": 110.72812499999418,
      "v": 101
    },
    {
      "midi": 66,
      "hit": false,
      "t": 231259.38000000056,
      "d": 105.80687500000931,
      "v": 107
    },
    {
      "midi": 62,
      "hit": false,
      "t": 231259.38000000056,
      "d": 147.63750000001164,
      "v": 89
    },
    {
      "midi": 62,
      "hit": false,
      "t": 231259.38000000067,
      "d": 140.2556249999907,
      "v": 116
    },
    {
      "midi": 86,
      "hit": false,
      "t": 231495.59999999974,
      "d": 157.48000000001048,
      "v": 62
    },
    {
      "midi": 74,
      "hit": false,
      "t": 231495.59999999974,
      "d": 179.62562500001513,
      "v": 70
    },
    {
      "midi": 26,
      "hit": false,
      "t": 231495.6000000001,
      "d": 467.51874999998836,
      "v": 103
    },
    {
      "midi": 67,
      "hit": false,
      "t": 231495.60000000056,
      "d": 108.2674999999872,
      "v": 95
    },
    {
      "midi": 71,
      "hit": false,
      "t": 231495.60000000056,
      "d": 115.64937499997905,
      "v": 105
    },
    {
      "midi": 67,
      "hit": false,
      "t": 231495.60000000068,
      "d": 142.71624999999767,
      "v": 105
    },
    {
      "midi": 67,
      "hit": false,
      "t": 231731.82000000053,
      "d": 120.57062499999302,
      "v": 94
    },
    {
      "midi": 71,
      "hit": false,
      "t": 231731.82000000053,
      "d": 125.49187500000698,
      "v": 100
    },
    {
      "midi": 67,
      "hit": false,
      "t": 231731.82000000068,
      "d": 164.86187500000233,
      "v": 106
    },
    {
      "midi": 86,
      "hit": false,
      "t": 231968.03999999975,
      "d": 155.0193750000035,
      "v": 64
    },
    {
      "midi": 74,
      "hit": false,
      "t": 231968.03999999975,
      "d": 179.62562500001513,
      "v": 64
    },
    {
      "midi": 71,
      "hit": false,
      "t": 231968.04000000053,
      "d": 177.16500000000815,
      "v": 107
    },
    {
      "midi": 67,
      "hit": false,
      "t": 231968.04000000053,
      "d": 182.08625000002212,
      "v": 94
    },
    {
      "midi": 67,
      "hit": false,
      "t": 231968.04000000068,
      "d": 216.5350000000035,
      "v": 108
    },
    {
      "midi": 66,
      "hit": false,
      "t": 232204.26000000056,
      "d": 86.12187500001164,
      "v": 101
    },
    {
      "midi": 69,
      "hit": false,
      "t": 232204.26000000056,
      "d": 108.2675000000163,
      "v": 94
    },
    {
      "midi": 66,
      "hit": false,
      "t": 232204.26000000068,
      "d": 115.64937500000815,
      "v": 108
    },
    {
      "midi": 67,
      "hit": false,
      "t": 232322.37000000058,
      "d": 103.34625000000233,
      "v": 88
    },
    {
      "midi": 64,
      "hit": false,
      "t": 232322.37000000058,
      "d": 127.95250000001397,
      "v": 88
    },
    {
      "midi": 64,
      "hit": false,
      "t": 232322.3700000007,
      "d": 115.64937500000815,
      "v": 108
    },
    {
      "midi": 57,
      "hit": false,
      "t": 232440.47999999943,
      "d": 1599.40625,
      "v": 81
    },
    {
      "midi": 66,
      "hit": false,
      "t": 232440.47999999943,
      "d": 1702.7525000000023,
      "v": 86
    },
    {
      "midi": 86,
      "hit": false,
      "t": 232440.47999999975,
      "d": 164.86187500000233,
      "v": 62
    },
    {
      "midi": 74,
      "hit": false,
      "t": 232440.47999999975,
      "d": 182.08624999999302,
      "v": 62
    },
    {
      "midi": 50,
      "hit": false,
      "t": 232440.4799999999,
      "d": 1574.7999999999884,
      "v": 86
    },
    {
      "midi": 57,
      "hit": false,
      "t": 232440.48000000004,
      "d": 1663.382500000007,
      "v": 90
    },
    {
      "midi": 26,
      "hit": false,
      "t": 232440.48000000007,
      "d": 482.28250000000116,
      "v": 103
    },
    {
      "midi": 62,
      "hit": false,
      "t": 232440.4800000006,
      "d": 1232.773125000007,
      "v": 95
    },
    {
      "midi": 66,
      "hit": false,
      "t": 232440.4800000006,
      "d": 1259.8399999999965,
      "v": 101
    },
    {
      "midi": 62,
      "hit": false,
      "t": 232440.4800000007,
      "d": 1353.34375,
      "v": 101
    },
    {
      "midi": 86,
      "hit": false,
      "t": 232912.91999999975,
      "d": 172.24374999999418,
      "v": 61
    },
    {
      "midi": 74,
      "hit": false,
      "t": 232912.91999999975,
      "d": 194.38937499999884,
      "v": 64
    },
    {
      "midi": 26,
      "hit": false,
      "t": 233149.14000000007,
      "d": 125.49187500000698,
      "v": 98
    },
    {
      "midi": 86,
      "hit": false,
      "t": 233385.35999999975,
      "d": 157.48000000001048,
      "v": 61
    },
    {
      "midi": 74,
      "hit": false,
      "t": 233385.35999999975,
      "d": 187.00750000000698,
      "v": 68
    },
    {
      "midi": 26,
      "hit": false,
      "t": 233385.36000000007,
      "d": 497.04625000001397,
      "v": 96
    },
    {
      "midi": 86,
      "hit": false,
      "t": 233857.79999999976,
      "d": 162.40124999999534,
      "v": 66
    },
    {
      "midi": 74,
      "hit": false,
      "t": 233857.79999999976,
      "d": 191.92874999999185,
      "v": 63
    },
    {
      "midi": 66,
      "hit": false,
      "t": 233857.8000000006,
      "d": 177.16500000000815,
      "v": 103
    },
    {
      "midi": 69,
      "hit": false,
      "t": 233857.8000000006,
      "d": 187.00750000000698,
      "v": 102
    },
    {
      "midi": 66,
      "hit": false,
      "t": 233857.80000000072,
      "d": 206.69250000000466,
      "v": 116
    },
    {
      "midi": 59,
      "hit": false,
      "t": 234094.01999999944,
      "d": 1953.7362499999872,
      "v": 81
    },
    {
      "midi": 67,
      "hit": false,
      "t": 234094.01999999944,
      "d": 2054.6218749999825,
      "v": 79
    },
    {
      "midi": 50,
      "hit": false,
      "t": 234094.01999999987,
      "d": 1916.8268749999988,
      "v": 95
    },
    {
      "midi": 59,
      "hit": false,
      "t": 234094.02000000005,
      "d": 2106.295000000013,
      "v": 85
    },
    {
      "midi": 64,
      "hit": false,
      "t": 234094.0200000006,
      "d": 455.21562500001164,
      "v": 93
    },
    {
      "midi": 67,
      "hit": false,
      "t": 234094.0200000006,
      "d": 477.3612500000163,
      "v": 95
    },
    {
      "midi": 64,
      "hit": false,
      "t": 234094.02000000072,
      "d": 469.97937499999534,
      "v": 108
    },
    {
      "midi": 86,
      "hit": false,
      "t": 234330.23999999976,
      "d": 157.48000000001048,
      "v": 65
    },
    {
      "midi": 74,
      "hit": false,
      "t": 234330.23999999976,
      "d": 201.7712500000198,
      "v": 66
    },
    {
      "midi": 26,
      "hit": false,
      "t": 234330.24000000008,
      "d": 497.04625000001397,
      "v": 104
    },
    {
      "midi": 66,
      "hit": false,
      "t": 234566.4600000006,
      "d": 150.09812500001863,
      "v": 100
    },
    {
      "midi": 62,
      "hit": false,
      "t": 234566.4600000006,
      "d": 169.7831250000163,
      "v": 86
    },
    {
      "midi": 62,
      "hit": false,
      "t": 234566.46000000072,
      "d": 159.94062499998836,
      "v": 101
    },
    {
      "midi": 86,
      "hit": false,
      "t": 234802.6799999998,
      "d": 164.86187500000233,
      "v": 63
    },
    {
      "midi": 74,
      "hit": false,
      "t": 234802.6799999998,
      "d": 191.92874999999185,
      "v": 66
    },
    {
      "midi": 26,
      "hit": false,
      "t": 235038.90000000008,
      "d": 125.49187500000698,
      "v": 105
    },
    {
      "midi": 66,
      "hit": false,
      "t": 235038.9000000006,
      "d": 105.80687500000931,
      "v": 100
    },
    {
      "midi": 62,
      "hit": false,
      "t": 235038.9000000006,
      "d": 147.63750000001164,
      "v": 88
    },
    {
      "midi": 62,
      "hit": false,
      "t": 235038.90000000072,
      "d": 140.2556249999907,
      "v": 116
    },
    {
      "midi": 86,
      "hit": false,
      "t": 235275.1199999998,
      "d": 159.94062499998836,
      "v": 67
    },
    {
      "midi": 74,
      "hit": false,
      "t": 235275.1199999998,
      "d": 191.92874999999185,
      "v": 66
    },
    {
      "midi": 26,
      "hit": false,
      "t": 235275.12000000008,
      "d": 442.9125000000058,
      "v": 96
    },
    {
      "midi": 67,
      "hit": false,
      "t": 235275.1200000006,
      "d": 108.2674999999872,
      "v": 101
    },
    {
      "midi": 71,
      "hit": false,
      "t": 235275.1200000006,
      "d": 115.64937499997905,
      "v": 106
    },
    {
      "midi": 67,
      "hit": false,
      "t": 235275.12000000072,
      "d": 142.71624999999767,
      "v": 105
    },
    {
      "midi": 67,
      "hit": false,
      "t": 235511.34000000058,
      "d": 120.57062499999302,
      "v": 94
    },
    {
      "midi": 71,
      "hit": false,
      "t": 235511.34000000058,
      "d": 125.49187500000698,
      "v": 102
    },
    {
      "midi": 67,
      "hit": false,
      "t": 235511.34000000072,
      "d": 164.86187500000233,
      "v": 114
    },
    {
      "midi": 86,
      "hit": false,
      "t": 235747.5599999998,
      "d": 152.5587499999965,
      "v": 56
    },
    {
      "midi": 74,
      "hit": false,
      "t": 235747.5599999998,
      "d": 179.62562499998603,
      "v": 61
    },
    {
      "midi": 71,
      "hit": false,
      "t": 235747.56000000058,
      "d": 177.16500000000815,
      "v": 104
    },
    {
      "midi": 67,
      "hit": false,
      "t": 235747.56000000058,
      "d": 182.08625000002212,
      "v": 99
    },
    {
      "midi": 67,
      "hit": false,
      "t": 235747.56000000073,
      "d": 216.5350000000035,
      "v": 112
    },
    {
      "midi": 66,
      "hit": false,
      "t": 235983.7800000006,
      "d": 86.12187500001164,
      "v": 104
    },
    {
      "midi": 69,
      "hit": false,
      "t": 235983.7800000006,
      "d": 108.2675000000163,
      "v": 97
    },
    {
      "midi": 66,
      "hit": false,
      "t": 235983.78000000073,
      "d": 115.64937500000815,
      "v": 102
    },
    {
      "midi": 57,
      "hit": false,
      "t": 236101.88999999943,
      "d": 1614.1699999999837,
      "v": 86
    },
    {
      "midi": 66,
      "hit": false,
      "t": 236101.88999999943,
      "d": 1710.1343749999942,
      "v": 83
    },
    {
      "midi": 67,
      "hit": false,
      "t": 236101.89000000063,
      "d": 103.34625000000233,
      "v": 90
    },
    {
      "midi": 64,
      "hit": false,
      "t": 236101.89000000063,
      "d": 127.95250000001397,
      "v": 92
    },
    {
      "midi": 64,
      "hit": false,
      "t": 236101.89000000074,
      "d": 115.64937500000815,
      "v": 108
    },
    {
      "midi": 86,
      "hit": false,
      "t": 236219.99999999977,
      "d": 150.09812499998952,
      "v": 56
    },
    {
      "midi": 74,
      "hit": false,
      "t": 236219.99999999977,
      "d": 167.3224999999802,
      "v": 62
    },
    {
      "midi": 50,
      "hit": false,
      "t": 236219.99999999988,
      "d": 1555.1149999999907,
      "v": 87
    },
    {
      "midi": 57,
      "hit": false,
      "t": 236220.00000000006,
      "d": 1683.0675000000047,
      "v": 88
    },
    {
      "midi": 26,
      "hit": false,
      "t": 236220.0000000001,
      "d": 543.7981250000012,
      "v": 106
    },
    {
      "midi": 62,
      "hit": false,
      "t": 236220.00000000064,
      "d": 1232.773125000007,
      "v": 96
    },
    {
      "midi": 66,
      "hit": false,
      "t": 236220.00000000064,
      "d": 1259.8399999999965,
      "v": 102
    },
    {
      "midi": 62,
      "hit": false,
      "t": 236220.00000000076,
      "d": 1353.34375,
      "v": 109
    },
    {
      "midi": 86,
      "hit": false,
      "t": 236692.43999999974,
      "d": 155.0193750000035,
      "v": 54
    },
    {
      "midi": 74,
      "hit": false,
      "t": 236692.43999999974,
      "d": 179.62562500001513,
      "v": 61
    },
    {
      "midi": 26,
      "hit": false,
      "t": 236928.6600000001,
      "d": 113.18875000000116,
      "v": 106
    },
    {
      "midi": 86,
      "hit": false,
      "t": 237164.87999999974,
      "d": 157.48000000001048,
      "v": 62
    },
    {
      "midi": 74,
      "hit": false,
      "t": 237164.87999999974,
      "d": 172.24375000002328,
      "v": 61
    },
    {
      "midi": 26,
      "hit": false,
      "t": 237164.8800000001,
      "d": 455.21562500001164,
      "v": 100
    },
    {
      "midi": 86,
      "hit": false,
      "t": 237637.31999999977,
      "d": 147.63750000001164,
      "v": 55
    },
    {
      "midi": 74,
      "hit": false,
      "t": 237637.31999999977,
      "d": 177.16500000000815,
      "v": 59
    },
    {
      "midi": 66,
      "hit": false,
      "t": 237637.32000000065,
      "d": 177.16500000000815,
      "v": 98
    },
    {
      "midi": 69,
      "hit": false,
      "t": 237637.32000000065,
      "d": 187.00750000000698,
      "v": 104
    },
    {
      "midi": 66,
      "hit": false,
      "t": 237637.32000000076,
      "d": 206.69250000000466,
      "v": 111
    },
    {
      "midi": 59,
      "hit": false,
      "t": 237873.53999999943,
      "d": 1988.1849999999977,
      "v": 84
    },
    {
      "midi": 67,
      "hit": false,
      "t": 237873.53999999943,
      "d": 2079.228124999994,
      "v": 86
    },
    {
      "midi": 50,
      "hit": false,
      "t": 237873.53999999986,
      "d": 1953.7362499999872,
      "v": 89
    },
    {
      "midi": 59,
      "hit": false,
      "t": 237873.54000000007,
      "d": 2081.688750000001,
      "v": 80
    },
    {
      "midi": 64,
      "hit": false,
      "t": 237873.54000000065,
      "d": 455.21562500001164,
      "v": 93
    },
    {
      "midi": 67,
      "hit": false,
      "t": 237873.54000000065,
      "d": 477.3612500000163,
      "v": 96
    },
    {
      "midi": 64,
      "hit": false,
      "t": 237873.54000000076,
      "d": 469.97937499999534,
      "v": 108
    },
    {
      "midi": 86,
      "hit": false,
      "t": 238109.75999999978,
      "d": 162.40124999999534,
      "v": 57
    },
    {
      "midi": 74,
      "hit": false,
      "t": 238109.75999999978,
      "d": 189.46812499998487,
      "v": 60
    },
    {
      "midi": 26,
      "hit": false,
      "t": 238109.7600000001,
      "d": 489.664374999993,
      "v": 105
    },
    {
      "midi": 66,
      "hit": false,
      "t": 238345.98000000065,
      "d": 150.09812500001863,
      "v": 102
    },
    {
      "midi": 62,
      "hit": false,
      "t": 238345.98000000065,
      "d": 169.7831250000163,
      "v": 91
    },
    {
      "midi": 62,
      "hit": false,
      "t": 238345.98000000077,
      "d": 159.94062499998836,
      "v": 104
    },
    {
      "midi": 86,
      "hit": false,
      "t": 238582.19999999975,
      "d": 150.09812499998952,
      "v": 62
    },
    {
      "midi": 74,
      "hit": false,
      "t": 238582.19999999975,
      "d": 187.00749999997788,
      "v": 66
    },
    {
      "midi": 26,
      "hit": false,
      "t": 238818.4200000001,
      "d": 103.34625000000233,
      "v": 93
    },
    {
      "midi": 66,
      "hit": false,
      "t": 238818.42000000065,
      "d": 105.80687500000931,
      "v": 109
    },
    {
      "midi": 62,
      "hit": false,
      "t": 238818.42000000065,
      "d": 147.63750000001164,
      "v": 94
    },
    {
      "midi": 62,
      "hit": false,
      "t": 238818.42000000077,
      "d": 140.2556249999907,
      "v": 108
    },
    {
      "midi": 86,
      "hit": false,
      "t": 239054.63999999972,
      "d": 167.3225000000093,
      "v": 62
    },
    {
      "midi": 74,
      "hit": false,
      "t": 239054.63999999972,
      "d": 174.70437500000116,
      "v": 57
    },
    {
      "midi": 26,
      "hit": false,
      "t": 239054.6400000001,
      "d": 418.3062499999942,
      "v": 100
    },
    {
      "midi": 67,
      "hit": false,
      "t": 239054.64000000065,
      "d": 108.2674999999872,
      "v": 100
    },
    {
      "midi": 71,
      "hit": false,
      "t": 239054.64000000065,
      "d": 115.64937499997905,
      "v": 102
    },
    {
      "midi": 67,
      "hit": false,
      "t": 239054.64000000077,
      "d": 142.71624999999767,
      "v": 110
    },
    {
      "midi": 67,
      "hit": false,
      "t": 239290.86000000063,
      "d": 120.57062499999302,
      "v": 96
    },
    {
      "midi": 71,
      "hit": false,
      "t": 239290.86000000063,
      "d": 125.49187500000698,
      "v": 101
    },
    {
      "midi": 67,
      "hit": false,
      "t": 239290.86000000077,
      "d": 164.86187500000233,
      "v": 110
    },
    {
      "midi": 86,
      "hit": false,
      "t": 239527.07999999973,
      "d": 157.48000000001048,
      "v": 61
    },
    {
      "midi": 74,
      "hit": false,
      "t": 239527.07999999973,
      "d": 159.94062500001746,
      "v": 63
    },
    {
      "midi": 71,
      "hit": false,
      "t": 239527.08000000063,
      "d": 177.16500000000815,
      "v": 104
    },
    {
      "midi": 67,
      "hit": false,
      "t": 239527.08000000063,
      "d": 182.08625000002212,
      "v": 101
    },
    {
      "midi": 67,
      "hit": false,
      "t": 239527.08000000077,
      "d": 216.5350000000035,
      "v": 110
    },
    {
      "midi": 66,
      "hit": false,
      "t": 239763.30000000066,
      "d": 86.12187500001164,
      "v": 98
    },
    {
      "midi": 69,
      "hit": false,
      "t": 239763.30000000066,
      "d": 108.2675000000163,
      "v": 93
    },
    {
      "midi": 66,
      "hit": false,
      "t": 239763.30000000077,
      "d": 115.64937500000815,
      "v": 105
    },
    {
      "midi": 67,
      "hit": false,
      "t": 239881.41000000067,
      "d": 103.34625000000233,
      "v": 89
    },
    {
      "midi": 64,
      "hit": false,
      "t": 239881.41000000067,
      "d": 127.95250000001397,
      "v": 89
    },
    {
      "midi": 64,
      "hit": false,
      "t": 239881.4100000008,
      "d": 115.64937500000815,
      "v": 107
    },
    {
      "midi": 57,
      "hit": false,
      "t": 239999.5199999994,
      "d": 1562.4968750000116,
      "v": 82
    },
    {
      "midi": 66,
      "hit": false,
      "t": 239999.5199999994,
      "d": 1678.1462500000198,
      "v": 86
    },
    {
      "midi": 86,
      "hit": false,
      "t": 239999.51999999976,
      "d": 152.5587499999965,
      "v": 61
    },
    {
      "midi": 74,
      "hit": false,
      "t": 239999.51999999976,
      "d": 159.94062499998836,
      "v": 59
    },
    {
      "midi": 50,
      "hit": false,
      "t": 239999.51999999984,
      "d": 1550.1937500000058,
      "v": 92
    },
    {
      "midi": 57,
      "hit": false,
      "t": 239999.52000000008,
      "d": 1680.6068749999977,
      "v": 85
    },
    {
      "midi": 26,
      "hit": false,
      "t": 239999.5200000001,
      "d": 487.20374999998603,
      "v": 102
    },
    {
      "midi": 62,
      "hit": false,
      "t": 239999.5200000007,
      "d": 1232.773125000007,
      "v": 92
    },
    {
      "midi": 66,
      "hit": false,
      "t": 239999.5200000007,
      "d": 1259.8399999999965,
      "v": 107
    },
    {
      "midi": 62,
      "hit": false,
      "t": 239999.5200000008,
      "d": 1353.34375,
      "v": 110
    },
    {
      "midi": 86,
      "hit": false,
      "t": 240471.95999999976,
      "d": 157.48000000001048,
      "v": 60
    },
    {
      "midi": 74,
      "hit": false,
      "t": 240471.95999999976,
      "d": 164.86187500000233,
      "v": 60
    },
    {
      "midi": 26,
      "hit": false,
      "t": 240708.18000000008,
      "d": 110.72812499999418,
      "v": 103
    },
    {
      "midi": 86,
      "hit": false,
      "t": 240944.39999999976,
      "d": 150.09812499998952,
      "v": 60
    },
    {
      "midi": 74,
      "hit": false,
      "t": 240944.39999999976,
      "d": 177.16499999997905,
      "v": 64
    },
    {
      "midi": 26,
      "hit": false,
      "t": 240944.40000000008,
      "d": 474.9006250000093,
      "v": 98
    },
    {
      "midi": 86,
      "hit": false,
      "t": 241416.83999999973,
      "d": 169.7831249999872,
      "v": 62
    },
    {
      "midi": 74,
      "hit": false,
      "t": 241416.83999999973,
      "d": 194.38937499999884,
      "v": 66
    },
    {
      "midi": 66,
      "hit": false,
      "t": 241416.8400000007,
      "d": 177.16500000000815,
      "v": 99
    },
    {
      "midi": 69,
      "hit": false,
      "t": 241416.8400000007,
      "d": 187.00750000000698,
      "v": 102
    },
    {
      "midi": 66,
      "hit": false,
      "t": 241416.8400000008,
      "d": 206.69250000000466,
      "v": 113
    },
    {
      "midi": 59,
      "hit": false,
      "t": 241653.05999999942,
      "d": 2066.9250000000175,
      "v": 83
    },
    {
      "midi": 67,
      "hit": false,
      "t": 241653.05999999942,
      "d": 2086.610000000015,
      "v": 78
    },
    {
      "midi": 50,
      "hit": false,
      "t": 241653.05999999985,
      "d": 2017.7124999999942,
      "v": 95
    },
    {
      "midi": 59,
      "hit": false,
      "t": 241653.06000000008,
      "d": 2057.0824999999895,
      "v": 83
    },
    {
      "midi": 64,
      "hit": false,
      "t": 241653.0600000007,
      "d": 455.21562500001164,
      "v": 98
    },
    {
      "midi": 67,
      "hit": false,
      "t": 241653.0600000007,
      "d": 477.3612500000163,
      "v": 98
    },
    {
      "midi": 64,
      "hit": false,
      "t": 241653.0600000008,
      "d": 469.97937499999534,
      "v": 110
    },
    {
      "midi": 74,
      "hit": false,
      "t": 241889.27999999974,
      "d": 167.3225000000093,
      "v": 62
    },
    {
      "midi": 86,
      "hit": false,
      "t": 241889.27999999974,
      "d": 167.3225000000093,
      "v": 58
    },
    {
      "midi": 26,
      "hit": false,
      "t": 241889.2800000001,
      "d": 519.1918749999895,
      "v": 100
    },
    {
      "midi": 66,
      "hit": false,
      "t": 242125.5000000007,
      "d": 150.09812500001863,
      "v": 102
    },
    {
      "midi": 62,
      "hit": false,
      "t": 242125.5000000007,
      "d": 169.7831250000163,
      "v": 90
    },
    {
      "midi": 62,
      "hit": false,
      "t": 242125.50000000081,
      "d": 159.94062499998836,
      "v": 100
    },
    {
      "midi": 86,
      "hit": false,
      "t": 242361.71999999974,
      "d": 157.48000000001048,
      "v": 63
    },
    {
      "midi": 74,
      "hit": false,
      "t": 242361.71999999974,
      "d": 162.40125000002445,
      "v": 67
    },
    {
      "midi": 26,
      "hit": false,
      "t": 242597.9400000001,
      "d": 125.49187500000698,
      "v": 96
    },
    {
      "midi": 66,
      "hit": false,
      "t": 242597.9400000007,
      "d": 105.80687500000931,
      "v": 109
    },
    {
      "midi": 62,
      "hit": false,
      "t": 242597.9400000007,
      "d": 147.63750000001164,
      "v": 89
    },
    {
      "midi": 62,
      "hit": false,
      "t": 242597.94000000082,
      "d": 140.2556249999907,
      "v": 108
    },
    {
      "midi": 86,
      "hit": false,
      "t": 242834.15999999977,
      "d": 147.63750000001164,
      "v": 65
    },
    {
      "midi": 74,
      "hit": false,
      "t": 242834.15999999977,
      "d": 164.86187500000233,
      "v": 70
    },
    {
      "midi": 26,
      "hit": false,
      "t": 242834.1600000001,
      "d": 484.74312500000815,
      "v": 102
    },
    {
      "midi": 67,
      "hit": false,
      "t": 242834.1600000007,
      "d": 108.2674999999872,
      "v": 104
    },
    {
      "midi": 71,
      "hit": false,
      "t": 242834.1600000007,
      "d": 115.64937499997905,
      "v": 105
    },
    {
      "midi": 67,
      "hit": false,
      "t": 242834.16000000082,
      "d": 142.71624999999767,
      "v": 111
    },
    {
      "midi": 67,
      "hit": false,
      "t": 243070.38000000067,
      "d": 120.57062499999302,
      "v": 96
    },
    {
      "midi": 71,
      "hit": false,
      "t": 243070.38000000067,
      "d": 125.49187500000698,
      "v": 97
    },
    {
      "midi": 67,
      "hit": false,
      "t": 243070.38000000082,
      "d": 164.86187500000233,
      "v": 105
    },
    {
      "midi": 74,
      "hit": false,
      "t": 243306.59999999977,
      "d": 150.09812499998952,
      "v": 71
    },
    {
      "midi": 86,
      "hit": false,
      "t": 243306.59999999977,
      "d": 152.5587499999965,
      "v": 66
    },
    {
      "midi": 71,
      "hit": false,
      "t": 243306.60000000068,
      "d": 177.16500000000815,
      "v": 105
    },
    {
      "midi": 67,
      "hit": false,
      "t": 243306.60000000068,
      "d": 182.08625000002212,
      "v": 94
    },
    {
      "midi": 67,
      "hit": false,
      "t": 243306.60000000082,
      "d": 216.5350000000035,
      "v": 112
    },
    {
      "midi": 66,
      "hit": false,
      "t": 243542.8200000007,
      "d": 86.12187500001164,
      "v": 95
    },
    {
      "midi": 69,
      "hit": false,
      "t": 243542.8200000007,
      "d": 108.2675000000163,
      "v": 97
    },
    {
      "midi": 66,
      "hit": false,
      "t": 243542.82000000082,
      "d": 115.64937500000815,
      "v": 109
    },
    {
      "midi": 67,
      "hit": false,
      "t": 243660.93000000072,
      "d": 103.34625000000233,
      "v": 87
    },
    {
      "midi": 64,
      "hit": false,
      "t": 243660.93000000072,
      "d": 127.95250000001397,
      "v": 90
    },
    {
      "midi": 64,
      "hit": false,
      "t": 243660.93000000084,
      "d": 115.64937500000815,
      "v": 101
    }
  ]
}