{
  "jsonPath": "Unknown/Unknown/Lucha Villa Con El Mariachi Vargas De Tecalitlan/la-llorona.json",
  "path": "Unknown\\Unknown\\Lucha Villa Con El Mariachi Vargas De Tecalitlan\\La Llorona.mid",
  "name": "La Llorona",
  "difficulty": "Advanced",
  "bpm": 160,
  "notes": [
    {
      "midi": 77,
      "hit": false,
      "t": 2250,
      "d": 340.625,
      "v": 64
    },
    {
      "midi": 38,
      "hit": false,
      "t": 2250,
      "d": 359.375,
      "v": 31
    },
    {
      "midi": 62,
      "hit": false,
      "t": 2625,
      "d": 62.5,
      "v": 31
    },
    {
      "midi": 60,
      "hit": false,
      "t": 2625,
      "d": 90.625,
      "v": 54
    },
    {
      "midi": 53,
      "hit": false,
      "t": 2625,
      "d": 118.75,
      "v": 55
    },
    {
      "midi": 57,
      "hit": false,
      "t": 2625,
      "d": 200,
      "v": 54
    },
    {
      "midi": 69,
      "hit": false,
      "t": 2825,
      "d": 153.125,
      "v": 45
    },
    {
      "midi": 60,
      "hit": false,
      "t": 3000,
      "d": 56.25,
      "v": 54
    },
    {
      "midi": 57,
      "hit": false,
      "t": 3000,
      "d": 62.5,
      "v": 46
    },
    {
      "midi": 62,
      "hit": false,
      "t": 3000,
      "d": 62.5,
      "v": 37
    },
    {
      "midi": 65,
      "hit": false,
      "t": 3000,
      "d": 62.5,
      "v": 37
    },
    {
      "midi": 72,
      "hit": false,
      "t": 3000,
      "d": 112.5,
      "v": 59
    },
    {
      "midi": 77,
      "hit": false,
      "t": 3187.5,
      "d": 103.125,
      "v": 67
    },
    {
      "midi": 74,
      "hit": false,
      "t": 3375,
      "d": 362.5,
      "v": 49
    },
    {
      "midi": 43,
      "hit": false,
      "t": 3381.25,
      "d": 562.5,
      "v": 46
    },
    {
      "midi": 62,
      "hit": false,
      "t": 3756.25,
      "d": 290.625,
      "v": 51
    },
    {
      "midi": 58,
      "hit": false,
      "t": 3756.25,
      "d": 303.125,
      "v": 50
    },
    {
      "midi": 55,
      "hit": false,
      "t": 3756.25,
      "d": 312.5,
      "v": 35
    },
    {
      "midi": 65,
      "hit": false,
      "t": 3756.25,
      "d": 312.5,
      "v": 52
    },
    {
      "midi": 62,
      "hit": false,
      "t": 4128.125,
      "d": 159.375,
      "v": 54
    },
    {
      "midi": 65,
      "hit": false,
      "t": 4128.125,
      "d": 159.375,
      "v": 43
    },
    {
      "midi": 67,
      "hit": false,
      "t": 4131.25,
      "d": 181.25,
      "v": 41
    },
    {
      "midi": 58,
      "hit": false,
      "t": 4131.25,
      "d": 296.875,
      "v": 49
    },
    {
      "midi": 74,
      "hit": false,
      "t": 4500,
      "d": 340.625,
      "v": 64
    },
    {
      "midi": 43,
      "hit": false,
      "t": 4500,
      "d": 359.375,
      "v": 31
    },
    {
      "midi": 62,
      "hit": false,
      "t": 4875,
      "d": 62.5,
      "v": 31
    },
    {
      "midi": 58,
      "hit": false,
      "t": 4875,
      "d": 90.625,
      "v": 51
    },
    {
      "midi": 53,
      "hit": false,
      "t": 4875,
      "d": 118.75,
      "v": 45
    },
    {
      "midi": 55,
      "hit": false,
      "t": 4875,
      "d": 200,
      "v": 41
    },
    {
      "midi": 67,
      "hit": false,
      "t": 5075,
      "d": 153.125,
      "v": 45
    },
    {
      "midi": 58,
      "hit": false,
      "t": 5250,
      "d": 56.25,
      "v": 59
    },
    {
      "midi": 55,
      "hit": false,
      "t": 5250,
      "d": 62.5,
      "v": 46
    },
    {
      "midi": 62,
      "hit": false,
      "t": 5250,
      "d": 62.5,
      "v": 37
    },
    {
      "midi": 65,
      "hit": false,
      "t": 5250,
      "d": 62.5,
      "v": 37
    },
    {
      "midi": 70,
      "hit": false,
      "t": 5250,
      "d": 112.5,
      "v": 59
    },
    {
      "midi": 77,
      "hit": false,
      "t": 5437.5,
      "d": 103.125,
      "v": 82
    },
    {
      "midi": 77,
      "hit": false,
      "t": 5625,
      "d": 362.5,
      "v": 49
    },
    {
      "midi": 38,
      "hit": false,
      "t": 5631.25,
      "d": 562.5,
      "v": 46
    },
    {
      "midi": 57,
      "hit": false,
      "t": 6006.25,
      "d": 296.875,
      "v": 35
    },
    {
      "midi": 65,
      "hit": false,
      "t": 6006.25,
      "d": 312.5,
      "v": 52
    },
    {
      "midi": 60,
      "hit": false,
      "t": 6006.25,
      "d": 340.625,
      "v": 50
    },
    {
      "midi": 62,
      "hit": false,
      "t": 6006.25,
      "d": 340.625,
      "v": 51
    },
    {
      "midi": 62,
      "hit": false,
      "t": 6378.125,
      "d": 175,
      "v": 54
    },
    {
      "midi": 65,
      "hit": false,
      "t": 6378.125,
      "d": 175,
      "v": 43
    },
    {
      "midi": 57,
      "hit": false,
      "t": 6381.25,
      "d": 171.875,
      "v": 41
    },
    {
      "midi": 60,
      "hit": false,
      "t": 6381.25,
      "d": 171.875,
      "v": 49
    },
    {
      "midi": 72,
      "hit": false,
      "t": 6562.5,
      "d": 184.375,
      "v": 49
    },
    {
      "midi": 74,
      "hit": false,
      "t": 6750,
      "d": 340.625,
      "v": 64
    },
    {
      "midi": 38,
      "hit": false,
      "t": 6750,
      "d": 359.375,
      "v": 31
    },
    {
      "midi": 62,
      "hit": false,
      "t": 7125,
      "d": 62.5,
      "v": 31
    },
    {
      "midi": 60,
      "hit": false,
      "t": 7125,
      "d": 90.625,
      "v": 51
    },
    {
      "midi": 53,
      "hit": false,
      "t": 7125,
      "d": 118.75,
      "v": 45
    },
    {
      "midi": 57,
      "hit": false,
      "t": 7125,
      "d": 200,
      "v": 41
    },
    {
      "midi": 69,
      "hit": false,
      "t": 7325,
      "d": 153.125,
      "v": 45
    },
    {
      "midi": 60,
      "hit": false,
      "t": 7500,
      "d": 56.25,
      "v": 59
    },
    {
      "midi": 57,
      "hit": false,
      "t": 7500,
      "d": 62.5,
      "v": 46
    },
    {
      "midi": 62,
      "hit": false,
      "t": 7500,
      "d": 62.5,
      "v": 37
    },
    {
      "midi": 65,
      "hit": false,
      "t": 7500,
      "d": 62.5,
      "v": 37
    },
    {
      "midi": 72,
      "hit": false,
      "t": 7500,
      "d": 112.5,
      "v": 59
    },
    {
      "midi": 77,
      "hit": false,
      "t": 7687.5,
      "d": 103.125,
      "v": 82
    },
    {
      "midi": 68,
      "hit": false,
      "t": 7875,
      "d": 362.5,
      "v": 46
    },
    {
      "midi": 40,
      "hit": false,
      "t": 7881.25,
      "d": 562.5,
      "v": 53
    },
    {
      "midi": 56,
      "hit": false,
      "t": 8256.25,
      "d": 303.125,
      "v": 47
    },
    {
      "midi": 52,
      "hit": false,
      "t": 8256.25,
      "d": 312.5,
      "v": 32
    },
    {
      "midi": 62,
      "hit": false,
      "t": 8256.25,
      "d": 312.5,
      "v": 49
    },
    {
      "midi": 59,
      "hit": false,
      "t": 8256.25,
      "d": 340.625,
      "v": 48
    },
    {
      "midi": 59,
      "hit": false,
      "t": 8628.125,
      "d": 212.5,
      "v": 51
    },
    {
      "midi": 62,
      "hit": false,
      "t": 8628.125,
      "d": 237.5,
      "v": 40
    },
    {
      "midi": 56,
      "hit": false,
      "t": 8631.25,
      "d": 212.5,
      "v": 46
    },
    {
      "midi": 64,
      "hit": false,
      "t": 8631.25,
      "d": 243.75,
      "v": 38
    },
    {
      "midi": 69,
      "hit": false,
      "t": 9000,
      "d": 340.625,
      "v": 64
    },
    {
      "midi": 45,
      "hit": false,
      "t": 9000,
      "d": 359.375,
      "v": 31
    },
    {
      "midi": 57,
      "hit": false,
      "t": 9375,
      "d": 62.5,
      "v": 31
    },
    {
      "midi": 55,
      "hit": false,
      "t": 9375,
      "d": 90.625,
      "v": 51
    },
    {
      "midi": 49,
      "hit": false,
      "t": 9375,
      "d": 118.75,
      "v": 45
    },
    {
      "midi": 52,
      "hit": false,
      "t": 9375,
      "d": 200,
      "v": 41
    },
    {
      "midi": 64,
      "hit": false,
      "t": 9575,
      "d": 153.125,
      "v": 45
    },
    {
      "midi": 55,
      "hit": false,
      "t": 9750,
      "d": 56.25,
      "v": 59
    },
    {
      "midi": 52,
      "hit": false,
      "t": 9750,
      "d": 62.5,
      "v": 46
    },
    {
      "midi": 57,
      "hit": false,
      "t": 9750,
      "d": 62.5,
      "v": 37
    },
    {
      "midi": 61,
      "hit": false,
      "t": 9750,
      "d": 62.5,
      "v": 37
    },
    {
      "midi": 67,
      "hit": false,
      "t": 9750,
      "d": 112.5,
      "v": 59
    },
    {
      "midi": 73,
      "hit": false,
      "t": 9937.5,
      "d": 103.125,
      "v": 82
    },
    {
      "midi": 74,
      "hit": false,
      "t": 10125,
      "d": 340.625,
      "v": 64
    },
    {
      "midi": 38,
      "hit": false,
      "t": 10125,
      "d": 359.375,
      "v": 31
    },
    {
      "midi": 62,
      "hit": false,
      "t": 10500,
      "d": 62.5,
      "v": 31
    },
    {
      "midi": 60,
      "hit": false,
      "t": 10500,
      "d": 90.625,
      "v": 51
    },
    {
      "midi": 53,
      "hit": false,
      "t": 10500,
      "d": 118.75,
      "v": 45
    },
    {
      "midi": 57,
      "hit": false,
      "t": 10500,
      "d": 200,
      "v": 41
    },
    {
      "midi": 69,
      "hit": false,
      "t": 10700,
      "d": 153.125,
      "v": 45
    },
    {
      "midi": 60,
      "hit": false,
      "t": 10875,
      "d": 56.25,
      "v": 59
    },
    {
      "midi": 57,
      "hit": false,
      "t": 10875,
      "d": 62.5,
      "v": 46
    },
    {
      "midi": 62,
      "hit": false,
      "t": 10875,
      "d": 62.5,
      "v": 37
    },
    {
      "midi": 65,
      "hit": false,
      "t": 10875,
      "d": 62.5,
      "v": 37
    },
    {
      "midi": 72,
      "hit": false,
      "t": 10875,
      "d": 112.5,
      "v": 59
    },
    {
      "midi": 77,
      "hit": false,
      "t": 11062.5,
      "d": 103.125,
      "v": 82
    },
    {
      "midi": 74,
      "hit": false,
      "t": 11250,
      "d": 362.5,
      "v": 49
    },
    {
      "midi": 38,
      "hit": false,
      "t": 11256.25,
      "d": 562.5,
      "v": 46
    },
    {
      "midi": 62,
      "hit": false,
      "t": 11631.25,
      "d": 290.625,
      "v": 51
    },
    {
      "midi": 60,
      "hit": false,
      "t": 11631.25,
      "d": 303.125,
      "v": 50
    },
    {
      "midi": 57,
      "hit": false,
      "t": 11631.25,
      "d": 312.5,
      "v": 35
    },
    {
      "midi": 65,
      "hit": false,
      "t": 11631.25,
      "d": 312.5,
      "v": 52
    },
    {
      "midi": 62,
      "hit": false,
      "t": 12003.125,
      "d": 159.375,
      "v": 54
    },
    {
      "midi": 65,
      "hit": false,
      "t": 12003.125,
      "d": 159.375,
      "v": 43
    },
    {
      "midi": 69,
      "hit": false,
      "t": 12006.25,
      "d": 181.25,
      "v": 41
    },
    {
      "midi": 60,
      "hit": false,
      "t": 12006.25,
      "d": 296.875,
      "v": 49
    },
    {
      "midi": 67,
      "hit": false,
      "t": 12350,
      "d": 225,
      "v": 83
    },
    {
      "midi": 77,
      "hit": false,
      "t": 12375,
      "d": 362.5,
      "v": 45
    },
    {
      "midi": 43,
      "hit": false,
      "t": 12381.25,
      "d": 562.5,
      "v": 52
    },
    {
      "midi": 79,
      "hit": false,
      "t": 12556.25,
      "d": 187.5,
      "v": 83
    },
    {
      "midi": 65,
      "hit": false,
      "t": 12756.25,
      "d": 312.5,
      "v": 48
    },
    {
      "midi": 55,
      "hit": false,
      "t": 12756.25,
      "d": 340.625,
      "v": 31
    },
    {
      "midi": 58,
      "hit": false,
      "t": 12756.25,
      "d": 340.625,
      "v": 46
    },
    {
      "midi": 62,
      "hit": false,
      "t": 12756.25,
      "d": 340.625,
      "v": 47
    },
    {
      "midi": 67,
      "hit": false,
      "t": 12768.75,
      "d": 200,
      "v": 83
    },
    {
      "midi": 79,
      "hit": false,
      "t": 12959.375,
      "d": 150,
      "v": 83
    },
    {
      "midi": 67,
      "hit": false,
      "t": 13125,
      "d": 193.75,
      "v": 83
    },
    {
      "midi": 62,
      "hit": false,
      "t": 13128.125,
      "d": 153.125,
      "v": 50
    },
    {
      "midi": 65,
      "hit": false,
      "t": 13128.125,
      "d": 153.125,
      "v": 39
    },
    {
      "midi": 67,
      "hit": false,
      "t": 13131.25,
      "d": 121.875,
      "v": 37
    },
    {
      "midi": 58,
      "hit": false,
      "t": 13131.25,
      "d": 137.5,
      "v": 45
    },
    {
      "midi": 79,
      "hit": false,
      "t": 13303.125,
      "d": 175,
      "v": 83
    },
    {
      "midi": 67,
      "hit": false,
      "t": 13496.875,
      "d": 190.625,
      "v": 83
    },
    {
      "midi": 70,
      "hit": false,
      "t": 13500,
      "d": 362.5,
      "v": 46
    },
    {
      "midi": 43,
      "hit": false,
      "t": 13506.25,
      "d": 562.5,
      "v": 53
    },
    {
      "midi": 79,
      "hit": false,
      "t": 13675,
      "d": 171.875,
      "v": 83
    },
    {
      "midi": 67,
      "hit": false,
      "t": 13871.875,
      "d": 187.5,
      "v": 83
    },
    {
      "midi": 58,
      "hit": false,
      "t": 13881.25,
      "d": 303.125,
      "v": 47
    },
    {
      "midi": 55,
      "hit": false,
      "t": 13881.25,
      "d": 312.5,
      "v": 32
    },
    {
      "midi": 65,
      "hit": false,
      "t": 13881.25,
      "d": 312.5,
      "v": 49
    },
    {
      "midi": 62,
      "hit": false,
      "t": 13881.25,
      "d": 340.625,
      "v": 48
    },
    {
      "midi": 79,
      "hit": false,
      "t": 14059.375,
      "d": 190.625,
      "v": 83
    },
    {
      "midi": 67,
      "hit": false,
      "t": 14250,
      "d": 246.875,
      "v": 83
    },
    {
      "midi": 62,
      "hit": false,
      "t": 14253.125,
      "d": 212.5,
      "v": 51
    },
    {
      "midi": 65,
      "hit": false,
      "t": 14253.125,
      "d": 237.5,
      "v": 40
    },
    {
      "midi": 58,
      "hit": false,
      "t": 14256.25,
      "d": 212.5,
      "v": 46
    },
    {
      "midi": 67,
      "hit": false,
      "t": 14256.25,
      "d": 243.75,
      "v": 38
    },
    {
      "midi": 79,
      "hit": false,
      "t": 14428.125,
      "d": 159.375,
      "v": 83
    },
    {
      "midi": 74,
      "hit": false,
      "t": 14625,
      "d": 340.625,
      "v": 64
    },
    {
      "midi": 38,
      "hit": false,
      "t": 14625,
      "d": 359.375,
      "v": 31
    },
    {
      "midi": 65,
      "hit": false,
      "t": 14625,
      "d": 212.5,
      "v": 83
    },
    {
      "midi": 77,
      "hit": false,
      "t": 14809.375,
      "d": 178.125,
      "v": 83
    },
    {
      "midi": 62,
      "hit": false,
      "t": 15000,
      "d": 62.5,
      "v": 31
    },
    {
      "midi": 60,
      "hit": false,
      "t": 15000,
      "d": 90.625,
      "v": 51
    },
    {
      "midi": 53,
      "hit": false,
      "t": 15000,
      "d": 118.75,
      "v": 45
    },
    {
      "midi": 57,
      "hit": false,
      "t": 15000,
      "d": 200,
      "v": 41
    },
    {
      "midi": 65,
      "hit": false,
      "t": 15018.75,
      "d": 181.25,
      "v": 83
    },
    {
      "midi": 77,
      "hit": false,
      "t": 15184.375,
      "d": 187.5,
      "v": 83
    },
    {
      "midi": 69,
      "hit": false,
      "t": 15200,
      "d": 153.125,
      "v": 45
    },
    {
      "midi": 60,
      "hit": false,
      "t": 15375,
      "d": 56.25,
      "v": 59
    },
    {
      "midi": 57,
      "hit": false,
      "t": 15375,
      "d": 62.5,
      "v": 46
    },
    {
      "midi": 62,
      "hit": false,
      "t": 15375,
      "d": 62.5,
      "v": 37
    },
    {
      "midi": 65,
      "hit": false,
      "t": 15375,
      "d": 62.5,
      "v": 37
    },
    {
      "midi": 72,
      "hit": false,
      "t": 15375,
      "d": 112.5,
      "v": 59
    },
    {
      "midi": 65,
      "hit": false,
      "t": 15393.75,
      "d": 178.125,
      "v": 83
    },
    {
      "midi": 77,
      "hit": false,
      "t": 15562.5,
      "d": 103.125,
      "v": 82
    },
    {
      "midi": 77,
      "hit": false,
      "t": 15562.5,
      "d": 187.5,
      "v": 83
    },
    {
      "midi": 74,
      "hit": false,
      "t": 15750,
      "d": 362.5,
      "v": 49
    },
    {
      "midi": 38,
      "hit": false,
      "t": 15756.25,
      "d": 562.5,
      "v": 46
    },
    {
      "midi": 65,
      "hit": false,
      "t": 15768.75,
      "d": 171.875,
      "v": 83
    },
    {
      "midi": 77,
      "hit": false,
      "t": 15950,
      "d": 168.75,
      "v": 83
    },
    {
      "midi": 62,
      "hit": false,
      "t": 16131.25,
      "d": 290.625,
      "v": 51
    },
    {
      "midi": 60,
      "hit": false,
      "t": 16131.25,
      "d": 303.125,
      "v": 50
    },
    {
      "midi": 57,
      "hit": false,
      "t": 16131.25,
      "d": 312.5,
      "v": 35
    },
    {
      "midi": 65,
      "hit": false,
      "t": 16131.25,
      "d": 312.5,
      "v": 52
    },
    {
      "midi": 65,
      "hit": false,
      "t": 16140.625,
      "d": 156.25,
      "v": 83
    },
    {
      "midi": 77,
      "hit": false,
      "t": 16312.5,
      "d": 168.75,
      "v": 83
    },
    {
      "midi": 62,
      "hit": false,
      "t": 16503.125,
      "d": 159.375,
      "v": 54
    },
    {
      "midi": 65,
      "hit": false,
      "t": 16503.125,
      "d": 159.375,
      "v": 43
    },
    {
      "midi": 65,
      "hit": false,
      "t": 16503.125,
      "d": 187.5,
      "v": 83
    },
    {
      "midi": 69,
      "hit": false,
      "t": 16506.25,
      "d": 181.25,
      "v": 41
    },
    {
      "midi": 60,
      "hit": false,
      "t": 16506.25,
      "d": 296.875,
      "v": 49
    },
    {
      "midi": 77,
      "hit": false,
      "t": 16662.5,
      "d": 162.5,
      "v": 83
    },
    {
      "midi": 64,
      "hit": false,
      "t": 16859.375,
      "d": 193.75,
      "v": 83
    },
    {
      "midi": 74,
      "hit": false,
      "t": 16875,
      "d": 362.5,
      "v": 49
    },
    {
      "midi": 40,
      "hit": false,
      "t": 16881.25,
      "d": 562.5,
      "v": 46
    },
    {
      "midi": 76,
      "hit": false,
      "t": 17043.75,
      "d": 184.375,
      "v": 83
    },
    {
      "midi": 52,
      "hit": false,
      "t": 17256.25,
      "d": 296.875,
      "v": 35
    },
    {
      "midi": 62,
      "hit": false,
      "t": 17256.25,
      "d": 312.5,
      "v": 52
    },
    {
      "midi": 56,
      "hit": false,
      "t": 17256.25,
      "d": 340.625,
      "v": 50
    },
    {
      "midi": 59,
      "hit": false,
      "t": 17256.25,
      "d": 340.625,
      "v": 51
    },
    {
      "midi": 64,
      "hit": false,
      "t": 17262.5,
      "d": 175,
      "v": 83
    },
    {
      "midi": 76,
      "hit": false,
      "t": 17415.625,
      "d": 193.75,
      "v": 83
    },
    {
      "midi": 64,
      "hit": false,
      "t": 17625,
      "d": 203.125,
      "v": 83
    },
    {
      "midi": 59,
      "hit": false,
      "t": 17628.125,
      "d": 175,
      "v": 54
    },
    {
      "midi": 62,
      "hit": false,
      "t": 17628.125,
      "d": 175,
      "v": 43
    },
    {
      "midi": 52,
      "hit": false,
      "t": 17631.25,
      "d": 171.875,
      "v": 41
    },
    {
      "midi": 56,
      "hit": false,
      "t": 17631.25,
      "d": 171.875,
      "v": 49
    },
    {
      "midi": 76,
      "hit": false,
      "t": 17753.125,
      "d": 106.25,
      "v": 83
    },
    {
      "midi": 68,
      "hit": false,
      "t": 17812.5,
      "d": 184.375,
      "v": 49
    },
    {
      "midi": 61,
      "hit": false,
      "t": 17993.75,
      "d": 200,
      "v": 83
    },
    {
      "midi": 73,
      "hit": false,
      "t": 18000,
      "d": 340.625,
      "v": 64
    },
    {
      "midi": 45,
      "hit": false,
      "t": 18000,
      "d": 359.375,
      "v": 31
    },
    {
      "midi": 73,
      "hit": false,
      "t": 18168.75,
      "d": 162.5,
      "v": 83
    },
    {
      "midi": 61,
      "hit": false,
      "t": 18368.75,
      "d": 181.25,
      "v": 83
    },
    {
      "midi": 57,
      "hit": false,
      "t": 18375,
      "d": 62.5,
      "v": 31
    },
    {
      "midi": 55,
      "hit": false,
      "t": 18375,
      "d": 90.625,
      "v": 54
    },
    {
      "midi": 49,
      "hit": false,
      "t": 18375,
      "d": 118.75,
      "v": 55
    },
    {
      "midi": 52,
      "hit": false,
      "t": 18375,
      "d": 200,
      "v": 54
    },
    {
      "midi": 73,
      "hit": false,
      "t": 18553.125,
      "d": 162.5,
      "v": 83
    },
    {
      "midi": 64,
      "hit": false,
      "t": 18575,
      "d": 153.125,
      "v": 45
    },
    {
      "midi": 55,
      "hit": false,
      "t": 18750,
      "d": 56.25,
      "v": 54
    },
    {
      "midi": 52,
      "hit": false,
      "t": 18750,
      "d": 62.5,
      "v": 46
    },
    {
      "midi": 57,
      "hit": false,
      "t": 18750,
      "d": 62.5,
      "v": 37
    },
    {
      "midi": 61,
      "hit": false,
      "t": 18750,
      "d": 62.5,
      "v": 37
    },
    {
      "midi": 67,
      "hit": false,
      "t": 18750,
      "d": 112.5,
      "v": 59
    },
    {
      "midi": 61,
      "hit": false,
      "t": 18750,
      "d": 231.25,
      "v": 83
    },
    {
      "midi": 73,
      "hit": false,
      "t": 18925,
      "d": 134.375,
      "v": 83
    },
    {
      "midi": 73,
      "hit": false,
      "t": 18937.5,
      "d": 103.125,
      "v": 67
    },
    {
      "midi": 72,
      "hit": false,
      "t": 19125,
      "d": 362.5,
      "v": 46
    },
    {
      "midi": 62,
      "hit": false,
      "t": 19125,
      "d": 200,
      "v": 83
    },
    {
      "midi": 38,
      "hit": false,
      "t": 19131.25,
      "d": 562.5,
      "v": 53
    },
    {
      "midi": 74,
      "hit": false,
      "t": 19315.625,
      "d": 162.5,
      "v": 83
    },
    {
      "midi": 60,
      "hit": false,
      "t": 19506.25,
      "d": 303.125,
      "v": 47
    },
    {
      "midi": 57,
      "hit": false,
      "t": 19506.25,
      "d": 312.5,
      "v": 32
    },
    {
      "midi": 65,
      "hit": false,
      "t": 19506.25,
      "d": 312.5,
      "v": 49
    },
    {
      "midi": 62,
      "hit": false,
      "t": 19506.25,
      "d": 340.625,
      "v": 48
    },
    {
      "midi": 62,
      "hit": false,
      "t": 19515.625,
      "d": 187.5,
      "v": 83
    },
    {
      "midi": 74,
      "hit": false,
      "t": 19681.25,
      "d": 162.5,
      "v": 83
    },
    {
      "midi": 62,
      "hit": false,
      "t": 19862.5,
      "d": 190.625,
      "v": 83
    },
    {
      "midi": 62,
      "hit": false,
      "t": 19878.125,
      "d": 212.5,
      "v": 51
    },
    {
      "midi": 65,
      "hit": false,
      "t": 19878.125,
      "d": 237.5,
      "v": 40
    },
    {
      "midi": 60,
      "hit": false,
      "t": 19881.25,
      "d": 212.5,
      "v": 46
    },
    {
      "midi": 69,
      "hit": false,
      "t": 19881.25,
      "d": 243.75,
      "v": 38
    },
    {
      "midi": 74,
      "hit": false,
      "t": 20034.375,
      "d": 196.875,
      "v": 83
    },
    {
      "midi": 62,
      "hit": false,
      "t": 20237.5,
      "d": 53.125,
      "v": 83
    },
    {
      "midi": 77,
      "hit": false,
      "t": 20250,
      "d": 362.5,
      "v": 45
    },
    {
      "midi": 38,
      "hit": false,
      "t": 20256.25,
      "d": 562.5,
      "v": 52
    },
    {
      "midi": 65,
      "hit": false,
      "t": 20631.25,
      "d": 312.5,
      "v": 48
    },
    {
      "midi": 57,
      "hit": false,
      "t": 20631.25,
      "d": 340.625,
      "v": 31
    },
    {
      "midi": 60,
      "hit": false,
      "t": 20631.25,
      "d": 340.625,
      "v": 46
    },
    {
      "midi": 62,
      "hit": false,
      "t": 20631.25,
      "d": 340.625,
      "v": 47
    },
    {
      "midi": 62,
      "hit": false,
      "t": 21003.125,
      "d": 153.125,
      "v": 50
    },
    {
      "midi": 65,
      "hit": false,
      "t": 21003.125,
      "d": 153.125,
      "v": 39
    },
    {
      "midi": 69,
      "hit": false,
      "t": 21006.25,
      "d": 121.875,
      "v": 37
    },
    {
      "midi": 60,
      "hit": false,
      "t": 21006.25,
      "d": 137.5,
      "v": 45
    },
    {
      "midi": 72,
      "hit": false,
      "t": 23625,
      "d": 340.625,
      "v": 67
    },
    {
      "midi": 38,
      "hit": false,
      "t": 23625,
      "d": 359.375,
      "v": 29
    },
    {
      "midi": 62,
      "hit": false,
      "t": 24000,
      "d": 62.5,
      "v": 29
    },
    {
      "midi": 60,
      "hit": false,
      "t": 24000,
      "d": 90.625,
      "v": 68
    },
    {
      "midi": 53,
      "hit": false,
      "t": 24000,
      "d": 118.75,
      "v": 53
    },
    {
      "midi": 57,
      "hit": false,
      "t": 24000,
      "d": 200,
      "v": 52
    },
    {
      "midi": 69,
      "hit": false,
      "t": 24200,
      "d": 153.125,
      "v": 43
    },
    {
      "midi": 60,
      "hit": false,
      "t": 24375,
      "d": 56.25,
      "v": 57
    },
    {
      "midi": 57,
      "hit": false,
      "t": 24375,
      "d": 62.5,
      "v": 44
    },
    {
      "midi": 62,
      "hit": false,
      "t": 24375,
      "d": 62.5,
      "v": 35
    },
    {
      "midi": 65,
      "hit": false,
      "t": 24375,
      "d": 62.5,
      "v": 35
    },
    {
      "midi": 72,
      "hit": false,
      "t": 24375,
      "d": 112.5,
      "v": 57
    },
    {
      "midi": 77,
      "hit": false,
      "t": 24562.5,
      "d": 103.125,
      "v": 80
    },
    {
      "midi": 38,
      "hit": false,
      "t": 24750,
      "d": 112.5,
      "v": 56
    },
    {
      "midi": 74,
      "hit": false,
      "t": 24750,
      "d": 771.875,
      "v": 64
    },
    {
      "midi": 62,
      "hit": false,
      "t": 25125,
      "d": 90.625,
      "v": 34
    },
    {
      "midi": 60,
      "hit": false,
      "t": 25125,
      "d": 93.75,
      "v": 63
    },
    {
      "midi": 57,
      "hit": false,
      "t": 25125,
      "d": 100,
      "v": 34
    },
    {
      "midi": 53,
      "hit": false,
      "t": 25125,
      "d": 131.25,
      "v": 30
    },
    {
      "midi": 69,
      "hit": false,
      "t": 25312.5,
      "d": 196.875,
      "v": 51
    },
    {
      "midi": 60,
      "hit": false,
      "t": 25500,
      "d": 75,
      "v": 54
    },
    {
      "midi": 62,
      "hit": false,
      "t": 25500,
      "d": 84.375,
      "v": 34
    },
    {
      "midi": 65,
      "hit": false,
      "t": 25500,
      "d": 103.125,
      "v": 38
    },
    {
      "midi": 72,
      "hit": false,
      "t": 25500,
      "d": 187.5,
      "v": 56
    },
    {
      "midi": 57,
      "hit": false,
      "t": 25509.375,
      "d": 78.125,
      "v": 33
    },
    {
      "midi": 69,
      "hit": false,
      "t": 25687.5,
      "d": 100,
      "v": 72
    },
    {
      "midi": 69,
      "hit": false,
      "t": 25875,
      "d": 362.5,
      "v": 49
    },
    {
      "midi": 45,
      "hit": false,
      "t": 25881.25,
      "d": 562.5,
      "v": 46
    },
    {
      "midi": 61,
      "hit": false,
      "t": 26256.25,
      "d": 312.5,
      "v": 52
    },
    {
      "midi": 52,
      "hit": false,
      "t": 26256.25,
      "d": 340.625,
      "v": 35
    },
    {
      "midi": 55,
      "hit": false,
      "t": 26256.25,
      "d": 340.625,
      "v": 50
    },
    {
      "midi": 57,
      "hit": false,
      "t": 26256.25,
      "d": 340.625,
      "v": 51
    },
    {
      "midi": 57,
      "hit": false,
      "t": 26628.125,
      "d": 159.375,
      "v": 54
    },
    {
      "midi": 61,
      "hit": false,
      "t": 26628.125,
      "d": 181.25,
      "v": 43
    },
    {
      "midi": 55,
      "hit": false,
      "t": 26631.25,
      "d": 159.375,
      "v": 49
    },
    {
      "midi": 64,
      "hit": false,
      "t": 26631.25,
      "d": 181.25,
      "v": 41
    },
    {
      "midi": 45,
      "hit": false,
      "t": 27006.25,
      "d": 350,
      "v": 52
    },
    {
      "midi": 64,
      "hit": false,
      "t": 27009.375,
      "d": 346.875,
      "v": 68
    },
    {
      "midi": 52,
      "hit": false,
      "t": 27375,
      "d": 356.25,
      "v": 58
    },
    {
      "midi": 55,
      "hit": false,
      "t": 27381.25,
      "d": 171.875,
      "v": 42
    },
    {
      "midi": 57,
      "hit": false,
      "t": 27381.25,
      "d": 356.25,
      "v": 45
    },
    {
      "midi": 61,
      "hit": false,
      "t": 27381.25,
      "d": 356.25,
      "v": 53
    },
    {
      "midi": 57,
      "hit": false,
      "t": 27750,
      "d": 181.25,
      "v": 30
    },
    {
      "midi": 64,
      "hit": false,
      "t": 27750,
      "d": 181.25,
      "v": 48
    },
    {
      "midi": 55,
      "hit": false,
      "t": 27756.25,
      "d": 162.5,
      "v": 46
    },
    {
      "midi": 61,
      "hit": false,
      "t": 27756.25,
      "d": 175,
      "v": 55
    },
    {
      "midi": 67,
      "hit": false,
      "t": 27940.625,
      "d": 184.375,
      "v": 46
    },
    {
      "midi": 72,
      "hit": false,
      "t": 28125,
      "d": 362.5,
      "v": 47
    },
    {
      "midi": 38,
      "hit": false,
      "t": 28131.25,
      "d": 562.5,
      "v": 54
    },
    {
      "midi": 81,
      "hit": false,
      "t": 28337.5,
      "d": 196.875,
      "v": 83
    },
    {
      "midi": 65,
      "hit": false,
      "t": 28506.25,
      "d": 312.5,
      "v": 50
    },
    {
      "midi": 57,
      "hit": false,
      "t": 28506.25,
      "d": 340.625,
      "v": 33
    },
    {
      "midi": 60,
      "hit": false,
      "t": 28506.25,
      "d": 340.625,
      "v": 48
    },
    {
      "midi": 62,
      "hit": false,
      "t": 28506.25,
      "d": 340.625,
      "v": 49
    },
    {
      "midi": 74,
      "hit": false,
      "t": 28531.25,
      "d": 190.625,
      "v": 83
    },
    {
      "midi": 77,
      "hit": false,
      "t": 28700,
      "d": 137.5,
      "v": 83
    },
    {
      "midi": 62,
      "hit": false,
      "t": 28878.125,
      "d": 115.625,
      "v": 52
    },
    {
      "midi": 65,
      "hit": false,
      "t": 28878.125,
      "d": 128.125,
      "v": 41
    },
    {
      "midi": 69,
      "hit": false,
      "t": 28881.25,
      "d": 121.875,
      "v": 39
    },
    {
      "midi": 60,
      "hit": false,
      "t": 28881.25,
      "d": 128.125,
      "v": 47
    },
    {
      "midi": 69,
      "hit": false,
      "t": 28900,
      "d": 196.875,
      "v": 83
    },
    {
      "midi": 74,
      "hit": false,
      "t": 29053.125,
      "d": 118.75,
      "v": 83
    },
    {
      "midi": 38,
      "hit": false,
      "t": 29256.25,
      "d": 465.625,
      "v": 54
    },
    {
      "midi": 69,
      "hit": false,
      "t": 29259.375,
      "d": 353.125,
      "v": 66
    },
    {
      "midi": 65,
      "hit": false,
      "t": 29265.625,
      "d": 556.25,
      "v": 83
    },
    {
      "midi": 60,
      "hit": false,
      "t": 29631.25,
      "d": 171.875,
      "v": 40
    },
    {
      "midi": 65,
      "hit": false,
      "t": 29631.25,
      "d": 196.875,
      "v": 51
    },
    {
      "midi": 62,
      "hit": false,
      "t": 29631.25,
      "d": 209.375,
      "v": 43
    },
    {
      "midi": 69,
      "hit": false,
      "t": 29650,
      "d": 550,
      "v": 83
    },
    {
      "midi": 60,
      "hit": false,
      "t": 30006.25,
      "d": 162.5,
      "v": 50
    },
    {
      "midi": 57,
      "hit": false,
      "t": 30193.75,
      "d": 162.5,
      "v": 60
    },
    {
      "midi": 74,
      "hit": false,
      "t": 30375,
      "d": 362.5,
      "v": 49
    },
    {
      "midi": 43,
      "hit": false,
      "t": 30381.25,
      "d": 562.5,
      "v": 46
    },
    {
      "midi": 65,
      "hit": false,
      "t": 30756.25,
      "d": 312.5,
      "v": 52
    },
    {
      "midi": 55,
      "hit": false,
      "t": 30756.25,
      "d": 340.625,
      "v": 35
    },
    {
      "midi": 58,
      "hit": false,
      "t": 30756.25,
      "d": 340.625,
      "v": 50
    },
    {
      "midi": 62,
      "hit": false,
      "t": 30756.25,
      "d": 340.625,
      "v": 51
    },
    {
      "midi": 62,
      "hit": false,
      "t": 31128.125,
      "d": 159.375,
      "v": 54
    },
    {
      "midi": 65,
      "hit": false,
      "t": 31128.125,
      "d": 181.25,
      "v": 43
    },
    {
      "midi": 58,
      "hit": false,
      "t": 31131.25,
      "d": 159.375,
      "v": 49
    },
    {
      "midi": 67,
      "hit": false,
      "t": 31131.25,
      "d": 181.25,
      "v": 41
    },
    {
      "midi": 43,
      "hit": false,
      "t": 31506.25,
      "d": 350,
      "v": 52
    },
    {
      "midi": 67,
      "hit": false,
      "t": 31509.375,
      "d": 346.875,
      "v": 68
    },
    {
      "midi": 55,
      "hit": false,
      "t": 31875,
      "d": 356.25,
      "v": 58
    },
    {
      "midi": 58,
      "hit": false,
      "t": 31881.25,
      "d": 171.875,
      "v": 42
    },
    {
      "midi": 62,
      "hit": false,
      "t": 31881.25,
      "d": 356.25,
      "v": 45
    },
    {
      "midi": 65,
      "hit": false,
      "t": 31881.25,
      "d": 356.25,
      "v": 53
    },
    {
      "midi": 62,
      "hit": false,
      "t": 32250,
      "d": 181.25,
      "v": 30
    },
    {
      "midi": 67,
      "hit": false,
      "t": 32250,
      "d": 181.25,
      "v": 48
    },
    {
      "midi": 58,
      "hit": false,
      "t": 32256.25,
      "d": 162.5,
      "v": 46
    },
    {
      "midi": 65,
      "hit": false,
      "t": 32256.25,
      "d": 175,
      "v": 55
    },
    {
      "midi": 70,
      "hit": false,
      "t": 32440.625,
      "d": 184.375,
      "v": 46
    },
    {
      "midi": 74,
      "hit": false,
      "t": 37125,
      "d": 362.5,
      "v": 48
    },
    {
      "midi": 38,
      "hit": false,
      "t": 37131.25,
      "d": 562.5,
      "v": 55
    },
    {
      "midi": 65,
      "hit": false,
      "t": 37506.25,
      "d": 312.5,
      "v": 51
    },
    {
      "midi": 57,
      "hit": false,
      "t": 37506.25,
      "d": 340.625,
      "v": 34
    },
    {
      "midi": 60,
      "hit": false,
      "t": 37506.25,
      "d": 340.625,
      "v": 49
    },
    {
      "midi": 62,
      "hit": false,
      "t": 37506.25,
      "d": 340.625,
      "v": 50
    },
    {
      "midi": 62,
      "hit": false,
      "t": 37878.125,
      "d": 115.625,
      "v": 53
    },
    {
      "midi": 65,
      "hit": false,
      "t": 37878.125,
      "d": 128.125,
      "v": 42
    },
    {
      "midi": 69,
      "hit": false,
      "t": 37881.25,
      "d": 121.875,
      "v": 40
    },
    {
      "midi": 60,
      "hit": false,
      "t": 37881.25,
      "d": 128.125,
      "v": 48
    },
    {
      "midi": 38,
      "hit": false,
      "t": 38256.25,
      "d": 465.625,
      "v": 55
    },
    {
      "midi": 72,
      "hit": false,
      "t": 38259.375,
      "d": 353.125,
      "v": 67
    },
    {
      "midi": 60,
      "hit": false,
      "t": 38631.25,
      "d": 171.875,
      "v": 41
    },
    {
      "midi": 62,
      "hit": false,
      "t": 38631.25,
      "d": 356.25,
      "v": 44
    },
    {
      "midi": 65,
      "hit": false,
      "t": 38631.25,
      "d": 356.25,
      "v": 52
    },
    {
      "midi": 57,
      "hit": false,
      "t": 39000,
      "d": 184.375,
      "v": 45
    },
    {
      "midi": 62,
      "hit": false,
      "t": 39006.25,
      "d": 137.5,
      "v": 48
    },
    {
      "midi": 60,
      "hit": false,
      "t": 39006.25,
      "d": 162.5,
      "v": 48
    },
    {
      "midi": 77,
      "hit": false,
      "t": 39375,
      "d": 340.625,
      "v": 64
    },
    {
      "midi": 43,
      "hit": false,
      "t": 39375,
      "d": 359.375,
      "v": 31
    },
    {
      "midi": 55,
      "hit": false,
      "t": 39396.875,
      "d": 590.625,
      "v": 83
    },
    {
      "midi": 58,
      "hit": false,
      "t": 39587.5,
      "d": 587.5,
      "v": 83
    },
    {
      "midi": 62,
      "hit": false,
      "t": 39731.25,
      "d": 450,
      "v": 83
    },
    {
      "midi": 62,
      "hit": false,
      "t": 39750,
      "d": 62.5,
      "v": 31
    },
    {
      "midi": 58,
      "hit": false,
      "t": 39750,
      "d": 90.625,
      "v": 54
    },
    {
      "midi": 53,
      "hit": false,
      "t": 39750,
      "d": 118.75,
      "v": 55
    },
    {
      "midi": 55,
      "hit": false,
      "t": 39750,
      "d": 200,
      "v": 54
    },
    {
      "midi": 67,
      "hit": false,
      "t": 39903.125,
      "d": 628.125,
      "v": 83
    },
    {
      "midi": 67,
      "hit": false,
      "t": 39950,
      "d": 153.125,
      "v": 45
    },
    {
      "midi": 70,
      "hit": false,
      "t": 40118.75,
      "d": 440.625,
      "v": 83
    },
    {
      "midi": 58,
      "hit": false,
      "t": 40125,
      "d": 56.25,
      "v": 54
    },
    {
      "midi": 55,
      "hit": false,
      "t": 40125,
      "d": 62.5,
      "v": 46
    },
    {
      "midi": 62,
      "hit": false,
      "t": 40125,
      "d": 62.5,
      "v": 37
    },
    {
      "midi": 65,
      "hit": false,
      "t": 40125,
      "d": 62.5,
      "v": 37
    },
    {
      "midi": 70,
      "hit": false,
      "t": 40125,
      "d": 112.5,
      "v": 59
    },
    {
      "midi": 77,
      "hit": false,
      "t": 40312.5,
      "d": 103.125,
      "v": 67
    },
    {
      "midi": 74,
      "hit": false,
      "t": 40321.875,
      "d": 221.875,
      "v": 83
    },
    {
      "midi": 72,
      "hit": false,
      "t": 40500,
      "d": 362.5,
      "v": 49
    },
    {
      "midi": 36,
      "hit": false,
      "t": 40506.25,
      "d": 562.5,
      "v": 46
    },
    {
      "midi": 48,
      "hit": false,
      "t": 40512.5,
      "d": 750,
      "v": 83
    },
    {
      "midi": 52,
      "hit": false,
      "t": 40665.625,
      "d": 600,
      "v": 83
    },
    {
      "midi": 55,
      "hit": false,
      "t": 40831.25,
      "d": 793.75,
      "v": 83
    },
    {
      "midi": 60,
      "hit": false,
      "t": 40881.25,
      "d": 290.625,
      "v": 51
    },
    {
      "midi": 58,
      "hit": false,
      "t": 40881.25,
      "d": 303.125,
      "v": 50
    },
    {
      "midi": 55,
      "hit": false,
      "t": 40881.25,
      "d": 312.5,
      "v": 35
    },
    {
      "midi": 64,
      "hit": false,
      "t": 40881.25,
      "d": 312.5,
      "v": 52
    },
    {
      "midi": 60,
      "hit": false,
      "t": 41018.75,
      "d": 568.75,
      "v": 83
    },
    {
      "midi": 64,
      "hit": false,
      "t": 41209.375,
      "d": 437.5,
      "v": 83
    },
    {
      "midi": 60,
      "hit": false,
      "t": 41253.125,
      "d": 159.375,
      "v": 54
    },
    {
      "midi": 64,
      "hit": false,
      "t": 41253.125,
      "d": 159.375,
      "v": 43
    },
    {
      "midi": 67,
      "hit": false,
      "t": 41256.25,
      "d": 181.25,
      "v": 41
    },
    {
      "midi": 58,
      "hit": false,
      "t": 41256.25,
      "d": 296.875,
      "v": 49
    },
    {
      "midi": 67,
      "hit": false,
      "t": 41409.375,
      "d": 346.875,
      "v": 83
    },
    {
      "midi": 53,
      "hit": false,
      "t": 41590.625,
      "d": 2056.25,
      "v": 83
    },
    {
      "midi": 72,
      "hit": false,
      "t": 41625,
      "d": 362.5,
      "v": 47
    },
    {
      "midi": 41,
      "hit": false,
      "t": 41631.25,
      "d": 562.5,
      "v": 54
    },
    {
      "midi": 57,
      "hit": false,
      "t": 41765.625,
      "d": 1871.875,
      "v": 83
    },
    {
      "midi": 60,
      "hit": false,
      "t": 41950,
      "d": 1868.75,
      "v": 83
    },
    {
      "midi": 69,
      "hit": false,
      "t": 42006.25,
      "d": 312.5,
      "v": 50
    },
    {
      "midi": 57,
      "hit": false,
      "t": 42006.25,
      "d": 340.625,
      "v": 33
    },
    {
      "midi": 60,
      "hit": false,
      "t": 42006.25,
      "d": 340.625,
      "v": 48
    },
    {
      "midi": 65,
      "hit": false,
      "t": 42006.25,
      "d": 340.625,
      "v": 49
    },
    {
      "midi": 65,
      "hit": false,
      "t": 42137.5,
      "d": 987.5,
      "v": 83
    },
    {
      "midi": 69,
      "hit": false,
      "t": 42321.875,
      "d": 1568.75,
      "v": 83
    },
    {
      "midi": 65,
      "hit": false,
      "t": 42378.125,
      "d": 115.625,
      "v": 52
    },
    {
      "midi": 69,
      "hit": false,
      "t": 42378.125,
      "d": 125,
      "v": 41
    },
    {
      "midi": 60,
      "hit": false,
      "t": 42381.25,
      "d": 128.125,
      "v": 47
    },
    {
      "midi": 72,
      "hit": false,
      "t": 42506.25,
      "d": 1393.75,
      "v": 83
    },
    {
      "midi": 77,
      "hit": false,
      "t": 42731.25,
      "d": 1218.75,
      "v": 83
    },
    {
      "midi": 41,
      "hit": false,
      "t": 42756.25,
      "d": 465.625,
      "v": 54
    },
    {
      "midi": 69,
      "hit": false,
      "t": 42759.375,
      "d": 353.125,
      "v": 66
    },
    {
      "midi": 60,
      "hit": false,
      "t": 43131.25,
      "d": 171.875,
      "v": 40
    },
    {
      "midi": 69,
      "hit": false,
      "t": 43131.25,
      "d": 196.875,
      "v": 51
    },
    {
      "midi": 65,
      "hit": false,
      "t": 43131.25,
      "d": 209.375,
      "v": 43
    },
    {
      "midi": 60,
      "hit": false,
      "t": 43506.25,
      "d": 162.5,
      "v": 50
    },
    {
      "midi": 57,
      "hit": false,
      "t": 43693.75,
      "d": 162.5,
      "v": 60
    },
    {
      "midi": 77,
      "hit": false,
      "t": 43875,
      "d": 362.5,
      "v": 45
    },
    {
      "midi": 43,
      "hit": false,
      "t": 43881.25,
      "d": 562.5,
      "v": 52
    },
    {
      "midi": 55,
      "hit": false,
      "t": 43903.125,
      "d": 765.625,
      "v": 83
    },
    {
      "midi": 58,
      "hit": false,
      "t": 44096.875,
      "d": 603.125,
      "v": 83
    },
    {
      "midi": 65,
      "hit": false,
      "t": 44256.25,
      "d": 312.5,
      "v": 48
    },
    {
      "midi": 55,
      "hit": false,
      "t": 44256.25,
      "d": 340.625,
      "v": 31
    },
    {
      "midi": 58,
      "hit": false,
      "t": 44256.25,
      "d": 340.625,
      "v": 46
    },
    {
      "midi": 62,
      "hit": false,
      "t": 44256.25,
      "d": 340.625,
      "v": 47
    },
    {
      "midi": 62,
      "hit": false,
      "t": 44278.125,
      "d": 759.375,
      "v": 83
    },
    {
      "midi": 67,
      "hit": false,
      "t": 44443.75,
      "d": 556.25,
      "v": 83
    },
    {
      "midi": 70,
      "hit": false,
      "t": 44621.875,
      "d": 409.375,
      "v": 83
    },
    {
      "midi": 62,
      "hit": false,
      "t": 44628.125,
      "d": 153.125,
      "v": 50
    },
    {
      "midi": 65,
      "hit": false,
      "t": 44628.125,
      "d": 153.125,
      "v": 39
    },
    {
      "midi": 67,
      "hit": false,
      "t": 44631.25,
      "d": 121.875,
      "v": 37
    },
    {
      "midi": 58,
      "hit": false,
      "t": 44631.25,
      "d": 137.5,
      "v": 45
    },
    {
      "midi": 74,
      "hit": false,
      "t": 44812.5,
      "d": 281.25,
      "v": 83
    },
    {
      "midi": 57,
      "hit": false,
      "t": 44981.25,
      "d": 806.25,
      "v": 83
    },
    {
      "midi": 67,
      "hit": false,
      "t": 45000,
      "d": 362.5,
      "v": 46
    },
    {
      "midi": 45,
      "hit": false,
      "t": 45006.25,
      "d": 562.5,
      "v": 53
    },
    {
      "midi": 61,
      "hit": false,
      "t": 45200,
      "d": 556.25,
      "v": 83
    },
    {
      "midi": 64,
      "hit": false,
      "t": 45356.25,
      "d": 737.5,
      "v": 83
    },
    {
      "midi": 55,
      "hit": false,
      "t": 45381.25,
      "d": 303.125,
      "v": 47
    },
    {
      "midi": 52,
      "hit": false,
      "t": 45381.25,
      "d": 312.5,
      "v": 32
    },
    {
      "midi": 61,
      "hit": false,
      "t": 45381.25,
      "d": 312.5,
      "v": 49
    },
    {
      "midi": 57,
      "hit": false,
      "t": 45381.25,
      "d": 340.625,
      "v": 48
    },
    {
      "midi": 69,
      "hit": false,
      "t": 45540.625,
      "d": 506.25,
      "v": 83
    },
    {
      "midi": 73,
      "hit": false,
      "t": 45734.375,
      "d": 387.5,
      "v": 83
    },
    {
      "midi": 57,
      "hit": false,
      "t": 45753.125,
      "d": 212.5,
      "v": 51
    },
    {
      "midi": 61,
      "hit": false,
      "t": 45753.125,
      "d": 237.5,
      "v": 40
    },
    {
      "midi": 55,
      "hit": false,
      "t": 45756.25,
      "d": 212.5,
      "v": 46
    },
    {
      "midi": 64,
      "hit": false,
      "t": 45756.25,
      "d": 243.75,
      "v": 38
    },
    {
      "midi": 76,
      "hit": false,
      "t": 45906.25,
      "d": 281.25,
      "v": 83
    },
    {
      "midi": 62,
      "hit": false,
      "t": 46106.25,
      "d": 1637.5,
      "v": 83
    },
    {
      "midi": 72,
      "hit": false,
      "t": 46125,
      "d": 362.5,
      "v": 47
    },
    {
      "midi": 38,
      "hit": false,
      "t": 46131.25,
      "d": 562.5,
      "v": 54
    },
    {
      "midi": 65,
      "hit": false,
      "t": 46281.25,
      "d": 1540.625,
      "v": 83
    },
    {
      "midi": 69,
      "hit": false,
      "t": 46481.25,
      "d": 1284.375,
      "v": 83
    },
    {
      "midi": 65,
      "hit": false,
      "t": 46506.25,
      "d": 312.5,
      "v": 50
    },
    {
      "midi": 57,
      "hit": false,
      "t": 46506.25,
      "d": 340.625,
      "v": 33
    },
    {
      "midi": 60,
      "hit": false,
      "t": 46506.25,
      "d": 340.625,
      "v": 48
    },
    {
      "midi": 62,
      "hit": false,
      "t": 46506.25,
      "d": 340.625,
      "v": 49
    },
    {
      "midi": 74,
      "hit": false,
      "t": 46659.375,
      "d": 1750,
      "v": 83
    },
    {
      "midi": 77,
      "hit": false,
      "t": 46850,
      "d": 1537.5,
      "v": 83
    },
    {
      "midi": 62,
      "hit": false,
      "t": 46878.125,
      "d": 115.625,
      "v": 52
    },
    {
      "midi": 65,
      "hit": false,
      "t": 46878.125,
      "d": 128.125,
      "v": 41
    },
    {
      "midi": 69,
      "hit": false,
      "t": 46881.25,
      "d": 121.875,
      "v": 39
    },
    {
      "midi": 60,
      "hit": false,
      "t": 46881.25,
      "d": 128.125,
      "v": 47
    },
    {
      "midi": 81,
      "hit": false,
      "t": 47040.625,
      "d": 1315.625,
      "v": 83
    },
    {
      "midi": 38,
      "hit": false,
      "t": 47256.25,
      "d": 465.625,
      "v": 54
    },
    {
      "midi": 86,
      "hit": false,
      "t": 47256.25,
      "d": 1059.375,
      "v": 83
    },
    {
      "midi": 69,
      "hit": false,
      "t": 47259.375,
      "d": 353.125,
      "v": 66
    },
    {
      "midi": 60,
      "hit": false,
      "t": 47631.25,
      "d": 171.875,
      "v": 40
    },
    {
      "midi": 65,
      "hit": false,
      "t": 47631.25,
      "d": 196.875,
      "v": 51
    },
    {
      "midi": 62,
      "hit": false,
      "t": 47631.25,
      "d": 209.375,
      "v": 43
    },
    {
      "midi": 60,
      "hit": false,
      "t": 48006.25,
      "d": 162.5,
      "v": 50
    },
    {
      "midi": 57,
      "hit": false,
      "t": 48193.75,
      "d": 162.5,
      "v": 60
    },
    {
      "midi": 55,
      "hit": false,
      "t": 48343.75,
      "d": 887.5,
      "v": 83
    },
    {
      "midi": 79,
      "hit": false,
      "t": 48375,
      "d": 340.625,
      "v": 64
    },
    {
      "midi": 43,
      "hit": false,
      "t": 48375,
      "d": 359.375,
      "v": 31
    },
    {
      "midi": 67,
      "hit": false,
      "t": 48750,
      "d": 62.5,
      "v": 31
    },
    {
      "midi": 62,
      "hit": false,
      "t": 48750,
      "d": 90.625,
      "v": 54
    },
    {
      "midi": 55,
      "hit": false,
      "t": 48750,
      "d": 118.75,
      "v": 55
    },
    {
      "midi": 58,
      "hit": false,
      "t": 48750,
      "d": 200,
      "v": 54
    },
    {
      "midi": 67,
      "hit": false,
      "t": 48759.375,
      "d": 740.625,
      "v": 83
    },
    {
      "midi": 70,
      "hit": false,
      "t": 48950,
      "d": 153.125,
      "v": 45
    },
    {
      "midi": 62,
      "hit": false,
      "t": 49125,
      "d": 56.25,
      "v": 54
    },
    {
      "midi": 58,
      "hit": false,
      "t": 49125,
      "d": 62.5,
      "v": 46
    },
    {
      "midi": 67,
      "hit": false,
      "t": 49125,
      "d": 62.5,
      "v": 37
    },
    {
      "midi": 74,
      "hit": false,
      "t": 49125,
      "d": 112.5,
      "v": 59
    },
    {
      "midi": 70,
      "hit": false,
      "t": 49134.375,
      "d": 359.375,
      "v": 83
    },
    {
      "midi": 79,
      "hit": false,
      "t": 49312.5,
      "d": 103.125,
      "v": 67
    },
    {
      "midi": 73,
      "hit": false,
      "t": 49500,
      "d": 340.625,
      "v": 64
    },
    {
      "midi": 45,
      "hit": false,
      "t": 49500,
      "d": 359.375,
      "v": 31
    },
    {
      "midi": 57,
      "hit": false,
      "t": 49500,
      "d": 3059.375,
      "v": 83
    },
    {
      "midi": 69,
      "hit": false,
      "t": 49865.625,
      "d": 781.25,
      "v": 83
    },
    {
      "midi": 57,
      "hit": false,
      "t": 49875,
      "d": 62.5,
      "v": 31
    },
    {
      "midi": 55,
      "hit": false,
      "t": 49875,
      "d": 90.625,
      "v": 54
    },
    {
      "midi": 49,
      "hit": false,
      "t": 49875,
      "d": 118.75,
      "v": 55
    },
    {
      "midi": 52,
      "hit": false,
      "t": 49875,
      "d": 200,
      "v": 54
    },
    {
      "midi": 64,
      "hit": false,
      "t": 50075,
      "d": 153.125,
      "v": 45
    },
    {
      "midi": 55,
      "hit": false,
      "t": 50250,
      "d": 56.25,
      "v": 54
    },
    {
      "midi": 52,
      "hit": false,
      "t": 50250,
      "d": 62.5,
      "v": 46
    },
    {
      "midi": 57,
      "hit": false,
      "t": 50250,
      "d": 62.5,
      "v": 37
    },
    {
      "midi": 61,
      "hit": false,
      "t": 50250,
      "d": 62.5,
      "v": 37
    },
    {
      "midi": 67,
      "hit": false,
      "t": 50250,
      "d": 112.5,
      "v": 59
    },
    {
      "midi": 73,
      "hit": false,
      "t": 50250,
      "d": 521.875,
      "v": 83
    },
    {
      "midi": 73,
      "hit": false,
      "t": 50437.5,
      "d": 103.125,
      "v": 67
    },
    {
      "midi": 62,
      "hit": false,
      "t": 50600,
      "d": 2159.375,
      "v": 83
    },
    {
      "midi": 74,
      "hit": false,
      "t": 50625,
      "d": 362.5,
      "v": 48
    },
    {
      "midi": 38,
      "hit": false,
      "t": 50631.25,
      "d": 562.5,
      "v": 55
    },
    {
      "midi": 65,
      "hit": false,
      "t": 51006.25,
      "d": 312.5,
      "v": 51
    },
    {
      "midi": 57,
      "hit": false,
      "t": 51006.25,
      "d": 340.625,
      "v": 34
    },
    {
      "midi": 60,
      "hit": false,
      "t": 51006.25,
      "d": 340.625,
      "v": 49
    },
    {
      "midi": 62,
      "hit": false,
      "t": 51006.25,
      "d": 340.625,
      "v": 50
    },
    {
      "midi": 65,
      "hit": false,
      "t": 51031.25,
      "d": 1806.25,
      "v": 83
    },
    {
      "midi": 62,
      "hit": false,
      "t": 51378.125,
      "d": 115.625,
      "v": 53
    },
    {
      "midi": 65,
      "hit": false,
      "t": 51378.125,
      "d": 128.125,
      "v": 42
    },
    {
      "midi": 69,
      "hit": false,
      "t": 51381.25,
      "d": 121.875,
      "v": 40
    },
    {
      "midi": 60,
      "hit": false,
      "t": 51381.25,
      "d": 128.125,
      "v": 48
    },
    {
      "midi": 74,
      "hit": false,
      "t": 51571.875,
      "d": 728.125,
      "v": 83
    },
    {
      "midi": 77,
      "hit": false,
      "t": 51615.625,
      "d": 1306.25,
      "v": 83
    },
    {
      "midi": 81,
      "hit": false,
      "t": 51718.75,
      "d": 1200,
      "v": 83
    },
    {
      "midi": 38,
      "hit": false,
      "t": 51756.25,
      "d": 465.625,
      "v": 55
    },
    {
      "midi": 86,
      "hit": false,
      "t": 51756.25,
      "d": 1165.625,
      "v": 83
    },
    {
      "midi": 72,
      "hit": false,
      "t": 51759.375,
      "d": 353.125,
      "v": 67
    },
    {
      "midi": 60,
      "hit": false,
      "t": 52131.25,
      "d": 171.875,
      "v": 41
    },
    {
      "midi": 62,
      "hit": false,
      "t": 52131.25,
      "d": 356.25,
      "v": 44
    },
    {
      "midi": 65,
      "hit": false,
      "t": 52131.25,
      "d": 356.25,
      "v": 52
    },
    {
      "midi": 57,
      "hit": false,
      "t": 52500,
      "d": 184.375,
      "v": 45
    },
    {
      "midi": 62,
      "hit": false,
      "t": 52506.25,
      "d": 137.5,
      "v": 48
    },
    {
      "midi": 60,
      "hit": false,
      "t": 52506.25,
      "d": 162.5,
      "v": 48
    },
    {
      "midi": 55,
      "hit": false,
      "t": 52871.875,
      "d": 865.625,
      "v": 83
    },
    {
      "midi": 74,
      "hit": false,
      "t": 52875,
      "d": 362.5,
      "v": 46
    },
    {
      "midi": 43,
      "hit": false,
      "t": 52881.25,
      "d": 562.5,
      "v": 53
    },
    {
      "midi": 58,
      "hit": false,
      "t": 53243.75,
      "d": 587.5,
      "v": 83
    },
    {
      "midi": 62,
      "hit": false,
      "t": 53256.25,
      "d": 303.125,
      "v": 47
    },
    {
      "midi": 58,
      "hit": false,
      "t": 53256.25,
      "d": 312.5,
      "v": 32
    },
    {
      "midi": 67,
      "hit": false,
      "t": 53256.25,
      "d": 312.5,
      "v": 48
    },
    {
      "midi": 62,
      "hit": false,
      "t": 53409.375,
      "d": 440.625,
      "v": 83
    },
    {
      "midi": 67,
      "hit": false,
      "t": 53621.875,
      "d": 378.125,
      "v": 83
    },
    {
      "midi": 67,
      "hit": false,
      "t": 53628.125,
      "d": 212.5,
      "v": 51
    },
    {
      "midi": 62,
      "hit": false,
      "t": 53631.25,
      "d": 212.5,
      "v": 46
    },
    {
      "midi": 70,
      "hit": false,
      "t": 53631.25,
      "d": 243.75,
      "v": 38
    },
    {
      "midi": 70,
      "hit": false,
      "t": 53821.875,
      "d": 168.75,
      "v": 83
    },
    {
      "midi": 76,
      "hit": false,
      "t": 54000,
      "d": 362.5,
      "v": 49
    },
    {
      "midi": 48,
      "hit": false,
      "t": 54000,
      "d": 925,
      "v": 83
    },
    {
      "midi": 36,
      "hit": false,
      "t": 54006.25,
      "d": 562.5,
      "v": 46
    },
    {
      "midi": 55,
      "hit": false,
      "t": 54381.25,
      "d": 296.875,
      "v": 35
    },
    {
      "midi": 64,
      "hit": false,
      "t": 54381.25,
      "d": 312.5,
      "v": 52
    },
    {
      "midi": 58,
      "hit": false,
      "t": 54381.25,
      "d": 340.625,
      "v": 50
    },
    {
      "midi": 60,
      "hit": false,
      "t": 54381.25,
      "d": 340.625,
      "v": 51
    },
    {
      "midi": 52,
      "hit": false,
      "t": 54390.625,
      "d": 509.375,
      "v": 83
    },
    {
      "midi": 60,
      "hit": false,
      "t": 54587.5,
      "d": 237.5,
      "v": 83
    },
    {
      "midi": 64,
      "hit": false,
      "t": 54590.625,
      "d": 521.875,
      "v": 83
    },
    {
      "midi": 60,
      "hit": false,
      "t": 54753.125,
      "d": 175,
      "v": 54
    },
    {
      "midi": 64,
      "hit": false,
      "t": 54753.125,
      "d": 175,
      "v": 43
    },
    {
      "midi": 55,
      "hit": false,
      "t": 54756.25,
      "d": 171.875,
      "v": 41
    },
    {
      "midi": 58,
      "hit": false,
      "t": 54756.25,
      "d": 171.875,
      "v": 49
    },
    {
      "midi": 70,
      "hit": false,
      "t": 54759.375,
      "d": 428.125,
      "v": 83
    },
    {
      "midi": 70,
      "hit": false,
      "t": 54937.5,
      "d": 184.375,
      "v": 49
    },
    {
      "midi": 60,
      "hit": false,
      "t": 54943.75,
      "d": 175,
      "v": 83
    },
    {
      "midi": 77,
      "hit": false,
      "t": 55125,
      "d": 362.5,
      "v": 49
    },
    {
      "midi": 41,
      "hit": false,
      "t": 55131.25,
      "d": 562.5,
      "v": 46
    },
    {
      "midi": 53,
      "hit": false,
      "t": 55137.5,
      "d": 1937.5,
      "v": 83
    },
    {
      "midi": 57,
      "hit": false,
      "t": 55503.125,
      "d": 1606.25,
      "v": 83
    },
    {
      "midi": 57,
      "hit": false,
      "t": 55506.25,
      "d": 296.875,
      "v": 35
    },
    {
      "midi": 65,
      "hit": false,
      "t": 55506.25,
      "d": 312.5,
      "v": 51
    },
    {
      "midi": 60,
      "hit": false,
      "t": 55506.25,
      "d": 340.625,
      "v": 50
    },
    {
      "midi": 60,
      "hit": false,
      "t": 55850,
      "d": 1596.875,
      "v": 83
    },
    {
      "midi": 65,
      "hit": false,
      "t": 55878.125,
      "d": 175,
      "v": 54
    },
    {
      "midi": 57,
      "hit": false,
      "t": 55881.25,
      "d": 171.875,
      "v": 41
    },
    {
      "midi": 60,
      "hit": false,
      "t": 55881.25,
      "d": 171.875,
      "v": 49
    },
    {
      "midi": 72,
      "hit": false,
      "t": 56062.5,
      "d": 184.375,
      "v": 49
    },
    {
      "midi": 65,
      "hit": false,
      "t": 56096.875,
      "d": 603.125,
      "v": 83
    },
    {
      "midi": 69,
      "hit": false,
      "t": 56203.125,
      "d": 250,
      "v": 83
    },
    {
      "midi": 72,
      "hit": false,
      "t": 56203.125,
      "d": 278.125,
      "v": 83
    },
    {
      "midi": 77,
      "hit": false,
      "t": 56250,
      "d": 362.5,
      "v": 45
    },
    {
      "midi": 77,
      "hit": false,
      "t": 56250,
      "d": 1328.125,
      "v": 83
    },
    {
      "midi": 38,
      "hit": false,
      "t": 56256.25,
      "d": 562.5,
      "v": 52
    },
    {
      "midi": 72,
      "hit": false,
      "t": 56615.625,
      "d": 809.375,
      "v": 83
    },
    {
      "midi": 65,
      "hit": false,
      "t": 56631.25,
      "d": 312.5,
      "v": 47
    },
    {
      "midi": 57,
      "hit": false,
      "t": 56631.25,
      "d": 340.625,
      "v": 31
    },
    {
      "midi": 62,
      "hit": false,
      "t": 56631.25,
      "d": 340.625,
      "v": 46
    },
    {
      "midi": 65,
      "hit": false,
      "t": 57003.125,
      "d": 153.125,
      "v": 50
    },
    {
      "midi": 69,
      "hit": false,
      "t": 57006.25,
      "d": 121.875,
      "v": 37
    },
    {
      "midi": 62,
      "hit": false,
      "t": 57006.25,
      "d": 137.5,
      "v": 45
    },
    {
      "midi": 69,
      "hit": false,
      "t": 57009.375,
      "d": 393.75,
      "v": 83
    },
    {
      "midi": 65,
      "hit": false,
      "t": 57025,
      "d": 350,
      "v": 83
    },
    {
      "midi": 74,
      "hit": false,
      "t": 57375,
      "d": 340.625,
      "v": 64
    },
    {
      "midi": 43,
      "hit": false,
      "t": 57375,
      "d": 359.375,
      "v": 31
    },
    {
      "midi": 55,
      "hit": false,
      "t": 57375,
      "d": 1856.25,
      "v": 83
    },
    {
      "midi": 62,
      "hit": false,
      "t": 57750,
      "d": 62.5,
      "v": 31
    },
    {
      "midi": 58,
      "hit": false,
      "t": 57750,
      "d": 90.625,
      "v": 51
    },
    {
      "midi": 53,
      "hit": false,
      "t": 57750,
      "d": 118.75,
      "v": 45
    },
    {
      "midi": 55,
      "hit": false,
      "t": 57750,
      "d": 200,
      "v": 41
    },
    {
      "midi": 67,
      "hit": false,
      "t": 57771.875,
      "d": 831.25,
      "v": 83
    },
    {
      "midi": 70,
      "hit": false,
      "t": 57775,
      "d": 1156.25,
      "v": 83
    },
    {
      "midi": 74,
      "hit": false,
      "t": 57781.25,
      "d": 1925,
      "v": 83
    },
    {
      "midi": 67,
      "hit": false,
      "t": 57950,
      "d": 153.125,
      "v": 45
    },
    {
      "midi": 58,
      "hit": false,
      "t": 58125,
      "d": 56.25,
      "v": 59
    },
    {
      "midi": 55,
      "hit": false,
      "t": 58125,
      "d": 62.5,
      "v": 46
    },
    {
      "midi": 62,
      "hit": false,
      "t": 58125,
      "d": 62.5,
      "v": 37
    },
    {
      "midi": 65,
      "hit": false,
      "t": 58125,
      "d": 62.5,
      "v": 37
    },
    {
      "midi": 70,
      "hit": false,
      "t": 58125,
      "d": 112.5,
      "v": 59
    },
    {
      "midi": 58,
      "hit": false,
      "t": 58150,
      "d": 1190.625,
      "v": 83
    },
    {
      "midi": 77,
      "hit": false,
      "t": 58312.5,
      "d": 103.125,
      "v": 82
    },
    {
      "midi": 71,
      "hit": false,
      "t": 58500,
      "d": 362.5,
      "v": 46
    },
    {
      "midi": 62,
      "hit": false,
      "t": 58500,
      "d": 1246.875,
      "v": 83
    },
    {
      "midi": 40,
      "hit": false,
      "t": 58506.25,
      "d": 562.5,
      "v": 53
    },
    {
      "midi": 79,
      "hit": false,
      "t": 58515.625,
      "d": 784.375,
      "v": 83
    },
    {
      "midi": 67,
      "hit": false,
      "t": 58875,
      "d": 803.125,
      "v": 83
    },
    {
      "midi": 59,
      "hit": false,
      "t": 58881.25,
      "d": 303.125,
      "v": 47
    },
    {
      "midi": 56,
      "hit": false,
      "t": 58881.25,
      "d": 312.5,
      "v": 32
    },
    {
      "midi": 64,
      "hit": false,
      "t": 58881.25,
      "d": 312.5,
      "v": 48
    },
    {
      "midi": 64,
      "hit": false,
      "t": 59253.125,
      "d": 212.5,
      "v": 51
    },
    {
      "midi": 59,
      "hit": false,
      "t": 59256.25,
      "d": 212.5,
      "v": 46
    },
    {
      "midi": 68,
      "hit": false,
      "t": 59256.25,
      "d": 243.75,
      "v": 38
    },
    {
      "midi": 70,
      "hit": false,
      "t": 59259.375,
      "d": 465.625,
      "v": 83
    },
    {
      "midi": 67,
      "hit": false,
      "t": 59625,
      "d": 362.5,
      "v": 47
    },
    {
      "midi": 45,
      "hit": false,
      "t": 59631.25,
      "d": 562.5,
      "v": 54
    },
    {
      "midi": 57,
      "hit": false,
      "t": 59640.625,
      "d": 1806.25,
      "v": 83
    },
    {
      "midi": 61,
      "hit": false,
      "t": 59996.875,
      "d": 1618.75,
      "v": 83
    },
    {
      "midi": 61,
      "hit": false,
      "t": 60006.25,
      "d": 312.5,
      "v": 50
    },
    {
      "midi": 52,
      "hit": false,
      "t": 60006.25,
      "d": 340.625,
      "v": 33
    },
    {
      "midi": 55,
      "hit": false,
      "t": 60006.25,
      "d": 340.625,
      "v": 48
    },
    {
      "midi": 57,
      "hit": false,
      "t": 60006.25,
      "d": 340.625,
      "v": 49
    },
    {
      "midi": 64,
      "hit": false,
      "t": 60359.375,
      "d": 1290.625,
      "v": 83
    },
    {
      "midi": 57,
      "hit": false,
      "t": 60378.125,
      "d": 115.625,
      "v": 52
    },
    {
      "midi": 61,
      "hit": false,
      "t": 60378.125,
      "d": 128.125,
      "v": 41
    },
    {
      "midi": 64,
      "hit": false,
      "t": 60381.25,
      "d": 121.875,
      "v": 39
    },
    {
      "midi": 55,
      "hit": false,
      "t": 60381.25,
      "d": 128.125,
      "v": 47
    },
    {
      "midi": 69,
      "hit": false,
      "t": 60593.75,
      "d": 1240.625,
      "v": 83
    },
    {
      "midi": 73,
      "hit": false,
      "t": 60684.375,
      "d": 1128.125,
      "v": 83
    },
    {
      "midi": 81,
      "hit": false,
      "t": 60750,
      "d": 1075,
      "v": 83
    },
    {
      "midi": 45,
      "hit": false,
      "t": 60756.25,
      "d": 465.625,
      "v": 54
    },
    {
      "midi": 64,
      "hit": false,
      "t": 60759.375,
      "d": 353.125,
      "v": 66
    },
    {
      "midi": 55,
      "hit": false,
      "t": 61131.25,
      "d": 171.875,
      "v": 40
    },
    {
      "midi": 61,
      "hit": false,
      "t": 61131.25,
      "d": 196.875,
      "v": 51
    },
    {
      "midi": 57,
      "hit": false,
      "t": 61131.25,
      "d": 209.375,
      "v": 43
    },
    {
      "midi": 55,
      "hit": false,
      "t": 61506.25,
      "d": 162.5,
      "v": 50
    },
    {
      "midi": 52,
      "hit": false,
      "t": 61693.75,
      "d": 162.5,
      "v": 60
    },
    {
      "midi": 70,
      "hit": false,
      "t": 61875,
      "d": 340.625,
      "v": 67
    },
    {
      "midi": 43,
      "hit": false,
      "t": 61875,
      "d": 359.375,
      "v": 29
    },
    {
      "midi": 55,
      "hit": false,
      "t": 61915.625,
      "d": 1759.375,
      "v": 83
    },
    {
      "midi": 62,
      "hit": false,
      "t": 62250,
      "d": 62.5,
      "v": 29
    },
    {
      "midi": 58,
      "hit": false,
      "t": 62250,
      "d": 90.625,
      "v": 68
    },
    {
      "midi": 53,
      "hit": false,
      "t": 62250,
      "d": 118.75,
      "v": 53
    },
    {
      "midi": 55,
      "hit": false,
      "t": 62250,
      "d": 200,
      "v": 52
    },
    {
      "midi": 58,
      "hit": false,
      "t": 62265.625,
      "d": 1550,
      "v": 83
    },
    {
      "midi": 67,
      "hit": false,
      "t": 62450,
      "d": 153.125,
      "v": 43
    },
    {
      "midi": 58,
      "hit": false,
      "t": 62625,
      "d": 56.25,
      "v": 57
    },
    {
      "midi": 55,
      "hit": false,
      "t": 62625,
      "d": 62.5,
      "v": 44
    },
    {
      "midi": 62,
      "hit": false,
      "t": 62625,
      "d": 62.5,
      "v": 35
    },
    {
      "midi": 65,
      "hit": false,
      "t": 62625,
      "d": 62.5,
      "v": 35
    },
    {
      "midi": 70,
      "hit": false,
      "t": 62625,
      "d": 112.5,
      "v": 57
    },
    {
      "midi": 62,
      "hit": false,
      "t": 62643.75,
      "d": 1162.5,
      "v": 83
    },
    {
      "midi": 77,
      "hit": false,
      "t": 62812.5,
      "d": 103.125,
      "v": 80
    },
    {
      "midi": 67,
      "hit": false,
      "t": 62971.875,
      "d": 1215.625,
      "v": 83
    },
    {
      "midi": 43,
      "hit": false,
      "t": 63000,
      "d": 112.5,
      "v": 56
    },
    {
      "midi": 74,
      "hit": false,
      "t": 63000,
      "d": 771.875,
      "v": 64
    },
    {
      "midi": 62,
      "hit": false,
      "t": 63375,
      "d": 90.625,
      "v": 34
    },
    {
      "midi": 58,
      "hit": false,
      "t": 63375,
      "d": 93.75,
      "v": 63
    },
    {
      "midi": 55,
      "hit": false,
      "t": 63375,
      "d": 100,
      "v": 34
    },
    {
      "midi": 53,
      "hit": false,
      "t": 63375,
      "d": 131.25,
      "v": 30
    },
    {
      "midi": 70,
      "hit": false,
      "t": 63400,
      "d": 806.25,
      "v": 83
    },
    {
      "midi": 67,
      "hit": false,
      "t": 63562.5,
      "d": 196.875,
      "v": 51
    },
    {
      "midi": 58,
      "hit": false,
      "t": 63750,
      "d": 75,
      "v": 54
    },
    {
      "midi": 62,
      "hit": false,
      "t": 63750,
      "d": 84.375,
      "v": 34
    },
    {
      "midi": 65,
      "hit": false,
      "t": 63750,
      "d": 103.125,
      "v": 38
    },
    {
      "midi": 70,
      "hit": false,
      "t": 63750,
      "d": 187.5,
      "v": 56
    },
    {
      "midi": 74,
      "hit": false,
      "t": 63750,
      "d": 396.875,
      "v": 83
    },
    {
      "midi": 55,
      "hit": false,
      "t": 63759.375,
      "d": 78.125,
      "v": 33
    },
    {
      "midi": 67,
      "hit": false,
      "t": 63937.5,
      "d": 100,
      "v": 72
    },
    {
      "midi": 74,
      "hit": false,
      "t": 64125,
      "d": 362.5,
      "v": 48
    },
    {
      "midi": 50,
      "hit": false,
      "t": 64125,
      "d": 1703.125,
      "v": 83
    },
    {
      "midi": 38,
      "hit": false,
      "t": 64131.25,
      "d": 562.5,
      "v": 55
    },
    {
      "midi": 53,
      "hit": false,
      "t": 64462.5,
      "d": 1521.875,
      "v": 83
    },
    {
      "midi": 65,
      "hit": false,
      "t": 64506.25,
      "d": 312.5,
      "v": 51
    },
    {
      "midi": 57,
      "hit": false,
      "t": 64506.25,
      "d": 340.625,
      "v": 34
    },
    {
      "midi": 60,
      "hit": false,
      "t": 64506.25,
      "d": 340.625,
      "v": 49
    },
    {
      "midi": 62,
      "hit": false,
      "t": 64506.25,
      "d": 340.625,
      "v": 50
    },
    {
      "midi": 57,
      "hit": false,
      "t": 64865.625,
      "d": 1537.5,
      "v": 83
    },
    {
      "midi": 62,
      "hit": false,
      "t": 64878.125,
      "d": 115.625,
      "v": 53
    },
    {
      "midi": 65,
      "hit": false,
      "t": 64878.125,
      "d": 128.125,
      "v": 42
    },
    {
      "midi": 69,
      "hit": false,
      "t": 64881.25,
      "d": 121.875,
      "v": 40
    },
    {
      "midi": 60,
      "hit": false,
      "t": 64881.25,
      "d": 128.125,
      "v": 48
    },
    {
      "midi": 62,
      "hit": false,
      "t": 65225,
      "d": 1150,
      "v": 83
    },
    {
      "midi": 38,
      "hit": false,
      "t": 65256.25,
      "d": 465.625,
      "v": 55
    },
    {
      "midi": 72,
      "hit": false,
      "t": 65259.375,
      "d": 353.125,
      "v": 67
    },
    {
      "midi": 65,
      "hit": false,
      "t": 65609.375,
      "d": 803.125,
      "v": 83
    },
    {
      "midi": 60,
      "hit": false,
      "t": 65631.25,
      "d": 171.875,
      "v": 41
    },
    {
      "midi": 62,
      "hit": false,
      "t": 65631.25,
      "d": 356.25,
      "v": 44
    },
    {
      "midi": 65,
      "hit": false,
      "t": 65631.25,
      "d": 356.25,
      "v": 52
    },
    {
      "midi": 69,
      "hit": false,
      "t": 65990.625,
      "d": 525,
      "v": 83
    },
    {
      "midi": 57,
      "hit": false,
      "t": 66000,
      "d": 184.375,
      "v": 45
    },
    {
      "midi": 62,
      "hit": false,
      "t": 66006.25,
      "d": 137.5,
      "v": 48
    },
    {
      "midi": 60,
      "hit": false,
      "t": 66006.25,
      "d": 162.5,
      "v": 48
    },
    {
      "midi": 71,
      "hit": false,
      "t": 66375,
      "d": 362.5,
      "v": 49
    },
    {
      "midi": 40,
      "hit": false,
      "t": 66381.25,
      "d": 562.5,
      "v": 46
    },
    {
      "midi": 52,
      "hit": false,
      "t": 66387.5,
      "d": 793.75,
      "v": 83
    },
    {
      "midi": 59,
      "hit": false,
      "t": 66756.25,
      "d": 290.625,
      "v": 51
    },
    {
      "midi": 56,
      "hit": false,
      "t": 66756.25,
      "d": 303.125,
      "v": 50
    },
    {
      "midi": 52,
      "hit": false,
      "t": 66756.25,
      "d": 312.5,
      "v": 35
    },
    {
      "midi": 62,
      "hit": false,
      "t": 66756.25,
      "d": 312.5,
      "v": 52
    },
    {
      "midi": 56,
      "hit": false,
      "t": 66756.25,
      "d": 468.75,
      "v": 83
    },
    {
      "midi": 64,
      "hit": false,
      "t": 67121.875,
      "d": 434.375,
      "v": 83
    },
    {
      "midi": 59,
      "hit": false,
      "t": 67128.125,
      "d": 159.375,
      "v": 54
    },
    {
      "midi": 62,
      "hit": false,
      "t": 67128.125,
      "d": 159.375,
      "v": 43
    },
    {
      "midi": 64,
      "hit": false,
      "t": 67131.25,
      "d": 181.25,
      "v": 41
    },
    {
      "midi": 56,
      "hit": false,
      "t": 67131.25,
      "d": 296.875,
      "v": 49
    },
    {
      "midi": 57,
      "hit": false,
      "t": 67493.75,
      "d": 2812.5,
      "v": 83
    },
    {
      "midi": 73,
      "hit": false,
      "t": 67500,
      "d": 340.625,
      "v": 64
    },
    {
      "midi": 45,
      "hit": false,
      "t": 67500,
      "d": 359.375,
      "v": 31
    },
    {
      "midi": 61,
      "hit": false,
      "t": 67862.5,
      "d": 646.875,
      "v": 83
    },
    {
      "midi": 57,
      "hit": false,
      "t": 67875,
      "d": 62.5,
      "v": 31
    },
    {
      "midi": 55,
      "hit": false,
      "t": 67875,
      "d": 90.625,
      "v": 54
    },
    {
      "midi": 49,
      "hit": false,
      "t": 67875,
      "d": 118.75,
      "v": 55
    },
    {
      "midi": 52,
      "hit": false,
      "t": 67875,
      "d": 200,
      "v": 54
    },
    {
      "midi": 64,
      "hit": false,
      "t": 68075,
      "d": 153.125,
      "v": 45
    },
    {
      "midi": 64,
      "hit": false,
      "t": 68200,
      "d": 493.75,
      "v": 83
    },
    {
      "midi": 55,
      "hit": false,
      "t": 68250,
      "d": 56.25,
      "v": 54
    },
    {
      "midi": 52,
      "hit": false,
      "t": 68250,
      "d": 62.5,
      "v": 46
    },
    {
      "midi": 57,
      "hit": false,
      "t": 68250,
      "d": 62.5,
      "v": 37
    },
    {
      "midi": 61,
      "hit": false,
      "t": 68250,
      "d": 62.5,
      "v": 37
    },
    {
      "midi": 67,
      "hit": false,
      "t": 68250,
      "d": 112.5,
      "v": 59
    },
    {
      "midi": 73,
      "hit": false,
      "t": 68437.5,
      "d": 103.125,
      "v": 67
    },
    {
      "midi": 74,
      "hit": false,
      "t": 68625,
      "d": 362.5,
      "v": 46
    },
    {
      "midi": 62,
      "hit": false,
      "t": 68625,
      "d": 1690.625,
      "v": 83
    },
    {
      "midi": 38,
      "hit": false,
      "t": 68631.25,
      "d": 562.5,
      "v": 53
    },
    {
      "midi": 65,
      "hit": false,
      "t": 69000,
      "d": 1303.125,
      "v": 83
    },
    {
      "midi": 62,
      "hit": false,
      "t": 69006.25,
      "d": 303.125,
      "v": 47
    },
    {
      "midi": 57,
      "hit": false,
      "t": 69006.25,
      "d": 312.5,
      "v": 32
    },
    {
      "midi": 65,
      "hit": false,
      "t": 69006.25,
      "d": 312.5,
      "v": 48
    },
    {
      "midi": 65,
      "hit": false,
      "t": 69378.125,
      "d": 212.5,
      "v": 51
    },
    {
      "midi": 62,
      "hit": false,
      "t": 69381.25,
      "d": 212.5,
      "v": 46
    },
    {
      "midi": 69,
      "hit": false,
      "t": 69381.25,
      "d": 243.75,
      "v": 38
    },
    {
      "midi": 74,
      "hit": false,
      "t": 69409.375,
      "d": 893.75,
      "v": 83
    },
    {
      "midi": 74,
      "hit": false,
      "t": 69750,
      "d": 362.5,
      "v": 49
    },
    {
      "midi": 86,
      "hit": false,
      "t": 69750,
      "d": 593.75,
      "v": 83
    },
    {
      "midi": 38,
      "hit": false,
      "t": 69756.25,
      "d": 562.5,
      "v": 46
    },
    {
      "midi": 62,
      "hit": false,
      "t": 70131.25,
      "d": 290.625,
      "v": 51
    },
    {
      "midi": 60,
      "hit": false,
      "t": 70131.25,
      "d": 303.125,
      "v": 50
    },
    {
      "midi": 57,
      "hit": false,
      "t": 70131.25,
      "d": 312.5,
      "v": 35
    },
    {
      "midi": 65,
      "hit": false,
      "t": 70131.25,
      "d": 312.5,
      "v": 52
    },
    {
      "midi": 62,
      "hit": false,
      "t": 70503.125,
      "d": 159.375,
      "v": 54
    },
    {
      "midi": 65,
      "hit": false,
      "t": 70503.125,
      "d": 159.375,
      "v": 43
    },
    {
      "midi": 69,
      "hit": false,
      "t": 70506.25,
      "d": 181.25,
      "v": 41
    },
    {
      "midi": 60,
      "hit": false,
      "t": 70506.25,
      "d": 296.875,
      "v": 49
    },
    {
      "midi": 77,
      "hit": false,
      "t": 70875,
      "d": 362.5,
      "v": 45
    },
    {
      "midi": 43,
      "hit": false,
      "t": 70881.25,
      "d": 562.5,
      "v": 52
    },
    {
      "midi": 65,
      "hit": false,
      "t": 71256.25,
      "d": 312.5,
      "v": 48
    },
    {
      "midi": 55,
      "hit": false,
      "t": 71256.25,
      "d": 340.625,
      "v": 31
    },
    {
      "midi": 58,
      "hit": false,
      "t": 71256.25,
      "d": 340.625,
      "v": 46
    },
    {
      "midi": 62,
      "hit": false,
      "t": 71256.25,
      "d": 340.625,
      "v": 47
    },
    {
      "midi": 62,
      "hit": false,
      "t": 71628.125,
      "d": 153.125,
      "v": 50
    },
    {
      "midi": 65,
      "hit": false,
      "t": 71628.125,
      "d": 153.125,
      "v": 39
    },
    {
      "midi": 67,
      "hit": false,
      "t": 71631.25,
      "d": 121.875,
      "v": 37
    },
    {
      "midi": 58,
      "hit": false,
      "t": 71631.25,
      "d": 137.5,
      "v": 45
    },
    {
      "midi": 74,
      "hit": false,
      "t": 72000,
      "d": 340.625,
      "v": 64
    },
    {
      "midi": 43,
      "hit": false,
      "t": 72000,
      "d": 359.375,
      "v": 31
    },
    {
      "midi": 62,
      "hit": false,
      "t": 72375,
      "d": 62.5,
      "v": 31
    },
    {
      "midi": 58,
      "hit": false,
      "t": 72375,
      "d": 90.625,
      "v": 51
    },
    {
      "midi": 53,
      "hit": false,
      "t": 72375,
      "d": 118.75,
      "v": 45
    },
    {
      "midi": 55,
      "hit": false,
      "t": 72375,
      "d": 200,
      "v": 41
    },
    {
      "midi": 67,
      "hit": false,
      "t": 72575,
      "d": 153.125,
      "v": 45
    },
    {
      "midi": 58,
      "hit": false,
      "t": 72750,
      "d": 56.25,
      "v": 59
    },
    {
      "midi": 55,
      "hit": false,
      "t": 72750,
      "d": 62.5,
      "v": 46
    },
    {
      "midi": 62,
      "hit": false,
      "t": 72750,
      "d": 62.5,
      "v": 37
    },
    {
      "midi": 65,
      "hit": false,
      "t": 72750,
      "d": 62.5,
      "v": 37
    },
    {
      "midi": 70,
      "hit": false,
      "t": 72750,
      "d": 112.5,
      "v": 59
    },
    {
      "midi": 77,
      "hit": false,
      "t": 72937.5,
      "d": 103.125,
      "v": 82
    },
    {
      "midi": 72,
      "hit": false,
      "t": 73125,
      "d": 362.5,
      "v": 46
    },
    {
      "midi": 38,
      "hit": false,
      "t": 73131.25,
      "d": 562.5,
      "v": 53
    },
    {
      "midi": 60,
      "hit": false,
      "t": 73506.25,
      "d": 303.125,
      "v": 47
    },
    {
      "midi": 57,
      "hit": false,
      "t": 73506.25,
      "d": 312.5,
      "v": 32
    },
    {
      "midi": 65,
      "hit": false,
      "t": 73506.25,
      "d": 312.5,
      "v": 49
    },
    {
      "midi": 62,
      "hit": false,
      "t": 73506.25,
      "d": 340.625,
      "v": 48
    },
    {
      "midi": 62,
      "hit": false,
      "t": 73878.125,
      "d": 212.5,
      "v": 51
    },
    {
      "midi": 65,
      "hit": false,
      "t": 73878.125,
      "d": 237.5,
      "v": 40
    },
    {
      "midi": 60,
      "hit": false,
      "t": 73881.25,
      "d": 212.5,
      "v": 46
    },
    {
      "midi": 69,
      "hit": false,
      "t": 73881.25,
      "d": 243.75,
      "v": 38
    },
    {
      "midi": 74,
      "hit": false,
      "t": 74250,
      "d": 362.5,
      "v": 49
    },
    {
      "midi": 38,
      "hit": false,
      "t": 74256.25,
      "d": 562.5,
      "v": 46
    },
    {
      "midi": 62,
      "hit": false,
      "t": 74631.25,
      "d": 290.625,
      "v": 51
    },
    {
      "midi": 60,
      "hit": false,
      "t": 74631.25,
      "d": 303.125,
      "v": 50
    },
    {
      "midi": 57,
      "hit": false,
      "t": 74631.25,
      "d": 312.5,
      "v": 35
    },
    {
      "midi": 65,
      "hit": false,
      "t": 74631.25,
      "d": 312.5,
      "v": 52
    },
    {
      "midi": 62,
      "hit": false,
      "t": 75003.125,
      "d": 159.375,
      "v": 54
    },
    {
      "midi": 65,
      "hit": false,
      "t": 75003.125,
      "d": 159.375,
      "v": 43
    },
    {
      "midi": 69,
      "hit": false,
      "t": 75006.25,
      "d": 181.25,
      "v": 41
    },
    {
      "midi": 60,
      "hit": false,
      "t": 75006.25,
      "d": 296.875,
      "v": 49
    },
    {
      "midi": 68,
      "hit": false,
      "t": 75375,
      "d": 362.5,
      "v": 46
    },
    {
      "midi": 40,
      "hit": false,
      "t": 75381.25,
      "d": 562.5,
      "v": 53
    },
    {
      "midi": 56,
      "hit": false,
      "t": 75756.25,
      "d": 303.125,
      "v": 47
    },
    {
      "midi": 52,
      "hit": false,
      "t": 75756.25,
      "d": 312.5,
      "v": 32
    },
    {
      "midi": 62,
      "hit": false,
      "t": 75756.25,
      "d": 312.5,
      "v": 49
    },
    {
      "midi": 59,
      "hit": false,
      "t": 75756.25,
      "d": 340.625,
      "v": 48
    },
    {
      "midi": 59,
      "hit": false,
      "t": 76128.125,
      "d": 212.5,
      "v": 51
    },
    {
      "midi": 62,
      "hit": false,
      "t": 76128.125,
      "d": 237.5,
      "v": 40
    },
    {
      "midi": 56,
      "hit": false,
      "t": 76131.25,
      "d": 212.5,
      "v": 46
    },
    {
      "midi": 64,
      "hit": false,
      "t": 76131.25,
      "d": 243.75,
      "v": 38
    },
    {
      "midi": 73,
      "hit": false,
      "t": 76500,
      "d": 362.5,
      "v": 49
    },
    {
      "midi": 45,
      "hit": false,
      "t": 76506.25,
      "d": 562.5,
      "v": 46
    },
    {
      "midi": 52,
      "hit": false,
      "t": 76881.25,
      "d": 296.875,
      "v": 35
    },
    {
      "midi": 61,
      "hit": false,
      "t": 76881.25,
      "d": 312.5,
      "v": 52
    },
    {
      "midi": 55,
      "hit": false,
      "t": 76881.25,
      "d": 340.625,
      "v": 50
    },
    {
      "midi": 57,
      "hit": false,
      "t": 76881.25,
      "d": 340.625,
      "v": 51
    },
    {
      "midi": 57,
      "hit": false,
      "t": 77253.125,
      "d": 175,
      "v": 54
    },
    {
      "midi": 61,
      "hit": false,
      "t": 77253.125,
      "d": 175,
      "v": 43
    },
    {
      "midi": 52,
      "hit": false,
      "t": 77256.25,
      "d": 171.875,
      "v": 41
    },
    {
      "midi": 55,
      "hit": false,
      "t": 77256.25,
      "d": 171.875,
      "v": 49
    },
    {
      "midi": 67,
      "hit": false,
      "t": 77437.5,
      "d": 184.375,
      "v": 49
    },
    {
      "midi": 74,
      "hit": false,
      "t": 77625,
      "d": 362.5,
      "v": 49
    },
    {
      "midi": 38,
      "hit": false,
      "t": 77631.25,
      "d": 562.5,
      "v": 46
    },
    {
      "midi": 62,
      "hit": false,
      "t": 78006.25,
      "d": 290.625,
      "v": 51
    },
    {
      "midi": 60,
      "hit": false,
      "t": 78006.25,
      "d": 303.125,
      "v": 50
    },
    {
      "midi": 57,
      "hit": false,
      "t": 78006.25,
      "d": 312.5,
      "v": 35
    },
    {
      "midi": 65,
      "hit": false,
      "t": 78006.25,
      "d": 312.5,
      "v": 52
    },
    {
      "midi": 62,
      "hit": false,
      "t": 78378.125,
      "d": 159.375,
      "v": 54
    },
    {
      "midi": 65,
      "hit": false,
      "t": 78378.125,
      "d": 159.375,
      "v": 43
    },
    {
      "midi": 69,
      "hit": false,
      "t": 78381.25,
      "d": 181.25,
      "v": 41
    },
    {
      "midi": 60,
      "hit": false,
      "t": 78381.25,
      "d": 296.875,
      "v": 49
    },
    {
      "midi": 74,
      "hit": false,
      "t": 78750,
      "d": 340.625,
      "v": 64
    },
    {
      "midi": 38,
      "hit": false,
      "t": 78750,
      "d": 359.375,
      "v": 31
    },
    {
      "midi": 62,
      "hit": false,
      "t": 79125,
      "d": 62.5,
      "v": 31
    },
    {
      "midi": 60,
      "hit": false,
      "t": 79125,
      "d": 90.625,
      "v": 51
    },
    {
      "midi": 53,
      "hit": false,
      "t": 79125,
      "d": 118.75,
      "v": 45
    },
    {
      "midi": 57,
      "hit": false,
      "t": 79125,
      "d": 200,
      "v": 41
    },
    {
      "midi": 69,
      "hit": false,
      "t": 79325,
      "d": 153.125,
      "v": 45
    },
    {
      "midi": 60,
      "hit": false,
      "t": 79500,
      "d": 56.25,
      "v": 59
    },
    {
      "midi": 57,
      "hit": false,
      "t": 79500,
      "d": 62.5,
      "v": 46
    },
    {
      "midi": 62,
      "hit": false,
      "t": 79500,
      "d": 62.5,
      "v": 37
    },
    {
      "midi": 65,
      "hit": false,
      "t": 79500,
      "d": 62.5,
      "v": 37
    },
    {
      "midi": 72,
      "hit": false,
      "t": 79500,
      "d": 112.5,
      "v": 59
    },
    {
      "midi": 77,
      "hit": false,
      "t": 79687.5,
      "d": 103.125,
      "v": 82
    },
    {
      "midi": 67,
      "hit": false,
      "t": 79871.875,
      "d": 228.125,
      "v": 83
    },
    {
      "midi": 74,
      "hit": false,
      "t": 79875,
      "d": 362.5,
      "v": 49
    },
    {
      "midi": 43,
      "hit": false,
      "t": 79881.25,
      "d": 562.5,
      "v": 46
    },
    {
      "midi": 79,
      "hit": false,
      "t": 80068.75,
      "d": 175,
      "v": 83
    },
    {
      "midi": 67,
      "hit": false,
      "t": 80243.75,
      "d": 209.375,
      "v": 83
    },
    {
      "midi": 62,
      "hit": false,
      "t": 80256.25,
      "d": 290.625,
      "v": 51
    },
    {
      "midi": 58,
      "hit": false,
      "t": 80256.25,
      "d": 303.125,
      "v": 50
    },
    {
      "midi": 55,
      "hit": false,
      "t": 80256.25,
      "d": 312.5,
      "v": 35
    },
    {
      "midi": 65,
      "hit": false,
      "t": 80256.25,
      "d": 312.5,
      "v": 52
    },
    {
      "midi": 79,
      "hit": false,
      "t": 80431.25,
      "d": 187.5,
      "v": 83
    },
    {
      "midi": 62,
      "hit": false,
      "t": 80628.125,
      "d": 159.375,
      "v": 54
    },
    {
      "midi": 65,
      "hit": false,
      "t": 80628.125,
      "d": 159.375,
      "v": 43
    },
    {
      "midi": 67,
      "hit": false,
      "t": 80631.25,
      "d": 181.25,
      "v": 41
    },
    {
      "midi": 58,
      "hit": false,
      "t": 80631.25,
      "d": 296.875,
      "v": 49
    },
    {
      "midi": 67,
      "hit": false,
      "t": 80631.25,
      "d": 181.25,
      "v": 83
    },
    {
      "midi": 79,
      "hit": false,
      "t": 80793.75,
      "d": 187.5,
      "v": 83
    },
    {
      "midi": 67,
      "hit": false,
      "t": 80987.5,
      "d": 190.625,
      "v": 83
    },
    {
      "midi": 77,
      "hit": false,
      "t": 81000,
      "d": 362.5,
      "v": 45
    },
    {
      "midi": 43,
      "hit": false,
      "t": 81006.25,
      "d": 562.5,
      "v": 52
    },
    {
      "midi": 79,
      "hit": false,
      "t": 81171.875,
      "d": 181.25,
      "v": 83
    },
    {
      "midi": 67,
      "hit": false,
      "t": 81371.875,
      "d": 178.125,
      "v": 83
    },
    {
      "midi": 65,
      "hit": false,
      "t": 81381.25,
      "d": 312.5,
      "v": 48
    },
    {
      "midi": 55,
      "hit": false,
      "t": 81381.25,
      "d": 340.625,
      "v": 31
    },
    {
      "midi": 58,
      "hit": false,
      "t": 81381.25,
      "d": 340.625,
      "v": 46
    },
    {
      "midi": 62,
      "hit": false,
      "t": 81381.25,
      "d": 340.625,
      "v": 47
    },
    {
      "midi": 79,
      "hit": false,
      "t": 81550,
      "d": 184.375,
      "v": 83
    },
    {
      "midi": 67,
      "hit": false,
      "t": 81740.625,
      "d": 225,
      "v": 83
    },
    {
      "midi": 62,
      "hit": false,
      "t": 81753.125,
      "d": 153.125,
      "v": 50
    },
    {
      "midi": 65,
      "hit": false,
      "t": 81753.125,
      "d": 153.125,
      "v": 39
    },
    {
      "midi": 67,
      "hit": false,
      "t": 81756.25,
      "d": 121.875,
      "v": 37
    },
    {
      "midi": 58,
      "hit": false,
      "t": 81756.25,
      "d": 137.5,
      "v": 45
    },
    {
      "midi": 79,
      "hit": false,
      "t": 81931.25,
      "d": 168.75,
      "v": 83
    },
    {
      "midi": 74,
      "hit": false,
      "t": 82125,
      "d": 362.5,
      "v": 49
    },
    {
      "midi": 65,
      "hit": false,
      "t": 82125,
      "d": 218.75,
      "v": 83
    },
    {
      "midi": 38,
      "hit": false,
      "t": 82131.25,
      "d": 562.5,
      "v": 46
    },
    {
      "midi": 77,
      "hit": false,
      "t": 82309.375,
      "d": 178.125,
      "v": 83
    },
    {
      "midi": 65,
      "hit": false,
      "t": 82500,
      "d": 203.125,
      "v": 83
    },
    {
      "midi": 62,
      "hit": false,
      "t": 82506.25,
      "d": 290.625,
      "v": 51
    },
    {
      "midi": 60,
      "hit": false,
      "t": 82506.25,
      "d": 303.125,
      "v": 50
    },
    {
      "midi": 57,
      "hit": false,
      "t": 82506.25,
      "d": 312.5,
      "v": 35
    },
    {
      "midi": 65,
      "hit": false,
      "t": 82506.25,
      "d": 312.5,
      "v": 52
    },
    {
      "midi": 77,
      "hit": false,
      "t": 82675,
      "d": 187.5,
      "v": 83
    },
    {
      "midi": 65,
      "hit": false,
      "t": 82875,
      "d": 184.375,
      "v": 83
    },
    {
      "midi": 62,
      "hit": false,
      "t": 82878.125,
      "d": 159.375,
      "v": 54
    },
    {
      "midi": 65,
      "hit": false,
      "t": 82878.125,
      "d": 159.375,
      "v": 43
    },
    {
      "midi": 69,
      "hit": false,
      "t": 82881.25,
      "d": 181.25,
      "v": 41
    },
    {
      "midi": 60,
      "hit": false,
      "t": 82881.25,
      "d": 296.875,
      "v": 49
    },
    {
      "midi": 77,
      "hit": false,
      "t": 83053.125,
      "d": 175,
      "v": 83
    },
    {
      "midi": 65,
      "hit": false,
      "t": 83237.5,
      "d": 206.25,
      "v": 83
    },
    {
      "midi": 77,
      "hit": false,
      "t": 83250,
      "d": 362.5,
      "v": 49
    },
    {
      "midi": 38,
      "hit": false,
      "t": 83256.25,
      "d": 562.5,
      "v": 46
    },
    {
      "midi": 77,
      "hit": false,
      "t": 83437.5,
      "d": 181.25,
      "v": 83
    },
    {
      "midi": 65,
      "hit": false,
      "t": 83625,
      "d": 187.5,
      "v": 83
    },
    {
      "midi": 57,
      "hit": false,
      "t": 83631.25,
      "d": 296.875,
      "v": 35
    },
    {
      "midi": 65,
      "hit": false,
      "t": 83631.25,
      "d": 312.5,
      "v": 52
    },
    {
      "midi": 60,
      "hit": false,
      "t": 83631.25,
      "d": 340.625,
      "v": 50
    },
    {
      "midi": 62,
      "hit": false,
      "t": 83631.25,
      "d": 340.625,
      "v": 51
    },
    {
      "midi": 77,
      "hit": false,
      "t": 83803.125,
      "d": 196.875,
      "v": 83
    },
    {
      "midi": 65,
      "hit": false,
      "t": 84000,
      "d": 231.25,
      "v": 83
    },
    {
      "midi": 62,
      "hit": false,
      "t": 84003.125,
      "d": 175,
      "v": 54
    },
    {
      "midi": 65,
      "hit": false,
      "t": 84003.125,
      "d": 175,
      "v": 43
    },
    {
      "midi": 57,
      "hit": false,
      "t": 84006.25,
      "d": 171.875,
      "v": 41
    },
    {
      "midi": 60,
      "hit": false,
      "t": 84006.25,
      "d": 171.875,
      "v": 49
    },
    {
      "midi": 77,
      "hit": false,
      "t": 84175,
      "d": 178.125,
      "v": 83
    },
    {
      "midi": 72,
      "hit": false,
      "t": 84187.5,
      "d": 184.375,
      "v": 49
    },
    {
      "midi": 74,
      "hit": false,
      "t": 84375,
      "d": 362.5,
      "v": 45
    },
    {
      "midi": 64,
      "hit": false,
      "t": 84375,
      "d": 200,
      "v": 83
    },
    {
      "midi": 40,
      "hit": false,
      "t": 84381.25,
      "d": 562.5,
      "v": 52
    },
    {
      "midi": 76,
      "hit": false,
      "t": 84565.625,
      "d": 178.125,
      "v": 83
    },
    {
      "midi": 62,
      "hit": false,
      "t": 84756.25,
      "d": 312.5,
      "v": 48
    },
    {
      "midi": 52,
      "hit": false,
      "t": 84756.25,
      "d": 340.625,
      "v": 31
    },
    {
      "midi": 56,
      "hit": false,
      "t": 84756.25,
      "d": 340.625,
      "v": 46
    },
    {
      "midi": 59,
      "hit": false,
      "t": 84756.25,
      "d": 340.625,
      "v": 47
    },
    {
      "midi": 64,
      "hit": false,
      "t": 84765.625,
      "d": 196.875,
      "v": 83
    },
    {
      "midi": 76,
      "hit": false,
      "t": 84950,
      "d": 181.25,
      "v": 83
    },
    {
      "midi": 59,
      "hit": false,
      "t": 85128.125,
      "d": 153.125,
      "v": 50
    },
    {
      "midi": 62,
      "hit": false,
      "t": 85128.125,
      "d": 153.125,
      "v": 39
    },
    {
      "midi": 64,
      "hit": false,
      "t": 85131.25,
      "d": 121.875,
      "v": 37
    },
    {
      "midi": 56,
      "hit": false,
      "t": 85131.25,
      "d": 137.5,
      "v": 45
    },
    {
      "midi": 64,
      "hit": false,
      "t": 85140.625,
      "d": 221.875,
      "v": 83
    },
    {
      "midi": 76,
      "hit": false,
      "t": 85287.5,
      "d": 115.625,
      "v": 83
    },
    {
      "midi": 73,
      "hit": false,
      "t": 85500,
      "d": 362.5,
      "v": 49
    },
    {
      "midi": 45,
      "hit": false,
      "t": 85506.25,
      "d": 562.5,
      "v": 46
    },
    {
      "midi": 61,
      "hit": false,
      "t": 85525,
      "d": 184.375,
      "v": 83
    },
    {
      "midi": 73,
      "hit": false,
      "t": 85693.75,
      "d": 184.375,
      "v": 83
    },
    {
      "midi": 52,
      "hit": false,
      "t": 85881.25,
      "d": 296.875,
      "v": 35
    },
    {
      "midi": 61,
      "hit": false,
      "t": 85881.25,
      "d": 312.5,
      "v": 52
    },
    {
      "midi": 55,
      "hit": false,
      "t": 85881.25,
      "d": 340.625,
      "v": 50
    },
    {
      "midi": 57,
      "hit": false,
      "t": 85881.25,
      "d": 340.625,
      "v": 51
    },
    {
      "midi": 61,
      "hit": false,
      "t": 85890.625,
      "d": 184.375,
      "v": 83
    },
    {
      "midi": 73,
      "hit": false,
      "t": 86075,
      "d": 175,
      "v": 83
    },
    {
      "midi": 57,
      "hit": false,
      "t": 86253.125,
      "d": 175,
      "v": 54
    },
    {
      "midi": 61,
      "hit": false,
      "t": 86253.125,
      "d": 175,
      "v": 43
    },
    {
      "midi": 52,
      "hit": false,
      "t": 86256.25,
      "d": 171.875,
      "v": 41
    },
    {
      "midi": 55,
      "hit": false,
      "t": 86256.25,
      "d": 171.875,
      "v": 49
    },
    {
      "midi": 61,
      "hit": false,
      "t": 86265.625,
      "d": 221.875,
      "v": 83
    },
    {
      "midi": 73,
      "hit": false,
      "t": 86425,
      "d": 150,
      "v": 83
    },
    {
      "midi": 67,
      "hit": false,
      "t": 86437.5,
      "d": 184.375,
      "v": 49
    },
    {
      "midi": 77,
      "hit": false,
      "t": 86625,
      "d": 340.625,
      "v": 64
    },
    {
      "midi": 38,
      "hit": false,
      "t": 86625,
      "d": 359.375,
      "v": 31
    },
    {
      "midi": 62,
      "hit": false,
      "t": 86625,
      "d": 234.375,
      "v": 83
    },
    {
      "midi": 74,
      "hit": false,
      "t": 86809.375,
      "d": 184.375,
      "v": 83
    },
    {
      "midi": 62,
      "hit": false,
      "t": 87000,
      "d": 62.5,
      "v": 31
    },
    {
      "midi": 60,
      "hit": false,
      "t": 87000,
      "d": 90.625,
      "v": 54
    },
    {
      "midi": 53,
      "hit": false,
      "t": 87000,
      "d": 118.75,
      "v": 55
    },
    {
      "midi": 57,
      "hit": false,
      "t": 87000,
      "d": 200,
      "v": 54
    },
    {
      "midi": 62,
      "hit": false,
      "t": 87015.625,
      "d": 193.75,
      "v": 83
    },
    {
      "midi": 69,
      "hit": false,
      "t": 87200,
      "d": 153.125,
      "v": 45
    },
    {
      "midi": 74,
      "hit": false,
      "t": 87200,
      "d": 171.875,
      "v": 83
    },
    {
      "midi": 60,
      "hit": false,
      "t": 87375,
      "d": 56.25,
      "v": 54
    },
    {
      "midi": 57,
      "hit": false,
      "t": 87375,
      "d": 62.5,
      "v": 46
    },
    {
      "midi": 62,
      "hit": false,
      "t": 87375,
      "d": 62.5,
      "v": 37
    },
    {
      "midi": 65,
      "hit": false,
      "t": 87375,
      "d": 62.5,
      "v": 37
    },
    {
      "midi": 72,
      "hit": false,
      "t": 87375,
      "d": 112.5,
      "v": 59
    },
    {
      "midi": 62,
      "hit": false,
      "t": 87393.75,
      "d": 181.25,
      "v": 83
    },
    {
      "midi": 74,
      "hit": false,
      "t": 87559.375,
      "d": 190.625,
      "v": 83
    },
    {
      "midi": 77,
      "hit": false,
      "t": 87562.5,
      "d": 103.125,
      "v": 67
    },
    {
      "midi": 74,
      "hit": false,
      "t": 87750,
      "d": 340.625,
      "v": 64
    },
    {
      "midi": 38,
      "hit": false,
      "t": 87750,
      "d": 359.375,
      "v": 31
    },
    {
      "midi": 62,
      "hit": false,
      "t": 87765.625,
      "d": 40.625,
      "v": 83
    },
    {
      "midi": 62,
      "hit": false,
      "t": 88125,
      "d": 62.5,
      "v": 31
    },
    {
      "midi": 60,
      "hit": false,
      "t": 88125,
      "d": 90.625,
      "v": 51
    },
    {
      "midi": 53,
      "hit": false,
      "t": 88125,
      "d": 118.75,
      "v": 45
    },
    {
      "midi": 57,
      "hit": false,
      "t": 88125,
      "d": 200,
      "v": 41
    },
    {
      "midi": 69,
      "hit": false,
      "t": 88325,
      "d": 153.125,
      "v": 45
    },
    {
      "midi": 60,
      "hit": false,
      "t": 88500,
      "d": 56.25,
      "v": 59
    },
    {
      "midi": 57,
      "hit": false,
      "t": 88500,
      "d": 62.5,
      "v": 46
    },
    {
      "midi": 62,
      "hit": false,
      "t": 88500,
      "d": 62.5,
      "v": 37
    },
    {
      "midi": 65,
      "hit": false,
      "t": 88500,
      "d": 62.5,
      "v": 37
    },
    {
      "midi": 72,
      "hit": false,
      "t": 88500,
      "d": 112.5,
      "v": 59
    },
    {
      "midi": 77,
      "hit": false,
      "t": 88687.5,
      "d": 103.125,
      "v": 82
    },
    {
      "midi": 74,
      "hit": false,
      "t": 88875,
      "d": 362.5,
      "v": 49
    },
    {
      "midi": 43,
      "hit": false,
      "t": 88881.25,
      "d": 562.5,
      "v": 46
    },
    {
      "midi": 65,
      "hit": false,
      "t": 89256.25,
      "d": 312.5,
      "v": 52
    },
    {
      "midi": 55,
      "hit": false,
      "t": 89256.25,
      "d": 340.625,
      "v": 35
    },
    {
      "midi": 58,
      "hit": false,
      "t": 89256.25,
      "d": 340.625,
      "v": 50
    },
    {
      "midi": 62,
      "hit": false,
      "t": 89256.25,
      "d": 340.625,
      "v": 51
    },
    {
      "midi": 62,
      "hit": false,
      "t": 89628.125,
      "d": 159.375,
      "v": 54
    },
    {
      "midi": 65,
      "hit": false,
      "t": 89628.125,
      "d": 181.25,
      "v": 43
    },
    {
      "midi": 58,
      "hit": false,
      "t": 89631.25,
      "d": 159.375,
      "v": 49
    },
    {
      "midi": 67,
      "hit": false,
      "t": 89631.25,
      "d": 181.25,
      "v": 41
    },
    {
      "midi": 43,
      "hit": false,
      "t": 90006.25,
      "d": 350,
      "v": 52
    },
    {
      "midi": 67,
      "hit": false,
      "t": 90009.375,
      "d": 346.875,
      "v": 68
    },
    {
      "midi": 55,
      "hit": false,
      "t": 90375,
      "d": 356.25,
      "v": 58
    },
    {
      "midi": 58,
      "hit": false,
      "t": 90381.25,
      "d": 171.875,
      "v": 42
    },
    {
      "midi": 62,
      "hit": false,
      "t": 90381.25,
      "d": 356.25,
      "v": 45
    },
    {
      "midi": 65,
      "hit": false,
      "t": 90381.25,
      "d": 356.25,
      "v": 53
    },
    {
      "midi": 62,
      "hit": false,
      "t": 90750,
      "d": 181.25,
      "v": 30
    },
    {
      "midi": 67,
      "hit": false,
      "t": 90750,
      "d": 181.25,
      "v": 48
    },
    {
      "midi": 58,
      "hit": false,
      "t": 90756.25,
      "d": 162.5,
      "v": 46
    },
    {
      "midi": 65,
      "hit": false,
      "t": 90756.25,
      "d": 175,
      "v": 55
    },
    {
      "midi": 70,
      "hit": false,
      "t": 90940.625,
      "d": 184.375,
      "v": 46
    },
    {
      "midi": 74,
      "hit": false,
      "t": 91125,
      "d": 362.5,
      "v": 49
    },
    {
      "midi": 38,
      "hit": false,
      "t": 91131.25,
      "d": 562.5,
      "v": 46
    },
    {
      "midi": 65,
      "hit": false,
      "t": 91506.25,
      "d": 312.5,
      "v": 52
    },
    {
      "midi": 57,
      "hit": false,
      "t": 91506.25,
      "d": 340.625,
      "v": 35
    },
    {
      "midi": 60,
      "hit": false,
      "t": 91506.25,
      "d": 340.625,
      "v": 50
    },
    {
      "midi": 62,
      "hit": false,
      "t": 91506.25,
      "d": 340.625,
      "v": 51
    },
    {
      "midi": 62,
      "hit": false,
      "t": 91878.125,
      "d": 159.375,
      "v": 54
    },
    {
      "midi": 65,
      "hit": false,
      "t": 91878.125,
      "d": 181.25,
      "v": 43
    },
    {
      "midi": 60,
      "hit": false,
      "t": 91881.25,
      "d": 159.375,
      "v": 49
    },
    {
      "midi": 69,
      "hit": false,
      "t": 91881.25,
      "d": 181.25,
      "v": 41
    },
    {
      "midi": 38,
      "hit": false,
      "t": 92256.25,
      "d": 350,
      "v": 52
    },
    {
      "midi": 69,
      "hit": false,
      "t": 92259.375,
      "d": 346.875,
      "v": 68
    },
    {
      "midi": 57,
      "hit": false,
      "t": 92625,
      "d": 356.25,
      "v": 58
    },
    {
      "midi": 60,
      "hit": false,
      "t": 92631.25,
      "d": 171.875,
      "v": 42
    },
    {
      "midi": 62,
      "hit": false,
      "t": 92631.25,
      "d": 356.25,
      "v": 45
    },
    {
      "midi": 65,
      "hit": false,
      "t": 92631.25,
      "d": 356.25,
      "v": 53
    },
    {
      "midi": 62,
      "hit": false,
      "t": 93000,
      "d": 181.25,
      "v": 30
    },
    {
      "midi": 69,
      "hit": false,
      "t": 93000,
      "d": 181.25,
      "v": 48
    },
    {
      "midi": 60,
      "hit": false,
      "t": 93006.25,
      "d": 162.5,
      "v": 46
    },
    {
      "midi": 65,
      "hit": false,
      "t": 93006.25,
      "d": 175,
      "v": 55
    },
    {
      "midi": 72,
      "hit": false,
      "t": 93190.625,
      "d": 184.375,
      "v": 46
    },
    {
      "midi": 69,
      "hit": false,
      "t": 93375,
      "d": 362.5,
      "v": 48
    },
    {
      "midi": 45,
      "hit": false,
      "t": 93381.25,
      "d": 562.5,
      "v": 55
    },
    {
      "midi": 61,
      "hit": false,
      "t": 93756.25,
      "d": 312.5,
      "v": 51
    },
    {
      "midi": 52,
      "hit": false,
      "t": 93756.25,
      "d": 340.625,
      "v": 34
    },
    {
      "midi": 55,
      "hit": false,
      "t": 93756.25,
      "d": 340.625,
      "v": 49
    },
    {
      "midi": 57,
      "hit": false,
      "t": 93756.25,
      "d": 340.625,
      "v": 50
    },
    {
      "midi": 57,
      "hit": false,
      "t": 94128.125,
      "d": 115.625,
      "v": 53
    },
    {
      "midi": 61,
      "hit": false,
      "t": 94128.125,
      "d": 128.125,
      "v": 42
    },
    {
      "midi": 64,
      "hit": false,
      "t": 94131.25,
      "d": 121.875,
      "v": 40
    },
    {
      "midi": 55,
      "hit": false,
      "t": 94131.25,
      "d": 128.125,
      "v": 48
    },
    {
      "midi": 45,
      "hit": false,
      "t": 94506.25,
      "d": 465.625,
      "v": 55
    },
    {
      "midi": 67,
      "hit": false,
      "t": 94509.375,
      "d": 353.125,
      "v": 67
    },
    {
      "midi": 55,
      "hit": false,
      "t": 94881.25,
      "d": 171.875,
      "v": 41
    },
    {
      "midi": 57,
      "hit": false,
      "t": 94881.25,
      "d": 356.25,
      "v": 44
    },
    {
      "midi": 61,
      "hit": false,
      "t": 94881.25,
      "d": 356.25,
      "v": 52
    },
    {
      "midi": 52,
      "hit": false,
      "t": 95250,
      "d": 184.375,
      "v": 45
    },
    {
      "midi": 57,
      "hit": false,
      "t": 95256.25,
      "d": 137.5,
      "v": 48
    },
    {
      "midi": 55,
      "hit": false,
      "t": 95256.25,
      "d": 162.5,
      "v": 48
    },
    {
      "midi": 74,
      "hit": false,
      "t": 95625,
      "d": 362.5,
      "v": 48
    },
    {
      "midi": 38,
      "hit": false,
      "t": 95631.25,
      "d": 562.5,
      "v": 55
    },
    {
      "midi": 65,
      "hit": false,
      "t": 96006.25,
      "d": 312.5,
      "v": 51
    },
    {
      "midi": 57,
      "hit": false,
      "t": 96006.25,
      "d": 340.625,
      "v": 34
    },
    {
      "midi": 60,
      "hit": false,
      "t": 96006.25,
      "d": 340.625,
      "v": 49
    },
    {
      "midi": 62,
      "hit": false,
      "t": 96006.25,
      "d": 340.625,
      "v": 50
    },
    {
      "midi": 62,
      "hit": false,
      "t": 96378.125,
      "d": 115.625,
      "v": 53
    },
    {
      "midi": 65,
      "hit": false,
      "t": 96378.125,
      "d": 128.125,
      "v": 42
    },
    {
      "midi": 69,
      "hit": false,
      "t": 96381.25,
      "d": 121.875,
      "v": 40
    },
    {
      "midi": 60,
      "hit": false,
      "t": 96381.25,
      "d": 128.125,
      "v": 48
    },
    {
      "midi": 38,
      "hit": false,
      "t": 96756.25,
      "d": 465.625,
      "v": 55
    },
    {
      "midi": 72,
      "hit": false,
      "t": 96759.375,
      "d": 353.125,
      "v": 67
    },
    {
      "midi": 60,
      "hit": false,
      "t": 97131.25,
      "d": 171.875,
      "v": 41
    },
    {
      "midi": 62,
      "hit": false,
      "t": 97131.25,
      "d": 356.25,
      "v": 44
    },
    {
      "midi": 65,
      "hit": false,
      "t": 97131.25,
      "d": 356.25,
      "v": 52
    },
    {
      "midi": 57,
      "hit": false,
      "t": 97500,
      "d": 184.375,
      "v": 45
    },
    {
      "midi": 62,
      "hit": false,
      "t": 97506.25,
      "d": 137.5,
      "v": 48
    },
    {
      "midi": 60,
      "hit": false,
      "t": 97506.25,
      "d": 162.5,
      "v": 48
    },
    {
      "midi": 74,
      "hit": false,
      "t": 97875,
      "d": 362.5,
      "v": 48
    },
    {
      "midi": 43,
      "hit": false,
      "t": 97881.25,
      "d": 562.5,
      "v": 55
    },
    {
      "midi": 65,
      "hit": false,
      "t": 98256.25,
      "d": 312.5,
      "v": 51
    },
    {
      "midi": 55,
      "hit": false,
      "t": 98256.25,
      "d": 340.625,
      "v": 34
    },
    {
      "midi": 58,
      "hit": false,
      "t": 98256.25,
      "d": 340.625,
      "v": 49
    },
    {
      "midi": 62,
      "hit": false,
      "t": 98256.25,
      "d": 340.625,
      "v": 50
    },
    {
      "midi": 62,
      "hit": false,
      "t": 98628.125,
      "d": 115.625,
      "v": 53
    },
    {
      "midi": 65,
      "hit": false,
      "t": 98628.125,
      "d": 128.125,
      "v": 42
    },
    {
      "midi": 67,
      "hit": false,
      "t": 98631.25,
      "d": 121.875,
      "v": 40
    },
    {
      "midi": 58,
      "hit": false,
      "t": 98631.25,
      "d": 128.125,
      "v": 48
    },
    {
      "midi": 43,
      "hit": false,
      "t": 99006.25,
      "d": 465.625,
      "v": 55
    },
    {
      "midi": 70,
      "hit": false,
      "t": 99009.375,
      "d": 353.125,
      "v": 67
    },
    {
      "midi": 58,
      "hit": false,
      "t": 99381.25,
      "d": 171.875,
      "v": 41
    },
    {
      "midi": 62,
      "hit": false,
      "t": 99381.25,
      "d": 356.25,
      "v": 44
    },
    {
      "midi": 65,
      "hit": false,
      "t": 99381.25,
      "d": 356.25,
      "v": 52
    },
    {
      "midi": 55,
      "hit": false,
      "t": 99750,
      "d": 184.375,
      "v": 45
    },
    {
      "midi": 62,
      "hit": false,
      "t": 99756.25,
      "d": 137.5,
      "v": 48
    },
    {
      "midi": 58,
      "hit": false,
      "t": 99756.25,
      "d": 162.5,
      "v": 48
    },
    {
      "midi": 72,
      "hit": false,
      "t": 100125,
      "d": 340.625,
      "v": 67
    },
    {
      "midi": 38,
      "hit": false,
      "t": 100125,
      "d": 359.375,
      "v": 29
    },
    {
      "midi": 62,
      "hit": false,
      "t": 100500,
      "d": 62.5,
      "v": 29
    },
    {
      "midi": 60,
      "hit": false,
      "t": 100500,
      "d": 90.625,
      "v": 68
    },
    {
      "midi": 53,
      "hit": false,
      "t": 100500,
      "d": 118.75,
      "v": 53
    },
    {
      "midi": 57,
      "hit": false,
      "t": 100500,
      "d": 200,
      "v": 52
    },
    {
      "midi": 69,
      "hit": false,
      "t": 100700,
      "d": 153.125,
      "v": 43
    },
    {
      "midi": 60,
      "hit": false,
      "t": 100875,
      "d": 56.25,
      "v": 57
    },
    {
      "midi": 57,
      "hit": false,
      "t": 100875,
      "d": 62.5,
      "v": 44
    },
    {
      "midi": 62,
      "hit": false,
      "t": 100875,
      "d": 62.5,
      "v": 35
    },
    {
      "midi": 65,
      "hit": false,
      "t": 100875,
      "d": 62.5,
      "v": 35
    },
    {
      "midi": 72,
      "hit": false,
      "t": 100875,
      "d": 112.5,
      "v": 57
    },
    {
      "midi": 77,
      "hit": false,
      "t": 101062.5,
      "d": 103.125,
      "v": 80
    },
    {
      "midi": 38,
      "hit": false,
      "t": 101250,
      "d": 112.5,
      "v": 56
    },
    {
      "midi": 74,
      "hit": false,
      "t": 101250,
      "d": 771.875,
      "v": 64
    },
    {
      "midi": 62,
      "hit": false,
      "t": 101625,
      "d": 90.625,
      "v": 34
    },
    {
      "midi": 60,
      "hit": false,
      "t": 101625,
      "d": 93.75,
      "v": 63
    },
    {
      "midi": 57,
      "hit": false,
      "t": 101625,
      "d": 100,
      "v": 34
    },
    {
      "midi": 53,
      "hit": false,
      "t": 101625,
      "d": 131.25,
      "v": 30
    },
    {
      "midi": 69,
      "hit": false,
      "t": 101812.5,
      "d": 196.875,
      "v": 51
    },
    {
      "midi": 60,
      "hit": false,
      "t": 102000,
      "d": 75,
      "v": 54
    },
    {
      "midi": 62,
      "hit": false,
      "t": 102000,
      "d": 84.375,
      "v": 34
    },
    {
      "midi": 65,
      "hit": false,
      "t": 102000,
      "d": 103.125,
      "v": 38
    },
    {
      "midi": 72,
      "hit": false,
      "t": 102000,
      "d": 187.5,
      "v": 56
    },
    {
      "midi": 57,
      "hit": false,
      "t": 102009.375,
      "d": 78.125,
      "v": 33
    },
    {
      "midi": 69,
      "hit": false,
      "t": 102187.5,
      "d": 100,
      "v": 72
    },
    {
      "midi": 72,
      "hit": false,
      "t": 104625,
      "d": 340.625,
      "v": 67
    },
    {
      "midi": 38,
      "hit": false,
      "t": 104625,
      "d": 359.375,
      "v": 29
    },
    {
      "midi": 62,
      "hit": false,
      "t": 105000,
      "d": 62.5,
      "v": 29
    },
    {
      "midi": 60,
      "hit": false,
      "t": 105000,
      "d": 90.625,
      "v": 68
    },
    {
      "midi": 53,
      "hit": false,
      "t": 105000,
      "d": 118.75,
      "v": 53
    },
    {
      "midi": 57,
      "hit": false,
      "t": 105000,
      "d": 200,
      "v": 52
    },
    {
      "midi": 69,
      "hit": false,
      "t": 105200,
      "d": 153.125,
      "v": 43
    },
    {
      "midi": 60,
      "hit": false,
      "t": 105375,
      "d": 56.25,
      "v": 57
    },
    {
      "midi": 57,
      "hit": false,
      "t": 105375,
      "d": 62.5,
      "v": 44
    },
    {
      "midi": 62,
      "hit": false,
      "t": 105375,
      "d": 62.5,
      "v": 35
    },
    {
      "midi": 65,
      "hit": false,
      "t": 105375,
      "d": 62.5,
      "v": 35
    },
    {
      "midi": 72,
      "hit": false,
      "t": 105375,
      "d": 112.5,
      "v": 57
    },
    {
      "midi": 77,
      "hit": false,
      "t": 105562.5,
      "d": 103.125,
      "v": 80
    },
    {
      "midi": 38,
      "hit": false,
      "t": 105750,
      "d": 112.5,
      "v": 56
    },
    {
      "midi": 74,
      "hit": false,
      "t": 105750,
      "d": 771.875,
      "v": 64
    },
    {
      "midi": 62,
      "hit": false,
      "t": 106125,
      "d": 90.625,
      "v": 34
    },
    {
      "midi": 60,
      "hit": false,
      "t": 106125,
      "d": 93.75,
      "v": 63
    },
    {
      "midi": 57,
      "hit": false,
      "t": 106125,
      "d": 100,
      "v": 34
    },
    {
      "midi": 53,
      "hit": false,
      "t": 106125,
      "d": 131.25,
      "v": 30
    },
    {
      "midi": 69,
      "hit": false,
      "t": 106312.5,
      "d": 196.875,
      "v": 51
    },
    {
      "midi": 60,
      "hit": false,
      "t": 106500,
      "d": 75,
      "v": 54
    },
    {
      "midi": 62,
      "hit": false,
      "t": 106500,
      "d": 84.375,
      "v": 34
    },
    {
      "midi": 65,
      "hit": false,
      "t": 106500,
      "d": 103.125,
      "v": 38
    },
    {
      "midi": 72,
      "hit": false,
      "t": 106500,
      "d": 187.5,
      "v": 56
    },
    {
      "midi": 57,
      "hit": false,
      "t": 106509.375,
      "d": 78.125,
      "v": 33
    },
    {
      "midi": 69,
      "hit": false,
      "t": 106687.5,
      "d": 100,
      "v": 72
    },
    {
      "midi": 55,
      "hit": false,
      "t": 106871.875,
      "d": 746.875,
      "v": 83
    },
    {
      "midi": 77,
      "hit": false,
      "t": 106875,
      "d": 340.625,
      "v": 64
    },
    {
      "midi": 43,
      "hit": false,
      "t": 106875,
      "d": 359.375,
      "v": 31
    },
    {
      "midi": 58,
      "hit": false,
      "t": 107050,
      "d": 665.625,
      "v": 83
    },
    {
      "midi": 62,
      "hit": false,
      "t": 107243.75,
      "d": 471.875,
      "v": 83
    },
    {
      "midi": 62,
      "hit": false,
      "t": 107250,
      "d": 62.5,
      "v": 31
    },
    {
      "midi": 58,
      "hit": false,
      "t": 107250,
      "d": 90.625,
      "v": 54
    },
    {
      "midi": 53,
      "hit": false,
      "t": 107250,
      "d": 118.75,
      "v": 55
    },
    {
      "midi": 55,
      "hit": false,
      "t": 107250,
      "d": 200,
      "v": 54
    },
    {
      "midi": 67,
      "hit": false,
      "t": 107415.625,
      "d": 656.25,
      "v": 83
    },
    {
      "midi": 67,
      "hit": false,
      "t": 107450,
      "d": 153.125,
      "v": 45
    },
    {
      "midi": 70,
      "hit": false,
      "t": 107609.375,
      "d": 456.25,
      "v": 83
    },
    {
      "midi": 58,
      "hit": false,
      "t": 107625,
      "d": 56.25,
      "v": 54
    },
    {
      "midi": 55,
      "hit": false,
      "t": 107625,
      "d": 62.5,
      "v": 46
    },
    {
      "midi": 62,
      "hit": false,
      "t": 107625,
      "d": 62.5,
      "v": 37
    },
    {
      "midi": 65,
      "hit": false,
      "t": 107625,
      "d": 62.5,
      "v": 37
    },
    {
      "midi": 70,
      "hit": false,
      "t": 107625,
      "d": 112.5,
      "v": 59
    },
    {
      "midi": 74,
      "hit": false,
      "t": 107809.375,
      "d": 221.875,
      "v": 83
    },
    {
      "midi": 77,
      "hit": false,
      "t": 107812.5,
      "d": 103.125,
      "v": 67
    },
    {
      "midi": 76,
      "hit": false,
      "t": 108000,
      "d": 362.5,
      "v": 45
    },
    {
      "midi": 48,
      "hit": false,
      "t": 108000,
      "d": 728.125,
      "v": 83
    },
    {
      "midi": 36,
      "hit": false,
      "t": 108006.25,
      "d": 562.5,
      "v": 52
    },
    {
      "midi": 52,
      "hit": false,
      "t": 108209.375,
      "d": 559.375,
      "v": 83
    },
    {
      "midi": 64,
      "hit": false,
      "t": 108381.25,
      "d": 312.5,
      "v": 48
    },
    {
      "midi": 55,
      "hit": false,
      "t": 108381.25,
      "d": 340.625,
      "v": 31
    },
    {
      "midi": 58,
      "hit": false,
      "t": 108381.25,
      "d": 340.625,
      "v": 46
    },
    {
      "midi": 60,
      "hit": false,
      "t": 108381.25,
      "d": 340.625,
      "v": 47
    },
    {
      "midi": 55,
      "hit": false,
      "t": 108381.25,
      "d": 731.25,
      "v": 83
    },
    {
      "midi": 60,
      "hit": false,
      "t": 108565.625,
      "d": 587.5,
      "v": 83
    },
    {
      "midi": 64,
      "hit": false,
      "t": 108746.875,
      "d": 475,
      "v": 83
    },
    {
      "midi": 60,
      "hit": false,
      "t": 108753.125,
      "d": 153.125,
      "v": 50
    },
    {
      "midi": 64,
      "hit": false,
      "t": 108753.125,
      "d": 153.125,
      "v": 39
    },
    {
      "midi": 67,
      "hit": false,
      "t": 108756.25,
      "d": 121.875,
      "v": 37
    },
    {
      "midi": 58,
      "hit": false,
      "t": 108756.25,
      "d": 137.5,
      "v": 45
    },
    {
      "midi": 67,
      "hit": false,
      "t": 108946.875,
      "d": 534.375,
      "v": 83
    },
    {
      "midi": 53,
      "hit": false,
      "t": 109103.125,
      "d": 1812.5,
      "v": 83
    },
    {
      "midi": 77,
      "hit": false,
      "t": 109125,
      "d": 362.5,
      "v": 48
    },
    {
      "midi": 41,
      "hit": false,
      "t": 109131.25,
      "d": 562.5,
      "v": 55
    },
    {
      "midi": 57,
      "hit": false,
      "t": 109287.5,
      "d": 1656.25,
      "v": 83
    },
    {
      "midi": 60,
      "hit": false,
      "t": 109478.125,
      "d": 1865.625,
      "v": 83
    },
    {
      "midi": 69,
      "hit": false,
      "t": 109506.25,
      "d": 312.5,
      "v": 51
    },
    {
      "midi": 57,
      "hit": false,
      "t": 109506.25,
      "d": 340.625,
      "v": 34
    },
    {
      "midi": 60,
      "hit": false,
      "t": 109506.25,
      "d": 340.625,
      "v": 49
    },
    {
      "midi": 65,
      "hit": false,
      "t": 109506.25,
      "d": 340.625,
      "v": 50
    },
    {
      "midi": 65,
      "hit": false,
      "t": 109671.875,
      "d": 1703.125,
      "v": 83
    },
    {
      "midi": 69,
      "hit": false,
      "t": 109853.125,
      "d": 1593.75,
      "v": 83
    },
    {
      "midi": 65,
      "hit": false,
      "t": 109878.125,
      "d": 115.625,
      "v": 53
    },
    {
      "midi": 69,
      "hit": false,
      "t": 109878.125,
      "d": 125,
      "v": 42
    },
    {
      "midi": 60,
      "hit": false,
      "t": 109881.25,
      "d": 128.125,
      "v": 48
    },
    {
      "midi": 72,
      "hit": false,
      "t": 110053.125,
      "d": 1406.25,
      "v": 83
    },
    {
      "midi": 77,
      "hit": false,
      "t": 110240.625,
      "d": 1684.375,
      "v": 83
    },
    {
      "midi": 41,
      "hit": false,
      "t": 110256.25,
      "d": 465.625,
      "v": 55
    },
    {
      "midi": 72,
      "hit": false,
      "t": 110259.375,
      "d": 353.125,
      "v": 67
    },
    {
      "midi": 60,
      "hit": false,
      "t": 110631.25,
      "d": 171.875,
      "v": 41
    },
    {
      "midi": 65,
      "hit": false,
      "t": 110631.25,
      "d": 356.25,
      "v": 44
    },
    {
      "midi": 69,
      "hit": false,
      "t": 110631.25,
      "d": 356.25,
      "v": 52
    },
    {
      "midi": 57,
      "hit": false,
      "t": 111000,
      "d": 184.375,
      "v": 45
    },
    {
      "midi": 65,
      "hit": false,
      "t": 111006.25,
      "d": 137.5,
      "v": 48
    },
    {
      "midi": 60,
      "hit": false,
      "t": 111006.25,
      "d": 162.5,
      "v": 48
    },
    {
      "midi": 70,
      "hit": false,
      "t": 111375,
      "d": 362.5,
      "v": 46
    },
    {
      "midi": 55,
      "hit": false,
      "t": 111375,
      "d": 787.5,
      "v": 83
    },
    {
      "midi": 43,
      "hit": false,
      "t": 111381.25,
      "d": 562.5,
      "v": 53
    },
    {
      "midi": 58,
      "hit": false,
      "t": 111571.875,
      "d": 615.625,
      "v": 83
    },
    {
      "midi": 58,
      "hit": false,
      "t": 111756.25,
      "d": 303.125,
      "v": 47
    },
    {
      "midi": 55,
      "hit": false,
      "t": 111756.25,
      "d": 312.5,
      "v": 32
    },
    {
      "midi": 65,
      "hit": false,
      "t": 111756.25,
      "d": 312.5,
      "v": 49
    },
    {
      "midi": 62,
      "hit": false,
      "t": 111756.25,
      "d": 340.625,
      "v": 48
    },
    {
      "midi": 62,
      "hit": false,
      "t": 111759.375,
      "d": 765.625,
      "v": 83
    },
    {
      "midi": 67,
      "hit": false,
      "t": 111931.25,
      "d": 568.75,
      "v": 83
    },
    {
      "midi": 70,
      "hit": false,
      "t": 112112.5,
      "d": 387.5,
      "v": 83
    },
    {
      "midi": 62,
      "hit": false,
      "t": 112128.125,
      "d": 212.5,
      "v": 51
    },
    {
      "midi": 65,
      "hit": false,
      "t": 112128.125,
      "d": 237.5,
      "v": 40
    },
    {
      "midi": 58,
      "hit": false,
      "t": 112131.25,
      "d": 212.5,
      "v": 46
    },
    {
      "midi": 67,
      "hit": false,
      "t": 112131.25,
      "d": 243.75,
      "v": 38
    },
    {
      "midi": 74,
      "hit": false,
      "t": 112290.625,
      "d": 275,
      "v": 83
    },
    {
      "midi": 57,
      "hit": false,
      "t": 112496.875,
      "d": 775,
      "v": 83
    },
    {
      "midi": 69,
      "hit": false,
      "t": 112500,
      "d": 362.5,
      "v": 49
    },
    {
      "midi": 45,
      "hit": false,
      "t": 112506.25,
      "d": 562.5,
      "v": 46
    },
    {
      "midi": 61,
      "hit": false,
      "t": 112709.375,
      "d": 593.75,
      "v": 83
    },
    {
      "midi": 57,
      "hit": false,
      "t": 112881.25,
      "d": 290.625,
      "v": 51
    },
    {
      "midi": 55,
      "hit": false,
      "t": 112881.25,
      "d": 303.125,
      "v": 50
    },
    {
      "midi": 52,
      "hit": false,
      "t": 112881.25,
      "d": 312.5,
      "v": 35
    },
    {
      "midi": 61,
      "hit": false,
      "t": 112881.25,
      "d": 312.5,
      "v": 52
    },
    {
      "midi": 64,
      "hit": false,
      "t": 112906.25,
      "d": 734.375,
      "v": 83
    },
    {
      "midi": 69,
      "hit": false,
      "t": 113050,
      "d": 590.625,
      "v": 83
    },
    {
      "midi": 73,
      "hit": false,
      "t": 113237.5,
      "d": 421.875,
      "v": 83
    },
    {
      "midi": 57,
      "hit": false,
      "t": 113253.125,
      "d": 159.375,
      "v": 54
    },
    {
      "midi": 61,
      "hit": false,
      "t": 113253.125,
      "d": 159.375,
      "v": 43
    },
    {
      "midi": 64,
      "hit": false,
      "t": 113256.25,
      "d": 181.25,
      "v": 41
    },
    {
      "midi": 55,
      "hit": false,
      "t": 113256.25,
      "d": 296.875,
      "v": 49
    },
    {
      "midi": 76,
      "hit": false,
      "t": 113437.5,
      "d": 306.25,
      "v": 83
    },
    {
      "midi": 72,
      "hit": false,
      "t": 113625,
      "d": 340.625,
      "v": 67
    },
    {
      "midi": 38,
      "hit": false,
      "t": 113625,
      "d": 359.375,
      "v": 29
    },
    {
      "midi": 62,
      "hit": false,
      "t": 113628.125,
      "d": 1646.875,
      "v": 83
    },
    {
      "midi": 65,
      "hit": false,
      "t": 113812.5,
      "d": 1465.625,
      "v": 83
    },
    {
      "midi": 62,
      "hit": false,
      "t": 114000,
      "d": 62.5,
      "v": 29
    },
    {
      "midi": 60,
      "hit": false,
      "t": 114000,
      "d": 90.625,
      "v": 68
    },
    {
      "midi": 53,
      "hit": false,
      "t": 114000,
      "d": 118.75,
      "v": 53
    },
    {
      "midi": 57,
      "hit": false,
      "t": 114000,
      "d": 200,
      "v": 52
    },
    {
      "midi": 69,
      "hit": false,
      "t": 114000,
      "d": 1303.125,
      "v": 83
    },
    {
      "midi": 74,
      "hit": false,
      "t": 114184.375,
      "d": 1753.125,
      "v": 83
    },
    {
      "midi": 69,
      "hit": false,
      "t": 114200,
      "d": 153.125,
      "v": 43
    },
    {
      "midi": 60,
      "hit": false,
      "t": 114375,
      "d": 56.25,
      "v": 57
    },
    {
      "midi": 57,
      "hit": false,
      "t": 114375,
      "d": 62.5,
      "v": 44
    },
    {
      "midi": 62,
      "hit": false,
      "t": 114375,
      "d": 62.5,
      "v": 35
    },
    {
      "midi": 65,
      "hit": false,
      "t": 114375,
      "d": 62.5,
      "v": 35
    },
    {
      "midi": 72,
      "hit": false,
      "t": 114375,
      "d": 112.5,
      "v": 57
    },
    {
      "midi": 77,
      "hit": false,
      "t": 114375,
      "d": 1540.625,
      "v": 83
    },
    {
      "midi": 77,
      "hit": false,
      "t": 114562.5,
      "d": 103.125,
      "v": 80
    },
    {
      "midi": 81,
      "hit": false,
      "t": 114565.625,
      "d": 1321.875,
      "v": 83
    },
    {
      "midi": 38,
      "hit": false,
      "t": 114750,
      "d": 112.5,
      "v": 56
    },
    {
      "midi": 74,
      "hit": false,
      "t": 114750,
      "d": 771.875,
      "v": 64
    },
    {
      "midi": 86,
      "hit": false,
      "t": 114790.625,
      "d": 1025,
      "v": 83
    },
    {
      "midi": 62,
      "hit": false,
      "t": 115125,
      "d": 90.625,
      "v": 34
    },
    {
      "midi": 60,
      "hit": false,
      "t": 115125,
      "d": 93.75,
      "v": 63
    },
    {
      "midi": 57,
      "hit": false,
      "t": 115125,
      "d": 100,
      "v": 34
    },
    {
      "midi": 53,
      "hit": false,
      "t": 115125,
      "d": 131.25,
      "v": 30
    },
    {
      "midi": 69,
      "hit": false,
      "t": 115312.5,
      "d": 196.875,
      "v": 51
    },
    {
      "midi": 60,
      "hit": false,
      "t": 115500,
      "d": 75,
      "v": 54
    },
    {
      "midi": 62,
      "hit": false,
      "t": 115500,
      "d": 84.375,
      "v": 34
    },
    {
      "midi": 65,
      "hit": false,
      "t": 115500,
      "d": 103.125,
      "v": 38
    },
    {
      "midi": 72,
      "hit": false,
      "t": 115500,
      "d": 187.5,
      "v": 56
    },
    {
      "midi": 57,
      "hit": false,
      "t": 115509.375,
      "d": 78.125,
      "v": 33
    },
    {
      "midi": 69,
      "hit": false,
      "t": 115687.5,
      "d": 100,
      "v": 72
    },
    {
      "midi": 79,
      "hit": false,
      "t": 115875,
      "d": 362.5,
      "v": 49
    },
    {
      "midi": 55,
      "hit": false,
      "t": 115875,
      "d": 806.25,
      "v": 83
    },
    {
      "midi": 43,
      "hit": false,
      "t": 115881.25,
      "d": 562.5,
      "v": 46
    },
    {
      "midi": 67,
      "hit": false,
      "t": 116256.25,
      "d": 290.625,
      "v": 51
    },
    {
      "midi": 62,
      "hit": false,
      "t": 116256.25,
      "d": 303.125,
      "v": 50
    },
    {
      "midi": 58,
      "hit": false,
      "t": 116256.25,
      "d": 312.5,
      "v": 35
    },
    {
      "midi": 67,
      "hit": false,
      "t": 116256.25,
      "d": 709.375,
      "v": 83
    },
    {
      "midi": 67,
      "hit": false,
      "t": 116628.125,
      "d": 159.375,
      "v": 54
    },
    {
      "midi": 70,
      "hit": false,
      "t": 116631.25,
      "d": 181.25,
      "v": 41
    },
    {
      "midi": 62,
      "hit": false,
      "t": 116631.25,
      "d": 296.875,
      "v": 49
    },
    {
      "midi": 70,
      "hit": false,
      "t": 116634.375,
      "d": 406.25,
      "v": 83
    },
    {
      "midi": 57,
      "hit": false,
      "t": 116987.5,
      "d": 684.375,
      "v": 83
    },
    {
      "midi": 73,
      "hit": false,
      "t": 117000,
      "d": 362.5,
      "v": 49
    },
    {
      "midi": 45,
      "hit": false,
      "t": 117006.25,
      "d": 562.5,
      "v": 46
    },
    {
      "midi": 69,
      "hit": false,
      "t": 117350,
      "d": 831.25,
      "v": 83
    },
    {
      "midi": 52,
      "hit": false,
      "t": 117381.25,
      "d": 296.875,
      "v": 35
    },
    {
      "midi": 61,
      "hit": false,
      "t": 117381.25,
      "d": 312.5,
      "v": 52
    },
    {
      "midi": 55,
      "hit": false,
      "t": 117381.25,
      "d": 340.625,
      "v": 50
    },
    {
      "midi": 57,
      "hit": false,
      "t": 117381.25,
      "d": 340.625,
      "v": 51
    },
    {
      "midi": 57,
      "hit": false,
      "t": 117753.125,
      "d": 175,
      "v": 54
    },
    {
      "midi": 61,
      "hit": false,
      "t": 117753.125,
      "d": 175,
      "v": 43
    },
    {
      "midi": 52,
      "hit": false,
      "t": 117756.25,
      "d": 171.875,
      "v": 41
    },
    {
      "midi": 55,
      "hit": false,
      "t": 117756.25,
      "d": 171.875,
      "v": 49
    },
    {
      "midi": 73,
      "hit": false,
      "t": 117759.375,
      "d": 412.5,
      "v": 83
    },
    {
      "midi": 67,
      "hit": false,
      "t": 117937.5,
      "d": 184.375,
      "v": 49
    },
    {
      "midi": 72,
      "hit": false,
      "t": 118125,
      "d": 362.5,
      "v": 47
    },
    {
      "midi": 38,
      "hit": false,
      "t": 118131.25,
      "d": 562.5,
      "v": 54
    },
    {
      "midi": 50,
      "hit": false,
      "t": 118162.5,
      "d": 1668.75,
      "v": 83
    },
    {
      "midi": 65,
      "hit": false,
      "t": 118506.25,
      "d": 312.5,
      "v": 50
    },
    {
      "midi": 57,
      "hit": false,
      "t": 118506.25,
      "d": 340.625,
      "v": 33
    },
    {
      "midi": 60,
      "hit": false,
      "t": 118506.25,
      "d": 340.625,
      "v": 48
    },
    {
      "midi": 62,
      "hit": false,
      "t": 118506.25,
      "d": 340.625,
      "v": 49
    },
    {
      "midi": 53,
      "hit": false,
      "t": 118525,
      "d": 1393.75,
      "v": 83
    },
    {
      "midi": 57,
      "hit": false,
      "t": 118875,
      "d": 1400,
      "v": 83
    },
    {
      "midi": 62,
      "hit": false,
      "t": 118878.125,
      "d": 115.625,
      "v": 52
    },
    {
      "midi": 65,
      "hit": false,
      "t": 118878.125,
      "d": 128.125,
      "v": 41
    },
    {
      "midi": 69,
      "hit": false,
      "t": 118881.25,
      "d": 121.875,
      "v": 39
    },
    {
      "midi": 60,
      "hit": false,
      "t": 118881.25,
      "d": 128.125,
      "v": 47
    },
    {
      "midi": 62,
      "hit": false,
      "t": 119253.125,
      "d": 1150,
      "v": 83
    },
    {
      "midi": 38,
      "hit": false,
      "t": 119256.25,
      "d": 465.625,
      "v": 54
    },
    {
      "midi": 69,
      "hit": false,
      "t": 119259.375,
      "d": 353.125,
      "v": 66
    },
    {
      "midi": 60,
      "hit": false,
      "t": 119631.25,
      "d": 171.875,
      "v": 40
    },
    {
      "midi": 65,
      "hit": false,
      "t": 119631.25,
      "d": 196.875,
      "v": 51
    },
    {
      "midi": 62,
      "hit": false,
      "t": 119631.25,
      "d": 209.375,
      "v": 43
    },
    {
      "midi": 65,
      "hit": false,
      "t": 119631.25,
      "d": 775,
      "v": 83
    },
    {
      "midi": 60,
      "hit": false,
      "t": 120006.25,
      "d": 162.5,
      "v": 50
    },
    {
      "midi": 69,
      "hit": false,
      "t": 120018.75,
      "d": 600,
      "v": 83
    },
    {
      "midi": 57,
      "hit": false,
      "t": 120193.75,
      "d": 162.5,
      "v": 60
    },
    {
      "midi": 79,
      "hit": false,
      "t": 120375,
      "d": 340.625,
      "v": 64
    },
    {
      "midi": 43,
      "hit": false,
      "t": 120375,
      "d": 359.375,
      "v": 31
    },
    {
      "midi": 55,
      "hit": false,
      "t": 120390.625,
      "d": 1968.75,
      "v": 83
    },
    {
      "midi": 58,
      "hit": false,
      "t": 120693.75,
      "d": 612.5,
      "v": 83
    },
    {
      "midi": 67,
      "hit": false,
      "t": 120750,
      "d": 62.5,
      "v": 31
    },
    {
      "midi": 62,
      "hit": false,
      "t": 120750,
      "d": 90.625,
      "v": 51
    },
    {
      "midi": 55,
      "hit": false,
      "t": 120750,
      "d": 118.75,
      "v": 45
    },
    {
      "midi": 58,
      "hit": false,
      "t": 120750,
      "d": 200,
      "v": 41
    },
    {
      "midi": 62,
      "hit": false,
      "t": 120903.125,
      "d": 618.75,
      "v": 83
    },
    {
      "midi": 70,
      "hit": false,
      "t": 120950,
      "d": 153.125,
      "v": 45
    },
    {
      "midi": 62,
      "hit": false,
      "t": 121125,
      "d": 56.25,
      "v": 59
    },
    {
      "midi": 58,
      "hit": false,
      "t": 121125,
      "d": 62.5,
      "v": 46
    },
    {
      "midi": 67,
      "hit": false,
      "t": 121125,
      "d": 62.5,
      "v": 37
    },
    {
      "midi": 74,
      "hit": false,
      "t": 121125,
      "d": 112.5,
      "v": 59
    },
    {
      "midi": 67,
      "hit": false,
      "t": 121256.25,
      "d": 309.375,
      "v": 83
    },
    {
      "midi": 79,
      "hit": false,
      "t": 121312.5,
      "d": 103.125,
      "v": 82
    },
    {
      "midi": 72,
      "hit": false,
      "t": 121500,
      "d": 362.5,
      "v": 49
    },
    {
      "midi": 36,
      "hit": false,
      "t": 121506.25,
      "d": 562.5,
      "v": 46
    },
    {
      "midi": 60,
      "hit": false,
      "t": 121509.375,
      "d": 1171.875,
      "v": 83
    },
    {
      "midi": 60,
      "hit": false,
      "t": 121881.25,
      "d": 290.625,
      "v": 51
    },
    {
      "midi": 58,
      "hit": false,
      "t": 121881.25,
      "d": 303.125,
      "v": 50
    },
    {
      "midi": 55,
      "hit": false,
      "t": 121881.25,
      "d": 312.5,
      "v": 35
    },
    {
      "midi": 64,
      "hit": false,
      "t": 121881.25,
      "d": 312.5,
      "v": 52
    },
    {
      "midi": 64,
      "hit": false,
      "t": 121893.75,
      "d": 843.75,
      "v": 83
    },
    {
      "midi": 67,
      "hit": false,
      "t": 122250,
      "d": 471.875,
      "v": 83
    },
    {
      "midi": 60,
      "hit": false,
      "t": 122253.125,
      "d": 159.375,
      "v": 54
    },
    {
      "midi": 64,
      "hit": false,
      "t": 122253.125,
      "d": 159.375,
      "v": 43
    },
    {
      "midi": 67,
      "hit": false,
      "t": 122256.25,
      "d": 181.25,
      "v": 41
    },
    {
      "midi": 58,
      "hit": false,
      "t": 122256.25,
      "d": 296.875,
      "v": 49
    },
    {
      "midi": 77,
      "hit": false,
      "t": 122625,
      "d": 340.625,
      "v": 64
    },
    {
      "midi": 41,
      "hit": false,
      "t": 122625,
      "d": 359.375,
      "v": 31
    },
    {
      "midi": 53,
      "hit": false,
      "t": 122653.125,
      "d": 1909.375,
      "v": 83
    },
    {
      "midi": 57,
      "hit": false,
      "t": 122987.5,
      "d": 1615.625,
      "v": 83
    },
    {
      "midi": 65,
      "hit": false,
      "t": 123000,
      "d": 62.5,
      "v": 31
    },
    {
      "midi": 60,
      "hit": false,
      "t": 123000,
      "d": 90.625,
      "v": 51
    },
    {
      "midi": 53,
      "hit": false,
      "t": 123000,
      "d": 118.75,
      "v": 45
    },
    {
      "midi": 57,
      "hit": false,
      "t": 123000,
      "d": 200,
      "v": 41
    },
    {
      "midi": 69,
      "hit": false,
      "t": 123200,
      "d": 153.125,
      "v": 45
    },
    {
      "midi": 60,
      "hit": false,
      "t": 123340.625,
      "d": 1484.375,
      "v": 83
    },
    {
      "midi": 60,
      "hit": false,
      "t": 123375,
      "d": 56.25,
      "v": 59
    },
    {
      "midi": 57,
      "hit": false,
      "t": 123375,
      "d": 62.5,
      "v": 46
    },
    {
      "midi": 65,
      "hit": false,
      "t": 123375,
      "d": 62.5,
      "v": 37
    },
    {
      "midi": 72,
      "hit": false,
      "t": 123375,
      "d": 112.5,
      "v": 59
    },
    {
      "midi": 65,
      "hit": false,
      "t": 123550,
      "d": 1296.875,
      "v": 83
    },
    {
      "midi": 77,
      "hit": false,
      "t": 123562.5,
      "d": 103.125,
      "v": 82
    },
    {
      "midi": 69,
      "hit": false,
      "t": 123725,
      "d": 153.125,
      "v": 83
    },
    {
      "midi": 72,
      "hit": false,
      "t": 123743.75,
      "d": 140.625,
      "v": 83
    },
    {
      "midi": 77,
      "hit": false,
      "t": 123750,
      "d": 340.625,
      "v": 64
    },
    {
      "midi": 38,
      "hit": false,
      "t": 123750,
      "d": 359.375,
      "v": 31
    },
    {
      "midi": 77,
      "hit": false,
      "t": 123750,
      "d": 1393.75,
      "v": 83
    },
    {
      "midi": 72,
      "hit": false,
      "t": 124121.875,
      "d": 775,
      "v": 83
    },
    {
      "midi": 65,
      "hit": false,
      "t": 124125,
      "d": 62.5,
      "v": 31
    },
    {
      "midi": 62,
      "hit": false,
      "t": 124125,
      "d": 90.625,
      "v": 51
    },
    {
      "midi": 53,
      "hit": false,
      "t": 124125,
      "d": 118.75,
      "v": 45
    },
    {
      "midi": 57,
      "hit": false,
      "t": 124125,
      "d": 200,
      "v": 41
    },
    {
      "midi": 69,
      "hit": false,
      "t": 124325,
      "d": 153.125,
      "v": 45
    },
    {
      "midi": 69,
      "hit": false,
      "t": 124487.5,
      "d": 371.875,
      "v": 83
    },
    {
      "midi": 62,
      "hit": false,
      "t": 124500,
      "d": 56.25,
      "v": 59
    },
    {
      "midi": 57,
      "hit": false,
      "t": 124500,
      "d": 62.5,
      "v": 46
    },
    {
      "midi": 65,
      "hit": false,
      "t": 124500,
      "d": 62.5,
      "v": 37
    },
    {
      "midi": 74,
      "hit": false,
      "t": 124500,
      "d": 112.5,
      "v": 59
    },
    {
      "midi": 77,
      "hit": false,
      "t": 124687.5,
      "d": 103.125,
      "v": 82
    },
    {
      "midi": 74,
      "hit": false,
      "t": 124875,
      "d": 362.5,
      "v": 49
    },
    {
      "midi": 43,
      "hit": false,
      "t": 124881.25,
      "d": 562.5,
      "v": 46
    },
    {
      "midi": 55,
      "hit": false,
      "t": 124890.625,
      "d": 962.5,
      "v": 83
    },
    {
      "midi": 62,
      "hit": false,
      "t": 125256.25,
      "d": 290.625,
      "v": 51
    },
    {
      "midi": 58,
      "hit": false,
      "t": 125256.25,
      "d": 303.125,
      "v": 50
    },
    {
      "midi": 55,
      "hit": false,
      "t": 125256.25,
      "d": 312.5,
      "v": 35
    },
    {
      "midi": 65,
      "hit": false,
      "t": 125256.25,
      "d": 312.5,
      "v": 52
    },
    {
      "midi": 70,
      "hit": false,
      "t": 125256.25,
      "d": 1037.5,
      "v": 83
    },
    {
      "midi": 67,
      "hit": false,
      "t": 125268.75,
      "d": 553.125,
      "v": 83
    },
    {
      "midi": 74,
      "hit": false,
      "t": 125271.875,
      "d": 709.375,
      "v": 83
    },
    {
      "midi": 58,
      "hit": false,
      "t": 125625,
      "d": 1246.875,
      "v": 83
    },
    {
      "midi": 62,
      "hit": false,
      "t": 125628.125,
      "d": 159.375,
      "v": 54
    },
    {
      "midi": 65,
      "hit": false,
      "t": 125628.125,
      "d": 159.375,
      "v": 43
    },
    {
      "midi": 67,
      "hit": false,
      "t": 125631.25,
      "d": 181.25,
      "v": 41
    },
    {
      "midi": 58,
      "hit": false,
      "t": 125631.25,
      "d": 296.875,
      "v": 49
    },
    {
      "midi": 76,
      "hit": false,
      "t": 126000,
      "d": 340.625,
      "v": 64
    },
    {
      "midi": 40,
      "hit": false,
      "t": 126000,
      "d": 359.375,
      "v": 31
    },
    {
      "midi": 64,
      "hit": false,
      "t": 126375,
      "d": 62.5,
      "v": 31
    },
    {
      "midi": 59,
      "hit": false,
      "t": 126375,
      "d": 90.625,
      "v": 54
    },
    {
      "midi": 52,
      "hit": false,
      "t": 126375,
      "d": 118.75,
      "v": 55
    },
    {
      "midi": 56,
      "hit": false,
      "t": 126375,
      "d": 200,
      "v": 54
    },
    {
      "midi": 52,
      "hit": false,
      "t": 126400,
      "d": 465.625,
      "v": 83
    },
    {
      "midi": 68,
      "hit": false,
      "t": 126575,
      "d": 153.125,
      "v": 45
    },
    {
      "midi": 59,
      "hit": false,
      "t": 126750,
      "d": 56.25,
      "v": 54
    },
    {
      "midi": 56,
      "hit": false,
      "t": 126750,
      "d": 62.5,
      "v": 46
    },
    {
      "midi": 64,
      "hit": false,
      "t": 126750,
      "d": 62.5,
      "v": 37
    },
    {
      "midi": 71,
      "hit": false,
      "t": 126750,
      "d": 112.5,
      "v": 59
    },
    {
      "midi": 68,
      "hit": false,
      "t": 126765.625,
      "d": 696.875,
      "v": 83
    },
    {
      "midi": 64,
      "hit": false,
      "t": 126771.875,
      "d": 525,
      "v": 83
    },
    {
      "midi": 71,
      "hit": false,
      "t": 126781.25,
      "d": 718.75,
      "v": 83
    },
    {
      "midi": 76,
      "hit": false,
      "t": 126937.5,
      "d": 103.125,
      "v": 67
    },
    {
      "midi": 69,
      "hit": false,
      "t": 127125,
      "d": 362.5,
      "v": 48
    },
    {
      "midi": 57,
      "hit": false,
      "t": 127125,
      "d": 1862.5,
      "v": 83
    },
    {
      "midi": 45,
      "hit": false,
      "t": 127131.25,
      "d": 562.5,
      "v": 55
    },
    {
      "midi": 61,
      "hit": false,
      "t": 127506.25,
      "d": 312.5,
      "v": 51
    },
    {
      "midi": 52,
      "hit": false,
      "t": 127506.25,
      "d": 340.625,
      "v": 34
    },
    {
      "midi": 55,
      "hit": false,
      "t": 127506.25,
      "d": 340.625,
      "v": 49
    },
    {
      "midi": 57,
      "hit": false,
      "t": 127506.25,
      "d": 340.625,
      "v": 50
    },
    {
      "midi": 61,
      "hit": false,
      "t": 127525,
      "d": 1709.375,
      "v": 83
    },
    {
      "midi": 57,
      "hit": false,
      "t": 127878.125,
      "d": 115.625,
      "v": 53
    },
    {
      "midi": 61,
      "hit": false,
      "t": 127878.125,
      "d": 128.125,
      "v": 42
    },
    {
      "midi": 64,
      "hit": false,
      "t": 127878.125,
      "d": 1359.375,
      "v": 83
    },
    {
      "midi": 64,
      "hit": false,
      "t": 127881.25,
      "d": 121.875,
      "v": 40
    },
    {
      "midi": 55,
      "hit": false,
      "t": 127881.25,
      "d": 128.125,
      "v": 48
    },
    {
      "midi": 69,
      "hit": false,
      "t": 128187.5,
      "d": 1181.25,
      "v": 83
    },
    {
      "midi": 81,
      "hit": false,
      "t": 128228.125,
      "d": 1071.875,
      "v": 83
    },
    {
      "midi": 45,
      "hit": false,
      "t": 128256.25,
      "d": 465.625,
      "v": 55
    },
    {
      "midi": 67,
      "hit": false,
      "t": 128259.375,
      "d": 353.125,
      "v": 67
    },
    {
      "midi": 55,
      "hit": false,
      "t": 128631.25,
      "d": 171.875,
      "v": 41
    },
    {
      "midi": 57,
      "hit": false,
      "t": 128631.25,
      "d": 356.25,
      "v": 44
    },
    {
      "midi": 61,
      "hit": false,
      "t": 128631.25,
      "d": 356.25,
      "v": 52
    },
    {
      "midi": 52,
      "hit": false,
      "t": 129000,
      "d": 184.375,
      "v": 45
    },
    {
      "midi": 57,
      "hit": false,
      "t": 129006.25,
      "d": 137.5,
      "v": 48
    },
    {
      "midi": 55,
      "hit": false,
      "t": 129006.25,
      "d": 162.5,
      "v": 48
    },
    {
      "midi": 70,
      "hit": false,
      "t": 129375,
      "d": 362.5,
      "v": 47
    },
    {
      "midi": 43,
      "hit": false,
      "t": 129381.25,
      "d": 562.5,
      "v": 54
    },
    {
      "midi": 55,
      "hit": false,
      "t": 129418.75,
      "d": 1678.125,
      "v": 83
    },
    {
      "midi": 65,
      "hit": false,
      "t": 129756.25,
      "d": 312.5,
      "v": 50
    },
    {
      "midi": 55,
      "hit": false,
      "t": 129756.25,
      "d": 340.625,
      "v": 33
    },
    {
      "midi": 58,
      "hit": false,
      "t": 129756.25,
      "d": 340.625,
      "v": 48
    },
    {
      "midi": 62,
      "hit": false,
      "t": 129756.25,
      "d": 340.625,
      "v": 49
    },
    {
      "midi": 67,
      "hit": false,
      "t": 129771.875,
      "d": 1890.625,
      "v": 83
    },
    {
      "midi": 62,
      "hit": false,
      "t": 130128.125,
      "d": 115.625,
      "v": 52
    },
    {
      "midi": 65,
      "hit": false,
      "t": 130128.125,
      "d": 128.125,
      "v": 41
    },
    {
      "midi": 67,
      "hit": false,
      "t": 130131.25,
      "d": 121.875,
      "v": 39
    },
    {
      "midi": 58,
      "hit": false,
      "t": 130131.25,
      "d": 128.125,
      "v": 47
    },
    {
      "midi": 58,
      "hit": false,
      "t": 130140.625,
      "d": 1190.625,
      "v": 83
    },
    {
      "midi": 43,
      "hit": false,
      "t": 130506.25,
      "d": 465.625,
      "v": 54
    },
    {
      "midi": 67,
      "hit": false,
      "t": 130509.375,
      "d": 353.125,
      "v": 66
    },
    {
      "midi": 62,
      "hit": false,
      "t": 130512.5,
      "d": 796.875,
      "v": 83
    },
    {
      "midi": 70,
      "hit": false,
      "t": 130868.75,
      "d": 803.125,
      "v": 83
    },
    {
      "midi": 58,
      "hit": false,
      "t": 130881.25,
      "d": 171.875,
      "v": 40
    },
    {
      "midi": 65,
      "hit": false,
      "t": 130881.25,
      "d": 196.875,
      "v": 51
    },
    {
      "midi": 62,
      "hit": false,
      "t": 130881.25,
      "d": 209.375,
      "v": 43
    },
    {
      "midi": 74,
      "hit": false,
      "t": 131243.75,
      "d": 381.25,
      "v": 83
    },
    {
      "midi": 58,
      "hit": false,
      "t": 131256.25,
      "d": 162.5,
      "v": 50
    },
    {
      "midi": 55,
      "hit": false,
      "t": 131443.75,
      "d": 162.5,
      "v": 60
    },
    {
      "midi": 50,
      "hit": false,
      "t": 131625,
      "d": 1596.875,
      "v": 83
    },
    {
      "midi": 53,
      "hit": false,
      "t": 131987.5,
      "d": 1487.5,
      "v": 83
    },
    {
      "midi": 57,
      "hit": false,
      "t": 132400,
      "d": 1525,
      "v": 83
    },
    {
      "midi": 62,
      "hit": false,
      "t": 132721.875,
      "d": 1137.5,
      "v": 83
    },
    {
      "midi": 65,
      "hit": false,
      "t": 133081.25,
      "d": 787.5,
      "v": 83
    },
    {
      "midi": 69,
      "hit": false,
      "t": 133500,
      "d": 421.875,
      "v": 83
    },
    {
      "midi": 52,
      "hit": false,
      "t": 133865.625,
      "d": 706.25,
      "v": 83
    },
    {
      "midi": 74,
      "hit": false,
      "t": 133875,
      "d": 362.5,
      "v": 45
    },
    {
      "midi": 40,
      "hit": false,
      "t": 133881.25,
      "d": 562.5,
      "v": 52
    },
    {
      "midi": 56,
      "hit": false,
      "t": 134043.75,
      "d": 559.375,
      "v": 83
    },
    {
      "midi": 59,
      "hit": false,
      "t": 134218.75,
      "d": 903.125,
      "v": 83
    },
    {
      "midi": 62,
      "hit": false,
      "t": 134256.25,
      "d": 312.5,
      "v": 48
    },
    {
      "midi": 52,
      "hit": false,
      "t": 134256.25,
      "d": 340.625,
      "v": 31
    },
    {
      "midi": 56,
      "hit": false,
      "t": 134256.25,
      "d": 340.625,
      "v": 46
    },
    {
      "midi": 59,
      "hit": false,
      "t": 134256.25,
      "d": 340.625,
      "v": 47
    },
    {
      "midi": 64,
      "hit": false,
      "t": 134403.125,
      "d": 537.5,
      "v": 83
    },
    {
      "midi": 68,
      "hit": false,
      "t": 134603.125,
      "d": 378.125,
      "v": 83
    },
    {
      "midi": 59,
      "hit": false,
      "t": 134628.125,
      "d": 153.125,
      "v": 50
    },
    {
      "midi": 62,
      "hit": false,
      "t": 134628.125,
      "d": 153.125,
      "v": 39
    },
    {
      "midi": 64,
      "hit": false,
      "t": 134631.25,
      "d": 121.875,
      "v": 37
    },
    {
      "midi": 56,
      "hit": false,
      "t": 134631.25,
      "d": 137.5,
      "v": 45
    },
    {
      "midi": 71,
      "hit": false,
      "t": 134803.125,
      "d": 234.375,
      "v": 83
    },
    {
      "midi": 57,
      "hit": false,
      "t": 134987.5,
      "d": 790.625,
      "v": 83
    },
    {
      "midi": 73,
      "hit": false,
      "t": 135000,
      "d": 340.625,
      "v": 64
    },
    {
      "midi": 45,
      "hit": false,
      "t": 135000,
      "d": 359.375,
      "v": 31
    },
    {
      "midi": 61,
      "hit": false,
      "t": 135221.875,
      "d": 587.5,
      "v": 83
    },
    {
      "midi": 57,
      "hit": false,
      "t": 135375,
      "d": 62.5,
      "v": 31
    },
    {
      "midi": 55,
      "hit": false,
      "t": 135375,
      "d": 90.625,
      "v": 54
    },
    {
      "midi": 49,
      "hit": false,
      "t": 135375,
      "d": 118.75,
      "v": 55
    },
    {
      "midi": 52,
      "hit": false,
      "t": 135375,
      "d": 200,
      "v": 54
    },
    {
      "midi": 64,
      "hit": false,
      "t": 135400,
      "d": 790.625,
      "v": 83
    },
    {
      "midi": 69,
      "hit": false,
      "t": 135568.75,
      "d": 550,
      "v": 83
    },
    {
      "midi": 64,
      "hit": false,
      "t": 135575,
      "d": 153.125,
      "v": 45
    },
    {
      "midi": 55,
      "hit": false,
      "t": 135750,
      "d": 56.25,
      "v": 54
    },
    {
      "midi": 52,
      "hit": false,
      "t": 135750,
      "d": 62.5,
      "v": 46
    },
    {
      "midi": 57,
      "hit": false,
      "t": 135750,
      "d": 62.5,
      "v": 37
    },
    {
      "midi": 61,
      "hit": false,
      "t": 135750,
      "d": 62.5,
      "v": 37
    },
    {
      "midi": 67,
      "hit": false,
      "t": 135750,
      "d": 112.5,
      "v": 59
    },
    {
      "midi": 73,
      "hit": false,
      "t": 135750,
      "d": 390.625,
      "v": 83
    },
    {
      "midi": 76,
      "hit": false,
      "t": 135931.25,
      "d": 378.125,
      "v": 83
    },
    {
      "midi": 73,
      "hit": false,
      "t": 135937.5,
      "d": 103.125,
      "v": 67
    },
    {
      "midi": 77,
      "hit": false,
      "t": 136125,
      "d": 340.625,
      "v": 64
    },
    {
      "midi": 38,
      "hit": false,
      "t": 136125,
      "d": 359.375,
      "v": 31
    },
    {
      "midi": 62,
      "hit": false,
      "t": 136125,
      "d": 1246.875,
      "v": 83
    },
    {
      "midi": 65,
      "hit": false,
      "t": 136325,
      "d": 1056.25,
      "v": 83
    },
    {
      "midi": 65,
      "hit": false,
      "t": 136500,
      "d": 62.5,
      "v": 31
    },
    {
      "midi": 62,
      "hit": false,
      "t": 136500,
      "d": 90.625,
      "v": 54
    },
    {
      "midi": 53,
      "hit": false,
      "t": 136500,
      "d": 118.75,
      "v": 55
    },
    {
      "midi": 57,
      "hit": false,
      "t": 136500,
      "d": 200,
      "v": 54
    },
    {
      "midi": 69,
      "hit": false,
      "t": 136506.25,
      "d": 853.125,
      "v": 83
    },
    {
      "midi": 74,
      "hit": false,
      "t": 136693.75,
      "d": 646.875,
      "v": 83
    },
    {
      "midi": 69,
      "hit": false,
      "t": 136700,
      "d": 153.125,
      "v": 45
    },
    {
      "midi": 62,
      "hit": false,
      "t": 136875,
      "d": 56.25,
      "v": 54
    },
    {
      "midi": 57,
      "hit": false,
      "t": 136875,
      "d": 62.5,
      "v": 46
    },
    {
      "midi": 65,
      "hit": false,
      "t": 136875,
      "d": 62.5,
      "v": 37
    },
    {
      "midi": 74,
      "hit": false,
      "t": 136875,
      "d": 112.5,
      "v": 59
    },
    {
      "midi": 77,
      "hit": false,
      "t": 136903.125,
      "d": 446.875,
      "v": 83
    },
    {
      "midi": 77,
      "hit": false,
      "t": 137062.5,
      "d": 103.125,
      "v": 67
    },
    {
      "midi": 81,
      "hit": false,
      "t": 137131.25,
      "d": 218.75,
      "v": 83
    },
    {
      "midi": 77,
      "hit": false,
      "t": 137250,
      "d": 362.5,
      "v": 49
    },
    {
      "midi": 86,
      "hit": false,
      "t": 137250,
      "d": 125,
      "v": 83
    },
    {
      "midi": 38,
      "hit": false,
      "t": 137256.25,
      "d": 562.5,
      "v": 46
    },
    {
      "midi": 57,
      "hit": false,
      "t": 137631.25,
      "d": 296.875,
      "v": 35
    },
    {
      "midi": 65,
      "hit": false,
      "t": 137631.25,
      "d": 312.5,
      "v": 52
    },
    {
      "midi": 60,
      "hit": false,
      "t": 137631.25,
      "d": 340.625,
      "v": 50
    },
    {
      "midi": 62,
      "hit": false,
      "t": 137631.25,
      "d": 340.625,
      "v": 51
    },
    {
      "midi": 62,
      "hit": false,
      "t": 138003.125,
      "d": 175,
      "v": 54
    },
    {
      "midi": 65,
      "hit": false,
      "t": 138003.125,
      "d": 175,
      "v": 43
    },
    {
      "midi": 57,
      "hit": false,
      "t": 138006.25,
      "d": 171.875,
      "v": 41
    },
    {
      "midi": 60,
      "hit": false,
      "t": 138006.25,
      "d": 171.875,
      "v": 49
    },
    {
      "midi": 72,
      "hit": false,
      "t": 138187.5,
      "d": 184.375,
      "v": 49
    },
    {
      "midi": 77,
      "hit": false,
      "t": 138375,
      "d": 340.625,
      "v": 64
    },
    {
      "midi": 43,
      "hit": false,
      "t": 138375,
      "d": 359.375,
      "v": 31
    },
    {
      "midi": 62,
      "hit": false,
      "t": 138750,
      "d": 62.5,
      "v": 31
    },
    {
      "midi": 58,
      "hit": false,
      "t": 138750,
      "d": 90.625,
      "v": 54
    },
    {
      "midi": 53,
      "hit": false,
      "t": 138750,
      "d": 118.75,
      "v": 55
    },
    {
      "midi": 55,
      "hit": false,
      "t": 138750,
      "d": 200,
      "v": 54
    },
    {
      "midi": 67,
      "hit": false,
      "t": 138950,
      "d": 153.125,
      "v": 45
    },
    {
      "midi": 58,
      "hit": false,
      "t": 139125,
      "d": 56.25,
      "v": 54
    },
    {
      "midi": 55,
      "hit": false,
      "t": 139125,
      "d": 62.5,
      "v": 46
    },
    {
      "midi": 62,
      "hit": false,
      "t": 139125,
      "d": 62.5,
      "v": 37
    },
    {
      "midi": 65,
      "hit": false,
      "t": 139125,
      "d": 62.5,
      "v": 37
    },
    {
      "midi": 70,
      "hit": false,
      "t": 139125,
      "d": 112.5,
      "v": 59
    },
    {
      "midi": 77,
      "hit": false,
      "t": 139312.5,
      "d": 103.125,
      "v": 67
    },
    {
      "midi": 77,
      "hit": false,
      "t": 139500,
      "d": 362.5,
      "v": 45
    },
    {
      "midi": 43,
      "hit": false,
      "t": 139506.25,
      "d": 562.5,
      "v": 52
    },
    {
      "midi": 65,
      "hit": false,
      "t": 139881.25,
      "d": 312.5,
      "v": 48
    },
    {
      "midi": 55,
      "hit": false,
      "t": 139881.25,
      "d": 340.625,
      "v": 31
    },
    {
      "midi": 58,
      "hit": false,
      "t": 139881.25,
      "d": 340.625,
      "v": 46
    },
    {
      "midi": 62,
      "hit": false,
      "t": 139881.25,
      "d": 340.625,
      "v": 47
    },
    {
      "midi": 62,
      "hit": false,
      "t": 140253.125,
      "d": 153.125,
      "v": 50
    },
    {
      "midi": 65,
      "hit": false,
      "t": 140253.125,
      "d": 153.125,
      "v": 39
    },
    {
      "midi": 67,
      "hit": false,
      "t": 140256.25,
      "d": 121.875,
      "v": 37
    },
    {
      "midi": 58,
      "hit": false,
      "t": 140256.25,
      "d": 137.5,
      "v": 45
    },
    {
      "midi": 74,
      "hit": false,
      "t": 140625,
      "d": 340.625,
      "v": 64
    },
    {
      "midi": 38,
      "hit": false,
      "t": 140625,
      "d": 359.375,
      "v": 31
    },
    {
      "midi": 62,
      "hit": false,
      "t": 141000,
      "d": 62.5,
      "v": 31
    },
    {
      "midi": 60,
      "hit": false,
      "t": 141000,
      "d": 90.625,
      "v": 51
    },
    {
      "midi": 53,
      "hit": false,
      "t": 141000,
      "d": 118.75,
      "v": 45
    },
    {
      "midi": 57,
      "hit": false,
      "t": 141000,
      "d": 200,
      "v": 41
    },
    {
      "midi": 69,
      "hit": false,
      "t": 141200,
      "d": 153.125,
      "v": 45
    },
    {
      "midi": 60,
      "hit": false,
      "t": 141375,
      "d": 56.25,
      "v": 59
    },
    {
      "midi": 57,
      "hit": false,
      "t": 141375,
      "d": 62.5,
      "v": 46
    },
    {
      "midi": 62,
      "hit": false,
      "t": 141375,
      "d": 62.5,
      "v": 37
    },
    {
      "midi": 65,
      "hit": false,
      "t": 141375,
      "d": 62.5,
      "v": 37
    },
    {
      "midi": 72,
      "hit": false,
      "t": 141375,
      "d": 112.5,
      "v": 59
    },
    {
      "midi": 77,
      "hit": false,
      "t": 141562.5,
      "d": 103.125,
      "v": 82
    },
    {
      "midi": 74,
      "hit": false,
      "t": 141750,
      "d": 340.625,
      "v": 64
    },
    {
      "midi": 38,
      "hit": false,
      "t": 141750,
      "d": 359.375,
      "v": 31
    },
    {
      "midi": 62,
      "hit": false,
      "t": 142125,
      "d": 62.5,
      "v": 31
    },
    {
      "midi": 60,
      "hit": false,
      "t": 142125,
      "d": 90.625,
      "v": 51
    },
    {
      "midi": 53,
      "hit": false,
      "t": 142125,
      "d": 118.75,
      "v": 45
    },
    {
      "midi": 57,
      "hit": false,
      "t": 142125,
      "d": 200,
      "v": 41
    },
    {
      "midi": 69,
      "hit": false,
      "t": 142325,
      "d": 153.125,
      "v": 45
    },
    {
      "midi": 60,
      "hit": false,
      "t": 142500,
      "d": 56.25,
      "v": 59
    },
    {
      "midi": 57,
      "hit": false,
      "t": 142500,
      "d": 62.5,
      "v": 46
    },
    {
      "midi": 62,
      "hit": false,
      "t": 142500,
      "d": 62.5,
      "v": 37
    },
    {
      "midi": 65,
      "hit": false,
      "t": 142500,
      "d": 62.5,
      "v": 37
    },
    {
      "midi": 72,
      "hit": false,
      "t": 142500,
      "d": 112.5,
      "v": 59
    },
    {
      "midi": 77,
      "hit": false,
      "t": 142687.5,
      "d": 103.125,
      "v": 82
    },
    {
      "midi": 71,
      "hit": false,
      "t": 142875,
      "d": 362.5,
      "v": 49
    },
    {
      "midi": 40,
      "hit": false,
      "t": 142881.25,
      "d": 562.5,
      "v": 46
    },
    {
      "midi": 59,
      "hit": false,
      "t": 143256.25,
      "d": 290.625,
      "v": 51
    },
    {
      "midi": 56,
      "hit": false,
      "t": 143256.25,
      "d": 303.125,
      "v": 50
    },
    {
      "midi": 52,
      "hit": false,
      "t": 143256.25,
      "d": 312.5,
      "v": 35
    },
    {
      "midi": 62,
      "hit": false,
      "t": 143256.25,
      "d": 312.5,
      "v": 52
    },
    {
      "midi": 59,
      "hit": false,
      "t": 143628.125,
      "d": 159.375,
      "v": 54
    },
    {
      "midi": 62,
      "hit": false,
      "t": 143628.125,
      "d": 159.375,
      "v": 43
    },
    {
      "midi": 64,
      "hit": false,
      "t": 143631.25,
      "d": 181.25,
      "v": 41
    },
    {
      "midi": 56,
      "hit": false,
      "t": 143631.25,
      "d": 296.875,
      "v": 49
    },
    {
      "midi": 69,
      "hit": false,
      "t": 144000,
      "d": 362.5,
      "v": 49
    },
    {
      "midi": 45,
      "hit": false,
      "t": 144006.25,
      "d": 562.5,
      "v": 46
    },
    {
      "midi": 57,
      "hit": false,
      "t": 144381.25,
      "d": 290.625,
      "v": 51
    },
    {
      "midi": 55,
      "hit": false,
      "t": 144381.25,
      "d": 303.125,
      "v": 50
    },
    {
      "midi": 52,
      "hit": false,
      "t": 144381.25,
      "d": 312.5,
      "v": 35
    },
    {
      "midi": 61,
      "hit": false,
      "t": 144381.25,
      "d": 312.5,
      "v": 52
    },
    {
      "midi": 57,
      "hit": false,
      "t": 144753.125,
      "d": 159.375,
      "v": 54
    },
    {
      "midi": 61,
      "hit": false,
      "t": 144753.125,
      "d": 159.375,
      "v": 43
    },
    {
      "midi": 64,
      "hit": false,
      "t": 144756.25,
      "d": 181.25,
      "v": 41
    },
    {
      "midi": 55,
      "hit": false,
      "t": 144756.25,
      "d": 296.875,
      "v": 49
    },
    {
      "midi": 77,
      "hit": false,
      "t": 145125,
      "d": 340.625,
      "v": 64
    },
    {
      "midi": 38,
      "hit": false,
      "t": 145125,
      "d": 359.375,
      "v": 31
    },
    {
      "midi": 62,
      "hit": false,
      "t": 145500,
      "d": 62.5,
      "v": 31
    },
    {
      "midi": 60,
      "hit": false,
      "t": 145500,
      "d": 90.625,
      "v": 54
    },
    {
      "midi": 53,
      "hit": false,
      "t": 145500,
      "d": 118.75,
      "v": 55
    },
    {
      "midi": 57,
      "hit": false,
      "t": 145500,
      "d": 200,
      "v": 54
    },
    {
      "midi": 69,
      "hit": false,
      "t": 145700,
      "d": 153.125,
      "v": 45
    },
    {
      "midi": 60,
      "hit": false,
      "t": 145875,
      "d": 56.25,
      "v": 54
    },
    {
      "midi": 57,
      "hit": false,
      "t": 145875,
      "d": 62.5,
      "v": 46
    },
    {
      "midi": 62,
      "hit": false,
      "t": 145875,
      "d": 62.5,
      "v": 37
    },
    {
      "midi": 65,
      "hit": false,
      "t": 145875,
      "d": 62.5,
      "v": 37
    },
    {
      "midi": 72,
      "hit": false,
      "t": 145875,
      "d": 112.5,
      "v": 59
    },
    {
      "midi": 77,
      "hit": false,
      "t": 146062.5,
      "d": 103.125,
      "v": 67
    },
    {
      "midi": 74,
      "hit": false,
      "t": 146250,
      "d": 340.625,
      "v": 64
    },
    {
      "midi": 38,
      "hit": false,
      "t": 146250,
      "d": 359.375,
      "v": 31
    },
    {
      "midi": 62,
      "hit": false,
      "t": 146625,
      "d": 62.5,
      "v": 31
    },
    {
      "midi": 60,
      "hit": false,
      "t": 146625,
      "d": 90.625,
      "v": 51
    },
    {
      "midi": 53,
      "hit": false,
      "t": 146625,
      "d": 118.75,
      "v": 45
    },
    {
      "midi": 57,
      "hit": false,
      "t": 146625,
      "d": 200,
      "v": 41
    },
    {
      "midi": 69,
      "hit": false,
      "t": 146825,
      "d": 153.125,
      "v": 45
    },
    {
      "midi": 60,
      "hit": false,
      "t": 147000,
      "d": 56.25,
      "v": 59
    },
    {
      "midi": 57,
      "hit": false,
      "t": 147000,
      "d": 62.5,
      "v": 46
    },
    {
      "midi": 62,
      "hit": false,
      "t": 147000,
      "d": 62.5,
      "v": 37
    },
    {
      "midi": 65,
      "hit": false,
      "t": 147000,
      "d": 62.5,
      "v": 37
    },
    {
      "midi": 72,
      "hit": false,
      "t": 147000,
      "d": 112.5,
      "v": 59
    },
    {
      "midi": 77,
      "hit": false,
      "t": 147187.5,
      "d": 103.125,
      "v": 82
    },
    {
      "midi": 67,
      "hit": false,
      "t": 147346.875,
      "d": 240.625,
      "v": 83
    },
    {
      "midi": 74,
      "hit": false,
      "t": 147375,
      "d": 340.625,
      "v": 64
    },
    {
      "midi": 43,
      "hit": false,
      "t": 147375,
      "d": 359.375,
      "v": 31
    },
    {
      "midi": 79,
      "hit": false,
      "t": 147565.625,
      "d": 178.125,
      "v": 83
    },
    {
      "midi": 62,
      "hit": false,
      "t": 147750,
      "d": 62.5,
      "v": 31
    },
    {
      "midi": 58,
      "hit": false,
      "t": 147750,
      "d": 90.625,
      "v": 51
    },
    {
      "midi": 53,
      "hit": false,
      "t": 147750,
      "d": 118.75,
      "v": 45
    },
    {
      "midi": 55,
      "hit": false,
      "t": 147750,
      "d": 200,
      "v": 41
    },
    {
      "midi": 67,
      "hit": false,
      "t": 147759.375,
      "d": 184.375,
      "v": 83
    },
    {
      "midi": 79,
      "hit": false,
      "t": 147937.5,
      "d": 181.25,
      "v": 83
    },
    {
      "midi": 67,
      "hit": false,
      "t": 147950,
      "d": 153.125,
      "v": 45
    },
    {
      "midi": 58,
      "hit": false,
      "t": 148125,
      "d": 56.25,
      "v": 59
    },
    {
      "midi": 55,
      "hit": false,
      "t": 148125,
      "d": 62.5,
      "v": 46
    },
    {
      "midi": 62,
      "hit": false,
      "t": 148125,
      "d": 62.5,
      "v": 37
    },
    {
      "midi": 65,
      "hit": false,
      "t": 148125,
      "d": 62.5,
      "v": 37
    },
    {
      "midi": 70,
      "hit": false,
      "t": 148125,
      "d": 112.5,
      "v": 59
    },
    {
      "midi": 67,
      "hit": false,
      "t": 148150,
      "d": 175,
      "v": 83
    },
    {
      "midi": 77,
      "hit": false,
      "t": 148312.5,
      "d": 103.125,
      "v": 82
    },
    {
      "midi": 79,
      "hit": false,
      "t": 148321.875,
      "d": 159.375,
      "v": 83
    },
    {
      "midi": 74,
      "hit": false,
      "t": 148500,
      "d": 340.625,
      "v": 64
    },
    {
      "midi": 43,
      "hit": false,
      "t": 148500,
      "d": 359.375,
      "v": 31
    },
    {
      "midi": 67,
      "hit": false,
      "t": 148500,
      "d": 171.875,
      "v": 83
    },
    {
      "midi": 79,
      "hit": false,
      "t": 148687.5,
      "d": 178.125,
      "v": 83
    },
    {
      "midi": 62,
      "hit": false,
      "t": 148875,
      "d": 62.5,
      "v": 31
    },
    {
      "midi": 58,
      "hit": false,
      "t": 148875,
      "d": 90.625,
      "v": 51
    },
    {
      "midi": 53,
      "hit": false,
      "t": 148875,
      "d": 118.75,
      "v": 45
    },
    {
      "midi": 55,
      "hit": false,
      "t": 148875,
      "d": 200,
      "v": 41
    },
    {
      "midi": 67,
      "hit": false,
      "t": 148875,
      "d": 168.75,
      "v": 83
    },
    {
      "midi": 79,
      "hit": false,
      "t": 149040.625,
      "d": 190.625,
      "v": 83
    },
    {
      "midi": 67,
      "hit": false,
      "t": 149075,
      "d": 153.125,
      "v": 45
    },
    {
      "midi": 67,
      "hit": false,
      "t": 149243.75,
      "d": 228.125,
      "v": 83
    },
    {
      "midi": 58,
      "hit": false,
      "t": 149250,
      "d": 56.25,
      "v": 59
    },
    {
      "midi": 55,
      "hit": false,
      "t": 149250,
      "d": 62.5,
      "v": 46
    },
    {
      "midi": 62,
      "hit": false,
      "t": 149250,
      "d": 62.5,
      "v": 37
    },
    {
      "midi": 65,
      "hit": false,
      "t": 149250,
      "d": 62.5,
      "v": 37
    },
    {
      "midi": 70,
      "hit": false,
      "t": 149250,
      "d": 112.5,
      "v": 59
    },
    {
      "midi": 79,
      "hit": false,
      "t": 149418.75,
      "d": 153.125,
      "v": 83
    },
    {
      "midi": 77,
      "hit": false,
      "t": 149437.5,
      "d": 103.125,
      "v": 82
    },
    {
      "midi": 65,
      "hit": false,
      "t": 149621.875,
      "d": 209.375,
      "v": 83
    },
    {
      "midi": 77,
      "hit": false,
      "t": 149625,
      "d": 362.5,
      "v": 49
    },
    {
      "midi": 38,
      "hit": false,
      "t": 149631.25,
      "d": 562.5,
      "v": 46
    },
    {
      "midi": 77,
      "hit": false,
      "t": 149809.375,
      "d": 165.625,
      "v": 83
    },
    {
      "midi": 65,
      "hit": false,
      "t": 150003.125,
      "d": 200,
      "v": 83
    },
    {
      "midi": 57,
      "hit": false,
      "t": 150006.25,
      "d": 296.875,
      "v": 35
    },
    {
      "midi": 65,
      "hit": false,
      "t": 150006.25,
      "d": 312.5,
      "v": 52
    },
    {
      "midi": 60,
      "hit": false,
      "t": 150006.25,
      "d": 340.625,
      "v": 50
    },
    {
      "midi": 62,
      "hit": false,
      "t": 150006.25,
      "d": 340.625,
      "v": 51
    },
    {
      "midi": 77,
      "hit": false,
      "t": 150175,
      "d": 187.5,
      "v": 83
    },
    {
      "midi": 65,
      "hit": false,
      "t": 150375,
      "d": 178.125,
      "v": 83
    },
    {
      "midi": 62,
      "hit": false,
      "t": 150378.125,
      "d": 175,
      "v": 54
    },
    {
      "midi": 65,
      "hit": false,
      "t": 150378.125,
      "d": 175,
      "v": 43
    },
    {
      "midi": 57,
      "hit": false,
      "t": 150381.25,
      "d": 171.875,
      "v": 41
    },
    {
      "midi": 60,
      "hit": false,
      "t": 150381.25,
      "d": 171.875,
      "v": 49
    },
    {
      "midi": 77,
      "hit": false,
      "t": 150550,
      "d": 178.125,
      "v": 83
    },
    {
      "midi": 72,
      "hit": false,
      "t": 150562.5,
      "d": 184.375,
      "v": 49
    },
    {
      "midi": 77,
      "hit": false,
      "t": 150750,
      "d": 362.5,
      "v": 45
    },
    {
      "midi": 65,
      "hit": false,
      "t": 150750,
      "d": 159.375,
      "v": 83
    },
    {
      "midi": 38,
      "hit": false,
      "t": 150756.25,
      "d": 562.5,
      "v": 52
    },
    {
      "midi": 77,
      "hit": false,
      "t": 150931.25,
      "d": 168.75,
      "v": 83
    },
    {
      "midi": 65,
      "hit": false,
      "t": 151121.875,
      "d": 187.5,
      "v": 83
    },
    {
      "midi": 65,
      "hit": false,
      "t": 151131.25,
      "d": 312.5,
      "v": 48
    },
    {
      "midi": 57,
      "hit": false,
      "t": 151131.25,
      "d": 340.625,
      "v": 31
    },
    {
      "midi": 60,
      "hit": false,
      "t": 151131.25,
      "d": 340.625,
      "v": 46
    },
    {
      "midi": 62,
      "hit": false,
      "t": 151131.25,
      "d": 340.625,
      "v": 47
    },
    {
      "midi": 77,
      "hit": false,
      "t": 151303.125,
      "d": 187.5,
      "v": 83
    },
    {
      "midi": 62,
      "hit": false,
      "t": 151503.125,
      "d": 153.125,
      "v": 50
    },
    {
      "midi": 65,
      "hit": false,
      "t": 151503.125,
      "d": 153.125,
      "v": 39
    },
    {
      "midi": 69,
      "hit": false,
      "t": 151506.25,
      "d": 121.875,
      "v": 37
    },
    {
      "midi": 60,
      "hit": false,
      "t": 151506.25,
      "d": 137.5,
      "v": 45
    },
    {
      "midi": 65,
      "hit": false,
      "t": 151506.25,
      "d": 231.25,
      "v": 83
    },
    {
      "midi": 77,
      "hit": false,
      "t": 151650,
      "d": 159.375,
      "v": 83
    },
    {
      "midi": 64,
      "hit": false,
      "t": 151865.625,
      "d": 212.5,
      "v": 83
    },
    {
      "midi": 74,
      "hit": false,
      "t": 151875,
      "d": 340.625,
      "v": 64
    },
    {
      "midi": 40,
      "hit": false,
      "t": 151875,
      "d": 359.375,
      "v": 31
    },
    {
      "midi": 76,
      "hit": false,
      "t": 152053.125,
      "d": 184.375,
      "v": 83
    },
    {
      "midi": 59,
      "hit": false,
      "t": 152250,
      "d": 62.5,
      "v": 31
    },
    {
      "midi": 56,
      "hit": false,
      "t": 152250,
      "d": 90.625,
      "v": 54
    },
    {
      "midi": 50,
      "hit": false,
      "t": 152250,
      "d": 118.75,
      "v": 55
    },
    {
      "midi": 52,
      "hit": false,
      "t": 152250,
      "d": 200,
      "v": 54
    },
    {
      "midi": 64,
      "hit": false,
      "t": 152271.875,
      "d": 181.25,
      "v": 83
    },
    {
      "midi": 76,
      "hit": false,
      "t": 152434.375,
      "d": 187.5,
      "v": 83
    },
    {
      "midi": 64,
      "hit": false,
      "t": 152450,
      "d": 153.125,
      "v": 45
    },
    {
      "midi": 56,
      "hit": false,
      "t": 152625,
      "d": 56.25,
      "v": 54
    },
    {
      "midi": 52,
      "hit": false,
      "t": 152625,
      "d": 62.5,
      "v": 46
    },
    {
      "midi": 59,
      "hit": false,
      "t": 152625,
      "d": 62.5,
      "v": 37
    },
    {
      "midi": 62,
      "hit": false,
      "t": 152625,
      "d": 62.5,
      "v": 37
    },
    {
      "midi": 68,
      "hit": false,
      "t": 152625,
      "d": 112.5,
      "v": 59
    },
    {
      "midi": 64,
      "hit": false,
      "t": 152643.75,
      "d": 209.375,
      "v": 83
    },
    {
      "midi": 76,
      "hit": false,
      "t": 152778.125,
      "d": 90.625,
      "v": 83
    },
    {
      "midi": 74,
      "hit": false,
      "t": 152812.5,
      "d": 103.125,
      "v": 67
    },
    {
      "midi": 73,
      "hit": false,
      "t": 153000,
      "d": 340.625,
      "v": 64
    },
    {
      "midi": 45,
      "hit": false,
      "t": 153000,
      "d": 359.375,
      "v": 31
    },
    {
      "midi": 61,
      "hit": false,
      "t": 153000,
      "d": 203.125,
      "v": 83
    },
    {
      "midi": 73,
      "hit": false,
      "t": 153187.5,
      "d": 171.875,
      "v": 83
    },
    {
      "midi": 57,
      "hit": false,
      "t": 153375,
      "d": 62.5,
      "v": 31
    },
    {
      "midi": 55,
      "hit": false,
      "t": 153375,
      "d": 90.625,
      "v": 54
    },
    {
      "midi": 49,
      "hit": false,
      "t": 153375,
      "d": 118.75,
      "v": 55
    },
    {
      "midi": 52,
      "hit": false,
      "t": 153375,
      "d": 200,
      "v": 54
    },
    {
      "midi": 61,
      "hit": false,
      "t": 153390.625,
      "d": 184.375,
      "v": 83
    },
    {
      "midi": 64,
      "hit": false,
      "t": 153575,
      "d": 153.125,
      "v": 45
    },
    {
      "midi": 73,
      "hit": false,
      "t": 153575,
      "d": 168.75,
      "v": 83
    },
    {
      "midi": 55,
      "hit": false,
      "t": 153750,
      "d": 56.25,
      "v": 54
    },
    {
      "midi": 52,
      "hit": false,
      "t": 153750,
      "d": 62.5,
      "v": 46
    },
    {
      "midi": 57,
      "hit": false,
      "t": 153750,
      "d": 62.5,
      "v": 37
    },
    {
      "midi": 61,
      "hit": false,
      "t": 153750,
      "d": 62.5,
      "v": 37
    },
    {
      "midi": 67,
      "hit": false,
      "t": 153750,
      "d": 112.5,
      "v": 59
    },
    {
      "midi": 61,
      "hit": false,
      "t": 153765.625,
      "d": 206.25,
      "v": 83
    },
    {
      "midi": 73,
      "hit": false,
      "t": 153931.25,
      "d": 156.25,
      "v": 83
    },
    {
      "midi": 73,
      "hit": false,
      "t": 153937.5,
      "d": 103.125,
      "v": 67
    },
    {
      "midi": 77,
      "hit": false,
      "t": 154125,
      "d": 362.5,
      "v": 45
    },
    {
      "midi": 38,
      "hit": false,
      "t": 154131.25,
      "d": 562.5,
      "v": 52
    },
    {
      "midi": 62,
      "hit": false,
      "t": 154146.875,
      "d": 218.75,
      "v": 83
    },
    {
      "midi": 74,
      "hit": false,
      "t": 154318.75,
      "d": 175,
      "v": 83
    },
    {
      "midi": 65,
      "hit": false,
      "t": 154506.25,
      "d": 312.5,
      "v": 48
    },
    {
      "midi": 57,
      "hit": false,
      "t": 154506.25,
      "d": 340.625,
      "v": 31
    },
    {
      "midi": 60,
      "hit": false,
      "t": 154506.25,
      "d": 340.625,
      "v": 46
    },
    {
      "midi": 62,
      "hit": false,
      "t": 154506.25,
      "d": 340.625,
      "v": 47
    },
    {
      "midi": 62,
      "hit": false,
      "t": 154528.125,
      "d": 159.375,
      "v": 83
    },
    {
      "midi": 74,
      "hit": false,
      "t": 154687.5,
      "d": 159.375,
      "v": 83
    },
    {
      "midi": 62,
      "hit": false,
      "t": 154871.875,
      "d": 203.125,
      "v": 83
    },
    {
      "midi": 62,
      "hit": false,
      "t": 154878.125,
      "d": 153.125,
      "v": 50
    },
    {
      "midi": 65,
      "hit": false,
      "t": 154878.125,
      "d": 153.125,
      "v": 39
    },
    {
      "midi": 69,
      "hit": false,
      "t": 154881.25,
      "d": 121.875,
      "v": 37
    },
    {
      "midi": 60,
      "hit": false,
      "t": 154881.25,
      "d": 137.5,
      "v": 45
    },
    {
      "midi": 74,
      "hit": false,
      "t": 155059.375,
      "d": 190.625,
      "v": 83
    },
    {
      "midi": 74,
      "hit": false,
      "t": 155250,
      "d": 340.625,
      "v": 64
    },
    {
      "midi": 38,
      "hit": false,
      "t": 155250,
      "d": 359.375,
      "v": 31
    },
    {
      "midi": 62,
      "hit": false,
      "t": 155259.375,
      "d": 50,
      "v": 83
    },
    {
      "midi": 62,
      "hit": false,
      "t": 155625,
      "d": 62.5,
      "v": 31
    },
    {
      "midi": 60,
      "hit": false,
      "t": 155625,
      "d": 90.625,
      "v": 51
    },
    {
      "midi": 53,
      "hit": false,
      "t": 155625,
      "d": 118.75,
      "v": 45
    },
    {
      "midi": 57,
      "hit": false,
      "t": 155625,
      "d": 200,
      "v": 41
    },
    {
      "midi": 69,
      "hit": false,
      "t": 155825,
      "d": 153.125,
      "v": 45
    },
    {
      "midi": 60,
      "hit": false,
      "t": 156000,
      "d": 56.25,
      "v": 59
    },
    {
      "midi": 57,
      "hit": false,
      "t": 156000,
      "d": 62.5,
      "v": 46
    },
    {
      "midi": 62,
      "hit": false,
      "t": 156000,
      "d": 62.5,
      "v": 37
    },
    {
      "midi": 65,
      "hit": false,
      "t": 156000,
      "d": 62.5,
      "v": 37
    },
    {
      "midi": 72,
      "hit": false,
      "t": 156000,
      "d": 112.5,
      "v": 59
    },
    {
      "midi": 77,
      "hit": false,
      "t": 156187.5,
      "d": 103.125,
      "v": 82
    },
    {
      "midi": 70,
      "hit": false,
      "t": 156375,
      "d": 340.625,
      "v": 67
    },
    {
      "midi": 43,
      "hit": false,
      "t": 156375,
      "d": 359.375,
      "v": 29
    },
    {
      "midi": 62,
      "hit": false,
      "t": 156750,
      "d": 62.5,
      "v": 29
    },
    {
      "midi": 58,
      "hit": false,
      "t": 156750,
      "d": 90.625,
      "v": 68
    },
    {
      "midi": 53,
      "hit": false,
      "t": 156750,
      "d": 118.75,
      "v": 53
    },
    {
      "midi": 55,
      "hit": false,
      "t": 156750,
      "d": 200,
      "v": 52
    },
    {
      "midi": 67,
      "hit": false,
      "t": 156950,
      "d": 153.125,
      "v": 43
    },
    {
      "midi": 58,
      "hit": false,
      "t": 157125,
      "d": 56.25,
      "v": 57
    },
    {
      "midi": 55,
      "hit": false,
      "t": 157125,
      "d": 62.5,
      "v": 44
    },
    {
      "midi": 62,
      "hit": false,
      "t": 157125,
      "d": 62.5,
      "v": 35
    },
    {
      "midi": 65,
      "hit": false,
      "t": 157125,
      "d": 62.5,
      "v": 35
    },
    {
      "midi": 70,
      "hit": false,
      "t": 157125,
      "d": 112.5,
      "v": 57
    },
    {
      "midi": 77,
      "hit": false,
      "t": 157312.5,
      "d": 103.125,
      "v": 80
    },
    {
      "midi": 43,
      "hit": false,
      "t": 157500,
      "d": 112.5,
      "v": 56
    },
    {
      "midi": 74,
      "hit": false,
      "t": 157500,
      "d": 771.875,
      "v": 64
    },
    {
      "midi": 62,
      "hit": false,
      "t": 157875,
      "d": 90.625,
      "v": 34
    },
    {
      "midi": 58,
      "hit": false,
      "t": 157875,
      "d": 93.75,
      "v": 63
    },
    {
      "midi": 55,
      "hit": false,
      "t": 157875,
      "d": 100,
      "v": 34
    },
    {
      "midi": 53,
      "hit": false,
      "t": 157875,
      "d": 131.25,
      "v": 30
    },
    {
      "midi": 67,
      "hit": false,
      "t": 158062.5,
      "d": 196.875,
      "v": 51
    },
    {
      "midi": 58,
      "hit": false,
      "t": 158250,
      "d": 75,
      "v": 54
    },
    {
      "midi": 62,
      "hit": false,
      "t": 158250,
      "d": 84.375,
      "v": 34
    },
    {
      "midi": 65,
      "hit": false,
      "t": 158250,
      "d": 103.125,
      "v": 38
    },
    {
      "midi": 70,
      "hit": false,
      "t": 158250,
      "d": 187.5,
      "v": 56
    },
    {
      "midi": 55,
      "hit": false,
      "t": 158259.375,
      "d": 78.125,
      "v": 33
    },
    {
      "midi": 67,
      "hit": false,
      "t": 158437.5,
      "d": 100,
      "v": 72
    },
    {
      "midi": 67,
      "hit": false,
      "t": 160875,
      "d": 362.5,
      "v": 47
    },
    {
      "midi": 45,
      "hit": false,
      "t": 160881.25,
      "d": 562.5,
      "v": 54
    },
    {
      "midi": 61,
      "hit": false,
      "t": 161256.25,
      "d": 312.5,
      "v": 50
    },
    {
      "midi": 52,
      "hit": false,
      "t": 161256.25,
      "d": 340.625,
      "v": 33
    },
    {
      "midi": 55,
      "hit": false,
      "t": 161256.25,
      "d": 340.625,
      "v": 48
    },
    {
      "midi": 57,
      "hit": false,
      "t": 161256.25,
      "d": 340.625,
      "v": 49
    },
    {
      "midi": 57,
      "hit": false,
      "t": 161628.125,
      "d": 115.625,
      "v": 52
    },
    {
      "midi": 61,
      "hit": false,
      "t": 161628.125,
      "d": 128.125,
      "v": 41
    },
    {
      "midi": 64,
      "hit": false,
      "t": 161631.25,
      "d": 121.875,
      "v": 39
    },
    {
      "midi": 55,
      "hit": false,
      "t": 161631.25,
      "d": 128.125,
      "v": 47
    },
    {
      "midi": 45,
      "hit": false,
      "t": 162006.25,
      "d": 465.625,
      "v": 54
    },
    {
      "midi": 64,
      "hit": false,
      "t": 162009.375,
      "d": 353.125,
      "v": 66
    },
    {
      "midi": 55,
      "hit": false,
      "t": 162381.25,
      "d": 171.875,
      "v": 40
    },
    {
      "midi": 61,
      "hit": false,
      "t": 162381.25,
      "d": 196.875,
      "v": 51
    },
    {
      "midi": 57,
      "hit": false,
      "t": 162381.25,
      "d": 209.375,
      "v": 43
    },
    {
      "midi": 55,
      "hit": false,
      "t": 162756.25,
      "d": 162.5,
      "v": 50
    },
    {
      "midi": 52,
      "hit": false,
      "t": 162943.75,
      "d": 162.5,
      "v": 60
    },
    {
      "midi": 72,
      "hit": false,
      "t": 163125,
      "d": 362.5,
      "v": 47
    },
    {
      "midi": 38,
      "hit": false,
      "t": 163131.25,
      "d": 562.5,
      "v": 54
    },
    {
      "midi": 93,
      "hit": false,
      "t": 163343.75,
      "d": 131.25,
      "v": 83
    },
    {
      "midi": 65,
      "hit": false,
      "t": 163506.25,
      "d": 312.5,
      "v": 50
    },
    {
      "midi": 57,
      "hit": false,
      "t": 163506.25,
      "d": 340.625,
      "v": 33
    },
    {
      "midi": 60,
      "hit": false,
      "t": 163506.25,
      "d": 340.625,
      "v": 48
    },
    {
      "midi": 62,
      "hit": false,
      "t": 163506.25,
      "d": 340.625,
      "v": 49
    },
    {
      "midi": 86,
      "hit": false,
      "t": 163506.25,
      "d": 184.375,
      "v": 83
    },
    {
      "midi": 89,
      "hit": false,
      "t": 163687.5,
      "d": 134.375,
      "v": 83
    },
    {
      "midi": 81,
      "hit": false,
      "t": 163865.625,
      "d": 200,
      "v": 83
    },
    {
      "midi": 62,
      "hit": false,
      "t": 163878.125,
      "d": 115.625,
      "v": 52
    },
    {
      "midi": 65,
      "hit": false,
      "t": 163878.125,
      "d": 128.125,
      "v": 41
    },
    {
      "midi": 69,
      "hit": false,
      "t": 163881.25,
      "d": 121.875,
      "v": 39
    },
    {
      "midi": 60,
      "hit": false,
      "t": 163881.25,
      "d": 128.125,
      "v": 47
    },
    {
      "midi": 86,
      "hit": false,
      "t": 164043.75,
      "d": 109.375,
      "v": 83
    },
    {
      "midi": 77,
      "hit": false,
      "t": 164228.125,
      "d": 209.375,
      "v": 83
    },
    {
      "midi": 38,
      "hit": false,
      "t": 164256.25,
      "d": 465.625,
      "v": 54
    },
    {
      "midi": 69,
      "hit": false,
      "t": 164259.375,
      "d": 353.125,
      "v": 66
    },
    {
      "midi": 81,
      "hit": false,
      "t": 164437.5,
      "d": 146.875,
      "v": 83
    },
    {
      "midi": 74,
      "hit": false,
      "t": 164600,
      "d": 206.25,
      "v": 83
    },
    {
      "midi": 60,
      "hit": false,
      "t": 164631.25,
      "d": 171.875,
      "v": 40
    },
    {
      "midi": 65,
      "hit": false,
      "t": 164631.25,
      "d": 196.875,
      "v": 51
    },
    {
      "midi": 62,
      "hit": false,
      "t": 164631.25,
      "d": 209.375,
      "v": 43
    },
    {
      "midi": 77,
      "hit": false,
      "t": 164793.75,
      "d": 137.5,
      "v": 83
    },
    {
      "midi": 69,
      "hit": false,
      "t": 164975,
      "d": 225,
      "v": 83
    },
    {
      "midi": 60,
      "hit": false,
      "t": 165006.25,
      "d": 162.5,
      "v": 50
    },
    {
      "midi": 74,
      "hit": false,
      "t": 165165.625,
      "d": 206.25,
      "v": 83
    },
    {
      "midi": 57,
      "hit": false,
      "t": 165193.75,
      "d": 162.5,
      "v": 60
    },
    {
      "midi": 62,
      "hit": false,
      "t": 165343.75,
      "d": 440.625,
      "v": 83
    },
    {
      "midi": 70,
      "hit": false,
      "t": 165375,
      "d": 340.625,
      "v": 67
    },
    {
      "midi": 43,
      "hit": false,
      "t": 165375,
      "d": 359.375,
      "v": 29
    },
    {
      "midi": 62,
      "hit": false,
      "t": 165750,
      "d": 62.5,
      "v": 29
    },
    {
      "midi": 58,
      "hit": false,
      "t": 165750,
      "d": 90.625,
      "v": 68
    },
    {
      "midi": 53,
      "hit": false,
      "t": 165750,
      "d": 118.75,
      "v": 53
    },
    {
      "midi": 55,
      "hit": false,
      "t": 165750,
      "d": 200,
      "v": 52
    },
    {
      "midi": 67,
      "hit": false,
      "t": 165950,
      "d": 153.125,
      "v": 43
    },
    {
      "midi": 58,
      "hit": false,
      "t": 166125,
      "d": 56.25,
      "v": 57
    },
    {
      "midi": 55,
      "hit": false,
      "t": 166125,
      "d": 62.5,
      "v": 44
    },
    {
      "midi": 62,
      "hit": false,
      "t": 166125,
      "d": 62.5,
      "v": 35
    },
    {
      "midi": 65,
      "hit": false,
      "t": 166125,
      "d": 62.5,
      "v": 35
    },
    {
      "midi": 70,
      "hit": false,
      "t": 166125,
      "d": 112.5,
      "v": 57
    },
    {
      "midi": 77,
      "hit": false,
      "t": 166312.5,
      "d": 103.125,
      "v": 80
    },
    {
      "midi": 43,
      "hit": false,
      "t": 166500,
      "d": 112.5,
      "v": 56
    },
    {
      "midi": 74,
      "hit": false,
      "t": 166500,
      "d": 771.875,
      "v": 64
    },
    {
      "midi": 62,
      "hit": false,
      "t": 166875,
      "d": 90.625,
      "v": 34
    },
    {
      "midi": 58,
      "hit": false,
      "t": 166875,
      "d": 93.75,
      "v": 63
    },
    {
      "midi": 55,
      "hit": false,
      "t": 166875,
      "d": 100,
      "v": 34
    },
    {
      "midi": 53,
      "hit": false,
      "t": 166875,
      "d": 131.25,
      "v": 30
    },
    {
      "midi": 67,
      "hit": false,
      "t": 167062.5,
      "d": 196.875,
      "v": 51
    },
    {
      "midi": 58,
      "hit": false,
      "t": 167250,
      "d": 75,
      "v": 54
    },
    {
      "midi": 62,
      "hit": false,
      "t": 167250,
      "d": 84.375,
      "v": 34
    },
    {
      "midi": 65,
      "hit": false,
      "t": 167250,
      "d": 103.125,
      "v": 38
    },
    {
      "midi": 70,
      "hit": false,
      "t": 167250,
      "d": 187.5,
      "v": 56
    },
    {
      "midi": 55,
      "hit": false,
      "t": 167259.375,
      "d": 78.125,
      "v": 33
    },
    {
      "midi": 67,
      "hit": false,
      "t": 167437.5,
      "d": 100,
      "v": 72
    },
    {
      "midi": 72,
      "hit": false,
      "t": 167625,
      "d": 340.625,
      "v": 67
    },
    {
      "midi": 38,
      "hit": false,
      "t": 167625,
      "d": 359.375,
      "v": 29
    },
    {
      "midi": 62,
      "hit": false,
      "t": 168000,
      "d": 62.5,
      "v": 29
    },
    {
      "midi": 60,
      "hit": false,
      "t": 168000,
      "d": 90.625,
      "v": 68
    },
    {
      "midi": 53,
      "hit": false,
      "t": 168000,
      "d": 118.75,
      "v": 53
    },
    {
      "midi": 57,
      "hit": false,
      "t": 168000,
      "d": 200,
      "v": 52
    },
    {
      "midi": 69,
      "hit": false,
      "t": 168200,
      "d": 153.125,
      "v": 43
    },
    {
      "midi": 60,
      "hit": false,
      "t": 168375,
      "d": 56.25,
      "v": 57
    },
    {
      "midi": 57,
      "hit": false,
      "t": 168375,
      "d": 62.5,
      "v": 44
    },
    {
      "midi": 62,
      "hit": false,
      "t": 168375,
      "d": 62.5,
      "v": 35
    },
    {
      "midi": 65,
      "hit": false,
      "t": 168375,
      "d": 62.5,
      "v": 35
    },
    {
      "midi": 72,
      "hit": false,
      "t": 168375,
      "d": 112.5,
      "v": 57
    },
    {
      "midi": 77,
      "hit": false,
      "t": 168562.5,
      "d": 103.125,
      "v": 80
    },
    {
      "midi": 38,
      "hit": false,
      "t": 168750,
      "d": 112.5,
      "v": 56
    },
    {
      "midi": 74,
      "hit": false,
      "t": 168750,
      "d": 771.875,
      "v": 64
    },
    {
      "midi": 62,
      "hit": false,
      "t": 169125,
      "d": 90.625,
      "v": 34
    },
    {
      "midi": 60,
      "hit": false,
      "t": 169125,
      "d": 93.75,
      "v": 63
    },
    {
      "midi": 57,
      "hit": false,
      "t": 169125,
      "d": 100,
      "v": 34
    },
    {
      "midi": 53,
      "hit": false,
      "t": 169125,
      "d": 131.25,
      "v": 30
    },
    {
      "midi": 69,
      "hit": false,
      "t": 169312.5,
      "d": 196.875,
      "v": 51
    },
    {
      "midi": 60,
      "hit": false,
      "t": 169500,
      "d": 75,
      "v": 54
    },
    {
      "midi": 62,
      "hit": false,
      "t": 169500,
      "d": 84.375,
      "v": 34
    },
    {
      "midi": 65,
      "hit": false,
      "t": 169500,
      "d": 103.125,
      "v": 38
    },
    {
      "midi": 72,
      "hit": false,
      "t": 169500,
      "d": 187.5,
      "v": 56
    },
    {
      "midi": 57,
      "hit": false,
      "t": 169509.375,
      "d": 78.125,
      "v": 33
    },
    {
      "midi": 69,
      "hit": false,
      "t": 169687.5,
      "d": 100,
      "v": 72
    },
    {
      "midi": 74,
      "hit": false,
      "t": 172125,
      "d": 362.5,
      "v": 48
    },
    {
      "midi": 38,
      "hit": false,
      "t": 172131.25,
      "d": 562.5,
      "v": 55
    },
    {
      "midi": 65,
      "hit": false,
      "t": 172506.25,
      "d": 312.5,
      "v": 51
    },
    {
      "midi": 57,
      "hit": false,
      "t": 172506.25,
      "d": 340.625,
      "v": 34
    },
    {
      "midi": 60,
      "hit": false,
      "t": 172506.25,
      "d": 340.625,
      "v": 49
    },
    {
      "midi": 62,
      "hit": false,
      "t": 172506.25,
      "d": 340.625,
      "v": 50
    },
    {
      "midi": 62,
      "hit": false,
      "t": 172878.125,
      "d": 115.625,
      "v": 53
    },
    {
      "midi": 65,
      "hit": false,
      "t": 172878.125,
      "d": 128.125,
      "v": 42
    },
    {
      "midi": 69,
      "hit": false,
      "t": 172881.25,
      "d": 121.875,
      "v": 40
    },
    {
      "midi": 60,
      "hit": false,
      "t": 172881.25,
      "d": 128.125,
      "v": 48
    },
    {
      "midi": 38,
      "hit": false,
      "t": 173256.25,
      "d": 465.625,
      "v": 55
    },
    {
      "midi": 72,
      "hit": false,
      "t": 173259.375,
      "d": 353.125,
      "v": 67
    },
    {
      "midi": 60,
      "hit": false,
      "t": 173631.25,
      "d": 171.875,
      "v": 41
    },
    {
      "midi": 62,
      "hit": false,
      "t": 173631.25,
      "d": 356.25,
      "v": 44
    },
    {
      "midi": 65,
      "hit": false,
      "t": 173631.25,
      "d": 356.25,
      "v": 52
    },
    {
      "midi": 57,
      "hit": false,
      "t": 174000,
      "d": 184.375,
      "v": 45
    },
    {
      "midi": 62,
      "hit": false,
      "t": 174006.25,
      "d": 137.5,
      "v": 48
    },
    {
      "midi": 60,
      "hit": false,
      "t": 174006.25,
      "d": 162.5,
      "v": 48
    },
    {
      "midi": 55,
      "hit": false,
      "t": 174362.5,
      "d": 703.125,
      "v": 83
    },
    {
      "midi": 70,
      "hit": false,
      "t": 174375,
      "d": 362.5,
      "v": 46
    },
    {
      "midi": 43,
      "hit": false,
      "t": 174381.25,
      "d": 562.5,
      "v": 53
    },
    {
      "midi": 58,
      "hit": false,
      "t": 174584.375,
      "d": 618.75,
      "v": 83
    },
    {
      "midi": 62,
      "hit": false,
      "t": 174753.125,
      "d": 428.125,
      "v": 83
    },
    {
      "midi": 58,
      "hit": false,
      "t": 174756.25,
      "d": 303.125,
      "v": 47
    },
    {
      "midi": 55,
      "hit": false,
      "t": 174756.25,
      "d": 312.5,
      "v": 32
    },
    {
      "midi": 65,
      "hit": false,
      "t": 174756.25,
      "d": 312.5,
      "v": 49
    },
    {
      "midi": 62,
      "hit": false,
      "t": 174756.25,
      "d": 340.625,
      "v": 48
    },
    {
      "midi": 67,
      "hit": false,
      "t": 174909.375,
      "d": 687.5,
      "v": 83
    },
    {
      "midi": 70,
      "hit": false,
      "t": 175109.375,
      "d": 506.25,
      "v": 83
    },
    {
      "midi": 62,
      "hit": false,
      "t": 175128.125,
      "d": 212.5,
      "v": 51
    },
    {
      "midi": 65,
      "hit": false,
      "t": 175128.125,
      "d": 237.5,
      "v": 40
    },
    {
      "midi": 58,
      "hit": false,
      "t": 175131.25,
      "d": 212.5,
      "v": 46
    },
    {
      "midi": 67,
      "hit": false,
      "t": 175131.25,
      "d": 243.75,
      "v": 38
    },
    {
      "midi": 74,
      "hit": false,
      "t": 175309.375,
      "d": 290.625,
      "v": 83
    },
    {
      "midi": 72,
      "hit": false,
      "t": 175500,
      "d": 340.625,
      "v": 64
    },
    {
      "midi": 36,
      "hit": false,
      "t": 175500,
      "d": 359.375,
      "v": 31
    },
    {
      "midi": 48,
      "hit": false,
      "t": 175537.5,
      "d": 675,
      "v": 83
    },
    {
      "midi": 52,
      "hit": false,
      "t": 175703.125,
      "d": 559.375,
      "v": 83
    },
    {
      "midi": 60,
      "hit": false,
      "t": 175875,
      "d": 62.5,
      "v": 31
    },
    {
      "midi": 58,
      "hit": false,
      "t": 175875,
      "d": 90.625,
      "v": 51
    },
    {
      "midi": 52,
      "hit": false,
      "t": 175875,
      "d": 118.75,
      "v": 45
    },
    {
      "midi": 55,
      "hit": false,
      "t": 175875,
      "d": 200,
      "v": 41
    },
    {
      "midi": 55,
      "hit": false,
      "t": 175887.5,
      "d": 706.25,
      "v": 83
    },
    {
      "midi": 60,
      "hit": false,
      "t": 176065.625,
      "d": 571.875,
      "v": 83
    },
    {
      "midi": 67,
      "hit": false,
      "t": 176075,
      "d": 153.125,
      "v": 45
    },
    {
      "midi": 64,
      "hit": false,
      "t": 176246.875,
      "d": 459.375,
      "v": 83
    },
    {
      "midi": 58,
      "hit": false,
      "t": 176250,
      "d": 56.25,
      "v": 59
    },
    {
      "midi": 55,
      "hit": false,
      "t": 176250,
      "d": 62.5,
      "v": 46
    },
    {
      "midi": 60,
      "hit": false,
      "t": 176250,
      "d": 62.5,
      "v": 37
    },
    {
      "midi": 64,
      "hit": false,
      "t": 176250,
      "d": 62.5,
      "v": 37
    },
    {
      "midi": 70,
      "hit": false,
      "t": 176250,
      "d": 112.5,
      "v": 59
    },
    {
      "midi": 76,
      "hit": false,
      "t": 176437.5,
      "d": 103.125,
      "v": 82
    },
    {
      "midi": 67,
      "hit": false,
      "t": 176437.5,
      "d": 537.5,
      "v": 83
    },
    {
      "midi": 53,
      "hit": false,
      "t": 176609.375,
      "d": 1968.75,
      "v": 83
    },
    {
      "midi": 77,
      "hit": false,
      "t": 176625,
      "d": 362.5,
      "v": 49
    },
    {
      "midi": 41,
      "hit": false,
      "t": 176631.25,
      "d": 562.5,
      "v": 46
    },
    {
      "midi": 57,
      "hit": false,
      "t": 176787.5,
      "d": 1837.5,
      "v": 83
    },
    {
      "midi": 60,
      "hit": false,
      "t": 176953.125,
      "d": 1921.875,
      "v": 83
    },
    {
      "midi": 65,
      "hit": false,
      "t": 177006.25,
      "d": 312.5,
      "v": 51
    },
    {
      "midi": 57,
      "hit": false,
      "t": 177006.25,
      "d": 340.625,
      "v": 35
    },
    {
      "midi": 60,
      "hit": false,
      "t": 177006.25,
      "d": 340.625,
      "v": 50
    },
    {
      "midi": 65,
      "hit": false,
      "t": 177150,
      "d": 1753.125,
      "v": 83
    },
    {
      "midi": 69,
      "hit": false,
      "t": 177337.5,
      "d": 1618.75,
      "v": 83
    },
    {
      "midi": 65,
      "hit": false,
      "t": 177378.125,
      "d": 159.375,
      "v": 54
    },
    {
      "midi": 60,
      "hit": false,
      "t": 177381.25,
      "d": 159.375,
      "v": 49
    },
    {
      "midi": 69,
      "hit": false,
      "t": 177381.25,
      "d": 181.25,
      "v": 41
    },
    {
      "midi": 72,
      "hit": false,
      "t": 177537.5,
      "d": 1434.375,
      "v": 83
    },
    {
      "midi": 77,
      "hit": false,
      "t": 177734.375,
      "d": 1775,
      "v": 83
    },
    {
      "midi": 41,
      "hit": false,
      "t": 177756.25,
      "d": 350,
      "v": 52
    },
    {
      "midi": 69,
      "hit": false,
      "t": 177759.375,
      "d": 346.875,
      "v": 68
    },
    {
      "midi": 57,
      "hit": false,
      "t": 178125,
      "d": 356.25,
      "v": 58
    },
    {
      "midi": 60,
      "hit": false,
      "t": 178131.25,
      "d": 171.875,
      "v": 42
    },
    {
      "midi": 65,
      "hit": false,
      "t": 178131.25,
      "d": 356.25,
      "v": 53
    },
    {
      "midi": 65,
      "hit": false,
      "t": 178500,
      "d": 181.25,
      "v": 30
    },
    {
      "midi": 69,
      "hit": false,
      "t": 178500,
      "d": 181.25,
      "v": 48
    },
    {
      "midi": 60,
      "hit": false,
      "t": 178506.25,
      "d": 162.5,
      "v": 46
    },
    {
      "midi": 72,
      "hit": false,
      "t": 178690.625,
      "d": 184.375,
      "v": 46
    },
    {
      "midi": 77,
      "hit": false,
      "t": 178875,
      "d": 362.5,
      "v": 49
    },
    {
      "midi": 55,
      "hit": false,
      "t": 178875,
      "d": 796.875,
      "v": 83
    },
    {
      "midi": 43,
      "hit": false,
      "t": 178881.25,
      "d": 562.5,
      "v": 46
    },
    {
      "midi": 58,
      "hit": false,
      "t": 179075,
      "d": 653.125,
      "v": 83
    },
    {
      "midi": 55,
      "hit": false,
      "t": 179256.25,
      "d": 296.875,
      "v": 35
    },
    {
      "midi": 65,
      "hit": false,
      "t": 179256.25,
      "d": 312.5,
      "v": 52
    },
    {
      "midi": 58,
      "hit": false,
      "t": 179256.25,
      "d": 340.625,
      "v": 50
    },
    {
      "midi": 62,
      "hit": false,
      "t": 179256.25,
      "d": 340.625,
      "v": 51
    },
    {
      "midi": 62,
      "hit": false,
      "t": 179265.625,
      "d": 843.75,
      "v": 83
    },
    {
      "midi": 67,
      "hit": false,
      "t": 179421.875,
      "d": 559.375,
      "v": 83
    },
    {
      "midi": 70,
      "hit": false,
      "t": 179618.75,
      "d": 415.625,
      "v": 83
    },
    {
      "midi": 62,
      "hit": false,
      "t": 179628.125,
      "d": 175,
      "v": 54
    },
    {
      "midi": 65,
      "hit": false,
      "t": 179628.125,
      "d": 175,
      "v": 43
    },
    {
      "midi": 55,
      "hit": false,
      "t": 179631.25,
      "d": 171.875,
      "v": 41
    },
    {
      "midi": 58,
      "hit": false,
      "t": 179631.25,
      "d": 171.875,
      "v": 49
    },
    {
      "midi": 74,
      "hit": false,
      "t": 179800,
      "d": 431.25,
      "v": 83
    },
    {
      "midi": 70,
      "hit": false,
      "t": 179812.5,
      "d": 184.375,
      "v": 49
    },
    {
      "midi": 57,
      "hit": false,
      "t": 179965.625,
      "d": 856.25,
      "v": 83
    },
    {
      "midi": 69,
      "hit": false,
      "t": 180000,
      "d": 340.625,
      "v": 64
    },
    {
      "midi": 45,
      "hit": false,
      "t": 180000,
      "d": 359.375,
      "v": 31
    },
    {
      "midi": 61,
      "hit": false,
      "t": 180187.5,
      "d": 643.75,
      "v": 83
    },
    {
      "midi": 64,
      "hit": false,
      "t": 180356.25,
      "d": 771.875,
      "v": 83
    },
    {
      "midi": 57,
      "hit": false,
      "t": 180375,
      "d": 62.5,
      "v": 31
    },
    {
      "midi": 55,
      "hit": false,
      "t": 180375,
      "d": 90.625,
      "v": 51
    },
    {
      "midi": 49,
      "hit": false,
      "t": 180375,
      "d": 118.75,
      "v": 45
    },
    {
      "midi": 52,
      "hit": false,
      "t": 180375,
      "d": 200,
      "v": 41
    },
    {
      "midi": 69,
      "hit": false,
      "t": 180546.875,
      "d": 596.875,
      "v": 83
    },
    {
      "midi": 64,
      "hit": false,
      "t": 180575,
      "d": 153.125,
      "v": 45
    },
    {
      "midi": 73,
      "hit": false,
      "t": 180734.375,
      "d": 437.5,
      "v": 83
    },
    {
      "midi": 55,
      "hit": false,
      "t": 180750,
      "d": 56.25,
      "v": 59
    },
    {
      "midi": 52,
      "hit": false,
      "t": 180750,
      "d": 62.5,
      "v": 46
    },
    {
      "midi": 57,
      "hit": false,
      "t": 180750,
      "d": 62.5,
      "v": 37
    },
    {
      "midi": 61,
      "hit": false,
      "t": 180750,
      "d": 62.5,
      "v": 37
    },
    {
      "midi": 67,
      "hit": false,
      "t": 180750,
      "d": 112.5,
      "v": 59
    },
    {
      "midi": 76,
      "hit": false,
      "t": 180928.125,
      "d": 434.375,
      "v": 83
    },
    {
      "midi": 73,
      "hit": false,
      "t": 180937.5,
      "d": 103.125,
      "v": 82
    },
    {
      "midi": 62,
      "hit": false,
      "t": 181137.5,
      "d": 1687.5,
      "v": 83
    },
    {
      "midi": 65,
      "hit": false,
      "t": 181303.125,
      "d": 1646.875,
      "v": 83
    },
    {
      "midi": 69,
      "hit": false,
      "t": 181500,
      "d": 1431.25,
      "v": 83
    },
    {
      "midi": 74,
      "hit": false,
      "t": 181665.625,
      "d": 1803.125,
      "v": 83
    },
    {
      "midi": 77,
      "hit": false,
      "t": 181856.25,
      "d": 1575,
      "v": 83
    },
    {
      "midi": 81,
      "hit": false,
      "t": 182031.25,
      "d": 1359.375,
      "v": 83
    },
    {
      "midi": 86,
      "hit": false,
      "t": 182225,
      "d": 1106.25,
      "v": 83
    },
    {
      "midi": 55,
      "hit": false,
      "t": 183353.125,
      "d": 918.75,
      "v": 83
    },
    {
      "midi": 74,
      "hit": false,
      "t": 183375,
      "d": 362.5,
      "v": 46
    },
    {
      "midi": 43,
      "hit": false,
      "t": 183381.25,
      "d": 562.5,
      "v": 53
    },
    {
      "midi": 58,
      "hit": false,
      "t": 183753.125,
      "d": 609.375,
      "v": 83
    },
    {
      "midi": 62,
      "hit": false,
      "t": 183756.25,
      "d": 303.125,
      "v": 47
    },
    {
      "midi": 58,
      "hit": false,
      "t": 183756.25,
      "d": 312.5,
      "v": 32
    },
    {
      "midi": 67,
      "hit": false,
      "t": 183756.25,
      "d": 312.5,
      "v": 48
    },
    {
      "midi": 67,
      "hit": false,
      "t": 184125,
      "d": 418.75,
      "v": 83
    },
    {
      "midi": 67,
      "hit": false,
      "t": 184128.125,
      "d": 212.5,
      "v": 51
    },
    {
      "midi": 62,
      "hit": false,
      "t": 184131.25,
      "d": 212.5,
      "v": 46
    },
    {
      "midi": 70,
      "hit": false,
      "t": 184131.25,
      "d": 243.75,
      "v": 38
    },
    {
      "midi": 69,
      "hit": false,
      "t": 184500,
      "d": 362.5,
      "v": 49
    },
    {
      "midi": 45,
      "hit": false,
      "t": 184506.25,
      "d": 562.5,
      "v": 46
    },
    {
      "midi": 57,
      "hit": false,
      "t": 184515.625,
      "d": 3043.75,
      "v": 83
    },
    {
      "midi": 57,
      "hit": false,
      "t": 184881.25,
      "d": 290.625,
      "v": 51
    },
    {
      "midi": 55,
      "hit": false,
      "t": 184881.25,
      "d": 303.125,
      "v": 50
    },
    {
      "midi": 52,
      "hit": false,
      "t": 184881.25,
      "d": 312.5,
      "v": 35
    },
    {
      "midi": 61,
      "hit": false,
      "t": 184881.25,
      "d": 312.5,
      "v": 52
    },
    {
      "midi": 61,
      "hit": false,
      "t": 184890.625,
      "d": 553.125,
      "v": 83
    },
    {
      "midi": 69,
      "hit": false,
      "t": 185196.875,
      "d": 2031.25,
      "v": 83
    },
    {
      "midi": 57,
      "hit": false,
      "t": 185253.125,
      "d": 159.375,
      "v": 54
    },
    {
      "midi": 61,
      "hit": false,
      "t": 185253.125,
      "d": 159.375,
      "v": 43
    },
    {
      "midi": 64,
      "hit": false,
      "t": 185256.25,
      "d": 181.25,
      "v": 41
    },
    {
      "midi": 55,
      "hit": false,
      "t": 185256.25,
      "d": 296.875,
      "v": 49
    },
    {
      "midi": 62,
      "hit": false,
      "t": 185621.875,
      "d": 2131.25,
      "v": 83
    },
    {
      "midi": 72,
      "hit": false,
      "t": 185625,
      "d": 340.625,
      "v": 67
    },
    {
      "midi": 38,
      "hit": false,
      "t": 185625,
      "d": 359.375,
      "v": 29
    },
    {
      "midi": 65,
      "hit": false,
      "t": 185953.125,
      "d": 1756.25,
      "v": 83
    },
    {
      "midi": 62,
      "hit": false,
      "t": 186000,
      "d": 62.5,
      "v": 29
    },
    {
      "midi": 60,
      "hit": false,
      "t": 186000,
      "d": 90.625,
      "v": 68
    },
    {
      "midi": 53,
      "hit": false,
      "t": 186000,
      "d": 118.75,
      "v": 53
    },
    {
      "midi": 57,
      "hit": false,
      "t": 186000,
      "d": 200,
      "v": 52
    },
    {
      "midi": 69,
      "hit": false,
      "t": 186200,
      "d": 153.125,
      "v": 43
    },
    {
      "midi": 60,
      "hit": false,
      "t": 186375,
      "d": 56.25,
      "v": 57
    },
    {
      "midi": 57,
      "hit": false,
      "t": 186375,
      "d": 62.5,
      "v": 44
    },
    {
      "midi": 62,
      "hit": false,
      "t": 186375,
      "d": 62.5,
      "v": 35
    },
    {
      "midi": 65,
      "hit": false,
      "t": 186375,
      "d": 62.5,
      "v": 35
    },
    {
      "midi": 72,
      "hit": false,
      "t": 186375,
      "d": 112.5,
      "v": 57
    },
    {
      "midi": 74,
      "hit": false,
      "t": 186387.5,
      "d": 1837.5,
      "v": 83
    },
    {
      "midi": 77,
      "hit": false,
      "t": 186562.5,
      "d": 103.125,
      "v": 80
    },
    {
      "midi": 38,
      "hit": false,
      "t": 186750,
      "d": 112.5,
      "v": 56
    },
    {
      "midi": 74,
      "hit": false,
      "t": 186750,
      "d": 771.875,
      "v": 64
    },
    {
      "midi": 77,
      "hit": false,
      "t": 186775,
      "d": 1456.25,
      "v": 83
    },
    {
      "midi": 62,
      "hit": false,
      "t": 187125,
      "d": 90.625,
      "v": 34
    },
    {
      "midi": 60,
      "hit": false,
      "t": 187125,
      "d": 93.75,
      "v": 63
    },
    {
      "midi": 57,
      "hit": false,
      "t": 187125,
      "d": 100,
      "v": 34
    },
    {
      "midi": 53,
      "hit": false,
      "t": 187125,
      "d": 131.25,
      "v": 30
    },
    {
      "midi": 81,
      "hit": false,
      "t": 187168.75,
      "d": 890.625,
      "v": 83
    },
    {
      "midi": 69,
      "hit": false,
      "t": 187312.5,
      "d": 196.875,
      "v": 51
    },
    {
      "midi": 60,
      "hit": false,
      "t": 187500,
      "d": 75,
      "v": 54
    },
    {
      "midi": 62,
      "hit": false,
      "t": 187500,
      "d": 84.375,
      "v": 34
    },
    {
      "midi": 65,
      "hit": false,
      "t": 187500,
      "d": 103.125,
      "v": 38
    },
    {
      "midi": 72,
      "hit": false,
      "t": 187500,
      "d": 187.5,
      "v": 56
    },
    {
      "midi": 57,
      "hit": false,
      "t": 187509.375,
      "d": 78.125,
      "v": 33
    },
    {
      "midi": 69,
      "hit": false,
      "t": 187531.25,
      "d": 696.875,
      "v": 83
    },
    {
      "midi": 69,
      "hit": false,
      "t": 187687.5,
      "d": 100,
      "v": 72
    },
    {
      "midi": 79,
      "hit": false,
      "t": 187875,
      "d": 362.5,
      "v": 49
    },
    {
      "midi": 43,
      "hit": false,
      "t": 187881.25,
      "d": 562.5,
      "v": 46
    },
    {
      "midi": 55,
      "hit": false,
      "t": 187893.75,
      "d": 1871.875,
      "v": 83
    },
    {
      "midi": 58,
      "hit": false,
      "t": 188234.375,
      "d": 546.875,
      "v": 83
    },
    {
      "midi": 67,
      "hit": false,
      "t": 188256.25,
      "d": 290.625,
      "v": 51
    },
    {
      "midi": 62,
      "hit": false,
      "t": 188256.25,
      "d": 303.125,
      "v": 50
    },
    {
      "midi": 58,
      "hit": false,
      "t": 188256.25,
      "d": 312.5,
      "v": 35
    },
    {
      "midi": 62,
      "hit": false,
      "t": 188606.25,
      "d": 415.625,
      "v": 83
    },
    {
      "midi": 67,
      "hit": false,
      "t": 188628.125,
      "d": 159.375,
      "v": 54
    },
    {
      "midi": 70,
      "hit": false,
      "t": 188631.25,
      "d": 181.25,
      "v": 41
    },
    {
      "midi": 62,
      "hit": false,
      "t": 188631.25,
      "d": 296.875,
      "v": 49
    },
    {
      "midi": 60,
      "hit": false,
      "t": 188956.25,
      "d": 1168.75,
      "v": 83
    },
    {
      "midi": 76,
      "hit": false,
      "t": 189000,
      "d": 340.625,
      "v": 64
    },
    {
      "midi": 36,
      "hit": false,
      "t": 189000,
      "d": 359.375,
      "v": 31
    },
    {
      "midi": 64,
      "hit": false,
      "t": 189365.625,
      "d": 787.5,
      "v": 83
    },
    {
      "midi": 60,
      "hit": false,
      "t": 189375,
      "d": 62.5,
      "v": 31
    },
    {
      "midi": 58,
      "hit": false,
      "t": 189375,
      "d": 90.625,
      "v": 54
    },
    {
      "midi": 52,
      "hit": false,
      "t": 189375,
      "d": 118.75,
      "v": 55
    },
    {
      "midi": 55,
      "hit": false,
      "t": 189375,
      "d": 200,
      "v": 54
    },
    {
      "midi": 67,
      "hit": false,
      "t": 189575,
      "d": 153.125,
      "v": 45
    },
    {
      "midi": 67,
      "hit": false,
      "t": 189603.125,
      "d": 828.125,
      "v": 83
    },
    {
      "midi": 72,
      "hit": false,
      "t": 189693.75,
      "d": 556.25,
      "v": 83
    },
    {
      "midi": 58,
      "hit": false,
      "t": 189750,
      "d": 56.25,
      "v": 54
    },
    {
      "midi": 55,
      "hit": false,
      "t": 189750,
      "d": 62.5,
      "v": 46
    },
    {
      "midi": 60,
      "hit": false,
      "t": 189750,
      "d": 62.5,
      "v": 37
    },
    {
      "midi": 64,
      "hit": false,
      "t": 189750,
      "d": 62.5,
      "v": 37
    },
    {
      "midi": 70,
      "hit": false,
      "t": 189750,
      "d": 112.5,
      "v": 59
    },
    {
      "midi": 76,
      "hit": false,
      "t": 189750,
      "d": 475,
      "v": 83
    },
    {
      "midi": 76,
      "hit": false,
      "t": 189937.5,
      "d": 103.125,
      "v": 67
    },
    {
      "midi": 77,
      "hit": false,
      "t": 190125,
      "d": 362.5,
      "v": 49
    },
    {
      "midi": 41,
      "hit": false,
      "t": 190131.25,
      "d": 562.5,
      "v": 46
    },
    {
      "midi": 53,
      "hit": false,
      "t": 190150,
      "d": 1946.875,
      "v": 83
    },
    {
      "midi": 57,
      "hit": false,
      "t": 190456.25,
      "d": 1759.375,
      "v": 83
    },
    {
      "midi": 57,
      "hit": false,
      "t": 190506.25,
      "d": 296.875,
      "v": 35
    },
    {
      "midi": 65,
      "hit": false,
      "t": 190506.25,
      "d": 312.5,
      "v": 51
    },
    {
      "midi": 60,
      "hit": false,
      "t": 190506.25,
      "d": 340.625,
      "v": 50
    },
    {
      "midi": 60,
      "hit": false,
      "t": 190843.75,
      "d": 1843.75,
      "v": 83
    },
    {
      "midi": 65,
      "hit": false,
      "t": 190878.125,
      "d": 175,
      "v": 54
    },
    {
      "midi": 57,
      "hit": false,
      "t": 190881.25,
      "d": 171.875,
      "v": 41
    },
    {
      "midi": 60,
      "hit": false,
      "t": 190881.25,
      "d": 171.875,
      "v": 49
    },
    {
      "midi": 72,
      "hit": false,
      "t": 191062.5,
      "d": 184.375,
      "v": 49
    },
    {
      "midi": 65,
      "hit": false,
      "t": 191075,
      "d": 406.25,
      "v": 83
    },
    {
      "midi": 69,
      "hit": false,
      "t": 191156.25,
      "d": 503.125,
      "v": 83
    },
    {
      "midi": 72,
      "hit": false,
      "t": 191165.625,
      "d": 762.5,
      "v": 83
    },
    {
      "midi": 77,
      "hit": false,
      "t": 191250,
      "d": 340.625,
      "v": 64
    },
    {
      "midi": 38,
      "hit": false,
      "t": 191250,
      "d": 359.375,
      "v": 31
    },
    {
      "midi": 77,
      "hit": false,
      "t": 191253.125,
      "d": 1478.125,
      "v": 83
    },
    {
      "midi": 65,
      "hit": false,
      "t": 191600,
      "d": 800,
      "v": 83
    },
    {
      "midi": 65,
      "hit": false,
      "t": 191625,
      "d": 62.5,
      "v": 31
    },
    {
      "midi": 62,
      "hit": false,
      "t": 191625,
      "d": 90.625,
      "v": 54
    },
    {
      "midi": 53,
      "hit": false,
      "t": 191625,
      "d": 118.75,
      "v": 55
    },
    {
      "midi": 57,
      "hit": false,
      "t": 191625,
      "d": 200,
      "v": 54
    },
    {
      "midi": 69,
      "hit": false,
      "t": 191825,
      "d": 153.125,
      "v": 45
    },
    {
      "midi": 69,
      "hit": false,
      "t": 191987.5,
      "d": 421.875,
      "v": 83
    },
    {
      "midi": 62,
      "hit": false,
      "t": 192000,
      "d": 56.25,
      "v": 54
    },
    {
      "midi": 57,
      "hit": false,
      "t": 192000,
      "d": 62.5,
      "v": 46
    },
    {
      "midi": 65,
      "hit": false,
      "t": 192000,
      "d": 62.5,
      "v": 37
    },
    {
      "midi": 74,
      "hit": false,
      "t": 192000,
      "d": 112.5,
      "v": 59
    },
    {
      "midi": 77,
      "hit": false,
      "t": 192187.5,
      "d": 103.125,
      "v": 67
    },
    {
      "midi": 55,
      "hit": false,
      "t": 192368.75,
      "d": 1981.25,
      "v": 83
    },
    {
      "midi": 74,
      "hit": false,
      "t": 192375,
      "d": 362.5,
      "v": 49
    },
    {
      "midi": 43,
      "hit": false,
      "t": 192381.25,
      "d": 562.5,
      "v": 46
    },
    {
      "midi": 58,
      "hit": false,
      "t": 192743.75,
      "d": 1593.75,
      "v": 83
    },
    {
      "midi": 62,
      "hit": false,
      "t": 192756.25,
      "d": 290.625,
      "v": 51
    },
    {
      "midi": 58,
      "hit": false,
      "t": 192756.25,
      "d": 303.125,
      "v": 50
    },
    {
      "midi": 55,
      "hit": false,
      "t": 192756.25,
      "d": 312.5,
      "v": 35
    },
    {
      "midi": 65,
      "hit": false,
      "t": 192756.25,
      "d": 312.5,
      "v": 52
    },
    {
      "midi": 62,
      "hit": false,
      "t": 193128.125,
      "d": 159.375,
      "v": 54
    },
    {
      "midi": 65,
      "hit": false,
      "t": 193128.125,
      "d": 159.375,
      "v": 43
    },
    {
      "midi": 67,
      "hit": false,
      "t": 193131.25,
      "d": 181.25,
      "v": 41
    },
    {
      "midi": 58,
      "hit": false,
      "t": 193131.25,
      "d": 296.875,
      "v": 49
    },
    {
      "midi": 62,
      "hit": false,
      "t": 193137.5,
      "d": 1515.625,
      "v": 83
    },
    {
      "midi": 67,
      "hit": false,
      "t": 193490.625,
      "d": 525,
      "v": 83
    },
    {
      "midi": 71,
      "hit": false,
      "t": 193500,
      "d": 362.5,
      "v": 46
    },
    {
      "midi": 40,
      "hit": false,
      "t": 193506.25,
      "d": 562.5,
      "v": 53
    },
    {
      "midi": 74,
      "hit": false,
      "t": 193868.75,
      "d": 825,
      "v": 83
    },
    {
      "midi": 59,
      "hit": false,
      "t": 193881.25,
      "d": 303.125,
      "v": 47
    },
    {
      "midi": 56,
      "hit": false,
      "t": 193881.25,
      "d": 312.5,
      "v": 32
    },
    {
      "midi": 64,
      "hit": false,
      "t": 193881.25,
      "d": 312.5,
      "v": 48
    },
    {
      "midi": 76,
      "hit": false,
      "t": 193884.375,
      "d": 1153.125,
      "v": 83
    },
    {
      "midi": 67,
      "hit": false,
      "t": 194231.25,
      "d": 418.75,
      "v": 83
    },
    {
      "midi": 64,
      "hit": false,
      "t": 194253.125,
      "d": 212.5,
      "v": 51
    },
    {
      "midi": 59,
      "hit": false,
      "t": 194256.25,
      "d": 212.5,
      "v": 46
    },
    {
      "midi": 68,
      "hit": false,
      "t": 194256.25,
      "d": 243.75,
      "v": 38
    },
    {
      "midi": 57,
      "hit": false,
      "t": 194625,
      "d": 1912.5,
      "v": 83
    },
    {
      "midi": 61,
      "hit": false,
      "t": 195021.875,
      "d": 1690.625,
      "v": 83
    },
    {
      "midi": 64,
      "hit": false,
      "t": 195381.25,
      "d": 1384.375,
      "v": 83
    },
    {
      "midi": 69,
      "hit": false,
      "t": 195706.25,
      "d": 221.875,
      "v": 83
    },
    {
      "midi": 81,
      "hit": false,
      "t": 195731.25,
      "d": 1034.375,
      "v": 83
    },
    {
      "midi": 70,
      "hit": false,
      "t": 196875,
      "d": 362.5,
      "v": 47
    },
    {
      "midi": 43,
      "hit": false,
      "t": 196881.25,
      "d": 562.5,
      "v": 54
    },
    {
      "midi": 55,
      "hit": false,
      "t": 196890.625,
      "d": 1731.25,
      "v": 83
    },
    {
      "midi": 65,
      "hit": false,
      "t": 197256.25,
      "d": 312.5,
      "v": 50
    },
    {
      "midi": 55,
      "hit": false,
      "t": 197256.25,
      "d": 340.625,
      "v": 33
    },
    {
      "midi": 58,
      "hit": false,
      "t": 197256.25,
      "d": 340.625,
      "v": 48
    },
    {
      "midi": 62,
      "hit": false,
      "t": 197256.25,
      "d": 340.625,
      "v": 49
    },
    {
      "midi": 67,
      "hit": false,
      "t": 197271.875,
      "d": 309.375,
      "v": 83
    },
    {
      "midi": 74,
      "hit": false,
      "t": 197287.5,
      "d": 271.875,
      "v": 83
    },
    {
      "midi": 70,
      "hit": false,
      "t": 197290.625,
      "d": 250,
      "v": 83
    },
    {
      "midi": 62,
      "hit": false,
      "t": 197628.125,
      "d": 115.625,
      "v": 52
    },
    {
      "midi": 65,
      "hit": false,
      "t": 197628.125,
      "d": 128.125,
      "v": 41
    },
    {
      "midi": 67,
      "hit": false,
      "t": 197631.25,
      "d": 121.875,
      "v": 39
    },
    {
      "midi": 58,
      "hit": false,
      "t": 197631.25,
      "d": 128.125,
      "v": 47
    },
    {
      "midi": 70,
      "hit": false,
      "t": 197653.125,
      "d": 1446.875,
      "v": 83
    },
    {
      "midi": 67,
      "hit": false,
      "t": 197659.375,
      "d": 1465.625,
      "v": 83
    },
    {
      "midi": 74,
      "hit": false,
      "t": 197665.625,
      "d": 1403.125,
      "v": 83
    },
    {
      "midi": 43,
      "hit": false,
      "t": 198006.25,
      "d": 465.625,
      "v": 54
    },
    {
      "midi": 67,
      "hit": false,
      "t": 198009.375,
      "d": 353.125,
      "v": 66
    },
    {
      "midi": 58,
      "hit": false,
      "t": 198018.75,
      "d": 765.625,
      "v": 83
    },
    {
      "midi": 58,
      "hit": false,
      "t": 198381.25,
      "d": 171.875,
      "v": 40
    },
    {
      "midi": 65,
      "hit": false,
      "t": 198381.25,
      "d": 196.875,
      "v": 51
    },
    {
      "midi": 62,
      "hit": false,
      "t": 198381.25,
      "d": 209.375,
      "v": 43
    },
    {
      "midi": 62,
      "hit": false,
      "t": 198403.125,
      "d": 368.75,
      "v": 83
    },
    {
      "midi": 79,
      "hit": false,
      "t": 198743.75,
      "d": 253.125,
      "v": 83
    },
    {
      "midi": 58,
      "hit": false,
      "t": 198756.25,
      "d": 162.5,
      "v": 50
    },
    {
      "midi": 55,
      "hit": false,
      "t": 198943.75,
      "d": 162.5,
      "v": 60
    },
    {
      "midi": 72,
      "hit": false,
      "t": 199125,
      "d": 362.5,
      "v": 47
    },
    {
      "midi": 50,
      "hit": false,
      "t": 199125,
      "d": 1796.875,
      "v": 83
    },
    {
      "midi": 38,
      "hit": false,
      "t": 199131.25,
      "d": 562.5,
      "v": 54
    },
    {
      "midi": 65,
      "hit": false,
      "t": 199506.25,
      "d": 312.5,
      "v": 50
    },
    {
      "midi": 57,
      "hit": false,
      "t": 199506.25,
      "d": 340.625,
      "v": 33
    },
    {
      "midi": 60,
      "hit": false,
      "t": 199506.25,
      "d": 340.625,
      "v": 48
    },
    {
      "midi": 62,
      "hit": false,
      "t": 199506.25,
      "d": 340.625,
      "v": 49
    },
    {
      "midi": 65,
      "hit": false,
      "t": 199534.375,
      "d": 181.25,
      "v": 83
    },
    {
      "midi": 69,
      "hit": false,
      "t": 199543.75,
      "d": 165.625,
      "v": 83
    },
    {
      "midi": 62,
      "hit": false,
      "t": 199546.875,
      "d": 181.25,
      "v": 83
    },
    {
      "midi": 62,
      "hit": false,
      "t": 199878.125,
      "d": 115.625,
      "v": 52
    },
    {
      "midi": 65,
      "hit": false,
      "t": 199878.125,
      "d": 128.125,
      "v": 41
    },
    {
      "midi": 69,
      "hit": false,
      "t": 199881.25,
      "d": 121.875,
      "v": 39
    },
    {
      "midi": 60,
      "hit": false,
      "t": 199881.25,
      "d": 128.125,
      "v": 47
    },
    {
      "midi": 65,
      "hit": false,
      "t": 199921.875,
      "d": 1387.5,
      "v": 83
    },
    {
      "midi": 62,
      "hit": false,
      "t": 199925,
      "d": 1384.375,
      "v": 83
    },
    {
      "midi": 69,
      "hit": false,
      "t": 199928.125,
      "d": 1425,
      "v": 83
    },
    {
      "midi": 53,
      "hit": false,
      "t": 200221.875,
      "d": 862.5,
      "v": 83
    },
    {
      "midi": 38,
      "hit": false,
      "t": 200256.25,
      "d": 465.625,
      "v": 54
    },
    {
      "midi": 69,
      "hit": false,
      "t": 200259.375,
      "d": 353.125,
      "v": 66
    },
    {
      "midi": 60,
      "hit": false,
      "t": 200631.25,
      "d": 171.875,
      "v": 40
    },
    {
      "midi": 65,
      "hit": false,
      "t": 200631.25,
      "d": 196.875,
      "v": 51
    },
    {
      "midi": 62,
      "hit": false,
      "t": 200631.25,
      "d": 209.375,
      "v": 43
    },
    {
      "midi": 57,
      "hit": false,
      "t": 200653.125,
      "d": 734.375,
      "v": 83
    },
    {
      "midi": 74,
      "hit": false,
      "t": 200987.5,
      "d": 490.625,
      "v": 83
    },
    {
      "midi": 60,
      "hit": false,
      "t": 201006.25,
      "d": 162.5,
      "v": 50
    },
    {
      "midi": 57,
      "hit": false,
      "t": 201193.75,
      "d": 162.5,
      "v": 60
    },
    {
      "midi": 52,
      "hit": false,
      "t": 201359.375,
      "d": 828.125,
      "v": 83
    },
    {
      "midi": 71,
      "hit": false,
      "t": 201375,
      "d": 340.625,
      "v": 64
    },
    {
      "midi": 40,
      "hit": false,
      "t": 201375,
      "d": 359.375,
      "v": 31
    },
    {
      "midi": 59,
      "hit": false,
      "t": 201750,
      "d": 62.5,
      "v": 31
    },
    {
      "midi": 56,
      "hit": false,
      "t": 201750,
      "d": 90.625,
      "v": 51
    },
    {
      "midi": 50,
      "hit": false,
      "t": 201750,
      "d": 118.75,
      "v": 45
    },
    {
      "midi": 52,
      "hit": false,
      "t": 201750,
      "d": 200,
      "v": 41
    },
    {
      "midi": 64,
      "hit": false,
      "t": 201750,
      "d": 231.25,
      "v": 83
    },
    {
      "midi": 71,
      "hit": false,
      "t": 201750,
      "d": 243.75,
      "v": 83
    },
    {
      "midi": 68,
      "hit": false,
      "t": 201759.375,
      "d": 215.625,
      "v": 83
    },
    {
      "midi": 64,
      "hit": false,
      "t": 201950,
      "d": 153.125,
      "v": 45
    },
    {
      "midi": 56,
      "hit": false,
      "t": 202125,
      "d": 56.25,
      "v": 59
    },
    {
      "midi": 52,
      "hit": false,
      "t": 202125,
      "d": 62.5,
      "v": 46
    },
    {
      "midi": 59,
      "hit": false,
      "t": 202125,
      "d": 62.5,
      "v": 37
    },
    {
      "midi": 62,
      "hit": false,
      "t": 202125,
      "d": 62.5,
      "v": 37
    },
    {
      "midi": 68,
      "hit": false,
      "t": 202125,
      "d": 112.5,
      "v": 59
    },
    {
      "midi": 71,
      "hit": false,
      "t": 202125,
      "d": 412.5,
      "v": 83
    },
    {
      "midi": 68,
      "hit": false,
      "t": 202137.5,
      "d": 371.875,
      "v": 83
    },
    {
      "midi": 64,
      "hit": false,
      "t": 202140.625,
      "d": 334.375,
      "v": 83
    },
    {
      "midi": 74,
      "hit": false,
      "t": 202312.5,
      "d": 103.125,
      "v": 82
    },
    {
      "midi": 73,
      "hit": false,
      "t": 202500,
      "d": 340.625,
      "v": 64
    },
    {
      "midi": 45,
      "hit": false,
      "t": 202500,
      "d": 359.375,
      "v": 31
    },
    {
      "midi": 57,
      "hit": false,
      "t": 202500,
      "d": 2903.125,
      "v": 83
    },
    {
      "midi": 57,
      "hit": false,
      "t": 202875,
      "d": 62.5,
      "v": 31
    },
    {
      "midi": 55,
      "hit": false,
      "t": 202875,
      "d": 90.625,
      "v": 54
    },
    {
      "midi": 49,
      "hit": false,
      "t": 202875,
      "d": 118.75,
      "v": 55
    },
    {
      "midi": 52,
      "hit": false,
      "t": 202875,
      "d": 200,
      "v": 54
    },
    {
      "midi": 61,
      "hit": false,
      "t": 202884.375,
      "d": 556.25,
      "v": 83
    },
    {
      "midi": 64,
      "hit": false,
      "t": 203075,
      "d": 153.125,
      "v": 45
    },
    {
      "midi": 55,
      "hit": false,
      "t": 203250,
      "d": 56.25,
      "v": 54
    },
    {
      "midi": 52,
      "hit": false,
      "t": 203250,
      "d": 62.5,
      "v": 46
    },
    {
      "midi": 57,
      "hit": false,
      "t": 203250,
      "d": 62.5,
      "v": 37
    },
    {
      "midi": 61,
      "hit": false,
      "t": 203250,
      "d": 62.5,
      "v": 37
    },
    {
      "midi": 67,
      "hit": false,
      "t": 203250,
      "d": 112.5,
      "v": 59
    },
    {
      "midi": 64,
      "hit": false,
      "t": 203284.375,
      "d": 412.5,
      "v": 83
    },
    {
      "midi": 73,
      "hit": false,
      "t": 203437.5,
      "d": 103.125,
      "v": 67
    },
    {
      "midi": 77,
      "hit": false,
      "t": 203625,
      "d": 340.625,
      "v": 64
    },
    {
      "midi": 38,
      "hit": false,
      "t": 203625,
      "d": 359.375,
      "v": 31
    },
    {
      "midi": 62,
      "hit": false,
      "t": 203637.5,
      "d": 1737.5,
      "v": 83
    },
    {
      "midi": 65,
      "hit": false,
      "t": 204000,
      "d": 62.5,
      "v": 31
    },
    {
      "midi": 62,
      "hit": false,
      "t": 204000,
      "d": 90.625,
      "v": 54
    },
    {
      "midi": 53,
      "hit": false,
      "t": 204000,
      "d": 118.75,
      "v": 55
    },
    {
      "midi": 57,
      "hit": false,
      "t": 204000,
      "d": 200,
      "v": 54
    },
    {
      "midi": 65,
      "hit": false,
      "t": 204018.75,
      "d": 1353.125,
      "v": 83
    },
    {
      "midi": 69,
      "hit": false,
      "t": 204200,
      "d": 153.125,
      "v": 45
    },
    {
      "midi": 62,
      "hit": false,
      "t": 204375,
      "d": 56.25,
      "v": 54
    },
    {
      "midi": 57,
      "hit": false,
      "t": 204375,
      "d": 62.5,
      "v": 46
    },
    {
      "midi": 65,
      "hit": false,
      "t": 204375,
      "d": 62.5,
      "v": 37
    },
    {
      "midi": 74,
      "hit": false,
      "t": 204375,
      "d": 112.5,
      "v": 59
    },
    {
      "midi": 74,
      "hit": false,
      "t": 204384.375,
      "d": 1215.625,
      "v": 83
    },
    {
      "midi": 77,
      "hit": false,
      "t": 204562.5,
      "d": 103.125,
      "v": 67
    },
    {
      "midi": 77,
      "hit": false,
      "t": 204750,
      "d": 362.5,
      "v": 45
    },
    {
      "midi": 38,
      "hit": false,
      "t": 204756.25,
      "d": 562.5,
      "v": 52
    },
    {
      "midi": 86,
      "hit": false,
      "t": 204771.875,
      "d": 815.625,
      "v": 83
    },
    {
      "midi": 65,
      "hit": false,
      "t": 205131.25,
      "d": 312.5,
      "v": 48
    },
    {
      "midi": 57,
      "hit": false,
      "t": 205131.25,
      "d": 340.625,
      "v": 31
    },
    {
      "midi": 60,
      "hit": false,
      "t": 205131.25,
      "d": 340.625,
      "v": 46
    },
    {
      "midi": 62,
      "hit": false,
      "t": 205131.25,
      "d": 340.625,
      "v": 47
    },
    {
      "midi": 62,
      "hit": false,
      "t": 205503.125,
      "d": 153.125,
      "v": 50
    },
    {
      "midi": 65,
      "hit": false,
      "t": 205503.125,
      "d": 153.125,
      "v": 39
    },
    {
      "midi": 69,
      "hit": false,
      "t": 205506.25,
      "d": 121.875,
      "v": 37
    },
    {
      "midi": 60,
      "hit": false,
      "t": 205506.25,
      "d": 137.5,
      "v": 45
    },
    {
      "midi": 77,
      "hit": false,
      "t": 205875,
      "d": 340.625,
      "v": 64
    },
    {
      "midi": 43,
      "hit": false,
      "t": 205875,
      "d": 359.375,
      "v": 31
    },
    {
      "midi": 62,
      "hit": false,
      "t": 206250,
      "d": 62.5,
      "v": 31
    },
    {
      "midi": 58,
      "hit": false,
      "t": 206250,
      "d": 90.625,
      "v": 54
    },
    {
      "midi": 53,
      "hit": false,
      "t": 206250,
      "d": 118.75,
      "v": 55
    },
    {
      "midi": 55,
      "hit": false,
      "t": 206250,
      "d": 200,
      "v": 54
    },
    {
      "midi": 67,
      "hit": false,
      "t": 206450,
      "d": 153.125,
      "v": 45
    },
    {
      "midi": 58,
      "hit": false,
      "t": 206625,
      "d": 56.25,
      "v": 54
    },
    {
      "midi": 55,
      "hit": false,
      "t": 206625,
      "d": 62.5,
      "v": 46
    },
    {
      "midi": 62,
      "hit": false,
      "t": 206625,
      "d": 62.5,
      "v": 37
    },
    {
      "midi": 65,
      "hit": false,
      "t": 206625,
      "d": 62.5,
      "v": 37
    },
    {
      "midi": 70,
      "hit": false,
      "t": 206625,
      "d": 112.5,
      "v": 59
    },
    {
      "midi": 77,
      "hit": false,
      "t": 206812.5,
      "d": 103.125,
      "v": 67
    },
    {
      "midi": 77,
      "hit": false,
      "t": 207000,
      "d": 340.625,
      "v": 64
    },
    {
      "midi": 43,
      "hit": false,
      "t": 207000,
      "d": 359.375,
      "v": 31
    },
    {
      "midi": 62,
      "hit": false,
      "t": 207375,
      "d": 62.5,
      "v": 31
    },
    {
      "midi": 58,
      "hit": false,
      "t": 207375,
      "d": 90.625,
      "v": 54
    },
    {
      "midi": 53,
      "hit": false,
      "t": 207375,
      "d": 118.75,
      "v": 55
    },
    {
      "midi": 55,
      "hit": false,
      "t": 207375,
      "d": 200,
      "v": 54
    },
    {
      "midi": 67,
      "hit": false,
      "t": 207575,
      "d": 153.125,
      "v": 45
    },
    {
      "midi": 58,
      "hit": false,
      "t": 207750,
      "d": 56.25,
      "v": 54
    },
    {
      "midi": 55,
      "hit": false,
      "t": 207750,
      "d": 62.5,
      "v": 46
    },
    {
      "midi": 62,
      "hit": false,
      "t": 207750,
      "d": 62.5,
      "v": 37
    },
    {
      "midi": 65,
      "hit": false,
      "t": 207750,
      "d": 62.5,
      "v": 37
    },
    {
      "midi": 70,
      "hit": false,
      "t": 207750,
      "d": 112.5,
      "v": 59
    },
    {
      "midi": 77,
      "hit": false,
      "t": 207937.5,
      "d": 103.125,
      "v": 67
    },
    {
      "midi": 77,
      "hit": false,
      "t": 208125,
      "d": 340.625,
      "v": 64
    },
    {
      "midi": 38,
      "hit": false,
      "t": 208125,
      "d": 359.375,
      "v": 31
    },
    {
      "midi": 62,
      "hit": false,
      "t": 208500,
      "d": 62.5,
      "v": 31
    },
    {
      "midi": 60,
      "hit": false,
      "t": 208500,
      "d": 90.625,
      "v": 54
    },
    {
      "midi": 53,
      "hit": false,
      "t": 208500,
      "d": 118.75,
      "v": 55
    },
    {
      "midi": 57,
      "hit": false,
      "t": 208500,
      "d": 200,
      "v": 54
    },
    {
      "midi": 69,
      "hit": false,
      "t": 208700,
      "d": 153.125,
      "v": 45
    },
    {
      "midi": 60,
      "hit": false,
      "t": 208875,
      "d": 56.25,
      "v": 54
    },
    {
      "midi": 57,
      "hit": false,
      "t": 208875,
      "d": 62.5,
      "v": 46
    },
    {
      "midi": 62,
      "hit": false,
      "t": 208875,
      "d": 62.5,
      "v": 37
    },
    {
      "midi": 65,
      "hit": false,
      "t": 208875,
      "d": 62.5,
      "v": 37
    },
    {
      "midi": 72,
      "hit": false,
      "t": 208875,
      "d": 112.5,
      "v": 59
    },
    {
      "midi": 77,
      "hit": false,
      "t": 209062.5,
      "d": 103.125,
      "v": 67
    },
    {
      "midi": 74,
      "hit": false,
      "t": 209250,
      "d": 340.625,
      "v": 64
    },
    {
      "midi": 38,
      "hit": false,
      "t": 209250,
      "d": 359.375,
      "v": 31
    },
    {
      "midi": 62,
      "hit": false,
      "t": 209625,
      "d": 62.5,
      "v": 31
    },
    {
      "midi": 60,
      "hit": false,
      "t": 209625,
      "d": 90.625,
      "v": 51
    },
    {
      "midi": 53,
      "hit": false,
      "t": 209625,
      "d": 118.75,
      "v": 45
    },
    {
      "midi": 57,
      "hit": false,
      "t": 209625,
      "d": 200,
      "v": 41
    },
    {
      "midi": 69,
      "hit": false,
      "t": 209825,
      "d": 153.125,
      "v": 45
    },
    {
      "midi": 60,
      "hit": false,
      "t": 210000,
      "d": 56.25,
      "v": 59
    },
    {
      "midi": 57,
      "hit": false,
      "t": 210000,
      "d": 62.5,
      "v": 46
    },
    {
      "midi": 62,
      "hit": false,
      "t": 210000,
      "d": 62.5,
      "v": 37
    },
    {
      "midi": 65,
      "hit": false,
      "t": 210000,
      "d": 62.5,
      "v": 37
    },
    {
      "midi": 72,
      "hit": false,
      "t": 210000,
      "d": 112.5,
      "v": 59
    },
    {
      "midi": 77,
      "hit": false,
      "t": 210187.5,
      "d": 103.125,
      "v": 82
    },
    {
      "midi": 74,
      "hit": false,
      "t": 210375,
      "d": 362.5,
      "v": 45
    },
    {
      "midi": 40,
      "hit": false,
      "t": 210381.25,
      "d": 562.5,
      "v": 52
    },
    {
      "midi": 62,
      "hit": false,
      "t": 210756.25,
      "d": 312.5,
      "v": 48
    },
    {
      "midi": 52,
      "hit": false,
      "t": 210756.25,
      "d": 340.625,
      "v": 31
    },
    {
      "midi": 56,
      "hit": false,
      "t": 210756.25,
      "d": 340.625,
      "v": 46
    },
    {
      "midi": 59,
      "hit": false,
      "t": 210756.25,
      "d": 340.625,
      "v": 47
    },
    {
      "midi": 59,
      "hit": false,
      "t": 211128.125,
      "d": 153.125,
      "v": 50
    },
    {
      "midi": 62,
      "hit": false,
      "t": 211128.125,
      "d": 153.125,
      "v": 39
    },
    {
      "midi": 64,
      "hit": false,
      "t": 211131.25,
      "d": 121.875,
      "v": 37
    },
    {
      "midi": 56,
      "hit": false,
      "t": 211131.25,
      "d": 137.5,
      "v": 45
    },
    {
      "midi": 67,
      "hit": false,
      "t": 211500,
      "d": 362.5,
      "v": 46
    },
    {
      "midi": 45,
      "hit": false,
      "t": 211506.25,
      "d": 562.5,
      "v": 53
    },
    {
      "midi": 55,
      "hit": false,
      "t": 211881.25,
      "d": 303.125,
      "v": 47
    },
    {
      "midi": 52,
      "hit": false,
      "t": 211881.25,
      "d": 312.5,
      "v": 32
    },
    {
      "midi": 61,
      "hit": false,
      "t": 211881.25,
      "d": 312.5,
      "v": 49
    },
    {
      "midi": 57,
      "hit": false,
      "t": 211881.25,
      "d": 340.625,
      "v": 48
    },
    {
      "midi": 57,
      "hit": false,
      "t": 212253.125,
      "d": 212.5,
      "v": 51
    },
    {
      "midi": 61,
      "hit": false,
      "t": 212253.125,
      "d": 237.5,
      "v": 40
    },
    {
      "midi": 55,
      "hit": false,
      "t": 212256.25,
      "d": 212.5,
      "v": 46
    },
    {
      "midi": 64,
      "hit": false,
      "t": 212256.25,
      "d": 243.75,
      "v": 38
    },
    {
      "midi": 77,
      "hit": false,
      "t": 212625,
      "d": 362.5,
      "v": 49
    },
    {
      "midi": 38,
      "hit": false,
      "t": 212631.25,
      "d": 562.5,
      "v": 46
    },
    {
      "midi": 57,
      "hit": false,
      "t": 213006.25,
      "d": 296.875,
      "v": 35
    },
    {
      "midi": 65,
      "hit": false,
      "t": 213006.25,
      "d": 312.5,
      "v": 52
    },
    {
      "midi": 60,
      "hit": false,
      "t": 213006.25,
      "d": 340.625,
      "v": 50
    },
    {
      "midi": 62,
      "hit": false,
      "t": 213006.25,
      "d": 340.625,
      "v": 51
    },
    {
      "midi": 62,
      "hit": false,
      "t": 213378.125,
      "d": 175,
      "v": 54
    },
    {
      "midi": 65,
      "hit": false,
      "t": 213378.125,
      "d": 175,
      "v": 43
    },
    {
      "midi": 57,
      "hit": false,
      "t": 213381.25,
      "d": 171.875,
      "v": 41
    },
    {
      "midi": 60,
      "hit": false,
      "t": 213381.25,
      "d": 171.875,
      "v": 49
    },
    {
      "midi": 72,
      "hit": false,
      "t": 213562.5,
      "d": 184.375,
      "v": 49
    },
    {
      "midi": 74,
      "hit": false,
      "t": 213750,
      "d": 362.5,
      "v": 49
    },
    {
      "midi": 38,
      "hit": false,
      "t": 213756.25,
      "d": 562.5,
      "v": 46
    },
    {
      "midi": 62,
      "hit": false,
      "t": 214131.25,
      "d": 290.625,
      "v": 51
    },
    {
      "midi": 60,
      "hit": false,
      "t": 214131.25,
      "d": 303.125,
      "v": 50
    },
    {
      "midi": 57,
      "hit": false,
      "t": 214131.25,
      "d": 312.5,
      "v": 35
    },
    {
      "midi": 65,
      "hit": false,
      "t": 214131.25,
      "d": 312.5,
      "v": 52
    },
    {
      "midi": 62,
      "hit": false,
      "t": 214503.125,
      "d": 159.375,
      "v": 54
    },
    {
      "midi": 65,
      "hit": false,
      "t": 214503.125,
      "d": 159.375,
      "v": 43
    },
    {
      "midi": 69,
      "hit": false,
      "t": 214506.25,
      "d": 181.25,
      "v": 41
    },
    {
      "midi": 60,
      "hit": false,
      "t": 214506.25,
      "d": 296.875,
      "v": 49
    },
    {
      "midi": 67,
      "hit": false,
      "t": 214853.125,
      "d": 225,
      "v": 83
    },
    {
      "midi": 74,
      "hit": false,
      "t": 214875,
      "d": 340.625,
      "v": 64
    },
    {
      "midi": 43,
      "hit": false,
      "t": 214875,
      "d": 359.375,
      "v": 31
    },
    {
      "midi": 79,
      "hit": false,
      "t": 215050,
      "d": 190.625,
      "v": 83
    },
    {
      "midi": 67,
      "hit": false,
      "t": 215237.5,
      "d": 206.25,
      "v": 83
    },
    {
      "midi": 62,
      "hit": false,
      "t": 215250,
      "d": 62.5,
      "v": 31
    },
    {
      "midi": 58,
      "hit": false,
      "t": 215250,
      "d": 90.625,
      "v": 51
    },
    {
      "midi": 53,
      "hit": false,
      "t": 215250,
      "d": 118.75,
      "v": 45
    },
    {
      "midi": 55,
      "hit": false,
      "t": 215250,
      "d": 200,
      "v": 41
    },
    {
      "midi": 79,
      "hit": false,
      "t": 215431.25,
      "d": 168.75,
      "v": 83
    },
    {
      "midi": 67,
      "hit": false,
      "t": 215450,
      "d": 153.125,
      "v": 45
    },
    {
      "midi": 67,
      "hit": false,
      "t": 215615.625,
      "d": 190.625,
      "v": 83
    },
    {
      "midi": 58,
      "hit": false,
      "t": 215625,
      "d": 56.25,
      "v": 59
    },
    {
      "midi": 55,
      "hit": false,
      "t": 215625,
      "d": 62.5,
      "v": 46
    },
    {
      "midi": 62,
      "hit": false,
      "t": 215625,
      "d": 62.5,
      "v": 37
    },
    {
      "midi": 65,
      "hit": false,
      "t": 215625,
      "d": 62.5,
      "v": 37
    },
    {
      "midi": 70,
      "hit": false,
      "t": 215625,
      "d": 112.5,
      "v": 59
    },
    {
      "midi": 79,
      "hit": false,
      "t": 215806.25,
      "d": 184.375,
      "v": 83
    },
    {
      "midi": 77,
      "hit": false,
      "t": 215812.5,
      "d": 103.125,
      "v": 82
    },
    {
      "midi": 67,
      "hit": false,
      "t": 215996.875,
      "d": 196.875,
      "v": 83
    },
    {
      "midi": 74,
      "hit": false,
      "t": 216000,
      "d": 340.625,
      "v": 64
    },
    {
      "midi": 43,
      "hit": false,
      "t": 216000,
      "d": 359.375,
      "v": 31
    },
    {
      "midi": 79,
      "hit": false,
      "t": 216165.625,
      "d": 193.75,
      "v": 83
    },
    {
      "midi": 67,
      "hit": false,
      "t": 216365.625,
      "d": 181.25,
      "v": 83
    },
    {
      "midi": 62,
      "hit": false,
      "t": 216375,
      "d": 62.5,
      "v": 31
    },
    {
      "midi": 58,
      "hit": false,
      "t": 216375,
      "d": 90.625,
      "v": 51
    },
    {
      "midi": 53,
      "hit": false,
      "t": 216375,
      "d": 118.75,
      "v": 45
    },
    {
      "midi": 55,
      "hit": false,
      "t": 216375,
      "d": 200,
      "v": 41
    },
    {
      "midi": 79,
      "hit": false,
      "t": 216556.25,
      "d": 187.5,
      "v": 83
    },
    {
      "midi": 67,
      "hit": false,
      "t": 216575,
      "d": 153.125,
      "v": 45
    },
    {
      "midi": 58,
      "hit": false,
      "t": 216750,
      "d": 56.25,
      "v": 59
    },
    {
      "midi": 55,
      "hit": false,
      "t": 216750,
      "d": 62.5,
      "v": 46
    },
    {
      "midi": 62,
      "hit": false,
      "t": 216750,
      "d": 62.5,
      "v": 37
    },
    {
      "midi": 65,
      "hit": false,
      "t": 216750,
      "d": 62.5,
      "v": 37
    },
    {
      "midi": 70,
      "hit": false,
      "t": 216750,
      "d": 112.5,
      "v": 59
    },
    {
      "midi": 67,
      "hit": false,
      "t": 216759.375,
      "d": 234.375,
      "v": 83
    },
    {
      "midi": 79,
      "hit": false,
      "t": 216921.875,
      "d": 162.5,
      "v": 83
    },
    {
      "midi": 77,
      "hit": false,
      "t": 216937.5,
      "d": 103.125,
      "v": 82
    },
    {
      "midi": 74,
      "hit": false,
      "t": 217125,
      "d": 362.5,
      "v": 49
    },
    {
      "midi": 38,
      "hit": false,
      "t": 217131.25,
      "d": 562.5,
      "v": 46
    },
    {
      "midi": 65,
      "hit": false,
      "t": 217131.25,
      "d": 215.625,
      "v": 83
    },
    {
      "midi": 77,
      "hit": false,
      "t": 217309.375,
      "d": 171.875,
      "v": 83
    },
    {
      "midi": 65,
      "hit": false,
      "t": 217493.75,
      "d": 206.25,
      "v": 83
    },
    {
      "midi": 62,
      "hit": false,
      "t": 217506.25,
      "d": 290.625,
      "v": 51
    },
    {
      "midi": 60,
      "hit": false,
      "t": 217506.25,
      "d": 303.125,
      "v": 50
    },
    {
      "midi": 57,
      "hit": false,
      "t": 217506.25,
      "d": 312.5,
      "v": 35
    },
    {
      "midi": 65,
      "hit": false,
      "t": 217506.25,
      "d": 312.5,
      "v": 52
    },
    {
      "midi": 77,
      "hit": false,
      "t": 217693.75,
      "d": 165.625,
      "v": 83
    },
    {
      "midi": 62,
      "hit": false,
      "t": 217878.125,
      "d": 159.375,
      "v": 54
    },
    {
      "midi": 65,
      "hit": false,
      "t": 217878.125,
      "d": 159.375,
      "v": 43
    },
    {
      "midi": 69,
      "hit": false,
      "t": 217881.25,
      "d": 181.25,
      "v": 41
    },
    {
      "midi": 60,
      "hit": false,
      "t": 217881.25,
      "d": 296.875,
      "v": 49
    },
    {
      "midi": 65,
      "hit": false,
      "t": 217884.375,
      "d": 187.5,
      "v": 83
    },
    {
      "midi": 77,
      "hit": false,
      "t": 218056.25,
      "d": 181.25,
      "v": 83
    },
    {
      "midi": 74,
      "hit": false,
      "t": 218250,
      "d": 362.5,
      "v": 49
    },
    {
      "midi": 65,
      "hit": false,
      "t": 218250,
      "d": 200,
      "v": 83
    },
    {
      "midi": 38,
      "hit": false,
      "t": 218256.25,
      "d": 562.5,
      "v": 46
    },
    {
      "midi": 77,
      "hit": false,
      "t": 218437.5,
      "d": 181.25,
      "v": 83
    },
    {
      "midi": 62,
      "hit": false,
      "t": 218631.25,
      "d": 290.625,
      "v": 51
    },
    {
      "midi": 60,
      "hit": false,
      "t": 218631.25,
      "d": 303.125,
      "v": 50
    },
    {
      "midi": 57,
      "hit": false,
      "t": 218631.25,
      "d": 312.5,
      "v": 35
    },
    {
      "midi": 65,
      "hit": false,
      "t": 218631.25,
      "d": 312.5,
      "v": 52
    },
    {
      "midi": 65,
      "hit": false,
      "t": 218637.5,
      "d": 193.75,
      "v": 83
    },
    {
      "midi": 77,
      "hit": false,
      "t": 218825,
      "d": 181.25,
      "v": 83
    },
    {
      "midi": 62,
      "hit": false,
      "t": 219003.125,
      "d": 159.375,
      "v": 54
    },
    {
      "midi": 65,
      "hit": false,
      "t": 219003.125,
      "d": 159.375,
      "v": 43
    },
    {
      "midi": 69,
      "hit": false,
      "t": 219006.25,
      "d": 181.25,
      "v": 41
    },
    {
      "midi": 60,
      "hit": false,
      "t": 219006.25,
      "d": 296.875,
      "v": 49
    },
    {
      "midi": 65,
      "hit": false,
      "t": 219021.875,
      "d": 225,
      "v": 83
    },
    {
      "midi": 77,
      "hit": false,
      "t": 219178.125,
      "d": 146.875,
      "v": 83
    },
    {
      "midi": 64,
      "hit": false,
      "t": 219365.625,
      "d": 221.875,
      "v": 83
    },
    {
      "midi": 74,
      "hit": false,
      "t": 219375,
      "d": 362.5,
      "v": 45
    },
    {
      "midi": 40,
      "hit": false,
      "t": 219381.25,
      "d": 562.5,
      "v": 52
    },
    {
      "midi": 76,
      "hit": false,
      "t": 219559.375,
      "d": 184.375,
      "v": 83
    },
    {
      "midi": 64,
      "hit": false,
      "t": 219753.125,
      "d": 196.875,
      "v": 83
    },
    {
      "midi": 62,
      "hit": false,
      "t": 219756.25,
      "d": 312.5,
      "v": 48
    },
    {
      "midi": 52,
      "hit": false,
      "t": 219756.25,
      "d": 340.625,
      "v": 31
    },
    {
      "midi": 56,
      "hit": false,
      "t": 219756.25,
      "d": 340.625,
      "v": 46
    },
    {
      "midi": 59,
      "hit": false,
      "t": 219756.25,
      "d": 340.625,
      "v": 47
    },
    {
      "midi": 76,
      "hit": false,
      "t": 219940.625,
      "d": 178.125,
      "v": 83
    },
    {
      "midi": 59,
      "hit": false,
      "t": 220128.125,
      "d": 153.125,
      "v": 50
    },
    {
      "midi": 62,
      "hit": false,
      "t": 220128.125,
      "d": 153.125,
      "v": 39
    },
    {
      "midi": 64,
      "hit": false,
      "t": 220131.25,
      "d": 121.875,
      "v": 37
    },
    {
      "midi": 56,
      "hit": false,
      "t": 220131.25,
      "d": 137.5,
      "v": 45
    },
    {
      "midi": 64,
      "hit": false,
      "t": 220140.625,
      "d": 206.25,
      "v": 83
    },
    {
      "midi": 76,
      "hit": false,
      "t": 220281.25,
      "d": 90.625,
      "v": 83
    },
    {
      "midi": 69,
      "hit": false,
      "t": 220500,
      "d": 362.5,
      "v": 49
    },
    {
      "midi": 45,
      "hit": false,
      "t": 220506.25,
      "d": 562.5,
      "v": 46
    },
    {
      "midi": 61,
      "hit": false,
      "t": 220518.75,
      "d": 184.375,
      "v": 83
    },
    {
      "midi": 73,
      "hit": false,
      "t": 220681.25,
      "d": 165.625,
      "v": 83
    },
    {
      "midi": 61,
      "hit": false,
      "t": 220875,
      "d": 184.375,
      "v": 83
    },
    {
      "midi": 57,
      "hit": false,
      "t": 220881.25,
      "d": 290.625,
      "v": 51
    },
    {
      "midi": 55,
      "hit": false,
      "t": 220881.25,
      "d": 303.125,
      "v": 50
    },
    {
      "midi": 52,
      "hit": false,
      "t": 220881.25,
      "d": 312.5,
      "v": 35
    },
    {
      "midi": 61,
      "hit": false,
      "t": 220881.25,
      "d": 312.5,
      "v": 52
    },
    {
      "midi": 73,
      "hit": false,
      "t": 221071.875,
      "d": 175,
      "v": 83
    },
    {
      "midi": 57,
      "hit": false,
      "t": 221253.125,
      "d": 159.375,
      "v": 54
    },
    {
      "midi": 61,
      "hit": false,
      "t": 221253.125,
      "d": 159.375,
      "v": 43
    },
    {
      "midi": 64,
      "hit": false,
      "t": 221256.25,
      "d": 181.25,
      "v": 41
    },
    {
      "midi": 55,
      "hit": false,
      "t": 221256.25,
      "d": 296.875,
      "v": 49
    },
    {
      "midi": 61,
      "hit": false,
      "t": 221281.25,
      "d": 209.375,
      "v": 83
    },
    {
      "midi": 73,
      "hit": false,
      "t": 221431.25,
      "d": 146.875,
      "v": 83
    },
    {
      "midi": 77,
      "hit": false,
      "t": 221625,
      "d": 362.5,
      "v": 45
    },
    {
      "midi": 38,
      "hit": false,
      "t": 221631.25,
      "d": 562.5,
      "v": 52
    },
    {
      "midi": 62,
      "hit": false,
      "t": 221643.75,
      "d": 240.625,
      "v": 83
    },
    {
      "midi": 74,
      "hit": false,
      "t": 221825,
      "d": 168.75,
      "v": 83
    },
    {
      "midi": 65,
      "hit": false,
      "t": 222006.25,
      "d": 312.5,
      "v": 48
    },
    {
      "midi": 57,
      "hit": false,
      "t": 222006.25,
      "d": 340.625,
      "v": 31
    },
    {
      "midi": 60,
      "hit": false,
      "t": 222006.25,
      "d": 340.625,
      "v": 46
    },
    {
      "midi": 62,
      "hit": false,
      "t": 222006.25,
      "d": 340.625,
      "v": 47
    },
    {
      "midi": 62,
      "hit": false,
      "t": 222015.625,
      "d": 187.5,
      "v": 83
    },
    {
      "midi": 74,
      "hit": false,
      "t": 222190.625,
      "d": 181.25,
      "v": 83
    },
    {
      "midi": 62,
      "hit": false,
      "t": 222378.125,
      "d": 153.125,
      "v": 50
    },
    {
      "midi": 65,
      "hit": false,
      "t": 222378.125,
      "d": 153.125,
      "v": 39
    },
    {
      "midi": 69,
      "hit": false,
      "t": 222381.25,
      "d": 121.875,
      "v": 37
    },
    {
      "midi": 60,
      "hit": false,
      "t": 222381.25,
      "d": 137.5,
      "v": 45
    },
    {
      "midi": 62,
      "hit": false,
      "t": 222387.5,
      "d": 200,
      "v": 83
    },
    {
      "midi": 74,
      "hit": false,
      "t": 222571.875,
      "d": 178.125,
      "v": 83
    },
    {
      "midi": 77,
      "hit": false,
      "t": 222750,
      "d": 362.5,
      "v": 49
    },
    {
      "midi": 38,
      "hit": false,
      "t": 222756.25,
      "d": 562.5,
      "v": 46
    },
    {
      "midi": 57,
      "hit": false,
      "t": 223131.25,
      "d": 296.875,
      "v": 35
    },
    {
      "midi": 65,
      "hit": false,
      "t": 223131.25,
      "d": 312.5,
      "v": 52
    },
    {
      "midi": 60,
      "hit": false,
      "t": 223131.25,
      "d": 340.625,
      "v": 50
    },
    {
      "midi": 62,
      "hit": false,
      "t": 223131.25,
      "d": 340.625,
      "v": 51
    },
    {
      "midi": 62,
      "hit": false,
      "t": 223503.125,
      "d": 175,
      "v": 54
    },
    {
      "midi": 65,
      "hit": false,
      "t": 223503.125,
      "d": 175,
      "v": 43
    },
    {
      "midi": 57,
      "hit": false,
      "t": 223506.25,
      "d": 171.875,
      "v": 41
    },
    {
      "midi": 60,
      "hit": false,
      "t": 223506.25,
      "d": 171.875,
      "v": 49
    },
    {
      "midi": 72,
      "hit": false,
      "t": 223687.5,
      "d": 184.375,
      "v": 49
    },
    {
      "midi": 74,
      "hit": false,
      "t": 223875,
      "d": 362.5,
      "v": 49
    },
    {
      "midi": 79,
      "hit": false,
      "t": 223875,
      "d": 184.375,
      "v": 100
    },
    {
      "midi": 43,
      "hit": false,
      "t": 223881.25,
      "d": 562.5,
      "v": 46
    },
    {
      "midi": 55,
      "hit": false,
      "t": 223896.875,
      "d": 631.25,
      "v": 100
    },
    {
      "midi": 82,
      "hit": false,
      "t": 224062.5,
      "d": 184.375,
      "v": 100
    },
    {
      "midi": 58,
      "hit": false,
      "t": 224090.625,
      "d": 662.5,
      "v": 100
    },
    {
      "midi": 62,
      "hit": false,
      "t": 224246.875,
      "d": 515.625,
      "v": 100
    },
    {
      "midi": 86,
      "hit": false,
      "t": 224250,
      "d": 184.375,
      "v": 100
    },
    {
      "midi": 62,
      "hit": false,
      "t": 224256.25,
      "d": 290.625,
      "v": 51
    },
    {
      "midi": 58,
      "hit": false,
      "t": 224256.25,
      "d": 303.125,
      "v": 50
    },
    {
      "midi": 55,
      "hit": false,
      "t": 224256.25,
      "d": 312.5,
      "v": 35
    },
    {
      "midi": 65,
      "hit": false,
      "t": 224256.25,
      "d": 312.5,
      "v": 52
    },
    {
      "midi": 67,
      "hit": false,
      "t": 224428.125,
      "d": 615.625,
      "v": 100
    },
    {
      "midi": 82,
      "hit": false,
      "t": 224437.5,
      "d": 184.375,
      "v": 100
    },
    {
      "midi": 70,
      "hit": false,
      "t": 224600,
      "d": 446.875,
      "v": 100
    },
    {
      "midi": 79,
      "hit": false,
      "t": 224625,
      "d": 184.375,
      "v": 100
    },
    {
      "midi": 62,
      "hit": false,
      "t": 224628.125,
      "d": 159.375,
      "v": 54
    },
    {
      "midi": 65,
      "hit": false,
      "t": 224628.125,
      "d": 159.375,
      "v": 43
    },
    {
      "midi": 67,
      "hit": false,
      "t": 224631.25,
      "d": 181.25,
      "v": 41
    },
    {
      "midi": 58,
      "hit": false,
      "t": 224631.25,
      "d": 296.875,
      "v": 49
    },
    {
      "midi": 74,
      "hit": false,
      "t": 224806.25,
      "d": 243.75,
      "v": 100
    },
    {
      "midi": 89,
      "hit": false,
      "t": 224812.5,
      "d": 184.375,
      "v": 100
    },
    {
      "midi": 74,
      "hit": false,
      "t": 225000,
      "d": 362.5,
      "v": 49
    },
    {
      "midi": 88,
      "hit": false,
      "t": 225000,
      "d": 184.375,
      "v": 100
    },
    {
      "midi": 50,
      "hit": false,
      "t": 225000,
      "d": 693.75,
      "v": 100
    },
    {
      "midi": 38,
      "hit": false,
      "t": 225006.25,
      "d": 562.5,
      "v": 46
    },
    {
      "midi": 86,
      "hit": false,
      "t": 225187.5,
      "d": 184.375,
      "v": 100
    },
    {
      "midi": 53,
      "hit": false,
      "t": 225218.75,
      "d": 690.625,
      "v": 100
    },
    {
      "midi": 93,
      "hit": false,
      "t": 225375,
      "d": 184.375,
      "v": 100
    },
    {
      "midi": 62,
      "hit": false,
      "t": 225381.25,
      "d": 290.625,
      "v": 51
    },
    {
      "midi": 60,
      "hit": false,
      "t": 225381.25,
      "d": 303.125,
      "v": 50
    },
    {
      "midi": 57,
      "hit": false,
      "t": 225381.25,
      "d": 312.5,
      "v": 35
    },
    {
      "midi": 65,
      "hit": false,
      "t": 225381.25,
      "d": 312.5,
      "v": 52
    },
    {
      "midi": 57,
      "hit": false,
      "t": 225400,
      "d": 487.5,
      "v": 100
    },
    {
      "midi": 91,
      "hit": false,
      "t": 225562.5,
      "d": 184.375,
      "v": 100
    },
    {
      "midi": 62,
      "hit": false,
      "t": 225575,
      "d": 581.25,
      "v": 100
    },
    {
      "midi": 65,
      "hit": false,
      "t": 225740.625,
      "d": 428.125,
      "v": 100
    },
    {
      "midi": 89,
      "hit": false,
      "t": 225750,
      "d": 184.375,
      "v": 100
    },
    {
      "midi": 62,
      "hit": false,
      "t": 225753.125,
      "d": 159.375,
      "v": 54
    },
    {
      "midi": 65,
      "hit": false,
      "t": 225753.125,
      "d": 159.375,
      "v": 43
    },
    {
      "midi": 69,
      "hit": false,
      "t": 225756.25,
      "d": 181.25,
      "v": 41
    },
    {
      "midi": 60,
      "hit": false,
      "t": 225756.25,
      "d": 296.875,
      "v": 49
    },
    {
      "midi": 88,
      "hit": false,
      "t": 225937.5,
      "d": 184.375,
      "v": 100
    },
    {
      "midi": 69,
      "hit": false,
      "t": 225956.25,
      "d": 228.125,
      "v": 100
    },
    {
      "midi": 69,
      "hit": false,
      "t": 226125,
      "d": 362.5,
      "v": 49
    },
    {
      "midi": 86,
      "hit": false,
      "t": 226125,
      "d": 184.375,
      "v": 100
    },
    {
      "midi": 45,
      "hit": false,
      "t": 226131.25,
      "d": 562.5,
      "v": 46
    },
    {
      "midi": 45,
      "hit": false,
      "t": 226146.875,
      "d": 593.75,
      "v": 100
    },
    {
      "midi": 85,
      "hit": false,
      "t": 226312.5,
      "d": 184.375,
      "v": 100
    },
    {
      "midi": 49,
      "hit": false,
      "t": 226334.375,
      "d": 459.375,
      "v": 100
    },
    {
      "midi": 81,
      "hit": false,
      "t": 226500,
      "d": 184.375,
      "v": 100
    },
    {
      "midi": 57,
      "hit": false,
      "t": 226506.25,
      "d": 290.625,
      "v": 51
    },
    {
      "midi": 55,
      "hit": false,
      "t": 226506.25,
      "d": 303.125,
      "v": 50
    },
    {
      "midi": 52,
      "hit": false,
      "t": 226506.25,
      "d": 312.5,
      "v": 35
    },
    {
      "midi": 61,
      "hit": false,
      "t": 226506.25,
      "d": 312.5,
      "v": 52
    },
    {
      "midi": 52,
      "hit": false,
      "t": 226521.875,
      "d": 590.625,
      "v": 100
    },
    {
      "midi": 57,
      "hit": false,
      "t": 226678.125,
      "d": 506.25,
      "v": 100
    },
    {
      "midi": 82,
      "hit": false,
      "t": 226687.5,
      "d": 184.375,
      "v": 100
    },
    {
      "midi": 61,
      "hit": false,
      "t": 226862.5,
      "d": 334.375,
      "v": 100
    },
    {
      "midi": 83,
      "hit": false,
      "t": 226875,
      "d": 184.375,
      "v": 100
    },
    {
      "midi": 57,
      "hit": false,
      "t": 226878.125,
      "d": 159.375,
      "v": 54
    },
    {
      "midi": 61,
      "hit": false,
      "t": 226878.125,
      "d": 159.375,
      "v": 43
    },
    {
      "midi": 64,
      "hit": false,
      "t": 226881.25,
      "d": 181.25,
      "v": 41
    },
    {
      "midi": 55,
      "hit": false,
      "t": 226881.25,
      "d": 296.875,
      "v": 49
    },
    {
      "midi": 64,
      "hit": false,
      "t": 227040.625,
      "d": 225,
      "v": 100
    },
    {
      "midi": 85,
      "hit": false,
      "t": 227062.5,
      "d": 184.375,
      "v": 100
    },
    {
      "midi": 77,
      "hit": false,
      "t": 227250,
      "d": 340.625,
      "v": 64
    },
    {
      "midi": 38,
      "hit": false,
      "t": 227250,
      "d": 359.375,
      "v": 31
    },
    {
      "midi": 86,
      "hit": false,
      "t": 227250,
      "d": 184.375,
      "v": 100
    },
    {
      "midi": 50,
      "hit": false,
      "t": 227284.375,
      "d": 184.375,
      "v": 100
    },
    {
      "midi": 53,
      "hit": false,
      "t": 227440.625,
      "d": 150,
      "v": 100
    },
    {
      "midi": 57,
      "hit": false,
      "t": 227506.25,
      "d": 181.25,
      "v": 100
    },
    {
      "midi": 62,
      "hit": false,
      "t": 227568.75,
      "d": 178.125,
      "v": 100
    },
    {
      "midi": 62,
      "hit": false,
      "t": 227625,
      "d": 62.5,
      "v": 31
    },
    {
      "midi": 60,
      "hit": false,
      "t": 227625,
      "d": 90.625,
      "v": 54
    },
    {
      "midi": 53,
      "hit": false,
      "t": 227625,
      "d": 118.75,
      "v": 55
    },
    {
      "midi": 57,
      "hit": false,
      "t": 227625,
      "d": 200,
      "v": 54
    },
    {
      "midi": 65,
      "hit": false,
      "t": 227662.5,
      "d": 143.75,
      "v": 100
    },
    {
      "midi": 69,
      "hit": false,
      "t": 227756.25,
      "d": 140.625,
      "v": 100
    },
    {
      "midi": 69,
      "hit": false,
      "t": 227825,
      "d": 153.125,
      "v": 45
    },
    {
      "midi": 62,
      "hit": false,
      "t": 227850,
      "d": 1762.5,
      "v": 100
    },
    {
      "midi": 65,
      "hit": false,
      "t": 227925,
      "d": 1675,
      "v": 100
    },
    {
      "midi": 60,
      "hit": false,
      "t": 228000,
      "d": 56.25,
      "v": 54
    },
    {
      "midi": 57,
      "hit": false,
      "t": 228000,
      "d": 62.5,
      "v": 46
    },
    {
      "midi": 62,
      "hit": false,
      "t": 228000,
      "d": 62.5,
      "v": 37
    },
    {
      "midi": 65,
      "hit": false,
      "t": 228000,
      "d": 62.5,
      "v": 37
    },
    {
      "midi": 72,
      "hit": false,
      "t": 228000,
      "d": 112.5,
      "v": 59
    },
    {
      "midi": 69,
      "hit": false,
      "t": 228046.875,
      "d": 1553.125,
      "v": 100
    },
    {
      "midi": 74,
      "hit": false,
      "t": 228150,
      "d": 1428.125,
      "v": 100
    },
    {
      "midi": 77,
      "hit": false,
      "t": 228187.5,
      "d": 103.125,
      "v": 67
    },
    {
      "midi": 77,
      "hit": false,
      "t": 228200,
      "d": 1390.625,
      "v": 100
    },
    {
      "midi": 81,
      "hit": false,
      "t": 228284.375,
      "d": 1300,
      "v": 100
    },
    {
      "midi": 86,
      "hit": false,
      "t": 228356.25,
      "d": 1250,
      "v": 100
    },
    {
      "midi": 77,
      "hit": false,
      "t": 228375,
      "d": 340.625,
      "v": 67
    },
    {
      "midi": 38,
      "hit": false,
      "t": 228375,
      "d": 359.375,
      "v": 29
    },
    {
      "midi": 62,
      "hit": false,
      "t": 228750,
      "d": 62.5,
      "v": 70
    },
    {
      "midi": 60,
      "hit": false,
      "t": 228750,
      "d": 90.625,
      "v": 68
    },
    {
      "midi": 53,
      "hit": false,
      "t": 228750,
      "d": 118.75,
      "v": 53
    },
    {
      "midi": 57,
      "hit": false,
      "t": 228750,
      "d": 200,
      "v": 52
    },
    {
      "midi": 65,
      "hit": false,
      "t": 228950,
      "d": 153.125,
      "v": 67
    },
    {
      "midi": 60,
      "hit": false,
      "t": 229125,
      "d": 56.25,
      "v": 57
    },
    {
      "midi": 53,
      "hit": false,
      "t": 229125,
      "d": 62.5,
      "v": 35
    },
    {
      "midi": 57,
      "hit": false,
      "t": 229125,
      "d": 62.5,
      "v": 44
    },
    {
      "midi": 62,
      "hit": false,
      "t": 229125,
      "d": 62.5,
      "v": 35
    },
    {
      "midi": 69,
      "hit": false,
      "t": 229125,
      "d": 112.5,
      "v": 57
    },
    {
      "midi": 72,
      "hit": false,
      "t": 229312.5,
      "d": 103.125,
      "v": 70
    },
    {
      "midi": 50,
      "hit": false,
      "t": 229500,
      "d": 831.25,
      "v": 56
    },
    {
      "midi": 53,
      "hit": false,
      "t": 229515.625,
      "d": 943.75,
      "v": 30
    },
    {
      "midi": 57,
      "hit": false,
      "t": 229515.625,
      "d": 943.75,
      "v": 34
    },
    {
      "midi": 60,
      "hit": false,
      "t": 229521.875,
      "d": 912.5,
      "v": 63
    },
    {
      "midi": 69,
      "hit": false,
      "t": 229528.125,
      "d": 806.25,
      "v": 51
    },
    {
      "midi": 72,
      "hit": false,
      "t": 229531.25,
      "d": 762.5,
      "v": 56
    },
    {
      "midi": 77,
      "hit": false,
      "t": 229540.625,
      "d": 771.875,
      "v": 64
    }
  ]
}