{
  "jsonPath": "Rock/Pub Rock/Robert Gordon/its-only-make-believe.json",
  "path": "Rock\\Pub Rock\\Robert Gordon\\Its Only Make Believe.mid",
  "name": "Its Only Make Believe",
  "difficulty": "Advanced",
  "bpm": 83.0000650167176,
  "notes": [
    {
      "midi": 71,
      "hit": false,
      "t": 23132.512,
      "d": 60.240916666665726,
      "v": 92
    },
    {
      "midi": 75,
      "hit": false,
      "t": 23132.512,
      "d": 90.36137500000041,
      "v": 108
    },
    {
      "midi": 78,
      "hit": false,
      "t": 23132.512,
      "d": 90.36137500000041,
      "v": 101
    },
    {
      "midi": 71,
      "hit": false,
      "t": 23373.475666666665,
      "d": 90.36137500000041,
      "v": 70
    },
    {
      "midi": 75,
      "hit": false,
      "t": 23373.475666666665,
      "d": 90.36137500000041,
      "v": 92
    },
    {
      "midi": 78,
      "hit": false,
      "t": 23373.475666666665,
      "d": 90.36137500000041,
      "v": 95
    },
    {
      "midi": 75,
      "hit": false,
      "t": 23614.439333333332,
      "d": 60.240916666665726,
      "v": 84
    },
    {
      "midi": 71,
      "hit": false,
      "t": 23614.439333333332,
      "d": 90.36137500000041,
      "v": 69
    },
    {
      "midi": 78,
      "hit": false,
      "t": 23614.439333333332,
      "d": 90.36137500000041,
      "v": 95
    },
    {
      "midi": 71,
      "hit": false,
      "t": 23855.403,
      "d": 90.36137500000041,
      "v": 90
    },
    {
      "midi": 75,
      "hit": false,
      "t": 23855.403,
      "d": 90.36137500000041,
      "v": 101
    },
    {
      "midi": 78,
      "hit": false,
      "t": 23855.403,
      "d": 90.36137500000041,
      "v": 101
    },
    {
      "midi": 71,
      "hit": false,
      "t": 24096.366666666665,
      "d": 60.240916666665726,
      "v": 76
    },
    {
      "midi": 75,
      "hit": false,
      "t": 24096.366666666665,
      "d": 60.240916666665726,
      "v": 95
    },
    {
      "midi": 78,
      "hit": false,
      "t": 24096.366666666665,
      "d": 60.240916666665726,
      "v": 99
    },
    {
      "midi": 71,
      "hit": false,
      "t": 24337.33033333333,
      "d": 60.240916666665726,
      "v": 78
    },
    {
      "midi": 75,
      "hit": false,
      "t": 24337.33033333333,
      "d": 60.240916666665726,
      "v": 95
    },
    {
      "midi": 78,
      "hit": false,
      "t": 24337.33033333333,
      "d": 60.240916666665726,
      "v": 95
    },
    {
      "midi": 75,
      "hit": false,
      "t": 24578.293999999998,
      "d": 60.240916666665726,
      "v": 103
    },
    {
      "midi": 71,
      "hit": false,
      "t": 24578.293999999998,
      "d": 90.36137500000041,
      "v": 97
    },
    {
      "midi": 78,
      "hit": false,
      "t": 24578.293999999998,
      "d": 90.36137500000041,
      "v": 103
    },
    {
      "midi": 71,
      "hit": false,
      "t": 24819.257666666665,
      "d": 60.240916666665726,
      "v": 80
    },
    {
      "midi": 75,
      "hit": false,
      "t": 24819.257666666665,
      "d": 60.240916666665726,
      "v": 95
    },
    {
      "midi": 78,
      "hit": false,
      "t": 24819.257666666665,
      "d": 60.240916666665726,
      "v": 95
    },
    {
      "midi": 71,
      "hit": false,
      "t": 25060.22133333333,
      "d": 60.240916666665726,
      "v": 84
    },
    {
      "midi": 75,
      "hit": false,
      "t": 25060.22133333333,
      "d": 60.240916666665726,
      "v": 99
    },
    {
      "midi": 78,
      "hit": false,
      "t": 25060.22133333333,
      "d": 60.240916666665726,
      "v": 99
    },
    {
      "midi": 71,
      "hit": false,
      "t": 25301.184999999998,
      "d": 60.240916666665726,
      "v": 97
    },
    {
      "midi": 75,
      "hit": false,
      "t": 25301.184999999998,
      "d": 60.240916666665726,
      "v": 101
    },
    {
      "midi": 78,
      "hit": false,
      "t": 25301.184999999998,
      "d": 60.240916666665726,
      "v": 103
    },
    {
      "midi": 71,
      "hit": false,
      "t": 25542.148666666664,
      "d": 60.240916666665726,
      "v": 84
    },
    {
      "midi": 75,
      "hit": false,
      "t": 25542.148666666664,
      "d": 60.240916666665726,
      "v": 99
    },
    {
      "midi": 78,
      "hit": false,
      "t": 25542.148666666664,
      "d": 60.240916666665726,
      "v": 101
    },
    {
      "midi": 71,
      "hit": false,
      "t": 25783.11233333333,
      "d": 60.240916666665726,
      "v": 84
    },
    {
      "midi": 75,
      "hit": false,
      "t": 25783.11233333333,
      "d": 60.240916666665726,
      "v": 90
    },
    {
      "midi": 78,
      "hit": false,
      "t": 25783.11233333333,
      "d": 90.36137500000041,
      "v": 95
    },
    {
      "midi": 73,
      "hit": false,
      "t": 26024.075999999997,
      "d": 90.36137500000041,
      "v": 95
    },
    {
      "midi": 76,
      "hit": false,
      "t": 26024.075999999997,
      "d": 90.36137500000041,
      "v": 108
    },
    {
      "midi": 80,
      "hit": false,
      "t": 26024.075999999997,
      "d": 90.36137500000041,
      "v": 101
    },
    {
      "midi": 73,
      "hit": false,
      "t": 26265.039666666664,
      "d": 60.240916666665726,
      "v": 84
    },
    {
      "midi": 76,
      "hit": false,
      "t": 26265.039666666664,
      "d": 60.240916666665726,
      "v": 95
    },
    {
      "midi": 80,
      "hit": false,
      "t": 26265.039666666664,
      "d": 90.36137500000041,
      "v": 99
    },
    {
      "midi": 73,
      "hit": false,
      "t": 26506.00333333333,
      "d": 60.240916666665726,
      "v": 86
    },
    {
      "midi": 76,
      "hit": false,
      "t": 26506.00333333333,
      "d": 60.240916666665726,
      "v": 99
    },
    {
      "midi": 80,
      "hit": false,
      "t": 26506.00333333333,
      "d": 90.36137500000041,
      "v": 97
    },
    {
      "midi": 73,
      "hit": false,
      "t": 26746.966999999997,
      "d": 60.240916666665726,
      "v": 95
    },
    {
      "midi": 76,
      "hit": false,
      "t": 26746.966999999997,
      "d": 60.240916666665726,
      "v": 110
    },
    {
      "midi": 80,
      "hit": false,
      "t": 26746.966999999997,
      "d": 90.36137500000041,
      "v": 105
    },
    {
      "midi": 73,
      "hit": false,
      "t": 26987.930666666663,
      "d": 60.240916666665726,
      "v": 82
    },
    {
      "midi": 76,
      "hit": false,
      "t": 26987.930666666663,
      "d": 60.240916666665726,
      "v": 99
    },
    {
      "midi": 80,
      "hit": false,
      "t": 26987.930666666663,
      "d": 90.36137500000041,
      "v": 95
    },
    {
      "midi": 73,
      "hit": false,
      "t": 27228.89433333333,
      "d": 60.240916666665726,
      "v": 92
    },
    {
      "midi": 76,
      "hit": false,
      "t": 27228.89433333333,
      "d": 60.240916666665726,
      "v": 99
    },
    {
      "midi": 80,
      "hit": false,
      "t": 27228.89433333333,
      "d": 90.36137500000041,
      "v": 103
    },
    {
      "midi": 73,
      "hit": false,
      "t": 27469.857999999997,
      "d": 60.240916666665726,
      "v": 95
    },
    {
      "midi": 78,
      "hit": false,
      "t": 27469.857999999997,
      "d": 60.240916666665726,
      "v": 108
    },
    {
      "midi": 82,
      "hit": false,
      "t": 27469.857999999997,
      "d": 60.240916666665726,
      "v": 105
    },
    {
      "midi": 73,
      "hit": false,
      "t": 27710.821666666663,
      "d": 60.240916666665726,
      "v": 86
    },
    {
      "midi": 78,
      "hit": false,
      "t": 27710.821666666663,
      "d": 60.240916666665726,
      "v": 101
    },
    {
      "midi": 82,
      "hit": false,
      "t": 27710.821666666663,
      "d": 90.36137500000041,
      "v": 99
    },
    {
      "midi": 73,
      "hit": false,
      "t": 27951.78533333333,
      "d": 60.240916666665726,
      "v": 86
    },
    {
      "midi": 78,
      "hit": false,
      "t": 27951.78533333333,
      "d": 60.240916666665726,
      "v": 103
    },
    {
      "midi": 82,
      "hit": false,
      "t": 27951.78533333333,
      "d": 60.240916666665726,
      "v": 97
    },
    {
      "midi": 73,
      "hit": false,
      "t": 28192.748999999996,
      "d": 60.240916666665726,
      "v": 90
    },
    {
      "midi": 78,
      "hit": false,
      "t": 28192.748999999996,
      "d": 60.240916666665726,
      "v": 110
    },
    {
      "midi": 82,
      "hit": false,
      "t": 28192.748999999996,
      "d": 90.36137500000041,
      "v": 105
    },
    {
      "midi": 73,
      "hit": false,
      "t": 28433.712666666663,
      "d": 60.240916666665726,
      "v": 95
    },
    {
      "midi": 78,
      "hit": false,
      "t": 28433.712666666663,
      "d": 60.240916666665726,
      "v": 112
    },
    {
      "midi": 82,
      "hit": false,
      "t": 28433.712666666663,
      "d": 90.36137500000041,
      "v": 97
    },
    {
      "midi": 73,
      "hit": false,
      "t": 28674.67633333333,
      "d": 60.240916666665726,
      "v": 101
    },
    {
      "midi": 78,
      "hit": false,
      "t": 28674.67633333333,
      "d": 60.240916666665726,
      "v": 108
    },
    {
      "midi": 82,
      "hit": false,
      "t": 28674.67633333333,
      "d": 90.36137500000041,
      "v": 110
    },
    {
      "midi": 71,
      "hit": false,
      "t": 28915.639999999996,
      "d": 60.240916666665726,
      "v": 74
    },
    {
      "midi": 75,
      "hit": false,
      "t": 28915.639999999996,
      "d": 90.36137500000041,
      "v": 92
    },
    {
      "midi": 78,
      "hit": false,
      "t": 28915.639999999996,
      "d": 90.36137500000041,
      "v": 99
    },
    {
      "midi": 71,
      "hit": false,
      "t": 29156.603666666666,
      "d": 60.240916666665726,
      "v": 57
    },
    {
      "midi": 75,
      "hit": false,
      "t": 29156.603666666666,
      "d": 60.240916666665726,
      "v": 71
    },
    {
      "midi": 78,
      "hit": false,
      "t": 29156.603666666666,
      "d": 90.36137500000041,
      "v": 82
    },
    {
      "midi": 71,
      "hit": false,
      "t": 29397.567333333332,
      "d": 60.240916666665726,
      "v": 62
    },
    {
      "midi": 75,
      "hit": false,
      "t": 29397.567333333332,
      "d": 60.240916666665726,
      "v": 86
    },
    {
      "midi": 78,
      "hit": false,
      "t": 29397.567333333332,
      "d": 60.240916666665726,
      "v": 78
    },
    {
      "midi": 71,
      "hit": false,
      "t": 29638.531,
      "d": 60.240916666665726,
      "v": 76
    },
    {
      "midi": 75,
      "hit": false,
      "t": 29638.531,
      "d": 60.240916666665726,
      "v": 101
    },
    {
      "midi": 78,
      "hit": false,
      "t": 29638.531,
      "d": 60.240916666665726,
      "v": 95
    },
    {
      "midi": 71,
      "hit": false,
      "t": 29879.494666666666,
      "d": 60.240916666665726,
      "v": 66
    },
    {
      "midi": 75,
      "hit": false,
      "t": 29879.494666666666,
      "d": 60.240916666665726,
      "v": 86
    },
    {
      "midi": 78,
      "hit": false,
      "t": 29879.494666666666,
      "d": 60.240916666665726,
      "v": 84
    },
    {
      "midi": 71,
      "hit": false,
      "t": 30120.458333333332,
      "d": 60.240916666665726,
      "v": 70
    },
    {
      "midi": 75,
      "hit": false,
      "t": 30120.458333333332,
      "d": 60.240916666665726,
      "v": 92
    },
    {
      "midi": 78,
      "hit": false,
      "t": 30120.458333333332,
      "d": 60.240916666665726,
      "v": 88
    },
    {
      "midi": 71,
      "hit": false,
      "t": 30361.422,
      "d": 60.240916666665726,
      "v": 68
    },
    {
      "midi": 75,
      "hit": false,
      "t": 30361.422,
      "d": 60.240916666665726,
      "v": 86
    },
    {
      "midi": 78,
      "hit": false,
      "t": 30361.422,
      "d": 60.240916666665726,
      "v": 90
    },
    {
      "midi": 71,
      "hit": false,
      "t": 30602.385666666665,
      "d": 60.240916666665726,
      "v": 66
    },
    {
      "midi": 75,
      "hit": false,
      "t": 30602.385666666665,
      "d": 60.240916666665726,
      "v": 80
    },
    {
      "midi": 78,
      "hit": false,
      "t": 30602.385666666665,
      "d": 60.240916666665726,
      "v": 78
    },
    {
      "midi": 71,
      "hit": false,
      "t": 30843.34933333333,
      "d": 60.240916666665726,
      "v": 73
    },
    {
      "midi": 75,
      "hit": false,
      "t": 30843.34933333333,
      "d": 60.240916666665726,
      "v": 84
    },
    {
      "midi": 78,
      "hit": false,
      "t": 30843.34933333333,
      "d": 60.240916666665726,
      "v": 95
    },
    {
      "midi": 71,
      "hit": false,
      "t": 31084.313,
      "d": 60.240916666665726,
      "v": 80
    },
    {
      "midi": 75,
      "hit": false,
      "t": 31084.313,
      "d": 60.240916666665726,
      "v": 99
    },
    {
      "midi": 78,
      "hit": false,
      "t": 31084.313,
      "d": 60.240916666665726,
      "v": 92
    },
    {
      "midi": 71,
      "hit": false,
      "t": 31325.276666666665,
      "d": 60.240916666665726,
      "v": 69
    },
    {
      "midi": 75,
      "hit": false,
      "t": 31325.276666666665,
      "d": 60.240916666665726,
      "v": 95
    },
    {
      "midi": 78,
      "hit": false,
      "t": 31325.276666666665,
      "d": 60.240916666665726,
      "v": 95
    },
    {
      "midi": 71,
      "hit": false,
      "t": 31566.24033333333,
      "d": 60.240916666665726,
      "v": 68
    },
    {
      "midi": 75,
      "hit": false,
      "t": 31566.24033333333,
      "d": 60.240916666665726,
      "v": 86
    },
    {
      "midi": 78,
      "hit": false,
      "t": 31566.24033333333,
      "d": 60.240916666665726,
      "v": 88
    },
    {
      "midi": 71,
      "hit": false,
      "t": 31807.203999999998,
      "d": 60.240916666665726,
      "v": 66
    },
    {
      "midi": 75,
      "hit": false,
      "t": 31807.203999999998,
      "d": 60.240916666665726,
      "v": 88
    },
    {
      "midi": 80,
      "hit": false,
      "t": 31807.203999999998,
      "d": 60.240916666665726,
      "v": 95
    },
    {
      "midi": 71,
      "hit": false,
      "t": 32048.167666666664,
      "d": 60.240916666665726,
      "v": 70
    },
    {
      "midi": 75,
      "hit": false,
      "t": 32048.167666666664,
      "d": 60.240916666665726,
      "v": 82
    },
    {
      "midi": 80,
      "hit": false,
      "t": 32048.167666666664,
      "d": 90.36137500000041,
      "v": 95
    },
    {
      "midi": 71,
      "hit": false,
      "t": 32289.131333333335,
      "d": 60.240916666665726,
      "v": 69
    },
    {
      "midi": 75,
      "hit": false,
      "t": 32289.131333333335,
      "d": 60.240916666665726,
      "v": 90
    },
    {
      "midi": 80,
      "hit": false,
      "t": 32289.131333333335,
      "d": 60.240916666665726,
      "v": 90
    },
    {
      "midi": 71,
      "hit": false,
      "t": 32530.095,
      "d": 60.240916666665726,
      "v": 71
    },
    {
      "midi": 75,
      "hit": false,
      "t": 32530.095,
      "d": 60.240916666665726,
      "v": 90
    },
    {
      "midi": 80,
      "hit": false,
      "t": 32530.095,
      "d": 60.240916666665726,
      "v": 92
    },
    {
      "midi": 71,
      "hit": false,
      "t": 32771.058666666664,
      "d": 60.240916666669364,
      "v": 68
    },
    {
      "midi": 75,
      "hit": false,
      "t": 32771.058666666664,
      "d": 60.240916666669364,
      "v": 88
    },
    {
      "midi": 80,
      "hit": false,
      "t": 32771.058666666664,
      "d": 60.240916666669364,
      "v": 95
    },
    {
      "midi": 71,
      "hit": false,
      "t": 33012.022333333334,
      "d": 30.120458333331044,
      "v": 68
    },
    {
      "midi": 75,
      "hit": false,
      "t": 33012.022333333334,
      "d": 60.24091666666209,
      "v": 95
    },
    {
      "midi": 80,
      "hit": false,
      "t": 33012.022333333334,
      "d": 60.24091666666209,
      "v": 97
    },
    {
      "midi": 71,
      "hit": false,
      "t": 33252.986,
      "d": 60.240916666669364,
      "v": 76
    },
    {
      "midi": 75,
      "hit": false,
      "t": 33252.986,
      "d": 60.240916666669364,
      "v": 99
    },
    {
      "midi": 80,
      "hit": false,
      "t": 33252.986,
      "d": 60.240916666669364,
      "v": 97
    },
    {
      "midi": 71,
      "hit": false,
      "t": 33493.94966666667,
      "d": 30.120458333331044,
      "v": 68
    },
    {
      "midi": 75,
      "hit": false,
      "t": 33493.94966666667,
      "d": 60.24091666666209,
      "v": 99
    },
    {
      "midi": 80,
      "hit": false,
      "t": 33493.94966666667,
      "d": 60.24091666666209,
      "v": 92
    },
    {
      "midi": 71,
      "hit": false,
      "t": 33734.91333333333,
      "d": 60.240916666669364,
      "v": 78
    },
    {
      "midi": 75,
      "hit": false,
      "t": 33734.91333333333,
      "d": 60.240916666669364,
      "v": 97
    },
    {
      "midi": 80,
      "hit": false,
      "t": 33734.91333333333,
      "d": 60.240916666669364,
      "v": 97
    },
    {
      "midi": 71,
      "hit": false,
      "t": 33975.877,
      "d": 60.240916666669364,
      "v": 73
    },
    {
      "midi": 75,
      "hit": false,
      "t": 33975.877,
      "d": 60.240916666669364,
      "v": 92
    },
    {
      "midi": 80,
      "hit": false,
      "t": 33975.877,
      "d": 60.240916666669364,
      "v": 95
    },
    {
      "midi": 71,
      "hit": false,
      "t": 34216.84066666667,
      "d": 60.240916666669364,
      "v": 68
    },
    {
      "midi": 75,
      "hit": false,
      "t": 34216.84066666667,
      "d": 60.240916666669364,
      "v": 99
    },
    {
      "midi": 80,
      "hit": false,
      "t": 34216.84066666667,
      "d": 60.240916666669364,
      "v": 95
    },
    {
      "midi": 71,
      "hit": false,
      "t": 34457.80433333334,
      "d": 60.240916666669364,
      "v": 78
    },
    {
      "midi": 75,
      "hit": false,
      "t": 34457.80433333334,
      "d": 60.240916666669364,
      "v": 99
    },
    {
      "midi": 80,
      "hit": false,
      "t": 34457.80433333334,
      "d": 90.36137500000041,
      "v": 95
    },
    {
      "midi": 71,
      "hit": false,
      "t": 34698.76800000001,
      "d": 60.240916666669364,
      "v": 84
    },
    {
      "midi": 76,
      "hit": false,
      "t": 34698.76800000001,
      "d": 60.240916666669364,
      "v": 103
    },
    {
      "midi": 80,
      "hit": false,
      "t": 34698.76800000001,
      "d": 60.240916666669364,
      "v": 99
    },
    {
      "midi": 71,
      "hit": false,
      "t": 34939.73166666668,
      "d": 60.240916666669364,
      "v": 67
    },
    {
      "midi": 76,
      "hit": false,
      "t": 34939.73166666668,
      "d": 60.240916666669364,
      "v": 90
    },
    {
      "midi": 80,
      "hit": false,
      "t": 34939.73166666668,
      "d": 60.240916666669364,
      "v": 90
    },
    {
      "midi": 71,
      "hit": false,
      "t": 35180.69533333335,
      "d": 60.240916666669364,
      "v": 74
    },
    {
      "midi": 76,
      "hit": false,
      "t": 35180.69533333335,
      "d": 60.240916666669364,
      "v": 95
    },
    {
      "midi": 80,
      "hit": false,
      "t": 35180.69533333335,
      "d": 60.240916666669364,
      "v": 97
    },
    {
      "midi": 71,
      "hit": false,
      "t": 35421.65900000002,
      "d": 60.240916666669364,
      "v": 80
    },
    {
      "midi": 76,
      "hit": false,
      "t": 35421.65900000002,
      "d": 60.240916666669364,
      "v": 97
    },
    {
      "midi": 80,
      "hit": false,
      "t": 35421.65900000002,
      "d": 60.240916666669364,
      "v": 97
    },
    {
      "midi": 71,
      "hit": false,
      "t": 35662.62266666669,
      "d": 60.240916666669364,
      "v": 76
    },
    {
      "midi": 76,
      "hit": false,
      "t": 35662.62266666669,
      "d": 60.240916666669364,
      "v": 97
    },
    {
      "midi": 80,
      "hit": false,
      "t": 35662.62266666669,
      "d": 60.240916666669364,
      "v": 95
    },
    {
      "midi": 71,
      "hit": false,
      "t": 35903.58633333336,
      "d": 60.240916666669364,
      "v": 80
    },
    {
      "midi": 76,
      "hit": false,
      "t": 35903.58633333336,
      "d": 60.240916666669364,
      "v": 97
    },
    {
      "midi": 80,
      "hit": false,
      "t": 35903.58633333336,
      "d": 90.36137500000041,
      "v": 97
    },
    {
      "midi": 71,
      "hit": false,
      "t": 36144.55000000003,
      "d": 60.240916666669364,
      "v": 84
    },
    {
      "midi": 76,
      "hit": false,
      "t": 36144.55000000003,
      "d": 60.240916666669364,
      "v": 105
    },
    {
      "midi": 80,
      "hit": false,
      "t": 36144.55000000003,
      "d": 60.240916666669364,
      "v": 97
    },
    {
      "midi": 71,
      "hit": false,
      "t": 36385.5136666667,
      "d": 60.240916666669364,
      "v": 70
    },
    {
      "midi": 76,
      "hit": false,
      "t": 36385.5136666667,
      "d": 60.240916666669364,
      "v": 92
    },
    {
      "midi": 80,
      "hit": false,
      "t": 36385.5136666667,
      "d": 90.36137500000041,
      "v": 99
    },
    {
      "midi": 71,
      "hit": false,
      "t": 36626.47733333337,
      "d": 60.240916666669364,
      "v": 82
    },
    {
      "midi": 76,
      "hit": false,
      "t": 36626.47733333337,
      "d": 60.240916666669364,
      "v": 101
    },
    {
      "midi": 80,
      "hit": false,
      "t": 36626.47733333337,
      "d": 60.240916666669364,
      "v": 99
    },
    {
      "midi": 71,
      "hit": false,
      "t": 36867.44100000004,
      "d": 60.240916666669364,
      "v": 95
    },
    {
      "midi": 76,
      "hit": false,
      "t": 36867.44100000004,
      "d": 60.240916666669364,
      "v": 105
    },
    {
      "midi": 80,
      "hit": false,
      "t": 36867.44100000004,
      "d": 60.240916666669364,
      "v": 99
    },
    {
      "midi": 71,
      "hit": false,
      "t": 37108.40466666671,
      "d": 60.240916666669364,
      "v": 84
    },
    {
      "midi": 76,
      "hit": false,
      "t": 37108.40466666671,
      "d": 60.240916666669364,
      "v": 101
    },
    {
      "midi": 80,
      "hit": false,
      "t": 37108.40466666671,
      "d": 90.36137500000041,
      "v": 99
    },
    {
      "midi": 71,
      "hit": false,
      "t": 37349.36833333338,
      "d": 60.240916666669364,
      "v": 78
    },
    {
      "midi": 76,
      "hit": false,
      "t": 37349.36833333338,
      "d": 60.240916666669364,
      "v": 95
    },
    {
      "midi": 80,
      "hit": false,
      "t": 37349.36833333338,
      "d": 90.36137500000041,
      "v": 97
    },
    {
      "midi": 73,
      "hit": false,
      "t": 37590.33200000005,
      "d": 60.240916666669364,
      "v": 72
    },
    {
      "midi": 78,
      "hit": false,
      "t": 37590.33200000005,
      "d": 60.240916666669364,
      "v": 88
    },
    {
      "midi": 82,
      "hit": false,
      "t": 37590.33200000005,
      "d": 90.36137500000041,
      "v": 92
    },
    {
      "midi": 73,
      "hit": false,
      "t": 37831.29566666672,
      "d": 60.240916666669364,
      "v": 73
    },
    {
      "midi": 78,
      "hit": false,
      "t": 37831.29566666672,
      "d": 60.240916666669364,
      "v": 90
    },
    {
      "midi": 82,
      "hit": false,
      "t": 37831.29566666672,
      "d": 60.240916666669364,
      "v": 95
    },
    {
      "midi": 73,
      "hit": false,
      "t": 38072.25933333339,
      "d": 60.240916666669364,
      "v": 82
    },
    {
      "midi": 78,
      "hit": false,
      "t": 38072.25933333339,
      "d": 60.240916666669364,
      "v": 92
    },
    {
      "midi": 82,
      "hit": false,
      "t": 38072.25933333339,
      "d": 60.240916666669364,
      "v": 92
    },
    {
      "midi": 73,
      "hit": false,
      "t": 38313.22300000006,
      "d": 60.240916666669364,
      "v": 82
    },
    {
      "midi": 78,
      "hit": false,
      "t": 38313.22300000006,
      "d": 60.240916666669364,
      "v": 99
    },
    {
      "midi": 82,
      "hit": false,
      "t": 38313.22300000006,
      "d": 90.36137500000041,
      "v": 99
    },
    {
      "midi": 73,
      "hit": false,
      "t": 38554.186666666734,
      "d": 60.240916666669364,
      "v": 76
    },
    {
      "midi": 78,
      "hit": false,
      "t": 38554.186666666734,
      "d": 60.240916666669364,
      "v": 92
    },
    {
      "midi": 82,
      "hit": false,
      "t": 38554.186666666734,
      "d": 60.240916666669364,
      "v": 95
    },
    {
      "midi": 73,
      "hit": false,
      "t": 38795.150333333404,
      "d": 60.240916666669364,
      "v": 84
    },
    {
      "midi": 78,
      "hit": false,
      "t": 38795.150333333404,
      "d": 60.240916666669364,
      "v": 92
    },
    {
      "midi": 82,
      "hit": false,
      "t": 38795.150333333404,
      "d": 60.240916666669364,
      "v": 97
    },
    {
      "midi": 73,
      "hit": false,
      "t": 39036.114000000074,
      "d": 60.240916666669364,
      "v": 84
    },
    {
      "midi": 78,
      "hit": false,
      "t": 39036.114000000074,
      "d": 60.240916666669364,
      "v": 92
    },
    {
      "midi": 82,
      "hit": false,
      "t": 39036.114000000074,
      "d": 90.36137500000041,
      "v": 95
    },
    {
      "midi": 73,
      "hit": false,
      "t": 39277.077666666744,
      "d": 60.240916666669364,
      "v": 80
    },
    {
      "midi": 78,
      "hit": false,
      "t": 39277.077666666744,
      "d": 60.240916666669364,
      "v": 92
    },
    {
      "midi": 82,
      "hit": false,
      "t": 39277.077666666744,
      "d": 60.240916666669364,
      "v": 92
    },
    {
      "midi": 73,
      "hit": false,
      "t": 39518.041333333415,
      "d": 60.240916666669364,
      "v": 82
    },
    {
      "midi": 78,
      "hit": false,
      "t": 39518.041333333415,
      "d": 60.240916666669364,
      "v": 92
    },
    {
      "midi": 82,
      "hit": false,
      "t": 39518.041333333415,
      "d": 90.36137500000041,
      "v": 95
    },
    {
      "midi": 73,
      "hit": false,
      "t": 39759.005000000085,
      "d": 60.240916666669364,
      "v": 88
    },
    {
      "midi": 78,
      "hit": false,
      "t": 39759.005000000085,
      "d": 60.240916666669364,
      "v": 101
    },
    {
      "midi": 82,
      "hit": false,
      "t": 39759.005000000085,
      "d": 90.36137500000041,
      "v": 97
    },
    {
      "midi": 73,
      "hit": false,
      "t": 39999.968666666755,
      "d": 60.240916666669364,
      "v": 78
    },
    {
      "midi": 78,
      "hit": false,
      "t": 39999.968666666755,
      "d": 60.240916666669364,
      "v": 95
    },
    {
      "midi": 82,
      "hit": false,
      "t": 39999.968666666755,
      "d": 60.240916666669364,
      "v": 97
    },
    {
      "midi": 73,
      "hit": false,
      "t": 40240.932333333425,
      "d": 60.240916666669364,
      "v": 84
    },
    {
      "midi": 78,
      "hit": false,
      "t": 40240.932333333425,
      "d": 60.240916666669364,
      "v": 92
    },
    {
      "midi": 82,
      "hit": false,
      "t": 40240.932333333425,
      "d": 60.240916666669364,
      "v": 97
    },
    {
      "midi": 71,
      "hit": false,
      "t": 40481.896000000095,
      "d": 60.240916666669364,
      "v": 92
    },
    {
      "midi": 76,
      "hit": false,
      "t": 40481.896000000095,
      "d": 60.240916666669364,
      "v": 103
    },
    {
      "midi": 80,
      "hit": false,
      "t": 40481.896000000095,
      "d": 60.240916666669364,
      "v": 103
    },
    {
      "midi": 71,
      "hit": false,
      "t": 40722.859666666765,
      "d": 60.240916666669364,
      "v": 78
    },
    {
      "midi": 76,
      "hit": false,
      "t": 40722.859666666765,
      "d": 60.240916666669364,
      "v": 92
    },
    {
      "midi": 80,
      "hit": false,
      "t": 40722.859666666765,
      "d": 60.240916666669364,
      "v": 95
    },
    {
      "midi": 71,
      "hit": false,
      "t": 40963.823333333436,
      "d": 60.240916666669364,
      "v": 78
    },
    {
      "midi": 76,
      "hit": false,
      "t": 40963.823333333436,
      "d": 60.240916666669364,
      "v": 95
    },
    {
      "midi": 80,
      "hit": false,
      "t": 40963.823333333436,
      "d": 60.240916666669364,
      "v": 99
    },
    {
      "midi": 71,
      "hit": false,
      "t": 41204.787000000106,
      "d": 60.240916666669364,
      "v": 88
    },
    {
      "midi": 76,
      "hit": false,
      "t": 41204.787000000106,
      "d": 60.240916666669364,
      "v": 101
    },
    {
      "midi": 80,
      "hit": false,
      "t": 41204.787000000106,
      "d": 90.36137500000041,
      "v": 105
    },
    {
      "midi": 71,
      "hit": false,
      "t": 41445.750666666776,
      "d": 60.240916666669364,
      "v": 82
    },
    {
      "midi": 76,
      "hit": false,
      "t": 41445.750666666776,
      "d": 60.240916666669364,
      "v": 95
    },
    {
      "midi": 80,
      "hit": false,
      "t": 41445.750666666776,
      "d": 90.36137500000041,
      "v": 99
    },
    {
      "midi": 71,
      "hit": false,
      "t": 41686.714333333446,
      "d": 60.240916666669364,
      "v": 82
    },
    {
      "midi": 76,
      "hit": false,
      "t": 41686.714333333446,
      "d": 60.240916666669364,
      "v": 101
    },
    {
      "midi": 80,
      "hit": false,
      "t": 41686.714333333446,
      "d": 90.36137500000041,
      "v": 97
    },
    {
      "midi": 71,
      "hit": false,
      "t": 41927.678000000116,
      "d": 60.240916666669364,
      "v": 78
    },
    {
      "midi": 76,
      "hit": false,
      "t": 41927.678000000116,
      "d": 60.240916666669364,
      "v": 97
    },
    {
      "midi": 80,
      "hit": false,
      "t": 41927.678000000116,
      "d": 90.36137500000041,
      "v": 99
    },
    {
      "midi": 71,
      "hit": false,
      "t": 42168.64166666679,
      "d": 60.240916666669364,
      "v": 70
    },
    {
      "midi": 76,
      "hit": false,
      "t": 42168.64166666679,
      "d": 60.240916666669364,
      "v": 95
    },
    {
      "midi": 80,
      "hit": false,
      "t": 42168.64166666679,
      "d": 90.36137500000041,
      "v": 97
    },
    {
      "midi": 71,
      "hit": false,
      "t": 42409.60533333346,
      "d": 60.240916666669364,
      "v": 72
    },
    {
      "midi": 76,
      "hit": false,
      "t": 42409.60533333346,
      "d": 60.240916666669364,
      "v": 97
    },
    {
      "midi": 80,
      "hit": false,
      "t": 42409.60533333346,
      "d": 60.240916666669364,
      "v": 95
    },
    {
      "midi": 71,
      "hit": false,
      "t": 42650.56900000013,
      "d": 60.240916666669364,
      "v": 86
    },
    {
      "midi": 76,
      "hit": false,
      "t": 42650.56900000013,
      "d": 60.240916666669364,
      "v": 97
    },
    {
      "midi": 80,
      "hit": false,
      "t": 42650.56900000013,
      "d": 90.36137500000041,
      "v": 97
    },
    {
      "midi": 71,
      "hit": false,
      "t": 42891.5326666668,
      "d": 60.240916666669364,
      "v": 84
    },
    {
      "midi": 76,
      "hit": false,
      "t": 42891.5326666668,
      "d": 60.240916666669364,
      "v": 97
    },
    {
      "midi": 80,
      "hit": false,
      "t": 42891.5326666668,
      "d": 90.36137500000041,
      "v": 97
    },
    {
      "midi": 71,
      "hit": false,
      "t": 43132.49633333347,
      "d": 60.24091666666209,
      "v": 80
    },
    {
      "midi": 76,
      "hit": false,
      "t": 43132.49633333347,
      "d": 60.24091666666209,
      "v": 97
    },
    {
      "midi": 80,
      "hit": false,
      "t": 43132.49633333347,
      "d": 90.36137499999313,
      "v": 99
    },
    {
      "midi": 73,
      "hit": false,
      "t": 43373.46000000012,
      "d": 60.240916666669364,
      "v": 84
    },
    {
      "midi": 78,
      "hit": false,
      "t": 43373.46000000012,
      "d": 60.240916666669364,
      "v": 97
    },
    {
      "midi": 82,
      "hit": false,
      "t": 43373.46000000012,
      "d": 90.36137500000041,
      "v": 97
    },
    {
      "midi": 73,
      "hit": false,
      "t": 43614.42366666679,
      "d": 60.240916666669364,
      "v": 72
    },
    {
      "midi": 78,
      "hit": false,
      "t": 43614.42366666679,
      "d": 60.240916666669364,
      "v": 88
    },
    {
      "midi": 82,
      "hit": false,
      "t": 43614.42366666679,
      "d": 60.240916666669364,
      "v": 92
    },
    {
      "midi": 73,
      "hit": false,
      "t": 43855.38733333346,
      "d": 60.240916666669364,
      "v": 86
    },
    {
      "midi": 78,
      "hit": false,
      "t": 43855.38733333346,
      "d": 60.240916666669364,
      "v": 97
    },
    {
      "midi": 82,
      "hit": false,
      "t": 43855.38733333346,
      "d": 90.36137500000041,
      "v": 95
    },
    {
      "midi": 73,
      "hit": false,
      "t": 44096.35100000013,
      "d": 60.240916666669364,
      "v": 80
    },
    {
      "midi": 78,
      "hit": false,
      "t": 44096.35100000013,
      "d": 60.240916666669364,
      "v": 99
    },
    {
      "midi": 82,
      "hit": false,
      "t": 44096.35100000013,
      "d": 90.36137500000041,
      "v": 101
    },
    {
      "midi": 73,
      "hit": false,
      "t": 44337.3146666668,
      "d": 60.240916666669364,
      "v": 78
    },
    {
      "midi": 78,
      "hit": false,
      "t": 44337.3146666668,
      "d": 60.240916666669364,
      "v": 90
    },
    {
      "midi": 82,
      "hit": false,
      "t": 44337.3146666668,
      "d": 60.240916666669364,
      "v": 92
    },
    {
      "midi": 73,
      "hit": false,
      "t": 44578.278333333474,
      "d": 60.240916666669364,
      "v": 86
    },
    {
      "midi": 78,
      "hit": false,
      "t": 44578.278333333474,
      "d": 60.240916666669364,
      "v": 97
    },
    {
      "midi": 82,
      "hit": false,
      "t": 44578.278333333474,
      "d": 60.240916666669364,
      "v": 95
    },
    {
      "midi": 73,
      "hit": false,
      "t": 44819.242000000144,
      "d": 60.240916666669364,
      "v": 82
    },
    {
      "midi": 78,
      "hit": false,
      "t": 44819.242000000144,
      "d": 60.240916666669364,
      "v": 95
    },
    {
      "midi": 82,
      "hit": false,
      "t": 44819.242000000144,
      "d": 90.36137500000041,
      "v": 97
    },
    {
      "midi": 73,
      "hit": false,
      "t": 45060.205666666814,
      "d": 60.240916666669364,
      "v": 82
    },
    {
      "midi": 78,
      "hit": false,
      "t": 45060.205666666814,
      "d": 60.240916666669364,
      "v": 95
    },
    {
      "midi": 82,
      "hit": false,
      "t": 45060.205666666814,
      "d": 60.240916666669364,
      "v": 95
    },
    {
      "midi": 73,
      "hit": false,
      "t": 45301.169333333484,
      "d": 60.240916666669364,
      "v": 76
    },
    {
      "midi": 78,
      "hit": false,
      "t": 45301.169333333484,
      "d": 60.240916666669364,
      "v": 90
    },
    {
      "midi": 82,
      "hit": false,
      "t": 45301.169333333484,
      "d": 90.36137500000041,
      "v": 95
    },
    {
      "midi": 73,
      "hit": false,
      "t": 45542.133000000154,
      "d": 60.240916666669364,
      "v": 86
    },
    {
      "midi": 78,
      "hit": false,
      "t": 45542.133000000154,
      "d": 60.240916666669364,
      "v": 99
    },
    {
      "midi": 82,
      "hit": false,
      "t": 45542.133000000154,
      "d": 90.36137500000041,
      "v": 95
    },
    {
      "midi": 73,
      "hit": false,
      "t": 45783.096666666825,
      "d": 60.240916666669364,
      "v": 82
    },
    {
      "midi": 78,
      "hit": false,
      "t": 45783.096666666825,
      "d": 60.240916666669364,
      "v": 97
    },
    {
      "midi": 82,
      "hit": false,
      "t": 45783.096666666825,
      "d": 90.36137500000041,
      "v": 92
    },
    {
      "midi": 73,
      "hit": false,
      "t": 46024.06033333349,
      "d": 60.240916666669364,
      "v": 86
    },
    {
      "midi": 78,
      "hit": false,
      "t": 46024.06033333349,
      "d": 60.240916666669364,
      "v": 95
    },
    {
      "midi": 82,
      "hit": false,
      "t": 46024.06033333349,
      "d": 60.240916666669364,
      "v": 97
    },
    {
      "midi": 75,
      "hit": false,
      "t": 46265.02400000016,
      "d": 30.120458333331044,
      "v": 95
    },
    {
      "midi": 71,
      "hit": false,
      "t": 46265.02400000016,
      "d": 60.24091666666209,
      "v": 80
    },
    {
      "midi": 78,
      "hit": false,
      "t": 46265.02400000016,
      "d": 60.24091666666209,
      "v": 95
    },
    {
      "midi": 71,
      "hit": false,
      "t": 46505.98766666682,
      "d": 60.240916666669364,
      "v": 78
    },
    {
      "midi": 75,
      "hit": false,
      "t": 46505.98766666682,
      "d": 60.240916666669364,
      "v": 95
    },
    {
      "midi": 78,
      "hit": false,
      "t": 46505.98766666682,
      "d": 60.240916666669364,
      "v": 95
    },
    {
      "midi": 71,
      "hit": false,
      "t": 46746.95133333349,
      "d": 60.240916666669364,
      "v": 76
    },
    {
      "midi": 75,
      "hit": false,
      "t": 46746.95133333349,
      "d": 60.240916666669364,
      "v": 99
    },
    {
      "midi": 78,
      "hit": false,
      "t": 46746.95133333349,
      "d": 60.240916666669364,
      "v": 103
    },
    {
      "midi": 71,
      "hit": false,
      "t": 46987.91500000016,
      "d": 60.240916666669364,
      "v": 88
    },
    {
      "midi": 75,
      "hit": false,
      "t": 46987.91500000016,
      "d": 60.240916666669364,
      "v": 103
    },
    {
      "midi": 78,
      "hit": false,
      "t": 46987.91500000016,
      "d": 90.36137500000041,
      "v": 101
    },
    {
      "midi": 71,
      "hit": false,
      "t": 47228.87866666683,
      "d": 60.240916666669364,
      "v": 74
    },
    {
      "midi": 75,
      "hit": false,
      "t": 47228.87866666683,
      "d": 60.240916666669364,
      "v": 92
    },
    {
      "midi": 78,
      "hit": false,
      "t": 47228.87866666683,
      "d": 90.36137500000041,
      "v": 95
    },
    {
      "midi": 71,
      "hit": false,
      "t": 47469.8423333335,
      "d": 60.240916666669364,
      "v": 74
    },
    {
      "midi": 75,
      "hit": false,
      "t": 47469.8423333335,
      "d": 60.240916666669364,
      "v": 97
    },
    {
      "midi": 78,
      "hit": false,
      "t": 47469.8423333335,
      "d": 90.36137500000041,
      "v": 99
    },
    {
      "midi": 71,
      "hit": false,
      "t": 47710.80600000017,
      "d": 60.240916666669364,
      "v": 76
    },
    {
      "midi": 75,
      "hit": false,
      "t": 47710.80600000017,
      "d": 60.240916666669364,
      "v": 88
    },
    {
      "midi": 78,
      "hit": false,
      "t": 47710.80600000017,
      "d": 60.240916666669364,
      "v": 95
    },
    {
      "midi": 71,
      "hit": false,
      "t": 47951.76966666684,
      "d": 60.240916666669364,
      "v": 80
    },
    {
      "midi": 75,
      "hit": false,
      "t": 47951.76966666684,
      "d": 60.240916666669364,
      "v": 97
    },
    {
      "midi": 78,
      "hit": false,
      "t": 47951.76966666684,
      "d": 60.240916666669364,
      "v": 99
    },
    {
      "midi": 71,
      "hit": false,
      "t": 48192.73333333351,
      "d": 60.240916666669364,
      "v": 68
    },
    {
      "midi": 75,
      "hit": false,
      "t": 48192.73333333351,
      "d": 60.240916666669364,
      "v": 92
    },
    {
      "midi": 78,
      "hit": false,
      "t": 48192.73333333351,
      "d": 60.240916666669364,
      "v": 99
    },
    {
      "midi": 71,
      "hit": false,
      "t": 48433.69700000018,
      "d": 60.240916666669364,
      "v": 78
    },
    {
      "midi": 75,
      "hit": false,
      "t": 48433.69700000018,
      "d": 60.240916666669364,
      "v": 97
    },
    {
      "midi": 78,
      "hit": false,
      "t": 48433.69700000018,
      "d": 90.36137500000041,
      "v": 103
    },
    {
      "midi": 71,
      "hit": false,
      "t": 48674.66066666685,
      "d": 60.240916666669364,
      "v": 82
    },
    {
      "midi": 75,
      "hit": false,
      "t": 48674.66066666685,
      "d": 60.240916666669364,
      "v": 97
    },
    {
      "midi": 78,
      "hit": false,
      "t": 48674.66066666685,
      "d": 90.36137500000041,
      "v": 101
    },
    {
      "midi": 71,
      "hit": false,
      "t": 48915.62433333352,
      "d": 60.240916666669364,
      "v": 80
    },
    {
      "midi": 75,
      "hit": false,
      "t": 48915.62433333352,
      "d": 60.240916666669364,
      "v": 99
    },
    {
      "midi": 78,
      "hit": false,
      "t": 48915.62433333352,
      "d": 60.240916666669364,
      "v": 103
    },
    {
      "midi": 71,
      "hit": false,
      "t": 49156.58800000019,
      "d": 60.240916666669364,
      "v": 92
    },
    {
      "midi": 76,
      "hit": false,
      "t": 49156.58800000019,
      "d": 60.240916666669364,
      "v": 101
    },
    {
      "midi": 80,
      "hit": false,
      "t": 49156.58800000019,
      "d": 60.240916666669364,
      "v": 105
    },
    {
      "midi": 71,
      "hit": false,
      "t": 49397.55166666686,
      "d": 60.240916666669364,
      "v": 80
    },
    {
      "midi": 76,
      "hit": false,
      "t": 49397.55166666686,
      "d": 60.240916666669364,
      "v": 97
    },
    {
      "midi": 80,
      "hit": false,
      "t": 49397.55166666686,
      "d": 60.240916666669364,
      "v": 99
    },
    {
      "midi": 71,
      "hit": false,
      "t": 49638.51533333353,
      "d": 60.240916666669364,
      "v": 86
    },
    {
      "midi": 76,
      "hit": false,
      "t": 49638.51533333353,
      "d": 60.240916666669364,
      "v": 103
    },
    {
      "midi": 80,
      "hit": false,
      "t": 49638.51533333353,
      "d": 60.240916666669364,
      "v": 101
    },
    {
      "midi": 71,
      "hit": false,
      "t": 49879.4790000002,
      "d": 60.240916666669364,
      "v": 86
    },
    {
      "midi": 76,
      "hit": false,
      "t": 49879.4790000002,
      "d": 60.240916666669364,
      "v": 103
    },
    {
      "midi": 80,
      "hit": false,
      "t": 49879.4790000002,
      "d": 90.36137500000041,
      "v": 101
    },
    {
      "midi": 71,
      "hit": false,
      "t": 50120.44266666687,
      "d": 60.240916666669364,
      "v": 84
    },
    {
      "midi": 76,
      "hit": false,
      "t": 50120.44266666687,
      "d": 60.240916666669364,
      "v": 95
    },
    {
      "midi": 80,
      "hit": false,
      "t": 50120.44266666687,
      "d": 60.240916666669364,
      "v": 97
    },
    {
      "midi": 71,
      "hit": false,
      "t": 50361.40633333354,
      "d": 60.240916666669364,
      "v": 82
    },
    {
      "midi": 76,
      "hit": false,
      "t": 50361.40633333354,
      "d": 60.240916666669364,
      "v": 97
    },
    {
      "midi": 80,
      "hit": false,
      "t": 50361.40633333354,
      "d": 60.240916666669364,
      "v": 97
    },
    {
      "midi": 71,
      "hit": false,
      "t": 50602.37000000021,
      "d": 60.240916666669364,
      "v": 82
    },
    {
      "midi": 76,
      "hit": false,
      "t": 50602.37000000021,
      "d": 60.240916666669364,
      "v": 99
    },
    {
      "midi": 80,
      "hit": false,
      "t": 50602.37000000021,
      "d": 60.240916666669364,
      "v": 97
    },
    {
      "midi": 71,
      "hit": false,
      "t": 50843.333666666884,
      "d": 60.240916666669364,
      "v": 82
    },
    {
      "midi": 76,
      "hit": false,
      "t": 50843.333666666884,
      "d": 60.240916666669364,
      "v": 95
    },
    {
      "midi": 80,
      "hit": false,
      "t": 50843.333666666884,
      "d": 60.240916666669364,
      "v": 99
    },
    {
      "midi": 71,
      "hit": false,
      "t": 51084.297333333554,
      "d": 60.240916666669364,
      "v": 88
    },
    {
      "midi": 76,
      "hit": false,
      "t": 51084.297333333554,
      "d": 60.240916666669364,
      "v": 97
    },
    {
      "midi": 80,
      "hit": false,
      "t": 51084.297333333554,
      "d": 90.36137500000041,
      "v": 101
    },
    {
      "midi": 71,
      "hit": false,
      "t": 51325.261000000224,
      "d": 60.240916666669364,
      "v": 82
    },
    {
      "midi": 76,
      "hit": false,
      "t": 51325.261000000224,
      "d": 60.240916666669364,
      "v": 99
    },
    {
      "midi": 80,
      "hit": false,
      "t": 51325.261000000224,
      "d": 90.36137500000041,
      "v": 99
    },
    {
      "midi": 71,
      "hit": false,
      "t": 51566.224666666894,
      "d": 60.240916666669364,
      "v": 82
    },
    {
      "midi": 76,
      "hit": false,
      "t": 51566.224666666894,
      "d": 60.240916666669364,
      "v": 97
    },
    {
      "midi": 80,
      "hit": false,
      "t": 51566.224666666894,
      "d": 90.36137500000041,
      "v": 97
    },
    {
      "midi": 71,
      "hit": false,
      "t": 51807.188333333565,
      "d": 60.240916666669364,
      "v": 80
    },
    {
      "midi": 76,
      "hit": false,
      "t": 51807.188333333565,
      "d": 60.240916666669364,
      "v": 95
    },
    {
      "midi": 80,
      "hit": false,
      "t": 51807.188333333565,
      "d": 90.36137500000041,
      "v": 97
    },
    {
      "midi": 73,
      "hit": false,
      "t": 52048.152000000235,
      "d": 60.240916666669364,
      "v": 84
    },
    {
      "midi": 78,
      "hit": false,
      "t": 52048.152000000235,
      "d": 60.240916666669364,
      "v": 92
    },
    {
      "midi": 82,
      "hit": false,
      "t": 52048.152000000235,
      "d": 60.240916666669364,
      "v": 95
    },
    {
      "midi": 73,
      "hit": false,
      "t": 52289.115666666905,
      "d": 60.240916666669364,
      "v": 82
    },
    {
      "midi": 78,
      "hit": false,
      "t": 52289.115666666905,
      "d": 60.240916666669364,
      "v": 95
    },
    {
      "midi": 82,
      "hit": false,
      "t": 52289.115666666905,
      "d": 90.36137500000041,
      "v": 97
    },
    {
      "midi": 73,
      "hit": false,
      "t": 52530.079333333575,
      "d": 60.240916666669364,
      "v": 78
    },
    {
      "midi": 78,
      "hit": false,
      "t": 52530.079333333575,
      "d": 60.240916666669364,
      "v": 95
    },
    {
      "midi": 82,
      "hit": false,
      "t": 52530.079333333575,
      "d": 90.36137500000041,
      "v": 95
    },
    {
      "midi": 73,
      "hit": false,
      "t": 52771.043000000245,
      "d": 60.240916666669364,
      "v": 92
    },
    {
      "midi": 78,
      "hit": false,
      "t": 52771.043000000245,
      "d": 60.240916666669364,
      "v": 99
    },
    {
      "midi": 82,
      "hit": false,
      "t": 52771.043000000245,
      "d": 90.36137500000041,
      "v": 95
    },
    {
      "midi": 73,
      "hit": false,
      "t": 53012.006666666915,
      "d": 60.240916666669364,
      "v": 84
    },
    {
      "midi": 78,
      "hit": false,
      "t": 53012.006666666915,
      "d": 60.240916666669364,
      "v": 97
    },
    {
      "midi": 82,
      "hit": false,
      "t": 53012.006666666915,
      "d": 90.36137500000041,
      "v": 92
    },
    {
      "midi": 73,
      "hit": false,
      "t": 53252.970333333586,
      "d": 60.240916666669364,
      "v": 67
    },
    {
      "midi": 78,
      "hit": false,
      "t": 53252.970333333586,
      "d": 60.240916666669364,
      "v": 92
    },
    {
      "midi": 82,
      "hit": false,
      "t": 53252.970333333586,
      "d": 90.36137500000041,
      "v": 92
    },
    {
      "midi": 73,
      "hit": false,
      "t": 53493.934000000256,
      "d": 60.240916666669364,
      "v": 86
    },
    {
      "midi": 78,
      "hit": false,
      "t": 53493.934000000256,
      "d": 60.240916666669364,
      "v": 99
    },
    {
      "midi": 82,
      "hit": false,
      "t": 53493.934000000256,
      "d": 90.36137500000041,
      "v": 99
    },
    {
      "midi": 73,
      "hit": false,
      "t": 53734.897666666926,
      "d": 60.240916666669364,
      "v": 78
    },
    {
      "midi": 78,
      "hit": false,
      "t": 53734.897666666926,
      "d": 60.240916666669364,
      "v": 97
    },
    {
      "midi": 82,
      "hit": false,
      "t": 53734.897666666926,
      "d": 90.36137500000041,
      "v": 99
    },
    {
      "midi": 73,
      "hit": false,
      "t": 53975.861333333596,
      "d": 60.240916666669364,
      "v": 84
    },
    {
      "midi": 78,
      "hit": false,
      "t": 53975.861333333596,
      "d": 60.240916666669364,
      "v": 99
    },
    {
      "midi": 82,
      "hit": false,
      "t": 53975.861333333596,
      "d": 90.36137500000041,
      "v": 99
    },
    {
      "midi": 73,
      "hit": false,
      "t": 54216.825000000266,
      "d": 60.240916666669364,
      "v": 86
    },
    {
      "midi": 78,
      "hit": false,
      "t": 54216.825000000266,
      "d": 60.240916666669364,
      "v": 105
    },
    {
      "midi": 82,
      "hit": false,
      "t": 54216.825000000266,
      "d": 90.36137500000041,
      "v": 99
    },
    {
      "midi": 73,
      "hit": false,
      "t": 54457.78866666694,
      "d": 60.240916666669364,
      "v": 76
    },
    {
      "midi": 78,
      "hit": false,
      "t": 54457.78866666694,
      "d": 60.240916666669364,
      "v": 92
    },
    {
      "midi": 82,
      "hit": false,
      "t": 54457.78866666694,
      "d": 90.36137500000041,
      "v": 95
    },
    {
      "midi": 73,
      "hit": false,
      "t": 54698.75233333361,
      "d": 60.240916666669364,
      "v": 80
    },
    {
      "midi": 78,
      "hit": false,
      "t": 54698.75233333361,
      "d": 60.240916666669364,
      "v": 97
    },
    {
      "midi": 82,
      "hit": false,
      "t": 54698.75233333361,
      "d": 90.36137500000041,
      "v": 95
    },
    {
      "midi": 71,
      "hit": false,
      "t": 54939.71600000028,
      "d": 60.240916666669364,
      "v": 95
    },
    {
      "midi": 76,
      "hit": false,
      "t": 54939.71600000028,
      "d": 60.240916666669364,
      "v": 105
    },
    {
      "midi": 80,
      "hit": false,
      "t": 54939.71600000028,
      "d": 90.36137500000041,
      "v": 105
    },
    {
      "midi": 71,
      "hit": false,
      "t": 55180.67966666695,
      "d": 60.240916666669364,
      "v": 70
    },
    {
      "midi": 76,
      "hit": false,
      "t": 55180.67966666695,
      "d": 60.240916666669364,
      "v": 95
    },
    {
      "midi": 80,
      "hit": false,
      "t": 55180.67966666695,
      "d": 60.240916666669364,
      "v": 95
    },
    {
      "midi": 71,
      "hit": false,
      "t": 55421.64333333362,
      "d": 60.240916666669364,
      "v": 76
    },
    {
      "midi": 76,
      "hit": false,
      "t": 55421.64333333362,
      "d": 60.240916666669364,
      "v": 97
    },
    {
      "midi": 80,
      "hit": false,
      "t": 55421.64333333362,
      "d": 90.36137500000041,
      "v": 97
    },
    {
      "midi": 71,
      "hit": false,
      "t": 55662.60700000029,
      "d": 60.240916666669364,
      "v": 78
    },
    {
      "midi": 76,
      "hit": false,
      "t": 55662.60700000029,
      "d": 60.240916666669364,
      "v": 103
    },
    {
      "midi": 80,
      "hit": false,
      "t": 55662.60700000029,
      "d": 90.36137500000041,
      "v": 105
    },
    {
      "midi": 71,
      "hit": false,
      "t": 55903.57066666696,
      "d": 60.240916666669364,
      "v": 80
    },
    {
      "midi": 76,
      "hit": false,
      "t": 55903.57066666696,
      "d": 60.240916666669364,
      "v": 95
    },
    {
      "midi": 80,
      "hit": false,
      "t": 55903.57066666696,
      "d": 60.240916666669364,
      "v": 97
    },
    {
      "midi": 71,
      "hit": false,
      "t": 56144.53433333363,
      "d": 60.240916666669364,
      "v": 86
    },
    {
      "midi": 76,
      "hit": false,
      "t": 56144.53433333363,
      "d": 60.240916666669364,
      "v": 99
    },
    {
      "midi": 80,
      "hit": false,
      "t": 56144.53433333363,
      "d": 90.36137500000041,
      "v": 99
    },
    {
      "midi": 71,
      "hit": false,
      "t": 56385.4980000003,
      "d": 60.240916666669364,
      "v": 82
    },
    {
      "midi": 76,
      "hit": false,
      "t": 56385.4980000003,
      "d": 60.240916666669364,
      "v": 97
    },
    {
      "midi": 80,
      "hit": false,
      "t": 56385.4980000003,
      "d": 90.36137500000041,
      "v": 97
    },
    {
      "midi": 71,
      "hit": false,
      "t": 56626.46166666697,
      "d": 60.240916666669364,
      "v": 80
    },
    {
      "midi": 76,
      "hit": false,
      "t": 56626.46166666697,
      "d": 60.240916666669364,
      "v": 97
    },
    {
      "midi": 80,
      "hit": false,
      "t": 56626.46166666697,
      "d": 60.240916666669364,
      "v": 99
    },
    {
      "midi": 71,
      "hit": false,
      "t": 56867.42533333364,
      "d": 60.240916666669364,
      "v": 86
    },
    {
      "midi": 76,
      "hit": false,
      "t": 56867.42533333364,
      "d": 60.240916666669364,
      "v": 99
    },
    {
      "midi": 80,
      "hit": false,
      "t": 56867.42533333364,
      "d": 90.36137500000041,
      "v": 101
    },
    {
      "midi": 76,
      "hit": false,
      "t": 57108.38900000031,
      "d": 30.120458333331044,
      "v": 95
    },
    {
      "midi": 71,
      "hit": false,
      "t": 57108.38900000031,
      "d": 60.24091666666209,
      "v": 86
    },
    {
      "midi": 80,
      "hit": false,
      "t": 57108.38900000031,
      "d": 60.24091666666209,
      "v": 97
    },
    {
      "midi": 71,
      "hit": false,
      "t": 57349.35266666697,
      "d": 60.240916666669364,
      "v": 82
    },
    {
      "midi": 76,
      "hit": false,
      "t": 57349.35266666697,
      "d": 60.240916666669364,
      "v": 95
    },
    {
      "midi": 80,
      "hit": false,
      "t": 57349.35266666697,
      "d": 60.240916666669364,
      "v": 97
    },
    {
      "midi": 71,
      "hit": false,
      "t": 57590.31633333364,
      "d": 60.240916666669364,
      "v": 84
    },
    {
      "midi": 76,
      "hit": false,
      "t": 57590.31633333364,
      "d": 60.240916666669364,
      "v": 95
    },
    {
      "midi": 80,
      "hit": false,
      "t": 57590.31633333364,
      "d": 60.240916666669364,
      "v": 97
    },
    {
      "midi": 71,
      "hit": false,
      "t": 57831.28000000031,
      "d": 60.240916666669364,
      "v": 84
    },
    {
      "midi": 75,
      "hit": false,
      "t": 57831.28000000031,
      "d": 60.240916666669364,
      "v": 99
    },
    {
      "midi": 78,
      "hit": false,
      "t": 57831.28000000031,
      "d": 90.36137500000041,
      "v": 101
    },
    {
      "midi": 71,
      "hit": false,
      "t": 58072.24366666698,
      "d": 60.240916666669364,
      "v": 68
    },
    {
      "midi": 75,
      "hit": false,
      "t": 58072.24366666698,
      "d": 60.240916666669364,
      "v": 88
    },
    {
      "midi": 78,
      "hit": false,
      "t": 58072.24366666698,
      "d": 60.240916666669364,
      "v": 95
    },
    {
      "midi": 71,
      "hit": false,
      "t": 58313.20733333365,
      "d": 60.240916666669364,
      "v": 78
    },
    {
      "midi": 75,
      "hit": false,
      "t": 58313.20733333365,
      "d": 60.240916666669364,
      "v": 101
    },
    {
      "midi": 78,
      "hit": false,
      "t": 58313.20733333365,
      "d": 90.36137500000041,
      "v": 97
    },
    {
      "midi": 71,
      "hit": false,
      "t": 58554.17100000032,
      "d": 60.240916666669364,
      "v": 82
    },
    {
      "midi": 75,
      "hit": false,
      "t": 58554.17100000032,
      "d": 60.240916666669364,
      "v": 99
    },
    {
      "midi": 78,
      "hit": false,
      "t": 58554.17100000032,
      "d": 90.36137500000041,
      "v": 101
    },
    {
      "midi": 71,
      "hit": false,
      "t": 58795.13466666699,
      "d": 60.240916666669364,
      "v": 74
    },
    {
      "midi": 75,
      "hit": false,
      "t": 58795.13466666699,
      "d": 60.240916666669364,
      "v": 90
    },
    {
      "midi": 78,
      "hit": false,
      "t": 58795.13466666699,
      "d": 90.36137500000041,
      "v": 95
    },
    {
      "midi": 71,
      "hit": false,
      "t": 59036.09833333366,
      "d": 60.240916666669364,
      "v": 82
    },
    {
      "midi": 75,
      "hit": false,
      "t": 59036.09833333366,
      "d": 60.240916666669364,
      "v": 101
    },
    {
      "midi": 78,
      "hit": false,
      "t": 59036.09833333366,
      "d": 90.36137500000041,
      "v": 101
    },
    {
      "midi": 71,
      "hit": false,
      "t": 59277.06200000033,
      "d": 60.240916666669364,
      "v": 84
    },
    {
      "midi": 76,
      "hit": false,
      "t": 59277.06200000033,
      "d": 60.240916666669364,
      "v": 95
    },
    {
      "midi": 80,
      "hit": false,
      "t": 59277.06200000033,
      "d": 90.36137500000041,
      "v": 105
    },
    {
      "midi": 71,
      "hit": false,
      "t": 59518.025666667,
      "d": 60.240916666669364,
      "v": 84
    },
    {
      "midi": 76,
      "hit": false,
      "t": 59518.025666667,
      "d": 60.240916666669364,
      "v": 95
    },
    {
      "midi": 80,
      "hit": false,
      "t": 59518.025666667,
      "d": 60.240916666669364,
      "v": 101
    },
    {
      "midi": 71,
      "hit": false,
      "t": 59758.98933333367,
      "d": 60.240916666669364,
      "v": 82
    },
    {
      "midi": 76,
      "hit": false,
      "t": 59758.98933333367,
      "d": 60.240916666669364,
      "v": 97
    },
    {
      "midi": 80,
      "hit": false,
      "t": 59758.98933333367,
      "d": 90.36137500000041,
      "v": 101
    },
    {
      "midi": 71,
      "hit": false,
      "t": 59999.95300000034,
      "d": 60.240916666669364,
      "v": 80
    },
    {
      "midi": 76,
      "hit": false,
      "t": 59999.95300000034,
      "d": 60.240916666669364,
      "v": 97
    },
    {
      "midi": 80,
      "hit": false,
      "t": 59999.95300000034,
      "d": 90.36137500000041,
      "v": 97
    },
    {
      "midi": 71,
      "hit": false,
      "t": 60240.91666666701,
      "d": 60.240916666669364,
      "v": 80
    },
    {
      "midi": 76,
      "hit": false,
      "t": 60240.91666666701,
      "d": 60.240916666669364,
      "v": 97
    },
    {
      "midi": 80,
      "hit": false,
      "t": 60240.91666666701,
      "d": 90.36137500000041,
      "v": 97
    },
    {
      "midi": 71,
      "hit": false,
      "t": 60481.880333333684,
      "d": 60.240916666669364,
      "v": 78
    },
    {
      "midi": 76,
      "hit": false,
      "t": 60481.880333333684,
      "d": 60.240916666669364,
      "v": 97
    },
    {
      "midi": 80,
      "hit": false,
      "t": 60481.880333333684,
      "d": 90.36137500000041,
      "v": 97
    },
    {
      "midi": 71,
      "hit": false,
      "t": 60722.844000000354,
      "d": 60.240916666669364,
      "v": 76
    },
    {
      "midi": 75,
      "hit": false,
      "t": 60722.844000000354,
      "d": 60.240916666669364,
      "v": 97
    },
    {
      "midi": 78,
      "hit": false,
      "t": 60722.844000000354,
      "d": 90.36137500000041,
      "v": 101
    },
    {
      "midi": 71,
      "hit": false,
      "t": 60963.807666667024,
      "d": 60.240916666669364,
      "v": 69
    },
    {
      "midi": 75,
      "hit": false,
      "t": 60963.807666667024,
      "d": 60.240916666669364,
      "v": 90
    },
    {
      "midi": 78,
      "hit": false,
      "t": 60963.807666667024,
      "d": 60.240916666669364,
      "v": 95
    },
    {
      "midi": 71,
      "hit": false,
      "t": 61204.771333333694,
      "d": 60.240916666669364,
      "v": 71
    },
    {
      "midi": 75,
      "hit": false,
      "t": 61204.771333333694,
      "d": 60.240916666669364,
      "v": 92
    },
    {
      "midi": 78,
      "hit": false,
      "t": 61204.771333333694,
      "d": 90.36137500000041,
      "v": 97
    },
    {
      "midi": 71,
      "hit": false,
      "t": 61445.735000000364,
      "d": 60.240916666669364,
      "v": 82
    },
    {
      "midi": 75,
      "hit": false,
      "t": 61445.735000000364,
      "d": 60.240916666669364,
      "v": 103
    },
    {
      "midi": 78,
      "hit": false,
      "t": 61445.735000000364,
      "d": 90.36137500000041,
      "v": 99
    },
    {
      "midi": 71,
      "hit": false,
      "t": 61686.698666667035,
      "d": 60.240916666669364,
      "v": 82
    },
    {
      "midi": 75,
      "hit": false,
      "t": 61686.698666667035,
      "d": 60.240916666669364,
      "v": 101
    },
    {
      "midi": 78,
      "hit": false,
      "t": 61686.698666667035,
      "d": 90.36137500000041,
      "v": 99
    },
    {
      "midi": 71,
      "hit": false,
      "t": 61927.662333333705,
      "d": 60.240916666669364,
      "v": 82
    },
    {
      "midi": 75,
      "hit": false,
      "t": 61927.662333333705,
      "d": 60.240916666669364,
      "v": 99
    },
    {
      "midi": 78,
      "hit": false,
      "t": 61927.662333333705,
      "d": 90.36137500000041,
      "v": 103
    },
    {
      "midi": 70,
      "hit": false,
      "t": 62168.626000000375,
      "d": 30.120458333331044,
      "v": 88
    },
    {
      "midi": 73,
      "hit": false,
      "t": 62168.626000000375,
      "d": 30.120458333331044,
      "v": 95
    },
    {
      "midi": 78,
      "hit": false,
      "t": 62168.626000000375,
      "d": 60.24091666666209,
      "v": 103
    },
    {
      "midi": 70,
      "hit": false,
      "t": 62409.58966666704,
      "d": 60.240916666669364,
      "v": 76
    },
    {
      "midi": 73,
      "hit": false,
      "t": 62409.58966666704,
      "d": 60.240916666669364,
      "v": 92
    },
    {
      "midi": 78,
      "hit": false,
      "t": 62409.58966666704,
      "d": 90.36137500000041,
      "v": 97
    },
    {
      "midi": 70,
      "hit": false,
      "t": 62650.55333333371,
      "d": 60.240916666669364,
      "v": 74
    },
    {
      "midi": 73,
      "hit": false,
      "t": 62650.55333333371,
      "d": 60.240916666669364,
      "v": 92
    },
    {
      "midi": 78,
      "hit": false,
      "t": 62650.55333333371,
      "d": 90.36137500000041,
      "v": 97
    },
    {
      "midi": 70,
      "hit": false,
      "t": 62891.51700000038,
      "d": 60.240916666669364,
      "v": 76
    },
    {
      "midi": 73,
      "hit": false,
      "t": 62891.51700000038,
      "d": 60.240916666669364,
      "v": 97
    },
    {
      "midi": 78,
      "hit": false,
      "t": 62891.51700000038,
      "d": 90.36137500000041,
      "v": 101
    },
    {
      "midi": 70,
      "hit": false,
      "t": 63132.48066666705,
      "d": 60.240916666669364,
      "v": 73
    },
    {
      "midi": 73,
      "hit": false,
      "t": 63132.48066666705,
      "d": 60.240916666669364,
      "v": 99
    },
    {
      "midi": 78,
      "hit": false,
      "t": 63132.48066666705,
      "d": 90.36137500000041,
      "v": 103
    },
    {
      "midi": 70,
      "hit": false,
      "t": 63373.44433333372,
      "d": 60.240916666669364,
      "v": 82
    },
    {
      "midi": 73,
      "hit": false,
      "t": 63373.44433333372,
      "d": 60.240916666669364,
      "v": 99
    },
    {
      "midi": 78,
      "hit": false,
      "t": 63373.44433333372,
      "d": 60.240916666669364,
      "v": 103
    },
    {
      "midi": 71,
      "hit": false,
      "t": 63614.40800000039,
      "d": 60.240916666669364,
      "v": 74
    },
    {
      "midi": 75,
      "hit": false,
      "t": 63614.40800000039,
      "d": 90.36137500000041,
      "v": 92
    },
    {
      "midi": 78,
      "hit": false,
      "t": 63614.40800000039,
      "d": 90.36137500000041,
      "v": 99
    },
    {
      "midi": 71,
      "hit": false,
      "t": 63855.37166666705,
      "d": 60.240916666669364,
      "v": 57
    },
    {
      "midi": 75,
      "hit": false,
      "t": 63855.37166666705,
      "d": 60.240916666669364,
      "v": 71
    },
    {
      "midi": 78,
      "hit": false,
      "t": 63855.37166666705,
      "d": 90.36137500000041,
      "v": 82
    },
    {
      "midi": 71,
      "hit": false,
      "t": 64096.33533333372,
      "d": 60.240916666669364,
      "v": 62
    },
    {
      "midi": 75,
      "hit": false,
      "t": 64096.33533333372,
      "d": 60.240916666669364,
      "v": 86
    },
    {
      "midi": 78,
      "hit": false,
      "t": 64096.33533333372,
      "d": 60.240916666669364,
      "v": 78
    },
    {
      "midi": 71,
      "hit": false,
      "t": 64337.29900000039,
      "d": 60.240916666669364,
      "v": 76
    },
    {
      "midi": 75,
      "hit": false,
      "t": 64337.29900000039,
      "d": 60.240916666669364,
      "v": 101
    },
    {
      "midi": 78,
      "hit": false,
      "t": 64337.29900000039,
      "d": 60.240916666669364,
      "v": 95
    },
    {
      "midi": 71,
      "hit": false,
      "t": 64578.26266666706,
      "d": 60.240916666669364,
      "v": 66
    },
    {
      "midi": 75,
      "hit": false,
      "t": 64578.26266666706,
      "d": 60.240916666669364,
      "v": 86
    },
    {
      "midi": 78,
      "hit": false,
      "t": 64578.26266666706,
      "d": 60.240916666669364,
      "v": 84
    },
    {
      "midi": 71,
      "hit": false,
      "t": 64819.22633333373,
      "d": 60.240916666669364,
      "v": 70
    },
    {
      "midi": 75,
      "hit": false,
      "t": 64819.22633333373,
      "d": 60.240916666669364,
      "v": 92
    },
    {
      "midi": 78,
      "hit": false,
      "t": 64819.22633333373,
      "d": 60.240916666669364,
      "v": 88
    },
    {
      "midi": 71,
      "hit": false,
      "t": 65060.1900000004,
      "d": 60.240916666669364,
      "v": 68
    },
    {
      "midi": 75,
      "hit": false,
      "t": 65060.1900000004,
      "d": 60.240916666669364,
      "v": 86
    },
    {
      "midi": 78,
      "hit": false,
      "t": 65060.1900000004,
      "d": 60.240916666669364,
      "v": 90
    },
    {
      "midi": 71,
      "hit": false,
      "t": 65301.15366666707,
      "d": 60.240916666669364,
      "v": 66
    },
    {
      "midi": 75,
      "hit": false,
      "t": 65301.15366666707,
      "d": 60.240916666669364,
      "v": 80
    },
    {
      "midi": 78,
      "hit": false,
      "t": 65301.15366666707,
      "d": 60.240916666669364,
      "v": 78
    },
    {
      "midi": 71,
      "hit": false,
      "t": 65542.11733333374,
      "d": 60.24091666666209,
      "v": 73
    },
    {
      "midi": 75,
      "hit": false,
      "t": 65542.11733333374,
      "d": 60.24091666666209,
      "v": 84
    },
    {
      "midi": 78,
      "hit": false,
      "t": 65542.11733333374,
      "d": 60.24091666666209,
      "v": 95
    },
    {
      "midi": 71,
      "hit": false,
      "t": 65783.0810000004,
      "d": 60.24091666666209,
      "v": 80
    },
    {
      "midi": 75,
      "hit": false,
      "t": 65783.0810000004,
      "d": 60.24091666666209,
      "v": 99
    },
    {
      "midi": 78,
      "hit": false,
      "t": 65783.0810000004,
      "d": 60.24091666666209,
      "v": 92
    },
    {
      "midi": 71,
      "hit": false,
      "t": 66024.04466666706,
      "d": 60.24091666666209,
      "v": 69
    },
    {
      "midi": 75,
      "hit": false,
      "t": 66024.04466666706,
      "d": 60.24091666666209,
      "v": 95
    },
    {
      "midi": 78,
      "hit": false,
      "t": 66024.04466666706,
      "d": 60.24091666666209,
      "v": 95
    },
    {
      "midi": 71,
      "hit": false,
      "t": 66265.00833333372,
      "d": 60.24091666666209,
      "v": 68
    },
    {
      "midi": 75,
      "hit": false,
      "t": 66265.00833333372,
      "d": 60.24091666666209,
      "v": 86
    },
    {
      "midi": 78,
      "hit": false,
      "t": 66265.00833333372,
      "d": 60.24091666666209,
      "v": 88
    },
    {
      "midi": 71,
      "hit": false,
      "t": 66505.97200000039,
      "d": 60.24091666666209,
      "v": 66
    },
    {
      "midi": 75,
      "hit": false,
      "t": 66505.97200000039,
      "d": 60.24091666666209,
      "v": 88
    },
    {
      "midi": 80,
      "hit": false,
      "t": 66505.97200000039,
      "d": 60.24091666666209,
      "v": 95
    },
    {
      "midi": 71,
      "hit": false,
      "t": 66746.93566666705,
      "d": 60.24091666666209,
      "v": 70
    },
    {
      "midi": 75,
      "hit": false,
      "t": 66746.93566666705,
      "d": 60.24091666666209,
      "v": 82
    },
    {
      "midi": 80,
      "hit": false,
      "t": 66746.93566666705,
      "d": 90.36137499999313,
      "v": 95
    },
    {
      "midi": 71,
      "hit": false,
      "t": 66987.89933333371,
      "d": 60.24091666666209,
      "v": 69
    },
    {
      "midi": 75,
      "hit": false,
      "t": 66987.89933333371,
      "d": 60.24091666666209,
      "v": 90
    },
    {
      "midi": 80,
      "hit": false,
      "t": 66987.89933333371,
      "d": 60.24091666666209,
      "v": 90
    },
    {
      "midi": 71,
      "hit": false,
      "t": 67228.86300000038,
      "d": 60.24091666666209,
      "v": 71
    },
    {
      "midi": 75,
      "hit": false,
      "t": 67228.86300000038,
      "d": 60.24091666666209,
      "v": 90
    },
    {
      "midi": 80,
      "hit": false,
      "t": 67228.86300000038,
      "d": 60.24091666666209,
      "v": 92
    },
    {
      "midi": 71,
      "hit": false,
      "t": 67469.82666666704,
      "d": 60.24091666666209,
      "v": 68
    },
    {
      "midi": 75,
      "hit": false,
      "t": 67469.82666666704,
      "d": 60.24091666666209,
      "v": 88
    },
    {
      "midi": 80,
      "hit": false,
      "t": 67469.82666666704,
      "d": 60.24091666666209,
      "v": 95
    },
    {
      "midi": 71,
      "hit": false,
      "t": 67710.7903333337,
      "d": 30.120458333331044,
      "v": 68
    },
    {
      "midi": 75,
      "hit": false,
      "t": 67710.7903333337,
      "d": 60.24091666666209,
      "v": 95
    },
    {
      "midi": 80,
      "hit": false,
      "t": 67710.7903333337,
      "d": 60.24091666666209,
      "v": 97
    },
    {
      "midi": 71,
      "hit": false,
      "t": 67951.75400000036,
      "d": 60.24091666666209,
      "v": 76
    },
    {
      "midi": 75,
      "hit": false,
      "t": 67951.75400000036,
      "d": 60.24091666666209,
      "v": 99
    },
    {
      "midi": 80,
      "hit": false,
      "t": 67951.75400000036,
      "d": 60.24091666666209,
      "v": 97
    },
    {
      "midi": 71,
      "hit": false,
      "t": 68192.71766666703,
      "d": 30.120458333331044,
      "v": 68
    },
    {
      "midi": 75,
      "hit": false,
      "t": 68192.71766666703,
      "d": 60.24091666666209,
      "v": 99
    },
    {
      "midi": 80,
      "hit": false,
      "t": 68192.71766666703,
      "d": 60.24091666666209,
      "v": 92
    },
    {
      "midi": 71,
      "hit": false,
      "t": 68433.68133333369,
      "d": 60.24091666666209,
      "v": 78
    },
    {
      "midi": 75,
      "hit": false,
      "t": 68433.68133333369,
      "d": 60.24091666666209,
      "v": 97
    },
    {
      "midi": 80,
      "hit": false,
      "t": 68433.68133333369,
      "d": 60.24091666666209,
      "v": 97
    },
    {
      "midi": 71,
      "hit": false,
      "t": 68674.64500000035,
      "d": 60.24091666666209,
      "v": 73
    },
    {
      "midi": 75,
      "hit": false,
      "t": 68674.64500000035,
      "d": 60.24091666666209,
      "v": 92
    },
    {
      "midi": 80,
      "hit": false,
      "t": 68674.64500000035,
      "d": 60.24091666666209,
      "v": 95
    },
    {
      "midi": 71,
      "hit": false,
      "t": 68915.60866666702,
      "d": 60.24091666666209,
      "v": 68
    },
    {
      "midi": 75,
      "hit": false,
      "t": 68915.60866666702,
      "d": 60.24091666666209,
      "v": 99
    },
    {
      "midi": 80,
      "hit": false,
      "t": 68915.60866666702,
      "d": 60.24091666666209,
      "v": 95
    },
    {
      "midi": 71,
      "hit": false,
      "t": 69156.57233333368,
      "d": 60.24091666666209,
      "v": 78
    },
    {
      "midi": 75,
      "hit": false,
      "t": 69156.57233333368,
      "d": 60.24091666666209,
      "v": 99
    },
    {
      "midi": 80,
      "hit": false,
      "t": 69156.57233333368,
      "d": 90.36137499999313,
      "v": 95
    },
    {
      "midi": 71,
      "hit": false,
      "t": 69397.53600000033,
      "d": 60.24091666666209,
      "v": 84
    },
    {
      "midi": 76,
      "hit": false,
      "t": 69397.53600000033,
      "d": 60.24091666666209,
      "v": 103
    },
    {
      "midi": 80,
      "hit": false,
      "t": 69397.53600000033,
      "d": 60.24091666666209,
      "v": 99
    },
    {
      "midi": 71,
      "hit": false,
      "t": 69638.49966666699,
      "d": 60.24091666666209,
      "v": 67
    },
    {
      "midi": 76,
      "hit": false,
      "t": 69638.49966666699,
      "d": 60.24091666666209,
      "v": 90
    },
    {
      "midi": 80,
      "hit": false,
      "t": 69638.49966666699,
      "d": 60.24091666666209,
      "v": 90
    },
    {
      "midi": 71,
      "hit": false,
      "t": 69879.46333333365,
      "d": 60.24091666666209,
      "v": 74
    },
    {
      "midi": 76,
      "hit": false,
      "t": 69879.46333333365,
      "d": 60.24091666666209,
      "v": 95
    },
    {
      "midi": 80,
      "hit": false,
      "t": 69879.46333333365,
      "d": 60.24091666666209,
      "v": 97
    },
    {
      "midi": 71,
      "hit": false,
      "t": 70120.42700000032,
      "d": 60.24091666666209,
      "v": 80
    },
    {
      "midi": 76,
      "hit": false,
      "t": 70120.42700000032,
      "d": 60.24091666666209,
      "v": 97
    },
    {
      "midi": 80,
      "hit": false,
      "t": 70120.42700000032,
      "d": 60.24091666666209,
      "v": 97
    },
    {
      "midi": 71,
      "hit": false,
      "t": 70361.39066666698,
      "d": 60.24091666666209,
      "v": 76
    },
    {
      "midi": 76,
      "hit": false,
      "t": 70361.39066666698,
      "d": 60.24091666666209,
      "v": 97
    },
    {
      "midi": 80,
      "hit": false,
      "t": 70361.39066666698,
      "d": 60.24091666666209,
      "v": 95
    },
    {
      "midi": 71,
      "hit": false,
      "t": 70602.35433333364,
      "d": 60.24091666666209,
      "v": 80
    },
    {
      "midi": 76,
      "hit": false,
      "t": 70602.35433333364,
      "d": 60.24091666666209,
      "v": 97
    },
    {
      "midi": 80,
      "hit": false,
      "t": 70602.35433333364,
      "d": 90.36137499999313,
      "v": 97
    },
    {
      "midi": 71,
      "hit": false,
      "t": 70843.3180000003,
      "d": 60.24091666666209,
      "v": 84
    },
    {
      "midi": 76,
      "hit": false,
      "t": 70843.3180000003,
      "d": 60.24091666666209,
      "v": 105
    },
    {
      "midi": 80,
      "hit": false,
      "t": 70843.3180000003,
      "d": 60.24091666666209,
      "v": 97
    },
    {
      "midi": 71,
      "hit": false,
      "t": 71084.28166666697,
      "d": 60.24091666666209,
      "v": 70
    },
    {
      "midi": 76,
      "hit": false,
      "t": 71084.28166666697,
      "d": 60.24091666666209,
      "v": 92
    },
    {
      "midi": 80,
      "hit": false,
      "t": 71084.28166666697,
      "d": 90.36137499999313,
      "v": 99
    },
    {
      "midi": 71,
      "hit": false,
      "t": 71325.24533333363,
      "d": 60.24091666666209,
      "v": 82
    },
    {
      "midi": 76,
      "hit": false,
      "t": 71325.24533333363,
      "d": 60.24091666666209,
      "v": 101
    },
    {
      "midi": 80,
      "hit": false,
      "t": 71325.24533333363,
      "d": 60.24091666666209,
      "v": 99
    },
    {
      "midi": 71,
      "hit": false,
      "t": 71566.2090000003,
      "d": 60.24091666666209,
      "v": 95
    },
    {
      "midi": 76,
      "hit": false,
      "t": 71566.2090000003,
      "d": 60.24091666666209,
      "v": 105
    },
    {
      "midi": 80,
      "hit": false,
      "t": 71566.2090000003,
      "d": 60.24091666666209,
      "v": 99
    },
    {
      "midi": 71,
      "hit": false,
      "t": 71807.17266666696,
      "d": 60.24091666666209,
      "v": 84
    },
    {
      "midi": 76,
      "hit": false,
      "t": 71807.17266666696,
      "d": 60.24091666666209,
      "v": 101
    },
    {
      "midi": 80,
      "hit": false,
      "t": 71807.17266666696,
      "d": 90.36137499999313,
      "v": 99
    },
    {
      "midi": 71,
      "hit": false,
      "t": 72048.13633333362,
      "d": 60.24091666666209,
      "v": 78
    },
    {
      "midi": 76,
      "hit": false,
      "t": 72048.13633333362,
      "d": 60.24091666666209,
      "v": 95
    },
    {
      "midi": 80,
      "hit": false,
      "t": 72048.13633333362,
      "d": 90.36137499999313,
      "v": 97
    },
    {
      "midi": 73,
      "hit": false,
      "t": 72289.10000000027,
      "d": 60.24091666666209,
      "v": 72
    },
    {
      "midi": 78,
      "hit": false,
      "t": 72289.10000000027,
      "d": 60.24091666666209,
      "v": 88
    },
    {
      "midi": 82,
      "hit": false,
      "t": 72289.10000000027,
      "d": 90.36137499999313,
      "v": 92
    },
    {
      "midi": 73,
      "hit": false,
      "t": 72530.06366666693,
      "d": 60.24091666666209,
      "v": 73
    },
    {
      "midi": 78,
      "hit": false,
      "t": 72530.06366666693,
      "d": 60.24091666666209,
      "v": 90
    },
    {
      "midi": 82,
      "hit": false,
      "t": 72530.06366666693,
      "d": 60.24091666666209,
      "v": 95
    },
    {
      "midi": 73,
      "hit": false,
      "t": 72771.0273333336,
      "d": 60.24091666666209,
      "v": 82
    },
    {
      "midi": 78,
      "hit": false,
      "t": 72771.0273333336,
      "d": 60.24091666666209,
      "v": 92
    },
    {
      "midi": 82,
      "hit": false,
      "t": 72771.0273333336,
      "d": 60.24091666666209,
      "v": 92
    },
    {
      "midi": 73,
      "hit": false,
      "t": 73011.99100000026,
      "d": 60.24091666666209,
      "v": 82
    },
    {
      "midi": 78,
      "hit": false,
      "t": 73011.99100000026,
      "d": 60.24091666666209,
      "v": 99
    },
    {
      "midi": 82,
      "hit": false,
      "t": 73011.99100000026,
      "d": 90.36137499999313,
      "v": 99
    },
    {
      "midi": 73,
      "hit": false,
      "t": 73252.95466666692,
      "d": 60.24091666666209,
      "v": 76
    },
    {
      "midi": 78,
      "hit": false,
      "t": 73252.95466666692,
      "d": 60.24091666666209,
      "v": 92
    },
    {
      "midi": 82,
      "hit": false,
      "t": 73252.95466666692,
      "d": 60.24091666666209,
      "v": 95
    },
    {
      "midi": 73,
      "hit": false,
      "t": 73493.91833333358,
      "d": 60.24091666666209,
      "v": 84
    },
    {
      "midi": 78,
      "hit": false,
      "t": 73493.91833333358,
      "d": 60.24091666666209,
      "v": 92
    },
    {
      "midi": 82,
      "hit": false,
      "t": 73493.91833333358,
      "d": 60.24091666666209,
      "v": 97
    },
    {
      "midi": 73,
      "hit": false,
      "t": 73734.88200000025,
      "d": 60.24091666666209,
      "v": 84
    },
    {
      "midi": 78,
      "hit": false,
      "t": 73734.88200000025,
      "d": 60.24091666666209,
      "v": 92
    },
    {
      "midi": 82,
      "hit": false,
      "t": 73734.88200000025,
      "d": 90.36137499999313,
      "v": 95
    },
    {
      "midi": 73,
      "hit": false,
      "t": 73975.84566666691,
      "d": 60.24091666666209,
      "v": 80
    },
    {
      "midi": 78,
      "hit": false,
      "t": 73975.84566666691,
      "d": 60.24091666666209,
      "v": 92
    },
    {
      "midi": 82,
      "hit": false,
      "t": 73975.84566666691,
      "d": 60.24091666666209,
      "v": 92
    },
    {
      "midi": 73,
      "hit": false,
      "t": 74216.80933333357,
      "d": 60.24091666666209,
      "v": 82
    },
    {
      "midi": 78,
      "hit": false,
      "t": 74216.80933333357,
      "d": 60.24091666666209,
      "v": 92
    },
    {
      "midi": 82,
      "hit": false,
      "t": 74216.80933333357,
      "d": 90.36137499999313,
      "v": 95
    },
    {
      "midi": 73,
      "hit": false,
      "t": 74457.77300000023,
      "d": 60.24091666666209,
      "v": 88
    },
    {
      "midi": 78,
      "hit": false,
      "t": 74457.77300000023,
      "d": 60.24091666666209,
      "v": 101
    },
    {
      "midi": 82,
      "hit": false,
      "t": 74457.77300000023,
      "d": 90.36137499999313,
      "v": 97
    },
    {
      "midi": 73,
      "hit": false,
      "t": 74698.7366666669,
      "d": 60.24091666666209,
      "v": 78
    },
    {
      "midi": 78,
      "hit": false,
      "t": 74698.7366666669,
      "d": 60.24091666666209,
      "v": 95
    },
    {
      "midi": 82,
      "hit": false,
      "t": 74698.7366666669,
      "d": 60.24091666666209,
      "v": 97
    },
    {
      "midi": 73,
      "hit": false,
      "t": 74939.70033333356,
      "d": 60.24091666666209,
      "v": 84
    },
    {
      "midi": 78,
      "hit": false,
      "t": 74939.70033333356,
      "d": 60.24091666666209,
      "v": 92
    },
    {
      "midi": 82,
      "hit": false,
      "t": 74939.70033333356,
      "d": 60.24091666666209,
      "v": 97
    },
    {
      "midi": 71,
      "hit": false,
      "t": 75180.66400000022,
      "d": 60.24091666666209,
      "v": 92
    },
    {
      "midi": 76,
      "hit": false,
      "t": 75180.66400000022,
      "d": 60.24091666666209,
      "v": 103
    },
    {
      "midi": 80,
      "hit": false,
      "t": 75180.66400000022,
      "d": 60.24091666666209,
      "v": 103
    },
    {
      "midi": 71,
      "hit": false,
      "t": 75421.62766666687,
      "d": 60.24091666666209,
      "v": 78
    },
    {
      "midi": 76,
      "hit": false,
      "t": 75421.62766666687,
      "d": 60.24091666666209,
      "v": 92
    },
    {
      "midi": 80,
      "hit": false,
      "t": 75421.62766666687,
      "d": 60.24091666666209,
      "v": 95
    },
    {
      "midi": 71,
      "hit": false,
      "t": 75662.59133333353,
      "d": 60.24091666666209,
      "v": 78
    },
    {
      "midi": 76,
      "hit": false,
      "t": 75662.59133333353,
      "d": 60.24091666666209,
      "v": 95
    },
    {
      "midi": 80,
      "hit": false,
      "t": 75662.59133333353,
      "d": 60.24091666666209,
      "v": 99
    },
    {
      "midi": 71,
      "hit": false,
      "t": 75903.5550000002,
      "d": 60.24091666666209,
      "v": 88
    },
    {
      "midi": 76,
      "hit": false,
      "t": 75903.5550000002,
      "d": 60.24091666666209,
      "v": 101
    },
    {
      "midi": 80,
      "hit": false,
      "t": 75903.5550000002,
      "d": 90.36137499999313,
      "v": 105
    },
    {
      "midi": 71,
      "hit": false,
      "t": 76144.51866666686,
      "d": 60.24091666666209,
      "v": 82
    },
    {
      "midi": 76,
      "hit": false,
      "t": 76144.51866666686,
      "d": 60.24091666666209,
      "v": 95
    },
    {
      "midi": 80,
      "hit": false,
      "t": 76144.51866666686,
      "d": 90.36137499999313,
      "v": 99
    },
    {
      "midi": 71,
      "hit": false,
      "t": 76385.48233333352,
      "d": 60.24091666666209,
      "v": 82
    },
    {
      "midi": 76,
      "hit": false,
      "t": 76385.48233333352,
      "d": 60.24091666666209,
      "v": 101
    },
    {
      "midi": 80,
      "hit": false,
      "t": 76385.48233333352,
      "d": 90.36137499999313,
      "v": 97
    },
    {
      "midi": 71,
      "hit": false,
      "t": 76626.44600000019,
      "d": 60.24091666666209,
      "v": 78
    },
    {
      "midi": 76,
      "hit": false,
      "t": 76626.44600000019,
      "d": 60.24091666666209,
      "v": 97
    },
    {
      "midi": 80,
      "hit": false,
      "t": 76626.44600000019,
      "d": 90.36137499999313,
      "v": 99
    },
    {
      "midi": 71,
      "hit": false,
      "t": 76867.40966666685,
      "d": 60.24091666666209,
      "v": 70
    },
    {
      "midi": 76,
      "hit": false,
      "t": 76867.40966666685,
      "d": 60.24091666666209,
      "v": 95
    },
    {
      "midi": 80,
      "hit": false,
      "t": 76867.40966666685,
      "d": 90.36137499999313,
      "v": 97
    },
    {
      "midi": 71,
      "hit": false,
      "t": 77108.37333333351,
      "d": 60.24091666666209,
      "v": 72
    },
    {
      "midi": 76,
      "hit": false,
      "t": 77108.37333333351,
      "d": 60.24091666666209,
      "v": 97
    },
    {
      "midi": 80,
      "hit": false,
      "t": 77108.37333333351,
      "d": 60.24091666666209,
      "v": 95
    },
    {
      "midi": 71,
      "hit": false,
      "t": 77349.33700000017,
      "d": 60.24091666666209,
      "v": 86
    },
    {
      "midi": 76,
      "hit": false,
      "t": 77349.33700000017,
      "d": 60.24091666666209,
      "v": 97
    },
    {
      "midi": 80,
      "hit": false,
      "t": 77349.33700000017,
      "d": 90.36137499999313,
      "v": 97
    },
    {
      "midi": 71,
      "hit": false,
      "t": 77590.30066666684,
      "d": 60.24091666666209,
      "v": 84
    },
    {
      "midi": 76,
      "hit": false,
      "t": 77590.30066666684,
      "d": 60.24091666666209,
      "v": 97
    },
    {
      "midi": 80,
      "hit": false,
      "t": 77590.30066666684,
      "d": 90.36137499999313,
      "v": 97
    },
    {
      "midi": 71,
      "hit": false,
      "t": 77831.2643333335,
      "d": 60.24091666666209,
      "v": 80
    },
    {
      "midi": 76,
      "hit": false,
      "t": 77831.2643333335,
      "d": 60.24091666666209,
      "v": 97
    },
    {
      "midi": 80,
      "hit": false,
      "t": 77831.2643333335,
      "d": 90.36137499999313,
      "v": 99
    },
    {
      "midi": 73,
      "hit": false,
      "t": 78072.22800000016,
      "d": 60.24091666666209,
      "v": 84
    },
    {
      "midi": 78,
      "hit": false,
      "t": 78072.22800000016,
      "d": 60.24091666666209,
      "v": 97
    },
    {
      "midi": 82,
      "hit": false,
      "t": 78072.22800000016,
      "d": 90.36137499999313,
      "v": 97
    },
    {
      "midi": 73,
      "hit": false,
      "t": 78313.19166666683,
      "d": 60.24091666666209,
      "v": 72
    },
    {
      "midi": 78,
      "hit": false,
      "t": 78313.19166666683,
      "d": 60.24091666666209,
      "v": 88
    },
    {
      "midi": 82,
      "hit": false,
      "t": 78313.19166666683,
      "d": 60.24091666666209,
      "v": 92
    },
    {
      "midi": 73,
      "hit": false,
      "t": 78554.15533333349,
      "d": 60.24091666666209,
      "v": 86
    },
    {
      "midi": 78,
      "hit": false,
      "t": 78554.15533333349,
      "d": 60.24091666666209,
      "v": 97
    },
    {
      "midi": 82,
      "hit": false,
      "t": 78554.15533333349,
      "d": 90.36137499999313,
      "v": 95
    },
    {
      "midi": 73,
      "hit": false,
      "t": 78795.11900000015,
      "d": 60.24091666666209,
      "v": 80
    },
    {
      "midi": 78,
      "hit": false,
      "t": 78795.11900000015,
      "d": 60.24091666666209,
      "v": 99
    },
    {
      "midi": 82,
      "hit": false,
      "t": 78795.11900000015,
      "d": 90.36137499999313,
      "v": 101
    },
    {
      "midi": 73,
      "hit": false,
      "t": 79036.08266666681,
      "d": 60.24091666666209,
      "v": 78
    },
    {
      "midi": 78,
      "hit": false,
      "t": 79036.08266666681,
      "d": 60.24091666666209,
      "v": 90
    },
    {
      "midi": 82,
      "hit": false,
      "t": 79036.08266666681,
      "d": 60.24091666666209,
      "v": 92
    },
    {
      "midi": 73,
      "hit": false,
      "t": 79277.04633333348,
      "d": 60.24091666666209,
      "v": 86
    },
    {
      "midi": 78,
      "hit": false,
      "t": 79277.04633333348,
      "d": 60.24091666666209,
      "v": 97
    },
    {
      "midi": 82,
      "hit": false,
      "t": 79277.04633333348,
      "d": 60.24091666666209,
      "v": 95
    },
    {
      "midi": 73,
      "hit": false,
      "t": 79518.01000000014,
      "d": 60.24091666666209,
      "v": 82
    },
    {
      "midi": 78,
      "hit": false,
      "t": 79518.01000000014,
      "d": 60.24091666666209,
      "v": 95
    },
    {
      "midi": 82,
      "hit": false,
      "t": 79518.01000000014,
      "d": 90.36137499999313,
      "v": 97
    },
    {
      "midi": 73,
      "hit": false,
      "t": 79758.9736666668,
      "d": 60.24091666666209,
      "v": 82
    },
    {
      "midi": 78,
      "hit": false,
      "t": 79758.9736666668,
      "d": 60.24091666666209,
      "v": 95
    },
    {
      "midi": 82,
      "hit": false,
      "t": 79758.9736666668,
      "d": 60.24091666666209,
      "v": 95
    },
    {
      "midi": 73,
      "hit": false,
      "t": 79999.93733333347,
      "d": 60.24091666666209,
      "v": 76
    },
    {
      "midi": 78,
      "hit": false,
      "t": 79999.93733333347,
      "d": 60.24091666666209,
      "v": 90
    },
    {
      "midi": 82,
      "hit": false,
      "t": 79999.93733333347,
      "d": 90.36137499999313,
      "v": 95
    },
    {
      "midi": 73,
      "hit": false,
      "t": 80240.90100000013,
      "d": 60.24091666666209,
      "v": 86
    },
    {
      "midi": 78,
      "hit": false,
      "t": 80240.90100000013,
      "d": 60.24091666666209,
      "v": 99
    },
    {
      "midi": 82,
      "hit": false,
      "t": 80240.90100000013,
      "d": 90.36137499999313,
      "v": 95
    },
    {
      "midi": 73,
      "hit": false,
      "t": 80481.86466666679,
      "d": 60.24091666666209,
      "v": 82
    },
    {
      "midi": 78,
      "hit": false,
      "t": 80481.86466666679,
      "d": 60.24091666666209,
      "v": 97
    },
    {
      "midi": 82,
      "hit": false,
      "t": 80481.86466666679,
      "d": 90.36137499999313,
      "v": 92
    },
    {
      "midi": 73,
      "hit": false,
      "t": 80722.82833333345,
      "d": 60.24091666666209,
      "v": 86
    },
    {
      "midi": 78,
      "hit": false,
      "t": 80722.82833333345,
      "d": 60.24091666666209,
      "v": 95
    },
    {
      "midi": 82,
      "hit": false,
      "t": 80722.82833333345,
      "d": 60.24091666666209,
      "v": 97
    },
    {
      "midi": 75,
      "hit": false,
      "t": 80963.79200000012,
      "d": 30.120458333331044,
      "v": 95
    },
    {
      "midi": 71,
      "hit": false,
      "t": 80963.79200000012,
      "d": 60.24091666666209,
      "v": 80
    },
    {
      "midi": 78,
      "hit": false,
      "t": 80963.79200000012,
      "d": 60.24091666666209,
      "v": 95
    },
    {
      "midi": 71,
      "hit": false,
      "t": 81204.75566666678,
      "d": 60.24091666666209,
      "v": 78
    },
    {
      "midi": 75,
      "hit": false,
      "t": 81204.75566666678,
      "d": 60.24091666666209,
      "v": 95
    },
    {
      "midi": 78,
      "hit": false,
      "t": 81204.75566666678,
      "d": 60.24091666666209,
      "v": 95
    },
    {
      "midi": 71,
      "hit": false,
      "t": 81445.71933333344,
      "d": 60.24091666666209,
      "v": 76
    },
    {
      "midi": 75,
      "hit": false,
      "t": 81445.71933333344,
      "d": 60.24091666666209,
      "v": 99
    },
    {
      "midi": 78,
      "hit": false,
      "t": 81445.71933333344,
      "d": 60.24091666666209,
      "v": 103
    },
    {
      "midi": 71,
      "hit": false,
      "t": 81686.6830000001,
      "d": 60.24091666666209,
      "v": 88
    },
    {
      "midi": 75,
      "hit": false,
      "t": 81686.6830000001,
      "d": 60.24091666666209,
      "v": 103
    },
    {
      "midi": 78,
      "hit": false,
      "t": 81686.6830000001,
      "d": 90.36137499999313,
      "v": 101
    },
    {
      "midi": 71,
      "hit": false,
      "t": 81927.64666666677,
      "d": 60.24091666666209,
      "v": 74
    },
    {
      "midi": 75,
      "hit": false,
      "t": 81927.64666666677,
      "d": 60.24091666666209,
      "v": 92
    },
    {
      "midi": 78,
      "hit": false,
      "t": 81927.64666666677,
      "d": 90.36137499999313,
      "v": 95
    },
    {
      "midi": 71,
      "hit": false,
      "t": 82168.61033333343,
      "d": 60.24091666666209,
      "v": 74
    },
    {
      "midi": 75,
      "hit": false,
      "t": 82168.61033333343,
      "d": 60.24091666666209,
      "v": 97
    },
    {
      "midi": 78,
      "hit": false,
      "t": 82168.61033333343,
      "d": 90.36137499999313,
      "v": 99
    },
    {
      "midi": 71,
      "hit": false,
      "t": 82409.5740000001,
      "d": 60.24091666666209,
      "v": 76
    },
    {
      "midi": 75,
      "hit": false,
      "t": 82409.5740000001,
      "d": 60.24091666666209,
      "v": 88
    },
    {
      "midi": 78,
      "hit": false,
      "t": 82409.5740000001,
      "d": 60.24091666666209,
      "v": 95
    },
    {
      "midi": 71,
      "hit": false,
      "t": 82650.53766666676,
      "d": 60.24091666666209,
      "v": 80
    },
    {
      "midi": 75,
      "hit": false,
      "t": 82650.53766666676,
      "d": 60.24091666666209,
      "v": 97
    },
    {
      "midi": 78,
      "hit": false,
      "t": 82650.53766666676,
      "d": 60.24091666666209,
      "v": 99
    },
    {
      "midi": 71,
      "hit": false,
      "t": 82891.50133333342,
      "d": 60.24091666666209,
      "v": 68
    },
    {
      "midi": 75,
      "hit": false,
      "t": 82891.50133333342,
      "d": 60.24091666666209,
      "v": 92
    },
    {
      "midi": 78,
      "hit": false,
      "t": 82891.50133333342,
      "d": 60.24091666666209,
      "v": 99
    },
    {
      "midi": 71,
      "hit": false,
      "t": 83132.46500000008,
      "d": 60.24091666666209,
      "v": 78
    },
    {
      "midi": 75,
      "hit": false,
      "t": 83132.46500000008,
      "d": 60.24091666666209,
      "v": 97
    },
    {
      "midi": 78,
      "hit": false,
      "t": 83132.46500000008,
      "d": 90.36137499999313,
      "v": 103
    },
    {
      "midi": 71,
      "hit": false,
      "t": 83373.42866666675,
      "d": 60.24091666666209,
      "v": 82
    },
    {
      "midi": 75,
      "hit": false,
      "t": 83373.42866666675,
      "d": 60.24091666666209,
      "v": 97
    },
    {
      "midi": 78,
      "hit": false,
      "t": 83373.42866666675,
      "d": 90.36137499999313,
      "v": 101
    },
    {
      "midi": 71,
      "hit": false,
      "t": 83614.39233333341,
      "d": 60.24091666666209,
      "v": 80
    },
    {
      "midi": 75,
      "hit": false,
      "t": 83614.39233333341,
      "d": 60.24091666666209,
      "v": 99
    },
    {
      "midi": 78,
      "hit": false,
      "t": 83614.39233333341,
      "d": 60.24091666666209,
      "v": 103
    },
    {
      "midi": 71,
      "hit": false,
      "t": 83855.35600000007,
      "d": 60.24091666666209,
      "v": 92
    },
    {
      "midi": 76,
      "hit": false,
      "t": 83855.35600000007,
      "d": 60.24091666666209,
      "v": 101
    },
    {
      "midi": 80,
      "hit": false,
      "t": 83855.35600000007,
      "d": 60.24091666666209,
      "v": 105
    },
    {
      "midi": 71,
      "hit": false,
      "t": 84096.31966666674,
      "d": 60.24091666666209,
      "v": 80
    },
    {
      "midi": 76,
      "hit": false,
      "t": 84096.31966666674,
      "d": 60.24091666666209,
      "v": 97
    },
    {
      "midi": 80,
      "hit": false,
      "t": 84096.31966666674,
      "d": 60.24091666666209,
      "v": 99
    },
    {
      "midi": 71,
      "hit": false,
      "t": 84337.2833333334,
      "d": 60.24091666666209,
      "v": 86
    },
    {
      "midi": 76,
      "hit": false,
      "t": 84337.2833333334,
      "d": 60.24091666666209,
      "v": 103
    },
    {
      "midi": 80,
      "hit": false,
      "t": 84337.2833333334,
      "d": 60.24091666666209,
      "v": 101
    },
    {
      "midi": 71,
      "hit": false,
      "t": 84578.24700000006,
      "d": 60.24091666666209,
      "v": 86
    },
    {
      "midi": 76,
      "hit": false,
      "t": 84578.24700000006,
      "d": 60.24091666666209,
      "v": 103
    },
    {
      "midi": 80,
      "hit": false,
      "t": 84578.24700000006,
      "d": 90.36137499999313,
      "v": 101
    },
    {
      "midi": 71,
      "hit": false,
      "t": 84819.21066666672,
      "d": 60.24091666666209,
      "v": 84
    },
    {
      "midi": 76,
      "hit": false,
      "t": 84819.21066666672,
      "d": 60.24091666666209,
      "v": 95
    },
    {
      "midi": 80,
      "hit": false,
      "t": 84819.21066666672,
      "d": 60.24091666666209,
      "v": 97
    },
    {
      "midi": 71,
      "hit": false,
      "t": 85060.17433333339,
      "d": 60.24091666666209,
      "v": 82
    },
    {
      "midi": 76,
      "hit": false,
      "t": 85060.17433333339,
      "d": 60.24091666666209,
      "v": 97
    },
    {
      "midi": 80,
      "hit": false,
      "t": 85060.17433333339,
      "d": 60.24091666666209,
      "v": 97
    },
    {
      "midi": 71,
      "hit": false,
      "t": 85301.13800000005,
      "d": 60.24091666666209,
      "v": 82
    },
    {
      "midi": 76,
      "hit": false,
      "t": 85301.13800000005,
      "d": 60.24091666666209,
      "v": 99
    },
    {
      "midi": 80,
      "hit": false,
      "t": 85301.13800000005,
      "d": 60.24091666666209,
      "v": 97
    },
    {
      "midi": 71,
      "hit": false,
      "t": 85542.10166666671,
      "d": 60.24091666666209,
      "v": 82
    },
    {
      "midi": 76,
      "hit": false,
      "t": 85542.10166666671,
      "d": 60.24091666666209,
      "v": 95
    },
    {
      "midi": 80,
      "hit": false,
      "t": 85542.10166666671,
      "d": 60.24091666666209,
      "v": 99
    },
    {
      "midi": 71,
      "hit": false,
      "t": 85783.06533333338,
      "d": 60.24091666666209,
      "v": 88
    },
    {
      "midi": 76,
      "hit": false,
      "t": 85783.06533333338,
      "d": 60.24091666666209,
      "v": 97
    },
    {
      "midi": 80,
      "hit": false,
      "t": 85783.06533333338,
      "d": 90.36137499999313,
      "v": 101
    },
    {
      "midi": 71,
      "hit": false,
      "t": 86024.02900000004,
      "d": 60.24091666666209,
      "v": 82
    },
    {
      "midi": 76,
      "hit": false,
      "t": 86024.02900000004,
      "d": 60.24091666666209,
      "v": 99
    },
    {
      "midi": 80,
      "hit": false,
      "t": 86024.02900000004,
      "d": 90.36137499999313,
      "v": 99
    },
    {
      "midi": 71,
      "hit": false,
      "t": 86264.9926666667,
      "d": 60.24091666666209,
      "v": 82
    },
    {
      "midi": 76,
      "hit": false,
      "t": 86264.9926666667,
      "d": 60.24091666666209,
      "v": 97
    },
    {
      "midi": 80,
      "hit": false,
      "t": 86264.9926666667,
      "d": 90.36137499999313,
      "v": 97
    },
    {
      "midi": 71,
      "hit": false,
      "t": 86505.95633333336,
      "d": 60.24091666666209,
      "v": 80
    },
    {
      "midi": 76,
      "hit": false,
      "t": 86505.95633333336,
      "d": 60.24091666666209,
      "v": 95
    },
    {
      "midi": 80,
      "hit": false,
      "t": 86505.95633333336,
      "d": 90.36137499999313,
      "v": 97
    },
    {
      "midi": 73,
      "hit": false,
      "t": 86746.92000000003,
      "d": 60.24091666666209,
      "v": 84
    },
    {
      "midi": 78,
      "hit": false,
      "t": 86746.92000000003,
      "d": 60.24091666666209,
      "v": 92
    },
    {
      "midi": 82,
      "hit": false,
      "t": 86746.92000000003,
      "d": 60.24091666666209,
      "v": 95
    },
    {
      "midi": 73,
      "hit": false,
      "t": 86987.88366666669,
      "d": 60.24091666666209,
      "v": 82
    },
    {
      "midi": 78,
      "hit": false,
      "t": 86987.88366666669,
      "d": 60.24091666666209,
      "v": 95
    },
    {
      "midi": 82,
      "hit": false,
      "t": 86987.88366666669,
      "d": 90.36137499999313,
      "v": 97
    },
    {
      "midi": 73,
      "hit": false,
      "t": 87228.84733333335,
      "d": 60.24091666666209,
      "v": 78
    },
    {
      "midi": 78,
      "hit": false,
      "t": 87228.84733333335,
      "d": 60.24091666666209,
      "v": 95
    },
    {
      "midi": 82,
      "hit": false,
      "t": 87228.84733333335,
      "d": 90.36137499999313,
      "v": 95
    },
    {
      "midi": 73,
      "hit": false,
      "t": 87469.81100000002,
      "d": 60.24091666666209,
      "v": 92
    },
    {
      "midi": 78,
      "hit": false,
      "t": 87469.81100000002,
      "d": 60.24091666666209,
      "v": 99
    },
    {
      "midi": 82,
      "hit": false,
      "t": 87469.81100000002,
      "d": 90.36137499999313,
      "v": 95
    },
    {
      "midi": 73,
      "hit": false,
      "t": 87710.77466666668,
      "d": 60.24091666666209,
      "v": 84
    },
    {
      "midi": 78,
      "hit": false,
      "t": 87710.77466666668,
      "d": 60.24091666666209,
      "v": 97
    },
    {
      "midi": 82,
      "hit": false,
      "t": 87710.77466666668,
      "d": 90.36137499999313,
      "v": 92
    },
    {
      "midi": 73,
      "hit": false,
      "t": 87951.73833333334,
      "d": 60.24091666666209,
      "v": 67
    },
    {
      "midi": 78,
      "hit": false,
      "t": 87951.73833333334,
      "d": 60.24091666666209,
      "v": 92
    },
    {
      "midi": 82,
      "hit": false,
      "t": 87951.73833333334,
      "d": 90.36137499999313,
      "v": 92
    },
    {
      "midi": 73,
      "hit": false,
      "t": 88192.702,
      "d": 60.24091666666209,
      "v": 86
    },
    {
      "midi": 78,
      "hit": false,
      "t": 88192.702,
      "d": 60.24091666666209,
      "v": 99
    },
    {
      "midi": 82,
      "hit": false,
      "t": 88192.702,
      "d": 90.36137499999313,
      "v": 99
    },
    {
      "midi": 73,
      "hit": false,
      "t": 88433.66566666667,
      "d": 60.24091666666209,
      "v": 78
    },
    {
      "midi": 78,
      "hit": false,
      "t": 88433.66566666667,
      "d": 60.24091666666209,
      "v": 97
    },
    {
      "midi": 82,
      "hit": false,
      "t": 88433.66566666667,
      "d": 90.36137499999313,
      "v": 99
    },
    {
      "midi": 73,
      "hit": false,
      "t": 88674.62933333333,
      "d": 60.24091666666209,
      "v": 84
    },
    {
      "midi": 78,
      "hit": false,
      "t": 88674.62933333333,
      "d": 60.24091666666209,
      "v": 99
    },
    {
      "midi": 82,
      "hit": false,
      "t": 88674.62933333333,
      "d": 90.36137499999313,
      "v": 99
    },
    {
      "midi": 73,
      "hit": false,
      "t": 88915.593,
      "d": 60.24091666666209,
      "v": 86
    },
    {
      "midi": 78,
      "hit": false,
      "t": 88915.593,
      "d": 60.24091666666209,
      "v": 105
    },
    {
      "midi": 82,
      "hit": false,
      "t": 88915.593,
      "d": 90.36137499999313,
      "v": 99
    },
    {
      "midi": 73,
      "hit": false,
      "t": 89156.55666666666,
      "d": 60.24091666666209,
      "v": 76
    },
    {
      "midi": 78,
      "hit": false,
      "t": 89156.55666666666,
      "d": 60.24091666666209,
      "v": 92
    },
    {
      "midi": 82,
      "hit": false,
      "t": 89156.55666666666,
      "d": 90.36137499999313,
      "v": 95
    },
    {
      "midi": 73,
      "hit": false,
      "t": 89397.52033333332,
      "d": 60.24091666666209,
      "v": 80
    },
    {
      "midi": 78,
      "hit": false,
      "t": 89397.52033333332,
      "d": 60.24091666666209,
      "v": 97
    },
    {
      "midi": 82,
      "hit": false,
      "t": 89397.52033333332,
      "d": 90.36137499999313,
      "v": 95
    },
    {
      "midi": 71,
      "hit": false,
      "t": 89638.48399999998,
      "d": 60.24091666666209,
      "v": 95
    },
    {
      "midi": 76,
      "hit": false,
      "t": 89638.48399999998,
      "d": 60.24091666666209,
      "v": 105
    },
    {
      "midi": 80,
      "hit": false,
      "t": 89638.48399999998,
      "d": 90.36137499999313,
      "v": 105
    },
    {
      "midi": 71,
      "hit": false,
      "t": 89879.44766666665,
      "d": 60.24091666666209,
      "v": 70
    },
    {
      "midi": 76,
      "hit": false,
      "t": 89879.44766666665,
      "d": 60.24091666666209,
      "v": 95
    },
    {
      "midi": 80,
      "hit": false,
      "t": 89879.44766666665,
      "d": 60.24091666666209,
      "v": 95
    },
    {
      "midi": 71,
      "hit": false,
      "t": 90120.41133333331,
      "d": 60.24091666666209,
      "v": 76
    },
    {
      "midi": 76,
      "hit": false,
      "t": 90120.41133333331,
      "d": 60.24091666666209,
      "v": 97
    },
    {
      "midi": 80,
      "hit": false,
      "t": 90120.41133333331,
      "d": 90.36137499999313,
      "v": 97
    },
    {
      "midi": 71,
      "hit": false,
      "t": 90361.37499999997,
      "d": 60.24091666666209,
      "v": 78
    },
    {
      "midi": 76,
      "hit": false,
      "t": 90361.37499999997,
      "d": 60.24091666666209,
      "v": 103
    },
    {
      "midi": 80,
      "hit": false,
      "t": 90361.37499999997,
      "d": 90.36137499999313,
      "v": 105
    },
    {
      "midi": 71,
      "hit": false,
      "t": 90602.33866666663,
      "d": 60.24091666666209,
      "v": 80
    },
    {
      "midi": 76,
      "hit": false,
      "t": 90602.33866666663,
      "d": 60.24091666666209,
      "v": 95
    },
    {
      "midi": 80,
      "hit": false,
      "t": 90602.33866666663,
      "d": 60.24091666666209,
      "v": 97
    },
    {
      "midi": 71,
      "hit": false,
      "t": 90843.3023333333,
      "d": 60.24091666666209,
      "v": 86
    },
    {
      "midi": 76,
      "hit": false,
      "t": 90843.3023333333,
      "d": 60.24091666666209,
      "v": 99
    },
    {
      "midi": 80,
      "hit": false,
      "t": 90843.3023333333,
      "d": 90.36137499999313,
      "v": 99
    },
    {
      "midi": 71,
      "hit": false,
      "t": 91084.26599999996,
      "d": 60.24091666666209,
      "v": 82
    },
    {
      "midi": 76,
      "hit": false,
      "t": 91084.26599999996,
      "d": 60.24091666666209,
      "v": 97
    },
    {
      "midi": 80,
      "hit": false,
      "t": 91084.26599999996,
      "d": 90.36137499999313,
      "v": 97
    },
    {
      "midi": 71,
      "hit": false,
      "t": 91325.22966666662,
      "d": 60.24091666666209,
      "v": 80
    },
    {
      "midi": 76,
      "hit": false,
      "t": 91325.22966666662,
      "d": 60.24091666666209,
      "v": 97
    },
    {
      "midi": 80,
      "hit": false,
      "t": 91325.22966666662,
      "d": 60.24091666666209,
      "v": 99
    },
    {
      "midi": 71,
      "hit": false,
      "t": 91566.19333333329,
      "d": 60.24091666666209,
      "v": 86
    },
    {
      "midi": 76,
      "hit": false,
      "t": 91566.19333333329,
      "d": 60.24091666666209,
      "v": 99
    },
    {
      "midi": 80,
      "hit": false,
      "t": 91566.19333333329,
      "d": 90.36137499999313,
      "v": 101
    },
    {
      "midi": 76,
      "hit": false,
      "t": 91807.15699999995,
      "d": 30.120458333331044,
      "v": 95
    },
    {
      "midi": 71,
      "hit": false,
      "t": 91807.15699999995,
      "d": 60.24091666666209,
      "v": 86
    },
    {
      "midi": 80,
      "hit": false,
      "t": 91807.15699999995,
      "d": 60.24091666666209,
      "v": 97
    },
    {
      "midi": 71,
      "hit": false,
      "t": 92048.12066666661,
      "d": 60.24091666666209,
      "v": 82
    },
    {
      "midi": 76,
      "hit": false,
      "t": 92048.12066666661,
      "d": 60.24091666666209,
      "v": 95
    },
    {
      "midi": 80,
      "hit": false,
      "t": 92048.12066666661,
      "d": 60.24091666666209,
      "v": 97
    },
    {
      "midi": 71,
      "hit": false,
      "t": 92289.08433333327,
      "d": 60.24091666666209,
      "v": 84
    },
    {
      "midi": 76,
      "hit": false,
      "t": 92289.08433333327,
      "d": 60.24091666666209,
      "v": 95
    },
    {
      "midi": 80,
      "hit": false,
      "t": 92289.08433333327,
      "d": 60.24091666666209,
      "v": 97
    },
    {
      "midi": 71,
      "hit": false,
      "t": 92530.04799999994,
      "d": 60.24091666666209,
      "v": 84
    },
    {
      "midi": 75,
      "hit": false,
      "t": 92530.04799999994,
      "d": 60.24091666666209,
      "v": 99
    },
    {
      "midi": 78,
      "hit": false,
      "t": 92530.04799999994,
      "d": 90.36137499999313,
      "v": 101
    },
    {
      "midi": 71,
      "hit": false,
      "t": 92771.0116666666,
      "d": 60.24091666666209,
      "v": 68
    },
    {
      "midi": 75,
      "hit": false,
      "t": 92771.0116666666,
      "d": 60.24091666666209,
      "v": 88
    },
    {
      "midi": 78,
      "hit": false,
      "t": 92771.0116666666,
      "d": 60.24091666666209,
      "v": 95
    },
    {
      "midi": 71,
      "hit": false,
      "t": 93011.97533333326,
      "d": 60.24091666666209,
      "v": 78
    },
    {
      "midi": 75,
      "hit": false,
      "t": 93011.97533333326,
      "d": 60.24091666666209,
      "v": 101
    },
    {
      "midi": 78,
      "hit": false,
      "t": 93011.97533333326,
      "d": 90.36137499999313,
      "v": 97
    },
    {
      "midi": 71,
      "hit": false,
      "t": 93252.93899999993,
      "d": 60.24091666666209,
      "v": 82
    },
    {
      "midi": 75,
      "hit": false,
      "t": 93252.93899999993,
      "d": 60.24091666666209,
      "v": 99
    },
    {
      "midi": 78,
      "hit": false,
      "t": 93252.93899999993,
      "d": 90.36137499999313,
      "v": 101
    },
    {
      "midi": 71,
      "hit": false,
      "t": 93493.90266666659,
      "d": 60.24091666666209,
      "v": 74
    },
    {
      "midi": 75,
      "hit": false,
      "t": 93493.90266666659,
      "d": 60.24091666666209,
      "v": 90
    },
    {
      "midi": 78,
      "hit": false,
      "t": 93493.90266666659,
      "d": 90.36137499999313,
      "v": 95
    },
    {
      "midi": 71,
      "hit": false,
      "t": 93734.86633333325,
      "d": 60.24091666666209,
      "v": 82
    },
    {
      "midi": 75,
      "hit": false,
      "t": 93734.86633333325,
      "d": 60.24091666666209,
      "v": 101
    },
    {
      "midi": 78,
      "hit": false,
      "t": 93734.86633333325,
      "d": 90.36137499999313,
      "v": 101
    },
    {
      "midi": 71,
      "hit": false,
      "t": 93975.82999999991,
      "d": 60.24091666666209,
      "v": 84
    },
    {
      "midi": 76,
      "hit": false,
      "t": 93975.82999999991,
      "d": 60.24091666666209,
      "v": 95
    },
    {
      "midi": 80,
      "hit": false,
      "t": 93975.82999999991,
      "d": 90.36137499999313,
      "v": 105
    },
    {
      "midi": 71,
      "hit": false,
      "t": 94216.79366666658,
      "d": 60.24091666666209,
      "v": 84
    },
    {
      "midi": 76,
      "hit": false,
      "t": 94216.79366666658,
      "d": 60.24091666666209,
      "v": 95
    },
    {
      "midi": 80,
      "hit": false,
      "t": 94216.79366666658,
      "d": 60.24091666666209,
      "v": 101
    },
    {
      "midi": 71,
      "hit": false,
      "t": 94457.75733333324,
      "d": 60.24091666666209,
      "v": 82
    },
    {
      "midi": 76,
      "hit": false,
      "t": 94457.75733333324,
      "d": 60.24091666666209,
      "v": 97
    },
    {
      "midi": 80,
      "hit": false,
      "t": 94457.75733333324,
      "d": 90.36137499999313,
      "v": 101
    },
    {
      "midi": 71,
      "hit": false,
      "t": 94698.7209999999,
      "d": 60.24091666666209,
      "v": 80
    },
    {
      "midi": 76,
      "hit": false,
      "t": 94698.7209999999,
      "d": 60.24091666666209,
      "v": 97
    },
    {
      "midi": 80,
      "hit": false,
      "t": 94698.7209999999,
      "d": 90.36137499999313,
      "v": 97
    },
    {
      "midi": 71,
      "hit": false,
      "t": 94939.68466666657,
      "d": 60.24091666666209,
      "v": 80
    },
    {
      "midi": 76,
      "hit": false,
      "t": 94939.68466666657,
      "d": 60.24091666666209,
      "v": 97
    },
    {
      "midi": 80,
      "hit": false,
      "t": 94939.68466666657,
      "d": 90.36137499999313,
      "v": 97
    },
    {
      "midi": 71,
      "hit": false,
      "t": 95180.64833333323,
      "d": 60.24091666666209,
      "v": 78
    },
    {
      "midi": 76,
      "hit": false,
      "t": 95180.64833333323,
      "d": 60.24091666666209,
      "v": 97
    },
    {
      "midi": 80,
      "hit": false,
      "t": 95180.64833333323,
      "d": 90.36137499999313,
      "v": 97
    },
    {
      "midi": 71,
      "hit": false,
      "t": 95421.61199999989,
      "d": 60.24091666666209,
      "v": 76
    },
    {
      "midi": 75,
      "hit": false,
      "t": 95421.61199999989,
      "d": 60.24091666666209,
      "v": 97
    },
    {
      "midi": 78,
      "hit": false,
      "t": 95421.61199999989,
      "d": 90.36137499999313,
      "v": 101
    },
    {
      "midi": 71,
      "hit": false,
      "t": 95662.57566666655,
      "d": 60.24091666666209,
      "v": 69
    },
    {
      "midi": 75,
      "hit": false,
      "t": 95662.57566666655,
      "d": 60.24091666666209,
      "v": 90
    },
    {
      "midi": 78,
      "hit": false,
      "t": 95662.57566666655,
      "d": 60.24091666666209,
      "v": 95
    },
    {
      "midi": 71,
      "hit": false,
      "t": 95903.53933333322,
      "d": 60.24091666666209,
      "v": 71
    },
    {
      "midi": 75,
      "hit": false,
      "t": 95903.53933333322,
      "d": 60.24091666666209,
      "v": 92
    },
    {
      "midi": 78,
      "hit": false,
      "t": 95903.53933333322,
      "d": 90.36137499999313,
      "v": 97
    },
    {
      "midi": 71,
      "hit": false,
      "t": 96144.50299999988,
      "d": 60.24091666666209,
      "v": 82
    },
    {
      "midi": 75,
      "hit": false,
      "t": 96144.50299999988,
      "d": 60.24091666666209,
      "v": 103
    },
    {
      "midi": 78,
      "hit": false,
      "t": 96144.50299999988,
      "d": 90.36137499999313,
      "v": 99
    },
    {
      "midi": 71,
      "hit": false,
      "t": 96385.46666666654,
      "d": 60.24091666666209,
      "v": 82
    },
    {
      "midi": 75,
      "hit": false,
      "t": 96385.46666666654,
      "d": 60.24091666666209,
      "v": 101
    },
    {
      "midi": 78,
      "hit": false,
      "t": 96385.46666666654,
      "d": 90.36137499999313,
      "v": 99
    },
    {
      "midi": 71,
      "hit": false,
      "t": 96626.4303333332,
      "d": 60.24091666666209,
      "v": 82
    },
    {
      "midi": 75,
      "hit": false,
      "t": 96626.4303333332,
      "d": 60.24091666666209,
      "v": 99
    },
    {
      "midi": 78,
      "hit": false,
      "t": 96626.4303333332,
      "d": 90.36137499999313,
      "v": 103
    },
    {
      "midi": 70,
      "hit": false,
      "t": 96867.39399999987,
      "d": 30.120458333331044,
      "v": 88
    },
    {
      "midi": 73,
      "hit": false,
      "t": 96867.39399999987,
      "d": 30.120458333331044,
      "v": 95
    },
    {
      "midi": 78,
      "hit": false,
      "t": 96867.39399999987,
      "d": 60.24091666666209,
      "v": 103
    },
    {
      "midi": 70,
      "hit": false,
      "t": 97108.35766666653,
      "d": 60.24091666666209,
      "v": 76
    },
    {
      "midi": 73,
      "hit": false,
      "t": 97108.35766666653,
      "d": 60.24091666666209,
      "v": 92
    },
    {
      "midi": 78,
      "hit": false,
      "t": 97108.35766666653,
      "d": 90.36137499999313,
      "v": 97
    },
    {
      "midi": 70,
      "hit": false,
      "t": 97349.3213333332,
      "d": 60.24091666666209,
      "v": 74
    },
    {
      "midi": 73,
      "hit": false,
      "t": 97349.3213333332,
      "d": 60.24091666666209,
      "v": 92
    },
    {
      "midi": 78,
      "hit": false,
      "t": 97349.3213333332,
      "d": 90.36137499999313,
      "v": 97
    },
    {
      "midi": 70,
      "hit": false,
      "t": 97590.28499999986,
      "d": 60.24091666666209,
      "v": 76
    },
    {
      "midi": 73,
      "hit": false,
      "t": 97590.28499999986,
      "d": 60.24091666666209,
      "v": 97
    },
    {
      "midi": 78,
      "hit": false,
      "t": 97590.28499999986,
      "d": 90.36137499999313,
      "v": 101
    },
    {
      "midi": 70,
      "hit": false,
      "t": 97831.24866666652,
      "d": 60.24091666666209,
      "v": 73
    },
    {
      "midi": 73,
      "hit": false,
      "t": 97831.24866666652,
      "d": 60.24091666666209,
      "v": 99
    },
    {
      "midi": 78,
      "hit": false,
      "t": 97831.24866666652,
      "d": 90.36137499999313,
      "v": 103
    },
    {
      "midi": 70,
      "hit": false,
      "t": 98072.21233333318,
      "d": 60.24091666666209,
      "v": 82
    },
    {
      "midi": 73,
      "hit": false,
      "t": 98072.21233333318,
      "d": 60.24091666666209,
      "v": 99
    },
    {
      "midi": 78,
      "hit": false,
      "t": 98072.21233333318,
      "d": 60.24091666666209,
      "v": 103
    },
    {
      "midi": 71,
      "hit": false,
      "t": 98313.17599999985,
      "d": 60.24091666666209,
      "v": 74
    },
    {
      "midi": 75,
      "hit": false,
      "t": 98313.17599999985,
      "d": 90.36137499999313,
      "v": 92
    },
    {
      "midi": 78,
      "hit": false,
      "t": 98313.17599999985,
      "d": 90.36137499999313,
      "v": 99
    },
    {
      "midi": 71,
      "hit": false,
      "t": 98554.13966666651,
      "d": 60.24091666666209,
      "v": 57
    },
    {
      "midi": 75,
      "hit": false,
      "t": 98554.13966666651,
      "d": 60.24091666666209,
      "v": 71
    },
    {
      "midi": 78,
      "hit": false,
      "t": 98554.13966666651,
      "d": 90.36137499999313,
      "v": 82
    },
    {
      "midi": 71,
      "hit": false,
      "t": 98795.10333333317,
      "d": 60.24091666666209,
      "v": 62
    },
    {
      "midi": 75,
      "hit": false,
      "t": 98795.10333333317,
      "d": 60.24091666666209,
      "v": 86
    },
    {
      "midi": 78,
      "hit": false,
      "t": 98795.10333333317,
      "d": 60.24091666666209,
      "v": 78
    },
    {
      "midi": 71,
      "hit": false,
      "t": 99036.06699999984,
      "d": 60.24091666666209,
      "v": 76
    },
    {
      "midi": 75,
      "hit": false,
      "t": 99036.06699999984,
      "d": 60.24091666666209,
      "v": 101
    },
    {
      "midi": 78,
      "hit": false,
      "t": 99036.06699999984,
      "d": 60.24091666666209,
      "v": 95
    },
    {
      "midi": 71,
      "hit": false,
      "t": 99277.0306666665,
      "d": 60.24091666666209,
      "v": 66
    },
    {
      "midi": 75,
      "hit": false,
      "t": 99277.0306666665,
      "d": 60.24091666666209,
      "v": 86
    },
    {
      "midi": 78,
      "hit": false,
      "t": 99277.0306666665,
      "d": 60.24091666666209,
      "v": 84
    },
    {
      "midi": 71,
      "hit": false,
      "t": 99517.99433333316,
      "d": 60.24091666666209,
      "v": 70
    },
    {
      "midi": 75,
      "hit": false,
      "t": 99517.99433333316,
      "d": 60.24091666666209,
      "v": 92
    },
    {
      "midi": 78,
      "hit": false,
      "t": 99517.99433333316,
      "d": 60.24091666666209,
      "v": 88
    },
    {
      "midi": 71,
      "hit": false,
      "t": 99758.95799999982,
      "d": 60.24091666666209,
      "v": 68
    },
    {
      "midi": 75,
      "hit": false,
      "t": 99758.95799999982,
      "d": 60.24091666666209,
      "v": 86
    },
    {
      "midi": 78,
      "hit": false,
      "t": 99758.95799999982,
      "d": 60.24091666666209,
      "v": 90
    },
    {
      "midi": 71,
      "hit": false,
      "t": 99999.92166666649,
      "d": 60.24091666666209,
      "v": 66
    },
    {
      "midi": 75,
      "hit": false,
      "t": 99999.92166666649,
      "d": 60.24091666666209,
      "v": 80
    },
    {
      "midi": 78,
      "hit": false,
      "t": 99999.92166666649,
      "d": 60.24091666666209,
      "v": 78
    },
    {
      "midi": 71,
      "hit": false,
      "t": 100240.88533333315,
      "d": 60.24091666666209,
      "v": 73
    },
    {
      "midi": 75,
      "hit": false,
      "t": 100240.88533333315,
      "d": 60.24091666666209,
      "v": 84
    },
    {
      "midi": 78,
      "hit": false,
      "t": 100240.88533333315,
      "d": 60.24091666666209,
      "v": 95
    },
    {
      "midi": 71,
      "hit": false,
      "t": 100481.84899999981,
      "d": 60.24091666666209,
      "v": 80
    },
    {
      "midi": 75,
      "hit": false,
      "t": 100481.84899999981,
      "d": 60.24091666666209,
      "v": 99
    },
    {
      "midi": 78,
      "hit": false,
      "t": 100481.84899999981,
      "d": 60.24091666666209,
      "v": 92
    },
    {
      "midi": 71,
      "hit": false,
      "t": 100722.81266666648,
      "d": 60.24091666666209,
      "v": 69
    },
    {
      "midi": 75,
      "hit": false,
      "t": 100722.81266666648,
      "d": 60.24091666666209,
      "v": 95
    },
    {
      "midi": 78,
      "hit": false,
      "t": 100722.81266666648,
      "d": 60.24091666666209,
      "v": 95
    },
    {
      "midi": 71,
      "hit": false,
      "t": 100963.77633333314,
      "d": 60.24091666666209,
      "v": 68
    },
    {
      "midi": 75,
      "hit": false,
      "t": 100963.77633333314,
      "d": 60.24091666666209,
      "v": 86
    },
    {
      "midi": 78,
      "hit": false,
      "t": 100963.77633333314,
      "d": 60.24091666666209,
      "v": 88
    },
    {
      "midi": 71,
      "hit": false,
      "t": 101204.7399999998,
      "d": 60.24091666666209,
      "v": 66
    },
    {
      "midi": 75,
      "hit": false,
      "t": 101204.7399999998,
      "d": 60.24091666666209,
      "v": 88
    },
    {
      "midi": 80,
      "hit": false,
      "t": 101204.7399999998,
      "d": 60.24091666666209,
      "v": 95
    },
    {
      "midi": 71,
      "hit": false,
      "t": 101445.70366666646,
      "d": 60.24091666666209,
      "v": 70
    },
    {
      "midi": 75,
      "hit": false,
      "t": 101445.70366666646,
      "d": 60.24091666666209,
      "v": 82
    },
    {
      "midi": 80,
      "hit": false,
      "t": 101445.70366666646,
      "d": 90.36137499999313,
      "v": 95
    },
    {
      "midi": 71,
      "hit": false,
      "t": 101686.66733333313,
      "d": 60.24091666666209,
      "v": 69
    },
    {
      "midi": 75,
      "hit": false,
      "t": 101686.66733333313,
      "d": 60.24091666666209,
      "v": 90
    },
    {
      "midi": 80,
      "hit": false,
      "t": 101686.66733333313,
      "d": 60.24091666666209,
      "v": 90
    },
    {
      "midi": 71,
      "hit": false,
      "t": 101927.63099999979,
      "d": 60.24091666666209,
      "v": 71
    },
    {
      "midi": 75,
      "hit": false,
      "t": 101927.63099999979,
      "d": 60.24091666666209,
      "v": 90
    },
    {
      "midi": 80,
      "hit": false,
      "t": 101927.63099999979,
      "d": 60.24091666666209,
      "v": 92
    },
    {
      "midi": 71,
      "hit": false,
      "t": 102168.59466666645,
      "d": 60.24091666666209,
      "v": 68
    },
    {
      "midi": 75,
      "hit": false,
      "t": 102168.59466666645,
      "d": 60.24091666666209,
      "v": 88
    },
    {
      "midi": 80,
      "hit": false,
      "t": 102168.59466666645,
      "d": 60.24091666666209,
      "v": 95
    },
    {
      "midi": 71,
      "hit": false,
      "t": 102409.55833333312,
      "d": 30.120458333331044,
      "v": 68
    },
    {
      "midi": 75,
      "hit": false,
      "t": 102409.55833333312,
      "d": 60.24091666666209,
      "v": 95
    },
    {
      "midi": 80,
      "hit": false,
      "t": 102409.55833333312,
      "d": 60.24091666666209,
      "v": 97
    },
    {
      "midi": 71,
      "hit": false,
      "t": 102650.52199999978,
      "d": 60.24091666666209,
      "v": 76
    },
    {
      "midi": 75,
      "hit": false,
      "t": 102650.52199999978,
      "d": 60.24091666666209,
      "v": 99
    },
    {
      "midi": 80,
      "hit": false,
      "t": 102650.52199999978,
      "d": 60.24091666666209,
      "v": 97
    },
    {
      "midi": 71,
      "hit": false,
      "t": 102891.48566666644,
      "d": 30.120458333331044,
      "v": 68
    },
    {
      "midi": 75,
      "hit": false,
      "t": 102891.48566666644,
      "d": 60.24091666666209,
      "v": 99
    },
    {
      "midi": 80,
      "hit": false,
      "t": 102891.48566666644,
      "d": 60.24091666666209,
      "v": 92
    },
    {
      "midi": 71,
      "hit": false,
      "t": 103132.4493333331,
      "d": 60.24091666666209,
      "v": 78
    },
    {
      "midi": 75,
      "hit": false,
      "t": 103132.4493333331,
      "d": 60.24091666666209,
      "v": 97
    },
    {
      "midi": 80,
      "hit": false,
      "t": 103132.4493333331,
      "d": 60.24091666666209,
      "v": 97
    },
    {
      "midi": 71,
      "hit": false,
      "t": 103373.41299999977,
      "d": 60.24091666666209,
      "v": 73
    },
    {
      "midi": 75,
      "hit": false,
      "t": 103373.41299999977,
      "d": 60.24091666666209,
      "v": 92
    },
    {
      "midi": 80,
      "hit": false,
      "t": 103373.41299999977,
      "d": 60.24091666666209,
      "v": 95
    },
    {
      "midi": 71,
      "hit": false,
      "t": 103614.37666666643,
      "d": 60.24091666666209,
      "v": 68
    },
    {
      "midi": 75,
      "hit": false,
      "t": 103614.37666666643,
      "d": 60.24091666666209,
      "v": 99
    },
    {
      "midi": 80,
      "hit": false,
      "t": 103614.37666666643,
      "d": 60.24091666666209,
      "v": 95
    },
    {
      "midi": 71,
      "hit": false,
      "t": 103855.3403333331,
      "d": 60.24091666666209,
      "v": 78
    },
    {
      "midi": 75,
      "hit": false,
      "t": 103855.3403333331,
      "d": 60.24091666666209,
      "v": 99
    },
    {
      "midi": 80,
      "hit": false,
      "t": 103855.3403333331,
      "d": 90.36137499999313,
      "v": 95
    },
    {
      "midi": 71,
      "hit": false,
      "t": 104096.30399999976,
      "d": 60.24091666666209,
      "v": 84
    },
    {
      "midi": 76,
      "hit": false,
      "t": 104096.30399999976,
      "d": 60.24091666666209,
      "v": 103
    },
    {
      "midi": 80,
      "hit": false,
      "t": 104096.30399999976,
      "d": 60.24091666666209,
      "v": 99
    },
    {
      "midi": 71,
      "hit": false,
      "t": 104337.26766666642,
      "d": 60.24091666666209,
      "v": 67
    },
    {
      "midi": 76,
      "hit": false,
      "t": 104337.26766666642,
      "d": 60.24091666666209,
      "v": 90
    },
    {
      "midi": 80,
      "hit": false,
      "t": 104337.26766666642,
      "d": 60.24091666666209,
      "v": 90
    },
    {
      "midi": 71,
      "hit": false,
      "t": 104578.23133333308,
      "d": 60.24091666666209,
      "v": 74
    },
    {
      "midi": 76,
      "hit": false,
      "t": 104578.23133333308,
      "d": 60.24091666666209,
      "v": 95
    },
    {
      "midi": 80,
      "hit": false,
      "t": 104578.23133333308,
      "d": 60.24091666666209,
      "v": 97
    },
    {
      "midi": 71,
      "hit": false,
      "t": 104819.19499999975,
      "d": 60.24091666666209,
      "v": 80
    },
    {
      "midi": 76,
      "hit": false,
      "t": 104819.19499999975,
      "d": 60.24091666666209,
      "v": 97
    },
    {
      "midi": 80,
      "hit": false,
      "t": 104819.19499999975,
      "d": 60.24091666666209,
      "v": 97
    },
    {
      "midi": 71,
      "hit": false,
      "t": 105060.15866666641,
      "d": 60.24091666666209,
      "v": 76
    },
    {
      "midi": 76,
      "hit": false,
      "t": 105060.15866666641,
      "d": 60.24091666666209,
      "v": 97
    },
    {
      "midi": 80,
      "hit": false,
      "t": 105060.15866666641,
      "d": 60.24091666666209,
      "v": 95
    },
    {
      "midi": 71,
      "hit": false,
      "t": 105301.12233333307,
      "d": 60.24091666666209,
      "v": 80
    },
    {
      "midi": 76,
      "hit": false,
      "t": 105301.12233333307,
      "d": 60.24091666666209,
      "v": 97
    },
    {
      "midi": 80,
      "hit": false,
      "t": 105301.12233333307,
      "d": 90.36137499999313,
      "v": 97
    },
    {
      "midi": 71,
      "hit": false,
      "t": 105542.08599999973,
      "d": 60.24091666666209,
      "v": 84
    },
    {
      "midi": 76,
      "hit": false,
      "t": 105542.08599999973,
      "d": 60.24091666666209,
      "v": 105
    },
    {
      "midi": 80,
      "hit": false,
      "t": 105542.08599999973,
      "d": 60.24091666666209,
      "v": 97
    },
    {
      "midi": 71,
      "hit": false,
      "t": 105783.0496666664,
      "d": 60.24091666666209,
      "v": 70
    },
    {
      "midi": 76,
      "hit": false,
      "t": 105783.0496666664,
      "d": 60.24091666666209,
      "v": 92
    },
    {
      "midi": 80,
      "hit": false,
      "t": 105783.0496666664,
      "d": 90.36137499999313,
      "v": 99
    },
    {
      "midi": 71,
      "hit": false,
      "t": 106024.01333333306,
      "d": 60.24091666666209,
      "v": 82
    },
    {
      "midi": 76,
      "hit": false,
      "t": 106024.01333333306,
      "d": 60.24091666666209,
      "v": 101
    },
    {
      "midi": 80,
      "hit": false,
      "t": 106024.01333333306,
      "d": 60.24091666666209,
      "v": 99
    },
    {
      "midi": 71,
      "hit": false,
      "t": 106264.97699999972,
      "d": 60.24091666666209,
      "v": 95
    },
    {
      "midi": 76,
      "hit": false,
      "t": 106264.97699999972,
      "d": 60.24091666666209,
      "v": 105
    },
    {
      "midi": 80,
      "hit": false,
      "t": 106264.97699999972,
      "d": 60.24091666666209,
      "v": 99
    },
    {
      "midi": 71,
      "hit": false,
      "t": 106505.94066666639,
      "d": 60.24091666666209,
      "v": 84
    },
    {
      "midi": 76,
      "hit": false,
      "t": 106505.94066666639,
      "d": 60.24091666666209,
      "v": 101
    },
    {
      "midi": 80,
      "hit": false,
      "t": 106505.94066666639,
      "d": 90.36137499999313,
      "v": 99
    },
    {
      "midi": 71,
      "hit": false,
      "t": 106746.90433333305,
      "d": 60.24091666666209,
      "v": 78
    },
    {
      "midi": 76,
      "hit": false,
      "t": 106746.90433333305,
      "d": 60.24091666666209,
      "v": 95
    },
    {
      "midi": 80,
      "hit": false,
      "t": 106746.90433333305,
      "d": 90.36137499999313,
      "v": 97
    },
    {
      "midi": 73,
      "hit": false,
      "t": 106987.8679999997,
      "d": 60.24091666666209,
      "v": 72
    },
    {
      "midi": 78,
      "hit": false,
      "t": 106987.8679999997,
      "d": 60.24091666666209,
      "v": 88
    },
    {
      "midi": 82,
      "hit": false,
      "t": 106987.8679999997,
      "d": 90.36137499999313,
      "v": 92
    },
    {
      "midi": 73,
      "hit": false,
      "t": 107228.83166666636,
      "d": 60.24091666666209,
      "v": 73
    },
    {
      "midi": 78,
      "hit": false,
      "t": 107228.83166666636,
      "d": 60.24091666666209,
      "v": 90
    },
    {
      "midi": 82,
      "hit": false,
      "t": 107228.83166666636,
      "d": 60.24091666666209,
      "v": 95
    },
    {
      "midi": 73,
      "hit": false,
      "t": 107469.79533333302,
      "d": 60.24091666666209,
      "v": 82
    },
    {
      "midi": 78,
      "hit": false,
      "t": 107469.79533333302,
      "d": 60.24091666666209,
      "v": 92
    },
    {
      "midi": 82,
      "hit": false,
      "t": 107469.79533333302,
      "d": 60.24091666666209,
      "v": 92
    },
    {
      "midi": 73,
      "hit": false,
      "t": 107710.75899999969,
      "d": 60.24091666666209,
      "v": 82
    },
    {
      "midi": 78,
      "hit": false,
      "t": 107710.75899999969,
      "d": 60.24091666666209,
      "v": 99
    },
    {
      "midi": 82,
      "hit": false,
      "t": 107710.75899999969,
      "d": 90.36137499999313,
      "v": 99
    },
    {
      "midi": 73,
      "hit": false,
      "t": 107951.72266666635,
      "d": 60.24091666666209,
      "v": 76
    },
    {
      "midi": 78,
      "hit": false,
      "t": 107951.72266666635,
      "d": 60.24091666666209,
      "v": 92
    },
    {
      "midi": 82,
      "hit": false,
      "t": 107951.72266666635,
      "d": 60.24091666666209,
      "v": 95
    },
    {
      "midi": 73,
      "hit": false,
      "t": 108192.68633333301,
      "d": 60.24091666666209,
      "v": 84
    },
    {
      "midi": 78,
      "hit": false,
      "t": 108192.68633333301,
      "d": 60.24091666666209,
      "v": 92
    },
    {
      "midi": 82,
      "hit": false,
      "t": 108192.68633333301,
      "d": 60.24091666666209,
      "v": 97
    },
    {
      "midi": 73,
      "hit": false,
      "t": 108433.64999999967,
      "d": 60.24091666666209,
      "v": 84
    },
    {
      "midi": 78,
      "hit": false,
      "t": 108433.64999999967,
      "d": 60.24091666666209,
      "v": 92
    },
    {
      "midi": 82,
      "hit": false,
      "t": 108433.64999999967,
      "d": 90.36137499999313,
      "v": 95
    },
    {
      "midi": 73,
      "hit": false,
      "t": 108674.61366666634,
      "d": 60.24091666666209,
      "v": 80
    },
    {
      "midi": 78,
      "hit": false,
      "t": 108674.61366666634,
      "d": 60.24091666666209,
      "v": 92
    },
    {
      "midi": 82,
      "hit": false,
      "t": 108674.61366666634,
      "d": 60.24091666666209,
      "v": 92
    },
    {
      "midi": 73,
      "hit": false,
      "t": 108915.577333333,
      "d": 60.24091666666209,
      "v": 82
    },
    {
      "midi": 78,
      "hit": false,
      "t": 108915.577333333,
      "d": 60.24091666666209,
      "v": 92
    },
    {
      "midi": 82,
      "hit": false,
      "t": 108915.577333333,
      "d": 90.36137499999313,
      "v": 95
    },
    {
      "midi": 73,
      "hit": false,
      "t": 109156.54099999966,
      "d": 60.24091666666209,
      "v": 88
    },
    {
      "midi": 78,
      "hit": false,
      "t": 109156.54099999966,
      "d": 60.24091666666209,
      "v": 101
    },
    {
      "midi": 82,
      "hit": false,
      "t": 109156.54099999966,
      "d": 90.36137499999313,
      "v": 97
    },
    {
      "midi": 73,
      "hit": false,
      "t": 109397.50466666633,
      "d": 60.24091666666209,
      "v": 78
    },
    {
      "midi": 78,
      "hit": false,
      "t": 109397.50466666633,
      "d": 60.24091666666209,
      "v": 95
    },
    {
      "midi": 82,
      "hit": false,
      "t": 109397.50466666633,
      "d": 60.24091666666209,
      "v": 97
    },
    {
      "midi": 73,
      "hit": false,
      "t": 109638.46833333299,
      "d": 60.24091666666209,
      "v": 84
    },
    {
      "midi": 78,
      "hit": false,
      "t": 109638.46833333299,
      "d": 60.24091666666209,
      "v": 92
    },
    {
      "midi": 82,
      "hit": false,
      "t": 109638.46833333299,
      "d": 60.24091666666209,
      "v": 97
    },
    {
      "midi": 71,
      "hit": false,
      "t": 109879.43199999964,
      "d": 60.24091666666209,
      "v": 92
    },
    {
      "midi": 76,
      "hit": false,
      "t": 109879.43199999964,
      "d": 60.24091666666209,
      "v": 103
    },
    {
      "midi": 80,
      "hit": false,
      "t": 109879.43199999964,
      "d": 60.24091666666209,
      "v": 103
    },
    {
      "midi": 71,
      "hit": false,
      "t": 110120.3956666663,
      "d": 60.24091666666209,
      "v": 78
    },
    {
      "midi": 76,
      "hit": false,
      "t": 110120.3956666663,
      "d": 60.24091666666209,
      "v": 92
    },
    {
      "midi": 80,
      "hit": false,
      "t": 110120.3956666663,
      "d": 60.24091666666209,
      "v": 95
    },
    {
      "midi": 71,
      "hit": false,
      "t": 110361.35933333296,
      "d": 60.24091666666209,
      "v": 78
    },
    {
      "midi": 76,
      "hit": false,
      "t": 110361.35933333296,
      "d": 60.24091666666209,
      "v": 95
    },
    {
      "midi": 80,
      "hit": false,
      "t": 110361.35933333296,
      "d": 60.24091666666209,
      "v": 99
    },
    {
      "midi": 71,
      "hit": false,
      "t": 110602.32299999963,
      "d": 60.24091666666209,
      "v": 88
    },
    {
      "midi": 76,
      "hit": false,
      "t": 110602.32299999963,
      "d": 60.24091666666209,
      "v": 101
    },
    {
      "midi": 80,
      "hit": false,
      "t": 110602.32299999963,
      "d": 90.36137499999313,
      "v": 105
    },
    {
      "midi": 71,
      "hit": false,
      "t": 110843.28666666629,
      "d": 60.24091666666209,
      "v": 82
    },
    {
      "midi": 76,
      "hit": false,
      "t": 110843.28666666629,
      "d": 60.24091666666209,
      "v": 95
    },
    {
      "midi": 80,
      "hit": false,
      "t": 110843.28666666629,
      "d": 90.36137499999313,
      "v": 99
    },
    {
      "midi": 71,
      "hit": false,
      "t": 111084.25033333295,
      "d": 60.24091666666209,
      "v": 82
    },
    {
      "midi": 76,
      "hit": false,
      "t": 111084.25033333295,
      "d": 60.24091666666209,
      "v": 101
    },
    {
      "midi": 80,
      "hit": false,
      "t": 111084.25033333295,
      "d": 90.36137499999313,
      "v": 97
    },
    {
      "midi": 71,
      "hit": false,
      "t": 111325.21399999961,
      "d": 60.24091666666209,
      "v": 78
    },
    {
      "midi": 76,
      "hit": false,
      "t": 111325.21399999961,
      "d": 60.24091666666209,
      "v": 97
    },
    {
      "midi": 80,
      "hit": false,
      "t": 111325.21399999961,
      "d": 90.36137499999313,
      "v": 99
    },
    {
      "midi": 71,
      "hit": false,
      "t": 111566.17766666628,
      "d": 60.24091666666209,
      "v": 70
    },
    {
      "midi": 76,
      "hit": false,
      "t": 111566.17766666628,
      "d": 60.24091666666209,
      "v": 95
    },
    {
      "midi": 80,
      "hit": false,
      "t": 111566.17766666628,
      "d": 90.36137499999313,
      "v": 97
    },
    {
      "midi": 71,
      "hit": false,
      "t": 111807.14133333294,
      "d": 60.24091666666209,
      "v": 72
    },
    {
      "midi": 76,
      "hit": false,
      "t": 111807.14133333294,
      "d": 60.24091666666209,
      "v": 97
    },
    {
      "midi": 80,
      "hit": false,
      "t": 111807.14133333294,
      "d": 60.24091666666209,
      "v": 95
    },
    {
      "midi": 71,
      "hit": false,
      "t": 112048.1049999996,
      "d": 60.24091666666209,
      "v": 86
    },
    {
      "midi": 76,
      "hit": false,
      "t": 112048.1049999996,
      "d": 60.24091666666209,
      "v": 97
    },
    {
      "midi": 80,
      "hit": false,
      "t": 112048.1049999996,
      "d": 90.36137499999313,
      "v": 97
    },
    {
      "midi": 71,
      "hit": false,
      "t": 112289.06866666627,
      "d": 60.24091666666209,
      "v": 84
    },
    {
      "midi": 76,
      "hit": false,
      "t": 112289.06866666627,
      "d": 60.24091666666209,
      "v": 97
    },
    {
      "midi": 80,
      "hit": false,
      "t": 112289.06866666627,
      "d": 90.36137499999313,
      "v": 97
    },
    {
      "midi": 71,
      "hit": false,
      "t": 112530.03233333293,
      "d": 60.24091666666209,
      "v": 80
    },
    {
      "midi": 76,
      "hit": false,
      "t": 112530.03233333293,
      "d": 60.24091666666209,
      "v": 97
    },
    {
      "midi": 80,
      "hit": false,
      "t": 112530.03233333293,
      "d": 90.36137499999313,
      "v": 99
    },
    {
      "midi": 73,
      "hit": false,
      "t": 112770.99599999959,
      "d": 60.24091666666209,
      "v": 84
    },
    {
      "midi": 78,
      "hit": false,
      "t": 112770.99599999959,
      "d": 60.24091666666209,
      "v": 97
    },
    {
      "midi": 82,
      "hit": false,
      "t": 112770.99599999959,
      "d": 90.36137499999313,
      "v": 97
    },
    {
      "midi": 73,
      "hit": false,
      "t": 113011.95966666625,
      "d": 60.24091666666209,
      "v": 72
    },
    {
      "midi": 78,
      "hit": false,
      "t": 113011.95966666625,
      "d": 60.24091666666209,
      "v": 88
    },
    {
      "midi": 82,
      "hit": false,
      "t": 113011.95966666625,
      "d": 60.24091666666209,
      "v": 92
    },
    {
      "midi": 73,
      "hit": false,
      "t": 113252.92333333292,
      "d": 60.24091666666209,
      "v": 86
    },
    {
      "midi": 78,
      "hit": false,
      "t": 113252.92333333292,
      "d": 60.24091666666209,
      "v": 97
    },
    {
      "midi": 82,
      "hit": false,
      "t": 113252.92333333292,
      "d": 90.36137499999313,
      "v": 95
    },
    {
      "midi": 73,
      "hit": false,
      "t": 113493.88699999958,
      "d": 60.24091666666209,
      "v": 80
    },
    {
      "midi": 78,
      "hit": false,
      "t": 113493.88699999958,
      "d": 60.24091666666209,
      "v": 99
    },
    {
      "midi": 82,
      "hit": false,
      "t": 113493.88699999958,
      "d": 90.36137499999313,
      "v": 101
    },
    {
      "midi": 73,
      "hit": false,
      "t": 113734.85066666624,
      "d": 60.24091666666209,
      "v": 78
    },
    {
      "midi": 78,
      "hit": false,
      "t": 113734.85066666624,
      "d": 60.24091666666209,
      "v": 90
    },
    {
      "midi": 82,
      "hit": false,
      "t": 113734.85066666624,
      "d": 60.24091666666209,
      "v": 92
    },
    {
      "midi": 73,
      "hit": false,
      "t": 113975.8143333329,
      "d": 60.24091666666209,
      "v": 86
    },
    {
      "midi": 78,
      "hit": false,
      "t": 113975.8143333329,
      "d": 60.24091666666209,
      "v": 97
    },
    {
      "midi": 82,
      "hit": false,
      "t": 113975.8143333329,
      "d": 60.24091666666209,
      "v": 95
    },
    {
      "midi": 73,
      "hit": false,
      "t": 114216.77799999957,
      "d": 60.24091666666209,
      "v": 82
    },
    {
      "midi": 78,
      "hit": false,
      "t": 114216.77799999957,
      "d": 60.24091666666209,
      "v": 95
    },
    {
      "midi": 82,
      "hit": false,
      "t": 114216.77799999957,
      "d": 90.36137499999313,
      "v": 97
    },
    {
      "midi": 73,
      "hit": false,
      "t": 114457.74166666623,
      "d": 60.24091666666209,
      "v": 82
    },
    {
      "midi": 78,
      "hit": false,
      "t": 114457.74166666623,
      "d": 60.24091666666209,
      "v": 95
    },
    {
      "midi": 82,
      "hit": false,
      "t": 114457.74166666623,
      "d": 60.24091666666209,
      "v": 95
    },
    {
      "midi": 73,
      "hit": false,
      "t": 114698.7053333329,
      "d": 60.24091666666209,
      "v": 76
    },
    {
      "midi": 78,
      "hit": false,
      "t": 114698.7053333329,
      "d": 60.24091666666209,
      "v": 90
    },
    {
      "midi": 82,
      "hit": false,
      "t": 114698.7053333329,
      "d": 90.36137499999313,
      "v": 95
    },
    {
      "midi": 73,
      "hit": false,
      "t": 114939.66899999956,
      "d": 60.24091666666209,
      "v": 86
    },
    {
      "midi": 78,
      "hit": false,
      "t": 114939.66899999956,
      "d": 60.24091666666209,
      "v": 99
    },
    {
      "midi": 82,
      "hit": false,
      "t": 114939.66899999956,
      "d": 90.36137499999313,
      "v": 95
    },
    {
      "midi": 73,
      "hit": false,
      "t": 115180.63266666622,
      "d": 60.24091666666209,
      "v": 82
    },
    {
      "midi": 78,
      "hit": false,
      "t": 115180.63266666622,
      "d": 60.24091666666209,
      "v": 97
    },
    {
      "midi": 82,
      "hit": false,
      "t": 115180.63266666622,
      "d": 90.36137499999313,
      "v": 92
    },
    {
      "midi": 73,
      "hit": false,
      "t": 115421.59633333288,
      "d": 60.24091666666209,
      "v": 86
    },
    {
      "midi": 78,
      "hit": false,
      "t": 115421.59633333288,
      "d": 60.24091666666209,
      "v": 95
    },
    {
      "midi": 82,
      "hit": false,
      "t": 115421.59633333288,
      "d": 60.24091666666209,
      "v": 97
    },
    {
      "midi": 75,
      "hit": false,
      "t": 115662.55999999955,
      "d": 30.120458333331044,
      "v": 95
    },
    {
      "midi": 71,
      "hit": false,
      "t": 115662.55999999955,
      "d": 60.24091666666209,
      "v": 80
    },
    {
      "midi": 78,
      "hit": false,
      "t": 115662.55999999955,
      "d": 60.24091666666209,
      "v": 95
    },
    {
      "midi": 71,
      "hit": false,
      "t": 115903.52366666621,
      "d": 60.24091666666209,
      "v": 78
    },
    {
      "midi": 75,
      "hit": false,
      "t": 115903.52366666621,
      "d": 60.24091666666209,
      "v": 95
    },
    {
      "midi": 78,
      "hit": false,
      "t": 115903.52366666621,
      "d": 60.24091666666209,
      "v": 95
    },
    {
      "midi": 71,
      "hit": false,
      "t": 116144.48733333287,
      "d": 60.24091666666209,
      "v": 76
    },
    {
      "midi": 75,
      "hit": false,
      "t": 116144.48733333287,
      "d": 60.24091666666209,
      "v": 99
    },
    {
      "midi": 78,
      "hit": false,
      "t": 116144.48733333287,
      "d": 60.24091666666209,
      "v": 103
    },
    {
      "midi": 71,
      "hit": false,
      "t": 116385.45099999954,
      "d": 60.24091666666209,
      "v": 88
    },
    {
      "midi": 75,
      "hit": false,
      "t": 116385.45099999954,
      "d": 60.24091666666209,
      "v": 103
    },
    {
      "midi": 78,
      "hit": false,
      "t": 116385.45099999954,
      "d": 90.36137499999313,
      "v": 101
    },
    {
      "midi": 71,
      "hit": false,
      "t": 116626.4146666662,
      "d": 60.24091666666209,
      "v": 74
    },
    {
      "midi": 75,
      "hit": false,
      "t": 116626.4146666662,
      "d": 60.24091666666209,
      "v": 92
    },
    {
      "midi": 78,
      "hit": false,
      "t": 116626.4146666662,
      "d": 90.36137499999313,
      "v": 95
    },
    {
      "midi": 71,
      "hit": false,
      "t": 116867.37833333286,
      "d": 60.24091666666209,
      "v": 74
    },
    {
      "midi": 75,
      "hit": false,
      "t": 116867.37833333286,
      "d": 60.24091666666209,
      "v": 97
    },
    {
      "midi": 78,
      "hit": false,
      "t": 116867.37833333286,
      "d": 90.36137499999313,
      "v": 99
    },
    {
      "midi": 71,
      "hit": false,
      "t": 117108.34199999952,
      "d": 60.24091666666209,
      "v": 76
    },
    {
      "midi": 75,
      "hit": false,
      "t": 117108.34199999952,
      "d": 60.24091666666209,
      "v": 88
    },
    {
      "midi": 78,
      "hit": false,
      "t": 117108.34199999952,
      "d": 60.24091666666209,
      "v": 95
    },
    {
      "midi": 71,
      "hit": false,
      "t": 117349.30566666619,
      "d": 60.24091666666209,
      "v": 80
    },
    {
      "midi": 75,
      "hit": false,
      "t": 117349.30566666619,
      "d": 60.24091666666209,
      "v": 97
    },
    {
      "midi": 78,
      "hit": false,
      "t": 117349.30566666619,
      "d": 60.24091666666209,
      "v": 99
    },
    {
      "midi": 71,
      "hit": false,
      "t": 117590.26933333285,
      "d": 60.24091666666209,
      "v": 68
    },
    {
      "midi": 75,
      "hit": false,
      "t": 117590.26933333285,
      "d": 60.24091666666209,
      "v": 92
    },
    {
      "midi": 78,
      "hit": false,
      "t": 117590.26933333285,
      "d": 60.24091666666209,
      "v": 99
    },
    {
      "midi": 71,
      "hit": false,
      "t": 117831.23299999951,
      "d": 60.24091666666209,
      "v": 78
    },
    {
      "midi": 75,
      "hit": false,
      "t": 117831.23299999951,
      "d": 60.24091666666209,
      "v": 97
    },
    {
      "midi": 78,
      "hit": false,
      "t": 117831.23299999951,
      "d": 90.36137499999313,
      "v": 103
    },
    {
      "midi": 71,
      "hit": false,
      "t": 118072.19666666618,
      "d": 60.24091666666209,
      "v": 82
    },
    {
      "midi": 75,
      "hit": false,
      "t": 118072.19666666618,
      "d": 60.24091666666209,
      "v": 97
    },
    {
      "midi": 78,
      "hit": false,
      "t": 118072.19666666618,
      "d": 90.36137499999313,
      "v": 101
    },
    {
      "midi": 71,
      "hit": false,
      "t": 118313.16033333284,
      "d": 60.24091666666209,
      "v": 80
    },
    {
      "midi": 75,
      "hit": false,
      "t": 118313.16033333284,
      "d": 60.24091666666209,
      "v": 99
    },
    {
      "midi": 78,
      "hit": false,
      "t": 118313.16033333284,
      "d": 60.24091666666209,
      "v": 103
    },
    {
      "midi": 71,
      "hit": false,
      "t": 118554.1239999995,
      "d": 60.24091666666209,
      "v": 92
    },
    {
      "midi": 76,
      "hit": false,
      "t": 118554.1239999995,
      "d": 60.24091666666209,
      "v": 101
    },
    {
      "midi": 80,
      "hit": false,
      "t": 118554.1239999995,
      "d": 60.24091666666209,
      "v": 105
    },
    {
      "midi": 71,
      "hit": false,
      "t": 118795.08766666616,
      "d": 60.24091666666209,
      "v": 80
    },
    {
      "midi": 76,
      "hit": false,
      "t": 118795.08766666616,
      "d": 60.24091666666209,
      "v": 97
    },
    {
      "midi": 80,
      "hit": false,
      "t": 118795.08766666616,
      "d": 60.24091666666209,
      "v": 99
    },
    {
      "midi": 71,
      "hit": false,
      "t": 119036.05133333283,
      "d": 60.24091666666209,
      "v": 86
    },
    {
      "midi": 76,
      "hit": false,
      "t": 119036.05133333283,
      "d": 60.24091666666209,
      "v": 103
    },
    {
      "midi": 80,
      "hit": false,
      "t": 119036.05133333283,
      "d": 60.24091666666209,
      "v": 101
    },
    {
      "midi": 71,
      "hit": false,
      "t": 119277.01499999949,
      "d": 60.24091666666209,
      "v": 86
    },
    {
      "midi": 76,
      "hit": false,
      "t": 119277.01499999949,
      "d": 60.24091666666209,
      "v": 103
    },
    {
      "midi": 80,
      "hit": false,
      "t": 119277.01499999949,
      "d": 90.36137499999313,
      "v": 101
    },
    {
      "midi": 71,
      "hit": false,
      "t": 119517.97866666615,
      "d": 60.24091666666209,
      "v": 84
    },
    {
      "midi": 76,
      "hit": false,
      "t": 119517.97866666615,
      "d": 60.24091666666209,
      "v": 95
    },
    {
      "midi": 80,
      "hit": false,
      "t": 119517.97866666615,
      "d": 60.24091666666209,
      "v": 97
    },
    {
      "midi": 71,
      "hit": false,
      "t": 119758.94233333282,
      "d": 60.24091666666209,
      "v": 82
    },
    {
      "midi": 76,
      "hit": false,
      "t": 119758.94233333282,
      "d": 60.24091666666209,
      "v": 97
    },
    {
      "midi": 80,
      "hit": false,
      "t": 119758.94233333282,
      "d": 60.24091666666209,
      "v": 97
    },
    {
      "midi": 71,
      "hit": false,
      "t": 119999.90599999948,
      "d": 60.24091666666209,
      "v": 82
    },
    {
      "midi": 76,
      "hit": false,
      "t": 119999.90599999948,
      "d": 60.24091666666209,
      "v": 99
    },
    {
      "midi": 80,
      "hit": false,
      "t": 119999.90599999948,
      "d": 60.24091666666209,
      "v": 97
    },
    {
      "midi": 71,
      "hit": false,
      "t": 120240.86966666614,
      "d": 60.24091666666209,
      "v": 82
    },
    {
      "midi": 76,
      "hit": false,
      "t": 120240.86966666614,
      "d": 60.24091666666209,
      "v": 95
    },
    {
      "midi": 80,
      "hit": false,
      "t": 120240.86966666614,
      "d": 60.24091666666209,
      "v": 99
    },
    {
      "midi": 71,
      "hit": false,
      "t": 120481.8333333328,
      "d": 60.24091666666209,
      "v": 88
    },
    {
      "midi": 76,
      "hit": false,
      "t": 120481.8333333328,
      "d": 60.24091666666209,
      "v": 97
    },
    {
      "midi": 80,
      "hit": false,
      "t": 120481.8333333328,
      "d": 90.36137499999313,
      "v": 101
    },
    {
      "midi": 71,
      "hit": false,
      "t": 120722.79699999947,
      "d": 60.24091666666209,
      "v": 82
    },
    {
      "midi": 76,
      "hit": false,
      "t": 120722.79699999947,
      "d": 60.24091666666209,
      "v": 99
    },
    {
      "midi": 80,
      "hit": false,
      "t": 120722.79699999947,
      "d": 90.36137499999313,
      "v": 99
    },
    {
      "midi": 71,
      "hit": false,
      "t": 120963.76066666613,
      "d": 60.24091666666209,
      "v": 82
    },
    {
      "midi": 76,
      "hit": false,
      "t": 120963.76066666613,
      "d": 60.24091666666209,
      "v": 97
    },
    {
      "midi": 80,
      "hit": false,
      "t": 120963.76066666613,
      "d": 90.36137499999313,
      "v": 97
    },
    {
      "midi": 71,
      "hit": false,
      "t": 121204.7243333328,
      "d": 60.24091666666209,
      "v": 80
    },
    {
      "midi": 76,
      "hit": false,
      "t": 121204.7243333328,
      "d": 60.24091666666209,
      "v": 95
    },
    {
      "midi": 80,
      "hit": false,
      "t": 121204.7243333328,
      "d": 90.36137499999313,
      "v": 97
    },
    {
      "midi": 73,
      "hit": false,
      "t": 121445.68799999946,
      "d": 60.24091666666209,
      "v": 84
    },
    {
      "midi": 78,
      "hit": false,
      "t": 121445.68799999946,
      "d": 60.24091666666209,
      "v": 92
    },
    {
      "midi": 82,
      "hit": false,
      "t": 121445.68799999946,
      "d": 60.24091666666209,
      "v": 95
    },
    {
      "midi": 73,
      "hit": false,
      "t": 121686.65166666612,
      "d": 60.24091666666209,
      "v": 82
    },
    {
      "midi": 78,
      "hit": false,
      "t": 121686.65166666612,
      "d": 60.24091666666209,
      "v": 95
    },
    {
      "midi": 82,
      "hit": false,
      "t": 121686.65166666612,
      "d": 90.36137499999313,
      "v": 97
    },
    {
      "midi": 73,
      "hit": false,
      "t": 121927.61533333278,
      "d": 60.24091666666209,
      "v": 78
    },
    {
      "midi": 78,
      "hit": false,
      "t": 121927.61533333278,
      "d": 60.24091666666209,
      "v": 95
    },
    {
      "midi": 82,
      "hit": false,
      "t": 121927.61533333278,
      "d": 90.36137499999313,
      "v": 95
    },
    {
      "midi": 73,
      "hit": false,
      "t": 122168.57899999944,
      "d": 60.24091666666209,
      "v": 92
    },
    {
      "midi": 78,
      "hit": false,
      "t": 122168.57899999944,
      "d": 60.24091666666209,
      "v": 99
    },
    {
      "midi": 82,
      "hit": false,
      "t": 122168.57899999944,
      "d": 90.36137499999313,
      "v": 95
    },
    {
      "midi": 73,
      "hit": false,
      "t": 122409.54266666611,
      "d": 60.24091666666209,
      "v": 84
    },
    {
      "midi": 78,
      "hit": false,
      "t": 122409.54266666611,
      "d": 60.24091666666209,
      "v": 97
    },
    {
      "midi": 82,
      "hit": false,
      "t": 122409.54266666611,
      "d": 90.36137499999313,
      "v": 92
    },
    {
      "midi": 73,
      "hit": false,
      "t": 122650.50633333277,
      "d": 60.24091666666209,
      "v": 67
    },
    {
      "midi": 78,
      "hit": false,
      "t": 122650.50633333277,
      "d": 60.24091666666209,
      "v": 92
    },
    {
      "midi": 82,
      "hit": false,
      "t": 122650.50633333277,
      "d": 90.36137499999313,
      "v": 92
    },
    {
      "midi": 73,
      "hit": false,
      "t": 122891.46999999943,
      "d": 60.24091666666209,
      "v": 86
    },
    {
      "midi": 78,
      "hit": false,
      "t": 122891.46999999943,
      "d": 60.24091666666209,
      "v": 99
    },
    {
      "midi": 82,
      "hit": false,
      "t": 122891.46999999943,
      "d": 90.36137499999313,
      "v": 99
    },
    {
      "midi": 73,
      "hit": false,
      "t": 123132.4336666661,
      "d": 60.24091666666209,
      "v": 78
    },
    {
      "midi": 78,
      "hit": false,
      "t": 123132.4336666661,
      "d": 60.24091666666209,
      "v": 97
    },
    {
      "midi": 82,
      "hit": false,
      "t": 123132.4336666661,
      "d": 90.36137499999313,
      "v": 99
    },
    {
      "midi": 73,
      "hit": false,
      "t": 123373.39733333276,
      "d": 60.24091666666209,
      "v": 84
    },
    {
      "midi": 78,
      "hit": false,
      "t": 123373.39733333276,
      "d": 60.24091666666209,
      "v": 99
    },
    {
      "midi": 82,
      "hit": false,
      "t": 123373.39733333276,
      "d": 90.36137499999313,
      "v": 99
    },
    {
      "midi": 73,
      "hit": false,
      "t": 123614.36099999942,
      "d": 60.24091666666209,
      "v": 86
    },
    {
      "midi": 78,
      "hit": false,
      "t": 123614.36099999942,
      "d": 60.24091666666209,
      "v": 105
    },
    {
      "midi": 82,
      "hit": false,
      "t": 123614.36099999942,
      "d": 90.36137499999313,
      "v": 99
    },
    {
      "midi": 73,
      "hit": false,
      "t": 123855.32466666609,
      "d": 60.24091666666209,
      "v": 76
    },
    {
      "midi": 78,
      "hit": false,
      "t": 123855.32466666609,
      "d": 60.24091666666209,
      "v": 92
    },
    {
      "midi": 82,
      "hit": false,
      "t": 123855.32466666609,
      "d": 90.36137499999313,
      "v": 95
    },
    {
      "midi": 73,
      "hit": false,
      "t": 124096.28833333275,
      "d": 60.24091666666209,
      "v": 80
    },
    {
      "midi": 78,
      "hit": false,
      "t": 124096.28833333275,
      "d": 60.24091666666209,
      "v": 97
    },
    {
      "midi": 82,
      "hit": false,
      "t": 124096.28833333275,
      "d": 90.36137499999313,
      "v": 95
    },
    {
      "midi": 71,
      "hit": false,
      "t": 124337.25199999941,
      "d": 60.24091666666209,
      "v": 95
    },
    {
      "midi": 76,
      "hit": false,
      "t": 124337.25199999941,
      "d": 60.24091666666209,
      "v": 105
    },
    {
      "midi": 80,
      "hit": false,
      "t": 124337.25199999941,
      "d": 90.36137499999313,
      "v": 105
    },
    {
      "midi": 71,
      "hit": false,
      "t": 124578.21566666607,
      "d": 60.24091666666209,
      "v": 70
    },
    {
      "midi": 76,
      "hit": false,
      "t": 124578.21566666607,
      "d": 60.24091666666209,
      "v": 95
    },
    {
      "midi": 80,
      "hit": false,
      "t": 124578.21566666607,
      "d": 60.24091666666209,
      "v": 95
    },
    {
      "midi": 71,
      "hit": false,
      "t": 124819.17933333274,
      "d": 60.24091666666209,
      "v": 76
    },
    {
      "midi": 76,
      "hit": false,
      "t": 124819.17933333274,
      "d": 60.24091666666209,
      "v": 97
    },
    {
      "midi": 80,
      "hit": false,
      "t": 124819.17933333274,
      "d": 90.36137499999313,
      "v": 97
    },
    {
      "midi": 71,
      "hit": false,
      "t": 125060.1429999994,
      "d": 60.24091666666209,
      "v": 78
    },
    {
      "midi": 76,
      "hit": false,
      "t": 125060.1429999994,
      "d": 60.24091666666209,
      "v": 103
    },
    {
      "midi": 80,
      "hit": false,
      "t": 125060.1429999994,
      "d": 90.36137499999313,
      "v": 105
    },
    {
      "midi": 71,
      "hit": false,
      "t": 125301.10666666606,
      "d": 60.24091666666209,
      "v": 80
    },
    {
      "midi": 76,
      "hit": false,
      "t": 125301.10666666606,
      "d": 60.24091666666209,
      "v": 95
    },
    {
      "midi": 80,
      "hit": false,
      "t": 125301.10666666606,
      "d": 60.24091666666209,
      "v": 97
    },
    {
      "midi": 71,
      "hit": false,
      "t": 125542.07033333273,
      "d": 60.24091666666209,
      "v": 86
    },
    {
      "midi": 76,
      "hit": false,
      "t": 125542.07033333273,
      "d": 60.24091666666209,
      "v": 99
    },
    {
      "midi": 80,
      "hit": false,
      "t": 125542.07033333273,
      "d": 90.36137499999313,
      "v": 99
    },
    {
      "midi": 71,
      "hit": false,
      "t": 125783.03399999939,
      "d": 60.24091666666209,
      "v": 82
    },
    {
      "midi": 76,
      "hit": false,
      "t": 125783.03399999939,
      "d": 60.24091666666209,
      "v": 97
    },
    {
      "midi": 80,
      "hit": false,
      "t": 125783.03399999939,
      "d": 90.36137499999313,
      "v": 97
    },
    {
      "midi": 71,
      "hit": false,
      "t": 126023.99766666605,
      "d": 60.24091666666209,
      "v": 80
    },
    {
      "midi": 76,
      "hit": false,
      "t": 126023.99766666605,
      "d": 60.24091666666209,
      "v": 97
    },
    {
      "midi": 80,
      "hit": false,
      "t": 126023.99766666605,
      "d": 60.24091666666209,
      "v": 99
    },
    {
      "midi": 71,
      "hit": false,
      "t": 126264.96133333271,
      "d": 60.24091666666209,
      "v": 86
    },
    {
      "midi": 76,
      "hit": false,
      "t": 126264.96133333271,
      "d": 60.24091666666209,
      "v": 99
    },
    {
      "midi": 80,
      "hit": false,
      "t": 126264.96133333271,
      "d": 90.36137499999313,
      "v": 101
    },
    {
      "midi": 76,
      "hit": false,
      "t": 126505.92499999938,
      "d": 30.120458333331044,
      "v": 95
    },
    {
      "midi": 71,
      "hit": false,
      "t": 126505.92499999938,
      "d": 60.24091666666209,
      "v": 86
    },
    {
      "midi": 80,
      "hit": false,
      "t": 126505.92499999938,
      "d": 60.24091666666209,
      "v": 97
    },
    {
      "midi": 71,
      "hit": false,
      "t": 126746.88866666604,
      "d": 60.24091666666209,
      "v": 82
    },
    {
      "midi": 76,
      "hit": false,
      "t": 126746.88866666604,
      "d": 60.24091666666209,
      "v": 95
    },
    {
      "midi": 80,
      "hit": false,
      "t": 126746.88866666604,
      "d": 60.24091666666209,
      "v": 97
    },
    {
      "midi": 71,
      "hit": false,
      "t": 126987.8523333327,
      "d": 60.24091666666209,
      "v": 84
    },
    {
      "midi": 76,
      "hit": false,
      "t": 126987.8523333327,
      "d": 60.24091666666209,
      "v": 95
    },
    {
      "midi": 80,
      "hit": false,
      "t": 126987.8523333327,
      "d": 60.24091666666209,
      "v": 97
    },
    {
      "midi": 71,
      "hit": false,
      "t": 127228.81599999937,
      "d": 60.24091666666209,
      "v": 84
    },
    {
      "midi": 75,
      "hit": false,
      "t": 127228.81599999937,
      "d": 60.24091666666209,
      "v": 99
    },
    {
      "midi": 78,
      "hit": false,
      "t": 127228.81599999937,
      "d": 90.36137499999313,
      "v": 101
    },
    {
      "midi": 71,
      "hit": false,
      "t": 127469.77966666603,
      "d": 60.24091666666209,
      "v": 68
    },
    {
      "midi": 75,
      "hit": false,
      "t": 127469.77966666603,
      "d": 60.24091666666209,
      "v": 88
    },
    {
      "midi": 78,
      "hit": false,
      "t": 127469.77966666603,
      "d": 60.24091666666209,
      "v": 95
    },
    {
      "midi": 71,
      "hit": false,
      "t": 127710.74333333269,
      "d": 60.24091666666209,
      "v": 78
    },
    {
      "midi": 75,
      "hit": false,
      "t": 127710.74333333269,
      "d": 60.24091666666209,
      "v": 101
    },
    {
      "midi": 78,
      "hit": false,
      "t": 127710.74333333269,
      "d": 90.36137499999313,
      "v": 97
    },
    {
      "midi": 71,
      "hit": false,
      "t": 127951.70699999935,
      "d": 60.24091666666209,
      "v": 82
    },
    {
      "midi": 75,
      "hit": false,
      "t": 127951.70699999935,
      "d": 60.24091666666209,
      "v": 99
    },
    {
      "midi": 78,
      "hit": false,
      "t": 127951.70699999935,
      "d": 90.36137499999313,
      "v": 101
    },
    {
      "midi": 71,
      "hit": false,
      "t": 128192.67066666602,
      "d": 60.24091666666209,
      "v": 74
    },
    {
      "midi": 75,
      "hit": false,
      "t": 128192.67066666602,
      "d": 60.24091666666209,
      "v": 90
    },
    {
      "midi": 78,
      "hit": false,
      "t": 128192.67066666602,
      "d": 90.36137499999313,
      "v": 95
    },
    {
      "midi": 71,
      "hit": false,
      "t": 128433.63433333268,
      "d": 60.24091666666209,
      "v": 82
    },
    {
      "midi": 75,
      "hit": false,
      "t": 128433.63433333268,
      "d": 60.24091666666209,
      "v": 101
    },
    {
      "midi": 78,
      "hit": false,
      "t": 128433.63433333268,
      "d": 90.36137499999313,
      "v": 101
    },
    {
      "midi": 71,
      "hit": false,
      "t": 128674.59799999934,
      "d": 60.24091666666209,
      "v": 84
    },
    {
      "midi": 76,
      "hit": false,
      "t": 128674.59799999934,
      "d": 60.24091666666209,
      "v": 95
    },
    {
      "midi": 80,
      "hit": false,
      "t": 128674.59799999934,
      "d": 90.36137499999313,
      "v": 105
    },
    {
      "midi": 71,
      "hit": false,
      "t": 128915.561666666,
      "d": 60.24091666666209,
      "v": 84
    },
    {
      "midi": 76,
      "hit": false,
      "t": 128915.561666666,
      "d": 60.24091666666209,
      "v": 95
    },
    {
      "midi": 80,
      "hit": false,
      "t": 128915.561666666,
      "d": 60.24091666666209,
      "v": 101
    },
    {
      "midi": 71,
      "hit": false,
      "t": 129156.52533333267,
      "d": 60.24091666666209,
      "v": 82
    },
    {
      "midi": 76,
      "hit": false,
      "t": 129156.52533333267,
      "d": 60.24091666666209,
      "v": 97
    },
    {
      "midi": 80,
      "hit": false,
      "t": 129156.52533333267,
      "d": 90.36137499999313,
      "v": 101
    },
    {
      "midi": 71,
      "hit": false,
      "t": 129397.48899999933,
      "d": 60.24091666666209,
      "v": 80
    },
    {
      "midi": 76,
      "hit": false,
      "t": 129397.48899999933,
      "d": 60.24091666666209,
      "v": 97
    },
    {
      "midi": 80,
      "hit": false,
      "t": 129397.48899999933,
      "d": 90.36137499999313,
      "v": 97
    },
    {
      "midi": 71,
      "hit": false,
      "t": 129638.452666666,
      "d": 60.24091666666209,
      "v": 80
    },
    {
      "midi": 76,
      "hit": false,
      "t": 129638.452666666,
      "d": 60.24091666666209,
      "v": 97
    },
    {
      "midi": 80,
      "hit": false,
      "t": 129638.452666666,
      "d": 90.36137499999313,
      "v": 97
    },
    {
      "midi": 71,
      "hit": false,
      "t": 129879.41633333266,
      "d": 60.24091666666209,
      "v": 78
    },
    {
      "midi": 76,
      "hit": false,
      "t": 129879.41633333266,
      "d": 60.24091666666209,
      "v": 97
    },
    {
      "midi": 80,
      "hit": false,
      "t": 129879.41633333266,
      "d": 90.36137499999313,
      "v": 97
    },
    {
      "midi": 66,
      "hit": false,
      "t": 130120.37999999932,
      "d": 1084.3364999999903,
      "v": 92
    },
    {
      "midi": 59,
      "hit": false,
      "t": 130120.37999999932,
      "d": 1174.697874999998,
      "v": 101
    },
    {
      "midi": 75,
      "hit": false,
      "t": 130120.37999999932,
      "d": 1204.8183333333436,
      "v": 95
    },
    {
      "midi": 71,
      "hit": false,
      "t": 130120.37999999932,
      "d": 1295.1797083333513,
      "v": 97
    },
    {
      "midi": 52,
      "hit": false,
      "t": 131566.16199999934,
      "d": 1114.4569583333214,
      "v": 95
    },
    {
      "midi": 68,
      "hit": false,
      "t": 131566.16199999934,
      "d": 1144.577416666667,
      "v": 95
    },
    {
      "midi": 71,
      "hit": false,
      "t": 131566.16199999934,
      "d": 1144.577416666667,
      "v": 110
    },
    {
      "midi": 76,
      "hit": false,
      "t": 131566.16199999934,
      "d": 1144.577416666667,
      "v": 115
    },
    {
      "midi": 59,
      "hit": false,
      "t": 133011.94399999935,
      "d": 4939.7551666666695,
      "v": 110
    },
    {
      "midi": 66,
      "hit": false,
      "t": 133011.94399999935,
      "d": 4939.7551666666695,
      "v": 101
    },
    {
      "midi": 71,
      "hit": false,
      "t": 133011.94399999935,
      "d": 4939.7551666666695,
      "v": 110
    },
    {
      "midi": 75,
      "hit": false,
      "t": 133011.94399999935,
      "d": 4969.875625000015,
      "v": 108
    }
  ]
}