{
  "jsonPath": "Soul/Memphis Soul/The Ovations/the-day-we-fell-in-love.json",
  "path": "Soul\\Memphis Soul\\The Ovations\\The Day We Fell In Love.mid",
  "name": "The Day We Fell In Love",
  "difficulty": "Advanced",
  "bpm": 69.00009660013524,
  "notes": [
    {
      "midi": 76,
      "hit": false,
      "t": 6956.512000000001,
      "d": 181.15916666666635,
      "v": 120
    },
    {
      "midi": 81,
      "hit": false,
      "t": 6956.512000000001,
      "d": 1449.2733333333326,
      "v": 120
    },
    {
      "midi": 41,
      "hit": false,
      "t": 6956.512000000001,
      "d": 280.7967083333333,
      "v": 125
    },
    {
      "midi": 65,
      "hit": false,
      "t": 6956.512000000001,
      "d": 280.7967083333333,
      "v": 125
    },
    {
      "midi": 69,
      "hit": false,
      "t": 6956.512000000001,
      "d": 280.7967083333333,
      "v": 125
    },
    {
      "midi": 72,
      "hit": false,
      "t": 6956.512000000001,
      "d": 280.7967083333333,
      "v": 125
    },
    {
      "midi": 77,
      "hit": false,
      "t": 7137.671166666667,
      "d": 1159.4186666666665,
      "v": 120
    },
    {
      "midi": 41,
      "hit": false,
      "t": 7246.366666666668,
      "d": 280.7967083333333,
      "v": 125
    },
    {
      "midi": 65,
      "hit": false,
      "t": 7246.366666666668,
      "d": 280.7967083333333,
      "v": 125
    },
    {
      "midi": 69,
      "hit": false,
      "t": 7246.366666666668,
      "d": 280.7967083333333,
      "v": 125
    },
    {
      "midi": 72,
      "hit": false,
      "t": 7246.366666666668,
      "d": 280.7967083333333,
      "v": 125
    },
    {
      "midi": 41,
      "hit": false,
      "t": 7536.221333333335,
      "d": 280.7967083333333,
      "v": 125
    },
    {
      "midi": 65,
      "hit": false,
      "t": 7536.221333333335,
      "d": 280.7967083333333,
      "v": 125
    },
    {
      "midi": 69,
      "hit": false,
      "t": 7536.221333333335,
      "d": 280.7967083333333,
      "v": 125
    },
    {
      "midi": 72,
      "hit": false,
      "t": 7536.221333333335,
      "d": 280.7967083333333,
      "v": 125
    },
    {
      "midi": 41,
      "hit": false,
      "t": 7826.076000000002,
      "d": 280.7967083333333,
      "v": 125
    },
    {
      "midi": 65,
      "hit": false,
      "t": 7826.076000000002,
      "d": 280.7967083333333,
      "v": 125
    },
    {
      "midi": 69,
      "hit": false,
      "t": 7826.076000000002,
      "d": 280.7967083333333,
      "v": 125
    },
    {
      "midi": 72,
      "hit": false,
      "t": 7826.076000000002,
      "d": 280.7967083333333,
      "v": 125
    },
    {
      "midi": 41,
      "hit": false,
      "t": 8115.930666666669,
      "d": 280.7967083333333,
      "v": 125
    },
    {
      "midi": 65,
      "hit": false,
      "t": 8115.930666666669,
      "d": 280.7967083333333,
      "v": 125
    },
    {
      "midi": 69,
      "hit": false,
      "t": 8115.930666666669,
      "d": 280.7967083333333,
      "v": 125
    },
    {
      "midi": 72,
      "hit": false,
      "t": 8115.930666666669,
      "d": 280.7967083333333,
      "v": 125
    },
    {
      "midi": 41,
      "hit": false,
      "t": 8405.785333333335,
      "d": 280.7967083333333,
      "v": 125
    },
    {
      "midi": 65,
      "hit": false,
      "t": 8405.785333333335,
      "d": 280.7967083333333,
      "v": 125
    },
    {
      "midi": 69,
      "hit": false,
      "t": 8405.785333333335,
      "d": 280.7967083333333,
      "v": 125
    },
    {
      "midi": 72,
      "hit": false,
      "t": 8405.785333333335,
      "d": 280.7967083333333,
      "v": 125
    },
    {
      "midi": 72,
      "hit": false,
      "t": 8695.64,
      "d": 1449.2733333333344,
      "v": 120
    },
    {
      "midi": 77,
      "hit": false,
      "t": 8695.64,
      "d": 1739.1280000000006,
      "v": 120
    },
    {
      "midi": 38,
      "hit": false,
      "t": 8695.640000000001,
      "d": 280.7967083333333,
      "v": 125
    },
    {
      "midi": 65,
      "hit": false,
      "t": 8695.640000000001,
      "d": 280.7967083333333,
      "v": 125
    },
    {
      "midi": 69,
      "hit": false,
      "t": 8695.640000000001,
      "d": 280.7967083333333,
      "v": 125
    },
    {
      "midi": 74,
      "hit": false,
      "t": 8695.640000000001,
      "d": 280.7967083333333,
      "v": 125
    },
    {
      "midi": 38,
      "hit": false,
      "t": 8985.494666666667,
      "d": 280.7967083333333,
      "v": 125
    },
    {
      "midi": 65,
      "hit": false,
      "t": 8985.494666666667,
      "d": 280.7967083333333,
      "v": 125
    },
    {
      "midi": 69,
      "hit": false,
      "t": 8985.494666666667,
      "d": 280.7967083333333,
      "v": 125
    },
    {
      "midi": 74,
      "hit": false,
      "t": 8985.494666666667,
      "d": 280.7967083333333,
      "v": 125
    },
    {
      "midi": 38,
      "hit": false,
      "t": 9275.349333333334,
      "d": 280.7967083333333,
      "v": 125
    },
    {
      "midi": 65,
      "hit": false,
      "t": 9275.349333333334,
      "d": 280.7967083333333,
      "v": 125
    },
    {
      "midi": 69,
      "hit": false,
      "t": 9275.349333333334,
      "d": 280.7967083333333,
      "v": 125
    },
    {
      "midi": 74,
      "hit": false,
      "t": 9275.349333333334,
      "d": 280.7967083333333,
      "v": 125
    },
    {
      "midi": 38,
      "hit": false,
      "t": 9565.204,
      "d": 280.7967083333333,
      "v": 125
    },
    {
      "midi": 65,
      "hit": false,
      "t": 9565.204,
      "d": 280.7967083333333,
      "v": 125
    },
    {
      "midi": 69,
      "hit": false,
      "t": 9565.204,
      "d": 280.7967083333333,
      "v": 125
    },
    {
      "midi": 74,
      "hit": false,
      "t": 9565.204,
      "d": 280.7967083333333,
      "v": 125
    },
    {
      "midi": 38,
      "hit": false,
      "t": 9855.058666666666,
      "d": 280.7967083333333,
      "v": 125
    },
    {
      "midi": 65,
      "hit": false,
      "t": 9855.058666666666,
      "d": 280.7967083333333,
      "v": 125
    },
    {
      "midi": 69,
      "hit": false,
      "t": 9855.058666666666,
      "d": 280.7967083333333,
      "v": 125
    },
    {
      "midi": 74,
      "hit": false,
      "t": 9855.058666666666,
      "d": 280.7967083333333,
      "v": 125
    },
    {
      "midi": 38,
      "hit": false,
      "t": 10144.913333333332,
      "d": 280.7967083333333,
      "v": 125
    },
    {
      "midi": 65,
      "hit": false,
      "t": 10144.913333333332,
      "d": 280.7967083333333,
      "v": 125
    },
    {
      "midi": 69,
      "hit": false,
      "t": 10144.913333333332,
      "d": 280.7967083333333,
      "v": 125
    },
    {
      "midi": 74,
      "hit": false,
      "t": 10144.913333333332,
      "d": 280.7967083333333,
      "v": 125
    },
    {
      "midi": 34,
      "hit": false,
      "t": 10434.767999999998,
      "d": 280.7967083333333,
      "v": 125
    },
    {
      "midi": 65,
      "hit": false,
      "t": 10434.767999999998,
      "d": 280.7967083333333,
      "v": 125
    },
    {
      "midi": 70,
      "hit": false,
      "t": 10434.767999999998,
      "d": 280.7967083333333,
      "v": 125
    },
    {
      "midi": 73,
      "hit": false,
      "t": 10434.767999999998,
      "d": 280.7967083333333,
      "v": 125
    },
    {
      "midi": 34,
      "hit": false,
      "t": 10724.622666666664,
      "d": 280.7967083333333,
      "v": 125
    },
    {
      "midi": 65,
      "hit": false,
      "t": 10724.622666666664,
      "d": 280.7967083333333,
      "v": 125
    },
    {
      "midi": 70,
      "hit": false,
      "t": 10724.622666666664,
      "d": 280.7967083333333,
      "v": 125
    },
    {
      "midi": 73,
      "hit": false,
      "t": 10724.622666666664,
      "d": 280.7967083333333,
      "v": 125
    },
    {
      "midi": 34,
      "hit": false,
      "t": 11014.47733333333,
      "d": 280.7967083333333,
      "v": 125
    },
    {
      "midi": 65,
      "hit": false,
      "t": 11014.47733333333,
      "d": 280.7967083333333,
      "v": 125
    },
    {
      "midi": 70,
      "hit": false,
      "t": 11014.47733333333,
      "d": 280.7967083333333,
      "v": 125
    },
    {
      "midi": 73,
      "hit": false,
      "t": 11014.47733333333,
      "d": 280.7967083333333,
      "v": 125
    },
    {
      "midi": 34,
      "hit": false,
      "t": 11304.331999999997,
      "d": 280.7967083333333,
      "v": 125
    },
    {
      "midi": 65,
      "hit": false,
      "t": 11304.331999999997,
      "d": 280.7967083333333,
      "v": 125
    },
    {
      "midi": 70,
      "hit": false,
      "t": 11304.331999999997,
      "d": 280.7967083333333,
      "v": 125
    },
    {
      "midi": 73,
      "hit": false,
      "t": 11304.331999999997,
      "d": 280.7967083333333,
      "v": 125
    },
    {
      "midi": 34,
      "hit": false,
      "t": 11594.186666666663,
      "d": 280.7967083333333,
      "v": 125
    },
    {
      "midi": 65,
      "hit": false,
      "t": 11594.186666666663,
      "d": 280.7967083333333,
      "v": 125
    },
    {
      "midi": 70,
      "hit": false,
      "t": 11594.186666666663,
      "d": 280.7967083333333,
      "v": 125
    },
    {
      "midi": 73,
      "hit": false,
      "t": 11594.186666666663,
      "d": 280.7967083333333,
      "v": 125
    },
    {
      "midi": 70,
      "hit": false,
      "t": 11594.186666666666,
      "d": 280.7967083333333,
      "v": 120
    },
    {
      "midi": 34,
      "hit": false,
      "t": 11884.041333333329,
      "d": 280.7967083333333,
      "v": 125
    },
    {
      "midi": 65,
      "hit": false,
      "t": 11884.041333333329,
      "d": 280.7967083333333,
      "v": 125
    },
    {
      "midi": 70,
      "hit": false,
      "t": 11884.041333333329,
      "d": 280.7967083333333,
      "v": 125
    },
    {
      "midi": 73,
      "hit": false,
      "t": 11884.041333333329,
      "d": 280.7967083333333,
      "v": 125
    },
    {
      "midi": 72,
      "hit": false,
      "t": 11884.041333333333,
      "d": 280.7967083333333,
      "v": 120
    },
    {
      "midi": 77,
      "hit": false,
      "t": 11884.041333333333,
      "d": 280.7967083333333,
      "v": 120
    },
    {
      "midi": 36,
      "hit": false,
      "t": 12173.895999999995,
      "d": 280.7967083333333,
      "v": 125
    },
    {
      "midi": 64,
      "hit": false,
      "t": 12173.895999999995,
      "d": 280.7967083333333,
      "v": 125
    },
    {
      "midi": 67,
      "hit": false,
      "t": 12173.895999999995,
      "d": 280.7967083333333,
      "v": 125
    },
    {
      "midi": 72,
      "hit": false,
      "t": 12173.895999999995,
      "d": 280.7967083333333,
      "v": 125
    },
    {
      "midi": 72,
      "hit": false,
      "t": 12173.895999999999,
      "d": 181.15916666666635,
      "v": 120
    },
    {
      "midi": 77,
      "hit": false,
      "t": 12173.895999999999,
      "d": 579.7093333333323,
      "v": 120
    },
    {
      "midi": 73,
      "hit": false,
      "t": 12355.055166666665,
      "d": 280.7967083333333,
      "v": 120
    },
    {
      "midi": 36,
      "hit": false,
      "t": 12463.750666666661,
      "d": 280.7967083333333,
      "v": 125
    },
    {
      "midi": 64,
      "hit": false,
      "t": 12463.750666666661,
      "d": 280.7967083333333,
      "v": 125
    },
    {
      "midi": 67,
      "hit": false,
      "t": 12463.750666666661,
      "d": 280.7967083333333,
      "v": 125
    },
    {
      "midi": 72,
      "hit": false,
      "t": 12463.750666666661,
      "d": 280.7967083333333,
      "v": 125
    },
    {
      "midi": 36,
      "hit": false,
      "t": 12753.605333333328,
      "d": 280.7967083333333,
      "v": 125
    },
    {
      "midi": 64,
      "hit": false,
      "t": 12753.605333333328,
      "d": 280.7967083333333,
      "v": 125
    },
    {
      "midi": 67,
      "hit": false,
      "t": 12753.605333333328,
      "d": 280.7967083333333,
      "v": 125
    },
    {
      "midi": 72,
      "hit": false,
      "t": 12753.605333333328,
      "d": 280.7967083333333,
      "v": 125
    },
    {
      "midi": 72,
      "hit": false,
      "t": 12753.605333333331,
      "d": 579.7093333333341,
      "v": 120
    },
    {
      "midi": 77,
      "hit": false,
      "t": 12753.605333333331,
      "d": 579.7093333333341,
      "v": 120
    },
    {
      "midi": 36,
      "hit": false,
      "t": 13043.459999999994,
      "d": 280.7967083333333,
      "v": 125
    },
    {
      "midi": 64,
      "hit": false,
      "t": 13043.459999999994,
      "d": 280.7967083333333,
      "v": 125
    },
    {
      "midi": 67,
      "hit": false,
      "t": 13043.459999999994,
      "d": 280.7967083333333,
      "v": 125
    },
    {
      "midi": 72,
      "hit": false,
      "t": 13043.459999999994,
      "d": 280.7967083333333,
      "v": 125
    },
    {
      "midi": 36,
      "hit": false,
      "t": 13333.31466666666,
      "d": 280.7967083333333,
      "v": 125
    },
    {
      "midi": 64,
      "hit": false,
      "t": 13333.31466666666,
      "d": 280.7967083333333,
      "v": 125
    },
    {
      "midi": 67,
      "hit": false,
      "t": 13333.31466666666,
      "d": 280.7967083333333,
      "v": 125
    },
    {
      "midi": 72,
      "hit": false,
      "t": 13333.31466666666,
      "d": 280.7967083333333,
      "v": 125
    },
    {
      "midi": 70,
      "hit": false,
      "t": 13333.314666666665,
      "d": 579.7093333333341,
      "v": 120
    },
    {
      "midi": 36,
      "hit": false,
      "t": 13623.169333333326,
      "d": 280.7967083333333,
      "v": 125
    },
    {
      "midi": 64,
      "hit": false,
      "t": 13623.169333333326,
      "d": 280.7967083333333,
      "v": 125
    },
    {
      "midi": 67,
      "hit": false,
      "t": 13623.169333333326,
      "d": 280.7967083333333,
      "v": 125
    },
    {
      "midi": 72,
      "hit": false,
      "t": 13623.169333333326,
      "d": 280.7967083333333,
      "v": 125
    },
    {
      "midi": 41,
      "hit": false,
      "t": 13913.023999999992,
      "d": 280.7967083333333,
      "v": 125
    },
    {
      "midi": 65,
      "hit": false,
      "t": 13913.023999999992,
      "d": 280.7967083333333,
      "v": 125
    },
    {
      "midi": 69,
      "hit": false,
      "t": 13913.023999999992,
      "d": 280.7967083333333,
      "v": 125
    },
    {
      "midi": 72,
      "hit": false,
      "t": 13913.023999999992,
      "d": 280.7967083333333,
      "v": 125
    },
    {
      "midi": 76,
      "hit": false,
      "t": 13913.024,
      "d": 181.15916666666635,
      "v": 120
    },
    {
      "midi": 81,
      "hit": false,
      "t": 13913.024,
      "d": 1449.2733333333326,
      "v": 120
    },
    {
      "midi": 77,
      "hit": false,
      "t": 14094.183166666666,
      "d": 1159.4186666666665,
      "v": 120
    },
    {
      "midi": 41,
      "hit": false,
      "t": 14202.878666666658,
      "d": 280.7967083333333,
      "v": 125
    },
    {
      "midi": 65,
      "hit": false,
      "t": 14202.878666666658,
      "d": 280.7967083333333,
      "v": 125
    },
    {
      "midi": 69,
      "hit": false,
      "t": 14202.878666666658,
      "d": 280.7967083333333,
      "v": 125
    },
    {
      "midi": 72,
      "hit": false,
      "t": 14202.878666666658,
      "d": 280.7967083333333,
      "v": 125
    },
    {
      "midi": 41,
      "hit": false,
      "t": 14492.733333333324,
      "d": 280.7967083333333,
      "v": 125
    },
    {
      "midi": 65,
      "hit": false,
      "t": 14492.733333333324,
      "d": 280.7967083333333,
      "v": 125
    },
    {
      "midi": 69,
      "hit": false,
      "t": 14492.733333333324,
      "d": 280.7967083333333,
      "v": 125
    },
    {
      "midi": 72,
      "hit": false,
      "t": 14492.733333333324,
      "d": 280.7967083333333,
      "v": 125
    },
    {
      "midi": 41,
      "hit": false,
      "t": 14782.58799999999,
      "d": 280.7967083333333,
      "v": 125
    },
    {
      "midi": 65,
      "hit": false,
      "t": 14782.58799999999,
      "d": 280.7967083333333,
      "v": 125
    },
    {
      "midi": 69,
      "hit": false,
      "t": 14782.58799999999,
      "d": 280.7967083333333,
      "v": 125
    },
    {
      "midi": 72,
      "hit": false,
      "t": 14782.58799999999,
      "d": 280.7967083333333,
      "v": 125
    },
    {
      "midi": 41,
      "hit": false,
      "t": 15072.442666666657,
      "d": 280.7967083333333,
      "v": 125
    },
    {
      "midi": 65,
      "hit": false,
      "t": 15072.442666666657,
      "d": 280.7967083333333,
      "v": 125
    },
    {
      "midi": 69,
      "hit": false,
      "t": 15072.442666666657,
      "d": 280.7967083333333,
      "v": 125
    },
    {
      "midi": 72,
      "hit": false,
      "t": 15072.442666666657,
      "d": 280.7967083333333,
      "v": 125
    },
    {
      "midi": 41,
      "hit": false,
      "t": 15362.297333333323,
      "d": 280.7967083333333,
      "v": 125
    },
    {
      "midi": 65,
      "hit": false,
      "t": 15362.297333333323,
      "d": 280.7967083333333,
      "v": 125
    },
    {
      "midi": 69,
      "hit": false,
      "t": 15362.297333333323,
      "d": 280.7967083333333,
      "v": 125
    },
    {
      "midi": 72,
      "hit": false,
      "t": 15362.297333333323,
      "d": 280.7967083333333,
      "v": 125
    },
    {
      "midi": 38,
      "hit": false,
      "t": 15652.15199999999,
      "d": 280.7967083333333,
      "v": 125
    },
    {
      "midi": 65,
      "hit": false,
      "t": 15652.15199999999,
      "d": 280.7967083333333,
      "v": 125
    },
    {
      "midi": 69,
      "hit": false,
      "t": 15652.15199999999,
      "d": 280.7967083333333,
      "v": 125
    },
    {
      "midi": 74,
      "hit": false,
      "t": 15652.15199999999,
      "d": 280.7967083333333,
      "v": 125
    },
    {
      "midi": 72,
      "hit": false,
      "t": 15652.151999999998,
      "d": 1449.2733333333344,
      "v": 120
    },
    {
      "midi": 77,
      "hit": false,
      "t": 15652.151999999998,
      "d": 1739.1280000000006,
      "v": 120
    },
    {
      "midi": 38,
      "hit": false,
      "t": 15942.006666666655,
      "d": 280.7967083333333,
      "v": 125
    },
    {
      "midi": 65,
      "hit": false,
      "t": 15942.006666666655,
      "d": 280.7967083333333,
      "v": 125
    },
    {
      "midi": 69,
      "hit": false,
      "t": 15942.006666666655,
      "d": 280.7967083333333,
      "v": 125
    },
    {
      "midi": 74,
      "hit": false,
      "t": 15942.006666666655,
      "d": 280.7967083333333,
      "v": 125
    },
    {
      "midi": 38,
      "hit": false,
      "t": 16231.861333333321,
      "d": 280.7967083333333,
      "v": 125
    },
    {
      "midi": 65,
      "hit": false,
      "t": 16231.861333333321,
      "d": 280.7967083333333,
      "v": 125
    },
    {
      "midi": 69,
      "hit": false,
      "t": 16231.861333333321,
      "d": 280.7967083333333,
      "v": 125
    },
    {
      "midi": 74,
      "hit": false,
      "t": 16231.861333333321,
      "d": 280.7967083333333,
      "v": 125
    },
    {
      "midi": 38,
      "hit": false,
      "t": 16521.71599999999,
      "d": 280.7967083333351,
      "v": 125
    },
    {
      "midi": 65,
      "hit": false,
      "t": 16521.71599999999,
      "d": 280.7967083333351,
      "v": 125
    },
    {
      "midi": 69,
      "hit": false,
      "t": 16521.71599999999,
      "d": 280.7967083333351,
      "v": 125
    },
    {
      "midi": 74,
      "hit": false,
      "t": 16521.71599999999,
      "d": 280.7967083333351,
      "v": 125
    },
    {
      "midi": 38,
      "hit": false,
      "t": 16811.57066666666,
      "d": 280.7967083333351,
      "v": 125
    },
    {
      "midi": 65,
      "hit": false,
      "t": 16811.57066666666,
      "d": 280.7967083333351,
      "v": 125
    },
    {
      "midi": 69,
      "hit": false,
      "t": 16811.57066666666,
      "d": 280.7967083333351,
      "v": 125
    },
    {
      "midi": 74,
      "hit": false,
      "t": 16811.57066666666,
      "d": 280.7967083333351,
      "v": 125
    },
    {
      "midi": 38,
      "hit": false,
      "t": 17101.42533333333,
      "d": 280.7967083333351,
      "v": 125
    },
    {
      "midi": 65,
      "hit": false,
      "t": 17101.42533333333,
      "d": 280.7967083333351,
      "v": 125
    },
    {
      "midi": 69,
      "hit": false,
      "t": 17101.42533333333,
      "d": 280.7967083333351,
      "v": 125
    },
    {
      "midi": 74,
      "hit": false,
      "t": 17101.42533333333,
      "d": 280.7967083333351,
      "v": 125
    },
    {
      "midi": 34,
      "hit": false,
      "t": 17391.28,
      "d": 280.7967083333351,
      "v": 125
    },
    {
      "midi": 65,
      "hit": false,
      "t": 17391.28,
      "d": 280.7967083333351,
      "v": 125
    },
    {
      "midi": 70,
      "hit": false,
      "t": 17391.28,
      "d": 280.7967083333351,
      "v": 125
    },
    {
      "midi": 73,
      "hit": false,
      "t": 17391.28,
      "d": 280.7967083333351,
      "v": 125
    },
    {
      "midi": 34,
      "hit": false,
      "t": 17681.13466666667,
      "d": 280.7967083333351,
      "v": 125
    },
    {
      "midi": 65,
      "hit": false,
      "t": 17681.13466666667,
      "d": 280.7967083333351,
      "v": 125
    },
    {
      "midi": 70,
      "hit": false,
      "t": 17681.13466666667,
      "d": 280.7967083333351,
      "v": 125
    },
    {
      "midi": 73,
      "hit": false,
      "t": 17681.13466666667,
      "d": 280.7967083333351,
      "v": 125
    },
    {
      "midi": 34,
      "hit": false,
      "t": 17970.98933333334,
      "d": 280.7967083333351,
      "v": 125
    },
    {
      "midi": 65,
      "hit": false,
      "t": 17970.98933333334,
      "d": 280.7967083333351,
      "v": 125
    },
    {
      "midi": 70,
      "hit": false,
      "t": 17970.98933333334,
      "d": 280.7967083333351,
      "v": 125
    },
    {
      "midi": 73,
      "hit": false,
      "t": 17970.98933333334,
      "d": 280.7967083333351,
      "v": 125
    },
    {
      "midi": 34,
      "hit": false,
      "t": 18260.84400000001,
      "d": 280.7967083333351,
      "v": 125
    },
    {
      "midi": 65,
      "hit": false,
      "t": 18260.84400000001,
      "d": 280.7967083333351,
      "v": 125
    },
    {
      "midi": 70,
      "hit": false,
      "t": 18260.84400000001,
      "d": 280.7967083333351,
      "v": 125
    },
    {
      "midi": 73,
      "hit": false,
      "t": 18260.84400000001,
      "d": 280.7967083333351,
      "v": 125
    },
    {
      "midi": 70,
      "hit": false,
      "t": 18550.698666666667,
      "d": 280.7967083333351,
      "v": 120
    },
    {
      "midi": 34,
      "hit": false,
      "t": 18550.698666666678,
      "d": 280.7967083333351,
      "v": 125
    },
    {
      "midi": 65,
      "hit": false,
      "t": 18550.698666666678,
      "d": 280.7967083333351,
      "v": 125
    },
    {
      "midi": 70,
      "hit": false,
      "t": 18550.698666666678,
      "d": 280.7967083333351,
      "v": 125
    },
    {
      "midi": 73,
      "hit": false,
      "t": 18550.698666666678,
      "d": 280.7967083333351,
      "v": 125
    },
    {
      "midi": 72,
      "hit": false,
      "t": 18840.553333333337,
      "d": 280.7967083333351,
      "v": 120
    },
    {
      "midi": 77,
      "hit": false,
      "t": 18840.553333333337,
      "d": 280.7967083333351,
      "v": 120
    },
    {
      "midi": 34,
      "hit": false,
      "t": 18840.553333333348,
      "d": 280.7967083333351,
      "v": 125
    },
    {
      "midi": 65,
      "hit": false,
      "t": 18840.553333333348,
      "d": 280.7967083333351,
      "v": 125
    },
    {
      "midi": 70,
      "hit": false,
      "t": 18840.553333333348,
      "d": 280.7967083333351,
      "v": 125
    },
    {
      "midi": 73,
      "hit": false,
      "t": 18840.553333333348,
      "d": 280.7967083333351,
      "v": 125
    },
    {
      "midi": 72,
      "hit": false,
      "t": 19130.408000000007,
      "d": 181.15916666666817,
      "v": 120
    },
    {
      "midi": 77,
      "hit": false,
      "t": 19130.408000000007,
      "d": 579.709333333336,
      "v": 120
    },
    {
      "midi": 36,
      "hit": false,
      "t": 19130.408000000018,
      "d": 280.7967083333351,
      "v": 125
    },
    {
      "midi": 64,
      "hit": false,
      "t": 19130.408000000018,
      "d": 280.7967083333351,
      "v": 125
    },
    {
      "midi": 67,
      "hit": false,
      "t": 19130.408000000018,
      "d": 280.7967083333351,
      "v": 125
    },
    {
      "midi": 72,
      "hit": false,
      "t": 19130.408000000018,
      "d": 280.7967083333351,
      "v": 125
    },
    {
      "midi": 73,
      "hit": false,
      "t": 19311.567166666675,
      "d": 280.7967083333351,
      "v": 120
    },
    {
      "midi": 36,
      "hit": false,
      "t": 19420.262666666687,
      "d": 280.7967083333351,
      "v": 125
    },
    {
      "midi": 64,
      "hit": false,
      "t": 19420.262666666687,
      "d": 280.7967083333351,
      "v": 125
    },
    {
      "midi": 67,
      "hit": false,
      "t": 19420.262666666687,
      "d": 280.7967083333351,
      "v": 125
    },
    {
      "midi": 72,
      "hit": false,
      "t": 19420.262666666687,
      "d": 280.7967083333351,
      "v": 125
    },
    {
      "midi": 72,
      "hit": false,
      "t": 19710.117333333343,
      "d": 579.7093333333323,
      "v": 120
    },
    {
      "midi": 77,
      "hit": false,
      "t": 19710.117333333343,
      "d": 579.7093333333323,
      "v": 120
    },
    {
      "midi": 36,
      "hit": false,
      "t": 19710.117333333357,
      "d": 280.7967083333351,
      "v": 125
    },
    {
      "midi": 64,
      "hit": false,
      "t": 19710.117333333357,
      "d": 280.7967083333351,
      "v": 125
    },
    {
      "midi": 67,
      "hit": false,
      "t": 19710.117333333357,
      "d": 280.7967083333351,
      "v": 125
    },
    {
      "midi": 72,
      "hit": false,
      "t": 19710.117333333357,
      "d": 280.7967083333351,
      "v": 125
    },
    {
      "midi": 36,
      "hit": false,
      "t": 19999.972000000027,
      "d": 280.7967083333351,
      "v": 125
    },
    {
      "midi": 64,
      "hit": false,
      "t": 19999.972000000027,
      "d": 280.7967083333351,
      "v": 125
    },
    {
      "midi": 67,
      "hit": false,
      "t": 19999.972000000027,
      "d": 280.7967083333351,
      "v": 125
    },
    {
      "midi": 72,
      "hit": false,
      "t": 19999.972000000027,
      "d": 280.7967083333351,
      "v": 125
    },
    {
      "midi": 70,
      "hit": false,
      "t": 20289.826666666675,
      "d": 579.7093333333323,
      "v": 120
    },
    {
      "midi": 36,
      "hit": false,
      "t": 20289.826666666697,
      "d": 280.7967083333351,
      "v": 125
    },
    {
      "midi": 64,
      "hit": false,
      "t": 20289.826666666697,
      "d": 280.7967083333351,
      "v": 125
    },
    {
      "midi": 67,
      "hit": false,
      "t": 20289.826666666697,
      "d": 280.7967083333351,
      "v": 125
    },
    {
      "midi": 72,
      "hit": false,
      "t": 20289.826666666697,
      "d": 280.7967083333351,
      "v": 125
    },
    {
      "midi": 36,
      "hit": false,
      "t": 20579.681333333367,
      "d": 280.7967083333351,
      "v": 125
    },
    {
      "midi": 64,
      "hit": false,
      "t": 20579.681333333367,
      "d": 280.7967083333351,
      "v": 125
    },
    {
      "midi": 67,
      "hit": false,
      "t": 20579.681333333367,
      "d": 280.7967083333351,
      "v": 125
    },
    {
      "midi": 72,
      "hit": false,
      "t": 20579.681333333367,
      "d": 280.7967083333351,
      "v": 125
    },
    {
      "midi": 72,
      "hit": false,
      "t": 20869.536000000007,
      "d": 869.5639999999985,
      "v": 120
    },
    {
      "midi": 77,
      "hit": false,
      "t": 20869.536000000007,
      "d": 869.5639999999985,
      "v": 120
    },
    {
      "midi": 41,
      "hit": false,
      "t": 20869.536000000036,
      "d": 280.7967083333351,
      "v": 125
    },
    {
      "midi": 65,
      "hit": false,
      "t": 20869.536000000036,
      "d": 280.7967083333351,
      "v": 125
    },
    {
      "midi": 69,
      "hit": false,
      "t": 20869.536000000036,
      "d": 280.7967083333351,
      "v": 125
    },
    {
      "midi": 72,
      "hit": false,
      "t": 20869.536000000036,
      "d": 280.7967083333351,
      "v": 125
    },
    {
      "midi": 41,
      "hit": false,
      "t": 21159.390666666706,
      "d": 280.7967083333351,
      "v": 125
    },
    {
      "midi": 65,
      "hit": false,
      "t": 21159.390666666706,
      "d": 280.7967083333351,
      "v": 125
    },
    {
      "midi": 69,
      "hit": false,
      "t": 21159.390666666706,
      "d": 280.7967083333351,
      "v": 125
    },
    {
      "midi": 72,
      "hit": false,
      "t": 21159.390666666706,
      "d": 280.7967083333351,
      "v": 125
    },
    {
      "midi": 41,
      "hit": false,
      "t": 21449.245333333376,
      "d": 280.7967083333351,
      "v": 125
    },
    {
      "midi": 65,
      "hit": false,
      "t": 21449.245333333376,
      "d": 280.7967083333351,
      "v": 125
    },
    {
      "midi": 69,
      "hit": false,
      "t": 21449.245333333376,
      "d": 280.7967083333351,
      "v": 125
    },
    {
      "midi": 72,
      "hit": false,
      "t": 21449.245333333376,
      "d": 280.7967083333351,
      "v": 125
    },
    {
      "midi": 69,
      "hit": false,
      "t": 21739.100000000006,
      "d": 208.33304166666858,
      "v": 120
    },
    {
      "midi": 77,
      "hit": false,
      "t": 21739.100000000006,
      "d": 208.33304166666858,
      "v": 120
    },
    {
      "midi": 41,
      "hit": false,
      "t": 21739.100000000046,
      "d": 280.7967083333351,
      "v": 125
    },
    {
      "midi": 65,
      "hit": false,
      "t": 21739.100000000046,
      "d": 280.7967083333351,
      "v": 125
    },
    {
      "midi": 69,
      "hit": false,
      "t": 21739.100000000046,
      "d": 280.7967083333351,
      "v": 125
    },
    {
      "midi": 72,
      "hit": false,
      "t": 21739.100000000046,
      "d": 280.7967083333351,
      "v": 125
    },
    {
      "midi": 72,
      "hit": false,
      "t": 21956.49100000001,
      "d": 208.33304166666494,
      "v": 120
    },
    {
      "midi": 77,
      "hit": false,
      "t": 21956.49100000001,
      "d": 208.33304166666494,
      "v": 120
    },
    {
      "midi": 41,
      "hit": false,
      "t": 22028.954666666716,
      "d": 280.7967083333351,
      "v": 125
    },
    {
      "midi": 65,
      "hit": false,
      "t": 22028.954666666716,
      "d": 280.7967083333351,
      "v": 125
    },
    {
      "midi": 69,
      "hit": false,
      "t": 22028.954666666716,
      "d": 280.7967083333351,
      "v": 125
    },
    {
      "midi": 72,
      "hit": false,
      "t": 22028.954666666716,
      "d": 280.7967083333351,
      "v": 125
    },
    {
      "midi": 72,
      "hit": false,
      "t": 22173.88200000001,
      "d": 208.33304166666494,
      "v": 120
    },
    {
      "midi": 69,
      "hit": false,
      "t": 22173.88200000001,
      "d": 217.39099999999962,
      "v": 120
    },
    {
      "midi": 41,
      "hit": false,
      "t": 22318.809333333385,
      "d": 280.7967083333351,
      "v": 125
    },
    {
      "midi": 65,
      "hit": false,
      "t": 22318.809333333385,
      "d": 280.7967083333351,
      "v": 125
    },
    {
      "midi": 69,
      "hit": false,
      "t": 22318.809333333385,
      "d": 280.7967083333351,
      "v": 125
    },
    {
      "midi": 72,
      "hit": false,
      "t": 22318.809333333385,
      "d": 280.7967083333351,
      "v": 125
    },
    {
      "midi": 65,
      "hit": false,
      "t": 22391.27300000001,
      "d": 208.33304166666494,
      "v": 120
    },
    {
      "midi": 72,
      "hit": false,
      "t": 22391.27300000001,
      "d": 208.33304166666494,
      "v": 120
    },
    {
      "midi": 62,
      "hit": false,
      "t": 22608.664000000008,
      "d": 652.1729999999989,
      "v": 120
    },
    {
      "midi": 65,
      "hit": false,
      "t": 22608.664000000008,
      "d": 652.1729999999989,
      "v": 120
    },
    {
      "midi": 38,
      "hit": false,
      "t": 22608.664000000055,
      "d": 280.7967083333351,
      "v": 125
    },
    {
      "midi": 65,
      "hit": false,
      "t": 22608.664000000055,
      "d": 280.7967083333351,
      "v": 125
    },
    {
      "midi": 69,
      "hit": false,
      "t": 22608.664000000055,
      "d": 280.7967083333351,
      "v": 125
    },
    {
      "midi": 74,
      "hit": false,
      "t": 22608.664000000055,
      "d": 280.7967083333351,
      "v": 125
    },
    {
      "midi": 38,
      "hit": false,
      "t": 22898.518666666725,
      "d": 280.7967083333351,
      "v": 125
    },
    {
      "midi": 65,
      "hit": false,
      "t": 22898.518666666725,
      "d": 280.7967083333351,
      "v": 125
    },
    {
      "midi": 69,
      "hit": false,
      "t": 22898.518666666725,
      "d": 280.7967083333351,
      "v": 125
    },
    {
      "midi": 74,
      "hit": false,
      "t": 22898.518666666725,
      "d": 280.7967083333351,
      "v": 125
    },
    {
      "midi": 38,
      "hit": false,
      "t": 23188.373333333395,
      "d": 280.7967083333351,
      "v": 125
    },
    {
      "midi": 65,
      "hit": false,
      "t": 23188.373333333395,
      "d": 280.7967083333351,
      "v": 125
    },
    {
      "midi": 69,
      "hit": false,
      "t": 23188.373333333395,
      "d": 280.7967083333351,
      "v": 125
    },
    {
      "midi": 74,
      "hit": false,
      "t": 23188.373333333395,
      "d": 280.7967083333351,
      "v": 125
    },
    {
      "midi": 38,
      "hit": false,
      "t": 23478.228000000065,
      "d": 280.7967083333351,
      "v": 125
    },
    {
      "midi": 65,
      "hit": false,
      "t": 23478.228000000065,
      "d": 280.7967083333351,
      "v": 125
    },
    {
      "midi": 69,
      "hit": false,
      "t": 23478.228000000065,
      "d": 280.7967083333351,
      "v": 125
    },
    {
      "midi": 74,
      "hit": false,
      "t": 23478.228000000065,
      "d": 280.7967083333351,
      "v": 125
    },
    {
      "midi": 38,
      "hit": false,
      "t": 23768.082666666734,
      "d": 280.7967083333351,
      "v": 125
    },
    {
      "midi": 65,
      "hit": false,
      "t": 23768.082666666734,
      "d": 280.7967083333351,
      "v": 125
    },
    {
      "midi": 69,
      "hit": false,
      "t": 23768.082666666734,
      "d": 280.7967083333351,
      "v": 125
    },
    {
      "midi": 74,
      "hit": false,
      "t": 23768.082666666734,
      "d": 280.7967083333351,
      "v": 125
    },
    {
      "midi": 38,
      "hit": false,
      "t": 24057.937333333404,
      "d": 280.7967083333351,
      "v": 125
    },
    {
      "midi": 65,
      "hit": false,
      "t": 24057.937333333404,
      "d": 280.7967083333351,
      "v": 125
    },
    {
      "midi": 69,
      "hit": false,
      "t": 24057.937333333404,
      "d": 280.7967083333351,
      "v": 125
    },
    {
      "midi": 74,
      "hit": false,
      "t": 24057.937333333404,
      "d": 280.7967083333351,
      "v": 125
    },
    {
      "midi": 34,
      "hit": false,
      "t": 24347.792000000074,
      "d": 280.7967083333351,
      "v": 125
    },
    {
      "midi": 65,
      "hit": false,
      "t": 24347.792000000074,
      "d": 280.7967083333351,
      "v": 125
    },
    {
      "midi": 70,
      "hit": false,
      "t": 24347.792000000074,
      "d": 280.7967083333351,
      "v": 125
    },
    {
      "midi": 73,
      "hit": false,
      "t": 24347.792000000074,
      "d": 280.7967083333351,
      "v": 125
    },
    {
      "midi": 34,
      "hit": false,
      "t": 24637.646666666744,
      "d": 280.7967083333351,
      "v": 125
    },
    {
      "midi": 65,
      "hit": false,
      "t": 24637.646666666744,
      "d": 280.7967083333351,
      "v": 125
    },
    {
      "midi": 70,
      "hit": false,
      "t": 24637.646666666744,
      "d": 280.7967083333351,
      "v": 125
    },
    {
      "midi": 73,
      "hit": false,
      "t": 24637.646666666744,
      "d": 280.7967083333351,
      "v": 125
    },
    {
      "midi": 34,
      "hit": false,
      "t": 24927.501333333414,
      "d": 280.7967083333351,
      "v": 125
    },
    {
      "midi": 65,
      "hit": false,
      "t": 24927.501333333414,
      "d": 280.7967083333351,
      "v": 125
    },
    {
      "midi": 70,
      "hit": false,
      "t": 24927.501333333414,
      "d": 280.7967083333351,
      "v": 125
    },
    {
      "midi": 73,
      "hit": false,
      "t": 24927.501333333414,
      "d": 280.7967083333351,
      "v": 125
    },
    {
      "midi": 34,
      "hit": false,
      "t": 25217.356000000083,
      "d": 280.7967083333351,
      "v": 125
    },
    {
      "midi": 65,
      "hit": false,
      "t": 25217.356000000083,
      "d": 280.7967083333351,
      "v": 125
    },
    {
      "midi": 70,
      "hit": false,
      "t": 25217.356000000083,
      "d": 280.7967083333351,
      "v": 125
    },
    {
      "midi": 73,
      "hit": false,
      "t": 25217.356000000083,
      "d": 280.7967083333351,
      "v": 125
    },
    {
      "midi": 65,
      "hit": false,
      "t": 25507.210666666673,
      "d": 280.7967083333351,
      "v": 120
    },
    {
      "midi": 70,
      "hit": false,
      "t": 25507.210666666673,
      "d": 280.7967083333351,
      "v": 120
    },
    {
      "midi": 34,
      "hit": false,
      "t": 25507.210666666753,
      "d": 280.7967083333351,
      "v": 125
    },
    {
      "midi": 65,
      "hit": false,
      "t": 25507.210666666753,
      "d": 280.7967083333351,
      "v": 125
    },
    {
      "midi": 70,
      "hit": false,
      "t": 25507.210666666753,
      "d": 280.7967083333351,
      "v": 125
    },
    {
      "midi": 73,
      "hit": false,
      "t": 25507.210666666753,
      "d": 280.7967083333351,
      "v": 125
    },
    {
      "midi": 65,
      "hit": false,
      "t": 25797.065333333343,
      "d": 280.7967083333351,
      "v": 120
    },
    {
      "midi": 70,
      "hit": false,
      "t": 25797.065333333343,
      "d": 280.7967083333351,
      "v": 120
    },
    {
      "midi": 34,
      "hit": false,
      "t": 25797.065333333423,
      "d": 280.7967083333351,
      "v": 125
    },
    {
      "midi": 65,
      "hit": false,
      "t": 25797.065333333423,
      "d": 280.7967083333351,
      "v": 125
    },
    {
      "midi": 70,
      "hit": false,
      "t": 25797.065333333423,
      "d": 280.7967083333351,
      "v": 125
    },
    {
      "midi": 73,
      "hit": false,
      "t": 25797.065333333423,
      "d": 280.7967083333351,
      "v": 125
    },
    {
      "midi": 67,
      "hit": false,
      "t": 26086.920000000013,
      "d": 570.6513750000013,
      "v": 120
    },
    {
      "midi": 72,
      "hit": false,
      "t": 26086.920000000013,
      "d": 570.6513750000013,
      "v": 120
    },
    {
      "midi": 36,
      "hit": false,
      "t": 26086.920000000093,
      "d": 280.7967083333351,
      "v": 125
    },
    {
      "midi": 64,
      "hit": false,
      "t": 26086.920000000093,
      "d": 280.7967083333351,
      "v": 125
    },
    {
      "midi": 67,
      "hit": false,
      "t": 26086.920000000093,
      "d": 280.7967083333351,
      "v": 125
    },
    {
      "midi": 72,
      "hit": false,
      "t": 26086.920000000093,
      "d": 280.7967083333351,
      "v": 125
    },
    {
      "midi": 69,
      "hit": false,
      "t": 26268.07916666668,
      "d": 398.5501666666678,
      "v": 120
    },
    {
      "midi": 36,
      "hit": false,
      "t": 26376.774666666763,
      "d": 280.7967083333351,
      "v": 125
    },
    {
      "midi": 64,
      "hit": false,
      "t": 26376.774666666763,
      "d": 280.7967083333351,
      "v": 125
    },
    {
      "midi": 67,
      "hit": false,
      "t": 26376.774666666763,
      "d": 280.7967083333351,
      "v": 125
    },
    {
      "midi": 72,
      "hit": false,
      "t": 26376.774666666763,
      "d": 280.7967083333351,
      "v": 125
    },
    {
      "midi": 67,
      "hit": false,
      "t": 26666.62933333335,
      "d": 570.6513750000013,
      "v": 120
    },
    {
      "midi": 72,
      "hit": false,
      "t": 26666.62933333335,
      "d": 570.6513750000013,
      "v": 120
    },
    {
      "midi": 36,
      "hit": false,
      "t": 26666.629333333432,
      "d": 280.7967083333351,
      "v": 125
    },
    {
      "midi": 64,
      "hit": false,
      "t": 26666.629333333432,
      "d": 280.7967083333351,
      "v": 125
    },
    {
      "midi": 67,
      "hit": false,
      "t": 26666.629333333432,
      "d": 280.7967083333351,
      "v": 125
    },
    {
      "midi": 72,
      "hit": false,
      "t": 26666.629333333432,
      "d": 280.7967083333351,
      "v": 125
    },
    {
      "midi": 69,
      "hit": false,
      "t": 26847.788500000017,
      "d": 389.4922083333331,
      "v": 120
    },
    {
      "midi": 36,
      "hit": false,
      "t": 26956.484000000102,
      "d": 280.7967083333351,
      "v": 125
    },
    {
      "midi": 64,
      "hit": false,
      "t": 26956.484000000102,
      "d": 280.7967083333351,
      "v": 125
    },
    {
      "midi": 67,
      "hit": false,
      "t": 26956.484000000102,
      "d": 280.7967083333351,
      "v": 125
    },
    {
      "midi": 72,
      "hit": false,
      "t": 26956.484000000102,
      "d": 280.7967083333351,
      "v": 125
    },
    {
      "midi": 68,
      "hit": false,
      "t": 27246.338666666685,
      "d": 570.6513750000013,
      "v": 120
    },
    {
      "midi": 72,
      "hit": false,
      "t": 27246.338666666685,
      "d": 570.6513750000013,
      "v": 120
    },
    {
      "midi": 36,
      "hit": false,
      "t": 27246.338666666772,
      "d": 280.7967083333351,
      "v": 125
    },
    {
      "midi": 64,
      "hit": false,
      "t": 27246.338666666772,
      "d": 280.7967083333351,
      "v": 125
    },
    {
      "midi": 67,
      "hit": false,
      "t": 27246.338666666772,
      "d": 280.7967083333351,
      "v": 125
    },
    {
      "midi": 72,
      "hit": false,
      "t": 27246.338666666772,
      "d": 280.7967083333351,
      "v": 125
    },
    {
      "midi": 36,
      "hit": false,
      "t": 27536.193333333442,
      "d": 280.7967083333351,
      "v": 125
    },
    {
      "midi": 64,
      "hit": false,
      "t": 27536.193333333442,
      "d": 280.7967083333351,
      "v": 125
    },
    {
      "midi": 67,
      "hit": false,
      "t": 27536.193333333442,
      "d": 280.7967083333351,
      "v": 125
    },
    {
      "midi": 72,
      "hit": false,
      "t": 27536.193333333442,
      "d": 280.7967083333351,
      "v": 125
    },
    {
      "midi": 67,
      "hit": false,
      "t": 27826.04800000002,
      "d": 181.15916666666817,
      "v": 120
    },
    {
      "midi": 72,
      "hit": false,
      "t": 27826.04800000002,
      "d": 3478.256000000005,
      "v": 120
    },
    {
      "midi": 41,
      "hit": false,
      "t": 27826.04800000011,
      "d": 280.7967083333351,
      "v": 125
    },
    {
      "midi": 65,
      "hit": false,
      "t": 27826.04800000011,
      "d": 280.7967083333351,
      "v": 125
    },
    {
      "midi": 69,
      "hit": false,
      "t": 27826.04800000011,
      "d": 280.7967083333351,
      "v": 125
    },
    {
      "midi": 72,
      "hit": false,
      "t": 27826.04800000011,
      "d": 280.7967083333351,
      "v": 125
    },
    {
      "midi": 69,
      "hit": false,
      "t": 28007.20716666669,
      "d": 3188.401333333335,
      "v": 120
    },
    {
      "midi": 41,
      "hit": false,
      "t": 28115.90266666678,
      "d": 280.7967083333351,
      "v": 125
    },
    {
      "midi": 65,
      "hit": false,
      "t": 28115.90266666678,
      "d": 280.7967083333351,
      "v": 125
    },
    {
      "midi": 69,
      "hit": false,
      "t": 28115.90266666678,
      "d": 280.7967083333351,
      "v": 125
    },
    {
      "midi": 72,
      "hit": false,
      "t": 28115.90266666678,
      "d": 280.7967083333351,
      "v": 125
    },
    {
      "midi": 41,
      "hit": false,
      "t": 28405.75733333345,
      "d": 280.7967083333351,
      "v": 125
    },
    {
      "midi": 65,
      "hit": false,
      "t": 28405.75733333345,
      "d": 280.7967083333351,
      "v": 125
    },
    {
      "midi": 69,
      "hit": false,
      "t": 28405.75733333345,
      "d": 280.7967083333351,
      "v": 125
    },
    {
      "midi": 72,
      "hit": false,
      "t": 28405.75733333345,
      "d": 280.7967083333351,
      "v": 125
    },
    {
      "midi": 41,
      "hit": false,
      "t": 28695.61200000012,
      "d": 280.7967083333351,
      "v": 125
    },
    {
      "midi": 65,
      "hit": false,
      "t": 28695.61200000012,
      "d": 280.7967083333351,
      "v": 125
    },
    {
      "midi": 69,
      "hit": false,
      "t": 28695.61200000012,
      "d": 280.7967083333351,
      "v": 125
    },
    {
      "midi": 72,
      "hit": false,
      "t": 28695.61200000012,
      "d": 280.7967083333351,
      "v": 125
    },
    {
      "midi": 41,
      "hit": false,
      "t": 28985.46666666679,
      "d": 280.7967083333351,
      "v": 125
    },
    {
      "midi": 65,
      "hit": false,
      "t": 28985.46666666679,
      "d": 280.7967083333351,
      "v": 125
    },
    {
      "midi": 69,
      "hit": false,
      "t": 28985.46666666679,
      "d": 280.7967083333351,
      "v": 125
    },
    {
      "midi": 72,
      "hit": false,
      "t": 28985.46666666679,
      "d": 280.7967083333351,
      "v": 125
    },
    {
      "midi": 41,
      "hit": false,
      "t": 29275.32133333346,
      "d": 280.7967083333351,
      "v": 125
    },
    {
      "midi": 65,
      "hit": false,
      "t": 29275.32133333346,
      "d": 280.7967083333351,
      "v": 125
    },
    {
      "midi": 69,
      "hit": false,
      "t": 29275.32133333346,
      "d": 280.7967083333351,
      "v": 125
    },
    {
      "midi": 72,
      "hit": false,
      "t": 29275.32133333346,
      "d": 280.7967083333351,
      "v": 125
    },
    {
      "midi": 38,
      "hit": false,
      "t": 29565.17600000013,
      "d": 280.7967083333351,
      "v": 125
    },
    {
      "midi": 65,
      "hit": false,
      "t": 29565.17600000013,
      "d": 280.7967083333351,
      "v": 125
    },
    {
      "midi": 69,
      "hit": false,
      "t": 29565.17600000013,
      "d": 280.7967083333351,
      "v": 125
    },
    {
      "midi": 74,
      "hit": false,
      "t": 29565.17600000013,
      "d": 280.7967083333351,
      "v": 125
    },
    {
      "midi": 38,
      "hit": false,
      "t": 29855.0306666668,
      "d": 280.7967083333351,
      "v": 125
    },
    {
      "midi": 65,
      "hit": false,
      "t": 29855.0306666668,
      "d": 280.7967083333351,
      "v": 125
    },
    {
      "midi": 69,
      "hit": false,
      "t": 29855.0306666668,
      "d": 280.7967083333351,
      "v": 125
    },
    {
      "midi": 74,
      "hit": false,
      "t": 29855.0306666668,
      "d": 280.7967083333351,
      "v": 125
    },
    {
      "midi": 38,
      "hit": false,
      "t": 30144.88533333347,
      "d": 280.7967083333351,
      "v": 125
    },
    {
      "midi": 65,
      "hit": false,
      "t": 30144.88533333347,
      "d": 280.7967083333351,
      "v": 125
    },
    {
      "midi": 69,
      "hit": false,
      "t": 30144.88533333347,
      "d": 280.7967083333351,
      "v": 125
    },
    {
      "midi": 74,
      "hit": false,
      "t": 30144.88533333347,
      "d": 280.7967083333351,
      "v": 125
    },
    {
      "midi": 38,
      "hit": false,
      "t": 30434.74000000014,
      "d": 280.7967083333351,
      "v": 125
    },
    {
      "midi": 65,
      "hit": false,
      "t": 30434.74000000014,
      "d": 280.7967083333351,
      "v": 125
    },
    {
      "midi": 69,
      "hit": false,
      "t": 30434.74000000014,
      "d": 280.7967083333351,
      "v": 125
    },
    {
      "midi": 74,
      "hit": false,
      "t": 30434.74000000014,
      "d": 280.7967083333351,
      "v": 125
    },
    {
      "midi": 38,
      "hit": false,
      "t": 30724.59466666681,
      "d": 280.7967083333351,
      "v": 125
    },
    {
      "midi": 65,
      "hit": false,
      "t": 30724.59466666681,
      "d": 280.7967083333351,
      "v": 125
    },
    {
      "midi": 69,
      "hit": false,
      "t": 30724.59466666681,
      "d": 280.7967083333351,
      "v": 125
    },
    {
      "midi": 74,
      "hit": false,
      "t": 30724.59466666681,
      "d": 280.7967083333351,
      "v": 125
    },
    {
      "midi": 38,
      "hit": false,
      "t": 31014.44933333348,
      "d": 280.7967083333351,
      "v": 125
    },
    {
      "midi": 65,
      "hit": false,
      "t": 31014.44933333348,
      "d": 280.7967083333351,
      "v": 125
    },
    {
      "midi": 69,
      "hit": false,
      "t": 31014.44933333348,
      "d": 280.7967083333351,
      "v": 125
    },
    {
      "midi": 74,
      "hit": false,
      "t": 31014.44933333348,
      "d": 280.7967083333351,
      "v": 125
    },
    {
      "midi": 34,
      "hit": false,
      "t": 31304.30400000015,
      "d": 280.7967083333351,
      "v": 125
    },
    {
      "midi": 65,
      "hit": false,
      "t": 31304.30400000015,
      "d": 280.7967083333351,
      "v": 125
    },
    {
      "midi": 70,
      "hit": false,
      "t": 31304.30400000015,
      "d": 280.7967083333351,
      "v": 125
    },
    {
      "midi": 73,
      "hit": false,
      "t": 31304.30400000015,
      "d": 280.7967083333351,
      "v": 125
    },
    {
      "midi": 34,
      "hit": false,
      "t": 31594.15866666682,
      "d": 280.7967083333351,
      "v": 125
    },
    {
      "midi": 65,
      "hit": false,
      "t": 31594.15866666682,
      "d": 280.7967083333351,
      "v": 125
    },
    {
      "midi": 70,
      "hit": false,
      "t": 31594.15866666682,
      "d": 280.7967083333351,
      "v": 125
    },
    {
      "midi": 73,
      "hit": false,
      "t": 31594.15866666682,
      "d": 280.7967083333351,
      "v": 125
    },
    {
      "midi": 34,
      "hit": false,
      "t": 31884.01333333349,
      "d": 280.7967083333351,
      "v": 125
    },
    {
      "midi": 65,
      "hit": false,
      "t": 31884.01333333349,
      "d": 280.7967083333351,
      "v": 125
    },
    {
      "midi": 70,
      "hit": false,
      "t": 31884.01333333349,
      "d": 280.7967083333351,
      "v": 125
    },
    {
      "midi": 73,
      "hit": false,
      "t": 31884.01333333349,
      "d": 280.7967083333351,
      "v": 125
    },
    {
      "midi": 34,
      "hit": false,
      "t": 32173.86800000016,
      "d": 280.7967083333351,
      "v": 125
    },
    {
      "midi": 65,
      "hit": false,
      "t": 32173.86800000016,
      "d": 280.7967083333351,
      "v": 125
    },
    {
      "midi": 70,
      "hit": false,
      "t": 32173.86800000016,
      "d": 280.7967083333351,
      "v": 125
    },
    {
      "midi": 73,
      "hit": false,
      "t": 32173.86800000016,
      "d": 280.7967083333351,
      "v": 125
    },
    {
      "midi": 34,
      "hit": false,
      "t": 32463.72266666683,
      "d": 280.7967083333351,
      "v": 125
    },
    {
      "midi": 65,
      "hit": false,
      "t": 32463.72266666683,
      "d": 280.7967083333351,
      "v": 125
    },
    {
      "midi": 70,
      "hit": false,
      "t": 32463.72266666683,
      "d": 280.7967083333351,
      "v": 125
    },
    {
      "midi": 73,
      "hit": false,
      "t": 32463.72266666683,
      "d": 280.7967083333351,
      "v": 125
    },
    {
      "midi": 34,
      "hit": false,
      "t": 32753.5773333335,
      "d": 280.7967083333315,
      "v": 125
    },
    {
      "midi": 65,
      "hit": false,
      "t": 32753.5773333335,
      "d": 280.7967083333315,
      "v": 125
    },
    {
      "midi": 70,
      "hit": false,
      "t": 32753.5773333335,
      "d": 280.7967083333315,
      "v": 125
    },
    {
      "midi": 73,
      "hit": false,
      "t": 32753.5773333335,
      "d": 280.7967083333315,
      "v": 125
    },
    {
      "midi": 36,
      "hit": false,
      "t": 33043.43200000016,
      "d": 280.7967083333351,
      "v": 125
    },
    {
      "midi": 64,
      "hit": false,
      "t": 33043.43200000016,
      "d": 280.7967083333351,
      "v": 125
    },
    {
      "midi": 67,
      "hit": false,
      "t": 33043.43200000016,
      "d": 280.7967083333351,
      "v": 125
    },
    {
      "midi": 72,
      "hit": false,
      "t": 33043.43200000016,
      "d": 280.7967083333351,
      "v": 125
    },
    {
      "midi": 36,
      "hit": false,
      "t": 33333.28666666683,
      "d": 280.7967083333351,
      "v": 125
    },
    {
      "midi": 64,
      "hit": false,
      "t": 33333.28666666683,
      "d": 280.7967083333351,
      "v": 125
    },
    {
      "midi": 67,
      "hit": false,
      "t": 33333.28666666683,
      "d": 280.7967083333351,
      "v": 125
    },
    {
      "midi": 72,
      "hit": false,
      "t": 33333.28666666683,
      "d": 280.7967083333351,
      "v": 125
    },
    {
      "midi": 36,
      "hit": false,
      "t": 33623.14133333349,
      "d": 280.7967083333351,
      "v": 125
    },
    {
      "midi": 64,
      "hit": false,
      "t": 33623.14133333349,
      "d": 280.7967083333351,
      "v": 125
    },
    {
      "midi": 67,
      "hit": false,
      "t": 33623.14133333349,
      "d": 280.7967083333351,
      "v": 125
    },
    {
      "midi": 72,
      "hit": false,
      "t": 33623.14133333349,
      "d": 280.7967083333351,
      "v": 125
    },
    {
      "midi": 36,
      "hit": false,
      "t": 33912.99600000016,
      "d": 280.7967083333351,
      "v": 125
    },
    {
      "midi": 64,
      "hit": false,
      "t": 33912.99600000016,
      "d": 280.7967083333351,
      "v": 125
    },
    {
      "midi": 67,
      "hit": false,
      "t": 33912.99600000016,
      "d": 280.7967083333351,
      "v": 125
    },
    {
      "midi": 72,
      "hit": false,
      "t": 33912.99600000016,
      "d": 280.7967083333351,
      "v": 125
    },
    {
      "midi": 36,
      "hit": false,
      "t": 34202.850666666825,
      "d": 280.7967083333351,
      "v": 125
    },
    {
      "midi": 64,
      "hit": false,
      "t": 34202.850666666825,
      "d": 280.7967083333351,
      "v": 125
    },
    {
      "midi": 67,
      "hit": false,
      "t": 34202.850666666825,
      "d": 280.7967083333351,
      "v": 125
    },
    {
      "midi": 72,
      "hit": false,
      "t": 34202.850666666825,
      "d": 280.7967083333351,
      "v": 125
    },
    {
      "midi": 36,
      "hit": false,
      "t": 34492.70533333349,
      "d": 280.7967083333351,
      "v": 125
    },
    {
      "midi": 64,
      "hit": false,
      "t": 34492.70533333349,
      "d": 280.7967083333351,
      "v": 125
    },
    {
      "midi": 67,
      "hit": false,
      "t": 34492.70533333349,
      "d": 280.7967083333351,
      "v": 125
    },
    {
      "midi": 72,
      "hit": false,
      "t": 34492.70533333349,
      "d": 280.7967083333351,
      "v": 125
    },
    {
      "midi": 76,
      "hit": false,
      "t": 34782.56000000003,
      "d": 181.15916666666453,
      "v": 121
    },
    {
      "midi": 81,
      "hit": false,
      "t": 34782.56000000003,
      "d": 1449.2733333333308,
      "v": 121
    },
    {
      "midi": 41,
      "hit": false,
      "t": 34782.56000000016,
      "d": 280.7967083333351,
      "v": 125
    },
    {
      "midi": 65,
      "hit": false,
      "t": 34782.56000000016,
      "d": 280.7967083333351,
      "v": 125
    },
    {
      "midi": 69,
      "hit": false,
      "t": 34782.56000000016,
      "d": 280.7967083333351,
      "v": 125
    },
    {
      "midi": 72,
      "hit": false,
      "t": 34782.56000000016,
      "d": 280.7967083333351,
      "v": 125
    },
    {
      "midi": 77,
      "hit": false,
      "t": 34963.71916666669,
      "d": 1159.4186666666646,
      "v": 121
    },
    {
      "midi": 41,
      "hit": false,
      "t": 35072.414666666824,
      "d": 280.7967083333351,
      "v": 125
    },
    {
      "midi": 65,
      "hit": false,
      "t": 35072.414666666824,
      "d": 280.7967083333351,
      "v": 125
    },
    {
      "midi": 69,
      "hit": false,
      "t": 35072.414666666824,
      "d": 280.7967083333351,
      "v": 125
    },
    {
      "midi": 72,
      "hit": false,
      "t": 35072.414666666824,
      "d": 280.7967083333351,
      "v": 125
    },
    {
      "midi": 41,
      "hit": false,
      "t": 35362.26933333349,
      "d": 280.7967083333351,
      "v": 125
    },
    {
      "midi": 65,
      "hit": false,
      "t": 35362.26933333349,
      "d": 280.7967083333351,
      "v": 125
    },
    {
      "midi": 69,
      "hit": false,
      "t": 35362.26933333349,
      "d": 280.7967083333351,
      "v": 125
    },
    {
      "midi": 72,
      "hit": false,
      "t": 35362.26933333349,
      "d": 280.7967083333351,
      "v": 125
    },
    {
      "midi": 41,
      "hit": false,
      "t": 35652.124000000156,
      "d": 280.7967083333351,
      "v": 125
    },
    {
      "midi": 65,
      "hit": false,
      "t": 35652.124000000156,
      "d": 280.7967083333351,
      "v": 125
    },
    {
      "midi": 69,
      "hit": false,
      "t": 35652.124000000156,
      "d": 280.7967083333351,
      "v": 125
    },
    {
      "midi": 72,
      "hit": false,
      "t": 35652.124000000156,
      "d": 280.7967083333351,
      "v": 125
    },
    {
      "midi": 41,
      "hit": false,
      "t": 35941.97866666682,
      "d": 280.7967083333351,
      "v": 125
    },
    {
      "midi": 65,
      "hit": false,
      "t": 35941.97866666682,
      "d": 280.7967083333351,
      "v": 125
    },
    {
      "midi": 69,
      "hit": false,
      "t": 35941.97866666682,
      "d": 280.7967083333351,
      "v": 125
    },
    {
      "midi": 72,
      "hit": false,
      "t": 35941.97866666682,
      "d": 280.7967083333351,
      "v": 125
    },
    {
      "midi": 41,
      "hit": false,
      "t": 36231.83333333349,
      "d": 280.7967083333351,
      "v": 125
    },
    {
      "midi": 65,
      "hit": false,
      "t": 36231.83333333349,
      "d": 280.7967083333351,
      "v": 125
    },
    {
      "midi": 69,
      "hit": false,
      "t": 36231.83333333349,
      "d": 280.7967083333351,
      "v": 125
    },
    {
      "midi": 72,
      "hit": false,
      "t": 36231.83333333349,
      "d": 280.7967083333351,
      "v": 125
    },
    {
      "midi": 72,
      "hit": false,
      "t": 36521.688000000024,
      "d": 1449.273333333338,
      "v": 121
    },
    {
      "midi": 77,
      "hit": false,
      "t": 36521.688000000024,
      "d": 1739.1280000000042,
      "v": 121
    },
    {
      "midi": 38,
      "hit": false,
      "t": 36521.688000000155,
      "d": 280.7967083333351,
      "v": 125
    },
    {
      "midi": 65,
      "hit": false,
      "t": 36521.688000000155,
      "d": 280.7967083333351,
      "v": 125
    },
    {
      "midi": 69,
      "hit": false,
      "t": 36521.688000000155,
      "d": 280.7967083333351,
      "v": 125
    },
    {
      "midi": 74,
      "hit": false,
      "t": 36521.688000000155,
      "d": 280.7967083333351,
      "v": 125
    },
    {
      "midi": 38,
      "hit": false,
      "t": 36811.54266666682,
      "d": 280.7967083333351,
      "v": 125
    },
    {
      "midi": 65,
      "hit": false,
      "t": 36811.54266666682,
      "d": 280.7967083333351,
      "v": 125
    },
    {
      "midi": 69,
      "hit": false,
      "t": 36811.54266666682,
      "d": 280.7967083333351,
      "v": 125
    },
    {
      "midi": 74,
      "hit": false,
      "t": 36811.54266666682,
      "d": 280.7967083333351,
      "v": 125
    },
    {
      "midi": 38,
      "hit": false,
      "t": 37101.39733333349,
      "d": 280.7967083333351,
      "v": 125
    },
    {
      "midi": 65,
      "hit": false,
      "t": 37101.39733333349,
      "d": 280.7967083333351,
      "v": 125
    },
    {
      "midi": 69,
      "hit": false,
      "t": 37101.39733333349,
      "d": 280.7967083333351,
      "v": 125
    },
    {
      "midi": 74,
      "hit": false,
      "t": 37101.39733333349,
      "d": 280.7967083333351,
      "v": 125
    },
    {
      "midi": 38,
      "hit": false,
      "t": 37391.25200000015,
      "d": 280.7967083333351,
      "v": 125
    },
    {
      "midi": 65,
      "hit": false,
      "t": 37391.25200000015,
      "d": 280.7967083333351,
      "v": 125
    },
    {
      "midi": 69,
      "hit": false,
      "t": 37391.25200000015,
      "d": 280.7967083333351,
      "v": 125
    },
    {
      "midi": 74,
      "hit": false,
      "t": 37391.25200000015,
      "d": 280.7967083333351,
      "v": 125
    },
    {
      "midi": 38,
      "hit": false,
      "t": 37681.10666666682,
      "d": 280.7967083333351,
      "v": 125
    },
    {
      "midi": 65,
      "hit": false,
      "t": 37681.10666666682,
      "d": 280.7967083333351,
      "v": 125
    },
    {
      "midi": 69,
      "hit": false,
      "t": 37681.10666666682,
      "d": 280.7967083333351,
      "v": 125
    },
    {
      "midi": 74,
      "hit": false,
      "t": 37681.10666666682,
      "d": 280.7967083333351,
      "v": 125
    },
    {
      "midi": 38,
      "hit": false,
      "t": 37970.961333333486,
      "d": 280.7967083333351,
      "v": 125
    },
    {
      "midi": 65,
      "hit": false,
      "t": 37970.961333333486,
      "d": 280.7967083333351,
      "v": 125
    },
    {
      "midi": 69,
      "hit": false,
      "t": 37970.961333333486,
      "d": 280.7967083333351,
      "v": 125
    },
    {
      "midi": 74,
      "hit": false,
      "t": 37970.961333333486,
      "d": 280.7967083333351,
      "v": 125
    },
    {
      "midi": 34,
      "hit": false,
      "t": 38260.81600000015,
      "d": 280.7967083333351,
      "v": 125
    },
    {
      "midi": 65,
      "hit": false,
      "t": 38260.81600000015,
      "d": 280.7967083333351,
      "v": 125
    },
    {
      "midi": 70,
      "hit": false,
      "t": 38260.81600000015,
      "d": 280.7967083333351,
      "v": 125
    },
    {
      "midi": 73,
      "hit": false,
      "t": 38260.81600000015,
      "d": 280.7967083333351,
      "v": 125
    },
    {
      "midi": 34,
      "hit": false,
      "t": 38550.67066666682,
      "d": 280.7967083333351,
      "v": 125
    },
    {
      "midi": 65,
      "hit": false,
      "t": 38550.67066666682,
      "d": 280.7967083333351,
      "v": 125
    },
    {
      "midi": 70,
      "hit": false,
      "t": 38550.67066666682,
      "d": 280.7967083333351,
      "v": 125
    },
    {
      "midi": 73,
      "hit": false,
      "t": 38550.67066666682,
      "d": 280.7967083333351,
      "v": 125
    },
    {
      "midi": 34,
      "hit": false,
      "t": 38840.525333333484,
      "d": 280.7967083333351,
      "v": 125
    },
    {
      "midi": 65,
      "hit": false,
      "t": 38840.525333333484,
      "d": 280.7967083333351,
      "v": 125
    },
    {
      "midi": 70,
      "hit": false,
      "t": 38840.525333333484,
      "d": 280.7967083333351,
      "v": 125
    },
    {
      "midi": 73,
      "hit": false,
      "t": 38840.525333333484,
      "d": 280.7967083333351,
      "v": 125
    },
    {
      "midi": 34,
      "hit": false,
      "t": 39130.38000000015,
      "d": 280.7967083333351,
      "v": 125
    },
    {
      "midi": 65,
      "hit": false,
      "t": 39130.38000000015,
      "d": 280.7967083333351,
      "v": 125
    },
    {
      "midi": 70,
      "hit": false,
      "t": 39130.38000000015,
      "d": 280.7967083333351,
      "v": 125
    },
    {
      "midi": 73,
      "hit": false,
      "t": 39130.38000000015,
      "d": 280.7967083333351,
      "v": 125
    },
    {
      "midi": 70,
      "hit": false,
      "t": 39420.23466666669,
      "d": 280.7967083333351,
      "v": 121
    },
    {
      "midi": 34,
      "hit": false,
      "t": 39420.234666666816,
      "d": 280.7967083333351,
      "v": 125
    },
    {
      "midi": 65,
      "hit": false,
      "t": 39420.234666666816,
      "d": 280.7967083333351,
      "v": 125
    },
    {
      "midi": 70,
      "hit": false,
      "t": 39420.234666666816,
      "d": 280.7967083333351,
      "v": 125
    },
    {
      "midi": 73,
      "hit": false,
      "t": 39420.234666666816,
      "d": 280.7967083333351,
      "v": 125
    },
    {
      "midi": 72,
      "hit": false,
      "t": 39710.08933333336,
      "d": 280.7967083333351,
      "v": 121
    },
    {
      "midi": 77,
      "hit": false,
      "t": 39710.08933333336,
      "d": 280.7967083333351,
      "v": 121
    },
    {
      "midi": 34,
      "hit": false,
      "t": 39710.08933333348,
      "d": 280.7967083333351,
      "v": 125
    },
    {
      "midi": 65,
      "hit": false,
      "t": 39710.08933333348,
      "d": 280.7967083333351,
      "v": 125
    },
    {
      "midi": 70,
      "hit": false,
      "t": 39710.08933333348,
      "d": 280.7967083333351,
      "v": 125
    },
    {
      "midi": 73,
      "hit": false,
      "t": 39710.08933333348,
      "d": 280.7967083333351,
      "v": 125
    },
    {
      "midi": 72,
      "hit": false,
      "t": 39999.944000000025,
      "d": 181.15916666666453,
      "v": 121
    },
    {
      "midi": 77,
      "hit": false,
      "t": 39999.944000000025,
      "d": 579.7093333333323,
      "v": 121
    },
    {
      "midi": 36,
      "hit": false,
      "t": 39999.94400000015,
      "d": 280.7967083333351,
      "v": 125
    },
    {
      "midi": 64,
      "hit": false,
      "t": 39999.94400000015,
      "d": 280.7967083333351,
      "v": 125
    },
    {
      "midi": 67,
      "hit": false,
      "t": 39999.94400000015,
      "d": 280.7967083333351,
      "v": 125
    },
    {
      "midi": 72,
      "hit": false,
      "t": 39999.94400000015,
      "d": 280.7967083333351,
      "v": 125
    },
    {
      "midi": 73,
      "hit": false,
      "t": 40181.10316666669,
      "d": 280.7967083333351,
      "v": 121
    },
    {
      "midi": 36,
      "hit": false,
      "t": 40289.798666666815,
      "d": 280.7967083333351,
      "v": 125
    },
    {
      "midi": 64,
      "hit": false,
      "t": 40289.798666666815,
      "d": 280.7967083333351,
      "v": 125
    },
    {
      "midi": 67,
      "hit": false,
      "t": 40289.798666666815,
      "d": 280.7967083333351,
      "v": 125
    },
    {
      "midi": 72,
      "hit": false,
      "t": 40289.798666666815,
      "d": 280.7967083333351,
      "v": 125
    },
    {
      "midi": 72,
      "hit": false,
      "t": 40579.65333333336,
      "d": 579.7093333333323,
      "v": 121
    },
    {
      "midi": 77,
      "hit": false,
      "t": 40579.65333333336,
      "d": 579.7093333333323,
      "v": 121
    },
    {
      "midi": 36,
      "hit": false,
      "t": 40579.65333333348,
      "d": 280.7967083333351,
      "v": 125
    },
    {
      "midi": 64,
      "hit": false,
      "t": 40579.65333333348,
      "d": 280.7967083333351,
      "v": 125
    },
    {
      "midi": 67,
      "hit": false,
      "t": 40579.65333333348,
      "d": 280.7967083333351,
      "v": 125
    },
    {
      "midi": 72,
      "hit": false,
      "t": 40579.65333333348,
      "d": 280.7967083333351,
      "v": 125
    },
    {
      "midi": 36,
      "hit": false,
      "t": 40869.50800000015,
      "d": 280.7967083333351,
      "v": 125
    },
    {
      "midi": 64,
      "hit": false,
      "t": 40869.50800000015,
      "d": 280.7967083333351,
      "v": 125
    },
    {
      "midi": 67,
      "hit": false,
      "t": 40869.50800000015,
      "d": 280.7967083333351,
      "v": 125
    },
    {
      "midi": 72,
      "hit": false,
      "t": 40869.50800000015,
      "d": 280.7967083333351,
      "v": 125
    },
    {
      "midi": 70,
      "hit": false,
      "t": 41159.36266666669,
      "d": 579.7093333333323,
      "v": 121
    },
    {
      "midi": 36,
      "hit": false,
      "t": 41159.36266666681,
      "d": 280.7967083333351,
      "v": 125
    },
    {
      "midi": 64,
      "hit": false,
      "t": 41159.36266666681,
      "d": 280.7967083333351,
      "v": 125
    },
    {
      "midi": 67,
      "hit": false,
      "t": 41159.36266666681,
      "d": 280.7967083333351,
      "v": 125
    },
    {
      "midi": 72,
      "hit": false,
      "t": 41159.36266666681,
      "d": 280.7967083333351,
      "v": 125
    },
    {
      "midi": 36,
      "hit": false,
      "t": 41449.21733333348,
      "d": 280.7967083333351,
      "v": 125
    },
    {
      "midi": 38,
      "hit": false,
      "t": 41449.21733333348,
      "d": 280.7967083333351,
      "v": 125
    },
    {
      "midi": 64,
      "hit": false,
      "t": 41449.21733333348,
      "d": 280.7967083333351,
      "v": 125
    },
    {
      "midi": 67,
      "hit": false,
      "t": 41449.21733333348,
      "d": 280.7967083333351,
      "v": 125
    },
    {
      "midi": 72,
      "hit": false,
      "t": 41449.21733333348,
      "d": 280.7967083333351,
      "v": 125
    },
    {
      "midi": 76,
      "hit": false,
      "t": 41739.07200000002,
      "d": 181.15916666666453,
      "v": 121
    },
    {
      "midi": 81,
      "hit": false,
      "t": 41739.07200000002,
      "d": 1449.2733333333308,
      "v": 121
    },
    {
      "midi": 41,
      "hit": false,
      "t": 41739.072000000146,
      "d": 280.7967083333351,
      "v": 125
    },
    {
      "midi": 65,
      "hit": false,
      "t": 41739.072000000146,
      "d": 280.7967083333351,
      "v": 125
    },
    {
      "midi": 69,
      "hit": false,
      "t": 41739.072000000146,
      "d": 280.7967083333351,
      "v": 125
    },
    {
      "midi": 72,
      "hit": false,
      "t": 41739.072000000146,
      "d": 280.7967083333351,
      "v": 125
    },
    {
      "midi": 77,
      "hit": false,
      "t": 41920.23116666669,
      "d": 1159.4186666666646,
      "v": 121
    },
    {
      "midi": 41,
      "hit": false,
      "t": 42028.92666666681,
      "d": 280.7967083333351,
      "v": 125
    },
    {
      "midi": 65,
      "hit": false,
      "t": 42028.92666666681,
      "d": 280.7967083333351,
      "v": 125
    },
    {
      "midi": 69,
      "hit": false,
      "t": 42028.92666666681,
      "d": 280.7967083333351,
      "v": 125
    },
    {
      "midi": 72,
      "hit": false,
      "t": 42028.92666666681,
      "d": 280.7967083333351,
      "v": 125
    },
    {
      "midi": 41,
      "hit": false,
      "t": 42318.78133333348,
      "d": 280.7967083333351,
      "v": 125
    },
    {
      "midi": 65,
      "hit": false,
      "t": 42318.78133333348,
      "d": 280.7967083333351,
      "v": 125
    },
    {
      "midi": 69,
      "hit": false,
      "t": 42318.78133333348,
      "d": 280.7967083333351,
      "v": 125
    },
    {
      "midi": 72,
      "hit": false,
      "t": 42318.78133333348,
      "d": 280.7967083333351,
      "v": 125
    },
    {
      "midi": 41,
      "hit": false,
      "t": 42608.636000000144,
      "d": 280.7967083333351,
      "v": 125
    },
    {
      "midi": 65,
      "hit": false,
      "t": 42608.636000000144,
      "d": 280.7967083333351,
      "v": 125
    },
    {
      "midi": 69,
      "hit": false,
      "t": 42608.636000000144,
      "d": 280.7967083333351,
      "v": 125
    },
    {
      "midi": 72,
      "hit": false,
      "t": 42608.636000000144,
      "d": 280.7967083333351,
      "v": 125
    },
    {
      "midi": 41,
      "hit": false,
      "t": 42898.49066666681,
      "d": 280.7967083333351,
      "v": 125
    },
    {
      "midi": 65,
      "hit": false,
      "t": 42898.49066666681,
      "d": 280.7967083333351,
      "v": 125
    },
    {
      "midi": 69,
      "hit": false,
      "t": 42898.49066666681,
      "d": 280.7967083333351,
      "v": 125
    },
    {
      "midi": 72,
      "hit": false,
      "t": 42898.49066666681,
      "d": 280.7967083333351,
      "v": 125
    },
    {
      "midi": 41,
      "hit": false,
      "t": 43188.34533333348,
      "d": 280.7967083333351,
      "v": 125
    },
    {
      "midi": 65,
      "hit": false,
      "t": 43188.34533333348,
      "d": 280.7967083333351,
      "v": 125
    },
    {
      "midi": 69,
      "hit": false,
      "t": 43188.34533333348,
      "d": 280.7967083333351,
      "v": 125
    },
    {
      "midi": 72,
      "hit": false,
      "t": 43188.34533333348,
      "d": 280.7967083333351,
      "v": 125
    },
    {
      "midi": 72,
      "hit": false,
      "t": 43478.20000000002,
      "d": 1449.273333333338,
      "v": 121
    },
    {
      "midi": 77,
      "hit": false,
      "t": 43478.20000000002,
      "d": 1739.1280000000042,
      "v": 121
    },
    {
      "midi": 38,
      "hit": false,
      "t": 43478.20000000014,
      "d": 280.7967083333351,
      "v": 125
    },
    {
      "midi": 65,
      "hit": false,
      "t": 43478.20000000014,
      "d": 280.7967083333351,
      "v": 125
    },
    {
      "midi": 69,
      "hit": false,
      "t": 43478.20000000014,
      "d": 280.7967083333351,
      "v": 125
    },
    {
      "midi": 74,
      "hit": false,
      "t": 43478.20000000014,
      "d": 280.7967083333351,
      "v": 125
    },
    {
      "midi": 38,
      "hit": false,
      "t": 43768.05466666681,
      "d": 280.7967083333351,
      "v": 125
    },
    {
      "midi": 65,
      "hit": false,
      "t": 43768.05466666681,
      "d": 280.7967083333351,
      "v": 125
    },
    {
      "midi": 69,
      "hit": false,
      "t": 43768.05466666681,
      "d": 280.7967083333351,
      "v": 125
    },
    {
      "midi": 74,
      "hit": false,
      "t": 43768.05466666681,
      "d": 280.7967083333351,
      "v": 125
    },
    {
      "midi": 38,
      "hit": false,
      "t": 44057.909333333475,
      "d": 280.7967083333351,
      "v": 125
    },
    {
      "midi": 65,
      "hit": false,
      "t": 44057.909333333475,
      "d": 280.7967083333351,
      "v": 125
    },
    {
      "midi": 69,
      "hit": false,
      "t": 44057.909333333475,
      "d": 280.7967083333351,
      "v": 125
    },
    {
      "midi": 74,
      "hit": false,
      "t": 44057.909333333475,
      "d": 280.7967083333351,
      "v": 125
    },
    {
      "midi": 38,
      "hit": false,
      "t": 44347.76400000014,
      "d": 280.7967083333351,
      "v": 125
    },
    {
      "midi": 65,
      "hit": false,
      "t": 44347.76400000014,
      "d": 280.7967083333351,
      "v": 125
    },
    {
      "midi": 69,
      "hit": false,
      "t": 44347.76400000014,
      "d": 280.7967083333351,
      "v": 125
    },
    {
      "midi": 74,
      "hit": false,
      "t": 44347.76400000014,
      "d": 280.7967083333351,
      "v": 125
    },
    {
      "midi": 38,
      "hit": false,
      "t": 44637.61866666681,
      "d": 280.7967083333351,
      "v": 125
    },
    {
      "midi": 65,
      "hit": false,
      "t": 44637.61866666681,
      "d": 280.7967083333351,
      "v": 125
    },
    {
      "midi": 69,
      "hit": false,
      "t": 44637.61866666681,
      "d": 280.7967083333351,
      "v": 125
    },
    {
      "midi": 74,
      "hit": false,
      "t": 44637.61866666681,
      "d": 280.7967083333351,
      "v": 125
    },
    {
      "midi": 38,
      "hit": false,
      "t": 44927.47333333347,
      "d": 280.7967083333351,
      "v": 125
    },
    {
      "midi": 65,
      "hit": false,
      "t": 44927.47333333347,
      "d": 280.7967083333351,
      "v": 125
    },
    {
      "midi": 69,
      "hit": false,
      "t": 44927.47333333347,
      "d": 280.7967083333351,
      "v": 125
    },
    {
      "midi": 74,
      "hit": false,
      "t": 44927.47333333347,
      "d": 280.7967083333351,
      "v": 125
    },
    {
      "midi": 34,
      "hit": false,
      "t": 45217.32800000014,
      "d": 280.7967083333351,
      "v": 125
    },
    {
      "midi": 65,
      "hit": false,
      "t": 45217.32800000014,
      "d": 280.7967083333351,
      "v": 125
    },
    {
      "midi": 70,
      "hit": false,
      "t": 45217.32800000014,
      "d": 280.7967083333351,
      "v": 125
    },
    {
      "midi": 73,
      "hit": false,
      "t": 45217.32800000014,
      "d": 280.7967083333351,
      "v": 125
    },
    {
      "midi": 34,
      "hit": false,
      "t": 45507.182666666806,
      "d": 280.7967083333351,
      "v": 125
    },
    {
      "midi": 65,
      "hit": false,
      "t": 45507.182666666806,
      "d": 280.7967083333351,
      "v": 125
    },
    {
      "midi": 70,
      "hit": false,
      "t": 45507.182666666806,
      "d": 280.7967083333351,
      "v": 125
    },
    {
      "midi": 73,
      "hit": false,
      "t": 45507.182666666806,
      "d": 280.7967083333351,
      "v": 125
    },
    {
      "midi": 34,
      "hit": false,
      "t": 45797.03733333347,
      "d": 280.7967083333351,
      "v": 125
    },
    {
      "midi": 65,
      "hit": false,
      "t": 45797.03733333347,
      "d": 280.7967083333351,
      "v": 125
    },
    {
      "midi": 70,
      "hit": false,
      "t": 45797.03733333347,
      "d": 280.7967083333351,
      "v": 125
    },
    {
      "midi": 73,
      "hit": false,
      "t": 45797.03733333347,
      "d": 280.7967083333351,
      "v": 125
    },
    {
      "midi": 34,
      "hit": false,
      "t": 46086.89200000014,
      "d": 280.7967083333351,
      "v": 125
    },
    {
      "midi": 65,
      "hit": false,
      "t": 46086.89200000014,
      "d": 280.7967083333351,
      "v": 125
    },
    {
      "midi": 70,
      "hit": false,
      "t": 46086.89200000014,
      "d": 280.7967083333351,
      "v": 125
    },
    {
      "midi": 73,
      "hit": false,
      "t": 46086.89200000014,
      "d": 280.7967083333351,
      "v": 125
    },
    {
      "midi": 70,
      "hit": false,
      "t": 46376.74666666669,
      "d": 280.7967083333351,
      "v": 121
    },
    {
      "midi": 34,
      "hit": false,
      "t": 46376.746666666804,
      "d": 280.7967083333351,
      "v": 125
    },
    {
      "midi": 65,
      "hit": false,
      "t": 46376.746666666804,
      "d": 280.7967083333351,
      "v": 125
    },
    {
      "midi": 70,
      "hit": false,
      "t": 46376.746666666804,
      "d": 280.7967083333351,
      "v": 125
    },
    {
      "midi": 73,
      "hit": false,
      "t": 46376.746666666804,
      "d": 280.7967083333351,
      "v": 125
    },
    {
      "midi": 72,
      "hit": false,
      "t": 46666.601333333354,
      "d": 280.7967083333351,
      "v": 121
    },
    {
      "midi": 77,
      "hit": false,
      "t": 46666.601333333354,
      "d": 280.7967083333351,
      "v": 121
    },
    {
      "midi": 34,
      "hit": false,
      "t": 46666.60133333347,
      "d": 280.7967083333351,
      "v": 125
    },
    {
      "midi": 65,
      "hit": false,
      "t": 46666.60133333347,
      "d": 280.7967083333351,
      "v": 125
    },
    {
      "midi": 70,
      "hit": false,
      "t": 46666.60133333347,
      "d": 280.7967083333351,
      "v": 125
    },
    {
      "midi": 73,
      "hit": false,
      "t": 46666.60133333347,
      "d": 280.7967083333351,
      "v": 125
    },
    {
      "midi": 72,
      "hit": false,
      "t": 46956.45600000002,
      "d": 181.15916666666453,
      "v": 121
    },
    {
      "midi": 77,
      "hit": false,
      "t": 46956.45600000002,
      "d": 579.7093333333323,
      "v": 121
    },
    {
      "midi": 36,
      "hit": false,
      "t": 46956.45600000014,
      "d": 280.7967083333351,
      "v": 125
    },
    {
      "midi": 64,
      "hit": false,
      "t": 46956.45600000014,
      "d": 280.7967083333351,
      "v": 125
    },
    {
      "midi": 67,
      "hit": false,
      "t": 46956.45600000014,
      "d": 280.7967083333351,
      "v": 125
    },
    {
      "midi": 72,
      "hit": false,
      "t": 46956.45600000014,
      "d": 280.7967083333351,
      "v": 125
    },
    {
      "midi": 73,
      "hit": false,
      "t": 47137.615166666685,
      "d": 280.7967083333351,
      "v": 121
    },
    {
      "midi": 36,
      "hit": false,
      "t": 47246.3106666668,
      "d": 280.7967083333351,
      "v": 125
    },
    {
      "midi": 64,
      "hit": false,
      "t": 47246.3106666668,
      "d": 280.7967083333351,
      "v": 125
    },
    {
      "midi": 67,
      "hit": false,
      "t": 47246.3106666668,
      "d": 280.7967083333351,
      "v": 125
    },
    {
      "midi": 72,
      "hit": false,
      "t": 47246.3106666668,
      "d": 280.7967083333351,
      "v": 125
    },
    {
      "midi": 72,
      "hit": false,
      "t": 47536.16533333335,
      "d": 579.7093333333323,
      "v": 121
    },
    {
      "midi": 77,
      "hit": false,
      "t": 47536.16533333335,
      "d": 579.7093333333323,
      "v": 121
    },
    {
      "midi": 36,
      "hit": false,
      "t": 47536.16533333347,
      "d": 280.7967083333351,
      "v": 125
    },
    {
      "midi": 64,
      "hit": false,
      "t": 47536.16533333347,
      "d": 280.7967083333351,
      "v": 125
    },
    {
      "midi": 67,
      "hit": false,
      "t": 47536.16533333347,
      "d": 280.7967083333351,
      "v": 125
    },
    {
      "midi": 72,
      "hit": false,
      "t": 47536.16533333347,
      "d": 280.7967083333351,
      "v": 125
    },
    {
      "midi": 36,
      "hit": false,
      "t": 47826.020000000135,
      "d": 280.7967083333351,
      "v": 125
    },
    {
      "midi": 64,
      "hit": false,
      "t": 47826.020000000135,
      "d": 280.7967083333351,
      "v": 125
    },
    {
      "midi": 67,
      "hit": false,
      "t": 47826.020000000135,
      "d": 280.7967083333351,
      "v": 125
    },
    {
      "midi": 72,
      "hit": false,
      "t": 47826.020000000135,
      "d": 280.7967083333351,
      "v": 125
    },
    {
      "midi": 70,
      "hit": false,
      "t": 48115.874666666685,
      "d": 579.7093333333323,
      "v": 121
    },
    {
      "midi": 36,
      "hit": false,
      "t": 48115.8746666668,
      "d": 280.7967083333351,
      "v": 125
    },
    {
      "midi": 64,
      "hit": false,
      "t": 48115.8746666668,
      "d": 280.7967083333351,
      "v": 125
    },
    {
      "midi": 67,
      "hit": false,
      "t": 48115.8746666668,
      "d": 280.7967083333351,
      "v": 125
    },
    {
      "midi": 72,
      "hit": false,
      "t": 48115.8746666668,
      "d": 280.7967083333351,
      "v": 125
    },
    {
      "midi": 36,
      "hit": false,
      "t": 48405.72933333347,
      "d": 280.7967083333351,
      "v": 125
    },
    {
      "midi": 64,
      "hit": false,
      "t": 48405.72933333347,
      "d": 280.7967083333351,
      "v": 125
    },
    {
      "midi": 67,
      "hit": false,
      "t": 48405.72933333347,
      "d": 280.7967083333351,
      "v": 125
    },
    {
      "midi": 72,
      "hit": false,
      "t": 48405.72933333347,
      "d": 280.7967083333351,
      "v": 125
    },
    {
      "midi": 72,
      "hit": false,
      "t": 48695.58400000002,
      "d": 869.5639999999985,
      "v": 121
    },
    {
      "midi": 77,
      "hit": false,
      "t": 48695.58400000002,
      "d": 869.5639999999985,
      "v": 121
    },
    {
      "midi": 41,
      "hit": false,
      "t": 48695.58400000013,
      "d": 280.7967083333351,
      "v": 125
    },
    {
      "midi": 65,
      "hit": false,
      "t": 48695.58400000013,
      "d": 280.7967083333351,
      "v": 125
    },
    {
      "midi": 69,
      "hit": false,
      "t": 48695.58400000013,
      "d": 280.7967083333351,
      "v": 125
    },
    {
      "midi": 72,
      "hit": false,
      "t": 48695.58400000013,
      "d": 280.7967083333351,
      "v": 125
    },
    {
      "midi": 41,
      "hit": false,
      "t": 48985.4386666668,
      "d": 280.7967083333351,
      "v": 125
    },
    {
      "midi": 65,
      "hit": false,
      "t": 48985.4386666668,
      "d": 280.7967083333351,
      "v": 125
    },
    {
      "midi": 69,
      "hit": false,
      "t": 48985.4386666668,
      "d": 280.7967083333351,
      "v": 125
    },
    {
      "midi": 72,
      "hit": false,
      "t": 48985.4386666668,
      "d": 280.7967083333351,
      "v": 125
    },
    {
      "midi": 41,
      "hit": false,
      "t": 49275.293333333466,
      "d": 280.7967083333351,
      "v": 125
    },
    {
      "midi": 65,
      "hit": false,
      "t": 49275.293333333466,
      "d": 280.7967083333351,
      "v": 125
    },
    {
      "midi": 69,
      "hit": false,
      "t": 49275.293333333466,
      "d": 280.7967083333351,
      "v": 125
    },
    {
      "midi": 72,
      "hit": false,
      "t": 49275.293333333466,
      "d": 280.7967083333351,
      "v": 125
    },
    {
      "midi": 69,
      "hit": false,
      "t": 49565.148000000016,
      "d": 208.33304166666494,
      "v": 121
    },
    {
      "midi": 77,
      "hit": false,
      "t": 49565.148000000016,
      "d": 208.33304166666494,
      "v": 121
    },
    {
      "midi": 41,
      "hit": false,
      "t": 49565.14800000013,
      "d": 280.7967083333351,
      "v": 125
    },
    {
      "midi": 65,
      "hit": false,
      "t": 49565.14800000013,
      "d": 280.7967083333351,
      "v": 125
    },
    {
      "midi": 69,
      "hit": false,
      "t": 49565.14800000013,
      "d": 280.7967083333351,
      "v": 125
    },
    {
      "midi": 72,
      "hit": false,
      "t": 49565.14800000013,
      "d": 280.7967083333351,
      "v": 125
    },
    {
      "midi": 72,
      "hit": false,
      "t": 49782.53900000001,
      "d": 208.33304166666494,
      "v": 121
    },
    {
      "midi": 77,
      "hit": false,
      "t": 49782.53900000001,
      "d": 208.33304166666494,
      "v": 121
    },
    {
      "midi": 41,
      "hit": false,
      "t": 49855.0026666668,
      "d": 280.7967083333351,
      "v": 125
    },
    {
      "midi": 65,
      "hit": false,
      "t": 49855.0026666668,
      "d": 280.7967083333351,
      "v": 125
    },
    {
      "midi": 69,
      "hit": false,
      "t": 49855.0026666668,
      "d": 280.7967083333351,
      "v": 125
    },
    {
      "midi": 72,
      "hit": false,
      "t": 49855.0026666668,
      "d": 280.7967083333351,
      "v": 125
    },
    {
      "midi": 72,
      "hit": false,
      "t": 49999.93000000001,
      "d": 208.33304166667222,
      "v": 121
    },
    {
      "midi": 69,
      "hit": false,
      "t": 49999.93000000001,
      "d": 217.39100000000326,
      "v": 121
    },
    {
      "midi": 41,
      "hit": false,
      "t": 50144.857333333464,
      "d": 280.7967083333351,
      "v": 125
    },
    {
      "midi": 65,
      "hit": false,
      "t": 50144.857333333464,
      "d": 280.7967083333351,
      "v": 125
    },
    {
      "midi": 69,
      "hit": false,
      "t": 50144.857333333464,
      "d": 280.7967083333351,
      "v": 125
    },
    {
      "midi": 72,
      "hit": false,
      "t": 50144.857333333464,
      "d": 280.7967083333351,
      "v": 125
    },
    {
      "midi": 65,
      "hit": false,
      "t": 50217.32100000001,
      "d": 208.33304166666494,
      "v": 121
    },
    {
      "midi": 72,
      "hit": false,
      "t": 50217.32100000001,
      "d": 208.33304166666494,
      "v": 121
    },
    {
      "midi": 62,
      "hit": false,
      "t": 50434.71200000001,
      "d": 652.1730000000025,
      "v": 121
    },
    {
      "midi": 65,
      "hit": false,
      "t": 50434.71200000001,
      "d": 652.1730000000025,
      "v": 121
    },
    {
      "midi": 38,
      "hit": false,
      "t": 50434.71200000013,
      "d": 280.7967083333351,
      "v": 125
    },
    {
      "midi": 65,
      "hit": false,
      "t": 50434.71200000013,
      "d": 280.7967083333351,
      "v": 125
    },
    {
      "midi": 69,
      "hit": false,
      "t": 50434.71200000013,
      "d": 280.7967083333351,
      "v": 125
    },
    {
      "midi": 74,
      "hit": false,
      "t": 50434.71200000013,
      "d": 280.7967083333351,
      "v": 125
    },
    {
      "midi": 38,
      "hit": false,
      "t": 50724.5666666668,
      "d": 280.7967083333351,
      "v": 125
    },
    {
      "midi": 65,
      "hit": false,
      "t": 50724.5666666668,
      "d": 280.7967083333351,
      "v": 125
    },
    {
      "midi": 69,
      "hit": false,
      "t": 50724.5666666668,
      "d": 280.7967083333351,
      "v": 125
    },
    {
      "midi": 74,
      "hit": false,
      "t": 50724.5666666668,
      "d": 280.7967083333351,
      "v": 125
    },
    {
      "midi": 38,
      "hit": false,
      "t": 51014.42133333346,
      "d": 280.7967083333351,
      "v": 125
    },
    {
      "midi": 65,
      "hit": false,
      "t": 51014.42133333346,
      "d": 280.7967083333351,
      "v": 125
    },
    {
      "midi": 69,
      "hit": false,
      "t": 51014.42133333346,
      "d": 280.7967083333351,
      "v": 125
    },
    {
      "midi": 74,
      "hit": false,
      "t": 51014.42133333346,
      "d": 280.7967083333351,
      "v": 125
    },
    {
      "midi": 38,
      "hit": false,
      "t": 51304.27600000013,
      "d": 280.7967083333351,
      "v": 125
    },
    {
      "midi": 65,
      "hit": false,
      "t": 51304.27600000013,
      "d": 280.7967083333351,
      "v": 125
    },
    {
      "midi": 69,
      "hit": false,
      "t": 51304.27600000013,
      "d": 280.7967083333351,
      "v": 125
    },
    {
      "midi": 74,
      "hit": false,
      "t": 51304.27600000013,
      "d": 280.7967083333351,
      "v": 125
    },
    {
      "midi": 38,
      "hit": false,
      "t": 51594.130666666795,
      "d": 280.7967083333351,
      "v": 125
    },
    {
      "midi": 65,
      "hit": false,
      "t": 51594.130666666795,
      "d": 280.7967083333351,
      "v": 125
    },
    {
      "midi": 69,
      "hit": false,
      "t": 51594.130666666795,
      "d": 280.7967083333351,
      "v": 125
    },
    {
      "midi": 74,
      "hit": false,
      "t": 51594.130666666795,
      "d": 280.7967083333351,
      "v": 125
    },
    {
      "midi": 38,
      "hit": false,
      "t": 51883.98533333346,
      "d": 280.7967083333351,
      "v": 125
    },
    {
      "midi": 65,
      "hit": false,
      "t": 51883.98533333346,
      "d": 280.7967083333351,
      "v": 125
    },
    {
      "midi": 69,
      "hit": false,
      "t": 51883.98533333346,
      "d": 280.7967083333351,
      "v": 125
    },
    {
      "midi": 74,
      "hit": false,
      "t": 51883.98533333346,
      "d": 280.7967083333351,
      "v": 125
    },
    {
      "midi": 34,
      "hit": false,
      "t": 52173.84000000013,
      "d": 280.7967083333351,
      "v": 125
    },
    {
      "midi": 65,
      "hit": false,
      "t": 52173.84000000013,
      "d": 280.7967083333351,
      "v": 125
    },
    {
      "midi": 70,
      "hit": false,
      "t": 52173.84000000013,
      "d": 280.7967083333351,
      "v": 125
    },
    {
      "midi": 73,
      "hit": false,
      "t": 52173.84000000013,
      "d": 280.7967083333351,
      "v": 125
    },
    {
      "midi": 34,
      "hit": false,
      "t": 52463.69466666679,
      "d": 280.7967083333351,
      "v": 125
    },
    {
      "midi": 65,
      "hit": false,
      "t": 52463.69466666679,
      "d": 280.7967083333351,
      "v": 125
    },
    {
      "midi": 70,
      "hit": false,
      "t": 52463.69466666679,
      "d": 280.7967083333351,
      "v": 125
    },
    {
      "midi": 73,
      "hit": false,
      "t": 52463.69466666679,
      "d": 280.7967083333351,
      "v": 125
    },
    {
      "midi": 34,
      "hit": false,
      "t": 52753.54933333346,
      "d": 280.7967083333351,
      "v": 125
    },
    {
      "midi": 65,
      "hit": false,
      "t": 52753.54933333346,
      "d": 280.7967083333351,
      "v": 125
    },
    {
      "midi": 70,
      "hit": false,
      "t": 52753.54933333346,
      "d": 280.7967083333351,
      "v": 125
    },
    {
      "midi": 73,
      "hit": false,
      "t": 52753.54933333346,
      "d": 280.7967083333351,
      "v": 125
    },
    {
      "midi": 34,
      "hit": false,
      "t": 53043.404000000126,
      "d": 280.7967083333351,
      "v": 125
    },
    {
      "midi": 65,
      "hit": false,
      "t": 53043.404000000126,
      "d": 280.7967083333351,
      "v": 125
    },
    {
      "midi": 70,
      "hit": false,
      "t": 53043.404000000126,
      "d": 280.7967083333351,
      "v": 125
    },
    {
      "midi": 73,
      "hit": false,
      "t": 53043.404000000126,
      "d": 280.7967083333351,
      "v": 125
    },
    {
      "midi": 65,
      "hit": false,
      "t": 53333.258666666676,
      "d": 280.7967083333351,
      "v": 121
    },
    {
      "midi": 70,
      "hit": false,
      "t": 53333.258666666676,
      "d": 280.7967083333351,
      "v": 121
    },
    {
      "midi": 34,
      "hit": false,
      "t": 53333.25866666679,
      "d": 280.7967083333351,
      "v": 125
    },
    {
      "midi": 65,
      "hit": false,
      "t": 53333.25866666679,
      "d": 280.7967083333351,
      "v": 125
    },
    {
      "midi": 70,
      "hit": false,
      "t": 53333.25866666679,
      "d": 280.7967083333351,
      "v": 125
    },
    {
      "midi": 73,
      "hit": false,
      "t": 53333.25866666679,
      "d": 280.7967083333351,
      "v": 125
    },
    {
      "midi": 65,
      "hit": false,
      "t": 53623.11333333334,
      "d": 280.7967083333351,
      "v": 121
    },
    {
      "midi": 70,
      "hit": false,
      "t": 53623.11333333334,
      "d": 280.7967083333351,
      "v": 121
    },
    {
      "midi": 34,
      "hit": false,
      "t": 53623.11333333346,
      "d": 280.7967083333351,
      "v": 125
    },
    {
      "midi": 65,
      "hit": false,
      "t": 53623.11333333346,
      "d": 280.7967083333351,
      "v": 125
    },
    {
      "midi": 70,
      "hit": false,
      "t": 53623.11333333346,
      "d": 280.7967083333351,
      "v": 125
    },
    {
      "midi": 73,
      "hit": false,
      "t": 53623.11333333346,
      "d": 280.7967083333351,
      "v": 125
    },
    {
      "midi": 67,
      "hit": false,
      "t": 53912.96800000001,
      "d": 570.6513750000013,
      "v": 121
    },
    {
      "midi": 72,
      "hit": false,
      "t": 53912.96800000001,
      "d": 570.6513750000013,
      "v": 121
    },
    {
      "midi": 36,
      "hit": false,
      "t": 53912.968000000124,
      "d": 280.7967083333351,
      "v": 125
    },
    {
      "midi": 64,
      "hit": false,
      "t": 53912.968000000124,
      "d": 280.7967083333351,
      "v": 125
    },
    {
      "midi": 67,
      "hit": false,
      "t": 53912.968000000124,
      "d": 280.7967083333351,
      "v": 125
    },
    {
      "midi": 72,
      "hit": false,
      "t": 53912.968000000124,
      "d": 280.7967083333351,
      "v": 125
    },
    {
      "midi": 69,
      "hit": false,
      "t": 54094.12716666667,
      "d": 398.5501666666678,
      "v": 121
    },
    {
      "midi": 36,
      "hit": false,
      "t": 54202.82266666679,
      "d": 280.7967083333351,
      "v": 125
    },
    {
      "midi": 64,
      "hit": false,
      "t": 54202.82266666679,
      "d": 280.7967083333351,
      "v": 125
    },
    {
      "midi": 67,
      "hit": false,
      "t": 54202.82266666679,
      "d": 280.7967083333351,
      "v": 125
    },
    {
      "midi": 72,
      "hit": false,
      "t": 54202.82266666679,
      "d": 280.7967083333351,
      "v": 125
    },
    {
      "midi": 67,
      "hit": false,
      "t": 54492.67733333334,
      "d": 570.6513750000013,
      "v": 121
    },
    {
      "midi": 72,
      "hit": false,
      "t": 54492.67733333334,
      "d": 570.6513750000013,
      "v": 121
    },
    {
      "midi": 36,
      "hit": false,
      "t": 54492.67733333346,
      "d": 280.7967083333351,
      "v": 125
    },
    {
      "midi": 64,
      "hit": false,
      "t": 54492.67733333346,
      "d": 280.7967083333351,
      "v": 125
    },
    {
      "midi": 67,
      "hit": false,
      "t": 54492.67733333346,
      "d": 280.7967083333351,
      "v": 125
    },
    {
      "midi": 72,
      "hit": false,
      "t": 54492.67733333346,
      "d": 280.7967083333351,
      "v": 125
    },
    {
      "midi": 69,
      "hit": false,
      "t": 54673.836500000005,
      "d": 389.49220833333675,
      "v": 121
    },
    {
      "midi": 36,
      "hit": false,
      "t": 54782.53200000012,
      "d": 280.7967083333351,
      "v": 125
    },
    {
      "midi": 64,
      "hit": false,
      "t": 54782.53200000012,
      "d": 280.7967083333351,
      "v": 125
    },
    {
      "midi": 67,
      "hit": false,
      "t": 54782.53200000012,
      "d": 280.7967083333351,
      "v": 125
    },
    {
      "midi": 72,
      "hit": false,
      "t": 54782.53200000012,
      "d": 280.7967083333351,
      "v": 125
    },
    {
      "midi": 67,
      "hit": false,
      "t": 55072.38666666667,
      "d": 208.33304166666494,
      "v": 121
    },
    {
      "midi": 72,
      "hit": false,
      "t": 55072.38666666667,
      "d": 570.6513750000013,
      "v": 121
    },
    {
      "midi": 36,
      "hit": false,
      "t": 55072.38666666679,
      "d": 280.7967083333351,
      "v": 125
    },
    {
      "midi": 64,
      "hit": false,
      "t": 55072.38666666679,
      "d": 280.7967083333351,
      "v": 125
    },
    {
      "midi": 67,
      "hit": false,
      "t": 55072.38666666679,
      "d": 280.7967083333351,
      "v": 125
    },
    {
      "midi": 72,
      "hit": false,
      "t": 55072.38666666679,
      "d": 280.7967083333351,
      "v": 125
    },
    {
      "midi": 69,
      "hit": false,
      "t": 55253.54583333334,
      "d": 398.5501666666678,
      "v": 121
    },
    {
      "midi": 36,
      "hit": false,
      "t": 55362.241333333455,
      "d": 280.7967083333351,
      "v": 125
    },
    {
      "midi": 64,
      "hit": false,
      "t": 55362.241333333455,
      "d": 280.7967083333351,
      "v": 125
    },
    {
      "midi": 67,
      "hit": false,
      "t": 55362.241333333455,
      "d": 280.7967083333351,
      "v": 125
    },
    {
      "midi": 72,
      "hit": false,
      "t": 55362.241333333455,
      "d": 280.7967083333351,
      "v": 125
    },
    {
      "midi": 65,
      "hit": false,
      "t": 55652.096000000005,
      "d": 1730.070041666666,
      "v": 120
    },
    {
      "midi": 69,
      "hit": false,
      "t": 55652.096000000005,
      "d": 1730.070041666666,
      "v": 120
    },
    {
      "midi": 41,
      "hit": false,
      "t": 55652.09600000012,
      "d": 280.7967083333351,
      "v": 125
    },
    {
      "midi": 65,
      "hit": false,
      "t": 55652.09600000012,
      "d": 280.7967083333351,
      "v": 125
    },
    {
      "midi": 69,
      "hit": false,
      "t": 55652.09600000012,
      "d": 280.7967083333351,
      "v": 125
    },
    {
      "midi": 72,
      "hit": false,
      "t": 55652.09600000012,
      "d": 280.7967083333351,
      "v": 125
    },
    {
      "midi": 41,
      "hit": false,
      "t": 55941.95066666679,
      "d": 280.7967083333351,
      "v": 125
    },
    {
      "midi": 65,
      "hit": false,
      "t": 55941.95066666679,
      "d": 280.7967083333351,
      "v": 125
    },
    {
      "midi": 69,
      "hit": false,
      "t": 55941.95066666679,
      "d": 280.7967083333351,
      "v": 125
    },
    {
      "midi": 72,
      "hit": false,
      "t": 55941.95066666679,
      "d": 280.7967083333351,
      "v": 125
    },
    {
      "midi": 41,
      "hit": false,
      "t": 56231.805333333454,
      "d": 280.7967083333351,
      "v": 125
    },
    {
      "midi": 65,
      "hit": false,
      "t": 56231.805333333454,
      "d": 280.7967083333351,
      "v": 125
    },
    {
      "midi": 69,
      "hit": false,
      "t": 56231.805333333454,
      "d": 280.7967083333351,
      "v": 125
    },
    {
      "midi": 72,
      "hit": false,
      "t": 56231.805333333454,
      "d": 280.7967083333351,
      "v": 125
    },
    {
      "midi": 41,
      "hit": false,
      "t": 56521.66000000012,
      "d": 280.7967083333351,
      "v": 125
    },
    {
      "midi": 65,
      "hit": false,
      "t": 56521.66000000012,
      "d": 280.7967083333351,
      "v": 125
    },
    {
      "midi": 69,
      "hit": false,
      "t": 56521.66000000012,
      "d": 280.7967083333351,
      "v": 125
    },
    {
      "midi": 72,
      "hit": false,
      "t": 56521.66000000012,
      "d": 280.7967083333351,
      "v": 125
    },
    {
      "midi": 41,
      "hit": false,
      "t": 56811.514666666786,
      "d": 280.7967083333351,
      "v": 125
    },
    {
      "midi": 65,
      "hit": false,
      "t": 56811.514666666786,
      "d": 280.7967083333351,
      "v": 125
    },
    {
      "midi": 69,
      "hit": false,
      "t": 56811.514666666786,
      "d": 280.7967083333351,
      "v": 125
    },
    {
      "midi": 72,
      "hit": false,
      "t": 56811.514666666786,
      "d": 280.7967083333351,
      "v": 125
    },
    {
      "midi": 41,
      "hit": false,
      "t": 57101.36933333345,
      "d": 280.7967083333351,
      "v": 125
    },
    {
      "midi": 65,
      "hit": false,
      "t": 57101.36933333345,
      "d": 280.7967083333351,
      "v": 125
    },
    {
      "midi": 69,
      "hit": false,
      "t": 57101.36933333345,
      "d": 280.7967083333351,
      "v": 125
    },
    {
      "midi": 72,
      "hit": false,
      "t": 57101.36933333345,
      "d": 280.7967083333351,
      "v": 125
    },
    {
      "midi": 60,
      "hit": false,
      "t": 57391.224,
      "d": 181.15916666666453,
      "v": 121
    },
    {
      "midi": 65,
      "hit": false,
      "t": 57391.224,
      "d": 570.6513750000013,
      "v": 121
    },
    {
      "midi": 34,
      "hit": false,
      "t": 57391.22400000012,
      "d": 280.7967083333351,
      "v": 125
    },
    {
      "midi": 65,
      "hit": false,
      "t": 57391.22400000012,
      "d": 280.7967083333351,
      "v": 125
    },
    {
      "midi": 70,
      "hit": false,
      "t": 57391.22400000012,
      "d": 280.7967083333351,
      "v": 125
    },
    {
      "midi": 73,
      "hit": false,
      "t": 57391.22400000012,
      "d": 280.7967083333351,
      "v": 125
    },
    {
      "midi": 61,
      "hit": false,
      "t": 57572.38316666667,
      "d": 398.5501666666678,
      "v": 121
    },
    {
      "midi": 34,
      "hit": false,
      "t": 57681.078666666785,
      "d": 280.7967083333351,
      "v": 125
    },
    {
      "midi": 65,
      "hit": false,
      "t": 57681.078666666785,
      "d": 280.7967083333351,
      "v": 125
    },
    {
      "midi": 70,
      "hit": false,
      "t": 57681.078666666785,
      "d": 280.7967083333351,
      "v": 125
    },
    {
      "midi": 73,
      "hit": false,
      "t": 57681.078666666785,
      "d": 280.7967083333351,
      "v": 125
    },
    {
      "midi": 60,
      "hit": false,
      "t": 57970.933333333334,
      "d": 172.1012083333335,
      "v": 122
    },
    {
      "midi": 65,
      "hit": false,
      "t": 57970.933333333334,
      "d": 570.6513750000013,
      "v": 122
    },
    {
      "midi": 34,
      "hit": false,
      "t": 57970.93333333345,
      "d": 280.7967083333351,
      "v": 125
    },
    {
      "midi": 65,
      "hit": false,
      "t": 57970.93333333345,
      "d": 280.7967083333351,
      "v": 125
    },
    {
      "midi": 70,
      "hit": false,
      "t": 57970.93333333345,
      "d": 280.7967083333351,
      "v": 125
    },
    {
      "midi": 73,
      "hit": false,
      "t": 57970.93333333345,
      "d": 280.7967083333351,
      "v": 125
    },
    {
      "midi": 61,
      "hit": false,
      "t": 58152.0925,
      "d": 389.49220833333675,
      "v": 122
    },
    {
      "midi": 34,
      "hit": false,
      "t": 58260.78800000012,
      "d": 280.7967083333351,
      "v": 125
    },
    {
      "midi": 65,
      "hit": false,
      "t": 58260.78800000012,
      "d": 280.7967083333351,
      "v": 125
    },
    {
      "midi": 70,
      "hit": false,
      "t": 58260.78800000012,
      "d": 280.7967083333351,
      "v": 125
    },
    {
      "midi": 73,
      "hit": false,
      "t": 58260.78800000012,
      "d": 280.7967083333351,
      "v": 125
    },
    {
      "midi": 60,
      "hit": false,
      "t": 58550.64266666667,
      "d": 163.04325000000244,
      "v": 122
    },
    {
      "midi": 65,
      "hit": false,
      "t": 58550.64266666667,
      "d": 570.6513750000086,
      "v": 122
    },
    {
      "midi": 34,
      "hit": false,
      "t": 58550.64266666678,
      "d": 280.7967083333351,
      "v": 125
    },
    {
      "midi": 65,
      "hit": false,
      "t": 58550.64266666678,
      "d": 280.7967083333351,
      "v": 125
    },
    {
      "midi": 70,
      "hit": false,
      "t": 58550.64266666678,
      "d": 280.7967083333351,
      "v": 125
    },
    {
      "midi": 73,
      "hit": false,
      "t": 58550.64266666678,
      "d": 280.7967083333351,
      "v": 125
    },
    {
      "midi": 61,
      "hit": false,
      "t": 58731.80183333334,
      "d": 398.5501666666678,
      "v": 123
    },
    {
      "midi": 34,
      "hit": false,
      "t": 58840.49733333345,
      "d": 280.7967083333351,
      "v": 125
    },
    {
      "midi": 65,
      "hit": false,
      "t": 58840.49733333345,
      "d": 280.7967083333351,
      "v": 125
    },
    {
      "midi": 70,
      "hit": false,
      "t": 58840.49733333345,
      "d": 280.7967083333351,
      "v": 125
    },
    {
      "midi": 73,
      "hit": false,
      "t": 58840.49733333345,
      "d": 280.7967083333351,
      "v": 125
    },
    {
      "midi": 64,
      "hit": false,
      "t": 59130.352000000006,
      "d": 163.04325000000244,
      "v": 123
    },
    {
      "midi": 69,
      "hit": false,
      "t": 59130.352000000006,
      "d": 570.6513750000086,
      "v": 123
    },
    {
      "midi": 41,
      "hit": false,
      "t": 59130.352000000115,
      "d": 280.7967083333351,
      "v": 125
    },
    {
      "midi": 65,
      "hit": false,
      "t": 59130.352000000115,
      "d": 280.7967083333351,
      "v": 125
    },
    {
      "midi": 69,
      "hit": false,
      "t": 59130.352000000115,
      "d": 280.7967083333351,
      "v": 125
    },
    {
      "midi": 72,
      "hit": false,
      "t": 59130.352000000115,
      "d": 280.7967083333351,
      "v": 125
    },
    {
      "midi": 65,
      "hit": false,
      "t": 59311.51116666668,
      "d": 389.49220833333675,
      "v": 123
    },
    {
      "midi": 41,
      "hit": false,
      "t": 59420.20666666678,
      "d": 280.7967083333351,
      "v": 125
    },
    {
      "midi": 65,
      "hit": false,
      "t": 59420.20666666678,
      "d": 280.7967083333351,
      "v": 125
    },
    {
      "midi": 69,
      "hit": false,
      "t": 59420.20666666678,
      "d": 280.7967083333351,
      "v": 125
    },
    {
      "midi": 72,
      "hit": false,
      "t": 59420.20666666678,
      "d": 280.7967083333351,
      "v": 125
    },
    {
      "midi": 41,
      "hit": false,
      "t": 59710.06133333345,
      "d": 280.7967083333351,
      "v": 125
    },
    {
      "midi": 65,
      "hit": false,
      "t": 59710.06133333345,
      "d": 280.7967083333351,
      "v": 125
    },
    {
      "midi": 69,
      "hit": false,
      "t": 59710.06133333345,
      "d": 280.7967083333351,
      "v": 125
    },
    {
      "midi": 72,
      "hit": false,
      "t": 59710.06133333345,
      "d": 280.7967083333351,
      "v": 125
    },
    {
      "midi": 41,
      "hit": false,
      "t": 59999.916000000114,
      "d": 280.7967083333351,
      "v": 125
    },
    {
      "midi": 65,
      "hit": false,
      "t": 59999.916000000114,
      "d": 280.7967083333351,
      "v": 125
    },
    {
      "midi": 69,
      "hit": false,
      "t": 59999.916000000114,
      "d": 280.7967083333351,
      "v": 125
    },
    {
      "midi": 72,
      "hit": false,
      "t": 59999.916000000114,
      "d": 280.7967083333351,
      "v": 125
    },
    {
      "midi": 41,
      "hit": false,
      "t": 60289.77066666678,
      "d": 280.7967083333351,
      "v": 125
    },
    {
      "midi": 65,
      "hit": false,
      "t": 60289.77066666678,
      "d": 280.7967083333351,
      "v": 125
    },
    {
      "midi": 69,
      "hit": false,
      "t": 60289.77066666678,
      "d": 280.7967083333351,
      "v": 125
    },
    {
      "midi": 72,
      "hit": false,
      "t": 60289.77066666678,
      "d": 280.7967083333351,
      "v": 125
    },
    {
      "midi": 41,
      "hit": false,
      "t": 60579.625333333446,
      "d": 280.7967083333351,
      "v": 125
    },
    {
      "midi": 65,
      "hit": false,
      "t": 60579.625333333446,
      "d": 280.7967083333351,
      "v": 125
    },
    {
      "midi": 69,
      "hit": false,
      "t": 60579.625333333446,
      "d": 280.7967083333351,
      "v": 125
    },
    {
      "midi": 72,
      "hit": false,
      "t": 60579.625333333446,
      "d": 280.7967083333351,
      "v": 125
    },
    {
      "midi": 41,
      "hit": false,
      "t": 60869.48000000011,
      "d": 280.7967083333351,
      "v": 125
    },
    {
      "midi": 65,
      "hit": false,
      "t": 60869.48000000011,
      "d": 280.7967083333351,
      "v": 125
    },
    {
      "midi": 69,
      "hit": false,
      "t": 60869.48000000011,
      "d": 280.7967083333351,
      "v": 125
    },
    {
      "midi": 72,
      "hit": false,
      "t": 60869.48000000011,
      "d": 280.7967083333351,
      "v": 125
    },
    {
      "midi": 41,
      "hit": false,
      "t": 61159.33466666678,
      "d": 280.7967083333351,
      "v": 125
    },
    {
      "midi": 65,
      "hit": false,
      "t": 61159.33466666678,
      "d": 280.7967083333351,
      "v": 125
    },
    {
      "midi": 69,
      "hit": false,
      "t": 61159.33466666678,
      "d": 280.7967083333351,
      "v": 125
    },
    {
      "midi": 72,
      "hit": false,
      "t": 61159.33466666678,
      "d": 280.7967083333351,
      "v": 125
    },
    {
      "midi": 41,
      "hit": false,
      "t": 61449.189333333445,
      "d": 280.7967083333351,
      "v": 125
    },
    {
      "midi": 65,
      "hit": false,
      "t": 61449.189333333445,
      "d": 280.7967083333351,
      "v": 125
    },
    {
      "midi": 69,
      "hit": false,
      "t": 61449.189333333445,
      "d": 280.7967083333351,
      "v": 125
    },
    {
      "midi": 72,
      "hit": false,
      "t": 61449.189333333445,
      "d": 280.7967083333351,
      "v": 125
    },
    {
      "midi": 41,
      "hit": false,
      "t": 61739.04400000011,
      "d": 280.7967083333351,
      "v": 125
    },
    {
      "midi": 65,
      "hit": false,
      "t": 61739.04400000011,
      "d": 280.7967083333351,
      "v": 125
    },
    {
      "midi": 69,
      "hit": false,
      "t": 61739.04400000011,
      "d": 280.7967083333351,
      "v": 125
    },
    {
      "midi": 72,
      "hit": false,
      "t": 61739.04400000011,
      "d": 280.7967083333351,
      "v": 125
    },
    {
      "midi": 41,
      "hit": false,
      "t": 62028.89866666678,
      "d": 280.7967083333351,
      "v": 125
    },
    {
      "midi": 65,
      "hit": false,
      "t": 62028.89866666678,
      "d": 280.7967083333351,
      "v": 125
    },
    {
      "midi": 69,
      "hit": false,
      "t": 62028.89866666678,
      "d": 280.7967083333351,
      "v": 125
    },
    {
      "midi": 72,
      "hit": false,
      "t": 62028.89866666678,
      "d": 280.7967083333351,
      "v": 125
    },
    {
      "midi": 65,
      "hit": false,
      "t": 62065.130500000014,
      "d": 244.5648749999964,
      "v": 126
    },
    {
      "midi": 41,
      "hit": false,
      "t": 62318.75333333344,
      "d": 280.7967083333351,
      "v": 125
    },
    {
      "midi": 65,
      "hit": false,
      "t": 62318.75333333344,
      "d": 280.7967083333351,
      "v": 125
    },
    {
      "midi": 69,
      "hit": false,
      "t": 62318.75333333344,
      "d": 280.7967083333351,
      "v": 125
    },
    {
      "midi": 72,
      "hit": false,
      "t": 62318.75333333344,
      "d": 280.7967083333351,
      "v": 125
    },
    {
      "midi": 65,
      "hit": false,
      "t": 62354.98516666668,
      "d": 307.9705833333355,
      "v": 126
    },
    {
      "midi": 72,
      "hit": false,
      "t": 62608.608000000015,
      "d": 153.98529166666412,
      "v": 121
    },
    {
      "midi": 77,
      "hit": false,
      "t": 62608.608000000015,
      "d": 579.7093333333323,
      "v": 121
    },
    {
      "midi": 34,
      "hit": false,
      "t": 62608.60800000011,
      "d": 280.7967083333351,
      "v": 125
    },
    {
      "midi": 65,
      "hit": false,
      "t": 62608.60800000011,
      "d": 280.7967083333351,
      "v": 125
    },
    {
      "midi": 70,
      "hit": false,
      "t": 62608.60800000011,
      "d": 280.7967083333351,
      "v": 125
    },
    {
      "midi": 74,
      "hit": false,
      "t": 62608.60800000011,
      "d": 280.7967083333351,
      "v": 125
    },
    {
      "midi": 74,
      "hit": false,
      "t": 62789.76716666668,
      "d": 280.7967083333351,
      "v": 121
    },
    {
      "midi": 34,
      "hit": false,
      "t": 62898.462666666775,
      "d": 280.7967083333351,
      "v": 125
    },
    {
      "midi": 65,
      "hit": false,
      "t": 62898.462666666775,
      "d": 280.7967083333351,
      "v": 125
    },
    {
      "midi": 70,
      "hit": false,
      "t": 62898.462666666775,
      "d": 280.7967083333351,
      "v": 125
    },
    {
      "midi": 74,
      "hit": false,
      "t": 62898.462666666775,
      "d": 280.7967083333351,
      "v": 125
    },
    {
      "midi": 72,
      "hit": false,
      "t": 63188.31733333335,
      "d": 181.15916666666453,
      "v": 121
    },
    {
      "midi": 77,
      "hit": false,
      "t": 63188.31733333335,
      "d": 869.5639999999985,
      "v": 121
    },
    {
      "midi": 34,
      "hit": false,
      "t": 63188.31733333344,
      "d": 280.7967083333351,
      "v": 125
    },
    {
      "midi": 65,
      "hit": false,
      "t": 63188.31733333344,
      "d": 280.7967083333351,
      "v": 125
    },
    {
      "midi": 70,
      "hit": false,
      "t": 63188.31733333344,
      "d": 280.7967083333351,
      "v": 125
    },
    {
      "midi": 74,
      "hit": false,
      "t": 63188.31733333344,
      "d": 280.7967083333351,
      "v": 125
    },
    {
      "midi": 74,
      "hit": false,
      "t": 63369.47650000001,
      "d": 579.7093333333323,
      "v": 121
    },
    {
      "midi": 34,
      "hit": false,
      "t": 63478.17200000011,
      "d": 280.7967083333351,
      "v": 125
    },
    {
      "midi": 65,
      "hit": false,
      "t": 63478.17200000011,
      "d": 280.7967083333351,
      "v": 125
    },
    {
      "midi": 70,
      "hit": false,
      "t": 63478.17200000011,
      "d": 280.7967083333351,
      "v": 125
    },
    {
      "midi": 74,
      "hit": false,
      "t": 63478.17200000011,
      "d": 280.7967083333351,
      "v": 125
    },
    {
      "midi": 34,
      "hit": false,
      "t": 63768.026666666774,
      "d": 280.7967083333351,
      "v": 125
    },
    {
      "midi": 65,
      "hit": false,
      "t": 63768.026666666774,
      "d": 280.7967083333351,
      "v": 125
    },
    {
      "midi": 70,
      "hit": false,
      "t": 63768.026666666774,
      "d": 280.7967083333351,
      "v": 125
    },
    {
      "midi": 74,
      "hit": false,
      "t": 63768.026666666774,
      "d": 280.7967083333351,
      "v": 125
    },
    {
      "midi": 34,
      "hit": false,
      "t": 64057.88133333344,
      "d": 280.7967083333351,
      "v": 125
    },
    {
      "midi": 65,
      "hit": false,
      "t": 64057.88133333344,
      "d": 280.7967083333351,
      "v": 125
    },
    {
      "midi": 70,
      "hit": false,
      "t": 64057.88133333344,
      "d": 280.7967083333351,
      "v": 125
    },
    {
      "midi": 74,
      "hit": false,
      "t": 64057.88133333344,
      "d": 280.7967083333351,
      "v": 125
    },
    {
      "midi": 79,
      "hit": false,
      "t": 64347.73600000001,
      "d": 181.15916666666453,
      "v": 121
    },
    {
      "midi": 84,
      "hit": false,
      "t": 64347.73600000001,
      "d": 579.7093333333323,
      "v": 121
    },
    {
      "midi": 34,
      "hit": false,
      "t": 64347.736000000106,
      "d": 280.7967083333351,
      "v": 125
    },
    {
      "midi": 65,
      "hit": false,
      "t": 64347.736000000106,
      "d": 280.7967083333351,
      "v": 125
    },
    {
      "midi": 70,
      "hit": false,
      "t": 64347.736000000106,
      "d": 280.7967083333351,
      "v": 125
    },
    {
      "midi": 74,
      "hit": false,
      "t": 64347.736000000106,
      "d": 280.7967083333351,
      "v": 125
    },
    {
      "midi": 81,
      "hit": false,
      "t": 64528.895166666676,
      "d": 280.7967083333351,
      "v": 121
    },
    {
      "midi": 34,
      "hit": false,
      "t": 64637.59066666677,
      "d": 280.7967083333351,
      "v": 125
    },
    {
      "midi": 65,
      "hit": false,
      "t": 64637.59066666677,
      "d": 280.7967083333351,
      "v": 125
    },
    {
      "midi": 70,
      "hit": false,
      "t": 64637.59066666677,
      "d": 280.7967083333351,
      "v": 125
    },
    {
      "midi": 74,
      "hit": false,
      "t": 64637.59066666677,
      "d": 280.7967083333351,
      "v": 125
    },
    {
      "midi": 79,
      "hit": false,
      "t": 64927.445333333344,
      "d": 579.7093333333323,
      "v": 121
    },
    {
      "midi": 84,
      "hit": false,
      "t": 64927.445333333344,
      "d": 579.7093333333323,
      "v": 121
    },
    {
      "midi": 34,
      "hit": false,
      "t": 64927.44533333344,
      "d": 280.7967083333351,
      "v": 125
    },
    {
      "midi": 65,
      "hit": false,
      "t": 64927.44533333344,
      "d": 280.7967083333351,
      "v": 125
    },
    {
      "midi": 70,
      "hit": false,
      "t": 64927.44533333344,
      "d": 280.7967083333351,
      "v": 125
    },
    {
      "midi": 74,
      "hit": false,
      "t": 64927.44533333344,
      "d": 280.7967083333351,
      "v": 125
    },
    {
      "midi": 34,
      "hit": false,
      "t": 65217.300000000105,
      "d": 280.7967083333351,
      "v": 125
    },
    {
      "midi": 65,
      "hit": false,
      "t": 65217.300000000105,
      "d": 280.7967083333351,
      "v": 125
    },
    {
      "midi": 70,
      "hit": false,
      "t": 65217.300000000105,
      "d": 280.7967083333351,
      "v": 125
    },
    {
      "midi": 74,
      "hit": false,
      "t": 65217.300000000105,
      "d": 280.7967083333351,
      "v": 125
    },
    {
      "midi": 77,
      "hit": false,
      "t": 65507.154666666676,
      "d": 280.79670833332784,
      "v": 121
    },
    {
      "midi": 82,
      "hit": false,
      "t": 65507.154666666676,
      "d": 280.79670833332784,
      "v": 121
    },
    {
      "midi": 34,
      "hit": false,
      "t": 65507.15466666677,
      "d": 280.7967083333351,
      "v": 125
    },
    {
      "midi": 65,
      "hit": false,
      "t": 65507.15466666677,
      "d": 280.7967083333351,
      "v": 125
    },
    {
      "midi": 70,
      "hit": false,
      "t": 65507.15466666677,
      "d": 280.7967083333351,
      "v": 125
    },
    {
      "midi": 74,
      "hit": false,
      "t": 65507.15466666677,
      "d": 280.7967083333351,
      "v": 125
    },
    {
      "midi": 34,
      "hit": false,
      "t": 65797.00933333344,
      "d": 280.7967083333351,
      "v": 125
    },
    {
      "midi": 65,
      "hit": false,
      "t": 65797.00933333344,
      "d": 280.7967083333351,
      "v": 125
    },
    {
      "midi": 70,
      "hit": false,
      "t": 65797.00933333344,
      "d": 280.7967083333351,
      "v": 125
    },
    {
      "midi": 74,
      "hit": false,
      "t": 65797.00933333344,
      "d": 280.7967083333351,
      "v": 125
    },
    {
      "midi": 73,
      "hit": false,
      "t": 66086.864,
      "d": 1449.2733333333308,
      "v": 121
    },
    {
      "midi": 77,
      "hit": false,
      "t": 66086.864,
      "d": 1449.2733333333308,
      "v": 121
    },
    {
      "midi": 34,
      "hit": false,
      "t": 66086.8640000001,
      "d": 280.7967083333351,
      "v": 125
    },
    {
      "midi": 65,
      "hit": false,
      "t": 66086.8640000001,
      "d": 280.7967083333351,
      "v": 125
    },
    {
      "midi": 70,
      "hit": false,
      "t": 66086.8640000001,
      "d": 280.7967083333351,
      "v": 125
    },
    {
      "midi": 73,
      "hit": false,
      "t": 66086.8640000001,
      "d": 280.7967083333351,
      "v": 125
    },
    {
      "midi": 34,
      "hit": false,
      "t": 66376.71866666677,
      "d": 280.7967083333351,
      "v": 125
    },
    {
      "midi": 65,
      "hit": false,
      "t": 66376.71866666677,
      "d": 280.7967083333351,
      "v": 125
    },
    {
      "midi": 70,
      "hit": false,
      "t": 66376.71866666677,
      "d": 280.7967083333351,
      "v": 125
    },
    {
      "midi": 73,
      "hit": false,
      "t": 66376.71866666677,
      "d": 280.7967083333351,
      "v": 125
    },
    {
      "midi": 34,
      "hit": false,
      "t": 66666.57333333344,
      "d": 280.7967083333351,
      "v": 125
    },
    {
      "midi": 65,
      "hit": false,
      "t": 66666.57333333344,
      "d": 280.7967083333351,
      "v": 125
    },
    {
      "midi": 70,
      "hit": false,
      "t": 66666.57333333344,
      "d": 280.7967083333351,
      "v": 125
    },
    {
      "midi": 73,
      "hit": false,
      "t": 66666.57333333344,
      "d": 280.7967083333351,
      "v": 125
    },
    {
      "midi": 34,
      "hit": false,
      "t": 66956.4280000001,
      "d": 280.7967083333351,
      "v": 125
    },
    {
      "midi": 65,
      "hit": false,
      "t": 66956.4280000001,
      "d": 280.7967083333351,
      "v": 125
    },
    {
      "midi": 70,
      "hit": false,
      "t": 66956.4280000001,
      "d": 280.7967083333351,
      "v": 125
    },
    {
      "midi": 73,
      "hit": false,
      "t": 66956.4280000001,
      "d": 280.7967083333351,
      "v": 125
    },
    {
      "midi": 34,
      "hit": false,
      "t": 67246.28266666677,
      "d": 280.7967083333351,
      "v": 125
    },
    {
      "midi": 65,
      "hit": false,
      "t": 67246.28266666677,
      "d": 280.7967083333351,
      "v": 125
    },
    {
      "midi": 70,
      "hit": false,
      "t": 67246.28266666677,
      "d": 280.7967083333351,
      "v": 125
    },
    {
      "midi": 73,
      "hit": false,
      "t": 67246.28266666677,
      "d": 280.7967083333351,
      "v": 125
    },
    {
      "midi": 34,
      "hit": false,
      "t": 67536.13733333343,
      "d": 280.7967083333351,
      "v": 125
    },
    {
      "midi": 65,
      "hit": false,
      "t": 67536.13733333343,
      "d": 280.7967083333351,
      "v": 125
    },
    {
      "midi": 70,
      "hit": false,
      "t": 67536.13733333343,
      "d": 280.7967083333351,
      "v": 125
    },
    {
      "midi": 73,
      "hit": false,
      "t": 67536.13733333343,
      "d": 280.7967083333351,
      "v": 125
    },
    {
      "midi": 79,
      "hit": false,
      "t": 67825.992,
      "d": 181.15916666666453,
      "v": 121
    },
    {
      "midi": 84,
      "hit": false,
      "t": 67825.992,
      "d": 579.7093333333323,
      "v": 121
    },
    {
      "midi": 34,
      "hit": false,
      "t": 67825.9920000001,
      "d": 280.7967083333351,
      "v": 125
    },
    {
      "midi": 65,
      "hit": false,
      "t": 67825.9920000001,
      "d": 280.7967083333351,
      "v": 125
    },
    {
      "midi": 70,
      "hit": false,
      "t": 67825.9920000001,
      "d": 280.7967083333351,
      "v": 125
    },
    {
      "midi": 73,
      "hit": false,
      "t": 67825.9920000001,
      "d": 280.7967083333351,
      "v": 125
    },
    {
      "midi": 81,
      "hit": false,
      "t": 68007.15116666666,
      "d": 280.7967083333351,
      "v": 121
    },
    {
      "midi": 34,
      "hit": false,
      "t": 68115.84666666677,
      "d": 280.7967083333351,
      "v": 125
    },
    {
      "midi": 65,
      "hit": false,
      "t": 68115.84666666677,
      "d": 280.7967083333351,
      "v": 125
    },
    {
      "midi": 70,
      "hit": false,
      "t": 68115.84666666677,
      "d": 280.7967083333351,
      "v": 125
    },
    {
      "midi": 73,
      "hit": false,
      "t": 68115.84666666677,
      "d": 280.7967083333351,
      "v": 125
    },
    {
      "midi": 79,
      "hit": false,
      "t": 68405.70133333333,
      "d": 579.7093333333323,
      "v": 121
    },
    {
      "midi": 84,
      "hit": false,
      "t": 68405.70133333333,
      "d": 579.7093333333323,
      "v": 121
    },
    {
      "midi": 34,
      "hit": false,
      "t": 68405.70133333343,
      "d": 280.7967083333351,
      "v": 125
    },
    {
      "midi": 65,
      "hit": false,
      "t": 68405.70133333343,
      "d": 280.7967083333351,
      "v": 125
    },
    {
      "midi": 70,
      "hit": false,
      "t": 68405.70133333343,
      "d": 280.7967083333351,
      "v": 125
    },
    {
      "midi": 73,
      "hit": false,
      "t": 68405.70133333343,
      "d": 280.7967083333351,
      "v": 125
    },
    {
      "midi": 34,
      "hit": false,
      "t": 68695.5560000001,
      "d": 280.7967083333351,
      "v": 125
    },
    {
      "midi": 65,
      "hit": false,
      "t": 68695.5560000001,
      "d": 280.7967083333351,
      "v": 125
    },
    {
      "midi": 70,
      "hit": false,
      "t": 68695.5560000001,
      "d": 280.7967083333351,
      "v": 125
    },
    {
      "midi": 73,
      "hit": false,
      "t": 68695.5560000001,
      "d": 280.7967083333351,
      "v": 125
    },
    {
      "midi": 77,
      "hit": false,
      "t": 68985.41066666666,
      "d": 280.7967083333351,
      "v": 121
    },
    {
      "midi": 82,
      "hit": false,
      "t": 68985.41066666666,
      "d": 280.7967083333351,
      "v": 121
    },
    {
      "midi": 34,
      "hit": false,
      "t": 68985.41066666676,
      "d": 280.7967083333351,
      "v": 125
    },
    {
      "midi": 65,
      "hit": false,
      "t": 68985.41066666676,
      "d": 280.7967083333351,
      "v": 125
    },
    {
      "midi": 70,
      "hit": false,
      "t": 68985.41066666676,
      "d": 280.7967083333351,
      "v": 125
    },
    {
      "midi": 73,
      "hit": false,
      "t": 68985.41066666676,
      "d": 280.7967083333351,
      "v": 125
    },
    {
      "midi": 34,
      "hit": false,
      "t": 69275.26533333343,
      "d": 280.7967083333351,
      "v": 125
    },
    {
      "midi": 65,
      "hit": false,
      "t": 69275.26533333343,
      "d": 280.7967083333351,
      "v": 125
    },
    {
      "midi": 70,
      "hit": false,
      "t": 69275.26533333343,
      "d": 280.7967083333351,
      "v": 125
    },
    {
      "midi": 73,
      "hit": false,
      "t": 69275.26533333343,
      "d": 280.7967083333351,
      "v": 125
    },
    {
      "midi": 72,
      "hit": false,
      "t": 69565.12,
      "d": 1159.4186666666646,
      "v": 122
    },
    {
      "midi": 77,
      "hit": false,
      "t": 69565.12,
      "d": 1159.4186666666646,
      "v": 122
    },
    {
      "midi": 41,
      "hit": false,
      "t": 69565.1200000001,
      "d": 280.7967083333351,
      "v": 125
    },
    {
      "midi": 65,
      "hit": false,
      "t": 69565.1200000001,
      "d": 280.7967083333351,
      "v": 125
    },
    {
      "midi": 69,
      "hit": false,
      "t": 69565.1200000001,
      "d": 280.7967083333351,
      "v": 125
    },
    {
      "midi": 72,
      "hit": false,
      "t": 69565.1200000001,
      "d": 280.7967083333351,
      "v": 125
    },
    {
      "midi": 41,
      "hit": false,
      "t": 69854.97466666676,
      "d": 280.7967083333351,
      "v": 125
    },
    {
      "midi": 65,
      "hit": false,
      "t": 69854.97466666676,
      "d": 280.7967083333351,
      "v": 125
    },
    {
      "midi": 69,
      "hit": false,
      "t": 69854.97466666676,
      "d": 280.7967083333351,
      "v": 125
    },
    {
      "midi": 72,
      "hit": false,
      "t": 69854.97466666676,
      "d": 280.7967083333351,
      "v": 125
    },
    {
      "midi": 41,
      "hit": false,
      "t": 70144.82933333343,
      "d": 280.7967083333351,
      "v": 125
    },
    {
      "midi": 65,
      "hit": false,
      "t": 70144.82933333343,
      "d": 280.7967083333351,
      "v": 125
    },
    {
      "midi": 69,
      "hit": false,
      "t": 70144.82933333343,
      "d": 280.7967083333351,
      "v": 125
    },
    {
      "midi": 72,
      "hit": false,
      "t": 70144.82933333343,
      "d": 280.7967083333351,
      "v": 125
    },
    {
      "midi": 41,
      "hit": false,
      "t": 70434.6840000001,
      "d": 280.7967083333351,
      "v": 125
    },
    {
      "midi": 65,
      "hit": false,
      "t": 70434.6840000001,
      "d": 280.7967083333351,
      "v": 125
    },
    {
      "midi": 69,
      "hit": false,
      "t": 70434.6840000001,
      "d": 280.7967083333351,
      "v": 125
    },
    {
      "midi": 72,
      "hit": false,
      "t": 70434.6840000001,
      "d": 280.7967083333351,
      "v": 125
    },
    {
      "midi": 69,
      "hit": false,
      "t": 70724.53866666666,
      "d": 280.7967083333351,
      "v": 122
    },
    {
      "midi": 41,
      "hit": false,
      "t": 70724.53866666676,
      "d": 280.7967083333351,
      "v": 125
    },
    {
      "midi": 65,
      "hit": false,
      "t": 70724.53866666676,
      "d": 280.7967083333351,
      "v": 125
    },
    {
      "midi": 69,
      "hit": false,
      "t": 70724.53866666676,
      "d": 280.7967083333351,
      "v": 125
    },
    {
      "midi": 72,
      "hit": false,
      "t": 70724.53866666676,
      "d": 280.7967083333351,
      "v": 125
    },
    {
      "midi": 72,
      "hit": false,
      "t": 71014.39333333333,
      "d": 280.7967083333351,
      "v": 122
    },
    {
      "midi": 77,
      "hit": false,
      "t": 71014.39333333333,
      "d": 280.7967083333351,
      "v": 122
    },
    {
      "midi": 41,
      "hit": false,
      "t": 71014.39333333343,
      "d": 280.7967083333351,
      "v": 125
    },
    {
      "midi": 65,
      "hit": false,
      "t": 71014.39333333343,
      "d": 280.7967083333351,
      "v": 125
    },
    {
      "midi": 69,
      "hit": false,
      "t": 71014.39333333343,
      "d": 280.7967083333351,
      "v": 125
    },
    {
      "midi": 72,
      "hit": false,
      "t": 71014.39333333343,
      "d": 280.7967083333351,
      "v": 125
    },
    {
      "midi": 72,
      "hit": false,
      "t": 71304.24799999999,
      "d": 181.15916666666453,
      "v": 122
    },
    {
      "midi": 77,
      "hit": false,
      "t": 71304.24799999999,
      "d": 1159.4186666666646,
      "v": 122
    },
    {
      "midi": 41,
      "hit": false,
      "t": 71304.2480000001,
      "d": 280.7967083333351,
      "v": 125
    },
    {
      "midi": 65,
      "hit": false,
      "t": 71304.2480000001,
      "d": 280.7967083333351,
      "v": 125
    },
    {
      "midi": 69,
      "hit": false,
      "t": 71304.2480000001,
      "d": 280.7967083333351,
      "v": 125
    },
    {
      "midi": 72,
      "hit": false,
      "t": 71304.2480000001,
      "d": 280.7967083333351,
      "v": 125
    },
    {
      "midi": 74,
      "hit": false,
      "t": 71485.40716666666,
      "d": 869.5639999999985,
      "v": 122
    },
    {
      "midi": 41,
      "hit": false,
      "t": 71594.10266666676,
      "d": 280.7967083333351,
      "v": 125
    },
    {
      "midi": 65,
      "hit": false,
      "t": 71594.10266666676,
      "d": 280.7967083333351,
      "v": 125
    },
    {
      "midi": 69,
      "hit": false,
      "t": 71594.10266666676,
      "d": 280.7967083333351,
      "v": 125
    },
    {
      "midi": 72,
      "hit": false,
      "t": 71594.10266666676,
      "d": 280.7967083333351,
      "v": 125
    },
    {
      "midi": 41,
      "hit": false,
      "t": 71883.95733333343,
      "d": 280.7967083333351,
      "v": 125
    },
    {
      "midi": 65,
      "hit": false,
      "t": 71883.95733333343,
      "d": 280.7967083333351,
      "v": 125
    },
    {
      "midi": 69,
      "hit": false,
      "t": 71883.95733333343,
      "d": 280.7967083333351,
      "v": 125
    },
    {
      "midi": 72,
      "hit": false,
      "t": 71883.95733333343,
      "d": 280.7967083333351,
      "v": 125
    },
    {
      "midi": 41,
      "hit": false,
      "t": 72173.81200000009,
      "d": 280.7967083333351,
      "v": 125
    },
    {
      "midi": 65,
      "hit": false,
      "t": 72173.81200000009,
      "d": 280.7967083333351,
      "v": 125
    },
    {
      "midi": 69,
      "hit": false,
      "t": 72173.81200000009,
      "d": 280.7967083333351,
      "v": 125
    },
    {
      "midi": 72,
      "hit": false,
      "t": 72173.81200000009,
      "d": 280.7967083333351,
      "v": 125
    },
    {
      "midi": 69,
      "hit": false,
      "t": 72463.66666666666,
      "d": 280.7967083333351,
      "v": 122
    },
    {
      "midi": 41,
      "hit": false,
      "t": 72463.66666666676,
      "d": 280.7967083333351,
      "v": 125
    },
    {
      "midi": 65,
      "hit": false,
      "t": 72463.66666666676,
      "d": 280.7967083333351,
      "v": 125
    },
    {
      "midi": 69,
      "hit": false,
      "t": 72463.66666666676,
      "d": 280.7967083333351,
      "v": 125
    },
    {
      "midi": 72,
      "hit": false,
      "t": 72463.66666666676,
      "d": 280.7967083333351,
      "v": 125
    },
    {
      "midi": 70,
      "hit": false,
      "t": 72753.52133333332,
      "d": 280.7967083333351,
      "v": 122
    },
    {
      "midi": 41,
      "hit": false,
      "t": 72753.52133333342,
      "d": 280.7967083333351,
      "v": 125
    },
    {
      "midi": 65,
      "hit": false,
      "t": 72753.52133333342,
      "d": 280.7967083333351,
      "v": 125
    },
    {
      "midi": 69,
      "hit": false,
      "t": 72753.52133333342,
      "d": 280.7967083333351,
      "v": 125
    },
    {
      "midi": 72,
      "hit": false,
      "t": 72753.52133333342,
      "d": 280.7967083333351,
      "v": 125
    },
    {
      "midi": 72,
      "hit": false,
      "t": 73043.37599999999,
      "d": 2898.5466666666616,
      "v": 122
    },
    {
      "midi": 77,
      "hit": false,
      "t": 73043.37599999999,
      "d": 2898.5466666666616,
      "v": 122
    },
    {
      "midi": 41,
      "hit": false,
      "t": 73043.37600000009,
      "d": 280.7967083333351,
      "v": 125
    },
    {
      "midi": 65,
      "hit": false,
      "t": 73043.37600000009,
      "d": 280.7967083333351,
      "v": 125
    },
    {
      "midi": 69,
      "hit": false,
      "t": 73043.37600000009,
      "d": 280.7967083333351,
      "v": 125
    },
    {
      "midi": 72,
      "hit": false,
      "t": 73043.37600000009,
      "d": 280.7967083333351,
      "v": 125
    },
    {
      "midi": 41,
      "hit": false,
      "t": 73333.23066666676,
      "d": 280.7967083333351,
      "v": 125
    },
    {
      "midi": 65,
      "hit": false,
      "t": 73333.23066666676,
      "d": 280.7967083333351,
      "v": 125
    },
    {
      "midi": 69,
      "hit": false,
      "t": 73333.23066666676,
      "d": 280.7967083333351,
      "v": 125
    },
    {
      "midi": 72,
      "hit": false,
      "t": 73333.23066666676,
      "d": 280.7967083333351,
      "v": 125
    },
    {
      "midi": 41,
      "hit": false,
      "t": 73623.08533333342,
      "d": 280.7967083333351,
      "v": 125
    },
    {
      "midi": 65,
      "hit": false,
      "t": 73623.08533333342,
      "d": 280.7967083333351,
      "v": 125
    },
    {
      "midi": 69,
      "hit": false,
      "t": 73623.08533333342,
      "d": 280.7967083333351,
      "v": 125
    },
    {
      "midi": 72,
      "hit": false,
      "t": 73623.08533333342,
      "d": 280.7967083333351,
      "v": 125
    },
    {
      "midi": 41,
      "hit": false,
      "t": 73912.94000000009,
      "d": 280.7967083333351,
      "v": 125
    },
    {
      "midi": 65,
      "hit": false,
      "t": 73912.94000000009,
      "d": 280.7967083333351,
      "v": 125
    },
    {
      "midi": 69,
      "hit": false,
      "t": 73912.94000000009,
      "d": 280.7967083333351,
      "v": 125
    },
    {
      "midi": 72,
      "hit": false,
      "t": 73912.94000000009,
      "d": 280.7967083333351,
      "v": 125
    },
    {
      "midi": 41,
      "hit": false,
      "t": 74202.79466666676,
      "d": 280.7967083333351,
      "v": 125
    },
    {
      "midi": 65,
      "hit": false,
      "t": 74202.79466666676,
      "d": 280.7967083333351,
      "v": 125
    },
    {
      "midi": 69,
      "hit": false,
      "t": 74202.79466666676,
      "d": 280.7967083333351,
      "v": 125
    },
    {
      "midi": 72,
      "hit": false,
      "t": 74202.79466666676,
      "d": 280.7967083333351,
      "v": 125
    },
    {
      "midi": 41,
      "hit": false,
      "t": 74492.64933333342,
      "d": 280.7967083333351,
      "v": 125
    },
    {
      "midi": 65,
      "hit": false,
      "t": 74492.64933333342,
      "d": 280.7967083333351,
      "v": 125
    },
    {
      "midi": 69,
      "hit": false,
      "t": 74492.64933333342,
      "d": 280.7967083333351,
      "v": 125
    },
    {
      "midi": 72,
      "hit": false,
      "t": 74492.64933333342,
      "d": 280.7967083333351,
      "v": 125
    },
    {
      "midi": 41,
      "hit": false,
      "t": 74782.50400000009,
      "d": 280.7967083333351,
      "v": 125
    },
    {
      "midi": 65,
      "hit": false,
      "t": 74782.50400000009,
      "d": 280.7967083333351,
      "v": 125
    },
    {
      "midi": 69,
      "hit": false,
      "t": 74782.50400000009,
      "d": 280.7967083333351,
      "v": 125
    },
    {
      "midi": 72,
      "hit": false,
      "t": 74782.50400000009,
      "d": 280.7967083333351,
      "v": 125
    },
    {
      "midi": 41,
      "hit": false,
      "t": 75072.35866666675,
      "d": 280.7967083333351,
      "v": 125
    },
    {
      "midi": 65,
      "hit": false,
      "t": 75072.35866666675,
      "d": 280.7967083333351,
      "v": 125
    },
    {
      "midi": 69,
      "hit": false,
      "t": 75072.35866666675,
      "d": 280.7967083333351,
      "v": 125
    },
    {
      "midi": 72,
      "hit": false,
      "t": 75072.35866666675,
      "d": 280.7967083333351,
      "v": 125
    },
    {
      "midi": 41,
      "hit": false,
      "t": 75362.21333333342,
      "d": 280.7967083333351,
      "v": 125
    },
    {
      "midi": 65,
      "hit": false,
      "t": 75362.21333333342,
      "d": 280.7967083333351,
      "v": 125
    },
    {
      "midi": 69,
      "hit": false,
      "t": 75362.21333333342,
      "d": 280.7967083333351,
      "v": 125
    },
    {
      "midi": 72,
      "hit": false,
      "t": 75362.21333333342,
      "d": 280.7967083333351,
      "v": 125
    },
    {
      "midi": 41,
      "hit": false,
      "t": 75652.06800000009,
      "d": 280.7967083333351,
      "v": 125
    },
    {
      "midi": 65,
      "hit": false,
      "t": 75652.06800000009,
      "d": 280.7967083333351,
      "v": 125
    },
    {
      "midi": 69,
      "hit": false,
      "t": 75652.06800000009,
      "d": 280.7967083333351,
      "v": 125
    },
    {
      "midi": 72,
      "hit": false,
      "t": 75652.06800000009,
      "d": 280.7967083333351,
      "v": 125
    },
    {
      "midi": 65,
      "hit": false,
      "t": 75941.92266666665,
      "d": 280.7967083333351,
      "v": 122
    },
    {
      "midi": 41,
      "hit": false,
      "t": 75941.92266666675,
      "d": 280.7967083333351,
      "v": 125
    },
    {
      "midi": 65,
      "hit": false,
      "t": 75941.92266666675,
      "d": 280.7967083333351,
      "v": 125
    },
    {
      "midi": 69,
      "hit": false,
      "t": 75941.92266666675,
      "d": 280.7967083333351,
      "v": 125
    },
    {
      "midi": 72,
      "hit": false,
      "t": 75941.92266666675,
      "d": 280.7967083333351,
      "v": 125
    },
    {
      "midi": 65,
      "hit": false,
      "t": 76231.77733333332,
      "d": 280.7967083333351,
      "v": 122
    },
    {
      "midi": 41,
      "hit": false,
      "t": 76231.77733333342,
      "d": 280.7967083333351,
      "v": 125
    },
    {
      "midi": 65,
      "hit": false,
      "t": 76231.77733333342,
      "d": 280.7967083333351,
      "v": 125
    },
    {
      "midi": 69,
      "hit": false,
      "t": 76231.77733333342,
      "d": 280.7967083333351,
      "v": 125
    },
    {
      "midi": 72,
      "hit": false,
      "t": 76231.77733333342,
      "d": 280.7967083333351,
      "v": 125
    },
    {
      "midi": 72,
      "hit": false,
      "t": 76521.63199999998,
      "d": 153.9852916666714,
      "v": 122
    },
    {
      "midi": 77,
      "hit": false,
      "t": 76521.63199999998,
      "d": 579.7093333333323,
      "v": 122
    },
    {
      "midi": 34,
      "hit": false,
      "t": 76521.63200000009,
      "d": 280.7967083333351,
      "v": 125
    },
    {
      "midi": 65,
      "hit": false,
      "t": 76521.63200000009,
      "d": 280.7967083333351,
      "v": 125
    },
    {
      "midi": 70,
      "hit": false,
      "t": 76521.63200000009,
      "d": 280.7967083333351,
      "v": 125
    },
    {
      "midi": 74,
      "hit": false,
      "t": 76521.63200000009,
      "d": 280.7967083333351,
      "v": 125
    },
    {
      "midi": 74,
      "hit": false,
      "t": 76702.79116666665,
      "d": 280.7967083333351,
      "v": 122
    },
    {
      "midi": 34,
      "hit": false,
      "t": 76811.48666666675,
      "d": 280.7967083333351,
      "v": 125
    },
    {
      "midi": 65,
      "hit": false,
      "t": 76811.48666666675,
      "d": 280.7967083333351,
      "v": 125
    },
    {
      "midi": 70,
      "hit": false,
      "t": 76811.48666666675,
      "d": 280.7967083333351,
      "v": 125
    },
    {
      "midi": 74,
      "hit": false,
      "t": 76811.48666666675,
      "d": 280.7967083333351,
      "v": 125
    },
    {
      "midi": 72,
      "hit": false,
      "t": 77101.34133333332,
      "d": 181.15916666666453,
      "v": 122
    },
    {
      "midi": 77,
      "hit": false,
      "t": 77101.34133333332,
      "d": 869.5639999999985,
      "v": 122
    },
    {
      "midi": 34,
      "hit": false,
      "t": 77101.34133333342,
      "d": 280.7967083333351,
      "v": 125
    },
    {
      "midi": 65,
      "hit": false,
      "t": 77101.34133333342,
      "d": 280.7967083333351,
      "v": 125
    },
    {
      "midi": 70,
      "hit": false,
      "t": 77101.34133333342,
      "d": 280.7967083333351,
      "v": 125
    },
    {
      "midi": 74,
      "hit": false,
      "t": 77101.34133333342,
      "d": 280.7967083333351,
      "v": 125
    },
    {
      "midi": 74,
      "hit": false,
      "t": 77282.50049999998,
      "d": 579.7093333333323,
      "v": 122
    },
    {
      "midi": 34,
      "hit": false,
      "t": 77391.19600000008,
      "d": 280.7967083333351,
      "v": 125
    },
    {
      "midi": 65,
      "hit": false,
      "t": 77391.19600000008,
      "d": 280.7967083333351,
      "v": 125
    },
    {
      "midi": 70,
      "hit": false,
      "t": 77391.19600000008,
      "d": 280.7967083333351,
      "v": 125
    },
    {
      "midi": 74,
      "hit": false,
      "t": 77391.19600000008,
      "d": 280.7967083333351,
      "v": 125
    },
    {
      "midi": 34,
      "hit": false,
      "t": 77681.05066666675,
      "d": 280.7967083333351,
      "v": 125
    },
    {
      "midi": 65,
      "hit": false,
      "t": 77681.05066666675,
      "d": 280.7967083333351,
      "v": 125
    },
    {
      "midi": 70,
      "hit": false,
      "t": 77681.05066666675,
      "d": 280.7967083333351,
      "v": 125
    },
    {
      "midi": 74,
      "hit": false,
      "t": 77681.05066666675,
      "d": 280.7967083333351,
      "v": 125
    },
    {
      "midi": 34,
      "hit": false,
      "t": 77970.90533333342,
      "d": 280.7967083333351,
      "v": 125
    },
    {
      "midi": 65,
      "hit": false,
      "t": 77970.90533333342,
      "d": 280.7967083333351,
      "v": 125
    },
    {
      "midi": 70,
      "hit": false,
      "t": 77970.90533333342,
      "d": 280.7967083333351,
      "v": 125
    },
    {
      "midi": 74,
      "hit": false,
      "t": 77970.90533333342,
      "d": 280.7967083333351,
      "v": 125
    },
    {
      "midi": 79,
      "hit": false,
      "t": 78260.75999999998,
      "d": 181.15916666666453,
      "v": 122
    },
    {
      "midi": 84,
      "hit": false,
      "t": 78260.75999999998,
      "d": 579.7093333333323,
      "v": 122
    },
    {
      "midi": 34,
      "hit": false,
      "t": 78260.76000000008,
      "d": 280.7967083333351,
      "v": 125
    },
    {
      "midi": 65,
      "hit": false,
      "t": 78260.76000000008,
      "d": 280.7967083333351,
      "v": 125
    },
    {
      "midi": 70,
      "hit": false,
      "t": 78260.76000000008,
      "d": 280.7967083333351,
      "v": 125
    },
    {
      "midi": 74,
      "hit": false,
      "t": 78260.76000000008,
      "d": 280.7967083333351,
      "v": 125
    },
    {
      "midi": 81,
      "hit": false,
      "t": 78441.91916666664,
      "d": 280.7967083333351,
      "v": 122
    },
    {
      "midi": 34,
      "hit": false,
      "t": 78550.61466666675,
      "d": 280.7967083333351,
      "v": 125
    },
    {
      "midi": 65,
      "hit": false,
      "t": 78550.61466666675,
      "d": 280.7967083333351,
      "v": 125
    },
    {
      "midi": 70,
      "hit": false,
      "t": 78550.61466666675,
      "d": 280.7967083333351,
      "v": 125
    },
    {
      "midi": 74,
      "hit": false,
      "t": 78550.61466666675,
      "d": 280.7967083333351,
      "v": 125
    },
    {
      "midi": 79,
      "hit": false,
      "t": 78840.46933333331,
      "d": 579.7093333333323,
      "v": 122
    },
    {
      "midi": 84,
      "hit": false,
      "t": 78840.46933333331,
      "d": 579.7093333333323,
      "v": 122
    },
    {
      "midi": 34,
      "hit": false,
      "t": 78840.46933333341,
      "d": 280.7967083333351,
      "v": 125
    },
    {
      "midi": 65,
      "hit": false,
      "t": 78840.46933333341,
      "d": 280.7967083333351,
      "v": 125
    },
    {
      "midi": 70,
      "hit": false,
      "t": 78840.46933333341,
      "d": 280.7967083333351,
      "v": 125
    },
    {
      "midi": 74,
      "hit": false,
      "t": 78840.46933333341,
      "d": 280.7967083333351,
      "v": 125
    },
    {
      "midi": 34,
      "hit": false,
      "t": 79130.32400000008,
      "d": 280.7967083333351,
      "v": 125
    },
    {
      "midi": 65,
      "hit": false,
      "t": 79130.32400000008,
      "d": 280.7967083333351,
      "v": 125
    },
    {
      "midi": 70,
      "hit": false,
      "t": 79130.32400000008,
      "d": 280.7967083333351,
      "v": 125
    },
    {
      "midi": 74,
      "hit": false,
      "t": 79130.32400000008,
      "d": 280.7967083333351,
      "v": 125
    },
    {
      "midi": 77,
      "hit": false,
      "t": 79420.17866666664,
      "d": 280.7967083333351,
      "v": 122
    },
    {
      "midi": 82,
      "hit": false,
      "t": 79420.17866666664,
      "d": 280.7967083333351,
      "v": 122
    },
    {
      "midi": 34,
      "hit": false,
      "t": 79420.17866666675,
      "d": 280.7967083333351,
      "v": 125
    },
    {
      "midi": 65,
      "hit": false,
      "t": 79420.17866666675,
      "d": 280.7967083333351,
      "v": 125
    },
    {
      "midi": 70,
      "hit": false,
      "t": 79420.17866666675,
      "d": 280.7967083333351,
      "v": 125
    },
    {
      "midi": 74,
      "hit": false,
      "t": 79420.17866666675,
      "d": 280.7967083333351,
      "v": 125
    },
    {
      "midi": 34,
      "hit": false,
      "t": 79710.03333333341,
      "d": 280.7967083333351,
      "v": 125
    },
    {
      "midi": 65,
      "hit": false,
      "t": 79710.03333333341,
      "d": 280.7967083333351,
      "v": 125
    },
    {
      "midi": 70,
      "hit": false,
      "t": 79710.03333333341,
      "d": 280.7967083333351,
      "v": 125
    },
    {
      "midi": 74,
      "hit": false,
      "t": 79710.03333333341,
      "d": 280.7967083333351,
      "v": 125
    },
    {
      "midi": 73,
      "hit": false,
      "t": 79999.88799999998,
      "d": 1449.2733333333308,
      "v": 122
    },
    {
      "midi": 77,
      "hit": false,
      "t": 79999.88799999998,
      "d": 1449.2733333333308,
      "v": 122
    },
    {
      "midi": 34,
      "hit": false,
      "t": 79999.88800000008,
      "d": 280.7967083333351,
      "v": 125
    },
    {
      "midi": 65,
      "hit": false,
      "t": 79999.88800000008,
      "d": 280.7967083333351,
      "v": 125
    },
    {
      "midi": 70,
      "hit": false,
      "t": 79999.88800000008,
      "d": 280.7967083333351,
      "v": 125
    },
    {
      "midi": 73,
      "hit": false,
      "t": 79999.88800000008,
      "d": 280.7967083333351,
      "v": 125
    },
    {
      "midi": 34,
      "hit": false,
      "t": 80289.74266666675,
      "d": 280.7967083333351,
      "v": 125
    },
    {
      "midi": 65,
      "hit": false,
      "t": 80289.74266666675,
      "d": 280.7967083333351,
      "v": 125
    },
    {
      "midi": 70,
      "hit": false,
      "t": 80289.74266666675,
      "d": 280.7967083333351,
      "v": 125
    },
    {
      "midi": 73,
      "hit": false,
      "t": 80289.74266666675,
      "d": 280.7967083333351,
      "v": 125
    },
    {
      "midi": 34,
      "hit": false,
      "t": 80579.59733333341,
      "d": 280.7967083333351,
      "v": 125
    },
    {
      "midi": 65,
      "hit": false,
      "t": 80579.59733333341,
      "d": 280.7967083333351,
      "v": 125
    },
    {
      "midi": 70,
      "hit": false,
      "t": 80579.59733333341,
      "d": 280.7967083333351,
      "v": 125
    },
    {
      "midi": 73,
      "hit": false,
      "t": 80579.59733333341,
      "d": 280.7967083333351,
      "v": 125
    },
    {
      "midi": 34,
      "hit": false,
      "t": 80869.45200000008,
      "d": 280.7967083333351,
      "v": 125
    },
    {
      "midi": 65,
      "hit": false,
      "t": 80869.45200000008,
      "d": 280.7967083333351,
      "v": 125
    },
    {
      "midi": 70,
      "hit": false,
      "t": 80869.45200000008,
      "d": 280.7967083333351,
      "v": 125
    },
    {
      "midi": 73,
      "hit": false,
      "t": 80869.45200000008,
      "d": 280.7967083333351,
      "v": 125
    },
    {
      "midi": 34,
      "hit": false,
      "t": 81159.30666666674,
      "d": 280.7967083333351,
      "v": 125
    },
    {
      "midi": 65,
      "hit": false,
      "t": 81159.30666666674,
      "d": 280.7967083333351,
      "v": 125
    },
    {
      "midi": 70,
      "hit": false,
      "t": 81159.30666666674,
      "d": 280.7967083333351,
      "v": 125
    },
    {
      "midi": 73,
      "hit": false,
      "t": 81159.30666666674,
      "d": 280.7967083333351,
      "v": 125
    },
    {
      "midi": 34,
      "hit": false,
      "t": 81449.16133333341,
      "d": 280.7967083333351,
      "v": 125
    },
    {
      "midi": 65,
      "hit": false,
      "t": 81449.16133333341,
      "d": 280.7967083333351,
      "v": 125
    },
    {
      "midi": 70,
      "hit": false,
      "t": 81449.16133333341,
      "d": 280.7967083333351,
      "v": 125
    },
    {
      "midi": 73,
      "hit": false,
      "t": 81449.16133333341,
      "d": 280.7967083333351,
      "v": 125
    },
    {
      "midi": 79,
      "hit": false,
      "t": 81739.01599999997,
      "d": 181.15916666666453,
      "v": 122
    },
    {
      "midi": 84,
      "hit": false,
      "t": 81739.01599999997,
      "d": 579.7093333333323,
      "v": 122
    },
    {
      "midi": 34,
      "hit": false,
      "t": 81739.01600000008,
      "d": 280.7967083333351,
      "v": 125
    },
    {
      "midi": 65,
      "hit": false,
      "t": 81739.01600000008,
      "d": 280.7967083333351,
      "v": 125
    },
    {
      "midi": 70,
      "hit": false,
      "t": 81739.01600000008,
      "d": 280.7967083333351,
      "v": 125
    },
    {
      "midi": 73,
      "hit": false,
      "t": 81739.01600000008,
      "d": 280.7967083333351,
      "v": 125
    },
    {
      "midi": 81,
      "hit": false,
      "t": 81920.17516666664,
      "d": 280.7967083333351,
      "v": 122
    },
    {
      "midi": 34,
      "hit": false,
      "t": 82028.87066666674,
      "d": 280.7967083333351,
      "v": 125
    },
    {
      "midi": 65,
      "hit": false,
      "t": 82028.87066666674,
      "d": 280.7967083333351,
      "v": 125
    },
    {
      "midi": 70,
      "hit": false,
      "t": 82028.87066666674,
      "d": 280.7967083333351,
      "v": 125
    },
    {
      "midi": 73,
      "hit": false,
      "t": 82028.87066666674,
      "d": 280.7967083333351,
      "v": 125
    },
    {
      "midi": 79,
      "hit": false,
      "t": 82318.7253333333,
      "d": 579.7093333333323,
      "v": 122
    },
    {
      "midi": 84,
      "hit": false,
      "t": 82318.7253333333,
      "d": 579.7093333333323,
      "v": 122
    },
    {
      "midi": 34,
      "hit": false,
      "t": 82318.72533333341,
      "d": 280.7967083333351,
      "v": 125
    },
    {
      "midi": 65,
      "hit": false,
      "t": 82318.72533333341,
      "d": 280.7967083333351,
      "v": 125
    },
    {
      "midi": 70,
      "hit": false,
      "t": 82318.72533333341,
      "d": 280.7967083333351,
      "v": 125
    },
    {
      "midi": 73,
      "hit": false,
      "t": 82318.72533333341,
      "d": 280.7967083333351,
      "v": 125
    },
    {
      "midi": 34,
      "hit": false,
      "t": 82608.58000000007,
      "d": 280.7967083333351,
      "v": 125
    },
    {
      "midi": 65,
      "hit": false,
      "t": 82608.58000000007,
      "d": 280.7967083333351,
      "v": 125
    },
    {
      "midi": 70,
      "hit": false,
      "t": 82608.58000000007,
      "d": 280.7967083333351,
      "v": 125
    },
    {
      "midi": 73,
      "hit": false,
      "t": 82608.58000000007,
      "d": 280.7967083333351,
      "v": 125
    },
    {
      "midi": 77,
      "hit": false,
      "t": 82898.43466666664,
      "d": 280.7967083333351,
      "v": 122
    },
    {
      "midi": 82,
      "hit": false,
      "t": 82898.43466666664,
      "d": 280.7967083333351,
      "v": 122
    },
    {
      "midi": 34,
      "hit": false,
      "t": 82898.43466666674,
      "d": 280.7967083333351,
      "v": 125
    },
    {
      "midi": 65,
      "hit": false,
      "t": 82898.43466666674,
      "d": 280.7967083333351,
      "v": 125
    },
    {
      "midi": 70,
      "hit": false,
      "t": 82898.43466666674,
      "d": 280.7967083333351,
      "v": 125
    },
    {
      "midi": 73,
      "hit": false,
      "t": 82898.43466666674,
      "d": 280.7967083333351,
      "v": 125
    },
    {
      "midi": 34,
      "hit": false,
      "t": 83188.2893333334,
      "d": 280.7967083333351,
      "v": 125
    },
    {
      "midi": 65,
      "hit": false,
      "t": 83188.2893333334,
      "d": 280.7967083333351,
      "v": 125
    },
    {
      "midi": 70,
      "hit": false,
      "t": 83188.2893333334,
      "d": 280.7967083333351,
      "v": 125
    },
    {
      "midi": 73,
      "hit": false,
      "t": 83188.2893333334,
      "d": 280.7967083333351,
      "v": 125
    },
    {
      "midi": 72,
      "hit": false,
      "t": 83478.14399999997,
      "d": 1159.4186666666646,
      "v": 122
    },
    {
      "midi": 76,
      "hit": false,
      "t": 83478.14399999997,
      "d": 1159.4186666666646,
      "v": 122
    },
    {
      "midi": 36,
      "hit": false,
      "t": 83478.14400000007,
      "d": 280.7967083333351,
      "v": 125
    },
    {
      "midi": 64,
      "hit": false,
      "t": 83478.14400000007,
      "d": 280.7967083333351,
      "v": 125
    },
    {
      "midi": 67,
      "hit": false,
      "t": 83478.14400000007,
      "d": 280.7967083333351,
      "v": 125
    },
    {
      "midi": 72,
      "hit": false,
      "t": 83478.14400000007,
      "d": 280.7967083333351,
      "v": 125
    },
    {
      "midi": 36,
      "hit": false,
      "t": 83767.99866666674,
      "d": 280.7967083333351,
      "v": 125
    },
    {
      "midi": 64,
      "hit": false,
      "t": 83767.99866666674,
      "d": 280.7967083333351,
      "v": 125
    },
    {
      "midi": 67,
      "hit": false,
      "t": 83767.99866666674,
      "d": 280.7967083333351,
      "v": 125
    },
    {
      "midi": 72,
      "hit": false,
      "t": 83767.99866666674,
      "d": 280.7967083333351,
      "v": 125
    },
    {
      "midi": 36,
      "hit": false,
      "t": 84057.8533333334,
      "d": 280.7967083333351,
      "v": 125
    },
    {
      "midi": 64,
      "hit": false,
      "t": 84057.8533333334,
      "d": 280.7967083333351,
      "v": 125
    },
    {
      "midi": 67,
      "hit": false,
      "t": 84057.8533333334,
      "d": 280.7967083333351,
      "v": 125
    },
    {
      "midi": 72,
      "hit": false,
      "t": 84057.8533333334,
      "d": 280.7967083333351,
      "v": 125
    },
    {
      "midi": 36,
      "hit": false,
      "t": 84347.70800000007,
      "d": 280.7967083333351,
      "v": 125
    },
    {
      "midi": 64,
      "hit": false,
      "t": 84347.70800000007,
      "d": 280.7967083333351,
      "v": 125
    },
    {
      "midi": 67,
      "hit": false,
      "t": 84347.70800000007,
      "d": 280.7967083333351,
      "v": 125
    },
    {
      "midi": 72,
      "hit": false,
      "t": 84347.70800000007,
      "d": 280.7967083333351,
      "v": 125
    },
    {
      "midi": 69,
      "hit": false,
      "t": 84637.56266666664,
      "d": 280.7967083333351,
      "v": 122
    },
    {
      "midi": 36,
      "hit": false,
      "t": 84637.56266666674,
      "d": 280.7967083333351,
      "v": 125
    },
    {
      "midi": 64,
      "hit": false,
      "t": 84637.56266666674,
      "d": 280.7967083333351,
      "v": 125
    },
    {
      "midi": 67,
      "hit": false,
      "t": 84637.56266666674,
      "d": 280.7967083333351,
      "v": 125
    },
    {
      "midi": 72,
      "hit": false,
      "t": 84637.56266666674,
      "d": 280.7967083333351,
      "v": 125
    },
    {
      "midi": 72,
      "hit": false,
      "t": 84927.4173333333,
      "d": 280.7967083333351,
      "v": 122
    },
    {
      "midi": 76,
      "hit": false,
      "t": 84927.4173333333,
      "d": 280.7967083333351,
      "v": 122
    },
    {
      "midi": 36,
      "hit": false,
      "t": 84927.4173333334,
      "d": 280.7967083333351,
      "v": 125
    },
    {
      "midi": 64,
      "hit": false,
      "t": 84927.4173333334,
      "d": 280.7967083333351,
      "v": 125
    },
    {
      "midi": 67,
      "hit": false,
      "t": 84927.4173333334,
      "d": 280.7967083333351,
      "v": 125
    },
    {
      "midi": 72,
      "hit": false,
      "t": 84927.4173333334,
      "d": 280.7967083333351,
      "v": 125
    },
    {
      "midi": 75,
      "hit": false,
      "t": 85217.27199999997,
      "d": 1159.4186666666646,
      "v": 122
    },
    {
      "midi": 79,
      "hit": false,
      "t": 85217.27199999997,
      "d": 1159.4186666666646,
      "v": 122
    },
    {
      "midi": 39,
      "hit": false,
      "t": 85217.27200000007,
      "d": 280.7967083333351,
      "v": 125
    },
    {
      "midi": 63,
      "hit": false,
      "t": 85217.27200000007,
      "d": 280.7967083333351,
      "v": 125
    },
    {
      "midi": 67,
      "hit": false,
      "t": 85217.27200000007,
      "d": 280.7967083333351,
      "v": 125
    },
    {
      "midi": 70,
      "hit": false,
      "t": 85217.27200000007,
      "d": 280.7967083333351,
      "v": 125
    },
    {
      "midi": 39,
      "hit": false,
      "t": 85507.12666666674,
      "d": 280.7967083333351,
      "v": 125
    },
    {
      "midi": 63,
      "hit": false,
      "t": 85507.12666666674,
      "d": 280.7967083333351,
      "v": 125
    },
    {
      "midi": 67,
      "hit": false,
      "t": 85507.12666666674,
      "d": 280.7967083333351,
      "v": 125
    },
    {
      "midi": 70,
      "hit": false,
      "t": 85507.12666666674,
      "d": 280.7967083333351,
      "v": 125
    },
    {
      "midi": 39,
      "hit": false,
      "t": 85796.9813333334,
      "d": 280.7967083333351,
      "v": 125
    },
    {
      "midi": 63,
      "hit": false,
      "t": 85796.9813333334,
      "d": 280.7967083333351,
      "v": 125
    },
    {
      "midi": 67,
      "hit": false,
      "t": 85796.9813333334,
      "d": 280.7967083333351,
      "v": 125
    },
    {
      "midi": 70,
      "hit": false,
      "t": 85796.9813333334,
      "d": 280.7967083333351,
      "v": 125
    },
    {
      "midi": 39,
      "hit": false,
      "t": 86086.83600000007,
      "d": 280.7967083333351,
      "v": 125
    },
    {
      "midi": 63,
      "hit": false,
      "t": 86086.83600000007,
      "d": 280.7967083333351,
      "v": 125
    },
    {
      "midi": 67,
      "hit": false,
      "t": 86086.83600000007,
      "d": 280.7967083333351,
      "v": 125
    },
    {
      "midi": 70,
      "hit": false,
      "t": 86086.83600000007,
      "d": 280.7967083333351,
      "v": 125
    },
    {
      "midi": 72,
      "hit": false,
      "t": 86376.69066666663,
      "d": 280.7967083333351,
      "v": 122
    },
    {
      "midi": 39,
      "hit": false,
      "t": 86376.69066666673,
      "d": 280.7967083333351,
      "v": 125
    },
    {
      "midi": 63,
      "hit": false,
      "t": 86376.69066666673,
      "d": 280.7967083333351,
      "v": 125
    },
    {
      "midi": 67,
      "hit": false,
      "t": 86376.69066666673,
      "d": 280.7967083333351,
      "v": 125
    },
    {
      "midi": 70,
      "hit": false,
      "t": 86376.69066666673,
      "d": 280.7967083333351,
      "v": 125
    },
    {
      "midi": 75,
      "hit": false,
      "t": 86666.5453333333,
      "d": 280.7967083333351,
      "v": 122
    },
    {
      "midi": 79,
      "hit": false,
      "t": 86666.5453333333,
      "d": 280.7967083333351,
      "v": 122
    },
    {
      "midi": 39,
      "hit": false,
      "t": 86666.5453333334,
      "d": 280.7967083333351,
      "v": 125
    },
    {
      "midi": 63,
      "hit": false,
      "t": 86666.5453333334,
      "d": 280.7967083333351,
      "v": 125
    },
    {
      "midi": 67,
      "hit": false,
      "t": 86666.5453333334,
      "d": 280.7967083333351,
      "v": 125
    },
    {
      "midi": 70,
      "hit": false,
      "t": 86666.5453333334,
      "d": 280.7967083333351,
      "v": 125
    },
    {
      "midi": 74,
      "hit": false,
      "t": 86956.39999999997,
      "d": 172.1012083333335,
      "v": 122
    },
    {
      "midi": 79,
      "hit": false,
      "t": 86956.39999999997,
      "d": 3188.401333333328,
      "v": 122
    },
    {
      "midi": 36,
      "hit": false,
      "t": 86956.40000000007,
      "d": 280.7967083333351,
      "v": 125
    },
    {
      "midi": 64,
      "hit": false,
      "t": 86956.40000000007,
      "d": 280.7967083333351,
      "v": 125
    },
    {
      "midi": 67,
      "hit": false,
      "t": 86956.40000000007,
      "d": 280.7967083333351,
      "v": 125
    },
    {
      "midi": 72,
      "hit": false,
      "t": 86956.40000000007,
      "d": 280.7967083333351,
      "v": 125
    },
    {
      "midi": 76,
      "hit": false,
      "t": 87137.55916666663,
      "d": 2898.5466666666616,
      "v": 122
    },
    {
      "midi": 36,
      "hit": false,
      "t": 87246.25466666673,
      "d": 280.7967083333351,
      "v": 125
    },
    {
      "midi": 64,
      "hit": false,
      "t": 87246.25466666673,
      "d": 280.7967083333351,
      "v": 125
    },
    {
      "midi": 67,
      "hit": false,
      "t": 87246.25466666673,
      "d": 280.7967083333351,
      "v": 125
    },
    {
      "midi": 72,
      "hit": false,
      "t": 87246.25466666673,
      "d": 280.7967083333351,
      "v": 125
    },
    {
      "midi": 36,
      "hit": false,
      "t": 87536.1093333334,
      "d": 280.7967083333351,
      "v": 125
    },
    {
      "midi": 64,
      "hit": false,
      "t": 87536.1093333334,
      "d": 280.7967083333351,
      "v": 125
    },
    {
      "midi": 67,
      "hit": false,
      "t": 87536.1093333334,
      "d": 280.7967083333351,
      "v": 125
    },
    {
      "midi": 72,
      "hit": false,
      "t": 87536.1093333334,
      "d": 280.7967083333351,
      "v": 125
    },
    {
      "midi": 36,
      "hit": false,
      "t": 87825.96400000007,
      "d": 280.7967083333351,
      "v": 125
    },
    {
      "midi": 64,
      "hit": false,
      "t": 87825.96400000007,
      "d": 280.7967083333351,
      "v": 125
    },
    {
      "midi": 67,
      "hit": false,
      "t": 87825.96400000007,
      "d": 280.7967083333351,
      "v": 125
    },
    {
      "midi": 72,
      "hit": false,
      "t": 87825.96400000007,
      "d": 280.7967083333351,
      "v": 125
    },
    {
      "midi": 36,
      "hit": false,
      "t": 88115.81866666673,
      "d": 280.7967083333351,
      "v": 125
    },
    {
      "midi": 64,
      "hit": false,
      "t": 88115.81866666673,
      "d": 280.7967083333351,
      "v": 125
    },
    {
      "midi": 67,
      "hit": false,
      "t": 88115.81866666673,
      "d": 280.7967083333351,
      "v": 125
    },
    {
      "midi": 72,
      "hit": false,
      "t": 88115.81866666673,
      "d": 280.7967083333351,
      "v": 125
    },
    {
      "midi": 36,
      "hit": false,
      "t": 88405.6733333334,
      "d": 280.7967083333351,
      "v": 125
    },
    {
      "midi": 64,
      "hit": false,
      "t": 88405.6733333334,
      "d": 280.7967083333351,
      "v": 125
    },
    {
      "midi": 67,
      "hit": false,
      "t": 88405.6733333334,
      "d": 280.7967083333351,
      "v": 125
    },
    {
      "midi": 72,
      "hit": false,
      "t": 88405.6733333334,
      "d": 280.7967083333351,
      "v": 125
    },
    {
      "midi": 36,
      "hit": false,
      "t": 88695.52800000006,
      "d": 280.7967083333351,
      "v": 125
    },
    {
      "midi": 64,
      "hit": false,
      "t": 88695.52800000006,
      "d": 280.7967083333351,
      "v": 125
    },
    {
      "midi": 67,
      "hit": false,
      "t": 88695.52800000006,
      "d": 280.7967083333351,
      "v": 125
    },
    {
      "midi": 72,
      "hit": false,
      "t": 88695.52800000006,
      "d": 280.7967083333351,
      "v": 125
    },
    {
      "midi": 36,
      "hit": false,
      "t": 88985.38266666673,
      "d": 280.7967083333351,
      "v": 125
    },
    {
      "midi": 64,
      "hit": false,
      "t": 88985.38266666673,
      "d": 280.7967083333351,
      "v": 125
    },
    {
      "midi": 67,
      "hit": false,
      "t": 88985.38266666673,
      "d": 280.7967083333351,
      "v": 125
    },
    {
      "midi": 72,
      "hit": false,
      "t": 88985.38266666673,
      "d": 280.7967083333351,
      "v": 125
    },
    {
      "midi": 36,
      "hit": false,
      "t": 89275.2373333334,
      "d": 280.7967083333351,
      "v": 125
    },
    {
      "midi": 64,
      "hit": false,
      "t": 89275.2373333334,
      "d": 280.7967083333351,
      "v": 125
    },
    {
      "midi": 67,
      "hit": false,
      "t": 89275.2373333334,
      "d": 280.7967083333351,
      "v": 125
    },
    {
      "midi": 72,
      "hit": false,
      "t": 89275.2373333334,
      "d": 280.7967083333351,
      "v": 125
    },
    {
      "midi": 36,
      "hit": false,
      "t": 89565.09200000006,
      "d": 280.7967083333351,
      "v": 125
    },
    {
      "midi": 64,
      "hit": false,
      "t": 89565.09200000006,
      "d": 280.7967083333351,
      "v": 125
    },
    {
      "midi": 67,
      "hit": false,
      "t": 89565.09200000006,
      "d": 280.7967083333351,
      "v": 125
    },
    {
      "midi": 72,
      "hit": false,
      "t": 89565.09200000006,
      "d": 280.7967083333351,
      "v": 125
    },
    {
      "midi": 36,
      "hit": false,
      "t": 89854.94666666673,
      "d": 280.7967083333351,
      "v": 125
    },
    {
      "midi": 64,
      "hit": false,
      "t": 89854.94666666673,
      "d": 280.7967083333351,
      "v": 125
    },
    {
      "midi": 67,
      "hit": false,
      "t": 89854.94666666673,
      "d": 280.7967083333351,
      "v": 125
    },
    {
      "midi": 72,
      "hit": false,
      "t": 89854.94666666673,
      "d": 280.7967083333351,
      "v": 125
    },
    {
      "midi": 36,
      "hit": false,
      "t": 90144.8013333334,
      "d": 280.7967083333351,
      "v": 125
    },
    {
      "midi": 64,
      "hit": false,
      "t": 90144.8013333334,
      "d": 280.7967083333351,
      "v": 125
    },
    {
      "midi": 67,
      "hit": false,
      "t": 90144.8013333334,
      "d": 280.7967083333351,
      "v": 125
    },
    {
      "midi": 72,
      "hit": false,
      "t": 90144.8013333334,
      "d": 280.7967083333351,
      "v": 125
    },
    {
      "midi": 76,
      "hit": false,
      "t": 90434.65599999996,
      "d": 181.15916666666453,
      "v": 122
    },
    {
      "midi": 81,
      "hit": false,
      "t": 90434.65599999996,
      "d": 1449.2733333333308,
      "v": 122
    },
    {
      "midi": 41,
      "hit": false,
      "t": 90434.65600000006,
      "d": 280.7967083333351,
      "v": 125
    },
    {
      "midi": 65,
      "hit": false,
      "t": 90434.65600000006,
      "d": 280.7967083333351,
      "v": 125
    },
    {
      "midi": 69,
      "hit": false,
      "t": 90434.65600000006,
      "d": 280.7967083333351,
      "v": 125
    },
    {
      "midi": 72,
      "hit": false,
      "t": 90434.65600000006,
      "d": 280.7967083333351,
      "v": 125
    },
    {
      "midi": 77,
      "hit": false,
      "t": 90615.81516666662,
      "d": 1159.4186666666646,
      "v": 122
    },
    {
      "midi": 41,
      "hit": false,
      "t": 90724.51066666673,
      "d": 280.7967083333351,
      "v": 125
    },
    {
      "midi": 65,
      "hit": false,
      "t": 90724.51066666673,
      "d": 280.7967083333351,
      "v": 125
    },
    {
      "midi": 69,
      "hit": false,
      "t": 90724.51066666673,
      "d": 280.7967083333351,
      "v": 125
    },
    {
      "midi": 72,
      "hit": false,
      "t": 90724.51066666673,
      "d": 280.7967083333351,
      "v": 125
    },
    {
      "midi": 41,
      "hit": false,
      "t": 91014.3653333334,
      "d": 280.7967083333351,
      "v": 125
    },
    {
      "midi": 65,
      "hit": false,
      "t": 91014.3653333334,
      "d": 280.7967083333351,
      "v": 125
    },
    {
      "midi": 69,
      "hit": false,
      "t": 91014.3653333334,
      "d": 280.7967083333351,
      "v": 125
    },
    {
      "midi": 72,
      "hit": false,
      "t": 91014.3653333334,
      "d": 280.7967083333351,
      "v": 125
    },
    {
      "midi": 41,
      "hit": false,
      "t": 91304.22000000006,
      "d": 280.7967083333351,
      "v": 125
    },
    {
      "midi": 65,
      "hit": false,
      "t": 91304.22000000006,
      "d": 280.7967083333351,
      "v": 125
    },
    {
      "midi": 69,
      "hit": false,
      "t": 91304.22000000006,
      "d": 280.7967083333351,
      "v": 125
    },
    {
      "midi": 72,
      "hit": false,
      "t": 91304.22000000006,
      "d": 280.7967083333351,
      "v": 125
    },
    {
      "midi": 41,
      "hit": false,
      "t": 91594.07466666673,
      "d": 280.7967083333351,
      "v": 125
    },
    {
      "midi": 65,
      "hit": false,
      "t": 91594.07466666673,
      "d": 280.7967083333351,
      "v": 125
    },
    {
      "midi": 69,
      "hit": false,
      "t": 91594.07466666673,
      "d": 280.7967083333351,
      "v": 125
    },
    {
      "midi": 72,
      "hit": false,
      "t": 91594.07466666673,
      "d": 280.7967083333351,
      "v": 125
    },
    {
      "midi": 41,
      "hit": false,
      "t": 91883.92933333339,
      "d": 280.7967083333351,
      "v": 125
    },
    {
      "midi": 65,
      "hit": false,
      "t": 91883.92933333339,
      "d": 280.7967083333351,
      "v": 125
    },
    {
      "midi": 69,
      "hit": false,
      "t": 91883.92933333339,
      "d": 280.7967083333351,
      "v": 125
    },
    {
      "midi": 72,
      "hit": false,
      "t": 91883.92933333339,
      "d": 280.7967083333351,
      "v": 125
    },
    {
      "midi": 72,
      "hit": false,
      "t": 92173.78399999996,
      "d": 1449.2733333333308,
      "v": 122
    },
    {
      "midi": 77,
      "hit": false,
      "t": 92173.78399999996,
      "d": 1739.127999999997,
      "v": 122
    },
    {
      "midi": 38,
      "hit": false,
      "t": 92173.78400000006,
      "d": 280.7967083333351,
      "v": 125
    },
    {
      "midi": 65,
      "hit": false,
      "t": 92173.78400000006,
      "d": 280.7967083333351,
      "v": 125
    },
    {
      "midi": 69,
      "hit": false,
      "t": 92173.78400000006,
      "d": 280.7967083333351,
      "v": 125
    },
    {
      "midi": 74,
      "hit": false,
      "t": 92173.78400000006,
      "d": 280.7967083333351,
      "v": 125
    },
    {
      "midi": 38,
      "hit": false,
      "t": 92463.63866666672,
      "d": 280.7967083333351,
      "v": 125
    },
    {
      "midi": 65,
      "hit": false,
      "t": 92463.63866666672,
      "d": 280.7967083333351,
      "v": 125
    },
    {
      "midi": 69,
      "hit": false,
      "t": 92463.63866666672,
      "d": 280.7967083333351,
      "v": 125
    },
    {
      "midi": 74,
      "hit": false,
      "t": 92463.63866666672,
      "d": 280.7967083333351,
      "v": 125
    },
    {
      "midi": 38,
      "hit": false,
      "t": 92753.49333333339,
      "d": 280.7967083333351,
      "v": 125
    },
    {
      "midi": 65,
      "hit": false,
      "t": 92753.49333333339,
      "d": 280.7967083333351,
      "v": 125
    },
    {
      "midi": 69,
      "hit": false,
      "t": 92753.49333333339,
      "d": 280.7967083333351,
      "v": 125
    },
    {
      "midi": 74,
      "hit": false,
      "t": 92753.49333333339,
      "d": 280.7967083333351,
      "v": 125
    },
    {
      "midi": 38,
      "hit": false,
      "t": 93043.34800000006,
      "d": 280.7967083333351,
      "v": 125
    },
    {
      "midi": 65,
      "hit": false,
      "t": 93043.34800000006,
      "d": 280.7967083333351,
      "v": 125
    },
    {
      "midi": 69,
      "hit": false,
      "t": 93043.34800000006,
      "d": 280.7967083333351,
      "v": 125
    },
    {
      "midi": 74,
      "hit": false,
      "t": 93043.34800000006,
      "d": 280.7967083333351,
      "v": 125
    },
    {
      "midi": 38,
      "hit": false,
      "t": 93333.20266666672,
      "d": 280.7967083333351,
      "v": 125
    },
    {
      "midi": 65,
      "hit": false,
      "t": 93333.20266666672,
      "d": 280.7967083333351,
      "v": 125
    },
    {
      "midi": 69,
      "hit": false,
      "t": 93333.20266666672,
      "d": 280.7967083333351,
      "v": 125
    },
    {
      "midi": 74,
      "hit": false,
      "t": 93333.20266666672,
      "d": 280.7967083333351,
      "v": 125
    },
    {
      "midi": 38,
      "hit": false,
      "t": 93623.05733333339,
      "d": 280.7967083333351,
      "v": 125
    },
    {
      "midi": 65,
      "hit": false,
      "t": 93623.05733333339,
      "d": 280.7967083333351,
      "v": 125
    },
    {
      "midi": 69,
      "hit": false,
      "t": 93623.05733333339,
      "d": 280.7967083333351,
      "v": 125
    },
    {
      "midi": 74,
      "hit": false,
      "t": 93623.05733333339,
      "d": 280.7967083333351,
      "v": 125
    },
    {
      "midi": 34,
      "hit": false,
      "t": 93912.91200000005,
      "d": 280.7967083333351,
      "v": 125
    },
    {
      "midi": 65,
      "hit": false,
      "t": 93912.91200000005,
      "d": 280.7967083333351,
      "v": 125
    },
    {
      "midi": 70,
      "hit": false,
      "t": 93912.91200000005,
      "d": 280.7967083333351,
      "v": 125
    },
    {
      "midi": 73,
      "hit": false,
      "t": 93912.91200000005,
      "d": 280.7967083333351,
      "v": 125
    },
    {
      "midi": 34,
      "hit": false,
      "t": 94202.76666666672,
      "d": 280.7967083333351,
      "v": 125
    },
    {
      "midi": 65,
      "hit": false,
      "t": 94202.76666666672,
      "d": 280.7967083333351,
      "v": 125
    },
    {
      "midi": 70,
      "hit": false,
      "t": 94202.76666666672,
      "d": 280.7967083333351,
      "v": 125
    },
    {
      "midi": 73,
      "hit": false,
      "t": 94202.76666666672,
      "d": 280.7967083333351,
      "v": 125
    },
    {
      "midi": 34,
      "hit": false,
      "t": 94492.62133333339,
      "d": 280.7967083333351,
      "v": 125
    },
    {
      "midi": 65,
      "hit": false,
      "t": 94492.62133333339,
      "d": 280.7967083333351,
      "v": 125
    },
    {
      "midi": 70,
      "hit": false,
      "t": 94492.62133333339,
      "d": 280.7967083333351,
      "v": 125
    },
    {
      "midi": 73,
      "hit": false,
      "t": 94492.62133333339,
      "d": 280.7967083333351,
      "v": 125
    },
    {
      "midi": 34,
      "hit": false,
      "t": 94782.47600000005,
      "d": 280.7967083333351,
      "v": 125
    },
    {
      "midi": 65,
      "hit": false,
      "t": 94782.47600000005,
      "d": 280.7967083333351,
      "v": 125
    },
    {
      "midi": 70,
      "hit": false,
      "t": 94782.47600000005,
      "d": 280.7967083333351,
      "v": 125
    },
    {
      "midi": 73,
      "hit": false,
      "t": 94782.47600000005,
      "d": 280.7967083333351,
      "v": 125
    },
    {
      "midi": 70,
      "hit": false,
      "t": 95072.33066666662,
      "d": 280.7967083333351,
      "v": 122
    },
    {
      "midi": 34,
      "hit": false,
      "t": 95072.33066666672,
      "d": 280.7967083333351,
      "v": 125
    },
    {
      "midi": 65,
      "hit": false,
      "t": 95072.33066666672,
      "d": 280.7967083333351,
      "v": 125
    },
    {
      "midi": 70,
      "hit": false,
      "t": 95072.33066666672,
      "d": 280.7967083333351,
      "v": 125
    },
    {
      "midi": 73,
      "hit": false,
      "t": 95072.33066666672,
      "d": 280.7967083333351,
      "v": 125
    },
    {
      "midi": 72,
      "hit": false,
      "t": 95362.18533333328,
      "d": 280.7967083333351,
      "v": 122
    },
    {
      "midi": 77,
      "hit": false,
      "t": 95362.18533333328,
      "d": 280.7967083333351,
      "v": 122
    },
    {
      "midi": 34,
      "hit": false,
      "t": 95362.18533333339,
      "d": 280.7967083333351,
      "v": 125
    },
    {
      "midi": 65,
      "hit": false,
      "t": 95362.18533333339,
      "d": 280.7967083333351,
      "v": 125
    },
    {
      "midi": 70,
      "hit": false,
      "t": 95362.18533333339,
      "d": 280.7967083333351,
      "v": 125
    },
    {
      "midi": 73,
      "hit": false,
      "t": 95362.18533333339,
      "d": 280.7967083333351,
      "v": 125
    },
    {
      "midi": 72,
      "hit": false,
      "t": 95652.03999999995,
      "d": 181.15916666666453,
      "v": 122
    },
    {
      "midi": 77,
      "hit": false,
      "t": 95652.03999999995,
      "d": 579.7093333333323,
      "v": 122
    },
    {
      "midi": 36,
      "hit": false,
      "t": 95652.04000000005,
      "d": 280.7967083333351,
      "v": 125
    },
    {
      "midi": 64,
      "hit": false,
      "t": 95652.04000000005,
      "d": 280.7967083333351,
      "v": 125
    },
    {
      "midi": 67,
      "hit": false,
      "t": 95652.04000000005,
      "d": 280.7967083333351,
      "v": 125
    },
    {
      "midi": 72,
      "hit": false,
      "t": 95652.04000000005,
      "d": 280.7967083333351,
      "v": 125
    },
    {
      "midi": 73,
      "hit": false,
      "t": 95833.19916666661,
      "d": 280.7967083333351,
      "v": 122
    },
    {
      "midi": 36,
      "hit": false,
      "t": 95941.89466666672,
      "d": 280.7967083333351,
      "v": 125
    },
    {
      "midi": 64,
      "hit": false,
      "t": 95941.89466666672,
      "d": 280.7967083333351,
      "v": 125
    },
    {
      "midi": 67,
      "hit": false,
      "t": 95941.89466666672,
      "d": 280.7967083333351,
      "v": 125
    },
    {
      "midi": 72,
      "hit": false,
      "t": 95941.89466666672,
      "d": 280.7967083333351,
      "v": 125
    },
    {
      "midi": 72,
      "hit": false,
      "t": 96231.74933333328,
      "d": 579.7093333333323,
      "v": 122
    },
    {
      "midi": 77,
      "hit": false,
      "t": 96231.74933333328,
      "d": 579.7093333333323,
      "v": 122
    },
    {
      "midi": 36,
      "hit": false,
      "t": 96231.74933333338,
      "d": 280.7967083333351,
      "v": 125
    },
    {
      "midi": 64,
      "hit": false,
      "t": 96231.74933333338,
      "d": 280.7967083333351,
      "v": 125
    },
    {
      "midi": 67,
      "hit": false,
      "t": 96231.74933333338,
      "d": 280.7967083333351,
      "v": 125
    },
    {
      "midi": 72,
      "hit": false,
      "t": 96231.74933333338,
      "d": 280.7967083333351,
      "v": 125
    },
    {
      "midi": 36,
      "hit": false,
      "t": 96521.60400000005,
      "d": 280.7967083333351,
      "v": 125
    },
    {
      "midi": 64,
      "hit": false,
      "t": 96521.60400000005,
      "d": 280.7967083333351,
      "v": 125
    },
    {
      "midi": 67,
      "hit": false,
      "t": 96521.60400000005,
      "d": 280.7967083333351,
      "v": 125
    },
    {
      "midi": 72,
      "hit": false,
      "t": 96521.60400000005,
      "d": 280.7967083333351,
      "v": 125
    },
    {
      "midi": 70,
      "hit": false,
      "t": 96811.45866666661,
      "d": 579.7093333333323,
      "v": 122
    },
    {
      "midi": 36,
      "hit": false,
      "t": 96811.45866666672,
      "d": 280.7967083333351,
      "v": 125
    },
    {
      "midi": 64,
      "hit": false,
      "t": 96811.45866666672,
      "d": 280.7967083333351,
      "v": 125
    },
    {
      "midi": 67,
      "hit": false,
      "t": 96811.45866666672,
      "d": 280.7967083333351,
      "v": 125
    },
    {
      "midi": 72,
      "hit": false,
      "t": 96811.45866666672,
      "d": 280.7967083333351,
      "v": 125
    },
    {
      "midi": 36,
      "hit": false,
      "t": 97101.31333333338,
      "d": 280.7967083333351,
      "v": 125
    },
    {
      "midi": 64,
      "hit": false,
      "t": 97101.31333333338,
      "d": 280.7967083333351,
      "v": 125
    },
    {
      "midi": 67,
      "hit": false,
      "t": 97101.31333333338,
      "d": 280.7967083333351,
      "v": 125
    },
    {
      "midi": 72,
      "hit": false,
      "t": 97101.31333333338,
      "d": 280.7967083333351,
      "v": 125
    },
    {
      "midi": 76,
      "hit": false,
      "t": 97391.16799999995,
      "d": 181.15916666666453,
      "v": 122
    },
    {
      "midi": 81,
      "hit": false,
      "t": 97391.16799999995,
      "d": 1449.2733333333308,
      "v": 122
    },
    {
      "midi": 41,
      "hit": false,
      "t": 97391.16800000005,
      "d": 280.7967083333351,
      "v": 125
    },
    {
      "midi": 65,
      "hit": false,
      "t": 97391.16800000005,
      "d": 280.7967083333351,
      "v": 125
    },
    {
      "midi": 69,
      "hit": false,
      "t": 97391.16800000005,
      "d": 280.7967083333351,
      "v": 125
    },
    {
      "midi": 72,
      "hit": false,
      "t": 97391.16800000005,
      "d": 280.7967083333351,
      "v": 125
    },
    {
      "midi": 77,
      "hit": false,
      "t": 97572.32716666661,
      "d": 1159.4186666666646,
      "v": 122
    },
    {
      "midi": 41,
      "hit": false,
      "t": 97681.02266666671,
      "d": 280.7967083333351,
      "v": 125
    },
    {
      "midi": 65,
      "hit": false,
      "t": 97681.02266666671,
      "d": 280.7967083333351,
      "v": 125
    },
    {
      "midi": 69,
      "hit": false,
      "t": 97681.02266666671,
      "d": 280.7967083333351,
      "v": 125
    },
    {
      "midi": 72,
      "hit": false,
      "t": 97681.02266666671,
      "d": 280.7967083333351,
      "v": 125
    },
    {
      "midi": 41,
      "hit": false,
      "t": 97970.87733333338,
      "d": 280.7967083333351,
      "v": 125
    },
    {
      "midi": 65,
      "hit": false,
      "t": 97970.87733333338,
      "d": 280.7967083333351,
      "v": 125
    },
    {
      "midi": 69,
      "hit": false,
      "t": 97970.87733333338,
      "d": 280.7967083333351,
      "v": 125
    },
    {
      "midi": 72,
      "hit": false,
      "t": 97970.87733333338,
      "d": 280.7967083333351,
      "v": 125
    },
    {
      "midi": 41,
      "hit": false,
      "t": 98260.73200000005,
      "d": 280.7967083333351,
      "v": 125
    },
    {
      "midi": 65,
      "hit": false,
      "t": 98260.73200000005,
      "d": 280.7967083333351,
      "v": 125
    },
    {
      "midi": 69,
      "hit": false,
      "t": 98260.73200000005,
      "d": 280.7967083333351,
      "v": 125
    },
    {
      "midi": 72,
      "hit": false,
      "t": 98260.73200000005,
      "d": 280.7967083333351,
      "v": 125
    },
    {
      "midi": 41,
      "hit": false,
      "t": 98550.58666666671,
      "d": 280.7967083333351,
      "v": 125
    },
    {
      "midi": 65,
      "hit": false,
      "t": 98550.58666666671,
      "d": 280.7967083333351,
      "v": 125
    },
    {
      "midi": 69,
      "hit": false,
      "t": 98550.58666666671,
      "d": 280.7967083333351,
      "v": 125
    },
    {
      "midi": 72,
      "hit": false,
      "t": 98550.58666666671,
      "d": 280.7967083333351,
      "v": 125
    },
    {
      "midi": 41,
      "hit": false,
      "t": 98840.44133333338,
      "d": 280.7967083333351,
      "v": 125
    },
    {
      "midi": 65,
      "hit": false,
      "t": 98840.44133333338,
      "d": 280.7967083333351,
      "v": 125
    },
    {
      "midi": 69,
      "hit": false,
      "t": 98840.44133333338,
      "d": 280.7967083333351,
      "v": 125
    },
    {
      "midi": 72,
      "hit": false,
      "t": 98840.44133333338,
      "d": 280.7967083333351,
      "v": 125
    },
    {
      "midi": 72,
      "hit": false,
      "t": 99130.29599999994,
      "d": 1449.2733333333308,
      "v": 122
    },
    {
      "midi": 77,
      "hit": false,
      "t": 99130.29599999994,
      "d": 1739.127999999997,
      "v": 122
    },
    {
      "midi": 38,
      "hit": false,
      "t": 99130.29600000005,
      "d": 280.7967083333351,
      "v": 125
    },
    {
      "midi": 65,
      "hit": false,
      "t": 99130.29600000005,
      "d": 280.7967083333351,
      "v": 125
    },
    {
      "midi": 69,
      "hit": false,
      "t": 99130.29600000005,
      "d": 280.7967083333351,
      "v": 125
    },
    {
      "midi": 74,
      "hit": false,
      "t": 99130.29600000005,
      "d": 280.7967083333351,
      "v": 125
    },
    {
      "midi": 38,
      "hit": false,
      "t": 99420.15066666671,
      "d": 280.7967083333351,
      "v": 125
    },
    {
      "midi": 65,
      "hit": false,
      "t": 99420.15066666671,
      "d": 280.7967083333351,
      "v": 125
    },
    {
      "midi": 69,
      "hit": false,
      "t": 99420.15066666671,
      "d": 280.7967083333351,
      "v": 125
    },
    {
      "midi": 74,
      "hit": false,
      "t": 99420.15066666671,
      "d": 280.7967083333351,
      "v": 125
    },
    {
      "midi": 38,
      "hit": false,
      "t": 99710.00533333338,
      "d": 280.7967083333351,
      "v": 125
    },
    {
      "midi": 65,
      "hit": false,
      "t": 99710.00533333338,
      "d": 280.7967083333351,
      "v": 125
    },
    {
      "midi": 69,
      "hit": false,
      "t": 99710.00533333338,
      "d": 280.7967083333351,
      "v": 125
    },
    {
      "midi": 74,
      "hit": false,
      "t": 99710.00533333338,
      "d": 280.7967083333351,
      "v": 125
    },
    {
      "midi": 38,
      "hit": false,
      "t": 99999.86000000004,
      "d": 280.7967083333351,
      "v": 125
    },
    {
      "midi": 65,
      "hit": false,
      "t": 99999.86000000004,
      "d": 280.7967083333351,
      "v": 125
    },
    {
      "midi": 69,
      "hit": false,
      "t": 99999.86000000004,
      "d": 280.7967083333351,
      "v": 125
    },
    {
      "midi": 74,
      "hit": false,
      "t": 99999.86000000004,
      "d": 280.7967083333351,
      "v": 125
    },
    {
      "midi": 38,
      "hit": false,
      "t": 100289.71466666671,
      "d": 280.7967083333351,
      "v": 125
    },
    {
      "midi": 65,
      "hit": false,
      "t": 100289.71466666671,
      "d": 280.7967083333351,
      "v": 125
    },
    {
      "midi": 69,
      "hit": false,
      "t": 100289.71466666671,
      "d": 280.7967083333351,
      "v": 125
    },
    {
      "midi": 74,
      "hit": false,
      "t": 100289.71466666671,
      "d": 280.7967083333351,
      "v": 125
    },
    {
      "midi": 38,
      "hit": false,
      "t": 100579.56933333338,
      "d": 280.7967083333351,
      "v": 125
    },
    {
      "midi": 65,
      "hit": false,
      "t": 100579.56933333338,
      "d": 280.7967083333351,
      "v": 125
    },
    {
      "midi": 69,
      "hit": false,
      "t": 100579.56933333338,
      "d": 280.7967083333351,
      "v": 125
    },
    {
      "midi": 74,
      "hit": false,
      "t": 100579.56933333338,
      "d": 280.7967083333351,
      "v": 125
    },
    {
      "midi": 34,
      "hit": false,
      "t": 100869.42400000004,
      "d": 280.7967083333351,
      "v": 125
    },
    {
      "midi": 65,
      "hit": false,
      "t": 100869.42400000004,
      "d": 280.7967083333351,
      "v": 125
    },
    {
      "midi": 70,
      "hit": false,
      "t": 100869.42400000004,
      "d": 280.7967083333351,
      "v": 125
    },
    {
      "midi": 73,
      "hit": false,
      "t": 100869.42400000004,
      "d": 280.7967083333351,
      "v": 125
    },
    {
      "midi": 34,
      "hit": false,
      "t": 101159.27866666671,
      "d": 280.7967083333351,
      "v": 125
    },
    {
      "midi": 65,
      "hit": false,
      "t": 101159.27866666671,
      "d": 280.7967083333351,
      "v": 125
    },
    {
      "midi": 70,
      "hit": false,
      "t": 101159.27866666671,
      "d": 280.7967083333351,
      "v": 125
    },
    {
      "midi": 73,
      "hit": false,
      "t": 101159.27866666671,
      "d": 280.7967083333351,
      "v": 125
    },
    {
      "midi": 34,
      "hit": false,
      "t": 101449.13333333338,
      "d": 280.7967083333351,
      "v": 125
    },
    {
      "midi": 65,
      "hit": false,
      "t": 101449.13333333338,
      "d": 280.7967083333351,
      "v": 125
    },
    {
      "midi": 70,
      "hit": false,
      "t": 101449.13333333338,
      "d": 280.7967083333351,
      "v": 125
    },
    {
      "midi": 73,
      "hit": false,
      "t": 101449.13333333338,
      "d": 280.7967083333351,
      "v": 125
    },
    {
      "midi": 34,
      "hit": false,
      "t": 101738.98800000004,
      "d": 280.7967083333351,
      "v": 125
    },
    {
      "midi": 65,
      "hit": false,
      "t": 101738.98800000004,
      "d": 280.7967083333351,
      "v": 125
    },
    {
      "midi": 70,
      "hit": false,
      "t": 101738.98800000004,
      "d": 280.7967083333351,
      "v": 125
    },
    {
      "midi": 73,
      "hit": false,
      "t": 101738.98800000004,
      "d": 280.7967083333351,
      "v": 125
    },
    {
      "midi": 70,
      "hit": false,
      "t": 102028.8426666666,
      "d": 280.7967083333351,
      "v": 122
    },
    {
      "midi": 34,
      "hit": false,
      "t": 102028.84266666671,
      "d": 280.7967083333351,
      "v": 125
    },
    {
      "midi": 65,
      "hit": false,
      "t": 102028.84266666671,
      "d": 280.7967083333351,
      "v": 125
    },
    {
      "midi": 70,
      "hit": false,
      "t": 102028.84266666671,
      "d": 280.7967083333351,
      "v": 125
    },
    {
      "midi": 73,
      "hit": false,
      "t": 102028.84266666671,
      "d": 280.7967083333351,
      "v": 125
    },
    {
      "midi": 72,
      "hit": false,
      "t": 102318.69733333327,
      "d": 280.7967083333351,
      "v": 122
    },
    {
      "midi": 77,
      "hit": false,
      "t": 102318.69733333327,
      "d": 280.7967083333351,
      "v": 122
    },
    {
      "midi": 34,
      "hit": false,
      "t": 102318.69733333337,
      "d": 280.7967083333351,
      "v": 125
    },
    {
      "midi": 65,
      "hit": false,
      "t": 102318.69733333337,
      "d": 280.7967083333351,
      "v": 125
    },
    {
      "midi": 70,
      "hit": false,
      "t": 102318.69733333337,
      "d": 280.7967083333351,
      "v": 125
    },
    {
      "midi": 73,
      "hit": false,
      "t": 102318.69733333337,
      "d": 280.7967083333351,
      "v": 125
    },
    {
      "midi": 72,
      "hit": false,
      "t": 102608.55199999994,
      "d": 181.15916666666453,
      "v": 122
    },
    {
      "midi": 77,
      "hit": false,
      "t": 102608.55199999994,
      "d": 579.7093333333323,
      "v": 122
    },
    {
      "midi": 36,
      "hit": false,
      "t": 102608.55200000004,
      "d": 280.7967083333351,
      "v": 125
    },
    {
      "midi": 64,
      "hit": false,
      "t": 102608.55200000004,
      "d": 280.7967083333351,
      "v": 125
    },
    {
      "midi": 67,
      "hit": false,
      "t": 102608.55200000004,
      "d": 280.7967083333351,
      "v": 125
    },
    {
      "midi": 72,
      "hit": false,
      "t": 102608.55200000004,
      "d": 280.7967083333351,
      "v": 125
    },
    {
      "midi": 73,
      "hit": false,
      "t": 102789.7111666666,
      "d": 280.7967083333351,
      "v": 122
    },
    {
      "midi": 36,
      "hit": false,
      "t": 102898.4066666667,
      "d": 280.7967083333351,
      "v": 125
    },
    {
      "midi": 64,
      "hit": false,
      "t": 102898.4066666667,
      "d": 280.7967083333351,
      "v": 125
    },
    {
      "midi": 67,
      "hit": false,
      "t": 102898.4066666667,
      "d": 280.7967083333351,
      "v": 125
    },
    {
      "midi": 72,
      "hit": false,
      "t": 102898.4066666667,
      "d": 280.7967083333351,
      "v": 125
    },
    {
      "midi": 72,
      "hit": false,
      "t": 103188.26133333327,
      "d": 579.7093333333323,
      "v": 122
    },
    {
      "midi": 77,
      "hit": false,
      "t": 103188.26133333327,
      "d": 579.7093333333323,
      "v": 122
    },
    {
      "midi": 36,
      "hit": false,
      "t": 103188.26133333337,
      "d": 280.7967083333351,
      "v": 125
    },
    {
      "midi": 64,
      "hit": false,
      "t": 103188.26133333337,
      "d": 280.7967083333351,
      "v": 125
    },
    {
      "midi": 67,
      "hit": false,
      "t": 103188.26133333337,
      "d": 280.7967083333351,
      "v": 125
    },
    {
      "midi": 72,
      "hit": false,
      "t": 103188.26133333337,
      "d": 280.7967083333351,
      "v": 125
    },
    {
      "midi": 36,
      "hit": false,
      "t": 103478.11600000004,
      "d": 280.7967083333351,
      "v": 125
    },
    {
      "midi": 64,
      "hit": false,
      "t": 103478.11600000004,
      "d": 280.7967083333351,
      "v": 125
    },
    {
      "midi": 67,
      "hit": false,
      "t": 103478.11600000004,
      "d": 280.7967083333351,
      "v": 125
    },
    {
      "midi": 72,
      "hit": false,
      "t": 103478.11600000004,
      "d": 280.7967083333351,
      "v": 125
    },
    {
      "midi": 70,
      "hit": false,
      "t": 103767.9706666666,
      "d": 579.7093333333323,
      "v": 122
    },
    {
      "midi": 36,
      "hit": false,
      "t": 103767.9706666667,
      "d": 280.7967083333351,
      "v": 125
    },
    {
      "midi": 64,
      "hit": false,
      "t": 103767.9706666667,
      "d": 280.7967083333351,
      "v": 125
    },
    {
      "midi": 67,
      "hit": false,
      "t": 103767.9706666667,
      "d": 280.7967083333351,
      "v": 125
    },
    {
      "midi": 72,
      "hit": false,
      "t": 103767.9706666667,
      "d": 280.7967083333351,
      "v": 125
    },
    {
      "midi": 36,
      "hit": false,
      "t": 104057.82533333337,
      "d": 280.7967083333351,
      "v": 125
    },
    {
      "midi": 64,
      "hit": false,
      "t": 104057.82533333337,
      "d": 280.7967083333351,
      "v": 125
    },
    {
      "midi": 67,
      "hit": false,
      "t": 104057.82533333337,
      "d": 280.7967083333351,
      "v": 125
    },
    {
      "midi": 72,
      "hit": false,
      "t": 104057.82533333337,
      "d": 280.7967083333351,
      "v": 125
    },
    {
      "midi": 72,
      "hit": false,
      "t": 104347.67999999993,
      "d": 869.5639999999985,
      "v": 123
    },
    {
      "midi": 77,
      "hit": false,
      "t": 104347.67999999993,
      "d": 869.5639999999985,
      "v": 123
    },
    {
      "midi": 41,
      "hit": false,
      "t": 104347.68000000004,
      "d": 280.7967083333351,
      "v": 125
    },
    {
      "midi": 65,
      "hit": false,
      "t": 104347.68000000004,
      "d": 280.7967083333351,
      "v": 125
    },
    {
      "midi": 69,
      "hit": false,
      "t": 104347.68000000004,
      "d": 280.7967083333351,
      "v": 125
    },
    {
      "midi": 72,
      "hit": false,
      "t": 104347.68000000004,
      "d": 280.7967083333351,
      "v": 125
    },
    {
      "midi": 41,
      "hit": false,
      "t": 104637.5346666667,
      "d": 280.7967083333351,
      "v": 125
    },
    {
      "midi": 65,
      "hit": false,
      "t": 104637.5346666667,
      "d": 280.7967083333351,
      "v": 125
    },
    {
      "midi": 69,
      "hit": false,
      "t": 104637.5346666667,
      "d": 280.7967083333351,
      "v": 125
    },
    {
      "midi": 72,
      "hit": false,
      "t": 104637.5346666667,
      "d": 280.7967083333351,
      "v": 125
    },
    {
      "midi": 41,
      "hit": false,
      "t": 104927.38933333337,
      "d": 280.7967083333351,
      "v": 125
    },
    {
      "midi": 65,
      "hit": false,
      "t": 104927.38933333337,
      "d": 280.7967083333351,
      "v": 125
    },
    {
      "midi": 69,
      "hit": false,
      "t": 104927.38933333337,
      "d": 280.7967083333351,
      "v": 125
    },
    {
      "midi": 72,
      "hit": false,
      "t": 104927.38933333337,
      "d": 280.7967083333351,
      "v": 125
    },
    {
      "midi": 69,
      "hit": false,
      "t": 105217.24399999993,
      "d": 208.33304166665766,
      "v": 123
    },
    {
      "midi": 77,
      "hit": false,
      "t": 105217.24399999993,
      "d": 208.33304166665766,
      "v": 123
    },
    {
      "midi": 41,
      "hit": false,
      "t": 105217.24400000004,
      "d": 280.7967083333351,
      "v": 125
    },
    {
      "midi": 65,
      "hit": false,
      "t": 105217.24400000004,
      "d": 280.7967083333351,
      "v": 125
    },
    {
      "midi": 69,
      "hit": false,
      "t": 105217.24400000004,
      "d": 280.7967083333351,
      "v": 125
    },
    {
      "midi": 72,
      "hit": false,
      "t": 105217.24400000004,
      "d": 280.7967083333351,
      "v": 125
    },
    {
      "midi": 72,
      "hit": false,
      "t": 105434.63499999992,
      "d": 208.33304166667222,
      "v": 123
    },
    {
      "midi": 77,
      "hit": false,
      "t": 105434.63499999992,
      "d": 208.33304166667222,
      "v": 123
    },
    {
      "midi": 41,
      "hit": false,
      "t": 105507.0986666667,
      "d": 280.7967083333351,
      "v": 125
    },
    {
      "midi": 65,
      "hit": false,
      "t": 105507.0986666667,
      "d": 280.7967083333351,
      "v": 125
    },
    {
      "midi": 69,
      "hit": false,
      "t": 105507.0986666667,
      "d": 280.7967083333351,
      "v": 125
    },
    {
      "midi": 72,
      "hit": false,
      "t": 105507.0986666667,
      "d": 280.7967083333351,
      "v": 125
    },
    {
      "midi": 72,
      "hit": false,
      "t": 105652.02599999993,
      "d": 208.33304166665766,
      "v": 123
    },
    {
      "midi": 69,
      "hit": false,
      "t": 105652.02599999993,
      "d": 217.3909999999887,
      "v": 123
    },
    {
      "midi": 41,
      "hit": false,
      "t": 105796.95333333337,
      "d": 280.7967083333351,
      "v": 125
    },
    {
      "midi": 65,
      "hit": false,
      "t": 105796.95333333337,
      "d": 280.7967083333351,
      "v": 125
    },
    {
      "midi": 69,
      "hit": false,
      "t": 105796.95333333337,
      "d": 280.7967083333351,
      "v": 125
    },
    {
      "midi": 72,
      "hit": false,
      "t": 105796.95333333337,
      "d": 280.7967083333351,
      "v": 125
    },
    {
      "midi": 65,
      "hit": false,
      "t": 105869.41699999991,
      "d": 208.33304166667222,
      "v": 123
    },
    {
      "midi": 72,
      "hit": false,
      "t": 105869.41699999991,
      "d": 208.33304166667222,
      "v": 123
    },
    {
      "midi": 62,
      "hit": false,
      "t": 106086.80799999992,
      "d": 652.1729999999952,
      "v": 123
    },
    {
      "midi": 65,
      "hit": false,
      "t": 106086.80799999992,
      "d": 652.1729999999952,
      "v": 123
    },
    {
      "midi": 38,
      "hit": false,
      "t": 106086.80800000003,
      "d": 280.7967083333351,
      "v": 125
    },
    {
      "midi": 65,
      "hit": false,
      "t": 106086.80800000003,
      "d": 280.7967083333351,
      "v": 125
    },
    {
      "midi": 69,
      "hit": false,
      "t": 106086.80800000003,
      "d": 280.7967083333351,
      "v": 125
    },
    {
      "midi": 74,
      "hit": false,
      "t": 106086.80800000003,
      "d": 280.7967083333351,
      "v": 125
    },
    {
      "midi": 38,
      "hit": false,
      "t": 106376.6626666667,
      "d": 280.7967083333351,
      "v": 125
    },
    {
      "midi": 65,
      "hit": false,
      "t": 106376.6626666667,
      "d": 280.7967083333351,
      "v": 125
    },
    {
      "midi": 69,
      "hit": false,
      "t": 106376.6626666667,
      "d": 280.7967083333351,
      "v": 125
    },
    {
      "midi": 74,
      "hit": false,
      "t": 106376.6626666667,
      "d": 280.7967083333351,
      "v": 125
    },
    {
      "midi": 38,
      "hit": false,
      "t": 106666.51733333337,
      "d": 280.7967083333351,
      "v": 125
    },
    {
      "midi": 65,
      "hit": false,
      "t": 106666.51733333337,
      "d": 280.7967083333351,
      "v": 125
    },
    {
      "midi": 69,
      "hit": false,
      "t": 106666.51733333337,
      "d": 280.7967083333351,
      "v": 125
    },
    {
      "midi": 74,
      "hit": false,
      "t": 106666.51733333337,
      "d": 280.7967083333351,
      "v": 125
    },
    {
      "midi": 38,
      "hit": false,
      "t": 106956.37200000003,
      "d": 280.7967083333351,
      "v": 125
    },
    {
      "midi": 65,
      "hit": false,
      "t": 106956.37200000003,
      "d": 280.7967083333351,
      "v": 125
    },
    {
      "midi": 69,
      "hit": false,
      "t": 106956.37200000003,
      "d": 280.7967083333351,
      "v": 125
    },
    {
      "midi": 74,
      "hit": false,
      "t": 106956.37200000003,
      "d": 280.7967083333351,
      "v": 125
    },
    {
      "midi": 38,
      "hit": false,
      "t": 107246.2266666667,
      "d": 280.7967083333351,
      "v": 125
    },
    {
      "midi": 65,
      "hit": false,
      "t": 107246.2266666667,
      "d": 280.7967083333351,
      "v": 125
    },
    {
      "midi": 69,
      "hit": false,
      "t": 107246.2266666667,
      "d": 280.7967083333351,
      "v": 125
    },
    {
      "midi": 74,
      "hit": false,
      "t": 107246.2266666667,
      "d": 280.7967083333351,
      "v": 125
    },
    {
      "midi": 38,
      "hit": false,
      "t": 107536.08133333336,
      "d": 280.7967083333351,
      "v": 125
    },
    {
      "midi": 65,
      "hit": false,
      "t": 107536.08133333336,
      "d": 280.7967083333351,
      "v": 125
    },
    {
      "midi": 69,
      "hit": false,
      "t": 107536.08133333336,
      "d": 280.7967083333351,
      "v": 125
    },
    {
      "midi": 74,
      "hit": false,
      "t": 107536.08133333336,
      "d": 280.7967083333351,
      "v": 125
    },
    {
      "midi": 34,
      "hit": false,
      "t": 107825.93600000003,
      "d": 280.7967083333351,
      "v": 125
    },
    {
      "midi": 65,
      "hit": false,
      "t": 107825.93600000003,
      "d": 280.7967083333351,
      "v": 125
    },
    {
      "midi": 70,
      "hit": false,
      "t": 107825.93600000003,
      "d": 280.7967083333351,
      "v": 125
    },
    {
      "midi": 73,
      "hit": false,
      "t": 107825.93600000003,
      "d": 280.7967083333351,
      "v": 125
    },
    {
      "midi": 34,
      "hit": false,
      "t": 108115.7906666667,
      "d": 280.7967083333351,
      "v": 125
    },
    {
      "midi": 65,
      "hit": false,
      "t": 108115.7906666667,
      "d": 280.7967083333351,
      "v": 125
    },
    {
      "midi": 70,
      "hit": false,
      "t": 108115.7906666667,
      "d": 280.7967083333351,
      "v": 125
    },
    {
      "midi": 73,
      "hit": false,
      "t": 108115.7906666667,
      "d": 280.7967083333351,
      "v": 125
    },
    {
      "midi": 34,
      "hit": false,
      "t": 108405.64533333336,
      "d": 280.7967083333351,
      "v": 125
    },
    {
      "midi": 65,
      "hit": false,
      "t": 108405.64533333336,
      "d": 280.7967083333351,
      "v": 125
    },
    {
      "midi": 70,
      "hit": false,
      "t": 108405.64533333336,
      "d": 280.7967083333351,
      "v": 125
    },
    {
      "midi": 73,
      "hit": false,
      "t": 108405.64533333336,
      "d": 280.7967083333351,
      "v": 125
    },
    {
      "midi": 34,
      "hit": false,
      "t": 108695.50000000003,
      "d": 280.7967083333351,
      "v": 125
    },
    {
      "midi": 65,
      "hit": false,
      "t": 108695.50000000003,
      "d": 280.7967083333351,
      "v": 125
    },
    {
      "midi": 70,
      "hit": false,
      "t": 108695.50000000003,
      "d": 280.7967083333351,
      "v": 125
    },
    {
      "midi": 73,
      "hit": false,
      "t": 108695.50000000003,
      "d": 280.7967083333351,
      "v": 125
    },
    {
      "midi": 65,
      "hit": false,
      "t": 108985.35466666658,
      "d": 280.7967083333351,
      "v": 123
    },
    {
      "midi": 70,
      "hit": false,
      "t": 108985.35466666658,
      "d": 280.7967083333351,
      "v": 123
    },
    {
      "midi": 34,
      "hit": false,
      "t": 108985.3546666667,
      "d": 280.7967083333351,
      "v": 125
    },
    {
      "midi": 65,
      "hit": false,
      "t": 108985.3546666667,
      "d": 280.7967083333351,
      "v": 125
    },
    {
      "midi": 70,
      "hit": false,
      "t": 108985.3546666667,
      "d": 280.7967083333351,
      "v": 125
    },
    {
      "midi": 73,
      "hit": false,
      "t": 108985.3546666667,
      "d": 280.7967083333351,
      "v": 125
    },
    {
      "midi": 65,
      "hit": false,
      "t": 109275.20933333325,
      "d": 280.7967083333351,
      "v": 123
    },
    {
      "midi": 70,
      "hit": false,
      "t": 109275.20933333325,
      "d": 280.7967083333351,
      "v": 123
    },
    {
      "midi": 34,
      "hit": false,
      "t": 109275.20933333336,
      "d": 280.7967083333351,
      "v": 125
    },
    {
      "midi": 65,
      "hit": false,
      "t": 109275.20933333336,
      "d": 280.7967083333351,
      "v": 125
    },
    {
      "midi": 70,
      "hit": false,
      "t": 109275.20933333336,
      "d": 280.7967083333351,
      "v": 125
    },
    {
      "midi": 73,
      "hit": false,
      "t": 109275.20933333336,
      "d": 280.7967083333351,
      "v": 125
    },
    {
      "midi": 67,
      "hit": false,
      "t": 109565.06399999991,
      "d": 570.6513750000013,
      "v": 123
    },
    {
      "midi": 72,
      "hit": false,
      "t": 109565.06399999991,
      "d": 570.6513750000013,
      "v": 123
    },
    {
      "midi": 36,
      "hit": false,
      "t": 109565.06400000003,
      "d": 280.7967083333351,
      "v": 125
    },
    {
      "midi": 64,
      "hit": false,
      "t": 109565.06400000003,
      "d": 280.7967083333351,
      "v": 125
    },
    {
      "midi": 67,
      "hit": false,
      "t": 109565.06400000003,
      "d": 280.7967083333351,
      "v": 125
    },
    {
      "midi": 72,
      "hit": false,
      "t": 109565.06400000003,
      "d": 280.7967083333351,
      "v": 125
    },
    {
      "midi": 69,
      "hit": false,
      "t": 109746.22316666658,
      "d": 398.5501666666678,
      "v": 123
    },
    {
      "midi": 36,
      "hit": false,
      "t": 109854.9186666667,
      "d": 280.7967083333351,
      "v": 125
    },
    {
      "midi": 64,
      "hit": false,
      "t": 109854.9186666667,
      "d": 280.7967083333351,
      "v": 125
    },
    {
      "midi": 67,
      "hit": false,
      "t": 109854.9186666667,
      "d": 280.7967083333351,
      "v": 125
    },
    {
      "midi": 72,
      "hit": false,
      "t": 109854.9186666667,
      "d": 280.7967083333351,
      "v": 125
    },
    {
      "midi": 67,
      "hit": false,
      "t": 110144.77333333324,
      "d": 570.6513750000013,
      "v": 123
    },
    {
      "midi": 72,
      "hit": false,
      "t": 110144.77333333324,
      "d": 570.6513750000013,
      "v": 123
    },
    {
      "midi": 36,
      "hit": false,
      "t": 110144.77333333336,
      "d": 280.7967083333351,
      "v": 125
    },
    {
      "midi": 64,
      "hit": false,
      "t": 110144.77333333336,
      "d": 280.7967083333351,
      "v": 125
    },
    {
      "midi": 67,
      "hit": false,
      "t": 110144.77333333336,
      "d": 280.7967083333351,
      "v": 125
    },
    {
      "midi": 72,
      "hit": false,
      "t": 110144.77333333336,
      "d": 280.7967083333351,
      "v": 125
    },
    {
      "midi": 69,
      "hit": false,
      "t": 110325.93249999991,
      "d": 389.49220833333675,
      "v": 123
    },
    {
      "midi": 36,
      "hit": false,
      "t": 110434.62800000003,
      "d": 280.7967083333351,
      "v": 125
    },
    {
      "midi": 64,
      "hit": false,
      "t": 110434.62800000003,
      "d": 280.7967083333351,
      "v": 125
    },
    {
      "midi": 67,
      "hit": false,
      "t": 110434.62800000003,
      "d": 280.7967083333351,
      "v": 125
    },
    {
      "midi": 72,
      "hit": false,
      "t": 110434.62800000003,
      "d": 280.7967083333351,
      "v": 125
    },
    {
      "midi": 67,
      "hit": false,
      "t": 110724.48266666658,
      "d": 208.33304166665766,
      "v": 123
    },
    {
      "midi": 72,
      "hit": false,
      "t": 110724.48266666658,
      "d": 570.6513749999867,
      "v": 123
    },
    {
      "midi": 36,
      "hit": false,
      "t": 110724.48266666669,
      "d": 280.7967083333351,
      "v": 125
    },
    {
      "midi": 64,
      "hit": false,
      "t": 110724.48266666669,
      "d": 280.7967083333351,
      "v": 125
    },
    {
      "midi": 67,
      "hit": false,
      "t": 110724.48266666669,
      "d": 280.7967083333351,
      "v": 125
    },
    {
      "midi": 72,
      "hit": false,
      "t": 110724.48266666669,
      "d": 280.7967083333351,
      "v": 125
    },
    {
      "midi": 69,
      "hit": false,
      "t": 110905.64183333324,
      "d": 398.55016666665324,
      "v": 123
    },
    {
      "midi": 36,
      "hit": false,
      "t": 111014.33733333336,
      "d": 280.7967083333351,
      "v": 125
    },
    {
      "midi": 64,
      "hit": false,
      "t": 111014.33733333336,
      "d": 280.7967083333351,
      "v": 125
    },
    {
      "midi": 67,
      "hit": false,
      "t": 111014.33733333336,
      "d": 280.7967083333351,
      "v": 125
    },
    {
      "midi": 72,
      "hit": false,
      "t": 111014.33733333336,
      "d": 280.7967083333351,
      "v": 125
    },
    {
      "midi": 41,
      "hit": false,
      "t": 111304.19200000002,
      "d": 280.7967083333351,
      "v": 125
    },
    {
      "midi": 65,
      "hit": false,
      "t": 111304.19200000002,
      "d": 280.7967083333351,
      "v": 125
    },
    {
      "midi": 69,
      "hit": false,
      "t": 111304.19200000002,
      "d": 280.7967083333351,
      "v": 125
    },
    {
      "midi": 72,
      "hit": false,
      "t": 111304.19200000002,
      "d": 280.7967083333351,
      "v": 125
    },
    {
      "midi": 41,
      "hit": false,
      "t": 111594.04666666669,
      "d": 280.7967083333351,
      "v": 125
    },
    {
      "midi": 65,
      "hit": false,
      "t": 111594.04666666669,
      "d": 280.7967083333351,
      "v": 125
    },
    {
      "midi": 69,
      "hit": false,
      "t": 111594.04666666669,
      "d": 280.7967083333351,
      "v": 125
    },
    {
      "midi": 72,
      "hit": false,
      "t": 111594.04666666669,
      "d": 280.7967083333351,
      "v": 125
    },
    {
      "midi": 69,
      "hit": false,
      "t": 111883.90133333323,
      "d": 869.5639999999985,
      "v": 95
    },
    {
      "midi": 41,
      "hit": false,
      "t": 111883.90133333336,
      "d": 280.7967083333351,
      "v": 125
    },
    {
      "midi": 65,
      "hit": false,
      "t": 111883.90133333336,
      "d": 280.7967083333351,
      "v": 125
    },
    {
      "midi": 69,
      "hit": false,
      "t": 111883.90133333336,
      "d": 280.7967083333351,
      "v": 125
    },
    {
      "midi": 72,
      "hit": false,
      "t": 111883.90133333336,
      "d": 280.7967083333351,
      "v": 125
    },
    {
      "midi": 41,
      "hit": false,
      "t": 112173.75600000002,
      "d": 280.7967083333351,
      "v": 125
    },
    {
      "midi": 65,
      "hit": false,
      "t": 112173.75600000002,
      "d": 280.7967083333351,
      "v": 125
    },
    {
      "midi": 69,
      "hit": false,
      "t": 112173.75600000002,
      "d": 280.7967083333351,
      "v": 125
    },
    {
      "midi": 72,
      "hit": false,
      "t": 112173.75600000002,
      "d": 280.7967083333351,
      "v": 125
    },
    {
      "midi": 72,
      "hit": false,
      "t": 112463.61066666656,
      "d": 280.7967083333351,
      "v": 99
    },
    {
      "midi": 41,
      "hit": false,
      "t": 112463.61066666669,
      "d": 280.7967083333351,
      "v": 125
    },
    {
      "midi": 65,
      "hit": false,
      "t": 112463.61066666669,
      "d": 280.7967083333351,
      "v": 125
    },
    {
      "midi": 69,
      "hit": false,
      "t": 112463.61066666669,
      "d": 280.7967083333351,
      "v": 125
    },
    {
      "midi": 72,
      "hit": false,
      "t": 112463.61066666669,
      "d": 280.7967083333351,
      "v": 125
    },
    {
      "midi": 76,
      "hit": false,
      "t": 112753.46533333322,
      "d": 280.7967083333351,
      "v": 95
    },
    {
      "midi": 41,
      "hit": false,
      "t": 112753.46533333336,
      "d": 280.7967083333351,
      "v": 125
    },
    {
      "midi": 65,
      "hit": false,
      "t": 112753.46533333336,
      "d": 280.7967083333351,
      "v": 125
    },
    {
      "midi": 69,
      "hit": false,
      "t": 112753.46533333336,
      "d": 280.7967083333351,
      "v": 125
    },
    {
      "midi": 72,
      "hit": false,
      "t": 112753.46533333336,
      "d": 280.7967083333351,
      "v": 125
    },
    {
      "midi": 62,
      "hit": false,
      "t": 113043.31999999989,
      "d": 579.7093333333323,
      "v": 84
    },
    {
      "midi": 65,
      "hit": false,
      "t": 113043.31999999989,
      "d": 579.7093333333323,
      "v": 80
    },
    {
      "midi": 69,
      "hit": false,
      "t": 113043.31999999989,
      "d": 579.7093333333323,
      "v": 105
    },
    {
      "midi": 74,
      "hit": false,
      "t": 113043.31999999989,
      "d": 579.7093333333323,
      "v": 110
    },
    {
      "midi": 38,
      "hit": false,
      "t": 113043.32000000002,
      "d": 280.7967083333351,
      "v": 125
    },
    {
      "midi": 65,
      "hit": false,
      "t": 113043.32000000002,
      "d": 280.7967083333351,
      "v": 125
    },
    {
      "midi": 69,
      "hit": false,
      "t": 113043.32000000002,
      "d": 280.7967083333351,
      "v": 125
    },
    {
      "midi": 74,
      "hit": false,
      "t": 113043.32000000002,
      "d": 280.7967083333351,
      "v": 125
    },
    {
      "midi": 38,
      "hit": false,
      "t": 113333.17466666669,
      "d": 280.7967083333351,
      "v": 125
    },
    {
      "midi": 65,
      "hit": false,
      "t": 113333.17466666669,
      "d": 280.7967083333351,
      "v": 125
    },
    {
      "midi": 69,
      "hit": false,
      "t": 113333.17466666669,
      "d": 280.7967083333351,
      "v": 125
    },
    {
      "midi": 74,
      "hit": false,
      "t": 113333.17466666669,
      "d": 280.7967083333351,
      "v": 125
    },
    {
      "midi": 65,
      "hit": false,
      "t": 113623.02933333322,
      "d": 280.7967083333351,
      "v": 80
    },
    {
      "midi": 62,
      "hit": false,
      "t": 113623.02933333322,
      "d": 579.7093333333323,
      "v": 85
    },
    {
      "midi": 69,
      "hit": false,
      "t": 113623.02933333322,
      "d": 579.7093333333323,
      "v": 94
    },
    {
      "midi": 74,
      "hit": false,
      "t": 113623.02933333322,
      "d": 579.7093333333323,
      "v": 101
    },
    {
      "midi": 38,
      "hit": false,
      "t": 113623.02933333335,
      "d": 280.7967083333351,
      "v": 125
    },
    {
      "midi": 65,
      "hit": false,
      "t": 113623.02933333335,
      "d": 280.7967083333351,
      "v": 125
    },
    {
      "midi": 69,
      "hit": false,
      "t": 113623.02933333335,
      "d": 280.7967083333351,
      "v": 125
    },
    {
      "midi": 74,
      "hit": false,
      "t": 113623.02933333335,
      "d": 280.7967083333351,
      "v": 125
    },
    {
      "midi": 38,
      "hit": false,
      "t": 113912.88400000002,
      "d": 280.7967083333351,
      "v": 125
    },
    {
      "midi": 65,
      "hit": false,
      "t": 113912.88400000002,
      "d": 280.7967083333351,
      "v": 125
    },
    {
      "midi": 69,
      "hit": false,
      "t": 113912.88400000002,
      "d": 280.7967083333351,
      "v": 125
    },
    {
      "midi": 74,
      "hit": false,
      "t": 113912.88400000002,
      "d": 280.7967083333351,
      "v": 125
    },
    {
      "midi": 65,
      "hit": false,
      "t": 114202.73866666656,
      "d": 280.7967083333351,
      "v": 112
    },
    {
      "midi": 38,
      "hit": false,
      "t": 114202.73866666669,
      "d": 280.7967083333351,
      "v": 125
    },
    {
      "midi": 65,
      "hit": false,
      "t": 114202.73866666669,
      "d": 280.7967083333351,
      "v": 125
    },
    {
      "midi": 69,
      "hit": false,
      "t": 114202.73866666669,
      "d": 280.7967083333351,
      "v": 125
    },
    {
      "midi": 74,
      "hit": false,
      "t": 114202.73866666669,
      "d": 280.7967083333351,
      "v": 125
    },
    {
      "midi": 69,
      "hit": false,
      "t": 114492.59333333322,
      "d": 280.7967083333351,
      "v": 105
    },
    {
      "midi": 38,
      "hit": false,
      "t": 114492.59333333335,
      "d": 280.7967083333351,
      "v": 125
    },
    {
      "midi": 65,
      "hit": false,
      "t": 114492.59333333335,
      "d": 280.7967083333351,
      "v": 125
    },
    {
      "midi": 69,
      "hit": false,
      "t": 114492.59333333335,
      "d": 280.7967083333351,
      "v": 125
    },
    {
      "midi": 74,
      "hit": false,
      "t": 114492.59333333335,
      "d": 280.7967083333351,
      "v": 125
    },
    {
      "midi": 65,
      "hit": false,
      "t": 114782.44799999989,
      "d": 579.7093333333323,
      "v": 105
    },
    {
      "midi": 70,
      "hit": false,
      "t": 114782.44799999989,
      "d": 579.7093333333323,
      "v": 91
    },
    {
      "midi": 73,
      "hit": false,
      "t": 114782.44799999989,
      "d": 579.7093333333323,
      "v": 107
    },
    {
      "midi": 34,
      "hit": false,
      "t": 114782.44800000002,
      "d": 280.7967083333351,
      "v": 125
    },
    {
      "midi": 65,
      "hit": false,
      "t": 114782.44800000002,
      "d": 280.7967083333351,
      "v": 125
    },
    {
      "midi": 70,
      "hit": false,
      "t": 114782.44800000002,
      "d": 280.7967083333351,
      "v": 125
    },
    {
      "midi": 73,
      "hit": false,
      "t": 114782.44800000002,
      "d": 280.7967083333351,
      "v": 125
    },
    {
      "midi": 34,
      "hit": false,
      "t": 115072.30266666668,
      "d": 280.7967083333351,
      "v": 125
    },
    {
      "midi": 65,
      "hit": false,
      "t": 115072.30266666668,
      "d": 280.7967083333351,
      "v": 125
    },
    {
      "midi": 70,
      "hit": false,
      "t": 115072.30266666668,
      "d": 280.7967083333351,
      "v": 125
    },
    {
      "midi": 73,
      "hit": false,
      "t": 115072.30266666668,
      "d": 280.7967083333351,
      "v": 125
    },
    {
      "midi": 65,
      "hit": false,
      "t": 115362.15733333322,
      "d": 579.7093333333323,
      "v": 94
    },
    {
      "midi": 70,
      "hit": false,
      "t": 115362.15733333322,
      "d": 579.7093333333323,
      "v": 97
    },
    {
      "midi": 73,
      "hit": false,
      "t": 115362.15733333322,
      "d": 579.7093333333323,
      "v": 91
    },
    {
      "midi": 34,
      "hit": false,
      "t": 115362.15733333335,
      "d": 280.7967083333351,
      "v": 125
    },
    {
      "midi": 65,
      "hit": false,
      "t": 115362.15733333335,
      "d": 280.7967083333351,
      "v": 125
    },
    {
      "midi": 70,
      "hit": false,
      "t": 115362.15733333335,
      "d": 280.7967083333351,
      "v": 125
    },
    {
      "midi": 73,
      "hit": false,
      "t": 115362.15733333335,
      "d": 280.7967083333351,
      "v": 125
    },
    {
      "midi": 34,
      "hit": false,
      "t": 115652.01200000002,
      "d": 280.7967083333351,
      "v": 125
    },
    {
      "midi": 65,
      "hit": false,
      "t": 115652.01200000002,
      "d": 280.7967083333351,
      "v": 125
    },
    {
      "midi": 70,
      "hit": false,
      "t": 115652.01200000002,
      "d": 280.7967083333351,
      "v": 125
    },
    {
      "midi": 73,
      "hit": false,
      "t": 115652.01200000002,
      "d": 280.7967083333351,
      "v": 125
    },
    {
      "midi": 65,
      "hit": false,
      "t": 115941.86666666655,
      "d": 280.7967083333351,
      "v": 105
    },
    {
      "midi": 70,
      "hit": false,
      "t": 115941.86666666655,
      "d": 280.7967083333351,
      "v": 101
    },
    {
      "midi": 73,
      "hit": false,
      "t": 115941.86666666655,
      "d": 280.7967083333351,
      "v": 103
    },
    {
      "midi": 34,
      "hit": false,
      "t": 115941.86666666668,
      "d": 280.7967083333351,
      "v": 125
    },
    {
      "midi": 65,
      "hit": false,
      "t": 115941.86666666668,
      "d": 280.7967083333351,
      "v": 125
    },
    {
      "midi": 70,
      "hit": false,
      "t": 115941.86666666668,
      "d": 280.7967083333351,
      "v": 125
    },
    {
      "midi": 73,
      "hit": false,
      "t": 115941.86666666668,
      "d": 280.7967083333351,
      "v": 125
    },
    {
      "midi": 65,
      "hit": false,
      "t": 116231.72133333322,
      "d": 280.7967083333351,
      "v": 104
    },
    {
      "midi": 70,
      "hit": false,
      "t": 116231.72133333322,
      "d": 280.7967083333351,
      "v": 99
    },
    {
      "midi": 73,
      "hit": false,
      "t": 116231.72133333322,
      "d": 280.7967083333351,
      "v": 93
    },
    {
      "midi": 34,
      "hit": false,
      "t": 116231.72133333335,
      "d": 280.7967083333351,
      "v": 125
    },
    {
      "midi": 65,
      "hit": false,
      "t": 116231.72133333335,
      "d": 280.7967083333351,
      "v": 125
    },
    {
      "midi": 70,
      "hit": false,
      "t": 116231.72133333335,
      "d": 280.7967083333351,
      "v": 125
    },
    {
      "midi": 73,
      "hit": false,
      "t": 116231.72133333335,
      "d": 280.7967083333351,
      "v": 125
    },
    {
      "midi": 60,
      "hit": false,
      "t": 116521.57599999988,
      "d": 1739.1280000000115,
      "v": 81
    },
    {
      "midi": 64,
      "hit": false,
      "t": 116521.57599999988,
      "d": 1739.1280000000115,
      "v": 99
    },
    {
      "midi": 67,
      "hit": false,
      "t": 116521.57599999988,
      "d": 1739.1280000000115,
      "v": 125
    },
    {
      "midi": 72,
      "hit": false,
      "t": 116521.57599999988,
      "d": 1739.1280000000115,
      "v": 110
    },
    {
      "midi": 36,
      "hit": false,
      "t": 116521.57600000002,
      "d": 280.7967083333351,
      "v": 125
    },
    {
      "midi": 64,
      "hit": false,
      "t": 116521.57600000002,
      "d": 280.7967083333351,
      "v": 125
    },
    {
      "midi": 67,
      "hit": false,
      "t": 116521.57600000002,
      "d": 280.7967083333351,
      "v": 125
    },
    {
      "midi": 72,
      "hit": false,
      "t": 116521.57600000002,
      "d": 280.7967083333351,
      "v": 125
    },
    {
      "midi": 36,
      "hit": false,
      "t": 116811.43066666668,
      "d": 280.7967083333351,
      "v": 125
    },
    {
      "midi": 64,
      "hit": false,
      "t": 116811.43066666668,
      "d": 280.7967083333351,
      "v": 125
    },
    {
      "midi": 67,
      "hit": false,
      "t": 116811.43066666668,
      "d": 280.7967083333351,
      "v": 125
    },
    {
      "midi": 72,
      "hit": false,
      "t": 116811.43066666668,
      "d": 280.7967083333351,
      "v": 125
    },
    {
      "midi": 36,
      "hit": false,
      "t": 117101.28533333335,
      "d": 280.7967083333351,
      "v": 125
    },
    {
      "midi": 64,
      "hit": false,
      "t": 117101.28533333335,
      "d": 280.7967083333351,
      "v": 125
    },
    {
      "midi": 67,
      "hit": false,
      "t": 117101.28533333335,
      "d": 280.7967083333351,
      "v": 125
    },
    {
      "midi": 72,
      "hit": false,
      "t": 117101.28533333335,
      "d": 280.7967083333351,
      "v": 125
    },
    {
      "midi": 36,
      "hit": false,
      "t": 117391.14000000001,
      "d": 280.7967083333351,
      "v": 125
    },
    {
      "midi": 64,
      "hit": false,
      "t": 117391.14000000001,
      "d": 280.7967083333351,
      "v": 125
    },
    {
      "midi": 67,
      "hit": false,
      "t": 117391.14000000001,
      "d": 280.7967083333351,
      "v": 125
    },
    {
      "midi": 72,
      "hit": false,
      "t": 117391.14000000001,
      "d": 280.7967083333351,
      "v": 125
    },
    {
      "midi": 36,
      "hit": false,
      "t": 117680.99466666668,
      "d": 280.7967083333351,
      "v": 125
    },
    {
      "midi": 64,
      "hit": false,
      "t": 117680.99466666668,
      "d": 280.7967083333351,
      "v": 125
    },
    {
      "midi": 67,
      "hit": false,
      "t": 117680.99466666668,
      "d": 280.7967083333351,
      "v": 125
    },
    {
      "midi": 72,
      "hit": false,
      "t": 117680.99466666668,
      "d": 280.7967083333351,
      "v": 125
    },
    {
      "midi": 36,
      "hit": false,
      "t": 117970.84933333335,
      "d": 280.7967083333351,
      "v": 125
    },
    {
      "midi": 64,
      "hit": false,
      "t": 117970.84933333335,
      "d": 280.7967083333351,
      "v": 125
    },
    {
      "midi": 67,
      "hit": false,
      "t": 117970.84933333335,
      "d": 280.7967083333351,
      "v": 125
    },
    {
      "midi": 72,
      "hit": false,
      "t": 117970.84933333335,
      "d": 280.7967083333351,
      "v": 125
    },
    {
      "midi": 41,
      "hit": false,
      "t": 118260.70400000001,
      "d": 280.7967083333351,
      "v": 125
    },
    {
      "midi": 65,
      "hit": false,
      "t": 118260.70400000001,
      "d": 280.7967083333351,
      "v": 125
    },
    {
      "midi": 69,
      "hit": false,
      "t": 118260.70400000001,
      "d": 280.7967083333351,
      "v": 125
    },
    {
      "midi": 72,
      "hit": false,
      "t": 118260.70400000001,
      "d": 280.7967083333351,
      "v": 125
    },
    {
      "midi": 41,
      "hit": false,
      "t": 118550.55866666668,
      "d": 280.7967083333351,
      "v": 125
    },
    {
      "midi": 65,
      "hit": false,
      "t": 118550.55866666668,
      "d": 280.7967083333351,
      "v": 125
    },
    {
      "midi": 69,
      "hit": false,
      "t": 118550.55866666668,
      "d": 280.7967083333351,
      "v": 125
    },
    {
      "midi": 72,
      "hit": false,
      "t": 118550.55866666668,
      "d": 280.7967083333351,
      "v": 125
    },
    {
      "midi": 41,
      "hit": false,
      "t": 118840.41333333334,
      "d": 280.7967083333351,
      "v": 125
    },
    {
      "midi": 65,
      "hit": false,
      "t": 118840.41333333334,
      "d": 280.7967083333351,
      "v": 125
    },
    {
      "midi": 69,
      "hit": false,
      "t": 118840.41333333334,
      "d": 280.7967083333351,
      "v": 125
    },
    {
      "midi": 72,
      "hit": false,
      "t": 118840.41333333334,
      "d": 280.7967083333351,
      "v": 125
    },
    {
      "midi": 41,
      "hit": false,
      "t": 119130.26800000001,
      "d": 280.7967083333351,
      "v": 125
    },
    {
      "midi": 65,
      "hit": false,
      "t": 119130.26800000001,
      "d": 280.7967083333351,
      "v": 125
    },
    {
      "midi": 69,
      "hit": false,
      "t": 119130.26800000001,
      "d": 280.7967083333351,
      "v": 125
    },
    {
      "midi": 72,
      "hit": false,
      "t": 119130.26800000001,
      "d": 280.7967083333351,
      "v": 125
    },
    {
      "midi": 41,
      "hit": false,
      "t": 119420.12266666668,
      "d": 280.7967083333351,
      "v": 125
    },
    {
      "midi": 65,
      "hit": false,
      "t": 119420.12266666668,
      "d": 280.7967083333351,
      "v": 125
    },
    {
      "midi": 69,
      "hit": false,
      "t": 119420.12266666668,
      "d": 280.7967083333351,
      "v": 125
    },
    {
      "midi": 72,
      "hit": false,
      "t": 119420.12266666668,
      "d": 280.7967083333351,
      "v": 125
    },
    {
      "midi": 41,
      "hit": false,
      "t": 119709.97733333334,
      "d": 280.7967083333351,
      "v": 125
    },
    {
      "midi": 65,
      "hit": false,
      "t": 119709.97733333334,
      "d": 280.7967083333351,
      "v": 125
    },
    {
      "midi": 69,
      "hit": false,
      "t": 119709.97733333334,
      "d": 280.7967083333351,
      "v": 125
    },
    {
      "midi": 72,
      "hit": false,
      "t": 119709.97733333334,
      "d": 280.7967083333351,
      "v": 125
    },
    {
      "midi": 38,
      "hit": false,
      "t": 119999.83200000001,
      "d": 280.7967083333351,
      "v": 125
    },
    {
      "midi": 65,
      "hit": false,
      "t": 119999.83200000001,
      "d": 280.7967083333351,
      "v": 125
    },
    {
      "midi": 69,
      "hit": false,
      "t": 119999.83200000001,
      "d": 280.7967083333351,
      "v": 125
    },
    {
      "midi": 74,
      "hit": false,
      "t": 119999.83200000001,
      "d": 280.7967083333351,
      "v": 125
    },
    {
      "midi": 38,
      "hit": false,
      "t": 120289.68666666668,
      "d": 280.7967083333351,
      "v": 125
    },
    {
      "midi": 65,
      "hit": false,
      "t": 120289.68666666668,
      "d": 280.7967083333351,
      "v": 125
    },
    {
      "midi": 69,
      "hit": false,
      "t": 120289.68666666668,
      "d": 280.7967083333351,
      "v": 125
    },
    {
      "midi": 74,
      "hit": false,
      "t": 120289.68666666668,
      "d": 280.7967083333351,
      "v": 125
    },
    {
      "midi": 38,
      "hit": false,
      "t": 120579.54133333334,
      "d": 280.7967083333351,
      "v": 125
    },
    {
      "midi": 65,
      "hit": false,
      "t": 120579.54133333334,
      "d": 280.7967083333351,
      "v": 125
    },
    {
      "midi": 69,
      "hit": false,
      "t": 120579.54133333334,
      "d": 280.7967083333351,
      "v": 125
    },
    {
      "midi": 74,
      "hit": false,
      "t": 120579.54133333334,
      "d": 280.7967083333351,
      "v": 125
    },
    {
      "midi": 38,
      "hit": false,
      "t": 120869.39600000001,
      "d": 280.7967083333351,
      "v": 125
    },
    {
      "midi": 65,
      "hit": false,
      "t": 120869.39600000001,
      "d": 280.7967083333351,
      "v": 125
    },
    {
      "midi": 69,
      "hit": false,
      "t": 120869.39600000001,
      "d": 280.7967083333351,
      "v": 125
    },
    {
      "midi": 74,
      "hit": false,
      "t": 120869.39600000001,
      "d": 280.7967083333351,
      "v": 125
    },
    {
      "midi": 38,
      "hit": false,
      "t": 121159.25066666667,
      "d": 280.7967083333351,
      "v": 125
    },
    {
      "midi": 65,
      "hit": false,
      "t": 121159.25066666667,
      "d": 280.7967083333351,
      "v": 125
    },
    {
      "midi": 69,
      "hit": false,
      "t": 121159.25066666667,
      "d": 280.7967083333351,
      "v": 125
    },
    {
      "midi": 74,
      "hit": false,
      "t": 121159.25066666667,
      "d": 280.7967083333351,
      "v": 125
    },
    {
      "midi": 38,
      "hit": false,
      "t": 121449.10533333334,
      "d": 280.7967083333351,
      "v": 125
    },
    {
      "midi": 65,
      "hit": false,
      "t": 121449.10533333334,
      "d": 280.7967083333351,
      "v": 125
    },
    {
      "midi": 69,
      "hit": false,
      "t": 121449.10533333334,
      "d": 280.7967083333351,
      "v": 125
    },
    {
      "midi": 74,
      "hit": false,
      "t": 121449.10533333334,
      "d": 280.7967083333351,
      "v": 125
    },
    {
      "midi": 34,
      "hit": false,
      "t": 121738.96,
      "d": 280.7967083333351,
      "v": 125
    },
    {
      "midi": 65,
      "hit": false,
      "t": 121738.96,
      "d": 280.7967083333351,
      "v": 125
    },
    {
      "midi": 70,
      "hit": false,
      "t": 121738.96,
      "d": 280.7967083333351,
      "v": 125
    },
    {
      "midi": 73,
      "hit": false,
      "t": 121738.96,
      "d": 280.7967083333351,
      "v": 125
    },
    {
      "midi": 34,
      "hit": false,
      "t": 122028.81466666667,
      "d": 280.7967083333351,
      "v": 125
    },
    {
      "midi": 65,
      "hit": false,
      "t": 122028.81466666667,
      "d": 280.7967083333351,
      "v": 125
    },
    {
      "midi": 70,
      "hit": false,
      "t": 122028.81466666667,
      "d": 280.7967083333351,
      "v": 125
    },
    {
      "midi": 73,
      "hit": false,
      "t": 122028.81466666667,
      "d": 280.7967083333351,
      "v": 125
    },
    {
      "midi": 34,
      "hit": false,
      "t": 122318.66933333334,
      "d": 280.7967083333351,
      "v": 125
    },
    {
      "midi": 65,
      "hit": false,
      "t": 122318.66933333334,
      "d": 280.7967083333351,
      "v": 125
    },
    {
      "midi": 70,
      "hit": false,
      "t": 122318.66933333334,
      "d": 280.7967083333351,
      "v": 125
    },
    {
      "midi": 73,
      "hit": false,
      "t": 122318.66933333334,
      "d": 280.7967083333351,
      "v": 125
    },
    {
      "midi": 34,
      "hit": false,
      "t": 122608.524,
      "d": 280.7967083333351,
      "v": 125
    },
    {
      "midi": 65,
      "hit": false,
      "t": 122608.524,
      "d": 280.7967083333351,
      "v": 125
    },
    {
      "midi": 70,
      "hit": false,
      "t": 122608.524,
      "d": 280.7967083333351,
      "v": 125
    },
    {
      "midi": 73,
      "hit": false,
      "t": 122608.524,
      "d": 280.7967083333351,
      "v": 125
    },
    {
      "midi": 34,
      "hit": false,
      "t": 122898.37866666667,
      "d": 280.7967083333351,
      "v": 125
    },
    {
      "midi": 65,
      "hit": false,
      "t": 122898.37866666667,
      "d": 280.7967083333351,
      "v": 125
    },
    {
      "midi": 70,
      "hit": false,
      "t": 122898.37866666667,
      "d": 280.7967083333351,
      "v": 125
    },
    {
      "midi": 73,
      "hit": false,
      "t": 122898.37866666667,
      "d": 280.7967083333351,
      "v": 125
    },
    {
      "midi": 34,
      "hit": false,
      "t": 123188.23333333334,
      "d": 280.7967083333351,
      "v": 125
    },
    {
      "midi": 65,
      "hit": false,
      "t": 123188.23333333334,
      "d": 280.7967083333351,
      "v": 125
    },
    {
      "midi": 70,
      "hit": false,
      "t": 123188.23333333334,
      "d": 280.7967083333351,
      "v": 125
    },
    {
      "midi": 73,
      "hit": false,
      "t": 123188.23333333334,
      "d": 280.7967083333351,
      "v": 125
    },
    {
      "midi": 36,
      "hit": false,
      "t": 123478.088,
      "d": 280.7967083333351,
      "v": 125
    },
    {
      "midi": 64,
      "hit": false,
      "t": 123478.088,
      "d": 280.7967083333351,
      "v": 125
    },
    {
      "midi": 67,
      "hit": false,
      "t": 123478.088,
      "d": 280.7967083333351,
      "v": 125
    },
    {
      "midi": 72,
      "hit": false,
      "t": 123478.088,
      "d": 280.7967083333351,
      "v": 125
    },
    {
      "midi": 36,
      "hit": false,
      "t": 123767.94266666667,
      "d": 280.7967083333351,
      "v": 125
    },
    {
      "midi": 64,
      "hit": false,
      "t": 123767.94266666667,
      "d": 280.7967083333351,
      "v": 125
    },
    {
      "midi": 67,
      "hit": false,
      "t": 123767.94266666667,
      "d": 280.7967083333351,
      "v": 125
    },
    {
      "midi": 72,
      "hit": false,
      "t": 123767.94266666667,
      "d": 280.7967083333351,
      "v": 125
    },
    {
      "midi": 36,
      "hit": false,
      "t": 124057.79733333334,
      "d": 280.7967083333351,
      "v": 125
    },
    {
      "midi": 64,
      "hit": false,
      "t": 124057.79733333334,
      "d": 280.7967083333351,
      "v": 125
    },
    {
      "midi": 67,
      "hit": false,
      "t": 124057.79733333334,
      "d": 280.7967083333351,
      "v": 125
    },
    {
      "midi": 72,
      "hit": false,
      "t": 124057.79733333334,
      "d": 280.7967083333351,
      "v": 125
    },
    {
      "midi": 36,
      "hit": false,
      "t": 124347.652,
      "d": 280.7967083333351,
      "v": 125
    },
    {
      "midi": 64,
      "hit": false,
      "t": 124347.652,
      "d": 280.7967083333351,
      "v": 125
    },
    {
      "midi": 67,
      "hit": false,
      "t": 124347.652,
      "d": 280.7967083333351,
      "v": 125
    },
    {
      "midi": 72,
      "hit": false,
      "t": 124347.652,
      "d": 280.7967083333351,
      "v": 125
    },
    {
      "midi": 36,
      "hit": false,
      "t": 124637.50666666667,
      "d": 280.7967083333351,
      "v": 125
    },
    {
      "midi": 64,
      "hit": false,
      "t": 124637.50666666667,
      "d": 280.7967083333351,
      "v": 125
    },
    {
      "midi": 67,
      "hit": false,
      "t": 124637.50666666667,
      "d": 280.7967083333351,
      "v": 125
    },
    {
      "midi": 72,
      "hit": false,
      "t": 124637.50666666667,
      "d": 280.7967083333351,
      "v": 125
    },
    {
      "midi": 36,
      "hit": false,
      "t": 124927.36133333333,
      "d": 280.7967083333351,
      "v": 125
    },
    {
      "midi": 64,
      "hit": false,
      "t": 124927.36133333333,
      "d": 280.7967083333351,
      "v": 125
    },
    {
      "midi": 67,
      "hit": false,
      "t": 124927.36133333333,
      "d": 280.7967083333351,
      "v": 125
    },
    {
      "midi": 72,
      "hit": false,
      "t": 124927.36133333333,
      "d": 280.7967083333351,
      "v": 125
    },
    {
      "midi": 41,
      "hit": false,
      "t": 125217.216,
      "d": 280.7967083333351,
      "v": 125
    },
    {
      "midi": 65,
      "hit": false,
      "t": 125217.216,
      "d": 280.7967083333351,
      "v": 125
    },
    {
      "midi": 69,
      "hit": false,
      "t": 125217.216,
      "d": 280.7967083333351,
      "v": 125
    },
    {
      "midi": 72,
      "hit": false,
      "t": 125217.216,
      "d": 280.7967083333351,
      "v": 125
    },
    {
      "midi": 41,
      "hit": false,
      "t": 125507.07066666667,
      "d": 280.7967083333351,
      "v": 125
    },
    {
      "midi": 65,
      "hit": false,
      "t": 125507.07066666667,
      "d": 280.7967083333351,
      "v": 125
    },
    {
      "midi": 69,
      "hit": false,
      "t": 125507.07066666667,
      "d": 280.7967083333351,
      "v": 125
    },
    {
      "midi": 72,
      "hit": false,
      "t": 125507.07066666667,
      "d": 280.7967083333351,
      "v": 125
    },
    {
      "midi": 41,
      "hit": false,
      "t": 125796.92533333333,
      "d": 280.7967083333351,
      "v": 125
    },
    {
      "midi": 65,
      "hit": false,
      "t": 125796.92533333333,
      "d": 280.7967083333351,
      "v": 125
    },
    {
      "midi": 69,
      "hit": false,
      "t": 125796.92533333333,
      "d": 280.7967083333351,
      "v": 125
    },
    {
      "midi": 72,
      "hit": false,
      "t": 125796.92533333333,
      "d": 280.7967083333351,
      "v": 125
    },
    {
      "midi": 41,
      "hit": false,
      "t": 126086.78,
      "d": 280.7967083333351,
      "v": 125
    },
    {
      "midi": 65,
      "hit": false,
      "t": 126086.78,
      "d": 280.7967083333351,
      "v": 125
    },
    {
      "midi": 69,
      "hit": false,
      "t": 126086.78,
      "d": 280.7967083333351,
      "v": 125
    },
    {
      "midi": 72,
      "hit": false,
      "t": 126086.78,
      "d": 280.7967083333351,
      "v": 125
    },
    {
      "midi": 41,
      "hit": false,
      "t": 126376.63466666666,
      "d": 280.7967083333351,
      "v": 125
    },
    {
      "midi": 65,
      "hit": false,
      "t": 126376.63466666666,
      "d": 280.7967083333351,
      "v": 125
    },
    {
      "midi": 69,
      "hit": false,
      "t": 126376.63466666666,
      "d": 280.7967083333351,
      "v": 125
    },
    {
      "midi": 72,
      "hit": false,
      "t": 126376.63466666666,
      "d": 280.7967083333351,
      "v": 125
    },
    {
      "midi": 41,
      "hit": false,
      "t": 126666.48933333333,
      "d": 280.7967083333351,
      "v": 125
    },
    {
      "midi": 65,
      "hit": false,
      "t": 126666.48933333333,
      "d": 280.7967083333351,
      "v": 125
    },
    {
      "midi": 69,
      "hit": false,
      "t": 126666.48933333333,
      "d": 280.7967083333351,
      "v": 125
    },
    {
      "midi": 72,
      "hit": false,
      "t": 126666.48933333333,
      "d": 280.7967083333351,
      "v": 125
    },
    {
      "midi": 38,
      "hit": false,
      "t": 126956.344,
      "d": 280.7967083333351,
      "v": 125
    },
    {
      "midi": 65,
      "hit": false,
      "t": 126956.344,
      "d": 280.7967083333351,
      "v": 125
    },
    {
      "midi": 69,
      "hit": false,
      "t": 126956.344,
      "d": 280.7967083333351,
      "v": 125
    },
    {
      "midi": 74,
      "hit": false,
      "t": 126956.344,
      "d": 280.7967083333351,
      "v": 125
    },
    {
      "midi": 38,
      "hit": false,
      "t": 127246.19866666666,
      "d": 280.7967083333351,
      "v": 125
    },
    {
      "midi": 65,
      "hit": false,
      "t": 127246.19866666666,
      "d": 280.7967083333351,
      "v": 125
    },
    {
      "midi": 69,
      "hit": false,
      "t": 127246.19866666666,
      "d": 280.7967083333351,
      "v": 125
    },
    {
      "midi": 74,
      "hit": false,
      "t": 127246.19866666666,
      "d": 280.7967083333351,
      "v": 125
    },
    {
      "midi": 38,
      "hit": false,
      "t": 127536.05333333333,
      "d": 280.7967083333351,
      "v": 125
    },
    {
      "midi": 65,
      "hit": false,
      "t": 127536.05333333333,
      "d": 280.7967083333351,
      "v": 125
    },
    {
      "midi": 69,
      "hit": false,
      "t": 127536.05333333333,
      "d": 280.7967083333351,
      "v": 125
    },
    {
      "midi": 74,
      "hit": false,
      "t": 127536.05333333333,
      "d": 280.7967083333351,
      "v": 125
    },
    {
      "midi": 38,
      "hit": false,
      "t": 127825.908,
      "d": 280.7967083333351,
      "v": 125
    },
    {
      "midi": 65,
      "hit": false,
      "t": 127825.908,
      "d": 280.7967083333351,
      "v": 125
    },
    {
      "midi": 69,
      "hit": false,
      "t": 127825.908,
      "d": 280.7967083333351,
      "v": 125
    },
    {
      "midi": 74,
      "hit": false,
      "t": 127825.908,
      "d": 280.7967083333351,
      "v": 125
    },
    {
      "midi": 38,
      "hit": false,
      "t": 128115.76266666666,
      "d": 280.7967083333351,
      "v": 125
    },
    {
      "midi": 65,
      "hit": false,
      "t": 128115.76266666666,
      "d": 280.7967083333351,
      "v": 125
    },
    {
      "midi": 69,
      "hit": false,
      "t": 128115.76266666666,
      "d": 280.7967083333351,
      "v": 125
    },
    {
      "midi": 74,
      "hit": false,
      "t": 128115.76266666666,
      "d": 280.7967083333351,
      "v": 125
    },
    {
      "midi": 38,
      "hit": false,
      "t": 128405.61733333333,
      "d": 280.7967083333351,
      "v": 125
    },
    {
      "midi": 65,
      "hit": false,
      "t": 128405.61733333333,
      "d": 280.7967083333351,
      "v": 125
    },
    {
      "midi": 69,
      "hit": false,
      "t": 128405.61733333333,
      "d": 280.7967083333351,
      "v": 125
    },
    {
      "midi": 74,
      "hit": false,
      "t": 128405.61733333333,
      "d": 280.7967083333351,
      "v": 125
    },
    {
      "midi": 34,
      "hit": false,
      "t": 128695.472,
      "d": 280.7967083333351,
      "v": 125
    },
    {
      "midi": 65,
      "hit": false,
      "t": 128695.472,
      "d": 280.7967083333351,
      "v": 125
    },
    {
      "midi": 70,
      "hit": false,
      "t": 128695.472,
      "d": 280.7967083333351,
      "v": 125
    },
    {
      "midi": 73,
      "hit": false,
      "t": 128695.472,
      "d": 280.7967083333351,
      "v": 125
    },
    {
      "midi": 34,
      "hit": false,
      "t": 128985.32666666666,
      "d": 280.7967083333351,
      "v": 125
    },
    {
      "midi": 65,
      "hit": false,
      "t": 128985.32666666666,
      "d": 280.7967083333351,
      "v": 125
    },
    {
      "midi": 70,
      "hit": false,
      "t": 128985.32666666666,
      "d": 280.7967083333351,
      "v": 125
    },
    {
      "midi": 73,
      "hit": false,
      "t": 128985.32666666666,
      "d": 280.7967083333351,
      "v": 125
    },
    {
      "midi": 34,
      "hit": false,
      "t": 129275.18133333333,
      "d": 280.7967083333351,
      "v": 125
    },
    {
      "midi": 65,
      "hit": false,
      "t": 129275.18133333333,
      "d": 280.7967083333351,
      "v": 125
    },
    {
      "midi": 70,
      "hit": false,
      "t": 129275.18133333333,
      "d": 280.7967083333351,
      "v": 125
    },
    {
      "midi": 73,
      "hit": false,
      "t": 129275.18133333333,
      "d": 280.7967083333351,
      "v": 125
    },
    {
      "midi": 34,
      "hit": false,
      "t": 129565.036,
      "d": 280.7967083333351,
      "v": 125
    },
    {
      "midi": 65,
      "hit": false,
      "t": 129565.036,
      "d": 280.7967083333351,
      "v": 125
    },
    {
      "midi": 70,
      "hit": false,
      "t": 129565.036,
      "d": 280.7967083333351,
      "v": 125
    },
    {
      "midi": 73,
      "hit": false,
      "t": 129565.036,
      "d": 280.7967083333351,
      "v": 125
    },
    {
      "midi": 34,
      "hit": false,
      "t": 129854.89066666666,
      "d": 280.7967083333351,
      "v": 125
    },
    {
      "midi": 65,
      "hit": false,
      "t": 129854.89066666666,
      "d": 280.7967083333351,
      "v": 125
    },
    {
      "midi": 70,
      "hit": false,
      "t": 129854.89066666666,
      "d": 280.7967083333351,
      "v": 125
    },
    {
      "midi": 73,
      "hit": false,
      "t": 129854.89066666666,
      "d": 280.7967083333351,
      "v": 125
    },
    {
      "midi": 34,
      "hit": false,
      "t": 130144.74533333333,
      "d": 280.7967083333351,
      "v": 125
    },
    {
      "midi": 65,
      "hit": false,
      "t": 130144.74533333333,
      "d": 280.7967083333351,
      "v": 125
    },
    {
      "midi": 70,
      "hit": false,
      "t": 130144.74533333333,
      "d": 280.7967083333351,
      "v": 125
    },
    {
      "midi": 73,
      "hit": false,
      "t": 130144.74533333333,
      "d": 280.7967083333351,
      "v": 125
    },
    {
      "midi": 36,
      "hit": false,
      "t": 130434.59999999999,
      "d": 280.7967083333351,
      "v": 125
    },
    {
      "midi": 64,
      "hit": false,
      "t": 130434.59999999999,
      "d": 280.7967083333351,
      "v": 125
    },
    {
      "midi": 67,
      "hit": false,
      "t": 130434.59999999999,
      "d": 280.7967083333351,
      "v": 125
    },
    {
      "midi": 72,
      "hit": false,
      "t": 130434.59999999999,
      "d": 280.7967083333351,
      "v": 125
    },
    {
      "midi": 36,
      "hit": false,
      "t": 130724.45466666666,
      "d": 280.7967083333351,
      "v": 125
    },
    {
      "midi": 64,
      "hit": false,
      "t": 130724.45466666666,
      "d": 280.7967083333351,
      "v": 125
    },
    {
      "midi": 67,
      "hit": false,
      "t": 130724.45466666666,
      "d": 280.7967083333351,
      "v": 125
    },
    {
      "midi": 72,
      "hit": false,
      "t": 130724.45466666666,
      "d": 280.7967083333351,
      "v": 125
    },
    {
      "midi": 36,
      "hit": false,
      "t": 131014.30933333332,
      "d": 280.79670833332057,
      "v": 125
    },
    {
      "midi": 64,
      "hit": false,
      "t": 131014.30933333332,
      "d": 280.79670833332057,
      "v": 125
    },
    {
      "midi": 67,
      "hit": false,
      "t": 131014.30933333332,
      "d": 280.79670833332057,
      "v": 125
    },
    {
      "midi": 72,
      "hit": false,
      "t": 131014.30933333332,
      "d": 280.79670833332057,
      "v": 125
    },
    {
      "midi": 36,
      "hit": false,
      "t": 131304.164,
      "d": 280.7967083333351,
      "v": 125
    },
    {
      "midi": 64,
      "hit": false,
      "t": 131304.164,
      "d": 280.7967083333351,
      "v": 125
    },
    {
      "midi": 67,
      "hit": false,
      "t": 131304.164,
      "d": 280.7967083333351,
      "v": 125
    },
    {
      "midi": 72,
      "hit": false,
      "t": 131304.164,
      "d": 280.7967083333351,
      "v": 125
    },
    {
      "midi": 36,
      "hit": false,
      "t": 131594.01866666667,
      "d": 280.7967083333351,
      "v": 125
    },
    {
      "midi": 64,
      "hit": false,
      "t": 131594.01866666667,
      "d": 280.7967083333351,
      "v": 125
    },
    {
      "midi": 67,
      "hit": false,
      "t": 131594.01866666667,
      "d": 280.7967083333351,
      "v": 125
    },
    {
      "midi": 72,
      "hit": false,
      "t": 131594.01866666667,
      "d": 280.7967083333351,
      "v": 125
    },
    {
      "midi": 36,
      "hit": false,
      "t": 131883.87333333335,
      "d": 280.7967083333351,
      "v": 125
    },
    {
      "midi": 64,
      "hit": false,
      "t": 131883.87333333335,
      "d": 280.7967083333351,
      "v": 125
    },
    {
      "midi": 67,
      "hit": false,
      "t": 131883.87333333335,
      "d": 280.7967083333351,
      "v": 125
    },
    {
      "midi": 72,
      "hit": false,
      "t": 131883.87333333335,
      "d": 280.7967083333351,
      "v": 125
    },
    {
      "midi": 41,
      "hit": false,
      "t": 132173.72800000003,
      "d": 280.7967083333351,
      "v": 125
    },
    {
      "midi": 65,
      "hit": false,
      "t": 132173.72800000003,
      "d": 280.7967083333351,
      "v": 126
    },
    {
      "midi": 69,
      "hit": false,
      "t": 132173.72800000003,
      "d": 280.7967083333351,
      "v": 126
    },
    {
      "midi": 72,
      "hit": false,
      "t": 132173.72800000003,
      "d": 280.7967083333351,
      "v": 126
    },
    {
      "midi": 41,
      "hit": false,
      "t": 132463.5826666667,
      "d": 280.7967083333351,
      "v": 125
    },
    {
      "midi": 65,
      "hit": false,
      "t": 132463.5826666667,
      "d": 280.7967083333351,
      "v": 126
    },
    {
      "midi": 69,
      "hit": false,
      "t": 132463.5826666667,
      "d": 280.7967083333351,
      "v": 126
    },
    {
      "midi": 72,
      "hit": false,
      "t": 132463.5826666667,
      "d": 280.7967083333351,
      "v": 126
    },
    {
      "midi": 41,
      "hit": false,
      "t": 132753.4373333334,
      "d": 280.7967083333351,
      "v": 125
    },
    {
      "midi": 65,
      "hit": false,
      "t": 132753.4373333334,
      "d": 280.7967083333351,
      "v": 126
    },
    {
      "midi": 69,
      "hit": false,
      "t": 132753.4373333334,
      "d": 280.7967083333351,
      "v": 126
    },
    {
      "midi": 72,
      "hit": false,
      "t": 132753.4373333334,
      "d": 280.7967083333351,
      "v": 126
    },
    {
      "midi": 41,
      "hit": false,
      "t": 133043.29200000007,
      "d": 280.7967083333351,
      "v": 125
    },
    {
      "midi": 65,
      "hit": false,
      "t": 133043.29200000007,
      "d": 280.7967083333351,
      "v": 126
    },
    {
      "midi": 69,
      "hit": false,
      "t": 133043.29200000007,
      "d": 280.7967083333351,
      "v": 126
    },
    {
      "midi": 72,
      "hit": false,
      "t": 133043.29200000007,
      "d": 280.7967083333351,
      "v": 126
    },
    {
      "midi": 41,
      "hit": false,
      "t": 133333.14666666675,
      "d": 280.7967083333351,
      "v": 125
    },
    {
      "midi": 65,
      "hit": false,
      "t": 133333.14666666675,
      "d": 280.7967083333351,
      "v": 126
    },
    {
      "midi": 69,
      "hit": false,
      "t": 133333.14666666675,
      "d": 280.7967083333351,
      "v": 126
    },
    {
      "midi": 72,
      "hit": false,
      "t": 133333.14666666675,
      "d": 280.7967083333351,
      "v": 126
    },
    {
      "midi": 41,
      "hit": false,
      "t": 133623.00133333344,
      "d": 280.7967083333351,
      "v": 125
    },
    {
      "midi": 65,
      "hit": false,
      "t": 133623.00133333344,
      "d": 280.7967083333351,
      "v": 126
    },
    {
      "midi": 69,
      "hit": false,
      "t": 133623.00133333344,
      "d": 280.7967083333351,
      "v": 126
    },
    {
      "midi": 72,
      "hit": false,
      "t": 133623.00133333344,
      "d": 280.7967083333351,
      "v": 126
    },
    {
      "midi": 38,
      "hit": false,
      "t": 133912.85600000012,
      "d": 280.7967083333351,
      "v": 125
    },
    {
      "midi": 65,
      "hit": false,
      "t": 133912.85600000012,
      "d": 280.7967083333351,
      "v": 126
    },
    {
      "midi": 69,
      "hit": false,
      "t": 133912.85600000012,
      "d": 280.7967083333351,
      "v": 126
    },
    {
      "midi": 74,
      "hit": false,
      "t": 133912.85600000012,
      "d": 280.7967083333351,
      "v": 126
    },
    {
      "midi": 38,
      "hit": false,
      "t": 134202.7106666668,
      "d": 280.7967083333351,
      "v": 125
    },
    {
      "midi": 65,
      "hit": false,
      "t": 134202.7106666668,
      "d": 280.7967083333351,
      "v": 126
    },
    {
      "midi": 69,
      "hit": false,
      "t": 134202.7106666668,
      "d": 280.7967083333351,
      "v": 126
    },
    {
      "midi": 74,
      "hit": false,
      "t": 134202.7106666668,
      "d": 280.7967083333351,
      "v": 126
    },
    {
      "midi": 38,
      "hit": false,
      "t": 134492.56533333348,
      "d": 280.7967083333351,
      "v": 125
    },
    {
      "midi": 65,
      "hit": false,
      "t": 134492.56533333348,
      "d": 280.7967083333351,
      "v": 126
    },
    {
      "midi": 69,
      "hit": false,
      "t": 134492.56533333348,
      "d": 280.7967083333351,
      "v": 126
    },
    {
      "midi": 74,
      "hit": false,
      "t": 134492.56533333348,
      "d": 280.7967083333351,
      "v": 126
    },
    {
      "midi": 38,
      "hit": false,
      "t": 134782.42000000016,
      "d": 280.7967083333351,
      "v": 125
    },
    {
      "midi": 65,
      "hit": false,
      "t": 134782.42000000016,
      "d": 280.7967083333351,
      "v": 126
    },
    {
      "midi": 69,
      "hit": false,
      "t": 134782.42000000016,
      "d": 280.7967083333351,
      "v": 126
    },
    {
      "midi": 74,
      "hit": false,
      "t": 134782.42000000016,
      "d": 280.7967083333351,
      "v": 126
    },
    {
      "midi": 38,
      "hit": false,
      "t": 135072.27466666684,
      "d": 280.7967083333351,
      "v": 125
    },
    {
      "midi": 65,
      "hit": false,
      "t": 135072.27466666684,
      "d": 280.7967083333351,
      "v": 126
    },
    {
      "midi": 69,
      "hit": false,
      "t": 135072.27466666684,
      "d": 280.7967083333351,
      "v": 126
    },
    {
      "midi": 74,
      "hit": false,
      "t": 135072.27466666684,
      "d": 280.7967083333351,
      "v": 126
    },
    {
      "midi": 38,
      "hit": false,
      "t": 135362.12933333352,
      "d": 280.7967083333351,
      "v": 125
    },
    {
      "midi": 65,
      "hit": false,
      "t": 135362.12933333352,
      "d": 280.7967083333351,
      "v": 126
    },
    {
      "midi": 69,
      "hit": false,
      "t": 135362.12933333352,
      "d": 280.7967083333351,
      "v": 126
    },
    {
      "midi": 74,
      "hit": false,
      "t": 135362.12933333352,
      "d": 280.7967083333351,
      "v": 126
    },
    {
      "midi": 34,
      "hit": false,
      "t": 135651.9840000002,
      "d": 280.7967083333351,
      "v": 125
    },
    {
      "midi": 65,
      "hit": false,
      "t": 135651.9840000002,
      "d": 280.7967083333351,
      "v": 126
    },
    {
      "midi": 70,
      "hit": false,
      "t": 135651.9840000002,
      "d": 280.7967083333351,
      "v": 126
    },
    {
      "midi": 73,
      "hit": false,
      "t": 135651.9840000002,
      "d": 280.7967083333351,
      "v": 126
    },
    {
      "midi": 34,
      "hit": false,
      "t": 135941.83866666688,
      "d": 280.7967083333351,
      "v": 125
    },
    {
      "midi": 65,
      "hit": false,
      "t": 135941.83866666688,
      "d": 280.7967083333351,
      "v": 126
    },
    {
      "midi": 70,
      "hit": false,
      "t": 135941.83866666688,
      "d": 280.7967083333351,
      "v": 126
    },
    {
      "midi": 73,
      "hit": false,
      "t": 135941.83866666688,
      "d": 280.7967083333351,
      "v": 126
    },
    {
      "midi": 34,
      "hit": false,
      "t": 136231.69333333356,
      "d": 280.7967083333351,
      "v": 125
    },
    {
      "midi": 65,
      "hit": false,
      "t": 136231.69333333356,
      "d": 280.7967083333351,
      "v": 126
    },
    {
      "midi": 70,
      "hit": false,
      "t": 136231.69333333356,
      "d": 280.7967083333351,
      "v": 126
    },
    {
      "midi": 73,
      "hit": false,
      "t": 136231.69333333356,
      "d": 280.7967083333351,
      "v": 126
    },
    {
      "midi": 34,
      "hit": false,
      "t": 136521.54800000024,
      "d": 280.7967083333351,
      "v": 125
    },
    {
      "midi": 65,
      "hit": false,
      "t": 136521.54800000024,
      "d": 280.7967083333351,
      "v": 126
    },
    {
      "midi": 70,
      "hit": false,
      "t": 136521.54800000024,
      "d": 280.7967083333351,
      "v": 126
    },
    {
      "midi": 73,
      "hit": false,
      "t": 136521.54800000024,
      "d": 280.7967083333351,
      "v": 126
    },
    {
      "midi": 34,
      "hit": false,
      "t": 136811.40266666692,
      "d": 280.7967083333351,
      "v": 125
    },
    {
      "midi": 65,
      "hit": false,
      "t": 136811.40266666692,
      "d": 280.7967083333351,
      "v": 126
    },
    {
      "midi": 70,
      "hit": false,
      "t": 136811.40266666692,
      "d": 280.7967083333351,
      "v": 126
    },
    {
      "midi": 73,
      "hit": false,
      "t": 136811.40266666692,
      "d": 280.7967083333351,
      "v": 126
    },
    {
      "midi": 34,
      "hit": false,
      "t": 137101.2573333336,
      "d": 280.7967083333351,
      "v": 125
    },
    {
      "midi": 65,
      "hit": false,
      "t": 137101.2573333336,
      "d": 280.7967083333351,
      "v": 126
    },
    {
      "midi": 70,
      "hit": false,
      "t": 137101.2573333336,
      "d": 280.7967083333351,
      "v": 126
    },
    {
      "midi": 73,
      "hit": false,
      "t": 137101.2573333336,
      "d": 280.7967083333351,
      "v": 126
    },
    {
      "midi": 36,
      "hit": false,
      "t": 137391.11200000028,
      "d": 280.7967083333351,
      "v": 125
    },
    {
      "midi": 64,
      "hit": false,
      "t": 137391.11200000028,
      "d": 280.7967083333351,
      "v": 126
    },
    {
      "midi": 67,
      "hit": false,
      "t": 137391.11200000028,
      "d": 280.7967083333351,
      "v": 126
    },
    {
      "midi": 72,
      "hit": false,
      "t": 137391.11200000028,
      "d": 280.7967083333351,
      "v": 126
    },
    {
      "midi": 36,
      "hit": false,
      "t": 137680.96666666697,
      "d": 280.7967083333351,
      "v": 125
    },
    {
      "midi": 64,
      "hit": false,
      "t": 137680.96666666697,
      "d": 280.7967083333351,
      "v": 126
    },
    {
      "midi": 67,
      "hit": false,
      "t": 137680.96666666697,
      "d": 280.7967083333351,
      "v": 126
    },
    {
      "midi": 72,
      "hit": false,
      "t": 137680.96666666697,
      "d": 280.7967083333351,
      "v": 126
    },
    {
      "midi": 36,
      "hit": false,
      "t": 137970.82133333365,
      "d": 280.7967083333351,
      "v": 125
    },
    {
      "midi": 64,
      "hit": false,
      "t": 137970.82133333365,
      "d": 280.7967083333351,
      "v": 126
    },
    {
      "midi": 67,
      "hit": false,
      "t": 137970.82133333365,
      "d": 280.7967083333351,
      "v": 126
    },
    {
      "midi": 72,
      "hit": false,
      "t": 137970.82133333365,
      "d": 280.7967083333351,
      "v": 126
    },
    {
      "midi": 36,
      "hit": false,
      "t": 138260.67600000033,
      "d": 280.7967083333351,
      "v": 125
    },
    {
      "midi": 64,
      "hit": false,
      "t": 138260.67600000033,
      "d": 280.7967083333351,
      "v": 126
    },
    {
      "midi": 67,
      "hit": false,
      "t": 138260.67600000033,
      "d": 280.7967083333351,
      "v": 126
    },
    {
      "midi": 72,
      "hit": false,
      "t": 138260.67600000033,
      "d": 280.7967083333351,
      "v": 126
    },
    {
      "midi": 36,
      "hit": false,
      "t": 138550.530666667,
      "d": 280.7967083333351,
      "v": 125
    },
    {
      "midi": 64,
      "hit": false,
      "t": 138550.530666667,
      "d": 280.7967083333351,
      "v": 126
    },
    {
      "midi": 67,
      "hit": false,
      "t": 138550.530666667,
      "d": 280.7967083333351,
      "v": 126
    },
    {
      "midi": 72,
      "hit": false,
      "t": 138550.530666667,
      "d": 280.7967083333351,
      "v": 126
    },
    {
      "midi": 36,
      "hit": false,
      "t": 138840.3853333337,
      "d": 280.7967083333351,
      "v": 125
    },
    {
      "midi": 64,
      "hit": false,
      "t": 138840.3853333337,
      "d": 280.7967083333351,
      "v": 126
    },
    {
      "midi": 67,
      "hit": false,
      "t": 138840.3853333337,
      "d": 280.7967083333351,
      "v": 126
    },
    {
      "midi": 72,
      "hit": false,
      "t": 138840.3853333337,
      "d": 280.7967083333351,
      "v": 126
    },
    {
      "midi": 41,
      "hit": false,
      "t": 139130.24000000037,
      "d": 280.7967083333351,
      "v": 125
    },
    {
      "midi": 65,
      "hit": false,
      "t": 139130.24000000037,
      "d": 280.7967083333351,
      "v": 126
    },
    {
      "midi": 69,
      "hit": false,
      "t": 139130.24000000037,
      "d": 280.7967083333351,
      "v": 126
    },
    {
      "midi": 72,
      "hit": false,
      "t": 139130.24000000037,
      "d": 280.7967083333351,
      "v": 126
    },
    {
      "midi": 41,
      "hit": false,
      "t": 139420.09466666705,
      "d": 280.7967083333351,
      "v": 125
    },
    {
      "midi": 65,
      "hit": false,
      "t": 139420.09466666705,
      "d": 280.7967083333351,
      "v": 126
    },
    {
      "midi": 69,
      "hit": false,
      "t": 139420.09466666705,
      "d": 280.7967083333351,
      "v": 126
    },
    {
      "midi": 72,
      "hit": false,
      "t": 139420.09466666705,
      "d": 280.7967083333351,
      "v": 126
    },
    {
      "midi": 41,
      "hit": false,
      "t": 139709.94933333373,
      "d": 280.7967083333351,
      "v": 125
    },
    {
      "midi": 65,
      "hit": false,
      "t": 139709.94933333373,
      "d": 280.7967083333351,
      "v": 126
    },
    {
      "midi": 69,
      "hit": false,
      "t": 139709.94933333373,
      "d": 280.7967083333351,
      "v": 126
    },
    {
      "midi": 72,
      "hit": false,
      "t": 139709.94933333373,
      "d": 280.7967083333351,
      "v": 126
    },
    {
      "midi": 41,
      "hit": false,
      "t": 139999.8040000004,
      "d": 280.7967083333351,
      "v": 125
    },
    {
      "midi": 65,
      "hit": false,
      "t": 139999.8040000004,
      "d": 280.7967083333351,
      "v": 126
    },
    {
      "midi": 69,
      "hit": false,
      "t": 139999.8040000004,
      "d": 280.7967083333351,
      "v": 126
    },
    {
      "midi": 72,
      "hit": false,
      "t": 139999.8040000004,
      "d": 280.7967083333351,
      "v": 126
    },
    {
      "midi": 41,
      "hit": false,
      "t": 140289.6586666671,
      "d": 280.7967083333351,
      "v": 125
    },
    {
      "midi": 65,
      "hit": false,
      "t": 140289.6586666671,
      "d": 280.7967083333351,
      "v": 126
    },
    {
      "midi": 69,
      "hit": false,
      "t": 140289.6586666671,
      "d": 280.7967083333351,
      "v": 126
    },
    {
      "midi": 72,
      "hit": false,
      "t": 140289.6586666671,
      "d": 280.7967083333351,
      "v": 126
    },
    {
      "midi": 41,
      "hit": false,
      "t": 140579.51333333377,
      "d": 280.7967083333351,
      "v": 125
    },
    {
      "midi": 65,
      "hit": false,
      "t": 140579.51333333377,
      "d": 280.7967083333351,
      "v": 126
    },
    {
      "midi": 69,
      "hit": false,
      "t": 140579.51333333377,
      "d": 280.7967083333351,
      "v": 126
    },
    {
      "midi": 72,
      "hit": false,
      "t": 140579.51333333377,
      "d": 280.7967083333351,
      "v": 126
    },
    {
      "midi": 38,
      "hit": false,
      "t": 140869.36800000045,
      "d": 280.7967083333351,
      "v": 125
    },
    {
      "midi": 65,
      "hit": false,
      "t": 140869.36800000045,
      "d": 280.7967083333351,
      "v": 126
    },
    {
      "midi": 69,
      "hit": false,
      "t": 140869.36800000045,
      "d": 280.7967083333351,
      "v": 126
    },
    {
      "midi": 74,
      "hit": false,
      "t": 140869.36800000045,
      "d": 280.7967083333351,
      "v": 126
    },
    {
      "midi": 38,
      "hit": false,
      "t": 141159.22266666713,
      "d": 280.7967083333351,
      "v": 125
    },
    {
      "midi": 65,
      "hit": false,
      "t": 141159.22266666713,
      "d": 280.7967083333351,
      "v": 126
    },
    {
      "midi": 69,
      "hit": false,
      "t": 141159.22266666713,
      "d": 280.7967083333351,
      "v": 126
    },
    {
      "midi": 74,
      "hit": false,
      "t": 141159.22266666713,
      "d": 280.7967083333351,
      "v": 126
    },
    {
      "midi": 38,
      "hit": false,
      "t": 141449.07733333381,
      "d": 280.7967083333351,
      "v": 125
    },
    {
      "midi": 65,
      "hit": false,
      "t": 141449.07733333381,
      "d": 280.7967083333351,
      "v": 126
    },
    {
      "midi": 69,
      "hit": false,
      "t": 141449.07733333381,
      "d": 280.7967083333351,
      "v": 126
    },
    {
      "midi": 74,
      "hit": false,
      "t": 141449.07733333381,
      "d": 280.7967083333351,
      "v": 126
    },
    {
      "midi": 38,
      "hit": false,
      "t": 141738.9320000005,
      "d": 280.7967083333351,
      "v": 125
    },
    {
      "midi": 65,
      "hit": false,
      "t": 141738.9320000005,
      "d": 280.7967083333351,
      "v": 126
    },
    {
      "midi": 69,
      "hit": false,
      "t": 141738.9320000005,
      "d": 280.7967083333351,
      "v": 126
    },
    {
      "midi": 74,
      "hit": false,
      "t": 141738.9320000005,
      "d": 280.7967083333351,
      "v": 126
    },
    {
      "midi": 38,
      "hit": false,
      "t": 142028.78666666718,
      "d": 280.7967083333351,
      "v": 125
    },
    {
      "midi": 65,
      "hit": false,
      "t": 142028.78666666718,
      "d": 280.7967083333351,
      "v": 126
    },
    {
      "midi": 69,
      "hit": false,
      "t": 142028.78666666718,
      "d": 280.7967083333351,
      "v": 126
    },
    {
      "midi": 74,
      "hit": false,
      "t": 142028.78666666718,
      "d": 280.7967083333351,
      "v": 126
    },
    {
      "midi": 38,
      "hit": false,
      "t": 142318.64133333386,
      "d": 280.7967083333351,
      "v": 125
    },
    {
      "midi": 65,
      "hit": false,
      "t": 142318.64133333386,
      "d": 280.7967083333351,
      "v": 126
    },
    {
      "midi": 69,
      "hit": false,
      "t": 142318.64133333386,
      "d": 280.7967083333351,
      "v": 126
    },
    {
      "midi": 74,
      "hit": false,
      "t": 142318.64133333386,
      "d": 280.7967083333351,
      "v": 126
    },
    {
      "midi": 34,
      "hit": false,
      "t": 142608.49600000054,
      "d": 280.7967083333351,
      "v": 125
    },
    {
      "midi": 65,
      "hit": false,
      "t": 142608.49600000054,
      "d": 280.7967083333351,
      "v": 126
    },
    {
      "midi": 70,
      "hit": false,
      "t": 142608.49600000054,
      "d": 280.7967083333351,
      "v": 126
    },
    {
      "midi": 73,
      "hit": false,
      "t": 142608.49600000054,
      "d": 280.7967083333351,
      "v": 126
    },
    {
      "midi": 34,
      "hit": false,
      "t": 142898.35066666722,
      "d": 280.7967083333351,
      "v": 125
    },
    {
      "midi": 65,
      "hit": false,
      "t": 142898.35066666722,
      "d": 280.7967083333351,
      "v": 126
    },
    {
      "midi": 70,
      "hit": false,
      "t": 142898.35066666722,
      "d": 280.7967083333351,
      "v": 126
    },
    {
      "midi": 73,
      "hit": false,
      "t": 142898.35066666722,
      "d": 280.7967083333351,
      "v": 126
    },
    {
      "midi": 34,
      "hit": false,
      "t": 143188.2053333339,
      "d": 280.7967083333351,
      "v": 125
    },
    {
      "midi": 65,
      "hit": false,
      "t": 143188.2053333339,
      "d": 280.7967083333351,
      "v": 126
    },
    {
      "midi": 70,
      "hit": false,
      "t": 143188.2053333339,
      "d": 280.7967083333351,
      "v": 126
    },
    {
      "midi": 73,
      "hit": false,
      "t": 143188.2053333339,
      "d": 280.7967083333351,
      "v": 126
    },
    {
      "midi": 34,
      "hit": false,
      "t": 143478.06000000058,
      "d": 280.7967083333351,
      "v": 125
    },
    {
      "midi": 65,
      "hit": false,
      "t": 143478.06000000058,
      "d": 280.7967083333351,
      "v": 126
    },
    {
      "midi": 70,
      "hit": false,
      "t": 143478.06000000058,
      "d": 280.7967083333351,
      "v": 126
    },
    {
      "midi": 73,
      "hit": false,
      "t": 143478.06000000058,
      "d": 280.7967083333351,
      "v": 126
    },
    {
      "midi": 34,
      "hit": false,
      "t": 143767.91466666726,
      "d": 280.7967083333351,
      "v": 125
    },
    {
      "midi": 65,
      "hit": false,
      "t": 143767.91466666726,
      "d": 280.7967083333351,
      "v": 126
    },
    {
      "midi": 70,
      "hit": false,
      "t": 143767.91466666726,
      "d": 280.7967083333351,
      "v": 126
    },
    {
      "midi": 73,
      "hit": false,
      "t": 143767.91466666726,
      "d": 280.7967083333351,
      "v": 126
    },
    {
      "midi": 34,
      "hit": false,
      "t": 144057.76933333394,
      "d": 280.7967083333351,
      "v": 125
    },
    {
      "midi": 65,
      "hit": false,
      "t": 144057.76933333394,
      "d": 280.7967083333351,
      "v": 126
    },
    {
      "midi": 70,
      "hit": false,
      "t": 144057.76933333394,
      "d": 280.7967083333351,
      "v": 126
    },
    {
      "midi": 73,
      "hit": false,
      "t": 144057.76933333394,
      "d": 280.7967083333351,
      "v": 126
    },
    {
      "midi": 36,
      "hit": false,
      "t": 144347.62400000062,
      "d": 280.7967083333351,
      "v": 125
    },
    {
      "midi": 64,
      "hit": false,
      "t": 144347.62400000062,
      "d": 280.7967083333351,
      "v": 126
    },
    {
      "midi": 67,
      "hit": false,
      "t": 144347.62400000062,
      "d": 280.7967083333351,
      "v": 126
    },
    {
      "midi": 72,
      "hit": false,
      "t": 144347.62400000062,
      "d": 280.7967083333351,
      "v": 126
    },
    {
      "midi": 36,
      "hit": false,
      "t": 144637.4786666673,
      "d": 280.7967083333351,
      "v": 125
    },
    {
      "midi": 64,
      "hit": false,
      "t": 144637.4786666673,
      "d": 280.7967083333351,
      "v": 126
    },
    {
      "midi": 67,
      "hit": false,
      "t": 144637.4786666673,
      "d": 280.7967083333351,
      "v": 126
    },
    {
      "midi": 72,
      "hit": false,
      "t": 144637.4786666673,
      "d": 280.7967083333351,
      "v": 126
    },
    {
      "midi": 36,
      "hit": false,
      "t": 144927.33333333398,
      "d": 280.7967083333351,
      "v": 125
    },
    {
      "midi": 64,
      "hit": false,
      "t": 144927.33333333398,
      "d": 280.7967083333351,
      "v": 126
    },
    {
      "midi": 67,
      "hit": false,
      "t": 144927.33333333398,
      "d": 280.7967083333351,
      "v": 126
    },
    {
      "midi": 72,
      "hit": false,
      "t": 144927.33333333398,
      "d": 280.7967083333351,
      "v": 126
    },
    {
      "midi": 36,
      "hit": false,
      "t": 145217.18800000066,
      "d": 280.7967083333351,
      "v": 125
    },
    {
      "midi": 64,
      "hit": false,
      "t": 145217.18800000066,
      "d": 280.7967083333351,
      "v": 126
    },
    {
      "midi": 67,
      "hit": false,
      "t": 145217.18800000066,
      "d": 280.7967083333351,
      "v": 126
    },
    {
      "midi": 72,
      "hit": false,
      "t": 145217.18800000066,
      "d": 280.7967083333351,
      "v": 126
    },
    {
      "midi": 36,
      "hit": false,
      "t": 145507.04266666734,
      "d": 280.7967083333351,
      "v": 125
    },
    {
      "midi": 64,
      "hit": false,
      "t": 145507.04266666734,
      "d": 280.7967083333351,
      "v": 126
    },
    {
      "midi": 67,
      "hit": false,
      "t": 145507.04266666734,
      "d": 280.7967083333351,
      "v": 126
    },
    {
      "midi": 72,
      "hit": false,
      "t": 145507.04266666734,
      "d": 280.7967083333351,
      "v": 126
    },
    {
      "midi": 36,
      "hit": false,
      "t": 145796.89733333403,
      "d": 280.7967083333351,
      "v": 125
    },
    {
      "midi": 64,
      "hit": false,
      "t": 145796.89733333403,
      "d": 280.7967083333351,
      "v": 126
    },
    {
      "midi": 67,
      "hit": false,
      "t": 145796.89733333403,
      "d": 280.7967083333351,
      "v": 126
    },
    {
      "midi": 72,
      "hit": false,
      "t": 145796.89733333403,
      "d": 280.7967083333351,
      "v": 126
    },
    {
      "midi": 41,
      "hit": false,
      "t": 146086.7520000007,
      "d": 280.7967083333351,
      "v": 125
    },
    {
      "midi": 65,
      "hit": false,
      "t": 146086.7520000007,
      "d": 280.7967083333351,
      "v": 126
    },
    {
      "midi": 69,
      "hit": false,
      "t": 146086.7520000007,
      "d": 280.7967083333351,
      "v": 126
    },
    {
      "midi": 72,
      "hit": false,
      "t": 146086.7520000007,
      "d": 280.7967083333351,
      "v": 126
    },
    {
      "midi": 41,
      "hit": false,
      "t": 146376.6066666674,
      "d": 280.7967083333351,
      "v": 125
    },
    {
      "midi": 65,
      "hit": false,
      "t": 146376.6066666674,
      "d": 280.7967083333351,
      "v": 126
    },
    {
      "midi": 69,
      "hit": false,
      "t": 146376.6066666674,
      "d": 280.7967083333351,
      "v": 126
    },
    {
      "midi": 72,
      "hit": false,
      "t": 146376.6066666674,
      "d": 280.7967083333351,
      "v": 126
    },
    {
      "midi": 41,
      "hit": false,
      "t": 146666.46133333407,
      "d": 280.7967083333351,
      "v": 125
    },
    {
      "midi": 65,
      "hit": false,
      "t": 146666.46133333407,
      "d": 280.7967083333351,
      "v": 126
    },
    {
      "midi": 69,
      "hit": false,
      "t": 146666.46133333407,
      "d": 280.7967083333351,
      "v": 126
    },
    {
      "midi": 72,
      "hit": false,
      "t": 146666.46133333407,
      "d": 280.7967083333351,
      "v": 126
    },
    {
      "midi": 41,
      "hit": false,
      "t": 146956.31600000075,
      "d": 280.7967083333351,
      "v": 125
    },
    {
      "midi": 65,
      "hit": false,
      "t": 146956.31600000075,
      "d": 280.7967083333351,
      "v": 126
    },
    {
      "midi": 69,
      "hit": false,
      "t": 146956.31600000075,
      "d": 280.7967083333351,
      "v": 126
    },
    {
      "midi": 72,
      "hit": false,
      "t": 146956.31600000075,
      "d": 280.7967083333351,
      "v": 126
    },
    {
      "midi": 41,
      "hit": false,
      "t": 147246.17066666743,
      "d": 280.7967083333351,
      "v": 125
    },
    {
      "midi": 65,
      "hit": false,
      "t": 147246.17066666743,
      "d": 280.7967083333351,
      "v": 126
    },
    {
      "midi": 69,
      "hit": false,
      "t": 147246.17066666743,
      "d": 280.7967083333351,
      "v": 126
    },
    {
      "midi": 72,
      "hit": false,
      "t": 147246.17066666743,
      "d": 280.7967083333351,
      "v": 126
    },
    {
      "midi": 41,
      "hit": false,
      "t": 147536.0253333341,
      "d": 280.7967083333351,
      "v": 125
    },
    {
      "midi": 65,
      "hit": false,
      "t": 147536.0253333341,
      "d": 280.7967083333351,
      "v": 126
    },
    {
      "midi": 69,
      "hit": false,
      "t": 147536.0253333341,
      "d": 280.7967083333351,
      "v": 126
    },
    {
      "midi": 72,
      "hit": false,
      "t": 147536.0253333341,
      "d": 280.7967083333351,
      "v": 126
    },
    {
      "midi": 38,
      "hit": false,
      "t": 147825.8800000008,
      "d": 280.7967083333351,
      "v": 125
    },
    {
      "midi": 65,
      "hit": false,
      "t": 147825.8800000008,
      "d": 280.7967083333351,
      "v": 126
    },
    {
      "midi": 69,
      "hit": false,
      "t": 147825.8800000008,
      "d": 280.7967083333351,
      "v": 126
    },
    {
      "midi": 74,
      "hit": false,
      "t": 147825.8800000008,
      "d": 280.7967083333351,
      "v": 126
    },
    {
      "midi": 38,
      "hit": false,
      "t": 148115.73466666747,
      "d": 280.7967083333351,
      "v": 125
    },
    {
      "midi": 65,
      "hit": false,
      "t": 148115.73466666747,
      "d": 280.7967083333351,
      "v": 126
    },
    {
      "midi": 69,
      "hit": false,
      "t": 148115.73466666747,
      "d": 280.7967083333351,
      "v": 126
    },
    {
      "midi": 74,
      "hit": false,
      "t": 148115.73466666747,
      "d": 280.7967083333351,
      "v": 126
    },
    {
      "midi": 38,
      "hit": false,
      "t": 148405.58933333415,
      "d": 280.7967083333351,
      "v": 125
    },
    {
      "midi": 65,
      "hit": false,
      "t": 148405.58933333415,
      "d": 280.7967083333351,
      "v": 126
    },
    {
      "midi": 69,
      "hit": false,
      "t": 148405.58933333415,
      "d": 280.7967083333351,
      "v": 126
    },
    {
      "midi": 74,
      "hit": false,
      "t": 148405.58933333415,
      "d": 280.7967083333351,
      "v": 126
    },
    {
      "midi": 38,
      "hit": false,
      "t": 148695.44400000083,
      "d": 280.7967083333351,
      "v": 125
    },
    {
      "midi": 65,
      "hit": false,
      "t": 148695.44400000083,
      "d": 280.7967083333351,
      "v": 126
    },
    {
      "midi": 69,
      "hit": false,
      "t": 148695.44400000083,
      "d": 280.7967083333351,
      "v": 126
    },
    {
      "midi": 74,
      "hit": false,
      "t": 148695.44400000083,
      "d": 280.7967083333351,
      "v": 126
    },
    {
      "midi": 38,
      "hit": false,
      "t": 148985.2986666675,
      "d": 280.7967083333351,
      "v": 125
    },
    {
      "midi": 65,
      "hit": false,
      "t": 148985.2986666675,
      "d": 280.7967083333351,
      "v": 126
    },
    {
      "midi": 69,
      "hit": false,
      "t": 148985.2986666675,
      "d": 280.7967083333351,
      "v": 126
    },
    {
      "midi": 74,
      "hit": false,
      "t": 148985.2986666675,
      "d": 280.7967083333351,
      "v": 126
    },
    {
      "midi": 38,
      "hit": false,
      "t": 149275.1533333342,
      "d": 280.7967083333351,
      "v": 125
    },
    {
      "midi": 65,
      "hit": false,
      "t": 149275.1533333342,
      "d": 280.7967083333351,
      "v": 126
    },
    {
      "midi": 69,
      "hit": false,
      "t": 149275.1533333342,
      "d": 280.7967083333351,
      "v": 126
    },
    {
      "midi": 74,
      "hit": false,
      "t": 149275.1533333342,
      "d": 280.7967083333351,
      "v": 126
    },
    {
      "midi": 34,
      "hit": false,
      "t": 149565.00800000087,
      "d": 280.7967083333351,
      "v": 125
    },
    {
      "midi": 65,
      "hit": false,
      "t": 149565.00800000087,
      "d": 280.7967083333351,
      "v": 126
    },
    {
      "midi": 70,
      "hit": false,
      "t": 149565.00800000087,
      "d": 280.7967083333351,
      "v": 126
    },
    {
      "midi": 73,
      "hit": false,
      "t": 149565.00800000087,
      "d": 280.7967083333351,
      "v": 126
    },
    {
      "midi": 34,
      "hit": false,
      "t": 149854.86266666756,
      "d": 280.7967083333351,
      "v": 125
    },
    {
      "midi": 65,
      "hit": false,
      "t": 149854.86266666756,
      "d": 280.7967083333351,
      "v": 126
    },
    {
      "midi": 70,
      "hit": false,
      "t": 149854.86266666756,
      "d": 280.7967083333351,
      "v": 126
    },
    {
      "midi": 73,
      "hit": false,
      "t": 149854.86266666756,
      "d": 280.7967083333351,
      "v": 126
    },
    {
      "midi": 34,
      "hit": false,
      "t": 150144.71733333424,
      "d": 280.7967083333351,
      "v": 125
    },
    {
      "midi": 65,
      "hit": false,
      "t": 150144.71733333424,
      "d": 280.7967083333351,
      "v": 126
    },
    {
      "midi": 70,
      "hit": false,
      "t": 150144.71733333424,
      "d": 280.7967083333351,
      "v": 126
    },
    {
      "midi": 73,
      "hit": false,
      "t": 150144.71733333424,
      "d": 280.7967083333351,
      "v": 126
    },
    {
      "midi": 34,
      "hit": false,
      "t": 150434.57200000092,
      "d": 280.7967083333351,
      "v": 125
    },
    {
      "midi": 65,
      "hit": false,
      "t": 150434.57200000092,
      "d": 280.7967083333351,
      "v": 126
    },
    {
      "midi": 70,
      "hit": false,
      "t": 150434.57200000092,
      "d": 280.7967083333351,
      "v": 126
    },
    {
      "midi": 73,
      "hit": false,
      "t": 150434.57200000092,
      "d": 280.7967083333351,
      "v": 126
    },
    {
      "midi": 34,
      "hit": false,
      "t": 150724.4266666676,
      "d": 280.7967083333351,
      "v": 125
    },
    {
      "midi": 65,
      "hit": false,
      "t": 150724.4266666676,
      "d": 280.7967083333351,
      "v": 126
    },
    {
      "midi": 70,
      "hit": false,
      "t": 150724.4266666676,
      "d": 280.7967083333351,
      "v": 126
    },
    {
      "midi": 73,
      "hit": false,
      "t": 150724.4266666676,
      "d": 280.7967083333351,
      "v": 126
    },
    {
      "midi": 34,
      "hit": false,
      "t": 151014.28133333428,
      "d": 280.7967083333351,
      "v": 125
    },
    {
      "midi": 65,
      "hit": false,
      "t": 151014.28133333428,
      "d": 280.7967083333351,
      "v": 126
    },
    {
      "midi": 70,
      "hit": false,
      "t": 151014.28133333428,
      "d": 280.7967083333351,
      "v": 126
    },
    {
      "midi": 73,
      "hit": false,
      "t": 151014.28133333428,
      "d": 280.7967083333351,
      "v": 126
    },
    {
      "midi": 36,
      "hit": false,
      "t": 151304.13600000096,
      "d": 280.7967083333351,
      "v": 125
    },
    {
      "midi": 64,
      "hit": false,
      "t": 151304.13600000096,
      "d": 280.7967083333351,
      "v": 126
    },
    {
      "midi": 67,
      "hit": false,
      "t": 151304.13600000096,
      "d": 280.7967083333351,
      "v": 126
    },
    {
      "midi": 72,
      "hit": false,
      "t": 151304.13600000096,
      "d": 280.7967083333351,
      "v": 126
    },
    {
      "midi": 36,
      "hit": false,
      "t": 151593.99066666764,
      "d": 280.7967083333351,
      "v": 125
    },
    {
      "midi": 64,
      "hit": false,
      "t": 151593.99066666764,
      "d": 280.7967083333351,
      "v": 126
    },
    {
      "midi": 67,
      "hit": false,
      "t": 151593.99066666764,
      "d": 280.7967083333351,
      "v": 126
    },
    {
      "midi": 72,
      "hit": false,
      "t": 151593.99066666764,
      "d": 280.7967083333351,
      "v": 126
    },
    {
      "midi": 36,
      "hit": false,
      "t": 151883.84533333432,
      "d": 280.7967083333351,
      "v": 125
    },
    {
      "midi": 64,
      "hit": false,
      "t": 151883.84533333432,
      "d": 280.7967083333351,
      "v": 126
    },
    {
      "midi": 67,
      "hit": false,
      "t": 151883.84533333432,
      "d": 280.7967083333351,
      "v": 126
    },
    {
      "midi": 72,
      "hit": false,
      "t": 151883.84533333432,
      "d": 280.7967083333351,
      "v": 126
    },
    {
      "midi": 36,
      "hit": false,
      "t": 152173.700000001,
      "d": 280.7967083333351,
      "v": 125
    },
    {
      "midi": 64,
      "hit": false,
      "t": 152173.700000001,
      "d": 280.7967083333351,
      "v": 126
    },
    {
      "midi": 67,
      "hit": false,
      "t": 152173.700000001,
      "d": 280.7967083333351,
      "v": 126
    },
    {
      "midi": 72,
      "hit": false,
      "t": 152173.700000001,
      "d": 280.7967083333351,
      "v": 126
    },
    {
      "midi": 36,
      "hit": false,
      "t": 152463.55466666768,
      "d": 280.7967083333351,
      "v": 125
    },
    {
      "midi": 64,
      "hit": false,
      "t": 152463.55466666768,
      "d": 280.7967083333351,
      "v": 126
    },
    {
      "midi": 67,
      "hit": false,
      "t": 152463.55466666768,
      "d": 280.7967083333351,
      "v": 126
    },
    {
      "midi": 72,
      "hit": false,
      "t": 152463.55466666768,
      "d": 280.7967083333351,
      "v": 126
    },
    {
      "midi": 36,
      "hit": false,
      "t": 152753.40933333436,
      "d": 280.7967083333351,
      "v": 125
    },
    {
      "midi": 38,
      "hit": false,
      "t": 152753.40933333436,
      "d": 280.7967083333351,
      "v": 125
    },
    {
      "midi": 64,
      "hit": false,
      "t": 152753.40933333436,
      "d": 280.7967083333351,
      "v": 126
    },
    {
      "midi": 67,
      "hit": false,
      "t": 152753.40933333436,
      "d": 280.7967083333351,
      "v": 126
    },
    {
      "midi": 72,
      "hit": false,
      "t": 152753.40933333436,
      "d": 280.7967083333351,
      "v": 126
    },
    {
      "midi": 41,
      "hit": false,
      "t": 153043.26400000104,
      "d": 280.7967083333351,
      "v": 125
    },
    {
      "midi": 65,
      "hit": false,
      "t": 153043.26400000104,
      "d": 280.7967083333351,
      "v": 126
    },
    {
      "midi": 69,
      "hit": false,
      "t": 153043.26400000104,
      "d": 280.7967083333351,
      "v": 126
    },
    {
      "midi": 72,
      "hit": false,
      "t": 153043.26400000104,
      "d": 280.7967083333351,
      "v": 126
    },
    {
      "midi": 41,
      "hit": false,
      "t": 153333.11866666772,
      "d": 280.7967083333351,
      "v": 125
    },
    {
      "midi": 65,
      "hit": false,
      "t": 153333.11866666772,
      "d": 280.7967083333351,
      "v": 126
    },
    {
      "midi": 69,
      "hit": false,
      "t": 153333.11866666772,
      "d": 280.7967083333351,
      "v": 126
    },
    {
      "midi": 72,
      "hit": false,
      "t": 153333.11866666772,
      "d": 280.7967083333351,
      "v": 126
    },
    {
      "midi": 41,
      "hit": false,
      "t": 153622.9733333344,
      "d": 280.7967083333351,
      "v": 125
    },
    {
      "midi": 65,
      "hit": false,
      "t": 153622.9733333344,
      "d": 280.7967083333351,
      "v": 126
    },
    {
      "midi": 69,
      "hit": false,
      "t": 153622.9733333344,
      "d": 280.7967083333351,
      "v": 126
    },
    {
      "midi": 72,
      "hit": false,
      "t": 153622.9733333344,
      "d": 280.7967083333351,
      "v": 126
    },
    {
      "midi": 41,
      "hit": false,
      "t": 153912.8280000011,
      "d": 280.7967083333351,
      "v": 125
    },
    {
      "midi": 65,
      "hit": false,
      "t": 153912.8280000011,
      "d": 280.7967083333351,
      "v": 126
    },
    {
      "midi": 69,
      "hit": false,
      "t": 153912.8280000011,
      "d": 280.7967083333351,
      "v": 126
    },
    {
      "midi": 72,
      "hit": false,
      "t": 153912.8280000011,
      "d": 280.7967083333351,
      "v": 126
    },
    {
      "midi": 41,
      "hit": false,
      "t": 154202.68266666777,
      "d": 280.7967083333351,
      "v": 125
    },
    {
      "midi": 65,
      "hit": false,
      "t": 154202.68266666777,
      "d": 280.7967083333351,
      "v": 126
    },
    {
      "midi": 69,
      "hit": false,
      "t": 154202.68266666777,
      "d": 280.7967083333351,
      "v": 126
    },
    {
      "midi": 72,
      "hit": false,
      "t": 154202.68266666777,
      "d": 280.7967083333351,
      "v": 126
    },
    {
      "midi": 41,
      "hit": false,
      "t": 154492.53733333445,
      "d": 280.7967083333351,
      "v": 125
    },
    {
      "midi": 65,
      "hit": false,
      "t": 154492.53733333445,
      "d": 280.7967083333351,
      "v": 126
    },
    {
      "midi": 69,
      "hit": false,
      "t": 154492.53733333445,
      "d": 280.7967083333351,
      "v": 126
    },
    {
      "midi": 72,
      "hit": false,
      "t": 154492.53733333445,
      "d": 280.7967083333351,
      "v": 126
    },
    {
      "midi": 38,
      "hit": false,
      "t": 154782.39200000113,
      "d": 280.7967083333351,
      "v": 125
    },
    {
      "midi": 65,
      "hit": false,
      "t": 154782.39200000113,
      "d": 280.7967083333351,
      "v": 126
    },
    {
      "midi": 69,
      "hit": false,
      "t": 154782.39200000113,
      "d": 280.7967083333351,
      "v": 126
    },
    {
      "midi": 74,
      "hit": false,
      "t": 154782.39200000113,
      "d": 280.7967083333351,
      "v": 126
    },
    {
      "midi": 38,
      "hit": false,
      "t": 155072.2466666678,
      "d": 280.7967083333351,
      "v": 125
    },
    {
      "midi": 65,
      "hit": false,
      "t": 155072.2466666678,
      "d": 280.7967083333351,
      "v": 126
    },
    {
      "midi": 69,
      "hit": false,
      "t": 155072.2466666678,
      "d": 280.7967083333351,
      "v": 126
    },
    {
      "midi": 74,
      "hit": false,
      "t": 155072.2466666678,
      "d": 280.7967083333351,
      "v": 126
    },
    {
      "midi": 38,
      "hit": false,
      "t": 155362.1013333345,
      "d": 280.7967083333351,
      "v": 125
    },
    {
      "midi": 65,
      "hit": false,
      "t": 155362.1013333345,
      "d": 280.7967083333351,
      "v": 126
    },
    {
      "midi": 69,
      "hit": false,
      "t": 155362.1013333345,
      "d": 280.7967083333351,
      "v": 126
    },
    {
      "midi": 74,
      "hit": false,
      "t": 155362.1013333345,
      "d": 280.7967083333351,
      "v": 126
    },
    {
      "midi": 38,
      "hit": false,
      "t": 155651.95600000117,
      "d": 280.7967083333351,
      "v": 125
    },
    {
      "midi": 65,
      "hit": false,
      "t": 155651.95600000117,
      "d": 280.7967083333351,
      "v": 126
    },
    {
      "midi": 69,
      "hit": false,
      "t": 155651.95600000117,
      "d": 280.7967083333351,
      "v": 126
    },
    {
      "midi": 74,
      "hit": false,
      "t": 155651.95600000117,
      "d": 280.7967083333351,
      "v": 126
    },
    {
      "midi": 38,
      "hit": false,
      "t": 155941.81066666785,
      "d": 280.7967083333351,
      "v": 125
    },
    {
      "midi": 65,
      "hit": false,
      "t": 155941.81066666785,
      "d": 280.7967083333351,
      "v": 126
    },
    {
      "midi": 69,
      "hit": false,
      "t": 155941.81066666785,
      "d": 280.7967083333351,
      "v": 126
    },
    {
      "midi": 74,
      "hit": false,
      "t": 155941.81066666785,
      "d": 280.7967083333351,
      "v": 126
    },
    {
      "midi": 38,
      "hit": false,
      "t": 156231.66533333453,
      "d": 280.7967083333351,
      "v": 125
    },
    {
      "midi": 65,
      "hit": false,
      "t": 156231.66533333453,
      "d": 280.7967083333351,
      "v": 126
    },
    {
      "midi": 69,
      "hit": false,
      "t": 156231.66533333453,
      "d": 280.7967083333351,
      "v": 126
    },
    {
      "midi": 74,
      "hit": false,
      "t": 156231.66533333453,
      "d": 280.7967083333351,
      "v": 126
    },
    {
      "midi": 34,
      "hit": false,
      "t": 156521.5200000012,
      "d": 280.7967083333351,
      "v": 125
    },
    {
      "midi": 65,
      "hit": false,
      "t": 156521.5200000012,
      "d": 280.7967083333351,
      "v": 126
    },
    {
      "midi": 70,
      "hit": false,
      "t": 156521.5200000012,
      "d": 280.7967083333351,
      "v": 126
    },
    {
      "midi": 73,
      "hit": false,
      "t": 156521.5200000012,
      "d": 280.7967083333351,
      "v": 126
    },
    {
      "midi": 34,
      "hit": false,
      "t": 156811.3746666679,
      "d": 280.7967083333351,
      "v": 125
    },
    {
      "midi": 65,
      "hit": false,
      "t": 156811.3746666679,
      "d": 280.7967083333351,
      "v": 126
    },
    {
      "midi": 70,
      "hit": false,
      "t": 156811.3746666679,
      "d": 280.7967083333351,
      "v": 126
    },
    {
      "midi": 73,
      "hit": false,
      "t": 156811.3746666679,
      "d": 280.7967083333351,
      "v": 126
    },
    {
      "midi": 34,
      "hit": false,
      "t": 157101.22933333457,
      "d": 280.7967083333351,
      "v": 125
    },
    {
      "midi": 65,
      "hit": false,
      "t": 157101.22933333457,
      "d": 280.7967083333351,
      "v": 126
    },
    {
      "midi": 70,
      "hit": false,
      "t": 157101.22933333457,
      "d": 280.7967083333351,
      "v": 126
    },
    {
      "midi": 73,
      "hit": false,
      "t": 157101.22933333457,
      "d": 280.7967083333351,
      "v": 126
    },
    {
      "midi": 34,
      "hit": false,
      "t": 157391.08400000125,
      "d": 280.7967083333351,
      "v": 125
    },
    {
      "midi": 65,
      "hit": false,
      "t": 157391.08400000125,
      "d": 280.7967083333351,
      "v": 126
    },
    {
      "midi": 70,
      "hit": false,
      "t": 157391.08400000125,
      "d": 280.7967083333351,
      "v": 126
    },
    {
      "midi": 73,
      "hit": false,
      "t": 157391.08400000125,
      "d": 280.7967083333351,
      "v": 126
    },
    {
      "midi": 34,
      "hit": false,
      "t": 157680.93866666793,
      "d": 280.7967083333351,
      "v": 125
    },
    {
      "midi": 65,
      "hit": false,
      "t": 157680.93866666793,
      "d": 280.7967083333351,
      "v": 126
    },
    {
      "midi": 70,
      "hit": false,
      "t": 157680.93866666793,
      "d": 280.7967083333351,
      "v": 126
    },
    {
      "midi": 73,
      "hit": false,
      "t": 157680.93866666793,
      "d": 280.7967083333351,
      "v": 126
    },
    {
      "midi": 34,
      "hit": false,
      "t": 157970.79333333462,
      "d": 280.7967083333351,
      "v": 125
    },
    {
      "midi": 65,
      "hit": false,
      "t": 157970.79333333462,
      "d": 280.7967083333351,
      "v": 126
    },
    {
      "midi": 70,
      "hit": false,
      "t": 157970.79333333462,
      "d": 280.7967083333351,
      "v": 126
    },
    {
      "midi": 73,
      "hit": false,
      "t": 157970.79333333462,
      "d": 280.7967083333351,
      "v": 126
    },
    {
      "midi": 36,
      "hit": false,
      "t": 158260.6480000013,
      "d": 280.7967083333351,
      "v": 125
    },
    {
      "midi": 64,
      "hit": false,
      "t": 158260.6480000013,
      "d": 280.7967083333351,
      "v": 126
    },
    {
      "midi": 67,
      "hit": false,
      "t": 158260.6480000013,
      "d": 280.7967083333351,
      "v": 126
    },
    {
      "midi": 72,
      "hit": false,
      "t": 158260.6480000013,
      "d": 280.7967083333351,
      "v": 126
    },
    {
      "midi": 36,
      "hit": false,
      "t": 158550.50266666798,
      "d": 280.7967083333351,
      "v": 125
    },
    {
      "midi": 64,
      "hit": false,
      "t": 158550.50266666798,
      "d": 280.7967083333351,
      "v": 126
    },
    {
      "midi": 67,
      "hit": false,
      "t": 158550.50266666798,
      "d": 280.7967083333351,
      "v": 126
    },
    {
      "midi": 72,
      "hit": false,
      "t": 158550.50266666798,
      "d": 280.7967083333351,
      "v": 126
    },
    {
      "midi": 36,
      "hit": false,
      "t": 158840.35733333466,
      "d": 280.7967083333351,
      "v": 125
    },
    {
      "midi": 64,
      "hit": false,
      "t": 158840.35733333466,
      "d": 280.7967083333351,
      "v": 126
    },
    {
      "midi": 67,
      "hit": false,
      "t": 158840.35733333466,
      "d": 280.7967083333351,
      "v": 126
    },
    {
      "midi": 72,
      "hit": false,
      "t": 158840.35733333466,
      "d": 280.7967083333351,
      "v": 126
    },
    {
      "midi": 36,
      "hit": false,
      "t": 159130.21200000134,
      "d": 280.7967083333351,
      "v": 125
    },
    {
      "midi": 64,
      "hit": false,
      "t": 159130.21200000134,
      "d": 280.7967083333351,
      "v": 126
    },
    {
      "midi": 67,
      "hit": false,
      "t": 159130.21200000134,
      "d": 280.7967083333351,
      "v": 126
    },
    {
      "midi": 72,
      "hit": false,
      "t": 159130.21200000134,
      "d": 280.7967083333351,
      "v": 126
    },
    {
      "midi": 36,
      "hit": false,
      "t": 159420.06666666802,
      "d": 280.7967083333351,
      "v": 125
    },
    {
      "midi": 64,
      "hit": false,
      "t": 159420.06666666802,
      "d": 280.7967083333351,
      "v": 126
    },
    {
      "midi": 67,
      "hit": false,
      "t": 159420.06666666802,
      "d": 280.7967083333351,
      "v": 126
    },
    {
      "midi": 72,
      "hit": false,
      "t": 159420.06666666802,
      "d": 280.7967083333351,
      "v": 126
    },
    {
      "midi": 36,
      "hit": false,
      "t": 159709.9213333347,
      "d": 280.7967083333351,
      "v": 125
    },
    {
      "midi": 64,
      "hit": false,
      "t": 159709.9213333347,
      "d": 280.7967083333351,
      "v": 126
    },
    {
      "midi": 67,
      "hit": false,
      "t": 159709.9213333347,
      "d": 280.7967083333351,
      "v": 126
    },
    {
      "midi": 72,
      "hit": false,
      "t": 159709.9213333347,
      "d": 280.7967083333351,
      "v": 126
    },
    {
      "midi": 41,
      "hit": false,
      "t": 159999.77600000138,
      "d": 280.7967083333351,
      "v": 125
    },
    {
      "midi": 65,
      "hit": false,
      "t": 159999.77600000138,
      "d": 280.7967083333351,
      "v": 126
    },
    {
      "midi": 69,
      "hit": false,
      "t": 159999.77600000138,
      "d": 280.7967083333351,
      "v": 126
    },
    {
      "midi": 72,
      "hit": false,
      "t": 159999.77600000138,
      "d": 280.7967083333351,
      "v": 126
    },
    {
      "midi": 41,
      "hit": false,
      "t": 160289.63066666806,
      "d": 280.7967083333351,
      "v": 125
    },
    {
      "midi": 65,
      "hit": false,
      "t": 160289.63066666806,
      "d": 280.7967083333351,
      "v": 126
    },
    {
      "midi": 69,
      "hit": false,
      "t": 160289.63066666806,
      "d": 280.7967083333351,
      "v": 126
    },
    {
      "midi": 72,
      "hit": false,
      "t": 160289.63066666806,
      "d": 280.7967083333351,
      "v": 126
    },
    {
      "midi": 41,
      "hit": false,
      "t": 160579.48533333474,
      "d": 280.7967083333351,
      "v": 125
    },
    {
      "midi": 65,
      "hit": false,
      "t": 160579.48533333474,
      "d": 280.7967083333351,
      "v": 126
    },
    {
      "midi": 69,
      "hit": false,
      "t": 160579.48533333474,
      "d": 280.7967083333351,
      "v": 126
    },
    {
      "midi": 72,
      "hit": false,
      "t": 160579.48533333474,
      "d": 280.7967083333351,
      "v": 126
    },
    {
      "midi": 41,
      "hit": false,
      "t": 160869.34000000142,
      "d": 280.7967083333351,
      "v": 125
    },
    {
      "midi": 65,
      "hit": false,
      "t": 160869.34000000142,
      "d": 280.7967083333351,
      "v": 126
    },
    {
      "midi": 69,
      "hit": false,
      "t": 160869.34000000142,
      "d": 280.7967083333351,
      "v": 126
    },
    {
      "midi": 72,
      "hit": false,
      "t": 160869.34000000142,
      "d": 280.7967083333351,
      "v": 126
    },
    {
      "midi": 41,
      "hit": false,
      "t": 161159.1946666681,
      "d": 280.7967083333351,
      "v": 125
    },
    {
      "midi": 65,
      "hit": false,
      "t": 161159.1946666681,
      "d": 280.7967083333351,
      "v": 126
    },
    {
      "midi": 69,
      "hit": false,
      "t": 161159.1946666681,
      "d": 280.7967083333351,
      "v": 126
    },
    {
      "midi": 72,
      "hit": false,
      "t": 161159.1946666681,
      "d": 280.7967083333351,
      "v": 126
    },
    {
      "midi": 41,
      "hit": false,
      "t": 161449.04933333478,
      "d": 280.7967083333351,
      "v": 125
    },
    {
      "midi": 65,
      "hit": false,
      "t": 161449.04933333478,
      "d": 280.7967083333351,
      "v": 126
    },
    {
      "midi": 69,
      "hit": false,
      "t": 161449.04933333478,
      "d": 280.7967083333351,
      "v": 126
    },
    {
      "midi": 72,
      "hit": false,
      "t": 161449.04933333478,
      "d": 280.7967083333351,
      "v": 126
    },
    {
      "midi": 38,
      "hit": false,
      "t": 161738.90400000146,
      "d": 280.7967083333351,
      "v": 125
    },
    {
      "midi": 65,
      "hit": false,
      "t": 161738.90400000146,
      "d": 280.7967083333351,
      "v": 126
    },
    {
      "midi": 69,
      "hit": false,
      "t": 161738.90400000146,
      "d": 280.7967083333351,
      "v": 126
    },
    {
      "midi": 74,
      "hit": false,
      "t": 161738.90400000146,
      "d": 280.7967083333351,
      "v": 126
    },
    {
      "midi": 38,
      "hit": false,
      "t": 162028.75866666815,
      "d": 280.7967083333351,
      "v": 125
    },
    {
      "midi": 65,
      "hit": false,
      "t": 162028.75866666815,
      "d": 280.7967083333351,
      "v": 126
    },
    {
      "midi": 69,
      "hit": false,
      "t": 162028.75866666815,
      "d": 280.7967083333351,
      "v": 126
    },
    {
      "midi": 74,
      "hit": false,
      "t": 162028.75866666815,
      "d": 280.7967083333351,
      "v": 126
    },
    {
      "midi": 38,
      "hit": false,
      "t": 162318.61333333483,
      "d": 280.7967083333351,
      "v": 125
    },
    {
      "midi": 65,
      "hit": false,
      "t": 162318.61333333483,
      "d": 280.7967083333351,
      "v": 126
    },
    {
      "midi": 69,
      "hit": false,
      "t": 162318.61333333483,
      "d": 280.7967083333351,
      "v": 126
    },
    {
      "midi": 74,
      "hit": false,
      "t": 162318.61333333483,
      "d": 280.7967083333351,
      "v": 126
    },
    {
      "midi": 38,
      "hit": false,
      "t": 162608.4680000015,
      "d": 280.7967083333351,
      "v": 125
    },
    {
      "midi": 65,
      "hit": false,
      "t": 162608.4680000015,
      "d": 280.7967083333351,
      "v": 126
    },
    {
      "midi": 69,
      "hit": false,
      "t": 162608.4680000015,
      "d": 280.7967083333351,
      "v": 126
    },
    {
      "midi": 74,
      "hit": false,
      "t": 162608.4680000015,
      "d": 280.7967083333351,
      "v": 126
    },
    {
      "midi": 38,
      "hit": false,
      "t": 162898.3226666682,
      "d": 280.7967083333351,
      "v": 125
    },
    {
      "midi": 65,
      "hit": false,
      "t": 162898.3226666682,
      "d": 280.7967083333351,
      "v": 126
    },
    {
      "midi": 69,
      "hit": false,
      "t": 162898.3226666682,
      "d": 280.7967083333351,
      "v": 126
    },
    {
      "midi": 74,
      "hit": false,
      "t": 162898.3226666682,
      "d": 280.7967083333351,
      "v": 126
    },
    {
      "midi": 38,
      "hit": false,
      "t": 163188.17733333487,
      "d": 280.7967083333351,
      "v": 125
    },
    {
      "midi": 65,
      "hit": false,
      "t": 163188.17733333487,
      "d": 280.7967083333351,
      "v": 126
    },
    {
      "midi": 69,
      "hit": false,
      "t": 163188.17733333487,
      "d": 280.7967083333351,
      "v": 126
    },
    {
      "midi": 74,
      "hit": false,
      "t": 163188.17733333487,
      "d": 280.7967083333351,
      "v": 126
    },
    {
      "midi": 34,
      "hit": false,
      "t": 163478.03200000155,
      "d": 280.7967083333351,
      "v": 125
    },
    {
      "midi": 65,
      "hit": false,
      "t": 163478.03200000155,
      "d": 280.7967083333351,
      "v": 126
    },
    {
      "midi": 70,
      "hit": false,
      "t": 163478.03200000155,
      "d": 280.7967083333351,
      "v": 126
    },
    {
      "midi": 73,
      "hit": false,
      "t": 163478.03200000155,
      "d": 280.7967083333351,
      "v": 126
    },
    {
      "midi": 34,
      "hit": false,
      "t": 163767.88666666823,
      "d": 280.7967083333351,
      "v": 125
    },
    {
      "midi": 65,
      "hit": false,
      "t": 163767.88666666823,
      "d": 280.7967083333351,
      "v": 126
    },
    {
      "midi": 70,
      "hit": false,
      "t": 163767.88666666823,
      "d": 280.7967083333351,
      "v": 126
    },
    {
      "midi": 73,
      "hit": false,
      "t": 163767.88666666823,
      "d": 280.7967083333351,
      "v": 126
    },
    {
      "midi": 34,
      "hit": false,
      "t": 164057.7413333349,
      "d": 280.7967083333351,
      "v": 125
    },
    {
      "midi": 65,
      "hit": false,
      "t": 164057.7413333349,
      "d": 280.7967083333351,
      "v": 126
    },
    {
      "midi": 70,
      "hit": false,
      "t": 164057.7413333349,
      "d": 280.7967083333351,
      "v": 126
    },
    {
      "midi": 73,
      "hit": false,
      "t": 164057.7413333349,
      "d": 280.7967083333351,
      "v": 126
    },
    {
      "midi": 34,
      "hit": false,
      "t": 164347.5960000016,
      "d": 280.7967083333351,
      "v": 125
    },
    {
      "midi": 65,
      "hit": false,
      "t": 164347.5960000016,
      "d": 280.7967083333351,
      "v": 126
    },
    {
      "midi": 70,
      "hit": false,
      "t": 164347.5960000016,
      "d": 280.7967083333351,
      "v": 126
    },
    {
      "midi": 73,
      "hit": false,
      "t": 164347.5960000016,
      "d": 280.7967083333351,
      "v": 126
    },
    {
      "midi": 34,
      "hit": false,
      "t": 164637.45066666827,
      "d": 280.7967083333351,
      "v": 125
    },
    {
      "midi": 65,
      "hit": false,
      "t": 164637.45066666827,
      "d": 280.7967083333351,
      "v": 126
    },
    {
      "midi": 70,
      "hit": false,
      "t": 164637.45066666827,
      "d": 280.7967083333351,
      "v": 126
    },
    {
      "midi": 73,
      "hit": false,
      "t": 164637.45066666827,
      "d": 280.7967083333351,
      "v": 126
    },
    {
      "midi": 34,
      "hit": false,
      "t": 164927.30533333495,
      "d": 280.7967083333351,
      "v": 125
    },
    {
      "midi": 65,
      "hit": false,
      "t": 164927.30533333495,
      "d": 280.7967083333351,
      "v": 126
    },
    {
      "midi": 70,
      "hit": false,
      "t": 164927.30533333495,
      "d": 280.7967083333351,
      "v": 126
    },
    {
      "midi": 73,
      "hit": false,
      "t": 164927.30533333495,
      "d": 280.7967083333351,
      "v": 126
    },
    {
      "midi": 36,
      "hit": false,
      "t": 165217.16000000163,
      "d": 280.7967083333351,
      "v": 125
    },
    {
      "midi": 64,
      "hit": false,
      "t": 165217.16000000163,
      "d": 280.7967083333351,
      "v": 126
    },
    {
      "midi": 67,
      "hit": false,
      "t": 165217.16000000163,
      "d": 280.7967083333351,
      "v": 126
    },
    {
      "midi": 72,
      "hit": false,
      "t": 165217.16000000163,
      "d": 280.7967083333351,
      "v": 126
    },
    {
      "midi": 36,
      "hit": false,
      "t": 165507.0146666683,
      "d": 280.7967083333351,
      "v": 125
    },
    {
      "midi": 64,
      "hit": false,
      "t": 165507.0146666683,
      "d": 280.7967083333351,
      "v": 126
    },
    {
      "midi": 67,
      "hit": false,
      "t": 165507.0146666683,
      "d": 280.7967083333351,
      "v": 126
    },
    {
      "midi": 72,
      "hit": false,
      "t": 165507.0146666683,
      "d": 280.7967083333351,
      "v": 126
    },
    {
      "midi": 36,
      "hit": false,
      "t": 165796.869333335,
      "d": 280.7967083333351,
      "v": 125
    },
    {
      "midi": 64,
      "hit": false,
      "t": 165796.869333335,
      "d": 280.7967083333351,
      "v": 126
    },
    {
      "midi": 67,
      "hit": false,
      "t": 165796.869333335,
      "d": 280.7967083333351,
      "v": 126
    },
    {
      "midi": 72,
      "hit": false,
      "t": 165796.869333335,
      "d": 280.7967083333351,
      "v": 126
    },
    {
      "midi": 36,
      "hit": false,
      "t": 166086.72400000168,
      "d": 280.7967083333351,
      "v": 125
    },
    {
      "midi": 64,
      "hit": false,
      "t": 166086.72400000168,
      "d": 280.7967083333351,
      "v": 126
    },
    {
      "midi": 67,
      "hit": false,
      "t": 166086.72400000168,
      "d": 280.7967083333351,
      "v": 126
    },
    {
      "midi": 72,
      "hit": false,
      "t": 166086.72400000168,
      "d": 280.7967083333351,
      "v": 126
    },
    {
      "midi": 36,
      "hit": false,
      "t": 166376.57866666836,
      "d": 280.7967083333351,
      "v": 125
    },
    {
      "midi": 64,
      "hit": false,
      "t": 166376.57866666836,
      "d": 280.7967083333351,
      "v": 126
    },
    {
      "midi": 67,
      "hit": false,
      "t": 166376.57866666836,
      "d": 280.7967083333351,
      "v": 126
    },
    {
      "midi": 72,
      "hit": false,
      "t": 166376.57866666836,
      "d": 280.7967083333351,
      "v": 126
    },
    {
      "midi": 36,
      "hit": false,
      "t": 166666.43333333504,
      "d": 280.7967083333351,
      "v": 125
    },
    {
      "midi": 64,
      "hit": false,
      "t": 166666.43333333504,
      "d": 280.7967083333351,
      "v": 126
    },
    {
      "midi": 67,
      "hit": false,
      "t": 166666.43333333504,
      "d": 280.7967083333351,
      "v": 126
    },
    {
      "midi": 72,
      "hit": false,
      "t": 166666.43333333504,
      "d": 280.7967083333351,
      "v": 126
    },
    {
      "midi": 41,
      "hit": false,
      "t": 166956.28800000172,
      "d": 280.7967083333351,
      "v": 125
    },
    {
      "midi": 65,
      "hit": false,
      "t": 166956.28800000172,
      "d": 280.7967083333351,
      "v": 126
    },
    {
      "midi": 69,
      "hit": false,
      "t": 166956.28800000172,
      "d": 280.7967083333351,
      "v": 126
    },
    {
      "midi": 72,
      "hit": false,
      "t": 166956.28800000172,
      "d": 280.7967083333351,
      "v": 126
    },
    {
      "midi": 41,
      "hit": false,
      "t": 167246.1426666684,
      "d": 280.7967083333351,
      "v": 125
    },
    {
      "midi": 65,
      "hit": false,
      "t": 167246.1426666684,
      "d": 280.7967083333351,
      "v": 126
    },
    {
      "midi": 69,
      "hit": false,
      "t": 167246.1426666684,
      "d": 280.7967083333351,
      "v": 126
    },
    {
      "midi": 72,
      "hit": false,
      "t": 167246.1426666684,
      "d": 280.7967083333351,
      "v": 126
    },
    {
      "midi": 41,
      "hit": false,
      "t": 167535.99733333508,
      "d": 280.7967083333351,
      "v": 125
    },
    {
      "midi": 65,
      "hit": false,
      "t": 167535.99733333508,
      "d": 280.7967083333351,
      "v": 126
    },
    {
      "midi": 69,
      "hit": false,
      "t": 167535.99733333508,
      "d": 280.7967083333351,
      "v": 126
    },
    {
      "midi": 72,
      "hit": false,
      "t": 167535.99733333508,
      "d": 280.7967083333351,
      "v": 126
    },
    {
      "midi": 41,
      "hit": false,
      "t": 167825.85200000176,
      "d": 280.7967083333351,
      "v": 125
    },
    {
      "midi": 65,
      "hit": false,
      "t": 167825.85200000176,
      "d": 280.7967083333351,
      "v": 126
    },
    {
      "midi": 69,
      "hit": false,
      "t": 167825.85200000176,
      "d": 280.7967083333351,
      "v": 126
    },
    {
      "midi": 72,
      "hit": false,
      "t": 167825.85200000176,
      "d": 280.7967083333351,
      "v": 126
    },
    {
      "midi": 41,
      "hit": false,
      "t": 168115.70666666844,
      "d": 280.7967083333351,
      "v": 125
    },
    {
      "midi": 65,
      "hit": false,
      "t": 168115.70666666844,
      "d": 280.7967083333351,
      "v": 126
    },
    {
      "midi": 69,
      "hit": false,
      "t": 168115.70666666844,
      "d": 280.7967083333351,
      "v": 126
    },
    {
      "midi": 72,
      "hit": false,
      "t": 168115.70666666844,
      "d": 280.7967083333351,
      "v": 126
    },
    {
      "midi": 41,
      "hit": false,
      "t": 168405.56133333512,
      "d": 280.7967083333351,
      "v": 125
    },
    {
      "midi": 65,
      "hit": false,
      "t": 168405.56133333512,
      "d": 280.7967083333351,
      "v": 126
    },
    {
      "midi": 69,
      "hit": false,
      "t": 168405.56133333512,
      "d": 280.7967083333351,
      "v": 126
    },
    {
      "midi": 72,
      "hit": false,
      "t": 168405.56133333512,
      "d": 280.7967083333351,
      "v": 126
    },
    {
      "midi": 34,
      "hit": false,
      "t": 168695.4160000018,
      "d": 280.7967083333351,
      "v": 125
    },
    {
      "midi": 65,
      "hit": false,
      "t": 168695.4160000018,
      "d": 280.7967083333351,
      "v": 126
    },
    {
      "midi": 70,
      "hit": false,
      "t": 168695.4160000018,
      "d": 280.7967083333351,
      "v": 126
    },
    {
      "midi": 73,
      "hit": false,
      "t": 168695.4160000018,
      "d": 280.7967083333351,
      "v": 126
    },
    {
      "midi": 34,
      "hit": false,
      "t": 168985.27066666848,
      "d": 280.7967083333351,
      "v": 125
    },
    {
      "midi": 65,
      "hit": false,
      "t": 168985.27066666848,
      "d": 280.7967083333351,
      "v": 126
    },
    {
      "midi": 70,
      "hit": false,
      "t": 168985.27066666848,
      "d": 280.7967083333351,
      "v": 126
    },
    {
      "midi": 73,
      "hit": false,
      "t": 168985.27066666848,
      "d": 280.7967083333351,
      "v": 126
    },
    {
      "midi": 34,
      "hit": false,
      "t": 169275.12533333516,
      "d": 280.7967083333351,
      "v": 125
    },
    {
      "midi": 65,
      "hit": false,
      "t": 169275.12533333516,
      "d": 280.7967083333351,
      "v": 126
    },
    {
      "midi": 70,
      "hit": false,
      "t": 169275.12533333516,
      "d": 280.7967083333351,
      "v": 126
    },
    {
      "midi": 73,
      "hit": false,
      "t": 169275.12533333516,
      "d": 280.7967083333351,
      "v": 126
    },
    {
      "midi": 34,
      "hit": false,
      "t": 169564.98000000184,
      "d": 280.7967083333351,
      "v": 125
    },
    {
      "midi": 65,
      "hit": false,
      "t": 169564.98000000184,
      "d": 280.7967083333351,
      "v": 126
    },
    {
      "midi": 70,
      "hit": false,
      "t": 169564.98000000184,
      "d": 280.7967083333351,
      "v": 126
    },
    {
      "midi": 73,
      "hit": false,
      "t": 169564.98000000184,
      "d": 280.7967083333351,
      "v": 126
    },
    {
      "midi": 34,
      "hit": false,
      "t": 169854.83466666852,
      "d": 280.7967083333351,
      "v": 125
    },
    {
      "midi": 65,
      "hit": false,
      "t": 169854.83466666852,
      "d": 280.7967083333351,
      "v": 126
    },
    {
      "midi": 70,
      "hit": false,
      "t": 169854.83466666852,
      "d": 280.7967083333351,
      "v": 126
    },
    {
      "midi": 73,
      "hit": false,
      "t": 169854.83466666852,
      "d": 280.7967083333351,
      "v": 126
    },
    {
      "midi": 34,
      "hit": false,
      "t": 170144.6893333352,
      "d": 280.7967083333351,
      "v": 125
    },
    {
      "midi": 65,
      "hit": false,
      "t": 170144.6893333352,
      "d": 280.7967083333351,
      "v": 126
    },
    {
      "midi": 70,
      "hit": false,
      "t": 170144.6893333352,
      "d": 280.7967083333351,
      "v": 126
    },
    {
      "midi": 73,
      "hit": false,
      "t": 170144.6893333352,
      "d": 280.7967083333351,
      "v": 126
    },
    {
      "midi": 41,
      "hit": false,
      "t": 170434.5440000019,
      "d": 280.7967083333351,
      "v": 125
    },
    {
      "midi": 65,
      "hit": false,
      "t": 170434.5440000019,
      "d": 280.7967083333351,
      "v": 126
    },
    {
      "midi": 69,
      "hit": false,
      "t": 170434.5440000019,
      "d": 280.7967083333351,
      "v": 126
    },
    {
      "midi": 72,
      "hit": false,
      "t": 170434.5440000019,
      "d": 280.7967083333351,
      "v": 126
    },
    {
      "midi": 41,
      "hit": false,
      "t": 170724.39866666857,
      "d": 280.7967083333351,
      "v": 125
    },
    {
      "midi": 65,
      "hit": false,
      "t": 170724.39866666857,
      "d": 280.7967083333351,
      "v": 126
    },
    {
      "midi": 69,
      "hit": false,
      "t": 170724.39866666857,
      "d": 280.7967083333351,
      "v": 126
    },
    {
      "midi": 72,
      "hit": false,
      "t": 170724.39866666857,
      "d": 280.7967083333351,
      "v": 126
    },
    {
      "midi": 41,
      "hit": false,
      "t": 171014.25333333525,
      "d": 280.7967083333351,
      "v": 125
    },
    {
      "midi": 65,
      "hit": false,
      "t": 171014.25333333525,
      "d": 280.7967083333351,
      "v": 126
    },
    {
      "midi": 69,
      "hit": false,
      "t": 171014.25333333525,
      "d": 280.7967083333351,
      "v": 126
    },
    {
      "midi": 72,
      "hit": false,
      "t": 171014.25333333525,
      "d": 280.7967083333351,
      "v": 126
    },
    {
      "midi": 41,
      "hit": false,
      "t": 171304.10800000193,
      "d": 280.7967083333351,
      "v": 125
    },
    {
      "midi": 65,
      "hit": false,
      "t": 171304.10800000193,
      "d": 280.7967083333351,
      "v": 126
    },
    {
      "midi": 69,
      "hit": false,
      "t": 171304.10800000193,
      "d": 280.7967083333351,
      "v": 126
    },
    {
      "midi": 72,
      "hit": false,
      "t": 171304.10800000193,
      "d": 280.7967083333351,
      "v": 126
    },
    {
      "midi": 41,
      "hit": false,
      "t": 171593.9626666686,
      "d": 280.7967083333351,
      "v": 125
    },
    {
      "midi": 65,
      "hit": false,
      "t": 171593.9626666686,
      "d": 280.7967083333351,
      "v": 126
    },
    {
      "midi": 69,
      "hit": false,
      "t": 171593.9626666686,
      "d": 280.7967083333351,
      "v": 126
    },
    {
      "midi": 72,
      "hit": false,
      "t": 171593.9626666686,
      "d": 280.7967083333351,
      "v": 126
    },
    {
      "midi": 41,
      "hit": false,
      "t": 171883.8173333353,
      "d": 280.7967083333351,
      "v": 125
    },
    {
      "midi": 65,
      "hit": false,
      "t": 171883.8173333353,
      "d": 280.7967083333351,
      "v": 126
    },
    {
      "midi": 69,
      "hit": false,
      "t": 171883.8173333353,
      "d": 280.7967083333351,
      "v": 126
    },
    {
      "midi": 72,
      "hit": false,
      "t": 171883.8173333353,
      "d": 280.7967083333351,
      "v": 126
    },
    {
      "midi": 41,
      "hit": false,
      "t": 172173.67200000197,
      "d": 280.7967083333351,
      "v": 125
    },
    {
      "midi": 65,
      "hit": false,
      "t": 172173.67200000197,
      "d": 280.7967083333351,
      "v": 126
    },
    {
      "midi": 69,
      "hit": false,
      "t": 172173.67200000197,
      "d": 280.7967083333351,
      "v": 126
    },
    {
      "midi": 72,
      "hit": false,
      "t": 172173.67200000197,
      "d": 280.7967083333351,
      "v": 126
    },
    {
      "midi": 41,
      "hit": false,
      "t": 172463.52666666865,
      "d": 280.7967083333351,
      "v": 125
    },
    {
      "midi": 65,
      "hit": false,
      "t": 172463.52666666865,
      "d": 280.7967083333351,
      "v": 126
    },
    {
      "midi": 69,
      "hit": false,
      "t": 172463.52666666865,
      "d": 280.7967083333351,
      "v": 126
    },
    {
      "midi": 72,
      "hit": false,
      "t": 172463.52666666865,
      "d": 280.7967083333351,
      "v": 126
    },
    {
      "midi": 41,
      "hit": false,
      "t": 172753.38133333533,
      "d": 280.7967083333351,
      "v": 125
    },
    {
      "midi": 65,
      "hit": false,
      "t": 172753.38133333533,
      "d": 280.7967083333351,
      "v": 126
    },
    {
      "midi": 69,
      "hit": false,
      "t": 172753.38133333533,
      "d": 280.7967083333351,
      "v": 126
    },
    {
      "midi": 72,
      "hit": false,
      "t": 172753.38133333533,
      "d": 280.7967083333351,
      "v": 126
    },
    {
      "midi": 41,
      "hit": false,
      "t": 173043.236000002,
      "d": 280.7967083333351,
      "v": 125
    },
    {
      "midi": 65,
      "hit": false,
      "t": 173043.236000002,
      "d": 280.7967083333351,
      "v": 126
    },
    {
      "midi": 69,
      "hit": false,
      "t": 173043.236000002,
      "d": 280.7967083333351,
      "v": 126
    },
    {
      "midi": 72,
      "hit": false,
      "t": 173043.236000002,
      "d": 280.7967083333351,
      "v": 126
    },
    {
      "midi": 65,
      "hit": false,
      "t": 173333.09066666657,
      "d": 262.68079166667303,
      "v": 124
    },
    {
      "midi": 41,
      "hit": false,
      "t": 173333.0906666687,
      "d": 280.7967083333351,
      "v": 125
    },
    {
      "midi": 65,
      "hit": false,
      "t": 173333.0906666687,
      "d": 280.7967083333351,
      "v": 126
    },
    {
      "midi": 69,
      "hit": false,
      "t": 173333.0906666687,
      "d": 280.7967083333351,
      "v": 126
    },
    {
      "midi": 72,
      "hit": false,
      "t": 173333.0906666687,
      "d": 280.7967083333351,
      "v": 126
    },
    {
      "midi": 65,
      "hit": false,
      "t": 173622.94533333325,
      "d": 280.7967083333351,
      "v": 124
    },
    {
      "midi": 41,
      "hit": false,
      "t": 173622.94533333537,
      "d": 280.7967083333351,
      "v": 125
    },
    {
      "midi": 65,
      "hit": false,
      "t": 173622.94533333537,
      "d": 280.7967083333351,
      "v": 126
    },
    {
      "midi": 69,
      "hit": false,
      "t": 173622.94533333537,
      "d": 280.7967083333351,
      "v": 126
    },
    {
      "midi": 72,
      "hit": false,
      "t": 173622.94533333537,
      "d": 280.7967083333351,
      "v": 126
    },
    {
      "midi": 72,
      "hit": false,
      "t": 173912.79999999993,
      "d": 153.9852916666714,
      "v": 125
    },
    {
      "midi": 77,
      "hit": false,
      "t": 173912.79999999993,
      "d": 579.7093333333614,
      "v": 125
    },
    {
      "midi": 34,
      "hit": false,
      "t": 173912.80000000205,
      "d": 280.7967083333351,
      "v": 125
    },
    {
      "midi": 65,
      "hit": false,
      "t": 173912.80000000205,
      "d": 280.7967083333351,
      "v": 126
    },
    {
      "midi": 70,
      "hit": false,
      "t": 173912.80000000205,
      "d": 280.7967083333351,
      "v": 126
    },
    {
      "midi": 74,
      "hit": false,
      "t": 173912.80000000205,
      "d": 280.7967083333351,
      "v": 126
    },
    {
      "midi": 74,
      "hit": false,
      "t": 174093.9591666666,
      "d": 280.7967083333351,
      "v": 125
    },
    {
      "midi": 34,
      "hit": false,
      "t": 174202.65466666874,
      "d": 280.7967083333351,
      "v": 125
    },
    {
      "midi": 65,
      "hit": false,
      "t": 174202.65466666874,
      "d": 280.7967083333351,
      "v": 126
    },
    {
      "midi": 70,
      "hit": false,
      "t": 174202.65466666874,
      "d": 280.7967083333351,
      "v": 126
    },
    {
      "midi": 74,
      "hit": false,
      "t": 174202.65466666874,
      "d": 280.7967083333351,
      "v": 126
    },
    {
      "midi": 72,
      "hit": false,
      "t": 174492.5093333333,
      "d": 181.15916666667908,
      "v": 125
    },
    {
      "midi": 77,
      "hit": false,
      "t": 174492.5093333333,
      "d": 869.564000000013,
      "v": 125
    },
    {
      "midi": 34,
      "hit": false,
      "t": 174492.50933333542,
      "d": 280.7967083333351,
      "v": 125
    },
    {
      "midi": 65,
      "hit": false,
      "t": 174492.50933333542,
      "d": 280.7967083333351,
      "v": 126
    },
    {
      "midi": 70,
      "hit": false,
      "t": 174492.50933333542,
      "d": 280.7967083333351,
      "v": 126
    },
    {
      "midi": 74,
      "hit": false,
      "t": 174492.50933333542,
      "d": 280.7967083333351,
      "v": 126
    },
    {
      "midi": 74,
      "hit": false,
      "t": 174673.66849999997,
      "d": 579.7093333333323,
      "v": 125
    },
    {
      "midi": 34,
      "hit": false,
      "t": 174782.3640000021,
      "d": 280.7967083333351,
      "v": 125
    },
    {
      "midi": 65,
      "hit": false,
      "t": 174782.3640000021,
      "d": 280.7967083333351,
      "v": 126
    },
    {
      "midi": 70,
      "hit": false,
      "t": 174782.3640000021,
      "d": 280.7967083333351,
      "v": 126
    },
    {
      "midi": 74,
      "hit": false,
      "t": 174782.3640000021,
      "d": 280.7967083333351,
      "v": 126
    },
    {
      "midi": 34,
      "hit": false,
      "t": 175072.21866666878,
      "d": 280.7967083333351,
      "v": 125
    },
    {
      "midi": 65,
      "hit": false,
      "t": 175072.21866666878,
      "d": 280.7967083333351,
      "v": 126
    },
    {
      "midi": 70,
      "hit": false,
      "t": 175072.21866666878,
      "d": 280.7967083333351,
      "v": 126
    },
    {
      "midi": 74,
      "hit": false,
      "t": 175072.21866666878,
      "d": 280.7967083333351,
      "v": 126
    },
    {
      "midi": 34,
      "hit": false,
      "t": 175362.07333333546,
      "d": 280.7967083333351,
      "v": 125
    },
    {
      "midi": 65,
      "hit": false,
      "t": 175362.07333333546,
      "d": 280.7967083333351,
      "v": 126
    },
    {
      "midi": 70,
      "hit": false,
      "t": 175362.07333333546,
      "d": 280.7967083333351,
      "v": 126
    },
    {
      "midi": 74,
      "hit": false,
      "t": 175362.07333333546,
      "d": 280.7967083333351,
      "v": 126
    },
    {
      "midi": 79,
      "hit": false,
      "t": 175651.92799999999,
      "d": 181.15916666667908,
      "v": 125
    },
    {
      "midi": 84,
      "hit": false,
      "t": 175651.92799999999,
      "d": 579.7093333333614,
      "v": 125
    },
    {
      "midi": 34,
      "hit": false,
      "t": 175651.92800000214,
      "d": 280.7967083333351,
      "v": 125
    },
    {
      "midi": 65,
      "hit": false,
      "t": 175651.92800000214,
      "d": 280.7967083333351,
      "v": 126
    },
    {
      "midi": 70,
      "hit": false,
      "t": 175651.92800000214,
      "d": 280.7967083333351,
      "v": 126
    },
    {
      "midi": 74,
      "hit": false,
      "t": 175651.92800000214,
      "d": 280.7967083333351,
      "v": 126
    },
    {
      "midi": 81,
      "hit": false,
      "t": 175833.08716666666,
      "d": 280.7967083333351,
      "v": 125
    },
    {
      "midi": 34,
      "hit": false,
      "t": 175941.78266666882,
      "d": 280.7967083333351,
      "v": 125
    },
    {
      "midi": 65,
      "hit": false,
      "t": 175941.78266666882,
      "d": 280.7967083333351,
      "v": 126
    },
    {
      "midi": 70,
      "hit": false,
      "t": 175941.78266666882,
      "d": 280.7967083333351,
      "v": 126
    },
    {
      "midi": 74,
      "hit": false,
      "t": 175941.78266666882,
      "d": 280.7967083333351,
      "v": 126
    },
    {
      "midi": 79,
      "hit": false,
      "t": 176231.63733333335,
      "d": 579.7093333333323,
      "v": 125
    },
    {
      "midi": 84,
      "hit": false,
      "t": 176231.63733333335,
      "d": 579.7093333333323,
      "v": 125
    },
    {
      "midi": 34,
      "hit": false,
      "t": 176231.6373333355,
      "d": 280.7967083333351,
      "v": 125
    },
    {
      "midi": 65,
      "hit": false,
      "t": 176231.6373333355,
      "d": 280.7967083333351,
      "v": 126
    },
    {
      "midi": 70,
      "hit": false,
      "t": 176231.6373333355,
      "d": 280.7967083333351,
      "v": 126
    },
    {
      "midi": 74,
      "hit": false,
      "t": 176231.6373333355,
      "d": 280.7967083333351,
      "v": 126
    },
    {
      "midi": 34,
      "hit": false,
      "t": 176521.49200000218,
      "d": 280.7967083333351,
      "v": 125
    },
    {
      "midi": 65,
      "hit": false,
      "t": 176521.49200000218,
      "d": 280.7967083333351,
      "v": 126
    },
    {
      "midi": 70,
      "hit": false,
      "t": 176521.49200000218,
      "d": 280.7967083333351,
      "v": 126
    },
    {
      "midi": 74,
      "hit": false,
      "t": 176521.49200000218,
      "d": 280.7967083333351,
      "v": 126
    },
    {
      "midi": 77,
      "hit": false,
      "t": 176811.34666666668,
      "d": 280.7967083333351,
      "v": 125
    },
    {
      "midi": 82,
      "hit": false,
      "t": 176811.34666666668,
      "d": 280.7967083333351,
      "v": 125
    },
    {
      "midi": 34,
      "hit": false,
      "t": 176811.34666666886,
      "d": 280.7967083333351,
      "v": 125
    },
    {
      "midi": 65,
      "hit": false,
      "t": 176811.34666666886,
      "d": 280.7967083333351,
      "v": 126
    },
    {
      "midi": 70,
      "hit": false,
      "t": 176811.34666666886,
      "d": 280.7967083333351,
      "v": 126
    },
    {
      "midi": 74,
      "hit": false,
      "t": 176811.34666666886,
      "d": 280.7967083333351,
      "v": 126
    },
    {
      "midi": 34,
      "hit": false,
      "t": 177101.20133333554,
      "d": 280.7967083333351,
      "v": 125
    },
    {
      "midi": 65,
      "hit": false,
      "t": 177101.20133333554,
      "d": 280.7967083333351,
      "v": 126
    },
    {
      "midi": 70,
      "hit": false,
      "t": 177101.20133333554,
      "d": 280.7967083333351,
      "v": 126
    },
    {
      "midi": 74,
      "hit": false,
      "t": 177101.20133333554,
      "d": 280.7967083333351,
      "v": 126
    },
    {
      "midi": 73,
      "hit": false,
      "t": 177391.056,
      "d": 1449.2733333333454,
      "v": 125
    },
    {
      "midi": 77,
      "hit": false,
      "t": 177391.056,
      "d": 1449.2733333333454,
      "v": 125
    },
    {
      "midi": 34,
      "hit": false,
      "t": 177391.05600000222,
      "d": 280.7967083333351,
      "v": 125
    },
    {
      "midi": 65,
      "hit": false,
      "t": 177391.05600000222,
      "d": 280.7967083333351,
      "v": 126
    },
    {
      "midi": 70,
      "hit": false,
      "t": 177391.05600000222,
      "d": 280.7967083333351,
      "v": 126
    },
    {
      "midi": 73,
      "hit": false,
      "t": 177391.05600000222,
      "d": 280.7967083333351,
      "v": 126
    },
    {
      "midi": 34,
      "hit": false,
      "t": 177680.9106666689,
      "d": 280.7967083333351,
      "v": 125
    },
    {
      "midi": 65,
      "hit": false,
      "t": 177680.9106666689,
      "d": 280.7967083333351,
      "v": 126
    },
    {
      "midi": 70,
      "hit": false,
      "t": 177680.9106666689,
      "d": 280.7967083333351,
      "v": 126
    },
    {
      "midi": 73,
      "hit": false,
      "t": 177680.9106666689,
      "d": 280.7967083333351,
      "v": 126
    },
    {
      "midi": 34,
      "hit": false,
      "t": 177970.76533333558,
      "d": 280.7967083333351,
      "v": 125
    },
    {
      "midi": 65,
      "hit": false,
      "t": 177970.76533333558,
      "d": 280.7967083333351,
      "v": 126
    },
    {
      "midi": 70,
      "hit": false,
      "t": 177970.76533333558,
      "d": 280.7967083333351,
      "v": 126
    },
    {
      "midi": 73,
      "hit": false,
      "t": 177970.76533333558,
      "d": 280.7967083333351,
      "v": 126
    },
    {
      "midi": 34,
      "hit": false,
      "t": 178260.62000000227,
      "d": 280.7967083333351,
      "v": 125
    },
    {
      "midi": 65,
      "hit": false,
      "t": 178260.62000000227,
      "d": 280.7967083333351,
      "v": 126
    },
    {
      "midi": 70,
      "hit": false,
      "t": 178260.62000000227,
      "d": 280.7967083333351,
      "v": 126
    },
    {
      "midi": 73,
      "hit": false,
      "t": 178260.62000000227,
      "d": 280.7967083333351,
      "v": 126
    },
    {
      "midi": 34,
      "hit": false,
      "t": 178550.47466666895,
      "d": 280.7967083333351,
      "v": 125
    },
    {
      "midi": 65,
      "hit": false,
      "t": 178550.47466666895,
      "d": 280.7967083333351,
      "v": 126
    },
    {
      "midi": 70,
      "hit": false,
      "t": 178550.47466666895,
      "d": 280.7967083333351,
      "v": 126
    },
    {
      "midi": 73,
      "hit": false,
      "t": 178550.47466666895,
      "d": 280.7967083333351,
      "v": 126
    },
    {
      "midi": 34,
      "hit": false,
      "t": 178840.32933333563,
      "d": 280.7967083333351,
      "v": 125
    },
    {
      "midi": 65,
      "hit": false,
      "t": 178840.32933333563,
      "d": 280.7967083333351,
      "v": 126
    },
    {
      "midi": 70,
      "hit": false,
      "t": 178840.32933333563,
      "d": 280.7967083333351,
      "v": 126
    },
    {
      "midi": 73,
      "hit": false,
      "t": 178840.32933333563,
      "d": 280.7967083333351,
      "v": 126
    },
    {
      "midi": 79,
      "hit": false,
      "t": 179130.18400000004,
      "d": 181.15916666667908,
      "v": 125
    },
    {
      "midi": 84,
      "hit": false,
      "t": 179130.18400000004,
      "d": 579.7093333333614,
      "v": 125
    },
    {
      "midi": 34,
      "hit": false,
      "t": 179130.1840000023,
      "d": 280.7967083333351,
      "v": 125
    },
    {
      "midi": 65,
      "hit": false,
      "t": 179130.1840000023,
      "d": 280.7967083333351,
      "v": 126
    },
    {
      "midi": 70,
      "hit": false,
      "t": 179130.1840000023,
      "d": 280.7967083333351,
      "v": 126
    },
    {
      "midi": 73,
      "hit": false,
      "t": 179130.1840000023,
      "d": 280.7967083333351,
      "v": 126
    },
    {
      "midi": 81,
      "hit": false,
      "t": 179311.34316666672,
      "d": 280.7967083333351,
      "v": 125
    },
    {
      "midi": 34,
      "hit": false,
      "t": 179420.038666669,
      "d": 280.7967083333351,
      "v": 125
    },
    {
      "midi": 65,
      "hit": false,
      "t": 179420.038666669,
      "d": 280.7967083333351,
      "v": 126
    },
    {
      "midi": 70,
      "hit": false,
      "t": 179420.038666669,
      "d": 280.7967083333351,
      "v": 126
    },
    {
      "midi": 73,
      "hit": false,
      "t": 179420.038666669,
      "d": 280.7967083333351,
      "v": 126
    },
    {
      "midi": 79,
      "hit": false,
      "t": 179709.8933333334,
      "d": 579.7093333333323,
      "v": 125
    },
    {
      "midi": 84,
      "hit": false,
      "t": 179709.8933333334,
      "d": 579.7093333333323,
      "v": 125
    },
    {
      "midi": 34,
      "hit": false,
      "t": 179709.89333333567,
      "d": 280.7967083333351,
      "v": 125
    },
    {
      "midi": 65,
      "hit": false,
      "t": 179709.89333333567,
      "d": 280.7967083333351,
      "v": 126
    },
    {
      "midi": 70,
      "hit": false,
      "t": 179709.89333333567,
      "d": 280.7967083333351,
      "v": 126
    },
    {
      "midi": 73,
      "hit": false,
      "t": 179709.89333333567,
      "d": 280.7967083333351,
      "v": 126
    },
    {
      "midi": 34,
      "hit": false,
      "t": 179999.74800000235,
      "d": 280.7967083333351,
      "v": 125
    },
    {
      "midi": 65,
      "hit": false,
      "t": 179999.74800000235,
      "d": 280.7967083333351,
      "v": 126
    },
    {
      "midi": 70,
      "hit": false,
      "t": 179999.74800000235,
      "d": 280.7967083333351,
      "v": 126
    },
    {
      "midi": 73,
      "hit": false,
      "t": 179999.74800000235,
      "d": 280.7967083333351,
      "v": 126
    },
    {
      "midi": 77,
      "hit": false,
      "t": 180289.60266666673,
      "d": 280.7967083333351,
      "v": 125
    },
    {
      "midi": 82,
      "hit": false,
      "t": 180289.60266666673,
      "d": 280.7967083333351,
      "v": 125
    },
    {
      "midi": 34,
      "hit": false,
      "t": 180289.60266666903,
      "d": 280.7967083333351,
      "v": 125
    },
    {
      "midi": 65,
      "hit": false,
      "t": 180289.60266666903,
      "d": 280.7967083333351,
      "v": 126
    },
    {
      "midi": 70,
      "hit": false,
      "t": 180289.60266666903,
      "d": 280.7967083333351,
      "v": 126
    },
    {
      "midi": 73,
      "hit": false,
      "t": 180289.60266666903,
      "d": 280.7967083333351,
      "v": 126
    },
    {
      "midi": 34,
      "hit": false,
      "t": 180579.4573333357,
      "d": 280.7967083333351,
      "v": 125
    },
    {
      "midi": 65,
      "hit": false,
      "t": 180579.4573333357,
      "d": 280.7967083333351,
      "v": 126
    },
    {
      "midi": 70,
      "hit": false,
      "t": 180579.4573333357,
      "d": 280.7967083333351,
      "v": 126
    },
    {
      "midi": 73,
      "hit": false,
      "t": 180579.4573333357,
      "d": 280.7967083333351,
      "v": 126
    },
    {
      "midi": 72,
      "hit": false,
      "t": 180869.31200000006,
      "d": 1159.4186666666646,
      "v": 125
    },
    {
      "midi": 77,
      "hit": false,
      "t": 180869.31200000006,
      "d": 1159.4186666666646,
      "v": 125
    },
    {
      "midi": 41,
      "hit": false,
      "t": 180869.3120000024,
      "d": 280.7967083333351,
      "v": 125
    },
    {
      "midi": 65,
      "hit": false,
      "t": 180869.3120000024,
      "d": 280.7967083333351,
      "v": 126
    },
    {
      "midi": 69,
      "hit": false,
      "t": 180869.3120000024,
      "d": 280.7967083333351,
      "v": 126
    },
    {
      "midi": 72,
      "hit": false,
      "t": 180869.3120000024,
      "d": 280.7967083333351,
      "v": 126
    },
    {
      "midi": 41,
      "hit": false,
      "t": 181159.16666666907,
      "d": 280.7967083333351,
      "v": 125
    },
    {
      "midi": 65,
      "hit": false,
      "t": 181159.16666666907,
      "d": 280.7967083333351,
      "v": 126
    },
    {
      "midi": 69,
      "hit": false,
      "t": 181159.16666666907,
      "d": 280.7967083333351,
      "v": 126
    },
    {
      "midi": 72,
      "hit": false,
      "t": 181159.16666666907,
      "d": 280.7967083333351,
      "v": 126
    },
    {
      "midi": 41,
      "hit": false,
      "t": 181449.02133333575,
      "d": 280.7967083333351,
      "v": 125
    },
    {
      "midi": 65,
      "hit": false,
      "t": 181449.02133333575,
      "d": 280.7967083333351,
      "v": 126
    },
    {
      "midi": 69,
      "hit": false,
      "t": 181449.02133333575,
      "d": 280.7967083333351,
      "v": 126
    },
    {
      "midi": 72,
      "hit": false,
      "t": 181449.02133333575,
      "d": 280.7967083333351,
      "v": 126
    },
    {
      "midi": 41,
      "hit": false,
      "t": 181738.87600000243,
      "d": 280.7967083333351,
      "v": 125
    },
    {
      "midi": 65,
      "hit": false,
      "t": 181738.87600000243,
      "d": 280.7967083333351,
      "v": 126
    },
    {
      "midi": 69,
      "hit": false,
      "t": 181738.87600000243,
      "d": 280.7967083333351,
      "v": 126
    },
    {
      "midi": 72,
      "hit": false,
      "t": 181738.87600000243,
      "d": 280.7967083333351,
      "v": 126
    },
    {
      "midi": 69,
      "hit": false,
      "t": 182028.73066666673,
      "d": 280.7967083333351,
      "v": 125
    },
    {
      "midi": 41,
      "hit": false,
      "t": 182028.73066666911,
      "d": 280.7967083333351,
      "v": 125
    },
    {
      "midi": 65,
      "hit": false,
      "t": 182028.73066666911,
      "d": 280.7967083333351,
      "v": 126
    },
    {
      "midi": 69,
      "hit": false,
      "t": 182028.73066666911,
      "d": 280.7967083333351,
      "v": 126
    },
    {
      "midi": 72,
      "hit": false,
      "t": 182028.73066666911,
      "d": 280.7967083333351,
      "v": 126
    },
    {
      "midi": 72,
      "hit": false,
      "t": 182318.5853333334,
      "d": 280.7967083333351,
      "v": 125
    },
    {
      "midi": 77,
      "hit": false,
      "t": 182318.5853333334,
      "d": 280.7967083333351,
      "v": 125
    },
    {
      "midi": 41,
      "hit": false,
      "t": 182318.5853333358,
      "d": 280.7967083333351,
      "v": 125
    },
    {
      "midi": 65,
      "hit": false,
      "t": 182318.5853333358,
      "d": 280.7967083333351,
      "v": 126
    },
    {
      "midi": 69,
      "hit": false,
      "t": 182318.5853333358,
      "d": 280.7967083333351,
      "v": 126
    },
    {
      "midi": 72,
      "hit": false,
      "t": 182318.5853333358,
      "d": 280.7967083333351,
      "v": 126
    },
    {
      "midi": 72,
      "hit": false,
      "t": 182608.4400000001,
      "d": 181.15916666667908,
      "v": 125
    },
    {
      "midi": 77,
      "hit": false,
      "t": 182608.4400000001,
      "d": 1159.4186666666938,
      "v": 125
    },
    {
      "midi": 41,
      "hit": false,
      "t": 182608.44000000248,
      "d": 280.7967083333351,
      "v": 125
    },
    {
      "midi": 65,
      "hit": false,
      "t": 182608.44000000248,
      "d": 280.7967083333351,
      "v": 126
    },
    {
      "midi": 69,
      "hit": false,
      "t": 182608.44000000248,
      "d": 280.7967083333351,
      "v": 126
    },
    {
      "midi": 72,
      "hit": false,
      "t": 182608.44000000248,
      "d": 280.7967083333351,
      "v": 126
    },
    {
      "midi": 74,
      "hit": false,
      "t": 182789.59916666677,
      "d": 869.564000000013,
      "v": 125
    },
    {
      "midi": 41,
      "hit": false,
      "t": 182898.29466666916,
      "d": 280.7967083333351,
      "v": 125
    },
    {
      "midi": 65,
      "hit": false,
      "t": 182898.29466666916,
      "d": 280.7967083333351,
      "v": 126
    },
    {
      "midi": 69,
      "hit": false,
      "t": 182898.29466666916,
      "d": 280.7967083333351,
      "v": 126
    },
    {
      "midi": 72,
      "hit": false,
      "t": 182898.29466666916,
      "d": 280.7967083333351,
      "v": 126
    },
    {
      "midi": 41,
      "hit": false,
      "t": 183188.14933333584,
      "d": 280.7967083333351,
      "v": 125
    },
    {
      "midi": 65,
      "hit": false,
      "t": 183188.14933333584,
      "d": 280.7967083333351,
      "v": 126
    },
    {
      "midi": 69,
      "hit": false,
      "t": 183188.14933333584,
      "d": 280.7967083333351,
      "v": 126
    },
    {
      "midi": 72,
      "hit": false,
      "t": 183188.14933333584,
      "d": 280.7967083333351,
      "v": 126
    },
    {
      "midi": 41,
      "hit": false,
      "t": 183478.00400000252,
      "d": 280.7967083333351,
      "v": 125
    },
    {
      "midi": 65,
      "hit": false,
      "t": 183478.00400000252,
      "d": 280.7967083333351,
      "v": 126
    },
    {
      "midi": 69,
      "hit": false,
      "t": 183478.00400000252,
      "d": 280.7967083333351,
      "v": 126
    },
    {
      "midi": 72,
      "hit": false,
      "t": 183478.00400000252,
      "d": 280.7967083333351,
      "v": 126
    },
    {
      "midi": 69,
      "hit": false,
      "t": 183767.85866666678,
      "d": 280.7967083333351,
      "v": 125
    },
    {
      "midi": 41,
      "hit": false,
      "t": 183767.8586666692,
      "d": 280.7967083333351,
      "v": 125
    },
    {
      "midi": 65,
      "hit": false,
      "t": 183767.8586666692,
      "d": 280.7967083333351,
      "v": 126
    },
    {
      "midi": 69,
      "hit": false,
      "t": 183767.8586666692,
      "d": 280.7967083333351,
      "v": 126
    },
    {
      "midi": 72,
      "hit": false,
      "t": 183767.8586666692,
      "d": 280.7967083333351,
      "v": 126
    },
    {
      "midi": 70,
      "hit": false,
      "t": 184057.71333333346,
      "d": 280.7967083333351,
      "v": 125
    },
    {
      "midi": 41,
      "hit": false,
      "t": 184057.71333333588,
      "d": 280.7967083333351,
      "v": 125
    },
    {
      "midi": 65,
      "hit": false,
      "t": 184057.71333333588,
      "d": 280.7967083333351,
      "v": 126
    },
    {
      "midi": 69,
      "hit": false,
      "t": 184057.71333333588,
      "d": 280.7967083333351,
      "v": 126
    },
    {
      "midi": 72,
      "hit": false,
      "t": 184057.71333333588,
      "d": 280.7967083333351,
      "v": 126
    },
    {
      "midi": 72,
      "hit": false,
      "t": 184347.56800000014,
      "d": 2898.5466666666616,
      "v": 125
    },
    {
      "midi": 77,
      "hit": false,
      "t": 184347.56800000014,
      "d": 2898.5466666666616,
      "v": 125
    },
    {
      "midi": 41,
      "hit": false,
      "t": 184347.56800000256,
      "d": 280.7967083333351,
      "v": 125
    },
    {
      "midi": 65,
      "hit": false,
      "t": 184347.56800000256,
      "d": 280.7967083333351,
      "v": 126
    },
    {
      "midi": 69,
      "hit": false,
      "t": 184347.56800000256,
      "d": 280.7967083333351,
      "v": 126
    },
    {
      "midi": 72,
      "hit": false,
      "t": 184347.56800000256,
      "d": 280.7967083333351,
      "v": 126
    },
    {
      "midi": 41,
      "hit": false,
      "t": 184637.42266666924,
      "d": 280.7967083333351,
      "v": 125
    },
    {
      "midi": 65,
      "hit": false,
      "t": 184637.42266666924,
      "d": 280.7967083333351,
      "v": 126
    },
    {
      "midi": 69,
      "hit": false,
      "t": 184637.42266666924,
      "d": 280.7967083333351,
      "v": 126
    },
    {
      "midi": 72,
      "hit": false,
      "t": 184637.42266666924,
      "d": 280.7967083333351,
      "v": 126
    },
    {
      "midi": 41,
      "hit": false,
      "t": 184927.27733333592,
      "d": 280.7967083333351,
      "v": 125
    },
    {
      "midi": 65,
      "hit": false,
      "t": 184927.27733333592,
      "d": 280.7967083333351,
      "v": 126
    },
    {
      "midi": 69,
      "hit": false,
      "t": 184927.27733333592,
      "d": 280.7967083333351,
      "v": 126
    },
    {
      "midi": 72,
      "hit": false,
      "t": 184927.27733333592,
      "d": 280.7967083333351,
      "v": 126
    },
    {
      "midi": 41,
      "hit": false,
      "t": 185217.1320000026,
      "d": 280.7967083333351,
      "v": 125
    },
    {
      "midi": 65,
      "hit": false,
      "t": 185217.1320000026,
      "d": 280.7967083333351,
      "v": 126
    },
    {
      "midi": 69,
      "hit": false,
      "t": 185217.1320000026,
      "d": 280.7967083333351,
      "v": 126
    },
    {
      "midi": 72,
      "hit": false,
      "t": 185217.1320000026,
      "d": 280.7967083333351,
      "v": 126
    },
    {
      "midi": 41,
      "hit": false,
      "t": 185506.98666666928,
      "d": 280.7967083333351,
      "v": 125
    },
    {
      "midi": 65,
      "hit": false,
      "t": 185506.98666666928,
      "d": 280.7967083333351,
      "v": 126
    },
    {
      "midi": 69,
      "hit": false,
      "t": 185506.98666666928,
      "d": 280.7967083333351,
      "v": 126
    },
    {
      "midi": 72,
      "hit": false,
      "t": 185506.98666666928,
      "d": 280.7967083333351,
      "v": 126
    },
    {
      "midi": 41,
      "hit": false,
      "t": 185796.84133333596,
      "d": 280.7967083333351,
      "v": 125
    },
    {
      "midi": 65,
      "hit": false,
      "t": 185796.84133333596,
      "d": 280.7967083333351,
      "v": 126
    },
    {
      "midi": 69,
      "hit": false,
      "t": 185796.84133333596,
      "d": 280.7967083333351,
      "v": 126
    },
    {
      "midi": 72,
      "hit": false,
      "t": 185796.84133333596,
      "d": 280.7967083333351,
      "v": 126
    },
    {
      "midi": 41,
      "hit": false,
      "t": 186086.69600000264,
      "d": 280.7967083333351,
      "v": 125
    },
    {
      "midi": 65,
      "hit": false,
      "t": 186086.69600000264,
      "d": 280.7967083333351,
      "v": 126
    },
    {
      "midi": 69,
      "hit": false,
      "t": 186086.69600000264,
      "d": 280.7967083333351,
      "v": 126
    },
    {
      "midi": 72,
      "hit": false,
      "t": 186086.69600000264,
      "d": 280.7967083333351,
      "v": 126
    },
    {
      "midi": 41,
      "hit": false,
      "t": 186376.55066666933,
      "d": 280.7967083333351,
      "v": 125
    },
    {
      "midi": 65,
      "hit": false,
      "t": 186376.55066666933,
      "d": 280.7967083333351,
      "v": 126
    },
    {
      "midi": 69,
      "hit": false,
      "t": 186376.55066666933,
      "d": 280.7967083333351,
      "v": 126
    },
    {
      "midi": 72,
      "hit": false,
      "t": 186376.55066666933,
      "d": 280.7967083333351,
      "v": 126
    },
    {
      "midi": 41,
      "hit": false,
      "t": 186666.405333336,
      "d": 280.7967083333351,
      "v": 125
    },
    {
      "midi": 65,
      "hit": false,
      "t": 186666.405333336,
      "d": 280.7967083333351,
      "v": 126
    },
    {
      "midi": 69,
      "hit": false,
      "t": 186666.405333336,
      "d": 280.7967083333351,
      "v": 126
    },
    {
      "midi": 72,
      "hit": false,
      "t": 186666.405333336,
      "d": 280.7967083333351,
      "v": 126
    },
    {
      "midi": 41,
      "hit": false,
      "t": 186956.2600000027,
      "d": 280.7967083333351,
      "v": 125
    },
    {
      "midi": 65,
      "hit": false,
      "t": 186956.2600000027,
      "d": 280.7967083333351,
      "v": 126
    },
    {
      "midi": 69,
      "hit": false,
      "t": 186956.2600000027,
      "d": 280.7967083333351,
      "v": 126
    },
    {
      "midi": 72,
      "hit": false,
      "t": 186956.2600000027,
      "d": 280.7967083333351,
      "v": 126
    },
    {
      "midi": 65,
      "hit": false,
      "t": 187246.1146666668,
      "d": 280.7967083333351,
      "v": 125
    },
    {
      "midi": 41,
      "hit": false,
      "t": 187246.11466666937,
      "d": 280.7967083333351,
      "v": 125
    },
    {
      "midi": 65,
      "hit": false,
      "t": 187246.11466666937,
      "d": 280.7967083333351,
      "v": 126
    },
    {
      "midi": 69,
      "hit": false,
      "t": 187246.11466666937,
      "d": 280.7967083333351,
      "v": 126
    },
    {
      "midi": 72,
      "hit": false,
      "t": 187246.11466666937,
      "d": 280.7967083333351,
      "v": 126
    },
    {
      "midi": 65,
      "hit": false,
      "t": 187535.9693333335,
      "d": 280.7967083333351,
      "v": 125
    },
    {
      "midi": 41,
      "hit": false,
      "t": 187535.96933333605,
      "d": 280.7967083333351,
      "v": 125
    },
    {
      "midi": 65,
      "hit": false,
      "t": 187535.96933333605,
      "d": 280.7967083333351,
      "v": 126
    },
    {
      "midi": 69,
      "hit": false,
      "t": 187535.96933333605,
      "d": 280.7967083333351,
      "v": 126
    },
    {
      "midi": 72,
      "hit": false,
      "t": 187535.96933333605,
      "d": 280.7967083333351,
      "v": 126
    },
    {
      "midi": 72,
      "hit": false,
      "t": 187825.82400000017,
      "d": 153.9852916666714,
      "v": 125
    },
    {
      "midi": 77,
      "hit": false,
      "t": 187825.82400000017,
      "d": 579.7093333333614,
      "v": 125
    },
    {
      "midi": 34,
      "hit": false,
      "t": 187825.82400000273,
      "d": 280.7967083333351,
      "v": 125
    },
    {
      "midi": 65,
      "hit": false,
      "t": 187825.82400000273,
      "d": 280.7967083333351,
      "v": 126
    },
    {
      "midi": 70,
      "hit": false,
      "t": 187825.82400000273,
      "d": 280.7967083333351,
      "v": 126
    },
    {
      "midi": 74,
      "hit": false,
      "t": 187825.82400000273,
      "d": 280.7967083333351,
      "v": 126
    },
    {
      "midi": 74,
      "hit": false,
      "t": 188006.98316666685,
      "d": 280.7967083333351,
      "v": 125
    },
    {
      "midi": 34,
      "hit": false,
      "t": 188115.6786666694,
      "d": 280.7967083333351,
      "v": 125
    },
    {
      "midi": 65,
      "hit": false,
      "t": 188115.6786666694,
      "d": 280.7967083333351,
      "v": 126
    },
    {
      "midi": 70,
      "hit": false,
      "t": 188115.6786666694,
      "d": 280.7967083333351,
      "v": 126
    },
    {
      "midi": 74,
      "hit": false,
      "t": 188115.6786666694,
      "d": 280.7967083333351,
      "v": 126
    },
    {
      "midi": 72,
      "hit": false,
      "t": 188405.53333333353,
      "d": 181.15916666667908,
      "v": 125
    },
    {
      "midi": 77,
      "hit": false,
      "t": 188405.53333333353,
      "d": 869.564000000013,
      "v": 125
    },
    {
      "midi": 34,
      "hit": false,
      "t": 188405.5333333361,
      "d": 280.7967083333351,
      "v": 125
    },
    {
      "midi": 65,
      "hit": false,
      "t": 188405.5333333361,
      "d": 280.7967083333351,
      "v": 126
    },
    {
      "midi": 70,
      "hit": false,
      "t": 188405.5333333361,
      "d": 280.7967083333351,
      "v": 126
    },
    {
      "midi": 74,
      "hit": false,
      "t": 188405.5333333361,
      "d": 280.7967083333351,
      "v": 126
    },
    {
      "midi": 74,
      "hit": false,
      "t": 188586.6925000002,
      "d": 579.7093333333323,
      "v": 125
    },
    {
      "midi": 34,
      "hit": false,
      "t": 188695.38800000277,
      "d": 280.7967083333351,
      "v": 125
    },
    {
      "midi": 65,
      "hit": false,
      "t": 188695.38800000277,
      "d": 280.7967083333351,
      "v": 126
    },
    {
      "midi": 70,
      "hit": false,
      "t": 188695.38800000277,
      "d": 280.7967083333351,
      "v": 126
    },
    {
      "midi": 74,
      "hit": false,
      "t": 188695.38800000277,
      "d": 280.7967083333351,
      "v": 126
    },
    {
      "midi": 34,
      "hit": false,
      "t": 188985.24266666945,
      "d": 280.7967083333351,
      "v": 125
    },
    {
      "midi": 65,
      "hit": false,
      "t": 188985.24266666945,
      "d": 280.7967083333351,
      "v": 126
    },
    {
      "midi": 70,
      "hit": false,
      "t": 188985.24266666945,
      "d": 280.7967083333351,
      "v": 126
    },
    {
      "midi": 74,
      "hit": false,
      "t": 188985.24266666945,
      "d": 280.7967083333351,
      "v": 126
    },
    {
      "midi": 34,
      "hit": false,
      "t": 189275.09733333613,
      "d": 280.7967083333351,
      "v": 125
    },
    {
      "midi": 65,
      "hit": false,
      "t": 189275.09733333613,
      "d": 280.7967083333351,
      "v": 126
    },
    {
      "midi": 70,
      "hit": false,
      "t": 189275.09733333613,
      "d": 280.7967083333351,
      "v": 126
    },
    {
      "midi": 74,
      "hit": false,
      "t": 189275.09733333613,
      "d": 280.7967083333351,
      "v": 126
    },
    {
      "midi": 79,
      "hit": false,
      "t": 189564.95200000022,
      "d": 181.15916666667908,
      "v": 125
    },
    {
      "midi": 84,
      "hit": false,
      "t": 189564.95200000022,
      "d": 579.7093333333614,
      "v": 125
    },
    {
      "midi": 34,
      "hit": false,
      "t": 189564.9520000028,
      "d": 280.7967083333351,
      "v": 125
    },
    {
      "midi": 65,
      "hit": false,
      "t": 189564.9520000028,
      "d": 280.7967083333351,
      "v": 126
    },
    {
      "midi": 70,
      "hit": false,
      "t": 189564.9520000028,
      "d": 280.7967083333351,
      "v": 126
    },
    {
      "midi": 74,
      "hit": false,
      "t": 189564.9520000028,
      "d": 280.7967083333351,
      "v": 126
    },
    {
      "midi": 81,
      "hit": false,
      "t": 189746.1111666669,
      "d": 280.7967083333351,
      "v": 125
    },
    {
      "midi": 34,
      "hit": false,
      "t": 189854.8066666695,
      "d": 280.7967083333351,
      "v": 125
    },
    {
      "midi": 65,
      "hit": false,
      "t": 189854.8066666695,
      "d": 280.7967083333351,
      "v": 126
    },
    {
      "midi": 70,
      "hit": false,
      "t": 189854.8066666695,
      "d": 280.7967083333351,
      "v": 126
    },
    {
      "midi": 74,
      "hit": false,
      "t": 189854.8066666695,
      "d": 280.7967083333351,
      "v": 126
    },
    {
      "midi": 79,
      "hit": false,
      "t": 190144.66133333358,
      "d": 579.7093333333323,
      "v": 125
    },
    {
      "midi": 84,
      "hit": false,
      "t": 190144.66133333358,
      "d": 579.7093333333323,
      "v": 125
    },
    {
      "midi": 34,
      "hit": false,
      "t": 190144.66133333617,
      "d": 280.7967083333351,
      "v": 125
    },
    {
      "midi": 65,
      "hit": false,
      "t": 190144.66133333617,
      "d": 280.7967083333351,
      "v": 126
    },
    {
      "midi": 70,
      "hit": false,
      "t": 190144.66133333617,
      "d": 280.7967083333351,
      "v": 126
    },
    {
      "midi": 74,
      "hit": false,
      "t": 190144.66133333617,
      "d": 280.7967083333351,
      "v": 126
    },
    {
      "midi": 34,
      "hit": false,
      "t": 190434.51600000286,
      "d": 280.7967083333351,
      "v": 125
    },
    {
      "midi": 65,
      "hit": false,
      "t": 190434.51600000286,
      "d": 280.7967083333351,
      "v": 126
    },
    {
      "midi": 70,
      "hit": false,
      "t": 190434.51600000286,
      "d": 280.7967083333351,
      "v": 126
    },
    {
      "midi": 74,
      "hit": false,
      "t": 190434.51600000286,
      "d": 280.7967083333351,
      "v": 126
    },
    {
      "midi": 77,
      "hit": false,
      "t": 190724.37066666692,
      "d": 280.7967083333351,
      "v": 125
    },
    {
      "midi": 82,
      "hit": false,
      "t": 190724.37066666692,
      "d": 280.7967083333351,
      "v": 125
    },
    {
      "midi": 34,
      "hit": false,
      "t": 190724.37066666954,
      "d": 280.7967083333351,
      "v": 125
    },
    {
      "midi": 65,
      "hit": false,
      "t": 190724.37066666954,
      "d": 280.7967083333351,
      "v": 126
    },
    {
      "midi": 70,
      "hit": false,
      "t": 190724.37066666954,
      "d": 280.7967083333351,
      "v": 126
    },
    {
      "midi": 74,
      "hit": false,
      "t": 190724.37066666954,
      "d": 280.7967083333351,
      "v": 126
    },
    {
      "midi": 34,
      "hit": false,
      "t": 191014.22533333622,
      "d": 280.7967083333351,
      "v": 125
    },
    {
      "midi": 65,
      "hit": false,
      "t": 191014.22533333622,
      "d": 280.7967083333351,
      "v": 126
    },
    {
      "midi": 70,
      "hit": false,
      "t": 191014.22533333622,
      "d": 280.7967083333351,
      "v": 126
    },
    {
      "midi": 74,
      "hit": false,
      "t": 191014.22533333622,
      "d": 280.7967083333351,
      "v": 126
    },
    {
      "midi": 73,
      "hit": false,
      "t": 191304.08000000025,
      "d": 1449.2733333333454,
      "v": 125
    },
    {
      "midi": 77,
      "hit": false,
      "t": 191304.08000000025,
      "d": 1449.2733333333454,
      "v": 125
    },
    {
      "midi": 34,
      "hit": false,
      "t": 191304.0800000029,
      "d": 280.7967083333351,
      "v": 125
    },
    {
      "midi": 65,
      "hit": false,
      "t": 191304.0800000029,
      "d": 280.7967083333351,
      "v": 126
    },
    {
      "midi": 70,
      "hit": false,
      "t": 191304.0800000029,
      "d": 280.7967083333351,
      "v": 126
    },
    {
      "midi": 73,
      "hit": false,
      "t": 191304.0800000029,
      "d": 280.7967083333351,
      "v": 126
    },
    {
      "midi": 34,
      "hit": false,
      "t": 191593.93466666958,
      "d": 280.7967083333351,
      "v": 125
    },
    {
      "midi": 65,
      "hit": false,
      "t": 191593.93466666958,
      "d": 280.7967083333351,
      "v": 126
    },
    {
      "midi": 70,
      "hit": false,
      "t": 191593.93466666958,
      "d": 280.7967083333351,
      "v": 126
    },
    {
      "midi": 73,
      "hit": false,
      "t": 191593.93466666958,
      "d": 280.7967083333351,
      "v": 126
    },
    {
      "midi": 34,
      "hit": false,
      "t": 191883.78933333626,
      "d": 280.7967083333351,
      "v": 125
    },
    {
      "midi": 65,
      "hit": false,
      "t": 191883.78933333626,
      "d": 280.7967083333351,
      "v": 126
    },
    {
      "midi": 70,
      "hit": false,
      "t": 191883.78933333626,
      "d": 280.7967083333351,
      "v": 126
    },
    {
      "midi": 73,
      "hit": false,
      "t": 191883.78933333626,
      "d": 280.7967083333351,
      "v": 126
    },
    {
      "midi": 34,
      "hit": false,
      "t": 192173.64400000294,
      "d": 280.7967083333351,
      "v": 125
    },
    {
      "midi": 65,
      "hit": false,
      "t": 192173.64400000294,
      "d": 280.7967083333351,
      "v": 126
    },
    {
      "midi": 70,
      "hit": false,
      "t": 192173.64400000294,
      "d": 280.7967083333351,
      "v": 126
    },
    {
      "midi": 73,
      "hit": false,
      "t": 192173.64400000294,
      "d": 280.7967083333351,
      "v": 126
    },
    {
      "midi": 34,
      "hit": false,
      "t": 192463.49866666962,
      "d": 280.7967083333351,
      "v": 125
    },
    {
      "midi": 65,
      "hit": false,
      "t": 192463.49866666962,
      "d": 280.7967083333351,
      "v": 126
    },
    {
      "midi": 70,
      "hit": false,
      "t": 192463.49866666962,
      "d": 280.7967083333351,
      "v": 126
    },
    {
      "midi": 73,
      "hit": false,
      "t": 192463.49866666962,
      "d": 280.7967083333351,
      "v": 126
    },
    {
      "midi": 34,
      "hit": false,
      "t": 192753.3533333363,
      "d": 280.7967083333351,
      "v": 125
    },
    {
      "midi": 65,
      "hit": false,
      "t": 192753.3533333363,
      "d": 280.7967083333351,
      "v": 126
    },
    {
      "midi": 70,
      "hit": false,
      "t": 192753.3533333363,
      "d": 280.7967083333351,
      "v": 126
    },
    {
      "midi": 73,
      "hit": false,
      "t": 192753.3533333363,
      "d": 280.7967083333351,
      "v": 126
    },
    {
      "midi": 79,
      "hit": false,
      "t": 193043.20800000028,
      "d": 181.15916666667908,
      "v": 125
    },
    {
      "midi": 84,
      "hit": false,
      "t": 193043.20800000028,
      "d": 579.7093333333614,
      "v": 125
    },
    {
      "midi": 34,
      "hit": false,
      "t": 193043.20800000298,
      "d": 280.7967083333351,
      "v": 125
    },
    {
      "midi": 65,
      "hit": false,
      "t": 193043.20800000298,
      "d": 280.7967083333351,
      "v": 126
    },
    {
      "midi": 70,
      "hit": false,
      "t": 193043.20800000298,
      "d": 280.7967083333351,
      "v": 126
    },
    {
      "midi": 73,
      "hit": false,
      "t": 193043.20800000298,
      "d": 280.7967083333351,
      "v": 126
    },
    {
      "midi": 81,
      "hit": false,
      "t": 193224.36716666695,
      "d": 280.7967083333351,
      "v": 125
    },
    {
      "midi": 34,
      "hit": false,
      "t": 193333.06266666966,
      "d": 280.7967083333351,
      "v": 125
    },
    {
      "midi": 65,
      "hit": false,
      "t": 193333.06266666966,
      "d": 280.7967083333351,
      "v": 126
    },
    {
      "midi": 70,
      "hit": false,
      "t": 193333.06266666966,
      "d": 280.7967083333351,
      "v": 126
    },
    {
      "midi": 73,
      "hit": false,
      "t": 193333.06266666966,
      "d": 280.7967083333351,
      "v": 126
    },
    {
      "midi": 79,
      "hit": false,
      "t": 193622.91733333364,
      "d": 579.7093333333323,
      "v": 125
    },
    {
      "midi": 84,
      "hit": false,
      "t": 193622.91733333364,
      "d": 579.7093333333323,
      "v": 125
    },
    {
      "midi": 34,
      "hit": false,
      "t": 193622.91733333634,
      "d": 280.7967083333351,
      "v": 125
    },
    {
      "midi": 65,
      "hit": false,
      "t": 193622.91733333634,
      "d": 280.7967083333351,
      "v": 126
    },
    {
      "midi": 70,
      "hit": false,
      "t": 193622.91733333634,
      "d": 280.7967083333351,
      "v": 126
    },
    {
      "midi": 73,
      "hit": false,
      "t": 193622.91733333634,
      "d": 280.7967083333351,
      "v": 126
    },
    {
      "midi": 34,
      "hit": false,
      "t": 193912.77200000302,
      "d": 280.7967083333351,
      "v": 125
    },
    {
      "midi": 65,
      "hit": false,
      "t": 193912.77200000302,
      "d": 280.7967083333351,
      "v": 126
    },
    {
      "midi": 70,
      "hit": false,
      "t": 193912.77200000302,
      "d": 280.7967083333351,
      "v": 126
    },
    {
      "midi": 73,
      "hit": false,
      "t": 193912.77200000302,
      "d": 280.7967083333351,
      "v": 126
    },
    {
      "midi": 77,
      "hit": false,
      "t": 194202.62666666697,
      "d": 280.7967083333351,
      "v": 125
    },
    {
      "midi": 82,
      "hit": false,
      "t": 194202.62666666697,
      "d": 280.7967083333351,
      "v": 125
    },
    {
      "midi": 34,
      "hit": false,
      "t": 194202.6266666697,
      "d": 280.7967083333351,
      "v": 125
    },
    {
      "midi": 65,
      "hit": false,
      "t": 194202.6266666697,
      "d": 280.7967083333351,
      "v": 126
    },
    {
      "midi": 70,
      "hit": false,
      "t": 194202.6266666697,
      "d": 280.7967083333351,
      "v": 126
    },
    {
      "midi": 73,
      "hit": false,
      "t": 194202.6266666697,
      "d": 280.7967083333351,
      "v": 126
    },
    {
      "midi": 34,
      "hit": false,
      "t": 194492.48133333639,
      "d": 280.7967083333351,
      "v": 125
    },
    {
      "midi": 65,
      "hit": false,
      "t": 194492.48133333639,
      "d": 280.7967083333351,
      "v": 126
    },
    {
      "midi": 70,
      "hit": false,
      "t": 194492.48133333639,
      "d": 280.7967083333351,
      "v": 126
    },
    {
      "midi": 73,
      "hit": false,
      "t": 194492.48133333639,
      "d": 280.7967083333351,
      "v": 126
    },
    {
      "midi": 72,
      "hit": false,
      "t": 194782.3360000003,
      "d": 1159.4186666666646,
      "v": 125
    },
    {
      "midi": 76,
      "hit": false,
      "t": 194782.3360000003,
      "d": 1159.4186666666646,
      "v": 125
    },
    {
      "midi": 36,
      "hit": false,
      "t": 194782.33600000307,
      "d": 280.7967083333351,
      "v": 125
    },
    {
      "midi": 64,
      "hit": false,
      "t": 194782.33600000307,
      "d": 280.7967083333351,
      "v": 126
    },
    {
      "midi": 67,
      "hit": false,
      "t": 194782.33600000307,
      "d": 280.7967083333351,
      "v": 126
    },
    {
      "midi": 72,
      "hit": false,
      "t": 194782.33600000307,
      "d": 280.7967083333351,
      "v": 126
    },
    {
      "midi": 36,
      "hit": false,
      "t": 195072.19066666975,
      "d": 280.7967083333351,
      "v": 125
    },
    {
      "midi": 64,
      "hit": false,
      "t": 195072.19066666975,
      "d": 280.7967083333351,
      "v": 126
    },
    {
      "midi": 67,
      "hit": false,
      "t": 195072.19066666975,
      "d": 280.7967083333351,
      "v": 126
    },
    {
      "midi": 72,
      "hit": false,
      "t": 195072.19066666975,
      "d": 280.7967083333351,
      "v": 126
    },
    {
      "midi": 36,
      "hit": false,
      "t": 195362.04533333643,
      "d": 280.7967083333351,
      "v": 125
    },
    {
      "midi": 64,
      "hit": false,
      "t": 195362.04533333643,
      "d": 280.7967083333351,
      "v": 126
    },
    {
      "midi": 67,
      "hit": false,
      "t": 195362.04533333643,
      "d": 280.7967083333351,
      "v": 126
    },
    {
      "midi": 72,
      "hit": false,
      "t": 195362.04533333643,
      "d": 280.7967083333351,
      "v": 126
    },
    {
      "midi": 36,
      "hit": false,
      "t": 195651.9000000031,
      "d": 280.7967083333351,
      "v": 125
    },
    {
      "midi": 64,
      "hit": false,
      "t": 195651.9000000031,
      "d": 280.7967083333351,
      "v": 126
    },
    {
      "midi": 67,
      "hit": false,
      "t": 195651.9000000031,
      "d": 280.7967083333351,
      "v": 126
    },
    {
      "midi": 72,
      "hit": false,
      "t": 195651.9000000031,
      "d": 280.7967083333351,
      "v": 126
    },
    {
      "midi": 69,
      "hit": false,
      "t": 195941.75466666697,
      "d": 280.7967083333351,
      "v": 125
    },
    {
      "midi": 36,
      "hit": false,
      "t": 195941.7546666698,
      "d": 280.7967083333351,
      "v": 125
    },
    {
      "midi": 64,
      "hit": false,
      "t": 195941.7546666698,
      "d": 280.7967083333351,
      "v": 126
    },
    {
      "midi": 67,
      "hit": false,
      "t": 195941.7546666698,
      "d": 280.7967083333351,
      "v": 126
    },
    {
      "midi": 72,
      "hit": false,
      "t": 195941.7546666698,
      "d": 280.7967083333351,
      "v": 126
    },
    {
      "midi": 72,
      "hit": false,
      "t": 196231.60933333365,
      "d": 280.7967083333351,
      "v": 125
    },
    {
      "midi": 76,
      "hit": false,
      "t": 196231.60933333365,
      "d": 280.7967083333351,
      "v": 125
    },
    {
      "midi": 36,
      "hit": false,
      "t": 196231.60933333647,
      "d": 280.7967083333351,
      "v": 125
    },
    {
      "midi": 64,
      "hit": false,
      "t": 196231.60933333647,
      "d": 280.7967083333351,
      "v": 126
    },
    {
      "midi": 67,
      "hit": false,
      "t": 196231.60933333647,
      "d": 280.7967083333351,
      "v": 126
    },
    {
      "midi": 72,
      "hit": false,
      "t": 196231.60933333647,
      "d": 280.7967083333351,
      "v": 126
    },
    {
      "midi": 75,
      "hit": false,
      "t": 196521.46400000033,
      "d": 1159.4186666666646,
      "v": 125
    },
    {
      "midi": 79,
      "hit": false,
      "t": 196521.46400000033,
      "d": 1159.4186666666646,
      "v": 125
    },
    {
      "midi": 39,
      "hit": false,
      "t": 196521.46400000315,
      "d": 280.7967083333351,
      "v": 125
    },
    {
      "midi": 63,
      "hit": false,
      "t": 196521.46400000315,
      "d": 280.7967083333351,
      "v": 126
    },
    {
      "midi": 67,
      "hit": false,
      "t": 196521.46400000315,
      "d": 280.7967083333351,
      "v": 126
    },
    {
      "midi": 70,
      "hit": false,
      "t": 196521.46400000315,
      "d": 280.7967083333351,
      "v": 126
    },
    {
      "midi": 39,
      "hit": false,
      "t": 196811.31866666983,
      "d": 280.7967083333351,
      "v": 125
    },
    {
      "midi": 63,
      "hit": false,
      "t": 196811.31866666983,
      "d": 280.7967083333351,
      "v": 126
    },
    {
      "midi": 67,
      "hit": false,
      "t": 196811.31866666983,
      "d": 280.7967083333351,
      "v": 126
    },
    {
      "midi": 70,
      "hit": false,
      "t": 196811.31866666983,
      "d": 280.7967083333351,
      "v": 126
    },
    {
      "midi": 39,
      "hit": false,
      "t": 197101.1733333365,
      "d": 280.7967083333351,
      "v": 125
    },
    {
      "midi": 63,
      "hit": false,
      "t": 197101.1733333365,
      "d": 280.7967083333351,
      "v": 126
    },
    {
      "midi": 67,
      "hit": false,
      "t": 197101.1733333365,
      "d": 280.7967083333351,
      "v": 126
    },
    {
      "midi": 70,
      "hit": false,
      "t": 197101.1733333365,
      "d": 280.7967083333351,
      "v": 126
    },
    {
      "midi": 39,
      "hit": false,
      "t": 197391.0280000032,
      "d": 280.7967083333351,
      "v": 125
    },
    {
      "midi": 63,
      "hit": false,
      "t": 197391.0280000032,
      "d": 280.7967083333351,
      "v": 126
    },
    {
      "midi": 67,
      "hit": false,
      "t": 197391.0280000032,
      "d": 280.7967083333351,
      "v": 126
    },
    {
      "midi": 70,
      "hit": false,
      "t": 197391.0280000032,
      "d": 280.7967083333351,
      "v": 126
    },
    {
      "midi": 72,
      "hit": false,
      "t": 197680.882666667,
      "d": 280.7967083333351,
      "v": 125
    },
    {
      "midi": 39,
      "hit": false,
      "t": 197680.88266666987,
      "d": 280.7967083333351,
      "v": 125
    },
    {
      "midi": 63,
      "hit": false,
      "t": 197680.88266666987,
      "d": 280.7967083333351,
      "v": 126
    },
    {
      "midi": 67,
      "hit": false,
      "t": 197680.88266666987,
      "d": 280.7967083333351,
      "v": 126
    },
    {
      "midi": 70,
      "hit": false,
      "t": 197680.88266666987,
      "d": 280.7967083333351,
      "v": 126
    },
    {
      "midi": 75,
      "hit": false,
      "t": 197970.73733333367,
      "d": 280.7967083333351,
      "v": 125
    },
    {
      "midi": 79,
      "hit": false,
      "t": 197970.73733333367,
      "d": 280.7967083333351,
      "v": 125
    },
    {
      "midi": 39,
      "hit": false,
      "t": 197970.73733333655,
      "d": 280.7967083333351,
      "v": 125
    },
    {
      "midi": 63,
      "hit": false,
      "t": 197970.73733333655,
      "d": 280.7967083333351,
      "v": 126
    },
    {
      "midi": 67,
      "hit": false,
      "t": 197970.73733333655,
      "d": 280.7967083333351,
      "v": 126
    },
    {
      "midi": 70,
      "hit": false,
      "t": 197970.73733333655,
      "d": 280.7967083333351,
      "v": 126
    },
    {
      "midi": 74,
      "hit": false,
      "t": 198260.59200000035,
      "d": 172.1012083333335,
      "v": 125
    },
    {
      "midi": 79,
      "hit": false,
      "t": 198260.59200000035,
      "d": 3188.4013333333423,
      "v": 125
    },
    {
      "midi": 36,
      "hit": false,
      "t": 198260.59200000323,
      "d": 280.7967083333351,
      "v": 125
    },
    {
      "midi": 64,
      "hit": false,
      "t": 198260.59200000323,
      "d": 280.7967083333351,
      "v": 126
    },
    {
      "midi": 67,
      "hit": false,
      "t": 198260.59200000323,
      "d": 280.7967083333351,
      "v": 126
    },
    {
      "midi": 72,
      "hit": false,
      "t": 198260.59200000323,
      "d": 280.7967083333351,
      "v": 126
    },
    {
      "midi": 76,
      "hit": false,
      "t": 198441.75116666703,
      "d": 2898.5466666666616,
      "v": 125
    },
    {
      "midi": 36,
      "hit": false,
      "t": 198550.44666666992,
      "d": 280.7967083333351,
      "v": 125
    },
    {
      "midi": 64,
      "hit": false,
      "t": 198550.44666666992,
      "d": 280.7967083333351,
      "v": 126
    },
    {
      "midi": 67,
      "hit": false,
      "t": 198550.44666666992,
      "d": 280.7967083333351,
      "v": 126
    },
    {
      "midi": 72,
      "hit": false,
      "t": 198550.44666666992,
      "d": 280.7967083333351,
      "v": 126
    },
    {
      "midi": 36,
      "hit": false,
      "t": 198840.3013333366,
      "d": 280.7967083333351,
      "v": 125
    },
    {
      "midi": 64,
      "hit": false,
      "t": 198840.3013333366,
      "d": 280.7967083333351,
      "v": 126
    },
    {
      "midi": 67,
      "hit": false,
      "t": 198840.3013333366,
      "d": 280.7967083333351,
      "v": 126
    },
    {
      "midi": 72,
      "hit": false,
      "t": 198840.3013333366,
      "d": 280.7967083333351,
      "v": 126
    },
    {
      "midi": 36,
      "hit": false,
      "t": 199130.15600000328,
      "d": 280.7967083333351,
      "v": 125
    },
    {
      "midi": 64,
      "hit": false,
      "t": 199130.15600000328,
      "d": 280.7967083333351,
      "v": 126
    },
    {
      "midi": 67,
      "hit": false,
      "t": 199130.15600000328,
      "d": 280.7967083333351,
      "v": 126
    },
    {
      "midi": 72,
      "hit": false,
      "t": 199130.15600000328,
      "d": 280.7967083333351,
      "v": 126
    },
    {
      "midi": 36,
      "hit": false,
      "t": 199420.01066666996,
      "d": 280.7967083333351,
      "v": 125
    },
    {
      "midi": 64,
      "hit": false,
      "t": 199420.01066666996,
      "d": 280.7967083333351,
      "v": 126
    },
    {
      "midi": 67,
      "hit": false,
      "t": 199420.01066666996,
      "d": 280.7967083333351,
      "v": 126
    },
    {
      "midi": 72,
      "hit": false,
      "t": 199420.01066666996,
      "d": 280.7967083333351,
      "v": 126
    },
    {
      "midi": 36,
      "hit": false,
      "t": 199709.86533333664,
      "d": 280.7967083333351,
      "v": 125
    },
    {
      "midi": 64,
      "hit": false,
      "t": 199709.86533333664,
      "d": 280.7967083333351,
      "v": 126
    },
    {
      "midi": 67,
      "hit": false,
      "t": 199709.86533333664,
      "d": 280.7967083333351,
      "v": 126
    },
    {
      "midi": 72,
      "hit": false,
      "t": 199709.86533333664,
      "d": 280.7967083333351,
      "v": 126
    },
    {
      "midi": 36,
      "hit": false,
      "t": 199999.72000000332,
      "d": 280.7967083333351,
      "v": 125
    },
    {
      "midi": 64,
      "hit": false,
      "t": 199999.72000000332,
      "d": 280.7967083333351,
      "v": 126
    },
    {
      "midi": 67,
      "hit": false,
      "t": 199999.72000000332,
      "d": 280.7967083333351,
      "v": 126
    },
    {
      "midi": 72,
      "hit": false,
      "t": 199999.72000000332,
      "d": 280.7967083333351,
      "v": 126
    },
    {
      "midi": 36,
      "hit": false,
      "t": 200289.57466667,
      "d": 280.7967083333351,
      "v": 125
    },
    {
      "midi": 64,
      "hit": false,
      "t": 200289.57466667,
      "d": 280.7967083333351,
      "v": 126
    },
    {
      "midi": 67,
      "hit": false,
      "t": 200289.57466667,
      "d": 280.7967083333351,
      "v": 126
    },
    {
      "midi": 72,
      "hit": false,
      "t": 200289.57466667,
      "d": 280.7967083333351,
      "v": 126
    },
    {
      "midi": 36,
      "hit": false,
      "t": 200579.42933333668,
      "d": 280.7967083333351,
      "v": 125
    },
    {
      "midi": 64,
      "hit": false,
      "t": 200579.42933333668,
      "d": 280.7967083333351,
      "v": 126
    },
    {
      "midi": 67,
      "hit": false,
      "t": 200579.42933333668,
      "d": 280.7967083333351,
      "v": 126
    },
    {
      "midi": 72,
      "hit": false,
      "t": 200579.42933333668,
      "d": 280.7967083333351,
      "v": 126
    },
    {
      "midi": 36,
      "hit": false,
      "t": 200869.28400000336,
      "d": 280.7967083333351,
      "v": 125
    },
    {
      "midi": 64,
      "hit": false,
      "t": 200869.28400000336,
      "d": 280.7967083333351,
      "v": 126
    },
    {
      "midi": 67,
      "hit": false,
      "t": 200869.28400000336,
      "d": 280.7967083333351,
      "v": 126
    },
    {
      "midi": 72,
      "hit": false,
      "t": 200869.28400000336,
      "d": 280.7967083333351,
      "v": 126
    },
    {
      "midi": 36,
      "hit": false,
      "t": 201159.13866667004,
      "d": 280.7967083333351,
      "v": 125
    },
    {
      "midi": 64,
      "hit": false,
      "t": 201159.13866667004,
      "d": 280.7967083333351,
      "v": 126
    },
    {
      "midi": 67,
      "hit": false,
      "t": 201159.13866667004,
      "d": 280.7967083333351,
      "v": 126
    },
    {
      "midi": 72,
      "hit": false,
      "t": 201159.13866667004,
      "d": 280.7967083333351,
      "v": 126
    },
    {
      "midi": 36,
      "hit": false,
      "t": 201448.99333333672,
      "d": 280.7967083333351,
      "v": 125
    },
    {
      "midi": 64,
      "hit": false,
      "t": 201448.99333333672,
      "d": 280.7967083333351,
      "v": 126
    },
    {
      "midi": 67,
      "hit": false,
      "t": 201448.99333333672,
      "d": 280.7967083333351,
      "v": 126
    },
    {
      "midi": 72,
      "hit": false,
      "t": 201448.99333333672,
      "d": 280.7967083333351,
      "v": 126
    },
    {
      "midi": 76,
      "hit": false,
      "t": 201738.84800000038,
      "d": 181.15916666667908,
      "v": 125
    },
    {
      "midi": 81,
      "hit": false,
      "t": 201738.84800000038,
      "d": 1449.2733333333454,
      "v": 125
    },
    {
      "midi": 41,
      "hit": false,
      "t": 201738.8480000034,
      "d": 280.7967083333351,
      "v": 125
    },
    {
      "midi": 65,
      "hit": false,
      "t": 201738.8480000034,
      "d": 280.7967083333351,
      "v": 126
    },
    {
      "midi": 69,
      "hit": false,
      "t": 201738.8480000034,
      "d": 280.7967083333351,
      "v": 126
    },
    {
      "midi": 72,
      "hit": false,
      "t": 201738.8480000034,
      "d": 280.7967083333351,
      "v": 126
    },
    {
      "midi": 77,
      "hit": false,
      "t": 201920.00716666706,
      "d": 1159.4186666666646,
      "v": 125
    },
    {
      "midi": 41,
      "hit": false,
      "t": 202028.70266667008,
      "d": 280.7967083333351,
      "v": 125
    },
    {
      "midi": 65,
      "hit": false,
      "t": 202028.70266667008,
      "d": 280.7967083333351,
      "v": 126
    },
    {
      "midi": 69,
      "hit": false,
      "t": 202028.70266667008,
      "d": 280.7967083333351,
      "v": 126
    },
    {
      "midi": 72,
      "hit": false,
      "t": 202028.70266667008,
      "d": 280.7967083333351,
      "v": 126
    },
    {
      "midi": 41,
      "hit": false,
      "t": 202318.55733333676,
      "d": 280.7967083333351,
      "v": 125
    },
    {
      "midi": 65,
      "hit": false,
      "t": 202318.55733333676,
      "d": 280.7967083333351,
      "v": 126
    },
    {
      "midi": 69,
      "hit": false,
      "t": 202318.55733333676,
      "d": 280.7967083333351,
      "v": 126
    },
    {
      "midi": 72,
      "hit": false,
      "t": 202318.55733333676,
      "d": 280.7967083333351,
      "v": 126
    },
    {
      "midi": 41,
      "hit": false,
      "t": 202608.41200000345,
      "d": 280.7967083333351,
      "v": 125
    },
    {
      "midi": 65,
      "hit": false,
      "t": 202608.41200000345,
      "d": 280.7967083333351,
      "v": 126
    },
    {
      "midi": 69,
      "hit": false,
      "t": 202608.41200000345,
      "d": 280.7967083333351,
      "v": 126
    },
    {
      "midi": 72,
      "hit": false,
      "t": 202608.41200000345,
      "d": 280.7967083333351,
      "v": 126
    },
    {
      "midi": 41,
      "hit": false,
      "t": 202898.26666667013,
      "d": 280.7967083333351,
      "v": 125
    },
    {
      "midi": 65,
      "hit": false,
      "t": 202898.26666667013,
      "d": 280.7967083333351,
      "v": 126
    },
    {
      "midi": 69,
      "hit": false,
      "t": 202898.26666667013,
      "d": 280.7967083333351,
      "v": 126
    },
    {
      "midi": 72,
      "hit": false,
      "t": 202898.26666667013,
      "d": 280.7967083333351,
      "v": 126
    },
    {
      "midi": 41,
      "hit": false,
      "t": 203188.1213333368,
      "d": 280.7967083333351,
      "v": 125
    },
    {
      "midi": 65,
      "hit": false,
      "t": 203188.1213333368,
      "d": 280.7967083333351,
      "v": 126
    },
    {
      "midi": 69,
      "hit": false,
      "t": 203188.1213333368,
      "d": 280.7967083333351,
      "v": 126
    },
    {
      "midi": 72,
      "hit": false,
      "t": 203188.1213333368,
      "d": 280.7967083333351,
      "v": 126
    },
    {
      "midi": 72,
      "hit": false,
      "t": 203477.9760000004,
      "d": 1449.2733333333163,
      "v": 125
    },
    {
      "midi": 77,
      "hit": false,
      "t": 203477.9760000004,
      "d": 1739.127999999997,
      "v": 125
    },
    {
      "midi": 38,
      "hit": false,
      "t": 203477.9760000035,
      "d": 280.7967083333351,
      "v": 125
    },
    {
      "midi": 65,
      "hit": false,
      "t": 203477.9760000035,
      "d": 280.7967083333351,
      "v": 126
    },
    {
      "midi": 69,
      "hit": false,
      "t": 203477.9760000035,
      "d": 280.7967083333351,
      "v": 126
    },
    {
      "midi": 74,
      "hit": false,
      "t": 203477.9760000035,
      "d": 280.7967083333351,
      "v": 126
    },
    {
      "midi": 38,
      "hit": false,
      "t": 203767.83066667017,
      "d": 280.7967083333351,
      "v": 125
    },
    {
      "midi": 65,
      "hit": false,
      "t": 203767.83066667017,
      "d": 280.7967083333351,
      "v": 126
    },
    {
      "midi": 69,
      "hit": false,
      "t": 203767.83066667017,
      "d": 280.7967083333351,
      "v": 126
    },
    {
      "midi": 74,
      "hit": false,
      "t": 203767.83066667017,
      "d": 280.7967083333351,
      "v": 126
    },
    {
      "midi": 38,
      "hit": false,
      "t": 204057.68533333685,
      "d": 280.7967083333351,
      "v": 125
    },
    {
      "midi": 65,
      "hit": false,
      "t": 204057.68533333685,
      "d": 280.7967083333351,
      "v": 126
    },
    {
      "midi": 69,
      "hit": false,
      "t": 204057.68533333685,
      "d": 280.7967083333351,
      "v": 126
    },
    {
      "midi": 74,
      "hit": false,
      "t": 204057.68533333685,
      "d": 280.7967083333351,
      "v": 126
    },
    {
      "midi": 38,
      "hit": false,
      "t": 204347.54000000353,
      "d": 280.7967083333351,
      "v": 125
    },
    {
      "midi": 65,
      "hit": false,
      "t": 204347.54000000353,
      "d": 280.7967083333351,
      "v": 126
    },
    {
      "midi": 69,
      "hit": false,
      "t": 204347.54000000353,
      "d": 280.7967083333351,
      "v": 126
    },
    {
      "midi": 74,
      "hit": false,
      "t": 204347.54000000353,
      "d": 280.7967083333351,
      "v": 126
    },
    {
      "midi": 38,
      "hit": false,
      "t": 204637.3946666702,
      "d": 280.7967083333351,
      "v": 125
    },
    {
      "midi": 65,
      "hit": false,
      "t": 204637.3946666702,
      "d": 280.7967083333351,
      "v": 126
    },
    {
      "midi": 69,
      "hit": false,
      "t": 204637.3946666702,
      "d": 280.7967083333351,
      "v": 126
    },
    {
      "midi": 74,
      "hit": false,
      "t": 204637.3946666702,
      "d": 280.7967083333351,
      "v": 126
    },
    {
      "midi": 38,
      "hit": false,
      "t": 204927.2493333369,
      "d": 280.7967083333351,
      "v": 125
    },
    {
      "midi": 65,
      "hit": false,
      "t": 204927.2493333369,
      "d": 280.7967083333351,
      "v": 126
    },
    {
      "midi": 69,
      "hit": false,
      "t": 204927.2493333369,
      "d": 280.7967083333351,
      "v": 126
    },
    {
      "midi": 74,
      "hit": false,
      "t": 204927.2493333369,
      "d": 280.7967083333351,
      "v": 126
    },
    {
      "midi": 34,
      "hit": false,
      "t": 205217.10400000357,
      "d": 280.7967083333351,
      "v": 125
    },
    {
      "midi": 65,
      "hit": false,
      "t": 205217.10400000357,
      "d": 280.7967083333351,
      "v": 126
    },
    {
      "midi": 70,
      "hit": false,
      "t": 205217.10400000357,
      "d": 280.7967083333351,
      "v": 126
    },
    {
      "midi": 73,
      "hit": false,
      "t": 205217.10400000357,
      "d": 280.7967083333351,
      "v": 126
    },
    {
      "midi": 34,
      "hit": false,
      "t": 205506.95866667025,
      "d": 280.7967083333351,
      "v": 125
    },
    {
      "midi": 65,
      "hit": false,
      "t": 205506.95866667025,
      "d": 280.7967083333351,
      "v": 126
    },
    {
      "midi": 70,
      "hit": false,
      "t": 205506.95866667025,
      "d": 280.7967083333351,
      "v": 126
    },
    {
      "midi": 73,
      "hit": false,
      "t": 205506.95866667025,
      "d": 280.7967083333351,
      "v": 126
    },
    {
      "midi": 34,
      "hit": false,
      "t": 205796.81333333693,
      "d": 280.7967083333351,
      "v": 125
    },
    {
      "midi": 65,
      "hit": false,
      "t": 205796.81333333693,
      "d": 280.7967083333351,
      "v": 126
    },
    {
      "midi": 70,
      "hit": false,
      "t": 205796.81333333693,
      "d": 280.7967083333351,
      "v": 126
    },
    {
      "midi": 73,
      "hit": false,
      "t": 205796.81333333693,
      "d": 280.7967083333351,
      "v": 126
    },
    {
      "midi": 34,
      "hit": false,
      "t": 206086.6680000036,
      "d": 280.7967083333351,
      "v": 125
    },
    {
      "midi": 65,
      "hit": false,
      "t": 206086.6680000036,
      "d": 280.7967083333351,
      "v": 126
    },
    {
      "midi": 70,
      "hit": false,
      "t": 206086.6680000036,
      "d": 280.7967083333351,
      "v": 126
    },
    {
      "midi": 73,
      "hit": false,
      "t": 206086.6680000036,
      "d": 280.7967083333351,
      "v": 126
    },
    {
      "midi": 70,
      "hit": false,
      "t": 206376.52266666706,
      "d": 280.7967083333351,
      "v": 125
    },
    {
      "midi": 34,
      "hit": false,
      "t": 206376.5226666703,
      "d": 280.7967083333351,
      "v": 125
    },
    {
      "midi": 65,
      "hit": false,
      "t": 206376.5226666703,
      "d": 280.7967083333351,
      "v": 126
    },
    {
      "midi": 70,
      "hit": false,
      "t": 206376.5226666703,
      "d": 280.7967083333351,
      "v": 126
    },
    {
      "midi": 73,
      "hit": false,
      "t": 206376.5226666703,
      "d": 280.7967083333351,
      "v": 126
    },
    {
      "midi": 72,
      "hit": false,
      "t": 206666.37733333374,
      "d": 280.7967083333351,
      "v": 125
    },
    {
      "midi": 77,
      "hit": false,
      "t": 206666.37733333374,
      "d": 280.7967083333351,
      "v": 125
    },
    {
      "midi": 34,
      "hit": false,
      "t": 206666.37733333698,
      "d": 280.7967083333351,
      "v": 125
    },
    {
      "midi": 65,
      "hit": false,
      "t": 206666.37733333698,
      "d": 280.7967083333351,
      "v": 126
    },
    {
      "midi": 70,
      "hit": false,
      "t": 206666.37733333698,
      "d": 280.7967083333351,
      "v": 126
    },
    {
      "midi": 73,
      "hit": false,
      "t": 206666.37733333698,
      "d": 280.7967083333351,
      "v": 126
    },
    {
      "midi": 72,
      "hit": false,
      "t": 206956.23200000043,
      "d": 181.15916666667908,
      "v": 125
    },
    {
      "midi": 77,
      "hit": false,
      "t": 206956.23200000043,
      "d": 579.7093333333614,
      "v": 125
    },
    {
      "midi": 36,
      "hit": false,
      "t": 206956.23200000366,
      "d": 280.7967083333351,
      "v": 125
    },
    {
      "midi": 64,
      "hit": false,
      "t": 206956.23200000366,
      "d": 280.7967083333351,
      "v": 126
    },
    {
      "midi": 67,
      "hit": false,
      "t": 206956.23200000366,
      "d": 280.7967083333351,
      "v": 126
    },
    {
      "midi": 72,
      "hit": false,
      "t": 206956.23200000366,
      "d": 280.7967083333351,
      "v": 126
    },
    {
      "midi": 73,
      "hit": false,
      "t": 207137.3911666671,
      "d": 280.7967083333351,
      "v": 125
    },
    {
      "midi": 36,
      "hit": false,
      "t": 207246.08666667034,
      "d": 280.7967083333351,
      "v": 125
    },
    {
      "midi": 64,
      "hit": false,
      "t": 207246.08666667034,
      "d": 280.7967083333351,
      "v": 126
    },
    {
      "midi": 67,
      "hit": false,
      "t": 207246.08666667034,
      "d": 280.7967083333351,
      "v": 126
    },
    {
      "midi": 72,
      "hit": false,
      "t": 207246.08666667034,
      "d": 280.7967083333351,
      "v": 126
    },
    {
      "midi": 72,
      "hit": false,
      "t": 207535.9413333338,
      "d": 579.7093333333323,
      "v": 125
    },
    {
      "midi": 77,
      "hit": false,
      "t": 207535.9413333338,
      "d": 579.7093333333323,
      "v": 125
    },
    {
      "midi": 36,
      "hit": false,
      "t": 207535.94133333702,
      "d": 280.7967083333351,
      "v": 125
    },
    {
      "midi": 64,
      "hit": false,
      "t": 207535.94133333702,
      "d": 280.7967083333351,
      "v": 126
    },
    {
      "midi": 67,
      "hit": false,
      "t": 207535.94133333702,
      "d": 280.7967083333351,
      "v": 126
    },
    {
      "midi": 72,
      "hit": false,
      "t": 207535.94133333702,
      "d": 280.7967083333351,
      "v": 126
    },
    {
      "midi": 36,
      "hit": false,
      "t": 207825.7960000037,
      "d": 280.7967083333351,
      "v": 125
    },
    {
      "midi": 64,
      "hit": false,
      "t": 207825.7960000037,
      "d": 280.7967083333351,
      "v": 126
    },
    {
      "midi": 67,
      "hit": false,
      "t": 207825.7960000037,
      "d": 280.7967083333351,
      "v": 126
    },
    {
      "midi": 72,
      "hit": false,
      "t": 207825.7960000037,
      "d": 280.7967083333351,
      "v": 126
    },
    {
      "midi": 70,
      "hit": false,
      "t": 208115.65066666712,
      "d": 579.7093333333323,
      "v": 125
    },
    {
      "midi": 36,
      "hit": false,
      "t": 208115.65066667038,
      "d": 280.7967083333351,
      "v": 125
    },
    {
      "midi": 64,
      "hit": false,
      "t": 208115.65066667038,
      "d": 280.7967083333351,
      "v": 126
    },
    {
      "midi": 67,
      "hit": false,
      "t": 208115.65066667038,
      "d": 280.7967083333351,
      "v": 126
    },
    {
      "midi": 72,
      "hit": false,
      "t": 208115.65066667038,
      "d": 280.7967083333351,
      "v": 126
    },
    {
      "midi": 36,
      "hit": false,
      "t": 208405.50533333706,
      "d": 280.7967083333351,
      "v": 125
    },
    {
      "midi": 64,
      "hit": false,
      "t": 208405.50533333706,
      "d": 280.7967083333351,
      "v": 126
    },
    {
      "midi": 67,
      "hit": false,
      "t": 208405.50533333706,
      "d": 280.7967083333351,
      "v": 126
    },
    {
      "midi": 72,
      "hit": false,
      "t": 208405.50533333706,
      "d": 280.7967083333351,
      "v": 126
    },
    {
      "midi": 76,
      "hit": false,
      "t": 208695.36000000045,
      "d": 181.15916666667908,
      "v": 126
    },
    {
      "midi": 81,
      "hit": false,
      "t": 208695.36000000045,
      "d": 1449.2733333333454,
      "v": 126
    },
    {
      "midi": 41,
      "hit": false,
      "t": 208695.36000000374,
      "d": 280.7967083333351,
      "v": 125
    },
    {
      "midi": 65,
      "hit": false,
      "t": 208695.36000000374,
      "d": 280.7967083333351,
      "v": 126
    },
    {
      "midi": 69,
      "hit": false,
      "t": 208695.36000000374,
      "d": 280.7967083333351,
      "v": 126
    },
    {
      "midi": 72,
      "hit": false,
      "t": 208695.36000000374,
      "d": 280.7967083333351,
      "v": 126
    },
    {
      "midi": 77,
      "hit": false,
      "t": 208876.51916666713,
      "d": 1159.4186666666646,
      "v": 126
    },
    {
      "midi": 41,
      "hit": false,
      "t": 208985.21466667042,
      "d": 280.7967083333351,
      "v": 125
    },
    {
      "midi": 65,
      "hit": false,
      "t": 208985.21466667042,
      "d": 280.7967083333351,
      "v": 126
    },
    {
      "midi": 69,
      "hit": false,
      "t": 208985.21466667042,
      "d": 280.7967083333351,
      "v": 126
    },
    {
      "midi": 72,
      "hit": false,
      "t": 208985.21466667042,
      "d": 280.7967083333351,
      "v": 126
    },
    {
      "midi": 41,
      "hit": false,
      "t": 209275.0693333371,
      "d": 280.7967083333351,
      "v": 125
    },
    {
      "midi": 65,
      "hit": false,
      "t": 209275.0693333371,
      "d": 280.7967083333351,
      "v": 126
    },
    {
      "midi": 69,
      "hit": false,
      "t": 209275.0693333371,
      "d": 280.7967083333351,
      "v": 126
    },
    {
      "midi": 72,
      "hit": false,
      "t": 209275.0693333371,
      "d": 280.7967083333351,
      "v": 126
    },
    {
      "midi": 41,
      "hit": false,
      "t": 209564.92400000378,
      "d": 280.7967083333351,
      "v": 125
    },
    {
      "midi": 65,
      "hit": false,
      "t": 209564.92400000378,
      "d": 280.7967083333351,
      "v": 126
    },
    {
      "midi": 69,
      "hit": false,
      "t": 209564.92400000378,
      "d": 280.7967083333351,
      "v": 126
    },
    {
      "midi": 72,
      "hit": false,
      "t": 209564.92400000378,
      "d": 280.7967083333351,
      "v": 126
    },
    {
      "midi": 41,
      "hit": false,
      "t": 209854.77866667046,
      "d": 280.7967083333351,
      "v": 125
    },
    {
      "midi": 65,
      "hit": false,
      "t": 209854.77866667046,
      "d": 280.7967083333351,
      "v": 126
    },
    {
      "midi": 69,
      "hit": false,
      "t": 209854.77866667046,
      "d": 280.7967083333351,
      "v": 126
    },
    {
      "midi": 72,
      "hit": false,
      "t": 209854.77866667046,
      "d": 280.7967083333351,
      "v": 126
    },
    {
      "midi": 41,
      "hit": false,
      "t": 210144.63333333714,
      "d": 280.7967083333351,
      "v": 125
    },
    {
      "midi": 65,
      "hit": false,
      "t": 210144.63333333714,
      "d": 280.7967083333351,
      "v": 126
    },
    {
      "midi": 69,
      "hit": false,
      "t": 210144.63333333714,
      "d": 280.7967083333351,
      "v": 126
    },
    {
      "midi": 72,
      "hit": false,
      "t": 210144.63333333714,
      "d": 280.7967083333351,
      "v": 126
    },
    {
      "midi": 72,
      "hit": false,
      "t": 210434.48800000048,
      "d": 1449.2733333333163,
      "v": 126
    },
    {
      "midi": 77,
      "hit": false,
      "t": 210434.48800000048,
      "d": 1739.127999999997,
      "v": 126
    },
    {
      "midi": 38,
      "hit": false,
      "t": 210434.48800000382,
      "d": 280.7967083333351,
      "v": 125
    },
    {
      "midi": 65,
      "hit": false,
      "t": 210434.48800000382,
      "d": 280.7967083333351,
      "v": 126
    },
    {
      "midi": 69,
      "hit": false,
      "t": 210434.48800000382,
      "d": 280.7967083333351,
      "v": 126
    },
    {
      "midi": 74,
      "hit": false,
      "t": 210434.48800000382,
      "d": 280.7967083333351,
      "v": 126
    },
    {
      "midi": 38,
      "hit": false,
      "t": 210724.3426666705,
      "d": 280.7967083333351,
      "v": 125
    },
    {
      "midi": 65,
      "hit": false,
      "t": 210724.3426666705,
      "d": 280.7967083333351,
      "v": 126
    },
    {
      "midi": 69,
      "hit": false,
      "t": 210724.3426666705,
      "d": 280.7967083333351,
      "v": 126
    },
    {
      "midi": 74,
      "hit": false,
      "t": 210724.3426666705,
      "d": 280.7967083333351,
      "v": 126
    },
    {
      "midi": 38,
      "hit": false,
      "t": 211014.1973333372,
      "d": 280.7967083333351,
      "v": 125
    },
    {
      "midi": 65,
      "hit": false,
      "t": 211014.1973333372,
      "d": 280.7967083333351,
      "v": 126
    },
    {
      "midi": 69,
      "hit": false,
      "t": 211014.1973333372,
      "d": 280.7967083333351,
      "v": 126
    },
    {
      "midi": 74,
      "hit": false,
      "t": 211014.1973333372,
      "d": 280.7967083333351,
      "v": 126
    },
    {
      "midi": 38,
      "hit": false,
      "t": 211304.05200000387,
      "d": 280.7967083333351,
      "v": 125
    },
    {
      "midi": 65,
      "hit": false,
      "t": 211304.05200000387,
      "d": 280.7967083333351,
      "v": 126
    },
    {
      "midi": 69,
      "hit": false,
      "t": 211304.05200000387,
      "d": 280.7967083333351,
      "v": 126
    },
    {
      "midi": 74,
      "hit": false,
      "t": 211304.05200000387,
      "d": 280.7967083333351,
      "v": 126
    },
    {
      "midi": 38,
      "hit": false,
      "t": 211593.90666667055,
      "d": 280.7967083333351,
      "v": 125
    },
    {
      "midi": 65,
      "hit": false,
      "t": 211593.90666667055,
      "d": 280.7967083333351,
      "v": 126
    },
    {
      "midi": 69,
      "hit": false,
      "t": 211593.90666667055,
      "d": 280.7967083333351,
      "v": 126
    },
    {
      "midi": 74,
      "hit": false,
      "t": 211593.90666667055,
      "d": 280.7967083333351,
      "v": 126
    },
    {
      "midi": 38,
      "hit": false,
      "t": 211883.76133333723,
      "d": 280.7967083333351,
      "v": 125
    },
    {
      "midi": 65,
      "hit": false,
      "t": 211883.76133333723,
      "d": 280.7967083333351,
      "v": 126
    },
    {
      "midi": 69,
      "hit": false,
      "t": 211883.76133333723,
      "d": 280.7967083333351,
      "v": 126
    },
    {
      "midi": 74,
      "hit": false,
      "t": 211883.76133333723,
      "d": 280.7967083333351,
      "v": 126
    },
    {
      "midi": 34,
      "hit": false,
      "t": 212173.6160000039,
      "d": 280.7967083333351,
      "v": 125
    },
    {
      "midi": 65,
      "hit": false,
      "t": 212173.6160000039,
      "d": 280.7967083333351,
      "v": 126
    },
    {
      "midi": 70,
      "hit": false,
      "t": 212173.6160000039,
      "d": 280.7967083333351,
      "v": 126
    },
    {
      "midi": 73,
      "hit": false,
      "t": 212173.6160000039,
      "d": 280.7967083333351,
      "v": 126
    },
    {
      "midi": 34,
      "hit": false,
      "t": 212463.4706666706,
      "d": 280.7967083333351,
      "v": 125
    },
    {
      "midi": 65,
      "hit": false,
      "t": 212463.4706666706,
      "d": 280.7967083333351,
      "v": 126
    },
    {
      "midi": 70,
      "hit": false,
      "t": 212463.4706666706,
      "d": 280.7967083333351,
      "v": 126
    },
    {
      "midi": 73,
      "hit": false,
      "t": 212463.4706666706,
      "d": 280.7967083333351,
      "v": 126
    },
    {
      "midi": 34,
      "hit": false,
      "t": 212753.32533333727,
      "d": 280.7967083333351,
      "v": 125
    },
    {
      "midi": 65,
      "hit": false,
      "t": 212753.32533333727,
      "d": 280.7967083333351,
      "v": 126
    },
    {
      "midi": 70,
      "hit": false,
      "t": 212753.32533333727,
      "d": 280.7967083333351,
      "v": 126
    },
    {
      "midi": 73,
      "hit": false,
      "t": 212753.32533333727,
      "d": 280.7967083333351,
      "v": 126
    },
    {
      "midi": 34,
      "hit": false,
      "t": 213043.18000000395,
      "d": 280.7967083333351,
      "v": 125
    },
    {
      "midi": 65,
      "hit": false,
      "t": 213043.18000000395,
      "d": 280.7967083333351,
      "v": 126
    },
    {
      "midi": 70,
      "hit": false,
      "t": 213043.18000000395,
      "d": 280.7967083333351,
      "v": 126
    },
    {
      "midi": 73,
      "hit": false,
      "t": 213043.18000000395,
      "d": 280.7967083333351,
      "v": 126
    },
    {
      "midi": 70,
      "hit": false,
      "t": 213333.03466666714,
      "d": 280.7967083333351,
      "v": 126
    },
    {
      "midi": 34,
      "hit": false,
      "t": 213333.03466667063,
      "d": 280.7967083333351,
      "v": 125
    },
    {
      "midi": 65,
      "hit": false,
      "t": 213333.03466667063,
      "d": 280.7967083333351,
      "v": 126
    },
    {
      "midi": 70,
      "hit": false,
      "t": 213333.03466667063,
      "d": 280.7967083333351,
      "v": 126
    },
    {
      "midi": 73,
      "hit": false,
      "t": 213333.03466667063,
      "d": 280.7967083333351,
      "v": 126
    },
    {
      "midi": 72,
      "hit": false,
      "t": 213622.88933333382,
      "d": 280.7967083333351,
      "v": 126
    },
    {
      "midi": 77,
      "hit": false,
      "t": 213622.88933333382,
      "d": 280.7967083333351,
      "v": 126
    },
    {
      "midi": 34,
      "hit": false,
      "t": 213622.8893333373,
      "d": 280.7967083333351,
      "v": 125
    },
    {
      "midi": 65,
      "hit": false,
      "t": 213622.8893333373,
      "d": 280.7967083333351,
      "v": 126
    },
    {
      "midi": 70,
      "hit": false,
      "t": 213622.8893333373,
      "d": 280.7967083333351,
      "v": 126
    },
    {
      "midi": 73,
      "hit": false,
      "t": 213622.8893333373,
      "d": 280.7967083333351,
      "v": 126
    },
    {
      "midi": 72,
      "hit": false,
      "t": 213912.7440000005,
      "d": 181.15916666667908,
      "v": 126
    },
    {
      "midi": 77,
      "hit": false,
      "t": 213912.7440000005,
      "d": 579.7093333333614,
      "v": 126
    },
    {
      "midi": 36,
      "hit": false,
      "t": 213912.744000004,
      "d": 280.7967083333351,
      "v": 125
    },
    {
      "midi": 64,
      "hit": false,
      "t": 213912.744000004,
      "d": 280.7967083333351,
      "v": 126
    },
    {
      "midi": 67,
      "hit": false,
      "t": 213912.744000004,
      "d": 280.7967083333351,
      "v": 126
    },
    {
      "midi": 72,
      "hit": false,
      "t": 213912.744000004,
      "d": 280.7967083333351,
      "v": 126
    },
    {
      "midi": 73,
      "hit": false,
      "t": 214093.90316666718,
      "d": 280.7967083333351,
      "v": 126
    },
    {
      "midi": 36,
      "hit": false,
      "t": 214202.59866667067,
      "d": 280.7967083333351,
      "v": 125
    },
    {
      "midi": 64,
      "hit": false,
      "t": 214202.59866667067,
      "d": 280.7967083333351,
      "v": 126
    },
    {
      "midi": 67,
      "hit": false,
      "t": 214202.59866667067,
      "d": 280.7967083333351,
      "v": 126
    },
    {
      "midi": 72,
      "hit": false,
      "t": 214202.59866667067,
      "d": 280.7967083333351,
      "v": 126
    },
    {
      "midi": 72,
      "hit": false,
      "t": 214492.45333333386,
      "d": 579.7093333333323,
      "v": 126
    },
    {
      "midi": 77,
      "hit": false,
      "t": 214492.45333333386,
      "d": 579.7093333333323,
      "v": 126
    },
    {
      "midi": 36,
      "hit": false,
      "t": 214492.45333333735,
      "d": 280.7967083333351,
      "v": 125
    },
    {
      "midi": 64,
      "hit": false,
      "t": 214492.45333333735,
      "d": 280.7967083333351,
      "v": 126
    },
    {
      "midi": 67,
      "hit": false,
      "t": 214492.45333333735,
      "d": 280.7967083333351,
      "v": 126
    },
    {
      "midi": 72,
      "hit": false,
      "t": 214492.45333333735,
      "d": 280.7967083333351,
      "v": 126
    },
    {
      "midi": 36,
      "hit": false,
      "t": 214782.30800000404,
      "d": 280.7967083333351,
      "v": 125
    },
    {
      "midi": 64,
      "hit": false,
      "t": 214782.30800000404,
      "d": 280.7967083333351,
      "v": 126
    },
    {
      "midi": 67,
      "hit": false,
      "t": 214782.30800000404,
      "d": 280.7967083333351,
      "v": 126
    },
    {
      "midi": 72,
      "hit": false,
      "t": 214782.30800000404,
      "d": 280.7967083333351,
      "v": 126
    },
    {
      "midi": 70,
      "hit": false,
      "t": 215072.1626666672,
      "d": 579.7093333333323,
      "v": 126
    },
    {
      "midi": 36,
      "hit": false,
      "t": 215072.16266667072,
      "d": 280.7967083333351,
      "v": 125
    },
    {
      "midi": 64,
      "hit": false,
      "t": 215072.16266667072,
      "d": 280.7967083333351,
      "v": 126
    },
    {
      "midi": 67,
      "hit": false,
      "t": 215072.16266667072,
      "d": 280.7967083333351,
      "v": 126
    },
    {
      "midi": 72,
      "hit": false,
      "t": 215072.16266667072,
      "d": 280.7967083333351,
      "v": 126
    },
    {
      "midi": 36,
      "hit": false,
      "t": 215362.0173333374,
      "d": 280.7967083333351,
      "v": 125
    },
    {
      "midi": 64,
      "hit": false,
      "t": 215362.0173333374,
      "d": 280.7967083333351,
      "v": 126
    },
    {
      "midi": 67,
      "hit": false,
      "t": 215362.0173333374,
      "d": 280.7967083333351,
      "v": 126
    },
    {
      "midi": 72,
      "hit": false,
      "t": 215362.0173333374,
      "d": 280.7967083333351,
      "v": 126
    },
    {
      "midi": 72,
      "hit": false,
      "t": 215651.87200000053,
      "d": 869.564000000013,
      "v": 126
    },
    {
      "midi": 77,
      "hit": false,
      "t": 215651.87200000053,
      "d": 869.564000000013,
      "v": 126
    },
    {
      "midi": 41,
      "hit": false,
      "t": 215651.87200000408,
      "d": 280.7967083333351,
      "v": 125
    },
    {
      "midi": 65,
      "hit": false,
      "t": 215651.87200000408,
      "d": 280.7967083333351,
      "v": 126
    },
    {
      "midi": 69,
      "hit": false,
      "t": 215651.87200000408,
      "d": 280.7967083333351,
      "v": 126
    },
    {
      "midi": 72,
      "hit": false,
      "t": 215651.87200000408,
      "d": 280.7967083333351,
      "v": 126
    },
    {
      "midi": 41,
      "hit": false,
      "t": 215941.72666667076,
      "d": 280.7967083333351,
      "v": 125
    },
    {
      "midi": 65,
      "hit": false,
      "t": 215941.72666667076,
      "d": 280.7967083333351,
      "v": 126
    },
    {
      "midi": 69,
      "hit": false,
      "t": 215941.72666667076,
      "d": 280.7967083333351,
      "v": 126
    },
    {
      "midi": 72,
      "hit": false,
      "t": 215941.72666667076,
      "d": 280.7967083333351,
      "v": 126
    },
    {
      "midi": 41,
      "hit": false,
      "t": 216231.58133333744,
      "d": 280.7967083333351,
      "v": 125
    },
    {
      "midi": 65,
      "hit": false,
      "t": 216231.58133333744,
      "d": 280.7967083333351,
      "v": 126
    },
    {
      "midi": 69,
      "hit": false,
      "t": 216231.58133333744,
      "d": 280.7967083333351,
      "v": 126
    },
    {
      "midi": 72,
      "hit": false,
      "t": 216231.58133333744,
      "d": 280.7967083333351,
      "v": 126
    },
    {
      "midi": 69,
      "hit": false,
      "t": 216521.43600000054,
      "d": 208.33304166665766,
      "v": 126
    },
    {
      "midi": 77,
      "hit": false,
      "t": 216521.43600000054,
      "d": 208.33304166665766,
      "v": 126
    },
    {
      "midi": 41,
      "hit": false,
      "t": 216521.43600000412,
      "d": 280.7967083333351,
      "v": 125
    },
    {
      "midi": 65,
      "hit": false,
      "t": 216521.43600000412,
      "d": 280.7967083333351,
      "v": 126
    },
    {
      "midi": 69,
      "hit": false,
      "t": 216521.43600000412,
      "d": 280.7967083333351,
      "v": 126
    },
    {
      "midi": 72,
      "hit": false,
      "t": 216521.43600000412,
      "d": 280.7967083333351,
      "v": 126
    },
    {
      "midi": 72,
      "hit": false,
      "t": 216738.82700000054,
      "d": 208.33304166665766,
      "v": 126
    },
    {
      "midi": 77,
      "hit": false,
      "t": 216738.82700000054,
      "d": 208.33304166665766,
      "v": 126
    },
    {
      "midi": 41,
      "hit": false,
      "t": 216811.2906666708,
      "d": 280.7967083333351,
      "v": 125
    },
    {
      "midi": 65,
      "hit": false,
      "t": 216811.2906666708,
      "d": 280.7967083333351,
      "v": 126
    },
    {
      "midi": 69,
      "hit": false,
      "t": 216811.2906666708,
      "d": 280.7967083333351,
      "v": 126
    },
    {
      "midi": 72,
      "hit": false,
      "t": 216811.2906666708,
      "d": 280.7967083333351,
      "v": 126
    },
    {
      "midi": 72,
      "hit": false,
      "t": 216956.21800000055,
      "d": 208.33304166668677,
      "v": 126
    },
    {
      "midi": 69,
      "hit": false,
      "t": 216956.21800000055,
      "d": 217.39100000003236,
      "v": 126
    },
    {
      "midi": 41,
      "hit": false,
      "t": 217101.14533333748,
      "d": 280.7967083333351,
      "v": 125
    },
    {
      "midi": 65,
      "hit": false,
      "t": 217101.14533333748,
      "d": 280.7967083333351,
      "v": 126
    },
    {
      "midi": 69,
      "hit": false,
      "t": 217101.14533333748,
      "d": 280.7967083333351,
      "v": 126
    },
    {
      "midi": 72,
      "hit": false,
      "t": 217101.14533333748,
      "d": 280.7967083333351,
      "v": 126
    },
    {
      "midi": 65,
      "hit": false,
      "t": 217173.60900000058,
      "d": 208.33304166665766,
      "v": 126
    },
    {
      "midi": 72,
      "hit": false,
      "t": 217173.60900000058,
      "d": 208.33304166665766,
      "v": 126
    },
    {
      "midi": 62,
      "hit": false,
      "t": 217391.00000000058,
      "d": 652.1730000000098,
      "v": 126
    },
    {
      "midi": 65,
      "hit": false,
      "t": 217391.00000000058,
      "d": 652.1730000000098,
      "v": 126
    },
    {
      "midi": 38,
      "hit": false,
      "t": 217391.00000000416,
      "d": 280.7967083333351,
      "v": 125
    },
    {
      "midi": 65,
      "hit": false,
      "t": 217391.00000000416,
      "d": 280.7967083333351,
      "v": 126
    },
    {
      "midi": 69,
      "hit": false,
      "t": 217391.00000000416,
      "d": 280.7967083333351,
      "v": 126
    },
    {
      "midi": 74,
      "hit": false,
      "t": 217391.00000000416,
      "d": 280.7967083333351,
      "v": 126
    },
    {
      "midi": 38,
      "hit": false,
      "t": 217680.85466667084,
      "d": 280.7967083333351,
      "v": 125
    },
    {
      "midi": 65,
      "hit": false,
      "t": 217680.85466667084,
      "d": 280.7967083333351,
      "v": 126
    },
    {
      "midi": 69,
      "hit": false,
      "t": 217680.85466667084,
      "d": 280.7967083333351,
      "v": 126
    },
    {
      "midi": 74,
      "hit": false,
      "t": 217680.85466667084,
      "d": 280.7967083333351,
      "v": 126
    },
    {
      "midi": 38,
      "hit": false,
      "t": 217970.70933333752,
      "d": 280.7967083333351,
      "v": 125
    },
    {
      "midi": 65,
      "hit": false,
      "t": 217970.70933333752,
      "d": 280.7967083333351,
      "v": 126
    },
    {
      "midi": 69,
      "hit": false,
      "t": 217970.70933333752,
      "d": 280.7967083333351,
      "v": 126
    },
    {
      "midi": 74,
      "hit": false,
      "t": 217970.70933333752,
      "d": 280.7967083333351,
      "v": 126
    },
    {
      "midi": 38,
      "hit": false,
      "t": 218260.5640000042,
      "d": 280.7967083333351,
      "v": 125
    },
    {
      "midi": 65,
      "hit": false,
      "t": 218260.5640000042,
      "d": 280.7967083333351,
      "v": 126
    },
    {
      "midi": 69,
      "hit": false,
      "t": 218260.5640000042,
      "d": 280.7967083333351,
      "v": 126
    },
    {
      "midi": 74,
      "hit": false,
      "t": 218260.5640000042,
      "d": 280.7967083333351,
      "v": 126
    },
    {
      "midi": 38,
      "hit": false,
      "t": 218550.41866667088,
      "d": 280.7967083333351,
      "v": 125
    },
    {
      "midi": 65,
      "hit": false,
      "t": 218550.41866667088,
      "d": 280.7967083333351,
      "v": 126
    },
    {
      "midi": 69,
      "hit": false,
      "t": 218550.41866667088,
      "d": 280.7967083333351,
      "v": 126
    },
    {
      "midi": 74,
      "hit": false,
      "t": 218550.41866667088,
      "d": 280.7967083333351,
      "v": 126
    },
    {
      "midi": 38,
      "hit": false,
      "t": 218840.27333333757,
      "d": 280.7967083333351,
      "v": 125
    },
    {
      "midi": 65,
      "hit": false,
      "t": 218840.27333333757,
      "d": 280.7967083333351,
      "v": 126
    },
    {
      "midi": 69,
      "hit": false,
      "t": 218840.27333333757,
      "d": 280.7967083333351,
      "v": 126
    },
    {
      "midi": 74,
      "hit": false,
      "t": 218840.27333333757,
      "d": 280.7967083333351,
      "v": 126
    },
    {
      "midi": 34,
      "hit": false,
      "t": 219130.12800000425,
      "d": 280.7967083333351,
      "v": 125
    },
    {
      "midi": 65,
      "hit": false,
      "t": 219130.12800000425,
      "d": 280.7967083333351,
      "v": 126
    },
    {
      "midi": 70,
      "hit": false,
      "t": 219130.12800000425,
      "d": 280.7967083333351,
      "v": 126
    },
    {
      "midi": 73,
      "hit": false,
      "t": 219130.12800000425,
      "d": 280.7967083333351,
      "v": 126
    },
    {
      "midi": 34,
      "hit": false,
      "t": 219419.98266667093,
      "d": 280.7967083333351,
      "v": 125
    },
    {
      "midi": 65,
      "hit": false,
      "t": 219419.98266667093,
      "d": 280.7967083333351,
      "v": 126
    },
    {
      "midi": 70,
      "hit": false,
      "t": 219419.98266667093,
      "d": 280.7967083333351,
      "v": 126
    },
    {
      "midi": 73,
      "hit": false,
      "t": 219419.98266667093,
      "d": 280.7967083333351,
      "v": 126
    },
    {
      "midi": 34,
      "hit": false,
      "t": 219709.8373333376,
      "d": 280.7967083333351,
      "v": 125
    },
    {
      "midi": 65,
      "hit": false,
      "t": 219709.8373333376,
      "d": 280.7967083333351,
      "v": 126
    },
    {
      "midi": 70,
      "hit": false,
      "t": 219709.8373333376,
      "d": 280.7967083333351,
      "v": 126
    },
    {
      "midi": 73,
      "hit": false,
      "t": 219709.8373333376,
      "d": 280.7967083333351,
      "v": 126
    },
    {
      "midi": 34,
      "hit": false,
      "t": 219999.6920000043,
      "d": 280.7967083333351,
      "v": 125
    },
    {
      "midi": 65,
      "hit": false,
      "t": 219999.6920000043,
      "d": 280.7967083333351,
      "v": 126
    },
    {
      "midi": 70,
      "hit": false,
      "t": 219999.6920000043,
      "d": 280.7967083333351,
      "v": 126
    },
    {
      "midi": 73,
      "hit": false,
      "t": 219999.6920000043,
      "d": 280.7967083333351,
      "v": 126
    },
    {
      "midi": 65,
      "hit": false,
      "t": 220289.54666666727,
      "d": 280.7967083333351,
      "v": 126
    },
    {
      "midi": 70,
      "hit": false,
      "t": 220289.54666666727,
      "d": 280.7967083333351,
      "v": 126
    },
    {
      "midi": 34,
      "hit": false,
      "t": 220289.54666667097,
      "d": 280.7967083333351,
      "v": 125
    },
    {
      "midi": 65,
      "hit": false,
      "t": 220289.54666667097,
      "d": 280.7967083333351,
      "v": 126
    },
    {
      "midi": 70,
      "hit": false,
      "t": 220289.54666667097,
      "d": 280.7967083333351,
      "v": 126
    },
    {
      "midi": 73,
      "hit": false,
      "t": 220289.54666667097,
      "d": 280.7967083333351,
      "v": 126
    },
    {
      "midi": 65,
      "hit": false,
      "t": 220579.40133333395,
      "d": 280.7967083333351,
      "v": 126
    },
    {
      "midi": 70,
      "hit": false,
      "t": 220579.40133333395,
      "d": 280.7967083333351,
      "v": 126
    },
    {
      "midi": 34,
      "hit": false,
      "t": 220579.40133333765,
      "d": 280.7967083333351,
      "v": 125
    },
    {
      "midi": 65,
      "hit": false,
      "t": 220579.40133333765,
      "d": 280.7967083333351,
      "v": 126
    },
    {
      "midi": 70,
      "hit": false,
      "t": 220579.40133333765,
      "d": 280.7967083333351,
      "v": 126
    },
    {
      "midi": 73,
      "hit": false,
      "t": 220579.40133333765,
      "d": 280.7967083333351,
      "v": 126
    },
    {
      "midi": 67,
      "hit": false,
      "t": 220869.25600000063,
      "d": 570.6513750000158,
      "v": 126
    },
    {
      "midi": 72,
      "hit": false,
      "t": 220869.25600000063,
      "d": 570.6513750000158,
      "v": 126
    },
    {
      "midi": 36,
      "hit": false,
      "t": 220869.25600000433,
      "d": 280.7967083333351,
      "v": 125
    },
    {
      "midi": 64,
      "hit": false,
      "t": 220869.25600000433,
      "d": 280.7967083333351,
      "v": 126
    },
    {
      "midi": 67,
      "hit": false,
      "t": 220869.25600000433,
      "d": 280.7967083333351,
      "v": 126
    },
    {
      "midi": 72,
      "hit": false,
      "t": 220869.25600000433,
      "d": 280.7967083333351,
      "v": 126
    },
    {
      "midi": 69,
      "hit": false,
      "t": 221050.4151666673,
      "d": 398.55016666668234,
      "v": 126
    },
    {
      "midi": 36,
      "hit": false,
      "t": 221159.110666671,
      "d": 280.7967083333351,
      "v": 125
    },
    {
      "midi": 64,
      "hit": false,
      "t": 221159.110666671,
      "d": 280.7967083333351,
      "v": 126
    },
    {
      "midi": 67,
      "hit": false,
      "t": 221159.110666671,
      "d": 280.7967083333351,
      "v": 126
    },
    {
      "midi": 72,
      "hit": false,
      "t": 221159.110666671,
      "d": 280.7967083333351,
      "v": 126
    },
    {
      "midi": 67,
      "hit": false,
      "t": 221448.965333334,
      "d": 570.6513750000158,
      "v": 126
    },
    {
      "midi": 72,
      "hit": false,
      "t": 221448.965333334,
      "d": 570.6513750000158,
      "v": 126
    },
    {
      "midi": 36,
      "hit": false,
      "t": 221448.9653333377,
      "d": 280.7967083333351,
      "v": 125
    },
    {
      "midi": 64,
      "hit": false,
      "t": 221448.9653333377,
      "d": 280.7967083333351,
      "v": 126
    },
    {
      "midi": 67,
      "hit": false,
      "t": 221448.9653333377,
      "d": 280.7967083333351,
      "v": 126
    },
    {
      "midi": 72,
      "hit": false,
      "t": 221448.9653333377,
      "d": 280.7967083333351,
      "v": 126
    },
    {
      "midi": 69,
      "hit": false,
      "t": 221630.12450000067,
      "d": 389.49220833333675,
      "v": 126
    },
    {
      "midi": 36,
      "hit": false,
      "t": 221738.82000000437,
      "d": 280.7967083333351,
      "v": 125
    },
    {
      "midi": 64,
      "hit": false,
      "t": 221738.82000000437,
      "d": 280.7967083333351,
      "v": 126
    },
    {
      "midi": 67,
      "hit": false,
      "t": 221738.82000000437,
      "d": 280.7967083333351,
      "v": 126
    },
    {
      "midi": 72,
      "hit": false,
      "t": 221738.82000000437,
      "d": 280.7967083333351,
      "v": 126
    },
    {
      "midi": 68,
      "hit": false,
      "t": 222028.67466666736,
      "d": 570.6513749999867,
      "v": 126
    },
    {
      "midi": 72,
      "hit": false,
      "t": 222028.67466666736,
      "d": 570.6513749999867,
      "v": 126
    },
    {
      "midi": 36,
      "hit": false,
      "t": 222028.67466667105,
      "d": 280.7967083333351,
      "v": 125
    },
    {
      "midi": 64,
      "hit": false,
      "t": 222028.67466667105,
      "d": 280.7967083333351,
      "v": 126
    },
    {
      "midi": 67,
      "hit": false,
      "t": 222028.67466667105,
      "d": 280.7967083333351,
      "v": 126
    },
    {
      "midi": 72,
      "hit": false,
      "t": 222028.67466667105,
      "d": 280.7967083333351,
      "v": 126
    },
    {
      "midi": 36,
      "hit": false,
      "t": 222318.52933333773,
      "d": 280.7967083333351,
      "v": 125
    },
    {
      "midi": 64,
      "hit": false,
      "t": 222318.52933333773,
      "d": 280.7967083333351,
      "v": 126
    },
    {
      "midi": 67,
      "hit": false,
      "t": 222318.52933333773,
      "d": 280.7967083333351,
      "v": 126
    },
    {
      "midi": 72,
      "hit": false,
      "t": 222318.52933333773,
      "d": 280.7967083333351,
      "v": 126
    },
    {
      "midi": 67,
      "hit": false,
      "t": 222608.3840000007,
      "d": 181.15916666667908,
      "v": 126
    },
    {
      "midi": 72,
      "hit": false,
      "t": 222608.3840000007,
      "d": 3478.256000000023,
      "v": 126
    },
    {
      "midi": 41,
      "hit": false,
      "t": 222608.38400000441,
      "d": 280.7967083333351,
      "v": 125
    },
    {
      "midi": 65,
      "hit": false,
      "t": 222608.38400000441,
      "d": 280.7967083333351,
      "v": 126
    },
    {
      "midi": 69,
      "hit": false,
      "t": 222608.38400000441,
      "d": 280.7967083333351,
      "v": 126
    },
    {
      "midi": 72,
      "hit": false,
      "t": 222608.38400000441,
      "d": 280.7967083333351,
      "v": 126
    },
    {
      "midi": 69,
      "hit": false,
      "t": 222789.54316666737,
      "d": 3188.4013333333423,
      "v": 126
    },
    {
      "midi": 41,
      "hit": false,
      "t": 222898.2386666711,
      "d": 280.7967083333351,
      "v": 125
    },
    {
      "midi": 65,
      "hit": false,
      "t": 222898.2386666711,
      "d": 280.7967083333351,
      "v": 126
    },
    {
      "midi": 69,
      "hit": false,
      "t": 222898.2386666711,
      "d": 280.7967083333351,
      "v": 126
    },
    {
      "midi": 72,
      "hit": false,
      "t": 222898.2386666711,
      "d": 280.7967083333351,
      "v": 126
    },
    {
      "midi": 41,
      "hit": false,
      "t": 223188.09333333778,
      "d": 280.7967083333351,
      "v": 125
    },
    {
      "midi": 65,
      "hit": false,
      "t": 223188.09333333778,
      "d": 280.7967083333351,
      "v": 126
    },
    {
      "midi": 69,
      "hit": false,
      "t": 223188.09333333778,
      "d": 280.7967083333351,
      "v": 126
    },
    {
      "midi": 72,
      "hit": false,
      "t": 223188.09333333778,
      "d": 280.7967083333351,
      "v": 126
    },
    {
      "midi": 41,
      "hit": false,
      "t": 223477.94800000446,
      "d": 280.7967083333351,
      "v": 125
    },
    {
      "midi": 65,
      "hit": false,
      "t": 223477.94800000446,
      "d": 280.7967083333351,
      "v": 126
    },
    {
      "midi": 69,
      "hit": false,
      "t": 223477.94800000446,
      "d": 280.7967083333351,
      "v": 126
    },
    {
      "midi": 72,
      "hit": false,
      "t": 223477.94800000446,
      "d": 280.7967083333351,
      "v": 126
    },
    {
      "midi": 41,
      "hit": false,
      "t": 223767.80266667114,
      "d": 280.7967083333351,
      "v": 125
    },
    {
      "midi": 65,
      "hit": false,
      "t": 223767.80266667114,
      "d": 280.7967083333351,
      "v": 126
    },
    {
      "midi": 69,
      "hit": false,
      "t": 223767.80266667114,
      "d": 280.7967083333351,
      "v": 126
    },
    {
      "midi": 72,
      "hit": false,
      "t": 223767.80266667114,
      "d": 280.7967083333351,
      "v": 126
    },
    {
      "midi": 41,
      "hit": false,
      "t": 224057.65733333782,
      "d": 280.7967083333351,
      "v": 125
    },
    {
      "midi": 65,
      "hit": false,
      "t": 224057.65733333782,
      "d": 280.7967083333351,
      "v": 126
    },
    {
      "midi": 69,
      "hit": false,
      "t": 224057.65733333782,
      "d": 280.7967083333351,
      "v": 126
    },
    {
      "midi": 72,
      "hit": false,
      "t": 224057.65733333782,
      "d": 280.7967083333351,
      "v": 126
    },
    {
      "midi": 38,
      "hit": false,
      "t": 224347.5120000045,
      "d": 280.7967083333351,
      "v": 125
    },
    {
      "midi": 65,
      "hit": false,
      "t": 224347.5120000045,
      "d": 280.7967083333351,
      "v": 126
    },
    {
      "midi": 69,
      "hit": false,
      "t": 224347.5120000045,
      "d": 280.7967083333351,
      "v": 126
    },
    {
      "midi": 74,
      "hit": false,
      "t": 224347.5120000045,
      "d": 280.7967083333351,
      "v": 126
    },
    {
      "midi": 38,
      "hit": false,
      "t": 224637.36666667118,
      "d": 280.7967083333351,
      "v": 125
    },
    {
      "midi": 65,
      "hit": false,
      "t": 224637.36666667118,
      "d": 280.7967083333351,
      "v": 126
    },
    {
      "midi": 69,
      "hit": false,
      "t": 224637.36666667118,
      "d": 280.7967083333351,
      "v": 126
    },
    {
      "midi": 74,
      "hit": false,
      "t": 224637.36666667118,
      "d": 280.7967083333351,
      "v": 126
    },
    {
      "midi": 38,
      "hit": false,
      "t": 224927.22133333786,
      "d": 280.7967083333351,
      "v": 125
    },
    {
      "midi": 65,
      "hit": false,
      "t": 224927.22133333786,
      "d": 280.7967083333351,
      "v": 126
    },
    {
      "midi": 69,
      "hit": false,
      "t": 224927.22133333786,
      "d": 280.7967083333351,
      "v": 126
    },
    {
      "midi": 74,
      "hit": false,
      "t": 224927.22133333786,
      "d": 280.7967083333351,
      "v": 126
    },
    {
      "midi": 38,
      "hit": false,
      "t": 225217.07600000454,
      "d": 280.7967083333351,
      "v": 125
    },
    {
      "midi": 65,
      "hit": false,
      "t": 225217.07600000454,
      "d": 280.7967083333351,
      "v": 126
    },
    {
      "midi": 69,
      "hit": false,
      "t": 225217.07600000454,
      "d": 280.7967083333351,
      "v": 126
    },
    {
      "midi": 74,
      "hit": false,
      "t": 225217.07600000454,
      "d": 280.7967083333351,
      "v": 126
    },
    {
      "midi": 38,
      "hit": false,
      "t": 225506.93066667122,
      "d": 280.7967083333351,
      "v": 125
    },
    {
      "midi": 65,
      "hit": false,
      "t": 225506.93066667122,
      "d": 280.7967083333351,
      "v": 126
    },
    {
      "midi": 69,
      "hit": false,
      "t": 225506.93066667122,
      "d": 280.7967083333351,
      "v": 126
    },
    {
      "midi": 74,
      "hit": false,
      "t": 225506.93066667122,
      "d": 280.7967083333351,
      "v": 126
    },
    {
      "midi": 38,
      "hit": false,
      "t": 225796.7853333379,
      "d": 280.7967083333351,
      "v": 125
    },
    {
      "midi": 65,
      "hit": false,
      "t": 225796.7853333379,
      "d": 280.7967083333351,
      "v": 126
    },
    {
      "midi": 69,
      "hit": false,
      "t": 225796.7853333379,
      "d": 280.7967083333351,
      "v": 126
    },
    {
      "midi": 74,
      "hit": false,
      "t": 225796.7853333379,
      "d": 280.7967083333351,
      "v": 126
    },
    {
      "midi": 34,
      "hit": false,
      "t": 226086.64000000458,
      "d": 280.7967083333351,
      "v": 125
    },
    {
      "midi": 65,
      "hit": false,
      "t": 226086.64000000458,
      "d": 280.7967083333351,
      "v": 126
    },
    {
      "midi": 70,
      "hit": false,
      "t": 226086.64000000458,
      "d": 280.7967083333351,
      "v": 126
    },
    {
      "midi": 73,
      "hit": false,
      "t": 226086.64000000458,
      "d": 280.7967083333351,
      "v": 126
    },
    {
      "midi": 34,
      "hit": false,
      "t": 226376.49466667126,
      "d": 280.7967083333351,
      "v": 125
    },
    {
      "midi": 65,
      "hit": false,
      "t": 226376.49466667126,
      "d": 280.7967083333351,
      "v": 126
    },
    {
      "midi": 70,
      "hit": false,
      "t": 226376.49466667126,
      "d": 280.7967083333351,
      "v": 126
    },
    {
      "midi": 73,
      "hit": false,
      "t": 226376.49466667126,
      "d": 280.7967083333351,
      "v": 126
    },
    {
      "midi": 34,
      "hit": false,
      "t": 226666.34933333794,
      "d": 280.7967083333351,
      "v": 125
    },
    {
      "midi": 65,
      "hit": false,
      "t": 226666.34933333794,
      "d": 280.7967083333351,
      "v": 126
    },
    {
      "midi": 70,
      "hit": false,
      "t": 226666.34933333794,
      "d": 280.7967083333351,
      "v": 126
    },
    {
      "midi": 73,
      "hit": false,
      "t": 226666.34933333794,
      "d": 280.7967083333351,
      "v": 126
    },
    {
      "midi": 34,
      "hit": false,
      "t": 226956.20400000463,
      "d": 280.7967083333351,
      "v": 125
    },
    {
      "midi": 65,
      "hit": false,
      "t": 226956.20400000463,
      "d": 280.7967083333351,
      "v": 126
    },
    {
      "midi": 70,
      "hit": false,
      "t": 226956.20400000463,
      "d": 280.7967083333351,
      "v": 126
    },
    {
      "midi": 73,
      "hit": false,
      "t": 226956.20400000463,
      "d": 280.7967083333351,
      "v": 126
    },
    {
      "midi": 65,
      "hit": false,
      "t": 227246.05866666738,
      "d": 280.7967083333351,
      "v": 126
    },
    {
      "midi": 70,
      "hit": false,
      "t": 227246.05866666738,
      "d": 280.7967083333351,
      "v": 126
    },
    {
      "midi": 34,
      "hit": false,
      "t": 227246.0586666713,
      "d": 280.7967083333351,
      "v": 125
    },
    {
      "midi": 65,
      "hit": false,
      "t": 227246.0586666713,
      "d": 280.7967083333351,
      "v": 126
    },
    {
      "midi": 70,
      "hit": false,
      "t": 227246.0586666713,
      "d": 280.7967083333351,
      "v": 126
    },
    {
      "midi": 73,
      "hit": false,
      "t": 227246.0586666713,
      "d": 280.7967083333351,
      "v": 126
    },
    {
      "midi": 65,
      "hit": false,
      "t": 227535.91333333406,
      "d": 280.7967083333351,
      "v": 126
    },
    {
      "midi": 70,
      "hit": false,
      "t": 227535.91333333406,
      "d": 280.7967083333351,
      "v": 126
    },
    {
      "midi": 34,
      "hit": false,
      "t": 227535.913333338,
      "d": 280.7967083333351,
      "v": 125
    },
    {
      "midi": 65,
      "hit": false,
      "t": 227535.913333338,
      "d": 280.7967083333351,
      "v": 126
    },
    {
      "midi": 70,
      "hit": false,
      "t": 227535.913333338,
      "d": 280.7967083333351,
      "v": 126
    },
    {
      "midi": 73,
      "hit": false,
      "t": 227535.913333338,
      "d": 280.7967083333351,
      "v": 126
    },
    {
      "midi": 67,
      "hit": false,
      "t": 227825.76800000074,
      "d": 570.6513750000158,
      "v": 126
    },
    {
      "midi": 72,
      "hit": false,
      "t": 227825.76800000074,
      "d": 570.6513750000158,
      "v": 126
    },
    {
      "midi": 36,
      "hit": false,
      "t": 227825.76800000467,
      "d": 280.7967083333351,
      "v": 125
    },
    {
      "midi": 64,
      "hit": false,
      "t": 227825.76800000467,
      "d": 280.7967083333351,
      "v": 126
    },
    {
      "midi": 67,
      "hit": false,
      "t": 227825.76800000467,
      "d": 280.7967083333351,
      "v": 126
    },
    {
      "midi": 72,
      "hit": false,
      "t": 227825.76800000467,
      "d": 280.7967083333351,
      "v": 126
    },
    {
      "midi": 69,
      "hit": false,
      "t": 228006.92716666742,
      "d": 398.55016666668234,
      "v": 126
    },
    {
      "midi": 36,
      "hit": false,
      "t": 228115.62266667135,
      "d": 280.7967083333351,
      "v": 125
    },
    {
      "midi": 64,
      "hit": false,
      "t": 228115.62266667135,
      "d": 280.7967083333351,
      "v": 126
    },
    {
      "midi": 67,
      "hit": false,
      "t": 228115.62266667135,
      "d": 280.7967083333351,
      "v": 126
    },
    {
      "midi": 72,
      "hit": false,
      "t": 228115.62266667135,
      "d": 280.7967083333351,
      "v": 126
    },
    {
      "midi": 67,
      "hit": false,
      "t": 228405.4773333341,
      "d": 570.6513750000158,
      "v": 126
    },
    {
      "midi": 72,
      "hit": false,
      "t": 228405.4773333341,
      "d": 570.6513750000158,
      "v": 126
    },
    {
      "midi": 36,
      "hit": false,
      "t": 228405.47733333803,
      "d": 280.7967083333351,
      "v": 125
    },
    {
      "midi": 64,
      "hit": false,
      "t": 228405.47733333803,
      "d": 280.7967083333351,
      "v": 126
    },
    {
      "midi": 67,
      "hit": false,
      "t": 228405.47733333803,
      "d": 280.7967083333351,
      "v": 126
    },
    {
      "midi": 72,
      "hit": false,
      "t": 228405.47733333803,
      "d": 280.7967083333351,
      "v": 126
    },
    {
      "midi": 69,
      "hit": false,
      "t": 228586.63650000078,
      "d": 389.49220833333675,
      "v": 126
    },
    {
      "midi": 36,
      "hit": false,
      "t": 228695.3320000047,
      "d": 280.7967083333351,
      "v": 125
    },
    {
      "midi": 64,
      "hit": false,
      "t": 228695.3320000047,
      "d": 280.7967083333351,
      "v": 126
    },
    {
      "midi": 67,
      "hit": false,
      "t": 228695.3320000047,
      "d": 280.7967083333351,
      "v": 126
    },
    {
      "midi": 72,
      "hit": false,
      "t": 228695.3320000047,
      "d": 280.7967083333351,
      "v": 126
    },
    {
      "midi": 68,
      "hit": false,
      "t": 228985.18666666746,
      "d": 570.6513749999867,
      "v": 126
    },
    {
      "midi": 72,
      "hit": false,
      "t": 228985.18666666746,
      "d": 570.6513749999867,
      "v": 126
    },
    {
      "midi": 36,
      "hit": false,
      "t": 228985.1866666714,
      "d": 280.7967083333351,
      "v": 125
    },
    {
      "midi": 64,
      "hit": false,
      "t": 228985.1866666714,
      "d": 280.7967083333351,
      "v": 126
    },
    {
      "midi": 67,
      "hit": false,
      "t": 228985.1866666714,
      "d": 280.7967083333351,
      "v": 126
    },
    {
      "midi": 72,
      "hit": false,
      "t": 228985.1866666714,
      "d": 280.7967083333351,
      "v": 126
    },
    {
      "midi": 36,
      "hit": false,
      "t": 229275.04133333807,
      "d": 280.7967083333351,
      "v": 125
    },
    {
      "midi": 64,
      "hit": false,
      "t": 229275.04133333807,
      "d": 280.7967083333351,
      "v": 126
    },
    {
      "midi": 67,
      "hit": false,
      "t": 229275.04133333807,
      "d": 280.7967083333351,
      "v": 126
    },
    {
      "midi": 72,
      "hit": false,
      "t": 229275.04133333807,
      "d": 280.7967083333351,
      "v": 126
    },
    {
      "midi": 67,
      "hit": false,
      "t": 229564.8960000008,
      "d": 181.15916666667908,
      "v": 126
    },
    {
      "midi": 72,
      "hit": false,
      "t": 229564.8960000008,
      "d": 3478.256000000023,
      "v": 126
    },
    {
      "midi": 41,
      "hit": false,
      "t": 229564.89600000475,
      "d": 280.7967083333351,
      "v": 125
    },
    {
      "midi": 65,
      "hit": false,
      "t": 229564.89600000475,
      "d": 280.7967083333351,
      "v": 126
    },
    {
      "midi": 69,
      "hit": false,
      "t": 229564.89600000475,
      "d": 280.7967083333351,
      "v": 126
    },
    {
      "midi": 72,
      "hit": false,
      "t": 229564.89600000475,
      "d": 280.7967083333351,
      "v": 126
    },
    {
      "midi": 69,
      "hit": false,
      "t": 229746.05516666747,
      "d": 3188.4013333333423,
      "v": 126
    },
    {
      "midi": 41,
      "hit": false,
      "t": 229854.75066667143,
      "d": 280.7967083333351,
      "v": 125
    },
    {
      "midi": 65,
      "hit": false,
      "t": 229854.75066667143,
      "d": 280.7967083333351,
      "v": 126
    },
    {
      "midi": 69,
      "hit": false,
      "t": 229854.75066667143,
      "d": 280.7967083333351,
      "v": 126
    },
    {
      "midi": 72,
      "hit": false,
      "t": 229854.75066667143,
      "d": 280.7967083333351,
      "v": 126
    },
    {
      "midi": 41,
      "hit": false,
      "t": 230144.6053333381,
      "d": 280.7967083333351,
      "v": 125
    },
    {
      "midi": 65,
      "hit": false,
      "t": 230144.6053333381,
      "d": 280.7967083333351,
      "v": 126
    },
    {
      "midi": 69,
      "hit": false,
      "t": 230144.6053333381,
      "d": 280.7967083333351,
      "v": 126
    },
    {
      "midi": 72,
      "hit": false,
      "t": 230144.6053333381,
      "d": 280.7967083333351,
      "v": 126
    },
    {
      "midi": 41,
      "hit": false,
      "t": 230434.4600000048,
      "d": 280.7967083333351,
      "v": 125
    },
    {
      "midi": 65,
      "hit": false,
      "t": 230434.4600000048,
      "d": 280.7967083333351,
      "v": 126
    },
    {
      "midi": 69,
      "hit": false,
      "t": 230434.4600000048,
      "d": 280.7967083333351,
      "v": 126
    },
    {
      "midi": 72,
      "hit": false,
      "t": 230434.4600000048,
      "d": 280.7967083333351,
      "v": 126
    },
    {
      "midi": 41,
      "hit": false,
      "t": 230724.31466667147,
      "d": 280.7967083333351,
      "v": 125
    },
    {
      "midi": 65,
      "hit": false,
      "t": 230724.31466667147,
      "d": 280.7967083333351,
      "v": 126
    },
    {
      "midi": 69,
      "hit": false,
      "t": 230724.31466667147,
      "d": 280.7967083333351,
      "v": 126
    },
    {
      "midi": 72,
      "hit": false,
      "t": 230724.31466667147,
      "d": 280.7967083333351,
      "v": 126
    },
    {
      "midi": 41,
      "hit": false,
      "t": 231014.16933333816,
      "d": 280.7967083333351,
      "v": 125
    },
    {
      "midi": 65,
      "hit": false,
      "t": 231014.16933333816,
      "d": 280.7967083333351,
      "v": 126
    },
    {
      "midi": 69,
      "hit": false,
      "t": 231014.16933333816,
      "d": 280.7967083333351,
      "v": 126
    },
    {
      "midi": 72,
      "hit": false,
      "t": 231014.16933333816,
      "d": 280.7967083333351,
      "v": 126
    },
    {
      "midi": 38,
      "hit": false,
      "t": 231304.02400000484,
      "d": 280.7967083333351,
      "v": 125
    },
    {
      "midi": 65,
      "hit": false,
      "t": 231304.02400000484,
      "d": 280.7967083333351,
      "v": 126
    },
    {
      "midi": 69,
      "hit": false,
      "t": 231304.02400000484,
      "d": 280.7967083333351,
      "v": 126
    },
    {
      "midi": 74,
      "hit": false,
      "t": 231304.02400000484,
      "d": 280.7967083333351,
      "v": 126
    },
    {
      "midi": 38,
      "hit": false,
      "t": 231593.87866667152,
      "d": 280.7967083333351,
      "v": 125
    },
    {
      "midi": 65,
      "hit": false,
      "t": 231593.87866667152,
      "d": 280.7967083333351,
      "v": 126
    },
    {
      "midi": 69,
      "hit": false,
      "t": 231593.87866667152,
      "d": 280.7967083333351,
      "v": 126
    },
    {
      "midi": 74,
      "hit": false,
      "t": 231593.87866667152,
      "d": 280.7967083333351,
      "v": 126
    },
    {
      "midi": 38,
      "hit": false,
      "t": 231883.7333333382,
      "d": 280.7967083333351,
      "v": 125
    },
    {
      "midi": 65,
      "hit": false,
      "t": 231883.7333333382,
      "d": 280.7967083333351,
      "v": 126
    },
    {
      "midi": 69,
      "hit": false,
      "t": 231883.7333333382,
      "d": 280.7967083333351,
      "v": 126
    },
    {
      "midi": 74,
      "hit": false,
      "t": 231883.7333333382,
      "d": 280.7967083333351,
      "v": 126
    },
    {
      "midi": 38,
      "hit": false,
      "t": 232173.58800000488,
      "d": 280.7967083333351,
      "v": 125
    },
    {
      "midi": 65,
      "hit": false,
      "t": 232173.58800000488,
      "d": 280.7967083333351,
      "v": 126
    },
    {
      "midi": 69,
      "hit": false,
      "t": 232173.58800000488,
      "d": 280.7967083333351,
      "v": 126
    },
    {
      "midi": 74,
      "hit": false,
      "t": 232173.58800000488,
      "d": 280.7967083333351,
      "v": 126
    },
    {
      "midi": 38,
      "hit": false,
      "t": 232463.44266667156,
      "d": 280.7967083333351,
      "v": 125
    },
    {
      "midi": 65,
      "hit": false,
      "t": 232463.44266667156,
      "d": 280.7967083333351,
      "v": 126
    },
    {
      "midi": 69,
      "hit": false,
      "t": 232463.44266667156,
      "d": 280.7967083333351,
      "v": 126
    },
    {
      "midi": 74,
      "hit": false,
      "t": 232463.44266667156,
      "d": 280.7967083333351,
      "v": 126
    },
    {
      "midi": 38,
      "hit": false,
      "t": 232753.29733333824,
      "d": 280.7967083333351,
      "v": 125
    },
    {
      "midi": 65,
      "hit": false,
      "t": 232753.29733333824,
      "d": 280.7967083333351,
      "v": 126
    },
    {
      "midi": 69,
      "hit": false,
      "t": 232753.29733333824,
      "d": 280.7967083333351,
      "v": 126
    },
    {
      "midi": 74,
      "hit": false,
      "t": 232753.29733333824,
      "d": 280.7967083333351,
      "v": 126
    },
    {
      "midi": 34,
      "hit": false,
      "t": 233043.15200000492,
      "d": 280.7967083333351,
      "v": 125
    },
    {
      "midi": 65,
      "hit": false,
      "t": 233043.15200000492,
      "d": 280.7967083333351,
      "v": 126
    },
    {
      "midi": 70,
      "hit": false,
      "t": 233043.15200000492,
      "d": 280.7967083333351,
      "v": 126
    },
    {
      "midi": 73,
      "hit": false,
      "t": 233043.15200000492,
      "d": 280.7967083333351,
      "v": 126
    },
    {
      "midi": 34,
      "hit": false,
      "t": 233333.0066666716,
      "d": 280.7967083333351,
      "v": 125
    },
    {
      "midi": 65,
      "hit": false,
      "t": 233333.0066666716,
      "d": 280.7967083333351,
      "v": 126
    },
    {
      "midi": 70,
      "hit": false,
      "t": 233333.0066666716,
      "d": 280.7967083333351,
      "v": 126
    },
    {
      "midi": 73,
      "hit": false,
      "t": 233333.0066666716,
      "d": 280.7967083333351,
      "v": 126
    },
    {
      "midi": 34,
      "hit": false,
      "t": 233622.86133333828,
      "d": 280.7967083333351,
      "v": 125
    },
    {
      "midi": 65,
      "hit": false,
      "t": 233622.86133333828,
      "d": 280.7967083333351,
      "v": 126
    },
    {
      "midi": 70,
      "hit": false,
      "t": 233622.86133333828,
      "d": 280.7967083333351,
      "v": 126
    },
    {
      "midi": 73,
      "hit": false,
      "t": 233622.86133333828,
      "d": 280.7967083333351,
      "v": 126
    },
    {
      "midi": 34,
      "hit": false,
      "t": 233912.71600000496,
      "d": 280.7967083333351,
      "v": 125
    },
    {
      "midi": 65,
      "hit": false,
      "t": 233912.71600000496,
      "d": 280.7967083333351,
      "v": 126
    },
    {
      "midi": 70,
      "hit": false,
      "t": 233912.71600000496,
      "d": 280.7967083333351,
      "v": 126
    },
    {
      "midi": 73,
      "hit": false,
      "t": 233912.71600000496,
      "d": 280.7967083333351,
      "v": 126
    },
    {
      "midi": 65,
      "hit": false,
      "t": 234202.57066666748,
      "d": 280.7967083333351,
      "v": 126
    },
    {
      "midi": 70,
      "hit": false,
      "t": 234202.57066666748,
      "d": 280.7967083333351,
      "v": 126
    },
    {
      "midi": 34,
      "hit": false,
      "t": 234202.57066667164,
      "d": 280.7967083333351,
      "v": 125
    },
    {
      "midi": 65,
      "hit": false,
      "t": 234202.57066667164,
      "d": 280.7967083333351,
      "v": 126
    },
    {
      "midi": 70,
      "hit": false,
      "t": 234202.57066667164,
      "d": 280.7967083333351,
      "v": 126
    },
    {
      "midi": 73,
      "hit": false,
      "t": 234202.57066667164,
      "d": 280.7967083333351,
      "v": 126
    },
    {
      "midi": 65,
      "hit": false,
      "t": 234492.42533333416,
      "d": 280.7967083333351,
      "v": 126
    },
    {
      "midi": 70,
      "hit": false,
      "t": 234492.42533333416,
      "d": 280.7967083333351,
      "v": 126
    },
    {
      "midi": 34,
      "hit": false,
      "t": 234492.42533333832,
      "d": 280.7967083333351,
      "v": 125
    },
    {
      "midi": 65,
      "hit": false,
      "t": 234492.42533333832,
      "d": 280.7967083333351,
      "v": 126
    },
    {
      "midi": 70,
      "hit": false,
      "t": 234492.42533333832,
      "d": 280.7967083333351,
      "v": 126
    },
    {
      "midi": 73,
      "hit": false,
      "t": 234492.42533333832,
      "d": 280.7967083333351,
      "v": 126
    },
    {
      "midi": 67,
      "hit": false,
      "t": 234782.28000000084,
      "d": 570.6513750000158,
      "v": 126
    },
    {
      "midi": 72,
      "hit": false,
      "t": 234782.28000000084,
      "d": 570.6513750000158,
      "v": 126
    },
    {
      "midi": 36,
      "hit": false,
      "t": 234782.280000005,
      "d": 280.7967083333351,
      "v": 125
    },
    {
      "midi": 64,
      "hit": false,
      "t": 234782.280000005,
      "d": 280.7967083333351,
      "v": 126
    },
    {
      "midi": 67,
      "hit": false,
      "t": 234782.280000005,
      "d": 280.7967083333351,
      "v": 126
    },
    {
      "midi": 72,
      "hit": false,
      "t": 234782.280000005,
      "d": 280.7967083333351,
      "v": 126
    },
    {
      "midi": 69,
      "hit": false,
      "t": 234963.43916666752,
      "d": 398.55016666668234,
      "v": 126
    },
    {
      "midi": 36,
      "hit": false,
      "t": 235072.13466667169,
      "d": 280.7967083333351,
      "v": 125
    },
    {
      "midi": 64,
      "hit": false,
      "t": 235072.13466667169,
      "d": 280.7967083333351,
      "v": 126
    },
    {
      "midi": 67,
      "hit": false,
      "t": 235072.13466667169,
      "d": 280.7967083333351,
      "v": 126
    },
    {
      "midi": 72,
      "hit": false,
      "t": 235072.13466667169,
      "d": 280.7967083333351,
      "v": 126
    },
    {
      "midi": 67,
      "hit": false,
      "t": 235361.9893333342,
      "d": 570.6513750000158,
      "v": 126
    },
    {
      "midi": 72,
      "hit": false,
      "t": 235361.9893333342,
      "d": 570.6513750000158,
      "v": 126
    },
    {
      "midi": 36,
      "hit": false,
      "t": 235361.98933333837,
      "d": 280.7967083333351,
      "v": 125
    },
    {
      "midi": 64,
      "hit": false,
      "t": 235361.98933333837,
      "d": 280.7967083333351,
      "v": 126
    },
    {
      "midi": 67,
      "hit": false,
      "t": 235361.98933333837,
      "d": 280.7967083333351,
      "v": 126
    },
    {
      "midi": 72,
      "hit": false,
      "t": 235361.98933333837,
      "d": 280.7967083333351,
      "v": 126
    },
    {
      "midi": 69,
      "hit": false,
      "t": 235543.14850000088,
      "d": 389.49220833333675,
      "v": 126
    },
    {
      "midi": 36,
      "hit": false,
      "t": 235651.84400000505,
      "d": 280.7967083333351,
      "v": 125
    },
    {
      "midi": 64,
      "hit": false,
      "t": 235651.84400000505,
      "d": 280.7967083333351,
      "v": 126
    },
    {
      "midi": 67,
      "hit": false,
      "t": 235651.84400000505,
      "d": 280.7967083333351,
      "v": 126
    },
    {
      "midi": 72,
      "hit": false,
      "t": 235651.84400000505,
      "d": 280.7967083333351,
      "v": 126
    },
    {
      "midi": 67,
      "hit": false,
      "t": 235941.69866666757,
      "d": 208.33304166668677,
      "v": 126
    },
    {
      "midi": 72,
      "hit": false,
      "t": 235941.69866666757,
      "d": 570.6513750000158,
      "v": 126
    },
    {
      "midi": 36,
      "hit": false,
      "t": 235941.69866667173,
      "d": 280.7967083333351,
      "v": 125
    },
    {
      "midi": 64,
      "hit": false,
      "t": 235941.69866667173,
      "d": 280.7967083333351,
      "v": 126
    },
    {
      "midi": 67,
      "hit": false,
      "t": 235941.69866667173,
      "d": 280.7967083333351,
      "v": 126
    },
    {
      "midi": 72,
      "hit": false,
      "t": 235941.69866667173,
      "d": 280.7967083333351,
      "v": 126
    },
    {
      "midi": 69,
      "hit": false,
      "t": 236122.85783333424,
      "d": 398.55016666668234,
      "v": 126
    },
    {
      "midi": 36,
      "hit": false,
      "t": 236231.5533333384,
      "d": 280.7967083333351,
      "v": 125
    },
    {
      "midi": 64,
      "hit": false,
      "t": 236231.5533333384,
      "d": 280.7967083333351,
      "v": 126
    },
    {
      "midi": 67,
      "hit": false,
      "t": 236231.5533333384,
      "d": 280.7967083333351,
      "v": 126
    },
    {
      "midi": 72,
      "hit": false,
      "t": 236231.5533333384,
      "d": 280.7967083333351,
      "v": 126
    },
    {
      "midi": 69,
      "hit": false,
      "t": 236521.40800000093,
      "d": 3188.4013333334005,
      "v": 126
    },
    {
      "midi": 65,
      "hit": false,
      "t": 236521.40800000093,
      "d": 3478.2560000000813,
      "v": 126
    },
    {
      "midi": 29,
      "hit": false,
      "t": 236521.4080000051,
      "d": 5208.326041666674,
      "v": 107
    },
    {
      "midi": 65,
      "hit": false,
      "t": 236521.4080000051,
      "d": 5208.326041666674,
      "v": 104
    },
    {
      "midi": 69,
      "hit": false,
      "t": 236521.4080000051,
      "d": 5208.326041666674,
      "v": 98
    },
    {
      "midi": 72,
      "hit": false,
      "t": 236521.4080000051,
      "d": 5208.326041666674,
      "v": 85
    },
    {
      "midi": 72,
      "hit": false,
      "t": 237390.97200000094,
      "d": 280.7967083333351,
      "v": 126
    },
    {
      "midi": 74,
      "hit": false,
      "t": 237680.82666666762,
      "d": 280.7967083333351,
      "v": 126
    },
    {
      "midi": 81,
      "hit": false,
      "t": 237970.6813333343,
      "d": 280.7967083333351,
      "v": 126
    },
    {
      "midi": 74,
      "hit": false,
      "t": 238260.53600000098,
      "d": 181.15916666667908,
      "v": 126
    },
    {
      "midi": 81,
      "hit": false,
      "t": 238260.53600000098,
      "d": 3469.1980416667066,
      "v": 126
    },
    {
      "midi": 76,
      "hit": false,
      "t": 238441.69516666766,
      "d": 3469.1980416667066,
      "v": 126
    }
  ]
}