{
  "jsonPath": "Pop/Italian Pop/Marina Rei/cuore-a-meta.json",
  "path": "Pop\\Italian Pop\\Marina Rei\\Cuore A Metà.mid",
  "name": "Cuore A Metà",
  "difficulty": "Advanced",
  "bpm": 74.000074000074,
  "notes": [
    {
      "midi": 88,
      "hit": false,
      "t": 5385.416666666667,
      "d": 244.79166666666697,
      "v": 98
    },
    {
      "midi": 86,
      "hit": false,
      "t": 5510.416666666667,
      "d": 239.58333333333303,
      "v": 82
    },
    {
      "midi": 84,
      "hit": false,
      "t": 5630.208333333334,
      "d": 208.33333333333212,
      "v": 63
    },
    {
      "midi": 60,
      "hit": false,
      "t": 5734.375000000001,
      "d": 2932.291666666665,
      "v": 85
    },
    {
      "midi": 64,
      "hit": false,
      "t": 5739.583333333334,
      "d": 2942.708333333332,
      "v": 96
    },
    {
      "midi": 55,
      "hit": false,
      "t": 5744.791666666667,
      "d": 2932.291666666665,
      "v": 81
    },
    {
      "midi": 83,
      "hit": false,
      "t": 5755.208333333333,
      "d": 437.5,
      "v": 97
    },
    {
      "midi": 84,
      "hit": false,
      "t": 6197.916666666666,
      "d": 223.95833333333303,
      "v": 88
    },
    {
      "midi": 79,
      "hit": false,
      "t": 6463.541666666666,
      "d": 1921.875,
      "v": 91
    },
    {
      "midi": 67,
      "hit": false,
      "t": 7968.749999999999,
      "d": 322.91666666666697,
      "v": 77
    },
    {
      "midi": 74,
      "hit": false,
      "t": 8208.333333333332,
      "d": 322.9166666666679,
      "v": 83
    },
    {
      "midi": 79,
      "hit": false,
      "t": 8453.125,
      "d": 328.125,
      "v": 93
    },
    {
      "midi": 48,
      "hit": false,
      "t": 8703.125,
      "d": 2822.916666666668,
      "v": 68
    },
    {
      "midi": 78,
      "hit": false,
      "t": 8713.541666666666,
      "d": 562.5000000000018,
      "v": 102
    },
    {
      "midi": 79,
      "hit": false,
      "t": 9208.333333333334,
      "d": 286.45833333333394,
      "v": 84
    },
    {
      "midi": 74,
      "hit": false,
      "t": 9494.791666666668,
      "d": 901.0416666666661,
      "v": 86
    },
    {
      "midi": 67,
      "hit": false,
      "t": 9760.416666666668,
      "d": 1979.166666666666,
      "v": 107
    },
    {
      "midi": 60,
      "hit": false,
      "t": 10567.708333333334,
      "d": 1145.833333333334,
      "v": 54
    },
    {
      "midi": 50,
      "hit": false,
      "t": 11541.666666666668,
      "d": 479.16666666666606,
      "v": 76
    },
    {
      "midi": 43,
      "hit": false,
      "t": 11812.5,
      "d": 4026.041666666668,
      "v": 67
    },
    {
      "midi": 55,
      "hit": false,
      "t": 12078.125000000002,
      "d": 3447.916666666666,
      "v": 92
    },
    {
      "midi": 57,
      "hit": false,
      "t": 12328.125000000002,
      "d": 2593.75,
      "v": 76
    },
    {
      "midi": 59,
      "hit": false,
      "t": 12572.916666666668,
      "d": 2442.708333333334,
      "v": 87
    },
    {
      "midi": 62,
      "hit": false,
      "t": 12843.750000000002,
      "d": 2125,
      "v": 127
    },
    {
      "midi": 67,
      "hit": false,
      "t": 13385.416666666668,
      "d": 1500,
      "v": 123
    },
    {
      "midi": 69,
      "hit": false,
      "t": 14109.375000000002,
      "d": 1031.25,
      "v": 101
    },
    {
      "midi": 38,
      "hit": false,
      "t": 14869.791666666668,
      "d": 2786.458333333332,
      "v": 65
    },
    {
      "midi": 57,
      "hit": false,
      "t": 14937.500000000002,
      "d": 2786.4583333333303,
      "v": 75
    },
    {
      "midi": 62,
      "hit": false,
      "t": 14984.375000000002,
      "d": 1510.416666666666,
      "v": 74
    },
    {
      "midi": 64,
      "hit": false,
      "t": 14984.375000000002,
      "d": 1755.208333333334,
      "v": 75
    },
    {
      "midi": 66,
      "hit": false,
      "t": 15062.500000000002,
      "d": 1937.5000000000018,
      "v": 104
    },
    {
      "midi": 62,
      "hit": false,
      "t": 16510.416666666668,
      "d": 557.2916666666679,
      "v": 62
    },
    {
      "midi": 64,
      "hit": false,
      "t": 16755.208333333336,
      "d": 427.0833333333321,
      "v": 61
    },
    {
      "midi": 66,
      "hit": false,
      "t": 17015.625000000004,
      "d": 151.04166666666424,
      "v": 70
    },
    {
      "midi": 74,
      "hit": false,
      "t": 17239.583333333336,
      "d": 749.9999999999964,
      "v": 119
    },
    {
      "midi": 71,
      "hit": false,
      "t": 17510.416666666668,
      "d": 755.2083333333321,
      "v": 97
    },
    {
      "midi": 72,
      "hit": false,
      "t": 17765.625,
      "d": 1291.6666666666679,
      "v": 127
    },
    {
      "midi": 45,
      "hit": false,
      "t": 17765.625,
      "d": 2713.541666666668,
      "v": 88
    },
    {
      "midi": 64,
      "hit": false,
      "t": 17765.625,
      "d": 2713.541666666668,
      "v": 90
    },
    {
      "midi": 60,
      "hit": false,
      "t": 18760.416666666668,
      "d": 166.66666666666424,
      "v": 51
    },
    {
      "midi": 67,
      "hit": false,
      "t": 18921.875,
      "d": 125,
      "v": 50
    },
    {
      "midi": 72,
      "hit": false,
      "t": 19072.916666666668,
      "d": 125,
      "v": 60
    },
    {
      "midi": 84,
      "hit": false,
      "t": 19255.208333333336,
      "d": 723.9583333333321,
      "v": 97
    },
    {
      "midi": 83,
      "hit": false,
      "t": 19942.708333333336,
      "d": 734.375,
      "v": 79
    },
    {
      "midi": 64,
      "hit": false,
      "t": 20682.291666666668,
      "d": 1317.7083333333321,
      "v": 69
    },
    {
      "midi": 48,
      "hit": false,
      "t": 20687.5,
      "d": 1578.125,
      "v": 80
    },
    {
      "midi": 79,
      "hit": false,
      "t": 20687.5,
      "d": 1578.125,
      "v": 94
    },
    {
      "midi": 55,
      "hit": false,
      "t": 21218.75,
      "d": 2375,
      "v": 58
    },
    {
      "midi": 60,
      "hit": false,
      "t": 21494.791666666668,
      "d": 2088.5416666666642,
      "v": 45
    },
    {
      "midi": 62,
      "hit": false,
      "t": 21744.791666666668,
      "d": 1812.4999999999964,
      "v": 75
    },
    {
      "midi": 64,
      "hit": false,
      "t": 22015.625,
      "d": 250,
      "v": 75
    },
    {
      "midi": 67,
      "hit": false,
      "t": 22270.833333333332,
      "d": 1276.0416666666642,
      "v": 108
    },
    {
      "midi": 72,
      "hit": false,
      "t": 22776.041666666664,
      "d": 1171.8750000000036,
      "v": 106
    },
    {
      "midi": 62,
      "hit": false,
      "t": 23703.125,
      "d": 1520.8333333333358,
      "v": 87
    },
    {
      "midi": 43,
      "hit": false,
      "t": 23713.541666666668,
      "d": 807.2916666666679,
      "v": 84
    },
    {
      "midi": 55,
      "hit": false,
      "t": 23713.541666666668,
      "d": 807.2916666666679,
      "v": 44
    },
    {
      "midi": 67,
      "hit": false,
      "t": 23755.208333333336,
      "d": 1906.25,
      "v": 76
    },
    {
      "midi": 71,
      "hit": false,
      "t": 23869.791666666668,
      "d": 1796.875,
      "v": 99
    },
    {
      "midi": 50,
      "hit": false,
      "t": 24265.625000000004,
      "d": 2125,
      "v": 82
    },
    {
      "midi": 55,
      "hit": false,
      "t": 24536.458333333336,
      "d": 1109.375,
      "v": 84
    },
    {
      "midi": 57,
      "hit": false,
      "t": 24770.833333333336,
      "d": 1505.2083333333321,
      "v": 112
    },
    {
      "midi": 59,
      "hit": false,
      "t": 25005.208333333336,
      "d": 1359.375,
      "v": 102
    },
    {
      "midi": 62,
      "hit": false,
      "t": 25239.583333333336,
      "d": 1609.375,
      "v": 127
    },
    {
      "midi": 67,
      "hit": false,
      "t": 25760.416666666668,
      "d": 1119.7916666666679,
      "v": 124
    },
    {
      "midi": 57,
      "hit": false,
      "t": 26291.666666666668,
      "d": 473.95833333333576,
      "v": 75
    },
    {
      "midi": 50,
      "hit": false,
      "t": 26755.208333333336,
      "d": 2140.625,
      "v": 87
    },
    {
      "midi": 57,
      "hit": false,
      "t": 26781.250000000004,
      "d": 1645.8333333333358,
      "v": 63
    },
    {
      "midi": 62,
      "hit": false,
      "t": 26864.583333333336,
      "d": 1062.5000000000036,
      "v": 84
    },
    {
      "midi": 64,
      "hit": false,
      "t": 26864.583333333336,
      "d": 2031.25,
      "v": 79
    },
    {
      "midi": 66,
      "hit": false,
      "t": 26984.375000000004,
      "d": 1927.0833333333321,
      "v": 84
    },
    {
      "midi": 62,
      "hit": false,
      "t": 27942.70833333334,
      "d": 520.8333333333321,
      "v": 66
    },
    {
      "midi": 57,
      "hit": false,
      "t": 28442.70833333334,
      "d": 447.91666666666424,
      "v": 77
    },
    {
      "midi": 54,
      "hit": false,
      "t": 28937.500000000004,
      "d": 505.2083333333321,
      "v": 78
    },
    {
      "midi": 50,
      "hit": false,
      "t": 29427.083333333336,
      "d": 557.2916666666642,
      "v": 63
    },
    {
      "midi": 64,
      "hit": false,
      "t": 30000,
      "d": 4213.541666666664,
      "v": 88
    },
    {
      "midi": 60,
      "hit": false,
      "t": 30000,
      "d": 4229.166666666664,
      "v": 85
    },
    {
      "midi": 57,
      "hit": false,
      "t": 30000,
      "d": 4239.5833333333285,
      "v": 87
    },
    {
      "midi": 67,
      "hit": false,
      "t": 30000,
      "d": 4239.5833333333285,
      "v": 82
    },
    {
      "midi": 45,
      "hit": false,
      "t": 30000,
      "d": 5968.75,
      "v": 82
    },
    {
      "midi": 57,
      "hit": false,
      "t": 34515.62499999999,
      "d": 1442.7083333333358,
      "v": 65
    },
    {
      "midi": 64,
      "hit": false,
      "t": 34515.62499999999,
      "d": 1442.7083333333358,
      "v": 75
    },
    {
      "midi": 67,
      "hit": false,
      "t": 34515.62499999999,
      "d": 1442.7083333333358,
      "v": 69
    },
    {
      "midi": 60,
      "hit": false,
      "t": 34520.83333333333,
      "d": 1442.7083333333358,
      "v": 66
    },
    {
      "midi": 50,
      "hit": false,
      "t": 35994.791666666664,
      "d": 2963.5416666666642,
      "v": 72
    },
    {
      "midi": 43,
      "hit": false,
      "t": 36000,
      "d": 2963.5416666666642,
      "v": 80
    },
    {
      "midi": 55,
      "hit": false,
      "t": 36000,
      "d": 2963.5416666666642,
      "v": 75
    },
    {
      "midi": 57,
      "hit": false,
      "t": 36000,
      "d": 2963.5416666666642,
      "v": 75
    },
    {
      "midi": 59,
      "hit": false,
      "t": 36000,
      "d": 2963.5416666666642,
      "v": 81
    },
    {
      "midi": 62,
      "hit": false,
      "t": 36010.416666666664,
      "d": 2963.5416666666642,
      "v": 81
    },
    {
      "midi": 50,
      "hit": false,
      "t": 39005.20833333333,
      "d": 2963.5416666666642,
      "v": 77
    },
    {
      "midi": 57,
      "hit": false,
      "t": 39010.416666666664,
      "d": 1932.2916666666642,
      "v": 69
    },
    {
      "midi": 62,
      "hit": false,
      "t": 39010.416666666664,
      "d": 1947.9166666666642,
      "v": 80
    },
    {
      "midi": 54,
      "hit": false,
      "t": 39010.416666666664,
      "d": 1963.5416666666642,
      "v": 73
    },
    {
      "midi": 57,
      "hit": false,
      "t": 41020.83333333333,
      "d": 468.75,
      "v": 72
    },
    {
      "midi": 60,
      "hit": false,
      "t": 41031.24999999999,
      "d": 468.75,
      "v": 70
    },
    {
      "midi": 55,
      "hit": false,
      "t": 41520.83333333333,
      "d": 468.75,
      "v": 62
    },
    {
      "midi": 59,
      "hit": false,
      "t": 41531.24999999999,
      "d": 442.70833333333576,
      "v": 69
    },
    {
      "midi": 52,
      "hit": false,
      "t": 41999.99999999999,
      "d": 1463.5416666666715,
      "v": 74
    },
    {
      "midi": 55,
      "hit": false,
      "t": 41999.99999999999,
      "d": 2963.541666666679,
      "v": 60
    },
    {
      "midi": 45,
      "hit": false,
      "t": 42005.20833333333,
      "d": 1463.5416666666715,
      "v": 66
    },
    {
      "midi": 57,
      "hit": false,
      "t": 42010.416666666664,
      "d": 1463.5416666666715,
      "v": 72
    },
    {
      "midi": 52,
      "hit": false,
      "t": 43500,
      "d": 4463.5416666666715,
      "v": 63
    },
    {
      "midi": 57,
      "hit": false,
      "t": 43500,
      "d": 4463.5416666666715,
      "v": 63
    },
    {
      "midi": 60,
      "hit": false,
      "t": 43500,
      "d": 4463.5416666666715,
      "v": 59
    },
    {
      "midi": 45,
      "hit": false,
      "t": 43505.208333333336,
      "d": 4463.5416666666715,
      "v": 63
    },
    {
      "midi": 67,
      "hit": false,
      "t": 47500.00000000001,
      "d": 3463.5416666666642,
      "v": 115
    },
    {
      "midi": 62,
      "hit": false,
      "t": 48015.62500000001,
      "d": 2963.5416666666642,
      "v": 74
    },
    {
      "midi": 57,
      "hit": false,
      "t": 48020.83333333334,
      "d": 463.54166666666424,
      "v": 83
    },
    {
      "midi": 55,
      "hit": false,
      "t": 48020.83333333334,
      "d": 2963.5416666666642,
      "v": 62
    },
    {
      "midi": 59,
      "hit": false,
      "t": 48020.83333333334,
      "d": 2963.5416666666642,
      "v": 71
    },
    {
      "midi": 43,
      "hit": false,
      "t": 48036.45833333334,
      "d": 2963.5416666666642,
      "v": 78
    },
    {
      "midi": 38,
      "hit": false,
      "t": 51005.20833333334,
      "d": 2963.541666666657,
      "v": 78
    },
    {
      "midi": 50,
      "hit": false,
      "t": 51005.20833333334,
      "d": 2963.541666666657,
      "v": 78
    },
    {
      "midi": 54,
      "hit": false,
      "t": 51010.41666666668,
      "d": 1463.5416666666642,
      "v": 73
    },
    {
      "midi": 57,
      "hit": false,
      "t": 51010.41666666668,
      "d": 1463.5416666666642,
      "v": 74
    },
    {
      "midi": 62,
      "hit": false,
      "t": 51010.41666666668,
      "d": 1463.5416666666642,
      "v": 81
    },
    {
      "midi": 62,
      "hit": false,
      "t": 52500.00000000001,
      "d": 468.75,
      "v": 75
    },
    {
      "midi": 66,
      "hit": false,
      "t": 52510.41666666667,
      "d": 468.75,
      "v": 70
    },
    {
      "midi": 64,
      "hit": false,
      "t": 53015.62500000001,
      "d": 468.75,
      "v": 89
    },
    {
      "midi": 67,
      "hit": false,
      "t": 53026.04166666667,
      "d": 468.75,
      "v": 84
    },
    {
      "midi": 66,
      "hit": false,
      "t": 53536.458333333336,
      "d": 468.75,
      "v": 92
    },
    {
      "midi": 69,
      "hit": false,
      "t": 53546.875,
      "d": 442.70833333333576,
      "v": 85
    },
    {
      "midi": 52,
      "hit": false,
      "t": 54046.875,
      "d": 2963.5416666666715,
      "v": 83
    },
    {
      "midi": 67,
      "hit": false,
      "t": 54046.875,
      "d": 2963.5416666666715,
      "v": 87
    },
    {
      "midi": 45,
      "hit": false,
      "t": 54052.083333333336,
      "d": 2963.5416666666715,
      "v": 80
    },
    {
      "midi": 60,
      "hit": false,
      "t": 54057.29166666667,
      "d": 2963.5416666666715,
      "v": 89
    },
    {
      "midi": 64,
      "hit": false,
      "t": 54057.29166666667,
      "d": 2963.5416666666715,
      "v": 86
    },
    {
      "midi": 57,
      "hit": false,
      "t": 57046.87500000001,
      "d": 1437.5000000000073,
      "v": 75
    },
    {
      "midi": 69,
      "hit": false,
      "t": 57046.87500000001,
      "d": 1437.5000000000073,
      "v": 76
    },
    {
      "midi": 47,
      "hit": false,
      "t": 57052.08333333334,
      "d": 1437.5000000000073,
      "v": 71
    },
    {
      "midi": 62,
      "hit": false,
      "t": 57057.29166666668,
      "d": 1437.5000000000073,
      "v": 78
    },
    {
      "midi": 66,
      "hit": false,
      "t": 57057.29166666668,
      "d": 1437.5000000000073,
      "v": 79
    },
    {
      "midi": 59,
      "hit": false,
      "t": 58546.87500000002,
      "d": 1437.5000000000073,
      "v": 65
    },
    {
      "midi": 62,
      "hit": false,
      "t": 58546.87500000002,
      "d": 1437.5000000000073,
      "v": 67
    },
    {
      "midi": 52,
      "hit": false,
      "t": 58552.08333333336,
      "d": 1437.5000000000073,
      "v": 56
    },
    {
      "midi": 67,
      "hit": false,
      "t": 58557.29166666669,
      "d": 1437.5000000000073,
      "v": 69
    },
    {
      "midi": 71,
      "hit": false,
      "t": 58557.29166666669,
      "d": 1437.5000000000073,
      "v": 67
    },
    {
      "midi": 60,
      "hit": false,
      "t": 60046.87500000004,
      "d": 1432.2916666666715,
      "v": 73
    },
    {
      "midi": 64,
      "hit": false,
      "t": 60046.87500000004,
      "d": 1437.5000000000073,
      "v": 75
    },
    {
      "midi": 48,
      "hit": false,
      "t": 60052.08333333337,
      "d": 3937.5,
      "v": 66
    },
    {
      "midi": 62,
      "hit": false,
      "t": 60057.29166666671,
      "d": 1437.5,
      "v": 74
    },
    {
      "midi": 67,
      "hit": false,
      "t": 60057.29166666671,
      "d": 2937.5,
      "v": 79
    },
    {
      "midi": 60,
      "hit": false,
      "t": 61494.79166666671,
      "d": 494.7916666666715,
      "v": 71
    },
    {
      "midi": 62,
      "hit": false,
      "t": 61750.000000000044,
      "d": 348.95833333333576,
      "v": 47
    },
    {
      "midi": 64,
      "hit": false,
      "t": 62000.000000000044,
      "d": 317.70833333333576,
      "v": 75
    },
    {
      "midi": 84,
      "hit": false,
      "t": 62229.166666666715,
      "d": 322.91666666666424,
      "v": 61
    },
    {
      "midi": 86,
      "hit": false,
      "t": 62479.166666666715,
      "d": 348.9583333333285,
      "v": 63
    },
    {
      "midi": 91,
      "hit": false,
      "t": 62734.375000000044,
      "d": 520.8333333333285,
      "v": 98
    },
    {
      "midi": 90,
      "hit": false,
      "t": 62979.16666666671,
      "d": 708.3333333333285,
      "v": 80
    },
    {
      "midi": 86,
      "hit": false,
      "t": 63500.00000000004,
      "d": 708.3333333333358,
      "v": 58
    },
    {
      "midi": 62,
      "hit": false,
      "t": 64546.875000000044,
      "d": 1432.291666666686,
      "v": 76
    },
    {
      "midi": 66,
      "hit": false,
      "t": 64546.875000000044,
      "d": 1437.5000000000146,
      "v": 84
    },
    {
      "midi": 50,
      "hit": false,
      "t": 64552.08333333338,
      "d": 1437.5000000000073,
      "v": 68
    },
    {
      "midi": 69,
      "hit": false,
      "t": 64557.291666666715,
      "d": 927.0833333333358,
      "v": 85
    },
    {
      "midi": 57,
      "hit": false,
      "t": 64750.00000000005,
      "d": 734.375,
      "v": 58
    },
    {
      "midi": 64,
      "hit": false,
      "t": 65057.291666666715,
      "d": 937.5,
      "v": 75
    },
    {
      "midi": 69,
      "hit": false,
      "t": 65500.00000000005,
      "d": 484.3750000000073,
      "v": 83
    },
    {
      "midi": 74,
      "hit": false,
      "t": 65750.00000000006,
      "d": 234.375,
      "v": 83
    },
    {
      "midi": 72,
      "hit": false,
      "t": 66000.00000000004,
      "d": 291.66666666665697,
      "v": 77
    },
    {
      "midi": 67,
      "hit": false,
      "t": 66020.83333333337,
      "d": 739.583333333343,
      "v": 81
    },
    {
      "midi": 57,
      "hit": false,
      "t": 66020.83333333337,
      "d": 2937.5,
      "v": 80
    },
    {
      "midi": 45,
      "hit": false,
      "t": 66026.0416666667,
      "d": 2937.5,
      "v": 65
    },
    {
      "midi": 60,
      "hit": false,
      "t": 66031.25000000003,
      "d": 1250.0000000000146,
      "v": 84
    },
    {
      "midi": 64,
      "hit": false,
      "t": 66031.25000000003,
      "d": 2937.5,
      "v": 85
    },
    {
      "midi": 71,
      "hit": false,
      "t": 66270.83333333337,
      "d": 291.6666666666715,
      "v": 68
    },
    {
      "midi": 72,
      "hit": false,
      "t": 66520.83333333337,
      "d": 484.37500000001455,
      "v": 96
    },
    {
      "midi": 67,
      "hit": false,
      "t": 66786.45833333339,
      "d": 239.58333333332848,
      "v": 84
    },
    {
      "midi": 62,
      "hit": false,
      "t": 67041.66666666672,
      "d": 234.375,
      "v": 59
    },
    {
      "midi": 60,
      "hit": false,
      "t": 67286.45833333337,
      "d": 234.375,
      "v": 57
    },
    {
      "midi": 52,
      "hit": false,
      "t": 67536.45833333337,
      "d": 1484.3749999999854,
      "v": 64
    },
    {
      "midi": 59,
      "hit": false,
      "t": 69020.83333333336,
      "d": 2937.4999999999854,
      "v": 73
    },
    {
      "midi": 69,
      "hit": false,
      "t": 69020.83333333336,
      "d": 2937.4999999999854,
      "v": 69
    },
    {
      "midi": 47,
      "hit": false,
      "t": 69026.04166666669,
      "d": 2937.4999999999854,
      "v": 67
    },
    {
      "midi": 62,
      "hit": false,
      "t": 69031.25000000001,
      "d": 2937.4999999999854,
      "v": 73
    },
    {
      "midi": 54,
      "hit": false,
      "t": 72020.83333333333,
      "d": 1437.5,
      "v": 75
    },
    {
      "midi": 57,
      "hit": false,
      "t": 72020.83333333333,
      "d": 1437.5,
      "v": 75
    },
    {
      "midi": 50,
      "hit": false,
      "t": 72026.04166666666,
      "d": 1437.5,
      "v": 70
    },
    {
      "midi": 62,
      "hit": false,
      "t": 72031.24999999999,
      "d": 1437.5,
      "v": 70
    },
    {
      "midi": 52,
      "hit": false,
      "t": 74057.29166666666,
      "d": 437.5,
      "v": 72
    },
    {
      "midi": 54,
      "hit": false,
      "t": 74296.87499999999,
      "d": 437.50000000001455,
      "v": 68
    },
    {
      "midi": 57,
      "hit": false,
      "t": 74536.45833333333,
      "d": 437.5,
      "v": 83
    },
    {
      "midi": 62,
      "hit": false,
      "t": 74770.83333333333,
      "d": 187.5,
      "v": 96
    },
    {
      "midi": 57,
      "hit": false,
      "t": 75020.83333333333,
      "d": 1406.2499999999854,
      "v": 84
    },
    {
      "midi": 54,
      "hit": false,
      "t": 75020.83333333333,
      "d": 1437.4999999999854,
      "v": 90
    },
    {
      "midi": 50,
      "hit": false,
      "t": 75026.04166666666,
      "d": 1286.4583333333285,
      "v": 90
    },
    {
      "midi": 38,
      "hit": false,
      "t": 75026.04166666666,
      "d": 1437.4999999999854,
      "v": 91
    },
    {
      "midi": 62,
      "hit": false,
      "t": 75031.24999999999,
      "d": 1437.4999999999854,
      "v": 85
    },
    {
      "midi": 50,
      "hit": false,
      "t": 76333.33333333331,
      "d": 114.58333333332848,
      "v": 57
    },
    {
      "midi": 57,
      "hit": false,
      "t": 76442.70833333331,
      "d": 98.95833333331393,
      "v": 75
    },
    {
      "midi": 59,
      "hit": false,
      "t": 76520.8333333333,
      "d": 1437.5,
      "v": 106
    },
    {
      "midi": 62,
      "hit": false,
      "t": 76520.8333333333,
      "d": 1437.5,
      "v": 101
    },
    {
      "midi": 40,
      "hit": false,
      "t": 76526.04166666663,
      "d": 1437.5,
      "v": 106
    },
    {
      "midi": 52,
      "hit": false,
      "t": 76526.04166666663,
      "d": 1437.5,
      "v": 105
    },
    {
      "midi": 67,
      "hit": false,
      "t": 76531.24999999996,
      "d": 1437.5,
      "v": 101
    },
    {
      "midi": 45,
      "hit": false,
      "t": 77999.99999999996,
      "d": 2968.75,
      "v": 113
    },
    {
      "midi": 57,
      "hit": false,
      "t": 77999.99999999996,
      "d": 2968.75,
      "v": 110
    },
    {
      "midi": 60,
      "hit": false,
      "t": 77999.99999999996,
      "d": 2968.75,
      "v": 107
    },
    {
      "midi": 64,
      "hit": false,
      "t": 77999.99999999996,
      "d": 2968.75,
      "v": 117
    },
    {
      "midi": 67,
      "hit": false,
      "t": 77999.99999999996,
      "d": 2968.75,
      "v": 110
    },
    {
      "midi": 48,
      "hit": false,
      "t": 80999.99999999996,
      "d": 1968.75,
      "v": 110
    },
    {
      "midi": 67,
      "hit": false,
      "t": 81015.62499999996,
      "d": 1468.75,
      "v": 112
    },
    {
      "midi": 55,
      "hit": false,
      "t": 81015.62499999996,
      "d": 2968.75,
      "v": 107
    },
    {
      "midi": 64,
      "hit": false,
      "t": 81015.62499999996,
      "d": 2968.75,
      "v": 118
    },
    {
      "midi": 60,
      "hit": false,
      "t": 81020.83333333328,
      "d": 2968.75,
      "v": 112
    },
    {
      "midi": 72,
      "hit": false,
      "t": 82515.62499999996,
      "d": 1468.75,
      "v": 99
    },
    {
      "midi": 76,
      "hit": false,
      "t": 82541.66666666663,
      "d": 1468.7499999999854,
      "v": 103
    },
    {
      "midi": 79,
      "hit": false,
      "t": 82557.29166666663,
      "d": 1468.7499999999854,
      "v": 119
    },
    {
      "midi": 48,
      "hit": false,
      "t": 82999.99999999996,
      "d": 484.375,
      "v": 84
    },
    {
      "midi": 52,
      "hit": false,
      "t": 83499.99999999996,
      "d": 484.375,
      "v": 86
    },
    {
      "midi": 67,
      "hit": false,
      "t": 83994.79166666661,
      "d": 2963.5416666666715,
      "v": 106
    },
    {
      "midi": 57,
      "hit": false,
      "t": 83999.99999999994,
      "d": 1963.5416666666715,
      "v": 100
    },
    {
      "midi": 59,
      "hit": false,
      "t": 83999.99999999994,
      "d": 2234.375,
      "v": 110
    },
    {
      "midi": 43,
      "hit": false,
      "t": 83999.99999999994,
      "d": 2963.5416666666715,
      "v": 110
    },
    {
      "midi": 55,
      "hit": false,
      "t": 83999.99999999994,
      "d": 2963.5416666666715,
      "v": 102
    },
    {
      "midi": 62,
      "hit": false,
      "t": 84010.41666666661,
      "d": 2473.9583333333285,
      "v": 112
    },
    {
      "midi": 57,
      "hit": false,
      "t": 85999.99999999994,
      "d": 348.9583333333285,
      "v": 99
    },
    {
      "midi": 59,
      "hit": false,
      "t": 86249.99999999994,
      "d": 291.6666666666715,
      "v": 86
    },
    {
      "midi": 62,
      "hit": false,
      "t": 86499.99999999994,
      "d": 494.7916666666715,
      "v": 101
    },
    {
      "midi": 50,
      "hit": false,
      "t": 87005.20833333328,
      "d": 2963.5416666666715,
      "v": 111
    },
    {
      "midi": 57,
      "hit": false,
      "t": 87010.41666666661,
      "d": 1932.2916666666715,
      "v": 107
    },
    {
      "midi": 62,
      "hit": false,
      "t": 87010.41666666661,
      "d": 1947.9166666666715,
      "v": 115
    },
    {
      "midi": 54,
      "hit": false,
      "t": 87010.41666666661,
      "d": 1963.5416666666715,
      "v": 105
    },
    {
      "midi": 57,
      "hit": false,
      "t": 89020.83333333328,
      "d": 468.75,
      "v": 88
    },
    {
      "midi": 60,
      "hit": false,
      "t": 89031.24999999996,
      "d": 468.75,
      "v": 97
    },
    {
      "midi": 55,
      "hit": false,
      "t": 89520.83333333328,
      "d": 468.75,
      "v": 87
    },
    {
      "midi": 59,
      "hit": false,
      "t": 89531.24999999996,
      "d": 442.7083333333285,
      "v": 93
    },
    {
      "midi": 74,
      "hit": false,
      "t": 89531.24999999996,
      "d": 442.7083333333285,
      "v": 102
    },
    {
      "midi": 72,
      "hit": false,
      "t": 89999.99999999996,
      "d": 1463.541666666657,
      "v": 111
    },
    {
      "midi": 55,
      "hit": false,
      "t": 89999.99999999996,
      "d": 2963.5416666666424,
      "v": 102
    },
    {
      "midi": 45,
      "hit": false,
      "t": 90005.20833333328,
      "d": 1463.541666666657,
      "v": 97
    },
    {
      "midi": 57,
      "hit": false,
      "t": 90010.41666666661,
      "d": 1463.541666666657,
      "v": 115
    },
    {
      "midi": 64,
      "hit": false,
      "t": 90010.41666666661,
      "d": 1463.541666666657,
      "v": 115
    },
    {
      "midi": 67,
      "hit": false,
      "t": 90765.62499999994,
      "d": 635.4166666666715,
      "v": 96
    },
    {
      "midi": 71,
      "hit": false,
      "t": 90776.04166666661,
      "d": 635.4166666666715,
      "v": 101
    },
    {
      "midi": 64,
      "hit": false,
      "t": 91499.99999999994,
      "d": 447.91666666665697,
      "v": 92
    },
    {
      "midi": 69,
      "hit": false,
      "t": 91499.99999999994,
      "d": 697.916666666657,
      "v": 96
    },
    {
      "midi": 52,
      "hit": false,
      "t": 91499.99999999994,
      "d": 1463.541666666657,
      "v": 76
    },
    {
      "midi": 57,
      "hit": false,
      "t": 91499.99999999994,
      "d": 1463.541666666657,
      "v": 77
    },
    {
      "midi": 60,
      "hit": false,
      "t": 91499.99999999994,
      "d": 1463.541666666657,
      "v": 71
    },
    {
      "midi": 45,
      "hit": false,
      "t": 91505.20833333327,
      "d": 1463.541666666657,
      "v": 72
    },
    {
      "midi": 64,
      "hit": false,
      "t": 92494.7916666666,
      "d": 473.9583333333285,
      "v": 91
    },
    {
      "midi": 67,
      "hit": false,
      "t": 92494.7916666666,
      "d": 473.9583333333285,
      "v": 86
    },
    {
      "midi": 55,
      "hit": false,
      "t": 92999.99999999993,
      "d": 1484.375,
      "v": 96
    },
    {
      "midi": 60,
      "hit": false,
      "t": 92999.99999999993,
      "d": 1484.375,
      "v": 94
    },
    {
      "midi": 48,
      "hit": false,
      "t": 93005.20833333326,
      "d": 1484.375,
      "v": 97
    },
    {
      "midi": 64,
      "hit": false,
      "t": 93010.41666666658,
      "d": 750,
      "v": 96
    },
    {
      "midi": 62,
      "hit": false,
      "t": 93010.41666666658,
      "d": 1463.5416666666715,
      "v": 92
    },
    {
      "midi": 67,
      "hit": false,
      "t": 93765.62499999991,
      "d": 635.4166666666715,
      "v": 83
    },
    {
      "midi": 64,
      "hit": false,
      "t": 93776.04166666658,
      "d": 635.4166666666715,
      "v": 86
    },
    {
      "midi": 55,
      "hit": false,
      "t": 94499.99999999993,
      "d": 1463.5416666666715,
      "v": 62
    },
    {
      "midi": 60,
      "hit": false,
      "t": 94499.99999999993,
      "d": 1463.5416666666715,
      "v": 62
    },
    {
      "midi": 48,
      "hit": false,
      "t": 94505.20833333326,
      "d": 1463.5416666666715,
      "v": 62
    },
    {
      "midi": 64,
      "hit": false,
      "t": 94515.62499999993,
      "d": 1447.9166666666715,
      "v": 74
    },
    {
      "midi": 67,
      "hit": false,
      "t": 94531.24999999993,
      "d": 1447.9166666666715,
      "v": 85
    },
    {
      "midi": 67,
      "hit": false,
      "t": 96015.62499999993,
      "d": 1713.5416666666715,
      "v": 86
    },
    {
      "midi": 62,
      "hit": false,
      "t": 96015.62499999993,
      "d": 2963.5416666666715,
      "v": 90
    },
    {
      "midi": 57,
      "hit": false,
      "t": 96020.83333333326,
      "d": 463.5416666666715,
      "v": 106
    },
    {
      "midi": 55,
      "hit": false,
      "t": 96020.83333333326,
      "d": 2963.5416666666715,
      "v": 79
    },
    {
      "midi": 59,
      "hit": false,
      "t": 96020.83333333326,
      "d": 2963.5416666666715,
      "v": 89
    },
    {
      "midi": 43,
      "hit": false,
      "t": 96036.45833333326,
      "d": 2963.5416666666715,
      "v": 88
    },
    {
      "midi": 67,
      "hit": false,
      "t": 97749.99999999993,
      "d": 484.375,
      "v": 52
    },
    {
      "midi": 69,
      "hit": false,
      "t": 97999.99999999993,
      "d": 484.375,
      "v": 61
    },
    {
      "midi": 74,
      "hit": false,
      "t": 98249.99999999993,
      "d": 484.375,
      "v": 76
    },
    {
      "midi": 69,
      "hit": false,
      "t": 98499.99999999993,
      "d": 484.375,
      "v": 115
    },
    {
      "midi": 74,
      "hit": false,
      "t": 98749.99999999993,
      "d": 484.37499999998545,
      "v": 127
    },
    {
      "midi": 69,
      "hit": false,
      "t": 98999.99999999993,
      "d": 1458.333333333314,
      "v": 115
    },
    {
      "midi": 38,
      "hit": false,
      "t": 99005.20833333326,
      "d": 2958.333333333314,
      "v": 88
    },
    {
      "midi": 50,
      "hit": false,
      "t": 99005.20833333326,
      "d": 2958.333333333314,
      "v": 89
    },
    {
      "midi": 54,
      "hit": false,
      "t": 99010.41666666658,
      "d": 2958.333333333314,
      "v": 85
    },
    {
      "midi": 57,
      "hit": false,
      "t": 99010.41666666658,
      "d": 2958.333333333314,
      "v": 84
    },
    {
      "midi": 62,
      "hit": false,
      "t": 99010.41666666658,
      "d": 2958.333333333314,
      "v": 95
    },
    {
      "midi": 78,
      "hit": false,
      "t": 100499.99999999991,
      "d": 1458.3333333333285,
      "v": 75
    },
    {
      "midi": 81,
      "hit": false,
      "t": 100515.62499999991,
      "d": 1458.333333333314,
      "v": 96
    },
    {
      "midi": 64,
      "hit": false,
      "t": 101999.9999999999,
      "d": 4213.5416666666715,
      "v": 93
    },
    {
      "midi": 60,
      "hit": false,
      "t": 101999.9999999999,
      "d": 4229.1666666666715,
      "v": 94
    },
    {
      "midi": 57,
      "hit": false,
      "t": 101999.9999999999,
      "d": 4239.583333333343,
      "v": 94
    },
    {
      "midi": 67,
      "hit": false,
      "t": 101999.9999999999,
      "d": 4239.583333333343,
      "v": 96
    },
    {
      "midi": 45,
      "hit": false,
      "t": 101999.9999999999,
      "d": 5968.75,
      "v": 94
    },
    {
      "midi": 57,
      "hit": false,
      "t": 106515.62499999991,
      "d": 1442.7083333333285,
      "v": 80
    },
    {
      "midi": 64,
      "hit": false,
      "t": 106515.62499999991,
      "d": 1442.7083333333285,
      "v": 90
    },
    {
      "midi": 67,
      "hit": false,
      "t": 106515.62499999991,
      "d": 1442.7083333333285,
      "v": 81
    },
    {
      "midi": 60,
      "hit": false,
      "t": 106520.83333333324,
      "d": 1442.7083333333285,
      "v": 87
    },
    {
      "midi": 50,
      "hit": false,
      "t": 107994.79166666657,
      "d": 1463.5416666666715,
      "v": 81
    },
    {
      "midi": 55,
      "hit": false,
      "t": 107999.9999999999,
      "d": 1463.5416666666715,
      "v": 88
    },
    {
      "midi": 57,
      "hit": false,
      "t": 107999.9999999999,
      "d": 1463.5416666666715,
      "v": 81
    },
    {
      "midi": 59,
      "hit": false,
      "t": 107999.9999999999,
      "d": 1463.5416666666715,
      "v": 84
    },
    {
      "midi": 43,
      "hit": false,
      "t": 107999.9999999999,
      "d": 2963.5416666666715,
      "v": 93
    },
    {
      "midi": 62,
      "hit": false,
      "t": 108010.41666666657,
      "d": 1463.5416666666715,
      "v": 87
    },
    {
      "midi": 50,
      "hit": false,
      "t": 109494.79166666657,
      "d": 1463.5416666666715,
      "v": 77
    },
    {
      "midi": 55,
      "hit": false,
      "t": 109499.9999999999,
      "d": 1463.5416666666715,
      "v": 77
    },
    {
      "midi": 57,
      "hit": false,
      "t": 109499.9999999999,
      "d": 1463.5416666666715,
      "v": 76
    },
    {
      "midi": 59,
      "hit": false,
      "t": 109499.9999999999,
      "d": 1463.5416666666715,
      "v": 77
    },
    {
      "midi": 62,
      "hit": false,
      "t": 109510.41666666657,
      "d": 1463.5416666666715,
      "v": 81
    },
    {
      "midi": 50,
      "hit": false,
      "t": 111005.20833333324,
      "d": 2963.541666666686,
      "v": 85
    },
    {
      "midi": 62,
      "hit": false,
      "t": 111010.41666666657,
      "d": 1463.5416666666715,
      "v": 85
    },
    {
      "midi": 57,
      "hit": false,
      "t": 111010.41666666657,
      "d": 1932.291666666686,
      "v": 86
    },
    {
      "midi": 54,
      "hit": false,
      "t": 111010.41666666657,
      "d": 1963.541666666686,
      "v": 86
    },
    {
      "midi": 62,
      "hit": false,
      "t": 112499.99999999991,
      "d": 468.75000000001455,
      "v": 82
    },
    {
      "midi": 66,
      "hit": false,
      "t": 112510.41666666658,
      "d": 468.75,
      "v": 84
    },
    {
      "midi": 64,
      "hit": false,
      "t": 113015.62499999991,
      "d": 468.75,
      "v": 94
    },
    {
      "midi": 67,
      "hit": false,
      "t": 113026.04166666658,
      "d": 468.75,
      "v": 94
    },
    {
      "midi": 66,
      "hit": false,
      "t": 113536.45833333326,
      "d": 468.75,
      "v": 99
    },
    {
      "midi": 69,
      "hit": false,
      "t": 113546.87499999993,
      "d": 442.7083333333285,
      "v": 96
    },
    {
      "midi": 52,
      "hit": false,
      "t": 113999.99999999993,
      "d": 1463.541666666657,
      "v": 83
    },
    {
      "midi": 45,
      "hit": false,
      "t": 114005.20833333326,
      "d": 1463.541666666657,
      "v": 76
    },
    {
      "midi": 57,
      "hit": false,
      "t": 114010.41666666658,
      "d": 1463.541666666657,
      "v": 85
    },
    {
      "midi": 67,
      "hit": false,
      "t": 114046.87499999991,
      "d": 2963.541666666657,
      "v": 94
    },
    {
      "midi": 64,
      "hit": false,
      "t": 114057.29166666658,
      "d": 2963.541666666657,
      "v": 101
    },
    {
      "midi": 57,
      "hit": false,
      "t": 115499.99999999991,
      "d": 3000,
      "v": 76
    },
    {
      "midi": 60,
      "hit": false,
      "t": 115499.99999999991,
      "d": 3005.2083333333285,
      "v": 76
    },
    {
      "midi": 52,
      "hit": false,
      "t": 115499.99999999991,
      "d": 4463.541666666657,
      "v": 82
    },
    {
      "midi": 45,
      "hit": false,
      "t": 115505.20833333324,
      "d": 4463.541666666657,
      "v": 81
    },
    {
      "midi": 67,
      "hit": false,
      "t": 118515.62499999991,
      "d": 942.7083333333285,
      "v": 78
    },
    {
      "midi": 57,
      "hit": false,
      "t": 118515.62499999991,
      "d": 1442.7083333333285,
      "v": 85
    },
    {
      "midi": 64,
      "hit": false,
      "t": 118515.62499999991,
      "d": 1442.7083333333285,
      "v": 90
    },
    {
      "midi": 60,
      "hit": false,
      "t": 118520.83333333324,
      "d": 1442.7083333333285,
      "v": 84
    },
    {
      "midi": 67,
      "hit": false,
      "t": 119499.99999999991,
      "d": 484.37499999998545,
      "v": 100
    },
    {
      "midi": 71,
      "hit": false,
      "t": 119999.9999999999,
      "d": 2963.5416666666715,
      "v": 109
    },
    {
      "midi": 62,
      "hit": false,
      "t": 120015.6249999999,
      "d": 2963.5416666666715,
      "v": 82
    },
    {
      "midi": 57,
      "hit": false,
      "t": 120020.83333333323,
      "d": 463.5416666666715,
      "v": 100
    },
    {
      "midi": 55,
      "hit": false,
      "t": 120020.83333333323,
      "d": 2963.5416666666715,
      "v": 71
    },
    {
      "midi": 59,
      "hit": false,
      "t": 120020.83333333323,
      "d": 2963.5416666666715,
      "v": 86
    },
    {
      "midi": 43,
      "hit": false,
      "t": 120036.45833333323,
      "d": 2963.5416666666715,
      "v": 81
    },
    {
      "midi": 38,
      "hit": false,
      "t": 123005.20833333323,
      "d": 2963.541666666686,
      "v": 83
    },
    {
      "midi": 50,
      "hit": false,
      "t": 123005.20833333323,
      "d": 2963.541666666686,
      "v": 83
    },
    {
      "midi": 54,
      "hit": false,
      "t": 123010.41666666656,
      "d": 1463.5416666666715,
      "v": 84
    },
    {
      "midi": 57,
      "hit": false,
      "t": 123010.41666666656,
      "d": 1463.5416666666715,
      "v": 85
    },
    {
      "midi": 62,
      "hit": false,
      "t": 123010.41666666656,
      "d": 1463.5416666666715,
      "v": 88
    },
    {
      "midi": 62,
      "hit": false,
      "t": 124499.9999999999,
      "d": 468.75,
      "v": 87
    },
    {
      "midi": 66,
      "hit": false,
      "t": 124510.41666666657,
      "d": 468.75,
      "v": 80
    },
    {
      "midi": 72,
      "hit": false,
      "t": 124999.9999999999,
      "d": 484.375,
      "v": 95
    },
    {
      "midi": 64,
      "hit": false,
      "t": 125015.6249999999,
      "d": 468.75,
      "v": 98
    },
    {
      "midi": 67,
      "hit": false,
      "t": 125026.04166666657,
      "d": 468.75,
      "v": 96
    },
    {
      "midi": 62,
      "hit": false,
      "t": 125505.20833333324,
      "d": 468.75,
      "v": 97
    },
    {
      "midi": 71,
      "hit": false,
      "t": 125515.62499999991,
      "d": 442.7083333333285,
      "v": 93
    },
    {
      "midi": 55,
      "hit": false,
      "t": 126046.87499999991,
      "d": 1463.541666666657,
      "v": 97
    },
    {
      "midi": 69,
      "hit": false,
      "t": 126046.87499999991,
      "d": 2942.7083333333285,
      "v": 100
    },
    {
      "midi": 45,
      "hit": false,
      "t": 126052.08333333324,
      "d": 2963.541666666657,
      "v": 89
    },
    {
      "midi": 60,
      "hit": false,
      "t": 126057.29166666657,
      "d": 1463.5416666666715,
      "v": 102
    },
    {
      "midi": 64,
      "hit": false,
      "t": 126057.29166666657,
      "d": 1463.5416666666715,
      "v": 96
    },
    {
      "midi": 55,
      "hit": false,
      "t": 127520.83333333324,
      "d": 1463.5416666666715,
      "v": 68
    },
    {
      "midi": 60,
      "hit": false,
      "t": 127531.24999999991,
      "d": 1463.541666666657,
      "v": 77
    },
    {
      "midi": 64,
      "hit": false,
      "t": 127531.24999999991,
      "d": 1463.541666666657,
      "v": 82
    },
    {
      "midi": 57,
      "hit": false,
      "t": 129005.20833333324,
      "d": 1437.4999999999854,
      "v": 93
    },
    {
      "midi": 69,
      "hit": false,
      "t": 129005.20833333324,
      "d": 1437.4999999999854,
      "v": 97
    },
    {
      "midi": 47,
      "hit": false,
      "t": 129010.41666666657,
      "d": 1437.4999999999854,
      "v": 85
    },
    {
      "midi": 62,
      "hit": false,
      "t": 129015.6249999999,
      "d": 1437.4999999999854,
      "v": 104
    },
    {
      "midi": 66,
      "hit": false,
      "t": 129015.6249999999,
      "d": 1437.4999999999854,
      "v": 101
    },
    {
      "midi": 59,
      "hit": false,
      "t": 130505.20833333321,
      "d": 1437.4999999999854,
      "v": 96
    },
    {
      "midi": 62,
      "hit": false,
      "t": 130505.20833333321,
      "d": 1437.4999999999854,
      "v": 99
    },
    {
      "midi": 52,
      "hit": false,
      "t": 130510.41666666654,
      "d": 1437.5,
      "v": 86
    },
    {
      "midi": 67,
      "hit": false,
      "t": 130515.62499999987,
      "d": 1437.5000000000146,
      "v": 97
    },
    {
      "midi": 71,
      "hit": false,
      "t": 130515.62499999987,
      "d": 1437.5000000000146,
      "v": 103
    },
    {
      "midi": 52,
      "hit": false,
      "t": 131999.99999999988,
      "d": 4437.5,
      "v": 92
    },
    {
      "midi": 48,
      "hit": false,
      "t": 132005.20833333323,
      "d": 4437.5,
      "v": 81
    },
    {
      "midi": 60,
      "hit": false,
      "t": 132010.41666666657,
      "d": 2437.499999999971,
      "v": 96
    },
    {
      "midi": 55,
      "hit": false,
      "t": 132010.41666666657,
      "d": 4437.5,
      "v": 94
    },
    {
      "midi": 62,
      "hit": false,
      "t": 132249.9999999999,
      "d": 739.5833333333139,
      "v": 71
    },
    {
      "midi": 64,
      "hit": false,
      "t": 132499.9999999999,
      "d": 291.66666666665697,
      "v": 65
    },
    {
      "midi": 67,
      "hit": false,
      "t": 132749.9999999999,
      "d": 1234.374999999971,
      "v": 110
    },
    {
      "midi": 62,
      "hit": false,
      "t": 133515.62499999988,
      "d": 239.58333333334303,
      "v": 70
    },
    {
      "midi": 64,
      "hit": false,
      "t": 133749.99999999988,
      "d": 291.66666666665697,
      "v": 66
    },
    {
      "midi": 67,
      "hit": false,
      "t": 133999.99999999988,
      "d": 484.375,
      "v": 109
    },
    {
      "midi": 62,
      "hit": false,
      "t": 134265.62499999988,
      "d": 718.75,
      "v": 74
    },
    {
      "midi": 64,
      "hit": false,
      "t": 134499.99999999988,
      "d": 291.66666666665697,
      "v": 61
    },
    {
      "midi": 60,
      "hit": false,
      "t": 134765.62499999988,
      "d": 1723.9583333333721,
      "v": 74
    },
    {
      "midi": 62,
      "hit": false,
      "t": 134999.99999999988,
      "d": 1479.166666666686,
      "v": 73
    },
    {
      "midi": 64,
      "hit": false,
      "t": 135249.99999999988,
      "d": 1041.666666666657,
      "v": 61
    },
    {
      "midi": 67,
      "hit": false,
      "t": 135499.99999999988,
      "d": 984.3750000000291,
      "v": 114
    },
    {
      "midi": 62,
      "hit": false,
      "t": 136546.8749999999,
      "d": 1437.500000000029,
      "v": 98
    },
    {
      "midi": 66,
      "hit": false,
      "t": 136546.8749999999,
      "d": 1437.500000000029,
      "v": 99
    },
    {
      "midi": 50,
      "hit": false,
      "t": 136552.08333333326,
      "d": 1437.500000000029,
      "v": 92
    },
    {
      "midi": 69,
      "hit": false,
      "t": 136557.2916666666,
      "d": 1437.500000000029,
      "v": 101
    },
    {
      "midi": 55,
      "hit": false,
      "t": 138005.20833333328,
      "d": 1463.541666666686,
      "v": 93
    },
    {
      "midi": 69,
      "hit": false,
      "t": 138005.20833333328,
      "d": 2942.708333333314,
      "v": 96
    },
    {
      "midi": 45,
      "hit": false,
      "t": 138010.41666666663,
      "d": 2963.541666666657,
      "v": 89
    },
    {
      "midi": 60,
      "hit": false,
      "t": 138015.62499999997,
      "d": 1463.541666666657,
      "v": 101
    },
    {
      "midi": 64,
      "hit": false,
      "t": 138015.62499999997,
      "d": 1463.541666666657,
      "v": 103
    },
    {
      "midi": 55,
      "hit": false,
      "t": 139505.20833333328,
      "d": 1463.541666666657,
      "v": 73
    },
    {
      "midi": 60,
      "hit": false,
      "t": 139515.62499999994,
      "d": 1463.541666666686,
      "v": 73
    },
    {
      "midi": 64,
      "hit": false,
      "t": 139515.62499999994,
      "d": 1463.541666666686,
      "v": 84
    },
    {
      "midi": 57,
      "hit": false,
      "t": 141005.20833333328,
      "d": 1463.541666666686,
      "v": 94
    },
    {
      "midi": 71,
      "hit": false,
      "t": 141005.20833333328,
      "d": 2942.708333333314,
      "v": 95
    },
    {
      "midi": 47,
      "hit": false,
      "t": 141010.41666666663,
      "d": 2963.541666666657,
      "v": 84
    },
    {
      "midi": 62,
      "hit": false,
      "t": 141015.62499999997,
      "d": 1463.541666666657,
      "v": 100
    },
    {
      "midi": 66,
      "hit": false,
      "t": 141015.62499999997,
      "d": 1463.541666666657,
      "v": 97
    },
    {
      "midi": 57,
      "hit": false,
      "t": 142505.20833333328,
      "d": 1463.541666666657,
      "v": 69
    },
    {
      "midi": 62,
      "hit": false,
      "t": 142515.62499999994,
      "d": 1463.541666666686,
      "v": 77
    },
    {
      "midi": 66,
      "hit": false,
      "t": 142515.62499999994,
      "d": 1463.541666666686,
      "v": 85
    },
    {
      "midi": 57,
      "hit": false,
      "t": 144020.83333333328,
      "d": 515.6250000000291,
      "v": 91
    },
    {
      "midi": 54,
      "hit": false,
      "t": 144020.83333333328,
      "d": 1437.5000000000582,
      "v": 92
    },
    {
      "midi": 50,
      "hit": false,
      "t": 144026.04166666663,
      "d": 1427.0833333333721,
      "v": 96
    },
    {
      "midi": 62,
      "hit": false,
      "t": 144031.24999999997,
      "d": 750.0000000000291,
      "v": 90
    },
    {
      "midi": 69,
      "hit": false,
      "t": 144031.24999999997,
      "d": 1432.2916666667152,
      "v": 94
    },
    {
      "midi": 57,
      "hit": false,
      "t": 144557.29166666666,
      "d": 937.5000000000291,
      "v": 84
    },
    {
      "midi": 62,
      "hit": false,
      "t": 144796.875,
      "d": 687.5000000000291,
      "v": 82
    },
    {
      "midi": 64,
      "hit": false,
      "t": 145036.45833333334,
      "d": 687.5000000000291,
      "v": 91
    },
    {
      "midi": 66,
      "hit": false,
      "t": 145270.83333333334,
      "d": 687.5000000000291,
      "v": 100
    },
    {
      "midi": 54,
      "hit": false,
      "t": 145520.83333333334,
      "d": 1437.500000000029,
      "v": 95
    },
    {
      "midi": 57,
      "hit": false,
      "t": 145520.83333333334,
      "d": 1437.500000000029,
      "v": 101
    },
    {
      "midi": 50,
      "hit": false,
      "t": 145526.0416666667,
      "d": 1437.500000000029,
      "v": 97
    },
    {
      "midi": 69,
      "hit": false,
      "t": 145531.25000000003,
      "d": 1437.500000000029,
      "v": 97
    },
    {
      "midi": 57,
      "hit": false,
      "t": 147020.8333333334,
      "d": 1406.250000000029,
      "v": 98
    },
    {
      "midi": 54,
      "hit": false,
      "t": 147020.8333333334,
      "d": 1437.500000000029,
      "v": 105
    },
    {
      "midi": 50,
      "hit": false,
      "t": 147026.04166666674,
      "d": 1286.458333333343,
      "v": 104
    },
    {
      "midi": 38,
      "hit": false,
      "t": 147026.04166666674,
      "d": 1437.500000000029,
      "v": 102
    },
    {
      "midi": 62,
      "hit": false,
      "t": 147031.2500000001,
      "d": 1437.500000000029,
      "v": 97
    },
    {
      "midi": 50,
      "hit": false,
      "t": 148333.33333333343,
      "d": 114.58333333334303,
      "v": 69
    },
    {
      "midi": 57,
      "hit": false,
      "t": 148442.70833333343,
      "d": 98.95833333337214,
      "v": 85
    },
    {
      "midi": 59,
      "hit": false,
      "t": 148520.83333333346,
      "d": 1437.5,
      "v": 113
    },
    {
      "midi": 64,
      "hit": false,
      "t": 148520.83333333346,
      "d": 1437.5,
      "v": 108
    },
    {
      "midi": 48,
      "hit": false,
      "t": 148526.0416666668,
      "d": 1437.5,
      "v": 120
    },
    {
      "midi": 52,
      "hit": false,
      "t": 148526.0416666668,
      "d": 1437.5,
      "v": 116
    },
    {
      "midi": 67,
      "hit": false,
      "t": 148531.25000000015,
      "d": 1437.5,
      "v": 107
    },
    {
      "midi": 45,
      "hit": false,
      "t": 150000.00000000015,
      "d": 2468.75,
      "v": 108
    },
    {
      "midi": 57,
      "hit": false,
      "t": 150000.00000000015,
      "d": 2468.75,
      "v": 111
    },
    {
      "midi": 60,
      "hit": false,
      "t": 150000.00000000015,
      "d": 2468.75,
      "v": 107
    },
    {
      "midi": 64,
      "hit": false,
      "t": 150000.00000000015,
      "d": 2468.75,
      "v": 110
    },
    {
      "midi": 67,
      "hit": false,
      "t": 150000.00000000015,
      "d": 2468.75,
      "v": 113
    },
    {
      "midi": 47,
      "hit": false,
      "t": 152500.00000000015,
      "d": 437.5,
      "v": 106
    },
    {
      "midi": 55,
      "hit": false,
      "t": 152500.00000000015,
      "d": 437.5,
      "v": 108
    },
    {
      "midi": 59,
      "hit": false,
      "t": 152500.00000000015,
      "d": 437.5,
      "v": 111
    },
    {
      "midi": 62,
      "hit": false,
      "t": 152500.00000000015,
      "d": 437.5,
      "v": 112
    },
    {
      "midi": 67,
      "hit": false,
      "t": 152500.00000000015,
      "d": 437.5,
      "v": 110
    },
    {
      "midi": 48,
      "hit": false,
      "t": 153000.00000000015,
      "d": 1968.75,
      "v": 109
    },
    {
      "midi": 67,
      "hit": false,
      "t": 153015.62500000015,
      "d": 1468.75,
      "v": 109
    },
    {
      "midi": 55,
      "hit": false,
      "t": 153015.62500000015,
      "d": 2968.75,
      "v": 106
    },
    {
      "midi": 64,
      "hit": false,
      "t": 153015.62500000015,
      "d": 2968.75,
      "v": 114
    },
    {
      "midi": 60,
      "hit": false,
      "t": 153020.8333333335,
      "d": 2968.75,
      "v": 108
    },
    {
      "midi": 72,
      "hit": false,
      "t": 154515.62500000015,
      "d": 1468.75,
      "v": 99
    },
    {
      "midi": 76,
      "hit": false,
      "t": 154541.6666666668,
      "d": 1468.750000000029,
      "v": 106
    },
    {
      "midi": 79,
      "hit": false,
      "t": 154557.2916666668,
      "d": 1468.750000000029,
      "v": 109
    },
    {
      "midi": 48,
      "hit": false,
      "t": 155000.00000000015,
      "d": 484.375,
      "v": 101
    },
    {
      "midi": 52,
      "hit": false,
      "t": 155500.00000000015,
      "d": 484.375,
      "v": 101
    },
    {
      "midi": 67,
      "hit": false,
      "t": 155994.79166666683,
      "d": 2963.541666666657,
      "v": 109
    },
    {
      "midi": 57,
      "hit": false,
      "t": 156000.00000000017,
      "d": 1963.541666666657,
      "v": 103
    },
    {
      "midi": 59,
      "hit": false,
      "t": 156000.00000000017,
      "d": 2234.375,
      "v": 108
    },
    {
      "midi": 43,
      "hit": false,
      "t": 156000.00000000017,
      "d": 2963.541666666657,
      "v": 106
    },
    {
      "midi": 55,
      "hit": false,
      "t": 156000.00000000017,
      "d": 2963.541666666657,
      "v": 104
    },
    {
      "midi": 62,
      "hit": false,
      "t": 156010.41666666683,
      "d": 2473.958333333343,
      "v": 107
    },
    {
      "midi": 57,
      "hit": false,
      "t": 158000.00000000017,
      "d": 348.95833333334303,
      "v": 108
    },
    {
      "midi": 59,
      "hit": false,
      "t": 158250.00000000017,
      "d": 291.66666666665697,
      "v": 99
    },
    {
      "midi": 62,
      "hit": false,
      "t": 158500.00000000017,
      "d": 494.79166666665697,
      "v": 104
    },
    {
      "midi": 50,
      "hit": false,
      "t": 159005.2083333335,
      "d": 2963.541666666657,
      "v": 106
    },
    {
      "midi": 57,
      "hit": false,
      "t": 159010.41666666683,
      "d": 1932.291666666657,
      "v": 106
    },
    {
      "midi": 62,
      "hit": false,
      "t": 159010.41666666683,
      "d": 1947.916666666657,
      "v": 113
    },
    {
      "midi": 54,
      "hit": false,
      "t": 159010.41666666683,
      "d": 1963.541666666657,
      "v": 106
    },
    {
      "midi": 57,
      "hit": false,
      "t": 161020.8333333335,
      "d": 468.75,
      "v": 99
    },
    {
      "midi": 60,
      "hit": false,
      "t": 161031.25000000015,
      "d": 468.75,
      "v": 103
    },
    {
      "midi": 55,
      "hit": false,
      "t": 161520.8333333335,
      "d": 468.75,
      "v": 102
    },
    {
      "midi": 59,
      "hit": false,
      "t": 161531.25000000015,
      "d": 442.70833333334303,
      "v": 101
    },
    {
      "midi": 74,
      "hit": false,
      "t": 161531.25000000015,
      "d": 442.70833333334303,
      "v": 105
    },
    {
      "midi": 72,
      "hit": false,
      "t": 162000.00000000015,
      "d": 1463.541666666686,
      "v": 109
    },
    {
      "midi": 55,
      "hit": false,
      "t": 162000.00000000015,
      "d": 2494.791666666715,
      "v": 103
    },
    {
      "midi": 45,
      "hit": false,
      "t": 162005.2083333335,
      "d": 1463.541666666686,
      "v": 103
    },
    {
      "midi": 57,
      "hit": false,
      "t": 162010.41666666683,
      "d": 1463.541666666686,
      "v": 113
    },
    {
      "midi": 64,
      "hit": false,
      "t": 162010.41666666683,
      "d": 1463.541666666686,
      "v": 109
    },
    {
      "midi": 67,
      "hit": false,
      "t": 162765.62500000017,
      "d": 635.416666666657,
      "v": 103
    },
    {
      "midi": 71,
      "hit": false,
      "t": 162776.04166666683,
      "d": 635.416666666657,
      "v": 104
    },
    {
      "midi": 52,
      "hit": false,
      "t": 163500.00000000017,
      "d": 963.5416666666861,
      "v": 93
    },
    {
      "midi": 57,
      "hit": false,
      "t": 163500.00000000017,
      "d": 963.5416666666861,
      "v": 98
    },
    {
      "midi": 60,
      "hit": false,
      "t": 163500.00000000017,
      "d": 963.5416666666861,
      "v": 92
    },
    {
      "midi": 64,
      "hit": false,
      "t": 163500.00000000017,
      "d": 963.5416666666861,
      "v": 101
    },
    {
      "midi": 69,
      "hit": false,
      "t": 163500.00000000017,
      "d": 963.5416666666861,
      "v": 103
    },
    {
      "midi": 45,
      "hit": false,
      "t": 163505.20833333352,
      "d": 963.5416666666861,
      "v": 108
    },
    {
      "midi": 47,
      "hit": false,
      "t": 164500.0000000002,
      "d": 437.5,
      "v": 110
    },
    {
      "midi": 55,
      "hit": false,
      "t": 164500.0000000002,
      "d": 437.5,
      "v": 105
    },
    {
      "midi": 59,
      "hit": false,
      "t": 164500.0000000002,
      "d": 437.5,
      "v": 112
    },
    {
      "midi": 62,
      "hit": false,
      "t": 164500.0000000002,
      "d": 437.5,
      "v": 112
    },
    {
      "midi": 67,
      "hit": false,
      "t": 164500.0000000002,
      "d": 437.5,
      "v": 106
    },
    {
      "midi": 55,
      "hit": false,
      "t": 165000.0000000002,
      "d": 1463.541666666686,
      "v": 101
    },
    {
      "midi": 60,
      "hit": false,
      "t": 165000.0000000002,
      "d": 1484.375,
      "v": 99
    },
    {
      "midi": 48,
      "hit": false,
      "t": 165005.20833333355,
      "d": 1484.375,
      "v": 103
    },
    {
      "midi": 64,
      "hit": false,
      "t": 165010.4166666669,
      "d": 750,
      "v": 98
    },
    {
      "midi": 62,
      "hit": false,
      "t": 165010.4166666669,
      "d": 1463.541666666657,
      "v": 101
    },
    {
      "midi": 67,
      "hit": false,
      "t": 165765.62500000023,
      "d": 635.416666666657,
      "v": 99
    },
    {
      "midi": 64,
      "hit": false,
      "t": 165776.0416666669,
      "d": 635.416666666657,
      "v": 92
    },
    {
      "midi": 55,
      "hit": false,
      "t": 166500.0000000002,
      "d": 1463.541666666657,
      "v": 90
    },
    {
      "midi": 60,
      "hit": false,
      "t": 166500.0000000002,
      "d": 1463.541666666657,
      "v": 83
    },
    {
      "midi": 48,
      "hit": false,
      "t": 166505.20833333355,
      "d": 1463.541666666657,
      "v": 86
    },
    {
      "midi": 64,
      "hit": false,
      "t": 166515.6250000002,
      "d": 1447.916666666657,
      "v": 89
    },
    {
      "midi": 67,
      "hit": false,
      "t": 166531.2500000002,
      "d": 1447.916666666657,
      "v": 98
    },
    {
      "midi": 67,
      "hit": false,
      "t": 168015.6250000002,
      "d": 1713.541666666657,
      "v": 101
    },
    {
      "midi": 62,
      "hit": false,
      "t": 168015.6250000002,
      "d": 2963.541666666657,
      "v": 97
    },
    {
      "midi": 57,
      "hit": false,
      "t": 168020.83333333355,
      "d": 463.54166666665697,
      "v": 107
    },
    {
      "midi": 55,
      "hit": false,
      "t": 168020.83333333355,
      "d": 2963.541666666657,
      "v": 89
    },
    {
      "midi": 59,
      "hit": false,
      "t": 168020.83333333355,
      "d": 2963.541666666657,
      "v": 100
    },
    {
      "midi": 43,
      "hit": false,
      "t": 168036.45833333355,
      "d": 2963.541666666657,
      "v": 98
    },
    {
      "midi": 67,
      "hit": false,
      "t": 169750.0000000002,
      "d": 484.375,
      "v": 83
    },
    {
      "midi": 69,
      "hit": false,
      "t": 170000.0000000002,
      "d": 484.375,
      "v": 93
    },
    {
      "midi": 74,
      "hit": false,
      "t": 170250.0000000002,
      "d": 484.375,
      "v": 95
    },
    {
      "midi": 69,
      "hit": false,
      "t": 170500.0000000002,
      "d": 484.375,
      "v": 118
    },
    {
      "midi": 74,
      "hit": false,
      "t": 170750.0000000002,
      "d": 484.3750000000291,
      "v": 126
    },
    {
      "midi": 69,
      "hit": false,
      "t": 171000.0000000002,
      "d": 1458.3333333333721,
      "v": 119
    },
    {
      "midi": 38,
      "hit": false,
      "t": 171005.20833333355,
      "d": 2958.333333333372,
      "v": 106
    },
    {
      "midi": 50,
      "hit": false,
      "t": 171005.20833333355,
      "d": 2958.333333333372,
      "v": 105
    },
    {
      "midi": 54,
      "hit": false,
      "t": 171010.4166666669,
      "d": 2958.333333333372,
      "v": 105
    },
    {
      "midi": 57,
      "hit": false,
      "t": 171010.4166666669,
      "d": 2958.333333333372,
      "v": 106
    },
    {
      "midi": 62,
      "hit": false,
      "t": 171010.4166666669,
      "d": 2958.333333333372,
      "v": 106
    },
    {
      "midi": 78,
      "hit": false,
      "t": 172500.00000000023,
      "d": 1458.333333333343,
      "v": 97
    },
    {
      "midi": 81,
      "hit": false,
      "t": 172515.62500000023,
      "d": 1458.3333333333721,
      "v": 110
    },
    {
      "midi": 45,
      "hit": false,
      "t": 174000.00000000026,
      "d": 2468.75,
      "v": 110
    },
    {
      "midi": 57,
      "hit": false,
      "t": 174000.00000000026,
      "d": 2468.75,
      "v": 108
    },
    {
      "midi": 60,
      "hit": false,
      "t": 174000.00000000026,
      "d": 2468.75,
      "v": 109
    },
    {
      "midi": 64,
      "hit": false,
      "t": 174000.00000000026,
      "d": 2468.75,
      "v": 110
    },
    {
      "midi": 67,
      "hit": false,
      "t": 174000.00000000026,
      "d": 2468.75,
      "v": 112
    },
    {
      "midi": 47,
      "hit": false,
      "t": 176500.00000000026,
      "d": 437.5,
      "v": 107
    },
    {
      "midi": 55,
      "hit": false,
      "t": 176500.00000000026,
      "d": 437.5,
      "v": 111
    },
    {
      "midi": 59,
      "hit": false,
      "t": 176500.00000000026,
      "d": 437.5,
      "v": 110
    },
    {
      "midi": 62,
      "hit": false,
      "t": 176500.00000000026,
      "d": 437.5,
      "v": 111
    },
    {
      "midi": 67,
      "hit": false,
      "t": 176500.00000000026,
      "d": 437.5,
      "v": 112
    },
    {
      "midi": 48,
      "hit": false,
      "t": 177000.00000000026,
      "d": 1968.75,
      "v": 107
    },
    {
      "midi": 67,
      "hit": false,
      "t": 177015.62500000026,
      "d": 1468.75,
      "v": 111
    },
    {
      "midi": 55,
      "hit": false,
      "t": 177015.62500000026,
      "d": 2968.75,
      "v": 108
    },
    {
      "midi": 64,
      "hit": false,
      "t": 177015.62500000026,
      "d": 2968.75,
      "v": 111
    },
    {
      "midi": 60,
      "hit": false,
      "t": 177020.8333333336,
      "d": 2968.75,
      "v": 112
    },
    {
      "midi": 72,
      "hit": false,
      "t": 178515.62500000026,
      "d": 1468.75,
      "v": 103
    },
    {
      "midi": 76,
      "hit": false,
      "t": 178541.66666666692,
      "d": 1468.750000000029,
      "v": 105
    },
    {
      "midi": 79,
      "hit": false,
      "t": 178557.29166666692,
      "d": 1468.750000000029,
      "v": 115
    },
    {
      "midi": 48,
      "hit": false,
      "t": 179000.00000000026,
      "d": 484.375,
      "v": 96
    },
    {
      "midi": 52,
      "hit": false,
      "t": 179500.00000000026,
      "d": 484.375,
      "v": 100
    },
    {
      "midi": 67,
      "hit": false,
      "t": 179994.79166666695,
      "d": 2963.541666666657,
      "v": 104
    },
    {
      "midi": 57,
      "hit": false,
      "t": 180000.0000000003,
      "d": 1963.541666666657,
      "v": 103
    },
    {
      "midi": 59,
      "hit": false,
      "t": 180000.0000000003,
      "d": 2234.375,
      "v": 107
    },
    {
      "midi": 43,
      "hit": false,
      "t": 180000.0000000003,
      "d": 2963.541666666657,
      "v": 106
    },
    {
      "midi": 55,
      "hit": false,
      "t": 180000.0000000003,
      "d": 2963.541666666657,
      "v": 105
    },
    {
      "midi": 62,
      "hit": false,
      "t": 180010.41666666695,
      "d": 2473.958333333343,
      "v": 109
    },
    {
      "midi": 57,
      "hit": false,
      "t": 182000.0000000003,
      "d": 348.95833333334303,
      "v": 107
    },
    {
      "midi": 59,
      "hit": false,
      "t": 182250.0000000003,
      "d": 291.66666666665697,
      "v": 101
    },
    {
      "midi": 62,
      "hit": false,
      "t": 182500.0000000003,
      "d": 494.79166666665697,
      "v": 102
    },
    {
      "midi": 50,
      "hit": false,
      "t": 183005.2083333336,
      "d": 2963.541666666657,
      "v": 105
    },
    {
      "midi": 57,
      "hit": false,
      "t": 183010.41666666695,
      "d": 1932.291666666657,
      "v": 105
    },
    {
      "midi": 62,
      "hit": false,
      "t": 183010.41666666695,
      "d": 1947.916666666657,
      "v": 107
    },
    {
      "midi": 54,
      "hit": false,
      "t": 183010.41666666695,
      "d": 1963.541666666657,
      "v": 108
    },
    {
      "midi": 57,
      "hit": false,
      "t": 185020.8333333336,
      "d": 468.75,
      "v": 102
    },
    {
      "midi": 60,
      "hit": false,
      "t": 185031.25000000026,
      "d": 468.75,
      "v": 105
    },
    {
      "midi": 55,
      "hit": false,
      "t": 185520.8333333336,
      "d": 468.75,
      "v": 95
    },
    {
      "midi": 59,
      "hit": false,
      "t": 185531.25000000026,
      "d": 442.70833333334303,
      "v": 99
    },
    {
      "midi": 74,
      "hit": false,
      "t": 185531.25000000026,
      "d": 442.70833333334303,
      "v": 106
    },
    {
      "midi": 72,
      "hit": false,
      "t": 186000.00000000026,
      "d": 1463.541666666686,
      "v": 106
    },
    {
      "midi": 55,
      "hit": false,
      "t": 186000.00000000026,
      "d": 2494.791666666715,
      "v": 102
    },
    {
      "midi": 45,
      "hit": false,
      "t": 186005.2083333336,
      "d": 1463.541666666686,
      "v": 102
    },
    {
      "midi": 57,
      "hit": false,
      "t": 186010.41666666695,
      "d": 1463.541666666686,
      "v": 109
    },
    {
      "midi": 64,
      "hit": false,
      "t": 186010.41666666695,
      "d": 1463.541666666686,
      "v": 107
    },
    {
      "midi": 67,
      "hit": false,
      "t": 186765.6250000003,
      "d": 635.416666666657,
      "v": 100
    },
    {
      "midi": 71,
      "hit": false,
      "t": 186776.04166666695,
      "d": 635.416666666657,
      "v": 100
    },
    {
      "midi": 52,
      "hit": false,
      "t": 187500.0000000003,
      "d": 963.5416666666861,
      "v": 91
    },
    {
      "midi": 57,
      "hit": false,
      "t": 187500.0000000003,
      "d": 963.5416666666861,
      "v": 97
    },
    {
      "midi": 60,
      "hit": false,
      "t": 187500.0000000003,
      "d": 963.5416666666861,
      "v": 89
    },
    {
      "midi": 64,
      "hit": false,
      "t": 187500.0000000003,
      "d": 963.5416666666861,
      "v": 98
    },
    {
      "midi": 69,
      "hit": false,
      "t": 187500.0000000003,
      "d": 963.5416666666861,
      "v": 106
    },
    {
      "midi": 45,
      "hit": false,
      "t": 187505.20833333363,
      "d": 963.5416666666861,
      "v": 109
    },
    {
      "midi": 47,
      "hit": false,
      "t": 188500.00000000032,
      "d": 437.5,
      "v": 108
    },
    {
      "midi": 55,
      "hit": false,
      "t": 188500.00000000032,
      "d": 437.5,
      "v": 105
    },
    {
      "midi": 59,
      "hit": false,
      "t": 188500.00000000032,
      "d": 437.5,
      "v": 109
    },
    {
      "midi": 62,
      "hit": false,
      "t": 188500.00000000032,
      "d": 437.5,
      "v": 108
    },
    {
      "midi": 67,
      "hit": false,
      "t": 188500.00000000032,
      "d": 437.5,
      "v": 110
    },
    {
      "midi": 55,
      "hit": false,
      "t": 189000.00000000032,
      "d": 1463.541666666686,
      "v": 105
    },
    {
      "midi": 60,
      "hit": false,
      "t": 189000.00000000032,
      "d": 1484.375,
      "v": 100
    },
    {
      "midi": 48,
      "hit": false,
      "t": 189005.20833333366,
      "d": 1484.375,
      "v": 100
    },
    {
      "midi": 64,
      "hit": false,
      "t": 189010.416666667,
      "d": 750,
      "v": 100
    },
    {
      "midi": 62,
      "hit": false,
      "t": 189010.416666667,
      "d": 1463.541666666657,
      "v": 104
    },
    {
      "midi": 67,
      "hit": false,
      "t": 189765.62500000035,
      "d": 635.416666666657,
      "v": 99
    },
    {
      "midi": 64,
      "hit": false,
      "t": 189776.041666667,
      "d": 635.416666666657,
      "v": 95
    },
    {
      "midi": 55,
      "hit": false,
      "t": 190500.00000000032,
      "d": 1463.541666666657,
      "v": 87
    },
    {
      "midi": 60,
      "hit": false,
      "t": 190500.00000000032,
      "d": 1463.541666666657,
      "v": 82
    },
    {
      "midi": 48,
      "hit": false,
      "t": 190505.20833333366,
      "d": 1463.541666666657,
      "v": 84
    },
    {
      "midi": 64,
      "hit": false,
      "t": 190515.62500000032,
      "d": 1447.916666666657,
      "v": 96
    },
    {
      "midi": 67,
      "hit": false,
      "t": 190531.25000000032,
      "d": 1447.916666666657,
      "v": 96
    },
    {
      "midi": 67,
      "hit": false,
      "t": 192015.62500000032,
      "d": 1713.541666666657,
      "v": 98
    },
    {
      "midi": 62,
      "hit": false,
      "t": 192015.62500000032,
      "d": 2963.541666666657,
      "v": 98
    },
    {
      "midi": 57,
      "hit": false,
      "t": 192020.83333333366,
      "d": 463.54166666665697,
      "v": 105
    },
    {
      "midi": 55,
      "hit": false,
      "t": 192020.83333333366,
      "d": 2963.541666666657,
      "v": 96
    },
    {
      "midi": 59,
      "hit": false,
      "t": 192020.83333333366,
      "d": 2963.541666666657,
      "v": 101
    },
    {
      "midi": 43,
      "hit": false,
      "t": 192036.45833333366,
      "d": 2963.541666666657,
      "v": 99
    },
    {
      "midi": 67,
      "hit": false,
      "t": 193750.00000000032,
      "d": 484.375,
      "v": 85
    },
    {
      "midi": 69,
      "hit": false,
      "t": 194000.00000000032,
      "d": 484.375,
      "v": 90
    },
    {
      "midi": 74,
      "hit": false,
      "t": 194250.00000000032,
      "d": 484.375,
      "v": 94
    },
    {
      "midi": 69,
      "hit": false,
      "t": 194500.00000000032,
      "d": 484.375,
      "v": 114
    },
    {
      "midi": 74,
      "hit": false,
      "t": 194750.00000000032,
      "d": 484.3750000000291,
      "v": 124
    },
    {
      "midi": 38,
      "hit": false,
      "t": 195005.20833333366,
      "d": 2958.333333333372,
      "v": 105
    },
    {
      "midi": 50,
      "hit": false,
      "t": 195005.20833333366,
      "d": 2958.333333333372,
      "v": 105
    },
    {
      "midi": 54,
      "hit": false,
      "t": 195010.416666667,
      "d": 2958.333333333372,
      "v": 106
    },
    {
      "midi": 57,
      "hit": false,
      "t": 195010.416666667,
      "d": 2958.333333333372,
      "v": 101
    },
    {
      "midi": 62,
      "hit": false,
      "t": 195010.416666667,
      "d": 2958.333333333372,
      "v": 112
    },
    {
      "midi": 67,
      "hit": false,
      "t": 195750.00000000035,
      "d": 1458.333333333343,
      "v": 100
    },
    {
      "midi": 69,
      "hit": false,
      "t": 196500.00000000035,
      "d": 1458.333333333343,
      "v": 119
    },
    {
      "midi": 74,
      "hit": false,
      "t": 197250.00000000035,
      "d": 708.333333333343,
      "v": 101
    },
    {
      "midi": 48,
      "hit": false,
      "t": 198000.00000000038,
      "d": 2958.333333333343,
      "v": 100
    },
    {
      "midi": 60,
      "hit": false,
      "t": 198000.00000000038,
      "d": 2958.333333333343,
      "v": 105
    },
    {
      "midi": 62,
      "hit": false,
      "t": 198000.00000000038,
      "d": 2958.333333333343,
      "v": 107
    },
    {
      "midi": 64,
      "hit": false,
      "t": 198000.00000000038,
      "d": 2958.333333333343,
      "v": 102
    },
    {
      "midi": 67,
      "hit": false,
      "t": 198000.00000000038,
      "d": 2958.333333333343,
      "v": 105
    },
    {
      "midi": 47,
      "hit": false,
      "t": 200994.79166666706,
      "d": 2963.541666666657,
      "v": 105
    },
    {
      "midi": 55,
      "hit": false,
      "t": 201000.0000000004,
      "d": 2963.541666666657,
      "v": 107
    },
    {
      "midi": 59,
      "hit": false,
      "t": 201000.0000000004,
      "d": 2963.541666666657,
      "v": 111
    },
    {
      "midi": 62,
      "hit": false,
      "t": 201010.41666666706,
      "d": 2963.541666666657,
      "v": 113
    },
    {
      "midi": 52,
      "hit": false,
      "t": 204000.00000000038,
      "d": 1463.541666666686,
      "v": 104
    },
    {
      "midi": 45,
      "hit": false,
      "t": 204005.20833333372,
      "d": 2963.541666666657,
      "v": 100
    },
    {
      "midi": 57,
      "hit": false,
      "t": 204010.41666666706,
      "d": 1463.541666666657,
      "v": 103
    },
    {
      "midi": 67,
      "hit": false,
      "t": 204046.8750000004,
      "d": 2963.541666666657,
      "v": 107
    },
    {
      "midi": 64,
      "hit": false,
      "t": 204057.29166666706,
      "d": 2963.541666666657,
      "v": 114
    },
    {
      "midi": 52,
      "hit": false,
      "t": 205500.00000000038,
      "d": 1500,
      "v": 100
    },
    {
      "midi": 60,
      "hit": false,
      "t": 205500.00000000038,
      "d": 3005.208333333343,
      "v": 101
    },
    {
      "midi": 57,
      "hit": false,
      "t": 205500.00000000038,
      "d": 3442.708333333343,
      "v": 98
    },
    {
      "midi": 52,
      "hit": false,
      "t": 207005.20833333372,
      "d": 1458.333333333343,
      "v": 106
    },
    {
      "midi": 55,
      "hit": false,
      "t": 207010.41666666706,
      "d": 1463.541666666657,
      "v": 101
    },
    {
      "midi": 62,
      "hit": false,
      "t": 207010.41666666706,
      "d": 1463.541666666657,
      "v": 102
    },
    {
      "midi": 59,
      "hit": false,
      "t": 207010.41666666706,
      "d": 1489.583333333314,
      "v": 97
    },
    {
      "midi": 62,
      "hit": false,
      "t": 208500.00000000038,
      "d": 1468.750000000029,
      "v": 104
    },
    {
      "midi": 50,
      "hit": false,
      "t": 208505.20833333372,
      "d": 1458.333333333343,
      "v": 101
    },
    {
      "midi": 55,
      "hit": false,
      "t": 208505.20833333372,
      "d": 1458.333333333343,
      "v": 102
    },
    {
      "midi": 59,
      "hit": false,
      "t": 208510.41666666706,
      "d": 1468.75,
      "v": 102
    },
    {
      "midi": 60,
      "hit": false,
      "t": 210000.0000000004,
      "d": 2963.541666666686,
      "v": 93
    },
    {
      "midi": 67,
      "hit": false,
      "t": 210000.0000000004,
      "d": 2963.541666666686,
      "v": 106
    },
    {
      "midi": 48,
      "hit": false,
      "t": 210005.20833333375,
      "d": 2963.541666666686,
      "v": 90
    },
    {
      "midi": 62,
      "hit": false,
      "t": 210010.4166666671,
      "d": 2963.541666666686,
      "v": 97
    },
    {
      "midi": 64,
      "hit": false,
      "t": 210010.4166666671,
      "d": 2963.541666666686,
      "v": 110
    },
    {
      "midi": 52,
      "hit": false,
      "t": 213005.20833333378,
      "d": 1458.333333333343,
      "v": 101
    },
    {
      "midi": 55,
      "hit": false,
      "t": 213010.41666666712,
      "d": 1463.541666666657,
      "v": 102
    },
    {
      "midi": 62,
      "hit": false,
      "t": 213010.41666666712,
      "d": 1463.541666666657,
      "v": 100
    },
    {
      "midi": 59,
      "hit": false,
      "t": 213010.41666666712,
      "d": 1489.583333333314,
      "v": 98
    },
    {
      "midi": 62,
      "hit": false,
      "t": 214500.00000000044,
      "d": 1468.750000000029,
      "v": 102
    },
    {
      "midi": 47,
      "hit": false,
      "t": 214505.20833333378,
      "d": 1458.333333333343,
      "v": 103
    },
    {
      "midi": 55,
      "hit": false,
      "t": 214505.20833333378,
      "d": 1458.333333333343,
      "v": 104
    },
    {
      "midi": 59,
      "hit": false,
      "t": 214510.41666666712,
      "d": 1468.75,
      "v": 99
    },
    {
      "midi": 67,
      "hit": false,
      "t": 216000.00000000047,
      "d": 713.5416666666861,
      "v": 104
    },
    {
      "midi": 57,
      "hit": false,
      "t": 216000.00000000047,
      "d": 1463.541666666686,
      "v": 100
    },
    {
      "midi": 45,
      "hit": false,
      "t": 216005.2083333338,
      "d": 1463.541666666686,
      "v": 89
    },
    {
      "midi": 60,
      "hit": false,
      "t": 216010.41666666715,
      "d": 1463.541666666686,
      "v": 100
    },
    {
      "midi": 64,
      "hit": false,
      "t": 216010.41666666715,
      "d": 1463.541666666686,
      "v": 109
    },
    {
      "midi": 67,
      "hit": false,
      "t": 216750.0000000005,
      "d": 713.541666666657,
      "v": 108
    },
    {
      "midi": 57,
      "hit": false,
      "t": 217500.0000000005,
      "d": 1463.541666666686,
      "v": 97
    },
    {
      "midi": 66,
      "hit": false,
      "t": 217500.0000000005,
      "d": 1463.541666666686,
      "v": 107
    },
    {
      "midi": 50,
      "hit": false,
      "t": 217505.20833333384,
      "d": 1463.541666666686,
      "v": 91
    },
    {
      "midi": 60,
      "hit": false,
      "t": 217510.41666666718,
      "d": 1463.541666666686,
      "v": 102
    },
    {
      "midi": 62,
      "hit": false,
      "t": 217510.41666666718,
      "d": 1463.541666666686,
      "v": 113
    },
    {
      "midi": 69,
      "hit": false,
      "t": 218500.00000000052,
      "d": 463.54166666665697,
      "v": 105
    },
    {
      "midi": 59,
      "hit": false,
      "t": 219000.00000000052,
      "d": 1463.541666666657,
      "v": 101
    },
    {
      "midi": 71,
      "hit": false,
      "t": 219000.00000000052,
      "d": 1463.541666666657,
      "v": 105
    },
    {
      "midi": 51,
      "hit": false,
      "t": 219005.20833333387,
      "d": 1463.541666666657,
      "v": 93
    },
    {
      "midi": 66,
      "hit": false,
      "t": 219010.4166666672,
      "d": 713.541666666657,
      "v": 109
    },
    {
      "midi": 63,
      "hit": false,
      "t": 219010.4166666672,
      "d": 1463.541666666657,
      "v": 104
    },
    {
      "midi": 66,
      "hit": false,
      "t": 219750.00000000052,
      "d": 713.541666666657,
      "v": 111
    },
    {
      "midi": 64,
      "hit": false,
      "t": 220500.00000000052,
      "d": 468.7500000000291,
      "v": 97
    },
    {
      "midi": 59,
      "hit": false,
      "t": 220500.00000000052,
      "d": 1463.541666666686,
      "v": 103
    },
    {
      "midi": 52,
      "hit": false,
      "t": 220505.20833333387,
      "d": 1463.541666666686,
      "v": 95
    },
    {
      "midi": 67,
      "hit": false,
      "t": 220510.4166666672,
      "d": 468.75,
      "v": 98
    },
    {
      "midi": 71,
      "hit": false,
      "t": 221000.00000000055,
      "d": 484.375,
      "v": 105
    },
    {
      "midi": 64,
      "hit": false,
      "t": 221015.62500000055,
      "d": 468.75,
      "v": 107
    },
    {
      "midi": 67,
      "hit": false,
      "t": 221026.0416666672,
      "d": 468.75,
      "v": 102
    },
    {
      "midi": 62,
      "hit": false,
      "t": 221505.20833333387,
      "d": 468.7500000000291,
      "v": 108
    },
    {
      "midi": 69,
      "hit": false,
      "t": 221515.62500000052,
      "d": 442.70833333334303,
      "v": 103
    },
    {
      "midi": 67,
      "hit": false,
      "t": 222046.87500000055,
      "d": 1442.708333333343,
      "v": 108
    },
    {
      "midi": 55,
      "hit": false,
      "t": 222046.87500000055,
      "d": 1463.541666666686,
      "v": 105
    },
    {
      "midi": 48,
      "hit": false,
      "t": 222052.0833333339,
      "d": 1442.708333333343,
      "v": 98
    },
    {
      "midi": 60,
      "hit": false,
      "t": 222057.29166666724,
      "d": 1463.541666666657,
      "v": 105
    },
    {
      "midi": 64,
      "hit": false,
      "t": 222057.29166666724,
      "d": 1463.541666666657,
      "v": 105
    },
    {
      "midi": 55,
      "hit": false,
      "t": 223520.8333333339,
      "d": 1463.541666666657,
      "v": 96
    },
    {
      "midi": 61,
      "hit": false,
      "t": 223531.25000000055,
      "d": 1463.541666666657,
      "v": 100
    },
    {
      "midi": 64,
      "hit": false,
      "t": 223531.25000000055,
      "d": 1463.541666666657,
      "v": 101
    },
    {
      "midi": 67,
      "hit": false,
      "t": 223531.25000000055,
      "d": 1463.541666666657,
      "v": 107
    },
    {
      "midi": 49,
      "hit": false,
      "t": 223552.0833333339,
      "d": 1442.708333333314,
      "v": 110
    },
    {
      "midi": 57,
      "hit": false,
      "t": 225005.20833333387,
      "d": 2937.500000000029,
      "v": 96
    },
    {
      "midi": 69,
      "hit": false,
      "t": 225005.20833333387,
      "d": 2937.500000000029,
      "v": 100
    },
    {
      "midi": 50,
      "hit": false,
      "t": 225010.4166666672,
      "d": 2937.500000000029,
      "v": 97
    },
    {
      "midi": 62,
      "hit": false,
      "t": 225015.62500000055,
      "d": 2937.500000000029,
      "v": 102
    },
    {
      "midi": 67,
      "hit": false,
      "t": 225015.62500000055,
      "d": 2937.500000000029,
      "v": 101
    },
    {
      "midi": 57,
      "hit": false,
      "t": 228005.20833333393,
      "d": 2937.500000000029,
      "v": 85
    },
    {
      "midi": 69,
      "hit": false,
      "t": 228005.20833333393,
      "d": 2937.500000000029,
      "v": 87
    },
    {
      "midi": 50,
      "hit": false,
      "t": 228010.41666666727,
      "d": 2937.500000000029,
      "v": 84
    },
    {
      "midi": 62,
      "hit": false,
      "t": 228015.6250000006,
      "d": 2937.500000000029,
      "v": 91
    },
    {
      "midi": 66,
      "hit": false,
      "t": 228015.6250000006,
      "d": 2937.500000000029,
      "v": 92
    },
    {
      "midi": 55,
      "hit": false,
      "t": 231046.87500000064,
      "d": 1463.541666666686,
      "v": 96
    },
    {
      "midi": 69,
      "hit": false,
      "t": 231046.87500000064,
      "d": 2942.708333333343,
      "v": 93
    },
    {
      "midi": 45,
      "hit": false,
      "t": 231052.08333333398,
      "d": 2963.541666666686,
      "v": 87
    },
    {
      "midi": 60,
      "hit": false,
      "t": 231057.29166666733,
      "d": 1463.541666666657,
      "v": 102
    },
    {
      "midi": 64,
      "hit": false,
      "t": 231057.29166666733,
      "d": 1463.541666666657,
      "v": 100
    },
    {
      "midi": 55,
      "hit": false,
      "t": 232520.83333333398,
      "d": 1463.541666666657,
      "v": 75
    },
    {
      "midi": 60,
      "hit": false,
      "t": 232531.25000000064,
      "d": 1463.541666666686,
      "v": 75
    },
    {
      "midi": 64,
      "hit": false,
      "t": 232531.25000000064,
      "d": 1463.541666666686,
      "v": 85
    },
    {
      "midi": 57,
      "hit": false,
      "t": 234005.20833333398,
      "d": 1437.500000000029,
      "v": 93
    },
    {
      "midi": 69,
      "hit": false,
      "t": 234005.20833333398,
      "d": 1437.500000000029,
      "v": 98
    },
    {
      "midi": 47,
      "hit": false,
      "t": 234010.41666666733,
      "d": 1437.500000000029,
      "v": 87
    },
    {
      "midi": 62,
      "hit": false,
      "t": 234015.62500000067,
      "d": 1437.500000000029,
      "v": 98
    },
    {
      "midi": 66,
      "hit": false,
      "t": 234015.62500000067,
      "d": 1437.500000000029,
      "v": 102
    },
    {
      "midi": 59,
      "hit": false,
      "t": 235505.20833333404,
      "d": 1437.500000000029,
      "v": 95
    },
    {
      "midi": 62,
      "hit": false,
      "t": 235505.20833333404,
      "d": 1437.500000000029,
      "v": 95
    },
    {
      "midi": 52,
      "hit": false,
      "t": 235510.41666666738,
      "d": 1437.500000000029,
      "v": 91
    },
    {
      "midi": 67,
      "hit": false,
      "t": 235515.62500000073,
      "d": 1437.500000000029,
      "v": 102
    },
    {
      "midi": 71,
      "hit": false,
      "t": 235515.62500000073,
      "d": 1437.500000000029,
      "v": 101
    },
    {
      "midi": 52,
      "hit": false,
      "t": 237000.00000000076,
      "d": 4437.5,
      "v": 97
    },
    {
      "midi": 48,
      "hit": false,
      "t": 237005.2083333341,
      "d": 4437.5,
      "v": 87
    },
    {
      "midi": 60,
      "hit": false,
      "t": 237010.41666666744,
      "d": 2437.499999999971,
      "v": 101
    },
    {
      "midi": 55,
      "hit": false,
      "t": 237010.41666666744,
      "d": 4437.5,
      "v": 96
    },
    {
      "midi": 62,
      "hit": false,
      "t": 237250.0000000008,
      "d": 739.5833333333139,
      "v": 72
    },
    {
      "midi": 64,
      "hit": false,
      "t": 237500.0000000008,
      "d": 291.66666666665697,
      "v": 64
    },
    {
      "midi": 67,
      "hit": false,
      "t": 237750.0000000008,
      "d": 1234.374999999971,
      "v": 107
    },
    {
      "midi": 62,
      "hit": false,
      "t": 238515.62500000076,
      "d": 239.58333333334303,
      "v": 70
    },
    {
      "midi": 64,
      "hit": false,
      "t": 238750.00000000076,
      "d": 291.66666666665697,
      "v": 65
    },
    {
      "midi": 67,
      "hit": false,
      "t": 239000.00000000076,
      "d": 484.375,
      "v": 113
    },
    {
      "midi": 62,
      "hit": false,
      "t": 239265.62500000076,
      "d": 718.75,
      "v": 72
    },
    {
      "midi": 64,
      "hit": false,
      "t": 239500.00000000076,
      "d": 291.66666666665697,
      "v": 61
    },
    {
      "midi": 60,
      "hit": false,
      "t": 239765.62500000076,
      "d": 1723.9583333333721,
      "v": 72
    },
    {
      "midi": 62,
      "hit": false,
      "t": 240000.00000000076,
      "d": 1479.166666666686,
      "v": 68
    },
    {
      "midi": 64,
      "hit": false,
      "t": 240250.00000000076,
      "d": 1041.666666666657,
      "v": 62
    },
    {
      "midi": 67,
      "hit": false,
      "t": 240500.00000000076,
      "d": 984.3750000000291,
      "v": 115
    },
    {
      "midi": 62,
      "hit": false,
      "t": 241546.8750000008,
      "d": 1437.500000000029,
      "v": 99
    },
    {
      "midi": 66,
      "hit": false,
      "t": 241546.8750000008,
      "d": 1437.500000000029,
      "v": 102
    },
    {
      "midi": 50,
      "hit": false,
      "t": 241552.08333333413,
      "d": 1437.500000000029,
      "v": 89
    },
    {
      "midi": 69,
      "hit": false,
      "t": 241557.29166666747,
      "d": 1437.500000000029,
      "v": 102
    },
    {
      "midi": 55,
      "hit": false,
      "t": 243005.20833333416,
      "d": 1463.541666666686,
      "v": 95
    },
    {
      "midi": 69,
      "hit": false,
      "t": 243005.20833333416,
      "d": 2942.708333333314,
      "v": 96
    },
    {
      "midi": 45,
      "hit": false,
      "t": 243010.4166666675,
      "d": 2963.541666666657,
      "v": 89
    },
    {
      "midi": 60,
      "hit": false,
      "t": 243015.62500000084,
      "d": 1463.541666666657,
      "v": 99
    },
    {
      "midi": 64,
      "hit": false,
      "t": 243015.62500000084,
      "d": 1463.541666666657,
      "v": 98
    },
    {
      "midi": 55,
      "hit": false,
      "t": 244505.20833333416,
      "d": 1463.541666666657,
      "v": 68
    },
    {
      "midi": 60,
      "hit": false,
      "t": 244515.62500000081,
      "d": 1463.541666666686,
      "v": 73
    },
    {
      "midi": 64,
      "hit": false,
      "t": 244515.62500000081,
      "d": 1463.541666666686,
      "v": 83
    },
    {
      "midi": 57,
      "hit": false,
      "t": 246005.20833333416,
      "d": 1463.541666666686,
      "v": 98
    },
    {
      "midi": 71,
      "hit": false,
      "t": 246005.20833333416,
      "d": 2942.708333333314,
      "v": 95
    },
    {
      "midi": 47,
      "hit": false,
      "t": 246010.4166666675,
      "d": 2963.541666666657,
      "v": 87
    },
    {
      "midi": 62,
      "hit": false,
      "t": 246015.62500000084,
      "d": 1463.541666666657,
      "v": 101
    },
    {
      "midi": 66,
      "hit": false,
      "t": 246015.62500000084,
      "d": 1463.541666666657,
      "v": 101
    },
    {
      "midi": 57,
      "hit": false,
      "t": 247505.20833333416,
      "d": 1463.541666666657,
      "v": 74
    },
    {
      "midi": 62,
      "hit": false,
      "t": 247515.62500000081,
      "d": 1463.541666666686,
      "v": 75
    },
    {
      "midi": 66,
      "hit": false,
      "t": 247515.62500000081,
      "d": 1463.541666666686,
      "v": 87
    },
    {
      "midi": 57,
      "hit": false,
      "t": 249020.83333333416,
      "d": 515.6250000000291,
      "v": 92
    },
    {
      "midi": 54,
      "hit": false,
      "t": 249020.83333333416,
      "d": 1437.5000000000582,
      "v": 91
    },
    {
      "midi": 50,
      "hit": false,
      "t": 249026.0416666675,
      "d": 1427.0833333333721,
      "v": 89
    },
    {
      "midi": 62,
      "hit": false,
      "t": 249031.25000000084,
      "d": 750.0000000000291,
      "v": 92
    },
    {
      "midi": 69,
      "hit": false,
      "t": 249031.25000000084,
      "d": 1432.2916666667152,
      "v": 91
    },
    {
      "midi": 57,
      "hit": false,
      "t": 249557.29166666753,
      "d": 937.5000000000291,
      "v": 85
    },
    {
      "midi": 62,
      "hit": false,
      "t": 249796.87500000087,
      "d": 687.5000000000291,
      "v": 83
    },
    {
      "midi": 64,
      "hit": false,
      "t": 250036.45833333422,
      "d": 687.5000000000291,
      "v": 95
    },
    {
      "midi": 66,
      "hit": false,
      "t": 250270.83333333422,
      "d": 687.5000000000291,
      "v": 102
    },
    {
      "midi": 54,
      "hit": false,
      "t": 250520.83333333422,
      "d": 1437.500000000029,
      "v": 97
    },
    {
      "midi": 57,
      "hit": false,
      "t": 250520.83333333422,
      "d": 1437.500000000029,
      "v": 96
    },
    {
      "midi": 50,
      "hit": false,
      "t": 250526.04166666756,
      "d": 1437.500000000029,
      "v": 97
    },
    {
      "midi": 69,
      "hit": false,
      "t": 250531.2500000009,
      "d": 1437.500000000029,
      "v": 94
    },
    {
      "midi": 57,
      "hit": false,
      "t": 252020.83333333427,
      "d": 1406.250000000029,
      "v": 96
    },
    {
      "midi": 54,
      "hit": false,
      "t": 252020.83333333427,
      "d": 1437.500000000029,
      "v": 103
    },
    {
      "midi": 50,
      "hit": false,
      "t": 252026.04166666762,
      "d": 1286.458333333343,
      "v": 100
    },
    {
      "midi": 38,
      "hit": false,
      "t": 252026.04166666762,
      "d": 1437.500000000029,
      "v": 105
    },
    {
      "midi": 62,
      "hit": false,
      "t": 252031.25000000096,
      "d": 1437.500000000029,
      "v": 95
    },
    {
      "midi": 50,
      "hit": false,
      "t": 253333.3333333343,
      "d": 114.58333333334303,
      "v": 69
    },
    {
      "midi": 57,
      "hit": false,
      "t": 253442.7083333343,
      "d": 98.95833333337214,
      "v": 80
    },
    {
      "midi": 59,
      "hit": false,
      "t": 253520.83333333433,
      "d": 1437.5,
      "v": 118
    },
    {
      "midi": 64,
      "hit": false,
      "t": 253520.83333333433,
      "d": 1437.5,
      "v": 111
    },
    {
      "midi": 48,
      "hit": false,
      "t": 253526.04166666768,
      "d": 1437.5,
      "v": 119
    },
    {
      "midi": 52,
      "hit": false,
      "t": 253526.04166666768,
      "d": 1437.5,
      "v": 115
    },
    {
      "midi": 67,
      "hit": false,
      "t": 253531.25000000102,
      "d": 1437.5,
      "v": 112
    },
    {
      "midi": 62,
      "hit": false,
      "t": 255000,
      "d": 494.79166666665697,
      "v": 1
    },
    {
      "midi": 72,
      "hit": false,
      "t": 255000.00000000102,
      "d": 1463.541666666686,
      "v": 104
    },
    {
      "midi": 55,
      "hit": false,
      "t": 255000.00000000102,
      "d": 2494.791666666715,
      "v": 99
    },
    {
      "midi": 45,
      "hit": false,
      "t": 255005.20833333436,
      "d": 1463.541666666686,
      "v": 100
    },
    {
      "midi": 57,
      "hit": false,
      "t": 255010.4166666677,
      "d": 1463.541666666686,
      "v": 107
    },
    {
      "midi": 64,
      "hit": false,
      "t": 255010.4166666677,
      "d": 1463.541666666686,
      "v": 104
    },
    {
      "midi": 60,
      "hit": false,
      "t": 255500,
      "d": 1447.916666666657,
      "v": 1
    },
    {
      "midi": 67,
      "hit": false,
      "t": 255765.62500000105,
      "d": 635.416666666657,
      "v": 96
    },
    {
      "midi": 71,
      "hit": false,
      "t": 255776.0416666677,
      "d": 635.416666666657,
      "v": 98
    },
    {
      "midi": 52,
      "hit": false,
      "t": 256500.00000000105,
      "d": 963.5416666666861,
      "v": 89
    },
    {
      "midi": 57,
      "hit": false,
      "t": 256500.00000000105,
      "d": 963.5416666666861,
      "v": 86
    },
    {
      "midi": 60,
      "hit": false,
      "t": 256500.00000000105,
      "d": 963.5416666666861,
      "v": 84
    },
    {
      "midi": 64,
      "hit": false,
      "t": 256500.00000000105,
      "d": 963.5416666666861,
      "v": 96
    },
    {
      "midi": 69,
      "hit": false,
      "t": 256500.00000000105,
      "d": 963.5416666666861,
      "v": 95
    },
    {
      "midi": 45,
      "hit": false,
      "t": 256505.2083333344,
      "d": 963.5416666666861,
      "v": 101
    },
    {
      "midi": 47,
      "hit": false,
      "t": 257500.00000000108,
      "d": 437.5,
      "v": 105
    },
    {
      "midi": 55,
      "hit": false,
      "t": 257500.00000000108,
      "d": 437.5,
      "v": 100
    },
    {
      "midi": 59,
      "hit": false,
      "t": 257500.00000000108,
      "d": 437.5,
      "v": 99
    },
    {
      "midi": 62,
      "hit": false,
      "t": 257500.00000000108,
      "d": 437.5,
      "v": 104
    },
    {
      "midi": 67,
      "hit": false,
      "t": 257500.00000000108,
      "d": 437.5,
      "v": 104
    },
    {
      "midi": 48,
      "hit": false,
      "t": 258000.00000000108,
      "d": 1968.75,
      "v": 107
    },
    {
      "midi": 67,
      "hit": false,
      "t": 258015.62500000108,
      "d": 1468.75,
      "v": 107
    },
    {
      "midi": 55,
      "hit": false,
      "t": 258015.62500000108,
      "d": 2968.75,
      "v": 107
    },
    {
      "midi": 64,
      "hit": false,
      "t": 258015.62500000108,
      "d": 2968.75,
      "v": 110
    },
    {
      "midi": 60,
      "hit": false,
      "t": 258020.83333333442,
      "d": 2968.75,
      "v": 107
    },
    {
      "midi": 60,
      "hit": false,
      "t": 259500,
      "d": 494.79166666665697,
      "v": 1
    },
    {
      "midi": 72,
      "hit": false,
      "t": 259515.62500000108,
      "d": 1468.75,
      "v": 99
    },
    {
      "midi": 76,
      "hit": false,
      "t": 259541.66666666773,
      "d": 1468.750000000029,
      "v": 97
    },
    {
      "midi": 79,
      "hit": false,
      "t": 259557.29166666773,
      "d": 1468.750000000029,
      "v": 106
    },
    {
      "midi": 62,
      "hit": false,
      "t": 260000,
      "d": 3437.5,
      "v": 1
    },
    {
      "midi": 48,
      "hit": false,
      "t": 260000.00000000108,
      "d": 484.375,
      "v": 95
    },
    {
      "midi": 52,
      "hit": false,
      "t": 260500.00000000108,
      "d": 484.375,
      "v": 90
    },
    {
      "midi": 67,
      "hit": false,
      "t": 260994.79166666776,
      "d": 2963.541666666715,
      "v": 98
    },
    {
      "midi": 57,
      "hit": false,
      "t": 261000.0000000011,
      "d": 1963.541666666686,
      "v": 96
    },
    {
      "midi": 59,
      "hit": false,
      "t": 261000.0000000011,
      "d": 2234.375,
      "v": 104
    },
    {
      "midi": 43,
      "hit": false,
      "t": 261000.0000000011,
      "d": 2963.541666666686,
      "v": 107
    },
    {
      "midi": 55,
      "hit": false,
      "t": 261000.0000000011,
      "d": 2963.541666666686,
      "v": 99
    },
    {
      "midi": 62,
      "hit": false,
      "t": 261010.41666666776,
      "d": 2473.958333333343,
      "v": 100
    },
    {
      "midi": 57,
      "hit": false,
      "t": 263000.0000000011,
      "d": 348.95833333331393,
      "v": 101
    },
    {
      "midi": 59,
      "hit": false,
      "t": 263250.0000000011,
      "d": 291.66666666668607,
      "v": 91
    },
    {
      "midi": 64,
      "hit": false,
      "t": 263500,
      "d": 244.79166666668607,
      "v": 1
    },
    {
      "midi": 62,
      "hit": false,
      "t": 263500.0000000011,
      "d": 494.79166666668607,
      "v": 100
    },
    {
      "midi": 62,
      "hit": false,
      "t": 263750,
      "d": 3666.666666666686,
      "v": 1
    },
    {
      "midi": 50,
      "hit": false,
      "t": 264005.2083333345,
      "d": 2963.541666666686,
      "v": 102
    },
    {
      "midi": 57,
      "hit": false,
      "t": 264010.4166666678,
      "d": 1932.291666666686,
      "v": 99
    },
    {
      "midi": 62,
      "hit": false,
      "t": 264010.4166666678,
      "d": 1947.916666666686,
      "v": 106
    },
    {
      "midi": 54,
      "hit": false,
      "t": 264010.4166666678,
      "d": 1963.541666666686,
      "v": 99
    },
    {
      "midi": 57,
      "hit": false,
      "t": 266020.8333333345,
      "d": 468.75,
      "v": 98
    },
    {
      "midi": 60,
      "hit": false,
      "t": 266031.25000000116,
      "d": 468.75,
      "v": 98
    },
    {
      "midi": 55,
      "hit": false,
      "t": 266520.8333333345,
      "d": 468.75,
      "v": 93
    },
    {
      "midi": 59,
      "hit": false,
      "t": 266531.25000000116,
      "d": 442.70833333331393,
      "v": 96
    },
    {
      "midi": 74,
      "hit": false,
      "t": 266531.25000000116,
      "d": 442.70833333331393,
      "v": 98
    },
    {
      "midi": 72,
      "hit": false,
      "t": 267000.00000000116,
      "d": 1463.5416666666279,
      "v": 106
    },
    {
      "midi": 55,
      "hit": false,
      "t": 267000.00000000116,
      "d": 2494.7916666665697,
      "v": 99
    },
    {
      "midi": 45,
      "hit": false,
      "t": 267005.2083333345,
      "d": 1463.5416666666279,
      "v": 101
    },
    {
      "midi": 57,
      "hit": false,
      "t": 267010.4166666678,
      "d": 1463.5416666666279,
      "v": 104
    },
    {
      "midi": 64,
      "hit": false,
      "t": 267010.4166666678,
      "d": 1463.5416666666279,
      "v": 102
    },
    {
      "midi": 60,
      "hit": false,
      "t": 267500,
      "d": 1447.916666666686,
      "v": 1
    },
    {
      "midi": 67,
      "hit": false,
      "t": 267765.6250000011,
      "d": 635.4166666666861,
      "v": 92
    },
    {
      "midi": 71,
      "hit": false,
      "t": 267776.0416666678,
      "d": 635.4166666666861,
      "v": 97
    },
    {
      "midi": 52,
      "hit": false,
      "t": 268500.0000000011,
      "d": 963.5416666666279,
      "v": 92
    },
    {
      "midi": 57,
      "hit": false,
      "t": 268500.0000000011,
      "d": 963.5416666666279,
      "v": 92
    },
    {
      "midi": 60,
      "hit": false,
      "t": 268500.0000000011,
      "d": 963.5416666666279,
      "v": 83
    },
    {
      "midi": 64,
      "hit": false,
      "t": 268500.0000000011,
      "d": 963.5416666666279,
      "v": 95
    },
    {
      "midi": 69,
      "hit": false,
      "t": 268500.0000000011,
      "d": 963.5416666666279,
      "v": 94
    },
    {
      "midi": 45,
      "hit": false,
      "t": 268505.2083333344,
      "d": 963.5416666666279,
      "v": 102
    },
    {
      "midi": 47,
      "hit": false,
      "t": 269500.00000000105,
      "d": 437.5,
      "v": 102
    },
    {
      "midi": 55,
      "hit": false,
      "t": 269500.00000000105,
      "d": 437.5,
      "v": 104
    },
    {
      "midi": 59,
      "hit": false,
      "t": 269500.00000000105,
      "d": 437.5,
      "v": 102
    },
    {
      "midi": 62,
      "hit": false,
      "t": 269500.00000000105,
      "d": 437.5,
      "v": 99
    },
    {
      "midi": 67,
      "hit": false,
      "t": 269500.00000000105,
      "d": 437.5,
      "v": 104
    },
    {
      "midi": 55,
      "hit": false,
      "t": 270000.00000000105,
      "d": 1463.5416666666279,
      "v": 98
    },
    {
      "midi": 60,
      "hit": false,
      "t": 270000.00000000105,
      "d": 1484.375,
      "v": 93
    },
    {
      "midi": 48,
      "hit": false,
      "t": 270005.20833333436,
      "d": 1484.375,
      "v": 95
    },
    {
      "midi": 64,
      "hit": false,
      "t": 270010.4166666677,
      "d": 750,
      "v": 95
    },
    {
      "midi": 62,
      "hit": false,
      "t": 270010.4166666677,
      "d": 1463.541666666686,
      "v": 93
    },
    {
      "midi": 67,
      "hit": false,
      "t": 270765.625000001,
      "d": 635.4166666666861,
      "v": 90
    },
    {
      "midi": 64,
      "hit": false,
      "t": 270776.0416666677,
      "d": 635.4166666666861,
      "v": 91
    },
    {
      "midi": 60,
      "hit": false,
      "t": 271500,
      "d": 458.33333333331393,
      "v": 1
    },
    {
      "midi": 55,
      "hit": false,
      "t": 271500.00000000105,
      "d": 1463.541666666686,
      "v": 77
    },
    {
      "midi": 60,
      "hit": false,
      "t": 271500.00000000105,
      "d": 1463.541666666686,
      "v": 76
    },
    {
      "midi": 48,
      "hit": false,
      "t": 271505.20833333436,
      "d": 1463.541666666686,
      "v": 76
    },
    {
      "midi": 64,
      "hit": false,
      "t": 271515.62500000105,
      "d": 1447.916666666686,
      "v": 89
    },
    {
      "midi": 67,
      "hit": false,
      "t": 271531.25000000105,
      "d": 1447.916666666686,
      "v": 88
    },
    {
      "midi": 62,
      "hit": false,
      "t": 272000,
      "d": 1494.791666666686,
      "v": 1
    },
    {
      "midi": 67,
      "hit": false,
      "t": 273015.62500000105,
      "d": 1713.541666666686,
      "v": 95
    },
    {
      "midi": 62,
      "hit": false,
      "t": 273015.62500000105,
      "d": 2963.541666666686,
      "v": 90
    },
    {
      "midi": 57,
      "hit": false,
      "t": 273020.83333333436,
      "d": 463.54166666668607,
      "v": 96
    },
    {
      "midi": 55,
      "hit": false,
      "t": 273020.83333333436,
      "d": 2963.541666666686,
      "v": 89
    },
    {
      "midi": 59,
      "hit": false,
      "t": 273020.83333333436,
      "d": 2963.541666666686,
      "v": 95
    },
    {
      "midi": 43,
      "hit": false,
      "t": 273036.45833333436,
      "d": 2963.541666666686,
      "v": 93
    },
    {
      "midi": 59,
      "hit": false,
      "t": 273500,
      "d": 1447.916666666686,
      "v": 1
    },
    {
      "midi": 67,
      "hit": false,
      "t": 274750.00000000105,
      "d": 484.375,
      "v": 79
    },
    {
      "midi": 69,
      "hit": false,
      "t": 275000.00000000105,
      "d": 484.375,
      "v": 86
    },
    {
      "midi": 74,
      "hit": false,
      "t": 275250.00000000105,
      "d": 484.375,
      "v": 93
    },
    {
      "midi": 69,
      "hit": false,
      "t": 275500.00000000105,
      "d": 484.375,
      "v": 108
    },
    {
      "midi": 74,
      "hit": false,
      "t": 275750.00000000105,
      "d": 484.3749999999418,
      "v": 121
    },
    {
      "midi": 69,
      "hit": false,
      "t": 276000.00000000105,
      "d": 1458.3333333332557,
      "v": 117
    },
    {
      "midi": 38,
      "hit": false,
      "t": 276005.20833333436,
      "d": 2958.3333333332557,
      "v": 96
    },
    {
      "midi": 50,
      "hit": false,
      "t": 276005.20833333436,
      "d": 2958.3333333332557,
      "v": 99
    },
    {
      "midi": 54,
      "hit": false,
      "t": 276010.4166666677,
      "d": 2958.3333333332557,
      "v": 100
    },
    {
      "midi": 57,
      "hit": false,
      "t": 276010.4166666677,
      "d": 2958.3333333332557,
      "v": 100
    },
    {
      "midi": 62,
      "hit": false,
      "t": 276010.4166666677,
      "d": 2958.3333333332557,
      "v": 99
    },
    {
      "midi": 62,
      "hit": false,
      "t": 277500,
      "d": 1937.5,
      "v": 1
    },
    {
      "midi": 78,
      "hit": false,
      "t": 277500.000000001,
      "d": 1458.333333333314,
      "v": 93
    },
    {
      "midi": 81,
      "hit": false,
      "t": 277515.625000001,
      "d": 1458.3333333332557,
      "v": 104
    },
    {
      "midi": 45,
      "hit": false,
      "t": 279000.00000000093,
      "d": 2468.75,
      "v": 93
    },
    {
      "midi": 57,
      "hit": false,
      "t": 279000.00000000093,
      "d": 2468.75,
      "v": 94
    },
    {
      "midi": 60,
      "hit": false,
      "t": 279000.00000000093,
      "d": 2468.75,
      "v": 90
    },
    {
      "midi": 64,
      "hit": false,
      "t": 279000.00000000093,
      "d": 2468.75,
      "v": 88
    },
    {
      "midi": 67,
      "hit": false,
      "t": 279000.00000000093,
      "d": 2468.75,
      "v": 91
    },
    {
      "midi": 60,
      "hit": false,
      "t": 279500,
      "d": 2578.125,
      "v": 1
    },
    {
      "midi": 47,
      "hit": false,
      "t": 281500.00000000093,
      "d": 437.5,
      "v": 91
    },
    {
      "midi": 55,
      "hit": false,
      "t": 281500.00000000093,
      "d": 437.5,
      "v": 93
    },
    {
      "midi": 59,
      "hit": false,
      "t": 281500.00000000093,
      "d": 437.5,
      "v": 86
    },
    {
      "midi": 62,
      "hit": false,
      "t": 281500.00000000093,
      "d": 437.5,
      "v": 89
    },
    {
      "midi": 67,
      "hit": false,
      "t": 281500.00000000093,
      "d": 437.5,
      "v": 91
    },
    {
      "midi": 48,
      "hit": false,
      "t": 282000.00000000093,
      "d": 1968.75,
      "v": 91
    },
    {
      "midi": 67,
      "hit": false,
      "t": 282015.62500000093,
      "d": 1468.75,
      "v": 90
    },
    {
      "midi": 55,
      "hit": false,
      "t": 282015.62500000093,
      "d": 2968.75,
      "v": 92
    },
    {
      "midi": 64,
      "hit": false,
      "t": 282015.62500000093,
      "d": 2968.75,
      "v": 94
    },
    {
      "midi": 60,
      "hit": false,
      "t": 282020.83333333425,
      "d": 2968.75,
      "v": 94
    },
    {
      "midi": 60,
      "hit": false,
      "t": 283500,
      "d": 494.79166666668607,
      "v": 1
    },
    {
      "midi": 72,
      "hit": false,
      "t": 283515.62500000093,
      "d": 1468.75,
      "v": 85
    },
    {
      "midi": 76,
      "hit": false,
      "t": 283541.6666666676,
      "d": 1468.7499999999418,
      "v": 91
    },
    {
      "midi": 79,
      "hit": false,
      "t": 283557.2916666676,
      "d": 1468.7499999999418,
      "v": 95
    },
    {
      "midi": 62,
      "hit": false,
      "t": 284000,
      "d": 3494.791666666686,
      "v": 1
    },
    {
      "midi": 48,
      "hit": false,
      "t": 284000.00000000093,
      "d": 484.375,
      "v": 82
    },
    {
      "midi": 52,
      "hit": false,
      "t": 284500.00000000093,
      "d": 484.375,
      "v": 78
    },
    {
      "midi": 67,
      "hit": false,
      "t": 284994.79166666756,
      "d": 2963.541666666686,
      "v": 88
    },
    {
      "midi": 57,
      "hit": false,
      "t": 285000.0000000009,
      "d": 1963.541666666686,
      "v": 88
    },
    {
      "midi": 59,
      "hit": false,
      "t": 285000.0000000009,
      "d": 2234.375,
      "v": 91
    },
    {
      "midi": 43,
      "hit": false,
      "t": 285000.0000000009,
      "d": 2963.541666666686,
      "v": 87
    },
    {
      "midi": 55,
      "hit": false,
      "t": 285000.0000000009,
      "d": 2963.541666666686,
      "v": 90
    },
    {
      "midi": 62,
      "hit": false,
      "t": 285010.41666666756,
      "d": 2473.958333333314,
      "v": 89
    },
    {
      "midi": 57,
      "hit": false,
      "t": 287000.0000000009,
      "d": 348.95833333331393,
      "v": 90
    },
    {
      "midi": 59,
      "hit": false,
      "t": 287250.0000000009,
      "d": 291.66666666668607,
      "v": 77
    },
    {
      "midi": 64,
      "hit": false,
      "t": 287500,
      "d": 244.79166666668607,
      "v": 1
    },
    {
      "midi": 62,
      "hit": false,
      "t": 287500.0000000009,
      "d": 494.79166666668607,
      "v": 85
    },
    {
      "midi": 62,
      "hit": false,
      "t": 287750,
      "d": 3744.791666666686,
      "v": 1
    },
    {
      "midi": 50,
      "hit": false,
      "t": 288005.20833333425,
      "d": 2963.541666666686,
      "v": 88
    },
    {
      "midi": 57,
      "hit": false,
      "t": 288010.41666666756,
      "d": 1932.291666666686,
      "v": 86
    },
    {
      "midi": 62,
      "hit": false,
      "t": 288010.41666666756,
      "d": 1947.916666666686,
      "v": 87
    },
    {
      "midi": 54,
      "hit": false,
      "t": 288010.41666666756,
      "d": 1963.541666666686,
      "v": 89
    },
    {
      "midi": 57,
      "hit": false,
      "t": 290020.83333333425,
      "d": 468.75,
      "v": 81
    },
    {
      "midi": 60,
      "hit": false,
      "t": 290031.25000000093,
      "d": 468.75,
      "v": 79
    },
    {
      "midi": 55,
      "hit": false,
      "t": 290520.83333333425,
      "d": 468.75,
      "v": 79
    },
    {
      "midi": 59,
      "hit": false,
      "t": 290531.25000000093,
      "d": 442.70833333331393,
      "v": 78
    },
    {
      "midi": 74,
      "hit": false,
      "t": 290531.25000000093,
      "d": 442.70833333331393,
      "v": 90
    },
    {
      "midi": 72,
      "hit": false,
      "t": 291000.00000000093,
      "d": 1463.5416666666279,
      "v": 88
    },
    {
      "midi": 55,
      "hit": false,
      "t": 291000.00000000093,
      "d": 2494.7916666665697,
      "v": 88
    },
    {
      "midi": 45,
      "hit": false,
      "t": 291005.20833333425,
      "d": 1463.5416666666279,
      "v": 83
    },
    {
      "midi": 57,
      "hit": false,
      "t": 291010.41666666756,
      "d": 1463.5416666666279,
      "v": 88
    },
    {
      "midi": 64,
      "hit": false,
      "t": 291010.41666666756,
      "d": 1463.5416666666279,
      "v": 89
    },
    {
      "midi": 60,
      "hit": false,
      "t": 291500,
      "d": 2578.125,
      "v": 1
    },
    {
      "midi": 67,
      "hit": false,
      "t": 291765.6250000009,
      "d": 635.4166666666861,
      "v": 81
    },
    {
      "midi": 71,
      "hit": false,
      "t": 291776.04166666756,
      "d": 635.4166666666861,
      "v": 81
    },
    {
      "midi": 52,
      "hit": false,
      "t": 292500.0000000009,
      "d": 963.5416666666279,
      "v": 76
    },
    {
      "midi": 57,
      "hit": false,
      "t": 292500.0000000009,
      "d": 963.5416666666279,
      "v": 74
    },
    {
      "midi": 60,
      "hit": false,
      "t": 292500.0000000009,
      "d": 963.5416666666279,
      "v": 75
    },
    {
      "midi": 64,
      "hit": false,
      "t": 292500.0000000009,
      "d": 963.5416666666279,
      "v": 85
    },
    {
      "midi": 69,
      "hit": false,
      "t": 292500.0000000009,
      "d": 963.5416666666279,
      "v": 83
    },
    {
      "midi": 45,
      "hit": false,
      "t": 292505.2083333342,
      "d": 963.5416666666279,
      "v": 92
    },
    {
      "midi": 47,
      "hit": false,
      "t": 293500.0000000008,
      "d": 437.5,
      "v": 89
    },
    {
      "midi": 55,
      "hit": false,
      "t": 293500.0000000008,
      "d": 437.5,
      "v": 86
    },
    {
      "midi": 59,
      "hit": false,
      "t": 293500.0000000008,
      "d": 437.5,
      "v": 87
    },
    {
      "midi": 62,
      "hit": false,
      "t": 293500.0000000008,
      "d": 437.5,
      "v": 92
    },
    {
      "midi": 67,
      "hit": false,
      "t": 293500.0000000008,
      "d": 437.5,
      "v": 88
    },
    {
      "midi": 55,
      "hit": false,
      "t": 294000.0000000008,
      "d": 1463.5416666666279,
      "v": 80
    },
    {
      "midi": 60,
      "hit": false,
      "t": 294000.0000000008,
      "d": 1484.375,
      "v": 83
    },
    {
      "midi": 48,
      "hit": false,
      "t": 294005.2083333341,
      "d": 1484.375,
      "v": 86
    },
    {
      "midi": 64,
      "hit": false,
      "t": 294010.41666666744,
      "d": 750,
      "v": 85
    },
    {
      "midi": 62,
      "hit": false,
      "t": 294010.41666666744,
      "d": 1463.541666666686,
      "v": 80
    },
    {
      "midi": 67,
      "hit": false,
      "t": 294765.62500000076,
      "d": 635.4166666666861,
      "v": 76
    },
    {
      "midi": 64,
      "hit": false,
      "t": 294776.04166666744,
      "d": 635.4166666666861,
      "v": 74
    },
    {
      "midi": 60,
      "hit": false,
      "t": 295500,
      "d": 494.79166666668607,
      "v": 1
    },
    {
      "midi": 55,
      "hit": false,
      "t": 295500.0000000008,
      "d": 1463.541666666686,
      "v": 69
    },
    {
      "midi": 60,
      "hit": false,
      "t": 295500.0000000008,
      "d": 1463.541666666686,
      "v": 66
    },
    {
      "midi": 48,
      "hit": false,
      "t": 295505.2083333341,
      "d": 1463.541666666686,
      "v": 65
    },
    {
      "midi": 64,
      "hit": false,
      "t": 295515.6250000008,
      "d": 1447.916666666686,
      "v": 71
    },
    {
      "midi": 67,
      "hit": false,
      "t": 295531.2500000008,
      "d": 1447.916666666686,
      "v": 79
    },
    {
      "midi": 62,
      "hit": false,
      "t": 296000,
      "d": 1244.791666666686,
      "v": 1
    },
    {
      "midi": 62,
      "hit": false,
      "t": 297015.6250000008,
      "d": 2963.541666666628,
      "v": 77
    },
    {
      "midi": 67,
      "hit": false,
      "t": 297015.6250000008,
      "d": 2963.541666666628,
      "v": 83
    },
    {
      "midi": 55,
      "hit": false,
      "t": 297020.8333333341,
      "d": 2963.541666666628,
      "v": 78
    },
    {
      "midi": 57,
      "hit": false,
      "t": 297020.8333333341,
      "d": 2963.541666666628,
      "v": 85
    },
    {
      "midi": 59,
      "hit": false,
      "t": 297020.8333333341,
      "d": 2963.541666666628,
      "v": 77
    },
    {
      "midi": 43,
      "hit": false,
      "t": 297036.4583333341,
      "d": 2963.541666666628,
      "v": 77
    },
    {
      "midi": 60,
      "hit": false,
      "t": 297250,
      "d": 182.29166666668607,
      "v": 1
    },
    {
      "midi": 59,
      "hit": false,
      "t": 297500,
      "d": 1645.833333333314,
      "v": 1
    },
    {
      "midi": 38,
      "hit": false,
      "t": 300005.20833333407,
      "d": 2958.3333333332557,
      "v": 82
    },
    {
      "midi": 50,
      "hit": false,
      "t": 300005.20833333407,
      "d": 2958.3333333332557,
      "v": 87
    },
    {
      "midi": 54,
      "hit": false,
      "t": 300010.4166666674,
      "d": 2958.3333333332557,
      "v": 85
    },
    {
      "midi": 57,
      "hit": false,
      "t": 300010.4166666674,
      "d": 2958.3333333332557,
      "v": 82
    },
    {
      "midi": 62,
      "hit": false,
      "t": 300010.4166666674,
      "d": 2958.3333333332557,
      "v": 83
    },
    {
      "midi": 66,
      "hit": false,
      "t": 301500.0000000007,
      "d": 958.3333333333139,
      "v": 81
    },
    {
      "midi": 69,
      "hit": false,
      "t": 302000.0000000007,
      "d": 958.3333333333139,
      "v": 92
    },
    {
      "midi": 74,
      "hit": false,
      "t": 302500.0000000007,
      "d": 458.33333333331393,
      "v": 73
    },
    {
      "midi": 72,
      "hit": false,
      "t": 303000.00000000064,
      "d": 1468.75,
      "v": 70
    },
    {
      "midi": 67,
      "hit": false,
      "t": 303000.00000000064,
      "d": 2234.375,
      "v": 69
    },
    {
      "midi": 45,
      "hit": false,
      "t": 303000.00000000064,
      "d": 2968.75,
      "v": 70
    },
    {
      "midi": 57,
      "hit": false,
      "t": 303000.00000000064,
      "d": 2968.75,
      "v": 71
    },
    {
      "midi": 64,
      "hit": false,
      "t": 303000.00000000064,
      "d": 2968.75,
      "v": 76
    },
    {
      "midi": 60,
      "hit": false,
      "t": 304500.00000000064,
      "d": 734.375,
      "v": 69
    },
    {
      "midi": 69,
      "hit": false,
      "t": 304500.00000000064,
      "d": 734.375,
      "v": 71
    },
    {
      "midi": 67,
      "hit": false,
      "t": 305250.00000000064,
      "d": 687.5,
      "v": 62
    },
    {
      "midi": 59,
      "hit": false,
      "t": 305250.00000000064,
      "d": 718.75,
      "v": 51
    },
    {
      "midi": 48,
      "hit": false,
      "t": 306000.00000000064,
      "d": 2968.750000000058,
      "v": 63
    },
    {
      "midi": 64,
      "hit": false,
      "t": 306015.62500000064,
      "d": 1484.375,
      "v": 64
    },
    {
      "midi": 52,
      "hit": false,
      "t": 306015.62500000064,
      "d": 2968.750000000058,
      "v": 63
    },
    {
      "midi": 55,
      "hit": false,
      "t": 306015.62500000064,
      "d": 2968.750000000058,
      "v": 62
    },
    {
      "midi": 60,
      "hit": false,
      "t": 306020.83333333395,
      "d": 1453.125,
      "v": 68
    },
    {
      "midi": 60,
      "hit": false,
      "t": 307489.58333333395,
      "d": 510.41666666668607,
      "v": 66
    },
    {
      "midi": 62,
      "hit": false,
      "t": 307739.58333333395,
      "d": 494.79166666668607,
      "v": 66
    },
    {
      "midi": 64,
      "hit": false,
      "t": 308005.20833333395,
      "d": 489.58333333337214,
      "v": 64
    },
    {
      "midi": 67,
      "hit": false,
      "t": 308265.62500000064,
      "d": 489.58333333337214,
      "v": 61
    },
    {
      "midi": 72,
      "hit": false,
      "t": 308510.4166666673,
      "d": 468.7500000000582,
      "v": 82
    },
    {
      "midi": 71,
      "hit": false,
      "t": 308994.7916666674,
      "d": 1484.375,
      "v": 81
    },
    {
      "midi": 57,
      "hit": false,
      "t": 309000.0000000007,
      "d": 1963.541666666686,
      "v": 73
    },
    {
      "midi": 59,
      "hit": false,
      "t": 309000.0000000007,
      "d": 2234.375000000058,
      "v": 71
    },
    {
      "midi": 43,
      "hit": false,
      "t": 309000.0000000007,
      "d": 2963.5416666667443,
      "v": 76
    },
    {
      "midi": 55,
      "hit": false,
      "t": 309000.0000000007,
      "d": 2963.5416666667443,
      "v": 72
    },
    {
      "midi": 62,
      "hit": false,
      "t": 309010.4166666674,
      "d": 2473.958333333372,
      "v": 84
    },
    {
      "midi": 67,
      "hit": false,
      "t": 310015.6250000007,
      "d": 989.5833333333721,
      "v": 63
    },
    {
      "midi": 69,
      "hit": false,
      "t": 310265.6250000007,
      "d": 989.5833333333721,
      "v": 61
    },
    {
      "midi": 71,
      "hit": false,
      "t": 310531.2500000007,
      "d": 1463.5416666667443,
      "v": 78
    },
    {
      "midi": 74,
      "hit": false,
      "t": 311281.25000000076,
      "d": 1463.541666666686,
      "v": 77
    },
    {
      "midi": 50,
      "hit": false,
      "t": 312005.2083333341,
      "d": 2963.541666666628,
      "v": 81
    },
    {
      "midi": 69,
      "hit": false,
      "t": 312010.41666666744,
      "d": 473.95833333331393,
      "v": 60
    },
    {
      "midi": 62,
      "hit": false,
      "t": 312010.41666666744,
      "d": 1947.9166666666279,
      "v": 84
    },
    {
      "midi": 54,
      "hit": false,
      "t": 312010.41666666744,
      "d": 2963.541666666628,
      "v": 78
    },
    {
      "midi": 57,
      "hit": false,
      "t": 312010.41666666744,
      "d": 2963.541666666628,
      "v": 81
    },
    {
      "midi": 66,
      "hit": false,
      "t": 312250.00000000076,
      "d": 234.375,
      "v": 59
    },
    {
      "midi": 69,
      "hit": false,
      "t": 312500.00000000076,
      "d": 234.375,
      "v": 71
    },
    {
      "midi": 74,
      "hit": false,
      "t": 312750.00000000076,
      "d": 234.375,
      "v": 64
    },
    {
      "midi": 76,
      "hit": false,
      "t": 313000.00000000076,
      "d": 234.375,
      "v": 54
    },
    {
      "midi": 81,
      "hit": false,
      "t": 313250.00000000076,
      "d": 234.375,
      "v": 65
    },
    {
      "midi": 78,
      "hit": false,
      "t": 313500.00000000076,
      "d": 234.375,
      "v": 69
    },
    {
      "midi": 86,
      "hit": false,
      "t": 313750.00000000076,
      "d": 234.375,
      "v": 61
    },
    {
      "midi": 88,
      "hit": false,
      "t": 314000.00000000076,
      "d": 234.375,
      "v": 66
    },
    {
      "midi": 93,
      "hit": false,
      "t": 314250.00000000076,
      "d": 234.375,
      "v": 66
    },
    {
      "midi": 86,
      "hit": false,
      "t": 314500.00000000076,
      "d": 234.375,
      "v": 53
    },
    {
      "midi": 72,
      "hit": false,
      "t": 315000.00000000076,
      "d": 1463.5416666666279,
      "v": 78
    },
    {
      "midi": 55,
      "hit": false,
      "t": 315000.00000000076,
      "d": 2484.374999999942,
      "v": 78
    },
    {
      "midi": 45,
      "hit": false,
      "t": 315005.20833333407,
      "d": 1463.5416666666279,
      "v": 76
    },
    {
      "midi": 57,
      "hit": false,
      "t": 315010.4166666674,
      "d": 1463.5416666666279,
      "v": 81
    },
    {
      "midi": 64,
      "hit": false,
      "t": 315010.4166666674,
      "d": 1463.5416666666279,
      "v": 82
    },
    {
      "midi": 81,
      "hit": false,
      "t": 315500.0000000007,
      "d": 213.54166666668607,
      "v": 66
    },
    {
      "midi": 84,
      "hit": false,
      "t": 315500.0000000007,
      "d": 213.54166666668607,
      "v": 81
    },
    {
      "midi": 79,
      "hit": false,
      "t": 315750.0000000007,
      "d": 213.54166666668607,
      "v": 56
    },
    {
      "midi": 83,
      "hit": false,
      "t": 315750.0000000007,
      "d": 213.54166666668607,
      "v": 70
    },
    {
      "midi": 67,
      "hit": false,
      "t": 315765.6250000007,
      "d": 635.4166666666861,
      "v": 72
    },
    {
      "midi": 71,
      "hit": false,
      "t": 315776.0416666674,
      "d": 635.4166666666861,
      "v": 76
    },
    {
      "midi": 78,
      "hit": false,
      "t": 316000.0000000007,
      "d": 463.54166666668607,
      "v": 57
    },
    {
      "midi": 81,
      "hit": false,
      "t": 316000.0000000007,
      "d": 463.54166666668607,
      "v": 76
    },
    {
      "midi": 60,
      "hit": false,
      "t": 316500.0000000007,
      "d": 1380.208333333314,
      "v": 62
    },
    {
      "midi": 52,
      "hit": false,
      "t": 316500.0000000007,
      "d": 1463.5416666666279,
      "v": 70
    },
    {
      "midi": 57,
      "hit": false,
      "t": 316500.0000000007,
      "d": 1463.5416666666279,
      "v": 70
    },
    {
      "midi": 64,
      "hit": false,
      "t": 316500.0000000007,
      "d": 1463.5416666666279,
      "v": 76
    },
    {
      "midi": 69,
      "hit": false,
      "t": 316500.0000000007,
      "d": 1463.5416666666279,
      "v": 79
    },
    {
      "midi": 76,
      "hit": false,
      "t": 316500.0000000007,
      "d": 1484.3749999999418,
      "v": 52
    },
    {
      "midi": 79,
      "hit": false,
      "t": 316500.0000000007,
      "d": 1484.3749999999418,
      "v": 71
    },
    {
      "midi": 45,
      "hit": false,
      "t": 316505.208333334,
      "d": 1963.5416666666279,
      "v": 83
    },
    {
      "midi": 74,
      "hit": false,
      "t": 317500.0000000007,
      "d": 484.3749999999418,
      "v": 71
    },
    {
      "midi": 60,
      "hit": false,
      "t": 318000.00000000064,
      "d": 994.7916666666861,
      "v": 76
    },
    {
      "midi": 55,
      "hit": false,
      "t": 318000.00000000064,
      "d": 1463.5416666667443,
      "v": 73
    },
    {
      "midi": 48,
      "hit": false,
      "t": 318005.20833333395,
      "d": 1484.3750000001164,
      "v": 72
    },
    {
      "midi": 64,
      "hit": false,
      "t": 318010.41666666727,
      "d": 750.0000000000582,
      "v": 76
    },
    {
      "midi": 62,
      "hit": false,
      "t": 318010.41666666727,
      "d": 1223.9583333334303,
      "v": 75
    },
    {
      "midi": 76,
      "hit": false,
      "t": 318026.04166666727,
      "d": 234.375,
      "v": 77
    },
    {
      "midi": 79,
      "hit": false,
      "t": 318302.08333333395,
      "d": 734.3750000000582,
      "v": 91
    },
    {
      "midi": 60,
      "hit": false,
      "t": 319010.4166666673,
      "d": 473.95833333343035,
      "v": 79
    },
    {
      "midi": 62,
      "hit": false,
      "t": 319250.0000000007,
      "d": 223.95833333337214,
      "v": 69
    },
    {
      "midi": 55,
      "hit": false,
      "t": 319500.00000000076,
      "d": 463.54166666668607,
      "v": 65
    },
    {
      "midi": 64,
      "hit": false,
      "t": 319500.00000000076,
      "d": 484.375,
      "v": 64
    },
    {
      "midi": 60,
      "hit": false,
      "t": 319500.00000000076,
      "d": 958.3333333333139,
      "v": 55
    },
    {
      "midi": 48,
      "hit": false,
      "t": 319505.20833333407,
      "d": 1463.5416666666279,
      "v": 56
    },
    {
      "midi": 67,
      "hit": false,
      "t": 319750.00000000076,
      "d": 1234.3749999999418,
      "v": 68
    },
    {
      "midi": 55,
      "hit": false,
      "t": 320000.00000000076,
      "d": 463.54166666662786,
      "v": 80
    },
    {
      "midi": 57,
      "hit": false,
      "t": 320500.0000000007,
      "d": 463.54166666668607,
      "v": 83
    },
    {
      "midi": 62,
      "hit": false,
      "t": 321015.6250000007,
      "d": 734.375,
      "v": 70
    },
    {
      "midi": 67,
      "hit": false,
      "t": 321015.6250000007,
      "d": 2963.541666666628,
      "v": 69
    },
    {
      "midi": 55,
      "hit": false,
      "t": 321020.833333334,
      "d": 2963.541666666628,
      "v": 69
    },
    {
      "midi": 57,
      "hit": false,
      "t": 321020.833333334,
      "d": 2963.541666666628,
      "v": 87
    },
    {
      "midi": 59,
      "hit": false,
      "t": 321020.833333334,
      "d": 2963.541666666628,
      "v": 73
    },
    {
      "midi": 43,
      "hit": false,
      "t": 321036.458333334,
      "d": 2963.541666666628,
      "v": 74
    },
    {
      "midi": 62,
      "hit": false,
      "t": 321765.6250000007,
      "d": 989.5833333333139,
      "v": 77
    },
    {
      "midi": 50,
      "hit": false,
      "t": 322515.6250000007,
      "d": 1526.0416666665697,
      "v": 63
    },
    {
      "midi": 38,
      "hit": false,
      "t": 324005.20833333395,
      "d": 4958.333333333314,
      "v": 78
    },
    {
      "midi": 50,
      "hit": false,
      "t": 324057.29166666727,
      "d": 4958.333333333314,
      "v": 78
    },
    {
      "midi": 54,
      "hit": false,
      "t": 324114.58333333395,
      "d": 4958.333333333314,
      "v": 76
    },
    {
      "midi": 57,
      "hit": false,
      "t": 324125.00000000064,
      "d": 4958.333333333314,
      "v": 73
    },
    {
      "midi": 62,
      "hit": false,
      "t": 324177.08333333395,
      "d": 4958.333333333314,
      "v": 82
    }
  ]
}