{
  "jsonPath": "Rock/Soft Rock/Lionel Richie/all-night-long.json",
  "path": "Rock\\Soft Rock\\Lionel Richie\\All Night Long.mid",
  "name": "All Night Long",
  "difficulty": "Advanced",
  "bpm": 107.99991360006912,
  "notes": [
    {
      "midi": 44,
      "hit": false,
      "t": 13333.344000000001,
      "d": 2077.5479583333326,
      "v": 73
    },
    {
      "midi": 51,
      "hit": false,
      "t": 13744.223958333334,
      "d": 1678.2420833333326,
      "v": 83
    },
    {
      "midi": 56,
      "hit": false,
      "t": 14022.001958333334,
      "d": 1857.6403749999972,
      "v": 79
    },
    {
      "midi": 58,
      "hit": false,
      "t": 14299.779958333334,
      "d": 1504.6308333333309,
      "v": 85
    },
    {
      "midi": 60,
      "hit": false,
      "t": 14299.779958333334,
      "d": 1510.4178749999974,
      "v": 78
    },
    {
      "midi": 42,
      "hit": false,
      "t": 15561.355041666666,
      "d": 2094.909083333332,
      "v": 75
    },
    {
      "midi": 49,
      "hit": false,
      "t": 15978.022041666665,
      "d": 1701.3902499999986,
      "v": 59
    },
    {
      "midi": 54,
      "hit": false,
      "t": 16255.800041666665,
      "d": 1562.5012499999975,
      "v": 77
    },
    {
      "midi": 56,
      "hit": false,
      "t": 16533.578041666664,
      "d": 1273.1491666666661,
      "v": 91
    },
    {
      "midi": 58,
      "hit": false,
      "t": 16533.578041666664,
      "d": 1284.723249999999,
      "v": 77
    },
    {
      "midi": 44,
      "hit": false,
      "t": 17777.791999999998,
      "d": 2002.316416666661,
      "v": 77
    },
    {
      "midi": 51,
      "hit": false,
      "t": 18188.67195833333,
      "d": 1626.1587083333288,
      "v": 77
    },
    {
      "midi": 56,
      "hit": false,
      "t": 18466.449958333327,
      "d": 1516.204916666662,
      "v": 94
    },
    {
      "midi": 61,
      "hit": false,
      "t": 18755.802041666662,
      "d": 983.7970833333311,
      "v": 85
    },
    {
      "midi": 58,
      "hit": false,
      "t": 18755.802041666662,
      "d": 1221.0657916666605,
      "v": 77
    },
    {
      "midi": 60,
      "hit": false,
      "t": 19716.450958333327,
      "d": 248.84279166666238,
      "v": 68
    },
    {
      "midi": 42,
      "hit": false,
      "t": 20005.803041666655,
      "d": 2071.760916666666,
      "v": 79
    },
    {
      "midi": 49,
      "hit": false,
      "t": 20410.895958333324,
      "d": 1747.6865833333322,
      "v": 77
    },
    {
      "midi": 54,
      "hit": false,
      "t": 20688.673958333322,
      "d": 1510.4178749999992,
      "v": 77
    },
    {
      "midi": 58,
      "hit": false,
      "t": 20966.45195833332,
      "d": 1209.4917083333348,
      "v": 71
    },
    {
      "midi": 56,
      "hit": false,
      "t": 20966.45195833332,
      "d": 1221.0657916666678,
      "v": 83
    },
    {
      "midi": 44,
      "hit": false,
      "t": 22216.45295833332,
      "d": 2089.1220416666656,
      "v": 88
    },
    {
      "midi": 51,
      "hit": false,
      "t": 22633.119958333322,
      "d": 1724.5384166666627,
      "v": 75
    },
    {
      "midi": 56,
      "hit": false,
      "t": 22910.89795833332,
      "d": 1608.797583333333,
      "v": 73
    },
    {
      "midi": 60,
      "hit": false,
      "t": 23188.67595833332,
      "d": 1261.5750833333332,
      "v": 74
    },
    {
      "midi": 58,
      "hit": false,
      "t": 23188.67595833332,
      "d": 1267.3621249999997,
      "v": 85
    },
    {
      "midi": 42,
      "hit": false,
      "t": 24438.67695833332,
      "d": 2112.270208333335,
      "v": 65
    },
    {
      "midi": 49,
      "hit": false,
      "t": 24866.918041666653,
      "d": 1759.2606666666688,
      "v": 63
    },
    {
      "midi": 54,
      "hit": false,
      "t": 25133.12195833332,
      "d": 1637.732791666669,
      "v": 69
    },
    {
      "midi": 56,
      "hit": false,
      "t": 25422.474041666654,
      "d": 1336.806625000001,
      "v": 88
    },
    {
      "midi": 58,
      "hit": false,
      "t": 25422.474041666654,
      "d": 1354.1677500000005,
      "v": 73
    },
    {
      "midi": 44,
      "hit": false,
      "t": 26672.475041666654,
      "d": 2025.4645833333343,
      "v": 59
    },
    {
      "midi": 51,
      "hit": false,
      "t": 27089.142041666655,
      "d": 1597.2235,
      "v": 77
    },
    {
      "midi": 56,
      "hit": false,
      "t": 27366.920041666654,
      "d": 1504.6308333333327,
      "v": 71
    },
    {
      "midi": 61,
      "hit": false,
      "t": 27644.698041666652,
      "d": 983.7970833333347,
      "v": 91
    },
    {
      "midi": 58,
      "hit": false,
      "t": 27644.698041666652,
      "d": 1163.195375000003,
      "v": 77
    },
    {
      "midi": 60,
      "hit": false,
      "t": 28616.921041666654,
      "d": 214.12054166666712,
      "v": 61
    },
    {
      "midi": 42,
      "hit": false,
      "t": 28894.699041666652,
      "d": 2008.1034583333312,
      "v": 71
    },
    {
      "midi": 49,
      "hit": false,
      "t": 29305.578999999987,
      "d": 1620.3716666666623,
      "v": 79
    },
    {
      "midi": 54,
      "hit": false,
      "t": 29577.56995833332,
      "d": 1348.3807083333304,
      "v": 66
    },
    {
      "midi": 58,
      "hit": false,
      "t": 29861.134999999984,
      "d": 1035.880458333333,
      "v": 69
    },
    {
      "midi": 56,
      "hit": false,
      "t": 29861.134999999984,
      "d": 1041.6674999999996,
      "v": 83
    },
    {
      "midi": 44,
      "hit": false,
      "t": 31041.691499999983,
      "d": 2216.4369583333355,
      "v": 51
    },
    {
      "midi": 51,
      "hit": false,
      "t": 31059.052624999982,
      "d": 2216.436958333339,
      "v": 62
    },
    {
      "midi": 56,
      "hit": false,
      "t": 31082.200791666648,
      "d": 1574.0753333333341,
      "v": 54
    },
    {
      "midi": 58,
      "hit": false,
      "t": 31134.284166666646,
      "d": 2216.43695833335,
      "v": 50
    },
    {
      "midi": 60,
      "hit": false,
      "t": 31226.876833333314,
      "d": 2077.5479583333436,
      "v": 67
    },
    {
      "midi": 56,
      "hit": false,
      "t": 32800.95216666665,
      "d": 428.24108333333425,
      "v": 81
    },
    {
      "midi": 49,
      "hit": false,
      "t": 33287.063666666654,
      "d": 439.81516666668176,
      "v": 51
    },
    {
      "midi": 42,
      "hit": false,
      "t": 33292.850708333324,
      "d": 2216.4369583333682,
      "v": 51
    },
    {
      "midi": 54,
      "hit": false,
      "t": 33333.35999999999,
      "d": 601.8523333333433,
      "v": 56
    },
    {
      "midi": 56,
      "hit": false,
      "t": 33368.08225,
      "d": 677.0838750000039,
      "v": 68
    },
    {
      "midi": 58,
      "hit": false,
      "t": 33443.31379166667,
      "d": 734.954291666676,
      "v": 65
    },
    {
      "midi": 49,
      "hit": false,
      "t": 33883.128958333335,
      "d": 989.5841250000158,
      "v": 62
    },
    {
      "midi": 54,
      "hit": false,
      "t": 34160.90695833334,
      "d": 428.2410833333415,
      "v": 57
    },
    {
      "midi": 56,
      "hit": false,
      "t": 34305.58300000001,
      "d": 966.4359583333426,
      "v": 69
    },
    {
      "midi": 58,
      "hit": false,
      "t": 34577.57395833335,
      "d": 966.4359583333426,
      "v": 68
    },
    {
      "midi": 54,
      "hit": false,
      "t": 34855.35195833335,
      "d": 694.4450000000143,
      "v": 81
    },
    {
      "midi": 49,
      "hit": false,
      "t": 35144.704041666686,
      "d": 410.8799583333457,
      "v": 71
    },
    {
      "midi": 53,
      "hit": false,
      "t": 35549.79695833336,
      "d": 1608.7975833333403,
      "v": 60
    },
    {
      "midi": 46,
      "hit": false,
      "t": 35549.79695833336,
      "d": 2280.094416666674,
      "v": 61
    },
    {
      "midi": 61,
      "hit": false,
      "t": 35555.58400000003,
      "d": 1516.2049166666693,
      "v": 69
    },
    {
      "midi": 58,
      "hit": false,
      "t": 35561.3710416667,
      "d": 1562.5012500000012,
      "v": 73
    },
    {
      "midi": 53,
      "hit": false,
      "t": 37228.0390416667,
      "d": 549.768958333334,
      "v": 70
    },
    {
      "midi": 58,
      "hit": false,
      "t": 37228.0390416667,
      "d": 549.768958333334,
      "v": 81
    },
    {
      "midi": 61,
      "hit": false,
      "t": 37228.0390416667,
      "d": 549.768958333334,
      "v": 97
    },
    {
      "midi": 56,
      "hit": false,
      "t": 37772.02095833336,
      "d": 572.9171250000145,
      "v": 59
    },
    {
      "midi": 44,
      "hit": false,
      "t": 37777.808000000034,
      "d": 2216.4369583333464,
      "v": 48
    },
    {
      "midi": 51,
      "hit": false,
      "t": 37783.595041666704,
      "d": 416.6670000000013,
      "v": 73
    },
    {
      "midi": 60,
      "hit": false,
      "t": 37783.595041666704,
      "d": 873.8432916666789,
      "v": 68
    },
    {
      "midi": 51,
      "hit": false,
      "t": 38327.576958333375,
      "d": 1660.880958333335,
      "v": 65
    },
    {
      "midi": 56,
      "hit": false,
      "t": 38605.35495833338,
      "d": 532.4078333333382,
      "v": 59
    },
    {
      "midi": 58,
      "hit": false,
      "t": 38755.81804166672,
      "d": 462.96333333333314,
      "v": 56
    },
    {
      "midi": 60,
      "hit": false,
      "t": 39022.02195833338,
      "d": 966.435958333328,
      "v": 74
    },
    {
      "midi": 58,
      "hit": false,
      "t": 39311.37404166671,
      "d": 677.0838749999966,
      "v": 77
    },
    {
      "midi": 56,
      "hit": false,
      "t": 39589.15204166671,
      "d": 405.0929166666683,
      "v": 61
    },
    {
      "midi": 60,
      "hit": false,
      "t": 40000.03200000005,
      "d": 1568.288291666664,
      "v": 67
    },
    {
      "midi": 56,
      "hit": false,
      "t": 40000.03200000005,
      "d": 2118.057249999998,
      "v": 73
    },
    {
      "midi": 58,
      "hit": false,
      "t": 40000.03200000005,
      "d": 2118.057249999998,
      "v": 68
    },
    {
      "midi": 44,
      "hit": false,
      "t": 40000.03200000005,
      "d": 2216.436958333332,
      "v": 48
    },
    {
      "midi": 51,
      "hit": false,
      "t": 40000.03200000005,
      "d": 2216.436958333332,
      "v": 71
    },
    {
      "midi": 60,
      "hit": false,
      "t": 41660.91295833338,
      "d": 515.0467083333351,
      "v": 75
    },
    {
      "midi": 54,
      "hit": false,
      "t": 42222.25600000005,
      "d": 798.6117500000037,
      "v": 62
    },
    {
      "midi": 56,
      "hit": false,
      "t": 42222.25600000005,
      "d": 978.0100416666683,
      "v": 73
    },
    {
      "midi": 58,
      "hit": false,
      "t": 42222.25600000005,
      "d": 1255.7880416666667,
      "v": 63
    },
    {
      "midi": 49,
      "hit": false,
      "t": 42222.25600000005,
      "d": 1817.1310833333337,
      "v": 45
    },
    {
      "midi": 42,
      "hit": false,
      "t": 42228.04304166672,
      "d": 2187.501750000003,
      "v": 57
    },
    {
      "midi": 54,
      "hit": false,
      "t": 43188.69195833339,
      "d": 590.2782499999958,
      "v": 65
    },
    {
      "midi": 56,
      "hit": false,
      "t": 43466.469958333386,
      "d": 966.4359583333426,
      "v": 65
    },
    {
      "midi": 58,
      "hit": false,
      "t": 43744.247958333384,
      "d": 671.296833333341,
      "v": 79
    },
    {
      "midi": 54,
      "hit": false,
      "t": 44022.02595833338,
      "d": 410.8799583333457,
      "v": 79
    },
    {
      "midi": 49,
      "hit": false,
      "t": 44172.48904166672,
      "d": 237.2687083333367,
      "v": 51
    },
    {
      "midi": 61,
      "hit": false,
      "t": 44444.48000000006,
      "d": 1516.2049166666693,
      "v": 69
    },
    {
      "midi": 53,
      "hit": false,
      "t": 44444.48000000006,
      "d": 1562.5012500000012,
      "v": 73
    },
    {
      "midi": 46,
      "hit": false,
      "t": 44444.48000000006,
      "d": 2187.501750000003,
      "v": 57
    },
    {
      "midi": 58,
      "hit": false,
      "t": 44450.26704166673,
      "d": 1562.5012500000012,
      "v": 73
    },
    {
      "midi": 53,
      "hit": false,
      "t": 46116.93504166673,
      "d": 549.7689583333413,
      "v": 70
    },
    {
      "midi": 58,
      "hit": false,
      "t": 46116.93504166673,
      "d": 549.7689583333413,
      "v": 81
    },
    {
      "midi": 61,
      "hit": false,
      "t": 46116.93504166673,
      "d": 549.7689583333413,
      "v": 97
    },
    {
      "midi": 56,
      "hit": false,
      "t": 46660.9169583334,
      "d": 572.9171250000145,
      "v": 59
    },
    {
      "midi": 44,
      "hit": false,
      "t": 46666.70400000007,
      "d": 2216.4369583333464,
      "v": 48
    },
    {
      "midi": 51,
      "hit": false,
      "t": 46672.49104166674,
      "d": 416.6670000000013,
      "v": 73
    },
    {
      "midi": 60,
      "hit": false,
      "t": 46672.49104166674,
      "d": 873.8432916666789,
      "v": 68
    },
    {
      "midi": 51,
      "hit": false,
      "t": 47216.47295833341,
      "d": 1660.880958333335,
      "v": 65
    },
    {
      "midi": 56,
      "hit": false,
      "t": 47494.25095833342,
      "d": 532.4078333333382,
      "v": 59
    },
    {
      "midi": 58,
      "hit": false,
      "t": 47644.71404166675,
      "d": 462.96333333333314,
      "v": 56
    },
    {
      "midi": 60,
      "hit": false,
      "t": 47910.91795833342,
      "d": 966.435958333328,
      "v": 74
    },
    {
      "midi": 58,
      "hit": false,
      "t": 48200.27004166675,
      "d": 665.5097916666637,
      "v": 77
    },
    {
      "midi": 56,
      "hit": false,
      "t": 48478.04804166675,
      "d": 405.0929166666683,
      "v": 61
    },
    {
      "midi": 56,
      "hit": false,
      "t": 48888.92800000009,
      "d": 1383.1029583333293,
      "v": 73
    },
    {
      "midi": 60,
      "hit": false,
      "t": 48888.92800000009,
      "d": 2077.547958333329,
      "v": 67
    },
    {
      "midi": 44,
      "hit": false,
      "t": 48888.92800000009,
      "d": 2216.436958333332,
      "v": 48
    },
    {
      "midi": 51,
      "hit": false,
      "t": 48888.92800000009,
      "d": 2216.436958333332,
      "v": 71
    },
    {
      "midi": 58,
      "hit": false,
      "t": 48912.07616666675,
      "d": 2216.436958333339,
      "v": 50
    },
    {
      "midi": 56,
      "hit": false,
      "t": 50578.74416666675,
      "d": 428.24108333333425,
      "v": 81
    },
    {
      "midi": 49,
      "hit": false,
      "t": 51064.85566666675,
      "d": 439.81516666668176,
      "v": 51
    },
    {
      "midi": 42,
      "hit": false,
      "t": 51070.64270833342,
      "d": 2216.436958333361,
      "v": 51
    },
    {
      "midi": 54,
      "hit": false,
      "t": 51111.15200000009,
      "d": 601.8523333333433,
      "v": 56
    },
    {
      "midi": 56,
      "hit": false,
      "t": 51145.874250000095,
      "d": 677.0838750000039,
      "v": 68
    },
    {
      "midi": 58,
      "hit": false,
      "t": 51174.80945833343,
      "d": 734.9542916666687,
      "v": 65
    },
    {
      "midi": 49,
      "hit": false,
      "t": 51660.92095833343,
      "d": 989.5841250000085,
      "v": 62
    },
    {
      "midi": 54,
      "hit": false,
      "t": 51938.698958333436,
      "d": 428.24108333333425,
      "v": 57
    },
    {
      "midi": 56,
      "hit": false,
      "t": 52083.3750000001,
      "d": 966.4359583333426,
      "v": 69
    },
    {
      "midi": 58,
      "hit": false,
      "t": 52355.36595833344,
      "d": 966.4359583333426,
      "v": 68
    },
    {
      "midi": 54,
      "hit": false,
      "t": 52633.143958333436,
      "d": 694.4450000000143,
      "v": 81
    },
    {
      "midi": 49,
      "hit": false,
      "t": 52922.496041666775,
      "d": 410.8799583333457,
      "v": 71
    },
    {
      "midi": 53,
      "hit": false,
      "t": 53327.58895833345,
      "d": 1608.7975833333403,
      "v": 60
    },
    {
      "midi": 46,
      "hit": false,
      "t": 53327.58895833345,
      "d": 2280.094416666674,
      "v": 61
    },
    {
      "midi": 61,
      "hit": false,
      "t": 53333.37600000012,
      "d": 1516.2049166666693,
      "v": 69
    },
    {
      "midi": 58,
      "hit": false,
      "t": 53339.16304166679,
      "d": 1562.5012500000012,
      "v": 73
    },
    {
      "midi": 53,
      "hit": false,
      "t": 55005.83104166679,
      "d": 549.768958333334,
      "v": 70
    },
    {
      "midi": 58,
      "hit": false,
      "t": 55005.83104166679,
      "d": 549.768958333334,
      "v": 81
    },
    {
      "midi": 61,
      "hit": false,
      "t": 55005.83104166679,
      "d": 549.768958333334,
      "v": 97
    },
    {
      "midi": 56,
      "hit": false,
      "t": 55549.81295833345,
      "d": 572.9171250000145,
      "v": 59
    },
    {
      "midi": 44,
      "hit": false,
      "t": 55555.60000000012,
      "d": 2193.2887916666878,
      "v": 48
    },
    {
      "midi": 51,
      "hit": false,
      "t": 55561.38704166679,
      "d": 416.6670000000013,
      "v": 73
    },
    {
      "midi": 60,
      "hit": false,
      "t": 55561.38704166679,
      "d": 873.8432916666789,
      "v": 68
    },
    {
      "midi": 51,
      "hit": false,
      "t": 56105.36895833346,
      "d": 1649.3068750000166,
      "v": 65
    },
    {
      "midi": 56,
      "hit": false,
      "t": 56383.14695833347,
      "d": 1244.213958333341,
      "v": 59
    },
    {
      "midi": 58,
      "hit": false,
      "t": 56533.610041666805,
      "d": 1105.3249583333381,
      "v": 56
    },
    {
      "midi": 60,
      "hit": false,
      "t": 57222.26800000014,
      "d": 520.833749999998,
      "v": 74
    },
    {
      "midi": 51,
      "hit": false,
      "t": 57777.824000000146,
      "d": 1521.9919583333321,
      "v": 71
    },
    {
      "midi": 56,
      "hit": false,
      "t": 57777.824000000146,
      "d": 2118.0572500000053,
      "v": 73
    },
    {
      "midi": 58,
      "hit": false,
      "t": 57777.824000000146,
      "d": 2118.0572500000053,
      "v": 68
    },
    {
      "midi": 44,
      "hit": false,
      "t": 57777.824000000146,
      "d": 2216.436958333339,
      "v": 48
    },
    {
      "midi": 60,
      "hit": false,
      "t": 57777.824000000146,
      "d": 2216.436958333339,
      "v": 67
    },
    {
      "midi": 51,
      "hit": false,
      "t": 59438.70495833348,
      "d": 515.0467083333351,
      "v": 75
    },
    {
      "midi": 49,
      "hit": false,
      "t": 60000.048000000155,
      "d": 549.768958333334,
      "v": 45
    },
    {
      "midi": 54,
      "hit": false,
      "t": 60000.048000000155,
      "d": 827.5469583333397,
      "v": 62
    },
    {
      "midi": 56,
      "hit": false,
      "t": 60000.048000000155,
      "d": 1244.213958333341,
      "v": 73
    },
    {
      "midi": 58,
      "hit": false,
      "t": 60000.048000000155,
      "d": 1383.1029583333438,
      "v": 63
    },
    {
      "midi": 42,
      "hit": false,
      "t": 60005.835041666825,
      "d": 2187.5017500000176,
      "v": 57
    },
    {
      "midi": 49,
      "hit": false,
      "t": 60555.60400000016,
      "d": 1244.213958333341,
      "v": 65
    },
    {
      "midi": 54,
      "hit": false,
      "t": 60833.382000000165,
      "d": 1244.213958333341,
      "v": 65
    },
    {
      "midi": 58,
      "hit": false,
      "t": 61522.0399583335,
      "d": 671.296833333341,
      "v": 79
    },
    {
      "midi": 49,
      "hit": false,
      "t": 61950.281041666836,
      "d": 237.2687083333367,
      "v": 51
    },
    {
      "midi": 53,
      "hit": false,
      "t": 62222.27200000018,
      "d": 410.87995833333844,
      "v": 73
    },
    {
      "midi": 61,
      "hit": false,
      "t": 62222.27200000018,
      "d": 1516.2049166666766,
      "v": 69
    },
    {
      "midi": 46,
      "hit": false,
      "t": 62222.27200000018,
      "d": 2187.5017500000104,
      "v": 57
    },
    {
      "midi": 58,
      "hit": false,
      "t": 62228.05904166685,
      "d": 798.6117500000037,
      "v": 73
    },
    {
      "midi": 53,
      "hit": false,
      "t": 62638.93900000019,
      "d": 1799.7699583333379,
      "v": 73
    },
    {
      "midi": 58,
      "hit": false,
      "t": 63055.60600000019,
      "d": 1383.1029583333366,
      "v": 73
    },
    {
      "midi": 61,
      "hit": false,
      "t": 63894.727041666854,
      "d": 549.7689583333413,
      "v": 80
    },
    {
      "midi": 56,
      "hit": false,
      "t": 64438.708958333526,
      "d": 815.972875000014,
      "v": 59
    },
    {
      "midi": 44,
      "hit": false,
      "t": 64444.496000000196,
      "d": 2216.4369583333682,
      "v": 48
    },
    {
      "midi": 51,
      "hit": false,
      "t": 64450.283041666866,
      "d": 416.6670000000013,
      "v": 73
    },
    {
      "midi": 60,
      "hit": false,
      "t": 64450.283041666866,
      "d": 1105.3249583333454,
      "v": 68
    },
    {
      "midi": 51,
      "hit": false,
      "t": 64994.26495833354,
      "d": 1660.8809583333568,
      "v": 65
    },
    {
      "midi": 56,
      "hit": false,
      "t": 65272.04295833354,
      "d": 532.4078333333382,
      "v": 59
    },
    {
      "midi": 58,
      "hit": false,
      "t": 65422.50604166688,
      "d": 462.9633333333404,
      "v": 56
    },
    {
      "midi": 60,
      "hit": false,
      "t": 65688.70995833355,
      "d": 966.4359583333426,
      "v": 74
    },
    {
      "midi": 58,
      "hit": false,
      "t": 65978.06204166688,
      "d": 677.0838750000112,
      "v": 47
    },
    {
      "midi": 56,
      "hit": false,
      "t": 66255.84004166689,
      "d": 405.0929166666756,
      "v": 23
    },
    {
      "midi": 56,
      "hit": false,
      "t": 66666.72000000023,
      "d": 549.7689583333267,
      "v": 73
    },
    {
      "midi": 51,
      "hit": false,
      "t": 66666.72000000023,
      "d": 1938.6589583333262,
      "v": 71
    },
    {
      "midi": 44,
      "hit": false,
      "t": 66666.72000000023,
      "d": 2216.436958333332,
      "v": 48
    },
    {
      "midi": 58,
      "hit": false,
      "t": 66689.8681666669,
      "d": 792.8247083333263,
      "v": 50
    },
    {
      "midi": 60,
      "hit": false,
      "t": 66707.2292916669,
      "d": 1064.8156666666619,
      "v": 67
    },
    {
      "midi": 56,
      "hit": false,
      "t": 67222.27600000023,
      "d": 1660.880958333335,
      "v": 73
    },
    {
      "midi": 58,
      "hit": false,
      "t": 67500.05400000022,
      "d": 1383.1029583333438,
      "v": 64
    },
    {
      "midi": 60,
      "hit": false,
      "t": 67777.83200000023,
      "d": 1105.3249583333381,
      "v": 67
    },
    {
      "midi": 49,
      "hit": false,
      "t": 68842.64766666689,
      "d": 439.8151666666963,
      "v": 51
    },
    {
      "midi": 42,
      "hit": false,
      "t": 68848.43470833356,
      "d": 2216.43695833339,
      "v": 51
    },
    {
      "midi": 54,
      "hit": false,
      "t": 68888.94400000024,
      "d": 601.8523333333578,
      "v": 56
    },
    {
      "midi": 56,
      "hit": false,
      "t": 68923.66625000024,
      "d": 1660.880958333364,
      "v": 68
    },
    {
      "midi": 58,
      "hit": false,
      "t": 68935.24033333358,
      "d": 734.9542916666833,
      "v": 65
    },
    {
      "midi": 49,
      "hit": false,
      "t": 69438.71295833359,
      "d": 1244.2139583333483,
      "v": 62
    },
    {
      "midi": 54,
      "hit": false,
      "t": 69716.4909583336,
      "d": 688.6579583333369,
      "v": 57
    },
    {
      "midi": 58,
      "hit": false,
      "t": 69861.16700000026,
      "d": 966.4359583333426,
      "v": 68
    },
    {
      "midi": 54,
      "hit": false,
      "t": 70555.61200000027,
      "d": 526.6207916666754,
      "v": 61
    },
    {
      "midi": 49,
      "hit": false,
      "t": 70833.39000000028,
      "d": 271.9909583333356,
      "v": 45
    },
    {
      "midi": 53,
      "hit": false,
      "t": 71105.38095833361,
      "d": 1608.7975833333621,
      "v": 60
    },
    {
      "midi": 46,
      "hit": false,
      "t": 71105.38095833361,
      "d": 2280.0944166667177,
      "v": 61
    },
    {
      "midi": 61,
      "hit": false,
      "t": 71111.16800000028,
      "d": 827.546958333347,
      "v": 69
    },
    {
      "midi": 58,
      "hit": false,
      "t": 71116.95504166695,
      "d": 376.15770833333954,
      "v": 73
    },
    {
      "midi": 58,
      "hit": false,
      "t": 71527.8350000003,
      "d": 1105.3249583333381,
      "v": 72
    },
    {
      "midi": 61,
      "hit": false,
      "t": 71944.5020000003,
      "d": 827.546958333347,
      "v": 78
    },
    {
      "midi": 53,
      "hit": false,
      "t": 72783.62304166699,
      "d": 549.7689583333413,
      "v": 70
    },
    {
      "midi": 58,
      "hit": false,
      "t": 72783.62304166699,
      "d": 549.7689583333413,
      "v": 81
    },
    {
      "midi": 61,
      "hit": false,
      "t": 72783.62304166699,
      "d": 549.7689583333413,
      "v": 97
    },
    {
      "midi": 56,
      "hit": false,
      "t": 73327.60495833366,
      "d": 2175.92766666667,
      "v": 59
    },
    {
      "midi": 44,
      "hit": false,
      "t": 73333.39200000033,
      "d": 2175.92766666667,
      "v": 48
    },
    {
      "midi": 51,
      "hit": false,
      "t": 73339.179041667,
      "d": 1799.7699583333306,
      "v": 73
    },
    {
      "midi": 60,
      "hit": false,
      "t": 73339.179041667,
      "d": 2181.7147083333402,
      "v": 68
    },
    {
      "midi": 51,
      "hit": false,
      "t": 75144.736041667,
      "d": 376.15770833333954,
      "v": 76
    },
    {
      "midi": 44,
      "hit": false,
      "t": 75555.61600000034,
      "d": 509.259666666665,
      "v": 85
    },
    {
      "midi": 51,
      "hit": false,
      "t": 75555.61600000034,
      "d": 509.259666666665,
      "v": 88
    },
    {
      "midi": 56,
      "hit": false,
      "t": 75555.61600000034,
      "d": 509.259666666665,
      "v": 81
    },
    {
      "midi": 60,
      "hit": false,
      "t": 75555.61600000034,
      "d": 509.259666666665,
      "v": 79
    },
    {
      "midi": 44,
      "hit": false,
      "t": 76111.17200000034,
      "d": 509.259666666665,
      "v": 88
    },
    {
      "midi": 53,
      "hit": false,
      "t": 76111.17200000034,
      "d": 509.259666666665,
      "v": 81
    },
    {
      "midi": 56,
      "hit": false,
      "t": 76111.17200000034,
      "d": 509.259666666665,
      "v": 94
    },
    {
      "midi": 61,
      "hit": false,
      "t": 76111.17200000034,
      "d": 509.259666666665,
      "v": 97
    },
    {
      "midi": 56,
      "hit": false,
      "t": 76666.72800000034,
      "d": 613.426416666669,
      "v": 73
    },
    {
      "midi": 54,
      "hit": false,
      "t": 76666.72800000034,
      "d": 1799.7699583333306,
      "v": 73
    },
    {
      "midi": 58,
      "hit": false,
      "t": 76666.72800000034,
      "d": 3223.3822083333507,
      "v": 68
    },
    {
      "midi": 56,
      "hit": false,
      "t": 77366.960041667,
      "d": 127.31491666666989,
      "v": 59
    },
    {
      "midi": 56,
      "hit": false,
      "t": 77633.16395833367,
      "d": 1915.5107916666748,
      "v": 81
    },
    {
      "midi": 54,
      "hit": false,
      "t": 78611.17400000033,
      "d": 1250.0010000000184,
      "v": 55
    },
    {
      "midi": 49,
      "hit": false,
      "t": 78616.961041667,
      "d": 1325.2325416666863,
      "v": 77
    },
    {
      "midi": 92,
      "hit": false,
      "t": 78726.91483333333,
      "d": 2251.159208333338,
      "v": 70
    },
    {
      "midi": 87,
      "hit": false,
      "t": 78778.99820833333,
      "d": 2175.92766666667,
      "v": 71
    },
    {
      "midi": 84,
      "hit": false,
      "t": 78848.44270833333,
      "d": 2135.4183750000084,
      "v": 76
    },
    {
      "midi": 82,
      "hit": false,
      "t": 78906.313125,
      "d": 2077.5479583333363,
      "v": 61
    },
    {
      "midi": 56,
      "hit": false,
      "t": 79577.60995833368,
      "d": 127.31491666666989,
      "v": 57
    },
    {
      "midi": 56,
      "hit": false,
      "t": 79855.38795833368,
      "d": 104.16675000000396,
      "v": 48
    },
    {
      "midi": 56,
      "hit": false,
      "t": 80005.85104166702,
      "d": 457.176291666663,
      "v": 85
    },
    {
      "midi": 54,
      "hit": false,
      "t": 80005.85104166702,
      "d": 462.96333333333314,
      "v": 75
    },
    {
      "midi": 58,
      "hit": false,
      "t": 80005.85104166702,
      "d": 468.75037500000326,
      "v": 81
    },
    {
      "midi": 58,
      "hit": false,
      "t": 80555.62000000036,
      "d": 515.0467083333497,
      "v": 84
    },
    {
      "midi": 56,
      "hit": false,
      "t": 80561.40704166703,
      "d": 497.6855833333393,
      "v": 71
    },
    {
      "midi": 61,
      "hit": false,
      "t": 80561.40704166703,
      "d": 497.6855833333393,
      "v": 81
    },
    {
      "midi": 56,
      "hit": false,
      "t": 81116.96304166704,
      "d": 630.7875416666648,
      "v": 73
    },
    {
      "midi": 60,
      "hit": false,
      "t": 81116.96304166704,
      "d": 1811.3440416666708,
      "v": 68
    },
    {
      "midi": 51,
      "hit": false,
      "t": 81116.96304166704,
      "d": 1834.4922083333367,
      "v": 48
    },
    {
      "midi": 56,
      "hit": false,
      "t": 81817.1950833337,
      "d": 92.59266666666372,
      "v": 38
    },
    {
      "midi": 58,
      "hit": false,
      "t": 81817.1950833337,
      "d": 98.37970833333384,
      "v": 62
    },
    {
      "midi": 58,
      "hit": false,
      "t": 82094.97308333371,
      "d": 810.1858333333366,
      "v": 66
    },
    {
      "midi": 56,
      "hit": false,
      "t": 82210.71391666704,
      "d": 763.8895000000048,
      "v": 1
    },
    {
      "midi": 61,
      "hit": false,
      "t": 83061.40904166704,
      "d": 254.62983333333977,
      "v": 85
    },
    {
      "midi": 53,
      "hit": false,
      "t": 83061.40904166704,
      "d": 306.71320833334175,
      "v": 68
    },
    {
      "midi": 56,
      "hit": false,
      "t": 83061.40904166704,
      "d": 1290.5102916666801,
      "v": 91
    },
    {
      "midi": 77,
      "hit": false,
      "t": 83090.34425000001,
      "d": 329.86137500002224,
      "v": 76
    },
    {
      "midi": 82,
      "hit": false,
      "t": 83096.13129166668,
      "d": 329.86137500002224,
      "v": 78
    },
    {
      "midi": 73,
      "hit": false,
      "t": 83101.91833333335,
      "d": 283.5650416666758,
      "v": 72
    },
    {
      "midi": 60,
      "hit": false,
      "t": 83344.97408333371,
      "d": 1024.3063750000001,
      "v": 48
    },
    {
      "midi": 62,
      "hit": false,
      "t": 83350.76112500038,
      "d": 144.6760416666657,
      "v": 44
    },
    {
      "midi": 75,
      "hit": false,
      "t": 83373.90929166669,
      "d": 2013.8905000000232,
      "v": 60
    },
    {
      "midi": 51,
      "hit": false,
      "t": 83373.90929166705,
      "d": 966.435958333328,
      "v": 50
    },
    {
      "midi": 80,
      "hit": false,
      "t": 83379.69633333336,
      "d": 2002.316416666683,
      "v": 65
    },
    {
      "midi": 72,
      "hit": false,
      "t": 83391.2704166667,
      "d": 2025.4645833333489,
      "v": 62
    },
    {
      "midi": 56,
      "hit": false,
      "t": 84444.51200000038,
      "d": 486.11149999999907,
      "v": 85
    },
    {
      "midi": 60,
      "hit": false,
      "t": 84444.51200000038,
      "d": 503.4726249999949,
      "v": 79
    },
    {
      "midi": 51,
      "hit": false,
      "t": 84450.29904166705,
      "d": 503.4726249999949,
      "v": 71
    },
    {
      "midi": 53,
      "hit": false,
      "t": 85011.64208333372,
      "d": 491.8985416666692,
      "v": 68
    },
    {
      "midi": 61,
      "hit": false,
      "t": 85011.64208333372,
      "d": 491.8985416666692,
      "v": 79
    },
    {
      "midi": 56,
      "hit": false,
      "t": 85017.42912500039,
      "d": 491.8985416666692,
      "v": 81
    },
    {
      "midi": 56,
      "hit": false,
      "t": 85555.62400000039,
      "d": 613.426416666669,
      "v": 73
    },
    {
      "midi": 54,
      "hit": false,
      "t": 85555.62400000039,
      "d": 1799.7699583333306,
      "v": 73
    },
    {
      "midi": 58,
      "hit": false,
      "t": 85555.62400000039,
      "d": 3223.3822083333507,
      "v": 68
    },
    {
      "midi": 56,
      "hit": false,
      "t": 86255.85604166705,
      "d": 127.31491666666989,
      "v": 59
    },
    {
      "midi": 56,
      "hit": false,
      "t": 86522.05995833372,
      "d": 1915.5107916666748,
      "v": 81
    },
    {
      "midi": 54,
      "hit": false,
      "t": 87500.07000000039,
      "d": 1250.0010000000184,
      "v": 55
    },
    {
      "midi": 49,
      "hit": false,
      "t": 87505.85704166706,
      "d": 1325.2325416666863,
      "v": 77
    },
    {
      "midi": 92,
      "hit": false,
      "t": 87557.94041666671,
      "d": 2239.585124999998,
      "v": 66
    },
    {
      "midi": 87,
      "hit": false,
      "t": 87604.23675000004,
      "d": 2199.075833333336,
      "v": 77
    },
    {
      "midi": 84,
      "hit": false,
      "t": 87673.68125000004,
      "d": 2141.2054166666785,
      "v": 84
    },
    {
      "midi": 82,
      "hit": false,
      "t": 87743.12575000004,
      "d": 1984.9552916666726,
      "v": 72
    },
    {
      "midi": 56,
      "hit": false,
      "t": 88466.50595833373,
      "d": 127.31491666666989,
      "v": 57
    },
    {
      "midi": 56,
      "hit": false,
      "t": 88744.28395833373,
      "d": 104.16675000000396,
      "v": 48
    },
    {
      "midi": 56,
      "hit": false,
      "t": 88894.74704166707,
      "d": 457.176291666663,
      "v": 85
    },
    {
      "midi": 54,
      "hit": false,
      "t": 88894.74704166707,
      "d": 462.96333333333314,
      "v": 75
    },
    {
      "midi": 58,
      "hit": false,
      "t": 88894.74704166707,
      "d": 468.75037500000326,
      "v": 81
    },
    {
      "midi": 58,
      "hit": false,
      "t": 89444.51600000041,
      "d": 515.0467083333497,
      "v": 84
    },
    {
      "midi": 56,
      "hit": false,
      "t": 89450.30304166708,
      "d": 497.6855833333393,
      "v": 71
    },
    {
      "midi": 61,
      "hit": false,
      "t": 89450.30304166708,
      "d": 497.6855833333393,
      "v": 81
    },
    {
      "midi": 51,
      "hit": false,
      "t": 90000.07200000042,
      "d": 1805.5570000000007,
      "v": 79
    },
    {
      "midi": 56,
      "hit": false,
      "t": 90000.07200000042,
      "d": 1805.5570000000007,
      "v": 79
    },
    {
      "midi": 60,
      "hit": false,
      "t": 90000.07200000042,
      "d": 4375.003500000006,
      "v": 75
    },
    {
      "midi": 75,
      "hit": false,
      "t": 90011.64608333338,
      "d": 2853.0115416666667,
      "v": 58
    },
    {
      "midi": 80,
      "hit": false,
      "t": 90011.64608333338,
      "d": 2858.798583333337,
      "v": 79
    },
    {
      "midi": 72,
      "hit": false,
      "t": 90011.64608333338,
      "d": 2864.585625000007,
      "v": 71
    },
    {
      "midi": 58,
      "hit": false,
      "t": 90700.30404166708,
      "d": 121.52787499999977,
      "v": 65
    },
    {
      "midi": 58,
      "hit": false,
      "t": 90978.08204166709,
      "d": 1660.880958333335,
      "v": 75
    },
    {
      "midi": 51,
      "hit": false,
      "t": 91950.30504166709,
      "d": 393.51883333333535,
      "v": 77
    },
    {
      "midi": 56,
      "hit": false,
      "t": 91950.30504166709,
      "d": 509.259666666665,
      "v": 77
    },
    {
      "midi": 51,
      "hit": false,
      "t": 92488.49991666709,
      "d": 1915.5107916666748,
      "v": 46
    },
    {
      "midi": 56,
      "hit": false,
      "t": 92633.17595833376,
      "d": 1753.4736250000133,
      "v": 73
    },
    {
      "midi": 58,
      "hit": false,
      "t": 92910.95395833376,
      "d": 138.88899999999558,
      "v": 71
    },
    {
      "midi": 58,
      "hit": false,
      "t": 93200.30604166709,
      "d": 1151.62129166667,
      "v": 75
    },
    {
      "midi": 44,
      "hit": false,
      "t": 94444.52000000043,
      "d": 2216.436958333332,
      "v": 48
    },
    {
      "midi": 51,
      "hit": false,
      "t": 94444.52000000043,
      "d": 2216.436958333332,
      "v": 71
    },
    {
      "midi": 56,
      "hit": false,
      "t": 94444.52000000043,
      "d": 2216.436958333332,
      "v": 50
    },
    {
      "midi": 58,
      "hit": false,
      "t": 94467.66816666709,
      "d": 2216.436958333332,
      "v": 50
    },
    {
      "midi": 60,
      "hit": false,
      "t": 94560.26083333376,
      "d": 2077.5479583333363,
      "v": 67
    },
    {
      "midi": 49,
      "hit": false,
      "t": 96620.44766666708,
      "d": 2216.4369583333464,
      "v": 51
    },
    {
      "midi": 42,
      "hit": false,
      "t": 96626.23470833375,
      "d": 2216.4369583333464,
      "v": 51
    },
    {
      "midi": 54,
      "hit": false,
      "t": 96666.74400000043,
      "d": 2216.4369583333464,
      "v": 56
    },
    {
      "midi": 56,
      "hit": false,
      "t": 96701.46625000042,
      "d": 2077.5479583333363,
      "v": 68
    },
    {
      "midi": 58,
      "hit": false,
      "t": 96776.69779166709,
      "d": 2077.547958333351,
      "v": 65
    },
    {
      "midi": 53,
      "hit": false,
      "t": 98883.18095833377,
      "d": 2216.4369583333464,
      "v": 60
    },
    {
      "midi": 46,
      "hit": false,
      "t": 98883.18095833377,
      "d": 2280.0944166666886,
      "v": 61
    },
    {
      "midi": 61,
      "hit": false,
      "t": 98888.96800000044,
      "d": 2216.4369583333464,
      "v": 69
    },
    {
      "midi": 58,
      "hit": false,
      "t": 98894.75504166711,
      "d": 2210.6499166666763,
      "v": 73
    },
    {
      "midi": 56,
      "hit": false,
      "t": 101105.40495833379,
      "d": 2077.5479583333363,
      "v": 59
    },
    {
      "midi": 58,
      "hit": false,
      "t": 101111.19200000046,
      "d": 2077.5479583333363,
      "v": 59
    },
    {
      "midi": 44,
      "hit": false,
      "t": 101111.19200000046,
      "d": 2216.4369583333464,
      "v": 48
    },
    {
      "midi": 51,
      "hit": false,
      "t": 101116.97904166713,
      "d": 2077.5479583333363,
      "v": 73
    },
    {
      "midi": 60,
      "hit": false,
      "t": 101116.97904166713,
      "d": 2077.5479583333363,
      "v": 68
    },
    {
      "midi": 60,
      "hit": false,
      "t": 103333.41600000048,
      "d": 2077.5479583333363,
      "v": 67
    },
    {
      "midi": 56,
      "hit": false,
      "t": 103333.41600000048,
      "d": 2118.057249999998,
      "v": 73
    },
    {
      "midi": 58,
      "hit": false,
      "t": 103333.41600000048,
      "d": 2118.057249999998,
      "v": 68
    },
    {
      "midi": 44,
      "hit": false,
      "t": 103333.41600000048,
      "d": 2216.436958333332,
      "v": 48
    },
    {
      "midi": 51,
      "hit": false,
      "t": 103333.41600000048,
      "d": 2216.436958333332,
      "v": 71
    },
    {
      "midi": 54,
      "hit": false,
      "t": 105555.64000000048,
      "d": 798.6117499999964,
      "v": 62
    },
    {
      "midi": 49,
      "hit": false,
      "t": 105555.64000000048,
      "d": 804.3987916666665,
      "v": 45
    },
    {
      "midi": 56,
      "hit": false,
      "t": 105555.64000000048,
      "d": 978.0100416666828,
      "v": 73
    },
    {
      "midi": 58,
      "hit": false,
      "t": 105555.64000000048,
      "d": 1383.1029583333438,
      "v": 63
    },
    {
      "midi": 42,
      "hit": false,
      "t": 105561.42704166715,
      "d": 2187.501749999996,
      "v": 57
    },
    {
      "midi": 49,
      "hit": false,
      "t": 106388.97400000048,
      "d": 1244.2139583333337,
      "v": 52
    },
    {
      "midi": 54,
      "hit": false,
      "t": 106522.07595833382,
      "d": 966.435958333328,
      "v": 65
    },
    {
      "midi": 56,
      "hit": false,
      "t": 106799.85395833383,
      "d": 966.4359583333135,
      "v": 58
    },
    {
      "midi": 58,
      "hit": false,
      "t": 107077.63195833382,
      "d": 671.2968333333265,
      "v": 70
    },
    {
      "midi": 53,
      "hit": false,
      "t": 107777.86400000048,
      "d": 1626.1587083333434,
      "v": 73
    },
    {
      "midi": 61,
      "hit": false,
      "t": 107777.86400000048,
      "d": 1631.9457500000135,
      "v": 69
    },
    {
      "midi": 46,
      "hit": false,
      "t": 107777.86400000048,
      "d": 2187.5017500000104,
      "v": 57
    },
    {
      "midi": 58,
      "hit": false,
      "t": 107783.65104166715,
      "d": 1626.1587083333434,
      "v": 73
    },
    {
      "midi": 53,
      "hit": false,
      "t": 109450.31904166716,
      "d": 549.7689583333413,
      "v": 61
    },
    {
      "midi": 58,
      "hit": false,
      "t": 109450.31904166716,
      "d": 549.7689583333413,
      "v": 71
    },
    {
      "midi": 61,
      "hit": false,
      "t": 109450.31904166716,
      "d": 549.7689583333413,
      "v": 85
    },
    {
      "midi": 56,
      "hit": false,
      "t": 109994.30095833383,
      "d": 572.9171250000072,
      "v": 59
    },
    {
      "midi": 44,
      "hit": false,
      "t": 110000.0880000005,
      "d": 2216.4369583333464,
      "v": 48
    },
    {
      "midi": 51,
      "hit": false,
      "t": 110005.87504166717,
      "d": 416.6670000000013,
      "v": 73
    },
    {
      "midi": 60,
      "hit": false,
      "t": 110005.87504166717,
      "d": 873.8432916666643,
      "v": 68
    },
    {
      "midi": 51,
      "hit": false,
      "t": 110549.85695833384,
      "d": 1660.880958333335,
      "v": 65
    },
    {
      "midi": 56,
      "hit": false,
      "t": 110827.63495833383,
      "d": 532.4078333333309,
      "v": 59
    },
    {
      "midi": 58,
      "hit": false,
      "t": 110978.09804166717,
      "d": 462.96333333333314,
      "v": 56
    },
    {
      "midi": 60,
      "hit": false,
      "t": 111244.30195833383,
      "d": 966.4359583333426,
      "v": 74
    },
    {
      "midi": 58,
      "hit": false,
      "t": 111533.65404166716,
      "d": 665.5097916666709,
      "v": 77
    },
    {
      "midi": 56,
      "hit": false,
      "t": 111811.43204166717,
      "d": 405.0929166666756,
      "v": 61
    },
    {
      "midi": 56,
      "hit": false,
      "t": 112222.31200000051,
      "d": 2077.5479583333363,
      "v": 73
    },
    {
      "midi": 60,
      "hit": false,
      "t": 112222.31200000051,
      "d": 2077.5479583333363,
      "v": 67
    },
    {
      "midi": 44,
      "hit": false,
      "t": 112222.31200000051,
      "d": 2216.4369583333464,
      "v": 48
    },
    {
      "midi": 51,
      "hit": false,
      "t": 112222.31200000051,
      "d": 2216.4369583333464,
      "v": 71
    },
    {
      "midi": 58,
      "hit": false,
      "t": 112245.46016666718,
      "d": 2216.4369583333464,
      "v": 50
    },
    {
      "midi": 49,
      "hit": false,
      "t": 114398.23966666718,
      "d": 1660.880958333335,
      "v": 51
    },
    {
      "midi": 42,
      "hit": false,
      "t": 114404.02670833385,
      "d": 2216.436958333332,
      "v": 51
    },
    {
      "midi": 54,
      "hit": false,
      "t": 114444.53600000053,
      "d": 1660.8809583333205,
      "v": 56
    },
    {
      "midi": 56,
      "hit": false,
      "t": 114479.25825000052,
      "d": 1660.880958333335,
      "v": 68
    },
    {
      "midi": 58,
      "hit": false,
      "t": 114508.19345833386,
      "d": 2077.5479583333217,
      "v": 65
    },
    {
      "midi": 54,
      "hit": false,
      "t": 116111.20400000052,
      "d": 410.87995833333116,
      "v": 66
    },
    {
      "midi": 49,
      "hit": false,
      "t": 116111.20400000052,
      "d": 549.7689583333267,
      "v": 66
    },
    {
      "midi": 53,
      "hit": false,
      "t": 116660.97295833385,
      "d": 1608.7975833333476,
      "v": 60
    },
    {
      "midi": 46,
      "hit": false,
      "t": 116660.97295833385,
      "d": 2280.0944166666886,
      "v": 61
    },
    {
      "midi": 61,
      "hit": false,
      "t": 116666.76000000052,
      "d": 1516.2049166666693,
      "v": 69
    },
    {
      "midi": 58,
      "hit": false,
      "t": 116672.54704166719,
      "d": 1562.5012500000012,
      "v": 73
    },
    {
      "midi": 53,
      "hit": false,
      "t": 118339.2150416672,
      "d": 549.7689583333413,
      "v": 70
    },
    {
      "midi": 58,
      "hit": false,
      "t": 118339.2150416672,
      "d": 549.7689583333413,
      "v": 81
    },
    {
      "midi": 61,
      "hit": false,
      "t": 118339.2150416672,
      "d": 549.7689583333413,
      "v": 97
    },
    {
      "midi": 56,
      "hit": false,
      "t": 118883.19695833387,
      "d": 2077.5479583333363,
      "v": 59
    },
    {
      "midi": 44,
      "hit": false,
      "t": 118888.98400000054,
      "d": 2193.288791666666,
      "v": 48
    },
    {
      "midi": 51,
      "hit": false,
      "t": 118894.7710416672,
      "d": 2077.5479583333363,
      "v": 73
    },
    {
      "midi": 60,
      "hit": false,
      "t": 118894.7710416672,
      "d": 2077.5479583333363,
      "v": 68
    },
    {
      "midi": 51,
      "hit": false,
      "t": 121111.20800000054,
      "d": 1493.0567500000034,
      "v": 71
    },
    {
      "midi": 56,
      "hit": false,
      "t": 121111.20800000054,
      "d": 1631.945749999999,
      "v": 73
    },
    {
      "midi": 58,
      "hit": false,
      "t": 121111.20800000054,
      "d": 1631.945749999999,
      "v": 68
    },
    {
      "midi": 60,
      "hit": false,
      "t": 121111.20800000054,
      "d": 1631.945749999999,
      "v": 67
    },
    {
      "midi": 44,
      "hit": false,
      "t": 121111.20800000054,
      "d": 2187.5017500000104,
      "v": 48
    },
    {
      "midi": 63,
      "hit": false,
      "t": 122500.09800000054,
      "d": 271.9909583333356,
      "v": 67
    },
    {
      "midi": 51,
      "hit": false,
      "t": 122772.08895833387,
      "d": 515.0467083333351,
      "v": 75
    },
    {
      "midi": 56,
      "hit": false,
      "t": 122789.45008333387,
      "d": 474.5374166666734,
      "v": 58
    },
    {
      "midi": 60,
      "hit": false,
      "t": 122795.23712500054,
      "d": 549.7689583333558,
      "v": 57
    },
    {
      "midi": 49,
      "hit": false,
      "t": 123333.43200000055,
      "d": 549.7689583333413,
      "v": 45
    },
    {
      "midi": 54,
      "hit": false,
      "t": 123333.43200000055,
      "d": 827.546958333347,
      "v": 62
    },
    {
      "midi": 56,
      "hit": false,
      "t": 123333.43200000055,
      "d": 1244.2139583333483,
      "v": 73
    },
    {
      "midi": 58,
      "hit": false,
      "t": 123333.43200000055,
      "d": 1383.1029583333438,
      "v": 63
    },
    {
      "midi": 42,
      "hit": false,
      "t": 123339.21904166722,
      "d": 2187.5017500000104,
      "v": 57
    },
    {
      "midi": 49,
      "hit": false,
      "t": 123888.98800000057,
      "d": 1244.2139583333337,
      "v": 65
    },
    {
      "midi": 54,
      "hit": false,
      "t": 124166.76600000057,
      "d": 1244.2139583333337,
      "v": 65
    },
    {
      "midi": 58,
      "hit": false,
      "t": 124855.4239583339,
      "d": 671.296833333341,
      "v": 79
    },
    {
      "midi": 49,
      "hit": false,
      "t": 125283.66504166723,
      "d": 237.2687083333294,
      "v": 51
    },
    {
      "midi": 53,
      "hit": false,
      "t": 125555.65600000057,
      "d": 410.87995833333116,
      "v": 73
    },
    {
      "midi": 61,
      "hit": false,
      "t": 125555.65600000057,
      "d": 827.5469583333324,
      "v": 69
    },
    {
      "midi": 46,
      "hit": false,
      "t": 125555.65600000057,
      "d": 2187.501749999996,
      "v": 57
    },
    {
      "midi": 58,
      "hit": false,
      "t": 125561.44304166724,
      "d": 798.6117499999964,
      "v": 73
    },
    {
      "midi": 53,
      "hit": false,
      "t": 126128.57312500056,
      "d": 648.1486666666751,
      "v": 50
    },
    {
      "midi": 58,
      "hit": false,
      "t": 126406.35112500057,
      "d": 636.5745833333349,
      "v": 57
    },
    {
      "midi": 61,
      "hit": false,
      "t": 126412.13816666724,
      "d": 636.5745833333349,
      "v": 61
    },
    {
      "midi": 53,
      "hit": false,
      "t": 126944.54600000057,
      "d": 706.0190833333327,
      "v": 50
    },
    {
      "midi": 58,
      "hit": false,
      "t": 127239.68512500057,
      "d": 451.3892499999929,
      "v": 71
    },
    {
      "midi": 61,
      "hit": false,
      "t": 127239.68512500057,
      "d": 451.3892499999929,
      "v": 77
    },
    {
      "midi": 56,
      "hit": false,
      "t": 127772.0929583339,
      "d": 2187.5017500000104,
      "v": 59
    },
    {
      "midi": 44,
      "hit": false,
      "t": 127777.88000000057,
      "d": 2187.5017500000104,
      "v": 48
    },
    {
      "midi": 51,
      "hit": false,
      "t": 127783.66704166724,
      "d": 2187.5017500000104,
      "v": 73
    },
    {
      "midi": 60,
      "hit": false,
      "t": 127783.66704166724,
      "d": 2187.5017500000104,
      "v": 68
    },
    {
      "midi": 56,
      "hit": false,
      "t": 130000.10400000059,
      "d": 549.7689583333267,
      "v": 73
    },
    {
      "midi": 51,
      "hit": false,
      "t": 130000.10400000059,
      "d": 2077.5479583333217,
      "v": 71
    },
    {
      "midi": 44,
      "hit": false,
      "t": 130000.10400000059,
      "d": 2216.4369583333173,
      "v": 48
    },
    {
      "midi": 58,
      "hit": false,
      "t": 130023.25216666725,
      "d": 792.8247083333263,
      "v": 50
    },
    {
      "midi": 60,
      "hit": false,
      "t": 130040.61329166725,
      "d": 2077.5479583333363,
      "v": 67
    },
    {
      "midi": 56,
      "hit": false,
      "t": 130555.66000000059,
      "d": 1660.8809583333205,
      "v": 48
    },
    {
      "midi": 58,
      "hit": false,
      "t": 130833.43800000058,
      "d": 1383.1029583333293,
      "v": 54
    },
    {
      "midi": 49,
      "hit": false,
      "t": 132176.03166666726,
      "d": 439.8151666666672,
      "v": 51
    },
    {
      "midi": 42,
      "hit": false,
      "t": 132181.8187083339,
      "d": 2216.436958333361,
      "v": 51
    },
    {
      "midi": 54,
      "hit": false,
      "t": 132222.32800000056,
      "d": 1643.5198333333537,
      "v": 56
    },
    {
      "midi": 56,
      "hit": false,
      "t": 132245.47616666724,
      "d": 763.8895000000193,
      "v": 68
    },
    {
      "midi": 58,
      "hit": false,
      "t": 132268.62433333392,
      "d": 1591.4364583333372,
      "v": 65
    },
    {
      "midi": 49,
      "hit": false,
      "t": 132772.09695833392,
      "d": 1105.3249583333381,
      "v": 62
    },
    {
      "midi": 56,
      "hit": false,
      "t": 133049.87495833394,
      "d": 827.5469583333179,
      "v": 57
    },
    {
      "midi": 54,
      "hit": false,
      "t": 133888.9960000006,
      "d": 526.6207916666754,
      "v": 61
    },
    {
      "midi": 58,
      "hit": false,
      "t": 133888.9960000006,
      "d": 526.6207916666754,
      "v": 61
    },
    {
      "midi": 49,
      "hit": false,
      "t": 133888.9960000006,
      "d": 549.7689583333558,
      "v": 45
    },
    {
      "midi": 53,
      "hit": false,
      "t": 134438.76495833395,
      "d": 1608.7975833332748,
      "v": 60
    },
    {
      "midi": 46,
      "hit": false,
      "t": 134438.76495833395,
      "d": 2280.094416666572,
      "v": 61
    },
    {
      "midi": 61,
      "hit": false,
      "t": 134444.5520000006,
      "d": 1637.7327916666109,
      "v": 69
    },
    {
      "midi": 58,
      "hit": false,
      "t": 134450.33904166726,
      "d": 688.6579583333223,
      "v": 73
    },
    {
      "midi": 65,
      "hit": false,
      "t": 135000.1080000006,
      "d": 271.9909583333356,
      "v": 78
    },
    {
      "midi": 58,
      "hit": false,
      "t": 135277.88600000058,
      "d": 688.6579583333223,
      "v": 73
    },
    {
      "midi": 53,
      "hit": false,
      "t": 136117.0070416672,
      "d": 549.7689583333267,
      "v": 57
    },
    {
      "midi": 58,
      "hit": false,
      "t": 136117.0070416672,
      "d": 549.7689583333267,
      "v": 66
    },
    {
      "midi": 61,
      "hit": false,
      "t": 136117.0070416672,
      "d": 549.7689583333267,
      "v": 80
    },
    {
      "midi": 56,
      "hit": false,
      "t": 136660.98895833388,
      "d": 2175.9276666665974,
      "v": 59
    },
    {
      "midi": 44,
      "hit": false,
      "t": 136666.77600000054,
      "d": 2175.9276666665974,
      "v": 48
    },
    {
      "midi": 60,
      "hit": false,
      "t": 136672.5630416672,
      "d": 1655.0939166666649,
      "v": 68
    },
    {
      "midi": 51,
      "hit": false,
      "t": 136672.5630416672,
      "d": 1799.769958333316,
      "v": 73
    },
    {
      "midi": 63,
      "hit": false,
      "t": 137222.33200000052,
      "d": 966.4359583333426,
      "v": 68
    },
    {
      "midi": 60,
      "hit": false,
      "t": 138333.4440000005,
      "d": 376.15770833331044,
      "v": 76
    },
    {
      "midi": 51,
      "hit": false,
      "t": 138611.2220000005,
      "d": 271.9909583333065,
      "v": 76
    },
    {
      "midi": 44,
      "hit": false,
      "t": 138889.00000000047,
      "d": 509.25966666667955,
      "v": 85
    },
    {
      "midi": 51,
      "hit": false,
      "t": 138889.00000000047,
      "d": 509.25966666667955,
      "v": 88
    },
    {
      "midi": 56,
      "hit": false,
      "t": 138889.00000000047,
      "d": 509.25966666667955,
      "v": 81
    },
    {
      "midi": 60,
      "hit": false,
      "t": 138889.00000000047,
      "d": 509.25966666667955,
      "v": 79
    },
    {
      "midi": 44,
      "hit": false,
      "t": 139444.55600000048,
      "d": 509.25966666667955,
      "v": 88
    },
    {
      "midi": 53,
      "hit": false,
      "t": 139444.55600000048,
      "d": 509.25966666667955,
      "v": 81
    },
    {
      "midi": 56,
      "hit": false,
      "t": 139444.55600000048,
      "d": 509.25966666667955,
      "v": 94
    },
    {
      "midi": 61,
      "hit": false,
      "t": 139444.55600000048,
      "d": 509.25966666667955,
      "v": 97
    },
    {
      "midi": 56,
      "hit": false,
      "t": 140000.1120000005,
      "d": 613.4264166666544,
      "v": 73
    },
    {
      "midi": 54,
      "hit": false,
      "t": 140000.1120000005,
      "d": 1799.769958333316,
      "v": 73
    },
    {
      "midi": 58,
      "hit": false,
      "t": 140000.1120000005,
      "d": 3223.3822083332925,
      "v": 68
    },
    {
      "midi": 56,
      "hit": false,
      "t": 140700.34404166715,
      "d": 127.31491666665534,
      "v": 59
    },
    {
      "midi": 56,
      "hit": false,
      "t": 140966.5479583338,
      "d": 1915.5107916666602,
      "v": 81
    },
    {
      "midi": 54,
      "hit": false,
      "t": 141944.55800000048,
      "d": 1250.0009999999602,
      "v": 55
    },
    {
      "midi": 49,
      "hit": false,
      "t": 141950.34504166714,
      "d": 1325.232541666628,
      "v": 77
    },
    {
      "midi": 92,
      "hit": false,
      "t": 142060.2988333334,
      "d": 2251.1592083333526,
      "v": 70
    },
    {
      "midi": 87,
      "hit": false,
      "t": 142112.38220833338,
      "d": 2175.9276666666847,
      "v": 71
    },
    {
      "midi": 84,
      "hit": false,
      "t": 142181.8267083334,
      "d": 2135.4183750000084,
      "v": 76
    },
    {
      "midi": 82,
      "hit": false,
      "t": 142239.69712500006,
      "d": 2077.5479583333363,
      "v": 61
    },
    {
      "midi": 56,
      "hit": false,
      "t": 142910.9939583338,
      "d": 127.31491666665534,
      "v": 57
    },
    {
      "midi": 56,
      "hit": false,
      "t": 143188.7719583338,
      "d": 104.16674999997485,
      "v": 48
    },
    {
      "midi": 56,
      "hit": false,
      "t": 143339.2350416671,
      "d": 457.176291666663,
      "v": 85
    },
    {
      "midi": 54,
      "hit": false,
      "t": 143339.2350416671,
      "d": 462.9633333333186,
      "v": 75
    },
    {
      "midi": 58,
      "hit": false,
      "t": 143339.2350416671,
      "d": 468.75037499997416,
      "v": 81
    },
    {
      "midi": 58,
      "hit": false,
      "t": 143889.0040000004,
      "d": 515.0467083333351,
      "v": 84
    },
    {
      "midi": 56,
      "hit": false,
      "t": 143894.79104166705,
      "d": 497.6855833333393,
      "v": 71
    },
    {
      "midi": 61,
      "hit": false,
      "t": 143894.79104166705,
      "d": 497.6855833333393,
      "v": 81
    },
    {
      "midi": 56,
      "hit": false,
      "t": 144450.34704166706,
      "d": 630.7875416666793,
      "v": 73
    },
    {
      "midi": 60,
      "hit": false,
      "t": 144450.34704166706,
      "d": 1811.3440416667145,
      "v": 68
    },
    {
      "midi": 51,
      "hit": false,
      "t": 144450.34704166706,
      "d": 1834.492208333395,
      "v": 48
    },
    {
      "midi": 56,
      "hit": false,
      "t": 145150.57908333375,
      "d": 92.59266666666372,
      "v": 38
    },
    {
      "midi": 58,
      "hit": false,
      "t": 145150.57908333375,
      "d": 98.37970833331929,
      "v": 62
    },
    {
      "midi": 58,
      "hit": false,
      "t": 145428.35708333374,
      "d": 810.1858333333512,
      "v": 66
    },
    {
      "midi": 56,
      "hit": false,
      "t": 145544.0979166671,
      "d": 763.8895000000484,
      "v": 1
    },
    {
      "midi": 61,
      "hit": false,
      "t": 146394.79304166714,
      "d": 254.62983333333977,
      "v": 85
    },
    {
      "midi": 53,
      "hit": false,
      "t": 146394.79304166714,
      "d": 306.7132083333272,
      "v": 68
    },
    {
      "midi": 56,
      "hit": false,
      "t": 146394.79304166714,
      "d": 1290.5102916666656,
      "v": 91
    },
    {
      "midi": 77,
      "hit": false,
      "t": 146423.72825000007,
      "d": 329.8613749999495,
      "v": 76
    },
    {
      "midi": 82,
      "hit": false,
      "t": 146429.51529166673,
      "d": 329.8613749999495,
      "v": 78
    },
    {
      "midi": 73,
      "hit": false,
      "t": 146435.30233333338,
      "d": 283.5650416666467,
      "v": 72
    },
    {
      "midi": 60,
      "hit": false,
      "t": 146678.35808333382,
      "d": 1024.3063749999856,
      "v": 48
    },
    {
      "midi": 62,
      "hit": false,
      "t": 146684.14512500048,
      "d": 144.67604166665114,
      "v": 44
    },
    {
      "midi": 75,
      "hit": false,
      "t": 146707.29329166672,
      "d": 2013.8904999999504,
      "v": 60
    },
    {
      "midi": 51,
      "hit": false,
      "t": 146707.29329166713,
      "d": 966.4359583333426,
      "v": 50
    },
    {
      "midi": 80,
      "hit": false,
      "t": 146713.08033333338,
      "d": 2002.3164166666393,
      "v": 65
    },
    {
      "midi": 72,
      "hit": false,
      "t": 146724.6544166667,
      "d": 2025.4645833333198,
      "v": 62
    },
    {
      "midi": 56,
      "hit": false,
      "t": 147777.89600000047,
      "d": 486.11149999999907,
      "v": 85
    },
    {
      "midi": 60,
      "hit": false,
      "t": 147777.89600000047,
      "d": 503.4726249999949,
      "v": 79
    },
    {
      "midi": 51,
      "hit": false,
      "t": 147783.68304166713,
      "d": 503.4726249999949,
      "v": 71
    },
    {
      "midi": 53,
      "hit": false,
      "t": 148345.0260833338,
      "d": 491.89854166665464,
      "v": 68
    },
    {
      "midi": 61,
      "hit": false,
      "t": 148345.0260833338,
      "d": 491.89854166665464,
      "v": 79
    },
    {
      "midi": 56,
      "hit": false,
      "t": 148350.81312500045,
      "d": 491.89854166665464,
      "v": 81
    },
    {
      "midi": 56,
      "hit": false,
      "t": 148889.00800000044,
      "d": 613.4264166666544,
      "v": 73
    },
    {
      "midi": 54,
      "hit": false,
      "t": 148889.00800000044,
      "d": 1799.769958333316,
      "v": 73
    },
    {
      "midi": 58,
      "hit": false,
      "t": 148889.00800000044,
      "d": 3223.3822083332925,
      "v": 68
    },
    {
      "midi": 56,
      "hit": false,
      "t": 149589.2400416671,
      "d": 127.31491666665534,
      "v": 59
    },
    {
      "midi": 56,
      "hit": false,
      "t": 149855.44395833375,
      "d": 1915.5107916666602,
      "v": 81
    },
    {
      "midi": 54,
      "hit": false,
      "t": 150833.45400000043,
      "d": 1250.0009999999602,
      "v": 55
    },
    {
      "midi": 49,
      "hit": false,
      "t": 150839.2410416671,
      "d": 1325.232541666628,
      "v": 77
    },
    {
      "midi": 92,
      "hit": false,
      "t": 150891.32441666667,
      "d": 2239.5851250000414,
      "v": 66
    },
    {
      "midi": 87,
      "hit": false,
      "t": 150937.62075,
      "d": 2199.075833333365,
      "v": 77
    },
    {
      "midi": 84,
      "hit": false,
      "t": 151007.06525,
      "d": 2141.205416666693,
      "v": 84
    },
    {
      "midi": 82,
      "hit": false,
      "t": 151076.50975000003,
      "d": 1984.9552916666726,
      "v": 72
    },
    {
      "midi": 56,
      "hit": false,
      "t": 151799.88995833375,
      "d": 127.31491666665534,
      "v": 57
    },
    {
      "midi": 56,
      "hit": false,
      "t": 152077.66795833374,
      "d": 104.16674999997485,
      "v": 48
    },
    {
      "midi": 56,
      "hit": false,
      "t": 152228.13104166705,
      "d": 457.176291666663,
      "v": 85
    },
    {
      "midi": 54,
      "hit": false,
      "t": 152228.13104166705,
      "d": 462.9633333333186,
      "v": 75
    },
    {
      "midi": 58,
      "hit": false,
      "t": 152228.13104166705,
      "d": 468.75037499997416,
      "v": 81
    },
    {
      "midi": 58,
      "hit": false,
      "t": 152777.90000000034,
      "d": 515.0467083333351,
      "v": 84
    },
    {
      "midi": 56,
      "hit": false,
      "t": 152783.687041667,
      "d": 497.6855833333393,
      "v": 71
    },
    {
      "midi": 61,
      "hit": false,
      "t": 152783.687041667,
      "d": 497.6855833333393,
      "v": 81
    },
    {
      "midi": 51,
      "hit": false,
      "t": 153333.45600000035,
      "d": 1805.5570000000007,
      "v": 79
    },
    {
      "midi": 56,
      "hit": false,
      "t": 153333.45600000035,
      "d": 1805.5570000000007,
      "v": 79
    },
    {
      "midi": 60,
      "hit": false,
      "t": 153333.45600000035,
      "d": 4375.00350000005,
      "v": 75
    },
    {
      "midi": 75,
      "hit": false,
      "t": 153345.03008333337,
      "d": 2853.0115416666667,
      "v": 58
    },
    {
      "midi": 80,
      "hit": false,
      "t": 153345.03008333337,
      "d": 2858.7985833333223,
      "v": 79
    },
    {
      "midi": 72,
      "hit": false,
      "t": 153345.03008333337,
      "d": 2864.585624999978,
      "v": 71
    },
    {
      "midi": 58,
      "hit": false,
      "t": 154033.68804166702,
      "d": 121.52787499999977,
      "v": 65
    },
    {
      "midi": 58,
      "hit": false,
      "t": 154311.466041667,
      "d": 1660.8809583333787,
      "v": 75
    },
    {
      "midi": 51,
      "hit": false,
      "t": 155283.68904166704,
      "d": 393.51883333333535,
      "v": 77
    },
    {
      "midi": 56,
      "hit": false,
      "t": 155283.68904166704,
      "d": 509.25966666667955,
      "v": 77
    },
    {
      "midi": 51,
      "hit": false,
      "t": 155821.88391666705,
      "d": 1481.4826666666777,
      "v": 46
    },
    {
      "midi": 56,
      "hit": false,
      "t": 155966.55995833373,
      "d": 1244.2139583333337,
      "v": 73
    },
    {
      "midi": 58,
      "hit": false,
      "t": 156244.33795833372,
      "d": 138.88899999999558,
      "v": 71
    },
    {
      "midi": 58,
      "hit": false,
      "t": 156527.9030000004,
      "d": 1244.2139583333337,
      "v": 71
    },
    {
      "midi": 51,
      "hit": false,
      "t": 157361.2370000004,
      "d": 410.87995833333116,
      "v": 81
    },
    {
      "midi": 56,
      "hit": false,
      "t": 157361.2370000004,
      "d": 410.87995833333116,
      "v": 81
    },
    {
      "midi": 60,
      "hit": false,
      "t": 157783.69104166707,
      "d": 341.4354583333188,
      "v": 86
    },
    {
      "midi": 56,
      "hit": false,
      "t": 157789.47808333373,
      "d": 364.5836249999993,
      "v": 91
    },
    {
      "midi": 58,
      "hit": false,
      "t": 158188.78395833372,
      "d": 364.5836249999993,
      "v": 77
    },
    {
      "midi": 61,
      "hit": false,
      "t": 158200.35804166706,
      "d": 318.28729166666744,
      "v": 75
    },
    {
      "midi": 63,
      "hit": false,
      "t": 158605.4509583337,
      "d": 225.69462500000373,
      "v": 79
    },
    {
      "midi": 60,
      "hit": false,
      "t": 158605.4509583337,
      "d": 289.3520833333314,
      "v": 67
    },
    {
      "midi": 65,
      "hit": false,
      "t": 158894.80304166704,
      "d": 341.4354583333479,
      "v": 92
    },
    {
      "midi": 61,
      "hit": false,
      "t": 158894.80304166704,
      "d": 347.2225000000035,
      "v": 91
    },
    {
      "midi": 60,
      "hit": false,
      "t": 159299.8959583337,
      "d": 347.2225000000035,
      "v": 70
    },
    {
      "midi": 63,
      "hit": false,
      "t": 159299.8959583337,
      "d": 347.2225000000035,
      "v": 88
    },
    {
      "midi": 61,
      "hit": false,
      "t": 159716.56295833373,
      "d": 260.41687499999534,
      "v": 91
    },
    {
      "midi": 58,
      "hit": false,
      "t": 159716.56295833373,
      "d": 277.77799999999115,
      "v": 81
    },
    {
      "midi": 60,
      "hit": false,
      "t": 160005.91504166706,
      "d": 335.64841666666325,
      "v": 88
    },
    {
      "midi": 56,
      "hit": false,
      "t": 160005.91504166706,
      "d": 358.79658333334373,
      "v": 81
    },
    {
      "midi": 58,
      "hit": false,
      "t": 160411.00795833374,
      "d": 219.90758333331905,
      "v": 85
    },
    {
      "midi": 61,
      "hit": false,
      "t": 160416.7950000004,
      "d": 289.3520833333314,
      "v": 91
    },
    {
      "midi": 49,
      "hit": false,
      "t": 160827.67495833372,
      "d": 2743.057750000007,
      "v": 73
    },
    {
      "midi": 58,
      "hit": false,
      "t": 160827.67495833372,
      "d": 2853.0115416666667,
      "v": 81
    },
    {
      "midi": 54,
      "hit": false,
      "t": 160827.67495833372,
      "d": 2864.585625000007,
      "v": 75
    },
    {
      "midi": 60,
      "hit": false,
      "t": 165561.47504166706,
      "d": 347.2225000000035,
      "v": 88
    },
    {
      "midi": 56,
      "hit": false,
      "t": 165561.47504166706,
      "d": 364.5836249999993,
      "v": 85
    },
    {
      "midi": 58,
      "hit": false,
      "t": 165972.3550000004,
      "d": 358.79658333331463,
      "v": 85
    },
    {
      "midi": 61,
      "hit": false,
      "t": 165978.14204166704,
      "d": 335.64841666666325,
      "v": 81
    },
    {
      "midi": 63,
      "hit": false,
      "t": 166383.2349583337,
      "d": 231.4816666666593,
      "v": 77
    },
    {
      "midi": 60,
      "hit": false,
      "t": 166383.2349583337,
      "d": 277.77799999999115,
      "v": 64
    },
    {
      "midi": 65,
      "hit": false,
      "t": 166672.58704166702,
      "d": 329.8613750000077,
      "v": 82
    },
    {
      "midi": 61,
      "hit": false,
      "t": 166672.58704166702,
      "d": 335.64841666666325,
      "v": 88
    },
    {
      "midi": 63,
      "hit": false,
      "t": 167083.46700000035,
      "d": 335.64841666666325,
      "v": 85
    },
    {
      "midi": 60,
      "hit": false,
      "t": 167089.254041667,
      "d": 335.64841666666325,
      "v": 67
    },
    {
      "midi": 58,
      "hit": false,
      "t": 167494.34695833368,
      "d": 254.62983333333977,
      "v": 75
    },
    {
      "midi": 61,
      "hit": false,
      "t": 167494.34695833368,
      "d": 260.41687499999534,
      "v": 83
    },
    {
      "midi": 60,
      "hit": false,
      "t": 167783.69904166702,
      "d": 341.4354583333188,
      "v": 86
    },
    {
      "midi": 56,
      "hit": false,
      "t": 167783.69904166702,
      "d": 347.2224999999744,
      "v": 79
    },
    {
      "midi": 61,
      "hit": false,
      "t": 168188.79195833366,
      "d": 300.92616666667163,
      "v": 91
    },
    {
      "midi": 58,
      "hit": false,
      "t": 168194.57900000032,
      "d": 208.33350000000792,
      "v": 83
    },
    {
      "midi": 49,
      "hit": false,
      "t": 168611.24600000033,
      "d": 2297.4555416666553,
      "v": 66
    },
    {
      "midi": 58,
      "hit": false,
      "t": 168617.033041667,
      "d": 2314.8166666666802,
      "v": 91
    },
    {
      "midi": 54,
      "hit": false,
      "t": 168617.033041667,
      "d": 2332.177791666676,
      "v": 91
    },
    {
      "midi": 60,
      "hit": false,
      "t": 173327.68495833367,
      "d": 358.79658333334373,
      "v": 71
    },
    {
      "midi": 56,
      "hit": false,
      "t": 173327.68495833367,
      "d": 370.370666666684,
      "v": 83
    },
    {
      "midi": 58,
      "hit": false,
      "t": 173750.13900000034,
      "d": 353.00954166665906,
      "v": 75
    },
    {
      "midi": 61,
      "hit": false,
      "t": 173755.926041667,
      "d": 329.8613750000077,
      "v": 79
    },
    {
      "midi": 63,
      "hit": false,
      "t": 174161.01895833368,
      "d": 219.90758333331905,
      "v": 77
    },
    {
      "midi": 60,
      "hit": false,
      "t": 174161.01895833368,
      "d": 266.2039166666509,
      "v": 64
    },
    {
      "midi": 61,
      "hit": false,
      "t": 174450.371041667,
      "d": 312.5002500000119,
      "v": 88
    },
    {
      "midi": 65,
      "hit": false,
      "t": 174450.371041667,
      "d": 329.8613750000077,
      "v": 84
    },
    {
      "midi": 63,
      "hit": false,
      "t": 174855.46395833368,
      "d": 318.28729166666744,
      "v": 81
    },
    {
      "midi": 60,
      "hit": false,
      "t": 174867.03804166702,
      "d": 306.7132083333272,
      "v": 65
    },
    {
      "midi": 58,
      "hit": false,
      "t": 175272.13095833367,
      "d": 248.8427916666551,
      "v": 71
    },
    {
      "midi": 61,
      "hit": false,
      "t": 175272.13095833367,
      "d": 248.8427916666551,
      "v": 85
    },
    {
      "midi": 60,
      "hit": false,
      "t": 175561.483041667,
      "d": 324.074333333323,
      "v": 84
    },
    {
      "midi": 56,
      "hit": false,
      "t": 175561.483041667,
      "d": 358.79658333331463,
      "v": 71
    },
    {
      "midi": 58,
      "hit": false,
      "t": 175966.57595833365,
      "d": 196.75941666666768,
      "v": 68
    },
    {
      "midi": 61,
      "hit": false,
      "t": 175966.57595833365,
      "d": 283.5650416666758,
      "v": 85
    },
    {
      "midi": 49,
      "hit": false,
      "t": 176383.24295833366,
      "d": 3171.298833333334,
      "v": 77
    },
    {
      "midi": 54,
      "hit": false,
      "t": 176383.24295833366,
      "d": 3171.298833333334,
      "v": 85
    },
    {
      "midi": 58,
      "hit": false,
      "t": 176383.24295833366,
      "d": 3182.8729166666744,
      "v": 88
    },
    {
      "midi": 60,
      "hit": false,
      "t": 181105.46895833366,
      "d": 370.37066666665487,
      "v": 88
    },
    {
      "midi": 56,
      "hit": false,
      "t": 181105.46895833366,
      "d": 399.3058749999909,
      "v": 81
    },
    {
      "midi": 58,
      "hit": false,
      "t": 181527.92300000033,
      "d": 370.37066666665487,
      "v": 83
    },
    {
      "midi": 61,
      "hit": false,
      "t": 181533.710041667,
      "d": 329.8613750000077,
      "v": 91
    },
    {
      "midi": 63,
      "hit": false,
      "t": 181938.80295833366,
      "d": 196.75941666666768,
      "v": 73
    },
    {
      "midi": 60,
      "hit": false,
      "t": 181938.80295833366,
      "d": 254.62983333333977,
      "v": 71
    },
    {
      "midi": 61,
      "hit": false,
      "t": 182228.155041667,
      "d": 312.5002500000119,
      "v": 91
    },
    {
      "midi": 65,
      "hit": false,
      "t": 182228.155041667,
      "d": 329.8613750000077,
      "v": 88
    },
    {
      "midi": 63,
      "hit": false,
      "t": 182633.24795833367,
      "d": 318.28729166666744,
      "v": 85
    },
    {
      "midi": 60,
      "hit": false,
      "t": 182639.03500000032,
      "d": 318.28729166666744,
      "v": 68
    },
    {
      "midi": 61,
      "hit": false,
      "t": 183044.127916667,
      "d": 237.26870833331486,
      "v": 83
    },
    {
      "midi": 58,
      "hit": false,
      "t": 183049.91495833365,
      "d": 225.69462500000373,
      "v": 65
    },
    {
      "midi": 60,
      "hit": false,
      "t": 183327.69295833365,
      "d": 358.79658333331463,
      "v": 81
    },
    {
      "midi": 56,
      "hit": false,
      "t": 183333.4800000003,
      "d": 358.79658333331463,
      "v": 77
    },
    {
      "midi": 61,
      "hit": false,
      "t": 183744.3599583336,
      "d": 312.5002500000119,
      "v": 88
    },
    {
      "midi": 58,
      "hit": false,
      "t": 183744.3599583336,
      "d": 329.8613750000077,
      "v": 81
    },
    {
      "midi": 56,
      "hit": false,
      "t": 184166.81400000027,
      "d": 167.82420833333163,
      "v": 72
    },
    {
      "midi": 60,
      "hit": false,
      "t": 184166.81400000027,
      "d": 173.6112499999872,
      "v": 72
    },
    {
      "midi": 58,
      "hit": false,
      "t": 184456.1660833336,
      "d": 353.00954166665906,
      "v": 95
    },
    {
      "midi": 61,
      "hit": false,
      "t": 184456.1660833336,
      "d": 353.00954166665906,
      "v": 95
    },
    {
      "midi": 65,
      "hit": false,
      "t": 184456.1660833336,
      "d": 353.00954166665906,
      "v": 95
    },
    {
      "midi": 56,
      "hit": false,
      "t": 184855.4719583336,
      "d": 231.4816666666593,
      "v": 75
    },
    {
      "midi": 60,
      "hit": false,
      "t": 184855.4719583336,
      "d": 283.5650416666467,
      "v": 84
    },
    {
      "midi": 63,
      "hit": false,
      "t": 184855.4719583336,
      "d": 318.28729166663834,
      "v": 69
    },
    {
      "midi": 56,
      "hit": false,
      "t": 185277.92600000024,
      "d": 133.10195833334,
      "v": 83
    },
    {
      "midi": 61,
      "hit": false,
      "t": 185561.49104166692,
      "d": 341.4354583333188,
      "v": 85
    },
    {
      "midi": 58,
      "hit": false,
      "t": 185561.49104166692,
      "d": 347.2224999999744,
      "v": 91
    },
    {
      "midi": 65,
      "hit": false,
      "t": 185561.49104166692,
      "d": 358.79658333331463,
      "v": 92
    },
    {
      "midi": 63,
      "hit": false,
      "t": 185972.37100000022,
      "d": 248.8427916666551,
      "v": 68
    },
    {
      "midi": 56,
      "hit": false,
      "t": 185978.15804166687,
      "d": 243.05574999999953,
      "v": 79
    },
    {
      "midi": 60,
      "hit": false,
      "t": 185978.15804166687,
      "d": 243.05574999999953,
      "v": 84
    },
    {
      "midi": 58,
      "hit": false,
      "t": 188478.16004166688,
      "d": 353.00954166665906,
      "v": 82
    },
    {
      "midi": 61,
      "hit": false,
      "t": 188883.25295833353,
      "d": 353.00954166665906,
      "v": 88
    },
    {
      "midi": 58,
      "hit": false,
      "t": 188883.25295833353,
      "d": 358.79658333331463,
      "v": 94
    },
    {
      "midi": 65,
      "hit": false,
      "t": 188883.25295833353,
      "d": 364.5836249999702,
      "v": 92
    },
    {
      "midi": 56,
      "hit": false,
      "t": 189311.49404166683,
      "d": 214.12054166666348,
      "v": 88
    },
    {
      "midi": 63,
      "hit": false,
      "t": 189311.49404166683,
      "d": 214.12054166666348,
      "v": 79
    },
    {
      "midi": 60,
      "hit": false,
      "t": 189311.49404166683,
      "d": 219.90758333331905,
      "v": 92
    },
    {
      "midi": 56,
      "hit": false,
      "t": 189722.37400000016,
      "d": 133.10195833334,
      "v": 83
    },
    {
      "midi": 58,
      "hit": false,
      "t": 190005.93904166683,
      "d": 353.00954166665906,
      "v": 94
    },
    {
      "midi": 61,
      "hit": false,
      "t": 190005.93904166683,
      "d": 353.00954166665906,
      "v": 91
    },
    {
      "midi": 65,
      "hit": false,
      "t": 190005.93904166683,
      "d": 353.00954166665906,
      "v": 92
    },
    {
      "midi": 63,
      "hit": false,
      "t": 190411.03195833348,
      "d": 231.4816666666302,
      "v": 77
    },
    {
      "midi": 56,
      "hit": false,
      "t": 190416.81900000013,
      "d": 219.90758333331905,
      "v": 88
    },
    {
      "midi": 60,
      "hit": false,
      "t": 190416.81900000013,
      "d": 237.26870833331486,
      "v": 88
    },
    {
      "midi": 58,
      "hit": false,
      "t": 193345.06208333344,
      "d": 353.00954166665906,
      "v": 95
    },
    {
      "midi": 61,
      "hit": false,
      "t": 193345.06208333344,
      "d": 353.00954166665906,
      "v": 95
    },
    {
      "midi": 65,
      "hit": false,
      "t": 193345.06208333344,
      "d": 353.00954166665906,
      "v": 95
    },
    {
      "midi": 56,
      "hit": false,
      "t": 193744.36795833343,
      "d": 231.4816666666593,
      "v": 75
    },
    {
      "midi": 60,
      "hit": false,
      "t": 193744.36795833343,
      "d": 283.5650416666467,
      "v": 84
    },
    {
      "midi": 63,
      "hit": false,
      "t": 193744.36795833343,
      "d": 318.28729166663834,
      "v": 69
    },
    {
      "midi": 56,
      "hit": false,
      "t": 194166.82200000007,
      "d": 133.10195833334,
      "v": 83
    },
    {
      "midi": 61,
      "hit": false,
      "t": 194450.38704166675,
      "d": 341.4354583333188,
      "v": 85
    },
    {
      "midi": 58,
      "hit": false,
      "t": 194450.38704166675,
      "d": 347.2224999999744,
      "v": 91
    },
    {
      "midi": 65,
      "hit": false,
      "t": 194450.38704166675,
      "d": 358.79658333331463,
      "v": 92
    },
    {
      "midi": 63,
      "hit": false,
      "t": 194861.26700000005,
      "d": 248.8427916666551,
      "v": 68
    },
    {
      "midi": 56,
      "hit": false,
      "t": 194867.0540416667,
      "d": 243.05574999999953,
      "v": 79
    },
    {
      "midi": 60,
      "hit": false,
      "t": 194867.0540416667,
      "d": 243.05574999999953,
      "v": 84
    },
    {
      "midi": 58,
      "hit": false,
      "t": 211111.28000000003,
      "d": 353.00954166665906,
      "v": 94
    },
    {
      "midi": 61,
      "hit": false,
      "t": 211111.28000000003,
      "d": 353.00954166665906,
      "v": 91
    },
    {
      "midi": 65,
      "hit": false,
      "t": 211111.28000000003,
      "d": 353.00954166665906,
      "v": 92
    },
    {
      "midi": 56,
      "hit": false,
      "t": 211533.7340416667,
      "d": 214.12054166666348,
      "v": 88
    },
    {
      "midi": 63,
      "hit": false,
      "t": 211533.7340416667,
      "d": 214.12054166666348,
      "v": 79
    },
    {
      "midi": 60,
      "hit": false,
      "t": 211533.7340416667,
      "d": 219.90758333331905,
      "v": 92
    },
    {
      "midi": 56,
      "hit": false,
      "t": 211944.61400000003,
      "d": 133.10195833334,
      "v": 83
    },
    {
      "midi": 58,
      "hit": false,
      "t": 212228.1790416667,
      "d": 353.00954166665906,
      "v": 94
    },
    {
      "midi": 61,
      "hit": false,
      "t": 212228.1790416667,
      "d": 353.00954166665906,
      "v": 91
    },
    {
      "midi": 65,
      "hit": false,
      "t": 212228.1790416667,
      "d": 353.00954166665906,
      "v": 92
    },
    {
      "midi": 63,
      "hit": false,
      "t": 212633.27195833335,
      "d": 231.4816666666302,
      "v": 77
    },
    {
      "midi": 56,
      "hit": false,
      "t": 212639.059,
      "d": 219.90758333331905,
      "v": 88
    },
    {
      "midi": 60,
      "hit": false,
      "t": 212639.059,
      "d": 237.26870833331486,
      "v": 88
    },
    {
      "midi": 58,
      "hit": false,
      "t": 213038.364875,
      "d": 2372.6870833333232,
      "v": 65
    },
    {
      "midi": 54,
      "hit": false,
      "t": 213044.15191666665,
      "d": 2366.9000416666677,
      "v": 65
    },
    {
      "midi": 61,
      "hit": false,
      "t": 213044.15191666665,
      "d": 2384.2611666666635,
      "v": 68
    },
    {
      "midi": 44,
      "hit": false,
      "t": 213049.9389583333,
      "d": 2395.8352500000037,
      "v": 65
    },
    {
      "midi": 58,
      "hit": false,
      "t": 215555.72799999997,
      "d": 1765.0477083333244,
      "v": 81
    },
    {
      "midi": 61,
      "hit": false,
      "t": 215555.72799999997,
      "d": 1770.83474999998,
      "v": 75
    },
    {
      "midi": 65,
      "hit": false,
      "t": 215561.51504166663,
      "d": 1759.2606666666688,
      "v": 76
    },
    {
      "midi": 54,
      "hit": false,
      "t": 215561.51504166663,
      "d": 1765.0477083333244,
      "v": 66
    },
    {
      "midi": 61,
      "hit": false,
      "t": 217494.38695833329,
      "d": 208.33350000000792,
      "v": 77
    },
    {
      "midi": 58,
      "hit": false,
      "t": 217494.38695833329,
      "d": 225.69462500000373,
      "v": 83
    },
    {
      "midi": 54,
      "hit": false,
      "t": 217494.38695833329,
      "d": 300.92616666667163,
      "v": 65
    },
    {
      "midi": 65,
      "hit": false,
      "t": 217494.38695833329,
      "d": 300.92616666667163,
      "v": 88
    },
    {
      "midi": 63,
      "hit": false,
      "t": 217772.16495833328,
      "d": 3252.3174166666868,
      "v": 58
    },
    {
      "midi": 56,
      "hit": false,
      "t": 217783.73904166662,
      "d": 1232.6398749999935,
      "v": 58
    },
    {
      "midi": 60,
      "hit": false,
      "t": 217783.73904166662,
      "d": 2037.03866666666,
      "v": 76
    },
    {
      "midi": 53,
      "hit": false,
      "t": 217783.73904166662,
      "d": 3229.1692500000063,
      "v": 52
    },
    {
      "midi": 56,
      "hit": false,
      "t": 219161.0549583333,
      "d": 1863.4274166666728,
      "v": 85
    },
    {
      "midi": 60,
      "hit": false,
      "t": 220000.17599999995,
      "d": 1012.7322916666744,
      "v": 61
    },
    {
      "midi": 51,
      "hit": false,
      "t": 221117.07504166663,
      "d": 399.3058749999909,
      "v": 83
    },
    {
      "midi": 56,
      "hit": false,
      "t": 221117.07504166663,
      "d": 416.66699999998673,
      "v": 85
    },
    {
      "midi": 60,
      "hit": false,
      "t": 221117.07504166663,
      "d": 434.02812499998254,
      "v": 75
    },
    {
      "midi": 53,
      "hit": false,
      "t": 221661.05695833327,
      "d": 462.9633333333477,
      "v": 76
    },
    {
      "midi": 56,
      "hit": false,
      "t": 221661.05695833327,
      "d": 491.89854166668374,
      "v": 85
    },
    {
      "midi": 61,
      "hit": false,
      "t": 221661.05695833327,
      "d": 515.0467083333642,
      "v": 91
    },
    {
      "midi": 56,
      "hit": false,
      "t": 222222.39999999997,
      "d": 613.4264166666544,
      "v": 73
    },
    {
      "midi": 54,
      "hit": false,
      "t": 222222.39999999997,
      "d": 1799.769958333316,
      "v": 73
    },
    {
      "midi": 58,
      "hit": false,
      "t": 222222.39999999997,
      "d": 3223.3822083332925,
      "v": 68
    },
    {
      "midi": 56,
      "hit": false,
      "t": 222922.63204166663,
      "d": 127.31491666665534,
      "v": 59
    },
    {
      "midi": 56,
      "hit": false,
      "t": 223188.83595833328,
      "d": 1915.5107916666602,
      "v": 81
    },
    {
      "midi": 54,
      "hit": false,
      "t": 224166.84599999996,
      "d": 1250.0009999999602,
      "v": 55
    },
    {
      "midi": 49,
      "hit": false,
      "t": 224172.63304166662,
      "d": 1325.232541666628,
      "v": 77
    },
    {
      "midi": 92,
      "hit": false,
      "t": 224282.58683333336,
      "d": 2251.1592083333526,
      "v": 70
    },
    {
      "midi": 87,
      "hit": false,
      "t": 224334.67020833335,
      "d": 2175.9276666666847,
      "v": 71
    },
    {
      "midi": 84,
      "hit": false,
      "t": 224404.11470833336,
      "d": 2135.4183750000084,
      "v": 76
    },
    {
      "midi": 82,
      "hit": false,
      "t": 224461.98512500004,
      "d": 2077.5479583333363,
      "v": 61
    },
    {
      "midi": 56,
      "hit": false,
      "t": 225133.28195833327,
      "d": 127.31491666665534,
      "v": 57
    },
    {
      "midi": 56,
      "hit": false,
      "t": 225411.05995833327,
      "d": 104.16674999997485,
      "v": 48
    },
    {
      "midi": 56,
      "hit": false,
      "t": 225561.52304166657,
      "d": 457.176291666663,
      "v": 85
    },
    {
      "midi": 54,
      "hit": false,
      "t": 225561.52304166657,
      "d": 462.9633333333186,
      "v": 75
    },
    {
      "midi": 58,
      "hit": false,
      "t": 225561.52304166657,
      "d": 468.75037499997416,
      "v": 81
    },
    {
      "midi": 58,
      "hit": false,
      "t": 226111.29199999987,
      "d": 515.0467083333351,
      "v": 84
    },
    {
      "midi": 56,
      "hit": false,
      "t": 226117.07904166653,
      "d": 497.6855833333393,
      "v": 71
    },
    {
      "midi": 61,
      "hit": false,
      "t": 226117.07904166653,
      "d": 497.6855833333393,
      "v": 81
    },
    {
      "midi": 56,
      "hit": false,
      "t": 226672.63504166654,
      "d": 630.7875416666793,
      "v": 73
    },
    {
      "midi": 60,
      "hit": false,
      "t": 226672.63504166654,
      "d": 1811.3440416667145,
      "v": 68
    },
    {
      "midi": 51,
      "hit": false,
      "t": 226672.63504166654,
      "d": 1834.492208333395,
      "v": 48
    },
    {
      "midi": 56,
      "hit": false,
      "t": 227372.86708333323,
      "d": 92.59266666666372,
      "v": 38
    },
    {
      "midi": 58,
      "hit": false,
      "t": 227372.86708333323,
      "d": 98.37970833331929,
      "v": 62
    },
    {
      "midi": 58,
      "hit": false,
      "t": 227650.64508333322,
      "d": 810.1858333333512,
      "v": 66
    },
    {
      "midi": 56,
      "hit": false,
      "t": 227766.38591666656,
      "d": 763.8895000000484,
      "v": 1
    },
    {
      "midi": 61,
      "hit": false,
      "t": 228617.08104166662,
      "d": 254.62983333333977,
      "v": 85
    },
    {
      "midi": 53,
      "hit": false,
      "t": 228617.08104166662,
      "d": 306.7132083333272,
      "v": 68
    },
    {
      "midi": 56,
      "hit": false,
      "t": 228617.08104166662,
      "d": 1290.5102916666656,
      "v": 91
    },
    {
      "midi": 77,
      "hit": false,
      "t": 228646.01625000004,
      "d": 329.8613749999495,
      "v": 76
    },
    {
      "midi": 82,
      "hit": false,
      "t": 228651.8032916667,
      "d": 329.8613749999495,
      "v": 78
    },
    {
      "midi": 73,
      "hit": false,
      "t": 228657.59033333336,
      "d": 283.5650416666467,
      "v": 72
    },
    {
      "midi": 60,
      "hit": false,
      "t": 228900.6460833333,
      "d": 1024.3063749999856,
      "v": 48
    },
    {
      "midi": 62,
      "hit": false,
      "t": 228906.43312499995,
      "d": 144.67604166665114,
      "v": 44
    },
    {
      "midi": 51,
      "hit": false,
      "t": 228929.5812916666,
      "d": 966.4359583333426,
      "v": 50
    },
    {
      "midi": 75,
      "hit": false,
      "t": 228929.5812916667,
      "d": 2013.8904999999504,
      "v": 60
    },
    {
      "midi": 80,
      "hit": false,
      "t": 228935.36833333335,
      "d": 2002.3164166666393,
      "v": 65
    },
    {
      "midi": 72,
      "hit": false,
      "t": 228946.94241666666,
      "d": 2025.4645833333198,
      "v": 62
    },
    {
      "midi": 56,
      "hit": false,
      "t": 230000.18399999995,
      "d": 486.11149999999907,
      "v": 85
    },
    {
      "midi": 60,
      "hit": false,
      "t": 230000.18399999995,
      "d": 503.4726249999949,
      "v": 79
    },
    {
      "midi": 51,
      "hit": false,
      "t": 230005.9710416666,
      "d": 503.4726249999949,
      "v": 71
    },
    {
      "midi": 53,
      "hit": false,
      "t": 230567.31408333327,
      "d": 491.89854166665464,
      "v": 68
    },
    {
      "midi": 61,
      "hit": false,
      "t": 230567.31408333327,
      "d": 491.89854166665464,
      "v": 79
    },
    {
      "midi": 56,
      "hit": false,
      "t": 230573.10112499993,
      "d": 491.89854166665464,
      "v": 81
    },
    {
      "midi": 56,
      "hit": false,
      "t": 231111.29599999991,
      "d": 613.4264166666544,
      "v": 73
    },
    {
      "midi": 54,
      "hit": false,
      "t": 231111.29599999991,
      "d": 1799.769958333316,
      "v": 73
    },
    {
      "midi": 58,
      "hit": false,
      "t": 231111.29599999991,
      "d": 3223.3822083332925,
      "v": 68
    },
    {
      "midi": 56,
      "hit": false,
      "t": 231811.52804166658,
      "d": 127.31491666665534,
      "v": 59
    },
    {
      "midi": 56,
      "hit": false,
      "t": 232077.73195833323,
      "d": 1915.5107916666602,
      "v": 81
    },
    {
      "midi": 54,
      "hit": false,
      "t": 233055.7419999999,
      "d": 1250.0009999999602,
      "v": 55
    },
    {
      "midi": 49,
      "hit": false,
      "t": 233061.52904166657,
      "d": 1325.232541666628,
      "v": 77
    },
    {
      "midi": 92,
      "hit": false,
      "t": 233113.61241666664,
      "d": 2239.5851250000414,
      "v": 66
    },
    {
      "midi": 87,
      "hit": false,
      "t": 233159.90874999997,
      "d": 2199.075833333365,
      "v": 77
    },
    {
      "midi": 84,
      "hit": false,
      "t": 233229.35325,
      "d": 2141.205416666693,
      "v": 84
    },
    {
      "midi": 82,
      "hit": false,
      "t": 233298.79775,
      "d": 1984.9552916666726,
      "v": 72
    },
    {
      "midi": 56,
      "hit": false,
      "t": 234022.17795833322,
      "d": 127.31491666665534,
      "v": 57
    },
    {
      "midi": 56,
      "hit": false,
      "t": 234299.95595833322,
      "d": 104.16674999997485,
      "v": 48
    },
    {
      "midi": 56,
      "hit": false,
      "t": 234450.41904166652,
      "d": 457.176291666663,
      "v": 85
    },
    {
      "midi": 54,
      "hit": false,
      "t": 234450.41904166652,
      "d": 462.9633333333186,
      "v": 75
    },
    {
      "midi": 58,
      "hit": false,
      "t": 234450.41904166652,
      "d": 468.75037499997416,
      "v": 81
    },
    {
      "midi": 58,
      "hit": false,
      "t": 235000.18799999982,
      "d": 515.0467083333351,
      "v": 84
    },
    {
      "midi": 56,
      "hit": false,
      "t": 235005.97504166648,
      "d": 497.6855833333393,
      "v": 71
    },
    {
      "midi": 61,
      "hit": false,
      "t": 235005.97504166648,
      "d": 497.6855833333393,
      "v": 81
    },
    {
      "midi": 51,
      "hit": false,
      "t": 235555.74399999983,
      "d": 1805.5570000000007,
      "v": 79
    },
    {
      "midi": 56,
      "hit": false,
      "t": 235555.74399999983,
      "d": 1805.5570000000007,
      "v": 79
    },
    {
      "midi": 60,
      "hit": false,
      "t": 235555.74399999983,
      "d": 4375.00350000005,
      "v": 75
    },
    {
      "midi": 75,
      "hit": false,
      "t": 235567.31808333335,
      "d": 2853.0115416666667,
      "v": 58
    },
    {
      "midi": 80,
      "hit": false,
      "t": 235567.31808333335,
      "d": 2858.7985833333223,
      "v": 79
    },
    {
      "midi": 72,
      "hit": false,
      "t": 235567.31808333335,
      "d": 2864.585624999978,
      "v": 71
    },
    {
      "midi": 58,
      "hit": false,
      "t": 236255.9760416665,
      "d": 121.52787499999977,
      "v": 65
    },
    {
      "midi": 58,
      "hit": false,
      "t": 236533.75404166649,
      "d": 1660.8809583333787,
      "v": 75
    },
    {
      "midi": 51,
      "hit": false,
      "t": 237505.9770416665,
      "d": 393.51883333333535,
      "v": 77
    },
    {
      "midi": 56,
      "hit": false,
      "t": 237505.9770416665,
      "d": 509.25966666667955,
      "v": 77
    },
    {
      "midi": 51,
      "hit": false,
      "t": 238044.17191666653,
      "d": 1915.5107916666893,
      "v": 46
    },
    {
      "midi": 56,
      "hit": false,
      "t": 238188.8479583332,
      "d": 1753.4736250000133,
      "v": 73
    },
    {
      "midi": 58,
      "hit": false,
      "t": 238466.6259583332,
      "d": 138.88899999999558,
      "v": 71
    },
    {
      "midi": 58,
      "hit": false,
      "t": 238755.97804166653,
      "d": 1151.62129166667,
      "v": 75
    },
    {
      "midi": 58,
      "hit": false,
      "t": 240000.19199999998,
      "d": 2019.6775416666642,
      "v": 73
    },
    {
      "midi": 56,
      "hit": false,
      "t": 240000.19199999998,
      "d": 2025.4645833333198,
      "v": 74
    },
    {
      "midi": 60,
      "hit": false,
      "t": 240011.76608333332,
      "d": 2065.973874999967,
      "v": 81
    },
    {
      "midi": 63,
      "hit": false,
      "t": 240029.12720833332,
      "d": 2060.1868333333114,
      "v": 75
    },
    {
      "midi": 61,
      "hit": false,
      "t": 242199.2678333333,
      "d": 2118.0572499999835,
      "v": 74
    },
    {
      "midi": 58,
      "hit": false,
      "t": 242205.05487499994,
      "d": 2106.4831666666723,
      "v": 70
    },
    {
      "midi": 56,
      "hit": false,
      "t": 242205.05487499994,
      "d": 2164.3535833333153,
      "v": 82
    },
    {
      "midi": 54,
      "hit": false,
      "t": 242216.62895833328,
      "d": 2158.5665416666307,
      "v": 72
    },
    {
      "midi": 61,
      "hit": false,
      "t": 244444.63999999993,
      "d": 2129.6313333332946,
      "v": 72
    },
    {
      "midi": 58,
      "hit": false,
      "t": 244450.42704166658,
      "d": 2164.3535833333153,
      "v": 68
    },
    {
      "midi": 65,
      "hit": false,
      "t": 244467.78816666658,
      "d": 2100.6961249999877,
      "v": 81
    },
    {
      "midi": 60,
      "hit": false,
      "t": 246678.43808333323,
      "d": 2060.1868333333405,
      "v": 77
    },
    {
      "midi": 63,
      "hit": false,
      "t": 246690.01216666657,
      "d": 2019.6775416666642,
      "v": 71
    },
    {
      "midi": 56,
      "hit": false,
      "t": 246695.79920833322,
      "d": 2025.4645833333489,
      "v": 77
    },
    {
      "midi": 63,
      "hit": false,
      "t": 248871.7268749999,
      "d": 2094.909083333361,
      "v": 62
    },
    {
      "midi": 60,
      "hit": false,
      "t": 248871.7268749999,
      "d": 2112.270208333357,
      "v": 75
    },
    {
      "midi": 58,
      "hit": false,
      "t": 248877.51391666656,
      "d": 2042.8257083333447,
      "v": 57
    },
    {
      "midi": 56,
      "hit": false,
      "t": 248889.0879999999,
      "d": 2054.399791666685,
      "v": 74
    },
    {
      "midi": 58,
      "hit": false,
      "t": 251093.95087499992,
      "d": 2129.6313333333237,
      "v": 68
    },
    {
      "midi": 61,
      "hit": false,
      "t": 251099.73791666658,
      "d": 2129.6313333333237,
      "v": 74
    },
    {
      "midi": 56,
      "hit": false,
      "t": 251099.73791666658,
      "d": 2181.714708333311,
      "v": 73
    },
    {
      "midi": 54,
      "hit": false,
      "t": 251099.73791666658,
      "d": 2193.2887916666514,
      "v": 70
    },
    {
      "midi": 61,
      "hit": false,
      "t": 253374.04529166655,
      "d": 2083.334999999992,
      "v": 91
    },
    {
      "midi": 58,
      "hit": false,
      "t": 253379.8323333332,
      "d": 2112.270208333328,
      "v": 89
    },
    {
      "midi": 65,
      "hit": false,
      "t": 253385.61937499986,
      "d": 2071.7609166666807,
      "v": 102
    },
    {
      "midi": 56,
      "hit": false,
      "t": 255538.39887499987,
      "d": 2210.6499166666763,
      "v": 78
    },
    {
      "midi": 60,
      "hit": false,
      "t": 255549.9729583332,
      "d": 2199.075833333336,
      "v": 84
    },
    {
      "midi": 63,
      "hit": false,
      "t": 255549.9729583332,
      "d": 2204.8628749999916,
      "v": 85
    },
    {
      "midi": 51,
      "hit": false,
      "t": 257777.98399999988,
      "d": 1521.9919583333249,
      "v": 71
    },
    {
      "midi": 56,
      "hit": false,
      "t": 257777.98399999988,
      "d": 2118.0572499999835,
      "v": 73
    },
    {
      "midi": 58,
      "hit": false,
      "t": 257777.98399999988,
      "d": 2118.0572499999835,
      "v": 68
    },
    {
      "midi": 44,
      "hit": false,
      "t": 257777.98399999988,
      "d": 2216.436958333332,
      "v": 48
    },
    {
      "midi": 60,
      "hit": false,
      "t": 257777.98399999988,
      "d": 2216.436958333332,
      "v": 67
    },
    {
      "midi": 51,
      "hit": false,
      "t": 259438.8649583332,
      "d": 515.0467083333351,
      "v": 75
    },
    {
      "midi": 49,
      "hit": false,
      "t": 260000.20799999987,
      "d": 549.7689583333267,
      "v": 45
    },
    {
      "midi": 54,
      "hit": false,
      "t": 260000.20799999987,
      "d": 827.5469583333179,
      "v": 62
    },
    {
      "midi": 56,
      "hit": false,
      "t": 260000.20799999987,
      "d": 1244.2139583333046,
      "v": 73
    },
    {
      "midi": 58,
      "hit": false,
      "t": 260000.20799999987,
      "d": 1383.1029583333002,
      "v": 63
    },
    {
      "midi": 42,
      "hit": false,
      "t": 260005.99504166652,
      "d": 2187.5017499999667,
      "v": 57
    },
    {
      "midi": 49,
      "hit": false,
      "t": 260555.76399999985,
      "d": 1244.2139583333046,
      "v": 65
    },
    {
      "midi": 54,
      "hit": false,
      "t": 260833.54199999984,
      "d": 1244.2139583333046,
      "v": 65
    },
    {
      "midi": 58,
      "hit": false,
      "t": 261522.19995833316,
      "d": 671.2968333333265,
      "v": 79
    },
    {
      "midi": 49,
      "hit": false,
      "t": 261950.4410416665,
      "d": 237.26870833331486,
      "v": 51
    },
    {
      "midi": 53,
      "hit": false,
      "t": 262222.4319999998,
      "d": 410.87995833333116,
      "v": 73
    },
    {
      "midi": 61,
      "hit": false,
      "t": 262222.4319999998,
      "d": 1516.204916666611,
      "v": 69
    },
    {
      "midi": 46,
      "hit": false,
      "t": 262222.4319999998,
      "d": 2187.5017499999376,
      "v": 57
    },
    {
      "midi": 58,
      "hit": false,
      "t": 262228.2190416665,
      "d": 798.6117499999818,
      "v": 73
    },
    {
      "midi": 53,
      "hit": false,
      "t": 262639.0989999998,
      "d": 1799.7699583332287,
      "v": 73
    },
    {
      "midi": 58,
      "hit": false,
      "t": 263055.76599999977,
      "d": 1383.102958333271,
      "v": 73
    },
    {
      "midi": 61,
      "hit": false,
      "t": 263894.8870416664,
      "d": 549.7689583332976,
      "v": 80
    },
    {
      "midi": 56,
      "hit": false,
      "t": 264438.86895833304,
      "d": 2216.436958333361,
      "v": 59
    },
    {
      "midi": 44,
      "hit": false,
      "t": 264444.6559999997,
      "d": 2216.436958333361,
      "v": 48
    },
    {
      "midi": 51,
      "hit": false,
      "t": 264450.4430416664,
      "d": 2077.5479583333363,
      "v": 73
    },
    {
      "midi": 60,
      "hit": false,
      "t": 264450.4430416664,
      "d": 2216.436958333361,
      "v": 68
    },
    {
      "midi": 56,
      "hit": false,
      "t": 266666.8799999998,
      "d": 549.7689583333558,
      "v": 73
    },
    {
      "midi": 51,
      "hit": false,
      "t": 266666.8799999998,
      "d": 1938.6589583333698,
      "v": 71
    },
    {
      "midi": 44,
      "hit": false,
      "t": 266666.8799999998,
      "d": 2216.436958333361,
      "v": 48
    },
    {
      "midi": 58,
      "hit": false,
      "t": 266690.02816666645,
      "d": 792.8247083333554,
      "v": 50
    },
    {
      "midi": 60,
      "hit": false,
      "t": 266707.38929166645,
      "d": 1064.8156666666619,
      "v": 67
    },
    {
      "midi": 56,
      "hit": false,
      "t": 267222.4359999998,
      "d": 1660.8809583333205,
      "v": 73
    },
    {
      "midi": 58,
      "hit": false,
      "t": 267500.2139999998,
      "d": 1383.1029583333293,
      "v": 64
    },
    {
      "midi": 60,
      "hit": false,
      "t": 267777.9919999998,
      "d": 1105.3249583333381,
      "v": 67
    },
    {
      "midi": 54,
      "hit": false,
      "t": 268889.1039999998,
      "d": 549.7689583333558,
      "v": 56
    },
    {
      "midi": 49,
      "hit": false,
      "t": 268889.1039999998,
      "d": 1660.8809583333787,
      "v": 51
    },
    {
      "midi": 42,
      "hit": false,
      "t": 268889.1039999998,
      "d": 2216.436958333419,
      "v": 51
    },
    {
      "midi": 58,
      "hit": false,
      "t": 268935.4003333332,
      "d": 734.9542916666833,
      "v": 65
    },
    {
      "midi": 54,
      "hit": false,
      "t": 269444.65999999986,
      "d": 1521.991958333354,
      "v": 57
    },
    {
      "midi": 58,
      "hit": false,
      "t": 269722.43799999985,
      "d": 1244.2139583333628,
      "v": 68
    },
    {
      "midi": 49,
      "hit": false,
      "t": 270555.7719999999,
      "d": 549.7689583333558,
      "v": 45
    },
    {
      "midi": 53,
      "hit": false,
      "t": 271105.54095833324,
      "d": 1608.7975833333912,
      "v": 60
    },
    {
      "midi": 46,
      "hit": false,
      "t": 271105.54095833324,
      "d": 2280.094416666776,
      "v": 61
    },
    {
      "midi": 61,
      "hit": false,
      "t": 271111.3279999999,
      "d": 827.546958333347,
      "v": 69
    },
    {
      "midi": 58,
      "hit": false,
      "t": 271117.1150416666,
      "d": 376.15770833333954,
      "v": 73
    },
    {
      "midi": 58,
      "hit": false,
      "t": 271527.99499999994,
      "d": 1105.3249583333381,
      "v": 72
    },
    {
      "midi": 61,
      "hit": false,
      "t": 271944.66199999995,
      "d": 827.546958333347,
      "v": 78
    },
    {
      "midi": 53,
      "hit": false,
      "t": 272783.7830416666,
      "d": 549.7689583333558,
      "v": 70
    },
    {
      "midi": 58,
      "hit": false,
      "t": 272783.7830416666,
      "d": 549.7689583333558,
      "v": 81
    },
    {
      "midi": 61,
      "hit": false,
      "t": 272783.7830416666,
      "d": 549.7689583333558,
      "v": 97
    },
    {
      "midi": 56,
      "hit": false,
      "t": 273327.7649583333,
      "d": 2175.927666666743,
      "v": 59
    },
    {
      "midi": 44,
      "hit": false,
      "t": 273333.55199999997,
      "d": 2175.927666666743,
      "v": 48
    },
    {
      "midi": 51,
      "hit": false,
      "t": 273339.33904166665,
      "d": 1799.7699583333451,
      "v": 73
    },
    {
      "midi": 60,
      "hit": false,
      "t": 273339.33904166665,
      "d": 2181.7147083333693,
      "v": 68
    },
    {
      "midi": 51,
      "hit": false,
      "t": 275144.8960416667,
      "d": 376.15770833333954,
      "v": 76
    },
    {
      "midi": 44,
      "hit": false,
      "t": 275555.776,
      "d": 509.25966666667955,
      "v": 85
    },
    {
      "midi": 51,
      "hit": false,
      "t": 275555.776,
      "d": 509.25966666667955,
      "v": 88
    },
    {
      "midi": 56,
      "hit": false,
      "t": 275555.776,
      "d": 509.25966666667955,
      "v": 81
    },
    {
      "midi": 60,
      "hit": false,
      "t": 275555.776,
      "d": 509.25966666667955,
      "v": 79
    },
    {
      "midi": 44,
      "hit": false,
      "t": 276111.33200000005,
      "d": 509.25966666667955,
      "v": 88
    },
    {
      "midi": 53,
      "hit": false,
      "t": 276111.33200000005,
      "d": 509.25966666667955,
      "v": 81
    },
    {
      "midi": 56,
      "hit": false,
      "t": 276111.33200000005,
      "d": 509.25966666667955,
      "v": 94
    },
    {
      "midi": 61,
      "hit": false,
      "t": 276111.33200000005,
      "d": 509.25966666667955,
      "v": 97
    },
    {
      "midi": 56,
      "hit": false,
      "t": 276666.8880000001,
      "d": 613.4264166666544,
      "v": 73
    },
    {
      "midi": 54,
      "hit": false,
      "t": 276666.8880000001,
      "d": 1799.769958333287,
      "v": 73
    },
    {
      "midi": 58,
      "hit": false,
      "t": 276666.8880000001,
      "d": 3223.3822083332343,
      "v": 68
    },
    {
      "midi": 56,
      "hit": false,
      "t": 277367.1200416667,
      "d": 127.31491666665534,
      "v": 59
    },
    {
      "midi": 56,
      "hit": false,
      "t": 277633.3239583334,
      "d": 1915.5107916666311,
      "v": 81
    },
    {
      "midi": 54,
      "hit": false,
      "t": 278611.33400000003,
      "d": 1250.0009999999893,
      "v": 55
    },
    {
      "midi": 49,
      "hit": false,
      "t": 278617.1210416667,
      "d": 1325.232541666599,
      "v": 77
    },
    {
      "midi": 92,
      "hit": false,
      "t": 278727.0748333332,
      "d": 2251.1592083333526,
      "v": 70
    },
    {
      "midi": 87,
      "hit": false,
      "t": 278779.1582083332,
      "d": 2175.9276666666847,
      "v": 71
    },
    {
      "midi": 84,
      "hit": false,
      "t": 278848.6027083332,
      "d": 2135.4183750000666,
      "v": 76
    },
    {
      "midi": 82,
      "hit": false,
      "t": 278906.47312499984,
      "d": 2077.5479583333945,
      "v": 61
    },
    {
      "midi": 56,
      "hit": false,
      "t": 279577.76995833335,
      "d": 127.31491666665534,
      "v": 57
    },
    {
      "midi": 56,
      "hit": false,
      "t": 279855.54795833334,
      "d": 104.16674999997485,
      "v": 48
    },
    {
      "midi": 56,
      "hit": false,
      "t": 280006.0110416667,
      "d": 457.1762916666921,
      "v": 85
    },
    {
      "midi": 54,
      "hit": false,
      "t": 280006.0110416667,
      "d": 462.9633333333768,
      "v": 75
    },
    {
      "midi": 58,
      "hit": false,
      "t": 280006.0110416667,
      "d": 468.75037500006147,
      "v": 81
    },
    {
      "midi": 58,
      "hit": false,
      "t": 280555.7800000001,
      "d": 515.046708333306,
      "v": 84
    },
    {
      "midi": 56,
      "hit": false,
      "t": 280561.56704166677,
      "d": 497.6855833333102,
      "v": 71
    },
    {
      "midi": 61,
      "hit": false,
      "t": 280561.56704166677,
      "d": 497.6855833333102,
      "v": 81
    },
    {
      "midi": 56,
      "hit": false,
      "t": 281117.12304166675,
      "d": 630.7875416666502,
      "v": 73
    },
    {
      "midi": 60,
      "hit": false,
      "t": 281117.12304166675,
      "d": 1811.3440416666563,
      "v": 68
    },
    {
      "midi": 51,
      "hit": false,
      "t": 281117.12304166675,
      "d": 1834.4922083333367,
      "v": 48
    },
    {
      "midi": 56,
      "hit": false,
      "t": 281817.3550833334,
      "d": 92.59266666666372,
      "v": 38
    },
    {
      "midi": 58,
      "hit": false,
      "t": 281817.3550833334,
      "d": 98.37970833334839,
      "v": 62
    },
    {
      "midi": 58,
      "hit": false,
      "t": 282095.1330833334,
      "d": 810.1858333333512,
      "v": 66
    },
    {
      "midi": 56,
      "hit": false,
      "t": 282210.8739166667,
      "d": 763.8895000000484,
      "v": 1
    },
    {
      "midi": 61,
      "hit": false,
      "t": 283061.56904166675,
      "d": 254.62983333331067,
      "v": 85
    },
    {
      "midi": 53,
      "hit": false,
      "t": 283061.56904166675,
      "d": 306.7132083332981,
      "v": 68
    },
    {
      "midi": 56,
      "hit": false,
      "t": 283061.56904166675,
      "d": 1290.5102916666656,
      "v": 91
    },
    {
      "midi": 77,
      "hit": false,
      "t": 283090.5042499999,
      "d": 329.8613750000368,
      "v": 76
    },
    {
      "midi": 82,
      "hit": false,
      "t": 283096.29129166657,
      "d": 329.8613750000368,
      "v": 78
    },
    {
      "midi": 73,
      "hit": false,
      "t": 283102.07833333325,
      "d": 283.5650416666758,
      "v": 72
    },
    {
      "midi": 60,
      "hit": false,
      "t": 283345.13408333337,
      "d": 1024.3063750000438,
      "v": 48
    },
    {
      "midi": 62,
      "hit": false,
      "t": 283350.92112500005,
      "d": 144.67604166670935,
      "v": 44
    },
    {
      "midi": 75,
      "hit": false,
      "t": 283374.06929166656,
      "d": 2013.8905000000377,
      "v": 60
    },
    {
      "midi": 51,
      "hit": false,
      "t": 283374.06929166673,
      "d": 966.4359583333717,
      "v": 50
    },
    {
      "midi": 80,
      "hit": false,
      "t": 283379.85633333324,
      "d": 2002.3164166666684,
      "v": 65
    },
    {
      "midi": 72,
      "hit": false,
      "t": 283391.4304166666,
      "d": 2025.4645833332906,
      "v": 62
    },
    {
      "midi": 56,
      "hit": false,
      "t": 284444.6720000001,
      "d": 486.11149999999907,
      "v": 85
    },
    {
      "midi": 60,
      "hit": false,
      "t": 284444.6720000001,
      "d": 503.4726249999949,
      "v": 79
    },
    {
      "midi": 51,
      "hit": false,
      "t": 284450.45904166676,
      "d": 503.4726249999949,
      "v": 71
    },
    {
      "midi": 53,
      "hit": false,
      "t": 285011.80208333343,
      "d": 491.89854166668374,
      "v": 68
    },
    {
      "midi": 61,
      "hit": false,
      "t": 285011.80208333343,
      "d": 491.89854166668374,
      "v": 79
    },
    {
      "midi": 56,
      "hit": false,
      "t": 285017.5891250001,
      "d": 491.89854166668374,
      "v": 81
    },
    {
      "midi": 56,
      "hit": false,
      "t": 285555.78400000016,
      "d": 613.4264166666544,
      "v": 73
    },
    {
      "midi": 54,
      "hit": false,
      "t": 285555.78400000016,
      "d": 1799.769958333287,
      "v": 73
    },
    {
      "midi": 58,
      "hit": false,
      "t": 285555.78400000016,
      "d": 3223.3822083332343,
      "v": 68
    },
    {
      "midi": 56,
      "hit": false,
      "t": 286256.0160416668,
      "d": 127.31491666665534,
      "v": 59
    },
    {
      "midi": 56,
      "hit": false,
      "t": 286522.2199583335,
      "d": 1915.5107916666311,
      "v": 81
    },
    {
      "midi": 54,
      "hit": false,
      "t": 287500.2300000001,
      "d": 1250.0009999999893,
      "v": 55
    },
    {
      "midi": 49,
      "hit": false,
      "t": 287506.0170416668,
      "d": 1325.232541666599,
      "v": 77
    },
    {
      "midi": 92,
      "hit": false,
      "t": 287558.1004166666,
      "d": 2239.5851249999832,
      "v": 66
    },
    {
      "midi": 87,
      "hit": false,
      "t": 287604.39674999996,
      "d": 2199.075833333307,
      "v": 77
    },
    {
      "midi": 84,
      "hit": false,
      "t": 287673.84124999994,
      "d": 2141.205416666635,
      "v": 84
    },
    {
      "midi": 82,
      "hit": false,
      "t": 287743.2857499999,
      "d": 1984.9552916666726,
      "v": 72
    },
    {
      "midi": 56,
      "hit": false,
      "t": 288466.6659583334,
      "d": 127.31491666665534,
      "v": 57
    },
    {
      "midi": 56,
      "hit": false,
      "t": 288744.4439583334,
      "d": 104.16674999997485,
      "v": 48
    },
    {
      "midi": 56,
      "hit": false,
      "t": 288894.90704166674,
      "d": 457.1762916666921,
      "v": 85
    },
    {
      "midi": 54,
      "hit": false,
      "t": 288894.90704166674,
      "d": 462.9633333333768,
      "v": 75
    },
    {
      "midi": 58,
      "hit": false,
      "t": 288894.90704166674,
      "d": 468.75037500006147,
      "v": 81
    },
    {
      "midi": 58,
      "hit": false,
      "t": 289444.67600000015,
      "d": 515.046708333306,
      "v": 84
    },
    {
      "midi": 56,
      "hit": false,
      "t": 289450.46304166684,
      "d": 497.6855833333102,
      "v": 71
    },
    {
      "midi": 61,
      "hit": false,
      "t": 289450.46304166684,
      "d": 497.6855833333102,
      "v": 81
    },
    {
      "midi": 51,
      "hit": false,
      "t": 290000.23200000013,
      "d": 1805.557000000088,
      "v": 79
    },
    {
      "midi": 56,
      "hit": false,
      "t": 290000.23200000013,
      "d": 1805.557000000088,
      "v": 79
    },
    {
      "midi": 60,
      "hit": false,
      "t": 290000.23200000013,
      "d": 4375.00350000005,
      "v": 75
    },
    {
      "midi": 75,
      "hit": false,
      "t": 290011.8060833332,
      "d": 2853.011541666696,
      "v": 58
    },
    {
      "midi": 80,
      "hit": false,
      "t": 290011.8060833332,
      "d": 2858.7985833333805,
      "v": 79
    },
    {
      "midi": 72,
      "hit": false,
      "t": 290011.8060833332,
      "d": 2864.585625000065,
      "v": 71
    },
    {
      "midi": 58,
      "hit": false,
      "t": 290700.4640416668,
      "d": 121.52787500002887,
      "v": 65
    },
    {
      "midi": 58,
      "hit": false,
      "t": 290978.2420416669,
      "d": 1660.8809583333205,
      "v": 75
    },
    {
      "midi": 51,
      "hit": false,
      "t": 291950.4650416669,
      "d": 393.51883333333535,
      "v": 77
    },
    {
      "midi": 56,
      "hit": false,
      "t": 291950.4650416669,
      "d": 509.25966666667955,
      "v": 77
    },
    {
      "midi": 51,
      "hit": false,
      "t": 292488.65991666686,
      "d": 1915.5107916666311,
      "v": 46
    },
    {
      "midi": 56,
      "hit": false,
      "t": 292633.3359583335,
      "d": 1753.4736249999842,
      "v": 73
    },
    {
      "midi": 58,
      "hit": false,
      "t": 292911.1139583335,
      "d": 138.88900000002468,
      "v": 71
    },
    {
      "midi": 58,
      "hit": false,
      "t": 293200.46604166686,
      "d": 1151.621291666641,
      "v": 75
    },
    {
      "midi": 56,
      "hit": false,
      "t": 294444.68000000017,
      "d": 613.4264166666544,
      "v": 73
    },
    {
      "midi": 54,
      "hit": false,
      "t": 294444.68000000017,
      "d": 1799.769958333287,
      "v": 73
    },
    {
      "midi": 58,
      "hit": false,
      "t": 294444.68000000017,
      "d": 3223.3822083332343,
      "v": 68
    },
    {
      "midi": 56,
      "hit": false,
      "t": 295144.9120416668,
      "d": 127.31491666665534,
      "v": 59
    },
    {
      "midi": 56,
      "hit": false,
      "t": 295411.1159583335,
      "d": 1915.5107916666311,
      "v": 81
    },
    {
      "midi": 54,
      "hit": false,
      "t": 296389.1260000001,
      "d": 1250.0009999999893,
      "v": 55
    },
    {
      "midi": 49,
      "hit": false,
      "t": 296394.9130416668,
      "d": 1325.232541666599,
      "v": 77
    },
    {
      "midi": 56,
      "hit": false,
      "t": 297355.5619583334,
      "d": 127.31491666665534,
      "v": 57
    },
    {
      "midi": 56,
      "hit": false,
      "t": 297633.3399583334,
      "d": 104.16674999997485,
      "v": 48
    },
    {
      "midi": 56,
      "hit": false,
      "t": 297783.80304166675,
      "d": 457.1762916666921,
      "v": 85
    },
    {
      "midi": 54,
      "hit": false,
      "t": 297783.80304166675,
      "d": 462.9633333333768,
      "v": 75
    },
    {
      "midi": 58,
      "hit": false,
      "t": 297783.80304166675,
      "d": 468.75037500006147,
      "v": 81
    },
    {
      "midi": 58,
      "hit": false,
      "t": 298333.57200000016,
      "d": 515.046708333306,
      "v": 84
    },
    {
      "midi": 56,
      "hit": false,
      "t": 298339.35904166684,
      "d": 497.6855833333102,
      "v": 71
    },
    {
      "midi": 61,
      "hit": false,
      "t": 298339.35904166684,
      "d": 497.6855833333102,
      "v": 81
    },
    {
      "midi": 56,
      "hit": false,
      "t": 298894.9150416668,
      "d": 630.7875416666502,
      "v": 73
    },
    {
      "midi": 60,
      "hit": false,
      "t": 298894.9150416668,
      "d": 1811.3440416666563,
      "v": 68
    },
    {
      "midi": 51,
      "hit": false,
      "t": 298894.9150416668,
      "d": 1834.4922083333367,
      "v": 48
    },
    {
      "midi": 56,
      "hit": false,
      "t": 299595.14708333346,
      "d": 92.59266666666372,
      "v": 38
    },
    {
      "midi": 58,
      "hit": false,
      "t": 299595.14708333346,
      "d": 98.37970833334839,
      "v": 62
    },
    {
      "midi": 58,
      "hit": false,
      "t": 299872.92508333345,
      "d": 810.1858333333512,
      "v": 66
    },
    {
      "midi": 56,
      "hit": false,
      "t": 299988.6659166668,
      "d": 763.8895000000484,
      "v": 1
    },
    {
      "midi": 61,
      "hit": false,
      "t": 300839.3610416668,
      "d": 254.62983333331067,
      "v": 85
    },
    {
      "midi": 53,
      "hit": false,
      "t": 300839.3610416668,
      "d": 306.7132083332981,
      "v": 68
    },
    {
      "midi": 56,
      "hit": false,
      "t": 300839.3610416668,
      "d": 1290.5102916666656,
      "v": 91
    },
    {
      "midi": 60,
      "hit": false,
      "t": 301122.92608333344,
      "d": 1024.3063750000438,
      "v": 48
    },
    {
      "midi": 62,
      "hit": false,
      "t": 301128.7131250001,
      "d": 144.67604166670935,
      "v": 44
    },
    {
      "midi": 51,
      "hit": false,
      "t": 301151.8612916668,
      "d": 966.4359583333717,
      "v": 50
    },
    {
      "midi": 56,
      "hit": false,
      "t": 302222.46400000015,
      "d": 486.11149999999907,
      "v": 85
    },
    {
      "midi": 60,
      "hit": false,
      "t": 302222.46400000015,
      "d": 503.4726249999949,
      "v": 79
    },
    {
      "midi": 51,
      "hit": false,
      "t": 302228.25104166684,
      "d": 503.4726249999949,
      "v": 71
    },
    {
      "midi": 53,
      "hit": false,
      "t": 302789.5940833335,
      "d": 491.89854166668374,
      "v": 68
    },
    {
      "midi": 61,
      "hit": false,
      "t": 302789.5940833335,
      "d": 491.89854166668374,
      "v": 79
    },
    {
      "midi": 56,
      "hit": false,
      "t": 302795.3811250002,
      "d": 491.89854166668374,
      "v": 81
    },
    {
      "midi": 56,
      "hit": false,
      "t": 303333.57600000023,
      "d": 613.4264166666544,
      "v": 73
    },
    {
      "midi": 54,
      "hit": false,
      "t": 303333.57600000023,
      "d": 1799.769958333287,
      "v": 73
    },
    {
      "midi": 58,
      "hit": false,
      "t": 303333.57600000023,
      "d": 3223.3822083332343,
      "v": 68
    },
    {
      "midi": 56,
      "hit": false,
      "t": 304033.80804166687,
      "d": 127.31491666665534,
      "v": 59
    },
    {
      "midi": 56,
      "hit": false,
      "t": 304300.01195833355,
      "d": 1915.5107916666311,
      "v": 81
    },
    {
      "midi": 54,
      "hit": false,
      "t": 305278.0220000002,
      "d": 1250.0009999999893,
      "v": 55
    },
    {
      "midi": 49,
      "hit": false,
      "t": 305283.80904166686,
      "d": 1325.232541666599,
      "v": 77
    },
    {
      "midi": 56,
      "hit": false,
      "t": 306244.4579583335,
      "d": 127.31491666665534,
      "v": 57
    },
    {
      "midi": 56,
      "hit": false,
      "t": 306522.2359583335,
      "d": 104.16674999997485,
      "v": 48
    },
    {
      "midi": 56,
      "hit": false,
      "t": 306672.6990416668,
      "d": 457.1762916666921,
      "v": 85
    },
    {
      "midi": 54,
      "hit": false,
      "t": 306672.6990416668,
      "d": 462.9633333333768,
      "v": 75
    },
    {
      "midi": 58,
      "hit": false,
      "t": 306672.6990416668,
      "d": 468.75037500006147,
      "v": 81
    },
    {
      "midi": 58,
      "hit": false,
      "t": 307222.4680000002,
      "d": 515.046708333306,
      "v": 84
    },
    {
      "midi": 56,
      "hit": false,
      "t": 307228.2550416669,
      "d": 497.6855833333102,
      "v": 71
    },
    {
      "midi": 61,
      "hit": false,
      "t": 307228.2550416669,
      "d": 497.6855833333102,
      "v": 81
    },
    {
      "midi": 51,
      "hit": false,
      "t": 307778.0240000002,
      "d": 1805.557000000088,
      "v": 79
    },
    {
      "midi": 56,
      "hit": false,
      "t": 307778.0240000002,
      "d": 1805.557000000088,
      "v": 79
    },
    {
      "midi": 60,
      "hit": false,
      "t": 307778.0240000002,
      "d": 4375.00350000005,
      "v": 75
    },
    {
      "midi": 58,
      "hit": false,
      "t": 308478.2560416669,
      "d": 121.52787500002887,
      "v": 65
    },
    {
      "midi": 58,
      "hit": false,
      "t": 308756.03404166695,
      "d": 1660.8809583333205,
      "v": 75
    },
    {
      "midi": 51,
      "hit": false,
      "t": 309728.25704166695,
      "d": 393.51883333333535,
      "v": 77
    },
    {
      "midi": 56,
      "hit": false,
      "t": 309728.25704166695,
      "d": 509.25966666667955,
      "v": 77
    },
    {
      "midi": 51,
      "hit": false,
      "t": 310266.45191666693,
      "d": 1915.5107916666311,
      "v": 46
    },
    {
      "midi": 56,
      "hit": false,
      "t": 310411.1279583336,
      "d": 1753.4736249999842,
      "v": 73
    },
    {
      "midi": 58,
      "hit": false,
      "t": 310688.9059583336,
      "d": 138.88900000002468,
      "v": 71
    },
    {
      "midi": 58,
      "hit": false,
      "t": 310978.25804166694,
      "d": 1151.621291666641,
      "v": 75
    },
    {
      "midi": 56,
      "hit": false,
      "t": 312222.47200000024,
      "d": 613.4264166666544,
      "v": 73
    },
    {
      "midi": 54,
      "hit": false,
      "t": 312222.47200000024,
      "d": 1799.769958333287,
      "v": 73
    },
    {
      "midi": 58,
      "hit": false,
      "t": 312222.47200000024,
      "d": 3223.3822083332343,
      "v": 68
    },
    {
      "midi": 56,
      "hit": false,
      "t": 312922.7040416669,
      "d": 127.31491666665534,
      "v": 59
    },
    {
      "midi": 56,
      "hit": false,
      "t": 313188.90795833356,
      "d": 1915.5107916666311,
      "v": 81
    },
    {
      "midi": 54,
      "hit": false,
      "t": 314166.9180000002,
      "d": 1250.0009999999893,
      "v": 55
    },
    {
      "midi": 49,
      "hit": false,
      "t": 314172.70504166686,
      "d": 1325.232541666599,
      "v": 77
    },
    {
      "midi": 56,
      "hit": false,
      "t": 315133.3539583335,
      "d": 127.31491666665534,
      "v": 57
    },
    {
      "midi": 56,
      "hit": false,
      "t": 315411.1319583335,
      "d": 104.16674999997485,
      "v": 48
    },
    {
      "midi": 56,
      "hit": false,
      "t": 315561.5950416668,
      "d": 457.1762916666921,
      "v": 85
    },
    {
      "midi": 54,
      "hit": false,
      "t": 315561.5950416668,
      "d": 462.9633333333768,
      "v": 75
    },
    {
      "midi": 58,
      "hit": false,
      "t": 315561.5950416668,
      "d": 468.75037500006147,
      "v": 81
    },
    {
      "midi": 58,
      "hit": false,
      "t": 316111.36400000023,
      "d": 515.046708333306,
      "v": 84
    },
    {
      "midi": 56,
      "hit": false,
      "t": 316117.1510416669,
      "d": 497.6855833333102,
      "v": 71
    },
    {
      "midi": 61,
      "hit": false,
      "t": 316117.1510416669,
      "d": 497.6855833333102,
      "v": 81
    },
    {
      "midi": 56,
      "hit": false,
      "t": 316672.7070416669,
      "d": 630.7875416666502,
      "v": 73
    },
    {
      "midi": 60,
      "hit": false,
      "t": 316672.7070416669,
      "d": 1811.3440416666563,
      "v": 68
    },
    {
      "midi": 51,
      "hit": false,
      "t": 316672.7070416669,
      "d": 1834.4922083333367,
      "v": 48
    },
    {
      "midi": 56,
      "hit": false,
      "t": 317372.93908333353,
      "d": 92.59266666666372,
      "v": 38
    },
    {
      "midi": 58,
      "hit": false,
      "t": 317372.93908333353,
      "d": 98.37970833334839,
      "v": 62
    },
    {
      "midi": 58,
      "hit": false,
      "t": 317650.7170833335,
      "d": 810.1858333333512,
      "v": 66
    },
    {
      "midi": 56,
      "hit": false,
      "t": 317766.45791666687,
      "d": 763.8895000000484,
      "v": 1
    },
    {
      "midi": 61,
      "hit": false,
      "t": 318617.1530416669,
      "d": 254.62983333331067,
      "v": 85
    },
    {
      "midi": 53,
      "hit": false,
      "t": 318617.1530416669,
      "d": 306.7132083332981,
      "v": 68
    },
    {
      "midi": 56,
      "hit": false,
      "t": 318617.1530416669,
      "d": 1290.5102916666656,
      "v": 91
    },
    {
      "midi": 60,
      "hit": false,
      "t": 318900.7180833335,
      "d": 1024.3063750000438,
      "v": 48
    },
    {
      "midi": 62,
      "hit": false,
      "t": 318906.5051250002,
      "d": 144.67604166670935,
      "v": 44
    },
    {
      "midi": 51,
      "hit": false,
      "t": 318929.6532916669,
      "d": 966.4359583333717,
      "v": 50
    },
    {
      "midi": 56,
      "hit": false,
      "t": 320000.2560000002,
      "d": 486.11149999999907,
      "v": 85
    },
    {
      "midi": 60,
      "hit": false,
      "t": 320000.2560000002,
      "d": 503.4726249999949,
      "v": 79
    },
    {
      "midi": 51,
      "hit": false,
      "t": 320006.0430416669,
      "d": 503.4726249999949,
      "v": 71
    },
    {
      "midi": 53,
      "hit": false,
      "t": 320567.3860833336,
      "d": 491.89854166668374,
      "v": 68
    },
    {
      "midi": 61,
      "hit": false,
      "t": 320567.3860833336,
      "d": 491.89854166668374,
      "v": 79
    },
    {
      "midi": 56,
      "hit": false,
      "t": 320573.17312500026,
      "d": 491.89854166668374,
      "v": 81
    },
    {
      "midi": 56,
      "hit": false,
      "t": 321111.3680000003,
      "d": 613.4264166666544,
      "v": 73
    },
    {
      "midi": 54,
      "hit": false,
      "t": 321111.3680000003,
      "d": 1799.769958333287,
      "v": 73
    },
    {
      "midi": 58,
      "hit": false,
      "t": 321111.3680000003,
      "d": 3223.3822083332343,
      "v": 68
    },
    {
      "midi": 56,
      "hit": false,
      "t": 321811.60004166694,
      "d": 127.31491666665534,
      "v": 59
    },
    {
      "midi": 56,
      "hit": false,
      "t": 322077.8039583336,
      "d": 1915.5107916666311,
      "v": 81
    },
    {
      "midi": 54,
      "hit": false,
      "t": 323055.81400000025,
      "d": 1250.0009999999893,
      "v": 55
    },
    {
      "midi": 49,
      "hit": false,
      "t": 323061.60104166693,
      "d": 1325.232541666599,
      "v": 77
    },
    {
      "midi": 56,
      "hit": false,
      "t": 324022.24995833356,
      "d": 127.31491666665534,
      "v": 57
    },
    {
      "midi": 56,
      "hit": false,
      "t": 324300.02795833355,
      "d": 104.16674999997485,
      "v": 48
    },
    {
      "midi": 56,
      "hit": false,
      "t": 324450.4910416669,
      "d": 457.1762916666921,
      "v": 85
    },
    {
      "midi": 54,
      "hit": false,
      "t": 324450.4910416669,
      "d": 462.9633333333768,
      "v": 75
    },
    {
      "midi": 58,
      "hit": false,
      "t": 324450.4910416669,
      "d": 468.75037500006147,
      "v": 81
    },
    {
      "midi": 58,
      "hit": false,
      "t": 325000.2600000003,
      "d": 515.046708333306,
      "v": 84
    },
    {
      "midi": 56,
      "hit": false,
      "t": 325006.047041667,
      "d": 497.6855833333102,
      "v": 71
    },
    {
      "midi": 61,
      "hit": false,
      "t": 325006.047041667,
      "d": 497.6855833333102,
      "v": 81
    },
    {
      "midi": 51,
      "hit": false,
      "t": 325555.8160000003,
      "d": 1805.557000000088,
      "v": 79
    },
    {
      "midi": 56,
      "hit": false,
      "t": 325555.8160000003,
      "d": 1805.557000000088,
      "v": 79
    },
    {
      "midi": 60,
      "hit": false,
      "t": 325555.8160000003,
      "d": 4375.00350000005,
      "v": 75
    },
    {
      "midi": 58,
      "hit": false,
      "t": 326256.048041667,
      "d": 121.52787500002887,
      "v": 65
    },
    {
      "midi": 58,
      "hit": false,
      "t": 326533.826041667,
      "d": 1660.8809583333205,
      "v": 75
    },
    {
      "midi": 51,
      "hit": false,
      "t": 327506.049041667,
      "d": 393.51883333333535,
      "v": 77
    },
    {
      "midi": 56,
      "hit": false,
      "t": 327506.049041667,
      "d": 509.25966666667955,
      "v": 77
    },
    {
      "midi": 51,
      "hit": false,
      "t": 328044.243916667,
      "d": 1915.5107916666311,
      "v": 46
    },
    {
      "midi": 56,
      "hit": false,
      "t": 328188.91995833366,
      "d": 1753.4736249999842,
      "v": 73
    },
    {
      "midi": 58,
      "hit": false,
      "t": 328466.69795833365,
      "d": 138.88900000002468,
      "v": 71
    },
    {
      "midi": 58,
      "hit": false,
      "t": 328756.050041667,
      "d": 1151.621291666641,
      "v": 75
    },
    {
      "midi": 56,
      "hit": false,
      "t": 330000.2640000003,
      "d": 613.4264166666544,
      "v": 73
    },
    {
      "midi": 54,
      "hit": false,
      "t": 330000.2640000003,
      "d": 1799.769958333287,
      "v": 73
    },
    {
      "midi": 58,
      "hit": false,
      "t": 330000.2640000003,
      "d": 3223.3822083332343,
      "v": 68
    },
    {
      "midi": 56,
      "hit": false,
      "t": 330700.49604166695,
      "d": 127.31491666665534,
      "v": 59
    },
    {
      "midi": 56,
      "hit": false,
      "t": 330966.69995833363,
      "d": 1915.5107916666311,
      "v": 81
    },
    {
      "midi": 54,
      "hit": false,
      "t": 331944.71000000025,
      "d": 1250.0009999999893,
      "v": 55
    },
    {
      "midi": 49,
      "hit": false,
      "t": 331950.49704166694,
      "d": 1325.232541666599,
      "v": 77
    },
    {
      "midi": 56,
      "hit": false,
      "t": 332911.14595833357,
      "d": 127.31491666665534,
      "v": 57
    },
    {
      "midi": 56,
      "hit": false,
      "t": 333188.92395833356,
      "d": 104.16674999997485,
      "v": 48
    },
    {
      "midi": 56,
      "hit": false,
      "t": 333339.3870416669,
      "d": 457.1762916666921,
      "v": 85
    },
    {
      "midi": 54,
      "hit": false,
      "t": 333339.3870416669,
      "d": 462.9633333333768,
      "v": 75
    },
    {
      "midi": 58,
      "hit": false,
      "t": 333339.3870416669,
      "d": 468.75037500006147,
      "v": 81
    },
    {
      "midi": 58,
      "hit": false,
      "t": 333889.1560000003,
      "d": 515.046708333306,
      "v": 84
    },
    {
      "midi": 56,
      "hit": false,
      "t": 333894.943041667,
      "d": 497.6855833333102,
      "v": 71
    },
    {
      "midi": 61,
      "hit": false,
      "t": 333894.943041667,
      "d": 497.6855833333102,
      "v": 81
    },
    {
      "midi": 56,
      "hit": false,
      "t": 334450.499041667,
      "d": 630.7875416666502,
      "v": 73
    },
    {
      "midi": 60,
      "hit": false,
      "t": 334450.499041667,
      "d": 1811.3440416666563,
      "v": 68
    },
    {
      "midi": 51,
      "hit": false,
      "t": 334450.499041667,
      "d": 1834.4922083333367,
      "v": 48
    },
    {
      "midi": 56,
      "hit": false,
      "t": 335150.7310833336,
      "d": 92.59266666666372,
      "v": 38
    },
    {
      "midi": 58,
      "hit": false,
      "t": 335150.7310833336,
      "d": 98.37970833334839,
      "v": 62
    },
    {
      "midi": 58,
      "hit": false,
      "t": 335428.5090833336,
      "d": 810.1858333333512,
      "v": 66
    },
    {
      "midi": 56,
      "hit": false,
      "t": 335544.24991666694,
      "d": 763.8895000000484,
      "v": 1
    },
    {
      "midi": 61,
      "hit": false,
      "t": 336394.945041667,
      "d": 254.62983333331067,
      "v": 85
    },
    {
      "midi": 53,
      "hit": false,
      "t": 336394.945041667,
      "d": 306.7132083332981,
      "v": 68
    },
    {
      "midi": 56,
      "hit": false,
      "t": 336394.945041667,
      "d": 1290.5102916666656,
      "v": 91
    },
    {
      "midi": 60,
      "hit": false,
      "t": 336678.5100833336,
      "d": 1024.3063750000438,
      "v": 48
    },
    {
      "midi": 62,
      "hit": false,
      "t": 336684.2971250003,
      "d": 144.67604166670935,
      "v": 44
    },
    {
      "midi": 51,
      "hit": false,
      "t": 336707.44529166695,
      "d": 966.4359583333717,
      "v": 50
    },
    {
      "midi": 56,
      "hit": false,
      "t": 337778.0480000003,
      "d": 486.11149999999907,
      "v": 85
    },
    {
      "midi": 60,
      "hit": false,
      "t": 337778.0480000003,
      "d": 503.4726249999949,
      "v": 79
    },
    {
      "midi": 51,
      "hit": false,
      "t": 337783.835041667,
      "d": 503.4726249999949,
      "v": 71
    },
    {
      "midi": 53,
      "hit": false,
      "t": 338345.17808333365,
      "d": 491.89854166668374,
      "v": 68
    },
    {
      "midi": 61,
      "hit": false,
      "t": 338345.17808333365,
      "d": 491.89854166668374,
      "v": 79
    },
    {
      "midi": 56,
      "hit": false,
      "t": 338350.96512500034,
      "d": 491.89854166668374,
      "v": 81
    },
    {
      "midi": 56,
      "hit": false,
      "t": 338889.1600000004,
      "d": 613.4264166666544,
      "v": 73
    },
    {
      "midi": 54,
      "hit": false,
      "t": 338889.1600000004,
      "d": 1799.769958333287,
      "v": 73
    },
    {
      "midi": 58,
      "hit": false,
      "t": 338889.1600000004,
      "d": 3223.3822083332343,
      "v": 68
    },
    {
      "midi": 56,
      "hit": false,
      "t": 339589.392041667,
      "d": 127.31491666665534,
      "v": 59
    },
    {
      "midi": 56,
      "hit": false,
      "t": 339855.5959583337,
      "d": 1915.5107916666311,
      "v": 81
    },
    {
      "midi": 54,
      "hit": false,
      "t": 340833.6060000003,
      "d": 1250.0009999999893,
      "v": 55
    },
    {
      "midi": 49,
      "hit": false,
      "t": 340839.393041667,
      "d": 1325.232541666599,
      "v": 77
    },
    {
      "midi": 56,
      "hit": false,
      "t": 341800.04195833363,
      "d": 127.31491666665534,
      "v": 57
    },
    {
      "midi": 56,
      "hit": false,
      "t": 342077.8199583336,
      "d": 104.16674999997485,
      "v": 48
    },
    {
      "midi": 56,
      "hit": false,
      "t": 342228.28304166696,
      "d": 457.1762916666921,
      "v": 85
    },
    {
      "midi": 54,
      "hit": false,
      "t": 342228.28304166696,
      "d": 462.9633333333768,
      "v": 75
    },
    {
      "midi": 58,
      "hit": false,
      "t": 342228.28304166696,
      "d": 468.75037500006147,
      "v": 81
    },
    {
      "midi": 58,
      "hit": false,
      "t": 342778.0520000004,
      "d": 515.046708333306,
      "v": 84
    },
    {
      "midi": 56,
      "hit": false,
      "t": 342783.83904166706,
      "d": 497.6855833333102,
      "v": 71
    },
    {
      "midi": 61,
      "hit": false,
      "t": 342783.83904166706,
      "d": 497.6855833333102,
      "v": 81
    },
    {
      "midi": 51,
      "hit": false,
      "t": 343333.60800000036,
      "d": 1805.557000000088,
      "v": 79
    },
    {
      "midi": 56,
      "hit": false,
      "t": 343333.60800000036,
      "d": 1805.557000000088,
      "v": 79
    },
    {
      "midi": 60,
      "hit": false,
      "t": 343333.60800000036,
      "d": 4375.00350000005,
      "v": 75
    },
    {
      "midi": 58,
      "hit": false,
      "t": 344033.84004166705,
      "d": 121.52787500002887,
      "v": 65
    },
    {
      "midi": 58,
      "hit": false,
      "t": 344311.6180416671,
      "d": 1660.8809583333205,
      "v": 75
    },
    {
      "midi": 51,
      "hit": false,
      "t": 345283.8410416671,
      "d": 393.51883333333535,
      "v": 77
    },
    {
      "midi": 56,
      "hit": false,
      "t": 345283.8410416671,
      "d": 509.25966666667955,
      "v": 77
    },
    {
      "midi": 51,
      "hit": false,
      "t": 345822.0359166671,
      "d": 1915.5107916666311,
      "v": 46
    },
    {
      "midi": 56,
      "hit": false,
      "t": 345966.71195833373,
      "d": 1753.4736249999842,
      "v": 73
    },
    {
      "midi": 58,
      "hit": false,
      "t": 346244.4899583337,
      "d": 138.88900000002468,
      "v": 71
    },
    {
      "midi": 58,
      "hit": false,
      "t": 346533.8420416671,
      "d": 1151.621291666641,
      "v": 75
    },
    {
      "midi": 56,
      "hit": false,
      "t": 347778.0560000004,
      "d": 613.4264166666544,
      "v": 73
    },
    {
      "midi": 54,
      "hit": false,
      "t": 347778.0560000004,
      "d": 1799.769958333287,
      "v": 73
    },
    {
      "midi": 58,
      "hit": false,
      "t": 347778.0560000004,
      "d": 3223.3822083332343,
      "v": 68
    },
    {
      "midi": 56,
      "hit": false,
      "t": 348478.288041667,
      "d": 127.31491666665534,
      "v": 59
    },
    {
      "midi": 56,
      "hit": false,
      "t": 348744.4919583337,
      "d": 1915.5107916666311,
      "v": 81
    },
    {
      "midi": 54,
      "hit": false,
      "t": 349722.5020000003,
      "d": 1250.0009999999893,
      "v": 55
    },
    {
      "midi": 49,
      "hit": false,
      "t": 349728.289041667,
      "d": 1325.232541666599,
      "v": 77
    },
    {
      "midi": 56,
      "hit": false,
      "t": 350688.93795833364,
      "d": 127.31491666665534,
      "v": 57
    },
    {
      "midi": 56,
      "hit": false,
      "t": 350966.71595833363,
      "d": 104.16674999997485,
      "v": 48
    },
    {
      "midi": 56,
      "hit": false,
      "t": 351117.17904166697,
      "d": 457.1762916666921,
      "v": 85
    },
    {
      "midi": 54,
      "hit": false,
      "t": 351117.17904166697,
      "d": 462.9633333333768,
      "v": 75
    },
    {
      "midi": 58,
      "hit": false,
      "t": 351117.17904166697,
      "d": 468.75037500006147,
      "v": 81
    },
    {
      "midi": 58,
      "hit": false,
      "t": 351666.9480000004,
      "d": 515.046708333306,
      "v": 84
    },
    {
      "midi": 56,
      "hit": false,
      "t": 351672.73504166707,
      "d": 497.6855833333102,
      "v": 71
    },
    {
      "midi": 61,
      "hit": false,
      "t": 351672.73504166707,
      "d": 497.6855833333102,
      "v": 81
    },
    {
      "midi": 56,
      "hit": false,
      "t": 352228.29104166705,
      "d": 630.7875416666502,
      "v": 73
    },
    {
      "midi": 60,
      "hit": false,
      "t": 352228.29104166705,
      "d": 1811.3440416666563,
      "v": 68
    },
    {
      "midi": 51,
      "hit": false,
      "t": 352228.29104166705,
      "d": 1834.4922083333367,
      "v": 48
    },
    {
      "midi": 56,
      "hit": false,
      "t": 352928.5230833337,
      "d": 92.59266666666372,
      "v": 38
    },
    {
      "midi": 58,
      "hit": false,
      "t": 352928.5230833337,
      "d": 98.37970833334839,
      "v": 62
    },
    {
      "midi": 58,
      "hit": false,
      "t": 353206.3010833337,
      "d": 810.1858333333512,
      "v": 66
    },
    {
      "midi": 56,
      "hit": false,
      "t": 353322.041916667,
      "d": 763.8895000000484,
      "v": 1
    },
    {
      "midi": 61,
      "hit": false,
      "t": 354172.73704166705,
      "d": 254.62983333331067,
      "v": 85
    },
    {
      "midi": 53,
      "hit": false,
      "t": 354172.73704166705,
      "d": 306.7132083332981,
      "v": 68
    },
    {
      "midi": 56,
      "hit": false,
      "t": 354172.73704166705,
      "d": 1290.5102916666656,
      "v": 91
    },
    {
      "midi": 60,
      "hit": false,
      "t": 354456.30208333366,
      "d": 1024.3063750000438,
      "v": 48
    },
    {
      "midi": 62,
      "hit": false,
      "t": 354462.08912500035,
      "d": 144.67604166670935,
      "v": 44
    },
    {
      "midi": 51,
      "hit": false,
      "t": 354485.237291667,
      "d": 966.4359583333717,
      "v": 50
    },
    {
      "midi": 56,
      "hit": false,
      "t": 355555.8400000004,
      "d": 486.11149999999907,
      "v": 85
    },
    {
      "midi": 60,
      "hit": false,
      "t": 355555.8400000004,
      "d": 503.4726249999949,
      "v": 79
    },
    {
      "midi": 51,
      "hit": false,
      "t": 355561.62704166706,
      "d": 503.4726249999949,
      "v": 71
    },
    {
      "midi": 53,
      "hit": false,
      "t": 356122.9700833337,
      "d": 491.89854166668374,
      "v": 68
    },
    {
      "midi": 61,
      "hit": false,
      "t": 356122.9700833337,
      "d": 491.89854166668374,
      "v": 79
    },
    {
      "midi": 56,
      "hit": false,
      "t": 356128.7571250004,
      "d": 491.89854166668374,
      "v": 81
    },
    {
      "midi": 56,
      "hit": false,
      "t": 356666.95200000046,
      "d": 613.4264166666544,
      "v": 73
    },
    {
      "midi": 54,
      "hit": false,
      "t": 356666.95200000046,
      "d": 1799.769958333287,
      "v": 73
    },
    {
      "midi": 58,
      "hit": false,
      "t": 356666.95200000046,
      "d": 3223.3822083332343,
      "v": 68
    },
    {
      "midi": 56,
      "hit": false,
      "t": 357367.1840416671,
      "d": 127.31491666665534,
      "v": 59
    },
    {
      "midi": 56,
      "hit": false,
      "t": 357633.38795833377,
      "d": 1915.5107916666311,
      "v": 81
    },
    {
      "midi": 54,
      "hit": false,
      "t": 358611.3980000004,
      "d": 1250.0009999999893,
      "v": 55
    },
    {
      "midi": 49,
      "hit": false,
      "t": 358617.1850416671,
      "d": 1325.232541666599,
      "v": 77
    },
    {
      "midi": 56,
      "hit": false,
      "t": 359577.8339583337,
      "d": 127.31491666665534,
      "v": 57
    },
    {
      "midi": 56,
      "hit": false,
      "t": 359855.6119583337,
      "d": 104.16674999997485,
      "v": 48
    },
    {
      "midi": 56,
      "hit": false,
      "t": 360006.07504166703,
      "d": 457.1762916666921,
      "v": 85
    },
    {
      "midi": 54,
      "hit": false,
      "t": 360006.07504166703,
      "d": 462.9633333333768,
      "v": 75
    },
    {
      "midi": 58,
      "hit": false,
      "t": 360006.07504166703,
      "d": 468.75037500006147,
      "v": 81
    },
    {
      "midi": 58,
      "hit": false,
      "t": 360555.84400000045,
      "d": 515.046708333306,
      "v": 84
    },
    {
      "midi": 56,
      "hit": false,
      "t": 360561.63104166713,
      "d": 497.6855833333102,
      "v": 71
    },
    {
      "midi": 61,
      "hit": false,
      "t": 360561.63104166713,
      "d": 497.6855833333102,
      "v": 81
    },
    {
      "midi": 51,
      "hit": false,
      "t": 361111.40000000043,
      "d": 1805.557000000088,
      "v": 79
    },
    {
      "midi": 56,
      "hit": false,
      "t": 361111.40000000043,
      "d": 1805.557000000088,
      "v": 79
    },
    {
      "midi": 60,
      "hit": false,
      "t": 361111.40000000043,
      "d": 4375.00350000005,
      "v": 75
    },
    {
      "midi": 58,
      "hit": false,
      "t": 361811.6320416671,
      "d": 121.52787500002887,
      "v": 65
    },
    {
      "midi": 58,
      "hit": false,
      "t": 362089.4100416672,
      "d": 1660.8809583333205,
      "v": 75
    },
    {
      "midi": 51,
      "hit": false,
      "t": 363061.63304166717,
      "d": 393.51883333333535,
      "v": 77
    },
    {
      "midi": 56,
      "hit": false,
      "t": 363061.63304166717,
      "d": 509.25966666667955,
      "v": 77
    },
    {
      "midi": 51,
      "hit": false,
      "t": 363599.82791666716,
      "d": 1915.5107916666311,
      "v": 46
    },
    {
      "midi": 56,
      "hit": false,
      "t": 363744.5039583338,
      "d": 1753.4736249999842,
      "v": 73
    },
    {
      "midi": 58,
      "hit": false,
      "t": 364022.2819583338,
      "d": 138.88900000002468,
      "v": 71
    },
    {
      "midi": 58,
      "hit": false,
      "t": 364311.63404166716,
      "d": 1151.621291666641,
      "v": 75
    },
    {
      "midi": 56,
      "hit": false,
      "t": 365555.84800000046,
      "d": 613.4264166666544,
      "v": 73
    },
    {
      "midi": 54,
      "hit": false,
      "t": 365555.84800000046,
      "d": 1799.769958333287,
      "v": 73
    },
    {
      "midi": 58,
      "hit": false,
      "t": 365555.84800000046,
      "d": 3223.3822083332343,
      "v": 68
    },
    {
      "midi": 56,
      "hit": false,
      "t": 366256.0800416671,
      "d": 127.31491666665534,
      "v": 59
    },
    {
      "midi": 56,
      "hit": false,
      "t": 366522.2839583338,
      "d": 1915.5107916666311,
      "v": 81
    },
    {
      "midi": 54,
      "hit": false,
      "t": 367500.2940000004,
      "d": 1250.0009999999893,
      "v": 55
    },
    {
      "midi": 49,
      "hit": false,
      "t": 367506.0810416671,
      "d": 1325.232541666599,
      "v": 77
    },
    {
      "midi": 56,
      "hit": false,
      "t": 368466.7299583337,
      "d": 127.31491666665534,
      "v": 57
    },
    {
      "midi": 56,
      "hit": false,
      "t": 368744.5079583337,
      "d": 104.16674999997485,
      "v": 48
    },
    {
      "midi": 56,
      "hit": false,
      "t": 368894.97104166704,
      "d": 457.1762916666921,
      "v": 85
    },
    {
      "midi": 54,
      "hit": false,
      "t": 368894.97104166704,
      "d": 462.9633333333768,
      "v": 75
    },
    {
      "midi": 58,
      "hit": false,
      "t": 368894.97104166704,
      "d": 468.75037500006147,
      "v": 81
    },
    {
      "midi": 58,
      "hit": false,
      "t": 369444.74000000046,
      "d": 515.046708333306,
      "v": 84
    },
    {
      "midi": 56,
      "hit": false,
      "t": 369450.52704166714,
      "d": 497.6855833333102,
      "v": 71
    },
    {
      "midi": 61,
      "hit": false,
      "t": 369450.52704166714,
      "d": 497.6855833333102,
      "v": 81
    },
    {
      "midi": 56,
      "hit": false,
      "t": 370006.0830416671,
      "d": 630.7875416666502,
      "v": 73
    },
    {
      "midi": 60,
      "hit": false,
      "t": 370006.0830416671,
      "d": 1811.3440416666563,
      "v": 68
    },
    {
      "midi": 51,
      "hit": false,
      "t": 370006.0830416671,
      "d": 1834.4922083333367,
      "v": 48
    },
    {
      "midi": 56,
      "hit": false,
      "t": 370706.31508333376,
      "d": 92.59266666666372,
      "v": 38
    },
    {
      "midi": 58,
      "hit": false,
      "t": 370706.31508333376,
      "d": 98.37970833334839,
      "v": 62
    },
    {
      "midi": 58,
      "hit": false,
      "t": 370984.09308333375,
      "d": 810.1858333333512,
      "v": 66
    },
    {
      "midi": 56,
      "hit": false,
      "t": 371099.8339166671,
      "d": 763.8895000000484,
      "v": 1
    },
    {
      "midi": 61,
      "hit": false,
      "t": 371950.5290416671,
      "d": 254.62983333331067,
      "v": 85
    },
    {
      "midi": 53,
      "hit": false,
      "t": 371950.5290416671,
      "d": 306.7132083332981,
      "v": 68
    },
    {
      "midi": 56,
      "hit": false,
      "t": 371950.5290416671,
      "d": 1290.5102916666656,
      "v": 91
    },
    {
      "midi": 60,
      "hit": false,
      "t": 372234.09408333374,
      "d": 1024.3063750000438,
      "v": 48
    },
    {
      "midi": 62,
      "hit": false,
      "t": 372239.8811250004,
      "d": 144.67604166670935,
      "v": 44
    },
    {
      "midi": 51,
      "hit": false,
      "t": 372263.0292916671,
      "d": 966.4359583333717,
      "v": 50
    },
    {
      "midi": 56,
      "hit": false,
      "t": 373333.63200000045,
      "d": 486.11149999999907,
      "v": 85
    },
    {
      "midi": 60,
      "hit": false,
      "t": 373333.63200000045,
      "d": 503.4726249999949,
      "v": 79
    },
    {
      "midi": 51,
      "hit": false,
      "t": 373339.41904166713,
      "d": 503.4726249999949,
      "v": 71
    },
    {
      "midi": 53,
      "hit": false,
      "t": 373900.7620833338,
      "d": 491.89854166668374,
      "v": 68
    },
    {
      "midi": 61,
      "hit": false,
      "t": 373900.7620833338,
      "d": 491.89854166668374,
      "v": 79
    },
    {
      "midi": 56,
      "hit": false,
      "t": 373906.5491250005,
      "d": 491.89854166668374,
      "v": 81
    },
    {
      "midi": 56,
      "hit": false,
      "t": 374444.74400000053,
      "d": 613.4264166666544,
      "v": 73
    },
    {
      "midi": 54,
      "hit": false,
      "t": 374444.74400000053,
      "d": 1799.769958333287,
      "v": 73
    },
    {
      "midi": 58,
      "hit": false,
      "t": 374444.74400000053,
      "d": 3223.3822083332343,
      "v": 68
    },
    {
      "midi": 56,
      "hit": false,
      "t": 375144.97604166716,
      "d": 127.31491666665534,
      "v": 59
    },
    {
      "midi": 56,
      "hit": false,
      "t": 375411.17995833384,
      "d": 1915.5107916666311,
      "v": 81
    },
    {
      "midi": 54,
      "hit": false,
      "t": 376389.19000000047,
      "d": 1250.0009999999893,
      "v": 55
    },
    {
      "midi": 49,
      "hit": false,
      "t": 376394.97704166715,
      "d": 1325.232541666599,
      "v": 77
    },
    {
      "midi": 56,
      "hit": false,
      "t": 377355.6259583338,
      "d": 127.31491666665534,
      "v": 57
    },
    {
      "midi": 56,
      "hit": false,
      "t": 377633.4039583338,
      "d": 104.16674999997485,
      "v": 48
    },
    {
      "midi": 56,
      "hit": false,
      "t": 377783.8670416671,
      "d": 457.1762916666921,
      "v": 85
    },
    {
      "midi": 54,
      "hit": false,
      "t": 377783.8670416671,
      "d": 462.9633333333768,
      "v": 75
    },
    {
      "midi": 58,
      "hit": false,
      "t": 377783.8670416671,
      "d": 468.75037500006147,
      "v": 81
    },
    {
      "midi": 58,
      "hit": false,
      "t": 378333.6360000005,
      "d": 515.046708333306,
      "v": 84
    },
    {
      "midi": 56,
      "hit": false,
      "t": 378339.4230416672,
      "d": 497.6855833333102,
      "v": 71
    },
    {
      "midi": 61,
      "hit": false,
      "t": 378339.4230416672,
      "d": 497.6855833333102,
      "v": 81
    },
    {
      "midi": 51,
      "hit": false,
      "t": 378889.1920000005,
      "d": 1805.557000000088,
      "v": 79
    },
    {
      "midi": 56,
      "hit": false,
      "t": 378889.1920000005,
      "d": 1805.557000000088,
      "v": 79
    },
    {
      "midi": 60,
      "hit": false,
      "t": 378889.1920000005,
      "d": 4375.00350000005,
      "v": 75
    },
    {
      "midi": 58,
      "hit": false,
      "t": 379589.4240416672,
      "d": 121.52787500002887,
      "v": 65
    },
    {
      "midi": 58,
      "hit": false,
      "t": 379867.20204166725,
      "d": 1660.8809583333205,
      "v": 75
    },
    {
      "midi": 51,
      "hit": false,
      "t": 380839.42504166724,
      "d": 393.51883333333535,
      "v": 77
    },
    {
      "midi": 56,
      "hit": false,
      "t": 380839.42504166724,
      "d": 509.25966666667955,
      "v": 77
    },
    {
      "midi": 51,
      "hit": false,
      "t": 381377.61991666723,
      "d": 1915.5107916666311,
      "v": 46
    },
    {
      "midi": 56,
      "hit": false,
      "t": 381522.2959583339,
      "d": 1753.4736249999842,
      "v": 73
    },
    {
      "midi": 58,
      "hit": false,
      "t": 381800.0739583339,
      "d": 138.88900000002468,
      "v": 71
    },
    {
      "midi": 58,
      "hit": false,
      "t": 382089.42604166723,
      "d": 1151.621291666641,
      "v": 75
    },
    {
      "midi": 58,
      "hit": false,
      "t": 383333.63999999996,
      "d": 4450.2350416666595,
      "v": 77
    },
    {
      "midi": 61,
      "hit": false,
      "t": 383333.63999999996,
      "d": 4473.38320833334,
      "v": 79
    },
    {
      "midi": 56,
      "hit": false,
      "t": 383333.63999999996,
      "d": 4484.957291666651,
      "v": 73
    },
    {
      "midi": 65,
      "hit": false,
      "t": 383333.63999999996,
      "d": 4490.744333333336,
      "v": 79
    }
  ]
}