{
  "jsonPath": "Rock/Soft Rock/Lionel Richie/endless-love.json",
  "path": "Rock\\Soft Rock\\Lionel Richie\\Endless Love.mid",
  "name": "Endless Love",
  "difficulty": "Advanced",
  "bpm": 100,
  "notes": [
    {
      "midi": 62,
      "hit": false,
      "t": 0,
      "d": 900,
      "v": 66
    },
    {
      "midi": 46,
      "hit": false,
      "t": 0,
      "d": 1800,
      "v": 69
    },
    {
      "midi": 53,
      "hit": false,
      "t": 0,
      "d": 1800,
      "v": 69
    },
    {
      "midi": 62,
      "hit": false,
      "t": 900,
      "d": 1200,
      "v": 81
    },
    {
      "midi": 53,
      "hit": false,
      "t": 1800,
      "d": 600,
      "v": 77
    },
    {
      "midi": 46,
      "hit": false,
      "t": 2400,
      "d": 1200,
      "v": 68
    },
    {
      "midi": 62,
      "hit": false,
      "t": 3600,
      "d": 398.4375,
      "v": 100
    },
    {
      "midi": 46,
      "hit": false,
      "t": 3600,
      "d": 1200,
      "v": 86
    },
    {
      "midi": 53,
      "hit": false,
      "t": 3600,
      "d": 1200,
      "v": 86
    },
    {
      "midi": 63,
      "hit": false,
      "t": 3998.4375,
      "d": 400.78125,
      "v": 100
    },
    {
      "midi": 65,
      "hit": false,
      "t": 4399.21875,
      "d": 400.78125,
      "v": 100
    },
    {
      "midi": 65,
      "hit": false,
      "t": 4800,
      "d": 900,
      "v": 79
    },
    {
      "midi": 51,
      "hit": false,
      "t": 4800,
      "d": 1200,
      "v": 76
    },
    {
      "midi": 55,
      "hit": false,
      "t": 4800,
      "d": 1200,
      "v": 76
    },
    {
      "midi": 63,
      "hit": false,
      "t": 5700,
      "d": 150,
      "v": 72
    },
    {
      "midi": 62,
      "hit": false,
      "t": 5850,
      "d": 150,
      "v": 70
    },
    {
      "midi": 65,
      "hit": false,
      "t": 6000,
      "d": 300,
      "v": 80
    },
    {
      "midi": 51,
      "hit": false,
      "t": 6000,
      "d": 1200,
      "v": 72
    },
    {
      "midi": 55,
      "hit": false,
      "t": 6000,
      "d": 1200,
      "v": 72
    },
    {
      "midi": 63,
      "hit": false,
      "t": 6300,
      "d": 900,
      "v": 71
    },
    {
      "midi": 53,
      "hit": false,
      "t": 7200,
      "d": 1200,
      "v": 67
    },
    {
      "midi": 58,
      "hit": false,
      "t": 7200,
      "d": 1200,
      "v": 78
    },
    {
      "midi": 60,
      "hit": false,
      "t": 8100,
      "d": 300,
      "v": 73
    },
    {
      "midi": 60,
      "hit": false,
      "t": 8400,
      "d": 600,
      "v": 79
    },
    {
      "midi": 57,
      "hit": false,
      "t": 8400,
      "d": 1200,
      "v": 75
    },
    {
      "midi": 60,
      "hit": false,
      "t": 9000,
      "d": 600,
      "v": 76
    },
    {
      "midi": 60,
      "hit": false,
      "t": 9600,
      "d": 300,
      "v": 79
    },
    {
      "midi": 46,
      "hit": false,
      "t": 9600,
      "d": 900,
      "v": 67
    },
    {
      "midi": 62,
      "hit": false,
      "t": 9900,
      "d": 600,
      "v": 79
    },
    {
      "midi": 62,
      "hit": false,
      "t": 10500,
      "d": 1200,
      "v": 76
    },
    {
      "midi": 53,
      "hit": false,
      "t": 10500,
      "d": 1200,
      "v": 84
    },
    {
      "midi": 58,
      "hit": false,
      "t": 10500,
      "d": 1200,
      "v": 84
    },
    {
      "midi": 77,
      "hit": false,
      "t": 12000,
      "d": 300,
      "v": 100
    },
    {
      "midi": 58,
      "hit": false,
      "t": 12000,
      "d": 1200,
      "v": 75
    },
    {
      "midi": 75,
      "hit": false,
      "t": 12300,
      "d": 300,
      "v": 75
    },
    {
      "midi": 72,
      "hit": false,
      "t": 12600,
      "d": 300,
      "v": 71
    },
    {
      "midi": 74,
      "hit": false,
      "t": 12900,
      "d": 300,
      "v": 80
    },
    {
      "midi": 70,
      "hit": false,
      "t": 13200,
      "d": 600,
      "v": 64
    },
    {
      "midi": 55,
      "hit": false,
      "t": 13200,
      "d": 600,
      "v": 72
    },
    {
      "midi": 69,
      "hit": false,
      "t": 13800,
      "d": 300,
      "v": 68
    },
    {
      "midi": 53,
      "hit": false,
      "t": 13800,
      "d": 600,
      "v": 72
    },
    {
      "midi": 67,
      "hit": false,
      "t": 14100,
      "d": 300,
      "v": 72
    },
    {
      "midi": 65,
      "hit": false,
      "t": 14400,
      "d": 300,
      "v": 71
    },
    {
      "midi": 46,
      "hit": false,
      "t": 14400,
      "d": 1800,
      "v": 77
    },
    {
      "midi": 53,
      "hit": false,
      "t": 14400,
      "d": 1800,
      "v": 77
    },
    {
      "midi": 63,
      "hit": false,
      "t": 14700,
      "d": 300,
      "v": 69
    },
    {
      "midi": 62,
      "hit": false,
      "t": 15000,
      "d": 300,
      "v": 71
    },
    {
      "midi": 62,
      "hit": false,
      "t": 15300,
      "d": 1200,
      "v": 75
    },
    {
      "midi": 53,
      "hit": false,
      "t": 16200,
      "d": 600,
      "v": 75
    },
    {
      "midi": 46,
      "hit": false,
      "t": 16800,
      "d": 1200,
      "v": 65
    },
    {
      "midi": 62,
      "hit": false,
      "t": 18000,
      "d": 398.4375,
      "v": 100
    },
    {
      "midi": 46,
      "hit": false,
      "t": 18000,
      "d": 1200,
      "v": 80
    },
    {
      "midi": 53,
      "hit": false,
      "t": 18000,
      "d": 1200,
      "v": 80
    },
    {
      "midi": 63,
      "hit": false,
      "t": 18398.4375,
      "d": 400.78125,
      "v": 100
    },
    {
      "midi": 65,
      "hit": false,
      "t": 18799.21875,
      "d": 400.78125,
      "v": 100
    },
    {
      "midi": 65,
      "hit": false,
      "t": 19200,
      "d": 900,
      "v": 75
    },
    {
      "midi": 51,
      "hit": false,
      "t": 19200,
      "d": 1200,
      "v": 77
    },
    {
      "midi": 55,
      "hit": false,
      "t": 19200,
      "d": 1200,
      "v": 77
    },
    {
      "midi": 63,
      "hit": false,
      "t": 20100,
      "d": 150,
      "v": 68
    },
    {
      "midi": 62,
      "hit": false,
      "t": 20250,
      "d": 150,
      "v": 72
    },
    {
      "midi": 65,
      "hit": false,
      "t": 20400,
      "d": 300,
      "v": 78
    },
    {
      "midi": 51,
      "hit": false,
      "t": 20400,
      "d": 1200,
      "v": 75
    },
    {
      "midi": 55,
      "hit": false,
      "t": 20400,
      "d": 1200,
      "v": 75
    },
    {
      "midi": 63,
      "hit": false,
      "t": 20700,
      "d": 900,
      "v": 72
    },
    {
      "midi": 53,
      "hit": false,
      "t": 21600,
      "d": 1200,
      "v": 74
    },
    {
      "midi": 58,
      "hit": false,
      "t": 21600,
      "d": 1200,
      "v": 82
    },
    {
      "midi": 60,
      "hit": false,
      "t": 22500,
      "d": 300,
      "v": 65
    },
    {
      "midi": 60,
      "hit": false,
      "t": 22800,
      "d": 600,
      "v": 74
    },
    {
      "midi": 57,
      "hit": false,
      "t": 22800,
      "d": 1200,
      "v": 69
    },
    {
      "midi": 60,
      "hit": false,
      "t": 23400,
      "d": 600,
      "v": 76
    },
    {
      "midi": 60,
      "hit": false,
      "t": 24000,
      "d": 300,
      "v": 73
    },
    {
      "midi": 46,
      "hit": false,
      "t": 24000,
      "d": 900,
      "v": 68
    },
    {
      "midi": 65,
      "hit": false,
      "t": 24300,
      "d": 600,
      "v": 86
    },
    {
      "midi": 62,
      "hit": false,
      "t": 24900,
      "d": 1200,
      "v": 70
    },
    {
      "midi": 53,
      "hit": false,
      "t": 24900,
      "d": 1200,
      "v": 85
    },
    {
      "midi": 58,
      "hit": false,
      "t": 24900,
      "d": 1200,
      "v": 85
    },
    {
      "midi": 60,
      "hit": false,
      "t": 26400,
      "d": 600,
      "v": 73
    },
    {
      "midi": 46,
      "hit": false,
      "t": 26400,
      "d": 1200,
      "v": 66
    },
    {
      "midi": 58,
      "hit": false,
      "t": 27000,
      "d": 600,
      "v": 75
    },
    {
      "midi": 60,
      "hit": false,
      "t": 27600,
      "d": 600,
      "v": 79
    },
    {
      "midi": 53,
      "hit": false,
      "t": 27600,
      "d": 1200,
      "v": 80
    },
    {
      "midi": 62,
      "hit": false,
      "t": 28200,
      "d": 300,
      "v": 77
    },
    {
      "midi": 58,
      "hit": false,
      "t": 28500,
      "d": 300,
      "v": 76
    },
    {
      "midi": 67,
      "hit": false,
      "t": 28800,
      "d": 3600,
      "v": 92
    },
    {
      "midi": 51,
      "hit": false,
      "t": 28800,
      "d": 1800,
      "v": 83
    },
    {
      "midi": 58,
      "hit": false,
      "t": 28800,
      "d": 1800,
      "v": 83
    },
    {
      "midi": 58,
      "hit": false,
      "t": 30600,
      "d": 600,
      "v": 81
    },
    {
      "midi": 51,
      "hit": false,
      "t": 31200,
      "d": 1200,
      "v": 74
    },
    {
      "midi": 55,
      "hit": false,
      "t": 31200,
      "d": 1200,
      "v": 74
    },
    {
      "midi": 58,
      "hit": false,
      "t": 31200,
      "d": 1200,
      "v": 74
    },
    {
      "midi": 69,
      "hit": false,
      "t": 32400,
      "d": 600,
      "v": 85
    },
    {
      "midi": 53,
      "hit": false,
      "t": 32400,
      "d": 1200,
      "v": 67
    },
    {
      "midi": 70,
      "hit": false,
      "t": 33000,
      "d": 300,
      "v": 82
    },
    {
      "midi": 72,
      "hit": false,
      "t": 33300,
      "d": 300,
      "v": 84
    },
    {
      "midi": 65,
      "hit": false,
      "t": 33600,
      "d": 1200,
      "v": 58
    },
    {
      "midi": 46,
      "hit": false,
      "t": 33600,
      "d": 1200,
      "v": 79
    },
    {
      "midi": 50,
      "hit": false,
      "t": 33600,
      "d": 1200,
      "v": 79
    },
    {
      "midi": 53,
      "hit": false,
      "t": 33600,
      "d": 1200,
      "v": 79
    },
    {
      "midi": 45,
      "hit": false,
      "t": 34800,
      "d": 1200,
      "v": 79
    },
    {
      "midi": 53,
      "hit": false,
      "t": 34800,
      "d": 1200,
      "v": 79
    },
    {
      "midi": 65,
      "hit": false,
      "t": 35100,
      "d": 600,
      "v": 78
    },
    {
      "midi": 72,
      "hit": false,
      "t": 35700,
      "d": 300,
      "v": 91
    },
    {
      "midi": 72,
      "hit": false,
      "t": 36000,
      "d": 300,
      "v": 74
    },
    {
      "midi": 43,
      "hit": false,
      "t": 36000,
      "d": 1200,
      "v": 74
    },
    {
      "midi": 50,
      "hit": false,
      "t": 36000,
      "d": 1200,
      "v": 74
    },
    {
      "midi": 70,
      "hit": false,
      "t": 36300,
      "d": 1200,
      "v": 71
    },
    {
      "midi": 55,
      "hit": false,
      "t": 37200,
      "d": 600,
      "v": 78
    },
    {
      "midi": 69,
      "hit": false,
      "t": 37800,
      "d": 600,
      "v": 71
    },
    {
      "midi": 53,
      "hit": false,
      "t": 37800,
      "d": 600,
      "v": 74
    },
    {
      "midi": 69,
      "hit": false,
      "t": 38400,
      "d": 300,
      "v": 78
    },
    {
      "midi": 51,
      "hit": false,
      "t": 38400,
      "d": 1200,
      "v": 73
    },
    {
      "midi": 70,
      "hit": false,
      "t": 38700,
      "d": 300,
      "v": 81
    },
    {
      "midi": 67,
      "hit": false,
      "t": 39000,
      "d": 2400,
      "v": 73
    },
    {
      "midi": 51,
      "hit": false,
      "t": 39600,
      "d": 900,
      "v": 85
    },
    {
      "midi": 58,
      "hit": false,
      "t": 39600,
      "d": 900,
      "v": 85
    },
    {
      "midi": 58,
      "hit": false,
      "t": 40500,
      "d": 300,
      "v": 76
    },
    {
      "midi": 53,
      "hit": false,
      "t": 40800,
      "d": 1200,
      "v": 68
    },
    {
      "midi": 69,
      "hit": false,
      "t": 41700,
      "d": 300,
      "v": 83
    },
    {
      "midi": 70,
      "hit": false,
      "t": 42000,
      "d": 300,
      "v": 80
    },
    {
      "midi": 41,
      "hit": false,
      "t": 42000,
      "d": 1200,
      "v": 69
    },
    {
      "midi": 72,
      "hit": false,
      "t": 42300,
      "d": 900,
      "v": 85
    },
    {
      "midi": 72,
      "hit": false,
      "t": 43200,
      "d": 600,
      "v": 79
    },
    {
      "midi": 46,
      "hit": false,
      "t": 43200,
      "d": 1800,
      "v": 87
    },
    {
      "midi": 50,
      "hit": false,
      "t": 43200,
      "d": 1800,
      "v": 87
    },
    {
      "midi": 53,
      "hit": false,
      "t": 43200,
      "d": 1800,
      "v": 87
    },
    {
      "midi": 70,
      "hit": false,
      "t": 43800,
      "d": 300,
      "v": 70
    },
    {
      "midi": 69,
      "hit": false,
      "t": 44100,
      "d": 300,
      "v": 75
    },
    {
      "midi": 67,
      "hit": false,
      "t": 44400,
      "d": 300,
      "v": 70
    },
    {
      "midi": 65,
      "hit": false,
      "t": 44700,
      "d": 900,
      "v": 74
    },
    {
      "midi": 53,
      "hit": false,
      "t": 45000,
      "d": 600,
      "v": 78
    },
    {
      "midi": 56,
      "hit": false,
      "t": 45600,
      "d": 600,
      "v": 76
    },
    {
      "midi": 60,
      "hit": false,
      "t": 46200,
      "d": 600,
      "v": 81
    },
    {
      "midi": 58,
      "hit": false,
      "t": 46800,
      "d": 1200,
      "v": 73
    },
    {
      "midi": 58,
      "hit": false,
      "t": 47100,
      "d": 300,
      "v": 66
    },
    {
      "midi": 70,
      "hit": false,
      "t": 47400,
      "d": 300,
      "v": 96
    },
    {
      "midi": 67,
      "hit": false,
      "t": 47700,
      "d": 3600,
      "v": 73
    },
    {
      "midi": 51,
      "hit": false,
      "t": 48000,
      "d": 1800,
      "v": 75
    },
    {
      "midi": 58,
      "hit": false,
      "t": 48000,
      "d": 1800,
      "v": 75
    },
    {
      "midi": 58,
      "hit": false,
      "t": 49800,
      "d": 600,
      "v": 77
    },
    {
      "midi": 51,
      "hit": false,
      "t": 50400,
      "d": 1200,
      "v": 79
    },
    {
      "midi": 55,
      "hit": false,
      "t": 50400,
      "d": 1200,
      "v": 79
    },
    {
      "midi": 58,
      "hit": false,
      "t": 50400,
      "d": 1200,
      "v": 79
    },
    {
      "midi": 69,
      "hit": false,
      "t": 51300,
      "d": 300,
      "v": 79
    },
    {
      "midi": 69,
      "hit": false,
      "t": 51600,
      "d": 398.4375,
      "v": 100
    },
    {
      "midi": 53,
      "hit": false,
      "t": 51600,
      "d": 1200,
      "v": 70
    },
    {
      "midi": 70,
      "hit": false,
      "t": 51998.4375,
      "d": 400.78125,
      "v": 100
    },
    {
      "midi": 72,
      "hit": false,
      "t": 52399.21875,
      "d": 400.78125,
      "v": 100
    },
    {
      "midi": 72,
      "hit": false,
      "t": 52800,
      "d": 900,
      "v": 78
    },
    {
      "midi": 46,
      "hit": false,
      "t": 52800,
      "d": 1200,
      "v": 77
    },
    {
      "midi": 50,
      "hit": false,
      "t": 52800,
      "d": 1200,
      "v": 77
    },
    {
      "midi": 53,
      "hit": false,
      "t": 52800,
      "d": 1200,
      "v": 77
    },
    {
      "midi": 74,
      "hit": false,
      "t": 53700,
      "d": 300,
      "v": 82
    },
    {
      "midi": 74,
      "hit": false,
      "t": 54000,
      "d": 150,
      "v": 71
    },
    {
      "midi": 46,
      "hit": false,
      "t": 54000,
      "d": 600,
      "v": 72
    },
    {
      "midi": 72,
      "hit": false,
      "t": 54150,
      "d": 150,
      "v": 76
    },
    {
      "midi": 70,
      "hit": false,
      "t": 54300,
      "d": 300,
      "v": 71
    },
    {
      "midi": 70,
      "hit": false,
      "t": 54600,
      "d": 1800,
      "v": 75
    },
    {
      "midi": 45,
      "hit": false,
      "t": 54600,
      "d": 600,
      "v": 70
    },
    {
      "midi": 43,
      "hit": false,
      "t": 55200,
      "d": 1200,
      "v": 83
    },
    {
      "midi": 50,
      "hit": false,
      "t": 55200,
      "d": 1200,
      "v": 83
    },
    {
      "midi": 55,
      "hit": false,
      "t": 56400,
      "d": 600,
      "v": 79
    },
    {
      "midi": 72,
      "hit": false,
      "t": 56700,
      "d": 300,
      "v": 82
    },
    {
      "midi": 70,
      "hit": false,
      "t": 57000,
      "d": 300,
      "v": 72
    },
    {
      "midi": 53,
      "hit": false,
      "t": 57000,
      "d": 600,
      "v": 70
    },
    {
      "midi": 69,
      "hit": false,
      "t": 57300,
      "d": 300,
      "v": 74
    },
    {
      "midi": 51,
      "hit": false,
      "t": 57600,
      "d": 2400,
      "v": 78
    },
    {
      "midi": 55,
      "hit": false,
      "t": 57600,
      "d": 2400,
      "v": 78
    },
    {
      "midi": 69,
      "hit": false,
      "t": 57900,
      "d": 300,
      "v": 67
    },
    {
      "midi": 67,
      "hit": false,
      "t": 58200,
      "d": 1200,
      "v": 72
    },
    {
      "midi": 67,
      "hit": false,
      "t": 59400,
      "d": 300,
      "v": 72
    },
    {
      "midi": 70,
      "hit": false,
      "t": 59700,
      "d": 300,
      "v": 85
    },
    {
      "midi": 65,
      "hit": false,
      "t": 60000,
      "d": 1800,
      "v": 76
    },
    {
      "midi": 69,
      "hit": false,
      "t": 60000,
      "d": 1800,
      "v": 76
    },
    {
      "midi": 50,
      "hit": false,
      "t": 60000,
      "d": 1200,
      "v": 88
    },
    {
      "midi": 60,
      "hit": false,
      "t": 60000,
      "d": 1200,
      "v": 88
    },
    {
      "midi": 50,
      "hit": false,
      "t": 61200,
      "d": 1200,
      "v": 69
    },
    {
      "midi": 70,
      "hit": false,
      "t": 61800,
      "d": 600,
      "v": 78
    },
    {
      "midi": 63,
      "hit": false,
      "t": 62400,
      "d": 2400,
      "v": 77
    },
    {
      "midi": 67,
      "hit": false,
      "t": 62400,
      "d": 2400,
      "v": 77
    },
    {
      "midi": 70,
      "hit": false,
      "t": 62400,
      "d": 2400,
      "v": 77
    },
    {
      "midi": 48,
      "hit": false,
      "t": 62400,
      "d": 1200,
      "v": 69
    },
    {
      "midi": 60,
      "hit": false,
      "t": 63600,
      "d": 600,
      "v": 100
    },
    {
      "midi": 55,
      "hit": false,
      "t": 64200,
      "d": 600,
      "v": 72
    },
    {
      "midi": 53,
      "hit": false,
      "t": 64800,
      "d": 2400,
      "v": 76
    },
    {
      "midi": 63,
      "hit": false,
      "t": 65400,
      "d": 600,
      "v": 69
    },
    {
      "midi": 67,
      "hit": false,
      "t": 65400,
      "d": 600,
      "v": 69
    },
    {
      "midi": 70,
      "hit": false,
      "t": 65400,
      "d": 600,
      "v": 69
    },
    {
      "midi": 63,
      "hit": false,
      "t": 66000,
      "d": 398.4375,
      "v": 100
    },
    {
      "midi": 67,
      "hit": false,
      "t": 66000,
      "d": 398.4375,
      "v": 100
    },
    {
      "midi": 70,
      "hit": false,
      "t": 66000,
      "d": 398.4375,
      "v": 100
    },
    {
      "midi": 63,
      "hit": false,
      "t": 66398.4375,
      "d": 400.78125,
      "v": 100
    },
    {
      "midi": 67,
      "hit": false,
      "t": 66398.4375,
      "d": 400.78125,
      "v": 100
    },
    {
      "midi": 70,
      "hit": false,
      "t": 66398.4375,
      "d": 400.78125,
      "v": 100
    },
    {
      "midi": 63,
      "hit": false,
      "t": 66799.21875,
      "d": 400.78125,
      "v": 100
    },
    {
      "midi": 67,
      "hit": false,
      "t": 66799.21875,
      "d": 400.78125,
      "v": 100
    },
    {
      "midi": 70,
      "hit": false,
      "t": 67200,
      "d": 300,
      "v": 83
    },
    {
      "midi": 46,
      "hit": false,
      "t": 67200,
      "d": 4800,
      "v": 78
    },
    {
      "midi": 58,
      "hit": false,
      "t": 67200,
      "d": 4800,
      "v": 78
    },
    {
      "midi": 65,
      "hit": false,
      "t": 67500,
      "d": 300,
      "v": 66
    },
    {
      "midi": 70,
      "hit": false,
      "t": 67800,
      "d": 300,
      "v": 83
    },
    {
      "midi": 72,
      "hit": false,
      "t": 68100,
      "d": 300,
      "v": 81
    },
    {
      "midi": 65,
      "hit": false,
      "t": 68400,
      "d": 300,
      "v": 64
    },
    {
      "midi": 70,
      "hit": false,
      "t": 68700,
      "d": 300,
      "v": 85
    },
    {
      "midi": 72,
      "hit": false,
      "t": 69000,
      "d": 300,
      "v": 84
    },
    {
      "midi": 65,
      "hit": false,
      "t": 69300,
      "d": 300,
      "v": 64
    },
    {
      "midi": 77,
      "hit": false,
      "t": 69600,
      "d": 300,
      "v": 97
    },
    {
      "midi": 65,
      "hit": false,
      "t": 69900,
      "d": 300,
      "v": 56
    },
    {
      "midi": 70,
      "hit": false,
      "t": 70200,
      "d": 300,
      "v": 85
    },
    {
      "midi": 74,
      "hit": false,
      "t": 70500,
      "d": 300,
      "v": 82
    },
    {
      "midi": 65,
      "hit": false,
      "t": 70800,
      "d": 300,
      "v": 62
    },
    {
      "midi": 70,
      "hit": false,
      "t": 71100,
      "d": 300,
      "v": 84
    },
    {
      "midi": 72,
      "hit": false,
      "t": 71400,
      "d": 300,
      "v": 84
    },
    {
      "midi": 65,
      "hit": false,
      "t": 71700,
      "d": 300,
      "v": 64
    },
    {
      "midi": 74,
      "hit": false,
      "t": 72000,
      "d": 300,
      "v": 84
    },
    {
      "midi": 46,
      "hit": false,
      "t": 72000,
      "d": 4800,
      "v": 74
    },
    {
      "midi": 58,
      "hit": false,
      "t": 72000,
      "d": 4800,
      "v": 74
    },
    {
      "midi": 65,
      "hit": false,
      "t": 72300,
      "d": 300,
      "v": 63
    },
    {
      "midi": 70,
      "hit": false,
      "t": 72600,
      "d": 300,
      "v": 83
    },
    {
      "midi": 72,
      "hit": false,
      "t": 72900,
      "d": 300,
      "v": 83
    },
    {
      "midi": 65,
      "hit": false,
      "t": 73200,
      "d": 300,
      "v": 58
    },
    {
      "midi": 70,
      "hit": false,
      "t": 73500,
      "d": 300,
      "v": 83
    },
    {
      "midi": 72,
      "hit": false,
      "t": 73800,
      "d": 300,
      "v": 75
    },
    {
      "midi": 65,
      "hit": false,
      "t": 74100,
      "d": 300,
      "v": 69
    },
    {
      "midi": 77,
      "hit": false,
      "t": 74400,
      "d": 300,
      "v": 92
    },
    {
      "midi": 65,
      "hit": false,
      "t": 74700,
      "d": 300,
      "v": 54
    },
    {
      "midi": 70,
      "hit": false,
      "t": 75000,
      "d": 300,
      "v": 87
    },
    {
      "midi": 74,
      "hit": false,
      "t": 75300,
      "d": 300,
      "v": 85
    },
    {
      "midi": 65,
      "hit": false,
      "t": 75600,
      "d": 300,
      "v": 62
    },
    {
      "midi": 70,
      "hit": false,
      "t": 75900,
      "d": 300,
      "v": 87
    },
    {
      "midi": 72,
      "hit": false,
      "t": 76200,
      "d": 300,
      "v": 79
    },
    {
      "midi": 65,
      "hit": false,
      "t": 76500,
      "d": 300,
      "v": 65
    },
    {
      "midi": 77,
      "hit": false,
      "t": 76800,
      "d": 300,
      "v": 95
    },
    {
      "midi": 46,
      "hit": false,
      "t": 76800,
      "d": 2400,
      "v": 75
    },
    {
      "midi": 58,
      "hit": false,
      "t": 76800,
      "d": 2400,
      "v": 75
    },
    {
      "midi": 65,
      "hit": false,
      "t": 77100,
      "d": 300,
      "v": 57
    },
    {
      "midi": 67,
      "hit": false,
      "t": 77400,
      "d": 300,
      "v": 77
    },
    {
      "midi": 70,
      "hit": false,
      "t": 77700,
      "d": 300,
      "v": 84
    },
    {
      "midi": 72,
      "hit": false,
      "t": 78000,
      "d": 300,
      "v": 80
    },
    {
      "midi": 70,
      "hit": false,
      "t": 78300,
      "d": 300,
      "v": 71
    },
    {
      "midi": 74,
      "hit": false,
      "t": 78600,
      "d": 300,
      "v": 85
    },
    {
      "midi": 70,
      "hit": false,
      "t": 78900,
      "d": 300,
      "v": 71
    },
    {
      "midi": 56,
      "hit": false,
      "t": 79200,
      "d": 600,
      "v": 72
    },
    {
      "midi": 60,
      "hit": false,
      "t": 79800,
      "d": 600,
      "v": 87
    },
    {
      "midi": 58,
      "hit": false,
      "t": 80400,
      "d": 1200,
      "v": 72
    },
    {
      "midi": 63,
      "hit": false,
      "t": 81300,
      "d": 300,
      "v": 74
    },
    {
      "midi": 67,
      "hit": false,
      "t": 81600,
      "d": 3600,
      "v": 80
    },
    {
      "midi": 51,
      "hit": false,
      "t": 81600,
      "d": 1800,
      "v": 76
    },
    {
      "midi": 58,
      "hit": false,
      "t": 81600,
      "d": 1800,
      "v": 76
    },
    {
      "midi": 58,
      "hit": false,
      "t": 83400,
      "d": 600,
      "v": 75
    },
    {
      "midi": 51,
      "hit": false,
      "t": 84000,
      "d": 1200,
      "v": 74
    },
    {
      "midi": 55,
      "hit": false,
      "t": 84000,
      "d": 1200,
      "v": 74
    },
    {
      "midi": 58,
      "hit": false,
      "t": 84000,
      "d": 1200,
      "v": 74
    },
    {
      "midi": 69,
      "hit": false,
      "t": 85200,
      "d": 398.4375,
      "v": 100
    },
    {
      "midi": 53,
      "hit": false,
      "t": 85200,
      "d": 1200,
      "v": 73
    },
    {
      "midi": 70,
      "hit": false,
      "t": 85598.4375,
      "d": 400.78125,
      "v": 100
    },
    {
      "midi": 72,
      "hit": false,
      "t": 85999.21875,
      "d": 400.78125,
      "v": 100
    },
    {
      "midi": 72,
      "hit": false,
      "t": 86400,
      "d": 900,
      "v": 76
    },
    {
      "midi": 46,
      "hit": false,
      "t": 86400,
      "d": 1200,
      "v": 77
    },
    {
      "midi": 50,
      "hit": false,
      "t": 86400,
      "d": 1200,
      "v": 77
    },
    {
      "midi": 53,
      "hit": false,
      "t": 86400,
      "d": 1200,
      "v": 77
    },
    {
      "midi": 77,
      "hit": false,
      "t": 87300,
      "d": 150,
      "v": 88
    },
    {
      "midi": 72,
      "hit": false,
      "t": 87450,
      "d": 150,
      "v": 68
    },
    {
      "midi": 74,
      "hit": false,
      "t": 87600,
      "d": 1200,
      "v": 82
    },
    {
      "midi": 58,
      "hit": false,
      "t": 87600,
      "d": 600,
      "v": 79
    },
    {
      "midi": 57,
      "hit": false,
      "t": 88200,
      "d": 600,
      "v": 75
    },
    {
      "midi": 55,
      "hit": false,
      "t": 88800,
      "d": 1200,
      "v": 77
    },
    {
      "midi": 72,
      "hit": false,
      "t": 88950,
      "d": 150,
      "v": 69
    },
    {
      "midi": 70,
      "hit": false,
      "t": 89100,
      "d": 300,
      "v": 72
    },
    {
      "midi": 70,
      "hit": false,
      "t": 89400,
      "d": 1200,
      "v": 79
    },
    {
      "midi": 55,
      "hit": false,
      "t": 90000,
      "d": 600,
      "v": 79
    },
    {
      "midi": 65,
      "hit": false,
      "t": 90600,
      "d": 300,
      "v": 69
    },
    {
      "midi": 53,
      "hit": false,
      "t": 90600,
      "d": 600,
      "v": 78
    },
    {
      "midi": 67,
      "hit": false,
      "t": 90900,
      "d": 300,
      "v": 80
    },
    {
      "midi": 62,
      "hit": false,
      "t": 91200,
      "d": 1200,
      "v": 74
    },
    {
      "midi": 67,
      "hit": false,
      "t": 91200,
      "d": 1200,
      "v": 74
    },
    {
      "midi": 51,
      "hit": false,
      "t": 91200,
      "d": 1200,
      "v": 82
    },
    {
      "midi": 58,
      "hit": false,
      "t": 91200,
      "d": 1200,
      "v": 82
    },
    {
      "midi": 51,
      "hit": false,
      "t": 92400,
      "d": 1200,
      "v": 79
    },
    {
      "midi": 58,
      "hit": false,
      "t": 92400,
      "d": 1200,
      "v": 79
    },
    {
      "midi": 65,
      "hit": false,
      "t": 92700,
      "d": 300,
      "v": 74
    },
    {
      "midi": 63,
      "hit": false,
      "t": 93000,
      "d": 300,
      "v": 71
    },
    {
      "midi": 62,
      "hit": false,
      "t": 93300,
      "d": 300,
      "v": 71
    },
    {
      "midi": 65,
      "hit": false,
      "t": 93600,
      "d": 1800,
      "v": 90
    },
    {
      "midi": 50,
      "hit": false,
      "t": 93600,
      "d": 1200,
      "v": 81
    },
    {
      "midi": 57,
      "hit": false,
      "t": 93600,
      "d": 1200,
      "v": 81
    },
    {
      "midi": 60,
      "hit": false,
      "t": 93600,
      "d": 1200,
      "v": 81
    },
    {
      "midi": 50,
      "hit": false,
      "t": 94800,
      "d": 1200,
      "v": 76
    },
    {
      "midi": 57,
      "hit": false,
      "t": 94800,
      "d": 1200,
      "v": 76
    },
    {
      "midi": 60,
      "hit": false,
      "t": 94800,
      "d": 1200,
      "v": 76
    },
    {
      "midi": 62,
      "hit": false,
      "t": 95400,
      "d": 300,
      "v": 69
    },
    {
      "midi": 67,
      "hit": false,
      "t": 95700,
      "d": 300,
      "v": 88
    },
    {
      "midi": 62,
      "hit": false,
      "t": 96000,
      "d": 1200,
      "v": 74
    },
    {
      "midi": 67,
      "hit": false,
      "t": 96000,
      "d": 1200,
      "v": 74
    },
    {
      "midi": 51,
      "hit": false,
      "t": 96000,
      "d": 1200,
      "v": 78
    },
    {
      "midi": 58,
      "hit": false,
      "t": 96000,
      "d": 1200,
      "v": 78
    },
    {
      "midi": 51,
      "hit": false,
      "t": 97200,
      "d": 1200,
      "v": 75
    },
    {
      "midi": 58,
      "hit": false,
      "t": 97200,
      "d": 1200,
      "v": 75
    },
    {
      "midi": 65,
      "hit": false,
      "t": 97500,
      "d": 300,
      "v": 68
    },
    {
      "midi": 63,
      "hit": false,
      "t": 97800,
      "d": 300,
      "v": 75
    },
    {
      "midi": 62,
      "hit": false,
      "t": 98100,
      "d": 300,
      "v": 69
    },
    {
      "midi": 65,
      "hit": false,
      "t": 98400,
      "d": 1800,
      "v": 77
    },
    {
      "midi": 50,
      "hit": false,
      "t": 98400,
      "d": 1200,
      "v": 82
    },
    {
      "midi": 57,
      "hit": false,
      "t": 98400,
      "d": 1200,
      "v": 82
    },
    {
      "midi": 60,
      "hit": false,
      "t": 98400,
      "d": 1200,
      "v": 82
    },
    {
      "midi": 50,
      "hit": false,
      "t": 99600,
      "d": 1200,
      "v": 79
    },
    {
      "midi": 57,
      "hit": false,
      "t": 99600,
      "d": 1200,
      "v": 79
    },
    {
      "midi": 60,
      "hit": false,
      "t": 99600,
      "d": 1200,
      "v": 79
    },
    {
      "midi": 62,
      "hit": false,
      "t": 100200,
      "d": 300,
      "v": 71
    },
    {
      "midi": 62,
      "hit": false,
      "t": 100500,
      "d": 300,
      "v": 74
    },
    {
      "midi": 62,
      "hit": false,
      "t": 100800,
      "d": 1200,
      "v": 85
    },
    {
      "midi": 67,
      "hit": false,
      "t": 100800,
      "d": 1200,
      "v": 85
    },
    {
      "midi": 51,
      "hit": false,
      "t": 100800,
      "d": 1200,
      "v": 71
    },
    {
      "midi": 58,
      "hit": false,
      "t": 100800,
      "d": 1200,
      "v": 71
    },
    {
      "midi": 51,
      "hit": false,
      "t": 102000,
      "d": 1200,
      "v": 76
    },
    {
      "midi": 58,
      "hit": false,
      "t": 102000,
      "d": 1200,
      "v": 76
    },
    {
      "midi": 65,
      "hit": false,
      "t": 102300,
      "d": 300,
      "v": 71
    },
    {
      "midi": 63,
      "hit": false,
      "t": 102600,
      "d": 300,
      "v": 72
    },
    {
      "midi": 62,
      "hit": false,
      "t": 102900,
      "d": 300,
      "v": 69
    },
    {
      "midi": 65,
      "hit": false,
      "t": 103200,
      "d": 1800,
      "v": 79
    },
    {
      "midi": 50,
      "hit": false,
      "t": 103200,
      "d": 1200,
      "v": 81
    },
    {
      "midi": 57,
      "hit": false,
      "t": 103200,
      "d": 1200,
      "v": 81
    },
    {
      "midi": 60,
      "hit": false,
      "t": 103200,
      "d": 1200,
      "v": 81
    },
    {
      "midi": 50,
      "hit": false,
      "t": 104400,
      "d": 600,
      "v": 68
    },
    {
      "midi": 62,
      "hit": false,
      "t": 105000,
      "d": 600,
      "v": 72
    },
    {
      "midi": 67,
      "hit": false,
      "t": 105600,
      "d": 600,
      "v": 90
    },
    {
      "midi": 48,
      "hit": false,
      "t": 105600,
      "d": 2400,
      "v": 67
    },
    {
      "midi": 51,
      "hit": false,
      "t": 105600,
      "d": 2400,
      "v": 67
    },
    {
      "midi": 58,
      "hit": false,
      "t": 105600,
      "d": 2400,
      "v": 67
    },
    {
      "midi": 65,
      "hit": false,
      "t": 106200,
      "d": 600,
      "v": 68
    },
    {
      "midi": 63,
      "hit": false,
      "t": 106800,
      "d": 1200,
      "v": 68
    },
    {
      "midi": 53,
      "hit": false,
      "t": 108000,
      "d": 2400,
      "v": 68
    },
    {
      "midi": 63,
      "hit": false,
      "t": 108600,
      "d": 600,
      "v": 66
    },
    {
      "midi": 67,
      "hit": false,
      "t": 108600,
      "d": 600,
      "v": 66
    },
    {
      "midi": 70,
      "hit": false,
      "t": 108600,
      "d": 600,
      "v": 66
    },
    {
      "midi": 63,
      "hit": false,
      "t": 109200,
      "d": 398.4375,
      "v": 100
    },
    {
      "midi": 67,
      "hit": false,
      "t": 109200,
      "d": 398.4375,
      "v": 100
    },
    {
      "midi": 70,
      "hit": false,
      "t": 109200,
      "d": 398.4375,
      "v": 100
    },
    {
      "midi": 63,
      "hit": false,
      "t": 109598.4375,
      "d": 400.78125,
      "v": 100
    },
    {
      "midi": 67,
      "hit": false,
      "t": 109598.4375,
      "d": 400.78125,
      "v": 100
    },
    {
      "midi": 70,
      "hit": false,
      "t": 109598.4375,
      "d": 400.78125,
      "v": 100
    },
    {
      "midi": 63,
      "hit": false,
      "t": 109999.21875,
      "d": 400.78125,
      "v": 100
    },
    {
      "midi": 67,
      "hit": false,
      "t": 109999.21875,
      "d": 400.78125,
      "v": 100
    },
    {
      "midi": 70,
      "hit": false,
      "t": 109999.21875,
      "d": 400.78125,
      "v": 100
    },
    {
      "midi": 62,
      "hit": false,
      "t": 110400,
      "d": 4800,
      "v": 78
    },
    {
      "midi": 65,
      "hit": false,
      "t": 110400,
      "d": 4800,
      "v": 78
    },
    {
      "midi": 70,
      "hit": false,
      "t": 110400,
      "d": 4800,
      "v": 78
    },
    {
      "midi": 46,
      "hit": false,
      "t": 110400,
      "d": 2400,
      "v": 73
    },
    {
      "midi": 46,
      "hit": false,
      "t": 112800,
      "d": 2400,
      "v": 73
    }
  ]
}