{
  "jsonPath": "Rock/Dance Rock/Tears For Fears/sowing-the-seeds-of-love.json",
  "path": "Rock\\Dance Rock\\Tears For Fears\\Sowing The Seeds Of Love.mid",
  "name": "Sowing The Seeds Of Love",
  "difficulty": "Advanced",
  "bpm": 84.000084000084,
  "notes": [
    {
      "midi": 67,
      "hit": false,
      "t": 172964.233825,
      "d": 511.9046083333378,
      "v": 57
    },
    {
      "midi": 76,
      "hit": false,
      "t": 173130.90044166666,
      "d": 333.3332333333383,
      "v": 1
    },
    {
      "midi": 72,
      "hit": false,
      "t": 173202.32899166667,
      "d": 261.90468333332683,
      "v": 1
    },
    {
      "midi": 72,
      "hit": false,
      "t": 173630.90029166668,
      "d": 702.3807416666532,
      "v": 83
    },
    {
      "midi": 67,
      "hit": false,
      "t": 173666.61456666669,
      "d": 1119.0472833333188,
      "v": 67
    },
    {
      "midi": 74,
      "hit": false,
      "t": 173714.2336,
      "d": 1035.7139749999915,
      "v": 63
    },
    {
      "midi": 74,
      "hit": false,
      "t": 175095.18556666668,
      "d": 857.142600000021,
      "v": 97
    },
    {
      "midi": 67,
      "hit": false,
      "t": 175095.18556666668,
      "d": 1178.5710750000144,
      "v": 75
    },
    {
      "midi": 76,
      "hit": false,
      "t": 175761.85203333336,
      "d": 821.4283250000153,
      "v": 81
    },
    {
      "midi": 67,
      "hit": false,
      "t": 176488.0422916667,
      "d": 1571.4281000000192,
      "v": 68
    },
    {
      "midi": 72,
      "hit": false,
      "t": 176511.85180833336,
      "d": 1940.4756083333632,
      "v": 101
    },
    {
      "midi": 67,
      "hit": false,
      "t": 178642.80355000007,
      "d": 345.2379916666541,
      "v": 35
    },
    {
      "midi": 72,
      "hit": false,
      "t": 179285.66050000006,
      "d": 880.9521166666818,
      "v": 94
    },
    {
      "midi": 76,
      "hit": false,
      "t": 179297.5652583334,
      "d": 1297.6186583333474,
      "v": 88
    },
    {
      "midi": 65,
      "hit": false,
      "t": 180035.66027500006,
      "d": 928.5711500000325,
      "v": 51
    },
    {
      "midi": 76,
      "hit": false,
      "t": 180761.8505333334,
      "d": 642.8569500000158,
      "v": 73
    },
    {
      "midi": 72,
      "hit": false,
      "t": 180773.75529166675,
      "d": 809.5235666666704,
      "v": 88
    },
    {
      "midi": 65,
      "hit": false,
      "t": 181499.9455500001,
      "d": 654.7617083333316,
      "v": 63
    },
    {
      "midi": 53,
      "hit": false,
      "t": 182214.2310500001,
      "d": 1821.4280250000302,
      "v": 91
    },
    {
      "midi": 65,
      "hit": false,
      "t": 182964.2308250001,
      "d": 1071.4282500000263,
      "v": 79
    },
    {
      "midi": 69,
      "hit": false,
      "t": 183630.89729166677,
      "d": 702.3807416666823,
      "v": 122
    },
    {
      "midi": 72,
      "hit": false,
      "t": 183642.80205000011,
      "d": 749.9997750000039,
      "v": 108
    },
    {
      "midi": 65,
      "hit": false,
      "t": 184273.7542416668,
      "d": 202.38089166666032,
      "v": 71
    },
    {
      "midi": 53,
      "hit": false,
      "t": 184345.1827916668,
      "d": 464.28557499998715,
      "v": 77
    },
    {
      "midi": 72,
      "hit": false,
      "t": 184976.13498333344,
      "d": 999.9997000000149,
      "v": 122
    },
    {
      "midi": 68,
      "hit": false,
      "t": 184976.13498333344,
      "d": 1273.8091416666866,
      "v": 91
    },
    {
      "midi": 63,
      "hit": false,
      "t": 184988.03974166678,
      "d": 416.6665416666656,
      "v": 100
    },
    {
      "midi": 56,
      "hit": false,
      "t": 185011.84925833344,
      "d": 1023.8092166666756,
      "v": 104
    },
    {
      "midi": 63,
      "hit": false,
      "t": 185738.0395166668,
      "d": 357.14274999999907,
      "v": 61
    },
    {
      "midi": 55,
      "hit": false,
      "t": 186357.0869500001,
      "d": 595.2379166666651,
      "v": 66
    },
    {
      "midi": 71,
      "hit": false,
      "t": 186452.3250166668,
      "d": 749.9997750000039,
      "v": 94
    },
    {
      "midi": 67,
      "hit": false,
      "t": 186464.22977500013,
      "d": 785.7140499999805,
      "v": 101
    },
    {
      "midi": 62,
      "hit": false,
      "t": 186488.0392916668,
      "d": 928.5711499999743,
      "v": 88
    },
    {
      "midi": 53,
      "hit": false,
      "t": 188857.0862000001,
      "d": 214.28565000000526,
      "v": 63
    },
    {
      "midi": 55,
      "hit": false,
      "t": 188857.0862000001,
      "d": 988.0949416666699,
      "v": 61
    },
    {
      "midi": 60,
      "hit": false,
      "t": 189333.27653333344,
      "d": 833.3330833333312,
      "v": 101
    },
    {
      "midi": 64,
      "hit": false,
      "t": 189333.27653333344,
      "d": 880.9521166666527,
      "v": 91
    },
    {
      "midi": 55,
      "hit": false,
      "t": 190047.56203333344,
      "d": 904.7616333333426,
      "v": 83
    },
    {
      "midi": 60,
      "hit": false,
      "t": 190726.13325833343,
      "d": 1583.332858333335,
      "v": 94
    },
    {
      "midi": 64,
      "hit": false,
      "t": 190738.03801666677,
      "d": 1321.428174999979,
      "v": 94
    },
    {
      "midi": 55,
      "hit": false,
      "t": 191476.13303333343,
      "d": 1595.23761666668,
      "v": 73
    },
    {
      "midi": 67,
      "hit": false,
      "t": 192190.41853333343,
      "d": 2297.6183583333623,
      "v": 104
    },
    {
      "midi": 60,
      "hit": false,
      "t": 192916.60879166677,
      "d": 1630.9518916666857,
      "v": 101
    },
    {
      "midi": 55,
      "hit": false,
      "t": 194368.98930833346,
      "d": 2488.0944916666776,
      "v": 117
    },
    {
      "midi": 60,
      "hit": false,
      "t": 195071.3700500001,
      "d": 857.142600000021,
      "v": 94
    },
    {
      "midi": 62,
      "hit": false,
      "t": 195738.0365166668,
      "d": 797.6188083333545,
      "v": 117
    },
    {
      "midi": 64,
      "hit": false,
      "t": 196440.41725833347,
      "d": 749.9997750000039,
      "v": 104
    },
    {
      "midi": 60,
      "hit": false,
      "t": 196452.32201666682,
      "d": 916.6663916666585,
      "v": 127
    },
    {
      "midi": 55,
      "hit": false,
      "t": 197202.32179166682,
      "d": 880.9521166666527,
      "v": 91
    },
    {
      "midi": 67,
      "hit": false,
      "t": 197940.41680833348,
      "d": 785.7140500000096,
      "v": 117
    },
    {
      "midi": 60,
      "hit": false,
      "t": 198595.1785166668,
      "d": 2809.522966666671,
      "v": 117
    },
    {
      "midi": 44,
      "hit": false,
      "t": 201761.84423333348,
      "d": 190.47613333334448,
      "v": 43
    },
    {
      "midi": 63,
      "hit": false,
      "t": 202214.22505000015,
      "d": 892.8568750000268,
      "v": 104
    },
    {
      "midi": 44,
      "hit": false,
      "t": 202214.22505000015,
      "d": 1059.5234916667105,
      "v": 127
    },
    {
      "midi": 60,
      "hit": false,
      "t": 202226.1298083335,
      "d": 916.6663916666876,
      "v": 122
    },
    {
      "midi": 56,
      "hit": false,
      "t": 202238.03456666684,
      "d": 940.4759083333483,
      "v": 110
    },
    {
      "midi": 43,
      "hit": false,
      "t": 203261.84378333352,
      "d": 202.38089166668942,
      "v": 104
    },
    {
      "midi": 55,
      "hit": false,
      "t": 203297.55805833352,
      "d": 130.95234166667797,
      "v": 48
    },
    {
      "midi": 43,
      "hit": false,
      "t": 203618.98653333355,
      "d": 976.1901833333541,
      "v": 127
    },
    {
      "midi": 55,
      "hit": false,
      "t": 203630.8912916669,
      "d": 988.0949416666699,
      "v": 117
    },
    {
      "midi": 60,
      "hit": false,
      "t": 203630.8912916669,
      "d": 1119.0472833333188,
      "v": 127
    },
    {
      "midi": 62,
      "hit": false,
      "t": 203642.79605000024,
      "d": 1059.5234916666523,
      "v": 122
    },
    {
      "midi": 44,
      "hit": false,
      "t": 207916.60429166688,
      "d": 1154.7615583333536,
      "v": 91
    },
    {
      "midi": 60,
      "hit": false,
      "t": 207940.41380833354,
      "d": 916.6663916666876,
      "v": 122
    },
    {
      "midi": 63,
      "hit": false,
      "t": 207940.41380833354,
      "d": 1023.8092166666756,
      "v": 91
    },
    {
      "midi": 56,
      "hit": false,
      "t": 207952.3185666669,
      "d": 928.5711500000034,
      "v": 110
    },
    {
      "midi": 43,
      "hit": false,
      "t": 208976.12778333356,
      "d": 261.90468333332683,
      "v": 83
    },
    {
      "midi": 55,
      "hit": false,
      "t": 209368.98480833357,
      "d": 1119.0472833333479,
      "v": 117
    },
    {
      "midi": 60,
      "hit": false,
      "t": 209368.98480833357,
      "d": 1202.3805916666752,
      "v": 127
    },
    {
      "midi": 62,
      "hit": false,
      "t": 209380.8895666669,
      "d": 1214.2853500000201,
      "v": 127
    },
    {
      "midi": 43,
      "hit": false,
      "t": 209404.69908333357,
      "d": 1178.5710750000144,
      "v": 117
    },
    {
      "midi": 43,
      "hit": false,
      "t": 213321.36457500028,
      "d": 214.28565000000526,
      "v": 54
    },
    {
      "midi": 44,
      "hit": false,
      "t": 213642.79305000027,
      "d": 1214.2853500000201,
      "v": 65
    },
    {
      "midi": 56,
      "hit": false,
      "t": 213666.60256666693,
      "d": 928.5711500000034,
      "v": 91
    },
    {
      "midi": 63,
      "hit": false,
      "t": 213666.60256666693,
      "d": 940.4759083333483,
      "v": 76
    },
    {
      "midi": 60,
      "hit": false,
      "t": 213702.31684166694,
      "d": 833.3330833333312,
      "v": 104
    },
    {
      "midi": 43,
      "hit": false,
      "t": 214797.55460833362,
      "d": 214.28565000000526,
      "v": 86
    },
    {
      "midi": 60,
      "hit": false,
      "t": 215142.7926000003,
      "d": 1107.1425249999738,
      "v": 117
    },
    {
      "midi": 43,
      "hit": false,
      "t": 215142.7926000003,
      "d": 1119.0472833333188,
      "v": 113
    },
    {
      "midi": 55,
      "hit": false,
      "t": 215154.69735833365,
      "d": 999.9996999999858,
      "v": 113
    },
    {
      "midi": 62,
      "hit": false,
      "t": 215154.69735833365,
      "d": 1047.6187333333073,
      "v": 113
    },
    {
      "midi": 88,
      "hit": false,
      "t": 242702.30814166696,
      "d": 678.5712249999924,
      "v": 97
    },
    {
      "midi": 89,
      "hit": false,
      "t": 243202.30799166695,
      "d": 321.42847499999334,
      "v": 68
    },
    {
      "midi": 89,
      "hit": false,
      "t": 243773.73639166696,
      "d": 547.6188833333435,
      "v": 97
    },
    {
      "midi": 88,
      "hit": false,
      "t": 244249.9267250003,
      "d": 297.61895833333256,
      "v": 117
    },
    {
      "midi": 88,
      "hit": false,
      "t": 244738.02181666697,
      "d": 321.42847499999334,
      "v": 122
    },
    {
      "midi": 89,
      "hit": false,
      "t": 245166.59311666695,
      "d": 619.0474333333259,
      "v": 117
    },
    {
      "midi": 88,
      "hit": false,
      "t": 245666.59296666694,
      "d": 571.4283999999752,
      "v": 127
    },
    {
      "midi": 84,
      "hit": false,
      "t": 246190.4023333336,
      "d": 535.7141249999986,
      "v": 127
    },
    {
      "midi": 81,
      "hit": false,
      "t": 246738.02121666694,
      "d": 1571.42809999999,
      "v": 86
    },
    {
      "midi": 75,
      "hit": false,
      "t": 248523.73496666693,
      "d": 464.28557499998715,
      "v": 71
    },
    {
      "midi": 79,
      "hit": false,
      "t": 248940.4015083336,
      "d": 476.1903333333321,
      "v": 73
    },
    {
      "midi": 86,
      "hit": false,
      "t": 249285.63950000025,
      "d": 440.47605833335547,
      "v": 88
    },
    {
      "midi": 86,
      "hit": false,
      "t": 249845.16314166694,
      "d": 535.7141249999986,
      "v": 97
    },
    {
      "midi": 84,
      "hit": false,
      "t": 250333.25823333362,
      "d": 714.2854999999981,
      "v": 91
    },
    {
      "midi": 84,
      "hit": false,
      "t": 251202.30559166695,
      "d": 1476.190033333347,
      "v": 8
    },
    {
      "midi": 87,
      "hit": false,
      "t": 254999.9235000003,
      "d": 83.3333083333273,
      "v": 87
    },
    {
      "midi": 88,
      "hit": false,
      "t": 255095.16156666697,
      "d": 380.95226666665985,
      "v": 104
    },
    {
      "midi": 89,
      "hit": false,
      "t": 255511.82810833363,
      "d": 583.3331583333493,
      "v": 81
    },
    {
      "midi": 88,
      "hit": false,
      "t": 256023.73271666697,
      "d": 428.5713000000105,
      "v": 122
    },
    {
      "midi": 89,
      "hit": false,
      "t": 256488.018291667,
      "d": 607.1426750000101,
      "v": 83
    },
    {
      "midi": 88,
      "hit": false,
      "t": 257035.63717500033,
      "d": 476.1903333333321,
      "v": 97
    },
    {
      "midi": 89,
      "hit": false,
      "t": 257535.63702500032,
      "d": 357.14274999999907,
      "v": 79
    },
    {
      "midi": 91,
      "hit": false,
      "t": 257904.68453333367,
      "d": 404.76178333332064,
      "v": 94
    },
    {
      "midi": 93,
      "hit": false,
      "t": 258345.160591667,
      "d": 440.47605833332636,
      "v": 104
    },
    {
      "midi": 93,
      "hit": false,
      "t": 258904.68423333365,
      "d": 357.14274999999907,
      "v": 91
    },
    {
      "midi": 93,
      "hit": false,
      "t": 259416.588841667,
      "d": 1190.4758333333593,
      "v": 83
    },
    {
      "midi": 39,
      "hit": false,
      "t": 259571.35070000033,
      "d": 1452.3805166666862,
      "v": 83
    },
    {
      "midi": 58,
      "hit": false,
      "t": 259595.160216667,
      "d": 1654.7614083333756,
      "v": 76
    },
    {
      "midi": 62,
      "hit": false,
      "t": 259607.06497500034,
      "d": 1607.142375000025,
      "v": 94
    },
    {
      "midi": 55,
      "hit": false,
      "t": 259618.96973333368,
      "d": 1583.332858333335,
      "v": 75
    },
    {
      "midi": 64,
      "hit": false,
      "t": 262249.92132500035,
      "d": 2499.99925000011,
      "v": 127
    },
    {
      "midi": 50,
      "hit": false,
      "t": 262261.8260833337,
      "d": 2440.475458333385,
      "v": 127
    },
    {
      "midi": 55,
      "hit": false,
      "t": 262261.8260833337,
      "d": 2440.475458333385,
      "v": 127
    },
    {
      "midi": 38,
      "hit": false,
      "t": 262273.73084166704,
      "d": 2416.6659416666953,
      "v": 127
    },
    {
      "midi": 60,
      "hit": false,
      "t": 262273.73084166704,
      "d": 2452.38021666673,
      "v": 127
    },
    {
      "midi": 62,
      "hit": false,
      "t": 262285.6356000004,
      "d": 11.904758333344944,
      "v": 122
    },
    {
      "midi": 60,
      "hit": false,
      "t": 264988.0157416671,
      "d": 2416.6659416666953,
      "v": 127
    },
    {
      "midi": 55,
      "hit": false,
      "t": 264988.0157416671,
      "d": 2535.7135250000283,
      "v": 127
    },
    {
      "midi": 64,
      "hit": false,
      "t": 264999.9205000005,
      "d": 2499.9992499999935,
      "v": 127
    },
    {
      "midi": 48,
      "hit": false,
      "t": 264999.9205000005,
      "d": 2523.8087666666834,
      "v": 127
    },
    {
      "midi": 47,
      "hit": false,
      "t": 267904.68153333385,
      "d": 2595.2373166666366,
      "v": 104
    },
    {
      "midi": 55,
      "hit": false,
      "t": 267928.49105000054,
      "d": 2238.0945666666375,
      "v": 117
    },
    {
      "midi": 60,
      "hit": false,
      "t": 267940.3958083339,
      "d": 2130.9517416666495,
      "v": 127
    },
    {
      "midi": 64,
      "hit": false,
      "t": 267940.3958083339,
      "d": 2190.475533333316,
      "v": 122
    },
    {
      "midi": 64,
      "hit": false,
      "t": 270714.20450000046,
      "d": 2392.8564250000054,
      "v": 108
    },
    {
      "midi": 60,
      "hit": false,
      "t": 270714.20450000046,
      "d": 2464.284975000017,
      "v": 117
    },
    {
      "midi": 45,
      "hit": false,
      "t": 270726.1092583338,
      "d": 2107.142225000018,
      "v": 97
    },
    {
      "midi": 55,
      "hit": false,
      "t": 270726.1092583338,
      "d": 2440.475458333327,
      "v": 104
    },
    {
      "midi": 43,
      "hit": false,
      "t": 273642.77505000046,
      "d": 2023.8089166667196,
      "v": 86
    },
    {
      "midi": 60,
      "hit": false,
      "t": 273666.58456666715,
      "d": 1690.4756833333522,
      "v": 94
    },
    {
      "midi": 55,
      "hit": false,
      "t": 273666.58456666715,
      "d": 1761.9042333333637,
      "v": 86
    },
    {
      "midi": 64,
      "hit": false,
      "t": 273678.4893250005,
      "d": 1654.7614083333174,
      "v": 88
    },
    {
      "midi": 60,
      "hit": false,
      "t": 276499.9170500005,
      "d": 2249.9993250000407,
      "v": 117
    },
    {
      "midi": 53,
      "hit": false,
      "t": 276523.7265666672,
      "d": 1880.9518166666967,
      "v": 113
    },
    {
      "midi": 41,
      "hit": false,
      "t": 276523.7265666672,
      "d": 2535.7135250000283,
      "v": 113
    },
    {
      "midi": 57,
      "hit": false,
      "t": 276535.63132500055,
      "d": 2154.7612583333394,
      "v": 122
    },
    {
      "midi": 44,
      "hit": false,
      "t": 279357.05905000056,
      "d": 1321.42817499995,
      "v": 104
    },
    {
      "midi": 51,
      "hit": false,
      "t": 279738.01131666725,
      "d": 511.9046083333087,
      "v": 127
    },
    {
      "midi": 56,
      "hit": false,
      "t": 280095.15406666725,
      "d": 476.1903333332739,
      "v": 104
    },
    {
      "midi": 60,
      "hit": false,
      "t": 280464.20157500054,
      "d": 511.9046083333669,
      "v": 94
    },
    {
      "midi": 43,
      "hit": false,
      "t": 280809.4395666672,
      "d": 785.7140500000678,
      "v": 104
    },
    {
      "midi": 59,
      "hit": false,
      "t": 280833.2490833339,
      "d": 738.095016666688,
      "v": 127
    },
    {
      "midi": 50,
      "hit": false,
      "t": 281226.1061083339,
      "d": 369.047508333344,
      "v": 91
    },
    {
      "midi": 55,
      "hit": false,
      "t": 281559.4393416672,
      "d": 452.3808166667004,
      "v": 108
    },
    {
      "midi": 59,
      "hit": false,
      "t": 281892.7725750006,
      "d": 619.0474333332968,
      "v": 97
    },
    {
      "midi": 36,
      "hit": false,
      "t": 282226.1058083339,
      "d": 2416.6659416666953,
      "v": 97
    },
    {
      "midi": 48,
      "hit": false,
      "t": 282595.15331666725,
      "d": 2440.475458333327,
      "v": 91
    },
    {
      "midi": 55,
      "hit": false,
      "t": 282999.91510000057,
      "d": 821.4283249999862,
      "v": 104
    },
    {
      "midi": 60,
      "hit": false,
      "t": 283345.1530916672,
      "d": 535.7141249999986,
      "v": 127
    },
    {
      "midi": 64,
      "hit": false,
      "t": 283714.20060000056,
      "d": 559.5236416666303,
      "v": 127
    },
    {
      "midi": 60,
      "hit": false,
      "t": 284047.5338333339,
      "d": 238.09516666666605,
      "v": 51
    },
    {
      "midi": 60,
      "hit": false,
      "t": 284428.48610000056,
      "d": 547.6188833333435,
      "v": 117
    },
    {
      "midi": 55,
      "hit": false,
      "t": 284428.48610000056,
      "d": 583.3331583333202,
      "v": 86
    },
    {
      "midi": 67,
      "hit": false,
      "t": 284440.3908583339,
      "d": 571.4283999999752,
      "v": 127
    },
    {
      "midi": 46,
      "hit": false,
      "t": 285083.2478083339,
      "d": 380.95226666668896,
      "v": 76
    },
    {
      "midi": 55,
      "hit": false,
      "t": 285107.0573250006,
      "d": 142.8571000000229,
      "v": 81
    },
    {
      "midi": 60,
      "hit": false,
      "t": 285118.9620833339,
      "d": 1095.2377666666289,
      "v": 122
    },
    {
      "midi": 67,
      "hit": false,
      "t": 285118.9620833339,
      "d": 1523.8090666665812,
      "v": 122
    },
    {
      "midi": 47,
      "hit": false,
      "t": 285642.7714500006,
      "d": 1678.570924999949,
      "v": 73
    },
    {
      "midi": 55,
      "hit": false,
      "t": 286059.43799166725,
      "d": 726.1902583332849,
      "v": 47
    },
    {
      "midi": 60,
      "hit": false,
      "t": 286547.53308333387,
      "d": 1023.8092166666756,
      "v": 122
    },
    {
      "midi": 55,
      "hit": false,
      "t": 287249.9138250005,
      "d": 845.2378416667343,
      "v": 113
    },
    {
      "midi": 45,
      "hit": false,
      "t": 287892.77077500056,
      "d": 2666.665866666648,
      "v": 86
    },
    {
      "midi": 55,
      "hit": false,
      "t": 288618.9610333339,
      "d": 845.2378416666761,
      "v": 83
    },
    {
      "midi": 57,
      "hit": false,
      "t": 289380.8655666672,
      "d": 749.9997749999748,
      "v": 108
    },
    {
      "midi": 60,
      "hit": false,
      "t": 290035.62727500056,
      "d": 595.2379166666651,
      "v": 127
    },
    {
      "midi": 43,
      "hit": false,
      "t": 290761.8175333339,
      "d": 2238.0945666666375,
      "v": 83
    },
    {
      "midi": 62,
      "hit": false,
      "t": 290809.4365666672,
      "d": 833.3330833333312,
      "v": 127
    },
    {
      "midi": 60,
      "hit": false,
      "t": 291547.5315833339,
      "d": 1345.2376916666399,
      "v": 94
    },
    {
      "midi": 55,
      "hit": false,
      "t": 292309.43611666723,
      "d": 71.42855000001146,
      "v": 54
    },
    {
      "midi": 53,
      "hit": false,
      "t": 292928.4835500005,
      "d": 761.9045333333197,
      "v": 104
    },
    {
      "midi": 41,
      "hit": false,
      "t": 293630.8642916672,
      "d": 2321.427874999994,
      "v": 88
    },
    {
      "midi": 53,
      "hit": false,
      "t": 294380.86406666716,
      "d": 1202.3805916666752,
      "v": 67
    },
    {
      "midi": 44,
      "hit": false,
      "t": 296035.62547500053,
      "d": 166.6666166666546,
      "v": 57
    },
    {
      "midi": 51,
      "hit": false,
      "t": 296464.19677500054,
      "d": 452.3808166667004,
      "v": 110
    },
    {
      "midi": 60,
      "hit": false,
      "t": 296476.1015333339,
      "d": 988.0949416666408,
      "v": 127
    },
    {
      "midi": 44,
      "hit": false,
      "t": 296488.00629166723,
      "d": 761.9045333333197,
      "v": 127
    },
    {
      "midi": 56,
      "hit": false,
      "t": 296488.00629166723,
      "d": 1071.428249999939,
      "v": 110
    },
    {
      "midi": 51,
      "hit": false,
      "t": 297083.2442083339,
      "d": 154.76185833330965,
      "v": 61
    },
    {
      "midi": 51,
      "hit": false,
      "t": 297416.5774416672,
      "d": 226.1904083333211,
      "v": 65
    },
    {
      "midi": 44,
      "hit": false,
      "t": 297452.2917166672,
      "d": 261.90468333335593,
      "v": 91
    },
    {
      "midi": 43,
      "hit": false,
      "t": 297880.8630166672,
      "d": 1226.190108333365,
      "v": 108
    },
    {
      "midi": 58,
      "hit": false,
      "t": 297904.6725333339,
      "d": 35.71427500003483,
      "v": 39
    },
    {
      "midi": 55,
      "hit": false,
      "t": 297904.6725333339,
      "d": 1130.9520416666637,
      "v": 117
    },
    {
      "midi": 59,
      "hit": false,
      "t": 297904.6725333339,
      "d": 1154.7615583333536,
      "v": 117
    },
    {
      "midi": 50,
      "hit": false,
      "t": 297916.5772916672,
      "d": 1083.3330083333421,
      "v": 113
    },
    {
      "midi": 67,
      "hit": false,
      "t": 467249.8598250005,
      "d": 511.9046083333669,
      "v": 57
    },
    {
      "midi": 76,
      "hit": false,
      "t": 467416.52644166717,
      "d": 333.3332333333674,
      "v": 1
    },
    {
      "midi": 72,
      "hit": false,
      "t": 467487.9549916672,
      "d": 261.90468333335593,
      "v": 1
    },
    {
      "midi": 72,
      "hit": false,
      "t": 467916.5262916672,
      "d": 702.3807416666532,
      "v": 83
    },
    {
      "midi": 67,
      "hit": false,
      "t": 467952.24056666717,
      "d": 1119.0472833333188,
      "v": 67
    },
    {
      "midi": 74,
      "hit": false,
      "t": 467999.8596000005,
      "d": 1035.7139750000206,
      "v": 63
    },
    {
      "midi": 74,
      "hit": false,
      "t": 469380.81156666717,
      "d": 857.142600000021,
      "v": 97
    },
    {
      "midi": 67,
      "hit": false,
      "t": 469380.81156666717,
      "d": 1178.5710750000435,
      "v": 75
    },
    {
      "midi": 76,
      "hit": false,
      "t": 470047.47803333384,
      "d": 821.4283250000444,
      "v": 81
    },
    {
      "midi": 67,
      "hit": false,
      "t": 470773.6682916672,
      "d": 1571.4281000000192,
      "v": 68
    },
    {
      "midi": 72,
      "hit": false,
      "t": 470797.4778083339,
      "d": 1940.475608333305,
      "v": 101
    },
    {
      "midi": 67,
      "hit": false,
      "t": 472928.4295500005,
      "d": 345.2379916666541,
      "v": 35
    },
    {
      "midi": 72,
      "hit": false,
      "t": 473571.2865000005,
      "d": 880.9521166667109,
      "v": 94
    },
    {
      "midi": 76,
      "hit": false,
      "t": 473583.19125833386,
      "d": 1297.6186583333765,
      "v": 88
    },
    {
      "midi": 65,
      "hit": false,
      "t": 474321.28627500054,
      "d": 928.5711500000325,
      "v": 51
    },
    {
      "midi": 76,
      "hit": false,
      "t": 475047.4765333339,
      "d": 642.8569500000449,
      "v": 73
    },
    {
      "midi": 72,
      "hit": false,
      "t": 475059.38129166723,
      "d": 809.5235666666995,
      "v": 88
    },
    {
      "midi": 65,
      "hit": false,
      "t": 475785.5715500006,
      "d": 654.7617083333316,
      "v": 63
    },
    {
      "midi": 53,
      "hit": false,
      "t": 476499.8570500006,
      "d": 1821.428024999972,
      "v": 91
    },
    {
      "midi": 65,
      "hit": false,
      "t": 477249.85682500055,
      "d": 1071.4282499999972,
      "v": 79
    },
    {
      "midi": 69,
      "hit": false,
      "t": 477916.5232916672,
      "d": 702.3807416666532,
      "v": 122
    },
    {
      "midi": 72,
      "hit": false,
      "t": 477928.42805000057,
      "d": 749.9997749999748,
      "v": 108
    },
    {
      "midi": 65,
      "hit": false,
      "t": 478559.3802416672,
      "d": 202.38089166668942,
      "v": 71
    },
    {
      "midi": 53,
      "hit": false,
      "t": 478630.8087916672,
      "d": 464.28557499998715,
      "v": 77
    },
    {
      "midi": 72,
      "hit": false,
      "t": 479261.76098333386,
      "d": 999.9996999999858,
      "v": 122
    },
    {
      "midi": 68,
      "hit": false,
      "t": 479261.76098333386,
      "d": 1273.8091416666284,
      "v": 91
    },
    {
      "midi": 63,
      "hit": false,
      "t": 479273.6657416672,
      "d": 416.6665416666656,
      "v": 100
    },
    {
      "midi": 56,
      "hit": false,
      "t": 479297.4752583339,
      "d": 1023.8092166666174,
      "v": 104
    },
    {
      "midi": 63,
      "hit": false,
      "t": 480023.6655166672,
      "d": 357.14274999999907,
      "v": 61
    },
    {
      "midi": 55,
      "hit": false,
      "t": 480642.7129500005,
      "d": 595.2379166666651,
      "v": 66
    },
    {
      "midi": 71,
      "hit": false,
      "t": 480737.9510166671,
      "d": 749.999775000033,
      "v": 94
    },
    {
      "midi": 67,
      "hit": false,
      "t": 480749.85577500047,
      "d": 785.7140500000096,
      "v": 101
    },
    {
      "midi": 62,
      "hit": false,
      "t": 480773.66529166716,
      "d": 928.5711499999743,
      "v": 88
    },
    {
      "midi": 53,
      "hit": false,
      "t": 483142.7122000005,
      "d": 214.28564999997616,
      "v": 63
    },
    {
      "midi": 55,
      "hit": false,
      "t": 483142.7122000005,
      "d": 988.0949416666408,
      "v": 61
    },
    {
      "midi": 60,
      "hit": false,
      "t": 483618.9025333338,
      "d": 833.3330833333312,
      "v": 101
    },
    {
      "midi": 64,
      "hit": false,
      "t": 483618.9025333338,
      "d": 880.9521166666527,
      "v": 91
    },
    {
      "midi": 55,
      "hit": false,
      "t": 484333.1880333338,
      "d": 904.7616333332844,
      "v": 83
    },
    {
      "midi": 60,
      "hit": false,
      "t": 485011.75925833377,
      "d": 1583.332858333306,
      "v": 94
    },
    {
      "midi": 64,
      "hit": false,
      "t": 485023.6640166671,
      "d": 1321.42817499995,
      "v": 94
    },
    {
      "midi": 55,
      "hit": false,
      "t": 485761.75903333374,
      "d": 1595.2376166666509,
      "v": 73
    },
    {
      "midi": 67,
      "hit": false,
      "t": 486476.04453333374,
      "d": 2297.618358333304,
      "v": 104
    },
    {
      "midi": 60,
      "hit": false,
      "t": 487202.2347916671,
      "d": 1630.9518916666275,
      "v": 101
    },
    {
      "midi": 55,
      "hit": false,
      "t": 488654.6153083337,
      "d": 2488.0944916667067,
      "v": 117
    },
    {
      "midi": 60,
      "hit": false,
      "t": 489356.99605000037,
      "d": 857.142600000021,
      "v": 94
    },
    {
      "midi": 62,
      "hit": false,
      "t": 490023.66251666704,
      "d": 797.6188083333545,
      "v": 117
    },
    {
      "midi": 64,
      "hit": false,
      "t": 490726.0432583337,
      "d": 749.999775000033,
      "v": 104
    },
    {
      "midi": 60,
      "hit": false,
      "t": 490737.94801666704,
      "d": 916.6663916666876,
      "v": 127
    },
    {
      "midi": 55,
      "hit": false,
      "t": 491487.9477916671,
      "d": 880.9521166666527,
      "v": 91
    },
    {
      "midi": 67,
      "hit": false,
      "t": 492226.0428083337,
      "d": 785.7140500000096,
      "v": 117
    },
    {
      "midi": 60,
      "hit": false,
      "t": 492880.80451666703,
      "d": 2809.522966666671,
      "v": 117
    },
    {
      "midi": 44,
      "hit": false,
      "t": 496047.4702333337,
      "d": 190.47613333334448,
      "v": 43
    },
    {
      "midi": 63,
      "hit": false,
      "t": 496499.8510500004,
      "d": 892.8568749999977,
      "v": 104
    },
    {
      "midi": 44,
      "hit": false,
      "t": 496499.8510500004,
      "d": 1059.5234916666523,
      "v": 127
    },
    {
      "midi": 60,
      "hit": false,
      "t": 496511.75580833375,
      "d": 916.6663916666294,
      "v": 122
    },
    {
      "midi": 56,
      "hit": false,
      "t": 496523.6605666671,
      "d": 940.475908333261,
      "v": 110
    },
    {
      "midi": 43,
      "hit": false,
      "t": 497547.4697833337,
      "d": 202.38089166668942,
      "v": 104
    },
    {
      "midi": 55,
      "hit": false,
      "t": 497583.18405833375,
      "d": 130.95234166667797,
      "v": 48
    },
    {
      "midi": 43,
      "hit": false,
      "t": 497904.6125333337,
      "d": 976.1901833333541,
      "v": 127
    },
    {
      "midi": 55,
      "hit": false,
      "t": 497916.51729166706,
      "d": 988.094941666699,
      "v": 117
    },
    {
      "midi": 60,
      "hit": false,
      "t": 497916.51729166706,
      "d": 1119.047283333377,
      "v": 127
    },
    {
      "midi": 62,
      "hit": false,
      "t": 497928.4220500004,
      "d": 1059.5234916667105,
      "v": 122
    },
    {
      "midi": 67,
      "hit": false,
      "t": 501535.5638250004,
      "d": 511.9046083333669,
      "v": 57
    },
    {
      "midi": 76,
      "hit": false,
      "t": 501702.2304416671,
      "d": 333.3332333333674,
      "v": 1
    },
    {
      "midi": 72,
      "hit": false,
      "t": 501773.6589916671,
      "d": 261.90468333335593,
      "v": 1
    },
    {
      "midi": 72,
      "hit": false,
      "t": 502202.2302916671,
      "d": 702.3807416666532,
      "v": 83
    },
    {
      "midi": 67,
      "hit": false,
      "t": 502237.9445666671,
      "d": 1119.0472833333188,
      "v": 67
    },
    {
      "midi": 74,
      "hit": false,
      "t": 502285.5636000004,
      "d": 1035.7139750000206,
      "v": 63
    },
    {
      "midi": 74,
      "hit": false,
      "t": 503666.5155666671,
      "d": 857.142600000021,
      "v": 97
    },
    {
      "midi": 67,
      "hit": false,
      "t": 503666.5155666671,
      "d": 1178.5710750000435,
      "v": 75
    },
    {
      "midi": 76,
      "hit": false,
      "t": 504333.18203333375,
      "d": 821.4283250000444,
      "v": 81
    },
    {
      "midi": 67,
      "hit": false,
      "t": 505059.3722916671,
      "d": 1571.4281000000192,
      "v": 68
    },
    {
      "midi": 72,
      "hit": false,
      "t": 505083.1818083338,
      "d": 1940.475608333305,
      "v": 101
    },
    {
      "midi": 67,
      "hit": false,
      "t": 507214.13355000044,
      "d": 345.2379916666541,
      "v": 35
    },
    {
      "midi": 72,
      "hit": false,
      "t": 507856.9905000004,
      "d": 880.9521166667109,
      "v": 94
    },
    {
      "midi": 76,
      "hit": false,
      "t": 507868.89525833377,
      "d": 1297.6186583333765,
      "v": 88
    },
    {
      "midi": 65,
      "hit": false,
      "t": 508606.99027500045,
      "d": 928.5711500000325,
      "v": 51
    },
    {
      "midi": 76,
      "hit": false,
      "t": 509333.1805333338,
      "d": 642.8569500000449,
      "v": 73
    },
    {
      "midi": 72,
      "hit": false,
      "t": 509345.08529166714,
      "d": 809.5235666666995,
      "v": 88
    },
    {
      "midi": 65,
      "hit": false,
      "t": 510071.2755500005,
      "d": 654.7617083333316,
      "v": 63
    },
    {
      "midi": 53,
      "hit": false,
      "t": 510785.5610500005,
      "d": 1821.428024999972,
      "v": 91
    },
    {
      "midi": 65,
      "hit": false,
      "t": 511535.56082500046,
      "d": 1071.4282499999972,
      "v": 79
    },
    {
      "midi": 69,
      "hit": false,
      "t": 512202.22729166714,
      "d": 702.3807416666532,
      "v": 122
    },
    {
      "midi": 72,
      "hit": false,
      "t": 512214.1320500005,
      "d": 749.9997749999748,
      "v": 108
    },
    {
      "midi": 65,
      "hit": false,
      "t": 512845.0842416671,
      "d": 202.38089166668942,
      "v": 71
    },
    {
      "midi": 53,
      "hit": false,
      "t": 512916.51279166713,
      "d": 464.28557499998715,
      "v": 77
    },
    {
      "midi": 72,
      "hit": false,
      "t": 513547.4649833338,
      "d": 999.9996999999858,
      "v": 122
    },
    {
      "midi": 68,
      "hit": false,
      "t": 513547.4649833338,
      "d": 1273.8091416666284,
      "v": 91
    },
    {
      "midi": 63,
      "hit": false,
      "t": 513559.3697416671,
      "d": 416.6665416666656,
      "v": 100
    },
    {
      "midi": 56,
      "hit": false,
      "t": 513583.1792583338,
      "d": 1023.8092166666174,
      "v": 104
    },
    {
      "midi": 63,
      "hit": false,
      "t": 514309.3695166671,
      "d": 357.14274999999907,
      "v": 61
    },
    {
      "midi": 55,
      "hit": false,
      "t": 514928.4169500004,
      "d": 595.2379166666651,
      "v": 66
    },
    {
      "midi": 71,
      "hit": false,
      "t": 515023.65501666703,
      "d": 749.999775000033,
      "v": 94
    },
    {
      "midi": 67,
      "hit": false,
      "t": 515035.5597750004,
      "d": 785.7140500000096,
      "v": 101
    },
    {
      "midi": 62,
      "hit": false,
      "t": 515059.36929166707,
      "d": 928.5711499999743,
      "v": 88
    },
    {
      "midi": 44,
      "hit": false,
      "t": 519345.08229166706,
      "d": 1154.7615583334118,
      "v": 91
    },
    {
      "midi": 60,
      "hit": false,
      "t": 519368.89180833375,
      "d": 916.6663916666876,
      "v": 122
    },
    {
      "midi": 63,
      "hit": false,
      "t": 519368.89180833375,
      "d": 1023.8092166667338,
      "v": 91
    },
    {
      "midi": 56,
      "hit": false,
      "t": 519380.7965666671,
      "d": 928.5711500000325,
      "v": 110
    },
    {
      "midi": 43,
      "hit": false,
      "t": 520404.6057833338,
      "d": 261.9046833332977,
      "v": 83
    },
    {
      "midi": 55,
      "hit": false,
      "t": 520797.4628083338,
      "d": 1119.047283333377,
      "v": 117
    },
    {
      "midi": 60,
      "hit": false,
      "t": 520797.4628083338,
      "d": 1202.3805916667334,
      "v": 127
    },
    {
      "midi": 62,
      "hit": false,
      "t": 520809.36756666715,
      "d": 1214.2853500000783,
      "v": 127
    },
    {
      "midi": 43,
      "hit": false,
      "t": 520833.17708333384,
      "d": 1178.5710750000435,
      "v": 117
    },
    {
      "midi": 43,
      "hit": false,
      "t": 524749.8425750006,
      "d": 214.28564999997616,
      "v": 54
    },
    {
      "midi": 44,
      "hit": false,
      "t": 525071.2710500006,
      "d": 1214.2853500001365,
      "v": 65
    },
    {
      "midi": 56,
      "hit": false,
      "t": 525095.0805666673,
      "d": 928.5711500000907,
      "v": 91
    },
    {
      "midi": 63,
      "hit": false,
      "t": 525095.0805666673,
      "d": 940.4759083334357,
      "v": 76
    },
    {
      "midi": 60,
      "hit": false,
      "t": 525130.7948416673,
      "d": 833.3330833333312,
      "v": 104
    },
    {
      "midi": 43,
      "hit": false,
      "t": 526226.032608334,
      "d": 214.28565000009257,
      "v": 86
    },
    {
      "midi": 60,
      "hit": false,
      "t": 526571.2706000007,
      "d": 1107.1425250001485,
      "v": 117
    },
    {
      "midi": 43,
      "hit": false,
      "t": 526571.2706000007,
      "d": 1119.0472833334934,
      "v": 113
    },
    {
      "midi": 55,
      "hit": false,
      "t": 526583.1753583341,
      "d": 999.999700000044,
      "v": 113
    },
    {
      "midi": 62,
      "hit": false,
      "t": 526583.1753583341,
      "d": 1047.6187333334237,
      "v": 113
    },
    {
      "midi": 67,
      "hit": false,
      "t": 532964.1258250009,
      "d": 511.9046083333669,
      "v": 57
    },
    {
      "midi": 76,
      "hit": false,
      "t": 533130.7924416676,
      "d": 333.3332333333092,
      "v": 1
    },
    {
      "midi": 72,
      "hit": false,
      "t": 533202.2209916676,
      "d": 261.90468333335593,
      "v": 1
    },
    {
      "midi": 72,
      "hit": false,
      "t": 533630.7922916677,
      "d": 702.3807416667696,
      "v": 83
    },
    {
      "midi": 67,
      "hit": false,
      "t": 533666.5065666677,
      "d": 1119.0472833334934,
      "v": 67
    },
    {
      "midi": 74,
      "hit": false,
      "t": 533714.1256000011,
      "d": 1035.7139750000788,
      "v": 63
    },
    {
      "midi": 74,
      "hit": false,
      "t": 535095.0775666678,
      "d": 857.1425999999046,
      "v": 97
    },
    {
      "midi": 67,
      "hit": false,
      "t": 535095.0775666678,
      "d": 1178.5710749998689,
      "v": 75
    },
    {
      "midi": 76,
      "hit": false,
      "t": 535761.7440333344,
      "d": 821.4283249998698,
      "v": 81
    },
    {
      "midi": 67,
      "hit": false,
      "t": 536487.9342916677,
      "d": 1571.4281000000192,
      "v": 68
    },
    {
      "midi": 72,
      "hit": false,
      "t": 536511.7438083343,
      "d": 1940.4756083333632,
      "v": 101
    },
    {
      "midi": 67,
      "hit": false,
      "t": 538642.695550001,
      "d": 345.2379916666541,
      "v": 35
    },
    {
      "midi": 72,
      "hit": false,
      "t": 539285.552500001,
      "d": 880.9521166667109,
      "v": 94
    },
    {
      "midi": 76,
      "hit": false,
      "t": 539297.4572583344,
      "d": 1297.6186583333183,
      "v": 88
    },
    {
      "midi": 65,
      "hit": false,
      "t": 540035.5522750011,
      "d": 928.5711499999743,
      "v": 51
    },
    {
      "midi": 76,
      "hit": false,
      "t": 540761.7425333344,
      "d": 642.8569499999285,
      "v": 73
    },
    {
      "midi": 72,
      "hit": false,
      "t": 540773.6472916678,
      "d": 809.5235666665249,
      "v": 88
    },
    {
      "midi": 65,
      "hit": false,
      "t": 541499.837550001,
      "d": 654.7617083332734,
      "v": 63
    },
    {
      "midi": 53,
      "hit": false,
      "t": 542214.123050001,
      "d": 1821.4280250000302,
      "v": 91
    },
    {
      "midi": 65,
      "hit": false,
      "t": 542964.122825001,
      "d": 1071.4282499999972,
      "v": 79
    },
    {
      "midi": 69,
      "hit": false,
      "t": 543630.7892916676,
      "d": 702.3807416667696,
      "v": 122
    },
    {
      "midi": 72,
      "hit": false,
      "t": 543642.694050001,
      "d": 749.9997750001494,
      "v": 108
    },
    {
      "midi": 65,
      "hit": false,
      "t": 544273.6462416677,
      "d": 202.38089166674763,
      "v": 71
    },
    {
      "midi": 53,
      "hit": false,
      "t": 544345.0747916678,
      "d": 464.28557499998715,
      "v": 77
    },
    {
      "midi": 72,
      "hit": false,
      "t": 544976.0269833345,
      "d": 999.999700000044,
      "v": 122
    },
    {
      "midi": 68,
      "hit": false,
      "t": 544976.0269833345,
      "d": 1273.8091416668613,
      "v": 91
    },
    {
      "midi": 63,
      "hit": false,
      "t": 544987.9317416678,
      "d": 416.6665416667238,
      "v": 100
    },
    {
      "midi": 56,
      "hit": false,
      "t": 545011.7412583345,
      "d": 1023.8092166667338,
      "v": 104
    },
    {
      "midi": 63,
      "hit": false,
      "t": 545737.9315166678,
      "d": 357.1427500001155,
      "v": 61
    },
    {
      "midi": 55,
      "hit": false,
      "t": 546356.9789500013,
      "d": 595.2379166666651,
      "v": 66
    },
    {
      "midi": 71,
      "hit": false,
      "t": 546452.217016668,
      "d": 749.999775000033,
      "v": 94
    },
    {
      "midi": 67,
      "hit": false,
      "t": 546464.1217750013,
      "d": 785.7140500000678,
      "v": 101
    },
    {
      "midi": 62,
      "hit": false,
      "t": 546487.931291668,
      "d": 928.5711500000907,
      "v": 88
    },
    {
      "midi": 53,
      "hit": false,
      "t": 548856.9782000014,
      "d": 214.28564999997616,
      "v": 63
    },
    {
      "midi": 55,
      "hit": false,
      "t": 548856.9782000014,
      "d": 988.094941666699,
      "v": 61
    },
    {
      "midi": 60,
      "hit": false,
      "t": 549333.1685333347,
      "d": 833.3330833333312,
      "v": 101
    },
    {
      "midi": 64,
      "hit": false,
      "t": 549333.1685333347,
      "d": 880.9521166667109,
      "v": 91
    },
    {
      "midi": 55,
      "hit": false,
      "t": 550047.4540333347,
      "d": 904.7616333334008,
      "v": 83
    },
    {
      "midi": 60,
      "hit": false,
      "t": 550726.0252583348,
      "d": 1583.3328583333641,
      "v": 94
    },
    {
      "midi": 64,
      "hit": false,
      "t": 550737.9300166682,
      "d": 1321.4281750000082,
      "v": 94
    },
    {
      "midi": 55,
      "hit": false,
      "t": 551476.0250333349,
      "d": 1595.237616666709,
      "v": 73
    },
    {
      "midi": 67,
      "hit": false,
      "t": 552190.3105333349,
      "d": 2297.6183583333623,
      "v": 104
    },
    {
      "midi": 60,
      "hit": false,
      "t": 552916.5007916682,
      "d": 1630.951891666744,
      "v": 101
    },
    {
      "midi": 55,
      "hit": false,
      "t": 554368.8813083349,
      "d": 2488.0944916666485,
      "v": 117
    },
    {
      "midi": 60,
      "hit": false,
      "t": 555071.2620500016,
      "d": 857.1425999999046,
      "v": 94
    },
    {
      "midi": 62,
      "hit": false,
      "t": 555737.9285166683,
      "d": 797.6188083332963,
      "v": 117
    },
    {
      "midi": 64,
      "hit": false,
      "t": 556440.3092583349,
      "d": 749.9997749999166,
      "v": 104
    },
    {
      "midi": 60,
      "hit": false,
      "t": 556452.2140166683,
      "d": 916.6663916666294,
      "v": 127
    },
    {
      "midi": 55,
      "hit": false,
      "t": 557202.2137916682,
      "d": 880.9521166667109,
      "v": 91
    },
    {
      "midi": 67,
      "hit": false,
      "t": 557940.3088083349,
      "d": 785.7140500000678,
      "v": 117
    },
    {
      "midi": 60,
      "hit": false,
      "t": 558595.0705166683,
      "d": 2809.522966666729,
      "v": 117
    },
    {
      "midi": 44,
      "hit": false,
      "t": 561761.736233335,
      "d": 190.47613333328627,
      "v": 43
    },
    {
      "midi": 63,
      "hit": false,
      "t": 562214.1170500016,
      "d": 892.8568750000559,
      "v": 104
    },
    {
      "midi": 44,
      "hit": false,
      "t": 562214.1170500016,
      "d": 1059.5234916667687,
      "v": 127
    },
    {
      "midi": 60,
      "hit": false,
      "t": 562226.021808335,
      "d": 916.6663916667458,
      "v": 122
    },
    {
      "midi": 56,
      "hit": false,
      "t": 562237.9265666683,
      "d": 940.4759083334357,
      "v": 110
    },
    {
      "midi": 43,
      "hit": false,
      "t": 563261.735783335,
      "d": 202.38089166674763,
      "v": 104
    },
    {
      "midi": 55,
      "hit": false,
      "t": 563297.4500583351,
      "d": 130.95234166667797,
      "v": 48
    },
    {
      "midi": 43,
      "hit": false,
      "t": 563618.8785333352,
      "d": 976.1901833333541,
      "v": 127
    },
    {
      "midi": 55,
      "hit": false,
      "t": 563630.7832916685,
      "d": 988.094941666699,
      "v": 117
    },
    {
      "midi": 60,
      "hit": false,
      "t": 563630.7832916685,
      "d": 1119.047283333377,
      "v": 127
    },
    {
      "midi": 62,
      "hit": false,
      "t": 563642.6880500019,
      "d": 1059.5234916666523,
      "v": 122
    },
    {
      "midi": 44,
      "hit": false,
      "t": 567916.4962916685,
      "d": 1154.7615583332954,
      "v": 91
    },
    {
      "midi": 60,
      "hit": false,
      "t": 567940.3058083352,
      "d": 916.6663916666294,
      "v": 122
    },
    {
      "midi": 63,
      "hit": false,
      "t": 567940.3058083352,
      "d": 1023.8092166666174,
      "v": 91
    },
    {
      "midi": 56,
      "hit": false,
      "t": 567952.2105666685,
      "d": 928.5711499999743,
      "v": 110
    },
    {
      "midi": 43,
      "hit": false,
      "t": 568976.0197833352,
      "d": 261.90468333335593,
      "v": 83
    },
    {
      "midi": 55,
      "hit": false,
      "t": 569368.8768083352,
      "d": 1119.047283333377,
      "v": 117
    },
    {
      "midi": 60,
      "hit": false,
      "t": 569368.8768083352,
      "d": 1202.3805916666752,
      "v": 127
    },
    {
      "midi": 62,
      "hit": false,
      "t": 569380.7815666685,
      "d": 1214.2853500000201,
      "v": 127
    },
    {
      "midi": 43,
      "hit": false,
      "t": 569404.5910833352,
      "d": 1178.5710749999853,
      "v": 117
    },
    {
      "midi": 43,
      "hit": false,
      "t": 573321.2565750019,
      "d": 214.28564999997616,
      "v": 54
    },
    {
      "midi": 44,
      "hit": false,
      "t": 573642.6850500018,
      "d": 1214.2853500001365,
      "v": 65
    },
    {
      "midi": 56,
      "hit": false,
      "t": 573666.4945666685,
      "d": 928.5711500000907,
      "v": 91
    },
    {
      "midi": 63,
      "hit": false,
      "t": 573666.4945666685,
      "d": 940.4759083334357,
      "v": 76
    },
    {
      "midi": 60,
      "hit": false,
      "t": 573702.2088416686,
      "d": 833.3330833333312,
      "v": 104
    },
    {
      "midi": 43,
      "hit": false,
      "t": 574797.4466083352,
      "d": 214.28565000009257,
      "v": 86
    },
    {
      "midi": 60,
      "hit": false,
      "t": 575142.684600002,
      "d": 1107.1425250001485,
      "v": 117
    },
    {
      "midi": 43,
      "hit": false,
      "t": 575142.684600002,
      "d": 1119.0472833334934,
      "v": 113
    },
    {
      "midi": 55,
      "hit": false,
      "t": 575154.5893583354,
      "d": 999.999700000044,
      "v": 113
    },
    {
      "midi": 62,
      "hit": false,
      "t": 575154.5893583354,
      "d": 1047.6187333334237,
      "v": 113
    },
    {
      "midi": 67,
      "hit": false,
      "t": 581535.5398250022,
      "d": 511.9046083333669,
      "v": 57
    },
    {
      "midi": 76,
      "hit": false,
      "t": 581702.2064416689,
      "d": 333.3332333333092,
      "v": 1
    },
    {
      "midi": 72,
      "hit": false,
      "t": 581773.6349916689,
      "d": 261.90468333335593,
      "v": 1
    },
    {
      "midi": 72,
      "hit": false,
      "t": 582202.2062916689,
      "d": 702.3807416667696,
      "v": 83
    },
    {
      "midi": 67,
      "hit": false,
      "t": 582237.920566669,
      "d": 1119.0472833334934,
      "v": 67
    },
    {
      "midi": 74,
      "hit": false,
      "t": 582285.5396000023,
      "d": 1035.7139750000788,
      "v": 63
    },
    {
      "midi": 74,
      "hit": false,
      "t": 583666.4915666691,
      "d": 857.1425999999046,
      "v": 97
    },
    {
      "midi": 67,
      "hit": false,
      "t": 583666.4915666691,
      "d": 1178.5710749998689,
      "v": 75
    },
    {
      "midi": 76,
      "hit": false,
      "t": 584333.1580333357,
      "d": 821.4283249998698,
      "v": 81
    },
    {
      "midi": 67,
      "hit": false,
      "t": 585059.3482916689,
      "d": 1571.4281000000192,
      "v": 68
    },
    {
      "midi": 72,
      "hit": false,
      "t": 585083.1578083356,
      "d": 1940.4756083333632,
      "v": 101
    },
    {
      "midi": 67,
      "hit": false,
      "t": 587214.1095500023,
      "d": 345.2379916666541,
      "v": 35
    },
    {
      "midi": 72,
      "hit": false,
      "t": 587856.9665000023,
      "d": 880.9521166667109,
      "v": 94
    },
    {
      "midi": 76,
      "hit": false,
      "t": 587868.8712583357,
      "d": 1297.6186583333183,
      "v": 88
    },
    {
      "midi": 65,
      "hit": false,
      "t": 588606.9662750023,
      "d": 928.5711499999743,
      "v": 51
    },
    {
      "midi": 76,
      "hit": false,
      "t": 589333.1565333357,
      "d": 642.8569499999285,
      "v": 73
    },
    {
      "midi": 72,
      "hit": false,
      "t": 589345.061291669,
      "d": 809.5235666665249,
      "v": 88
    },
    {
      "midi": 65,
      "hit": false,
      "t": 590071.2515500023,
      "d": 654.7617083332734,
      "v": 63
    },
    {
      "midi": 53,
      "hit": false,
      "t": 590785.5370500023,
      "d": 1821.4280250000302,
      "v": 91
    },
    {
      "midi": 65,
      "hit": false,
      "t": 591535.5368250023,
      "d": 1071.4282499999972,
      "v": 79
    },
    {
      "midi": 69,
      "hit": false,
      "t": 592202.2032916689,
      "d": 702.3807416667696,
      "v": 122
    },
    {
      "midi": 72,
      "hit": false,
      "t": 592214.1080500023,
      "d": 749.9997750001494,
      "v": 108
    },
    {
      "midi": 65,
      "hit": false,
      "t": 592845.060241669,
      "d": 202.38089166674763,
      "v": 71
    },
    {
      "midi": 53,
      "hit": false,
      "t": 592916.488791669,
      "d": 464.28557499998715,
      "v": 77
    },
    {
      "midi": 72,
      "hit": false,
      "t": 593547.4409833357,
      "d": 999.999700000044,
      "v": 122
    },
    {
      "midi": 68,
      "hit": false,
      "t": 593547.4409833357,
      "d": 1273.8091416668613,
      "v": 91
    },
    {
      "midi": 63,
      "hit": false,
      "t": 593559.3457416691,
      "d": 416.6665416667238,
      "v": 100
    },
    {
      "midi": 56,
      "hit": false,
      "t": 593583.1552583358,
      "d": 1023.8092166667338,
      "v": 104
    },
    {
      "midi": 63,
      "hit": false,
      "t": 594309.3455166691,
      "d": 357.1427500001155,
      "v": 61
    },
    {
      "midi": 55,
      "hit": false,
      "t": 594928.3929500026,
      "d": 595.2379166666651,
      "v": 66
    },
    {
      "midi": 71,
      "hit": false,
      "t": 595023.6310166692,
      "d": 749.999775000033,
      "v": 94
    },
    {
      "midi": 67,
      "hit": false,
      "t": 595035.5357750026,
      "d": 785.7140500000678,
      "v": 101
    },
    {
      "midi": 62,
      "hit": false,
      "t": 595059.3452916692,
      "d": 928.5711500000907,
      "v": 88
    },
    {
      "midi": 53,
      "hit": false,
      "t": 597428.3922000027,
      "d": 214.28564999997616,
      "v": 63
    },
    {
      "midi": 55,
      "hit": false,
      "t": 597428.3922000027,
      "d": 988.094941666699,
      "v": 61
    },
    {
      "midi": 60,
      "hit": false,
      "t": 597904.582533336,
      "d": 833.3330833333312,
      "v": 101
    },
    {
      "midi": 64,
      "hit": false,
      "t": 597904.582533336,
      "d": 880.9521166667109,
      "v": 91
    },
    {
      "midi": 55,
      "hit": false,
      "t": 598618.868033336,
      "d": 904.7616333334008,
      "v": 83
    },
    {
      "midi": 60,
      "hit": false,
      "t": 599297.4392583361,
      "d": 1583.3328583333641,
      "v": 94
    },
    {
      "midi": 64,
      "hit": false,
      "t": 599309.3440166694,
      "d": 1321.4281750000082,
      "v": 94
    },
    {
      "midi": 48,
      "hit": false,
      "t": 600821.2483250027,
      "d": 714.2855000001146,
      "v": 100
    },
    {
      "midi": 84,
      "hit": false,
      "t": 600821.2483250027,
      "d": 714.2855000001146,
      "v": 100
    }
  ]
}