{
  "jsonPath": "Jazz/Vocal Jazz/Tony Bennett/i-left-my-heart-in-san-francisco.json",
  "path": "Jazz\\Vocal Jazz\\Tony Bennett\\I Left My Heart In San Francisco.mid",
  "name": "I Left My Heart In San Francisco",
  "difficulty": "Advanced",
  "bpm": 65.99999340000066,
  "notes": [
    {
      "midi": 77,
      "hit": false,
      "t": 3870.968,
      "d": 635.0806874999998,
      "v": 99
    },
    {
      "midi": 69,
      "hit": false,
      "t": 3870.968,
      "d": 866.9355416666658,
      "v": 93
    },
    {
      "midi": 72,
      "hit": false,
      "t": 3870.968,
      "d": 877.0161874999994,
      "v": 85
    },
    {
      "midi": 84,
      "hit": false,
      "t": 3891.129291666666,
      "d": 564.5161666666672,
      "v": 105
    },
    {
      "midi": 83,
      "hit": false,
      "t": 4344.758354166666,
      "d": 312.5000208333331,
      "v": 85
    },
    {
      "midi": 81,
      "hit": false,
      "t": 4606.855145833333,
      "d": 252.0161458333332,
      "v": 89
    },
    {
      "midi": 76,
      "hit": false,
      "t": 4818.548708333333,
      "d": 594.7581041666672,
      "v": 90
    },
    {
      "midi": 71,
      "hit": false,
      "t": 4818.548708333333,
      "d": 1048.3871666666664,
      "v": 82
    },
    {
      "midi": 67,
      "hit": false,
      "t": 4828.629354166666,
      "d": 957.6613541666666,
      "v": 80
    },
    {
      "midi": 83,
      "hit": false,
      "t": 4889.113229166666,
      "d": 524.1935833333337,
      "v": 89
    },
    {
      "midi": 81,
      "hit": false,
      "t": 5342.7422916666665,
      "d": 312.5000208333331,
      "v": 88
    },
    {
      "midi": 79,
      "hit": false,
      "t": 5594.7584375,
      "d": 221.77420833333326,
      "v": 81
    },
    {
      "midi": 74,
      "hit": false,
      "t": 5836.693937499999,
      "d": 594.7581041666672,
      "v": 85
    },
    {
      "midi": 65,
      "hit": false,
      "t": 5866.935874999999,
      "d": 877.0161875000003,
      "v": 73
    },
    {
      "midi": 69,
      "hit": false,
      "t": 5866.935874999999,
      "d": 877.0161875000003,
      "v": 93
    },
    {
      "midi": 81,
      "hit": false,
      "t": 5907.258458333333,
      "d": 584.6774583333336,
      "v": 87
    },
    {
      "midi": 79,
      "hit": false,
      "t": 6340.726229166667,
      "d": 292.33872916666587,
      "v": 85
    },
    {
      "midi": 77,
      "hit": false,
      "t": 6572.581083333333,
      "d": 262.09679166666683,
      "v": 85
    },
    {
      "midi": 72,
      "hit": false,
      "t": 6824.597229166666,
      "d": 292.3387291666668,
      "v": 93
    },
    {
      "midi": 64,
      "hit": false,
      "t": 6864.919812499999,
      "d": 796.3710208333332,
      "v": 84
    },
    {
      "midi": 67,
      "hit": false,
      "t": 6864.919812499999,
      "d": 796.3710208333332,
      "v": 90
    },
    {
      "midi": 79,
      "hit": false,
      "t": 6915.323041666666,
      "d": 443.5484166666665,
      "v": 89
    },
    {
      "midi": 72,
      "hit": false,
      "t": 7328.629520833332,
      "d": 292.3387291666668,
      "v": 85
    },
    {
      "midi": 74,
      "hit": false,
      "t": 7580.645666666665,
      "d": 221.77420833333417,
      "v": 94
    },
    {
      "midi": 64,
      "hit": false,
      "t": 7772.1779375,
      "d": 2328.6291874999997,
      "v": 75
    },
    {
      "midi": 66,
      "hit": false,
      "t": 7802.419875,
      "d": 2328.6291875000006,
      "v": 89
    },
    {
      "midi": 72,
      "hit": false,
      "t": 7802.419875,
      "d": 2338.7098333333342,
      "v": 94
    },
    {
      "midi": 69,
      "hit": false,
      "t": 7913.306979166667,
      "d": 2247.9840208333344,
      "v": 73
    },
    {
      "midi": 76,
      "hit": false,
      "t": 7913.306979166667,
      "d": 2247.9840208333344,
      "v": 89
    },
    {
      "midi": 81,
      "hit": false,
      "t": 8245.968291666666,
      "d": 322.58066666666673,
      "v": 89
    },
    {
      "midi": 81,
      "hit": false,
      "t": 8820.565104166666,
      "d": 1360.8871875000023,
      "v": 85
    },
    {
      "midi": 69,
      "hit": false,
      "t": 10473.791020833334,
      "d": 897.1774791666667,
      "v": 84
    },
    {
      "midi": 72,
      "hit": false,
      "t": 10987.903958333334,
      "d": 645.1613333333353,
      "v": 91
    },
    {
      "midi": 67,
      "hit": false,
      "t": 11512.097541666668,
      "d": 1794.354958333337,
      "v": 62
    },
    {
      "midi": 76,
      "hit": false,
      "t": 11522.178187500002,
      "d": 735.8871458333342,
      "v": 85
    },
    {
      "midi": 57,
      "hit": false,
      "t": 11522.178187500002,
      "d": 1683.467854166669,
      "v": 63
    },
    {
      "midi": 64,
      "hit": false,
      "t": 11522.178187500002,
      "d": 1764.1130208333361,
      "v": 74
    },
    {
      "midi": 60,
      "hit": false,
      "t": 11542.339479166669,
      "d": 1673.3872083333354,
      "v": 78
    },
    {
      "midi": 79,
      "hit": false,
      "t": 12056.452416666669,
      "d": 866.9355416666676,
      "v": 76
    },
    {
      "midi": 69,
      "hit": false,
      "t": 12520.162125000003,
      "d": 776.2097291666687,
      "v": 60
    },
    {
      "midi": 68,
      "hit": false,
      "t": 13356.855729166671,
      "d": 2973.790520833336,
      "v": 79
    },
    {
      "midi": 55,
      "hit": false,
      "t": 13377.017020833338,
      "d": 2973.790520833336,
      "v": 65
    },
    {
      "midi": 59,
      "hit": false,
      "t": 13407.25895833334,
      "d": 2893.145354166667,
      "v": 81
    },
    {
      "midi": 71,
      "hit": false,
      "t": 13487.904125000006,
      "d": 2651.2098541666655,
      "v": 79
    },
    {
      "midi": 65,
      "hit": false,
      "t": 13487.904125000006,
      "d": 2893.1453541666688,
      "v": 64
    },
    {
      "midi": 76,
      "hit": false,
      "t": 13629.033166666673,
      "d": 2651.2098541666655,
      "v": 71
    },
    {
      "midi": 79,
      "hit": false,
      "t": 14818.549375000006,
      "d": 1532.2581666666683,
      "v": 68
    },
    {
      "midi": 91,
      "hit": false,
      "t": 14939.517125000006,
      "d": 1441.5323541666694,
      "v": 81
    },
    {
      "midi": 50,
      "hit": false,
      "t": 16451.61400000001,
      "d": 1673.38720833333,
      "v": 53
    },
    {
      "midi": 53,
      "hit": false,
      "t": 16502.017229166675,
      "d": 1582.6613958333328,
      "v": 79
    },
    {
      "midi": 38,
      "hit": false,
      "t": 16512.097875000007,
      "d": 1592.7420416666682,
      "v": 73
    },
    {
      "midi": 57,
      "hit": false,
      "t": 16552.42045833334,
      "d": 1522.1775208333347,
      "v": 64
    },
    {
      "midi": 60,
      "hit": false,
      "t": 16602.823687500008,
      "d": 1512.0968749999993,
      "v": 84
    },
    {
      "midi": 59,
      "hit": false,
      "t": 18366.936708333338,
      "d": 2661.290499999999,
      "v": 85
    },
    {
      "midi": 48,
      "hit": false,
      "t": 18366.936708333338,
      "d": 2741.9356666666645,
      "v": 72
    },
    {
      "midi": 55,
      "hit": false,
      "t": 18447.581875000003,
      "d": 947.5807083333348,
      "v": 79
    },
    {
      "midi": 64,
      "hit": false,
      "t": 18467.74316666667,
      "d": 866.9355416666695,
      "v": 65
    },
    {
      "midi": 67,
      "hit": false,
      "t": 18568.549625000003,
      "d": 816.5323125000032,
      "v": 72
    },
    {
      "midi": 71,
      "hit": false,
      "t": 19133.06579166667,
      "d": 2006.0485208333303,
      "v": 76
    },
    {
      "midi": 76,
      "hit": false,
      "t": 19193.549666666673,
      "d": 1844.758187499996,
      "v": 84
    },
    {
      "midi": 79,
      "hit": false,
      "t": 19264.114187500007,
      "d": 1844.758187499996,
      "v": 66
    },
    {
      "midi": 41,
      "hit": false,
      "t": 21239.920770833334,
      "d": 715.725854166667,
      "v": 63
    },
    {
      "midi": 45,
      "hit": false,
      "t": 21239.920770833334,
      "d": 715.725854166667,
      "v": 64
    },
    {
      "midi": 48,
      "hit": false,
      "t": 21250.001416666666,
      "d": 796.3710208333359,
      "v": 57
    },
    {
      "midi": 64,
      "hit": false,
      "t": 21290.324,
      "d": 362.9032499999994,
      "v": 73
    },
    {
      "midi": 62,
      "hit": false,
      "t": 21612.904666666665,
      "d": 322.58066666666855,
      "v": 94
    },
    {
      "midi": 64,
      "hit": false,
      "t": 21935.485333333334,
      "d": 211.69356250000055,
      "v": 81
    },
    {
      "midi": 65,
      "hit": false,
      "t": 22157.259541666666,
      "d": 493.9516458333346,
      "v": 80
    },
    {
      "midi": 43,
      "hit": false,
      "t": 22197.582125,
      "d": 1370.9678333333359,
      "v": 64
    },
    {
      "midi": 47,
      "hit": false,
      "t": 22197.582125,
      "d": 1451.6130000000012,
      "v": 71
    },
    {
      "midi": 50,
      "hit": false,
      "t": 22207.662770833333,
      "d": 1441.5323541666694,
      "v": 59
    },
    {
      "midi": 62,
      "hit": false,
      "t": 22459.678916666668,
      "d": 463.7097083333356,
      "v": 79
    },
    {
      "midi": 59,
      "hit": false,
      "t": 22762.09829166667,
      "d": 645.1613333333335,
      "v": 62
    },
    {
      "midi": 36,
      "hit": false,
      "t": 23568.549958333337,
      "d": 2862.9034166666606,
      "v": 67
    },
    {
      "midi": 43,
      "hit": false,
      "t": 23931.453208333336,
      "d": 2540.3227499999957,
      "v": 73
    },
    {
      "midi": 52,
      "hit": false,
      "t": 24112.904833333338,
      "d": 2086.6936874999956,
      "v": 75
    },
    {
      "midi": 55,
      "hit": false,
      "t": 24284.275812500004,
      "d": 1844.758187499996,
      "v": 87
    },
    {
      "midi": 59,
      "hit": false,
      "t": 24455.64679166667,
      "d": 574.5968124999999,
      "v": 79
    },
    {
      "midi": 62,
      "hit": false,
      "t": 24536.291958333335,
      "d": 453.62906250000015,
      "v": 59
    },
    {
      "midi": 60,
      "hit": false,
      "t": 25131.050062500002,
      "d": 1199.5968541666625,
      "v": 74
    },
    {
      "midi": 57,
      "hit": false,
      "t": 25141.130708333334,
      "d": 1129.032333333329,
      "v": 75
    },
    {
      "midi": 56,
      "hit": false,
      "t": 26229.840458333332,
      "d": 1108.8710416666654,
      "v": 75
    },
    {
      "midi": 62,
      "hit": false,
      "t": 26239.921104166664,
      "d": 1139.1129791666644,
      "v": 56
    },
    {
      "midi": 40,
      "hit": false,
      "t": 26239.921104166664,
      "d": 1159.2742708333317,
      "v": 72
    },
    {
      "midi": 52,
      "hit": false,
      "t": 26250.001749999996,
      "d": 1098.7903958333336,
      "v": 80
    },
    {
      "midi": 45,
      "hit": false,
      "t": 27318.55020833333,
      "d": 2096.7743333333347,
      "v": 70
    },
    {
      "midi": 52,
      "hit": false,
      "t": 27762.098624999995,
      "d": 1653.22591666667,
      "v": 68
    },
    {
      "midi": 57,
      "hit": false,
      "t": 27993.953479166663,
      "d": 1381.0484791666677,
      "v": 69
    },
    {
      "midi": 60,
      "hit": false,
      "t": 28094.759937499995,
      "d": 695.5645624999997,
      "v": 67
    },
    {
      "midi": 64,
      "hit": false,
      "t": 28326.614791666663,
      "d": 272.17743749999863,
      "v": 79
    },
    {
      "midi": 69,
      "hit": false,
      "t": 28528.22770833333,
      "d": 322.58066666666855,
      "v": 76
    },
    {
      "midi": 72,
      "hit": false,
      "t": 28709.67933333333,
      "d": 241.9354999999996,
      "v": 97
    },
    {
      "midi": 64,
      "hit": false,
      "t": 28810.485791666662,
      "d": 2016.1291666666693,
      "v": 79
    },
    {
      "midi": 50,
      "hit": false,
      "t": 28830.64708333333,
      "d": 2006.048520833334,
      "v": 68
    },
    {
      "midi": 66,
      "hit": false,
      "t": 28850.808374999997,
      "d": 2006.048520833334,
      "v": 74
    },
    {
      "midi": 60,
      "hit": false,
      "t": 28860.88902083333,
      "d": 2006.048520833334,
      "v": 52
    },
    {
      "midi": 69,
      "hit": false,
      "t": 28991.937416666664,
      "d": 1844.7581874999996,
      "v": 89
    },
    {
      "midi": 72,
      "hit": false,
      "t": 29122.985812499996,
      "d": 231.8548541666678,
      "v": 92
    },
    {
      "midi": 72,
      "hit": false,
      "t": 29465.72777083333,
      "d": 1360.8871875000004,
      "v": 85
    },
    {
      "midi": 72,
      "hit": false,
      "t": 30887.09883333333,
      "d": 221.77420833333235,
      "v": 70
    },
    {
      "midi": 62,
      "hit": false,
      "t": 30887.09883333333,
      "d": 947.5807083333311,
      "v": 76
    },
    {
      "midi": 57,
      "hit": false,
      "t": 30897.17947916666,
      "d": 776.209729166665,
      "v": 77
    },
    {
      "midi": 60,
      "hit": false,
      "t": 30897.17947916666,
      "d": 796.3710208333323,
      "v": 81
    },
    {
      "midi": 65,
      "hit": false,
      "t": 30907.260124999993,
      "d": 836.6936041666668,
      "v": 62
    },
    {
      "midi": 74,
      "hit": false,
      "t": 30947.582708333328,
      "d": 181.4516250000015,
      "v": 80
    },
    {
      "midi": 76,
      "hit": false,
      "t": 30987.905291666662,
      "d": 473.7903541666674,
      "v": 77
    },
    {
      "midi": 73,
      "hit": false,
      "t": 31471.77629166666,
      "d": 403.22583333333387,
      "v": 77
    },
    {
      "midi": 74,
      "hit": false,
      "t": 31713.71179166666,
      "d": 252.01614583333503,
      "v": 76
    },
    {
      "midi": 76,
      "hit": false,
      "t": 32046.37310416666,
      "d": 695.5645624999997,
      "v": 83
    },
    {
      "midi": 62,
      "hit": false,
      "t": 32066.53439583333,
      "d": 1683.467854166669,
      "v": 44
    },
    {
      "midi": 55,
      "hit": false,
      "t": 32076.61504166666,
      "d": 1764.1130208333307,
      "v": 68
    },
    {
      "midi": 65,
      "hit": false,
      "t": 32096.776333333328,
      "d": 1683.4678541666653,
      "v": 65
    },
    {
      "midi": 59,
      "hit": false,
      "t": 32096.776333333328,
      "d": 1764.113020833327,
      "v": 68
    },
    {
      "midi": 79,
      "hit": false,
      "t": 32641.13120833333,
      "d": 1118.9516875000008,
      "v": 68
    },
    {
      "midi": 53,
      "hit": false,
      "t": 34879.03458333332,
      "d": 3699.5970208333238,
      "v": 85
    },
    {
      "midi": 56,
      "hit": false,
      "t": 34879.03458333332,
      "d": 3699.5970208333238,
      "v": 89
    },
    {
      "midi": 60,
      "hit": false,
      "t": 34879.03458333332,
      "d": 3780.2421874999927,
      "v": 81
    },
    {
      "midi": 62,
      "hit": false,
      "t": 35342.744291666655,
      "d": 3064.5163333333257,
      "v": 94
    },
    {
      "midi": 65,
      "hit": false,
      "t": 35604.84108333332,
      "d": 2812.5001874999944,
      "v": 78
    },
    {
      "midi": 84,
      "hit": false,
      "t": 35846.77658333332,
      "d": 2731.8550208333254,
      "v": 77
    },
    {
      "midi": 48,
      "hit": false,
      "t": 38800.40581249998,
      "d": 1764.1130208333343,
      "v": 63
    },
    {
      "midi": 60,
      "hit": false,
      "t": 39163.30906249998,
      "d": 1441.5323541666658,
      "v": 71
    },
    {
      "midi": 63,
      "hit": false,
      "t": 39183.470354166646,
      "d": 1441.5323541666658,
      "v": 79
    },
    {
      "midi": 62,
      "hit": false,
      "t": 39193.55099999998,
      "d": 1441.5323541666658,
      "v": 80
    },
    {
      "midi": 67,
      "hit": false,
      "t": 39233.87358333331,
      "d": 1441.5323541666658,
      "v": 79
    },
    {
      "midi": 44,
      "hit": false,
      "t": 40635.08335416664,
      "d": 2247.984020833326,
      "v": 76
    },
    {
      "midi": 51,
      "hit": false,
      "t": 40645.163999999975,
      "d": 2812.5001874999944,
      "v": 77
    },
    {
      "midi": 54,
      "hit": false,
      "t": 40645.163999999975,
      "d": 2812.5001874999944,
      "v": 77
    },
    {
      "midi": 48,
      "hit": false,
      "t": 40685.48658333331,
      "d": 2812.5001874999944,
      "v": 77
    },
    {
      "midi": 67,
      "hit": false,
      "t": 40947.58337499997,
      "d": 282.25808333333407,
      "v": 86
    },
    {
      "midi": 66,
      "hit": false,
      "t": 41189.51887499997,
      "d": 241.9354999999996,
      "v": 90
    },
    {
      "midi": 65,
      "hit": false,
      "t": 41391.13179166664,
      "d": 252.0161458333314,
      "v": 103
    },
    {
      "midi": 63,
      "hit": false,
      "t": 41633.06729166664,
      "d": 1774.193666666666,
      "v": 72
    },
    {
      "midi": 64,
      "hit": false,
      "t": 43528.22870833331,
      "d": 141.12904166665976,
      "v": 55
    },
    {
      "midi": 65,
      "hit": false,
      "t": 43548.38999999997,
      "d": 181.45162499999424,
      "v": 68
    },
    {
      "midi": 50,
      "hit": false,
      "t": 43558.4706458333,
      "d": 1945.5646458333285,
      "v": 62
    },
    {
      "midi": 43,
      "hit": false,
      "t": 43558.4706458333,
      "d": 2167.338854166672,
      "v": 58
    },
    {
      "midi": 47,
      "hit": false,
      "t": 43558.4706458333,
      "d": 2177.4195000000036,
      "v": 63
    },
    {
      "midi": 66,
      "hit": false,
      "t": 43629.03516666663,
      "d": 1008.0645833333328,
      "v": 68
    },
    {
      "midi": 62,
      "hit": false,
      "t": 44647.1803958333,
      "d": 473.7903541666674,
      "v": 52
    },
    {
      "midi": 74,
      "hit": false,
      "t": 44969.761062499965,
      "d": 453.6290624999965,
      "v": 102
    },
    {
      "midi": 62,
      "hit": false,
      "t": 45262.09979166663,
      "d": 241.9354999999996,
      "v": 83
    },
    {
      "midi": 62,
      "hit": false,
      "t": 45544.357874999965,
      "d": 120.96775000000343,
      "v": 69
    },
    {
      "midi": 64,
      "hit": false,
      "t": 45544.357874999965,
      "d": 151.2096875000061,
      "v": 74
    },
    {
      "midi": 50,
      "hit": false,
      "t": 45544.357874999965,
      "d": 1370.9678333333432,
      "v": 65
    },
    {
      "midi": 40,
      "hit": false,
      "t": 45544.357874999965,
      "d": 2651.2098541666783,
      "v": 74
    },
    {
      "midi": 65,
      "hit": false,
      "t": 45625.003041666634,
      "d": 725.806500000006,
      "v": 81
    },
    {
      "midi": 64,
      "hit": false,
      "t": 46229.84179166664,
      "d": 403.2258333333375,
      "v": 81
    },
    {
      "midi": 56,
      "hit": false,
      "t": 46572.583749999976,
      "d": 1844.758187499996,
      "v": 62
    },
    {
      "midi": 62,
      "hit": false,
      "t": 46582.66439583331,
      "d": 1764.1130208333343,
      "v": 72
    },
    {
      "midi": 52,
      "hit": false,
      "t": 46592.74504166664,
      "d": 1693.5485000000044,
      "v": 46
    },
    {
      "midi": 59,
      "hit": false,
      "t": 46592.74504166664,
      "d": 1764.1130208333343,
      "v": 64
    },
    {
      "midi": 45,
      "hit": false,
      "t": 48608.874208333305,
      "d": 3235.8873124999955,
      "v": 68
    },
    {
      "midi": 52,
      "hit": false,
      "t": 48971.77745833331,
      "d": 2862.9034166666606,
      "v": 68
    },
    {
      "midi": 57,
      "hit": false,
      "t": 49213.71295833331,
      "d": 2701.61308333333,
      "v": 65
    },
    {
      "midi": 60,
      "hit": false,
      "t": 49354.841999999975,
      "d": 2449.5969374999913,
      "v": 70
    },
    {
      "midi": 64,
      "hit": false,
      "t": 49616.93879166664,
      "d": 604.8387499999953,
      "v": 72
    },
    {
      "midi": 72,
      "hit": false,
      "t": 49879.0355833333,
      "d": 2006.048520833334,
      "v": 67
    },
    {
      "midi": 64,
      "hit": false,
      "t": 50383.067874999964,
      "d": 1491.9355833333393,
      "v": 59
    },
    {
      "midi": 67,
      "hit": false,
      "t": 52439.51962499997,
      "d": 1542.3388124999983,
      "v": 67
    },
    {
      "midi": 72,
      "hit": false,
      "t": 52883.06804166664,
      "d": 1209.6774999999907,
      "v": 75
    },
    {
      "midi": 79,
      "hit": false,
      "t": 53165.32612499997,
      "d": 957.6613541666593,
      "v": 67
    },
    {
      "midi": 84,
      "hit": false,
      "t": 53407.26162499997,
      "d": 796.3710208333287,
      "v": 80
    },
    {
      "midi": 91,
      "hit": false,
      "t": 53649.19712499997,
      "d": 947.5807083333275,
      "v": 66
    },
    {
      "midi": 77,
      "hit": false,
      "t": 54032.261666666636,
      "d": 1995.9678749999948,
      "v": 73
    },
    {
      "midi": 67,
      "hit": false,
      "t": 54052.4229583333,
      "d": 1844.7581875000033,
      "v": 48
    },
    {
      "midi": 80,
      "hit": false,
      "t": 54072.58424999996,
      "d": 1864.9194791666669,
      "v": 68
    },
    {
      "midi": 71,
      "hit": false,
      "t": 54092.74554166663,
      "d": 1774.1936666666734,
      "v": 71
    },
    {
      "midi": 74,
      "hit": false,
      "t": 54092.74554166663,
      "d": 1824.5968958333397,
      "v": 57
    },
    {
      "midi": 88,
      "hit": false,
      "t": 54243.95522916663,
      "d": 1784.274312499998,
      "v": 68
    },
    {
      "midi": 72,
      "hit": false,
      "t": 59939.520124999966,
      "d": 252.0161458333314,
      "v": 105
    },
    {
      "midi": 76,
      "hit": false,
      "t": 60191.5362708333,
      "d": 312.50002083333675,
      "v": 98
    },
    {
      "midi": 79,
      "hit": false,
      "t": 60463.7137083333,
      "d": 231.8548541666678,
      "v": 90
    },
    {
      "midi": 84,
      "hit": false,
      "t": 60685.487916666636,
      "d": 262.0967916666632,
      "v": 105
    },
    {
      "midi": 83,
      "hit": false,
      "t": 60957.66535416663,
      "d": 1179.4355625000026,
      "v": 99
    },
    {
      "midi": 79,
      "hit": false,
      "t": 62439.52029166663,
      "d": 463.7097083333283,
      "v": 92
    },
    {
      "midi": 81,
      "hit": false,
      "t": 62893.14935416663,
      "d": 1108.8710416666654,
      "v": 84
    },
    {
      "midi": 74,
      "hit": false,
      "t": 67822.58516666663,
      "d": 262.09679166667047,
      "v": 87
    },
    {
      "midi": 77,
      "hit": false,
      "t": 68084.6819583333,
      "d": 292.3387291666586,
      "v": 99
    },
    {
      "midi": 81,
      "hit": false,
      "t": 68306.45616666663,
      "d": 262.09679166667047,
      "v": 95
    },
    {
      "midi": 86,
      "hit": false,
      "t": 68558.47231249996,
      "d": 272.17743750000955,
      "v": 106
    },
    {
      "midi": 84,
      "hit": false,
      "t": 68860.89168749997,
      "d": 1068.548458333331,
      "v": 104
    },
    {
      "midi": 81,
      "hit": false,
      "t": 70090.73047916664,
      "d": 544.3548750000045,
      "v": 87
    },
    {
      "midi": 83,
      "hit": false,
      "t": 70604.84341666664,
      "d": 1098.7903958333336,
      "v": 94
    },
    {
      "midi": 74,
      "hit": false,
      "t": 75524.1985833333,
      "d": 241.93550000000687,
      "v": 102
    },
    {
      "midi": 77,
      "hit": false,
      "t": 75756.05343749997,
      "d": 302.4193749999977,
      "v": 97
    },
    {
      "midi": 81,
      "hit": false,
      "t": 75987.90829166664,
      "d": 252.0161458333314,
      "v": 92
    },
    {
      "midi": 86,
      "hit": false,
      "t": 76229.84379166663,
      "d": 252.01614583334594,
      "v": 109
    },
    {
      "midi": 85,
      "hit": false,
      "t": 76532.26316666664,
      "d": 1088.7097499999945,
      "v": 94
    },
    {
      "midi": 81,
      "hit": false,
      "t": 77883.0697083333,
      "d": 473.7903541666601,
      "v": 91
    },
    {
      "midi": 84,
      "hit": false,
      "t": 78366.9407083333,
      "d": 1542.3388125000056,
      "v": 97
    },
    {
      "midi": 72,
      "hit": false,
      "t": 83175.40877083331,
      "d": 231.8548541666678,
      "v": 93
    },
    {
      "midi": 76,
      "hit": false,
      "t": 83447.5862083333,
      "d": 252.0161458333314,
      "v": 92
    },
    {
      "midi": 79,
      "hit": false,
      "t": 83669.36041666663,
      "d": 221.77420833334327,
      "v": 92
    },
    {
      "midi": 84,
      "hit": false,
      "t": 83891.13462499998,
      "d": 272.177437499995,
      "v": 99
    },
    {
      "midi": 83,
      "hit": false,
      "t": 84193.55399999997,
      "d": 1270.161374999996,
      "v": 99
    },
    {
      "midi": 79,
      "hit": false,
      "t": 85665.32829166664,
      "d": 413.3064791666693,
      "v": 89
    },
    {
      "midi": 81,
      "hit": false,
      "t": 86078.6347708333,
      "d": 1542.3388125000056,
      "v": 89
    },
    {
      "midi": 79,
      "hit": false,
      "t": 93881.05464583331,
      "d": 473.7903541666601,
      "v": 92
    },
    {
      "midi": 77,
      "hit": false,
      "t": 94375.00629166664,
      "d": 735.8871458333306,
      "v": 87
    },
    {
      "midi": 76,
      "hit": false,
      "t": 95141.13537499997,
      "d": 322.5806666666613,
      "v": 71
    },
    {
      "midi": 77,
      "hit": false,
      "t": 95423.3934583333,
      "d": 362.9032499999885,
      "v": 87
    },
    {
      "midi": 79,
      "hit": false,
      "t": 95766.13541666663,
      "d": 1794.354958333337,
      "v": 81
    },
    {
      "midi": 83,
      "hit": false,
      "t": 99687.5066458333,
      "d": 493.95164583333826,
      "v": 89
    },
    {
      "midi": 81,
      "hit": false,
      "t": 100181.45829166664,
      "d": 725.806500000006,
      "v": 90
    },
    {
      "midi": 79,
      "hit": false,
      "t": 100907.26479166665,
      "d": 322.5806666666758,
      "v": 78
    },
    {
      "midi": 81,
      "hit": false,
      "t": 101219.76481249998,
      "d": 362.903250000003,
      "v": 89
    },
    {
      "midi": 83,
      "hit": false,
      "t": 101552.42612499998,
      "d": 1129.0323333333363,
      "v": 95
    },
    {
      "midi": 76,
      "hit": false,
      "t": 103326.61979166666,
      "d": 141.12904166665976,
      "v": 81
    },
    {
      "midi": 74,
      "hit": false,
      "t": 103397.18431249999,
      "d": 120.96774999999616,
      "v": 87
    },
    {
      "midi": 73,
      "hit": false,
      "t": 103487.91012499998,
      "d": 1794.354958333337,
      "v": 76
    },
    {
      "midi": 69,
      "hit": false,
      "t": 106431.45870833332,
      "d": 372.98389583332755,
      "v": 69
    },
    {
      "midi": 72,
      "hit": false,
      "t": 106663.31356249998,
      "d": 372.983895833313,
      "v": 78
    },
    {
      "midi": 76,
      "hit": false,
      "t": 106895.16841666664,
      "d": 201.61291666666511,
      "v": 83
    },
    {
      "midi": 79,
      "hit": false,
      "t": 107016.13616666663,
      "d": 221.77420833334327,
      "v": 67
    },
    {
      "midi": 81,
      "hit": false,
      "t": 107207.66843749997,
      "d": 272.17743750000955,
      "v": 89
    },
    {
      "midi": 79,
      "hit": false,
      "t": 107419.36199999998,
      "d": 1421.3710625000094,
      "v": 89
    },
    {
      "midi": 76,
      "hit": false,
      "t": 108850.81370833333,
      "d": 483.8709999999992,
      "v": 80
    },
    {
      "midi": 78,
      "hit": false,
      "t": 109284.28147916666,
      "d": 2812.5001875000016,
      "v": 69
    },
    {
      "midi": 72,
      "hit": false,
      "t": 121905.2500625,
      "d": 352.82260416666395,
      "v": 87
    },
    {
      "midi": 76,
      "hit": false,
      "t": 122187.50814583333,
      "d": 282.2580833333195,
      "v": 90
    },
    {
      "midi": 79,
      "hit": false,
      "t": 122399.20170833332,
      "d": 241.93549999999232,
      "v": 90
    },
    {
      "midi": 84,
      "hit": false,
      "t": 122610.89527083331,
      "d": 312.50002083333675,
      "v": 105
    },
    {
      "midi": 83,
      "hit": false,
      "t": 122883.07270833332,
      "d": 1491.9355833333248,
      "v": 92
    },
    {
      "midi": 79,
      "hit": false,
      "t": 124375.00829166664,
      "d": 493.95164583333826,
      "v": 87
    },
    {
      "midi": 81,
      "hit": false,
      "t": 124838.71799999998,
      "d": 1713.709791666668,
      "v": 88
    },
    {
      "midi": 74,
      "hit": false,
      "t": 129657.2667083333,
      "d": 362.903250000003,
      "v": 83
    },
    {
      "midi": 77,
      "hit": false,
      "t": 129899.20220833331,
      "d": 352.82260416666395,
      "v": 98
    },
    {
      "midi": 81,
      "hit": false,
      "t": 130120.97641666664,
      "d": 262.0967916666559,
      "v": 92
    },
    {
      "midi": 86,
      "hit": false,
      "t": 130342.75062499997,
      "d": 352.82260416666395,
      "v": 103
    },
    {
      "midi": 84,
      "hit": false,
      "t": 130665.33129166663,
      "d": 1411.2904166666558,
      "v": 99
    },
    {
      "midi": 81,
      "hit": false,
      "t": 132096.78299999997,
      "d": 473.79035416664556,
      "v": 75
    },
    {
      "midi": 83,
      "hit": false,
      "t": 132540.33141666662,
      "d": 1159.2742708333244,
      "v": 89
    },
    {
      "midi": 74,
      "hit": false,
      "t": 137479.84787499995,
      "d": 372.9838958333421,
      "v": 94
    },
    {
      "midi": 77,
      "hit": false,
      "t": 137681.4607916666,
      "d": 272.17743750000955,
      "v": 99
    },
    {
      "midi": 81,
      "hit": false,
      "t": 137893.15435416662,
      "d": 312.50002083333675,
      "v": 91
    },
    {
      "midi": 88,
      "hit": false,
      "t": 138165.33179166663,
      "d": 342.7419583333249,
      "v": 78
    },
    {
      "midi": 86,
      "hit": false,
      "t": 138467.75116666663,
      "d": 1330.6452500000014,
      "v": 97
    },
    {
      "midi": 81,
      "hit": false,
      "t": 139798.39641666663,
      "d": 463.7097083333356,
      "v": 92
    },
    {
      "midi": 83,
      "hit": false,
      "t": 140272.1867708333,
      "d": 2046.3711041666684,
      "v": 85
    },
    {
      "midi": 71,
      "hit": false,
      "t": 145080.6548333333,
      "d": 342.7419583333249,
      "v": 83
    },
    {
      "midi": 74,
      "hit": false,
      "t": 145322.5903333333,
      "d": 302.4193749999977,
      "v": 91
    },
    {
      "midi": 78,
      "hit": false,
      "t": 145554.44518749995,
      "d": 231.85485416668234,
      "v": 85
    },
    {
      "midi": 83,
      "hit": false,
      "t": 145786.30004166663,
      "d": 322.5806666666758,
      "v": 92
    },
    {
      "midi": 81,
      "hit": false,
      "t": 146088.71941666663,
      "d": 1159.2742708333535,
      "v": 92
    },
    {
      "midi": 78,
      "hit": false,
      "t": 147540.33241666664,
      "d": 463.7097083333356,
      "v": 83
    },
    {
      "midi": 80,
      "hit": false,
      "t": 147963.71954166665,
      "d": 1764.1130208333198,
      "v": 85
    }
  ]
}