{
  "jsonPath": "Country/Contemporary Country/Toby Keith/are-you-feelin-me.json",
  "path": "Country\\Contemporary Country\\Toby Keith\\Are You Feelin Me.mid",
  "name": "Are You Feelin Me",
  "difficulty": "Advanced",
  "bpm": 125,
  "notes": [
    {
      "midi": 67,
      "hit": false,
      "t": 3857.5,
      "d": 2550,
      "v": 29
    },
    {
      "midi": 74,
      "hit": false,
      "t": 4070,
      "d": 515,
      "v": 42
    },
    {
      "midi": 86,
      "hit": false,
      "t": 4322.5,
      "d": 122.5,
      "v": 46
    },
    {
      "midi": 86,
      "hit": false,
      "t": 4545,
      "d": 170,
      "v": 58
    },
    {
      "midi": 74,
      "hit": false,
      "t": 4795,
      "d": 860,
      "v": 25
    },
    {
      "midi": 79,
      "hit": false,
      "t": 5032.5,
      "d": 310,
      "v": 40
    },
    {
      "midi": 84,
      "hit": false,
      "t": 5265,
      "d": 132.5,
      "v": 44
    },
    {
      "midi": 84,
      "hit": false,
      "t": 5515,
      "d": 297.5,
      "v": 60
    },
    {
      "midi": 74,
      "hit": false,
      "t": 5777.5,
      "d": 720,
      "v": 31
    },
    {
      "midi": 79,
      "hit": false,
      "t": 5992.5,
      "d": 230,
      "v": 36
    },
    {
      "midi": 83,
      "hit": false,
      "t": 6220,
      "d": 165,
      "v": 49
    },
    {
      "midi": 83,
      "hit": false,
      "t": 6465,
      "d": 810,
      "v": 57
    },
    {
      "midi": 66,
      "hit": false,
      "t": 6710,
      "d": 600,
      "v": 39
    },
    {
      "midi": 74,
      "hit": false,
      "t": 6952.5,
      "d": 450,
      "v": 36
    },
    {
      "midi": 81,
      "hit": false,
      "t": 7190,
      "d": 265,
      "v": 51
    },
    {
      "midi": 79,
      "hit": false,
      "t": 7427.5,
      "d": 557.5,
      "v": 58
    },
    {
      "midi": 64,
      "hit": false,
      "t": 7677.5,
      "d": 2570,
      "v": 43
    },
    {
      "midi": 74,
      "hit": false,
      "t": 7910,
      "d": 527.5,
      "v": 39
    },
    {
      "midi": 86,
      "hit": false,
      "t": 8157.5,
      "d": 105,
      "v": 37
    },
    {
      "midi": 86,
      "hit": false,
      "t": 8377.5,
      "d": 240,
      "v": 61
    },
    {
      "midi": 74,
      "hit": false,
      "t": 8652.5,
      "d": 820,
      "v": 31
    },
    {
      "midi": 79,
      "hit": false,
      "t": 8880,
      "d": 260,
      "v": 35
    },
    {
      "midi": 84,
      "hit": false,
      "t": 9115,
      "d": 127.5,
      "v": 41
    },
    {
      "midi": 84,
      "hit": false,
      "t": 9355,
      "d": 302.5,
      "v": 67
    },
    {
      "midi": 74,
      "hit": false,
      "t": 9622.5,
      "d": 527.5,
      "v": 35
    },
    {
      "midi": 79,
      "hit": false,
      "t": 9850,
      "d": 217.5,
      "v": 41
    },
    {
      "midi": 83,
      "hit": false,
      "t": 10090,
      "d": 115,
      "v": 37
    },
    {
      "midi": 83,
      "hit": false,
      "t": 10320,
      "d": 475,
      "v": 69
    },
    {
      "midi": 62,
      "hit": false,
      "t": 10592.5,
      "d": 525,
      "v": 21
    },
    {
      "midi": 74,
      "hit": false,
      "t": 10822.5,
      "d": 225,
      "v": 39
    },
    {
      "midi": 81,
      "hit": false,
      "t": 11075,
      "d": 255,
      "v": 46
    },
    {
      "midi": 79,
      "hit": false,
      "t": 11297.5,
      "d": 462.5,
      "v": 52
    },
    {
      "midi": 60,
      "hit": false,
      "t": 11527.5,
      "d": 1250,
      "v": 36
    },
    {
      "midi": 67,
      "hit": false,
      "t": 11757.5,
      "d": 1075,
      "v": 31
    },
    {
      "midi": 72,
      "hit": false,
      "t": 12010,
      "d": 832.5,
      "v": 37
    },
    {
      "midi": 74,
      "hit": false,
      "t": 12207.5,
      "d": 160,
      "v": 42
    },
    {
      "midi": 84,
      "hit": false,
      "t": 12472.5,
      "d": 150,
      "v": 46
    },
    {
      "midi": 76,
      "hit": false,
      "t": 12482.5,
      "d": 180,
      "v": 43
    },
    {
      "midi": 83,
      "hit": false,
      "t": 12952.5,
      "d": 135,
      "v": 58
    },
    {
      "midi": 72,
      "hit": false,
      "t": 13420,
      "d": 1035,
      "v": 33
    },
    {
      "midi": 81,
      "hit": false,
      "t": 13432.5,
      "d": 432.5,
      "v": 57
    },
    {
      "midi": 62,
      "hit": false,
      "t": 13442.5,
      "d": 1545,
      "v": 29
    },
    {
      "midi": 69,
      "hit": false,
      "t": 13917.5,
      "d": 555,
      "v": 26
    },
    {
      "midi": 78,
      "hit": false,
      "t": 14427.5,
      "d": 770,
      "v": 55
    },
    {
      "midi": 74,
      "hit": false,
      "t": 14432.5,
      "d": 440,
      "v": 61
    },
    {
      "midi": 69,
      "hit": false,
      "t": 14927.5,
      "d": 112.5,
      "v": 37
    },
    {
      "midi": 79,
      "hit": false,
      "t": 15125,
      "d": 212.5,
      "v": 52
    },
    {
      "midi": 55,
      "hit": false,
      "t": 15382.5,
      "d": 1365,
      "v": 41
    },
    {
      "midi": 62,
      "hit": false,
      "t": 15615,
      "d": 592.5,
      "v": 44
    },
    {
      "midi": 67,
      "hit": false,
      "t": 15850,
      "d": 375,
      "v": 50
    },
    {
      "midi": 74,
      "hit": false,
      "t": 16090,
      "d": 245,
      "v": 65
    },
    {
      "midi": 62,
      "hit": false,
      "t": 16335,
      "d": 367.5,
      "v": 39
    },
    {
      "midi": 67,
      "hit": false,
      "t": 16557.5,
      "d": 327.5,
      "v": 47
    },
    {
      "midi": 72,
      "hit": false,
      "t": 16800,
      "d": 145,
      "v": 73
    },
    {
      "midi": 72,
      "hit": false,
      "t": 17030,
      "d": 582.5,
      "v": 75
    },
    {
      "midi": 43,
      "hit": false,
      "t": 17290,
      "d": 515,
      "v": 52
    },
    {
      "midi": 55,
      "hit": false,
      "t": 17295,
      "d": 607.5,
      "v": 48
    },
    {
      "midi": 62,
      "hit": false,
      "t": 17517.5,
      "d": 365,
      "v": 48
    },
    {
      "midi": 71,
      "hit": false,
      "t": 17767.5,
      "d": 140,
      "v": 44
    },
    {
      "midi": 71,
      "hit": false,
      "t": 17997.5,
      "d": 780,
      "v": 77
    },
    {
      "midi": 62,
      "hit": false,
      "t": 18007.5,
      "d": 345,
      "v": 58
    },
    {
      "midi": 42,
      "hit": false,
      "t": 18257.5,
      "d": 280,
      "v": 47
    },
    {
      "midi": 54,
      "hit": false,
      "t": 18262.5,
      "d": 430,
      "v": 49
    },
    {
      "midi": 62,
      "hit": false,
      "t": 18482.5,
      "d": 355,
      "v": 43
    },
    {
      "midi": 69,
      "hit": false,
      "t": 18735,
      "d": 220,
      "v": 44
    },
    {
      "midi": 67,
      "hit": false,
      "t": 18970,
      "d": 532.5,
      "v": 65
    },
    {
      "midi": 62,
      "hit": false,
      "t": 18972.5,
      "d": 495,
      "v": 57
    },
    {
      "midi": 52,
      "hit": false,
      "t": 19222.5,
      "d": 2432.5,
      "v": 57
    },
    {
      "midi": 59,
      "hit": false,
      "t": 19455,
      "d": 602.5,
      "v": 53
    },
    {
      "midi": 62,
      "hit": false,
      "t": 19687.5,
      "d": 327.5,
      "v": 41
    },
    {
      "midi": 74,
      "hit": false,
      "t": 19932.5,
      "d": 375,
      "v": 63
    },
    {
      "midi": 59,
      "hit": false,
      "t": 20130,
      "d": 805,
      "v": 30
    },
    {
      "midi": 62,
      "hit": false,
      "t": 20377.5,
      "d": 385,
      "v": 34
    },
    {
      "midi": 72,
      "hit": false,
      "t": 20622.5,
      "d": 105,
      "v": 42
    },
    {
      "midi": 72,
      "hit": false,
      "t": 20855,
      "d": 772.5,
      "v": 66
    },
    {
      "midi": 59,
      "hit": false,
      "t": 21152.5,
      "d": 837.5,
      "v": 23
    },
    {
      "midi": 62,
      "hit": false,
      "t": 21372.5,
      "d": 390,
      "v": 40
    },
    {
      "midi": 71,
      "hit": false,
      "t": 21610,
      "d": 167.5,
      "v": 66
    },
    {
      "midi": 62,
      "hit": false,
      "t": 21875,
      "d": 620,
      "v": 53
    },
    {
      "midi": 71,
      "hit": false,
      "t": 21882.5,
      "d": 725,
      "v": 51
    },
    {
      "midi": 50,
      "hit": false,
      "t": 22107.5,
      "d": 565,
      "v": 50
    },
    {
      "midi": 59,
      "hit": false,
      "t": 22352.5,
      "d": 262.5,
      "v": 31
    },
    {
      "midi": 62,
      "hit": false,
      "t": 22567.5,
      "d": 192.5,
      "v": 34
    },
    {
      "midi": 69,
      "hit": false,
      "t": 22575,
      "d": 297.5,
      "v": 57
    },
    {
      "midi": 62,
      "hit": false,
      "t": 22815,
      "d": 577.5,
      "v": 37
    },
    {
      "midi": 67,
      "hit": false,
      "t": 22835,
      "d": 585,
      "v": 69
    },
    {
      "midi": 48,
      "hit": false,
      "t": 23092.5,
      "d": 1332.5,
      "v": 45
    },
    {
      "midi": 55,
      "hit": false,
      "t": 23307.5,
      "d": 1172.5,
      "v": 34
    },
    {
      "midi": 60,
      "hit": false,
      "t": 23532.5,
      "d": 942.5,
      "v": 45
    },
    {
      "midi": 62,
      "hit": false,
      "t": 23762.5,
      "d": 157.5,
      "v": 27
    },
    {
      "midi": 72,
      "hit": false,
      "t": 24000,
      "d": 165,
      "v": 57
    },
    {
      "midi": 64,
      "hit": false,
      "t": 24007.5,
      "d": 220,
      "v": 61
    },
    {
      "midi": 71,
      "hit": false,
      "t": 24475,
      "d": 117.5,
      "v": 57
    },
    {
      "midi": 62,
      "hit": false,
      "t": 24485,
      "d": 147.5,
      "v": 51
    },
    {
      "midi": 50,
      "hit": false,
      "t": 24987.5,
      "d": 3230,
      "v": 36
    },
    {
      "midi": 69,
      "hit": false,
      "t": 24990,
      "d": 1885,
      "v": 54
    },
    {
      "midi": 60,
      "hit": false,
      "t": 24992.5,
      "d": 3485,
      "v": 34
    },
    {
      "midi": 57,
      "hit": false,
      "t": 24997.5,
      "d": 1535,
      "v": 36
    },
    {
      "midi": 66,
      "hit": false,
      "t": 26880,
      "d": 1540,
      "v": 33
    },
    {
      "midi": 57,
      "hit": false,
      "t": 26902.5,
      "d": 1372.5,
      "v": 28
    },
    {
      "midi": 62,
      "hit": false,
      "t": 26912.5,
      "d": 1450,
      "v": 26
    },
    {
      "midi": 67,
      "hit": false,
      "t": 28797.5,
      "d": 255,
      "v": 39
    },
    {
      "midi": 64,
      "hit": false,
      "t": 28807.5,
      "d": 205,
      "v": 55
    },
    {
      "midi": 52,
      "hit": false,
      "t": 28807.5,
      "d": 3487.5,
      "v": 30
    },
    {
      "midi": 59,
      "hit": false,
      "t": 29030,
      "d": 1835,
      "v": 43
    },
    {
      "midi": 64,
      "hit": false,
      "t": 29280,
      "d": 1617.5,
      "v": 30
    },
    {
      "midi": 66,
      "hit": false,
      "t": 29502.5,
      "d": 272.5,
      "v": 37
    },
    {
      "midi": 67,
      "hit": false,
      "t": 29742.5,
      "d": 182.5,
      "v": 44
    },
    {
      "midi": 71,
      "hit": false,
      "t": 29972.5,
      "d": 187.5,
      "v": 29
    },
    {
      "midi": 76,
      "hit": false,
      "t": 30190,
      "d": 252.5,
      "v": 46
    },
    {
      "midi": 78,
      "hit": false,
      "t": 30442.5,
      "d": 242.5,
      "v": 28
    },
    {
      "midi": 79,
      "hit": false,
      "t": 30720,
      "d": 155,
      "v": 45
    },
    {
      "midi": 71,
      "hit": false,
      "t": 30725,
      "d": 150,
      "v": 27
    },
    {
      "midi": 76,
      "hit": false,
      "t": 30730,
      "d": 140,
      "v": 28
    },
    {
      "midi": 59,
      "hit": false,
      "t": 31180,
      "d": 1035,
      "v": 15
    },
    {
      "midi": 64,
      "hit": false,
      "t": 31437.5,
      "d": 705,
      "v": 34
    },
    {
      "midi": 66,
      "hit": false,
      "t": 31667.5,
      "d": 277.5,
      "v": 34
    },
    {
      "midi": 67,
      "hit": false,
      "t": 31912.5,
      "d": 280,
      "v": 45
    },
    {
      "midi": 71,
      "hit": false,
      "t": 32142.5,
      "d": 277.5,
      "v": 38
    },
    {
      "midi": 74,
      "hit": false,
      "t": 32372.5,
      "d": 145,
      "v": 48
    },
    {
      "midi": 72,
      "hit": false,
      "t": 32637.5,
      "d": 370,
      "v": 49
    },
    {
      "midi": 45,
      "hit": false,
      "t": 32652.5,
      "d": 3397.5,
      "v": 49
    },
    {
      "midi": 52,
      "hit": false,
      "t": 32872.5,
      "d": 1920,
      "v": 45
    },
    {
      "midi": 60,
      "hit": false,
      "t": 33127.5,
      "d": 335,
      "v": 38
    },
    {
      "midi": 64,
      "hit": false,
      "t": 33360,
      "d": 282.5,
      "v": 44
    },
    {
      "midi": 69,
      "hit": false,
      "t": 33597.5,
      "d": 172.5,
      "v": 42
    },
    {
      "midi": 57,
      "hit": false,
      "t": 33842.5,
      "d": 1005,
      "v": 43
    },
    {
      "midi": 60,
      "hit": false,
      "t": 34070,
      "d": 102.5,
      "v": 36
    },
    {
      "midi": 69,
      "hit": false,
      "t": 34070,
      "d": 107.5,
      "v": 43
    },
    {
      "midi": 71,
      "hit": false,
      "t": 34320,
      "d": 100,
      "v": 66
    },
    {
      "midi": 62,
      "hit": false,
      "t": 34327.5,
      "d": 90,
      "v": 33
    },
    {
      "midi": 64,
      "hit": false,
      "t": 34575,
      "d": 1510,
      "v": 54
    },
    {
      "midi": 72,
      "hit": false,
      "t": 34575,
      "d": 1587.5,
      "v": 57
    },
    {
      "midi": 52,
      "hit": false,
      "t": 35357.5,
      "d": 692.5,
      "v": 18
    },
    {
      "midi": 69,
      "hit": false,
      "t": 36462.5,
      "d": 1200,
      "v": 59
    },
    {
      "midi": 60,
      "hit": false,
      "t": 36470,
      "d": 287.5,
      "v": 33
    },
    {
      "midi": 50,
      "hit": false,
      "t": 36470,
      "d": 3227.5,
      "v": 39
    },
    {
      "midi": 57,
      "hit": false,
      "t": 36682.5,
      "d": 812.5,
      "v": 35
    },
    {
      "midi": 60,
      "hit": false,
      "t": 36955,
      "d": 685,
      "v": 39
    },
    {
      "midi": 62,
      "hit": false,
      "t": 37195,
      "d": 477.5,
      "v": 63
    },
    {
      "midi": 57,
      "hit": false,
      "t": 37702.5,
      "d": 1940,
      "v": 12
    },
    {
      "midi": 62,
      "hit": false,
      "t": 37937.5,
      "d": 1085,
      "v": 31
    },
    {
      "midi": 71,
      "hit": false,
      "t": 38157.5,
      "d": 260,
      "v": 49
    },
    {
      "midi": 69,
      "hit": false,
      "t": 38402.5,
      "d": 715,
      "v": 42
    },
    {
      "midi": 66,
      "hit": false,
      "t": 38417.5,
      "d": 615,
      "v": 57
    },
    {
      "midi": 60,
      "hit": false,
      "t": 38927.5,
      "d": 672.5,
      "v": 24
    },
    {
      "midi": 62,
      "hit": false,
      "t": 39137.5,
      "d": 555,
      "v": 34
    },
    {
      "midi": 66,
      "hit": false,
      "t": 39360,
      "d": 402.5,
      "v": 57
    },
    {
      "midi": 69,
      "hit": false,
      "t": 39582.5,
      "d": 325,
      "v": 53
    },
    {
      "midi": 71,
      "hit": false,
      "t": 39822.5,
      "d": 145,
      "v": 52
    },
    {
      "midi": 72,
      "hit": false,
      "t": 40067.5,
      "d": 177.5,
      "v": 37
    },
    {
      "midi": 43,
      "hit": false,
      "t": 40327.5,
      "d": 1050,
      "v": 39
    },
    {
      "midi": 62,
      "hit": false,
      "t": 40345,
      "d": 382.5,
      "v": 49
    },
    {
      "midi": 71,
      "hit": false,
      "t": 40345,
      "d": 417.5,
      "v": 46
    },
    {
      "midi": 50,
      "hit": false,
      "t": 40597.5,
      "d": 805,
      "v": 22
    },
    {
      "midi": 59,
      "hit": false,
      "t": 40827.5,
      "d": 1140,
      "v": 28
    },
    {
      "midi": 62,
      "hit": false,
      "t": 41057.5,
      "d": 1020,
      "v": 36
    },
    {
      "midi": 67,
      "hit": false,
      "t": 41292.5,
      "d": 535,
      "v": 52
    },
    {
      "midi": 69,
      "hit": false,
      "t": 41532.5,
      "d": 330,
      "v": 59
    },
    {
      "midi": 71,
      "hit": false,
      "t": 41772.5,
      "d": 272.5,
      "v": 55
    },
    {
      "midi": 72,
      "hit": false,
      "t": 41980,
      "d": 270,
      "v": 55
    },
    {
      "midi": 54,
      "hit": false,
      "t": 42225,
      "d": 580,
      "v": 49
    },
    {
      "midi": 69,
      "hit": false,
      "t": 42227.5,
      "d": 380,
      "v": 63
    },
    {
      "midi": 62,
      "hit": false,
      "t": 42242.5,
      "d": 285,
      "v": 61
    },
    {
      "midi": 51,
      "hit": false,
      "t": 43222.5,
      "d": 510,
      "v": 41
    },
    {
      "midi": 63,
      "hit": false,
      "t": 43227.5,
      "d": 345,
      "v": 56
    },
    {
      "midi": 59,
      "hit": false,
      "t": 43452.5,
      "d": 227.5,
      "v": 26
    },
    {
      "midi": 66,
      "hit": false,
      "t": 43452.5,
      "d": 270,
      "v": 54
    },
    {
      "midi": 71,
      "hit": false,
      "t": 43695,
      "d": 327.5,
      "v": 65
    },
    {
      "midi": 63,
      "hit": false,
      "t": 43697.5,
      "d": 220,
      "v": 42
    },
    {
      "midi": 69,
      "hit": false,
      "t": 43922.5,
      "d": 312.5,
      "v": 51
    },
    {
      "midi": 67,
      "hit": false,
      "t": 44167.5,
      "d": 427.5,
      "v": 49
    },
    {
      "midi": 40,
      "hit": false,
      "t": 44175,
      "d": 3107.5,
      "v": 55
    },
    {
      "midi": 59,
      "hit": false,
      "t": 44195,
      "d": 397.5,
      "v": 23
    },
    {
      "midi": 47,
      "hit": false,
      "t": 44410,
      "d": 2892.5,
      "v": 35
    },
    {
      "midi": 55,
      "hit": false,
      "t": 44655,
      "d": 1627.5,
      "v": 36
    },
    {
      "midi": 59,
      "hit": false,
      "t": 44877.5,
      "d": 185,
      "v": 41
    },
    {
      "midi": 64,
      "hit": false,
      "t": 45110,
      "d": 192.5,
      "v": 31
    },
    {
      "midi": 67,
      "hit": false,
      "t": 45325,
      "d": 47.5,
      "v": 34
    },
    {
      "midi": 71,
      "hit": false,
      "t": 45590,
      "d": 117.5,
      "v": 62
    },
    {
      "midi": 79,
      "hit": false,
      "t": 45597.5,
      "d": 115,
      "v": 52
    },
    {
      "midi": 72,
      "hit": false,
      "t": 45827.5,
      "d": 95,
      "v": 47
    },
    {
      "midi": 81,
      "hit": false,
      "t": 45837.5,
      "d": 92.5,
      "v": 69
    },
    {
      "midi": 83,
      "hit": false,
      "t": 46085,
      "d": 87.5,
      "v": 81
    },
    {
      "midi": 74,
      "hit": false,
      "t": 46087.5,
      "d": 92.5,
      "v": 74
    },
    {
      "midi": 55,
      "hit": false,
      "t": 46587.5,
      "d": 640,
      "v": 31
    },
    {
      "midi": 67,
      "hit": false,
      "t": 46797.5,
      "d": 302.5,
      "v": 28
    },
    {
      "midi": 59,
      "hit": false,
      "t": 46802.5,
      "d": 250,
      "v": 52
    },
    {
      "midi": 60,
      "hit": false,
      "t": 47312.5,
      "d": 150,
      "v": 36
    },
    {
      "midi": 69,
      "hit": false,
      "t": 47322.5,
      "d": 225,
      "v": 45
    },
    {
      "midi": 64,
      "hit": false,
      "t": 47542.5,
      "d": 87.5,
      "v": 55
    },
    {
      "midi": 71,
      "hit": false,
      "t": 47542.5,
      "d": 125,
      "v": 34
    },
    {
      "midi": 71,
      "hit": false,
      "t": 47787.5,
      "d": 290,
      "v": 59
    },
    {
      "midi": 64,
      "hit": false,
      "t": 47792.5,
      "d": 380,
      "v": 77
    },
    {
      "midi": 45,
      "hit": false,
      "t": 48005,
      "d": 3415,
      "v": 36
    },
    {
      "midi": 69,
      "hit": false,
      "t": 48245,
      "d": 242.5,
      "v": 38
    },
    {
      "midi": 72,
      "hit": false,
      "t": 48250,
      "d": 210,
      "v": 63
    },
    {
      "midi": 52,
      "hit": false,
      "t": 48255,
      "d": 1830,
      "v": 46
    },
    {
      "midi": 64,
      "hit": false,
      "t": 48267.5,
      "d": 200,
      "v": 33
    },
    {
      "midi": 60,
      "hit": false,
      "t": 48512.5,
      "d": 1610,
      "v": 29
    },
    {
      "midi": 64,
      "hit": false,
      "t": 48722.5,
      "d": 85,
      "v": 45
    },
    {
      "midi": 72,
      "hit": false,
      "t": 48722.5,
      "d": 147.5,
      "v": 54
    },
    {
      "midi": 69,
      "hit": false,
      "t": 48742.5,
      "d": 70,
      "v": 40
    },
    {
      "midi": 72,
      "hit": false,
      "t": 49467.5,
      "d": 97.5,
      "v": 46
    },
    {
      "midi": 81,
      "hit": false,
      "t": 49480,
      "d": 97.5,
      "v": 54
    },
    {
      "midi": 74,
      "hit": false,
      "t": 49702.5,
      "d": 97.5,
      "v": 68
    },
    {
      "midi": 83,
      "hit": false,
      "t": 49702.5,
      "d": 105,
      "v": 84
    },
    {
      "midi": 84,
      "hit": false,
      "t": 49947.5,
      "d": 107.5,
      "v": 92
    },
    {
      "midi": 76,
      "hit": false,
      "t": 49952.5,
      "d": 97.5,
      "v": 92
    },
    {
      "midi": 52,
      "hit": false,
      "t": 50397.5,
      "d": 382.5,
      "v": 27
    },
    {
      "midi": 60,
      "hit": false,
      "t": 50647.5,
      "d": 437.5,
      "v": 39
    },
    {
      "midi": 69,
      "hit": false,
      "t": 50652.5,
      "d": 510,
      "v": 34
    },
    {
      "midi": 52,
      "hit": false,
      "t": 50902.5,
      "d": 187.5,
      "v": 18
    },
    {
      "midi": 71,
      "hit": false,
      "t": 51142.5,
      "d": 290,
      "v": 73
    },
    {
      "midi": 64,
      "hit": false,
      "t": 51150,
      "d": 260,
      "v": 68
    },
    {
      "midi": 52,
      "hit": false,
      "t": 51382.5,
      "d": 90,
      "v": 27
    },
    {
      "midi": 71,
      "hit": false,
      "t": 51607.5,
      "d": 405,
      "v": 78
    },
    {
      "midi": 64,
      "hit": false,
      "t": 51615,
      "d": 407.5,
      "v": 63
    },
    {
      "midi": 50,
      "hit": false,
      "t": 51847.5,
      "d": 3470,
      "v": 45
    },
    {
      "midi": 57,
      "hit": false,
      "t": 52082.5,
      "d": 1070,
      "v": 36
    },
    {
      "midi": 72,
      "hit": false,
      "t": 52095,
      "d": 270,
      "v": 62
    },
    {
      "midi": 60,
      "hit": false,
      "t": 52347.5,
      "d": 1045,
      "v": 24
    },
    {
      "midi": 72,
      "hit": false,
      "t": 52572.5,
      "d": 792.5,
      "v": 68
    },
    {
      "midi": 66,
      "hit": false,
      "t": 52572.5,
      "d": 815,
      "v": 66
    },
    {
      "midi": 57,
      "hit": false,
      "t": 53317.5,
      "d": 1342.5,
      "v": 25
    },
    {
      "midi": 62,
      "hit": false,
      "t": 53552.5,
      "d": 637.5,
      "v": 38
    },
    {
      "midi": 66,
      "hit": false,
      "t": 53805,
      "d": 435,
      "v": 61
    },
    {
      "midi": 60,
      "hit": false,
      "t": 54035,
      "d": 622.5,
      "v": 16
    },
    {
      "midi": 62,
      "hit": false,
      "t": 54262.5,
      "d": 1005,
      "v": 47
    },
    {
      "midi": 72,
      "hit": false,
      "t": 54267.5,
      "d": 307.5,
      "v": 72
    },
    {
      "midi": 69,
      "hit": false,
      "t": 54510,
      "d": 182.5,
      "v": 58
    },
    {
      "midi": 71,
      "hit": false,
      "t": 54527.5,
      "d": 525,
      "v": 64
    },
    {
      "midi": 69,
      "hit": false,
      "t": 55005,
      "d": 462.5,
      "v": 59
    },
    {
      "midi": 57,
      "hit": false,
      "t": 55242.5,
      "d": 90,
      "v": 32
    },
    {
      "midi": 62,
      "hit": false,
      "t": 55472.5,
      "d": 727.5,
      "v": 61
    },
    {
      "midi": 71,
      "hit": false,
      "t": 55472.5,
      "d": 732.5,
      "v": 68
    },
    {
      "midi": 43,
      "hit": false,
      "t": 55722.5,
      "d": 2965,
      "v": 56
    },
    {
      "midi": 50,
      "hit": false,
      "t": 55975,
      "d": 1715,
      "v": 34
    },
    {
      "midi": 59,
      "hit": false,
      "t": 56215,
      "d": 1457.5,
      "v": 47
    },
    {
      "midi": 62,
      "hit": false,
      "t": 56445,
      "d": 1582.5,
      "v": 42
    },
    {
      "midi": 71,
      "hit": false,
      "t": 56677.5,
      "d": 405,
      "v": 44
    },
    {
      "midi": 69,
      "hit": false,
      "t": 57127.5,
      "d": 330,
      "v": 53
    },
    {
      "midi": 71,
      "hit": false,
      "t": 57360,
      "d": 287.5,
      "v": 34
    },
    {
      "midi": 67,
      "hit": false,
      "t": 57617.5,
      "d": 305,
      "v": 72
    },
    {
      "midi": 50,
      "hit": false,
      "t": 57862.5,
      "d": 880,
      "v": 36
    },
    {
      "midi": 59,
      "hit": false,
      "t": 58102.5,
      "d": 530,
      "v": 46
    },
    {
      "midi": 62,
      "hit": false,
      "t": 58335,
      "d": 427.5,
      "v": 52
    },
    {
      "midi": 71,
      "hit": false,
      "t": 58577.5,
      "d": 542.5,
      "v": 69
    },
    {
      "midi": 74,
      "hit": false,
      "t": 59067.5,
      "d": 140,
      "v": 58
    },
    {
      "midi": 76,
      "hit": false,
      "t": 59312.5,
      "d": 607.5,
      "v": 79
    },
    {
      "midi": 48,
      "hit": false,
      "t": 59542.5,
      "d": 3550,
      "v": 46
    },
    {
      "midi": 55,
      "hit": false,
      "t": 59790,
      "d": 3222.5,
      "v": 37
    },
    {
      "midi": 59,
      "hit": false,
      "t": 60037.5,
      "d": 1172.5,
      "v": 40
    },
    {
      "midi": 60,
      "hit": false,
      "t": 60265,
      "d": 965,
      "v": 41
    },
    {
      "midi": 64,
      "hit": false,
      "t": 60497.5,
      "d": 542.5,
      "v": 66
    },
    {
      "midi": 67,
      "hit": false,
      "t": 60702.5,
      "d": 305,
      "v": 53
    },
    {
      "midi": 69,
      "hit": false,
      "t": 60947.5,
      "d": 305,
      "v": 52
    },
    {
      "midi": 64,
      "hit": false,
      "t": 61195,
      "d": 752.5,
      "v": 38
    },
    {
      "midi": 71,
      "hit": false,
      "t": 61452.5,
      "d": 510,
      "v": 55
    },
    {
      "midi": 60,
      "hit": false,
      "t": 61462.5,
      "d": 472.5,
      "v": 45
    },
    {
      "midi": 59,
      "hit": false,
      "t": 61922.5,
      "d": 772.5,
      "v": 42
    },
    {
      "midi": 60,
      "hit": false,
      "t": 62187.5,
      "d": 422.5,
      "v": 54
    },
    {
      "midi": 64,
      "hit": false,
      "t": 62677.5,
      "d": 292.5,
      "v": 60
    },
    {
      "midi": 59,
      "hit": false,
      "t": 62912.5,
      "d": 325,
      "v": 34
    },
    {
      "midi": 69,
      "hit": false,
      "t": 62935,
      "d": 262.5,
      "v": 50
    },
    {
      "midi": 71,
      "hit": false,
      "t": 63135,
      "d": 747.5,
      "v": 63
    },
    {
      "midi": 47,
      "hit": false,
      "t": 63372.5,
      "d": 1257.5,
      "v": 43
    },
    {
      "midi": 62,
      "hit": false,
      "t": 63377.5,
      "d": 435,
      "v": 42
    },
    {
      "midi": 66,
      "hit": false,
      "t": 63382.5,
      "d": 470,
      "v": 55
    },
    {
      "midi": 54,
      "hit": false,
      "t": 63627.5,
      "d": 1032.5,
      "v": 39
    },
    {
      "midi": 59,
      "hit": false,
      "t": 63882.5,
      "d": 715,
      "v": 30
    },
    {
      "midi": 62,
      "hit": false,
      "t": 64122.5,
      "d": 832.5,
      "v": 49
    },
    {
      "midi": 66,
      "hit": false,
      "t": 64355,
      "d": 532.5,
      "v": 46
    },
    {
      "midi": 67,
      "hit": false,
      "t": 64592.5,
      "d": 312.5,
      "v": 55
    },
    {
      "midi": 69,
      "hit": false,
      "t": 64827.5,
      "d": 355,
      "v": 52
    },
    {
      "midi": 71,
      "hit": false,
      "t": 65065,
      "d": 262.5,
      "v": 41
    },
    {
      "midi": 59,
      "hit": false,
      "t": 65080,
      "d": 182.5,
      "v": 28
    },
    {
      "midi": 64,
      "hit": false,
      "t": 65300,
      "d": 282.5,
      "v": 52
    },
    {
      "midi": 67,
      "hit": false,
      "t": 65305,
      "d": 297.5,
      "v": 66
    },
    {
      "midi": 52,
      "hit": false,
      "t": 65307.5,
      "d": 1325,
      "v": 42
    },
    {
      "midi": 59,
      "hit": false,
      "t": 65552.5,
      "d": 915,
      "v": 36
    },
    {
      "midi": 64,
      "hit": false,
      "t": 65795,
      "d": 515,
      "v": 49
    },
    {
      "midi": 67,
      "hit": false,
      "t": 66010,
      "d": 300,
      "v": 59
    },
    {
      "midi": 69,
      "hit": false,
      "t": 66492.5,
      "d": 295,
      "v": 55
    },
    {
      "midi": 71,
      "hit": false,
      "t": 66727.5,
      "d": 205,
      "v": 55
    },
    {
      "midi": 64,
      "hit": false,
      "t": 67095,
      "d": 497.5,
      "v": 37
    },
    {
      "midi": 69,
      "hit": false,
      "t": 67142.5,
      "d": 415,
      "v": 46
    },
    {
      "midi": 72,
      "hit": false,
      "t": 67172.5,
      "d": 430,
      "v": 79
    },
    {
      "midi": 45,
      "hit": false,
      "t": 67172.5,
      "d": 3210,
      "v": 49
    },
    {
      "midi": 52,
      "hit": false,
      "t": 67420,
      "d": 2247.5,
      "v": 50
    },
    {
      "midi": 60,
      "hit": false,
      "t": 67647.5,
      "d": 2025,
      "v": 53
    },
    {
      "midi": 64,
      "hit": false,
      "t": 67882.5,
      "d": 1142.5,
      "v": 50
    },
    {
      "midi": 72,
      "hit": false,
      "t": 68155,
      "d": 387.5,
      "v": 50
    },
    {
      "midi": 69,
      "hit": false,
      "t": 68165,
      "d": 317.5,
      "v": 59
    },
    {
      "midi": 72,
      "hit": false,
      "t": 68642.5,
      "d": 260,
      "v": 24
    },
    {
      "midi": 69,
      "hit": false,
      "t": 68652.5,
      "d": 315,
      "v": 37
    },
    {
      "midi": 74,
      "hit": false,
      "t": 68870,
      "d": 242.5,
      "v": 44
    },
    {
      "midi": 64,
      "hit": false,
      "t": 69127.5,
      "d": 972.5,
      "v": 44
    },
    {
      "midi": 69,
      "hit": false,
      "t": 69132.5,
      "d": 920,
      "v": 52
    },
    {
      "midi": 72,
      "hit": false,
      "t": 69132.5,
      "d": 940,
      "v": 49
    },
    {
      "midi": 52,
      "hit": false,
      "t": 70090,
      "d": 322.5,
      "v": 37
    },
    {
      "midi": 71,
      "hit": false,
      "t": 70610,
      "d": 280,
      "v": 43
    },
    {
      "midi": 64,
      "hit": false,
      "t": 70610,
      "d": 367.5,
      "v": 55
    },
    {
      "midi": 72,
      "hit": false,
      "t": 70822.5,
      "d": 250,
      "v": 33
    },
    {
      "midi": 48,
      "hit": false,
      "t": 71090,
      "d": 1247.5,
      "v": 45
    },
    {
      "midi": 69,
      "hit": false,
      "t": 71112.5,
      "d": 220,
      "v": 22
    },
    {
      "midi": 55,
      "hit": false,
      "t": 71327.5,
      "d": 1000,
      "v": 39
    },
    {
      "midi": 60,
      "hit": false,
      "t": 71577.5,
      "d": 755,
      "v": 51
    },
    {
      "midi": 62,
      "hit": false,
      "t": 71807.5,
      "d": 600,
      "v": 52
    },
    {
      "midi": 63,
      "hit": false,
      "t": 72052.5,
      "d": 297.5,
      "v": 49
    },
    {
      "midi": 67,
      "hit": false,
      "t": 72292.5,
      "d": 235,
      "v": 46
    },
    {
      "midi": 69,
      "hit": false,
      "t": 72532.5,
      "d": 352.5,
      "v": 38
    },
    {
      "midi": 62,
      "hit": false,
      "t": 72757.5,
      "d": 100,
      "v": 41
    },
    {
      "midi": 60,
      "hit": false,
      "t": 72990,
      "d": 1312.5,
      "v": 25
    },
    {
      "midi": 67,
      "hit": false,
      "t": 72992.5,
      "d": 990,
      "v": 42
    },
    {
      "midi": 62,
      "hit": false,
      "t": 72995,
      "d": 1362.5,
      "v": 41
    },
    {
      "midi": 57,
      "hit": false,
      "t": 73017.5,
      "d": 1270,
      "v": 23
    },
    {
      "midi": 50,
      "hit": false,
      "t": 73017.5,
      "d": 1302.5,
      "v": 25
    },
    {
      "midi": 66,
      "hit": false,
      "t": 73935,
      "d": 420,
      "v": 39
    },
    {
      "midi": 62,
      "hit": false,
      "t": 74855,
      "d": 665,
      "v": 60
    },
    {
      "midi": 43,
      "hit": false,
      "t": 74870,
      "d": 2532.5,
      "v": 48
    },
    {
      "midi": 67,
      "hit": false,
      "t": 75102.5,
      "d": 320,
      "v": 49
    },
    {
      "midi": 74,
      "hit": false,
      "t": 75352.5,
      "d": 132.5,
      "v": 43
    },
    {
      "midi": 74,
      "hit": false,
      "t": 75600,
      "d": 227.5,
      "v": 90
    },
    {
      "midi": 59,
      "hit": false,
      "t": 75840,
      "d": 367.5,
      "v": 33
    },
    {
      "midi": 62,
      "hit": false,
      "t": 75892.5,
      "d": 335,
      "v": 31
    },
    {
      "midi": 67,
      "hit": false,
      "t": 76085,
      "d": 332.5,
      "v": 45
    },
    {
      "midi": 72,
      "hit": false,
      "t": 76307.5,
      "d": 135,
      "v": 49
    },
    {
      "midi": 62,
      "hit": false,
      "t": 76332.5,
      "d": 122.5,
      "v": 35
    },
    {
      "midi": 72,
      "hit": false,
      "t": 76557.5,
      "d": 447.5,
      "v": 63
    },
    {
      "midi": 62,
      "hit": false,
      "t": 76562.5,
      "d": 360,
      "v": 63
    },
    {
      "midi": 67,
      "hit": false,
      "t": 76562.5,
      "d": 405,
      "v": 65
    },
    {
      "midi": 62,
      "hit": false,
      "t": 77040,
      "d": 367.5,
      "v": 32
    },
    {
      "midi": 71,
      "hit": false,
      "t": 77275,
      "d": 147.5,
      "v": 54
    },
    {
      "midi": 67,
      "hit": false,
      "t": 77297.5,
      "d": 97.5,
      "v": 51
    },
    {
      "midi": 71,
      "hit": false,
      "t": 77522.5,
      "d": 675,
      "v": 70
    },
    {
      "midi": 67,
      "hit": false,
      "t": 77527.5,
      "d": 555,
      "v": 57
    },
    {
      "midi": 62,
      "hit": false,
      "t": 77530,
      "d": 355,
      "v": 63
    },
    {
      "midi": 54,
      "hit": false,
      "t": 77780,
      "d": 527.5,
      "v": 61
    },
    {
      "midi": 42,
      "hit": false,
      "t": 77780,
      "d": 547.5,
      "v": 59
    },
    {
      "midi": 62,
      "hit": false,
      "t": 78012.5,
      "d": 147.5,
      "v": 36
    },
    {
      "midi": 62,
      "hit": false,
      "t": 78257.5,
      "d": 105,
      "v": 33
    },
    {
      "midi": 69,
      "hit": false,
      "t": 78257.5,
      "d": 172.5,
      "v": 54
    },
    {
      "midi": 62,
      "hit": false,
      "t": 78475,
      "d": 360,
      "v": 61
    },
    {
      "midi": 67,
      "hit": false,
      "t": 78475,
      "d": 437.5,
      "v": 63
    },
    {
      "midi": 40,
      "hit": false,
      "t": 78727.5,
      "d": 220,
      "v": 46
    },
    {
      "midi": 52,
      "hit": false,
      "t": 78732.5,
      "d": 330,
      "v": 40
    },
    {
      "midi": 62,
      "hit": false,
      "t": 78980,
      "d": 367.5,
      "v": 39
    },
    {
      "midi": 74,
      "hit": false,
      "t": 79232.5,
      "d": 130,
      "v": 43
    },
    {
      "midi": 62,
      "hit": false,
      "t": 79442.5,
      "d": 300,
      "v": 59
    },
    {
      "midi": 67,
      "hit": false,
      "t": 79442.5,
      "d": 377.5,
      "v": 59
    },
    {
      "midi": 74,
      "hit": false,
      "t": 79447.5,
      "d": 310,
      "v": 59
    },
    {
      "midi": 59,
      "hit": false,
      "t": 79692.5,
      "d": 862.5,
      "v": 36
    },
    {
      "midi": 62,
      "hit": false,
      "t": 79912.5,
      "d": 370,
      "v": 41
    },
    {
      "midi": 72,
      "hit": false,
      "t": 80165,
      "d": 107.5,
      "v": 46
    },
    {
      "midi": 67,
      "hit": false,
      "t": 80172.5,
      "d": 100,
      "v": 41
    },
    {
      "midi": 72,
      "hit": false,
      "t": 80400,
      "d": 392.5,
      "v": 65
    },
    {
      "midi": 67,
      "hit": false,
      "t": 80405,
      "d": 372.5,
      "v": 59
    },
    {
      "midi": 62,
      "hit": false,
      "t": 80410,
      "d": 230,
      "v": 53
    },
    {
      "midi": 59,
      "hit": false,
      "t": 80642.5,
      "d": 1870,
      "v": 43
    },
    {
      "midi": 62,
      "hit": false,
      "t": 80867.5,
      "d": 355,
      "v": 49
    },
    {
      "midi": 71,
      "hit": false,
      "t": 81107.5,
      "d": 140,
      "v": 49
    },
    {
      "midi": 62,
      "hit": false,
      "t": 81350,
      "d": 372.5,
      "v": 57
    },
    {
      "midi": 71,
      "hit": false,
      "t": 81350,
      "d": 572.5,
      "v": 73
    },
    {
      "midi": 67,
      "hit": false,
      "t": 81355,
      "d": 507.5,
      "v": 66
    },
    {
      "midi": 50,
      "hit": false,
      "t": 81605,
      "d": 537.5,
      "v": 65
    },
    {
      "midi": 62,
      "hit": false,
      "t": 81832.5,
      "d": 157.5,
      "v": 32
    },
    {
      "midi": 69,
      "hit": false,
      "t": 82070,
      "d": 292.5,
      "v": 50
    },
    {
      "midi": 62,
      "hit": false,
      "t": 82080,
      "d": 132.5,
      "v": 45
    },
    {
      "midi": 62,
      "hit": false,
      "t": 82317.5,
      "d": 575,
      "v": 61
    },
    {
      "midi": 67,
      "hit": false,
      "t": 82322.5,
      "d": 612.5,
      "v": 61
    },
    {
      "midi": 48,
      "hit": false,
      "t": 82552.5,
      "d": 1495,
      "v": 59
    },
    {
      "midi": 55,
      "hit": false,
      "t": 82812.5,
      "d": 1245,
      "v": 45
    },
    {
      "midi": 60,
      "hit": false,
      "t": 83047.5,
      "d": 1010,
      "v": 35
    },
    {
      "midi": 62,
      "hit": false,
      "t": 83250,
      "d": 142.5,
      "v": 40
    },
    {
      "midi": 72,
      "hit": false,
      "t": 83510,
      "d": 165,
      "v": 61
    },
    {
      "midi": 64,
      "hit": false,
      "t": 83525,
      "d": 285,
      "v": 86
    },
    {
      "midi": 62,
      "hit": false,
      "t": 84015,
      "d": 157.5,
      "v": 52
    },
    {
      "midi": 71,
      "hit": false,
      "t": 84017.5,
      "d": 157.5,
      "v": 66
    },
    {
      "midi": 60,
      "hit": false,
      "t": 84487.5,
      "d": 1090,
      "v": 39
    },
    {
      "midi": 57,
      "hit": false,
      "t": 84492.5,
      "d": 415,
      "v": 36
    },
    {
      "midi": 50,
      "hit": false,
      "t": 84492.5,
      "d": 1545,
      "v": 45
    },
    {
      "midi": 69,
      "hit": false,
      "t": 84495,
      "d": 670,
      "v": 59
    },
    {
      "midi": 62,
      "hit": false,
      "t": 84495,
      "d": 830,
      "v": 60
    },
    {
      "midi": 57,
      "hit": false,
      "t": 84982.5,
      "d": 625,
      "v": 32
    },
    {
      "midi": 62,
      "hit": false,
      "t": 85472.5,
      "d": 630,
      "v": 84
    },
    {
      "midi": 66,
      "hit": false,
      "t": 85472.5,
      "d": 745,
      "v": 90
    },
    {
      "midi": 57,
      "hit": false,
      "t": 85985,
      "d": 97.5,
      "v": 24
    },
    {
      "midi": 62,
      "hit": false,
      "t": 86190,
      "d": 415,
      "v": 62
    },
    {
      "midi": 67,
      "hit": false,
      "t": 86195,
      "d": 442.5,
      "v": 55
    },
    {
      "midi": 43,
      "hit": false,
      "t": 86437.5,
      "d": 2502.5,
      "v": 58
    },
    {
      "midi": 50,
      "hit": false,
      "t": 86677.5,
      "d": 2587.5,
      "v": 50
    },
    {
      "midi": 55,
      "hit": false,
      "t": 86932.5,
      "d": 597.5,
      "v": 44
    },
    {
      "midi": 62,
      "hit": false,
      "t": 87142.5,
      "d": 610,
      "v": 52
    },
    {
      "midi": 74,
      "hit": false,
      "t": 87365,
      "d": 290,
      "v": 78
    },
    {
      "midi": 67,
      "hit": false,
      "t": 87372.5,
      "d": 357.5,
      "v": 77
    },
    {
      "midi": 62,
      "hit": false,
      "t": 87827.5,
      "d": 117.5,
      "v": 37
    },
    {
      "midi": 67,
      "hit": false,
      "t": 87830,
      "d": 110,
      "v": 44
    },
    {
      "midi": 72,
      "hit": false,
      "t": 88070,
      "d": 340,
      "v": 74
    },
    {
      "midi": 67,
      "hit": false,
      "t": 88075,
      "d": 340,
      "v": 66
    },
    {
      "midi": 62,
      "hit": false,
      "t": 88080,
      "d": 280,
      "v": 58
    },
    {
      "midi": 55,
      "hit": false,
      "t": 88325,
      "d": 577.5,
      "v": 58
    },
    {
      "midi": 62,
      "hit": false,
      "t": 88550,
      "d": 160,
      "v": 41
    },
    {
      "midi": 62,
      "hit": false,
      "t": 88777.5,
      "d": 135,
      "v": 42
    },
    {
      "midi": 71,
      "hit": false,
      "t": 88790,
      "d": 117.5,
      "v": 55
    },
    {
      "midi": 67,
      "hit": false,
      "t": 88810,
      "d": 47.5,
      "v": 33
    },
    {
      "midi": 67,
      "hit": false,
      "t": 89020,
      "d": 467.5,
      "v": 81
    },
    {
      "midi": 71,
      "hit": false,
      "t": 89022.5,
      "d": 587.5,
      "v": 97
    },
    {
      "midi": 62,
      "hit": false,
      "t": 89025,
      "d": 370,
      "v": 57
    },
    {
      "midi": 42,
      "hit": false,
      "t": 89280,
      "d": 500,
      "v": 63
    },
    {
      "midi": 54,
      "hit": false,
      "t": 89297.5,
      "d": 452.5,
      "v": 65
    },
    {
      "midi": 62,
      "hit": false,
      "t": 89532.5,
      "d": 125,
      "v": 43
    },
    {
      "midi": 69,
      "hit": false,
      "t": 89782.5,
      "d": 162.5,
      "v": 41
    },
    {
      "midi": 62,
      "hit": false,
      "t": 89790,
      "d": 97.5,
      "v": 35
    },
    {
      "midi": 67,
      "hit": false,
      "t": 90012.5,
      "d": 535,
      "v": 64
    },
    {
      "midi": 62,
      "hit": false,
      "t": 90017.5,
      "d": 825,
      "v": 58
    },
    {
      "midi": 40,
      "hit": false,
      "t": 90262.5,
      "d": 385,
      "v": 60
    },
    {
      "midi": 52,
      "hit": false,
      "t": 90267.5,
      "d": 270,
      "v": 59
    },
    {
      "midi": 47,
      "hit": false,
      "t": 90472.5,
      "d": 217.5,
      "v": 41
    },
    {
      "midi": 74,
      "hit": false,
      "t": 90745,
      "d": 112.5,
      "v": 59
    },
    {
      "midi": 52,
      "hit": false,
      "t": 90760,
      "d": 252.5,
      "v": 33
    },
    {
      "midi": 62,
      "hit": false,
      "t": 90962.5,
      "d": 335,
      "v": 50
    },
    {
      "midi": 74,
      "hit": false,
      "t": 90965,
      "d": 317.5,
      "v": 65
    },
    {
      "midi": 67,
      "hit": false,
      "t": 90965,
      "d": 362.5,
      "v": 78
    },
    {
      "midi": 55,
      "hit": false,
      "t": 91060,
      "d": 452.5,
      "v": 30
    },
    {
      "midi": 59,
      "hit": false,
      "t": 91272.5,
      "d": 207.5,
      "v": 47
    },
    {
      "midi": 62,
      "hit": false,
      "t": 91465,
      "d": 400,
      "v": 45
    },
    {
      "midi": 72,
      "hit": false,
      "t": 91707.5,
      "d": 150,
      "v": 55
    },
    {
      "midi": 67,
      "hit": false,
      "t": 91717.5,
      "d": 125,
      "v": 57
    },
    {
      "midi": 67,
      "hit": false,
      "t": 91952.5,
      "d": 545,
      "v": 73
    },
    {
      "midi": 72,
      "hit": false,
      "t": 91952.5,
      "d": 642.5,
      "v": 74
    },
    {
      "midi": 62,
      "hit": false,
      "t": 91960,
      "d": 310,
      "v": 70
    },
    {
      "midi": 52,
      "hit": false,
      "t": 92202.5,
      "d": 477.5,
      "v": 25
    },
    {
      "midi": 62,
      "hit": false,
      "t": 92412.5,
      "d": 152.5,
      "v": 44
    },
    {
      "midi": 62,
      "hit": false,
      "t": 92660,
      "d": 135,
      "v": 36
    },
    {
      "midi": 71,
      "hit": false,
      "t": 92660,
      "d": 147.5,
      "v": 73
    },
    {
      "midi": 67,
      "hit": false,
      "t": 92670,
      "d": 107.5,
      "v": 49
    },
    {
      "midi": 71,
      "hit": false,
      "t": 92902.5,
      "d": 680,
      "v": 94
    },
    {
      "midi": 62,
      "hit": false,
      "t": 92907.5,
      "d": 360,
      "v": 58
    },
    {
      "midi": 67,
      "hit": false,
      "t": 92907.5,
      "d": 505,
      "v": 83
    },
    {
      "midi": 50,
      "hit": false,
      "t": 93165,
      "d": 612.5,
      "v": 46
    },
    {
      "midi": 38,
      "hit": false,
      "t": 93167.5,
      "d": 670,
      "v": 63
    },
    {
      "midi": 62,
      "hit": false,
      "t": 93387.5,
      "d": 170,
      "v": 43
    },
    {
      "midi": 62,
      "hit": false,
      "t": 93622.5,
      "d": 135,
      "v": 46
    },
    {
      "midi": 69,
      "hit": false,
      "t": 93630,
      "d": 172.5,
      "v": 86
    },
    {
      "midi": 62,
      "hit": false,
      "t": 93845,
      "d": 402.5,
      "v": 57
    },
    {
      "midi": 67,
      "hit": false,
      "t": 93850,
      "d": 555,
      "v": 83
    },
    {
      "midi": 36,
      "hit": false,
      "t": 94107.5,
      "d": 1487.5,
      "v": 63
    },
    {
      "midi": 48,
      "hit": false,
      "t": 94117.5,
      "d": 1457.5,
      "v": 59
    },
    {
      "midi": 62,
      "hit": false,
      "t": 94362.5,
      "d": 327.5,
      "v": 39
    },
    {
      "midi": 64,
      "hit": false,
      "t": 94577.5,
      "d": 287.5,
      "v": 51
    },
    {
      "midi": 67,
      "hit": false,
      "t": 94795,
      "d": 307.5,
      "v": 46
    },
    {
      "midi": 72,
      "hit": false,
      "t": 95052.5,
      "d": 155,
      "v": 69
    },
    {
      "midi": 64,
      "hit": false,
      "t": 95052.5,
      "d": 200,
      "v": 105
    },
    {
      "midi": 71,
      "hit": false,
      "t": 95512.5,
      "d": 97.5,
      "v": 64
    },
    {
      "midi": 62,
      "hit": false,
      "t": 95527.5,
      "d": 95,
      "v": 59
    },
    {
      "midi": 62,
      "hit": false,
      "t": 95990,
      "d": 647.5,
      "v": 51
    },
    {
      "midi": 57,
      "hit": false,
      "t": 95995,
      "d": 457.5,
      "v": 54
    },
    {
      "midi": 48,
      "hit": false,
      "t": 95995,
      "d": 552.5,
      "v": 38
    },
    {
      "midi": 69,
      "hit": false,
      "t": 95995,
      "d": 565,
      "v": 66
    },
    {
      "midi": 38,
      "hit": false,
      "t": 96012.5,
      "d": 445,
      "v": 46
    },
    {
      "midi": 66,
      "hit": false,
      "t": 96932.5,
      "d": 210,
      "v": 54
    },
    {
      "midi": 62,
      "hit": false,
      "t": 96935,
      "d": 112.5,
      "v": 72
    },
    {
      "midi": 60,
      "hit": false,
      "t": 97437.5,
      "d": 97.5,
      "v": 33
    },
    {
      "midi": 55,
      "hit": false,
      "t": 97895,
      "d": 637.5,
      "v": 48
    },
    {
      "midi": 74,
      "hit": false,
      "t": 97907.5,
      "d": 595,
      "v": 64
    },
    {
      "midi": 67,
      "hit": false,
      "t": 97922.5,
      "d": 2700,
      "v": 27
    },
    {
      "midi": 79,
      "hit": false,
      "t": 98162.5,
      "d": 305,
      "v": 55
    },
    {
      "midi": 86,
      "hit": false,
      "t": 98387.5,
      "d": 132.5,
      "v": 61
    },
    {
      "midi": 86,
      "hit": false,
      "t": 98635,
      "d": 240,
      "v": 102
    },
    {
      "midi": 74,
      "hit": false,
      "t": 98865,
      "d": 520,
      "v": 43
    },
    {
      "midi": 79,
      "hit": false,
      "t": 99065,
      "d": 337.5,
      "v": 45
    },
    {
      "midi": 84,
      "hit": false,
      "t": 99325,
      "d": 132.5,
      "v": 59
    },
    {
      "midi": 84,
      "hit": false,
      "t": 99582.5,
      "d": 292.5,
      "v": 83
    },
    {
      "midi": 74,
      "hit": false,
      "t": 99827.5,
      "d": 600,
      "v": 52
    },
    {
      "midi": 79,
      "hit": false,
      "t": 100060,
      "d": 297.5,
      "v": 43
    },
    {
      "midi": 83,
      "hit": false,
      "t": 100312.5,
      "d": 132.5,
      "v": 49
    },
    {
      "midi": 83,
      "hit": false,
      "t": 100567.5,
      "d": 732.5,
      "v": 97
    },
    {
      "midi": 66,
      "hit": false,
      "t": 100815,
      "d": 672.5,
      "v": 53
    },
    {
      "midi": 74,
      "hit": false,
      "t": 101047.5,
      "d": 417.5,
      "v": 41
    },
    {
      "midi": 81,
      "hit": false,
      "t": 101287.5,
      "d": 272.5,
      "v": 61
    },
    {
      "midi": 79,
      "hit": false,
      "t": 101525,
      "d": 472.5,
      "v": 83
    },
    {
      "midi": 64,
      "hit": false,
      "t": 101757.5,
      "d": 2520,
      "v": 46
    },
    {
      "midi": 74,
      "hit": false,
      "t": 102007.5,
      "d": 585,
      "v": 44
    },
    {
      "midi": 86,
      "hit": false,
      "t": 102227.5,
      "d": 137.5,
      "v": 60
    },
    {
      "midi": 86,
      "hit": false,
      "t": 102475,
      "d": 255,
      "v": 78
    },
    {
      "midi": 74,
      "hit": false,
      "t": 102707.5,
      "d": 575,
      "v": 31
    },
    {
      "midi": 79,
      "hit": false,
      "t": 102947.5,
      "d": 320,
      "v": 47
    },
    {
      "midi": 84,
      "hit": false,
      "t": 103200,
      "d": 117.5,
      "v": 60
    },
    {
      "midi": 84,
      "hit": false,
      "t": 103430,
      "d": 497.5,
      "v": 94
    },
    {
      "midi": 74,
      "hit": false,
      "t": 103672.5,
      "d": 577.5,
      "v": 27
    },
    {
      "midi": 79,
      "hit": false,
      "t": 103912.5,
      "d": 300,
      "v": 43
    },
    {
      "midi": 83,
      "hit": false,
      "t": 104157.5,
      "d": 132.5,
      "v": 55
    },
    {
      "midi": 83,
      "hit": false,
      "t": 104400,
      "d": 752.5,
      "v": 88
    },
    {
      "midi": 62,
      "hit": false,
      "t": 104637.5,
      "d": 785,
      "v": 46
    },
    {
      "midi": 74,
      "hit": false,
      "t": 104872.5,
      "d": 980,
      "v": 41
    },
    {
      "midi": 81,
      "hit": false,
      "t": 105127.5,
      "d": 272.5,
      "v": 59
    },
    {
      "midi": 79,
      "hit": false,
      "t": 105352.5,
      "d": 617.5,
      "v": 78
    },
    {
      "midi": 60,
      "hit": false,
      "t": 105597.5,
      "d": 1480,
      "v": 46
    },
    {
      "midi": 67,
      "hit": false,
      "t": 105817.5,
      "d": 1265,
      "v": 47
    },
    {
      "midi": 72,
      "hit": false,
      "t": 106067.5,
      "d": 1055,
      "v": 49
    },
    {
      "midi": 74,
      "hit": false,
      "t": 106317.5,
      "d": 122.5,
      "v": 34
    },
    {
      "midi": 84,
      "hit": false,
      "t": 106562.5,
      "d": 140,
      "v": 67
    },
    {
      "midi": 76,
      "hit": false,
      "t": 106572.5,
      "d": 180,
      "v": 73
    },
    {
      "midi": 83,
      "hit": false,
      "t": 107050,
      "d": 320,
      "v": 61
    },
    {
      "midi": 74,
      "hit": false,
      "t": 107055,
      "d": 285,
      "v": 54
    },
    {
      "midi": 62,
      "hit": false,
      "t": 107517.5,
      "d": 917.5,
      "v": 44
    },
    {
      "midi": 81,
      "hit": false,
      "t": 107532.5,
      "d": 210,
      "v": 62
    },
    {
      "midi": 72,
      "hit": false,
      "t": 107532.5,
      "d": 282.5,
      "v": 46
    },
    {
      "midi": 74,
      "hit": false,
      "t": 107537.5,
      "d": 230,
      "v": 67
    },
    {
      "midi": 69,
      "hit": false,
      "t": 107767.5,
      "d": 552.5,
      "v": 39
    },
    {
      "midi": 72,
      "hit": false,
      "t": 108020,
      "d": 220,
      "v": 44
    },
    {
      "midi": 71,
      "hit": false,
      "t": 108515,
      "d": 527.5,
      "v": 66
    },
    {
      "midi": 60,
      "hit": false,
      "t": 108747.5,
      "d": 290,
      "v": 34
    },
    {
      "midi": 62,
      "hit": false,
      "t": 108752.5,
      "d": 27.5,
      "v": 35
    },
    {
      "midi": 57,
      "hit": false,
      "t": 108947.5,
      "d": 242.5,
      "v": 59
    },
    {
      "midi": 50,
      "hit": false,
      "t": 109207.5,
      "d": 52.5,
      "v": 37
    },
    {
      "midi": 62,
      "hit": false,
      "t": 109215,
      "d": 185,
      "v": 46
    },
    {
      "midi": 52,
      "hit": false,
      "t": 109475,
      "d": 945,
      "v": 57
    },
    {
      "midi": 67,
      "hit": false,
      "t": 109480,
      "d": 477.5,
      "v": 75
    },
    {
      "midi": 59,
      "hit": false,
      "t": 109692.5,
      "d": 627.5,
      "v": 44
    },
    {
      "midi": 64,
      "hit": false,
      "t": 109952.5,
      "d": 330,
      "v": 57
    },
    {
      "midi": 67,
      "hit": false,
      "t": 110175,
      "d": 167.5,
      "v": 53
    },
    {
      "midi": 59,
      "hit": false,
      "t": 110417.5,
      "d": 330,
      "v": 64
    },
    {
      "midi": 67,
      "hit": false,
      "t": 110420,
      "d": 327.5,
      "v": 75
    },
    {
      "midi": 64,
      "hit": false,
      "t": 110420,
      "d": 340,
      "v": 60
    },
    {
      "midi": 47,
      "hit": false,
      "t": 110660,
      "d": 135,
      "v": 23
    },
    {
      "midi": 67,
      "hit": false,
      "t": 110885,
      "d": 337.5,
      "v": 57
    },
    {
      "midi": 59,
      "hit": false,
      "t": 110902.5,
      "d": 345,
      "v": 48
    },
    {
      "midi": 64,
      "hit": false,
      "t": 110912.5,
      "d": 52.5,
      "v": 44
    },
    {
      "midi": 69,
      "hit": false,
      "t": 111112.5,
      "d": 95,
      "v": 45
    },
    {
      "midi": 47,
      "hit": false,
      "t": 111115,
      "d": 197.5,
      "v": 38
    },
    {
      "midi": 64,
      "hit": false,
      "t": 111130,
      "d": 82.5,
      "v": 41
    },
    {
      "midi": 67,
      "hit": false,
      "t": 111365,
      "d": 347.5,
      "v": 49
    },
    {
      "midi": 40,
      "hit": false,
      "t": 111367.5,
      "d": 1280,
      "v": 57
    },
    {
      "midi": 64,
      "hit": false,
      "t": 111375,
      "d": 322.5,
      "v": 47
    },
    {
      "midi": 59,
      "hit": false,
      "t": 111375,
      "d": 332.5,
      "v": 51
    },
    {
      "midi": 71,
      "hit": false,
      "t": 111377.5,
      "d": 272.5,
      "v": 68
    },
    {
      "midi": 47,
      "hit": false,
      "t": 111605,
      "d": 1090,
      "v": 37
    },
    {
      "midi": 67,
      "hit": false,
      "t": 111825,
      "d": 307.5,
      "v": 48
    },
    {
      "midi": 59,
      "hit": false,
      "t": 111840,
      "d": 187.5,
      "v": 46
    },
    {
      "midi": 64,
      "hit": false,
      "t": 111850,
      "d": 130,
      "v": 40
    },
    {
      "midi": 69,
      "hit": false,
      "t": 112087.5,
      "d": 232.5,
      "v": 64
    },
    {
      "midi": 59,
      "hit": false,
      "t": 112087.5,
      "d": 292.5,
      "v": 40
    },
    {
      "midi": 64,
      "hit": false,
      "t": 112092.5,
      "d": 305,
      "v": 55
    },
    {
      "midi": 55,
      "hit": false,
      "t": 112352.5,
      "d": 305,
      "v": 43
    },
    {
      "midi": 64,
      "hit": false,
      "t": 112582.5,
      "d": 280,
      "v": 51
    },
    {
      "midi": 71,
      "hit": false,
      "t": 112600,
      "d": 267.5,
      "v": 59
    },
    {
      "midi": 55,
      "hit": false,
      "t": 112860,
      "d": 407.5,
      "v": 36
    },
    {
      "midi": 71,
      "hit": false,
      "t": 113060,
      "d": 522.5,
      "v": 58
    },
    {
      "midi": 64,
      "hit": false,
      "t": 113060,
      "d": 780,
      "v": 54
    },
    {
      "midi": 45,
      "hit": false,
      "t": 113305,
      "d": 1432.5,
      "v": 61
    },
    {
      "midi": 60,
      "hit": false,
      "t": 113525,
      "d": 297.5,
      "v": 40
    },
    {
      "midi": 69,
      "hit": false,
      "t": 113525,
      "d": 320,
      "v": 49
    },
    {
      "midi": 72,
      "hit": false,
      "t": 113530,
      "d": 287.5,
      "v": 53
    },
    {
      "midi": 52,
      "hit": false,
      "t": 113795,
      "d": 772.5,
      "v": 34
    },
    {
      "midi": 69,
      "hit": false,
      "t": 113987.5,
      "d": 527.5,
      "v": 47
    },
    {
      "midi": 64,
      "hit": false,
      "t": 113997.5,
      "d": 367.5,
      "v": 61
    },
    {
      "midi": 72,
      "hit": false,
      "t": 114002.5,
      "d": 627.5,
      "v": 52
    },
    {
      "midi": 60,
      "hit": false,
      "t": 114250,
      "d": 295,
      "v": 46
    },
    {
      "midi": 60,
      "hit": false,
      "t": 114715,
      "d": 317.5,
      "v": 45
    },
    {
      "midi": 71,
      "hit": false,
      "t": 114722.5,
      "d": 272.5,
      "v": 49
    },
    {
      "midi": 64,
      "hit": false,
      "t": 114765,
      "d": 105,
      "v": 25
    },
    {
      "midi": 52,
      "hit": false,
      "t": 114945,
      "d": 240,
      "v": 35
    },
    {
      "midi": 69,
      "hit": false,
      "t": 114950,
      "d": 532.5,
      "v": 35
    },
    {
      "midi": 64,
      "hit": false,
      "t": 115202.5,
      "d": 295,
      "v": 42
    },
    {
      "midi": 60,
      "hit": false,
      "t": 115202.5,
      "d": 300,
      "v": 44
    },
    {
      "midi": 45,
      "hit": false,
      "t": 115212.5,
      "d": 1540,
      "v": 55
    },
    {
      "midi": 52,
      "hit": false,
      "t": 115447.5,
      "d": 475,
      "v": 38
    },
    {
      "midi": 67,
      "hit": false,
      "t": 115660,
      "d": 262.5,
      "v": 49
    },
    {
      "midi": 64,
      "hit": false,
      "t": 115675,
      "d": 145,
      "v": 29
    },
    {
      "midi": 60,
      "hit": false,
      "t": 115690,
      "d": 970,
      "v": 32
    },
    {
      "midi": 64,
      "hit": false,
      "t": 115912.5,
      "d": 455,
      "v": 53
    },
    {
      "midi": 69,
      "hit": false,
      "t": 115912.5,
      "d": 570,
      "v": 65
    },
    {
      "midi": 52,
      "hit": false,
      "t": 116242.5,
      "d": 70,
      "v": 15
    },
    {
      "midi": 71,
      "hit": false,
      "t": 116432.5,
      "d": 252.5,
      "v": 62
    },
    {
      "midi": 64,
      "hit": false,
      "t": 116437.5,
      "d": 167.5,
      "v": 25
    },
    {
      "midi": 67,
      "hit": false,
      "t": 116437.5,
      "d": 270,
      "v": 61
    },
    {
      "midi": 52,
      "hit": false,
      "t": 116690,
      "d": 130,
      "v": 35
    },
    {
      "midi": 67,
      "hit": false,
      "t": 116887.5,
      "d": 502.5,
      "v": 54
    },
    {
      "midi": 71,
      "hit": false,
      "t": 116897.5,
      "d": 330,
      "v": 64
    },
    {
      "midi": 42,
      "hit": false,
      "t": 117117.5,
      "d": 1747.5,
      "v": 50
    },
    {
      "midi": 69,
      "hit": false,
      "t": 117325,
      "d": 407.5,
      "v": 45
    },
    {
      "midi": 72,
      "hit": false,
      "t": 117342.5,
      "d": 405,
      "v": 65
    },
    {
      "midi": 50,
      "hit": false,
      "t": 117582.5,
      "d": 985,
      "v": 41
    },
    {
      "midi": 69,
      "hit": false,
      "t": 117822.5,
      "d": 695,
      "v": 62
    },
    {
      "midi": 66,
      "hit": false,
      "t": 117832.5,
      "d": 665,
      "v": 74
    },
    {
      "midi": 72,
      "hit": false,
      "t": 117832.5,
      "d": 705,
      "v": 58
    },
    {
      "midi": 54,
      "hit": false,
      "t": 118562.5,
      "d": 297.5,
      "v": 47
    },
    {
      "midi": 62,
      "hit": false,
      "t": 118802.5,
      "d": 610,
      "v": 37
    },
    {
      "midi": 66,
      "hit": false,
      "t": 118887.5,
      "d": 520,
      "v": 46
    },
    {
      "midi": 69,
      "hit": false,
      "t": 118955,
      "d": 452.5,
      "v": 42
    },
    {
      "midi": 42,
      "hit": false,
      "t": 119057.5,
      "d": 365,
      "v": 58
    },
    {
      "midi": 72,
      "hit": false,
      "t": 119080,
      "d": 302.5,
      "v": 99
    },
    {
      "midi": 50,
      "hit": false,
      "t": 119267.5,
      "d": 170,
      "v": 41
    },
    {
      "midi": 66,
      "hit": false,
      "t": 119517.5,
      "d": 282.5,
      "v": 49
    },
    {
      "midi": 72,
      "hit": false,
      "t": 119517.5,
      "d": 282.5,
      "v": 57
    },
    {
      "midi": 54,
      "hit": false,
      "t": 119537.5,
      "d": 315,
      "v": 44
    },
    {
      "midi": 71,
      "hit": false,
      "t": 119767.5,
      "d": 610,
      "v": 73
    },
    {
      "midi": 62,
      "hit": false,
      "t": 119772.5,
      "d": 780,
      "v": 66
    },
    {
      "midi": 57,
      "hit": false,
      "t": 120020,
      "d": 580,
      "v": 31
    },
    {
      "midi": 69,
      "hit": false,
      "t": 120267.5,
      "d": 310,
      "v": 68
    },
    {
      "midi": 69,
      "hit": false,
      "t": 120692.5,
      "d": 140,
      "v": 40
    },
    {
      "midi": 62,
      "hit": false,
      "t": 120747.5,
      "d": 697.5,
      "v": 41
    },
    {
      "midi": 71,
      "hit": false,
      "t": 120810,
      "d": 670,
      "v": 63
    },
    {
      "midi": 43,
      "hit": false,
      "t": 121005,
      "d": 1447.5,
      "v": 51
    },
    {
      "midi": 50,
      "hit": false,
      "t": 121265,
      "d": 902.5,
      "v": 45
    },
    {
      "midi": 59,
      "hit": false,
      "t": 121522.5,
      "d": 652.5,
      "v": 43
    },
    {
      "midi": 62,
      "hit": false,
      "t": 121732.5,
      "d": 1072.5,
      "v": 54
    },
    {
      "midi": 67,
      "hit": false,
      "t": 121967.5,
      "d": 730,
      "v": 66
    },
    {
      "midi": 50,
      "hit": false,
      "t": 122410,
      "d": 297.5,
      "v": 38
    },
    {
      "midi": 71,
      "hit": false,
      "t": 122650,
      "d": 270,
      "v": 61
    },
    {
      "midi": 42,
      "hit": false,
      "t": 122887.5,
      "d": 607.5,
      "v": 41
    },
    {
      "midi": 69,
      "hit": false,
      "t": 122900,
      "d": 682.5,
      "v": 81
    },
    {
      "midi": 62,
      "hit": false,
      "t": 122902.5,
      "d": 402.5,
      "v": 69
    },
    {
      "midi": 50,
      "hit": false,
      "t": 123137.5,
      "d": 385,
      "v": 40
    },
    {
      "midi": 54,
      "hit": false,
      "t": 123377.5,
      "d": 122.5,
      "v": 36
    },
    {
      "midi": 59,
      "hit": false,
      "t": 123612.5,
      "d": 1577.5,
      "v": 42
    },
    {
      "midi": 39,
      "hit": false,
      "t": 123860,
      "d": 702.5,
      "v": 44
    },
    {
      "midi": 63,
      "hit": false,
      "t": 123865,
      "d": 772.5,
      "v": 68
    },
    {
      "midi": 47,
      "hit": false,
      "t": 124105,
      "d": 427.5,
      "v": 28
    },
    {
      "midi": 66,
      "hit": false,
      "t": 124110,
      "d": 287.5,
      "v": 46
    },
    {
      "midi": 51,
      "hit": false,
      "t": 124345,
      "d": 217.5,
      "v": 27
    },
    {
      "midi": 71,
      "hit": false,
      "t": 124347.5,
      "d": 302.5,
      "v": 65
    },
    {
      "midi": 69,
      "hit": false,
      "t": 124587.5,
      "d": 297.5,
      "v": 66
    },
    {
      "midi": 67,
      "hit": false,
      "t": 124837.5,
      "d": 357.5,
      "v": 67
    },
    {
      "midi": 64,
      "hit": false,
      "t": 124842.5,
      "d": 380,
      "v": 63
    },
    {
      "midi": 40,
      "hit": false,
      "t": 124850,
      "d": 1622.5,
      "v": 56
    },
    {
      "midi": 47,
      "hit": false,
      "t": 125090,
      "d": 787.5,
      "v": 40
    },
    {
      "midi": 55,
      "hit": false,
      "t": 125345,
      "d": 532.5,
      "v": 36
    },
    {
      "midi": 59,
      "hit": false,
      "t": 125552.5,
      "d": 562.5,
      "v": 48
    },
    {
      "midi": 64,
      "hit": false,
      "t": 125785,
      "d": 482.5,
      "v": 65
    },
    {
      "midi": 47,
      "hit": false,
      "t": 126037.5,
      "d": 47.5,
      "v": 16
    },
    {
      "midi": 59,
      "hit": false,
      "t": 126272.5,
      "d": 130,
      "v": 59
    },
    {
      "midi": 67,
      "hit": false,
      "t": 126272.5,
      "d": 250,
      "v": 59
    },
    {
      "midi": 47,
      "hit": false,
      "t": 126485,
      "d": 237.5,
      "v": 32
    },
    {
      "midi": 60,
      "hit": false,
      "t": 126505,
      "d": 125,
      "v": 79
    },
    {
      "midi": 69,
      "hit": false,
      "t": 126505,
      "d": 142.5,
      "v": 46
    },
    {
      "midi": 62,
      "hit": false,
      "t": 126757.5,
      "d": 412.5,
      "v": 55
    },
    {
      "midi": 71,
      "hit": false,
      "t": 126762.5,
      "d": 470,
      "v": 83
    },
    {
      "midi": 40,
      "hit": false,
      "t": 126762.5,
      "d": 1132.5,
      "v": 42
    },
    {
      "midi": 47,
      "hit": false,
      "t": 126987.5,
      "d": 917.5,
      "v": 42
    },
    {
      "midi": 67,
      "hit": false,
      "t": 127237.5,
      "d": 277.5,
      "v": 55
    },
    {
      "midi": 55,
      "hit": false,
      "t": 127265,
      "d": 555,
      "v": 30
    },
    {
      "midi": 64,
      "hit": false,
      "t": 127470,
      "d": 345,
      "v": 46
    },
    {
      "midi": 59,
      "hit": false,
      "t": 127475,
      "d": 460,
      "v": 53
    },
    {
      "midi": 69,
      "hit": false,
      "t": 127475,
      "d": 502.5,
      "v": 55
    },
    {
      "midi": 71,
      "hit": false,
      "t": 127957.5,
      "d": 195,
      "v": 59
    },
    {
      "midi": 67,
      "hit": false,
      "t": 127962.5,
      "d": 282.5,
      "v": 52
    },
    {
      "midi": 64,
      "hit": false,
      "t": 127967.5,
      "d": 130,
      "v": 41
    },
    {
      "midi": 55,
      "hit": false,
      "t": 128202.5,
      "d": 325,
      "v": 29
    },
    {
      "midi": 71,
      "hit": false,
      "t": 128442.5,
      "d": 307.5,
      "v": 65
    },
    {
      "midi": 67,
      "hit": false,
      "t": 128457.5,
      "d": 482.5,
      "v": 45
    },
    {
      "midi": 64,
      "hit": false,
      "t": 128457.5,
      "d": 712.5,
      "v": 56
    },
    {
      "midi": 45,
      "hit": false,
      "t": 128655,
      "d": 1680,
      "v": 43
    },
    {
      "midi": 69,
      "hit": false,
      "t": 128907.5,
      "d": 300,
      "v": 42
    },
    {
      "midi": 60,
      "hit": false,
      "t": 128910,
      "d": 247.5,
      "v": 33
    },
    {
      "midi": 72,
      "hit": false,
      "t": 128925,
      "d": 230,
      "v": 48
    },
    {
      "midi": 52,
      "hit": false,
      "t": 128930,
      "d": 672.5,
      "v": 33
    },
    {
      "midi": 57,
      "hit": false,
      "t": 129150,
      "d": 382.5,
      "v": 31
    },
    {
      "midi": 72,
      "hit": false,
      "t": 129647.5,
      "d": 267.5,
      "v": 58
    },
    {
      "midi": 52,
      "hit": false,
      "t": 129857.5,
      "d": 332.5,
      "v": 44
    },
    {
      "midi": 72,
      "hit": false,
      "t": 130107.5,
      "d": 105,
      "v": 58
    },
    {
      "midi": 81,
      "hit": false,
      "t": 130107.5,
      "d": 112.5,
      "v": 59
    },
    {
      "midi": 83,
      "hit": false,
      "t": 130340,
      "d": 112.5,
      "v": 68
    },
    {
      "midi": 74,
      "hit": false,
      "t": 130345,
      "d": 92.5,
      "v": 49
    },
    {
      "midi": 84,
      "hit": false,
      "t": 130587.5,
      "d": 97.5,
      "v": 79
    },
    {
      "midi": 76,
      "hit": false,
      "t": 130587.5,
      "d": 115,
      "v": 90
    },
    {
      "midi": 45,
      "hit": false,
      "t": 130615,
      "d": 1390,
      "v": 42
    },
    {
      "midi": 52,
      "hit": false,
      "t": 130827.5,
      "d": 1147.5,
      "v": 23
    },
    {
      "midi": 57,
      "hit": false,
      "t": 131062.5,
      "d": 805,
      "v": 33
    },
    {
      "midi": 64,
      "hit": false,
      "t": 131290,
      "d": 385,
      "v": 57
    },
    {
      "midi": 67,
      "hit": false,
      "t": 131295,
      "d": 435,
      "v": 59
    },
    {
      "midi": 60,
      "hit": false,
      "t": 131295,
      "d": 720,
      "v": 55
    },
    {
      "midi": 71,
      "hit": false,
      "t": 131762.5,
      "d": 257.5,
      "v": 57
    },
    {
      "midi": 64,
      "hit": false,
      "t": 131777.5,
      "d": 250,
      "v": 57
    },
    {
      "midi": 57,
      "hit": false,
      "t": 132010,
      "d": 430,
      "v": 30
    },
    {
      "midi": 71,
      "hit": false,
      "t": 132230,
      "d": 367.5,
      "v": 69
    },
    {
      "midi": 67,
      "hit": false,
      "t": 132232.5,
      "d": 535,
      "v": 66
    },
    {
      "midi": 50,
      "hit": false,
      "t": 132492.5,
      "d": 1512.5,
      "v": 54
    },
    {
      "midi": 66,
      "hit": false,
      "t": 132732.5,
      "d": 285,
      "v": 40
    },
    {
      "midi": 57,
      "hit": false,
      "t": 132747.5,
      "d": 772.5,
      "v": 38
    },
    {
      "midi": 72,
      "hit": false,
      "t": 132757.5,
      "d": 205,
      "v": 31
    },
    {
      "midi": 69,
      "hit": false,
      "t": 132757.5,
      "d": 257.5,
      "v": 29
    },
    {
      "midi": 74,
      "hit": false,
      "t": 132762.5,
      "d": 100,
      "v": 32
    },
    {
      "midi": 60,
      "hit": false,
      "t": 132977.5,
      "d": 590,
      "v": 26
    },
    {
      "midi": 72,
      "hit": false,
      "t": 133212.5,
      "d": 555,
      "v": 66
    },
    {
      "midi": 69,
      "hit": false,
      "t": 133215,
      "d": 547.5,
      "v": 58
    },
    {
      "midi": 66,
      "hit": false,
      "t": 133217.5,
      "d": 507.5,
      "v": 79
    },
    {
      "midi": 57,
      "hit": false,
      "t": 133735,
      "d": 240,
      "v": 42
    },
    {
      "midi": 62,
      "hit": false,
      "t": 133955,
      "d": 372.5,
      "v": 57
    },
    {
      "midi": 66,
      "hit": false,
      "t": 134172.5,
      "d": 182.5,
      "v": 49
    },
    {
      "midi": 72,
      "hit": false,
      "t": 134410,
      "d": 252.5,
      "v": 62
    },
    {
      "midi": 69,
      "hit": false,
      "t": 134417.5,
      "d": 250,
      "v": 53
    },
    {
      "midi": 62,
      "hit": false,
      "t": 134420,
      "d": 222.5,
      "v": 55
    },
    {
      "midi": 66,
      "hit": false,
      "t": 134425,
      "d": 187.5,
      "v": 41
    },
    {
      "midi": 50,
      "hit": false,
      "t": 134427.5,
      "d": 265,
      "v": 48
    },
    {
      "midi": 38,
      "hit": false,
      "t": 134437.5,
      "d": 265,
      "v": 58
    },
    {
      "midi": 62,
      "hit": false,
      "t": 134880,
      "d": 612.5,
      "v": 46
    },
    {
      "midi": 72,
      "hit": false,
      "t": 134887.5,
      "d": 282.5,
      "v": 52
    },
    {
      "midi": 66,
      "hit": false,
      "t": 134900,
      "d": 805,
      "v": 46
    },
    {
      "midi": 71,
      "hit": false,
      "t": 135135,
      "d": 527.5,
      "v": 64
    },
    {
      "midi": 50,
      "hit": false,
      "t": 135157.5,
      "d": 840,
      "v": 46
    },
    {
      "midi": 60,
      "hit": false,
      "t": 135382.5,
      "d": 407.5,
      "v": 37
    },
    {
      "midi": 69,
      "hit": false,
      "t": 135627.5,
      "d": 525,
      "v": 68
    },
    {
      "midi": 62,
      "hit": false,
      "t": 135632.5,
      "d": 415,
      "v": 59
    },
    {
      "midi": 57,
      "hit": false,
      "t": 135897.5,
      "d": 100,
      "v": 29
    },
    {
      "midi": 62,
      "hit": false,
      "t": 136095,
      "d": 645,
      "v": 36
    },
    {
      "midi": 71,
      "hit": false,
      "t": 136122.5,
      "d": 660,
      "v": 56
    },
    {
      "midi": 43,
      "hit": false,
      "t": 136375,
      "d": 1417.5,
      "v": 61
    },
    {
      "midi": 50,
      "hit": false,
      "t": 136595,
      "d": 757.5,
      "v": 53
    },
    {
      "midi": 59,
      "hit": false,
      "t": 136847.5,
      "d": 455,
      "v": 49
    },
    {
      "midi": 62,
      "hit": false,
      "t": 137065,
      "d": 432.5,
      "v": 44
    },
    {
      "midi": 71,
      "hit": false,
      "t": 137280,
      "d": 215,
      "v": 49
    },
    {
      "midi": 71,
      "hit": false,
      "t": 137752.5,
      "d": 257.5,
      "v": 62
    },
    {
      "midi": 62,
      "hit": false,
      "t": 137762.5,
      "d": 307.5,
      "v": 46
    },
    {
      "midi": 69,
      "hit": false,
      "t": 137990,
      "d": 277.5,
      "v": 45
    },
    {
      "midi": 50,
      "hit": false,
      "t": 138035,
      "d": 112.5,
      "v": 22
    },
    {
      "midi": 67,
      "hit": false,
      "t": 138235,
      "d": 327.5,
      "v": 63
    },
    {
      "midi": 62,
      "hit": false,
      "t": 138240,
      "d": 265,
      "v": 58
    },
    {
      "midi": 43,
      "hit": false,
      "t": 138267.5,
      "d": 1015,
      "v": 46
    },
    {
      "midi": 50,
      "hit": false,
      "t": 138470,
      "d": 832.5,
      "v": 39
    },
    {
      "midi": 59,
      "hit": false,
      "t": 138727.5,
      "d": 515,
      "v": 39
    },
    {
      "midi": 62,
      "hit": false,
      "t": 138957.5,
      "d": 830,
      "v": 52
    },
    {
      "midi": 67,
      "hit": false,
      "t": 139205,
      "d": 362.5,
      "v": 68
    },
    {
      "midi": 71,
      "hit": false,
      "t": 139210,
      "d": 557.5,
      "v": 102
    },
    {
      "midi": 72,
      "hit": false,
      "t": 139697.5,
      "d": 142.5,
      "v": 61
    },
    {
      "midi": 67,
      "hit": false,
      "t": 139955,
      "d": 90,
      "v": 49
    },
    {
      "midi": 74,
      "hit": false,
      "t": 139962.5,
      "d": 117.5,
      "v": 46
    },
    {
      "midi": 36,
      "hit": false,
      "t": 140207.5,
      "d": 370,
      "v": 59
    },
    {
      "midi": 67,
      "hit": false,
      "t": 140212.5,
      "d": 442.5,
      "v": 70
    },
    {
      "midi": 74,
      "hit": false,
      "t": 140217.5,
      "d": 315,
      "v": 83
    },
    {
      "midi": 43,
      "hit": false,
      "t": 140450,
      "d": 187.5,
      "v": 47
    },
    {
      "midi": 52,
      "hit": false,
      "t": 140702.5,
      "d": 192.5,
      "v": 42
    },
    {
      "midi": 48,
      "hit": false,
      "t": 140927.5,
      "d": 825,
      "v": 32
    },
    {
      "midi": 67,
      "hit": false,
      "t": 140940,
      "d": 517.5,
      "v": 67
    },
    {
      "midi": 76,
      "hit": false,
      "t": 140945,
      "d": 567.5,
      "v": 74
    },
    {
      "midi": 64,
      "hit": false,
      "t": 141465,
      "d": 550,
      "v": 54
    },
    {
      "midi": 67,
      "hit": false,
      "t": 141702.5,
      "d": 275,
      "v": 61
    },
    {
      "midi": 71,
      "hit": false,
      "t": 141900,
      "d": 565,
      "v": 54
    },
    {
      "midi": 64,
      "hit": false,
      "t": 142125,
      "d": 382.5,
      "v": 50
    },
    {
      "midi": 67,
      "hit": false,
      "t": 142130,
      "d": 315,
      "v": 53
    },
    {
      "midi": 48,
      "hit": false,
      "t": 142130,
      "d": 1200,
      "v": 53
    },
    {
      "midi": 76,
      "hit": false,
      "t": 142140,
      "d": 287.5,
      "v": 74
    },
    {
      "midi": 64,
      "hit": false,
      "t": 142837.5,
      "d": 280,
      "v": 50
    },
    {
      "midi": 67,
      "hit": false,
      "t": 142837.5,
      "d": 285,
      "v": 49
    },
    {
      "midi": 74,
      "hit": false,
      "t": 142847.5,
      "d": 430,
      "v": 50
    },
    {
      "midi": 59,
      "hit": false,
      "t": 143077.5,
      "d": 550,
      "v": 44
    },
    {
      "midi": 64,
      "hit": false,
      "t": 143300,
      "d": 227.5,
      "v": 62
    },
    {
      "midi": 72,
      "hit": false,
      "t": 143300,
      "d": 227.5,
      "v": 88
    },
    {
      "midi": 67,
      "hit": false,
      "t": 143305,
      "d": 227.5,
      "v": 79
    },
    {
      "midi": 48,
      "hit": false,
      "t": 143535,
      "d": 152.5,
      "v": 46
    },
    {
      "midi": 62,
      "hit": false,
      "t": 143807.5,
      "d": 605,
      "v": 32
    },
    {
      "midi": 66,
      "hit": false,
      "t": 143885,
      "d": 562.5,
      "v": 45
    },
    {
      "midi": 71,
      "hit": false,
      "t": 143977.5,
      "d": 477.5,
      "v": 47
    },
    {
      "midi": 74,
      "hit": false,
      "t": 144032.5,
      "d": 432.5,
      "v": 70
    },
    {
      "midi": 47,
      "hit": false,
      "t": 144040,
      "d": 1222.5,
      "v": 57
    },
    {
      "midi": 54,
      "hit": false,
      "t": 144277.5,
      "d": 640,
      "v": 37
    },
    {
      "midi": 59,
      "hit": false,
      "t": 144507.5,
      "d": 520,
      "v": 47
    },
    {
      "midi": 69,
      "hit": false,
      "t": 144730,
      "d": 247.5,
      "v": 60
    },
    {
      "midi": 66,
      "hit": false,
      "t": 144735,
      "d": 265,
      "v": 66
    },
    {
      "midi": 62,
      "hit": false,
      "t": 144745,
      "d": 295,
      "v": 69
    },
    {
      "midi": 54,
      "hit": false,
      "t": 144972.5,
      "d": 495,
      "v": 45
    },
    {
      "midi": 47,
      "hit": false,
      "t": 145442.5,
      "d": 90,
      "v": 50
    },
    {
      "midi": 66,
      "hit": false,
      "t": 145445,
      "d": 132.5,
      "v": 58
    },
    {
      "midi": 67,
      "hit": false,
      "t": 145920,
      "d": 430,
      "v": 59
    },
    {
      "midi": 59,
      "hit": false,
      "t": 145922.5,
      "d": 437.5,
      "v": 59
    },
    {
      "midi": 64,
      "hit": false,
      "t": 145925,
      "d": 430,
      "v": 51
    },
    {
      "midi": 40,
      "hit": false,
      "t": 145927.5,
      "d": 1115,
      "v": 59
    },
    {
      "midi": 47,
      "hit": false,
      "t": 146180,
      "d": 650,
      "v": 37
    },
    {
      "midi": 55,
      "hit": false,
      "t": 146437.5,
      "d": 470,
      "v": 55
    },
    {
      "midi": 64,
      "hit": false,
      "t": 146662.5,
      "d": 302.5,
      "v": 59
    },
    {
      "midi": 69,
      "hit": false,
      "t": 146667.5,
      "d": 187.5,
      "v": 65
    },
    {
      "midi": 59,
      "hit": false,
      "t": 146672.5,
      "d": 332.5,
      "v": 65
    },
    {
      "midi": 71,
      "hit": false,
      "t": 147132.5,
      "d": 160,
      "v": 61
    },
    {
      "midi": 72,
      "hit": false,
      "t": 147137.5,
      "d": 150,
      "v": 64
    },
    {
      "midi": 64,
      "hit": false,
      "t": 147142.5,
      "d": 335,
      "v": 61
    },
    {
      "midi": 71,
      "hit": false,
      "t": 147355,
      "d": 57.5,
      "v": 29
    },
    {
      "midi": 55,
      "hit": false,
      "t": 147372.5,
      "d": 332.5,
      "v": 56
    },
    {
      "midi": 60,
      "hit": false,
      "t": 147662.5,
      "d": 515,
      "v": 37
    },
    {
      "midi": 64,
      "hit": false,
      "t": 147752.5,
      "d": 420,
      "v": 37
    },
    {
      "midi": 69,
      "hit": false,
      "t": 147795,
      "d": 437.5,
      "v": 47
    },
    {
      "midi": 72,
      "hit": false,
      "t": 147832.5,
      "d": 422.5,
      "v": 99
    },
    {
      "midi": 45,
      "hit": false,
      "t": 147842.5,
      "d": 320,
      "v": 64
    },
    {
      "midi": 52,
      "hit": false,
      "t": 148090,
      "d": 170,
      "v": 49
    },
    {
      "midi": 57,
      "hit": false,
      "t": 148327.5,
      "d": 280,
      "v": 53
    },
    {
      "midi": 60,
      "hit": false,
      "t": 148547.5,
      "d": 235,
      "v": 53
    },
    {
      "midi": 64,
      "hit": false,
      "t": 148810,
      "d": 305,
      "v": 69
    },
    {
      "midi": 72,
      "hit": false,
      "t": 149275,
      "d": 295,
      "v": 59
    },
    {
      "midi": 69,
      "hit": false,
      "t": 149280,
      "d": 332.5,
      "v": 59
    },
    {
      "midi": 64,
      "hit": false,
      "t": 149285,
      "d": 345,
      "v": 68
    },
    {
      "midi": 57,
      "hit": false,
      "t": 149322.5,
      "d": 262.5,
      "v": 32
    },
    {
      "midi": 74,
      "hit": false,
      "t": 149507.5,
      "d": 227.5,
      "v": 78
    },
    {
      "midi": 45,
      "hit": false,
      "t": 149580,
      "d": 40,
      "v": 25
    },
    {
      "midi": 45,
      "hit": false,
      "t": 149752.5,
      "d": 257.5,
      "v": 56
    },
    {
      "midi": 64,
      "hit": false,
      "t": 149755,
      "d": 325,
      "v": 65
    },
    {
      "midi": 69,
      "hit": false,
      "t": 149760,
      "d": 267.5,
      "v": 77
    },
    {
      "midi": 72,
      "hit": false,
      "t": 149760,
      "d": 350,
      "v": 84
    },
    {
      "midi": 52,
      "hit": false,
      "t": 149967.5,
      "d": 162.5,
      "v": 27
    },
    {
      "midi": 57,
      "hit": false,
      "t": 150220,
      "d": 252.5,
      "v": 39
    },
    {
      "midi": 60,
      "hit": false,
      "t": 150477.5,
      "d": 482.5,
      "v": 31
    },
    {
      "midi": 71,
      "hit": false,
      "t": 150730,
      "d": 237.5,
      "v": 69
    },
    {
      "midi": 64,
      "hit": false,
      "t": 150745,
      "d": 220,
      "v": 75
    },
    {
      "midi": 60,
      "hit": false,
      "t": 151202.5,
      "d": 122.5,
      "v": 38
    },
    {
      "midi": 71,
      "hit": false,
      "t": 151510,
      "d": 212.5,
      "v": 47
    },
    {
      "midi": 69,
      "hit": false,
      "t": 151652.5,
      "d": 202.5,
      "v": 35
    },
    {
      "midi": 48,
      "hit": false,
      "t": 151705,
      "d": 1202.5,
      "v": 55
    },
    {
      "midi": 67,
      "hit": false,
      "t": 151787.5,
      "d": 300,
      "v": 29
    },
    {
      "midi": 55,
      "hit": false,
      "t": 152012.5,
      "d": 930,
      "v": 46
    },
    {
      "midi": 60,
      "hit": false,
      "t": 152212.5,
      "d": 642.5,
      "v": 31
    },
    {
      "midi": 62,
      "hit": false,
      "t": 152415,
      "d": 582.5,
      "v": 59
    },
    {
      "midi": 63,
      "hit": false,
      "t": 152650,
      "d": 262.5,
      "v": 54
    },
    {
      "midi": 67,
      "hit": false,
      "t": 152872.5,
      "d": 230,
      "v": 56
    },
    {
      "midi": 72,
      "hit": false,
      "t": 153107.5,
      "d": 265,
      "v": 61
    },
    {
      "midi": 60,
      "hit": false,
      "t": 153357.5,
      "d": 110,
      "v": 23
    },
    {
      "midi": 62,
      "hit": false,
      "t": 153372.5,
      "d": 90,
      "v": 35
    },
    {
      "midi": 60,
      "hit": false,
      "t": 153592.5,
      "d": 317.5,
      "v": 65
    },
    {
      "midi": 57,
      "hit": false,
      "t": 153592.5,
      "d": 330,
      "v": 44
    },
    {
      "midi": 62,
      "hit": false,
      "t": 153597.5,
      "d": 395,
      "v": 61
    },
    {
      "midi": 69,
      "hit": false,
      "t": 153597.5,
      "d": 415,
      "v": 48
    },
    {
      "midi": 50,
      "hit": false,
      "t": 153607.5,
      "d": 380,
      "v": 39
    },
    {
      "midi": 62,
      "hit": false,
      "t": 154605,
      "d": 612.5,
      "v": 48
    },
    {
      "midi": 67,
      "hit": false,
      "t": 154610,
      "d": 497.5,
      "v": 78
    },
    {
      "midi": 57,
      "hit": false,
      "t": 154612.5,
      "d": 460,
      "v": 66
    },
    {
      "midi": 38,
      "hit": false,
      "t": 155067.5,
      "d": 87.5,
      "v": 65
    },
    {
      "midi": 66,
      "hit": false,
      "t": 155275,
      "d": 307.5,
      "v": 55
    },
    {
      "midi": 67,
      "hit": false,
      "t": 155545,
      "d": 180,
      "v": 73
    },
    {
      "midi": 31,
      "hit": false,
      "t": 155550,
      "d": 185,
      "v": 61
    },
    {
      "midi": 43,
      "hit": false,
      "t": 155550,
      "d": 235,
      "v": 58
    },
    {
      "midi": 59,
      "hit": false,
      "t": 155552.5,
      "d": 110,
      "v": 59
    },
    {
      "midi": 62,
      "hit": false,
      "t": 155552.5,
      "d": 130,
      "v": 67
    },
    {
      "midi": 74,
      "hit": false,
      "t": 156037.5,
      "d": 130,
      "v": 53
    },
    {
      "midi": 62,
      "hit": false,
      "t": 156070,
      "d": 80,
      "v": 34
    },
    {
      "midi": 74,
      "hit": false,
      "t": 156275,
      "d": 302.5,
      "v": 86
    },
    {
      "midi": 62,
      "hit": false,
      "t": 156280,
      "d": 297.5,
      "v": 74
    },
    {
      "midi": 67,
      "hit": false,
      "t": 156280,
      "d": 327.5,
      "v": 83
    },
    {
      "midi": 55,
      "hit": false,
      "t": 156537.5,
      "d": 577.5,
      "v": 40
    },
    {
      "midi": 62,
      "hit": false,
      "t": 156777.5,
      "d": 95,
      "v": 54
    },
    {
      "midi": 72,
      "hit": false,
      "t": 157002.5,
      "d": 125,
      "v": 39
    },
    {
      "midi": 72,
      "hit": false,
      "t": 157230,
      "d": 487.5,
      "v": 78
    },
    {
      "midi": 67,
      "hit": false,
      "t": 157232.5,
      "d": 382.5,
      "v": 86
    },
    {
      "midi": 62,
      "hit": false,
      "t": 157240,
      "d": 295,
      "v": 81
    },
    {
      "midi": 55,
      "hit": false,
      "t": 157472.5,
      "d": 607.5,
      "v": 36
    },
    {
      "midi": 62,
      "hit": false,
      "t": 157705,
      "d": 152.5,
      "v": 45
    },
    {
      "midi": 62,
      "hit": false,
      "t": 157945,
      "d": 102.5,
      "v": 37
    },
    {
      "midi": 71,
      "hit": false,
      "t": 157955,
      "d": 115,
      "v": 62
    },
    {
      "midi": 43,
      "hit": false,
      "t": 157965,
      "d": 115,
      "v": 34
    },
    {
      "midi": 67,
      "hit": false,
      "t": 157980,
      "d": 42.5,
      "v": 38
    },
    {
      "midi": 71,
      "hit": false,
      "t": 158190,
      "d": 807.5,
      "v": 78
    },
    {
      "midi": 62,
      "hit": false,
      "t": 158192.5,
      "d": 410,
      "v": 56
    },
    {
      "midi": 67,
      "hit": false,
      "t": 158192.5,
      "d": 520,
      "v": 68
    },
    {
      "midi": 42,
      "hit": false,
      "t": 158440,
      "d": 515,
      "v": 70
    },
    {
      "midi": 54,
      "hit": false,
      "t": 158442.5,
      "d": 650,
      "v": 61
    },
    {
      "midi": 62,
      "hit": false,
      "t": 158677.5,
      "d": 170,
      "v": 53
    },
    {
      "midi": 62,
      "hit": false,
      "t": 158935,
      "d": 117.5,
      "v": 49
    },
    {
      "midi": 69,
      "hit": false,
      "t": 158935,
      "d": 135,
      "v": 79
    },
    {
      "midi": 42,
      "hit": false,
      "t": 159147.5,
      "d": 67.5,
      "v": 40
    },
    {
      "midi": 62,
      "hit": false,
      "t": 159167.5,
      "d": 410,
      "v": 74
    },
    {
      "midi": 67,
      "hit": false,
      "t": 159167.5,
      "d": 482.5,
      "v": 97
    },
    {
      "midi": 40,
      "hit": false,
      "t": 159372.5,
      "d": 287.5,
      "v": 61
    },
    {
      "midi": 52,
      "hit": false,
      "t": 159382.5,
      "d": 380,
      "v": 64
    },
    {
      "midi": 62,
      "hit": false,
      "t": 159655,
      "d": 325,
      "v": 46
    },
    {
      "midi": 74,
      "hit": false,
      "t": 159880,
      "d": 140,
      "v": 47
    },
    {
      "midi": 74,
      "hit": false,
      "t": 160112.5,
      "d": 362.5,
      "v": 83
    },
    {
      "midi": 67,
      "hit": false,
      "t": 160112.5,
      "d": 435,
      "v": 86
    },
    {
      "midi": 62,
      "hit": false,
      "t": 160117.5,
      "d": 332.5,
      "v": 59
    },
    {
      "midi": 52,
      "hit": false,
      "t": 160362.5,
      "d": 65,
      "v": 10
    },
    {
      "midi": 59,
      "hit": false,
      "t": 160372.5,
      "d": 475,
      "v": 64
    },
    {
      "midi": 62,
      "hit": false,
      "t": 160575,
      "d": 172.5,
      "v": 45
    },
    {
      "midi": 62,
      "hit": false,
      "t": 160810,
      "d": 135,
      "v": 50
    },
    {
      "midi": 72,
      "hit": false,
      "t": 160825,
      "d": 95,
      "v": 57
    },
    {
      "midi": 72,
      "hit": false,
      "t": 161047.5,
      "d": 450,
      "v": 79
    },
    {
      "midi": 62,
      "hit": false,
      "t": 161052.5,
      "d": 297.5,
      "v": 78
    },
    {
      "midi": 67,
      "hit": false,
      "t": 161057.5,
      "d": 400,
      "v": 90
    },
    {
      "midi": 59,
      "hit": false,
      "t": 161062.5,
      "d": 1195,
      "v": 46
    },
    {
      "midi": 52,
      "hit": false,
      "t": 161315,
      "d": 645,
      "v": 51
    },
    {
      "midi": 62,
      "hit": false,
      "t": 161552.5,
      "d": 142.5,
      "v": 45
    },
    {
      "midi": 62,
      "hit": false,
      "t": 161767.5,
      "d": 135,
      "v": 44
    },
    {
      "midi": 71,
      "hit": false,
      "t": 161782.5,
      "d": 130,
      "v": 54
    },
    {
      "midi": 62,
      "hit": false,
      "t": 162032.5,
      "d": 855,
      "v": 65
    },
    {
      "midi": 71,
      "hit": false,
      "t": 162037.5,
      "d": 710,
      "v": 92
    },
    {
      "midi": 67,
      "hit": false,
      "t": 162037.5,
      "d": 755,
      "v": 83
    },
    {
      "midi": 50,
      "hit": false,
      "t": 162270,
      "d": 572.5,
      "v": 61
    },
    {
      "midi": 59,
      "hit": false,
      "t": 162522.5,
      "d": 330,
      "v": 31
    },
    {
      "midi": 69,
      "hit": false,
      "t": 162747.5,
      "d": 272.5,
      "v": 66
    },
    {
      "midi": 62,
      "hit": false,
      "t": 162980,
      "d": 597.5,
      "v": 55
    },
    {
      "midi": 67,
      "hit": false,
      "t": 162982.5,
      "d": 617.5,
      "v": 90
    },
    {
      "midi": 48,
      "hit": false,
      "t": 163217.5,
      "d": 1115,
      "v": 68
    },
    {
      "midi": 55,
      "hit": false,
      "t": 163457.5,
      "d": 1292.5,
      "v": 38
    },
    {
      "midi": 60,
      "hit": false,
      "t": 163702.5,
      "d": 600,
      "v": 44
    },
    {
      "midi": 62,
      "hit": false,
      "t": 163912.5,
      "d": 162.5,
      "v": 44
    },
    {
      "midi": 72,
      "hit": false,
      "t": 164177.5,
      "d": 165,
      "v": 74
    },
    {
      "midi": 64,
      "hit": false,
      "t": 164177.5,
      "d": 237.5,
      "v": 92
    },
    {
      "midi": 71,
      "hit": false,
      "t": 164680,
      "d": 157.5,
      "v": 74
    },
    {
      "midi": 62,
      "hit": false,
      "t": 164680,
      "d": 210,
      "v": 63
    },
    {
      "midi": 55,
      "hit": false,
      "t": 164860,
      "d": 87.5,
      "v": 38
    },
    {
      "midi": 60,
      "hit": false,
      "t": 165132.5,
      "d": 935,
      "v": 58
    },
    {
      "midi": 50,
      "hit": false,
      "t": 165132.5,
      "d": 962.5,
      "v": 53
    },
    {
      "midi": 69,
      "hit": false,
      "t": 165147.5,
      "d": 770,
      "v": 70
    },
    {
      "midi": 62,
      "hit": false,
      "t": 165147.5,
      "d": 787.5,
      "v": 81
    },
    {
      "midi": 57,
      "hit": false,
      "t": 165650,
      "d": 1005,
      "v": 22
    },
    {
      "midi": 66,
      "hit": false,
      "t": 166100,
      "d": 712.5,
      "v": 73
    },
    {
      "midi": 62,
      "hit": false,
      "t": 166105,
      "d": 580,
      "v": 92
    },
    {
      "midi": 50,
      "hit": false,
      "t": 166572.5,
      "d": 142.5,
      "v": 42
    },
    {
      "midi": 67,
      "hit": false,
      "t": 166802.5,
      "d": 540,
      "v": 67
    },
    {
      "midi": 59,
      "hit": false,
      "t": 166817.5,
      "d": 460,
      "v": 61
    },
    {
      "midi": 62,
      "hit": false,
      "t": 166820,
      "d": 475,
      "v": 68
    },
    {
      "midi": 43,
      "hit": false,
      "t": 167070,
      "d": 1245,
      "v": 63
    },
    {
      "midi": 50,
      "hit": false,
      "t": 167305,
      "d": 862.5,
      "v": 39
    },
    {
      "midi": 59,
      "hit": false,
      "t": 167540,
      "d": 592.5,
      "v": 44
    },
    {
      "midi": 74,
      "hit": false,
      "t": 167755,
      "d": 390,
      "v": 81
    },
    {
      "midi": 62,
      "hit": false,
      "t": 167982.5,
      "d": 582.5,
      "v": 40
    },
    {
      "midi": 67,
      "hit": false,
      "t": 168222.5,
      "d": 182.5,
      "v": 59
    },
    {
      "midi": 72,
      "hit": false,
      "t": 168472.5,
      "d": 135,
      "v": 86
    },
    {
      "midi": 50,
      "hit": false,
      "t": 168715,
      "d": 230,
      "v": 44
    },
    {
      "midi": 72,
      "hit": false,
      "t": 168715,
      "d": 597.5,
      "v": 90
    },
    {
      "midi": 67,
      "hit": false,
      "t": 168717.5,
      "d": 570,
      "v": 102
    },
    {
      "midi": 62,
      "hit": false,
      "t": 168720,
      "d": 440,
      "v": 79
    },
    {
      "midi": 43,
      "hit": false,
      "t": 168967.5,
      "d": 640,
      "v": 41
    },
    {
      "midi": 50,
      "hit": false,
      "t": 169190,
      "d": 322.5,
      "v": 42
    },
    {
      "midi": 59,
      "hit": false,
      "t": 169460,
      "d": 92.5,
      "v": 37
    },
    {
      "midi": 62,
      "hit": false,
      "t": 169470,
      "d": 102.5,
      "v": 49
    },
    {
      "midi": 71,
      "hit": false,
      "t": 169470,
      "d": 107.5,
      "v": 67
    },
    {
      "midi": 71,
      "hit": false,
      "t": 169692.5,
      "d": 535,
      "v": 81
    },
    {
      "midi": 62,
      "hit": false,
      "t": 169697.5,
      "d": 547.5,
      "v": 65
    },
    {
      "midi": 50,
      "hit": false,
      "t": 169702.5,
      "d": 215,
      "v": 29
    },
    {
      "midi": 42,
      "hit": false,
      "t": 169940,
      "d": 672.5,
      "v": 59
    },
    {
      "midi": 54,
      "hit": false,
      "t": 169960,
      "d": 590,
      "v": 57
    },
    {
      "midi": 50,
      "hit": false,
      "t": 170155,
      "d": 430,
      "v": 21
    },
    {
      "midi": 62,
      "hit": false,
      "t": 170442.5,
      "d": 97.5,
      "v": 61
    },
    {
      "midi": 69,
      "hit": false,
      "t": 170442.5,
      "d": 155,
      "v": 66
    },
    {
      "midi": 62,
      "hit": false,
      "t": 170647.5,
      "d": 342.5,
      "v": 52
    },
    {
      "midi": 67,
      "hit": false,
      "t": 170647.5,
      "d": 360,
      "v": 108
    },
    {
      "midi": 40,
      "hit": false,
      "t": 170905,
      "d": 222.5,
      "v": 68
    },
    {
      "midi": 52,
      "hit": false,
      "t": 170907.5,
      "d": 350,
      "v": 55
    },
    {
      "midi": 62,
      "hit": false,
      "t": 171172.5,
      "d": 145,
      "v": 43
    },
    {
      "midi": 62,
      "hit": false,
      "t": 171402.5,
      "d": 115,
      "v": 43
    },
    {
      "midi": 74,
      "hit": false,
      "t": 171402.5,
      "d": 137.5,
      "v": 72
    },
    {
      "midi": 74,
      "hit": false,
      "t": 171617.5,
      "d": 315,
      "v": 68
    },
    {
      "midi": 62,
      "hit": false,
      "t": 171622.5,
      "d": 292.5,
      "v": 64
    },
    {
      "midi": 67,
      "hit": false,
      "t": 171627.5,
      "d": 335,
      "v": 84
    },
    {
      "midi": 59,
      "hit": false,
      "t": 171847.5,
      "d": 1365,
      "v": 61
    },
    {
      "midi": 62,
      "hit": false,
      "t": 172077.5,
      "d": 147.5,
      "v": 39
    },
    {
      "midi": 67,
      "hit": false,
      "t": 172300,
      "d": 117.5,
      "v": 52
    },
    {
      "midi": 62,
      "hit": false,
      "t": 172310,
      "d": 82.5,
      "v": 34
    },
    {
      "midi": 62,
      "hit": false,
      "t": 172535,
      "d": 317.5,
      "v": 73
    },
    {
      "midi": 67,
      "hit": false,
      "t": 172537.5,
      "d": 377.5,
      "v": 94
    },
    {
      "midi": 72,
      "hit": false,
      "t": 172537.5,
      "d": 455,
      "v": 73
    },
    {
      "midi": 52,
      "hit": false,
      "t": 172815,
      "d": 375,
      "v": 23
    },
    {
      "midi": 62,
      "hit": false,
      "t": 173030,
      "d": 165,
      "v": 46
    },
    {
      "midi": 62,
      "hit": false,
      "t": 173252.5,
      "d": 127.5,
      "v": 50
    },
    {
      "midi": 71,
      "hit": false,
      "t": 173270,
      "d": 127.5,
      "v": 65
    },
    {
      "midi": 71,
      "hit": false,
      "t": 173500,
      "d": 647.5,
      "v": 79
    },
    {
      "midi": 62,
      "hit": false,
      "t": 173500,
      "d": 690,
      "v": 63
    },
    {
      "midi": 67,
      "hit": false,
      "t": 173505,
      "d": 487.5,
      "v": 88
    },
    {
      "midi": 59,
      "hit": false,
      "t": 173505,
      "d": 982.5,
      "v": 47
    },
    {
      "midi": 50,
      "hit": false,
      "t": 173767.5,
      "d": 555,
      "v": 68
    },
    {
      "midi": 69,
      "hit": false,
      "t": 174227.5,
      "d": 277.5,
      "v": 68
    },
    {
      "midi": 62,
      "hit": false,
      "t": 174232.5,
      "d": 117.5,
      "v": 53
    },
    {
      "midi": 67,
      "hit": false,
      "t": 174455,
      "d": 647.5,
      "v": 94
    },
    {
      "midi": 62,
      "hit": false,
      "t": 174460,
      "d": 595,
      "v": 72
    },
    {
      "midi": 48,
      "hit": false,
      "t": 174697.5,
      "d": 1520,
      "v": 78
    },
    {
      "midi": 55,
      "hit": false,
      "t": 174950,
      "d": 862.5,
      "v": 55
    },
    {
      "midi": 60,
      "hit": false,
      "t": 175172.5,
      "d": 645,
      "v": 52
    },
    {
      "midi": 62,
      "hit": false,
      "t": 175387.5,
      "d": 160,
      "v": 49
    },
    {
      "midi": 72,
      "hit": false,
      "t": 175657.5,
      "d": 175,
      "v": 75
    },
    {
      "midi": 64,
      "hit": false,
      "t": 175657.5,
      "d": 220,
      "v": 115
    },
    {
      "midi": 71,
      "hit": false,
      "t": 176152.5,
      "d": 155,
      "v": 75
    },
    {
      "midi": 55,
      "hit": false,
      "t": 176157.5,
      "d": 112.5,
      "v": 51
    },
    {
      "midi": 62,
      "hit": false,
      "t": 176157.5,
      "d": 120,
      "v": 67
    },
    {
      "midi": 62,
      "hit": false,
      "t": 176612.5,
      "d": 607.5,
      "v": 79
    },
    {
      "midi": 60,
      "hit": false,
      "t": 176622.5,
      "d": 987.5,
      "v": 39
    },
    {
      "midi": 50,
      "hit": false,
      "t": 176622.5,
      "d": 1032.5,
      "v": 53
    },
    {
      "midi": 69,
      "hit": false,
      "t": 176627.5,
      "d": 770,
      "v": 99
    },
    {
      "midi": 57,
      "hit": false,
      "t": 176630,
      "d": 337.5,
      "v": 52
    },
    {
      "midi": 57,
      "hit": false,
      "t": 177097.5,
      "d": 985,
      "v": 29
    },
    {
      "midi": 62,
      "hit": false,
      "t": 177605,
      "d": 252.5,
      "v": 94
    },
    {
      "midi": 66,
      "hit": false,
      "t": 177612.5,
      "d": 190,
      "v": 102
    },
    {
      "midi": 50,
      "hit": false,
      "t": 178055,
      "d": 72.5,
      "v": 50
    },
    {
      "midi": 57,
      "hit": false,
      "t": 178355,
      "d": 622.5,
      "v": 45
    },
    {
      "midi": 59,
      "hit": false,
      "t": 178437.5,
      "d": 562.5,
      "v": 53
    },
    {
      "midi": 62,
      "hit": false,
      "t": 178510,
      "d": 487.5,
      "v": 75
    },
    {
      "midi": 43,
      "hit": false,
      "t": 178545,
      "d": 1277.5,
      "v": 64
    },
    {
      "midi": 67,
      "hit": false,
      "t": 178550,
      "d": 410,
      "v": 97
    },
    {
      "midi": 50,
      "hit": false,
      "t": 178755,
      "d": 795,
      "v": 46
    },
    {
      "midi": 55,
      "hit": false,
      "t": 178982.5,
      "d": 637.5,
      "v": 55
    },
    {
      "midi": 57,
      "hit": false,
      "t": 179240,
      "d": 320,
      "v": 67
    },
    {
      "midi": 59,
      "hit": false,
      "t": 179490,
      "d": 232.5,
      "v": 99
    },
    {
      "midi": 62,
      "hit": false,
      "t": 179700,
      "d": 242.5,
      "v": 55
    },
    {
      "midi": 67,
      "hit": false,
      "t": 179937.5,
      "d": 97.5,
      "v": 72
    },
    {
      "midi": 69,
      "hit": false,
      "t": 180175,
      "d": 210,
      "v": 83
    },
    {
      "midi": 50,
      "hit": false,
      "t": 180235,
      "d": 132.5,
      "v": 18
    },
    {
      "midi": 71,
      "hit": false,
      "t": 180410,
      "d": 205,
      "v": 74
    },
    {
      "midi": 43,
      "hit": false,
      "t": 180450,
      "d": 1310,
      "v": 59
    },
    {
      "midi": 74,
      "hit": false,
      "t": 180645,
      "d": 277.5,
      "v": 69
    },
    {
      "midi": 79,
      "hit": false,
      "t": 180892.5,
      "d": 95,
      "v": 75
    },
    {
      "midi": 50,
      "hit": false,
      "t": 180917.5,
      "d": 590,
      "v": 46
    },
    {
      "midi": 81,
      "hit": false,
      "t": 181122.5,
      "d": 772.5,
      "v": 83
    },
    {
      "midi": 83,
      "hit": false,
      "t": 181365,
      "d": 412.5,
      "v": 102
    },
    {
      "midi": 86,
      "hit": false,
      "t": 181582.5,
      "d": 277.5,
      "v": 77
    },
    {
      "midi": 91,
      "hit": false,
      "t": 181857.5,
      "d": 107.5,
      "v": 127
    },
    {
      "midi": 43,
      "hit": false,
      "t": 181877.5,
      "d": 70,
      "v": 44
    },
    {
      "midi": 55,
      "hit": false,
      "t": 182257.5,
      "d": 450,
      "v": 48
    },
    {
      "midi": 60,
      "hit": false,
      "t": 182302.5,
      "d": 135,
      "v": 66
    },
    {
      "midi": 36,
      "hit": false,
      "t": 182335,
      "d": 1260,
      "v": 92
    },
    {
      "midi": 62,
      "hit": false,
      "t": 182340,
      "d": 497.5,
      "v": 67
    },
    {
      "midi": 48,
      "hit": false,
      "t": 182345,
      "d": 1132.5,
      "v": 83
    },
    {
      "midi": 64,
      "hit": false,
      "t": 182395,
      "d": 442.5,
      "v": 79
    },
    {
      "midi": 55,
      "hit": false,
      "t": 182842.5,
      "d": 350,
      "v": 115
    },
    {
      "midi": 55,
      "hit": false,
      "t": 183302.5,
      "d": 307.5,
      "v": 115
    },
    {
      "midi": 60,
      "hit": false,
      "t": 183302.5,
      "d": 332.5,
      "v": 119
    },
    {
      "midi": 64,
      "hit": false,
      "t": 183302.5,
      "d": 367.5,
      "v": 119
    },
    {
      "midi": 55,
      "hit": false,
      "t": 183802.5,
      "d": 302.5,
      "v": 75
    },
    {
      "midi": 48,
      "hit": false,
      "t": 184032.5,
      "d": 772.5,
      "v": 79
    },
    {
      "midi": 55,
      "hit": false,
      "t": 184262.5,
      "d": 280,
      "v": 90
    },
    {
      "midi": 60,
      "hit": false,
      "t": 184262.5,
      "d": 310,
      "v": 84
    },
    {
      "midi": 64,
      "hit": false,
      "t": 184262.5,
      "d": 357.5,
      "v": 102
    },
    {
      "midi": 36,
      "hit": false,
      "t": 184267.5,
      "d": 245,
      "v": 84
    },
    {
      "midi": 55,
      "hit": false,
      "t": 184732.5,
      "d": 280,
      "v": 44
    },
    {
      "midi": 36,
      "hit": false,
      "t": 184922.5,
      "d": 437.5,
      "v": 49
    },
    {
      "midi": 66,
      "hit": false,
      "t": 185205,
      "d": 290,
      "v": 94
    },
    {
      "midi": 55,
      "hit": false,
      "t": 185210,
      "d": 317.5,
      "v": 102
    },
    {
      "midi": 60,
      "hit": false,
      "t": 185220,
      "d": 310,
      "v": 112
    },
    {
      "midi": 48,
      "hit": false,
      "t": 185225,
      "d": 540,
      "v": 99
    },
    {
      "midi": 36,
      "hit": false,
      "t": 185687.5,
      "d": 190,
      "v": 79
    },
    {
      "midi": 67,
      "hit": false,
      "t": 185937.5,
      "d": 200,
      "v": 67
    },
    {
      "midi": 47,
      "hit": false,
      "t": 186180,
      "d": 542.5,
      "v": 81
    },
    {
      "midi": 55,
      "hit": false,
      "t": 186182.5,
      "d": 332.5,
      "v": 115
    },
    {
      "midi": 62,
      "hit": false,
      "t": 186182.5,
      "d": 400,
      "v": 124
    },
    {
      "midi": 35,
      "hit": false,
      "t": 186182.5,
      "d": 1070,
      "v": 77
    },
    {
      "midi": 55,
      "hit": false,
      "t": 186652.5,
      "d": 315,
      "v": 65
    },
    {
      "midi": 55,
      "hit": false,
      "t": 187097.5,
      "d": 307.5,
      "v": 99
    },
    {
      "midi": 62,
      "hit": false,
      "t": 187107.5,
      "d": 347.5,
      "v": 127
    },
    {
      "midi": 47,
      "hit": false,
      "t": 187132.5,
      "d": 490,
      "v": 102
    },
    {
      "midi": 55,
      "hit": false,
      "t": 187597.5,
      "d": 360,
      "v": 77
    },
    {
      "midi": 47,
      "hit": false,
      "t": 187822.5,
      "d": 700,
      "v": 68
    },
    {
      "midi": 55,
      "hit": false,
      "t": 188047.5,
      "d": 355,
      "v": 92
    },
    {
      "midi": 62,
      "hit": false,
      "t": 188055,
      "d": 317.5,
      "v": 112
    },
    {
      "midi": 35,
      "hit": false,
      "t": 188057.5,
      "d": 280,
      "v": 119
    },
    {
      "midi": 55,
      "hit": false,
      "t": 188512.5,
      "d": 180,
      "v": 51
    },
    {
      "midi": 35,
      "hit": false,
      "t": 188532.5,
      "d": 670,
      "v": 84
    },
    {
      "midi": 55,
      "hit": false,
      "t": 189050,
      "d": 572.5,
      "v": 97
    },
    {
      "midi": 47,
      "hit": false,
      "t": 189050,
      "d": 592.5,
      "v": 108
    },
    {
      "midi": 62,
      "hit": false,
      "t": 189055,
      "d": 492.5,
      "v": 119
    },
    {
      "midi": 60,
      "hit": false,
      "t": 189542.5,
      "d": 257.5,
      "v": 99
    },
    {
      "midi": 35,
      "hit": false,
      "t": 189562.5,
      "d": 160,
      "v": 65
    },
    {
      "midi": 59,
      "hit": false,
      "t": 189762.5,
      "d": 240,
      "v": 83
    },
    {
      "midi": 52,
      "hit": false,
      "t": 190047.5,
      "d": 385,
      "v": 115
    },
    {
      "midi": 57,
      "hit": false,
      "t": 190047.5,
      "d": 435,
      "v": 92
    },
    {
      "midi": 33,
      "hit": false,
      "t": 190047.5,
      "d": 1112.5,
      "v": 81
    },
    {
      "midi": 60,
      "hit": false,
      "t": 190052.5,
      "d": 490,
      "v": 112
    },
    {
      "midi": 45,
      "hit": false,
      "t": 190052.5,
      "d": 537.5,
      "v": 69
    },
    {
      "midi": 52,
      "hit": false,
      "t": 190592.5,
      "d": 110,
      "v": 86
    },
    {
      "midi": 52,
      "hit": false,
      "t": 190785,
      "d": 75,
      "v": 30
    },
    {
      "midi": 60,
      "hit": false,
      "t": 191047.5,
      "d": 427.5,
      "v": 124
    },
    {
      "midi": 52,
      "hit": false,
      "t": 191047.5,
      "d": 457.5,
      "v": 112
    },
    {
      "midi": 57,
      "hit": false,
      "t": 191052.5,
      "d": 380,
      "v": 112
    },
    {
      "midi": 45,
      "hit": false,
      "t": 191052.5,
      "d": 500,
      "v": 79
    },
    {
      "midi": 59,
      "hit": false,
      "t": 191535,
      "d": 275,
      "v": 77
    },
    {
      "midi": 33,
      "hit": false,
      "t": 191772.5,
      "d": 65,
      "v": 34
    },
    {
      "midi": 45,
      "hit": false,
      "t": 191775,
      "d": 92.5,
      "v": 56
    },
    {
      "midi": 60,
      "hit": false,
      "t": 191775,
      "d": 297.5,
      "v": 63
    },
    {
      "midi": 35,
      "hit": false,
      "t": 192015,
      "d": 322.5,
      "v": 62
    },
    {
      "midi": 62,
      "hit": false,
      "t": 192022.5,
      "d": 437.5,
      "v": 99
    },
    {
      "midi": 55,
      "hit": false,
      "t": 192030,
      "d": 452.5,
      "v": 115
    },
    {
      "midi": 47,
      "hit": false,
      "t": 192030,
      "d": 490,
      "v": 112
    },
    {
      "midi": 35,
      "hit": false,
      "t": 192512.5,
      "d": 587.5,
      "v": 68
    },
    {
      "midi": 55,
      "hit": false,
      "t": 192987.5,
      "d": 777.5,
      "v": 124
    },
    {
      "midi": 47,
      "hit": false,
      "t": 192992.5,
      "d": 612.5,
      "v": 119
    },
    {
      "midi": 64,
      "hit": false,
      "t": 193015,
      "d": 30,
      "v": 74
    },
    {
      "midi": 35,
      "hit": false,
      "t": 193485,
      "d": 110,
      "v": 66
    },
    {
      "midi": 55,
      "hit": false,
      "t": 193940,
      "d": 622.5,
      "v": 92
    },
    {
      "midi": 64,
      "hit": false,
      "t": 193942.5,
      "d": 765,
      "v": 127
    },
    {
      "midi": 60,
      "hit": false,
      "t": 193945,
      "d": 542.5,
      "v": 124
    },
    {
      "midi": 48,
      "hit": false,
      "t": 193947.5,
      "d": 517.5,
      "v": 84
    },
    {
      "midi": 36,
      "hit": false,
      "t": 193955,
      "d": 282.5,
      "v": 68
    },
    {
      "midi": 36,
      "hit": false,
      "t": 194450,
      "d": 490,
      "v": 66
    },
    {
      "midi": 48,
      "hit": false,
      "t": 194950,
      "d": 550,
      "v": 127
    },
    {
      "midi": 55,
      "hit": false,
      "t": 194955,
      "d": 782.5,
      "v": 127
    },
    {
      "midi": 60,
      "hit": false,
      "t": 195167.5,
      "d": 285,
      "v": 105
    },
    {
      "midi": 62,
      "hit": false,
      "t": 195405,
      "d": 187.5,
      "v": 94
    },
    {
      "midi": 36,
      "hit": false,
      "t": 195417.5,
      "d": 117.5,
      "v": 69
    },
    {
      "midi": 64,
      "hit": false,
      "t": 195627.5,
      "d": 132.5,
      "v": 86
    },
    {
      "midi": 65,
      "hit": false,
      "t": 195880,
      "d": 470,
      "v": 124
    },
    {
      "midi": 55,
      "hit": false,
      "t": 195882.5,
      "d": 385,
      "v": 94
    },
    {
      "midi": 60,
      "hit": false,
      "t": 195882.5,
      "d": 425,
      "v": 105
    },
    {
      "midi": 34,
      "hit": false,
      "t": 195897.5,
      "d": 280,
      "v": 83
    },
    {
      "midi": 46,
      "hit": false,
      "t": 195897.5,
      "d": 377.5,
      "v": 112
    },
    {
      "midi": 34,
      "hit": false,
      "t": 196345,
      "d": 657.5,
      "v": 94
    },
    {
      "midi": 55,
      "hit": false,
      "t": 196850,
      "d": 297.5,
      "v": 112
    },
    {
      "midi": 67,
      "hit": false,
      "t": 196850,
      "d": 407.5,
      "v": 112
    },
    {
      "midi": 60,
      "hit": false,
      "t": 196855,
      "d": 347.5,
      "v": 127
    },
    {
      "midi": 46,
      "hit": false,
      "t": 196855,
      "d": 492.5,
      "v": 124
    },
    {
      "midi": 34,
      "hit": false,
      "t": 197352.5,
      "d": 130,
      "v": 83
    },
    {
      "midi": 32,
      "hit": false,
      "t": 197780,
      "d": 442.5,
      "v": 90
    },
    {
      "midi": 60,
      "hit": false,
      "t": 197790,
      "d": 215,
      "v": 84
    },
    {
      "midi": 68,
      "hit": false,
      "t": 197792.5,
      "d": 282.5,
      "v": 112
    },
    {
      "midi": 44,
      "hit": false,
      "t": 197792.5,
      "d": 425,
      "v": 97
    },
    {
      "midi": 63,
      "hit": false,
      "t": 197797.5,
      "d": 230,
      "v": 119
    },
    {
      "midi": 63,
      "hit": false,
      "t": 198295,
      "d": 125,
      "v": 77
    },
    {
      "midi": 63,
      "hit": false,
      "t": 198512.5,
      "d": 137.5,
      "v": 54
    },
    {
      "midi": 68,
      "hit": false,
      "t": 198537.5,
      "d": 140,
      "v": 41
    },
    {
      "midi": 56,
      "hit": false,
      "t": 198770,
      "d": 162.5,
      "v": 127
    },
    {
      "midi": 75,
      "hit": false,
      "t": 198772.5,
      "d": 315,
      "v": 115
    },
    {
      "midi": 63,
      "hit": false,
      "t": 198775,
      "d": 287.5,
      "v": 97
    },
    {
      "midi": 68,
      "hit": false,
      "t": 198777.5,
      "d": 270,
      "v": 115
    },
    {
      "midi": 73,
      "hit": false,
      "t": 199240,
      "d": 110,
      "v": 86
    },
    {
      "midi": 63,
      "hit": false,
      "t": 199242.5,
      "d": 107.5,
      "v": 81
    },
    {
      "midi": 68,
      "hit": false,
      "t": 199260,
      "d": 50,
      "v": 42
    },
    {
      "midi": 63,
      "hit": false,
      "t": 199465,
      "d": 382.5,
      "v": 92
    },
    {
      "midi": 73,
      "hit": false,
      "t": 199465,
      "d": 555,
      "v": 108
    },
    {
      "midi": 68,
      "hit": false,
      "t": 199470,
      "d": 377.5,
      "v": 108
    },
    {
      "midi": 32,
      "hit": false,
      "t": 199727.5,
      "d": 310,
      "v": 90
    },
    {
      "midi": 44,
      "hit": false,
      "t": 199737.5,
      "d": 315,
      "v": 115
    },
    {
      "midi": 63,
      "hit": false,
      "t": 199952.5,
      "d": 162.5,
      "v": 78
    },
    {
      "midi": 63,
      "hit": false,
      "t": 200212.5,
      "d": 135,
      "v": 84
    },
    {
      "midi": 72,
      "hit": false,
      "t": 200222.5,
      "d": 142.5,
      "v": 46
    },
    {
      "midi": 68,
      "hit": false,
      "t": 200227.5,
      "d": 90,
      "v": 43
    },
    {
      "midi": 63,
      "hit": false,
      "t": 200460,
      "d": 370,
      "v": 79
    },
    {
      "midi": 72,
      "hit": false,
      "t": 200460,
      "d": 745,
      "v": 70
    },
    {
      "midi": 68,
      "hit": false,
      "t": 200462.5,
      "d": 475,
      "v": 45
    },
    {
      "midi": 31,
      "hit": false,
      "t": 200702.5,
      "d": 285,
      "v": 78
    },
    {
      "midi": 43,
      "hit": false,
      "t": 200707.5,
      "d": 287.5,
      "v": 97
    },
    {
      "midi": 63,
      "hit": false,
      "t": 200947.5,
      "d": 137.5,
      "v": 115
    },
    {
      "midi": 63,
      "hit": false,
      "t": 201172.5,
      "d": 130,
      "v": 51
    },
    {
      "midi": 70,
      "hit": false,
      "t": 201177.5,
      "d": 217.5,
      "v": 105
    },
    {
      "midi": 63,
      "hit": false,
      "t": 201412.5,
      "d": 365,
      "v": 115
    },
    {
      "midi": 68,
      "hit": false,
      "t": 201417.5,
      "d": 447.5,
      "v": 127
    },
    {
      "midi": 41,
      "hit": false,
      "t": 201637.5,
      "d": 1197.5,
      "v": 83
    },
    {
      "midi": 53,
      "hit": false,
      "t": 201657.5,
      "d": 765,
      "v": 115
    },
    {
      "midi": 63,
      "hit": false,
      "t": 201897.5,
      "d": 152.5,
      "v": 102
    },
    {
      "midi": 63,
      "hit": false,
      "t": 202105,
      "d": 140,
      "v": 55
    },
    {
      "midi": 75,
      "hit": false,
      "t": 202115,
      "d": 152.5,
      "v": 97
    },
    {
      "midi": 68,
      "hit": false,
      "t": 202137.5,
      "d": 70,
      "v": 42
    },
    {
      "midi": 63,
      "hit": false,
      "t": 202342.5,
      "d": 330,
      "v": 77
    },
    {
      "midi": 68,
      "hit": false,
      "t": 202347.5,
      "d": 360,
      "v": 108
    },
    {
      "midi": 75,
      "hit": false,
      "t": 202352.5,
      "d": 600,
      "v": 115
    },
    {
      "midi": 53,
      "hit": false,
      "t": 202597.5,
      "d": 540,
      "v": 127
    },
    {
      "midi": 63,
      "hit": false,
      "t": 202817.5,
      "d": 130,
      "v": 68
    },
    {
      "midi": 63,
      "hit": false,
      "t": 203042.5,
      "d": 145,
      "v": 84
    },
    {
      "midi": 73,
      "hit": false,
      "t": 203057.5,
      "d": 130,
      "v": 94
    },
    {
      "midi": 68,
      "hit": false,
      "t": 203062.5,
      "d": 85,
      "v": 90
    },
    {
      "midi": 73,
      "hit": false,
      "t": 203285,
      "d": 487.5,
      "v": 84
    },
    {
      "midi": 63,
      "hit": false,
      "t": 203290,
      "d": 352.5,
      "v": 97
    },
    {
      "midi": 68,
      "hit": false,
      "t": 203290,
      "d": 402.5,
      "v": 86
    },
    {
      "midi": 53,
      "hit": false,
      "t": 203300,
      "d": 882.5,
      "v": 65
    },
    {
      "midi": 41,
      "hit": false,
      "t": 203527.5,
      "d": 702.5,
      "v": 119
    },
    {
      "midi": 63,
      "hit": false,
      "t": 203795,
      "d": 150,
      "v": 97
    },
    {
      "midi": 68,
      "hit": false,
      "t": 204027.5,
      "d": 125,
      "v": 54
    },
    {
      "midi": 63,
      "hit": false,
      "t": 204027.5,
      "d": 127.5,
      "v": 68
    },
    {
      "midi": 72,
      "hit": false,
      "t": 204027.5,
      "d": 137.5,
      "v": 67
    },
    {
      "midi": 63,
      "hit": false,
      "t": 204262.5,
      "d": 370,
      "v": 60
    },
    {
      "midi": 72,
      "hit": false,
      "t": 204262.5,
      "d": 690,
      "v": 57
    },
    {
      "midi": 68,
      "hit": false,
      "t": 204267.5,
      "d": 525,
      "v": 53
    },
    {
      "midi": 39,
      "hit": false,
      "t": 204512.5,
      "d": 672.5,
      "v": 88
    },
    {
      "midi": 51,
      "hit": false,
      "t": 204520,
      "d": 640,
      "v": 124
    },
    {
      "midi": 63,
      "hit": false,
      "t": 204760,
      "d": 140,
      "v": 92
    },
    {
      "midi": 63,
      "hit": false,
      "t": 204987.5,
      "d": 100,
      "v": 47
    },
    {
      "midi": 70,
      "hit": false,
      "t": 204992.5,
      "d": 150,
      "v": 108
    },
    {
      "midi": 63,
      "hit": false,
      "t": 205225,
      "d": 422.5,
      "v": 115
    },
    {
      "midi": 68,
      "hit": false,
      "t": 205225,
      "d": 487.5,
      "v": 127
    },
    {
      "midi": 37,
      "hit": false,
      "t": 205482.5,
      "d": 1155,
      "v": 90
    },
    {
      "midi": 49,
      "hit": false,
      "t": 205487.5,
      "d": 1142.5,
      "v": 127
    },
    {
      "midi": 63,
      "hit": false,
      "t": 205735,
      "d": 122.5,
      "v": 55
    },
    {
      "midi": 63,
      "hit": false,
      "t": 205947.5,
      "d": 330,
      "v": 64
    },
    {
      "midi": 68,
      "hit": false,
      "t": 206202.5,
      "d": 145,
      "v": 54
    },
    {
      "midi": 68,
      "hit": false,
      "t": 206427.5,
      "d": 830,
      "v": 119
    },
    {
      "midi": 63,
      "hit": false,
      "t": 206432.5,
      "d": 325,
      "v": 124
    },
    {
      "midi": 73,
      "hit": false,
      "t": 206432.5,
      "d": 490,
      "v": 97
    },
    {
      "midi": 63,
      "hit": false,
      "t": 206905,
      "d": 375,
      "v": 124
    },
    {
      "midi": 72,
      "hit": false,
      "t": 206905,
      "d": 440,
      "v": 70
    },
    {
      "midi": 37,
      "hit": false,
      "t": 207130,
      "d": 107.5,
      "v": 33
    },
    {
      "midi": 49,
      "hit": false,
      "t": 207132.5,
      "d": 100,
      "v": 44
    },
    {
      "midi": 51,
      "hit": false,
      "t": 207387.5,
      "d": 1010,
      "v": 115
    },
    {
      "midi": 39,
      "hit": false,
      "t": 207392.5,
      "d": 1047.5,
      "v": 83
    },
    {
      "midi": 63,
      "hit": false,
      "t": 207395,
      "d": 297.5,
      "v": 88
    },
    {
      "midi": 68,
      "hit": false,
      "t": 207395,
      "d": 447.5,
      "v": 108
    },
    {
      "midi": 73,
      "hit": false,
      "t": 207395,
      "d": 592.5,
      "v": 99
    },
    {
      "midi": 63,
      "hit": false,
      "t": 207877.5,
      "d": 337.5,
      "v": 94
    },
    {
      "midi": 72,
      "hit": false,
      "t": 207877.5,
      "d": 495,
      "v": 73
    },
    {
      "midi": 68,
      "hit": false,
      "t": 207892.5,
      "d": 55,
      "v": 28
    },
    {
      "midi": 73,
      "hit": false,
      "t": 208357.5,
      "d": 155,
      "v": 81
    },
    {
      "midi": 68,
      "hit": false,
      "t": 208367.5,
      "d": 195,
      "v": 97
    },
    {
      "midi": 63,
      "hit": false,
      "t": 208367.5,
      "d": 225,
      "v": 105
    },
    {
      "midi": 63,
      "hit": false,
      "t": 208850,
      "d": 120,
      "v": 97
    },
    {
      "midi": 75,
      "hit": false,
      "t": 208857.5,
      "d": 130,
      "v": 97
    },
    {
      "midi": 39,
      "hit": false,
      "t": 208877.5,
      "d": 205,
      "v": 53
    },
    {
      "midi": 63,
      "hit": false,
      "t": 209082.5,
      "d": 390,
      "v": 97
    },
    {
      "midi": 75,
      "hit": false,
      "t": 209085,
      "d": 455,
      "v": 115
    },
    {
      "midi": 32,
      "hit": false,
      "t": 209320,
      "d": 1565,
      "v": 88
    },
    {
      "midi": 44,
      "hit": false,
      "t": 209332.5,
      "d": 850,
      "v": 124
    },
    {
      "midi": 63,
      "hit": false,
      "t": 209570,
      "d": 147.5,
      "v": 97
    },
    {
      "midi": 63,
      "hit": false,
      "t": 209782.5,
      "d": 135,
      "v": 47
    },
    {
      "midi": 75,
      "hit": false,
      "t": 209807.5,
      "d": 125,
      "v": 92
    },
    {
      "midi": 75,
      "hit": false,
      "t": 210082.5,
      "d": 610,
      "v": 83
    },
    {
      "midi": 63,
      "hit": false,
      "t": 210085,
      "d": 297.5,
      "v": 112
    },
    {
      "midi": 68,
      "hit": false,
      "t": 210087.5,
      "d": 335,
      "v": 115
    },
    {
      "midi": 44,
      "hit": false,
      "t": 210302.5,
      "d": 545,
      "v": 127
    },
    {
      "midi": 63,
      "hit": false,
      "t": 210517.5,
      "d": 120,
      "v": 70
    },
    {
      "midi": 63,
      "hit": false,
      "t": 210762.5,
      "d": 132.5,
      "v": 92
    },
    {
      "midi": 73,
      "hit": false,
      "t": 210765,
      "d": 147.5,
      "v": 99
    },
    {
      "midi": 44,
      "hit": false,
      "t": 210997.5,
      "d": 762.5,
      "v": 102
    },
    {
      "midi": 63,
      "hit": false,
      "t": 211007.5,
      "d": 335,
      "v": 97
    },
    {
      "midi": 73,
      "hit": false,
      "t": 211017.5,
      "d": 595,
      "v": 108
    },
    {
      "midi": 68,
      "hit": false,
      "t": 211037.5,
      "d": 372.5,
      "v": 43
    },
    {
      "midi": 32,
      "hit": false,
      "t": 211250,
      "d": 522.5,
      "v": 115
    },
    {
      "midi": 63,
      "hit": false,
      "t": 211485,
      "d": 135,
      "v": 68
    },
    {
      "midi": 72,
      "hit": false,
      "t": 211737.5,
      "d": 162.5,
      "v": 78
    },
    {
      "midi": 63,
      "hit": false,
      "t": 211742.5,
      "d": 160,
      "v": 92
    },
    {
      "midi": 68,
      "hit": false,
      "t": 211747.5,
      "d": 135,
      "v": 50
    },
    {
      "midi": 63,
      "hit": false,
      "t": 211997.5,
      "d": 360,
      "v": 59
    },
    {
      "midi": 68,
      "hit": false,
      "t": 212002.5,
      "d": 450,
      "v": 55
    },
    {
      "midi": 72,
      "hit": false,
      "t": 212002.5,
      "d": 672.5,
      "v": 63
    },
    {
      "midi": 31,
      "hit": false,
      "t": 212232.5,
      "d": 302.5,
      "v": 84
    },
    {
      "midi": 43,
      "hit": false,
      "t": 212237.5,
      "d": 350,
      "v": 108
    },
    {
      "midi": 63,
      "hit": false,
      "t": 212472.5,
      "d": 127.5,
      "v": 84
    },
    {
      "midi": 63,
      "hit": false,
      "t": 212727.5,
      "d": 132.5,
      "v": 63
    },
    {
      "midi": 70,
      "hit": false,
      "t": 212727.5,
      "d": 180,
      "v": 99
    },
    {
      "midi": 63,
      "hit": false,
      "t": 212972.5,
      "d": 370,
      "v": 112
    },
    {
      "midi": 68,
      "hit": false,
      "t": 212972.5,
      "d": 432.5,
      "v": 127
    },
    {
      "midi": 41,
      "hit": false,
      "t": 213195,
      "d": 1640,
      "v": 92
    },
    {
      "midi": 53,
      "hit": false,
      "t": 213210,
      "d": 817.5,
      "v": 127
    },
    {
      "midi": 63,
      "hit": false,
      "t": 213452.5,
      "d": 130,
      "v": 81
    },
    {
      "midi": 63,
      "hit": false,
      "t": 213675,
      "d": 107.5,
      "v": 62
    },
    {
      "midi": 75,
      "hit": false,
      "t": 213685,
      "d": 115,
      "v": 94
    },
    {
      "midi": 75,
      "hit": false,
      "t": 213927.5,
      "d": 592.5,
      "v": 105
    },
    {
      "midi": 63,
      "hit": false,
      "t": 213932.5,
      "d": 330,
      "v": 108
    },
    {
      "midi": 68,
      "hit": false,
      "t": 213932.5,
      "d": 355,
      "v": 127
    },
    {
      "midi": 53,
      "hit": false,
      "t": 214197.5,
      "d": 547.5,
      "v": 127
    },
    {
      "midi": 63,
      "hit": false,
      "t": 214402.5,
      "d": 112.5,
      "v": 77
    },
    {
      "midi": 73,
      "hit": false,
      "t": 214650,
      "d": 135,
      "v": 75
    },
    {
      "midi": 63,
      "hit": false,
      "t": 214655,
      "d": 102.5,
      "v": 86
    },
    {
      "midi": 63,
      "hit": false,
      "t": 214907.5,
      "d": 337.5,
      "v": 108
    },
    {
      "midi": 73,
      "hit": false,
      "t": 214910,
      "d": 475,
      "v": 112
    },
    {
      "midi": 53,
      "hit": false,
      "t": 214912.5,
      "d": 605,
      "v": 127
    },
    {
      "midi": 68,
      "hit": false,
      "t": 214915,
      "d": 380,
      "v": 119
    },
    {
      "midi": 41,
      "hit": false,
      "t": 215167.5,
      "d": 265,
      "v": 115
    },
    {
      "midi": 63,
      "hit": false,
      "t": 215380,
      "d": 142.5,
      "v": 97
    },
    {
      "midi": 63,
      "hit": false,
      "t": 215627.5,
      "d": 150,
      "v": 72
    },
    {
      "midi": 72,
      "hit": false,
      "t": 215637.5,
      "d": 157.5,
      "v": 68
    },
    {
      "midi": 41,
      "hit": false,
      "t": 215640,
      "d": 182.5,
      "v": 94
    },
    {
      "midi": 68,
      "hit": false,
      "t": 215645,
      "d": 77.5,
      "v": 39
    },
    {
      "midi": 63,
      "hit": false,
      "t": 215867.5,
      "d": 367.5,
      "v": 90
    },
    {
      "midi": 68,
      "hit": false,
      "t": 215872.5,
      "d": 502.5,
      "v": 99
    },
    {
      "midi": 72,
      "hit": false,
      "t": 215875,
      "d": 627.5,
      "v": 99
    },
    {
      "midi": 39,
      "hit": false,
      "t": 216107.5,
      "d": 517.5,
      "v": 90
    },
    {
      "midi": 51,
      "hit": false,
      "t": 216115,
      "d": 550,
      "v": 127
    },
    {
      "midi": 63,
      "hit": false,
      "t": 216347.5,
      "d": 152.5,
      "v": 88
    },
    {
      "midi": 63,
      "hit": false,
      "t": 216602.5,
      "d": 145,
      "v": 94
    },
    {
      "midi": 70,
      "hit": false,
      "t": 216602.5,
      "d": 172.5,
      "v": 73
    },
    {
      "midi": 63,
      "hit": false,
      "t": 216830,
      "d": 542.5,
      "v": 97
    },
    {
      "midi": 68,
      "hit": false,
      "t": 216835,
      "d": 612.5,
      "v": 127
    },
    {
      "midi": 39,
      "hit": false,
      "t": 216852.5,
      "d": 127.5,
      "v": 46
    },
    {
      "midi": 37,
      "hit": false,
      "t": 217102.5,
      "d": 1160,
      "v": 66
    },
    {
      "midi": 49,
      "hit": false,
      "t": 217107.5,
      "d": 1172.5,
      "v": 124
    },
    {
      "midi": 63,
      "hit": false,
      "t": 217615,
      "d": 300,
      "v": 119
    },
    {
      "midi": 68,
      "hit": false,
      "t": 217835,
      "d": 97.5,
      "v": 30
    },
    {
      "midi": 63,
      "hit": false,
      "t": 218072.5,
      "d": 392.5,
      "v": 99
    },
    {
      "midi": 68,
      "hit": false,
      "t": 218072.5,
      "d": 465,
      "v": 108
    },
    {
      "midi": 73,
      "hit": false,
      "t": 218072.5,
      "d": 490,
      "v": 86
    },
    {
      "midi": 63,
      "hit": false,
      "t": 218555,
      "d": 292.5,
      "v": 55
    },
    {
      "midi": 72,
      "hit": false,
      "t": 218555,
      "d": 377.5,
      "v": 74
    },
    {
      "midi": 37,
      "hit": false,
      "t": 218560,
      "d": 107.5,
      "v": 34
    },
    {
      "midi": 49,
      "hit": false,
      "t": 218562.5,
      "d": 130,
      "v": 42
    },
    {
      "midi": 39,
      "hit": false,
      "t": 219030,
      "d": 1542.5,
      "v": 72
    },
    {
      "midi": 70,
      "hit": false,
      "t": 219035,
      "d": 860,
      "v": 127
    },
    {
      "midi": 51,
      "hit": false,
      "t": 219035,
      "d": 1322.5,
      "v": 119
    },
    {
      "midi": 63,
      "hit": false,
      "t": 219037.5,
      "d": 530,
      "v": 119
    },
    {
      "midi": 63,
      "hit": false,
      "t": 220027.5,
      "d": 392.5,
      "v": 115
    },
    {
      "midi": 67,
      "hit": false,
      "t": 220030,
      "d": 402.5,
      "v": 102
    },
    {
      "midi": 51,
      "hit": false,
      "t": 220512.5,
      "d": 117.5,
      "v": 28
    },
    {
      "midi": 60,
      "hit": false,
      "t": 220777.5,
      "d": 752.5,
      "v": 39
    },
    {
      "midi": 65,
      "hit": false,
      "t": 220905,
      "d": 712.5,
      "v": 29
    },
    {
      "midi": 68,
      "hit": false,
      "t": 220965,
      "d": 632.5,
      "v": 127
    },
    {
      "midi": 41,
      "hit": false,
      "t": 220982.5,
      "d": 282.5,
      "v": 64
    },
    {
      "midi": 53,
      "hit": false,
      "t": 220985,
      "d": 397.5,
      "v": 55
    },
    {
      "midi": 53,
      "hit": false,
      "t": 221657.5,
      "d": 2262.5,
      "v": 16
    },
    {
      "midi": 60,
      "hit": false,
      "t": 222165,
      "d": 2115,
      "v": 59
    },
    {
      "midi": 68,
      "hit": false,
      "t": 222400,
      "d": 922.5,
      "v": 84
    },
    {
      "midi": 65,
      "hit": false,
      "t": 222415,
      "d": 882.5,
      "v": 78
    },
    {
      "midi": 68,
      "hit": false,
      "t": 223697.5,
      "d": 460,
      "v": 108
    },
    {
      "midi": 65,
      "hit": false,
      "t": 223697.5,
      "d": 502.5,
      "v": 88
    },
    {
      "midi": 70,
      "hit": false,
      "t": 224132.5,
      "d": 260,
      "v": 57
    },
    {
      "midi": 51,
      "hit": false,
      "t": 224152.5,
      "d": 157.5,
      "v": 47
    },
    {
      "midi": 72,
      "hit": false,
      "t": 224362.5,
      "d": 147.5,
      "v": 53
    },
    {
      "midi": 73,
      "hit": false,
      "t": 224642.5,
      "d": 525,
      "v": 44
    },
    {
      "midi": 49,
      "hit": false,
      "t": 224652.5,
      "d": 1550,
      "v": 60
    },
    {
      "midi": 56,
      "hit": false,
      "t": 224912.5,
      "d": 1290,
      "v": 36
    },
    {
      "midi": 61,
      "hit": false,
      "t": 225160,
      "d": 1082.5,
      "v": 72
    },
    {
      "midi": 68,
      "hit": false,
      "t": 225425,
      "d": 87.5,
      "v": 41
    },
    {
      "midi": 73,
      "hit": false,
      "t": 225682.5,
      "d": 510,
      "v": 81
    },
    {
      "midi": 68,
      "hit": false,
      "t": 225682.5,
      "d": 512.5,
      "v": 94
    },
    {
      "midi": 72,
      "hit": false,
      "t": 226175,
      "d": 520,
      "v": 63
    },
    {
      "midi": 63,
      "hit": false,
      "t": 226667.5,
      "d": 1617.5,
      "v": 42
    },
    {
      "midi": 61,
      "hit": false,
      "t": 226667.5,
      "d": 1657.5,
      "v": 34
    },
    {
      "midi": 58,
      "hit": false,
      "t": 226667.5,
      "d": 1675,
      "v": 31
    },
    {
      "midi": 51,
      "hit": false,
      "t": 226672.5,
      "d": 3230,
      "v": 33
    },
    {
      "midi": 70,
      "hit": false,
      "t": 226695,
      "d": 3272.5,
      "v": 54
    },
    {
      "midi": 63,
      "hit": false,
      "t": 228517.5,
      "d": 1047.5,
      "v": 40
    },
    {
      "midi": 61,
      "hit": false,
      "t": 228522.5,
      "d": 652.5,
      "v": 26
    },
    {
      "midi": 58,
      "hit": false,
      "t": 228527.5,
      "d": 1417.5,
      "v": 19
    },
    {
      "midi": 67,
      "hit": false,
      "t": 228530,
      "d": 975,
      "v": 50
    },
    {
      "midi": 61,
      "hit": false,
      "t": 229512.5,
      "d": 610,
      "v": 26
    },
    {
      "midi": 56,
      "hit": false,
      "t": 230407.5,
      "d": 2410,
      "v": 30
    },
    {
      "midi": 63,
      "hit": false,
      "t": 230417.5,
      "d": 635,
      "v": 43
    },
    {
      "midi": 68,
      "hit": false,
      "t": 230655,
      "d": 262.5,
      "v": 45
    },
    {
      "midi": 75,
      "hit": false,
      "t": 230895,
      "d": 140,
      "v": 57
    },
    {
      "midi": 75,
      "hit": false,
      "t": 231125,
      "d": 370,
      "v": 77
    },
    {
      "midi": 63,
      "hit": false,
      "t": 231352.5,
      "d": 777.5,
      "v": 38
    },
    {
      "midi": 68,
      "hit": false,
      "t": 231602.5,
      "d": 292.5,
      "v": 38
    },
    {
      "midi": 73,
      "hit": false,
      "t": 231837.5,
      "d": 130,
      "v": 54
    },
    {
      "midi": 73,
      "hit": false,
      "t": 232072.5,
      "d": 520,
      "v": 70
    },
    {
      "midi": 63,
      "hit": false,
      "t": 232310,
      "d": 657.5,
      "v": 41
    },
    {
      "midi": 68,
      "hit": false,
      "t": 232570,
      "d": 232.5,
      "v": 40
    },
    {
      "midi": 72,
      "hit": false,
      "t": 232785,
      "d": 170,
      "v": 52
    },
    {
      "midi": 72,
      "hit": false,
      "t": 233057.5,
      "d": 752.5,
      "v": 68
    },
    {
      "midi": 55,
      "hit": false,
      "t": 233297.5,
      "d": 490,
      "v": 44
    },
    {
      "midi": 63,
      "hit": false,
      "t": 233517.5,
      "d": 515,
      "v": 31
    },
    {
      "midi": 70,
      "hit": false,
      "t": 233765,
      "d": 285,
      "v": 42
    },
    {
      "midi": 68,
      "hit": false,
      "t": 234002.5,
      "d": 630,
      "v": 44
    },
    {
      "midi": 53,
      "hit": false,
      "t": 234247.5,
      "d": 2922.5,
      "v": 49
    },
    {
      "midi": 63,
      "hit": false,
      "t": 234485,
      "d": 405,
      "v": 48
    },
    {
      "midi": 75,
      "hit": false,
      "t": 234725,
      "d": 140,
      "v": 53
    },
    {
      "midi": 75,
      "hit": false,
      "t": 234957.5,
      "d": 317.5,
      "v": 60
    },
    {
      "midi": 63,
      "hit": false,
      "t": 235195,
      "d": 607.5,
      "v": 35
    },
    {
      "midi": 68,
      "hit": false,
      "t": 235455,
      "d": 312.5,
      "v": 39
    },
    {
      "midi": 73,
      "hit": false,
      "t": 235690,
      "d": 167.5,
      "v": 57
    },
    {
      "midi": 73,
      "hit": false,
      "t": 235950,
      "d": 485,
      "v": 62
    },
    {
      "midi": 63,
      "hit": false,
      "t": 236177.5,
      "d": 400,
      "v": 31
    },
    {
      "midi": 68,
      "hit": false,
      "t": 236415,
      "d": 265,
      "v": 46
    },
    {
      "midi": 72,
      "hit": false,
      "t": 236645,
      "d": 140,
      "v": 61
    },
    {
      "midi": 72,
      "hit": false,
      "t": 236887.5,
      "d": 820,
      "v": 42
    },
    {
      "midi": 51,
      "hit": false,
      "t": 237152.5,
      "d": 882.5,
      "v": 54
    },
    {
      "midi": 63,
      "hit": false,
      "t": 237357.5,
      "d": 345,
      "v": 44
    },
    {
      "midi": 70,
      "hit": false,
      "t": 237595,
      "d": 297.5,
      "v": 41
    },
    {
      "midi": 68,
      "hit": false,
      "t": 237850,
      "d": 1127.5,
      "v": 52
    },
    {
      "midi": 49,
      "hit": false,
      "t": 238127.5,
      "d": 1745,
      "v": 51
    },
    {
      "midi": 56,
      "hit": false,
      "t": 238382.5,
      "d": 1487.5,
      "v": 38
    },
    {
      "midi": 61,
      "hit": false,
      "t": 238632.5,
      "d": 1272.5,
      "v": 45
    },
    {
      "midi": 63,
      "hit": false,
      "t": 238885,
      "d": 62.5,
      "v": 29
    },
    {
      "midi": 65,
      "hit": false,
      "t": 239155,
      "d": 330,
      "v": 59
    },
    {
      "midi": 73,
      "hit": false,
      "t": 239155,
      "d": 567.5,
      "v": 39
    },
    {
      "midi": 72,
      "hit": false,
      "t": 239682.5,
      "d": 172.5,
      "v": 70
    },
    {
      "midi": 63,
      "hit": false,
      "t": 240272.5,
      "d": 980,
      "v": 39
    },
    {
      "midi": 61,
      "hit": false,
      "t": 240297.5,
      "d": 877.5,
      "v": 30
    },
    {
      "midi": 58,
      "hit": false,
      "t": 240305,
      "d": 892.5,
      "v": 22
    },
    {
      "midi": 51,
      "hit": false,
      "t": 240312.5,
      "d": 2750,
      "v": 24
    },
    {
      "midi": 70,
      "hit": false,
      "t": 240340,
      "d": 1435,
      "v": 48
    },
    {
      "midi": 58,
      "hit": false,
      "t": 241500,
      "d": 1412.5,
      "v": 22
    },
    {
      "midi": 61,
      "hit": false,
      "t": 241585,
      "d": 1252.5,
      "v": 34
    },
    {
      "midi": 63,
      "hit": false,
      "t": 241737.5,
      "d": 1765,
      "v": 39
    },
    {
      "midi": 67,
      "hit": false,
      "t": 241835,
      "d": 1557.5,
      "v": 50
    },
    {
      "midi": 44,
      "hit": false,
      "t": 243597.5,
      "d": 862.5,
      "v": 32
    },
    {
      "midi": 51,
      "hit": false,
      "t": 243665,
      "d": 760,
      "v": 27
    },
    {
      "midi": 56,
      "hit": false,
      "t": 243750,
      "d": 680,
      "v": 36
    },
    {
      "midi": 60,
      "hit": false,
      "t": 243872.5,
      "d": 607.5,
      "v": 49
    },
    {
      "midi": 63,
      "hit": false,
      "t": 243962.5,
      "d": 502.5,
      "v": 42
    },
    {
      "midi": 68,
      "hit": false,
      "t": 244057.5,
      "d": 402.5,
      "v": 77
    }
  ]
}