{
  "jsonPath": "Rock/Album Rock/Fleetwood Mac/silver-springs-live-album-version.json",
  "path": "Rock\\Album Rock\\Fleetwood Mac\\Silver Springs (Live Album Version).mid",
  "name": "Silver Springs (Live Album Version)",
  "difficulty": "Advanced",
  "bpm": 90.00103501190263,
  "notes": [
    {
      "midi": 79,
      "hit": false,
      "t": 13673.453864583335,
      "d": 215.27530208333155,
      "v": 124
    },
    {
      "midi": 81,
      "hit": false,
      "t": 13833.17425,
      "d": 145.83165624999856,
      "v": 101
    },
    {
      "midi": 77,
      "hit": false,
      "t": 13992.894635416666,
      "d": 187.49784374999945,
      "v": 106
    },
    {
      "midi": 79,
      "hit": false,
      "t": 14166.503749999998,
      "d": 138.8872916666678,
      "v": 93
    },
    {
      "midi": 76,
      "hit": false,
      "t": 14333.1685,
      "d": 159.72038541666734,
      "v": 103
    },
    {
      "midi": 77,
      "hit": false,
      "t": 14492.888885416667,
      "d": 166.6647499999999,
      "v": 91
    },
    {
      "midi": 74,
      "hit": false,
      "t": 14666.498,
      "d": 166.6647499999999,
      "v": 106
    },
    {
      "midi": 76,
      "hit": false,
      "t": 14826.218385416667,
      "d": 152.77602083333295,
      "v": 103
    },
    {
      "midi": 72,
      "hit": false,
      "t": 14992.883135416667,
      "d": 166.6647499999999,
      "v": 106
    },
    {
      "midi": 74,
      "hit": false,
      "t": 15159.547885416667,
      "d": 173.60911458333248,
      "v": 69
    },
    {
      "midi": 67,
      "hit": false,
      "t": 15333.157,
      "d": 1305.5405416666654,
      "v": 103
    },
    {
      "midi": 65,
      "hit": false,
      "t": 16680.363729166664,
      "d": 437.49496875000114,
      "v": 118
    },
    {
      "midi": 64,
      "hit": false,
      "t": 17013.693229166664,
      "d": 826.3793854166688,
      "v": 108
    },
    {
      "midi": 62,
      "hit": false,
      "t": 18020.626093749997,
      "d": 277.774583333332,
      "v": 113
    },
    {
      "midi": 60,
      "hit": false,
      "t": 18388.677416666662,
      "d": 1236.0968958333324,
      "v": 91
    },
    {
      "midi": 36,
      "hit": false,
      "t": 25333.041999999994,
      "d": 3965.2321770833405,
      "v": 124
    },
    {
      "midi": 43,
      "hit": false,
      "t": 25666.371499999994,
      "d": 3631.9026770833407,
      "v": 127
    },
    {
      "midi": 48,
      "hit": false,
      "t": 25999.700999999994,
      "d": 680.5477291666684,
      "v": 113
    },
    {
      "midi": 60,
      "hit": false,
      "t": 26312.197406249994,
      "d": 2659.6916354166715,
      "v": 121
    },
    {
      "midi": 55,
      "hit": false,
      "t": 26680.248729166662,
      "d": 1972.1995416666687,
      "v": 111
    },
    {
      "midi": 48,
      "hit": false,
      "t": 28333.007499999996,
      "d": 1194.430708333337,
      "v": 103
    },
    {
      "midi": 55,
      "hit": false,
      "t": 28659.392635416665,
      "d": 2659.6916354166715,
      "v": 101
    },
    {
      "midi": 60,
      "hit": false,
      "t": 28978.83340625,
      "d": 2499.971250000006,
      "v": 93
    },
    {
      "midi": 53,
      "hit": false,
      "t": 29319.107270833334,
      "d": 666.6589999999997,
      "v": 103
    },
    {
      "midi": 48,
      "hit": false,
      "t": 29652.436770833334,
      "d": 1340.2623645833337,
      "v": 76
    },
    {
      "midi": 53,
      "hit": false,
      "t": 29992.710635416668,
      "d": 395.8287812499984,
      "v": 81
    },
    {
      "midi": 52,
      "hit": false,
      "t": 30326.040135416668,
      "d": 1576.3707604166739,
      "v": 106
    },
    {
      "midi": 48,
      "hit": false,
      "t": 30999.643500000002,
      "d": 902.7673958333398,
      "v": 103
    },
    {
      "midi": 55,
      "hit": false,
      "t": 31326.02863541667,
      "d": 326.3851354166691,
      "v": 111
    },
    {
      "midi": 60,
      "hit": false,
      "t": 31485.74902083334,
      "d": 2722.190916666659,
      "v": 113
    },
    {
      "midi": 55,
      "hit": false,
      "t": 31659.358135416674,
      "d": 1333.3179999999993,
      "v": 116
    },
    {
      "midi": 36,
      "hit": false,
      "t": 31999.63200000001,
      "d": 5159.662885416652,
      "v": 111
    },
    {
      "midi": 43,
      "hit": false,
      "t": 32319.072770833343,
      "d": 4840.222114583317,
      "v": 101
    },
    {
      "midi": 48,
      "hit": false,
      "t": 32666.29100000001,
      "d": 326.38513541666543,
      "v": 73
    },
    {
      "midi": 48,
      "hit": false,
      "t": 32999.620500000005,
      "d": 666.6589999999997,
      "v": 79
    },
    {
      "midi": 55,
      "hit": false,
      "t": 32999.620500000005,
      "d": 1208.3194374999948,
      "v": 106
    },
    {
      "midi": 48,
      "hit": false,
      "t": 33673.223864583335,
      "d": 2659.6916354166533,
      "v": 99
    },
    {
      "midi": 53,
      "hit": false,
      "t": 34332.9385,
      "d": 590.2709895833323,
      "v": 108
    },
    {
      "midi": 52,
      "hit": false,
      "t": 35006.54186458333,
      "d": 2152.7530208333337,
      "v": 113
    },
    {
      "midi": 50,
      "hit": false,
      "t": 35680.14522916666,
      "d": 1479.1496562500033,
      "v": 106
    },
    {
      "midi": 48,
      "hit": false,
      "t": 36339.85986458332,
      "d": 1638.8700416666761,
      "v": 113
    },
    {
      "midi": 55,
      "hit": false,
      "t": 36666.24499999999,
      "d": 1652.7587708333376,
      "v": 108
    },
    {
      "midi": 60,
      "hit": false,
      "t": 36992.63013541666,
      "d": 1333.3179999999993,
      "v": 116
    },
    {
      "midi": 36,
      "hit": false,
      "t": 37332.903999999995,
      "d": 5284.661447916646,
      "v": 124
    },
    {
      "midi": 43,
      "hit": false,
      "t": 37659.289135416664,
      "d": 3999.953999999976,
      "v": 113
    },
    {
      "midi": 48,
      "hit": false,
      "t": 37985.674270833326,
      "d": 340.2738645833306,
      "v": 87
    },
    {
      "midi": 55,
      "hit": false,
      "t": 38325.94813541666,
      "d": 999.9884999999922,
      "v": 113
    },
    {
      "midi": 48,
      "hit": false,
      "t": 38332.89249999999,
      "d": 659.7146354166689,
      "v": 85
    },
    {
      "midi": 52,
      "hit": false,
      "t": 38332.89249999999,
      "d": 986.0997708333307,
      "v": 113
    },
    {
      "midi": 60,
      "hit": false,
      "t": 38332.89249999999,
      "d": 1534.7045729166566,
      "v": 108
    },
    {
      "midi": 48,
      "hit": false,
      "t": 38999.55149999999,
      "d": 652.7702708333236,
      "v": 106
    },
    {
      "midi": 52,
      "hit": false,
      "t": 39325.93663541665,
      "d": 541.6604374999952,
      "v": 106
    },
    {
      "midi": 55,
      "hit": false,
      "t": 39332.88099999998,
      "d": 534.7160729166644,
      "v": 64
    },
    {
      "midi": 48,
      "hit": false,
      "t": 39659.26613541664,
      "d": 1027.765958333337,
      "v": 99
    },
    {
      "midi": 53,
      "hit": false,
      "t": 39999.53999999998,
      "d": 979.1554062499999,
      "v": 113
    },
    {
      "midi": 55,
      "hit": false,
      "t": 40332.86949999998,
      "d": 645.8259062500001,
      "v": 99
    },
    {
      "midi": 48,
      "hit": false,
      "t": 40693.97645833331,
      "d": 284.71894791667,
      "v": 69
    },
    {
      "midi": 48,
      "hit": false,
      "t": 40999.52849999998,
      "d": 993.0441354166614,
      "v": 106
    },
    {
      "midi": 55,
      "hit": false,
      "t": 40999.52849999998,
      "d": 1159.7088854166577,
      "v": 118
    },
    {
      "midi": 52,
      "hit": false,
      "t": 41006.47286458331,
      "d": 1611.0925833333313,
      "v": 118
    },
    {
      "midi": 43,
      "hit": false,
      "t": 41666.18749999997,
      "d": 951.3779479166697,
      "v": 127
    },
    {
      "midi": 48,
      "hit": false,
      "t": 41999.51699999997,
      "d": 1319.4292708333378,
      "v": 116
    },
    {
      "midi": 55,
      "hit": false,
      "t": 42166.18174999997,
      "d": 1493.038385416672,
      "v": 118
    },
    {
      "midi": 60,
      "hit": false,
      "t": 42332.84649999997,
      "d": 2562.4705312499937,
      "v": 121
    },
    {
      "midi": 36,
      "hit": false,
      "t": 42673.12036458331,
      "d": 5263.828354166653,
      "v": 124
    },
    {
      "midi": 43,
      "hit": false,
      "t": 42999.50549999998,
      "d": 2152.753020833319,
      "v": 113
    },
    {
      "midi": 48,
      "hit": false,
      "t": 43325.89063541664,
      "d": 333.3294999999998,
      "v": 81
    },
    {
      "midi": 48,
      "hit": false,
      "t": 43666.16449999997,
      "d": 666.6589999999997,
      "v": 99
    },
    {
      "midi": 52,
      "hit": false,
      "t": 43666.16449999997,
      "d": 1229.1525312499944,
      "v": 113
    },
    {
      "midi": 55,
      "hit": false,
      "t": 43666.16449999997,
      "d": 1229.1525312499944,
      "v": 108
    },
    {
      "midi": 48,
      "hit": false,
      "t": 44339.7678645833,
      "d": 555.549166666664,
      "v": 103
    },
    {
      "midi": 48,
      "hit": false,
      "t": 44992.53813541663,
      "d": 673.6033645833304,
      "v": 106
    },
    {
      "midi": 53,
      "hit": false,
      "t": 44999.48249999996,
      "d": 1173.5976145833338,
      "v": 121
    },
    {
      "midi": 52,
      "hit": false,
      "t": 45666.14149999996,
      "d": 506.93861458333413,
      "v": 113
    },
    {
      "midi": 48,
      "hit": false,
      "t": 45673.08586458329,
      "d": 499.9942500000034,
      "v": 48
    },
    {
      "midi": 50,
      "hit": false,
      "t": 46332.80049999996,
      "d": 1604.1482187500005,
      "v": 121
    },
    {
      "midi": 48,
      "hit": false,
      "t": 47006.40386458329,
      "d": 930.5448541666701,
      "v": 118
    },
    {
      "midi": 55,
      "hit": false,
      "t": 47332.78899999996,
      "d": 604.159718750001,
      "v": 118
    },
    {
      "midi": 41,
      "hit": false,
      "t": 47666.11849999996,
      "d": 993.0441354166687,
      "v": 96
    },
    {
      "midi": 60,
      "hit": false,
      "t": 48006.3923645833,
      "d": 999.9884999999922,
      "v": 111
    },
    {
      "midi": 53,
      "hit": false,
      "t": 48006.3923645833,
      "d": 1652.758770833323,
      "v": 99
    },
    {
      "midi": 29,
      "hit": false,
      "t": 48006.3923645833,
      "d": 2534.693072916656,
      "v": 116
    },
    {
      "midi": 57,
      "hit": false,
      "t": 48006.3923645833,
      "d": 2534.693072916656,
      "v": 118
    },
    {
      "midi": 41,
      "hit": false,
      "t": 48666.10699999996,
      "d": 1326.3736354166613,
      "v": 85
    },
    {
      "midi": 55,
      "hit": false,
      "t": 49013.32522916662,
      "d": 1527.7602083333331,
      "v": 113
    },
    {
      "midi": 60,
      "hit": false,
      "t": 49013.32522916662,
      "d": 1527.7602083333331,
      "v": 124
    },
    {
      "midi": 53,
      "hit": false,
      "t": 49666.09549999995,
      "d": 874.9899375000023,
      "v": 118
    },
    {
      "midi": 41,
      "hit": false,
      "t": 49999.42499999995,
      "d": 1333.3179999999993,
      "v": 116
    },
    {
      "midi": 60,
      "hit": false,
      "t": 50666.08399999995,
      "d": 993.0441354166614,
      "v": 108
    },
    {
      "midi": 53,
      "hit": false,
      "t": 50666.08399999995,
      "d": 2326.3621354166535,
      "v": 99
    },
    {
      "midi": 29,
      "hit": false,
      "t": 50666.08399999995,
      "d": 2569.414895833317,
      "v": 101
    },
    {
      "midi": 57,
      "hit": false,
      "t": 50666.08399999995,
      "d": 2569.414895833317,
      "v": 116
    },
    {
      "midi": 41,
      "hit": false,
      "t": 51339.68736458328,
      "d": 1326.3736354166613,
      "v": 78
    },
    {
      "midi": 55,
      "hit": false,
      "t": 51666.072499999944,
      "d": 1569.426395833325,
      "v": 113
    },
    {
      "midi": 60,
      "hit": false,
      "t": 51666.072499999944,
      "d": 1569.426395833325,
      "v": 124
    },
    {
      "midi": 41,
      "hit": false,
      "t": 52673.005364583274,
      "d": 1333.317999999992,
      "v": 118
    },
    {
      "midi": 53,
      "hit": false,
      "t": 52999.390499999936,
      "d": 236.1083958333329,
      "v": 40
    },
    {
      "midi": 60,
      "hit": false,
      "t": 53332.719999999936,
      "d": 993.0441354166614,
      "v": 113
    },
    {
      "midi": 57,
      "hit": false,
      "t": 53332.719999999936,
      "d": 1666.6474999999919,
      "v": 113
    },
    {
      "midi": 53,
      "hit": false,
      "t": 53332.719999999936,
      "d": 2312.473406249992,
      "v": 106
    },
    {
      "midi": 29,
      "hit": false,
      "t": 53332.719999999936,
      "d": 2513.8599791666566,
      "v": 96
    },
    {
      "midi": 65,
      "hit": false,
      "t": 53339.66436458327,
      "d": 986.0997708333307,
      "v": 106
    },
    {
      "midi": 41,
      "hit": false,
      "t": 54013.2677291666,
      "d": 1319.4292708333305,
      "v": 74
    },
    {
      "midi": 60,
      "hit": false,
      "t": 54332.70849999993,
      "d": 659.7146354166689,
      "v": 127
    },
    {
      "midi": 65,
      "hit": false,
      "t": 54332.70849999993,
      "d": 666.6589999999997,
      "v": 116
    },
    {
      "midi": 55,
      "hit": false,
      "t": 54332.70849999993,
      "d": 1513.8714791666644,
      "v": 116
    },
    {
      "midi": 60,
      "hit": false,
      "t": 54999.36749999993,
      "d": 847.2124791666647,
      "v": 121
    },
    {
      "midi": 57,
      "hit": false,
      "t": 55006.31186458326,
      "d": 840.268114583334,
      "v": 127
    },
    {
      "midi": 65,
      "hit": false,
      "t": 55006.31186458326,
      "d": 840.268114583334,
      "v": 116
    },
    {
      "midi": 41,
      "hit": false,
      "t": 55339.64136458326,
      "d": 1138.8757916666655,
      "v": 111
    },
    {
      "midi": 53,
      "hit": false,
      "t": 55652.13777083326,
      "d": 194.44220833333384,
      "v": 93
    },
    {
      "midi": 65,
      "hit": false,
      "t": 55999.35599999993,
      "d": 756.9357395833285,
      "v": 113
    },
    {
      "midi": 53,
      "hit": false,
      "t": 55999.35599999993,
      "d": 784.7131979166588,
      "v": 108
    },
    {
      "midi": 60,
      "hit": false,
      "t": 55999.35599999993,
      "d": 798.6019270833276,
      "v": 121
    },
    {
      "midi": 29,
      "hit": false,
      "t": 55999.35599999993,
      "d": 2604.1367187499927,
      "v": 103
    },
    {
      "midi": 41,
      "hit": false,
      "t": 56672.95936458326,
      "d": 1326.3736354166613,
      "v": 111
    },
    {
      "midi": 60,
      "hit": false,
      "t": 56999.34449999992,
      "d": 1604.1482187500005,
      "v": 127
    },
    {
      "midi": 55,
      "hit": false,
      "t": 57006.28886458325,
      "d": 1597.2038541666698,
      "v": 116
    },
    {
      "midi": 65,
      "hit": false,
      "t": 57006.28886458325,
      "d": 1597.2038541666698,
      "v": 118
    },
    {
      "midi": 41,
      "hit": false,
      "t": 58006.27736458325,
      "d": 1194.4307083333406,
      "v": 127
    },
    {
      "midi": 53,
      "hit": false,
      "t": 58332.66249999992,
      "d": 270.8302187500012,
      "v": 51
    },
    {
      "midi": 60,
      "hit": false,
      "t": 58672.93636458326,
      "d": 993.0441354166687,
      "v": 118
    },
    {
      "midi": 57,
      "hit": false,
      "t": 58672.93636458326,
      "d": 1652.7587708333303,
      "v": 116
    },
    {
      "midi": 53,
      "hit": false,
      "t": 58672.93636458326,
      "d": 2312.473406249992,
      "v": 106
    },
    {
      "midi": 65,
      "hit": false,
      "t": 58679.88072916659,
      "d": 986.099770833338,
      "v": 106
    },
    {
      "midi": 29,
      "hit": false,
      "t": 58679.88072916659,
      "d": 2513.8599791666566,
      "v": 103
    },
    {
      "midi": 41,
      "hit": false,
      "t": 59353.484093749925,
      "d": 1298.5961770833237,
      "v": 89
    },
    {
      "midi": 60,
      "hit": false,
      "t": 59672.924864583256,
      "d": 652.7702708333309,
      "v": 124
    },
    {
      "midi": 65,
      "hit": false,
      "t": 59672.924864583256,
      "d": 652.7702708333309,
      "v": 113
    },
    {
      "midi": 55,
      "hit": false,
      "t": 59672.924864583256,
      "d": 1520.8158437499878,
      "v": 116
    },
    {
      "midi": 57,
      "hit": false,
      "t": 60332.63949999992,
      "d": 861.1012083333262,
      "v": 118
    },
    {
      "midi": 60,
      "hit": false,
      "t": 60332.63949999992,
      "d": 861.1012083333262,
      "v": 121
    },
    {
      "midi": 65,
      "hit": false,
      "t": 60332.63949999992,
      "d": 861.1012083333262,
      "v": 108
    },
    {
      "midi": 41,
      "hit": false,
      "t": 60659.02463541658,
      "d": 1361.0954583333296,
      "v": 103
    },
    {
      "midi": 53,
      "hit": false,
      "t": 60992.35413541658,
      "d": 201.3865729166646,
      "v": 81
    },
    {
      "midi": 60,
      "hit": false,
      "t": 61318.73927083324,
      "d": 1006.9328645833302,
      "v": 121
    },
    {
      "midi": 65,
      "hit": false,
      "t": 61318.73927083324,
      "d": 1006.9328645833302,
      "v": 113
    },
    {
      "midi": 29,
      "hit": false,
      "t": 61318.73927083324,
      "d": 2395.80578124999,
      "v": 101
    },
    {
      "midi": 53,
      "hit": false,
      "t": 61318.73927083324,
      "d": 2395.80578124999,
      "v": 108
    },
    {
      "midi": 57,
      "hit": false,
      "t": 61318.73927083324,
      "d": 2395.80578124999,
      "v": 118
    },
    {
      "midi": 41,
      "hit": false,
      "t": 62027.06445833324,
      "d": 1687.4805937499914,
      "v": 106
    },
    {
      "midi": 55,
      "hit": false,
      "t": 62332.6164999999,
      "d": 1381.9285520833291,
      "v": 116
    },
    {
      "midi": 65,
      "hit": false,
      "t": 62332.6164999999,
      "d": 1381.9285520833291,
      "v": 118
    },
    {
      "midi": 60,
      "hit": false,
      "t": 62332.6164999999,
      "d": 1472.2052916666653,
      "v": 127
    },
    {
      "midi": 79,
      "hit": false,
      "t": 62686.7790937499,
      "d": 291.66331250000076,
      "v": 113
    },
    {
      "midi": 81,
      "hit": false,
      "t": 62839.555114583236,
      "d": 874.989937499995,
      "v": 96
    },
    {
      "midi": 79,
      "hit": false,
      "t": 62985.38677083323,
      "d": 347.2182291666686,
      "v": 76
    },
    {
      "midi": 76,
      "hit": false,
      "t": 63124.2740624999,
      "d": 347.2182291666686,
      "v": 81
    },
    {
      "midi": 79,
      "hit": false,
      "t": 63339.54936458323,
      "d": 374.9956874999989,
      "v": 99
    },
    {
      "midi": 76,
      "hit": false,
      "t": 63478.4366562499,
      "d": 236.1083958333329,
      "v": 91
    },
    {
      "midi": 74,
      "hit": false,
      "t": 63658.99013541656,
      "d": 90.27673958333617,
      "v": 101
    },
    {
      "midi": 76,
      "hit": false,
      "t": 63811.7661562499,
      "d": 145.83165624999674,
      "v": 89
    },
    {
      "midi": 74,
      "hit": false,
      "t": 63992.31963541656,
      "d": 111.10983333332842,
      "v": 85
    },
    {
      "midi": 48,
      "hit": false,
      "t": 63999.263999999894,
      "d": 979.1554062499999,
      "v": 101
    },
    {
      "midi": 55,
      "hit": false,
      "t": 63999.263999999894,
      "d": 2006.9213645833224,
      "v": 108
    },
    {
      "midi": 60,
      "hit": false,
      "t": 64006.208364583224,
      "d": 2562.4705312499937,
      "v": 106
    },
    {
      "midi": 52,
      "hit": false,
      "t": 64013.152729166555,
      "d": 972.2110416666692,
      "v": 106
    },
    {
      "midi": 72,
      "hit": false,
      "t": 64138.15129166656,
      "d": 340.27386458333785,
      "v": 85
    },
    {
      "midi": 74,
      "hit": false,
      "t": 64346.48222916656,
      "d": 2222.196666666656,
      "v": 99
    },
    {
      "midi": 72,
      "hit": false,
      "t": 64485.36952083323,
      "d": 340.27386458333785,
      "v": 81
    },
    {
      "midi": 69,
      "hit": false,
      "t": 64658.97863541656,
      "d": 1326.373635416654,
      "v": 66
    },
    {
      "midi": 72,
      "hit": false,
      "t": 64832.5877499999,
      "d": 1736.0911458333212,
      "v": 91
    },
    {
      "midi": 48,
      "hit": false,
      "t": 64985.363770833224,
      "d": 1583.3151249999937,
      "v": 113
    },
    {
      "midi": 52,
      "hit": false,
      "t": 64992.308135416555,
      "d": 673.6033645833304,
      "v": 31
    },
    {
      "midi": 52,
      "hit": false,
      "t": 65672.85586458322,
      "d": 895.8230312499945,
      "v": 83
    },
    {
      "midi": 67,
      "hit": false,
      "t": 65686.74459374989,
      "d": 881.934302083333,
      "v": 85
    },
    {
      "midi": 69,
      "hit": false,
      "t": 65992.29663541655,
      "d": 576.3822604166635,
      "v": 96
    },
    {
      "midi": 55,
      "hit": false,
      "t": 66013.12972916655,
      "d": 555.549166666664,
      "v": 85
    },
    {
      "midi": 48,
      "hit": false,
      "t": 66672.84436458322,
      "d": 1006.9328645833593,
      "v": 61
    },
    {
      "midi": 55,
      "hit": false,
      "t": 66679.78872916655,
      "d": 993.0441354166833,
      "v": 89
    },
    {
      "midi": 52,
      "hit": false,
      "t": 66686.73309374989,
      "d": 986.0997708333452,
      "v": 87
    },
    {
      "midi": 60,
      "hit": false,
      "t": 66693.67745833323,
      "d": 979.1554062500072,
      "v": 83
    },
    {
      "midi": 55,
      "hit": false,
      "t": 67679.77722916658,
      "d": 999.9885000000213,
      "v": 106
    },
    {
      "midi": 60,
      "hit": false,
      "t": 67679.77722916658,
      "d": 1006.9328645833593,
      "v": 111
    },
    {
      "midi": 52,
      "hit": false,
      "t": 67679.77722916658,
      "d": 1562.4820312500378,
      "v": 108
    },
    {
      "midi": 48,
      "hit": false,
      "t": 67686.72159374991,
      "d": 673.6033645833377,
      "v": 99
    },
    {
      "midi": 74,
      "hit": false,
      "t": 67707.55468749991,
      "d": 298.6076770833315,
      "v": 127
    },
    {
      "midi": 76,
      "hit": false,
      "t": 67860.33070833325,
      "d": 1381.9285520833655,
      "v": 103
    },
    {
      "midi": 74,
      "hit": false,
      "t": 68013.10672916658,
      "d": 1229.1525312500307,
      "v": 91
    },
    {
      "midi": 72,
      "hit": false,
      "t": 68158.93838541658,
      "d": 513.8829791666794,
      "v": 85
    },
    {
      "midi": 69,
      "hit": false,
      "t": 68339.49186458325,
      "d": 902.7673958333617,
      "v": 99
    },
    {
      "midi": 48,
      "hit": false,
      "t": 68367.26932291659,
      "d": 305.55204166666954,
      "v": 103
    },
    {
      "midi": 48,
      "hit": false,
      "t": 68679.7657291666,
      "d": 270.8302187500085,
      "v": 99
    },
    {
      "midi": 53,
      "hit": false,
      "t": 68679.7657291666,
      "d": 562.4935312500165,
      "v": 116
    },
    {
      "midi": 72,
      "hit": false,
      "t": 68679.7657291666,
      "d": 673.6033645833522,
      "v": 99
    },
    {
      "midi": 55,
      "hit": false,
      "t": 68686.71009374993,
      "d": 555.5491666666785,
      "v": 118
    },
    {
      "midi": 60,
      "hit": false,
      "t": 68693.65445833327,
      "d": 548.6048020833405,
      "v": 116
    },
    {
      "midi": 48,
      "hit": false,
      "t": 68957.54031249994,
      "d": 284.71894791667,
      "v": 93
    },
    {
      "midi": 67,
      "hit": false,
      "t": 68978.37340624994,
      "d": 437.4949687500048,
      "v": 81
    },
    {
      "midi": 48,
      "hit": false,
      "t": 69339.48036458327,
      "d": 666.6590000000142,
      "v": 99
    },
    {
      "midi": 55,
      "hit": false,
      "t": 69346.42472916661,
      "d": 1979.143906250014,
      "v": 111
    },
    {
      "midi": 52,
      "hit": false,
      "t": 69353.36909374995,
      "d": 1659.7031354166684,
      "v": 111
    },
    {
      "midi": 60,
      "hit": false,
      "t": 69353.36909374995,
      "d": 2312.473406250021,
      "v": 108
    },
    {
      "midi": 48,
      "hit": false,
      "t": 70318.63577083328,
      "d": 1590.2594895833608,
      "v": 96
    },
    {
      "midi": 67,
      "hit": false,
      "t": 70360.30195833328,
      "d": 152.77602083333477,
      "v": 124
    },
    {
      "midi": 69,
      "hit": false,
      "t": 70513.07797916661,
      "d": 1395.817281250027,
      "v": 101
    },
    {
      "midi": 67,
      "hit": false,
      "t": 70672.79836458329,
      "d": 1236.0968958333542,
      "v": 89
    },
    {
      "midi": 64,
      "hit": false,
      "t": 70825.57438541662,
      "d": 486.1055208333273,
      "v": 69
    },
    {
      "midi": 62,
      "hit": false,
      "t": 70999.18349999996,
      "d": 909.7117604166851,
      "v": 85
    },
    {
      "midi": 52,
      "hit": false,
      "t": 71020.01659374996,
      "d": 888.8786666666856,
      "v": 85
    },
    {
      "midi": 64,
      "hit": false,
      "t": 71318.62427083329,
      "d": 590.2709895833541,
      "v": 91
    },
    {
      "midi": 55,
      "hit": false,
      "t": 71332.51299999996,
      "d": 576.382260416678,
      "v": 89
    },
    {
      "midi": 60,
      "hit": false,
      "t": 71672.78686458331,
      "d": 326.3851354166691,
      "v": 91
    },
    {
      "midi": 48,
      "hit": false,
      "t": 71999.17199999998,
      "d": 736.1026458333363,
      "v": 79
    },
    {
      "midi": 55,
      "hit": false,
      "t": 71999.17199999998,
      "d": 777.7688333333499,
      "v": 93
    },
    {
      "midi": 60,
      "hit": false,
      "t": 72006.11636458331,
      "d": 784.7131979166734,
      "v": 91
    },
    {
      "midi": 52,
      "hit": false,
      "t": 72013.06072916665,
      "d": 743.0470104166743,
      "v": 93
    },
    {
      "midi": 67,
      "hit": false,
      "t": 72332.50149999998,
      "d": 409.7175104166672,
      "v": 85
    },
    {
      "midi": 72,
      "hit": false,
      "t": 72651.94227083331,
      "d": 97.2211041666742,
      "v": 91
    },
    {
      "midi": 48,
      "hit": false,
      "t": 72985.27177083332,
      "d": 1180.541979166679,
      "v": 79
    },
    {
      "midi": 60,
      "hit": false,
      "t": 72992.21613541666,
      "d": 1263.8743541666772,
      "v": 87
    },
    {
      "midi": 55,
      "hit": false,
      "t": 72992.21613541666,
      "d": 1270.8187187500153,
      "v": 91
    },
    {
      "midi": 52,
      "hit": false,
      "t": 73006.10486458332,
      "d": 1249.9856250000157,
      "v": 91
    },
    {
      "midi": 72,
      "hit": false,
      "t": 73013.04922916666,
      "d": 527.7717083333264,
      "v": 91
    },
    {
      "midi": 79,
      "hit": false,
      "t": 73332.48999999999,
      "d": 1499.9827500000247,
      "v": 91
    },
    {
      "midi": 72,
      "hit": false,
      "t": 73672.76386458332,
      "d": 493.0498854166799,
      "v": 73
    },
    {
      "midi": 84,
      "hit": false,
      "t": 74006.09336458333,
      "d": 819.435020833349,
      "v": 89
    },
    {
      "midi": 72,
      "hit": false,
      "t": 74318.58977083334,
      "d": 493.0498854166799,
      "v": 85
    },
    {
      "midi": 48,
      "hit": false,
      "t": 74686.64109375,
      "d": 958.3223125000077,
      "v": 106
    },
    {
      "midi": 52,
      "hit": false,
      "t": 74693.58545833334,
      "d": 1645.8144062500069,
      "v": 108
    },
    {
      "midi": 55,
      "hit": false,
      "t": 74693.58545833334,
      "d": 1951.3664479166764,
      "v": 106
    },
    {
      "midi": 60,
      "hit": false,
      "t": 74693.58545833334,
      "d": 2527.7487083333544,
      "v": 111
    },
    {
      "midi": 48,
      "hit": false,
      "t": 75651.90777083335,
      "d": 1354.1510937500134,
      "v": 106
    },
    {
      "midi": 52,
      "hit": false,
      "t": 76346.34422916669,
      "d": 874.9899375000095,
      "v": 111
    },
    {
      "midi": 55,
      "hit": false,
      "t": 76651.89627083336,
      "d": 569.43789583334,
      "v": 93
    },
    {
      "midi": 48,
      "hit": false,
      "t": 77013.0032291667,
      "d": 208.33093749999534,
      "v": 73
    },
    {
      "midi": 53,
      "hit": false,
      "t": 77346.3327291667,
      "d": 923.6004895833466,
      "v": 108
    },
    {
      "midi": 48,
      "hit": false,
      "t": 77353.27709375003,
      "d": 437.4949687500048,
      "v": 101
    },
    {
      "midi": 55,
      "hit": false,
      "t": 77353.27709375003,
      "d": 916.6561250000086,
      "v": 108
    },
    {
      "midi": 60,
      "hit": false,
      "t": 77353.27709375003,
      "d": 916.6561250000086,
      "v": 111
    },
    {
      "midi": 48,
      "hit": false,
      "t": 78012.99172916671,
      "d": 256.94148958333244,
      "v": 62
    },
    {
      "midi": 48,
      "hit": false,
      "t": 78360.20995833338,
      "d": 381.9400520833442,
      "v": 99
    },
    {
      "midi": 52,
      "hit": false,
      "t": 78360.20995833338,
      "d": 958.3223125000222,
      "v": 108
    },
    {
      "midi": 55,
      "hit": false,
      "t": 78360.20995833338,
      "d": 1118.042697916695,
      "v": 108
    },
    {
      "midi": 60,
      "hit": false,
      "t": 78367.15432291671,
      "d": 624.9928125000151,
      "v": 106
    },
    {
      "midi": 48,
      "hit": false,
      "t": 78985.20277083339,
      "d": 881.9343020833476,
      "v": 99
    },
    {
      "midi": 52,
      "hit": false,
      "t": 79325.47663541674,
      "d": 597.215354166663,
      "v": 113
    },
    {
      "midi": 55,
      "hit": false,
      "t": 79485.19702083341,
      "d": 451.3836979166663,
      "v": 103
    },
    {
      "midi": 60,
      "hit": false,
      "t": 79651.8617708334,
      "d": 277.774583333332,
      "v": 106
    },
    {
      "midi": 60,
      "hit": false,
      "t": 79985.19127083341,
      "d": 2208.3079375000234,
      "v": 96
    },
    {
      "midi": 48,
      "hit": false,
      "t": 79992.13563541675,
      "d": 1013.8772291666683,
      "v": 103
    },
    {
      "midi": 55,
      "hit": false,
      "t": 79992.13563541675,
      "d": 2201.3635729166854,
      "v": 101
    },
    {
      "midi": 52,
      "hit": false,
      "t": 79999.08000000009,
      "d": 1687.480593750006,
      "v": 108
    },
    {
      "midi": 48,
      "hit": false,
      "t": 81012.95722916676,
      "d": 1180.541979166679,
      "v": 111
    },
    {
      "midi": 52,
      "hit": false,
      "t": 81693.50495833343,
      "d": 499.9942500000034,
      "v": 79
    },
    {
      "midi": 53,
      "hit": false,
      "t": 82353.21959375011,
      "d": 465.27242708334234,
      "v": 111
    },
    {
      "midi": 55,
      "hit": false,
      "t": 82353.21959375011,
      "d": 513.8829791666794,
      "v": 116
    },
    {
      "midi": 60,
      "hit": false,
      "t": 82360.16395833345,
      "d": 520.8273437500029,
      "v": 111
    },
    {
      "midi": 55,
      "hit": false,
      "t": 83019.87859375012,
      "d": 673.6033645833377,
      "v": 113
    },
    {
      "midi": 52,
      "hit": false,
      "t": 83019.87859375012,
      "d": 826.3793854166724,
      "v": 116
    },
    {
      "midi": 60,
      "hit": false,
      "t": 83026.82295833346,
      "d": 666.6589999999997,
      "v": 108
    },
    {
      "midi": 50,
      "hit": false,
      "t": 83700.4263229168,
      "d": 409.7175104166672,
      "v": 111
    },
    {
      "midi": 60,
      "hit": false,
      "t": 83700.4263229168,
      "d": 493.04988541666535,
      "v": 108
    },
    {
      "midi": 55,
      "hit": false,
      "t": 83700.4263229168,
      "d": 506.93861458332685,
      "v": 116
    },
    {
      "midi": 55,
      "hit": false,
      "t": 84346.2522291668,
      "d": 812.4906562500109,
      "v": 108
    },
    {
      "midi": 60,
      "hit": false,
      "t": 84346.2522291668,
      "d": 812.4906562500109,
      "v": 108
    },
    {
      "midi": 52,
      "hit": false,
      "t": 84353.19659375014,
      "d": 805.5462916666729,
      "v": 111
    },
    {
      "midi": 48,
      "hit": false,
      "t": 84360.14095833348,
      "d": 597.215354166663,
      "v": 99
    },
    {
      "midi": 48,
      "hit": false,
      "t": 84964.30067708348,
      "d": 229.16403124999488,
      "v": 103
    },
    {
      "midi": 48,
      "hit": false,
      "t": 85311.51890625014,
      "d": 1020.8215937500063,
      "v": 106
    },
    {
      "midi": 55,
      "hit": false,
      "t": 85311.51890625014,
      "d": 1999.9770000000135,
      "v": 118
    },
    {
      "midi": 36,
      "hit": false,
      "t": 85311.51890625014,
      "d": 2541.6374375000305,
      "v": 108
    },
    {
      "midi": 52,
      "hit": false,
      "t": 85318.46327083348,
      "d": 1659.7031354166684,
      "v": 113
    },
    {
      "midi": 60,
      "hit": false,
      "t": 85318.46327083348,
      "d": 2534.6930729166925,
      "v": 116
    },
    {
      "midi": 48,
      "hit": false,
      "t": 86339.28486458349,
      "d": 1305.5405416666763,
      "v": 108
    },
    {
      "midi": 52,
      "hit": false,
      "t": 86985.11077083349,
      "d": 868.0455729166861,
      "v": 106
    },
    {
      "midi": 55,
      "hit": false,
      "t": 87318.4402708335,
      "d": 534.716072916679,
      "v": 78
    },
    {
      "midi": 48,
      "hit": false,
      "t": 87651.7697708335,
      "d": 229.16403125000943,
      "v": 78
    },
    {
      "midi": 48,
      "hit": false,
      "t": 88012.87672916685,
      "d": 388.8844166666822,
      "v": 91
    },
    {
      "midi": 55,
      "hit": false,
      "t": 88019.82109375019,
      "d": 930.5448541666701,
      "v": 103
    },
    {
      "midi": 60,
      "hit": false,
      "t": 88019.82109375019,
      "d": 2319.417770833359,
      "v": 108
    },
    {
      "midi": 53,
      "hit": false,
      "t": 88026.76545833352,
      "d": 777.7688333333354,
      "v": 93
    },
    {
      "midi": 36,
      "hit": false,
      "t": 88026.76545833352,
      "d": 2541.6374375000305,
      "v": 76
    },
    {
      "midi": 48,
      "hit": false,
      "t": 88679.53572916686,
      "d": 986.0997708333307,
      "v": 83
    },
    {
      "midi": 55,
      "hit": false,
      "t": 89019.8095937502,
      "d": 1361.0954583333514,
      "v": 91
    },
    {
      "midi": 52,
      "hit": false,
      "t": 89026.75395833353,
      "d": 979.1554062500072,
      "v": 111
    },
    {
      "midi": 48,
      "hit": false,
      "t": 89672.57986458353,
      "d": 666.6590000000142,
      "v": 91
    },
    {
      "midi": 52,
      "hit": false,
      "t": 90012.85372916688,
      "d": 326.3851354166691,
      "v": 93
    },
    {
      "midi": 48,
      "hit": false,
      "t": 90346.18322916688,
      "d": 590.2709895833395,
      "v": 76
    },
    {
      "midi": 60,
      "hit": false,
      "t": 90346.18322916688,
      "d": 1312.4849062500143,
      "v": 124
    },
    {
      "midi": 52,
      "hit": false,
      "t": 90346.18322916688,
      "d": 1319.4292708333523,
      "v": 106
    },
    {
      "midi": 55,
      "hit": false,
      "t": 90387.84941666688,
      "d": 180.55347916667233,
      "v": 50
    },
    {
      "midi": 36,
      "hit": false,
      "t": 90651.73527083355,
      "d": 2236.085395833361,
      "v": 111
    },
    {
      "midi": 48,
      "hit": false,
      "t": 91311.44990625023,
      "d": 347.2182291666686,
      "v": 51
    },
    {
      "midi": 48,
      "hit": false,
      "t": 91665.61250000024,
      "d": 631.9371770833386,
      "v": 85
    },
    {
      "midi": 60,
      "hit": false,
      "t": 91665.61250000024,
      "d": 1222.2081666666782,
      "v": 108
    },
    {
      "midi": 52,
      "hit": false,
      "t": 91672.55686458357,
      "d": 1215.2638020833401,
      "v": 106
    },
    {
      "midi": 55,
      "hit": false,
      "t": 91672.55686458357,
      "d": 1215.2638020833401,
      "v": 101
    },
    {
      "midi": 48,
      "hit": false,
      "t": 92304.49404166691,
      "d": 583.3266250000015,
      "v": 81
    },
    {
      "midi": 60,
      "hit": false,
      "t": 93026.70795833359,
      "d": 576.3822604166635,
      "v": 111
    },
    {
      "midi": 53,
      "hit": false,
      "t": 93026.70795833359,
      "d": 597.215354166663,
      "v": 111
    },
    {
      "midi": 55,
      "hit": false,
      "t": 93026.70795833359,
      "d": 1215.2638020833256,
      "v": 116
    },
    {
      "midi": 60,
      "hit": false,
      "t": 93686.42259375025,
      "d": 534.7160729166644,
      "v": 91
    },
    {
      "midi": 52,
      "hit": false,
      "t": 93700.31132291691,
      "d": 520.8273437500029,
      "v": 111
    },
    {
      "midi": 50,
      "hit": false,
      "t": 94373.91468750025,
      "d": 395.8287812500057,
      "v": 111
    },
    {
      "midi": 55,
      "hit": false,
      "t": 94373.91468750025,
      "d": 548.6048020833405,
      "v": 116
    },
    {
      "midi": 60,
      "hit": false,
      "t": 94380.85905208359,
      "d": 506.9386145833414,
      "v": 108
    },
    {
      "midi": 60,
      "hit": false,
      "t": 95026.68495833359,
      "d": 972.2110416666837,
      "v": 108
    },
    {
      "midi": 48,
      "hit": false,
      "t": 95033.62932291692,
      "d": 243.05276041667094,
      "v": 113
    },
    {
      "midi": 55,
      "hit": false,
      "t": 95033.62932291692,
      "d": 1006.9328645833593,
      "v": 108
    },
    {
      "midi": 48,
      "hit": false,
      "t": 95346.12572916693,
      "d": 666.6590000000142,
      "v": 81
    },
    {
      "midi": 52,
      "hit": false,
      "t": 95672.5108645836,
      "d": 340.27386458334513,
      "v": 106
    },
    {
      "midi": 60,
      "hit": false,
      "t": 96005.84036458361,
      "d": 999.9885000000068,
      "v": 111
    },
    {
      "midi": 53,
      "hit": false,
      "t": 96005.84036458361,
      "d": 1652.758770833345,
      "v": 99
    },
    {
      "midi": 29,
      "hit": false,
      "t": 96005.84036458361,
      "d": 2534.6930729166925,
      "v": 116
    },
    {
      "midi": 57,
      "hit": false,
      "t": 96005.84036458361,
      "d": 2534.6930729166925,
      "v": 118
    },
    {
      "midi": 41,
      "hit": false,
      "t": 96665.55500000028,
      "d": 1326.3736354166758,
      "v": 85
    },
    {
      "midi": 55,
      "hit": false,
      "t": 97012.77322916695,
      "d": 1527.7602083333477,
      "v": 113
    },
    {
      "midi": 60,
      "hit": false,
      "t": 97012.77322916695,
      "d": 1527.7602083333477,
      "v": 124
    },
    {
      "midi": 53,
      "hit": false,
      "t": 97665.54350000029,
      "d": 874.9899375000095,
      "v": 118
    },
    {
      "midi": 41,
      "hit": false,
      "t": 97998.8730000003,
      "d": 1333.3179999999993,
      "v": 116
    },
    {
      "midi": 60,
      "hit": false,
      "t": 98665.5320000003,
      "d": 993.0441354166687,
      "v": 108
    },
    {
      "midi": 53,
      "hit": false,
      "t": 98665.5320000003,
      "d": 2326.3621354166826,
      "v": 99
    },
    {
      "midi": 29,
      "hit": false,
      "t": 98665.5320000003,
      "d": 2569.4148958333535,
      "v": 101
    },
    {
      "midi": 57,
      "hit": false,
      "t": 98665.5320000003,
      "d": 2569.4148958333535,
      "v": 116
    },
    {
      "midi": 41,
      "hit": false,
      "t": 99339.13536458364,
      "d": 1326.3736354166758,
      "v": 78
    },
    {
      "midi": 55,
      "hit": false,
      "t": 99665.5205000003,
      "d": 1569.4263958333468,
      "v": 113
    },
    {
      "midi": 60,
      "hit": false,
      "t": 99665.5205000003,
      "d": 1569.4263958333468,
      "v": 124
    },
    {
      "midi": 41,
      "hit": false,
      "t": 100672.45336458365,
      "d": 1333.3179999999993,
      "v": 118
    },
    {
      "midi": 53,
      "hit": false,
      "t": 100998.83850000032,
      "d": 236.1083958333329,
      "v": 40
    },
    {
      "midi": 60,
      "hit": false,
      "t": 101332.16800000031,
      "d": 993.0441354166687,
      "v": 113
    },
    {
      "midi": 57,
      "hit": false,
      "t": 101332.16800000031,
      "d": 1666.6475000000064,
      "v": 113
    },
    {
      "midi": 53,
      "hit": false,
      "t": 101332.16800000031,
      "d": 2312.473406250021,
      "v": 106
    },
    {
      "midi": 29,
      "hit": false,
      "t": 101332.16800000031,
      "d": 2513.859979166693,
      "v": 96
    },
    {
      "midi": 65,
      "hit": false,
      "t": 101339.11236458365,
      "d": 986.0997708333307,
      "v": 106
    },
    {
      "midi": 41,
      "hit": false,
      "t": 102012.71572916699,
      "d": 1319.4292708333378,
      "v": 74
    },
    {
      "midi": 60,
      "hit": false,
      "t": 102332.15650000032,
      "d": 659.7146354166616,
      "v": 127
    },
    {
      "midi": 65,
      "hit": false,
      "t": 102332.15650000032,
      "d": 666.6589999999997,
      "v": 116
    },
    {
      "midi": 55,
      "hit": false,
      "t": 102332.15650000032,
      "d": 1513.8714791666862,
      "v": 116
    },
    {
      "midi": 60,
      "hit": false,
      "t": 102998.81550000032,
      "d": 847.2124791666865,
      "v": 121
    },
    {
      "midi": 57,
      "hit": false,
      "t": 103005.75986458366,
      "d": 840.2681145833485,
      "v": 127
    },
    {
      "midi": 65,
      "hit": false,
      "t": 103005.75986458366,
      "d": 840.2681145833485,
      "v": 116
    },
    {
      "midi": 41,
      "hit": false,
      "t": 103339.08936458366,
      "d": 1138.87579166668,
      "v": 111
    },
    {
      "midi": 53,
      "hit": false,
      "t": 103651.58577083367,
      "d": 194.44220833333384,
      "v": 93
    },
    {
      "midi": 65,
      "hit": false,
      "t": 103998.80400000034,
      "d": 756.9357395833358,
      "v": 113
    },
    {
      "midi": 53,
      "hit": false,
      "t": 103998.80400000034,
      "d": 784.7131979166734,
      "v": 108
    },
    {
      "midi": 60,
      "hit": false,
      "t": 103998.80400000034,
      "d": 798.6019270833349,
      "v": 121
    },
    {
      "midi": 29,
      "hit": false,
      "t": 103998.80400000034,
      "d": 2604.1367187500146,
      "v": 103
    },
    {
      "midi": 41,
      "hit": false,
      "t": 104672.40736458368,
      "d": 1326.3736354166758,
      "v": 111
    },
    {
      "midi": 60,
      "hit": false,
      "t": 104998.79250000035,
      "d": 1604.1482187500078,
      "v": 127
    },
    {
      "midi": 55,
      "hit": false,
      "t": 105005.73686458368,
      "d": 1597.2038541666698,
      "v": 116
    },
    {
      "midi": 65,
      "hit": false,
      "t": 105005.73686458368,
      "d": 1597.2038541666698,
      "v": 118
    },
    {
      "midi": 41,
      "hit": false,
      "t": 106005.72536458369,
      "d": 1194.4307083333406,
      "v": 127
    },
    {
      "midi": 53,
      "hit": false,
      "t": 106332.11050000036,
      "d": 270.83021874999395,
      "v": 51
    },
    {
      "midi": 60,
      "hit": false,
      "t": 106672.38436458369,
      "d": 993.0441354166687,
      "v": 118
    },
    {
      "midi": 57,
      "hit": false,
      "t": 106672.38436458369,
      "d": 1652.758770833345,
      "v": 116
    },
    {
      "midi": 53,
      "hit": false,
      "t": 106672.38436458369,
      "d": 2312.473406250021,
      "v": 106
    },
    {
      "midi": 65,
      "hit": false,
      "t": 106679.32872916703,
      "d": 986.0997708333307,
      "v": 106
    },
    {
      "midi": 29,
      "hit": false,
      "t": 106679.32872916703,
      "d": 2513.859979166693,
      "v": 103
    },
    {
      "midi": 41,
      "hit": false,
      "t": 107352.93209375037,
      "d": 1298.5961770833383,
      "v": 89
    },
    {
      "midi": 60,
      "hit": false,
      "t": 107672.3728645837,
      "d": 652.7702708333381,
      "v": 124
    },
    {
      "midi": 65,
      "hit": false,
      "t": 107672.3728645837,
      "d": 652.7702708333381,
      "v": 113
    },
    {
      "midi": 55,
      "hit": false,
      "t": 107672.3728645837,
      "d": 1520.8158437500242,
      "v": 116
    },
    {
      "midi": 57,
      "hit": false,
      "t": 108332.08750000037,
      "d": 861.101208333348,
      "v": 118
    },
    {
      "midi": 60,
      "hit": false,
      "t": 108332.08750000037,
      "d": 861.101208333348,
      "v": 121
    },
    {
      "midi": 65,
      "hit": false,
      "t": 108332.08750000037,
      "d": 861.101208333348,
      "v": 108
    },
    {
      "midi": 41,
      "hit": false,
      "t": 108658.47263541704,
      "d": 2499.9712500000314,
      "v": 103
    },
    {
      "midi": 53,
      "hit": false,
      "t": 108991.80213541705,
      "d": 201.38657291667187,
      "v": 81
    },
    {
      "midi": 60,
      "hit": false,
      "t": 109318.18727083372,
      "d": 1006.9328645833302,
      "v": 121
    },
    {
      "midi": 65,
      "hit": false,
      "t": 109318.18727083372,
      "d": 1006.9328645833302,
      "v": 113
    },
    {
      "midi": 29,
      "hit": false,
      "t": 109318.18727083372,
      "d": 2395.8057812500483,
      "v": 101
    },
    {
      "midi": 53,
      "hit": false,
      "t": 109318.18727083372,
      "d": 2395.8057812500483,
      "v": 108
    },
    {
      "midi": 57,
      "hit": false,
      "t": 109318.18727083372,
      "d": 2395.8057812500483,
      "v": 118
    },
    {
      "midi": 60,
      "hit": false,
      "t": 110332.06450000039,
      "d": 1333.318000000043,
      "v": 127
    },
    {
      "midi": 65,
      "hit": false,
      "t": 110332.06450000039,
      "d": 1333.318000000043,
      "v": 118
    },
    {
      "midi": 55,
      "hit": false,
      "t": 110332.06450000039,
      "d": 1381.92855208338,
      "v": 116
    },
    {
      "midi": 79,
      "hit": false,
      "t": 110686.22709375039,
      "d": 291.66331250000803,
      "v": 113
    },
    {
      "midi": 81,
      "hit": false,
      "t": 110839.00311458373,
      "d": 499.9942500000179,
      "v": 96
    },
    {
      "midi": 79,
      "hit": false,
      "t": 110984.83477083374,
      "d": 347.2182291666686,
      "v": 76
    },
    {
      "midi": 76,
      "hit": false,
      "t": 111123.72206250041,
      "d": 166.66474999999627,
      "v": 81
    },
    {
      "midi": 79,
      "hit": false,
      "t": 111338.99736458375,
      "d": 374.9956875000207,
      "v": 99
    },
    {
      "midi": 76,
      "hit": false,
      "t": 111477.88465625042,
      "d": 236.10839583334746,
      "v": 91
    },
    {
      "midi": 74,
      "hit": false,
      "t": 111658.43813541709,
      "d": 90.27673958333617,
      "v": 101
    },
    {
      "midi": 76,
      "hit": false,
      "t": 111811.21415625043,
      "d": 145.83165624999674,
      "v": 89
    },
    {
      "midi": 74,
      "hit": false,
      "t": 111991.76763541708,
      "d": 111.10983333335025,
      "v": 85
    },
    {
      "midi": 48,
      "hit": false,
      "t": 111998.71200000042,
      "d": 979.1554062500072,
      "v": 101
    },
    {
      "midi": 55,
      "hit": false,
      "t": 111998.71200000042,
      "d": 2006.9213645833515,
      "v": 108
    },
    {
      "midi": 60,
      "hit": false,
      "t": 112005.65636458376,
      "d": 2562.4705312500155,
      "v": 106
    },
    {
      "midi": 52,
      "hit": false,
      "t": 112012.6007291671,
      "d": 972.2110416666692,
      "v": 106
    },
    {
      "midi": 72,
      "hit": false,
      "t": 112137.5992916671,
      "d": 340.2738645833306,
      "v": 85
    },
    {
      "midi": 74,
      "hit": false,
      "t": 112345.93022916709,
      "d": 2222.196666666685,
      "v": 99
    },
    {
      "midi": 72,
      "hit": false,
      "t": 112484.81752083376,
      "d": 340.2738645833306,
      "v": 81
    },
    {
      "midi": 69,
      "hit": false,
      "t": 112658.4266354171,
      "d": 1326.3736354166758,
      "v": 66
    },
    {
      "midi": 72,
      "hit": false,
      "t": 112832.03575000043,
      "d": 1736.091145833343,
      "v": 91
    },
    {
      "midi": 48,
      "hit": false,
      "t": 112984.81177083377,
      "d": 1583.3151250000083,
      "v": 113
    },
    {
      "midi": 52,
      "hit": false,
      "t": 112991.7561354171,
      "d": 673.6033645833377,
      "v": 31
    },
    {
      "midi": 52,
      "hit": false,
      "t": 113672.30386458378,
      "d": 895.8230312499945,
      "v": 83
    },
    {
      "midi": 67,
      "hit": false,
      "t": 113686.19259375044,
      "d": 881.934302083333,
      "v": 85
    },
    {
      "midi": 69,
      "hit": false,
      "t": 113991.74463541711,
      "d": 576.3822604166635,
      "v": 96
    },
    {
      "midi": 55,
      "hit": false,
      "t": 114012.57772916711,
      "d": 555.549166666664,
      "v": 85
    },
    {
      "midi": 48,
      "hit": false,
      "t": 114672.29236458377,
      "d": 1006.9328645833593,
      "v": 61
    },
    {
      "midi": 55,
      "hit": false,
      "t": 114679.23672916711,
      "d": 993.0441354166833,
      "v": 89
    },
    {
      "midi": 52,
      "hit": false,
      "t": 114686.18109375045,
      "d": 986.0997708333452,
      "v": 87
    },
    {
      "midi": 60,
      "hit": false,
      "t": 114693.12545833379,
      "d": 979.1554062500072,
      "v": 83
    },
    {
      "midi": 55,
      "hit": false,
      "t": 115679.22522916713,
      "d": 999.9885000000213,
      "v": 106
    },
    {
      "midi": 60,
      "hit": false,
      "t": 115679.22522916713,
      "d": 1006.9328645833593,
      "v": 111
    },
    {
      "midi": 52,
      "hit": false,
      "t": 115679.22522916713,
      "d": 1562.4820312500378,
      "v": 108
    },
    {
      "midi": 48,
      "hit": false,
      "t": 115686.16959375047,
      "d": 673.6033645833377,
      "v": 99
    },
    {
      "midi": 74,
      "hit": false,
      "t": 115707.00268750047,
      "d": 298.6076770833315,
      "v": 127
    },
    {
      "midi": 76,
      "hit": false,
      "t": 115859.7787083338,
      "d": 1381.9285520833655,
      "v": 103
    },
    {
      "midi": 74,
      "hit": false,
      "t": 116012.55472916714,
      "d": 1229.1525312500307,
      "v": 91
    },
    {
      "midi": 72,
      "hit": false,
      "t": 116158.38638541714,
      "d": 513.8829791666794,
      "v": 85
    },
    {
      "midi": 69,
      "hit": false,
      "t": 116338.93986458381,
      "d": 902.7673958333617,
      "v": 99
    },
    {
      "midi": 48,
      "hit": false,
      "t": 116366.71732291715,
      "d": 305.55204166666954,
      "v": 103
    },
    {
      "midi": 48,
      "hit": false,
      "t": 116679.21372916715,
      "d": 270.8302187500085,
      "v": 99
    },
    {
      "midi": 53,
      "hit": false,
      "t": 116679.21372916715,
      "d": 562.4935312500165,
      "v": 116
    },
    {
      "midi": 72,
      "hit": false,
      "t": 116679.21372916715,
      "d": 673.6033645833522,
      "v": 99
    },
    {
      "midi": 55,
      "hit": false,
      "t": 116686.15809375049,
      "d": 555.5491666666785,
      "v": 118
    },
    {
      "midi": 60,
      "hit": false,
      "t": 116693.10245833383,
      "d": 548.6048020833405,
      "v": 116
    },
    {
      "midi": 48,
      "hit": false,
      "t": 116956.9883125005,
      "d": 284.71894791667,
      "v": 93
    },
    {
      "midi": 67,
      "hit": false,
      "t": 116977.8214062505,
      "d": 437.4949687500048,
      "v": 81
    },
    {
      "midi": 60,
      "hit": false,
      "t": 117331.9840000005,
      "d": 993.0441354166542,
      "v": 113
    },
    {
      "midi": 57,
      "hit": false,
      "t": 117331.9840000005,
      "d": 1666.6474999999919,
      "v": 113
    },
    {
      "midi": 53,
      "hit": false,
      "t": 117331.9840000005,
      "d": 2312.4734062500065,
      "v": 106
    },
    {
      "midi": 29,
      "hit": false,
      "t": 117331.9840000005,
      "d": 2513.8599791666784,
      "v": 96
    },
    {
      "midi": 65,
      "hit": false,
      "t": 117338.92836458384,
      "d": 986.0997708333161,
      "v": 106
    },
    {
      "midi": 41,
      "hit": false,
      "t": 118012.53172916717,
      "d": 1319.4292708333378,
      "v": 74
    },
    {
      "midi": 60,
      "hit": false,
      "t": 118331.9725000005,
      "d": 659.7146354166616,
      "v": 127
    },
    {
      "midi": 65,
      "hit": false,
      "t": 118331.9725000005,
      "d": 666.6589999999997,
      "v": 116
    },
    {
      "midi": 55,
      "hit": false,
      "t": 118331.9725000005,
      "d": 1513.8714791666862,
      "v": 116
    },
    {
      "midi": 60,
      "hit": false,
      "t": 118998.6315000005,
      "d": 847.2124791666865,
      "v": 121
    },
    {
      "midi": 57,
      "hit": false,
      "t": 119005.57586458384,
      "d": 840.2681145833485,
      "v": 127
    },
    {
      "midi": 65,
      "hit": false,
      "t": 119005.57586458384,
      "d": 840.2681145833485,
      "v": 116
    },
    {
      "midi": 41,
      "hit": false,
      "t": 119338.90536458384,
      "d": 1138.87579166668,
      "v": 111
    },
    {
      "midi": 53,
      "hit": false,
      "t": 119651.40177083385,
      "d": 194.44220833333384,
      "v": 93
    },
    {
      "midi": 65,
      "hit": false,
      "t": 119998.62000000052,
      "d": 756.9357395833358,
      "v": 113
    },
    {
      "midi": 53,
      "hit": false,
      "t": 119998.62000000052,
      "d": 784.7131979166734,
      "v": 108
    },
    {
      "midi": 60,
      "hit": false,
      "t": 119998.62000000052,
      "d": 798.6019270833349,
      "v": 121
    },
    {
      "midi": 29,
      "hit": false,
      "t": 119998.62000000052,
      "d": 2604.1367187500146,
      "v": 103
    },
    {
      "midi": 41,
      "hit": false,
      "t": 120672.22336458386,
      "d": 1326.3736354166758,
      "v": 111
    },
    {
      "midi": 60,
      "hit": false,
      "t": 120998.60850000053,
      "d": 1604.1482187500078,
      "v": 127
    },
    {
      "midi": 55,
      "hit": false,
      "t": 121005.55286458386,
      "d": 1597.2038541666698,
      "v": 116
    },
    {
      "midi": 65,
      "hit": false,
      "t": 121005.55286458386,
      "d": 1597.2038541666698,
      "v": 118
    },
    {
      "midi": 41,
      "hit": false,
      "t": 122005.54136458387,
      "d": 1194.4307083333406,
      "v": 127
    },
    {
      "midi": 53,
      "hit": false,
      "t": 122331.92650000054,
      "d": 270.83021874999395,
      "v": 51
    },
    {
      "midi": 60,
      "hit": false,
      "t": 122672.20036458387,
      "d": 993.0441354166687,
      "v": 118
    },
    {
      "midi": 57,
      "hit": false,
      "t": 122672.20036458387,
      "d": 1652.758770833345,
      "v": 116
    },
    {
      "midi": 53,
      "hit": false,
      "t": 122672.20036458387,
      "d": 2312.473406250021,
      "v": 106
    },
    {
      "midi": 65,
      "hit": false,
      "t": 122679.14472916721,
      "d": 986.0997708333307,
      "v": 106
    },
    {
      "midi": 29,
      "hit": false,
      "t": 122679.14472916721,
      "d": 2513.859979166693,
      "v": 103
    },
    {
      "midi": 41,
      "hit": false,
      "t": 123352.74809375055,
      "d": 1298.5961770833383,
      "v": 89
    },
    {
      "midi": 60,
      "hit": false,
      "t": 123672.18886458388,
      "d": 652.7702708333381,
      "v": 124
    },
    {
      "midi": 65,
      "hit": false,
      "t": 123672.18886458388,
      "d": 652.7702708333381,
      "v": 113
    },
    {
      "midi": 55,
      "hit": false,
      "t": 123672.18886458388,
      "d": 1520.8158437500242,
      "v": 116
    },
    {
      "midi": 57,
      "hit": false,
      "t": 124331.90350000055,
      "d": 861.101208333348,
      "v": 118
    },
    {
      "midi": 60,
      "hit": false,
      "t": 124331.90350000055,
      "d": 861.101208333348,
      "v": 121
    },
    {
      "midi": 65,
      "hit": false,
      "t": 124331.90350000055,
      "d": 861.101208333348,
      "v": 108
    },
    {
      "midi": 41,
      "hit": false,
      "t": 124658.28863541722,
      "d": 1361.0954583333369,
      "v": 103
    },
    {
      "midi": 53,
      "hit": false,
      "t": 124991.61813541723,
      "d": 201.38657291667187,
      "v": 81
    },
    {
      "midi": 60,
      "hit": false,
      "t": 125318.0032708339,
      "d": 1006.9328645833302,
      "v": 121
    },
    {
      "midi": 65,
      "hit": false,
      "t": 125318.0032708339,
      "d": 1006.9328645833302,
      "v": 113
    },
    {
      "midi": 29,
      "hit": false,
      "t": 125318.0032708339,
      "d": 2395.8057812500338,
      "v": 101
    },
    {
      "midi": 53,
      "hit": false,
      "t": 125318.0032708339,
      "d": 2395.8057812500338,
      "v": 108
    },
    {
      "midi": 57,
      "hit": false,
      "t": 125318.0032708339,
      "d": 2395.8057812500338,
      "v": 118
    },
    {
      "midi": 41,
      "hit": false,
      "t": 126026.3284583339,
      "d": 1687.480593750035,
      "v": 106
    },
    {
      "midi": 55,
      "hit": false,
      "t": 126331.88050000057,
      "d": 1381.9285520833655,
      "v": 116
    },
    {
      "midi": 65,
      "hit": false,
      "t": 126331.88050000057,
      "d": 1381.9285520833655,
      "v": 118
    },
    {
      "midi": 60,
      "hit": false,
      "t": 126331.88050000057,
      "d": 1472.2052916666871,
      "v": 127
    },
    {
      "midi": 79,
      "hit": false,
      "t": 126686.04309375057,
      "d": 291.66331250000803,
      "v": 113
    },
    {
      "midi": 81,
      "hit": false,
      "t": 126838.81911458391,
      "d": 874.9899375000241,
      "v": 96
    },
    {
      "midi": 79,
      "hit": false,
      "t": 126984.65077083392,
      "d": 347.2182291666686,
      "v": 76
    },
    {
      "midi": 76,
      "hit": false,
      "t": 127123.5380625006,
      "d": 347.2182291666686,
      "v": 81
    },
    {
      "midi": 79,
      "hit": false,
      "t": 127338.81336458393,
      "d": 374.99568750000617,
      "v": 99
    },
    {
      "midi": 76,
      "hit": false,
      "t": 127477.7006562506,
      "d": 236.1083958333329,
      "v": 91
    },
    {
      "midi": 74,
      "hit": false,
      "t": 127658.25413541727,
      "d": 90.27673958332161,
      "v": 101
    },
    {
      "midi": 76,
      "hit": false,
      "t": 127811.03015625059,
      "d": 145.83165624999674,
      "v": 89
    },
    {
      "midi": 74,
      "hit": false,
      "t": 127991.58363541725,
      "d": 111.10983333335025,
      "v": 85
    },
    {
      "midi": 48,
      "hit": false,
      "t": 127998.52800000059,
      "d": 979.1554062500072,
      "v": 101
    },
    {
      "midi": 55,
      "hit": false,
      "t": 127998.52800000059,
      "d": 2006.9213645833515,
      "v": 108
    },
    {
      "midi": 60,
      "hit": false,
      "t": 128005.47236458393,
      "d": 2562.4705312500155,
      "v": 106
    },
    {
      "midi": 52,
      "hit": false,
      "t": 128012.41672916726,
      "d": 972.2110416666692,
      "v": 106
    },
    {
      "midi": 72,
      "hit": false,
      "t": 128137.41529166726,
      "d": 340.2738645833306,
      "v": 85
    },
    {
      "midi": 74,
      "hit": false,
      "t": 128345.74622916726,
      "d": 2222.196666666685,
      "v": 99
    },
    {
      "midi": 72,
      "hit": false,
      "t": 128484.63352083393,
      "d": 340.2738645833306,
      "v": 81
    },
    {
      "midi": 69,
      "hit": false,
      "t": 128658.24263541726,
      "d": 1326.3736354166758,
      "v": 66
    },
    {
      "midi": 72,
      "hit": false,
      "t": 128831.8517500006,
      "d": 1736.091145833343,
      "v": 91
    },
    {
      "midi": 48,
      "hit": false,
      "t": 128984.62777083393,
      "d": 1583.3151250000083,
      "v": 113
    },
    {
      "midi": 52,
      "hit": false,
      "t": 128991.57213541727,
      "d": 673.6033645833377,
      "v": 31
    },
    {
      "midi": 52,
      "hit": false,
      "t": 129672.11986458395,
      "d": 895.8230312499945,
      "v": 83
    },
    {
      "midi": 67,
      "hit": false,
      "t": 129686.00859375061,
      "d": 881.934302083333,
      "v": 85
    },
    {
      "midi": 69,
      "hit": false,
      "t": 129991.56063541728,
      "d": 576.3822604166635,
      "v": 96
    },
    {
      "midi": 55,
      "hit": false,
      "t": 130012.39372916728,
      "d": 555.549166666664,
      "v": 85
    },
    {
      "midi": 48,
      "hit": false,
      "t": 130672.10836458394,
      "d": 1006.9328645833448,
      "v": 61
    },
    {
      "midi": 55,
      "hit": false,
      "t": 130679.05272916728,
      "d": 993.0441354166833,
      "v": 89
    },
    {
      "midi": 52,
      "hit": false,
      "t": 130685.99709375062,
      "d": 986.0997708333452,
      "v": 87
    },
    {
      "midi": 60,
      "hit": false,
      "t": 130692.94145833395,
      "d": 979.1554062500072,
      "v": 83
    },
    {
      "midi": 55,
      "hit": false,
      "t": 131679.04122916728,
      "d": 999.9884999999485,
      "v": 106
    },
    {
      "midi": 60,
      "hit": false,
      "t": 131679.04122916728,
      "d": 1006.932864583272,
      "v": 111
    },
    {
      "midi": 52,
      "hit": false,
      "t": 131679.04122916728,
      "d": 1562.482031249936,
      "v": 108
    },
    {
      "midi": 48,
      "hit": false,
      "t": 131685.9855937506,
      "d": 673.6033645833086,
      "v": 99
    },
    {
      "midi": 74,
      "hit": false,
      "t": 131706.8186875006,
      "d": 298.60767708331696,
      "v": 127
    },
    {
      "midi": 76,
      "hit": false,
      "t": 131859.59470833393,
      "d": 1381.9285520832927,
      "v": 103
    },
    {
      "midi": 74,
      "hit": false,
      "t": 132012.37072916725,
      "d": 1229.1525312499725,
      "v": 91
    },
    {
      "midi": 72,
      "hit": false,
      "t": 132158.20238541724,
      "d": 513.8829791666649,
      "v": 85
    },
    {
      "midi": 69,
      "hit": false,
      "t": 132338.75586458392,
      "d": 902.7673958333035,
      "v": 99
    },
    {
      "midi": 48,
      "hit": false,
      "t": 132366.53332291724,
      "d": 305.55204166666954,
      "v": 103
    },
    {
      "midi": 48,
      "hit": false,
      "t": 132679.02972916723,
      "d": 270.83021874999395,
      "v": 99
    },
    {
      "midi": 53,
      "hit": false,
      "t": 132679.02972916723,
      "d": 562.4935312499874,
      "v": 116
    },
    {
      "midi": 72,
      "hit": false,
      "t": 132679.02972916723,
      "d": 673.6033645833086,
      "v": 99
    },
    {
      "midi": 55,
      "hit": false,
      "t": 132685.97409375056,
      "d": 555.549166666664,
      "v": 118
    },
    {
      "midi": 60,
      "hit": false,
      "t": 132692.91845833388,
      "d": 548.6048020833405,
      "v": 116
    },
    {
      "midi": 48,
      "hit": false,
      "t": 132956.80431250055,
      "d": 284.71894791667,
      "v": 93
    },
    {
      "midi": 67,
      "hit": false,
      "t": 132977.63740625055,
      "d": 437.4949687499902,
      "v": 81
    },
    {
      "midi": 48,
      "hit": false,
      "t": 133338.7443645839,
      "d": 666.6589999999851,
      "v": 99
    },
    {
      "midi": 55,
      "hit": false,
      "t": 133345.68872916722,
      "d": 1979.1439062499267,
      "v": 111
    },
    {
      "midi": 52,
      "hit": false,
      "t": 133352.63309375054,
      "d": 1659.7031354166393,
      "v": 111
    },
    {
      "midi": 60,
      "hit": false,
      "t": 133352.63309375054,
      "d": 2312.473406249919,
      "v": 108
    },
    {
      "midi": 48,
      "hit": false,
      "t": 134317.89977083387,
      "d": 1590.259489583259,
      "v": 96
    },
    {
      "midi": 67,
      "hit": false,
      "t": 134359.56595833387,
      "d": 152.77602083332022,
      "v": 124
    },
    {
      "midi": 69,
      "hit": false,
      "t": 134512.3419791672,
      "d": 1395.8172812499397,
      "v": 101
    },
    {
      "midi": 67,
      "hit": false,
      "t": 134672.06236458386,
      "d": 1236.096895833267,
      "v": 89
    },
    {
      "midi": 64,
      "hit": false,
      "t": 134824.83838541718,
      "d": 486.10552083331277,
      "v": 69
    },
    {
      "midi": 62,
      "hit": false,
      "t": 134998.4475000005,
      "d": 909.7117604166269,
      "v": 85
    },
    {
      "midi": 52,
      "hit": false,
      "t": 135019.2805937505,
      "d": 888.8786666666274,
      "v": 85
    },
    {
      "midi": 64,
      "hit": false,
      "t": 135317.88827083382,
      "d": 590.2709895833104,
      "v": 91
    },
    {
      "midi": 55,
      "hit": false,
      "t": 135331.77700000047,
      "d": 576.3822604166635,
      "v": 89
    },
    {
      "midi": 60,
      "hit": false,
      "t": 135672.05086458378,
      "d": 1020.8215937500063,
      "v": 91
    },
    {
      "midi": 57,
      "hit": false,
      "t": 137324.80963541713,
      "d": 368.05132291666814,
      "v": 118
    },
    {
      "midi": 60,
      "hit": false,
      "t": 137324.80963541713,
      "d": 1118.0426979166223,
      "v": 124
    },
    {
      "midi": 57,
      "hit": false,
      "t": 137699.80532291712,
      "d": 305.55204166666954,
      "v": 106
    },
    {
      "midi": 62,
      "hit": false,
      "t": 137699.80532291712,
      "d": 624.992812499986,
      "v": 124
    },
    {
      "midi": 57,
      "hit": false,
      "t": 138012.3017291671,
      "d": 305.55204166666954,
      "v": 103
    },
    {
      "midi": 64,
      "hit": false,
      "t": 138012.3017291671,
      "d": 430.55060416663764,
      "v": 121
    },
    {
      "midi": 57,
      "hit": false,
      "t": 138324.7981354171,
      "d": 326.38513541663997,
      "v": 66
    },
    {
      "midi": 62,
      "hit": false,
      "t": 138331.74250000043,
      "d": 312.496406249993,
      "v": 121
    },
    {
      "midi": 64,
      "hit": false,
      "t": 138651.18327083375,
      "d": 1187.4863437499444,
      "v": 118
    },
    {
      "midi": 57,
      "hit": false,
      "t": 138658.12763541707,
      "d": 666.6589999999851,
      "v": 121
    },
    {
      "midi": 69,
      "hit": false,
      "t": 138658.12763541707,
      "d": 1180.5419791666209,
      "v": 113
    },
    {
      "midi": 60,
      "hit": false,
      "t": 138665.0720000004,
      "d": 993.0441354166542,
      "v": 124
    },
    {
      "midi": 57,
      "hit": false,
      "t": 139331.73100000038,
      "d": 506.9386145833123,
      "v": 124
    },
    {
      "midi": 60,
      "hit": false,
      "t": 139665.06050000037,
      "d": 173.60911458331975,
      "v": 91
    },
    {
      "midi": 59,
      "hit": false,
      "t": 139998.39000000036,
      "d": 90.27673958332161,
      "v": 124
    },
    {
      "midi": 55,
      "hit": false,
      "t": 139998.39000000036,
      "d": 104.16546874999767,
      "v": 118
    },
    {
      "midi": 62,
      "hit": false,
      "t": 139998.39000000036,
      "d": 104.16546874999767,
      "v": 116
    },
    {
      "midi": 67,
      "hit": false,
      "t": 139998.39000000036,
      "d": 124.9985624999972,
      "v": 111
    },
    {
      "midi": 55,
      "hit": false,
      "t": 140324.77513541703,
      "d": 534.7160729166644,
      "v": 118
    },
    {
      "midi": 62,
      "hit": false,
      "t": 140324.77513541703,
      "d": 534.7160729166644,
      "v": 127
    },
    {
      "midi": 59,
      "hit": false,
      "t": 140331.71950000036,
      "d": 527.7717083333409,
      "v": 121
    },
    {
      "midi": 67,
      "hit": false,
      "t": 140331.71950000036,
      "d": 527.7717083333409,
      "v": 116
    },
    {
      "midi": 60,
      "hit": false,
      "t": 140998.37850000037,
      "d": 666.6590000000142,
      "v": 127
    },
    {
      "midi": 64,
      "hit": false,
      "t": 140998.37850000037,
      "d": 999.9885000000068,
      "v": 127
    },
    {
      "midi": 67,
      "hit": false,
      "t": 140998.37850000037,
      "d": 1319.4292708333232,
      "v": 121
    },
    {
      "midi": 72,
      "hit": false,
      "t": 140998.37850000037,
      "d": 1319.4292708333232,
      "v": 121
    },
    {
      "midi": 60,
      "hit": false,
      "t": 141671.9818645837,
      "d": 645.8259062499856,
      "v": 91
    },
    {
      "midi": 64,
      "hit": false,
      "t": 142005.3113645837,
      "d": 312.496406249993,
      "v": 78
    },
    {
      "midi": 57,
      "hit": false,
      "t": 142345.58522916702,
      "d": 986.0997708333307,
      "v": 124
    },
    {
      "midi": 60,
      "hit": false,
      "t": 142345.58522916702,
      "d": 1472.2052916666435,
      "v": 121
    },
    {
      "midi": 65,
      "hit": false,
      "t": 142345.58522916702,
      "d": 1472.2052916666435,
      "v": 106
    },
    {
      "midi": 53,
      "hit": false,
      "t": 143005.29986458368,
      "d": 333.32949999999255,
      "v": 108
    },
    {
      "midi": 57,
      "hit": false,
      "t": 143338.62936458367,
      "d": 479.1611562499893,
      "v": 124
    },
    {
      "midi": 53,
      "hit": false,
      "t": 143345.573729167,
      "d": 472.2167916666658,
      "v": 74
    },
    {
      "midi": 55,
      "hit": false,
      "t": 143991.39963541698,
      "d": 666.6589999999851,
      "v": 121
    },
    {
      "midi": 59,
      "hit": false,
      "t": 143991.39963541698,
      "d": 999.9884999999776,
      "v": 124
    },
    {
      "midi": 62,
      "hit": false,
      "t": 143991.39963541698,
      "d": 999.9884999999776,
      "v": 121
    },
    {
      "midi": 67,
      "hit": false,
      "t": 143998.3440000003,
      "d": 999.9884999999776,
      "v": 116
    },
    {
      "midi": 43,
      "hit": false,
      "t": 143998.3440000003,
      "d": 3333.2949999999255,
      "v": 113
    },
    {
      "midi": 55,
      "hit": false,
      "t": 144665.0030000003,
      "d": 993.0441354166542,
      "v": 81
    },
    {
      "midi": 59,
      "hit": false,
      "t": 144998.33250000028,
      "d": 999.9884999999776,
      "v": 121
    },
    {
      "midi": 62,
      "hit": false,
      "t": 144998.33250000028,
      "d": 1333.3179999999702,
      "v": 121
    },
    {
      "midi": 67,
      "hit": false,
      "t": 145005.2768645836,
      "d": 1326.3736354166467,
      "v": 116
    },
    {
      "midi": 55,
      "hit": false,
      "t": 145664.99150000027,
      "d": 1319.4292708332941,
      "v": 111
    },
    {
      "midi": 59,
      "hit": false,
      "t": 146005.26536458358,
      "d": 326.3851354166691,
      "v": 111
    },
    {
      "midi": 59,
      "hit": false,
      "t": 146338.59486458357,
      "d": 145.83165624999674,
      "v": 121
    },
    {
      "midi": 62,
      "hit": false,
      "t": 146338.59486458357,
      "d": 145.83165624999674,
      "v": 116
    },
    {
      "midi": 67,
      "hit": false,
      "t": 146338.59486458357,
      "d": 145.83165624999674,
      "v": 99
    },
    {
      "midi": 59,
      "hit": false,
      "t": 146491.3708854169,
      "d": 159.7203854166728,
      "v": 111
    },
    {
      "midi": 62,
      "hit": false,
      "t": 146491.3708854169,
      "d": 159.7203854166728,
      "v": 116
    },
    {
      "midi": 67,
      "hit": false,
      "t": 146491.3708854169,
      "d": 159.7203854166728,
      "v": 99
    },
    {
      "midi": 62,
      "hit": false,
      "t": 146658.0356354169,
      "d": 999.9885000000068,
      "v": 124
    },
    {
      "midi": 59,
      "hit": false,
      "t": 146658.0356354169,
      "d": 1006.9328645833302,
      "v": 118
    },
    {
      "midi": 67,
      "hit": false,
      "t": 146658.0356354169,
      "d": 1006.9328645833302,
      "v": 118
    },
    {
      "midi": 64,
      "hit": false,
      "t": 146664.9800000002,
      "d": 2534.6930729166197,
      "v": 66
    },
    {
      "midi": 55,
      "hit": false,
      "t": 146991.36513541688,
      "d": 666.6590000000142,
      "v": 106
    },
    {
      "midi": 43,
      "hit": false,
      "t": 147338.58336458355,
      "d": 1645.8144062499632,
      "v": 87
    },
    {
      "midi": 55,
      "hit": false,
      "t": 147664.96850000022,
      "d": 659.7146354166616,
      "v": 113
    },
    {
      "midi": 62,
      "hit": false,
      "t": 147664.96850000022,
      "d": 999.9884999999776,
      "v": 118
    },
    {
      "midi": 59,
      "hit": false,
      "t": 147671.91286458354,
      "d": 993.0441354166542,
      "v": 118
    },
    {
      "midi": 67,
      "hit": false,
      "t": 147671.91286458354,
      "d": 999.9884999999776,
      "v": 116
    },
    {
      "midi": 55,
      "hit": false,
      "t": 148331.6275000002,
      "d": 868.0455729166279,
      "v": 118
    },
    {
      "midi": 59,
      "hit": false,
      "t": 148671.90136458352,
      "d": 527.7717083333118,
      "v": 121
    },
    {
      "midi": 62,
      "hit": false,
      "t": 148671.90136458352,
      "d": 527.7717083333118,
      "v": 118
    },
    {
      "midi": 67,
      "hit": false,
      "t": 148678.84572916685,
      "d": 520.8273437499884,
      "v": 106
    },
    {
      "midi": 43,
      "hit": false,
      "t": 148991.34213541684,
      "d": 312.496406249993,
      "v": 96
    },
    {
      "midi": 57,
      "hit": false,
      "t": 149331.61600000015,
      "d": 659.7146354166616,
      "v": 124
    },
    {
      "midi": 60,
      "hit": false,
      "t": 149331.61600000015,
      "d": 659.7146354166616,
      "v": 127
    },
    {
      "midi": 64,
      "hit": false,
      "t": 149331.61600000015,
      "d": 659.7146354166616,
      "v": 124
    },
    {
      "midi": 69,
      "hit": false,
      "t": 149331.61600000015,
      "d": 659.7146354166616,
      "v": 118
    },
    {
      "midi": 45,
      "hit": false,
      "t": 149331.61600000015,
      "d": 993.0441354166542,
      "v": 113
    },
    {
      "midi": 57,
      "hit": false,
      "t": 149998.27500000014,
      "d": 527.7717083333118,
      "v": 121
    },
    {
      "midi": 60,
      "hit": false,
      "t": 149998.27500000014,
      "d": 527.7717083333118,
      "v": 127
    },
    {
      "midi": 64,
      "hit": false,
      "t": 149998.27500000014,
      "d": 527.7717083333118,
      "v": 124
    },
    {
      "midi": 69,
      "hit": false,
      "t": 149998.27500000014,
      "d": 527.7717083333118,
      "v": 113
    },
    {
      "midi": 45,
      "hit": false,
      "t": 150331.60450000013,
      "d": 298.60767708331696,
      "v": 106
    },
    {
      "midi": 59,
      "hit": false,
      "t": 150671.87836458345,
      "d": 111.10983333332115,
      "v": 124
    },
    {
      "midi": 62,
      "hit": false,
      "t": 150671.87836458345,
      "d": 111.10983333332115,
      "v": 124
    },
    {
      "midi": 67,
      "hit": false,
      "t": 150671.87836458345,
      "d": 124.9985624999972,
      "v": 116
    },
    {
      "midi": 55,
      "hit": false,
      "t": 150678.82272916677,
      "d": 90.27673958332161,
      "v": 121
    },
    {
      "midi": 55,
      "hit": false,
      "t": 150991.31913541676,
      "d": 590.2709895833104,
      "v": 116
    },
    {
      "midi": 59,
      "hit": false,
      "t": 150991.31913541676,
      "d": 590.2709895833104,
      "v": 124
    },
    {
      "midi": 62,
      "hit": false,
      "t": 150991.31913541676,
      "d": 590.2709895833104,
      "v": 124
    },
    {
      "midi": 67,
      "hit": false,
      "t": 150998.2635000001,
      "d": 583.326624999987,
      "v": 118
    },
    {
      "midi": 60,
      "hit": false,
      "t": 151664.92250000007,
      "d": 652.7702708333381,
      "v": 127
    },
    {
      "midi": 64,
      "hit": false,
      "t": 151664.92250000007,
      "d": 993.0441354166542,
      "v": 124
    },
    {
      "midi": 67,
      "hit": false,
      "t": 151664.92250000007,
      "d": 1326.3736354166467,
      "v": 118
    },
    {
      "midi": 72,
      "hit": false,
      "t": 151664.92250000007,
      "d": 1326.3736354166467,
      "v": 124
    },
    {
      "midi": 60,
      "hit": false,
      "t": 152324.63713541673,
      "d": 333.32949999999255,
      "v": 96
    },
    {
      "midi": 60,
      "hit": false,
      "t": 152664.91100000005,
      "d": 326.3851354166691,
      "v": 96
    },
    {
      "midi": 64,
      "hit": false,
      "t": 152664.91100000005,
      "d": 326.3851354166691,
      "v": 108
    },
    {
      "midi": 57,
      "hit": false,
      "t": 152998.24050000004,
      "d": 993.0441354166833,
      "v": 127
    },
    {
      "midi": 60,
      "hit": false,
      "t": 152998.24050000004,
      "d": 993.0441354166833,
      "v": 124
    },
    {
      "midi": 65,
      "hit": false,
      "t": 152998.24050000004,
      "d": 993.0441354166833,
      "v": 124
    },
    {
      "midi": 53,
      "hit": false,
      "t": 153664.89950000006,
      "d": 854.1568437499809,
      "v": 111
    },
    {
      "midi": 57,
      "hit": false,
      "t": 153998.22900000005,
      "d": 520.8273437499884,
      "v": 124
    },
    {
      "midi": 60,
      "hit": false,
      "t": 153998.22900000005,
      "d": 520.8273437499884,
      "v": 116
    },
    {
      "midi": 65,
      "hit": false,
      "t": 153998.22900000005,
      "d": 520.8273437499884,
      "v": 111
    },
    {
      "midi": 59,
      "hit": false,
      "t": 154664.88800000004,
      "d": 999.9885000000068,
      "v": 124
    },
    {
      "midi": 43,
      "hit": false,
      "t": 154671.83236458336,
      "d": 527.7717083333409,
      "v": 116
    },
    {
      "midi": 55,
      "hit": false,
      "t": 154671.83236458336,
      "d": 993.0441354166833,
      "v": 121
    },
    {
      "midi": 62,
      "hit": false,
      "t": 154671.83236458336,
      "d": 993.0441354166833,
      "v": 121
    },
    {
      "midi": 67,
      "hit": false,
      "t": 154671.83236458336,
      "d": 993.0441354166833,
      "v": 118
    },
    {
      "midi": 43,
      "hit": false,
      "t": 155338.49136458337,
      "d": 1319.4292708333232,
      "v": 108
    },
    {
      "midi": 55,
      "hit": false,
      "t": 155671.82086458337,
      "d": 652.7702708333381,
      "v": 113
    },
    {
      "midi": 59,
      "hit": false,
      "t": 155671.82086458337,
      "d": 1326.3736354166467,
      "v": 121
    },
    {
      "midi": 62,
      "hit": false,
      "t": 155671.82086458337,
      "d": 1326.3736354166467,
      "v": 118
    },
    {
      "midi": 67,
      "hit": false,
      "t": 155671.82086458337,
      "d": 1326.3736354166467,
      "v": 113
    },
    {
      "midi": 55,
      "hit": false,
      "t": 156331.53550000003,
      "d": 659.7146354166616,
      "v": 99
    },
    {
      "midi": 43,
      "hit": false,
      "t": 156664.86500000002,
      "d": 326.3851354166691,
      "v": 96
    },
    {
      "midi": 55,
      "hit": false,
      "t": 156998.1945,
      "d": 312.496406249993,
      "v": 118
    },
    {
      "midi": 43,
      "hit": false,
      "t": 156998.1945,
      "d": 993.0441354166542,
      "v": 113
    },
    {
      "midi": 59,
      "hit": false,
      "t": 157005.13886458334,
      "d": 1326.3736354166467,
      "v": 121
    },
    {
      "midi": 62,
      "hit": false,
      "t": 157005.13886458334,
      "d": 1326.3736354166467,
      "v": 121
    },
    {
      "midi": 67,
      "hit": false,
      "t": 157005.13886458334,
      "d": 1326.3736354166467,
      "v": 116
    },
    {
      "midi": 55,
      "hit": false,
      "t": 157317.63527083333,
      "d": 1666.6474999999627,
      "v": 52
    },
    {
      "midi": 43,
      "hit": false,
      "t": 157998.183,
      "d": 652.770270833309,
      "v": 81
    },
    {
      "midi": 59,
      "hit": false,
      "t": 158338.4568645833,
      "d": 986.0997708333016,
      "v": 121
    },
    {
      "midi": 67,
      "hit": false,
      "t": 158338.4568645833,
      "d": 1381.9285520832927,
      "v": 118
    },
    {
      "midi": 62,
      "hit": false,
      "t": 158338.4568645833,
      "d": 1395.8172812499688,
      "v": 121
    },
    {
      "midi": 43,
      "hit": false,
      "t": 158657.89763541662,
      "d": 1090.2652395833284,
      "v": 101
    },
    {
      "midi": 55,
      "hit": false,
      "t": 158991.22713541662,
      "d": 715.2695520833076,
      "v": 118
    },
    {
      "midi": 59,
      "hit": false,
      "t": 159331.50099999993,
      "d": 416.6618750000198,
      "v": 108
    },
    {
      "midi": 48,
      "hit": false,
      "t": 160018.99309374994,
      "d": 958.3223124999786,
      "v": 106
    },
    {
      "midi": 52,
      "hit": false,
      "t": 160025.93745833327,
      "d": 1645.8144062499923,
      "v": 108
    },
    {
      "midi": 55,
      "hit": false,
      "t": 160025.93745833327,
      "d": 1951.3664479166619,
      "v": 106
    },
    {
      "midi": 60,
      "hit": false,
      "t": 160025.93745833327,
      "d": 2527.7487083332962,
      "v": 111
    },
    {
      "midi": 48,
      "hit": false,
      "t": 160984.25977083325,
      "d": 1354.1510937499988,
      "v": 106
    },
    {
      "midi": 52,
      "hit": false,
      "t": 161678.69622916658,
      "d": 874.9899374999804,
      "v": 111
    },
    {
      "midi": 55,
      "hit": false,
      "t": 161984.24827083325,
      "d": 569.4378958333109,
      "v": 93
    },
    {
      "midi": 48,
      "hit": false,
      "t": 162345.35522916657,
      "d": 208.33093749999534,
      "v": 73
    },
    {
      "midi": 53,
      "hit": false,
      "t": 162678.68472916656,
      "d": 923.6004895833321,
      "v": 108
    },
    {
      "midi": 48,
      "hit": false,
      "t": 162685.62909374989,
      "d": 437.4949687499902,
      "v": 101
    },
    {
      "midi": 55,
      "hit": false,
      "t": 162685.62909374989,
      "d": 916.6561250000086,
      "v": 108
    },
    {
      "midi": 60,
      "hit": false,
      "t": 162685.62909374989,
      "d": 916.6561250000086,
      "v": 111
    },
    {
      "midi": 48,
      "hit": false,
      "t": 163345.34372916655,
      "d": 256.941489583347,
      "v": 62
    },
    {
      "midi": 48,
      "hit": false,
      "t": 163692.56195833322,
      "d": 381.9400520833151,
      "v": 99
    },
    {
      "midi": 52,
      "hit": false,
      "t": 163692.56195833322,
      "d": 958.3223124999786,
      "v": 108
    },
    {
      "midi": 55,
      "hit": false,
      "t": 163692.56195833322,
      "d": 1118.0426979166223,
      "v": 108
    },
    {
      "midi": 60,
      "hit": false,
      "t": 163699.50632291654,
      "d": 624.992812499986,
      "v": 106
    },
    {
      "midi": 48,
      "hit": false,
      "t": 164317.5547708332,
      "d": 881.9343020832748,
      "v": 99
    },
    {
      "midi": 52,
      "hit": false,
      "t": 164657.82863541652,
      "d": 597.2153541666339,
      "v": 113
    },
    {
      "midi": 55,
      "hit": false,
      "t": 164817.54902083316,
      "d": 451.3836979166372,
      "v": 103
    },
    {
      "midi": 60,
      "hit": false,
      "t": 164984.21377083316,
      "d": 277.7745833333174,
      "v": 106
    },
    {
      "midi": 60,
      "hit": false,
      "t": 165317.54327083312,
      "d": 2208.3079374999506,
      "v": 96
    },
    {
      "midi": 48,
      "hit": false,
      "t": 165324.48763541644,
      "d": 1013.8772291666537,
      "v": 103
    },
    {
      "midi": 55,
      "hit": false,
      "t": 165324.48763541644,
      "d": 2201.363572916627,
      "v": 101
    },
    {
      "midi": 52,
      "hit": false,
      "t": 165331.43199999977,
      "d": 1687.4805937499914,
      "v": 108
    },
    {
      "midi": 48,
      "hit": false,
      "t": 166345.30922916642,
      "d": 1180.54197916665,
      "v": 111
    },
    {
      "midi": 52,
      "hit": false,
      "t": 167025.85695833308,
      "d": 499.9942499999888,
      "v": 79
    },
    {
      "midi": 53,
      "hit": false,
      "t": 167685.57159374974,
      "d": 465.27242708331323,
      "v": 111
    },
    {
      "midi": 55,
      "hit": false,
      "t": 167685.57159374974,
      "d": 513.8829791666358,
      "v": 116
    },
    {
      "midi": 60,
      "hit": false,
      "t": 167692.51595833307,
      "d": 520.8273437499884,
      "v": 111
    },
    {
      "midi": 55,
      "hit": false,
      "t": 168352.23059374973,
      "d": 673.6033645833377,
      "v": 113
    },
    {
      "midi": 52,
      "hit": false,
      "t": 168352.23059374973,
      "d": 826.3793854166579,
      "v": 116
    },
    {
      "midi": 60,
      "hit": false,
      "t": 168359.17495833305,
      "d": 666.6590000000142,
      "v": 108
    },
    {
      "midi": 50,
      "hit": false,
      "t": 169032.7783229164,
      "d": 409.7175104166672,
      "v": 111
    },
    {
      "midi": 60,
      "hit": false,
      "t": 169032.7783229164,
      "d": 493.04988541666535,
      "v": 108
    },
    {
      "midi": 55,
      "hit": false,
      "t": 169032.7783229164,
      "d": 506.9386145833414,
      "v": 116
    },
    {
      "midi": 55,
      "hit": false,
      "t": 169678.6042291664,
      "d": 812.4906562499527,
      "v": 108
    },
    {
      "midi": 60,
      "hit": false,
      "t": 169678.6042291664,
      "d": 812.4906562499527,
      "v": 108
    },
    {
      "midi": 52,
      "hit": false,
      "t": 169685.54859374973,
      "d": 805.5462916666293,
      "v": 111
    },
    {
      "midi": 48,
      "hit": false,
      "t": 169692.49295833305,
      "d": 597.215354166663,
      "v": 99
    },
    {
      "midi": 48,
      "hit": false,
      "t": 170296.65267708304,
      "d": 229.16403124999488,
      "v": 103
    },
    {
      "midi": 48,
      "hit": false,
      "t": 170643.8709062497,
      "d": 1020.8215937499772,
      "v": 106
    },
    {
      "midi": 55,
      "hit": false,
      "t": 170643.8709062497,
      "d": 1999.9769999999553,
      "v": 118
    },
    {
      "midi": 36,
      "hit": false,
      "t": 170643.8709062497,
      "d": 2541.637437499943,
      "v": 108
    },
    {
      "midi": 52,
      "hit": false,
      "t": 170650.81527083303,
      "d": 1659.7031354166393,
      "v": 113
    },
    {
      "midi": 60,
      "hit": false,
      "t": 170650.81527083303,
      "d": 2534.6930729166197,
      "v": 116
    },
    {
      "midi": 48,
      "hit": false,
      "t": 171671.636864583,
      "d": 1305.5405416666472,
      "v": 108
    },
    {
      "midi": 52,
      "hit": false,
      "t": 172317.462770833,
      "d": 868.045572916657,
      "v": 106
    },
    {
      "midi": 55,
      "hit": false,
      "t": 172650.792270833,
      "d": 534.7160729166644,
      "v": 78
    },
    {
      "midi": 48,
      "hit": false,
      "t": 172984.12177083298,
      "d": 229.16403124999488,
      "v": 78
    },
    {
      "midi": 48,
      "hit": false,
      "t": 173345.2287291663,
      "d": 388.8844166666386,
      "v": 91
    },
    {
      "midi": 55,
      "hit": false,
      "t": 173352.17309374962,
      "d": 930.5448541666556,
      "v": 103
    },
    {
      "midi": 60,
      "hit": false,
      "t": 173352.17309374962,
      "d": 2319.417770833272,
      "v": 108
    },
    {
      "midi": 53,
      "hit": false,
      "t": 173359.11745833294,
      "d": 777.7688333333354,
      "v": 93
    },
    {
      "midi": 36,
      "hit": false,
      "t": 173359.11745833294,
      "d": 2541.637437499943,
      "v": 76
    },
    {
      "midi": 48,
      "hit": false,
      "t": 174011.88772916628,
      "d": 986.0997708333016,
      "v": 83
    },
    {
      "midi": 55,
      "hit": false,
      "t": 174352.1615937496,
      "d": 1361.0954583332932,
      "v": 91
    },
    {
      "midi": 52,
      "hit": false,
      "t": 174359.10595833292,
      "d": 979.1554062499781,
      "v": 111
    },
    {
      "midi": 48,
      "hit": false,
      "t": 175004.9318645829,
      "d": 666.6589999999851,
      "v": 91
    },
    {
      "midi": 52,
      "hit": false,
      "t": 175345.20572916622,
      "d": 326.3851354166691,
      "v": 93
    },
    {
      "midi": 48,
      "hit": false,
      "t": 175678.5352291662,
      "d": 590.2709895833395,
      "v": 76
    },
    {
      "midi": 60,
      "hit": false,
      "t": 175678.5352291662,
      "d": 1312.4849062499998,
      "v": 124
    },
    {
      "midi": 52,
      "hit": false,
      "t": 175678.5352291662,
      "d": 1319.4292708333232,
      "v": 106
    },
    {
      "midi": 55,
      "hit": false,
      "t": 175720.2014166662,
      "d": 180.55347916667233,
      "v": 50
    },
    {
      "midi": 36,
      "hit": false,
      "t": 175984.08727083288,
      "d": 2236.0853958332737,
      "v": 111
    },
    {
      "midi": 48,
      "hit": false,
      "t": 176643.80190624954,
      "d": 347.2182291666686,
      "v": 51
    },
    {
      "midi": 48,
      "hit": false,
      "t": 176997.96449999954,
      "d": 631.9371770833095,
      "v": 85
    },
    {
      "midi": 60,
      "hit": false,
      "t": 176997.96449999954,
      "d": 1222.20816666662,
      "v": 108
    },
    {
      "midi": 52,
      "hit": false,
      "t": 177004.90886458286,
      "d": 1215.2638020832965,
      "v": 106
    },
    {
      "midi": 55,
      "hit": false,
      "t": 177004.90886458286,
      "d": 1215.2638020832965,
      "v": 101
    },
    {
      "midi": 48,
      "hit": false,
      "t": 177636.84604166617,
      "d": 583.326624999987,
      "v": 81
    },
    {
      "midi": 60,
      "hit": false,
      "t": 178359.05995833283,
      "d": 576.3822604166635,
      "v": 111
    },
    {
      "midi": 53,
      "hit": false,
      "t": 178359.05995833283,
      "d": 597.215354166663,
      "v": 111
    },
    {
      "midi": 55,
      "hit": false,
      "t": 178359.05995833283,
      "d": 1215.2638020833256,
      "v": 116
    },
    {
      "midi": 60,
      "hit": false,
      "t": 179018.7745937495,
      "d": 534.7160729166644,
      "v": 91
    },
    {
      "midi": 52,
      "hit": false,
      "t": 179032.66332291617,
      "d": 520.8273437499884,
      "v": 111
    },
    {
      "midi": 50,
      "hit": false,
      "t": 179706.26668749948,
      "d": 395.82878124999115,
      "v": 111
    },
    {
      "midi": 55,
      "hit": false,
      "t": 179706.26668749948,
      "d": 548.6048020833405,
      "v": 116
    },
    {
      "midi": 60,
      "hit": false,
      "t": 179713.2110520828,
      "d": 506.9386145833414,
      "v": 108
    },
    {
      "midi": 60,
      "hit": false,
      "t": 180359.0369583328,
      "d": 1013.8772291666537,
      "v": 108
    },
    {
      "midi": 48,
      "hit": false,
      "t": 180365.98132291614,
      "d": 243.05276041667094,
      "v": 113
    },
    {
      "midi": 55,
      "hit": false,
      "t": 180365.98132291614,
      "d": 1006.9328645833302,
      "v": 108
    },
    {
      "midi": 48,
      "hit": false,
      "t": 180678.47772916613,
      "d": 666.6590000000142,
      "v": 81
    },
    {
      "midi": 52,
      "hit": false,
      "t": 181004.8628645828,
      "d": 340.27386458334513,
      "v": 106
    },
    {
      "midi": 41,
      "hit": false,
      "t": 181331.24799999947,
      "d": 1222.208166666649,
      "v": 127
    },
    {
      "midi": 53,
      "hit": false,
      "t": 181997.90699999945,
      "d": 749.9913749999832,
      "v": 118
    },
    {
      "midi": 57,
      "hit": false,
      "t": 181997.90699999945,
      "d": 777.7688333333062,
      "v": 127
    },
    {
      "midi": 65,
      "hit": false,
      "t": 181997.90699999945,
      "d": 784.7131979166297,
      "v": 121
    },
    {
      "midi": 60,
      "hit": false,
      "t": 181997.90699999945,
      "d": 791.6575624999532,
      "v": 127
    },
    {
      "midi": 41,
      "hit": false,
      "t": 182685.39909374944,
      "d": 506.9386145832832,
      "v": 108
    },
    {
      "midi": 59,
      "hit": false,
      "t": 183011.78422916608,
      "d": 798.6019270832767,
      "v": 127
    },
    {
      "midi": 62,
      "hit": false,
      "t": 183011.78422916608,
      "d": 798.6019270832767,
      "v": 124
    },
    {
      "midi": 67,
      "hit": false,
      "t": 183011.78422916608,
      "d": 798.6019270832767,
      "v": 118
    },
    {
      "midi": 55,
      "hit": false,
      "t": 183018.7285937494,
      "d": 791.6575624999532,
      "v": 124
    },
    {
      "midi": 41,
      "hit": false,
      "t": 183338.16936458272,
      "d": 291.6633124999935,
      "v": 91
    },
    {
      "midi": 41,
      "hit": false,
      "t": 183636.77704166604,
      "d": 361.10695833331556,
      "v": 78
    },
    {
      "midi": 57,
      "hit": false,
      "t": 183997.88399999935,
      "d": 743.0470104166598,
      "v": 124
    },
    {
      "midi": 64,
      "hit": false,
      "t": 183997.88399999935,
      "d": 743.0470104166598,
      "v": 124
    },
    {
      "midi": 60,
      "hit": false,
      "t": 184004.82836458267,
      "d": 736.1026458333363,
      "v": 127
    },
    {
      "midi": 69,
      "hit": false,
      "t": 184004.82836458267,
      "d": 736.1026458333363,
      "v": 113
    },
    {
      "midi": 55,
      "hit": false,
      "t": 184990.928135416,
      "d": 527.7717083333409,
      "v": 121
    },
    {
      "midi": 59,
      "hit": false,
      "t": 184990.928135416,
      "d": 527.7717083333409,
      "v": 121
    },
    {
      "midi": 62,
      "hit": false,
      "t": 184990.928135416,
      "d": 527.7717083333409,
      "v": 124
    },
    {
      "midi": 67,
      "hit": false,
      "t": 184990.928135416,
      "d": 527.7717083333409,
      "v": 113
    },
    {
      "midi": 60,
      "hit": false,
      "t": 185657.58713541602,
      "d": 118.05419791664463,
      "v": 121
    },
    {
      "midi": 64,
      "hit": false,
      "t": 185657.58713541602,
      "d": 124.9985624999681,
      "v": 118
    },
    {
      "midi": 57,
      "hit": false,
      "t": 185657.58713541602,
      "d": 152.7760208332911,
      "v": 113
    },
    {
      "midi": 69,
      "hit": false,
      "t": 185664.53149999934,
      "d": 118.05419791664463,
      "v": 113
    },
    {
      "midi": 67,
      "hit": false,
      "t": 185997.8609999993,
      "d": 541.6604374999879,
      "v": 113
    },
    {
      "midi": 62,
      "hit": false,
      "t": 185997.8609999993,
      "d": 555.549166666664,
      "v": 124
    },
    {
      "midi": 59,
      "hit": false,
      "t": 185997.8609999993,
      "d": 562.4935312499874,
      "v": 121
    },
    {
      "midi": 55,
      "hit": false,
      "t": 185997.8609999993,
      "d": 597.215354166663,
      "v": 111
    },
    {
      "midi": 41,
      "hit": false,
      "t": 186671.46436458264,
      "d": 1256.9299895833246,
      "v": 127
    },
    {
      "midi": 53,
      "hit": false,
      "t": 187331.1789999993,
      "d": 583.326624999987,
      "v": 118
    },
    {
      "midi": 65,
      "hit": false,
      "t": 187331.1789999993,
      "d": 583.326624999987,
      "v": 118
    },
    {
      "midi": 57,
      "hit": false,
      "t": 187331.1789999993,
      "d": 597.215354166663,
      "v": 127
    },
    {
      "midi": 60,
      "hit": false,
      "t": 187331.1789999993,
      "d": 597.215354166663,
      "v": 124
    },
    {
      "midi": 41,
      "hit": false,
      "t": 188004.78236458264,
      "d": 277.7745833333465,
      "v": 103
    },
    {
      "midi": 62,
      "hit": false,
      "t": 188331.1674999993,
      "d": 743.0470104166598,
      "v": 121
    },
    {
      "midi": 55,
      "hit": false,
      "t": 188338.11186458264,
      "d": 736.1026458333363,
      "v": 121
    },
    {
      "midi": 59,
      "hit": false,
      "t": 188338.11186458264,
      "d": 736.1026458333363,
      "v": 124
    },
    {
      "midi": 67,
      "hit": false,
      "t": 188338.11186458264,
      "d": 736.1026458333363,
      "v": 108
    },
    {
      "midi": 57,
      "hit": false,
      "t": 189324.21163541597,
      "d": 805.5462916666584,
      "v": 121
    },
    {
      "midi": 64,
      "hit": false,
      "t": 189324.21163541597,
      "d": 805.5462916666584,
      "v": 121
    },
    {
      "midi": 60,
      "hit": false,
      "t": 189331.1559999993,
      "d": 798.6019270833349,
      "v": 127
    },
    {
      "midi": 69,
      "hit": false,
      "t": 189331.1559999993,
      "d": 798.6019270833349,
      "v": 118
    },
    {
      "midi": 55,
      "hit": false,
      "t": 190324.20013541594,
      "d": 506.9386145833414,
      "v": 118
    },
    {
      "midi": 59,
      "hit": false,
      "t": 190324.20013541594,
      "d": 506.9386145833414,
      "v": 124
    },
    {
      "midi": 62,
      "hit": false,
      "t": 190324.20013541594,
      "d": 506.9386145833414,
      "v": 124
    },
    {
      "midi": 67,
      "hit": false,
      "t": 190324.20013541594,
      "d": 506.9386145833414,
      "v": 111
    },
    {
      "midi": 60,
      "hit": false,
      "t": 190997.80349999928,
      "d": 104.16546874999767,
      "v": 121
    },
    {
      "midi": 64,
      "hit": false,
      "t": 190997.80349999928,
      "d": 111.10983333332115,
      "v": 118
    },
    {
      "midi": 69,
      "hit": false,
      "t": 190997.80349999928,
      "d": 118.05419791664463,
      "v": 113
    },
    {
      "midi": 57,
      "hit": false,
      "t": 190997.80349999928,
      "d": 124.9985624999681,
      "v": 113
    },
    {
      "midi": 55,
      "hit": false,
      "t": 191331.13299999924,
      "d": 506.9386145832832,
      "v": 116
    },
    {
      "midi": 59,
      "hit": false,
      "t": 191331.13299999924,
      "d": 541.6604374999588,
      "v": 118
    },
    {
      "midi": 62,
      "hit": false,
      "t": 191331.13299999924,
      "d": 562.4935312499583,
      "v": 124
    },
    {
      "midi": 67,
      "hit": false,
      "t": 191338.07736458257,
      "d": 534.7160729166353,
      "v": 113
    },
    {
      "midi": 76,
      "hit": false,
      "t": 191476.96465624924,
      "d": 111.10983333332115,
      "v": 91
    },
    {
      "midi": 74,
      "hit": false,
      "t": 191657.51813541588,
      "d": 90.27673958332161,
      "v": 101
    },
    {
      "midi": 76,
      "hit": false,
      "t": 191810.2941562492,
      "d": 145.83165624999674,
      "v": 89
    },
    {
      "midi": 74,
      "hit": false,
      "t": 191990.84763541588,
      "d": 111.10983333329204,
      "v": 85
    },
    {
      "midi": 48,
      "hit": false,
      "t": 191997.7919999992,
      "d": 979.1554062499199,
      "v": 101
    },
    {
      "midi": 55,
      "hit": false,
      "t": 191997.7919999992,
      "d": 2006.9213645832497,
      "v": 108
    },
    {
      "midi": 60,
      "hit": false,
      "t": 192004.73636458252,
      "d": 2562.4705312499136,
      "v": 106
    },
    {
      "midi": 52,
      "hit": false,
      "t": 192011.68072916585,
      "d": 972.2110416665964,
      "v": 106
    },
    {
      "midi": 72,
      "hit": false,
      "t": 192136.67929166585,
      "d": 340.273864583316,
      "v": 85
    },
    {
      "midi": 74,
      "hit": false,
      "t": 192345.01022916584,
      "d": 2222.1966666665976,
      "v": 99
    },
    {
      "midi": 72,
      "hit": false,
      "t": 192483.89752083248,
      "d": 340.273864583316,
      "v": 81
    },
    {
      "midi": 69,
      "hit": false,
      "t": 192657.5066354158,
      "d": 1326.3736354166467,
      "v": 66
    },
    {
      "midi": 72,
      "hit": false,
      "t": 192831.11574999912,
      "d": 1736.091145833314,
      "v": 91
    },
    {
      "midi": 48,
      "hit": false,
      "t": 192983.89177083244,
      "d": 1583.3151249999937,
      "v": 113
    },
    {
      "midi": 52,
      "hit": false,
      "t": 192990.83613541577,
      "d": 673.6033645833377,
      "v": 31
    },
    {
      "midi": 52,
      "hit": false,
      "t": 193671.38386458243,
      "d": 895.8230312500091,
      "v": 83
    },
    {
      "midi": 67,
      "hit": false,
      "t": 193685.2725937491,
      "d": 881.934302083333,
      "v": 85
    },
    {
      "midi": 69,
      "hit": false,
      "t": 193990.82463541577,
      "d": 576.3822604166635,
      "v": 96
    },
    {
      "midi": 55,
      "hit": false,
      "t": 194011.65772916577,
      "d": 555.549166666664,
      "v": 85
    },
    {
      "midi": 48,
      "hit": false,
      "t": 194671.37236458244,
      "d": 1006.9328645833011,
      "v": 61
    },
    {
      "midi": 55,
      "hit": false,
      "t": 194678.31672916576,
      "d": 993.0441354166542,
      "v": 89
    },
    {
      "midi": 52,
      "hit": false,
      "t": 194685.26109374908,
      "d": 986.0997708333307,
      "v": 87
    },
    {
      "midi": 60,
      "hit": false,
      "t": 194692.2054583324,
      "d": 979.1554062500072,
      "v": 83
    },
    {
      "midi": 55,
      "hit": false,
      "t": 195678.30522916574,
      "d": 999.9884999999485,
      "v": 106
    },
    {
      "midi": 60,
      "hit": false,
      "t": 195678.30522916574,
      "d": 1006.932864583272,
      "v": 111
    },
    {
      "midi": 52,
      "hit": false,
      "t": 195678.30522916574,
      "d": 1562.482031249936,
      "v": 108
    },
    {
      "midi": 48,
      "hit": false,
      "t": 195685.24959374906,
      "d": 673.6033645833086,
      "v": 99
    },
    {
      "midi": 74,
      "hit": false,
      "t": 195706.08268749906,
      "d": 298.60767708331696,
      "v": 127
    },
    {
      "midi": 76,
      "hit": false,
      "t": 195858.85870833238,
      "d": 1381.9285520832927,
      "v": 103
    },
    {
      "midi": 74,
      "hit": false,
      "t": 196011.6347291657,
      "d": 1229.1525312499725,
      "v": 91
    },
    {
      "midi": 72,
      "hit": false,
      "t": 196157.4663854157,
      "d": 513.8829791666649,
      "v": 85
    },
    {
      "midi": 69,
      "hit": false,
      "t": 196338.01986458237,
      "d": 902.7673958333035,
      "v": 99
    },
    {
      "midi": 48,
      "hit": false,
      "t": 196365.7973229157,
      "d": 305.55204166666954,
      "v": 103
    },
    {
      "midi": 48,
      "hit": false,
      "t": 196678.29372916569,
      "d": 270.83021874999395,
      "v": 99
    },
    {
      "midi": 53,
      "hit": false,
      "t": 196678.29372916569,
      "d": 562.4935312499874,
      "v": 116
    },
    {
      "midi": 72,
      "hit": false,
      "t": 196678.29372916569,
      "d": 673.6033645832795,
      "v": 99
    },
    {
      "midi": 55,
      "hit": false,
      "t": 196685.238093749,
      "d": 555.549166666664,
      "v": 118
    },
    {
      "midi": 60,
      "hit": false,
      "t": 196692.18245833233,
      "d": 548.6048020833405,
      "v": 116
    },
    {
      "midi": 48,
      "hit": false,
      "t": 196956.068312499,
      "d": 284.71894791667,
      "v": 93
    },
    {
      "midi": 67,
      "hit": false,
      "t": 196976.901406249,
      "d": 437.4949687499611,
      "v": 81
    },
    {
      "midi": 48,
      "hit": false,
      "t": 197331.063999999,
      "d": 979.1554062499199,
      "v": 101
    },
    {
      "midi": 55,
      "hit": false,
      "t": 197331.063999999,
      "d": 2006.9213645832497,
      "v": 108
    },
    {
      "midi": 60,
      "hit": false,
      "t": 197338.00836458232,
      "d": 2562.4705312499136,
      "v": 106
    },
    {
      "midi": 52,
      "hit": false,
      "t": 197344.95272916564,
      "d": 972.2110416665964,
      "v": 106
    },
    {
      "midi": 72,
      "hit": false,
      "t": 197469.95129166564,
      "d": 340.273864583316,
      "v": 85
    },
    {
      "midi": 74,
      "hit": false,
      "t": 197678.28222916563,
      "d": 2222.1966666665976,
      "v": 99
    },
    {
      "midi": 72,
      "hit": false,
      "t": 197817.16952083228,
      "d": 340.273864583316,
      "v": 81
    },
    {
      "midi": 69,
      "hit": false,
      "t": 197990.7786354156,
      "d": 1326.3736354166467,
      "v": 66
    },
    {
      "midi": 72,
      "hit": false,
      "t": 198164.38774999892,
      "d": 1736.091145833314,
      "v": 91
    },
    {
      "midi": 48,
      "hit": false,
      "t": 198317.16377083224,
      "d": 1583.3151249999937,
      "v": 113
    },
    {
      "midi": 52,
      "hit": false,
      "t": 198324.10813541556,
      "d": 673.6033645833377,
      "v": 31
    },
    {
      "midi": 52,
      "hit": false,
      "t": 199004.65586458222,
      "d": 895.8230312500091,
      "v": 83
    },
    {
      "midi": 67,
      "hit": false,
      "t": 199018.5445937489,
      "d": 881.934302083333,
      "v": 85
    },
    {
      "midi": 69,
      "hit": false,
      "t": 199324.09663541557,
      "d": 576.3822604166635,
      "v": 96
    },
    {
      "midi": 55,
      "hit": false,
      "t": 199344.92972916557,
      "d": 555.549166666664,
      "v": 85
    },
    {
      "midi": 57,
      "hit": false,
      "t": 201324.07363541555,
      "d": 368.05132291666814,
      "v": 118
    },
    {
      "midi": 60,
      "hit": false,
      "t": 201324.07363541555,
      "d": 1118.0426979166223,
      "v": 124
    },
    {
      "midi": 57,
      "hit": false,
      "t": 201699.06932291554,
      "d": 305.55204166666954,
      "v": 106
    },
    {
      "midi": 62,
      "hit": false,
      "t": 201699.06932291554,
      "d": 624.992812499986,
      "v": 124
    },
    {
      "midi": 57,
      "hit": false,
      "t": 202011.56572916554,
      "d": 305.55204166666954,
      "v": 103
    },
    {
      "midi": 64,
      "hit": false,
      "t": 202011.56572916554,
      "d": 430.55060416663764,
      "v": 121
    },
    {
      "midi": 57,
      "hit": false,
      "t": 202324.06213541553,
      "d": 340.273864583316,
      "v": 66
    },
    {
      "midi": 62,
      "hit": false,
      "t": 202331.00649999885,
      "d": 312.496406249993,
      "v": 121
    },
    {
      "midi": 60,
      "hit": false,
      "t": 202664.33599999885,
      "d": 993.0441354166833,
      "v": 124
    },
    {
      "midi": 57,
      "hit": false,
      "t": 203330.99499999886,
      "d": 506.9386145833123,
      "v": 124
    },
    {
      "midi": 60,
      "hit": false,
      "t": 203664.32449999885,
      "d": 173.60911458331975,
      "v": 91
    },
    {
      "midi": 59,
      "hit": false,
      "t": 203997.65399999885,
      "d": 90.27673958332161,
      "v": 124
    },
    {
      "midi": 55,
      "hit": false,
      "t": 203997.65399999885,
      "d": 104.16546874999767,
      "v": 118
    },
    {
      "midi": 62,
      "hit": false,
      "t": 203997.65399999885,
      "d": 104.16546874999767,
      "v": 116
    },
    {
      "midi": 67,
      "hit": false,
      "t": 203997.65399999885,
      "d": 124.9985624999972,
      "v": 111
    },
    {
      "midi": 55,
      "hit": false,
      "t": 204324.0391354155,
      "d": 534.7160729166644,
      "v": 118
    },
    {
      "midi": 62,
      "hit": false,
      "t": 204324.0391354155,
      "d": 534.7160729166644,
      "v": 127
    },
    {
      "midi": 59,
      "hit": false,
      "t": 204330.98349999884,
      "d": 527.7717083333409,
      "v": 121
    },
    {
      "midi": 67,
      "hit": false,
      "t": 204330.98349999884,
      "d": 527.7717083333409,
      "v": 116
    },
    {
      "midi": 60,
      "hit": false,
      "t": 204997.64249999885,
      "d": 666.6590000000142,
      "v": 127
    },
    {
      "midi": 64,
      "hit": false,
      "t": 204997.64249999885,
      "d": 999.9885000000068,
      "v": 127
    },
    {
      "midi": 67,
      "hit": false,
      "t": 204997.64249999885,
      "d": 1319.4292708333232,
      "v": 121
    },
    {
      "midi": 72,
      "hit": false,
      "t": 204997.64249999885,
      "d": 1319.4292708333232,
      "v": 121
    },
    {
      "midi": 60,
      "hit": false,
      "t": 205671.2458645822,
      "d": 645.8259062499856,
      "v": 91
    },
    {
      "midi": 64,
      "hit": false,
      "t": 206004.57536458218,
      "d": 312.496406249993,
      "v": 78
    },
    {
      "midi": 57,
      "hit": false,
      "t": 206344.8492291655,
      "d": 986.0997708333307,
      "v": 124
    },
    {
      "midi": 60,
      "hit": false,
      "t": 206344.8492291655,
      "d": 1472.2052916666435,
      "v": 121
    },
    {
      "midi": 65,
      "hit": false,
      "t": 206344.8492291655,
      "d": 1472.2052916666435,
      "v": 106
    },
    {
      "midi": 53,
      "hit": false,
      "t": 207004.56386458216,
      "d": 333.32949999999255,
      "v": 108
    },
    {
      "midi": 57,
      "hit": false,
      "t": 207337.89336458215,
      "d": 479.1611562499893,
      "v": 124
    },
    {
      "midi": 53,
      "hit": false,
      "t": 207344.83772916548,
      "d": 472.2167916666658,
      "v": 74
    },
    {
      "midi": 55,
      "hit": false,
      "t": 207990.66363541546,
      "d": 666.6589999999851,
      "v": 121
    },
    {
      "midi": 59,
      "hit": false,
      "t": 207990.66363541546,
      "d": 999.9884999999776,
      "v": 124
    },
    {
      "midi": 62,
      "hit": false,
      "t": 207990.66363541546,
      "d": 999.9884999999776,
      "v": 121
    },
    {
      "midi": 67,
      "hit": false,
      "t": 207997.60799999879,
      "d": 999.9884999999776,
      "v": 116
    },
    {
      "midi": 43,
      "hit": false,
      "t": 207997.60799999879,
      "d": 3333.2949999999255,
      "v": 113
    },
    {
      "midi": 55,
      "hit": false,
      "t": 208664.26699999877,
      "d": 993.0441354166542,
      "v": 81
    },
    {
      "midi": 59,
      "hit": false,
      "t": 208997.59649999876,
      "d": 999.9884999999776,
      "v": 121
    },
    {
      "midi": 62,
      "hit": false,
      "t": 208997.59649999876,
      "d": 1333.3179999999702,
      "v": 121
    },
    {
      "midi": 67,
      "hit": false,
      "t": 209004.5408645821,
      "d": 1326.3736354166467,
      "v": 116
    },
    {
      "midi": 55,
      "hit": false,
      "t": 209664.25549999875,
      "d": 1319.4292708332941,
      "v": 111
    },
    {
      "midi": 59,
      "hit": false,
      "t": 210004.52936458206,
      "d": 326.3851354166691,
      "v": 111
    },
    {
      "midi": 59,
      "hit": false,
      "t": 210337.85886458206,
      "d": 145.83165624999674,
      "v": 121
    },
    {
      "midi": 62,
      "hit": false,
      "t": 210337.85886458206,
      "d": 145.83165624999674,
      "v": 116
    },
    {
      "midi": 67,
      "hit": false,
      "t": 210337.85886458206,
      "d": 145.83165624999674,
      "v": 99
    },
    {
      "midi": 59,
      "hit": false,
      "t": 210490.63488541538,
      "d": 159.7203854166728,
      "v": 111
    },
    {
      "midi": 62,
      "hit": false,
      "t": 210490.63488541538,
      "d": 159.7203854166728,
      "v": 116
    },
    {
      "midi": 67,
      "hit": false,
      "t": 210490.63488541538,
      "d": 159.7203854166728,
      "v": 99
    },
    {
      "midi": 62,
      "hit": false,
      "t": 210657.29963541537,
      "d": 999.9885000000068,
      "v": 124
    },
    {
      "midi": 59,
      "hit": false,
      "t": 210657.29963541537,
      "d": 1006.9328645833302,
      "v": 118
    },
    {
      "midi": 67,
      "hit": false,
      "t": 210657.29963541537,
      "d": 1006.9328645833302,
      "v": 118
    },
    {
      "midi": 64,
      "hit": false,
      "t": 210664.2439999987,
      "d": 2534.6930729166197,
      "v": 66
    },
    {
      "midi": 55,
      "hit": false,
      "t": 210990.62913541537,
      "d": 666.6590000000142,
      "v": 106
    },
    {
      "midi": 43,
      "hit": false,
      "t": 211337.84736458203,
      "d": 1645.8144062499632,
      "v": 87
    },
    {
      "midi": 55,
      "hit": false,
      "t": 211664.2324999987,
      "d": 659.7146354166616,
      "v": 113
    },
    {
      "midi": 62,
      "hit": false,
      "t": 211664.2324999987,
      "d": 999.9884999999776,
      "v": 118
    },
    {
      "midi": 59,
      "hit": false,
      "t": 211671.17686458203,
      "d": 993.0441354166542,
      "v": 118
    },
    {
      "midi": 67,
      "hit": false,
      "t": 211671.17686458203,
      "d": 999.9884999999776,
      "v": 116
    },
    {
      "midi": 55,
      "hit": false,
      "t": 212330.8914999987,
      "d": 868.0455729166279,
      "v": 118
    },
    {
      "midi": 59,
      "hit": false,
      "t": 212671.165364582,
      "d": 527.7717083333118,
      "v": 121
    },
    {
      "midi": 62,
      "hit": false,
      "t": 212671.165364582,
      "d": 527.7717083333118,
      "v": 118
    },
    {
      "midi": 67,
      "hit": false,
      "t": 212678.10972916533,
      "d": 520.8273437499884,
      "v": 106
    },
    {
      "midi": 43,
      "hit": false,
      "t": 212990.60613541532,
      "d": 312.496406249993,
      "v": 96
    },
    {
      "midi": 60,
      "hit": false,
      "t": 213330.87999999864,
      "d": 993.0441354166833,
      "v": 124
    },
    {
      "midi": 57,
      "hit": false,
      "t": 213997.53899999865,
      "d": 506.9386145833123,
      "v": 124
    },
    {
      "midi": 60,
      "hit": false,
      "t": 214330.86849999864,
      "d": 173.60911458331975,
      "v": 91
    },
    {
      "midi": 59,
      "hit": false,
      "t": 214664.19799999864,
      "d": 90.27673958332161,
      "v": 124
    },
    {
      "midi": 55,
      "hit": false,
      "t": 214664.19799999864,
      "d": 104.16546874999767,
      "v": 118
    },
    {
      "midi": 62,
      "hit": false,
      "t": 214664.19799999864,
      "d": 104.16546874999767,
      "v": 116
    },
    {
      "midi": 67,
      "hit": false,
      "t": 214664.19799999864,
      "d": 124.9985624999972,
      "v": 111
    },
    {
      "midi": 55,
      "hit": false,
      "t": 214990.5831354153,
      "d": 534.7160729166644,
      "v": 118
    },
    {
      "midi": 62,
      "hit": false,
      "t": 214990.5831354153,
      "d": 534.7160729166644,
      "v": 127
    },
    {
      "midi": 59,
      "hit": false,
      "t": 214997.52749999863,
      "d": 527.7717083333409,
      "v": 121
    },
    {
      "midi": 67,
      "hit": false,
      "t": 214997.52749999863,
      "d": 527.7717083333409,
      "v": 116
    },
    {
      "midi": 60,
      "hit": false,
      "t": 215664.18649999864,
      "d": 666.6590000000142,
      "v": 127
    },
    {
      "midi": 64,
      "hit": false,
      "t": 215664.18649999864,
      "d": 999.9885000000068,
      "v": 127
    },
    {
      "midi": 67,
      "hit": false,
      "t": 215664.18649999864,
      "d": 1319.4292708333232,
      "v": 121
    },
    {
      "midi": 72,
      "hit": false,
      "t": 215664.18649999864,
      "d": 1319.4292708333232,
      "v": 121
    },
    {
      "midi": 60,
      "hit": false,
      "t": 216337.78986458198,
      "d": 645.8259062499856,
      "v": 91
    },
    {
      "midi": 64,
      "hit": false,
      "t": 216671.11936458197,
      "d": 312.496406249993,
      "v": 78
    },
    {
      "midi": 57,
      "hit": false,
      "t": 217011.3932291653,
      "d": 986.0997708333307,
      "v": 124
    },
    {
      "midi": 60,
      "hit": false,
      "t": 217011.3932291653,
      "d": 1472.2052916666435,
      "v": 121
    },
    {
      "midi": 65,
      "hit": false,
      "t": 217011.3932291653,
      "d": 1472.2052916666435,
      "v": 106
    },
    {
      "midi": 53,
      "hit": false,
      "t": 217671.10786458195,
      "d": 333.32949999999255,
      "v": 108
    },
    {
      "midi": 57,
      "hit": false,
      "t": 218004.43736458194,
      "d": 479.1611562499893,
      "v": 124
    },
    {
      "midi": 53,
      "hit": false,
      "t": 218011.38172916527,
      "d": 472.2167916666658,
      "v": 74
    },
    {
      "midi": 55,
      "hit": false,
      "t": 218657.20763541525,
      "d": 666.6589999999851,
      "v": 121
    },
    {
      "midi": 59,
      "hit": false,
      "t": 218657.20763541525,
      "d": 999.9884999999776,
      "v": 124
    },
    {
      "midi": 62,
      "hit": false,
      "t": 218657.20763541525,
      "d": 999.9884999999776,
      "v": 121
    },
    {
      "midi": 67,
      "hit": false,
      "t": 218664.15199999858,
      "d": 999.9884999999776,
      "v": 116
    },
    {
      "midi": 43,
      "hit": false,
      "t": 218664.15199999858,
      "d": 3333.2949999999255,
      "v": 113
    },
    {
      "midi": 55,
      "hit": false,
      "t": 219330.81099999856,
      "d": 993.0441354166542,
      "v": 81
    },
    {
      "midi": 59,
      "hit": false,
      "t": 219664.14049999855,
      "d": 999.9884999999776,
      "v": 121
    },
    {
      "midi": 62,
      "hit": false,
      "t": 219664.14049999855,
      "d": 1333.3179999999702,
      "v": 121
    },
    {
      "midi": 67,
      "hit": false,
      "t": 219671.08486458188,
      "d": 1326.3736354166467,
      "v": 116
    },
    {
      "midi": 55,
      "hit": false,
      "t": 220330.79949999854,
      "d": 1319.4292708332941,
      "v": 111
    },
    {
      "midi": 59,
      "hit": false,
      "t": 220671.07336458185,
      "d": 326.3851354166691,
      "v": 111
    },
    {
      "midi": 59,
      "hit": false,
      "t": 221004.40286458185,
      "d": 145.83165624999674,
      "v": 121
    },
    {
      "midi": 62,
      "hit": false,
      "t": 221004.40286458185,
      "d": 145.83165624999674,
      "v": 116
    },
    {
      "midi": 67,
      "hit": false,
      "t": 221004.40286458185,
      "d": 145.83165624999674,
      "v": 99
    },
    {
      "midi": 59,
      "hit": false,
      "t": 221157.17888541517,
      "d": 159.7203854166728,
      "v": 111
    },
    {
      "midi": 62,
      "hit": false,
      "t": 221157.17888541517,
      "d": 159.7203854166728,
      "v": 116
    },
    {
      "midi": 67,
      "hit": false,
      "t": 221157.17888541517,
      "d": 159.7203854166728,
      "v": 99
    },
    {
      "midi": 62,
      "hit": false,
      "t": 221323.84363541516,
      "d": 999.9885000000068,
      "v": 124
    },
    {
      "midi": 59,
      "hit": false,
      "t": 221323.84363541516,
      "d": 1006.9328645833302,
      "v": 118
    },
    {
      "midi": 67,
      "hit": false,
      "t": 221323.84363541516,
      "d": 1006.9328645833302,
      "v": 118
    },
    {
      "midi": 64,
      "hit": false,
      "t": 221330.7879999985,
      "d": 2534.6930729166197,
      "v": 66
    },
    {
      "midi": 55,
      "hit": false,
      "t": 221657.17313541516,
      "d": 666.6590000000142,
      "v": 106
    },
    {
      "midi": 43,
      "hit": false,
      "t": 222004.39136458182,
      "d": 1645.8144062499632,
      "v": 87
    },
    {
      "midi": 55,
      "hit": false,
      "t": 222330.7764999985,
      "d": 659.7146354166616,
      "v": 113
    },
    {
      "midi": 62,
      "hit": false,
      "t": 222330.7764999985,
      "d": 999.9884999999776,
      "v": 118
    },
    {
      "midi": 59,
      "hit": false,
      "t": 222337.72086458182,
      "d": 993.0441354166542,
      "v": 118
    },
    {
      "midi": 67,
      "hit": false,
      "t": 222337.72086458182,
      "d": 999.9884999999776,
      "v": 116
    },
    {
      "midi": 55,
      "hit": false,
      "t": 222997.43549999848,
      "d": 868.0455729166279,
      "v": 118
    },
    {
      "midi": 59,
      "hit": false,
      "t": 223337.7093645818,
      "d": 527.7717083333118,
      "v": 121
    },
    {
      "midi": 62,
      "hit": false,
      "t": 223337.7093645818,
      "d": 527.7717083333118,
      "v": 118
    },
    {
      "midi": 67,
      "hit": false,
      "t": 223344.65372916512,
      "d": 520.8273437499884,
      "v": 106
    },
    {
      "midi": 43,
      "hit": false,
      "t": 223657.1501354151,
      "d": 312.496406249993,
      "v": 96
    },
    {
      "midi": 60,
      "hit": false,
      "t": 223997.42399999843,
      "d": 993.0441354166833,
      "v": 124
    },
    {
      "midi": 57,
      "hit": false,
      "t": 224664.08299999844,
      "d": 506.9386145833123,
      "v": 124
    },
    {
      "midi": 60,
      "hit": false,
      "t": 224997.41249999843,
      "d": 173.60911458331975,
      "v": 91
    },
    {
      "midi": 59,
      "hit": false,
      "t": 225330.74199999843,
      "d": 90.27673958332161,
      "v": 124
    },
    {
      "midi": 55,
      "hit": false,
      "t": 225330.74199999843,
      "d": 104.16546874999767,
      "v": 118
    },
    {
      "midi": 62,
      "hit": false,
      "t": 225330.74199999843,
      "d": 104.16546874999767,
      "v": 116
    },
    {
      "midi": 67,
      "hit": false,
      "t": 225330.74199999843,
      "d": 124.9985624999972,
      "v": 111
    },
    {
      "midi": 55,
      "hit": false,
      "t": 225657.1271354151,
      "d": 534.7160729166644,
      "v": 118
    },
    {
      "midi": 62,
      "hit": false,
      "t": 225657.1271354151,
      "d": 534.7160729166644,
      "v": 127
    },
    {
      "midi": 59,
      "hit": false,
      "t": 225664.07149999842,
      "d": 527.7717083333409,
      "v": 121
    },
    {
      "midi": 67,
      "hit": false,
      "t": 225664.07149999842,
      "d": 527.7717083333409,
      "v": 116
    },
    {
      "midi": 60,
      "hit": false,
      "t": 226330.73049999843,
      "d": 666.6590000000142,
      "v": 127
    },
    {
      "midi": 64,
      "hit": false,
      "t": 226330.73049999843,
      "d": 999.9885000000068,
      "v": 127
    },
    {
      "midi": 67,
      "hit": false,
      "t": 226330.73049999843,
      "d": 1319.4292708333232,
      "v": 121
    },
    {
      "midi": 72,
      "hit": false,
      "t": 226330.73049999843,
      "d": 1319.4292708333232,
      "v": 121
    },
    {
      "midi": 60,
      "hit": false,
      "t": 227004.33386458177,
      "d": 645.8259062499856,
      "v": 91
    },
    {
      "midi": 64,
      "hit": false,
      "t": 227337.66336458176,
      "d": 312.496406249993,
      "v": 78
    },
    {
      "midi": 57,
      "hit": false,
      "t": 227677.93722916508,
      "d": 986.0997708333307,
      "v": 124
    },
    {
      "midi": 60,
      "hit": false,
      "t": 227677.93722916508,
      "d": 1472.2052916666435,
      "v": 121
    },
    {
      "midi": 65,
      "hit": false,
      "t": 227677.93722916508,
      "d": 1472.2052916666435,
      "v": 106
    },
    {
      "midi": 53,
      "hit": false,
      "t": 228337.65186458174,
      "d": 333.32949999999255,
      "v": 108
    },
    {
      "midi": 57,
      "hit": false,
      "t": 228670.98136458173,
      "d": 479.1611562499893,
      "v": 124
    },
    {
      "midi": 53,
      "hit": false,
      "t": 228677.92572916506,
      "d": 472.2167916666658,
      "v": 74
    },
    {
      "midi": 55,
      "hit": false,
      "t": 229323.75163541504,
      "d": 666.6589999999851,
      "v": 121
    },
    {
      "midi": 59,
      "hit": false,
      "t": 229323.75163541504,
      "d": 999.9884999999776,
      "v": 124
    },
    {
      "midi": 62,
      "hit": false,
      "t": 229323.75163541504,
      "d": 999.9884999999776,
      "v": 121
    },
    {
      "midi": 67,
      "hit": false,
      "t": 229330.69599999837,
      "d": 999.9884999999776,
      "v": 116
    },
    {
      "midi": 43,
      "hit": false,
      "t": 229330.69599999837,
      "d": 3333.2949999999255,
      "v": 113
    },
    {
      "midi": 55,
      "hit": false,
      "t": 229997.35499999835,
      "d": 993.0441354166542,
      "v": 81
    },
    {
      "midi": 59,
      "hit": false,
      "t": 230330.68449999834,
      "d": 999.9884999999776,
      "v": 121
    },
    {
      "midi": 62,
      "hit": false,
      "t": 230330.68449999834,
      "d": 1333.3179999999702,
      "v": 121
    },
    {
      "midi": 67,
      "hit": false,
      "t": 230337.62886458167,
      "d": 1326.3736354166467,
      "v": 116
    },
    {
      "midi": 55,
      "hit": false,
      "t": 230997.34349999833,
      "d": 1319.4292708332941,
      "v": 111
    },
    {
      "midi": 59,
      "hit": false,
      "t": 231337.61736458165,
      "d": 326.3851354166691,
      "v": 111
    },
    {
      "midi": 59,
      "hit": false,
      "t": 231670.94686458164,
      "d": 145.83165624999674,
      "v": 121
    },
    {
      "midi": 62,
      "hit": false,
      "t": 231670.94686458164,
      "d": 145.83165624999674,
      "v": 116
    },
    {
      "midi": 67,
      "hit": false,
      "t": 231670.94686458164,
      "d": 145.83165624999674,
      "v": 99
    },
    {
      "midi": 59,
      "hit": false,
      "t": 231823.72288541496,
      "d": 159.7203854166728,
      "v": 111
    },
    {
      "midi": 62,
      "hit": false,
      "t": 231823.72288541496,
      "d": 159.7203854166728,
      "v": 116
    },
    {
      "midi": 67,
      "hit": false,
      "t": 231823.72288541496,
      "d": 159.7203854166728,
      "v": 99
    },
    {
      "midi": 62,
      "hit": false,
      "t": 231990.38763541495,
      "d": 999.9885000000068,
      "v": 124
    },
    {
      "midi": 59,
      "hit": false,
      "t": 231990.38763541495,
      "d": 1006.9328645833302,
      "v": 118
    },
    {
      "midi": 67,
      "hit": false,
      "t": 231990.38763541495,
      "d": 1006.9328645833302,
      "v": 118
    },
    {
      "midi": 64,
      "hit": false,
      "t": 231997.33199999828,
      "d": 2534.6930729166197,
      "v": 66
    },
    {
      "midi": 55,
      "hit": false,
      "t": 232323.71713541495,
      "d": 666.6590000000142,
      "v": 106
    },
    {
      "midi": 43,
      "hit": false,
      "t": 232670.93536458162,
      "d": 1645.8144062499632,
      "v": 87
    },
    {
      "midi": 55,
      "hit": false,
      "t": 232997.32049999828,
      "d": 659.7146354166616,
      "v": 113
    },
    {
      "midi": 62,
      "hit": false,
      "t": 232997.32049999828,
      "d": 999.9884999999776,
      "v": 118
    },
    {
      "midi": 59,
      "hit": false,
      "t": 233004.2648645816,
      "d": 993.0441354166542,
      "v": 118
    },
    {
      "midi": 67,
      "hit": false,
      "t": 233004.2648645816,
      "d": 999.9884999999776,
      "v": 116
    },
    {
      "midi": 55,
      "hit": false,
      "t": 233663.97949999827,
      "d": 868.0455729166279,
      "v": 118
    },
    {
      "midi": 59,
      "hit": false,
      "t": 234004.2533645816,
      "d": 527.7717083333118,
      "v": 121
    },
    {
      "midi": 62,
      "hit": false,
      "t": 234004.2533645816,
      "d": 527.7717083333118,
      "v": 118
    },
    {
      "midi": 67,
      "hit": false,
      "t": 234011.1977291649,
      "d": 520.8273437499884,
      "v": 106
    },
    {
      "midi": 43,
      "hit": false,
      "t": 234323.6941354149,
      "d": 312.496406249993,
      "v": 96
    },
    {
      "midi": 60,
      "hit": false,
      "t": 234663.96799999822,
      "d": 993.0441354166833,
      "v": 124
    },
    {
      "midi": 57,
      "hit": false,
      "t": 235330.62699999823,
      "d": 506.9386145833123,
      "v": 124
    },
    {
      "midi": 60,
      "hit": false,
      "t": 235663.95649999822,
      "d": 173.60911458331975,
      "v": 91
    },
    {
      "midi": 59,
      "hit": false,
      "t": 235997.28599999822,
      "d": 90.27673958332161,
      "v": 124
    },
    {
      "midi": 55,
      "hit": false,
      "t": 235997.28599999822,
      "d": 104.16546874999767,
      "v": 118
    },
    {
      "midi": 62,
      "hit": false,
      "t": 235997.28599999822,
      "d": 104.16546874999767,
      "v": 116
    },
    {
      "midi": 67,
      "hit": false,
      "t": 235997.28599999822,
      "d": 124.9985624999972,
      "v": 111
    },
    {
      "midi": 55,
      "hit": false,
      "t": 236323.6711354149,
      "d": 534.7160729166644,
      "v": 118
    },
    {
      "midi": 62,
      "hit": false,
      "t": 236323.6711354149,
      "d": 534.7160729166644,
      "v": 127
    },
    {
      "midi": 59,
      "hit": false,
      "t": 236330.6154999982,
      "d": 527.7717083333409,
      "v": 121
    },
    {
      "midi": 67,
      "hit": false,
      "t": 236330.6154999982,
      "d": 527.7717083333409,
      "v": 116
    },
    {
      "midi": 60,
      "hit": false,
      "t": 236997.27449999822,
      "d": 666.6590000000142,
      "v": 127
    },
    {
      "midi": 64,
      "hit": false,
      "t": 236997.27449999822,
      "d": 999.9885000000068,
      "v": 127
    },
    {
      "midi": 67,
      "hit": false,
      "t": 236997.27449999822,
      "d": 1319.4292708333232,
      "v": 121
    },
    {
      "midi": 72,
      "hit": false,
      "t": 236997.27449999822,
      "d": 1319.4292708333232,
      "v": 121
    },
    {
      "midi": 60,
      "hit": false,
      "t": 237670.87786458156,
      "d": 645.8259062499856,
      "v": 91
    },
    {
      "midi": 64,
      "hit": false,
      "t": 238004.20736458155,
      "d": 312.496406249993,
      "v": 78
    },
    {
      "midi": 57,
      "hit": false,
      "t": 238344.48122916487,
      "d": 986.0997708333307,
      "v": 124
    },
    {
      "midi": 60,
      "hit": false,
      "t": 238344.48122916487,
      "d": 1472.2052916666435,
      "v": 121
    },
    {
      "midi": 65,
      "hit": false,
      "t": 238344.48122916487,
      "d": 1472.2052916666435,
      "v": 106
    },
    {
      "midi": 53,
      "hit": false,
      "t": 239004.19586458153,
      "d": 333.32949999999255,
      "v": 108
    },
    {
      "midi": 57,
      "hit": false,
      "t": 239337.52536458152,
      "d": 479.1611562499893,
      "v": 124
    },
    {
      "midi": 53,
      "hit": false,
      "t": 239344.46972916485,
      "d": 472.2167916666658,
      "v": 74
    },
    {
      "midi": 55,
      "hit": false,
      "t": 239990.29563541483,
      "d": 666.6589999999851,
      "v": 121
    },
    {
      "midi": 59,
      "hit": false,
      "t": 239990.29563541483,
      "d": 999.9884999999776,
      "v": 124
    },
    {
      "midi": 62,
      "hit": false,
      "t": 239990.29563541483,
      "d": 999.9884999999776,
      "v": 121
    },
    {
      "midi": 67,
      "hit": false,
      "t": 239997.23999999816,
      "d": 999.9884999999776,
      "v": 116
    },
    {
      "midi": 43,
      "hit": false,
      "t": 239997.23999999816,
      "d": 3333.2949999999255,
      "v": 113
    },
    {
      "midi": 55,
      "hit": false,
      "t": 240663.89899999814,
      "d": 993.0441354166542,
      "v": 81
    },
    {
      "midi": 59,
      "hit": false,
      "t": 240997.22849999813,
      "d": 999.9884999999776,
      "v": 121
    },
    {
      "midi": 62,
      "hit": false,
      "t": 240997.22849999813,
      "d": 1333.3179999999702,
      "v": 121
    },
    {
      "midi": 67,
      "hit": false,
      "t": 241004.17286458146,
      "d": 1326.3736354166467,
      "v": 116
    },
    {
      "midi": 55,
      "hit": false,
      "t": 241663.88749999812,
      "d": 1319.4292708332941,
      "v": 111
    },
    {
      "midi": 59,
      "hit": false,
      "t": 242004.16136458144,
      "d": 326.3851354166691,
      "v": 111
    },
    {
      "midi": 59,
      "hit": false,
      "t": 242337.49086458143,
      "d": 145.83165624999674,
      "v": 121
    },
    {
      "midi": 62,
      "hit": false,
      "t": 242337.49086458143,
      "d": 145.83165624999674,
      "v": 116
    },
    {
      "midi": 67,
      "hit": false,
      "t": 242337.49086458143,
      "d": 145.83165624999674,
      "v": 99
    },
    {
      "midi": 59,
      "hit": false,
      "t": 242490.26688541475,
      "d": 159.7203854166728,
      "v": 111
    },
    {
      "midi": 62,
      "hit": false,
      "t": 242490.26688541475,
      "d": 159.7203854166728,
      "v": 116
    },
    {
      "midi": 67,
      "hit": false,
      "t": 242490.26688541475,
      "d": 159.7203854166728,
      "v": 99
    },
    {
      "midi": 62,
      "hit": false,
      "t": 242656.93163541474,
      "d": 999.9885000000068,
      "v": 124
    },
    {
      "midi": 59,
      "hit": false,
      "t": 242656.93163541474,
      "d": 1006.9328645833302,
      "v": 118
    },
    {
      "midi": 67,
      "hit": false,
      "t": 242656.93163541474,
      "d": 1006.9328645833302,
      "v": 118
    },
    {
      "midi": 64,
      "hit": false,
      "t": 242663.87599999807,
      "d": 2534.6930729166197,
      "v": 66
    },
    {
      "midi": 55,
      "hit": false,
      "t": 242990.26113541474,
      "d": 666.6590000000142,
      "v": 106
    },
    {
      "midi": 43,
      "hit": false,
      "t": 243337.4793645814,
      "d": 1645.8144062499632,
      "v": 87
    },
    {
      "midi": 55,
      "hit": false,
      "t": 243663.86449999808,
      "d": 659.7146354166616,
      "v": 113
    },
    {
      "midi": 62,
      "hit": false,
      "t": 243663.86449999808,
      "d": 999.9884999999776,
      "v": 118
    },
    {
      "midi": 59,
      "hit": false,
      "t": 243670.8088645814,
      "d": 993.0441354166542,
      "v": 118
    },
    {
      "midi": 67,
      "hit": false,
      "t": 243670.8088645814,
      "d": 999.9884999999776,
      "v": 116
    },
    {
      "midi": 55,
      "hit": false,
      "t": 244330.52349999806,
      "d": 868.0455729166279,
      "v": 118
    },
    {
      "midi": 59,
      "hit": false,
      "t": 244670.79736458138,
      "d": 527.7717083333118,
      "v": 121
    },
    {
      "midi": 62,
      "hit": false,
      "t": 244670.79736458138,
      "d": 527.7717083333118,
      "v": 118
    },
    {
      "midi": 67,
      "hit": false,
      "t": 244677.7417291647,
      "d": 520.8273437499884,
      "v": 106
    },
    {
      "midi": 43,
      "hit": false,
      "t": 244990.2381354147,
      "d": 312.496406249993,
      "v": 96
    },
    {
      "midi": 60,
      "hit": false,
      "t": 245330.511999998,
      "d": 993.0441354166833,
      "v": 124
    },
    {
      "midi": 57,
      "hit": false,
      "t": 245997.17099999802,
      "d": 506.9386145833123,
      "v": 124
    },
    {
      "midi": 60,
      "hit": false,
      "t": 246330.50049999802,
      "d": 173.60911458331975,
      "v": 91
    },
    {
      "midi": 59,
      "hit": false,
      "t": 246663.829999998,
      "d": 90.27673958332161,
      "v": 124
    },
    {
      "midi": 55,
      "hit": false,
      "t": 246663.829999998,
      "d": 104.16546874999767,
      "v": 118
    },
    {
      "midi": 62,
      "hit": false,
      "t": 246663.829999998,
      "d": 104.16546874999767,
      "v": 116
    },
    {
      "midi": 67,
      "hit": false,
      "t": 246663.829999998,
      "d": 124.9985624999972,
      "v": 111
    },
    {
      "midi": 55,
      "hit": false,
      "t": 246990.21513541468,
      "d": 534.7160729166644,
      "v": 118
    },
    {
      "midi": 62,
      "hit": false,
      "t": 246990.21513541468,
      "d": 534.7160729166644,
      "v": 127
    },
    {
      "midi": 59,
      "hit": false,
      "t": 246997.159499998,
      "d": 527.7717083333409,
      "v": 121
    },
    {
      "midi": 67,
      "hit": false,
      "t": 246997.159499998,
      "d": 527.7717083333409,
      "v": 116
    },
    {
      "midi": 60,
      "hit": false,
      "t": 247663.81849999801,
      "d": 666.6590000000142,
      "v": 127
    },
    {
      "midi": 64,
      "hit": false,
      "t": 247663.81849999801,
      "d": 999.9885000000068,
      "v": 127
    },
    {
      "midi": 67,
      "hit": false,
      "t": 247663.81849999801,
      "d": 1319.4292708333232,
      "v": 121
    },
    {
      "midi": 72,
      "hit": false,
      "t": 247663.81849999801,
      "d": 1319.4292708333232,
      "v": 121
    },
    {
      "midi": 60,
      "hit": false,
      "t": 248337.42186458135,
      "d": 645.8259062499856,
      "v": 91
    },
    {
      "midi": 64,
      "hit": false,
      "t": 248670.75136458135,
      "d": 312.496406249993,
      "v": 78
    },
    {
      "midi": 57,
      "hit": false,
      "t": 249011.02522916466,
      "d": 986.0997708333307,
      "v": 124
    },
    {
      "midi": 60,
      "hit": false,
      "t": 249011.02522916466,
      "d": 1472.2052916666435,
      "v": 121
    },
    {
      "midi": 65,
      "hit": false,
      "t": 249011.02522916466,
      "d": 1472.2052916666435,
      "v": 106
    },
    {
      "midi": 53,
      "hit": false,
      "t": 249670.73986458132,
      "d": 333.32949999999255,
      "v": 108
    },
    {
      "midi": 57,
      "hit": false,
      "t": 250004.06936458132,
      "d": 479.1611562499893,
      "v": 124
    },
    {
      "midi": 53,
      "hit": false,
      "t": 250011.01372916464,
      "d": 472.2167916666658,
      "v": 74
    },
    {
      "midi": 55,
      "hit": false,
      "t": 250656.83963541462,
      "d": 666.6589999999851,
      "v": 121
    },
    {
      "midi": 59,
      "hit": false,
      "t": 250656.83963541462,
      "d": 999.9884999999776,
      "v": 124
    },
    {
      "midi": 62,
      "hit": false,
      "t": 250656.83963541462,
      "d": 999.9884999999776,
      "v": 121
    },
    {
      "midi": 67,
      "hit": false,
      "t": 250663.78399999795,
      "d": 999.9884999999776,
      "v": 116
    },
    {
      "midi": 43,
      "hit": false,
      "t": 250663.78399999795,
      "d": 3333.2949999999255,
      "v": 113
    },
    {
      "midi": 55,
      "hit": false,
      "t": 251330.44299999793,
      "d": 993.0441354166542,
      "v": 81
    },
    {
      "midi": 59,
      "hit": false,
      "t": 251663.77249999793,
      "d": 999.9884999999776,
      "v": 121
    },
    {
      "midi": 62,
      "hit": false,
      "t": 251663.77249999793,
      "d": 1333.3179999999702,
      "v": 121
    },
    {
      "midi": 67,
      "hit": false,
      "t": 251670.71686458125,
      "d": 1326.3736354166467,
      "v": 116
    },
    {
      "midi": 55,
      "hit": false,
      "t": 252330.4314999979,
      "d": 1319.4292708332941,
      "v": 111
    },
    {
      "midi": 59,
      "hit": false,
      "t": 252670.70536458123,
      "d": 326.3851354166691,
      "v": 111
    },
    {
      "midi": 59,
      "hit": false,
      "t": 253004.03486458122,
      "d": 145.83165624999674,
      "v": 121
    },
    {
      "midi": 62,
      "hit": false,
      "t": 253004.03486458122,
      "d": 145.83165624999674,
      "v": 116
    },
    {
      "midi": 67,
      "hit": false,
      "t": 253004.03486458122,
      "d": 145.83165624999674,
      "v": 99
    },
    {
      "midi": 59,
      "hit": false,
      "t": 253156.81088541454,
      "d": 159.7203854166728,
      "v": 111
    },
    {
      "midi": 62,
      "hit": false,
      "t": 253156.81088541454,
      "d": 159.7203854166728,
      "v": 116
    },
    {
      "midi": 67,
      "hit": false,
      "t": 253156.81088541454,
      "d": 159.7203854166728,
      "v": 99
    },
    {
      "midi": 62,
      "hit": false,
      "t": 253323.47563541454,
      "d": 999.9885000000068,
      "v": 124
    },
    {
      "midi": 59,
      "hit": false,
      "t": 253323.47563541454,
      "d": 1006.9328645833302,
      "v": 118
    },
    {
      "midi": 67,
      "hit": false,
      "t": 253323.47563541454,
      "d": 1006.9328645833302,
      "v": 118
    },
    {
      "midi": 64,
      "hit": false,
      "t": 253330.41999999786,
      "d": 2534.6930729166197,
      "v": 66
    },
    {
      "midi": 55,
      "hit": false,
      "t": 253656.80513541453,
      "d": 666.6590000000142,
      "v": 106
    },
    {
      "midi": 43,
      "hit": false,
      "t": 254004.0233645812,
      "d": 1645.8144062499632,
      "v": 87
    },
    {
      "midi": 55,
      "hit": false,
      "t": 254330.40849999787,
      "d": 659.7146354166616,
      "v": 113
    },
    {
      "midi": 62,
      "hit": false,
      "t": 254330.40849999787,
      "d": 999.9884999999776,
      "v": 118
    },
    {
      "midi": 59,
      "hit": false,
      "t": 254337.3528645812,
      "d": 993.0441354166542,
      "v": 118
    },
    {
      "midi": 67,
      "hit": false,
      "t": 254337.3528645812,
      "d": 999.9884999999776,
      "v": 116
    },
    {
      "midi": 55,
      "hit": false,
      "t": 254997.06749999785,
      "d": 868.0455729166279,
      "v": 118
    },
    {
      "midi": 59,
      "hit": false,
      "t": 255337.34136458117,
      "d": 527.7717083333118,
      "v": 121
    },
    {
      "midi": 62,
      "hit": false,
      "t": 255337.34136458117,
      "d": 527.7717083333118,
      "v": 118
    },
    {
      "midi": 67,
      "hit": false,
      "t": 255344.2857291645,
      "d": 520.8273437499884,
      "v": 106
    },
    {
      "midi": 43,
      "hit": false,
      "t": 255656.78213541448,
      "d": 312.496406249993,
      "v": 96
    },
    {
      "midi": 60,
      "hit": false,
      "t": 255997.0559999978,
      "d": 993.0441354166833,
      "v": 124
    },
    {
      "midi": 57,
      "hit": false,
      "t": 256663.7149999978,
      "d": 506.9386145833123,
      "v": 124
    },
    {
      "midi": 60,
      "hit": false,
      "t": 256997.0444999978,
      "d": 173.60911458331975,
      "v": 91
    },
    {
      "midi": 59,
      "hit": false,
      "t": 257330.3739999978,
      "d": 90.27673958332161,
      "v": 124
    },
    {
      "midi": 55,
      "hit": false,
      "t": 257330.3739999978,
      "d": 104.16546874999767,
      "v": 118
    },
    {
      "midi": 62,
      "hit": false,
      "t": 257330.3739999978,
      "d": 104.16546874999767,
      "v": 116
    },
    {
      "midi": 67,
      "hit": false,
      "t": 257330.3739999978,
      "d": 124.9985624999972,
      "v": 111
    },
    {
      "midi": 55,
      "hit": false,
      "t": 257656.75913541447,
      "d": 534.7160729166644,
      "v": 118
    },
    {
      "midi": 62,
      "hit": false,
      "t": 257656.75913541447,
      "d": 534.7160729166644,
      "v": 127
    },
    {
      "midi": 59,
      "hit": false,
      "t": 257663.7034999978,
      "d": 527.7717083333409,
      "v": 121
    },
    {
      "midi": 67,
      "hit": false,
      "t": 257663.7034999978,
      "d": 527.7717083333409,
      "v": 116
    },
    {
      "midi": 60,
      "hit": false,
      "t": 258330.3624999978,
      "d": 666.6590000000142,
      "v": 127
    },
    {
      "midi": 64,
      "hit": false,
      "t": 258330.3624999978,
      "d": 999.9885000000068,
      "v": 127
    },
    {
      "midi": 67,
      "hit": false,
      "t": 258330.3624999978,
      "d": 1319.4292708333232,
      "v": 121
    },
    {
      "midi": 72,
      "hit": false,
      "t": 258330.3624999978,
      "d": 1319.4292708333232,
      "v": 121
    },
    {
      "midi": 60,
      "hit": false,
      "t": 259003.96586458114,
      "d": 645.8259062499856,
      "v": 91
    },
    {
      "midi": 64,
      "hit": false,
      "t": 259337.29536458114,
      "d": 312.496406249993,
      "v": 78
    },
    {
      "midi": 57,
      "hit": false,
      "t": 259677.56922916445,
      "d": 986.0997708333307,
      "v": 124
    },
    {
      "midi": 60,
      "hit": false,
      "t": 259677.56922916445,
      "d": 1472.2052916666435,
      "v": 121
    },
    {
      "midi": 65,
      "hit": false,
      "t": 259677.56922916445,
      "d": 1472.2052916666435,
      "v": 106
    },
    {
      "midi": 53,
      "hit": false,
      "t": 260337.2838645811,
      "d": 333.32949999999255,
      "v": 108
    },
    {
      "midi": 57,
      "hit": false,
      "t": 260670.6133645811,
      "d": 479.1611562499893,
      "v": 124
    },
    {
      "midi": 53,
      "hit": false,
      "t": 260677.55772916443,
      "d": 472.2167916666658,
      "v": 74
    },
    {
      "midi": 55,
      "hit": false,
      "t": 261323.38363541442,
      "d": 666.6589999999851,
      "v": 121
    },
    {
      "midi": 59,
      "hit": false,
      "t": 261323.38363541442,
      "d": 999.9884999999776,
      "v": 124
    },
    {
      "midi": 62,
      "hit": false,
      "t": 261323.38363541442,
      "d": 999.9884999999776,
      "v": 121
    },
    {
      "midi": 67,
      "hit": false,
      "t": 261330.32799999774,
      "d": 999.9885000000068,
      "v": 116
    },
    {
      "midi": 43,
      "hit": false,
      "t": 261330.32799999774,
      "d": 3333.295000000129,
      "v": 113
    },
    {
      "midi": 55,
      "hit": false,
      "t": 261996.98699999772,
      "d": 993.0441354167124,
      "v": 81
    },
    {
      "midi": 59,
      "hit": false,
      "t": 262330.31649999775,
      "d": 999.9885000000359,
      "v": 121
    },
    {
      "midi": 62,
      "hit": false,
      "t": 262330.31649999775,
      "d": 1333.3180000000284,
      "v": 121
    },
    {
      "midi": 67,
      "hit": false,
      "t": 262337.2608645811,
      "d": 1326.3736354166758,
      "v": 116
    },
    {
      "midi": 55,
      "hit": false,
      "t": 262996.9754999978,
      "d": 1319.4292708333815,
      "v": 111
    },
    {
      "midi": 59,
      "hit": false,
      "t": 263337.24936458113,
      "d": 326.38513541663997,
      "v": 111
    },
    {
      "midi": 59,
      "hit": false,
      "t": 263670.5788645811,
      "d": 145.83165624999674,
      "v": 121
    },
    {
      "midi": 62,
      "hit": false,
      "t": 263670.5788645811,
      "d": 145.83165624999674,
      "v": 116
    },
    {
      "midi": 67,
      "hit": false,
      "t": 263670.5788645811,
      "d": 145.83165624999674,
      "v": 99
    },
    {
      "midi": 59,
      "hit": false,
      "t": 263823.3548854145,
      "d": 159.7203854166437,
      "v": 111
    },
    {
      "midi": 62,
      "hit": false,
      "t": 263823.3548854145,
      "d": 159.7203854166437,
      "v": 116
    },
    {
      "midi": 67,
      "hit": false,
      "t": 263823.3548854145,
      "d": 159.7203854166437,
      "v": 99
    },
    {
      "midi": 62,
      "hit": false,
      "t": 263990.0196354145,
      "d": 999.9885000000941,
      "v": 124
    },
    {
      "midi": 59,
      "hit": false,
      "t": 263990.0196354145,
      "d": 1006.9328645834466,
      "v": 118
    },
    {
      "midi": 67,
      "hit": false,
      "t": 263990.0196354145,
      "d": 1006.9328645834466,
      "v": 118
    },
    {
      "midi": 64,
      "hit": false,
      "t": 263996.9639999978,
      "d": 2534.6930729168234,
      "v": 66
    },
    {
      "midi": 55,
      "hit": false,
      "t": 264323.3491354145,
      "d": 666.6590000000433,
      "v": 106
    },
    {
      "midi": 43,
      "hit": false,
      "t": 264670.5673645812,
      "d": 1645.8144062500796,
      "v": 87
    },
    {
      "midi": 55,
      "hit": false,
      "t": 264996.9524999979,
      "d": 659.7146354166907,
      "v": 113
    },
    {
      "midi": 62,
      "hit": false,
      "t": 264996.9524999979,
      "d": 999.9885000000359,
      "v": 118
    },
    {
      "midi": 59,
      "hit": false,
      "t": 265003.8968645813,
      "d": 993.0441354166833,
      "v": 118
    },
    {
      "midi": 67,
      "hit": false,
      "t": 265003.8968645813,
      "d": 999.9885000000359,
      "v": 116
    },
    {
      "midi": 55,
      "hit": false,
      "t": 265663.61149999796,
      "d": 868.0455729166861,
      "v": 118
    },
    {
      "midi": 59,
      "hit": false,
      "t": 266003.8853645813,
      "d": 527.7717083333409,
      "v": 121
    },
    {
      "midi": 62,
      "hit": false,
      "t": 266003.8853645813,
      "d": 527.7717083333409,
      "v": 118
    },
    {
      "midi": 67,
      "hit": false,
      "t": 266010.82972916466,
      "d": 520.8273437499884,
      "v": 106
    },
    {
      "midi": 43,
      "hit": false,
      "t": 266323.32613541465,
      "d": 312.496406249993,
      "v": 96
    },
    {
      "midi": 60,
      "hit": false,
      "t": 266663.599999998,
      "d": 993.0441354166251,
      "v": 124
    },
    {
      "midi": 57,
      "hit": false,
      "t": 267330.258999998,
      "d": 506.9386145833414,
      "v": 124
    },
    {
      "midi": 60,
      "hit": false,
      "t": 267663.588499998,
      "d": 173.60911458334886,
      "v": 91
    },
    {
      "midi": 59,
      "hit": false,
      "t": 267996.91799999797,
      "d": 90.27673958335072,
      "v": 124
    },
    {
      "midi": 55,
      "hit": false,
      "t": 267996.91799999797,
      "d": 104.16546874999767,
      "v": 118
    },
    {
      "midi": 62,
      "hit": false,
      "t": 267996.91799999797,
      "d": 104.16546874999767,
      "v": 116
    },
    {
      "midi": 67,
      "hit": false,
      "t": 267996.91799999797,
      "d": 124.9985624999972,
      "v": 111
    },
    {
      "midi": 55,
      "hit": false,
      "t": 268323.3031354146,
      "d": 534.7160729166935,
      "v": 118
    },
    {
      "midi": 62,
      "hit": false,
      "t": 268323.3031354146,
      "d": 534.7160729166935,
      "v": 127
    },
    {
      "midi": 59,
      "hit": false,
      "t": 268330.24749999796,
      "d": 527.7717083333409,
      "v": 121
    },
    {
      "midi": 67,
      "hit": false,
      "t": 268330.24749999796,
      "d": 527.7717083333409,
      "v": 116
    },
    {
      "midi": 60,
      "hit": false,
      "t": 268996.90649999795,
      "d": 666.6589999999851,
      "v": 127
    },
    {
      "midi": 64,
      "hit": false,
      "t": 268996.90649999795,
      "d": 999.9884999999776,
      "v": 127
    },
    {
      "midi": 67,
      "hit": false,
      "t": 268996.90649999795,
      "d": 1319.4292708333232,
      "v": 121
    },
    {
      "midi": 72,
      "hit": false,
      "t": 268996.90649999795,
      "d": 1319.4292708333232,
      "v": 121
    },
    {
      "midi": 60,
      "hit": false,
      "t": 269670.5098645813,
      "d": 645.8259062499856,
      "v": 91
    },
    {
      "midi": 64,
      "hit": false,
      "t": 270003.8393645813,
      "d": 312.496406249993,
      "v": 78
    },
    {
      "midi": 57,
      "hit": false,
      "t": 270344.1132291646,
      "d": 986.0997708333307,
      "v": 124
    },
    {
      "midi": 60,
      "hit": false,
      "t": 270344.1132291646,
      "d": 1472.2052916667308,
      "v": 121
    },
    {
      "midi": 65,
      "hit": false,
      "t": 270344.1132291646,
      "d": 1472.2052916667308,
      "v": 106
    },
    {
      "midi": 53,
      "hit": false,
      "t": 271003.8278645813,
      "d": 333.32949999999255,
      "v": 108
    },
    {
      "midi": 57,
      "hit": false,
      "t": 271337.1573645813,
      "d": 479.1611562500475,
      "v": 124
    },
    {
      "midi": 53,
      "hit": false,
      "t": 271344.10172916466,
      "d": 472.2167916666949,
      "v": 74
    },
    {
      "midi": 55,
      "hit": false,
      "t": 271989.9276354147,
      "d": 666.6590000000433,
      "v": 121
    },
    {
      "midi": 59,
      "hit": false,
      "t": 271989.9276354147,
      "d": 999.9885000000359,
      "v": 124
    },
    {
      "midi": 62,
      "hit": false,
      "t": 271989.9276354147,
      "d": 999.9885000000359,
      "v": 121
    },
    {
      "midi": 67,
      "hit": false,
      "t": 271996.87199999805,
      "d": 999.9885000000359,
      "v": 116
    },
    {
      "midi": 43,
      "hit": false,
      "t": 271996.87199999805,
      "d": 3333.2950000001583,
      "v": 113
    },
    {
      "midi": 55,
      "hit": false,
      "t": 272663.5309999981,
      "d": 993.0441354166833,
      "v": 81
    },
    {
      "midi": 59,
      "hit": false,
      "t": 272996.8604999981,
      "d": 999.9885000000359,
      "v": 121
    },
    {
      "midi": 62,
      "hit": false,
      "t": 272996.8604999981,
      "d": 1333.3180000000284,
      "v": 121
    },
    {
      "midi": 67,
      "hit": false,
      "t": 273003.80486458144,
      "d": 1326.3736354166758,
      "v": 116
    },
    {
      "midi": 55,
      "hit": false,
      "t": 273663.51949999813,
      "d": 1319.4292708333815,
      "v": 111
    },
    {
      "midi": 59,
      "hit": false,
      "t": 274003.7933645815,
      "d": 326.38513541663997,
      "v": 111
    },
    {
      "midi": 59,
      "hit": false,
      "t": 274337.12286458147,
      "d": 145.83165624999674,
      "v": 121
    },
    {
      "midi": 62,
      "hit": false,
      "t": 274337.12286458147,
      "d": 145.83165624999674,
      "v": 116
    },
    {
      "midi": 67,
      "hit": false,
      "t": 274337.12286458147,
      "d": 145.83165624999674,
      "v": 99
    },
    {
      "midi": 59,
      "hit": false,
      "t": 274489.8988854148,
      "d": 159.7203854166437,
      "v": 111
    },
    {
      "midi": 62,
      "hit": false,
      "t": 274489.8988854148,
      "d": 159.7203854166437,
      "v": 116
    },
    {
      "midi": 67,
      "hit": false,
      "t": 274489.8988854148,
      "d": 159.7203854166437,
      "v": 99
    },
    {
      "midi": 62,
      "hit": false,
      "t": 274656.5636354148,
      "d": 999.9885000000941,
      "v": 124
    },
    {
      "midi": 59,
      "hit": false,
      "t": 274656.5636354148,
      "d": 1006.9328645834466,
      "v": 118
    },
    {
      "midi": 67,
      "hit": false,
      "t": 274656.5636354148,
      "d": 1006.9328645834466,
      "v": 118
    },
    {
      "midi": 64,
      "hit": false,
      "t": 274663.50799999817,
      "d": 2534.6930729168234,
      "v": 66
    },
    {
      "midi": 55,
      "hit": false,
      "t": 274989.89313541487,
      "d": 666.6590000000433,
      "v": 106
    },
    {
      "midi": 43,
      "hit": false,
      "t": 275337.11136458156,
      "d": 1645.8144062500796,
      "v": 87
    },
    {
      "midi": 55,
      "hit": false,
      "t": 275663.49649999826,
      "d": 659.7146354166907,
      "v": 113
    },
    {
      "midi": 62,
      "hit": false,
      "t": 275663.49649999826,
      "d": 999.9885000000359,
      "v": 118
    },
    {
      "midi": 59,
      "hit": false,
      "t": 275670.4408645816,
      "d": 993.0441354166833,
      "v": 118
    },
    {
      "midi": 67,
      "hit": false,
      "t": 275670.4408645816,
      "d": 999.9885000000359,
      "v": 116
    },
    {
      "midi": 55,
      "hit": false,
      "t": 276330.1554999983,
      "d": 868.0455729166861,
      "v": 118
    },
    {
      "midi": 59,
      "hit": false,
      "t": 276670.42936458165,
      "d": 527.7717083333409,
      "v": 121
    },
    {
      "midi": 62,
      "hit": false,
      "t": 276670.42936458165,
      "d": 527.7717083333409,
      "v": 118
    },
    {
      "midi": 67,
      "hit": false,
      "t": 276677.373729165,
      "d": 520.8273437499884,
      "v": 106
    },
    {
      "midi": 43,
      "hit": false,
      "t": 276989.870135415,
      "d": 312.496406249993,
      "v": 96
    },
    {
      "midi": 60,
      "hit": false,
      "t": 277330.14399999834,
      "d": 993.0441354166251,
      "v": 124
    },
    {
      "midi": 57,
      "hit": false,
      "t": 277996.8029999983,
      "d": 506.9386145833414,
      "v": 124
    },
    {
      "midi": 60,
      "hit": false,
      "t": 278330.1324999983,
      "d": 173.60911458334886,
      "v": 91
    },
    {
      "midi": 59,
      "hit": false,
      "t": 278663.4619999983,
      "d": 90.27673958335072,
      "v": 124
    },
    {
      "midi": 55,
      "hit": false,
      "t": 278663.4619999983,
      "d": 104.16546874999767,
      "v": 118
    },
    {
      "midi": 62,
      "hit": false,
      "t": 278663.4619999983,
      "d": 104.16546874999767,
      "v": 116
    },
    {
      "midi": 67,
      "hit": false,
      "t": 278663.4619999983,
      "d": 124.9985624999972,
      "v": 111
    },
    {
      "midi": 55,
      "hit": false,
      "t": 278989.84713541495,
      "d": 534.7160729166935,
      "v": 118
    },
    {
      "midi": 62,
      "hit": false,
      "t": 278989.84713541495,
      "d": 534.7160729166935,
      "v": 127
    },
    {
      "midi": 59,
      "hit": false,
      "t": 278996.7914999983,
      "d": 527.7717083333409,
      "v": 121
    },
    {
      "midi": 67,
      "hit": false,
      "t": 278996.7914999983,
      "d": 527.7717083333409,
      "v": 116
    },
    {
      "midi": 60,
      "hit": false,
      "t": 279663.4504999983,
      "d": 666.6589999999851,
      "v": 127
    },
    {
      "midi": 64,
      "hit": false,
      "t": 279663.4504999983,
      "d": 999.9884999999776,
      "v": 127
    },
    {
      "midi": 67,
      "hit": false,
      "t": 279663.4504999983,
      "d": 1319.4292708333232,
      "v": 121
    },
    {
      "midi": 72,
      "hit": false,
      "t": 279663.4504999983,
      "d": 1319.4292708333232,
      "v": 121
    },
    {
      "midi": 60,
      "hit": false,
      "t": 280337.0538645816,
      "d": 645.8259062499856,
      "v": 91
    },
    {
      "midi": 64,
      "hit": false,
      "t": 280670.3833645816,
      "d": 312.496406249993,
      "v": 78
    },
    {
      "midi": 57,
      "hit": false,
      "t": 281010.65722916496,
      "d": 986.0997708333307,
      "v": 124
    },
    {
      "midi": 60,
      "hit": false,
      "t": 281010.65722916496,
      "d": 1472.2052916667308,
      "v": 121
    },
    {
      "midi": 65,
      "hit": false,
      "t": 281010.65722916496,
      "d": 1472.2052916667308,
      "v": 106
    },
    {
      "midi": 53,
      "hit": false,
      "t": 281670.37186458166,
      "d": 333.32949999999255,
      "v": 108
    },
    {
      "midi": 57,
      "hit": false,
      "t": 282003.70136458165,
      "d": 479.1611562500475,
      "v": 124
    },
    {
      "midi": 53,
      "hit": false,
      "t": 282010.645729165,
      "d": 472.2167916666949,
      "v": 74
    },
    {
      "midi": 55,
      "hit": false,
      "t": 282656.47163541504,
      "d": 666.6590000000433,
      "v": 121
    },
    {
      "midi": 59,
      "hit": false,
      "t": 282656.47163541504,
      "d": 999.9885000000359,
      "v": 124
    },
    {
      "midi": 62,
      "hit": false,
      "t": 282656.47163541504,
      "d": 999.9885000000359,
      "v": 121
    },
    {
      "midi": 67,
      "hit": false,
      "t": 282663.4159999984,
      "d": 999.9885000000359,
      "v": 116
    },
    {
      "midi": 43,
      "hit": false,
      "t": 282663.4159999984,
      "d": 3333.295000000042,
      "v": 113
    },
    {
      "midi": 55,
      "hit": false,
      "t": 283330.07499999844,
      "d": 993.0441354166833,
      "v": 81
    },
    {
      "midi": 59,
      "hit": false,
      "t": 283663.40449999843,
      "d": 999.9885000000359,
      "v": 121
    },
    {
      "midi": 62,
      "hit": false,
      "t": 283663.40449999843,
      "d": 1333.3180000000284,
      "v": 121
    },
    {
      "midi": 67,
      "hit": false,
      "t": 283670.3488645818,
      "d": 1326.3736354166758,
      "v": 116
    },
    {
      "midi": 55,
      "hit": false,
      "t": 284330.0634999985,
      "d": 1319.4292708333232,
      "v": 111
    },
    {
      "midi": 59,
      "hit": false,
      "t": 284670.3373645818,
      "d": 326.38513541663997,
      "v": 111
    },
    {
      "midi": 59,
      "hit": false,
      "t": 285003.6668645818,
      "d": 145.83165624999674,
      "v": 121
    },
    {
      "midi": 62,
      "hit": false,
      "t": 285003.6668645818,
      "d": 145.83165624999674,
      "v": 116
    },
    {
      "midi": 67,
      "hit": false,
      "t": 285003.6668645818,
      "d": 145.83165624999674,
      "v": 99
    },
    {
      "midi": 59,
      "hit": false,
      "t": 285156.44288541516,
      "d": 159.7203854166437,
      "v": 111
    },
    {
      "midi": 62,
      "hit": false,
      "t": 285156.44288541516,
      "d": 159.7203854166437,
      "v": 116
    },
    {
      "midi": 67,
      "hit": false,
      "t": 285156.44288541516,
      "d": 159.7203854166437,
      "v": 99
    },
    {
      "midi": 62,
      "hit": false,
      "t": 285323.10763541516,
      "d": 999.9884999999194,
      "v": 124
    },
    {
      "midi": 59,
      "hit": false,
      "t": 285323.10763541516,
      "d": 1006.932864583272,
      "v": 118
    },
    {
      "midi": 67,
      "hit": false,
      "t": 285323.10763541516,
      "d": 1006.932864583272,
      "v": 118
    },
    {
      "midi": 64,
      "hit": false,
      "t": 285330.0519999985,
      "d": 2534.6930729165906,
      "v": 66
    },
    {
      "midi": 55,
      "hit": false,
      "t": 285656.43713541515,
      "d": 666.6589999999269,
      "v": 106
    },
    {
      "midi": 43,
      "hit": false,
      "t": 286003.6553645818,
      "d": 1645.8144062499632,
      "v": 87
    },
    {
      "midi": 55,
      "hit": false,
      "t": 286330.04049999843,
      "d": 659.7146354166325,
      "v": 113
    },
    {
      "midi": 62,
      "hit": false,
      "t": 286330.04049999843,
      "d": 999.9884999999776,
      "v": 118
    },
    {
      "midi": 59,
      "hit": false,
      "t": 286336.9848645818,
      "d": 993.0441354166251,
      "v": 118
    },
    {
      "midi": 67,
      "hit": false,
      "t": 286336.9848645818,
      "d": 999.9884999999776,
      "v": 116
    },
    {
      "midi": 55,
      "hit": false,
      "t": 286996.6994999984,
      "d": 868.0455729166861,
      "v": 118
    },
    {
      "midi": 59,
      "hit": false,
      "t": 287336.97336458176,
      "d": 527.7717083333409,
      "v": 121
    },
    {
      "midi": 62,
      "hit": false,
      "t": 287336.97336458176,
      "d": 527.7717083333409,
      "v": 118
    },
    {
      "midi": 67,
      "hit": false,
      "t": 287343.9177291651,
      "d": 520.8273437499884,
      "v": 106
    },
    {
      "midi": 43,
      "hit": false,
      "t": 287656.4141354151,
      "d": 312.496406249993,
      "v": 96
    },
    {
      "midi": 60,
      "hit": false,
      "t": 287996.68799999845,
      "d": 993.0441354166833,
      "v": 124
    },
    {
      "midi": 57,
      "hit": false,
      "t": 288663.3469999985,
      "d": 506.9386145833414,
      "v": 124
    },
    {
      "midi": 60,
      "hit": false,
      "t": 288996.6764999985,
      "d": 173.60911458334886,
      "v": 91
    },
    {
      "midi": 59,
      "hit": false,
      "t": 289330.0059999985,
      "d": 90.27673958335072,
      "v": 124
    },
    {
      "midi": 55,
      "hit": false,
      "t": 289330.0059999985,
      "d": 104.16546874999767,
      "v": 118
    },
    {
      "midi": 62,
      "hit": false,
      "t": 289330.0059999985,
      "d": 104.16546874999767,
      "v": 116
    },
    {
      "midi": 67,
      "hit": false,
      "t": 289330.0059999985,
      "d": 124.9985624999972,
      "v": 111
    },
    {
      "midi": 55,
      "hit": false,
      "t": 289656.3911354151,
      "d": 534.7160729166935,
      "v": 118
    },
    {
      "midi": 62,
      "hit": false,
      "t": 289656.3911354151,
      "d": 534.7160729166935,
      "v": 127
    },
    {
      "midi": 59,
      "hit": false,
      "t": 289663.3354999985,
      "d": 527.7717083333409,
      "v": 121
    },
    {
      "midi": 67,
      "hit": false,
      "t": 289663.3354999985,
      "d": 527.7717083333409,
      "v": 116
    },
    {
      "midi": 60,
      "hit": false,
      "t": 290329.99449999846,
      "d": 666.6589999999851,
      "v": 127
    },
    {
      "midi": 64,
      "hit": false,
      "t": 290329.99449999846,
      "d": 999.9885000000359,
      "v": 127
    },
    {
      "midi": 67,
      "hit": false,
      "t": 290329.99449999846,
      "d": 1319.4292708333232,
      "v": 121
    },
    {
      "midi": 72,
      "hit": false,
      "t": 290329.99449999846,
      "d": 1319.4292708333232,
      "v": 121
    },
    {
      "midi": 60,
      "hit": false,
      "t": 291003.5978645818,
      "d": 645.8259062499856,
      "v": 91
    },
    {
      "midi": 64,
      "hit": false,
      "t": 291336.92736458185,
      "d": 312.4964062499348,
      "v": 78
    },
    {
      "midi": 57,
      "hit": false,
      "t": 291677.20122916513,
      "d": 986.0997708332725,
      "v": 124
    },
    {
      "midi": 60,
      "hit": false,
      "t": 291677.20122916513,
      "d": 1472.2052916666726,
      "v": 121
    },
    {
      "midi": 65,
      "hit": false,
      "t": 291677.20122916513,
      "d": 1472.2052916666726,
      "v": 106
    },
    {
      "midi": 53,
      "hit": false,
      "t": 292336.91586458177,
      "d": 333.32949999999255,
      "v": 108
    },
    {
      "midi": 57,
      "hit": false,
      "t": 292670.24536458176,
      "d": 479.1611562500475,
      "v": 124
    },
    {
      "midi": 53,
      "hit": false,
      "t": 292677.1897291651,
      "d": 472.2167916666949,
      "v": 74
    },
    {
      "midi": 55,
      "hit": false,
      "t": 293323.01563541515,
      "d": 666.6589999999851,
      "v": 121
    },
    {
      "midi": 59,
      "hit": false,
      "t": 293323.01563541515,
      "d": 999.9885000000359,
      "v": 124
    },
    {
      "midi": 62,
      "hit": false,
      "t": 293323.01563541515,
      "d": 999.9885000000359,
      "v": 121
    },
    {
      "midi": 67,
      "hit": false,
      "t": 293329.9599999985,
      "d": 999.9885000000359,
      "v": 116
    },
    {
      "midi": 43,
      "hit": false,
      "t": 293329.9599999985,
      "d": 3333.2950000001583,
      "v": 113
    },
    {
      "midi": 55,
      "hit": false,
      "t": 293996.6189999985,
      "d": 993.0441354167415,
      "v": 81
    },
    {
      "midi": 59,
      "hit": false,
      "t": 294329.94849999854,
      "d": 999.9885000000359,
      "v": 121
    },
    {
      "midi": 62,
      "hit": false,
      "t": 294329.94849999854,
      "d": 1333.3180000000284,
      "v": 121
    },
    {
      "midi": 67,
      "hit": false,
      "t": 294336.8928645819,
      "d": 1326.3736354166758,
      "v": 116
    },
    {
      "midi": 55,
      "hit": false,
      "t": 294996.6074999986,
      "d": 1319.4292708333815,
      "v": 111
    },
    {
      "midi": 59,
      "hit": false,
      "t": 295336.88136458193,
      "d": 326.38513541663997,
      "v": 111
    },
    {
      "midi": 59,
      "hit": false,
      "t": 295670.2108645819,
      "d": 145.83165624999674,
      "v": 121
    },
    {
      "midi": 62,
      "hit": false,
      "t": 295670.2108645819,
      "d": 145.83165624999674,
      "v": 116
    },
    {
      "midi": 67,
      "hit": false,
      "t": 295670.2108645819,
      "d": 145.83165624999674,
      "v": 99
    },
    {
      "midi": 59,
      "hit": false,
      "t": 295822.9868854153,
      "d": 159.7203854166437,
      "v": 111
    },
    {
      "midi": 62,
      "hit": false,
      "t": 295822.9868854153,
      "d": 159.7203854166437,
      "v": 116
    },
    {
      "midi": 67,
      "hit": false,
      "t": 295822.9868854153,
      "d": 159.7203854166437,
      "v": 99
    },
    {
      "midi": 62,
      "hit": false,
      "t": 295989.65163541527,
      "d": 999.9885000000941,
      "v": 124
    },
    {
      "midi": 59,
      "hit": false,
      "t": 295989.65163541527,
      "d": 1006.9328645834466,
      "v": 118
    },
    {
      "midi": 67,
      "hit": false,
      "t": 295989.65163541527,
      "d": 1006.9328645834466,
      "v": 118
    },
    {
      "midi": 64,
      "hit": false,
      "t": 295996.5959999986,
      "d": 2534.6930729168234,
      "v": 66
    },
    {
      "midi": 55,
      "hit": false,
      "t": 296322.9811354153,
      "d": 666.6590000000433,
      "v": 106
    },
    {
      "midi": 43,
      "hit": false,
      "t": 296670.199364582,
      "d": 1645.8144062500796,
      "v": 87
    },
    {
      "midi": 55,
      "hit": false,
      "t": 296996.5844999987,
      "d": 659.7146354166907,
      "v": 113
    },
    {
      "midi": 62,
      "hit": false,
      "t": 296996.5844999987,
      "d": 999.9885000000359,
      "v": 118
    },
    {
      "midi": 59,
      "hit": false,
      "t": 297003.52886458207,
      "d": 993.0441354166833,
      "v": 118
    },
    {
      "midi": 67,
      "hit": false,
      "t": 297003.52886458207,
      "d": 999.9885000000359,
      "v": 116
    },
    {
      "midi": 55,
      "hit": false,
      "t": 297663.24349999876,
      "d": 868.0455729166861,
      "v": 118
    },
    {
      "midi": 59,
      "hit": false,
      "t": 298003.5173645821,
      "d": 527.7717083333409,
      "v": 121
    },
    {
      "midi": 62,
      "hit": false,
      "t": 298003.5173645821,
      "d": 527.7717083333409,
      "v": 118
    },
    {
      "midi": 67,
      "hit": false,
      "t": 298010.46172916546,
      "d": 520.8273437499884,
      "v": 106
    },
    {
      "midi": 43,
      "hit": false,
      "t": 298322.95813541545,
      "d": 312.496406249993,
      "v": 96
    }
  ]
}