{
  "jsonPath": "Rock/Ohio Indie/Southeast Engine/im-never-sure.json",
  "path": "Rock\\Ohio Indie\\Southeast Engine\\Im Never Sure.mid",
  "name": "Im Never Sure",
  "difficulty": "Advanced",
  "bpm": 71.00003550001774,
  "notes": [
    {
      "midi": 67,
      "hit": false,
      "t": 6795.771250000001,
      "d": 246.47875000000022,
      "v": 75
    },
    {
      "midi": 55,
      "hit": false,
      "t": 6795.771250000001,
      "d": 246.47875000000022,
      "v": 55
    },
    {
      "midi": 40,
      "hit": false,
      "t": 6795.771250000001,
      "d": 1654.9287500000019,
      "v": 65
    },
    {
      "midi": 52,
      "hit": false,
      "t": 6795.771250000001,
      "d": 1654.9287500000019,
      "v": 65
    },
    {
      "midi": 71,
      "hit": false,
      "t": 7042.250000000001,
      "d": 281.6899999999996,
      "v": 75
    },
    {
      "midi": 59,
      "hit": false,
      "t": 7042.250000000001,
      "d": 316.9012499999999,
      "v": 55
    },
    {
      "midi": 76,
      "hit": false,
      "t": 7323.9400000000005,
      "d": 281.6900000000005,
      "v": 75
    },
    {
      "midi": 64,
      "hit": false,
      "t": 7323.9400000000005,
      "d": 316.9012500000008,
      "v": 55
    },
    {
      "midi": 79,
      "hit": false,
      "t": 7605.630000000001,
      "d": 281.6900000000005,
      "v": 75
    },
    {
      "midi": 67,
      "hit": false,
      "t": 7640.841250000001,
      "d": 246.47875000000022,
      "v": 55
    },
    {
      "midi": 76,
      "hit": false,
      "t": 7887.3200000000015,
      "d": 281.6900000000005,
      "v": 75
    },
    {
      "midi": 64,
      "hit": false,
      "t": 7887.3200000000015,
      "d": 316.9012500000008,
      "v": 55
    },
    {
      "midi": 71,
      "hit": false,
      "t": 8169.010000000002,
      "d": 281.6900000000005,
      "v": 75
    },
    {
      "midi": 59,
      "hit": false,
      "t": 8204.221250000002,
      "d": 281.6900000000005,
      "v": 55
    },
    {
      "midi": 52,
      "hit": false,
      "t": 8450.700000000003,
      "d": 2.2007031249995634,
      "v": 85
    },
    {
      "midi": 64,
      "hit": false,
      "t": 8450.700000000003,
      "d": 2.2007031249995634,
      "v": 85
    },
    {
      "midi": 52,
      "hit": false,
      "t": 8485.911250000003,
      "d": 246.47875000000022,
      "v": 65
    },
    {
      "midi": 40,
      "hit": false,
      "t": 8485.911250000003,
      "d": 1690.140000000003,
      "v": 65
    },
    {
      "midi": 67,
      "hit": false,
      "t": 8732.390000000003,
      "d": 281.6900000000005,
      "v": 75
    },
    {
      "midi": 55,
      "hit": false,
      "t": 8732.390000000003,
      "d": 281.6900000000005,
      "v": 55
    },
    {
      "midi": 71,
      "hit": false,
      "t": 9014.080000000004,
      "d": 281.6900000000005,
      "v": 75
    },
    {
      "midi": 59,
      "hit": false,
      "t": 9014.080000000004,
      "d": 281.6900000000005,
      "v": 55
    },
    {
      "midi": 76,
      "hit": false,
      "t": 9295.770000000004,
      "d": 281.6900000000005,
      "v": 75
    },
    {
      "midi": 64,
      "hit": false,
      "t": 9295.770000000004,
      "d": 281.6900000000005,
      "v": 55
    },
    {
      "midi": 71,
      "hit": false,
      "t": 9577.460000000005,
      "d": 281.6900000000005,
      "v": 75
    },
    {
      "midi": 59,
      "hit": false,
      "t": 9577.460000000005,
      "d": 316.9012500000008,
      "v": 55
    },
    {
      "midi": 67,
      "hit": false,
      "t": 9859.150000000005,
      "d": 316.9012500000008,
      "v": 75
    },
    {
      "midi": 55,
      "hit": false,
      "t": 9894.361250000005,
      "d": 281.6900000000005,
      "v": 55
    },
    {
      "midi": 60,
      "hit": false,
      "t": 10176.051250000006,
      "d": 246.47875000000022,
      "v": 75
    },
    {
      "midi": 48,
      "hit": false,
      "t": 10176.051250000006,
      "d": 246.47875000000022,
      "v": 55
    },
    {
      "midi": 33,
      "hit": false,
      "t": 10176.051250000006,
      "d": 1654.9287500000028,
      "v": 65
    },
    {
      "midi": 64,
      "hit": false,
      "t": 10422.530000000006,
      "d": 281.6900000000005,
      "v": 75
    },
    {
      "midi": 52,
      "hit": false,
      "t": 10422.530000000006,
      "d": 281.6900000000005,
      "v": 55
    },
    {
      "midi": 69,
      "hit": false,
      "t": 10704.220000000007,
      "d": 281.6900000000005,
      "v": 75
    },
    {
      "midi": 57,
      "hit": false,
      "t": 10704.220000000007,
      "d": 316.9012500000008,
      "v": 55
    },
    {
      "midi": 72,
      "hit": false,
      "t": 10985.910000000007,
      "d": 281.6900000000005,
      "v": 75
    },
    {
      "midi": 60,
      "hit": false,
      "t": 10985.910000000007,
      "d": 281.6900000000005,
      "v": 55
    },
    {
      "midi": 69,
      "hit": false,
      "t": 11267.600000000008,
      "d": 281.6900000000005,
      "v": 75
    },
    {
      "midi": 57,
      "hit": false,
      "t": 11267.600000000008,
      "d": 281.6900000000005,
      "v": 55
    },
    {
      "midi": 64,
      "hit": false,
      "t": 11549.290000000008,
      "d": 281.6900000000005,
      "v": 75
    },
    {
      "midi": 52,
      "hit": false,
      "t": 11549.290000000008,
      "d": 316.9012500000008,
      "v": 55
    },
    {
      "midi": 45,
      "hit": false,
      "t": 11830.980000000009,
      "d": 2.2007031249995634,
      "v": 85
    },
    {
      "midi": 57,
      "hit": false,
      "t": 11830.980000000009,
      "d": 2.2007031249995634,
      "v": 85
    },
    {
      "midi": 45,
      "hit": false,
      "t": 11830.980000000009,
      "d": 2.2007031249995634,
      "v": 65
    },
    {
      "midi": 33,
      "hit": false,
      "t": 11866.191250000009,
      "d": 1690.140000000003,
      "v": 65
    },
    {
      "midi": 60,
      "hit": false,
      "t": 12112.67000000001,
      "d": 281.6900000000005,
      "v": 75
    },
    {
      "midi": 48,
      "hit": false,
      "t": 12112.67000000001,
      "d": 281.6900000000005,
      "v": 55
    },
    {
      "midi": 64,
      "hit": false,
      "t": 12394.36000000001,
      "d": 281.6900000000005,
      "v": 75
    },
    {
      "midi": 52,
      "hit": false,
      "t": 12394.36000000001,
      "d": 316.9012500000008,
      "v": 55
    },
    {
      "midi": 69,
      "hit": false,
      "t": 12676.05000000001,
      "d": 281.6900000000005,
      "v": 75
    },
    {
      "midi": 57,
      "hit": false,
      "t": 12676.05000000001,
      "d": 281.6900000000005,
      "v": 55
    },
    {
      "midi": 64,
      "hit": false,
      "t": 12957.74000000001,
      "d": 281.6900000000005,
      "v": 75
    },
    {
      "midi": 52,
      "hit": false,
      "t": 12957.74000000001,
      "d": 316.9012500000008,
      "v": 55
    },
    {
      "midi": 60,
      "hit": false,
      "t": 13239.430000000011,
      "d": 316.9012500000008,
      "v": 75
    },
    {
      "midi": 48,
      "hit": false,
      "t": 13239.430000000011,
      "d": 316.9012500000008,
      "v": 55
    },
    {
      "midi": 67,
      "hit": false,
      "t": 13556.331250000012,
      "d": 246.47875000000022,
      "v": 75
    },
    {
      "midi": 55,
      "hit": false,
      "t": 13556.331250000012,
      "d": 246.47875000000022,
      "v": 55
    },
    {
      "midi": 40,
      "hit": false,
      "t": 13556.331250000012,
      "d": 1654.9287500000028,
      "v": 65
    },
    {
      "midi": 71,
      "hit": false,
      "t": 13802.810000000012,
      "d": 281.6900000000005,
      "v": 75
    },
    {
      "midi": 59,
      "hit": false,
      "t": 13802.810000000012,
      "d": 281.6900000000005,
      "v": 55
    },
    {
      "midi": 76,
      "hit": false,
      "t": 14084.500000000013,
      "d": 281.6900000000005,
      "v": 75
    },
    {
      "midi": 64,
      "hit": false,
      "t": 14084.500000000013,
      "d": 316.9012500000008,
      "v": 55
    },
    {
      "midi": 79,
      "hit": false,
      "t": 14366.190000000013,
      "d": 281.6900000000005,
      "v": 75
    },
    {
      "midi": 67,
      "hit": false,
      "t": 14366.190000000013,
      "d": 281.6900000000005,
      "v": 55
    },
    {
      "midi": 76,
      "hit": false,
      "t": 14647.880000000014,
      "d": 281.6900000000005,
      "v": 75
    },
    {
      "midi": 64,
      "hit": false,
      "t": 14647.880000000014,
      "d": 281.6900000000005,
      "v": 55
    },
    {
      "midi": 71,
      "hit": false,
      "t": 14929.570000000014,
      "d": 281.6900000000005,
      "v": 75
    },
    {
      "midi": 59,
      "hit": false,
      "t": 14929.570000000014,
      "d": 316.9012500000008,
      "v": 55
    },
    {
      "midi": 52,
      "hit": false,
      "t": 15211.260000000015,
      "d": 2.2007031249995634,
      "v": 85
    },
    {
      "midi": 64,
      "hit": false,
      "t": 15211.260000000015,
      "d": 2.2007031249995634,
      "v": 85
    },
    {
      "midi": 52,
      "hit": false,
      "t": 15211.260000000015,
      "d": 2.2007031249995634,
      "v": 65
    },
    {
      "midi": 40,
      "hit": false,
      "t": 15246.471250000015,
      "d": 1690.1400000000012,
      "v": 65
    },
    {
      "midi": 67,
      "hit": false,
      "t": 15492.950000000015,
      "d": 281.6900000000005,
      "v": 75
    },
    {
      "midi": 55,
      "hit": false,
      "t": 15492.950000000015,
      "d": 281.6900000000005,
      "v": 55
    },
    {
      "midi": 71,
      "hit": false,
      "t": 15774.640000000016,
      "d": 281.6900000000005,
      "v": 75
    },
    {
      "midi": 59,
      "hit": false,
      "t": 15774.640000000016,
      "d": 281.6900000000005,
      "v": 55
    },
    {
      "midi": 76,
      "hit": false,
      "t": 16056.330000000016,
      "d": 281.6900000000005,
      "v": 75
    },
    {
      "midi": 64,
      "hit": false,
      "t": 16056.330000000016,
      "d": 281.6900000000005,
      "v": 55
    },
    {
      "midi": 71,
      "hit": false,
      "t": 16338.020000000017,
      "d": 281.6900000000005,
      "v": 75
    },
    {
      "midi": 59,
      "hit": false,
      "t": 16338.020000000017,
      "d": 316.9012500000008,
      "v": 55
    },
    {
      "midi": 67,
      "hit": false,
      "t": 16619.710000000017,
      "d": 316.901249999999,
      "v": 75
    },
    {
      "midi": 55,
      "hit": false,
      "t": 16654.921250000018,
      "d": 281.6899999999987,
      "v": 55
    },
    {
      "midi": 63,
      "hit": false,
      "t": 16936.611250000016,
      "d": 246.4787499999984,
      "v": 75
    },
    {
      "midi": 51,
      "hit": false,
      "t": 16936.611250000016,
      "d": 246.4787499999984,
      "v": 55
    },
    {
      "midi": 35,
      "hit": false,
      "t": 16936.611250000016,
      "d": 1654.9287499999919,
      "v": 65
    },
    {
      "midi": 66,
      "hit": false,
      "t": 17183.090000000015,
      "d": 281.6899999999987,
      "v": 75
    },
    {
      "midi": 54,
      "hit": false,
      "t": 17183.090000000015,
      "d": 281.6899999999987,
      "v": 55
    },
    {
      "midi": 71,
      "hit": false,
      "t": 17464.780000000013,
      "d": 281.6899999999987,
      "v": 75
    },
    {
      "midi": 59,
      "hit": false,
      "t": 17464.780000000013,
      "d": 281.6899999999987,
      "v": 55
    },
    {
      "midi": 75,
      "hit": false,
      "t": 17746.470000000012,
      "d": 281.6899999999987,
      "v": 75
    },
    {
      "midi": 63,
      "hit": false,
      "t": 17746.470000000012,
      "d": 281.6899999999987,
      "v": 55
    },
    {
      "midi": 71,
      "hit": false,
      "t": 18028.16000000001,
      "d": 281.6899999999987,
      "v": 75
    },
    {
      "midi": 59,
      "hit": false,
      "t": 18028.16000000001,
      "d": 281.6899999999987,
      "v": 55
    },
    {
      "midi": 66,
      "hit": false,
      "t": 18309.85000000001,
      "d": 281.6899999999987,
      "v": 75
    },
    {
      "midi": 54,
      "hit": false,
      "t": 18309.85000000001,
      "d": 316.901249999999,
      "v": 55
    },
    {
      "midi": 47,
      "hit": false,
      "t": 18591.540000000008,
      "d": 2.2007031249995634,
      "v": 85
    },
    {
      "midi": 59,
      "hit": false,
      "t": 18591.540000000008,
      "d": 2.2007031249995634,
      "v": 85
    },
    {
      "midi": 47,
      "hit": false,
      "t": 18591.540000000008,
      "d": 2.2007031249995634,
      "v": 65
    },
    {
      "midi": 35,
      "hit": false,
      "t": 18626.75125000001,
      "d": 1690.1399999999921,
      "v": 65
    },
    {
      "midi": 63,
      "hit": false,
      "t": 18873.230000000007,
      "d": 281.6899999999987,
      "v": 75
    },
    {
      "midi": 51,
      "hit": false,
      "t": 18873.230000000007,
      "d": 281.6899999999987,
      "v": 55
    },
    {
      "midi": 66,
      "hit": false,
      "t": 19154.920000000006,
      "d": 281.6899999999987,
      "v": 75
    },
    {
      "midi": 54,
      "hit": false,
      "t": 19154.920000000006,
      "d": 281.6899999999987,
      "v": 55
    },
    {
      "midi": 71,
      "hit": false,
      "t": 19436.610000000004,
      "d": 281.6899999999987,
      "v": 75
    },
    {
      "midi": 59,
      "hit": false,
      "t": 19436.610000000004,
      "d": 281.6899999999987,
      "v": 55
    },
    {
      "midi": 66,
      "hit": false,
      "t": 19718.300000000003,
      "d": 281.6899999999987,
      "v": 75
    },
    {
      "midi": 54,
      "hit": false,
      "t": 19718.300000000003,
      "d": 281.6899999999987,
      "v": 55
    },
    {
      "midi": 63,
      "hit": false,
      "t": 19999.99,
      "d": 316.901249999999,
      "v": 75
    },
    {
      "midi": 51,
      "hit": false,
      "t": 19999.99,
      "d": 316.901249999999,
      "v": 55
    },
    {
      "midi": 67,
      "hit": false,
      "t": 20316.89125,
      "d": 246.4787499999984,
      "v": 75
    },
    {
      "midi": 55,
      "hit": false,
      "t": 20316.89125,
      "d": 246.4787499999984,
      "v": 55
    },
    {
      "midi": 40,
      "hit": false,
      "t": 20316.89125,
      "d": 1654.9287499999919,
      "v": 65
    },
    {
      "midi": 52,
      "hit": false,
      "t": 20316.89125,
      "d": 1654.9287499999919,
      "v": 65
    },
    {
      "midi": 71,
      "hit": false,
      "t": 20563.37,
      "d": 281.6899999999987,
      "v": 75
    },
    {
      "midi": 59,
      "hit": false,
      "t": 20563.37,
      "d": 281.6899999999987,
      "v": 55
    },
    {
      "midi": 76,
      "hit": false,
      "t": 20845.059999999998,
      "d": 281.6899999999987,
      "v": 75
    },
    {
      "midi": 64,
      "hit": false,
      "t": 20845.059999999998,
      "d": 281.6899999999987,
      "v": 55
    },
    {
      "midi": 79,
      "hit": false,
      "t": 21126.749999999996,
      "d": 281.6899999999987,
      "v": 75
    },
    {
      "midi": 67,
      "hit": false,
      "t": 21126.749999999996,
      "d": 281.6899999999987,
      "v": 55
    },
    {
      "midi": 76,
      "hit": false,
      "t": 21408.439999999995,
      "d": 281.6899999999987,
      "v": 75
    },
    {
      "midi": 64,
      "hit": false,
      "t": 21408.439999999995,
      "d": 316.901249999999,
      "v": 55
    },
    {
      "midi": 71,
      "hit": false,
      "t": 21690.129999999994,
      "d": 281.6899999999987,
      "v": 75
    },
    {
      "midi": 59,
      "hit": false,
      "t": 21725.341249999994,
      "d": 281.6899999999987,
      "v": 55
    },
    {
      "midi": 52,
      "hit": false,
      "t": 21971.819999999992,
      "d": 2.2007031249995634,
      "v": 85
    },
    {
      "midi": 64,
      "hit": false,
      "t": 21971.819999999992,
      "d": 2.2007031249995634,
      "v": 85
    },
    {
      "midi": 52,
      "hit": false,
      "t": 22007.031249999993,
      "d": 246.4787499999984,
      "v": 65
    },
    {
      "midi": 40,
      "hit": false,
      "t": 22007.031249999993,
      "d": 1690.1399999999921,
      "v": 65
    },
    {
      "midi": 67,
      "hit": false,
      "t": 22253.50999999999,
      "d": 281.6899999999987,
      "v": 75
    },
    {
      "midi": 55,
      "hit": false,
      "t": 22253.50999999999,
      "d": 281.6899999999987,
      "v": 55
    },
    {
      "midi": 71,
      "hit": false,
      "t": 22535.19999999999,
      "d": 281.6899999999987,
      "v": 75
    },
    {
      "midi": 59,
      "hit": false,
      "t": 22535.19999999999,
      "d": 316.901249999999,
      "v": 55
    },
    {
      "midi": 76,
      "hit": false,
      "t": 22816.88999999999,
      "d": 281.6899999999987,
      "v": 75
    },
    {
      "midi": 64,
      "hit": false,
      "t": 22816.88999999999,
      "d": 281.6899999999987,
      "v": 55
    },
    {
      "midi": 71,
      "hit": false,
      "t": 23098.579999999987,
      "d": 281.6899999999987,
      "v": 75
    },
    {
      "midi": 59,
      "hit": false,
      "t": 23098.579999999987,
      "d": 316.901249999999,
      "v": 55
    },
    {
      "midi": 67,
      "hit": false,
      "t": 23380.269999999986,
      "d": 316.901249999999,
      "v": 75
    },
    {
      "midi": 55,
      "hit": false,
      "t": 23415.481249999986,
      "d": 281.6899999999987,
      "v": 55
    },
    {
      "midi": 60,
      "hit": false,
      "t": 23697.171249999985,
      "d": 246.4787499999984,
      "v": 75
    },
    {
      "midi": 48,
      "hit": false,
      "t": 23697.171249999985,
      "d": 246.4787499999984,
      "v": 55
    },
    {
      "midi": 33,
      "hit": false,
      "t": 23697.171249999985,
      "d": 1654.9287499999919,
      "v": 65
    },
    {
      "midi": 45,
      "hit": false,
      "t": 23697.171249999985,
      "d": 1654.9287499999919,
      "v": 65
    },
    {
      "midi": 64,
      "hit": false,
      "t": 23943.649999999983,
      "d": 281.6899999999987,
      "v": 75
    },
    {
      "midi": 52,
      "hit": false,
      "t": 23943.649999999983,
      "d": 281.6899999999987,
      "v": 55
    },
    {
      "midi": 69,
      "hit": false,
      "t": 24225.339999999982,
      "d": 281.6899999999987,
      "v": 75
    },
    {
      "midi": 57,
      "hit": false,
      "t": 24225.339999999982,
      "d": 281.6899999999987,
      "v": 55
    },
    {
      "midi": 72,
      "hit": false,
      "t": 24507.02999999998,
      "d": 281.6899999999987,
      "v": 75
    },
    {
      "midi": 60,
      "hit": false,
      "t": 24507.02999999998,
      "d": 281.6899999999987,
      "v": 55
    },
    {
      "midi": 69,
      "hit": false,
      "t": 24788.71999999998,
      "d": 281.6899999999987,
      "v": 75
    },
    {
      "midi": 57,
      "hit": false,
      "t": 24788.71999999998,
      "d": 316.901249999999,
      "v": 55
    },
    {
      "midi": 64,
      "hit": false,
      "t": 25070.409999999978,
      "d": 281.6899999999987,
      "v": 75
    },
    {
      "midi": 52,
      "hit": false,
      "t": 25105.62124999998,
      "d": 281.6899999999987,
      "v": 55
    },
    {
      "midi": 45,
      "hit": false,
      "t": 25352.099999999977,
      "d": 2.2007031249995634,
      "v": 85
    },
    {
      "midi": 57,
      "hit": false,
      "t": 25352.099999999977,
      "d": 2.2007031249995634,
      "v": 85
    },
    {
      "midi": 45,
      "hit": false,
      "t": 25387.311249999977,
      "d": 246.4787499999984,
      "v": 65
    },
    {
      "midi": 33,
      "hit": false,
      "t": 25387.311249999977,
      "d": 1690.1399999999921,
      "v": 65
    },
    {
      "midi": 60,
      "hit": false,
      "t": 25633.789999999975,
      "d": 281.6899999999987,
      "v": 75
    },
    {
      "midi": 48,
      "hit": false,
      "t": 25633.789999999975,
      "d": 281.6899999999987,
      "v": 55
    },
    {
      "midi": 64,
      "hit": false,
      "t": 25915.479999999974,
      "d": 281.6899999999987,
      "v": 75
    },
    {
      "midi": 52,
      "hit": false,
      "t": 25915.479999999974,
      "d": 281.6899999999987,
      "v": 55
    },
    {
      "midi": 69,
      "hit": false,
      "t": 26197.169999999973,
      "d": 281.6899999999987,
      "v": 75
    },
    {
      "midi": 57,
      "hit": false,
      "t": 26197.169999999973,
      "d": 281.6899999999987,
      "v": 55
    },
    {
      "midi": 64,
      "hit": false,
      "t": 26478.85999999997,
      "d": 281.6899999999987,
      "v": 75
    },
    {
      "midi": 52,
      "hit": false,
      "t": 26478.85999999997,
      "d": 316.901249999999,
      "v": 55
    },
    {
      "midi": 60,
      "hit": false,
      "t": 26760.54999999997,
      "d": 316.901249999999,
      "v": 75
    },
    {
      "midi": 48,
      "hit": false,
      "t": 26795.76124999997,
      "d": 281.6899999999987,
      "v": 55
    },
    {
      "midi": 63,
      "hit": false,
      "t": 27077.45124999997,
      "d": 246.4787499999984,
      "v": 75
    },
    {
      "midi": 51,
      "hit": false,
      "t": 27077.45124999997,
      "d": 246.4787499999984,
      "v": 55
    },
    {
      "midi": 35,
      "hit": false,
      "t": 27077.45124999997,
      "d": 1654.9287499999919,
      "v": 65
    },
    {
      "midi": 47,
      "hit": false,
      "t": 27077.45124999997,
      "d": 1654.9287499999919,
      "v": 65
    },
    {
      "midi": 66,
      "hit": false,
      "t": 27323.929999999968,
      "d": 281.6899999999987,
      "v": 75
    },
    {
      "midi": 54,
      "hit": false,
      "t": 27323.929999999968,
      "d": 281.6899999999987,
      "v": 55
    },
    {
      "midi": 71,
      "hit": false,
      "t": 27605.619999999966,
      "d": 281.6899999999987,
      "v": 75
    },
    {
      "midi": 59,
      "hit": false,
      "t": 27605.619999999966,
      "d": 281.6899999999987,
      "v": 55
    },
    {
      "midi": 75,
      "hit": false,
      "t": 27887.309999999965,
      "d": 281.6899999999987,
      "v": 75
    },
    {
      "midi": 63,
      "hit": false,
      "t": 27887.309999999965,
      "d": 281.6899999999987,
      "v": 55
    },
    {
      "midi": 71,
      "hit": false,
      "t": 28168.999999999964,
      "d": 281.6899999999987,
      "v": 75
    },
    {
      "midi": 59,
      "hit": false,
      "t": 28168.999999999964,
      "d": 316.901249999999,
      "v": 55
    },
    {
      "midi": 66,
      "hit": false,
      "t": 28450.689999999962,
      "d": 281.6899999999987,
      "v": 75
    },
    {
      "midi": 54,
      "hit": false,
      "t": 28485.901249999963,
      "d": 281.6899999999987,
      "v": 55
    },
    {
      "midi": 47,
      "hit": false,
      "t": 28732.37999999996,
      "d": 2.2007031249995634,
      "v": 85
    },
    {
      "midi": 59,
      "hit": false,
      "t": 28732.37999999996,
      "d": 2.2007031249995634,
      "v": 85
    },
    {
      "midi": 47,
      "hit": false,
      "t": 28767.59124999996,
      "d": 246.4787499999984,
      "v": 65
    },
    {
      "midi": 35,
      "hit": false,
      "t": 28767.59124999996,
      "d": 1690.1399999999921,
      "v": 65
    },
    {
      "midi": 63,
      "hit": false,
      "t": 29014.06999999996,
      "d": 281.6899999999987,
      "v": 75
    },
    {
      "midi": 51,
      "hit": false,
      "t": 29014.06999999996,
      "d": 316.901249999999,
      "v": 55
    },
    {
      "midi": 66,
      "hit": false,
      "t": 29295.75999999996,
      "d": 281.6899999999987,
      "v": 75
    },
    {
      "midi": 54,
      "hit": false,
      "t": 29295.75999999996,
      "d": 316.901249999999,
      "v": 55
    },
    {
      "midi": 71,
      "hit": false,
      "t": 29577.449999999957,
      "d": 281.6899999999987,
      "v": 75
    },
    {
      "midi": 59,
      "hit": false,
      "t": 29577.449999999957,
      "d": 281.6899999999987,
      "v": 55
    },
    {
      "midi": 66,
      "hit": false,
      "t": 29859.139999999956,
      "d": 281.6899999999987,
      "v": 75
    },
    {
      "midi": 54,
      "hit": false,
      "t": 29859.139999999956,
      "d": 316.901249999999,
      "v": 55
    },
    {
      "midi": 63,
      "hit": false,
      "t": 30140.829999999954,
      "d": 316.901249999999,
      "v": 75
    },
    {
      "midi": 51,
      "hit": false,
      "t": 30176.041249999955,
      "d": 281.6899999999987,
      "v": 55
    },
    {
      "midi": 67,
      "hit": false,
      "t": 30457.731249999953,
      "d": 246.4787499999984,
      "v": 75
    },
    {
      "midi": 55,
      "hit": false,
      "t": 30457.731249999953,
      "d": 246.4787499999984,
      "v": 55
    },
    {
      "midi": 40,
      "hit": false,
      "t": 30457.731249999953,
      "d": 1654.9287499999919,
      "v": 65
    },
    {
      "midi": 24,
      "hit": false,
      "t": 30492.942500000005,
      "d": 352.1124999999993,
      "v": 64
    },
    {
      "midi": 71,
      "hit": false,
      "t": 30704.209999999952,
      "d": 281.6899999999987,
      "v": 75
    },
    {
      "midi": 59,
      "hit": false,
      "t": 30704.209999999952,
      "d": 281.6899999999987,
      "v": 55
    },
    {
      "midi": 76,
      "hit": false,
      "t": 30985.89999999995,
      "d": 281.6899999999987,
      "v": 75
    },
    {
      "midi": 64,
      "hit": false,
      "t": 30985.89999999995,
      "d": 281.6899999999987,
      "v": 55
    },
    {
      "midi": 79,
      "hit": false,
      "t": 31267.58999999995,
      "d": 281.6899999999987,
      "v": 75
    },
    {
      "midi": 67,
      "hit": false,
      "t": 31267.58999999995,
      "d": 281.6899999999987,
      "v": 55
    },
    {
      "midi": 76,
      "hit": false,
      "t": 31549.279999999948,
      "d": 281.6899999999987,
      "v": 75
    },
    {
      "midi": 64,
      "hit": false,
      "t": 31549.279999999948,
      "d": 281.6899999999987,
      "v": 55
    },
    {
      "midi": 71,
      "hit": false,
      "t": 31830.969999999947,
      "d": 281.6899999999987,
      "v": 75
    },
    {
      "midi": 59,
      "hit": false,
      "t": 31830.969999999947,
      "d": 316.901249999999,
      "v": 55
    },
    {
      "midi": 52,
      "hit": false,
      "t": 32112.659999999945,
      "d": 2.2007031249995634,
      "v": 85
    },
    {
      "midi": 64,
      "hit": false,
      "t": 32112.659999999945,
      "d": 2.2007031249995634,
      "v": 85
    },
    {
      "midi": 52,
      "hit": false,
      "t": 32112.659999999945,
      "d": 2.2007031249995634,
      "v": 65
    },
    {
      "midi": 40,
      "hit": false,
      "t": 32147.871249999946,
      "d": 3345.0687500000204,
      "v": 65
    },
    {
      "midi": 67,
      "hit": false,
      "t": 32394.349999999944,
      "d": 281.6899999999987,
      "v": 75
    },
    {
      "midi": 55,
      "hit": false,
      "t": 32394.349999999944,
      "d": 281.6899999999987,
      "v": 55
    },
    {
      "midi": 71,
      "hit": false,
      "t": 32676.039999999943,
      "d": 281.6900000000023,
      "v": 75
    },
    {
      "midi": 59,
      "hit": false,
      "t": 32676.039999999943,
      "d": 281.6900000000023,
      "v": 55
    },
    {
      "midi": 76,
      "hit": false,
      "t": 32957.729999999945,
      "d": 281.6900000000023,
      "v": 75
    },
    {
      "midi": 64,
      "hit": false,
      "t": 32957.729999999945,
      "d": 281.6900000000023,
      "v": 55
    },
    {
      "midi": 71,
      "hit": false,
      "t": 33239.41999999995,
      "d": 281.6900000000023,
      "v": 75
    },
    {
      "midi": 59,
      "hit": false,
      "t": 33239.41999999995,
      "d": 316.9012500000026,
      "v": 55
    },
    {
      "midi": 67,
      "hit": false,
      "t": 33521.10999999995,
      "d": 563.3800000000047,
      "v": 75
    },
    {
      "midi": 55,
      "hit": false,
      "t": 33521.10999999995,
      "d": 563.3800000000047,
      "v": 55
    },
    {
      "midi": 71,
      "hit": false,
      "t": 34084.489999999954,
      "d": 281.6900000000023,
      "v": 75
    },
    {
      "midi": 59,
      "hit": false,
      "t": 34084.489999999954,
      "d": 281.6900000000023,
      "v": 55
    },
    {
      "midi": 76,
      "hit": false,
      "t": 34366.17999999996,
      "d": 281.6900000000023,
      "v": 75
    },
    {
      "midi": 64,
      "hit": false,
      "t": 34366.17999999996,
      "d": 281.6900000000023,
      "v": 55
    },
    {
      "midi": 71,
      "hit": false,
      "t": 34366.18000000001,
      "d": 211.26750000000175,
      "v": 94
    },
    {
      "midi": 79,
      "hit": false,
      "t": 34647.86999999996,
      "d": 281.6900000000023,
      "v": 75
    },
    {
      "midi": 67,
      "hit": false,
      "t": 34647.86999999996,
      "d": 281.6900000000023,
      "v": 55
    },
    {
      "midi": 71,
      "hit": false,
      "t": 34647.87000000001,
      "d": 422.5350000000035,
      "v": 94
    },
    {
      "midi": 76,
      "hit": false,
      "t": 34929.55999999996,
      "d": 281.6900000000023,
      "v": 75
    },
    {
      "midi": 64,
      "hit": false,
      "t": 34929.55999999996,
      "d": 281.6900000000023,
      "v": 55
    },
    {
      "midi": 71,
      "hit": false,
      "t": 35211.24999999996,
      "d": 281.6900000000023,
      "v": 75
    },
    {
      "midi": 59,
      "hit": false,
      "t": 35211.24999999996,
      "d": 316.9012500000026,
      "v": 55
    },
    {
      "midi": 69,
      "hit": false,
      "t": 35246.461250000015,
      "d": 176.05625000000146,
      "v": 94
    },
    {
      "midi": 52,
      "hit": false,
      "t": 35492.939999999966,
      "d": 2.2007031250032014,
      "v": 85
    },
    {
      "midi": 64,
      "hit": false,
      "t": 35492.939999999966,
      "d": 2.2007031250032014,
      "v": 85
    },
    {
      "midi": 52,
      "hit": false,
      "t": 35492.939999999966,
      "d": 2.2007031250032014,
      "v": 65
    },
    {
      "midi": 40,
      "hit": false,
      "t": 35528.151249999966,
      "d": 1690.140000000014,
      "v": 65
    },
    {
      "midi": 71,
      "hit": false,
      "t": 35528.15125000002,
      "d": 774.6474999999991,
      "v": 94
    },
    {
      "midi": 67,
      "hit": false,
      "t": 35774.62999999997,
      "d": 281.6900000000023,
      "v": 75
    },
    {
      "midi": 55,
      "hit": false,
      "t": 35774.62999999997,
      "d": 281.6900000000023,
      "v": 55
    },
    {
      "midi": 71,
      "hit": false,
      "t": 36056.31999999997,
      "d": 281.6900000000023,
      "v": 75
    },
    {
      "midi": 59,
      "hit": false,
      "t": 36056.31999999997,
      "d": 281.6900000000023,
      "v": 55
    },
    {
      "midi": 76,
      "hit": false,
      "t": 36338.00999999997,
      "d": 281.6900000000023,
      "v": 75
    },
    {
      "midi": 64,
      "hit": false,
      "t": 36338.00999999997,
      "d": 281.6900000000023,
      "v": 55
    },
    {
      "midi": 71,
      "hit": false,
      "t": 36619.699999999975,
      "d": 281.6900000000023,
      "v": 75
    },
    {
      "midi": 59,
      "hit": false,
      "t": 36619.699999999975,
      "d": 281.6900000000023,
      "v": 55
    },
    {
      "midi": 64,
      "hit": false,
      "t": 36619.70000000002,
      "d": 211.26750000000175,
      "v": 94
    },
    {
      "midi": 67,
      "hit": false,
      "t": 36901.38999999998,
      "d": 316.9012500000026,
      "v": 75
    },
    {
      "midi": 55,
      "hit": false,
      "t": 36901.38999999998,
      "d": 316.9012500000026,
      "v": 55
    },
    {
      "midi": 67,
      "hit": false,
      "t": 36936.60125000002,
      "d": 176.05625000000146,
      "v": 94
    },
    {
      "midi": 60,
      "hit": false,
      "t": 37218.29124999998,
      "d": 246.47875000000204,
      "v": 75
    },
    {
      "midi": 48,
      "hit": false,
      "t": 37218.29124999998,
      "d": 246.47875000000204,
      "v": 55
    },
    {
      "midi": 33,
      "hit": false,
      "t": 37218.29124999998,
      "d": 1654.9287500000137,
      "v": 65
    },
    {
      "midi": 69,
      "hit": false,
      "t": 37218.291250000024,
      "d": 387.3237500000032,
      "v": 94
    },
    {
      "midi": 64,
      "hit": false,
      "t": 37464.76999999998,
      "d": 281.6900000000023,
      "v": 75
    },
    {
      "midi": 52,
      "hit": false,
      "t": 37464.76999999998,
      "d": 281.6900000000023,
      "v": 55
    },
    {
      "midi": 69,
      "hit": false,
      "t": 37746.459999999985,
      "d": 281.6900000000023,
      "v": 75
    },
    {
      "midi": 57,
      "hit": false,
      "t": 37746.459999999985,
      "d": 281.6900000000023,
      "v": 55
    },
    {
      "midi": 69,
      "hit": false,
      "t": 37746.46000000003,
      "d": 633.802499999998,
      "v": 94
    },
    {
      "midi": 72,
      "hit": false,
      "t": 38028.14999999999,
      "d": 281.6900000000023,
      "v": 75
    },
    {
      "midi": 60,
      "hit": false,
      "t": 38028.14999999999,
      "d": 281.6900000000023,
      "v": 55
    },
    {
      "midi": 69,
      "hit": false,
      "t": 38309.83999999999,
      "d": 281.6900000000023,
      "v": 75
    },
    {
      "midi": 57,
      "hit": false,
      "t": 38309.83999999999,
      "d": 281.6900000000023,
      "v": 55
    },
    {
      "midi": 64,
      "hit": false,
      "t": 38591.52999999999,
      "d": 281.6900000000023,
      "v": 75
    },
    {
      "midi": 52,
      "hit": false,
      "t": 38591.52999999999,
      "d": 316.9012500000026,
      "v": 55
    },
    {
      "midi": 71,
      "hit": false,
      "t": 38626.74125000003,
      "d": 176.05625000000146,
      "v": 94
    },
    {
      "midi": 45,
      "hit": false,
      "t": 38873.219999999994,
      "d": 2.2007031250032014,
      "v": 85
    },
    {
      "midi": 57,
      "hit": false,
      "t": 38873.219999999994,
      "d": 2.2007031250032014,
      "v": 85
    },
    {
      "midi": 45,
      "hit": false,
      "t": 38873.219999999994,
      "d": 2.2007031250032014,
      "v": 65
    },
    {
      "midi": 33,
      "hit": false,
      "t": 38908.431249999994,
      "d": 1690.140000000014,
      "v": 65
    },
    {
      "midi": 69,
      "hit": false,
      "t": 38908.43125000003,
      "d": 1549.2949999999983,
      "v": 94
    },
    {
      "midi": 60,
      "hit": false,
      "t": 39154.909999999996,
      "d": 281.6900000000023,
      "v": 75
    },
    {
      "midi": 48,
      "hit": false,
      "t": 39154.909999999996,
      "d": 281.6900000000023,
      "v": 55
    },
    {
      "midi": 64,
      "hit": false,
      "t": 39436.6,
      "d": 281.6900000000023,
      "v": 75
    },
    {
      "midi": 52,
      "hit": false,
      "t": 39436.6,
      "d": 281.6900000000023,
      "v": 55
    },
    {
      "midi": 69,
      "hit": false,
      "t": 39718.29,
      "d": 281.6900000000023,
      "v": 75
    },
    {
      "midi": 57,
      "hit": false,
      "t": 39718.29,
      "d": 281.6900000000023,
      "v": 55
    },
    {
      "midi": 64,
      "hit": false,
      "t": 39999.98,
      "d": 281.6900000000023,
      "v": 75
    },
    {
      "midi": 52,
      "hit": false,
      "t": 39999.98,
      "d": 281.6900000000023,
      "v": 55
    },
    {
      "midi": 60,
      "hit": false,
      "t": 40281.670000000006,
      "d": 316.9012500000026,
      "v": 75
    },
    {
      "midi": 48,
      "hit": false,
      "t": 40281.670000000006,
      "d": 316.9012500000026,
      "v": 55
    },
    {
      "midi": 59,
      "hit": false,
      "t": 40598.57125000001,
      "d": 246.47875000000204,
      "v": 75
    },
    {
      "midi": 47,
      "hit": false,
      "t": 40598.57125000001,
      "d": 246.47875000000204,
      "v": 55
    },
    {
      "midi": 31,
      "hit": false,
      "t": 40598.57125000001,
      "d": 1654.9287500000137,
      "v": 65
    },
    {
      "midi": 62,
      "hit": false,
      "t": 40845.05000000001,
      "d": 281.6900000000023,
      "v": 75
    },
    {
      "midi": 50,
      "hit": false,
      "t": 40845.05000000001,
      "d": 281.6900000000023,
      "v": 55
    },
    {
      "midi": 67,
      "hit": false,
      "t": 41126.74000000001,
      "d": 281.6900000000023,
      "v": 75
    },
    {
      "midi": 55,
      "hit": false,
      "t": 41126.74000000001,
      "d": 281.6900000000023,
      "v": 55
    },
    {
      "midi": 67,
      "hit": false,
      "t": 41126.74000000003,
      "d": 211.26750000000175,
      "v": 94
    },
    {
      "midi": 71,
      "hit": false,
      "t": 41408.430000000015,
      "d": 281.6900000000023,
      "v": 75
    },
    {
      "midi": 59,
      "hit": false,
      "t": 41408.430000000015,
      "d": 281.6900000000023,
      "v": 55
    },
    {
      "midi": 67,
      "hit": false,
      "t": 41408.43000000003,
      "d": 422.5350000000035,
      "v": 94
    },
    {
      "midi": 67,
      "hit": false,
      "t": 41690.12000000002,
      "d": 281.6900000000023,
      "v": 75
    },
    {
      "midi": 55,
      "hit": false,
      "t": 41690.12000000002,
      "d": 281.6900000000023,
      "v": 55
    },
    {
      "midi": 62,
      "hit": false,
      "t": 41971.81000000002,
      "d": 281.6900000000023,
      "v": 75
    },
    {
      "midi": 50,
      "hit": false,
      "t": 41971.81000000002,
      "d": 316.9012500000026,
      "v": 55
    },
    {
      "midi": 67,
      "hit": false,
      "t": 42007.021250000034,
      "d": 176.05625000000146,
      "v": 94
    },
    {
      "midi": 43,
      "hit": false,
      "t": 42253.50000000002,
      "d": 2.2007031250032014,
      "v": 85
    },
    {
      "midi": 55,
      "hit": false,
      "t": 42253.50000000002,
      "d": 2.2007031250032014,
      "v": 85
    },
    {
      "midi": 43,
      "hit": false,
      "t": 42253.50000000002,
      "d": 2.2007031250032014,
      "v": 65
    },
    {
      "midi": 31,
      "hit": false,
      "t": 42288.71125000002,
      "d": 1690.140000000014,
      "v": 65
    },
    {
      "midi": 67,
      "hit": false,
      "t": 42288.71125000004,
      "d": 774.6474999999991,
      "v": 94
    },
    {
      "midi": 59,
      "hit": false,
      "t": 42535.190000000024,
      "d": 281.6900000000023,
      "v": 75
    },
    {
      "midi": 47,
      "hit": false,
      "t": 42535.190000000024,
      "d": 281.6900000000023,
      "v": 55
    },
    {
      "midi": 62,
      "hit": false,
      "t": 42816.88000000003,
      "d": 281.6900000000023,
      "v": 75
    },
    {
      "midi": 50,
      "hit": false,
      "t": 42816.88000000003,
      "d": 281.6900000000023,
      "v": 55
    },
    {
      "midi": 67,
      "hit": false,
      "t": 43098.57000000003,
      "d": 281.6900000000023,
      "v": 75
    },
    {
      "midi": 55,
      "hit": false,
      "t": 43098.57000000003,
      "d": 281.6900000000023,
      "v": 55
    },
    {
      "midi": 67,
      "hit": false,
      "t": 43098.570000000036,
      "d": 211.26750000000175,
      "v": 94
    },
    {
      "midi": 62,
      "hit": false,
      "t": 43380.26000000003,
      "d": 281.6900000000023,
      "v": 75
    },
    {
      "midi": 50,
      "hit": false,
      "t": 43380.26000000003,
      "d": 281.6900000000023,
      "v": 55
    },
    {
      "midi": 69,
      "hit": false,
      "t": 43380.26000000004,
      "d": 211.26750000000175,
      "v": 94
    },
    {
      "midi": 71,
      "hit": false,
      "t": 43697.16125000004,
      "d": 176.05625000000146,
      "v": 94
    },
    {
      "midi": 63,
      "hit": false,
      "t": 43978.851250000036,
      "d": 246.47875000000204,
      "v": 75
    },
    {
      "midi": 51,
      "hit": false,
      "t": 43978.851250000036,
      "d": 246.47875000000204,
      "v": 55
    },
    {
      "midi": 71,
      "hit": false,
      "t": 43978.85125000004,
      "d": 3309.8574999999983,
      "v": 94
    },
    {
      "midi": 66,
      "hit": false,
      "t": 44225.33000000004,
      "d": 281.6900000000023,
      "v": 75
    },
    {
      "midi": 54,
      "hit": false,
      "t": 44225.33000000004,
      "d": 281.6900000000023,
      "v": 55
    },
    {
      "midi": 71,
      "hit": false,
      "t": 44507.02000000004,
      "d": 281.6900000000023,
      "v": 75
    },
    {
      "midi": 59,
      "hit": false,
      "t": 44507.02000000004,
      "d": 281.6900000000023,
      "v": 55
    },
    {
      "midi": 75,
      "hit": false,
      "t": 44788.71000000004,
      "d": 281.6900000000023,
      "v": 75
    },
    {
      "midi": 63,
      "hit": false,
      "t": 44788.71000000004,
      "d": 281.6900000000023,
      "v": 55
    },
    {
      "midi": 71,
      "hit": false,
      "t": 45070.400000000045,
      "d": 281.6900000000023,
      "v": 75
    },
    {
      "midi": 59,
      "hit": false,
      "t": 45070.400000000045,
      "d": 281.6900000000023,
      "v": 55
    },
    {
      "midi": 66,
      "hit": false,
      "t": 45352.09000000005,
      "d": 281.6900000000023,
      "v": 75
    },
    {
      "midi": 54,
      "hit": false,
      "t": 45352.09000000005,
      "d": 316.9012500000026,
      "v": 55
    },
    {
      "midi": 47,
      "hit": false,
      "t": 45633.78000000005,
      "d": 2.2007031250032014,
      "v": 85
    },
    {
      "midi": 59,
      "hit": false,
      "t": 45633.78000000005,
      "d": 2.2007031250032014,
      "v": 85
    },
    {
      "midi": 35,
      "hit": false,
      "t": 45633.78000000005,
      "d": 2.2007031250032014,
      "v": 65
    },
    {
      "midi": 47,
      "hit": false,
      "t": 45633.78000000005,
      "d": 2.2007031250032014,
      "v": 65
    },
    {
      "midi": 63,
      "hit": false,
      "t": 45915.47000000005,
      "d": 281.6900000000023,
      "v": 75
    },
    {
      "midi": 51,
      "hit": false,
      "t": 45915.47000000005,
      "d": 281.6900000000023,
      "v": 55
    },
    {
      "midi": 66,
      "hit": false,
      "t": 46197.160000000054,
      "d": 281.6900000000023,
      "v": 75
    },
    {
      "midi": 54,
      "hit": false,
      "t": 46197.160000000054,
      "d": 281.6900000000023,
      "v": 55
    },
    {
      "midi": 71,
      "hit": false,
      "t": 46478.85000000006,
      "d": 281.6900000000023,
      "v": 75
    },
    {
      "midi": 59,
      "hit": false,
      "t": 46478.85000000006,
      "d": 281.6900000000023,
      "v": 55
    },
    {
      "midi": 66,
      "hit": false,
      "t": 46760.54000000006,
      "d": 281.6900000000023,
      "v": 75
    },
    {
      "midi": 54,
      "hit": false,
      "t": 46760.54000000006,
      "d": 281.6900000000023,
      "v": 55
    },
    {
      "midi": 63,
      "hit": false,
      "t": 47042.23000000006,
      "d": 316.9012500000026,
      "v": 75
    },
    {
      "midi": 51,
      "hit": false,
      "t": 47042.23000000006,
      "d": 316.9012500000026,
      "v": 55
    },
    {
      "midi": 67,
      "hit": false,
      "t": 47359.131250000064,
      "d": 246.47875000000204,
      "v": 75
    },
    {
      "midi": 55,
      "hit": false,
      "t": 47359.131250000064,
      "d": 246.47875000000204,
      "v": 55
    },
    {
      "midi": 40,
      "hit": false,
      "t": 47359.131250000064,
      "d": 1654.9287500000137,
      "v": 65
    },
    {
      "midi": 71,
      "hit": false,
      "t": 47605.610000000066,
      "d": 281.6900000000023,
      "v": 75
    },
    {
      "midi": 59,
      "hit": false,
      "t": 47605.610000000066,
      "d": 281.6900000000023,
      "v": 55
    },
    {
      "midi": 71,
      "hit": false,
      "t": 47887.30000000004,
      "d": 211.26750000000175,
      "v": 94
    },
    {
      "midi": 76,
      "hit": false,
      "t": 47887.30000000007,
      "d": 281.6900000000023,
      "v": 75
    },
    {
      "midi": 64,
      "hit": false,
      "t": 47887.30000000007,
      "d": 281.6900000000023,
      "v": 55
    },
    {
      "midi": 71,
      "hit": false,
      "t": 48168.99000000004,
      "d": 422.5350000000035,
      "v": 94
    },
    {
      "midi": 79,
      "hit": false,
      "t": 48168.99000000007,
      "d": 281.6900000000023,
      "v": 75
    },
    {
      "midi": 67,
      "hit": false,
      "t": 48168.99000000007,
      "d": 281.6900000000023,
      "v": 55
    },
    {
      "midi": 76,
      "hit": false,
      "t": 48450.68000000007,
      "d": 281.6900000000023,
      "v": 75
    },
    {
      "midi": 64,
      "hit": false,
      "t": 48450.68000000007,
      "d": 281.6900000000023,
      "v": 55
    },
    {
      "midi": 71,
      "hit": false,
      "t": 48732.370000000075,
      "d": 281.6900000000023,
      "v": 75
    },
    {
      "midi": 59,
      "hit": false,
      "t": 48732.370000000075,
      "d": 316.9012500000026,
      "v": 55
    },
    {
      "midi": 69,
      "hit": false,
      "t": 48767.58125000005,
      "d": 176.05625000000146,
      "v": 94
    },
    {
      "midi": 52,
      "hit": false,
      "t": 49014.06000000008,
      "d": 2.2007031250032014,
      "v": 85
    },
    {
      "midi": 64,
      "hit": false,
      "t": 49014.06000000008,
      "d": 2.2007031250032014,
      "v": 85
    },
    {
      "midi": 52,
      "hit": false,
      "t": 49014.06000000008,
      "d": 2.2007031250032014,
      "v": 65
    },
    {
      "midi": 71,
      "hit": false,
      "t": 49049.27125000005,
      "d": 774.6474999999991,
      "v": 94
    },
    {
      "midi": 40,
      "hit": false,
      "t": 49049.27125000008,
      "d": 3345.0687500000276,
      "v": 65
    },
    {
      "midi": 67,
      "hit": false,
      "t": 49295.75000000008,
      "d": 281.6900000000023,
      "v": 75
    },
    {
      "midi": 55,
      "hit": false,
      "t": 49295.75000000008,
      "d": 281.6900000000023,
      "v": 55
    },
    {
      "midi": 71,
      "hit": false,
      "t": 49577.44000000008,
      "d": 281.6900000000023,
      "v": 75
    },
    {
      "midi": 59,
      "hit": false,
      "t": 49577.44000000008,
      "d": 281.6900000000023,
      "v": 55
    },
    {
      "midi": 76,
      "hit": false,
      "t": 49859.130000000085,
      "d": 281.6900000000023,
      "v": 75
    },
    {
      "midi": 64,
      "hit": false,
      "t": 49859.130000000085,
      "d": 281.6900000000023,
      "v": 55
    },
    {
      "midi": 64,
      "hit": false,
      "t": 50140.82000000005,
      "d": 211.26750000000175,
      "v": 94
    },
    {
      "midi": 71,
      "hit": false,
      "t": 50140.82000000009,
      "d": 281.6900000000023,
      "v": 75
    },
    {
      "midi": 59,
      "hit": false,
      "t": 50140.82000000009,
      "d": 281.6900000000023,
      "v": 55
    },
    {
      "midi": 67,
      "hit": false,
      "t": 50422.51000000009,
      "d": 563.3800000000047,
      "v": 75
    },
    {
      "midi": 55,
      "hit": false,
      "t": 50422.51000000009,
      "d": 563.3800000000047,
      "v": 55
    },
    {
      "midi": 67,
      "hit": false,
      "t": 50457.72125000005,
      "d": 176.05625000000146,
      "v": 94
    },
    {
      "midi": 64,
      "hit": false,
      "t": 50704.20000000009,
      "d": 1690.140000000014,
      "v": 85
    },
    {
      "midi": 52,
      "hit": false,
      "t": 50704.20000000009,
      "d": 1690.140000000014,
      "v": 65
    },
    {
      "midi": 71,
      "hit": false,
      "t": 50739.411250000056,
      "d": 387.3237500000032,
      "v": 94
    },
    {
      "midi": 71,
      "hit": false,
      "t": 50985.890000000094,
      "d": 281.6900000000023,
      "v": 75
    },
    {
      "midi": 59,
      "hit": false,
      "t": 50985.890000000094,
      "d": 281.6900000000023,
      "v": 55
    },
    {
      "midi": 71,
      "hit": false,
      "t": 51267.58000000006,
      "d": 633.802499999998,
      "v": 94
    },
    {
      "midi": 76,
      "hit": false,
      "t": 51267.580000000096,
      "d": 281.6900000000023,
      "v": 75
    },
    {
      "midi": 64,
      "hit": false,
      "t": 51267.580000000096,
      "d": 281.6900000000023,
      "v": 55
    },
    {
      "midi": 79,
      "hit": false,
      "t": 51549.2700000001,
      "d": 281.6900000000023,
      "v": 75
    },
    {
      "midi": 67,
      "hit": false,
      "t": 51549.2700000001,
      "d": 281.6900000000023,
      "v": 55
    },
    {
      "midi": 76,
      "hit": false,
      "t": 51830.9600000001,
      "d": 281.6900000000023,
      "v": 75
    },
    {
      "midi": 64,
      "hit": false,
      "t": 51830.9600000001,
      "d": 281.6900000000023,
      "v": 55
    },
    {
      "midi": 71,
      "hit": false,
      "t": 52112.6500000001,
      "d": 316.9012500000026,
      "v": 75
    },
    {
      "midi": 59,
      "hit": false,
      "t": 52112.6500000001,
      "d": 316.9012500000026,
      "v": 55
    },
    {
      "midi": 74,
      "hit": false,
      "t": 52147.86125000006,
      "d": 176.05625000000146,
      "v": 94
    },
    {
      "midi": 57,
      "hit": false,
      "t": 52394.340000000106,
      "d": 281.6900000000023,
      "v": 85
    },
    {
      "midi": 72,
      "hit": false,
      "t": 52429.55125000006,
      "d": 1549.2949999999983,
      "v": 94
    },
    {
      "midi": 45,
      "hit": false,
      "t": 52429.551250000106,
      "d": 1690.140000000014,
      "v": 85
    },
    {
      "midi": 45,
      "hit": false,
      "t": 52429.551250000106,
      "d": 246.47875000000204,
      "v": 65
    },
    {
      "midi": 33,
      "hit": false,
      "t": 52429.551250000106,
      "d": 1690.140000000014,
      "v": 65
    },
    {
      "midi": 60,
      "hit": false,
      "t": 52676.03000000011,
      "d": 281.6900000000023,
      "v": 75
    },
    {
      "midi": 48,
      "hit": false,
      "t": 52676.03000000011,
      "d": 281.6900000000023,
      "v": 55
    },
    {
      "midi": 64,
      "hit": false,
      "t": 52957.72000000011,
      "d": 281.6900000000023,
      "v": 75
    },
    {
      "midi": 52,
      "hit": false,
      "t": 52957.72000000011,
      "d": 281.6900000000023,
      "v": 55
    },
    {
      "midi": 69,
      "hit": false,
      "t": 53239.41000000011,
      "d": 281.6900000000023,
      "v": 75
    },
    {
      "midi": 57,
      "hit": false,
      "t": 53239.41000000011,
      "d": 281.6900000000023,
      "v": 55
    },
    {
      "midi": 64,
      "hit": false,
      "t": 53521.100000000115,
      "d": 281.6900000000023,
      "v": 75
    },
    {
      "midi": 52,
      "hit": false,
      "t": 53521.100000000115,
      "d": 281.6900000000023,
      "v": 55
    },
    {
      "midi": 60,
      "hit": false,
      "t": 53802.79000000012,
      "d": 316.9012500000026,
      "v": 75
    },
    {
      "midi": 48,
      "hit": false,
      "t": 53802.79000000012,
      "d": 316.9012500000026,
      "v": 55
    },
    {
      "midi": 50,
      "hit": false,
      "t": 54084.48000000012,
      "d": 1690.140000000014,
      "v": 85
    },
    {
      "midi": 62,
      "hit": false,
      "t": 54084.48000000012,
      "d": 1690.140000000014,
      "v": 85
    },
    {
      "midi": 66,
      "hit": false,
      "t": 54119.69125000012,
      "d": 246.47875000000204,
      "v": 75
    },
    {
      "midi": 54,
      "hit": false,
      "t": 54119.69125000012,
      "d": 246.47875000000204,
      "v": 55
    },
    {
      "midi": 38,
      "hit": false,
      "t": 54119.69125000012,
      "d": 1654.9287500000137,
      "v": 65
    },
    {
      "midi": 50,
      "hit": false,
      "t": 54119.69125000012,
      "d": 1654.9287500000137,
      "v": 65
    },
    {
      "midi": 69,
      "hit": false,
      "t": 54366.17000000012,
      "d": 281.6900000000023,
      "v": 75
    },
    {
      "midi": 57,
      "hit": false,
      "t": 54366.17000000012,
      "d": 281.6900000000023,
      "v": 55
    },
    {
      "midi": 69,
      "hit": false,
      "t": 54647.86000000006,
      "d": 211.26750000000175,
      "v": 94
    },
    {
      "midi": 74,
      "hit": false,
      "t": 54647.860000000124,
      "d": 281.6900000000023,
      "v": 75
    },
    {
      "midi": 62,
      "hit": false,
      "t": 54647.860000000124,
      "d": 281.6900000000023,
      "v": 55
    },
    {
      "midi": 69,
      "hit": false,
      "t": 54929.55000000006,
      "d": 422.5350000000035,
      "v": 94
    },
    {
      "midi": 78,
      "hit": false,
      "t": 54929.55000000013,
      "d": 281.6900000000023,
      "v": 75
    },
    {
      "midi": 66,
      "hit": false,
      "t": 54929.55000000013,
      "d": 281.6900000000023,
      "v": 55
    },
    {
      "midi": 74,
      "hit": false,
      "t": 55211.24000000013,
      "d": 281.6900000000023,
      "v": 75
    },
    {
      "midi": 62,
      "hit": false,
      "t": 55211.24000000013,
      "d": 281.6900000000023,
      "v": 55
    },
    {
      "midi": 69,
      "hit": false,
      "t": 55492.93000000013,
      "d": 316.9012500000026,
      "v": 75
    },
    {
      "midi": 57,
      "hit": false,
      "t": 55492.93000000013,
      "d": 316.9012500000026,
      "v": 55
    },
    {
      "midi": 69,
      "hit": false,
      "t": 55528.141250000066,
      "d": 176.05625000000146,
      "v": 94
    },
    {
      "midi": 59,
      "hit": false,
      "t": 55774.62000000013,
      "d": 281.6900000000023,
      "v": 85
    },
    {
      "midi": 69,
      "hit": false,
      "t": 55809.83125000007,
      "d": 774.6474999999991,
      "v": 94
    },
    {
      "midi": 47,
      "hit": false,
      "t": 55809.831250000134,
      "d": 1690.140000000014,
      "v": 85
    },
    {
      "midi": 47,
      "hit": false,
      "t": 55809.831250000134,
      "d": 246.47875000000204,
      "v": 65
    },
    {
      "midi": 35,
      "hit": false,
      "t": 55809.831250000134,
      "d": 1690.140000000014,
      "v": 65
    },
    {
      "midi": 63,
      "hit": false,
      "t": 56056.310000000136,
      "d": 281.6900000000023,
      "v": 75
    },
    {
      "midi": 51,
      "hit": false,
      "t": 56056.310000000136,
      "d": 281.6900000000023,
      "v": 55
    },
    {
      "midi": 66,
      "hit": false,
      "t": 56338.00000000014,
      "d": 281.6900000000023,
      "v": 75
    },
    {
      "midi": 54,
      "hit": false,
      "t": 56338.00000000014,
      "d": 281.6900000000023,
      "v": 55
    },
    {
      "midi": 67,
      "hit": false,
      "t": 56619.69000000007,
      "d": 211.26750000000175,
      "v": 94
    },
    {
      "midi": 71,
      "hit": false,
      "t": 56619.69000000014,
      "d": 281.6900000000023,
      "v": 75
    },
    {
      "midi": 59,
      "hit": false,
      "t": 56619.69000000014,
      "d": 281.6900000000023,
      "v": 55
    },
    {
      "midi": 67,
      "hit": false,
      "t": 56901.38000000007,
      "d": 211.26750000000175,
      "v": 94
    },
    {
      "midi": 66,
      "hit": false,
      "t": 56901.38000000014,
      "d": 281.6900000000023,
      "v": 75
    },
    {
      "midi": 54,
      "hit": false,
      "t": 56901.38000000014,
      "d": 281.6900000000023,
      "v": 55
    },
    {
      "midi": 63,
      "hit": false,
      "t": 57183.070000000145,
      "d": 316.9012500000026,
      "v": 75
    },
    {
      "midi": 51,
      "hit": false,
      "t": 57183.070000000145,
      "d": 316.9012500000026,
      "v": 55
    },
    {
      "midi": 66,
      "hit": false,
      "t": 57218.28125000007,
      "d": 176.05625000000146,
      "v": 94
    },
    {
      "midi": 64,
      "hit": false,
      "t": 57499.971250000075,
      "d": 3309.8574999999983,
      "v": 94
    },
    {
      "midi": 67,
      "hit": false,
      "t": 57499.97125000015,
      "d": 246.47875000000204,
      "v": 75
    },
    {
      "midi": 55,
      "hit": false,
      "t": 57499.97125000015,
      "d": 246.47875000000204,
      "v": 55
    },
    {
      "midi": 40,
      "hit": false,
      "t": 57499.97125000015,
      "d": 1654.9287500000137,
      "v": 65
    },
    {
      "midi": 71,
      "hit": false,
      "t": 57746.45000000015,
      "d": 281.6900000000023,
      "v": 75
    },
    {
      "midi": 59,
      "hit": false,
      "t": 57746.45000000015,
      "d": 281.6900000000023,
      "v": 55
    },
    {
      "midi": 76,
      "hit": false,
      "t": 58028.14000000015,
      "d": 281.6900000000023,
      "v": 75
    },
    {
      "midi": 64,
      "hit": false,
      "t": 58028.14000000015,
      "d": 281.6900000000023,
      "v": 55
    },
    {
      "midi": 79,
      "hit": false,
      "t": 58309.830000000155,
      "d": 281.6900000000023,
      "v": 75
    },
    {
      "midi": 67,
      "hit": false,
      "t": 58309.830000000155,
      "d": 281.6900000000023,
      "v": 55
    },
    {
      "midi": 76,
      "hit": false,
      "t": 58591.52000000016,
      "d": 281.6900000000023,
      "v": 75
    },
    {
      "midi": 64,
      "hit": false,
      "t": 58591.52000000016,
      "d": 281.6900000000023,
      "v": 55
    },
    {
      "midi": 71,
      "hit": false,
      "t": 58873.21000000016,
      "d": 281.6900000000023,
      "v": 75
    },
    {
      "midi": 59,
      "hit": false,
      "t": 58873.21000000016,
      "d": 316.9012500000026,
      "v": 55
    },
    {
      "midi": 52,
      "hit": false,
      "t": 59154.90000000016,
      "d": 2.2007031250032014,
      "v": 85
    },
    {
      "midi": 64,
      "hit": false,
      "t": 59154.90000000016,
      "d": 2.2007031250032014,
      "v": 85
    },
    {
      "midi": 52,
      "hit": false,
      "t": 59154.90000000016,
      "d": 2.2007031250032014,
      "v": 65
    },
    {
      "midi": 40,
      "hit": false,
      "t": 59190.11125000016,
      "d": 3345.0687500000276,
      "v": 65
    },
    {
      "midi": 67,
      "hit": false,
      "t": 59436.590000000164,
      "d": 281.6900000000023,
      "v": 75
    },
    {
      "midi": 55,
      "hit": false,
      "t": 59436.590000000164,
      "d": 281.6900000000023,
      "v": 55
    },
    {
      "midi": 71,
      "hit": false,
      "t": 59718.280000000166,
      "d": 281.6900000000023,
      "v": 75
    },
    {
      "midi": 59,
      "hit": false,
      "t": 59718.280000000166,
      "d": 281.6900000000023,
      "v": 55
    },
    {
      "midi": 76,
      "hit": false,
      "t": 59999.97000000017,
      "d": 281.6900000000023,
      "v": 75
    },
    {
      "midi": 64,
      "hit": false,
      "t": 59999.97000000017,
      "d": 281.6900000000023,
      "v": 55
    },
    {
      "midi": 71,
      "hit": false,
      "t": 60281.66000000017,
      "d": 281.6900000000023,
      "v": 75
    },
    {
      "midi": 59,
      "hit": false,
      "t": 60281.66000000017,
      "d": 281.6900000000023,
      "v": 55
    },
    {
      "midi": 67,
      "hit": false,
      "t": 60563.35000000017,
      "d": 563.3800000000047,
      "v": 75
    },
    {
      "midi": 55,
      "hit": false,
      "t": 60563.35000000017,
      "d": 563.3800000000047,
      "v": 55
    },
    {
      "midi": 71,
      "hit": false,
      "t": 61126.73000000018,
      "d": 281.6900000000023,
      "v": 75
    },
    {
      "midi": 59,
      "hit": false,
      "t": 61126.73000000018,
      "d": 281.6900000000023,
      "v": 55
    },
    {
      "midi": 71,
      "hit": false,
      "t": 61408.42000000007,
      "d": 211.26750000000175,
      "v": 94
    },
    {
      "midi": 76,
      "hit": false,
      "t": 61408.42000000018,
      "d": 281.6900000000023,
      "v": 75
    },
    {
      "midi": 64,
      "hit": false,
      "t": 61408.42000000018,
      "d": 281.6900000000023,
      "v": 55
    },
    {
      "midi": 71,
      "hit": false,
      "t": 61690.11000000007,
      "d": 422.5350000000035,
      "v": 94
    },
    {
      "midi": 79,
      "hit": false,
      "t": 61690.11000000018,
      "d": 281.6900000000023,
      "v": 75
    },
    {
      "midi": 67,
      "hit": false,
      "t": 61690.11000000018,
      "d": 281.6900000000023,
      "v": 55
    },
    {
      "midi": 76,
      "hit": false,
      "t": 61971.800000000185,
      "d": 281.6900000000023,
      "v": 75
    },
    {
      "midi": 64,
      "hit": false,
      "t": 61971.800000000185,
      "d": 281.6900000000023,
      "v": 55
    },
    {
      "midi": 71,
      "hit": false,
      "t": 62253.49000000019,
      "d": 281.6900000000023,
      "v": 75
    },
    {
      "midi": 59,
      "hit": false,
      "t": 62253.49000000019,
      "d": 316.9012500000026,
      "v": 55
    },
    {
      "midi": 69,
      "hit": false,
      "t": 62288.70125000008,
      "d": 176.05625000000146,
      "v": 94
    },
    {
      "midi": 52,
      "hit": false,
      "t": 62535.18000000019,
      "d": 2.2007031250032014,
      "v": 85
    },
    {
      "midi": 64,
      "hit": false,
      "t": 62535.18000000019,
      "d": 2.2007031250032014,
      "v": 85
    },
    {
      "midi": 52,
      "hit": false,
      "t": 62535.18000000019,
      "d": 2.2007031250032014,
      "v": 65
    },
    {
      "midi": 71,
      "hit": false,
      "t": 62570.39125000008,
      "d": 774.6474999999991,
      "v": 94
    },
    {
      "midi": 40,
      "hit": false,
      "t": 62570.39125000019,
      "d": 1690.140000000014,
      "v": 65
    },
    {
      "midi": 67,
      "hit": false,
      "t": 62816.87000000019,
      "d": 281.6900000000023,
      "v": 75
    },
    {
      "midi": 55,
      "hit": false,
      "t": 62816.87000000019,
      "d": 281.6900000000023,
      "v": 55
    },
    {
      "midi": 71,
      "hit": false,
      "t": 63098.560000000194,
      "d": 281.6900000000023,
      "v": 75
    },
    {
      "midi": 59,
      "hit": false,
      "t": 63098.560000000194,
      "d": 281.6900000000023,
      "v": 55
    },
    {
      "midi": 76,
      "hit": false,
      "t": 63380.2500000002,
      "d": 281.6900000000023,
      "v": 75
    },
    {
      "midi": 64,
      "hit": false,
      "t": 63380.2500000002,
      "d": 281.6900000000023,
      "v": 55
    },
    {
      "midi": 64,
      "hit": false,
      "t": 63661.94000000008,
      "d": 211.26750000000175,
      "v": 94
    },
    {
      "midi": 71,
      "hit": false,
      "t": 63661.9400000002,
      "d": 281.6900000000023,
      "v": 75
    },
    {
      "midi": 59,
      "hit": false,
      "t": 63661.9400000002,
      "d": 281.6900000000023,
      "v": 55
    },
    {
      "midi": 67,
      "hit": false,
      "t": 63943.6300000002,
      "d": 316.9012500000026,
      "v": 75
    },
    {
      "midi": 55,
      "hit": false,
      "t": 63943.6300000002,
      "d": 316.9012500000026,
      "v": 55
    },
    {
      "midi": 67,
      "hit": false,
      "t": 63978.841250000085,
      "d": 176.05625000000146,
      "v": 94
    },
    {
      "midi": 69,
      "hit": false,
      "t": 64260.53125000009,
      "d": 387.3237500000032,
      "v": 94
    },
    {
      "midi": 60,
      "hit": false,
      "t": 64260.531250000204,
      "d": 246.47875000000204,
      "v": 75
    },
    {
      "midi": 48,
      "hit": false,
      "t": 64260.531250000204,
      "d": 246.47875000000204,
      "v": 55
    },
    {
      "midi": 33,
      "hit": false,
      "t": 64260.531250000204,
      "d": 1654.9287500000064,
      "v": 65
    },
    {
      "midi": 64,
      "hit": false,
      "t": 64507.010000000206,
      "d": 281.6900000000023,
      "v": 75
    },
    {
      "midi": 52,
      "hit": false,
      "t": 64507.010000000206,
      "d": 281.6900000000023,
      "v": 55
    },
    {
      "midi": 69,
      "hit": false,
      "t": 64788.70000000009,
      "d": 633.802499999998,
      "v": 94
    },
    {
      "midi": 69,
      "hit": false,
      "t": 64788.70000000021,
      "d": 281.6900000000023,
      "v": 75
    },
    {
      "midi": 57,
      "hit": false,
      "t": 64788.70000000021,
      "d": 281.6900000000023,
      "v": 55
    },
    {
      "midi": 72,
      "hit": false,
      "t": 65070.39000000021,
      "d": 281.6900000000023,
      "v": 75
    },
    {
      "midi": 60,
      "hit": false,
      "t": 65070.39000000021,
      "d": 281.6900000000023,
      "v": 55
    },
    {
      "midi": 69,
      "hit": false,
      "t": 65352.08000000021,
      "d": 281.68999999999505,
      "v": 75
    },
    {
      "midi": 57,
      "hit": false,
      "t": 65352.08000000021,
      "d": 281.68999999999505,
      "v": 55
    },
    {
      "midi": 64,
      "hit": false,
      "t": 65633.77000000021,
      "d": 281.6900000000023,
      "v": 75
    },
    {
      "midi": 52,
      "hit": false,
      "t": 65633.77000000021,
      "d": 316.90124999999534,
      "v": 55
    },
    {
      "midi": 71,
      "hit": false,
      "t": 65668.98125000008,
      "d": 176.05624999999418,
      "v": 94
    },
    {
      "midi": 45,
      "hit": false,
      "t": 65915.46000000021,
      "d": 2.2007031249959255,
      "v": 85
    },
    {
      "midi": 57,
      "hit": false,
      "t": 65915.46000000021,
      "d": 2.2007031249959255,
      "v": 85
    },
    {
      "midi": 45,
      "hit": false,
      "t": 65915.46000000021,
      "d": 2.2007031249959255,
      "v": 65
    },
    {
      "midi": 69,
      "hit": false,
      "t": 65950.67125000007,
      "d": 1549.2949999999983,
      "v": 94
    },
    {
      "midi": 33,
      "hit": false,
      "t": 65950.6712500002,
      "d": 1690.1399999999994,
      "v": 65
    },
    {
      "midi": 48,
      "hit": false,
      "t": 66197.1500000002,
      "d": 281.6900000000023,
      "v": 55
    },
    {
      "midi": 60,
      "hit": false,
      "t": 66197.15000000021,
      "d": 281.6900000000023,
      "v": 75
    },
    {
      "midi": 52,
      "hit": false,
      "t": 66478.8400000002,
      "d": 281.6900000000023,
      "v": 55
    },
    {
      "midi": 64,
      "hit": false,
      "t": 66478.84000000021,
      "d": 281.6900000000023,
      "v": 75
    },
    {
      "midi": 57,
      "hit": false,
      "t": 66760.5300000002,
      "d": 281.6900000000023,
      "v": 55
    },
    {
      "midi": 69,
      "hit": false,
      "t": 66760.53000000022,
      "d": 281.6900000000023,
      "v": 75
    },
    {
      "midi": 52,
      "hit": false,
      "t": 67042.2200000002,
      "d": 281.6900000000023,
      "v": 55
    },
    {
      "midi": 64,
      "hit": false,
      "t": 67042.22000000022,
      "d": 281.6900000000023,
      "v": 75
    },
    {
      "midi": 48,
      "hit": false,
      "t": 67323.9100000002,
      "d": 316.90124999999534,
      "v": 55
    },
    {
      "midi": 60,
      "hit": false,
      "t": 67323.91000000022,
      "d": 316.90124999999534,
      "v": 75
    },
    {
      "midi": 47,
      "hit": false,
      "t": 67640.8112500002,
      "d": 246.47874999999476,
      "v": 55
    },
    {
      "midi": 31,
      "hit": false,
      "t": 67640.8112500002,
      "d": 1654.9287500000064,
      "v": 65
    },
    {
      "midi": 59,
      "hit": false,
      "t": 67640.81125000022,
      "d": 246.47874999999476,
      "v": 75
    },
    {
      "midi": 50,
      "hit": false,
      "t": 67887.2900000002,
      "d": 281.6900000000023,
      "v": 55
    },
    {
      "midi": 62,
      "hit": false,
      "t": 67887.29000000021,
      "d": 281.6900000000023,
      "v": 75
    },
    {
      "midi": 67,
      "hit": false,
      "t": 68168.98000000007,
      "d": 211.26750000000175,
      "v": 94
    },
    {
      "midi": 55,
      "hit": false,
      "t": 68168.9800000002,
      "d": 281.6900000000023,
      "v": 55
    },
    {
      "midi": 67,
      "hit": false,
      "t": 68168.98000000021,
      "d": 281.6900000000023,
      "v": 75
    },
    {
      "midi": 67,
      "hit": false,
      "t": 68450.67000000007,
      "d": 422.5350000000035,
      "v": 94
    },
    {
      "midi": 59,
      "hit": false,
      "t": 68450.6700000002,
      "d": 281.6900000000023,
      "v": 55
    },
    {
      "midi": 71,
      "hit": false,
      "t": 68450.67000000022,
      "d": 281.6900000000023,
      "v": 75
    },
    {
      "midi": 55,
      "hit": false,
      "t": 68732.3600000002,
      "d": 281.6900000000023,
      "v": 55
    },
    {
      "midi": 67,
      "hit": false,
      "t": 68732.36000000022,
      "d": 281.6900000000023,
      "v": 75
    },
    {
      "midi": 50,
      "hit": false,
      "t": 69014.0500000002,
      "d": 316.90124999999534,
      "v": 55
    },
    {
      "midi": 62,
      "hit": false,
      "t": 69014.05000000022,
      "d": 281.6900000000023,
      "v": 75
    },
    {
      "midi": 67,
      "hit": false,
      "t": 69049.26125000007,
      "d": 176.05624999999418,
      "v": 94
    },
    {
      "midi": 43,
      "hit": false,
      "t": 69295.74000000021,
      "d": 2.2007031249959255,
      "v": 65
    },
    {
      "midi": 43,
      "hit": false,
      "t": 69295.74000000022,
      "d": 2.2007031249959255,
      "v": 85
    },
    {
      "midi": 55,
      "hit": false,
      "t": 69295.74000000022,
      "d": 2.2007031249959255,
      "v": 85
    },
    {
      "midi": 67,
      "hit": false,
      "t": 69330.95125000006,
      "d": 774.6475000000064,
      "v": 94
    },
    {
      "midi": 31,
      "hit": false,
      "t": 69330.9512500002,
      "d": 1690.1399999999994,
      "v": 65
    },
    {
      "midi": 47,
      "hit": false,
      "t": 69577.4300000002,
      "d": 281.6900000000023,
      "v": 55
    },
    {
      "midi": 59,
      "hit": false,
      "t": 69577.43000000023,
      "d": 281.6900000000023,
      "v": 75
    },
    {
      "midi": 50,
      "hit": false,
      "t": 69859.1200000002,
      "d": 281.6900000000023,
      "v": 55
    },
    {
      "midi": 62,
      "hit": false,
      "t": 69859.12000000023,
      "d": 281.6900000000023,
      "v": 75
    },
    {
      "midi": 67,
      "hit": false,
      "t": 70140.81000000006,
      "d": 211.26750000000175,
      "v": 94
    },
    {
      "midi": 55,
      "hit": false,
      "t": 70140.8100000002,
      "d": 281.6900000000023,
      "v": 55
    },
    {
      "midi": 67,
      "hit": false,
      "t": 70140.81000000023,
      "d": 281.6900000000023,
      "v": 75
    },
    {
      "midi": 69,
      "hit": false,
      "t": 70422.50000000006,
      "d": 211.26750000000175,
      "v": 94
    },
    {
      "midi": 50,
      "hit": false,
      "t": 70422.5000000002,
      "d": 281.6900000000023,
      "v": 55
    },
    {
      "midi": 62,
      "hit": false,
      "t": 70422.50000000023,
      "d": 281.6900000000023,
      "v": 75
    },
    {
      "midi": 71,
      "hit": false,
      "t": 70739.40125000005,
      "d": 176.05624999999418,
      "v": 94
    },
    {
      "midi": 71,
      "hit": false,
      "t": 71021.09125000004,
      "d": 3309.8574999999983,
      "v": 94
    },
    {
      "midi": 51,
      "hit": false,
      "t": 71021.0912500002,
      "d": 246.47874999999476,
      "v": 55
    },
    {
      "midi": 63,
      "hit": false,
      "t": 71021.09125000023,
      "d": 246.47874999999476,
      "v": 75
    },
    {
      "midi": 54,
      "hit": false,
      "t": 71267.5700000002,
      "d": 281.6900000000023,
      "v": 55
    },
    {
      "midi": 66,
      "hit": false,
      "t": 71267.57000000023,
      "d": 281.6900000000023,
      "v": 75
    },
    {
      "midi": 59,
      "hit": false,
      "t": 71549.2600000002,
      "d": 281.6900000000023,
      "v": 55
    },
    {
      "midi": 71,
      "hit": false,
      "t": 71549.26000000023,
      "d": 281.6900000000023,
      "v": 75
    },
    {
      "midi": 63,
      "hit": false,
      "t": 71830.9500000002,
      "d": 281.6900000000023,
      "v": 55
    },
    {
      "midi": 75,
      "hit": false,
      "t": 71830.95000000023,
      "d": 281.6900000000023,
      "v": 75
    },
    {
      "midi": 59,
      "hit": false,
      "t": 72112.6400000002,
      "d": 281.6900000000023,
      "v": 55
    },
    {
      "midi": 71,
      "hit": false,
      "t": 72112.64000000023,
      "d": 281.6900000000023,
      "v": 75
    },
    {
      "midi": 54,
      "hit": false,
      "t": 72394.3300000002,
      "d": 316.90124999999534,
      "v": 55
    },
    {
      "midi": 66,
      "hit": false,
      "t": 72394.33000000023,
      "d": 281.6900000000023,
      "v": 75
    },
    {
      "midi": 35,
      "hit": false,
      "t": 72676.02000000021,
      "d": 2.2007031249959255,
      "v": 65
    },
    {
      "midi": 47,
      "hit": false,
      "t": 72676.02000000021,
      "d": 2.2007031249959255,
      "v": 65
    },
    {
      "midi": 47,
      "hit": false,
      "t": 72676.02000000024,
      "d": 2.2007031249959255,
      "v": 85
    },
    {
      "midi": 59,
      "hit": false,
      "t": 72676.02000000024,
      "d": 2.2007031249959255,
      "v": 85
    },
    {
      "midi": 51,
      "hit": false,
      "t": 72957.7100000002,
      "d": 281.6900000000023,
      "v": 55
    },
    {
      "midi": 63,
      "hit": false,
      "t": 72957.71000000024,
      "d": 281.6900000000023,
      "v": 75
    },
    {
      "midi": 54,
      "hit": false,
      "t": 73239.4000000002,
      "d": 281.6900000000023,
      "v": 55
    },
    {
      "midi": 66,
      "hit": false,
      "t": 73239.40000000024,
      "d": 281.6900000000023,
      "v": 75
    },
    {
      "midi": 59,
      "hit": false,
      "t": 73521.0900000002,
      "d": 281.6900000000023,
      "v": 55
    },
    {
      "midi": 71,
      "hit": false,
      "t": 73521.09000000024,
      "d": 281.6900000000023,
      "v": 75
    },
    {
      "midi": 54,
      "hit": false,
      "t": 73802.7800000002,
      "d": 281.6900000000023,
      "v": 55
    },
    {
      "midi": 66,
      "hit": false,
      "t": 73802.78000000025,
      "d": 281.6900000000023,
      "v": 75
    },
    {
      "midi": 51,
      "hit": false,
      "t": 74084.4700000002,
      "d": 316.90124999999534,
      "v": 55
    },
    {
      "midi": 63,
      "hit": false,
      "t": 74084.47000000025,
      "d": 316.90124999999534,
      "v": 75
    },
    {
      "midi": 55,
      "hit": false,
      "t": 74401.3712500002,
      "d": 246.47874999999476,
      "v": 55
    },
    {
      "midi": 40,
      "hit": false,
      "t": 74401.3712500002,
      "d": 1654.9287500000064,
      "v": 65
    },
    {
      "midi": 67,
      "hit": false,
      "t": 74401.37125000024,
      "d": 246.47874999999476,
      "v": 75
    },
    {
      "midi": 59,
      "hit": false,
      "t": 74647.8500000002,
      "d": 281.6900000000023,
      "v": 55
    },
    {
      "midi": 71,
      "hit": false,
      "t": 74647.85000000024,
      "d": 281.6900000000023,
      "v": 75
    },
    {
      "midi": 71,
      "hit": false,
      "t": 74929.54000000004,
      "d": 211.26750000000175,
      "v": 94
    },
    {
      "midi": 64,
      "hit": false,
      "t": 74929.5400000002,
      "d": 281.6900000000023,
      "v": 55
    },
    {
      "midi": 76,
      "hit": false,
      "t": 74929.54000000024,
      "d": 281.6900000000023,
      "v": 75
    },
    {
      "midi": 71,
      "hit": false,
      "t": 75211.23000000004,
      "d": 422.5350000000035,
      "v": 94
    },
    {
      "midi": 67,
      "hit": false,
      "t": 75211.2300000002,
      "d": 281.6900000000023,
      "v": 55
    },
    {
      "midi": 79,
      "hit": false,
      "t": 75211.23000000024,
      "d": 281.6900000000023,
      "v": 75
    },
    {
      "midi": 64,
      "hit": false,
      "t": 75492.9200000002,
      "d": 281.6900000000023,
      "v": 55
    },
    {
      "midi": 76,
      "hit": false,
      "t": 75492.92000000025,
      "d": 281.6900000000023,
      "v": 75
    },
    {
      "midi": 59,
      "hit": false,
      "t": 75774.6100000002,
      "d": 316.90124999999534,
      "v": 55
    },
    {
      "midi": 71,
      "hit": false,
      "t": 75774.61000000025,
      "d": 281.6900000000023,
      "v": 75
    },
    {
      "midi": 69,
      "hit": false,
      "t": 75809.82125000004,
      "d": 176.05624999999418,
      "v": 94
    },
    {
      "midi": 52,
      "hit": false,
      "t": 76056.3000000002,
      "d": 2.2007031249959255,
      "v": 65
    },
    {
      "midi": 52,
      "hit": false,
      "t": 76056.30000000025,
      "d": 2.2007031249959255,
      "v": 85
    },
    {
      "midi": 64,
      "hit": false,
      "t": 76056.30000000025,
      "d": 2.2007031249959255,
      "v": 85
    },
    {
      "midi": 71,
      "hit": false,
      "t": 76091.51125000003,
      "d": 774.6475000000064,
      "v": 94
    },
    {
      "midi": 40,
      "hit": false,
      "t": 76091.5112500002,
      "d": 3345.0687500000204,
      "v": 65
    },
    {
      "midi": 55,
      "hit": false,
      "t": 76337.9900000002,
      "d": 281.6900000000023,
      "v": 55
    },
    {
      "midi": 67,
      "hit": false,
      "t": 76337.99000000025,
      "d": 281.6900000000023,
      "v": 75
    },
    {
      "midi": 59,
      "hit": false,
      "t": 76619.6800000002,
      "d": 281.6900000000023,
      "v": 55
    },
    {
      "midi": 71,
      "hit": false,
      "t": 76619.68000000025,
      "d": 281.6900000000023,
      "v": 75
    },
    {
      "midi": 64,
      "hit": false,
      "t": 76901.3700000002,
      "d": 281.6900000000023,
      "v": 55
    },
    {
      "midi": 76,
      "hit": false,
      "t": 76901.37000000026,
      "d": 281.6900000000023,
      "v": 75
    },
    {
      "midi": 64,
      "hit": false,
      "t": 77183.06000000003,
      "d": 211.26750000000175,
      "v": 94
    },
    {
      "midi": 59,
      "hit": false,
      "t": 77183.0600000002,
      "d": 281.6900000000023,
      "v": 55
    },
    {
      "midi": 71,
      "hit": false,
      "t": 77183.06000000026,
      "d": 281.6900000000023,
      "v": 75
    },
    {
      "midi": 55,
      "hit": false,
      "t": 77464.7500000002,
      "d": 563.3800000000047,
      "v": 55
    },
    {
      "midi": 67,
      "hit": false,
      "t": 77464.75000000026,
      "d": 563.3800000000047,
      "v": 75
    },
    {
      "midi": 67,
      "hit": false,
      "t": 77499.96125000002,
      "d": 176.05624999999418,
      "v": 94
    },
    {
      "midi": 52,
      "hit": false,
      "t": 77746.4400000002,
      "d": 1690.140000000014,
      "v": 65
    },
    {
      "midi": 64,
      "hit": false,
      "t": 77746.44000000026,
      "d": 1690.140000000014,
      "v": 85
    },
    {
      "midi": 71,
      "hit": false,
      "t": 77781.65125000001,
      "d": 387.3237499999959,
      "v": 94
    },
    {
      "midi": 59,
      "hit": false,
      "t": 78028.13000000021,
      "d": 281.6900000000023,
      "v": 55
    },
    {
      "midi": 71,
      "hit": false,
      "t": 78028.13000000027,
      "d": 281.6900000000023,
      "v": 75
    },
    {
      "midi": 71,
      "hit": false,
      "t": 78309.82,
      "d": 633.8025000000052,
      "v": 94
    },
    {
      "midi": 64,
      "hit": false,
      "t": 78309.82000000021,
      "d": 281.6900000000023,
      "v": 55
    },
    {
      "midi": 76,
      "hit": false,
      "t": 78309.82000000027,
      "d": 281.6900000000023,
      "v": 75
    },
    {
      "midi": 67,
      "hit": false,
      "t": 78591.51000000021,
      "d": 281.6900000000023,
      "v": 55
    },
    {
      "midi": 79,
      "hit": false,
      "t": 78591.51000000027,
      "d": 281.6900000000023,
      "v": 75
    },
    {
      "midi": 64,
      "hit": false,
      "t": 78873.20000000022,
      "d": 281.6900000000023,
      "v": 55
    },
    {
      "midi": 76,
      "hit": false,
      "t": 78873.20000000027,
      "d": 281.6900000000023,
      "v": 75
    },
    {
      "midi": 59,
      "hit": false,
      "t": 79154.89000000022,
      "d": 316.90124999999534,
      "v": 55
    },
    {
      "midi": 71,
      "hit": false,
      "t": 79154.89000000028,
      "d": 316.90124999999534,
      "v": 75
    },
    {
      "midi": 74,
      "hit": false,
      "t": 79190.10125,
      "d": 176.05624999999418,
      "v": 94
    },
    {
      "midi": 57,
      "hit": false,
      "t": 79436.58000000028,
      "d": 281.6899999999878,
      "v": 85
    },
    {
      "midi": 72,
      "hit": false,
      "t": 79471.79125,
      "d": 1549.2949999999983,
      "v": 94
    },
    {
      "midi": 45,
      "hit": false,
      "t": 79471.79125000021,
      "d": 246.47874999999476,
      "v": 65
    },
    {
      "midi": 33,
      "hit": false,
      "t": 79471.79125000021,
      "d": 1690.1399999999994,
      "v": 65
    },
    {
      "midi": 45,
      "hit": false,
      "t": 79471.79125000027,
      "d": 1690.1399999999994,
      "v": 85
    },
    {
      "midi": 48,
      "hit": false,
      "t": 79718.27000000021,
      "d": 281.6900000000023,
      "v": 55
    },
    {
      "midi": 60,
      "hit": false,
      "t": 79718.27000000027,
      "d": 281.6900000000023,
      "v": 75
    },
    {
      "midi": 52,
      "hit": false,
      "t": 79999.96000000021,
      "d": 281.6900000000023,
      "v": 55
    },
    {
      "midi": 64,
      "hit": false,
      "t": 79999.96000000027,
      "d": 281.6900000000023,
      "v": 75
    },
    {
      "midi": 57,
      "hit": false,
      "t": 80281.65000000021,
      "d": 281.6900000000023,
      "v": 55
    },
    {
      "midi": 69,
      "hit": false,
      "t": 80281.65000000027,
      "d": 281.6900000000023,
      "v": 75
    },
    {
      "midi": 52,
      "hit": false,
      "t": 80563.34000000021,
      "d": 281.6900000000023,
      "v": 55
    },
    {
      "midi": 64,
      "hit": false,
      "t": 80563.34000000027,
      "d": 281.6900000000023,
      "v": 75
    },
    {
      "midi": 48,
      "hit": false,
      "t": 80845.03000000022,
      "d": 316.90124999999534,
      "v": 55
    },
    {
      "midi": 60,
      "hit": false,
      "t": 80845.03000000028,
      "d": 316.90124999999534,
      "v": 75
    },
    {
      "midi": 50,
      "hit": false,
      "t": 81126.72000000028,
      "d": 1690.1399999999994,
      "v": 85
    },
    {
      "midi": 62,
      "hit": false,
      "t": 81126.72000000028,
      "d": 1690.1399999999994,
      "v": 85
    },
    {
      "midi": 54,
      "hit": false,
      "t": 81161.93125000021,
      "d": 246.47874999999476,
      "v": 55
    },
    {
      "midi": 38,
      "hit": false,
      "t": 81161.93125000021,
      "d": 1654.9287500000064,
      "v": 65
    },
    {
      "midi": 50,
      "hit": false,
      "t": 81161.93125000021,
      "d": 1654.9287500000064,
      "v": 65
    },
    {
      "midi": 66,
      "hit": false,
      "t": 81161.93125000027,
      "d": 246.47874999999476,
      "v": 75
    },
    {
      "midi": 57,
      "hit": false,
      "t": 81408.4100000002,
      "d": 281.6900000000023,
      "v": 55
    },
    {
      "midi": 69,
      "hit": false,
      "t": 81408.41000000027,
      "d": 281.6900000000023,
      "v": 75
    },
    {
      "midi": 69,
      "hit": false,
      "t": 81690.09999999999,
      "d": 211.26750000000175,
      "v": 94
    },
    {
      "midi": 62,
      "hit": false,
      "t": 81690.10000000021,
      "d": 281.6900000000023,
      "v": 55
    },
    {
      "midi": 74,
      "hit": false,
      "t": 81690.10000000027,
      "d": 281.6900000000023,
      "v": 75
    },
    {
      "midi": 69,
      "hit": false,
      "t": 81971.79,
      "d": 422.5350000000035,
      "v": 94
    },
    {
      "midi": 66,
      "hit": false,
      "t": 81971.79000000021,
      "d": 281.6900000000023,
      "v": 55
    },
    {
      "midi": 78,
      "hit": false,
      "t": 81971.79000000027,
      "d": 281.6900000000023,
      "v": 75
    },
    {
      "midi": 62,
      "hit": false,
      "t": 82253.48000000021,
      "d": 281.6900000000023,
      "v": 55
    },
    {
      "midi": 74,
      "hit": false,
      "t": 82253.48000000027,
      "d": 281.6900000000023,
      "v": 75
    },
    {
      "midi": 57,
      "hit": false,
      "t": 82535.17000000022,
      "d": 316.90124999999534,
      "v": 55
    },
    {
      "midi": 69,
      "hit": false,
      "t": 82535.17000000027,
      "d": 316.90124999999534,
      "v": 75
    },
    {
      "midi": 69,
      "hit": false,
      "t": 82570.38124999999,
      "d": 176.05624999999418,
      "v": 94
    },
    {
      "midi": 59,
      "hit": false,
      "t": 82816.86000000028,
      "d": 281.6899999999878,
      "v": 85
    },
    {
      "midi": 69,
      "hit": false,
      "t": 82852.07124999998,
      "d": 774.6475000000064,
      "v": 94
    },
    {
      "midi": 47,
      "hit": false,
      "t": 82852.07125000021,
      "d": 246.47874999999476,
      "v": 65
    },
    {
      "midi": 35,
      "hit": false,
      "t": 82852.07125000021,
      "d": 1690.1399999999994,
      "v": 65
    },
    {
      "midi": 47,
      "hit": false,
      "t": 82852.07125000027,
      "d": 1690.1399999999994,
      "v": 85
    },
    {
      "midi": 51,
      "hit": false,
      "t": 83098.5500000002,
      "d": 281.6900000000023,
      "v": 55
    },
    {
      "midi": 63,
      "hit": false,
      "t": 83098.55000000026,
      "d": 281.6900000000023,
      "v": 75
    },
    {
      "midi": 54,
      "hit": false,
      "t": 83380.24000000021,
      "d": 281.6900000000023,
      "v": 55
    },
    {
      "midi": 66,
      "hit": false,
      "t": 83380.24000000027,
      "d": 281.6900000000023,
      "v": 75
    },
    {
      "midi": 67,
      "hit": false,
      "t": 83661.92999999998,
      "d": 211.26750000000175,
      "v": 94
    },
    {
      "midi": 59,
      "hit": false,
      "t": 83661.93000000021,
      "d": 281.6900000000023,
      "v": 55
    },
    {
      "midi": 71,
      "hit": false,
      "t": 83661.93000000027,
      "d": 281.6900000000023,
      "v": 75
    },
    {
      "midi": 67,
      "hit": false,
      "t": 83943.61999999998,
      "d": 211.26750000000175,
      "v": 94
    },
    {
      "midi": 54,
      "hit": false,
      "t": 83943.62000000021,
      "d": 316.90124999999534,
      "v": 55
    },
    {
      "midi": 66,
      "hit": false,
      "t": 83943.62000000027,
      "d": 281.6900000000023,
      "v": 75
    },
    {
      "midi": 51,
      "hit": false,
      "t": 84225.31000000022,
      "d": 316.90124999999534,
      "v": 55
    },
    {
      "midi": 63,
      "hit": false,
      "t": 84225.31000000027,
      "d": 316.90124999999534,
      "v": 75
    },
    {
      "midi": 66,
      "hit": false,
      "t": 84260.52124999998,
      "d": 176.05624999999418,
      "v": 94
    },
    {
      "midi": 64,
      "hit": false,
      "t": 84542.21124999996,
      "d": 3309.8574999999983,
      "v": 94
    },
    {
      "midi": 55,
      "hit": false,
      "t": 84542.21125000021,
      "d": 246.47874999999476,
      "v": 55
    },
    {
      "midi": 40,
      "hit": false,
      "t": 84542.21125000021,
      "d": 1654.9287500000064,
      "v": 65
    },
    {
      "midi": 67,
      "hit": false,
      "t": 84542.21125000027,
      "d": 246.47874999999476,
      "v": 75
    },
    {
      "midi": 59,
      "hit": false,
      "t": 84788.6900000002,
      "d": 281.6900000000023,
      "v": 55
    },
    {
      "midi": 71,
      "hit": false,
      "t": 84788.69000000026,
      "d": 281.6900000000023,
      "v": 75
    },
    {
      "midi": 64,
      "hit": false,
      "t": 85070.38000000021,
      "d": 281.6900000000023,
      "v": 55
    },
    {
      "midi": 76,
      "hit": false,
      "t": 85070.38000000027,
      "d": 281.6900000000023,
      "v": 75
    },
    {
      "midi": 67,
      "hit": false,
      "t": 85352.07000000021,
      "d": 281.6900000000023,
      "v": 55
    },
    {
      "midi": 79,
      "hit": false,
      "t": 85352.07000000027,
      "d": 281.6900000000023,
      "v": 75
    },
    {
      "midi": 64,
      "hit": false,
      "t": 85633.76000000021,
      "d": 281.6900000000023,
      "v": 55
    },
    {
      "midi": 76,
      "hit": false,
      "t": 85633.76000000027,
      "d": 281.6900000000023,
      "v": 75
    },
    {
      "midi": 59,
      "hit": false,
      "t": 85915.45000000022,
      "d": 316.90124999999534,
      "v": 55
    },
    {
      "midi": 71,
      "hit": false,
      "t": 85915.45000000027,
      "d": 281.6900000000023,
      "v": 75
    },
    {
      "midi": 52,
      "hit": false,
      "t": 86197.14000000022,
      "d": 2.2007031249959255,
      "v": 65
    },
    {
      "midi": 52,
      "hit": false,
      "t": 86197.14000000028,
      "d": 2.2007031249959255,
      "v": 85
    },
    {
      "midi": 64,
      "hit": false,
      "t": 86197.14000000028,
      "d": 2.2007031249959255,
      "v": 85
    },
    {
      "midi": 40,
      "hit": false,
      "t": 86232.35125000021,
      "d": 3345.068750000006,
      "v": 65
    },
    {
      "midi": 55,
      "hit": false,
      "t": 86478.8300000002,
      "d": 281.6900000000023,
      "v": 55
    },
    {
      "midi": 67,
      "hit": false,
      "t": 86478.83000000028,
      "d": 281.6900000000023,
      "v": 75
    },
    {
      "midi": 59,
      "hit": false,
      "t": 86760.52000000021,
      "d": 281.6900000000023,
      "v": 55
    },
    {
      "midi": 71,
      "hit": false,
      "t": 86760.52000000028,
      "d": 281.6900000000023,
      "v": 75
    },
    {
      "midi": 64,
      "hit": false,
      "t": 87042.21000000021,
      "d": 281.6900000000023,
      "v": 55
    },
    {
      "midi": 76,
      "hit": false,
      "t": 87042.21000000028,
      "d": 281.6900000000023,
      "v": 75
    },
    {
      "midi": 59,
      "hit": false,
      "t": 87323.90000000021,
      "d": 281.6900000000023,
      "v": 55
    },
    {
      "midi": 71,
      "hit": false,
      "t": 87323.90000000029,
      "d": 281.6900000000023,
      "v": 75
    },
    {
      "midi": 55,
      "hit": false,
      "t": 87605.59000000021,
      "d": 563.3800000000047,
      "v": 55
    },
    {
      "midi": 67,
      "hit": false,
      "t": 87605.59000000029,
      "d": 563.3800000000047,
      "v": 75
    },
    {
      "midi": 52,
      "hit": false,
      "t": 87887.28000000022,
      "d": 1690.1399999999994,
      "v": 65
    },
    {
      "midi": 76,
      "hit": false,
      "t": 87922.49124999996,
      "d": 387.3237499999959,
      "v": 94
    },
    {
      "midi": 59,
      "hit": false,
      "t": 88168.97000000022,
      "d": 281.6900000000023,
      "v": 55
    },
    {
      "midi": 71,
      "hit": false,
      "t": 88168.97000000029,
      "d": 281.6900000000023,
      "v": 75
    },
    {
      "midi": 76,
      "hit": false,
      "t": 88450.65999999996,
      "d": 633.8025000000052,
      "v": 94
    },
    {
      "midi": 64,
      "hit": false,
      "t": 88450.66000000022,
      "d": 281.6900000000023,
      "v": 55
    },
    {
      "midi": 76,
      "hit": false,
      "t": 88450.6600000003,
      "d": 281.6900000000023,
      "v": 75
    },
    {
      "midi": 67,
      "hit": false,
      "t": 88732.35000000022,
      "d": 281.6900000000023,
      "v": 55
    },
    {
      "midi": 79,
      "hit": false,
      "t": 88732.3500000003,
      "d": 281.6900000000023,
      "v": 75
    },
    {
      "midi": 64,
      "hit": false,
      "t": 89014.04000000023,
      "d": 316.90124999999534,
      "v": 55
    },
    {
      "midi": 76,
      "hit": false,
      "t": 89014.0400000003,
      "d": 281.6900000000023,
      "v": 75
    },
    {
      "midi": 59,
      "hit": false,
      "t": 89295.73000000023,
      "d": 316.9012499999808,
      "v": 55
    },
    {
      "midi": 71,
      "hit": false,
      "t": 89295.7300000003,
      "d": 281.6900000000023,
      "v": 75
    },
    {
      "midi": 71,
      "hit": false,
      "t": 89330.94124999996,
      "d": 176.05624999999418,
      "v": 94
    },
    {
      "midi": 52,
      "hit": false,
      "t": 89577.4200000003,
      "d": 2.2007031249959255,
      "v": 85
    },
    {
      "midi": 64,
      "hit": false,
      "t": 89577.4200000003,
      "d": 2.2007031249959255,
      "v": 85
    },
    {
      "midi": 76,
      "hit": false,
      "t": 89612.63124999995,
      "d": 1549.2949999999983,
      "v": 94
    },
    {
      "midi": 52,
      "hit": false,
      "t": 89612.63125000021,
      "d": 246.47874999999476,
      "v": 65
    },
    {
      "midi": 40,
      "hit": false,
      "t": 89612.63125000021,
      "d": 1690.1399999999994,
      "v": 65
    },
    {
      "midi": 55,
      "hit": false,
      "t": 89859.1100000002,
      "d": 281.6900000000023,
      "v": 55
    },
    {
      "midi": 67,
      "hit": false,
      "t": 89859.1100000003,
      "d": 281.6900000000023,
      "v": 75
    },
    {
      "midi": 59,
      "hit": false,
      "t": 90140.8000000002,
      "d": 281.6900000000023,
      "v": 55
    },
    {
      "midi": 71,
      "hit": false,
      "t": 90140.80000000031,
      "d": 281.6900000000023,
      "v": 75
    },
    {
      "midi": 64,
      "hit": false,
      "t": 90422.49000000021,
      "d": 281.6900000000023,
      "v": 55
    },
    {
      "midi": 76,
      "hit": false,
      "t": 90422.49000000031,
      "d": 281.6900000000023,
      "v": 75
    },
    {
      "midi": 59,
      "hit": false,
      "t": 90704.18000000021,
      "d": 281.6900000000023,
      "v": 55
    },
    {
      "midi": 71,
      "hit": false,
      "t": 90704.18000000031,
      "d": 281.6900000000023,
      "v": 75
    },
    {
      "midi": 55,
      "hit": false,
      "t": 90985.87000000021,
      "d": 316.90124999999534,
      "v": 55
    },
    {
      "midi": 67,
      "hit": false,
      "t": 90985.87000000032,
      "d": 316.90124999999534,
      "v": 75
    },
    {
      "midi": 48,
      "hit": false,
      "t": 91302.77125000021,
      "d": 246.47874999999476,
      "v": 55
    },
    {
      "midi": 33,
      "hit": false,
      "t": 91302.77125000021,
      "d": 1654.9287499999919,
      "v": 65
    },
    {
      "midi": 45,
      "hit": false,
      "t": 91302.77125000021,
      "d": 1654.9287499999919,
      "v": 65
    },
    {
      "midi": 60,
      "hit": false,
      "t": 91302.77125000031,
      "d": 246.47874999999476,
      "v": 75
    },
    {
      "midi": 52,
      "hit": false,
      "t": 91549.2500000002,
      "d": 281.6900000000023,
      "v": 55
    },
    {
      "midi": 64,
      "hit": false,
      "t": 91549.2500000003,
      "d": 281.6900000000023,
      "v": 75
    },
    {
      "midi": 72,
      "hit": false,
      "t": 91830.93999999994,
      "d": 211.26750000000175,
      "v": 94
    },
    {
      "midi": 57,
      "hit": false,
      "t": 91830.9400000002,
      "d": 281.6900000000023,
      "v": 55
    },
    {
      "midi": 69,
      "hit": false,
      "t": 91830.94000000031,
      "d": 281.6900000000023,
      "v": 75
    },
    {
      "midi": 60,
      "hit": false,
      "t": 92112.63000000021,
      "d": 281.6900000000023,
      "v": 55
    },
    {
      "midi": 72,
      "hit": false,
      "t": 92112.63000000031,
      "d": 281.6900000000023,
      "v": 75
    },
    {
      "midi": 72,
      "hit": false,
      "t": 92147.84124999994,
      "d": 387.3237499999959,
      "v": 94
    },
    {
      "midi": 57,
      "hit": false,
      "t": 92394.32000000021,
      "d": 316.90124999999534,
      "v": 55
    },
    {
      "midi": 69,
      "hit": false,
      "t": 92394.32000000031,
      "d": 281.6900000000023,
      "v": 75
    },
    {
      "midi": 52,
      "hit": false,
      "t": 92676.01000000021,
      "d": 316.9012499999808,
      "v": 55
    },
    {
      "midi": 64,
      "hit": false,
      "t": 92676.01000000031,
      "d": 281.6900000000023,
      "v": 75
    },
    {
      "midi": 72,
      "hit": false,
      "t": 92711.22124999993,
      "d": 176.05624999999418,
      "v": 94
    },
    {
      "midi": 45,
      "hit": false,
      "t": 92957.70000000032,
      "d": 2.2007031249959255,
      "v": 85
    },
    {
      "midi": 57,
      "hit": false,
      "t": 92957.70000000032,
      "d": 2.2007031249959255,
      "v": 85
    },
    {
      "midi": 72,
      "hit": false,
      "t": 92992.91124999992,
      "d": 1549.2949999999983,
      "v": 94
    },
    {
      "midi": 45,
      "hit": false,
      "t": 92992.9112500002,
      "d": 246.47874999999476,
      "v": 65
    },
    {
      "midi": 33,
      "hit": false,
      "t": 92992.9112500002,
      "d": 1690.1399999999994,
      "v": 65
    },
    {
      "midi": 48,
      "hit": false,
      "t": 93239.39000000019,
      "d": 281.6900000000023,
      "v": 55
    },
    {
      "midi": 60,
      "hit": false,
      "t": 93239.39000000032,
      "d": 281.6900000000023,
      "v": 75
    },
    {
      "midi": 52,
      "hit": false,
      "t": 93521.08000000019,
      "d": 281.6900000000023,
      "v": 55
    },
    {
      "midi": 64,
      "hit": false,
      "t": 93521.08000000032,
      "d": 281.6900000000023,
      "v": 75
    },
    {
      "midi": 57,
      "hit": false,
      "t": 93802.7700000002,
      "d": 281.6900000000023,
      "v": 55
    },
    {
      "midi": 69,
      "hit": false,
      "t": 93802.77000000032,
      "d": 281.6900000000023,
      "v": 75
    },
    {
      "midi": 52,
      "hit": false,
      "t": 94084.4600000002,
      "d": 281.6900000000023,
      "v": 55
    },
    {
      "midi": 64,
      "hit": false,
      "t": 94084.46000000033,
      "d": 281.6900000000023,
      "v": 75
    },
    {
      "midi": 48,
      "hit": false,
      "t": 94366.1500000002,
      "d": 316.90124999999534,
      "v": 55
    },
    {
      "midi": 60,
      "hit": false,
      "t": 94366.15000000033,
      "d": 316.90124999999534,
      "v": 75
    },
    {
      "midi": 74,
      "hit": false,
      "t": 94683.05124999992,
      "d": 1338.0274999999965,
      "v": 94
    },
    {
      "midi": 54,
      "hit": false,
      "t": 94683.0512500002,
      "d": 246.47874999999476,
      "v": 55
    },
    {
      "midi": 38,
      "hit": false,
      "t": 94683.0512500002,
      "d": 1654.9287499999919,
      "v": 65
    },
    {
      "midi": 50,
      "hit": false,
      "t": 94683.0512500002,
      "d": 1654.9287499999919,
      "v": 65
    },
    {
      "midi": 66,
      "hit": false,
      "t": 94683.05125000032,
      "d": 246.47874999999476,
      "v": 75
    },
    {
      "midi": 57,
      "hit": false,
      "t": 94929.53000000019,
      "d": 281.6900000000023,
      "v": 55
    },
    {
      "midi": 69,
      "hit": false,
      "t": 94929.53000000032,
      "d": 281.6900000000023,
      "v": 75
    },
    {
      "midi": 62,
      "hit": false,
      "t": 95211.22000000019,
      "d": 281.6900000000023,
      "v": 55
    },
    {
      "midi": 74,
      "hit": false,
      "t": 95211.22000000032,
      "d": 281.6900000000023,
      "v": 75
    },
    {
      "midi": 66,
      "hit": false,
      "t": 95492.91000000019,
      "d": 281.6900000000023,
      "v": 55
    },
    {
      "midi": 78,
      "hit": false,
      "t": 95492.91000000032,
      "d": 281.6900000000023,
      "v": 75
    },
    {
      "midi": 62,
      "hit": false,
      "t": 95774.6000000002,
      "d": 316.90124999999534,
      "v": 55
    },
    {
      "midi": 74,
      "hit": false,
      "t": 95774.60000000033,
      "d": 281.6900000000023,
      "v": 75
    },
    {
      "midi": 57,
      "hit": false,
      "t": 96056.2900000002,
      "d": 316.9012499999808,
      "v": 55
    },
    {
      "midi": 69,
      "hit": false,
      "t": 96056.29000000033,
      "d": 281.6900000000023,
      "v": 75
    },
    {
      "midi": 74,
      "hit": false,
      "t": 96091.50124999991,
      "d": 176.05624999999418,
      "v": 94
    },
    {
      "midi": 50,
      "hit": false,
      "t": 96337.98000000033,
      "d": 2.2007031249959255,
      "v": 85
    },
    {
      "midi": 62,
      "hit": false,
      "t": 96337.98000000033,
      "d": 2.2007031249959255,
      "v": 85
    },
    {
      "midi": 74,
      "hit": false,
      "t": 96373.1912499999,
      "d": 774.6475000000064,
      "v": 94
    },
    {
      "midi": 50,
      "hit": false,
      "t": 96373.19125000018,
      "d": 246.47874999999476,
      "v": 65
    },
    {
      "midi": 38,
      "hit": false,
      "t": 96373.19125000018,
      "d": 1690.1399999999994,
      "v": 65
    },
    {
      "midi": 54,
      "hit": false,
      "t": 96619.67000000017,
      "d": 281.6900000000023,
      "v": 55
    },
    {
      "midi": 66,
      "hit": false,
      "t": 96619.67000000033,
      "d": 281.6900000000023,
      "v": 75
    },
    {
      "midi": 57,
      "hit": false,
      "t": 96901.36000000018,
      "d": 281.6900000000023,
      "v": 55
    },
    {
      "midi": 69,
      "hit": false,
      "t": 96901.36000000034,
      "d": 281.6900000000023,
      "v": 75
    },
    {
      "midi": 62,
      "hit": false,
      "t": 97183.05000000018,
      "d": 281.6900000000023,
      "v": 55
    },
    {
      "midi": 74,
      "hit": false,
      "t": 97183.05000000034,
      "d": 281.6900000000023,
      "v": 75
    },
    {
      "midi": 74,
      "hit": false,
      "t": 97218.26124999991,
      "d": 387.3237499999959,
      "v": 94
    },
    {
      "midi": 57,
      "hit": false,
      "t": 97464.74000000018,
      "d": 316.90124999999534,
      "v": 55
    },
    {
      "midi": 69,
      "hit": false,
      "t": 97464.74000000034,
      "d": 281.6900000000023,
      "v": 75
    },
    {
      "midi": 54,
      "hit": false,
      "t": 97746.43000000018,
      "d": 316.90124999999534,
      "v": 55
    },
    {
      "midi": 66,
      "hit": false,
      "t": 97746.43000000034,
      "d": 316.90124999999534,
      "v": 75
    },
    {
      "midi": 71,
      "hit": false,
      "t": 98063.3312499999,
      "d": 3309.8574999999983,
      "v": 94
    },
    {
      "midi": 59,
      "hit": false,
      "t": 98063.33125000018,
      "d": 246.47874999999476,
      "v": 55
    },
    {
      "midi": 43,
      "hit": false,
      "t": 98063.33125000018,
      "d": 1654.9287500000064,
      "v": 65
    },
    {
      "midi": 55,
      "hit": false,
      "t": 98063.33125000018,
      "d": 1654.9287500000064,
      "v": 65
    },
    {
      "midi": 71,
      "hit": false,
      "t": 98063.33125000034,
      "d": 246.47874999999476,
      "v": 75
    },
    {
      "midi": 55,
      "hit": false,
      "t": 98063.33125000034,
      "d": 1654.9287500000064,
      "v": 85
    },
    {
      "midi": 67,
      "hit": false,
      "t": 98063.33125000034,
      "d": 1654.9287500000064,
      "v": 85
    },
    {
      "midi": 62,
      "hit": false,
      "t": 98309.81000000017,
      "d": 281.6900000000023,
      "v": 55
    },
    {
      "midi": 74,
      "hit": false,
      "t": 98309.81000000033,
      "d": 281.6900000000023,
      "v": 75
    },
    {
      "midi": 67,
      "hit": false,
      "t": 98591.50000000017,
      "d": 281.6900000000023,
      "v": 55
    },
    {
      "midi": 79,
      "hit": false,
      "t": 98591.50000000033,
      "d": 281.6900000000023,
      "v": 75
    },
    {
      "midi": 71,
      "hit": false,
      "t": 98873.19000000018,
      "d": 281.6900000000023,
      "v": 55
    },
    {
      "midi": 83,
      "hit": false,
      "t": 98873.19000000034,
      "d": 281.6900000000023,
      "v": 75
    },
    {
      "midi": 67,
      "hit": false,
      "t": 99154.88000000018,
      "d": 281.6900000000023,
      "v": 55
    },
    {
      "midi": 79,
      "hit": false,
      "t": 99154.88000000034,
      "d": 281.6900000000023,
      "v": 75
    },
    {
      "midi": 62,
      "hit": false,
      "t": 99436.57000000018,
      "d": 316.90124999999534,
      "v": 55
    },
    {
      "midi": 74,
      "hit": false,
      "t": 99436.57000000034,
      "d": 316.90124999999534,
      "v": 75
    },
    {
      "midi": 59,
      "hit": false,
      "t": 99718.26000000034,
      "d": 281.6899999999878,
      "v": 85
    },
    {
      "midi": 47,
      "hit": false,
      "t": 99753.47125000018,
      "d": 246.47874999999476,
      "v": 65
    },
    {
      "midi": 35,
      "hit": false,
      "t": 99753.47125000018,
      "d": 1690.1399999999994,
      "v": 65
    },
    {
      "midi": 47,
      "hit": false,
      "t": 99753.47125000034,
      "d": 1690.1399999999994,
      "v": 85
    },
    {
      "midi": 51,
      "hit": false,
      "t": 99999.95000000017,
      "d": 281.6900000000023,
      "v": 55
    },
    {
      "midi": 63,
      "hit": false,
      "t": 99999.95000000033,
      "d": 281.6900000000023,
      "v": 75
    },
    {
      "midi": 54,
      "hit": false,
      "t": 100281.64000000017,
      "d": 281.6900000000023,
      "v": 55
    },
    {
      "midi": 66,
      "hit": false,
      "t": 100281.64000000033,
      "d": 281.6900000000023,
      "v": 75
    },
    {
      "midi": 59,
      "hit": false,
      "t": 100563.33000000018,
      "d": 281.6900000000023,
      "v": 55
    },
    {
      "midi": 71,
      "hit": false,
      "t": 100563.33000000034,
      "d": 281.6900000000023,
      "v": 75
    },
    {
      "midi": 54,
      "hit": false,
      "t": 100845.02000000018,
      "d": 281.6900000000023,
      "v": 55
    },
    {
      "midi": 66,
      "hit": false,
      "t": 100845.02000000034,
      "d": 281.6900000000023,
      "v": 75
    },
    {
      "midi": 51,
      "hit": false,
      "t": 101126.71000000018,
      "d": 316.90124999999534,
      "v": 55
    },
    {
      "midi": 63,
      "hit": false,
      "t": 101126.71000000034,
      "d": 316.90124999999534,
      "v": 75
    },
    {
      "midi": 76,
      "hit": false,
      "t": 101443.6112499999,
      "d": 387.3237499999959,
      "v": 94
    },
    {
      "midi": 55,
      "hit": false,
      "t": 101443.61125000018,
      "d": 246.47874999999476,
      "v": 55
    },
    {
      "midi": 40,
      "hit": false,
      "t": 101443.61125000018,
      "d": 1654.9287499999919,
      "v": 65
    },
    {
      "midi": 52,
      "hit": false,
      "t": 101443.61125000018,
      "d": 1654.9287499999919,
      "v": 65
    },
    {
      "midi": 67,
      "hit": false,
      "t": 101443.61125000034,
      "d": 246.47874999999476,
      "v": 75
    },
    {
      "midi": 59,
      "hit": false,
      "t": 101690.09000000017,
      "d": 281.6900000000023,
      "v": 55
    },
    {
      "midi": 71,
      "hit": false,
      "t": 101690.09000000033,
      "d": 281.6900000000023,
      "v": 75
    },
    {
      "midi": 76,
      "hit": false,
      "t": 101971.7799999999,
      "d": 633.8025000000052,
      "v": 94
    },
    {
      "midi": 64,
      "hit": false,
      "t": 101971.78000000017,
      "d": 281.6900000000023,
      "v": 55
    },
    {
      "midi": 76,
      "hit": false,
      "t": 101971.78000000033,
      "d": 281.6900000000023,
      "v": 75
    },
    {
      "midi": 67,
      "hit": false,
      "t": 102253.47000000018,
      "d": 281.6900000000023,
      "v": 55
    },
    {
      "midi": 79,
      "hit": false,
      "t": 102253.47000000034,
      "d": 281.6900000000023,
      "v": 75
    },
    {
      "midi": 64,
      "hit": false,
      "t": 102535.16000000018,
      "d": 316.90124999999534,
      "v": 55
    },
    {
      "midi": 76,
      "hit": false,
      "t": 102535.16000000034,
      "d": 281.6900000000023,
      "v": 75
    },
    {
      "midi": 71,
      "hit": false,
      "t": 102816.85000000034,
      "d": 281.6900000000023,
      "v": 75
    },
    {
      "midi": 71,
      "hit": false,
      "t": 102852.0612499999,
      "d": 176.05624999999418,
      "v": 94
    },
    {
      "midi": 59,
      "hit": false,
      "t": 102852.06125000017,
      "d": 281.6899999999878,
      "v": 55
    },
    {
      "midi": 52,
      "hit": false,
      "t": 103098.54000000034,
      "d": 2.2007031249959255,
      "v": 85
    },
    {
      "midi": 64,
      "hit": false,
      "t": 103098.54000000034,
      "d": 2.2007031249959255,
      "v": 85
    },
    {
      "midi": 76,
      "hit": false,
      "t": 103133.75124999988,
      "d": 1549.2949999999983,
      "v": 94
    },
    {
      "midi": 52,
      "hit": false,
      "t": 103133.75125000016,
      "d": 246.47874999999476,
      "v": 65
    },
    {
      "midi": 40,
      "hit": false,
      "t": 103133.75125000016,
      "d": 1690.1399999999994,
      "v": 65
    },
    {
      "midi": 55,
      "hit": false,
      "t": 103380.23000000016,
      "d": 281.6900000000023,
      "v": 55
    },
    {
      "midi": 67,
      "hit": false,
      "t": 103380.23000000035,
      "d": 281.6900000000023,
      "v": 75
    },
    {
      "midi": 59,
      "hit": false,
      "t": 103661.92000000016,
      "d": 281.6900000000023,
      "v": 55
    },
    {
      "midi": 71,
      "hit": false,
      "t": 103661.92000000035,
      "d": 281.6900000000023,
      "v": 75
    },
    {
      "midi": 64,
      "hit": false,
      "t": 103943.61000000016,
      "d": 281.6900000000023,
      "v": 55
    },
    {
      "midi": 76,
      "hit": false,
      "t": 103943.61000000035,
      "d": 281.6900000000023,
      "v": 75
    },
    {
      "midi": 59,
      "hit": false,
      "t": 104225.30000000016,
      "d": 281.6900000000023,
      "v": 55
    },
    {
      "midi": 71,
      "hit": false,
      "t": 104225.30000000035,
      "d": 281.6900000000023,
      "v": 75
    },
    {
      "midi": 55,
      "hit": false,
      "t": 104506.99000000017,
      "d": 316.90124999999534,
      "v": 55
    },
    {
      "midi": 67,
      "hit": false,
      "t": 104506.99000000035,
      "d": 316.90124999999534,
      "v": 75
    },
    {
      "midi": 48,
      "hit": false,
      "t": 104823.89125000016,
      "d": 246.47874999999476,
      "v": 55
    },
    {
      "midi": 33,
      "hit": false,
      "t": 104823.89125000016,
      "d": 1654.9287499999919,
      "v": 65
    },
    {
      "midi": 45,
      "hit": false,
      "t": 104823.89125000016,
      "d": 1654.9287499999919,
      "v": 65
    },
    {
      "midi": 60,
      "hit": false,
      "t": 104823.89125000035,
      "d": 246.47874999999476,
      "v": 75
    },
    {
      "midi": 52,
      "hit": false,
      "t": 105070.37000000016,
      "d": 281.6900000000023,
      "v": 55
    },
    {
      "midi": 64,
      "hit": false,
      "t": 105070.37000000034,
      "d": 281.6900000000023,
      "v": 75
    },
    {
      "midi": 72,
      "hit": false,
      "t": 105352.05999999988,
      "d": 211.26750000000175,
      "v": 94
    },
    {
      "midi": 57,
      "hit": false,
      "t": 105352.06000000016,
      "d": 281.6900000000023,
      "v": 55
    },
    {
      "midi": 69,
      "hit": false,
      "t": 105352.06000000035,
      "d": 281.6900000000023,
      "v": 75
    },
    {
      "midi": 60,
      "hit": false,
      "t": 105633.75000000016,
      "d": 281.6900000000023,
      "v": 55
    },
    {
      "midi": 72,
      "hit": false,
      "t": 105633.75000000035,
      "d": 281.6900000000023,
      "v": 75
    },
    {
      "midi": 72,
      "hit": false,
      "t": 105668.96124999988,
      "d": 387.3237499999959,
      "v": 94
    },
    {
      "midi": 57,
      "hit": false,
      "t": 105915.44000000016,
      "d": 316.90124999999534,
      "v": 55
    },
    {
      "midi": 69,
      "hit": false,
      "t": 105915.44000000035,
      "d": 281.6900000000023,
      "v": 75
    },
    {
      "midi": 52,
      "hit": false,
      "t": 106197.13000000016,
      "d": 316.9012499999808,
      "v": 55
    },
    {
      "midi": 64,
      "hit": false,
      "t": 106197.13000000035,
      "d": 281.6900000000023,
      "v": 75
    },
    {
      "midi": 72,
      "hit": false,
      "t": 106232.34124999987,
      "d": 176.05624999999418,
      "v": 94
    },
    {
      "midi": 45,
      "hit": false,
      "t": 106478.82000000036,
      "d": 2.2007031249959255,
      "v": 85
    },
    {
      "midi": 57,
      "hit": false,
      "t": 106478.82000000036,
      "d": 2.2007031249959255,
      "v": 85
    },
    {
      "midi": 72,
      "hit": false,
      "t": 106514.03124999985,
      "d": 1549.2949999999983,
      "v": 94
    },
    {
      "midi": 45,
      "hit": false,
      "t": 106514.03125000015,
      "d": 246.47874999999476,
      "v": 65
    },
    {
      "midi": 33,
      "hit": false,
      "t": 106514.03125000015,
      "d": 1690.1399999999994,
      "v": 65
    },
    {
      "midi": 48,
      "hit": false,
      "t": 106760.51000000014,
      "d": 281.6900000000023,
      "v": 55
    },
    {
      "midi": 60,
      "hit": false,
      "t": 106760.51000000036,
      "d": 281.6900000000023,
      "v": 75
    },
    {
      "midi": 52,
      "hit": false,
      "t": 107042.20000000014,
      "d": 281.6900000000023,
      "v": 55
    },
    {
      "midi": 64,
      "hit": false,
      "t": 107042.20000000036,
      "d": 281.6900000000023,
      "v": 75
    },
    {
      "midi": 57,
      "hit": false,
      "t": 107323.89000000014,
      "d": 281.6900000000023,
      "v": 55
    },
    {
      "midi": 69,
      "hit": false,
      "t": 107323.89000000036,
      "d": 281.6900000000023,
      "v": 75
    },
    {
      "midi": 52,
      "hit": false,
      "t": 107605.58000000015,
      "d": 281.6900000000023,
      "v": 55
    },
    {
      "midi": 64,
      "hit": false,
      "t": 107605.58000000037,
      "d": 281.6900000000023,
      "v": 75
    },
    {
      "midi": 48,
      "hit": false,
      "t": 107887.27000000015,
      "d": 316.90124999999534,
      "v": 55
    },
    {
      "midi": 60,
      "hit": false,
      "t": 107887.27000000037,
      "d": 316.90124999999534,
      "v": 75
    },
    {
      "midi": 74,
      "hit": false,
      "t": 108204.17124999985,
      "d": 1338.0274999999965,
      "v": 94
    },
    {
      "midi": 54,
      "hit": false,
      "t": 108204.17125000014,
      "d": 246.47874999999476,
      "v": 55
    },
    {
      "midi": 38,
      "hit": false,
      "t": 108204.17125000014,
      "d": 1654.9287499999919,
      "v": 65
    },
    {
      "midi": 50,
      "hit": false,
      "t": 108204.17125000014,
      "d": 1654.9287499999919,
      "v": 65
    },
    {
      "midi": 66,
      "hit": false,
      "t": 108204.17125000036,
      "d": 246.47874999999476,
      "v": 75
    },
    {
      "midi": 57,
      "hit": false,
      "t": 108450.65000000014,
      "d": 281.6900000000023,
      "v": 55
    },
    {
      "midi": 69,
      "hit": false,
      "t": 108450.65000000036,
      "d": 281.6900000000023,
      "v": 75
    },
    {
      "midi": 62,
      "hit": false,
      "t": 108732.34000000014,
      "d": 281.6900000000023,
      "v": 55
    },
    {
      "midi": 74,
      "hit": false,
      "t": 108732.34000000036,
      "d": 281.6900000000023,
      "v": 75
    },
    {
      "midi": 66,
      "hit": false,
      "t": 109014.03000000014,
      "d": 281.6900000000023,
      "v": 55
    },
    {
      "midi": 78,
      "hit": false,
      "t": 109014.03000000036,
      "d": 281.6900000000023,
      "v": 75
    },
    {
      "midi": 62,
      "hit": false,
      "t": 109295.72000000015,
      "d": 316.90124999999534,
      "v": 55
    },
    {
      "midi": 74,
      "hit": false,
      "t": 109295.72000000036,
      "d": 281.6900000000023,
      "v": 75
    },
    {
      "midi": 69,
      "hit": false,
      "t": 109577.41000000037,
      "d": 281.6900000000023,
      "v": 75
    },
    {
      "midi": 74,
      "hit": false,
      "t": 109612.62124999985,
      "d": 176.05624999999418,
      "v": 94
    },
    {
      "midi": 57,
      "hit": false,
      "t": 109612.62125000014,
      "d": 281.6899999999878,
      "v": 55
    },
    {
      "midi": 50,
      "hit": false,
      "t": 109859.10000000037,
      "d": 2.2007031249959255,
      "v": 85
    },
    {
      "midi": 62,
      "hit": false,
      "t": 109859.10000000037,
      "d": 2.2007031249959255,
      "v": 85
    },
    {
      "midi": 74,
      "hit": false,
      "t": 109894.31124999984,
      "d": 774.6475000000064,
      "v": 94
    },
    {
      "midi": 50,
      "hit": false,
      "t": 109894.31125000013,
      "d": 246.47874999999476,
      "v": 65
    },
    {
      "midi": 38,
      "hit": false,
      "t": 109894.31125000013,
      "d": 1690.1399999999994,
      "v": 65
    },
    {
      "midi": 54,
      "hit": false,
      "t": 110140.79000000012,
      "d": 281.6900000000023,
      "v": 55
    },
    {
      "midi": 66,
      "hit": false,
      "t": 110140.79000000037,
      "d": 281.6900000000023,
      "v": 75
    },
    {
      "midi": 57,
      "hit": false,
      "t": 110422.48000000013,
      "d": 281.6900000000023,
      "v": 55
    },
    {
      "midi": 69,
      "hit": false,
      "t": 110422.48000000037,
      "d": 281.6900000000023,
      "v": 75
    },
    {
      "midi": 62,
      "hit": false,
      "t": 110704.17000000013,
      "d": 281.6900000000023,
      "v": 55
    },
    {
      "midi": 74,
      "hit": false,
      "t": 110704.17000000038,
      "d": 281.6900000000023,
      "v": 75
    },
    {
      "midi": 74,
      "hit": false,
      "t": 110739.38124999985,
      "d": 176.05624999999418,
      "v": 94
    },
    {
      "midi": 74,
      "hit": false,
      "t": 110985.85999999984,
      "d": 211.26750000000175,
      "v": 94
    },
    {
      "midi": 57,
      "hit": false,
      "t": 110985.86000000013,
      "d": 316.90124999999534,
      "v": 55
    },
    {
      "midi": 69,
      "hit": false,
      "t": 110985.86000000038,
      "d": 281.6900000000023,
      "v": 75
    },
    {
      "midi": 54,
      "hit": false,
      "t": 111267.55000000013,
      "d": 316.90124999999534,
      "v": 55
    },
    {
      "midi": 66,
      "hit": false,
      "t": 111267.55000000038,
      "d": 316.90124999999534,
      "v": 75
    },
    {
      "midi": 76,
      "hit": false,
      "t": 111302.76124999984,
      "d": 176.05624999999418,
      "v": 94
    },
    {
      "midi": 71,
      "hit": false,
      "t": 111584.45124999982,
      "d": 2429.5762499999983,
      "v": 94
    },
    {
      "midi": 59,
      "hit": false,
      "t": 111584.45125000013,
      "d": 246.47874999999476,
      "v": 55
    },
    {
      "midi": 43,
      "hit": false,
      "t": 111584.45125000013,
      "d": 1654.9287500000064,
      "v": 65
    },
    {
      "midi": 55,
      "hit": false,
      "t": 111584.45125000013,
      "d": 1654.9287500000064,
      "v": 65
    },
    {
      "midi": 71,
      "hit": false,
      "t": 111584.45125000038,
      "d": 246.47874999999476,
      "v": 75
    },
    {
      "midi": 55,
      "hit": false,
      "t": 111584.45125000038,
      "d": 1654.9287500000064,
      "v": 85
    },
    {
      "midi": 67,
      "hit": false,
      "t": 111584.45125000038,
      "d": 1654.9287500000064,
      "v": 85
    },
    {
      "midi": 62,
      "hit": false,
      "t": 111830.93000000012,
      "d": 281.6900000000023,
      "v": 55
    },
    {
      "midi": 74,
      "hit": false,
      "t": 111830.93000000037,
      "d": 281.6900000000023,
      "v": 75
    },
    {
      "midi": 67,
      "hit": false,
      "t": 112112.62000000013,
      "d": 281.6900000000023,
      "v": 55
    },
    {
      "midi": 79,
      "hit": false,
      "t": 112112.62000000037,
      "d": 281.6900000000023,
      "v": 75
    },
    {
      "midi": 71,
      "hit": false,
      "t": 112394.31000000013,
      "d": 281.6900000000023,
      "v": 55
    },
    {
      "midi": 83,
      "hit": false,
      "t": 112394.31000000038,
      "d": 281.6900000000023,
      "v": 75
    },
    {
      "midi": 67,
      "hit": false,
      "t": 112676.00000000013,
      "d": 281.6900000000023,
      "v": 55
    },
    {
      "midi": 79,
      "hit": false,
      "t": 112676.00000000038,
      "d": 281.6900000000023,
      "v": 75
    },
    {
      "midi": 62,
      "hit": false,
      "t": 112957.69000000013,
      "d": 316.90124999999534,
      "v": 55
    },
    {
      "midi": 74,
      "hit": false,
      "t": 112957.69000000038,
      "d": 316.90124999999534,
      "v": 75
    },
    {
      "midi": 59,
      "hit": false,
      "t": 113239.38000000038,
      "d": 281.6899999999878,
      "v": 85
    },
    {
      "midi": 47,
      "hit": false,
      "t": 113274.59125000013,
      "d": 246.47874999999476,
      "v": 65
    },
    {
      "midi": 51,
      "hit": false,
      "t": 113521.07000000012,
      "d": 281.6900000000023,
      "v": 55
    },
    {
      "midi": 63,
      "hit": false,
      "t": 113521.07000000037,
      "d": 281.6900000000023,
      "v": 75
    },
    {
      "midi": 54,
      "hit": false,
      "t": 113802.76000000013,
      "d": 281.6900000000023,
      "v": 55
    },
    {
      "midi": 66,
      "hit": false,
      "t": 113802.76000000037,
      "d": 281.6900000000023,
      "v": 75
    },
    {
      "midi": 59,
      "hit": false,
      "t": 114084.45000000013,
      "d": 281.6900000000023,
      "v": 55
    },
    {
      "midi": 71,
      "hit": false,
      "t": 114084.45000000038,
      "d": 281.6900000000023,
      "v": 75
    },
    {
      "midi": 54,
      "hit": false,
      "t": 114366.14000000013,
      "d": 316.90124999999534,
      "v": 55
    },
    {
      "midi": 66,
      "hit": false,
      "t": 114366.14000000038,
      "d": 281.6900000000023,
      "v": 75
    },
    {
      "midi": 71,
      "hit": false,
      "t": 114401.35124999982,
      "d": 176.05624999999418,
      "v": 94
    },
    {
      "midi": 51,
      "hit": false,
      "t": 114647.83000000013,
      "d": 316.90124999999534,
      "v": 55
    },
    {
      "midi": 63,
      "hit": false,
      "t": 114647.83000000038,
      "d": 316.90124999999534,
      "v": 75
    },
    {
      "midi": 71,
      "hit": false,
      "t": 114683.0412499998,
      "d": 176.05624999999418,
      "v": 94
    },
    {
      "midi": 74,
      "hit": false,
      "t": 114964.7312499998,
      "d": 2429.5762499999983,
      "v": 94
    },
    {
      "midi": 50,
      "hit": false,
      "t": 114964.73125000013,
      "d": 246.47874999999476,
      "v": 55
    },
    {
      "midi": 62,
      "hit": false,
      "t": 114964.73125000038,
      "d": 246.47874999999476,
      "v": 75
    },
    {
      "midi": 54,
      "hit": false,
      "t": 115211.21000000012,
      "d": 281.6900000000023,
      "v": 55
    },
    {
      "midi": 66,
      "hit": false,
      "t": 115211.21000000037,
      "d": 281.6900000000023,
      "v": 75
    },
    {
      "midi": 59,
      "hit": false,
      "t": 115492.90000000013,
      "d": 281.6900000000023,
      "v": 55
    },
    {
      "midi": 71,
      "hit": false,
      "t": 115492.90000000037,
      "d": 281.6900000000023,
      "v": 75
    },
    {
      "midi": 62,
      "hit": false,
      "t": 115774.59000000013,
      "d": 281.6900000000023,
      "v": 55
    },
    {
      "midi": 74,
      "hit": false,
      "t": 115774.59000000037,
      "d": 281.6900000000023,
      "v": 75
    },
    {
      "midi": 59,
      "hit": false,
      "t": 116056.28000000013,
      "d": 281.6900000000023,
      "v": 55
    },
    {
      "midi": 71,
      "hit": false,
      "t": 116056.28000000038,
      "d": 281.6900000000023,
      "v": 75
    },
    {
      "midi": 54,
      "hit": false,
      "t": 116337.97000000013,
      "d": 316.90124999999534,
      "v": 55
    },
    {
      "midi": 66,
      "hit": false,
      "t": 116337.97000000038,
      "d": 281.6900000000023,
      "v": 75
    },
    {
      "midi": 35,
      "hit": false,
      "t": 116619.66000000013,
      "d": 2.2007031249959255,
      "v": 65
    },
    {
      "midi": 47,
      "hit": false,
      "t": 116619.66000000013,
      "d": 2.2007031249959255,
      "v": 65
    },
    {
      "midi": 47,
      "hit": false,
      "t": 116619.66000000038,
      "d": 2.2007031249959255,
      "v": 85
    },
    {
      "midi": 59,
      "hit": false,
      "t": 116619.66000000038,
      "d": 2.2007031249959255,
      "v": 85
    },
    {
      "midi": 50,
      "hit": false,
      "t": 116901.35000000012,
      "d": 281.6900000000023,
      "v": 55
    },
    {
      "midi": 62,
      "hit": false,
      "t": 116901.35000000038,
      "d": 281.6900000000023,
      "v": 75
    },
    {
      "midi": 54,
      "hit": false,
      "t": 117183.04000000012,
      "d": 281.6900000000023,
      "v": 55
    },
    {
      "midi": 66,
      "hit": false,
      "t": 117183.04000000039,
      "d": 281.6900000000023,
      "v": 75
    },
    {
      "midi": 74,
      "hit": false,
      "t": 117464.72999999979,
      "d": 211.26750000000175,
      "v": 94
    },
    {
      "midi": 59,
      "hit": false,
      "t": 117464.73000000013,
      "d": 281.6900000000023,
      "v": 55
    },
    {
      "midi": 71,
      "hit": false,
      "t": 117464.73000000039,
      "d": 281.6900000000023,
      "v": 75
    },
    {
      "midi": 74,
      "hit": false,
      "t": 117746.4199999998,
      "d": 211.26750000000175,
      "v": 94
    },
    {
      "midi": 54,
      "hit": false,
      "t": 117746.42000000013,
      "d": 281.6900000000023,
      "v": 55
    },
    {
      "midi": 66,
      "hit": false,
      "t": 117746.42000000039,
      "d": 281.6900000000023,
      "v": 75
    },
    {
      "midi": 50,
      "hit": false,
      "t": 118028.11000000013,
      "d": 316.90124999999534,
      "v": 55
    },
    {
      "midi": 62,
      "hit": false,
      "t": 118028.1100000004,
      "d": 316.90124999999534,
      "v": 75
    },
    {
      "midi": 72,
      "hit": false,
      "t": 118063.32124999979,
      "d": 176.05624999999418,
      "v": 94
    },
    {
      "midi": 71,
      "hit": false,
      "t": 118345.01124999978,
      "d": 3309.8574999999983,
      "v": 94
    },
    {
      "midi": 55,
      "hit": false,
      "t": 118345.01125000013,
      "d": 246.47874999999476,
      "v": 55
    },
    {
      "midi": 67,
      "hit": false,
      "t": 118345.01125000039,
      "d": 246.47874999999476,
      "v": 75
    },
    {
      "midi": 59,
      "hit": false,
      "t": 118591.49000000012,
      "d": 281.6900000000023,
      "v": 55
    },
    {
      "midi": 71,
      "hit": false,
      "t": 118591.49000000038,
      "d": 281.6900000000023,
      "v": 75
    },
    {
      "midi": 64,
      "hit": false,
      "t": 118873.18000000012,
      "d": 281.6900000000023,
      "v": 55
    },
    {
      "midi": 76,
      "hit": false,
      "t": 118873.18000000039,
      "d": 281.6900000000023,
      "v": 75
    },
    {
      "midi": 67,
      "hit": false,
      "t": 119154.87000000013,
      "d": 281.6900000000023,
      "v": 55
    },
    {
      "midi": 79,
      "hit": false,
      "t": 119154.87000000039,
      "d": 281.6900000000023,
      "v": 75
    },
    {
      "midi": 64,
      "hit": false,
      "t": 119436.56000000013,
      "d": 281.6900000000023,
      "v": 55
    },
    {
      "midi": 76,
      "hit": false,
      "t": 119436.56000000039,
      "d": 281.6900000000023,
      "v": 75
    },
    {
      "midi": 59,
      "hit": false,
      "t": 119718.25000000013,
      "d": 316.90124999999534,
      "v": 55
    },
    {
      "midi": 71,
      "hit": false,
      "t": 119718.2500000004,
      "d": 281.6900000000023,
      "v": 75
    },
    {
      "midi": 40,
      "hit": false,
      "t": 119999.94000000013,
      "d": 2.2007031249959255,
      "v": 65
    },
    {
      "midi": 52,
      "hit": false,
      "t": 119999.94000000013,
      "d": 2.2007031249959255,
      "v": 65
    },
    {
      "midi": 52,
      "hit": false,
      "t": 119999.9400000004,
      "d": 2.2007031249959255,
      "v": 85
    },
    {
      "midi": 64,
      "hit": false,
      "t": 119999.9400000004,
      "d": 2.2007031249959255,
      "v": 85
    },
    {
      "midi": 55,
      "hit": false,
      "t": 120281.63000000012,
      "d": 281.6900000000023,
      "v": 55
    },
    {
      "midi": 67,
      "hit": false,
      "t": 120281.6300000004,
      "d": 281.6900000000023,
      "v": 75
    },
    {
      "midi": 59,
      "hit": false,
      "t": 120563.32000000012,
      "d": 281.6900000000023,
      "v": 55
    },
    {
      "midi": 71,
      "hit": false,
      "t": 120563.3200000004,
      "d": 281.6900000000023,
      "v": 75
    },
    {
      "midi": 64,
      "hit": false,
      "t": 120845.01000000013,
      "d": 281.6900000000023,
      "v": 55
    },
    {
      "midi": 76,
      "hit": false,
      "t": 120845.0100000004,
      "d": 281.6900000000023,
      "v": 75
    },
    {
      "midi": 59,
      "hit": false,
      "t": 121126.70000000013,
      "d": 281.6900000000023,
      "v": 55
    },
    {
      "midi": 71,
      "hit": false,
      "t": 121126.7000000004,
      "d": 281.6900000000023,
      "v": 75
    },
    {
      "midi": 55,
      "hit": false,
      "t": 121408.39000000013,
      "d": 1971.8300000000017,
      "v": 55
    },
    {
      "midi": 67,
      "hit": false,
      "t": 121408.3900000004,
      "d": 1971.8300000000163,
      "v": 75
    },
    {
      "midi": 71,
      "hit": false,
      "t": 121690.08000000041,
      "d": 281.6900000000023,
      "v": 75
    },
    {
      "midi": 55,
      "hit": false,
      "t": 121690.08000000041,
      "d": 1690.140000000014,
      "v": 85
    },
    {
      "midi": 67,
      "hit": false,
      "t": 121725.29124999978,
      "d": 387.3237499999959,
      "v": 94
    },
    {
      "midi": 59,
      "hit": false,
      "t": 121725.29125000013,
      "d": 246.47874999999476,
      "v": 55
    },
    {
      "midi": 43,
      "hit": false,
      "t": 121725.29125000013,
      "d": 1654.9287500000064,
      "v": 65
    },
    {
      "midi": 62,
      "hit": false,
      "t": 121971.77000000012,
      "d": 281.6900000000023,
      "v": 55
    },
    {
      "midi": 74,
      "hit": false,
      "t": 121971.77000000041,
      "d": 281.6900000000023,
      "v": 75
    },
    {
      "midi": 67,
      "hit": false,
      "t": 122253.45999999977,
      "d": 809.8587499999994,
      "v": 94
    },
    {
      "midi": 67,
      "hit": false,
      "t": 122253.46000000012,
      "d": 281.6900000000023,
      "v": 55
    },
    {
      "midi": 79,
      "hit": false,
      "t": 122253.46000000041,
      "d": 281.6900000000023,
      "v": 75
    },
    {
      "midi": 71,
      "hit": false,
      "t": 122535.15000000013,
      "d": 281.6900000000023,
      "v": 55
    },
    {
      "midi": 83,
      "hit": false,
      "t": 122535.15000000042,
      "d": 281.6900000000023,
      "v": 75
    },
    {
      "midi": 67,
      "hit": false,
      "t": 122816.84000000013,
      "d": 281.6900000000023,
      "v": 55
    },
    {
      "midi": 79,
      "hit": false,
      "t": 122816.84000000042,
      "d": 281.6900000000023,
      "v": 75
    },
    {
      "midi": 62,
      "hit": false,
      "t": 123098.53000000013,
      "d": 316.90124999999534,
      "v": 55
    },
    {
      "midi": 74,
      "hit": false,
      "t": 123098.53000000042,
      "d": 316.90124999999534,
      "v": 75
    },
    {
      "midi": 67,
      "hit": false,
      "t": 123133.74124999977,
      "d": 176.05624999999418,
      "v": 94
    },
    {
      "midi": 59,
      "hit": false,
      "t": 123380.22000000042,
      "d": 281.6899999999878,
      "v": 85
    },
    {
      "midi": 71,
      "hit": false,
      "t": 123415.43124999976,
      "d": 1549.2949999999983,
      "v": 94
    },
    {
      "midi": 47,
      "hit": false,
      "t": 123415.43125000013,
      "d": 246.47874999999476,
      "v": 65
    },
    {
      "midi": 35,
      "hit": false,
      "t": 123415.43125000013,
      "d": 1690.1399999999994,
      "v": 65
    },
    {
      "midi": 47,
      "hit": false,
      "t": 123415.43125000042,
      "d": 1690.1399999999994,
      "v": 85
    },
    {
      "midi": 51,
      "hit": false,
      "t": 123661.91000000012,
      "d": 281.6900000000023,
      "v": 55
    },
    {
      "midi": 63,
      "hit": false,
      "t": 123661.91000000041,
      "d": 281.6900000000023,
      "v": 75
    },
    {
      "midi": 54,
      "hit": false,
      "t": 123943.60000000012,
      "d": 281.6900000000023,
      "v": 55
    },
    {
      "midi": 66,
      "hit": false,
      "t": 123943.60000000041,
      "d": 281.6900000000023,
      "v": 75
    },
    {
      "midi": 59,
      "hit": false,
      "t": 124225.29000000012,
      "d": 281.6900000000023,
      "v": 55
    },
    {
      "midi": 71,
      "hit": false,
      "t": 124225.29000000042,
      "d": 281.6900000000023,
      "v": 75
    },
    {
      "midi": 54,
      "hit": false,
      "t": 124506.98000000013,
      "d": 281.6900000000023,
      "v": 55
    },
    {
      "midi": 66,
      "hit": false,
      "t": 124506.98000000042,
      "d": 281.6900000000023,
      "v": 75
    },
    {
      "midi": 51,
      "hit": false,
      "t": 124788.67000000013,
      "d": 316.90124999999534,
      "v": 55
    },
    {
      "midi": 63,
      "hit": false,
      "t": 124788.67000000042,
      "d": 316.90124999999534,
      "v": 75
    },
    {
      "midi": 64,
      "hit": false,
      "t": 125105.57124999976,
      "d": 3309.8574999999983,
      "v": 94
    },
    {
      "midi": 55,
      "hit": false,
      "t": 125105.57125000012,
      "d": 246.47874999999476,
      "v": 55
    },
    {
      "midi": 40,
      "hit": false,
      "t": 125105.57125000012,
      "d": 1654.9287500000064,
      "v": 65
    },
    {
      "midi": 52,
      "hit": false,
      "t": 125105.57125000012,
      "d": 1654.9287500000064,
      "v": 65
    },
    {
      "midi": 67,
      "hit": false,
      "t": 125105.57125000042,
      "d": 246.47874999999476,
      "v": 75
    },
    {
      "midi": 59,
      "hit": false,
      "t": 125352.05000000012,
      "d": 281.6900000000023,
      "v": 55
    },
    {
      "midi": 71,
      "hit": false,
      "t": 125352.05000000041,
      "d": 281.6900000000023,
      "v": 75
    },
    {
      "midi": 64,
      "hit": false,
      "t": 125633.74000000012,
      "d": 281.6900000000023,
      "v": 55
    },
    {
      "midi": 76,
      "hit": false,
      "t": 125633.74000000041,
      "d": 281.6900000000023,
      "v": 75
    },
    {
      "midi": 67,
      "hit": false,
      "t": 125915.43000000012,
      "d": 281.6900000000023,
      "v": 55
    },
    {
      "midi": 79,
      "hit": false,
      "t": 125915.43000000042,
      "d": 281.6900000000023,
      "v": 75
    },
    {
      "midi": 64,
      "hit": false,
      "t": 126197.12000000013,
      "d": 281.6900000000023,
      "v": 55
    },
    {
      "midi": 76,
      "hit": false,
      "t": 126197.12000000042,
      "d": 281.6900000000023,
      "v": 75
    },
    {
      "midi": 59,
      "hit": false,
      "t": 126478.81000000013,
      "d": 316.90124999999534,
      "v": 55
    },
    {
      "midi": 71,
      "hit": false,
      "t": 126478.81000000042,
      "d": 281.6900000000023,
      "v": 75
    },
    {
      "midi": 52,
      "hit": false,
      "t": 126760.50000000042,
      "d": 2.2007031249959255,
      "v": 85
    },
    {
      "midi": 64,
      "hit": false,
      "t": 126760.50000000042,
      "d": 2.2007031249959255,
      "v": 85
    },
    {
      "midi": 52,
      "hit": false,
      "t": 126795.71125000012,
      "d": 246.47874999999476,
      "v": 65
    },
    {
      "midi": 40,
      "hit": false,
      "t": 126795.71125000012,
      "d": 3345.068750000006,
      "v": 65
    },
    {
      "midi": 55,
      "hit": false,
      "t": 127042.19000000012,
      "d": 281.6900000000023,
      "v": 55
    },
    {
      "midi": 67,
      "hit": false,
      "t": 127042.19000000042,
      "d": 281.6900000000023,
      "v": 75
    },
    {
      "midi": 59,
      "hit": false,
      "t": 127323.88000000012,
      "d": 281.6900000000023,
      "v": 55
    },
    {
      "midi": 71,
      "hit": false,
      "t": 127323.88000000043,
      "d": 281.6900000000023,
      "v": 75
    },
    {
      "midi": 64,
      "hit": false,
      "t": 127605.57000000012,
      "d": 281.6900000000023,
      "v": 55
    },
    {
      "midi": 76,
      "hit": false,
      "t": 127605.57000000043,
      "d": 281.6900000000023,
      "v": 75
    },
    {
      "midi": 59,
      "hit": false,
      "t": 127887.26000000013,
      "d": 316.90124999999534,
      "v": 55
    },
    {
      "midi": 71,
      "hit": false,
      "t": 127887.26000000043,
      "d": 281.6900000000023,
      "v": 75
    },
    {
      "midi": 55,
      "hit": false,
      "t": 128168.95000000013,
      "d": 563.3799999999901,
      "v": 55
    },
    {
      "midi": 67,
      "hit": false,
      "t": 128168.95000000043,
      "d": 563.3800000000047,
      "v": 75
    },
    {
      "midi": 59,
      "hit": false,
      "t": 128732.33000000012,
      "d": 281.6900000000023,
      "v": 55
    },
    {
      "midi": 71,
      "hit": false,
      "t": 128732.33000000044,
      "d": 281.6900000000023,
      "v": 75
    },
    {
      "midi": 64,
      "hit": false,
      "t": 129014.02000000012,
      "d": 281.6900000000023,
      "v": 55
    },
    {
      "midi": 76,
      "hit": false,
      "t": 129014.02000000044,
      "d": 281.6900000000023,
      "v": 75
    },
    {
      "midi": 67,
      "hit": false,
      "t": 129295.71000000012,
      "d": 281.6900000000023,
      "v": 55
    },
    {
      "midi": 79,
      "hit": false,
      "t": 129295.71000000044,
      "d": 281.6900000000023,
      "v": 75
    },
    {
      "midi": 64,
      "hit": false,
      "t": 129577.40000000013,
      "d": 281.6900000000023,
      "v": 55
    },
    {
      "midi": 76,
      "hit": false,
      "t": 129577.40000000045,
      "d": 281.6900000000023,
      "v": 75
    },
    {
      "midi": 59,
      "hit": false,
      "t": 129859.09000000013,
      "d": 316.90124999999534,
      "v": 55
    },
    {
      "midi": 71,
      "hit": false,
      "t": 129859.09000000045,
      "d": 281.6900000000023,
      "v": 75
    },
    {
      "midi": 52,
      "hit": false,
      "t": 130140.78000000013,
      "d": 2.2007031249959255,
      "v": 65
    },
    {
      "midi": 52,
      "hit": false,
      "t": 130140.78000000045,
      "d": 2.2007031249959255,
      "v": 85
    },
    {
      "midi": 64,
      "hit": false,
      "t": 130140.78000000045,
      "d": 2.2007031249959255,
      "v": 85
    },
    {
      "midi": 40,
      "hit": false,
      "t": 130175.99125000012,
      "d": 1690.1399999999994,
      "v": 65
    },
    {
      "midi": 55,
      "hit": false,
      "t": 130422.47000000012,
      "d": 281.6900000000023,
      "v": 55
    },
    {
      "midi": 67,
      "hit": false,
      "t": 130422.47000000045,
      "d": 281.6900000000023,
      "v": 75
    },
    {
      "midi": 59,
      "hit": false,
      "t": 130704.16000000012,
      "d": 281.6900000000023,
      "v": 55
    },
    {
      "midi": 71,
      "hit": false,
      "t": 130704.16000000045,
      "d": 281.6900000000023,
      "v": 75
    },
    {
      "midi": 64,
      "hit": false,
      "t": 130985.85000000012,
      "d": 281.6900000000023,
      "v": 55
    },
    {
      "midi": 76,
      "hit": false,
      "t": 130985.85000000046,
      "d": 281.6899999999878,
      "v": 75
    },
    {
      "midi": 59,
      "hit": false,
      "t": 131267.54000000012,
      "d": 316.90124999999534,
      "v": 55
    },
    {
      "midi": 71,
      "hit": false,
      "t": 131267.54000000044,
      "d": 281.6900000000023,
      "v": 75
    },
    {
      "midi": 67,
      "hit": false,
      "t": 131549.23000000045,
      "d": 316.90124999999534,
      "v": 75
    },
    {
      "midi": 55,
      "hit": false,
      "t": 131584.44125000012,
      "d": 281.6900000000023,
      "v": 55
    },
    {
      "midi": 48,
      "hit": false,
      "t": 131866.13125000012,
      "d": 246.4787500000093,
      "v": 55
    },
    {
      "midi": 33,
      "hit": false,
      "t": 131866.13125000012,
      "d": 1654.928750000021,
      "v": 65
    },
    {
      "midi": 60,
      "hit": false,
      "t": 131866.13125000044,
      "d": 246.4787500000093,
      "v": 75
    },
    {
      "midi": 52,
      "hit": false,
      "t": 132112.61000000013,
      "d": 281.6900000000023,
      "v": 55
    },
    {
      "midi": 64,
      "hit": false,
      "t": 132112.61000000045,
      "d": 281.6900000000023,
      "v": 75
    },
    {
      "midi": 57,
      "hit": false,
      "t": 132394.30000000013,
      "d": 316.90124999999534,
      "v": 55
    },
    {
      "midi": 69,
      "hit": false,
      "t": 132394.30000000045,
      "d": 281.6900000000023,
      "v": 75
    },
    {
      "midi": 60,
      "hit": false,
      "t": 132675.99000000014,
      "d": 281.6900000000023,
      "v": 55
    },
    {
      "midi": 72,
      "hit": false,
      "t": 132675.99000000046,
      "d": 281.6900000000023,
      "v": 75
    },
    {
      "midi": 57,
      "hit": false,
      "t": 132957.68000000014,
      "d": 281.6900000000023,
      "v": 55
    },
    {
      "midi": 69,
      "hit": false,
      "t": 132957.68000000046,
      "d": 281.6900000000023,
      "v": 75
    },
    {
      "midi": 52,
      "hit": false,
      "t": 133239.37000000014,
      "d": 316.90125000002445,
      "v": 55
    },
    {
      "midi": 64,
      "hit": false,
      "t": 133239.37000000046,
      "d": 281.6900000000023,
      "v": 75
    },
    {
      "midi": 45,
      "hit": false,
      "t": 133521.06000000014,
      "d": 2.2007031250104774,
      "v": 65
    },
    {
      "midi": 45,
      "hit": false,
      "t": 133521.06000000046,
      "d": 2.2007031250104774,
      "v": 85
    },
    {
      "midi": 57,
      "hit": false,
      "t": 133521.06000000046,
      "d": 2.2007031250104774,
      "v": 85
    },
    {
      "midi": 33,
      "hit": false,
      "t": 133556.27125000017,
      "d": 1690.140000000014,
      "v": 65
    },
    {
      "midi": 48,
      "hit": false,
      "t": 133802.75000000017,
      "d": 281.6900000000023,
      "v": 55
    },
    {
      "midi": 60,
      "hit": false,
      "t": 133802.75000000047,
      "d": 281.6900000000023,
      "v": 75
    },
    {
      "midi": 52,
      "hit": false,
      "t": 134084.44000000018,
      "d": 316.90124999999534,
      "v": 55
    },
    {
      "midi": 64,
      "hit": false,
      "t": 134084.44000000047,
      "d": 281.6900000000023,
      "v": 75
    },
    {
      "midi": 57,
      "hit": false,
      "t": 134366.13000000018,
      "d": 316.90124999999534,
      "v": 55
    },
    {
      "midi": 69,
      "hit": false,
      "t": 134366.13000000047,
      "d": 281.6900000000023,
      "v": 75
    },
    {
      "midi": 52,
      "hit": false,
      "t": 134647.82000000018,
      "d": 316.90124999999534,
      "v": 55
    },
    {
      "midi": 64,
      "hit": false,
      "t": 134647.82000000047,
      "d": 281.6900000000023,
      "v": 75
    },
    {
      "midi": 48,
      "hit": false,
      "t": 134929.51000000018,
      "d": 316.90124999999534,
      "v": 55
    },
    {
      "midi": 60,
      "hit": false,
      "t": 134929.51000000047,
      "d": 316.90124999999534,
      "v": 75
    },
    {
      "midi": 55,
      "hit": false,
      "t": 135246.41125000018,
      "d": 246.4787500000093,
      "v": 55
    },
    {
      "midi": 40,
      "hit": false,
      "t": 135246.41125000018,
      "d": 1654.928750000021,
      "v": 65
    },
    {
      "midi": 67,
      "hit": false,
      "t": 135246.41125000047,
      "d": 246.4787500000093,
      "v": 75
    },
    {
      "midi": 59,
      "hit": false,
      "t": 135492.8900000002,
      "d": 281.6900000000023,
      "v": 55
    },
    {
      "midi": 71,
      "hit": false,
      "t": 135492.89000000048,
      "d": 281.6900000000023,
      "v": 75
    },
    {
      "midi": 64,
      "hit": false,
      "t": 135774.5800000002,
      "d": 281.6900000000023,
      "v": 55
    },
    {
      "midi": 76,
      "hit": false,
      "t": 135774.58000000048,
      "d": 281.6900000000023,
      "v": 75
    },
    {
      "midi": 67,
      "hit": false,
      "t": 136056.2700000002,
      "d": 281.6900000000023,
      "v": 55
    },
    {
      "midi": 79,
      "hit": false,
      "t": 136056.27000000048,
      "d": 281.6900000000023,
      "v": 75
    },
    {
      "midi": 64,
      "hit": false,
      "t": 136337.9600000002,
      "d": 281.6900000000023,
      "v": 55
    },
    {
      "midi": 76,
      "hit": false,
      "t": 136337.9600000005,
      "d": 281.6900000000023,
      "v": 75
    },
    {
      "midi": 59,
      "hit": false,
      "t": 136619.6500000002,
      "d": 316.90125000002445,
      "v": 55
    },
    {
      "midi": 71,
      "hit": false,
      "t": 136619.6500000005,
      "d": 281.6900000000023,
      "v": 75
    },
    {
      "midi": 52,
      "hit": false,
      "t": 136901.3400000002,
      "d": 2.2007031250104774,
      "v": 65
    },
    {
      "midi": 52,
      "hit": false,
      "t": 136901.3400000005,
      "d": 2.2007031250104774,
      "v": 85
    },
    {
      "midi": 64,
      "hit": false,
      "t": 136901.3400000005,
      "d": 2.2007031250104774,
      "v": 85
    },
    {
      "midi": 40,
      "hit": false,
      "t": 136936.55125000022,
      "d": 1690.140000000014,
      "v": 65
    },
    {
      "midi": 55,
      "hit": false,
      "t": 137183.03000000023,
      "d": 281.6900000000023,
      "v": 55
    },
    {
      "midi": 67,
      "hit": false,
      "t": 137183.0300000005,
      "d": 281.6900000000023,
      "v": 75
    },
    {
      "midi": 59,
      "hit": false,
      "t": 137464.72000000023,
      "d": 281.6900000000023,
      "v": 55
    },
    {
      "midi": 71,
      "hit": false,
      "t": 137464.7200000005,
      "d": 281.6900000000023,
      "v": 75
    },
    {
      "midi": 64,
      "hit": false,
      "t": 137746.41000000024,
      "d": 281.6900000000023,
      "v": 55
    },
    {
      "midi": 76,
      "hit": false,
      "t": 137746.4100000005,
      "d": 281.6900000000023,
      "v": 75
    },
    {
      "midi": 59,
      "hit": false,
      "t": 138028.10000000024,
      "d": 316.90124999999534,
      "v": 55
    },
    {
      "midi": 71,
      "hit": false,
      "t": 138028.1000000005,
      "d": 281.6900000000023,
      "v": 75
    },
    {
      "midi": 67,
      "hit": false,
      "t": 138309.7900000005,
      "d": 316.90124999999534,
      "v": 75
    },
    {
      "midi": 55,
      "hit": false,
      "t": 138345.00125000023,
      "d": 281.6900000000023,
      "v": 55
    },
    {
      "midi": 51,
      "hit": false,
      "t": 138626.69125000024,
      "d": 246.4787500000093,
      "v": 55
    },
    {
      "midi": 35,
      "hit": false,
      "t": 138626.69125000024,
      "d": 1654.928750000021,
      "v": 65
    },
    {
      "midi": 47,
      "hit": false,
      "t": 138626.69125000024,
      "d": 1654.928750000021,
      "v": 65
    },
    {
      "midi": 63,
      "hit": false,
      "t": 138626.6912500005,
      "d": 246.4787500000093,
      "v": 75
    },
    {
      "midi": 54,
      "hit": false,
      "t": 138873.17000000025,
      "d": 281.6900000000023,
      "v": 55
    },
    {
      "midi": 66,
      "hit": false,
      "t": 138873.1700000005,
      "d": 281.6900000000023,
      "v": 75
    },
    {
      "midi": 59,
      "hit": false,
      "t": 139154.86000000025,
      "d": 316.90124999999534,
      "v": 55
    },
    {
      "midi": 71,
      "hit": false,
      "t": 139154.8600000005,
      "d": 281.6900000000023,
      "v": 75
    },
    {
      "midi": 63,
      "hit": false,
      "t": 139436.55000000025,
      "d": 281.6900000000023,
      "v": 55
    },
    {
      "midi": 75,
      "hit": false,
      "t": 139436.5500000005,
      "d": 281.6900000000023,
      "v": 75
    },
    {
      "midi": 59,
      "hit": false,
      "t": 139718.24000000025,
      "d": 316.90124999999534,
      "v": 55
    },
    {
      "midi": 71,
      "hit": false,
      "t": 139718.24000000051,
      "d": 281.6900000000023,
      "v": 75
    },
    {
      "midi": 54,
      "hit": false,
      "t": 139999.93000000025,
      "d": 316.90124999999534,
      "v": 55
    },
    {
      "midi": 66,
      "hit": false,
      "t": 139999.93000000052,
      "d": 281.6900000000023,
      "v": 75
    },
    {
      "midi": 47,
      "hit": false,
      "t": 140281.62000000052,
      "d": 2.2007031250104774,
      "v": 85
    },
    {
      "midi": 59,
      "hit": false,
      "t": 140281.62000000052,
      "d": 2.2007031250104774,
      "v": 85
    },
    {
      "midi": 47,
      "hit": false,
      "t": 140316.83125000025,
      "d": 246.4787500000093,
      "v": 65
    },
    {
      "midi": 35,
      "hit": false,
      "t": 140316.83125000025,
      "d": 1690.140000000014,
      "v": 65
    },
    {
      "midi": 51,
      "hit": false,
      "t": 140563.31000000026,
      "d": 316.90124999999534,
      "v": 55
    },
    {
      "midi": 63,
      "hit": false,
      "t": 140563.31000000052,
      "d": 281.6900000000023,
      "v": 75
    },
    {
      "midi": 66,
      "hit": false,
      "t": 140845.00000000052,
      "d": 281.6900000000023,
      "v": 75
    },
    {
      "midi": 54,
      "hit": false,
      "t": 140880.21125000025,
      "d": 281.6900000000023,
      "v": 55
    },
    {
      "midi": 59,
      "hit": false,
      "t": 141126.69000000026,
      "d": 281.6900000000023,
      "v": 55
    },
    {
      "midi": 71,
      "hit": false,
      "t": 141126.69000000053,
      "d": 281.6900000000023,
      "v": 75
    },
    {
      "midi": 54,
      "hit": false,
      "t": 141408.38000000027,
      "d": 316.90124999999534,
      "v": 55
    },
    {
      "midi": 66,
      "hit": false,
      "t": 141408.38000000053,
      "d": 281.6900000000023,
      "v": 75
    },
    {
      "midi": 63,
      "hit": false,
      "t": 141690.07000000053,
      "d": 316.90124999999534,
      "v": 75
    },
    {
      "midi": 51,
      "hit": false,
      "t": 141725.28125000026,
      "d": 281.6900000000023,
      "v": 55
    },
    {
      "midi": 55,
      "hit": false,
      "t": 142006.97125000026,
      "d": 246.4787500000093,
      "v": 55
    },
    {
      "midi": 40,
      "hit": false,
      "t": 142006.97125000026,
      "d": 1654.928750000021,
      "v": 65
    },
    {
      "midi": 52,
      "hit": false,
      "t": 142006.97125000026,
      "d": 1654.928750000021,
      "v": 65
    },
    {
      "midi": 67,
      "hit": false,
      "t": 142006.97125000053,
      "d": 246.4787500000093,
      "v": 75
    },
    {
      "midi": 52,
      "hit": false,
      "t": 142006.97125000053,
      "d": 1654.928750000021,
      "v": 85
    },
    {
      "midi": 59,
      "hit": false,
      "t": 142253.45000000027,
      "d": 281.6900000000023,
      "v": 55
    },
    {
      "midi": 71,
      "hit": false,
      "t": 142253.45000000054,
      "d": 281.6900000000023,
      "v": 75
    },
    {
      "midi": 64,
      "hit": false,
      "t": 142535.14000000028,
      "d": 281.6900000000023,
      "v": 55
    },
    {
      "midi": 76,
      "hit": false,
      "t": 142535.14000000054,
      "d": 281.6900000000023,
      "v": 75
    },
    {
      "midi": 67,
      "hit": false,
      "t": 142816.83000000028,
      "d": 281.6900000000023,
      "v": 55
    },
    {
      "midi": 79,
      "hit": false,
      "t": 142816.83000000054,
      "d": 281.6900000000023,
      "v": 75
    },
    {
      "midi": 64,
      "hit": false,
      "t": 143098.52000000028,
      "d": 316.90124999999534,
      "v": 55
    },
    {
      "midi": 76,
      "hit": false,
      "t": 143098.52000000054,
      "d": 281.6900000000023,
      "v": 75
    },
    {
      "midi": 71,
      "hit": false,
      "t": 143380.21000000054,
      "d": 316.90125000002445,
      "v": 75
    },
    {
      "midi": 59,
      "hit": false,
      "t": 143415.42125000028,
      "d": 281.6900000000023,
      "v": 55
    },
    {
      "midi": 64,
      "hit": false,
      "t": 143661.90000000055,
      "d": 2.2007031250104774,
      "v": 85
    },
    {
      "midi": 52,
      "hit": false,
      "t": 143697.11125000028,
      "d": 246.4787500000093,
      "v": 65
    },
    {
      "midi": 40,
      "hit": false,
      "t": 143697.11125000028,
      "d": 1690.140000000014,
      "v": 65
    },
    {
      "midi": 52,
      "hit": false,
      "t": 143697.11125000057,
      "d": 1690.140000000014,
      "v": 85
    },
    {
      "midi": 56,
      "hit": false,
      "t": 143943.5900000003,
      "d": 281.6900000000023,
      "v": 55
    },
    {
      "midi": 68,
      "hit": false,
      "t": 143943.59000000058,
      "d": 281.6900000000023,
      "v": 75
    },
    {
      "midi": 59,
      "hit": false,
      "t": 144225.2800000003,
      "d": 316.90124999999534,
      "v": 55
    },
    {
      "midi": 71,
      "hit": false,
      "t": 144225.28000000058,
      "d": 281.6900000000023,
      "v": 75
    },
    {
      "midi": 76,
      "hit": false,
      "t": 144506.97000000058,
      "d": 281.6900000000023,
      "v": 75
    },
    {
      "midi": 64,
      "hit": false,
      "t": 144542.18125000029,
      "d": 246.4787500000093,
      "v": 55
    },
    {
      "midi": 59,
      "hit": false,
      "t": 144788.6600000003,
      "d": 316.90124999999534,
      "v": 55
    },
    {
      "midi": 71,
      "hit": false,
      "t": 144788.6600000006,
      "d": 281.6900000000023,
      "v": 75
    },
    {
      "midi": 68,
      "hit": false,
      "t": 145070.3500000006,
      "d": 316.90124999999534,
      "v": 75
    },
    {
      "midi": 56,
      "hit": false,
      "t": 145105.5612500003,
      "d": 281.6900000000023,
      "v": 55
    },
    {
      "midi": 48,
      "hit": false,
      "t": 145387.2512500003,
      "d": 246.4787500000093,
      "v": 55
    },
    {
      "midi": 33,
      "hit": false,
      "t": 145387.2512500003,
      "d": 1654.928750000021,
      "v": 65
    },
    {
      "midi": 45,
      "hit": false,
      "t": 145387.2512500003,
      "d": 1654.928750000021,
      "v": 65
    },
    {
      "midi": 60,
      "hit": false,
      "t": 145387.25125000058,
      "d": 246.4787500000093,
      "v": 75
    },
    {
      "midi": 52,
      "hit": false,
      "t": 145633.7300000003,
      "d": 281.6900000000023,
      "v": 55
    },
    {
      "midi": 64,
      "hit": false,
      "t": 145633.7300000006,
      "d": 281.6900000000023,
      "v": 75
    },
    {
      "midi": 57,
      "hit": false,
      "t": 145915.4200000003,
      "d": 281.6900000000023,
      "v": 55
    },
    {
      "midi": 69,
      "hit": false,
      "t": 145915.4200000006,
      "d": 281.6900000000023,
      "v": 75
    },
    {
      "midi": 60,
      "hit": false,
      "t": 146197.1100000003,
      "d": 281.6900000000023,
      "v": 55
    },
    {
      "midi": 72,
      "hit": false,
      "t": 146197.1100000006,
      "d": 281.6900000000023,
      "v": 75
    },
    {
      "midi": 57,
      "hit": false,
      "t": 146478.8000000003,
      "d": 316.90124999999534,
      "v": 55
    },
    {
      "midi": 69,
      "hit": false,
      "t": 146478.8000000006,
      "d": 281.6900000000023,
      "v": 75
    },
    {
      "midi": 64,
      "hit": false,
      "t": 146760.4900000006,
      "d": 281.6900000000023,
      "v": 75
    },
    {
      "midi": 52,
      "hit": false,
      "t": 146795.7012500003,
      "d": 281.6900000000023,
      "v": 55
    },
    {
      "midi": 45,
      "hit": false,
      "t": 147042.1800000006,
      "d": 2.2007031250104774,
      "v": 85
    },
    {
      "midi": 57,
      "hit": false,
      "t": 147042.1800000006,
      "d": 2.2007031250104774,
      "v": 85
    },
    {
      "midi": 45,
      "hit": false,
      "t": 147077.3912500003,
      "d": 246.4787500000093,
      "v": 65
    },
    {
      "midi": 33,
      "hit": false,
      "t": 147077.3912500003,
      "d": 1690.140000000014,
      "v": 65
    },
    {
      "midi": 48,
      "hit": false,
      "t": 147323.87000000032,
      "d": 281.6900000000023,
      "v": 55
    },
    {
      "midi": 60,
      "hit": false,
      "t": 147323.8700000006,
      "d": 281.6900000000023,
      "v": 75
    },
    {
      "midi": 52,
      "hit": false,
      "t": 147605.56000000032,
      "d": 316.90124999999534,
      "v": 55
    },
    {
      "midi": 64,
      "hit": false,
      "t": 147605.5600000006,
      "d": 281.6900000000023,
      "v": 75
    },
    {
      "midi": 57,
      "hit": false,
      "t": 147887.25000000032,
      "d": 281.6900000000023,
      "v": 55
    },
    {
      "midi": 69,
      "hit": false,
      "t": 147887.2500000006,
      "d": 281.6900000000023,
      "v": 75
    },
    {
      "midi": 52,
      "hit": false,
      "t": 148168.94000000032,
      "d": 316.90124999999534,
      "v": 55
    },
    {
      "midi": 64,
      "hit": false,
      "t": 148168.9400000006,
      "d": 281.6900000000023,
      "v": 75
    },
    {
      "midi": 48,
      "hit": false,
      "t": 148450.63000000032,
      "d": 316.90124999999534,
      "v": 55
    },
    {
      "midi": 60,
      "hit": false,
      "t": 148450.63000000062,
      "d": 316.90124999999534,
      "v": 75
    },
    {
      "midi": 51,
      "hit": false,
      "t": 148767.53125000032,
      "d": 246.4787500000093,
      "v": 55
    },
    {
      "midi": 35,
      "hit": false,
      "t": 148767.53125000032,
      "d": 1654.928750000021,
      "v": 65
    },
    {
      "midi": 47,
      "hit": false,
      "t": 148767.53125000032,
      "d": 1654.928750000021,
      "v": 65
    },
    {
      "midi": 63,
      "hit": false,
      "t": 148767.5312500006,
      "d": 246.4787500000093,
      "v": 75
    },
    {
      "midi": 54,
      "hit": false,
      "t": 149014.01000000033,
      "d": 281.6900000000023,
      "v": 55
    },
    {
      "midi": 66,
      "hit": false,
      "t": 149014.01000000062,
      "d": 281.6900000000023,
      "v": 75
    },
    {
      "midi": 59,
      "hit": false,
      "t": 149295.70000000033,
      "d": 281.6900000000023,
      "v": 55
    },
    {
      "midi": 71,
      "hit": false,
      "t": 149295.70000000062,
      "d": 281.6900000000023,
      "v": 75
    },
    {
      "midi": 63,
      "hit": false,
      "t": 149577.39000000033,
      "d": 281.6900000000023,
      "v": 55
    },
    {
      "midi": 75,
      "hit": false,
      "t": 149577.39000000063,
      "d": 281.6900000000023,
      "v": 75
    },
    {
      "midi": 59,
      "hit": false,
      "t": 149859.08000000034,
      "d": 316.90124999999534,
      "v": 55
    },
    {
      "midi": 71,
      "hit": false,
      "t": 149859.08000000063,
      "d": 281.6900000000023,
      "v": 75
    },
    {
      "midi": 66,
      "hit": false,
      "t": 150140.77000000063,
      "d": 281.6900000000023,
      "v": 75
    },
    {
      "midi": 54,
      "hit": false,
      "t": 150175.98125000033,
      "d": 281.6900000000023,
      "v": 55
    },
    {
      "midi": 47,
      "hit": false,
      "t": 150422.46000000063,
      "d": 2.2007031250104774,
      "v": 85
    },
    {
      "midi": 59,
      "hit": false,
      "t": 150422.46000000063,
      "d": 2.2007031250104774,
      "v": 85
    },
    {
      "midi": 47,
      "hit": false,
      "t": 150457.67125000033,
      "d": 246.4787500000093,
      "v": 65
    },
    {
      "midi": 35,
      "hit": false,
      "t": 150457.67125000033,
      "d": 1690.140000000014,
      "v": 65
    },
    {
      "midi": 51,
      "hit": false,
      "t": 150704.15000000034,
      "d": 281.6900000000023,
      "v": 55
    },
    {
      "midi": 63,
      "hit": false,
      "t": 150704.15000000063,
      "d": 281.6900000000023,
      "v": 75
    },
    {
      "midi": 54,
      "hit": false,
      "t": 150985.84000000035,
      "d": 316.90124999999534,
      "v": 55
    },
    {
      "midi": 66,
      "hit": false,
      "t": 150985.84000000064,
      "d": 281.6900000000023,
      "v": 75
    },
    {
      "midi": 59,
      "hit": false,
      "t": 151267.53000000035,
      "d": 281.6900000000023,
      "v": 55
    },
    {
      "midi": 71,
      "hit": false,
      "t": 151267.53000000064,
      "d": 281.6900000000023,
      "v": 75
    },
    {
      "midi": 54,
      "hit": false,
      "t": 151549.22000000035,
      "d": 316.90124999999534,
      "v": 55
    },
    {
      "midi": 66,
      "hit": false,
      "t": 151549.22000000064,
      "d": 281.6900000000023,
      "v": 75
    },
    {
      "midi": 63,
      "hit": false,
      "t": 151830.91000000064,
      "d": 316.90124999999534,
      "v": 75
    },
    {
      "midi": 51,
      "hit": false,
      "t": 151866.12125000035,
      "d": 281.6900000000023,
      "v": 55
    },
    {
      "midi": 73,
      "hit": false,
      "t": 152112.59999999977,
      "d": 140.84500000000116,
      "v": 64
    },
    {
      "midi": 55,
      "hit": false,
      "t": 152147.81125000035,
      "d": 246.4787500000093,
      "v": 55
    },
    {
      "midi": 40,
      "hit": false,
      "t": 152147.81125000035,
      "d": 1654.928750000021,
      "v": 65
    },
    {
      "midi": 52,
      "hit": false,
      "t": 152147.81125000035,
      "d": 1654.928750000021,
      "v": 65
    },
    {
      "midi": 67,
      "hit": false,
      "t": 152147.81125000064,
      "d": 246.4787500000093,
      "v": 75
    },
    {
      "midi": 59,
      "hit": false,
      "t": 152394.29000000036,
      "d": 281.6900000000023,
      "v": 55
    },
    {
      "midi": 71,
      "hit": false,
      "t": 152394.29000000065,
      "d": 281.6900000000023,
      "v": 75
    },
    {
      "midi": 64,
      "hit": false,
      "t": 152675.98000000036,
      "d": 281.6900000000023,
      "v": 55
    },
    {
      "midi": 76,
      "hit": false,
      "t": 152675.98000000065,
      "d": 281.6900000000023,
      "v": 75
    },
    {
      "midi": 67,
      "hit": false,
      "t": 152957.67000000036,
      "d": 281.6900000000023,
      "v": 55
    },
    {
      "midi": 79,
      "hit": false,
      "t": 152957.67000000065,
      "d": 281.6900000000023,
      "v": 75
    },
    {
      "midi": 64,
      "hit": false,
      "t": 153239.36000000036,
      "d": 316.90124999999534,
      "v": 55
    },
    {
      "midi": 76,
      "hit": false,
      "t": 153239.36000000066,
      "d": 281.6900000000023,
      "v": 75
    },
    {
      "midi": 71,
      "hit": false,
      "t": 153521.05000000066,
      "d": 316.90125000002445,
      "v": 75
    },
    {
      "midi": 59,
      "hit": false,
      "t": 153556.26125000036,
      "d": 281.6900000000023,
      "v": 55
    },
    {
      "midi": 52,
      "hit": false,
      "t": 153802.74000000066,
      "d": 2.2007031250104774,
      "v": 85
    },
    {
      "midi": 64,
      "hit": false,
      "t": 153802.74000000066,
      "d": 2.2007031250104774,
      "v": 85
    },
    {
      "midi": 52,
      "hit": false,
      "t": 153837.95125000036,
      "d": 281.6900000000023,
      "v": 65
    },
    {
      "midi": 40,
      "hit": false,
      "t": 153837.95125000036,
      "d": 3345.068750000035,
      "v": 65
    },
    {
      "midi": 55,
      "hit": false,
      "t": 154084.43000000037,
      "d": 316.90124999999534,
      "v": 55
    },
    {
      "midi": 67,
      "hit": false,
      "t": 154084.4300000007,
      "d": 281.6900000000023,
      "v": 75
    },
    {
      "midi": 71,
      "hit": false,
      "t": 154366.1200000007,
      "d": 281.6900000000023,
      "v": 75
    },
    {
      "midi": 59,
      "hit": false,
      "t": 154401.33125000037,
      "d": 281.6900000000023,
      "v": 55
    },
    {
      "midi": 64,
      "hit": false,
      "t": 154647.81000000038,
      "d": 316.90124999999534,
      "v": 55
    },
    {
      "midi": 76,
      "hit": false,
      "t": 154647.8100000007,
      "d": 281.6900000000023,
      "v": 75
    },
    {
      "midi": 59,
      "hit": false,
      "t": 154929.50000000038,
      "d": 316.90124999999534,
      "v": 55
    },
    {
      "midi": 71,
      "hit": false,
      "t": 154929.5000000007,
      "d": 281.6900000000023,
      "v": 75
    },
    {
      "midi": 67,
      "hit": false,
      "t": 155211.1900000007,
      "d": 563.3800000000047,
      "v": 75
    },
    {
      "midi": 55,
      "hit": false,
      "t": 155246.40125000037,
      "d": 528.1687500000116,
      "v": 55
    },
    {
      "midi": 76,
      "hit": false,
      "t": 155528.09124999976,
      "d": 387.3237500000105,
      "v": 94
    },
    {
      "midi": 52,
      "hit": false,
      "t": 155528.09125000038,
      "d": 1654.928750000021,
      "v": 65
    },
    {
      "midi": 59,
      "hit": false,
      "t": 155774.57000000039,
      "d": 281.6900000000023,
      "v": 55
    },
    {
      "midi": 71,
      "hit": false,
      "t": 155774.5700000007,
      "d": 281.6900000000023,
      "v": 75
    },
    {
      "midi": 76,
      "hit": false,
      "t": 156056.25999999978,
      "d": 633.8024999999907,
      "v": 94
    },
    {
      "midi": 64,
      "hit": false,
      "t": 156056.2600000004,
      "d": 281.6900000000023,
      "v": 55
    },
    {
      "midi": 76,
      "hit": false,
      "t": 156056.2600000007,
      "d": 281.6900000000023,
      "v": 75
    },
    {
      "midi": 67,
      "hit": false,
      "t": 156337.9500000004,
      "d": 281.6900000000023,
      "v": 55
    },
    {
      "midi": 79,
      "hit": false,
      "t": 156337.9500000007,
      "d": 281.6900000000023,
      "v": 75
    },
    {
      "midi": 64,
      "hit": false,
      "t": 156619.6400000004,
      "d": 316.90124999999534,
      "v": 55
    },
    {
      "midi": 76,
      "hit": false,
      "t": 156619.6400000007,
      "d": 281.6900000000023,
      "v": 75
    },
    {
      "midi": 59,
      "hit": false,
      "t": 156901.3300000004,
      "d": 316.90124999999534,
      "v": 55
    },
    {
      "midi": 71,
      "hit": false,
      "t": 156901.33000000071,
      "d": 281.6900000000023,
      "v": 75
    },
    {
      "midi": 71,
      "hit": false,
      "t": 156936.54124999978,
      "d": 176.05624999999418,
      "v": 94
    },
    {
      "midi": 52,
      "hit": false,
      "t": 157183.02000000072,
      "d": 2.2007031250104774,
      "v": 85
    },
    {
      "midi": 64,
      "hit": false,
      "t": 157183.02000000072,
      "d": 2.2007031250104774,
      "v": 85
    },
    {
      "midi": 76,
      "hit": false,
      "t": 157218.23124999978,
      "d": 1549.2950000000128,
      "v": 94
    },
    {
      "midi": 52,
      "hit": false,
      "t": 157218.2312500004,
      "d": 246.4787500000093,
      "v": 65
    },
    {
      "midi": 40,
      "hit": false,
      "t": 157218.2312500004,
      "d": 1690.140000000014,
      "v": 65
    },
    {
      "midi": 55,
      "hit": false,
      "t": 157464.7100000004,
      "d": 281.6900000000023,
      "v": 55
    },
    {
      "midi": 67,
      "hit": false,
      "t": 157464.71000000072,
      "d": 281.6900000000023,
      "v": 75
    },
    {
      "midi": 59,
      "hit": false,
      "t": 157746.4000000004,
      "d": 281.6900000000023,
      "v": 55
    },
    {
      "midi": 71,
      "hit": false,
      "t": 157746.40000000072,
      "d": 281.6900000000023,
      "v": 75
    },
    {
      "midi": 64,
      "hit": false,
      "t": 158028.0900000004,
      "d": 281.6900000000023,
      "v": 55
    },
    {
      "midi": 76,
      "hit": false,
      "t": 158028.09000000072,
      "d": 281.6900000000023,
      "v": 75
    },
    {
      "midi": 59,
      "hit": false,
      "t": 158309.7800000004,
      "d": 281.6900000000023,
      "v": 55
    },
    {
      "midi": 71,
      "hit": false,
      "t": 158309.78000000073,
      "d": 281.6900000000023,
      "v": 75
    },
    {
      "midi": 55,
      "hit": false,
      "t": 158591.4700000004,
      "d": 316.90124999999534,
      "v": 55
    },
    {
      "midi": 67,
      "hit": false,
      "t": 158591.47000000073,
      "d": 316.90124999999534,
      "v": 75
    },
    {
      "midi": 48,
      "hit": false,
      "t": 158908.3712500004,
      "d": 246.4787500000093,
      "v": 55
    },
    {
      "midi": 33,
      "hit": false,
      "t": 158908.3712500004,
      "d": 1654.928750000021,
      "v": 65
    },
    {
      "midi": 45,
      "hit": false,
      "t": 158908.3712500004,
      "d": 1654.928750000021,
      "v": 65
    },
    {
      "midi": 60,
      "hit": false,
      "t": 158908.37125000072,
      "d": 246.4787500000093,
      "v": 75
    },
    {
      "midi": 52,
      "hit": false,
      "t": 159154.8500000004,
      "d": 281.6900000000023,
      "v": 55
    },
    {
      "midi": 64,
      "hit": false,
      "t": 159154.85000000073,
      "d": 281.6900000000023,
      "v": 75
    },
    {
      "midi": 72,
      "hit": false,
      "t": 159436.5399999998,
      "d": 211.2674999999872,
      "v": 94
    },
    {
      "midi": 57,
      "hit": false,
      "t": 159436.54000000042,
      "d": 281.6900000000023,
      "v": 55
    },
    {
      "midi": 69,
      "hit": false,
      "t": 159436.54000000074,
      "d": 281.6900000000023,
      "v": 75
    },
    {
      "midi": 60,
      "hit": false,
      "t": 159718.23000000042,
      "d": 281.6900000000023,
      "v": 55
    },
    {
      "midi": 72,
      "hit": false,
      "t": 159718.23000000074,
      "d": 281.6900000000023,
      "v": 75
    },
    {
      "midi": 72,
      "hit": false,
      "t": 159753.4412499998,
      "d": 387.3237500000105,
      "v": 94
    },
    {
      "midi": 57,
      "hit": false,
      "t": 159999.92000000042,
      "d": 316.90124999999534,
      "v": 55
    },
    {
      "midi": 69,
      "hit": false,
      "t": 159999.92000000074,
      "d": 281.6900000000023,
      "v": 75
    },
    {
      "midi": 52,
      "hit": false,
      "t": 160281.61000000042,
      "d": 316.90124999999534,
      "v": 55
    },
    {
      "midi": 64,
      "hit": false,
      "t": 160281.61000000074,
      "d": 281.6900000000023,
      "v": 75
    },
    {
      "midi": 72,
      "hit": false,
      "t": 160316.8212499998,
      "d": 176.05624999999418,
      "v": 94
    },
    {
      "midi": 45,
      "hit": false,
      "t": 160563.30000000075,
      "d": 2.2007031250104774,
      "v": 85
    },
    {
      "midi": 57,
      "hit": false,
      "t": 160563.30000000075,
      "d": 2.2007031250104774,
      "v": 85
    },
    {
      "midi": 72,
      "hit": false,
      "t": 160598.5112499998,
      "d": 1549.2950000000128,
      "v": 94
    },
    {
      "midi": 45,
      "hit": false,
      "t": 160598.51125000042,
      "d": 246.4787500000093,
      "v": 65
    },
    {
      "midi": 33,
      "hit": false,
      "t": 160598.51125000042,
      "d": 1690.140000000014,
      "v": 65
    },
    {
      "midi": 48,
      "hit": false,
      "t": 160844.99000000043,
      "d": 281.6900000000023,
      "v": 55
    },
    {
      "midi": 60,
      "hit": false,
      "t": 160844.99000000075,
      "d": 281.6900000000023,
      "v": 75
    },
    {
      "midi": 52,
      "hit": false,
      "t": 161126.68000000043,
      "d": 281.6900000000023,
      "v": 55
    },
    {
      "midi": 64,
      "hit": false,
      "t": 161126.68000000075,
      "d": 281.6900000000023,
      "v": 75
    },
    {
      "midi": 57,
      "hit": false,
      "t": 161408.37000000043,
      "d": 281.6900000000023,
      "v": 55
    },
    {
      "midi": 69,
      "hit": false,
      "t": 161408.37000000075,
      "d": 281.6900000000023,
      "v": 75
    },
    {
      "midi": 52,
      "hit": false,
      "t": 161690.06000000043,
      "d": 281.6900000000023,
      "v": 55
    },
    {
      "midi": 64,
      "hit": false,
      "t": 161690.06000000075,
      "d": 281.6900000000023,
      "v": 75
    },
    {
      "midi": 48,
      "hit": false,
      "t": 161971.75000000044,
      "d": 316.90124999999534,
      "v": 55
    },
    {
      "midi": 60,
      "hit": false,
      "t": 161971.75000000076,
      "d": 316.90124999999534,
      "v": 75
    },
    {
      "midi": 74,
      "hit": false,
      "t": 162288.65124999982,
      "d": 1338.0274999999965,
      "v": 94
    },
    {
      "midi": 54,
      "hit": false,
      "t": 162288.65125000043,
      "d": 246.4787500000093,
      "v": 55
    },
    {
      "midi": 38,
      "hit": false,
      "t": 162288.65125000043,
      "d": 1654.928750000021,
      "v": 65
    },
    {
      "midi": 50,
      "hit": false,
      "t": 162288.65125000043,
      "d": 1654.928750000021,
      "v": 65
    },
    {
      "midi": 66,
      "hit": false,
      "t": 162288.65125000075,
      "d": 246.4787500000093,
      "v": 75
    },
    {
      "midi": 57,
      "hit": false,
      "t": 162535.13000000044,
      "d": 281.6900000000023,
      "v": 55
    },
    {
      "midi": 69,
      "hit": false,
      "t": 162535.13000000076,
      "d": 281.6900000000023,
      "v": 75
    },
    {
      "midi": 62,
      "hit": false,
      "t": 162816.82000000044,
      "d": 281.6900000000023,
      "v": 55
    },
    {
      "midi": 74,
      "hit": false,
      "t": 162816.82000000076,
      "d": 281.6900000000023,
      "v": 75
    },
    {
      "midi": 66,
      "hit": false,
      "t": 163098.51000000045,
      "d": 281.6900000000023,
      "v": 55
    },
    {
      "midi": 78,
      "hit": false,
      "t": 163098.51000000077,
      "d": 281.6900000000023,
      "v": 75
    },
    {
      "midi": 62,
      "hit": false,
      "t": 163380.20000000045,
      "d": 316.90124999999534,
      "v": 55
    },
    {
      "midi": 74,
      "hit": false,
      "t": 163380.20000000077,
      "d": 281.6900000000023,
      "v": 75
    },
    {
      "midi": 57,
      "hit": false,
      "t": 163661.89000000045,
      "d": 316.90124999999534,
      "v": 55
    },
    {
      "midi": 69,
      "hit": false,
      "t": 163661.89000000077,
      "d": 281.6900000000023,
      "v": 75
    },
    {
      "midi": 74,
      "hit": false,
      "t": 163697.1012499998,
      "d": 176.05624999999418,
      "v": 94
    },
    {
      "midi": 50,
      "hit": false,
      "t": 163943.58000000077,
      "d": 2.2007031250104774,
      "v": 85
    },
    {
      "midi": 62,
      "hit": false,
      "t": 163943.58000000077,
      "d": 2.2007031250104774,
      "v": 85
    },
    {
      "midi": 74,
      "hit": false,
      "t": 163978.7912499998,
      "d": 774.6474999999919,
      "v": 94
    },
    {
      "midi": 50,
      "hit": false,
      "t": 163978.79125000045,
      "d": 246.4787500000093,
      "v": 65
    },
    {
      "midi": 38,
      "hit": false,
      "t": 163978.79125000045,
      "d": 1690.140000000014,
      "v": 65
    },
    {
      "midi": 54,
      "hit": false,
      "t": 164225.27000000046,
      "d": 281.6900000000023,
      "v": 55
    },
    {
      "midi": 66,
      "hit": false,
      "t": 164225.27000000078,
      "d": 281.6900000000023,
      "v": 75
    },
    {
      "midi": 57,
      "hit": false,
      "t": 164506.96000000046,
      "d": 281.6900000000023,
      "v": 55
    },
    {
      "midi": 69,
      "hit": false,
      "t": 164506.96000000078,
      "d": 281.6900000000023,
      "v": 75
    },
    {
      "midi": 62,
      "hit": false,
      "t": 164788.65000000046,
      "d": 281.6900000000023,
      "v": 55
    },
    {
      "midi": 74,
      "hit": false,
      "t": 164788.65000000078,
      "d": 281.6900000000023,
      "v": 75
    },
    {
      "midi": 74,
      "hit": false,
      "t": 164823.86124999978,
      "d": 387.3237500000105,
      "v": 94
    },
    {
      "midi": 57,
      "hit": false,
      "t": 165070.34000000046,
      "d": 316.90124999999534,
      "v": 55
    },
    {
      "midi": 69,
      "hit": false,
      "t": 165070.34000000078,
      "d": 281.6900000000023,
      "v": 75
    },
    {
      "midi": 54,
      "hit": false,
      "t": 165352.03000000046,
      "d": 316.90124999999534,
      "v": 55
    },
    {
      "midi": 66,
      "hit": false,
      "t": 165352.03000000078,
      "d": 316.90124999999534,
      "v": 75
    },
    {
      "midi": 71,
      "hit": false,
      "t": 165668.9312499998,
      "d": 3309.857500000013,
      "v": 94
    },
    {
      "midi": 59,
      "hit": false,
      "t": 165668.93125000046,
      "d": 246.4787500000093,
      "v": 55
    },
    {
      "midi": 43,
      "hit": false,
      "t": 165668.93125000046,
      "d": 1654.928750000021,
      "v": 65
    },
    {
      "midi": 55,
      "hit": false,
      "t": 165668.93125000046,
      "d": 1654.928750000021,
      "v": 65
    },
    {
      "midi": 71,
      "hit": false,
      "t": 165668.93125000078,
      "d": 246.4787500000093,
      "v": 75
    },
    {
      "midi": 55,
      "hit": false,
      "t": 165668.93125000078,
      "d": 1654.928750000021,
      "v": 85
    },
    {
      "midi": 67,
      "hit": false,
      "t": 165668.93125000078,
      "d": 1654.928750000021,
      "v": 85
    },
    {
      "midi": 62,
      "hit": false,
      "t": 165915.41000000047,
      "d": 281.6900000000023,
      "v": 55
    },
    {
      "midi": 74,
      "hit": false,
      "t": 165915.4100000008,
      "d": 281.6900000000023,
      "v": 75
    },
    {
      "midi": 67,
      "hit": false,
      "t": 166197.10000000047,
      "d": 281.6900000000023,
      "v": 55
    },
    {
      "midi": 79,
      "hit": false,
      "t": 166197.1000000008,
      "d": 281.6900000000023,
      "v": 75
    },
    {
      "midi": 71,
      "hit": false,
      "t": 166478.79000000047,
      "d": 281.6900000000023,
      "v": 55
    },
    {
      "midi": 83,
      "hit": false,
      "t": 166478.7900000008,
      "d": 281.6900000000023,
      "v": 75
    },
    {
      "midi": 67,
      "hit": false,
      "t": 166760.48000000048,
      "d": 281.6900000000023,
      "v": 55
    },
    {
      "midi": 79,
      "hit": false,
      "t": 166760.4800000008,
      "d": 281.6900000000023,
      "v": 75
    },
    {
      "midi": 62,
      "hit": false,
      "t": 167042.17000000048,
      "d": 316.90124999999534,
      "v": 55
    },
    {
      "midi": 74,
      "hit": false,
      "t": 167042.1700000008,
      "d": 316.90124999999534,
      "v": 75
    },
    {
      "midi": 59,
      "hit": false,
      "t": 167323.8600000008,
      "d": 281.6900000000023,
      "v": 85
    },
    {
      "midi": 47,
      "hit": false,
      "t": 167359.07125000047,
      "d": 246.4787500000093,
      "v": 65
    },
    {
      "midi": 35,
      "hit": false,
      "t": 167359.07125000047,
      "d": 1690.140000000014,
      "v": 65
    },
    {
      "midi": 47,
      "hit": false,
      "t": 167359.0712500008,
      "d": 1690.140000000014,
      "v": 85
    },
    {
      "midi": 51,
      "hit": false,
      "t": 167605.55000000048,
      "d": 281.6900000000023,
      "v": 55
    },
    {
      "midi": 63,
      "hit": false,
      "t": 167605.5500000008,
      "d": 281.6900000000023,
      "v": 75
    },
    {
      "midi": 54,
      "hit": false,
      "t": 167887.2400000005,
      "d": 281.6900000000023,
      "v": 55
    },
    {
      "midi": 66,
      "hit": false,
      "t": 167887.2400000008,
      "d": 281.6900000000023,
      "v": 75
    },
    {
      "midi": 59,
      "hit": false,
      "t": 168168.9300000005,
      "d": 281.6900000000023,
      "v": 55
    },
    {
      "midi": 71,
      "hit": false,
      "t": 168168.9300000008,
      "d": 281.6900000000023,
      "v": 75
    },
    {
      "midi": 54,
      "hit": false,
      "t": 168450.6200000005,
      "d": 281.6900000000023,
      "v": 55
    },
    {
      "midi": 66,
      "hit": false,
      "t": 168450.6200000008,
      "d": 281.6900000000023,
      "v": 75
    },
    {
      "midi": 51,
      "hit": false,
      "t": 168732.3100000005,
      "d": 316.90124999999534,
      "v": 55
    },
    {
      "midi": 63,
      "hit": false,
      "t": 168732.3100000008,
      "d": 316.90124999999534,
      "v": 75
    },
    {
      "midi": 76,
      "hit": false,
      "t": 169049.2112499998,
      "d": 387.3237500000105,
      "v": 94
    },
    {
      "midi": 55,
      "hit": false,
      "t": 169049.2112500005,
      "d": 246.4787500000093,
      "v": 55
    },
    {
      "midi": 40,
      "hit": false,
      "t": 169049.2112500005,
      "d": 1654.928750000021,
      "v": 65
    },
    {
      "midi": 52,
      "hit": false,
      "t": 169049.2112500005,
      "d": 1654.928750000021,
      "v": 65
    },
    {
      "midi": 67,
      "hit": false,
      "t": 169049.2112500008,
      "d": 246.4787500000093,
      "v": 75
    },
    {
      "midi": 59,
      "hit": false,
      "t": 169295.6900000005,
      "d": 281.6900000000023,
      "v": 55
    },
    {
      "midi": 71,
      "hit": false,
      "t": 169295.69000000082,
      "d": 281.6900000000023,
      "v": 75
    },
    {
      "midi": 76,
      "hit": false,
      "t": 169577.3799999998,
      "d": 633.8024999999907,
      "v": 94
    },
    {
      "midi": 64,
      "hit": false,
      "t": 169577.3800000005,
      "d": 281.6900000000023,
      "v": 55
    },
    {
      "midi": 76,
      "hit": false,
      "t": 169577.38000000082,
      "d": 281.6900000000023,
      "v": 75
    },
    {
      "midi": 67,
      "hit": false,
      "t": 169859.0700000005,
      "d": 281.6900000000023,
      "v": 55
    },
    {
      "midi": 79,
      "hit": false,
      "t": 169859.07000000082,
      "d": 281.6900000000023,
      "v": 75
    },
    {
      "midi": 64,
      "hit": false,
      "t": 170140.7600000005,
      "d": 316.90124999999534,
      "v": 55
    },
    {
      "midi": 76,
      "hit": false,
      "t": 170140.76000000082,
      "d": 281.6900000000023,
      "v": 75
    },
    {
      "midi": 59,
      "hit": false,
      "t": 170422.4500000005,
      "d": 316.90124999999534,
      "v": 55
    },
    {
      "midi": 71,
      "hit": false,
      "t": 170422.45000000083,
      "d": 281.6900000000023,
      "v": 75
    },
    {
      "midi": 71,
      "hit": false,
      "t": 170457.6612499998,
      "d": 176.05624999999418,
      "v": 94
    },
    {
      "midi": 52,
      "hit": false,
      "t": 170704.14000000083,
      "d": 2.2007031250104774,
      "v": 85
    },
    {
      "midi": 64,
      "hit": false,
      "t": 170704.14000000083,
      "d": 2.2007031250104774,
      "v": 85
    },
    {
      "midi": 76,
      "hit": false,
      "t": 170739.3512499998,
      "d": 1549.2950000000128,
      "v": 94
    },
    {
      "midi": 52,
      "hit": false,
      "t": 170739.3512500005,
      "d": 246.4787500000093,
      "v": 65
    },
    {
      "midi": 40,
      "hit": false,
      "t": 170739.3512500005,
      "d": 1690.140000000014,
      "v": 65
    },
    {
      "midi": 55,
      "hit": false,
      "t": 170985.8300000005,
      "d": 281.6900000000023,
      "v": 55
    },
    {
      "midi": 67,
      "hit": false,
      "t": 170985.83000000083,
      "d": 281.6900000000023,
      "v": 75
    },
    {
      "midi": 59,
      "hit": false,
      "t": 171267.5200000005,
      "d": 281.6900000000023,
      "v": 55
    },
    {
      "midi": 71,
      "hit": false,
      "t": 171267.52000000083,
      "d": 281.6900000000023,
      "v": 75
    },
    {
      "midi": 64,
      "hit": false,
      "t": 171549.21000000052,
      "d": 281.6900000000023,
      "v": 55
    },
    {
      "midi": 76,
      "hit": false,
      "t": 171549.21000000084,
      "d": 281.6900000000023,
      "v": 75
    },
    {
      "midi": 59,
      "hit": false,
      "t": 171830.90000000052,
      "d": 281.6900000000023,
      "v": 55
    },
    {
      "midi": 71,
      "hit": false,
      "t": 171830.90000000084,
      "d": 281.6900000000023,
      "v": 75
    },
    {
      "midi": 55,
      "hit": false,
      "t": 172112.59000000052,
      "d": 316.90124999999534,
      "v": 55
    },
    {
      "midi": 67,
      "hit": false,
      "t": 172112.59000000084,
      "d": 316.90124999999534,
      "v": 75
    },
    {
      "midi": 48,
      "hit": false,
      "t": 172429.49125000052,
      "d": 246.4787500000093,
      "v": 55
    },
    {
      "midi": 33,
      "hit": false,
      "t": 172429.49125000052,
      "d": 1654.928750000021,
      "v": 65
    },
    {
      "midi": 45,
      "hit": false,
      "t": 172429.49125000052,
      "d": 1654.928750000021,
      "v": 65
    },
    {
      "midi": 60,
      "hit": false,
      "t": 172429.49125000084,
      "d": 246.4787500000093,
      "v": 75
    },
    {
      "midi": 52,
      "hit": false,
      "t": 172675.97000000053,
      "d": 281.6900000000023,
      "v": 55
    },
    {
      "midi": 64,
      "hit": false,
      "t": 172675.97000000085,
      "d": 281.6900000000023,
      "v": 75
    },
    {
      "midi": 57,
      "hit": false,
      "t": 172957.66000000053,
      "d": 281.6900000000023,
      "v": 55
    },
    {
      "midi": 69,
      "hit": false,
      "t": 172957.66000000085,
      "d": 281.6900000000023,
      "v": 75
    },
    {
      "midi": 72,
      "hit": false,
      "t": 172992.87124999982,
      "d": 176.05624999999418,
      "v": 94
    },
    {
      "midi": 60,
      "hit": false,
      "t": 173239.35000000053,
      "d": 281.6900000000023,
      "v": 55
    },
    {
      "midi": 72,
      "hit": false,
      "t": 173239.35000000085,
      "d": 281.6900000000023,
      "v": 75
    },
    {
      "midi": 72,
      "hit": false,
      "t": 173274.56124999982,
      "d": 387.3237500000105,
      "v": 94
    },
    {
      "midi": 57,
      "hit": false,
      "t": 173521.04000000053,
      "d": 316.90124999999534,
      "v": 55
    },
    {
      "midi": 69,
      "hit": false,
      "t": 173521.04000000085,
      "d": 281.6900000000023,
      "v": 75
    },
    {
      "midi": 52,
      "hit": false,
      "t": 173802.73000000053,
      "d": 316.90124999999534,
      "v": 55
    },
    {
      "midi": 64,
      "hit": false,
      "t": 173802.73000000085,
      "d": 281.6900000000023,
      "v": 75
    },
    {
      "midi": 72,
      "hit": false,
      "t": 173837.94124999983,
      "d": 176.05624999999418,
      "v": 94
    },
    {
      "midi": 45,
      "hit": false,
      "t": 174084.42000000086,
      "d": 2.2007031250104774,
      "v": 85
    },
    {
      "midi": 57,
      "hit": false,
      "t": 174084.42000000086,
      "d": 2.2007031250104774,
      "v": 85
    },
    {
      "midi": 72,
      "hit": false,
      "t": 174119.63124999983,
      "d": 1549.2950000000128,
      "v": 94
    },
    {
      "midi": 45,
      "hit": false,
      "t": 174119.63125000053,
      "d": 246.4787500000093,
      "v": 65
    },
    {
      "midi": 33,
      "hit": false,
      "t": 174119.63125000053,
      "d": 1690.140000000014,
      "v": 65
    },
    {
      "midi": 48,
      "hit": false,
      "t": 174366.11000000054,
      "d": 281.6900000000023,
      "v": 55
    },
    {
      "midi": 60,
      "hit": false,
      "t": 174366.11000000086,
      "d": 281.6900000000023,
      "v": 75
    },
    {
      "midi": 52,
      "hit": false,
      "t": 174647.80000000054,
      "d": 281.6900000000023,
      "v": 55
    },
    {
      "midi": 64,
      "hit": false,
      "t": 174647.80000000086,
      "d": 281.6900000000023,
      "v": 75
    },
    {
      "midi": 57,
      "hit": false,
      "t": 174929.49000000054,
      "d": 281.6900000000023,
      "v": 55
    },
    {
      "midi": 69,
      "hit": false,
      "t": 174929.49000000086,
      "d": 281.6900000000023,
      "v": 75
    },
    {
      "midi": 52,
      "hit": false,
      "t": 175211.18000000055,
      "d": 281.6900000000023,
      "v": 55
    },
    {
      "midi": 64,
      "hit": false,
      "t": 175211.18000000087,
      "d": 281.6900000000023,
      "v": 75
    },
    {
      "midi": 48,
      "hit": false,
      "t": 175492.87000000055,
      "d": 316.90124999999534,
      "v": 55
    },
    {
      "midi": 60,
      "hit": false,
      "t": 175492.87000000087,
      "d": 316.90124999999534,
      "v": 75
    },
    {
      "midi": 74,
      "hit": false,
      "t": 175809.77124999985,
      "d": 1338.0274999999965,
      "v": 94
    },
    {
      "midi": 54,
      "hit": false,
      "t": 175809.77125000054,
      "d": 246.4787500000093,
      "v": 55
    },
    {
      "midi": 38,
      "hit": false,
      "t": 175809.77125000054,
      "d": 1654.928750000021,
      "v": 65
    },
    {
      "midi": 50,
      "hit": false,
      "t": 175809.77125000054,
      "d": 1654.928750000021,
      "v": 65
    },
    {
      "midi": 66,
      "hit": false,
      "t": 175809.77125000086,
      "d": 246.4787500000093,
      "v": 75
    },
    {
      "midi": 57,
      "hit": false,
      "t": 176056.25000000055,
      "d": 281.6900000000023,
      "v": 55
    },
    {
      "midi": 69,
      "hit": false,
      "t": 176056.25000000087,
      "d": 281.6900000000023,
      "v": 75
    },
    {
      "midi": 62,
      "hit": false,
      "t": 176337.94000000056,
      "d": 281.6900000000023,
      "v": 55
    },
    {
      "midi": 74,
      "hit": false,
      "t": 176337.94000000088,
      "d": 281.6900000000023,
      "v": 75
    },
    {
      "midi": 66,
      "hit": false,
      "t": 176619.63000000056,
      "d": 281.6900000000023,
      "v": 55
    },
    {
      "midi": 78,
      "hit": false,
      "t": 176619.63000000088,
      "d": 281.6900000000023,
      "v": 75
    },
    {
      "midi": 62,
      "hit": false,
      "t": 176901.32000000056,
      "d": 316.90124999999534,
      "v": 55
    },
    {
      "midi": 74,
      "hit": false,
      "t": 176901.32000000088,
      "d": 281.6900000000023,
      "v": 75
    },
    {
      "midi": 57,
      "hit": false,
      "t": 177183.01000000056,
      "d": 316.90124999999534,
      "v": 55
    },
    {
      "midi": 69,
      "hit": false,
      "t": 177183.01000000088,
      "d": 281.6900000000023,
      "v": 75
    },
    {
      "midi": 74,
      "hit": false,
      "t": 177218.22124999983,
      "d": 176.05624999999418,
      "v": 94
    },
    {
      "midi": 50,
      "hit": false,
      "t": 177464.70000000088,
      "d": 2.2007031250104774,
      "v": 85
    },
    {
      "midi": 62,
      "hit": false,
      "t": 177464.70000000088,
      "d": 2.2007031250104774,
      "v": 85
    },
    {
      "midi": 74,
      "hit": false,
      "t": 177499.91124999983,
      "d": 774.6474999999919,
      "v": 94
    },
    {
      "midi": 50,
      "hit": false,
      "t": 177499.91125000056,
      "d": 246.4787500000093,
      "v": 65
    },
    {
      "midi": 38,
      "hit": false,
      "t": 177499.91125000056,
      "d": 1690.140000000014,
      "v": 65
    },
    {
      "midi": 54,
      "hit": false,
      "t": 177746.39000000057,
      "d": 281.6900000000023,
      "v": 55
    },
    {
      "midi": 66,
      "hit": false,
      "t": 177746.3900000009,
      "d": 281.6900000000023,
      "v": 75
    },
    {
      "midi": 57,
      "hit": false,
      "t": 178028.08000000057,
      "d": 281.6900000000023,
      "v": 55
    },
    {
      "midi": 69,
      "hit": false,
      "t": 178028.0800000009,
      "d": 281.6900000000023,
      "v": 75
    },
    {
      "midi": 62,
      "hit": false,
      "t": 178309.77000000057,
      "d": 281.6900000000023,
      "v": 55
    },
    {
      "midi": 74,
      "hit": false,
      "t": 178309.7700000009,
      "d": 281.6900000000023,
      "v": 75
    },
    {
      "midi": 74,
      "hit": false,
      "t": 178344.9812499998,
      "d": 176.05624999999418,
      "v": 94
    },
    {
      "midi": 74,
      "hit": false,
      "t": 178591.4599999998,
      "d": 211.2674999999872,
      "v": 94
    },
    {
      "midi": 57,
      "hit": false,
      "t": 178591.46000000057,
      "d": 316.90124999999534,
      "v": 55
    },
    {
      "midi": 69,
      "hit": false,
      "t": 178591.4600000009,
      "d": 281.6900000000023,
      "v": 75
    },
    {
      "midi": 54,
      "hit": false,
      "t": 178873.15000000058,
      "d": 316.90124999999534,
      "v": 55
    },
    {
      "midi": 66,
      "hit": false,
      "t": 178873.1500000009,
      "d": 316.90124999999534,
      "v": 75
    },
    {
      "midi": 76,
      "hit": false,
      "t": 178908.36124999978,
      "d": 176.05624999999418,
      "v": 94
    },
    {
      "midi": 71,
      "hit": false,
      "t": 179190.0512499998,
      "d": 2429.576250000013,
      "v": 94
    },
    {
      "midi": 59,
      "hit": false,
      "t": 179190.05125000057,
      "d": 246.4787500000093,
      "v": 55
    },
    {
      "midi": 43,
      "hit": false,
      "t": 179190.05125000057,
      "d": 1654.928750000021,
      "v": 65
    },
    {
      "midi": 55,
      "hit": false,
      "t": 179190.05125000057,
      "d": 1654.928750000021,
      "v": 65
    },
    {
      "midi": 71,
      "hit": false,
      "t": 179190.0512500009,
      "d": 246.4787500000093,
      "v": 75
    },
    {
      "midi": 55,
      "hit": false,
      "t": 179190.0512500009,
      "d": 1654.928750000021,
      "v": 85
    },
    {
      "midi": 67,
      "hit": false,
      "t": 179190.0512500009,
      "d": 1654.928750000021,
      "v": 85
    },
    {
      "midi": 62,
      "hit": false,
      "t": 179436.53000000058,
      "d": 281.6900000000023,
      "v": 55
    },
    {
      "midi": 74,
      "hit": false,
      "t": 179436.5300000009,
      "d": 281.6900000000023,
      "v": 75
    },
    {
      "midi": 67,
      "hit": false,
      "t": 179718.22000000058,
      "d": 281.6900000000023,
      "v": 55
    },
    {
      "midi": 79,
      "hit": false,
      "t": 179718.2200000009,
      "d": 281.6900000000023,
      "v": 75
    },
    {
      "midi": 71,
      "hit": false,
      "t": 179999.9100000006,
      "d": 281.6900000000023,
      "v": 55
    },
    {
      "midi": 83,
      "hit": false,
      "t": 179999.9100000009,
      "d": 281.6900000000023,
      "v": 75
    },
    {
      "midi": 67,
      "hit": false,
      "t": 180281.6000000006,
      "d": 281.6900000000023,
      "v": 55
    },
    {
      "midi": 79,
      "hit": false,
      "t": 180281.6000000009,
      "d": 281.6900000000023,
      "v": 75
    },
    {
      "midi": 62,
      "hit": false,
      "t": 180563.2900000006,
      "d": 316.90124999999534,
      "v": 55
    },
    {
      "midi": 74,
      "hit": false,
      "t": 180563.2900000009,
      "d": 316.90124999999534,
      "v": 75
    },
    {
      "midi": 59,
      "hit": false,
      "t": 180844.9800000009,
      "d": 281.6900000000023,
      "v": 85
    },
    {
      "midi": 47,
      "hit": false,
      "t": 180880.1912500006,
      "d": 246.4787500000093,
      "v": 65
    },
    {
      "midi": 51,
      "hit": false,
      "t": 181126.6700000006,
      "d": 281.6900000000023,
      "v": 55
    },
    {
      "midi": 63,
      "hit": false,
      "t": 181126.67000000092,
      "d": 281.6900000000023,
      "v": 75
    },
    {
      "midi": 54,
      "hit": false,
      "t": 181408.3600000006,
      "d": 281.6900000000023,
      "v": 55
    },
    {
      "midi": 66,
      "hit": false,
      "t": 181408.36000000092,
      "d": 281.6900000000023,
      "v": 75
    },
    {
      "midi": 59,
      "hit": false,
      "t": 181690.0500000006,
      "d": 281.6900000000023,
      "v": 55
    },
    {
      "midi": 71,
      "hit": false,
      "t": 181690.05000000092,
      "d": 281.6900000000023,
      "v": 75
    },
    {
      "midi": 54,
      "hit": false,
      "t": 181971.7400000006,
      "d": 316.90124999999534,
      "v": 55
    },
    {
      "midi": 66,
      "hit": false,
      "t": 181971.74000000092,
      "d": 281.6900000000023,
      "v": 75
    },
    {
      "midi": 71,
      "hit": false,
      "t": 182006.9512499998,
      "d": 176.05624999999418,
      "v": 94
    },
    {
      "midi": 51,
      "hit": false,
      "t": 182253.4300000006,
      "d": 316.90124999999534,
      "v": 55
    },
    {
      "midi": 63,
      "hit": false,
      "t": 182253.43000000092,
      "d": 316.90124999999534,
      "v": 75
    },
    {
      "midi": 71,
      "hit": false,
      "t": 182288.6412499998,
      "d": 176.05624999999418,
      "v": 94
    },
    {
      "midi": 62,
      "hit": false,
      "t": 182535.12000000093,
      "d": 281.6900000000023,
      "v": 75
    },
    {
      "midi": 74,
      "hit": false,
      "t": 182570.3312499998,
      "d": 2429.576250000013,
      "v": 94
    },
    {
      "midi": 50,
      "hit": false,
      "t": 182570.3312500006,
      "d": 246.4787500000093,
      "v": 55
    },
    {
      "midi": 54,
      "hit": false,
      "t": 182816.8100000006,
      "d": 281.6900000000023,
      "v": 55
    },
    {
      "midi": 66,
      "hit": false,
      "t": 182816.81000000093,
      "d": 281.6900000000023,
      "v": 75
    },
    {
      "midi": 59,
      "hit": false,
      "t": 183098.5000000006,
      "d": 281.6900000000023,
      "v": 55
    },
    {
      "midi": 71,
      "hit": false,
      "t": 183098.50000000093,
      "d": 281.6900000000023,
      "v": 75
    },
    {
      "midi": 62,
      "hit": false,
      "t": 183380.1900000006,
      "d": 281.6900000000023,
      "v": 55
    },
    {
      "midi": 74,
      "hit": false,
      "t": 183380.19000000093,
      "d": 281.6900000000023,
      "v": 75
    },
    {
      "midi": 59,
      "hit": false,
      "t": 183661.88000000062,
      "d": 281.6900000000023,
      "v": 55
    },
    {
      "midi": 71,
      "hit": false,
      "t": 183661.88000000094,
      "d": 281.6900000000023,
      "v": 75
    },
    {
      "midi": 54,
      "hit": false,
      "t": 183943.57000000062,
      "d": 316.90125000002445,
      "v": 55
    },
    {
      "midi": 66,
      "hit": false,
      "t": 183943.57000000094,
      "d": 281.6900000000023,
      "v": 75
    },
    {
      "midi": 35,
      "hit": false,
      "t": 184225.26000000062,
      "d": 2.2007031250104774,
      "v": 65
    },
    {
      "midi": 47,
      "hit": false,
      "t": 184225.26000000062,
      "d": 2.2007031250104774,
      "v": 65
    },
    {
      "midi": 47,
      "hit": false,
      "t": 184225.26000000094,
      "d": 2.2007031250104774,
      "v": 85
    },
    {
      "midi": 59,
      "hit": false,
      "t": 184225.26000000094,
      "d": 2.2007031250104774,
      "v": 85
    },
    {
      "midi": 50,
      "hit": false,
      "t": 184506.95000000065,
      "d": 281.6900000000023,
      "v": 55
    },
    {
      "midi": 62,
      "hit": false,
      "t": 184506.95000000094,
      "d": 281.6900000000023,
      "v": 75
    },
    {
      "midi": 54,
      "hit": false,
      "t": 184788.64000000065,
      "d": 281.6900000000023,
      "v": 55
    },
    {
      "midi": 66,
      "hit": false,
      "t": 184788.64000000095,
      "d": 281.6900000000023,
      "v": 75
    },
    {
      "midi": 74,
      "hit": false,
      "t": 185070.3299999998,
      "d": 211.2674999999872,
      "v": 94
    },
    {
      "midi": 59,
      "hit": false,
      "t": 185070.33000000066,
      "d": 281.6900000000023,
      "v": 55
    },
    {
      "midi": 71,
      "hit": false,
      "t": 185070.33000000095,
      "d": 281.6900000000023,
      "v": 75
    },
    {
      "midi": 74,
      "hit": false,
      "t": 185352.0199999998,
      "d": 211.2674999999872,
      "v": 94
    },
    {
      "midi": 54,
      "hit": false,
      "t": 185352.02000000066,
      "d": 281.6900000000023,
      "v": 55
    },
    {
      "midi": 66,
      "hit": false,
      "t": 185352.02000000095,
      "d": 281.6900000000023,
      "v": 75
    },
    {
      "midi": 50,
      "hit": false,
      "t": 185633.71000000066,
      "d": 316.90124999999534,
      "v": 55
    },
    {
      "midi": 62,
      "hit": false,
      "t": 185633.71000000095,
      "d": 316.90124999999534,
      "v": 75
    },
    {
      "midi": 72,
      "hit": false,
      "t": 185668.92124999978,
      "d": 176.05624999999418,
      "v": 94
    },
    {
      "midi": 71,
      "hit": false,
      "t": 185950.61124999978,
      "d": 3309.857500000013,
      "v": 94
    },
    {
      "midi": 55,
      "hit": false,
      "t": 185950.61125000066,
      "d": 246.4787500000093,
      "v": 55
    },
    {
      "midi": 67,
      "hit": false,
      "t": 185950.61125000095,
      "d": 246.4787500000093,
      "v": 75
    },
    {
      "midi": 59,
      "hit": false,
      "t": 186197.09000000067,
      "d": 281.6900000000023,
      "v": 55
    },
    {
      "midi": 71,
      "hit": false,
      "t": 186197.09000000096,
      "d": 281.6900000000023,
      "v": 75
    },
    {
      "midi": 64,
      "hit": false,
      "t": 186478.78000000067,
      "d": 281.6900000000023,
      "v": 55
    },
    {
      "midi": 76,
      "hit": false,
      "t": 186478.78000000096,
      "d": 281.6900000000023,
      "v": 75
    },
    {
      "midi": 67,
      "hit": false,
      "t": 186760.47000000067,
      "d": 281.6900000000023,
      "v": 55
    },
    {
      "midi": 79,
      "hit": false,
      "t": 186760.47000000096,
      "d": 281.6900000000023,
      "v": 75
    },
    {
      "midi": 64,
      "hit": false,
      "t": 187042.16000000067,
      "d": 281.6900000000023,
      "v": 55
    },
    {
      "midi": 76,
      "hit": false,
      "t": 187042.16000000096,
      "d": 281.6900000000023,
      "v": 75
    },
    {
      "midi": 59,
      "hit": false,
      "t": 187323.85000000068,
      "d": 316.90125000002445,
      "v": 55
    },
    {
      "midi": 71,
      "hit": false,
      "t": 187323.85000000097,
      "d": 281.6900000000023,
      "v": 75
    },
    {
      "midi": 40,
      "hit": false,
      "t": 187605.54000000068,
      "d": 2.2007031250104774,
      "v": 65
    },
    {
      "midi": 52,
      "hit": false,
      "t": 187605.54000000068,
      "d": 2.2007031250104774,
      "v": 65
    },
    {
      "midi": 52,
      "hit": false,
      "t": 187605.54000000097,
      "d": 2.2007031250104774,
      "v": 85
    },
    {
      "midi": 64,
      "hit": false,
      "t": 187605.54000000097,
      "d": 2.2007031250104774,
      "v": 85
    },
    {
      "midi": 55,
      "hit": false,
      "t": 187887.2300000007,
      "d": 281.6900000000023,
      "v": 55
    },
    {
      "midi": 67,
      "hit": false,
      "t": 187887.23000000097,
      "d": 281.6900000000023,
      "v": 75
    },
    {
      "midi": 59,
      "hit": false,
      "t": 188168.9200000007,
      "d": 281.6900000000023,
      "v": 55
    },
    {
      "midi": 71,
      "hit": false,
      "t": 188168.92000000097,
      "d": 281.6900000000023,
      "v": 75
    },
    {
      "midi": 64,
      "hit": false,
      "t": 188450.6100000007,
      "d": 281.6900000000023,
      "v": 55
    },
    {
      "midi": 76,
      "hit": false,
      "t": 188450.61000000098,
      "d": 281.6900000000023,
      "v": 75
    },
    {
      "midi": 59,
      "hit": false,
      "t": 188732.30000000072,
      "d": 281.6900000000023,
      "v": 55
    },
    {
      "midi": 71,
      "hit": false,
      "t": 188732.30000000098,
      "d": 281.6900000000023,
      "v": 75
    },
    {
      "midi": 55,
      "hit": false,
      "t": 189013.99000000072,
      "d": 1971.8300000000163,
      "v": 55
    },
    {
      "midi": 67,
      "hit": false,
      "t": 189013.99000000098,
      "d": 1971.8300000000163,
      "v": 75
    },
    {
      "midi": 71,
      "hit": false,
      "t": 189295.68000000098,
      "d": 281.6900000000023,
      "v": 75
    },
    {
      "midi": 55,
      "hit": false,
      "t": 189295.68000000098,
      "d": 1690.140000000014,
      "v": 85
    },
    {
      "midi": 67,
      "hit": false,
      "t": 189330.89124999978,
      "d": 387.3237500000105,
      "v": 94
    },
    {
      "midi": 59,
      "hit": false,
      "t": 189330.8912500007,
      "d": 246.4787500000093,
      "v": 55
    },
    {
      "midi": 43,
      "hit": false,
      "t": 189330.8912500007,
      "d": 1654.928750000021,
      "v": 65
    },
    {
      "midi": 62,
      "hit": false,
      "t": 189577.37000000072,
      "d": 281.6900000000023,
      "v": 55
    },
    {
      "midi": 74,
      "hit": false,
      "t": 189577.37000000098,
      "d": 281.6900000000023,
      "v": 75
    },
    {
      "midi": 67,
      "hit": false,
      "t": 189859.0599999998,
      "d": 809.858750000014,
      "v": 94
    },
    {
      "midi": 67,
      "hit": false,
      "t": 189859.06000000073,
      "d": 281.6900000000023,
      "v": 55
    },
    {
      "midi": 79,
      "hit": false,
      "t": 189859.060000001,
      "d": 281.6900000000023,
      "v": 75
    },
    {
      "midi": 71,
      "hit": false,
      "t": 190140.75000000073,
      "d": 281.6900000000023,
      "v": 55
    },
    {
      "midi": 83,
      "hit": false,
      "t": 190140.750000001,
      "d": 281.6900000000023,
      "v": 75
    },
    {
      "midi": 67,
      "hit": false,
      "t": 190422.44000000073,
      "d": 281.6900000000023,
      "v": 55
    },
    {
      "midi": 79,
      "hit": false,
      "t": 190422.440000001,
      "d": 281.6900000000023,
      "v": 75
    },
    {
      "midi": 62,
      "hit": false,
      "t": 190704.13000000073,
      "d": 316.90124999999534,
      "v": 55
    },
    {
      "midi": 74,
      "hit": false,
      "t": 190704.130000001,
      "d": 316.90124999999534,
      "v": 75
    },
    {
      "midi": 67,
      "hit": false,
      "t": 190739.3412499998,
      "d": 176.05624999999418,
      "v": 94
    },
    {
      "midi": 59,
      "hit": false,
      "t": 190985.820000001,
      "d": 281.6900000000023,
      "v": 85
    },
    {
      "midi": 71,
      "hit": false,
      "t": 191021.0312499998,
      "d": 1549.2950000000128,
      "v": 94
    },
    {
      "midi": 47,
      "hit": false,
      "t": 191021.03125000073,
      "d": 246.4787500000093,
      "v": 65
    },
    {
      "midi": 35,
      "hit": false,
      "t": 191021.03125000073,
      "d": 1690.140000000014,
      "v": 65
    },
    {
      "midi": 47,
      "hit": false,
      "t": 191021.031250001,
      "d": 1690.140000000014,
      "v": 85
    },
    {
      "midi": 51,
      "hit": false,
      "t": 191267.51000000074,
      "d": 281.6900000000023,
      "v": 55
    },
    {
      "midi": 63,
      "hit": false,
      "t": 191267.510000001,
      "d": 281.6900000000023,
      "v": 75
    },
    {
      "midi": 54,
      "hit": false,
      "t": 191549.20000000074,
      "d": 281.6900000000023,
      "v": 55
    },
    {
      "midi": 66,
      "hit": false,
      "t": 191549.200000001,
      "d": 281.6900000000023,
      "v": 75
    },
    {
      "midi": 59,
      "hit": false,
      "t": 191830.89000000074,
      "d": 281.6900000000023,
      "v": 55
    },
    {
      "midi": 71,
      "hit": false,
      "t": 191830.890000001,
      "d": 281.6900000000023,
      "v": 75
    },
    {
      "midi": 54,
      "hit": false,
      "t": 192112.58000000074,
      "d": 281.6900000000023,
      "v": 55
    },
    {
      "midi": 66,
      "hit": false,
      "t": 192112.580000001,
      "d": 281.6900000000023,
      "v": 75
    },
    {
      "midi": 51,
      "hit": false,
      "t": 192394.27000000075,
      "d": 316.90124999999534,
      "v": 55
    },
    {
      "midi": 63,
      "hit": false,
      "t": 192394.270000001,
      "d": 316.90124999999534,
      "v": 75
    },
    {
      "midi": 64,
      "hit": false,
      "t": 192711.1712499998,
      "d": 3309.857500000013,
      "v": 94
    },
    {
      "midi": 55,
      "hit": false,
      "t": 192711.17125000074,
      "d": 246.4787500000093,
      "v": 55
    },
    {
      "midi": 40,
      "hit": false,
      "t": 192711.17125000074,
      "d": 1654.928750000021,
      "v": 65
    },
    {
      "midi": 67,
      "hit": false,
      "t": 192711.171250001,
      "d": 246.4787500000093,
      "v": 75
    },
    {
      "midi": 59,
      "hit": false,
      "t": 192957.65000000075,
      "d": 281.6900000000023,
      "v": 55
    },
    {
      "midi": 71,
      "hit": false,
      "t": 192957.650000001,
      "d": 281.6900000000023,
      "v": 75
    },
    {
      "midi": 64,
      "hit": false,
      "t": 193239.34000000075,
      "d": 281.6900000000023,
      "v": 55
    },
    {
      "midi": 76,
      "hit": false,
      "t": 193239.34000000102,
      "d": 281.6900000000023,
      "v": 75
    },
    {
      "midi": 67,
      "hit": false,
      "t": 193521.03000000076,
      "d": 281.6900000000023,
      "v": 55
    },
    {
      "midi": 79,
      "hit": false,
      "t": 193521.03000000102,
      "d": 281.6900000000023,
      "v": 75
    },
    {
      "midi": 64,
      "hit": false,
      "t": 193802.72000000076,
      "d": 281.6900000000023,
      "v": 55
    },
    {
      "midi": 76,
      "hit": false,
      "t": 193802.72000000102,
      "d": 281.6900000000023,
      "v": 75
    },
    {
      "midi": 59,
      "hit": false,
      "t": 194084.41000000076,
      "d": 316.90125000002445,
      "v": 55
    },
    {
      "midi": 71,
      "hit": false,
      "t": 194084.41000000102,
      "d": 281.6900000000023,
      "v": 75
    },
    {
      "midi": 52,
      "hit": false,
      "t": 194366.10000000076,
      "d": 2.2007031250104774,
      "v": 65
    },
    {
      "midi": 52,
      "hit": false,
      "t": 194366.10000000102,
      "d": 2.2007031250104774,
      "v": 85
    },
    {
      "midi": 64,
      "hit": false,
      "t": 194366.10000000102,
      "d": 2.2007031250104774,
      "v": 85
    },
    {
      "midi": 40,
      "hit": false,
      "t": 194401.31125000078,
      "d": 1690.140000000014,
      "v": 65
    },
    {
      "midi": 55,
      "hit": false,
      "t": 194647.7900000008,
      "d": 281.6900000000023,
      "v": 55
    },
    {
      "midi": 67,
      "hit": false,
      "t": 194647.79000000103,
      "d": 281.6900000000023,
      "v": 75
    },
    {
      "midi": 59,
      "hit": false,
      "t": 194929.4800000008,
      "d": 281.6900000000023,
      "v": 55
    },
    {
      "midi": 71,
      "hit": false,
      "t": 194929.48000000103,
      "d": 281.6900000000023,
      "v": 75
    },
    {
      "midi": 64,
      "hit": false,
      "t": 195211.1700000008,
      "d": 281.6900000000023,
      "v": 55
    },
    {
      "midi": 76,
      "hit": false,
      "t": 195211.17000000103,
      "d": 281.6900000000023,
      "v": 75
    },
    {
      "midi": 59,
      "hit": false,
      "t": 195492.8600000008,
      "d": 281.6900000000023,
      "v": 55
    },
    {
      "midi": 71,
      "hit": false,
      "t": 195492.86000000103,
      "d": 281.6900000000023,
      "v": 75
    },
    {
      "midi": 55,
      "hit": false,
      "t": 195774.5500000008,
      "d": 1971.8300000000163,
      "v": 55
    },
    {
      "midi": 67,
      "hit": false,
      "t": 195774.55000000104,
      "d": 1971.8300000000163,
      "v": 75
    },
    {
      "midi": 71,
      "hit": false,
      "t": 196056.24000000104,
      "d": 281.6900000000023,
      "v": 75
    },
    {
      "midi": 55,
      "hit": false,
      "t": 196056.24000000104,
      "d": 1690.140000000014,
      "v": 85
    },
    {
      "midi": 67,
      "hit": false,
      "t": 196091.4512499998,
      "d": 387.3237500000105,
      "v": 94
    },
    {
      "midi": 59,
      "hit": false,
      "t": 196091.4512500008,
      "d": 246.4787500000093,
      "v": 55
    },
    {
      "midi": 43,
      "hit": false,
      "t": 196091.4512500008,
      "d": 1654.928750000021,
      "v": 65
    },
    {
      "midi": 62,
      "hit": false,
      "t": 196337.9300000008,
      "d": 281.6900000000023,
      "v": 55
    },
    {
      "midi": 74,
      "hit": false,
      "t": 196337.93000000104,
      "d": 281.6900000000023,
      "v": 75
    },
    {
      "midi": 67,
      "hit": false,
      "t": 196619.61999999982,
      "d": 809.858750000014,
      "v": 94
    },
    {
      "midi": 67,
      "hit": false,
      "t": 196619.6200000008,
      "d": 281.6900000000023,
      "v": 55
    },
    {
      "midi": 79,
      "hit": false,
      "t": 196619.62000000104,
      "d": 281.6900000000023,
      "v": 75
    },
    {
      "midi": 71,
      "hit": false,
      "t": 196901.3100000008,
      "d": 281.6900000000023,
      "v": 55
    },
    {
      "midi": 83,
      "hit": false,
      "t": 196901.31000000105,
      "d": 281.6900000000023,
      "v": 75
    },
    {
      "midi": 67,
      "hit": false,
      "t": 197183.00000000081,
      "d": 316.90124999999534,
      "v": 55
    },
    {
      "midi": 79,
      "hit": false,
      "t": 197183.00000000105,
      "d": 281.6900000000023,
      "v": 75
    },
    {
      "midi": 62,
      "hit": false,
      "t": 197464.69000000082,
      "d": 316.90124999999534,
      "v": 55
    },
    {
      "midi": 74,
      "hit": false,
      "t": 197464.69000000105,
      "d": 316.90124999999534,
      "v": 75
    },
    {
      "midi": 67,
      "hit": false,
      "t": 197499.90124999982,
      "d": 176.05624999999418,
      "v": 94
    },
    {
      "midi": 71,
      "hit": false,
      "t": 197781.59124999982,
      "d": 1549.2950000000128,
      "v": 94
    },
    {
      "midi": 47,
      "hit": false,
      "t": 197781.5912500008,
      "d": 246.4787500000093,
      "v": 65
    },
    {
      "midi": 35,
      "hit": false,
      "t": 197781.5912500008,
      "d": 1690.140000000014,
      "v": 65
    },
    {
      "midi": 59,
      "hit": false,
      "t": 197781.59125000105,
      "d": 246.4787500000093,
      "v": 85
    },
    {
      "midi": 47,
      "hit": false,
      "t": 197781.59125000105,
      "d": 1690.140000000014,
      "v": 85
    },
    {
      "midi": 51,
      "hit": false,
      "t": 198028.07000000082,
      "d": 281.6900000000023,
      "v": 55
    },
    {
      "midi": 63,
      "hit": false,
      "t": 198028.07000000105,
      "d": 281.6900000000023,
      "v": 75
    },
    {
      "midi": 54,
      "hit": false,
      "t": 198309.76000000082,
      "d": 281.6900000000023,
      "v": 55
    },
    {
      "midi": 66,
      "hit": false,
      "t": 198309.76000000106,
      "d": 281.6900000000023,
      "v": 75
    },
    {
      "midi": 59,
      "hit": false,
      "t": 198591.45000000083,
      "d": 281.6900000000023,
      "v": 55
    },
    {
      "midi": 71,
      "hit": false,
      "t": 198591.45000000106,
      "d": 281.6900000000023,
      "v": 75
    },
    {
      "midi": 54,
      "hit": false,
      "t": 198873.14000000083,
      "d": 281.6900000000023,
      "v": 55
    },
    {
      "midi": 66,
      "hit": false,
      "t": 198873.14000000106,
      "d": 281.6900000000023,
      "v": 75
    },
    {
      "midi": 51,
      "hit": false,
      "t": 199154.83000000083,
      "d": 316.90124999999534,
      "v": 55
    },
    {
      "midi": 63,
      "hit": false,
      "t": 199154.83000000106,
      "d": 316.90124999999534,
      "v": 75
    },
    {
      "midi": 64,
      "hit": false,
      "t": 199471.73124999984,
      "d": 3309.857500000013,
      "v": 94
    },
    {
      "midi": 55,
      "hit": false,
      "t": 199471.73125000083,
      "d": 246.4787500000093,
      "v": 55
    },
    {
      "midi": 40,
      "hit": false,
      "t": 199471.73125000083,
      "d": 1654.928750000021,
      "v": 65
    },
    {
      "midi": 67,
      "hit": false,
      "t": 199471.73125000106,
      "d": 246.4787500000093,
      "v": 75
    },
    {
      "midi": 59,
      "hit": false,
      "t": 199718.21000000084,
      "d": 281.6900000000023,
      "v": 55
    },
    {
      "midi": 71,
      "hit": false,
      "t": 199718.21000000107,
      "d": 281.6900000000023,
      "v": 75
    },
    {
      "midi": 64,
      "hit": false,
      "t": 199999.90000000084,
      "d": 281.6900000000023,
      "v": 55
    },
    {
      "midi": 76,
      "hit": false,
      "t": 199999.90000000107,
      "d": 281.6900000000023,
      "v": 75
    },
    {
      "midi": 67,
      "hit": false,
      "t": 200281.59000000084,
      "d": 281.6900000000023,
      "v": 55
    },
    {
      "midi": 79,
      "hit": false,
      "t": 200281.59000000107,
      "d": 281.6900000000023,
      "v": 75
    },
    {
      "midi": 64,
      "hit": false,
      "t": 200563.28000000084,
      "d": 281.6900000000023,
      "v": 55
    },
    {
      "midi": 76,
      "hit": false,
      "t": 200563.28000000108,
      "d": 281.6900000000023,
      "v": 75
    },
    {
      "midi": 59,
      "hit": false,
      "t": 200844.97000000085,
      "d": 316.90125000002445,
      "v": 55
    },
    {
      "midi": 71,
      "hit": false,
      "t": 200844.97000000108,
      "d": 281.6900000000023,
      "v": 75
    },
    {
      "midi": 52,
      "hit": false,
      "t": 201126.66000000085,
      "d": 2.2007031250104774,
      "v": 65
    },
    {
      "midi": 52,
      "hit": false,
      "t": 201126.66000000108,
      "d": 2.2007031250104774,
      "v": 85
    },
    {
      "midi": 64,
      "hit": false,
      "t": 201126.66000000108,
      "d": 2.2007031250104774,
      "v": 85
    },
    {
      "midi": 40,
      "hit": false,
      "t": 201161.87125000087,
      "d": 1690.140000000014,
      "v": 65
    },
    {
      "midi": 55,
      "hit": false,
      "t": 201408.35000000088,
      "d": 281.6900000000023,
      "v": 55
    },
    {
      "midi": 67,
      "hit": false,
      "t": 201408.35000000108,
      "d": 281.6900000000023,
      "v": 75
    },
    {
      "midi": 59,
      "hit": false,
      "t": 201690.04000000088,
      "d": 281.6900000000023,
      "v": 55
    },
    {
      "midi": 71,
      "hit": false,
      "t": 201690.04000000108,
      "d": 281.6900000000023,
      "v": 75
    },
    {
      "midi": 64,
      "hit": false,
      "t": 201971.73000000088,
      "d": 281.6900000000023,
      "v": 55
    },
    {
      "midi": 76,
      "hit": false,
      "t": 201971.7300000011,
      "d": 281.6900000000023,
      "v": 75
    },
    {
      "midi": 59,
      "hit": false,
      "t": 202253.4200000009,
      "d": 281.6900000000023,
      "v": 55
    },
    {
      "midi": 71,
      "hit": false,
      "t": 202253.4200000011,
      "d": 281.6900000000023,
      "v": 75
    },
    {
      "midi": 55,
      "hit": false,
      "t": 202535.1100000009,
      "d": 1971.8300000000163,
      "v": 55
    },
    {
      "midi": 67,
      "hit": false,
      "t": 202535.1100000011,
      "d": 1971.8300000000163,
      "v": 75
    },
    {
      "midi": 55,
      "hit": false,
      "t": 202816.8000000011,
      "d": 1690.140000000014,
      "v": 85
    },
    {
      "midi": 67,
      "hit": false,
      "t": 202852.01124999984,
      "d": 387.3237500000105,
      "v": 94
    },
    {
      "midi": 59,
      "hit": false,
      "t": 202852.01125000088,
      "d": 246.4787500000093,
      "v": 55
    },
    {
      "midi": 43,
      "hit": false,
      "t": 202852.01125000088,
      "d": 1654.928750000021,
      "v": 65
    },
    {
      "midi": 71,
      "hit": false,
      "t": 202852.0112500011,
      "d": 246.4787500000093,
      "v": 75
    },
    {
      "midi": 62,
      "hit": false,
      "t": 203098.4900000009,
      "d": 281.6900000000023,
      "v": 55
    },
    {
      "midi": 74,
      "hit": false,
      "t": 203098.4900000011,
      "d": 281.6900000000023,
      "v": 75
    },
    {
      "midi": 67,
      "hit": false,
      "t": 203380.17999999985,
      "d": 809.858750000014,
      "v": 94
    },
    {
      "midi": 67,
      "hit": false,
      "t": 203380.1800000009,
      "d": 281.6900000000023,
      "v": 55
    },
    {
      "midi": 79,
      "hit": false,
      "t": 203380.1800000011,
      "d": 281.6900000000023,
      "v": 75
    },
    {
      "midi": 71,
      "hit": false,
      "t": 203661.8700000009,
      "d": 281.6900000000023,
      "v": 55
    },
    {
      "midi": 83,
      "hit": false,
      "t": 203661.8700000011,
      "d": 281.6900000000023,
      "v": 75
    },
    {
      "midi": 67,
      "hit": false,
      "t": 203943.5600000009,
      "d": 316.90124999999534,
      "v": 55
    },
    {
      "midi": 79,
      "hit": false,
      "t": 203943.5600000011,
      "d": 281.6900000000023,
      "v": 75
    },
    {
      "midi": 74,
      "hit": false,
      "t": 204225.2500000011,
      "d": 316.90124999999534,
      "v": 75
    },
    {
      "midi": 67,
      "hit": false,
      "t": 204260.46124999985,
      "d": 176.05624999999418,
      "v": 94
    },
    {
      "midi": 62,
      "hit": false,
      "t": 204260.4612500009,
      "d": 281.6900000000023,
      "v": 55
    },
    {
      "midi": 71,
      "hit": false,
      "t": 204542.15124999985,
      "d": 1549.2950000000128,
      "v": 94
    },
    {
      "midi": 47,
      "hit": false,
      "t": 204542.1512500009,
      "d": 246.4787500000093,
      "v": 65
    },
    {
      "midi": 35,
      "hit": false,
      "t": 204542.1512500009,
      "d": 1690.140000000014,
      "v": 65
    },
    {
      "midi": 59,
      "hit": false,
      "t": 204542.1512500011,
      "d": 246.4787500000093,
      "v": 85
    },
    {
      "midi": 47,
      "hit": false,
      "t": 204542.1512500011,
      "d": 1654.928750000021,
      "v": 85
    },
    {
      "midi": 51,
      "hit": false,
      "t": 204788.6300000009,
      "d": 281.6900000000023,
      "v": 55
    },
    {
      "midi": 63,
      "hit": false,
      "t": 204788.6300000011,
      "d": 281.6900000000023,
      "v": 75
    },
    {
      "midi": 54,
      "hit": false,
      "t": 205070.3200000009,
      "d": 316.90124999999534,
      "v": 55
    },
    {
      "midi": 66,
      "hit": false,
      "t": 205070.3200000011,
      "d": 316.90124999999534,
      "v": 75
    },
    {
      "midi": 71,
      "hit": false,
      "t": 205352.01000000112,
      "d": 281.6900000000023,
      "v": 75
    },
    {
      "midi": 59,
      "hit": false,
      "t": 205387.2212500009,
      "d": 246.4787500000093,
      "v": 55
    },
    {
      "midi": 54,
      "hit": false,
      "t": 205633.7000000009,
      "d": 281.6900000000023,
      "v": 55
    },
    {
      "midi": 66,
      "hit": false,
      "t": 205633.70000000112,
      "d": 281.6900000000023,
      "v": 75
    },
    {
      "midi": 51,
      "hit": false,
      "t": 205915.39000000092,
      "d": 316.90124999999534,
      "v": 55
    },
    {
      "midi": 63,
      "hit": false,
      "t": 205915.39000000112,
      "d": 316.90124999999534,
      "v": 75
    },
    {
      "midi": 83,
      "hit": false,
      "t": 206197.08000000112,
      "d": 3380.2799999999697,
      "v": 69
    },
    {
      "midi": 64,
      "hit": false,
      "t": 206232.29124999986,
      "d": 3309.857500000013,
      "v": 94
    },
    {
      "midi": 71,
      "hit": false,
      "t": 206232.2912500009,
      "d": 3345.0687499999767,
      "v": 49
    },
    {
      "midi": 67,
      "hit": false,
      "t": 206267.5025000009,
      "d": 3309.8574999999837,
      "v": 49
    },
    {
      "midi": 79,
      "hit": false,
      "t": 206267.5025000011,
      "d": 3309.8574999999837,
      "v": 69
    },
    {
      "midi": 52,
      "hit": false,
      "t": 206337.9250000009,
      "d": 3239.4349999999977,
      "v": 49
    },
    {
      "midi": 64,
      "hit": false,
      "t": 206337.9250000011,
      "d": 3239.4349999999977,
      "v": 69
    }
  ]
}