{
  "jsonPath": "Soundtracks/Video Game Music/Animaniacs/animaniacs-maintheme.json",
  "path": "Soundtracks\\Video Game Music\\Animaniacs\\Animaniacs_MainTheme.mid",
  "name": "Animaniacs_MainTheme",
  "difficulty": "Advanced",
  "bpm": 168.0004032009677,
  "notes": [
    {
      "midi": 75,
      "hit": false,
      "t": 1412.1989916666666,
      "d": 82.58908750000023,
      "v": 76
    },
    {
      "midi": 51,
      "hit": false,
      "t": 1415.175175,
      "d": 316.2194791666675,
      "v": 75
    },
    {
      "midi": 63,
      "hit": false,
      "t": 1418.8954041666668,
      "d": 313.98734166666736,
      "v": 75
    },
    {
      "midi": 39,
      "hit": false,
      "t": 1423.3596791666669,
      "d": 313.24329583333406,
      "v": 75
    },
    {
      "midi": 76,
      "hit": false,
      "t": 1457.5857875000002,
      "d": 94.49382083333353,
      "v": 76
    },
    {
      "midi": 64,
      "hit": false,
      "t": 1460.5619708333336,
      "d": 94.49382083333353,
      "v": 76
    },
    {
      "midi": 77,
      "hit": false,
      "t": 1521.573729166667,
      "d": 78.12481250000042,
      "v": 77
    },
    {
      "midi": 65,
      "hit": false,
      "t": 1524.5499125000003,
      "d": 78.12481250000042,
      "v": 77
    },
    {
      "midi": 78,
      "hit": false,
      "t": 1585.561670833334,
      "d": 81.84504166666693,
      "v": 78
    },
    {
      "midi": 66,
      "hit": false,
      "t": 1588.5378541666673,
      "d": 81.84504166666693,
      "v": 78
    },
    {
      "midi": 79,
      "hit": false,
      "t": 1634.6686958333341,
      "d": 92.2616833333334,
      "v": 79
    },
    {
      "midi": 67,
      "hit": false,
      "t": 1638.3889250000009,
      "d": 93.0057291666667,
      "v": 79
    },
    {
      "midi": 80,
      "hit": false,
      "t": 1698.656637500001,
      "d": 92.26168333333362,
      "v": 79
    },
    {
      "midi": 68,
      "hit": false,
      "t": 1699.4006833333342,
      "d": 94.49382083333376,
      "v": 79
    },
    {
      "midi": 81,
      "hit": false,
      "t": 1762.6445791666677,
      "d": 75.89267500000028,
      "v": 80
    },
    {
      "midi": 69,
      "hit": false,
      "t": 1767.1088541666677,
      "d": 74.40458333333368,
      "v": 80
    },
    {
      "midi": 46,
      "hit": false,
      "t": 1782.7338166666677,
      "d": 314.73138750000044,
      "v": 75
    },
    {
      "midi": 58,
      "hit": false,
      "t": 1786.4540458333345,
      "d": 313.24329583333383,
      "v": 75
    },
    {
      "midi": 34,
      "hit": false,
      "t": 1787.1980916666678,
      "d": 316.21947916666727,
      "v": 75
    },
    {
      "midi": 82,
      "hit": false,
      "t": 1823.6563375000012,
      "d": 81.10099583333363,
      "v": 81
    },
    {
      "midi": 70,
      "hit": false,
      "t": 1828.1206125000012,
      "d": 78.12481250000019,
      "v": 81
    },
    {
      "midi": 83,
      "hit": false,
      "t": 1872.0193166666681,
      "d": 94.4938208333333,
      "v": 82
    },
    {
      "midi": 71,
      "hit": false,
      "t": 1874.251454166668,
      "d": 92.2616833333334,
      "v": 82
    },
    {
      "midi": 84,
      "hit": false,
      "t": 1936.7513041666682,
      "d": 95.2378666666666,
      "v": 82
    },
    {
      "midi": 72,
      "hit": false,
      "t": 1937.4953500000015,
      "d": 95.2378666666666,
      "v": 82
    },
    {
      "midi": 85,
      "hit": false,
      "t": 1999.9952000000014,
      "d": 80.3569500000001,
      "v": 83
    },
    {
      "midi": 73,
      "hit": false,
      "t": 2001.483291666668,
      "d": 78.86885833333349,
      "v": 83
    },
    {
      "midi": 86,
      "hit": false,
      "t": 2063.239095833335,
      "d": 80.35695000000032,
      "v": 84
    },
    {
      "midi": 74,
      "hit": false,
      "t": 2065.471233333335,
      "d": 81.84504166666693,
      "v": 84
    },
    {
      "midi": 87,
      "hit": false,
      "t": 2110.113983333335,
      "d": 95.98191249999991,
      "v": 85
    },
    {
      "midi": 75,
      "hit": false,
      "t": 2113.8342125000017,
      "d": 92.26168333333317,
      "v": 85
    },
    {
      "midi": 55,
      "hit": false,
      "t": 2127.971083333335,
      "d": 859.3729374999994,
      "v": 75
    },
    {
      "midi": 67,
      "hit": false,
      "t": 2131.691312500002,
      "d": 570.6831541666656,
      "v": 75
    },
    {
      "midi": 43,
      "hit": false,
      "t": 2133.923450000002,
      "d": 859.3729374999989,
      "v": 75
    },
    {
      "midi": 88,
      "hit": false,
      "t": 2174.1019250000018,
      "d": 93.74977499999977,
      "v": 85
    },
    {
      "midi": 76,
      "hit": false,
      "t": 2177.078108333335,
      "d": 93.74977499999977,
      "v": 85
    },
    {
      "midi": 89,
      "hit": false,
      "t": 2241.810095833335,
      "d": 75.14862916666698,
      "v": 86
    },
    {
      "midi": 77,
      "hit": false,
      "t": 2244.042233333335,
      "d": 75.89267500000005,
      "v": 86
    },
    {
      "midi": 90,
      "hit": false,
      "t": 2302.077808333335,
      "d": 79.6129041666668,
      "v": 87
    },
    {
      "midi": 78,
      "hit": false,
      "t": 2304.309945833335,
      "d": 77.38076666666666,
      "v": 87
    },
    {
      "midi": 91,
      "hit": false,
      "t": 2348.952695833335,
      "d": 98.95809583333312,
      "v": 88
    },
    {
      "midi": 79,
      "hit": false,
      "t": 2351.928879166668,
      "d": 101.19023333333325,
      "v": 88
    },
    {
      "midi": 92,
      "hit": false,
      "t": 2412.9406375000017,
      "d": 95.23786666666638,
      "v": 88
    },
    {
      "midi": 80,
      "hit": false,
      "t": 2415.916820833335,
      "d": 92.26168333333317,
      "v": 88
    },
    {
      "midi": 93,
      "hit": false,
      "t": 2476.928579166668,
      "d": 78.12481249999973,
      "v": 89
    },
    {
      "midi": 81,
      "hit": false,
      "t": 2481.392854166668,
      "d": 76.63672083333313,
      "v": 89
    },
    {
      "midi": 87,
      "hit": false,
      "t": 2494.0416333333346,
      "d": 95.23786666666638,
      "v": 75
    },
    {
      "midi": 94,
      "hit": false,
      "t": 2540.9165208333347,
      "d": 79.61290416666634,
      "v": 90
    },
    {
      "midi": 82,
      "hit": false,
      "t": 2545.3807958333346,
      "d": 81.1009958333334,
      "v": 90
    },
    {
      "midi": 95,
      "hit": false,
      "t": 2588.5354541666675,
      "d": 93.74977500000023,
      "v": 91
    },
    {
      "midi": 83,
      "hit": false,
      "t": 2590.7675916666676,
      "d": 94.4938208333333,
      "v": 91
    },
    {
      "midi": 79,
      "hit": false,
      "t": 2606.3925541666677,
      "d": 95.98191249999991,
      "v": 75
    },
    {
      "midi": 96,
      "hit": false,
      "t": 2651.779350000001,
      "d": 95.23786666666638,
      "v": 91
    },
    {
      "midi": 84,
      "hit": false,
      "t": 2655.499579166668,
      "d": 93.74977499999977,
      "v": 91
    },
    {
      "midi": 75,
      "hit": false,
      "t": 2670.3804958333344,
      "d": 95.98191249999991,
      "v": 75
    },
    {
      "midi": 97,
      "hit": false,
      "t": 2719.487520833334,
      "d": 76.63672083333358,
      "v": 92
    },
    {
      "midi": 85,
      "hit": false,
      "t": 2726.183933333334,
      "d": 69.94030833333363,
      "v": 92
    },
    {
      "midi": 70,
      "hit": false,
      "t": 2738.0886666666675,
      "d": 92.26168333333362,
      "v": 75
    },
    {
      "midi": 98,
      "hit": false,
      "t": 2780.4992791666677,
      "d": 77.38076666666666,
      "v": 93
    },
    {
      "midi": 86,
      "hit": false,
      "t": 2783.475462500001,
      "d": 75.89267500000005,
      "v": 93
    },
    {
      "midi": 67,
      "hit": false,
      "t": 2797.6123333333344,
      "d": 78.86885833333326,
      "v": 75
    },
    {
      "midi": 99,
      "hit": false,
      "t": 2828.8622583333345,
      "d": 141.36870833333342,
      "v": 93
    },
    {
      "midi": 87,
      "hit": false,
      "t": 2830.350350000001,
      "d": 140.62466250000034,
      "v": 93
    },
    {
      "midi": 63,
      "hit": false,
      "t": 2845.2312666666676,
      "d": 145.08893750000016,
      "v": 75
    },
    {
      "midi": 63,
      "hit": false,
      "t": 3212.789908333334,
      "d": 316.9635250000001,
      "v": 93
    },
    {
      "midi": 75,
      "hit": false,
      "t": 3214.2780000000007,
      "d": 315.4754333333335,
      "v": 93
    },
    {
      "midi": 62,
      "hit": false,
      "t": 3562.491450000001,
      "d": 318.4516166666667,
      "v": 93
    },
    {
      "midi": 74,
      "hit": false,
      "t": 3564.723587500001,
      "d": 316.9635250000001,
      "v": 93
    },
    {
      "midi": 63,
      "hit": false,
      "t": 3927.0739083333347,
      "d": 319.93970833333333,
      "v": 93
    },
    {
      "midi": 75,
      "hit": false,
      "t": 3928.5620000000013,
      "d": 317.70757083333365,
      "v": 93
    },
    {
      "midi": 65,
      "hit": false,
      "t": 4277.519495833335,
      "d": 494.79047916666605,
      "v": 93
    },
    {
      "midi": 77,
      "hit": false,
      "t": 4279.751633333335,
      "d": 493.302387499999,
      "v": 93
    },
    {
      "midi": 56,
      "hit": false,
      "t": 4282.727816666668,
      "d": 137.64847916666713,
      "v": 84
    },
    {
      "midi": 44,
      "hit": false,
      "t": 4284.215908333335,
      "d": 138.3925250000002,
      "v": 84
    },
    {
      "midi": 56,
      "hit": false,
      "t": 4470.971412500002,
      "d": 44.64274999999998,
      "v": 75
    },
    {
      "midi": 60,
      "hit": false,
      "t": 4484.364237500002,
      "d": 34.226108333333286,
      "v": 75
    },
    {
      "midi": 51,
      "hit": false,
      "t": 4486.596375000002,
      "d": 35.71419999999944,
      "v": 75
    },
    {
      "midi": 51,
      "hit": false,
      "t": 4646.566229166668,
      "d": 139.88061666666636,
      "v": 84
    },
    {
      "midi": 39,
      "hit": false,
      "t": 4662.191191666668,
      "d": 127.23183749999953,
      "v": 84
    },
    {
      "midi": 63,
      "hit": false,
      "t": 4818.440816666667,
      "d": 144.34489166666572,
      "v": 93
    },
    {
      "midi": 75,
      "hit": false,
      "t": 4820.672954166667,
      "d": 144.34489166666572,
      "v": 93
    },
    {
      "midi": 56,
      "hit": false,
      "t": 4821.417,
      "d": 43.89870416666599,
      "v": 75
    },
    {
      "midi": 60,
      "hit": false,
      "t": 4825.137229166667,
      "d": 43.15465833333292,
      "v": 75
    },
    {
      "midi": 51,
      "hit": false,
      "t": 4828.857458333333,
      "d": 43.15465833333292,
      "v": 75
    },
    {
      "midi": 62,
      "hit": false,
      "t": 4994.779679166666,
      "d": 492.5583416666668,
      "v": 93
    },
    {
      "midi": 74,
      "hit": false,
      "t": 4995.523724999999,
      "d": 494.0464333333339,
      "v": 93
    },
    {
      "midi": 56,
      "hit": false,
      "t": 4997.755862499999,
      "d": 139.13657083333328,
      "v": 84
    },
    {
      "midi": 44,
      "hit": false,
      "t": 5002.2201374999995,
      "d": 138.3925249999993,
      "v": 84
    },
    {
      "midi": 56,
      "hit": false,
      "t": 5185.255412499999,
      "d": 46.87488750000011,
      "v": 75
    },
    {
      "midi": 60,
      "hit": false,
      "t": 5202.368466666666,
      "d": 32.738016666666226,
      "v": 75
    },
    {
      "midi": 51,
      "hit": false,
      "t": 5202.368466666666,
      "d": 34.226108333333286,
      "v": 75
    },
    {
      "midi": 51,
      "hit": false,
      "t": 5362.338320833333,
      "d": 142.85680000000048,
      "v": 84
    },
    {
      "midi": 39,
      "hit": false,
      "t": 5377.963283333333,
      "d": 139.88061666666727,
      "v": 84
    },
    {
      "midi": 63,
      "hit": false,
      "t": 5534.956954166667,
      "d": 142.85679999999957,
      "v": 93
    },
    {
      "midi": 75,
      "hit": false,
      "t": 5536.445045833334,
      "d": 142.85679999999957,
      "v": 93
    },
    {
      "midi": 56,
      "hit": false,
      "t": 5539.421229166667,
      "d": 43.89870416666599,
      "v": 75
    },
    {
      "midi": 60,
      "hit": false,
      "t": 5543.1414583333335,
      "d": 58.03557499999988,
      "v": 75
    },
    {
      "midi": 51,
      "hit": false,
      "t": 5545.373595833334,
      "d": 58.03557499999988,
      "v": 75
    },
    {
      "midi": 60,
      "hit": false,
      "t": 5709.807725000001,
      "d": 142.85679999999957,
      "v": 93
    },
    {
      "midi": 72,
      "hit": false,
      "t": 5713.527954166667,
      "d": 316.21947916666613,
      "v": 93
    },
    {
      "midi": 56,
      "hit": false,
      "t": 5715.760091666667,
      "d": 139.88061666666636,
      "v": 84
    },
    {
      "midi": 44,
      "hit": false,
      "t": 5718.736275,
      "d": 140.62466249999943,
      "v": 84
    },
    {
      "midi": 56,
      "hit": false,
      "t": 5902.515595833333,
      "d": 46.87488750000011,
      "v": 75
    },
    {
      "midi": 60,
      "hit": false,
      "t": 5905.491779166666,
      "d": 45.38679583333396,
      "v": 75
    },
    {
      "midi": 51,
      "hit": false,
      "t": 5906.979870833333,
      "d": 46.13084166666704,
      "v": 75
    },
    {
      "midi": 87,
      "hit": false,
      "t": 6079.598504166666,
      "d": 108.63069166666628,
      "v": 93
    },
    {
      "midi": 51,
      "hit": false,
      "t": 6081.830641666666,
      "d": 137.64847916666622,
      "v": 84
    },
    {
      "midi": 39,
      "hit": false,
      "t": 6092.247283333333,
      "d": 130.20802083333274,
      "v": 84
    },
    {
      "midi": 89,
      "hit": false,
      "t": 6174.836370833333,
      "d": 113.83901249999963,
      "v": 93
    },
    {
      "midi": 56,
      "hit": false,
      "t": 6250.729045833333,
      "d": 47.61893333333319,
      "v": 75
    },
    {
      "midi": 90,
      "hit": false,
      "t": 6252.961183333333,
      "d": 127.23183749999953,
      "v": 93
    },
    {
      "midi": 60,
      "hit": false,
      "t": 6255.937366666666,
      "d": 45.38679583333305,
      "v": 75
    },
    {
      "midi": 51,
      "hit": false,
      "t": 6259.657595833332,
      "d": 43.8987041666669,
      "v": 75
    },
    {
      "midi": 91,
      "hit": false,
      "t": 6348.199049999999,
      "d": 114.5830583333327,
      "v": 93
    },
    {
      "midi": 56,
      "hit": false,
      "t": 6427.0679083333325,
      "d": 148.0651208333329,
      "v": 84
    },
    {
      "midi": 92,
      "hit": false,
      "t": 6430.044091666666,
      "d": 140.62466249999943,
      "v": 93
    },
    {
      "midi": 44,
      "hit": false,
      "t": 6441.2047791666655,
      "d": 133.92824999999993,
      "v": 84
    },
    {
      "midi": 60,
      "hit": false,
      "t": 6617.543641666665,
      "d": 47.61893333333319,
      "v": 75
    },
    {
      "midi": 56,
      "hit": false,
      "t": 6622.751962499999,
      "d": 44.64274999999998,
      "v": 75
    },
    {
      "midi": 51,
      "hit": false,
      "t": 6624.240054166666,
      "d": 124.9996999999994,
      "v": 84
    },
    {
      "midi": 39,
      "hit": false,
      "t": 6627.216237499999,
      "d": 135.41634166666609,
      "v": 84
    },
    {
      "midi": 62,
      "hit": false,
      "t": 6793.138458333332,
      "d": 128.71992916666568,
      "v": 93
    },
    {
      "midi": 74,
      "hit": false,
      "t": 6793.882504166665,
      "d": 128.71992916666568,
      "v": 93
    },
    {
      "midi": 53,
      "hit": false,
      "t": 6797.602733333331,
      "d": 139.88061666666636,
      "v": 84
    },
    {
      "midi": 41,
      "hit": false,
      "t": 6802.811054166665,
      "d": 148.0651208333329,
      "v": 84
    },
    {
      "midi": 63,
      "hit": false,
      "t": 6967.989229166665,
      "d": 142.1127541666674,
      "v": 93
    },
    {
      "midi": 75,
      "hit": false,
      "t": 6969.477320833332,
      "d": 142.1127541666674,
      "v": 93
    },
    {
      "midi": 56,
      "hit": false,
      "t": 6970.965412499999,
      "d": 46.87488750000011,
      "v": 75
    },
    {
      "midi": 60,
      "hit": false,
      "t": 6974.685641666665,
      "d": 43.15465833333383,
      "v": 75
    },
    {
      "midi": 51,
      "hit": false,
      "t": 6977.661824999998,
      "d": 43.8987041666669,
      "v": 75
    },
    {
      "midi": 55,
      "hit": false,
      "t": 6984.358237499999,
      "d": 127.97588333333351,
      "v": 84
    },
    {
      "midi": 43,
      "hit": false,
      "t": 6986.590374999999,
      "d": 130.95206666666672,
      "v": 84
    },
    {
      "midi": 65,
      "hit": false,
      "t": 7143.584045833332,
      "d": 492.5583416666668,
      "v": 93
    },
    {
      "midi": 56,
      "hit": false,
      "t": 7146.5602291666655,
      "d": 140.62466250000034,
      "v": 84
    },
    {
      "midi": 77,
      "hit": false,
      "t": 7146.5602291666655,
      "d": 490.3262041666667,
      "v": 93
    },
    {
      "midi": 44,
      "hit": false,
      "t": 7153.256641666666,
      "d": 134.672295833333,
      "v": 84
    },
    {
      "midi": 56,
      "hit": false,
      "t": 7334.803824999999,
      "d": 48.362979166667174,
      "v": 75
    },
    {
      "midi": 60,
      "hit": false,
      "t": 7341.5002374999995,
      "d": 41.66656666666677,
      "v": 75
    },
    {
      "midi": 51,
      "hit": false,
      "t": 7341.5002374999995,
      "d": 47.61893333333319,
      "v": 75
    },
    {
      "midi": 51,
      "hit": false,
      "t": 7512.630779166666,
      "d": 141.36870833333342,
      "v": 84
    },
    {
      "midi": 39,
      "hit": false,
      "t": 7515.606962499999,
      "d": 138.3925250000002,
      "v": 84
    },
    {
      "midi": 63,
      "hit": false,
      "t": 7684.505366666666,
      "d": 143.60084583333446,
      "v": 93
    },
    {
      "midi": 75,
      "hit": false,
      "t": 7685.993458333333,
      "d": 142.85680000000048,
      "v": 93
    },
    {
      "midi": 56,
      "hit": false,
      "t": 7687.48155,
      "d": 44.64274999999998,
      "v": 75
    },
    {
      "midi": 60,
      "hit": false,
      "t": 7690.457733333334,
      "d": 43.15465833333383,
      "v": 75
    },
    {
      "midi": 51,
      "hit": false,
      "t": 7692.689870833334,
      "d": 43.8987041666669,
      "v": 75
    },
    {
      "midi": 74,
      "hit": false,
      "t": 7861.588275,
      "d": 492.558341666665,
      "v": 93
    },
    {
      "midi": 62,
      "hit": false,
      "t": 7861.588275,
      "d": 493.3023874999981,
      "v": 93
    },
    {
      "midi": 56,
      "hit": false,
      "t": 7865.308504166666,
      "d": 136.90443333333315,
      "v": 84
    },
    {
      "midi": 44,
      "hit": false,
      "t": 7867.5406416666665,
      "d": 137.64847916666622,
      "v": 84
    },
    {
      "midi": 56,
      "hit": false,
      "t": 8052.808054166666,
      "d": 44.64274999999907,
      "v": 75
    },
    {
      "midi": 60,
      "hit": false,
      "t": 8066.200879166666,
      "d": 31.249924999999166,
      "v": 75
    },
    {
      "midi": 51,
      "hit": false,
      "t": 8069.921108333332,
      "d": 34.226108333333286,
      "v": 75
    },
    {
      "midi": 51,
      "hit": false,
      "t": 8226.170733333332,
      "d": 143.60084583333264,
      "v": 84
    },
    {
      "midi": 39,
      "hit": false,
      "t": 8243.283787499999,
      "d": 141.36870833333342,
      "v": 84
    },
    {
      "midi": 63,
      "hit": false,
      "t": 8401.765549999998,
      "d": 141.36870833333342,
      "v": 93
    },
    {
      "midi": 56,
      "hit": false,
      "t": 8403.253641666664,
      "d": 47.61893333333319,
      "v": 75
    },
    {
      "midi": 75,
      "hit": false,
      "t": 8403.997687499997,
      "d": 140.62466250000034,
      "v": 93
    },
    {
      "midi": 60,
      "hit": false,
      "t": 8408.461962499998,
      "d": 58.03557499999988,
      "v": 75
    },
    {
      "midi": 51,
      "hit": false,
      "t": 8413.670283333331,
      "d": 57.291529166666805,
      "v": 75
    },
    {
      "midi": 58,
      "hit": false,
      "t": 8577.360366666664,
      "d": 260.4160416666673,
      "v": 93
    },
    {
      "midi": 70,
      "hit": false,
      "t": 8577.360366666664,
      "d": 317.7075708333341,
      "v": 93
    },
    {
      "midi": 46,
      "hit": false,
      "t": 8582.568687499997,
      "d": 137.64847916666622,
      "v": 84
    },
    {
      "midi": 55,
      "hit": false,
      "t": 8769.324191666663,
      "d": 47.61893333333501,
      "v": 75
    },
    {
      "midi": 61,
      "hit": false,
      "t": 8782.717016666664,
      "d": 34.226108333334196,
      "v": 75
    },
    {
      "midi": 51,
      "hit": false,
      "t": 8786.437245833331,
      "d": 31.99397083333315,
      "v": 75
    },
    {
      "midi": 87,
      "hit": false,
      "t": 8944.919008333332,
      "d": 109.37473749999845,
      "v": 93
    },
    {
      "midi": 51,
      "hit": false,
      "t": 8945.663054166665,
      "d": 138.3925249999993,
      "v": 84
    },
    {
      "midi": 39,
      "hit": false,
      "t": 8958.311833333331,
      "d": 127.9758833333326,
      "v": 84
    },
    {
      "midi": 89,
      "hit": false,
      "t": 9041.644966666665,
      "d": 112.35092083333075,
      "v": 93
    },
    {
      "midi": 55,
      "hit": false,
      "t": 9117.537641666664,
      "d": 49.10702499999752,
      "v": 75
    },
    {
      "midi": 91,
      "hit": false,
      "t": 9119.769779166663,
      "d": 124.99969999999848,
      "v": 93
    },
    {
      "midi": 61,
      "hit": false,
      "t": 9121.25787083333,
      "d": 45.386795833332144,
      "v": 75
    },
    {
      "midi": 51,
      "hit": false,
      "t": 9126.466191666663,
      "d": 42.410612499998024,
      "v": 75
    },
    {
      "midi": 92,
      "hit": false,
      "t": 9215.007645833328,
      "d": 113.83901250000054,
      "v": 93
    },
    {
      "midi": 94,
      "hit": false,
      "t": 9293.876504166661,
      "d": 144.34489166666754,
      "v": 93
    },
    {
      "midi": 58,
      "hit": false,
      "t": 9294.620549999994,
      "d": 145.8329833333337,
      "v": 84
    },
    {
      "midi": 46,
      "hit": false,
      "t": 9308.013374999995,
      "d": 134.6722958333321,
      "v": 84
    },
    {
      "midi": 61,
      "hit": false,
      "t": 9485.096283333327,
      "d": 46.87488750000011,
      "v": 75
    },
    {
      "midi": 55,
      "hit": false,
      "t": 9486.584374999993,
      "d": 45.38679583333396,
      "v": 75
    },
    {
      "midi": 51,
      "hit": false,
      "t": 9491.792695833326,
      "d": 121.27947083333311,
      "v": 84
    },
    {
      "midi": 39,
      "hit": false,
      "t": 9494.76887916666,
      "d": 133.18420416666595,
      "v": 84
    },
    {
      "midi": 60,
      "hit": false,
      "t": 9660.691099999993,
      "d": 124.9997000000003,
      "v": 93
    },
    {
      "midi": 53,
      "hit": false,
      "t": 9661.435145833326,
      "d": 142.1127541666683,
      "v": 84
    },
    {
      "midi": 72,
      "hit": false,
      "t": 9662.179191666659,
      "d": 126.48779166666827,
      "v": 93
    },
    {
      "midi": 41,
      "hit": false,
      "t": 9665.155374999993,
      "d": 151.78535000000193,
      "v": 84
    },
    {
      "midi": 70,
      "hit": false,
      "t": 9834.797824999994,
      "d": 145.0889374999988,
      "v": 93
    },
    {
      "midi": 58,
      "hit": false,
      "t": 9835.541870833327,
      "d": 141.36870833333342,
      "v": 93
    },
    {
      "midi": 61,
      "hit": false,
      "t": 9837.029962499993,
      "d": 44.64275000000089,
      "v": 75
    },
    {
      "midi": 51,
      "hit": false,
      "t": 9842.238283333327,
      "d": 40.92252083333369,
      "v": 75
    },
    {
      "midi": 55,
      "hit": false,
      "t": 9845.958512499994,
      "d": 133.18420416666595,
      "v": 84
    },
    {
      "midi": 43,
      "hit": false,
      "t": 9848.934695833328,
      "d": 132.44015833333106,
      "v": 84
    },
    {
      "midi": 56,
      "hit": false,
      "t": 10008.904549999992,
      "d": 145.0889375000006,
      "v": 93
    },
    {
      "midi": 68,
      "hit": false,
      "t": 10012.62477916666,
      "d": 142.85679999999957,
      "v": 93
    },
    {
      "midi": 44,
      "hit": false,
      "t": 10017.833099999993,
      "d": 139.13657083333237,
      "v": 84
    },
    {
      "midi": 56,
      "hit": false,
      "t": 10199.380283333325,
      "d": 127.9758833333326,
      "v": 93
    },
    {
      "midi": 68,
      "hit": false,
      "t": 10201.612420833324,
      "d": 127.23183749999953,
      "v": 93
    },
    {
      "midi": 60,
      "hit": false,
      "t": 10205.332649999991,
      "d": 43.89870416666599,
      "v": 75
    },
    {
      "midi": 51,
      "hit": false,
      "t": 10205.332649999991,
      "d": 45.386795833332144,
      "v": 75
    },
    {
      "midi": 60,
      "hit": false,
      "t": 10376.463191666657,
      "d": 125.74374583333338,
      "v": 93
    },
    {
      "midi": 72,
      "hit": false,
      "t": 10380.183420833324,
      "d": 122.76756249999926,
      "v": 93
    },
    {
      "midi": 56,
      "hit": false,
      "t": 10384.647695833324,
      "d": 134.6722958333321,
      "v": 84
    },
    {
      "midi": 44,
      "hit": false,
      "t": 10389.856016666658,
      "d": 129.46397499999875,
      "v": 84
    },
    {
      "midi": 63,
      "hit": false,
      "t": 10549.825870833323,
      "d": 145.0889374999988,
      "v": 93
    },
    {
      "midi": 75,
      "hit": false,
      "t": 10551.31396249999,
      "d": 143.60084583333264,
      "v": 93
    },
    {
      "midi": 56,
      "hit": false,
      "t": 10552.802054166656,
      "d": 44.64275000000089,
      "v": 75
    },
    {
      "midi": 60,
      "hit": false,
      "t": 10555.77823749999,
      "d": 43.89870416666599,
      "v": 75
    },
    {
      "midi": 51,
      "hit": false,
      "t": 10560.24251249999,
      "d": 43.89870416666599,
      "v": 75
    },
    {
      "midi": 68,
      "hit": false,
      "t": 10725.420687499989,
      "d": 322.1718458333362,
      "v": 93
    },
    {
      "midi": 80,
      "hit": false,
      "t": 10728.396870833323,
      "d": 318.451616666669,
      "v": 93
    },
    {
      "midi": 54,
      "hit": false,
      "t": 10731.373054166657,
      "d": 138.3925249999993,
      "v": 84
    },
    {
      "midi": 42,
      "hit": false,
      "t": 10732.861145833323,
      "d": 139.13657083333237,
      "v": 84
    },
    {
      "midi": 56,
      "hit": false,
      "t": 10916.640466666657,
      "d": 47.61893333333501,
      "v": 75
    },
    {
      "midi": 92,
      "hit": false,
      "t": 10919.61664999999,
      "d": 108.63069166666719,
      "v": 93
    },
    {
      "midi": 60,
      "hit": false,
      "t": 10933.009474999992,
      "d": 33.4820624999993,
      "v": 75
    },
    {
      "midi": 54,
      "hit": false,
      "t": 10935.985658333326,
      "d": 33.4820624999993,
      "v": 75
    },
    {
      "midi": 94,
      "hit": false,
      "t": 10997.741462499991,
      "d": 127.97588333333624,
      "v": 93
    },
    {
      "midi": 54,
      "hit": false,
      "t": 11092.235283333326,
      "d": 146.57702916666858,
      "v": 84
    },
    {
      "midi": 96,
      "hit": false,
      "t": 11092.97932916666,
      "d": 125.7437458333352,
      "v": 93
    },
    {
      "midi": 42,
      "hit": false,
      "t": 11107.116199999993,
      "d": 142.85680000000139,
      "v": 84
    },
    {
      "midi": 68,
      "hit": false,
      "t": 11269.318191666662,
      "d": 141.36870833333342,
      "v": 93
    },
    {
      "midi": 80,
      "hit": false,
      "t": 11269.318191666662,
      "d": 142.1127541666665,
      "v": 93
    },
    {
      "midi": 56,
      "hit": false,
      "t": 11270.062237499995,
      "d": 44.64275000000089,
      "v": 75
    },
    {
      "midi": 60,
      "hit": false,
      "t": 11273.782466666662,
      "d": 59.52366666666785,
      "v": 75
    },
    {
      "midi": 54,
      "hit": false,
      "t": 11276.758649999996,
      "d": 58.03557499999988,
      "v": 75
    },
    {
      "midi": 70,
      "hit": false,
      "t": 11442.680870833328,
      "d": 214.28520000000208,
      "v": 93
    },
    {
      "midi": 53,
      "hit": false,
      "t": 11445.657054166662,
      "d": 138.39252500000111,
      "v": 84
    },
    {
      "midi": 82,
      "hit": false,
      "t": 11445.657054166662,
      "d": 204.61260416666846,
      "v": 93
    },
    {
      "midi": 41,
      "hit": false,
      "t": 11449.37728333333,
      "d": 137.64847916666804,
      "v": 84
    },
    {
      "midi": 56,
      "hit": false,
      "t": 11633.900649999998,
      "d": 48.362979166666264,
      "v": 75
    },
    {
      "midi": 61,
      "hit": false,
      "t": 11648.037520833332,
      "d": 36.4582458333316,
      "v": 75
    },
    {
      "midi": 53,
      "hit": false,
      "t": 11651.013704166664,
      "d": 34.97015416666545,
      "v": 75
    },
    {
      "midi": 80,
      "hit": false,
      "t": 11683.75172083333,
      "d": 78.86885833333326,
      "v": 93
    },
    {
      "midi": 68,
      "hit": false,
      "t": 11690.44813333333,
      "d": 69.19626249999965,
      "v": 93
    },
    {
      "midi": 67,
      "hit": false,
      "t": 11810.239512499997,
      "d": 124.25565416666723,
      "v": 93
    },
    {
      "midi": 79,
      "hit": false,
      "t": 11810.98355833333,
      "d": 124.9997000000003,
      "v": 93
    },
    {
      "midi": 56,
      "hit": false,
      "t": 11824.37638333333,
      "d": 126.48779166666645,
      "v": 84
    },
    {
      "midi": 44,
      "hit": false,
      "t": 11828.096612499998,
      "d": 125.74374583333338,
      "v": 84
    },
    {
      "midi": 68,
      "hit": false,
      "t": 11984.346237499998,
      "d": 140.62466249999852,
      "v": 93
    },
    {
      "midi": 80,
      "hit": false,
      "t": 11984.346237499998,
      "d": 142.85679999999775,
      "v": 93
    },
    {
      "midi": 56,
      "hit": false,
      "t": 11988.066466666665,
      "d": 43.89870416666599,
      "v": 75
    },
    {
      "midi": 61,
      "hit": false,
      "t": 11990.298604166665,
      "d": 43.89870416666599,
      "v": 75
    },
    {
      "midi": 53,
      "hit": false,
      "t": 11993.274787499999,
      "d": 43.1546583333311,
      "v": 75
    },
    {
      "midi": 65,
      "hit": false,
      "t": 12158.452962499996,
      "d": 319.1956625000039,
      "v": 93
    },
    {
      "midi": 77,
      "hit": false,
      "t": 12159.197008333329,
      "d": 321.42780000000494,
      "v": 93
    },
    {
      "midi": 56,
      "hit": false,
      "t": 12161.429145833328,
      "d": 142.8568000000032,
      "v": 75
    },
    {
      "midi": 61,
      "hit": false,
      "t": 12165.149374999995,
      "d": 142.8568000000032,
      "v": 75
    },
    {
      "midi": 53,
      "hit": false,
      "t": 12168.12555833333,
      "d": 142.8568000000032,
      "v": 75
    },
    {
      "midi": 49,
      "hit": false,
      "t": 12171.845787499997,
      "d": 319.93970833333697,
      "v": 84
    },
    {
      "midi": 37,
      "hit": false,
      "t": 12430.7737375,
      "d": 61.011758333334,
      "v": 93
    },
    {
      "midi": 32,
      "hit": false,
      "t": 12496.993816666667,
      "d": 45.38679583333396,
      "v": 93
    },
    {
      "midi": 25,
      "hit": false,
      "t": 12525.267558333335,
      "d": 143.60084583333264,
      "v": 93
    },
    {
      "midi": 65,
      "hit": false,
      "t": 12699.374283333334,
      "d": 142.85679999999957,
      "v": 93
    },
    {
      "midi": 77,
      "hit": false,
      "t": 12700.862375,
      "d": 142.85679999999957,
      "v": 93
    },
    {
      "midi": 75,
      "hit": false,
      "t": 12877.2012375,
      "d": 319.19566249999843,
      "v": 93
    },
    {
      "midi": 63,
      "hit": false,
      "t": 12891.338108333333,
      "d": 303.5706999999984,
      "v": 93
    },
    {
      "midi": 51,
      "hit": false,
      "t": 12893.570245833333,
      "d": 124.25565416666723,
      "v": 84
    },
    {
      "midi": 39,
      "hit": false,
      "t": 12899.522612499999,
      "d": 119.79137916666696,
      "v": 84
    },
    {
      "midi": 56,
      "hit": false,
      "t": 13066.188879166666,
      "d": 48.362979166666264,
      "v": 75
    },
    {
      "midi": 60,
      "hit": false,
      "t": 13069.909108333333,
      "d": 44.64274999999907,
      "v": 75
    },
    {
      "midi": 51,
      "hit": false,
      "t": 13076.605520833333,
      "d": 43.15465833333292,
      "v": 75
    },
    {
      "midi": 72,
      "hit": false,
      "t": 13243.271787499998,
      "d": 315.4754333333349,
      "v": 93
    },
    {
      "midi": 84,
      "hit": false,
      "t": 13244.759879166664,
      "d": 315.4754333333349,
      "v": 93
    },
    {
      "midi": 52,
      "hit": false,
      "t": 13246.24797083333,
      "d": 136.90443333333315,
      "v": 84
    },
    {
      "midi": 40,
      "hit": false,
      "t": 13252.94438333333,
      "d": 133.92825000000084,
      "v": 84
    },
    {
      "midi": 56,
      "hit": false,
      "t": 13416.634466666665,
      "d": 47.61893333333501,
      "v": 75
    },
    {
      "midi": 60,
      "hit": false,
      "t": 13419.610649999999,
      "d": 46.13084166666704,
      "v": 75
    },
    {
      "midi": 52,
      "hit": false,
      "t": 13422.586833333333,
      "d": 46.87488750000011,
      "v": 75
    },
    {
      "midi": 82,
      "hit": false,
      "t": 13592.229283333332,
      "d": 78.86885833333508,
      "v": 93
    },
    {
      "midi": 70,
      "hit": false,
      "t": 13607.1102,
      "d": 476.9333791666686,
      "v": 93
    },
    {
      "midi": 53,
      "hit": false,
      "t": 13610.086383333333,
      "d": 126.48779166666827,
      "v": 84
    },
    {
      "midi": 41,
      "hit": false,
      "t": 13616.782795833333,
      "d": 121.27947083333493,
      "v": 84
    },
    {
      "midi": 84,
      "hit": false,
      "t": 13657.705316666666,
      "d": 79.61290416666816,
      "v": 93
    },
    {
      "midi": 82,
      "hit": false,
      "t": 13722.437304166668,
      "d": 77.38076666666711,
      "v": 93
    },
    {
      "midi": 84,
      "hit": false,
      "t": 13783.449062500002,
      "d": 64.7319875000012,
      "v": 93
    },
    {
      "midi": 61,
      "hit": false,
      "t": 13784.193108333335,
      "d": 44.64275000000089,
      "v": 75
    },
    {
      "midi": 58,
      "hit": false,
      "t": 13797.585933333336,
      "d": 31.249925000000076,
      "v": 75
    },
    {
      "midi": 53,
      "hit": false,
      "t": 13802.794254166669,
      "d": 34.226108333334196,
      "v": 75
    },
    {
      "midi": 82,
      "hit": false,
      "t": 13833.300133333336,
      "d": 81.84504166666557,
      "v": 93
    },
    {
      "midi": 84,
      "hit": false,
      "t": 13897.288075000002,
      "d": 76.63672083333222,
      "v": 93
    },
    {
      "midi": 55,
      "hit": false,
      "t": 13957.555787500001,
      "d": 145.0889374999988,
      "v": 84
    },
    {
      "midi": 82,
      "hit": false,
      "t": 13960.531970833335,
      "d": 124.99969999999848,
      "v": 93
    },
    {
      "midi": 43,
      "hit": false,
      "t": 13972.436704166668,
      "d": 143.60084583333264,
      "v": 84
    },
    {
      "midi": 68,
      "hit": false,
      "t": 14133.150604166667,
      "d": 142.85679999999957,
      "v": 93
    },
    {
      "midi": 80,
      "hit": false,
      "t": 14135.382741666666,
      "d": 142.85679999999957,
      "v": 93
    },
    {
      "midi": 55,
      "hit": false,
      "t": 14136.1267875,
      "d": 46.13084166666704,
      "v": 75
    },
    {
      "midi": 61,
      "hit": false,
      "t": 14140.5910625,
      "d": 55.803437500000655,
      "v": 75
    },
    {
      "midi": 51,
      "hit": false,
      "t": 14142.823199999999,
      "d": 58.0355750000017,
      "v": 75
    },
    {
      "midi": 80,
      "hit": false,
      "t": 14309.489466666666,
      "d": 316.96352500000285,
      "v": 93
    },
    {
      "midi": 68,
      "hit": false,
      "t": 14323.6263375,
      "d": 303.57070000000203,
      "v": 93
    },
    {
      "midi": 56,
      "hit": false,
      "t": 14327.346566666667,
      "d": 124.9997000000003,
      "v": 84
    },
    {
      "midi": 44,
      "hit": false,
      "t": 14331.066795833334,
      "d": 121.27947083333311,
      "v": 84
    },
    {
      "midi": 56,
      "hit": false,
      "t": 14500.709245833334,
      "d": 45.38679583333578,
      "v": 75
    },
    {
      "midi": 60,
      "hit": false,
      "t": 14514.102070833334,
      "d": 34.226108333334196,
      "v": 75
    },
    {
      "midi": 51,
      "hit": false,
      "t": 14517.078254166669,
      "d": 34.226108333334196,
      "v": 75
    },
    {
      "midi": 84,
      "hit": false,
      "t": 14677.048108333336,
      "d": 111.60687499999949,
      "v": 93
    },
    {
      "midi": 51,
      "hit": false,
      "t": 14679.280245833335,
      "d": 139.1365708333342,
      "v": 84
    },
    {
      "midi": 39,
      "hit": false,
      "t": 14688.952841666669,
      "d": 129.46397500000057,
      "v": 84
    },
    {
      "midi": 86,
      "hit": false,
      "t": 14773.030020833336,
      "d": 112.35092083333438,
      "v": 93
    },
    {
      "midi": 56,
      "hit": false,
      "t": 14848.922695833337,
      "d": 49.10702499999934,
      "v": 75
    },
    {
      "midi": 87,
      "hit": false,
      "t": 14850.410787500003,
      "d": 126.48779166666827,
      "v": 93
    },
    {
      "midi": 60,
      "hit": false,
      "t": 14854.13101666667,
      "d": 43.89870416666599,
      "v": 75
    },
    {
      "midi": 51,
      "hit": false,
      "t": 14854.875062500003,
      "d": 46.87488750000011,
      "v": 75
    },
    {
      "midi": 89,
      "hit": false,
      "t": 14947.88079166667,
      "d": 110.86282916666642,
      "v": 93
    },
    {
      "midi": 91,
      "hit": false,
      "t": 15025.261558333337,
      "d": 130.9520666666649,
      "v": 93
    },
    {
      "midi": 55,
      "hit": false,
      "t": 15039.398429166671,
      "d": 132.44015833333106,
      "v": 84
    },
    {
      "midi": 43,
      "hit": false,
      "t": 15056.511483333337,
      "d": 115.32710416666487,
      "v": 84
    },
    {
      "midi": 90,
      "hit": false,
      "t": 15122.731562500003,
      "d": 126.48779166666463,
      "v": 93
    },
    {
      "midi": 55,
      "hit": false,
      "t": 15214.993245833335,
      "d": 47.61893333333319,
      "v": 75
    },
    {
      "midi": 91,
      "hit": false,
      "t": 15217.225383333334,
      "d": 112.35092083333438,
      "v": 93
    },
    {
      "midi": 59,
      "hit": false,
      "t": 15219.457520833334,
      "d": 44.64275000000089,
      "v": 75
    },
    {
      "midi": 53,
      "hit": false,
      "t": 15222.433704166668,
      "d": 45.38679583333396,
      "v": 75
    },
    {
      "midi": 93,
      "hit": false,
      "t": 15298.326379166669,
      "d": 125.74374583333338,
      "v": 93
    },
    {
      "midi": 95,
      "hit": false,
      "t": 15392.076154166669,
      "d": 110.86282916666642,
      "v": 93
    },
    {
      "midi": 67,
      "hit": false,
      "t": 15392.076154166669,
      "d": 317.70757083333774,
      "v": 93
    },
    {
      "midi": 47,
      "hit": false,
      "t": 15393.564245833335,
      "d": 144.34489166666754,
      "v": 84
    },
    {
      "midi": 79,
      "hit": false,
      "t": 15395.052337500001,
      "d": 316.2194791666716,
      "v": 93
    },
    {
      "midi": 35,
      "hit": false,
      "t": 15399.516612500001,
      "d": 151.78535000000193,
      "v": 84
    },
    {
      "midi": 91,
      "hit": false,
      "t": 15487.314020833335,
      "d": 112.3509208333362,
      "v": 93
    },
    {
      "midi": 55,
      "hit": false,
      "t": 15566.18287916667,
      "d": 46.87488750000193,
      "v": 75
    },
    {
      "midi": 93,
      "hit": false,
      "t": 15569.159062500004,
      "d": 125.7437458333352,
      "v": 93
    },
    {
      "midi": 59,
      "hit": false,
      "t": 15581.80784166667,
      "d": 32.738016666668045,
      "v": 75
    },
    {
      "midi": 53,
      "hit": false,
      "t": 15585.528070833338,
      "d": 31.99397083333497,
      "v": 75
    },
    {
      "midi": 95,
      "hit": false,
      "t": 15662.164791666673,
      "d": 113.83901250000054,
      "v": 93
    },
    {
      "midi": 96,
      "hit": false,
      "t": 15744.753879166672,
      "d": 139.88061666666727,
      "v": 93
    },
    {
      "midi": 81,
      "hit": false,
      "t": 15747.730062500006,
      "d": 139.88061666666545,
      "v": 93
    },
    {
      "midi": 69,
      "hit": false,
      "t": 15756.658612500007,
      "d": 126.48779166666645,
      "v": 93
    },
    {
      "midi": 48,
      "hit": false,
      "t": 15762.610979166673,
      "d": 123.51160833333233,
      "v": 84
    },
    {
      "midi": 36,
      "hit": false,
      "t": 15765.587162500007,
      "d": 123.51160833333051,
      "v": 84
    },
    {
      "midi": 67,
      "hit": false,
      "t": 15932.25342916667,
      "d": 126.48779166666463,
      "v": 93
    },
    {
      "midi": 55,
      "hit": false,
      "t": 15934.48556666667,
      "d": 46.13084166666522,
      "v": 75
    },
    {
      "midi": 79,
      "hit": false,
      "t": 15935.229612500003,
      "d": 126.48779166666645,
      "v": 93
    },
    {
      "midi": 60,
      "hit": false,
      "t": 15937.461750000002,
      "d": 43.15465833333292,
      "v": 75
    },
    {
      "midi": 52,
      "hit": false,
      "t": 15944.158162500002,
      "d": 40.17847500000062,
      "v": 75
    },
    {
      "midi": 66,
      "hit": false,
      "t": 16109.336337500003,
      "d": 126.48779166666645,
      "v": 93
    },
    {
      "midi": 78,
      "hit": false,
      "t": 16110.080383333336,
      "d": 124.9997000000003,
      "v": 93
    },
    {
      "midi": 55,
      "hit": false,
      "t": 16114.544658333336,
      "d": 135.416341666667,
      "v": 84
    },
    {
      "midi": 43,
      "hit": false,
      "t": 16117.52084166667,
      "d": 135.416341666667,
      "v": 84
    },
    {
      "midi": 67,
      "hit": false,
      "t": 16283.443062500004,
      "d": 140.62466250000034,
      "v": 93
    },
    {
      "midi": 79,
      "hit": false,
      "t": 16283.443062500004,
      "d": 142.1127541666665,
      "v": 93
    },
    {
      "midi": 55,
      "hit": false,
      "t": 16285.675200000003,
      "d": 43.15465833333474,
      "v": 75
    },
    {
      "midi": 60,
      "hit": false,
      "t": 16290.139475000004,
      "d": 41.66656666666859,
      "v": 75
    },
    {
      "midi": 52,
      "hit": false,
      "t": 16293.115658333338,
      "d": 42.41061250000166,
      "v": 75
    },
    {
      "midi": 76,
      "hit": false,
      "t": 16458.293833333337,
      "d": 142.85679999999775,
      "v": 93
    },
    {
      "midi": 64,
      "hit": false,
      "t": 16473.174750000002,
      "d": 127.9758833333326,
      "v": 93
    },
    {
      "midi": 48,
      "hit": false,
      "t": 16478.383070833333,
      "d": 124.25565416666723,
      "v": 84
    },
    {
      "midi": 36,
      "hit": false,
      "t": 16486.567575,
      "d": 117.55924166666591,
      "v": 84
    },
    {
      "midi": 67,
      "hit": false,
      "t": 16648.025520833333,
      "d": 128.71992916666204,
      "v": 93
    },
    {
      "midi": 79,
      "hit": false,
      "t": 16648.769566666666,
      "d": 129.46397499999512,
      "v": 93
    },
    {
      "midi": 55,
      "hit": false,
      "t": 16651.001704166665,
      "d": 46.874887499998295,
      "v": 75
    },
    {
      "midi": 60,
      "hit": false,
      "t": 16654.72193333333,
      "d": 43.89870416666599,
      "v": 75
    },
    {
      "midi": 52,
      "hit": false,
      "t": 16658.442162499996,
      "d": 43.15465833333292,
      "v": 75
    },
    {
      "midi": 78,
      "hit": false,
      "t": 16824.364383333326,
      "d": 128.71992916666204,
      "v": 93
    },
    {
      "midi": 66,
      "hit": false,
      "t": 16825.10842916666,
      "d": 125.74374583332974,
      "v": 93
    },
    {
      "midi": 55,
      "hit": false,
      "t": 16828.08461249999,
      "d": 141.3687083333316,
      "v": 84
    },
    {
      "midi": 43,
      "hit": false,
      "t": 16830.31674999999,
      "d": 151.7853499999983,
      "v": 84
    },
    {
      "midi": 67,
      "hit": false,
      "t": 16998.471108333324,
      "d": 145.08893749999697,
      "v": 93
    },
    {
      "midi": 79,
      "hit": false,
      "t": 16999.95919999999,
      "d": 143.60084583333082,
      "v": 93
    },
    {
      "midi": 55,
      "hit": false,
      "t": 17001.447291666656,
      "d": 44.64274999999907,
      "v": 75
    },
    {
      "midi": 60,
      "hit": false,
      "t": 17005.16752083332,
      "d": 58.0355750000017,
      "v": 75
    },
    {
      "midi": 52,
      "hit": false,
      "t": 17008.143704166654,
      "d": 58.779620833334775,
      "v": 75
    },
    {
      "midi": 81,
      "hit": false,
      "t": 17176.298062499987,
      "d": 142.8567999999941,
      "v": 93
    },
    {
      "midi": 69,
      "hit": false,
      "t": 17190.43493333332,
      "d": 126.48779166666282,
      "v": 93
    },
    {
      "midi": 48,
      "hit": false,
      "t": 17194.899208333318,
      "d": 122.02351666666436,
      "v": 84
    },
    {
      "midi": 36,
      "hit": false,
      "t": 17198.619437499983,
      "d": 122.76756249999744,
      "v": 84
    },
    {
      "midi": 67,
      "hit": false,
      "t": 17366.02974999998,
      "d": 127.23183749999589,
      "v": 93
    },
    {
      "midi": 79,
      "hit": false,
      "t": 17367.517841666646,
      "d": 125.74374583332974,
      "v": 93
    },
    {
      "midi": 55,
      "hit": false,
      "t": 17369.005933333312,
      "d": 41.66656666666313,
      "v": 75
    },
    {
      "midi": 60,
      "hit": false,
      "t": 17371.23807083331,
      "d": 41.66656666666313,
      "v": 75
    },
    {
      "midi": 52,
      "hit": false,
      "t": 17374.958299999977,
      "d": 43.89870416666599,
      "v": 75
    },
    {
      "midi": 66,
      "hit": false,
      "t": 17542.368612499977,
      "d": 125.74374583332974,
      "v": 93
    },
    {
      "midi": 78,
      "hit": false,
      "t": 17543.11265833331,
      "d": 124.25565416666359,
      "v": 93
    },
    {
      "midi": 55,
      "hit": false,
      "t": 17557.993574999975,
      "d": 124.25565416666359,
      "v": 84
    },
    {
      "midi": 43,
      "hit": false,
      "t": 17559.48166666664,
      "d": 122.76756249999744,
      "v": 84
    },
    {
      "midi": 67,
      "hit": false,
      "t": 17714.987245833305,
      "d": 142.8567999999941,
      "v": 93
    },
    {
      "midi": 55,
      "hit": false,
      "t": 17717.963429166637,
      "d": 44.64274999999543,
      "v": 75
    },
    {
      "midi": 79,
      "hit": false,
      "t": 17717.963429166637,
      "d": 140.62466249999488,
      "v": 93
    },
    {
      "midi": 60,
      "hit": false,
      "t": 17723.17174999997,
      "d": 40.922520833330054,
      "v": 75
    },
    {
      "midi": 52,
      "hit": false,
      "t": 17726.891979166634,
      "d": 40.922520833330054,
      "v": 75
    },
    {
      "midi": 74,
      "hit": false,
      "t": 17893.558245833297,
      "d": 317.70757083332865,
      "v": 93
    },
    {
      "midi": 62,
      "hit": false,
      "t": 17906.207024999963,
      "d": 221.7256583333292,
      "v": 93
    },
    {
      "midi": 50,
      "hit": false,
      "t": 17910.67129999996,
      "d": 127.9758833333326,
      "v": 84
    },
    {
      "midi": 38,
      "hit": false,
      "t": 17912.90343749996,
      "d": 125.74374583333338,
      "v": 84
    },
    {
      "midi": 59,
      "hit": false,
      "t": 18082.54588749996,
      "d": 48.362979166664445,
      "v": 75
    },
    {
      "midi": 53,
      "hit": false,
      "t": 18096.682758333292,
      "d": 36.4582458333316,
      "v": 75
    },
    {
      "midi": 55,
      "hit": false,
      "t": 18098.91489583329,
      "d": 110.86282916666823,
      "v": 84
    },
    {
      "midi": 43,
      "hit": false,
      "t": 18105.611308333293,
      "d": 117.55924166666591,
      "v": 84
    },
    {
      "midi": 59,
      "hit": false,
      "t": 18162.158791666625,
      "d": 80.35695000000123,
      "v": 93
    },
    {
      "midi": 62,
      "hit": false,
      "t": 18225.402687499958,
      "d": 64.73198749999938,
      "v": 93
    },
    {
      "midi": 57,
      "hit": false,
      "t": 18256.65261249996,
      "d": 145.8329833333337,
      "v": 84
    },
    {
      "midi": 67,
      "hit": false,
      "t": 18259.62879583329,
      "d": 203.86855833333175,
      "v": 93
    },
    {
      "midi": 65,
      "hit": false,
      "t": 18261.86093333329,
      "d": 204.61260416666482,
      "v": 93
    },
    {
      "midi": 45,
      "hit": false,
      "t": 18270.78948333329,
      "d": 145.8329833333337,
      "v": 84
    },
    {
      "midi": 62,
      "hit": false,
      "t": 18432.247429166622,
      "d": 126.48779166666282,
      "v": 93
    },
    {
      "midi": 55,
      "hit": false,
      "t": 18432.991474999955,
      "d": 47.61893333333137,
      "v": 75
    },
    {
      "midi": 59,
      "hit": false,
      "t": 18434.47956666662,
      "d": 46.13084166666522,
      "v": 75
    },
    {
      "midi": 53,
      "hit": false,
      "t": 18437.455749999954,
      "d": 47.61893333333137,
      "v": 75
    },
    {
      "midi": 58,
      "hit": false,
      "t": 18443.408116666622,
      "d": 130.2080208333282,
      "v": 84
    },
    {
      "midi": 46,
      "hit": false,
      "t": 18447.128345833287,
      "d": 128.71992916666204,
      "v": 84
    },
    {
      "midi": 81,
      "hit": false,
      "t": 18608.586291666616,
      "d": 142.11275416666103,
      "v": 93
    },
    {
      "midi": 55,
      "hit": false,
      "t": 18613.050566666614,
      "d": 42.410612499996205,
      "v": 93
    },
    {
      "midi": 69,
      "hit": false,
      "t": 18622.723162499948,
      "d": 127.97588333332897,
      "v": 93
    },
    {
      "midi": 59,
      "hit": false,
      "t": 18626.443391666613,
      "d": 15.624962499998219,
      "v": 84
    },
    {
      "midi": 47,
      "hit": false,
      "t": 18630.90766666661,
      "d": 122.76756249999744,
      "v": 84
    },
    {
      "midi": 79,
      "hit": false,
      "t": 18799.06202499994,
      "d": 126.48779166666645,
      "v": 93
    },
    {
      "midi": 67,
      "hit": false,
      "t": 18799.806070833274,
      "d": 125.74374583333338,
      "v": 93
    },
    {
      "midi": 55,
      "hit": false,
      "t": 18800.550116666607,
      "d": 43.89870416666599,
      "v": 75
    },
    {
      "midi": 59,
      "hit": false,
      "t": 18803.52629999994,
      "d": 41.66656666666677,
      "v": 75
    },
    {
      "midi": 53,
      "hit": false,
      "t": 18809.478666666608,
      "d": 41.66656666666677,
      "v": 75
    },
    {
      "midi": 66,
      "hit": false,
      "t": 18974.65684166661,
      "d": 124.99969999999666,
      "v": 93
    },
    {
      "midi": 78,
      "hit": false,
      "t": 18976.144933333275,
      "d": 126.48779166666282,
      "v": 93
    },
    {
      "midi": 55,
      "hit": false,
      "t": 18978.377070833274,
      "d": 139.13657083332873,
      "v": 84
    },
    {
      "midi": 43,
      "hit": false,
      "t": 18982.09729999994,
      "d": 135.41634166666336,
      "v": 84
    },
    {
      "midi": 67,
      "hit": false,
      "t": 19150.25165833327,
      "d": 140.62466249999852,
      "v": 93
    },
    {
      "midi": 79,
      "hit": false,
      "t": 19150.25165833327,
      "d": 141.3687083333316,
      "v": 93
    },
    {
      "midi": 55,
      "hit": false,
      "t": 19150.995704166602,
      "d": 45.386795833332144,
      "v": 75
    },
    {
      "midi": 59,
      "hit": false,
      "t": 19153.971887499934,
      "d": 42.41061249999984,
      "v": 75
    },
    {
      "midi": 53,
      "hit": false,
      "t": 19157.6921166666,
      "d": 41.66656666666677,
      "v": 75
    },
    {
      "midi": 74,
      "hit": false,
      "t": 19326.590520833266,
      "d": 139.8806166666618,
      "v": 93
    },
    {
      "midi": 62,
      "hit": false,
      "t": 19338.4952541666,
      "d": 126.48779166666282,
      "v": 93
    },
    {
      "midi": 50,
      "hit": false,
      "t": 19342.215483333264,
      "d": 127.97588333332897,
      "v": 84
    },
    {
      "midi": 38,
      "hit": false,
      "t": 19347.423804166596,
      "d": 124.25565416666359,
      "v": 84
    },
    {
      "midi": 67,
      "hit": false,
      "t": 19514.09007083326,
      "d": 130.20802083332455,
      "v": 93
    },
    {
      "midi": 79,
      "hit": false,
      "t": 19514.834116666592,
      "d": 128.7199291666584,
      "v": 93
    },
    {
      "midi": 55,
      "hit": false,
      "t": 19517.06625416659,
      "d": 44.64274999999543,
      "v": 75
    },
    {
      "midi": 59,
      "hit": false,
      "t": 19522.274574999923,
      "d": 43.15465833332928,
      "v": 75
    },
    {
      "midi": 53,
      "hit": false,
      "t": 19525.99480416659,
      "d": 40.922520833330054,
      "v": 75
    },
    {
      "midi": 66,
      "hit": false,
      "t": 19688.940841666583,
      "d": 126.48779166666645,
      "v": 93
    },
    {
      "midi": 78,
      "hit": false,
      "t": 19689.684887499916,
      "d": 129.46397499999875,
      "v": 93
    },
    {
      "midi": 55,
      "hit": false,
      "t": 19691.917024999915,
      "d": 142.85679999999775,
      "v": 84
    },
    {
      "midi": 43,
      "hit": false,
      "t": 19697.869391666583,
      "d": 148.06512083332927,
      "v": 84
    },
    {
      "midi": 67,
      "hit": false,
      "t": 19863.04756666658,
      "d": 144.34489166666026,
      "v": 93
    },
    {
      "midi": 79,
      "hit": false,
      "t": 19865.27970416658,
      "d": 142.8567999999941,
      "v": 93
    },
    {
      "midi": 55,
      "hit": false,
      "t": 19867.51184166658,
      "d": 46.13084166666522,
      "v": 75
    },
    {
      "midi": 59,
      "hit": false,
      "t": 19872.72016249991,
      "d": 56.54748333333191,
      "v": 75
    },
    {
      "midi": 53,
      "hit": false,
      "t": 19876.440391666576,
      "d": 55.803437499998836,
      "v": 75
    },
    {
      "midi": 81,
      "hit": false,
      "t": 20040.87452083324,
      "d": 143.60084583333082,
      "v": 93
    },
    {
      "midi": 69,
      "hit": false,
      "t": 20057.98757499991,
      "d": 123.51160833333051,
      "v": 93
    },
    {
      "midi": 59,
      "hit": false,
      "t": 20060.219712499907,
      "d": 121.27947083333129,
      "v": 84
    },
    {
      "midi": 47,
      "hit": false,
      "t": 20062.451849999907,
      "d": 126.48779166666282,
      "v": 84
    },
    {
      "midi": 67,
      "hit": false,
      "t": 20232.094299999902,
      "d": 126.48779166665918,
      "v": 93
    },
    {
      "midi": 59,
      "hit": false,
      "t": 20232.838345833236,
      "d": 44.64274999999543,
      "v": 75
    },
    {
      "midi": 79,
      "hit": false,
      "t": 20233.58239166657,
      "d": 126.48779166665918,
      "v": 93
    },
    {
      "midi": 53,
      "hit": false,
      "t": 20238.046666666567,
      "d": 42.410612499996205,
      "v": 75
    },
    {
      "midi": 55,
      "hit": false,
      "t": 20243.2549874999,
      "d": 117.55924166666227,
      "v": 84
    },
    {
      "midi": 43,
      "hit": false,
      "t": 20246.23117083323,
      "d": 116.8151958333292,
      "v": 84
    },
    {
      "midi": 66,
      "hit": false,
      "t": 20409.92125416656,
      "d": 124.25565416666359,
      "v": 93
    },
    {
      "midi": 78,
      "hit": false,
      "t": 20411.409345833225,
      "d": 123.51160833333051,
      "v": 93
    },
    {
      "midi": 57,
      "hit": false,
      "t": 20421.82598749989,
      "d": 126.48779166666282,
      "v": 84
    },
    {
      "midi": 45,
      "hit": false,
      "t": 20426.29026249989,
      "d": 122.02351666666436,
      "v": 84
    },
    {
      "midi": 79,
      "hit": false,
      "t": 20581.795841666553,
      "d": 145.08893749999334,
      "v": 93
    },
    {
      "midi": 67,
      "hit": false,
      "t": 20582.539887499886,
      "d": 140.62466249999488,
      "v": 93
    },
    {
      "midi": 55,
      "hit": false,
      "t": 20585.51607083322,
      "d": 42.410612499996205,
      "v": 75
    },
    {
      "midi": 53,
      "hit": false,
      "t": 20587.004162499885,
      "d": 43.898704166662355,
      "v": 75
    },
    {
      "midi": 59,
      "hit": false,
      "t": 20590.72439166655,
      "d": 135.41634166666336,
      "v": 84
    },
    {
      "midi": 47,
      "hit": false,
      "t": 20595.93271249988,
      "d": 132.44015833333106,
      "v": 84
    },
    {
      "midi": 76,
      "hit": false,
      "t": 20758.87874999988,
      "d": 318.4516166666617,
      "v": 93
    },
    {
      "midi": 64,
      "hit": false,
      "t": 20772.27157499988,
      "d": 305.0587916666627,
      "v": 93
    },
    {
      "midi": 60,
      "hit": false,
      "t": 20774.503712499878,
      "d": 130.20802083333183,
      "v": 84
    },
    {
      "midi": 48,
      "hit": false,
      "t": 20778.967987499876,
      "d": 127.23183749999953,
      "v": 84
    },
    {
      "midi": 55,
      "hit": false,
      "t": 20949.35448333321,
      "d": 46.13084166666522,
      "v": 75
    },
    {
      "midi": 60,
      "hit": false,
      "t": 20962.747308333208,
      "d": 32.738016666666226,
      "v": 75
    },
    {
      "midi": 52,
      "hit": false,
      "t": 20966.467537499873,
      "d": 31.99397083333315,
      "v": 75
    },
    {
      "midi": 55,
      "hit": false,
      "t": 21121.229070833208,
      "d": 145.0889375000006,
      "v": 84
    },
    {
      "midi": 43,
      "hit": false,
      "t": 21137.598079166542,
      "d": 142.85679999999775,
      "v": 84
    },
    {
      "midi": 62,
      "hit": false,
      "t": 21296.823887499875,
      "d": 142.11275416666467,
      "v": 93
    },
    {
      "midi": 74,
      "hit": false,
      "t": 21299.800070833207,
      "d": 142.85679999999775,
      "v": 93
    },
    {
      "midi": 55,
      "hit": false,
      "t": 21302.77625416654,
      "d": 41.66656666666677,
      "v": 75
    },
    {
      "midi": 60,
      "hit": false,
      "t": 21304.264345833206,
      "d": 43.89870416666599,
      "v": 75
    },
    {
      "midi": 52,
      "hit": false,
      "t": 21307.24052916654,
      "d": 41.66656666666677,
      "v": 75
    },
    {
      "midi": 72,
      "hit": false,
      "t": 21476.138933333204,
      "d": 139.8806166666618,
      "v": 93
    },
    {
      "midi": 60,
      "hit": false,
      "t": 21488.043666666537,
      "d": 126.48779166666282,
      "v": 93
    },
    {
      "midi": 48,
      "hit": false,
      "t": 21491.01984999987,
      "d": 124.99969999999666,
      "v": 84
    },
    {
      "midi": 36,
      "hit": false,
      "t": 21495.484124999868,
      "d": 124.99969999999666,
      "v": 84
    },
    {
      "midi": 60,
      "hit": false,
      "t": 21663.638483333198,
      "d": 127.9758833333326,
      "v": 93
    },
    {
      "midi": 72,
      "hit": false,
      "t": 21665.870620833197,
      "d": 125.74374583333338,
      "v": 93
    },
    {
      "midi": 55,
      "hit": false,
      "t": 21668.102758333196,
      "d": 41.66656666666677,
      "v": 75
    },
    {
      "midi": 52,
      "hit": false,
      "t": 21668.84680416653,
      "d": 43.89870416666599,
      "v": 75
    },
    {
      "midi": 64,
      "hit": false,
      "t": 21840.72139166653,
      "d": 125.74374583332974,
      "v": 93
    },
    {
      "midi": 76,
      "hit": false,
      "t": 21841.465437499864,
      "d": 124.99969999999666,
      "v": 93
    },
    {
      "midi": 52,
      "hit": false,
      "t": 21845.929712499863,
      "d": 135.41634166666336,
      "v": 84
    },
    {
      "midi": 40,
      "hit": false,
      "t": 21851.138033333194,
      "d": 132.44015833333106,
      "v": 84
    },
    {
      "midi": 67,
      "hit": false,
      "t": 22014.084070833193,
      "d": 144.34489166666026,
      "v": 93
    },
    {
      "midi": 79,
      "hit": false,
      "t": 22017.060254166525,
      "d": 142.11275416666103,
      "v": 93
    },
    {
      "midi": 55,
      "hit": false,
      "t": 22018.54834583319,
      "d": 41.66656666666313,
      "v": 75
    },
    {
      "midi": 60,
      "hit": false,
      "t": 22019.292391666524,
      "d": 42.410612499996205,
      "v": 75
    },
    {
      "midi": 52,
      "hit": false,
      "t": 22024.500712499856,
      "d": 51.339162499996746,
      "v": 75
    },
    {
      "midi": 84,
      "hit": false,
      "t": 22191.16697916652,
      "d": 142.85679999999775,
      "v": 93
    },
    {
      "midi": 72,
      "hit": false,
      "t": 22204.559804166518,
      "d": 127.23183749999953,
      "v": 93
    },
    {
      "midi": 55,
      "hit": false,
      "t": 22208.280033333183,
      "d": 127.23183749999953,
      "v": 84
    },
    {
      "midi": 43,
      "hit": false,
      "t": 22214.23239999985,
      "d": 121.27947083333129,
      "v": 84
    },
    {
      "midi": 72,
      "hit": false,
      "t": 22379.41057499985,
      "d": 130.95206666665763,
      "v": 93
    },
    {
      "midi": 84,
      "hit": false,
      "t": 22380.898666666515,
      "d": 130.20802083332455,
      "v": 93
    },
    {
      "midi": 55,
      "hit": false,
      "t": 22384.61889583318,
      "d": 41.66656666666313,
      "v": 75
    },
    {
      "midi": 58,
      "hit": false,
      "t": 22388.339124999846,
      "d": 40.17847499999698,
      "v": 75
    },
    {
      "midi": 60,
      "hit": false,
      "t": 22389.827216666512,
      "d": 42.410612499996205,
      "v": 75
    },
    {
      "midi": 52,
      "hit": false,
      "t": 22392.803399999844,
      "d": 41.66656666666313,
      "v": 75
    },
    {
      "midi": 48,
      "hit": false,
      "t": 22558.725620833175,
      "d": 142.85680000000139,
      "v": 84
    },
    {
      "midi": 36,
      "hit": false,
      "t": 22569.886308333174,
      "d": 145.8329833333337,
      "v": 84
    },
    {
      "midi": 72,
      "hit": false,
      "t": 22729.85616249984,
      "d": 142.85679999999775,
      "v": 93
    },
    {
      "midi": 84,
      "hit": false,
      "t": 22731.344254166506,
      "d": 142.85679999999775,
      "v": 93
    },
    {
      "midi": 55,
      "hit": false,
      "t": 22732.832345833172,
      "d": 44.64274999999907,
      "v": 75
    },
    {
      "midi": 58,
      "hit": false,
      "t": 22738.78471249984,
      "d": 58.03557499999806,
      "v": 75
    },
    {
      "midi": 60,
      "hit": false,
      "t": 22740.272804166507,
      "d": 56.54748333333191,
      "v": 75
    },
    {
      "midi": 52,
      "hit": false,
      "t": 22745.48112499984,
      "d": 55.05939166666576,
      "v": 75
    },
    {
      "midi": 86,
      "hit": false,
      "t": 22908.427162499836,
      "d": 139.8806166666618,
      "v": 93
    },
    {
      "midi": 74,
      "hit": false,
      "t": 22921.819987499835,
      "d": 126.48779166666282,
      "v": 93
    },
    {
      "midi": 53,
      "hit": false,
      "t": 22924.052124999835,
      "d": 125.74374583332974,
      "v": 84
    },
    {
      "midi": 41,
      "hit": false,
      "t": 22928.516399999833,
      "d": 124.25565416666359,
      "v": 84
    },
    {
      "midi": 72,
      "hit": false,
      "t": 23097.414804166496,
      "d": 124.99969999999666,
      "v": 93
    },
    {
      "midi": 84,
      "hit": false,
      "t": 23098.902895833162,
      "d": 124.99969999999666,
      "v": 93
    },
    {
      "midi": 57,
      "hit": false,
      "t": 23099.646941666495,
      "d": 43.89870416666599,
      "v": 75
    },
    {
      "midi": 60,
      "hit": false,
      "t": 23104.111216666493,
      "d": 42.41061249999984,
      "v": 75
    },
    {
      "midi": 53,
      "hit": false,
      "t": 23106.343354166493,
      "d": 41.66656666666677,
      "v": 75
    },
    {
      "midi": 71,
      "hit": false,
      "t": 23275.985804166492,
      "d": 123.51160833333051,
      "v": 93
    },
    {
      "midi": 83,
      "hit": false,
      "t": 23275.985804166492,
      "d": 124.99969999999666,
      "v": 93
    },
    {
      "midi": 57,
      "hit": false,
      "t": 23287.14649166649,
      "d": 128.71992916666204,
      "v": 84
    },
    {
      "midi": 45,
      "hit": false,
      "t": 23290.122674999824,
      "d": 125.74374583332974,
      "v": 84
    },
    {
      "midi": 72,
      "hit": false,
      "t": 23447.860391666487,
      "d": 141.36870833332796,
      "v": 93
    },
    {
      "midi": 84,
      "hit": false,
      "t": 23449.348483333153,
      "d": 142.8567999999941,
      "v": 93
    },
    {
      "midi": 57,
      "hit": false,
      "t": 23450.83657499982,
      "d": 42.410612499996205,
      "v": 75
    },
    {
      "midi": 60,
      "hit": false,
      "t": 23453.06871249982,
      "d": 41.66656666666313,
      "v": 75
    },
    {
      "midi": 53,
      "hit": false,
      "t": 23456.788941666484,
      "d": 41.66656666666313,
      "v": 75
    },
    {
      "midi": 81,
      "hit": false,
      "t": 23622.711162499814,
      "d": 322.1718458333271,
      "v": 93
    },
    {
      "midi": 69,
      "hit": false,
      "t": 23639.824216666482,
      "d": 301.3385624999937,
      "v": 93
    },
    {
      "midi": 48,
      "hit": false,
      "t": 23642.800399999815,
      "d": 124.99969999999666,
      "v": 84
    },
    {
      "midi": 36,
      "hit": false,
      "t": 23647.264674999813,
      "d": 124.99969999999666,
      "v": 84
    },
    {
      "midi": 57,
      "hit": false,
      "t": 23813.186895833143,
      "d": 46.13084166666886,
      "v": 75
    },
    {
      "midi": 60,
      "hit": false,
      "t": 23830.29994999981,
      "d": 31.99397083333315,
      "v": 75
    },
    {
      "midi": 53,
      "hit": false,
      "t": 23830.29994999981,
      "d": 34.22610833333238,
      "v": 75
    },
    {
      "midi": 57,
      "hit": false,
      "t": 23988.037666666474,
      "d": 145.08893749999697,
      "v": 75
    },
    {
      "midi": 77,
      "hit": false,
      "t": 23991.013849999807,
      "d": 110.11878333333152,
      "v": 93
    },
    {
      "midi": 81,
      "hit": false,
      "t": 23991.013849999807,
      "d": 111.60687499999767,
      "v": 93
    },
    {
      "midi": 72,
      "hit": false,
      "t": 23996.222170833138,
      "d": 108.63069166666537,
      "v": 93
    },
    {
      "midi": 60,
      "hit": false,
      "t": 24002.174537499806,
      "d": 142.85679999999775,
      "v": 75
    },
    {
      "midi": 53,
      "hit": false,
      "t": 24010.35904166647,
      "d": 136.90443333333315,
      "v": 84
    },
    {
      "midi": 41,
      "hit": false,
      "t": 24011.847133333136,
      "d": 142.85679999999775,
      "v": 84
    },
    {
      "midi": 67,
      "hit": false,
      "t": 24162.14439166647,
      "d": 145.0889375000006,
      "v": 93
    },
    {
      "midi": 79,
      "hit": false,
      "t": 24163.632483333135,
      "d": 142.85680000000139,
      "v": 93
    },
    {
      "midi": 81,
      "hit": false,
      "t": 24339.971345833135,
      "d": 142.11275416666103,
      "v": 93
    },
    {
      "midi": 69,
      "hit": false,
      "t": 24355.596308333133,
      "d": 124.99969999999666,
      "v": 93
    },
    {
      "midi": 53,
      "hit": false,
      "t": 24357.828445833133,
      "d": 489.5821583333345,
      "v": 84
    },
    {
      "midi": 59,
      "hit": false,
      "t": 24360.060583333132,
      "d": 489.5821583333345,
      "v": 84
    },
    {
      "midi": 43,
      "hit": false,
      "t": 24361.548674999798,
      "d": 489.5821583333345,
      "v": 84
    },
    {
      "midi": 67,
      "hit": false,
      "t": 24531.191124999797,
      "d": 126.48779166666645,
      "v": 93
    },
    {
      "midi": 79,
      "hit": false,
      "t": 24531.93517083313,
      "d": 124.9997000000003,
      "v": 93
    },
    {
      "midi": 67,
      "hit": false,
      "t": 24707.529987499798,
      "d": 123.51160833333415,
      "v": 93
    },
    {
      "midi": 79,
      "hit": false,
      "t": 24707.529987499798,
      "d": 123.51160833333415,
      "v": 93
    },
    {
      "midi": 67,
      "hit": false,
      "t": 24878.660529166467,
      "d": 145.83298333333005,
      "v": 93
    },
    {
      "midi": 79,
      "hit": false,
      "t": 24882.380758333133,
      "d": 142.11275416666467,
      "v": 93
    },
    {
      "midi": 53,
      "hit": false,
      "t": 24882.380758333133,
      "d": 143.60084583333082,
      "v": 84
    },
    {
      "midi": 59,
      "hit": false,
      "t": 24885.356941666465,
      "d": 139.88061666666545,
      "v": 84
    },
    {
      "midi": 43,
      "hit": false,
      "t": 24888.333124999797,
      "d": 139.13657083333237,
      "v": 84
    },
    {
      "midi": 82,
      "hit": false,
      "t": 25057.975574999797,
      "d": 142.11275416666103,
      "v": 93
    },
    {
      "midi": 70,
      "hit": false,
      "t": 25071.368399999796,
      "d": 126.48779166666282,
      "v": 93
    },
    {
      "midi": 54,
      "hit": false,
      "t": 25073.600537499795,
      "d": 491.81429583332283,
      "v": 84
    },
    {
      "midi": 60,
      "hit": false,
      "t": 25074.344583333128,
      "d": 493.302387499989,
      "v": 84
    },
    {
      "midi": 44,
      "hit": false,
      "t": 25077.32076666646,
      "d": 502.9749833333226,
      "v": 84
    },
    {
      "midi": 68,
      "hit": false,
      "t": 25246.219170833123,
      "d": 130.20802083333183,
      "v": 93
    },
    {
      "midi": 80,
      "hit": false,
      "t": 25246.219170833123,
      "d": 131.69611249999798,
      "v": 93
    },
    {
      "midi": 68,
      "hit": false,
      "t": 25420.32589583312,
      "d": 128.71992916666568,
      "v": 93
    },
    {
      "midi": 80,
      "hit": false,
      "t": 25421.813987499787,
      "d": 128.71992916666568,
      "v": 93
    },
    {
      "midi": 68,
      "hit": false,
      "t": 25595.92071249978,
      "d": 142.11275416666467,
      "v": 93
    },
    {
      "midi": 80,
      "hit": false,
      "t": 25596.664758333114,
      "d": 144.3448916666639,
      "v": 93
    },
    {
      "midi": 54,
      "hit": false,
      "t": 25600.38498749978,
      "d": 139.13657083333237,
      "v": 84
    },
    {
      "midi": 60,
      "hit": false,
      "t": 25601.129033333113,
      "d": 139.88061666666545,
      "v": 84
    },
    {
      "midi": 44,
      "hit": false,
      "t": 25602.61712499978,
      "d": 140.62466249999852,
      "v": 84
    },
    {
      "midi": 83,
      "hit": false,
      "t": 25772.259574999778,
      "d": 142.8567999999941,
      "v": 93
    },
    {
      "midi": 71,
      "hit": false,
      "t": 25787.140491666443,
      "d": 126.48779166666282,
      "v": 93
    },
    {
      "midi": 55,
      "hit": false,
      "t": 25790.116674999776,
      "d": 491.07024999999703,
      "v": 84
    },
    {
      "midi": 61,
      "hit": false,
      "t": 25793.83690416644,
      "d": 486.6059749999986,
      "v": 84
    },
    {
      "midi": 45,
      "hit": false,
      "t": 25796.06904166644,
      "d": 485.11788333333243,
      "v": 84
    },
    {
      "midi": 81,
      "hit": false,
      "t": 25962.735308333107,
      "d": 126.48779166666645,
      "v": 93
    },
    {
      "midi": 69,
      "hit": false,
      "t": 25964.223399999773,
      "d": 124.9997000000003,
      "v": 93
    },
    {
      "midi": 69,
      "hit": false,
      "t": 26140.562262499774,
      "d": 122.76756250000108,
      "v": 93
    },
    {
      "midi": 81,
      "hit": false,
      "t": 26140.562262499774,
      "d": 124.25565416666723,
      "v": 93
    },
    {
      "midi": 81,
      "hit": false,
      "t": 26313.180895833106,
      "d": 142.85679999999775,
      "v": 93
    },
    {
      "midi": 69,
      "hit": false,
      "t": 26313.92494166644,
      "d": 142.85679999999775,
      "v": 93
    },
    {
      "midi": 55,
      "hit": false,
      "t": 26314.668987499772,
      "d": 142.11275416666467,
      "v": 84
    },
    {
      "midi": 61,
      "hit": false,
      "t": 26316.90112499977,
      "d": 141.3687083333316,
      "v": 84
    },
    {
      "midi": 45,
      "hit": false,
      "t": 26318.389216666437,
      "d": 141.3687083333316,
      "v": 84
    },
    {
      "midi": 82,
      "hit": false,
      "t": 26491.00784999977,
      "d": 317.70757083332865,
      "v": 93
    },
    {
      "midi": 70,
      "hit": false,
      "t": 26503.656629166435,
      "d": 303.5706999999966,
      "v": 93
    },
    {
      "midi": 56,
      "hit": false,
      "t": 26505.888766666434,
      "d": 316.2194791666625,
      "v": 84
    },
    {
      "midi": 62,
      "hit": false,
      "t": 26508.864949999766,
      "d": 313.98734166666327,
      "v": 84
    },
    {
      "midi": 46,
      "hit": false,
      "t": 26511.8411333331,
      "d": 312.4992499999971,
      "v": 84
    },
    {
      "midi": 65,
      "hit": false,
      "t": 26854.10221666643,
      "d": 143.60084583332718,
      "v": 75
    },
    {
      "midi": 77,
      "hit": false,
      "t": 26854.846262499763,
      "d": 110.8628291666646,
      "v": 93
    },
    {
      "midi": 80,
      "hit": false,
      "t": 26858.56649166643,
      "d": 107.8866458333323,
      "v": 93
    },
    {
      "midi": 82,
      "hit": false,
      "t": 26861.54267499976,
      "d": 108.63069166666537,
      "v": 93
    },
    {
      "midi": 74,
      "hit": false,
      "t": 26864.518858333093,
      "d": 108.63069166666537,
      "v": 93
    },
    {
      "midi": 62,
      "hit": false,
      "t": 26871.215270833094,
      "d": 140.62466249999488,
      "v": 75
    },
    {
      "midi": 58,
      "hit": false,
      "t": 26874.191454166426,
      "d": 137.64847916666258,
      "v": 84
    },
    {
      "midi": 46,
      "hit": false,
      "t": 26874.93549999976,
      "d": 142.11275416666103,
      "v": 84
    },
    {
      "midi": 70,
      "hit": false,
      "t": 27028.952987499753,
      "d": 142.11275416666467,
      "v": 93
    },
    {
      "midi": 82,
      "hit": false,
      "t": 27031.185124999753,
      "d": 142.85679999999775,
      "v": 93
    },
    {
      "midi": 84,
      "hit": false,
      "t": 27204.547804166417,
      "d": 493.30238749999626,
      "v": 93
    },
    {
      "midi": 72,
      "hit": false,
      "t": 27221.660858333085,
      "d": 474.7012416666621,
      "v": 93
    },
    {
      "midi": 51,
      "hit": false,
      "t": 27225.38108749975,
      "d": 122.76756249999744,
      "v": 84
    },
    {
      "midi": 39,
      "hit": false,
      "t": 27229.101316666416,
      "d": 119.04733333333206,
      "v": 84
    },
    {
      "midi": 63,
      "hit": false,
      "t": 27397.999720833082,
      "d": 46.13084166666522,
      "v": 75
    },
    {
      "midi": 55,
      "hit": false,
      "t": 27399.48781249975,
      "d": 44.64274999999907,
      "v": 75
    },
    {
      "midi": 58,
      "hit": false,
      "t": 27400.23185833308,
      "d": 46.13084166666522,
      "v": 75
    },
    {
      "midi": 58,
      "hit": false,
      "t": 27572.850491666413,
      "d": 139.13657083333237,
      "v": 84
    },
    {
      "midi": 46,
      "hit": false,
      "t": 27579.546904166415,
      "d": 134.67229583333028,
      "v": 84
    },
    {
      "midi": 70,
      "hit": false,
      "t": 27745.469124999745,
      "d": 141.3687083333316,
      "v": 93
    },
    {
      "midi": 82,
      "hit": false,
      "t": 27745.469124999745,
      "d": 143.60084583333082,
      "v": 93
    },
    {
      "midi": 63,
      "hit": false,
      "t": 27748.445308333077,
      "d": 46.13084166666522,
      "v": 75
    },
    {
      "midi": 55,
      "hit": false,
      "t": 27750.677445833076,
      "d": 45.386795833332144,
      "v": 75
    },
    {
      "midi": 58,
      "hit": false,
      "t": 27753.65362916641,
      "d": 42.41061249999984,
      "v": 75
    },
    {
      "midi": 81,
      "hit": false,
      "t": 27922.552033333075,
      "d": 491.8142958333301,
      "v": 93
    },
    {
      "midi": 69,
      "hit": false,
      "t": 27938.92104166641,
      "d": 476.18933333332825,
      "v": 93
    },
    {
      "midi": 51,
      "hit": false,
      "t": 27940.409133333076,
      "d": 124.9997000000003,
      "v": 84
    },
    {
      "midi": 39,
      "hit": false,
      "t": 27942.641270833075,
      "d": 122.76756250000108,
      "v": 84
    },
    {
      "midi": 63,
      "hit": false,
      "t": 28112.283720833075,
      "d": 48.362979166664445,
      "v": 75
    },
    {
      "midi": 55,
      "hit": false,
      "t": 28114.515858333074,
      "d": 46.13084166666522,
      "v": 75
    },
    {
      "midi": 58,
      "hit": false,
      "t": 28119.724179166406,
      "d": 45.386795833332144,
      "v": 75
    },
    {
      "midi": 58,
      "hit": false,
      "t": 28287.134491666406,
      "d": 145.0889375000006,
      "v": 84
    },
    {
      "midi": 46,
      "hit": false,
      "t": 28290.110674999738,
      "d": 154.01748750000115,
      "v": 84
    },
    {
      "midi": 70,
      "hit": false,
      "t": 28461.241216666407,
      "d": 142.8567999999941,
      "v": 93
    },
    {
      "midi": 82,
      "hit": false,
      "t": 28462.729308333073,
      "d": 145.08893749999334,
      "v": 93
    },
    {
      "midi": 63,
      "hit": false,
      "t": 28466.44953749974,
      "d": 45.386795833332144,
      "v": 75
    },
    {
      "midi": 55,
      "hit": false,
      "t": 28470.169766666404,
      "d": 55.803437499998836,
      "v": 75
    },
    {
      "midi": 58,
      "hit": false,
      "t": 28471.65785833307,
      "d": 59.52366666666421,
      "v": 75
    },
    {
      "midi": 79,
      "hit": false,
      "t": 28638.324124999734,
      "d": 317.707570833325,
      "v": 93
    },
    {
      "midi": 67,
      "hit": false,
      "t": 28651.716949999733,
      "d": 292.4100124999932,
      "v": 93
    },
    {
      "midi": 51,
      "hit": false,
      "t": 28655.437179166398,
      "d": 125.74374583333338,
      "v": 84
    },
    {
      "midi": 39,
      "hit": false,
      "t": 28658.41336249973,
      "d": 125.74374583333338,
      "v": 84
    },
    {
      "midi": 63,
      "hit": false,
      "t": 28828.05581249973,
      "d": 46.874887499998295,
      "v": 75
    },
    {
      "midi": 55,
      "hit": false,
      "t": 28831.776041666395,
      "d": 43.89870416666599,
      "v": 75
    },
    {
      "midi": 58,
      "hit": false,
      "t": 28834.008179166394,
      "d": 45.386795833332144,
      "v": 75
    },
    {
      "midi": 58,
      "hit": false,
      "t": 29005.882766666393,
      "d": 139.13657083333237,
      "v": 84
    },
    {
      "midi": 82,
      "hit": false,
      "t": 29008.114904166392,
      "d": 107.14259999999922,
      "v": 93
    },
    {
      "midi": 46,
      "hit": false,
      "t": 29019.275591666392,
      "d": 127.23183749999953,
      "v": 84
    },
    {
      "midi": 84,
      "hit": false,
      "t": 29101.864679166392,
      "d": 113.09496666666382,
      "v": 93
    },
    {
      "midi": 63,
      "hit": false,
      "t": 29177.75735416639,
      "d": 47.61893333333137,
      "v": 75
    },
    {
      "midi": 55,
      "hit": false,
      "t": 29181.477583333057,
      "d": 46.874887499998295,
      "v": 75
    },
    {
      "midi": 85,
      "hit": false,
      "t": 29181.477583333057,
      "d": 124.25565416666359,
      "v": 93
    },
    {
      "midi": 58,
      "hit": false,
      "t": 29185.941858333055,
      "d": 46.13084166666522,
      "v": 75
    },
    {
      "midi": 86,
      "hit": false,
      "t": 29275.227358333053,
      "d": 112.35092083333802,
      "v": 93
    },
    {
      "midi": 87,
      "hit": false,
      "t": 29354.84026249972,
      "d": 142.1127541666683,
      "v": 93
    },
    {
      "midi": 51,
      "hit": false,
      "t": 29371.209270833057,
      "d": 128.71992916666568,
      "v": 84
    },
    {
      "midi": 39,
      "hit": false,
      "t": 29388.322324999725,
      "d": 115.32710416666305,
      "v": 84
    },
    {
      "midi": 63,
      "hit": false,
      "t": 29544.57194999972,
      "d": 47.61893333332773,
      "v": 75
    },
    {
      "midi": 55,
      "hit": false,
      "t": 29548.292179166387,
      "d": 46.87488749999466,
      "v": 75
    },
    {
      "midi": 58,
      "hit": false,
      "t": 29552.012408333052,
      "d": 45.386795833328506,
      "v": 75
    },
    {
      "midi": 46,
      "hit": false,
      "t": 29555.732637499717,
      "d": 119.04733333332842,
      "v": 84
    },
    {
      "midi": 34,
      "hit": false,
      "t": 29557.964774999717,
      "d": 130.2080208333282,
      "v": 84
    },
    {
      "midi": 81,
      "hit": false,
      "t": 29720.91081249971,
      "d": 125.74374583332974,
      "v": 93
    },
    {
      "midi": 69,
      "hit": false,
      "t": 29721.654858333044,
      "d": 124.25565416666359,
      "v": 93
    },
    {
      "midi": 48,
      "hit": false,
      "t": 29724.631041666376,
      "d": 141.3687083333316,
      "v": 84
    },
    {
      "midi": 36,
      "hit": false,
      "t": 29728.35127083304,
      "d": 149.55321249999906,
      "v": 84
    },
    {
      "midi": 70,
      "hit": false,
      "t": 29896.505629166375,
      "d": 142.8567999999941,
      "v": 93
    },
    {
      "midi": 82,
      "hit": false,
      "t": 29897.249674999708,
      "d": 142.8567999999941,
      "v": 93
    },
    {
      "midi": 63,
      "hit": false,
      "t": 29897.99372083304,
      "d": 43.15465833332928,
      "v": 75
    },
    {
      "midi": 55,
      "hit": false,
      "t": 29903.202041666373,
      "d": 40.922520833330054,
      "v": 75
    },
    {
      "midi": 58,
      "hit": false,
      "t": 29904.69013333304,
      "d": 44.64274999999543,
      "v": 75
    },
    {
      "midi": 50,
      "hit": false,
      "t": 29909.89845416637,
      "d": 130.9520666666649,
      "v": 84
    },
    {
      "midi": 38,
      "hit": false,
      "t": 29910.642499999703,
      "d": 131.69611249999798,
      "v": 84
    },
    {
      "midi": 84,
      "hit": false,
      "t": 30072.84449166637,
      "d": 220.2375666666594,
      "v": 93
    },
    {
      "midi": 72,
      "hit": false,
      "t": 30085.493270833034,
      "d": 206.10069583332734,
      "v": 93
    },
    {
      "midi": 51,
      "hit": false,
      "t": 30090.701591666366,
      "d": 121.27947083333129,
      "v": 84
    },
    {
      "midi": 39,
      "hit": false,
      "t": 30093.677774999698,
      "d": 120.53542499999821,
      "v": 84
    },
    {
      "midi": 63,
      "hit": false,
      "t": 30263.320224999698,
      "d": 46.874887499998295,
      "v": 75
    },
    {
      "midi": 55,
      "hit": false,
      "t": 30266.29640833303,
      "d": 44.64274999999907,
      "v": 75
    },
    {
      "midi": 58,
      "hit": false,
      "t": 30267.040454166363,
      "d": 44.64274999999907,
      "v": 75
    },
    {
      "midi": 70,
      "hit": false,
      "t": 30437.426949999695,
      "d": 205.35664999999426,
      "v": 93
    },
    {
      "midi": 46,
      "hit": false,
      "t": 30441.14717916636,
      "d": 137.64847916666622,
      "v": 84
    },
    {
      "midi": 82,
      "hit": false,
      "t": 30441.14717916636,
      "d": 201.63642083332888,
      "v": 93
    },
    {
      "midi": 34,
      "hit": false,
      "t": 30445.61145416636,
      "d": 133.92825000000084,
      "v": 84
    },
    {
      "midi": 63,
      "hit": false,
      "t": 30612.277720833026,
      "d": 46.13084166666158,
      "v": 75
    },
    {
      "midi": 55,
      "hit": false,
      "t": 30617.486041666358,
      "d": 43.15465833332928,
      "v": 75
    },
    {
      "midi": 58,
      "hit": false,
      "t": 30622.69436249969,
      "d": 39.434429166663904,
      "v": 75
    },
    {
      "midi": 81,
      "hit": false,
      "t": 30786.38444583302,
      "d": 226.93397916666436,
      "v": 93
    },
    {
      "midi": 69,
      "hit": false,
      "t": 30802.753454166355,
      "d": 208.3328333333302,
      "v": 93
    },
    {
      "midi": 51,
      "hit": false,
      "t": 30804.985591666355,
      "d": 124.25565416666723,
      "v": 84
    },
    {
      "midi": 39,
      "hit": false,
      "t": 30810.937958333023,
      "d": 121.27947083333129,
      "v": 84
    },
    {
      "midi": 63,
      "hit": false,
      "t": 30977.604224999686,
      "d": 46.874887499998295,
      "v": 75
    },
    {
      "midi": 55,
      "hit": false,
      "t": 30993.97323333302,
      "d": 33.48206249999566,
      "v": 75
    },
    {
      "midi": 58,
      "hit": false,
      "t": 30996.949416666353,
      "d": 31.993970833329513,
      "v": 75
    },
    {
      "midi": 70,
      "hit": false,
      "t": 31153.943087499683,
      "d": 204.61260416666119,
      "v": 93
    },
    {
      "midi": 46,
      "hit": false,
      "t": 31155.43117916635,
      "d": 141.3687083333316,
      "v": 84
    },
    {
      "midi": 82,
      "hit": false,
      "t": 31155.43117916635,
      "d": 204.61260416666119,
      "v": 93
    },
    {
      "midi": 34,
      "hit": false,
      "t": 31159.895454166348,
      "d": 151.0413041666652,
      "v": 84
    },
    {
      "midi": 63,
      "hit": false,
      "t": 31330.28194999968,
      "d": 47.61893333333137,
      "v": 75
    },
    {
      "midi": 55,
      "hit": false,
      "t": 31344.418820833012,
      "d": 47.61893333333137,
      "v": 75
    },
    {
      "midi": 58,
      "hit": false,
      "t": 31345.162866666346,
      "d": 49.851070833330596,
      "v": 75
    },
    {
      "midi": 64,
      "hit": false,
      "t": 31505.876766666344,
      "d": 62.49985000000015,
      "v": 93
    },
    {
      "midi": 77,
      "hit": false,
      "t": 31518.52554583301,
      "d": 303.5706999999966,
      "v": 93
    },
    {
      "midi": 53,
      "hit": false,
      "t": 31521.501729166343,
      "d": 123.51160833333415,
      "v": 84
    },
    {
      "midi": 41,
      "hit": false,
      "t": 31527.45409583301,
      "d": 120.53542499999821,
      "v": 84
    },
    {
      "midi": 65,
      "hit": false,
      "t": 31536.38264583301,
      "d": 126.48779166666282,
      "v": 93
    },
    {
      "midi": 62,
      "hit": false,
      "t": 31694.120362499674,
      "d": 48.362979166664445,
      "v": 75
    },
    {
      "midi": 56,
      "hit": false,
      "t": 31709.00127916634,
      "d": 33.4820624999993,
      "v": 75
    },
    {
      "midi": 58,
      "hit": false,
      "t": 31712.721508333005,
      "d": 32.738016666666226,
      "v": 75
    },
    {
      "midi": 63,
      "hit": false,
      "t": 31742.48334166634,
      "d": 63.24389583333323,
      "v": 87
    },
    {
      "midi": 64,
      "hit": false,
      "t": 31776.70944999967,
      "d": 124.25565416666723,
      "v": 87
    },
    {
      "midi": 53,
      "hit": false,
      "t": 31874.17945416634,
      "d": 136.90443333333315,
      "v": 84
    },
    {
      "midi": 41,
      "hit": false,
      "t": 31886.084187499673,
      "d": 127.9758833333326,
      "v": 84
    },
    {
      "midi": 62,
      "hit": false,
      "t": 31980.578008333006,
      "d": 66.22007916666553,
      "v": 81
    },
    {
      "midi": 63,
      "hit": false,
      "t": 32014.80411666634,
      "d": 124.99969999999666,
      "v": 81
    },
    {
      "midi": 56,
      "hit": false,
      "t": 32044.565949999673,
      "d": 48.362979166664445,
      "v": 75
    },
    {
      "midi": 58,
      "hit": false,
      "t": 32046.05404166634,
      "d": 46.874887499998295,
      "v": 75
    },
    {
      "midi": 61,
      "hit": false,
      "t": 32220.160766666337,
      "d": 65.47603333333245,
      "v": 75
    },
    {
      "midi": 58,
      "hit": false,
      "t": 32235.785729166335,
      "d": 131.69611250000162,
      "v": 84
    },
    {
      "midi": 46,
      "hit": false,
      "t": 32253.642829166336,
      "d": 115.32710416666669,
      "v": 84
    },
    {
      "midi": 62,
      "hit": false,
      "t": 32255.874966666335,
      "d": 122.76756250000108,
      "v": 75
    },
    {
      "midi": 62,
      "hit": false,
      "t": 32412.86863749967,
      "d": 46.874887499998295,
      "v": 75
    },
    {
      "midi": 58,
      "hit": false,
      "t": 32417.332912499667,
      "d": 43.89870416666599,
      "v": 75
    },
    {
      "midi": 56,
      "hit": false,
      "t": 32420.309095833,
      "d": 118.30328749999899,
      "v": 84
    },
    {
      "midi": 44,
      "hit": false,
      "t": 32422.541233333,
      "d": 132.4401583333347,
      "v": 84
    },
    {
      "midi": 67,
      "hit": false,
      "t": 32585.487270833,
      "d": 126.48779166666282,
      "v": 93
    },
    {
      "midi": 79,
      "hit": false,
      "t": 32586.975362499667,
      "d": 126.48779166666282,
      "v": 93
    },
    {
      "midi": 55,
      "hit": false,
      "t": 32588.463454166333,
      "d": 141.3687083333316,
      "v": 84
    },
    {
      "midi": 43,
      "hit": false,
      "t": 32592.183683332998,
      "d": 154.01748750000115,
      "v": 84
    },
    {
      "midi": 65,
      "hit": false,
      "t": 32760.33804166633,
      "d": 142.85680000000502,
      "v": 93
    },
    {
      "midi": 62,
      "hit": false,
      "t": 32763.314224999664,
      "d": 43.89870416667327,
      "v": 75
    },
    {
      "midi": 77,
      "hit": false,
      "t": 32763.314224999664,
      "d": 142.1127541666756,
      "v": 93
    },
    {
      "midi": 56,
      "hit": false,
      "t": 32769.26659166633,
      "d": 40.92252083333733,
      "v": 75
    },
    {
      "midi": 58,
      "hit": false,
      "t": 32770.01063749967,
      "d": 44.64274999999907,
      "v": 75
    },
    {
      "midi": 53,
      "hit": false,
      "t": 32773.73086666634,
      "d": 133.18420416666777,
      "v": 84
    },
    {
      "midi": 41,
      "hit": false,
      "t": 32778.93918749967,
      "d": 130.9520666666649,
      "v": 84
    },
    {
      "midi": 75,
      "hit": false,
      "t": 32936.676904166336,
      "d": 206.10069583333097,
      "v": 93
    },
    {
      "midi": 63,
      "hit": false,
      "t": 32953.04591249967,
      "d": 188.2435958333299,
      "v": 93
    },
    {
      "midi": 51,
      "hit": false,
      "t": 32954.53400416634,
      "d": 125.74374583332974,
      "v": 84
    },
    {
      "midi": 39,
      "hit": false,
      "t": 32960.486370833,
      "d": 121.27947083333129,
      "v": 84
    },
    {
      "midi": 55,
      "hit": false,
      "t": 33127.15263749967,
      "d": 46.87488749999466,
      "v": 75
    },
    {
      "midi": 58,
      "hit": false,
      "t": 33130.128820833,
      "d": 43.898704166662355,
      "v": 75
    },
    {
      "midi": 75,
      "hit": false,
      "t": 33174.771570833,
      "d": 81.10099583333067,
      "v": 93
    },
    {
      "midi": 63,
      "hit": false,
      "t": 33190.396533333,
      "d": 87.79740833333199,
      "v": 93
    },
    {
      "midi": 67,
      "hit": false,
      "t": 33303.49149999966,
      "d": 126.48779166666645,
      "v": 93
    },
    {
      "midi": 79,
      "hit": false,
      "t": 33304.97959166633,
      "d": 124.25565416666359,
      "v": 93
    },
    {
      "midi": 55,
      "hit": false,
      "t": 33309.443866666326,
      "d": 134.67229583333392,
      "v": 84
    },
    {
      "midi": 43,
      "hit": false,
      "t": 33314.65218749966,
      "d": 132.44015833333106,
      "v": 84
    },
    {
      "midi": 70,
      "hit": false,
      "t": 33476.85417916632,
      "d": 142.85680000000866,
      "v": 93
    },
    {
      "midi": 82,
      "hit": false,
      "t": 33477.59822499966,
      "d": 142.11275416667195,
      "v": 93
    },
    {
      "midi": 63,
      "hit": false,
      "t": 33479.83036249966,
      "d": 46.13084166666522,
      "v": 75
    },
    {
      "midi": 55,
      "hit": false,
      "t": 33484.29463749966,
      "d": 43.15465833333292,
      "v": 75
    },
    {
      "midi": 58,
      "hit": false,
      "t": 33485.038683333,
      "d": 44.64274999999907,
      "v": 75
    },
    {
      "midi": 87,
      "hit": false,
      "t": 33653.19304166633,
      "d": 320.6837541666682,
      "v": 93
    },
    {
      "midi": 75,
      "hit": false,
      "t": 33667.32991249966,
      "d": 304.3147458333333,
      "v": 93
    },
    {
      "midi": 58,
      "hit": false,
      "t": 33671.05014166633,
      "d": 125.74374583332974,
      "v": 84
    },
    {
      "midi": 46,
      "hit": false,
      "t": 33674.026324999664,
      "d": 122.76756249999744,
      "v": 84
    },
    {
      "midi": 63,
      "hit": false,
      "t": 33843.66877499966,
      "d": 46.13084166666522,
      "v": 75
    },
    {
      "midi": 55,
      "hit": false,
      "t": 33848.13304999966,
      "d": 43.15465833333292,
      "v": 75
    },
    {
      "midi": 61,
      "hit": false,
      "t": 33848.877095833,
      "d": 46.87488749999466,
      "v": 75
    },
    {
      "midi": 74,
      "hit": false,
      "t": 34020.751683333,
      "d": 124.25565416667087,
      "v": 93
    },
    {
      "midi": 86,
      "hit": false,
      "t": 34021.49572916634,
      "d": 127.23183750000317,
      "v": 93
    },
    {
      "midi": 51,
      "hit": false,
      "t": 34021.49572916634,
      "d": 142.85680000000139,
      "v": 84
    },
    {
      "midi": 39,
      "hit": false,
      "t": 34027.448095833,
      "d": 149.5532125000027,
      "v": 84
    },
    {
      "midi": 87,
      "hit": false,
      "t": 34194.11436249967,
      "d": 145.08893750000425,
      "v": 93
    },
    {
      "midi": 75,
      "hit": false,
      "t": 34194.858408333006,
      "d": 142.85680000000139,
      "v": 93
    },
    {
      "midi": 63,
      "hit": false,
      "t": 34196.34649999967,
      "d": 45.38679583333578,
      "v": 75
    },
    {
      "midi": 55,
      "hit": false,
      "t": 34202.29886666634,
      "d": 55.0593916666694,
      "v": 75
    },
    {
      "midi": 61,
      "hit": false,
      "t": 34203.04291249967,
      "d": 60.26771249999729,
      "v": 75
    },
    {
      "midi": 89,
      "hit": false,
      "t": 34371.19727083301,
      "d": 141.3687083333425,
      "v": 93
    },
    {
      "midi": 77,
      "hit": false,
      "t": 34384.59009583301,
      "d": 126.48779166667373,
      "v": 93
    },
    {
      "midi": 44,
      "hit": false,
      "t": 34389.798416666345,
      "d": 124.25565416667087,
      "v": 84
    },
    {
      "midi": 32,
      "hit": false,
      "t": 34392.03055416635,
      "d": 124.9997000000003,
      "v": 84
    },
    {
      "midi": 75,
      "hit": false,
      "t": 34559.44086666635,
      "d": 126.48779166666645,
      "v": 93
    },
    {
      "midi": 63,
      "hit": false,
      "t": 34562.41704999968,
      "d": 46.87488750000193,
      "v": 75
    },
    {
      "midi": 87,
      "hit": false,
      "t": 34562.41704999968,
      "d": 127.23183750000317,
      "v": 93
    },
    {
      "midi": 56,
      "hit": false,
      "t": 34566.13727916635,
      "d": 43.89870416666963,
      "v": 75
    },
    {
      "midi": 60,
      "hit": false,
      "t": 34571.34559999969,
      "d": 41.66656666666677,
      "v": 75
    },
    {
      "midi": 74,
      "hit": false,
      "t": 34736.52377499969,
      "d": 126.48779166666645,
      "v": 93
    },
    {
      "midi": 86,
      "hit": false,
      "t": 34738.011866666355,
      "d": 126.48779166666645,
      "v": 93
    },
    {
      "midi": 48,
      "hit": false,
      "t": 34750.66064583302,
      "d": 127.23183750000317,
      "v": 84
    },
    {
      "midi": 36,
      "hit": false,
      "t": 34752.89278333302,
      "d": 128.71992916666932,
      "v": 84
    },
    {
      "midi": 75,
      "hit": false,
      "t": 34912.11859166636,
      "d": 141.36870833333523,
      "v": 93
    },
    {
      "midi": 87,
      "hit": false,
      "t": 34912.11859166636,
      "d": 141.36870833333523,
      "v": 93
    },
    {
      "midi": 63,
      "hit": false,
      "t": 34912.8626374997,
      "d": 43.89870416666963,
      "v": 75
    },
    {
      "midi": 56,
      "hit": false,
      "t": 34916.582866666366,
      "d": 43.15465833333292,
      "v": 75
    },
    {
      "midi": 60,
      "hit": false,
      "t": 34921.7911874997,
      "d": 40.922520833330054,
      "v": 75
    },
    {
      "midi": 84,
      "hit": false,
      "t": 35085.48127083303,
      "d": 319.93970833334606,
      "v": 93
    },
    {
      "midi": 72,
      "hit": false,
      "t": 35102.59432499969,
      "d": 302.082608333345,
      "v": 93
    },
    {
      "midi": 51,
      "hit": false,
      "t": 35106.31455416636,
      "d": 124.9997000000003,
      "v": 84
    },
    {
      "midi": 39,
      "hit": false,
      "t": 35107.80264583303,
      "d": 124.25565416667087,
      "v": 84
    },
    {
      "midi": 63,
      "hit": false,
      "t": 35278.9331874997,
      "d": 46.130841666672495,
      "v": 75
    },
    {
      "midi": 56,
      "hit": false,
      "t": 35282.65341666637,
      "d": 40.92252083333733,
      "v": 75
    },
    {
      "midi": 60,
      "hit": false,
      "t": 35296.04624166637,
      "d": 31.99397083333315,
      "v": 75
    },
    {
      "midi": 44,
      "hit": false,
      "t": 35453.78395833304,
      "d": 142.85680000000139,
      "v": 84
    },
    {
      "midi": 32,
      "hit": false,
      "t": 35467.176783333045,
      "d": 143.60084583333082,
      "v": 84
    },
    {
      "midi": 72,
      "hit": false,
      "t": 35626.402591666374,
      "d": 144.3448916666821,
      "v": 93
    },
    {
      "midi": 84,
      "hit": false,
      "t": 35627.14663749971,
      "d": 142.85680000000866,
      "v": 93
    },
    {
      "midi": 63,
      "hit": false,
      "t": 35630.86686666638,
      "d": 43.154658333340194,
      "v": 75
    },
    {
      "midi": 56,
      "hit": false,
      "t": 35634.58709583305,
      "d": 39.43442916667118,
      "v": 75
    },
    {
      "midi": 60,
      "hit": false,
      "t": 35636.81923333305,
      "d": 42.41061250000348,
      "v": 75
    },
    {
      "midi": 82,
      "hit": false,
      "t": 35803.485499999726,
      "d": 318.4516166666799,
      "v": 93
    },
    {
      "midi": 70,
      "hit": false,
      "t": 35817.62237083306,
      "d": 303.57070000001113,
      "v": 93
    },
    {
      "midi": 46,
      "hit": false,
      "t": 35823.57473749972,
      "d": 120.53542500000185,
      "v": 84
    },
    {
      "midi": 34,
      "hit": false,
      "t": 35826.550920833055,
      "d": 121.27947083333856,
      "v": 84
    },
    {
      "midi": 63,
      "hit": false,
      "t": 35994.705279166395,
      "d": 46.130841666672495,
      "v": 75
    },
    {
      "midi": 55,
      "hit": false,
      "t": 35998.425508333064,
      "d": 43.89870416666963,
      "v": 75
    },
    {
      "midi": 58,
      "hit": false,
      "t": 36002.14573749973,
      "d": 43.15465833333292,
      "v": 75
    },
    {
      "midi": 79,
      "hit": false,
      "t": 36170.300095833074,
      "d": 314.7313875000036,
      "v": 93
    },
    {
      "midi": 91,
      "hit": false,
      "t": 36170.300095833074,
      "d": 316.21947916666977,
      "v": 93
    },
    {
      "midi": 47,
      "hit": false,
      "t": 36176.996508333075,
      "d": 133.18420416666777,
      "v": 84
    },
    {
      "midi": 35,
      "hit": false,
      "t": 36177.74055416641,
      "d": 135.41634166666336,
      "v": 84
    },
    {
      "midi": 63,
      "hit": false,
      "t": 36343.66277499974,
      "d": 46.13084166666522,
      "v": 75
    },
    {
      "midi": 55,
      "hit": false,
      "t": 36345.894912499745,
      "d": 46.13084166666522,
      "v": 75
    },
    {
      "midi": 59,
      "hit": false,
      "t": 36351.84727916641,
      "d": 43.89870416666963,
      "v": 75
    },
    {
      "midi": 89,
      "hit": false,
      "t": 36519.257591666414,
      "d": 78.86885833334236,
      "v": 93
    },
    {
      "midi": 77,
      "hit": false,
      "t": 36534.13850833308,
      "d": 476.9333791666868,
      "v": 93
    },
    {
      "midi": 48,
      "hit": false,
      "t": 36538.60278333308,
      "d": 123.51160833334143,
      "v": 84
    },
    {
      "midi": 36,
      "hit": false,
      "t": 36540.834920833084,
      "d": 121.27947083333856,
      "v": 84
    },
    {
      "midi": 91,
      "hit": false,
      "t": 36584.73362499975,
      "d": 78.12481250000565,
      "v": 93
    },
    {
      "midi": 89,
      "hit": false,
      "t": 36650.95370416642,
      "d": 76.6367208333395,
      "v": 93
    },
    {
      "midi": 56,
      "hit": false,
      "t": 36708.245233333095,
      "d": 49.107025000004796,
      "v": 75
    },
    {
      "midi": 91,
      "hit": false,
      "t": 36711.22141666643,
      "d": 61.75580416667799,
      "v": 93
    },
    {
      "midi": 65,
      "hit": false,
      "t": 36724.61424166643,
      "d": 32.738016666669864,
      "v": 75
    },
    {
      "midi": 60,
      "hit": false,
      "t": 36728.3344708331,
      "d": 31.993970833340427,
      "v": 75
    },
    {
      "midi": 89,
      "hit": false,
      "t": 36758.096304166436,
      "d": 82.58908749999682,
      "v": 93
    },
    {
      "midi": 91,
      "hit": false,
      "t": 36822.0842458331,
      "d": 79.61290416666452,
      "v": 93
    },
    {
      "midi": 50,
      "hit": false,
      "t": 36884.5840958331,
      "d": 144.34489166666754,
      "v": 84
    },
    {
      "midi": 89,
      "hit": false,
      "t": 36887.560279166435,
      "d": 124.9997000000003,
      "v": 93
    },
    {
      "midi": 38,
      "hit": false,
      "t": 36901.69714999977,
      "d": 142.85680000000139,
      "v": 84
    },
    {
      "midi": 75,
      "hit": false,
      "t": 37059.43486666644,
      "d": 142.11275416666467,
      "v": 93
    },
    {
      "midi": 87,
      "hit": false,
      "t": 37060.178912499774,
      "d": 144.34489166666026,
      "v": 93
    },
    {
      "midi": 62,
      "hit": false,
      "t": 37064.64318749977,
      "d": 43.15465833333292,
      "v": 75
    },
    {
      "midi": 56,
      "hit": false,
      "t": 37066.13127916644,
      "d": 57.291529166664986,
      "v": 75
    },
    {
      "midi": 58,
      "hit": false,
      "t": 37069.10746249977,
      "d": 57.291529166664986,
      "v": 75
    },
    {
      "midi": 87,
      "hit": false,
      "t": 37237.261820833104,
      "d": 314.7313875000036,
      "v": 93
    },
    {
      "midi": 75,
      "hit": false,
      "t": 37252.14273749977,
      "d": 301.338562500001,
      "v": 93
    },
    {
      "midi": 51,
      "hit": false,
      "t": 37253.63082916644,
      "d": 124.9997000000003,
      "v": 84
    },
    {
      "midi": 39,
      "hit": false,
      "t": 37256.60701249977,
      "d": 122.023516666668,
      "v": 84
    },
    {
      "midi": 55,
      "hit": false,
      "t": 37442.618470833106,
      "d": 31.99397083333315,
      "v": 75
    },
    {
      "midi": 63,
      "hit": false,
      "t": 37442.618470833106,
      "d": 48.36297916666808,
      "v": 75
    },
    {
      "midi": 58,
      "hit": false,
      "t": 37459.73152499977,
      "d": 34.226108333336015,
      "v": 75
    },
    {
      "midi": 91,
      "hit": false,
      "t": 37603.33237083311,
      "d": 110.86282916666823,
      "v": 93
    },
    {
      "midi": 46,
      "hit": false,
      "t": 37605.56450833311,
      "d": 139.8806166666618,
      "v": 84
    },
    {
      "midi": 34,
      "hit": false,
      "t": 37615.981149999774,
      "d": 129.46397499999875,
      "v": 84
    },
    {
      "midi": 93,
      "hit": false,
      "t": 37700.058329166444,
      "d": 112.35092083332711,
      "v": 93
    },
    {
      "midi": 94,
      "hit": false,
      "t": 37776.69504999977,
      "d": 127.23183750000317,
      "v": 93
    },
    {
      "midi": 63,
      "hit": false,
      "t": 37794.55214999977,
      "d": 43.89870416666963,
      "v": 75
    },
    {
      "midi": 55,
      "hit": false,
      "t": 37794.55214999977,
      "d": 47.618933333338646,
      "v": 75
    },
    {
      "midi": 58,
      "hit": false,
      "t": 37798.27237916644,
      "d": 47.618933333338646,
      "v": 75
    },
    {
      "midi": 96,
      "hit": false,
      "t": 37874.16505416644,
      "d": 110.11878333333152,
      "v": 93
    },
    {
      "midi": 98,
      "hit": false,
      "t": 37952.28986666644,
      "d": 130.20802083333547,
      "v": 93
    },
    {
      "midi": 50,
      "hit": false,
      "t": 37969.402920833105,
      "d": 127.23183750000317,
      "v": 84
    },
    {
      "midi": 38,
      "hit": false,
      "t": 37983.53979166644,
      "d": 116.81519583334011,
      "v": 84
    },
    {
      "midi": 97,
      "hit": false,
      "t": 38049.01582499978,
      "d": 128.71992916666932,
      "v": 93
    },
    {
      "midi": 98,
      "hit": false,
      "t": 38143.50964583311,
      "d": 111.60687500000495,
      "v": 93
    },
    {
      "midi": 62,
      "hit": false,
      "t": 38158.39056249978,
      "d": 47.61893333333137,
      "v": 75
    },
    {
      "midi": 54,
      "hit": false,
      "t": 38161.36674583311,
      "d": 48.36297916666808,
      "v": 75
    },
    {
      "midi": 60,
      "hit": false,
      "t": 38164.34292916644,
      "d": 46.87488750000193,
      "v": 75
    },
    {
      "midi": 100,
      "hit": false,
      "t": 38222.378504166445,
      "d": 127.23183750001044,
      "v": 93
    },
    {
      "midi": 50,
      "hit": false,
      "t": 38319.84850833312,
      "d": 141.3687083333425,
      "v": 84
    },
    {
      "midi": 102,
      "hit": false,
      "t": 38320.592554166455,
      "d": 108.63069166667265,
      "v": 93
    },
    {
      "midi": 38,
      "hit": false,
      "t": 38331.753241666454,
      "d": 142.11275416667195,
      "v": 84
    },
    {
      "midi": 98,
      "hit": false,
      "t": 38414.34232916646,
      "d": 110.1187833333388,
      "v": 93
    },
    {
      "midi": 100,
      "hit": false,
      "t": 38493.21118749979,
      "d": 126.48779166667373,
      "v": 93
    },
    {
      "midi": 74,
      "hit": false,
      "t": 38510.32424166646,
      "d": 124.99970000000758,
      "v": 93
    },
    {
      "midi": 62,
      "hit": false,
      "t": 38514.04447083313,
      "d": 46.87488750000193,
      "v": 75
    },
    {
      "midi": 54,
      "hit": false,
      "t": 38517.764699999796,
      "d": 43.89870416666963,
      "v": 75
    },
    {
      "midi": 60,
      "hit": false,
      "t": 38523.71706666646,
      "d": 38.69038333334174,
      "v": 75
    },
    {
      "midi": 102,
      "hit": false,
      "t": 38588.44905416647,
      "d": 113.09496666665655,
      "v": 93
    },
    {
      "midi": 103,
      "hit": false,
      "t": 38671.03814166646,
      "d": 141.36870833333523,
      "v": 93
    },
    {
      "midi": 76,
      "hit": false,
      "t": 38674.01432499979,
      "d": 139.13657083333965,
      "v": 93
    },
    {
      "midi": 64,
      "hit": false,
      "t": 38675.50241666646,
      "d": 124.9997000000003,
      "v": 93
    },
    {
      "midi": 55,
      "hit": false,
      "t": 38688.89524166646,
      "d": 127.23183750000317,
      "v": 84
    },
    {
      "midi": 43,
      "hit": false,
      "t": 38691.127379166464,
      "d": 125.74374583333702,
      "v": 84
    },
    {
      "midi": 62,
      "hit": false,
      "t": 38859.281737499805,
      "d": 125.74374583333702,
      "v": 93
    },
    {
      "midi": 55,
      "hit": false,
      "t": 38860.76982916647,
      "d": 44.64274999999907,
      "v": 75
    },
    {
      "midi": 74,
      "hit": false,
      "t": 38861.51387499981,
      "d": 125.74374583333702,
      "v": 93
    },
    {
      "midi": 59,
      "hit": false,
      "t": 38865.978149999806,
      "d": 40.17847500000062,
      "v": 75
    },
    {
      "midi": 61,
      "hit": false,
      "t": 39035.62059999981,
      "d": 126.48779166667373,
      "v": 93
    },
    {
      "midi": 73,
      "hit": false,
      "t": 39037.852737499816,
      "d": 124.99970000000758,
      "v": 93
    },
    {
      "midi": 50,
      "hit": false,
      "t": 39041.572966666485,
      "d": 134.6722958333412,
      "v": 84
    },
    {
      "midi": 38,
      "hit": false,
      "t": 39044.54914999982,
      "d": 133.92825000001176,
      "v": 84
    },
    {
      "midi": 62,
      "hit": false,
      "t": 39209.727324999825,
      "d": 141.3687083333425,
      "v": 93
    },
    {
      "midi": 74,
      "hit": false,
      "t": 39209.727324999825,
      "d": 142.85680000000866,
      "v": 93
    },
    {
      "midi": 55,
      "hit": false,
      "t": 39211.95946249983,
      "d": 45.38679583333578,
      "v": 75
    },
    {
      "midi": 59,
      "hit": false,
      "t": 39215.6796916665,
      "d": 43.89870416666963,
      "v": 75
    },
    {
      "midi": 71,
      "hit": false,
      "t": 39386.81023333317,
      "d": 140.62466249999852,
      "v": 93
    },
    {
      "midi": 59,
      "hit": false,
      "t": 39399.459012499836,
      "d": 126.48779166666645,
      "v": 93
    },
    {
      "midi": 55,
      "hit": false,
      "t": 39404.66733333317,
      "d": 126.48779166666645,
      "v": 84
    },
    {
      "midi": 43,
      "hit": false,
      "t": 39406.15542499984,
      "d": 124.9997000000003,
      "v": 84
    },
    {
      "midi": 74,
      "hit": false,
      "t": 39575.05382916651,
      "d": 129.46397500000603,
      "v": 93
    },
    {
      "midi": 62,
      "hit": false,
      "t": 39575.05382916651,
      "d": 130.20802083334274,
      "v": 93
    },
    {
      "midi": 55,
      "hit": false,
      "t": 39577.28596666651,
      "d": 46.87488750000193,
      "v": 75
    },
    {
      "midi": 59,
      "hit": false,
      "t": 39581.75024166651,
      "d": 44.642750000006345,
      "v": 75
    },
    {
      "midi": 61,
      "hit": false,
      "t": 39749.16055416652,
      "d": 126.48779166666645,
      "v": 93
    },
    {
      "midi": 73,
      "hit": false,
      "t": 39751.39269166652,
      "d": 127.23183749999589,
      "v": 93
    },
    {
      "midi": 50,
      "hit": false,
      "t": 39752.88078333319,
      "d": 139.8806166666618,
      "v": 84
    },
    {
      "midi": 38,
      "hit": false,
      "t": 39757.34505833319,
      "d": 149.55321249999542,
      "v": 84
    },
    {
      "midi": 62,
      "hit": false,
      "t": 39925.49941666651,
      "d": 143.6008458333381,
      "v": 93
    },
    {
      "midi": 74,
      "hit": false,
      "t": 39927.731554166516,
      "d": 142.85680000000139,
      "v": 93
    },
    {
      "midi": 55,
      "hit": false,
      "t": 39929.96369166652,
      "d": 43.15465833333292,
      "v": 75
    },
    {
      "midi": 59,
      "hit": false,
      "t": 39932.19582916652,
      "d": 58.77962083333114,
      "v": 75
    },
    {
      "midi": 76,
      "hit": false,
      "t": 40101.094233333184,
      "d": 144.34489166666754,
      "v": 93
    },
    {
      "midi": 64,
      "hit": false,
      "t": 40118.951333333185,
      "d": 124.9997000000003,
      "v": 93
    },
    {
      "midi": 55,
      "hit": false,
      "t": 40118.951333333185,
      "d": 126.48779166666645,
      "v": 84
    },
    {
      "midi": 43,
      "hit": false,
      "t": 40124.90369999985,
      "d": 124.9997000000003,
      "v": 84
    },
    {
      "midi": 62,
      "hit": false,
      "t": 40293.05805833318,
      "d": 126.48779166667373,
      "v": 93
    },
    {
      "midi": 74,
      "hit": false,
      "t": 40293.80210416652,
      "d": 125.74374583333702,
      "v": 93
    },
    {
      "midi": 55,
      "hit": false,
      "t": 40296.03424166652,
      "d": 41.66656666666677,
      "v": 75
    },
    {
      "midi": 59,
      "hit": false,
      "t": 40299.75447083319,
      "d": 40.922520833330054,
      "v": 75
    },
    {
      "midi": 61,
      "hit": false,
      "t": 40469.39692083319,
      "d": 125.74374583333702,
      "v": 93
    },
    {
      "midi": 73,
      "hit": false,
      "t": 40471.629058333194,
      "d": 122.76756249999744,
      "v": 93
    },
    {
      "midi": 50,
      "hit": false,
      "t": 40484.27783749986,
      "d": 126.48779166666645,
      "v": 84
    },
    {
      "midi": 38,
      "hit": false,
      "t": 40484.27783749986,
      "d": 128.71992916666932,
      "v": 84
    },
    {
      "midi": 62,
      "hit": false,
      "t": 40641.27150833319,
      "d": 145.08893749999697,
      "v": 93
    },
    {
      "midi": 55,
      "hit": false,
      "t": 40644.247691666525,
      "d": 44.64274999999907,
      "v": 75
    },
    {
      "midi": 74,
      "hit": false,
      "t": 40644.247691666525,
      "d": 142.11275416666467,
      "v": 93
    },
    {
      "midi": 59,
      "hit": false,
      "t": 40647.967920833195,
      "d": 43.898704166662355,
      "v": 75
    },
    {
      "midi": 69,
      "hit": false,
      "t": 40819.84250833319,
      "d": 319.19566250000935,
      "v": 93
    },
    {
      "midi": 57,
      "hit": false,
      "t": 40833.23533333319,
      "d": 302.8266541666744,
      "v": 93
    },
    {
      "midi": 54,
      "hit": false,
      "t": 40836.95556249986,
      "d": 127.23183750000317,
      "v": 84
    },
    {
      "midi": 42,
      "hit": false,
      "t": 40839.187699999864,
      "d": 127.23183750000317,
      "v": 84
    },
    {
      "midi": 62,
      "hit": false,
      "t": 41007.3420583332,
      "d": 48.36297916666081,
      "v": 75
    },
    {
      "midi": 54,
      "hit": false,
      "t": 41024.45511249986,
      "d": 33.4820624999993,
      "v": 75
    },
    {
      "midi": 60,
      "hit": false,
      "t": 41024.45511249986,
      "d": 37.202291666668316,
      "v": 75
    },
    {
      "midi": 50,
      "hit": false,
      "t": 41183.6809208332,
      "d": 145.08893750000425,
      "v": 84
    },
    {
      "midi": 69,
      "hit": false,
      "t": 41185.9130583332,
      "d": 110.86282916666823,
      "v": 93
    },
    {
      "midi": 72,
      "hit": false,
      "t": 41186.65710416654,
      "d": 111.60687499999767,
      "v": 93
    },
    {
      "midi": 74,
      "hit": false,
      "t": 41189.63328749987,
      "d": 110.11878333333152,
      "v": 93
    },
    {
      "midi": 66,
      "hit": false,
      "t": 41194.841608333205,
      "d": 107.14259999999922,
      "v": 93
    },
    {
      "midi": 38,
      "hit": false,
      "t": 41197.81779166654,
      "d": 145.8329833333337,
      "v": 84
    },
    {
      "midi": 62,
      "hit": false,
      "t": 41357.7876458332,
      "d": 142.85680000000139,
      "v": 93
    },
    {
      "midi": 54,
      "hit": false,
      "t": 41360.763829166535,
      "d": 46.13084166666522,
      "v": 75
    },
    {
      "midi": 74,
      "hit": false,
      "t": 41360.763829166535,
      "d": 140.6246625000058,
      "v": 93
    },
    {
      "midi": 60,
      "hit": false,
      "t": 41365.228104166534,
      "d": 43.89870416666963,
      "v": 75
    },
    {
      "midi": 76,
      "hit": false,
      "t": 41534.87055416654,
      "d": 141.36870833333523,
      "v": 93
    },
    {
      "midi": 64,
      "hit": false,
      "t": 41549.00742499987,
      "d": 126.48779166666645,
      "v": 93
    },
    {
      "midi": 54,
      "hit": false,
      "t": 41551.983608333205,
      "d": 125.74374583333702,
      "v": 84
    },
    {
      "midi": 42,
      "hit": false,
      "t": 41555.703837499874,
      "d": 125.74374583333702,
      "v": 84
    },
    {
      "midi": 74,
      "hit": false,
      "t": 41725.34628749988,
      "d": 127.9758833333326,
      "v": 93
    },
    {
      "midi": 62,
      "hit": false,
      "t": 41726.09033333322,
      "d": 124.25565416666359,
      "v": 93
    },
    {
      "midi": 54,
      "hit": false,
      "t": 41726.834379166554,
      "d": 43.898704166662355,
      "v": 75
    },
    {
      "midi": 60,
      "hit": false,
      "t": 41729.810562499886,
      "d": 43.898704166662355,
      "v": 75
    },
    {
      "midi": 73,
      "hit": false,
      "t": 41902.42919583321,
      "d": 124.99970000000758,
      "v": 93
    },
    {
      "midi": 61,
      "hit": false,
      "t": 41903.17324166655,
      "d": 122.76756250000471,
      "v": 93
    },
    {
      "midi": 50,
      "hit": false,
      "t": 41905.40537916655,
      "d": 135.41634166667063,
      "v": 84
    },
    {
      "midi": 38,
      "hit": false,
      "t": 41909.86965416655,
      "d": 130.95206666667218,
      "v": 84
    },
    {
      "midi": 62,
      "hit": false,
      "t": 42075.791874999886,
      "d": 140.62466249999852,
      "v": 93
    },
    {
      "midi": 74,
      "hit": false,
      "t": 42077.27996666655,
      "d": 140.62466249999852,
      "v": 93
    },
    {
      "midi": 54,
      "hit": false,
      "t": 42079.512104166555,
      "d": 40.922520833330054,
      "v": 75
    },
    {
      "midi": 60,
      "hit": false,
      "t": 42082.48828749989,
      "d": 40.17847500000062,
      "v": 75
    },
    {
      "midi": 69,
      "hit": false,
      "t": 42250.64264583322,
      "d": 142.85680000000139,
      "v": 93
    },
    {
      "midi": 57,
      "hit": false,
      "t": 42265.52356249989,
      "d": 126.48779166666645,
      "v": 93
    },
    {
      "midi": 54,
      "hit": false,
      "t": 42269.24379166656,
      "d": 126.48779166666645,
      "v": 84
    },
    {
      "midi": 42,
      "hit": false,
      "t": 42278.91638749989,
      "d": 117.55924166666955,
      "v": 84
    },
    {
      "midi": 62,
      "hit": false,
      "t": 42440.37433333323,
      "d": 128.71992916666932,
      "v": 93
    },
    {
      "midi": 74,
      "hit": false,
      "t": 42441.8624249999,
      "d": 128.71992916666932,
      "v": 93
    },
    {
      "midi": 54,
      "hit": false,
      "t": 42443.35051666656,
      "d": 45.38679583333578,
      "v": 75
    },
    {
      "midi": 60,
      "hit": false,
      "t": 42447.07074583323,
      "d": 43.89870416666963,
      "v": 75
    },
    {
      "midi": 61,
      "hit": false,
      "t": 42615.9691499999,
      "d": 126.48779166666645,
      "v": 93
    },
    {
      "midi": 73,
      "hit": false,
      "t": 42618.945333333235,
      "d": 126.48779166666645,
      "v": 93
    },
    {
      "midi": 50,
      "hit": false,
      "t": 42618.945333333235,
      "d": 141.36870833333523,
      "v": 84
    },
    {
      "midi": 38,
      "hit": false,
      "t": 42622.665562499904,
      "d": 151.7853499999983,
      "v": 84
    },
    {
      "midi": 62,
      "hit": false,
      "t": 42790.0758749999,
      "d": 143.60084583333082,
      "v": 93
    },
    {
      "midi": 74,
      "hit": false,
      "t": 42791.56396666657,
      "d": 142.85680000000139,
      "v": 93
    },
    {
      "midi": 54,
      "hit": false,
      "t": 42793.79610416657,
      "d": 46.87488749999466,
      "v": 75
    },
    {
      "midi": 60,
      "hit": false,
      "t": 42799.748470833234,
      "d": 57.291529166664986,
      "v": 75
    },
    {
      "midi": 76,
      "hit": false,
      "t": 42967.15878333324,
      "d": 142.11275416667922,
      "v": 93
    },
    {
      "midi": 64,
      "hit": false,
      "t": 42983.52779166657,
      "d": 124.25565416667087,
      "v": 93
    },
    {
      "midi": 54,
      "hit": false,
      "t": 42987.24802083324,
      "d": 121.27947083333856,
      "v": 84
    },
    {
      "midi": 42,
      "hit": false,
      "t": 42988.73611249991,
      "d": 125.74374583334429,
      "v": 84
    },
    {
      "midi": 62,
      "hit": false,
      "t": 43156.890470833256,
      "d": 128.71992916666932,
      "v": 93
    },
    {
      "midi": 54,
      "hit": false,
      "t": 43159.86665416659,
      "d": 45.38679583333578,
      "v": 75
    },
    {
      "midi": 74,
      "hit": false,
      "t": 43159.86665416659,
      "d": 126.48779166667373,
      "v": 93
    },
    {
      "midi": 60,
      "hit": false,
      "t": 43163.58688333326,
      "d": 43.89870416666963,
      "v": 75
    },
    {
      "midi": 61,
      "hit": false,
      "t": 43336.949562499925,
      "d": 123.51160833333415,
      "v": 93
    },
    {
      "midi": 73,
      "hit": false,
      "t": 43336.949562499925,
      "d": 123.51160833333415,
      "v": 93
    },
    {
      "midi": 50,
      "hit": false,
      "t": 43348.110249999925,
      "d": 126.48779166666645,
      "v": 84
    },
    {
      "midi": 38,
      "hit": false,
      "t": 43352.57452499992,
      "d": 122.023516666668,
      "v": 84
    },
    {
      "midi": 62,
      "hit": false,
      "t": 43505.84796666659,
      "d": 145.83298333334096,
      "v": 93
    },
    {
      "midi": 74,
      "hit": false,
      "t": 43508.08010416659,
      "d": 145.08893750000425,
      "v": 93
    },
    {
      "midi": 54,
      "hit": false,
      "t": 43511.80033333326,
      "d": 43.15465833333292,
      "v": 75
    },
    {
      "midi": 60,
      "hit": false,
      "t": 43514.03247083326,
      "d": 42.410612499996205,
      "v": 75
    },
    {
      "midi": 71,
      "hit": false,
      "t": 43683.67492083326,
      "d": 319.9397083333315,
      "v": 93
    },
    {
      "midi": 59,
      "hit": false,
      "t": 43698.55583749993,
      "d": 131.69611250000162,
      "v": 93
    },
    {
      "midi": 55,
      "hit": false,
      "t": 43701.53202083326,
      "d": 128.71992916666932,
      "v": 84
    },
    {
      "midi": 43,
      "hit": false,
      "t": 43708.228433333265,
      "d": 126.48779166666645,
      "v": 84
    },
    {
      "midi": 62,
      "hit": false,
      "t": 43874.150654166595,
      "d": 46.13084166666522,
      "v": 75
    },
    {
      "midi": 74,
      "hit": false,
      "t": 43874.150654166595,
      "d": 65.47603333333245,
      "v": 93
    },
    {
      "midi": 55,
      "hit": false,
      "t": 43889.77561666659,
      "d": 30.505879166667,
      "v": 75
    },
    {
      "midi": 59,
      "hit": false,
      "t": 43891.26370833326,
      "d": 34.226108333336015,
      "v": 75
    },
    {
      "midi": 76,
      "hit": false,
      "t": 43922.51363333326,
      "d": 87.05336249999527,
      "v": 93
    },
    {
      "midi": 78,
      "hit": false,
      "t": 43988.733712499925,
      "d": 75.89267500000278,
      "v": 93
    },
    {
      "midi": 55,
      "hit": false,
      "t": 44048.25737916659,
      "d": 126.48779166666645,
      "v": 84
    },
    {
      "midi": 74,
      "hit": false,
      "t": 44050.489516666596,
      "d": 127.23183749999589,
      "v": 93
    },
    {
      "midi": 79,
      "hit": false,
      "t": 44054.953791666594,
      "d": 122.76756249999744,
      "v": 93
    },
    {
      "midi": 71,
      "hit": false,
      "t": 44055.69783749993,
      "d": 124.99969999999303,
      "v": 93
    },
    {
      "midi": 43,
      "hit": false,
      "t": 44064.62638749993,
      "d": 141.36870833332796,
      "v": 84
    },
    {
      "midi": 62,
      "hit": false,
      "t": 44225.34028749992,
      "d": 46.87488750000921,
      "v": 75
    },
    {
      "midi": 55,
      "hit": false,
      "t": 44226.08433333326,
      "d": 46.87488750000921,
      "v": 75
    },
    {
      "midi": 59,
      "hit": false,
      "t": 44229.80456249993,
      "d": 46.130841666672495,
      "v": 75
    },
    {
      "midi": 67,
      "hit": false,
      "t": 44400.191058333265,
      "d": 142.85680000000139,
      "v": 93
    },
    {
      "midi": 55,
      "hit": false,
      "t": 44415.07197499993,
      "d": 127.9758833333326,
      "v": 93
    },
    {
      "midi": 43,
      "hit": false,
      "t": 44422.512433333264,
      "d": 124.9997000000003,
      "v": 84
    },
    {
      "midi": 55,
      "hit": false,
      "t": 44589.92274583327,
      "d": 126.48779166666645,
      "v": 93
    },
    {
      "midi": 67,
      "hit": false,
      "t": 44590.666791666605,
      "d": 126.48779166666645,
      "v": 93
    },
    {
      "midi": 62,
      "hit": false,
      "t": 44592.89892916661,
      "d": 43.898704166662355,
      "v": 75
    },
    {
      "midi": 59,
      "hit": false,
      "t": 44595.87511249994,
      "d": 43.898704166662355,
      "v": 75
    },
    {
      "midi": 59,
      "hit": false,
      "t": 44767.005654166605,
      "d": 124.25565416666359,
      "v": 93
    },
    {
      "midi": 71,
      "hit": false,
      "t": 44768.49374583327,
      "d": 125.74374583332974,
      "v": 93
    },
    {
      "midi": 47,
      "hit": false,
      "t": 44772.95802083327,
      "d": 136.16038750000007,
      "v": 84
    },
    {
      "midi": 35,
      "hit": false,
      "t": 44772.95802083327,
      "d": 136.16038750000007,
      "v": 84
    },
    {
      "midi": 62,
      "hit": false,
      "t": 44941.1123791666,
      "d": 141.36870833332796,
      "v": 93
    },
    {
      "midi": 55,
      "hit": false,
      "t": 44942.60047083327,
      "d": 44.64274999999907,
      "v": 75
    },
    {
      "midi": 74,
      "hit": false,
      "t": 44942.60047083327,
      "d": 141.36870833332796,
      "v": 93
    },
    {
      "midi": 59,
      "hit": false,
      "t": 44946.32069999994,
      "d": 43.898704166662355,
      "v": 75
    },
    {
      "midi": 79,
      "hit": false,
      "t": 45118.19528749993,
      "d": 142.85680000000139,
      "v": 93
    },
    {
      "midi": 67,
      "hit": false,
      "t": 45130.8440666666,
      "d": 127.9758833333326,
      "v": 93
    },
    {
      "midi": 50,
      "hit": false,
      "t": 45134.56429583327,
      "d": 127.9758833333326,
      "v": 84
    },
    {
      "midi": 38,
      "hit": false,
      "t": 45140.51666249993,
      "d": 122.023516666668,
      "v": 84
    },
    {
      "midi": 79,
      "hit": false,
      "t": 45307.1829291666,
      "d": 128.7199291666766,
      "v": 93
    },
    {
      "midi": 67,
      "hit": false,
      "t": 45307.92697499994,
      "d": 126.48779166667373,
      "v": 93
    },
    {
      "midi": 55,
      "hit": false,
      "t": 45310.90315833327,
      "d": 41.66656666667404,
      "v": 75
    },
    {
      "midi": 53,
      "hit": false,
      "t": 45314.62338749994,
      "d": 40.92252083333733,
      "v": 75
    },
    {
      "midi": 62,
      "hit": false,
      "t": 45316.85552499994,
      "d": 41.66656666666677,
      "v": 75
    },
    {
      "midi": 59,
      "hit": false,
      "t": 45316.85552499994,
      "d": 42.41061250000348,
      "v": 75
    },
    {
      "midi": 55,
      "hit": false,
      "t": 45481.28965416661,
      "d": 146.57702916666312,
      "v": 84
    },
    {
      "midi": 43,
      "hit": false,
      "t": 45498.40270833328,
      "d": 141.36870833333523,
      "v": 84
    },
    {
      "midi": 67,
      "hit": false,
      "t": 45656.884470833276,
      "d": 142.85680000000866,
      "v": 93
    },
    {
      "midi": 55,
      "hit": false,
      "t": 45659.86065416661,
      "d": 43.154658333340194,
      "v": 75
    },
    {
      "midi": 79,
      "hit": false,
      "t": 45659.86065416661,
      "d": 142.11275416667922,
      "v": 93
    },
    {
      "midi": 53,
      "hit": false,
      "t": 45662.09279166661,
      "d": 61.011758333334,
      "v": 75
    },
    {
      "midi": 62,
      "hit": false,
      "t": 45665.81302083328,
      "d": 43.15465833333292,
      "v": 75
    },
    {
      "midi": 59,
      "hit": false,
      "t": 45666.55706666662,
      "d": 58.77962083333114,
      "v": 75
    },
    {
      "midi": 81,
      "hit": false,
      "t": 45834.71142499996,
      "d": 140.6246625000058,
      "v": 93
    },
    {
      "midi": 69,
      "hit": false,
      "t": 45848.10424999996,
      "d": 126.48779166666645,
      "v": 93
    },
    {
      "midi": 48,
      "hit": false,
      "t": 45852.56852499996,
      "d": 125.74374583333702,
      "v": 84
    },
    {
      "midi": 36,
      "hit": false,
      "t": 45854.80066249996,
      "d": 124.9997000000003,
      "v": 84
    },
    {
      "midi": 67,
      "hit": false,
      "t": 46021.46692916663,
      "d": 127.23183750001044,
      "v": 93
    },
    {
      "midi": 79,
      "hit": false,
      "t": 46025.1871583333,
      "d": 124.99970000000758,
      "v": 93
    },
    {
      "midi": 55,
      "hit": false,
      "t": 46027.4192958333,
      "d": 42.41061250000348,
      "v": 75
    },
    {
      "midi": 60,
      "hit": false,
      "t": 46028.16334166664,
      "d": 44.64274999999907,
      "v": 75
    },
    {
      "midi": 52,
      "hit": false,
      "t": 46032.627616666636,
      "d": 43.89870416666963,
      "v": 75
    },
    {
      "midi": 66,
      "hit": false,
      "t": 46202.270066666635,
      "d": 122.023516666668,
      "v": 93
    },
    {
      "midi": 78,
      "hit": false,
      "t": 46203.7581583333,
      "d": 122.023516666668,
      "v": 93
    },
    {
      "midi": 52,
      "hit": false,
      "t": 46214.174799999964,
      "d": 126.48779166667373,
      "v": 84
    },
    {
      "midi": 40,
      "hit": false,
      "t": 46216.40693749997,
      "d": 127.23183750000317,
      "v": 84
    },
    {
      "midi": 67,
      "hit": false,
      "t": 46372.65656249997,
      "d": 142.85680000001594,
      "v": 93
    },
    {
      "midi": 79,
      "hit": false,
      "t": 46373.40060833331,
      "d": 143.60084583334537,
      "v": 93
    },
    {
      "midi": 55,
      "hit": false,
      "t": 46375.63274583331,
      "d": 46.87488750000193,
      "v": 75
    },
    {
      "midi": 60,
      "hit": false,
      "t": 46379.35297499998,
      "d": 43.89870416666963,
      "v": 75
    },
    {
      "midi": 52,
      "hit": false,
      "t": 46383.07320416665,
      "d": 42.41061250000348,
      "v": 75
    },
    {
      "midi": 76,
      "hit": false,
      "t": 46548.99542499999,
      "d": 322.1718458333344,
      "v": 93
    },
    {
      "midi": 64,
      "hit": false,
      "t": 46566.10847916665,
      "d": 220.23756666667032,
      "v": 93
    },
    {
      "midi": 55,
      "hit": false,
      "t": 46566.85252499999,
      "d": 129.46397499999875,
      "v": 84
    },
    {
      "midi": 43,
      "hit": false,
      "t": 46569.82870833332,
      "d": 128.71992916666932,
      "v": 84
    },
    {
      "midi": 55,
      "hit": false,
      "t": 46739.47115833332,
      "d": 49.851070833334234,
      "v": 75
    },
    {
      "midi": 60,
      "hit": false,
      "t": 46755.09612083332,
      "d": 35.714200000002165,
      "v": 75
    },
    {
      "midi": 52,
      "hit": false,
      "t": 46757.32825833332,
      "d": 36.4582458333316,
      "v": 75
    },
    {
      "midi": 67,
      "hit": false,
      "t": 46819.82810833332,
      "d": 64.73198750000302,
      "v": 75
    },
    {
      "midi": 72,
      "hit": false,
      "t": 46836.941162499985,
      "d": 48.36297916667536,
      "v": 75
    },
    {
      "midi": 64,
      "hit": false,
      "t": 46839.17329999999,
      "d": 47.618933333338646,
      "v": 75
    },
    {
      "midi": 55,
      "hit": false,
      "t": 46915.06597499999,
      "d": 144.3448916666748,
      "v": 75
    },
    {
      "midi": 67,
      "hit": false,
      "t": 46917.29811249999,
      "d": 126.48779166666645,
      "v": 93
    },
    {
      "midi": 72,
      "hit": false,
      "t": 46918.78620416666,
      "d": 124.9997000000003,
      "v": 93
    },
    {
      "midi": 64,
      "hit": false,
      "t": 46922.50643333333,
      "d": 124.9997000000003,
      "v": 93
    },
    {
      "midi": 60,
      "hit": false,
      "t": 46932.17902916666,
      "d": 140.6246625000058,
      "v": 75
    },
    {
      "midi": 52,
      "hit": false,
      "t": 46932.17902916666,
      "d": 142.85680000000866,
      "v": 75
    },
    {
      "midi": 48,
      "hit": false,
      "t": 46936.64330416666,
      "d": 140.62466250001307,
      "v": 84
    },
    {
      "midi": 36,
      "hit": false,
      "t": 46941.10757916666,
      "d": 138.39252500001749,
      "v": 84
    },
    {
      "midi": 62,
      "hit": false,
      "t": 47089.17270000001,
      "d": 142.85680000000139,
      "v": 93
    },
    {
      "midi": 74,
      "hit": false,
      "t": 47090.660791666676,
      "d": 144.34489166666754,
      "v": 93
    },
    {
      "midi": 76,
      "hit": false,
      "t": 47267.74370000001,
      "d": 140.6246625000058,
      "v": 93
    },
    {
      "midi": 64,
      "hit": false,
      "t": 47279.64843333335,
      "d": 127.23183750000317,
      "v": 93
    },
    {
      "midi": 54,
      "hit": false,
      "t": 47283.36866250002,
      "d": 490.32620416667487,
      "v": 84
    },
    {
      "midi": 48,
      "hit": false,
      "t": 47284.112708333356,
      "d": 490.32620416667487,
      "v": 84
    },
    {
      "midi": 38,
      "hit": false,
      "t": 47290.06507500002,
      "d": 486.60597500001313,
      "v": 84
    },
    {
      "midi": 74,
      "hit": false,
      "t": 47456.73134166669,
      "d": 127.23183750000317,
      "v": 93
    },
    {
      "midi": 62,
      "hit": false,
      "t": 47457.475387500024,
      "d": 124.9997000000003,
      "v": 93
    },
    {
      "midi": 62,
      "hit": false,
      "t": 47633.814250000025,
      "d": 123.51160833333415,
      "v": 93
    },
    {
      "midi": 74,
      "hit": false,
      "t": 47633.814250000025,
      "d": 124.25565416667087,
      "v": 93
    },
    {
      "midi": 62,
      "hit": false,
      "t": 47806.432883333364,
      "d": 143.6008458333381,
      "v": 93
    },
    {
      "midi": 74,
      "hit": false,
      "t": 47806.432883333364,
      "d": 145.08893750001153,
      "v": 93
    },
    {
      "midi": 54,
      "hit": false,
      "t": 47809.409066666696,
      "d": 140.6246625000058,
      "v": 84
    },
    {
      "midi": 48,
      "hit": false,
      "t": 47810.15311250003,
      "d": 140.6246625000058,
      "v": 84
    },
    {
      "midi": 38,
      "hit": false,
      "t": 47810.89715833337,
      "d": 142.11275416667195,
      "v": 84
    },
    {
      "midi": 77,
      "hit": false,
      "t": 47983.51579166671,
      "d": 141.3687083333425,
      "v": 93
    },
    {
      "midi": 65,
      "hit": false,
      "t": 47998.39670833338,
      "d": 127.97588333333988,
      "v": 93
    },
    {
      "midi": 55,
      "hit": false,
      "t": 48000.62884583338,
      "d": 491.0702500000043,
      "v": 84
    },
    {
      "midi": 49,
      "hit": false,
      "t": 48001.37289166672,
      "d": 491.0702500000043,
      "v": 84
    },
    {
      "midi": 39,
      "hit": false,
      "t": 48002.11693750005,
      "d": 502.9749833333335,
      "v": 84
    },
    {
      "midi": 63,
      "hit": false,
      "t": 48172.50343333338,
      "d": 130.20802083333547,
      "v": 93
    },
    {
      "midi": 75,
      "hit": false,
      "t": 48173.24747916672,
      "d": 130.20802083333547,
      "v": 93
    },
    {
      "midi": 63,
      "hit": false,
      "t": 48347.354204166724,
      "d": 128.71992916666204,
      "v": 93
    },
    {
      "midi": 75,
      "hit": false,
      "t": 48350.33038750006,
      "d": 125.74374583332974,
      "v": 93
    },
    {
      "midi": 63,
      "hit": false,
      "t": 48522.20497500005,
      "d": 145.08893750000425,
      "v": 93
    },
    {
      "midi": 75,
      "hit": false,
      "t": 48523.69306666672,
      "d": 144.3448916666748,
      "v": 93
    },
    {
      "midi": 55,
      "hit": false,
      "t": 48525.181158333384,
      "d": 143.60084583334537,
      "v": 84
    },
    {
      "midi": 49,
      "hit": false,
      "t": 48525.92520416672,
      "d": 143.60084583334537,
      "v": 84
    },
    {
      "midi": 39,
      "hit": false,
      "t": 48528.90138750005,
      "d": 141.3687083333498,
      "v": 84
    },
    {
      "midi": 78,
      "hit": false,
      "t": 48700.77597500007,
      "d": 142.11275416667922,
      "v": 93
    },
    {
      "midi": 66,
      "hit": false,
      "t": 48715.65689166674,
      "d": 126.48779166667373,
      "v": 93
    },
    {
      "midi": 56,
      "hit": false,
      "t": 48718.63307500007,
      "d": 489.58215833334543,
      "v": 84
    },
    {
      "midi": 50,
      "hit": false,
      "t": 48719.37712083341,
      "d": 489.58215833334543,
      "v": 84
    },
    {
      "midi": 40,
      "hit": false,
      "t": 48720.121166666744,
      "d": 488.094066666672,
      "v": 84
    },
    {
      "midi": 64,
      "hit": false,
      "t": 48889.019570833414,
      "d": 126.48779166666645,
      "v": 93
    },
    {
      "midi": 76,
      "hit": false,
      "t": 48889.019570833414,
      "d": 127.23183750000317,
      "v": 93
    },
    {
      "midi": 64,
      "hit": false,
      "t": 49068.33461666675,
      "d": 122.023516666668,
      "v": 93
    },
    {
      "midi": 76,
      "hit": false,
      "t": 49068.33461666675,
      "d": 122.76756250000471,
      "v": 93
    },
    {
      "midi": 76,
      "hit": false,
      "t": 49239.46515833342,
      "d": 144.3448916666821,
      "v": 93
    },
    {
      "midi": 64,
      "hit": false,
      "t": 49240.20920416676,
      "d": 142.11275416667195,
      "v": 93
    },
    {
      "midi": 56,
      "hit": false,
      "t": 49243.18538750009,
      "d": 139.13657083333965,
      "v": 84
    },
    {
      "midi": 50,
      "hit": false,
      "t": 49243.929433333426,
      "d": 139.13657083333965,
      "v": 84
    },
    {
      "midi": 40,
      "hit": false,
      "t": 49245.41752500009,
      "d": 140.62466250001307,
      "v": 84
    },
    {
      "midi": 77,
      "hit": false,
      "t": 49414.31592916677,
      "d": 320.6837541666682,
      "v": 93
    },
    {
      "midi": 65,
      "hit": false,
      "t": 49429.94089166677,
      "d": 304.3147458333333,
      "v": 93
    },
    {
      "midi": 53,
      "hit": false,
      "t": 49434.405166666766,
      "d": 124.9997000000003,
      "v": 84
    },
    {
      "midi": 57,
      "hit": false,
      "t": 49434.405166666766,
      "d": 124.9997000000003,
      "v": 84
    },
    {
      "midi": 41,
      "hit": false,
      "t": 49438.869441666764,
      "d": 124.25565416667087,
      "v": 84
    },
    {
      "midi": 51,
      "hit": false,
      "t": 49607.023800000105,
      "d": 139.88061666666908,
      "v": 84
    },
    {
      "midi": 63,
      "hit": false,
      "t": 49621.16067083344,
      "d": 125.74374583333702,
      "v": 84
    },
    {
      "midi": 39,
      "hit": false,
      "t": 49624.13685416677,
      "d": 129.46397500000603,
      "v": 84
    },
    {
      "midi": 50,
      "hit": false,
      "t": 49780.38647916677,
      "d": 143.6008458333381,
      "v": 84
    },
    {
      "midi": 62,
      "hit": false,
      "t": 49784.10670833344,
      "d": 154.76153333333787,
      "v": 84
    },
    {
      "midi": 38,
      "hit": false,
      "t": 49786.338845833445,
      "d": 152.529395833335,
      "v": 84
    },
    {
      "midi": 65,
      "hit": false,
      "t": 49956.72534166678,
      "d": 140.6246625000058,
      "v": 93
    },
    {
      "midi": 48,
      "hit": false,
      "t": 49957.46938750012,
      "d": 143.6008458333381,
      "v": 84
    },
    {
      "midi": 77,
      "hit": false,
      "t": 49958.213433333454,
      "d": 140.62466249999852,
      "v": 93
    },
    {
      "midi": 69,
      "hit": false,
      "t": 49958.213433333454,
      "d": 143.6008458333381,
      "v": 93
    },
    {
      "midi": 60,
      "hit": false,
      "t": 49962.67770833345,
      "d": 141.3687083333425,
      "v": 84
    },
    {
      "midi": 36,
      "hit": false,
      "t": 49967.14198333345,
      "d": 138.3925250000102,
      "v": 84
    },
    {
      "midi": 79,
      "hit": false,
      "t": 50133.808250000126,
      "d": 491.0702500000116,
      "v": 93
    },
    {
      "midi": 70,
      "hit": false,
      "t": 50136.04038750013,
      "d": 493.30238750000717,
      "v": 93
    },
    {
      "midi": 67,
      "hit": false,
      "t": 50146.45702916679,
      "d": 476.9333791666795,
      "v": 93
    },
    {
      "midi": 46,
      "hit": false,
      "t": 50150.17725833346,
      "d": 122.76756250000471,
      "v": 84
    },
    {
      "midi": 58,
      "hit": false,
      "t": 50153.15344166679,
      "d": 123.51160833334143,
      "v": 84
    },
    {
      "midi": 34,
      "hit": false,
      "t": 50156.87367083346,
      "d": 119.79137916667241,
      "v": 84
    },
    {
      "midi": 58,
      "hit": false,
      "t": 50323.539937500136,
      "d": 47.61893333333137,
      "v": 75
    },
    {
      "midi": 62,
      "hit": false,
      "t": 50326.51612083347,
      "d": 46.13084166666522,
      "v": 75
    },
    {
      "midi": 53,
      "hit": false,
      "t": 50330.98039583347,
      "d": 43.89870416666963,
      "v": 75
    },
    {
      "midi": 53,
      "hit": false,
      "t": 50499.87880000014,
      "d": 138.39252499999566,
      "v": 84
    },
    {
      "midi": 41,
      "hit": false,
      "t": 50502.11093750014,
      "d": 138.39252499999566,
      "v": 84
    },
    {
      "midi": 65,
      "hit": false,
      "t": 50671.75338750013,
      "d": 143.6008458333381,
      "v": 93
    },
    {
      "midi": 77,
      "hit": false,
      "t": 50672.49743333347,
      "d": 144.34489166666754,
      "v": 93
    },
    {
      "midi": 58,
      "hit": false,
      "t": 50674.72957083347,
      "d": 45.38679583333578,
      "v": 75
    },
    {
      "midi": 70,
      "hit": false,
      "t": 50674.72957083347,
      "d": 142.11275416666467,
      "v": 93
    },
    {
      "midi": 62,
      "hit": false,
      "t": 50677.705754166804,
      "d": 42.41061250000348,
      "v": 75
    },
    {
      "midi": 53,
      "hit": false,
      "t": 50681.42598333347,
      "d": 43.15465833333292,
      "v": 75
    },
    {
      "midi": 76,
      "hit": false,
      "t": 50847.3482041668,
      "d": 495.53452500000276,
      "v": 93
    },
    {
      "midi": 70,
      "hit": false,
      "t": 50850.324387500135,
      "d": 492.55834166667046,
      "v": 93
    },
    {
      "midi": 64,
      "hit": false,
      "t": 50864.46125833347,
      "d": 476.1893333333355,
      "v": 93
    },
    {
      "midi": 58,
      "hit": false,
      "t": 50868.18148750014,
      "d": 123.51160833333415,
      "v": 84
    },
    {
      "midi": 46,
      "hit": false,
      "t": 50869.6695791668,
      "d": 124.25565416667087,
      "v": 84
    },
    {
      "midi": 58,
      "hit": false,
      "t": 51040.800120833475,
      "d": 44.64274999999907,
      "v": 75
    },
    {
      "midi": 62,
      "hit": false,
      "t": 51041.54416666681,
      "d": 46.87488749999466,
      "v": 75
    },
    {
      "midi": 53,
      "hit": false,
      "t": 51046.00844166681,
      "d": 43.898704166662355,
      "v": 75
    },
    {
      "midi": 53,
      "hit": false,
      "t": 51214.16280000014,
      "d": 143.6008458333381,
      "v": 84
    },
    {
      "midi": 41,
      "hit": false,
      "t": 51217.883029166805,
      "d": 143.6008458333381,
      "v": 84
    },
    {
      "midi": 65,
      "hit": false,
      "t": 51388.26952500014,
      "d": 142.85680000000866,
      "v": 93
    },
    {
      "midi": 58,
      "hit": false,
      "t": 51391.245708333474,
      "d": 47.618933333338646,
      "v": 75
    },
    {
      "midi": 77,
      "hit": false,
      "t": 51391.245708333474,
      "d": 142.85680000000866,
      "v": 93
    },
    {
      "midi": 70,
      "hit": false,
      "t": 51391.98975416681,
      "d": 142.85680000000866,
      "v": 93
    },
    {
      "midi": 62,
      "hit": false,
      "t": 51393.47784583348,
      "d": 47.618933333338646,
      "v": 75
    },
    {
      "midi": 53,
      "hit": false,
      "t": 51398.68616666681,
      "d": 45.38679583333578,
      "v": 75
    },
    {
      "midi": 62,
      "hit": false,
      "t": 51581.72144166682,
      "d": 126.48779166666645,
      "v": 93
    },
    {
      "midi": 74,
      "hit": false,
      "t": 51581.72144166682,
      "d": 127.9758833333326,
      "v": 93
    },
    {
      "midi": 58,
      "hit": false,
      "t": 51582.46548750016,
      "d": 127.23183749999589,
      "v": 84
    },
    {
      "midi": 46,
      "hit": false,
      "t": 51586.929762500156,
      "d": 124.25565416667087,
      "v": 84
    },
    {
      "midi": 70,
      "hit": false,
      "t": 51596.60235833349,
      "d": 113.83901250000054,
      "v": 93
    },
    {
      "midi": 77,
      "hit": false,
      "t": 51755.828166666826,
      "d": 397.32047500002955,
      "v": 93
    },
    {
      "midi": 58,
      "hit": false,
      "t": 51756.57221250016,
      "d": 44.64275000001362,
      "v": 75
    },
    {
      "midi": 62,
      "hit": false,
      "t": 51757.3162583335,
      "d": 46.87488750000921,
      "v": 75
    },
    {
      "midi": 86,
      "hit": false,
      "t": 51758.06030416684,
      "d": 398.0645208333517,
      "v": 93
    },
    {
      "midi": 89,
      "hit": false,
      "t": 51761.03648750017,
      "d": 398.0645208333517,
      "v": 93
    },
    {
      "midi": 53,
      "hit": false,
      "t": 51761.780533333505,
      "d": 44.642750000006345,
      "v": 75
    },
    {
      "midi": 74,
      "hit": false,
      "t": 51765.500762500174,
      "d": 396.5764291666783,
      "v": 93
    },
    {
      "midi": 41,
      "hit": false,
      "t": 51934.399166666844,
      "d": 139.13657083333237,
      "v": 84
    },
    {
      "midi": 53,
      "hit": false,
      "t": 51934.399166666844,
      "d": 139.13657083333237,
      "v": 84
    },
    {
      "midi": 58,
      "hit": false,
      "t": 52104.041616666844,
      "d": 47.618933333338646,
      "v": 75
    },
    {
      "midi": 76,
      "hit": false,
      "t": 52106.27375416685,
      "d": 220.98161250000703,
      "v": 93
    },
    {
      "midi": 62,
      "hit": false,
      "t": 52109.24993750018,
      "d": 43.154658333340194,
      "v": 75
    },
    {
      "midi": 53,
      "hit": false,
      "t": 52110.738029166845,
      "d": 46.87488750000921,
      "v": 75
    },
    {
      "midi": 85,
      "hit": false,
      "t": 52122.64276250018,
      "d": 204.6126041666721,
      "v": 93
    },
    {
      "midi": 88,
      "hit": false,
      "t": 52126.36299166685,
      "d": 202.38046666666924,
      "v": 93
    },
    {
      "midi": 73,
      "hit": false,
      "t": 52131.571312500186,
      "d": 201.63642083333252,
      "v": 93
    },
    {
      "midi": 58,
      "hit": false,
      "t": 52296.00544166685,
      "d": 130.20802083333547,
      "v": 84
    },
    {
      "midi": 77,
      "hit": false,
      "t": 52296.74948750019,
      "d": 127.23183749999589,
      "v": 93
    },
    {
      "midi": 46,
      "hit": false,
      "t": 52299.72567083352,
      "d": 129.46397499999875,
      "v": 84
    },
    {
      "midi": 86,
      "hit": false,
      "t": 52313.86254166685,
      "d": 111.60687499999767,
      "v": 93
    },
    {
      "midi": 89,
      "hit": false,
      "t": 52316.83872500018,
      "d": 113.0949666666711,
      "v": 93
    },
    {
      "midi": 74,
      "hit": false,
      "t": 52320.55895416685,
      "d": 109.37473750000208,
      "v": 93
    },
    {
      "midi": 62,
      "hit": false,
      "t": 52470.856212500184,
      "d": 48.36297916666808,
      "v": 75
    },
    {
      "midi": 58,
      "hit": false,
      "t": 52474.57644166685,
      "d": 44.64274999999907,
      "v": 75
    },
    {
      "midi": 53,
      "hit": false,
      "t": 52476.808579166856,
      "d": 123.51160833332688,
      "v": 84
    },
    {
      "midi": 41,
      "hit": false,
      "t": 52479.78476250019,
      "d": 123.51160833332688,
      "v": 84
    },
    {
      "midi": 64,
      "hit": false,
      "t": 52647.939120833515,
      "d": 124.9997000000003,
      "v": 93
    },
    {
      "midi": 76,
      "hit": false,
      "t": 52649.42721250018,
      "d": 123.51160833333415,
      "v": 93
    },
    {
      "midi": 70,
      "hit": false,
      "t": 52649.42721250018,
      "d": 126.48779166666645,
      "v": 93
    },
    {
      "midi": 55,
      "hit": false,
      "t": 52650.91530416685,
      "d": 142.11275416666467,
      "v": 84
    },
    {
      "midi": 43,
      "hit": false,
      "t": 52655.379579166845,
      "d": 137.64847916666622,
      "v": 84
    },
    {
      "midi": 65,
      "hit": false,
      "t": 52822.04584583351,
      "d": 141.3687083333498,
      "v": 93
    },
    {
      "midi": 77,
      "hit": false,
      "t": 52822.04584583351,
      "d": 144.34489166668936,
      "v": 93
    },
    {
      "midi": 58,
      "hit": false,
      "t": 52824.277983333515,
      "d": 43.89870416667691,
      "v": 75
    },
    {
      "midi": 70,
      "hit": false,
      "t": 52826.51012083352,
      "d": 139.88061666668364,
      "v": 93
    },
    {
      "midi": 62,
      "hit": false,
      "t": 52827.998212500184,
      "d": 43.154658333340194,
      "v": 75
    },
    {
      "midi": 53,
      "hit": false,
      "t": 52834.694625000186,
      "d": 40.17847500000789,
      "v": 75
    },
    {
      "midi": 57,
      "hit": false,
      "t": 52835.43867083352,
      "d": 128.7199291666766,
      "v": 84
    },
    {
      "midi": 45,
      "hit": false,
      "t": 52839.15890000019,
      "d": 128.7199291666766,
      "v": 84
    },
    {
      "midi": 67,
      "hit": false,
      "t": 53011.77753333354,
      "d": 206.10069583333825,
      "v": 93
    },
    {
      "midi": 79,
      "hit": false,
      "t": 53014.75371666687,
      "d": 206.10069583333825,
      "v": 93
    },
    {
      "midi": 70,
      "hit": false,
      "t": 53016.98585416687,
      "d": 204.6126041666721,
      "v": 93
    },
    {
      "midi": 58,
      "hit": false,
      "t": 53017.72990000021,
      "d": 120.53542500000185,
      "v": 84
    },
    {
      "midi": 46,
      "hit": false,
      "t": 53018.473945833546,
      "d": 122.76756249999744,
      "v": 84
    },
    {
      "midi": 58,
      "hit": false,
      "t": 53188.116395833546,
      "d": 48.36297916666808,
      "v": 75
    },
    {
      "midi": 62,
      "hit": false,
      "t": 53192.580670833544,
      "d": 45.38679583333578,
      "v": 75
    },
    {
      "midi": 53,
      "hit": false,
      "t": 53195.556854166876,
      "d": 43.154658333340194,
      "v": 75
    },
    {
      "midi": 65,
      "hit": false,
      "t": 53364.455258333546,
      "d": 204.6126041666721,
      "v": 93
    },
    {
      "midi": 77,
      "hit": false,
      "t": 53365.19930416688,
      "d": 203.8685583333354,
      "v": 93
    },
    {
      "midi": 53,
      "hit": false,
      "t": 53369.66357916688,
      "d": 135.41634166667063,
      "v": 84
    },
    {
      "midi": 70,
      "hit": false,
      "t": 53370.40762500022,
      "d": 201.63642083333252,
      "v": 93
    },
    {
      "midi": 41,
      "hit": false,
      "t": 53371.151670833555,
      "d": 136.16038750000007,
      "v": 84
    },
    {
      "midi": 58,
      "hit": false,
      "t": 53538.56198333355,
      "d": 47.61893333333137,
      "v": 75
    },
    {
      "midi": 62,
      "hit": false,
      "t": 53543.02625833355,
      "d": 45.38679583333578,
      "v": 75
    },
    {
      "midi": 53,
      "hit": false,
      "t": 53545.25839583355,
      "d": 46.87488750000193,
      "v": 75
    },
    {
      "midi": 64,
      "hit": false,
      "t": 53728.293670833555,
      "d": 209.07687916667055,
      "v": 93
    },
    {
      "midi": 76,
      "hit": false,
      "t": 53731.26985416689,
      "d": 208.3328333333411,
      "v": 93
    },
    {
      "midi": 70,
      "hit": false,
      "t": 53731.26985416689,
      "d": 220.2375666666776,
      "v": 93
    },
    {
      "midi": 58,
      "hit": false,
      "t": 53733.50199166689,
      "d": 122.023516666668,
      "v": 84
    },
    {
      "midi": 46,
      "hit": false,
      "t": 53741.68649583356,
      "d": 116.0711500000034,
      "v": 84
    },
    {
      "midi": 58,
      "hit": false,
      "t": 53904.63253333356,
      "d": 48.36297916666808,
      "v": 75
    },
    {
      "midi": 62,
      "hit": false,
      "t": 53918.769404166895,
      "d": 35.714200000002165,
      "v": 75
    },
    {
      "midi": 53,
      "hit": false,
      "t": 53921.74558750023,
      "d": 34.226108333336015,
      "v": 75
    },
    {
      "midi": 65,
      "hit": false,
      "t": 54078.73925833356,
      "d": 208.33283333333384,
      "v": 93
    },
    {
      "midi": 77,
      "hit": false,
      "t": 54079.4833041669,
      "d": 209.07687916666328,
      "v": 93
    },
    {
      "midi": 53,
      "hit": false,
      "t": 54082.45948750023,
      "d": 142.85680000000139,
      "v": 84
    },
    {
      "midi": 70,
      "hit": false,
      "t": 54084.69162500023,
      "d": 204.61260416666482,
      "v": 93
    },
    {
      "midi": 41,
      "hit": false,
      "t": 54086.1797166669,
      "d": 150.29725833333214,
      "v": 84
    },
    {
      "midi": 58,
      "hit": false,
      "t": 54255.07812083356,
      "d": 49.107025000004796,
      "v": 75
    },
    {
      "midi": 62,
      "hit": false,
      "t": 54269.21499166689,
      "d": 49.107025000004796,
      "v": 75
    },
    {
      "midi": 53,
      "hit": false,
      "t": 54269.95903750023,
      "d": 51.339162500000384,
      "v": 75
    },
    {
      "midi": 60,
      "hit": false,
      "t": 54445.553854166894,
      "d": 303.57070000001113,
      "v": 93
    },
    {
      "midi": 72,
      "hit": false,
      "t": 54448.530037500226,
      "d": 126.48779166666645,
      "v": 93
    },
    {
      "midi": 48,
      "hit": false,
      "t": 54450.76217500023,
      "d": 121.27947083333129,
      "v": 84
    },
    {
      "midi": 36,
      "hit": false,
      "t": 54452.250266666895,
      "d": 122.76756249999744,
      "v": 84
    },
    {
      "midi": 69,
      "hit": false,
      "t": 54462.66690833356,
      "d": 113.0949666666711,
      "v": 93
    },
    {
      "midi": 84,
      "hit": false,
      "t": 54621.892716666895,
      "d": 127.23183750001044,
      "v": 93
    },
    {
      "midi": 57,
      "hit": false,
      "t": 54622.63676250023,
      "d": 45.38679583333578,
      "v": 75
    },
    {
      "midi": 72,
      "hit": false,
      "t": 54623.38080833357,
      "d": 125.74374583333702,
      "v": 93
    },
    {
      "midi": 89,
      "hit": false,
      "t": 54627.10103750024,
      "d": 200.14832916666637,
      "v": 93
    },
    {
      "midi": 77,
      "hit": false,
      "t": 54631.565312500235,
      "d": 198.66023750000022,
      "v": 93
    },
    {
      "midi": 63,
      "hit": false,
      "t": 54636.029587500234,
      "d": 34.226108333336015,
      "v": 75
    },
    {
      "midi": 53,
      "hit": false,
      "t": 54637.5176791669,
      "d": 34.226108333336015,
      "v": 75
    },
    {
      "midi": 53,
      "hit": false,
      "t": 54798.2315791669,
      "d": 139.13657083333237,
      "v": 84
    },
    {
      "midi": 84,
      "hit": false,
      "t": 54800.463716666905,
      "d": 124.25565416666359,
      "v": 93
    },
    {
      "midi": 72,
      "hit": false,
      "t": 54813.11249583357,
      "d": 113.09496666666382,
      "v": 93
    },
    {
      "midi": 41,
      "hit": false,
      "t": 54813.11249583357,
      "d": 127.23183749999589,
      "v": 84
    },
    {
      "midi": 91,
      "hit": false,
      "t": 54816.0886791669,
      "d": 190.47573333333276,
      "v": 93
    },
    {
      "midi": 79,
      "hit": false,
      "t": 54817.57677083357,
      "d": 192.70787083333562,
      "v": 93
    },
    {
      "midi": 57,
      "hit": false,
      "t": 54970.850212500234,
      "d": 46.87488750000193,
      "v": 75
    },
    {
      "midi": 84,
      "hit": false,
      "t": 54971.59425833357,
      "d": 142.8567999999941,
      "v": 93
    },
    {
      "midi": 63,
      "hit": false,
      "t": 54974.5704416669,
      "d": 46.13084166666522,
      "v": 75
    },
    {
      "midi": 53,
      "hit": false,
      "t": 54977.546625000236,
      "d": 44.64274999999907,
      "v": 75
    },
    {
      "midi": 72,
      "hit": false,
      "t": 54988.707312500235,
      "d": 127.9758833333326,
      "v": 93
    },
    {
      "midi": 92,
      "hit": false,
      "t": 54995.40372500024,
      "d": 198.66023749999295,
      "v": 93
    },
    {
      "midi": 80,
      "hit": false,
      "t": 54996.8918166669,
      "d": 197.1721458333268,
      "v": 93
    },
    {
      "midi": 84,
      "hit": false,
      "t": 55164.3021291669,
      "d": 124.25565416666359,
      "v": 93
    },
    {
      "midi": 48,
      "hit": false,
      "t": 55164.3021291669,
      "d": 127.23183749999589,
      "v": 84
    },
    {
      "midi": 60,
      "hit": false,
      "t": 55178.43900000023,
      "d": 115.32710416666669,
      "v": 84
    },
    {
      "midi": 72,
      "hit": false,
      "t": 55180.671137500234,
      "d": 111.60687499999767,
      "v": 93
    },
    {
      "midi": 36,
      "hit": false,
      "t": 55183.64732083357,
      "d": 113.0949666666711,
      "v": 84
    },
    {
      "midi": 93,
      "hit": false,
      "t": 55186.6235041669,
      "d": 107.14259999999922,
      "v": 93
    },
    {
      "midi": 81,
      "hit": false,
      "t": 55189.59968750023,
      "d": 106.39855416666978,
      "v": 93
    },
    {
      "midi": 63,
      "hit": false,
      "t": 55336.1767166669,
      "d": 46.87488750000193,
      "v": 75
    },
    {
      "midi": 57,
      "hit": false,
      "t": 55340.6409916669,
      "d": 45.38679583333578,
      "v": 75
    },
    {
      "midi": 53,
      "hit": false,
      "t": 55344.36122083357,
      "d": 122.76756249999744,
      "v": 84
    },
    {
      "midi": 41,
      "hit": false,
      "t": 55345.849312500235,
      "d": 132.44015833333106,
      "v": 84
    },
    {
      "midi": 55,
      "hit": false,
      "t": 55511.771533333565,
      "d": 145.08893749999697,
      "v": 84
    },
    {
      "midi": 43,
      "hit": false,
      "t": 55525.9084041669,
      "d": 145.8329833333337,
      "v": 84
    },
    {
      "midi": 60,
      "hit": false,
      "t": 55687.36635000023,
      "d": 143.6008458333381,
      "v": 93
    },
    {
      "midi": 72,
      "hit": false,
      "t": 55687.36635000023,
      "d": 145.08893750000425,
      "v": 93
    },
    {
      "midi": 63,
      "hit": false,
      "t": 55690.34253333356,
      "d": 43.154658333340194,
      "v": 75
    },
    {
      "midi": 69,
      "hit": false,
      "t": 55690.34253333356,
      "d": 142.11275416667195,
      "v": 93
    },
    {
      "midi": 53,
      "hit": false,
      "t": 55695.5508541669,
      "d": 40.92252083333733,
      "v": 75
    },
    {
      "midi": 57,
      "hit": false,
      "t": 55697.7829916669,
      "d": 135.41634166667063,
      "v": 84
    },
    {
      "midi": 45,
      "hit": false,
      "t": 55700.75917500023,
      "d": 136.16038750000735,
      "v": 84
    },
    {
      "midi": 58,
      "hit": false,
      "t": 55879.33017500024,
      "d": 126.48779166667373,
      "v": 93
    },
    {
      "midi": 46,
      "hit": false,
      "t": 55881.562312500246,
      "d": 124.25565416667087,
      "v": 84
    },
    {
      "midi": 70,
      "hit": false,
      "t": 55881.562312500246,
      "d": 125.74374583333702,
      "v": 93
    },
    {
      "midi": 65,
      "hit": false,
      "t": 55885.282541666915,
      "d": 122.023516666668,
      "v": 93
    },
    {
      "midi": 58,
      "hit": false,
      "t": 56052.69285416692,
      "d": 128.7199291666766,
      "v": 93
    },
    {
      "midi": 70,
      "hit": false,
      "t": 56054.180945833585,
      "d": 126.48779166667373,
      "v": 93
    },
    {
      "midi": 62,
      "hit": false,
      "t": 56057.901175000254,
      "d": 42.41061250000348,
      "v": 75
    },
    {
      "midi": 65,
      "hit": false,
      "t": 56058.64522083359,
      "d": 124.99970000000758,
      "v": 93
    },
    {
      "midi": 53,
      "hit": false,
      "t": 56060.13331250026,
      "d": 42.41061250000348,
      "v": 75
    },
    {
      "midi": 62,
      "hit": false,
      "t": 56229.77576250026,
      "d": 124.99970000000758,
      "v": 93
    },
    {
      "midi": 74,
      "hit": false,
      "t": 56231.26385416693,
      "d": 126.48779166667373,
      "v": 93
    },
    {
      "midi": 50,
      "hit": false,
      "t": 56233.49599166693,
      "d": 137.6484791666735,
      "v": 84
    },
    {
      "midi": 70,
      "hit": false,
      "t": 56234.24003750027,
      "d": 125.74374583333702,
      "v": 93
    },
    {
      "midi": 38,
      "hit": false,
      "t": 56236.47217500027,
      "d": 137.64847916666622,
      "v": 84
    },
    {
      "midi": 65,
      "hit": false,
      "t": 56405.370579166934,
      "d": 140.6246625000058,
      "v": 93
    },
    {
      "midi": 58,
      "hit": false,
      "t": 56406.11462500027,
      "d": 43.89870416666963,
      "v": 75
    },
    {
      "midi": 77,
      "hit": false,
      "t": 56406.11462500027,
      "d": 140.6246625000058,
      "v": 93
    },
    {
      "midi": 70,
      "hit": false,
      "t": 56406.11462500027,
      "d": 144.3448916666748,
      "v": 93
    },
    {
      "midi": 62,
      "hit": false,
      "t": 56409.0908083336,
      "d": 43.89870416666963,
      "v": 75
    },
    {
      "midi": 53,
      "hit": false,
      "t": 56412.81103750027,
      "d": 41.66656666666677,
      "v": 75
    },
    {
      "midi": 70,
      "hit": false,
      "t": 56593.61417500028,
      "d": 305.0587916666773,
      "v": 93
    },
    {
      "midi": 82,
      "hit": false,
      "t": 56595.102266666945,
      "d": 303.57070000001113,
      "v": 93
    },
    {
      "midi": 53,
      "hit": false,
      "t": 56596.59035833361,
      "d": 124.25565416667087,
      "v": 84
    },
    {
      "midi": 74,
      "hit": false,
      "t": 56598.07845000028,
      "d": 319.93970833334606,
      "v": 93
    },
    {
      "midi": 41,
      "hit": false,
      "t": 56603.28677083361,
      "d": 121.27947083333856,
      "v": 84
    },
    {
      "midi": 58,
      "hit": false,
      "t": 56769.95303750029,
      "d": 46.87488750000193,
      "v": 75
    },
    {
      "midi": 62,
      "hit": false,
      "t": 56784.08990833362,
      "d": 35.714200000002165,
      "v": 75
    },
    {
      "midi": 56,
      "hit": false,
      "t": 56787.81013750029,
      "d": 33.4820624999993,
      "v": 75
    },
    {
      "midi": 69,
      "hit": false,
      "t": 56944.05976250029,
      "d": 200.14832916668092,
      "v": 93
    },
    {
      "midi": 58,
      "hit": false,
      "t": 56947.035945833624,
      "d": 143.60084583334537,
      "v": 84
    },
    {
      "midi": 81,
      "hit": false,
      "t": 56947.77999166696,
      "d": 187.49955000000773,
      "v": 93
    },
    {
      "midi": 77,
      "hit": false,
      "t": 56948.5240375003,
      "d": 190.47573333334003,
      "v": 93
    },
    {
      "midi": 46,
      "hit": false,
      "t": 56952.24426666697,
      "d": 151.78535000000556,
      "v": 84
    },
    {
      "midi": 58,
      "hit": false,
      "t": 57119.65457916697,
      "d": 48.36297916666808,
      "v": 75
    },
    {
      "midi": 62,
      "hit": false,
      "t": 57136.767633333635,
      "d": 47.618933333338646,
      "v": 75
    },
    {
      "midi": 56,
      "hit": false,
      "t": 57136.767633333635,
      "d": 50.59511666667095,
      "v": 75
    },
    {
      "midi": 82,
      "hit": false,
      "t": 57188.10679583364,
      "d": 76.63672083333222,
      "v": 93
    },
    {
      "midi": 70,
      "hit": false,
      "t": 57191.082979166975,
      "d": 72.17244583333377,
      "v": 93
    },
    {
      "midi": 77,
      "hit": false,
      "t": 57198.523437500306,
      "d": 66.22007916666917,
      "v": 93
    },
    {
      "midi": 72,
      "hit": false,
      "t": 57310.87435833364,
      "d": 125.74374583332974,
      "v": 93
    },
    {
      "midi": 84,
      "hit": false,
      "t": 57312.362450000306,
      "d": 126.48779166666645,
      "v": 93
    },
    {
      "midi": 51,
      "hit": false,
      "t": 57315.33863333364,
      "d": 123.51160833333415,
      "v": 84
    },
    {
      "midi": 39,
      "hit": false,
      "t": 57319.80290833364,
      "d": 124.25565416667087,
      "v": 84
    },
    {
      "midi": 75,
      "hit": false,
      "t": 57329.47550416697,
      "d": 111.60687500000495,
      "v": 93
    },
    {
      "midi": 70,
      "hit": false,
      "t": 57486.46917500031,
      "d": 126.48779166667373,
      "v": 93
    },
    {
      "midi": 82,
      "hit": false,
      "t": 57489.44535833364,
      "d": 126.48779166667373,
      "v": 93
    },
    {
      "midi": 75,
      "hit": false,
      "t": 57489.44535833364,
      "d": 127.23183750001044,
      "v": 93
    },
    {
      "midi": 58,
      "hit": false,
      "t": 57490.93345000031,
      "d": 41.66656666667404,
      "v": 75
    },
    {
      "midi": 63,
      "hit": false,
      "t": 57491.67749583365,
      "d": 42.41061250000348,
      "v": 75
    },
    {
      "midi": 55,
      "hit": false,
      "t": 57495.397725000315,
      "d": 42.41061250000348,
      "v": 75
    },
    {
      "midi": 69,
      "hit": false,
      "t": 57663.552083333656,
      "d": 126.48779166667373,
      "v": 93
    },
    {
      "midi": 81,
      "hit": false,
      "t": 57664.29612916699,
      "d": 125.74374583333702,
      "v": 93
    },
    {
      "midi": 53,
      "hit": false,
      "t": 57678.433000000325,
      "d": 125.74374583333702,
      "v": 84
    },
    {
      "midi": 75,
      "hit": false,
      "t": 57679.17704583366,
      "d": 110.86282916666823,
      "v": 93
    },
    {
      "midi": 41,
      "hit": false,
      "t": 57680.66513750033,
      "d": 126.48779166666645,
      "v": 84
    },
    {
      "midi": 70,
      "hit": false,
      "t": 57837.65880833366,
      "d": 140.62466250001307,
      "v": 93
    },
    {
      "midi": 58,
      "hit": false,
      "t": 57839.14690000033,
      "d": 43.89870416667691,
      "v": 75
    },
    {
      "midi": 82,
      "hit": false,
      "t": 57839.14690000033,
      "d": 140.62466250001307,
      "v": 93
    },
    {
      "midi": 75,
      "hit": false,
      "t": 57841.37903750033,
      "d": 140.62466250001307,
      "v": 93
    },
    {
      "midi": 63,
      "hit": false,
      "t": 57845.099266667,
      "d": 40.92252083333733,
      "v": 75
    },
    {
      "midi": 55,
      "hit": false,
      "t": 57845.843312500336,
      "d": 43.89870416666963,
      "v": 75
    },
    {
      "midi": 67,
      "hit": false,
      "t": 58027.39049583368,
      "d": 303.57070000001113,
      "v": 93
    },
    {
      "midi": 79,
      "hit": false,
      "t": 58028.134541667016,
      "d": 304.31474583334057,
      "v": 93
    },
    {
      "midi": 54,
      "hit": false,
      "t": 58031.854770833685,
      "d": 127.9758833333326,
      "v": 84
    },
    {
      "midi": 75,
      "hit": false,
      "t": 58031.854770833685,
      "d": 314.7313875000036,
      "v": 93
    },
    {
      "midi": 42,
      "hit": false,
      "t": 58034.08690833369,
      "d": 125.74374583332974,
      "v": 84
    },
    {
      "midi": 58,
      "hit": false,
      "t": 58204.473404167016,
      "d": 46.130841666672495,
      "v": 75
    },
    {
      "midi": 63,
      "hit": false,
      "t": 58217.86622916702,
      "d": 32.738016666669864,
      "v": 75
    },
    {
      "midi": 55,
      "hit": false,
      "t": 58220.09836666702,
      "d": 34.97015416666545,
      "v": 75
    },
    {
      "midi": 55,
      "hit": false,
      "t": 58379.32417500036,
      "d": 142.11275416667195,
      "v": 84
    },
    {
      "midi": 43,
      "hit": false,
      "t": 58392.71700000036,
      "d": 142.11275416667195,
      "v": 84
    },
    {
      "midi": 78,
      "hit": false,
      "t": 58554.1749458337,
      "d": 143.60084583334537,
      "v": 93
    },
    {
      "midi": 75,
      "hit": false,
      "t": 58554.91899166704,
      "d": 140.6246625000058,
      "v": 93
    },
    {
      "midi": 70,
      "hit": false,
      "t": 58555.66303750037,
      "d": 144.3448916666748,
      "v": 93
    },
    {
      "midi": 66,
      "hit": false,
      "t": 58556.40708333371,
      "d": 140.62466249999852,
      "v": 93
    },
    {
      "midi": 58,
      "hit": false,
      "t": 58557.895175000376,
      "d": 43.15465833333292,
      "v": 75
    },
    {
      "midi": 63,
      "hit": false,
      "t": 58559.38326666704,
      "d": 41.66656666666677,
      "v": 75
    },
    {
      "midi": 55,
      "hit": false,
      "t": 58562.359450000375,
      "d": 43.89870416666963,
      "v": 75
    },
    {
      "midi": 67,
      "hit": false,
      "t": 58743.16258750038,
      "d": 305.05879166667,
      "v": 93
    },
    {
      "midi": 51,
      "hit": false,
      "t": 58746.13877083371,
      "d": 125.74374583333702,
      "v": 84
    },
    {
      "midi": 70,
      "hit": false,
      "t": 58746.13877083371,
      "d": 302.0826083333377,
      "v": 93
    },
    {
      "midi": 79,
      "hit": false,
      "t": 58748.370908333716,
      "d": 299.85047083333484,
      "v": 93
    },
    {
      "midi": 75,
      "hit": false,
      "t": 58751.34709166705,
      "d": 302.82665416666714,
      "v": 93
    },
    {
      "midi": 39,
      "hit": false,
      "t": 58752.835183333715,
      "d": 121.27947083333856,
      "v": 84
    },
    {
      "midi": 60,
      "hit": false,
      "t": 58921.733587500385,
      "d": 43.15465833333292,
      "v": 75
    },
    {
      "midi": 63,
      "hit": false,
      "t": 58926.19786250038,
      "d": 41.66656666666677,
      "v": 75
    },
    {
      "midi": 55,
      "hit": false,
      "t": 58928.430000000386,
      "d": 42.410612499996205,
      "v": 75
    },
    {
      "midi": 68,
      "hit": false,
      "t": 59096.58435833372,
      "d": 315.47543333334033,
      "v": 93
    },
    {
      "midi": 71,
      "hit": false,
      "t": 59098.81649583372,
      "d": 313.9873416666742,
      "v": 93
    },
    {
      "midi": 52,
      "hit": false,
      "t": 59101.048633333725,
      "d": 137.64847916666622,
      "v": 84
    },
    {
      "midi": 40,
      "hit": false,
      "t": 59105.51290833372,
      "d": 133.18420416666777,
      "v": 84
    },
    {
      "midi": 80,
      "hit": false,
      "t": 59105.51290833372,
      "d": 310.26711250000517,
      "v": 93
    },
    {
      "midi": 76,
      "hit": false,
      "t": 59107.745045833726,
      "d": 311.0111583333346,
      "v": 93
    },
    {
      "midi": 59,
      "hit": false,
      "t": 59269.94703750039,
      "d": 46.87488750000193,
      "v": 75
    },
    {
      "midi": 64,
      "hit": false,
      "t": 59286.31604583372,
      "d": 30.505879166667,
      "v": 75
    },
    {
      "midi": 56,
      "hit": false,
      "t": 59291.52436666706,
      "d": 29.01778750000085,
      "v": 75
    },
    {
      "midi": 69,
      "hit": false,
      "t": 59460.42277083373,
      "d": 126.487791666681,
      "v": 93
    },
    {
      "midi": 72,
      "hit": false,
      "t": 59460.42277083373,
      "d": 130.20802083335002,
      "v": 93
    },
    {
      "midi": 53,
      "hit": false,
      "t": 59462.65490833373,
      "d": 124.25565416667814,
      "v": 84
    },
    {
      "midi": 81,
      "hit": false,
      "t": 59463.39895416707,
      "d": 127.97588333334716,
      "v": 93
    },
    {
      "midi": 77,
      "hit": false,
      "t": 59467.119183333736,
      "d": 127.23183750001772,
      "v": 93
    },
    {
      "midi": 41,
      "hit": false,
      "t": 59469.35132083374,
      "d": 122.76756250001199,
      "v": 84
    },
    {
      "midi": 65,
      "hit": false,
      "t": 59634.529495833754,
      "d": 404.76093333333847,
      "v": 93
    },
    {
      "midi": 72,
      "hit": false,
      "t": 59636.01758750042,
      "d": 404.76093333333847,
      "v": 93
    },
    {
      "midi": 57,
      "hit": false,
      "t": 59638.24972500042,
      "d": 46.87488750000193,
      "v": 75
    },
    {
      "midi": 77,
      "hit": false,
      "t": 59638.99377083376,
      "d": 404.7609333333312,
      "v": 93
    },
    {
      "midi": 60,
      "hit": false,
      "t": 59641.22590833376,
      "d": 44.64274999999907,
      "v": 75
    },
    {
      "midi": 69,
      "hit": false,
      "t": 59642.71400000043,
      "d": 385.41574166666396,
      "v": 93
    },
    {
      "midi": 63,
      "hit": false,
      "t": 59647.17827500043,
      "d": 41.66656666666677,
      "v": 75
    },
    {
      "midi": 53,
      "hit": false,
      "t": 59650.15445833376,
      "d": 38.690383333334466,
      "v": 75
    },
    {
      "midi": 48,
      "hit": false,
      "t": 59810.86835833376,
      "d": 146.57702916666312,
      "v": 84
    },
    {
      "midi": 36,
      "hit": false,
      "t": 59825.005229167095,
      "d": 144.34489166666754,
      "v": 84
    },
    {
      "midi": 57,
      "hit": false,
      "t": 59986.46317500043,
      "d": 46.13084166666522,
      "v": 75
    },
    {
      "midi": 60,
      "hit": false,
      "t": 60000.60004583376,
      "d": 51.339162500000384,
      "v": 75
    },
    {
      "midi": 63,
      "hit": false,
      "t": 60003.57622916709,
      "d": 49.107025000004796,
      "v": 75
    },
    {
      "midi": 53,
      "hit": false,
      "t": 60005.808366667094,
      "d": 52.0832083333371,
      "v": 75
    },
    {
      "midi": 67,
      "hit": false,
      "t": 60178.42700000043,
      "d": 124.99970000000758,
      "v": 93
    },
    {
      "midi": 75,
      "hit": false,
      "t": 60179.9150916671,
      "d": 123.51160833334143,
      "v": 93
    },
    {
      "midi": 51,
      "hit": false,
      "t": 60181.403183333765,
      "d": 122.76756250001199,
      "v": 84
    },
    {
      "midi": 39,
      "hit": false,
      "t": 60183.63532083377,
      "d": 124.25565416667814,
      "v": 84
    },
    {
      "midi": 79,
      "hit": false,
      "t": 60193.3079166671,
      "d": 112.35092083334166,
      "v": 93
    },
    {
      "midi": 72,
      "hit": false,
      "t": 60197.02814583377,
      "d": 113.83901250000781,
      "v": 93
    },
    {
      "midi": 75,
      "hit": false,
      "t": 60353.27777083378,
      "d": 126.48779166668828,
      "v": 93
    },
    {
      "midi": 67,
      "hit": false,
      "t": 60354.02181666712,
      "d": 123.5116083333487,
      "v": 93
    },
    {
      "midi": 60,
      "hit": false,
      "t": 60354.765862500455,
      "d": 43.89870416667691,
      "v": 75
    },
    {
      "midi": 79,
      "hit": false,
      "t": 60356.99800000046,
      "d": 122.76756250001199,
      "v": 93
    },
    {
      "midi": 63,
      "hit": false,
      "t": 60357.742045833795,
      "d": 43.89870416666963,
      "v": 75
    },
    {
      "midi": 72,
      "hit": false,
      "t": 60359.9741833338,
      "d": 126.48779166667373,
      "v": 93
    },
    {
      "midi": 55,
      "hit": false,
      "t": 60361.462275000464,
      "d": 41.66656666666677,
      "v": 75
    },
    {
      "midi": 68,
      "hit": false,
      "t": 60531.10472500047,
      "d": 122.76756250000471,
      "v": 93
    },
    {
      "midi": 76,
      "hit": false,
      "t": 60531.84877083381,
      "d": 123.51160833333415,
      "v": 93
    },
    {
      "midi": 52,
      "hit": false,
      "t": 60542.26541250047,
      "d": 129.46397500000603,
      "v": 84
    },
    {
      "midi": 80,
      "hit": false,
      "t": 60543.753504167136,
      "d": 113.0949666666711,
      "v": 93
    },
    {
      "midi": 73,
      "hit": false,
      "t": 60545.2415958338,
      "d": 114.58305833333725,
      "v": 93
    },
    {
      "midi": 40,
      "hit": false,
      "t": 60547.473733333805,
      "d": 124.25565416667087,
      "v": 84
    },
    {
      "midi": 68,
      "hit": false,
      "t": 60702.97931250047,
      "d": 142.11275416666467,
      "v": 93
    },
    {
      "midi": 76,
      "hit": false,
      "t": 60704.46740416714,
      "d": 141.36870833333523,
      "v": 93
    },
    {
      "midi": 59,
      "hit": false,
      "t": 60705.211450000475,
      "d": 45.386795833328506,
      "v": 75
    },
    {
      "midi": 80,
      "hit": false,
      "t": 60705.211450000475,
      "d": 144.34489166666754,
      "v": 93
    },
    {
      "midi": 64,
      "hit": false,
      "t": 60708.18763333381,
      "d": 42.410612499996205,
      "v": 75
    },
    {
      "midi": 73,
      "hit": false,
      "t": 60711.16381666714,
      "d": 139.13657083333965,
      "v": 93
    },
    {
      "midi": 56,
      "hit": false,
      "t": 60714.14000000047,
      "d": 40.17847500000062,
      "v": 75
    },
    {
      "midi": 69,
      "hit": false,
      "t": 60892.71100000048,
      "d": 130.95206666667218,
      "v": 93
    },
    {
      "midi": 77,
      "hit": false,
      "t": 60894.19909166715,
      "d": 128.71992916666932,
      "v": 93
    },
    {
      "midi": 53,
      "hit": false,
      "t": 60896.43122916715,
      "d": 129.46397500000603,
      "v": 84
    },
    {
      "midi": 81,
      "hit": false,
      "t": 60897.17527500049,
      "d": 125.74374583332974,
      "v": 93
    },
    {
      "midi": 74,
      "hit": false,
      "t": 60901.63955000049,
      "d": 123.51160833333415,
      "v": 93
    },
    {
      "midi": 41,
      "hit": false,
      "t": 60901.63955000049,
      "d": 126.48779166667373,
      "v": 84
    },
    {
      "midi": 65,
      "hit": false,
      "t": 61068.30581666716,
      "d": 404.76093333337485,
      "v": 93
    },
    {
      "midi": 75,
      "hit": false,
      "t": 61069.0498625005,
      "d": 404.76093333337485,
      "v": 93
    },
    {
      "midi": 57,
      "hit": false,
      "t": 61072.77009166717,
      "d": 43.154658333340194,
      "v": 75
    },
    {
      "midi": 77,
      "hit": false,
      "t": 61074.25818333383,
      "d": 395.0883375000267,
      "v": 93
    },
    {
      "midi": 60,
      "hit": false,
      "t": 61075.00222916717,
      "d": 43.89870416666963,
      "v": 75
    },
    {
      "midi": 69,
      "hit": false,
      "t": 61075.74627500051,
      "d": 395.0883375000267,
      "v": 93
    },
    {
      "midi": 63,
      "hit": false,
      "t": 61078.72245833384,
      "d": 43.89870416666963,
      "v": 75
    },
    {
      "midi": 53,
      "hit": false,
      "t": 61083.930779167174,
      "d": 40.92252083333733,
      "v": 75
    },
    {
      "midi": 48,
      "hit": false,
      "t": 61243.90063333385,
      "d": 144.34489166666754,
      "v": 84
    },
    {
      "midi": 36,
      "hit": false,
      "t": 61258.781550000516,
      "d": 144.34489166666754,
      "v": 84
    },
    {
      "midi": 57,
      "hit": false,
      "t": 61419.49545000052,
      "d": 47.618933333338646,
      "v": 75
    },
    {
      "midi": 60,
      "hit": false,
      "t": 61433.63232083385,
      "d": 33.48206250000658,
      "v": 75
    },
    {
      "midi": 63,
      "hit": false,
      "t": 61437.35255000052,
      "d": 32.73801666667714,
      "v": 75
    },
    {
      "midi": 53,
      "hit": false,
      "t": 61441.07277916719,
      "d": 31.993970833347703,
      "v": 75
    },
    {
      "midi": 79,
      "hit": false,
      "t": 61611.45927500054,
      "d": 125.74374583333702,
      "v": 93
    },
    {
      "midi": 78,
      "hit": false,
      "t": 61612.203320833876,
      "d": 123.51160833333415,
      "v": 93
    },
    {
      "midi": 78,
      "hit": false,
      "t": 61784.07790833388,
      "d": 128.71992916666204,
      "v": 93
    },
    {
      "midi": 79,
      "hit": false,
      "t": 61787.05409166721,
      "d": 130.9520666666649,
      "v": 93
    },
    {
      "midi": 79,
      "hit": false,
      "t": 61964.13700000054,
      "d": 315.47543333333306,
      "v": 93
    },
    {
      "midi": 80,
      "hit": false,
      "t": 61967.11318333387,
      "d": 311.75520416666404,
      "v": 93
    },
    {
      "midi": 81,
      "hit": false,
      "t": 62327.231366667205,
      "d": 126.48779166667373,
      "v": 93
    },
    {
      "midi": 80,
      "hit": false,
      "t": 62327.97541250054,
      "d": 124.9997000000003,
      "v": 93
    },
    {
      "midi": 77,
      "hit": false,
      "t": 62501.33809166721,
      "d": 385.41574166666396,
      "v": 93
    },
    {
      "midi": 76,
      "hit": false,
      "t": 62501.33809166721,
      "d": 395.0883374999976,
      "v": 93
    },
    {
      "midi": 67,
      "hit": false,
      "t": 63043.00345833387,
      "d": 301.33856250000827,
      "v": 93
    },
    {
      "midi": 76,
      "hit": false,
      "t": 63043.74750416721,
      "d": 300.59451666667155,
      "v": 93
    },
    {
      "midi": 48,
      "hit": false,
      "t": 63045.235595833874,
      "d": 299.1064250000054,
      "v": 84
    },
    {
      "midi": 79,
      "hit": false,
      "t": 63047.46773333388,
      "d": 299.1064250000054,
      "v": 93
    },
    {
      "midi": 60,
      "hit": false,
      "t": 63051.187962500546,
      "d": 299.1064250000054,
      "v": 84
    },
    {
      "midi": 70,
      "hit": false,
      "t": 63051.187962500546,
      "d": 301.33856250000827,
      "v": 93
    },
    {
      "midi": 36,
      "hit": false,
      "t": 63052.67605416721,
      "d": 298.36237916667596,
      "v": 84
    },
    {
      "midi": 68,
      "hit": false,
      "t": 63394.93713750056,
      "d": 316.96352500002104,
      "v": 93
    },
    {
      "midi": 74,
      "hit": false,
      "t": 63395.681183333894,
      "d": 315.4754333333476,
      "v": 93
    },
    {
      "midi": 77,
      "hit": false,
      "t": 63407.58591666723,
      "d": 315.4754333333549,
      "v": 93
    },
    {
      "midi": 80,
      "hit": false,
      "t": 63408.32996250057,
      "d": 305.802837500014,
      "v": 93
    },
    {
      "midi": 48,
      "hit": false,
      "t": 63409.818054167234,
      "d": 302.082608333345,
      "v": 84
    },
    {
      "midi": 70,
      "hit": false,
      "t": 63412.05019166724,
      "d": 305.802837500014,
      "v": 93
    },
    {
      "midi": 60,
      "hit": false,
      "t": 63412.79423750057,
      "d": 302.082608333345,
      "v": 84
    },
    {
      "midi": 36,
      "hit": false,
      "t": 63415.026375000576,
      "d": 303.57070000001113,
      "v": 84
    },
    {
      "midi": 69,
      "hit": false,
      "t": 63758.77555000059,
      "d": 132.44015833333833,
      "v": 93
    },
    {
      "midi": 77,
      "hit": false,
      "t": 63761.75173333392,
      "d": 126.48779166667373,
      "v": 93
    },
    {
      "midi": 75,
      "hit": false,
      "t": 63761.75173333392,
      "d": 126.48779166667373,
      "v": 93
    },
    {
      "midi": 41,
      "hit": false,
      "t": 63761.75173333392,
      "d": 129.46397500000603,
      "v": 84
    },
    {
      "midi": 81,
      "hit": false,
      "t": 63764.72791666725,
      "d": 126.48779166667373,
      "v": 93
    },
    {
      "midi": 72,
      "hit": false,
      "t": 63765.47196250059,
      "d": 127.97588333333988,
      "v": 93
    },
    {
      "midi": 53,
      "hit": false,
      "t": 63766.960054167255,
      "d": 128.7199291666766,
      "v": 84
    },
    {
      "midi": 29,
      "hit": false,
      "t": 63769.19219166726,
      "d": 128.7199291666766,
      "v": 84
    },
    {
      "midi": 74,
      "hit": false,
      "t": 63933.62632083394,
      "d": 494.7904791666806,
      "v": 93
    },
    {
      "midi": 77,
      "hit": false,
      "t": 63935.1144125006,
      "d": 493.30238750001445,
      "v": 93
    },
    {
      "midi": 41,
      "hit": false,
      "t": 63936.60250416727,
      "d": 492.558341666685,
      "v": 84
    },
    {
      "midi": 81,
      "hit": false,
      "t": 63938.090595833935,
      "d": 493.3023875000217,
      "v": 93
    },
    {
      "midi": 53,
      "hit": false,
      "t": 63940.32273333394,
      "d": 493.3023875000217,
      "v": 84
    },
    {
      "midi": 84,
      "hit": false,
      "t": 63941.066779167275,
      "d": 491.8142958333483,
      "v": 93
    },
    {
      "midi": 86,
      "hit": false,
      "t": 63943.29891666728,
      "d": 491.8142958333556,
      "v": 93
    },
    {
      "midi": 29,
      "hit": false,
      "t": 63944.042962500615,
      "d": 490.32620416668215,
      "v": 84
    },
    {
      "midi": 75,
      "hit": false,
      "t": 63946.27510000062,
      "d": 488.838112500016,
      "v": 93
    },
    {
      "midi": 86,
      "hit": false,
      "t": 64476.03573333396,
      "d": 302.0826083333377,
      "v": 93
    },
    {
      "midi": 77,
      "hit": false,
      "t": 64476.03573333396,
      "d": 303.57070000000385,
      "v": 93
    },
    {
      "midi": 46,
      "hit": false,
      "t": 64478.267870833966,
      "d": 302.82665416666714,
      "v": 84
    },
    {
      "midi": 89,
      "hit": false,
      "t": 64479.75596250063,
      "d": 299.85047083333484,
      "v": 93
    },
    {
      "midi": 58,
      "hit": false,
      "t": 64481.2440541673,
      "d": 299.85047083333484,
      "v": 84
    },
    {
      "midi": 82,
      "hit": false,
      "t": 64482.732145833965,
      "d": 299.85047083333484,
      "v": 93
    },
    {
      "midi": 34,
      "hit": false,
      "t": 64483.4761916673,
      "d": 302.0826083333304,
      "v": 84
    },
    {
      "midi": 65,
      "hit": false,
      "t": 65194.03996250063,
      "d": 190.47573333333276,
      "v": 93
    },
    {
      "midi": 75,
      "hit": false,
      "t": 65194.78400833397,
      "d": 190.47573333333276,
      "v": 93
    },
    {
      "midi": 77,
      "hit": false,
      "t": 65194.78400833397,
      "d": 191.96382500000618,
      "v": 93
    },
    {
      "midi": 53,
      "hit": false,
      "t": 65196.272100000635,
      "d": 189.73168750000332,
      "v": 84
    },
    {
      "midi": 41,
      "hit": false,
      "t": 65199.24828333397,
      "d": 186.75550416667102,
      "v": 84
    },
    {
      "midi": 72,
      "hit": false,
      "t": 65200.73637500063,
      "d": 186.7555041666783,
      "v": 93
    },
    {
      "midi": 67,
      "hit": false,
      "t": 65429.902491667315,
      "d": 190.4757333333473,
      "v": 93
    },
    {
      "midi": 75,
      "hit": false,
      "t": 65431.39058333398,
      "d": 189.7316875000106,
      "v": 93
    },
    {
      "midi": 77,
      "hit": false,
      "t": 65432.87867500065,
      "d": 189.73168750001787,
      "v": 93
    },
    {
      "midi": 50,
      "hit": false,
      "t": 65433.622720833984,
      "d": 188.98764166668116,
      "v": 84
    },
    {
      "midi": 79,
      "hit": false,
      "t": 65435.85485833399,
      "d": 189.7316875000106,
      "v": 93
    },
    {
      "midi": 72,
      "hit": false,
      "t": 65438.08699583399,
      "d": 188.9876416666666,
      "v": 93
    },
    {
      "midi": 38,
      "hit": false,
      "t": 65438.83104166733,
      "d": 187.49955000000045,
      "v": 84
    },
    {
      "midi": 77,
      "hit": false,
      "t": 65670.229295834,
      "d": 190.47573333332548,
      "v": 93
    },
    {
      "midi": 69,
      "hit": false,
      "t": 65670.97334166733,
      "d": 190.47573333332548,
      "v": 93
    },
    {
      "midi": 48,
      "hit": false,
      "t": 65673.94952500066,
      "d": 187.49954999999318,
      "v": 84
    },
    {
      "midi": 81,
      "hit": false,
      "t": 65674.69357083399,
      "d": 189.73168749999604,
      "v": 93
    },
    {
      "midi": 72,
      "hit": false,
      "t": 65676.18166250066,
      "d": 188.98764166665205,
      "v": 93
    },
    {
      "midi": 75,
      "hit": false,
      "t": 65676.18166250066,
      "d": 188.98764166665205,
      "v": 93
    },
    {
      "midi": 36,
      "hit": false,
      "t": 65676.92570833399,
      "d": 188.98764166665205,
      "v": 84
    },
    {
      "midi": 74,
      "hit": false,
      "t": 65909.06800833398,
      "d": 300.5945166666788,
      "v": 93
    },
    {
      "midi": 77,
      "hit": false,
      "t": 65910.55610000066,
      "d": 300.5945166666788,
      "v": 93
    },
    {
      "midi": 106,
      "hit": false,
      "t": 65912.04419166733,
      "d": 77.38076666666893,
      "v": 46
    },
    {
      "midi": 82,
      "hit": false,
      "t": 65915.02037500066,
      "d": 299.85047083333484,
      "v": 93
    },
    {
      "midi": 70,
      "hit": false,
      "t": 65917.25251250067,
      "d": 302.0826083333377,
      "v": 93
    },
    {
      "midi": 46,
      "hit": false,
      "t": 65922.460833334,
      "d": 299.1064250000054,
      "v": 84
    },
    {
      "midi": 34,
      "hit": false,
      "t": 65923.20487916733,
      "d": 299.8504708333494,
      "v": 84
    },
    {
      "midi": 101,
      "hit": false,
      "t": 65958.175033334,
      "d": 95.98191250000673,
      "v": 49
    },
    {
      "midi": 98,
      "hit": false,
      "t": 66021.41892916734,
      "d": 96.72595833333617,
      "v": 51
    },
    {
      "midi": 94,
      "hit": false,
      "t": 66087.63900833401,
      "d": 79.61290416665724,
      "v": 54
    },
    {
      "midi": 89,
      "hit": false,
      "t": 66149.39481250067,
      "d": 78.86885833334236,
      "v": 57
    },
    {
      "midi": 86,
      "hit": false,
      "t": 66194.781608334,
      "d": 96.72595833333617,
      "v": 60
    },
    {
      "midi": 82,
      "hit": false,
      "t": 66262.48977916734,
      "d": 95.23786666666274,
      "v": 62
    },
    {
      "midi": 77,
      "hit": false,
      "t": 66325.73367500067,
      "d": 78.86885833334236,
      "v": 65
    },
    {
      "midi": 74,
      "hit": false,
      "t": 66387.48947916734,
      "d": 82.5890875000041,
      "v": 68
    },
    {
      "midi": 70,
      "hit": false,
      "t": 66435.10841250067,
      "d": 95.98191250000673,
      "v": 71
    },
    {
      "midi": 65,
      "hit": false,
      "t": 66499.84040000068,
      "d": 95.23786666666274,
      "v": 74
    },
    {
      "midi": 62,
      "hit": false,
      "t": 66564.57238750068,
      "d": 81.10099583334522,
      "v": 76
    },
    {
      "midi": 34,
      "hit": false,
      "t": 66624.84010000069,
      "d": 305.05879166667,
      "v": 93
    },
    {
      "midi": 58,
      "hit": false,
      "t": 66626.32819166736,
      "d": 305.05879166667,
      "v": 93
    },
    {
      "midi": 46,
      "hit": false,
      "t": 66644.18529166735,
      "d": 299.8504708333494,
      "v": 93
    },
    {
      "midi": 22,
      "hit": false,
      "t": 66647.90552083403,
      "d": 297.6183333333465,
      "v": 93
    }
  ]
}