{
  "jsonPath": "Latin/Tejano/Eddie Gonzalez/muchacha-triste-eddie-version.json",
  "path": "Latin\\Tejano\\Eddie Gonzalez\\Muchacha Triste (Eddie Version).mid",
  "name": "Muchacha Triste (Eddie Version)",
  "difficulty": "Advanced",
  "bpm": 122.0000691333725,
  "notes": [
    {
      "midi": 81,
      "hit": false,
      "t": 2950.818,
      "d": 120.38927604166656,
      "v": 66
    },
    {
      "midi": 85,
      "hit": false,
      "t": 3073.76875,
      "d": 120.38927604166656,
      "v": 66
    },
    {
      "midi": 88,
      "hit": false,
      "t": 3196.7195,
      "d": 120.38927604166656,
      "v": 66
    },
    {
      "midi": 93,
      "hit": false,
      "t": 3319.67025,
      "d": 120.38927604166656,
      "v": 66
    },
    {
      "midi": 97,
      "hit": false,
      "t": 3442.621,
      "d": 120.38927604166656,
      "v": 66
    },
    {
      "midi": 100,
      "hit": false,
      "t": 3565.57175,
      "d": 120.38927604166656,
      "v": 66
    },
    {
      "midi": 69,
      "hit": false,
      "t": 3934.424,
      "d": 371.4137239583333,
      "v": 66
    },
    {
      "midi": 93,
      "hit": false,
      "t": 3934.424,
      "d": 371.4137239583333,
      "v": 66
    },
    {
      "midi": 50,
      "hit": false,
      "t": 4180.3255,
      "d": 74.28274479166703,
      "v": 117
    },
    {
      "midi": 54,
      "hit": false,
      "t": 4180.3255,
      "d": 79.40569270833385,
      "v": 117
    },
    {
      "midi": 57,
      "hit": false,
      "t": 4180.3255,
      "d": 97.3360104166668,
      "v": 117
    },
    {
      "midi": 67,
      "hit": false,
      "t": 4426.227,
      "d": 338.1145624999999,
      "v": 66
    },
    {
      "midi": 91,
      "hit": false,
      "t": 4426.227,
      "d": 338.1145624999999,
      "v": 66
    },
    {
      "midi": 57,
      "hit": false,
      "t": 4672.1285,
      "d": 76.84421875000044,
      "v": 117
    },
    {
      "midi": 50,
      "hit": false,
      "t": 4672.1285,
      "d": 89.65158854166748,
      "v": 117
    },
    {
      "midi": 54,
      "hit": false,
      "t": 4672.1285,
      "d": 92.21306250000089,
      "v": 117
    },
    {
      "midi": 66,
      "hit": false,
      "t": 4918.03,
      "d": 184.42612499999996,
      "v": 66
    },
    {
      "midi": 90,
      "hit": false,
      "t": 4918.03,
      "d": 184.42612499999996,
      "v": 66
    },
    {
      "midi": 67,
      "hit": false,
      "t": 5163.9315,
      "d": 192.11054687500018,
      "v": 66
    },
    {
      "midi": 91,
      "hit": false,
      "t": 5163.9315,
      "d": 192.11054687500018,
      "v": 66
    },
    {
      "midi": 50,
      "hit": false,
      "t": 5163.931500000001,
      "d": 94.77453645833339,
      "v": 117
    },
    {
      "midi": 57,
      "hit": false,
      "t": 5163.931500000001,
      "d": 97.3360104166668,
      "v": 117
    },
    {
      "midi": 54,
      "hit": false,
      "t": 5163.931500000001,
      "d": 99.8974843750002,
      "v": 117
    },
    {
      "midi": 69,
      "hit": false,
      "t": 5409.833,
      "d": 140.88106770833292,
      "v": 66
    },
    {
      "midi": 93,
      "hit": false,
      "t": 5409.833,
      "d": 140.88106770833292,
      "v": 66
    },
    {
      "midi": 69,
      "hit": false,
      "t": 5655.7345,
      "d": 379.09814583333355,
      "v": 66
    },
    {
      "midi": 93,
      "hit": false,
      "t": 5655.7345,
      "d": 379.09814583333355,
      "v": 66
    },
    {
      "midi": 50,
      "hit": false,
      "t": 5655.7345000000005,
      "d": 89.65158854166657,
      "v": 117
    },
    {
      "midi": 54,
      "hit": false,
      "t": 5655.7345000000005,
      "d": 92.21306249999998,
      "v": 117
    },
    {
      "midi": 57,
      "hit": false,
      "t": 5655.7345000000005,
      "d": 97.3360104166668,
      "v": 117
    },
    {
      "midi": 73,
      "hit": false,
      "t": 6147.537499999999,
      "d": 353.48340625000037,
      "v": 66
    },
    {
      "midi": 97,
      "hit": false,
      "t": 6147.537499999999,
      "d": 353.48340625000037,
      "v": 66
    },
    {
      "midi": 57,
      "hit": false,
      "t": 6147.5375,
      "d": 97.3360104166668,
      "v": 117
    },
    {
      "midi": 54,
      "hit": false,
      "t": 6147.5375,
      "d": 99.8974843750002,
      "v": 117
    },
    {
      "midi": 61,
      "hit": false,
      "t": 6147.5375,
      "d": 122.95074999999997,
      "v": 117
    },
    {
      "midi": 69,
      "hit": false,
      "t": 6639.3405,
      "d": 330.4301406249997,
      "v": 66
    },
    {
      "midi": 93,
      "hit": false,
      "t": 6639.3405,
      "d": 330.4301406249997,
      "v": 66
    },
    {
      "midi": 57,
      "hit": false,
      "t": 6639.3405,
      "d": 99.8974843750002,
      "v": 117
    },
    {
      "midi": 54,
      "hit": false,
      "t": 6639.3405,
      "d": 102.45895833333361,
      "v": 117
    },
    {
      "midi": 61,
      "hit": false,
      "t": 6639.3405,
      "d": 138.31959375000042,
      "v": 117
    },
    {
      "midi": 66,
      "hit": false,
      "t": 7131.1435,
      "d": 601.9463802083337,
      "v": 66
    },
    {
      "midi": 90,
      "hit": false,
      "t": 7131.1435,
      "d": 601.9463802083337,
      "v": 66
    },
    {
      "midi": 54,
      "hit": false,
      "t": 7131.143500000001,
      "d": 97.3360104166668,
      "v": 117
    },
    {
      "midi": 57,
      "hit": false,
      "t": 7131.143500000001,
      "d": 97.3360104166668,
      "v": 117
    },
    {
      "midi": 61,
      "hit": false,
      "t": 7131.143500000001,
      "d": 128.0736979166668,
      "v": 117
    },
    {
      "midi": 57,
      "hit": false,
      "t": 7622.946500000001,
      "d": 94.77453645833339,
      "v": 117
    },
    {
      "midi": 54,
      "hit": false,
      "t": 7622.946500000001,
      "d": 117.82780208333315,
      "v": 117
    },
    {
      "midi": 61,
      "hit": false,
      "t": 7622.946500000001,
      "d": 140.88106770833292,
      "v": 117
    },
    {
      "midi": 66,
      "hit": false,
      "t": 7868.848000000001,
      "d": 397.0284635416674,
      "v": 66
    },
    {
      "midi": 90,
      "hit": false,
      "t": 7868.848000000001,
      "d": 397.0284635416674,
      "v": 66
    },
    {
      "midi": 55,
      "hit": false,
      "t": 8114.749500000001,
      "d": 79.40569270833385,
      "v": 117
    },
    {
      "midi": 59,
      "hit": false,
      "t": 8114.749500000001,
      "d": 97.3360104166668,
      "v": 117
    },
    {
      "midi": 62,
      "hit": false,
      "t": 8114.749500000001,
      "d": 102.45895833333361,
      "v": 117
    },
    {
      "midi": 64,
      "hit": false,
      "t": 8360.651000000002,
      "d": 345.79898437500015,
      "v": 66
    },
    {
      "midi": 88,
      "hit": false,
      "t": 8360.651000000002,
      "d": 345.79898437500015,
      "v": 66
    },
    {
      "midi": 55,
      "hit": false,
      "t": 8606.552500000002,
      "d": 69.1597968749993,
      "v": 117
    },
    {
      "midi": 62,
      "hit": false,
      "t": 8606.552500000002,
      "d": 92.21306249999907,
      "v": 117
    },
    {
      "midi": 59,
      "hit": false,
      "t": 8606.552500000002,
      "d": 112.70485416666634,
      "v": 117
    },
    {
      "midi": 62,
      "hit": false,
      "t": 8852.454000000002,
      "d": 230.5326562499995,
      "v": 66
    },
    {
      "midi": 86,
      "hit": false,
      "t": 8852.454000000002,
      "d": 230.5326562499995,
      "v": 66
    },
    {
      "midi": 64,
      "hit": false,
      "t": 9098.355500000001,
      "d": 189.54907291666677,
      "v": 66
    },
    {
      "midi": 88,
      "hit": false,
      "t": 9098.355500000001,
      "d": 189.54907291666677,
      "v": 66
    },
    {
      "midi": 55,
      "hit": false,
      "t": 9098.355500000001,
      "d": 97.33601041666589,
      "v": 117
    },
    {
      "midi": 59,
      "hit": false,
      "t": 9098.355500000001,
      "d": 97.33601041666589,
      "v": 117
    },
    {
      "midi": 62,
      "hit": false,
      "t": 9098.355500000001,
      "d": 128.0736979166668,
      "v": 117
    },
    {
      "midi": 66,
      "hit": false,
      "t": 9344.257000000001,
      "d": 166.495807291667,
      "v": 66
    },
    {
      "midi": 90,
      "hit": false,
      "t": 9344.257000000001,
      "d": 166.495807291667,
      "v": 66
    },
    {
      "midi": 66,
      "hit": false,
      "t": 9590.158500000001,
      "d": 448.25794270833285,
      "v": 66
    },
    {
      "midi": 90,
      "hit": false,
      "t": 9590.158500000001,
      "d": 448.25794270833285,
      "v": 66
    },
    {
      "midi": 55,
      "hit": false,
      "t": 9590.158500000001,
      "d": 97.33601041666589,
      "v": 117
    },
    {
      "midi": 59,
      "hit": false,
      "t": 9590.158500000001,
      "d": 97.33601041666589,
      "v": 117
    },
    {
      "midi": 62,
      "hit": false,
      "t": 9590.158500000001,
      "d": 140.88106770833292,
      "v": 117
    },
    {
      "midi": 64,
      "hit": false,
      "t": 10081.961500000001,
      "d": 376.53667187499923,
      "v": 66
    },
    {
      "midi": 88,
      "hit": false,
      "t": 10081.961500000001,
      "d": 376.53667187499923,
      "v": 66
    },
    {
      "midi": 64,
      "hit": false,
      "t": 10081.961500000001,
      "d": 76.84421875000044,
      "v": 117
    },
    {
      "midi": 57,
      "hit": false,
      "t": 10081.961500000001,
      "d": 89.65158854166657,
      "v": 117
    },
    {
      "midi": 61,
      "hit": false,
      "t": 10081.961500000001,
      "d": 120.38927604166747,
      "v": 117
    },
    {
      "midi": 62,
      "hit": false,
      "t": 10573.764500000001,
      "d": 397.0284635416665,
      "v": 66
    },
    {
      "midi": 86,
      "hit": false,
      "t": 10573.764500000001,
      "d": 397.0284635416665,
      "v": 66
    },
    {
      "midi": 57,
      "hit": false,
      "t": 10573.764500000001,
      "d": 87.09011458333407,
      "v": 117
    },
    {
      "midi": 64,
      "hit": false,
      "t": 10573.764500000001,
      "d": 94.77453645833339,
      "v": 117
    },
    {
      "midi": 61,
      "hit": false,
      "t": 10573.764500000001,
      "d": 97.33601041666589,
      "v": 117
    },
    {
      "midi": 64,
      "hit": false,
      "t": 11065.567500000001,
      "d": 404.7128854166658,
      "v": 66
    },
    {
      "midi": 88,
      "hit": false,
      "t": 11065.567500000001,
      "d": 404.7128854166658,
      "v": 66
    },
    {
      "midi": 57,
      "hit": false,
      "t": 11065.567500000001,
      "d": 97.33601041666589,
      "v": 117
    },
    {
      "midi": 64,
      "hit": false,
      "t": 11065.567500000001,
      "d": 97.33601041666589,
      "v": 117
    },
    {
      "midi": 61,
      "hit": false,
      "t": 11065.567500000001,
      "d": 99.89748437499838,
      "v": 117
    },
    {
      "midi": 57,
      "hit": false,
      "t": 11557.370499999999,
      "d": 94.77453645833339,
      "v": 117
    },
    {
      "midi": 64,
      "hit": false,
      "t": 11557.370499999999,
      "d": 97.33601041666589,
      "v": 117
    },
    {
      "midi": 61,
      "hit": false,
      "t": 11557.370499999999,
      "d": 122.95074999999997,
      "v": 117
    },
    {
      "midi": 69,
      "hit": false,
      "t": 11803.272,
      "d": 358.6063541666663,
      "v": 66
    },
    {
      "midi": 93,
      "hit": false,
      "t": 11803.272,
      "d": 358.6063541666663,
      "v": 66
    },
    {
      "midi": 50,
      "hit": false,
      "t": 12049.173499999999,
      "d": 97.33601041666589,
      "v": 117
    },
    {
      "midi": 57,
      "hit": false,
      "t": 12049.173499999999,
      "d": 97.33601041666589,
      "v": 117
    },
    {
      "midi": 54,
      "hit": false,
      "t": 12049.173499999999,
      "d": 99.89748437499838,
      "v": 117
    },
    {
      "midi": 67,
      "hit": false,
      "t": 12295.075,
      "d": 332.991614583334,
      "v": 66
    },
    {
      "midi": 91,
      "hit": false,
      "t": 12295.075,
      "d": 332.991614583334,
      "v": 66
    },
    {
      "midi": 50,
      "hit": false,
      "t": 12540.976499999997,
      "d": 89.65158854166657,
      "v": 117
    },
    {
      "midi": 57,
      "hit": false,
      "t": 12540.976499999997,
      "d": 92.21306249999907,
      "v": 117
    },
    {
      "midi": 54,
      "hit": false,
      "t": 12540.976499999997,
      "d": 94.77453645833157,
      "v": 117
    },
    {
      "midi": 66,
      "hit": false,
      "t": 12786.878,
      "d": 120.38927604166747,
      "v": 66
    },
    {
      "midi": 90,
      "hit": false,
      "t": 12786.878,
      "d": 120.38927604166747,
      "v": 66
    },
    {
      "midi": 50,
      "hit": false,
      "t": 13032.779499999995,
      "d": 74.28274479166612,
      "v": 117
    },
    {
      "midi": 57,
      "hit": false,
      "t": 13032.779499999995,
      "d": 99.8974843750002,
      "v": 117
    },
    {
      "midi": 54,
      "hit": false,
      "t": 13032.779499999995,
      "d": 102.4589583333327,
      "v": 117
    },
    {
      "midi": 67,
      "hit": false,
      "t": 13032.7795,
      "d": 192.11054687499927,
      "v": 66
    },
    {
      "midi": 91,
      "hit": false,
      "t": 13032.7795,
      "d": 192.11054687499927,
      "v": 66
    },
    {
      "midi": 69,
      "hit": false,
      "t": 13278.681,
      "d": 158.81138541666587,
      "v": 66
    },
    {
      "midi": 93,
      "hit": false,
      "t": 13278.681,
      "d": 158.81138541666587,
      "v": 66
    },
    {
      "midi": 50,
      "hit": false,
      "t": 13524.582499999995,
      "d": 97.33601041666589,
      "v": 117
    },
    {
      "midi": 54,
      "hit": false,
      "t": 13524.582499999995,
      "d": 97.33601041666589,
      "v": 117
    },
    {
      "midi": 57,
      "hit": false,
      "t": 13524.582499999995,
      "d": 105.0204322916652,
      "v": 117
    },
    {
      "midi": 69,
      "hit": false,
      "t": 13524.5825,
      "d": 353.48340624999946,
      "v": 66
    },
    {
      "midi": 93,
      "hit": false,
      "t": 13524.5825,
      "d": 353.48340624999946,
      "v": 66
    },
    {
      "midi": 57,
      "hit": false,
      "t": 14016.385499999993,
      "d": 89.65158854166657,
      "v": 117
    },
    {
      "midi": 54,
      "hit": false,
      "t": 14016.385499999993,
      "d": 99.8974843750002,
      "v": 117
    },
    {
      "midi": 61,
      "hit": false,
      "t": 14016.385499999993,
      "d": 130.6351718750011,
      "v": 117
    },
    {
      "midi": 73,
      "hit": false,
      "t": 14016.3855,
      "d": 332.991614583334,
      "v": 66
    },
    {
      "midi": 97,
      "hit": false,
      "t": 14016.3855,
      "d": 332.991614583334,
      "v": 66
    },
    {
      "midi": 54,
      "hit": false,
      "t": 14508.188499999995,
      "d": 76.84421875000044,
      "v": 117
    },
    {
      "midi": 57,
      "hit": false,
      "t": 14508.188499999995,
      "d": 115.26632812500065,
      "v": 117
    },
    {
      "midi": 61,
      "hit": false,
      "t": 14508.188499999995,
      "d": 117.82780208333315,
      "v": 117
    },
    {
      "midi": 69,
      "hit": false,
      "t": 14508.1885,
      "d": 332.991614583334,
      "v": 66
    },
    {
      "midi": 93,
      "hit": false,
      "t": 14508.1885,
      "d": 332.991614583334,
      "v": 66
    },
    {
      "midi": 54,
      "hit": false,
      "t": 14999.991499999995,
      "d": 97.33601041666589,
      "v": 117
    },
    {
      "midi": 57,
      "hit": false,
      "t": 14999.991499999995,
      "d": 115.26632812499884,
      "v": 117
    },
    {
      "midi": 61,
      "hit": false,
      "t": 14999.991499999995,
      "d": 120.38927604166565,
      "v": 117
    },
    {
      "midi": 66,
      "hit": false,
      "t": 14999.9915,
      "d": 571.2086927083328,
      "v": 66
    },
    {
      "midi": 90,
      "hit": false,
      "t": 14999.9915,
      "d": 571.2086927083328,
      "v": 66
    },
    {
      "midi": 54,
      "hit": false,
      "t": 15491.794499999993,
      "d": 76.84421875000044,
      "v": 117
    },
    {
      "midi": 61,
      "hit": false,
      "t": 15491.794499999993,
      "d": 87.09011458333407,
      "v": 117
    },
    {
      "midi": 57,
      "hit": false,
      "t": 15491.794499999993,
      "d": 94.77453645833339,
      "v": 117
    },
    {
      "midi": 66,
      "hit": false,
      "t": 15737.696,
      "d": 402.1514114583333,
      "v": 66
    },
    {
      "midi": 90,
      "hit": false,
      "t": 15737.696,
      "d": 402.1514114583333,
      "v": 66
    },
    {
      "midi": 59,
      "hit": false,
      "t": 15983.597499999993,
      "d": 94.77453645833339,
      "v": 117
    },
    {
      "midi": 55,
      "hit": false,
      "t": 15983.597499999993,
      "d": 97.33601041666589,
      "v": 117
    },
    {
      "midi": 62,
      "hit": false,
      "t": 15983.597499999993,
      "d": 120.38927604166565,
      "v": 117
    },
    {
      "midi": 64,
      "hit": false,
      "t": 16229.499,
      "d": 325.3071927083329,
      "v": 66
    },
    {
      "midi": 88,
      "hit": false,
      "t": 16229.499,
      "d": 325.3071927083329,
      "v": 66
    },
    {
      "midi": 55,
      "hit": false,
      "t": 16475.400499999992,
      "d": 102.4589583333327,
      "v": 117
    },
    {
      "midi": 59,
      "hit": false,
      "t": 16475.400499999992,
      "d": 122.95074999999997,
      "v": 117
    },
    {
      "midi": 62,
      "hit": false,
      "t": 16475.400499999992,
      "d": 128.07369791666497,
      "v": 117
    },
    {
      "midi": 62,
      "hit": false,
      "t": 16721.302,
      "d": 197.2334947916679,
      "v": 66
    },
    {
      "midi": 86,
      "hit": false,
      "t": 16721.302,
      "d": 197.2334947916679,
      "v": 66
    },
    {
      "midi": 55,
      "hit": false,
      "t": 16967.203499999992,
      "d": 97.3360104166677,
      "v": 117
    },
    {
      "midi": 59,
      "hit": false,
      "t": 16967.203499999992,
      "d": 115.26632812500247,
      "v": 117
    },
    {
      "midi": 62,
      "hit": false,
      "t": 16967.203499999992,
      "d": 120.38927604166747,
      "v": 117
    },
    {
      "midi": 64,
      "hit": false,
      "t": 16967.2035,
      "d": 166.495807291667,
      "v": 66
    },
    {
      "midi": 88,
      "hit": false,
      "t": 16967.2035,
      "d": 166.495807291667,
      "v": 66
    },
    {
      "midi": 66,
      "hit": false,
      "t": 17213.105,
      "d": 192.11054687499927,
      "v": 66
    },
    {
      "midi": 90,
      "hit": false,
      "t": 17213.105,
      "d": 192.11054687499927,
      "v": 66
    },
    {
      "midi": 55,
      "hit": false,
      "t": 17459.006499999992,
      "d": 89.65158854166657,
      "v": 117
    },
    {
      "midi": 59,
      "hit": false,
      "t": 17459.006499999992,
      "d": 115.26632812499884,
      "v": 117
    },
    {
      "midi": 62,
      "hit": false,
      "t": 17459.006499999992,
      "d": 140.8810677083311,
      "v": 117
    },
    {
      "midi": 66,
      "hit": false,
      "t": 17459.0065,
      "d": 448.25794270833285,
      "v": 66
    },
    {
      "midi": 90,
      "hit": false,
      "t": 17459.0065,
      "d": 448.25794270833285,
      "v": 66
    },
    {
      "midi": 57,
      "hit": false,
      "t": 17950.80949999999,
      "d": 102.4589583333327,
      "v": 117
    },
    {
      "midi": 64,
      "hit": false,
      "t": 17950.80949999999,
      "d": 135.7581197916661,
      "v": 117
    },
    {
      "midi": 61,
      "hit": false,
      "t": 17950.80949999999,
      "d": 143.44254166666724,
      "v": 117
    },
    {
      "midi": 64,
      "hit": false,
      "t": 17950.8095,
      "d": 443.13499479166785,
      "v": 66
    },
    {
      "midi": 88,
      "hit": false,
      "t": 17950.8095,
      "d": 443.13499479166785,
      "v": 66
    },
    {
      "midi": 57,
      "hit": false,
      "t": 18442.61249999999,
      "d": 143.44254166666724,
      "v": 117
    },
    {
      "midi": 64,
      "hit": false,
      "t": 18442.61249999999,
      "d": 143.44254166666724,
      "v": 117
    },
    {
      "midi": 61,
      "hit": false,
      "t": 18442.61249999999,
      "d": 166.495807291667,
      "v": 117
    },
    {
      "midi": 62,
      "hit": false,
      "t": 18442.6125,
      "d": 455.942364583334,
      "v": 66
    },
    {
      "midi": 86,
      "hit": false,
      "t": 18442.6125,
      "d": 455.942364583334,
      "v": 66
    },
    {
      "midi": 64,
      "hit": false,
      "t": 18934.41549999999,
      "d": 122.95074999999997,
      "v": 117
    },
    {
      "midi": 57,
      "hit": false,
      "t": 18934.41549999999,
      "d": 140.88106770833474,
      "v": 117
    },
    {
      "midi": 61,
      "hit": false,
      "t": 18934.41549999999,
      "d": 146.00401562499974,
      "v": 117
    },
    {
      "midi": 64,
      "hit": false,
      "t": 18934.4155,
      "d": 289.446557291667,
      "v": 66
    },
    {
      "midi": 88,
      "hit": false,
      "t": 18934.4155,
      "d": 289.446557291667,
      "v": 66
    },
    {
      "midi": 57,
      "hit": false,
      "t": 19426.218499999988,
      "d": 81.96716666666543,
      "v": 117
    },
    {
      "midi": 64,
      "hit": false,
      "t": 19426.218499999988,
      "d": 105.0204322916652,
      "v": 117
    },
    {
      "midi": 61,
      "hit": false,
      "t": 19426.218499999988,
      "d": 128.07369791666497,
      "v": 117
    },
    {
      "midi": 50,
      "hit": false,
      "t": 19918.021499999988,
      "d": 74.28274479166794,
      "v": 117
    },
    {
      "midi": 54,
      "hit": false,
      "t": 19918.021499999988,
      "d": 79.40569270833294,
      "v": 117
    },
    {
      "midi": 57,
      "hit": false,
      "t": 19918.021499999988,
      "d": 97.3360104166677,
      "v": 117
    },
    {
      "midi": 57,
      "hit": false,
      "t": 20409.824499999988,
      "d": 76.84421875000044,
      "v": 117
    },
    {
      "midi": 50,
      "hit": false,
      "t": 20409.824499999988,
      "d": 89.65158854166657,
      "v": 117
    },
    {
      "midi": 54,
      "hit": false,
      "t": 20409.824499999988,
      "d": 92.21306249999907,
      "v": 117
    },
    {
      "midi": 50,
      "hit": false,
      "t": 20901.627499999988,
      "d": 94.77453645833157,
      "v": 117
    },
    {
      "midi": 57,
      "hit": false,
      "t": 20901.627499999988,
      "d": 97.33601041666407,
      "v": 117
    },
    {
      "midi": 54,
      "hit": false,
      "t": 20901.627499999988,
      "d": 99.89748437499657,
      "v": 117
    },
    {
      "midi": 50,
      "hit": false,
      "t": 21393.430499999984,
      "d": 89.65158854166657,
      "v": 117
    },
    {
      "midi": 54,
      "hit": false,
      "t": 21393.430499999984,
      "d": 92.21306249999907,
      "v": 117
    },
    {
      "midi": 57,
      "hit": false,
      "t": 21393.430499999984,
      "d": 97.33601041666407,
      "v": 117
    },
    {
      "midi": 57,
      "hit": false,
      "t": 21885.23349999998,
      "d": 97.3360104166677,
      "v": 117
    },
    {
      "midi": 54,
      "hit": false,
      "t": 21885.23349999998,
      "d": 99.8974843750002,
      "v": 117
    },
    {
      "midi": 61,
      "hit": false,
      "t": 21885.23349999998,
      "d": 122.95074999999997,
      "v": 117
    },
    {
      "midi": 57,
      "hit": false,
      "t": 22377.03649999998,
      "d": 99.8974843750002,
      "v": 117
    },
    {
      "midi": 54,
      "hit": false,
      "t": 22377.03649999998,
      "d": 102.4589583333327,
      "v": 117
    },
    {
      "midi": 61,
      "hit": false,
      "t": 22377.03649999998,
      "d": 138.3195937499986,
      "v": 117
    },
    {
      "midi": 54,
      "hit": false,
      "t": 22868.83949999998,
      "d": 97.3360104166677,
      "v": 117
    },
    {
      "midi": 57,
      "hit": false,
      "t": 22868.83949999998,
      "d": 97.3360104166677,
      "v": 117
    },
    {
      "midi": 61,
      "hit": false,
      "t": 22868.83949999998,
      "d": 128.0736979166686,
      "v": 117
    },
    {
      "midi": 57,
      "hit": false,
      "t": 23360.642499999984,
      "d": 94.77453645833157,
      "v": 117
    },
    {
      "midi": 54,
      "hit": false,
      "t": 23360.642499999984,
      "d": 117.82780208333133,
      "v": 117
    },
    {
      "midi": 61,
      "hit": false,
      "t": 23360.642499999984,
      "d": 140.8810677083311,
      "v": 117
    },
    {
      "midi": 55,
      "hit": false,
      "t": 23852.44549999998,
      "d": 79.40569270833294,
      "v": 117
    },
    {
      "midi": 59,
      "hit": false,
      "t": 23852.44549999998,
      "d": 97.3360104166677,
      "v": 117
    },
    {
      "midi": 62,
      "hit": false,
      "t": 23852.44549999998,
      "d": 102.4589583333327,
      "v": 117
    },
    {
      "midi": 55,
      "hit": false,
      "t": 24344.24849999998,
      "d": 69.1597968749993,
      "v": 117
    },
    {
      "midi": 62,
      "hit": false,
      "t": 24344.24849999998,
      "d": 92.21306249999907,
      "v": 117
    },
    {
      "midi": 59,
      "hit": false,
      "t": 24344.24849999998,
      "d": 112.70485416666634,
      "v": 117
    },
    {
      "midi": 55,
      "hit": false,
      "t": 24836.05149999998,
      "d": 97.3360104166677,
      "v": 117
    },
    {
      "midi": 59,
      "hit": false,
      "t": 24836.05149999998,
      "d": 97.3360104166677,
      "v": 117
    },
    {
      "midi": 62,
      "hit": false,
      "t": 24836.05149999998,
      "d": 128.0736979166686,
      "v": 117
    },
    {
      "midi": 55,
      "hit": false,
      "t": 25327.854499999983,
      "d": 97.3360104166677,
      "v": 117
    },
    {
      "midi": 59,
      "hit": false,
      "t": 25327.854499999983,
      "d": 97.3360104166677,
      "v": 117
    },
    {
      "midi": 62,
      "hit": false,
      "t": 25327.854499999983,
      "d": 140.88106770833474,
      "v": 117
    },
    {
      "midi": 64,
      "hit": false,
      "t": 25819.657499999983,
      "d": 76.84421875000044,
      "v": 117
    },
    {
      "midi": 57,
      "hit": false,
      "t": 25819.657499999983,
      "d": 89.65158854166657,
      "v": 117
    },
    {
      "midi": 61,
      "hit": false,
      "t": 25819.657499999983,
      "d": 120.38927604166747,
      "v": 117
    },
    {
      "midi": 57,
      "hit": false,
      "t": 26311.460499999983,
      "d": 87.09011458333407,
      "v": 117
    },
    {
      "midi": 64,
      "hit": false,
      "t": 26311.460499999983,
      "d": 94.7745364583352,
      "v": 117
    },
    {
      "midi": 61,
      "hit": false,
      "t": 26311.460499999983,
      "d": 97.3360104166677,
      "v": 117
    },
    {
      "midi": 57,
      "hit": false,
      "t": 26803.263499999983,
      "d": 97.3360104166677,
      "v": 117
    },
    {
      "midi": 64,
      "hit": false,
      "t": 26803.263499999983,
      "d": 97.3360104166677,
      "v": 117
    },
    {
      "midi": 61,
      "hit": false,
      "t": 26803.263499999983,
      "d": 99.8974843750002,
      "v": 117
    },
    {
      "midi": 57,
      "hit": false,
      "t": 27295.066499999983,
      "d": 94.77453645833157,
      "v": 117
    },
    {
      "midi": 64,
      "hit": false,
      "t": 27295.066499999983,
      "d": 97.33601041666407,
      "v": 117
    },
    {
      "midi": 61,
      "hit": false,
      "t": 27295.066499999983,
      "d": 122.95074999999633,
      "v": 117
    },
    {
      "midi": 50,
      "hit": false,
      "t": 27786.86949999998,
      "d": 97.3360104166677,
      "v": 117
    },
    {
      "midi": 57,
      "hit": false,
      "t": 27786.86949999998,
      "d": 97.3360104166677,
      "v": 117
    },
    {
      "midi": 54,
      "hit": false,
      "t": 27786.86949999998,
      "d": 99.8974843750002,
      "v": 117
    },
    {
      "midi": 50,
      "hit": false,
      "t": 28278.67249999998,
      "d": 89.65158854166657,
      "v": 117
    },
    {
      "midi": 57,
      "hit": false,
      "t": 28278.67249999998,
      "d": 92.21306249999907,
      "v": 117
    },
    {
      "midi": 54,
      "hit": false,
      "t": 28278.67249999998,
      "d": 94.77453645833157,
      "v": 117
    },
    {
      "midi": 50,
      "hit": false,
      "t": 28770.47549999998,
      "d": 74.28274479166794,
      "v": 117
    },
    {
      "midi": 57,
      "hit": false,
      "t": 28770.47549999998,
      "d": 99.8974843750002,
      "v": 117
    },
    {
      "midi": 54,
      "hit": false,
      "t": 28770.47549999998,
      "d": 102.4589583333327,
      "v": 117
    },
    {
      "midi": 50,
      "hit": false,
      "t": 29262.27849999998,
      "d": 97.3360104166677,
      "v": 117
    },
    {
      "midi": 54,
      "hit": false,
      "t": 29262.27849999998,
      "d": 97.3360104166677,
      "v": 117
    },
    {
      "midi": 57,
      "hit": false,
      "t": 29262.27849999998,
      "d": 105.02043229166884,
      "v": 117
    },
    {
      "midi": 57,
      "hit": false,
      "t": 29754.081499999982,
      "d": 89.65158854166657,
      "v": 117
    },
    {
      "midi": 54,
      "hit": false,
      "t": 29754.081499999982,
      "d": 99.8974843750002,
      "v": 117
    },
    {
      "midi": 61,
      "hit": false,
      "t": 29754.081499999982,
      "d": 130.6351718750011,
      "v": 117
    },
    {
      "midi": 54,
      "hit": false,
      "t": 30245.884499999982,
      "d": 76.84421875000044,
      "v": 117
    },
    {
      "midi": 57,
      "hit": false,
      "t": 30245.884499999982,
      "d": 115.26632812499884,
      "v": 117
    },
    {
      "midi": 61,
      "hit": false,
      "t": 30245.884499999982,
      "d": 117.82780208333133,
      "v": 117
    },
    {
      "midi": 54,
      "hit": false,
      "t": 30737.687499999978,
      "d": 97.3360104166677,
      "v": 117
    },
    {
      "midi": 57,
      "hit": false,
      "t": 30737.687499999978,
      "d": 115.26632812500247,
      "v": 117
    },
    {
      "midi": 61,
      "hit": false,
      "t": 30737.687499999978,
      "d": 120.38927604166747,
      "v": 117
    },
    {
      "midi": 54,
      "hit": false,
      "t": 31229.490499999978,
      "d": 76.84421875000044,
      "v": 117
    },
    {
      "midi": 61,
      "hit": false,
      "t": 31229.490499999978,
      "d": 87.09011458333407,
      "v": 117
    },
    {
      "midi": 57,
      "hit": false,
      "t": 31229.490499999978,
      "d": 94.7745364583352,
      "v": 117
    },
    {
      "midi": 59,
      "hit": false,
      "t": 31721.29349999998,
      "d": 94.77453645833157,
      "v": 117
    },
    {
      "midi": 55,
      "hit": false,
      "t": 31721.29349999998,
      "d": 97.33601041666407,
      "v": 117
    },
    {
      "midi": 62,
      "hit": false,
      "t": 31721.29349999998,
      "d": 120.38927604166383,
      "v": 117
    },
    {
      "midi": 55,
      "hit": false,
      "t": 32213.096499999978,
      "d": 102.4589583333327,
      "v": 117
    },
    {
      "midi": 59,
      "hit": false,
      "t": 32213.096499999978,
      "d": 122.95074999999997,
      "v": 117
    },
    {
      "midi": 62,
      "hit": false,
      "t": 32213.096499999978,
      "d": 128.07369791666497,
      "v": 117
    },
    {
      "midi": 55,
      "hit": false,
      "t": 32704.899499999978,
      "d": 97.33601041666407,
      "v": 117
    },
    {
      "midi": 59,
      "hit": false,
      "t": 32704.899499999978,
      "d": 115.26632812499884,
      "v": 117
    },
    {
      "midi": 62,
      "hit": false,
      "t": 32704.899499999978,
      "d": 120.38927604166383,
      "v": 117
    },
    {
      "midi": 55,
      "hit": false,
      "t": 33196.70249999998,
      "d": 89.65158854166657,
      "v": 117
    },
    {
      "midi": 59,
      "hit": false,
      "t": 33196.70249999998,
      "d": 115.26632812499884,
      "v": 117
    },
    {
      "midi": 62,
      "hit": false,
      "t": 33196.70249999998,
      "d": 140.8810677083311,
      "v": 117
    },
    {
      "midi": 57,
      "hit": false,
      "t": 33688.50549999998,
      "d": 102.45895833333634,
      "v": 117
    },
    {
      "midi": 64,
      "hit": false,
      "t": 33688.50549999998,
      "d": 135.7581197916661,
      "v": 117
    },
    {
      "midi": 61,
      "hit": false,
      "t": 33688.50549999998,
      "d": 143.4425416666636,
      "v": 117
    },
    {
      "midi": 57,
      "hit": false,
      "t": 34180.30849999998,
      "d": 143.4425416666636,
      "v": 117
    },
    {
      "midi": 64,
      "hit": false,
      "t": 34180.30849999998,
      "d": 143.4425416666636,
      "v": 117
    },
    {
      "midi": 61,
      "hit": false,
      "t": 34180.30849999998,
      "d": 166.49580729166337,
      "v": 117
    },
    {
      "midi": 64,
      "hit": false,
      "t": 34672.11149999998,
      "d": 122.95075000000361,
      "v": 117
    },
    {
      "midi": 57,
      "hit": false,
      "t": 34672.11149999998,
      "d": 140.88106770833838,
      "v": 117
    },
    {
      "midi": 61,
      "hit": false,
      "t": 34672.11149999998,
      "d": 146.00401562500338,
      "v": 117
    },
    {
      "midi": 57,
      "hit": false,
      "t": 35163.91449999998,
      "d": 81.96716666666907,
      "v": 117
    },
    {
      "midi": 64,
      "hit": false,
      "t": 35163.91449999998,
      "d": 105.02043229166884,
      "v": 117
    },
    {
      "midi": 61,
      "hit": false,
      "t": 35163.91449999998,
      "d": 128.0736979166686,
      "v": 117
    },
    {
      "midi": 50,
      "hit": false,
      "t": 35655.71749999998,
      "d": 74.2827447916643,
      "v": 117
    },
    {
      "midi": 54,
      "hit": false,
      "t": 35655.71749999998,
      "d": 79.4056927083293,
      "v": 117
    },
    {
      "midi": 57,
      "hit": false,
      "t": 35655.71749999998,
      "d": 97.33601041666407,
      "v": 117
    },
    {
      "midi": 57,
      "hit": false,
      "t": 36147.52049999998,
      "d": 76.8442187499968,
      "v": 117
    },
    {
      "midi": 50,
      "hit": false,
      "t": 36147.52049999998,
      "d": 89.65158854166657,
      "v": 117
    },
    {
      "midi": 54,
      "hit": false,
      "t": 36147.52049999998,
      "d": 92.21306249999907,
      "v": 117
    },
    {
      "midi": 50,
      "hit": false,
      "t": 36639.32349999998,
      "d": 94.77453645833157,
      "v": 117
    },
    {
      "midi": 57,
      "hit": false,
      "t": 36639.32349999998,
      "d": 97.33601041666407,
      "v": 117
    },
    {
      "midi": 54,
      "hit": false,
      "t": 36639.32349999998,
      "d": 99.89748437499657,
      "v": 117
    },
    {
      "midi": 50,
      "hit": false,
      "t": 37131.12649999998,
      "d": 89.65158854166657,
      "v": 117
    },
    {
      "midi": 54,
      "hit": false,
      "t": 37131.12649999998,
      "d": 92.21306249999907,
      "v": 117
    },
    {
      "midi": 57,
      "hit": false,
      "t": 37131.12649999998,
      "d": 97.33601041666407,
      "v": 117
    },
    {
      "midi": 57,
      "hit": false,
      "t": 37622.92949999998,
      "d": 97.33601041666407,
      "v": 117
    },
    {
      "midi": 54,
      "hit": false,
      "t": 37622.92949999998,
      "d": 99.89748437499657,
      "v": 117
    },
    {
      "midi": 61,
      "hit": false,
      "t": 37622.92949999998,
      "d": 122.95074999999633,
      "v": 117
    },
    {
      "midi": 57,
      "hit": false,
      "t": 38114.73249999998,
      "d": 99.89748437499657,
      "v": 117
    },
    {
      "midi": 54,
      "hit": false,
      "t": 38114.73249999998,
      "d": 102.45895833332906,
      "v": 117
    },
    {
      "midi": 61,
      "hit": false,
      "t": 38114.73249999998,
      "d": 138.3195937499986,
      "v": 117
    },
    {
      "midi": 54,
      "hit": false,
      "t": 38606.535499999976,
      "d": 97.33601041666407,
      "v": 117
    },
    {
      "midi": 57,
      "hit": false,
      "t": 38606.535499999976,
      "d": 97.33601041666407,
      "v": 117
    },
    {
      "midi": 61,
      "hit": false,
      "t": 38606.535499999976,
      "d": 128.07369791666133,
      "v": 117
    },
    {
      "midi": 57,
      "hit": false,
      "t": 39098.33849999997,
      "d": 94.77453645833157,
      "v": 117
    },
    {
      "midi": 54,
      "hit": false,
      "t": 39098.33849999997,
      "d": 117.82780208333133,
      "v": 117
    },
    {
      "midi": 61,
      "hit": false,
      "t": 39098.33849999997,
      "d": 140.8810677083311,
      "v": 117
    },
    {
      "midi": 55,
      "hit": false,
      "t": 39590.14149999997,
      "d": 79.40569270833657,
      "v": 117
    },
    {
      "midi": 59,
      "hit": false,
      "t": 39590.14149999997,
      "d": 97.33601041667134,
      "v": 117
    },
    {
      "midi": 62,
      "hit": false,
      "t": 39590.14149999997,
      "d": 102.45895833333634,
      "v": 117
    },
    {
      "midi": 55,
      "hit": false,
      "t": 40081.94449999997,
      "d": 69.1597968749993,
      "v": 117
    },
    {
      "midi": 62,
      "hit": false,
      "t": 40081.94449999997,
      "d": 92.21306249999907,
      "v": 117
    },
    {
      "midi": 59,
      "hit": false,
      "t": 40081.94449999997,
      "d": 112.70485416666634,
      "v": 117
    },
    {
      "midi": 55,
      "hit": false,
      "t": 40573.74749999997,
      "d": 97.33601041666407,
      "v": 117
    },
    {
      "midi": 59,
      "hit": false,
      "t": 40573.74749999997,
      "d": 97.33601041666407,
      "v": 117
    },
    {
      "midi": 62,
      "hit": false,
      "t": 40573.74749999997,
      "d": 128.07369791666133,
      "v": 117
    },
    {
      "midi": 55,
      "hit": false,
      "t": 41065.55049999996,
      "d": 97.33601041666407,
      "v": 117
    },
    {
      "midi": 59,
      "hit": false,
      "t": 41065.55049999996,
      "d": 97.33601041666407,
      "v": 117
    },
    {
      "midi": 62,
      "hit": false,
      "t": 41065.55049999996,
      "d": 140.8810677083311,
      "v": 117
    },
    {
      "midi": 64,
      "hit": false,
      "t": 41557.35349999996,
      "d": 76.8442187499968,
      "v": 117
    },
    {
      "midi": 57,
      "hit": false,
      "t": 41557.35349999996,
      "d": 89.65158854166657,
      "v": 117
    },
    {
      "midi": 61,
      "hit": false,
      "t": 41557.35349999996,
      "d": 120.38927604166383,
      "v": 117
    },
    {
      "midi": 57,
      "hit": false,
      "t": 42049.15649999996,
      "d": 87.09011458333407,
      "v": 117
    },
    {
      "midi": 64,
      "hit": false,
      "t": 42049.15649999996,
      "d": 94.77453645833157,
      "v": 117
    },
    {
      "midi": 61,
      "hit": false,
      "t": 42049.15649999996,
      "d": 97.33601041666407,
      "v": 117
    },
    {
      "midi": 57,
      "hit": false,
      "t": 42540.95949999996,
      "d": 97.33601041666407,
      "v": 117
    },
    {
      "midi": 64,
      "hit": false,
      "t": 42540.95949999996,
      "d": 97.33601041666407,
      "v": 117
    },
    {
      "midi": 61,
      "hit": false,
      "t": 42540.95949999996,
      "d": 99.89748437499657,
      "v": 117
    },
    {
      "midi": 57,
      "hit": false,
      "t": 43032.76249999996,
      "d": 94.77453645833157,
      "v": 117
    },
    {
      "midi": 64,
      "hit": false,
      "t": 43032.76249999996,
      "d": 97.33601041666407,
      "v": 117
    },
    {
      "midi": 61,
      "hit": false,
      "t": 43032.76249999996,
      "d": 122.95074999999633,
      "v": 117
    },
    {
      "midi": 50,
      "hit": false,
      "t": 43524.56549999996,
      "d": 97.33601041666407,
      "v": 117
    },
    {
      "midi": 57,
      "hit": false,
      "t": 43524.56549999996,
      "d": 97.33601041666407,
      "v": 117
    },
    {
      "midi": 54,
      "hit": false,
      "t": 43524.56549999996,
      "d": 99.89748437499657,
      "v": 117
    },
    {
      "midi": 50,
      "hit": false,
      "t": 44016.36849999996,
      "d": 89.65158854166657,
      "v": 117
    },
    {
      "midi": 57,
      "hit": false,
      "t": 44016.36849999996,
      "d": 92.21306249999907,
      "v": 117
    },
    {
      "midi": 54,
      "hit": false,
      "t": 44016.36849999996,
      "d": 94.77453645833157,
      "v": 117
    },
    {
      "midi": 50,
      "hit": false,
      "t": 44508.17149999996,
      "d": 74.2827447916643,
      "v": 117
    },
    {
      "midi": 57,
      "hit": false,
      "t": 44508.17149999996,
      "d": 99.89748437499657,
      "v": 117
    },
    {
      "midi": 54,
      "hit": false,
      "t": 44508.17149999996,
      "d": 102.45895833332906,
      "v": 117
    },
    {
      "midi": 50,
      "hit": false,
      "t": 44999.97449999995,
      "d": 97.33601041666407,
      "v": 117
    },
    {
      "midi": 54,
      "hit": false,
      "t": 44999.97449999995,
      "d": 97.33601041666407,
      "v": 117
    },
    {
      "midi": 57,
      "hit": false,
      "t": 44999.97449999995,
      "d": 105.02043229166156,
      "v": 117
    },
    {
      "midi": 57,
      "hit": false,
      "t": 45491.777499999946,
      "d": 89.65158854166657,
      "v": 117
    },
    {
      "midi": 54,
      "hit": false,
      "t": 45491.777499999946,
      "d": 99.89748437499657,
      "v": 117
    },
    {
      "midi": 61,
      "hit": false,
      "t": 45491.777499999946,
      "d": 130.63517187499383,
      "v": 117
    },
    {
      "midi": 54,
      "hit": false,
      "t": 45983.58049999994,
      "d": 76.8442187499968,
      "v": 117
    },
    {
      "midi": 57,
      "hit": false,
      "t": 45983.58049999994,
      "d": 115.26632812499884,
      "v": 117
    },
    {
      "midi": 61,
      "hit": false,
      "t": 45983.58049999994,
      "d": 117.82780208333133,
      "v": 117
    },
    {
      "midi": 54,
      "hit": false,
      "t": 46475.38349999994,
      "d": 97.33601041666407,
      "v": 117
    },
    {
      "midi": 57,
      "hit": false,
      "t": 46475.38349999994,
      "d": 115.26632812499884,
      "v": 117
    },
    {
      "midi": 61,
      "hit": false,
      "t": 46475.38349999994,
      "d": 120.38927604166383,
      "v": 117
    },
    {
      "midi": 54,
      "hit": false,
      "t": 46967.18649999994,
      "d": 76.8442187499968,
      "v": 117
    },
    {
      "midi": 61,
      "hit": false,
      "t": 46967.18649999994,
      "d": 87.0901145833268,
      "v": 117
    },
    {
      "midi": 57,
      "hit": false,
      "t": 46967.18649999994,
      "d": 94.77453645832429,
      "v": 117
    },
    {
      "midi": 59,
      "hit": false,
      "t": 47458.98949999993,
      "d": 94.77453645833157,
      "v": 117
    },
    {
      "midi": 55,
      "hit": false,
      "t": 47458.98949999993,
      "d": 97.33601041666407,
      "v": 117
    },
    {
      "midi": 62,
      "hit": false,
      "t": 47458.98949999993,
      "d": 120.38927604166383,
      "v": 117
    },
    {
      "midi": 55,
      "hit": false,
      "t": 47950.79249999993,
      "d": 102.45895833333634,
      "v": 117
    },
    {
      "midi": 59,
      "hit": false,
      "t": 47950.79249999993,
      "d": 122.95075000000361,
      "v": 117
    },
    {
      "midi": 62,
      "hit": false,
      "t": 47950.79249999993,
      "d": 128.0736979166686,
      "v": 117
    },
    {
      "midi": 55,
      "hit": false,
      "t": 48442.59549999993,
      "d": 97.33601041666407,
      "v": 117
    },
    {
      "midi": 59,
      "hit": false,
      "t": 48442.59549999993,
      "d": 115.26632812499884,
      "v": 117
    },
    {
      "midi": 62,
      "hit": false,
      "t": 48442.59549999993,
      "d": 120.38927604166383,
      "v": 117
    },
    {
      "midi": 55,
      "hit": false,
      "t": 48934.39849999993,
      "d": 89.65158854166657,
      "v": 117
    },
    {
      "midi": 59,
      "hit": false,
      "t": 48934.39849999993,
      "d": 115.26632812499884,
      "v": 117
    },
    {
      "midi": 62,
      "hit": false,
      "t": 48934.39849999993,
      "d": 140.8810677083311,
      "v": 117
    },
    {
      "midi": 57,
      "hit": false,
      "t": 49426.20149999993,
      "d": 102.45895833333634,
      "v": 117
    },
    {
      "midi": 64,
      "hit": false,
      "t": 49426.20149999993,
      "d": 135.7581197916661,
      "v": 117
    },
    {
      "midi": 61,
      "hit": false,
      "t": 49426.20149999993,
      "d": 143.4425416666636,
      "v": 117
    },
    {
      "midi": 57,
      "hit": false,
      "t": 49918.00449999993,
      "d": 143.4425416666636,
      "v": 117
    },
    {
      "midi": 64,
      "hit": false,
      "t": 49918.00449999993,
      "d": 143.4425416666636,
      "v": 117
    },
    {
      "midi": 61,
      "hit": false,
      "t": 49918.00449999993,
      "d": 166.49580729166337,
      "v": 117
    },
    {
      "midi": 64,
      "hit": false,
      "t": 50409.80749999993,
      "d": 122.95075000000361,
      "v": 117
    },
    {
      "midi": 57,
      "hit": false,
      "t": 50409.80749999993,
      "d": 140.88106770833838,
      "v": 117
    },
    {
      "midi": 61,
      "hit": false,
      "t": 50409.80749999993,
      "d": 146.00401562500338,
      "v": 117
    },
    {
      "midi": 57,
      "hit": false,
      "t": 50901.61049999993,
      "d": 81.96716666666907,
      "v": 117
    },
    {
      "midi": 64,
      "hit": false,
      "t": 50901.61049999993,
      "d": 105.02043229166884,
      "v": 117
    },
    {
      "midi": 61,
      "hit": false,
      "t": 50901.61049999993,
      "d": 128.0736979166686,
      "v": 117
    },
    {
      "midi": 50,
      "hit": false,
      "t": 51393.41349999993,
      "d": 74.2827447916643,
      "v": 117
    },
    {
      "midi": 54,
      "hit": false,
      "t": 51393.41349999993,
      "d": 79.4056927083293,
      "v": 117
    },
    {
      "midi": 57,
      "hit": false,
      "t": 51393.41349999993,
      "d": 97.33601041666407,
      "v": 117
    },
    {
      "midi": 57,
      "hit": false,
      "t": 51885.21649999993,
      "d": 76.8442187499968,
      "v": 117
    },
    {
      "midi": 50,
      "hit": false,
      "t": 51885.21649999993,
      "d": 89.65158854166657,
      "v": 117
    },
    {
      "midi": 54,
      "hit": false,
      "t": 51885.21649999993,
      "d": 92.21306249999907,
      "v": 117
    },
    {
      "midi": 50,
      "hit": false,
      "t": 52377.01949999993,
      "d": 94.77453645833157,
      "v": 117
    },
    {
      "midi": 57,
      "hit": false,
      "t": 52377.01949999993,
      "d": 97.33601041666407,
      "v": 117
    },
    {
      "midi": 54,
      "hit": false,
      "t": 52377.01949999993,
      "d": 99.89748437499657,
      "v": 117
    },
    {
      "midi": 50,
      "hit": false,
      "t": 52868.82249999993,
      "d": 89.65158854166657,
      "v": 117
    },
    {
      "midi": 54,
      "hit": false,
      "t": 52868.82249999993,
      "d": 92.21306249999907,
      "v": 117
    },
    {
      "midi": 57,
      "hit": false,
      "t": 52868.82249999993,
      "d": 97.33601041666407,
      "v": 117
    },
    {
      "midi": 57,
      "hit": false,
      "t": 53360.62549999993,
      "d": 97.33601041666407,
      "v": 117
    },
    {
      "midi": 54,
      "hit": false,
      "t": 53360.62549999993,
      "d": 99.89748437499657,
      "v": 117
    },
    {
      "midi": 61,
      "hit": false,
      "t": 53360.62549999993,
      "d": 122.95074999999633,
      "v": 117
    },
    {
      "midi": 57,
      "hit": false,
      "t": 53852.42849999993,
      "d": 99.89748437499657,
      "v": 117
    },
    {
      "midi": 54,
      "hit": false,
      "t": 53852.42849999993,
      "d": 102.45895833332906,
      "v": 117
    },
    {
      "midi": 61,
      "hit": false,
      "t": 53852.42849999993,
      "d": 138.3195937499986,
      "v": 117
    },
    {
      "midi": 54,
      "hit": false,
      "t": 54344.23149999993,
      "d": 97.33601041666407,
      "v": 117
    },
    {
      "midi": 57,
      "hit": false,
      "t": 54344.23149999993,
      "d": 97.33601041666407,
      "v": 117
    },
    {
      "midi": 61,
      "hit": false,
      "t": 54344.23149999993,
      "d": 128.07369791666133,
      "v": 117
    },
    {
      "midi": 57,
      "hit": false,
      "t": 54836.03449999992,
      "d": 94.77453645833157,
      "v": 117
    },
    {
      "midi": 54,
      "hit": false,
      "t": 54836.03449999992,
      "d": 117.82780208333133,
      "v": 117
    },
    {
      "midi": 61,
      "hit": false,
      "t": 54836.03449999992,
      "d": 140.8810677083311,
      "v": 117
    },
    {
      "midi": 55,
      "hit": false,
      "t": 55327.83749999992,
      "d": 79.40569270833657,
      "v": 117
    },
    {
      "midi": 59,
      "hit": false,
      "t": 55327.83749999992,
      "d": 97.33601041667134,
      "v": 117
    },
    {
      "midi": 62,
      "hit": false,
      "t": 55327.83749999992,
      "d": 102.45895833333634,
      "v": 117
    },
    {
      "midi": 55,
      "hit": false,
      "t": 55819.64049999992,
      "d": 69.1597968749993,
      "v": 117
    },
    {
      "midi": 62,
      "hit": false,
      "t": 55819.64049999992,
      "d": 92.21306249999907,
      "v": 117
    },
    {
      "midi": 59,
      "hit": false,
      "t": 55819.64049999992,
      "d": 112.70485416666634,
      "v": 117
    },
    {
      "midi": 55,
      "hit": false,
      "t": 56311.44349999992,
      "d": 97.33601041666407,
      "v": 117
    },
    {
      "midi": 59,
      "hit": false,
      "t": 56311.44349999992,
      "d": 97.33601041666407,
      "v": 117
    },
    {
      "midi": 62,
      "hit": false,
      "t": 56311.44349999992,
      "d": 128.07369791666133,
      "v": 117
    },
    {
      "midi": 55,
      "hit": false,
      "t": 56803.246499999914,
      "d": 97.33601041666407,
      "v": 117
    },
    {
      "midi": 59,
      "hit": false,
      "t": 56803.246499999914,
      "d": 97.33601041666407,
      "v": 117
    },
    {
      "midi": 62,
      "hit": false,
      "t": 56803.246499999914,
      "d": 140.8810677083311,
      "v": 117
    },
    {
      "midi": 64,
      "hit": false,
      "t": 57295.049499999914,
      "d": 76.8442187499968,
      "v": 117
    },
    {
      "midi": 57,
      "hit": false,
      "t": 57295.049499999914,
      "d": 89.65158854166657,
      "v": 117
    },
    {
      "midi": 61,
      "hit": false,
      "t": 57295.049499999914,
      "d": 120.38927604166383,
      "v": 117
    },
    {
      "midi": 57,
      "hit": false,
      "t": 57786.85249999991,
      "d": 87.09011458333407,
      "v": 117
    },
    {
      "midi": 64,
      "hit": false,
      "t": 57786.85249999991,
      "d": 94.77453645833157,
      "v": 117
    },
    {
      "midi": 61,
      "hit": false,
      "t": 57786.85249999991,
      "d": 97.33601041666407,
      "v": 117
    },
    {
      "midi": 57,
      "hit": false,
      "t": 58278.65549999991,
      "d": 97.33601041666407,
      "v": 117
    },
    {
      "midi": 64,
      "hit": false,
      "t": 58278.65549999991,
      "d": 97.33601041666407,
      "v": 117
    },
    {
      "midi": 61,
      "hit": false,
      "t": 58278.65549999991,
      "d": 99.89748437499657,
      "v": 117
    },
    {
      "midi": 57,
      "hit": false,
      "t": 58770.45849999991,
      "d": 94.77453645833157,
      "v": 117
    },
    {
      "midi": 64,
      "hit": false,
      "t": 58770.45849999991,
      "d": 97.33601041666407,
      "v": 117
    },
    {
      "midi": 61,
      "hit": false,
      "t": 58770.45849999991,
      "d": 122.95074999999633,
      "v": 117
    },
    {
      "midi": 50,
      "hit": false,
      "t": 59262.26149999991,
      "d": 97.33601041666407,
      "v": 117
    },
    {
      "midi": 57,
      "hit": false,
      "t": 59262.26149999991,
      "d": 97.33601041666407,
      "v": 117
    },
    {
      "midi": 54,
      "hit": false,
      "t": 59262.26149999991,
      "d": 99.89748437499657,
      "v": 117
    },
    {
      "midi": 50,
      "hit": false,
      "t": 59754.06449999991,
      "d": 89.65158854166657,
      "v": 117
    },
    {
      "midi": 57,
      "hit": false,
      "t": 59754.06449999991,
      "d": 92.21306249999907,
      "v": 117
    },
    {
      "midi": 54,
      "hit": false,
      "t": 59754.06449999991,
      "d": 94.77453645833157,
      "v": 117
    },
    {
      "midi": 50,
      "hit": false,
      "t": 60245.86749999991,
      "d": 74.2827447916643,
      "v": 117
    },
    {
      "midi": 57,
      "hit": false,
      "t": 60245.86749999991,
      "d": 99.89748437499657,
      "v": 117
    },
    {
      "midi": 54,
      "hit": false,
      "t": 60245.86749999991,
      "d": 102.45895833332906,
      "v": 117
    },
    {
      "midi": 50,
      "hit": false,
      "t": 60737.670499999906,
      "d": 97.33601041666407,
      "v": 117
    },
    {
      "midi": 54,
      "hit": false,
      "t": 60737.670499999906,
      "d": 97.33601041666407,
      "v": 117
    },
    {
      "midi": 57,
      "hit": false,
      "t": 60737.670499999906,
      "d": 105.02043229166156,
      "v": 117
    },
    {
      "midi": 57,
      "hit": false,
      "t": 61229.4734999999,
      "d": 89.65158854166657,
      "v": 117
    },
    {
      "midi": 54,
      "hit": false,
      "t": 61229.4734999999,
      "d": 99.89748437499657,
      "v": 117
    },
    {
      "midi": 61,
      "hit": false,
      "t": 61229.4734999999,
      "d": 130.63517187499383,
      "v": 117
    },
    {
      "midi": 54,
      "hit": false,
      "t": 61721.27649999989,
      "d": 76.8442187499968,
      "v": 117
    },
    {
      "midi": 57,
      "hit": false,
      "t": 61721.27649999989,
      "d": 115.26632812499884,
      "v": 117
    },
    {
      "midi": 61,
      "hit": false,
      "t": 61721.27649999989,
      "d": 117.82780208333133,
      "v": 117
    },
    {
      "midi": 54,
      "hit": false,
      "t": 62213.07949999989,
      "d": 97.33601041666407,
      "v": 117
    },
    {
      "midi": 57,
      "hit": false,
      "t": 62213.07949999989,
      "d": 115.26632812499884,
      "v": 117
    },
    {
      "midi": 61,
      "hit": false,
      "t": 62213.07949999989,
      "d": 120.38927604166383,
      "v": 117
    },
    {
      "midi": 54,
      "hit": false,
      "t": 62704.88249999989,
      "d": 76.8442187499968,
      "v": 117
    },
    {
      "midi": 61,
      "hit": false,
      "t": 62704.88249999989,
      "d": 87.0901145833268,
      "v": 117
    },
    {
      "midi": 57,
      "hit": false,
      "t": 62704.88249999989,
      "d": 94.77453645832429,
      "v": 117
    },
    {
      "midi": 59,
      "hit": false,
      "t": 63196.68549999988,
      "d": 94.77453645833157,
      "v": 117
    },
    {
      "midi": 55,
      "hit": false,
      "t": 63196.68549999988,
      "d": 97.33601041666407,
      "v": 117
    },
    {
      "midi": 62,
      "hit": false,
      "t": 63196.68549999988,
      "d": 120.38927604166383,
      "v": 117
    },
    {
      "midi": 55,
      "hit": false,
      "t": 63688.48849999988,
      "d": 102.45895833333634,
      "v": 117
    },
    {
      "midi": 59,
      "hit": false,
      "t": 63688.48849999988,
      "d": 122.95075000000361,
      "v": 117
    },
    {
      "midi": 62,
      "hit": false,
      "t": 63688.48849999988,
      "d": 128.0736979166686,
      "v": 117
    },
    {
      "midi": 55,
      "hit": false,
      "t": 64180.29149999988,
      "d": 97.33601041666407,
      "v": 117
    },
    {
      "midi": 59,
      "hit": false,
      "t": 64180.29149999988,
      "d": 115.26632812499884,
      "v": 117
    },
    {
      "midi": 62,
      "hit": false,
      "t": 64180.29149999988,
      "d": 120.38927604166383,
      "v": 117
    },
    {
      "midi": 55,
      "hit": false,
      "t": 64672.09449999988,
      "d": 89.65158854166657,
      "v": 117
    },
    {
      "midi": 59,
      "hit": false,
      "t": 64672.09449999988,
      "d": 115.26632812499884,
      "v": 117
    },
    {
      "midi": 62,
      "hit": false,
      "t": 64672.09449999988,
      "d": 140.8810677083311,
      "v": 117
    },
    {
      "midi": 57,
      "hit": false,
      "t": 65163.89749999988,
      "d": 102.45895833333634,
      "v": 117
    },
    {
      "midi": 64,
      "hit": false,
      "t": 65163.89749999988,
      "d": 135.7581197916661,
      "v": 117
    },
    {
      "midi": 61,
      "hit": false,
      "t": 65163.89749999988,
      "d": 143.4425416666636,
      "v": 117
    },
    {
      "midi": 57,
      "hit": false,
      "t": 65655.70049999988,
      "d": 143.4425416666636,
      "v": 117
    },
    {
      "midi": 64,
      "hit": false,
      "t": 65655.70049999988,
      "d": 143.4425416666636,
      "v": 117
    },
    {
      "midi": 61,
      "hit": false,
      "t": 65655.70049999988,
      "d": 166.49580729166337,
      "v": 117
    },
    {
      "midi": 64,
      "hit": false,
      "t": 66147.50349999988,
      "d": 122.95075000000361,
      "v": 117
    },
    {
      "midi": 57,
      "hit": false,
      "t": 66147.50349999988,
      "d": 140.88106770833838,
      "v": 117
    },
    {
      "midi": 61,
      "hit": false,
      "t": 66147.50349999988,
      "d": 146.00401562500338,
      "v": 117
    },
    {
      "midi": 57,
      "hit": false,
      "t": 66639.30649999988,
      "d": 81.96716666666907,
      "v": 117
    },
    {
      "midi": 64,
      "hit": false,
      "t": 66639.30649999988,
      "d": 105.02043229166884,
      "v": 117
    },
    {
      "midi": 61,
      "hit": false,
      "t": 66639.30649999988,
      "d": 128.0736979166686,
      "v": 117
    },
    {
      "midi": 69,
      "hit": false,
      "t": 66885.208,
      "d": 371.41372395833605,
      "v": 66
    },
    {
      "midi": 93,
      "hit": false,
      "t": 66885.208,
      "d": 371.41372395833605,
      "v": 66
    },
    {
      "midi": 50,
      "hit": false,
      "t": 67131.10949999987,
      "d": 74.2827447916643,
      "v": 117
    },
    {
      "midi": 54,
      "hit": false,
      "t": 67131.10949999987,
      "d": 79.4056927083293,
      "v": 117
    },
    {
      "midi": 57,
      "hit": false,
      "t": 67131.10949999987,
      "d": 97.33601041666407,
      "v": 117
    },
    {
      "midi": 67,
      "hit": false,
      "t": 67377.011,
      "d": 338.1145625000063,
      "v": 66
    },
    {
      "midi": 91,
      "hit": false,
      "t": 67377.011,
      "d": 338.1145625000063,
      "v": 66
    },
    {
      "midi": 57,
      "hit": false,
      "t": 67622.91249999987,
      "d": 76.84421875000407,
      "v": 117
    },
    {
      "midi": 50,
      "hit": false,
      "t": 67622.91249999987,
      "d": 89.65158854167385,
      "v": 117
    },
    {
      "midi": 54,
      "hit": false,
      "t": 67622.91249999987,
      "d": 92.21306250001362,
      "v": 117
    },
    {
      "midi": 66,
      "hit": false,
      "t": 67868.814,
      "d": 184.42612499999814,
      "v": 66
    },
    {
      "midi": 90,
      "hit": false,
      "t": 67868.814,
      "d": 184.42612499999814,
      "v": 66
    },
    {
      "midi": 50,
      "hit": false,
      "t": 68114.71549999989,
      "d": 94.77453645833884,
      "v": 117
    },
    {
      "midi": 57,
      "hit": false,
      "t": 68114.71549999989,
      "d": 97.33601041667862,
      "v": 117
    },
    {
      "midi": 54,
      "hit": false,
      "t": 68114.71549999989,
      "d": 99.8974843750184,
      "v": 117
    },
    {
      "midi": 67,
      "hit": false,
      "t": 68114.71549999999,
      "d": 192.1105468750029,
      "v": 66
    },
    {
      "midi": 91,
      "hit": false,
      "t": 68114.71549999999,
      "d": 192.1105468750029,
      "v": 66
    },
    {
      "midi": 69,
      "hit": false,
      "t": 68360.617,
      "d": 140.88106770833838,
      "v": 66
    },
    {
      "midi": 93,
      "hit": false,
      "t": 68360.617,
      "d": 140.88106770833838,
      "v": 66
    },
    {
      "midi": 50,
      "hit": false,
      "t": 68606.5184999999,
      "d": 89.65158854167385,
      "v": 117
    },
    {
      "midi": 54,
      "hit": false,
      "t": 68606.5184999999,
      "d": 92.21306250001362,
      "v": 117
    },
    {
      "midi": 57,
      "hit": false,
      "t": 68606.5184999999,
      "d": 97.33601041667862,
      "v": 117
    },
    {
      "midi": 69,
      "hit": false,
      "t": 68606.5185,
      "d": 379.09814583332627,
      "v": 66
    },
    {
      "midi": 93,
      "hit": false,
      "t": 68606.5185,
      "d": 379.09814583332627,
      "v": 66
    },
    {
      "midi": 57,
      "hit": false,
      "t": 69098.32149999992,
      "d": 97.33601041666407,
      "v": 117
    },
    {
      "midi": 54,
      "hit": false,
      "t": 69098.32149999992,
      "d": 99.89748437500384,
      "v": 117
    },
    {
      "midi": 61,
      "hit": false,
      "t": 69098.32149999992,
      "d": 122.95075000000361,
      "v": 117
    },
    {
      "midi": 73,
      "hit": false,
      "t": 69098.3215,
      "d": 353.4834062500013,
      "v": 66
    },
    {
      "midi": 97,
      "hit": false,
      "t": 69098.3215,
      "d": 353.4834062500013,
      "v": 66
    },
    {
      "midi": 57,
      "hit": false,
      "t": 69590.12449999992,
      "d": 99.89748437500384,
      "v": 117
    },
    {
      "midi": 54,
      "hit": false,
      "t": 69590.12449999992,
      "d": 102.45895833334362,
      "v": 117
    },
    {
      "midi": 61,
      "hit": false,
      "t": 69590.12449999992,
      "d": 138.31959375001315,
      "v": 117
    },
    {
      "midi": 69,
      "hit": false,
      "t": 69590.1245,
      "d": 330.4301406250015,
      "v": 66
    },
    {
      "midi": 93,
      "hit": false,
      "t": 69590.1245,
      "d": 330.4301406250015,
      "v": 66
    },
    {
      "midi": 54,
      "hit": false,
      "t": 70081.92749999993,
      "d": 97.33601041666407,
      "v": 117
    },
    {
      "midi": 57,
      "hit": false,
      "t": 70081.92749999993,
      "d": 97.33601041666407,
      "v": 117
    },
    {
      "midi": 61,
      "hit": false,
      "t": 70081.92749999993,
      "d": 128.0736979166686,
      "v": 117
    },
    {
      "midi": 66,
      "hit": false,
      "t": 70081.9275,
      "d": 601.9463802083337,
      "v": 66
    },
    {
      "midi": 90,
      "hit": false,
      "t": 70081.9275,
      "d": 601.9463802083337,
      "v": 66
    },
    {
      "midi": 57,
      "hit": false,
      "t": 70573.73049999993,
      "d": 94.77453645833884,
      "v": 117
    },
    {
      "midi": 54,
      "hit": false,
      "t": 70573.73049999993,
      "d": 117.82780208333861,
      "v": 117
    },
    {
      "midi": 61,
      "hit": false,
      "t": 70573.73049999993,
      "d": 140.88106770833838,
      "v": 117
    },
    {
      "midi": 66,
      "hit": false,
      "t": 70819.63200000001,
      "d": 397.02846354166104,
      "v": 66
    },
    {
      "midi": 90,
      "hit": false,
      "t": 70819.63200000001,
      "d": 397.02846354166104,
      "v": 66
    },
    {
      "midi": 55,
      "hit": false,
      "t": 71065.53349999993,
      "d": 79.4056927083293,
      "v": 117
    },
    {
      "midi": 59,
      "hit": false,
      "t": 71065.53349999993,
      "d": 97.33601041666407,
      "v": 117
    },
    {
      "midi": 62,
      "hit": false,
      "t": 71065.53349999993,
      "d": 102.45895833332906,
      "v": 117
    },
    {
      "midi": 64,
      "hit": false,
      "t": 71311.43500000001,
      "d": 345.7989843749965,
      "v": 66
    },
    {
      "midi": 88,
      "hit": false,
      "t": 71311.43500000001,
      "d": 345.7989843749965,
      "v": 66
    },
    {
      "midi": 55,
      "hit": false,
      "t": 71557.33649999993,
      "d": 69.1597968749993,
      "v": 117
    },
    {
      "midi": 62,
      "hit": false,
      "t": 71557.33649999993,
      "d": 92.21306249999907,
      "v": 117
    },
    {
      "midi": 59,
      "hit": false,
      "t": 71557.33649999993,
      "d": 112.70485416665906,
      "v": 117
    },
    {
      "midi": 62,
      "hit": false,
      "t": 71803.23800000001,
      "d": 230.53265624999767,
      "v": 66
    },
    {
      "midi": 86,
      "hit": false,
      "t": 71803.23800000001,
      "d": 230.53265624999767,
      "v": 66
    },
    {
      "midi": 55,
      "hit": false,
      "t": 72049.13949999992,
      "d": 97.33601041666407,
      "v": 117
    },
    {
      "midi": 59,
      "hit": false,
      "t": 72049.13949999992,
      "d": 97.33601041666407,
      "v": 117
    },
    {
      "midi": 62,
      "hit": false,
      "t": 72049.13949999992,
      "d": 128.0736979166686,
      "v": 117
    },
    {
      "midi": 64,
      "hit": false,
      "t": 72049.1395,
      "d": 189.54907291666314,
      "v": 66
    },
    {
      "midi": 88,
      "hit": false,
      "t": 72049.1395,
      "d": 189.54907291666314,
      "v": 66
    },
    {
      "midi": 66,
      "hit": false,
      "t": 72295.041,
      "d": 166.49580729166337,
      "v": 66
    },
    {
      "midi": 90,
      "hit": false,
      "t": 72295.041,
      "d": 166.49580729166337,
      "v": 66
    },
    {
      "midi": 55,
      "hit": false,
      "t": 72540.94249999992,
      "d": 97.33601041666407,
      "v": 117
    },
    {
      "midi": 59,
      "hit": false,
      "t": 72540.94249999992,
      "d": 97.33601041666407,
      "v": 117
    },
    {
      "midi": 62,
      "hit": false,
      "t": 72540.94249999992,
      "d": 140.88106770832383,
      "v": 117
    },
    {
      "midi": 66,
      "hit": false,
      "t": 72540.94249999999,
      "d": 448.2579427083401,
      "v": 66
    },
    {
      "midi": 90,
      "hit": false,
      "t": 72540.94249999999,
      "d": 448.2579427083401,
      "v": 66
    },
    {
      "midi": 64,
      "hit": false,
      "t": 73032.7454999999,
      "d": 76.84421875000407,
      "v": 117
    },
    {
      "midi": 57,
      "hit": false,
      "t": 73032.7454999999,
      "d": 89.65158854167385,
      "v": 117
    },
    {
      "midi": 61,
      "hit": false,
      "t": 73032.7454999999,
      "d": 120.38927604167839,
      "v": 117
    },
    {
      "midi": 64,
      "hit": false,
      "t": 73032.74549999999,
      "d": 376.53667187500105,
      "v": 66
    },
    {
      "midi": 88,
      "hit": false,
      "t": 73032.74549999999,
      "d": 376.53667187500105,
      "v": 66
    },
    {
      "midi": 57,
      "hit": false,
      "t": 73524.54849999992,
      "d": 87.09011458333407,
      "v": 117
    },
    {
      "midi": 64,
      "hit": false,
      "t": 73524.54849999992,
      "d": 94.77453645833884,
      "v": 117
    },
    {
      "midi": 61,
      "hit": false,
      "t": 73524.54849999992,
      "d": 97.33601041667862,
      "v": 117
    },
    {
      "midi": 62,
      "hit": false,
      "t": 73524.54849999999,
      "d": 397.02846354166104,
      "v": 66
    },
    {
      "midi": 86,
      "hit": false,
      "t": 73524.54849999999,
      "d": 397.02846354166104,
      "v": 66
    },
    {
      "midi": 57,
      "hit": false,
      "t": 74016.35149999993,
      "d": 97.33601041666407,
      "v": 117
    },
    {
      "midi": 64,
      "hit": false,
      "t": 74016.35149999993,
      "d": 97.33601041666407,
      "v": 117
    },
    {
      "midi": 61,
      "hit": false,
      "t": 74016.35149999993,
      "d": 99.89748437500384,
      "v": 117
    },
    {
      "midi": 64,
      "hit": false,
      "t": 74016.35149999999,
      "d": 404.7128854166658,
      "v": 66
    },
    {
      "midi": 88,
      "hit": false,
      "t": 74016.35149999999,
      "d": 404.7128854166658,
      "v": 66
    },
    {
      "midi": 57,
      "hit": false,
      "t": 74508.15449999993,
      "d": 94.77453645833884,
      "v": 117
    },
    {
      "midi": 64,
      "hit": false,
      "t": 74508.15449999993,
      "d": 97.33601041667862,
      "v": 117
    },
    {
      "midi": 61,
      "hit": false,
      "t": 74508.15449999993,
      "d": 122.95075000001816,
      "v": 117
    },
    {
      "midi": 69,
      "hit": false,
      "t": 74754.05599999998,
      "d": 358.6063541666663,
      "v": 66
    },
    {
      "midi": 93,
      "hit": false,
      "t": 74754.05599999998,
      "d": 358.6063541666663,
      "v": 66
    },
    {
      "midi": 50,
      "hit": false,
      "t": 74999.95749999995,
      "d": 97.33601041666407,
      "v": 117
    },
    {
      "midi": 57,
      "hit": false,
      "t": 74999.95749999995,
      "d": 97.33601041666407,
      "v": 117
    },
    {
      "midi": 54,
      "hit": false,
      "t": 74999.95749999995,
      "d": 99.89748437500384,
      "v": 117
    },
    {
      "midi": 67,
      "hit": false,
      "t": 75245.85899999998,
      "d": 332.99161458332674,
      "v": 66
    },
    {
      "midi": 91,
      "hit": false,
      "t": 75245.85899999998,
      "d": 332.99161458332674,
      "v": 66
    },
    {
      "midi": 50,
      "hit": false,
      "t": 75491.76049999995,
      "d": 89.65158854167385,
      "v": 117
    },
    {
      "midi": 57,
      "hit": false,
      "t": 75491.76049999995,
      "d": 92.21306250001362,
      "v": 117
    },
    {
      "midi": 54,
      "hit": false,
      "t": 75491.76049999995,
      "d": 94.7745364583534,
      "v": 117
    },
    {
      "midi": 66,
      "hit": false,
      "t": 75737.66199999998,
      "d": 120.38927604166383,
      "v": 66
    },
    {
      "midi": 90,
      "hit": false,
      "t": 75737.66199999998,
      "d": 120.38927604166383,
      "v": 66
    },
    {
      "midi": 50,
      "hit": false,
      "t": 75983.56349999996,
      "d": 74.2827447916643,
      "v": 117
    },
    {
      "midi": 57,
      "hit": false,
      "t": 75983.56349999996,
      "d": 99.89748437500384,
      "v": 117
    },
    {
      "midi": 54,
      "hit": false,
      "t": 75983.56349999996,
      "d": 102.45895833334362,
      "v": 117
    },
    {
      "midi": 67,
      "hit": false,
      "t": 75983.56349999997,
      "d": 192.1105468750029,
      "v": 66
    },
    {
      "midi": 91,
      "hit": false,
      "t": 75983.56349999997,
      "d": 192.1105468750029,
      "v": 66
    },
    {
      "midi": 69,
      "hit": false,
      "t": 76229.46499999998,
      "d": 158.81138541667315,
      "v": 66
    },
    {
      "midi": 93,
      "hit": false,
      "t": 76229.46499999998,
      "d": 158.81138541667315,
      "v": 66
    },
    {
      "midi": 50,
      "hit": false,
      "t": 76475.36649999997,
      "d": 97.33601041666407,
      "v": 117
    },
    {
      "midi": 54,
      "hit": false,
      "t": 76475.36649999997,
      "d": 97.33601041666407,
      "v": 117
    },
    {
      "midi": 57,
      "hit": false,
      "t": 76475.36649999997,
      "d": 105.02043229166884,
      "v": 117
    },
    {
      "midi": 69,
      "hit": false,
      "t": 76475.36649999999,
      "d": 353.4834062500013,
      "v": 66
    },
    {
      "midi": 93,
      "hit": false,
      "t": 76475.36649999999,
      "d": 353.4834062500013,
      "v": 66
    },
    {
      "midi": 57,
      "hit": false,
      "t": 76967.16949999997,
      "d": 89.65158854167385,
      "v": 117
    },
    {
      "midi": 54,
      "hit": false,
      "t": 76967.16949999997,
      "d": 99.89748437500384,
      "v": 117
    },
    {
      "midi": 61,
      "hit": false,
      "t": 76967.16949999997,
      "d": 130.63517187500838,
      "v": 117
    },
    {
      "midi": 73,
      "hit": false,
      "t": 76967.16949999999,
      "d": 332.99161458332674,
      "v": 66
    },
    {
      "midi": 97,
      "hit": false,
      "t": 76967.16949999999,
      "d": 332.99161458332674,
      "v": 66
    },
    {
      "midi": 69,
      "hit": false,
      "t": 77458.97249999999,
      "d": 332.99161458332674,
      "v": 66
    },
    {
      "midi": 93,
      "hit": false,
      "t": 77458.97249999999,
      "d": 332.99161458332674,
      "v": 66
    },
    {
      "midi": 54,
      "hit": false,
      "t": 77458.97249999999,
      "d": 76.84421875000407,
      "v": 117
    },
    {
      "midi": 57,
      "hit": false,
      "t": 77458.97249999999,
      "d": 115.26632812499884,
      "v": 117
    },
    {
      "midi": 61,
      "hit": false,
      "t": 77458.97249999999,
      "d": 117.82780208333861,
      "v": 117
    },
    {
      "midi": 66,
      "hit": false,
      "t": 77950.77549999999,
      "d": 571.2086927083292,
      "v": 66
    },
    {
      "midi": 90,
      "hit": false,
      "t": 77950.77549999999,
      "d": 571.2086927083292,
      "v": 66
    },
    {
      "midi": 54,
      "hit": false,
      "t": 77950.77549999999,
      "d": 97.33601041666407,
      "v": 117
    },
    {
      "midi": 57,
      "hit": false,
      "t": 77950.77549999999,
      "d": 115.26632812499884,
      "v": 117
    },
    {
      "midi": 61,
      "hit": false,
      "t": 77950.77549999999,
      "d": 120.38927604166383,
      "v": 117
    },
    {
      "midi": 54,
      "hit": false,
      "t": 78442.57849999999,
      "d": 76.84421875000407,
      "v": 117
    },
    {
      "midi": 61,
      "hit": false,
      "t": 78442.57849999999,
      "d": 87.09011458333407,
      "v": 117
    },
    {
      "midi": 57,
      "hit": false,
      "t": 78442.57849999999,
      "d": 94.77453645833884,
      "v": 117
    },
    {
      "midi": 66,
      "hit": false,
      "t": 78688.47999999998,
      "d": 402.1514114583406,
      "v": 66
    },
    {
      "midi": 90,
      "hit": false,
      "t": 78688.47999999998,
      "d": 402.1514114583406,
      "v": 66
    },
    {
      "midi": 59,
      "hit": false,
      "t": 78934.38149999999,
      "d": 94.77453645833884,
      "v": 117
    },
    {
      "midi": 55,
      "hit": false,
      "t": 78934.38149999999,
      "d": 97.33601041667862,
      "v": 117
    },
    {
      "midi": 62,
      "hit": false,
      "t": 78934.38149999999,
      "d": 120.38927604167839,
      "v": 117
    },
    {
      "midi": 64,
      "hit": false,
      "t": 79180.283,
      "d": 325.3071927083365,
      "v": 66
    },
    {
      "midi": 88,
      "hit": false,
      "t": 79180.283,
      "d": 325.3071927083365,
      "v": 66
    },
    {
      "midi": 55,
      "hit": false,
      "t": 79426.1845,
      "d": 102.45895833332906,
      "v": 117
    },
    {
      "midi": 59,
      "hit": false,
      "t": 79426.1845,
      "d": 122.95074999998906,
      "v": 117
    },
    {
      "midi": 62,
      "hit": false,
      "t": 79426.1845,
      "d": 128.07369791665406,
      "v": 117
    },
    {
      "midi": 62,
      "hit": false,
      "t": 79672.086,
      "d": 197.2334947916679,
      "v": 66
    },
    {
      "midi": 86,
      "hit": false,
      "t": 79672.086,
      "d": 197.2334947916679,
      "v": 66
    },
    {
      "midi": 55,
      "hit": false,
      "t": 79917.98749999999,
      "d": 97.33601041666407,
      "v": 117
    },
    {
      "midi": 59,
      "hit": false,
      "t": 79917.98749999999,
      "d": 115.26632812499884,
      "v": 117
    },
    {
      "midi": 62,
      "hit": false,
      "t": 79917.98749999999,
      "d": 120.38927604166383,
      "v": 117
    },
    {
      "midi": 64,
      "hit": false,
      "t": 79917.9875,
      "d": 166.49580729166337,
      "v": 66
    },
    {
      "midi": 88,
      "hit": false,
      "t": 79917.9875,
      "d": 166.49580729166337,
      "v": 66
    },
    {
      "midi": 66,
      "hit": false,
      "t": 80163.889,
      "d": 192.1105468750029,
      "v": 66
    },
    {
      "midi": 90,
      "hit": false,
      "t": 80163.889,
      "d": 192.1105468750029,
      "v": 66
    },
    {
      "midi": 55,
      "hit": false,
      "t": 80409.79049999999,
      "d": 89.65158854167385,
      "v": 117
    },
    {
      "midi": 59,
      "hit": false,
      "t": 80409.79049999999,
      "d": 115.26632812501339,
      "v": 117
    },
    {
      "midi": 62,
      "hit": false,
      "t": 80409.79049999999,
      "d": 140.88106770835293,
      "v": 117
    },
    {
      "midi": 66,
      "hit": false,
      "t": 80409.7905,
      "d": 448.2579427083401,
      "v": 66
    },
    {
      "midi": 90,
      "hit": false,
      "t": 80409.7905,
      "d": 448.2579427083401,
      "v": 66
    },
    {
      "midi": 64,
      "hit": false,
      "t": 80901.5935,
      "d": 443.1349947916606,
      "v": 66
    },
    {
      "midi": 88,
      "hit": false,
      "t": 80901.5935,
      "d": 443.1349947916606,
      "v": 66
    },
    {
      "midi": 57,
      "hit": false,
      "t": 80901.5935,
      "d": 102.45895833332906,
      "v": 117
    },
    {
      "midi": 64,
      "hit": false,
      "t": 80901.5935,
      "d": 135.75811979165883,
      "v": 117
    },
    {
      "midi": 61,
      "hit": false,
      "t": 80901.5935,
      "d": 143.4425416666636,
      "v": 117
    },
    {
      "midi": 70,
      "hit": false,
      "t": 81393.3965,
      "d": 455.94236458333035,
      "v": 66
    },
    {
      "midi": 94,
      "hit": false,
      "t": 81393.3965,
      "d": 455.94236458333035,
      "v": 66
    },
    {
      "midi": 58,
      "hit": false,
      "t": 81393.3965,
      "d": 143.4425416666636,
      "v": 117
    },
    {
      "midi": 65,
      "hit": false,
      "t": 81393.3965,
      "d": 143.4425416666636,
      "v": 117
    },
    {
      "midi": 62,
      "hit": false,
      "t": 81393.3965,
      "d": 166.49580729166337,
      "v": 117
    },
    {
      "midi": 68,
      "hit": false,
      "t": 81885.1995,
      "d": 289.446557291667,
      "v": 66
    },
    {
      "midi": 92,
      "hit": false,
      "t": 81885.1995,
      "d": 289.446557291667,
      "v": 66
    },
    {
      "midi": 65,
      "hit": false,
      "t": 81885.1995,
      "d": 122.95075000000361,
      "v": 117
    },
    {
      "midi": 58,
      "hit": false,
      "t": 81885.1995,
      "d": 140.88106770833838,
      "v": 117
    },
    {
      "midi": 62,
      "hit": false,
      "t": 81885.1995,
      "d": 146.00401562500338,
      "v": 117
    },
    {
      "midi": 58,
      "hit": false,
      "t": 82377.0025,
      "d": 81.96716666666907,
      "v": 117
    },
    {
      "midi": 65,
      "hit": false,
      "t": 82377.0025,
      "d": 105.02043229166884,
      "v": 117
    },
    {
      "midi": 62,
      "hit": false,
      "t": 82377.0025,
      "d": 128.0736979166686,
      "v": 117
    },
    {
      "midi": 51,
      "hit": false,
      "t": 82868.8055,
      "d": 74.2827447916643,
      "v": 117
    },
    {
      "midi": 55,
      "hit": false,
      "t": 82868.8055,
      "d": 79.4056927083293,
      "v": 117
    },
    {
      "midi": 58,
      "hit": false,
      "t": 82868.8055,
      "d": 97.33601041666407,
      "v": 117
    },
    {
      "midi": 58,
      "hit": false,
      "t": 83360.6085,
      "d": 76.84421875000407,
      "v": 117
    },
    {
      "midi": 51,
      "hit": false,
      "t": 83360.6085,
      "d": 89.65158854167385,
      "v": 117
    },
    {
      "midi": 55,
      "hit": false,
      "t": 83360.6085,
      "d": 92.21306250001362,
      "v": 117
    },
    {
      "midi": 51,
      "hit": false,
      "t": 83852.41150000002,
      "d": 94.77453645833884,
      "v": 117
    },
    {
      "midi": 58,
      "hit": false,
      "t": 83852.41150000002,
      "d": 97.33601041667862,
      "v": 117
    },
    {
      "midi": 55,
      "hit": false,
      "t": 83852.41150000002,
      "d": 99.8974843750184,
      "v": 117
    },
    {
      "midi": 51,
      "hit": false,
      "t": 84344.21450000003,
      "d": 89.65158854167385,
      "v": 117
    },
    {
      "midi": 55,
      "hit": false,
      "t": 84344.21450000003,
      "d": 92.21306250001362,
      "v": 117
    },
    {
      "midi": 58,
      "hit": false,
      "t": 84344.21450000003,
      "d": 97.33601041667862,
      "v": 117
    },
    {
      "midi": 58,
      "hit": false,
      "t": 84836.01750000005,
      "d": 97.33601041666407,
      "v": 117
    },
    {
      "midi": 55,
      "hit": false,
      "t": 84836.01750000005,
      "d": 99.89748437500384,
      "v": 117
    },
    {
      "midi": 62,
      "hit": false,
      "t": 84836.01750000005,
      "d": 122.95075000000361,
      "v": 117
    },
    {
      "midi": 58,
      "hit": false,
      "t": 85327.82050000005,
      "d": 99.89748437500384,
      "v": 117
    },
    {
      "midi": 55,
      "hit": false,
      "t": 85327.82050000005,
      "d": 102.45895833334362,
      "v": 117
    },
    {
      "midi": 62,
      "hit": false,
      "t": 85327.82050000005,
      "d": 138.31959375001315,
      "v": 117
    },
    {
      "midi": 55,
      "hit": false,
      "t": 85819.62350000006,
      "d": 97.33601041666407,
      "v": 117
    },
    {
      "midi": 58,
      "hit": false,
      "t": 85819.62350000006,
      "d": 97.33601041666407,
      "v": 117
    },
    {
      "midi": 62,
      "hit": false,
      "t": 85819.62350000006,
      "d": 128.0736979166686,
      "v": 117
    },
    {
      "midi": 58,
      "hit": false,
      "t": 86311.42650000006,
      "d": 94.77453645833884,
      "v": 117
    },
    {
      "midi": 55,
      "hit": false,
      "t": 86311.42650000006,
      "d": 117.82780208333861,
      "v": 117
    },
    {
      "midi": 62,
      "hit": false,
      "t": 86311.42650000006,
      "d": 140.88106770833838,
      "v": 117
    },
    {
      "midi": 56,
      "hit": false,
      "t": 86803.22950000006,
      "d": 79.4056927083293,
      "v": 117
    },
    {
      "midi": 60,
      "hit": false,
      "t": 86803.22950000006,
      "d": 97.33601041666407,
      "v": 117
    },
    {
      "midi": 63,
      "hit": false,
      "t": 86803.22950000006,
      "d": 102.45895833332906,
      "v": 117
    },
    {
      "midi": 56,
      "hit": false,
      "t": 87295.03250000006,
      "d": 69.1597968749993,
      "v": 117
    },
    {
      "midi": 63,
      "hit": false,
      "t": 87295.03250000006,
      "d": 92.21306249999907,
      "v": 117
    },
    {
      "midi": 60,
      "hit": false,
      "t": 87295.03250000006,
      "d": 112.70485416665906,
      "v": 117
    },
    {
      "midi": 56,
      "hit": false,
      "t": 87786.83550000004,
      "d": 97.33601041666407,
      "v": 117
    },
    {
      "midi": 60,
      "hit": false,
      "t": 87786.83550000004,
      "d": 97.33601041666407,
      "v": 117
    },
    {
      "midi": 63,
      "hit": false,
      "t": 87786.83550000004,
      "d": 128.0736979166686,
      "v": 117
    },
    {
      "midi": 56,
      "hit": false,
      "t": 88278.63850000004,
      "d": 97.33601041666407,
      "v": 117
    },
    {
      "midi": 60,
      "hit": false,
      "t": 88278.63850000004,
      "d": 97.33601041666407,
      "v": 117
    },
    {
      "midi": 63,
      "hit": false,
      "t": 88278.63850000004,
      "d": 140.88106770832383,
      "v": 117
    },
    {
      "midi": 65,
      "hit": false,
      "t": 88770.44150000003,
      "d": 76.84421875000407,
      "v": 117
    },
    {
      "midi": 58,
      "hit": false,
      "t": 88770.44150000003,
      "d": 89.65158854167385,
      "v": 117
    },
    {
      "midi": 62,
      "hit": false,
      "t": 88770.44150000003,
      "d": 120.38927604167839,
      "v": 117
    },
    {
      "midi": 58,
      "hit": false,
      "t": 89262.24450000004,
      "d": 87.09011458333407,
      "v": 117
    },
    {
      "midi": 65,
      "hit": false,
      "t": 89262.24450000004,
      "d": 94.77453645833884,
      "v": 117
    },
    {
      "midi": 62,
      "hit": false,
      "t": 89262.24450000004,
      "d": 97.33601041667862,
      "v": 117
    },
    {
      "midi": 58,
      "hit": false,
      "t": 89754.04750000006,
      "d": 97.33601041666407,
      "v": 117
    },
    {
      "midi": 65,
      "hit": false,
      "t": 89754.04750000006,
      "d": 97.33601041666407,
      "v": 117
    },
    {
      "midi": 62,
      "hit": false,
      "t": 89754.04750000006,
      "d": 99.89748437500384,
      "v": 117
    },
    {
      "midi": 58,
      "hit": false,
      "t": 90245.85050000006,
      "d": 94.77453645833884,
      "v": 117
    },
    {
      "midi": 65,
      "hit": false,
      "t": 90245.85050000006,
      "d": 97.33601041667862,
      "v": 117
    },
    {
      "midi": 62,
      "hit": false,
      "t": 90245.85050000006,
      "d": 122.95075000001816,
      "v": 117
    },
    {
      "midi": 51,
      "hit": false,
      "t": 90737.65350000007,
      "d": 97.33601041666407,
      "v": 117
    },
    {
      "midi": 58,
      "hit": false,
      "t": 90737.65350000007,
      "d": 97.33601041666407,
      "v": 117
    },
    {
      "midi": 55,
      "hit": false,
      "t": 90737.65350000007,
      "d": 99.89748437500384,
      "v": 117
    },
    {
      "midi": 51,
      "hit": false,
      "t": 91229.45650000007,
      "d": 89.65158854167385,
      "v": 117
    },
    {
      "midi": 58,
      "hit": false,
      "t": 91229.45650000007,
      "d": 92.21306250001362,
      "v": 117
    },
    {
      "midi": 55,
      "hit": false,
      "t": 91229.45650000007,
      "d": 94.7745364583534,
      "v": 117
    },
    {
      "midi": 51,
      "hit": false,
      "t": 91721.25950000009,
      "d": 74.2827447916643,
      "v": 117
    },
    {
      "midi": 58,
      "hit": false,
      "t": 91721.25950000009,
      "d": 99.89748437500384,
      "v": 117
    },
    {
      "midi": 55,
      "hit": false,
      "t": 91721.25950000009,
      "d": 102.45895833334362,
      "v": 117
    },
    {
      "midi": 51,
      "hit": false,
      "t": 92213.0625000001,
      "d": 97.33601041666407,
      "v": 117
    },
    {
      "midi": 55,
      "hit": false,
      "t": 92213.0625000001,
      "d": 97.33601041666407,
      "v": 117
    },
    {
      "midi": 58,
      "hit": false,
      "t": 92213.0625000001,
      "d": 105.02043229166884,
      "v": 117
    },
    {
      "midi": 58,
      "hit": false,
      "t": 92704.8655000001,
      "d": 89.65158854167385,
      "v": 117
    },
    {
      "midi": 55,
      "hit": false,
      "t": 92704.8655000001,
      "d": 99.89748437500384,
      "v": 117
    },
    {
      "midi": 62,
      "hit": false,
      "t": 92704.8655000001,
      "d": 130.63517187500838,
      "v": 117
    },
    {
      "midi": 55,
      "hit": false,
      "t": 93196.66850000012,
      "d": 76.84421875000407,
      "v": 117
    },
    {
      "midi": 58,
      "hit": false,
      "t": 93196.66850000012,
      "d": 115.26632812499884,
      "v": 117
    },
    {
      "midi": 62,
      "hit": false,
      "t": 93196.66850000012,
      "d": 117.82780208333861,
      "v": 117
    },
    {
      "midi": 55,
      "hit": false,
      "t": 93688.47150000012,
      "d": 97.33601041666407,
      "v": 117
    },
    {
      "midi": 58,
      "hit": false,
      "t": 93688.47150000012,
      "d": 115.26632812499884,
      "v": 117
    },
    {
      "midi": 62,
      "hit": false,
      "t": 93688.47150000012,
      "d": 120.38927604166383,
      "v": 117
    },
    {
      "midi": 55,
      "hit": false,
      "t": 94180.27450000012,
      "d": 76.84421875000407,
      "v": 117
    },
    {
      "midi": 62,
      "hit": false,
      "t": 94180.27450000012,
      "d": 87.09011458333407,
      "v": 117
    },
    {
      "midi": 58,
      "hit": false,
      "t": 94180.27450000012,
      "d": 94.77453645833884,
      "v": 117
    },
    {
      "midi": 60,
      "hit": false,
      "t": 94672.07750000012,
      "d": 94.77453645833884,
      "v": 117
    },
    {
      "midi": 56,
      "hit": false,
      "t": 94672.07750000012,
      "d": 97.33601041667862,
      "v": 117
    },
    {
      "midi": 63,
      "hit": false,
      "t": 94672.07750000012,
      "d": 120.38927604167839,
      "v": 117
    },
    {
      "midi": 56,
      "hit": false,
      "t": 95163.88050000013,
      "d": 102.45895833332906,
      "v": 117
    },
    {
      "midi": 60,
      "hit": false,
      "t": 95163.88050000013,
      "d": 122.95074999998906,
      "v": 117
    },
    {
      "midi": 63,
      "hit": false,
      "t": 95163.88050000013,
      "d": 128.07369791665406,
      "v": 117
    },
    {
      "midi": 56,
      "hit": false,
      "t": 95655.68350000012,
      "d": 97.33601041666407,
      "v": 117
    },
    {
      "midi": 60,
      "hit": false,
      "t": 95655.68350000012,
      "d": 115.26632812499884,
      "v": 117
    },
    {
      "midi": 63,
      "hit": false,
      "t": 95655.68350000012,
      "d": 120.38927604166383,
      "v": 117
    },
    {
      "midi": 56,
      "hit": false,
      "t": 96147.48650000012,
      "d": 89.65158854167385,
      "v": 117
    },
    {
      "midi": 60,
      "hit": false,
      "t": 96147.48650000012,
      "d": 115.26632812501339,
      "v": 117
    },
    {
      "midi": 63,
      "hit": false,
      "t": 96147.48650000012,
      "d": 140.88106770835293,
      "v": 117
    },
    {
      "midi": 58,
      "hit": false,
      "t": 96639.28950000013,
      "d": 102.45895833332906,
      "v": 117
    },
    {
      "midi": 65,
      "hit": false,
      "t": 96639.28950000013,
      "d": 135.75811979165883,
      "v": 117
    },
    {
      "midi": 62,
      "hit": false,
      "t": 96639.28950000013,
      "d": 143.4425416666636,
      "v": 117
    },
    {
      "midi": 58,
      "hit": false,
      "t": 97131.09250000013,
      "d": 143.4425416666636,
      "v": 117
    },
    {
      "midi": 65,
      "hit": false,
      "t": 97131.09250000013,
      "d": 143.4425416666636,
      "v": 117
    },
    {
      "midi": 62,
      "hit": false,
      "t": 97131.09250000013,
      "d": 166.49580729166337,
      "v": 117
    },
    {
      "midi": 65,
      "hit": false,
      "t": 97622.89550000013,
      "d": 122.95075000000361,
      "v": 117
    },
    {
      "midi": 58,
      "hit": false,
      "t": 97622.89550000013,
      "d": 140.88106770833838,
      "v": 117
    },
    {
      "midi": 62,
      "hit": false,
      "t": 97622.89550000013,
      "d": 146.00401562500338,
      "v": 117
    },
    {
      "midi": 58,
      "hit": false,
      "t": 98114.69850000013,
      "d": 81.96716666666907,
      "v": 117
    },
    {
      "midi": 65,
      "hit": false,
      "t": 98114.69850000013,
      "d": 105.02043229166884,
      "v": 117
    },
    {
      "midi": 62,
      "hit": false,
      "t": 98114.69850000013,
      "d": 128.0736979166686,
      "v": 117
    },
    {
      "midi": 51,
      "hit": false,
      "t": 98606.50150000013,
      "d": 74.2827447916643,
      "v": 117
    },
    {
      "midi": 55,
      "hit": false,
      "t": 98606.50150000013,
      "d": 79.4056927083293,
      "v": 117
    },
    {
      "midi": 58,
      "hit": false,
      "t": 98606.50150000013,
      "d": 97.33601041666407,
      "v": 117
    },
    {
      "midi": 58,
      "hit": false,
      "t": 99098.30450000013,
      "d": 76.84421875000407,
      "v": 117
    },
    {
      "midi": 51,
      "hit": false,
      "t": 99098.30450000013,
      "d": 89.65158854167385,
      "v": 117
    },
    {
      "midi": 55,
      "hit": false,
      "t": 99098.30450000013,
      "d": 92.21306250001362,
      "v": 117
    },
    {
      "midi": 51,
      "hit": false,
      "t": 99590.10750000014,
      "d": 94.77453645833884,
      "v": 117
    },
    {
      "midi": 58,
      "hit": false,
      "t": 99590.10750000014,
      "d": 97.33601041667862,
      "v": 117
    },
    {
      "midi": 55,
      "hit": false,
      "t": 99590.10750000014,
      "d": 99.8974843750184,
      "v": 117
    },
    {
      "midi": 51,
      "hit": false,
      "t": 100081.91050000016,
      "d": 89.65158854167385,
      "v": 117
    },
    {
      "midi": 55,
      "hit": false,
      "t": 100081.91050000016,
      "d": 92.21306250001362,
      "v": 117
    },
    {
      "midi": 58,
      "hit": false,
      "t": 100081.91050000016,
      "d": 97.33601041667862,
      "v": 117
    },
    {
      "midi": 58,
      "hit": false,
      "t": 100573.71350000017,
      "d": 97.33601041666407,
      "v": 117
    },
    {
      "midi": 55,
      "hit": false,
      "t": 100573.71350000017,
      "d": 99.89748437500384,
      "v": 117
    },
    {
      "midi": 62,
      "hit": false,
      "t": 100573.71350000017,
      "d": 122.95075000000361,
      "v": 117
    },
    {
      "midi": 58,
      "hit": false,
      "t": 101065.51650000017,
      "d": 99.89748437500384,
      "v": 117
    },
    {
      "midi": 55,
      "hit": false,
      "t": 101065.51650000017,
      "d": 102.45895833334362,
      "v": 117
    },
    {
      "midi": 62,
      "hit": false,
      "t": 101065.51650000017,
      "d": 138.31959375001315,
      "v": 117
    },
    {
      "midi": 55,
      "hit": false,
      "t": 101557.31950000019,
      "d": 97.33601041666407,
      "v": 117
    },
    {
      "midi": 58,
      "hit": false,
      "t": 101557.31950000019,
      "d": 97.33601041666407,
      "v": 117
    },
    {
      "midi": 62,
      "hit": false,
      "t": 101557.31950000019,
      "d": 128.0736979166686,
      "v": 117
    },
    {
      "midi": 58,
      "hit": false,
      "t": 102049.12250000019,
      "d": 94.77453645833884,
      "v": 117
    },
    {
      "midi": 55,
      "hit": false,
      "t": 102049.12250000019,
      "d": 117.82780208333861,
      "v": 117
    },
    {
      "midi": 62,
      "hit": false,
      "t": 102049.12250000019,
      "d": 140.88106770833838,
      "v": 117
    },
    {
      "midi": 56,
      "hit": false,
      "t": 102540.92550000019,
      "d": 79.4056927083293,
      "v": 117
    },
    {
      "midi": 60,
      "hit": false,
      "t": 102540.92550000019,
      "d": 97.33601041666407,
      "v": 117
    },
    {
      "midi": 63,
      "hit": false,
      "t": 102540.92550000019,
      "d": 102.45895833332906,
      "v": 117
    },
    {
      "midi": 56,
      "hit": false,
      "t": 103032.72850000019,
      "d": 69.1597968749993,
      "v": 117
    },
    {
      "midi": 63,
      "hit": false,
      "t": 103032.72850000019,
      "d": 92.21306249999907,
      "v": 117
    },
    {
      "midi": 60,
      "hit": false,
      "t": 103032.72850000019,
      "d": 112.70485416665906,
      "v": 117
    },
    {
      "midi": 68,
      "hit": false,
      "t": 103278.63,
      "d": 120.38927604166383,
      "v": 85
    },
    {
      "midi": 69,
      "hit": false,
      "t": 103401.58075000001,
      "d": 120.38927604166383,
      "v": 90
    },
    {
      "midi": 70,
      "hit": false,
      "t": 103524.53150000001,
      "d": 120.38927604166383,
      "v": 96
    },
    {
      "midi": 56,
      "hit": false,
      "t": 103524.53150000017,
      "d": 97.33601041666407,
      "v": 117
    },
    {
      "midi": 60,
      "hit": false,
      "t": 103524.53150000017,
      "d": 97.33601041666407,
      "v": 117
    },
    {
      "midi": 63,
      "hit": false,
      "t": 103524.53150000017,
      "d": 128.0736979166686,
      "v": 117
    },
    {
      "midi": 71,
      "hit": false,
      "t": 103647.48225000002,
      "d": 120.38927604166383,
      "v": 102
    },
    {
      "midi": 72,
      "hit": false,
      "t": 103770.43300000002,
      "d": 120.38927604166383,
      "v": 108
    },
    {
      "midi": 73,
      "hit": false,
      "t": 103893.38375000002,
      "d": 120.38927604166383,
      "v": 114
    },
    {
      "midi": 74,
      "hit": false,
      "t": 104016.33450000003,
      "d": 120.38927604166383,
      "v": 120
    },
    {
      "midi": 56,
      "hit": false,
      "t": 104016.33450000017,
      "d": 97.33601041666407,
      "v": 117
    },
    {
      "midi": 60,
      "hit": false,
      "t": 104016.33450000017,
      "d": 97.33601041666407,
      "v": 117
    },
    {
      "midi": 63,
      "hit": false,
      "t": 104016.33450000017,
      "d": 140.88106770832383,
      "v": 117
    },
    {
      "midi": 75,
      "hit": false,
      "t": 104139.28525000003,
      "d": 120.38927604166383,
      "v": 126
    },
    {
      "midi": 79,
      "hit": false,
      "t": 104262.23600000003,
      "d": 1349.8967760416708,
      "v": 127
    },
    {
      "midi": 65,
      "hit": false,
      "t": 104508.13750000016,
      "d": 76.84421875000407,
      "v": 117
    },
    {
      "midi": 58,
      "hit": false,
      "t": 104508.13750000016,
      "d": 89.65158854167385,
      "v": 117
    },
    {
      "midi": 62,
      "hit": false,
      "t": 104508.13750000016,
      "d": 120.38927604167839,
      "v": 117
    },
    {
      "midi": 58,
      "hit": false,
      "t": 104999.94050000017,
      "d": 87.09011458333407,
      "v": 117
    },
    {
      "midi": 65,
      "hit": false,
      "t": 104999.94050000017,
      "d": 94.77453645833884,
      "v": 117
    },
    {
      "midi": 62,
      "hit": false,
      "t": 104999.94050000017,
      "d": 97.33601041667862,
      "v": 117
    },
    {
      "midi": 58,
      "hit": false,
      "t": 105491.74350000019,
      "d": 97.33601041666407,
      "v": 117
    },
    {
      "midi": 65,
      "hit": false,
      "t": 105491.74350000019,
      "d": 97.33601041666407,
      "v": 117
    },
    {
      "midi": 62,
      "hit": false,
      "t": 105491.74350000019,
      "d": 99.89748437500384,
      "v": 117
    },
    {
      "midi": 58,
      "hit": false,
      "t": 105983.54650000019,
      "d": 94.77453645833884,
      "v": 117
    },
    {
      "midi": 65,
      "hit": false,
      "t": 105983.54650000019,
      "d": 97.33601041667862,
      "v": 117
    },
    {
      "midi": 62,
      "hit": false,
      "t": 105983.54650000019,
      "d": 122.95075000001816,
      "v": 117
    },
    {
      "midi": 51,
      "hit": false,
      "t": 106475.3495000002,
      "d": 97.33601041666407,
      "v": 117
    },
    {
      "midi": 58,
      "hit": false,
      "t": 106475.3495000002,
      "d": 97.33601041666407,
      "v": 117
    },
    {
      "midi": 55,
      "hit": false,
      "t": 106475.3495000002,
      "d": 99.89748437500384,
      "v": 117
    },
    {
      "midi": 51,
      "hit": false,
      "t": 106967.1525000002,
      "d": 89.65158854167385,
      "v": 117
    },
    {
      "midi": 58,
      "hit": false,
      "t": 106967.1525000002,
      "d": 92.21306250001362,
      "v": 117
    },
    {
      "midi": 55,
      "hit": false,
      "t": 106967.1525000002,
      "d": 94.7745364583534,
      "v": 117
    },
    {
      "midi": 51,
      "hit": false,
      "t": 107458.95550000021,
      "d": 74.2827447916643,
      "v": 117
    },
    {
      "midi": 58,
      "hit": false,
      "t": 107458.95550000021,
      "d": 99.89748437500384,
      "v": 117
    },
    {
      "midi": 55,
      "hit": false,
      "t": 107458.95550000021,
      "d": 102.45895833334362,
      "v": 117
    },
    {
      "midi": 51,
      "hit": false,
      "t": 107950.75850000023,
      "d": 97.33601041666407,
      "v": 117
    },
    {
      "midi": 55,
      "hit": false,
      "t": 107950.75850000023,
      "d": 97.33601041666407,
      "v": 117
    },
    {
      "midi": 58,
      "hit": false,
      "t": 107950.75850000023,
      "d": 105.02043229166884,
      "v": 117
    },
    {
      "midi": 58,
      "hit": false,
      "t": 108442.56150000023,
      "d": 89.65158854167385,
      "v": 117
    },
    {
      "midi": 55,
      "hit": false,
      "t": 108442.56150000023,
      "d": 99.89748437500384,
      "v": 117
    },
    {
      "midi": 62,
      "hit": false,
      "t": 108442.56150000023,
      "d": 130.63517187500838,
      "v": 117
    },
    {
      "midi": 55,
      "hit": false,
      "t": 108934.36450000024,
      "d": 76.84421875000407,
      "v": 117
    },
    {
      "midi": 58,
      "hit": false,
      "t": 108934.36450000024,
      "d": 115.26632812499884,
      "v": 117
    },
    {
      "midi": 62,
      "hit": false,
      "t": 108934.36450000024,
      "d": 117.82780208333861,
      "v": 117
    },
    {
      "midi": 55,
      "hit": false,
      "t": 109426.16750000024,
      "d": 97.33601041666407,
      "v": 117
    },
    {
      "midi": 58,
      "hit": false,
      "t": 109426.16750000024,
      "d": 115.26632812499884,
      "v": 117
    },
    {
      "midi": 62,
      "hit": false,
      "t": 109426.16750000024,
      "d": 120.38927604166383,
      "v": 117
    },
    {
      "midi": 55,
      "hit": false,
      "t": 109917.97050000024,
      "d": 76.84421875000407,
      "v": 117
    },
    {
      "midi": 62,
      "hit": false,
      "t": 109917.97050000024,
      "d": 87.09011458333407,
      "v": 117
    },
    {
      "midi": 58,
      "hit": false,
      "t": 109917.97050000024,
      "d": 94.77453645833884,
      "v": 117
    },
    {
      "midi": 60,
      "hit": false,
      "t": 110409.77350000024,
      "d": 94.77453645833884,
      "v": 117
    },
    {
      "midi": 56,
      "hit": false,
      "t": 110409.77350000024,
      "d": 97.33601041667862,
      "v": 117
    },
    {
      "midi": 63,
      "hit": false,
      "t": 110409.77350000024,
      "d": 120.38927604167839,
      "v": 117
    },
    {
      "midi": 56,
      "hit": false,
      "t": 110901.57650000026,
      "d": 102.45895833332906,
      "v": 117
    },
    {
      "midi": 60,
      "hit": false,
      "t": 110901.57650000026,
      "d": 122.95074999998906,
      "v": 117
    },
    {
      "midi": 63,
      "hit": false,
      "t": 110901.57650000026,
      "d": 128.07369791665406,
      "v": 117
    },
    {
      "midi": 68,
      "hit": false,
      "t": 111147.47800000003,
      "d": 120.38927604166383,
      "v": 85
    },
    {
      "midi": 69,
      "hit": false,
      "t": 111270.42875000004,
      "d": 120.38927604166383,
      "v": 90
    },
    {
      "midi": 70,
      "hit": false,
      "t": 111393.37950000004,
      "d": 120.38927604166383,
      "v": 96
    },
    {
      "midi": 56,
      "hit": false,
      "t": 111393.37950000024,
      "d": 97.33601041666407,
      "v": 117
    },
    {
      "midi": 60,
      "hit": false,
      "t": 111393.37950000024,
      "d": 115.26632812499884,
      "v": 117
    },
    {
      "midi": 63,
      "hit": false,
      "t": 111393.37950000024,
      "d": 120.38927604166383,
      "v": 117
    },
    {
      "midi": 71,
      "hit": false,
      "t": 111516.33025000004,
      "d": 120.38927604166383,
      "v": 102
    },
    {
      "midi": 72,
      "hit": false,
      "t": 111639.28100000005,
      "d": 120.38927604166383,
      "v": 108
    },
    {
      "midi": 73,
      "hit": false,
      "t": 111762.23175000005,
      "d": 120.38927604166383,
      "v": 114
    },
    {
      "midi": 74,
      "hit": false,
      "t": 111885.18250000005,
      "d": 120.38927604166383,
      "v": 120
    },
    {
      "midi": 56,
      "hit": false,
      "t": 111885.18250000024,
      "d": 89.65158854167385,
      "v": 117
    },
    {
      "midi": 60,
      "hit": false,
      "t": 111885.18250000024,
      "d": 115.26632812501339,
      "v": 117
    },
    {
      "midi": 63,
      "hit": false,
      "t": 111885.18250000024,
      "d": 140.88106770835293,
      "v": 117
    },
    {
      "midi": 75,
      "hit": false,
      "t": 112008.13325000006,
      "d": 120.38927604166383,
      "v": 126
    },
    {
      "midi": 79,
      "hit": false,
      "t": 112131.08400000006,
      "d": 2333.5027760416706,
      "v": 127
    },
    {
      "midi": 58,
      "hit": false,
      "t": 112376.98550000026,
      "d": 102.45895833332906,
      "v": 117
    },
    {
      "midi": 65,
      "hit": false,
      "t": 112376.98550000026,
      "d": 135.75811979165883,
      "v": 117
    },
    {
      "midi": 62,
      "hit": false,
      "t": 112376.98550000026,
      "d": 143.4425416666636,
      "v": 117
    },
    {
      "midi": 58,
      "hit": false,
      "t": 112868.78850000026,
      "d": 143.4425416666636,
      "v": 117
    },
    {
      "midi": 65,
      "hit": false,
      "t": 112868.78850000026,
      "d": 143.4425416666636,
      "v": 117
    },
    {
      "midi": 62,
      "hit": false,
      "t": 112868.78850000026,
      "d": 166.49580729166337,
      "v": 117
    },
    {
      "midi": 65,
      "hit": false,
      "t": 113360.59150000026,
      "d": 122.95075000000361,
      "v": 117
    },
    {
      "midi": 58,
      "hit": false,
      "t": 113360.59150000026,
      "d": 140.88106770833838,
      "v": 117
    },
    {
      "midi": 62,
      "hit": false,
      "t": 113360.59150000026,
      "d": 146.00401562500338,
      "v": 117
    },
    {
      "midi": 58,
      "hit": false,
      "t": 113852.39450000026,
      "d": 81.96716666666907,
      "v": 117
    },
    {
      "midi": 65,
      "hit": false,
      "t": 113852.39450000026,
      "d": 105.02043229166884,
      "v": 117
    },
    {
      "midi": 62,
      "hit": false,
      "t": 113852.39450000026,
      "d": 128.0736979166686,
      "v": 117
    },
    {
      "midi": 51,
      "hit": false,
      "t": 114344.19750000026,
      "d": 74.2827447916643,
      "v": 117
    },
    {
      "midi": 55,
      "hit": false,
      "t": 114344.19750000026,
      "d": 79.4056927083293,
      "v": 117
    },
    {
      "midi": 58,
      "hit": false,
      "t": 114344.19750000026,
      "d": 97.33601041666407,
      "v": 117
    },
    {
      "midi": 58,
      "hit": false,
      "t": 114836.00050000026,
      "d": 76.84421875000407,
      "v": 117
    },
    {
      "midi": 51,
      "hit": false,
      "t": 114836.00050000026,
      "d": 89.65158854167385,
      "v": 117
    },
    {
      "midi": 55,
      "hit": false,
      "t": 114836.00050000026,
      "d": 92.21306250001362,
      "v": 117
    },
    {
      "midi": 51,
      "hit": false,
      "t": 115327.80350000027,
      "d": 94.77453645833884,
      "v": 117
    },
    {
      "midi": 58,
      "hit": false,
      "t": 115327.80350000027,
      "d": 97.33601041667862,
      "v": 117
    },
    {
      "midi": 55,
      "hit": false,
      "t": 115327.80350000027,
      "d": 99.8974843750184,
      "v": 117
    },
    {
      "midi": 51,
      "hit": false,
      "t": 115819.60650000029,
      "d": 89.65158854167385,
      "v": 117
    },
    {
      "midi": 55,
      "hit": false,
      "t": 115819.60650000029,
      "d": 92.21306250001362,
      "v": 117
    },
    {
      "midi": 58,
      "hit": false,
      "t": 115819.60650000029,
      "d": 97.33601041667862,
      "v": 117
    },
    {
      "midi": 58,
      "hit": false,
      "t": 116311.4095000003,
      "d": 97.33601041666407,
      "v": 117
    },
    {
      "midi": 55,
      "hit": false,
      "t": 116311.4095000003,
      "d": 99.89748437500384,
      "v": 117
    },
    {
      "midi": 62,
      "hit": false,
      "t": 116311.4095000003,
      "d": 122.95075000000361,
      "v": 117
    },
    {
      "midi": 58,
      "hit": false,
      "t": 116803.2125000003,
      "d": 99.89748437500384,
      "v": 117
    },
    {
      "midi": 55,
      "hit": false,
      "t": 116803.2125000003,
      "d": 102.45895833334362,
      "v": 117
    },
    {
      "midi": 62,
      "hit": false,
      "t": 116803.2125000003,
      "d": 138.31959375001315,
      "v": 117
    },
    {
      "midi": 55,
      "hit": false,
      "t": 117295.01550000031,
      "d": 97.33601041666407,
      "v": 117
    },
    {
      "midi": 58,
      "hit": false,
      "t": 117295.01550000031,
      "d": 97.33601041666407,
      "v": 117
    },
    {
      "midi": 62,
      "hit": false,
      "t": 117295.01550000031,
      "d": 128.0736979166686,
      "v": 117
    },
    {
      "midi": 58,
      "hit": false,
      "t": 117786.81850000031,
      "d": 94.77453645833884,
      "v": 117
    },
    {
      "midi": 55,
      "hit": false,
      "t": 117786.81850000031,
      "d": 117.82780208333861,
      "v": 117
    },
    {
      "midi": 62,
      "hit": false,
      "t": 117786.81850000031,
      "d": 140.88106770833838,
      "v": 117
    },
    {
      "midi": 56,
      "hit": false,
      "t": 118278.62150000031,
      "d": 79.4056927083293,
      "v": 117
    },
    {
      "midi": 60,
      "hit": false,
      "t": 118278.62150000031,
      "d": 97.33601041666407,
      "v": 117
    },
    {
      "midi": 63,
      "hit": false,
      "t": 118278.62150000031,
      "d": 102.45895833332906,
      "v": 117
    },
    {
      "midi": 56,
      "hit": false,
      "t": 118770.42450000031,
      "d": 69.1597968749993,
      "v": 117
    },
    {
      "midi": 63,
      "hit": false,
      "t": 118770.42450000031,
      "d": 92.21306249999907,
      "v": 117
    },
    {
      "midi": 60,
      "hit": false,
      "t": 118770.42450000031,
      "d": 112.70485416665906,
      "v": 117
    },
    {
      "midi": 68,
      "hit": false,
      "t": 119016.32600000006,
      "d": 120.38927604166383,
      "v": 85
    },
    {
      "midi": 69,
      "hit": false,
      "t": 119139.27675000006,
      "d": 120.38927604166383,
      "v": 90
    },
    {
      "midi": 70,
      "hit": false,
      "t": 119262.22750000007,
      "d": 120.38927604166383,
      "v": 96
    },
    {
      "midi": 56,
      "hit": false,
      "t": 119262.2275000003,
      "d": 97.33601041666407,
      "v": 117
    },
    {
      "midi": 60,
      "hit": false,
      "t": 119262.2275000003,
      "d": 97.33601041666407,
      "v": 117
    },
    {
      "midi": 63,
      "hit": false,
      "t": 119262.2275000003,
      "d": 128.0736979166686,
      "v": 117
    },
    {
      "midi": 71,
      "hit": false,
      "t": 119385.17825000007,
      "d": 120.38927604166383,
      "v": 102
    },
    {
      "midi": 72,
      "hit": false,
      "t": 119508.12900000007,
      "d": 120.38927604166383,
      "v": 108
    },
    {
      "midi": 73,
      "hit": false,
      "t": 119631.07975000008,
      "d": 120.38927604166383,
      "v": 114
    },
    {
      "midi": 74,
      "hit": false,
      "t": 119754.03050000008,
      "d": 120.38927604166383,
      "v": 120
    },
    {
      "midi": 56,
      "hit": false,
      "t": 119754.0305000003,
      "d": 97.33601041666407,
      "v": 117
    },
    {
      "midi": 60,
      "hit": false,
      "t": 119754.0305000003,
      "d": 97.33601041666407,
      "v": 117
    },
    {
      "midi": 63,
      "hit": false,
      "t": 119754.0305000003,
      "d": 140.88106770832383,
      "v": 117
    },
    {
      "midi": 75,
      "hit": false,
      "t": 119876.98125000008,
      "d": 120.38927604166383,
      "v": 126
    },
    {
      "midi": 79,
      "hit": false,
      "t": 119999.93200000009,
      "d": 1349.8967760416708,
      "v": 127
    },
    {
      "midi": 65,
      "hit": false,
      "t": 120245.83350000028,
      "d": 76.84421875000407,
      "v": 117
    },
    {
      "midi": 58,
      "hit": false,
      "t": 120245.83350000028,
      "d": 89.65158854167385,
      "v": 117
    },
    {
      "midi": 62,
      "hit": false,
      "t": 120245.83350000028,
      "d": 120.38927604167839,
      "v": 117
    },
    {
      "midi": 58,
      "hit": false,
      "t": 120737.6365000003,
      "d": 87.09011458333407,
      "v": 117
    },
    {
      "midi": 65,
      "hit": false,
      "t": 120737.6365000003,
      "d": 94.77453645833884,
      "v": 117
    },
    {
      "midi": 62,
      "hit": false,
      "t": 120737.6365000003,
      "d": 97.33601041667862,
      "v": 117
    },
    {
      "midi": 58,
      "hit": false,
      "t": 121229.43950000031,
      "d": 97.33601041666407,
      "v": 117
    },
    {
      "midi": 65,
      "hit": false,
      "t": 121229.43950000031,
      "d": 97.33601041666407,
      "v": 117
    },
    {
      "midi": 62,
      "hit": false,
      "t": 121229.43950000031,
      "d": 99.89748437500384,
      "v": 117
    },
    {
      "midi": 58,
      "hit": false,
      "t": 121721.24250000031,
      "d": 94.77453645833884,
      "v": 117
    },
    {
      "midi": 65,
      "hit": false,
      "t": 121721.24250000031,
      "d": 97.33601041667862,
      "v": 117
    },
    {
      "midi": 62,
      "hit": false,
      "t": 121721.24250000031,
      "d": 122.95075000001816,
      "v": 117
    },
    {
      "midi": 51,
      "hit": false,
      "t": 122213.04550000033,
      "d": 97.33601041666407,
      "v": 117
    },
    {
      "midi": 58,
      "hit": false,
      "t": 122213.04550000033,
      "d": 97.33601041666407,
      "v": 117
    },
    {
      "midi": 55,
      "hit": false,
      "t": 122213.04550000033,
      "d": 99.89748437500384,
      "v": 117
    },
    {
      "midi": 51,
      "hit": false,
      "t": 122704.84850000033,
      "d": 89.65158854167385,
      "v": 117
    },
    {
      "midi": 58,
      "hit": false,
      "t": 122704.84850000033,
      "d": 92.21306250001362,
      "v": 117
    },
    {
      "midi": 55,
      "hit": false,
      "t": 122704.84850000033,
      "d": 94.7745364583534,
      "v": 117
    },
    {
      "midi": 51,
      "hit": false,
      "t": 123196.65150000034,
      "d": 74.2827447916643,
      "v": 117
    },
    {
      "midi": 58,
      "hit": false,
      "t": 123196.65150000034,
      "d": 99.89748437500384,
      "v": 117
    },
    {
      "midi": 55,
      "hit": false,
      "t": 123196.65150000034,
      "d": 102.45895833334362,
      "v": 117
    },
    {
      "midi": 51,
      "hit": false,
      "t": 123688.45450000036,
      "d": 97.33601041666407,
      "v": 117
    },
    {
      "midi": 55,
      "hit": false,
      "t": 123688.45450000036,
      "d": 97.33601041666407,
      "v": 117
    },
    {
      "midi": 58,
      "hit": false,
      "t": 123688.45450000036,
      "d": 105.02043229166884,
      "v": 117
    },
    {
      "midi": 58,
      "hit": false,
      "t": 124180.25750000036,
      "d": 89.65158854167385,
      "v": 117
    },
    {
      "midi": 55,
      "hit": false,
      "t": 124180.25750000036,
      "d": 99.89748437500384,
      "v": 117
    },
    {
      "midi": 62,
      "hit": false,
      "t": 124180.25750000036,
      "d": 130.63517187500838,
      "v": 117
    },
    {
      "midi": 55,
      "hit": false,
      "t": 124672.06050000037,
      "d": 76.84421875000407,
      "v": 117
    },
    {
      "midi": 58,
      "hit": false,
      "t": 124672.06050000037,
      "d": 115.26632812499884,
      "v": 117
    },
    {
      "midi": 62,
      "hit": false,
      "t": 124672.06050000037,
      "d": 117.82780208333861,
      "v": 117
    },
    {
      "midi": 55,
      "hit": false,
      "t": 125163.86350000037,
      "d": 97.33601041666407,
      "v": 117
    },
    {
      "midi": 58,
      "hit": false,
      "t": 125163.86350000037,
      "d": 115.26632812499884,
      "v": 117
    },
    {
      "midi": 62,
      "hit": false,
      "t": 125163.86350000037,
      "d": 120.38927604166383,
      "v": 117
    },
    {
      "midi": 55,
      "hit": false,
      "t": 125655.66650000037,
      "d": 76.84421875000407,
      "v": 117
    },
    {
      "midi": 62,
      "hit": false,
      "t": 125655.66650000037,
      "d": 87.09011458333407,
      "v": 117
    },
    {
      "midi": 58,
      "hit": false,
      "t": 125655.66650000037,
      "d": 94.77453645833884,
      "v": 117
    },
    {
      "midi": 60,
      "hit": false,
      "t": 126147.46950000037,
      "d": 94.77453645833884,
      "v": 117
    },
    {
      "midi": 56,
      "hit": false,
      "t": 126147.46950000037,
      "d": 97.33601041667862,
      "v": 117
    },
    {
      "midi": 63,
      "hit": false,
      "t": 126147.46950000037,
      "d": 120.38927604167839,
      "v": 117
    },
    {
      "midi": 56,
      "hit": false,
      "t": 126639.27250000038,
      "d": 102.45895833332906,
      "v": 117
    },
    {
      "midi": 60,
      "hit": false,
      "t": 126639.27250000038,
      "d": 122.95074999998906,
      "v": 117
    },
    {
      "midi": 63,
      "hit": false,
      "t": 126639.27250000038,
      "d": 128.07369791665406,
      "v": 117
    },
    {
      "midi": 68,
      "hit": false,
      "t": 126885.17400000009,
      "d": 120.38927604166383,
      "v": 85
    },
    {
      "midi": 69,
      "hit": false,
      "t": 127008.12475000009,
      "d": 120.38927604166383,
      "v": 90
    },
    {
      "midi": 70,
      "hit": false,
      "t": 127131.0755000001,
      "d": 120.38927604166383,
      "v": 96
    },
    {
      "midi": 56,
      "hit": false,
      "t": 127131.07550000037,
      "d": 97.33601041666407,
      "v": 117
    },
    {
      "midi": 60,
      "hit": false,
      "t": 127131.07550000037,
      "d": 115.26632812499884,
      "v": 117
    },
    {
      "midi": 63,
      "hit": false,
      "t": 127131.07550000037,
      "d": 120.38927604166383,
      "v": 117
    },
    {
      "midi": 71,
      "hit": false,
      "t": 127254.0262500001,
      "d": 120.38927604166383,
      "v": 102
    },
    {
      "midi": 72,
      "hit": false,
      "t": 127376.9770000001,
      "d": 120.38927604166383,
      "v": 108
    },
    {
      "midi": 73,
      "hit": false,
      "t": 127499.9277500001,
      "d": 120.38927604166383,
      "v": 114
    },
    {
      "midi": 74,
      "hit": false,
      "t": 127622.87850000011,
      "d": 120.38927604166383,
      "v": 120
    },
    {
      "midi": 56,
      "hit": false,
      "t": 127622.87850000037,
      "d": 89.65158854167385,
      "v": 117
    },
    {
      "midi": 60,
      "hit": false,
      "t": 127622.87850000037,
      "d": 115.26632812501339,
      "v": 117
    },
    {
      "midi": 63,
      "hit": false,
      "t": 127622.87850000037,
      "d": 140.88106770835293,
      "v": 117
    },
    {
      "midi": 75,
      "hit": false,
      "t": 127745.82925000011,
      "d": 120.38927604166383,
      "v": 126
    },
    {
      "midi": 79,
      "hit": false,
      "t": 127868.78000000012,
      "d": 1349.8967760416708,
      "v": 127
    },
    {
      "midi": 58,
      "hit": false,
      "t": 128114.68150000038,
      "d": 102.45895833332906,
      "v": 117
    },
    {
      "midi": 65,
      "hit": false,
      "t": 128114.68150000038,
      "d": 135.75811979165883,
      "v": 117
    },
    {
      "midi": 62,
      "hit": false,
      "t": 128114.68150000038,
      "d": 143.4425416666636,
      "v": 117
    },
    {
      "midi": 58,
      "hit": false,
      "t": 128606.48450000038,
      "d": 143.4425416666636,
      "v": 117
    },
    {
      "midi": 65,
      "hit": false,
      "t": 128606.48450000038,
      "d": 143.4425416666636,
      "v": 117
    },
    {
      "midi": 62,
      "hit": false,
      "t": 128606.48450000038,
      "d": 166.49580729166337,
      "v": 117
    },
    {
      "midi": 65,
      "hit": false,
      "t": 129098.28750000038,
      "d": 122.95075000000361,
      "v": 117
    },
    {
      "midi": 58,
      "hit": false,
      "t": 129098.28750000038,
      "d": 140.88106770833838,
      "v": 117
    },
    {
      "midi": 62,
      "hit": false,
      "t": 129098.28750000038,
      "d": 146.00401562500338,
      "v": 117
    },
    {
      "midi": 58,
      "hit": false,
      "t": 129590.09050000038,
      "d": 81.96716666666907,
      "v": 117
    },
    {
      "midi": 65,
      "hit": false,
      "t": 129590.09050000038,
      "d": 105.02043229166884,
      "v": 117
    },
    {
      "midi": 62,
      "hit": false,
      "t": 129590.09050000038,
      "d": 128.0736979166686,
      "v": 117
    },
    {
      "midi": 70,
      "hit": false,
      "t": 129835.992,
      "d": 371.41372395833605,
      "v": 66
    },
    {
      "midi": 94,
      "hit": false,
      "t": 129835.992,
      "d": 371.41372395833605,
      "v": 66
    },
    {
      "midi": 51,
      "hit": false,
      "t": 130081.89350000038,
      "d": 74.2827447916643,
      "v": 117
    },
    {
      "midi": 55,
      "hit": false,
      "t": 130081.89350000038,
      "d": 79.4056927083293,
      "v": 117
    },
    {
      "midi": 58,
      "hit": false,
      "t": 130081.89350000038,
      "d": 97.33601041666407,
      "v": 117
    },
    {
      "midi": 68,
      "hit": false,
      "t": 130327.795,
      "d": 338.1145625000063,
      "v": 66
    },
    {
      "midi": 92,
      "hit": false,
      "t": 130327.795,
      "d": 338.1145625000063,
      "v": 66
    },
    {
      "midi": 58,
      "hit": false,
      "t": 130573.69650000038,
      "d": 76.84421875000407,
      "v": 117
    },
    {
      "midi": 51,
      "hit": false,
      "t": 130573.69650000038,
      "d": 89.65158854167385,
      "v": 117
    },
    {
      "midi": 55,
      "hit": false,
      "t": 130573.69650000038,
      "d": 92.21306250001362,
      "v": 117
    },
    {
      "midi": 67,
      "hit": false,
      "t": 130819.598,
      "d": 184.42612499999814,
      "v": 66
    },
    {
      "midi": 91,
      "hit": false,
      "t": 130819.598,
      "d": 184.42612499999814,
      "v": 66
    },
    {
      "midi": 68,
      "hit": false,
      "t": 131065.49949999999,
      "d": 192.1105468750029,
      "v": 66
    },
    {
      "midi": 92,
      "hit": false,
      "t": 131065.49949999999,
      "d": 192.1105468750029,
      "v": 66
    },
    {
      "midi": 51,
      "hit": false,
      "t": 131065.4995000004,
      "d": 94.77453645832429,
      "v": 117
    },
    {
      "midi": 58,
      "hit": false,
      "t": 131065.4995000004,
      "d": 97.33601041666407,
      "v": 117
    },
    {
      "midi": 55,
      "hit": false,
      "t": 131065.4995000004,
      "d": 99.89748437500384,
      "v": 117
    },
    {
      "midi": 70,
      "hit": false,
      "t": 131311.40099999998,
      "d": 140.88106770833838,
      "v": 66
    },
    {
      "midi": 94,
      "hit": false,
      "t": 131311.40099999998,
      "d": 140.88106770833838,
      "v": 66
    },
    {
      "midi": 70,
      "hit": false,
      "t": 131557.3025,
      "d": 379.09814583332627,
      "v": 66
    },
    {
      "midi": 94,
      "hit": false,
      "t": 131557.3025,
      "d": 379.09814583332627,
      "v": 66
    },
    {
      "midi": 51,
      "hit": false,
      "t": 131557.3025000004,
      "d": 89.6515885416593,
      "v": 117
    },
    {
      "midi": 55,
      "hit": false,
      "t": 131557.3025000004,
      "d": 92.21306249999907,
      "v": 117
    },
    {
      "midi": 58,
      "hit": false,
      "t": 131557.3025000004,
      "d": 97.33601041667862,
      "v": 117
    },
    {
      "midi": 74,
      "hit": false,
      "t": 132049.10549999998,
      "d": 353.48340624998673,
      "v": 66
    },
    {
      "midi": 98,
      "hit": false,
      "t": 132049.10549999998,
      "d": 353.48340624998673,
      "v": 66
    },
    {
      "midi": 58,
      "hit": false,
      "t": 132049.1055000004,
      "d": 97.33601041667862,
      "v": 117
    },
    {
      "midi": 55,
      "hit": false,
      "t": 132049.1055000004,
      "d": 99.8974843750184,
      "v": 117
    },
    {
      "midi": 62,
      "hit": false,
      "t": 132049.1055000004,
      "d": 122.95075000001816,
      "v": 117
    },
    {
      "midi": 70,
      "hit": false,
      "t": 132540.90849999996,
      "d": 330.43014062498696,
      "v": 66
    },
    {
      "midi": 94,
      "hit": false,
      "t": 132540.90849999996,
      "d": 330.43014062498696,
      "v": 66
    },
    {
      "midi": 58,
      "hit": false,
      "t": 132540.90850000043,
      "d": 99.89748437498929,
      "v": 117
    },
    {
      "midi": 55,
      "hit": false,
      "t": 132540.90850000043,
      "d": 102.45895833332906,
      "v": 117
    },
    {
      "midi": 62,
      "hit": false,
      "t": 132540.90850000043,
      "d": 138.3195937499986,
      "v": 117
    },
    {
      "midi": 67,
      "hit": false,
      "t": 133032.71149999995,
      "d": 601.9463802083337,
      "v": 66
    },
    {
      "midi": 91,
      "hit": false,
      "t": 133032.71149999995,
      "d": 601.9463802083337,
      "v": 66
    },
    {
      "midi": 55,
      "hit": false,
      "t": 133032.7115000004,
      "d": 97.33601041667862,
      "v": 117
    },
    {
      "midi": 58,
      "hit": false,
      "t": 133032.7115000004,
      "d": 97.33601041667862,
      "v": 117
    },
    {
      "midi": 62,
      "hit": false,
      "t": 133032.7115000004,
      "d": 128.0736979166686,
      "v": 117
    },
    {
      "midi": 58,
      "hit": false,
      "t": 133524.51450000043,
      "d": 94.77453645833884,
      "v": 117
    },
    {
      "midi": 55,
      "hit": false,
      "t": 133524.51450000043,
      "d": 117.82780208333861,
      "v": 117
    },
    {
      "midi": 62,
      "hit": false,
      "t": 133524.51450000043,
      "d": 140.88106770833838,
      "v": 117
    },
    {
      "midi": 67,
      "hit": false,
      "t": 133770.41599999994,
      "d": 397.0284635416756,
      "v": 66
    },
    {
      "midi": 91,
      "hit": false,
      "t": 133770.41599999994,
      "d": 397.0284635416756,
      "v": 66
    },
    {
      "midi": 56,
      "hit": false,
      "t": 134016.31750000044,
      "d": 79.4056927083293,
      "v": 117
    },
    {
      "midi": 60,
      "hit": false,
      "t": 134016.31750000044,
      "d": 97.33601041664951,
      "v": 117
    },
    {
      "midi": 63,
      "hit": false,
      "t": 134016.31750000044,
      "d": 102.45895833332906,
      "v": 117
    },
    {
      "midi": 65,
      "hit": false,
      "t": 134262.21899999995,
      "d": 345.7989843749965,
      "v": 66
    },
    {
      "midi": 89,
      "hit": false,
      "t": 134262.21899999995,
      "d": 345.7989843749965,
      "v": 66
    },
    {
      "midi": 56,
      "hit": false,
      "t": 134508.12050000043,
      "d": 69.1597968749993,
      "v": 117
    },
    {
      "midi": 63,
      "hit": false,
      "t": 134508.12050000043,
      "d": 92.21306249999907,
      "v": 117
    },
    {
      "midi": 60,
      "hit": false,
      "t": 134508.12050000043,
      "d": 112.70485416665906,
      "v": 117
    },
    {
      "midi": 63,
      "hit": false,
      "t": 134754.02199999994,
      "d": 230.53265624999767,
      "v": 66
    },
    {
      "midi": 87,
      "hit": false,
      "t": 134754.02199999994,
      "d": 230.53265624999767,
      "v": 66
    },
    {
      "midi": 65,
      "hit": false,
      "t": 134999.92349999995,
      "d": 189.5490729166777,
      "v": 66
    },
    {
      "midi": 89,
      "hit": false,
      "t": 134999.92349999995,
      "d": 189.5490729166777,
      "v": 66
    },
    {
      "midi": 56,
      "hit": false,
      "t": 134999.9235000004,
      "d": 97.33601041667862,
      "v": 117
    },
    {
      "midi": 60,
      "hit": false,
      "t": 134999.9235000004,
      "d": 97.33601041667862,
      "v": 117
    },
    {
      "midi": 63,
      "hit": false,
      "t": 134999.9235000004,
      "d": 128.0736979166686,
      "v": 117
    },
    {
      "midi": 67,
      "hit": false,
      "t": 135245.82499999995,
      "d": 166.49580729167792,
      "v": 66
    },
    {
      "midi": 91,
      "hit": false,
      "t": 135245.82499999995,
      "d": 166.49580729167792,
      "v": 66
    },
    {
      "midi": 67,
      "hit": false,
      "t": 135491.72649999996,
      "d": 448.2579427083256,
      "v": 66
    },
    {
      "midi": 91,
      "hit": false,
      "t": 135491.72649999996,
      "d": 448.2579427083256,
      "v": 66
    },
    {
      "midi": 56,
      "hit": false,
      "t": 135491.72650000043,
      "d": 97.33601041667862,
      "v": 117
    },
    {
      "midi": 60,
      "hit": false,
      "t": 135491.72650000043,
      "d": 97.33601041667862,
      "v": 117
    },
    {
      "midi": 63,
      "hit": false,
      "t": 135491.72650000043,
      "d": 140.88106770833838,
      "v": 117
    },
    {
      "midi": 65,
      "hit": false,
      "t": 135983.52949999995,
      "d": 376.5366718749865,
      "v": 66
    },
    {
      "midi": 89,
      "hit": false,
      "t": 135983.52949999995,
      "d": 376.5366718749865,
      "v": 66
    },
    {
      "midi": 65,
      "hit": false,
      "t": 135983.52950000044,
      "d": 76.84421874998952,
      "v": 117
    },
    {
      "midi": 58,
      "hit": false,
      "t": 135983.52950000044,
      "d": 89.6515885416593,
      "v": 117
    },
    {
      "midi": 62,
      "hit": false,
      "t": 135983.52950000044,
      "d": 120.38927604164928,
      "v": 117
    },
    {
      "midi": 63,
      "hit": false,
      "t": 136475.33249999993,
      "d": 397.0284635416756,
      "v": 66
    },
    {
      "midi": 87,
      "hit": false,
      "t": 136475.33249999993,
      "d": 397.0284635416756,
      "v": 66
    },
    {
      "midi": 58,
      "hit": false,
      "t": 136475.33250000043,
      "d": 87.09011458331952,
      "v": 117
    },
    {
      "midi": 65,
      "hit": false,
      "t": 136475.33250000043,
      "d": 94.77453645830974,
      "v": 117
    },
    {
      "midi": 62,
      "hit": false,
      "t": 136475.33250000043,
      "d": 97.33601041664951,
      "v": 117
    },
    {
      "midi": 65,
      "hit": false,
      "t": 136967.13549999995,
      "d": 404.7128854166658,
      "v": 66
    },
    {
      "midi": 89,
      "hit": false,
      "t": 136967.13549999995,
      "d": 404.7128854166658,
      "v": 66
    },
    {
      "midi": 58,
      "hit": false,
      "t": 136967.1355000004,
      "d": 97.33601041667862,
      "v": 117
    },
    {
      "midi": 65,
      "hit": false,
      "t": 136967.1355000004,
      "d": 97.33601041667862,
      "v": 117
    },
    {
      "midi": 62,
      "hit": false,
      "t": 136967.1355000004,
      "d": 99.8974843750184,
      "v": 117
    },
    {
      "midi": 58,
      "hit": false,
      "t": 137458.93850000043,
      "d": 94.77453645833884,
      "v": 117
    },
    {
      "midi": 65,
      "hit": false,
      "t": 137458.93850000043,
      "d": 97.33601041667862,
      "v": 117
    },
    {
      "midi": 62,
      "hit": false,
      "t": 137458.93850000043,
      "d": 122.95075000001816,
      "v": 117
    },
    {
      "midi": 70,
      "hit": false,
      "t": 137704.83999999994,
      "d": 358.6063541666663,
      "v": 66
    },
    {
      "midi": 94,
      "hit": false,
      "t": 137704.83999999994,
      "d": 358.6063541666663,
      "v": 66
    },
    {
      "midi": 51,
      "hit": false,
      "t": 137950.74150000044,
      "d": 97.33601041667862,
      "v": 117
    },
    {
      "midi": 58,
      "hit": false,
      "t": 137950.74150000044,
      "d": 97.33601041667862,
      "v": 117
    },
    {
      "midi": 55,
      "hit": false,
      "t": 137950.74150000044,
      "d": 99.8974843750184,
      "v": 117
    },
    {
      "midi": 68,
      "hit": false,
      "t": 138196.64299999992,
      "d": 332.99161458332674,
      "v": 66
    },
    {
      "midi": 92,
      "hit": false,
      "t": 138196.64299999992,
      "d": 332.99161458332674,
      "v": 66
    },
    {
      "midi": 51,
      "hit": false,
      "t": 138442.54450000045,
      "d": 89.6515885416593,
      "v": 117
    },
    {
      "midi": 58,
      "hit": false,
      "t": 138442.54450000045,
      "d": 92.21306249999907,
      "v": 117
    },
    {
      "midi": 55,
      "hit": false,
      "t": 138442.54450000045,
      "d": 94.77453645833884,
      "v": 117
    },
    {
      "midi": 67,
      "hit": false,
      "t": 138688.4459999999,
      "d": 120.38927604167839,
      "v": 66
    },
    {
      "midi": 91,
      "hit": false,
      "t": 138688.4459999999,
      "d": 120.38927604167839,
      "v": 66
    },
    {
      "midi": 68,
      "hit": false,
      "t": 138934.34749999992,
      "d": 192.11054687498836,
      "v": 66
    },
    {
      "midi": 92,
      "hit": false,
      "t": 138934.34749999992,
      "d": 192.11054687498836,
      "v": 66
    },
    {
      "midi": 51,
      "hit": false,
      "t": 138934.34750000047,
      "d": 74.28274479167885,
      "v": 117
    },
    {
      "midi": 58,
      "hit": false,
      "t": 138934.34750000047,
      "d": 99.8974843750184,
      "v": 117
    },
    {
      "midi": 55,
      "hit": false,
      "t": 138934.34750000047,
      "d": 102.45895833335817,
      "v": 117
    },
    {
      "midi": 70,
      "hit": false,
      "t": 139180.2489999999,
      "d": 158.8113854166586,
      "v": 66
    },
    {
      "midi": 94,
      "hit": false,
      "t": 139180.2489999999,
      "d": 158.8113854166586,
      "v": 66
    },
    {
      "midi": 70,
      "hit": false,
      "t": 139426.15049999987,
      "d": 353.48340624998673,
      "v": 66
    },
    {
      "midi": 94,
      "hit": false,
      "t": 139426.15049999987,
      "d": 353.48340624998673,
      "v": 66
    },
    {
      "midi": 51,
      "hit": false,
      "t": 139426.15050000048,
      "d": 97.33601041667862,
      "v": 117
    },
    {
      "midi": 55,
      "hit": false,
      "t": 139426.15050000048,
      "d": 97.33601041667862,
      "v": 117
    },
    {
      "midi": 58,
      "hit": false,
      "t": 139426.15050000048,
      "d": 105.02043229166884,
      "v": 117
    },
    {
      "midi": 74,
      "hit": false,
      "t": 139917.95349999986,
      "d": 332.99161458332674,
      "v": 66
    },
    {
      "midi": 98,
      "hit": false,
      "t": 139917.95349999986,
      "d": 332.99161458332674,
      "v": 66
    },
    {
      "midi": 58,
      "hit": false,
      "t": 139917.9535000005,
      "d": 89.6515885416593,
      "v": 117
    },
    {
      "midi": 55,
      "hit": false,
      "t": 139917.9535000005,
      "d": 99.89748437498929,
      "v": 117
    },
    {
      "midi": 62,
      "hit": false,
      "t": 139917.9535000005,
      "d": 130.63517187497928,
      "v": 117
    },
    {
      "midi": 70,
      "hit": false,
      "t": 140409.75649999984,
      "d": 332.99161458332674,
      "v": 66
    },
    {
      "midi": 94,
      "hit": false,
      "t": 140409.75649999984,
      "d": 332.99161458332674,
      "v": 66
    },
    {
      "midi": 55,
      "hit": false,
      "t": 140409.75650000048,
      "d": 76.84421874998952,
      "v": 117
    },
    {
      "midi": 58,
      "hit": false,
      "t": 140409.75650000048,
      "d": 115.26632812499884,
      "v": 117
    },
    {
      "midi": 62,
      "hit": false,
      "t": 140409.75650000048,
      "d": 117.82780208333861,
      "v": 117
    },
    {
      "midi": 67,
      "hit": false,
      "t": 140901.55949999983,
      "d": 571.2086927083437,
      "v": 66
    },
    {
      "midi": 91,
      "hit": false,
      "t": 140901.55949999983,
      "d": 571.2086927083437,
      "v": 66
    },
    {
      "midi": 55,
      "hit": false,
      "t": 140901.5595000005,
      "d": 97.33601041667862,
      "v": 117
    },
    {
      "midi": 58,
      "hit": false,
      "t": 140901.5595000005,
      "d": 115.26632812499884,
      "v": 117
    },
    {
      "midi": 62,
      "hit": false,
      "t": 140901.5595000005,
      "d": 120.38927604167839,
      "v": 117
    },
    {
      "midi": 55,
      "hit": false,
      "t": 141393.3625000005,
      "d": 76.84421874998952,
      "v": 117
    },
    {
      "midi": 62,
      "hit": false,
      "t": 141393.3625000005,
      "d": 87.09011458331952,
      "v": 117
    },
    {
      "midi": 58,
      "hit": false,
      "t": 141393.3625000005,
      "d": 94.77453645830974,
      "v": 117
    },
    {
      "midi": 67,
      "hit": false,
      "t": 141639.26399999985,
      "d": 402.15141145832604,
      "v": 66
    },
    {
      "midi": 91,
      "hit": false,
      "t": 141639.26399999985,
      "d": 402.15141145832604,
      "v": 66
    },
    {
      "midi": 60,
      "hit": false,
      "t": 141885.1655000005,
      "d": 94.77453645833884,
      "v": 117
    },
    {
      "midi": 56,
      "hit": false,
      "t": 141885.1655000005,
      "d": 97.33601041667862,
      "v": 117
    },
    {
      "midi": 63,
      "hit": false,
      "t": 141885.1655000005,
      "d": 120.38927604167839,
      "v": 117
    },
    {
      "midi": 65,
      "hit": false,
      "t": 142131.06699999984,
      "d": 325.3071927083365,
      "v": 66
    },
    {
      "midi": 89,
      "hit": false,
      "t": 142131.06699999984,
      "d": 325.3071927083365,
      "v": 66
    },
    {
      "midi": 56,
      "hit": false,
      "t": 142376.9685000005,
      "d": 102.45895833332906,
      "v": 117
    },
    {
      "midi": 60,
      "hit": false,
      "t": 142376.9685000005,
      "d": 122.95074999998906,
      "v": 117
    },
    {
      "midi": 63,
      "hit": false,
      "t": 142376.9685000005,
      "d": 128.0736979166686,
      "v": 117
    },
    {
      "midi": 63,
      "hit": false,
      "t": 142622.86999999985,
      "d": 197.2334947916679,
      "v": 66
    },
    {
      "midi": 87,
      "hit": false,
      "t": 142622.86999999985,
      "d": 197.2334947916679,
      "v": 66
    },
    {
      "midi": 65,
      "hit": false,
      "t": 142868.77149999986,
      "d": 166.49580729167792,
      "v": 66
    },
    {
      "midi": 89,
      "hit": false,
      "t": 142868.77149999986,
      "d": 166.49580729167792,
      "v": 66
    },
    {
      "midi": 56,
      "hit": false,
      "t": 142868.77150000053,
      "d": 97.33601041667862,
      "v": 117
    },
    {
      "midi": 60,
      "hit": false,
      "t": 142868.77150000053,
      "d": 115.26632812499884,
      "v": 117
    },
    {
      "midi": 63,
      "hit": false,
      "t": 142868.77150000053,
      "d": 120.38927604167839,
      "v": 117
    },
    {
      "midi": 67,
      "hit": false,
      "t": 143114.67299999986,
      "d": 192.11054687498836,
      "v": 66
    },
    {
      "midi": 91,
      "hit": false,
      "t": 143114.67299999986,
      "d": 192.11054687498836,
      "v": 66
    },
    {
      "midi": 67,
      "hit": false,
      "t": 143360.57449999984,
      "d": 448.2579427083256,
      "v": 66
    },
    {
      "midi": 91,
      "hit": false,
      "t": 143360.57449999984,
      "d": 448.2579427083256,
      "v": 66
    },
    {
      "midi": 56,
      "hit": false,
      "t": 143360.57450000054,
      "d": 89.6515885416593,
      "v": 117
    },
    {
      "midi": 60,
      "hit": false,
      "t": 143360.57450000054,
      "d": 115.26632812499884,
      "v": 117
    },
    {
      "midi": 63,
      "hit": false,
      "t": 143360.57450000054,
      "d": 140.88106770833838,
      "v": 117
    },
    {
      "midi": 65,
      "hit": false,
      "t": 143852.37749999983,
      "d": 443.1349947916751,
      "v": 66
    },
    {
      "midi": 89,
      "hit": false,
      "t": 143852.37749999983,
      "d": 443.1349947916751,
      "v": 66
    },
    {
      "midi": 58,
      "hit": false,
      "t": 143852.37750000056,
      "d": 102.45895833332906,
      "v": 117
    },
    {
      "midi": 65,
      "hit": false,
      "t": 143852.37750000056,
      "d": 135.75811979165883,
      "v": 117
    },
    {
      "midi": 62,
      "hit": false,
      "t": 143852.37750000056,
      "d": 143.44254166664905,
      "v": 117
    },
    {
      "midi": 63,
      "hit": false,
      "t": 144344.18049999984,
      "d": 455.9423645833449,
      "v": 66
    },
    {
      "midi": 87,
      "hit": false,
      "t": 144344.18049999984,
      "d": 455.9423645833449,
      "v": 66
    },
    {
      "midi": 58,
      "hit": false,
      "t": 144344.18050000054,
      "d": 143.44254166667815,
      "v": 117
    },
    {
      "midi": 65,
      "hit": false,
      "t": 144344.18050000054,
      "d": 143.44254166667815,
      "v": 117
    },
    {
      "midi": 62,
      "hit": false,
      "t": 144344.18050000054,
      "d": 166.49580729167792,
      "v": 117
    },
    {
      "midi": 65,
      "hit": false,
      "t": 144835.98349999986,
      "d": 289.446557291667,
      "v": 66
    },
    {
      "midi": 89,
      "hit": false,
      "t": 144835.98349999986,
      "d": 289.446557291667,
      "v": 66
    },
    {
      "midi": 65,
      "hit": false,
      "t": 144835.98350000056,
      "d": 122.95074999998906,
      "v": 117
    },
    {
      "midi": 58,
      "hit": false,
      "t": 144835.98350000056,
      "d": 140.88106770830927,
      "v": 117
    },
    {
      "midi": 62,
      "hit": false,
      "t": 144835.98350000056,
      "d": 146.00401562498882,
      "v": 117
    },
    {
      "midi": 58,
      "hit": false,
      "t": 145327.78650000054,
      "d": 81.96716666666907,
      "v": 117
    },
    {
      "midi": 65,
      "hit": false,
      "t": 145327.78650000054,
      "d": 105.02043229166884,
      "v": 117
    },
    {
      "midi": 62,
      "hit": false,
      "t": 145327.78650000054,
      "d": 128.0736979166686,
      "v": 117
    },
    {
      "midi": 63,
      "hit": false,
      "t": 145573.68799999985,
      "d": 1472.8475260416744,
      "v": 66
    },
    {
      "midi": 87,
      "hit": false,
      "t": 145573.68799999985,
      "d": 1472.8475260416744,
      "v": 66
    },
    {
      "midi": 39,
      "hit": false,
      "t": 145573.68800000055,
      "d": 1472.8475260416744,
      "v": 127
    },
    {
      "midi": 43,
      "hit": false,
      "t": 145573.68800000055,
      "d": 1472.8475260416744,
      "v": 127
    },
    {
      "midi": 46,
      "hit": false,
      "t": 145573.68800000055,
      "d": 1472.8475260416744,
      "v": 127
    },
    {
      "midi": 51,
      "hit": false,
      "t": 145573.68800000055,
      "d": 1472.8475260416744,
      "v": 127
    }
  ]
}