{
  "jsonPath": "Unknown/Unknown/Brian Higgins,Paul Barry&Steve Torch/believe.json",
  "path": "Unknown\\Unknown\\Brian Higgins,Paul Barry&Steve Torch\\Believe.mid",
  "name": "Believe",
  "difficulty": "Advanced",
  "bpm": 124.000248000496,
  "notes": [
    {
      "midi": 51,
      "hit": false,
      "t": 0,
      "d": 3870.96,
      "v": 100
    },
    {
      "midi": 55,
      "hit": false,
      "t": 0,
      "d": 3870.96,
      "v": 100
    },
    {
      "midi": 58,
      "hit": false,
      "t": 0,
      "d": 3870.96,
      "v": 100
    },
    {
      "midi": 67,
      "hit": false,
      "t": 725.8050000000001,
      "d": 241.93499999999995,
      "v": 100
    },
    {
      "midi": 67,
      "hit": false,
      "t": 967.74,
      "d": 241.93499999999995,
      "v": 100
    },
    {
      "midi": 65,
      "hit": false,
      "t": 1209.675,
      "d": 241.93499999999995,
      "v": 100
    },
    {
      "midi": 65,
      "hit": false,
      "t": 1451.61,
      "d": 241.93499999999995,
      "v": 100
    },
    {
      "midi": 63,
      "hit": false,
      "t": 1693.5449999999998,
      "d": 241.93499999999995,
      "v": 100
    },
    {
      "midi": 67,
      "hit": false,
      "t": 1935.4799999999998,
      "d": 483.8700000000001,
      "v": 100
    },
    {
      "midi": 70,
      "hit": false,
      "t": 2419.35,
      "d": 1451.6100000000001,
      "v": 100
    },
    {
      "midi": 50,
      "hit": false,
      "t": 3870.96,
      "d": 3870.96,
      "v": 100
    },
    {
      "midi": 55,
      "hit": false,
      "t": 3870.96,
      "d": 3870.96,
      "v": 100
    },
    {
      "midi": 58,
      "hit": false,
      "t": 3870.96,
      "d": 3870.96,
      "v": 100
    },
    {
      "midi": 67,
      "hit": false,
      "t": 4838.7,
      "d": 241.9350000000004,
      "v": 100
    },
    {
      "midi": 70,
      "hit": false,
      "t": 5080.635,
      "d": 241.9350000000004,
      "v": 100
    },
    {
      "midi": 70,
      "hit": false,
      "t": 5322.570000000001,
      "d": 241.9350000000004,
      "v": 100
    },
    {
      "midi": 67,
      "hit": false,
      "t": 5564.505000000001,
      "d": 241.9350000000004,
      "v": 100
    },
    {
      "midi": 72,
      "hit": false,
      "t": 5806.440000000001,
      "d": 483.8699999999999,
      "v": 100
    },
    {
      "midi": 67,
      "hit": false,
      "t": 6290.310000000001,
      "d": 241.9350000000004,
      "v": 100
    },
    {
      "midi": 70,
      "hit": false,
      "t": 6532.245000000002,
      "d": 241.9350000000004,
      "v": 100
    },
    {
      "midi": 70,
      "hit": false,
      "t": 7258.050000000002,
      "d": 241.9350000000004,
      "v": 100
    },
    {
      "midi": 70,
      "hit": false,
      "t": 7499.985000000002,
      "d": 241.9350000000004,
      "v": 100
    },
    {
      "midi": 48,
      "hit": false,
      "t": 7741.92,
      "d": 3870.960000000001,
      "v": 100
    },
    {
      "midi": 51,
      "hit": false,
      "t": 7741.92,
      "d": 3870.960000000001,
      "v": 100
    },
    {
      "midi": 56,
      "hit": false,
      "t": 7741.92,
      "d": 3870.960000000001,
      "v": 100
    },
    {
      "midi": 75,
      "hit": false,
      "t": 7741.920000000003,
      "d": 483.8699999999999,
      "v": 100
    },
    {
      "midi": 72,
      "hit": false,
      "t": 8225.790000000003,
      "d": 483.8700000000008,
      "v": 100
    },
    {
      "midi": 72,
      "hit": false,
      "t": 8709.660000000003,
      "d": 483.8700000000008,
      "v": 100
    },
    {
      "midi": 63,
      "hit": false,
      "t": 11129.010000000004,
      "d": 241.9349999999995,
      "v": 100
    },
    {
      "midi": 63,
      "hit": false,
      "t": 11370.945000000003,
      "d": 241.9349999999995,
      "v": 100
    },
    {
      "midi": 46,
      "hit": false,
      "t": 11612.880000000001,
      "d": 1935.4799999999996,
      "v": 100
    },
    {
      "midi": 50,
      "hit": false,
      "t": 11612.880000000001,
      "d": 1935.4799999999996,
      "v": 100
    },
    {
      "midi": 53,
      "hit": false,
      "t": 11612.880000000001,
      "d": 1935.4799999999996,
      "v": 100
    },
    {
      "midi": 67,
      "hit": false,
      "t": 11612.880000000003,
      "d": 241.9349999999995,
      "v": 100
    },
    {
      "midi": 70,
      "hit": false,
      "t": 11854.815000000002,
      "d": 483.8700000000008,
      "v": 100
    },
    {
      "midi": 67,
      "hit": false,
      "t": 12338.685000000003,
      "d": 241.9349999999995,
      "v": 100
    },
    {
      "midi": 70,
      "hit": false,
      "t": 12580.620000000003,
      "d": 241.9349999999995,
      "v": 100
    },
    {
      "midi": 67,
      "hit": false,
      "t": 12822.555000000002,
      "d": 241.9349999999995,
      "v": 100
    },
    {
      "midi": 65,
      "hit": false,
      "t": 13064.490000000002,
      "d": 1451.6100000000006,
      "v": 100
    },
    {
      "midi": 46,
      "hit": false,
      "t": 13548.36,
      "d": 483.8700000000008,
      "v": 100
    },
    {
      "midi": 46,
      "hit": false,
      "t": 14032.230000000001,
      "d": 483.8700000000008,
      "v": 100
    },
    {
      "midi": 46,
      "hit": false,
      "t": 14516.100000000002,
      "d": 483.8700000000008,
      "v": 100
    },
    {
      "midi": 58,
      "hit": false,
      "t": 14758.035000000002,
      "d": 241.9349999999995,
      "v": 100
    },
    {
      "midi": 58,
      "hit": false,
      "t": 14999.970000000001,
      "d": 483.8700000000008,
      "v": 100
    },
    {
      "midi": 46,
      "hit": false,
      "t": 14999.970000000003,
      "d": 483.8700000000008,
      "v": 100
    },
    {
      "midi": 60,
      "hit": false,
      "t": 15483.840000000002,
      "d": 483.8700000000008,
      "v": 100
    },
    {
      "midi": 51,
      "hit": false,
      "t": 15483.840000000004,
      "d": 483.8700000000008,
      "v": 100
    },
    {
      "midi": 62,
      "hit": false,
      "t": 15967.710000000003,
      "d": 241.9349999999995,
      "v": 100
    },
    {
      "midi": 51,
      "hit": false,
      "t": 15967.710000000005,
      "d": 483.8700000000008,
      "v": 100
    },
    {
      "midi": 60,
      "hit": false,
      "t": 16209.645000000002,
      "d": 241.9349999999995,
      "v": 100
    },
    {
      "midi": 51,
      "hit": false,
      "t": 16451.580000000005,
      "d": 483.869999999999,
      "v": 100
    },
    {
      "midi": 58,
      "hit": false,
      "t": 16693.515000000003,
      "d": 241.9350000000013,
      "v": 100
    },
    {
      "midi": 55,
      "hit": false,
      "t": 16935.450000000004,
      "d": 241.9350000000013,
      "v": 100
    },
    {
      "midi": 51,
      "hit": false,
      "t": 16935.450000000004,
      "d": 483.869999999999,
      "v": 100
    },
    {
      "midi": 58,
      "hit": false,
      "t": 17177.385000000006,
      "d": 483.869999999999,
      "v": 100
    },
    {
      "midi": 51,
      "hit": false,
      "t": 17419.320000000003,
      "d": 483.869999999999,
      "v": 100
    },
    {
      "midi": 55,
      "hit": false,
      "t": 17661.255000000005,
      "d": 725.8050000000003,
      "v": 100
    },
    {
      "midi": 51,
      "hit": false,
      "t": 17903.190000000002,
      "d": 483.869999999999,
      "v": 100
    },
    {
      "midi": 51,
      "hit": false,
      "t": 18387.06,
      "d": 483.869999999999,
      "v": 100
    },
    {
      "midi": 58,
      "hit": false,
      "t": 18628.995000000006,
      "d": 241.9350000000013,
      "v": 100
    },
    {
      "midi": 51,
      "hit": false,
      "t": 18870.93,
      "d": 483.869999999999,
      "v": 100
    },
    {
      "midi": 58,
      "hit": false,
      "t": 18870.930000000008,
      "d": 483.869999999999,
      "v": 100
    },
    {
      "midi": 43,
      "hit": false,
      "t": 19354.8,
      "d": 483.869999999999,
      "v": 100
    },
    {
      "midi": 60,
      "hit": false,
      "t": 19354.800000000007,
      "d": 483.869999999999,
      "v": 100
    },
    {
      "midi": 43,
      "hit": false,
      "t": 19838.67,
      "d": 483.869999999999,
      "v": 100
    },
    {
      "midi": 62,
      "hit": false,
      "t": 19838.670000000006,
      "d": 241.9350000000013,
      "v": 100
    },
    {
      "midi": 60,
      "hit": false,
      "t": 20080.605000000007,
      "d": 241.9350000000013,
      "v": 100
    },
    {
      "midi": 43,
      "hit": false,
      "t": 20322.539999999997,
      "d": 483.869999999999,
      "v": 100
    },
    {
      "midi": 58,
      "hit": false,
      "t": 20564.47500000001,
      "d": 241.9350000000013,
      "v": 100
    },
    {
      "midi": 43,
      "hit": false,
      "t": 20806.409999999996,
      "d": 483.869999999999,
      "v": 100
    },
    {
      "midi": 55,
      "hit": false,
      "t": 20806.41000000001,
      "d": 241.9350000000013,
      "v": 100
    },
    {
      "midi": 58,
      "hit": false,
      "t": 21048.345000000012,
      "d": 483.869999999999,
      "v": 100
    },
    {
      "midi": 43,
      "hit": false,
      "t": 21290.279999999995,
      "d": 483.869999999999,
      "v": 100
    },
    {
      "midi": 55,
      "hit": false,
      "t": 21532.21500000001,
      "d": 725.8050000000003,
      "v": 100
    },
    {
      "midi": 43,
      "hit": false,
      "t": 21774.149999999994,
      "d": 483.869999999999,
      "v": 100
    },
    {
      "midi": 43,
      "hit": false,
      "t": 22258.019999999993,
      "d": 483.869999999999,
      "v": 100
    },
    {
      "midi": 46,
      "hit": false,
      "t": 22741.889999999992,
      "d": 483.869999999999,
      "v": 100
    },
    {
      "midi": 44,
      "hit": false,
      "t": 23225.75999999999,
      "d": 483.869999999999,
      "v": 100
    },
    {
      "midi": 58,
      "hit": false,
      "t": 23467.69500000001,
      "d": 241.9350000000013,
      "v": 100
    },
    {
      "midi": 44,
      "hit": false,
      "t": 23709.62999999999,
      "d": 483.869999999999,
      "v": 100
    },
    {
      "midi": 58,
      "hit": false,
      "t": 23709.630000000012,
      "d": 241.9350000000013,
      "v": 100
    },
    {
      "midi": 58,
      "hit": false,
      "t": 23951.565000000013,
      "d": 241.9350000000013,
      "v": 100
    },
    {
      "midi": 44,
      "hit": false,
      "t": 24193.49999999999,
      "d": 483.869999999999,
      "v": 100
    },
    {
      "midi": 60,
      "hit": false,
      "t": 24193.500000000015,
      "d": 725.8050000000003,
      "v": 100
    },
    {
      "midi": 44,
      "hit": false,
      "t": 24677.369999999988,
      "d": 483.869999999999,
      "v": 100
    },
    {
      "midi": 55,
      "hit": false,
      "t": 24919.305000000015,
      "d": 241.9350000000013,
      "v": 100
    },
    {
      "midi": 44,
      "hit": false,
      "t": 25161.239999999987,
      "d": 483.869999999999,
      "v": 100
    },
    {
      "midi": 58,
      "hit": false,
      "t": 25161.240000000016,
      "d": 241.9350000000013,
      "v": 100
    },
    {
      "midi": 58,
      "hit": false,
      "t": 25403.175000000017,
      "d": 241.9350000000013,
      "v": 100
    },
    {
      "midi": 44,
      "hit": false,
      "t": 25645.109999999986,
      "d": 483.869999999999,
      "v": 100
    },
    {
      "midi": 60,
      "hit": false,
      "t": 25887.04500000002,
      "d": 725.8050000000003,
      "v": 100
    },
    {
      "midi": 44,
      "hit": false,
      "t": 26128.979999999985,
      "d": 483.869999999999,
      "v": 100
    },
    {
      "midi": 48,
      "hit": false,
      "t": 26612.849999999984,
      "d": 483.869999999999,
      "v": 100
    },
    {
      "midi": 46,
      "hit": false,
      "t": 27096.719999999983,
      "d": 483.869999999999,
      "v": 100
    },
    {
      "midi": 46,
      "hit": false,
      "t": 27580.589999999982,
      "d": 483.869999999999,
      "v": 100
    },
    {
      "midi": 58,
      "hit": false,
      "t": 27822.52500000002,
      "d": 241.9350000000013,
      "v": 100
    },
    {
      "midi": 46,
      "hit": false,
      "t": 28064.45999999998,
      "d": 483.869999999999,
      "v": 100
    },
    {
      "midi": 58,
      "hit": false,
      "t": 28064.46000000002,
      "d": 241.9350000000013,
      "v": 100
    },
    {
      "midi": 58,
      "hit": false,
      "t": 28306.395000000022,
      "d": 241.9350000000013,
      "v": 100
    },
    {
      "midi": 46,
      "hit": false,
      "t": 28548.32999999998,
      "d": 483.869999999999,
      "v": 100
    },
    {
      "midi": 58,
      "hit": false,
      "t": 28548.330000000024,
      "d": 241.9350000000013,
      "v": 100
    },
    {
      "midi": 58,
      "hit": false,
      "t": 28790.265000000025,
      "d": 241.9350000000013,
      "v": 100
    },
    {
      "midi": 46,
      "hit": false,
      "t": 29032.19999999998,
      "d": 483.869999999999,
      "v": 100
    },
    {
      "midi": 60,
      "hit": false,
      "t": 29032.200000000026,
      "d": 483.869999999999,
      "v": 100
    },
    {
      "midi": 46,
      "hit": false,
      "t": 29516.069999999978,
      "d": 483.869999999999,
      "v": 100
    },
    {
      "midi": 55,
      "hit": false,
      "t": 29516.070000000025,
      "d": 241.9350000000013,
      "v": 100
    },
    {
      "midi": 58,
      "hit": false,
      "t": 29758.005000000026,
      "d": 241.9350000000013,
      "v": 100
    },
    {
      "midi": 46,
      "hit": false,
      "t": 29999.939999999977,
      "d": 483.869999999999,
      "v": 100
    },
    {
      "midi": 46,
      "hit": false,
      "t": 30483.809999999976,
      "d": 483.869999999999,
      "v": 100
    },
    {
      "midi": 63,
      "hit": false,
      "t": 30483.810000000027,
      "d": 483.869999999999,
      "v": 100
    },
    {
      "midi": 51,
      "hit": false,
      "t": 30967.679999999975,
      "d": 483.869999999999,
      "v": 100
    },
    {
      "midi": 51,
      "hit": false,
      "t": 31451.549999999974,
      "d": 483.869999999999,
      "v": 100
    },
    {
      "midi": 58,
      "hit": false,
      "t": 31693.485000000026,
      "d": 241.9350000000013,
      "v": 100
    },
    {
      "midi": 51,
      "hit": false,
      "t": 31935.419999999973,
      "d": 483.869999999999,
      "v": 100
    },
    {
      "midi": 58,
      "hit": false,
      "t": 31935.420000000027,
      "d": 241.9350000000013,
      "v": 100
    },
    {
      "midi": 58,
      "hit": false,
      "t": 32177.35500000003,
      "d": 483.869999999999,
      "v": 100
    },
    {
      "midi": 51,
      "hit": false,
      "t": 32419.28999999997,
      "d": 483.8700000000026,
      "v": 100
    },
    {
      "midi": 67,
      "hit": false,
      "t": 32661.225000000028,
      "d": 725.8050000000003,
      "v": 100
    },
    {
      "midi": 46,
      "hit": false,
      "t": 32903.159999999974,
      "d": 483.8700000000026,
      "v": 100
    },
    {
      "midi": 46,
      "hit": false,
      "t": 33387.02999999998,
      "d": 483.8700000000026,
      "v": 100
    },
    {
      "midi": 65,
      "hit": false,
      "t": 33387.03000000003,
      "d": 241.93499999999767,
      "v": 100
    },
    {
      "midi": 65,
      "hit": false,
      "t": 33628.965000000026,
      "d": 241.93499999999767,
      "v": 100
    },
    {
      "midi": 46,
      "hit": false,
      "t": 33870.89999999998,
      "d": 483.8700000000026,
      "v": 100
    },
    {
      "midi": 65,
      "hit": false,
      "t": 34112.83500000002,
      "d": 241.93499999999767,
      "v": 100
    },
    {
      "midi": 46,
      "hit": false,
      "t": 34354.76999999998,
      "d": 483.8700000000026,
      "v": 100
    },
    {
      "midi": 63,
      "hit": false,
      "t": 34354.77000000002,
      "d": 241.93499999999767,
      "v": 100
    },
    {
      "midi": 65,
      "hit": false,
      "t": 34596.705000000016,
      "d": 1209.675000000003,
      "v": 100
    },
    {
      "midi": 56,
      "hit": false,
      "t": 34838.639999999985,
      "d": 725.8050000000003,
      "v": 100
    },
    {
      "midi": 55,
      "hit": false,
      "t": 35564.444999999985,
      "d": 725.8050000000003,
      "v": 100
    },
    {
      "midi": 51,
      "hit": false,
      "t": 36290.249999999985,
      "d": 483.8700000000026,
      "v": 100
    },
    {
      "midi": 48,
      "hit": false,
      "t": 36774.11999999999,
      "d": 967.739999999998,
      "v": 100
    },
    {
      "midi": 46,
      "hit": false,
      "t": 37741.859999999986,
      "d": 483.8700000000026,
      "v": 100
    },
    {
      "midi": 48,
      "hit": false,
      "t": 38225.72999999999,
      "d": 483.8700000000026,
      "v": 100
    },
    {
      "midi": 63,
      "hit": false,
      "t": 38225.73000000002,
      "d": 241.93499999999767,
      "v": 100
    },
    {
      "midi": 63,
      "hit": false,
      "t": 38467.665000000015,
      "d": 241.93499999999767,
      "v": 100
    },
    {
      "midi": 51,
      "hit": false,
      "t": 38709.59999999999,
      "d": 483.8700000000026,
      "v": 100
    },
    {
      "midi": 63,
      "hit": false,
      "t": 38709.60000000001,
      "d": 483.8700000000026,
      "v": 100
    },
    {
      "midi": 51,
      "hit": false,
      "t": 39193.469999999994,
      "d": 483.8700000000026,
      "v": 100
    },
    {
      "midi": 58,
      "hit": false,
      "t": 39193.470000000016,
      "d": 241.93499999999767,
      "v": 100
    },
    {
      "midi": 63,
      "hit": false,
      "t": 39435.40500000001,
      "d": 725.8050000000003,
      "v": 100
    },
    {
      "midi": 51,
      "hit": false,
      "t": 39677.34,
      "d": 483.8700000000026,
      "v": 100
    },
    {
      "midi": 51,
      "hit": false,
      "t": 40161.21,
      "d": 483.8700000000026,
      "v": 100
    },
    {
      "midi": 58,
      "hit": false,
      "t": 40403.14500000001,
      "d": 241.93499999999767,
      "v": 100
    },
    {
      "midi": 46,
      "hit": false,
      "t": 40645.08,
      "d": 483.8700000000026,
      "v": 100
    },
    {
      "midi": 65,
      "hit": false,
      "t": 40645.08000000001,
      "d": 483.8700000000026,
      "v": 100
    },
    {
      "midi": 46,
      "hit": false,
      "t": 41128.950000000004,
      "d": 483.8700000000026,
      "v": 100
    },
    {
      "midi": 65,
      "hit": false,
      "t": 41128.95000000001,
      "d": 483.8700000000026,
      "v": 100
    },
    {
      "midi": 46,
      "hit": false,
      "t": 41612.82000000001,
      "d": 483.8700000000026,
      "v": 100
    },
    {
      "midi": 65,
      "hit": false,
      "t": 41612.820000000014,
      "d": 241.93499999999767,
      "v": 100
    },
    {
      "midi": 63,
      "hit": false,
      "t": 41854.75500000001,
      "d": 241.93499999999767,
      "v": 100
    },
    {
      "midi": 46,
      "hit": false,
      "t": 42096.69000000001,
      "d": 483.8700000000026,
      "v": 100
    },
    {
      "midi": 58,
      "hit": false,
      "t": 42338.62500000001,
      "d": 241.93499999999767,
      "v": 100
    },
    {
      "midi": 65,
      "hit": false,
      "t": 42580.560000000005,
      "d": 241.93499999999767,
      "v": 100
    },
    {
      "midi": 53,
      "hit": false,
      "t": 42580.56000000001,
      "d": 483.8700000000026,
      "v": 100
    },
    {
      "midi": 65,
      "hit": false,
      "t": 42822.495,
      "d": 241.93499999999767,
      "v": 100
    },
    {
      "midi": 65,
      "hit": false,
      "t": 43064.43,
      "d": 483.8700000000026,
      "v": 100
    },
    {
      "midi": 53,
      "hit": false,
      "t": 43064.430000000015,
      "d": 483.8700000000026,
      "v": 100
    },
    {
      "midi": 65,
      "hit": false,
      "t": 43548.3,
      "d": 483.8700000000026,
      "v": 100
    },
    {
      "midi": 53,
      "hit": false,
      "t": 43548.30000000002,
      "d": 483.8700000000026,
      "v": 100
    },
    {
      "midi": 63,
      "hit": false,
      "t": 44032.170000000006,
      "d": 483.8700000000026,
      "v": 100
    },
    {
      "midi": 53,
      "hit": false,
      "t": 44032.17000000002,
      "d": 483.8700000000026,
      "v": 100
    },
    {
      "midi": 65,
      "hit": false,
      "t": 44516.04000000001,
      "d": 483.8700000000026,
      "v": 100
    },
    {
      "midi": 44,
      "hit": false,
      "t": 44516.04000000002,
      "d": 483.8700000000026,
      "v": 100
    },
    {
      "midi": 67,
      "hit": false,
      "t": 44999.91000000001,
      "d": 241.93499999999767,
      "v": 100
    },
    {
      "midi": 44,
      "hit": false,
      "t": 44999.910000000025,
      "d": 483.8700000000026,
      "v": 100
    },
    {
      "midi": 65,
      "hit": false,
      "t": 45241.84500000001,
      "d": 725.8050000000003,
      "v": 100
    },
    {
      "midi": 46,
      "hit": false,
      "t": 45483.78000000003,
      "d": 483.8700000000026,
      "v": 100
    },
    {
      "midi": 67,
      "hit": false,
      "t": 45967.65000000001,
      "d": 241.93499999999767,
      "v": 100
    },
    {
      "midi": 46,
      "hit": false,
      "t": 45967.65000000003,
      "d": 483.8700000000026,
      "v": 100
    },
    {
      "midi": 65,
      "hit": false,
      "t": 46209.58500000001,
      "d": 241.93499999999767,
      "v": 100
    },
    {
      "midi": 63,
      "hit": false,
      "t": 46451.520000000004,
      "d": 483.8700000000026,
      "v": 100
    },
    {
      "midi": 51,
      "hit": false,
      "t": 46451.52000000003,
      "d": 483.8700000000026,
      "v": 100
    },
    {
      "midi": 51,
      "hit": false,
      "t": 46935.390000000036,
      "d": 483.8700000000026,
      "v": 100
    },
    {
      "midi": 58,
      "hit": false,
      "t": 47177.325000000004,
      "d": 241.93499999999767,
      "v": 100
    },
    {
      "midi": 58,
      "hit": false,
      "t": 47419.26,
      "d": 241.93499999999767,
      "v": 100
    },
    {
      "midi": 51,
      "hit": false,
      "t": 47419.26000000004,
      "d": 483.8700000000026,
      "v": 100
    },
    {
      "midi": 58,
      "hit": false,
      "t": 47661.195,
      "d": 483.8700000000026,
      "v": 100
    },
    {
      "midi": 51,
      "hit": false,
      "t": 47903.13000000004,
      "d": 483.8700000000026,
      "v": 100
    },
    {
      "midi": 67,
      "hit": false,
      "t": 48145.065,
      "d": 241.93499999999767,
      "v": 100
    },
    {
      "midi": 65,
      "hit": false,
      "t": 48387,
      "d": 483.8700000000026,
      "v": 100
    },
    {
      "midi": 46,
      "hit": false,
      "t": 48387.000000000044,
      "d": 483.8700000000026,
      "v": 100
    },
    {
      "midi": 65,
      "hit": false,
      "t": 48870.87,
      "d": 241.93499999999767,
      "v": 100
    },
    {
      "midi": 46,
      "hit": false,
      "t": 48870.870000000046,
      "d": 483.8700000000026,
      "v": 100
    },
    {
      "midi": 65,
      "hit": false,
      "t": 49112.805,
      "d": 241.93499999999767,
      "v": 100
    },
    {
      "midi": 46,
      "hit": false,
      "t": 49354.74000000005,
      "d": 483.8700000000026,
      "v": 100
    },
    {
      "midi": 65,
      "hit": false,
      "t": 49596.674999999996,
      "d": 241.93499999999767,
      "v": 100
    },
    {
      "midi": 63,
      "hit": false,
      "t": 49838.60999999999,
      "d": 241.93499999999767,
      "v": 100
    },
    {
      "midi": 46,
      "hit": false,
      "t": 49838.61000000005,
      "d": 483.8700000000026,
      "v": 100
    },
    {
      "midi": 65,
      "hit": false,
      "t": 50080.54499999999,
      "d": 1209.675000000003,
      "v": 100
    },
    {
      "midi": 56,
      "hit": false,
      "t": 50322.480000000054,
      "d": 725.8050000000003,
      "v": 100
    },
    {
      "midi": 55,
      "hit": false,
      "t": 51048.285000000054,
      "d": 725.8050000000003,
      "v": 100
    },
    {
      "midi": 51,
      "hit": false,
      "t": 51774.090000000055,
      "d": 483.8700000000026,
      "v": 100
    },
    {
      "midi": 48,
      "hit": false,
      "t": 52257.96000000006,
      "d": 967.739999999998,
      "v": 100
    },
    {
      "midi": 46,
      "hit": false,
      "t": 53225.700000000055,
      "d": 483.8700000000026,
      "v": 100
    },
    {
      "midi": 63,
      "hit": false,
      "t": 53709.56999999999,
      "d": 241.93499999999767,
      "v": 100
    },
    {
      "midi": 48,
      "hit": false,
      "t": 53709.57000000006,
      "d": 483.8700000000026,
      "v": 100
    },
    {
      "midi": 63,
      "hit": false,
      "t": 53951.50499999999,
      "d": 241.93499999999767,
      "v": 100
    },
    {
      "midi": 63,
      "hit": false,
      "t": 54193.43999999999,
      "d": 483.8700000000026,
      "v": 100
    },
    {
      "midi": 51,
      "hit": false,
      "t": 54193.44000000006,
      "d": 483.8700000000026,
      "v": 100
    },
    {
      "midi": 58,
      "hit": false,
      "t": 54677.30999999999,
      "d": 241.93499999999767,
      "v": 100
    },
    {
      "midi": 51,
      "hit": false,
      "t": 54677.31000000006,
      "d": 483.8700000000026,
      "v": 100
    },
    {
      "midi": 63,
      "hit": false,
      "t": 54919.24499999999,
      "d": 725.8050000000003,
      "v": 100
    },
    {
      "midi": 51,
      "hit": false,
      "t": 55161.180000000066,
      "d": 483.8700000000026,
      "v": 100
    },
    {
      "midi": 51,
      "hit": false,
      "t": 55645.05000000007,
      "d": 483.8700000000026,
      "v": 100
    },
    {
      "midi": 58,
      "hit": false,
      "t": 55886.984999999986,
      "d": 241.93499999999767,
      "v": 100
    },
    {
      "midi": 65,
      "hit": false,
      "t": 56128.919999999984,
      "d": 483.8700000000026,
      "v": 100
    },
    {
      "midi": 46,
      "hit": false,
      "t": 56128.92000000007,
      "d": 483.8700000000026,
      "v": 100
    },
    {
      "midi": 65,
      "hit": false,
      "t": 56612.789999999986,
      "d": 483.8700000000026,
      "v": 100
    },
    {
      "midi": 46,
      "hit": false,
      "t": 56612.79000000007,
      "d": 483.8700000000026,
      "v": 100
    },
    {
      "midi": 65,
      "hit": false,
      "t": 57096.65999999999,
      "d": 241.93499999999767,
      "v": 100
    },
    {
      "midi": 46,
      "hit": false,
      "t": 57096.660000000076,
      "d": 483.8700000000026,
      "v": 100
    },
    {
      "midi": 63,
      "hit": false,
      "t": 57338.59499999999,
      "d": 241.93499999999767,
      "v": 100
    },
    {
      "midi": 46,
      "hit": false,
      "t": 57580.53000000008,
      "d": 483.8700000000026,
      "v": 100
    },
    {
      "midi": 58,
      "hit": false,
      "t": 57822.46499999998,
      "d": 241.93499999999767,
      "v": 100
    },
    {
      "midi": 65,
      "hit": false,
      "t": 58064.39999999998,
      "d": 241.93499999999767,
      "v": 100
    },
    {
      "midi": 53,
      "hit": false,
      "t": 58064.40000000008,
      "d": 483.8700000000026,
      "v": 100
    },
    {
      "midi": 65,
      "hit": false,
      "t": 58306.33499999998,
      "d": 241.93499999999767,
      "v": 100
    },
    {
      "midi": 65,
      "hit": false,
      "t": 58548.269999999975,
      "d": 483.8700000000026,
      "v": 100
    },
    {
      "midi": 53,
      "hit": false,
      "t": 58548.270000000084,
      "d": 483.8700000000026,
      "v": 100
    },
    {
      "midi": 65,
      "hit": false,
      "t": 59032.13999999998,
      "d": 483.8700000000026,
      "v": 100
    },
    {
      "midi": 53,
      "hit": false,
      "t": 59032.14000000009,
      "d": 483.8700000000026,
      "v": 100
    },
    {
      "midi": 63,
      "hit": false,
      "t": 59516.00999999998,
      "d": 483.8700000000026,
      "v": 100
    },
    {
      "midi": 53,
      "hit": false,
      "t": 59516.01000000009,
      "d": 483.8700000000026,
      "v": 100
    },
    {
      "midi": 65,
      "hit": false,
      "t": 59999.87999999998,
      "d": 483.8700000000026,
      "v": 100
    },
    {
      "midi": 44,
      "hit": false,
      "t": 59999.88000000009,
      "d": 483.8700000000026,
      "v": 100
    },
    {
      "midi": 67,
      "hit": false,
      "t": 60483.749999999985,
      "d": 241.93499999999767,
      "v": 100
    },
    {
      "midi": 44,
      "hit": false,
      "t": 60483.750000000095,
      "d": 483.8700000000026,
      "v": 100
    },
    {
      "midi": 65,
      "hit": false,
      "t": 60725.68499999998,
      "d": 725.8050000000003,
      "v": 100
    },
    {
      "midi": 46,
      "hit": false,
      "t": 60967.6200000001,
      "d": 483.8700000000026,
      "v": 100
    },
    {
      "midi": 67,
      "hit": false,
      "t": 61451.48999999998,
      "d": 241.93499999999767,
      "v": 100
    },
    {
      "midi": 46,
      "hit": false,
      "t": 61451.4900000001,
      "d": 483.8700000000026,
      "v": 100
    },
    {
      "midi": 65,
      "hit": false,
      "t": 61693.42499999998,
      "d": 241.93499999999767,
      "v": 100
    },
    {
      "midi": 63,
      "hit": false,
      "t": 61935.35999999998,
      "d": 1935.4800000000032,
      "v": 100
    },
    {
      "midi": 67,
      "hit": false,
      "t": 61935.35999999998,
      "d": 1935.4800000000032,
      "v": 100
    },
    {
      "midi": 51,
      "hit": false,
      "t": 61935.3600000001,
      "d": 1935.4800000000032,
      "v": 100
    },
    {
      "midi": 58,
      "hit": false,
      "t": 61935.3600000001,
      "d": 1935.4800000000032,
      "v": 100
    }
  ]
}