{
  "jsonPath": "Pop/Europop/Dj Satomi/castle-in-the-sky.json",
  "path": "Pop\\Europop\\Dj Satomi\\Castle In the Sky.mid",
  "name": "Castle In the Sky",
  "difficulty": "Intermediate",
  "bpm": 120,
  "notes": [
    {
      "midi": 67,
      "hit": false,
      "t": 173442.517953125,
      "d": 1362.9183281250007,
      "v": 121
    },
    {
      "midi": 63,
      "hit": false,
      "t": 173442.517953125,
      "d": 1462.708109375002,
      "v": 115
    },
    {
      "midi": 60,
      "hit": false,
      "t": 173442.517953125,
      "d": 1499.4727656249888,
      "v": 115
    },
    {
      "midi": 70,
      "hit": false,
      "t": 174957.747,
      "d": 309.8735312499921,
      "v": 127
    },
    {
      "midi": 67,
      "hit": false,
      "t": 174957.747,
      "d": 320.37771874998,
      "v": 127
    },
    {
      "midi": 72,
      "hit": false,
      "t": 174957.747,
      "d": 320.37771874998,
      "v": 123
    },
    {
      "midi": 56,
      "hit": false,
      "t": 175459.32195312498,
      "d": 1150.208531250013,
      "v": 115
    },
    {
      "midi": 60,
      "hit": false,
      "t": 175459.32195312498,
      "d": 1155.460625000007,
      "v": 115
    },
    {
      "midi": 68,
      "hit": false,
      "t": 175459.32195312498,
      "d": 1207.9815625000047,
      "v": 115
    },
    {
      "midi": 70,
      "hit": false,
      "t": 176969.29890624998,
      "d": 338.7600468749879,
      "v": 121
    },
    {
      "midi": 58,
      "hit": false,
      "t": 176971.92495312498,
      "d": 351.89028125000186,
      "v": 110
    },
    {
      "midi": 63,
      "hit": false,
      "t": 176971.92495312498,
      "d": 362.39446874998976,
      "v": 102
    },
    {
      "midi": 70,
      "hit": false,
      "t": 177478.75199999998,
      "d": 1118.6959687499912,
      "v": 116
    },
    {
      "midi": 65,
      "hit": false,
      "t": 177478.75199999998,
      "d": 1129.200156249979,
      "v": 109
    },
    {
      "midi": 67,
      "hit": false,
      "t": 177478.75199999998,
      "d": 1176.4689999999828,
      "v": 90
    },
    {
      "midi": 70,
      "hit": false,
      "t": 178986.10290624996,
      "d": 420.1675000000105,
      "v": 119
    },
    {
      "midi": 63,
      "hit": false,
      "t": 178988.72895312496,
      "d": 393.90703125001164,
      "v": 115
    },
    {
      "midi": 58,
      "hit": false,
      "t": 178988.72895312496,
      "d": 404.41121874999953,
      "v": 115
    },
    {
      "midi": 72,
      "hit": false,
      "t": 179492.92995312496,
      "d": 842.9610468749888,
      "v": 118
    },
    {
      "midi": 65,
      "hit": false,
      "t": 179492.92995312496,
      "d": 866.5954687499907,
      "v": 115
    },
    {
      "midi": 58,
      "hit": false,
      "t": 179492.92995312496,
      "d": 913.8643124999944,
      "v": 110
    },
    {
      "midi": 56,
      "hit": false,
      "t": 180496.07985937496,
      "d": 900.7340781250095,
      "v": 112
    },
    {
      "midi": 63,
      "hit": false,
      "t": 180496.07985937496,
      "d": 940.1247812500224,
      "v": 115
    },
    {
      "midi": 70,
      "hit": false,
      "t": 180496.07985937496,
      "d": 945.3768750000163,
      "v": 116
    },
    {
      "midi": 67,
      "hit": false,
      "t": 181509.733953125,
      "d": 1362.9183281250007,
      "v": 121
    },
    {
      "midi": 63,
      "hit": false,
      "t": 181509.733953125,
      "d": 1462.708109375002,
      "v": 115
    },
    {
      "midi": 60,
      "hit": false,
      "t": 181509.733953125,
      "d": 1499.4727656249888,
      "v": 115
    },
    {
      "midi": 70,
      "hit": false,
      "t": 183024.963,
      "d": 309.8735312499921,
      "v": 127
    },
    {
      "midi": 67,
      "hit": false,
      "t": 183024.963,
      "d": 320.37771874998,
      "v": 127
    },
    {
      "midi": 72,
      "hit": false,
      "t": 183024.963,
      "d": 320.37771874998,
      "v": 123
    },
    {
      "midi": 56,
      "hit": false,
      "t": 183526.53795312496,
      "d": 1150.208531250013,
      "v": 115
    },
    {
      "midi": 60,
      "hit": false,
      "t": 183526.53795312496,
      "d": 1155.460625000007,
      "v": 115
    },
    {
      "midi": 68,
      "hit": false,
      "t": 183526.53795312496,
      "d": 1207.9815625000047,
      "v": 115
    },
    {
      "midi": 70,
      "hit": false,
      "t": 185036.51490624997,
      "d": 338.7600468749879,
      "v": 121
    },
    {
      "midi": 58,
      "hit": false,
      "t": 185039.14095312497,
      "d": 351.89028125000186,
      "v": 110
    },
    {
      "midi": 63,
      "hit": false,
      "t": 185039.14095312497,
      "d": 362.39446874998976,
      "v": 102
    },
    {
      "midi": 70,
      "hit": false,
      "t": 185545.96799999996,
      "d": 1118.6959687499912,
      "v": 116
    },
    {
      "midi": 65,
      "hit": false,
      "t": 185545.96799999996,
      "d": 1129.200156249979,
      "v": 109
    },
    {
      "midi": 67,
      "hit": false,
      "t": 185545.96799999996,
      "d": 1176.4689999999828,
      "v": 90
    },
    {
      "midi": 70,
      "hit": false,
      "t": 187053.31890624994,
      "d": 420.1675000000105,
      "v": 119
    },
    {
      "midi": 63,
      "hit": false,
      "t": 187055.94495312494,
      "d": 393.90703125001164,
      "v": 115
    },
    {
      "midi": 58,
      "hit": false,
      "t": 187055.94495312494,
      "d": 404.41121874999953,
      "v": 115
    },
    {
      "midi": 72,
      "hit": false,
      "t": 187560.14595312494,
      "d": 842.9610468749888,
      "v": 118
    },
    {
      "midi": 65,
      "hit": false,
      "t": 187560.14595312494,
      "d": 866.5954687499907,
      "v": 115
    },
    {
      "midi": 58,
      "hit": false,
      "t": 187560.14595312494,
      "d": 913.8643124999944,
      "v": 110
    },
    {
      "midi": 56,
      "hit": false,
      "t": 188563.29585937495,
      "d": 900.7340781250095,
      "v": 112
    },
    {
      "midi": 63,
      "hit": false,
      "t": 188563.29585937495,
      "d": 940.1247812500224,
      "v": 115
    },
    {
      "midi": 70,
      "hit": false,
      "t": 188563.29585937495,
      "d": 945.3768750000163,
      "v": 116
    },
    {
      "midi": 67,
      "hit": false,
      "t": 189576.94995312497,
      "d": 1362.9183281250007,
      "v": 121
    },
    {
      "midi": 63,
      "hit": false,
      "t": 189576.94995312497,
      "d": 1462.708109375002,
      "v": 115
    },
    {
      "midi": 60,
      "hit": false,
      "t": 189576.94995312497,
      "d": 1499.4727656249888,
      "v": 115
    },
    {
      "midi": 70,
      "hit": false,
      "t": 191092.17899999997,
      "d": 309.8735312499921,
      "v": 127
    },
    {
      "midi": 67,
      "hit": false,
      "t": 191092.17899999997,
      "d": 320.37771874998,
      "v": 127
    },
    {
      "midi": 72,
      "hit": false,
      "t": 191092.17899999997,
      "d": 320.37771874998,
      "v": 123
    },
    {
      "midi": 56,
      "hit": false,
      "t": 191593.75395312495,
      "d": 1150.208531250013,
      "v": 115
    },
    {
      "midi": 60,
      "hit": false,
      "t": 191593.75395312495,
      "d": 1155.460625000007,
      "v": 115
    },
    {
      "midi": 68,
      "hit": false,
      "t": 191593.75395312495,
      "d": 1207.9815625000047,
      "v": 115
    },
    {
      "midi": 70,
      "hit": false,
      "t": 193103.73090624996,
      "d": 338.7600468749879,
      "v": 121
    },
    {
      "midi": 58,
      "hit": false,
      "t": 193106.35695312495,
      "d": 351.89028125000186,
      "v": 110
    },
    {
      "midi": 63,
      "hit": false,
      "t": 193106.35695312495,
      "d": 362.39446874998976,
      "v": 102
    },
    {
      "midi": 70,
      "hit": false,
      "t": 193613.18399999995,
      "d": 1118.6959687499912,
      "v": 116
    },
    {
      "midi": 65,
      "hit": false,
      "t": 193613.18399999995,
      "d": 1129.200156249979,
      "v": 109
    },
    {
      "midi": 67,
      "hit": false,
      "t": 193613.18399999995,
      "d": 1176.4689999999828,
      "v": 90
    },
    {
      "midi": 70,
      "hit": false,
      "t": 195120.53490624993,
      "d": 420.1675000000105,
      "v": 119
    },
    {
      "midi": 63,
      "hit": false,
      "t": 195123.16095312493,
      "d": 393.90703125001164,
      "v": 115
    },
    {
      "midi": 58,
      "hit": false,
      "t": 195123.16095312493,
      "d": 404.41121874999953,
      "v": 115
    },
    {
      "midi": 72,
      "hit": false,
      "t": 195627.36195312493,
      "d": 842.9610468749888,
      "v": 118
    },
    {
      "midi": 65,
      "hit": false,
      "t": 195627.36195312493,
      "d": 866.5954687499907,
      "v": 115
    },
    {
      "midi": 58,
      "hit": false,
      "t": 195627.36195312493,
      "d": 913.8643124999944,
      "v": 110
    },
    {
      "midi": 56,
      "hit": false,
      "t": 196630.51185937494,
      "d": 900.7340781250095,
      "v": 112
    },
    {
      "midi": 63,
      "hit": false,
      "t": 196630.51185937494,
      "d": 940.1247812500224,
      "v": 115
    },
    {
      "midi": 70,
      "hit": false,
      "t": 196630.51185937494,
      "d": 945.3768750000163,
      "v": 116
    },
    {
      "midi": 67,
      "hit": false,
      "t": 197644.16595312496,
      "d": 1362.9183281250007,
      "v": 121
    },
    {
      "midi": 63,
      "hit": false,
      "t": 197644.16595312496,
      "d": 1462.708109375002,
      "v": 115
    },
    {
      "midi": 60,
      "hit": false,
      "t": 197644.16595312496,
      "d": 1499.4727656249888,
      "v": 115
    },
    {
      "midi": 70,
      "hit": false,
      "t": 199159.39499999996,
      "d": 309.8735312499921,
      "v": 127
    },
    {
      "midi": 67,
      "hit": false,
      "t": 199159.39499999996,
      "d": 320.37771874998,
      "v": 127
    },
    {
      "midi": 72,
      "hit": false,
      "t": 199159.39499999996,
      "d": 320.37771874998,
      "v": 123
    },
    {
      "midi": 56,
      "hit": false,
      "t": 199660.96995312494,
      "d": 1150.208531250013,
      "v": 115
    },
    {
      "midi": 60,
      "hit": false,
      "t": 199660.96995312494,
      "d": 1155.460625000007,
      "v": 115
    },
    {
      "midi": 68,
      "hit": false,
      "t": 199660.96995312494,
      "d": 1207.9815625000047,
      "v": 115
    },
    {
      "midi": 70,
      "hit": false,
      "t": 201170.94690624994,
      "d": 338.7600468749879,
      "v": 121
    },
    {
      "midi": 58,
      "hit": false,
      "t": 201173.57295312494,
      "d": 351.89028125000186,
      "v": 110
    },
    {
      "midi": 63,
      "hit": false,
      "t": 201173.57295312494,
      "d": 362.39446874998976,
      "v": 102
    },
    {
      "midi": 70,
      "hit": false,
      "t": 201680.39999999994,
      "d": 1118.6959687499912,
      "v": 116
    },
    {
      "midi": 65,
      "hit": false,
      "t": 201680.39999999994,
      "d": 1129.200156249979,
      "v": 109
    },
    {
      "midi": 67,
      "hit": false,
      "t": 201680.39999999994,
      "d": 1176.4689999999828,
      "v": 90
    },
    {
      "midi": 70,
      "hit": false,
      "t": 203187.75090624992,
      "d": 420.1675000000105,
      "v": 119
    },
    {
      "midi": 63,
      "hit": false,
      "t": 203190.3769531249,
      "d": 393.90703125001164,
      "v": 115
    },
    {
      "midi": 58,
      "hit": false,
      "t": 203190.3769531249,
      "d": 404.41121874999953,
      "v": 115
    },
    {
      "midi": 72,
      "hit": false,
      "t": 203694.5779531249,
      "d": 842.9610468749888,
      "v": 118
    },
    {
      "midi": 65,
      "hit": false,
      "t": 203694.5779531249,
      "d": 866.5954687499907,
      "v": 115
    },
    {
      "midi": 58,
      "hit": false,
      "t": 203694.5779531249,
      "d": 913.8643124999944,
      "v": 110
    },
    {
      "midi": 56,
      "hit": false,
      "t": 204697.72785937492,
      "d": 900.7340781250095,
      "v": 112
    },
    {
      "midi": 63,
      "hit": false,
      "t": 204697.72785937492,
      "d": 940.1247812500224,
      "v": 115
    },
    {
      "midi": 70,
      "hit": false,
      "t": 204697.72785937492,
      "d": 945.3768750000163,
      "v": 116
    },
    {
      "midi": 67,
      "hit": false,
      "t": 205711.38195312495,
      "d": 1362.9183281250007,
      "v": 121
    },
    {
      "midi": 63,
      "hit": false,
      "t": 205711.38195312495,
      "d": 1462.708109375002,
      "v": 115
    },
    {
      "midi": 60,
      "hit": false,
      "t": 205711.38195312495,
      "d": 1499.4727656249888,
      "v": 115
    },
    {
      "midi": 70,
      "hit": false,
      "t": 207226.61099999995,
      "d": 309.8735312499921,
      "v": 127
    },
    {
      "midi": 67,
      "hit": false,
      "t": 207226.61099999995,
      "d": 320.37771874998,
      "v": 127
    },
    {
      "midi": 72,
      "hit": false,
      "t": 207226.61099999995,
      "d": 320.37771874998,
      "v": 123
    },
    {
      "midi": 56,
      "hit": false,
      "t": 207728.18595312492,
      "d": 1150.208531250013,
      "v": 115
    },
    {
      "midi": 60,
      "hit": false,
      "t": 207728.18595312492,
      "d": 1155.460625000007,
      "v": 115
    },
    {
      "midi": 68,
      "hit": false,
      "t": 207728.18595312492,
      "d": 1207.9815625000047,
      "v": 115
    },
    {
      "midi": 70,
      "hit": false,
      "t": 209238.16290624993,
      "d": 338.7600468749879,
      "v": 121
    },
    {
      "midi": 58,
      "hit": false,
      "t": 209240.78895312492,
      "d": 351.89028125000186,
      "v": 110
    },
    {
      "midi": 63,
      "hit": false,
      "t": 209240.78895312492,
      "d": 362.39446874998976,
      "v": 102
    },
    {
      "midi": 70,
      "hit": false,
      "t": 209747.61599999992,
      "d": 1118.6959687499912,
      "v": 116
    },
    {
      "midi": 65,
      "hit": false,
      "t": 209747.61599999992,
      "d": 1129.200156249979,
      "v": 109
    },
    {
      "midi": 67,
      "hit": false,
      "t": 209747.61599999992,
      "d": 1176.4689999999828,
      "v": 90
    },
    {
      "midi": 70,
      "hit": false,
      "t": 211254.9669062499,
      "d": 420.1675000000105,
      "v": 119
    },
    {
      "midi": 63,
      "hit": false,
      "t": 211257.5929531249,
      "d": 393.90703125001164,
      "v": 115
    },
    {
      "midi": 58,
      "hit": false,
      "t": 211257.5929531249,
      "d": 404.41121874999953,
      "v": 115
    },
    {
      "midi": 72,
      "hit": false,
      "t": 211761.7939531249,
      "d": 842.9610468749888,
      "v": 118
    },
    {
      "midi": 65,
      "hit": false,
      "t": 211761.7939531249,
      "d": 866.5954687499907,
      "v": 115
    },
    {
      "midi": 58,
      "hit": false,
      "t": 211761.7939531249,
      "d": 913.8643124999944,
      "v": 110
    },
    {
      "midi": 56,
      "hit": false,
      "t": 212764.9438593749,
      "d": 900.7340781250095,
      "v": 112
    },
    {
      "midi": 63,
      "hit": false,
      "t": 212764.9438593749,
      "d": 940.1247812500224,
      "v": 115
    },
    {
      "midi": 70,
      "hit": false,
      "t": 212764.9438593749,
      "d": 945.3768750000163,
      "v": 116
    },
    {
      "midi": 60,
      "hit": false,
      "t": 213778.59795312493,
      "d": 719.5368437499856,
      "v": 115
    },
    {
      "midi": 63,
      "hit": false,
      "t": 213778.59795312493,
      "d": 730.0410312499735,
      "v": 115
    },
    {
      "midi": 67,
      "hit": false,
      "t": 213778.59795312493,
      "d": 730.0410312499735,
      "v": 121
    },
    {
      "midi": 60,
      "hit": false,
      "t": 214542.7775937499,
      "d": 719.5368437499856,
      "v": 105
    },
    {
      "midi": 67,
      "hit": false,
      "t": 214545.4036406249,
      "d": 716.9107968749886,
      "v": 114
    },
    {
      "midi": 63,
      "hit": false,
      "t": 214548.0296874999,
      "d": 706.4066093750007,
      "v": 101
    },
    {
      "midi": 70,
      "hit": false,
      "t": 215293.82699999987,
      "d": 309.8735312499921,
      "v": 127
    },
    {
      "midi": 67,
      "hit": false,
      "t": 215293.82699999987,
      "d": 320.37771874998,
      "v": 127
    },
    {
      "midi": 72,
      "hit": false,
      "t": 215293.82699999987,
      "d": 320.37771874998,
      "v": 123
    },
    {
      "midi": 56,
      "hit": false,
      "t": 215795.40195312485,
      "d": 730.0410312500026,
      "v": 115
    },
    {
      "midi": 60,
      "hit": false,
      "t": 215795.40195312485,
      "d": 730.0410312500026,
      "v": 115
    },
    {
      "midi": 68,
      "hit": false,
      "t": 215795.40195312485,
      "d": 730.0410312500026,
      "v": 115
    },
    {
      "midi": 60,
      "hit": false,
      "t": 216551.70345312485,
      "d": 698.5284687500098,
      "v": 116
    },
    {
      "midi": 68,
      "hit": false,
      "t": 216551.70345312485,
      "d": 714.2847500000207,
      "v": 102
    },
    {
      "midi": 56,
      "hit": false,
      "t": 216551.70345312485,
      "d": 719.5368437500147,
      "v": 101
    },
    {
      "midi": 70,
      "hit": false,
      "t": 217305.37890624985,
      "d": 338.7600468749879,
      "v": 121
    },
    {
      "midi": 58,
      "hit": false,
      "t": 217308.00495312485,
      "d": 351.89028125000186,
      "v": 110
    },
    {
      "midi": 63,
      "hit": false,
      "t": 217308.00495312485,
      "d": 362.39446874998976,
      "v": 102
    },
    {
      "midi": 70,
      "hit": false,
      "t": 217814.83199999985,
      "d": 709.0326562499977,
      "v": 116
    },
    {
      "midi": 65,
      "hit": false,
      "t": 217814.83199999985,
      "d": 719.5368437499856,
      "v": 109
    },
    {
      "midi": 67,
      "hit": false,
      "t": 217814.83199999985,
      "d": 719.5368437499856,
      "v": 90
    },
    {
      "midi": 70,
      "hit": false,
      "t": 218571.13349999982,
      "d": 680.1461406250019,
      "v": 113
    },
    {
      "midi": 67,
      "hit": false,
      "t": 218571.13349999982,
      "d": 688.0242812499928,
      "v": 109
    },
    {
      "midi": 63,
      "hit": false,
      "t": 218571.13349999982,
      "d": 690.6503281249898,
      "v": 95
    },
    {
      "midi": 70,
      "hit": false,
      "t": 219322.1829062498,
      "d": 420.1675000000105,
      "v": 119
    },
    {
      "midi": 63,
      "hit": false,
      "t": 219324.8089531248,
      "d": 393.90703125001164,
      "v": 115
    },
    {
      "midi": 58,
      "hit": false,
      "t": 219324.8089531248,
      "d": 404.41121874999953,
      "v": 115
    },
    {
      "midi": 65,
      "hit": false,
      "t": 219829.0099531248,
      "d": 635.5033437499951,
      "v": 115
    },
    {
      "midi": 72,
      "hit": false,
      "t": 219829.0099531248,
      "d": 635.5033437499951,
      "v": 118
    },
    {
      "midi": 58,
      "hit": false,
      "t": 219829.0099531248,
      "d": 913.8643124999944,
      "v": 110
    },
    {
      "midi": 63,
      "hit": false,
      "t": 220577.43331249978,
      "d": 225.84003125000163,
      "v": 95
    },
    {
      "midi": 70,
      "hit": false,
      "t": 220577.43331249978,
      "d": 233.71817187499255,
      "v": 127
    },
    {
      "midi": 56,
      "hit": false,
      "t": 220837.41195312477,
      "d": 900.7340781250095,
      "v": 112
    },
    {
      "midi": 63,
      "hit": false,
      "t": 220837.41195312477,
      "d": 940.1247812500224,
      "v": 115
    },
    {
      "midi": 70,
      "hit": false,
      "t": 220837.41195312477,
      "d": 945.3768750000163,
      "v": 116
    },
    {
      "midi": 60,
      "hit": false,
      "t": 221845.81395312477,
      "d": 719.5368437499856,
      "v": 115
    },
    {
      "midi": 63,
      "hit": false,
      "t": 221845.81395312477,
      "d": 730.0410312499735,
      "v": 115
    },
    {
      "midi": 67,
      "hit": false,
      "t": 221845.81395312477,
      "d": 730.0410312499735,
      "v": 121
    },
    {
      "midi": 60,
      "hit": false,
      "t": 222609.99359374974,
      "d": 719.5368437499856,
      "v": 105
    },
    {
      "midi": 67,
      "hit": false,
      "t": 222612.61964062473,
      "d": 716.9107968749886,
      "v": 114
    },
    {
      "midi": 63,
      "hit": false,
      "t": 222615.24568749973,
      "d": 706.4066093750007,
      "v": 101
    },
    {
      "midi": 70,
      "hit": false,
      "t": 223361.0429999997,
      "d": 309.8735312499921,
      "v": 127
    },
    {
      "midi": 67,
      "hit": false,
      "t": 223361.0429999997,
      "d": 320.37771874998,
      "v": 127
    },
    {
      "midi": 72,
      "hit": false,
      "t": 223361.0429999997,
      "d": 320.37771874998,
      "v": 123
    },
    {
      "midi": 56,
      "hit": false,
      "t": 223862.6179531247,
      "d": 730.0410312500026,
      "v": 115
    },
    {
      "midi": 60,
      "hit": false,
      "t": 223862.6179531247,
      "d": 730.0410312500026,
      "v": 115
    },
    {
      "midi": 68,
      "hit": false,
      "t": 223862.6179531247,
      "d": 730.0410312500026,
      "v": 115
    },
    {
      "midi": 60,
      "hit": false,
      "t": 224618.9194531247,
      "d": 698.5284687500098,
      "v": 116
    },
    {
      "midi": 68,
      "hit": false,
      "t": 224618.9194531247,
      "d": 714.2847500000207,
      "v": 102
    },
    {
      "midi": 56,
      "hit": false,
      "t": 224618.9194531247,
      "d": 719.5368437500147,
      "v": 101
    },
    {
      "midi": 70,
      "hit": false,
      "t": 225372.5949062497,
      "d": 338.7600468749879,
      "v": 121
    },
    {
      "midi": 58,
      "hit": false,
      "t": 225375.2209531247,
      "d": 351.89028125000186,
      "v": 110
    },
    {
      "midi": 63,
      "hit": false,
      "t": 225375.2209531247,
      "d": 362.39446874998976,
      "v": 102
    },
    {
      "midi": 70,
      "hit": false,
      "t": 225882.0479999997,
      "d": 709.0326562499977,
      "v": 116
    },
    {
      "midi": 65,
      "hit": false,
      "t": 225882.0479999997,
      "d": 719.5368437499856,
      "v": 109
    },
    {
      "midi": 67,
      "hit": false,
      "t": 225882.0479999997,
      "d": 719.5368437499856,
      "v": 90
    },
    {
      "midi": 70,
      "hit": false,
      "t": 226638.34949999966,
      "d": 680.1461406250019,
      "v": 113
    },
    {
      "midi": 67,
      "hit": false,
      "t": 226638.34949999966,
      "d": 688.0242812499928,
      "v": 109
    },
    {
      "midi": 63,
      "hit": false,
      "t": 226638.34949999966,
      "d": 690.6503281249898,
      "v": 95
    },
    {
      "midi": 70,
      "hit": false,
      "t": 227389.39890624964,
      "d": 420.1675000000105,
      "v": 119
    },
    {
      "midi": 63,
      "hit": false,
      "t": 227392.02495312464,
      "d": 393.90703125001164,
      "v": 115
    },
    {
      "midi": 58,
      "hit": false,
      "t": 227392.02495312464,
      "d": 404.41121874999953,
      "v": 115
    },
    {
      "midi": 65,
      "hit": false,
      "t": 227896.22595312464,
      "d": 635.5033437499951,
      "v": 115
    },
    {
      "midi": 72,
      "hit": false,
      "t": 227896.22595312464,
      "d": 635.5033437499951,
      "v": 118
    },
    {
      "midi": 58,
      "hit": false,
      "t": 227896.22595312464,
      "d": 913.8643124999944,
      "v": 110
    },
    {
      "midi": 63,
      "hit": false,
      "t": 228644.64931249962,
      "d": 225.84003125000163,
      "v": 95
    },
    {
      "midi": 70,
      "hit": false,
      "t": 228644.64931249962,
      "d": 233.71817187499255,
      "v": 127
    },
    {
      "midi": 56,
      "hit": false,
      "t": 228904.6279531246,
      "d": 900.7340781250095,
      "v": 112
    },
    {
      "midi": 63,
      "hit": false,
      "t": 228904.6279531246,
      "d": 940.1247812500224,
      "v": 115
    },
    {
      "midi": 70,
      "hit": false,
      "t": 228904.6279531246,
      "d": 945.3768750000163,
      "v": 116
    },
    {
      "midi": 63,
      "hit": false,
      "t": 229913.0299531246,
      "d": 3776.255406250013,
      "v": 115
    },
    {
      "midi": 60,
      "hit": false,
      "t": 229913.0299531246,
      "d": 3792.011687500024,
      "v": 115
    },
    {
      "midi": 67,
      "hit": false,
      "t": 229913.0299531246,
      "d": 3823.5242500000168,
      "v": 121
    }
  ]
}