{
  "jsonPath": "Rock/Christian Alternative Rock/Casting Crowns/while-you-were-sleeping-original-christmas-version-high-without-background-vocals.json",
  "path": "Rock\\Christian Alternative Rock\\Casting Crowns\\While You Were Sleeping (Original Christmas Version) (High without background vocals).mid",
  "name": "While You Were Sleeping (Original Christmas Version) (High without background vocals)",
  "difficulty": "Advanced",
  "bpm": 142.0000710000355,
  "notes": [
    {
      "midi": 65,
      "hit": false,
      "t": 0,
      "d": 1685.7385937500003,
      "v": 119
    },
    {
      "midi": 72,
      "hit": false,
      "t": 0,
      "d": 1685.7385937500003,
      "v": 119
    },
    {
      "midi": 77,
      "hit": false,
      "t": 0,
      "d": 1685.7385937500003,
      "v": 119
    },
    {
      "midi": 80,
      "hit": false,
      "t": 0,
      "d": 1685.7385937500003,
      "v": 119
    },
    {
      "midi": 80,
      "hit": false,
      "t": 0,
      "d": 101.23234375000001,
      "v": 119
    },
    {
      "midi": 41,
      "hit": false,
      "t": 0,
      "d": 184.85906250000002,
      "v": 127
    },
    {
      "midi": 53,
      "hit": false,
      "t": 189.26046875000003,
      "d": 206.86609375000006,
      "v": 127
    },
    {
      "midi": 72,
      "hit": false,
      "t": 211.26750000000004,
      "d": 101.23234375000004,
      "v": 119
    },
    {
      "midi": 41,
      "hit": false,
      "t": 400.52796875000007,
      "d": 206.86609375000006,
      "v": 127
    },
    {
      "midi": 77,
      "hit": false,
      "t": 422.5350000000001,
      "d": 101.23234375000004,
      "v": 119
    },
    {
      "midi": 53,
      "hit": false,
      "t": 611.7954687500002,
      "d": 206.86609375,
      "v": 127
    },
    {
      "midi": 72,
      "hit": false,
      "t": 633.8025000000001,
      "d": 101.23234375000004,
      "v": 119
    },
    {
      "midi": 41,
      "hit": false,
      "t": 823.0629687500002,
      "d": 206.86609375000012,
      "v": 127
    },
    {
      "midi": 80,
      "hit": false,
      "t": 845.0700000000002,
      "d": 101.23234375000004,
      "v": 119
    },
    {
      "midi": 53,
      "hit": false,
      "t": 1034.3304687500004,
      "d": 206.86609375000012,
      "v": 127
    },
    {
      "midi": 72,
      "hit": false,
      "t": 1056.3375000000003,
      "d": 101.23234374999993,
      "v": 119
    },
    {
      "midi": 41,
      "hit": false,
      "t": 1245.5979687500005,
      "d": 206.86609375000012,
      "v": 127
    },
    {
      "midi": 79,
      "hit": false,
      "t": 1267.6050000000002,
      "d": 101.23234374999993,
      "v": 119
    },
    {
      "midi": 53,
      "hit": false,
      "t": 1456.8654687500007,
      "d": 206.86609375000012,
      "v": 127
    },
    {
      "midi": 72,
      "hit": false,
      "t": 1478.8725000000002,
      "d": 101.23234374999993,
      "v": 119
    },
    {
      "midi": 49,
      "hit": false,
      "t": 1668.1329687500008,
      "d": 206.86609375000012,
      "v": 127
    },
    {
      "midi": 80,
      "hit": false,
      "t": 1690.14,
      "d": 101.23234374999993,
      "v": 119
    },
    {
      "midi": 61,
      "hit": false,
      "t": 1690.1400000000003,
      "d": 1685.7385937500003,
      "v": 119
    },
    {
      "midi": 73,
      "hit": false,
      "t": 1690.1400000000003,
      "d": 1685.7385937500003,
      "v": 119
    },
    {
      "midi": 77,
      "hit": false,
      "t": 1690.1400000000003,
      "d": 1685.7385937500003,
      "v": 119
    },
    {
      "midi": 80,
      "hit": false,
      "t": 1690.1400000000003,
      "d": 1685.7385937500003,
      "v": 119
    },
    {
      "midi": 61,
      "hit": false,
      "t": 1879.400468750001,
      "d": 206.8660937499999,
      "v": 127
    },
    {
      "midi": 73,
      "hit": false,
      "t": 1901.4075,
      "d": 101.23234374999993,
      "v": 119
    },
    {
      "midi": 49,
      "hit": false,
      "t": 2090.667968750001,
      "d": 206.8660937499999,
      "v": 127
    },
    {
      "midi": 77,
      "hit": false,
      "t": 2112.675,
      "d": 101.23234374999993,
      "v": 119
    },
    {
      "midi": 61,
      "hit": false,
      "t": 2301.935468750001,
      "d": 206.8660937499999,
      "v": 127
    },
    {
      "midi": 73,
      "hit": false,
      "t": 2323.9425,
      "d": 101.23234374999993,
      "v": 119
    },
    {
      "midi": 49,
      "hit": false,
      "t": 2513.2029687500008,
      "d": 206.8660937499999,
      "v": 127
    },
    {
      "midi": 80,
      "hit": false,
      "t": 2535.21,
      "d": 101.23234374999993,
      "v": 119
    },
    {
      "midi": 61,
      "hit": false,
      "t": 2724.4704687500007,
      "d": 206.8660937499999,
      "v": 127
    },
    {
      "midi": 73,
      "hit": false,
      "t": 2746.4775,
      "d": 101.23234374999993,
      "v": 119
    },
    {
      "midi": 49,
      "hit": false,
      "t": 2935.7379687500006,
      "d": 206.8660937499999,
      "v": 127
    },
    {
      "midi": 79,
      "hit": false,
      "t": 2957.745,
      "d": 101.23234374999993,
      "v": 119
    },
    {
      "midi": 61,
      "hit": false,
      "t": 3147.0054687500005,
      "d": 206.8660937499999,
      "v": 127
    },
    {
      "midi": 73,
      "hit": false,
      "t": 3169.0125,
      "d": 101.23234374999993,
      "v": 119
    },
    {
      "midi": 44,
      "hit": false,
      "t": 3358.2729687500005,
      "d": 206.8660937499999,
      "v": 127
    },
    {
      "midi": 80,
      "hit": false,
      "t": 3380.2799999999997,
      "d": 101.23234374999993,
      "v": 119
    },
    {
      "midi": 68,
      "hit": false,
      "t": 3380.2800000000007,
      "d": 1685.7385937500003,
      "v": 119
    },
    {
      "midi": 75,
      "hit": false,
      "t": 3380.2800000000007,
      "d": 1685.7385937500003,
      "v": 119
    },
    {
      "midi": 80,
      "hit": false,
      "t": 3380.2800000000007,
      "d": 1685.7385937500003,
      "v": 119
    },
    {
      "midi": 84,
      "hit": false,
      "t": 3380.2800000000007,
      "d": 1685.7385937500003,
      "v": 119
    },
    {
      "midi": 56,
      "hit": false,
      "t": 3569.5404687500004,
      "d": 206.8660937499999,
      "v": 127
    },
    {
      "midi": 72,
      "hit": false,
      "t": 3591.5474999999997,
      "d": 101.23234374999993,
      "v": 119
    },
    {
      "midi": 44,
      "hit": false,
      "t": 3780.8079687500003,
      "d": 206.8660937499999,
      "v": 127
    },
    {
      "midi": 75,
      "hit": false,
      "t": 3802.8149999999996,
      "d": 101.23234374999993,
      "v": 119
    },
    {
      "midi": 56,
      "hit": false,
      "t": 3992.0754687500003,
      "d": 206.8660937499999,
      "v": 127
    },
    {
      "midi": 72,
      "hit": false,
      "t": 4014.0824999999995,
      "d": 101.23234374999993,
      "v": 119
    },
    {
      "midi": 44,
      "hit": false,
      "t": 4203.34296875,
      "d": 206.8660937499999,
      "v": 127
    },
    {
      "midi": 80,
      "hit": false,
      "t": 4225.349999999999,
      "d": 101.23234374999993,
      "v": 119
    },
    {
      "midi": 56,
      "hit": false,
      "t": 4414.61046875,
      "d": 206.8660937499999,
      "v": 127
    },
    {
      "midi": 72,
      "hit": false,
      "t": 4436.617499999999,
      "d": 101.23234374999993,
      "v": 119
    },
    {
      "midi": 44,
      "hit": false,
      "t": 4625.87796875,
      "d": 206.8660937499999,
      "v": 127
    },
    {
      "midi": 75,
      "hit": false,
      "t": 4647.884999999999,
      "d": 101.23234374999993,
      "v": 119
    },
    {
      "midi": 56,
      "hit": false,
      "t": 4837.14546875,
      "d": 206.8660937499999,
      "v": 127
    },
    {
      "midi": 80,
      "hit": false,
      "t": 4859.152499999999,
      "d": 101.23234374999993,
      "v": 119
    },
    {
      "midi": 39,
      "hit": false,
      "t": 5048.41296875,
      "d": 206.8660937499999,
      "v": 127
    },
    {
      "midi": 82,
      "hit": false,
      "t": 5070.419999999999,
      "d": 101.23234374999993,
      "v": 119
    },
    {
      "midi": 80,
      "hit": false,
      "t": 5070.420000000001,
      "d": 831.8657812500005,
      "v": 119
    },
    {
      "midi": 63,
      "hit": false,
      "t": 5070.420000000001,
      "d": 1685.7385937500012,
      "v": 119
    },
    {
      "midi": 75,
      "hit": false,
      "t": 5070.420000000001,
      "d": 1685.7385937500012,
      "v": 119
    },
    {
      "midi": 82,
      "hit": false,
      "t": 5070.420000000001,
      "d": 1685.7385937500012,
      "v": 119
    },
    {
      "midi": 51,
      "hit": false,
      "t": 5259.68046875,
      "d": 206.8660937499999,
      "v": 127
    },
    {
      "midi": 75,
      "hit": false,
      "t": 5281.687499999999,
      "d": 101.23234374999993,
      "v": 119
    },
    {
      "midi": 39,
      "hit": false,
      "t": 5470.94796875,
      "d": 206.8660937499999,
      "v": 127
    },
    {
      "midi": 79,
      "hit": false,
      "t": 5492.954999999999,
      "d": 101.23234374999993,
      "v": 119
    },
    {
      "midi": 51,
      "hit": false,
      "t": 5682.21546875,
      "d": 206.8660937499999,
      "v": 127
    },
    {
      "midi": 75,
      "hit": false,
      "t": 5704.222499999999,
      "d": 101.23234374999993,
      "v": 119
    },
    {
      "midi": 39,
      "hit": false,
      "t": 5893.48296875,
      "d": 206.8660937499999,
      "v": 127
    },
    {
      "midi": 82,
      "hit": false,
      "t": 5915.489999999999,
      "d": 101.23234374999993,
      "v": 119
    },
    {
      "midi": 79,
      "hit": false,
      "t": 5915.490000000002,
      "d": 831.8657812500005,
      "v": 119
    },
    {
      "midi": 51,
      "hit": false,
      "t": 6104.7504687499995,
      "d": 206.8660937499999,
      "v": 127
    },
    {
      "midi": 75,
      "hit": false,
      "t": 6126.757499999999,
      "d": 101.23234374999993,
      "v": 119
    },
    {
      "midi": 39,
      "hit": false,
      "t": 6316.017968749999,
      "d": 206.8660937499999,
      "v": 127
    },
    {
      "midi": 79,
      "hit": false,
      "t": 6338.024999999999,
      "d": 101.23234374999993,
      "v": 119
    },
    {
      "midi": 51,
      "hit": false,
      "t": 6527.285468749999,
      "d": 206.8660937499999,
      "v": 127
    },
    {
      "midi": 75,
      "hit": false,
      "t": 6549.292499999999,
      "d": 101.23234374999993,
      "v": 119
    },
    {
      "midi": 41,
      "hit": false,
      "t": 6738.552968749999,
      "d": 206.8660937499999,
      "v": 127
    },
    {
      "midi": 80,
      "hit": false,
      "t": 6760.559999999999,
      "d": 101.23234374999993,
      "v": 119
    },
    {
      "midi": 65,
      "hit": false,
      "t": 6760.560000000002,
      "d": 1685.7385937499994,
      "v": 119
    },
    {
      "midi": 72,
      "hit": false,
      "t": 6760.560000000002,
      "d": 1685.7385937499994,
      "v": 119
    },
    {
      "midi": 77,
      "hit": false,
      "t": 6760.560000000002,
      "d": 1685.7385937499994,
      "v": 119
    },
    {
      "midi": 80,
      "hit": false,
      "t": 6760.560000000002,
      "d": 1685.7385937499994,
      "v": 119
    },
    {
      "midi": 53,
      "hit": false,
      "t": 6949.820468749999,
      "d": 206.8660937499999,
      "v": 127
    },
    {
      "midi": 72,
      "hit": false,
      "t": 6971.8274999999985,
      "d": 101.23234374999993,
      "v": 119
    },
    {
      "midi": 41,
      "hit": false,
      "t": 7161.087968749999,
      "d": 206.8660937499999,
      "v": 127
    },
    {
      "midi": 77,
      "hit": false,
      "t": 7183.094999999998,
      "d": 101.23234374999993,
      "v": 119
    },
    {
      "midi": 53,
      "hit": false,
      "t": 7372.355468749999,
      "d": 206.8660937499999,
      "v": 127
    },
    {
      "midi": 72,
      "hit": false,
      "t": 7394.362499999998,
      "d": 101.23234374999993,
      "v": 119
    },
    {
      "midi": 41,
      "hit": false,
      "t": 7583.622968749999,
      "d": 206.8660937499999,
      "v": 127
    },
    {
      "midi": 80,
      "hit": false,
      "t": 7605.629999999998,
      "d": 101.23234374999993,
      "v": 119
    },
    {
      "midi": 53,
      "hit": false,
      "t": 7794.890468749999,
      "d": 206.8660937499999,
      "v": 127
    },
    {
      "midi": 72,
      "hit": false,
      "t": 7816.897499999998,
      "d": 101.23234374999993,
      "v": 119
    },
    {
      "midi": 41,
      "hit": false,
      "t": 8006.157968749999,
      "d": 206.8660937499999,
      "v": 127
    },
    {
      "midi": 79,
      "hit": false,
      "t": 8028.164999999998,
      "d": 101.23234374999993,
      "v": 119
    },
    {
      "midi": 53,
      "hit": false,
      "t": 8217.425468749998,
      "d": 206.8660937500008,
      "v": 127
    },
    {
      "midi": 72,
      "hit": false,
      "t": 8239.432499999999,
      "d": 101.23234374999993,
      "v": 119
    },
    {
      "midi": 49,
      "hit": false,
      "t": 8428.692968749998,
      "d": 206.8660937500008,
      "v": 127
    },
    {
      "midi": 80,
      "hit": false,
      "t": 8450.699999999999,
      "d": 101.23234374999993,
      "v": 119
    },
    {
      "midi": 61,
      "hit": false,
      "t": 8450.7,
      "d": 1685.7385937500003,
      "v": 119
    },
    {
      "midi": 73,
      "hit": false,
      "t": 8450.7,
      "d": 1685.7385937500003,
      "v": 119
    },
    {
      "midi": 77,
      "hit": false,
      "t": 8450.7,
      "d": 1685.7385937500003,
      "v": 119
    },
    {
      "midi": 80,
      "hit": false,
      "t": 8450.7,
      "d": 1685.7385937500003,
      "v": 119
    },
    {
      "midi": 61,
      "hit": false,
      "t": 8639.960468749998,
      "d": 206.8660937500008,
      "v": 127
    },
    {
      "midi": 73,
      "hit": false,
      "t": 8661.967499999999,
      "d": 101.23234374999993,
      "v": 119
    },
    {
      "midi": 49,
      "hit": false,
      "t": 8851.227968749998,
      "d": 206.8660937500008,
      "v": 127
    },
    {
      "midi": 77,
      "hit": false,
      "t": 8873.234999999999,
      "d": 101.23234374999993,
      "v": 119
    },
    {
      "midi": 61,
      "hit": false,
      "t": 9062.495468749998,
      "d": 206.8660937500008,
      "v": 127
    },
    {
      "midi": 73,
      "hit": false,
      "t": 9084.502499999999,
      "d": 101.23234374999993,
      "v": 119
    },
    {
      "midi": 49,
      "hit": false,
      "t": 9273.762968749998,
      "d": 206.8660937500008,
      "v": 127
    },
    {
      "midi": 80,
      "hit": false,
      "t": 9295.769999999999,
      "d": 101.23234374999993,
      "v": 119
    },
    {
      "midi": 61,
      "hit": false,
      "t": 9485.030468749997,
      "d": 206.8660937500008,
      "v": 127
    },
    {
      "midi": 73,
      "hit": false,
      "t": 9507.037499999999,
      "d": 101.23234374999993,
      "v": 119
    },
    {
      "midi": 49,
      "hit": false,
      "t": 9696.297968749997,
      "d": 206.8660937500008,
      "v": 127
    },
    {
      "midi": 79,
      "hit": false,
      "t": 9718.304999999998,
      "d": 101.23234374999993,
      "v": 119
    },
    {
      "midi": 61,
      "hit": false,
      "t": 9907.565468749997,
      "d": 206.8660937500008,
      "v": 127
    },
    {
      "midi": 73,
      "hit": false,
      "t": 9929.572499999998,
      "d": 101.23234374999993,
      "v": 119
    },
    {
      "midi": 44,
      "hit": false,
      "t": 10118.832968749997,
      "d": 206.8660937500008,
      "v": 127
    },
    {
      "midi": 80,
      "hit": false,
      "t": 10140.839999999998,
      "d": 101.23234374999993,
      "v": 119
    },
    {
      "midi": 68,
      "hit": false,
      "t": 10140.84,
      "d": 1685.7385937500003,
      "v": 119
    },
    {
      "midi": 75,
      "hit": false,
      "t": 10140.84,
      "d": 1685.7385937500003,
      "v": 119
    },
    {
      "midi": 80,
      "hit": false,
      "t": 10140.84,
      "d": 1685.7385937500003,
      "v": 119
    },
    {
      "midi": 84,
      "hit": false,
      "t": 10140.84,
      "d": 1685.7385937500003,
      "v": 119
    },
    {
      "midi": 56,
      "hit": false,
      "t": 10330.100468749997,
      "d": 206.8660937500008,
      "v": 127
    },
    {
      "midi": 72,
      "hit": false,
      "t": 10352.107499999998,
      "d": 101.23234374999993,
      "v": 119
    },
    {
      "midi": 44,
      "hit": false,
      "t": 10541.367968749997,
      "d": 206.8660937500008,
      "v": 127
    },
    {
      "midi": 75,
      "hit": false,
      "t": 10563.374999999998,
      "d": 101.23234374999993,
      "v": 119
    },
    {
      "midi": 56,
      "hit": false,
      "t": 10752.635468749997,
      "d": 206.8660937500008,
      "v": 127
    },
    {
      "midi": 72,
      "hit": false,
      "t": 10774.642499999998,
      "d": 101.23234374999993,
      "v": 119
    },
    {
      "midi": 44,
      "hit": false,
      "t": 10963.902968749997,
      "d": 206.8660937500008,
      "v": 127
    },
    {
      "midi": 80,
      "hit": false,
      "t": 10985.909999999998,
      "d": 101.23234374999993,
      "v": 119
    },
    {
      "midi": 56,
      "hit": false,
      "t": 11175.170468749997,
      "d": 206.8660937500008,
      "v": 127
    },
    {
      "midi": 72,
      "hit": false,
      "t": 11197.177499999998,
      "d": 101.23234374999993,
      "v": 119
    },
    {
      "midi": 44,
      "hit": false,
      "t": 11386.437968749997,
      "d": 206.8660937500008,
      "v": 127
    },
    {
      "midi": 75,
      "hit": false,
      "t": 11408.444999999998,
      "d": 101.23234374999993,
      "v": 119
    },
    {
      "midi": 56,
      "hit": false,
      "t": 11597.705468749997,
      "d": 206.8660937500008,
      "v": 127
    },
    {
      "midi": 75,
      "hit": false,
      "t": 11619.712499999998,
      "d": 101.23234374999993,
      "v": 119
    },
    {
      "midi": 39,
      "hit": false,
      "t": 11808.972968749997,
      "d": 206.8660937500008,
      "v": 127
    },
    {
      "midi": 82,
      "hit": false,
      "t": 11830.979999999998,
      "d": 101.23234374999993,
      "v": 119
    },
    {
      "midi": 80,
      "hit": false,
      "t": 11830.98,
      "d": 831.8657812500005,
      "v": 119
    },
    {
      "midi": 63,
      "hit": false,
      "t": 11830.98,
      "d": 1685.7385937500003,
      "v": 119
    },
    {
      "midi": 75,
      "hit": false,
      "t": 11830.98,
      "d": 1685.7385937500003,
      "v": 119
    },
    {
      "midi": 82,
      "hit": false,
      "t": 11830.98,
      "d": 1685.7385937500003,
      "v": 119
    },
    {
      "midi": 51,
      "hit": false,
      "t": 12020.240468749997,
      "d": 206.8660937500008,
      "v": 127
    },
    {
      "midi": 75,
      "hit": false,
      "t": 12042.247499999998,
      "d": 101.23234374999993,
      "v": 119
    },
    {
      "midi": 39,
      "hit": false,
      "t": 12231.507968749997,
      "d": 206.8660937500008,
      "v": 127
    },
    {
      "midi": 79,
      "hit": false,
      "t": 12253.514999999998,
      "d": 101.23234374999993,
      "v": 119
    },
    {
      "midi": 51,
      "hit": false,
      "t": 12442.775468749996,
      "d": 206.8660937500008,
      "v": 127
    },
    {
      "midi": 75,
      "hit": false,
      "t": 12464.782499999998,
      "d": 101.23234374999993,
      "v": 119
    },
    {
      "midi": 39,
      "hit": false,
      "t": 12654.042968749996,
      "d": 206.8660937500008,
      "v": 127
    },
    {
      "midi": 82,
      "hit": false,
      "t": 12676.049999999997,
      "d": 101.23234374999993,
      "v": 119
    },
    {
      "midi": 79,
      "hit": false,
      "t": 12676.05,
      "d": 831.8657812500005,
      "v": 119
    },
    {
      "midi": 51,
      "hit": false,
      "t": 12865.310468749996,
      "d": 206.8660937500008,
      "v": 127
    },
    {
      "midi": 80,
      "hit": false,
      "t": 12887.317499999997,
      "d": 101.23234374999993,
      "v": 119
    },
    {
      "midi": 39,
      "hit": false,
      "t": 13076.577968749996,
      "d": 206.8660937500008,
      "v": 127
    },
    {
      "midi": 79,
      "hit": false,
      "t": 13098.584999999997,
      "d": 101.23234374999993,
      "v": 119
    },
    {
      "midi": 51,
      "hit": false,
      "t": 13287.845468749996,
      "d": 206.8660937500008,
      "v": 127
    },
    {
      "midi": 82,
      "hit": false,
      "t": 13309.852499999997,
      "d": 101.23234374999993,
      "v": 119
    },
    {
      "midi": 80,
      "hit": false,
      "t": 13521.119999999997,
      "d": 101.23234374999993,
      "v": 119
    },
    {
      "midi": 41,
      "hit": false,
      "t": 13521.119999999997,
      "d": 184.8590624999997,
      "v": 127
    },
    {
      "midi": 65,
      "hit": false,
      "t": 13521.119999999999,
      "d": 1685.7385937500003,
      "v": 119
    },
    {
      "midi": 72,
      "hit": false,
      "t": 13521.119999999999,
      "d": 1685.7385937500003,
      "v": 119
    },
    {
      "midi": 77,
      "hit": false,
      "t": 13521.119999999999,
      "d": 1685.7385937500003,
      "v": 119
    },
    {
      "midi": 80,
      "hit": false,
      "t": 13521.119999999999,
      "d": 1685.7385937500003,
      "v": 119
    },
    {
      "midi": 53,
      "hit": false,
      "t": 13710.380468749996,
      "d": 206.8660937500008,
      "v": 127
    },
    {
      "midi": 72,
      "hit": false,
      "t": 13732.387499999997,
      "d": 101.23234374999993,
      "v": 119
    },
    {
      "midi": 41,
      "hit": false,
      "t": 13921.647968749996,
      "d": 206.8660937500008,
      "v": 127
    },
    {
      "midi": 77,
      "hit": false,
      "t": 13943.654999999997,
      "d": 101.23234374999993,
      "v": 119
    },
    {
      "midi": 53,
      "hit": false,
      "t": 14132.915468749996,
      "d": 206.8660937500008,
      "v": 127
    },
    {
      "midi": 72,
      "hit": false,
      "t": 14154.922499999997,
      "d": 101.23234374999993,
      "v": 119
    },
    {
      "midi": 41,
      "hit": false,
      "t": 14344.182968749996,
      "d": 206.8660937500008,
      "v": 127
    },
    {
      "midi": 80,
      "hit": false,
      "t": 14366.189999999997,
      "d": 101.23234374999993,
      "v": 119
    },
    {
      "midi": 53,
      "hit": false,
      "t": 14555.450468749996,
      "d": 206.8660937500008,
      "v": 127
    },
    {
      "midi": 72,
      "hit": false,
      "t": 14577.457499999997,
      "d": 101.23234374999993,
      "v": 119
    },
    {
      "midi": 41,
      "hit": false,
      "t": 14766.717968749996,
      "d": 206.8660937500008,
      "v": 127
    },
    {
      "midi": 79,
      "hit": false,
      "t": 14788.724999999997,
      "d": 101.23234374999993,
      "v": 119
    },
    {
      "midi": 53,
      "hit": false,
      "t": 14977.985468749996,
      "d": 206.8660937500008,
      "v": 127
    },
    {
      "midi": 72,
      "hit": false,
      "t": 14999.992499999997,
      "d": 101.23234374999993,
      "v": 119
    },
    {
      "midi": 49,
      "hit": false,
      "t": 15189.252968749995,
      "d": 206.8660937500008,
      "v": 127
    },
    {
      "midi": 80,
      "hit": false,
      "t": 15211.259999999997,
      "d": 101.23234374999993,
      "v": 119
    },
    {
      "midi": 61,
      "hit": false,
      "t": 15211.259999999998,
      "d": 1685.7385937500003,
      "v": 119
    },
    {
      "midi": 73,
      "hit": false,
      "t": 15211.259999999998,
      "d": 1685.7385937500003,
      "v": 119
    },
    {
      "midi": 77,
      "hit": false,
      "t": 15211.259999999998,
      "d": 1685.7385937500003,
      "v": 119
    },
    {
      "midi": 80,
      "hit": false,
      "t": 15211.259999999998,
      "d": 1685.7385937500003,
      "v": 119
    },
    {
      "midi": 61,
      "hit": false,
      "t": 15400.520468749995,
      "d": 206.8660937500008,
      "v": 127
    },
    {
      "midi": 73,
      "hit": false,
      "t": 15422.527499999997,
      "d": 101.23234374999993,
      "v": 119
    },
    {
      "midi": 49,
      "hit": false,
      "t": 15611.787968749995,
      "d": 206.8660937500008,
      "v": 127
    },
    {
      "midi": 77,
      "hit": false,
      "t": 15633.794999999996,
      "d": 101.23234374999993,
      "v": 119
    },
    {
      "midi": 61,
      "hit": false,
      "t": 15823.055468749995,
      "d": 206.8660937500008,
      "v": 127
    },
    {
      "midi": 73,
      "hit": false,
      "t": 15845.062499999996,
      "d": 101.23234374999993,
      "v": 119
    },
    {
      "midi": 49,
      "hit": false,
      "t": 16034.322968749995,
      "d": 206.8660937500008,
      "v": 127
    },
    {
      "midi": 80,
      "hit": false,
      "t": 16056.329999999996,
      "d": 101.23234374999993,
      "v": 119
    },
    {
      "midi": 61,
      "hit": false,
      "t": 16245.590468749995,
      "d": 206.8660937500008,
      "v": 127
    },
    {
      "midi": 73,
      "hit": false,
      "t": 16267.597499999996,
      "d": 101.23234374999993,
      "v": 119
    },
    {
      "midi": 49,
      "hit": false,
      "t": 16456.857968749995,
      "d": 206.86609374999898,
      "v": 127
    },
    {
      "midi": 79,
      "hit": false,
      "t": 16478.864999999998,
      "d": 101.23234375000175,
      "v": 119
    },
    {
      "midi": 61,
      "hit": false,
      "t": 16668.125468749993,
      "d": 206.86609374999898,
      "v": 127
    },
    {
      "midi": 73,
      "hit": false,
      "t": 16690.1325,
      "d": 101.23234375000175,
      "v": 119
    },
    {
      "midi": 44,
      "hit": false,
      "t": 16879.39296874999,
      "d": 206.86609374999898,
      "v": 127
    },
    {
      "midi": 68,
      "hit": false,
      "t": 16901.399999999998,
      "d": 1685.7385937500003,
      "v": 119
    },
    {
      "midi": 75,
      "hit": false,
      "t": 16901.399999999998,
      "d": 1685.7385937500003,
      "v": 119
    },
    {
      "midi": 80,
      "hit": false,
      "t": 16901.399999999998,
      "d": 1685.7385937500003,
      "v": 119
    },
    {
      "midi": 84,
      "hit": false,
      "t": 16901.399999999998,
      "d": 1685.7385937500003,
      "v": 119
    },
    {
      "midi": 80,
      "hit": false,
      "t": 16901.4,
      "d": 101.23234375000175,
      "v": 119
    },
    {
      "midi": 56,
      "hit": false,
      "t": 17090.66046874999,
      "d": 206.86609374999898,
      "v": 127
    },
    {
      "midi": 72,
      "hit": false,
      "t": 17112.667500000003,
      "d": 101.23234375000175,
      "v": 119
    },
    {
      "midi": 44,
      "hit": false,
      "t": 17301.927968749987,
      "d": 206.86609374999898,
      "v": 127
    },
    {
      "midi": 75,
      "hit": false,
      "t": 17323.935000000005,
      "d": 101.23234375000175,
      "v": 119
    },
    {
      "midi": 56,
      "hit": false,
      "t": 17513.195468749986,
      "d": 206.86609374999898,
      "v": 127
    },
    {
      "midi": 72,
      "hit": false,
      "t": 17535.202500000007,
      "d": 101.23234375000175,
      "v": 119
    },
    {
      "midi": 44,
      "hit": false,
      "t": 17724.462968749984,
      "d": 206.86609374999898,
      "v": 127
    },
    {
      "midi": 80,
      "hit": false,
      "t": 17746.47000000001,
      "d": 101.23234375000175,
      "v": 119
    },
    {
      "midi": 56,
      "hit": false,
      "t": 17935.73046874998,
      "d": 206.86609374999898,
      "v": 127
    },
    {
      "midi": 72,
      "hit": false,
      "t": 17957.73750000001,
      "d": 101.23234375000175,
      "v": 119
    },
    {
      "midi": 44,
      "hit": false,
      "t": 18146.99796874998,
      "d": 206.86609374999898,
      "v": 127
    },
    {
      "midi": 75,
      "hit": false,
      "t": 18169.005000000012,
      "d": 101.23234375000175,
      "v": 119
    },
    {
      "midi": 56,
      "hit": false,
      "t": 18358.265468749978,
      "d": 206.86609374999898,
      "v": 127
    },
    {
      "midi": 80,
      "hit": false,
      "t": 18380.272500000014,
      "d": 101.23234375000175,
      "v": 119
    },
    {
      "midi": 39,
      "hit": false,
      "t": 18569.532968749976,
      "d": 206.86609374999898,
      "v": 127
    },
    {
      "midi": 80,
      "hit": false,
      "t": 18591.539999999997,
      "d": 831.8657812499987,
      "v": 119
    },
    {
      "midi": 63,
      "hit": false,
      "t": 18591.539999999997,
      "d": 1685.7385937499967,
      "v": 119
    },
    {
      "midi": 75,
      "hit": false,
      "t": 18591.539999999997,
      "d": 1685.7385937499967,
      "v": 119
    },
    {
      "midi": 82,
      "hit": false,
      "t": 18591.539999999997,
      "d": 1685.7385937499967,
      "v": 119
    },
    {
      "midi": 82,
      "hit": false,
      "t": 18591.540000000015,
      "d": 101.23234375000175,
      "v": 119
    },
    {
      "midi": 51,
      "hit": false,
      "t": 18780.800468749974,
      "d": 206.86609374999898,
      "v": 127
    },
    {
      "midi": 75,
      "hit": false,
      "t": 18802.807500000017,
      "d": 101.23234375000175,
      "v": 119
    },
    {
      "midi": 39,
      "hit": false,
      "t": 18992.067968749972,
      "d": 206.86609374999898,
      "v": 127
    },
    {
      "midi": 79,
      "hit": false,
      "t": 19014.07500000002,
      "d": 101.23234375000175,
      "v": 119
    },
    {
      "midi": 51,
      "hit": false,
      "t": 19203.33546874997,
      "d": 206.86609374999898,
      "v": 127
    },
    {
      "midi": 75,
      "hit": false,
      "t": 19225.34250000002,
      "d": 101.23234375000175,
      "v": 119
    },
    {
      "midi": 39,
      "hit": false,
      "t": 19414.60296874997,
      "d": 206.86609374999898,
      "v": 127
    },
    {
      "midi": 79,
      "hit": false,
      "t": 19436.609999999997,
      "d": 831.8657812499987,
      "v": 119
    },
    {
      "midi": 82,
      "hit": false,
      "t": 19436.610000000022,
      "d": 101.23234375000175,
      "v": 119
    },
    {
      "midi": 51,
      "hit": false,
      "t": 19625.870468749967,
      "d": 206.86609374999898,
      "v": 127
    },
    {
      "midi": 75,
      "hit": false,
      "t": 19647.877500000024,
      "d": 101.23234375000175,
      "v": 119
    },
    {
      "midi": 39,
      "hit": false,
      "t": 19837.137968749965,
      "d": 206.86609374999898,
      "v": 127
    },
    {
      "midi": 79,
      "hit": false,
      "t": 19859.145000000026,
      "d": 101.23234375000175,
      "v": 119
    },
    {
      "midi": 51,
      "hit": false,
      "t": 20048.405468749963,
      "d": 206.86609374999898,
      "v": 127
    },
    {
      "midi": 75,
      "hit": false,
      "t": 20070.412500000028,
      "d": 101.23234375000175,
      "v": 119
    },
    {
      "midi": 41,
      "hit": false,
      "t": 20259.67296874996,
      "d": 206.86609374999898,
      "v": 127
    },
    {
      "midi": 65,
      "hit": false,
      "t": 20281.679999999993,
      "d": 1685.7385937500003,
      "v": 119
    },
    {
      "midi": 72,
      "hit": false,
      "t": 20281.679999999993,
      "d": 1685.7385937500003,
      "v": 119
    },
    {
      "midi": 77,
      "hit": false,
      "t": 20281.679999999993,
      "d": 1685.7385937500003,
      "v": 119
    },
    {
      "midi": 80,
      "hit": false,
      "t": 20281.679999999993,
      "d": 1685.7385937500003,
      "v": 119
    },
    {
      "midi": 80,
      "hit": false,
      "t": 20281.68000000003,
      "d": 101.23234375000175,
      "v": 119
    },
    {
      "midi": 53,
      "hit": false,
      "t": 20470.94046874996,
      "d": 206.86609374999898,
      "v": 127
    },
    {
      "midi": 72,
      "hit": false,
      "t": 20492.94750000003,
      "d": 101.23234375000175,
      "v": 119
    },
    {
      "midi": 41,
      "hit": false,
      "t": 20682.207968749957,
      "d": 206.86609374999898,
      "v": 127
    },
    {
      "midi": 77,
      "hit": false,
      "t": 20704.215000000033,
      "d": 101.23234375000175,
      "v": 119
    },
    {
      "midi": 53,
      "hit": false,
      "t": 20893.475468749955,
      "d": 206.86609374999898,
      "v": 127
    },
    {
      "midi": 72,
      "hit": false,
      "t": 20915.482500000035,
      "d": 101.23234375000175,
      "v": 119
    },
    {
      "midi": 41,
      "hit": false,
      "t": 21104.742968749953,
      "d": 206.86609374999898,
      "v": 127
    },
    {
      "midi": 80,
      "hit": false,
      "t": 21126.750000000036,
      "d": 101.23234375000175,
      "v": 119
    },
    {
      "midi": 53,
      "hit": false,
      "t": 21316.01046874995,
      "d": 206.86609374999898,
      "v": 127
    },
    {
      "midi": 72,
      "hit": false,
      "t": 21338.017500000038,
      "d": 101.23234375000175,
      "v": 119
    },
    {
      "midi": 41,
      "hit": false,
      "t": 21527.27796874995,
      "d": 206.86609374999898,
      "v": 127
    },
    {
      "midi": 79,
      "hit": false,
      "t": 21549.28500000004,
      "d": 101.23234375000175,
      "v": 119
    },
    {
      "midi": 53,
      "hit": false,
      "t": 21738.545468749948,
      "d": 206.86609374999898,
      "v": 127
    },
    {
      "midi": 72,
      "hit": false,
      "t": 21760.55250000004,
      "d": 101.23234375000175,
      "v": 119
    },
    {
      "midi": 49,
      "hit": false,
      "t": 21949.812968749946,
      "d": 206.86609374999898,
      "v": 127
    },
    {
      "midi": 61,
      "hit": false,
      "t": 21971.819999999992,
      "d": 1685.7385937500003,
      "v": 119
    },
    {
      "midi": 73,
      "hit": false,
      "t": 21971.819999999992,
      "d": 1685.7385937500003,
      "v": 119
    },
    {
      "midi": 77,
      "hit": false,
      "t": 21971.819999999992,
      "d": 1685.7385937500003,
      "v": 119
    },
    {
      "midi": 80,
      "hit": false,
      "t": 21971.819999999992,
      "d": 1685.7385937500003,
      "v": 119
    },
    {
      "midi": 80,
      "hit": false,
      "t": 21971.820000000043,
      "d": 101.23234375000175,
      "v": 119
    },
    {
      "midi": 61,
      "hit": false,
      "t": 22161.080468749944,
      "d": 206.86609374999898,
      "v": 127
    },
    {
      "midi": 73,
      "hit": false,
      "t": 22183.087500000045,
      "d": 101.23234375000175,
      "v": 119
    },
    {
      "midi": 49,
      "hit": false,
      "t": 22372.347968749942,
      "d": 206.86609374999898,
      "v": 127
    },
    {
      "midi": 77,
      "hit": false,
      "t": 22394.355000000047,
      "d": 101.23234375000175,
      "v": 119
    },
    {
      "midi": 61,
      "hit": false,
      "t": 22583.61546874994,
      "d": 206.86609374999898,
      "v": 127
    },
    {
      "midi": 73,
      "hit": false,
      "t": 22605.62250000005,
      "d": 101.23234375000175,
      "v": 119
    },
    {
      "midi": 49,
      "hit": false,
      "t": 22794.88296874994,
      "d": 206.86609374999898,
      "v": 127
    },
    {
      "midi": 80,
      "hit": false,
      "t": 22816.89000000005,
      "d": 101.23234375000175,
      "v": 119
    },
    {
      "midi": 61,
      "hit": false,
      "t": 23006.150468749936,
      "d": 206.86609374999898,
      "v": 127
    },
    {
      "midi": 73,
      "hit": false,
      "t": 23028.157500000052,
      "d": 101.23234375000175,
      "v": 119
    },
    {
      "midi": 49,
      "hit": false,
      "t": 23217.417968749935,
      "d": 206.86609374999898,
      "v": 127
    },
    {
      "midi": 79,
      "hit": false,
      "t": 23239.425000000054,
      "d": 101.23234375000175,
      "v": 119
    },
    {
      "midi": 61,
      "hit": false,
      "t": 23428.685468749933,
      "d": 206.86609374999898,
      "v": 127
    },
    {
      "midi": 73,
      "hit": false,
      "t": 23450.692500000056,
      "d": 101.23234375000175,
      "v": 119
    },
    {
      "midi": 44,
      "hit": false,
      "t": 23639.95296874993,
      "d": 206.86609374999898,
      "v": 127
    },
    {
      "midi": 68,
      "hit": false,
      "t": 23661.959999999992,
      "d": 1685.7385937500003,
      "v": 119
    },
    {
      "midi": 75,
      "hit": false,
      "t": 23661.959999999992,
      "d": 1685.7385937500003,
      "v": 119
    },
    {
      "midi": 80,
      "hit": false,
      "t": 23661.959999999992,
      "d": 1685.7385937500003,
      "v": 119
    },
    {
      "midi": 84,
      "hit": false,
      "t": 23661.959999999992,
      "d": 1685.7385937500003,
      "v": 119
    },
    {
      "midi": 80,
      "hit": false,
      "t": 23661.960000000057,
      "d": 101.23234375000175,
      "v": 119
    },
    {
      "midi": 56,
      "hit": false,
      "t": 23851.22046874993,
      "d": 206.86609374999898,
      "v": 127
    },
    {
      "midi": 72,
      "hit": false,
      "t": 23873.22750000006,
      "d": 101.23234375000175,
      "v": 119
    },
    {
      "midi": 44,
      "hit": false,
      "t": 24062.487968749927,
      "d": 206.86609374999898,
      "v": 127
    },
    {
      "midi": 75,
      "hit": false,
      "t": 24084.49500000006,
      "d": 101.23234375000175,
      "v": 119
    },
    {
      "midi": 56,
      "hit": false,
      "t": 24273.755468749925,
      "d": 206.86609374999898,
      "v": 127
    },
    {
      "midi": 72,
      "hit": false,
      "t": 24295.762500000063,
      "d": 101.23234375000175,
      "v": 119
    },
    {
      "midi": 44,
      "hit": false,
      "t": 24485.022968749923,
      "d": 206.86609374999898,
      "v": 127
    },
    {
      "midi": 80,
      "hit": false,
      "t": 24507.030000000064,
      "d": 101.23234375000175,
      "v": 119
    },
    {
      "midi": 56,
      "hit": false,
      "t": 24696.29046874992,
      "d": 206.86609374999898,
      "v": 127
    },
    {
      "midi": 72,
      "hit": false,
      "t": 24718.297500000066,
      "d": 101.23234375000175,
      "v": 119
    },
    {
      "midi": 44,
      "hit": false,
      "t": 24907.55796874992,
      "d": 206.86609374999898,
      "v": 127
    },
    {
      "midi": 75,
      "hit": false,
      "t": 24929.565000000068,
      "d": 101.23234375000175,
      "v": 119
    },
    {
      "midi": 56,
      "hit": false,
      "t": 25118.825468749917,
      "d": 206.86609374999898,
      "v": 127
    },
    {
      "midi": 75,
      "hit": false,
      "t": 25140.83250000007,
      "d": 101.23234375000175,
      "v": 119
    },
    {
      "midi": 39,
      "hit": false,
      "t": 25330.092968749916,
      "d": 206.86609374999898,
      "v": 127
    },
    {
      "midi": 80,
      "hit": false,
      "t": 25352.09999999999,
      "d": 831.8657812499987,
      "v": 119
    },
    {
      "midi": 63,
      "hit": false,
      "t": 25352.09999999999,
      "d": 1685.7385937499967,
      "v": 119
    },
    {
      "midi": 75,
      "hit": false,
      "t": 25352.09999999999,
      "d": 1685.7385937499967,
      "v": 119
    },
    {
      "midi": 82,
      "hit": false,
      "t": 25352.09999999999,
      "d": 1685.7385937499967,
      "v": 119
    },
    {
      "midi": 82,
      "hit": false,
      "t": 25352.10000000007,
      "d": 101.23234375000175,
      "v": 119
    },
    {
      "midi": 51,
      "hit": false,
      "t": 25541.360468749914,
      "d": 206.86609374999898,
      "v": 127
    },
    {
      "midi": 75,
      "hit": false,
      "t": 25563.367500000073,
      "d": 101.23234375000175,
      "v": 119
    },
    {
      "midi": 39,
      "hit": false,
      "t": 25752.62796874991,
      "d": 206.86609374999898,
      "v": 127
    },
    {
      "midi": 79,
      "hit": false,
      "t": 25774.635000000075,
      "d": 101.23234375000175,
      "v": 119
    },
    {
      "midi": 51,
      "hit": false,
      "t": 25963.89546874991,
      "d": 206.86609374999898,
      "v": 127
    },
    {
      "midi": 75,
      "hit": false,
      "t": 25985.902500000077,
      "d": 101.23234375000175,
      "v": 119
    },
    {
      "midi": 39,
      "hit": false,
      "t": 26175.162968749908,
      "d": 206.86609374999898,
      "v": 127
    },
    {
      "midi": 79,
      "hit": false,
      "t": 26197.16999999999,
      "d": 831.8657812499987,
      "v": 119
    },
    {
      "midi": 82,
      "hit": false,
      "t": 26197.17000000008,
      "d": 101.23234375000175,
      "v": 119
    },
    {
      "midi": 51,
      "hit": false,
      "t": 26386.430468749906,
      "d": 206.86609374999898,
      "v": 127
    },
    {
      "midi": 80,
      "hit": false,
      "t": 26408.43750000008,
      "d": 101.23234375000175,
      "v": 119
    },
    {
      "midi": 39,
      "hit": false,
      "t": 26597.697968749904,
      "d": 206.86609374999898,
      "v": 127
    },
    {
      "midi": 79,
      "hit": false,
      "t": 26619.70500000008,
      "d": 101.23234375000175,
      "v": 119
    },
    {
      "midi": 51,
      "hit": false,
      "t": 26808.965468749902,
      "d": 206.86609374999898,
      "v": 127
    },
    {
      "midi": 82,
      "hit": false,
      "t": 26830.972500000084,
      "d": 101.23234375000175,
      "v": 119
    },
    {
      "midi": 41,
      "hit": false,
      "t": 27042.2399999999,
      "d": 184.8590624999997,
      "v": 127
    },
    {
      "midi": 65,
      "hit": false,
      "t": 27042.239999999987,
      "d": 1685.7385937500003,
      "v": 119
    },
    {
      "midi": 72,
      "hit": false,
      "t": 27042.239999999987,
      "d": 1685.7385937500003,
      "v": 119
    },
    {
      "midi": 77,
      "hit": false,
      "t": 27042.239999999987,
      "d": 1685.7385937500003,
      "v": 119
    },
    {
      "midi": 80,
      "hit": false,
      "t": 27042.239999999987,
      "d": 1685.7385937500003,
      "v": 119
    },
    {
      "midi": 80,
      "hit": false,
      "t": 27042.240000000085,
      "d": 101.23234375000175,
      "v": 119
    },
    {
      "midi": 53,
      "hit": false,
      "t": 27231.5004687499,
      "d": 206.86609374999898,
      "v": 127
    },
    {
      "midi": 72,
      "hit": false,
      "t": 27253.507500000087,
      "d": 101.23234375000175,
      "v": 119
    },
    {
      "midi": 41,
      "hit": false,
      "t": 27442.767968749897,
      "d": 206.86609374999898,
      "v": 127
    },
    {
      "midi": 77,
      "hit": false,
      "t": 27464.77500000009,
      "d": 101.23234375000175,
      "v": 119
    },
    {
      "midi": 53,
      "hit": false,
      "t": 27654.035468749895,
      "d": 206.86609374999898,
      "v": 127
    },
    {
      "midi": 72,
      "hit": false,
      "t": 27676.04250000009,
      "d": 101.23234375000175,
      "v": 119
    },
    {
      "midi": 41,
      "hit": false,
      "t": 27865.302968749893,
      "d": 206.86609374999898,
      "v": 127
    },
    {
      "midi": 80,
      "hit": false,
      "t": 27887.310000000092,
      "d": 101.23234375000175,
      "v": 119
    },
    {
      "midi": 53,
      "hit": false,
      "t": 28076.57046874989,
      "d": 206.86609374999898,
      "v": 127
    },
    {
      "midi": 72,
      "hit": false,
      "t": 28098.577500000094,
      "d": 101.23234375000175,
      "v": 119
    },
    {
      "midi": 41,
      "hit": false,
      "t": 28287.83796874989,
      "d": 206.86609374999898,
      "v": 127
    },
    {
      "midi": 79,
      "hit": false,
      "t": 28309.845000000096,
      "d": 101.23234375000175,
      "v": 119
    },
    {
      "midi": 53,
      "hit": false,
      "t": 28499.105468749887,
      "d": 206.86609374999898,
      "v": 127
    },
    {
      "midi": 72,
      "hit": false,
      "t": 28521.112500000097,
      "d": 101.23234375000175,
      "v": 119
    },
    {
      "midi": 49,
      "hit": false,
      "t": 28710.372968749885,
      "d": 206.86609374999898,
      "v": 127
    },
    {
      "midi": 61,
      "hit": false,
      "t": 28732.379999999986,
      "d": 1685.7385937500003,
      "v": 119
    },
    {
      "midi": 73,
      "hit": false,
      "t": 28732.379999999986,
      "d": 1685.7385937500003,
      "v": 119
    },
    {
      "midi": 77,
      "hit": false,
      "t": 28732.379999999986,
      "d": 1685.7385937500003,
      "v": 119
    },
    {
      "midi": 80,
      "hit": false,
      "t": 28732.379999999986,
      "d": 1685.7385937500003,
      "v": 119
    },
    {
      "midi": 80,
      "hit": false,
      "t": 28732.3800000001,
      "d": 101.23234375000175,
      "v": 119
    },
    {
      "midi": 61,
      "hit": false,
      "t": 28921.640468749883,
      "d": 206.86609374999898,
      "v": 127
    },
    {
      "midi": 73,
      "hit": false,
      "t": 28943.6475000001,
      "d": 101.23234375000175,
      "v": 119
    },
    {
      "midi": 49,
      "hit": false,
      "t": 29132.90796874988,
      "d": 206.86609374999898,
      "v": 127
    },
    {
      "midi": 77,
      "hit": false,
      "t": 29154.915000000103,
      "d": 101.23234375000175,
      "v": 119
    },
    {
      "midi": 61,
      "hit": false,
      "t": 29344.17546874988,
      "d": 206.86609374999898,
      "v": 127
    },
    {
      "midi": 73,
      "hit": false,
      "t": 29366.182500000104,
      "d": 101.23234375000175,
      "v": 119
    },
    {
      "midi": 49,
      "hit": false,
      "t": 29555.442968749878,
      "d": 206.86609374999898,
      "v": 127
    },
    {
      "midi": 80,
      "hit": false,
      "t": 29577.450000000106,
      "d": 101.23234375000175,
      "v": 119
    },
    {
      "midi": 61,
      "hit": false,
      "t": 29766.710468749876,
      "d": 206.86609374999898,
      "v": 127
    },
    {
      "midi": 73,
      "hit": false,
      "t": 29788.717500000108,
      "d": 101.23234375000175,
      "v": 119
    },
    {
      "midi": 49,
      "hit": false,
      "t": 29977.977968749874,
      "d": 206.86609374999898,
      "v": 127
    },
    {
      "midi": 79,
      "hit": false,
      "t": 29999.98500000011,
      "d": 101.23234375000175,
      "v": 119
    },
    {
      "midi": 61,
      "hit": false,
      "t": 30189.245468749872,
      "d": 206.86609374999898,
      "v": 127
    },
    {
      "midi": 73,
      "hit": false,
      "t": 30211.25250000011,
      "d": 101.23234375000175,
      "v": 119
    },
    {
      "midi": 44,
      "hit": false,
      "t": 30400.51296874987,
      "d": 206.86609374999898,
      "v": 127
    },
    {
      "midi": 68,
      "hit": false,
      "t": 30422.519999999986,
      "d": 1685.7385937500003,
      "v": 119
    },
    {
      "midi": 75,
      "hit": false,
      "t": 30422.519999999986,
      "d": 1685.7385937500003,
      "v": 119
    },
    {
      "midi": 80,
      "hit": false,
      "t": 30422.519999999986,
      "d": 1685.7385937500003,
      "v": 119
    },
    {
      "midi": 84,
      "hit": false,
      "t": 30422.519999999986,
      "d": 1685.7385937500003,
      "v": 119
    },
    {
      "midi": 80,
      "hit": false,
      "t": 30422.520000000113,
      "d": 101.23234375000175,
      "v": 119
    },
    {
      "midi": 56,
      "hit": false,
      "t": 30611.78046874987,
      "d": 206.86609374999898,
      "v": 127
    },
    {
      "midi": 72,
      "hit": false,
      "t": 30633.787500000115,
      "d": 101.23234375000175,
      "v": 119
    },
    {
      "midi": 44,
      "hit": false,
      "t": 30823.047968749866,
      "d": 206.86609374999898,
      "v": 127
    },
    {
      "midi": 75,
      "hit": false,
      "t": 30845.055000000117,
      "d": 101.23234375000175,
      "v": 119
    },
    {
      "midi": 56,
      "hit": false,
      "t": 31034.315468749865,
      "d": 206.86609374999898,
      "v": 127
    },
    {
      "midi": 72,
      "hit": false,
      "t": 31056.32250000012,
      "d": 101.23234375000175,
      "v": 119
    },
    {
      "midi": 44,
      "hit": false,
      "t": 31245.582968749863,
      "d": 206.86609374999898,
      "v": 127
    },
    {
      "midi": 80,
      "hit": false,
      "t": 31267.59000000012,
      "d": 101.23234375000175,
      "v": 119
    },
    {
      "midi": 56,
      "hit": false,
      "t": 31456.85046874986,
      "d": 206.86609374999898,
      "v": 127
    },
    {
      "midi": 72,
      "hit": false,
      "t": 31478.857500000122,
      "d": 101.23234375000175,
      "v": 119
    },
    {
      "midi": 44,
      "hit": false,
      "t": 31668.11796874986,
      "d": 206.86609374999898,
      "v": 127
    },
    {
      "midi": 75,
      "hit": false,
      "t": 31690.125000000124,
      "d": 101.23234375000175,
      "v": 119
    },
    {
      "midi": 56,
      "hit": false,
      "t": 31879.385468749857,
      "d": 206.86609374999898,
      "v": 127
    },
    {
      "midi": 80,
      "hit": false,
      "t": 31901.392500000125,
      "d": 101.23234375000175,
      "v": 119
    },
    {
      "midi": 39,
      "hit": false,
      "t": 32090.652968749855,
      "d": 206.86609374999898,
      "v": 127
    },
    {
      "midi": 80,
      "hit": false,
      "t": 32112.659999999985,
      "d": 831.8657812499987,
      "v": 119
    },
    {
      "midi": 63,
      "hit": false,
      "t": 32112.659999999985,
      "d": 1685.7385937499967,
      "v": 119
    },
    {
      "midi": 75,
      "hit": false,
      "t": 32112.659999999985,
      "d": 1685.7385937499967,
      "v": 119
    },
    {
      "midi": 82,
      "hit": false,
      "t": 32112.659999999985,
      "d": 1685.7385937499967,
      "v": 119
    },
    {
      "midi": 82,
      "hit": false,
      "t": 32112.660000000127,
      "d": 101.23234375000175,
      "v": 119
    },
    {
      "midi": 51,
      "hit": false,
      "t": 32301.920468749853,
      "d": 206.86609374999898,
      "v": 127
    },
    {
      "midi": 75,
      "hit": false,
      "t": 32323.92750000013,
      "d": 101.23234375000175,
      "v": 119
    },
    {
      "midi": 39,
      "hit": false,
      "t": 32513.18796874985,
      "d": 206.86609374999898,
      "v": 127
    },
    {
      "midi": 79,
      "hit": false,
      "t": 32535.19500000013,
      "d": 101.23234375000175,
      "v": 119
    },
    {
      "midi": 51,
      "hit": false,
      "t": 32724.45546874985,
      "d": 206.86609374999898,
      "v": 127
    },
    {
      "midi": 75,
      "hit": false,
      "t": 32746.462500000132,
      "d": 101.23234375000175,
      "v": 119
    },
    {
      "midi": 39,
      "hit": false,
      "t": 32935.72296874985,
      "d": 206.86609375000262,
      "v": 127
    },
    {
      "midi": 79,
      "hit": false,
      "t": 32957.72999999998,
      "d": 831.8657812500023,
      "v": 119
    },
    {
      "midi": 82,
      "hit": false,
      "t": 32957.730000000134,
      "d": 101.23234375000175,
      "v": 119
    },
    {
      "midi": 51,
      "hit": false,
      "t": 33146.99046874985,
      "d": 206.86609375000262,
      "v": 127
    },
    {
      "midi": 75,
      "hit": false,
      "t": 33168.997500000136,
      "d": 101.23234375000175,
      "v": 119
    },
    {
      "midi": 39,
      "hit": false,
      "t": 33358.25796874985,
      "d": 206.86609375000262,
      "v": 127
    },
    {
      "midi": 79,
      "hit": false,
      "t": 33380.26500000014,
      "d": 101.23234375000175,
      "v": 119
    },
    {
      "midi": 51,
      "hit": false,
      "t": 33569.52546874985,
      "d": 206.86609375000262,
      "v": 127
    },
    {
      "midi": 75,
      "hit": false,
      "t": 33591.53250000014,
      "d": 101.23234375000175,
      "v": 119
    },
    {
      "midi": 41,
      "hit": false,
      "t": 33780.792968749854,
      "d": 206.86609375000262,
      "v": 127
    },
    {
      "midi": 65,
      "hit": false,
      "t": 33802.79999999998,
      "d": 1685.7385937500003,
      "v": 119
    },
    {
      "midi": 72,
      "hit": false,
      "t": 33802.79999999998,
      "d": 1685.7385937500003,
      "v": 119
    },
    {
      "midi": 77,
      "hit": false,
      "t": 33802.79999999998,
      "d": 1685.7385937500003,
      "v": 119
    },
    {
      "midi": 80,
      "hit": false,
      "t": 33802.79999999998,
      "d": 1685.7385937500003,
      "v": 119
    },
    {
      "midi": 80,
      "hit": false,
      "t": 33802.80000000014,
      "d": 101.23234375000175,
      "v": 119
    },
    {
      "midi": 53,
      "hit": false,
      "t": 33992.060468749856,
      "d": 206.86609375000262,
      "v": 127
    },
    {
      "midi": 72,
      "hit": false,
      "t": 34014.06750000014,
      "d": 101.23234375000175,
      "v": 119
    },
    {
      "midi": 41,
      "hit": false,
      "t": 34203.32796874986,
      "d": 206.86609375000262,
      "v": 127
    },
    {
      "midi": 77,
      "hit": false,
      "t": 34225.335000000145,
      "d": 101.23234375000175,
      "v": 119
    },
    {
      "midi": 53,
      "hit": false,
      "t": 34414.59546874986,
      "d": 206.86609375000262,
      "v": 127
    },
    {
      "midi": 72,
      "hit": false,
      "t": 34436.60250000015,
      "d": 101.23234375000175,
      "v": 119
    },
    {
      "midi": 41,
      "hit": false,
      "t": 34625.86296874986,
      "d": 206.86609375000262,
      "v": 127
    },
    {
      "midi": 80,
      "hit": false,
      "t": 34647.87000000015,
      "d": 101.23234375000175,
      "v": 119
    },
    {
      "midi": 53,
      "hit": false,
      "t": 34837.13046874986,
      "d": 206.86609375000262,
      "v": 127
    },
    {
      "midi": 72,
      "hit": false,
      "t": 34859.13750000015,
      "d": 101.23234375000175,
      "v": 119
    },
    {
      "midi": 41,
      "hit": false,
      "t": 35048.397968749865,
      "d": 206.86609375000262,
      "v": 127
    },
    {
      "midi": 79,
      "hit": false,
      "t": 35070.40500000015,
      "d": 101.23234375000175,
      "v": 119
    },
    {
      "midi": 53,
      "hit": false,
      "t": 35259.66546874987,
      "d": 206.86609375000262,
      "v": 127
    },
    {
      "midi": 72,
      "hit": false,
      "t": 35281.67250000015,
      "d": 101.23234375000175,
      "v": 119
    },
    {
      "midi": 49,
      "hit": false,
      "t": 35470.93296874987,
      "d": 206.86609375000262,
      "v": 127
    },
    {
      "midi": 61,
      "hit": false,
      "t": 35492.93999999998,
      "d": 1685.7385937500003,
      "v": 119
    },
    {
      "midi": 73,
      "hit": false,
      "t": 35492.93999999998,
      "d": 1685.7385937500003,
      "v": 119
    },
    {
      "midi": 77,
      "hit": false,
      "t": 35492.93999999998,
      "d": 1685.7385937500003,
      "v": 119
    },
    {
      "midi": 80,
      "hit": false,
      "t": 35492.93999999998,
      "d": 1685.7385937500003,
      "v": 119
    },
    {
      "midi": 80,
      "hit": false,
      "t": 35492.940000000155,
      "d": 101.23234375000175,
      "v": 119
    },
    {
      "midi": 61,
      "hit": false,
      "t": 35682.20046874987,
      "d": 206.86609375000262,
      "v": 127
    },
    {
      "midi": 73,
      "hit": false,
      "t": 35704.20750000016,
      "d": 101.23234375000175,
      "v": 119
    },
    {
      "midi": 49,
      "hit": false,
      "t": 35893.46796874987,
      "d": 206.86609375000262,
      "v": 127
    },
    {
      "midi": 77,
      "hit": false,
      "t": 35915.47500000016,
      "d": 101.23234375000175,
      "v": 119
    },
    {
      "midi": 61,
      "hit": false,
      "t": 36104.735468749874,
      "d": 206.86609375000262,
      "v": 127
    },
    {
      "midi": 73,
      "hit": false,
      "t": 36126.74250000016,
      "d": 101.23234375000175,
      "v": 119
    },
    {
      "midi": 49,
      "hit": false,
      "t": 36316.002968749875,
      "d": 206.86609375000262,
      "v": 127
    },
    {
      "midi": 80,
      "hit": false,
      "t": 36338.01000000016,
      "d": 101.23234375000175,
      "v": 119
    },
    {
      "midi": 61,
      "hit": false,
      "t": 36527.27046874988,
      "d": 206.86609375000262,
      "v": 127
    },
    {
      "midi": 73,
      "hit": false,
      "t": 36549.277500000164,
      "d": 101.23234375000175,
      "v": 119
    },
    {
      "midi": 49,
      "hit": false,
      "t": 36738.53796874988,
      "d": 206.86609375000262,
      "v": 127
    },
    {
      "midi": 79,
      "hit": false,
      "t": 36760.545000000166,
      "d": 101.23234375000175,
      "v": 119
    },
    {
      "midi": 61,
      "hit": false,
      "t": 36949.80546874988,
      "d": 206.86609375000262,
      "v": 127
    },
    {
      "midi": 73,
      "hit": false,
      "t": 36971.81250000017,
      "d": 101.23234375000175,
      "v": 119
    },
    {
      "midi": 44,
      "hit": false,
      "t": 37161.07296874988,
      "d": 206.86609375000262,
      "v": 127
    },
    {
      "midi": 68,
      "hit": false,
      "t": 37183.07999999998,
      "d": 1685.7385937500003,
      "v": 119
    },
    {
      "midi": 75,
      "hit": false,
      "t": 37183.07999999998,
      "d": 1685.7385937500003,
      "v": 119
    },
    {
      "midi": 80,
      "hit": false,
      "t": 37183.07999999998,
      "d": 1685.7385937500003,
      "v": 119
    },
    {
      "midi": 84,
      "hit": false,
      "t": 37183.07999999998,
      "d": 1685.7385937500003,
      "v": 119
    },
    {
      "midi": 80,
      "hit": false,
      "t": 37183.08000000017,
      "d": 101.23234375000175,
      "v": 119
    },
    {
      "midi": 56,
      "hit": false,
      "t": 37372.340468749884,
      "d": 206.86609375000262,
      "v": 127
    },
    {
      "midi": 72,
      "hit": false,
      "t": 37394.34750000017,
      "d": 101.23234375000175,
      "v": 119
    },
    {
      "midi": 44,
      "hit": false,
      "t": 37583.607968749886,
      "d": 206.86609375000262,
      "v": 127
    },
    {
      "midi": 75,
      "hit": false,
      "t": 37605.61500000017,
      "d": 101.23234375000175,
      "v": 119
    },
    {
      "midi": 56,
      "hit": false,
      "t": 37794.87546874989,
      "d": 206.86609375000262,
      "v": 127
    },
    {
      "midi": 72,
      "hit": false,
      "t": 37816.882500000174,
      "d": 101.23234375000175,
      "v": 119
    },
    {
      "midi": 44,
      "hit": false,
      "t": 38006.14296874989,
      "d": 206.86609375000262,
      "v": 127
    },
    {
      "midi": 80,
      "hit": false,
      "t": 38028.150000000176,
      "d": 101.23234375000175,
      "v": 119
    },
    {
      "midi": 56,
      "hit": false,
      "t": 38217.41046874989,
      "d": 206.86609375000262,
      "v": 127
    },
    {
      "midi": 72,
      "hit": false,
      "t": 38239.41750000018,
      "d": 101.23234375000175,
      "v": 119
    },
    {
      "midi": 44,
      "hit": false,
      "t": 38428.67796874989,
      "d": 206.86609375000262,
      "v": 127
    },
    {
      "midi": 75,
      "hit": false,
      "t": 38450.68500000018,
      "d": 101.23234375000175,
      "v": 119
    },
    {
      "midi": 56,
      "hit": false,
      "t": 38639.945468749895,
      "d": 206.86609375000262,
      "v": 127
    },
    {
      "midi": 75,
      "hit": false,
      "t": 38661.95250000018,
      "d": 101.23234375000175,
      "v": 119
    },
    {
      "midi": 39,
      "hit": false,
      "t": 38851.2129687499,
      "d": 206.86609375000262,
      "v": 127
    },
    {
      "midi": 80,
      "hit": false,
      "t": 38873.21999999998,
      "d": 831.8657812500023,
      "v": 119
    },
    {
      "midi": 63,
      "hit": false,
      "t": 38873.21999999998,
      "d": 1685.7385937500003,
      "v": 119
    },
    {
      "midi": 75,
      "hit": false,
      "t": 38873.21999999998,
      "d": 1685.7385937500003,
      "v": 119
    },
    {
      "midi": 82,
      "hit": false,
      "t": 38873.21999999998,
      "d": 1685.7385937500003,
      "v": 119
    },
    {
      "midi": 82,
      "hit": false,
      "t": 38873.22000000018,
      "d": 101.23234375000175,
      "v": 119
    },
    {
      "midi": 51,
      "hit": false,
      "t": 39062.4804687499,
      "d": 206.86609375000262,
      "v": 127
    },
    {
      "midi": 75,
      "hit": false,
      "t": 39084.487500000185,
      "d": 101.23234375000175,
      "v": 119
    },
    {
      "midi": 39,
      "hit": false,
      "t": 39273.7479687499,
      "d": 206.86609375000262,
      "v": 127
    },
    {
      "midi": 79,
      "hit": false,
      "t": 39295.75500000019,
      "d": 101.23234375000175,
      "v": 119
    },
    {
      "midi": 51,
      "hit": false,
      "t": 39485.0154687499,
      "d": 206.86609375000262,
      "v": 127
    },
    {
      "midi": 75,
      "hit": false,
      "t": 39507.02250000019,
      "d": 101.23234375000175,
      "v": 119
    },
    {
      "midi": 39,
      "hit": false,
      "t": 39696.2829687499,
      "d": 206.86609375000262,
      "v": 127
    },
    {
      "midi": 79,
      "hit": false,
      "t": 39718.28999999998,
      "d": 831.8657812500023,
      "v": 119
    },
    {
      "midi": 82,
      "hit": false,
      "t": 39718.29000000019,
      "d": 101.23234375000175,
      "v": 119
    },
    {
      "midi": 51,
      "hit": false,
      "t": 39907.550468749905,
      "d": 206.86609375000262,
      "v": 127
    },
    {
      "midi": 80,
      "hit": false,
      "t": 39929.55750000019,
      "d": 101.23234375000175,
      "v": 119
    },
    {
      "midi": 39,
      "hit": false,
      "t": 40118.81796874991,
      "d": 206.86609375000262,
      "v": 127
    },
    {
      "midi": 79,
      "hit": false,
      "t": 40140.82500000019,
      "d": 101.23234375000175,
      "v": 119
    },
    {
      "midi": 51,
      "hit": false,
      "t": 40330.08546874991,
      "d": 206.86609375000262,
      "v": 127
    },
    {
      "midi": 82,
      "hit": false,
      "t": 40352.092500000195,
      "d": 101.23234375000175,
      "v": 119
    },
    {
      "midi": 41,
      "hit": false,
      "t": 40563.35999999991,
      "d": 184.8590624999997,
      "v": 127
    },
    {
      "midi": 65,
      "hit": false,
      "t": 40563.35999999998,
      "d": 1685.7385937500003,
      "v": 119
    },
    {
      "midi": 72,
      "hit": false,
      "t": 40563.35999999998,
      "d": 1685.7385937500003,
      "v": 119
    },
    {
      "midi": 77,
      "hit": false,
      "t": 40563.35999999998,
      "d": 1685.7385937500003,
      "v": 119
    },
    {
      "midi": 80,
      "hit": false,
      "t": 40563.35999999998,
      "d": 1685.7385937500003,
      "v": 119
    },
    {
      "midi": 80,
      "hit": false,
      "t": 40563.3600000002,
      "d": 101.23234375000175,
      "v": 119
    },
    {
      "midi": 53,
      "hit": false,
      "t": 40752.62046874991,
      "d": 206.86609375000262,
      "v": 127
    },
    {
      "midi": 72,
      "hit": false,
      "t": 40774.6275000002,
      "d": 101.23234375000175,
      "v": 119
    },
    {
      "midi": 41,
      "hit": false,
      "t": 40963.887968749914,
      "d": 206.86609375000262,
      "v": 127
    },
    {
      "midi": 77,
      "hit": false,
      "t": 40985.8950000002,
      "d": 101.23234375000175,
      "v": 119
    },
    {
      "midi": 53,
      "hit": false,
      "t": 41175.155468749916,
      "d": 206.86609375000262,
      "v": 127
    },
    {
      "midi": 72,
      "hit": false,
      "t": 41197.1625000002,
      "d": 101.23234375000175,
      "v": 119
    },
    {
      "midi": 41,
      "hit": false,
      "t": 41386.42296874992,
      "d": 206.86609375000262,
      "v": 127
    },
    {
      "midi": 80,
      "hit": false,
      "t": 41408.430000000204,
      "d": 101.23234375000175,
      "v": 119
    },
    {
      "midi": 53,
      "hit": false,
      "t": 41597.69046874992,
      "d": 206.86609375000262,
      "v": 127
    },
    {
      "midi": 72,
      "hit": false,
      "t": 41619.697500000206,
      "d": 101.23234375000175,
      "v": 119
    },
    {
      "midi": 41,
      "hit": false,
      "t": 41808.95796874992,
      "d": 206.86609375000262,
      "v": 127
    },
    {
      "midi": 79,
      "hit": false,
      "t": 41830.96500000021,
      "d": 101.23234375000175,
      "v": 119
    },
    {
      "midi": 53,
      "hit": false,
      "t": 42020.22546874992,
      "d": 206.86609375000262,
      "v": 127
    },
    {
      "midi": 72,
      "hit": false,
      "t": 42042.23250000021,
      "d": 101.23234375000175,
      "v": 119
    },
    {
      "midi": 49,
      "hit": false,
      "t": 42231.492968749924,
      "d": 206.86609375000262,
      "v": 127
    },
    {
      "midi": 61,
      "hit": false,
      "t": 42253.49999999998,
      "d": 1685.7385937500003,
      "v": 119
    },
    {
      "midi": 73,
      "hit": false,
      "t": 42253.49999999998,
      "d": 1685.7385937500003,
      "v": 119
    },
    {
      "midi": 77,
      "hit": false,
      "t": 42253.49999999998,
      "d": 1685.7385937500003,
      "v": 119
    },
    {
      "midi": 80,
      "hit": false,
      "t": 42253.49999999998,
      "d": 1685.7385937500003,
      "v": 119
    },
    {
      "midi": 80,
      "hit": false,
      "t": 42253.50000000021,
      "d": 101.23234375000175,
      "v": 119
    },
    {
      "midi": 61,
      "hit": false,
      "t": 42442.760468749926,
      "d": 206.86609375000262,
      "v": 127
    },
    {
      "midi": 73,
      "hit": false,
      "t": 42464.76750000021,
      "d": 101.23234375000175,
      "v": 119
    },
    {
      "midi": 49,
      "hit": false,
      "t": 42654.02796874993,
      "d": 206.86609375000262,
      "v": 127
    },
    {
      "midi": 77,
      "hit": false,
      "t": 42676.035000000214,
      "d": 101.23234375000175,
      "v": 119
    },
    {
      "midi": 61,
      "hit": false,
      "t": 42865.29546874993,
      "d": 206.86609375000262,
      "v": 127
    },
    {
      "midi": 73,
      "hit": false,
      "t": 42887.302500000216,
      "d": 101.23234375000175,
      "v": 119
    },
    {
      "midi": 49,
      "hit": false,
      "t": 43076.56296874993,
      "d": 206.86609375000262,
      "v": 127
    },
    {
      "midi": 80,
      "hit": false,
      "t": 43098.57000000022,
      "d": 101.23234375000175,
      "v": 119
    },
    {
      "midi": 61,
      "hit": false,
      "t": 43287.83046874993,
      "d": 206.86609375000262,
      "v": 127
    },
    {
      "midi": 73,
      "hit": false,
      "t": 43309.83750000022,
      "d": 101.23234375000175,
      "v": 119
    },
    {
      "midi": 49,
      "hit": false,
      "t": 43499.097968749935,
      "d": 206.86609375000262,
      "v": 127
    },
    {
      "midi": 79,
      "hit": false,
      "t": 43521.10500000022,
      "d": 101.23234375000175,
      "v": 119
    },
    {
      "midi": 61,
      "hit": false,
      "t": 43710.36546874994,
      "d": 206.86609375000262,
      "v": 127
    },
    {
      "midi": 73,
      "hit": false,
      "t": 43732.37250000022,
      "d": 101.23234375000175,
      "v": 119
    },
    {
      "midi": 44,
      "hit": false,
      "t": 43921.63296874994,
      "d": 206.86609375000262,
      "v": 127
    },
    {
      "midi": 68,
      "hit": false,
      "t": 43943.63999999998,
      "d": 1685.7385937500003,
      "v": 119
    },
    {
      "midi": 75,
      "hit": false,
      "t": 43943.63999999998,
      "d": 1685.7385937500003,
      "v": 119
    },
    {
      "midi": 80,
      "hit": false,
      "t": 43943.63999999998,
      "d": 1685.7385937500003,
      "v": 119
    },
    {
      "midi": 84,
      "hit": false,
      "t": 43943.63999999998,
      "d": 1685.7385937500003,
      "v": 119
    },
    {
      "midi": 80,
      "hit": false,
      "t": 43943.640000000225,
      "d": 101.23234375000175,
      "v": 119
    },
    {
      "midi": 56,
      "hit": false,
      "t": 44132.90046874994,
      "d": 206.86609375000262,
      "v": 127
    },
    {
      "midi": 72,
      "hit": false,
      "t": 44154.90750000023,
      "d": 101.23234375000175,
      "v": 119
    },
    {
      "midi": 44,
      "hit": false,
      "t": 44344.16796874994,
      "d": 206.86609375000262,
      "v": 127
    },
    {
      "midi": 75,
      "hit": false,
      "t": 44366.17500000023,
      "d": 101.23234375000175,
      "v": 119
    },
    {
      "midi": 56,
      "hit": false,
      "t": 44555.43546874994,
      "d": 206.86609375000262,
      "v": 127
    },
    {
      "midi": 72,
      "hit": false,
      "t": 44577.44250000023,
      "d": 101.23234375000175,
      "v": 119
    },
    {
      "midi": 44,
      "hit": false,
      "t": 44766.702968749945,
      "d": 206.86609375000262,
      "v": 127
    },
    {
      "midi": 80,
      "hit": false,
      "t": 44788.71000000023,
      "d": 101.23234375000175,
      "v": 119
    },
    {
      "midi": 56,
      "hit": false,
      "t": 44977.97046874995,
      "d": 206.86609375000262,
      "v": 127
    },
    {
      "midi": 72,
      "hit": false,
      "t": 44999.977500000234,
      "d": 101.23234375000175,
      "v": 119
    },
    {
      "midi": 44,
      "hit": false,
      "t": 45189.23796874995,
      "d": 206.86609375000262,
      "v": 127
    },
    {
      "midi": 75,
      "hit": false,
      "t": 45211.245000000235,
      "d": 101.23234375000175,
      "v": 119
    },
    {
      "midi": 56,
      "hit": false,
      "t": 45400.50546874995,
      "d": 206.86609375000262,
      "v": 127
    },
    {
      "midi": 80,
      "hit": false,
      "t": 45422.51250000024,
      "d": 101.23234375000175,
      "v": 119
    },
    {
      "midi": 39,
      "hit": false,
      "t": 45611.77296874995,
      "d": 206.86609375000262,
      "v": 127
    },
    {
      "midi": 80,
      "hit": false,
      "t": 45633.77999999998,
      "d": 831.8657812500023,
      "v": 119
    },
    {
      "midi": 63,
      "hit": false,
      "t": 45633.77999999998,
      "d": 1685.7385937500003,
      "v": 119
    },
    {
      "midi": 75,
      "hit": false,
      "t": 45633.77999999998,
      "d": 1685.7385937500003,
      "v": 119
    },
    {
      "midi": 82,
      "hit": false,
      "t": 45633.77999999998,
      "d": 1685.7385937500003,
      "v": 119
    },
    {
      "midi": 82,
      "hit": false,
      "t": 45633.78000000024,
      "d": 101.23234375000175,
      "v": 119
    },
    {
      "midi": 51,
      "hit": false,
      "t": 45823.040468749954,
      "d": 206.86609375000262,
      "v": 127
    },
    {
      "midi": 75,
      "hit": false,
      "t": 45845.04750000024,
      "d": 101.23234375000175,
      "v": 119
    },
    {
      "midi": 39,
      "hit": false,
      "t": 46034.307968749956,
      "d": 206.86609375000262,
      "v": 127
    },
    {
      "midi": 79,
      "hit": false,
      "t": 46056.31500000024,
      "d": 101.23234375000175,
      "v": 119
    },
    {
      "midi": 51,
      "hit": false,
      "t": 46245.57546874996,
      "d": 206.86609375000262,
      "v": 127
    },
    {
      "midi": 75,
      "hit": false,
      "t": 46267.582500000244,
      "d": 101.23234375000175,
      "v": 119
    },
    {
      "midi": 39,
      "hit": false,
      "t": 46456.84296874996,
      "d": 206.86609375000262,
      "v": 127
    },
    {
      "midi": 79,
      "hit": false,
      "t": 46478.84999999998,
      "d": 831.8657812500023,
      "v": 119
    },
    {
      "midi": 82,
      "hit": false,
      "t": 46478.850000000246,
      "d": 101.23234375000175,
      "v": 119
    },
    {
      "midi": 51,
      "hit": false,
      "t": 46668.11046874996,
      "d": 206.86609375000262,
      "v": 127
    },
    {
      "midi": 75,
      "hit": false,
      "t": 46690.11750000025,
      "d": 101.23234375000175,
      "v": 119
    },
    {
      "midi": 39,
      "hit": false,
      "t": 46879.37796874996,
      "d": 206.86609375000262,
      "v": 127
    },
    {
      "midi": 79,
      "hit": false,
      "t": 46901.38500000025,
      "d": 101.23234375000175,
      "v": 119
    },
    {
      "midi": 51,
      "hit": false,
      "t": 47090.645468749964,
      "d": 206.86609375000262,
      "v": 127
    },
    {
      "midi": 75,
      "hit": false,
      "t": 47112.65250000025,
      "d": 101.23234375000175,
      "v": 119
    },
    {
      "midi": 41,
      "hit": false,
      "t": 47301.912968749966,
      "d": 206.86609375000262,
      "v": 127
    },
    {
      "midi": 65,
      "hit": false,
      "t": 47323.91999999998,
      "d": 1685.7385937500003,
      "v": 119
    },
    {
      "midi": 72,
      "hit": false,
      "t": 47323.91999999998,
      "d": 1685.7385937500003,
      "v": 119
    },
    {
      "midi": 77,
      "hit": false,
      "t": 47323.91999999998,
      "d": 1685.7385937500003,
      "v": 119
    },
    {
      "midi": 80,
      "hit": false,
      "t": 47323.91999999998,
      "d": 1685.7385937500003,
      "v": 119
    },
    {
      "midi": 80,
      "hit": false,
      "t": 47323.92000000025,
      "d": 101.23234375000175,
      "v": 119
    },
    {
      "midi": 53,
      "hit": false,
      "t": 47513.18046874997,
      "d": 206.86609375000262,
      "v": 127
    },
    {
      "midi": 72,
      "hit": false,
      "t": 47535.187500000255,
      "d": 101.23234375000175,
      "v": 119
    },
    {
      "midi": 41,
      "hit": false,
      "t": 47724.44796874997,
      "d": 206.86609375000262,
      "v": 127
    },
    {
      "midi": 77,
      "hit": false,
      "t": 47746.45500000026,
      "d": 101.23234375000175,
      "v": 119
    },
    {
      "midi": 53,
      "hit": false,
      "t": 47935.71546874997,
      "d": 206.86609375000262,
      "v": 127
    },
    {
      "midi": 72,
      "hit": false,
      "t": 47957.72250000026,
      "d": 101.23234375000175,
      "v": 119
    },
    {
      "midi": 41,
      "hit": false,
      "t": 48146.98296874997,
      "d": 206.86609375000262,
      "v": 127
    },
    {
      "midi": 80,
      "hit": false,
      "t": 48168.99000000026,
      "d": 101.23234375000175,
      "v": 119
    },
    {
      "midi": 53,
      "hit": false,
      "t": 48358.250468749975,
      "d": 206.86609375000262,
      "v": 127
    },
    {
      "midi": 72,
      "hit": false,
      "t": 48380.25750000026,
      "d": 101.23234375000175,
      "v": 119
    },
    {
      "midi": 41,
      "hit": false,
      "t": 48569.51796874998,
      "d": 206.86609375000262,
      "v": 127
    },
    {
      "midi": 79,
      "hit": false,
      "t": 48591.52500000026,
      "d": 101.23234375000175,
      "v": 119
    },
    {
      "midi": 53,
      "hit": false,
      "t": 48780.78546874998,
      "d": 206.86609375000262,
      "v": 127
    },
    {
      "midi": 72,
      "hit": false,
      "t": 48802.792500000265,
      "d": 101.23234375000175,
      "v": 119
    },
    {
      "midi": 49,
      "hit": false,
      "t": 48992.05296874998,
      "d": 206.86609375000262,
      "v": 127
    },
    {
      "midi": 61,
      "hit": false,
      "t": 49014.059999999976,
      "d": 1685.7385937500003,
      "v": 119
    },
    {
      "midi": 73,
      "hit": false,
      "t": 49014.059999999976,
      "d": 1685.7385937500003,
      "v": 119
    },
    {
      "midi": 77,
      "hit": false,
      "t": 49014.059999999976,
      "d": 1685.7385937500003,
      "v": 119
    },
    {
      "midi": 80,
      "hit": false,
      "t": 49014.059999999976,
      "d": 1685.7385937500003,
      "v": 119
    },
    {
      "midi": 80,
      "hit": false,
      "t": 49014.06000000027,
      "d": 101.23234375000175,
      "v": 119
    },
    {
      "midi": 61,
      "hit": false,
      "t": 49203.32046874998,
      "d": 206.86609375000262,
      "v": 127
    },
    {
      "midi": 73,
      "hit": false,
      "t": 49225.32750000027,
      "d": 101.23234375000175,
      "v": 119
    },
    {
      "midi": 49,
      "hit": false,
      "t": 49414.587968749984,
      "d": 206.86609375000262,
      "v": 127
    },
    {
      "midi": 77,
      "hit": false,
      "t": 49436.59500000027,
      "d": 101.23234375000175,
      "v": 119
    },
    {
      "midi": 61,
      "hit": false,
      "t": 49625.855468749985,
      "d": 206.86609375000262,
      "v": 127
    },
    {
      "midi": 73,
      "hit": false,
      "t": 49647.86250000027,
      "d": 101.23234375000175,
      "v": 119
    },
    {
      "midi": 49,
      "hit": false,
      "t": 49837.12296874999,
      "d": 206.86609375000262,
      "v": 127
    },
    {
      "midi": 80,
      "hit": false,
      "t": 49859.130000000274,
      "d": 101.23234375000175,
      "v": 119
    },
    {
      "midi": 61,
      "hit": false,
      "t": 50048.39046874999,
      "d": 206.86609375000262,
      "v": 127
    },
    {
      "midi": 73,
      "hit": false,
      "t": 50070.397500000276,
      "d": 101.23234375000175,
      "v": 119
    },
    {
      "midi": 49,
      "hit": false,
      "t": 50259.65796874999,
      "d": 206.86609375000262,
      "v": 127
    },
    {
      "midi": 79,
      "hit": false,
      "t": 50281.66500000028,
      "d": 101.23234375000175,
      "v": 119
    },
    {
      "midi": 61,
      "hit": false,
      "t": 50470.92546874999,
      "d": 206.86609375000262,
      "v": 127
    },
    {
      "midi": 73,
      "hit": false,
      "t": 50492.93250000028,
      "d": 101.23234375000175,
      "v": 119
    },
    {
      "midi": 44,
      "hit": false,
      "t": 50682.192968749994,
      "d": 206.86609375000262,
      "v": 127
    },
    {
      "midi": 68,
      "hit": false,
      "t": 50704.199999999975,
      "d": 1685.7385937500003,
      "v": 119
    },
    {
      "midi": 75,
      "hit": false,
      "t": 50704.199999999975,
      "d": 1685.7385937500003,
      "v": 119
    },
    {
      "midi": 80,
      "hit": false,
      "t": 50704.199999999975,
      "d": 1685.7385937500003,
      "v": 119
    },
    {
      "midi": 84,
      "hit": false,
      "t": 50704.199999999975,
      "d": 1685.7385937500003,
      "v": 119
    },
    {
      "midi": 80,
      "hit": false,
      "t": 50704.20000000028,
      "d": 101.23234375000175,
      "v": 119
    },
    {
      "midi": 56,
      "hit": false,
      "t": 50893.460468749996,
      "d": 206.86609375000262,
      "v": 127
    },
    {
      "midi": 72,
      "hit": false,
      "t": 50915.46750000028,
      "d": 101.23234375000175,
      "v": 119
    },
    {
      "midi": 44,
      "hit": false,
      "t": 51104.72796875,
      "d": 206.86609375000262,
      "v": 127
    },
    {
      "midi": 75,
      "hit": false,
      "t": 51126.735000000284,
      "d": 101.23234375000175,
      "v": 119
    },
    {
      "midi": 56,
      "hit": false,
      "t": 51315.99546875,
      "d": 206.86609375000262,
      "v": 127
    },
    {
      "midi": 72,
      "hit": false,
      "t": 51338.002500000286,
      "d": 101.23234375000175,
      "v": 119
    },
    {
      "midi": 44,
      "hit": false,
      "t": 51527.26296875,
      "d": 206.86609375000262,
      "v": 127
    },
    {
      "midi": 80,
      "hit": false,
      "t": 51549.27000000029,
      "d": 101.23234375000175,
      "v": 119
    },
    {
      "midi": 56,
      "hit": false,
      "t": 51738.53046875,
      "d": 206.86609375000262,
      "v": 127
    },
    {
      "midi": 72,
      "hit": false,
      "t": 51760.53750000029,
      "d": 101.23234375000175,
      "v": 119
    },
    {
      "midi": 44,
      "hit": false,
      "t": 51949.797968750005,
      "d": 206.86609375000262,
      "v": 127
    },
    {
      "midi": 75,
      "hit": false,
      "t": 51971.80500000029,
      "d": 101.23234375000175,
      "v": 119
    },
    {
      "midi": 56,
      "hit": false,
      "t": 52161.06546875001,
      "d": 206.86609375000262,
      "v": 127
    },
    {
      "midi": 75,
      "hit": false,
      "t": 52183.07250000029,
      "d": 101.23234375000175,
      "v": 119
    },
    {
      "midi": 39,
      "hit": false,
      "t": 52372.33296875001,
      "d": 206.86609375000262,
      "v": 127
    },
    {
      "midi": 80,
      "hit": false,
      "t": 52394.339999999975,
      "d": 831.8657812500023,
      "v": 119
    },
    {
      "midi": 63,
      "hit": false,
      "t": 52394.339999999975,
      "d": 1685.7385937500003,
      "v": 119
    },
    {
      "midi": 75,
      "hit": false,
      "t": 52394.339999999975,
      "d": 1685.7385937500003,
      "v": 119
    },
    {
      "midi": 82,
      "hit": false,
      "t": 52394.339999999975,
      "d": 1685.7385937500003,
      "v": 119
    },
    {
      "midi": 82,
      "hit": false,
      "t": 52394.340000000295,
      "d": 101.23234375000175,
      "v": 119
    },
    {
      "midi": 51,
      "hit": false,
      "t": 52583.60046875001,
      "d": 206.86609375000262,
      "v": 127
    },
    {
      "midi": 75,
      "hit": false,
      "t": 52605.6075000003,
      "d": 101.23234375000175,
      "v": 119
    },
    {
      "midi": 39,
      "hit": false,
      "t": 52794.86796875001,
      "d": 206.86609375000262,
      "v": 127
    },
    {
      "midi": 79,
      "hit": false,
      "t": 52816.8750000003,
      "d": 101.23234375000175,
      "v": 119
    },
    {
      "midi": 51,
      "hit": false,
      "t": 53006.13546875001,
      "d": 206.86609375000262,
      "v": 127
    },
    {
      "midi": 75,
      "hit": false,
      "t": 53028.1425000003,
      "d": 101.23234375000175,
      "v": 119
    },
    {
      "midi": 39,
      "hit": false,
      "t": 53217.402968750015,
      "d": 206.86609375000262,
      "v": 127
    },
    {
      "midi": 79,
      "hit": false,
      "t": 53239.409999999974,
      "d": 831.8657812500023,
      "v": 119
    },
    {
      "midi": 82,
      "hit": false,
      "t": 53239.4100000003,
      "d": 101.23234375000175,
      "v": 119
    },
    {
      "midi": 51,
      "hit": false,
      "t": 53428.67046875002,
      "d": 206.86609375000262,
      "v": 127
    },
    {
      "midi": 80,
      "hit": false,
      "t": 53450.6775000003,
      "d": 101.23234375000175,
      "v": 119
    },
    {
      "midi": 39,
      "hit": false,
      "t": 53639.93796875002,
      "d": 206.86609375000262,
      "v": 127
    },
    {
      "midi": 79,
      "hit": false,
      "t": 53661.945000000305,
      "d": 101.23234375000175,
      "v": 119
    },
    {
      "midi": 51,
      "hit": false,
      "t": 53851.20546875002,
      "d": 206.86609375000262,
      "v": 127
    },
    {
      "midi": 82,
      "hit": false,
      "t": 53873.21250000031,
      "d": 101.23234375000175,
      "v": 119
    },
    {
      "midi": 65,
      "hit": false,
      "t": 55774.62000000001,
      "d": 290.4928125000006,
      "v": 127
    },
    {
      "midi": 41,
      "hit": false,
      "t": 55774.62000000001,
      "d": 206.86609375000262,
      "v": 127
    },
    {
      "midi": 53,
      "hit": false,
      "t": 55985.88750000001,
      "d": 206.86609375000262,
      "v": 127
    },
    {
      "midi": 68,
      "hit": false,
      "t": 56069.51421875001,
      "d": 83.62671874999796,
      "v": 127
    },
    {
      "midi": 41,
      "hit": false,
      "t": 56197.15500000001,
      "d": 206.86609375000262,
      "v": 127
    },
    {
      "midi": 68,
      "hit": false,
      "t": 56280.781718750004,
      "d": 92.42953125000349,
      "v": 127
    },
    {
      "midi": 72,
      "hit": false,
      "t": 56386.415468750005,
      "d": 88.02812499999709,
      "v": 127
    },
    {
      "midi": 53,
      "hit": false,
      "t": 56408.422500000015,
      "d": 206.86609375000262,
      "v": 127
    },
    {
      "midi": 72,
      "hit": false,
      "t": 56492.04921875,
      "d": 96.83093750000262,
      "v": 127
    },
    {
      "midi": 73,
      "hit": false,
      "t": 56597.68296875,
      "d": 286.09140625000146,
      "v": 127
    },
    {
      "midi": 49,
      "hit": false,
      "t": 56619.69000000002,
      "d": 206.86609375000262,
      "v": 127
    },
    {
      "midi": 61,
      "hit": false,
      "t": 56830.95750000002,
      "d": 206.86609375000262,
      "v": 127
    },
    {
      "midi": 68,
      "hit": false,
      "t": 56914.58421875,
      "d": 255.2815625000003,
      "v": 127
    },
    {
      "midi": 49,
      "hit": false,
      "t": 57042.22500000002,
      "d": 206.86609375000262,
      "v": 127
    },
    {
      "midi": 73,
      "hit": false,
      "t": 57231.485468750005,
      "d": 88.02812499999709,
      "v": 127
    },
    {
      "midi": 61,
      "hit": false,
      "t": 57253.49250000002,
      "d": 206.86609375000262,
      "v": 127
    },
    {
      "midi": 68,
      "hit": false,
      "t": 57337.11921875,
      "d": 101.23234375000175,
      "v": 127
    },
    {
      "midi": 63,
      "hit": false,
      "t": 57442.75296875,
      "d": 184.8590624999997,
      "v": 127
    },
    {
      "midi": 44,
      "hit": false,
      "t": 57464.760000000024,
      "d": 206.86609375000262,
      "v": 127
    },
    {
      "midi": 63,
      "hit": false,
      "t": 57654.02046875,
      "d": 88.02812499999709,
      "v": 127
    },
    {
      "midi": 56,
      "hit": false,
      "t": 57676.027500000026,
      "d": 206.86609375000262,
      "v": 127
    },
    {
      "midi": 72,
      "hit": false,
      "t": 57759.654218749994,
      "d": 101.23234375000175,
      "v": 127
    },
    {
      "midi": 44,
      "hit": false,
      "t": 57887.29500000003,
      "d": 206.86609375000262,
      "v": 127
    },
    {
      "midi": 72,
      "hit": false,
      "t": 57970.921718749996,
      "d": 101.23234375000175,
      "v": 127
    },
    {
      "midi": 68,
      "hit": false,
      "t": 58076.55546875,
      "d": 88.02812499999709,
      "v": 127
    },
    {
      "midi": 56,
      "hit": false,
      "t": 58098.56250000003,
      "d": 206.86609375000262,
      "v": 127
    },
    {
      "midi": 68,
      "hit": false,
      "t": 58182.18921874999,
      "d": 96.83093750000262,
      "v": 127
    },
    {
      "midi": 70,
      "hit": false,
      "t": 58287.82296874999,
      "d": 101.23234375000175,
      "v": 127
    },
    {
      "midi": 39,
      "hit": false,
      "t": 58309.83000000003,
      "d": 206.86609375000262,
      "v": 127
    },
    {
      "midi": 70,
      "hit": false,
      "t": 58499.09046874999,
      "d": 101.23234375000175,
      "v": 127
    },
    {
      "midi": 51,
      "hit": false,
      "t": 58521.09750000003,
      "d": 206.86609375000262,
      "v": 127
    },
    {
      "midi": 68,
      "hit": false,
      "t": 58710.357968749995,
      "d": 101.23234375000175,
      "v": 127
    },
    {
      "midi": 39,
      "hit": false,
      "t": 58732.365000000034,
      "d": 206.86609375000262,
      "v": 127
    },
    {
      "midi": 67,
      "hit": false,
      "t": 58815.991718749996,
      "d": 202.4646875000035,
      "v": 127
    },
    {
      "midi": 51,
      "hit": false,
      "t": 58943.632500000036,
      "d": 206.86609375000262,
      "v": 127
    },
    {
      "midi": 70,
      "hit": false,
      "t": 59027.25921875,
      "d": 101.23234375000175,
      "v": 127
    },
    {
      "midi": 65,
      "hit": false,
      "t": 59132.89296875,
      "d": 312.4998437500035,
      "v": 127
    },
    {
      "midi": 41,
      "hit": false,
      "t": 59154.90000000004,
      "d": 206.86609375000262,
      "v": 127
    },
    {
      "midi": 53,
      "hit": false,
      "t": 59366.16750000004,
      "d": 206.86609375000262,
      "v": 127
    },
    {
      "midi": 68,
      "hit": false,
      "t": 59449.79421875,
      "d": 83.62671874999796,
      "v": 127
    },
    {
      "midi": 41,
      "hit": false,
      "t": 59577.43500000004,
      "d": 206.86609375000262,
      "v": 127
    },
    {
      "midi": 68,
      "hit": false,
      "t": 59661.061718749996,
      "d": 92.42953125000349,
      "v": 127
    },
    {
      "midi": 72,
      "hit": false,
      "t": 59766.69546875,
      "d": 92.42953125000349,
      "v": 127
    },
    {
      "midi": 53,
      "hit": false,
      "t": 59788.70250000004,
      "d": 206.86609375000262,
      "v": 127
    },
    {
      "midi": 72,
      "hit": false,
      "t": 59872.32921875,
      "d": 101.23234375000175,
      "v": 127
    },
    {
      "midi": 73,
      "hit": false,
      "t": 59977.96296875,
      "d": 286.09140625000146,
      "v": 127
    },
    {
      "midi": 49,
      "hit": false,
      "t": 59999.970000000045,
      "d": 206.86609375000262,
      "v": 127
    },
    {
      "midi": 61,
      "hit": false,
      "t": 60211.23750000005,
      "d": 206.86609375000262,
      "v": 127
    },
    {
      "midi": 68,
      "hit": false,
      "t": 60294.86421875,
      "d": 206.86609375000262,
      "v": 127
    },
    {
      "midi": 49,
      "hit": false,
      "t": 60422.50500000005,
      "d": 206.86609375000262,
      "v": 127
    },
    {
      "midi": 65,
      "hit": false,
      "t": 60506.13171875,
      "d": 101.23234375000175,
      "v": 127
    },
    {
      "midi": 73,
      "hit": false,
      "t": 60611.76546875,
      "d": 88.02812499999709,
      "v": 127
    },
    {
      "midi": 61,
      "hit": false,
      "t": 60633.77250000005,
      "d": 206.86609375000262,
      "v": 127
    },
    {
      "midi": 68,
      "hit": false,
      "t": 60717.39921875,
      "d": 101.23234375000175,
      "v": 127
    },
    {
      "midi": 63,
      "hit": false,
      "t": 60823.03296875,
      "d": 184.8590624999997,
      "v": 127
    },
    {
      "midi": 44,
      "hit": false,
      "t": 60845.04000000005,
      "d": 206.86609375000262,
      "v": 127
    },
    {
      "midi": 63,
      "hit": false,
      "t": 61034.30046875,
      "d": 88.02812499999709,
      "v": 127
    },
    {
      "midi": 56,
      "hit": false,
      "t": 61056.30750000005,
      "d": 206.86609375000262,
      "v": 127
    },
    {
      "midi": 72,
      "hit": false,
      "t": 61139.93421874999,
      "d": 101.23234375000175,
      "v": 127
    },
    {
      "midi": 44,
      "hit": false,
      "t": 61267.575000000055,
      "d": 206.86609375000262,
      "v": 127
    },
    {
      "midi": 72,
      "hit": false,
      "t": 61351.201718749995,
      "d": 101.23234375000175,
      "v": 127
    },
    {
      "midi": 68,
      "hit": false,
      "t": 61456.835468749996,
      "d": 96.83093750000262,
      "v": 127
    },
    {
      "midi": 56,
      "hit": false,
      "t": 61478.84250000006,
      "d": 206.86609375000262,
      "v": 127
    },
    {
      "midi": 68,
      "hit": false,
      "t": 61562.46921875,
      "d": 96.83093750000262,
      "v": 127
    },
    {
      "midi": 70,
      "hit": false,
      "t": 61668.10296875,
      "d": 88.02812499999709,
      "v": 127
    },
    {
      "midi": 39,
      "hit": false,
      "t": 61690.11000000006,
      "d": 206.86609375000262,
      "v": 127
    },
    {
      "midi": 70,
      "hit": false,
      "t": 61773.73671874999,
      "d": 88.02812499999709,
      "v": 127
    },
    {
      "midi": 70,
      "hit": false,
      "t": 61879.370468749985,
      "d": 189.26046874999884,
      "v": 127
    },
    {
      "midi": 51,
      "hit": false,
      "t": 61901.37750000006,
      "d": 206.86609375000262,
      "v": 127
    },
    {
      "midi": 68,
      "hit": false,
      "t": 62090.63796874999,
      "d": 101.23234375000175,
      "v": 127
    },
    {
      "midi": 39,
      "hit": false,
      "t": 62112.64500000006,
      "d": 206.86609375000262,
      "v": 127
    },
    {
      "midi": 67,
      "hit": false,
      "t": 62301.90546874999,
      "d": 101.23234375000175,
      "v": 127
    },
    {
      "midi": 51,
      "hit": false,
      "t": 62323.912500000064,
      "d": 206.86609375000262,
      "v": 127
    },
    {
      "midi": 65,
      "hit": false,
      "t": 62513.17296874999,
      "d": 312.4998437500035,
      "v": 127
    },
    {
      "midi": 41,
      "hit": false,
      "t": 62535.180000000066,
      "d": 206.86609375000262,
      "v": 127
    },
    {
      "midi": 53,
      "hit": false,
      "t": 62746.44750000007,
      "d": 206.86609375000262,
      "v": 127
    },
    {
      "midi": 68,
      "hit": false,
      "t": 62830.07421874999,
      "d": 83.62671874999796,
      "v": 127
    },
    {
      "midi": 41,
      "hit": false,
      "t": 62957.71500000007,
      "d": 206.86609375000262,
      "v": 127
    },
    {
      "midi": 68,
      "hit": false,
      "t": 63041.34171874999,
      "d": 92.42953125000349,
      "v": 127
    },
    {
      "midi": 72,
      "hit": false,
      "t": 63146.97546874999,
      "d": 88.02812499999709,
      "v": 127
    },
    {
      "midi": 53,
      "hit": false,
      "t": 63168.98250000007,
      "d": 206.86609375000262,
      "v": 127
    },
    {
      "midi": 72,
      "hit": false,
      "t": 63252.60921874998,
      "d": 96.83093750000262,
      "v": 127
    },
    {
      "midi": 73,
      "hit": false,
      "t": 63358.24296874998,
      "d": 286.09140625000146,
      "v": 127
    },
    {
      "midi": 49,
      "hit": false,
      "t": 63380.25000000007,
      "d": 206.86609375000262,
      "v": 127
    },
    {
      "midi": 61,
      "hit": false,
      "t": 63591.517500000075,
      "d": 206.86609375000262,
      "v": 127
    },
    {
      "midi": 68,
      "hit": false,
      "t": 63675.144218749985,
      "d": 255.2815625000003,
      "v": 127
    },
    {
      "midi": 49,
      "hit": false,
      "t": 63802.785000000076,
      "d": 206.86609375000262,
      "v": 127
    },
    {
      "midi": 73,
      "hit": false,
      "t": 63992.04546874999,
      "d": 88.02812499999709,
      "v": 127
    },
    {
      "midi": 61,
      "hit": false,
      "t": 64014.05250000008,
      "d": 206.86609375000262,
      "v": 127
    },
    {
      "midi": 68,
      "hit": false,
      "t": 64097.67921874998,
      "d": 101.23234375000175,
      "v": 127
    },
    {
      "midi": 63,
      "hit": false,
      "t": 64203.31296874998,
      "d": 184.8590624999997,
      "v": 127
    },
    {
      "midi": 44,
      "hit": false,
      "t": 64225.32000000008,
      "d": 206.86609375000262,
      "v": 127
    },
    {
      "midi": 63,
      "hit": false,
      "t": 64414.580468749984,
      "d": 88.02812499999709,
      "v": 127
    },
    {
      "midi": 56,
      "hit": false,
      "t": 64436.58750000008,
      "d": 206.86609375000262,
      "v": 127
    },
    {
      "midi": 72,
      "hit": false,
      "t": 64520.21421874998,
      "d": 101.23234375000175,
      "v": 127
    },
    {
      "midi": 44,
      "hit": false,
      "t": 64647.85500000008,
      "d": 206.86609375000262,
      "v": 127
    },
    {
      "midi": 72,
      "hit": false,
      "t": 64731.48171874998,
      "d": 101.23234375000175,
      "v": 127
    },
    {
      "midi": 68,
      "hit": false,
      "t": 64837.11546874998,
      "d": 79.22531249999884,
      "v": 127
    },
    {
      "midi": 56,
      "hit": false,
      "t": 64859.122500000085,
      "d": 206.86609375000262,
      "v": 127
    },
    {
      "midi": 68,
      "hit": false,
      "t": 64942.74921874998,
      "d": 96.83093750000262,
      "v": 127
    },
    {
      "midi": 70,
      "hit": false,
      "t": 65048.38296874998,
      "d": 101.23234375000175,
      "v": 127
    },
    {
      "midi": 39,
      "hit": false,
      "t": 65070.39000000009,
      "d": 206.86609375000262,
      "v": 127
    },
    {
      "midi": 70,
      "hit": false,
      "t": 65259.650468749984,
      "d": 101.23234375000175,
      "v": 127
    },
    {
      "midi": 51,
      "hit": false,
      "t": 65281.65750000009,
      "d": 206.86609375000262,
      "v": 127
    },
    {
      "midi": 68,
      "hit": false,
      "t": 65470.917968749985,
      "d": 101.23234375000175,
      "v": 127
    },
    {
      "midi": 39,
      "hit": false,
      "t": 65492.92500000009,
      "d": 206.86609374999534,
      "v": 127
    },
    {
      "midi": 67,
      "hit": false,
      "t": 65576.55171875,
      "d": 202.4646875000035,
      "v": 127
    },
    {
      "midi": 51,
      "hit": false,
      "t": 65704.19250000009,
      "d": 206.86609374999534,
      "v": 127
    },
    {
      "midi": 70,
      "hit": false,
      "t": 65787.81921875,
      "d": 101.23234375000175,
      "v": 127
    },
    {
      "midi": 65,
      "hit": false,
      "t": 65893.45296875,
      "d": 312.4998437500035,
      "v": 127
    },
    {
      "midi": 41,
      "hit": false,
      "t": 65915.4600000001,
      "d": 206.86609374999534,
      "v": 127
    },
    {
      "midi": 53,
      "hit": false,
      "t": 66126.7275000001,
      "d": 206.86609374999534,
      "v": 127
    },
    {
      "midi": 68,
      "hit": false,
      "t": 66210.35421875001,
      "d": 83.62671875000524,
      "v": 127
    },
    {
      "midi": 41,
      "hit": false,
      "t": 66337.9950000001,
      "d": 206.86609374999534,
      "v": 127
    },
    {
      "midi": 68,
      "hit": false,
      "t": 66421.62171875002,
      "d": 92.42953125000349,
      "v": 127
    },
    {
      "midi": 72,
      "hit": false,
      "t": 66527.25546875002,
      "d": 88.02812499999709,
      "v": 127
    },
    {
      "midi": 53,
      "hit": false,
      "t": 66549.2625000001,
      "d": 206.86609374999534,
      "v": 127
    },
    {
      "midi": 72,
      "hit": false,
      "t": 66632.88921875002,
      "d": 101.23234375000175,
      "v": 127
    },
    {
      "midi": 73,
      "hit": false,
      "t": 66738.52296875003,
      "d": 286.0914062499942,
      "v": 127
    },
    {
      "midi": 49,
      "hit": false,
      "t": 66760.5300000001,
      "d": 206.86609374999534,
      "v": 127
    },
    {
      "midi": 61,
      "hit": false,
      "t": 66971.7975000001,
      "d": 206.86609374999534,
      "v": 127
    },
    {
      "midi": 68,
      "hit": false,
      "t": 67055.42421875002,
      "d": 206.86609374999534,
      "v": 127
    },
    {
      "midi": 49,
      "hit": false,
      "t": 67183.0650000001,
      "d": 206.86609374999534,
      "v": 127
    },
    {
      "midi": 65,
      "hit": false,
      "t": 67266.69171875002,
      "d": 101.23234375000175,
      "v": 127
    },
    {
      "midi": 73,
      "hit": false,
      "t": 67372.32546875003,
      "d": 88.02812499999709,
      "v": 127
    },
    {
      "midi": 61,
      "hit": false,
      "t": 67394.3325000001,
      "d": 206.86609374999534,
      "v": 127
    },
    {
      "midi": 68,
      "hit": false,
      "t": 67477.95921875002,
      "d": 101.23234375000175,
      "v": 127
    },
    {
      "midi": 63,
      "hit": false,
      "t": 67583.59296875003,
      "d": 184.85906250000698,
      "v": 127
    },
    {
      "midi": 44,
      "hit": false,
      "t": 67605.60000000011,
      "d": 206.86609374999534,
      "v": 127
    },
    {
      "midi": 63,
      "hit": false,
      "t": 67794.86046875003,
      "d": 88.02812499999709,
      "v": 127
    },
    {
      "midi": 56,
      "hit": false,
      "t": 67816.86750000011,
      "d": 206.86609374999534,
      "v": 127
    },
    {
      "midi": 72,
      "hit": false,
      "t": 67900.49421875003,
      "d": 101.23234375000175,
      "v": 127
    },
    {
      "midi": 44,
      "hit": false,
      "t": 68028.13500000011,
      "d": 206.86609374999534,
      "v": 127
    },
    {
      "midi": 72,
      "hit": false,
      "t": 68111.76171875003,
      "d": 101.23234375000175,
      "v": 127
    },
    {
      "midi": 68,
      "hit": false,
      "t": 68217.39546875004,
      "d": 96.83093749999534,
      "v": 127
    },
    {
      "midi": 56,
      "hit": false,
      "t": 68239.40250000011,
      "d": 206.86609374999534,
      "v": 127
    },
    {
      "midi": 68,
      "hit": false,
      "t": 68323.02921875003,
      "d": 96.83093749999534,
      "v": 127
    },
    {
      "midi": 70,
      "hit": false,
      "t": 68428.66296875002,
      "d": 88.02812499999709,
      "v": 127
    },
    {
      "midi": 39,
      "hit": false,
      "t": 68450.67000000011,
      "d": 206.86609374999534,
      "v": 127
    },
    {
      "midi": 70,
      "hit": false,
      "t": 68534.29671875002,
      "d": 88.02812499999709,
      "v": 127
    },
    {
      "midi": 70,
      "hit": false,
      "t": 68639.93046875001,
      "d": 88.02812499999709,
      "v": 127
    },
    {
      "midi": 51,
      "hit": false,
      "t": 68661.93750000012,
      "d": 206.86609374999534,
      "v": 127
    },
    {
      "midi": 70,
      "hit": false,
      "t": 68745.56421875,
      "d": 96.83093749999534,
      "v": 127
    },
    {
      "midi": 68,
      "hit": false,
      "t": 68851.19796875,
      "d": 101.23234375000175,
      "v": 127
    },
    {
      "midi": 39,
      "hit": false,
      "t": 68873.20500000012,
      "d": 206.86609374999534,
      "v": 127
    },
    {
      "midi": 67,
      "hit": false,
      "t": 69062.46546875,
      "d": 101.23234375000175,
      "v": 127
    },
    {
      "midi": 51,
      "hit": false,
      "t": 69084.47250000012,
      "d": 206.86609374999534,
      "v": 127
    },
    {
      "midi": 65,
      "hit": false,
      "t": 69295.74,
      "d": 290.4928125000006,
      "v": 127
    },
    {
      "midi": 65,
      "hit": false,
      "t": 69295.74,
      "d": 840.6685937500006,
      "v": 119
    },
    {
      "midi": 72,
      "hit": false,
      "t": 69295.74,
      "d": 840.6685937500006,
      "v": 119
    },
    {
      "midi": 77,
      "hit": false,
      "t": 69295.74,
      "d": 840.6685937500006,
      "v": 119
    },
    {
      "midi": 80,
      "hit": false,
      "t": 69295.74,
      "d": 840.6685937500006,
      "v": 119
    },
    {
      "midi": 80,
      "hit": false,
      "t": 69295.74,
      "d": 101.23234375000175,
      "v": 119
    },
    {
      "midi": 41,
      "hit": false,
      "t": 69295.74000000012,
      "d": 206.86609374999534,
      "v": 127
    },
    {
      "midi": 72,
      "hit": false,
      "t": 69507.0075,
      "d": 101.23234375000175,
      "v": 119
    },
    {
      "midi": 53,
      "hit": false,
      "t": 69507.00750000012,
      "d": 206.86609374999534,
      "v": 127
    },
    {
      "midi": 68,
      "hit": false,
      "t": 69590.63421875001,
      "d": 83.62671875000524,
      "v": 127
    },
    {
      "midi": 77,
      "hit": false,
      "t": 69718.27500000001,
      "d": 101.23234375000175,
      "v": 119
    },
    {
      "midi": 41,
      "hit": false,
      "t": 69718.27500000013,
      "d": 206.86609374999534,
      "v": 127
    },
    {
      "midi": 68,
      "hit": false,
      "t": 69801.90171875001,
      "d": 92.42953125000349,
      "v": 127
    },
    {
      "midi": 72,
      "hit": false,
      "t": 69907.53546875002,
      "d": 88.02812499999709,
      "v": 127
    },
    {
      "midi": 72,
      "hit": false,
      "t": 69929.54250000001,
      "d": 101.23234375000175,
      "v": 119
    },
    {
      "midi": 53,
      "hit": false,
      "t": 69929.54250000013,
      "d": 206.86609374999534,
      "v": 127
    },
    {
      "midi": 72,
      "hit": false,
      "t": 70013.16921875002,
      "d": 96.83093749999534,
      "v": 127
    },
    {
      "midi": 73,
      "hit": false,
      "t": 70118.80296875001,
      "d": 286.0914062499942,
      "v": 127
    },
    {
      "midi": 61,
      "hit": false,
      "t": 70140.81000000001,
      "d": 840.6685937500006,
      "v": 119
    },
    {
      "midi": 73,
      "hit": false,
      "t": 70140.81000000001,
      "d": 840.6685937500006,
      "v": 119
    },
    {
      "midi": 77,
      "hit": false,
      "t": 70140.81000000001,
      "d": 840.6685937500006,
      "v": 119
    },
    {
      "midi": 80,
      "hit": false,
      "t": 70140.81000000001,
      "d": 840.6685937500006,
      "v": 119
    },
    {
      "midi": 80,
      "hit": false,
      "t": 70140.81000000001,
      "d": 101.23234375000175,
      "v": 119
    },
    {
      "midi": 49,
      "hit": false,
      "t": 70140.81000000013,
      "d": 206.86609374999534,
      "v": 127
    },
    {
      "midi": 73,
      "hit": false,
      "t": 70352.07750000001,
      "d": 101.23234375000175,
      "v": 119
    },
    {
      "midi": 61,
      "hit": false,
      "t": 70352.07750000013,
      "d": 206.86609374999534,
      "v": 127
    },
    {
      "midi": 68,
      "hit": false,
      "t": 70435.70421875,
      "d": 255.28156249999302,
      "v": 127
    },
    {
      "midi": 77,
      "hit": false,
      "t": 70563.34500000002,
      "d": 101.23234375000175,
      "v": 119
    },
    {
      "midi": 49,
      "hit": false,
      "t": 70563.34500000013,
      "d": 206.86609374999534,
      "v": 127
    },
    {
      "midi": 73,
      "hit": false,
      "t": 70752.60546875,
      "d": 88.02812499999709,
      "v": 127
    },
    {
      "midi": 73,
      "hit": false,
      "t": 70774.61250000002,
      "d": 101.23234375000175,
      "v": 119
    },
    {
      "midi": 61,
      "hit": false,
      "t": 70774.61250000013,
      "d": 206.86609374999534,
      "v": 127
    },
    {
      "midi": 68,
      "hit": false,
      "t": 70858.23921875,
      "d": 101.23234375000175,
      "v": 127
    },
    {
      "midi": 63,
      "hit": false,
      "t": 70963.87296875,
      "d": 184.85906250000698,
      "v": 127
    },
    {
      "midi": 68,
      "hit": false,
      "t": 70985.88000000002,
      "d": 840.6685937500006,
      "v": 119
    },
    {
      "midi": 75,
      "hit": false,
      "t": 70985.88000000002,
      "d": 840.6685937500006,
      "v": 119
    },
    {
      "midi": 80,
      "hit": false,
      "t": 70985.88000000002,
      "d": 840.6685937500006,
      "v": 119
    },
    {
      "midi": 84,
      "hit": false,
      "t": 70985.88000000002,
      "d": 840.6685937500006,
      "v": 119
    },
    {
      "midi": 80,
      "hit": false,
      "t": 70985.88000000002,
      "d": 101.23234375000175,
      "v": 119
    },
    {
      "midi": 44,
      "hit": false,
      "t": 70985.88000000014,
      "d": 206.86609374999534,
      "v": 127
    },
    {
      "midi": 63,
      "hit": false,
      "t": 71175.14046875,
      "d": 88.02812499999709,
      "v": 127
    },
    {
      "midi": 72,
      "hit": false,
      "t": 71197.14750000002,
      "d": 101.23234375000175,
      "v": 119
    },
    {
      "midi": 56,
      "hit": false,
      "t": 71197.14750000014,
      "d": 206.86609374999534,
      "v": 127
    },
    {
      "midi": 72,
      "hit": false,
      "t": 71280.77421875,
      "d": 101.23234375000175,
      "v": 127
    },
    {
      "midi": 75,
      "hit": false,
      "t": 71408.41500000002,
      "d": 101.23234375000175,
      "v": 119
    },
    {
      "midi": 44,
      "hit": false,
      "t": 71408.41500000014,
      "d": 206.86609374999534,
      "v": 127
    },
    {
      "midi": 72,
      "hit": false,
      "t": 71492.04171875,
      "d": 101.23234375000175,
      "v": 127
    },
    {
      "midi": 68,
      "hit": false,
      "t": 71597.67546875,
      "d": 88.02812499999709,
      "v": 127
    },
    {
      "midi": 72,
      "hit": false,
      "t": 71619.68250000002,
      "d": 101.23234375000175,
      "v": 119
    },
    {
      "midi": 56,
      "hit": false,
      "t": 71619.68250000014,
      "d": 206.86609374999534,
      "v": 127
    },
    {
      "midi": 68,
      "hit": false,
      "t": 71703.30921875,
      "d": 96.83093749999534,
      "v": 127
    },
    {
      "midi": 70,
      "hit": false,
      "t": 71808.94296875,
      "d": 101.23234375000175,
      "v": 127
    },
    {
      "midi": 79,
      "hit": false,
      "t": 71830.95000000003,
      "d": 831.8657812500023,
      "v": 119
    },
    {
      "midi": 63,
      "hit": false,
      "t": 71830.95000000003,
      "d": 840.6685937500006,
      "v": 119
    },
    {
      "midi": 75,
      "hit": false,
      "t": 71830.95000000003,
      "d": 840.6685937500006,
      "v": 119
    },
    {
      "midi": 82,
      "hit": false,
      "t": 71830.95000000003,
      "d": 840.6685937500006,
      "v": 119
    },
    {
      "midi": 82,
      "hit": false,
      "t": 71830.95000000003,
      "d": 101.23234375000175,
      "v": 119
    },
    {
      "midi": 39,
      "hit": false,
      "t": 71830.95000000014,
      "d": 206.86609374999534,
      "v": 127
    },
    {
      "midi": 70,
      "hit": false,
      "t": 72020.21046875,
      "d": 101.23234375000175,
      "v": 127
    },
    {
      "midi": 75,
      "hit": false,
      "t": 72042.21750000003,
      "d": 101.23234375000175,
      "v": 119
    },
    {
      "midi": 51,
      "hit": false,
      "t": 72042.21750000014,
      "d": 206.86609374999534,
      "v": 127
    },
    {
      "midi": 68,
      "hit": false,
      "t": 72231.47796875,
      "d": 101.23234375000175,
      "v": 127
    },
    {
      "midi": 79,
      "hit": false,
      "t": 72253.48500000003,
      "d": 101.23234375000175,
      "v": 119
    },
    {
      "midi": 39,
      "hit": false,
      "t": 72253.48500000015,
      "d": 206.86609374999534,
      "v": 127
    },
    {
      "midi": 67,
      "hit": false,
      "t": 72337.11171875,
      "d": 202.4646875000035,
      "v": 127
    },
    {
      "midi": 75,
      "hit": false,
      "t": 72464.75250000003,
      "d": 101.23234375000175,
      "v": 119
    },
    {
      "midi": 51,
      "hit": false,
      "t": 72464.75250000015,
      "d": 206.86609374999534,
      "v": 127
    },
    {
      "midi": 70,
      "hit": false,
      "t": 72548.37921875001,
      "d": 101.23234375000175,
      "v": 127
    },
    {
      "midi": 65,
      "hit": false,
      "t": 72654.01296875002,
      "d": 312.4998437500035,
      "v": 127
    },
    {
      "midi": 65,
      "hit": false,
      "t": 72676.02000000003,
      "d": 840.6685937500006,
      "v": 119
    },
    {
      "midi": 72,
      "hit": false,
      "t": 72676.02000000003,
      "d": 840.6685937500006,
      "v": 119
    },
    {
      "midi": 77,
      "hit": false,
      "t": 72676.02000000003,
      "d": 840.6685937500006,
      "v": 119
    },
    {
      "midi": 80,
      "hit": false,
      "t": 72676.02000000003,
      "d": 840.6685937500006,
      "v": 119
    },
    {
      "midi": 80,
      "hit": false,
      "t": 72676.02000000003,
      "d": 101.23234375000175,
      "v": 119
    },
    {
      "midi": 41,
      "hit": false,
      "t": 72676.02000000015,
      "d": 206.86609374999534,
      "v": 127
    },
    {
      "midi": 72,
      "hit": false,
      "t": 72887.28750000003,
      "d": 101.23234375000175,
      "v": 119
    },
    {
      "midi": 53,
      "hit": false,
      "t": 72887.28750000015,
      "d": 206.86609374999534,
      "v": 127
    },
    {
      "midi": 68,
      "hit": false,
      "t": 72970.91421875003,
      "d": 83.62671875000524,
      "v": 127
    },
    {
      "midi": 77,
      "hit": false,
      "t": 73098.55500000004,
      "d": 101.23234375000175,
      "v": 119
    },
    {
      "midi": 41,
      "hit": false,
      "t": 73098.55500000015,
      "d": 206.86609374999534,
      "v": 127
    },
    {
      "midi": 68,
      "hit": false,
      "t": 73182.18171875003,
      "d": 92.42953125000349,
      "v": 127
    },
    {
      "midi": 72,
      "hit": false,
      "t": 73287.81546875004,
      "d": 92.42953125000349,
      "v": 127
    },
    {
      "midi": 72,
      "hit": false,
      "t": 73309.82250000004,
      "d": 101.23234375000175,
      "v": 119
    },
    {
      "midi": 53,
      "hit": false,
      "t": 73309.82250000015,
      "d": 206.86609374999534,
      "v": 127
    },
    {
      "midi": 72,
      "hit": false,
      "t": 73393.44921875004,
      "d": 101.23234375000175,
      "v": 127
    },
    {
      "midi": 73,
      "hit": false,
      "t": 73499.08296875005,
      "d": 286.0914062499942,
      "v": 127
    },
    {
      "midi": 61,
      "hit": false,
      "t": 73521.09000000004,
      "d": 840.6685937500006,
      "v": 119
    },
    {
      "midi": 73,
      "hit": false,
      "t": 73521.09000000004,
      "d": 840.6685937500006,
      "v": 119
    },
    {
      "midi": 77,
      "hit": false,
      "t": 73521.09000000004,
      "d": 840.6685937500006,
      "v": 119
    },
    {
      "midi": 80,
      "hit": false,
      "t": 73521.09000000004,
      "d": 840.6685937500006,
      "v": 119
    },
    {
      "midi": 80,
      "hit": false,
      "t": 73521.09000000004,
      "d": 101.23234375000175,
      "v": 119
    },
    {
      "midi": 49,
      "hit": false,
      "t": 73521.09000000016,
      "d": 206.86609374999534,
      "v": 127
    },
    {
      "midi": 73,
      "hit": false,
      "t": 73732.35750000004,
      "d": 101.23234375000175,
      "v": 119
    },
    {
      "midi": 61,
      "hit": false,
      "t": 73732.35750000016,
      "d": 206.86609374999534,
      "v": 127
    },
    {
      "midi": 68,
      "hit": false,
      "t": 73815.98421875005,
      "d": 206.86609374999534,
      "v": 127
    },
    {
      "midi": 77,
      "hit": false,
      "t": 73943.62500000004,
      "d": 101.23234375000175,
      "v": 119
    },
    {
      "midi": 49,
      "hit": false,
      "t": 73943.62500000016,
      "d": 206.86609374999534,
      "v": 127
    },
    {
      "midi": 65,
      "hit": false,
      "t": 74027.25171875005,
      "d": 101.23234375000175,
      "v": 127
    },
    {
      "midi": 73,
      "hit": false,
      "t": 74132.88546875006,
      "d": 88.02812499999709,
      "v": 127
    },
    {
      "midi": 73,
      "hit": false,
      "t": 74154.89250000005,
      "d": 101.23234375000175,
      "v": 119
    },
    {
      "midi": 61,
      "hit": false,
      "t": 74154.89250000016,
      "d": 206.86609374999534,
      "v": 127
    },
    {
      "midi": 68,
      "hit": false,
      "t": 74238.51921875005,
      "d": 101.23234375000175,
      "v": 127
    },
    {
      "midi": 63,
      "hit": false,
      "t": 74344.15296875006,
      "d": 184.85906250000698,
      "v": 127
    },
    {
      "midi": 68,
      "hit": false,
      "t": 74366.16000000005,
      "d": 840.6685937500006,
      "v": 119
    },
    {
      "midi": 75,
      "hit": false,
      "t": 74366.16000000005,
      "d": 840.6685937500006,
      "v": 119
    },
    {
      "midi": 80,
      "hit": false,
      "t": 74366.16000000005,
      "d": 840.6685937500006,
      "v": 119
    },
    {
      "midi": 84,
      "hit": false,
      "t": 74366.16000000005,
      "d": 840.6685937500006,
      "v": 119
    },
    {
      "midi": 80,
      "hit": false,
      "t": 74366.16000000005,
      "d": 101.23234375000175,
      "v": 119
    },
    {
      "midi": 44,
      "hit": false,
      "t": 74366.16000000016,
      "d": 206.86609374999534,
      "v": 127
    },
    {
      "midi": 63,
      "hit": false,
      "t": 74555.42046875006,
      "d": 88.02812499999709,
      "v": 127
    },
    {
      "midi": 72,
      "hit": false,
      "t": 74577.42750000005,
      "d": 101.23234375000175,
      "v": 119
    },
    {
      "midi": 56,
      "hit": false,
      "t": 74577.42750000017,
      "d": 206.86609374999534,
      "v": 127
    },
    {
      "midi": 72,
      "hit": false,
      "t": 74661.05421875005,
      "d": 101.23234375000175,
      "v": 127
    },
    {
      "midi": 75,
      "hit": false,
      "t": 74788.69500000005,
      "d": 101.23234375000175,
      "v": 119
    },
    {
      "midi": 44,
      "hit": false,
      "t": 74788.69500000017,
      "d": 206.86609374999534,
      "v": 127
    },
    {
      "midi": 72,
      "hit": false,
      "t": 74872.32171875006,
      "d": 101.23234375000175,
      "v": 127
    },
    {
      "midi": 68,
      "hit": false,
      "t": 74977.95546875006,
      "d": 96.83093749999534,
      "v": 127
    },
    {
      "midi": 72,
      "hit": false,
      "t": 74999.96250000005,
      "d": 101.23234375000175,
      "v": 119
    },
    {
      "midi": 56,
      "hit": false,
      "t": 74999.96250000017,
      "d": 206.86609374999534,
      "v": 127
    },
    {
      "midi": 68,
      "hit": false,
      "t": 75083.58921875006,
      "d": 96.83093749999534,
      "v": 127
    },
    {
      "midi": 70,
      "hit": false,
      "t": 75189.22296875005,
      "d": 88.02812499999709,
      "v": 127
    },
    {
      "midi": 79,
      "hit": false,
      "t": 75211.23000000005,
      "d": 831.8657812500023,
      "v": 119
    },
    {
      "midi": 63,
      "hit": false,
      "t": 75211.23000000005,
      "d": 840.6685937500006,
      "v": 119
    },
    {
      "midi": 75,
      "hit": false,
      "t": 75211.23000000005,
      "d": 840.6685937500006,
      "v": 119
    },
    {
      "midi": 82,
      "hit": false,
      "t": 75211.23000000005,
      "d": 840.6685937500006,
      "v": 119
    },
    {
      "midi": 82,
      "hit": false,
      "t": 75211.23000000005,
      "d": 101.23234375000175,
      "v": 119
    },
    {
      "midi": 39,
      "hit": false,
      "t": 75211.23000000017,
      "d": 206.86609374999534,
      "v": 127
    },
    {
      "midi": 70,
      "hit": false,
      "t": 75294.85671875004,
      "d": 88.02812499999709,
      "v": 127
    },
    {
      "midi": 70,
      "hit": false,
      "t": 75400.49046875004,
      "d": 189.26046874999884,
      "v": 127
    },
    {
      "midi": 75,
      "hit": false,
      "t": 75422.49750000006,
      "d": 101.23234375000175,
      "v": 119
    },
    {
      "midi": 51,
      "hit": false,
      "t": 75422.49750000017,
      "d": 206.86609374999534,
      "v": 127
    },
    {
      "midi": 68,
      "hit": false,
      "t": 75611.75796875004,
      "d": 101.23234375000175,
      "v": 127
    },
    {
      "midi": 79,
      "hit": false,
      "t": 75633.76500000006,
      "d": 101.23234375000175,
      "v": 119
    },
    {
      "midi": 39,
      "hit": false,
      "t": 75633.76500000017,
      "d": 206.86609374999534,
      "v": 127
    },
    {
      "midi": 67,
      "hit": false,
      "t": 75823.02546875004,
      "d": 101.23234375000175,
      "v": 127
    },
    {
      "midi": 75,
      "hit": false,
      "t": 75845.03250000006,
      "d": 101.23234375000175,
      "v": 119
    },
    {
      "midi": 51,
      "hit": false,
      "t": 75845.03250000018,
      "d": 206.86609374999534,
      "v": 127
    },
    {
      "midi": 65,
      "hit": false,
      "t": 76034.29296875004,
      "d": 312.4998437500035,
      "v": 127
    },
    {
      "midi": 65,
      "hit": false,
      "t": 76056.30000000006,
      "d": 840.6685937500006,
      "v": 119
    },
    {
      "midi": 72,
      "hit": false,
      "t": 76056.30000000006,
      "d": 840.6685937500006,
      "v": 119
    },
    {
      "midi": 77,
      "hit": false,
      "t": 76056.30000000006,
      "d": 840.6685937500006,
      "v": 119
    },
    {
      "midi": 80,
      "hit": false,
      "t": 76056.30000000006,
      "d": 840.6685937500006,
      "v": 119
    },
    {
      "midi": 80,
      "hit": false,
      "t": 76056.30000000006,
      "d": 101.23234375000175,
      "v": 119
    },
    {
      "midi": 41,
      "hit": false,
      "t": 76056.30000000018,
      "d": 206.86609374999534,
      "v": 127
    },
    {
      "midi": 72,
      "hit": false,
      "t": 76267.56750000006,
      "d": 101.23234375000175,
      "v": 119
    },
    {
      "midi": 53,
      "hit": false,
      "t": 76267.56750000018,
      "d": 206.86609374999534,
      "v": 127
    },
    {
      "midi": 68,
      "hit": false,
      "t": 76351.19421875005,
      "d": 83.62671875000524,
      "v": 127
    },
    {
      "midi": 77,
      "hit": false,
      "t": 76478.83500000006,
      "d": 101.23234375000175,
      "v": 119
    },
    {
      "midi": 41,
      "hit": false,
      "t": 76478.83500000018,
      "d": 206.86609374999534,
      "v": 127
    },
    {
      "midi": 68,
      "hit": false,
      "t": 76562.46171875006,
      "d": 92.42953125000349,
      "v": 127
    },
    {
      "midi": 72,
      "hit": false,
      "t": 76668.09546875006,
      "d": 88.02812499999709,
      "v": 127
    },
    {
      "midi": 72,
      "hit": false,
      "t": 76690.10250000007,
      "d": 101.23234375000175,
      "v": 119
    },
    {
      "midi": 53,
      "hit": false,
      "t": 76690.10250000018,
      "d": 206.86609374999534,
      "v": 127
    },
    {
      "midi": 72,
      "hit": false,
      "t": 76773.72921875006,
      "d": 96.83093749999534,
      "v": 127
    },
    {
      "midi": 73,
      "hit": false,
      "t": 76879.36296875005,
      "d": 286.0914062499942,
      "v": 127
    },
    {
      "midi": 61,
      "hit": false,
      "t": 76901.37000000007,
      "d": 840.6685937500006,
      "v": 119
    },
    {
      "midi": 73,
      "hit": false,
      "t": 76901.37000000007,
      "d": 840.6685937500006,
      "v": 119
    },
    {
      "midi": 77,
      "hit": false,
      "t": 76901.37000000007,
      "d": 840.6685937500006,
      "v": 119
    },
    {
      "midi": 80,
      "hit": false,
      "t": 76901.37000000007,
      "d": 840.6685937500006,
      "v": 119
    },
    {
      "midi": 80,
      "hit": false,
      "t": 76901.37000000007,
      "d": 101.23234375000175,
      "v": 119
    },
    {
      "midi": 49,
      "hit": false,
      "t": 76901.37000000018,
      "d": 206.86609374999534,
      "v": 127
    },
    {
      "midi": 73,
      "hit": false,
      "t": 77112.63750000007,
      "d": 101.23234375000175,
      "v": 119
    },
    {
      "midi": 61,
      "hit": false,
      "t": 77112.63750000019,
      "d": 206.86609374999534,
      "v": 127
    },
    {
      "midi": 68,
      "hit": false,
      "t": 77196.26421875005,
      "d": 255.28156249999302,
      "v": 127
    },
    {
      "midi": 77,
      "hit": false,
      "t": 77323.90500000007,
      "d": 101.23234375000175,
      "v": 119
    },
    {
      "midi": 49,
      "hit": false,
      "t": 77323.90500000019,
      "d": 206.86609374999534,
      "v": 127
    },
    {
      "midi": 73,
      "hit": false,
      "t": 77513.16546875004,
      "d": 88.02812499999709,
      "v": 127
    },
    {
      "midi": 73,
      "hit": false,
      "t": 77535.17250000007,
      "d": 101.23234375000175,
      "v": 119
    },
    {
      "midi": 61,
      "hit": false,
      "t": 77535.17250000019,
      "d": 206.86609374999534,
      "v": 127
    },
    {
      "midi": 68,
      "hit": false,
      "t": 77618.79921875003,
      "d": 101.23234375000175,
      "v": 127
    },
    {
      "midi": 63,
      "hit": false,
      "t": 77724.43296875004,
      "d": 184.85906250000698,
      "v": 127
    },
    {
      "midi": 68,
      "hit": false,
      "t": 77746.44000000008,
      "d": 840.6685937500006,
      "v": 119
    },
    {
      "midi": 75,
      "hit": false,
      "t": 77746.44000000008,
      "d": 840.6685937500006,
      "v": 119
    },
    {
      "midi": 80,
      "hit": false,
      "t": 77746.44000000008,
      "d": 840.6685937500006,
      "v": 119
    },
    {
      "midi": 84,
      "hit": false,
      "t": 77746.44000000008,
      "d": 840.6685937500006,
      "v": 119
    },
    {
      "midi": 80,
      "hit": false,
      "t": 77746.44000000008,
      "d": 101.23234375000175,
      "v": 119
    },
    {
      "midi": 44,
      "hit": false,
      "t": 77746.44000000019,
      "d": 206.86609374999534,
      "v": 127
    },
    {
      "midi": 63,
      "hit": false,
      "t": 77935.70046875004,
      "d": 88.02812499999709,
      "v": 127
    },
    {
      "midi": 72,
      "hit": false,
      "t": 77957.70750000008,
      "d": 101.23234375000175,
      "v": 119
    },
    {
      "midi": 56,
      "hit": false,
      "t": 77957.7075000002,
      "d": 206.86609374999534,
      "v": 127
    },
    {
      "midi": 72,
      "hit": false,
      "t": 78041.33421875004,
      "d": 101.23234375000175,
      "v": 127
    },
    {
      "midi": 75,
      "hit": false,
      "t": 78168.97500000008,
      "d": 101.23234375000175,
      "v": 119
    },
    {
      "midi": 44,
      "hit": false,
      "t": 78168.9750000002,
      "d": 206.86609374999534,
      "v": 127
    },
    {
      "midi": 72,
      "hit": false,
      "t": 78252.60171875004,
      "d": 101.23234375000175,
      "v": 127
    },
    {
      "midi": 68,
      "hit": false,
      "t": 78358.23546875005,
      "d": 79.22531249999884,
      "v": 127
    },
    {
      "midi": 72,
      "hit": false,
      "t": 78380.24250000008,
      "d": 101.23234375000175,
      "v": 119
    },
    {
      "midi": 56,
      "hit": false,
      "t": 78380.2425000002,
      "d": 206.86609374999534,
      "v": 127
    },
    {
      "midi": 68,
      "hit": false,
      "t": 78463.86921875004,
      "d": 96.83093749999534,
      "v": 127
    },
    {
      "midi": 70,
      "hit": false,
      "t": 78569.50296875004,
      "d": 101.23234375000175,
      "v": 127
    },
    {
      "midi": 79,
      "hit": false,
      "t": 78591.51000000008,
      "d": 831.8657812500023,
      "v": 119
    },
    {
      "midi": 63,
      "hit": false,
      "t": 78591.51000000008,
      "d": 840.6685937500006,
      "v": 119
    },
    {
      "midi": 75,
      "hit": false,
      "t": 78591.51000000008,
      "d": 840.6685937500006,
      "v": 119
    },
    {
      "midi": 82,
      "hit": false,
      "t": 78591.51000000008,
      "d": 840.6685937500006,
      "v": 119
    },
    {
      "midi": 82,
      "hit": false,
      "t": 78591.51000000008,
      "d": 101.23234375000175,
      "v": 119
    },
    {
      "midi": 39,
      "hit": false,
      "t": 78591.5100000002,
      "d": 206.86609374999534,
      "v": 127
    },
    {
      "midi": 70,
      "hit": false,
      "t": 78780.77046875004,
      "d": 101.23234375000175,
      "v": 127
    },
    {
      "midi": 75,
      "hit": false,
      "t": 78802.77750000008,
      "d": 101.23234375000175,
      "v": 119
    },
    {
      "midi": 51,
      "hit": false,
      "t": 78802.7775000002,
      "d": 206.86609374999534,
      "v": 127
    },
    {
      "midi": 68,
      "hit": false,
      "t": 78992.03796875004,
      "d": 101.23234375000175,
      "v": 127
    },
    {
      "midi": 79,
      "hit": false,
      "t": 79014.04500000009,
      "d": 101.23234375000175,
      "v": 119
    },
    {
      "midi": 39,
      "hit": false,
      "t": 79014.0450000002,
      "d": 206.86609374999534,
      "v": 127
    },
    {
      "midi": 67,
      "hit": false,
      "t": 79097.67171875005,
      "d": 202.4646875000035,
      "v": 127
    },
    {
      "midi": 75,
      "hit": false,
      "t": 79225.31250000009,
      "d": 101.23234375000175,
      "v": 119
    },
    {
      "midi": 51,
      "hit": false,
      "t": 79225.3125000002,
      "d": 206.86609374999534,
      "v": 127
    },
    {
      "midi": 70,
      "hit": false,
      "t": 79308.93921875005,
      "d": 101.23234375000175,
      "v": 127
    },
    {
      "midi": 65,
      "hit": false,
      "t": 79414.57296875006,
      "d": 312.4998437500035,
      "v": 127
    },
    {
      "midi": 65,
      "hit": false,
      "t": 79436.58000000009,
      "d": 840.6685937500006,
      "v": 119
    },
    {
      "midi": 72,
      "hit": false,
      "t": 79436.58000000009,
      "d": 840.6685937500006,
      "v": 119
    },
    {
      "midi": 77,
      "hit": false,
      "t": 79436.58000000009,
      "d": 840.6685937500006,
      "v": 119
    },
    {
      "midi": 80,
      "hit": false,
      "t": 79436.58000000009,
      "d": 840.6685937500006,
      "v": 119
    },
    {
      "midi": 80,
      "hit": false,
      "t": 79436.58000000009,
      "d": 101.23234375000175,
      "v": 119
    },
    {
      "midi": 41,
      "hit": false,
      "t": 79436.5800000002,
      "d": 206.86609374999534,
      "v": 127
    },
    {
      "midi": 72,
      "hit": false,
      "t": 79647.84750000009,
      "d": 101.23234375000175,
      "v": 119
    },
    {
      "midi": 53,
      "hit": false,
      "t": 79647.8475000002,
      "d": 206.86609374999534,
      "v": 127
    },
    {
      "midi": 68,
      "hit": false,
      "t": 79731.47421875007,
      "d": 83.62671875000524,
      "v": 127
    },
    {
      "midi": 77,
      "hit": false,
      "t": 79859.11500000009,
      "d": 101.23234375000175,
      "v": 119
    },
    {
      "midi": 41,
      "hit": false,
      "t": 79859.11500000021,
      "d": 206.86609374999534,
      "v": 127
    },
    {
      "midi": 68,
      "hit": false,
      "t": 79942.74171875007,
      "d": 92.42953125000349,
      "v": 127
    },
    {
      "midi": 72,
      "hit": false,
      "t": 80048.37546875008,
      "d": 88.02812499999709,
      "v": 127
    },
    {
      "midi": 72,
      "hit": false,
      "t": 80070.3825000001,
      "d": 101.23234375000175,
      "v": 119
    },
    {
      "midi": 53,
      "hit": false,
      "t": 80070.38250000021,
      "d": 206.86609374999534,
      "v": 127
    },
    {
      "midi": 72,
      "hit": false,
      "t": 80154.00921875007,
      "d": 101.23234375000175,
      "v": 127
    },
    {
      "midi": 73,
      "hit": false,
      "t": 80259.64296875008,
      "d": 286.0914062499942,
      "v": 127
    },
    {
      "midi": 61,
      "hit": false,
      "t": 80281.6500000001,
      "d": 840.6685937500006,
      "v": 119
    },
    {
      "midi": 73,
      "hit": false,
      "t": 80281.6500000001,
      "d": 840.6685937500006,
      "v": 119
    },
    {
      "midi": 77,
      "hit": false,
      "t": 80281.6500000001,
      "d": 840.6685937500006,
      "v": 119
    },
    {
      "midi": 80,
      "hit": false,
      "t": 80281.6500000001,
      "d": 840.6685937500006,
      "v": 119
    },
    {
      "midi": 80,
      "hit": false,
      "t": 80281.6500000001,
      "d": 101.23234375000175,
      "v": 119
    },
    {
      "midi": 49,
      "hit": false,
      "t": 80281.65000000021,
      "d": 206.86609374999534,
      "v": 127
    },
    {
      "midi": 73,
      "hit": false,
      "t": 80492.9175000001,
      "d": 101.23234375000175,
      "v": 119
    },
    {
      "midi": 61,
      "hit": false,
      "t": 80492.91750000021,
      "d": 206.86609374999534,
      "v": 127
    },
    {
      "midi": 68,
      "hit": false,
      "t": 80576.54421875007,
      "d": 206.86609374999534,
      "v": 127
    },
    {
      "midi": 77,
      "hit": false,
      "t": 80704.1850000001,
      "d": 101.23234375000175,
      "v": 119
    },
    {
      "midi": 49,
      "hit": false,
      "t": 80704.18500000022,
      "d": 206.86609374999534,
      "v": 127
    },
    {
      "midi": 65,
      "hit": false,
      "t": 80787.81171875008,
      "d": 101.23234375000175,
      "v": 127
    },
    {
      "midi": 73,
      "hit": false,
      "t": 80893.44546875008,
      "d": 88.02812499999709,
      "v": 127
    },
    {
      "midi": 73,
      "hit": false,
      "t": 80915.4525000001,
      "d": 101.23234375000175,
      "v": 119
    },
    {
      "midi": 61,
      "hit": false,
      "t": 80915.45250000022,
      "d": 206.86609374999534,
      "v": 127
    },
    {
      "midi": 68,
      "hit": false,
      "t": 80999.07921875008,
      "d": 101.23234375000175,
      "v": 127
    },
    {
      "midi": 63,
      "hit": false,
      "t": 81104.71296875009,
      "d": 184.85906250000698,
      "v": 127
    },
    {
      "midi": 68,
      "hit": false,
      "t": 81126.7200000001,
      "d": 840.6685937500006,
      "v": 119
    },
    {
      "midi": 75,
      "hit": false,
      "t": 81126.7200000001,
      "d": 840.6685937500006,
      "v": 119
    },
    {
      "midi": 80,
      "hit": false,
      "t": 81126.7200000001,
      "d": 840.6685937500006,
      "v": 119
    },
    {
      "midi": 84,
      "hit": false,
      "t": 81126.7200000001,
      "d": 840.6685937500006,
      "v": 119
    },
    {
      "midi": 80,
      "hit": false,
      "t": 81126.7200000001,
      "d": 101.23234375000175,
      "v": 119
    },
    {
      "midi": 44,
      "hit": false,
      "t": 81126.72000000022,
      "d": 206.86609374999534,
      "v": 127
    },
    {
      "midi": 63,
      "hit": false,
      "t": 81315.98046875009,
      "d": 88.02812499999709,
      "v": 127
    },
    {
      "midi": 72,
      "hit": false,
      "t": 81337.9875000001,
      "d": 101.23234375000175,
      "v": 119
    },
    {
      "midi": 56,
      "hit": false,
      "t": 81337.98750000022,
      "d": 206.86609374999534,
      "v": 127
    },
    {
      "midi": 72,
      "hit": false,
      "t": 81421.61421875008,
      "d": 101.23234375000175,
      "v": 127
    },
    {
      "midi": 75,
      "hit": false,
      "t": 81549.2550000001,
      "d": 101.23234375000175,
      "v": 119
    },
    {
      "midi": 44,
      "hit": false,
      "t": 81549.25500000022,
      "d": 206.86609374999534,
      "v": 127
    },
    {
      "midi": 72,
      "hit": false,
      "t": 81632.88171875008,
      "d": 101.23234375000175,
      "v": 127
    },
    {
      "midi": 68,
      "hit": false,
      "t": 81738.51546875009,
      "d": 96.83093749999534,
      "v": 127
    },
    {
      "midi": 72,
      "hit": false,
      "t": 81760.52250000011,
      "d": 101.23234375000175,
      "v": 119
    },
    {
      "midi": 56,
      "hit": false,
      "t": 81760.52250000022,
      "d": 206.86609374999534,
      "v": 127
    },
    {
      "midi": 68,
      "hit": false,
      "t": 81844.14921875008,
      "d": 96.83093749999534,
      "v": 127
    },
    {
      "midi": 70,
      "hit": false,
      "t": 81949.78296875008,
      "d": 88.02812499999709,
      "v": 127
    },
    {
      "midi": 79,
      "hit": false,
      "t": 81971.79000000011,
      "d": 831.8657812500023,
      "v": 119
    },
    {
      "midi": 63,
      "hit": false,
      "t": 81971.79000000011,
      "d": 840.6685937500006,
      "v": 119
    },
    {
      "midi": 75,
      "hit": false,
      "t": 81971.79000000011,
      "d": 840.6685937500006,
      "v": 119
    },
    {
      "midi": 82,
      "hit": false,
      "t": 81971.79000000011,
      "d": 840.6685937500006,
      "v": 119
    },
    {
      "midi": 82,
      "hit": false,
      "t": 81971.79000000011,
      "d": 101.23234375000175,
      "v": 119
    },
    {
      "midi": 39,
      "hit": false,
      "t": 81971.79000000023,
      "d": 206.86609374999534,
      "v": 127
    },
    {
      "midi": 70,
      "hit": false,
      "t": 82055.41671875007,
      "d": 88.02812499999709,
      "v": 127
    },
    {
      "midi": 70,
      "hit": false,
      "t": 82161.05046875007,
      "d": 88.02812499999709,
      "v": 127
    },
    {
      "midi": 75,
      "hit": false,
      "t": 82183.05750000011,
      "d": 101.23234375000175,
      "v": 119
    },
    {
      "midi": 51,
      "hit": false,
      "t": 82183.05750000023,
      "d": 206.86609374999534,
      "v": 127
    },
    {
      "midi": 70,
      "hit": false,
      "t": 82266.68421875006,
      "d": 96.83093749999534,
      "v": 127
    },
    {
      "midi": 68,
      "hit": false,
      "t": 82372.31796875005,
      "d": 101.23234375000175,
      "v": 127
    },
    {
      "midi": 79,
      "hit": false,
      "t": 82394.32500000011,
      "d": 101.23234375000175,
      "v": 119
    },
    {
      "midi": 39,
      "hit": false,
      "t": 82394.32500000023,
      "d": 206.86609374999534,
      "v": 127
    },
    {
      "midi": 67,
      "hit": false,
      "t": 82583.58546875005,
      "d": 101.23234375000175,
      "v": 127
    },
    {
      "midi": 75,
      "hit": false,
      "t": 82605.59250000012,
      "d": 101.23234375000175,
      "v": 119
    },
    {
      "midi": 51,
      "hit": false,
      "t": 82605.59250000023,
      "d": 206.86609374999534,
      "v": 127
    }
  ]
}