{
  "jsonPath": "World/Panpipe/Inishkea/fur-elise-one-hand.json",
  "path": "World\\Panpipe\\Inishkea\\Für Elise - One Hand.mid",
  "name": "Für Elise - One Hand",
  "difficulty": "Advanced",
  "bpm": 75,
  "notes": [
    {
      "midi": 76,
      "hit": false,
      "t": 0,
      "d": 507.8125,
      "v": 36
    },
    {
      "midi": 75,
      "hit": false,
      "t": 500,
      "d": 507.8125,
      "v": 33
    },
    {
      "midi": 76,
      "hit": false,
      "t": 1000,
      "d": 507.8125,
      "v": 45
    },
    {
      "midi": 75,
      "hit": false,
      "t": 1500,
      "d": 507.8125,
      "v": 43
    },
    {
      "midi": 76,
      "hit": false,
      "t": 2000,
      "d": 507.8125,
      "v": 50
    },
    {
      "midi": 71,
      "hit": false,
      "t": 2500,
      "d": 507.8125,
      "v": 39
    },
    {
      "midi": 74,
      "hit": false,
      "t": 3000,
      "d": 507.8125,
      "v": 46
    },
    {
      "midi": 72,
      "hit": false,
      "t": 3500,
      "d": 507.8125,
      "v": 44
    },
    {
      "midi": 45,
      "hit": false,
      "t": 4000,
      "d": 507.8125,
      "v": 39
    },
    {
      "midi": 69,
      "hit": false,
      "t": 4000,
      "d": 945.3125,
      "v": 39
    },
    {
      "midi": 52,
      "hit": false,
      "t": 4500,
      "d": 507.8125,
      "v": 39
    },
    {
      "midi": 57,
      "hit": false,
      "t": 5000,
      "d": 468.75,
      "v": 47
    },
    {
      "midi": 60,
      "hit": false,
      "t": 5500,
      "d": 507.8125,
      "v": 45
    },
    {
      "midi": 64,
      "hit": false,
      "t": 6000,
      "d": 507.8125,
      "v": 51
    },
    {
      "midi": 69,
      "hit": false,
      "t": 6500,
      "d": 507.8125,
      "v": 46
    },
    {
      "midi": 40,
      "hit": false,
      "t": 7000,
      "d": 507.8125,
      "v": 40
    },
    {
      "midi": 71,
      "hit": false,
      "t": 7000,
      "d": 945.3125,
      "v": 54
    },
    {
      "midi": 52,
      "hit": false,
      "t": 7500,
      "d": 507.8125,
      "v": 43
    },
    {
      "midi": 56,
      "hit": false,
      "t": 8000,
      "d": 468.75,
      "v": 48
    },
    {
      "midi": 64,
      "hit": false,
      "t": 8500,
      "d": 507.8125,
      "v": 36
    },
    {
      "midi": 68,
      "hit": false,
      "t": 9000,
      "d": 507.8125,
      "v": 42
    },
    {
      "midi": 71,
      "hit": false,
      "t": 9500,
      "d": 507.8125,
      "v": 43
    },
    {
      "midi": 45,
      "hit": false,
      "t": 10000,
      "d": 507.8125,
      "v": 41
    },
    {
      "midi": 72,
      "hit": false,
      "t": 10000,
      "d": 945.3125,
      "v": 46
    },
    {
      "midi": 52,
      "hit": false,
      "t": 10500,
      "d": 507.8125,
      "v": 42
    },
    {
      "midi": 57,
      "hit": false,
      "t": 11000,
      "d": 468.75,
      "v": 45
    },
    {
      "midi": 64,
      "hit": false,
      "t": 11500,
      "d": 507.8125,
      "v": 35
    },
    {
      "midi": 76,
      "hit": false,
      "t": 12000,
      "d": 507.8125,
      "v": 40
    },
    {
      "midi": 75,
      "hit": false,
      "t": 12500,
      "d": 507.8125,
      "v": 38
    },
    {
      "midi": 76,
      "hit": false,
      "t": 13000,
      "d": 507.8125,
      "v": 38
    },
    {
      "midi": 75,
      "hit": false,
      "t": 13500,
      "d": 507.8125,
      "v": 40
    },
    {
      "midi": 76,
      "hit": false,
      "t": 14000,
      "d": 507.8125,
      "v": 43
    },
    {
      "midi": 71,
      "hit": false,
      "t": 14500,
      "d": 507.8125,
      "v": 42
    },
    {
      "midi": 74,
      "hit": false,
      "t": 15000,
      "d": 507.8125,
      "v": 45
    },
    {
      "midi": 72,
      "hit": false,
      "t": 15500,
      "d": 507.8125,
      "v": 39
    },
    {
      "midi": 45,
      "hit": false,
      "t": 16000,
      "d": 507.8125,
      "v": 39
    },
    {
      "midi": 69,
      "hit": false,
      "t": 16000,
      "d": 945.3125,
      "v": 38
    },
    {
      "midi": 52,
      "hit": false,
      "t": 16500,
      "d": 507.8125,
      "v": 42
    },
    {
      "midi": 57,
      "hit": false,
      "t": 17000,
      "d": 468.75,
      "v": 52
    },
    {
      "midi": 60,
      "hit": false,
      "t": 17500,
      "d": 507.8125,
      "v": 36
    },
    {
      "midi": 64,
      "hit": false,
      "t": 18000,
      "d": 507.8125,
      "v": 40
    },
    {
      "midi": 69,
      "hit": false,
      "t": 18500,
      "d": 507.8125,
      "v": 51
    },
    {
      "midi": 40,
      "hit": false,
      "t": 19000,
      "d": 507.8125,
      "v": 38
    },
    {
      "midi": 71,
      "hit": false,
      "t": 19000,
      "d": 945.3125,
      "v": 61
    },
    {
      "midi": 52,
      "hit": false,
      "t": 19500,
      "d": 507.8125,
      "v": 43
    },
    {
      "midi": 56,
      "hit": false,
      "t": 20000,
      "d": 468.75,
      "v": 46
    },
    {
      "midi": 62,
      "hit": false,
      "t": 20500,
      "d": 507.8125,
      "v": 44
    },
    {
      "midi": 72,
      "hit": false,
      "t": 21000,
      "d": 507.8125,
      "v": 57
    },
    {
      "midi": 71,
      "hit": false,
      "t": 21500,
      "d": 507.8125,
      "v": 43
    },
    {
      "midi": 45,
      "hit": false,
      "t": 22000,
      "d": 507.8125,
      "v": 39
    },
    {
      "midi": 69,
      "hit": false,
      "t": 22000,
      "d": 1898.4375,
      "v": 42
    },
    {
      "midi": 52,
      "hit": false,
      "t": 22500,
      "d": 507.8125,
      "v": 41
    },
    {
      "midi": 57,
      "hit": false,
      "t": 23000,
      "d": 468.75,
      "v": 51
    },
    {
      "midi": 76,
      "hit": false,
      "t": 24000,
      "d": 507.8125,
      "v": 44
    },
    {
      "midi": 75,
      "hit": false,
      "t": 24500,
      "d": 507.8125,
      "v": 43
    },
    {
      "midi": 76,
      "hit": false,
      "t": 25000,
      "d": 507.8125,
      "v": 50
    },
    {
      "midi": 75,
      "hit": false,
      "t": 25500,
      "d": 507.8125,
      "v": 50
    },
    {
      "midi": 76,
      "hit": false,
      "t": 26000,
      "d": 507.8125,
      "v": 44
    },
    {
      "midi": 71,
      "hit": false,
      "t": 26500,
      "d": 507.8125,
      "v": 36
    },
    {
      "midi": 74,
      "hit": false,
      "t": 27000,
      "d": 507.8125,
      "v": 47
    },
    {
      "midi": 72,
      "hit": false,
      "t": 27500,
      "d": 507.8125,
      "v": 43
    },
    {
      "midi": 45,
      "hit": false,
      "t": 28000,
      "d": 507.8125,
      "v": 37
    },
    {
      "midi": 69,
      "hit": false,
      "t": 28000,
      "d": 945.3125,
      "v": 43
    },
    {
      "midi": 52,
      "hit": false,
      "t": 28500,
      "d": 507.8125,
      "v": 44
    },
    {
      "midi": 57,
      "hit": false,
      "t": 29000,
      "d": 468.75,
      "v": 49
    },
    {
      "midi": 60,
      "hit": false,
      "t": 29500,
      "d": 507.8125,
      "v": 38
    },
    {
      "midi": 64,
      "hit": false,
      "t": 30000,
      "d": 507.8125,
      "v": 41
    },
    {
      "midi": 69,
      "hit": false,
      "t": 30500,
      "d": 507.8125,
      "v": 50
    },
    {
      "midi": 40,
      "hit": false,
      "t": 31000,
      "d": 507.8125,
      "v": 43
    },
    {
      "midi": 71,
      "hit": false,
      "t": 31000,
      "d": 945.3125,
      "v": 60
    },
    {
      "midi": 52,
      "hit": false,
      "t": 31500,
      "d": 507.8125,
      "v": 48
    },
    {
      "midi": 56,
      "hit": false,
      "t": 32000,
      "d": 468.75,
      "v": 53
    },
    {
      "midi": 64,
      "hit": false,
      "t": 32500,
      "d": 507.8125,
      "v": 36
    },
    {
      "midi": 68,
      "hit": false,
      "t": 33000,
      "d": 507.8125,
      "v": 35
    },
    {
      "midi": 71,
      "hit": false,
      "t": 33500,
      "d": 507.8125,
      "v": 51
    },
    {
      "midi": 45,
      "hit": false,
      "t": 34000,
      "d": 507.8125,
      "v": 36
    },
    {
      "midi": 72,
      "hit": false,
      "t": 34000,
      "d": 945.3125,
      "v": 49
    },
    {
      "midi": 52,
      "hit": false,
      "t": 34500,
      "d": 507.8125,
      "v": 37
    },
    {
      "midi": 57,
      "hit": false,
      "t": 35000,
      "d": 468.75,
      "v": 47
    },
    {
      "midi": 64,
      "hit": false,
      "t": 35500,
      "d": 507.8125,
      "v": 40
    },
    {
      "midi": 76,
      "hit": false,
      "t": 36000,
      "d": 507.8125,
      "v": 50
    },
    {
      "midi": 75,
      "hit": false,
      "t": 36500,
      "d": 507.8125,
      "v": 43
    },
    {
      "midi": 76,
      "hit": false,
      "t": 37000,
      "d": 507.8125,
      "v": 50
    },
    {
      "midi": 75,
      "hit": false,
      "t": 37500,
      "d": 507.8125,
      "v": 35
    },
    {
      "midi": 76,
      "hit": false,
      "t": 38000,
      "d": 507.8125,
      "v": 40
    },
    {
      "midi": 71,
      "hit": false,
      "t": 38500,
      "d": 507.8125,
      "v": 40
    },
    {
      "midi": 74,
      "hit": false,
      "t": 39000,
      "d": 507.8125,
      "v": 43
    },
    {
      "midi": 72,
      "hit": false,
      "t": 39500,
      "d": 507.8125,
      "v": 38
    },
    {
      "midi": 45,
      "hit": false,
      "t": 40000,
      "d": 507.8125,
      "v": 39
    },
    {
      "midi": 69,
      "hit": false,
      "t": 40000,
      "d": 945.3125,
      "v": 29
    },
    {
      "midi": 52,
      "hit": false,
      "t": 40500,
      "d": 507.8125,
      "v": 45
    },
    {
      "midi": 57,
      "hit": false,
      "t": 41000,
      "d": 468.75,
      "v": 43
    },
    {
      "midi": 60,
      "hit": false,
      "t": 41500,
      "d": 507.8125,
      "v": 41
    },
    {
      "midi": 64,
      "hit": false,
      "t": 42000,
      "d": 507.8125,
      "v": 45
    },
    {
      "midi": 69,
      "hit": false,
      "t": 42500,
      "d": 507.8125,
      "v": 49
    },
    {
      "midi": 40,
      "hit": false,
      "t": 43000,
      "d": 507.8125,
      "v": 39
    },
    {
      "midi": 71,
      "hit": false,
      "t": 43000,
      "d": 945.3125,
      "v": 53
    },
    {
      "midi": 52,
      "hit": false,
      "t": 43500,
      "d": 507.8125,
      "v": 47
    },
    {
      "midi": 56,
      "hit": false,
      "t": 44000,
      "d": 468.75,
      "v": 45
    },
    {
      "midi": 62,
      "hit": false,
      "t": 44500,
      "d": 507.8125,
      "v": 35
    },
    {
      "midi": 72,
      "hit": false,
      "t": 45000,
      "d": 507.8125,
      "v": 40
    },
    {
      "midi": 71,
      "hit": false,
      "t": 45500,
      "d": 507.8125,
      "v": 47
    },
    {
      "midi": 45,
      "hit": false,
      "t": 46000,
      "d": 507.8125,
      "v": 41
    },
    {
      "midi": 69,
      "hit": false,
      "t": 46000,
      "d": 945.3125,
      "v": 39
    },
    {
      "midi": 52,
      "hit": false,
      "t": 46500,
      "d": 507.8125,
      "v": 46
    },
    {
      "midi": 57,
      "hit": false,
      "t": 47000,
      "d": 468.75,
      "v": 49
    },
    {
      "midi": 71,
      "hit": false,
      "t": 47500,
      "d": 507.8125,
      "v": 53
    },
    {
      "midi": 72,
      "hit": false,
      "t": 48000,
      "d": 507.8125,
      "v": 67
    },
    {
      "midi": 74,
      "hit": false,
      "t": 48500,
      "d": 507.8125,
      "v": 85
    },
    {
      "midi": 48,
      "hit": false,
      "t": 49000,
      "d": 507.8125,
      "v": 75
    },
    {
      "midi": 76,
      "hit": false,
      "t": 49000,
      "d": 1421.875,
      "v": 82
    },
    {
      "midi": 55,
      "hit": false,
      "t": 49500,
      "d": 507.8125,
      "v": 79
    },
    {
      "midi": 60,
      "hit": false,
      "t": 50000,
      "d": 468.75,
      "v": 88
    },
    {
      "midi": 67,
      "hit": false,
      "t": 50500,
      "d": 507.8125,
      "v": 64
    },
    {
      "midi": 77,
      "hit": false,
      "t": 51000,
      "d": 507.8125,
      "v": 77
    },
    {
      "midi": 76,
      "hit": false,
      "t": 51500,
      "d": 507.8125,
      "v": 85
    },
    {
      "midi": 43,
      "hit": false,
      "t": 52000,
      "d": 507.8125,
      "v": 74
    },
    {
      "midi": 74,
      "hit": false,
      "t": 52000,
      "d": 1421.875,
      "v": 80
    },
    {
      "midi": 55,
      "hit": false,
      "t": 52500,
      "d": 507.8125,
      "v": 85
    },
    {
      "midi": 59,
      "hit": false,
      "t": 53000,
      "d": 468.75,
      "v": 90
    },
    {
      "midi": 65,
      "hit": false,
      "t": 53500,
      "d": 507.8125,
      "v": 64
    },
    {
      "midi": 76,
      "hit": false,
      "t": 54000,
      "d": 507.8125,
      "v": 80
    },
    {
      "midi": 74,
      "hit": false,
      "t": 54500,
      "d": 507.8125,
      "v": 76
    },
    {
      "midi": 45,
      "hit": false,
      "t": 55000,
      "d": 507.8125,
      "v": 68
    },
    {
      "midi": 72,
      "hit": false,
      "t": 55000,
      "d": 1421.875,
      "v": 70
    },
    {
      "midi": 52,
      "hit": false,
      "t": 55500,
      "d": 507.8125,
      "v": 72
    },
    {
      "midi": 57,
      "hit": false,
      "t": 56000,
      "d": 468.75,
      "v": 77
    },
    {
      "midi": 64,
      "hit": false,
      "t": 56500,
      "d": 507.8125,
      "v": 54
    },
    {
      "midi": 74,
      "hit": false,
      "t": 57000,
      "d": 507.8125,
      "v": 68
    },
    {
      "midi": 72,
      "hit": false,
      "t": 57500,
      "d": 507.8125,
      "v": 71
    },
    {
      "midi": 40,
      "hit": false,
      "t": 58000,
      "d": 250,
      "v": 48
    },
    {
      "midi": 71,
      "hit": false,
      "t": 58000,
      "d": 945.3125,
      "v": 58
    },
    {
      "midi": 52,
      "hit": false,
      "t": 58500,
      "d": 507.8125,
      "v": 69
    },
    {
      "midi": 64,
      "hit": false,
      "t": 59000,
      "d": 468.75,
      "v": 87
    },
    {
      "midi": 64,
      "hit": false,
      "t": 59500,
      "d": 507.8125,
      "v": 53
    },
    {
      "midi": 76,
      "hit": false,
      "t": 60000,
      "d": 468.75,
      "v": 64
    },
    {
      "midi": 64,
      "hit": false,
      "t": 60500,
      "d": 507.8125,
      "v": 54
    },
    {
      "midi": 76,
      "hit": false,
      "t": 61000,
      "d": 468.75,
      "v": 67
    },
    {
      "midi": 76,
      "hit": false,
      "t": 61500,
      "d": 507.8125,
      "v": 49
    },
    {
      "midi": 88,
      "hit": false,
      "t": 62000,
      "d": 468.75,
      "v": 60
    },
    {
      "midi": 75,
      "hit": false,
      "t": 62500,
      "d": 507.8125,
      "v": 48
    },
    {
      "midi": 76,
      "hit": false,
      "t": 63000,
      "d": 468.75,
      "v": 55
    },
    {
      "midi": 75,
      "hit": false,
      "t": 63500,
      "d": 507.8125,
      "v": 44
    },
    {
      "midi": 76,
      "hit": false,
      "t": 64000,
      "d": 468.75,
      "v": 49
    },
    {
      "midi": 75,
      "hit": false,
      "t": 64500,
      "d": 507.8125,
      "v": 45
    },
    {
      "midi": 76,
      "hit": false,
      "t": 65000,
      "d": 468.75,
      "v": 43
    },
    {
      "midi": 75,
      "hit": false,
      "t": 65500,
      "d": 507.8125,
      "v": 35
    },
    {
      "midi": 76,
      "hit": false,
      "t": 66000,
      "d": 507.8125,
      "v": 33
    },
    {
      "midi": 75,
      "hit": false,
      "t": 66500,
      "d": 507.8125,
      "v": 36
    },
    {
      "midi": 76,
      "hit": false,
      "t": 67000,
      "d": 507.8125,
      "v": 38
    },
    {
      "midi": 75,
      "hit": false,
      "t": 67500,
      "d": 507.8125,
      "v": 42
    },
    {
      "midi": 76,
      "hit": false,
      "t": 68000,
      "d": 507.8125,
      "v": 42
    },
    {
      "midi": 71,
      "hit": false,
      "t": 68500,
      "d": 507.8125,
      "v": 41
    },
    {
      "midi": 74,
      "hit": false,
      "t": 69000,
      "d": 507.8125,
      "v": 43
    },
    {
      "midi": 72,
      "hit": false,
      "t": 69500,
      "d": 507.8125,
      "v": 41
    },
    {
      "midi": 45,
      "hit": false,
      "t": 70000,
      "d": 507.8125,
      "v": 37
    },
    {
      "midi": 69,
      "hit": false,
      "t": 70000,
      "d": 945.3125,
      "v": 36
    },
    {
      "midi": 52,
      "hit": false,
      "t": 70500,
      "d": 507.8125,
      "v": 40
    },
    {
      "midi": 57,
      "hit": false,
      "t": 71000,
      "d": 468.75,
      "v": 41
    },
    {
      "midi": 60,
      "hit": false,
      "t": 71500,
      "d": 507.8125,
      "v": 37
    },
    {
      "midi": 64,
      "hit": false,
      "t": 72000,
      "d": 507.8125,
      "v": 41
    },
    {
      "midi": 69,
      "hit": false,
      "t": 72500,
      "d": 507.8125,
      "v": 47
    },
    {
      "midi": 40,
      "hit": false,
      "t": 73000,
      "d": 507.8125,
      "v": 37
    },
    {
      "midi": 71,
      "hit": false,
      "t": 73000,
      "d": 945.3125,
      "v": 51
    },
    {
      "midi": 52,
      "hit": false,
      "t": 73500,
      "d": 507.8125,
      "v": 39
    },
    {
      "midi": 56,
      "hit": false,
      "t": 74000,
      "d": 468.75,
      "v": 48
    },
    {
      "midi": 64,
      "hit": false,
      "t": 74500,
      "d": 507.8125,
      "v": 34
    },
    {
      "midi": 68,
      "hit": false,
      "t": 75000,
      "d": 507.8125,
      "v": 37
    },
    {
      "midi": 71,
      "hit": false,
      "t": 75500,
      "d": 507.8125,
      "v": 46
    },
    {
      "midi": 45,
      "hit": false,
      "t": 76000,
      "d": 507.8125,
      "v": 38
    },
    {
      "midi": 72,
      "hit": false,
      "t": 76000,
      "d": 945.3125,
      "v": 48
    },
    {
      "midi": 52,
      "hit": false,
      "t": 76500,
      "d": 507.8125,
      "v": 41
    },
    {
      "midi": 57,
      "hit": false,
      "t": 77000,
      "d": 468.75,
      "v": 43
    },
    {
      "midi": 64,
      "hit": false,
      "t": 77500,
      "d": 507.8125,
      "v": 39
    },
    {
      "midi": 76,
      "hit": false,
      "t": 78000,
      "d": 507.8125,
      "v": 48
    },
    {
      "midi": 75,
      "hit": false,
      "t": 78500,
      "d": 507.8125,
      "v": 42
    },
    {
      "midi": 76,
      "hit": false,
      "t": 79000,
      "d": 507.8125,
      "v": 43
    },
    {
      "midi": 75,
      "hit": false,
      "t": 79500,
      "d": 507.8125,
      "v": 44
    },
    {
      "midi": 76,
      "hit": false,
      "t": 80000,
      "d": 507.8125,
      "v": 48
    },
    {
      "midi": 71,
      "hit": false,
      "t": 80500,
      "d": 507.8125,
      "v": 42
    },
    {
      "midi": 74,
      "hit": false,
      "t": 81000,
      "d": 507.8125,
      "v": 45
    },
    {
      "midi": 72,
      "hit": false,
      "t": 81500,
      "d": 507.8125,
      "v": 41
    },
    {
      "midi": 45,
      "hit": false,
      "t": 82000,
      "d": 507.8125,
      "v": 35
    },
    {
      "midi": 69,
      "hit": false,
      "t": 82000,
      "d": 945.3125,
      "v": 38
    },
    {
      "midi": 52,
      "hit": false,
      "t": 82500,
      "d": 507.8125,
      "v": 38
    },
    {
      "midi": 57,
      "hit": false,
      "t": 83000,
      "d": 468.75,
      "v": 48
    },
    {
      "midi": 60,
      "hit": false,
      "t": 83500,
      "d": 507.8125,
      "v": 42
    },
    {
      "midi": 64,
      "hit": false,
      "t": 84000,
      "d": 507.8125,
      "v": 42
    },
    {
      "midi": 69,
      "hit": false,
      "t": 84500,
      "d": 507.8125,
      "v": 50
    },
    {
      "midi": 40,
      "hit": false,
      "t": 85000,
      "d": 507.8125,
      "v": 37
    },
    {
      "midi": 71,
      "hit": false,
      "t": 85000,
      "d": 945.3125,
      "v": 52
    },
    {
      "midi": 52,
      "hit": false,
      "t": 85500,
      "d": 507.8125,
      "v": 39
    },
    {
      "midi": 56,
      "hit": false,
      "t": 86000,
      "d": 468.75,
      "v": 45
    },
    {
      "midi": 62,
      "hit": false,
      "t": 86500,
      "d": 507.8125,
      "v": 41
    },
    {
      "midi": 72,
      "hit": false,
      "t": 87000,
      "d": 507.8125,
      "v": 46
    },
    {
      "midi": 71,
      "hit": false,
      "t": 87500,
      "d": 507.8125,
      "v": 39
    },
    {
      "midi": 45,
      "hit": false,
      "t": 88000,
      "d": 507.8125,
      "v": 39
    },
    {
      "midi": 69,
      "hit": false,
      "t": 88000,
      "d": 945.3125,
      "v": 36
    },
    {
      "midi": 52,
      "hit": false,
      "t": 88500,
      "d": 507.8125,
      "v": 45
    },
    {
      "midi": 57,
      "hit": false,
      "t": 89000,
      "d": 468.75,
      "v": 47
    },
    {
      "midi": 71,
      "hit": false,
      "t": 89500,
      "d": 507.8125,
      "v": 49
    },
    {
      "midi": 72,
      "hit": false,
      "t": 90000,
      "d": 507.8125,
      "v": 72
    },
    {
      "midi": 74,
      "hit": false,
      "t": 90500,
      "d": 507.8125,
      "v": 82
    },
    {
      "midi": 48,
      "hit": false,
      "t": 91000,
      "d": 507.8125,
      "v": 76
    },
    {
      "midi": 76,
      "hit": false,
      "t": 91000,
      "d": 1421.875,
      "v": 92
    },
    {
      "midi": 55,
      "hit": false,
      "t": 91500,
      "d": 507.8125,
      "v": 83
    },
    {
      "midi": 60,
      "hit": false,
      "t": 92000,
      "d": 468.75,
      "v": 93
    },
    {
      "midi": 67,
      "hit": false,
      "t": 92500,
      "d": 507.8125,
      "v": 66
    },
    {
      "midi": 77,
      "hit": false,
      "t": 93000,
      "d": 507.8125,
      "v": 82
    },
    {
      "midi": 76,
      "hit": false,
      "t": 93500,
      "d": 507.8125,
      "v": 82
    },
    {
      "midi": 43,
      "hit": false,
      "t": 94000,
      "d": 507.8125,
      "v": 76
    },
    {
      "midi": 74,
      "hit": false,
      "t": 94000,
      "d": 1421.875,
      "v": 79
    },
    {
      "midi": 55,
      "hit": false,
      "t": 94500,
      "d": 507.8125,
      "v": 84
    },
    {
      "midi": 59,
      "hit": false,
      "t": 95000,
      "d": 468.75,
      "v": 89
    },
    {
      "midi": 65,
      "hit": false,
      "t": 95500,
      "d": 507.8125,
      "v": 68
    },
    {
      "midi": 76,
      "hit": false,
      "t": 96000,
      "d": 507.8125,
      "v": 80
    },
    {
      "midi": 74,
      "hit": false,
      "t": 96500,
      "d": 507.8125,
      "v": 81
    },
    {
      "midi": 45,
      "hit": false,
      "t": 97000,
      "d": 507.8125,
      "v": 66
    },
    {
      "midi": 72,
      "hit": false,
      "t": 97000,
      "d": 1421.875,
      "v": 70
    },
    {
      "midi": 52,
      "hit": false,
      "t": 97500,
      "d": 507.8125,
      "v": 70
    },
    {
      "midi": 57,
      "hit": false,
      "t": 98000,
      "d": 468.75,
      "v": 75
    },
    {
      "midi": 64,
      "hit": false,
      "t": 98500,
      "d": 507.8125,
      "v": 60
    },
    {
      "midi": 74,
      "hit": false,
      "t": 99000,
      "d": 507.8125,
      "v": 72
    },
    {
      "midi": 72,
      "hit": false,
      "t": 99500,
      "d": 507.8125,
      "v": 71
    },
    {
      "midi": 40,
      "hit": false,
      "t": 100000,
      "d": 250,
      "v": 49
    },
    {
      "midi": 71,
      "hit": false,
      "t": 100000,
      "d": 945.3125,
      "v": 51
    },
    {
      "midi": 52,
      "hit": false,
      "t": 100500,
      "d": 507.8125,
      "v": 61
    },
    {
      "midi": 64,
      "hit": false,
      "t": 101000,
      "d": 468.75,
      "v": 80
    },
    {
      "midi": 64,
      "hit": false,
      "t": 101500,
      "d": 507.8125,
      "v": 49
    },
    {
      "midi": 76,
      "hit": false,
      "t": 102000,
      "d": 468.75,
      "v": 63
    },
    {
      "midi": 64,
      "hit": false,
      "t": 102500,
      "d": 507.8125,
      "v": 50
    },
    {
      "midi": 76,
      "hit": false,
      "t": 103000,
      "d": 468.75,
      "v": 63
    },
    {
      "midi": 76,
      "hit": false,
      "t": 103500,
      "d": 507.8125,
      "v": 56
    },
    {
      "midi": 88,
      "hit": false,
      "t": 104000,
      "d": 468.75,
      "v": 60
    },
    {
      "midi": 75,
      "hit": false,
      "t": 104500,
      "d": 507.8125,
      "v": 45
    },
    {
      "midi": 76,
      "hit": false,
      "t": 105000,
      "d": 468.75,
      "v": 44
    },
    {
      "midi": 75,
      "hit": false,
      "t": 105500,
      "d": 507.8125,
      "v": 45
    },
    {
      "midi": 76,
      "hit": false,
      "t": 106000,
      "d": 468.75,
      "v": 43
    },
    {
      "midi": 75,
      "hit": false,
      "t": 106500,
      "d": 507.8125,
      "v": 47
    },
    {
      "midi": 76,
      "hit": false,
      "t": 107000,
      "d": 468.75,
      "v": 41
    },
    {
      "midi": 75,
      "hit": false,
      "t": 107500,
      "d": 507.8125,
      "v": 38
    },
    {
      "midi": 76,
      "hit": false,
      "t": 108000,
      "d": 507.8125,
      "v": 35
    },
    {
      "midi": 75,
      "hit": false,
      "t": 108500,
      "d": 507.8125,
      "v": 42
    },
    {
      "midi": 76,
      "hit": false,
      "t": 109000,
      "d": 507.8125,
      "v": 41
    },
    {
      "midi": 75,
      "hit": false,
      "t": 109500,
      "d": 507.8125,
      "v": 44
    },
    {
      "midi": 76,
      "hit": false,
      "t": 110000,
      "d": 507.8125,
      "v": 48
    },
    {
      "midi": 71,
      "hit": false,
      "t": 110500,
      "d": 507.8125,
      "v": 40
    },
    {
      "midi": 74,
      "hit": false,
      "t": 111000,
      "d": 507.8125,
      "v": 42
    },
    {
      "midi": 72,
      "hit": false,
      "t": 111500,
      "d": 507.8125,
      "v": 42
    },
    {
      "midi": 45,
      "hit": false,
      "t": 112000,
      "d": 507.8125,
      "v": 45
    },
    {
      "midi": 69,
      "hit": false,
      "t": 112000,
      "d": 945.3125,
      "v": 41
    },
    {
      "midi": 52,
      "hit": false,
      "t": 112500,
      "d": 507.8125,
      "v": 47
    },
    {
      "midi": 57,
      "hit": false,
      "t": 113000,
      "d": 468.75,
      "v": 49
    },
    {
      "midi": 60,
      "hit": false,
      "t": 113500,
      "d": 507.8125,
      "v": 35
    },
    {
      "midi": 64,
      "hit": false,
      "t": 114000,
      "d": 507.8125,
      "v": 35
    },
    {
      "midi": 69,
      "hit": false,
      "t": 114500,
      "d": 507.8125,
      "v": 51
    },
    {
      "midi": 40,
      "hit": false,
      "t": 115000,
      "d": 507.8125,
      "v": 37
    },
    {
      "midi": 71,
      "hit": false,
      "t": 115000,
      "d": 945.3125,
      "v": 55
    },
    {
      "midi": 52,
      "hit": false,
      "t": 115500,
      "d": 507.8125,
      "v": 42
    },
    {
      "midi": 56,
      "hit": false,
      "t": 116000,
      "d": 468.75,
      "v": 46
    },
    {
      "midi": 64,
      "hit": false,
      "t": 116500,
      "d": 507.8125,
      "v": 37
    },
    {
      "midi": 68,
      "hit": false,
      "t": 117000,
      "d": 507.8125,
      "v": 38
    },
    {
      "midi": 71,
      "hit": false,
      "t": 117500,
      "d": 507.8125,
      "v": 47
    },
    {
      "midi": 45,
      "hit": false,
      "t": 118000,
      "d": 507.8125,
      "v": 41
    },
    {
      "midi": 72,
      "hit": false,
      "t": 118000,
      "d": 945.3125,
      "v": 50
    },
    {
      "midi": 52,
      "hit": false,
      "t": 118500,
      "d": 507.8125,
      "v": 45
    },
    {
      "midi": 57,
      "hit": false,
      "t": 119000,
      "d": 468.75,
      "v": 46
    },
    {
      "midi": 64,
      "hit": false,
      "t": 119500,
      "d": 507.8125,
      "v": 37
    },
    {
      "midi": 76,
      "hit": false,
      "t": 120000,
      "d": 507.8125,
      "v": 47
    },
    {
      "midi": 75,
      "hit": false,
      "t": 120500,
      "d": 507.8125,
      "v": 43
    },
    {
      "midi": 76,
      "hit": false,
      "t": 121000,
      "d": 507.8125,
      "v": 43
    },
    {
      "midi": 75,
      "hit": false,
      "t": 121500,
      "d": 507.8125,
      "v": 45
    },
    {
      "midi": 76,
      "hit": false,
      "t": 122000,
      "d": 507.8125,
      "v": 46
    },
    {
      "midi": 71,
      "hit": false,
      "t": 122500,
      "d": 507.8125,
      "v": 40
    },
    {
      "midi": 74,
      "hit": false,
      "t": 123000,
      "d": 507.8125,
      "v": 38
    },
    {
      "midi": 72,
      "hit": false,
      "t": 123500,
      "d": 507.8125,
      "v": 39
    },
    {
      "midi": 45,
      "hit": false,
      "t": 124000,
      "d": 507.8125,
      "v": 36
    },
    {
      "midi": 69,
      "hit": false,
      "t": 124000,
      "d": 945.3125,
      "v": 37
    },
    {
      "midi": 52,
      "hit": false,
      "t": 124500,
      "d": 507.8125,
      "v": 34
    },
    {
      "midi": 57,
      "hit": false,
      "t": 125000,
      "d": 468.75,
      "v": 48
    },
    {
      "midi": 60,
      "hit": false,
      "t": 125500,
      "d": 507.8125,
      "v": 41
    },
    {
      "midi": 64,
      "hit": false,
      "t": 126000,
      "d": 507.8125,
      "v": 42
    },
    {
      "midi": 69,
      "hit": false,
      "t": 126500,
      "d": 507.8125,
      "v": 53
    },
    {
      "midi": 40,
      "hit": false,
      "t": 127000,
      "d": 507.8125,
      "v": 38
    },
    {
      "midi": 71,
      "hit": false,
      "t": 127000,
      "d": 945.3125,
      "v": 58
    },
    {
      "midi": 52,
      "hit": false,
      "t": 127500,
      "d": 507.8125,
      "v": 42
    },
    {
      "midi": 56,
      "hit": false,
      "t": 128000,
      "d": 468.75,
      "v": 50
    },
    {
      "midi": 62,
      "hit": false,
      "t": 128500,
      "d": 507.8125,
      "v": 33
    },
    {
      "midi": 72,
      "hit": false,
      "t": 129000,
      "d": 507.8125,
      "v": 43
    },
    {
      "midi": 71,
      "hit": false,
      "t": 129500,
      "d": 507.8125,
      "v": 40
    },
    {
      "midi": 45,
      "hit": false,
      "t": 130000,
      "d": 507.8125,
      "v": 33
    },
    {
      "midi": 69,
      "hit": false,
      "t": 130000,
      "d": 945.3125,
      "v": 36
    },
    {
      "midi": 52,
      "hit": false,
      "t": 130500,
      "d": 507.8125,
      "v": 35
    },
    {
      "midi": 57,
      "hit": false,
      "t": 131000,
      "d": 468.75,
      "v": 44
    },
    {
      "midi": 64,
      "hit": false,
      "t": 131500,
      "d": 250,
      "v": 37
    },
    {
      "midi": 72,
      "hit": false,
      "t": 131500,
      "d": 250,
      "v": 37
    },
    {
      "midi": 58,
      "hit": false,
      "t": 131500,
      "d": 250,
      "v": 52
    },
    {
      "midi": 60,
      "hit": false,
      "t": 131500,
      "d": 250,
      "v": 52
    },
    {
      "midi": 65,
      "hit": false,
      "t": 132000,
      "d": 250,
      "v": 54
    },
    {
      "midi": 72,
      "hit": false,
      "t": 132000,
      "d": 250,
      "v": 54
    },
    {
      "midi": 57,
      "hit": false,
      "t": 132000,
      "d": 250,
      "v": 56
    },
    {
      "midi": 60,
      "hit": false,
      "t": 132000,
      "d": 250,
      "v": 56
    },
    {
      "midi": 64,
      "hit": false,
      "t": 132500,
      "d": 250,
      "v": 64
    },
    {
      "midi": 67,
      "hit": false,
      "t": 132500,
      "d": 250,
      "v": 64
    },
    {
      "midi": 72,
      "hit": false,
      "t": 132500,
      "d": 250,
      "v": 64
    },
    {
      "midi": 55,
      "hit": false,
      "t": 132500,
      "d": 250,
      "v": 67
    },
    {
      "midi": 58,
      "hit": false,
      "t": 132500,
      "d": 250,
      "v": 67
    },
    {
      "midi": 60,
      "hit": false,
      "t": 132500,
      "d": 250,
      "v": 67
    },
    {
      "midi": 53,
      "hit": false,
      "t": 133000,
      "d": 500,
      "v": 50
    },
    {
      "midi": 72,
      "hit": false,
      "t": 133000,
      "d": 2039.0625,
      "v": 55
    },
    {
      "midi": 57,
      "hit": false,
      "t": 133500,
      "d": 500,
      "v": 55
    },
    {
      "midi": 60,
      "hit": false,
      "t": 134000,
      "d": 500,
      "v": 50
    },
    {
      "midi": 57,
      "hit": false,
      "t": 134500,
      "d": 500,
      "v": 46
    },
    {
      "midi": 60,
      "hit": false,
      "t": 135000,
      "d": 500,
      "v": 55
    },
    {
      "midi": 77,
      "hit": false,
      "t": 135000,
      "d": 757.8125,
      "v": 56
    },
    {
      "midi": 57,
      "hit": false,
      "t": 135500,
      "d": 500,
      "v": 50
    },
    {
      "midi": 76,
      "hit": false,
      "t": 135750,
      "d": 250,
      "v": 51
    },
    {
      "midi": 53,
      "hit": false,
      "t": 136000,
      "d": 500,
      "v": 43
    },
    {
      "midi": 76,
      "hit": false,
      "t": 136000,
      "d": 1015.625,
      "v": 48
    },
    {
      "midi": 58,
      "hit": false,
      "t": 136500,
      "d": 500,
      "v": 54
    },
    {
      "midi": 62,
      "hit": false,
      "t": 137000,
      "d": 500,
      "v": 54
    },
    {
      "midi": 74,
      "hit": false,
      "t": 137000,
      "d": 945.3125,
      "v": 43
    },
    {
      "midi": 58,
      "hit": false,
      "t": 137500,
      "d": 500,
      "v": 43
    },
    {
      "midi": 62,
      "hit": false,
      "t": 138000,
      "d": 500,
      "v": 51
    },
    {
      "midi": 82,
      "hit": false,
      "t": 138000,
      "d": 757.8125,
      "v": 59
    },
    {
      "midi": 58,
      "hit": false,
      "t": 138500,
      "d": 500,
      "v": 46
    },
    {
      "midi": 81,
      "hit": false,
      "t": 138750,
      "d": 250,
      "v": 61
    },
    {
      "midi": 53,
      "hit": false,
      "t": 139000,
      "d": 500,
      "v": 43
    },
    {
      "midi": 81,
      "hit": false,
      "t": 139000,
      "d": 507.8125,
      "v": 47
    },
    {
      "midi": 64,
      "hit": false,
      "t": 139500,
      "d": 500,
      "v": 62
    },
    {
      "midi": 79,
      "hit": false,
      "t": 139500,
      "d": 507.8125,
      "v": 41
    },
    {
      "midi": 53,
      "hit": false,
      "t": 140000,
      "d": 500,
      "v": 45
    },
    {
      "midi": 55,
      "hit": false,
      "t": 140000,
      "d": 500,
      "v": 45
    },
    {
      "midi": 58,
      "hit": false,
      "t": 140000,
      "d": 500,
      "v": 45
    },
    {
      "midi": 77,
      "hit": false,
      "t": 140000,
      "d": 507.8125,
      "v": 43
    },
    {
      "midi": 64,
      "hit": false,
      "t": 140500,
      "d": 500,
      "v": 53
    },
    {
      "midi": 76,
      "hit": false,
      "t": 140500,
      "d": 507.8125,
      "v": 38
    },
    {
      "midi": 53,
      "hit": false,
      "t": 141000,
      "d": 500,
      "v": 48
    },
    {
      "midi": 55,
      "hit": false,
      "t": 141000,
      "d": 500,
      "v": 48
    },
    {
      "midi": 58,
      "hit": false,
      "t": 141000,
      "d": 500,
      "v": 48
    },
    {
      "midi": 74,
      "hit": false,
      "t": 141000,
      "d": 507.8125,
      "v": 47
    },
    {
      "midi": 64,
      "hit": false,
      "t": 141500,
      "d": 500,
      "v": 57
    },
    {
      "midi": 72,
      "hit": false,
      "t": 141500,
      "d": 507.8125,
      "v": 45
    },
    {
      "midi": 53,
      "hit": false,
      "t": 142000,
      "d": 500,
      "v": 42
    },
    {
      "midi": 70,
      "hit": false,
      "t": 142000,
      "d": 1015.625,
      "v": 48
    },
    {
      "midi": 57,
      "hit": false,
      "t": 142500,
      "d": 500,
      "v": 52
    },
    {
      "midi": 60,
      "hit": false,
      "t": 143000,
      "d": 500,
      "v": 52
    },
    {
      "midi": 69,
      "hit": false,
      "t": 143000,
      "d": 898.4375,
      "v": 40
    },
    {
      "midi": 57,
      "hit": false,
      "t": 143500,
      "d": 500,
      "v": 47
    },
    {
      "midi": 70,
      "hit": false,
      "t": 143898.4375,
      "d": 101.5625,
      "v": 43
    },
    {
      "midi": 69,
      "hit": false,
      "t": 144000,
      "d": 250,
      "v": 43
    },
    {
      "midi": 60,
      "hit": false,
      "t": 144000,
      "d": 500,
      "v": 53
    },
    {
      "midi": 67,
      "hit": false,
      "t": 144250,
      "d": 250,
      "v": 46
    },
    {
      "midi": 69,
      "hit": false,
      "t": 144500,
      "d": 250,
      "v": 52
    },
    {
      "midi": 57,
      "hit": false,
      "t": 144500,
      "d": 500,
      "v": 47
    },
    {
      "midi": 70,
      "hit": false,
      "t": 144750,
      "d": 250,
      "v": 54
    },
    {
      "midi": 53,
      "hit": false,
      "t": 145000,
      "d": 500,
      "v": 47
    },
    {
      "midi": 72,
      "hit": false,
      "t": 145000,
      "d": 2039.0625,
      "v": 57
    },
    {
      "midi": 57,
      "hit": false,
      "t": 145500,
      "d": 500,
      "v": 51
    },
    {
      "midi": 60,
      "hit": false,
      "t": 146000,
      "d": 500,
      "v": 59
    },
    {
      "midi": 57,
      "hit": false,
      "t": 146500,
      "d": 500,
      "v": 44
    },
    {
      "midi": 60,
      "hit": false,
      "t": 147000,
      "d": 500,
      "v": 50
    },
    {
      "midi": 74,
      "hit": false,
      "t": 147000,
      "d": 507.8125,
      "v": 62
    },
    {
      "midi": 57,
      "hit": false,
      "t": 147500,
      "d": 500,
      "v": 48
    },
    {
      "midi": 75,
      "hit": false,
      "t": 147500,
      "d": 507.8125,
      "v": 53
    },
    {
      "midi": 52,
      "hit": false,
      "t": 148000,
      "d": 500,
      "v": 48
    },
    {
      "midi": 76,
      "hit": false,
      "t": 148000,
      "d": 1421.875,
      "v": 59
    },
    {
      "midi": 57,
      "hit": false,
      "t": 148500,
      "d": 500,
      "v": 47
    },
    {
      "midi": 60,
      "hit": false,
      "t": 149000,
      "d": 500,
      "v": 54
    },
    {
      "midi": 57,
      "hit": false,
      "t": 149500,
      "d": 500,
      "v": 46
    },
    {
      "midi": 76,
      "hit": false,
      "t": 149500,
      "d": 507.8125,
      "v": 46
    },
    {
      "midi": 50,
      "hit": false,
      "t": 150000,
      "d": 500,
      "v": 58
    },
    {
      "midi": 62,
      "hit": false,
      "t": 150000,
      "d": 500,
      "v": 58
    },
    {
      "midi": 77,
      "hit": false,
      "t": 150000,
      "d": 507.8125,
      "v": 51
    },
    {
      "midi": 53,
      "hit": false,
      "t": 150500,
      "d": 500,
      "v": 42
    },
    {
      "midi": 69,
      "hit": false,
      "t": 150500,
      "d": 507.8125,
      "v": 35
    },
    {
      "midi": 55,
      "hit": false,
      "t": 151000,
      "d": 500,
      "v": 53
    },
    {
      "midi": 72,
      "hit": false,
      "t": 151000,
      "d": 1523.4375,
      "v": 51
    },
    {
      "midi": 64,
      "hit": false,
      "t": 151500,
      "d": 500,
      "v": 57
    },
    {
      "midi": 55,
      "hit": false,
      "t": 152000,
      "d": 500,
      "v": 48
    },
    {
      "midi": 74,
      "hit": false,
      "t": 152500,
      "d": 125,
      "v": 53
    },
    {
      "midi": 64,
      "hit": false,
      "t": 152500,
      "d": 500,
      "v": 56
    },
    {
      "midi": 72,
      "hit": false,
      "t": 152625,
      "d": 125,
      "v": 56
    },
    {
      "midi": 71,
      "hit": false,
      "t": 152750,
      "d": 125,
      "v": 56
    },
    {
      "midi": 72,
      "hit": false,
      "t": 152875,
      "d": 125,
      "v": 59
    },
    {
      "midi": 55,
      "hit": false,
      "t": 153000,
      "d": 500,
      "v": 41
    },
    {
      "midi": 74,
      "hit": false,
      "t": 153000,
      "d": 757.8125,
      "v": 54
    },
    {
      "midi": 65,
      "hit": false,
      "t": 153500,
      "d": 500,
      "v": 59
    },
    {
      "midi": 71,
      "hit": false,
      "t": 153750,
      "d": 250,
      "v": 52
    },
    {
      "midi": 72,
      "hit": false,
      "t": 154000,
      "d": 234.375,
      "v": 51
    },
    {
      "midi": 60,
      "hit": false,
      "t": 154000,
      "d": 1000,
      "v": 51
    },
    {
      "midi": 64,
      "hit": false,
      "t": 154000,
      "d": 1000,
      "v": 51
    },
    {
      "midi": 79,
      "hit": false,
      "t": 154250,
      "d": 250,
      "v": 56
    },
    {
      "midi": 67,
      "hit": false,
      "t": 154500,
      "d": 250,
      "v": 37
    },
    {
      "midi": 79,
      "hit": false,
      "t": 154750,
      "d": 250,
      "v": 62
    },
    {
      "midi": 69,
      "hit": false,
      "t": 155000,
      "d": 250,
      "v": 40
    },
    {
      "midi": 79,
      "hit": false,
      "t": 155250,
      "d": 250,
      "v": 58
    },
    {
      "midi": 71,
      "hit": false,
      "t": 155500,
      "d": 250,
      "v": 38
    },
    {
      "midi": 65,
      "hit": false,
      "t": 155500,
      "d": 250,
      "v": 42
    },
    {
      "midi": 67,
      "hit": false,
      "t": 155500,
      "d": 250,
      "v": 42
    },
    {
      "midi": 79,
      "hit": false,
      "t": 155750,
      "d": 250,
      "v": 58
    },
    {
      "midi": 72,
      "hit": false,
      "t": 156000,
      "d": 250,
      "v": 42
    },
    {
      "midi": 64,
      "hit": false,
      "t": 156000,
      "d": 250,
      "v": 50
    },
    {
      "midi": 67,
      "hit": false,
      "t": 156000,
      "d": 250,
      "v": 50
    },
    {
      "midi": 79,
      "hit": false,
      "t": 156250,
      "d": 250,
      "v": 58
    },
    {
      "midi": 74,
      "hit": false,
      "t": 156500,
      "d": 250,
      "v": 41
    },
    {
      "midi": 62,
      "hit": false,
      "t": 156500,
      "d": 250,
      "v": 51
    },
    {
      "midi": 65,
      "hit": false,
      "t": 156500,
      "d": 250,
      "v": 51
    },
    {
      "midi": 67,
      "hit": false,
      "t": 156500,
      "d": 250,
      "v": 51
    },
    {
      "midi": 79,
      "hit": false,
      "t": 156750,
      "d": 250,
      "v": 54
    },
    {
      "midi": 76,
      "hit": false,
      "t": 157000,
      "d": 250,
      "v": 45
    },
    {
      "midi": 60,
      "hit": false,
      "t": 157000,
      "d": 1000,
      "v": 46
    },
    {
      "midi": 64,
      "hit": false,
      "t": 157000,
      "d": 1000,
      "v": 46
    },
    {
      "midi": 67,
      "hit": false,
      "t": 157000,
      "d": 1000,
      "v": 46
    },
    {
      "midi": 79,
      "hit": false,
      "t": 157250,
      "d": 250,
      "v": 56
    },
    {
      "midi": 84,
      "hit": false,
      "t": 157500,
      "d": 250,
      "v": 57
    },
    {
      "midi": 83,
      "hit": false,
      "t": 157750,
      "d": 250,
      "v": 48
    },
    {
      "midi": 81,
      "hit": false,
      "t": 158000,
      "d": 250,
      "v": 43
    },
    {
      "midi": 53,
      "hit": false,
      "t": 158000,
      "d": 1000,
      "v": 45
    },
    {
      "midi": 57,
      "hit": false,
      "t": 158000,
      "d": 1000,
      "v": 45
    },
    {
      "midi": 79,
      "hit": false,
      "t": 158250,
      "d": 250,
      "v": 42
    },
    {
      "midi": 77,
      "hit": false,
      "t": 158500,
      "d": 250,
      "v": 45
    },
    {
      "midi": 76,
      "hit": false,
      "t": 158750,
      "d": 250,
      "v": 42
    },
    {
      "midi": 74,
      "hit": false,
      "t": 159000,
      "d": 250,
      "v": 45
    },
    {
      "midi": 55,
      "hit": false,
      "t": 159000,
      "d": 1000,
      "v": 48
    },
    {
      "midi": 59,
      "hit": false,
      "t": 159000,
      "d": 1000,
      "v": 48
    },
    {
      "midi": 79,
      "hit": false,
      "t": 159250,
      "d": 250,
      "v": 55
    },
    {
      "midi": 77,
      "hit": false,
      "t": 159500,
      "d": 250,
      "v": 48
    },
    {
      "midi": 74,
      "hit": false,
      "t": 159750,
      "d": 234.375,
      "v": 47
    },
    {
      "midi": 72,
      "hit": false,
      "t": 160000,
      "d": 250,
      "v": 41
    },
    {
      "midi": 60,
      "hit": false,
      "t": 160000,
      "d": 1000,
      "v": 55
    },
    {
      "midi": 64,
      "hit": false,
      "t": 160000,
      "d": 1000,
      "v": 55
    },
    {
      "midi": 79,
      "hit": false,
      "t": 160250,
      "d": 250,
      "v": 55
    },
    {
      "midi": 67,
      "hit": false,
      "t": 160500,
      "d": 250,
      "v": 36
    },
    {
      "midi": 79,
      "hit": false,
      "t": 160750,
      "d": 250,
      "v": 61
    },
    {
      "midi": 69,
      "hit": false,
      "t": 161000,
      "d": 250,
      "v": 40
    },
    {
      "midi": 79,
      "hit": false,
      "t": 161250,
      "d": 250,
      "v": 55
    },
    {
      "midi": 71,
      "hit": false,
      "t": 161500,
      "d": 250,
      "v": 45
    },
    {
      "midi": 65,
      "hit": false,
      "t": 161500,
      "d": 250,
      "v": 44
    },
    {
      "midi": 67,
      "hit": false,
      "t": 161500,
      "d": 250,
      "v": 44
    },
    {
      "midi": 79,
      "hit": false,
      "t": 161750,
      "d": 250,
      "v": 56
    },
    {
      "midi": 72,
      "hit": false,
      "t": 162000,
      "d": 250,
      "v": 42
    },
    {
      "midi": 64,
      "hit": false,
      "t": 162000,
      "d": 250,
      "v": 48
    },
    {
      "midi": 67,
      "hit": false,
      "t": 162000,
      "d": 250,
      "v": 48
    },
    {
      "midi": 79,
      "hit": false,
      "t": 162250,
      "d": 250,
      "v": 57
    },
    {
      "midi": 74,
      "hit": false,
      "t": 162500,
      "d": 250,
      "v": 42
    },
    {
      "midi": 62,
      "hit": false,
      "t": 162500,
      "d": 250,
      "v": 49
    },
    {
      "midi": 65,
      "hit": false,
      "t": 162500,
      "d": 250,
      "v": 49
    },
    {
      "midi": 67,
      "hit": false,
      "t": 162500,
      "d": 250,
      "v": 49
    },
    {
      "midi": 79,
      "hit": false,
      "t": 162750,
      "d": 250,
      "v": 49
    },
    {
      "midi": 76,
      "hit": false,
      "t": 163000,
      "d": 250,
      "v": 41
    },
    {
      "midi": 60,
      "hit": false,
      "t": 163000,
      "d": 1000,
      "v": 48
    },
    {
      "midi": 64,
      "hit": false,
      "t": 163000,
      "d": 1000,
      "v": 48
    },
    {
      "midi": 67,
      "hit": false,
      "t": 163000,
      "d": 1000,
      "v": 48
    },
    {
      "midi": 79,
      "hit": false,
      "t": 163250,
      "d": 250,
      "v": 51
    },
    {
      "midi": 84,
      "hit": false,
      "t": 163500,
      "d": 250,
      "v": 61
    },
    {
      "midi": 83,
      "hit": false,
      "t": 163750,
      "d": 250,
      "v": 43
    },
    {
      "midi": 81,
      "hit": false,
      "t": 164000,
      "d": 250,
      "v": 49
    },
    {
      "midi": 53,
      "hit": false,
      "t": 164000,
      "d": 1000,
      "v": 42
    },
    {
      "midi": 57,
      "hit": false,
      "t": 164000,
      "d": 1000,
      "v": 42
    },
    {
      "midi": 79,
      "hit": false,
      "t": 164250,
      "d": 250,
      "v": 45
    },
    {
      "midi": 77,
      "hit": false,
      "t": 164500,
      "d": 250,
      "v": 41
    },
    {
      "midi": 76,
      "hit": false,
      "t": 164750,
      "d": 250,
      "v": 49
    },
    {
      "midi": 74,
      "hit": false,
      "t": 165000,
      "d": 250,
      "v": 46
    },
    {
      "midi": 55,
      "hit": false,
      "t": 165000,
      "d": 1000,
      "v": 49
    },
    {
      "midi": 59,
      "hit": false,
      "t": 165000,
      "d": 1000,
      "v": 49
    },
    {
      "midi": 79,
      "hit": false,
      "t": 165250,
      "d": 250,
      "v": 56
    },
    {
      "midi": 77,
      "hit": false,
      "t": 165500,
      "d": 250,
      "v": 46
    },
    {
      "midi": 74,
      "hit": false,
      "t": 165750,
      "d": 234.375,
      "v": 43
    },
    {
      "midi": 76,
      "hit": false,
      "t": 166000,
      "d": 250,
      "v": 51
    },
    {
      "midi": 56,
      "hit": false,
      "t": 166000,
      "d": 1000,
      "v": 49
    },
    {
      "midi": 59,
      "hit": false,
      "t": 166000,
      "d": 1000,
      "v": 49
    },
    {
      "midi": 77,
      "hit": false,
      "t": 166250,
      "d": 250,
      "v": 53
    },
    {
      "midi": 76,
      "hit": false,
      "t": 166500,
      "d": 250,
      "v": 48
    },
    {
      "midi": 75,
      "hit": false,
      "t": 166750,
      "d": 250,
      "v": 44
    },
    {
      "midi": 76,
      "hit": false,
      "t": 167000,
      "d": 250,
      "v": 46
    },
    {
      "midi": 71,
      "hit": false,
      "t": 167250,
      "d": 250,
      "v": 42
    },
    {
      "midi": 76,
      "hit": false,
      "t": 167500,
      "d": 250,
      "v": 52
    },
    {
      "midi": 75,
      "hit": false,
      "t": 167750,
      "d": 250,
      "v": 46
    },
    {
      "midi": 76,
      "hit": false,
      "t": 168000,
      "d": 250,
      "v": 51
    },
    {
      "midi": 71,
      "hit": false,
      "t": 168250,
      "d": 250,
      "v": 44
    },
    {
      "midi": 76,
      "hit": false,
      "t": 168500,
      "d": 250,
      "v": 49
    },
    {
      "midi": 75,
      "hit": false,
      "t": 168750,
      "d": 250,
      "v": 48
    },
    {
      "midi": 76,
      "hit": false,
      "t": 169000,
      "d": 1421.875,
      "v": 52
    },
    {
      "midi": 71,
      "hit": false,
      "t": 170500,
      "d": 507.8125,
      "v": 36
    },
    {
      "midi": 76,
      "hit": false,
      "t": 171000,
      "d": 507.8125,
      "v": 38
    },
    {
      "midi": 75,
      "hit": false,
      "t": 171500,
      "d": 507.8125,
      "v": 43
    },
    {
      "midi": 76,
      "hit": false,
      "t": 172000,
      "d": 1421.875,
      "v": 45
    },
    {
      "midi": 71,
      "hit": false,
      "t": 173500,
      "d": 500,
      "v": 44
    },
    {
      "midi": 76,
      "hit": false,
      "t": 174000,
      "d": 750,
      "v": 52
    },
    {
      "midi": 75,
      "hit": false,
      "t": 174750,
      "d": 507.8125,
      "v": 42
    },
    {
      "midi": 76,
      "hit": false,
      "t": 175250,
      "d": 468.75,
      "v": 43
    },
    {
      "midi": 75,
      "hit": false,
      "t": 175750,
      "d": 507.8125,
      "v": 39
    },
    {
      "midi": 76,
      "hit": false,
      "t": 176250,
      "d": 468.75,
      "v": 37
    },
    {
      "midi": 75,
      "hit": false,
      "t": 176750,
      "d": 507.8125,
      "v": 43
    },
    {
      "midi": 76,
      "hit": false,
      "t": 177250,
      "d": 468.75,
      "v": 44
    },
    {
      "midi": 75,
      "hit": false,
      "t": 177750,
      "d": 507.8125,
      "v": 37
    },
    {
      "midi": 76,
      "hit": false,
      "t": 178250,
      "d": 507.8125,
      "v": 36
    },
    {
      "midi": 75,
      "hit": false,
      "t": 178750,
      "d": 507.8125,
      "v": 40
    },
    {
      "midi": 76,
      "hit": false,
      "t": 179250,
      "d": 507.8125,
      "v": 41
    },
    {
      "midi": 71,
      "hit": false,
      "t": 179750,
      "d": 507.8125,
      "v": 36
    },
    {
      "midi": 74,
      "hit": false,
      "t": 180250,
      "d": 507.8125,
      "v": 37
    },
    {
      "midi": 72,
      "hit": false,
      "t": 180750,
      "d": 507.8125,
      "v": 45
    },
    {
      "midi": 45,
      "hit": false,
      "t": 181250,
      "d": 507.8125,
      "v": 41
    },
    {
      "midi": 69,
      "hit": false,
      "t": 181250,
      "d": 945.3125,
      "v": 41
    },
    {
      "midi": 52,
      "hit": false,
      "t": 181750,
      "d": 507.8125,
      "v": 46
    },
    {
      "midi": 57,
      "hit": false,
      "t": 182250,
      "d": 468.75,
      "v": 47
    },
    {
      "midi": 60,
      "hit": false,
      "t": 182750,
      "d": 507.8125,
      "v": 46
    },
    {
      "midi": 64,
      "hit": false,
      "t": 183250,
      "d": 507.8125,
      "v": 50
    },
    {
      "midi": 69,
      "hit": false,
      "t": 183750,
      "d": 507.8125,
      "v": 52
    },
    {
      "midi": 40,
      "hit": false,
      "t": 184250,
      "d": 507.8125,
      "v": 43
    },
    {
      "midi": 71,
      "hit": false,
      "t": 184250,
      "d": 945.3125,
      "v": 55
    },
    {
      "midi": 52,
      "hit": false,
      "t": 184750,
      "d": 507.8125,
      "v": 47
    },
    {
      "midi": 56,
      "hit": false,
      "t": 185250,
      "d": 468.75,
      "v": 43
    },
    {
      "midi": 64,
      "hit": false,
      "t": 185750,
      "d": 507.8125,
      "v": 44
    },
    {
      "midi": 68,
      "hit": false,
      "t": 186250,
      "d": 507.8125,
      "v": 47
    },
    {
      "midi": 71,
      "hit": false,
      "t": 186750,
      "d": 507.8125,
      "v": 42
    },
    {
      "midi": 45,
      "hit": false,
      "t": 187250,
      "d": 507.8125,
      "v": 36
    },
    {
      "midi": 72,
      "hit": false,
      "t": 187250,
      "d": 945.3125,
      "v": 44
    },
    {
      "midi": 52,
      "hit": false,
      "t": 187750,
      "d": 507.8125,
      "v": 35
    },
    {
      "midi": 57,
      "hit": false,
      "t": 188250,
      "d": 468.75,
      "v": 47
    },
    {
      "midi": 64,
      "hit": false,
      "t": 188750,
      "d": 507.8125,
      "v": 37
    },
    {
      "midi": 76,
      "hit": false,
      "t": 189250,
      "d": 507.8125,
      "v": 48
    },
    {
      "midi": 75,
      "hit": false,
      "t": 189750,
      "d": 507.8125,
      "v": 41
    },
    {
      "midi": 76,
      "hit": false,
      "t": 190250,
      "d": 507.8125,
      "v": 41
    },
    {
      "midi": 75,
      "hit": false,
      "t": 190750,
      "d": 507.8125,
      "v": 45
    },
    {
      "midi": 76,
      "hit": false,
      "t": 191250,
      "d": 507.8125,
      "v": 49
    },
    {
      "midi": 71,
      "hit": false,
      "t": 191750,
      "d": 507.8125,
      "v": 39
    },
    {
      "midi": 74,
      "hit": false,
      "t": 192250,
      "d": 507.8125,
      "v": 40
    },
    {
      "midi": 72,
      "hit": false,
      "t": 192750,
      "d": 507.8125,
      "v": 43
    },
    {
      "midi": 45,
      "hit": false,
      "t": 193250,
      "d": 507.8125,
      "v": 34
    },
    {
      "midi": 69,
      "hit": false,
      "t": 193250,
      "d": 945.3125,
      "v": 40
    },
    {
      "midi": 52,
      "hit": false,
      "t": 193750,
      "d": 507.8125,
      "v": 37
    },
    {
      "midi": 57,
      "hit": false,
      "t": 194250,
      "d": 468.75,
      "v": 43
    },
    {
      "midi": 60,
      "hit": false,
      "t": 194750,
      "d": 507.8125,
      "v": 41
    },
    {
      "midi": 64,
      "hit": false,
      "t": 195250,
      "d": 507.8125,
      "v": 46
    },
    {
      "midi": 69,
      "hit": false,
      "t": 195750,
      "d": 507.8125,
      "v": 51
    },
    {
      "midi": 40,
      "hit": false,
      "t": 196250,
      "d": 507.8125,
      "v": 42
    },
    {
      "midi": 71,
      "hit": false,
      "t": 196250,
      "d": 945.3125,
      "v": 58
    },
    {
      "midi": 52,
      "hit": false,
      "t": 196750,
      "d": 507.8125,
      "v": 51
    },
    {
      "midi": 56,
      "hit": false,
      "t": 197250,
      "d": 468.75,
      "v": 49
    },
    {
      "midi": 62,
      "hit": false,
      "t": 197750,
      "d": 507.8125,
      "v": 38
    },
    {
      "midi": 72,
      "hit": false,
      "t": 198250,
      "d": 507.8125,
      "v": 41
    },
    {
      "midi": 71,
      "hit": false,
      "t": 198750,
      "d": 507.8125,
      "v": 44
    },
    {
      "midi": 45,
      "hit": false,
      "t": 199250,
      "d": 507.8125,
      "v": 38
    },
    {
      "midi": 69,
      "hit": false,
      "t": 199250,
      "d": 945.3125,
      "v": 37
    },
    {
      "midi": 52,
      "hit": false,
      "t": 199750,
      "d": 507.8125,
      "v": 41
    },
    {
      "midi": 57,
      "hit": false,
      "t": 200250,
      "d": 468.75,
      "v": 44
    },
    {
      "midi": 71,
      "hit": false,
      "t": 200750,
      "d": 507.8125,
      "v": 38
    },
    {
      "midi": 72,
      "hit": false,
      "t": 201250,
      "d": 507.8125,
      "v": 63
    },
    {
      "midi": 74,
      "hit": false,
      "t": 201750,
      "d": 507.8125,
      "v": 84
    },
    {
      "midi": 48,
      "hit": false,
      "t": 202250,
      "d": 507.8125,
      "v": 75
    },
    {
      "midi": 76,
      "hit": false,
      "t": 202250,
      "d": 1421.875,
      "v": 87
    },
    {
      "midi": 55,
      "hit": false,
      "t": 202750,
      "d": 507.8125,
      "v": 85
    },
    {
      "midi": 60,
      "hit": false,
      "t": 203250,
      "d": 468.75,
      "v": 98
    },
    {
      "midi": 67,
      "hit": false,
      "t": 203750,
      "d": 507.8125,
      "v": 65
    },
    {
      "midi": 77,
      "hit": false,
      "t": 204250,
      "d": 507.8125,
      "v": 79
    },
    {
      "midi": 76,
      "hit": false,
      "t": 204750,
      "d": 507.8125,
      "v": 82
    },
    {
      "midi": 43,
      "hit": false,
      "t": 205250,
      "d": 507.8125,
      "v": 76
    },
    {
      "midi": 74,
      "hit": false,
      "t": 205250,
      "d": 1421.875,
      "v": 79
    },
    {
      "midi": 55,
      "hit": false,
      "t": 205750,
      "d": 507.8125,
      "v": 85
    },
    {
      "midi": 59,
      "hit": false,
      "t": 206250,
      "d": 468.75,
      "v": 91
    },
    {
      "midi": 65,
      "hit": false,
      "t": 206750,
      "d": 507.8125,
      "v": 60
    },
    {
      "midi": 76,
      "hit": false,
      "t": 207250,
      "d": 507.8125,
      "v": 69
    },
    {
      "midi": 74,
      "hit": false,
      "t": 207750,
      "d": 507.8125,
      "v": 77
    },
    {
      "midi": 45,
      "hit": false,
      "t": 208250,
      "d": 507.8125,
      "v": 63
    },
    {
      "midi": 72,
      "hit": false,
      "t": 208250,
      "d": 1421.875,
      "v": 71
    },
    {
      "midi": 52,
      "hit": false,
      "t": 208750,
      "d": 507.8125,
      "v": 69
    },
    {
      "midi": 57,
      "hit": false,
      "t": 209250,
      "d": 468.75,
      "v": 80
    },
    {
      "midi": 64,
      "hit": false,
      "t": 209750,
      "d": 507.8125,
      "v": 56
    },
    {
      "midi": 74,
      "hit": false,
      "t": 210250,
      "d": 507.8125,
      "v": 72
    },
    {
      "midi": 72,
      "hit": false,
      "t": 210750,
      "d": 507.8125,
      "v": 71
    },
    {
      "midi": 40,
      "hit": false,
      "t": 211250,
      "d": 250,
      "v": 48
    },
    {
      "midi": 71,
      "hit": false,
      "t": 211250,
      "d": 945.3125,
      "v": 60
    },
    {
      "midi": 52,
      "hit": false,
      "t": 211750,
      "d": 507.8125,
      "v": 60
    },
    {
      "midi": 64,
      "hit": false,
      "t": 212250,
      "d": 468.75,
      "v": 79
    },
    {
      "midi": 64,
      "hit": false,
      "t": 212750,
      "d": 507.8125,
      "v": 52
    },
    {
      "midi": 76,
      "hit": false,
      "t": 213250,
      "d": 468.75,
      "v": 66
    },
    {
      "midi": 64,
      "hit": false,
      "t": 213750,
      "d": 507.8125,
      "v": 49
    },
    {
      "midi": 76,
      "hit": false,
      "t": 214250,
      "d": 468.75,
      "v": 67
    },
    {
      "midi": 76,
      "hit": false,
      "t": 214750,
      "d": 507.8125,
      "v": 49
    },
    {
      "midi": 88,
      "hit": false,
      "t": 215250,
      "d": 468.75,
      "v": 60
    },
    {
      "midi": 75,
      "hit": false,
      "t": 215750,
      "d": 507.8125,
      "v": 49
    },
    {
      "midi": 76,
      "hit": false,
      "t": 216250,
      "d": 468.75,
      "v": 51
    },
    {
      "midi": 75,
      "hit": false,
      "t": 216750,
      "d": 507.8125,
      "v": 48
    },
    {
      "midi": 76,
      "hit": false,
      "t": 217250,
      "d": 468.75,
      "v": 46
    },
    {
      "midi": 75,
      "hit": false,
      "t": 217750,
      "d": 507.8125,
      "v": 42
    },
    {
      "midi": 76,
      "hit": false,
      "t": 218250,
      "d": 468.75,
      "v": 47
    },
    {
      "midi": 75,
      "hit": false,
      "t": 218750,
      "d": 507.8125,
      "v": 39
    },
    {
      "midi": 76,
      "hit": false,
      "t": 219250,
      "d": 507.8125,
      "v": 39
    },
    {
      "midi": 75,
      "hit": false,
      "t": 219750,
      "d": 507.8125,
      "v": 40
    },
    {
      "midi": 76,
      "hit": false,
      "t": 220250,
      "d": 507.8125,
      "v": 42
    },
    {
      "midi": 75,
      "hit": false,
      "t": 220750,
      "d": 507.8125,
      "v": 40
    },
    {
      "midi": 76,
      "hit": false,
      "t": 221250,
      "d": 507.8125,
      "v": 40
    },
    {
      "midi": 71,
      "hit": false,
      "t": 221750,
      "d": 507.8125,
      "v": 37
    },
    {
      "midi": 74,
      "hit": false,
      "t": 222250,
      "d": 507.8125,
      "v": 37
    },
    {
      "midi": 72,
      "hit": false,
      "t": 222750,
      "d": 507.8125,
      "v": 42
    },
    {
      "midi": 45,
      "hit": false,
      "t": 223250,
      "d": 507.8125,
      "v": 37
    },
    {
      "midi": 69,
      "hit": false,
      "t": 223250,
      "d": 945.3125,
      "v": 43
    },
    {
      "midi": 52,
      "hit": false,
      "t": 223750,
      "d": 507.8125,
      "v": 41
    },
    {
      "midi": 57,
      "hit": false,
      "t": 224250,
      "d": 468.75,
      "v": 45
    },
    {
      "midi": 60,
      "hit": false,
      "t": 224750,
      "d": 507.8125,
      "v": 39
    },
    {
      "midi": 64,
      "hit": false,
      "t": 225250,
      "d": 507.8125,
      "v": 40
    },
    {
      "midi": 69,
      "hit": false,
      "t": 225750,
      "d": 507.8125,
      "v": 50
    },
    {
      "midi": 40,
      "hit": false,
      "t": 226250,
      "d": 507.8125,
      "v": 39
    },
    {
      "midi": 71,
      "hit": false,
      "t": 226250,
      "d": 945.3125,
      "v": 52
    },
    {
      "midi": 52,
      "hit": false,
      "t": 226750,
      "d": 507.8125,
      "v": 43
    },
    {
      "midi": 56,
      "hit": false,
      "t": 227250,
      "d": 468.75,
      "v": 46
    },
    {
      "midi": 64,
      "hit": false,
      "t": 227750,
      "d": 507.8125,
      "v": 41
    },
    {
      "midi": 68,
      "hit": false,
      "t": 228250,
      "d": 507.8125,
      "v": 42
    },
    {
      "midi": 71,
      "hit": false,
      "t": 228750,
      "d": 507.8125,
      "v": 48
    },
    {
      "midi": 45,
      "hit": false,
      "t": 229250,
      "d": 507.8125,
      "v": 38
    },
    {
      "midi": 72,
      "hit": false,
      "t": 229250,
      "d": 945.3125,
      "v": 52
    },
    {
      "midi": 52,
      "hit": false,
      "t": 229750,
      "d": 507.8125,
      "v": 44
    },
    {
      "midi": 57,
      "hit": false,
      "t": 230250,
      "d": 468.75,
      "v": 44
    },
    {
      "midi": 64,
      "hit": false,
      "t": 230750,
      "d": 507.8125,
      "v": 41
    },
    {
      "midi": 76,
      "hit": false,
      "t": 231250,
      "d": 507.8125,
      "v": 51
    },
    {
      "midi": 75,
      "hit": false,
      "t": 231750,
      "d": 507.8125,
      "v": 41
    },
    {
      "midi": 76,
      "hit": false,
      "t": 232250,
      "d": 507.8125,
      "v": 43
    },
    {
      "midi": 75,
      "hit": false,
      "t": 232750,
      "d": 507.8125,
      "v": 45
    },
    {
      "midi": 76,
      "hit": false,
      "t": 233250,
      "d": 507.8125,
      "v": 51
    },
    {
      "midi": 71,
      "hit": false,
      "t": 233750,
      "d": 507.8125,
      "v": 39
    },
    {
      "midi": 74,
      "hit": false,
      "t": 234250,
      "d": 507.8125,
      "v": 44
    },
    {
      "midi": 72,
      "hit": false,
      "t": 234750,
      "d": 507.8125,
      "v": 41
    },
    {
      "midi": 45,
      "hit": false,
      "t": 235250,
      "d": 507.8125,
      "v": 34
    },
    {
      "midi": 69,
      "hit": false,
      "t": 235250,
      "d": 945.3125,
      "v": 38
    },
    {
      "midi": 52,
      "hit": false,
      "t": 235750,
      "d": 507.8125,
      "v": 36
    },
    {
      "midi": 57,
      "hit": false,
      "t": 236250,
      "d": 468.75,
      "v": 45
    },
    {
      "midi": 60,
      "hit": false,
      "t": 236750,
      "d": 507.8125,
      "v": 37
    },
    {
      "midi": 64,
      "hit": false,
      "t": 237250,
      "d": 507.8125,
      "v": 45
    },
    {
      "midi": 69,
      "hit": false,
      "t": 237750,
      "d": 507.8125,
      "v": 49
    },
    {
      "midi": 40,
      "hit": false,
      "t": 238250,
      "d": 507.8125,
      "v": 40
    },
    {
      "midi": 71,
      "hit": false,
      "t": 238250,
      "d": 945.3125,
      "v": 48
    },
    {
      "midi": 52,
      "hit": false,
      "t": 238750,
      "d": 507.8125,
      "v": 43
    },
    {
      "midi": 56,
      "hit": false,
      "t": 239250,
      "d": 468.75,
      "v": 44
    },
    {
      "midi": 62,
      "hit": false,
      "t": 239750,
      "d": 507.8125,
      "v": 42
    },
    {
      "midi": 72,
      "hit": false,
      "t": 240250,
      "d": 507.8125,
      "v": 52
    },
    {
      "midi": 71,
      "hit": false,
      "t": 240750,
      "d": 507.8125,
      "v": 43
    },
    {
      "midi": 45,
      "hit": false,
      "t": 241250,
      "d": 250,
      "v": 50
    },
    {
      "midi": 69,
      "hit": false,
      "t": 241250,
      "d": 945.3125,
      "v": 52
    },
    {
      "midi": 45,
      "hit": false,
      "t": 241750,
      "d": 250,
      "v": 54
    },
    {
      "midi": 45,
      "hit": false,
      "t": 242250,
      "d": 250,
      "v": 66
    },
    {
      "midi": 45,
      "hit": false,
      "t": 242750,
      "d": 250,
      "v": 62
    },
    {
      "midi": 45,
      "hit": false,
      "t": 243250,
      "d": 250,
      "v": 63
    },
    {
      "midi": 45,
      "hit": false,
      "t": 243750,
      "d": 250,
      "v": 62
    },
    {
      "midi": 45,
      "hit": false,
      "t": 244250,
      "d": 250,
      "v": 70
    },
    {
      "midi": 64,
      "hit": false,
      "t": 244250,
      "d": 3000,
      "v": 60
    },
    {
      "midi": 67,
      "hit": false,
      "t": 244250,
      "d": 3000,
      "v": 60
    },
    {
      "midi": 70,
      "hit": false,
      "t": 244250,
      "d": 3000,
      "v": 60
    },
    {
      "midi": 73,
      "hit": false,
      "t": 244250,
      "d": 3000,
      "v": 60
    },
    {
      "midi": 45,
      "hit": false,
      "t": 244750,
      "d": 250,
      "v": 73
    },
    {
      "midi": 45,
      "hit": false,
      "t": 245250,
      "d": 250,
      "v": 73
    },
    {
      "midi": 45,
      "hit": false,
      "t": 245750,
      "d": 250,
      "v": 75
    },
    {
      "midi": 45,
      "hit": false,
      "t": 246250,
      "d": 250,
      "v": 68
    },
    {
      "midi": 45,
      "hit": false,
      "t": 246750,
      "d": 250,
      "v": 77
    },
    {
      "midi": 45,
      "hit": false,
      "t": 247250,
      "d": 250,
      "v": 85
    },
    {
      "midi": 65,
      "hit": false,
      "t": 247250,
      "d": 2000,
      "v": 65
    },
    {
      "midi": 69,
      "hit": false,
      "t": 247250,
      "d": 2000,
      "v": 65
    },
    {
      "midi": 74,
      "hit": false,
      "t": 247250,
      "d": 2000,
      "v": 65
    },
    {
      "midi": 45,
      "hit": false,
      "t": 247750,
      "d": 250,
      "v": 75
    },
    {
      "midi": 45,
      "hit": false,
      "t": 248250,
      "d": 250,
      "v": 72
    },
    {
      "midi": 45,
      "hit": false,
      "t": 248750,
      "d": 250,
      "v": 76
    },
    {
      "midi": 45,
      "hit": false,
      "t": 249250,
      "d": 250,
      "v": 76
    },
    {
      "midi": 73,
      "hit": false,
      "t": 249250,
      "d": 500,
      "v": 65
    },
    {
      "midi": 76,
      "hit": false,
      "t": 249250,
      "d": 500,
      "v": 65
    },
    {
      "midi": 45,
      "hit": false,
      "t": 249750,
      "d": 250,
      "v": 74
    },
    {
      "midi": 74,
      "hit": false,
      "t": 249750,
      "d": 500,
      "v": 60
    },
    {
      "midi": 77,
      "hit": false,
      "t": 249750,
      "d": 500,
      "v": 60
    },
    {
      "midi": 45,
      "hit": false,
      "t": 250250,
      "d": 250,
      "v": 71
    },
    {
      "midi": 68,
      "hit": false,
      "t": 250250,
      "d": 2000,
      "v": 83
    },
    {
      "midi": 74,
      "hit": false,
      "t": 250250,
      "d": 2000,
      "v": 83
    },
    {
      "midi": 77,
      "hit": false,
      "t": 250250,
      "d": 2000,
      "v": 83
    },
    {
      "midi": 45,
      "hit": false,
      "t": 250750,
      "d": 250,
      "v": 74
    },
    {
      "midi": 45,
      "hit": false,
      "t": 251250,
      "d": 250,
      "v": 69
    },
    {
      "midi": 45,
      "hit": false,
      "t": 251750,
      "d": 250,
      "v": 71
    },
    {
      "midi": 45,
      "hit": false,
      "t": 252250,
      "d": 250,
      "v": 70
    },
    {
      "midi": 68,
      "hit": false,
      "t": 252250,
      "d": 1000,
      "v": 87
    },
    {
      "midi": 74,
      "hit": false,
      "t": 252250,
      "d": 1000,
      "v": 87
    },
    {
      "midi": 77,
      "hit": false,
      "t": 252250,
      "d": 1000,
      "v": 87
    },
    {
      "midi": 45,
      "hit": false,
      "t": 252750,
      "d": 250,
      "v": 69
    },
    {
      "midi": 45,
      "hit": false,
      "t": 253250,
      "d": 250,
      "v": 70
    },
    {
      "midi": 69,
      "hit": false,
      "t": 253250,
      "d": 3000,
      "v": 78
    },
    {
      "midi": 72,
      "hit": false,
      "t": 253250,
      "d": 3000,
      "v": 78
    },
    {
      "midi": 76,
      "hit": false,
      "t": 253250,
      "d": 3000,
      "v": 78
    },
    {
      "midi": 45,
      "hit": false,
      "t": 253750,
      "d": 250,
      "v": 71
    },
    {
      "midi": 45,
      "hit": false,
      "t": 254250,
      "d": 250,
      "v": 75
    },
    {
      "midi": 45,
      "hit": false,
      "t": 254750,
      "d": 250,
      "v": 73
    },
    {
      "midi": 45,
      "hit": false,
      "t": 255250,
      "d": 250,
      "v": 72
    },
    {
      "midi": 45,
      "hit": false,
      "t": 255750,
      "d": 250,
      "v": 71
    },
    {
      "midi": 38,
      "hit": false,
      "t": 256250,
      "d": 250,
      "v": 66
    },
    {
      "midi": 45,
      "hit": false,
      "t": 256250,
      "d": 250,
      "v": 66
    },
    {
      "midi": 65,
      "hit": false,
      "t": 256250,
      "d": 2039.0625,
      "v": 67
    },
    {
      "midi": 74,
      "hit": false,
      "t": 256250,
      "d": 2039.0625,
      "v": 67
    },
    {
      "midi": 38,
      "hit": false,
      "t": 256750,
      "d": 250,
      "v": 69
    },
    {
      "midi": 45,
      "hit": false,
      "t": 256750,
      "d": 250,
      "v": 69
    },
    {
      "midi": 38,
      "hit": false,
      "t": 257250,
      "d": 250,
      "v": 65
    },
    {
      "midi": 45,
      "hit": false,
      "t": 257250,
      "d": 250,
      "v": 65
    },
    {
      "midi": 38,
      "hit": false,
      "t": 257750,
      "d": 250,
      "v": 64
    },
    {
      "midi": 45,
      "hit": false,
      "t": 257750,
      "d": 250,
      "v": 64
    },
    {
      "midi": 38,
      "hit": false,
      "t": 258250,
      "d": 250,
      "v": 69
    },
    {
      "midi": 45,
      "hit": false,
      "t": 258250,
      "d": 250,
      "v": 69
    },
    {
      "midi": 64,
      "hit": false,
      "t": 258250,
      "d": 507.8125,
      "v": 64
    },
    {
      "midi": 72,
      "hit": false,
      "t": 258250,
      "d": 507.8125,
      "v": 64
    },
    {
      "midi": 38,
      "hit": false,
      "t": 258750,
      "d": 250,
      "v": 67
    },
    {
      "midi": 45,
      "hit": false,
      "t": 258750,
      "d": 250,
      "v": 67
    },
    {
      "midi": 62,
      "hit": false,
      "t": 258750,
      "d": 507.8125,
      "v": 72
    },
    {
      "midi": 71,
      "hit": false,
      "t": 258750,
      "d": 507.8125,
      "v": 72
    },
    {
      "midi": 39,
      "hit": false,
      "t": 259250,
      "d": 250,
      "v": 59
    },
    {
      "midi": 45,
      "hit": false,
      "t": 259250,
      "d": 250,
      "v": 59
    },
    {
      "midi": 60,
      "hit": false,
      "t": 259250,
      "d": 1898.4375,
      "v": 68
    },
    {
      "midi": 66,
      "hit": false,
      "t": 259250,
      "d": 1898.4375,
      "v": 68
    },
    {
      "midi": 69,
      "hit": false,
      "t": 259250,
      "d": 1898.4375,
      "v": 68
    },
    {
      "midi": 39,
      "hit": false,
      "t": 259750,
      "d": 250,
      "v": 62
    },
    {
      "midi": 45,
      "hit": false,
      "t": 259750,
      "d": 250,
      "v": 62
    },
    {
      "midi": 39,
      "hit": false,
      "t": 260250,
      "d": 250,
      "v": 67
    },
    {
      "midi": 45,
      "hit": false,
      "t": 260250,
      "d": 250,
      "v": 67
    },
    {
      "midi": 39,
      "hit": false,
      "t": 260750,
      "d": 250,
      "v": 61
    },
    {
      "midi": 45,
      "hit": false,
      "t": 260750,
      "d": 250,
      "v": 61
    },
    {
      "midi": 39,
      "hit": false,
      "t": 261250,
      "d": 250,
      "v": 63
    },
    {
      "midi": 45,
      "hit": false,
      "t": 261250,
      "d": 250,
      "v": 63
    },
    {
      "midi": 60,
      "hit": false,
      "t": 261250,
      "d": 1000,
      "v": 76
    },
    {
      "midi": 69,
      "hit": false,
      "t": 261250,
      "d": 1000,
      "v": 76
    },
    {
      "midi": 39,
      "hit": false,
      "t": 261750,
      "d": 250,
      "v": 64
    },
    {
      "midi": 45,
      "hit": false,
      "t": 261750,
      "d": 250,
      "v": 64
    },
    {
      "midi": 40,
      "hit": false,
      "t": 262250,
      "d": 250,
      "v": 65
    },
    {
      "midi": 45,
      "hit": false,
      "t": 262250,
      "d": 250,
      "v": 65
    },
    {
      "midi": 60,
      "hit": false,
      "t": 262250,
      "d": 1015.625,
      "v": 75
    },
    {
      "midi": 69,
      "hit": false,
      "t": 262250,
      "d": 1015.625,
      "v": 75
    },
    {
      "midi": 40,
      "hit": false,
      "t": 262750,
      "d": 250,
      "v": 64
    },
    {
      "midi": 45,
      "hit": false,
      "t": 262750,
      "d": 250,
      "v": 64
    },
    {
      "midi": 40,
      "hit": false,
      "t": 263250,
      "d": 250,
      "v": 62
    },
    {
      "midi": 45,
      "hit": false,
      "t": 263250,
      "d": 250,
      "v": 62
    },
    {
      "midi": 64,
      "hit": false,
      "t": 263250,
      "d": 1015.625,
      "v": 80
    },
    {
      "midi": 72,
      "hit": false,
      "t": 263250,
      "d": 1015.625,
      "v": 80
    },
    {
      "midi": 40,
      "hit": false,
      "t": 263750,
      "d": 250,
      "v": 61
    },
    {
      "midi": 45,
      "hit": false,
      "t": 263750,
      "d": 250,
      "v": 61
    },
    {
      "midi": 40,
      "hit": false,
      "t": 264250,
      "d": 250,
      "v": 64
    },
    {
      "midi": 44,
      "hit": false,
      "t": 264250,
      "d": 250,
      "v": 64
    },
    {
      "midi": 62,
      "hit": false,
      "t": 264250,
      "d": 1015.625,
      "v": 72
    },
    {
      "midi": 71,
      "hit": false,
      "t": 264250,
      "d": 1015.625,
      "v": 72
    },
    {
      "midi": 40,
      "hit": false,
      "t": 264750,
      "d": 250,
      "v": 66
    },
    {
      "midi": 44,
      "hit": false,
      "t": 264750,
      "d": 250,
      "v": 66
    },
    {
      "midi": 33,
      "hit": false,
      "t": 265250,
      "d": 250,
      "v": 60
    },
    {
      "midi": 45,
      "hit": false,
      "t": 265250,
      "d": 250,
      "v": 60
    },
    {
      "midi": 60,
      "hit": false,
      "t": 265250,
      "d": 2843.75,
      "v": 53
    },
    {
      "midi": 69,
      "hit": false,
      "t": 265250,
      "d": 2843.75,
      "v": 53
    },
    {
      "midi": 45,
      "hit": false,
      "t": 265750,
      "d": 250,
      "v": 48
    },
    {
      "midi": 45,
      "hit": false,
      "t": 266250,
      "d": 250,
      "v": 55
    },
    {
      "midi": 45,
      "hit": false,
      "t": 266750,
      "d": 250,
      "v": 53
    },
    {
      "midi": 45,
      "hit": false,
      "t": 267250,
      "d": 250,
      "v": 45
    },
    {
      "midi": 45,
      "hit": false,
      "t": 267750,
      "d": 250,
      "v": 49
    },
    {
      "midi": 45,
      "hit": false,
      "t": 268250,
      "d": 250,
      "v": 57
    },
    {
      "midi": 64,
      "hit": false,
      "t": 268250,
      "d": 3000,
      "v": 67
    },
    {
      "midi": 67,
      "hit": false,
      "t": 268250,
      "d": 3000,
      "v": 67
    },
    {
      "midi": 70,
      "hit": false,
      "t": 268250,
      "d": 3000,
      "v": 67
    },
    {
      "midi": 73,
      "hit": false,
      "t": 268250,
      "d": 3000,
      "v": 67
    },
    {
      "midi": 45,
      "hit": false,
      "t": 268750,
      "d": 250,
      "v": 58
    },
    {
      "midi": 45,
      "hit": false,
      "t": 269250,
      "d": 250,
      "v": 58
    },
    {
      "midi": 45,
      "hit": false,
      "t": 269750,
      "d": 250,
      "v": 55
    },
    {
      "midi": 45,
      "hit": false,
      "t": 270250,
      "d": 250,
      "v": 57
    },
    {
      "midi": 45,
      "hit": false,
      "t": 270750,
      "d": 250,
      "v": 59
    },
    {
      "midi": 45,
      "hit": false,
      "t": 271250,
      "d": 250,
      "v": 64
    },
    {
      "midi": 65,
      "hit": false,
      "t": 271250,
      "d": 2000,
      "v": 64
    },
    {
      "midi": 69,
      "hit": false,
      "t": 271250,
      "d": 2000,
      "v": 64
    },
    {
      "midi": 74,
      "hit": false,
      "t": 271250,
      "d": 2000,
      "v": 64
    },
    {
      "midi": 45,
      "hit": false,
      "t": 271750,
      "d": 250,
      "v": 62
    },
    {
      "midi": 45,
      "hit": false,
      "t": 272250,
      "d": 250,
      "v": 57
    },
    {
      "midi": 45,
      "hit": false,
      "t": 272750,
      "d": 250,
      "v": 63
    },
    {
      "midi": 45,
      "hit": false,
      "t": 273250,
      "d": 250,
      "v": 62
    },
    {
      "midi": 73,
      "hit": false,
      "t": 273250,
      "d": 500,
      "v": 68
    },
    {
      "midi": 76,
      "hit": false,
      "t": 273250,
      "d": 500,
      "v": 68
    },
    {
      "midi": 45,
      "hit": false,
      "t": 273750,
      "d": 250,
      "v": 68
    },
    {
      "midi": 74,
      "hit": false,
      "t": 273750,
      "d": 500,
      "v": 62
    },
    {
      "midi": 77,
      "hit": false,
      "t": 273750,
      "d": 500,
      "v": 62
    },
    {
      "midi": 45,
      "hit": false,
      "t": 274250,
      "d": 250,
      "v": 71
    },
    {
      "midi": 74,
      "hit": false,
      "t": 274250,
      "d": 2000,
      "v": 95
    },
    {
      "midi": 77,
      "hit": false,
      "t": 274250,
      "d": 2000,
      "v": 95
    },
    {
      "midi": 45,
      "hit": false,
      "t": 274750,
      "d": 250,
      "v": 71
    },
    {
      "midi": 45,
      "hit": false,
      "t": 275250,
      "d": 250,
      "v": 69
    },
    {
      "midi": 45,
      "hit": false,
      "t": 275750,
      "d": 250,
      "v": 72
    },
    {
      "midi": 45,
      "hit": false,
      "t": 276250,
      "d": 250,
      "v": 68
    },
    {
      "midi": 74,
      "hit": false,
      "t": 276250,
      "d": 1000,
      "v": 100
    },
    {
      "midi": 77,
      "hit": false,
      "t": 276250,
      "d": 1000,
      "v": 100
    },
    {
      "midi": 45,
      "hit": false,
      "t": 276750,
      "d": 250,
      "v": 70
    },
    {
      "midi": 46,
      "hit": false,
      "t": 277250,
      "d": 250,
      "v": 77
    },
    {
      "midi": 74,
      "hit": false,
      "t": 277250,
      "d": 3000,
      "v": 96
    },
    {
      "midi": 77,
      "hit": false,
      "t": 277250,
      "d": 3000,
      "v": 96
    },
    {
      "midi": 46,
      "hit": false,
      "t": 277750,
      "d": 250,
      "v": 69
    },
    {
      "midi": 46,
      "hit": false,
      "t": 278250,
      "d": 250,
      "v": 69
    },
    {
      "midi": 46,
      "hit": false,
      "t": 278750,
      "d": 250,
      "v": 71
    },
    {
      "midi": 46,
      "hit": false,
      "t": 279250,
      "d": 250,
      "v": 72
    },
    {
      "midi": 46,
      "hit": false,
      "t": 279750,
      "d": 250,
      "v": 75
    },
    {
      "midi": 46,
      "hit": false,
      "t": 280250,
      "d": 250,
      "v": 62
    },
    {
      "midi": 67,
      "hit": false,
      "t": 280250,
      "d": 2000,
      "v": 83
    },
    {
      "midi": 75,
      "hit": false,
      "t": 280250,
      "d": 2000,
      "v": 83
    },
    {
      "midi": 46,
      "hit": false,
      "t": 280750,
      "d": 250,
      "v": 67
    },
    {
      "midi": 46,
      "hit": false,
      "t": 281250,
      "d": 250,
      "v": 62
    },
    {
      "midi": 46,
      "hit": false,
      "t": 281750,
      "d": 250,
      "v": 61
    },
    {
      "midi": 46,
      "hit": false,
      "t": 282250,
      "d": 250,
      "v": 65
    },
    {
      "midi": 65,
      "hit": false,
      "t": 282250,
      "d": 500,
      "v": 83
    },
    {
      "midi": 74,
      "hit": false,
      "t": 282250,
      "d": 500,
      "v": 83
    },
    {
      "midi": 46,
      "hit": false,
      "t": 282750,
      "d": 250,
      "v": 63
    },
    {
      "midi": 63,
      "hit": false,
      "t": 282750,
      "d": 500,
      "v": 81
    },
    {
      "midi": 72,
      "hit": false,
      "t": 282750,
      "d": 500,
      "v": 81
    },
    {
      "midi": 46,
      "hit": false,
      "t": 283250,
      "d": 250,
      "v": 53
    },
    {
      "midi": 62,
      "hit": false,
      "t": 283250,
      "d": 2000,
      "v": 74
    },
    {
      "midi": 65,
      "hit": false,
      "t": 283250,
      "d": 2000,
      "v": 74
    },
    {
      "midi": 70,
      "hit": false,
      "t": 283250,
      "d": 2000,
      "v": 74
    },
    {
      "midi": 46,
      "hit": false,
      "t": 283750,
      "d": 250,
      "v": 50
    },
    {
      "midi": 46,
      "hit": false,
      "t": 284250,
      "d": 250,
      "v": 51
    },
    {
      "midi": 46,
      "hit": false,
      "t": 284750,
      "d": 250,
      "v": 51
    },
    {
      "midi": 46,
      "hit": false,
      "t": 285250,
      "d": 250,
      "v": 58
    },
    {
      "midi": 62,
      "hit": false,
      "t": 285250,
      "d": 1000,
      "v": 78
    },
    {
      "midi": 65,
      "hit": false,
      "t": 285250,
      "d": 1000,
      "v": 78
    },
    {
      "midi": 69,
      "hit": false,
      "t": 285250,
      "d": 1000,
      "v": 78
    },
    {
      "midi": 46,
      "hit": false,
      "t": 285750,
      "d": 250,
      "v": 52
    },
    {
      "midi": 47,
      "hit": false,
      "t": 286250,
      "d": 250,
      "v": 55
    },
    {
      "midi": 62,
      "hit": false,
      "t": 286250,
      "d": 2000,
      "v": 73
    },
    {
      "midi": 65,
      "hit": false,
      "t": 286250,
      "d": 2000,
      "v": 73
    },
    {
      "midi": 68,
      "hit": false,
      "t": 286250,
      "d": 2000,
      "v": 73
    },
    {
      "midi": 47,
      "hit": false,
      "t": 286750,
      "d": 250,
      "v": 51
    },
    {
      "midi": 47,
      "hit": false,
      "t": 287250,
      "d": 250,
      "v": 50
    },
    {
      "midi": 47,
      "hit": false,
      "t": 287750,
      "d": 250,
      "v": 52
    },
    {
      "midi": 47,
      "hit": false,
      "t": 288250,
      "d": 250,
      "v": 48
    },
    {
      "midi": 62,
      "hit": false,
      "t": 288250,
      "d": 1000,
      "v": 74
    },
    {
      "midi": 65,
      "hit": false,
      "t": 288250,
      "d": 1000,
      "v": 74
    },
    {
      "midi": 68,
      "hit": false,
      "t": 288250,
      "d": 1000,
      "v": 74
    },
    {
      "midi": 47,
      "hit": false,
      "t": 288750,
      "d": 250,
      "v": 54
    },
    {
      "midi": 60,
      "hit": false,
      "t": 289250,
      "d": 2000,
      "v": 60
    },
    {
      "midi": 64,
      "hit": false,
      "t": 289250,
      "d": 2000,
      "v": 60
    },
    {
      "midi": 69,
      "hit": false,
      "t": 289250,
      "d": 2000,
      "v": 60
    },
    {
      "midi": 48,
      "hit": false,
      "t": 289250,
      "d": 2000,
      "v": 61
    },
    {
      "midi": 62,
      "hit": false,
      "t": 292250,
      "d": 1000,
      "v": 50
    },
    {
      "midi": 64,
      "hit": false,
      "t": 292250,
      "d": 1000,
      "v": 50
    },
    {
      "midi": 71,
      "hit": false,
      "t": 292250,
      "d": 1000,
      "v": 50
    },
    {
      "midi": 52,
      "hit": false,
      "t": 292250,
      "d": 1000,
      "v": 52
    },
    {
      "midi": 56,
      "hit": false,
      "t": 292250,
      "d": 1000,
      "v": 52
    },
    {
      "midi": 57,
      "hit": false,
      "t": 295250,
      "d": 328.125,
      "v": 44
    },
    {
      "midi": 33,
      "hit": false,
      "t": 295250,
      "d": 1000,
      "v": 40
    },
    {
      "midi": 60,
      "hit": false,
      "t": 295578.125,
      "d": 335.9375,
      "v": 47
    },
    {
      "midi": 64,
      "hit": false,
      "t": 295914.0625,
      "d": 335.9375,
      "v": 46
    },
    {
      "midi": 69,
      "hit": false,
      "t": 296250,
      "d": 328.125,
      "v": 52
    },
    {
      "midi": 72,
      "hit": false,
      "t": 296578.125,
      "d": 335.9375,
      "v": 49
    },
    {
      "midi": 76,
      "hit": false,
      "t": 296914.0625,
      "d": 335.9375,
      "v": 50
    },
    {
      "midi": 74,
      "hit": false,
      "t": 297250,
      "d": 328.125,
      "v": 45
    },
    {
      "midi": 57,
      "hit": false,
      "t": 297250,
      "d": 500,
      "v": 42
    },
    {
      "midi": 60,
      "hit": false,
      "t": 297250,
      "d": 500,
      "v": 42
    },
    {
      "midi": 64,
      "hit": false,
      "t": 297250,
      "d": 500,
      "v": 42
    },
    {
      "midi": 72,
      "hit": false,
      "t": 297578.125,
      "d": 335.9375,
      "v": 37
    },
    {
      "midi": 71,
      "hit": false,
      "t": 297914.0625,
      "d": 312.5,
      "v": 38
    },
    {
      "midi": 69,
      "hit": false,
      "t": 298250,
      "d": 328.125,
      "v": 39
    },
    {
      "midi": 57,
      "hit": false,
      "t": 298250,
      "d": 500,
      "v": 37
    },
    {
      "midi": 60,
      "hit": false,
      "t": 298250,
      "d": 500,
      "v": 37
    },
    {
      "midi": 64,
      "hit": false,
      "t": 298250,
      "d": 500,
      "v": 37
    },
    {
      "midi": 72,
      "hit": false,
      "t": 298578.125,
      "d": 335.9375,
      "v": 45
    },
    {
      "midi": 76,
      "hit": false,
      "t": 298914.0625,
      "d": 335.9375,
      "v": 48
    },
    {
      "midi": 81,
      "hit": false,
      "t": 299250,
      "d": 328.125,
      "v": 46
    },
    {
      "midi": 84,
      "hit": false,
      "t": 299578.125,
      "d": 335.9375,
      "v": 44
    },
    {
      "midi": 88,
      "hit": false,
      "t": 299914.0625,
      "d": 335.9375,
      "v": 44
    },
    {
      "midi": 86,
      "hit": false,
      "t": 300250,
      "d": 328.125,
      "v": 43
    },
    {
      "midi": 57,
      "hit": false,
      "t": 300250,
      "d": 500,
      "v": 39
    },
    {
      "midi": 60,
      "hit": false,
      "t": 300250,
      "d": 500,
      "v": 39
    },
    {
      "midi": 64,
      "hit": false,
      "t": 300250,
      "d": 500,
      "v": 39
    },
    {
      "midi": 84,
      "hit": false,
      "t": 300578.125,
      "d": 335.9375,
      "v": 40
    },
    {
      "midi": 83,
      "hit": false,
      "t": 300914.0625,
      "d": 312.5,
      "v": 38
    },
    {
      "midi": 81,
      "hit": false,
      "t": 301250,
      "d": 328.125,
      "v": 32
    },
    {
      "midi": 57,
      "hit": false,
      "t": 301250,
      "d": 500,
      "v": 49
    },
    {
      "midi": 60,
      "hit": false,
      "t": 301250,
      "d": 500,
      "v": 49
    },
    {
      "midi": 64,
      "hit": false,
      "t": 301250,
      "d": 500,
      "v": 49
    },
    {
      "midi": 84,
      "hit": false,
      "t": 301578.125,
      "d": 335.9375,
      "v": 49
    },
    {
      "midi": 88,
      "hit": false,
      "t": 301914.0625,
      "d": 335.9375,
      "v": 50
    },
    {
      "midi": 93,
      "hit": false,
      "t": 302250,
      "d": 328.125,
      "v": 49
    },
    {
      "midi": 96,
      "hit": false,
      "t": 302578.125,
      "d": 335.9375,
      "v": 48
    },
    {
      "midi": 100,
      "hit": false,
      "t": 302914.0625,
      "d": 335.9375,
      "v": 46
    },
    {
      "midi": 98,
      "hit": false,
      "t": 303250,
      "d": 328.125,
      "v": 43
    },
    {
      "midi": 57,
      "hit": false,
      "t": 303250,
      "d": 500,
      "v": 38
    },
    {
      "midi": 60,
      "hit": false,
      "t": 303250,
      "d": 500,
      "v": 38
    },
    {
      "midi": 64,
      "hit": false,
      "t": 303250,
      "d": 500,
      "v": 38
    },
    {
      "midi": 96,
      "hit": false,
      "t": 303578.125,
      "d": 335.9375,
      "v": 39
    },
    {
      "midi": 95,
      "hit": false,
      "t": 303914.0625,
      "d": 335.9375,
      "v": 40
    },
    {
      "midi": 94,
      "hit": false,
      "t": 304250,
      "d": 328.125,
      "v": 36
    },
    {
      "midi": 57,
      "hit": false,
      "t": 304250,
      "d": 500,
      "v": 44
    },
    {
      "midi": 60,
      "hit": false,
      "t": 304250,
      "d": 500,
      "v": 44
    },
    {
      "midi": 64,
      "hit": false,
      "t": 304250,
      "d": 500,
      "v": 44
    },
    {
      "midi": 93,
      "hit": false,
      "t": 304578.125,
      "d": 335.9375,
      "v": 36
    },
    {
      "midi": 92,
      "hit": false,
      "t": 304914.0625,
      "d": 335.9375,
      "v": 41
    },
    {
      "midi": 91,
      "hit": false,
      "t": 305250,
      "d": 328.125,
      "v": 41
    },
    {
      "midi": 90,
      "hit": false,
      "t": 305578.125,
      "d": 335.9375,
      "v": 42
    },
    {
      "midi": 89,
      "hit": false,
      "t": 305914.0625,
      "d": 335.9375,
      "v": 40
    },
    {
      "midi": 88,
      "hit": false,
      "t": 306250,
      "d": 328.125,
      "v": 41
    },
    {
      "midi": 87,
      "hit": false,
      "t": 306578.125,
      "d": 335.9375,
      "v": 44
    },
    {
      "midi": 86,
      "hit": false,
      "t": 306914.0625,
      "d": 335.9375,
      "v": 43
    },
    {
      "midi": 85,
      "hit": false,
      "t": 307250,
      "d": 328.125,
      "v": 53
    },
    {
      "midi": 84,
      "hit": false,
      "t": 307578.125,
      "d": 335.9375,
      "v": 43
    },
    {
      "midi": 83,
      "hit": false,
      "t": 307914.0625,
      "d": 335.9375,
      "v": 40
    },
    {
      "midi": 82,
      "hit": false,
      "t": 308250,
      "d": 328.125,
      "v": 38
    },
    {
      "midi": 81,
      "hit": false,
      "t": 308578.125,
      "d": 335.9375,
      "v": 41
    },
    {
      "midi": 80,
      "hit": false,
      "t": 308914.0625,
      "d": 335.9375,
      "v": 38
    },
    {
      "midi": 79,
      "hit": false,
      "t": 309250,
      "d": 328.125,
      "v": 40
    },
    {
      "midi": 78,
      "hit": false,
      "t": 309578.125,
      "d": 335.9375,
      "v": 42
    },
    {
      "midi": 77,
      "hit": false,
      "t": 309914.0625,
      "d": 335.9375,
      "v": 46
    },
    {
      "midi": 76,
      "hit": false,
      "t": 310250,
      "d": 507.8125,
      "v": 38
    },
    {
      "midi": 75,
      "hit": false,
      "t": 310750,
      "d": 507.8125,
      "v": 38
    },
    {
      "midi": 76,
      "hit": false,
      "t": 311250,
      "d": 507.8125,
      "v": 44
    },
    {
      "midi": 71,
      "hit": false,
      "t": 311750,
      "d": 507.8125,
      "v": 40
    },
    {
      "midi": 74,
      "hit": false,
      "t": 312250,
      "d": 507.8125,
      "v": 48
    },
    {
      "midi": 72,
      "hit": false,
      "t": 312750,
      "d": 507.8125,
      "v": 45
    },
    {
      "midi": 45,
      "hit": false,
      "t": 313250,
      "d": 507.8125,
      "v": 37
    },
    {
      "midi": 69,
      "hit": false,
      "t": 313250,
      "d": 945.3125,
      "v": 41
    },
    {
      "midi": 52,
      "hit": false,
      "t": 313750,
      "d": 507.8125,
      "v": 42
    },
    {
      "midi": 57,
      "hit": false,
      "t": 314250,
      "d": 468.75,
      "v": 45
    },
    {
      "midi": 60,
      "hit": false,
      "t": 314750,
      "d": 507.8125,
      "v": 37
    },
    {
      "midi": 64,
      "hit": false,
      "t": 315250,
      "d": 507.8125,
      "v": 41
    },
    {
      "midi": 69,
      "hit": false,
      "t": 315750,
      "d": 507.8125,
      "v": 50
    },
    {
      "midi": 40,
      "hit": false,
      "t": 316250,
      "d": 507.8125,
      "v": 39
    },
    {
      "midi": 71,
      "hit": false,
      "t": 316250,
      "d": 945.3125,
      "v": 58
    },
    {
      "midi": 52,
      "hit": false,
      "t": 316750,
      "d": 507.8125,
      "v": 47
    },
    {
      "midi": 56,
      "hit": false,
      "t": 317250,
      "d": 468.75,
      "v": 46
    },
    {
      "midi": 64,
      "hit": false,
      "t": 317750,
      "d": 507.8125,
      "v": 38
    },
    {
      "midi": 68,
      "hit": false,
      "t": 318250,
      "d": 507.8125,
      "v": 41
    },
    {
      "midi": 71,
      "hit": false,
      "t": 318750,
      "d": 507.8125,
      "v": 49
    },
    {
      "midi": 45,
      "hit": false,
      "t": 319250,
      "d": 507.8125,
      "v": 39
    },
    {
      "midi": 72,
      "hit": false,
      "t": 319250,
      "d": 945.3125,
      "v": 52
    },
    {
      "midi": 52,
      "hit": false,
      "t": 319750,
      "d": 507.8125,
      "v": 36
    },
    {
      "midi": 57,
      "hit": false,
      "t": 320250,
      "d": 468.75,
      "v": 46
    },
    {
      "midi": 64,
      "hit": false,
      "t": 320750,
      "d": 507.8125,
      "v": 36
    },
    {
      "midi": 76,
      "hit": false,
      "t": 321250,
      "d": 507.8125,
      "v": 46
    },
    {
      "midi": 75,
      "hit": false,
      "t": 321750,
      "d": 507.8125,
      "v": 46
    },
    {
      "midi": 76,
      "hit": false,
      "t": 322250,
      "d": 507.8125,
      "v": 47
    },
    {
      "midi": 75,
      "hit": false,
      "t": 322750,
      "d": 507.8125,
      "v": 41
    },
    {
      "midi": 76,
      "hit": false,
      "t": 323250,
      "d": 507.8125,
      "v": 41
    },
    {
      "midi": 71,
      "hit": false,
      "t": 323750,
      "d": 507.8125,
      "v": 38
    },
    {
      "midi": 74,
      "hit": false,
      "t": 324250,
      "d": 507.8125,
      "v": 40
    },
    {
      "midi": 72,
      "hit": false,
      "t": 324750,
      "d": 507.8125,
      "v": 37
    },
    {
      "midi": 45,
      "hit": false,
      "t": 325250,
      "d": 507.8125,
      "v": 37
    },
    {
      "midi": 69,
      "hit": false,
      "t": 325250,
      "d": 945.3125,
      "v": 36
    },
    {
      "midi": 52,
      "hit": false,
      "t": 325750,
      "d": 507.8125,
      "v": 35
    },
    {
      "midi": 57,
      "hit": false,
      "t": 326250,
      "d": 468.75,
      "v": 46
    },
    {
      "midi": 60,
      "hit": false,
      "t": 326750,
      "d": 507.8125,
      "v": 40
    },
    {
      "midi": 64,
      "hit": false,
      "t": 327250,
      "d": 507.8125,
      "v": 43
    },
    {
      "midi": 69,
      "hit": false,
      "t": 327750,
      "d": 507.8125,
      "v": 49
    },
    {
      "midi": 40,
      "hit": false,
      "t": 328250,
      "d": 507.8125,
      "v": 43
    },
    {
      "midi": 71,
      "hit": false,
      "t": 328250,
      "d": 945.3125,
      "v": 54
    },
    {
      "midi": 52,
      "hit": false,
      "t": 328750,
      "d": 507.8125,
      "v": 48
    },
    {
      "midi": 56,
      "hit": false,
      "t": 329250,
      "d": 468.75,
      "v": 45
    },
    {
      "midi": 62,
      "hit": false,
      "t": 329750,
      "d": 507.8125,
      "v": 36
    },
    {
      "midi": 72,
      "hit": false,
      "t": 330250,
      "d": 507.8125,
      "v": 43
    },
    {
      "midi": 71,
      "hit": false,
      "t": 330750,
      "d": 507.8125,
      "v": 40
    },
    {
      "midi": 45,
      "hit": false,
      "t": 331250,
      "d": 507.8125,
      "v": 40
    },
    {
      "midi": 69,
      "hit": false,
      "t": 331250,
      "d": 945.3125,
      "v": 38
    },
    {
      "midi": 52,
      "hit": false,
      "t": 331750,
      "d": 507.8125,
      "v": 45
    },
    {
      "midi": 57,
      "hit": false,
      "t": 332250,
      "d": 468.75,
      "v": 45
    },
    {
      "midi": 71,
      "hit": false,
      "t": 332750,
      "d": 507.8125,
      "v": 52
    },
    {
      "midi": 72,
      "hit": false,
      "t": 333250,
      "d": 507.8125,
      "v": 82
    },
    {
      "midi": 74,
      "hit": false,
      "t": 333750,
      "d": 507.8125,
      "v": 86
    },
    {
      "midi": 48,
      "hit": false,
      "t": 334250,
      "d": 507.8125,
      "v": 76
    },
    {
      "midi": 76,
      "hit": false,
      "t": 334250,
      "d": 1421.875,
      "v": 86
    },
    {
      "midi": 55,
      "hit": false,
      "t": 334750,
      "d": 507.8125,
      "v": 88
    },
    {
      "midi": 60,
      "hit": false,
      "t": 335250,
      "d": 468.75,
      "v": 94
    },
    {
      "midi": 67,
      "hit": false,
      "t": 335750,
      "d": 507.8125,
      "v": 61
    },
    {
      "midi": 77,
      "hit": false,
      "t": 336250,
      "d": 507.8125,
      "v": 75
    },
    {
      "midi": 76,
      "hit": false,
      "t": 336750,
      "d": 507.8125,
      "v": 85
    },
    {
      "midi": 43,
      "hit": false,
      "t": 337250,
      "d": 507.8125,
      "v": 68
    },
    {
      "midi": 74,
      "hit": false,
      "t": 337250,
      "d": 1421.875,
      "v": 81
    },
    {
      "midi": 55,
      "hit": false,
      "t": 337750,
      "d": 507.8125,
      "v": 83
    },
    {
      "midi": 59,
      "hit": false,
      "t": 338250,
      "d": 468.75,
      "v": 93
    },
    {
      "midi": 65,
      "hit": false,
      "t": 338750,
      "d": 507.8125,
      "v": 64
    },
    {
      "midi": 76,
      "hit": false,
      "t": 339250,
      "d": 507.8125,
      "v": 76
    },
    {
      "midi": 74,
      "hit": false,
      "t": 339750,
      "d": 507.8125,
      "v": 80
    },
    {
      "midi": 45,
      "hit": false,
      "t": 340250,
      "d": 507.8125,
      "v": 67
    },
    {
      "midi": 72,
      "hit": false,
      "t": 340250,
      "d": 1421.875,
      "v": 68
    },
    {
      "midi": 52,
      "hit": false,
      "t": 340750,
      "d": 507.8125,
      "v": 77
    },
    {
      "midi": 57,
      "hit": false,
      "t": 341250,
      "d": 468.75,
      "v": 80
    },
    {
      "midi": 64,
      "hit": false,
      "t": 341750,
      "d": 507.8125,
      "v": 55
    },
    {
      "midi": 74,
      "hit": false,
      "t": 342250,
      "d": 507.8125,
      "v": 70
    },
    {
      "midi": 72,
      "hit": false,
      "t": 342750,
      "d": 507.8125,
      "v": 70
    },
    {
      "midi": 40,
      "hit": false,
      "t": 343250,
      "d": 250,
      "v": 54
    },
    {
      "midi": 71,
      "hit": false,
      "t": 343250,
      "d": 945.3125,
      "v": 51
    },
    {
      "midi": 52,
      "hit": false,
      "t": 343750,
      "d": 507.8125,
      "v": 64
    },
    {
      "midi": 64,
      "hit": false,
      "t": 344250,
      "d": 468.75,
      "v": 82
    },
    {
      "midi": 64,
      "hit": false,
      "t": 344750,
      "d": 507.8125,
      "v": 52
    },
    {
      "midi": 76,
      "hit": false,
      "t": 345250,
      "d": 468.75,
      "v": 66
    },
    {
      "midi": 64,
      "hit": false,
      "t": 345750,
      "d": 507.8125,
      "v": 49
    },
    {
      "midi": 76,
      "hit": false,
      "t": 346250,
      "d": 468.75,
      "v": 60
    },
    {
      "midi": 76,
      "hit": false,
      "t": 346750,
      "d": 507.8125,
      "v": 55
    },
    {
      "midi": 88,
      "hit": false,
      "t": 347250,
      "d": 468.75,
      "v": 64
    },
    {
      "midi": 75,
      "hit": false,
      "t": 347750,
      "d": 507.8125,
      "v": 52
    },
    {
      "midi": 76,
      "hit": false,
      "t": 348250,
      "d": 468.75,
      "v": 55
    },
    {
      "midi": 75,
      "hit": false,
      "t": 348750,
      "d": 507.8125,
      "v": 44
    },
    {
      "midi": 76,
      "hit": false,
      "t": 349250,
      "d": 468.75,
      "v": 43
    },
    {
      "midi": 75,
      "hit": false,
      "t": 349750,
      "d": 507.8125,
      "v": 42
    },
    {
      "midi": 76,
      "hit": false,
      "t": 350250,
      "d": 468.75,
      "v": 50
    },
    {
      "midi": 75,
      "hit": false,
      "t": 350750,
      "d": 507.8125,
      "v": 38
    },
    {
      "midi": 76,
      "hit": false,
      "t": 351250,
      "d": 507.8125,
      "v": 42
    },
    {
      "midi": 75,
      "hit": false,
      "t": 351750,
      "d": 507.8125,
      "v": 45
    },
    {
      "midi": 76,
      "hit": false,
      "t": 352250,
      "d": 507.8125,
      "v": 51
    },
    {
      "midi": 75,
      "hit": false,
      "t": 352750,
      "d": 507.8125,
      "v": 45
    },
    {
      "midi": 76,
      "hit": false,
      "t": 353250,
      "d": 507.8125,
      "v": 52
    },
    {
      "midi": 71,
      "hit": false,
      "t": 353750,
      "d": 507.8125,
      "v": 37
    },
    {
      "midi": 74,
      "hit": false,
      "t": 354250,
      "d": 507.8125,
      "v": 38
    },
    {
      "midi": 72,
      "hit": false,
      "t": 354750,
      "d": 507.8125,
      "v": 41
    },
    {
      "midi": 45,
      "hit": false,
      "t": 355250,
      "d": 507.8125,
      "v": 36
    },
    {
      "midi": 69,
      "hit": false,
      "t": 355250,
      "d": 945.3125,
      "v": 36
    },
    {
      "midi": 52,
      "hit": false,
      "t": 355750,
      "d": 507.8125,
      "v": 39
    },
    {
      "midi": 57,
      "hit": false,
      "t": 356250,
      "d": 468.75,
      "v": 46
    },
    {
      "midi": 60,
      "hit": false,
      "t": 356750,
      "d": 507.8125,
      "v": 37
    },
    {
      "midi": 64,
      "hit": false,
      "t": 357250,
      "d": 507.8125,
      "v": 40
    },
    {
      "midi": 69,
      "hit": false,
      "t": 357750,
      "d": 507.8125,
      "v": 48
    },
    {
      "midi": 40,
      "hit": false,
      "t": 358250,
      "d": 507.8125,
      "v": 37
    },
    {
      "midi": 71,
      "hit": false,
      "t": 358250,
      "d": 945.3125,
      "v": 50
    },
    {
      "midi": 52,
      "hit": false,
      "t": 358750,
      "d": 507.8125,
      "v": 38
    },
    {
      "midi": 56,
      "hit": false,
      "t": 359250,
      "d": 468.75,
      "v": 47
    },
    {
      "midi": 64,
      "hit": false,
      "t": 359750,
      "d": 507.8125,
      "v": 39
    },
    {
      "midi": 68,
      "hit": false,
      "t": 360250,
      "d": 507.8125,
      "v": 43
    },
    {
      "midi": 71,
      "hit": false,
      "t": 360750,
      "d": 507.8125,
      "v": 48
    },
    {
      "midi": 45,
      "hit": false,
      "t": 361250,
      "d": 507.8125,
      "v": 44
    },
    {
      "midi": 72,
      "hit": false,
      "t": 361250,
      "d": 945.3125,
      "v": 49
    },
    {
      "midi": 52,
      "hit": false,
      "t": 361750,
      "d": 507.8125,
      "v": 50
    },
    {
      "midi": 57,
      "hit": false,
      "t": 362250,
      "d": 468.75,
      "v": 43
    },
    {
      "midi": 64,
      "hit": false,
      "t": 362750,
      "d": 507.8125,
      "v": 39
    },
    {
      "midi": 76,
      "hit": false,
      "t": 363250,
      "d": 507.8125,
      "v": 46
    },
    {
      "midi": 75,
      "hit": false,
      "t": 363750,
      "d": 507.8125,
      "v": 43
    },
    {
      "midi": 76,
      "hit": false,
      "t": 364250,
      "d": 507.8125,
      "v": 44
    },
    {
      "midi": 75,
      "hit": false,
      "t": 364750,
      "d": 507.8125,
      "v": 41
    },
    {
      "midi": 76,
      "hit": false,
      "t": 365250,
      "d": 507.8125,
      "v": 49
    },
    {
      "midi": 71,
      "hit": false,
      "t": 365750,
      "d": 507.8125,
      "v": 42
    },
    {
      "midi": 74,
      "hit": false,
      "t": 366250,
      "d": 507.8125,
      "v": 48
    },
    {
      "midi": 72,
      "hit": false,
      "t": 366750,
      "d": 507.8125,
      "v": 44
    },
    {
      "midi": 45,
      "hit": false,
      "t": 367250,
      "d": 507.8125,
      "v": 38
    },
    {
      "midi": 69,
      "hit": false,
      "t": 367250,
      "d": 945.3125,
      "v": 43
    },
    {
      "midi": 52,
      "hit": false,
      "t": 367750,
      "d": 507.8125,
      "v": 42
    },
    {
      "midi": 57,
      "hit": false,
      "t": 368250,
      "d": 468.75,
      "v": 47
    },
    {
      "midi": 60,
      "hit": false,
      "t": 368750,
      "d": 507.8125,
      "v": 42
    },
    {
      "midi": 64,
      "hit": false,
      "t": 369250,
      "d": 507.8125,
      "v": 44
    },
    {
      "midi": 69,
      "hit": false,
      "t": 369750,
      "d": 507.8125,
      "v": 46
    },
    {
      "midi": 40,
      "hit": false,
      "t": 370250,
      "d": 507.8125,
      "v": 42
    },
    {
      "midi": 71,
      "hit": false,
      "t": 370250,
      "d": 945.3125,
      "v": 44
    },
    {
      "midi": 52,
      "hit": false,
      "t": 370750,
      "d": 507.8125,
      "v": 46
    },
    {
      "midi": 56,
      "hit": false,
      "t": 371250,
      "d": 468.75,
      "v": 45
    },
    {
      "midi": 64,
      "hit": false,
      "t": 371750,
      "d": 507.8125,
      "v": 38
    },
    {
      "midi": 72,
      "hit": false,
      "t": 372250,
      "d": 507.8125,
      "v": 47
    },
    {
      "midi": 71,
      "hit": false,
      "t": 372750,
      "d": 507.8125,
      "v": 40
    },
    {
      "midi": 69,
      "hit": false,
      "t": 373250,
      "d": 1898.4375,
      "v": 38
    },
    {
      "midi": 33,
      "hit": false,
      "t": 373250,
      "d": 2000,
      "v": 44
    },
    {
      "midi": 45,
      "hit": false,
      "t": 373250,
      "d": 2000,
      "v": 44
    }
  ]
}