{
  "jsonPath": "Rock/Dance Rock/Madness/it-must-be-love.json",
  "path": "Rock\\Dance Rock\\Madness\\It Must Be Love.mid",
  "name": "It Must Be Love",
  "difficulty": "Advanced",
  "bpm": 73.00007178340392,
  "notes": [
    {
      "midi": 72,
      "hit": false,
      "t": 6575.336,
      "d": 149.82861979166682,
      "v": 78
    },
    {
      "midi": 76,
      "hit": false,
      "t": 6575.336,
      "d": 149.82861979166682,
      "v": 78
    },
    {
      "midi": 81,
      "hit": false,
      "t": 6575.336,
      "d": 149.82861979166682,
      "v": 78
    },
    {
      "midi": 69,
      "hit": false,
      "t": 6575.336,
      "d": 256.8490625000004,
      "v": 78
    },
    {
      "midi": 81,
      "hit": false,
      "t": 6986.294500000001,
      "d": 184.07516145833324,
      "v": 78
    },
    {
      "midi": 76,
      "hit": false,
      "t": 6986.294500000001,
      "d": 196.9176145833335,
      "v": 78
    },
    {
      "midi": 72,
      "hit": false,
      "t": 6986.294500000001,
      "d": 214.04088541666715,
      "v": 78
    },
    {
      "midi": 69,
      "hit": false,
      "t": 7260.266833333335,
      "d": 175.5135260416664,
      "v": 78
    },
    {
      "midi": 76,
      "hit": false,
      "t": 7397.2530000000015,
      "d": 158.39025520833275,
      "v": 78
    },
    {
      "midi": 81,
      "hit": false,
      "t": 7397.2530000000015,
      "d": 175.5135260416664,
      "v": 78
    },
    {
      "midi": 72,
      "hit": false,
      "t": 7397.2530000000015,
      "d": 201.198432291666,
      "v": 78
    },
    {
      "midi": 69,
      "hit": false,
      "t": 7671.225333333334,
      "d": 398.1160468749995,
      "v": 78
    },
    {
      "midi": 72,
      "hit": false,
      "t": 7808.2115,
      "d": 226.8833385416665,
      "v": 78
    },
    {
      "midi": 76,
      "hit": false,
      "t": 7808.2115,
      "d": 226.8833385416665,
      "v": 78
    },
    {
      "midi": 81,
      "hit": false,
      "t": 7808.2115,
      "d": 226.8833385416665,
      "v": 78
    },
    {
      "midi": 67,
      "hit": false,
      "t": 8082.1838333333335,
      "d": 145.5478020833334,
      "v": 78
    },
    {
      "midi": 72,
      "hit": false,
      "t": 8219.17,
      "d": 226.8833385416674,
      "v": 78
    },
    {
      "midi": 76,
      "hit": false,
      "t": 8219.17,
      "d": 226.8833385416674,
      "v": 78
    },
    {
      "midi": 83,
      "hit": false,
      "t": 8219.17,
      "d": 226.8833385416674,
      "v": 78
    },
    {
      "midi": 64,
      "hit": false,
      "t": 8219.17,
      "d": 252.5682447916679,
      "v": 78
    },
    {
      "midi": 76,
      "hit": false,
      "t": 8630.1285,
      "d": 188.35597916666666,
      "v": 78
    },
    {
      "midi": 83,
      "hit": false,
      "t": 8630.1285,
      "d": 188.35597916666666,
      "v": 78
    },
    {
      "midi": 72,
      "hit": false,
      "t": 8630.1285,
      "d": 201.1984322916669,
      "v": 78
    },
    {
      "midi": 64,
      "hit": false,
      "t": 8904.100833333334,
      "d": 171.2327083333348,
      "v": 78
    },
    {
      "midi": 72,
      "hit": false,
      "t": 9041.087000000001,
      "d": 171.2327083333348,
      "v": 78
    },
    {
      "midi": 76,
      "hit": false,
      "t": 9041.087000000001,
      "d": 171.2327083333348,
      "v": 78
    },
    {
      "midi": 83,
      "hit": false,
      "t": 9041.087000000001,
      "d": 171.2327083333348,
      "v": 78
    },
    {
      "midi": 64,
      "hit": false,
      "t": 9315.059333333336,
      "d": 355.30786979166805,
      "v": 78
    },
    {
      "midi": 76,
      "hit": false,
      "t": 9452.045500000004,
      "d": 222.60252083333398,
      "v": 78
    },
    {
      "midi": 83,
      "hit": false,
      "t": 9452.045500000004,
      "d": 222.60252083333398,
      "v": 78
    },
    {
      "midi": 72,
      "hit": false,
      "t": 9452.045500000004,
      "d": 235.44497395833423,
      "v": 78
    },
    {
      "midi": 67,
      "hit": false,
      "t": 9726.017833333339,
      "d": 171.2327083333348,
      "v": 78
    },
    {
      "midi": 72,
      "hit": false,
      "t": 9863.004000000006,
      "d": 214.04088541666715,
      "v": 78
    },
    {
      "midi": 76,
      "hit": false,
      "t": 9863.004000000006,
      "d": 214.04088541666715,
      "v": 78
    },
    {
      "midi": 81,
      "hit": false,
      "t": 9863.004000000006,
      "d": 214.04088541666715,
      "v": 78
    },
    {
      "midi": 69,
      "hit": false,
      "t": 9863.004000000006,
      "d": 265.4106979166663,
      "v": 78
    },
    {
      "midi": 76,
      "hit": false,
      "t": 10273.962500000005,
      "d": 196.9176145833335,
      "v": 78
    },
    {
      "midi": 72,
      "hit": false,
      "t": 10273.962500000005,
      "d": 201.1984322916669,
      "v": 78
    },
    {
      "midi": 81,
      "hit": false,
      "t": 10273.962500000005,
      "d": 239.72579166666765,
      "v": 78
    },
    {
      "midi": 69,
      "hit": false,
      "t": 10547.93483333334,
      "d": 145.54780208333432,
      "v": 78
    },
    {
      "midi": 72,
      "hit": false,
      "t": 10684.921000000008,
      "d": 184.07516145833324,
      "v": 78
    },
    {
      "midi": 76,
      "hit": false,
      "t": 10684.921000000008,
      "d": 184.07516145833324,
      "v": 78
    },
    {
      "midi": 81,
      "hit": false,
      "t": 10684.921000000008,
      "d": 201.1984322916669,
      "v": 78
    },
    {
      "midi": 69,
      "hit": false,
      "t": 10958.89333333334,
      "d": 145.54780208333432,
      "v": 78
    },
    {
      "midi": 72,
      "hit": false,
      "t": 11095.879500000008,
      "d": 261.1298802083329,
      "v": 78
    },
    {
      "midi": 76,
      "hit": false,
      "t": 11095.879500000008,
      "d": 261.1298802083329,
      "v": 78
    },
    {
      "midi": 81,
      "hit": false,
      "t": 11095.879500000008,
      "d": 261.1298802083329,
      "v": 78
    },
    {
      "midi": 67,
      "hit": false,
      "t": 11369.851833333341,
      "d": 136.9861666666675,
      "v": 78
    },
    {
      "midi": 72,
      "hit": false,
      "t": 11506.838000000009,
      "d": 214.04088541666715,
      "v": 78
    },
    {
      "midi": 76,
      "hit": false,
      "t": 11506.838000000009,
      "d": 214.04088541666715,
      "v": 78
    },
    {
      "midi": 83,
      "hit": false,
      "t": 11506.838000000009,
      "d": 214.04088541666715,
      "v": 78
    },
    {
      "midi": 64,
      "hit": false,
      "t": 11506.838000000009,
      "d": 244.00660937500106,
      "v": 78
    },
    {
      "midi": 76,
      "hit": false,
      "t": 11917.79650000001,
      "d": 179.79434374999983,
      "v": 78
    },
    {
      "midi": 72,
      "hit": false,
      "t": 11917.79650000001,
      "d": 214.04088541666715,
      "v": 78
    },
    {
      "midi": 83,
      "hit": false,
      "t": 11917.79650000001,
      "d": 214.04088541666715,
      "v": 78
    },
    {
      "midi": 64,
      "hit": false,
      "t": 12191.768833333343,
      "d": 201.1984322916669,
      "v": 78
    },
    {
      "midi": 76,
      "hit": false,
      "t": 12328.75500000001,
      "d": 201.1984322916669,
      "v": 78
    },
    {
      "midi": 72,
      "hit": false,
      "t": 12328.75500000001,
      "d": 214.04088541666715,
      "v": 78
    },
    {
      "midi": 83,
      "hit": false,
      "t": 12328.75500000001,
      "d": 214.04088541666715,
      "v": 78
    },
    {
      "midi": 64,
      "hit": false,
      "t": 12602.727333333343,
      "d": 355.30786979166805,
      "v": 78
    },
    {
      "midi": 72,
      "hit": false,
      "t": 12739.71350000001,
      "d": 214.04088541666715,
      "v": 78
    },
    {
      "midi": 76,
      "hit": false,
      "t": 12739.71350000001,
      "d": 214.04088541666715,
      "v": 78
    },
    {
      "midi": 83,
      "hit": false,
      "t": 12739.71350000001,
      "d": 214.04088541666715,
      "v": 78
    },
    {
      "midi": 67,
      "hit": false,
      "t": 13013.685833333344,
      "d": 94.17798958333333,
      "v": 78
    },
    {
      "midi": 72,
      "hit": false,
      "t": 13150.672000000011,
      "d": 149.82861979166591,
      "v": 78
    },
    {
      "midi": 76,
      "hit": false,
      "t": 13150.672000000011,
      "d": 149.82861979166591,
      "v": 78
    },
    {
      "midi": 81,
      "hit": false,
      "t": 13150.672000000011,
      "d": 149.82861979166591,
      "v": 78
    },
    {
      "midi": 69,
      "hit": false,
      "t": 13150.672000000011,
      "d": 256.8490624999995,
      "v": 78
    },
    {
      "midi": 81,
      "hit": false,
      "t": 13561.63050000001,
      "d": 184.07516145833324,
      "v": 78
    },
    {
      "midi": 76,
      "hit": false,
      "t": 13561.63050000001,
      "d": 196.9176145833335,
      "v": 78
    },
    {
      "midi": 72,
      "hit": false,
      "t": 13561.63050000001,
      "d": 214.04088541666715,
      "v": 78
    },
    {
      "midi": 69,
      "hit": false,
      "t": 13835.602833333343,
      "d": 175.51352604166823,
      "v": 78
    },
    {
      "midi": 76,
      "hit": false,
      "t": 13972.58900000001,
      "d": 158.39025520833457,
      "v": 78
    },
    {
      "midi": 81,
      "hit": false,
      "t": 13972.58900000001,
      "d": 175.51352604166823,
      "v": 78
    },
    {
      "midi": 72,
      "hit": false,
      "t": 13972.58900000001,
      "d": 201.19843229166872,
      "v": 78
    },
    {
      "midi": 69,
      "hit": false,
      "t": 14246.561333333346,
      "d": 398.1160468750022,
      "v": 78
    },
    {
      "midi": 72,
      "hit": false,
      "t": 14383.547500000013,
      "d": 226.8833385416674,
      "v": 78
    },
    {
      "midi": 76,
      "hit": false,
      "t": 14383.547500000013,
      "d": 226.8833385416674,
      "v": 78
    },
    {
      "midi": 81,
      "hit": false,
      "t": 14383.547500000013,
      "d": 226.8833385416674,
      "v": 78
    },
    {
      "midi": 67,
      "hit": false,
      "t": 14657.519833333348,
      "d": 145.54780208333432,
      "v": 78
    },
    {
      "midi": 72,
      "hit": false,
      "t": 14794.506000000016,
      "d": 226.8833385416674,
      "v": 78
    },
    {
      "midi": 76,
      "hit": false,
      "t": 14794.506000000016,
      "d": 226.8833385416674,
      "v": 78
    },
    {
      "midi": 83,
      "hit": false,
      "t": 14794.506000000016,
      "d": 226.8833385416674,
      "v": 78
    },
    {
      "midi": 64,
      "hit": false,
      "t": 14794.506000000016,
      "d": 252.5682447916679,
      "v": 78
    },
    {
      "midi": 76,
      "hit": false,
      "t": 15205.464500000016,
      "d": 188.35597916666666,
      "v": 78
    },
    {
      "midi": 83,
      "hit": false,
      "t": 15205.464500000016,
      "d": 188.35597916666666,
      "v": 78
    },
    {
      "midi": 72,
      "hit": false,
      "t": 15205.464500000016,
      "d": 201.1984322916669,
      "v": 78
    },
    {
      "midi": 64,
      "hit": false,
      "t": 15479.43683333335,
      "d": 171.2327083333348,
      "v": 78
    },
    {
      "midi": 72,
      "hit": false,
      "t": 15616.423000000017,
      "d": 171.2327083333348,
      "v": 78
    },
    {
      "midi": 76,
      "hit": false,
      "t": 15616.423000000017,
      "d": 171.2327083333348,
      "v": 78
    },
    {
      "midi": 83,
      "hit": false,
      "t": 15616.423000000017,
      "d": 171.2327083333348,
      "v": 78
    },
    {
      "midi": 64,
      "hit": false,
      "t": 15890.395333333352,
      "d": 355.30786979166805,
      "v": 78
    },
    {
      "midi": 76,
      "hit": false,
      "t": 16027.38150000002,
      "d": 222.60252083333398,
      "v": 78
    },
    {
      "midi": 83,
      "hit": false,
      "t": 16027.38150000002,
      "d": 222.60252083333398,
      "v": 78
    },
    {
      "midi": 72,
      "hit": false,
      "t": 16027.38150000002,
      "d": 235.44497395833423,
      "v": 78
    },
    {
      "midi": 67,
      "hit": false,
      "t": 16301.353833333354,
      "d": 171.2327083333348,
      "v": 78
    },
    {
      "midi": 72,
      "hit": false,
      "t": 16438.340000000022,
      "d": 214.04088541666715,
      "v": 78
    },
    {
      "midi": 76,
      "hit": false,
      "t": 16438.340000000022,
      "d": 214.04088541666715,
      "v": 78
    },
    {
      "midi": 81,
      "hit": false,
      "t": 16438.340000000022,
      "d": 214.04088541666715,
      "v": 78
    },
    {
      "midi": 69,
      "hit": false,
      "t": 16438.340000000022,
      "d": 265.41069791666814,
      "v": 78
    },
    {
      "midi": 76,
      "hit": false,
      "t": 16849.298500000023,
      "d": 196.9176145833335,
      "v": 78
    },
    {
      "midi": 72,
      "hit": false,
      "t": 16849.298500000023,
      "d": 201.19843229166509,
      "v": 78
    },
    {
      "midi": 81,
      "hit": false,
      "t": 16849.298500000023,
      "d": 239.725791666664,
      "v": 78
    },
    {
      "midi": 69,
      "hit": false,
      "t": 17123.270833333354,
      "d": 145.5478020833325,
      "v": 78
    },
    {
      "midi": 72,
      "hit": false,
      "t": 17260.25700000002,
      "d": 184.07516145833506,
      "v": 78
    },
    {
      "midi": 76,
      "hit": false,
      "t": 17260.25700000002,
      "d": 184.07516145833506,
      "v": 78
    },
    {
      "midi": 81,
      "hit": false,
      "t": 17260.25700000002,
      "d": 201.19843229166872,
      "v": 78
    },
    {
      "midi": 69,
      "hit": false,
      "t": 17534.229333333355,
      "d": 145.5478020833325,
      "v": 78
    },
    {
      "midi": 72,
      "hit": false,
      "t": 17671.21550000002,
      "d": 261.1298802083329,
      "v": 78
    },
    {
      "midi": 76,
      "hit": false,
      "t": 17671.21550000002,
      "d": 261.1298802083329,
      "v": 78
    },
    {
      "midi": 81,
      "hit": false,
      "t": 17671.21550000002,
      "d": 261.1298802083329,
      "v": 78
    },
    {
      "midi": 67,
      "hit": false,
      "t": 17945.18783333335,
      "d": 136.98616666666567,
      "v": 78
    },
    {
      "midi": 72,
      "hit": false,
      "t": 18082.174000000017,
      "d": 214.04088541666715,
      "v": 78
    },
    {
      "midi": 76,
      "hit": false,
      "t": 18082.174000000017,
      "d": 214.04088541666715,
      "v": 78
    },
    {
      "midi": 83,
      "hit": false,
      "t": 18082.174000000017,
      "d": 214.04088541666715,
      "v": 78
    },
    {
      "midi": 64,
      "hit": false,
      "t": 18082.174000000017,
      "d": 244.00660937499924,
      "v": 78
    },
    {
      "midi": 76,
      "hit": false,
      "t": 18493.132500000018,
      "d": 179.79434374999983,
      "v": 78
    },
    {
      "midi": 72,
      "hit": false,
      "t": 18493.132500000018,
      "d": 214.04088541666715,
      "v": 78
    },
    {
      "midi": 83,
      "hit": false,
      "t": 18493.132500000018,
      "d": 214.04088541666715,
      "v": 78
    },
    {
      "midi": 64,
      "hit": false,
      "t": 18767.104833333353,
      "d": 201.19843229166509,
      "v": 78
    },
    {
      "midi": 76,
      "hit": false,
      "t": 18904.09100000002,
      "d": 201.19843229166509,
      "v": 78
    },
    {
      "midi": 72,
      "hit": false,
      "t": 18904.09100000002,
      "d": 214.0408854166635,
      "v": 78
    },
    {
      "midi": 83,
      "hit": false,
      "t": 18904.09100000002,
      "d": 214.0408854166635,
      "v": 78
    },
    {
      "midi": 64,
      "hit": false,
      "t": 19178.06333333335,
      "d": 355.3078697916644,
      "v": 78
    },
    {
      "midi": 72,
      "hit": false,
      "t": 19315.049500000016,
      "d": 214.04088541666715,
      "v": 78
    },
    {
      "midi": 76,
      "hit": false,
      "t": 19315.049500000016,
      "d": 214.04088541666715,
      "v": 78
    },
    {
      "midi": 83,
      "hit": false,
      "t": 19315.049500000016,
      "d": 214.04088541666715,
      "v": 78
    },
    {
      "midi": 67,
      "hit": false,
      "t": 19589.021833333347,
      "d": 94.17798958333151,
      "v": 78
    },
    {
      "midi": 55,
      "hit": false,
      "t": 19726.008,
      "d": 410.95850000000064,
      "v": 88
    },
    {
      "midi": 74,
      "hit": false,
      "t": 19726.008000000013,
      "d": 145.5478020833325,
      "v": 78
    },
    {
      "midi": 79,
      "hit": false,
      "t": 19726.008000000013,
      "d": 145.5478020833325,
      "v": 78
    },
    {
      "midi": 71,
      "hit": false,
      "t": 19726.008000000013,
      "d": 158.39025520833093,
      "v": 78
    },
    {
      "midi": 67,
      "hit": false,
      "t": 19726.008000000013,
      "d": 303.9380572916634,
      "v": 78
    },
    {
      "midi": 74,
      "hit": false,
      "t": 20136.96650000001,
      "d": 171.232708333333,
      "v": 78
    },
    {
      "midi": 79,
      "hit": false,
      "t": 20136.96650000001,
      "d": 171.232708333333,
      "v": 78
    },
    {
      "midi": 71,
      "hit": false,
      "t": 20136.96650000001,
      "d": 201.19843229166509,
      "v": 78
    },
    {
      "midi": 55,
      "hit": false,
      "t": 20410.938833333337,
      "d": 393.835229166667,
      "v": 88
    },
    {
      "midi": 67,
      "hit": false,
      "t": 20410.93883333334,
      "d": 201.19843229166509,
      "v": 78
    },
    {
      "midi": 74,
      "hit": false,
      "t": 20547.925000000007,
      "d": 226.88333854166558,
      "v": 78
    },
    {
      "midi": 79,
      "hit": false,
      "t": 20547.925000000007,
      "d": 226.88333854166558,
      "v": 78
    },
    {
      "midi": 71,
      "hit": false,
      "t": 20547.925000000007,
      "d": 239.725791666664,
      "v": 78
    },
    {
      "midi": 50,
      "hit": false,
      "t": 20821.897333333338,
      "d": 149.8286197916641,
      "v": 88
    },
    {
      "midi": 62,
      "hit": false,
      "t": 20821.897333333338,
      "d": 158.39025520833093,
      "v": 78
    },
    {
      "midi": 52,
      "hit": false,
      "t": 20958.883500000004,
      "d": 278.25315104166293,
      "v": 88
    },
    {
      "midi": 79,
      "hit": false,
      "t": 20958.883500000004,
      "d": 68.49308333333101,
      "v": 78
    },
    {
      "midi": 74,
      "hit": false,
      "t": 20958.883500000004,
      "d": 107.02044270832994,
      "v": 78
    },
    {
      "midi": 71,
      "hit": false,
      "t": 20958.883500000004,
      "d": 136.98616666666203,
      "v": 78
    },
    {
      "midi": 64,
      "hit": false,
      "t": 20958.883500000004,
      "d": 256.84906249999403,
      "v": 78
    },
    {
      "midi": 62,
      "hit": false,
      "t": 21232.85583333333,
      "d": 132.70534895833407,
      "v": 78
    },
    {
      "midi": 50,
      "hit": false,
      "t": 21232.855833333335,
      "d": 141.26698437499726,
      "v": 88
    },
    {
      "midi": 72,
      "hit": false,
      "t": 21369.841999999997,
      "d": 252.56824479166607,
      "v": 78
    },
    {
      "midi": 79,
      "hit": false,
      "t": 21369.841999999997,
      "d": 261.1298802083329,
      "v": 78
    },
    {
      "midi": 76,
      "hit": false,
      "t": 21369.841999999997,
      "d": 265.4106979166645,
      "v": 78
    },
    {
      "midi": 67,
      "hit": false,
      "t": 21369.841999999997,
      "d": 295.3764218749966,
      "v": 78
    },
    {
      "midi": 55,
      "hit": false,
      "t": 21369.842,
      "d": 351.0270520833328,
      "v": 88
    },
    {
      "midi": 72,
      "hit": false,
      "t": 21780.800499999994,
      "d": 196.9176145833335,
      "v": 78
    },
    {
      "midi": 76,
      "hit": false,
      "t": 21780.800499999994,
      "d": 214.04088541666715,
      "v": 78
    },
    {
      "midi": 79,
      "hit": false,
      "t": 21780.800499999994,
      "d": 214.04088541666715,
      "v": 78
    },
    {
      "midi": 67,
      "hit": false,
      "t": 22054.77283333333,
      "d": 188.35597916666666,
      "v": 78
    },
    {
      "midi": 55,
      "hit": false,
      "t": 22054.772833333333,
      "d": 376.7119583333333,
      "v": 88
    },
    {
      "midi": 72,
      "hit": false,
      "t": 22191.758999999995,
      "d": 269.69151562499974,
      "v": 78
    },
    {
      "midi": 76,
      "hit": false,
      "t": 22191.758999999995,
      "d": 269.69151562499974,
      "v": 78
    },
    {
      "midi": 79,
      "hit": false,
      "t": 22191.758999999995,
      "d": 269.69151562499974,
      "v": 78
    },
    {
      "midi": 62,
      "hit": false,
      "t": 22465.731333333326,
      "d": 145.5478020833325,
      "v": 78
    },
    {
      "midi": 50,
      "hit": false,
      "t": 22465.731333333333,
      "d": 149.8286197916641,
      "v": 88
    },
    {
      "midi": 76,
      "hit": false,
      "t": 22602.71749999999,
      "d": 252.56824479166607,
      "v": 78
    },
    {
      "midi": 79,
      "hit": false,
      "t": 22602.71749999999,
      "d": 252.56824479166607,
      "v": 78
    },
    {
      "midi": 72,
      "hit": false,
      "t": 22602.71749999999,
      "d": 269.69151562499974,
      "v": 78
    },
    {
      "midi": 64,
      "hit": false,
      "t": 22602.71749999999,
      "d": 308.21887499999866,
      "v": 78
    },
    {
      "midi": 52,
      "hit": false,
      "t": 22602.7175,
      "d": 273.97233333333133,
      "v": 88
    },
    {
      "midi": 62,
      "hit": false,
      "t": 22876.689833333323,
      "d": 136.98616666666567,
      "v": 78
    },
    {
      "midi": 50,
      "hit": false,
      "t": 22876.68983333333,
      "d": 136.98616666666567,
      "v": 88
    },
    {
      "midi": 67,
      "hit": false,
      "t": 23013.67599999999,
      "d": 222.60252083333398,
      "v": 78
    },
    {
      "midi": 71,
      "hit": false,
      "t": 23013.67599999999,
      "d": 252.56824479166607,
      "v": 78
    },
    {
      "midi": 74,
      "hit": false,
      "t": 23013.67599999999,
      "d": 252.56824479166607,
      "v": 78
    },
    {
      "midi": 79,
      "hit": false,
      "t": 23013.67599999999,
      "d": 269.69151562499974,
      "v": 78
    },
    {
      "midi": 55,
      "hit": false,
      "t": 23013.675999999996,
      "d": 338.1845989583344,
      "v": 88
    },
    {
      "midi": 71,
      "hit": false,
      "t": 23424.63449999999,
      "d": 214.04088541666715,
      "v": 78
    },
    {
      "midi": 74,
      "hit": false,
      "t": 23424.63449999999,
      "d": 214.04088541666715,
      "v": 78
    },
    {
      "midi": 79,
      "hit": false,
      "t": 23424.63449999999,
      "d": 214.04088541666715,
      "v": 78
    },
    {
      "midi": 67,
      "hit": false,
      "t": 23698.606833333324,
      "d": 171.232708333333,
      "v": 78
    },
    {
      "midi": 55,
      "hit": false,
      "t": 23698.60683333333,
      "d": 376.7119583333333,
      "v": 88
    },
    {
      "midi": 74,
      "hit": false,
      "t": 23835.59299999999,
      "d": 278.25315104166657,
      "v": 78
    },
    {
      "midi": 71,
      "hit": false,
      "t": 23835.59299999999,
      "d": 291.095604166665,
      "v": 78
    },
    {
      "midi": 79,
      "hit": false,
      "t": 23835.59299999999,
      "d": 291.095604166665,
      "v": 78
    },
    {
      "midi": 62,
      "hit": false,
      "t": 24109.565333333325,
      "d": 175.51352604166095,
      "v": 78
    },
    {
      "midi": 50,
      "hit": false,
      "t": 24109.565333333332,
      "d": 149.8286197916641,
      "v": 88
    },
    {
      "midi": 71,
      "hit": false,
      "t": 24246.551499999987,
      "d": 239.725791666664,
      "v": 78
    },
    {
      "midi": 74,
      "hit": false,
      "t": 24246.551499999987,
      "d": 239.725791666664,
      "v": 78
    },
    {
      "midi": 79,
      "hit": false,
      "t": 24246.551499999987,
      "d": 239.725791666664,
      "v": 78
    },
    {
      "midi": 64,
      "hit": false,
      "t": 24246.551499999987,
      "d": 325.3421458333323,
      "v": 78
    },
    {
      "midi": 52,
      "hit": false,
      "t": 24246.551499999998,
      "d": 261.1298802083329,
      "v": 88
    },
    {
      "midi": 62,
      "hit": false,
      "t": 24520.523833333318,
      "d": 132.70534895833407,
      "v": 78
    },
    {
      "midi": 50,
      "hit": false,
      "t": 24520.52383333333,
      "d": 111.30126041666517,
      "v": 88
    },
    {
      "midi": 71,
      "hit": false,
      "t": 24657.509999999984,
      "d": 184.07516145833506,
      "v": 78
    },
    {
      "midi": 74,
      "hit": false,
      "t": 24657.509999999984,
      "d": 184.07516145833506,
      "v": 78
    },
    {
      "midi": 79,
      "hit": false,
      "t": 24657.509999999984,
      "d": 184.07516145833506,
      "v": 78
    },
    {
      "midi": 74,
      "hit": false,
      "t": 24931.48233333332,
      "d": 145.5478020833325,
      "v": 78
    },
    {
      "midi": 71,
      "hit": false,
      "t": 24931.48233333332,
      "d": 162.67107291666616,
      "v": 78
    },
    {
      "midi": 79,
      "hit": false,
      "t": 24931.48233333332,
      "d": 162.67107291666616,
      "v": 78
    },
    {
      "midi": 74,
      "hit": false,
      "t": 25205.45466666665,
      "d": 132.70534895833407,
      "v": 78
    },
    {
      "midi": 79,
      "hit": false,
      "t": 25205.45466666665,
      "d": 132.70534895833407,
      "v": 78
    },
    {
      "midi": 71,
      "hit": false,
      "t": 25205.45466666665,
      "d": 145.5478020833325,
      "v": 78
    },
    {
      "midi": 71,
      "hit": false,
      "t": 25479.42699999998,
      "d": 265.41069791666814,
      "v": 78
    },
    {
      "midi": 79,
      "hit": false,
      "t": 25479.42699999998,
      "d": 278.25315104166657,
      "v": 78
    },
    {
      "midi": 74,
      "hit": false,
      "t": 25479.42699999998,
      "d": 303.93805729166706,
      "v": 78
    },
    {
      "midi": 71,
      "hit": false,
      "t": 25890.385499999982,
      "d": 316.7805104166655,
      "v": 78
    },
    {
      "midi": 74,
      "hit": false,
      "t": 25890.385499999982,
      "d": 316.7805104166655,
      "v": 78
    },
    {
      "midi": 80,
      "hit": false,
      "t": 25890.385499999982,
      "d": 329.6229635416639,
      "v": 78
    },
    {
      "midi": 72,
      "hit": false,
      "t": 26301.34399999998,
      "d": 149.82861979166773,
      "v": 78
    },
    {
      "midi": 76,
      "hit": false,
      "t": 26301.34399999998,
      "d": 149.82861979166773,
      "v": 78
    },
    {
      "midi": 81,
      "hit": false,
      "t": 26301.34399999998,
      "d": 149.82861979166773,
      "v": 78
    },
    {
      "midi": 69,
      "hit": false,
      "t": 26301.34399999998,
      "d": 256.8490625000013,
      "v": 78
    },
    {
      "midi": 81,
      "hit": false,
      "t": 26712.30249999998,
      "d": 184.07516145833506,
      "v": 78
    },
    {
      "midi": 76,
      "hit": false,
      "t": 26712.30249999998,
      "d": 196.9176145833335,
      "v": 78
    },
    {
      "midi": 72,
      "hit": false,
      "t": 26712.30249999998,
      "d": 214.04088541666715,
      "v": 78
    },
    {
      "midi": 69,
      "hit": false,
      "t": 26986.274833333315,
      "d": 175.5135260416646,
      "v": 78
    },
    {
      "midi": 76,
      "hit": false,
      "t": 27123.26099999998,
      "d": 158.39025520833093,
      "v": 78
    },
    {
      "midi": 81,
      "hit": false,
      "t": 27123.26099999998,
      "d": 175.5135260416646,
      "v": 78
    },
    {
      "midi": 72,
      "hit": false,
      "t": 27123.26099999998,
      "d": 201.19843229166509,
      "v": 78
    },
    {
      "midi": 69,
      "hit": false,
      "t": 27397.23333333331,
      "d": 398.1160468749986,
      "v": 78
    },
    {
      "midi": 72,
      "hit": false,
      "t": 27534.219499999977,
      "d": 226.88333854166558,
      "v": 78
    },
    {
      "midi": 76,
      "hit": false,
      "t": 27534.219499999977,
      "d": 226.88333854166558,
      "v": 78
    },
    {
      "midi": 81,
      "hit": false,
      "t": 27534.219499999977,
      "d": 226.88333854166558,
      "v": 78
    },
    {
      "midi": 67,
      "hit": false,
      "t": 27808.19183333331,
      "d": 145.5478020833325,
      "v": 78
    },
    {
      "midi": 72,
      "hit": false,
      "t": 27945.177999999974,
      "d": 226.88333854166558,
      "v": 78
    },
    {
      "midi": 76,
      "hit": false,
      "t": 27945.177999999974,
      "d": 226.88333854166558,
      "v": 78
    },
    {
      "midi": 83,
      "hit": false,
      "t": 27945.177999999974,
      "d": 226.88333854166558,
      "v": 78
    },
    {
      "midi": 64,
      "hit": false,
      "t": 27945.177999999974,
      "d": 252.56824479166607,
      "v": 78
    },
    {
      "midi": 76,
      "hit": false,
      "t": 28356.136499999975,
      "d": 188.35597916666666,
      "v": 78
    },
    {
      "midi": 83,
      "hit": false,
      "t": 28356.136499999975,
      "d": 188.35597916666666,
      "v": 78
    },
    {
      "midi": 72,
      "hit": false,
      "t": 28356.136499999975,
      "d": 201.19843229166509,
      "v": 78
    },
    {
      "midi": 64,
      "hit": false,
      "t": 28630.108833333306,
      "d": 171.232708333333,
      "v": 78
    },
    {
      "midi": 72,
      "hit": false,
      "t": 28767.094999999972,
      "d": 171.232708333333,
      "v": 78
    },
    {
      "midi": 76,
      "hit": false,
      "t": 28767.094999999972,
      "d": 171.232708333333,
      "v": 78
    },
    {
      "midi": 83,
      "hit": false,
      "t": 28767.094999999972,
      "d": 171.232708333333,
      "v": 78
    },
    {
      "midi": 64,
      "hit": false,
      "t": 29041.067333333303,
      "d": 355.3078697916644,
      "v": 78
    },
    {
      "midi": 76,
      "hit": false,
      "t": 29178.05349999997,
      "d": 222.60252083333035,
      "v": 78
    },
    {
      "midi": 83,
      "hit": false,
      "t": 29178.05349999997,
      "d": 222.60252083333035,
      "v": 78
    },
    {
      "midi": 72,
      "hit": false,
      "t": 29178.05349999997,
      "d": 235.44497395832877,
      "v": 78
    },
    {
      "midi": 67,
      "hit": false,
      "t": 29452.025833333297,
      "d": 171.232708333333,
      "v": 78
    },
    {
      "midi": 72,
      "hit": false,
      "t": 29589.011999999962,
      "d": 214.04088541666715,
      "v": 78
    },
    {
      "midi": 76,
      "hit": false,
      "t": 29589.011999999962,
      "d": 214.04088541666715,
      "v": 78
    },
    {
      "midi": 81,
      "hit": false,
      "t": 29589.011999999962,
      "d": 214.04088541666715,
      "v": 78
    },
    {
      "midi": 69,
      "hit": false,
      "t": 29589.011999999962,
      "d": 265.41069791666814,
      "v": 78
    },
    {
      "midi": 76,
      "hit": false,
      "t": 29999.970499999963,
      "d": 196.9176145833335,
      "v": 78
    },
    {
      "midi": 72,
      "hit": false,
      "t": 29999.970499999963,
      "d": 201.19843229166509,
      "v": 78
    },
    {
      "midi": 81,
      "hit": false,
      "t": 29999.970499999963,
      "d": 239.725791666664,
      "v": 78
    },
    {
      "midi": 69,
      "hit": false,
      "t": 30273.942833333294,
      "d": 145.5478020833325,
      "v": 78
    },
    {
      "midi": 72,
      "hit": false,
      "t": 30410.92899999996,
      "d": 184.07516145833506,
      "v": 78
    },
    {
      "midi": 76,
      "hit": false,
      "t": 30410.92899999996,
      "d": 184.07516145833506,
      "v": 78
    },
    {
      "midi": 81,
      "hit": false,
      "t": 30410.92899999996,
      "d": 201.19843229166872,
      "v": 78
    },
    {
      "midi": 69,
      "hit": false,
      "t": 30684.901333333295,
      "d": 145.5478020833325,
      "v": 78
    },
    {
      "midi": 72,
      "hit": false,
      "t": 30821.88749999996,
      "d": 261.1298802083329,
      "v": 78
    },
    {
      "midi": 76,
      "hit": false,
      "t": 30821.88749999996,
      "d": 261.1298802083329,
      "v": 78
    },
    {
      "midi": 81,
      "hit": false,
      "t": 30821.88749999996,
      "d": 261.1298802083329,
      "v": 78
    },
    {
      "midi": 67,
      "hit": false,
      "t": 31095.859833333292,
      "d": 136.98616666666567,
      "v": 78
    },
    {
      "midi": 72,
      "hit": false,
      "t": 31232.845999999958,
      "d": 214.04088541666715,
      "v": 78
    },
    {
      "midi": 76,
      "hit": false,
      "t": 31232.845999999958,
      "d": 214.04088541666715,
      "v": 78
    },
    {
      "midi": 83,
      "hit": false,
      "t": 31232.845999999958,
      "d": 214.04088541666715,
      "v": 78
    },
    {
      "midi": 64,
      "hit": false,
      "t": 31232.845999999958,
      "d": 244.00660937499924,
      "v": 78
    },
    {
      "midi": 76,
      "hit": false,
      "t": 31643.80449999996,
      "d": 179.79434374999983,
      "v": 78
    },
    {
      "midi": 72,
      "hit": false,
      "t": 31643.80449999996,
      "d": 214.04088541666715,
      "v": 78
    },
    {
      "midi": 83,
      "hit": false,
      "t": 31643.80449999996,
      "d": 214.04088541666715,
      "v": 78
    },
    {
      "midi": 64,
      "hit": false,
      "t": 31917.776833333293,
      "d": 201.19843229166509,
      "v": 78
    },
    {
      "midi": 76,
      "hit": false,
      "t": 32054.76299999996,
      "d": 201.19843229166509,
      "v": 78
    },
    {
      "midi": 72,
      "hit": false,
      "t": 32054.76299999996,
      "d": 214.0408854166635,
      "v": 78
    },
    {
      "midi": 83,
      "hit": false,
      "t": 32054.76299999996,
      "d": 214.0408854166635,
      "v": 78
    },
    {
      "midi": 64,
      "hit": false,
      "t": 32328.73533333329,
      "d": 355.3078697916644,
      "v": 78
    },
    {
      "midi": 72,
      "hit": false,
      "t": 32465.721499999956,
      "d": 214.04088541666715,
      "v": 78
    },
    {
      "midi": 76,
      "hit": false,
      "t": 32465.721499999956,
      "d": 214.04088541666715,
      "v": 78
    },
    {
      "midi": 83,
      "hit": false,
      "t": 32465.721499999956,
      "d": 214.04088541666715,
      "v": 78
    },
    {
      "midi": 67,
      "hit": false,
      "t": 32739.693833333287,
      "d": 94.17798958333151,
      "v": 78
    },
    {
      "midi": 74,
      "hit": false,
      "t": 32876.67999999995,
      "d": 145.5478020833325,
      "v": 78
    },
    {
      "midi": 79,
      "hit": false,
      "t": 32876.67999999995,
      "d": 145.5478020833325,
      "v": 78
    },
    {
      "midi": 71,
      "hit": false,
      "t": 32876.67999999995,
      "d": 158.39025520833093,
      "v": 78
    },
    {
      "midi": 67,
      "hit": false,
      "t": 32876.67999999995,
      "d": 303.9380572916634,
      "v": 78
    },
    {
      "midi": 55,
      "hit": false,
      "t": 32876.67999999999,
      "d": 410.95850000000064,
      "v": 88
    },
    {
      "midi": 74,
      "hit": false,
      "t": 33287.63849999994,
      "d": 171.23270833333663,
      "v": 78
    },
    {
      "midi": 79,
      "hit": false,
      "t": 33287.63849999994,
      "d": 171.23270833333663,
      "v": 78
    },
    {
      "midi": 71,
      "hit": false,
      "t": 33287.63849999994,
      "d": 201.19843229166872,
      "v": 78
    },
    {
      "midi": 67,
      "hit": false,
      "t": 33561.61083333328,
      "d": 201.19843229166872,
      "v": 78
    },
    {
      "midi": 55,
      "hit": false,
      "t": 33561.610833333325,
      "d": 393.835229166667,
      "v": 88
    },
    {
      "midi": 74,
      "hit": false,
      "t": 33698.59699999995,
      "d": 226.88333854166558,
      "v": 78
    },
    {
      "midi": 79,
      "hit": false,
      "t": 33698.59699999995,
      "d": 226.88333854166558,
      "v": 78
    },
    {
      "midi": 71,
      "hit": false,
      "t": 33698.59699999995,
      "d": 239.725791666664,
      "v": 78
    },
    {
      "midi": 62,
      "hit": false,
      "t": 33972.56933333328,
      "d": 158.3902552083382,
      "v": 78
    },
    {
      "midi": 50,
      "hit": false,
      "t": 33972.569333333326,
      "d": 149.82861979166773,
      "v": 88
    },
    {
      "midi": 79,
      "hit": false,
      "t": 34109.55549999995,
      "d": 68.49308333333465,
      "v": 78
    },
    {
      "midi": 74,
      "hit": false,
      "t": 34109.55549999995,
      "d": 107.02044270833721,
      "v": 78
    },
    {
      "midi": 71,
      "hit": false,
      "t": 34109.55549999995,
      "d": 136.9861666666693,
      "v": 78
    },
    {
      "midi": 64,
      "hit": false,
      "t": 34109.55549999995,
      "d": 256.84906250000495,
      "v": 78
    },
    {
      "midi": 52,
      "hit": false,
      "t": 34109.555499999995,
      "d": 278.25315104166657,
      "v": 88
    },
    {
      "midi": 62,
      "hit": false,
      "t": 34383.52783333329,
      "d": 132.70534895833407,
      "v": 78
    },
    {
      "midi": 50,
      "hit": false,
      "t": 34383.527833333326,
      "d": 141.26698437500454,
      "v": 88
    },
    {
      "midi": 72,
      "hit": false,
      "t": 34520.51399999996,
      "d": 252.5682447916697,
      "v": 78
    },
    {
      "midi": 79,
      "hit": false,
      "t": 34520.51399999996,
      "d": 261.1298802083329,
      "v": 78
    },
    {
      "midi": 76,
      "hit": false,
      "t": 34520.51399999996,
      "d": 265.41069791666814,
      "v": 78
    },
    {
      "midi": 67,
      "hit": false,
      "t": 34520.51399999996,
      "d": 295.37642187500023,
      "v": 78
    },
    {
      "midi": 55,
      "hit": false,
      "t": 34520.513999999996,
      "d": 351.02705208333646,
      "v": 88
    },
    {
      "midi": 72,
      "hit": false,
      "t": 34931.47249999996,
      "d": 196.9176145833335,
      "v": 78
    },
    {
      "midi": 76,
      "hit": false,
      "t": 34931.47249999996,
      "d": 214.04088541666715,
      "v": 78
    },
    {
      "midi": 79,
      "hit": false,
      "t": 34931.47249999996,
      "d": 214.04088541666715,
      "v": 78
    },
    {
      "midi": 67,
      "hit": false,
      "t": 35205.44483333329,
      "d": 188.3559791666703,
      "v": 78
    },
    {
      "midi": 55,
      "hit": false,
      "t": 35205.444833333335,
      "d": 376.7119583333333,
      "v": 88
    },
    {
      "midi": 72,
      "hit": false,
      "t": 35342.43099999996,
      "d": 269.6915156250034,
      "v": 78
    },
    {
      "midi": 76,
      "hit": false,
      "t": 35342.43099999996,
      "d": 269.6915156250034,
      "v": 78
    },
    {
      "midi": 79,
      "hit": false,
      "t": 35342.43099999996,
      "d": 269.6915156250034,
      "v": 78
    },
    {
      "midi": 62,
      "hit": false,
      "t": 35616.4033333333,
      "d": 145.5478020833325,
      "v": 78
    },
    {
      "midi": 50,
      "hit": false,
      "t": 35616.403333333335,
      "d": 149.82861979166773,
      "v": 88
    },
    {
      "midi": 76,
      "hit": false,
      "t": 35753.38949999997,
      "d": 252.56824479166244,
      "v": 78
    },
    {
      "midi": 79,
      "hit": false,
      "t": 35753.38949999997,
      "d": 252.56824479166244,
      "v": 78
    },
    {
      "midi": 72,
      "hit": false,
      "t": 35753.38949999997,
      "d": 269.6915156249961,
      "v": 78
    },
    {
      "midi": 64,
      "hit": false,
      "t": 35753.38949999997,
      "d": 308.21887499999866,
      "v": 78
    },
    {
      "midi": 52,
      "hit": false,
      "t": 35753.389500000005,
      "d": 273.97233333333133,
      "v": 88
    },
    {
      "midi": 62,
      "hit": false,
      "t": 36027.3618333333,
      "d": 136.9861666666693,
      "v": 78
    },
    {
      "midi": 50,
      "hit": false,
      "t": 36027.361833333336,
      "d": 136.9861666666693,
      "v": 88
    },
    {
      "midi": 67,
      "hit": false,
      "t": 36164.34799999997,
      "d": 222.60252083333035,
      "v": 78
    },
    {
      "midi": 71,
      "hit": false,
      "t": 36164.34799999997,
      "d": 252.56824479166244,
      "v": 78
    },
    {
      "midi": 74,
      "hit": false,
      "t": 36164.34799999997,
      "d": 252.56824479166244,
      "v": 78
    },
    {
      "midi": 79,
      "hit": false,
      "t": 36164.34799999997,
      "d": 269.6915156249961,
      "v": 78
    },
    {
      "midi": 55,
      "hit": false,
      "t": 36164.348000000005,
      "d": 338.18459895833075,
      "v": 88
    },
    {
      "midi": 71,
      "hit": false,
      "t": 36575.30649999996,
      "d": 214.04088541666715,
      "v": 78
    },
    {
      "midi": 74,
      "hit": false,
      "t": 36575.30649999996,
      "d": 214.04088541666715,
      "v": 78
    },
    {
      "midi": 79,
      "hit": false,
      "t": 36575.30649999996,
      "d": 214.04088541666715,
      "v": 78
    },
    {
      "midi": 67,
      "hit": false,
      "t": 36849.278833333294,
      "d": 171.23270833333663,
      "v": 78
    },
    {
      "midi": 55,
      "hit": false,
      "t": 36849.27883333334,
      "d": 376.7119583333333,
      "v": 88
    },
    {
      "midi": 74,
      "hit": false,
      "t": 36986.26499999996,
      "d": 278.25315104166657,
      "v": 78
    },
    {
      "midi": 71,
      "hit": false,
      "t": 36986.26499999996,
      "d": 291.095604166665,
      "v": 78
    },
    {
      "midi": 79,
      "hit": false,
      "t": 36986.26499999996,
      "d": 291.095604166665,
      "v": 78
    },
    {
      "midi": 62,
      "hit": false,
      "t": 37260.237333333294,
      "d": 175.51352604167187,
      "v": 78
    },
    {
      "midi": 50,
      "hit": false,
      "t": 37260.23733333334,
      "d": 149.82861979166773,
      "v": 88
    },
    {
      "midi": 71,
      "hit": false,
      "t": 37397.223499999964,
      "d": 239.72579166667128,
      "v": 78
    },
    {
      "midi": 74,
      "hit": false,
      "t": 37397.223499999964,
      "d": 239.72579166667128,
      "v": 78
    },
    {
      "midi": 79,
      "hit": false,
      "t": 37397.223499999964,
      "d": 239.72579166667128,
      "v": 78
    },
    {
      "midi": 64,
      "hit": false,
      "t": 37397.223499999964,
      "d": 325.3421458333396,
      "v": 78
    },
    {
      "midi": 52,
      "hit": false,
      "t": 37397.22350000001,
      "d": 261.1298802083329,
      "v": 88
    },
    {
      "midi": 62,
      "hit": false,
      "t": 37671.1958333333,
      "d": 132.70534895833407,
      "v": 78
    },
    {
      "midi": 50,
      "hit": false,
      "t": 37671.19583333334,
      "d": 111.30126041666517,
      "v": 88
    },
    {
      "midi": 72,
      "hit": false,
      "t": 37808.18199999997,
      "d": 184.07516145833506,
      "v": 78
    },
    {
      "midi": 76,
      "hit": false,
      "t": 37808.18199999997,
      "d": 184.07516145833506,
      "v": 78
    },
    {
      "midi": 79,
      "hit": false,
      "t": 37808.18199999997,
      "d": 184.07516145833506,
      "v": 78
    },
    {
      "midi": 48,
      "hit": false,
      "t": 37808.182,
      "d": 158.39025520833093,
      "v": 88
    },
    {
      "midi": 76,
      "hit": false,
      "t": 38082.15433333331,
      "d": 145.5478020833325,
      "v": 78
    },
    {
      "midi": 72,
      "hit": false,
      "t": 38082.15433333331,
      "d": 162.67107291666616,
      "v": 78
    },
    {
      "midi": 79,
      "hit": false,
      "t": 38082.15433333331,
      "d": 162.67107291666616,
      "v": 78
    },
    {
      "midi": 48,
      "hit": false,
      "t": 38082.15433333333,
      "d": 132.70534895833407,
      "v": 88
    },
    {
      "midi": 76,
      "hit": false,
      "t": 38356.12666666664,
      "d": 132.70534895833407,
      "v": 78
    },
    {
      "midi": 79,
      "hit": false,
      "t": 38356.12666666664,
      "d": 132.70534895833407,
      "v": 78
    },
    {
      "midi": 72,
      "hit": false,
      "t": 38356.12666666664,
      "d": 145.5478020833325,
      "v": 78
    },
    {
      "midi": 48,
      "hit": false,
      "t": 38356.12666666666,
      "d": 132.70534895833407,
      "v": 88
    },
    {
      "midi": 72,
      "hit": false,
      "t": 38630.09899999997,
      "d": 265.41069791666814,
      "v": 78
    },
    {
      "midi": 79,
      "hit": false,
      "t": 38630.09899999997,
      "d": 278.25315104166657,
      "v": 78
    },
    {
      "midi": 76,
      "hit": false,
      "t": 38630.09899999997,
      "d": 303.9380572916634,
      "v": 78
    },
    {
      "midi": 48,
      "hit": false,
      "t": 38630.098999999995,
      "d": 380.99277604166855,
      "v": 88
    },
    {
      "midi": 74,
      "hit": false,
      "t": 39041.057499999966,
      "d": 316.78051041666913,
      "v": 78
    },
    {
      "midi": 78,
      "hit": false,
      "t": 39041.057499999966,
      "d": 316.78051041666913,
      "v": 78
    },
    {
      "midi": 81,
      "hit": false,
      "t": 39041.057499999966,
      "d": 329.62296354166756,
      "v": 78
    },
    {
      "midi": 50,
      "hit": false,
      "t": 39041.057499999995,
      "d": 303.9380572916634,
      "v": 88
    },
    {
      "midi": 52,
      "hit": false,
      "t": 39452.01599999999,
      "d": 38.52735937500256,
      "v": 88
    },
    {
      "midi": 67,
      "hit": false,
      "t": 39452.016,
      "d": 1643.8340000000026,
      "v": 84
    },
    {
      "midi": 71,
      "hit": false,
      "t": 39452.016,
      "d": 1643.8340000000026,
      "v": 84
    },
    {
      "midi": 76,
      "hit": false,
      "t": 39452.016,
      "d": 1643.8340000000026,
      "v": 84
    },
    {
      "midi": 88,
      "hit": false,
      "t": 39452.016,
      "d": 3253.4214583333305,
      "v": 73
    },
    {
      "midi": 52,
      "hit": false,
      "t": 39627.52952604166,
      "d": 55.650630208336224,
      "v": 88
    },
    {
      "midi": 52,
      "hit": false,
      "t": 39845.85122916666,
      "d": 85.61635416666832,
      "v": 88
    },
    {
      "midi": 76,
      "hit": false,
      "t": 39862.97449999997,
      "d": 154.10943750000297,
      "v": 81
    },
    {
      "midi": 71,
      "hit": false,
      "t": 39862.97449999997,
      "d": 166.9518906250014,
      "v": 81
    },
    {
      "midi": 67,
      "hit": false,
      "t": 39862.97449999997,
      "d": 196.9176145833335,
      "v": 81
    },
    {
      "midi": 52,
      "hit": false,
      "t": 40042.76884375,
      "d": 68.49308333333465,
      "v": 88
    },
    {
      "midi": 52,
      "hit": false,
      "t": 40273.933,
      "d": 693.4924687500024,
      "v": 88
    },
    {
      "midi": 71,
      "hit": false,
      "t": 40684.89149999997,
      "d": 205.47924999999668,
      "v": 81
    },
    {
      "midi": 76,
      "hit": false,
      "t": 40684.89149999997,
      "d": 205.47924999999668,
      "v": 81
    },
    {
      "midi": 67,
      "hit": false,
      "t": 40684.89149999997,
      "d": 222.60252083333035,
      "v": 81
    },
    {
      "midi": 69,
      "hit": false,
      "t": 41095.850000000006,
      "d": 1643.8340000000026,
      "v": 84
    },
    {
      "midi": 73,
      "hit": false,
      "t": 41095.850000000006,
      "d": 1643.8340000000026,
      "v": 84
    },
    {
      "midi": 76,
      "hit": false,
      "t": 41095.850000000006,
      "d": 1643.8340000000026,
      "v": 84
    },
    {
      "midi": 45,
      "hit": false,
      "t": 41309.890885416666,
      "d": 81.33553645833308,
      "v": 88
    },
    {
      "midi": 45,
      "hit": false,
      "t": 41498.24686458333,
      "d": 98.45880729166674,
      "v": 88
    },
    {
      "midi": 73,
      "hit": false,
      "t": 41506.80849999996,
      "d": 192.63679687499825,
      "v": 81
    },
    {
      "midi": 76,
      "hit": false,
      "t": 41506.80849999996,
      "d": 218.3217031249951,
      "v": 81
    },
    {
      "midi": 69,
      "hit": false,
      "t": 41506.80849999996,
      "d": 248.2874270833272,
      "v": 81
    },
    {
      "midi": 45,
      "hit": false,
      "t": 41708.00693229166,
      "d": 72.77390104166989,
      "v": 88
    },
    {
      "midi": 45,
      "hit": false,
      "t": 41917.767,
      "d": 813.3553645833308,
      "v": 88
    },
    {
      "midi": 76,
      "hit": false,
      "t": 42328.72549999996,
      "d": 188.35597916666302,
      "v": 81
    },
    {
      "midi": 73,
      "hit": false,
      "t": 42328.72549999996,
      "d": 192.63679687499825,
      "v": 81
    },
    {
      "midi": 69,
      "hit": false,
      "t": 42328.72549999996,
      "d": 205.47924999999668,
      "v": 81
    },
    {
      "midi": 86,
      "hit": false,
      "t": 42739.684,
      "d": 1245.7179531250003,
      "v": 79
    },
    {
      "midi": 69,
      "hit": false,
      "t": 42739.68400000001,
      "d": 1643.8340000000026,
      "v": 84
    },
    {
      "midi": 74,
      "hit": false,
      "t": 42739.68400000001,
      "d": 1643.8340000000026,
      "v": 84
    },
    {
      "midi": 77,
      "hit": false,
      "t": 42739.68400000001,
      "d": 1643.8340000000026,
      "v": 84
    },
    {
      "midi": 50,
      "hit": false,
      "t": 42949.44406770833,
      "d": 72.77390104166989,
      "v": 88
    },
    {
      "midi": 50,
      "hit": false,
      "t": 43142.08086458334,
      "d": 72.77390104166989,
      "v": 88
    },
    {
      "midi": 69,
      "hit": false,
      "t": 43150.64249999995,
      "d": 231.16415625000081,
      "v": 81
    },
    {
      "midi": 74,
      "hit": false,
      "t": 43150.64249999995,
      "d": 231.16415625000081,
      "v": 81
    },
    {
      "midi": 77,
      "hit": false,
      "t": 43150.64249999995,
      "d": 231.16415625000081,
      "v": 81
    },
    {
      "midi": 50,
      "hit": false,
      "t": 43351.84093229168,
      "d": 55.650630208336224,
      "v": 88
    },
    {
      "midi": 50,
      "hit": false,
      "t": 43561.60100000002,
      "d": 736.300645833333,
      "v": 88
    },
    {
      "midi": 74,
      "hit": false,
      "t": 43972.55949999995,
      "d": 218.3217031250024,
      "v": 81
    },
    {
      "midi": 77,
      "hit": false,
      "t": 43972.55949999995,
      "d": 218.3217031250024,
      "v": 81
    },
    {
      "midi": 69,
      "hit": false,
      "t": 43972.55949999995,
      "d": 235.44497395833605,
      "v": 81
    },
    {
      "midi": 93,
      "hit": false,
      "t": 43972.5595,
      "d": 359.58868749999965,
      "v": 67
    },
    {
      "midi": 92,
      "hit": false,
      "t": 44383.518000000004,
      "d": 1489.7245624999996,
      "v": 69
    },
    {
      "midi": 68,
      "hit": false,
      "t": 44383.51800000001,
      "d": 1643.8340000000026,
      "v": 84
    },
    {
      "midi": 71,
      "hit": false,
      "t": 44383.51800000001,
      "d": 1643.8340000000026,
      "v": 84
    },
    {
      "midi": 76,
      "hit": false,
      "t": 44383.51800000001,
      "d": 1643.8340000000026,
      "v": 84
    },
    {
      "midi": 40,
      "hit": false,
      "t": 44584.71643229168,
      "d": 81.33553645833308,
      "v": 88
    },
    {
      "midi": 40,
      "hit": false,
      "t": 44777.35322916668,
      "d": 81.33553645833308,
      "v": 88
    },
    {
      "midi": 71,
      "hit": false,
      "t": 44794.47649999995,
      "d": 222.60252083333035,
      "v": 81
    },
    {
      "midi": 68,
      "hit": false,
      "t": 44794.47649999995,
      "d": 235.44497395832877,
      "v": 81
    },
    {
      "midi": 76,
      "hit": false,
      "t": 44794.47649999995,
      "d": 248.2874270833272,
      "v": 81
    },
    {
      "midi": 40,
      "hit": false,
      "t": 45012.798203125014,
      "d": 55.650630208336224,
      "v": 88
    },
    {
      "midi": 40,
      "hit": false,
      "t": 45205.43500000002,
      "d": 351.02705208333646,
      "v": 88
    },
    {
      "midi": 71,
      "hit": false,
      "t": 45616.39349999995,
      "d": 205.47924999999668,
      "v": 81
    },
    {
      "midi": 68,
      "hit": false,
      "t": 45616.39349999995,
      "d": 218.3217031249951,
      "v": 81
    },
    {
      "midi": 76,
      "hit": false,
      "t": 45616.39349999995,
      "d": 252.56824479166244,
      "v": 81
    },
    {
      "midi": 44,
      "hit": false,
      "t": 45654.92085937502,
      "d": 312.4996927083339,
      "v": 88
    },
    {
      "midi": 69,
      "hit": false,
      "t": 46027.35199999994,
      "d": 244.00660937499924,
      "v": 81
    },
    {
      "midi": 72,
      "hit": false,
      "t": 46027.35199999994,
      "d": 244.00660937499924,
      "v": 81
    },
    {
      "midi": 76,
      "hit": false,
      "t": 46027.35199999994,
      "d": 256.8490624999977,
      "v": 81
    },
    {
      "midi": 81,
      "hit": false,
      "t": 46027.35199999994,
      "d": 256.8490624999977,
      "v": 81
    },
    {
      "midi": 93,
      "hit": false,
      "t": 46027.352000000006,
      "d": 1643.8340000000026,
      "v": 69
    },
    {
      "midi": 69,
      "hit": false,
      "t": 46027.35200000001,
      "d": 1643.8340000000026,
      "v": 84
    },
    {
      "midi": 72,
      "hit": false,
      "t": 46027.35200000001,
      "d": 1643.8340000000026,
      "v": 84
    },
    {
      "midi": 76,
      "hit": false,
      "t": 46027.35200000001,
      "d": 1643.8340000000026,
      "v": 84
    },
    {
      "midi": 45,
      "hit": false,
      "t": 46027.35200000002,
      "d": 727.7390104166698,
      "v": 88
    },
    {
      "midi": 72,
      "hit": false,
      "t": 46438.31049999994,
      "d": 231.16415625000081,
      "v": 81
    },
    {
      "midi": 81,
      "hit": false,
      "t": 46438.31049999994,
      "d": 248.28742708333448,
      "v": 81
    },
    {
      "midi": 69,
      "hit": false,
      "t": 46438.31049999994,
      "d": 261.1298802083329,
      "v": 81
    },
    {
      "midi": 76,
      "hit": false,
      "t": 46438.31049999994,
      "d": 261.1298802083329,
      "v": 81
    },
    {
      "midi": 69,
      "hit": false,
      "t": 46849.26899999994,
      "d": 231.16415625000081,
      "v": 81
    },
    {
      "midi": 72,
      "hit": false,
      "t": 46849.26899999994,
      "d": 273.97233333333133,
      "v": 81
    },
    {
      "midi": 81,
      "hit": false,
      "t": 46849.26899999994,
      "d": 273.97233333333133,
      "v": 81
    },
    {
      "midi": 76,
      "hit": false,
      "t": 46849.26899999994,
      "d": 291.095604166665,
      "v": 81
    },
    {
      "midi": 45,
      "hit": false,
      "t": 46849.26900000002,
      "d": 757.7047343750019,
      "v": 88
    },
    {
      "midi": 81,
      "hit": false,
      "t": 47260.22749999994,
      "d": 273.97233333333133,
      "v": 81
    },
    {
      "midi": 72,
      "hit": false,
      "t": 47260.22749999994,
      "d": 286.81478645832976,
      "v": 81
    },
    {
      "midi": 69,
      "hit": false,
      "t": 47260.22749999994,
      "d": 303.9380572916634,
      "v": 81
    },
    {
      "midi": 76,
      "hit": false,
      "t": 47260.22749999994,
      "d": 316.78051041666185,
      "v": 81
    },
    {
      "midi": 72,
      "hit": false,
      "t": 47671.185999999936,
      "d": 278.25315104166657,
      "v": 81
    },
    {
      "midi": 67,
      "hit": false,
      "t": 47671.185999999936,
      "d": 291.095604166665,
      "v": 81
    },
    {
      "midi": 76,
      "hit": false,
      "t": 47671.185999999936,
      "d": 291.095604166665,
      "v": 81
    },
    {
      "midi": 79,
      "hit": false,
      "t": 47671.185999999936,
      "d": 291.095604166665,
      "v": 81
    },
    {
      "midi": 91,
      "hit": false,
      "t": 47671.18600000001,
      "d": 1643.8340000000026,
      "v": 69
    },
    {
      "midi": 67,
      "hit": false,
      "t": 47671.186000000016,
      "d": 1643.8340000000026,
      "v": 84
    },
    {
      "midi": 72,
      "hit": false,
      "t": 47671.186000000016,
      "d": 1643.8340000000026,
      "v": 84
    },
    {
      "midi": 76,
      "hit": false,
      "t": 47671.186000000016,
      "d": 1643.8340000000026,
      "v": 84
    },
    {
      "midi": 43,
      "hit": false,
      "t": 47671.18600000002,
      "d": 736.300645833333,
      "v": 88
    },
    {
      "midi": 72,
      "hit": false,
      "t": 48082.14449999994,
      "d": 261.1298802083329,
      "v": 81
    },
    {
      "midi": 76,
      "hit": false,
      "t": 48082.14449999994,
      "d": 273.97233333333133,
      "v": 81
    },
    {
      "midi": 67,
      "hit": false,
      "t": 48082.14449999994,
      "d": 282.53396874999453,
      "v": 81
    },
    {
      "midi": 79,
      "hit": false,
      "t": 48082.14449999994,
      "d": 282.53396874999453,
      "v": 81
    },
    {
      "midi": 72,
      "hit": false,
      "t": 48493.10299999993,
      "d": 261.1298802083329,
      "v": 81
    },
    {
      "midi": 76,
      "hit": false,
      "t": 48493.10299999993,
      "d": 261.1298802083329,
      "v": 81
    },
    {
      "midi": 79,
      "hit": false,
      "t": 48493.10299999993,
      "d": 261.1298802083329,
      "v": 81
    },
    {
      "midi": 67,
      "hit": false,
      "t": 48493.10299999993,
      "d": 273.97233333333133,
      "v": 81
    },
    {
      "midi": 43,
      "hit": false,
      "t": 48493.103000000025,
      "d": 719.1773749999993,
      "v": 88
    },
    {
      "midi": 79,
      "hit": false,
      "t": 48904.06149999993,
      "d": 282.5339687500018,
      "v": 81
    },
    {
      "midi": 72,
      "hit": false,
      "t": 48904.06149999993,
      "d": 286.81478645833704,
      "v": 81
    },
    {
      "midi": 67,
      "hit": false,
      "t": 48904.06149999993,
      "d": 299.65723958333547,
      "v": 81
    },
    {
      "midi": 76,
      "hit": false,
      "t": 48904.06149999993,
      "d": 316.78051041666913,
      "v": 81
    },
    {
      "midi": 69,
      "hit": false,
      "t": 49315.01999999993,
      "d": 231.16415625000081,
      "v": 81
    },
    {
      "midi": 66,
      "hit": false,
      "t": 49315.01999999993,
      "d": 248.28742708333448,
      "v": 81
    },
    {
      "midi": 74,
      "hit": false,
      "t": 49315.01999999993,
      "d": 261.1298802083329,
      "v": 81
    },
    {
      "midi": 78,
      "hit": false,
      "t": 49315.01999999993,
      "d": 295.37642187500023,
      "v": 81
    },
    {
      "midi": 90,
      "hit": false,
      "t": 49315.02000000001,
      "d": 1643.8340000000026,
      "v": 69
    },
    {
      "midi": 66,
      "hit": false,
      "t": 49315.02000000002,
      "d": 1643.8340000000026,
      "v": 84
    },
    {
      "midi": 69,
      "hit": false,
      "t": 49315.02000000002,
      "d": 1643.8340000000026,
      "v": 84
    },
    {
      "midi": 74,
      "hit": false,
      "t": 49315.02000000002,
      "d": 1643.8340000000026,
      "v": 84
    },
    {
      "midi": 42,
      "hit": false,
      "t": 49315.020000000026,
      "d": 744.8622812500034,
      "v": 88
    },
    {
      "midi": 66,
      "hit": false,
      "t": 49725.97849999993,
      "d": 235.44497395833605,
      "v": 81
    },
    {
      "midi": 69,
      "hit": false,
      "t": 49725.97849999993,
      "d": 235.44497395833605,
      "v": 81
    },
    {
      "midi": 74,
      "hit": false,
      "t": 49725.97849999993,
      "d": 278.25315104166657,
      "v": 81
    },
    {
      "midi": 78,
      "hit": false,
      "t": 49725.97849999993,
      "d": 278.25315104166657,
      "v": 81
    },
    {
      "midi": 69,
      "hit": false,
      "t": 50136.93699999993,
      "d": 248.28742708333448,
      "v": 81
    },
    {
      "midi": 66,
      "hit": false,
      "t": 50136.93699999993,
      "d": 265.41069791666814,
      "v": 81
    },
    {
      "midi": 74,
      "hit": false,
      "t": 50136.93699999993,
      "d": 278.25315104166657,
      "v": 81
    },
    {
      "midi": 78,
      "hit": false,
      "t": 50136.93699999993,
      "d": 308.21887499999866,
      "v": 81
    },
    {
      "midi": 42,
      "hit": false,
      "t": 50136.93700000003,
      "d": 744.8622812500034,
      "v": 88
    },
    {
      "midi": 66,
      "hit": false,
      "t": 50547.89549999993,
      "d": 179.79434374999983,
      "v": 81
    },
    {
      "midi": 69,
      "hit": false,
      "t": 50547.89549999993,
      "d": 273.97233333333133,
      "v": 81
    },
    {
      "midi": 78,
      "hit": false,
      "t": 50547.89549999993,
      "d": 273.97233333333133,
      "v": 81
    },
    {
      "midi": 74,
      "hit": false,
      "t": 50547.89549999993,
      "d": 278.25315104166657,
      "v": 81
    },
    {
      "midi": 74,
      "hit": false,
      "t": 50958.853999999934,
      "d": 273.97233333333133,
      "v": 81
    },
    {
      "midi": 86,
      "hit": false,
      "t": 50958.853999999934,
      "d": 273.97233333333133,
      "v": 81
    },
    {
      "midi": 86,
      "hit": false,
      "t": 50958.854000000014,
      "d": 1643.8340000000026,
      "v": 69
    },
    {
      "midi": 62,
      "hit": false,
      "t": 50958.85400000002,
      "d": 1643.8340000000026,
      "v": 84
    },
    {
      "midi": 74,
      "hit": false,
      "t": 50958.85400000002,
      "d": 1643.8340000000026,
      "v": 84
    },
    {
      "midi": 50,
      "hit": false,
      "t": 50958.85400000003,
      "d": 273.97233333333133,
      "v": 88
    },
    {
      "midi": 76,
      "hit": false,
      "t": 51232.826333333265,
      "d": 273.97233333333133,
      "v": 81
    },
    {
      "midi": 88,
      "hit": false,
      "t": 51232.826333333265,
      "d": 273.97233333333133,
      "v": 81
    },
    {
      "midi": 52,
      "hit": false,
      "t": 51232.82633333336,
      "d": 273.97233333333133,
      "v": 88
    },
    {
      "midi": 78,
      "hit": false,
      "t": 51506.7986666666,
      "d": 273.97233333333133,
      "v": 81
    },
    {
      "midi": 90,
      "hit": false,
      "t": 51506.7986666666,
      "d": 273.97233333333133,
      "v": 81
    },
    {
      "midi": 54,
      "hit": false,
      "t": 51506.79866666669,
      "d": 273.97233333333133,
      "v": 88
    },
    {
      "midi": 79,
      "hit": false,
      "t": 51780.77099999993,
      "d": 273.97233333333133,
      "v": 81
    },
    {
      "midi": 91,
      "hit": false,
      "t": 51780.77099999993,
      "d": 273.97233333333133,
      "v": 81
    },
    {
      "midi": 55,
      "hit": false,
      "t": 51780.77100000002,
      "d": 273.97233333333133,
      "v": 88
    },
    {
      "midi": 81,
      "hit": false,
      "t": 52054.74333333326,
      "d": 273.97233333333133,
      "v": 81
    },
    {
      "midi": 93,
      "hit": false,
      "t": 52054.74333333326,
      "d": 273.97233333333133,
      "v": 81
    },
    {
      "midi": 57,
      "hit": false,
      "t": 52054.743333333354,
      "d": 273.97233333333133,
      "v": 88
    },
    {
      "midi": 83,
      "hit": false,
      "t": 52328.71566666659,
      "d": 273.97233333333133,
      "v": 81
    },
    {
      "midi": 95,
      "hit": false,
      "t": 52328.71566666659,
      "d": 273.97233333333133,
      "v": 81
    },
    {
      "midi": 59,
      "hit": false,
      "t": 52328.715666666685,
      "d": 273.97233333333133,
      "v": 88
    },
    {
      "midi": 55,
      "hit": false,
      "t": 52589.845546875,
      "d": 1630.9915468749969,
      "v": 47
    },
    {
      "midi": 59,
      "hit": false,
      "t": 52589.845546875,
      "d": 1630.9915468749969,
      "v": 47
    },
    {
      "midi": 62,
      "hit": false,
      "t": 52589.845546875,
      "d": 1630.9915468749969,
      "v": 47
    },
    {
      "midi": 74,
      "hit": false,
      "t": 52602.68799999992,
      "d": 89.89717187500355,
      "v": 81
    },
    {
      "midi": 71,
      "hit": false,
      "t": 52602.68799999992,
      "d": 115.58207812500041,
      "v": 81
    },
    {
      "midi": 79,
      "hit": false,
      "t": 52602.68799999992,
      "d": 115.58207812500041,
      "v": 81
    },
    {
      "midi": 43,
      "hit": false,
      "t": 52602.68800000002,
      "d": 94.17798958333151,
      "v": 88
    },
    {
      "midi": 91,
      "hit": false,
      "t": 52602.68800000002,
      "d": 1643.8340000000026,
      "v": 69
    },
    {
      "midi": 67,
      "hit": false,
      "t": 52602.688000000024,
      "d": 1643.8340000000026,
      "v": 84
    },
    {
      "midi": 71,
      "hit": false,
      "t": 52602.688000000024,
      "d": 1643.8340000000026,
      "v": 84
    },
    {
      "midi": 74,
      "hit": false,
      "t": 52602.688000000024,
      "d": 1643.8340000000026,
      "v": 84
    },
    {
      "midi": 43,
      "hit": false,
      "t": 52808.16725000001,
      "d": 85.61635416666832,
      "v": 88
    },
    {
      "midi": 43,
      "hit": false,
      "t": 53013.64650000002,
      "d": 98.45880729166674,
      "v": 88
    },
    {
      "midi": 74,
      "hit": false,
      "t": 53219.12574999992,
      "d": 136.9861666666693,
      "v": 81
    },
    {
      "midi": 71,
      "hit": false,
      "t": 53219.12574999992,
      "d": 166.9518906250014,
      "v": 81
    },
    {
      "midi": 79,
      "hit": false,
      "t": 53219.12574999992,
      "d": 166.9518906250014,
      "v": 81
    },
    {
      "midi": 43,
      "hit": false,
      "t": 53219.125750000014,
      "d": 98.45880729166674,
      "v": 88
    },
    {
      "midi": 43,
      "hit": false,
      "t": 53424.60500000001,
      "d": 719.1773749999993,
      "v": 88
    },
    {
      "midi": 74,
      "hit": false,
      "t": 53839.84431770825,
      "d": 162.67107291666616,
      "v": 81
    },
    {
      "midi": 79,
      "hit": false,
      "t": 53839.84431770825,
      "d": 179.79434374999983,
      "v": 81
    },
    {
      "midi": 71,
      "hit": false,
      "t": 53839.84431770825,
      "d": 192.63679687499825,
      "v": 81
    },
    {
      "midi": 54,
      "hit": false,
      "t": 54233.679546875,
      "d": 809.0745468750029,
      "v": 47
    },
    {
      "midi": 59,
      "hit": false,
      "t": 54233.679546875,
      "d": 809.0745468750029,
      "v": 47
    },
    {
      "midi": 62,
      "hit": false,
      "t": 54233.679546875,
      "d": 809.0745468750029,
      "v": 47
    },
    {
      "midi": 71,
      "hit": false,
      "t": 54246.52199999992,
      "d": 124.1437135416636,
      "v": 81
    },
    {
      "midi": 74,
      "hit": false,
      "t": 54246.52199999992,
      "d": 124.1437135416636,
      "v": 81
    },
    {
      "midi": 78,
      "hit": false,
      "t": 54246.52199999992,
      "d": 124.1437135416636,
      "v": 81
    },
    {
      "midi": 47,
      "hit": false,
      "t": 54246.52200000001,
      "d": 179.79434374999983,
      "v": 88
    },
    {
      "midi": 90,
      "hit": false,
      "t": 54246.52200000002,
      "d": 821.9170000000013,
      "v": 69
    },
    {
      "midi": 66,
      "hit": false,
      "t": 54246.522000000026,
      "d": 821.9170000000013,
      "v": 84
    },
    {
      "midi": 71,
      "hit": false,
      "t": 54246.522000000026,
      "d": 821.9170000000013,
      "v": 84
    },
    {
      "midi": 74,
      "hit": false,
      "t": 54246.522000000026,
      "d": 821.9170000000013,
      "v": 84
    },
    {
      "midi": 47,
      "hit": false,
      "t": 54520.49433333334,
      "d": 154.10943750000297,
      "v": 88
    },
    {
      "midi": 74,
      "hit": false,
      "t": 54537.61760416658,
      "d": 98.45880729166674,
      "v": 81
    },
    {
      "midi": 78,
      "hit": false,
      "t": 54537.61760416658,
      "d": 98.45880729166674,
      "v": 81
    },
    {
      "midi": 71,
      "hit": false,
      "t": 54537.61760416658,
      "d": 115.58207812500041,
      "v": 81
    },
    {
      "midi": 71,
      "hit": false,
      "t": 54794.46666666658,
      "d": 136.9861666666693,
      "v": 81
    },
    {
      "midi": 74,
      "hit": false,
      "t": 54794.46666666658,
      "d": 136.9861666666693,
      "v": 81
    },
    {
      "midi": 78,
      "hit": false,
      "t": 54794.46666666658,
      "d": 136.9861666666693,
      "v": 81
    },
    {
      "midi": 47,
      "hit": false,
      "t": 54794.46666666668,
      "d": 136.9861666666693,
      "v": 88
    },
    {
      "midi": 55,
      "hit": false,
      "t": 55055.596546875,
      "d": 1630.9915468749969,
      "v": 47
    },
    {
      "midi": 60,
      "hit": false,
      "t": 55055.596546875,
      "d": 1630.9915468749969,
      "v": 47
    },
    {
      "midi": 64,
      "hit": false,
      "t": 55055.596546875,
      "d": 1630.9915468749969,
      "v": 47
    },
    {
      "midi": 72,
      "hit": false,
      "t": 55068.43899999992,
      "d": 192.63679687499825,
      "v": 81
    },
    {
      "midi": 67,
      "hit": false,
      "t": 55068.43899999992,
      "d": 196.9176145833335,
      "v": 81
    },
    {
      "midi": 76,
      "hit": false,
      "t": 55068.43899999992,
      "d": 196.9176145833335,
      "v": 81
    },
    {
      "midi": 48,
      "hit": false,
      "t": 55068.43900000002,
      "d": 192.63679687499825,
      "v": 88
    },
    {
      "midi": 88,
      "hit": false,
      "t": 55068.43900000002,
      "d": 821.9170000000013,
      "v": 69
    },
    {
      "midi": 67,
      "hit": false,
      "t": 55068.43900000003,
      "d": 1643.8340000000026,
      "v": 84
    },
    {
      "midi": 72,
      "hit": false,
      "t": 55068.43900000003,
      "d": 1643.8340000000026,
      "v": 84
    },
    {
      "midi": 76,
      "hit": false,
      "t": 55068.43900000003,
      "d": 1643.8340000000026,
      "v": 84
    },
    {
      "midi": 67,
      "hit": false,
      "t": 55479.39749999992,
      "d": 179.79434374999983,
      "v": 81
    },
    {
      "midi": 72,
      "hit": false,
      "t": 55479.39749999992,
      "d": 179.79434374999983,
      "v": 81
    },
    {
      "midi": 76,
      "hit": false,
      "t": 55479.39749999992,
      "d": 179.79434374999983,
      "v": 81
    },
    {
      "midi": 48,
      "hit": false,
      "t": 55479.39750000002,
      "d": 218.3217031250024,
      "v": 88
    },
    {
      "midi": 72,
      "hit": false,
      "t": 55890.35599999992,
      "d": 663.5267447916631,
      "v": 81
    },
    {
      "midi": 76,
      "hit": false,
      "t": 55890.35599999992,
      "d": 663.5267447916631,
      "v": 81
    },
    {
      "midi": 67,
      "hit": false,
      "t": 55890.35599999992,
      "d": 676.3691979166615,
      "v": 81
    },
    {
      "midi": 48,
      "hit": false,
      "t": 55890.35600000002,
      "d": 646.4034739583367,
      "v": 88
    },
    {
      "midi": 88,
      "hit": false,
      "t": 55890.35600000002,
      "d": 821.9170000000013,
      "v": 69
    },
    {
      "midi": 55,
      "hit": false,
      "t": 56699.430546874995,
      "d": 192.63679687499825,
      "v": 47
    },
    {
      "midi": 60,
      "hit": false,
      "t": 56699.430546874995,
      "d": 192.63679687499825,
      "v": 47
    },
    {
      "midi": 64,
      "hit": false,
      "t": 56699.430546874995,
      "d": 192.63679687499825,
      "v": 47
    },
    {
      "midi": 67,
      "hit": false,
      "t": 56712.272999999914,
      "d": 111.30126041666517,
      "v": 81
    },
    {
      "midi": 48,
      "hit": false,
      "t": 56712.27300000002,
      "d": 136.9861666666693,
      "v": 88
    },
    {
      "midi": 88,
      "hit": false,
      "t": 56712.27300000002,
      "d": 205.47924999999668,
      "v": 69
    },
    {
      "midi": 67,
      "hit": false,
      "t": 56712.27300000003,
      "d": 205.47924999999668,
      "v": 84
    },
    {
      "midi": 72,
      "hit": false,
      "t": 56712.27300000003,
      "d": 205.47924999999668,
      "v": 84
    },
    {
      "midi": 76,
      "hit": false,
      "t": 56712.27300000003,
      "d": 205.47924999999668,
      "v": 84
    },
    {
      "midi": 72,
      "hit": false,
      "t": 56725.11545312491,
      "d": 128.42453124999884,
      "v": 81
    },
    {
      "midi": 76,
      "hit": false,
      "t": 56725.11545312491,
      "d": 128.42453124999884,
      "v": 81
    },
    {
      "midi": 74,
      "hit": false,
      "t": 56917.75224999991,
      "d": 616.4377499999973,
      "v": 81
    },
    {
      "midi": 78,
      "hit": false,
      "t": 56917.75224999991,
      "d": 616.4377499999973,
      "v": 81
    },
    {
      "midi": 69,
      "hit": false,
      "t": 56934.875520833244,
      "d": 599.3144791666637,
      "v": 81
    },
    {
      "midi": 57,
      "hit": false,
      "t": 56939.15633854166,
      "d": 569.3487552083316,
      "v": 47
    },
    {
      "midi": 62,
      "hit": false,
      "t": 56939.15633854166,
      "d": 569.3487552083316,
      "v": 47
    },
    {
      "midi": 66,
      "hit": false,
      "t": 56939.15633854166,
      "d": 569.3487552083316,
      "v": 47
    },
    {
      "midi": 90,
      "hit": false,
      "t": 56951.99879166669,
      "d": 582.19120833333,
      "v": 69
    },
    {
      "midi": 50,
      "hit": false,
      "t": 56951.998791666694,
      "d": 552.2254843749979,
      "v": 88
    },
    {
      "midi": 69,
      "hit": false,
      "t": 56951.998791666694,
      "d": 582.19120833333,
      "v": 84
    },
    {
      "midi": 74,
      "hit": false,
      "t": 56951.998791666694,
      "d": 582.19120833333,
      "v": 84
    },
    {
      "midi": 78,
      "hit": false,
      "t": 56951.998791666694,
      "d": 582.19120833333,
      "v": 84
    },
    {
      "midi": 55,
      "hit": false,
      "t": 57521.34754687499,
      "d": 1630.9915468749969,
      "v": 47
    },
    {
      "midi": 59,
      "hit": false,
      "t": 57521.34754687499,
      "d": 1630.9915468749969,
      "v": 47
    },
    {
      "midi": 62,
      "hit": false,
      "t": 57521.34754687499,
      "d": 1630.9915468749969,
      "v": 47
    },
    {
      "midi": 74,
      "hit": false,
      "t": 57534.18999999991,
      "d": 89.89717187500355,
      "v": 81
    },
    {
      "midi": 71,
      "hit": false,
      "t": 57534.18999999991,
      "d": 115.58207812500041,
      "v": 81
    },
    {
      "midi": 79,
      "hit": false,
      "t": 57534.18999999991,
      "d": 115.58207812500041,
      "v": 81
    },
    {
      "midi": 91,
      "hit": false,
      "t": 57534.19000000002,
      "d": 1643.8340000000026,
      "v": 69
    },
    {
      "midi": 43,
      "hit": false,
      "t": 57534.190000000024,
      "d": 94.17798958333151,
      "v": 88
    },
    {
      "midi": 67,
      "hit": false,
      "t": 57534.190000000024,
      "d": 1643.8340000000026,
      "v": 84
    },
    {
      "midi": 71,
      "hit": false,
      "t": 57534.190000000024,
      "d": 1643.8340000000026,
      "v": 84
    },
    {
      "midi": 74,
      "hit": false,
      "t": 57534.190000000024,
      "d": 1643.8340000000026,
      "v": 84
    },
    {
      "midi": 43,
      "hit": false,
      "t": 57739.66925000002,
      "d": 85.61635416666832,
      "v": 88
    },
    {
      "midi": 43,
      "hit": false,
      "t": 57945.148500000025,
      "d": 98.45880729166674,
      "v": 88
    },
    {
      "midi": 74,
      "hit": false,
      "t": 58150.627749999905,
      "d": 136.9861666666693,
      "v": 81
    },
    {
      "midi": 71,
      "hit": false,
      "t": 58150.627749999905,
      "d": 166.9518906250014,
      "v": 81
    },
    {
      "midi": 79,
      "hit": false,
      "t": 58150.627749999905,
      "d": 166.9518906250014,
      "v": 81
    },
    {
      "midi": 43,
      "hit": false,
      "t": 58150.62775000002,
      "d": 98.45880729166674,
      "v": 88
    },
    {
      "midi": 43,
      "hit": false,
      "t": 58356.10700000002,
      "d": 719.1773749999993,
      "v": 88
    },
    {
      "midi": 74,
      "hit": false,
      "t": 58771.34631770824,
      "d": 162.67107291666616,
      "v": 81
    },
    {
      "midi": 79,
      "hit": false,
      "t": 58771.34631770824,
      "d": 179.79434374999983,
      "v": 81
    },
    {
      "midi": 71,
      "hit": false,
      "t": 58771.34631770824,
      "d": 192.63679687499825,
      "v": 81
    },
    {
      "midi": 54,
      "hit": false,
      "t": 59165.181546874985,
      "d": 809.0745468750029,
      "v": 47
    },
    {
      "midi": 59,
      "hit": false,
      "t": 59165.181546874985,
      "d": 809.0745468750029,
      "v": 47
    },
    {
      "midi": 62,
      "hit": false,
      "t": 59165.181546874985,
      "d": 809.0745468750029,
      "v": 47
    },
    {
      "midi": 71,
      "hit": false,
      "t": 59178.0239999999,
      "d": 124.1437135416636,
      "v": 81
    },
    {
      "midi": 74,
      "hit": false,
      "t": 59178.0239999999,
      "d": 124.1437135416636,
      "v": 81
    },
    {
      "midi": 78,
      "hit": false,
      "t": 59178.0239999999,
      "d": 124.1437135416636,
      "v": 81
    },
    {
      "midi": 47,
      "hit": false,
      "t": 59178.02400000002,
      "d": 179.79434374999983,
      "v": 88
    },
    {
      "midi": 90,
      "hit": false,
      "t": 59178.02400000002,
      "d": 821.9170000000013,
      "v": 69
    },
    {
      "midi": 66,
      "hit": false,
      "t": 59178.02400000003,
      "d": 821.9170000000013,
      "v": 84
    },
    {
      "midi": 71,
      "hit": false,
      "t": 59178.02400000003,
      "d": 821.9170000000013,
      "v": 84
    },
    {
      "midi": 74,
      "hit": false,
      "t": 59178.02400000003,
      "d": 821.9170000000013,
      "v": 84
    },
    {
      "midi": 47,
      "hit": false,
      "t": 59451.99633333335,
      "d": 154.10943750000297,
      "v": 88
    },
    {
      "midi": 74,
      "hit": false,
      "t": 59469.11960416657,
      "d": 98.45880729166674,
      "v": 81
    },
    {
      "midi": 78,
      "hit": false,
      "t": 59469.11960416657,
      "d": 98.45880729166674,
      "v": 81
    },
    {
      "midi": 71,
      "hit": false,
      "t": 59469.11960416657,
      "d": 115.58207812500041,
      "v": 81
    },
    {
      "midi": 71,
      "hit": false,
      "t": 59725.968666666566,
      "d": 136.9861666666693,
      "v": 81
    },
    {
      "midi": 74,
      "hit": false,
      "t": 59725.968666666566,
      "d": 136.9861666666693,
      "v": 81
    },
    {
      "midi": 78,
      "hit": false,
      "t": 59725.968666666566,
      "d": 136.9861666666693,
      "v": 81
    },
    {
      "midi": 47,
      "hit": false,
      "t": 59725.96866666669,
      "d": 136.9861666666693,
      "v": 88
    },
    {
      "midi": 55,
      "hit": false,
      "t": 59987.098546874986,
      "d": 1630.9915468749969,
      "v": 47
    },
    {
      "midi": 60,
      "hit": false,
      "t": 59987.098546874986,
      "d": 1630.9915468749969,
      "v": 47
    },
    {
      "midi": 64,
      "hit": false,
      "t": 59987.098546874986,
      "d": 1630.9915468749969,
      "v": 47
    },
    {
      "midi": 72,
      "hit": false,
      "t": 59999.940999999904,
      "d": 192.63679687499825,
      "v": 81
    },
    {
      "midi": 67,
      "hit": false,
      "t": 59999.940999999904,
      "d": 196.9176145833335,
      "v": 81
    },
    {
      "midi": 76,
      "hit": false,
      "t": 59999.940999999904,
      "d": 196.9176145833335,
      "v": 81
    },
    {
      "midi": 88,
      "hit": false,
      "t": 59999.94100000002,
      "d": 821.9170000000013,
      "v": 69
    },
    {
      "midi": 48,
      "hit": false,
      "t": 59999.94100000003,
      "d": 192.63679687499825,
      "v": 88
    },
    {
      "midi": 67,
      "hit": false,
      "t": 59999.94100000003,
      "d": 1643.8340000000026,
      "v": 84
    },
    {
      "midi": 72,
      "hit": false,
      "t": 59999.94100000003,
      "d": 1643.8340000000026,
      "v": 84
    },
    {
      "midi": 76,
      "hit": false,
      "t": 59999.94100000003,
      "d": 1643.8340000000026,
      "v": 84
    },
    {
      "midi": 67,
      "hit": false,
      "t": 60410.899499999905,
      "d": 179.79434374999983,
      "v": 81
    },
    {
      "midi": 72,
      "hit": false,
      "t": 60410.899499999905,
      "d": 179.79434374999983,
      "v": 81
    },
    {
      "midi": 76,
      "hit": false,
      "t": 60410.899499999905,
      "d": 179.79434374999983,
      "v": 81
    },
    {
      "midi": 48,
      "hit": false,
      "t": 60410.89950000003,
      "d": 218.3217031250024,
      "v": 88
    },
    {
      "midi": 72,
      "hit": false,
      "t": 60821.857999999906,
      "d": 663.5267447916704,
      "v": 81
    },
    {
      "midi": 76,
      "hit": false,
      "t": 60821.857999999906,
      "d": 663.5267447916704,
      "v": 81
    },
    {
      "midi": 67,
      "hit": false,
      "t": 60821.857999999906,
      "d": 676.3691979166688,
      "v": 81
    },
    {
      "midi": 88,
      "hit": false,
      "t": 60821.85800000002,
      "d": 821.9170000000013,
      "v": 69
    },
    {
      "midi": 48,
      "hit": false,
      "t": 60821.85800000003,
      "d": 646.4034739583367,
      "v": 88
    },
    {
      "midi": 55,
      "hit": false,
      "t": 61630.93254687498,
      "d": 192.63679687499825,
      "v": 47
    },
    {
      "midi": 60,
      "hit": false,
      "t": 61630.93254687498,
      "d": 192.63679687499825,
      "v": 47
    },
    {
      "midi": 64,
      "hit": false,
      "t": 61630.93254687498,
      "d": 192.63679687499825,
      "v": 47
    },
    {
      "midi": 67,
      "hit": false,
      "t": 61643.77499999991,
      "d": 111.30126041666517,
      "v": 81
    },
    {
      "midi": 88,
      "hit": false,
      "t": 61643.77500000002,
      "d": 205.47924999999668,
      "v": 69
    },
    {
      "midi": 48,
      "hit": false,
      "t": 61643.77500000003,
      "d": 136.9861666666693,
      "v": 88
    },
    {
      "midi": 67,
      "hit": false,
      "t": 61643.77500000003,
      "d": 205.47924999999668,
      "v": 84
    },
    {
      "midi": 72,
      "hit": false,
      "t": 61643.77500000003,
      "d": 205.47924999999668,
      "v": 84
    },
    {
      "midi": 76,
      "hit": false,
      "t": 61643.77500000003,
      "d": 205.47924999999668,
      "v": 84
    },
    {
      "midi": 72,
      "hit": false,
      "t": 61656.617453124905,
      "d": 128.42453124999884,
      "v": 81
    },
    {
      "midi": 76,
      "hit": false,
      "t": 61656.617453124905,
      "d": 128.42453124999884,
      "v": 81
    },
    {
      "midi": 74,
      "hit": false,
      "t": 61849.2542499999,
      "d": 616.4377499999973,
      "v": 81
    },
    {
      "midi": 78,
      "hit": false,
      "t": 61849.2542499999,
      "d": 616.4377499999973,
      "v": 81
    },
    {
      "midi": 69,
      "hit": false,
      "t": 61866.37752083324,
      "d": 599.3144791666637,
      "v": 81
    },
    {
      "midi": 57,
      "hit": false,
      "t": 61870.658338541645,
      "d": 569.3487552083316,
      "v": 47
    },
    {
      "midi": 62,
      "hit": false,
      "t": 61870.658338541645,
      "d": 569.3487552083316,
      "v": 47
    },
    {
      "midi": 66,
      "hit": false,
      "t": 61870.658338541645,
      "d": 569.3487552083316,
      "v": 47
    },
    {
      "midi": 90,
      "hit": false,
      "t": 61883.50079166669,
      "d": 582.19120833333,
      "v": 69
    },
    {
      "midi": 69,
      "hit": false,
      "t": 61883.500791666695,
      "d": 582.19120833333,
      "v": 84
    },
    {
      "midi": 74,
      "hit": false,
      "t": 61883.500791666695,
      "d": 582.19120833333,
      "v": 84
    },
    {
      "midi": 78,
      "hit": false,
      "t": 61883.500791666695,
      "d": 582.19120833333,
      "v": 84
    },
    {
      "midi": 50,
      "hit": false,
      "t": 61883.5007916667,
      "d": 552.2254843749979,
      "v": 88
    },
    {
      "midi": 55,
      "hit": false,
      "t": 62452.849546874975,
      "d": 603.5952968749989,
      "v": 44
    },
    {
      "midi": 60,
      "hit": false,
      "t": 62452.849546874975,
      "d": 603.5952968749989,
      "v": 44
    },
    {
      "midi": 64,
      "hit": false,
      "t": 62452.849546874975,
      "d": 603.5952968749989,
      "v": 44
    },
    {
      "midi": 67,
      "hit": false,
      "t": 62465.6919999999,
      "d": 616.4377499999973,
      "v": 81
    },
    {
      "midi": 72,
      "hit": false,
      "t": 62465.6919999999,
      "d": 616.4377499999973,
      "v": 81
    },
    {
      "midi": 76,
      "hit": false,
      "t": 62465.6919999999,
      "d": 616.4377499999973,
      "v": 81
    },
    {
      "midi": 67,
      "hit": false,
      "t": 62465.692000000025,
      "d": 616.4377499999973,
      "v": 81
    },
    {
      "midi": 72,
      "hit": false,
      "t": 62465.692000000025,
      "d": 616.4377499999973,
      "v": 81
    },
    {
      "midi": 76,
      "hit": false,
      "t": 62465.692000000025,
      "d": 616.4377499999973,
      "v": 81
    },
    {
      "midi": 48,
      "hit": false,
      "t": 62465.69200000003,
      "d": 616.4377499999973,
      "v": 88
    },
    {
      "midi": 55,
      "hit": false,
      "t": 63103.53383854164,
      "d": 569.3487552083316,
      "v": 44
    },
    {
      "midi": 60,
      "hit": false,
      "t": 63103.53383854164,
      "d": 569.3487552083316,
      "v": 44
    },
    {
      "midi": 64,
      "hit": false,
      "t": 63103.53383854164,
      "d": 569.3487552083316,
      "v": 44
    },
    {
      "midi": 67,
      "hit": false,
      "t": 63116.376291666566,
      "d": 582.19120833333,
      "v": 81
    },
    {
      "midi": 72,
      "hit": false,
      "t": 63116.376291666566,
      "d": 582.19120833333,
      "v": 81
    },
    {
      "midi": 76,
      "hit": false,
      "t": 63116.376291666566,
      "d": 582.19120833333,
      "v": 81
    },
    {
      "midi": 67,
      "hit": false,
      "t": 63116.37629166669,
      "d": 582.19120833333,
      "v": 81
    },
    {
      "midi": 72,
      "hit": false,
      "t": 63116.37629166669,
      "d": 582.19120833333,
      "v": 81
    },
    {
      "midi": 76,
      "hit": false,
      "t": 63116.37629166669,
      "d": 582.19120833333,
      "v": 81
    },
    {
      "midi": 48,
      "hit": false,
      "t": 63116.3762916667,
      "d": 582.19120833333,
      "v": 88
    },
    {
      "midi": 57,
      "hit": false,
      "t": 63685.72504687497,
      "d": 603.5952968749989,
      "v": 44
    },
    {
      "midi": 62,
      "hit": false,
      "t": 63685.72504687497,
      "d": 603.5952968749989,
      "v": 44
    },
    {
      "midi": 66,
      "hit": false,
      "t": 63685.72504687497,
      "d": 603.5952968749989,
      "v": 44
    },
    {
      "midi": 69,
      "hit": false,
      "t": 63698.567499999896,
      "d": 616.4377499999973,
      "v": 81
    },
    {
      "midi": 74,
      "hit": false,
      "t": 63698.567499999896,
      "d": 616.4377499999973,
      "v": 81
    },
    {
      "midi": 78,
      "hit": false,
      "t": 63698.567499999896,
      "d": 616.4377499999973,
      "v": 81
    },
    {
      "midi": 69,
      "hit": false,
      "t": 63698.56750000002,
      "d": 616.4377499999973,
      "v": 81
    },
    {
      "midi": 74,
      "hit": false,
      "t": 63698.56750000002,
      "d": 616.4377499999973,
      "v": 81
    },
    {
      "midi": 78,
      "hit": false,
      "t": 63698.56750000002,
      "d": 616.4377499999973,
      "v": 81
    },
    {
      "midi": 50,
      "hit": false,
      "t": 63698.56750000003,
      "d": 616.4377499999973,
      "v": 88
    },
    {
      "midi": 57,
      "hit": false,
      "t": 64336.409338541634,
      "d": 569.3487552083316,
      "v": 44
    },
    {
      "midi": 62,
      "hit": false,
      "t": 64336.409338541634,
      "d": 569.3487552083316,
      "v": 44
    },
    {
      "midi": 66,
      "hit": false,
      "t": 64336.409338541634,
      "d": 569.3487552083316,
      "v": 44
    },
    {
      "midi": 69,
      "hit": false,
      "t": 64349.25179166656,
      "d": 582.19120833333,
      "v": 81
    },
    {
      "midi": 74,
      "hit": false,
      "t": 64349.25179166656,
      "d": 582.19120833333,
      "v": 81
    },
    {
      "midi": 78,
      "hit": false,
      "t": 64349.25179166656,
      "d": 582.19120833333,
      "v": 81
    },
    {
      "midi": 69,
      "hit": false,
      "t": 64349.251791666684,
      "d": 582.19120833333,
      "v": 81
    },
    {
      "midi": 74,
      "hit": false,
      "t": 64349.251791666684,
      "d": 582.19120833333,
      "v": 81
    },
    {
      "midi": 78,
      "hit": false,
      "t": 64349.251791666684,
      "d": 582.19120833333,
      "v": 81
    },
    {
      "midi": 50,
      "hit": false,
      "t": 64349.25179166669,
      "d": 582.19120833333,
      "v": 88
    },
    {
      "midi": 60,
      "hit": false,
      "t": 64918.600546874964,
      "d": 3274.8255468749994,
      "v": 44
    },
    {
      "midi": 64,
      "hit": false,
      "t": 64918.600546874964,
      "d": 3274.8255468749994,
      "v": 44
    },
    {
      "midi": 67,
      "hit": false,
      "t": 64918.600546874964,
      "d": 3274.8255468749994,
      "v": 44
    },
    {
      "midi": 72,
      "hit": false,
      "t": 64931.44299999989,
      "d": 3287.667999999998,
      "v": 81
    },
    {
      "midi": 76,
      "hit": false,
      "t": 64931.44299999989,
      "d": 3287.667999999998,
      "v": 81
    },
    {
      "midi": 79,
      "hit": false,
      "t": 64931.44299999989,
      "d": 3287.667999999998,
      "v": 81
    },
    {
      "midi": 72,
      "hit": false,
      "t": 64931.443000000014,
      "d": 3287.668000000005,
      "v": 81
    },
    {
      "midi": 76,
      "hit": false,
      "t": 64931.443000000014,
      "d": 3287.668000000005,
      "v": 81
    },
    {
      "midi": 79,
      "hit": false,
      "t": 64931.443000000014,
      "d": 3287.668000000005,
      "v": 81
    },
    {
      "midi": 52,
      "hit": false,
      "t": 64931.44300000002,
      "d": 3287.667999999998,
      "v": 88
    },
    {
      "midi": 45,
      "hit": false,
      "t": 68219.11100000002,
      "d": 98.45880729166674,
      "v": 88
    },
    {
      "midi": 72,
      "hit": false,
      "t": 68219.11100000002,
      "d": 94.17798958333151,
      "v": 84
    },
    {
      "midi": 81,
      "hit": false,
      "t": 68219.11100000002,
      "d": 196.9176145833335,
      "v": 84
    },
    {
      "midi": 76,
      "hit": false,
      "t": 68219.11100000002,
      "d": 214.04088541667443,
      "v": 84
    },
    {
      "midi": 45,
      "hit": false,
      "t": 68424.59025000002,
      "d": 162.67107291666616,
      "v": 88
    },
    {
      "midi": 72,
      "hit": false,
      "t": 68424.59025000002,
      "d": 124.1437135416636,
      "v": 84
    },
    {
      "midi": 48,
      "hit": false,
      "t": 68630.06950000003,
      "d": 111.30126041667245,
      "v": 88
    },
    {
      "midi": 72,
      "hit": false,
      "t": 68630.06950000003,
      "d": 192.63679687499825,
      "v": 84
    },
    {
      "midi": 76,
      "hit": false,
      "t": 68630.06950000003,
      "d": 214.04088541665988,
      "v": 84
    },
    {
      "midi": 81,
      "hit": false,
      "t": 68630.06950000003,
      "d": 214.04088541665988,
      "v": 84
    },
    {
      "midi": 48,
      "hit": false,
      "t": 68835.54875000003,
      "d": 154.1094374999957,
      "v": 88
    },
    {
      "midi": 45,
      "hit": false,
      "t": 69041.02800000002,
      "d": 231.16415625000081,
      "v": 88
    },
    {
      "midi": 72,
      "hit": false,
      "t": 69451.98650000001,
      "d": 141.26698437500454,
      "v": 84
    },
    {
      "midi": 76,
      "hit": false,
      "t": 69451.98650000001,
      "d": 158.39025520833093,
      "v": 84
    },
    {
      "midi": 81,
      "hit": false,
      "t": 69451.98650000001,
      "d": 158.39025520833093,
      "v": 84
    },
    {
      "midi": 72,
      "hit": false,
      "t": 69862.945,
      "d": 145.54780208333977,
      "v": 84
    },
    {
      "midi": 83,
      "hit": false,
      "t": 69862.945,
      "d": 214.04088541667443,
      "v": 84
    },
    {
      "midi": 76,
      "hit": false,
      "t": 69862.945,
      "d": 248.28742708334175,
      "v": 84
    },
    {
      "midi": 72,
      "hit": false,
      "t": 70068.42425000001,
      "d": 119.86289583334292,
      "v": 84
    },
    {
      "midi": 55,
      "hit": false,
      "t": 70273.90350000001,
      "d": 166.9518906250014,
      "v": 88
    },
    {
      "midi": 72,
      "hit": false,
      "t": 70273.90350000001,
      "d": 209.7600677083392,
      "v": 84
    },
    {
      "midi": 83,
      "hit": false,
      "t": 70273.90350000001,
      "d": 226.88333854166558,
      "v": 84
    },
    {
      "midi": 76,
      "hit": false,
      "t": 70273.90350000001,
      "d": 244.00660937499197,
      "v": 84
    },
    {
      "midi": 54,
      "hit": false,
      "t": 70479.38275000002,
      "d": 149.82861979166046,
      "v": 88
    },
    {
      "midi": 55,
      "hit": false,
      "t": 70684.86200000001,
      "d": 316.78051041666185,
      "v": 88
    },
    {
      "midi": 72,
      "hit": false,
      "t": 71095.8205,
      "d": 175.51352604167187,
      "v": 84
    },
    {
      "midi": 76,
      "hit": false,
      "t": 71095.8205,
      "d": 175.51352604167187,
      "v": 84
    },
    {
      "midi": 83,
      "hit": false,
      "t": 71095.8205,
      "d": 175.51352604167187,
      "v": 84
    },
    {
      "midi": 45,
      "hit": false,
      "t": 71506.77900000001,
      "d": 98.45880729166674,
      "v": 88
    },
    {
      "midi": 72,
      "hit": false,
      "t": 71506.77900000001,
      "d": 119.86289583332837,
      "v": 84
    },
    {
      "midi": 81,
      "hit": false,
      "t": 71506.77900000001,
      "d": 192.63679687499825,
      "v": 84
    },
    {
      "midi": 76,
      "hit": false,
      "t": 71506.77900000001,
      "d": 226.88333854166558,
      "v": 84
    },
    {
      "midi": 45,
      "hit": false,
      "t": 71712.25825000001,
      "d": 162.67107291666616,
      "v": 88
    },
    {
      "midi": 72,
      "hit": false,
      "t": 71712.25825000001,
      "d": 124.1437135416636,
      "v": 84
    },
    {
      "midi": 48,
      "hit": false,
      "t": 71917.73750000002,
      "d": 111.30126041667245,
      "v": 88
    },
    {
      "midi": 72,
      "hit": false,
      "t": 71917.73750000002,
      "d": 222.60252083333035,
      "v": 84
    },
    {
      "midi": 81,
      "hit": false,
      "t": 71917.73750000002,
      "d": 239.72579166665673,
      "v": 84
    },
    {
      "midi": 76,
      "hit": false,
      "t": 71917.73750000002,
      "d": 244.00660937499197,
      "v": 84
    },
    {
      "midi": 48,
      "hit": false,
      "t": 72123.21675000002,
      "d": 119.86289583332837,
      "v": 88
    },
    {
      "midi": 45,
      "hit": false,
      "t": 72328.69600000001,
      "d": 261.1298802083329,
      "v": 88
    },
    {
      "midi": 72,
      "hit": false,
      "t": 72739.6545,
      "d": 149.82861979166046,
      "v": 84
    },
    {
      "midi": 76,
      "hit": false,
      "t": 72739.6545,
      "d": 149.82861979166046,
      "v": 84
    },
    {
      "midi": 81,
      "hit": false,
      "t": 72739.6545,
      "d": 149.82861979166046,
      "v": 84
    },
    {
      "midi": 72,
      "hit": false,
      "t": 73150.613,
      "d": 119.86289583332837,
      "v": 84
    },
    {
      "midi": 76,
      "hit": false,
      "t": 73150.613,
      "d": 214.04088541665988,
      "v": 84
    },
    {
      "midi": 83,
      "hit": false,
      "t": 73150.613,
      "d": 214.04088541665988,
      "v": 84
    },
    {
      "midi": 72,
      "hit": false,
      "t": 73356.09224999999,
      "d": 111.30126041667245,
      "v": 84
    },
    {
      "midi": 72,
      "hit": false,
      "t": 73561.57149999999,
      "d": 214.04088541665988,
      "v": 84
    },
    {
      "midi": 83,
      "hit": false,
      "t": 73561.57149999999,
      "d": 214.04088541665988,
      "v": 84
    },
    {
      "midi": 76,
      "hit": false,
      "t": 73561.57149999999,
      "d": 231.16415624998626,
      "v": 84
    },
    {
      "midi": 45,
      "hit": false,
      "t": 73561.5715,
      "d": 85.61635416666104,
      "v": 88
    },
    {
      "midi": 45,
      "hit": false,
      "t": 73767.05075,
      "d": 149.82861979166046,
      "v": 88
    },
    {
      "midi": 47,
      "hit": false,
      "t": 73972.52999999998,
      "d": 363.8695052083349,
      "v": 88
    },
    {
      "midi": 72,
      "hit": false,
      "t": 74383.48849999998,
      "d": 171.23270833333663,
      "v": 84
    },
    {
      "midi": 83,
      "hit": false,
      "t": 74383.48849999998,
      "d": 171.23270833333663,
      "v": 84
    },
    {
      "midi": 76,
      "hit": false,
      "t": 74383.48849999998,
      "d": 175.51352604167187,
      "v": 84
    },
    {
      "midi": 43,
      "hit": false,
      "t": 74794.44699999999,
      "d": 72.77390104166989,
      "v": 88
    },
    {
      "midi": 67,
      "hit": false,
      "t": 74794.44699999999,
      "d": 1643.8340000000026,
      "v": 84
    },
    {
      "midi": 71,
      "hit": false,
      "t": 74794.44699999999,
      "d": 1643.8340000000026,
      "v": 84
    },
    {
      "midi": 74,
      "hit": false,
      "t": 74794.44699999999,
      "d": 1643.8340000000026,
      "v": 84
    },
    {
      "midi": 43,
      "hit": false,
      "t": 74999.92624999999,
      "d": 244.00660937500652,
      "v": 88
    },
    {
      "midi": 71,
      "hit": false,
      "t": 75205.40549999989,
      "d": 248.2874270833272,
      "v": 81
    },
    {
      "midi": 74,
      "hit": false,
      "t": 75205.40549999989,
      "d": 248.2874270833272,
      "v": 81
    },
    {
      "midi": 79,
      "hit": false,
      "t": 75205.40549999989,
      "d": 248.2874270833272,
      "v": 81
    },
    {
      "midi": 43,
      "hit": false,
      "t": 75616.364,
      "d": 107.02044270833721,
      "v": 88
    },
    {
      "midi": 43,
      "hit": false,
      "t": 75821.84325,
      "d": 205.47925000000396,
      "v": 88
    },
    {
      "midi": 74,
      "hit": false,
      "t": 76027.32249999988,
      "d": 218.3217031249951,
      "v": 81
    },
    {
      "midi": 79,
      "hit": false,
      "t": 76027.32249999988,
      "d": 222.60252083333035,
      "v": 81
    },
    {
      "midi": 71,
      "hit": false,
      "t": 76027.32249999988,
      "d": 235.44497395833605,
      "v": 81
    },
    {
      "midi": 79,
      "hit": false,
      "t": 76643.76024999988,
      "d": 205.47925000000396,
      "v": 81
    },
    {
      "midi": 91,
      "hit": false,
      "t": 76643.76024999988,
      "d": 205.47925000000396,
      "v": 81
    },
    {
      "midi": 79,
      "hit": false,
      "t": 76643.76024999999,
      "d": 205.47925000000396,
      "v": 84
    },
    {
      "midi": 55,
      "hit": false,
      "t": 76643.76025,
      "d": 162.67107291666616,
      "v": 88
    },
    {
      "midi": 76,
      "hit": false,
      "t": 76849.23949999988,
      "d": 205.47925000000396,
      "v": 81
    },
    {
      "midi": 88,
      "hit": false,
      "t": 76849.23949999988,
      "d": 205.47925000000396,
      "v": 81
    },
    {
      "midi": 76,
      "hit": false,
      "t": 76849.2395,
      "d": 205.47925000000396,
      "v": 84
    },
    {
      "midi": 52,
      "hit": false,
      "t": 76849.23950000001,
      "d": 149.82861979166046,
      "v": 88
    },
    {
      "midi": 72,
      "hit": false,
      "t": 77054.71874999988,
      "d": 205.47925000000396,
      "v": 81
    },
    {
      "midi": 84,
      "hit": false,
      "t": 77054.71874999988,
      "d": 205.47925000000396,
      "v": 81
    },
    {
      "midi": 48,
      "hit": false,
      "t": 77054.71875,
      "d": 175.51352604167187,
      "v": 88
    },
    {
      "midi": 72,
      "hit": false,
      "t": 77054.71875,
      "d": 205.47925000000396,
      "v": 84
    },
    {
      "midi": 74,
      "hit": false,
      "t": 77260.19799999989,
      "d": 205.47925000000396,
      "v": 81
    },
    {
      "midi": 86,
      "hit": false,
      "t": 77260.19799999989,
      "d": 205.47925000000396,
      "v": 81
    },
    {
      "midi": 50,
      "hit": false,
      "t": 77260.198,
      "d": 273.9723333333386,
      "v": 88
    },
    {
      "midi": 74,
      "hit": false,
      "t": 77260.198,
      "d": 205.47925000000396,
      "v": 84
    },
    {
      "midi": 43,
      "hit": false,
      "t": 78082.115,
      "d": 107.02044270833721,
      "v": 88
    },
    {
      "midi": 67,
      "hit": false,
      "t": 78082.115,
      "d": 1643.8340000000026,
      "v": 84
    },
    {
      "midi": 71,
      "hit": false,
      "t": 78082.115,
      "d": 1643.8340000000026,
      "v": 84
    },
    {
      "midi": 74,
      "hit": false,
      "t": 78082.115,
      "d": 1643.8340000000026,
      "v": 84
    },
    {
      "midi": 43,
      "hit": false,
      "t": 78287.59425000001,
      "d": 201.19843229166872,
      "v": 88
    },
    {
      "midi": 74,
      "hit": false,
      "t": 78493.0734999999,
      "d": 218.3217031249951,
      "v": 81
    },
    {
      "midi": 79,
      "hit": false,
      "t": 78493.0734999999,
      "d": 218.3217031249951,
      "v": 81
    },
    {
      "midi": 71,
      "hit": false,
      "t": 78493.0734999999,
      "d": 235.4449739583215,
      "v": 81
    },
    {
      "midi": 43,
      "hit": false,
      "t": 78904.032,
      "d": 111.30126041667245,
      "v": 88
    },
    {
      "midi": 43,
      "hit": false,
      "t": 79109.51125000001,
      "d": 231.16415625000081,
      "v": 88
    },
    {
      "midi": 74,
      "hit": false,
      "t": 79314.99049999988,
      "d": 222.60252083333035,
      "v": 81
    },
    {
      "midi": 71,
      "hit": false,
      "t": 79314.99049999988,
      "d": 235.44497395833605,
      "v": 81
    },
    {
      "midi": 79,
      "hit": false,
      "t": 79314.99049999988,
      "d": 252.56824479166244,
      "v": 81
    },
    {
      "midi": 79,
      "hit": false,
      "t": 79931.42824999988,
      "d": 205.47925000000396,
      "v": 81
    },
    {
      "midi": 91,
      "hit": false,
      "t": 79931.42824999988,
      "d": 205.47925000000396,
      "v": 81
    },
    {
      "midi": 55,
      "hit": false,
      "t": 79931.42825000001,
      "d": 188.35597916666302,
      "v": 88
    },
    {
      "midi": 79,
      "hit": false,
      "t": 79931.42825000001,
      "d": 205.47925000000396,
      "v": 84
    },
    {
      "midi": 76,
      "hit": false,
      "t": 80136.90749999988,
      "d": 205.47925000000396,
      "v": 81
    },
    {
      "midi": 88,
      "hit": false,
      "t": 80136.90749999988,
      "d": 205.47925000000396,
      "v": 81
    },
    {
      "midi": 52,
      "hit": false,
      "t": 80136.9075,
      "d": 145.54780208333977,
      "v": 88
    },
    {
      "midi": 76,
      "hit": false,
      "t": 80136.90750000002,
      "d": 205.47925000000396,
      "v": 84
    },
    {
      "midi": 84,
      "hit": false,
      "t": 80342.38674999989,
      "d": 205.47925000000396,
      "v": 81
    },
    {
      "midi": 48,
      "hit": false,
      "t": 80342.38675,
      "d": 162.67107291666616,
      "v": 88
    },
    {
      "midi": 72,
      "hit": false,
      "t": 80342.38675000002,
      "d": 205.47925000000396,
      "v": 84
    },
    {
      "midi": 74,
      "hit": false,
      "t": 80547.86599999989,
      "d": 205.47925000000396,
      "v": 81
    },
    {
      "midi": 86,
      "hit": false,
      "t": 80547.86599999989,
      "d": 205.47925000000396,
      "v": 81
    },
    {
      "midi": 50,
      "hit": false,
      "t": 80547.86600000001,
      "d": 231.16415625000081,
      "v": 88
    },
    {
      "midi": 74,
      "hit": false,
      "t": 80547.86600000002,
      "d": 205.47925000000396,
      "v": 84
    },
    {
      "midi": 74,
      "hit": false,
      "t": 80950.26286458323,
      "d": 295.37642187500023,
      "v": 81
    },
    {
      "midi": 45,
      "hit": false,
      "t": 81369.78300000001,
      "d": 98.45880729166674,
      "v": 88
    },
    {
      "midi": 72,
      "hit": false,
      "t": 81369.78300000002,
      "d": 94.17798958333151,
      "v": 84
    },
    {
      "midi": 81,
      "hit": false,
      "t": 81369.78300000002,
      "d": 196.9176145833335,
      "v": 84
    },
    {
      "midi": 76,
      "hit": false,
      "t": 81369.78300000002,
      "d": 214.04088541667443,
      "v": 84
    },
    {
      "midi": 45,
      "hit": false,
      "t": 81575.26225000001,
      "d": 162.67107291666616,
      "v": 88
    },
    {
      "midi": 72,
      "hit": false,
      "t": 81575.26225000003,
      "d": 124.1437135416636,
      "v": 84
    },
    {
      "midi": 48,
      "hit": false,
      "t": 81780.74150000002,
      "d": 111.30126041667245,
      "v": 88
    },
    {
      "midi": 72,
      "hit": false,
      "t": 81780.74150000003,
      "d": 192.63679687499825,
      "v": 84
    },
    {
      "midi": 76,
      "hit": false,
      "t": 81780.74150000003,
      "d": 214.04088541665988,
      "v": 84
    },
    {
      "midi": 81,
      "hit": false,
      "t": 81780.74150000003,
      "d": 214.04088541665988,
      "v": 84
    },
    {
      "midi": 48,
      "hit": false,
      "t": 81986.22075000002,
      "d": 154.1094374999957,
      "v": 88
    },
    {
      "midi": 45,
      "hit": false,
      "t": 82191.70000000001,
      "d": 231.16415625000081,
      "v": 88
    },
    {
      "midi": 72,
      "hit": false,
      "t": 82602.65850000002,
      "d": 141.26698437500454,
      "v": 84
    },
    {
      "midi": 76,
      "hit": false,
      "t": 82602.65850000002,
      "d": 158.39025520833093,
      "v": 84
    },
    {
      "midi": 81,
      "hit": false,
      "t": 82602.65850000002,
      "d": 158.39025520833093,
      "v": 84
    },
    {
      "midi": 72,
      "hit": false,
      "t": 83013.61700000001,
      "d": 145.54780208333977,
      "v": 84
    },
    {
      "midi": 83,
      "hit": false,
      "t": 83013.61700000001,
      "d": 214.04088541667443,
      "v": 84
    },
    {
      "midi": 76,
      "hit": false,
      "t": 83013.61700000001,
      "d": 248.28742708334175,
      "v": 84
    },
    {
      "midi": 72,
      "hit": false,
      "t": 83219.09625000002,
      "d": 119.86289583334292,
      "v": 84
    },
    {
      "midi": 55,
      "hit": false,
      "t": 83424.5755,
      "d": 166.9518906250014,
      "v": 88
    },
    {
      "midi": 72,
      "hit": false,
      "t": 83424.57550000002,
      "d": 209.7600677083392,
      "v": 84
    },
    {
      "midi": 83,
      "hit": false,
      "t": 83424.57550000002,
      "d": 226.88333854166558,
      "v": 84
    },
    {
      "midi": 76,
      "hit": false,
      "t": 83424.57550000002,
      "d": 244.00660937499197,
      "v": 84
    },
    {
      "midi": 54,
      "hit": false,
      "t": 83630.05475000001,
      "d": 149.82861979166046,
      "v": 88
    },
    {
      "midi": 55,
      "hit": false,
      "t": 83835.534,
      "d": 316.78051041666185,
      "v": 88
    },
    {
      "midi": 72,
      "hit": false,
      "t": 84246.49250000001,
      "d": 175.51352604167187,
      "v": 84
    },
    {
      "midi": 76,
      "hit": false,
      "t": 84246.49250000001,
      "d": 175.51352604167187,
      "v": 84
    },
    {
      "midi": 83,
      "hit": false,
      "t": 84246.49250000001,
      "d": 175.51352604167187,
      "v": 84
    },
    {
      "midi": 45,
      "hit": false,
      "t": 84657.451,
      "d": 98.45880729166674,
      "v": 88
    },
    {
      "midi": 72,
      "hit": false,
      "t": 84657.45100000002,
      "d": 119.86289583332837,
      "v": 84
    },
    {
      "midi": 81,
      "hit": false,
      "t": 84657.45100000002,
      "d": 192.63679687499825,
      "v": 84
    },
    {
      "midi": 76,
      "hit": false,
      "t": 84657.45100000002,
      "d": 226.88333854166558,
      "v": 84
    },
    {
      "midi": 45,
      "hit": false,
      "t": 84862.93025,
      "d": 162.67107291666616,
      "v": 88
    },
    {
      "midi": 72,
      "hit": false,
      "t": 84862.93025000002,
      "d": 124.1437135416636,
      "v": 84
    },
    {
      "midi": 48,
      "hit": false,
      "t": 85068.40950000001,
      "d": 111.30126041667245,
      "v": 88
    },
    {
      "midi": 72,
      "hit": false,
      "t": 85068.40950000002,
      "d": 222.60252083333035,
      "v": 84
    },
    {
      "midi": 81,
      "hit": false,
      "t": 85068.40950000002,
      "d": 239.72579166665673,
      "v": 84
    },
    {
      "midi": 76,
      "hit": false,
      "t": 85068.40950000002,
      "d": 244.00660937499197,
      "v": 84
    },
    {
      "midi": 48,
      "hit": false,
      "t": 85273.88875000001,
      "d": 119.86289583332837,
      "v": 88
    },
    {
      "midi": 45,
      "hit": false,
      "t": 85479.368,
      "d": 261.1298802083329,
      "v": 88
    },
    {
      "midi": 72,
      "hit": false,
      "t": 85890.32650000001,
      "d": 149.82861979166046,
      "v": 84
    },
    {
      "midi": 76,
      "hit": false,
      "t": 85890.32650000001,
      "d": 149.82861979166046,
      "v": 84
    },
    {
      "midi": 81,
      "hit": false,
      "t": 85890.32650000001,
      "d": 149.82861979166046,
      "v": 84
    },
    {
      "midi": 72,
      "hit": false,
      "t": 86301.285,
      "d": 119.86289583332837,
      "v": 84
    },
    {
      "midi": 76,
      "hit": false,
      "t": 86301.285,
      "d": 214.04088541665988,
      "v": 84
    },
    {
      "midi": 83,
      "hit": false,
      "t": 86301.285,
      "d": 214.04088541665988,
      "v": 84
    },
    {
      "midi": 72,
      "hit": false,
      "t": 86506.76425,
      "d": 111.30126041667245,
      "v": 84
    },
    {
      "midi": 45,
      "hit": false,
      "t": 86712.2435,
      "d": 85.61635416666104,
      "v": 88
    },
    {
      "midi": 72,
      "hit": false,
      "t": 86712.2435,
      "d": 214.04088541665988,
      "v": 84
    },
    {
      "midi": 83,
      "hit": false,
      "t": 86712.2435,
      "d": 214.04088541665988,
      "v": 84
    },
    {
      "midi": 76,
      "hit": false,
      "t": 86712.2435,
      "d": 231.16415624998626,
      "v": 84
    },
    {
      "midi": 45,
      "hit": false,
      "t": 86917.72274999999,
      "d": 149.82861979166046,
      "v": 88
    },
    {
      "midi": 47,
      "hit": false,
      "t": 87123.20199999998,
      "d": 363.8695052083349,
      "v": 88
    },
    {
      "midi": 72,
      "hit": false,
      "t": 87534.16049999998,
      "d": 171.23270833333663,
      "v": 84
    },
    {
      "midi": 83,
      "hit": false,
      "t": 87534.16049999998,
      "d": 171.23270833333663,
      "v": 84
    },
    {
      "midi": 76,
      "hit": false,
      "t": 87534.16049999998,
      "d": 175.51352604167187,
      "v": 84
    },
    {
      "midi": 43,
      "hit": false,
      "t": 87945.11899999998,
      "d": 72.77390104166989,
      "v": 88
    },
    {
      "midi": 67,
      "hit": false,
      "t": 87945.11899999999,
      "d": 1643.8340000000026,
      "v": 84
    },
    {
      "midi": 71,
      "hit": false,
      "t": 87945.11899999999,
      "d": 1643.8340000000026,
      "v": 84
    },
    {
      "midi": 74,
      "hit": false,
      "t": 87945.11899999999,
      "d": 1643.8340000000026,
      "v": 84
    },
    {
      "midi": 43,
      "hit": false,
      "t": 88150.59824999998,
      "d": 244.00660937500652,
      "v": 88
    },
    {
      "midi": 71,
      "hit": false,
      "t": 88356.0774999999,
      "d": 248.2874270833272,
      "v": 81
    },
    {
      "midi": 74,
      "hit": false,
      "t": 88356.0774999999,
      "d": 248.2874270833272,
      "v": 81
    },
    {
      "midi": 79,
      "hit": false,
      "t": 88356.0774999999,
      "d": 248.2874270833272,
      "v": 81
    },
    {
      "midi": 43,
      "hit": false,
      "t": 88767.036,
      "d": 107.02044270833721,
      "v": 88
    },
    {
      "midi": 43,
      "hit": false,
      "t": 88972.51525,
      "d": 205.47925000000396,
      "v": 88
    },
    {
      "midi": 74,
      "hit": false,
      "t": 89177.99449999988,
      "d": 218.3217031249951,
      "v": 81
    },
    {
      "midi": 79,
      "hit": false,
      "t": 89177.99449999988,
      "d": 222.60252083333035,
      "v": 81
    },
    {
      "midi": 71,
      "hit": false,
      "t": 89177.99449999988,
      "d": 235.44497395833605,
      "v": 81
    },
    {
      "midi": 79,
      "hit": false,
      "t": 89794.43224999988,
      "d": 205.47925000000396,
      "v": 81
    },
    {
      "midi": 91,
      "hit": false,
      "t": 89794.43224999988,
      "d": 205.47925000000396,
      "v": 81
    },
    {
      "midi": 55,
      "hit": false,
      "t": 89794.43225,
      "d": 162.67107291666616,
      "v": 88
    },
    {
      "midi": 79,
      "hit": false,
      "t": 89794.43225,
      "d": 205.47925000000396,
      "v": 84
    },
    {
      "midi": 76,
      "hit": false,
      "t": 89999.91149999989,
      "d": 205.47925000000396,
      "v": 81
    },
    {
      "midi": 88,
      "hit": false,
      "t": 89999.91149999989,
      "d": 205.47925000000396,
      "v": 81
    },
    {
      "midi": 52,
      "hit": false,
      "t": 89999.9115,
      "d": 149.82861979166046,
      "v": 88
    },
    {
      "midi": 76,
      "hit": false,
      "t": 89999.9115,
      "d": 205.47925000000396,
      "v": 84
    },
    {
      "midi": 72,
      "hit": false,
      "t": 90205.39074999989,
      "d": 205.47925000000396,
      "v": 81
    },
    {
      "midi": 84,
      "hit": false,
      "t": 90205.39074999989,
      "d": 205.47925000000396,
      "v": 81
    },
    {
      "midi": 48,
      "hit": false,
      "t": 90205.39074999999,
      "d": 175.51352604167187,
      "v": 88
    },
    {
      "midi": 72,
      "hit": false,
      "t": 90205.39075,
      "d": 205.47925000000396,
      "v": 84
    },
    {
      "midi": 74,
      "hit": false,
      "t": 90410.8699999999,
      "d": 205.47925000000396,
      "v": 81
    },
    {
      "midi": 86,
      "hit": false,
      "t": 90410.8699999999,
      "d": 205.47925000000396,
      "v": 81
    },
    {
      "midi": 50,
      "hit": false,
      "t": 90410.87,
      "d": 273.9723333333386,
      "v": 88
    },
    {
      "midi": 74,
      "hit": false,
      "t": 90410.87000000001,
      "d": 205.47925000000396,
      "v": 84
    },
    {
      "midi": 43,
      "hit": false,
      "t": 91232.787,
      "d": 107.02044270833721,
      "v": 88
    },
    {
      "midi": 67,
      "hit": false,
      "t": 91232.78700000001,
      "d": 1643.8340000000026,
      "v": 84
    },
    {
      "midi": 71,
      "hit": false,
      "t": 91232.78700000001,
      "d": 1643.8340000000026,
      "v": 84
    },
    {
      "midi": 74,
      "hit": false,
      "t": 91232.78700000001,
      "d": 1643.8340000000026,
      "v": 84
    },
    {
      "midi": 43,
      "hit": false,
      "t": 91438.26625,
      "d": 201.19843229166872,
      "v": 88
    },
    {
      "midi": 74,
      "hit": false,
      "t": 91643.7454999999,
      "d": 218.3217031249951,
      "v": 81
    },
    {
      "midi": 79,
      "hit": false,
      "t": 91643.7454999999,
      "d": 218.3217031249951,
      "v": 81
    },
    {
      "midi": 71,
      "hit": false,
      "t": 91643.7454999999,
      "d": 235.4449739583215,
      "v": 81
    },
    {
      "midi": 43,
      "hit": false,
      "t": 92054.704,
      "d": 111.30126041667245,
      "v": 88
    },
    {
      "midi": 43,
      "hit": false,
      "t": 92260.18325,
      "d": 231.16415625000081,
      "v": 88
    },
    {
      "midi": 74,
      "hit": false,
      "t": 92465.66249999989,
      "d": 222.60252083333035,
      "v": 81
    },
    {
      "midi": 71,
      "hit": false,
      "t": 92465.66249999989,
      "d": 235.44497395833605,
      "v": 81
    },
    {
      "midi": 79,
      "hit": false,
      "t": 92465.66249999989,
      "d": 252.56824479166244,
      "v": 81
    },
    {
      "midi": 79,
      "hit": false,
      "t": 93082.10024999989,
      "d": 205.47925000000396,
      "v": 81
    },
    {
      "midi": 91,
      "hit": false,
      "t": 93082.10024999989,
      "d": 205.47925000000396,
      "v": 81
    },
    {
      "midi": 55,
      "hit": false,
      "t": 93082.10025,
      "d": 188.35597916666302,
      "v": 88
    },
    {
      "midi": 79,
      "hit": false,
      "t": 93082.10025000002,
      "d": 205.47925000000396,
      "v": 84
    },
    {
      "midi": 76,
      "hit": false,
      "t": 93287.57949999989,
      "d": 205.47925000000396,
      "v": 81
    },
    {
      "midi": 88,
      "hit": false,
      "t": 93287.57949999989,
      "d": 205.47925000000396,
      "v": 81
    },
    {
      "midi": 52,
      "hit": false,
      "t": 93287.57949999999,
      "d": 145.54780208333977,
      "v": 88
    },
    {
      "midi": 76,
      "hit": false,
      "t": 93287.57950000002,
      "d": 205.47925000000396,
      "v": 84
    },
    {
      "midi": 84,
      "hit": false,
      "t": 93493.0587499999,
      "d": 205.47925000000396,
      "v": 81
    },
    {
      "midi": 48,
      "hit": false,
      "t": 93493.05875,
      "d": 162.67107291666616,
      "v": 88
    },
    {
      "midi": 72,
      "hit": false,
      "t": 93493.05875000003,
      "d": 205.47925000000396,
      "v": 84
    },
    {
      "midi": 74,
      "hit": false,
      "t": 93698.5379999999,
      "d": 205.47925000000396,
      "v": 81
    },
    {
      "midi": 86,
      "hit": false,
      "t": 93698.5379999999,
      "d": 205.47925000000396,
      "v": 81
    },
    {
      "midi": 50,
      "hit": false,
      "t": 93698.538,
      "d": 231.16415625000081,
      "v": 88
    },
    {
      "midi": 74,
      "hit": false,
      "t": 93698.53800000003,
      "d": 205.47925000000396,
      "v": 84
    },
    {
      "midi": 75,
      "hit": false,
      "t": 94100.93486458324,
      "d": 295.37642187500023,
      "v": 81
    },
    {
      "midi": 52,
      "hit": false,
      "t": 94520.455,
      "d": 38.52735937500256,
      "v": 88
    },
    {
      "midi": 88,
      "hit": false,
      "t": 94520.45500000002,
      "d": 3253.421458333338,
      "v": 73
    },
    {
      "midi": 67,
      "hit": false,
      "t": 94520.45500000003,
      "d": 1643.8340000000026,
      "v": 84
    },
    {
      "midi": 71,
      "hit": false,
      "t": 94520.45500000003,
      "d": 1643.8340000000026,
      "v": 84
    },
    {
      "midi": 76,
      "hit": false,
      "t": 94520.45500000003,
      "d": 1643.8340000000026,
      "v": 84
    },
    {
      "midi": 52,
      "hit": false,
      "t": 94695.96852604167,
      "d": 55.65063020832895,
      "v": 88
    },
    {
      "midi": 52,
      "hit": false,
      "t": 94914.29022916667,
      "d": 85.61635416666104,
      "v": 88
    },
    {
      "midi": 76,
      "hit": false,
      "t": 94931.41349999991,
      "d": 154.1094374999957,
      "v": 81
    },
    {
      "midi": 71,
      "hit": false,
      "t": 94931.41349999991,
      "d": 166.9518906250014,
      "v": 81
    },
    {
      "midi": 67,
      "hit": false,
      "t": 94931.41349999991,
      "d": 196.9176145833335,
      "v": 81
    },
    {
      "midi": 52,
      "hit": false,
      "t": 95111.20784375,
      "d": 68.49308333333465,
      "v": 88
    },
    {
      "midi": 52,
      "hit": false,
      "t": 95342.372,
      "d": 693.4924687500024,
      "v": 88
    },
    {
      "midi": 71,
      "hit": false,
      "t": 95753.33049999991,
      "d": 205.47925000000396,
      "v": 81
    },
    {
      "midi": 76,
      "hit": false,
      "t": 95753.33049999991,
      "d": 205.47925000000396,
      "v": 81
    },
    {
      "midi": 67,
      "hit": false,
      "t": 95753.33049999991,
      "d": 222.60252083333035,
      "v": 81
    },
    {
      "midi": 69,
      "hit": false,
      "t": 96164.28900000003,
      "d": 1643.8340000000026,
      "v": 84
    },
    {
      "midi": 73,
      "hit": false,
      "t": 96164.28900000003,
      "d": 1643.8340000000026,
      "v": 84
    },
    {
      "midi": 76,
      "hit": false,
      "t": 96164.28900000003,
      "d": 1643.8340000000026,
      "v": 84
    },
    {
      "midi": 45,
      "hit": false,
      "t": 96378.32988541668,
      "d": 81.33553645834036,
      "v": 88
    },
    {
      "midi": 45,
      "hit": false,
      "t": 96566.68586458336,
      "d": 98.45880729166674,
      "v": 88
    },
    {
      "midi": 73,
      "hit": false,
      "t": 96575.24749999991,
      "d": 192.63679687499825,
      "v": 81
    },
    {
      "midi": 76,
      "hit": false,
      "t": 96575.24749999991,
      "d": 218.3217031249951,
      "v": 81
    },
    {
      "midi": 69,
      "hit": false,
      "t": 96575.24749999991,
      "d": 248.2874270833272,
      "v": 81
    },
    {
      "midi": 45,
      "hit": false,
      "t": 96776.4459322917,
      "d": 72.77390104166989,
      "v": 88
    },
    {
      "midi": 45,
      "hit": false,
      "t": 96986.20600000003,
      "d": 813.3553645833308,
      "v": 88
    },
    {
      "midi": 76,
      "hit": false,
      "t": 97397.1644999999,
      "d": 188.35597916666302,
      "v": 81
    },
    {
      "midi": 73,
      "hit": false,
      "t": 97397.1644999999,
      "d": 192.63679687499825,
      "v": 81
    },
    {
      "midi": 69,
      "hit": false,
      "t": 97397.1644999999,
      "d": 205.47925000000396,
      "v": 81
    },
    {
      "midi": 86,
      "hit": false,
      "t": 97808.12300000002,
      "d": 1245.7179531250003,
      "v": 79
    },
    {
      "midi": 69,
      "hit": false,
      "t": 97808.12300000004,
      "d": 1643.8340000000026,
      "v": 84
    },
    {
      "midi": 74,
      "hit": false,
      "t": 97808.12300000004,
      "d": 1643.8340000000026,
      "v": 84
    },
    {
      "midi": 77,
      "hit": false,
      "t": 97808.12300000004,
      "d": 1643.8340000000026,
      "v": 84
    },
    {
      "midi": 50,
      "hit": false,
      "t": 98017.88306770836,
      "d": 72.77390104166989,
      "v": 88
    },
    {
      "midi": 50,
      "hit": false,
      "t": 98210.51986458336,
      "d": 72.77390104166989,
      "v": 88
    },
    {
      "midi": 69,
      "hit": false,
      "t": 98219.0814999999,
      "d": 231.16415625000081,
      "v": 81
    },
    {
      "midi": 74,
      "hit": false,
      "t": 98219.0814999999,
      "d": 231.16415625000081,
      "v": 81
    },
    {
      "midi": 77,
      "hit": false,
      "t": 98219.0814999999,
      "d": 231.16415625000081,
      "v": 81
    },
    {
      "midi": 50,
      "hit": false,
      "t": 98420.2799322917,
      "d": 55.65063020832895,
      "v": 88
    },
    {
      "midi": 50,
      "hit": false,
      "t": 98630.04000000002,
      "d": 736.3006458333402,
      "v": 88
    },
    {
      "midi": 74,
      "hit": false,
      "t": 99040.9984999999,
      "d": 218.3217031249951,
      "v": 81
    },
    {
      "midi": 77,
      "hit": false,
      "t": 99040.9984999999,
      "d": 218.3217031249951,
      "v": 81
    },
    {
      "midi": 69,
      "hit": false,
      "t": 99040.9984999999,
      "d": 235.4449739583215,
      "v": 81
    },
    {
      "midi": 93,
      "hit": false,
      "t": 99040.99850000002,
      "d": 359.58868749999965,
      "v": 67
    },
    {
      "midi": 92,
      "hit": false,
      "t": 99451.95700000001,
      "d": 1489.7245625000069,
      "v": 69
    },
    {
      "midi": 68,
      "hit": false,
      "t": 99451.95700000004,
      "d": 1643.8340000000026,
      "v": 84
    },
    {
      "midi": 71,
      "hit": false,
      "t": 99451.95700000004,
      "d": 1643.8340000000026,
      "v": 84
    },
    {
      "midi": 76,
      "hit": false,
      "t": 99451.95700000004,
      "d": 1643.8340000000026,
      "v": 84
    },
    {
      "midi": 40,
      "hit": false,
      "t": 99653.15543229169,
      "d": 81.33553645834036,
      "v": 88
    },
    {
      "midi": 40,
      "hit": false,
      "t": 99845.7922291667,
      "d": 81.33553645834036,
      "v": 88
    },
    {
      "midi": 71,
      "hit": false,
      "t": 99862.91549999989,
      "d": 222.60252083333035,
      "v": 81
    },
    {
      "midi": 68,
      "hit": false,
      "t": 99862.91549999989,
      "d": 235.44497395833605,
      "v": 81
    },
    {
      "midi": 76,
      "hit": false,
      "t": 99862.91549999989,
      "d": 248.28742708334175,
      "v": 81
    },
    {
      "midi": 40,
      "hit": false,
      "t": 100081.23720312504,
      "d": 55.65063020832895,
      "v": 88
    },
    {
      "midi": 40,
      "hit": false,
      "t": 100273.87400000004,
      "d": 351.0270520833292,
      "v": 88
    },
    {
      "midi": 71,
      "hit": false,
      "t": 100684.83249999989,
      "d": 205.47925000000396,
      "v": 81
    },
    {
      "midi": 68,
      "hit": false,
      "t": 100684.83249999989,
      "d": 218.32170312500966,
      "v": 81
    },
    {
      "midi": 76,
      "hit": false,
      "t": 100684.83249999989,
      "d": 252.568244791677,
      "v": 81
    },
    {
      "midi": 44,
      "hit": false,
      "t": 100723.35985937504,
      "d": 312.4996927083266,
      "v": 88
    },
    {
      "midi": 69,
      "hit": false,
      "t": 101095.7909999999,
      "d": 244.00660937500652,
      "v": 81
    },
    {
      "midi": 72,
      "hit": false,
      "t": 101095.7909999999,
      "d": 244.00660937500652,
      "v": 81
    },
    {
      "midi": 76,
      "hit": false,
      "t": 101095.7909999999,
      "d": 256.8490625000122,
      "v": 81
    },
    {
      "midi": 81,
      "hit": false,
      "t": 101095.7909999999,
      "d": 256.8490625000122,
      "v": 81
    },
    {
      "midi": 93,
      "hit": false,
      "t": 101095.79100000001,
      "d": 1643.8340000000026,
      "v": 69
    },
    {
      "midi": 45,
      "hit": false,
      "t": 101095.79100000003,
      "d": 727.7390104166698,
      "v": 88
    },
    {
      "midi": 69,
      "hit": false,
      "t": 101095.79100000004,
      "d": 1643.8340000000026,
      "v": 84
    },
    {
      "midi": 72,
      "hit": false,
      "t": 101095.79100000004,
      "d": 1643.8340000000026,
      "v": 84
    },
    {
      "midi": 76,
      "hit": false,
      "t": 101095.79100000004,
      "d": 1643.8340000000026,
      "v": 84
    },
    {
      "midi": 72,
      "hit": false,
      "t": 101506.7494999999,
      "d": 231.16415625000081,
      "v": 81
    },
    {
      "midi": 81,
      "hit": false,
      "t": 101506.7494999999,
      "d": 248.2874270833272,
      "v": 81
    },
    {
      "midi": 69,
      "hit": false,
      "t": 101506.7494999999,
      "d": 261.1298802083329,
      "v": 81
    },
    {
      "midi": 76,
      "hit": false,
      "t": 101506.7494999999,
      "d": 261.1298802083329,
      "v": 81
    },
    {
      "midi": 69,
      "hit": false,
      "t": 101917.7079999999,
      "d": 231.16415625000081,
      "v": 81
    },
    {
      "midi": 72,
      "hit": false,
      "t": 101917.7079999999,
      "d": 273.9723333333386,
      "v": 81
    },
    {
      "midi": 81,
      "hit": false,
      "t": 101917.7079999999,
      "d": 273.9723333333386,
      "v": 81
    },
    {
      "midi": 76,
      "hit": false,
      "t": 101917.7079999999,
      "d": 291.095604166665,
      "v": 81
    },
    {
      "midi": 45,
      "hit": false,
      "t": 101917.70800000003,
      "d": 757.7047343750019,
      "v": 88
    },
    {
      "midi": 81,
      "hit": false,
      "t": 102328.66649999989,
      "d": 273.9723333333386,
      "v": 81
    },
    {
      "midi": 72,
      "hit": false,
      "t": 102328.66649999989,
      "d": 286.8147864583443,
      "v": 81
    },
    {
      "midi": 69,
      "hit": false,
      "t": 102328.66649999989,
      "d": 303.9380572916707,
      "v": 81
    },
    {
      "midi": 76,
      "hit": false,
      "t": 102328.66649999989,
      "d": 316.7805104166764,
      "v": 81
    },
    {
      "midi": 72,
      "hit": false,
      "t": 102739.6249999999,
      "d": 278.25315104167385,
      "v": 81
    },
    {
      "midi": 67,
      "hit": false,
      "t": 102739.6249999999,
      "d": 291.09560416667955,
      "v": 81
    },
    {
      "midi": 76,
      "hit": false,
      "t": 102739.6249999999,
      "d": 291.09560416667955,
      "v": 81
    },
    {
      "midi": 79,
      "hit": false,
      "t": 102739.6249999999,
      "d": 291.09560416667955,
      "v": 81
    },
    {
      "midi": 91,
      "hit": false,
      "t": 102739.62500000001,
      "d": 1643.8340000000026,
      "v": 69
    },
    {
      "midi": 43,
      "hit": false,
      "t": 102739.62500000003,
      "d": 736.3006458333402,
      "v": 88
    },
    {
      "midi": 67,
      "hit": false,
      "t": 102739.62500000004,
      "d": 1643.8340000000026,
      "v": 84
    },
    {
      "midi": 72,
      "hit": false,
      "t": 102739.62500000004,
      "d": 1643.8340000000026,
      "v": 84
    },
    {
      "midi": 76,
      "hit": false,
      "t": 102739.62500000004,
      "d": 1643.8340000000026,
      "v": 84
    },
    {
      "midi": 72,
      "hit": false,
      "t": 103150.5834999999,
      "d": 261.1298802083329,
      "v": 81
    },
    {
      "midi": 76,
      "hit": false,
      "t": 103150.5834999999,
      "d": 273.9723333333386,
      "v": 81
    },
    {
      "midi": 67,
      "hit": false,
      "t": 103150.5834999999,
      "d": 282.5339687500091,
      "v": 81
    },
    {
      "midi": 79,
      "hit": false,
      "t": 103150.5834999999,
      "d": 282.5339687500091,
      "v": 81
    },
    {
      "midi": 72,
      "hit": false,
      "t": 103561.54199999991,
      "d": 261.1298802083329,
      "v": 81
    },
    {
      "midi": 76,
      "hit": false,
      "t": 103561.54199999991,
      "d": 261.1298802083329,
      "v": 81
    },
    {
      "midi": 79,
      "hit": false,
      "t": 103561.54199999991,
      "d": 261.1298802083329,
      "v": 81
    },
    {
      "midi": 67,
      "hit": false,
      "t": 103561.54199999991,
      "d": 273.9723333333386,
      "v": 81
    },
    {
      "midi": 43,
      "hit": false,
      "t": 103561.54200000003,
      "d": 719.1773749999993,
      "v": 88
    },
    {
      "midi": 79,
      "hit": false,
      "t": 103972.50049999992,
      "d": 282.53396874999453,
      "v": 81
    },
    {
      "midi": 72,
      "hit": false,
      "t": 103972.50049999992,
      "d": 286.81478645832976,
      "v": 81
    },
    {
      "midi": 67,
      "hit": false,
      "t": 103972.50049999992,
      "d": 299.65723958333547,
      "v": 81
    },
    {
      "midi": 76,
      "hit": false,
      "t": 103972.50049999992,
      "d": 316.78051041666185,
      "v": 81
    },
    {
      "midi": 69,
      "hit": false,
      "t": 104383.45899999992,
      "d": 231.16415625000081,
      "v": 81
    },
    {
      "midi": 66,
      "hit": false,
      "t": 104383.45899999992,
      "d": 248.2874270833272,
      "v": 81
    },
    {
      "midi": 74,
      "hit": false,
      "t": 104383.45899999992,
      "d": 261.1298802083329,
      "v": 81
    },
    {
      "midi": 78,
      "hit": false,
      "t": 104383.45899999992,
      "d": 295.37642187500023,
      "v": 81
    },
    {
      "midi": 90,
      "hit": false,
      "t": 104383.45900000002,
      "d": 1643.8340000000026,
      "v": 69
    },
    {
      "midi": 42,
      "hit": false,
      "t": 104383.45900000003,
      "d": 744.8622812499962,
      "v": 88
    },
    {
      "midi": 66,
      "hit": false,
      "t": 104383.45900000005,
      "d": 1643.8340000000026,
      "v": 84
    },
    {
      "midi": 69,
      "hit": false,
      "t": 104383.45900000005,
      "d": 1643.8340000000026,
      "v": 84
    },
    {
      "midi": 74,
      "hit": false,
      "t": 104383.45900000005,
      "d": 1643.8340000000026,
      "v": 84
    },
    {
      "midi": 66,
      "hit": false,
      "t": 104794.41749999991,
      "d": 235.44497395833605,
      "v": 81
    },
    {
      "midi": 69,
      "hit": false,
      "t": 104794.41749999991,
      "d": 235.44497395833605,
      "v": 81
    },
    {
      "midi": 74,
      "hit": false,
      "t": 104794.41749999991,
      "d": 278.25315104167385,
      "v": 81
    },
    {
      "midi": 78,
      "hit": false,
      "t": 104794.41749999991,
      "d": 278.25315104167385,
      "v": 81
    },
    {
      "midi": 69,
      "hit": false,
      "t": 105205.37599999992,
      "d": 248.2874270833272,
      "v": 81
    },
    {
      "midi": 66,
      "hit": false,
      "t": 105205.37599999992,
      "d": 265.4106979166536,
      "v": 81
    },
    {
      "midi": 74,
      "hit": false,
      "t": 105205.37599999992,
      "d": 278.2531510416593,
      "v": 81
    },
    {
      "midi": 78,
      "hit": false,
      "t": 105205.37599999992,
      "d": 308.2188749999914,
      "v": 81
    },
    {
      "midi": 42,
      "hit": false,
      "t": 105205.37600000003,
      "d": 744.8622812499962,
      "v": 88
    },
    {
      "midi": 66,
      "hit": false,
      "t": 105616.33449999991,
      "d": 179.7943437500071,
      "v": 81
    },
    {
      "midi": 69,
      "hit": false,
      "t": 105616.33449999991,
      "d": 273.9723333333386,
      "v": 81
    },
    {
      "midi": 78,
      "hit": false,
      "t": 105616.33449999991,
      "d": 273.9723333333386,
      "v": 81
    },
    {
      "midi": 74,
      "hit": false,
      "t": 105616.33449999991,
      "d": 278.25315104167385,
      "v": 81
    },
    {
      "midi": 74,
      "hit": false,
      "t": 106027.29299999992,
      "d": 273.9723333333386,
      "v": 81
    },
    {
      "midi": 86,
      "hit": false,
      "t": 106027.29299999992,
      "d": 273.9723333333386,
      "v": 81
    },
    {
      "midi": 86,
      "hit": false,
      "t": 106027.29300000002,
      "d": 1643.8340000000026,
      "v": 69
    },
    {
      "midi": 50,
      "hit": false,
      "t": 106027.29300000003,
      "d": 273.9723333333386,
      "v": 88
    },
    {
      "midi": 62,
      "hit": false,
      "t": 106027.29300000005,
      "d": 1643.8340000000026,
      "v": 84
    },
    {
      "midi": 74,
      "hit": false,
      "t": 106027.29300000005,
      "d": 1643.8340000000026,
      "v": 84
    },
    {
      "midi": 76,
      "hit": false,
      "t": 106301.26533333326,
      "d": 273.9723333333386,
      "v": 81
    },
    {
      "midi": 88,
      "hit": false,
      "t": 106301.26533333326,
      "d": 273.9723333333386,
      "v": 81
    },
    {
      "midi": 52,
      "hit": false,
      "t": 106301.26533333337,
      "d": 273.9723333333386,
      "v": 88
    },
    {
      "midi": 78,
      "hit": false,
      "t": 106575.2376666666,
      "d": 273.9723333333386,
      "v": 81
    },
    {
      "midi": 90,
      "hit": false,
      "t": 106575.2376666666,
      "d": 273.9723333333386,
      "v": 81
    },
    {
      "midi": 54,
      "hit": false,
      "t": 106575.23766666671,
      "d": 273.9723333333386,
      "v": 88
    },
    {
      "midi": 79,
      "hit": false,
      "t": 106849.20999999993,
      "d": 273.9723333333386,
      "v": 81
    },
    {
      "midi": 91,
      "hit": false,
      "t": 106849.20999999993,
      "d": 273.9723333333386,
      "v": 81
    },
    {
      "midi": 55,
      "hit": false,
      "t": 106849.21000000005,
      "d": 273.9723333333386,
      "v": 88
    },
    {
      "midi": 81,
      "hit": false,
      "t": 107123.18233333327,
      "d": 273.9723333333386,
      "v": 81
    },
    {
      "midi": 93,
      "hit": false,
      "t": 107123.18233333327,
      "d": 273.9723333333386,
      "v": 81
    },
    {
      "midi": 57,
      "hit": false,
      "t": 107123.18233333339,
      "d": 273.9723333333386,
      "v": 88
    },
    {
      "midi": 83,
      "hit": false,
      "t": 107397.15466666661,
      "d": 273.9723333333386,
      "v": 81
    },
    {
      "midi": 95,
      "hit": false,
      "t": 107397.15466666661,
      "d": 273.9723333333386,
      "v": 81
    },
    {
      "midi": 59,
      "hit": false,
      "t": 107397.15466666673,
      "d": 273.9723333333386,
      "v": 88
    },
    {
      "midi": 55,
      "hit": false,
      "t": 107658.28454687496,
      "d": 1630.9915468749969,
      "v": 47
    },
    {
      "midi": 59,
      "hit": false,
      "t": 107658.28454687496,
      "d": 1630.9915468749969,
      "v": 47
    },
    {
      "midi": 62,
      "hit": false,
      "t": 107658.28454687496,
      "d": 1630.9915468749969,
      "v": 47
    },
    {
      "midi": 74,
      "hit": false,
      "t": 107671.12699999995,
      "d": 89.89717187499627,
      "v": 81
    },
    {
      "midi": 71,
      "hit": false,
      "t": 107671.12699999995,
      "d": 115.58207812499313,
      "v": 81
    },
    {
      "midi": 79,
      "hit": false,
      "t": 107671.12699999995,
      "d": 115.58207812499313,
      "v": 81
    },
    {
      "midi": 91,
      "hit": false,
      "t": 107671.12700000002,
      "d": 1643.8340000000026,
      "v": 69
    },
    {
      "midi": 67,
      "hit": false,
      "t": 107671.12700000005,
      "d": 1643.8340000000026,
      "v": 84
    },
    {
      "midi": 71,
      "hit": false,
      "t": 107671.12700000005,
      "d": 1643.8340000000026,
      "v": 84
    },
    {
      "midi": 74,
      "hit": false,
      "t": 107671.12700000005,
      "d": 1643.8340000000026,
      "v": 84
    },
    {
      "midi": 43,
      "hit": false,
      "t": 107671.12700000007,
      "d": 94.17798958333151,
      "v": 88
    },
    {
      "midi": 43,
      "hit": false,
      "t": 107876.60625000007,
      "d": 85.61635416666104,
      "v": 88
    },
    {
      "midi": 43,
      "hit": false,
      "t": 108082.08550000006,
      "d": 98.45880729166674,
      "v": 88
    },
    {
      "midi": 74,
      "hit": false,
      "t": 108287.56474999995,
      "d": 136.9861666666693,
      "v": 81
    },
    {
      "midi": 71,
      "hit": false,
      "t": 108287.56474999995,
      "d": 166.9518906250014,
      "v": 81
    },
    {
      "midi": 79,
      "hit": false,
      "t": 108287.56474999995,
      "d": 166.9518906250014,
      "v": 81
    },
    {
      "midi": 43,
      "hit": false,
      "t": 108287.56475000006,
      "d": 98.45880729166674,
      "v": 88
    },
    {
      "midi": 43,
      "hit": false,
      "t": 108493.04400000007,
      "d": 719.1773749999993,
      "v": 88
    },
    {
      "midi": 74,
      "hit": false,
      "t": 108908.28331770828,
      "d": 162.67107291666616,
      "v": 81
    },
    {
      "midi": 79,
      "hit": false,
      "t": 108908.28331770828,
      "d": 179.79434374999255,
      "v": 81
    },
    {
      "midi": 71,
      "hit": false,
      "t": 108908.28331770828,
      "d": 192.63679687499825,
      "v": 81
    },
    {
      "midi": 54,
      "hit": false,
      "t": 109302.11854687496,
      "d": 809.0745468749956,
      "v": 47
    },
    {
      "midi": 59,
      "hit": false,
      "t": 109302.11854687496,
      "d": 809.0745468749956,
      "v": 47
    },
    {
      "midi": 62,
      "hit": false,
      "t": 109302.11854687496,
      "d": 809.0745468749956,
      "v": 47
    },
    {
      "midi": 71,
      "hit": false,
      "t": 109314.96099999994,
      "d": 124.1437135416636,
      "v": 81
    },
    {
      "midi": 74,
      "hit": false,
      "t": 109314.96099999994,
      "d": 124.1437135416636,
      "v": 81
    },
    {
      "midi": 78,
      "hit": false,
      "t": 109314.96099999994,
      "d": 124.1437135416636,
      "v": 81
    },
    {
      "midi": 90,
      "hit": false,
      "t": 109314.96100000002,
      "d": 821.9170000000013,
      "v": 69
    },
    {
      "midi": 66,
      "hit": false,
      "t": 109314.96100000005,
      "d": 821.9170000000013,
      "v": 84
    },
    {
      "midi": 71,
      "hit": false,
      "t": 109314.96100000005,
      "d": 821.9170000000013,
      "v": 84
    },
    {
      "midi": 74,
      "hit": false,
      "t": 109314.96100000005,
      "d": 821.9170000000013,
      "v": 84
    },
    {
      "midi": 47,
      "hit": false,
      "t": 109314.96100000007,
      "d": 179.7943437500071,
      "v": 88
    },
    {
      "midi": 47,
      "hit": false,
      "t": 109588.9333333334,
      "d": 154.1094374999957,
      "v": 88
    },
    {
      "midi": 74,
      "hit": false,
      "t": 109606.0566041666,
      "d": 98.45880729166674,
      "v": 81
    },
    {
      "midi": 78,
      "hit": false,
      "t": 109606.0566041666,
      "d": 98.45880729166674,
      "v": 81
    },
    {
      "midi": 71,
      "hit": false,
      "t": 109606.0566041666,
      "d": 115.58207812499313,
      "v": 81
    },
    {
      "midi": 71,
      "hit": false,
      "t": 109862.9056666666,
      "d": 136.9861666666693,
      "v": 81
    },
    {
      "midi": 74,
      "hit": false,
      "t": 109862.9056666666,
      "d": 136.9861666666693,
      "v": 81
    },
    {
      "midi": 78,
      "hit": false,
      "t": 109862.9056666666,
      "d": 136.9861666666693,
      "v": 81
    },
    {
      "midi": 47,
      "hit": false,
      "t": 109862.90566666673,
      "d": 136.9861666666693,
      "v": 88
    },
    {
      "midi": 55,
      "hit": false,
      "t": 110124.03554687496,
      "d": 1630.9915468749969,
      "v": 47
    },
    {
      "midi": 60,
      "hit": false,
      "t": 110124.03554687496,
      "d": 1630.9915468749969,
      "v": 47
    },
    {
      "midi": 64,
      "hit": false,
      "t": 110124.03554687496,
      "d": 1630.9915468749969,
      "v": 47
    },
    {
      "midi": 72,
      "hit": false,
      "t": 110136.87799999994,
      "d": 192.63679687499825,
      "v": 81
    },
    {
      "midi": 67,
      "hit": false,
      "t": 110136.87799999994,
      "d": 196.9176145833335,
      "v": 81
    },
    {
      "midi": 76,
      "hit": false,
      "t": 110136.87799999994,
      "d": 196.9176145833335,
      "v": 81
    },
    {
      "midi": 88,
      "hit": false,
      "t": 110136.87800000003,
      "d": 821.9170000000013,
      "v": 69
    },
    {
      "midi": 67,
      "hit": false,
      "t": 110136.87800000006,
      "d": 1643.8340000000026,
      "v": 84
    },
    {
      "midi": 72,
      "hit": false,
      "t": 110136.87800000006,
      "d": 1643.8340000000026,
      "v": 84
    },
    {
      "midi": 76,
      "hit": false,
      "t": 110136.87800000006,
      "d": 1643.8340000000026,
      "v": 84
    },
    {
      "midi": 48,
      "hit": false,
      "t": 110136.87800000007,
      "d": 192.63679687499825,
      "v": 88
    },
    {
      "midi": 67,
      "hit": false,
      "t": 110547.83649999993,
      "d": 179.7943437500071,
      "v": 81
    },
    {
      "midi": 72,
      "hit": false,
      "t": 110547.83649999993,
      "d": 179.7943437500071,
      "v": 81
    },
    {
      "midi": 76,
      "hit": false,
      "t": 110547.83649999993,
      "d": 179.7943437500071,
      "v": 81
    },
    {
      "midi": 48,
      "hit": false,
      "t": 110547.83650000006,
      "d": 218.3217031249951,
      "v": 88
    },
    {
      "midi": 72,
      "hit": false,
      "t": 110958.79499999994,
      "d": 663.5267447916704,
      "v": 81
    },
    {
      "midi": 76,
      "hit": false,
      "t": 110958.79499999994,
      "d": 663.5267447916704,
      "v": 81
    },
    {
      "midi": 67,
      "hit": false,
      "t": 110958.79499999994,
      "d": 676.3691979166761,
      "v": 81
    },
    {
      "midi": 88,
      "hit": false,
      "t": 110958.79500000003,
      "d": 821.9170000000013,
      "v": 69
    },
    {
      "midi": 48,
      "hit": false,
      "t": 110958.79500000006,
      "d": 646.4034739583294,
      "v": 88
    },
    {
      "midi": 55,
      "hit": false,
      "t": 111767.86954687496,
      "d": 192.63679687499825,
      "v": 47
    },
    {
      "midi": 60,
      "hit": false,
      "t": 111767.86954687496,
      "d": 192.63679687499825,
      "v": 47
    },
    {
      "midi": 64,
      "hit": false,
      "t": 111767.86954687496,
      "d": 192.63679687499825,
      "v": 47
    },
    {
      "midi": 67,
      "hit": false,
      "t": 111780.71199999996,
      "d": 111.30126041667245,
      "v": 81
    },
    {
      "midi": 88,
      "hit": false,
      "t": 111780.71200000003,
      "d": 205.47925000000396,
      "v": 69
    },
    {
      "midi": 48,
      "hit": false,
      "t": 111780.71200000006,
      "d": 136.9861666666693,
      "v": 88
    },
    {
      "midi": 67,
      "hit": false,
      "t": 111780.71200000006,
      "d": 205.47925000000396,
      "v": 84
    },
    {
      "midi": 72,
      "hit": false,
      "t": 111780.71200000006,
      "d": 205.47925000000396,
      "v": 84
    },
    {
      "midi": 76,
      "hit": false,
      "t": 111780.71200000006,
      "d": 205.47925000000396,
      "v": 84
    },
    {
      "midi": 72,
      "hit": false,
      "t": 111793.55445312496,
      "d": 128.42453124999884,
      "v": 81
    },
    {
      "midi": 76,
      "hit": false,
      "t": 111793.55445312496,
      "d": 128.42453124999884,
      "v": 81
    },
    {
      "midi": 74,
      "hit": false,
      "t": 111986.19124999996,
      "d": 616.4377499999973,
      "v": 81
    },
    {
      "midi": 78,
      "hit": false,
      "t": 111986.19124999996,
      "d": 616.4377499999973,
      "v": 81
    },
    {
      "midi": 69,
      "hit": false,
      "t": 112003.31452083329,
      "d": 599.3144791666709,
      "v": 81
    },
    {
      "midi": 57,
      "hit": false,
      "t": 112007.59533854164,
      "d": 569.3487552083388,
      "v": 47
    },
    {
      "midi": 62,
      "hit": false,
      "t": 112007.59533854164,
      "d": 569.3487552083388,
      "v": 47
    },
    {
      "midi": 66,
      "hit": false,
      "t": 112007.59533854164,
      "d": 569.3487552083388,
      "v": 47
    },
    {
      "midi": 90,
      "hit": false,
      "t": 112020.4377916667,
      "d": 582.19120833333,
      "v": 69
    },
    {
      "midi": 50,
      "hit": false,
      "t": 112020.43779166673,
      "d": 552.2254843749979,
      "v": 88
    },
    {
      "midi": 69,
      "hit": false,
      "t": 112020.43779166673,
      "d": 582.19120833333,
      "v": 84
    },
    {
      "midi": 74,
      "hit": false,
      "t": 112020.43779166673,
      "d": 582.19120833333,
      "v": 84
    },
    {
      "midi": 78,
      "hit": false,
      "t": 112020.43779166673,
      "d": 582.19120833333,
      "v": 84
    },
    {
      "midi": 55,
      "hit": false,
      "t": 112589.78654687498,
      "d": 1630.9915468749969,
      "v": 47
    },
    {
      "midi": 59,
      "hit": false,
      "t": 112589.78654687498,
      "d": 1630.9915468749969,
      "v": 47
    },
    {
      "midi": 62,
      "hit": false,
      "t": 112589.78654687498,
      "d": 1630.9915468749969,
      "v": 47
    },
    {
      "midi": 74,
      "hit": false,
      "t": 112602.62899999996,
      "d": 89.89717187499627,
      "v": 81
    },
    {
      "midi": 71,
      "hit": false,
      "t": 112602.62899999996,
      "d": 115.58207812499313,
      "v": 81
    },
    {
      "midi": 79,
      "hit": false,
      "t": 112602.62899999996,
      "d": 115.58207812499313,
      "v": 81
    },
    {
      "midi": 91,
      "hit": false,
      "t": 112602.62900000003,
      "d": 1643.8340000000026,
      "v": 69
    },
    {
      "midi": 43,
      "hit": false,
      "t": 112602.62900000006,
      "d": 94.17798958333151,
      "v": 88
    },
    {
      "midi": 67,
      "hit": false,
      "t": 112602.62900000006,
      "d": 1643.8340000000026,
      "v": 84
    },
    {
      "midi": 71,
      "hit": false,
      "t": 112602.62900000006,
      "d": 1643.8340000000026,
      "v": 84
    },
    {
      "midi": 74,
      "hit": false,
      "t": 112602.62900000006,
      "d": 1643.8340000000026,
      "v": 84
    },
    {
      "midi": 43,
      "hit": false,
      "t": 112808.10825000006,
      "d": 85.61635416666104,
      "v": 88
    },
    {
      "midi": 43,
      "hit": false,
      "t": 113013.58750000005,
      "d": 98.45880729166674,
      "v": 88
    },
    {
      "midi": 74,
      "hit": false,
      "t": 113219.06674999995,
      "d": 136.9861666666693,
      "v": 81
    },
    {
      "midi": 71,
      "hit": false,
      "t": 113219.06674999995,
      "d": 166.9518906250014,
      "v": 81
    },
    {
      "midi": 79,
      "hit": false,
      "t": 113219.06674999995,
      "d": 166.9518906250014,
      "v": 81
    },
    {
      "midi": 43,
      "hit": false,
      "t": 113219.06675000006,
      "d": 98.45880729166674,
      "v": 88
    },
    {
      "midi": 43,
      "hit": false,
      "t": 113424.54600000006,
      "d": 719.1773749999993,
      "v": 88
    },
    {
      "midi": 74,
      "hit": false,
      "t": 113839.78531770829,
      "d": 162.67107291666616,
      "v": 81
    },
    {
      "midi": 79,
      "hit": false,
      "t": 113839.78531770829,
      "d": 179.79434374999255,
      "v": 81
    },
    {
      "midi": 71,
      "hit": false,
      "t": 113839.78531770829,
      "d": 192.63679687499825,
      "v": 81
    },
    {
      "midi": 54,
      "hit": false,
      "t": 114233.62054687498,
      "d": 809.0745468749956,
      "v": 47
    },
    {
      "midi": 59,
      "hit": false,
      "t": 114233.62054687498,
      "d": 809.0745468749956,
      "v": 47
    },
    {
      "midi": 62,
      "hit": false,
      "t": 114233.62054687498,
      "d": 809.0745468749956,
      "v": 47
    },
    {
      "midi": 71,
      "hit": false,
      "t": 114246.46299999995,
      "d": 124.1437135416636,
      "v": 81
    },
    {
      "midi": 74,
      "hit": false,
      "t": 114246.46299999995,
      "d": 124.1437135416636,
      "v": 81
    },
    {
      "midi": 78,
      "hit": false,
      "t": 114246.46299999995,
      "d": 124.1437135416636,
      "v": 81
    },
    {
      "midi": 90,
      "hit": false,
      "t": 114246.46300000003,
      "d": 821.9170000000013,
      "v": 69
    },
    {
      "midi": 47,
      "hit": false,
      "t": 114246.46300000006,
      "d": 179.7943437500071,
      "v": 88
    },
    {
      "midi": 66,
      "hit": false,
      "t": 114246.46300000006,
      "d": 821.9170000000013,
      "v": 84
    },
    {
      "midi": 71,
      "hit": false,
      "t": 114246.46300000006,
      "d": 821.9170000000013,
      "v": 84
    },
    {
      "midi": 74,
      "hit": false,
      "t": 114246.46300000006,
      "d": 821.9170000000013,
      "v": 84
    },
    {
      "midi": 47,
      "hit": false,
      "t": 114520.4353333334,
      "d": 154.1094374999957,
      "v": 88
    },
    {
      "midi": 74,
      "hit": false,
      "t": 114537.55860416661,
      "d": 98.45880729166674,
      "v": 81
    },
    {
      "midi": 78,
      "hit": false,
      "t": 114537.55860416661,
      "d": 98.45880729166674,
      "v": 81
    },
    {
      "midi": 71,
      "hit": false,
      "t": 114537.55860416661,
      "d": 115.58207812499313,
      "v": 81
    },
    {
      "midi": 71,
      "hit": false,
      "t": 114794.40766666661,
      "d": 136.9861666666693,
      "v": 81
    },
    {
      "midi": 74,
      "hit": false,
      "t": 114794.40766666661,
      "d": 136.9861666666693,
      "v": 81
    },
    {
      "midi": 78,
      "hit": false,
      "t": 114794.40766666661,
      "d": 136.9861666666693,
      "v": 81
    },
    {
      "midi": 47,
      "hit": false,
      "t": 114794.40766666672,
      "d": 136.9861666666693,
      "v": 88
    },
    {
      "midi": 55,
      "hit": false,
      "t": 115055.53754687498,
      "d": 1630.9915468749969,
      "v": 47
    },
    {
      "midi": 60,
      "hit": false,
      "t": 115055.53754687498,
      "d": 1630.9915468749969,
      "v": 47
    },
    {
      "midi": 64,
      "hit": false,
      "t": 115055.53754687498,
      "d": 1630.9915468749969,
      "v": 47
    },
    {
      "midi": 72,
      "hit": false,
      "t": 115068.37999999995,
      "d": 192.63679687499825,
      "v": 81
    },
    {
      "midi": 67,
      "hit": false,
      "t": 115068.37999999995,
      "d": 196.9176145833335,
      "v": 81
    },
    {
      "midi": 76,
      "hit": false,
      "t": 115068.37999999995,
      "d": 196.9176145833335,
      "v": 81
    },
    {
      "midi": 88,
      "hit": false,
      "t": 115068.38000000003,
      "d": 821.9170000000013,
      "v": 69
    },
    {
      "midi": 48,
      "hit": false,
      "t": 115068.38000000006,
      "d": 192.63679687499825,
      "v": 88
    },
    {
      "midi": 67,
      "hit": false,
      "t": 115068.38000000006,
      "d": 1643.8340000000026,
      "v": 84
    },
    {
      "midi": 72,
      "hit": false,
      "t": 115068.38000000006,
      "d": 1643.8340000000026,
      "v": 84
    },
    {
      "midi": 76,
      "hit": false,
      "t": 115068.38000000006,
      "d": 1643.8340000000026,
      "v": 84
    },
    {
      "midi": 67,
      "hit": false,
      "t": 115479.33849999994,
      "d": 179.7943437500071,
      "v": 81
    },
    {
      "midi": 72,
      "hit": false,
      "t": 115479.33849999994,
      "d": 179.7943437500071,
      "v": 81
    },
    {
      "midi": 76,
      "hit": false,
      "t": 115479.33849999994,
      "d": 179.7943437500071,
      "v": 81
    },
    {
      "midi": 48,
      "hit": false,
      "t": 115479.33850000006,
      "d": 218.3217031249951,
      "v": 88
    },
    {
      "midi": 72,
      "hit": false,
      "t": 115890.29699999995,
      "d": 663.5267447916704,
      "v": 81
    },
    {
      "midi": 76,
      "hit": false,
      "t": 115890.29699999995,
      "d": 663.5267447916704,
      "v": 81
    },
    {
      "midi": 67,
      "hit": false,
      "t": 115890.29699999995,
      "d": 676.3691979166761,
      "v": 81
    },
    {
      "midi": 88,
      "hit": false,
      "t": 115890.29700000004,
      "d": 821.9170000000013,
      "v": 69
    },
    {
      "midi": 48,
      "hit": false,
      "t": 115890.29700000005,
      "d": 646.4034739583294,
      "v": 88
    },
    {
      "midi": 55,
      "hit": false,
      "t": 116699.37154687499,
      "d": 192.63679687499825,
      "v": 47
    },
    {
      "midi": 60,
      "hit": false,
      "t": 116699.37154687499,
      "d": 192.63679687499825,
      "v": 47
    },
    {
      "midi": 64,
      "hit": false,
      "t": 116699.37154687499,
      "d": 192.63679687499825,
      "v": 47
    },
    {
      "midi": 67,
      "hit": false,
      "t": 116712.21399999996,
      "d": 111.30126041667245,
      "v": 81
    },
    {
      "midi": 88,
      "hit": false,
      "t": 116712.21400000004,
      "d": 205.47925000000396,
      "v": 69
    },
    {
      "midi": 48,
      "hit": false,
      "t": 116712.21400000005,
      "d": 136.9861666666693,
      "v": 88
    },
    {
      "midi": 67,
      "hit": false,
      "t": 116712.21400000007,
      "d": 205.47925000000396,
      "v": 84
    },
    {
      "midi": 72,
      "hit": false,
      "t": 116712.21400000007,
      "d": 205.47925000000396,
      "v": 84
    },
    {
      "midi": 76,
      "hit": false,
      "t": 116712.21400000007,
      "d": 205.47925000000396,
      "v": 84
    },
    {
      "midi": 72,
      "hit": false,
      "t": 116725.05645312497,
      "d": 128.42453124999884,
      "v": 81
    },
    {
      "midi": 76,
      "hit": false,
      "t": 116725.05645312497,
      "d": 128.42453124999884,
      "v": 81
    },
    {
      "midi": 74,
      "hit": false,
      "t": 116917.69324999997,
      "d": 616.4377499999973,
      "v": 81
    },
    {
      "midi": 78,
      "hit": false,
      "t": 116917.69324999997,
      "d": 616.4377499999973,
      "v": 81
    },
    {
      "midi": 69,
      "hit": false,
      "t": 116934.8165208333,
      "d": 599.3144791666709,
      "v": 81
    },
    {
      "midi": 57,
      "hit": false,
      "t": 116939.09733854166,
      "d": 569.3487552083388,
      "v": 47
    },
    {
      "midi": 62,
      "hit": false,
      "t": 116939.09733854166,
      "d": 569.3487552083388,
      "v": 47
    },
    {
      "midi": 66,
      "hit": false,
      "t": 116939.09733854166,
      "d": 569.3487552083388,
      "v": 47
    },
    {
      "midi": 90,
      "hit": false,
      "t": 116951.93979166671,
      "d": 582.19120833333,
      "v": 69
    },
    {
      "midi": 50,
      "hit": false,
      "t": 116951.93979166672,
      "d": 552.2254843749979,
      "v": 88
    },
    {
      "midi": 69,
      "hit": false,
      "t": 116951.93979166674,
      "d": 582.19120833333,
      "v": 84
    },
    {
      "midi": 74,
      "hit": false,
      "t": 116951.93979166674,
      "d": 582.19120833333,
      "v": 84
    },
    {
      "midi": 78,
      "hit": false,
      "t": 116951.93979166674,
      "d": 582.19120833333,
      "v": 84
    },
    {
      "midi": 55,
      "hit": false,
      "t": 117521.288546875,
      "d": 603.5952968750062,
      "v": 44
    },
    {
      "midi": 60,
      "hit": false,
      "t": 117521.288546875,
      "d": 603.5952968750062,
      "v": 44
    },
    {
      "midi": 64,
      "hit": false,
      "t": 117521.288546875,
      "d": 603.5952968750062,
      "v": 44
    },
    {
      "midi": 67,
      "hit": false,
      "t": 117534.13099999996,
      "d": 616.4377499999973,
      "v": 81
    },
    {
      "midi": 72,
      "hit": false,
      "t": 117534.13099999996,
      "d": 616.4377499999973,
      "v": 81
    },
    {
      "midi": 76,
      "hit": false,
      "t": 117534.13099999996,
      "d": 616.4377499999973,
      "v": 81
    },
    {
      "midi": 48,
      "hit": false,
      "t": 117534.13100000005,
      "d": 616.4377499999973,
      "v": 88
    },
    {
      "midi": 67,
      "hit": false,
      "t": 117534.13100000007,
      "d": 616.4377499999973,
      "v": 81
    },
    {
      "midi": 72,
      "hit": false,
      "t": 117534.13100000007,
      "d": 616.4377499999973,
      "v": 81
    },
    {
      "midi": 76,
      "hit": false,
      "t": 117534.13100000007,
      "d": 616.4377499999973,
      "v": 81
    },
    {
      "midi": 55,
      "hit": false,
      "t": 118171.97283854168,
      "d": 569.3487552083388,
      "v": 44
    },
    {
      "midi": 60,
      "hit": false,
      "t": 118171.97283854168,
      "d": 569.3487552083388,
      "v": 44
    },
    {
      "midi": 64,
      "hit": false,
      "t": 118171.97283854168,
      "d": 569.3487552083388,
      "v": 44
    },
    {
      "midi": 67,
      "hit": false,
      "t": 118184.81529166663,
      "d": 582.19120833333,
      "v": 81
    },
    {
      "midi": 72,
      "hit": false,
      "t": 118184.81529166663,
      "d": 582.19120833333,
      "v": 81
    },
    {
      "midi": 76,
      "hit": false,
      "t": 118184.81529166663,
      "d": 582.19120833333,
      "v": 81
    },
    {
      "midi": 48,
      "hit": false,
      "t": 118184.81529166672,
      "d": 582.19120833333,
      "v": 88
    },
    {
      "midi": 67,
      "hit": false,
      "t": 118184.81529166673,
      "d": 582.19120833333,
      "v": 81
    },
    {
      "midi": 72,
      "hit": false,
      "t": 118184.81529166673,
      "d": 582.19120833333,
      "v": 81
    },
    {
      "midi": 76,
      "hit": false,
      "t": 118184.81529166673,
      "d": 582.19120833333,
      "v": 81
    },
    {
      "midi": 57,
      "hit": false,
      "t": 118754.16404687503,
      "d": 603.5952968750062,
      "v": 44
    },
    {
      "midi": 62,
      "hit": false,
      "t": 118754.16404687503,
      "d": 603.5952968750062,
      "v": 44
    },
    {
      "midi": 66,
      "hit": false,
      "t": 118754.16404687503,
      "d": 603.5952968750062,
      "v": 44
    },
    {
      "midi": 69,
      "hit": false,
      "t": 118767.00649999996,
      "d": 616.4377499999973,
      "v": 81
    },
    {
      "midi": 74,
      "hit": false,
      "t": 118767.00649999996,
      "d": 616.4377499999973,
      "v": 81
    },
    {
      "midi": 78,
      "hit": false,
      "t": 118767.00649999996,
      "d": 616.4377499999973,
      "v": 81
    },
    {
      "midi": 50,
      "hit": false,
      "t": 118767.00650000005,
      "d": 616.4377499999973,
      "v": 88
    },
    {
      "midi": 69,
      "hit": false,
      "t": 118767.00650000006,
      "d": 616.4377499999973,
      "v": 81
    },
    {
      "midi": 74,
      "hit": false,
      "t": 118767.00650000006,
      "d": 616.4377499999973,
      "v": 81
    },
    {
      "midi": 78,
      "hit": false,
      "t": 118767.00650000006,
      "d": 616.4377499999973,
      "v": 81
    },
    {
      "midi": 57,
      "hit": false,
      "t": 119404.8483385417,
      "d": 569.3487552083388,
      "v": 44
    },
    {
      "midi": 62,
      "hit": false,
      "t": 119404.8483385417,
      "d": 569.3487552083388,
      "v": 44
    },
    {
      "midi": 66,
      "hit": false,
      "t": 119404.8483385417,
      "d": 569.3487552083388,
      "v": 44
    },
    {
      "midi": 69,
      "hit": false,
      "t": 119417.69079166662,
      "d": 582.19120833333,
      "v": 81
    },
    {
      "midi": 74,
      "hit": false,
      "t": 119417.69079166662,
      "d": 582.19120833333,
      "v": 81
    },
    {
      "midi": 78,
      "hit": false,
      "t": 119417.69079166662,
      "d": 582.19120833333,
      "v": 81
    },
    {
      "midi": 50,
      "hit": false,
      "t": 119417.69079166671,
      "d": 582.19120833333,
      "v": 88
    },
    {
      "midi": 69,
      "hit": false,
      "t": 119417.69079166673,
      "d": 582.19120833333,
      "v": 81
    },
    {
      "midi": 74,
      "hit": false,
      "t": 119417.69079166673,
      "d": 582.19120833333,
      "v": 81
    },
    {
      "midi": 78,
      "hit": false,
      "t": 119417.69079166673,
      "d": 582.19120833333,
      "v": 81
    },
    {
      "midi": 60,
      "hit": false,
      "t": 119987.03954687505,
      "d": 3274.8255468749994,
      "v": 44
    },
    {
      "midi": 64,
      "hit": false,
      "t": 119987.03954687505,
      "d": 3274.8255468749994,
      "v": 44
    },
    {
      "midi": 67,
      "hit": false,
      "t": 119987.03954687505,
      "d": 3274.8255468749994,
      "v": 44
    },
    {
      "midi": 72,
      "hit": false,
      "t": 119999.88199999995,
      "d": 3287.668000000005,
      "v": 81
    },
    {
      "midi": 76,
      "hit": false,
      "t": 119999.88199999995,
      "d": 3287.668000000005,
      "v": 81
    },
    {
      "midi": 79,
      "hit": false,
      "t": 119999.88199999995,
      "d": 3287.668000000005,
      "v": 81
    },
    {
      "midi": 52,
      "hit": false,
      "t": 119999.88200000004,
      "d": 3287.668000000005,
      "v": 88
    },
    {
      "midi": 72,
      "hit": false,
      "t": 119999.88200000006,
      "d": 3287.668000000005,
      "v": 81
    },
    {
      "midi": 76,
      "hit": false,
      "t": 119999.88200000006,
      "d": 3287.668000000005,
      "v": 81
    },
    {
      "midi": 79,
      "hit": false,
      "t": 119999.88200000006,
      "d": 3287.668000000005,
      "v": 81
    },
    {
      "midi": 69,
      "hit": false,
      "t": 123287.54999999996,
      "d": 205.47925000000396,
      "v": 81
    },
    {
      "midi": 45,
      "hit": false,
      "t": 123287.55000000005,
      "d": 192.63679687499825,
      "v": 88
    },
    {
      "midi": 69,
      "hit": false,
      "t": 123287.55000000006,
      "d": 205.47925000000396,
      "v": 81
    },
    {
      "midi": 72,
      "hit": false,
      "t": 123493.02924999996,
      "d": 205.47925000000396,
      "v": 81
    },
    {
      "midi": 48,
      "hit": false,
      "t": 123493.02925000005,
      "d": 218.32170312500966,
      "v": 88
    },
    {
      "midi": 72,
      "hit": false,
      "t": 123493.02925000007,
      "d": 205.47925000000396,
      "v": 81
    },
    {
      "midi": 76,
      "hit": false,
      "t": 123698.50849999997,
      "d": 205.47925000000396,
      "v": 81
    },
    {
      "midi": 52,
      "hit": false,
      "t": 123698.50850000005,
      "d": 273.9723333333386,
      "v": 88
    },
    {
      "midi": 76,
      "hit": false,
      "t": 123698.50850000007,
      "d": 205.47925000000396,
      "v": 81
    },
    {
      "midi": 79,
      "hit": false,
      "t": 123903.98775,
      "d": 205.47925000000396,
      "v": 90
    },
    {
      "midi": 83,
      "hit": false,
      "t": 124109.467,
      "d": 205.47925000000396,
      "v": 94
    },
    {
      "midi": 83,
      "hit": false,
      "t": 124314.94625000001,
      "d": 1438.3547499999986,
      "v": 92
    },
    {
      "midi": 76,
      "hit": false,
      "t": 124931.38399999998,
      "d": 205.47925000000396,
      "v": 81
    },
    {
      "midi": 52,
      "hit": false,
      "t": 124931.38400000006,
      "d": 162.67107291666616,
      "v": 88
    },
    {
      "midi": 76,
      "hit": false,
      "t": 124931.38400000008,
      "d": 205.47925000000396,
      "v": 81
    },
    {
      "midi": 72,
      "hit": false,
      "t": 125136.86324999998,
      "d": 205.47925000000396,
      "v": 81
    },
    {
      "midi": 48,
      "hit": false,
      "t": 125136.86325000007,
      "d": 162.67107291666616,
      "v": 88
    },
    {
      "midi": 72,
      "hit": false,
      "t": 125136.86325000008,
      "d": 205.47925000000396,
      "v": 81
    },
    {
      "midi": 69,
      "hit": false,
      "t": 125342.34249999998,
      "d": 205.47925000000396,
      "v": 81
    },
    {
      "midi": 45,
      "hit": false,
      "t": 125342.34250000007,
      "d": 261.1298802083329,
      "v": 88
    },
    {
      "midi": 69,
      "hit": false,
      "t": 125342.34250000009,
      "d": 205.47925000000396,
      "v": 81
    },
    {
      "midi": 83,
      "hit": false,
      "t": 125753.301,
      "d": 205.47925000000396,
      "v": 92
    },
    {
      "midi": 81,
      "hit": false,
      "t": 125958.78025000001,
      "d": 205.47925000000396,
      "v": 90
    },
    {
      "midi": 69,
      "hit": false,
      "t": 126575.218,
      "d": 205.47925000000396,
      "v": 81
    },
    {
      "midi": 45,
      "hit": false,
      "t": 126575.21800000007,
      "d": 218.32170312500966,
      "v": 88
    },
    {
      "midi": 69,
      "hit": false,
      "t": 126575.2180000001,
      "d": 205.47925000000396,
      "v": 81
    },
    {
      "midi": 72,
      "hit": false,
      "t": 126780.69725,
      "d": 205.47925000000396,
      "v": 81
    },
    {
      "midi": 48,
      "hit": false,
      "t": 126780.69725000007,
      "d": 205.47925000000396,
      "v": 88
    },
    {
      "midi": 72,
      "hit": false,
      "t": 126780.6972500001,
      "d": 205.47925000000396,
      "v": 81
    },
    {
      "midi": 76,
      "hit": false,
      "t": 126986.1765,
      "d": 205.47925000000396,
      "v": 81
    },
    {
      "midi": 52,
      "hit": false,
      "t": 126986.17650000007,
      "d": 244.00660937500652,
      "v": 88
    },
    {
      "midi": 76,
      "hit": false,
      "t": 126986.1765000001,
      "d": 205.47925000000396,
      "v": 81
    },
    {
      "midi": 76,
      "hit": false,
      "t": 128219.05200000001,
      "d": 205.47925000000396,
      "v": 81
    },
    {
      "midi": 52,
      "hit": false,
      "t": 128219.05200000008,
      "d": 188.35597916666302,
      "v": 88
    },
    {
      "midi": 76,
      "hit": false,
      "t": 128219.05200000011,
      "d": 205.47925000000396,
      "v": 81
    },
    {
      "midi": 72,
      "hit": false,
      "t": 128424.53125000001,
      "d": 205.47925000000396,
      "v": 81
    },
    {
      "midi": 48,
      "hit": false,
      "t": 128424.53125000007,
      "d": 149.82861979166046,
      "v": 88
    },
    {
      "midi": 72,
      "hit": false,
      "t": 128424.53125000012,
      "d": 205.47925000000396,
      "v": 81
    },
    {
      "midi": 69,
      "hit": false,
      "t": 128630.01050000002,
      "d": 205.47925000000396,
      "v": 81
    },
    {
      "midi": 45,
      "hit": false,
      "t": 128630.01050000006,
      "d": 273.9723333333386,
      "v": 88
    },
    {
      "midi": 69,
      "hit": false,
      "t": 128630.01050000012,
      "d": 205.47925000000396,
      "v": 81
    },
    {
      "midi": 86,
      "hit": false,
      "t": 129246.44825000002,
      "d": 205.47925000000396,
      "v": 84
    },
    {
      "midi": 86,
      "hit": false,
      "t": 129657.40675000002,
      "d": 205.47925000000396,
      "v": 84
    },
    {
      "midi": 67,
      "hit": false,
      "t": 129862.88600000003,
      "d": 205.47925000000396,
      "v": 81
    },
    {
      "midi": 86,
      "hit": false,
      "t": 129862.88600000003,
      "d": 205.47925000000396,
      "v": 84
    },
    {
      "midi": 43,
      "hit": false,
      "t": 129862.88600000007,
      "d": 235.44497395833605,
      "v": 88
    },
    {
      "midi": 67,
      "hit": false,
      "t": 129862.88600000013,
      "d": 205.47925000000396,
      "v": 81
    },
    {
      "midi": 71,
      "hit": false,
      "t": 130068.36525000003,
      "d": 205.47925000000396,
      "v": 81
    },
    {
      "midi": 88,
      "hit": false,
      "t": 130068.36525000003,
      "d": 4520.5435,
      "v": 84
    },
    {
      "midi": 47,
      "hit": false,
      "t": 130068.36525000008,
      "d": 192.63679687499825,
      "v": 88
    },
    {
      "midi": 71,
      "hit": false,
      "t": 130068.36525000013,
      "d": 205.47925000000396,
      "v": 81
    },
    {
      "midi": 74,
      "hit": false,
      "t": 130273.84450000004,
      "d": 205.47925000000396,
      "v": 81
    },
    {
      "midi": 50,
      "hit": false,
      "t": 130273.84450000008,
      "d": 261.1298802083329,
      "v": 88
    },
    {
      "midi": 74,
      "hit": false,
      "t": 130273.84450000014,
      "d": 205.47925000000396,
      "v": 81
    },
    {
      "midi": 79,
      "hit": false,
      "t": 130684.80300000004,
      "d": 205.47925000000396,
      "v": 81
    },
    {
      "midi": 83,
      "hit": false,
      "t": 130890.28225000005,
      "d": 205.47925000000396,
      "v": 81
    },
    {
      "midi": 86,
      "hit": false,
      "t": 131095.76150000005,
      "d": 205.47925000000396,
      "v": 81
    },
    {
      "midi": 79,
      "hit": false,
      "t": 131506.72000000006,
      "d": 205.47925000000396,
      "v": 81
    },
    {
      "midi": 55,
      "hit": false,
      "t": 131506.7200000001,
      "d": 175.51352604167187,
      "v": 88
    },
    {
      "midi": 79,
      "hit": false,
      "t": 131506.72000000015,
      "d": 205.47925000000396,
      "v": 81
    },
    {
      "midi": 76,
      "hit": false,
      "t": 131712.19925000006,
      "d": 205.47925000000396,
      "v": 81
    },
    {
      "midi": 52,
      "hit": false,
      "t": 131712.1992500001,
      "d": 149.82861979166046,
      "v": 88
    },
    {
      "midi": 76,
      "hit": false,
      "t": 131712.19925000015,
      "d": 205.47925000000396,
      "v": 81
    },
    {
      "midi": 72,
      "hit": false,
      "t": 131917.67850000007,
      "d": 205.47925000000396,
      "v": 81
    },
    {
      "midi": 48,
      "hit": false,
      "t": 131917.6785000001,
      "d": 282.5339687500091,
      "v": 88
    },
    {
      "midi": 72,
      "hit": false,
      "t": 131917.67850000015,
      "d": 205.47925000000396,
      "v": 81
    },
    {
      "midi": 67,
      "hit": false,
      "t": 133150.55400000006,
      "d": 205.47925000000396,
      "v": 81
    },
    {
      "midi": 43,
      "hit": false,
      "t": 133150.5540000001,
      "d": 205.47925000000396,
      "v": 88
    },
    {
      "midi": 67,
      "hit": false,
      "t": 133150.55400000015,
      "d": 205.47925000000396,
      "v": 81
    },
    {
      "midi": 71,
      "hit": false,
      "t": 133356.03325000007,
      "d": 205.47925000000396,
      "v": 81
    },
    {
      "midi": 47,
      "hit": false,
      "t": 133356.0332500001,
      "d": 154.10943750001024,
      "v": 88
    },
    {
      "midi": 71,
      "hit": false,
      "t": 133356.03325000015,
      "d": 205.47925000000396,
      "v": 81
    },
    {
      "midi": 74,
      "hit": false,
      "t": 133561.51250000007,
      "d": 205.47925000000396,
      "v": 81
    },
    {
      "midi": 50,
      "hit": false,
      "t": 133561.5125000001,
      "d": 244.00660937500652,
      "v": 88
    },
    {
      "midi": 74,
      "hit": false,
      "t": 133561.51250000016,
      "d": 205.47925000000396,
      "v": 81
    },
    {
      "midi": 86,
      "hit": false,
      "t": 134588.90875000003,
      "d": 1849.3132500000065,
      "v": 84
    },
    {
      "midi": 79,
      "hit": false,
      "t": 134794.38800000006,
      "d": 205.47925000000396,
      "v": 81
    },
    {
      "midi": 55,
      "hit": false,
      "t": 134794.3880000001,
      "d": 162.6710729166807,
      "v": 88
    },
    {
      "midi": 79,
      "hit": false,
      "t": 134794.38800000015,
      "d": 205.47925000000396,
      "v": 81
    },
    {
      "midi": 76,
      "hit": false,
      "t": 134999.86725000007,
      "d": 205.47925000000396,
      "v": 81
    },
    {
      "midi": 52,
      "hit": false,
      "t": 134999.8672500001,
      "d": 124.14371354167815,
      "v": 88
    },
    {
      "midi": 76,
      "hit": false,
      "t": 134999.86725000016,
      "d": 205.47925000000396,
      "v": 81
    },
    {
      "midi": 72,
      "hit": false,
      "t": 135205.34650000007,
      "d": 205.47925000000396,
      "v": 81
    },
    {
      "midi": 48,
      "hit": false,
      "t": 135205.3465000001,
      "d": 244.00660937500652,
      "v": 88
    },
    {
      "midi": 72,
      "hit": false,
      "t": 135205.34650000016,
      "d": 205.47925000000396,
      "v": 81
    },
    {
      "midi": 88,
      "hit": false,
      "t": 136438.22200000004,
      "d": 1643.8340000000026,
      "v": 84
    },
    {
      "midi": 69,
      "hit": false,
      "t": 136438.22200000007,
      "d": 205.47925000000396,
      "v": 81
    },
    {
      "midi": 45,
      "hit": false,
      "t": 136438.2220000001,
      "d": 192.6367968750128,
      "v": 88
    },
    {
      "midi": 69,
      "hit": false,
      "t": 136438.22200000015,
      "d": 205.47925000000396,
      "v": 81
    },
    {
      "midi": 72,
      "hit": false,
      "t": 136643.70125000007,
      "d": 205.47925000000396,
      "v": 81
    },
    {
      "midi": 48,
      "hit": false,
      "t": 136643.7012500001,
      "d": 218.3217031249951,
      "v": 88
    },
    {
      "midi": 72,
      "hit": false,
      "t": 136643.70125000016,
      "d": 205.47925000000396,
      "v": 81
    },
    {
      "midi": 76,
      "hit": false,
      "t": 136849.18050000007,
      "d": 205.47925000000396,
      "v": 81
    },
    {
      "midi": 52,
      "hit": false,
      "t": 136849.1805000001,
      "d": 273.9723333333386,
      "v": 88
    },
    {
      "midi": 76,
      "hit": false,
      "t": 136849.18050000016,
      "d": 205.47925000000396,
      "v": 81
    },
    {
      "midi": 83,
      "hit": false,
      "t": 138082.05600000004,
      "d": 1643.8340000000026,
      "v": 84
    },
    {
      "midi": 76,
      "hit": false,
      "t": 138082.05600000007,
      "d": 205.47925000000396,
      "v": 81
    },
    {
      "midi": 52,
      "hit": false,
      "t": 138082.0560000001,
      "d": 162.6710729166807,
      "v": 88
    },
    {
      "midi": 76,
      "hit": false,
      "t": 138082.05600000016,
      "d": 205.47925000000396,
      "v": 81
    },
    {
      "midi": 72,
      "hit": false,
      "t": 138287.53525000007,
      "d": 205.47925000000396,
      "v": 81
    },
    {
      "midi": 48,
      "hit": false,
      "t": 138287.5352500001,
      "d": 162.6710729166807,
      "v": 88
    },
    {
      "midi": 72,
      "hit": false,
      "t": 138287.53525000016,
      "d": 205.47925000000396,
      "v": 81
    },
    {
      "midi": 69,
      "hit": false,
      "t": 138493.01450000008,
      "d": 205.47925000000396,
      "v": 81
    },
    {
      "midi": 45,
      "hit": false,
      "t": 138493.0145000001,
      "d": 261.12988020834746,
      "v": 88
    },
    {
      "midi": 69,
      "hit": false,
      "t": 138493.01450000016,
      "d": 205.47925000000396,
      "v": 81
    },
    {
      "midi": 79,
      "hit": false,
      "t": 139725.89000000004,
      "d": 3287.668000000005,
      "v": 84
    },
    {
      "midi": 69,
      "hit": false,
      "t": 139725.89000000007,
      "d": 205.47925000000396,
      "v": 81
    },
    {
      "midi": 45,
      "hit": false,
      "t": 139725.89000000013,
      "d": 218.3217031249951,
      "v": 88
    },
    {
      "midi": 69,
      "hit": false,
      "t": 139725.89000000016,
      "d": 205.47925000000396,
      "v": 81
    },
    {
      "midi": 72,
      "hit": false,
      "t": 139931.36925000008,
      "d": 205.47925000000396,
      "v": 81
    },
    {
      "midi": 48,
      "hit": false,
      "t": 139931.36925000013,
      "d": 205.47925000000396,
      "v": 88
    },
    {
      "midi": 72,
      "hit": false,
      "t": 139931.36925000016,
      "d": 205.47925000000396,
      "v": 81
    },
    {
      "midi": 76,
      "hit": false,
      "t": 140136.84850000008,
      "d": 205.47925000000396,
      "v": 81
    },
    {
      "midi": 52,
      "hit": false,
      "t": 140136.84850000014,
      "d": 244.00660937500652,
      "v": 88
    },
    {
      "midi": 76,
      "hit": false,
      "t": 140136.84850000017,
      "d": 205.47925000000396,
      "v": 81
    },
    {
      "midi": 76,
      "hit": false,
      "t": 141369.72400000007,
      "d": 205.47925000000396,
      "v": 81
    },
    {
      "midi": 52,
      "hit": false,
      "t": 141369.72400000013,
      "d": 188.35597916666302,
      "v": 88
    },
    {
      "midi": 76,
      "hit": false,
      "t": 141369.72400000016,
      "d": 205.47925000000396,
      "v": 81
    },
    {
      "midi": 72,
      "hit": false,
      "t": 141575.20325000008,
      "d": 205.47925000000396,
      "v": 81
    },
    {
      "midi": 48,
      "hit": false,
      "t": 141575.20325000014,
      "d": 149.82861979166046,
      "v": 88
    },
    {
      "midi": 72,
      "hit": false,
      "t": 141575.20325000017,
      "d": 205.47925000000396,
      "v": 81
    },
    {
      "midi": 69,
      "hit": false,
      "t": 141780.68250000008,
      "d": 205.47925000000396,
      "v": 81
    },
    {
      "midi": 45,
      "hit": false,
      "t": 141780.68250000014,
      "d": 273.9723333333386,
      "v": 88
    },
    {
      "midi": 69,
      "hit": false,
      "t": 141780.68250000017,
      "d": 205.47925000000396,
      "v": 81
    },
    {
      "midi": 67,
      "hit": false,
      "t": 143013.55800000008,
      "d": 205.47925000000396,
      "v": 81
    },
    {
      "midi": 43,
      "hit": false,
      "t": 143013.55800000014,
      "d": 235.44497395833605,
      "v": 88
    },
    {
      "midi": 67,
      "hit": false,
      "t": 143013.55800000016,
      "d": 205.47925000000396,
      "v": 81
    },
    {
      "midi": 71,
      "hit": false,
      "t": 143219.03725000008,
      "d": 205.47925000000396,
      "v": 81
    },
    {
      "midi": 47,
      "hit": false,
      "t": 143219.03725000014,
      "d": 192.6367968750128,
      "v": 88
    },
    {
      "midi": 71,
      "hit": false,
      "t": 143219.03725000017,
      "d": 205.47925000000396,
      "v": 81
    },
    {
      "midi": 74,
      "hit": false,
      "t": 143424.51650000009,
      "d": 205.47925000000396,
      "v": 81
    },
    {
      "midi": 50,
      "hit": false,
      "t": 143424.51650000014,
      "d": 261.12988020834746,
      "v": 88
    },
    {
      "midi": 74,
      "hit": false,
      "t": 143424.51650000017,
      "d": 205.47925000000396,
      "v": 81
    },
    {
      "midi": 79,
      "hit": false,
      "t": 143835.4750000001,
      "d": 205.47925000000396,
      "v": 81
    },
    {
      "midi": 83,
      "hit": false,
      "t": 144040.9542500001,
      "d": 205.47925000000396,
      "v": 81
    },
    {
      "midi": 86,
      "hit": false,
      "t": 144246.4335000001,
      "d": 205.47925000000396,
      "v": 81
    },
    {
      "midi": 79,
      "hit": false,
      "t": 144657.3920000001,
      "d": 205.47925000000396,
      "v": 81
    },
    {
      "midi": 55,
      "hit": false,
      "t": 144657.39200000017,
      "d": 175.51352604167187,
      "v": 88
    },
    {
      "midi": 79,
      "hit": false,
      "t": 144657.39200000017,
      "d": 205.47925000000396,
      "v": 81
    },
    {
      "midi": 76,
      "hit": false,
      "t": 144862.8712500001,
      "d": 205.47925000000396,
      "v": 81
    },
    {
      "midi": 52,
      "hit": false,
      "t": 144862.87125000017,
      "d": 149.82861979166046,
      "v": 88
    },
    {
      "midi": 76,
      "hit": false,
      "t": 144862.87125000017,
      "d": 205.47925000000396,
      "v": 81
    },
    {
      "midi": 72,
      "hit": false,
      "t": 145068.35050000012,
      "d": 205.47925000000396,
      "v": 81
    },
    {
      "midi": 48,
      "hit": false,
      "t": 145068.35050000018,
      "d": 282.5339687500091,
      "v": 88
    },
    {
      "midi": 72,
      "hit": false,
      "t": 145068.35050000018,
      "d": 205.47925000000396,
      "v": 81
    },
    {
      "midi": 67,
      "hit": false,
      "t": 146301.2260000001,
      "d": 205.47925000000396,
      "v": 81
    },
    {
      "midi": 43,
      "hit": false,
      "t": 146301.22600000017,
      "d": 205.47925000000396,
      "v": 88
    },
    {
      "midi": 67,
      "hit": false,
      "t": 146301.22600000017,
      "d": 205.47925000000396,
      "v": 81
    },
    {
      "midi": 71,
      "hit": false,
      "t": 146506.70525000012,
      "d": 205.47925000000396,
      "v": 81
    },
    {
      "midi": 47,
      "hit": false,
      "t": 146506.70525000017,
      "d": 154.10943750001024,
      "v": 88
    },
    {
      "midi": 71,
      "hit": false,
      "t": 146506.70525000017,
      "d": 205.47925000000396,
      "v": 81
    },
    {
      "midi": 74,
      "hit": false,
      "t": 146712.18450000012,
      "d": 205.47925000000396,
      "v": 81
    },
    {
      "midi": 50,
      "hit": false,
      "t": 146712.18450000018,
      "d": 244.00660937500652,
      "v": 88
    },
    {
      "midi": 74,
      "hit": false,
      "t": 146712.18450000018,
      "d": 205.47925000000396,
      "v": 81
    },
    {
      "midi": 79,
      "hit": false,
      "t": 147945.0600000001,
      "d": 205.47925000000396,
      "v": 81
    },
    {
      "midi": 55,
      "hit": false,
      "t": 147945.06000000017,
      "d": 162.6710729166807,
      "v": 88
    },
    {
      "midi": 79,
      "hit": false,
      "t": 147945.06000000017,
      "d": 205.47925000000396,
      "v": 81
    },
    {
      "midi": 76,
      "hit": false,
      "t": 148150.53925000012,
      "d": 205.47925000000396,
      "v": 81
    },
    {
      "midi": 52,
      "hit": false,
      "t": 148150.53925000018,
      "d": 124.14371354167815,
      "v": 88
    },
    {
      "midi": 76,
      "hit": false,
      "t": 148150.53925000018,
      "d": 205.47925000000396,
      "v": 81
    },
    {
      "midi": 72,
      "hit": false,
      "t": 148356.01850000012,
      "d": 205.47925000000396,
      "v": 81
    },
    {
      "midi": 48,
      "hit": false,
      "t": 148356.01850000018,
      "d": 244.00660937500652,
      "v": 88
    },
    {
      "midi": 72,
      "hit": false,
      "t": 148356.01850000018,
      "d": 205.47925000000396,
      "v": 81
    },
    {
      "midi": 88,
      "hit": false,
      "t": 149588.89400000003,
      "d": 3253.4214583333232,
      "v": 73
    },
    {
      "midi": 52,
      "hit": false,
      "t": 149588.89400000017,
      "d": 38.52735937500256,
      "v": 88
    },
    {
      "midi": 67,
      "hit": false,
      "t": 149588.89400000017,
      "d": 1643.8340000000026,
      "v": 84
    },
    {
      "midi": 71,
      "hit": false,
      "t": 149588.89400000017,
      "d": 1643.8340000000026,
      "v": 84
    },
    {
      "midi": 76,
      "hit": false,
      "t": 149588.89400000017,
      "d": 1643.8340000000026,
      "v": 84
    },
    {
      "midi": 52,
      "hit": false,
      "t": 149764.40752604185,
      "d": 55.6506302083435,
      "v": 88
    },
    {
      "midi": 52,
      "hit": false,
      "t": 149982.72922916687,
      "d": 85.61635416667559,
      "v": 88
    },
    {
      "midi": 76,
      "hit": false,
      "t": 149999.85250000012,
      "d": 154.10943750001024,
      "v": 81
    },
    {
      "midi": 71,
      "hit": false,
      "t": 149999.85250000012,
      "d": 166.9518906250014,
      "v": 81
    },
    {
      "midi": 67,
      "hit": false,
      "t": 149999.85250000012,
      "d": 196.9176145833335,
      "v": 81
    },
    {
      "midi": 52,
      "hit": false,
      "t": 150179.6468437502,
      "d": 68.49308333333465,
      "v": 88
    },
    {
      "midi": 52,
      "hit": false,
      "t": 150410.81100000022,
      "d": 693.4924687499879,
      "v": 88
    },
    {
      "midi": 71,
      "hit": false,
      "t": 150821.7695000001,
      "d": 205.47925000000396,
      "v": 81
    },
    {
      "midi": 76,
      "hit": false,
      "t": 150821.7695000001,
      "d": 205.47925000000396,
      "v": 81
    },
    {
      "midi": 67,
      "hit": false,
      "t": 150821.7695000001,
      "d": 222.6025208333449,
      "v": 81
    },
    {
      "midi": 69,
      "hit": false,
      "t": 151232.72800000018,
      "d": 1643.8340000000026,
      "v": 84
    },
    {
      "midi": 73,
      "hit": false,
      "t": 151232.72800000018,
      "d": 1643.8340000000026,
      "v": 84
    },
    {
      "midi": 76,
      "hit": false,
      "t": 151232.72800000018,
      "d": 1643.8340000000026,
      "v": 84
    },
    {
      "midi": 45,
      "hit": false,
      "t": 151446.76888541688,
      "d": 81.3355364583258,
      "v": 88
    },
    {
      "midi": 45,
      "hit": false,
      "t": 151635.12486458354,
      "d": 98.45880729166674,
      "v": 88
    },
    {
      "midi": 73,
      "hit": false,
      "t": 151643.68650000013,
      "d": 192.6367968750128,
      "v": 81
    },
    {
      "midi": 76,
      "hit": false,
      "t": 151643.68650000013,
      "d": 218.32170312502421,
      "v": 81
    },
    {
      "midi": 69,
      "hit": false,
      "t": 151643.68650000013,
      "d": 248.2874270833563,
      "v": 81
    },
    {
      "midi": 45,
      "hit": false,
      "t": 151844.88493229187,
      "d": 72.77390104165534,
      "v": 88
    },
    {
      "midi": 45,
      "hit": false,
      "t": 152054.6450000002,
      "d": 813.3553645833454,
      "v": 88
    },
    {
      "midi": 76,
      "hit": false,
      "t": 152465.60350000014,
      "d": 188.35597916666302,
      "v": 81
    },
    {
      "midi": 73,
      "hit": false,
      "t": 152465.60350000014,
      "d": 192.6367968749837,
      "v": 81
    },
    {
      "midi": 69,
      "hit": false,
      "t": 152465.60350000014,
      "d": 205.47924999997485,
      "v": 81
    },
    {
      "midi": 86,
      "hit": false,
      "t": 152876.562,
      "d": 1245.7179531249858,
      "v": 79
    },
    {
      "midi": 69,
      "hit": false,
      "t": 152876.56200000018,
      "d": 1643.8340000000026,
      "v": 84
    },
    {
      "midi": 74,
      "hit": false,
      "t": 152876.56200000018,
      "d": 1643.8340000000026,
      "v": 84
    },
    {
      "midi": 77,
      "hit": false,
      "t": 152876.56200000018,
      "d": 1643.8340000000026,
      "v": 84
    },
    {
      "midi": 50,
      "hit": false,
      "t": 153086.32206770853,
      "d": 72.77390104165534,
      "v": 88
    },
    {
      "midi": 50,
      "hit": false,
      "t": 153278.95886458352,
      "d": 72.77390104165534,
      "v": 88
    },
    {
      "midi": 69,
      "hit": false,
      "t": 153287.52050000013,
      "d": 231.16415624998626,
      "v": 81
    },
    {
      "midi": 74,
      "hit": false,
      "t": 153287.52050000013,
      "d": 231.16415624998626,
      "v": 81
    },
    {
      "midi": 77,
      "hit": false,
      "t": 153287.52050000013,
      "d": 231.16415624998626,
      "v": 81
    },
    {
      "midi": 50,
      "hit": false,
      "t": 153488.71893229184,
      "d": 55.6506302083435,
      "v": 88
    },
    {
      "midi": 50,
      "hit": false,
      "t": 153698.4790000002,
      "d": 736.3006458333402,
      "v": 88
    },
    {
      "midi": 93,
      "hit": false,
      "t": 154109.4375,
      "d": 359.5886874999851,
      "v": 67
    },
    {
      "midi": 74,
      "hit": false,
      "t": 154109.43750000012,
      "d": 218.3217031249951,
      "v": 81
    },
    {
      "midi": 77,
      "hit": false,
      "t": 154109.43750000012,
      "d": 218.3217031249951,
      "v": 81
    },
    {
      "midi": 69,
      "hit": false,
      "t": 154109.43750000012,
      "d": 235.44497395833605,
      "v": 81
    },
    {
      "midi": 92,
      "hit": false,
      "t": 154520.39599999998,
      "d": 1489.7245624999923,
      "v": 69
    },
    {
      "midi": 68,
      "hit": false,
      "t": 154520.39600000018,
      "d": 1643.8340000000026,
      "v": 84
    },
    {
      "midi": 71,
      "hit": false,
      "t": 154520.39600000018,
      "d": 1643.8340000000026,
      "v": 84
    },
    {
      "midi": 76,
      "hit": false,
      "t": 154520.39600000018,
      "d": 1643.8340000000026,
      "v": 84
    },
    {
      "midi": 40,
      "hit": false,
      "t": 154721.59443229187,
      "d": 81.3355364583258,
      "v": 88
    },
    {
      "midi": 40,
      "hit": false,
      "t": 154914.23122916685,
      "d": 81.3355364583258,
      "v": 88
    },
    {
      "midi": 71,
      "hit": false,
      "t": 154931.35450000013,
      "d": 222.6025208333449,
      "v": 81
    },
    {
      "midi": 68,
      "hit": false,
      "t": 154931.35450000013,
      "d": 235.44497395833605,
      "v": 81
    },
    {
      "midi": 76,
      "hit": false,
      "t": 154931.35450000013,
      "d": 248.2874270833272,
      "v": 81
    },
    {
      "midi": 40,
      "hit": false,
      "t": 155149.6762031252,
      "d": 55.6506302083435,
      "v": 88
    },
    {
      "midi": 40,
      "hit": false,
      "t": 155342.3130000002,
      "d": 351.02705208334373,
      "v": 88
    },
    {
      "midi": 71,
      "hit": false,
      "t": 155753.27150000012,
      "d": 205.47925000000396,
      "v": 81
    },
    {
      "midi": 68,
      "hit": false,
      "t": 155753.27150000012,
      "d": 218.3217031249951,
      "v": 81
    },
    {
      "midi": 76,
      "hit": false,
      "t": 155753.27150000012,
      "d": 252.56824479164788,
      "v": 81
    },
    {
      "midi": 44,
      "hit": false,
      "t": 155791.7988593752,
      "d": 312.4996927083412,
      "v": 88
    },
    {
      "midi": 93,
      "hit": false,
      "t": 156164.22999999998,
      "d": 1643.8340000000026,
      "v": 69
    },
    {
      "midi": 69,
      "hit": false,
      "t": 156164.2300000001,
      "d": 244.00660937500652,
      "v": 81
    },
    {
      "midi": 72,
      "hit": false,
      "t": 156164.2300000001,
      "d": 244.00660937500652,
      "v": 81
    },
    {
      "midi": 76,
      "hit": false,
      "t": 156164.2300000001,
      "d": 256.8490624999977,
      "v": 81
    },
    {
      "midi": 81,
      "hit": false,
      "t": 156164.2300000001,
      "d": 256.8490624999977,
      "v": 81
    },
    {
      "midi": 69,
      "hit": false,
      "t": 156164.23000000019,
      "d": 1643.8340000000026,
      "v": 84
    },
    {
      "midi": 72,
      "hit": false,
      "t": 156164.23000000019,
      "d": 1643.8340000000026,
      "v": 84
    },
    {
      "midi": 76,
      "hit": false,
      "t": 156164.23000000019,
      "d": 1643.8340000000026,
      "v": 84
    },
    {
      "midi": 45,
      "hit": false,
      "t": 156164.2300000002,
      "d": 727.7390104166698,
      "v": 88
    },
    {
      "midi": 72,
      "hit": false,
      "t": 156575.1885000001,
      "d": 231.16415624998626,
      "v": 81
    },
    {
      "midi": 81,
      "hit": false,
      "t": 156575.1885000001,
      "d": 248.2874270833272,
      "v": 81
    },
    {
      "midi": 69,
      "hit": false,
      "t": 156575.1885000001,
      "d": 261.12988020831835,
      "v": 81
    },
    {
      "midi": 76,
      "hit": false,
      "t": 156575.1885000001,
      "d": 261.12988020831835,
      "v": 81
    },
    {
      "midi": 69,
      "hit": false,
      "t": 156986.14700000008,
      "d": 231.16415624998626,
      "v": 81
    },
    {
      "midi": 72,
      "hit": false,
      "t": 156986.14700000008,
      "d": 273.9723333333095,
      "v": 81
    },
    {
      "midi": 81,
      "hit": false,
      "t": 156986.14700000008,
      "d": 273.9723333333095,
      "v": 81
    },
    {
      "midi": 76,
      "hit": false,
      "t": 156986.14700000008,
      "d": 291.09560416665045,
      "v": 81
    },
    {
      "midi": 45,
      "hit": false,
      "t": 156986.14700000023,
      "d": 757.7047343750019,
      "v": 88
    },
    {
      "midi": 81,
      "hit": false,
      "t": 157397.10550000006,
      "d": 273.9723333333386,
      "v": 81
    },
    {
      "midi": 72,
      "hit": false,
      "t": 157397.10550000006,
      "d": 286.81478645832976,
      "v": 81
    },
    {
      "midi": 69,
      "hit": false,
      "t": 157397.10550000006,
      "d": 303.9380572916707,
      "v": 81
    },
    {
      "midi": 76,
      "hit": false,
      "t": 157397.10550000006,
      "d": 316.78051041666185,
      "v": 81
    },
    {
      "midi": 91,
      "hit": false,
      "t": 157808.06399999998,
      "d": 1643.8340000000026,
      "v": 69
    },
    {
      "midi": 72,
      "hit": false,
      "t": 157808.06400000007,
      "d": 278.2531510416593,
      "v": 81
    },
    {
      "midi": 67,
      "hit": false,
      "t": 157808.06400000007,
      "d": 291.09560416665045,
      "v": 81
    },
    {
      "midi": 76,
      "hit": false,
      "t": 157808.06400000007,
      "d": 291.09560416665045,
      "v": 81
    },
    {
      "midi": 79,
      "hit": false,
      "t": 157808.06400000007,
      "d": 291.09560416665045,
      "v": 81
    },
    {
      "midi": 67,
      "hit": false,
      "t": 157808.0640000002,
      "d": 1643.8340000000026,
      "v": 84
    },
    {
      "midi": 72,
      "hit": false,
      "t": 157808.0640000002,
      "d": 1643.8340000000026,
      "v": 84
    },
    {
      "midi": 76,
      "hit": false,
      "t": 157808.0640000002,
      "d": 1643.8340000000026,
      "v": 84
    },
    {
      "midi": 43,
      "hit": false,
      "t": 157808.06400000025,
      "d": 736.3006458333402,
      "v": 88
    },
    {
      "midi": 72,
      "hit": false,
      "t": 158219.02250000005,
      "d": 261.12988020834746,
      "v": 81
    },
    {
      "midi": 76,
      "hit": false,
      "t": 158219.02250000005,
      "d": 273.9723333333386,
      "v": 81
    },
    {
      "midi": 67,
      "hit": false,
      "t": 158219.02250000005,
      "d": 282.5339687500091,
      "v": 81
    },
    {
      "midi": 79,
      "hit": false,
      "t": 158219.02250000005,
      "d": 282.5339687500091,
      "v": 81
    },
    {
      "midi": 72,
      "hit": false,
      "t": 158629.98100000006,
      "d": 261.12988020834746,
      "v": 81
    },
    {
      "midi": 76,
      "hit": false,
      "t": 158629.98100000006,
      "d": 261.12988020834746,
      "v": 81
    },
    {
      "midi": 79,
      "hit": false,
      "t": 158629.98100000006,
      "d": 261.12988020834746,
      "v": 81
    },
    {
      "midi": 67,
      "hit": false,
      "t": 158629.98100000006,
      "d": 273.9723333333386,
      "v": 81
    },
    {
      "midi": 43,
      "hit": false,
      "t": 158629.98100000026,
      "d": 719.1773749999993,
      "v": 88
    },
    {
      "midi": 79,
      "hit": false,
      "t": 159040.93950000007,
      "d": 282.5339687500091,
      "v": 81
    },
    {
      "midi": 72,
      "hit": false,
      "t": 159040.93950000007,
      "d": 286.81478645832976,
      "v": 81
    },
    {
      "midi": 67,
      "hit": false,
      "t": 159040.93950000007,
      "d": 299.6572395833209,
      "v": 81
    },
    {
      "midi": 76,
      "hit": false,
      "t": 159040.93950000007,
      "d": 316.78051041666185,
      "v": 81
    },
    {
      "midi": 90,
      "hit": false,
      "t": 159451.898,
      "d": 1643.8340000000026,
      "v": 69
    },
    {
      "midi": 69,
      "hit": false,
      "t": 159451.89800000007,
      "d": 231.16415624998626,
      "v": 81
    },
    {
      "midi": 66,
      "hit": false,
      "t": 159451.89800000007,
      "d": 248.2874270833272,
      "v": 81
    },
    {
      "midi": 74,
      "hit": false,
      "t": 159451.89800000007,
      "d": 261.12988020831835,
      "v": 81
    },
    {
      "midi": 78,
      "hit": false,
      "t": 159451.89800000007,
      "d": 295.37642187497113,
      "v": 81
    },
    {
      "midi": 66,
      "hit": false,
      "t": 159451.8980000002,
      "d": 1643.8340000000026,
      "v": 84
    },
    {
      "midi": 69,
      "hit": false,
      "t": 159451.8980000002,
      "d": 1643.8340000000026,
      "v": 84
    },
    {
      "midi": 74,
      "hit": false,
      "t": 159451.8980000002,
      "d": 1643.8340000000026,
      "v": 84
    },
    {
      "midi": 42,
      "hit": false,
      "t": 159451.89800000025,
      "d": 744.8622812500107,
      "v": 88
    },
    {
      "midi": 66,
      "hit": false,
      "t": 159862.85650000005,
      "d": 235.44497395833605,
      "v": 81
    },
    {
      "midi": 69,
      "hit": false,
      "t": 159862.85650000005,
      "d": 235.44497395833605,
      "v": 81
    },
    {
      "midi": 74,
      "hit": false,
      "t": 159862.85650000005,
      "d": 278.2531510416593,
      "v": 81
    },
    {
      "midi": 78,
      "hit": false,
      "t": 159862.85650000005,
      "d": 278.2531510416593,
      "v": 81
    },
    {
      "midi": 69,
      "hit": false,
      "t": 160273.81500000003,
      "d": 248.2874270833272,
      "v": 81
    },
    {
      "midi": 66,
      "hit": false,
      "t": 160273.81500000003,
      "d": 265.41069791666814,
      "v": 81
    },
    {
      "midi": 74,
      "hit": false,
      "t": 160273.81500000003,
      "d": 278.2531510416593,
      "v": 81
    },
    {
      "midi": 78,
      "hit": false,
      "t": 160273.81500000003,
      "d": 308.2188749999914,
      "v": 81
    },
    {
      "midi": 42,
      "hit": false,
      "t": 160273.81500000026,
      "d": 744.8622812500107,
      "v": 88
    },
    {
      "midi": 66,
      "hit": false,
      "t": 160684.7735,
      "d": 179.79434374999255,
      "v": 81
    },
    {
      "midi": 69,
      "hit": false,
      "t": 160684.7735,
      "d": 273.9723333333386,
      "v": 81
    },
    {
      "midi": 78,
      "hit": false,
      "t": 160684.7735,
      "d": 273.9723333333386,
      "v": 81
    },
    {
      "midi": 74,
      "hit": false,
      "t": 160684.7735,
      "d": 278.2531510416593,
      "v": 81
    },
    {
      "midi": 74,
      "hit": false,
      "t": 161095.732,
      "d": 273.9723333333386,
      "v": 81
    },
    {
      "midi": 86,
      "hit": false,
      "t": 161095.732,
      "d": 273.9723333333386,
      "v": 81
    },
    {
      "midi": 86,
      "hit": false,
      "t": 161095.732,
      "d": 1643.8340000000026,
      "v": 69
    },
    {
      "midi": 62,
      "hit": false,
      "t": 161095.7320000002,
      "d": 1643.8340000000026,
      "v": 84
    },
    {
      "midi": 74,
      "hit": false,
      "t": 161095.7320000002,
      "d": 1643.8340000000026,
      "v": 84
    },
    {
      "midi": 50,
      "hit": false,
      "t": 161095.73200000028,
      "d": 273.9723333333386,
      "v": 88
    },
    {
      "midi": 76,
      "hit": false,
      "t": 161369.70433333333,
      "d": 273.9723333333386,
      "v": 81
    },
    {
      "midi": 88,
      "hit": false,
      "t": 161369.70433333333,
      "d": 273.9723333333386,
      "v": 81
    },
    {
      "midi": 52,
      "hit": false,
      "t": 161369.70433333362,
      "d": 273.9723333333386,
      "v": 88
    },
    {
      "midi": 78,
      "hit": false,
      "t": 161643.67666666667,
      "d": 273.9723333333386,
      "v": 81
    },
    {
      "midi": 90,
      "hit": false,
      "t": 161643.67666666667,
      "d": 273.9723333333386,
      "v": 81
    },
    {
      "midi": 54,
      "hit": false,
      "t": 161643.67666666696,
      "d": 273.9723333333386,
      "v": 88
    },
    {
      "midi": 79,
      "hit": false,
      "t": 161917.649,
      "d": 273.9723333333386,
      "v": 81
    },
    {
      "midi": 91,
      "hit": false,
      "t": 161917.649,
      "d": 273.9723333333386,
      "v": 81
    },
    {
      "midi": 55,
      "hit": false,
      "t": 161917.6490000003,
      "d": 273.9723333333386,
      "v": 88
    },
    {
      "midi": 81,
      "hit": false,
      "t": 162191.62133333334,
      "d": 273.9723333333386,
      "v": 81
    },
    {
      "midi": 93,
      "hit": false,
      "t": 162191.62133333334,
      "d": 273.9723333333386,
      "v": 81
    },
    {
      "midi": 57,
      "hit": false,
      "t": 162191.62133333363,
      "d": 273.9723333333386,
      "v": 88
    },
    {
      "midi": 83,
      "hit": false,
      "t": 162465.59366666668,
      "d": 273.9723333333386,
      "v": 81
    },
    {
      "midi": 95,
      "hit": false,
      "t": 162465.59366666668,
      "d": 273.9723333333386,
      "v": 81
    },
    {
      "midi": 59,
      "hit": false,
      "t": 162465.59366666697,
      "d": 273.9723333333386,
      "v": 88
    },
    {
      "midi": 55,
      "hit": false,
      "t": 162726.72354687506,
      "d": 1630.9915468750114,
      "v": 47
    },
    {
      "midi": 59,
      "hit": false,
      "t": 162726.72354687506,
      "d": 1630.9915468750114,
      "v": 47
    },
    {
      "midi": 62,
      "hit": false,
      "t": 162726.72354687506,
      "d": 1630.9915468750114,
      "v": 47
    },
    {
      "midi": 91,
      "hit": false,
      "t": 162739.566,
      "d": 1643.8340000000026,
      "v": 69
    },
    {
      "midi": 74,
      "hit": false,
      "t": 162739.56600000002,
      "d": 89.89717187499627,
      "v": 81
    },
    {
      "midi": 71,
      "hit": false,
      "t": 162739.56600000002,
      "d": 115.58207812500768,
      "v": 81
    },
    {
      "midi": 79,
      "hit": false,
      "t": 162739.56600000002,
      "d": 115.58207812500768,
      "v": 81
    },
    {
      "midi": 67,
      "hit": false,
      "t": 162739.5660000002,
      "d": 1643.8340000000026,
      "v": 84
    },
    {
      "midi": 71,
      "hit": false,
      "t": 162739.5660000002,
      "d": 1643.8340000000026,
      "v": 84
    },
    {
      "midi": 74,
      "hit": false,
      "t": 162739.5660000002,
      "d": 1643.8340000000026,
      "v": 84
    },
    {
      "midi": 43,
      "hit": false,
      "t": 162739.5660000003,
      "d": 94.17798958334606,
      "v": 88
    },
    {
      "midi": 43,
      "hit": false,
      "t": 162945.04525000032,
      "d": 85.61635416667559,
      "v": 88
    },
    {
      "midi": 43,
      "hit": false,
      "t": 163150.52450000032,
      "d": 98.45880729166674,
      "v": 88
    },
    {
      "midi": 74,
      "hit": false,
      "t": 163356.00375000003,
      "d": 136.9861666666693,
      "v": 81
    },
    {
      "midi": 71,
      "hit": false,
      "t": 163356.00375000003,
      "d": 166.9518906250014,
      "v": 81
    },
    {
      "midi": 79,
      "hit": false,
      "t": 163356.00375000003,
      "d": 166.9518906250014,
      "v": 81
    },
    {
      "midi": 43,
      "hit": false,
      "t": 163356.00375000032,
      "d": 98.45880729166674,
      "v": 88
    },
    {
      "midi": 43,
      "hit": false,
      "t": 163561.48300000033,
      "d": 719.1773749999993,
      "v": 88
    },
    {
      "midi": 74,
      "hit": false,
      "t": 163976.72231770837,
      "d": 162.6710729166807,
      "v": 81
    },
    {
      "midi": 79,
      "hit": false,
      "t": 163976.72231770837,
      "d": 179.79434375002165,
      "v": 81
    },
    {
      "midi": 71,
      "hit": false,
      "t": 163976.72231770837,
      "d": 192.6367968750128,
      "v": 81
    },
    {
      "midi": 54,
      "hit": false,
      "t": 164370.55754687506,
      "d": 809.0745468749956,
      "v": 47
    },
    {
      "midi": 59,
      "hit": false,
      "t": 164370.55754687506,
      "d": 809.0745468749956,
      "v": 47
    },
    {
      "midi": 62,
      "hit": false,
      "t": 164370.55754687506,
      "d": 809.0745468749956,
      "v": 47
    },
    {
      "midi": 90,
      "hit": false,
      "t": 164383.4,
      "d": 821.9169999999867,
      "v": 69
    },
    {
      "midi": 71,
      "hit": false,
      "t": 164383.40000000005,
      "d": 124.14371354167815,
      "v": 81
    },
    {
      "midi": 74,
      "hit": false,
      "t": 164383.40000000005,
      "d": 124.14371354167815,
      "v": 81
    },
    {
      "midi": 78,
      "hit": false,
      "t": 164383.40000000005,
      "d": 124.14371354167815,
      "v": 81
    },
    {
      "midi": 66,
      "hit": false,
      "t": 164383.4000000002,
      "d": 821.9169999999867,
      "v": 84
    },
    {
      "midi": 71,
      "hit": false,
      "t": 164383.4000000002,
      "d": 821.9169999999867,
      "v": 84
    },
    {
      "midi": 74,
      "hit": false,
      "t": 164383.4000000002,
      "d": 821.9169999999867,
      "v": 84
    },
    {
      "midi": 47,
      "hit": false,
      "t": 164383.4000000003,
      "d": 179.79434374999255,
      "v": 88
    },
    {
      "midi": 47,
      "hit": false,
      "t": 164657.37233333365,
      "d": 154.10943750001024,
      "v": 88
    },
    {
      "midi": 74,
      "hit": false,
      "t": 164674.49560416673,
      "d": 98.45880729166674,
      "v": 81
    },
    {
      "midi": 78,
      "hit": false,
      "t": 164674.49560416673,
      "d": 98.45880729166674,
      "v": 81
    },
    {
      "midi": 71,
      "hit": false,
      "t": 164674.49560416673,
      "d": 115.58207812500768,
      "v": 81
    },
    {
      "midi": 71,
      "hit": false,
      "t": 164931.34466666673,
      "d": 136.9861666666693,
      "v": 81
    },
    {
      "midi": 74,
      "hit": false,
      "t": 164931.34466666673,
      "d": 136.9861666666693,
      "v": 81
    },
    {
      "midi": 78,
      "hit": false,
      "t": 164931.34466666673,
      "d": 136.9861666666693,
      "v": 81
    },
    {
      "midi": 47,
      "hit": false,
      "t": 164931.344666667,
      "d": 136.9861666666693,
      "v": 88
    },
    {
      "midi": 55,
      "hit": false,
      "t": 165192.47454687505,
      "d": 1630.9915468750114,
      "v": 47
    },
    {
      "midi": 60,
      "hit": false,
      "t": 165192.47454687505,
      "d": 1630.9915468750114,
      "v": 47
    },
    {
      "midi": 64,
      "hit": false,
      "t": 165192.47454687505,
      "d": 1630.9915468750114,
      "v": 47
    },
    {
      "midi": 88,
      "hit": false,
      "t": 165205.31699999998,
      "d": 821.9169999999867,
      "v": 69
    },
    {
      "midi": 72,
      "hit": false,
      "t": 165205.31700000007,
      "d": 192.6367968750128,
      "v": 81
    },
    {
      "midi": 67,
      "hit": false,
      "t": 165205.31700000007,
      "d": 196.9176145833335,
      "v": 81
    },
    {
      "midi": 76,
      "hit": false,
      "t": 165205.31700000007,
      "d": 196.9176145833335,
      "v": 81
    },
    {
      "midi": 67,
      "hit": false,
      "t": 165205.31700000018,
      "d": 1643.8340000000026,
      "v": 84
    },
    {
      "midi": 72,
      "hit": false,
      "t": 165205.31700000018,
      "d": 1643.8340000000026,
      "v": 84
    },
    {
      "midi": 76,
      "hit": false,
      "t": 165205.31700000018,
      "d": 1643.8340000000026,
      "v": 84
    },
    {
      "midi": 48,
      "hit": false,
      "t": 165205.31700000033,
      "d": 192.6367968750128,
      "v": 88
    },
    {
      "midi": 67,
      "hit": false,
      "t": 165616.27550000008,
      "d": 179.79434374999255,
      "v": 81
    },
    {
      "midi": 72,
      "hit": false,
      "t": 165616.27550000008,
      "d": 179.79434374999255,
      "v": 81
    },
    {
      "midi": 76,
      "hit": false,
      "t": 165616.27550000008,
      "d": 179.79434374999255,
      "v": 81
    },
    {
      "midi": 48,
      "hit": false,
      "t": 165616.27550000034,
      "d": 218.3217031249951,
      "v": 88
    },
    {
      "midi": 88,
      "hit": false,
      "t": 166027.23399999997,
      "d": 821.9169999999867,
      "v": 69
    },
    {
      "midi": 72,
      "hit": false,
      "t": 166027.23400000005,
      "d": 663.5267447916558,
      "v": 81
    },
    {
      "midi": 76,
      "hit": false,
      "t": 166027.23400000005,
      "d": 663.5267447916558,
      "v": 81
    },
    {
      "midi": 67,
      "hit": false,
      "t": 166027.23400000005,
      "d": 676.369197916647,
      "v": 81
    },
    {
      "midi": 48,
      "hit": false,
      "t": 166027.23400000035,
      "d": 646.403473958344,
      "v": 88
    },
    {
      "midi": 55,
      "hit": false,
      "t": 166836.30854687505,
      "d": 192.6367968750128,
      "v": 47
    },
    {
      "midi": 60,
      "hit": false,
      "t": 166836.30854687505,
      "d": 192.6367968750128,
      "v": 47
    },
    {
      "midi": 64,
      "hit": false,
      "t": 166836.30854687505,
      "d": 192.6367968750128,
      "v": 47
    },
    {
      "midi": 88,
      "hit": false,
      "t": 166849.15099999995,
      "d": 205.47925000000396,
      "v": 69
    },
    {
      "midi": 67,
      "hit": false,
      "t": 166849.15100000004,
      "d": 111.3012604166579,
      "v": 81
    },
    {
      "midi": 67,
      "hit": false,
      "t": 166849.1510000002,
      "d": 205.47925000000396,
      "v": 84
    },
    {
      "midi": 72,
      "hit": false,
      "t": 166849.1510000002,
      "d": 205.47925000000396,
      "v": 84
    },
    {
      "midi": 76,
      "hit": false,
      "t": 166849.1510000002,
      "d": 205.47925000000396,
      "v": 84
    },
    {
      "midi": 48,
      "hit": false,
      "t": 166849.15100000036,
      "d": 136.9861666666693,
      "v": 88
    },
    {
      "midi": 72,
      "hit": false,
      "t": 166861.99345312503,
      "d": 128.42453124999884,
      "v": 81
    },
    {
      "midi": 76,
      "hit": false,
      "t": 166861.99345312503,
      "d": 128.42453124999884,
      "v": 81
    },
    {
      "midi": 74,
      "hit": false,
      "t": 167054.63025000005,
      "d": 616.4377500000119,
      "v": 81
    },
    {
      "midi": 78,
      "hit": false,
      "t": 167054.63025000005,
      "d": 616.4377500000119,
      "v": 81
    },
    {
      "midi": 69,
      "hit": false,
      "t": 167071.7535208334,
      "d": 599.3144791666709,
      "v": 81
    },
    {
      "midi": 57,
      "hit": false,
      "t": 167076.03433854174,
      "d": 569.3487552083388,
      "v": 47
    },
    {
      "midi": 62,
      "hit": false,
      "t": 167076.03433854174,
      "d": 569.3487552083388,
      "v": 47
    },
    {
      "midi": 66,
      "hit": false,
      "t": 167076.03433854174,
      "d": 569.3487552083388,
      "v": 47
    },
    {
      "midi": 90,
      "hit": false,
      "t": 167088.8767916666,
      "d": 582.19120833333,
      "v": 69
    },
    {
      "midi": 69,
      "hit": false,
      "t": 167088.87679166684,
      "d": 582.19120833333,
      "v": 84
    },
    {
      "midi": 74,
      "hit": false,
      "t": 167088.87679166684,
      "d": 582.19120833333,
      "v": 84
    },
    {
      "midi": 78,
      "hit": false,
      "t": 167088.87679166684,
      "d": 582.19120833333,
      "v": 84
    },
    {
      "midi": 50,
      "hit": false,
      "t": 167088.87679166702,
      "d": 552.2254843749979,
      "v": 88
    },
    {
      "midi": 55,
      "hit": false,
      "t": 167658.22554687507,
      "d": 1630.9915468750114,
      "v": 47
    },
    {
      "midi": 59,
      "hit": false,
      "t": 167658.22554687507,
      "d": 1630.9915468750114,
      "v": 47
    },
    {
      "midi": 62,
      "hit": false,
      "t": 167658.22554687507,
      "d": 1630.9915468750114,
      "v": 47
    },
    {
      "midi": 91,
      "hit": false,
      "t": 167671.06799999994,
      "d": 1643.8340000000026,
      "v": 69
    },
    {
      "midi": 74,
      "hit": false,
      "t": 167671.06800000006,
      "d": 89.89717187499627,
      "v": 81
    },
    {
      "midi": 71,
      "hit": false,
      "t": 167671.06800000006,
      "d": 115.58207812500768,
      "v": 81
    },
    {
      "midi": 79,
      "hit": false,
      "t": 167671.06800000006,
      "d": 115.58207812500768,
      "v": 81
    },
    {
      "midi": 67,
      "hit": false,
      "t": 167671.06800000017,
      "d": 1643.8340000000026,
      "v": 84
    },
    {
      "midi": 71,
      "hit": false,
      "t": 167671.06800000017,
      "d": 1643.8340000000026,
      "v": 84
    },
    {
      "midi": 74,
      "hit": false,
      "t": 167671.06800000017,
      "d": 1643.8340000000026,
      "v": 84
    },
    {
      "midi": 43,
      "hit": false,
      "t": 167671.06800000035,
      "d": 94.17798958334606,
      "v": 88
    },
    {
      "midi": 43,
      "hit": false,
      "t": 167876.54725000035,
      "d": 85.61635416667559,
      "v": 88
    },
    {
      "midi": 43,
      "hit": false,
      "t": 168082.02650000036,
      "d": 98.45880729166674,
      "v": 88
    },
    {
      "midi": 74,
      "hit": false,
      "t": 168287.50575000007,
      "d": 136.9861666666693,
      "v": 81
    },
    {
      "midi": 71,
      "hit": false,
      "t": 168287.50575000007,
      "d": 166.9518906250014,
      "v": 81
    },
    {
      "midi": 79,
      "hit": false,
      "t": 168287.50575000007,
      "d": 166.9518906250014,
      "v": 81
    },
    {
      "midi": 43,
      "hit": false,
      "t": 168287.50575000036,
      "d": 98.45880729166674,
      "v": 88
    },
    {
      "midi": 43,
      "hit": false,
      "t": 168492.98500000036,
      "d": 719.1773749999993,
      "v": 88
    },
    {
      "midi": 74,
      "hit": false,
      "t": 168908.2243177084,
      "d": 162.6710729166807,
      "v": 81
    },
    {
      "midi": 79,
      "hit": false,
      "t": 168908.2243177084,
      "d": 179.79434375002165,
      "v": 81
    },
    {
      "midi": 71,
      "hit": false,
      "t": 168908.2243177084,
      "d": 192.6367968750128,
      "v": 81
    },
    {
      "midi": 54,
      "hit": false,
      "t": 169302.05954687507,
      "d": 809.0745468749956,
      "v": 47
    },
    {
      "midi": 59,
      "hit": false,
      "t": 169302.05954687507,
      "d": 809.0745468749956,
      "v": 47
    },
    {
      "midi": 62,
      "hit": false,
      "t": 169302.05954687507,
      "d": 809.0745468749956,
      "v": 47
    },
    {
      "midi": 90,
      "hit": false,
      "t": 169314.90199999994,
      "d": 821.9169999999867,
      "v": 69
    },
    {
      "midi": 71,
      "hit": false,
      "t": 169314.9020000001,
      "d": 124.14371354167815,
      "v": 81
    },
    {
      "midi": 74,
      "hit": false,
      "t": 169314.9020000001,
      "d": 124.14371354167815,
      "v": 81
    },
    {
      "midi": 78,
      "hit": false,
      "t": 169314.9020000001,
      "d": 124.14371354167815,
      "v": 81
    },
    {
      "midi": 66,
      "hit": false,
      "t": 169314.90200000018,
      "d": 821.9169999999867,
      "v": 84
    },
    {
      "midi": 71,
      "hit": false,
      "t": 169314.90200000018,
      "d": 821.9169999999867,
      "v": 84
    },
    {
      "midi": 74,
      "hit": false,
      "t": 169314.90200000018,
      "d": 821.9169999999867,
      "v": 84
    },
    {
      "midi": 47,
      "hit": false,
      "t": 169314.90200000035,
      "d": 179.79434374999255,
      "v": 88
    },
    {
      "midi": 47,
      "hit": false,
      "t": 169588.8743333337,
      "d": 154.10943750001024,
      "v": 88
    },
    {
      "midi": 74,
      "hit": false,
      "t": 169605.99760416677,
      "d": 98.45880729166674,
      "v": 81
    },
    {
      "midi": 78,
      "hit": false,
      "t": 169605.99760416677,
      "d": 98.45880729166674,
      "v": 81
    },
    {
      "midi": 71,
      "hit": false,
      "t": 169605.99760416677,
      "d": 115.58207812500768,
      "v": 81
    },
    {
      "midi": 71,
      "hit": false,
      "t": 169862.84666666677,
      "d": 136.9861666666693,
      "v": 81
    },
    {
      "midi": 74,
      "hit": false,
      "t": 169862.84666666677,
      "d": 136.9861666666693,
      "v": 81
    },
    {
      "midi": 78,
      "hit": false,
      "t": 169862.84666666677,
      "d": 136.9861666666693,
      "v": 81
    },
    {
      "midi": 47,
      "hit": false,
      "t": 169862.84666666703,
      "d": 136.9861666666693,
      "v": 88
    },
    {
      "midi": 55,
      "hit": false,
      "t": 170123.97654687506,
      "d": 809.0745468749956,
      "v": 47
    },
    {
      "midi": 60,
      "hit": false,
      "t": 170123.97654687506,
      "d": 809.0745468749956,
      "v": 47
    },
    {
      "midi": 64,
      "hit": false,
      "t": 170123.97654687506,
      "d": 809.0745468749956,
      "v": 47
    },
    {
      "midi": 88,
      "hit": false,
      "t": 170136.81899999993,
      "d": 821.9169999999867,
      "v": 69
    },
    {
      "midi": 72,
      "hit": false,
      "t": 170136.8190000001,
      "d": 192.6367968750128,
      "v": 81
    },
    {
      "midi": 67,
      "hit": false,
      "t": 170136.8190000001,
      "d": 196.9176145833335,
      "v": 81
    },
    {
      "midi": 76,
      "hit": false,
      "t": 170136.8190000001,
      "d": 196.9176145833335,
      "v": 81
    },
    {
      "midi": 67,
      "hit": false,
      "t": 170136.81900000016,
      "d": 821.9169999999867,
      "v": 84
    },
    {
      "midi": 72,
      "hit": false,
      "t": 170136.81900000016,
      "d": 821.9169999999867,
      "v": 84
    },
    {
      "midi": 76,
      "hit": false,
      "t": 170136.81900000016,
      "d": 821.9169999999867,
      "v": 84
    },
    {
      "midi": 48,
      "hit": false,
      "t": 170136.81900000037,
      "d": 192.6367968750128,
      "v": 88
    },
    {
      "midi": 67,
      "hit": false,
      "t": 170547.7775000001,
      "d": 179.79434374999255,
      "v": 81
    },
    {
      "midi": 72,
      "hit": false,
      "t": 170547.7775000001,
      "d": 179.79434374999255,
      "v": 81
    },
    {
      "midi": 76,
      "hit": false,
      "t": 170547.7775000001,
      "d": 179.79434374999255,
      "v": 81
    },
    {
      "midi": 48,
      "hit": false,
      "t": 170547.77750000037,
      "d": 218.3217031249951,
      "v": 88
    },
    {
      "midi": 55,
      "hit": false,
      "t": 170945.89354687504,
      "d": 1630.9915468750114,
      "v": 47
    },
    {
      "midi": 60,
      "hit": false,
      "t": 170945.89354687504,
      "d": 1630.9915468750114,
      "v": 47
    },
    {
      "midi": 64,
      "hit": false,
      "t": 170945.89354687504,
      "d": 1630.9915468750114,
      "v": 47
    },
    {
      "midi": 88,
      "hit": false,
      "t": 170958.73599999992,
      "d": 1643.8340000000026,
      "v": 69
    },
    {
      "midi": 67,
      "hit": false,
      "t": 170958.7360000001,
      "d": 1643.8340000000026,
      "v": 81
    },
    {
      "midi": 72,
      "hit": false,
      "t": 170958.7360000001,
      "d": 1643.8340000000026,
      "v": 81
    },
    {
      "midi": 76,
      "hit": false,
      "t": 170958.7360000001,
      "d": 1643.8340000000026,
      "v": 81
    },
    {
      "midi": 67,
      "hit": false,
      "t": 170958.73600000015,
      "d": 1643.8340000000026,
      "v": 84
    },
    {
      "midi": 72,
      "hit": false,
      "t": 170958.73600000015,
      "d": 1643.8340000000026,
      "v": 84
    },
    {
      "midi": 76,
      "hit": false,
      "t": 170958.73600000015,
      "d": 1643.8340000000026,
      "v": 84
    },
    {
      "midi": 48,
      "hit": false,
      "t": 170958.73600000038,
      "d": 1643.8340000000026,
      "v": 88
    },
    {
      "midi": 55,
      "hit": false,
      "t": 172589.72754687504,
      "d": 603.5952968749916,
      "v": 44
    },
    {
      "midi": 60,
      "hit": false,
      "t": 172589.72754687504,
      "d": 603.5952968749916,
      "v": 44
    },
    {
      "midi": 64,
      "hit": false,
      "t": 172589.72754687504,
      "d": 603.5952968749916,
      "v": 44
    },
    {
      "midi": 67,
      "hit": false,
      "t": 172602.5700000001,
      "d": 616.4377500000119,
      "v": 81
    },
    {
      "midi": 72,
      "hit": false,
      "t": 172602.5700000001,
      "d": 616.4377500000119,
      "v": 81
    },
    {
      "midi": 76,
      "hit": false,
      "t": 172602.5700000001,
      "d": 616.4377500000119,
      "v": 81
    },
    {
      "midi": 67,
      "hit": false,
      "t": 172602.57000000015,
      "d": 616.4377500000119,
      "v": 81
    },
    {
      "midi": 72,
      "hit": false,
      "t": 172602.57000000015,
      "d": 616.4377500000119,
      "v": 81
    },
    {
      "midi": 76,
      "hit": false,
      "t": 172602.57000000015,
      "d": 616.4377500000119,
      "v": 81
    },
    {
      "midi": 48,
      "hit": false,
      "t": 172602.57000000039,
      "d": 616.4377500000119,
      "v": 88
    },
    {
      "midi": 55,
      "hit": false,
      "t": 173240.4118385417,
      "d": 569.3487552083388,
      "v": 44
    },
    {
      "midi": 60,
      "hit": false,
      "t": 173240.4118385417,
      "d": 569.3487552083388,
      "v": 44
    },
    {
      "midi": 64,
      "hit": false,
      "t": 173240.4118385417,
      "d": 569.3487552083388,
      "v": 44
    },
    {
      "midi": 67,
      "hit": false,
      "t": 173253.25429166676,
      "d": 582.19120833333,
      "v": 81
    },
    {
      "midi": 72,
      "hit": false,
      "t": 173253.25429166676,
      "d": 582.19120833333,
      "v": 81
    },
    {
      "midi": 76,
      "hit": false,
      "t": 173253.25429166676,
      "d": 582.19120833333,
      "v": 81
    },
    {
      "midi": 67,
      "hit": false,
      "t": 173253.25429166682,
      "d": 582.19120833333,
      "v": 81
    },
    {
      "midi": 72,
      "hit": false,
      "t": 173253.25429166682,
      "d": 582.19120833333,
      "v": 81
    },
    {
      "midi": 76,
      "hit": false,
      "t": 173253.25429166682,
      "d": 582.19120833333,
      "v": 81
    },
    {
      "midi": 48,
      "hit": false,
      "t": 173253.25429166705,
      "d": 582.19120833333,
      "v": 88
    },
    {
      "midi": 57,
      "hit": false,
      "t": 173822.60304687504,
      "d": 603.5952968749916,
      "v": 44
    },
    {
      "midi": 62,
      "hit": false,
      "t": 173822.60304687504,
      "d": 603.5952968749916,
      "v": 44
    },
    {
      "midi": 66,
      "hit": false,
      "t": 173822.60304687504,
      "d": 603.5952968749916,
      "v": 44
    },
    {
      "midi": 69,
      "hit": false,
      "t": 173835.4455000001,
      "d": 616.4377500000119,
      "v": 81
    },
    {
      "midi": 74,
      "hit": false,
      "t": 173835.4455000001,
      "d": 616.4377500000119,
      "v": 81
    },
    {
      "midi": 78,
      "hit": false,
      "t": 173835.4455000001,
      "d": 616.4377500000119,
      "v": 81
    },
    {
      "midi": 69,
      "hit": false,
      "t": 173835.44550000015,
      "d": 616.4377500000119,
      "v": 81
    },
    {
      "midi": 74,
      "hit": false,
      "t": 173835.44550000015,
      "d": 616.4377500000119,
      "v": 81
    },
    {
      "midi": 78,
      "hit": false,
      "t": 173835.44550000015,
      "d": 616.4377500000119,
      "v": 81
    },
    {
      "midi": 50,
      "hit": false,
      "t": 173835.44550000038,
      "d": 616.4377500000119,
      "v": 88
    },
    {
      "midi": 57,
      "hit": false,
      "t": 174473.2873385417,
      "d": 569.3487552083388,
      "v": 44
    },
    {
      "midi": 62,
      "hit": false,
      "t": 174473.2873385417,
      "d": 569.3487552083388,
      "v": 44
    },
    {
      "midi": 66,
      "hit": false,
      "t": 174473.2873385417,
      "d": 569.3487552083388,
      "v": 44
    },
    {
      "midi": 69,
      "hit": false,
      "t": 174486.12979166675,
      "d": 582.19120833333,
      "v": 81
    },
    {
      "midi": 74,
      "hit": false,
      "t": 174486.12979166675,
      "d": 582.19120833333,
      "v": 81
    },
    {
      "midi": 78,
      "hit": false,
      "t": 174486.12979166675,
      "d": 582.19120833333,
      "v": 81
    },
    {
      "midi": 69,
      "hit": false,
      "t": 174486.1297916668,
      "d": 582.19120833333,
      "v": 81
    },
    {
      "midi": 74,
      "hit": false,
      "t": 174486.1297916668,
      "d": 582.19120833333,
      "v": 81
    },
    {
      "midi": 78,
      "hit": false,
      "t": 174486.1297916668,
      "d": 582.19120833333,
      "v": 81
    },
    {
      "midi": 50,
      "hit": false,
      "t": 174486.12979166704,
      "d": 582.19120833333,
      "v": 88
    },
    {
      "midi": 60,
      "hit": false,
      "t": 175055.47854687503,
      "d": 3274.825546875014,
      "v": 44
    },
    {
      "midi": 64,
      "hit": false,
      "t": 175055.47854687503,
      "d": 3274.825546875014,
      "v": 44
    },
    {
      "midi": 67,
      "hit": false,
      "t": 175055.47854687503,
      "d": 3274.825546875014,
      "v": 44
    },
    {
      "midi": 72,
      "hit": false,
      "t": 175068.32100000008,
      "d": 3287.668000000005,
      "v": 81
    },
    {
      "midi": 76,
      "hit": false,
      "t": 175068.32100000008,
      "d": 3287.668000000005,
      "v": 81
    },
    {
      "midi": 79,
      "hit": false,
      "t": 175068.32100000008,
      "d": 3287.668000000005,
      "v": 81
    },
    {
      "midi": 72,
      "hit": false,
      "t": 175068.32100000014,
      "d": 3287.668000000005,
      "v": 81
    },
    {
      "midi": 76,
      "hit": false,
      "t": 175068.32100000014,
      "d": 3287.668000000005,
      "v": 81
    },
    {
      "midi": 79,
      "hit": false,
      "t": 175068.32100000014,
      "d": 3287.668000000005,
      "v": 81
    },
    {
      "midi": 52,
      "hit": false,
      "t": 175068.32100000037,
      "d": 3287.668000000005,
      "v": 88
    },
    {
      "midi": 55,
      "hit": false,
      "t": 178343.14654687504,
      "d": 1630.9915468750114,
      "v": 47
    },
    {
      "midi": 59,
      "hit": false,
      "t": 178343.14654687504,
      "d": 1630.9915468750114,
      "v": 47
    },
    {
      "midi": 62,
      "hit": false,
      "t": 178343.14654687504,
      "d": 1630.9915468750114,
      "v": 47
    },
    {
      "midi": 91,
      "hit": false,
      "t": 178355.9889999999,
      "d": 1643.8340000000026,
      "v": 69
    },
    {
      "midi": 74,
      "hit": false,
      "t": 178355.9890000001,
      "d": 89.89717187499627,
      "v": 81
    },
    {
      "midi": 71,
      "hit": false,
      "t": 178355.9890000001,
      "d": 115.58207812500768,
      "v": 81
    },
    {
      "midi": 79,
      "hit": false,
      "t": 178355.9890000001,
      "d": 115.58207812500768,
      "v": 81
    },
    {
      "midi": 67,
      "hit": false,
      "t": 178355.98900000015,
      "d": 1643.8340000000026,
      "v": 84
    },
    {
      "midi": 71,
      "hit": false,
      "t": 178355.98900000015,
      "d": 1643.8340000000026,
      "v": 84
    },
    {
      "midi": 74,
      "hit": false,
      "t": 178355.98900000015,
      "d": 1643.8340000000026,
      "v": 84
    },
    {
      "midi": 43,
      "hit": false,
      "t": 178355.98900000038,
      "d": 94.17798958334606,
      "v": 88
    },
    {
      "midi": 43,
      "hit": false,
      "t": 178561.46825000038,
      "d": 85.61635416667559,
      "v": 88
    },
    {
      "midi": 43,
      "hit": false,
      "t": 178766.9475000004,
      "d": 98.45880729166674,
      "v": 88
    },
    {
      "midi": 74,
      "hit": false,
      "t": 178972.4267500001,
      "d": 136.9861666666693,
      "v": 81
    },
    {
      "midi": 71,
      "hit": false,
      "t": 178972.4267500001,
      "d": 166.9518906250014,
      "v": 81
    },
    {
      "midi": 79,
      "hit": false,
      "t": 178972.4267500001,
      "d": 166.9518906250014,
      "v": 81
    },
    {
      "midi": 43,
      "hit": false,
      "t": 178972.4267500004,
      "d": 98.45880729166674,
      "v": 88
    },
    {
      "midi": 43,
      "hit": false,
      "t": 179177.9060000004,
      "d": 719.1773749999993,
      "v": 88
    },
    {
      "midi": 74,
      "hit": false,
      "t": 179593.14531770843,
      "d": 162.6710729166807,
      "v": 81
    },
    {
      "midi": 79,
      "hit": false,
      "t": 179593.14531770843,
      "d": 179.79434375002165,
      "v": 81
    },
    {
      "midi": 71,
      "hit": false,
      "t": 179593.14531770843,
      "d": 192.6367968750128,
      "v": 81
    },
    {
      "midi": 54,
      "hit": false,
      "t": 179986.98054687504,
      "d": 809.0745468749956,
      "v": 47
    },
    {
      "midi": 59,
      "hit": false,
      "t": 179986.98054687504,
      "d": 809.0745468749956,
      "v": 47
    },
    {
      "midi": 62,
      "hit": false,
      "t": 179986.98054687504,
      "d": 809.0745468749956,
      "v": 47
    },
    {
      "midi": 90,
      "hit": false,
      "t": 179999.82299999992,
      "d": 821.9169999999867,
      "v": 69
    },
    {
      "midi": 71,
      "hit": false,
      "t": 179999.82300000012,
      "d": 124.14371354167815,
      "v": 81
    },
    {
      "midi": 74,
      "hit": false,
      "t": 179999.82300000012,
      "d": 124.14371354167815,
      "v": 81
    },
    {
      "midi": 78,
      "hit": false,
      "t": 179999.82300000012,
      "d": 124.14371354167815,
      "v": 81
    },
    {
      "midi": 66,
      "hit": false,
      "t": 179999.82300000015,
      "d": 821.9169999999867,
      "v": 84
    },
    {
      "midi": 71,
      "hit": false,
      "t": 179999.82300000015,
      "d": 821.9169999999867,
      "v": 84
    },
    {
      "midi": 74,
      "hit": false,
      "t": 179999.82300000015,
      "d": 821.9169999999867,
      "v": 84
    },
    {
      "midi": 47,
      "hit": false,
      "t": 179999.82300000038,
      "d": 179.79434374999255,
      "v": 88
    },
    {
      "midi": 47,
      "hit": false,
      "t": 180273.79533333372,
      "d": 154.10943750001024,
      "v": 88
    },
    {
      "midi": 74,
      "hit": false,
      "t": 180290.9186041668,
      "d": 98.45880729166674,
      "v": 81
    },
    {
      "midi": 78,
      "hit": false,
      "t": 180290.9186041668,
      "d": 98.45880729166674,
      "v": 81
    },
    {
      "midi": 71,
      "hit": false,
      "t": 180290.9186041668,
      "d": 115.58207812500768,
      "v": 81
    },
    {
      "midi": 71,
      "hit": false,
      "t": 180547.7676666668,
      "d": 136.9861666666693,
      "v": 81
    },
    {
      "midi": 74,
      "hit": false,
      "t": 180547.7676666668,
      "d": 136.9861666666693,
      "v": 81
    },
    {
      "midi": 78,
      "hit": false,
      "t": 180547.7676666668,
      "d": 136.9861666666693,
      "v": 81
    },
    {
      "midi": 47,
      "hit": false,
      "t": 180547.76766666706,
      "d": 136.9861666666693,
      "v": 88
    },
    {
      "midi": 55,
      "hit": false,
      "t": 180808.89754687503,
      "d": 1630.9915468750114,
      "v": 47
    },
    {
      "midi": 60,
      "hit": false,
      "t": 180808.89754687503,
      "d": 1630.9915468750114,
      "v": 47
    },
    {
      "midi": 64,
      "hit": false,
      "t": 180808.89754687503,
      "d": 1630.9915468750114,
      "v": 47
    },
    {
      "midi": 88,
      "hit": false,
      "t": 180821.7399999999,
      "d": 821.9169999999867,
      "v": 69
    },
    {
      "midi": 72,
      "hit": false,
      "t": 180821.74000000014,
      "d": 192.6367968750128,
      "v": 81
    },
    {
      "midi": 67,
      "hit": false,
      "t": 180821.74000000014,
      "d": 196.9176145833335,
      "v": 81
    },
    {
      "midi": 76,
      "hit": false,
      "t": 180821.74000000014,
      "d": 196.9176145833335,
      "v": 81
    },
    {
      "midi": 67,
      "hit": false,
      "t": 180821.74000000014,
      "d": 1643.8340000000026,
      "v": 84
    },
    {
      "midi": 72,
      "hit": false,
      "t": 180821.74000000014,
      "d": 1643.8340000000026,
      "v": 84
    },
    {
      "midi": 76,
      "hit": false,
      "t": 180821.74000000014,
      "d": 1643.8340000000026,
      "v": 84
    },
    {
      "midi": 48,
      "hit": false,
      "t": 180821.7400000004,
      "d": 192.6367968750128,
      "v": 88
    },
    {
      "midi": 67,
      "hit": false,
      "t": 181232.69850000014,
      "d": 179.79434374999255,
      "v": 81
    },
    {
      "midi": 72,
      "hit": false,
      "t": 181232.69850000014,
      "d": 179.79434374999255,
      "v": 81
    },
    {
      "midi": 76,
      "hit": false,
      "t": 181232.69850000014,
      "d": 179.79434374999255,
      "v": 81
    },
    {
      "midi": 48,
      "hit": false,
      "t": 181232.6985000004,
      "d": 218.3217031249951,
      "v": 88
    },
    {
      "midi": 88,
      "hit": false,
      "t": 181643.6569999999,
      "d": 821.9169999999867,
      "v": 69
    },
    {
      "midi": 72,
      "hit": false,
      "t": 181643.65700000012,
      "d": 663.5267447916558,
      "v": 81
    },
    {
      "midi": 76,
      "hit": false,
      "t": 181643.65700000012,
      "d": 663.5267447916558,
      "v": 81
    },
    {
      "midi": 67,
      "hit": false,
      "t": 181643.65700000012,
      "d": 676.369197916647,
      "v": 81
    },
    {
      "midi": 48,
      "hit": false,
      "t": 181643.6570000004,
      "d": 646.403473958344,
      "v": 88
    },
    {
      "midi": 55,
      "hit": false,
      "t": 182452.73154687503,
      "d": 192.6367968750128,
      "v": 47
    },
    {
      "midi": 60,
      "hit": false,
      "t": 182452.73154687503,
      "d": 192.6367968750128,
      "v": 47
    },
    {
      "midi": 64,
      "hit": false,
      "t": 182452.73154687503,
      "d": 192.6367968750128,
      "v": 47
    },
    {
      "midi": 88,
      "hit": false,
      "t": 182465.57399999988,
      "d": 205.47925000000396,
      "v": 69
    },
    {
      "midi": 67,
      "hit": false,
      "t": 182465.5740000001,
      "d": 111.3012604166579,
      "v": 81
    },
    {
      "midi": 67,
      "hit": false,
      "t": 182465.57400000014,
      "d": 205.47925000000396,
      "v": 84
    },
    {
      "midi": 72,
      "hit": false,
      "t": 182465.57400000014,
      "d": 205.47925000000396,
      "v": 84
    },
    {
      "midi": 76,
      "hit": false,
      "t": 182465.57400000014,
      "d": 205.47925000000396,
      "v": 84
    },
    {
      "midi": 48,
      "hit": false,
      "t": 182465.57400000043,
      "d": 136.9861666666693,
      "v": 88
    },
    {
      "midi": 72,
      "hit": false,
      "t": 182478.4164531251,
      "d": 128.42453124999884,
      "v": 81
    },
    {
      "midi": 76,
      "hit": false,
      "t": 182478.4164531251,
      "d": 128.42453124999884,
      "v": 81
    },
    {
      "midi": 74,
      "hit": false,
      "t": 182671.0532500001,
      "d": 616.4377500000119,
      "v": 81
    },
    {
      "midi": 78,
      "hit": false,
      "t": 182671.0532500001,
      "d": 616.4377500000119,
      "v": 81
    },
    {
      "midi": 69,
      "hit": false,
      "t": 182688.17652083345,
      "d": 599.3144791666709,
      "v": 81
    },
    {
      "midi": 57,
      "hit": false,
      "t": 182692.45733854172,
      "d": 569.3487552083388,
      "v": 47
    },
    {
      "midi": 62,
      "hit": false,
      "t": 182692.45733854172,
      "d": 569.3487552083388,
      "v": 47
    },
    {
      "midi": 66,
      "hit": false,
      "t": 182692.45733854172,
      "d": 569.3487552083388,
      "v": 47
    },
    {
      "midi": 90,
      "hit": false,
      "t": 182705.29979166653,
      "d": 582.19120833333,
      "v": 69
    },
    {
      "midi": 69,
      "hit": false,
      "t": 182705.2997916668,
      "d": 582.19120833333,
      "v": 84
    },
    {
      "midi": 74,
      "hit": false,
      "t": 182705.2997916668,
      "d": 582.19120833333,
      "v": 84
    },
    {
      "midi": 78,
      "hit": false,
      "t": 182705.2997916668,
      "d": 582.19120833333,
      "v": 84
    },
    {
      "midi": 50,
      "hit": false,
      "t": 182705.2997916671,
      "d": 552.2254843749979,
      "v": 88
    },
    {
      "midi": 55,
      "hit": false,
      "t": 183274.64854687505,
      "d": 1630.9915468750114,
      "v": 47
    },
    {
      "midi": 59,
      "hit": false,
      "t": 183274.64854687505,
      "d": 1630.9915468750114,
      "v": 47
    },
    {
      "midi": 62,
      "hit": false,
      "t": 183274.64854687505,
      "d": 1630.9915468750114,
      "v": 47
    },
    {
      "midi": 91,
      "hit": false,
      "t": 183287.49099999986,
      "d": 1643.8340000000026,
      "v": 69
    },
    {
      "midi": 74,
      "hit": false,
      "t": 183287.49100000013,
      "d": 89.89717187499627,
      "v": 81
    },
    {
      "midi": 71,
      "hit": false,
      "t": 183287.49100000013,
      "d": 115.58207812500768,
      "v": 81
    },
    {
      "midi": 79,
      "hit": false,
      "t": 183287.49100000013,
      "d": 115.58207812500768,
      "v": 81
    },
    {
      "midi": 67,
      "hit": false,
      "t": 183287.49100000013,
      "d": 1643.8340000000026,
      "v": 84
    },
    {
      "midi": 71,
      "hit": false,
      "t": 183287.49100000013,
      "d": 1643.8340000000026,
      "v": 84
    },
    {
      "midi": 74,
      "hit": false,
      "t": 183287.49100000013,
      "d": 1643.8340000000026,
      "v": 84
    },
    {
      "midi": 43,
      "hit": false,
      "t": 183287.49100000042,
      "d": 94.17798958334606,
      "v": 88
    },
    {
      "midi": 43,
      "hit": false,
      "t": 183492.97025000042,
      "d": 85.61635416667559,
      "v": 88
    },
    {
      "midi": 43,
      "hit": false,
      "t": 183698.44950000042,
      "d": 98.45880729166674,
      "v": 88
    },
    {
      "midi": 74,
      "hit": false,
      "t": 183903.92875000014,
      "d": 136.9861666666693,
      "v": 81
    },
    {
      "midi": 71,
      "hit": false,
      "t": 183903.92875000014,
      "d": 166.9518906250014,
      "v": 81
    },
    {
      "midi": 79,
      "hit": false,
      "t": 183903.92875000014,
      "d": 166.9518906250014,
      "v": 81
    },
    {
      "midi": 43,
      "hit": false,
      "t": 183903.92875000043,
      "d": 98.45880729166674,
      "v": 88
    },
    {
      "midi": 43,
      "hit": false,
      "t": 184109.40800000043,
      "d": 719.1773749999993,
      "v": 88
    },
    {
      "midi": 74,
      "hit": false,
      "t": 184524.64731770847,
      "d": 162.6710729166807,
      "v": 81
    },
    {
      "midi": 79,
      "hit": false,
      "t": 184524.64731770847,
      "d": 179.79434375002165,
      "v": 81
    },
    {
      "midi": 71,
      "hit": false,
      "t": 184524.64731770847,
      "d": 192.6367968750128,
      "v": 81
    },
    {
      "midi": 54,
      "hit": false,
      "t": 184918.48254687505,
      "d": 809.0745468749956,
      "v": 47
    },
    {
      "midi": 59,
      "hit": false,
      "t": 184918.48254687505,
      "d": 809.0745468749956,
      "v": 47
    },
    {
      "midi": 62,
      "hit": false,
      "t": 184918.48254687505,
      "d": 809.0745468749956,
      "v": 47
    },
    {
      "midi": 90,
      "hit": false,
      "t": 184931.32499999987,
      "d": 821.9169999999867,
      "v": 69
    },
    {
      "midi": 66,
      "hit": false,
      "t": 184931.32500000013,
      "d": 821.9169999999867,
      "v": 84
    },
    {
      "midi": 71,
      "hit": false,
      "t": 184931.32500000013,
      "d": 821.9169999999867,
      "v": 84
    },
    {
      "midi": 74,
      "hit": false,
      "t": 184931.32500000013,
      "d": 821.9169999999867,
      "v": 84
    },
    {
      "midi": 71,
      "hit": false,
      "t": 184931.32500000016,
      "d": 124.14371354167815,
      "v": 81
    },
    {
      "midi": 74,
      "hit": false,
      "t": 184931.32500000016,
      "d": 124.14371354167815,
      "v": 81
    },
    {
      "midi": 78,
      "hit": false,
      "t": 184931.32500000016,
      "d": 124.14371354167815,
      "v": 81
    },
    {
      "midi": 47,
      "hit": false,
      "t": 184931.32500000042,
      "d": 179.79434374999255,
      "v": 88
    },
    {
      "midi": 47,
      "hit": false,
      "t": 185205.29733333376,
      "d": 154.10943750001024,
      "v": 88
    },
    {
      "midi": 74,
      "hit": false,
      "t": 185222.42060416684,
      "d": 98.45880729166674,
      "v": 81
    },
    {
      "midi": 78,
      "hit": false,
      "t": 185222.42060416684,
      "d": 98.45880729166674,
      "v": 81
    },
    {
      "midi": 71,
      "hit": false,
      "t": 185222.42060416684,
      "d": 115.58207812500768,
      "v": 81
    },
    {
      "midi": 71,
      "hit": false,
      "t": 185479.26966666683,
      "d": 136.9861666666693,
      "v": 81
    },
    {
      "midi": 74,
      "hit": false,
      "t": 185479.26966666683,
      "d": 136.9861666666693,
      "v": 81
    },
    {
      "midi": 78,
      "hit": false,
      "t": 185479.26966666683,
      "d": 136.9861666666693,
      "v": 81
    },
    {
      "midi": 47,
      "hit": false,
      "t": 185479.2696666671,
      "d": 136.9861666666693,
      "v": 88
    },
    {
      "midi": 55,
      "hit": false,
      "t": 185740.39954687504,
      "d": 809.0745468749956,
      "v": 47
    },
    {
      "midi": 60,
      "hit": false,
      "t": 185740.39954687504,
      "d": 809.0745468749956,
      "v": 47
    },
    {
      "midi": 64,
      "hit": false,
      "t": 185740.39954687504,
      "d": 809.0745468749956,
      "v": 47
    },
    {
      "midi": 88,
      "hit": false,
      "t": 185753.24199999985,
      "d": 821.9169999999867,
      "v": 69
    },
    {
      "midi": 67,
      "hit": false,
      "t": 185753.24200000011,
      "d": 821.9169999999867,
      "v": 84
    },
    {
      "midi": 72,
      "hit": false,
      "t": 185753.24200000011,
      "d": 821.9169999999867,
      "v": 84
    },
    {
      "midi": 76,
      "hit": false,
      "t": 185753.24200000011,
      "d": 821.9169999999867,
      "v": 84
    },
    {
      "midi": 72,
      "hit": false,
      "t": 185753.24200000017,
      "d": 192.6367968750128,
      "v": 81
    },
    {
      "midi": 67,
      "hit": false,
      "t": 185753.24200000017,
      "d": 196.9176145833335,
      "v": 81
    },
    {
      "midi": 76,
      "hit": false,
      "t": 185753.24200000017,
      "d": 196.9176145833335,
      "v": 81
    },
    {
      "midi": 48,
      "hit": false,
      "t": 185753.24200000043,
      "d": 192.6367968750128,
      "v": 88
    },
    {
      "midi": 67,
      "hit": false,
      "t": 186164.20050000018,
      "d": 179.79434374999255,
      "v": 81
    },
    {
      "midi": 72,
      "hit": false,
      "t": 186164.20050000018,
      "d": 179.79434374999255,
      "v": 81
    },
    {
      "midi": 76,
      "hit": false,
      "t": 186164.20050000018,
      "d": 179.79434374999255,
      "v": 81
    },
    {
      "midi": 48,
      "hit": false,
      "t": 186164.20050000044,
      "d": 218.3217031249951,
      "v": 88
    },
    {
      "midi": 55,
      "hit": false,
      "t": 186562.31654687502,
      "d": 1630.9915468750114,
      "v": 47
    },
    {
      "midi": 60,
      "hit": false,
      "t": 186562.31654687502,
      "d": 1630.9915468750114,
      "v": 47
    },
    {
      "midi": 64,
      "hit": false,
      "t": 186562.31654687502,
      "d": 1630.9915468750114,
      "v": 47
    },
    {
      "midi": 88,
      "hit": false,
      "t": 186575.15899999984,
      "d": 1643.8340000000026,
      "v": 69
    },
    {
      "midi": 67,
      "hit": false,
      "t": 186575.1590000001,
      "d": 1643.8340000000026,
      "v": 84
    },
    {
      "midi": 72,
      "hit": false,
      "t": 186575.1590000001,
      "d": 1643.8340000000026,
      "v": 84
    },
    {
      "midi": 76,
      "hit": false,
      "t": 186575.1590000001,
      "d": 1643.8340000000026,
      "v": 84
    },
    {
      "midi": 67,
      "hit": false,
      "t": 186575.15900000016,
      "d": 1643.8340000000026,
      "v": 81
    },
    {
      "midi": 72,
      "hit": false,
      "t": 186575.15900000016,
      "d": 1643.8340000000026,
      "v": 81
    },
    {
      "midi": 76,
      "hit": false,
      "t": 186575.15900000016,
      "d": 1643.8340000000026,
      "v": 81
    },
    {
      "midi": 48,
      "hit": false,
      "t": 186575.15900000045,
      "d": 1643.8340000000026,
      "v": 88
    },
    {
      "midi": 55,
      "hit": false,
      "t": 188206.15054687503,
      "d": 1630.9915468750114,
      "v": 47
    },
    {
      "midi": 59,
      "hit": false,
      "t": 188206.15054687503,
      "d": 1630.9915468750114,
      "v": 47
    },
    {
      "midi": 62,
      "hit": false,
      "t": 188206.15054687503,
      "d": 1630.9915468750114,
      "v": 47
    },
    {
      "midi": 91,
      "hit": false,
      "t": 188218.99299999984,
      "d": 1643.8340000000026,
      "v": 69
    },
    {
      "midi": 67,
      "hit": false,
      "t": 188218.9930000001,
      "d": 1643.8340000000026,
      "v": 84
    },
    {
      "midi": 71,
      "hit": false,
      "t": 188218.9930000001,
      "d": 1643.8340000000026,
      "v": 84
    },
    {
      "midi": 74,
      "hit": false,
      "t": 188218.9930000001,
      "d": 1643.8340000000026,
      "v": 84
    },
    {
      "midi": 74,
      "hit": false,
      "t": 188218.99300000016,
      "d": 89.89717187499627,
      "v": 81
    },
    {
      "midi": 71,
      "hit": false,
      "t": 188218.99300000016,
      "d": 115.58207812500768,
      "v": 81
    },
    {
      "midi": 79,
      "hit": false,
      "t": 188218.99300000016,
      "d": 115.58207812500768,
      "v": 81
    },
    {
      "midi": 43,
      "hit": false,
      "t": 188218.99300000045,
      "d": 94.17798958334606,
      "v": 88
    },
    {
      "midi": 43,
      "hit": false,
      "t": 188424.47225000046,
      "d": 85.61635416667559,
      "v": 88
    },
    {
      "midi": 43,
      "hit": false,
      "t": 188629.95150000046,
      "d": 98.45880729166674,
      "v": 88
    },
    {
      "midi": 74,
      "hit": false,
      "t": 188835.43075000017,
      "d": 136.9861666666693,
      "v": 81
    },
    {
      "midi": 71,
      "hit": false,
      "t": 188835.43075000017,
      "d": 166.9518906250014,
      "v": 81
    },
    {
      "midi": 79,
      "hit": false,
      "t": 188835.43075000017,
      "d": 166.9518906250014,
      "v": 81
    },
    {
      "midi": 43,
      "hit": false,
      "t": 188835.43075000047,
      "d": 98.45880729166674,
      "v": 88
    },
    {
      "midi": 43,
      "hit": false,
      "t": 189040.91000000047,
      "d": 719.1773749999993,
      "v": 88
    },
    {
      "midi": 74,
      "hit": false,
      "t": 189456.1493177085,
      "d": 162.6710729166807,
      "v": 81
    },
    {
      "midi": 79,
      "hit": false,
      "t": 189456.1493177085,
      "d": 179.79434375002165,
      "v": 81
    },
    {
      "midi": 71,
      "hit": false,
      "t": 189456.1493177085,
      "d": 192.6367968750128,
      "v": 81
    },
    {
      "midi": 54,
      "hit": false,
      "t": 189849.98454687503,
      "d": 809.0745468749956,
      "v": 47
    },
    {
      "midi": 59,
      "hit": false,
      "t": 189849.98454687503,
      "d": 809.0745468749956,
      "v": 47
    },
    {
      "midi": 62,
      "hit": false,
      "t": 189849.98454687503,
      "d": 809.0745468749956,
      "v": 47
    },
    {
      "midi": 90,
      "hit": false,
      "t": 189862.82699999984,
      "d": 821.9169999999867,
      "v": 69
    },
    {
      "midi": 66,
      "hit": false,
      "t": 189862.8270000001,
      "d": 821.9169999999867,
      "v": 84
    },
    {
      "midi": 71,
      "hit": false,
      "t": 189862.8270000001,
      "d": 821.9169999999867,
      "v": 84
    },
    {
      "midi": 74,
      "hit": false,
      "t": 189862.8270000001,
      "d": 821.9169999999867,
      "v": 84
    },
    {
      "midi": 71,
      "hit": false,
      "t": 189862.8270000002,
      "d": 124.14371354167815,
      "v": 81
    },
    {
      "midi": 74,
      "hit": false,
      "t": 189862.8270000002,
      "d": 124.14371354167815,
      "v": 81
    },
    {
      "midi": 78,
      "hit": false,
      "t": 189862.8270000002,
      "d": 124.14371354167815,
      "v": 81
    },
    {
      "midi": 47,
      "hit": false,
      "t": 189862.82700000046,
      "d": 179.79434374999255,
      "v": 88
    },
    {
      "midi": 47,
      "hit": false,
      "t": 190136.7993333338,
      "d": 154.10943750001024,
      "v": 88
    },
    {
      "midi": 74,
      "hit": false,
      "t": 190153.92260416687,
      "d": 98.45880729166674,
      "v": 81
    },
    {
      "midi": 78,
      "hit": false,
      "t": 190153.92260416687,
      "d": 98.45880729166674,
      "v": 81
    },
    {
      "midi": 71,
      "hit": false,
      "t": 190153.92260416687,
      "d": 115.58207812500768,
      "v": 81
    },
    {
      "midi": 71,
      "hit": false,
      "t": 190410.77166666687,
      "d": 136.9861666666693,
      "v": 81
    },
    {
      "midi": 74,
      "hit": false,
      "t": 190410.77166666687,
      "d": 136.9861666666693,
      "v": 81
    },
    {
      "midi": 78,
      "hit": false,
      "t": 190410.77166666687,
      "d": 136.9861666666693,
      "v": 81
    },
    {
      "midi": 47,
      "hit": false,
      "t": 190410.77166666713,
      "d": 136.9861666666693,
      "v": 88
    },
    {
      "midi": 55,
      "hit": false,
      "t": 190671.90154687501,
      "d": 1630.9915468750114,
      "v": 47
    },
    {
      "midi": 60,
      "hit": false,
      "t": 190671.90154687501,
      "d": 1630.9915468750114,
      "v": 47
    },
    {
      "midi": 64,
      "hit": false,
      "t": 190671.90154687501,
      "d": 1630.9915468750114,
      "v": 47
    },
    {
      "midi": 88,
      "hit": false,
      "t": 190684.74399999983,
      "d": 821.9169999999867,
      "v": 69
    },
    {
      "midi": 67,
      "hit": false,
      "t": 190684.7440000001,
      "d": 1643.8340000000026,
      "v": 84
    },
    {
      "midi": 72,
      "hit": false,
      "t": 190684.7440000001,
      "d": 1643.8340000000026,
      "v": 84
    },
    {
      "midi": 76,
      "hit": false,
      "t": 190684.7440000001,
      "d": 1643.8340000000026,
      "v": 84
    },
    {
      "midi": 72,
      "hit": false,
      "t": 190684.7440000002,
      "d": 192.6367968750128,
      "v": 81
    },
    {
      "midi": 67,
      "hit": false,
      "t": 190684.7440000002,
      "d": 196.9176145833335,
      "v": 81
    },
    {
      "midi": 76,
      "hit": false,
      "t": 190684.7440000002,
      "d": 196.9176145833335,
      "v": 81
    },
    {
      "midi": 48,
      "hit": false,
      "t": 190684.74400000047,
      "d": 192.6367968750128,
      "v": 88
    },
    {
      "midi": 67,
      "hit": false,
      "t": 191095.70250000022,
      "d": 179.79434374999255,
      "v": 81
    },
    {
      "midi": 72,
      "hit": false,
      "t": 191095.70250000022,
      "d": 179.79434374999255,
      "v": 81
    },
    {
      "midi": 76,
      "hit": false,
      "t": 191095.70250000022,
      "d": 179.79434374999255,
      "v": 81
    },
    {
      "midi": 48,
      "hit": false,
      "t": 191095.70250000048,
      "d": 218.3217031249951,
      "v": 88
    },
    {
      "midi": 88,
      "hit": false,
      "t": 191506.66099999982,
      "d": 821.9169999999867,
      "v": 69
    },
    {
      "midi": 72,
      "hit": false,
      "t": 191506.6610000002,
      "d": 663.5267447916558,
      "v": 81
    },
    {
      "midi": 76,
      "hit": false,
      "t": 191506.6610000002,
      "d": 663.5267447916558,
      "v": 81
    },
    {
      "midi": 67,
      "hit": false,
      "t": 191506.6610000002,
      "d": 676.369197916647,
      "v": 81
    },
    {
      "midi": 48,
      "hit": false,
      "t": 191506.6610000005,
      "d": 646.403473958344,
      "v": 88
    },
    {
      "midi": 55,
      "hit": false,
      "t": 192315.73554687502,
      "d": 192.6367968750128,
      "v": 47
    },
    {
      "midi": 60,
      "hit": false,
      "t": 192315.73554687502,
      "d": 192.6367968750128,
      "v": 47
    },
    {
      "midi": 64,
      "hit": false,
      "t": 192315.73554687502,
      "d": 192.6367968750128,
      "v": 47
    },
    {
      "midi": 88,
      "hit": false,
      "t": 192328.5779999998,
      "d": 205.47925000000396,
      "v": 69
    },
    {
      "midi": 67,
      "hit": false,
      "t": 192328.5780000001,
      "d": 205.47925000000396,
      "v": 84
    },
    {
      "midi": 72,
      "hit": false,
      "t": 192328.5780000001,
      "d": 205.47925000000396,
      "v": 84
    },
    {
      "midi": 76,
      "hit": false,
      "t": 192328.5780000001,
      "d": 205.47925000000396,
      "v": 84
    },
    {
      "midi": 67,
      "hit": false,
      "t": 192328.57800000018,
      "d": 111.3012604166579,
      "v": 81
    },
    {
      "midi": 48,
      "hit": false,
      "t": 192328.5780000005,
      "d": 136.9861666666693,
      "v": 88
    },
    {
      "midi": 72,
      "hit": false,
      "t": 192341.42045312517,
      "d": 128.42453124999884,
      "v": 81
    },
    {
      "midi": 76,
      "hit": false,
      "t": 192341.42045312517,
      "d": 128.42453124999884,
      "v": 81
    },
    {
      "midi": 74,
      "hit": false,
      "t": 192534.0572500002,
      "d": 616.4377500000119,
      "v": 81
    },
    {
      "midi": 78,
      "hit": false,
      "t": 192534.0572500002,
      "d": 616.4377500000119,
      "v": 81
    },
    {
      "midi": 69,
      "hit": false,
      "t": 192551.18052083353,
      "d": 599.3144791666709,
      "v": 81
    },
    {
      "midi": 57,
      "hit": false,
      "t": 192555.4613385417,
      "d": 569.3487552083388,
      "v": 47
    },
    {
      "midi": 62,
      "hit": false,
      "t": 192555.4613385417,
      "d": 569.3487552083388,
      "v": 47
    },
    {
      "midi": 66,
      "hit": false,
      "t": 192555.4613385417,
      "d": 569.3487552083388,
      "v": 47
    },
    {
      "midi": 90,
      "hit": false,
      "t": 192568.30379166646,
      "d": 582.19120833333,
      "v": 69
    },
    {
      "midi": 69,
      "hit": false,
      "t": 192568.30379166675,
      "d": 582.19120833333,
      "v": 84
    },
    {
      "midi": 74,
      "hit": false,
      "t": 192568.30379166675,
      "d": 582.19120833333,
      "v": 84
    },
    {
      "midi": 78,
      "hit": false,
      "t": 192568.30379166675,
      "d": 582.19120833333,
      "v": 84
    },
    {
      "midi": 50,
      "hit": false,
      "t": 192568.30379166716,
      "d": 552.2254843749979,
      "v": 88
    },
    {
      "midi": 55,
      "hit": false,
      "t": 193137.65254687503,
      "d": 1630.9915468750114,
      "v": 47
    },
    {
      "midi": 59,
      "hit": false,
      "t": 193137.65254687503,
      "d": 1630.9915468750114,
      "v": 47
    },
    {
      "midi": 62,
      "hit": false,
      "t": 193137.65254687503,
      "d": 1630.9915468750114,
      "v": 47
    },
    {
      "midi": 91,
      "hit": false,
      "t": 193150.4949999998,
      "d": 1643.8340000000026,
      "v": 69
    },
    {
      "midi": 67,
      "hit": false,
      "t": 193150.49500000008,
      "d": 1643.8340000000026,
      "v": 84
    },
    {
      "midi": 71,
      "hit": false,
      "t": 193150.49500000008,
      "d": 1643.8340000000026,
      "v": 84
    },
    {
      "midi": 74,
      "hit": false,
      "t": 193150.49500000008,
      "d": 1643.8340000000026,
      "v": 84
    },
    {
      "midi": 74,
      "hit": false,
      "t": 193150.4950000002,
      "d": 89.89717187499627,
      "v": 81
    },
    {
      "midi": 71,
      "hit": false,
      "t": 193150.4950000002,
      "d": 115.58207812500768,
      "v": 81
    },
    {
      "midi": 79,
      "hit": false,
      "t": 193150.4950000002,
      "d": 115.58207812500768,
      "v": 81
    },
    {
      "midi": 43,
      "hit": false,
      "t": 193150.4950000005,
      "d": 94.17798958334606,
      "v": 88
    },
    {
      "midi": 43,
      "hit": false,
      "t": 193355.9742500005,
      "d": 85.61635416667559,
      "v": 88
    },
    {
      "midi": 43,
      "hit": false,
      "t": 193561.4535000005,
      "d": 98.45880729166674,
      "v": 88
    },
    {
      "midi": 74,
      "hit": false,
      "t": 193766.9327500002,
      "d": 136.9861666666693,
      "v": 81
    },
    {
      "midi": 71,
      "hit": false,
      "t": 193766.9327500002,
      "d": 166.9518906250014,
      "v": 81
    },
    {
      "midi": 79,
      "hit": false,
      "t": 193766.9327500002,
      "d": 166.9518906250014,
      "v": 81
    },
    {
      "midi": 43,
      "hit": false,
      "t": 193766.9327500005,
      "d": 98.45880729166674,
      "v": 88
    },
    {
      "midi": 43,
      "hit": false,
      "t": 193972.4120000005,
      "d": 719.1773749999993,
      "v": 88
    },
    {
      "midi": 74,
      "hit": false,
      "t": 194387.65131770854,
      "d": 162.6710729166807,
      "v": 81
    },
    {
      "midi": 79,
      "hit": false,
      "t": 194387.65131770854,
      "d": 179.79434375002165,
      "v": 81
    },
    {
      "midi": 71,
      "hit": false,
      "t": 194387.65131770854,
      "d": 192.6367968750128,
      "v": 81
    },
    {
      "midi": 54,
      "hit": false,
      "t": 194781.48654687504,
      "d": 809.0745468749956,
      "v": 47
    },
    {
      "midi": 59,
      "hit": false,
      "t": 194781.48654687504,
      "d": 809.0745468749956,
      "v": 47
    },
    {
      "midi": 62,
      "hit": false,
      "t": 194781.48654687504,
      "d": 809.0745468749956,
      "v": 47
    },
    {
      "midi": 90,
      "hit": false,
      "t": 194794.3289999998,
      "d": 821.9169999999867,
      "v": 69
    },
    {
      "midi": 66,
      "hit": false,
      "t": 194794.32900000009,
      "d": 821.9169999999867,
      "v": 84
    },
    {
      "midi": 71,
      "hit": false,
      "t": 194794.32900000009,
      "d": 821.9169999999867,
      "v": 84
    },
    {
      "midi": 74,
      "hit": false,
      "t": 194794.32900000009,
      "d": 821.9169999999867,
      "v": 84
    },
    {
      "midi": 71,
      "hit": false,
      "t": 194794.32900000023,
      "d": 124.14371354167815,
      "v": 81
    },
    {
      "midi": 74,
      "hit": false,
      "t": 194794.32900000023,
      "d": 124.14371354167815,
      "v": 81
    },
    {
      "midi": 78,
      "hit": false,
      "t": 194794.32900000023,
      "d": 124.14371354167815,
      "v": 81
    },
    {
      "midi": 47,
      "hit": false,
      "t": 194794.3290000005,
      "d": 179.79434374999255,
      "v": 88
    },
    {
      "midi": 47,
      "hit": false,
      "t": 195068.30133333383,
      "d": 154.10943750001024,
      "v": 88
    },
    {
      "midi": 74,
      "hit": false,
      "t": 195085.4246041669,
      "d": 98.45880729166674,
      "v": 81
    },
    {
      "midi": 78,
      "hit": false,
      "t": 195085.4246041669,
      "d": 98.45880729166674,
      "v": 81
    },
    {
      "midi": 71,
      "hit": false,
      "t": 195085.4246041669,
      "d": 115.58207812500768,
      "v": 81
    },
    {
      "midi": 71,
      "hit": false,
      "t": 195342.2736666669,
      "d": 136.9861666666693,
      "v": 81
    },
    {
      "midi": 74,
      "hit": false,
      "t": 195342.2736666669,
      "d": 136.9861666666693,
      "v": 81
    },
    {
      "midi": 78,
      "hit": false,
      "t": 195342.2736666669,
      "d": 136.9861666666693,
      "v": 81
    },
    {
      "midi": 47,
      "hit": false,
      "t": 195342.27366666717,
      "d": 136.9861666666693,
      "v": 88
    },
    {
      "midi": 55,
      "hit": false,
      "t": 195603.40354687502,
      "d": 809.0745468749956,
      "v": 47
    },
    {
      "midi": 60,
      "hit": false,
      "t": 195603.40354687502,
      "d": 809.0745468749956,
      "v": 47
    },
    {
      "midi": 64,
      "hit": false,
      "t": 195603.40354687502,
      "d": 809.0745468749956,
      "v": 47
    },
    {
      "midi": 88,
      "hit": false,
      "t": 195616.24599999978,
      "d": 821.9169999999867,
      "v": 69
    },
    {
      "midi": 67,
      "hit": false,
      "t": 195616.24600000007,
      "d": 821.9169999999867,
      "v": 84
    },
    {
      "midi": 72,
      "hit": false,
      "t": 195616.24600000007,
      "d": 821.9169999999867,
      "v": 84
    },
    {
      "midi": 76,
      "hit": false,
      "t": 195616.24600000007,
      "d": 821.9169999999867,
      "v": 84
    },
    {
      "midi": 72,
      "hit": false,
      "t": 195616.24600000025,
      "d": 192.6367968750128,
      "v": 81
    },
    {
      "midi": 67,
      "hit": false,
      "t": 195616.24600000025,
      "d": 196.9176145833335,
      "v": 81
    },
    {
      "midi": 76,
      "hit": false,
      "t": 195616.24600000025,
      "d": 196.9176145833335,
      "v": 81
    },
    {
      "midi": 48,
      "hit": false,
      "t": 195616.2460000005,
      "d": 192.6367968750128,
      "v": 88
    },
    {
      "midi": 67,
      "hit": false,
      "t": 196027.20450000025,
      "d": 179.79434374999255,
      "v": 81
    },
    {
      "midi": 72,
      "hit": false,
      "t": 196027.20450000025,
      "d": 179.79434374999255,
      "v": 81
    },
    {
      "midi": 76,
      "hit": false,
      "t": 196027.20450000025,
      "d": 179.79434374999255,
      "v": 81
    },
    {
      "midi": 48,
      "hit": false,
      "t": 196027.20450000052,
      "d": 218.3217031249951,
      "v": 88
    },
    {
      "midi": 55,
      "hit": false,
      "t": 196425.320546875,
      "d": 1630.9915468750114,
      "v": 47
    },
    {
      "midi": 60,
      "hit": false,
      "t": 196425.320546875,
      "d": 1630.9915468750114,
      "v": 47
    },
    {
      "midi": 64,
      "hit": false,
      "t": 196425.320546875,
      "d": 1630.9915468750114,
      "v": 47
    },
    {
      "midi": 88,
      "hit": false,
      "t": 196438.16299999977,
      "d": 1643.8340000000026,
      "v": 69
    },
    {
      "midi": 67,
      "hit": false,
      "t": 196438.16300000006,
      "d": 1643.8340000000026,
      "v": 84
    },
    {
      "midi": 72,
      "hit": false,
      "t": 196438.16300000006,
      "d": 1643.8340000000026,
      "v": 84
    },
    {
      "midi": 76,
      "hit": false,
      "t": 196438.16300000006,
      "d": 1643.8340000000026,
      "v": 84
    },
    {
      "midi": 67,
      "hit": false,
      "t": 196438.16300000023,
      "d": 1643.8340000000026,
      "v": 81
    },
    {
      "midi": 72,
      "hit": false,
      "t": 196438.16300000023,
      "d": 1643.8340000000026,
      "v": 81
    },
    {
      "midi": 76,
      "hit": false,
      "t": 196438.16300000023,
      "d": 1643.8340000000026,
      "v": 81
    },
    {
      "midi": 48,
      "hit": false,
      "t": 196438.16300000052,
      "d": 1643.8340000000026,
      "v": 88
    },
    {
      "midi": 55,
      "hit": false,
      "t": 198069.154546875,
      "d": 809.0745468749956,
      "v": 47
    },
    {
      "midi": 59,
      "hit": false,
      "t": 198069.154546875,
      "d": 809.0745468749956,
      "v": 47
    },
    {
      "midi": 62,
      "hit": false,
      "t": 198069.154546875,
      "d": 809.0745468749956,
      "v": 47
    },
    {
      "midi": 67,
      "hit": false,
      "t": 198081.99700000006,
      "d": 821.9169999999867,
      "v": 84
    },
    {
      "midi": 71,
      "hit": false,
      "t": 198081.99700000006,
      "d": 821.9169999999867,
      "v": 84
    },
    {
      "midi": 74,
      "hit": false,
      "t": 198081.99700000006,
      "d": 821.9169999999867,
      "v": 84
    },
    {
      "midi": 71,
      "hit": false,
      "t": 198081.99700000024,
      "d": 821.9169999999867,
      "v": 81
    },
    {
      "midi": 74,
      "hit": false,
      "t": 198081.99700000024,
      "d": 821.9169999999867,
      "v": 81
    },
    {
      "midi": 79,
      "hit": false,
      "t": 198081.99700000024,
      "d": 821.9169999999867,
      "v": 81
    },
    {
      "midi": 43,
      "hit": false,
      "t": 198081.99700000053,
      "d": 821.9169999999867,
      "v": 88
    }
  ]
}