{
  "jsonPath": "Rock/Modern Rock/Oasis/champagne-supanova.json",
  "path": "Rock\\Modern Rock\\Oasis\\Champagne Supanova.mid",
  "name": "Champagne Supanova",
  "difficulty": "Advanced",
  "bpm": 150,
  "notes": [
    {
      "midi": 40,
      "hit": false,
      "t": 118391.66666666667,
      "d": 270.8333333333285,
      "v": 102
    },
    {
      "midi": 52,
      "hit": false,
      "t": 118400,
      "d": 300,
      "v": 96
    },
    {
      "midi": 56,
      "hit": false,
      "t": 118400,
      "d": 300,
      "v": 89
    },
    {
      "midi": 59,
      "hit": false,
      "t": 118400,
      "d": 300,
      "v": 93
    },
    {
      "midi": 64,
      "hit": false,
      "t": 118400,
      "d": 300,
      "v": 84
    },
    {
      "midi": 40,
      "hit": false,
      "t": 118800,
      "d": 300,
      "v": 127
    },
    {
      "midi": 52,
      "hit": false,
      "t": 118800,
      "d": 300,
      "v": 102
    },
    {
      "midi": 56,
      "hit": false,
      "t": 118800,
      "d": 300,
      "v": 123
    },
    {
      "midi": 59,
      "hit": false,
      "t": 118800,
      "d": 300,
      "v": 117
    },
    {
      "midi": 64,
      "hit": false,
      "t": 118800,
      "d": 300,
      "v": 127
    },
    {
      "midi": 40,
      "hit": false,
      "t": 119200,
      "d": 300,
      "v": 127
    },
    {
      "midi": 52,
      "hit": false,
      "t": 119200,
      "d": 300,
      "v": 127
    },
    {
      "midi": 56,
      "hit": false,
      "t": 119200,
      "d": 300,
      "v": 127
    },
    {
      "midi": 59,
      "hit": false,
      "t": 119200,
      "d": 300,
      "v": 127
    },
    {
      "midi": 64,
      "hit": false,
      "t": 119200,
      "d": 300,
      "v": 125
    },
    {
      "midi": 40,
      "hit": false,
      "t": 119600,
      "d": 300,
      "v": 126
    },
    {
      "midi": 52,
      "hit": false,
      "t": 119600,
      "d": 300,
      "v": 127
    },
    {
      "midi": 56,
      "hit": false,
      "t": 119600,
      "d": 300,
      "v": 127
    },
    {
      "midi": 59,
      "hit": false,
      "t": 119600,
      "d": 300,
      "v": 127
    },
    {
      "midi": 64,
      "hit": false,
      "t": 119600,
      "d": 300,
      "v": 108
    },
    {
      "midi": 40,
      "hit": false,
      "t": 120000,
      "d": 200,
      "v": 126
    },
    {
      "midi": 56,
      "hit": false,
      "t": 120000,
      "d": 200,
      "v": 125
    },
    {
      "midi": 52,
      "hit": false,
      "t": 120000,
      "d": 300,
      "v": 120
    },
    {
      "midi": 59,
      "hit": false,
      "t": 120000,
      "d": 300,
      "v": 117
    },
    {
      "midi": 64,
      "hit": false,
      "t": 120000,
      "d": 300,
      "v": 89
    },
    {
      "midi": 40,
      "hit": false,
      "t": 120400,
      "d": 200,
      "v": 127
    },
    {
      "midi": 52,
      "hit": false,
      "t": 120400,
      "d": 200,
      "v": 117
    },
    {
      "midi": 56,
      "hit": false,
      "t": 120400,
      "d": 200,
      "v": 125
    },
    {
      "midi": 59,
      "hit": false,
      "t": 120400,
      "d": 200,
      "v": 114
    },
    {
      "midi": 64,
      "hit": false,
      "t": 120400,
      "d": 200,
      "v": 117
    },
    {
      "midi": 40,
      "hit": false,
      "t": 120800,
      "d": 200,
      "v": 127
    },
    {
      "midi": 52,
      "hit": false,
      "t": 120800,
      "d": 200,
      "v": 123
    },
    {
      "midi": 56,
      "hit": false,
      "t": 120800,
      "d": 200,
      "v": 127
    },
    {
      "midi": 59,
      "hit": false,
      "t": 120800,
      "d": 200,
      "v": 120
    },
    {
      "midi": 64,
      "hit": false,
      "t": 120800,
      "d": 200,
      "v": 108
    },
    {
      "midi": 40,
      "hit": false,
      "t": 121200,
      "d": 95.83333333332848,
      "v": 105
    },
    {
      "midi": 52,
      "hit": false,
      "t": 121200,
      "d": 95.83333333332848,
      "v": 126
    },
    {
      "midi": 56,
      "hit": false,
      "t": 121200,
      "d": 95.83333333332848,
      "v": 127
    },
    {
      "midi": 59,
      "hit": false,
      "t": 121200,
      "d": 95.83333333332848,
      "v": 105
    },
    {
      "midi": 64,
      "hit": false,
      "t": 121200,
      "d": 95.83333333332848,
      "v": 108
    },
    {
      "midi": 61,
      "hit": false,
      "t": 121600,
      "d": 400,
      "v": 124
    },
    {
      "midi": 64,
      "hit": false,
      "t": 121600,
      "d": 500,
      "v": 99
    },
    {
      "midi": 69,
      "hit": false,
      "t": 121600,
      "d": 500,
      "v": 96
    },
    {
      "midi": 45,
      "hit": false,
      "t": 121600,
      "d": 3000,
      "v": 127
    },
    {
      "midi": 61,
      "hit": false,
      "t": 122000,
      "d": 200,
      "v": 74
    },
    {
      "midi": 57,
      "hit": false,
      "t": 122400,
      "d": 200,
      "v": 108
    },
    {
      "midi": 61,
      "hit": false,
      "t": 122400,
      "d": 400,
      "v": 127
    },
    {
      "midi": 64,
      "hit": false,
      "t": 122400,
      "d": 400,
      "v": 127
    },
    {
      "midi": 69,
      "hit": false,
      "t": 122400,
      "d": 400,
      "v": 123
    },
    {
      "midi": 57,
      "hit": false,
      "t": 122800,
      "d": 200,
      "v": 89
    },
    {
      "midi": 61,
      "hit": false,
      "t": 123000,
      "d": 200,
      "v": 111
    },
    {
      "midi": 64,
      "hit": false,
      "t": 123000,
      "d": 200,
      "v": 117
    },
    {
      "midi": 69,
      "hit": false,
      "t": 123000,
      "d": 300,
      "v": 123
    },
    {
      "midi": 57,
      "hit": false,
      "t": 123200,
      "d": 200,
      "v": 126
    },
    {
      "midi": 61,
      "hit": false,
      "t": 123400,
      "d": 400,
      "v": 125
    },
    {
      "midi": 64,
      "hit": false,
      "t": 123400,
      "d": 400,
      "v": 124
    },
    {
      "midi": 69,
      "hit": false,
      "t": 123400,
      "d": 400,
      "v": 93
    },
    {
      "midi": 57,
      "hit": false,
      "t": 123600,
      "d": 500,
      "v": 127
    },
    {
      "midi": 61,
      "hit": false,
      "t": 124000,
      "d": 300,
      "v": 127
    },
    {
      "midi": 64,
      "hit": false,
      "t": 124000,
      "d": 300,
      "v": 127
    },
    {
      "midi": 69,
      "hit": false,
      "t": 124000,
      "d": 300,
      "v": 127
    },
    {
      "midi": 57,
      "hit": false,
      "t": 124400,
      "d": 200,
      "v": 127
    },
    {
      "midi": 59,
      "hit": false,
      "t": 124600,
      "d": 400,
      "v": 127
    },
    {
      "midi": 62,
      "hit": false,
      "t": 124600,
      "d": 700,
      "v": 127
    },
    {
      "midi": 67,
      "hit": false,
      "t": 124600,
      "d": 700,
      "v": 127
    },
    {
      "midi": 69,
      "hit": false,
      "t": 124600,
      "d": 700,
      "v": 124
    },
    {
      "midi": 43,
      "hit": false,
      "t": 124800,
      "d": 3000,
      "v": 127
    },
    {
      "midi": 59,
      "hit": false,
      "t": 125200,
      "d": 95.83333333332848,
      "v": 61
    },
    {
      "midi": 55,
      "hit": false,
      "t": 125600,
      "d": 200,
      "v": 127
    },
    {
      "midi": 59,
      "hit": false,
      "t": 125600,
      "d": 400,
      "v": 123
    },
    {
      "midi": 62,
      "hit": false,
      "t": 125600,
      "d": 400,
      "v": 127
    },
    {
      "midi": 67,
      "hit": false,
      "t": 125600,
      "d": 400,
      "v": 126
    },
    {
      "midi": 69,
      "hit": false,
      "t": 125600,
      "d": 400,
      "v": 117
    },
    {
      "midi": 55,
      "hit": false,
      "t": 126000,
      "d": 200,
      "v": 77
    },
    {
      "midi": 59,
      "hit": false,
      "t": 126200,
      "d": 200,
      "v": 117
    },
    {
      "midi": 62,
      "hit": false,
      "t": 126200,
      "d": 200,
      "v": 108
    },
    {
      "midi": 69,
      "hit": false,
      "t": 126200,
      "d": 200,
      "v": 111
    },
    {
      "midi": 67,
      "hit": false,
      "t": 126200,
      "d": 300,
      "v": 124
    },
    {
      "midi": 55,
      "hit": false,
      "t": 126400,
      "d": 200,
      "v": 127
    },
    {
      "midi": 59,
      "hit": false,
      "t": 126600,
      "d": 300,
      "v": 117
    },
    {
      "midi": 62,
      "hit": false,
      "t": 126600,
      "d": 300,
      "v": 124
    },
    {
      "midi": 67,
      "hit": false,
      "t": 126600,
      "d": 300,
      "v": 127
    },
    {
      "midi": 69,
      "hit": false,
      "t": 126600,
      "d": 300,
      "v": 111
    },
    {
      "midi": 55,
      "hit": false,
      "t": 126800,
      "d": 500,
      "v": 127
    },
    {
      "midi": 59,
      "hit": false,
      "t": 127200,
      "d": 95.83333333332848,
      "v": 93
    },
    {
      "midi": 62,
      "hit": false,
      "t": 127200,
      "d": 95.83333333332848,
      "v": 120
    },
    {
      "midi": 67,
      "hit": false,
      "t": 127200,
      "d": 200,
      "v": 93
    },
    {
      "midi": 69,
      "hit": false,
      "t": 127200,
      "d": 200,
      "v": 126
    },
    {
      "midi": 55,
      "hit": false,
      "t": 127600,
      "d": 200,
      "v": 127
    },
    {
      "midi": 64,
      "hit": false,
      "t": 127800,
      "d": 95.83333333332848,
      "v": 51
    },
    {
      "midi": 54,
      "hit": false,
      "t": 128000,
      "d": 200,
      "v": 117
    },
    {
      "midi": 64,
      "hit": false,
      "t": 128000,
      "d": 600,
      "v": 89
    },
    {
      "midi": 66,
      "hit": false,
      "t": 128000,
      "d": 600,
      "v": 108
    },
    {
      "midi": 69,
      "hit": false,
      "t": 128000,
      "d": 600,
      "v": 86
    },
    {
      "midi": 73,
      "hit": false,
      "t": 128000,
      "d": 600,
      "v": 99
    },
    {
      "midi": 42,
      "hit": false,
      "t": 128000,
      "d": 3000,
      "v": 102
    },
    {
      "midi": 54,
      "hit": false,
      "t": 128400,
      "d": 200,
      "v": 72
    },
    {
      "midi": 54,
      "hit": false,
      "t": 128800,
      "d": 200,
      "v": 123
    },
    {
      "midi": 64,
      "hit": false,
      "t": 128800,
      "d": 400,
      "v": 127
    },
    {
      "midi": 66,
      "hit": false,
      "t": 128800,
      "d": 400,
      "v": 127
    },
    {
      "midi": 69,
      "hit": false,
      "t": 128800,
      "d": 400,
      "v": 126
    },
    {
      "midi": 73,
      "hit": false,
      "t": 128800,
      "d": 400,
      "v": 125
    },
    {
      "midi": 54,
      "hit": false,
      "t": 129200,
      "d": 200,
      "v": 74
    },
    {
      "midi": 64,
      "hit": false,
      "t": 129400,
      "d": 200,
      "v": 93
    },
    {
      "midi": 66,
      "hit": false,
      "t": 129400,
      "d": 200,
      "v": 117
    },
    {
      "midi": 69,
      "hit": false,
      "t": 129400,
      "d": 200,
      "v": 96
    },
    {
      "midi": 73,
      "hit": false,
      "t": 129400,
      "d": 200,
      "v": 77
    },
    {
      "midi": 54,
      "hit": false,
      "t": 129600,
      "d": 200,
      "v": 102
    },
    {
      "midi": 64,
      "hit": false,
      "t": 129800,
      "d": 300,
      "v": 111
    },
    {
      "midi": 66,
      "hit": false,
      "t": 129800,
      "d": 300,
      "v": 124
    },
    {
      "midi": 69,
      "hit": false,
      "t": 129800,
      "d": 300,
      "v": 102
    },
    {
      "midi": 73,
      "hit": false,
      "t": 129800,
      "d": 300,
      "v": 91
    },
    {
      "midi": 54,
      "hit": false,
      "t": 130000,
      "d": 500,
      "v": 125
    },
    {
      "midi": 64,
      "hit": false,
      "t": 130400,
      "d": 200,
      "v": 126
    },
    {
      "midi": 66,
      "hit": false,
      "t": 130400,
      "d": 200,
      "v": 127
    },
    {
      "midi": 69,
      "hit": false,
      "t": 130400,
      "d": 200,
      "v": 114
    },
    {
      "midi": 73,
      "hit": false,
      "t": 130400,
      "d": 200,
      "v": 127
    },
    {
      "midi": 54,
      "hit": false,
      "t": 130800,
      "d": 95.83333333332848,
      "v": 125
    },
    {
      "midi": 56,
      "hit": false,
      "t": 131000,
      "d": 95.83333333334303,
      "v": 39
    },
    {
      "midi": 40,
      "hit": false,
      "t": 131200,
      "d": 200,
      "v": 66
    },
    {
      "midi": 52,
      "hit": false,
      "t": 131200,
      "d": 300,
      "v": 86
    },
    {
      "midi": 56,
      "hit": false,
      "t": 131200,
      "d": 300,
      "v": 105
    },
    {
      "midi": 59,
      "hit": false,
      "t": 131200,
      "d": 300,
      "v": 108
    },
    {
      "midi": 64,
      "hit": false,
      "t": 131200,
      "d": 300,
      "v": 102
    },
    {
      "midi": 40,
      "hit": false,
      "t": 131600,
      "d": 200,
      "v": 89
    },
    {
      "midi": 52,
      "hit": false,
      "t": 131600,
      "d": 200,
      "v": 69
    },
    {
      "midi": 56,
      "hit": false,
      "t": 131600,
      "d": 200,
      "v": 99
    },
    {
      "midi": 59,
      "hit": false,
      "t": 131600,
      "d": 200,
      "v": 102
    },
    {
      "midi": 64,
      "hit": false,
      "t": 131600,
      "d": 200,
      "v": 105
    },
    {
      "midi": 40,
      "hit": false,
      "t": 132000,
      "d": 200,
      "v": 108
    },
    {
      "midi": 52,
      "hit": false,
      "t": 132000,
      "d": 200,
      "v": 89
    },
    {
      "midi": 56,
      "hit": false,
      "t": 132000,
      "d": 200,
      "v": 124
    },
    {
      "midi": 59,
      "hit": false,
      "t": 132000,
      "d": 200,
      "v": 117
    },
    {
      "midi": 64,
      "hit": false,
      "t": 132000,
      "d": 200,
      "v": 125
    },
    {
      "midi": 40,
      "hit": false,
      "t": 132400,
      "d": 200,
      "v": 111
    },
    {
      "midi": 52,
      "hit": false,
      "t": 132400,
      "d": 200,
      "v": 96
    },
    {
      "midi": 56,
      "hit": false,
      "t": 132400,
      "d": 200,
      "v": 96
    },
    {
      "midi": 59,
      "hit": false,
      "t": 132400,
      "d": 200,
      "v": 96
    },
    {
      "midi": 64,
      "hit": false,
      "t": 132400,
      "d": 200,
      "v": 127
    },
    {
      "midi": 40,
      "hit": false,
      "t": 132800,
      "d": 200,
      "v": 84
    },
    {
      "midi": 52,
      "hit": false,
      "t": 132800,
      "d": 200,
      "v": 81
    },
    {
      "midi": 56,
      "hit": false,
      "t": 132800,
      "d": 200,
      "v": 81
    },
    {
      "midi": 59,
      "hit": false,
      "t": 132800,
      "d": 200,
      "v": 89
    },
    {
      "midi": 64,
      "hit": false,
      "t": 132800,
      "d": 200,
      "v": 89
    },
    {
      "midi": 64,
      "hit": false,
      "t": 133200,
      "d": 95.83333333334303,
      "v": 123
    },
    {
      "midi": 40,
      "hit": false,
      "t": 133200,
      "d": 200,
      "v": 84
    },
    {
      "midi": 52,
      "hit": false,
      "t": 133200,
      "d": 200,
      "v": 93
    },
    {
      "midi": 56,
      "hit": false,
      "t": 133200,
      "d": 200,
      "v": 93
    },
    {
      "midi": 59,
      "hit": false,
      "t": 133200,
      "d": 200,
      "v": 102
    },
    {
      "midi": 56,
      "hit": false,
      "t": 133600,
      "d": 95.83333333334303,
      "v": 102
    },
    {
      "midi": 59,
      "hit": false,
      "t": 133600,
      "d": 95.83333333334303,
      "v": 89
    },
    {
      "midi": 64,
      "hit": false,
      "t": 133600,
      "d": 95.83333333334303,
      "v": 84
    },
    {
      "midi": 40,
      "hit": false,
      "t": 133600,
      "d": 200,
      "v": 84
    },
    {
      "midi": 52,
      "hit": false,
      "t": 133600,
      "d": 200,
      "v": 81
    },
    {
      "midi": 52,
      "hit": false,
      "t": 134000,
      "d": 95.83333333334303,
      "v": 127
    },
    {
      "midi": 61,
      "hit": false,
      "t": 134100,
      "d": 200,
      "v": 55
    },
    {
      "midi": 61,
      "hit": false,
      "t": 134400,
      "d": 600,
      "v": 108
    },
    {
      "midi": 64,
      "hit": false,
      "t": 134400,
      "d": 600,
      "v": 111
    },
    {
      "midi": 69,
      "hit": false,
      "t": 134400,
      "d": 600,
      "v": 102
    },
    {
      "midi": 45,
      "hit": false,
      "t": 134400,
      "d": 2900,
      "v": 123
    },
    {
      "midi": 57,
      "hit": false,
      "t": 134800,
      "d": 95.83333333334303,
      "v": 89
    },
    {
      "midi": 57,
      "hit": false,
      "t": 135200,
      "d": 200,
      "v": 123
    },
    {
      "midi": 61,
      "hit": false,
      "t": 135200,
      "d": 400,
      "v": 117
    },
    {
      "midi": 64,
      "hit": false,
      "t": 135200,
      "d": 400,
      "v": 111
    },
    {
      "midi": 69,
      "hit": false,
      "t": 135200,
      "d": 400,
      "v": 81
    },
    {
      "midi": 57,
      "hit": false,
      "t": 135600,
      "d": 200,
      "v": 66
    },
    {
      "midi": 61,
      "hit": false,
      "t": 135800,
      "d": 200,
      "v": 124
    },
    {
      "midi": 64,
      "hit": false,
      "t": 135800,
      "d": 200,
      "v": 111
    },
    {
      "midi": 69,
      "hit": false,
      "t": 135800,
      "d": 200,
      "v": 111
    },
    {
      "midi": 57,
      "hit": false,
      "t": 136000,
      "d": 200,
      "v": 84
    },
    {
      "midi": 61,
      "hit": false,
      "t": 136200,
      "d": 500,
      "v": 117
    },
    {
      "midi": 64,
      "hit": false,
      "t": 136200,
      "d": 500,
      "v": 124
    },
    {
      "midi": 69,
      "hit": false,
      "t": 136200,
      "d": 500,
      "v": 120
    },
    {
      "midi": 57,
      "hit": false,
      "t": 136400,
      "d": 500,
      "v": 117
    },
    {
      "midi": 61,
      "hit": false,
      "t": 136800,
      "d": 300,
      "v": 126
    },
    {
      "midi": 69,
      "hit": false,
      "t": 136800,
      "d": 300,
      "v": 114
    },
    {
      "midi": 64,
      "hit": false,
      "t": 136800,
      "d": 400,
      "v": 93
    },
    {
      "midi": 57,
      "hit": false,
      "t": 137200,
      "d": 200,
      "v": 126
    },
    {
      "midi": 59,
      "hit": false,
      "t": 137400,
      "d": 95.83333333334303,
      "v": 58
    },
    {
      "midi": 43,
      "hit": false,
      "t": 137600.00000000003,
      "d": 300,
      "v": 124
    },
    {
      "midi": 59,
      "hit": false,
      "t": 137600.00000000003,
      "d": 600,
      "v": 117
    },
    {
      "midi": 62,
      "hit": false,
      "t": 137600.00000000003,
      "d": 600,
      "v": 111
    },
    {
      "midi": 67,
      "hit": false,
      "t": 137600.00000000003,
      "d": 600,
      "v": 117
    },
    {
      "midi": 69,
      "hit": false,
      "t": 137600.00000000003,
      "d": 600,
      "v": 86
    },
    {
      "midi": 43,
      "hit": false,
      "t": 138000.00000000003,
      "d": 2600,
      "v": 111
    },
    {
      "midi": 55,
      "hit": false,
      "t": 138400.00000000003,
      "d": 200,
      "v": 123
    },
    {
      "midi": 59,
      "hit": false,
      "t": 138400.00000000003,
      "d": 400,
      "v": 84
    },
    {
      "midi": 62,
      "hit": false,
      "t": 138400.00000000003,
      "d": 400,
      "v": 84
    },
    {
      "midi": 67,
      "hit": false,
      "t": 138400.00000000003,
      "d": 400,
      "v": 69
    },
    {
      "midi": 69,
      "hit": false,
      "t": 138400.00000000003,
      "d": 400,
      "v": 93
    },
    {
      "midi": 55,
      "hit": false,
      "t": 138800.00000000003,
      "d": 200,
      "v": 120
    },
    {
      "midi": 59,
      "hit": false,
      "t": 139000.00000000003,
      "d": 200,
      "v": 93
    },
    {
      "midi": 62,
      "hit": false,
      "t": 139000.00000000003,
      "d": 200,
      "v": 117
    },
    {
      "midi": 67,
      "hit": false,
      "t": 139000.00000000003,
      "d": 200,
      "v": 126
    },
    {
      "midi": 69,
      "hit": false,
      "t": 139000.00000000003,
      "d": 200,
      "v": 93
    },
    {
      "midi": 55,
      "hit": false,
      "t": 139200.00000000003,
      "d": 200,
      "v": 120
    },
    {
      "midi": 59,
      "hit": false,
      "t": 139400.00000000003,
      "d": 300,
      "v": 117
    },
    {
      "midi": 62,
      "hit": false,
      "t": 139400.00000000003,
      "d": 300,
      "v": 124
    },
    {
      "midi": 67,
      "hit": false,
      "t": 139400.00000000003,
      "d": 300,
      "v": 125
    },
    {
      "midi": 69,
      "hit": false,
      "t": 139400.00000000003,
      "d": 300,
      "v": 84
    },
    {
      "midi": 55,
      "hit": false,
      "t": 139600.00000000003,
      "d": 500,
      "v": 127
    },
    {
      "midi": 59,
      "hit": false,
      "t": 140000.00000000003,
      "d": 300,
      "v": 108
    },
    {
      "midi": 62,
      "hit": false,
      "t": 140000.00000000003,
      "d": 300,
      "v": 102
    },
    {
      "midi": 67,
      "hit": false,
      "t": 140000.00000000003,
      "d": 300,
      "v": 127
    },
    {
      "midi": 69,
      "hit": false,
      "t": 140000.00000000003,
      "d": 400,
      "v": 117
    },
    {
      "midi": 55,
      "hit": false,
      "t": 140400.00000000003,
      "d": 200,
      "v": 127
    },
    {
      "midi": 61,
      "hit": false,
      "t": 140600.00000000003,
      "d": 95.83333333334303,
      "v": 35
    },
    {
      "midi": 42,
      "hit": false,
      "t": 140800.00000000003,
      "d": 200,
      "v": 108
    },
    {
      "midi": 54,
      "hit": false,
      "t": 140800.00000000003,
      "d": 300,
      "v": 72
    },
    {
      "midi": 61,
      "hit": false,
      "t": 140800.00000000003,
      "d": 500,
      "v": 81
    },
    {
      "midi": 64,
      "hit": false,
      "t": 140800.00000000003,
      "d": 600,
      "v": 93
    },
    {
      "midi": 66,
      "hit": false,
      "t": 140800.00000000003,
      "d": 600,
      "v": 86
    },
    {
      "midi": 69,
      "hit": false,
      "t": 140800.00000000003,
      "d": 600,
      "v": 89
    },
    {
      "midi": 42,
      "hit": false,
      "t": 141200.00000000003,
      "d": 2600,
      "v": 89
    },
    {
      "midi": 54,
      "hit": false,
      "t": 141600.00000000003,
      "d": 95.83333333334303,
      "v": 111
    },
    {
      "midi": 61,
      "hit": false,
      "t": 141600.00000000003,
      "d": 400,
      "v": 124
    },
    {
      "midi": 64,
      "hit": false,
      "t": 141600.00000000003,
      "d": 400,
      "v": 89
    },
    {
      "midi": 66,
      "hit": false,
      "t": 141600.00000000003,
      "d": 400,
      "v": 111
    },
    {
      "midi": 69,
      "hit": false,
      "t": 141600.00000000003,
      "d": 400,
      "v": 111
    },
    {
      "midi": 54,
      "hit": false,
      "t": 142000.00000000003,
      "d": 200,
      "v": 84
    },
    {
      "midi": 61,
      "hit": false,
      "t": 142200.00000000003,
      "d": 200,
      "v": 74
    },
    {
      "midi": 64,
      "hit": false,
      "t": 142200.00000000003,
      "d": 200,
      "v": 79
    },
    {
      "midi": 66,
      "hit": false,
      "t": 142200.00000000003,
      "d": 200,
      "v": 84
    },
    {
      "midi": 69,
      "hit": false,
      "t": 142200.00000000003,
      "d": 200,
      "v": 77
    },
    {
      "midi": 54,
      "hit": false,
      "t": 142400.00000000003,
      "d": 200,
      "v": 89
    },
    {
      "midi": 61,
      "hit": false,
      "t": 142600.00000000003,
      "d": 200,
      "v": 124
    },
    {
      "midi": 64,
      "hit": false,
      "t": 142600.00000000003,
      "d": 200,
      "v": 96
    },
    {
      "midi": 66,
      "hit": false,
      "t": 142600.00000000003,
      "d": 300,
      "v": 105
    },
    {
      "midi": 69,
      "hit": false,
      "t": 142600.00000000003,
      "d": 300,
      "v": 99
    },
    {
      "midi": 54,
      "hit": false,
      "t": 142800.00000000003,
      "d": 500,
      "v": 81
    },
    {
      "midi": 61,
      "hit": false,
      "t": 143200.00000000003,
      "d": 400,
      "v": 111
    },
    {
      "midi": 64,
      "hit": false,
      "t": 143200.00000000003,
      "d": 400,
      "v": 117
    },
    {
      "midi": 66,
      "hit": false,
      "t": 143200.00000000003,
      "d": 500,
      "v": 124
    },
    {
      "midi": 69,
      "hit": false,
      "t": 143200.00000000003,
      "d": 500,
      "v": 114
    },
    {
      "midi": 54,
      "hit": false,
      "t": 143600.00000000003,
      "d": 200,
      "v": 99
    },
    {
      "midi": 61,
      "hit": false,
      "t": 143800.00000000003,
      "d": 95.83333333334303,
      "v": 51
    },
    {
      "midi": 69,
      "hit": false,
      "t": 143800.00000000003,
      "d": 95.83333333334303,
      "v": 8
    },
    {
      "midi": 52,
      "hit": false,
      "t": 144000.00000000003,
      "d": 300,
      "v": 111
    },
    {
      "midi": 59,
      "hit": false,
      "t": 144000.00000000003,
      "d": 600,
      "v": 79
    },
    {
      "midi": 64,
      "hit": false,
      "t": 144000.00000000003,
      "d": 600,
      "v": 89
    },
    {
      "midi": 69,
      "hit": false,
      "t": 144000.00000000003,
      "d": 600,
      "v": 108
    },
    {
      "midi": 40,
      "hit": false,
      "t": 144000.00000000003,
      "d": 2800,
      "v": 111
    },
    {
      "midi": 52,
      "hit": false,
      "t": 144400.00000000003,
      "d": 200,
      "v": 96
    },
    {
      "midi": 52,
      "hit": false,
      "t": 144800.00000000003,
      "d": 200,
      "v": 123
    },
    {
      "midi": 59,
      "hit": false,
      "t": 144800.00000000003,
      "d": 400,
      "v": 127
    },
    {
      "midi": 64,
      "hit": false,
      "t": 144800.00000000003,
      "d": 400,
      "v": 123
    },
    {
      "midi": 69,
      "hit": false,
      "t": 144800.00000000003,
      "d": 400,
      "v": 124
    },
    {
      "midi": 52,
      "hit": false,
      "t": 145200.00000000003,
      "d": 200,
      "v": 72
    },
    {
      "midi": 59,
      "hit": false,
      "t": 145400.00000000003,
      "d": 200,
      "v": 89
    },
    {
      "midi": 64,
      "hit": false,
      "t": 145400.00000000003,
      "d": 200,
      "v": 79
    },
    {
      "midi": 69,
      "hit": false,
      "t": 145400.00000000003,
      "d": 200,
      "v": 96
    },
    {
      "midi": 52,
      "hit": false,
      "t": 145600.00000000003,
      "d": 200,
      "v": 99
    },
    {
      "midi": 59,
      "hit": false,
      "t": 145800.00000000003,
      "d": 400,
      "v": 96
    },
    {
      "midi": 64,
      "hit": false,
      "t": 145800.00000000003,
      "d": 400,
      "v": 105
    },
    {
      "midi": 69,
      "hit": false,
      "t": 145800.00000000003,
      "d": 400,
      "v": 89
    },
    {
      "midi": 52,
      "hit": false,
      "t": 146000.00000000003,
      "d": 500,
      "v": 125
    },
    {
      "midi": 59,
      "hit": false,
      "t": 146400.00000000003,
      "d": 300,
      "v": 127
    },
    {
      "midi": 64,
      "hit": false,
      "t": 146400.00000000003,
      "d": 400,
      "v": 84
    },
    {
      "midi": 69,
      "hit": false,
      "t": 146400.00000000003,
      "d": 400,
      "v": 127
    },
    {
      "midi": 52,
      "hit": false,
      "t": 146800.00000000003,
      "d": 200,
      "v": 127
    },
    {
      "midi": 59,
      "hit": false,
      "t": 147000.00000000003,
      "d": 95.83333333334303,
      "v": 64
    },
    {
      "midi": 43,
      "hit": false,
      "t": 147200.00000000003,
      "d": 200,
      "v": 102
    },
    {
      "midi": 55,
      "hit": false,
      "t": 147200.00000000003,
      "d": 700,
      "v": 123
    },
    {
      "midi": 59,
      "hit": false,
      "t": 147200.00000000003,
      "d": 700,
      "v": 117
    },
    {
      "midi": 62,
      "hit": false,
      "t": 147200.00000000003,
      "d": 700,
      "v": 96
    },
    {
      "midi": 67,
      "hit": false,
      "t": 147200.00000000003,
      "d": 700,
      "v": 93
    },
    {
      "midi": 43,
      "hit": false,
      "t": 147600.00000000003,
      "d": 600,
      "v": 102
    },
    {
      "midi": 55,
      "hit": false,
      "t": 148000.00000000003,
      "d": 400,
      "v": 127
    },
    {
      "midi": 67,
      "hit": false,
      "t": 148000.00000000003,
      "d": 400,
      "v": 96
    },
    {
      "midi": 59,
      "hit": false,
      "t": 148000.00000000003,
      "d": 500,
      "v": 120
    },
    {
      "midi": 62,
      "hit": false,
      "t": 148000.00000000003,
      "d": 500,
      "v": 117
    },
    {
      "midi": 43,
      "hit": false,
      "t": 148400.00000000003,
      "d": 300,
      "v": 77
    },
    {
      "midi": 55,
      "hit": false,
      "t": 148600.00000000003,
      "d": 800,
      "v": 124
    },
    {
      "midi": 59,
      "hit": false,
      "t": 148600.00000000003,
      "d": 800,
      "v": 77
    },
    {
      "midi": 62,
      "hit": false,
      "t": 148600.00000000003,
      "d": 800,
      "v": 102
    },
    {
      "midi": 67,
      "hit": false,
      "t": 148600.00000000003,
      "d": 800,
      "v": 74
    },
    {
      "midi": 43,
      "hit": false,
      "t": 148800.00000000003,
      "d": 200,
      "v": 102
    },
    {
      "midi": 43,
      "hit": false,
      "t": 149200.00000000003,
      "d": 600,
      "v": 84
    },
    {
      "midi": 55,
      "hit": false,
      "t": 149600.00000000003,
      "d": 400,
      "v": 127
    },
    {
      "midi": 67,
      "hit": false,
      "t": 149600.00000000003,
      "d": 400,
      "v": 99
    },
    {
      "midi": 59,
      "hit": false,
      "t": 149600.00000000003,
      "d": 500,
      "v": 117
    },
    {
      "midi": 62,
      "hit": false,
      "t": 149600.00000000003,
      "d": 500,
      "v": 105
    },
    {
      "midi": 43,
      "hit": false,
      "t": 150000.00000000003,
      "d": 200,
      "v": 74
    },
    {
      "midi": 55,
      "hit": false,
      "t": 150200.00000000003,
      "d": 700,
      "v": 117
    },
    {
      "midi": 59,
      "hit": false,
      "t": 150200.00000000003,
      "d": 700,
      "v": 120
    },
    {
      "midi": 62,
      "hit": false,
      "t": 150200.00000000003,
      "d": 700,
      "v": 96
    },
    {
      "midi": 67,
      "hit": false,
      "t": 150200.00000000003,
      "d": 700,
      "v": 102
    },
    {
      "midi": 43,
      "hit": false,
      "t": 150400.00000000003,
      "d": 200,
      "v": 84
    },
    {
      "midi": 43,
      "hit": false,
      "t": 150800.00000000003,
      "d": 200,
      "v": 74
    },
    {
      "midi": 55,
      "hit": false,
      "t": 151000.00000000003,
      "d": 600,
      "v": 84
    },
    {
      "midi": 67,
      "hit": false,
      "t": 151000.00000000003,
      "d": 600,
      "v": 89
    },
    {
      "midi": 59,
      "hit": false,
      "t": 151000.00000000003,
      "d": 700,
      "v": 89
    },
    {
      "midi": 62,
      "hit": false,
      "t": 151000.00000000003,
      "d": 700,
      "v": 102
    },
    {
      "midi": 43,
      "hit": false,
      "t": 151200.00000000003,
      "d": 200,
      "v": 117
    },
    {
      "midi": 43,
      "hit": false,
      "t": 151600.00000000003,
      "d": 200,
      "v": 77
    },
    {
      "midi": 55,
      "hit": false,
      "t": 151800.00000000003,
      "d": 700,
      "v": 117
    },
    {
      "midi": 59,
      "hit": false,
      "t": 151800.00000000003,
      "d": 700,
      "v": 111
    },
    {
      "midi": 62,
      "hit": false,
      "t": 151800.00000000003,
      "d": 700,
      "v": 86
    },
    {
      "midi": 67,
      "hit": false,
      "t": 151800.00000000003,
      "d": 700,
      "v": 81
    },
    {
      "midi": 43,
      "hit": false,
      "t": 152000.00000000003,
      "d": 300,
      "v": 124
    },
    {
      "midi": 43,
      "hit": false,
      "t": 152400.00000000003,
      "d": 200,
      "v": 102
    },
    {
      "midi": 55,
      "hit": false,
      "t": 152600.00000000003,
      "d": 600,
      "v": 96
    },
    {
      "midi": 59,
      "hit": false,
      "t": 152600.00000000003,
      "d": 600,
      "v": 117
    },
    {
      "midi": 62,
      "hit": false,
      "t": 152600.00000000003,
      "d": 700,
      "v": 108
    },
    {
      "midi": 67,
      "hit": false,
      "t": 152600.00000000003,
      "d": 700,
      "v": 126
    },
    {
      "midi": 43,
      "hit": false,
      "t": 152800.00000000003,
      "d": 200,
      "v": 93
    },
    {
      "midi": 43,
      "hit": false,
      "t": 153200.00000000003,
      "d": 95.83333333334303,
      "v": 79
    },
    {
      "midi": 57,
      "hit": false,
      "t": 153400.00000000003,
      "d": 95.83333333334303,
      "v": 3
    },
    {
      "midi": 45,
      "hit": false,
      "t": 153600.00000000006,
      "d": 300,
      "v": 93
    },
    {
      "midi": 57,
      "hit": false,
      "t": 153600.00000000006,
      "d": 500,
      "v": 69
    },
    {
      "midi": 64,
      "hit": false,
      "t": 153600.00000000006,
      "d": 600,
      "v": 81
    },
    {
      "midi": 45,
      "hit": false,
      "t": 154000.00000000006,
      "d": 600,
      "v": 127
    },
    {
      "midi": 57,
      "hit": false,
      "t": 154400.00000000006,
      "d": 400,
      "v": 74
    },
    {
      "midi": 69,
      "hit": false,
      "t": 154400.00000000006,
      "d": 400,
      "v": 111
    },
    {
      "midi": 61,
      "hit": false,
      "t": 154400.00000000006,
      "d": 500,
      "v": 126
    },
    {
      "midi": 64,
      "hit": false,
      "t": 154400.00000000006,
      "d": 500,
      "v": 111
    },
    {
      "midi": 45,
      "hit": false,
      "t": 154800.00000000006,
      "d": 300,
      "v": 89
    },
    {
      "midi": 57,
      "hit": false,
      "t": 155000.00000000006,
      "d": 200,
      "v": 77
    },
    {
      "midi": 61,
      "hit": false,
      "t": 155000.00000000006,
      "d": 200,
      "v": 74
    },
    {
      "midi": 64,
      "hit": false,
      "t": 155000.00000000006,
      "d": 300,
      "v": 89
    },
    {
      "midi": 69,
      "hit": false,
      "t": 155000.00000000006,
      "d": 300,
      "v": 79
    },
    {
      "midi": 45,
      "hit": false,
      "t": 155200.00000000006,
      "d": 200,
      "v": 91
    },
    {
      "midi": 57,
      "hit": false,
      "t": 155400.00000000006,
      "d": 400,
      "v": 89
    },
    {
      "midi": 69,
      "hit": false,
      "t": 155400.00000000006,
      "d": 400,
      "v": 89
    },
    {
      "midi": 64,
      "hit": false,
      "t": 155400.00000000006,
      "d": 500,
      "v": 77
    },
    {
      "midi": 45,
      "hit": false,
      "t": 155600.00000000006,
      "d": 500,
      "v": 124
    },
    {
      "midi": 57,
      "hit": false,
      "t": 156000.00000000006,
      "d": 400,
      "v": 86
    },
    {
      "midi": 61,
      "hit": false,
      "t": 156000.00000000006,
      "d": 400,
      "v": 123
    },
    {
      "midi": 69,
      "hit": false,
      "t": 156000.00000000006,
      "d": 400,
      "v": 79
    },
    {
      "midi": 64,
      "hit": false,
      "t": 156000.00000000006,
      "d": 500,
      "v": 96
    },
    {
      "midi": 45,
      "hit": false,
      "t": 156400.00000000006,
      "d": 200,
      "v": 108
    },
    {
      "midi": 57,
      "hit": false,
      "t": 156600.00000000006,
      "d": 800,
      "v": 96
    },
    {
      "midi": 61,
      "hit": false,
      "t": 156600.00000000006,
      "d": 800,
      "v": 93
    },
    {
      "midi": 64,
      "hit": false,
      "t": 156600.00000000006,
      "d": 800,
      "v": 81
    },
    {
      "midi": 69,
      "hit": false,
      "t": 156600.00000000006,
      "d": 800,
      "v": 86
    },
    {
      "midi": 45,
      "hit": false,
      "t": 156800.00000000006,
      "d": 200,
      "v": 127
    },
    {
      "midi": 45,
      "hit": false,
      "t": 157200.00000000006,
      "d": 600,
      "v": 127
    },
    {
      "midi": 69,
      "hit": false,
      "t": 157600.00000000006,
      "d": 400,
      "v": 117
    },
    {
      "midi": 57,
      "hit": false,
      "t": 157600.00000000006,
      "d": 500,
      "v": 108
    },
    {
      "midi": 61,
      "hit": false,
      "t": 157600.00000000006,
      "d": 500,
      "v": 127
    },
    {
      "midi": 64,
      "hit": false,
      "t": 157600.00000000006,
      "d": 500,
      "v": 127
    },
    {
      "midi": 45,
      "hit": false,
      "t": 158000.00000000006,
      "d": 200,
      "v": 96
    },
    {
      "midi": 57,
      "hit": false,
      "t": 158200.00000000006,
      "d": 300,
      "v": 84
    },
    {
      "midi": 61,
      "hit": false,
      "t": 158200.00000000006,
      "d": 300,
      "v": 77
    },
    {
      "midi": 64,
      "hit": false,
      "t": 158200.00000000006,
      "d": 300,
      "v": 74
    },
    {
      "midi": 69,
      "hit": false,
      "t": 158200.00000000006,
      "d": 300,
      "v": 84
    },
    {
      "midi": 45,
      "hit": false,
      "t": 158400.00000000006,
      "d": 200,
      "v": 108
    },
    {
      "midi": 57,
      "hit": false,
      "t": 158600.00000000006,
      "d": 300,
      "v": 99
    },
    {
      "midi": 61,
      "hit": false,
      "t": 158600.00000000006,
      "d": 400,
      "v": 117
    },
    {
      "midi": 64,
      "hit": false,
      "t": 158600.00000000006,
      "d": 400,
      "v": 108
    },
    {
      "midi": 69,
      "hit": false,
      "t": 158600.00000000006,
      "d": 400,
      "v": 96
    },
    {
      "midi": 45,
      "hit": false,
      "t": 158800.00000000006,
      "d": 600,
      "v": 127
    },
    {
      "midi": 57,
      "hit": false,
      "t": 159000.00000000006,
      "d": 95.83333333334303,
      "v": 35
    },
    {
      "midi": 57,
      "hit": false,
      "t": 159200.00000000006,
      "d": 300,
      "v": 127
    },
    {
      "midi": 61,
      "hit": false,
      "t": 159200.00000000006,
      "d": 300,
      "v": 123
    },
    {
      "midi": 64,
      "hit": false,
      "t": 159200.00000000006,
      "d": 300,
      "v": 123
    },
    {
      "midi": 69,
      "hit": false,
      "t": 159200.00000000006,
      "d": 300,
      "v": 111
    },
    {
      "midi": 45,
      "hit": false,
      "t": 159600.00000000006,
      "d": 200,
      "v": 84
    },
    {
      "midi": 55,
      "hit": false,
      "t": 159800.00000000006,
      "d": 95.83333333334303,
      "v": 35
    },
    {
      "midi": 43,
      "hit": false,
      "t": 160000.0000000001,
      "d": 200,
      "v": 102
    },
    {
      "midi": 55,
      "hit": false,
      "t": 160000.0000000001,
      "d": 500,
      "v": 125
    },
    {
      "midi": 67,
      "hit": false,
      "t": 160000.0000000001,
      "d": 500,
      "v": 111
    },
    {
      "midi": 59,
      "hit": false,
      "t": 160000.0000000001,
      "d": 600,
      "v": 114
    },
    {
      "midi": 62,
      "hit": false,
      "t": 160000.0000000001,
      "d": 600,
      "v": 105
    },
    {
      "midi": 43,
      "hit": false,
      "t": 160400.0000000001,
      "d": 600,
      "v": 120
    },
    {
      "midi": 55,
      "hit": false,
      "t": 160800.0000000001,
      "d": 400,
      "v": 105
    },
    {
      "midi": 59,
      "hit": false,
      "t": 160800.0000000001,
      "d": 400,
      "v": 124
    },
    {
      "midi": 62,
      "hit": false,
      "t": 160800.0000000001,
      "d": 400,
      "v": 123
    },
    {
      "midi": 67,
      "hit": false,
      "t": 160800.0000000001,
      "d": 400,
      "v": 89
    },
    {
      "midi": 43,
      "hit": false,
      "t": 161200.0000000001,
      "d": 300,
      "v": 89
    },
    {
      "midi": 55,
      "hit": false,
      "t": 161400.0000000001,
      "d": 600,
      "v": 125
    },
    {
      "midi": 62,
      "hit": false,
      "t": 161400.0000000001,
      "d": 600,
      "v": 89
    },
    {
      "midi": 67,
      "hit": false,
      "t": 161400.0000000001,
      "d": 600,
      "v": 93
    },
    {
      "midi": 59,
      "hit": false,
      "t": 161400.0000000001,
      "d": 700,
      "v": 108
    },
    {
      "midi": 43,
      "hit": false,
      "t": 161600.0000000001,
      "d": 200,
      "v": 102
    },
    {
      "midi": 43,
      "hit": false,
      "t": 162000.0000000001,
      "d": 200,
      "v": 117
    },
    {
      "midi": 55,
      "hit": false,
      "t": 162200.0000000001,
      "d": 400,
      "v": 77
    },
    {
      "midi": 59,
      "hit": false,
      "t": 162200.0000000001,
      "d": 500,
      "v": 102
    },
    {
      "midi": 62,
      "hit": false,
      "t": 162200.0000000001,
      "d": 500,
      "v": 99
    },
    {
      "midi": 67,
      "hit": false,
      "t": 162200.0000000001,
      "d": 500,
      "v": 89
    },
    {
      "midi": 43,
      "hit": false,
      "t": 162400.0000000001,
      "d": 200,
      "v": 93
    },
    {
      "midi": 43,
      "hit": false,
      "t": 162800.0000000001,
      "d": 200,
      "v": 74
    },
    {
      "midi": 38,
      "hit": false,
      "t": 163200.0000000001,
      "d": 300.0000000000291,
      "v": 96
    },
    {
      "midi": 50,
      "hit": false,
      "t": 163200.0000000001,
      "d": 600.0000000000291,
      "v": 111
    },
    {
      "midi": 54,
      "hit": false,
      "t": 163200.0000000001,
      "d": 600.0000000000291,
      "v": 111
    },
    {
      "midi": 57,
      "hit": false,
      "t": 163200.0000000001,
      "d": 600.0000000000291,
      "v": 96
    },
    {
      "midi": 38,
      "hit": false,
      "t": 163600.00000000012,
      "d": 200,
      "v": 84
    },
    {
      "midi": 38,
      "hit": false,
      "t": 164000.00000000012,
      "d": 200,
      "v": 81
    },
    {
      "midi": 50,
      "hit": false,
      "t": 164000.00000000012,
      "d": 400,
      "v": 105
    },
    {
      "midi": 54,
      "hit": false,
      "t": 164000.00000000012,
      "d": 400,
      "v": 108
    },
    {
      "midi": 57,
      "hit": false,
      "t": 164000.00000000012,
      "d": 400,
      "v": 126
    },
    {
      "midi": 62,
      "hit": false,
      "t": 164000.00000000012,
      "d": 400,
      "v": 124
    },
    {
      "midi": 38,
      "hit": false,
      "t": 164400.00000000012,
      "d": 200,
      "v": 77
    },
    {
      "midi": 50,
      "hit": false,
      "t": 164600.00000000012,
      "d": 600,
      "v": 93
    },
    {
      "midi": 62,
      "hit": false,
      "t": 164600.00000000012,
      "d": 600,
      "v": 81
    },
    {
      "midi": 54,
      "hit": false,
      "t": 164600.00000000012,
      "d": 700,
      "v": 111
    },
    {
      "midi": 57,
      "hit": false,
      "t": 164600.00000000012,
      "d": 700,
      "v": 96
    },
    {
      "midi": 38,
      "hit": false,
      "t": 164800.00000000012,
      "d": 95.83333333334303,
      "v": 86
    },
    {
      "midi": 38,
      "hit": false,
      "t": 165200.00000000012,
      "d": 200,
      "v": 77
    },
    {
      "midi": 50,
      "hit": false,
      "t": 165400.00000000012,
      "d": 300,
      "v": 99
    },
    {
      "midi": 54,
      "hit": false,
      "t": 165400.00000000012,
      "d": 300,
      "v": 96
    },
    {
      "midi": 57,
      "hit": false,
      "t": 165400.00000000012,
      "d": 400,
      "v": 86
    },
    {
      "midi": 62,
      "hit": false,
      "t": 165400.00000000012,
      "d": 400,
      "v": 74
    },
    {
      "midi": 38,
      "hit": false,
      "t": 165600.00000000012,
      "d": 200,
      "v": 105
    },
    {
      "midi": 38,
      "hit": false,
      "t": 166000.00000000012,
      "d": 200,
      "v": 74
    },
    {
      "midi": 52,
      "hit": false,
      "t": 166200.00000000012,
      "d": 95.83333333334303,
      "v": 39
    },
    {
      "midi": 40,
      "hit": false,
      "t": 166400.00000000012,
      "d": 200,
      "v": 117
    },
    {
      "midi": 52,
      "hit": false,
      "t": 166400.00000000012,
      "d": 200,
      "v": 127
    },
    {
      "midi": 56,
      "hit": false,
      "t": 166400.00000000012,
      "d": 300,
      "v": 102
    },
    {
      "midi": 59,
      "hit": false,
      "t": 166400.00000000012,
      "d": 300,
      "v": 89
    },
    {
      "midi": 64,
      "hit": false,
      "t": 166400.00000000012,
      "d": 300,
      "v": 84
    },
    {
      "midi": 40,
      "hit": false,
      "t": 166800.00000000012,
      "d": 200,
      "v": 55
    },
    {
      "midi": 52,
      "hit": false,
      "t": 166800.00000000012,
      "d": 200,
      "v": 61
    },
    {
      "midi": 56,
      "hit": false,
      "t": 166800.00000000012,
      "d": 200,
      "v": 72
    },
    {
      "midi": 59,
      "hit": false,
      "t": 166800.00000000012,
      "d": 200,
      "v": 55
    },
    {
      "midi": 64,
      "hit": false,
      "t": 166800.00000000012,
      "d": 200,
      "v": 35
    },
    {
      "midi": 40,
      "hit": false,
      "t": 167200.00000000012,
      "d": 200,
      "v": 84
    },
    {
      "midi": 52,
      "hit": false,
      "t": 167200.00000000012,
      "d": 200,
      "v": 55
    },
    {
      "midi": 56,
      "hit": false,
      "t": 167200.00000000012,
      "d": 200,
      "v": 61
    },
    {
      "midi": 59,
      "hit": false,
      "t": 167200.00000000012,
      "d": 200,
      "v": 55
    },
    {
      "midi": 64,
      "hit": false,
      "t": 167200.00000000012,
      "d": 200,
      "v": 58
    },
    {
      "midi": 40,
      "hit": false,
      "t": 167600.00000000012,
      "d": 95.83333333334303,
      "v": 84
    },
    {
      "midi": 52,
      "hit": false,
      "t": 167600.00000000012,
      "d": 200,
      "v": 74
    },
    {
      "midi": 56,
      "hit": false,
      "t": 167600.00000000012,
      "d": 200,
      "v": 66
    },
    {
      "midi": 59,
      "hit": false,
      "t": 167600.00000000012,
      "d": 200,
      "v": 74
    },
    {
      "midi": 64,
      "hit": false,
      "t": 167600.00000000012,
      "d": 200,
      "v": 64
    },
    {
      "midi": 52,
      "hit": false,
      "t": 168000.00000000012,
      "d": 95.83333333334303,
      "v": 35
    },
    {
      "midi": 56,
      "hit": false,
      "t": 168000.00000000012,
      "d": 95.83333333334303,
      "v": 39
    },
    {
      "midi": 59,
      "hit": false,
      "t": 168000.00000000012,
      "d": 95.83333333334303,
      "v": 39
    },
    {
      "midi": 64,
      "hit": false,
      "t": 168000.00000000012,
      "d": 95.83333333334303,
      "v": 30
    },
    {
      "midi": 52,
      "hit": false,
      "t": 168400.00000000012,
      "d": 900,
      "v": 111
    },
    {
      "midi": 56,
      "hit": false,
      "t": 168400.00000000012,
      "d": 900,
      "v": 72
    },
    {
      "midi": 59,
      "hit": false,
      "t": 168400.00000000012,
      "d": 900,
      "v": 93
    },
    {
      "midi": 64,
      "hit": false,
      "t": 168400.00000000012,
      "d": 900,
      "v": 79
    },
    {
      "midi": 40,
      "hit": false,
      "t": 168800.00000000012,
      "d": 200,
      "v": 102
    },
    {
      "midi": 40,
      "hit": false,
      "t": 169200.00000000012,
      "d": 600,
      "v": 89
    },
    {
      "midi": 52,
      "hit": false,
      "t": 169600.00000000012,
      "d": 1000,
      "v": 93
    },
    {
      "midi": 56,
      "hit": false,
      "t": 169600.00000000012,
      "d": 1200,
      "v": 117
    },
    {
      "midi": 59,
      "hit": false,
      "t": 169600.00000000012,
      "d": 1300,
      "v": 124
    },
    {
      "midi": 64,
      "hit": false,
      "t": 169600.00000000012,
      "d": 1300,
      "v": 89
    },
    {
      "midi": 40,
      "hit": false,
      "t": 170000.00000000012,
      "d": 95.83333333334303,
      "v": 58
    },
    {
      "midi": 40,
      "hit": false,
      "t": 170400.00000000012,
      "d": 200,
      "v": 74
    },
    {
      "midi": 52,
      "hit": false,
      "t": 170800.00000000012,
      "d": 95.83333333334303,
      "v": 30
    },
    {
      "midi": 40,
      "hit": false,
      "t": 170800.00000000012,
      "d": 600,
      "v": 89
    },
    {
      "midi": 52,
      "hit": false,
      "t": 171200.00000000012,
      "d": 500,
      "v": 111
    },
    {
      "midi": 56,
      "hit": false,
      "t": 171200.00000000012,
      "d": 500,
      "v": 81
    },
    {
      "midi": 59,
      "hit": false,
      "t": 171200.00000000012,
      "d": 500,
      "v": 93
    },
    {
      "midi": 64,
      "hit": false,
      "t": 171200.00000000012,
      "d": 500,
      "v": 77
    },
    {
      "midi": 40,
      "hit": false,
      "t": 171600.00000000012,
      "d": 95.83333333334303,
      "v": 55
    },
    {
      "midi": 52,
      "hit": false,
      "t": 172000.00000000012,
      "d": 95.83333333334303,
      "v": 79
    },
    {
      "midi": 40,
      "hit": false,
      "t": 172000.00000000012,
      "d": 200,
      "v": 86
    },
    {
      "midi": 56,
      "hit": false,
      "t": 172000.00000000012,
      "d": 200,
      "v": 72
    },
    {
      "midi": 59,
      "hit": false,
      "t": 172000.00000000012,
      "d": 200,
      "v": 93
    },
    {
      "midi": 64,
      "hit": false,
      "t": 172000.00000000012,
      "d": 200,
      "v": 84
    },
    {
      "midi": 40,
      "hit": false,
      "t": 172400.00000000012,
      "d": 95.83333333334303,
      "v": 58
    },
    {
      "midi": 45,
      "hit": false,
      "t": 172800.00000000012,
      "d": 1199.999999999971,
      "v": 108
    },
    {
      "midi": 57,
      "hit": false,
      "t": 172800.00000000012,
      "d": 1899.999999999971,
      "v": 86
    },
    {
      "midi": 61,
      "hit": false,
      "t": 172800.00000000012,
      "d": 1899.999999999971,
      "v": 84
    },
    {
      "midi": 64,
      "hit": false,
      "t": 172800.00000000012,
      "d": 1899.999999999971,
      "v": 86
    },
    {
      "midi": 69,
      "hit": false,
      "t": 172800.00000000012,
      "d": 1899.999999999971,
      "v": 69
    },
    {
      "midi": 45,
      "hit": false,
      "t": 256020.83333333343,
      "d": 3008.333333333343,
      "v": 79
    },
    {
      "midi": 57,
      "hit": false,
      "t": 256025.0000000001,
      "d": 2562.5,
      "v": 79
    },
    {
      "midi": 69,
      "hit": false,
      "t": 256029.16666666674,
      "d": 2187.5,
      "v": 74
    },
    {
      "midi": 61,
      "hit": false,
      "t": 256033.3333333334,
      "d": 2154.166666666686,
      "v": 81
    },
    {
      "midi": 64,
      "hit": false,
      "t": 256033.3333333334,
      "d": 2170.833333333343,
      "v": 96
    },
    {
      "midi": 61,
      "hit": false,
      "t": 258595.83333333343,
      "d": 291.66666666665697,
      "v": 79
    },
    {
      "midi": 69,
      "hit": false,
      "t": 258595.83333333343,
      "d": 454.16666666668607,
      "v": 93
    },
    {
      "midi": 64,
      "hit": false,
      "t": 258600.0000000001,
      "d": 437.5000000000291,
      "v": 66
    },
    {
      "midi": 57,
      "hit": false,
      "t": 258833.33333333343,
      "d": 675,
      "v": 117
    },
    {
      "midi": 61,
      "hit": false,
      "t": 259020.83333333343,
      "d": 625,
      "v": 39
    },
    {
      "midi": 69,
      "hit": false,
      "t": 259216.66666666677,
      "d": 450,
      "v": 89
    },
    {
      "midi": 64,
      "hit": false,
      "t": 259216.66666666677,
      "d": 466.66666666665697,
      "v": 84
    },
    {
      "midi": 45,
      "hit": false,
      "t": 259220.83333333343,
      "d": 1008.333333333343,
      "v": 74
    },
    {
      "midi": 57,
      "hit": false,
      "t": 259604.16666666677,
      "d": 212.5,
      "v": 64
    },
    {
      "midi": 61,
      "hit": false,
      "t": 259816.66666666677,
      "d": 383.33333333334303,
      "v": 69
    },
    {
      "midi": 64,
      "hit": false,
      "t": 259816.66666666677,
      "d": 408.33333333334303,
      "v": 79
    },
    {
      "midi": 69,
      "hit": false,
      "t": 259816.66666666677,
      "d": 420.83333333334303,
      "v": 89
    },
    {
      "midi": 57,
      "hit": false,
      "t": 260016.66666666677,
      "d": 641.666666666657,
      "v": 43
    },
    {
      "midi": 69,
      "hit": false,
      "t": 260437.50000000012,
      "d": 437.4999999999709,
      "v": 84
    },
    {
      "midi": 45,
      "hit": false,
      "t": 260441.66666666677,
      "d": 1637.4999999999127,
      "v": 72
    },
    {
      "midi": 64,
      "hit": false,
      "t": 260445.83333333343,
      "d": 441.66666666665697,
      "v": 89
    },
    {
      "midi": 61,
      "hit": false,
      "t": 260450.0000000001,
      "d": 429.16666666665697,
      "v": 84
    },
    {
      "midi": 57,
      "hit": false,
      "t": 260820.83333333343,
      "d": 229.16666666662786,
      "v": 64
    },
    {
      "midi": 69,
      "hit": false,
      "t": 261025.0000000001,
      "d": 345.83333333331393,
      "v": 86
    },
    {
      "midi": 64,
      "hit": false,
      "t": 261029.16666666674,
      "d": 329.16666666665697,
      "v": 96
    },
    {
      "midi": 61,
      "hit": false,
      "t": 261033.3333333334,
      "d": 312.5,
      "v": 74
    },
    {
      "midi": 57,
      "hit": false,
      "t": 261237.50000000006,
      "d": 591.666666666657,
      "v": 79
    },
    {
      "midi": 69,
      "hit": false,
      "t": 261637.50000000006,
      "d": 441.66666666662786,
      "v": 96
    },
    {
      "midi": 64,
      "hit": false,
      "t": 261641.66666666672,
      "d": 404.16666666665697,
      "v": 96
    },
    {
      "midi": 61,
      "hit": false,
      "t": 261645.83333333337,
      "d": 404.16666666665697,
      "v": 96
    },
    {
      "midi": 57,
      "hit": false,
      "t": 262016.66666666672,
      "d": 116.66666666662786,
      "v": 64
    },
    {
      "midi": 55,
      "hit": false,
      "t": 262425,
      "d": 1941.666666666686,
      "v": 77
    },
    {
      "midi": 59,
      "hit": false,
      "t": 262425,
      "d": 2058.333333333372,
      "v": 102
    },
    {
      "midi": 62,
      "hit": false,
      "t": 262425,
      "d": 2091.6666666667443,
      "v": 89
    },
    {
      "midi": 69,
      "hit": false,
      "t": 262429.1666666667,
      "d": 2083.333333333372,
      "v": 111
    },
    {
      "midi": 67,
      "hit": false,
      "t": 262433.3333333334,
      "d": 2087.500000000058,
      "v": 96
    },
    {
      "midi": 43,
      "hit": false,
      "t": 262433.3333333334,
      "d": 2904.1666666668025,
      "v": 86
    },
    {
      "midi": 55,
      "hit": false,
      "t": 264587.5000000001,
      "d": 437.5,
      "v": 55
    },
    {
      "midi": 62,
      "hit": false,
      "t": 264808.33333333343,
      "d": 108.33333333331393,
      "v": 69
    },
    {
      "midi": 67,
      "hit": false,
      "t": 264808.33333333343,
      "d": 108.33333333331393,
      "v": 66
    },
    {
      "midi": 69,
      "hit": false,
      "t": 264808.33333333343,
      "d": 112.5,
      "v": 77
    },
    {
      "midi": 59,
      "hit": false,
      "t": 264812.5000000001,
      "d": 95.83333333331393,
      "v": 89
    },
    {
      "midi": 59,
      "hit": false,
      "t": 265000.0000000001,
      "d": 204.16666666668607,
      "v": 89
    },
    {
      "midi": 67,
      "hit": false,
      "t": 265000.0000000001,
      "d": 216.66666666668607,
      "v": 111
    },
    {
      "midi": 62,
      "hit": false,
      "t": 265000.0000000001,
      "d": 237.5000000000582,
      "v": 81
    },
    {
      "midi": 69,
      "hit": false,
      "t": 265004.1666666668,
      "d": 216.66666666668607,
      "v": 99
    },
    {
      "midi": 55,
      "hit": false,
      "t": 265216.6666666668,
      "d": 120.83333333337214,
      "v": 111
    },
    {
      "midi": 57,
      "hit": false,
      "t": 265433.3333333335,
      "d": 1174.9999999999418,
      "v": 39
    },
    {
      "midi": 62,
      "hit": false,
      "t": 265600.0000000001,
      "d": 1304.166666666686,
      "v": 84
    },
    {
      "midi": 69,
      "hit": false,
      "t": 265604.1666666668,
      "d": 1300,
      "v": 74
    },
    {
      "midi": 66,
      "hit": false,
      "t": 265604.1666666668,
      "d": 1312.5,
      "v": 77
    },
    {
      "midi": 38,
      "hit": false,
      "t": 265625.0000000001,
      "d": 2908.333333333372,
      "v": 93
    },
    {
      "midi": 50,
      "hit": false,
      "t": 266450.0000000001,
      "d": 483.33333333337214,
      "v": 72
    },
    {
      "midi": 57,
      "hit": false,
      "t": 266825.0000000001,
      "d": 220.83333333337214,
      "v": 22
    },
    {
      "midi": 50,
      "hit": false,
      "t": 267216.6666666668,
      "d": 254.16666666668607,
      "v": 84
    },
    {
      "midi": 57,
      "hit": false,
      "t": 267216.6666666668,
      "d": 437.5,
      "v": 96
    },
    {
      "midi": 69,
      "hit": false,
      "t": 267216.6666666668,
      "d": 512.5,
      "v": 72
    },
    {
      "midi": 62,
      "hit": false,
      "t": 267216.6666666668,
      "d": 520.8333333333139,
      "v": 74
    },
    {
      "midi": 66,
      "hit": false,
      "t": 267216.6666666668,
      "d": 541.6666666666279,
      "v": 84
    },
    {
      "midi": 50,
      "hit": false,
      "t": 267666.6666666668,
      "d": 179.16666666662786,
      "v": 48
    },
    {
      "midi": 62,
      "hit": false,
      "t": 268033.33333333343,
      "d": 408.33333333337214,
      "v": 79
    },
    {
      "midi": 69,
      "hit": false,
      "t": 268033.33333333343,
      "d": 483.33333333337214,
      "v": 79
    },
    {
      "midi": 50,
      "hit": false,
      "t": 268037.5000000001,
      "d": 195.83333333331393,
      "v": 66
    },
    {
      "midi": 57,
      "hit": false,
      "t": 268037.5000000001,
      "d": 379.16666666668607,
      "v": 96
    },
    {
      "midi": 66,
      "hit": false,
      "t": 268037.5000000001,
      "d": 466.66666666668607,
      "v": 72
    },
    {
      "midi": 50,
      "hit": false,
      "t": 268412.5000000001,
      "d": 150.0000000000582,
      "v": 64
    },
    {
      "midi": 68,
      "hit": false,
      "t": 268800.0000000002,
      "d": 545.8333333334886,
      "v": 58
    },
    {
      "midi": 59,
      "hit": false,
      "t": 268808.33333333355,
      "d": 404.1666666667443,
      "v": 58
    },
    {
      "midi": 52,
      "hit": false,
      "t": 268812.50000000023,
      "d": 675.0000000001164,
      "v": 64
    },
    {
      "midi": 64,
      "hit": false,
      "t": 268816.6666666669,
      "d": 475.0000000000582,
      "v": 69
    },
    {
      "midi": 40,
      "hit": false,
      "t": 268816.6666666669,
      "d": 2941.666666666628,
      "v": 55
    },
    {
      "midi": 59,
      "hit": false,
      "t": 269645.83333333366,
      "d": 254.16666666668607,
      "v": 74
    },
    {
      "midi": 52,
      "hit": false,
      "t": 269650.00000000035,
      "d": 141.66666666668607,
      "v": 58
    },
    {
      "midi": 69,
      "hit": false,
      "t": 269650.00000000035,
      "d": 270.83333333331393,
      "v": 84
    },
    {
      "midi": 64,
      "hit": false,
      "t": 269650.00000000035,
      "d": 283.33333333331393,
      "v": 77
    },
    {
      "midi": 52,
      "hit": false,
      "t": 270012.50000000035,
      "d": 170.83333333331393,
      "v": 39
    },
    {
      "midi": 52,
      "hit": false,
      "t": 270404.166666667,
      "d": 212.5,
      "v": 72
    },
    {
      "midi": 59,
      "hit": false,
      "t": 270416.666666667,
      "d": 416.66666666662786,
      "v": 89
    },
    {
      "midi": 69,
      "hit": false,
      "t": 270416.666666667,
      "d": 429.16666666662786,
      "v": 102
    },
    {
      "midi": 64,
      "hit": false,
      "t": 270416.666666667,
      "d": 441.66666666662786,
      "v": 89
    },
    {
      "midi": 52,
      "hit": false,
      "t": 270787.5000000003,
      "d": 195.83333333331393,
      "v": 55
    },
    {
      "midi": 52,
      "hit": false,
      "t": 271204.1666666669,
      "d": 216.66666666668607,
      "v": 64
    },
    {
      "midi": 59,
      "hit": false,
      "t": 271216.6666666669,
      "d": 337.5,
      "v": 79
    },
    {
      "midi": 64,
      "hit": false,
      "t": 271216.6666666669,
      "d": 383.33333333331393,
      "v": 84
    },
    {
      "midi": 69,
      "hit": false,
      "t": 271216.6666666669,
      "d": 491.66666666662786,
      "v": 84
    },
    {
      "midi": 52,
      "hit": false,
      "t": 271608.33333333355,
      "d": 666.6666666666861,
      "v": 69
    },
    {
      "midi": 59,
      "hit": false,
      "t": 271800.00000000023,
      "d": 683.3333333333139,
      "v": 35
    },
    {
      "midi": 68,
      "hit": false,
      "t": 272016.6666666669,
      "d": 466.66666666662786,
      "v": 74
    },
    {
      "midi": 64,
      "hit": false,
      "t": 272020.8333333336,
      "d": 474.9999999999418,
      "v": 66
    },
    {
      "midi": 40,
      "hit": false,
      "t": 272029.1666666669,
      "d": 2875,
      "v": 84
    },
    {
      "midi": 52,
      "hit": false,
      "t": 272395.83333333355,
      "d": 191.66666666668607,
      "v": 58
    },
    {
      "midi": 52,
      "hit": false,
      "t": 272833.33333333355,
      "d": 208.33333333337214,
      "v": 79
    },
    {
      "midi": 59,
      "hit": false,
      "t": 272837.50000000023,
      "d": 404.16666666668607,
      "v": 77
    },
    {
      "midi": 68,
      "hit": false,
      "t": 272837.50000000023,
      "d": 412.5,
      "v": 77
    },
    {
      "midi": 64,
      "hit": false,
      "t": 272841.6666666669,
      "d": 416.66666666662786,
      "v": 77
    },
    {
      "midi": 52,
      "hit": false,
      "t": 273216.6666666669,
      "d": 137.4999999999418,
      "v": 58
    },
    {
      "midi": 52,
      "hit": false,
      "t": 273612.5000000002,
      "d": 204.16666666668607,
      "v": 79
    },
    {
      "midi": 64,
      "hit": false,
      "t": 273616.66666666686,
      "d": 420.83333333331393,
      "v": 74
    },
    {
      "midi": 68,
      "hit": false,
      "t": 273616.66666666686,
      "d": 441.66666666662786,
      "v": 77
    },
    {
      "midi": 59,
      "hit": false,
      "t": 273620.83333333355,
      "d": 474.9999999999418,
      "v": 84
    },
    {
      "midi": 52,
      "hit": false,
      "t": 273966.66666666686,
      "d": 170.83333333331393,
      "v": 39
    },
    {
      "midi": 52,
      "hit": false,
      "t": 274416.66666666686,
      "d": 183.33333333337214,
      "v": 89
    },
    {
      "midi": 68,
      "hit": false,
      "t": 274416.66666666686,
      "d": 220.83333333337214,
      "v": 84
    },
    {
      "midi": 64,
      "hit": false,
      "t": 274416.66666666686,
      "d": 233.33333333337214,
      "v": 96
    },
    {
      "midi": 59,
      "hit": false,
      "t": 274420.83333333355,
      "d": 258.33333333337214,
      "v": 102
    },
    {
      "midi": 52,
      "hit": false,
      "t": 274829.1666666669,
      "d": 50,
      "v": 43
    },
    {
      "midi": 52,
      "hit": false,
      "t": 275054.1666666669,
      "d": 54.16666666668607,
      "v": 8
    },
    {
      "midi": 45,
      "hit": false,
      "t": 275208.3333333336,
      "d": 1029.166666666686,
      "v": 96
    },
    {
      "midi": 57,
      "hit": false,
      "t": 275208.3333333336,
      "d": 1175,
      "v": 74
    },
    {
      "midi": 61,
      "hit": false,
      "t": 275212.5000000003,
      "d": 1175,
      "v": 79
    },
    {
      "midi": 64,
      "hit": false,
      "t": 275212.5000000003,
      "d": 1187.5,
      "v": 79
    },
    {
      "midi": 45,
      "hit": false,
      "t": 276375.0000000003,
      "d": 575.0000000000582,
      "v": 39
    },
    {
      "midi": 64,
      "hit": false,
      "t": 276583.3333333336,
      "d": 216.66666666674428,
      "v": 84
    },
    {
      "midi": 57,
      "hit": false,
      "t": 276587.5000000003,
      "d": 208.33333333337214,
      "v": 81
    },
    {
      "midi": 61,
      "hit": false,
      "t": 276591.666666667,
      "d": 208.33333333337214,
      "v": 84
    },
    {
      "midi": 64,
      "hit": false,
      "t": 276995.83333333366,
      "d": 287.5000000000582,
      "v": 77
    },
    {
      "midi": 57,
      "hit": false,
      "t": 277000.00000000035,
      "d": 279.16666666668607,
      "v": 66
    },
    {
      "midi": 61,
      "hit": false,
      "t": 277000.00000000035,
      "d": 287.5000000000582,
      "v": 72
    },
    {
      "midi": 45,
      "hit": false,
      "t": 277204.16666666704,
      "d": 445.83333333343035,
      "v": 84
    },
    {
      "midi": 64,
      "hit": false,
      "t": 277604.1666666671,
      "d": 220.83333333337214,
      "v": 89
    },
    {
      "midi": 57,
      "hit": false,
      "t": 277608.3333333338,
      "d": 220.83333333337214,
      "v": 111
    },
    {
      "midi": 61,
      "hit": false,
      "t": 277608.3333333338,
      "d": 237.5000000000582,
      "v": 99
    },
    {
      "midi": 45,
      "hit": false,
      "t": 277979.16666666715,
      "d": 187.5,
      "v": 72
    },
    {
      "midi": 55,
      "hit": false,
      "t": 278183.33333333384,
      "d": 116.66666666668607,
      "v": 18
    },
    {
      "midi": 55,
      "hit": false,
      "t": 278387.5000000005,
      "d": 462.5000000000582,
      "v": 93
    },
    {
      "midi": 43,
      "hit": false,
      "t": 278391.6666666672,
      "d": 270.83333333337214,
      "v": 77
    },
    {
      "midi": 62,
      "hit": false,
      "t": 278395.8333333339,
      "d": 466.66666666668607,
      "v": 99
    },
    {
      "midi": 59,
      "hit": false,
      "t": 278400.0000000006,
      "d": 466.66666666668607,
      "v": 114
    },
    {
      "midi": 43,
      "hit": false,
      "t": 278795.8333333339,
      "d": 525.0000000000582,
      "v": 64
    },
    {
      "midi": 62,
      "hit": false,
      "t": 279216.66666666727,
      "d": 362.5000000000582,
      "v": 81
    },
    {
      "midi": 59,
      "hit": false,
      "t": 279220.83333333395,
      "d": 358.33333333337214,
      "v": 102
    },
    {
      "midi": 55,
      "hit": false,
      "t": 279225.00000000064,
      "d": 350,
      "v": 96
    },
    {
      "midi": 43,
      "hit": false,
      "t": 279583.333333334,
      "d": 270.83333333337214,
      "v": 55
    },
    {
      "midi": 55,
      "hit": false,
      "t": 279787.5000000007,
      "d": 216.66666666668607,
      "v": 72
    },
    {
      "midi": 62,
      "hit": false,
      "t": 279787.5000000007,
      "d": 220.83333333337214,
      "v": 86
    },
    {
      "midi": 59,
      "hit": false,
      "t": 279791.6666666674,
      "d": 229.16666666668607,
      "v": 93
    },
    {
      "midi": 43,
      "hit": false,
      "t": 279983.33333333407,
      "d": 216.66666666668607,
      "v": 61
    },
    {
      "midi": 59,
      "hit": false,
      "t": 280191.6666666674,
      "d": 316.66666666668607,
      "v": 102
    },
    {
      "midi": 55,
      "hit": false,
      "t": 280195.83333333407,
      "d": 287.5,
      "v": 74
    },
    {
      "midi": 62,
      "hit": false,
      "t": 280195.83333333407,
      "d": 304.16666666668607,
      "v": 89
    },
    {
      "midi": 43,
      "hit": false,
      "t": 280383.33333333407,
      "d": 512.5,
      "v": 72
    },
    {
      "midi": 62,
      "hit": false,
      "t": 280779.1666666674,
      "d": 270.83333333337214,
      "v": 102
    },
    {
      "midi": 55,
      "hit": false,
      "t": 280783.33333333407,
      "d": 266.66666666668607,
      "v": 102
    },
    {
      "midi": 59,
      "hit": false,
      "t": 280783.33333333407,
      "d": 275,
      "v": 105
    },
    {
      "midi": 43,
      "hit": false,
      "t": 281133.33333333407,
      "d": 100,
      "v": 51
    },
    {
      "midi": 57,
      "hit": false,
      "t": 281583.33333333407,
      "d": 483.33333333337214,
      "v": 111
    },
    {
      "midi": 61,
      "hit": false,
      "t": 281583.33333333407,
      "d": 500.0000000000582,
      "v": 89
    },
    {
      "midi": 42,
      "hit": false,
      "t": 281587.50000000076,
      "d": 225,
      "v": 74
    },
    {
      "midi": 54,
      "hit": false,
      "t": 281587.50000000076,
      "d": 458.33333333337214,
      "v": 81
    },
    {
      "midi": 42,
      "hit": false,
      "t": 281979.16666666744,
      "d": 550.0000000000582,
      "v": 84
    },
    {
      "midi": 61,
      "hit": false,
      "t": 282412.5000000008,
      "d": 395.83333333337214,
      "v": 77
    },
    {
      "midi": 54,
      "hit": false,
      "t": 282416.6666666675,
      "d": 375,
      "v": 79
    },
    {
      "midi": 57,
      "hit": false,
      "t": 282416.6666666675,
      "d": 391.66666666668607,
      "v": 96
    },
    {
      "midi": 64,
      "hit": false,
      "t": 282425.0000000008,
      "d": 379.16666666668607,
      "v": 77
    },
    {
      "midi": 42,
      "hit": false,
      "t": 282783.3333333342,
      "d": 245.83333333337214,
      "v": 58
    },
    {
      "midi": 64,
      "hit": false,
      "t": 283004.1666666675,
      "d": 220.83333333343035,
      "v": 66
    },
    {
      "midi": 61,
      "hit": false,
      "t": 283008.3333333342,
      "d": 237.5000000000582,
      "v": 72
    },
    {
      "midi": 57,
      "hit": false,
      "t": 283012.5000000009,
      "d": 237.5000000000582,
      "v": 79
    },
    {
      "midi": 54,
      "hit": false,
      "t": 283016.66666666756,
      "d": 216.66666666668607,
      "v": 86
    },
    {
      "midi": 42,
      "hit": false,
      "t": 283208.33333333425,
      "d": 175,
      "v": 64
    },
    {
      "midi": 57,
      "hit": false,
      "t": 283400.00000000093,
      "d": 316.66666666668607,
      "v": 84
    },
    {
      "midi": 61,
      "hit": false,
      "t": 283400.00000000093,
      "d": 329.16666666668607,
      "v": 84
    },
    {
      "midi": 54,
      "hit": false,
      "t": 283404.1666666676,
      "d": 300,
      "v": 74
    },
    {
      "midi": 64,
      "hit": false,
      "t": 283404.1666666676,
      "d": 312.5,
      "v": 66
    },
    {
      "midi": 42,
      "hit": false,
      "t": 283595.8333333343,
      "d": 516.6666666666279,
      "v": 89
    },
    {
      "midi": 61,
      "hit": false,
      "t": 284000.00000000093,
      "d": 300,
      "v": 96
    },
    {
      "midi": 57,
      "hit": false,
      "t": 284000.00000000093,
      "d": 337.5,
      "v": 124
    },
    {
      "midi": 54,
      "hit": false,
      "t": 284004.1666666676,
      "d": 316.66666666662786,
      "v": 102
    },
    {
      "midi": 64,
      "hit": false,
      "t": 284004.1666666676,
      "d": 316.66666666662786,
      "v": 114
    },
    {
      "midi": 42,
      "hit": false,
      "t": 284383.33333333425,
      "d": 104.16666666668607,
      "v": 51
    },
    {
      "midi": 60,
      "hit": false,
      "t": 284787.50000000093,
      "d": 329.16666666656965,
      "v": 96
    },
    {
      "midi": 53,
      "hit": false,
      "t": 284795.83333333425,
      "d": 279.16666666662786,
      "v": 96
    },
    {
      "midi": 57,
      "hit": false,
      "t": 284795.83333333425,
      "d": 287.4999999999418,
      "v": 108
    },
    {
      "midi": 41,
      "hit": false,
      "t": 284800.00000000093,
      "d": 229.16666666662786,
      "v": 89
    },
    {
      "midi": 41,
      "hit": false,
      "t": 285645.8333333342,
      "d": 129.16666666668607,
      "v": 30
    },
    {
      "midi": 41,
      "hit": false,
      "t": 286000.0000000009,
      "d": 83.33333333331393,
      "v": 48
    },
    {
      "midi": 43,
      "hit": false,
      "t": 286400.0000000009,
      "d": 229.16666666668607,
      "v": 105
    },
    {
      "midi": 55,
      "hit": false,
      "t": 286400.0000000009,
      "d": 258.33333333337214,
      "v": 96
    },
    {
      "midi": 59,
      "hit": false,
      "t": 286400.0000000009,
      "d": 266.66666666668607,
      "v": 117
    },
    {
      "midi": 62,
      "hit": false,
      "t": 286400.0000000009,
      "d": 275,
      "v": 93
    },
    {
      "midi": 43,
      "hit": false,
      "t": 286825.0000000009,
      "d": 533.3333333333721,
      "v": 51
    },
    {
      "midi": 67,
      "hit": false,
      "t": 286987.5000000009,
      "d": 100,
      "v": 84
    },
    {
      "midi": 62,
      "hit": false,
      "t": 286991.66666666756,
      "d": 91.66666666662786,
      "v": 79
    },
    {
      "midi": 59,
      "hit": false,
      "t": 287000.0000000009,
      "d": 87.5,
      "v": 72
    },
    {
      "midi": 59,
      "hit": false,
      "t": 287216.66666666756,
      "d": 350,
      "v": 123
    },
    {
      "midi": 67,
      "hit": false,
      "t": 287216.66666666756,
      "d": 491.66666666668607,
      "v": 93
    },
    {
      "midi": 62,
      "hit": false,
      "t": 287216.66666666756,
      "d": 495.83333333337214,
      "v": 127
    },
    {
      "midi": 43,
      "hit": false,
      "t": 287583.33333333425,
      "d": 116.66666666668607,
      "v": 89
    },
    {
      "midi": 59,
      "hit": false,
      "t": 287783.33333333425,
      "d": 83.33333333331393,
      "v": 35
    },
    {
      "midi": 45,
      "hit": false,
      "t": 288008.33333333425,
      "d": 2816.666666666686,
      "v": 89
    },
    {
      "midi": 61,
      "hit": false,
      "t": 288012.50000000093,
      "d": 454.16666666668607,
      "v": 96
    },
    {
      "midi": 57,
      "hit": false,
      "t": 288016.6666666676,
      "d": 416.66666666668607,
      "v": 89
    },
    {
      "midi": 64,
      "hit": false,
      "t": 288016.6666666676,
      "d": 500,
      "v": 111
    },
    {
      "midi": 57,
      "hit": false,
      "t": 288804.1666666676,
      "d": 229.16666666668607,
      "v": 84
    },
    {
      "midi": 61,
      "hit": false,
      "t": 288991.6666666676,
      "d": 104.16666666668607,
      "v": 69
    },
    {
      "midi": 57,
      "hit": false,
      "t": 289200.000000001,
      "d": 283.33333333331393,
      "v": 77
    },
    {
      "midi": 69,
      "hit": false,
      "t": 289383.3333333343,
      "d": 200,
      "v": 84
    },
    {
      "midi": 61,
      "hit": false,
      "t": 289395.8333333343,
      "d": 187.5,
      "v": 84
    },
    {
      "midi": 64,
      "hit": false,
      "t": 289395.8333333343,
      "d": 204.16666666662786,
      "v": 111
    },
    {
      "midi": 57,
      "hit": false,
      "t": 289591.6666666676,
      "d": 216.66666666662786,
      "v": 79
    },
    {
      "midi": 61,
      "hit": false,
      "t": 289783.33333333425,
      "d": 237.5,
      "v": 89
    },
    {
      "midi": 64,
      "hit": false,
      "t": 289783.33333333425,
      "d": 312.5,
      "v": 89
    },
    {
      "midi": 69,
      "hit": false,
      "t": 289783.33333333425,
      "d": 350,
      "v": 123
    },
    {
      "midi": 57,
      "hit": false,
      "t": 290008.33333333425,
      "d": 608.3333333333721,
      "v": 127
    },
    {
      "midi": 61,
      "hit": false,
      "t": 290204.16666666756,
      "d": 58.33333333331393,
      "v": 18
    },
    {
      "midi": 61,
      "hit": false,
      "t": 290404.16666666756,
      "d": 100,
      "v": 84
    },
    {
      "midi": 64,
      "hit": false,
      "t": 290404.16666666756,
      "d": 100,
      "v": 93
    },
    {
      "midi": 69,
      "hit": false,
      "t": 290408.33333333425,
      "d": 104.16666666662786,
      "v": 84
    },
    {
      "midi": 69,
      "hit": false,
      "t": 290591.66666666756,
      "d": 266.66666666668607,
      "v": 102
    },
    {
      "midi": 64,
      "hit": false,
      "t": 290595.83333333425,
      "d": 220.83333333337214,
      "v": 111
    },
    {
      "midi": 61,
      "hit": false,
      "t": 290600.00000000093,
      "d": 200,
      "v": 89
    },
    {
      "midi": 57,
      "hit": false,
      "t": 290800.00000000093,
      "d": 183.33333333331393,
      "v": 126
    },
    {
      "midi": 59,
      "hit": false,
      "t": 291000.00000000093,
      "d": 70.83333333331393,
      "v": 18
    },
    {
      "midi": 67,
      "hit": false,
      "t": 291191.6666666676,
      "d": 1120.8333333333721,
      "v": 96
    },
    {
      "midi": 69,
      "hit": false,
      "t": 291191.6666666676,
      "d": 1137.5000000000582,
      "v": 102
    },
    {
      "midi": 55,
      "hit": false,
      "t": 291195.8333333343,
      "d": 708.3333333333139,
      "v": 127
    },
    {
      "midi": 59,
      "hit": false,
      "t": 291195.8333333343,
      "d": 875,
      "v": 123
    },
    {
      "midi": 62,
      "hit": false,
      "t": 291195.8333333343,
      "d": 987.5,
      "v": 126
    },
    {
      "midi": 55,
      "hit": false,
      "t": 292041.6666666676,
      "d": 216.66666666668607,
      "v": 69
    },
    {
      "midi": 59,
      "hit": false,
      "t": 292233.3333333343,
      "d": 125.00000000005821,
      "v": 48
    },
    {
      "midi": 55,
      "hit": false,
      "t": 292387.50000000105,
      "d": 220.83333333331393,
      "v": 55
    },
    {
      "midi": 59,
      "hit": false,
      "t": 292583.33333333436,
      "d": 204.16666666668607,
      "v": 84
    },
    {
      "midi": 69,
      "hit": false,
      "t": 292587.50000000105,
      "d": 200,
      "v": 72
    },
    {
      "midi": 62,
      "hit": false,
      "t": 292587.50000000105,
      "d": 216.66666666662786,
      "v": 84
    },
    {
      "midi": 67,
      "hit": false,
      "t": 292587.50000000105,
      "d": 220.83333333331393,
      "v": 69
    },
    {
      "midi": 55,
      "hit": false,
      "t": 292795.83333333436,
      "d": 170.83333333331393,
      "v": 51
    },
    {
      "midi": 67,
      "hit": false,
      "t": 292979.1666666677,
      "d": 333.33333333331393,
      "v": 72
    },
    {
      "midi": 59,
      "hit": false,
      "t": 292983.33333333436,
      "d": 233.33333333331393,
      "v": 79
    },
    {
      "midi": 62,
      "hit": false,
      "t": 292983.33333333436,
      "d": 304.16666666662786,
      "v": 93
    },
    {
      "midi": 69,
      "hit": false,
      "t": 292983.33333333436,
      "d": 333.33333333331393,
      "v": 89
    },
    {
      "midi": 55,
      "hit": false,
      "t": 293191.6666666677,
      "d": 666.6666666667443,
      "v": 127
    },
    {
      "midi": 59,
      "hit": false,
      "t": 293416.6666666677,
      "d": 54.16666666668607,
      "v": 26
    },
    {
      "midi": 62,
      "hit": false,
      "t": 293595.83333333436,
      "d": 104.16666666668607,
      "v": 117
    },
    {
      "midi": 67,
      "hit": false,
      "t": 293595.83333333436,
      "d": 112.50000000005821,
      "v": 120
    },
    {
      "midi": 59,
      "hit": false,
      "t": 293600.00000000105,
      "d": 100,
      "v": 84
    },
    {
      "midi": 69,
      "hit": false,
      "t": 293600.00000000105,
      "d": 104.16666666668607,
      "v": 96
    },
    {
      "midi": 59,
      "hit": false,
      "t": 293795.8333333344,
      "d": 191.66666666668607,
      "v": 96
    },
    {
      "midi": 62,
      "hit": false,
      "t": 293795.8333333344,
      "d": 208.33333333331393,
      "v": 84
    },
    {
      "midi": 67,
      "hit": false,
      "t": 293795.8333333344,
      "d": 237.5,
      "v": 81
    },
    {
      "midi": 69,
      "hit": false,
      "t": 293800.0000000011,
      "d": 270.83333333331393,
      "v": 105
    },
    {
      "midi": 55,
      "hit": false,
      "t": 293995.8333333344,
      "d": 141.66666666668607,
      "v": 81
    },
    {
      "midi": 64,
      "hit": false,
      "t": 294379.1666666678,
      "d": 870.8333333333139,
      "v": 111
    },
    {
      "midi": 61,
      "hit": false,
      "t": 294383.3333333345,
      "d": 845.8333333333139,
      "v": 84
    },
    {
      "midi": 66,
      "hit": false,
      "t": 294383.3333333345,
      "d": 904.1666666666279,
      "v": 93
    },
    {
      "midi": 69,
      "hit": false,
      "t": 294383.3333333345,
      "d": 933.3333333333139,
      "v": 117
    },
    {
      "midi": 54,
      "hit": false,
      "t": 294387.50000000116,
      "d": 604.1666666666279,
      "v": 93
    },
    {
      "midi": 54,
      "hit": false,
      "t": 295216.6666666678,
      "d": 220.83333333337214,
      "v": 72
    },
    {
      "midi": 61,
      "hit": false,
      "t": 295408.3333333345,
      "d": 112.5,
      "v": 58
    },
    {
      "midi": 54,
      "hit": false,
      "t": 295587.50000000116,
      "d": 316.66666666668607,
      "v": 69
    },
    {
      "midi": 61,
      "hit": false,
      "t": 295816.66666666785,
      "d": 208.33333333331393,
      "v": 84
    },
    {
      "midi": 66,
      "hit": false,
      "t": 295816.66666666785,
      "d": 220.83333333331393,
      "v": 108
    },
    {
      "midi": 69,
      "hit": false,
      "t": 295816.66666666785,
      "d": 220.83333333331393,
      "v": 124
    },
    {
      "midi": 54,
      "hit": false,
      "t": 296033.3333333345,
      "d": 166.66666666668607,
      "v": 69
    },
    {
      "midi": 61,
      "hit": false,
      "t": 296208.3333333345,
      "d": 216.66666666662786,
      "v": 127
    },
    {
      "midi": 66,
      "hit": false,
      "t": 296208.3333333345,
      "d": 287.4999999999418,
      "v": 124
    },
    {
      "midi": 69,
      "hit": false,
      "t": 296208.3333333345,
      "d": 291.66666666662786,
      "v": 102
    },
    {
      "midi": 54,
      "hit": false,
      "t": 296404.1666666678,
      "d": 604.1666666667443,
      "v": 89
    },
    {
      "midi": 61,
      "hit": false,
      "t": 296616.6666666678,
      "d": 45.83333333331393,
      "v": 3
    },
    {
      "midi": 69,
      "hit": false,
      "t": 296804.1666666678,
      "d": 112.5,
      "v": 102
    },
    {
      "midi": 66,
      "hit": false,
      "t": 296808.3333333345,
      "d": 108.33333333331393,
      "v": 81
    },
    {
      "midi": 61,
      "hit": false,
      "t": 296808.3333333345,
      "d": 120.83333333331393,
      "v": 89
    },
    {
      "midi": 69,
      "hit": false,
      "t": 296983.3333333345,
      "d": 195.83333333343035,
      "v": 120
    },
    {
      "midi": 66,
      "hit": false,
      "t": 296987.50000000116,
      "d": 175.0000000000582,
      "v": 111
    },
    {
      "midi": 61,
      "hit": false,
      "t": 296991.66666666785,
      "d": 154.16666666668607,
      "v": 93
    },
    {
      "midi": 54,
      "hit": false,
      "t": 297187.5000000012,
      "d": 170.83333333331393,
      "v": 84
    },
    {
      "midi": 60,
      "hit": false,
      "t": 297600.00000000116,
      "d": 433.33333333337214,
      "v": 89
    },
    {
      "midi": 65,
      "hit": false,
      "t": 297604.16666666785,
      "d": 454.16666666668607,
      "v": 125
    },
    {
      "midi": 69,
      "hit": false,
      "t": 297608.33333333454,
      "d": 470.83333333331393,
      "v": 102
    },
    {
      "midi": 53,
      "hit": false,
      "t": 297616.66666666785,
      "d": 300,
      "v": 124
    },
    {
      "midi": 53,
      "hit": false,
      "t": 298125.00000000116,
      "d": 83.33333333331393,
      "v": 22
    },
    {
      "midi": 53,
      "hit": false,
      "t": 298425.00000000116,
      "d": 204.16666666662786,
      "v": 61
    },
    {
      "midi": 72,
      "hit": false,
      "t": 298600.00000000116,
      "d": 199.9999999999418,
      "v": 124
    },
    {
      "midi": 69,
      "hit": false,
      "t": 298608.3333333345,
      "d": 191.66666666662786,
      "v": 108
    },
    {
      "midi": 65,
      "hit": false,
      "t": 298608.3333333345,
      "d": 204.16666666662786,
      "v": 124
    },
    {
      "midi": 53,
      "hit": false,
      "t": 298808.3333333344,
      "d": 195.83333333337214,
      "v": 66
    },
    {
      "midi": 62,
      "hit": false,
      "t": 299016.6666666678,
      "d": 383.33333333337214,
      "v": 89
    },
    {
      "midi": 67,
      "hit": false,
      "t": 299016.6666666678,
      "d": 512.5000000000582,
      "v": 81
    },
    {
      "midi": 71,
      "hit": false,
      "t": 299016.6666666678,
      "d": 554.1666666667443,
      "v": 124
    },
    {
      "midi": 55,
      "hit": false,
      "t": 299216.6666666678,
      "d": 987.5000000000582,
      "v": 72
    },
    {
      "midi": 62,
      "hit": false,
      "t": 299579.16666666785,
      "d": 70.83333333331393,
      "v": 14
    },
    {
      "midi": 62,
      "hit": false,
      "t": 300016.66666666785,
      "d": 312.5,
      "v": 125
    },
    {
      "midi": 67,
      "hit": false,
      "t": 300016.66666666785,
      "d": 350,
      "v": 127
    },
    {
      "midi": 71,
      "hit": false,
      "t": 300016.66666666785,
      "d": 429.16666666668607,
      "v": 120
    },
    {
      "midi": 55,
      "hit": false,
      "t": 300408.33333333454,
      "d": 158.33333333331393,
      "v": 105
    },
    {
      "midi": 64,
      "hit": false,
      "t": 300608.33333333454,
      "d": 75,
      "v": 35
    },
    {
      "midi": 57,
      "hit": false,
      "t": 300816.6666666679,
      "d": 516.6666666666861,
      "v": 124
    },
    {
      "midi": 64,
      "hit": false,
      "t": 300825.0000000012,
      "d": 766.6666666666861,
      "v": 108
    },
    {
      "midi": 73,
      "hit": false,
      "t": 300825.0000000012,
      "d": 895.8333333333721,
      "v": 125
    },
    {
      "midi": 69,
      "hit": false,
      "t": 300829.1666666679,
      "d": 825,
      "v": 124
    },
    {
      "midi": 57,
      "hit": false,
      "t": 301612.5000000012,
      "d": 695.8333333333721,
      "v": 117
    },
    {
      "midi": 64,
      "hit": false,
      "t": 301808.3333333346,
      "d": 87.5,
      "v": 39
    },
    {
      "midi": 69,
      "hit": false,
      "t": 302008.3333333346,
      "d": 91.66666666662786,
      "v": 84
    },
    {
      "midi": 74,
      "hit": false,
      "t": 302016.6666666679,
      "d": 83.33333333331393,
      "v": 66
    },
    {
      "midi": 64,
      "hit": false,
      "t": 302016.6666666679,
      "d": 87.5,
      "v": 64
    },
    {
      "midi": 69,
      "hit": false,
      "t": 302204.1666666679,
      "d": 283.33333333331393,
      "v": 125
    },
    {
      "midi": 74,
      "hit": false,
      "t": 302204.1666666679,
      "d": 291.66666666662786,
      "v": 77
    },
    {
      "midi": 64,
      "hit": false,
      "t": 302208.3333333346,
      "d": 254.16666666662786,
      "v": 89
    },
    {
      "midi": 57,
      "hit": false,
      "t": 302416.6666666679,
      "d": 208.33333333331393,
      "v": 81
    },
    {
      "midi": 73,
      "hit": false,
      "t": 302608.33333333454,
      "d": 325,
      "v": 120
    },
    {
      "midi": 64,
      "hit": false,
      "t": 302612.5000000012,
      "d": 208.33333333331393,
      "v": 120
    },
    {
      "midi": 69,
      "hit": false,
      "t": 302612.5000000012,
      "d": 304.16666666662786,
      "v": 117
    },
    {
      "midi": 57,
      "hit": false,
      "t": 302800.0000000012,
      "d": 633.3333333333721,
      "v": 111
    },
    {
      "midi": 64,
      "hit": false,
      "t": 303012.5000000012,
      "d": 70.83333333331393,
      "v": 35
    },
    {
      "midi": 64,
      "hit": false,
      "t": 303208.33333333454,
      "d": 100,
      "v": 96
    },
    {
      "midi": 69,
      "hit": false,
      "t": 303212.5000000012,
      "d": 100,
      "v": 89
    },
    {
      "midi": 74,
      "hit": false,
      "t": 303212.5000000012,
      "d": 104.16666666668607,
      "v": 111
    },
    {
      "midi": 64,
      "hit": false,
      "t": 303420.8333333346,
      "d": 195.83333333331393,
      "v": 124
    },
    {
      "midi": 69,
      "hit": false,
      "t": 303420.8333333346,
      "d": 208.33333333331393,
      "v": 127
    },
    {
      "midi": 73,
      "hit": false,
      "t": 303425.0000000013,
      "d": 204.16666666662786,
      "v": 127
    },
    {
      "midi": 57,
      "hit": false,
      "t": 303604.1666666679,
      "d": 225,
      "v": 111
    },
    {
      "midi": 62,
      "hit": false,
      "t": 303808.3333333346,
      "d": 75,
      "v": 43
    },
    {
      "midi": 55,
      "hit": false,
      "t": 304000.0000000012,
      "d": 316.66666666662786,
      "v": 99
    },
    {
      "midi": 62,
      "hit": false,
      "t": 304000.0000000012,
      "d": 816.6666666666279,
      "v": 96
    },
    {
      "midi": 67,
      "hit": false,
      "t": 304000.0000000012,
      "d": 887.4999999999418,
      "v": 99
    },
    {
      "midi": 71,
      "hit": false,
      "t": 304000.0000000012,
      "d": 945.8333333332557,
      "v": 124
    },
    {
      "midi": 55,
      "hit": false,
      "t": 304400.00000000116,
      "d": 133.33333333331393,
      "v": 69
    },
    {
      "midi": 55,
      "hit": false,
      "t": 304812.50000000116,
      "d": 683.3333333333139,
      "v": 99
    },
    {
      "midi": 62,
      "hit": false,
      "t": 305004.1666666678,
      "d": 79.16666666668607,
      "v": 14
    },
    {
      "midi": 67,
      "hit": false,
      "t": 305208.3333333345,
      "d": 66.66666666668607,
      "v": 55
    },
    {
      "midi": 72,
      "hit": false,
      "t": 305208.3333333345,
      "d": 75,
      "v": 66
    },
    {
      "midi": 62,
      "hit": false,
      "t": 305212.50000000116,
      "d": 70.83333333331393,
      "v": 35
    },
    {
      "midi": 67,
      "hit": false,
      "t": 305416.6666666678,
      "d": 229.16666666668607,
      "v": 127
    },
    {
      "midi": 72,
      "hit": false,
      "t": 305416.6666666678,
      "d": 233.33333333337214,
      "v": 102
    },
    {
      "midi": 62,
      "hit": false,
      "t": 305420.8333333345,
      "d": 212.5,
      "v": 89
    },
    {
      "midi": 55,
      "hit": false,
      "t": 305629.1666666678,
      "d": 254.16666666668607,
      "v": 86
    },
    {
      "midi": 67,
      "hit": false,
      "t": 305795.8333333345,
      "d": 312.4999999999418,
      "v": 111
    },
    {
      "midi": 62,
      "hit": false,
      "t": 305800.00000000116,
      "d": 224.9999999999418,
      "v": 105
    },
    {
      "midi": 71,
      "hit": false,
      "t": 305800.00000000116,
      "d": 329.16666666656965,
      "v": 102
    },
    {
      "midi": 55,
      "hit": false,
      "t": 306016.6666666678,
      "d": 658.3333333332557,
      "v": 81
    },
    {
      "midi": 62,
      "hit": false,
      "t": 306200.00000000105,
      "d": 75,
      "v": 30
    },
    {
      "midi": 67,
      "hit": false,
      "t": 306408.33333333436,
      "d": 100,
      "v": 99
    },
    {
      "midi": 62,
      "hit": false,
      "t": 306412.50000000105,
      "d": 95.83333333331393,
      "v": 77
    },
    {
      "midi": 72,
      "hit": false,
      "t": 306412.50000000105,
      "d": 100,
      "v": 81
    },
    {
      "midi": 62,
      "hit": false,
      "t": 306616.66666666773,
      "d": 150,
      "v": 89
    },
    {
      "midi": 67,
      "hit": false,
      "t": 306616.66666666773,
      "d": 191.66666666668607,
      "v": 117
    },
    {
      "midi": 71,
      "hit": false,
      "t": 306616.66666666773,
      "d": 229.16666666668607,
      "v": 123
    },
    {
      "midi": 55,
      "hit": false,
      "t": 306812.5000000011,
      "d": 141.66666666662786,
      "v": 81
    },
    {
      "midi": 54,
      "hit": false,
      "t": 307216.66666666773,
      "d": 291.66666666668607,
      "v": 93
    },
    {
      "midi": 61,
      "hit": false,
      "t": 307216.66666666773,
      "d": 458.33333333337214,
      "v": 93
    },
    {
      "midi": 66,
      "hit": false,
      "t": 307225.00000000105,
      "d": 625.0000000000582,
      "v": 124
    },
    {
      "midi": 69,
      "hit": false,
      "t": 307225.00000000105,
      "d": 687.5000000000582,
      "v": 102
    },
    {
      "midi": 54,
      "hit": false,
      "t": 307600.0000000011,
      "d": 129.16666666668607,
      "v": 64
    },
    {
      "midi": 54,
      "hit": false,
      "t": 308000.0000000011,
      "d": 316.66666666662786,
      "v": 102
    },
    {
      "midi": 66,
      "hit": false,
      "t": 308183.3333333344,
      "d": 225,
      "v": 74
    },
    {
      "midi": 69,
      "hit": false,
      "t": 308183.3333333344,
      "d": 245.83333333331393,
      "v": 74
    },
    {
      "midi": 73,
      "hit": false,
      "t": 308183.3333333344,
      "d": 270.83333333331393,
      "v": 74
    },
    {
      "midi": 54,
      "hit": false,
      "t": 308416.66666666773,
      "d": 216.66666666668607,
      "v": 93
    },
    {
      "midi": 66,
      "hit": false,
      "t": 308616.66666666773,
      "d": 220.83333333337214,
      "v": 89
    },
    {
      "midi": 78,
      "hit": false,
      "t": 308616.66666666773,
      "d": 225.0000000000582,
      "v": 102
    },
    {
      "midi": 69,
      "hit": false,
      "t": 308616.66666666773,
      "d": 241.66666666674428,
      "v": 81
    },
    {
      "midi": 73,
      "hit": false,
      "t": 308616.66666666773,
      "d": 245.83333333343035,
      "v": 96
    },
    {
      "midi": 54,
      "hit": false,
      "t": 308812.5000000011,
      "d": 204.16666666674428,
      "v": 79
    },
    {
      "midi": 73,
      "hit": false,
      "t": 309008.3333333345,
      "d": 250.0000000000582,
      "v": 77
    },
    {
      "midi": 66,
      "hit": false,
      "t": 309012.50000000116,
      "d": 216.66666666668607,
      "v": 96
    },
    {
      "midi": 69,
      "hit": false,
      "t": 309012.50000000116,
      "d": 233.33333333337214,
      "v": 96
    },
    {
      "midi": 54,
      "hit": false,
      "t": 309208.33333333454,
      "d": 212.5,
      "v": 89
    },
    {
      "midi": 73,
      "hit": false,
      "t": 309408.33333333454,
      "d": 245.83333333331393,
      "v": 120
    },
    {
      "midi": 66,
      "hit": false,
      "t": 309416.66666666785,
      "d": 216.66666666668607,
      "v": 93
    },
    {
      "midi": 69,
      "hit": false,
      "t": 309416.66666666785,
      "d": 229.16666666668607,
      "v": 111
    },
    {
      "midi": 54,
      "hit": false,
      "t": 309608.33333333454,
      "d": 204.16666666662786,
      "v": 93
    },
    {
      "midi": 69,
      "hit": false,
      "t": 309795.83333333454,
      "d": 208.33333333331393,
      "v": 124
    },
    {
      "midi": 66,
      "hit": false,
      "t": 309804.16666666785,
      "d": 187.5,
      "v": 123
    },
    {
      "midi": 54,
      "hit": false,
      "t": 310000.00000000116,
      "d": 208.33333333337214,
      "v": 89
    },
    {
      "midi": 65,
      "hit": false,
      "t": 310195.83333333454,
      "d": 87.5,
      "v": 48
    },
    {
      "midi": 65,
      "hit": false,
      "t": 310383.33333333454,
      "d": 262.5000000000582,
      "v": 123
    },
    {
      "midi": 72,
      "hit": false,
      "t": 310383.33333333454,
      "d": 316.66666666668607,
      "v": 108
    },
    {
      "midi": 69,
      "hit": false,
      "t": 310387.5000000012,
      "d": 279.16666666668607,
      "v": 84
    },
    {
      "midi": 53,
      "hit": false,
      "t": 310404.1666666679,
      "d": 229.16666666668607,
      "v": 127
    },
    {
      "midi": 53,
      "hit": false,
      "t": 310804.1666666679,
      "d": 545.8333333334303,
      "v": 108
    },
    {
      "midi": 72,
      "hit": false,
      "t": 310979.1666666679,
      "d": 95.83333333337214,
      "v": 93
    },
    {
      "midi": 69,
      "hit": false,
      "t": 310979.1666666679,
      "d": 100.00000000005821,
      "v": 77
    },
    {
      "midi": 76,
      "hit": false,
      "t": 310983.3333333346,
      "d": 112.50000000005821,
      "v": 102
    },
    {
      "midi": 76,
      "hit": false,
      "t": 311200.00000000134,
      "d": 225,
      "v": 99
    },
    {
      "midi": 72,
      "hit": false,
      "t": 311204.166666668,
      "d": 258.33333333331393,
      "v": 127
    },
    {
      "midi": 69,
      "hit": false,
      "t": 311204.166666668,
      "d": 270.83333333331393,
      "v": 111
    },
    {
      "midi": 53,
      "hit": false,
      "t": 311579.166666668,
      "d": 250.0000000000582,
      "v": 96
    },
    {
      "midi": 74,
      "hit": false,
      "t": 311770.8333333347,
      "d": 112.5,
      "v": 77
    },
    {
      "midi": 67,
      "hit": false,
      "t": 311775.0000000014,
      "d": 91.66666666668607,
      "v": 51
    },
    {
      "midi": 71,
      "hit": false,
      "t": 311775.0000000014,
      "d": 108.33333333331393,
      "v": 81
    },
    {
      "midi": 71,
      "hit": false,
      "t": 311979.166666668,
      "d": 250.0000000000582,
      "v": 111
    },
    {
      "midi": 67,
      "hit": false,
      "t": 311983.3333333347,
      "d": 233.33333333337214,
      "v": 127
    },
    {
      "midi": 74,
      "hit": false,
      "t": 311983.3333333347,
      "d": 250.0000000000582,
      "v": 127
    },
    {
      "midi": 55,
      "hit": false,
      "t": 311987.5000000014,
      "d": 200,
      "v": 127
    },
    {
      "midi": 55,
      "hit": false,
      "t": 312383.33333333477,
      "d": 595.8333333333139,
      "v": 127
    },
    {
      "midi": 79,
      "hit": false,
      "t": 312608.33333333477,
      "d": 108.33333333331393,
      "v": 124
    },
    {
      "midi": 74,
      "hit": false,
      "t": 312616.6666666681,
      "d": 87.5,
      "v": 102
    },
    {
      "midi": 71,
      "hit": false,
      "t": 312616.6666666681,
      "d": 91.66666666668607,
      "v": 89
    },
    {
      "midi": 79,
      "hit": false,
      "t": 312825.0000000014,
      "d": 295.83333333337214,
      "v": 127
    },
    {
      "midi": 71,
      "hit": false,
      "t": 312829.1666666681,
      "d": 237.5,
      "v": 125
    },
    {
      "midi": 74,
      "hit": false,
      "t": 312829.1666666681,
      "d": 250,
      "v": 127
    },
    {
      "midi": 55,
      "hit": false,
      "t": 313187.50000000146,
      "d": 220.83333333337214,
      "v": 117
    },
    {
      "midi": 69,
      "hit": false,
      "t": 313391.66666666814,
      "d": 83.33333333337214,
      "v": 43
    },
    {
      "midi": 57,
      "hit": false,
      "t": 313583.3333333348,
      "d": 662.5000000000582,
      "v": 84
    },
    {
      "midi": 69,
      "hit": false,
      "t": 313595.8333333348,
      "d": 120.83333333337214,
      "v": 108
    },
    {
      "midi": 81,
      "hit": false,
      "t": 313600.0000000015,
      "d": 116.66666666668607,
      "v": 91
    },
    {
      "midi": 81,
      "hit": false,
      "t": 313804.1666666682,
      "d": 112.5,
      "v": 79
    },
    {
      "midi": 69,
      "hit": false,
      "t": 313808.3333333349,
      "d": 108.33333333331393,
      "v": 93
    },
    {
      "midi": 81,
      "hit": false,
      "t": 314016.6666666682,
      "d": 100,
      "v": 108
    },
    {
      "midi": 69,
      "hit": false,
      "t": 314020.8333333349,
      "d": 95.83333333331393,
      "v": 84
    },
    {
      "midi": 69,
      "hit": false,
      "t": 314225.0000000015,
      "d": 229.16666666668607,
      "v": 126
    },
    {
      "midi": 81,
      "hit": false,
      "t": 314229.1666666682,
      "d": 283.33333333331393,
      "v": 102
    },
    {
      "midi": 57,
      "hit": false,
      "t": 314408.3333333349,
      "d": 870.8333333333721,
      "v": 127
    },
    {
      "midi": 69,
      "hit": false,
      "t": 314587.5000000015,
      "d": 79.16666666668607,
      "v": 51
    },
    {
      "midi": 69,
      "hit": false,
      "t": 314800.0000000015,
      "d": 95.83333333331393,
      "v": 102
    },
    {
      "midi": 81,
      "hit": false,
      "t": 314804.1666666682,
      "d": 83.33333333331393,
      "v": 102
    },
    {
      "midi": 69,
      "hit": false,
      "t": 315000.0000000015,
      "d": 100,
      "v": 99
    },
    {
      "midi": 81,
      "hit": false,
      "t": 315000.0000000015,
      "d": 104.16666666668607,
      "v": 127
    },
    {
      "midi": 69,
      "hit": false,
      "t": 315195.8333333349,
      "d": 120.83333333337214,
      "v": 123
    },
    {
      "midi": 81,
      "hit": false,
      "t": 315200.0000000016,
      "d": 116.66666666668607,
      "v": 111
    },
    {
      "midi": 69,
      "hit": false,
      "t": 315400.0000000016,
      "d": 220.83333333337214,
      "v": 93
    },
    {
      "midi": 81,
      "hit": false,
      "t": 315400.0000000016,
      "d": 266.66666666668607,
      "v": 127
    },
    {
      "midi": 57,
      "hit": false,
      "t": 315579.16666666826,
      "d": 687.4999999999418,
      "v": 127
    },
    {
      "midi": 69,
      "hit": false,
      "t": 315745.83333333494,
      "d": 70.83333333331393,
      "v": 39
    },
    {
      "midi": 69,
      "hit": false,
      "t": 315975.0000000016,
      "d": 83.33333333331393,
      "v": 108
    },
    {
      "midi": 81,
      "hit": false,
      "t": 315983.3333333349,
      "d": 75,
      "v": 127
    },
    {
      "midi": 69,
      "hit": false,
      "t": 316195.8333333349,
      "d": 224.9999999999418,
      "v": 127
    },
    {
      "midi": 81,
      "hit": false,
      "t": 316195.8333333349,
      "d": 320.8333333332557,
      "v": 127
    },
    {
      "midi": 57,
      "hit": false,
      "t": 316400.0000000015,
      "d": 249.9999999999418,
      "v": 93
    },
    {
      "midi": 69,
      "hit": false,
      "t": 316600.00000000146,
      "d": 79.16666666668607,
      "v": 66
    },
    {
      "midi": 55,
      "hit": false,
      "t": 316800.00000000146,
      "d": 691.6666666667443,
      "v": 105
    },
    {
      "midi": 69,
      "hit": false,
      "t": 316804.16666666814,
      "d": 104.16666666668607,
      "v": 124
    },
    {
      "midi": 81,
      "hit": false,
      "t": 316808.3333333348,
      "d": 95.83333333331393,
      "v": 127
    },
    {
      "midi": 69,
      "hit": false,
      "t": 317012.5000000015,
      "d": 95.83333333337214,
      "v": 102
    },
    {
      "midi": 81,
      "hit": false,
      "t": 317016.6666666682,
      "d": 91.66666666668607,
      "v": 120
    },
    {
      "midi": 69,
      "hit": false,
      "t": 317220.8333333349,
      "d": 95.83333333331393,
      "v": 84
    },
    {
      "midi": 81,
      "hit": false,
      "t": 317229.1666666682,
      "d": 79.16666666668607,
      "v": 84
    },
    {
      "midi": 69,
      "hit": false,
      "t": 317437.5000000015,
      "d": 229.16666666668607,
      "v": 127
    },
    {
      "midi": 81,
      "hit": false,
      "t": 317437.5000000015,
      "d": 312.5,
      "v": 102
    },
    {
      "midi": 55,
      "hit": false,
      "t": 317633.3333333349,
      "d": 1049.9999999998254,
      "v": 127
    },
    {
      "midi": 69,
      "hit": false,
      "t": 317812.5000000015,
      "d": 79.16666666668607,
      "v": 51
    },
    {
      "midi": 69,
      "hit": false,
      "t": 318000.0000000015,
      "d": 99.99999999994179,
      "v": 117
    },
    {
      "midi": 81,
      "hit": false,
      "t": 318008.3333333348,
      "d": 83.33333333331393,
      "v": 89
    },
    {
      "midi": 69,
      "hit": false,
      "t": 318208.33333333477,
      "d": 100,
      "v": 96
    },
    {
      "midi": 81,
      "hit": false,
      "t": 318212.50000000146,
      "d": 95.83333333331393,
      "v": 111
    },
    {
      "midi": 69,
      "hit": false,
      "t": 318408.33333333477,
      "d": 108.33333333331393,
      "v": 126
    },
    {
      "midi": 81,
      "hit": false,
      "t": 318408.33333333477,
      "d": 116.66666666662786,
      "v": 127
    },
    {
      "midi": 69,
      "hit": false,
      "t": 318600.0000000014,
      "d": 229.16666666662786,
      "v": 111
    },
    {
      "midi": 81,
      "hit": false,
      "t": 318600.0000000014,
      "d": 279.16666666662786,
      "v": 108
    },
    {
      "midi": 55,
      "hit": false,
      "t": 318808.3333333347,
      "d": 683.3333333333721,
      "v": 127
    },
    {
      "midi": 69,
      "hit": false,
      "t": 318966.666666668,
      "d": 79.16666666668607,
      "v": 51
    },
    {
      "midi": 69,
      "hit": false,
      "t": 319187.5000000014,
      "d": 91.66666666668607,
      "v": 93
    },
    {
      "midi": 81,
      "hit": false,
      "t": 319191.6666666681,
      "d": 83.33333333331393,
      "v": 120
    },
    {
      "midi": 69,
      "hit": false,
      "t": 319400.0000000014,
      "d": 183.33333333337214,
      "v": 93
    },
    {
      "midi": 81,
      "hit": false,
      "t": 319400.0000000014,
      "d": 204.16666666668607,
      "v": 127
    },
    {
      "midi": 55,
      "hit": false,
      "t": 319558.33333333477,
      "d": 245.83333333331393,
      "v": 124
    },
    {
      "midi": 69,
      "hit": false,
      "t": 319783.33333333477,
      "d": 283.33333333331393,
      "v": 111
    },
    {
      "midi": 81,
      "hit": false,
      "t": 319783.33333333477,
      "d": 316.66666666662786,
      "v": 126
    },
    {
      "midi": 54,
      "hit": false,
      "t": 319995.83333333477,
      "d": 641.6666666666279,
      "v": 127
    },
    {
      "midi": 69,
      "hit": false,
      "t": 320191.666666668,
      "d": 83.33333333331393,
      "v": 64
    },
    {
      "midi": 69,
      "hit": false,
      "t": 320416.666666668,
      "d": 91.66666666668607,
      "v": 64
    },
    {
      "midi": 81,
      "hit": false,
      "t": 320420.8333333347,
      "d": 79.16666666668607,
      "v": 84
    },
    {
      "midi": 69,
      "hit": false,
      "t": 320600.0000000014,
      "d": 245.83333333337214,
      "v": 74
    },
    {
      "midi": 81,
      "hit": false,
      "t": 320608.3333333347,
      "d": 250.0000000000582,
      "v": 102
    },
    {
      "midi": 54,
      "hit": false,
      "t": 320804.1666666681,
      "d": 675.0000000000582,
      "v": 117
    },
    {
      "midi": 69,
      "hit": false,
      "t": 321000.00000000146,
      "d": 54.16666666668607,
      "v": 22
    },
    {
      "midi": 69,
      "hit": false,
      "t": 321200.00000000146,
      "d": 87.5,
      "v": 89
    },
    {
      "midi": 81,
      "hit": false,
      "t": 321200.00000000146,
      "d": 87.5,
      "v": 89
    },
    {
      "midi": 69,
      "hit": false,
      "t": 321391.66666666814,
      "d": 225,
      "v": 124
    },
    {
      "midi": 81,
      "hit": false,
      "t": 321395.8333333348,
      "d": 220.83333333331393,
      "v": 124
    },
    {
      "midi": 54,
      "hit": false,
      "t": 321612.50000000146,
      "d": 204.16666666668607,
      "v": 89
    },
    {
      "midi": 69,
      "hit": false,
      "t": 321791.66666666814,
      "d": 225,
      "v": 126
    },
    {
      "midi": 81,
      "hit": false,
      "t": 321791.66666666814,
      "d": 283.33333333331393,
      "v": 124
    },
    {
      "midi": 54,
      "hit": false,
      "t": 321987.50000000146,
      "d": 650,
      "v": 89
    },
    {
      "midi": 69,
      "hit": false,
      "t": 322175.00000000146,
      "d": 66.66666666668607,
      "v": 26
    },
    {
      "midi": 81,
      "hit": false,
      "t": 322400.00000000146,
      "d": 95.83333333331393,
      "v": 111
    },
    {
      "midi": 69,
      "hit": false,
      "t": 322400.00000000146,
      "d": 100,
      "v": 96
    },
    {
      "midi": 69,
      "hit": false,
      "t": 322600.00000000146,
      "d": 179.16666666668607,
      "v": 96
    },
    {
      "midi": 81,
      "hit": false,
      "t": 322600.00000000146,
      "d": 404.16666666668607,
      "v": 108
    },
    {
      "midi": 54,
      "hit": false,
      "t": 322800.00000000146,
      "d": 233.33333333337214,
      "v": 99
    },
    {
      "midi": 69,
      "hit": false,
      "t": 322966.66666666814,
      "d": 62.5,
      "v": 51
    },
    {
      "midi": 53,
      "hit": false,
      "t": 323187.50000000146,
      "d": 2091.6666666667443,
      "v": 102
    },
    {
      "midi": 72,
      "hit": false,
      "t": 323216.66666666814,
      "d": 83.33333333337214,
      "v": 58
    },
    {
      "midi": 84,
      "hit": false,
      "t": 323220.8333333348,
      "d": 75,
      "v": 96
    },
    {
      "midi": 84,
      "hit": false,
      "t": 323391.66666666814,
      "d": 58.33333333337214,
      "v": 77
    },
    {
      "midi": 72,
      "hit": false,
      "t": 323395.8333333348,
      "d": 66.66666666668607,
      "v": 66
    },
    {
      "midi": 81,
      "hit": false,
      "t": 323600.0000000015,
      "d": 70.83333333331393,
      "v": 84
    },
    {
      "midi": 69,
      "hit": false,
      "t": 323600.0000000015,
      "d": 75,
      "v": 84
    },
    {
      "midi": 81,
      "hit": false,
      "t": 323783.3333333348,
      "d": 79.16666666668607,
      "v": 86
    },
    {
      "midi": 69,
      "hit": false,
      "t": 323783.3333333348,
      "d": 83.33333333337214,
      "v": 77
    },
    {
      "midi": 67,
      "hit": false,
      "t": 324016.6666666682,
      "d": 62.5,
      "v": 102
    },
    {
      "midi": 79,
      "hit": false,
      "t": 324020.8333333349,
      "d": 66.66666666662786,
      "v": 84
    },
    {
      "midi": 67,
      "hit": false,
      "t": 324195.8333333348,
      "d": 79.16666666668607,
      "v": 91
    },
    {
      "midi": 79,
      "hit": false,
      "t": 324200.0000000015,
      "d": 66.66666666668607,
      "v": 84
    },
    {
      "midi": 64,
      "hit": false,
      "t": 324416.6666666682,
      "d": 83.33333333331393,
      "v": 89
    },
    {
      "midi": 76,
      "hit": false,
      "t": 324425.0000000015,
      "d": 70.83333333331393,
      "v": 99
    },
    {
      "midi": 76,
      "hit": false,
      "t": 324595.8333333348,
      "d": 79.16666666668607,
      "v": 77
    },
    {
      "midi": 64,
      "hit": false,
      "t": 324600.0000000015,
      "d": 79.16666666668607,
      "v": 89
    },
    {
      "midi": 63,
      "hit": false,
      "t": 324804.1666666682,
      "d": 70.83333333337214,
      "v": 120
    },
    {
      "midi": 75,
      "hit": false,
      "t": 324808.3333333349,
      "d": 54.16666666668607,
      "v": 81
    },
    {
      "midi": 63,
      "hit": false,
      "t": 324975.0000000016,
      "d": 79.16666666662786,
      "v": 105
    },
    {
      "midi": 75,
      "hit": false,
      "t": 324983.3333333349,
      "d": 62.5,
      "v": 102
    },
    {
      "midi": 62,
      "hit": false,
      "t": 325187.5000000015,
      "d": 79.16666666668607,
      "v": 84
    },
    {
      "midi": 74,
      "hit": false,
      "t": 325195.8333333348,
      "d": 66.66666666668607,
      "v": 93
    },
    {
      "midi": 62,
      "hit": false,
      "t": 325383.3333333349,
      "d": 91.66666666668607,
      "v": 84
    },
    {
      "midi": 74,
      "hit": false,
      "t": 325387.5000000016,
      "d": 129.16666666668607,
      "v": 79
    },
    {
      "midi": 72,
      "hit": false,
      "t": 325600.0000000016,
      "d": 83.33333333331393,
      "v": 108
    },
    {
      "midi": 60,
      "hit": false,
      "t": 325600.0000000016,
      "d": 116.66666666662786,
      "v": 66
    },
    {
      "midi": 72,
      "hit": false,
      "t": 325812.5000000015,
      "d": 116.66666666668607,
      "v": 77
    },
    {
      "midi": 60,
      "hit": false,
      "t": 325816.6666666682,
      "d": 104.16666666668607,
      "v": 58
    },
    {
      "midi": 69,
      "hit": false,
      "t": 326016.6666666682,
      "d": 108.33333333331393,
      "v": 66
    },
    {
      "midi": 57,
      "hit": false,
      "t": 326016.6666666682,
      "d": 125,
      "v": 89
    },
    {
      "midi": 69,
      "hit": false,
      "t": 326204.1666666682,
      "d": 312.5,
      "v": 120
    },
    {
      "midi": 57,
      "hit": false,
      "t": 326225.0000000015,
      "d": 116.66666666668607,
      "v": 93
    },
    {
      "midi": 57,
      "hit": false,
      "t": 326416.6666666682,
      "d": 1633.333333333314,
      "v": 93
    },
    {
      "midi": 87,
      "hit": false,
      "t": 326816.6666666682,
      "d": 100,
      "v": 102
    },
    {
      "midi": 88,
      "hit": false,
      "t": 326995.8333333349,
      "d": 91.66666666668607,
      "v": 72
    },
    {
      "midi": 88,
      "hit": false,
      "t": 327195.8333333349,
      "d": 204.16666666668607,
      "v": 127
    },
    {
      "midi": 93,
      "hit": false,
      "t": 327200.0000000016,
      "d": 129.16666666668607,
      "v": 124
    },
    {
      "midi": 87,
      "hit": false,
      "t": 327379.16666666826,
      "d": 104.16666666662786,
      "v": 89
    },
    {
      "midi": 88,
      "hit": false,
      "t": 327591.6666666682,
      "d": 108.33333333331393,
      "v": 84
    },
    {
      "midi": 93,
      "hit": false,
      "t": 327600.0000000015,
      "d": 95.83333333331393,
      "v": 102
    },
    {
      "midi": 88,
      "hit": false,
      "t": 327787.5000000015,
      "d": 120.83333333337214,
      "v": 89
    },
    {
      "midi": 93,
      "hit": false,
      "t": 327791.6666666682,
      "d": 112.5,
      "v": 93
    },
    {
      "midi": 87,
      "hit": false,
      "t": 327979.1666666682,
      "d": 108.33333333331393,
      "v": 126
    },
    {
      "midi": 93,
      "hit": false,
      "t": 328179.1666666682,
      "d": 75,
      "v": 69
    },
    {
      "midi": 88,
      "hit": false,
      "t": 328179.1666666682,
      "d": 83.33333333331393,
      "v": 69
    },
    {
      "midi": 88,
      "hit": false,
      "t": 328370.8333333348,
      "d": 145.83333333337214,
      "v": 111
    },
    {
      "midi": 93,
      "hit": false,
      "t": 328375.0000000015,
      "d": 141.66666666668607,
      "v": 84
    },
    {
      "midi": 87,
      "hit": false,
      "t": 328566.6666666682,
      "d": 100,
      "v": 69
    },
    {
      "midi": 93,
      "hit": false,
      "t": 328779.1666666682,
      "d": 95.83333333331393,
      "v": 99
    },
    {
      "midi": 88,
      "hit": false,
      "t": 328779.1666666682,
      "d": 100,
      "v": 102
    },
    {
      "midi": 93,
      "hit": false,
      "t": 328983.3333333349,
      "d": 120.83333333331393,
      "v": 84
    },
    {
      "midi": 88,
      "hit": false,
      "t": 328983.3333333349,
      "d": 129.16666666662786,
      "v": 86
    },
    {
      "midi": 87,
      "hit": false,
      "t": 329187.5000000015,
      "d": 108.33333333331393,
      "v": 81
    },
    {
      "midi": 88,
      "hit": false,
      "t": 329379.16666666814,
      "d": 87.5,
      "v": 48
    },
    {
      "midi": 93,
      "hit": false,
      "t": 329383.3333333348,
      "d": 91.66666666662786,
      "v": 64
    },
    {
      "midi": 93,
      "hit": false,
      "t": 329595.83333333477,
      "d": 212.5000000000582,
      "v": 89
    },
    {
      "midi": 87,
      "hit": false,
      "t": 329600.00000000146,
      "d": 91.66666666668607,
      "v": 127
    },
    {
      "midi": 88,
      "hit": false,
      "t": 329600.00000000146,
      "d": 225.0000000000582,
      "v": 84
    },
    {
      "midi": 87,
      "hit": false,
      "t": 329808.3333333348,
      "d": 112.5,
      "v": 93
    },
    {
      "midi": 86,
      "hit": false,
      "t": 329991.66666666814,
      "d": 125,
      "v": 93
    },
    {
      "midi": 84,
      "hit": false,
      "t": 330195.8333333348,
      "d": 87.5,
      "v": 111
    },
    {
      "midi": 86,
      "hit": false,
      "t": 330412.50000000146,
      "d": 187.5,
      "v": 127
    },
    {
      "midi": 84,
      "hit": false,
      "t": 330620.83333333477,
      "d": 83.33333333331393,
      "v": 39
    },
    {
      "midi": 81,
      "hit": false,
      "t": 330804.1666666681,
      "d": 150,
      "v": 96
    },
    {
      "midi": 84,
      "hit": false,
      "t": 331000.0000000014,
      "d": 83.33333333331393,
      "v": 91
    },
    {
      "midi": 81,
      "hit": false,
      "t": 331187.5000000014,
      "d": 125,
      "v": 81
    },
    {
      "midi": 87,
      "hit": false,
      "t": 331187.5000000014,
      "d": 137.5,
      "v": 127
    },
    {
      "midi": 84,
      "hit": false,
      "t": 331200.0000000014,
      "d": 54.16666666668607,
      "v": 64
    },
    {
      "midi": 88,
      "hit": false,
      "t": 331200.0000000014,
      "d": 133.33333333331393,
      "v": 127
    },
    {
      "midi": 81,
      "hit": false,
      "t": 331408.3333333347,
      "d": 79.16666666668607,
      "v": 64
    },
    {
      "midi": 86,
      "hit": false,
      "t": 331600.0000000014,
      "d": 150,
      "v": 127
    },
    {
      "midi": 81,
      "hit": false,
      "t": 331600.0000000014,
      "d": 166.66666666668607,
      "v": 127
    },
    {
      "midi": 84,
      "hit": false,
      "t": 331808.33333333477,
      "d": 95.83333333331393,
      "v": 72
    },
    {
      "midi": 81,
      "hit": false,
      "t": 332008.3333333347,
      "d": 145.83333333331393,
      "v": 81
    },
    {
      "midi": 80,
      "hit": false,
      "t": 332025.0000000014,
      "d": 50,
      "v": 14
    },
    {
      "midi": 84,
      "hit": false,
      "t": 332208.3333333347,
      "d": 133.33333333331393,
      "v": 124
    },
    {
      "midi": 81,
      "hit": false,
      "t": 332404.166666668,
      "d": 112.5,
      "v": 120
    },
    {
      "midi": 81,
      "hit": false,
      "t": 332587.50000000134,
      "d": 116.66666666668607,
      "v": 102
    },
    {
      "midi": 79,
      "hit": false,
      "t": 333229.166666668,
      "d": 87.5,
      "v": 127
    },
    {
      "midi": 81,
      "hit": false,
      "t": 333233.3333333347,
      "d": 150,
      "v": 117
    },
    {
      "midi": 79,
      "hit": false,
      "t": 333425.0000000014,
      "d": 100,
      "v": 72
    },
    {
      "midi": 76,
      "hit": false,
      "t": 333600.0000000014,
      "d": 116.66666666668607,
      "v": 127
    },
    {
      "midi": 75,
      "hit": false,
      "t": 333808.33333333477,
      "d": 129.16666666668607,
      "v": 89
    },
    {
      "midi": 74,
      "hit": false,
      "t": 333995.83333333477,
      "d": 150,
      "v": 77
    },
    {
      "midi": 72,
      "hit": false,
      "t": 334187.50000000146,
      "d": 87.5,
      "v": 86
    },
    {
      "midi": 74,
      "hit": false,
      "t": 334387.50000000146,
      "d": 154.16666666668607,
      "v": 126
    },
    {
      "midi": 72,
      "hit": false,
      "t": 334587.50000000146,
      "d": 83.33333333331393,
      "v": 96
    },
    {
      "midi": 72,
      "hit": false,
      "t": 334775.00000000146,
      "d": 112.49999999994179,
      "v": 84
    },
    {
      "midi": 75,
      "hit": false,
      "t": 334783.33333333477,
      "d": 141.66666666662786,
      "v": 99
    },
    {
      "midi": 76,
      "hit": false,
      "t": 334795.83333333477,
      "d": 145.83333333331393,
      "v": 93
    },
    {
      "midi": 72,
      "hit": false,
      "t": 335004.1666666681,
      "d": 66.66666666668607,
      "v": 61
    },
    {
      "midi": 74,
      "hit": false,
      "t": 335191.6666666681,
      "d": 170.83333333331393,
      "v": 126
    },
    {
      "midi": 72,
      "hit": false,
      "t": 335395.8333333347,
      "d": 120.83333333331393,
      "v": 96
    },
    {
      "midi": 69,
      "hit": false,
      "t": 335600.00000000134,
      "d": 337.5,
      "v": 105
    },
    {
      "midi": 72,
      "hit": false,
      "t": 335816.666666668,
      "d": 204.16666666668607,
      "v": 124
    },
    {
      "midi": 53,
      "hit": false,
      "t": 336016.666666668,
      "d": 1062.5000000000582,
      "v": 127
    },
    {
      "midi": 69,
      "hit": false,
      "t": 336208.3333333347,
      "d": 120.83333333337214,
      "v": 84
    },
    {
      "midi": 75,
      "hit": false,
      "t": 336212.5000000014,
      "d": 91.66666666668607,
      "v": 117
    },
    {
      "midi": 76,
      "hit": false,
      "t": 336216.6666666681,
      "d": 104.16666666668607,
      "v": 124
    },
    {
      "midi": 74,
      "hit": false,
      "t": 336425.0000000014,
      "d": 125,
      "v": 79
    },
    {
      "midi": 69,
      "hit": false,
      "t": 336425.0000000014,
      "d": 175,
      "v": 55
    },
    {
      "midi": 72,
      "hit": false,
      "t": 336608.3333333347,
      "d": 87.5,
      "v": 111
    },
    {
      "midi": 69,
      "hit": false,
      "t": 336825.0000000014,
      "d": 187.5,
      "v": 126
    },
    {
      "midi": 74,
      "hit": false,
      "t": 336829.1666666681,
      "d": 133.33333333331393,
      "v": 111
    },
    {
      "midi": 65,
      "hit": false,
      "t": 336829.1666666681,
      "d": 237.5,
      "v": 127
    },
    {
      "midi": 72,
      "hit": false,
      "t": 337029.1666666681,
      "d": 104.16666666668607,
      "v": 72
    },
    {
      "midi": 69,
      "hit": false,
      "t": 337216.6666666681,
      "d": 120.83333333331393,
      "v": 79
    },
    {
      "midi": 67,
      "hit": false,
      "t": 337416.6666666681,
      "d": 112.5,
      "v": 124
    },
    {
      "midi": 69,
      "hit": false,
      "t": 337616.6666666681,
      "d": 241.66666666668607,
      "v": 127
    },
    {
      "midi": 55,
      "hit": false,
      "t": 337616.6666666681,
      "d": 650,
      "v": 127
    },
    {
      "midi": 67,
      "hit": false,
      "t": 337633.33333333477,
      "d": 45.83333333331393,
      "v": 64
    },
    {
      "midi": 67,
      "hit": false,
      "t": 337816.6666666681,
      "d": 125,
      "v": 127
    },
    {
      "midi": 64,
      "hit": false,
      "t": 338016.6666666681,
      "d": 116.66666666668607,
      "v": 96
    },
    {
      "midi": 63,
      "hit": false,
      "t": 338216.6666666681,
      "d": 116.66666666668607,
      "v": 64
    },
    {
      "midi": 62,
      "hit": false,
      "t": 338400.00000000146,
      "d": 125,
      "v": 93
    },
    {
      "midi": 60,
      "hit": false,
      "t": 338608.33333333477,
      "d": 579.1666666666861,
      "v": 127
    },
    {
      "midi": 57,
      "hit": false,
      "t": 338816.6666666681,
      "d": 700.0000000000582,
      "v": 127
    },
    {
      "midi": 45,
      "hit": false,
      "t": 339187.50000000146,
      "d": 1241.666666666686,
      "v": 127
    },
    {
      "midi": 57,
      "hit": false,
      "t": 339979.16666666814,
      "d": 1870.833333333314,
      "v": 124
    },
    {
      "midi": 69,
      "hit": false,
      "t": 340204.16666666814,
      "d": 104.16666666668607,
      "v": 66
    },
    {
      "midi": 72,
      "hit": false,
      "t": 340408.3333333348,
      "d": 112.5,
      "v": 127
    },
    {
      "midi": 74,
      "hit": false,
      "t": 340608.3333333348,
      "d": 108.33333333331393,
      "v": 108
    },
    {
      "midi": 75,
      "hit": false,
      "t": 340812.50000000146,
      "d": 145.83333333331393,
      "v": 127
    },
    {
      "midi": 76,
      "hit": false,
      "t": 341012.50000000146,
      "d": 137.5,
      "v": 74
    },
    {
      "midi": 79,
      "hit": false,
      "t": 341216.66666666814,
      "d": 112.5,
      "v": 127
    },
    {
      "midi": 81,
      "hit": false,
      "t": 341420.8333333348,
      "d": 112.5,
      "v": 105
    },
    {
      "midi": 84,
      "hit": false,
      "t": 341629.16666666814,
      "d": 104.16666666668607,
      "v": 124
    },
    {
      "midi": 81,
      "hit": false,
      "t": 341816.66666666814,
      "d": 108.33333333331393,
      "v": 64
    },
    {
      "midi": 86,
      "hit": false,
      "t": 342008.33333333477,
      "d": 245.83333333337214,
      "v": 84
    },
    {
      "midi": 84,
      "hit": false,
      "t": 342187.50000000146,
      "d": 595.8333333333139,
      "v": 96
    },
    {
      "midi": 57,
      "hit": false,
      "t": 342395.8333333348,
      "d": 2825,
      "v": 127
    },
    {
      "midi": 81,
      "hit": false,
      "t": 342812.50000000146,
      "d": 195.83333333331393,
      "v": 108
    },
    {
      "midi": 81,
      "hit": false,
      "t": 343416.6666666681,
      "d": 116.66666666668607,
      "v": 79
    },
    {
      "midi": 87,
      "hit": false,
      "t": 343608.33333333477,
      "d": 95.83333333331393,
      "v": 127
    },
    {
      "midi": 81,
      "hit": false,
      "t": 343616.6666666681,
      "d": 112.5,
      "v": 124
    },
    {
      "midi": 88,
      "hit": false,
      "t": 343808.33333333477,
      "d": 100,
      "v": 93
    },
    {
      "midi": 81,
      "hit": false,
      "t": 343808.33333333477,
      "d": 116.66666666668607,
      "v": 72
    },
    {
      "midi": 91,
      "hit": false,
      "t": 344004.16666666814,
      "d": 125,
      "v": 127
    },
    {
      "midi": 81,
      "hit": false,
      "t": 344016.66666666814,
      "d": 100,
      "v": 84
    },
    {
      "midi": 81,
      "hit": false,
      "t": 344204.16666666814,
      "d": 91.66666666668607,
      "v": 61
    },
    {
      "midi": 93,
      "hit": false,
      "t": 344383.3333333348,
      "d": 125,
      "v": 111
    },
    {
      "midi": 81,
      "hit": false,
      "t": 344387.5000000015,
      "d": 183.33333333331393,
      "v": 102
    },
    {
      "midi": 81,
      "hit": false,
      "t": 344595.8333333348,
      "d": 116.66666666668607,
      "v": 39
    },
    {
      "midi": 91,
      "hit": false,
      "t": 344600.0000000015,
      "d": 104.16666666668607,
      "v": 127
    },
    {
      "midi": 81,
      "hit": false,
      "t": 344808.3333333348,
      "d": 120.83333333331393,
      "v": 79
    },
    {
      "midi": 88,
      "hit": false,
      "t": 344816.66666666814,
      "d": 133.33333333331393,
      "v": 127
    },
    {
      "midi": 87,
      "hit": false,
      "t": 345000.00000000146,
      "d": 87.5,
      "v": 108
    },
    {
      "midi": 81,
      "hit": false,
      "t": 345008.33333333477,
      "d": 66.66666666668607,
      "v": 55
    },
    {
      "midi": 81,
      "hit": false,
      "t": 345200.00000000146,
      "d": 225.0000000000582,
      "v": 89
    },
    {
      "midi": 86,
      "hit": false,
      "t": 345204.16666666814,
      "d": 133.33333333337214,
      "v": 124
    },
    {
      "midi": 84,
      "hit": false,
      "t": 345400.0000000015,
      "d": 195.83333333337214,
      "v": 102
    },
    {
      "midi": 57,
      "hit": false,
      "t": 345608.3333333349,
      "d": 545.8333333333139,
      "v": 102
    },
    {
      "midi": 81,
      "hit": false,
      "t": 345608.3333333349,
      "d": 583.3333333333139,
      "v": 127
    }
  ]
}