{
  "jsonPath": "Rock/Modern Rock/Oasis/dont-look-back-in-anger.json",
  "path": "Rock\\Modern Rock\\Oasis\\Dont Look Back In Anger.mid",
  "name": "Dont Look Back In Anger",
  "difficulty": "Advanced",
  "bpm": 82.00003553334874,
  "notes": [
    {
      "midi": 60,
      "hit": false,
      "t": 2926.828,
      "d": 411.5851875000003,
      "v": 96
    },
    {
      "midi": 52,
      "hit": false,
      "t": 2926.828,
      "d": 426.82908333333353,
      "v": 110
    },
    {
      "midi": 55,
      "hit": false,
      "t": 2926.828,
      "d": 426.82908333333353,
      "v": 96
    },
    {
      "midi": 36,
      "hit": false,
      "t": 2926.828,
      "d": 2576.218395833334,
      "v": 105
    },
    {
      "midi": 48,
      "hit": false,
      "t": 3292.6815,
      "d": 129.57311458333334,
      "v": 70
    },
    {
      "midi": 52,
      "hit": false,
      "t": 3658.5350000000003,
      "d": 403.96323958333414,
      "v": 105
    },
    {
      "midi": 55,
      "hit": false,
      "t": 3658.5350000000003,
      "d": 403.96323958333414,
      "v": 86
    },
    {
      "midi": 60,
      "hit": false,
      "t": 3658.5350000000003,
      "d": 403.96323958333414,
      "v": 89
    },
    {
      "midi": 48,
      "hit": false,
      "t": 4024.388500000001,
      "d": 129.57311458333334,
      "v": 83
    },
    {
      "midi": 55,
      "hit": false,
      "t": 4390.242000000001,
      "d": 381.0973958333334,
      "v": 105
    },
    {
      "midi": 60,
      "hit": false,
      "t": 4390.242000000001,
      "d": 381.0973958333334,
      "v": 96
    },
    {
      "midi": 52,
      "hit": false,
      "t": 4390.242000000001,
      "d": 396.3412916666666,
      "v": 115
    },
    {
      "midi": 48,
      "hit": false,
      "t": 4756.095500000001,
      "d": 160.0609062499998,
      "v": 86
    },
    {
      "midi": 52,
      "hit": false,
      "t": 5121.949000000001,
      "d": 320.1218124999996,
      "v": 110
    },
    {
      "midi": 60,
      "hit": false,
      "t": 5121.949000000001,
      "d": 335.3657083333328,
      "v": 92
    },
    {
      "midi": 55,
      "hit": false,
      "t": 5121.949000000001,
      "d": 365.85349999999926,
      "v": 96
    },
    {
      "midi": 48,
      "hit": false,
      "t": 5487.802500000001,
      "d": 137.19506249999995,
      "v": 92
    },
    {
      "midi": 53,
      "hit": false,
      "t": 5853.656000000001,
      "d": 381.0973958333325,
      "v": 96
    },
    {
      "midi": 60,
      "hit": false,
      "t": 5853.656000000001,
      "d": 388.7193437499991,
      "v": 100
    },
    {
      "midi": 57,
      "hit": false,
      "t": 5853.656000000001,
      "d": 396.3412916666657,
      "v": 92
    },
    {
      "midi": 41,
      "hit": false,
      "t": 5853.656000000001,
      "d": 2621.9500833333313,
      "v": 92
    },
    {
      "midi": 48,
      "hit": false,
      "t": 6219.5095,
      "d": 129.57311458333334,
      "v": 78
    },
    {
      "midi": 60,
      "hit": false,
      "t": 6585.363,
      "d": 365.85350000000017,
      "v": 100
    },
    {
      "midi": 57,
      "hit": false,
      "t": 6585.363,
      "d": 373.4754479166668,
      "v": 105
    },
    {
      "midi": 53,
      "hit": false,
      "t": 6585.363,
      "d": 381.0973958333334,
      "v": 105
    },
    {
      "midi": 48,
      "hit": false,
      "t": 6951.2165,
      "d": 114.32921875000011,
      "v": 86
    },
    {
      "midi": 53,
      "hit": false,
      "t": 7317.070000000001,
      "d": 320.1218124999996,
      "v": 105
    },
    {
      "midi": 60,
      "hit": false,
      "t": 7317.070000000001,
      "d": 350.60960416666603,
      "v": 105
    },
    {
      "midi": 57,
      "hit": false,
      "t": 7317.070000000001,
      "d": 373.47544791666587,
      "v": 110
    },
    {
      "midi": 48,
      "hit": false,
      "t": 7682.9235,
      "d": 83.84142708333366,
      "v": 80
    },
    {
      "midi": 53,
      "hit": false,
      "t": 8048.777,
      "d": 350.60960416666603,
      "v": 110
    },
    {
      "midi": 60,
      "hit": false,
      "t": 8048.777,
      "d": 365.85349999999926,
      "v": 92
    },
    {
      "midi": 57,
      "hit": false,
      "t": 8048.777,
      "d": 396.3412916666657,
      "v": 105
    },
    {
      "midi": 48,
      "hit": false,
      "t": 8414.6305,
      "d": 91.46337499999936,
      "v": 89
    },
    {
      "midi": 60,
      "hit": false,
      "t": 8780.483999999999,
      "d": 381.0973958333325,
      "v": 96
    },
    {
      "midi": 52,
      "hit": false,
      "t": 8780.483999999999,
      "d": 403.9632395833323,
      "v": 110
    },
    {
      "midi": 55,
      "hit": false,
      "t": 8780.483999999999,
      "d": 403.9632395833323,
      "v": 96
    },
    {
      "midi": 36,
      "hit": false,
      "t": 8780.483999999999,
      "d": 2637.1939791666628,
      "v": 92
    },
    {
      "midi": 48,
      "hit": false,
      "t": 9146.337499999998,
      "d": 114.3292187499992,
      "v": 74
    },
    {
      "midi": 60,
      "hit": false,
      "t": 9512.190999999997,
      "d": 365.85349999999926,
      "v": 89
    },
    {
      "midi": 55,
      "hit": false,
      "t": 9512.190999999997,
      "d": 381.0973958333325,
      "v": 92
    },
    {
      "midi": 52,
      "hit": false,
      "t": 9512.190999999997,
      "d": 388.7193437499991,
      "v": 110
    },
    {
      "midi": 48,
      "hit": false,
      "t": 9878.044499999996,
      "d": 91.46337499999936,
      "v": 80
    },
    {
      "midi": 60,
      "hit": false,
      "t": 10243.897999999996,
      "d": 350.60960416666603,
      "v": 96
    },
    {
      "midi": 55,
      "hit": false,
      "t": 10243.897999999996,
      "d": 365.85349999999926,
      "v": 96
    },
    {
      "midi": 52,
      "hit": false,
      "t": 10243.897999999996,
      "d": 373.47544791666587,
      "v": 110
    },
    {
      "midi": 48,
      "hit": false,
      "t": 10609.751499999995,
      "d": 205.79259375000038,
      "v": 86
    },
    {
      "midi": 60,
      "hit": false,
      "t": 10975.604999999996,
      "d": 403.9632395833323,
      "v": 96
    },
    {
      "midi": 52,
      "hit": false,
      "t": 10975.604999999996,
      "d": 419.20713541666555,
      "v": 105
    },
    {
      "midi": 55,
      "hit": false,
      "t": 10975.604999999996,
      "d": 449.694927083332,
      "v": 96
    },
    {
      "midi": 48,
      "hit": false,
      "t": 11341.458499999995,
      "d": 152.43895833333227,
      "v": 100
    },
    {
      "midi": 53,
      "hit": false,
      "t": 11707.311999999994,
      "d": 358.23155208333264,
      "v": 96
    },
    {
      "midi": 60,
      "hit": false,
      "t": 11707.311999999994,
      "d": 373.47544791666587,
      "v": 96
    },
    {
      "midi": 57,
      "hit": false,
      "t": 11707.311999999994,
      "d": 396.3412916666657,
      "v": 100
    },
    {
      "midi": 41,
      "hit": false,
      "t": 11707.311999999994,
      "d": 2820.1207291666633,
      "v": 86
    },
    {
      "midi": 48,
      "hit": false,
      "t": 12073.165499999994,
      "d": 144.81701041666565,
      "v": 78
    },
    {
      "midi": 53,
      "hit": false,
      "t": 12439.018999999993,
      "d": 335.3657083333328,
      "v": 100
    },
    {
      "midi": 60,
      "hit": false,
      "t": 12439.018999999993,
      "d": 381.0973958333325,
      "v": 100
    },
    {
      "midi": 57,
      "hit": false,
      "t": 12439.018999999993,
      "d": 411.58518749999894,
      "v": 100
    },
    {
      "midi": 48,
      "hit": false,
      "t": 12804.872499999992,
      "d": 121.95116666666581,
      "v": 83
    },
    {
      "midi": 53,
      "hit": false,
      "t": 13170.725999999991,
      "d": 327.7437604166662,
      "v": 110
    },
    {
      "midi": 60,
      "hit": false,
      "t": 13170.725999999991,
      "d": 350.60960416666603,
      "v": 100
    },
    {
      "midi": 57,
      "hit": false,
      "t": 13170.725999999991,
      "d": 365.85349999999926,
      "v": 105
    },
    {
      "midi": 48,
      "hit": false,
      "t": 13536.57949999999,
      "d": 121.95116666666581,
      "v": 80
    },
    {
      "midi": 57,
      "hit": false,
      "t": 13902.43299999999,
      "d": 342.98765625000124,
      "v": 86
    },
    {
      "midi": 60,
      "hit": false,
      "t": 13902.43299999999,
      "d": 350.60960416666785,
      "v": 96
    },
    {
      "midi": 53,
      "hit": false,
      "t": 13902.43299999999,
      "d": 365.8535000000011,
      "v": 105
    },
    {
      "midi": 48,
      "hit": false,
      "t": 14268.286499999991,
      "d": 266.7681770833333,
      "v": 92
    },
    {
      "midi": 64,
      "hit": false,
      "t": 14634.13999999999,
      "d": 556.4021979166664,
      "v": 69
    },
    {
      "midi": 55,
      "hit": false,
      "t": 14634.13999999999,
      "d": 564.024145833333,
      "v": 79
    },
    {
      "midi": 60,
      "hit": false,
      "t": 14634.13999999999,
      "d": 571.6460937499996,
      "v": 93
    },
    {
      "midi": 48,
      "hit": false,
      "t": 14634.13999999999,
      "d": 1143.2921874999993,
      "v": 98
    },
    {
      "midi": 55,
      "hit": false,
      "t": 15365.84699999999,
      "d": 304.87791666666635,
      "v": 75
    },
    {
      "midi": 60,
      "hit": false,
      "t": 15365.84699999999,
      "d": 685.9753124999988,
      "v": 98
    },
    {
      "midi": 64,
      "hit": false,
      "t": 15365.84699999999,
      "d": 685.9753124999988,
      "v": 83
    },
    {
      "midi": 55,
      "hit": false,
      "t": 15731.70049999999,
      "d": 297.25596874999974,
      "v": 66
    },
    {
      "midi": 48,
      "hit": false,
      "t": 15914.62724999999,
      "d": 182.92674999999872,
      "v": 72
    },
    {
      "midi": 55,
      "hit": false,
      "t": 16097.55399999999,
      "d": 609.7558333333327,
      "v": 72
    },
    {
      "midi": 59,
      "hit": false,
      "t": 16097.55399999999,
      "d": 609.7558333333327,
      "v": 88
    },
    {
      "midi": 62,
      "hit": false,
      "t": 16097.55399999999,
      "d": 609.7558333333327,
      "v": 83
    },
    {
      "midi": 43,
      "hit": false,
      "t": 16097.55399999999,
      "d": 1143.2921874999993,
      "v": 72
    },
    {
      "midi": 55,
      "hit": false,
      "t": 16829.260999999988,
      "d": 624.9997291666659,
      "v": 88
    },
    {
      "midi": 59,
      "hit": false,
      "t": 16829.260999999988,
      "d": 640.2436249999992,
      "v": 103
    },
    {
      "midi": 62,
      "hit": false,
      "t": 16829.260999999988,
      "d": 655.4875208333324,
      "v": 98
    },
    {
      "midi": 43,
      "hit": false,
      "t": 17378.041249999987,
      "d": 167.6828541666655,
      "v": 55
    },
    {
      "midi": 57,
      "hit": false,
      "t": 17560.967999999986,
      "d": 609.7558333333327,
      "v": 69
    },
    {
      "midi": 64,
      "hit": false,
      "t": 17560.967999999986,
      "d": 609.7558333333327,
      "v": 69
    },
    {
      "midi": 60,
      "hit": false,
      "t": 17560.967999999986,
      "d": 647.8655729166676,
      "v": 83
    },
    {
      "midi": 45,
      "hit": false,
      "t": 17560.967999999986,
      "d": 1204.2677708333358,
      "v": 75
    },
    {
      "midi": 57,
      "hit": false,
      "t": 18292.67499999999,
      "d": 289.63402083333494,
      "v": 88
    },
    {
      "midi": 64,
      "hit": false,
      "t": 18292.67499999999,
      "d": 594.5119375000031,
      "v": 93
    },
    {
      "midi": 60,
      "hit": false,
      "t": 18292.67499999999,
      "d": 647.8655729166712,
      "v": 103
    },
    {
      "midi": 57,
      "hit": false,
      "t": 18658.52849999999,
      "d": 221.0364895833336,
      "v": 66
    },
    {
      "midi": 56,
      "hit": false,
      "t": 19024.381999999994,
      "d": 571.6460937500015,
      "v": 83
    },
    {
      "midi": 62,
      "hit": false,
      "t": 19024.381999999994,
      "d": 571.6460937500015,
      "v": 75
    },
    {
      "midi": 59,
      "hit": false,
      "t": 19024.381999999994,
      "d": 579.2680416666699,
      "v": 98
    },
    {
      "midi": 40,
      "hit": false,
      "t": 19024.381999999994,
      "d": 1128.048291666666,
      "v": 88
    },
    {
      "midi": 56,
      "hit": false,
      "t": 19756.088999999996,
      "d": 259.14622916666485,
      "v": 93
    },
    {
      "midi": 59,
      "hit": false,
      "t": 19756.088999999996,
      "d": 449.694927083332,
      "v": 103
    },
    {
      "midi": 64,
      "hit": false,
      "t": 19756.088999999996,
      "d": 663.1094687500008,
      "v": 88
    },
    {
      "midi": 56,
      "hit": false,
      "t": 20121.942499999994,
      "d": 259.1462291666685,
      "v": 72
    },
    {
      "midi": 40,
      "hit": false,
      "t": 20304.869249999996,
      "d": 144.81701041666747,
      "v": 63
    },
    {
      "midi": 53,
      "hit": false,
      "t": 20487.796,
      "d": 602.1338854166679,
      "v": 79
    },
    {
      "midi": 57,
      "hit": false,
      "t": 20487.796,
      "d": 617.3777812500011,
      "v": 88
    },
    {
      "midi": 60,
      "hit": false,
      "t": 20487.796,
      "d": 624.9997291666696,
      "v": 79
    },
    {
      "midi": 41,
      "hit": false,
      "t": 20487.796,
      "d": 1036.5849166666703,
      "v": 93
    },
    {
      "midi": 53,
      "hit": false,
      "t": 21219.503,
      "d": 304.87791666666817,
      "v": 75
    },
    {
      "midi": 57,
      "hit": false,
      "t": 21219.503,
      "d": 632.6216770833344,
      "v": 98
    },
    {
      "midi": 60,
      "hit": false,
      "t": 21219.503,
      "d": 685.9753125000025,
      "v": 93
    },
    {
      "midi": 53,
      "hit": false,
      "t": 21585.3565,
      "d": 243.90233333333163,
      "v": 55
    },
    {
      "midi": 41,
      "hit": false,
      "t": 21585.3565,
      "d": 335.3657083333346,
      "v": 83
    },
    {
      "midi": 55,
      "hit": false,
      "t": 21951.210000000003,
      "d": 586.8899895833347,
      "v": 88
    },
    {
      "midi": 59,
      "hit": false,
      "t": 21951.210000000003,
      "d": 594.5119375000031,
      "v": 88
    },
    {
      "midi": 43,
      "hit": false,
      "t": 21951.210000000003,
      "d": 1082.31660416667,
      "v": 93
    },
    {
      "midi": 55,
      "hit": false,
      "t": 22682.917000000005,
      "d": 304.87791666666817,
      "v": 79
    },
    {
      "midi": 59,
      "hit": false,
      "t": 22682.917000000005,
      "d": 617.3777812500011,
      "v": 98
    },
    {
      "midi": 62,
      "hit": false,
      "t": 22682.917000000005,
      "d": 663.1094687500045,
      "v": 93
    },
    {
      "midi": 55,
      "hit": false,
      "t": 23048.770500000006,
      "d": 259.1462291666685,
      "v": 66
    },
    {
      "midi": 43,
      "hit": false,
      "t": 23231.697250000005,
      "d": 167.68285416667277,
      "v": 63
    },
    {
      "midi": 55,
      "hit": false,
      "t": 23414.62400000001,
      "d": 609.7558333333327,
      "v": 83
    },
    {
      "midi": 60,
      "hit": false,
      "t": 23414.62400000001,
      "d": 632.6216770833344,
      "v": 98
    },
    {
      "midi": 64,
      "hit": false,
      "t": 23414.62400000001,
      "d": 640.2436250000028,
      "v": 88
    },
    {
      "midi": 48,
      "hit": false,
      "t": 23414.62400000001,
      "d": 907.0118020833361,
      "v": 98
    },
    {
      "midi": 55,
      "hit": false,
      "t": 24146.331000000013,
      "d": 564.024145833333,
      "v": 88
    },
    {
      "midi": 60,
      "hit": false,
      "t": 24146.331000000013,
      "d": 579.2680416666662,
      "v": 103
    },
    {
      "midi": 64,
      "hit": false,
      "t": 24146.331000000013,
      "d": 602.1338854166679,
      "v": 93
    },
    {
      "midi": 48,
      "hit": false,
      "t": 24512.184500000014,
      "d": 251.52428125000006,
      "v": 93
    },
    {
      "midi": 57,
      "hit": false,
      "t": 24878.038000000015,
      "d": 632.6216770833344,
      "v": 93
    },
    {
      "midi": 60,
      "hit": false,
      "t": 24878.038000000015,
      "d": 647.8655729166676,
      "v": 107
    },
    {
      "midi": 45,
      "hit": false,
      "t": 24878.038000000015,
      "d": 685.9753125000025,
      "v": 93
    },
    {
      "midi": 55,
      "hit": false,
      "t": 25609.745000000017,
      "d": 609.7558333333327,
      "v": 88
    },
    {
      "midi": 59,
      "hit": false,
      "t": 25609.745000000017,
      "d": 617.3777812500011,
      "v": 103
    },
    {
      "midi": 43,
      "hit": false,
      "t": 25609.745000000017,
      "d": 632.6216770833344,
      "v": 88
    },
    {
      "midi": 64,
      "hit": false,
      "t": 26341.45200000002,
      "d": 556.4021979166682,
      "v": 69
    },
    {
      "midi": 55,
      "hit": false,
      "t": 26341.45200000002,
      "d": 564.0241458333367,
      "v": 79
    },
    {
      "midi": 60,
      "hit": false,
      "t": 26341.45200000002,
      "d": 571.6460937500051,
      "v": 93
    },
    {
      "midi": 48,
      "hit": false,
      "t": 26341.45200000002,
      "d": 1143.2921875000065,
      "v": 98
    },
    {
      "midi": 55,
      "hit": false,
      "t": 27073.159000000025,
      "d": 304.87791666666817,
      "v": 75
    },
    {
      "midi": 60,
      "hit": false,
      "t": 27073.159000000025,
      "d": 685.9753125000025,
      "v": 98
    },
    {
      "midi": 64,
      "hit": false,
      "t": 27073.159000000025,
      "d": 685.9753125000025,
      "v": 83
    },
    {
      "midi": 55,
      "hit": false,
      "t": 27439.012500000026,
      "d": 297.25596874999974,
      "v": 66
    },
    {
      "midi": 48,
      "hit": false,
      "t": 27621.939250000025,
      "d": 182.92675000000236,
      "v": 72
    },
    {
      "midi": 55,
      "hit": false,
      "t": 27804.866000000027,
      "d": 609.7558333333327,
      "v": 72
    },
    {
      "midi": 59,
      "hit": false,
      "t": 27804.866000000027,
      "d": 609.7558333333327,
      "v": 88
    },
    {
      "midi": 62,
      "hit": false,
      "t": 27804.866000000027,
      "d": 609.7558333333327,
      "v": 83
    },
    {
      "midi": 43,
      "hit": false,
      "t": 27804.866000000027,
      "d": 1143.2921874999993,
      "v": 72
    },
    {
      "midi": 55,
      "hit": false,
      "t": 28536.573000000026,
      "d": 624.9997291666659,
      "v": 88
    },
    {
      "midi": 59,
      "hit": false,
      "t": 28536.573000000026,
      "d": 640.2436249999992,
      "v": 103
    },
    {
      "midi": 62,
      "hit": false,
      "t": 28536.573000000026,
      "d": 655.4875208333324,
      "v": 98
    },
    {
      "midi": 43,
      "hit": false,
      "t": 29085.353250000026,
      "d": 167.6828541666655,
      "v": 55
    },
    {
      "midi": 57,
      "hit": false,
      "t": 29268.280000000024,
      "d": 609.7558333333327,
      "v": 69
    },
    {
      "midi": 64,
      "hit": false,
      "t": 29268.280000000024,
      "d": 609.7558333333327,
      "v": 69
    },
    {
      "midi": 60,
      "hit": false,
      "t": 29268.280000000024,
      "d": 647.8655729166676,
      "v": 83
    },
    {
      "midi": 45,
      "hit": false,
      "t": 29268.280000000024,
      "d": 1204.2677708333358,
      "v": 75
    },
    {
      "midi": 57,
      "hit": false,
      "t": 29999.987000000026,
      "d": 289.63402083333494,
      "v": 88
    },
    {
      "midi": 64,
      "hit": false,
      "t": 29999.987000000026,
      "d": 594.5119375000031,
      "v": 93
    },
    {
      "midi": 60,
      "hit": false,
      "t": 29999.987000000026,
      "d": 647.8655729166712,
      "v": 103
    },
    {
      "midi": 57,
      "hit": false,
      "t": 30365.840500000028,
      "d": 221.0364895833336,
      "v": 66
    },
    {
      "midi": 56,
      "hit": false,
      "t": 30731.694000000032,
      "d": 571.6460937500015,
      "v": 83
    },
    {
      "midi": 62,
      "hit": false,
      "t": 30731.694000000032,
      "d": 571.6460937500015,
      "v": 75
    },
    {
      "midi": 59,
      "hit": false,
      "t": 30731.694000000032,
      "d": 579.2680416666699,
      "v": 98
    },
    {
      "midi": 40,
      "hit": false,
      "t": 30731.694000000032,
      "d": 1128.0482916666697,
      "v": 88
    },
    {
      "midi": 56,
      "hit": false,
      "t": 31463.401000000034,
      "d": 259.1462291666685,
      "v": 93
    },
    {
      "midi": 59,
      "hit": false,
      "t": 31463.401000000034,
      "d": 449.69492708333564,
      "v": 103
    },
    {
      "midi": 64,
      "hit": false,
      "t": 31463.401000000034,
      "d": 663.1094687500045,
      "v": 88
    },
    {
      "midi": 56,
      "hit": false,
      "t": 31829.254500000035,
      "d": 259.1462291666685,
      "v": 72
    },
    {
      "midi": 40,
      "hit": false,
      "t": 32012.181250000038,
      "d": 144.81701041666747,
      "v": 63
    },
    {
      "midi": 53,
      "hit": false,
      "t": 32195.10800000004,
      "d": 602.1338854166643,
      "v": 79
    },
    {
      "midi": 57,
      "hit": false,
      "t": 32195.10800000004,
      "d": 617.3777812500011,
      "v": 88
    },
    {
      "midi": 60,
      "hit": false,
      "t": 32195.10800000004,
      "d": 624.9997291666696,
      "v": 79
    },
    {
      "midi": 41,
      "hit": false,
      "t": 32195.10800000004,
      "d": 1036.5849166666703,
      "v": 93
    },
    {
      "midi": 53,
      "hit": false,
      "t": 32926.815000000046,
      "d": 304.87791666666453,
      "v": 75
    },
    {
      "midi": 57,
      "hit": false,
      "t": 32926.815000000046,
      "d": 632.6216770833271,
      "v": 98
    },
    {
      "midi": 60,
      "hit": false,
      "t": 32926.815000000046,
      "d": 685.9753124999916,
      "v": 93
    },
    {
      "midi": 53,
      "hit": false,
      "t": 33292.66850000004,
      "d": 243.90233333333163,
      "v": 55
    },
    {
      "midi": 41,
      "hit": false,
      "t": 33292.66850000004,
      "d": 335.365708333331,
      "v": 83
    },
    {
      "midi": 55,
      "hit": false,
      "t": 33658.52200000004,
      "d": 586.889989583331,
      "v": 88
    },
    {
      "midi": 59,
      "hit": false,
      "t": 33658.52200000004,
      "d": 594.5119374999995,
      "v": 88
    },
    {
      "midi": 43,
      "hit": false,
      "t": 33658.52200000004,
      "d": 1082.31660416667,
      "v": 93
    },
    {
      "midi": 55,
      "hit": false,
      "t": 34390.22900000004,
      "d": 304.87791666666453,
      "v": 79
    },
    {
      "midi": 59,
      "hit": false,
      "t": 34390.22900000004,
      "d": 617.3777812500048,
      "v": 98
    },
    {
      "midi": 62,
      "hit": false,
      "t": 34390.22900000004,
      "d": 663.1094687500081,
      "v": 93
    },
    {
      "midi": 55,
      "hit": false,
      "t": 34756.08250000005,
      "d": 259.1462291666685,
      "v": 66
    },
    {
      "midi": 43,
      "hit": false,
      "t": 34939.00925000005,
      "d": 167.68285416666913,
      "v": 63
    },
    {
      "midi": 55,
      "hit": false,
      "t": 35121.93600000005,
      "d": 609.7558333333363,
      "v": 83
    },
    {
      "midi": 60,
      "hit": false,
      "t": 35121.93600000005,
      "d": 632.6216770833344,
      "v": 98
    },
    {
      "midi": 64,
      "hit": false,
      "t": 35121.93600000005,
      "d": 640.2436250000028,
      "v": 88
    },
    {
      "midi": 48,
      "hit": false,
      "t": 35121.93600000005,
      "d": 907.0118020833324,
      "v": 98
    },
    {
      "midi": 55,
      "hit": false,
      "t": 35853.643000000055,
      "d": 564.024145833333,
      "v": 88
    },
    {
      "midi": 60,
      "hit": false,
      "t": 35853.643000000055,
      "d": 579.2680416666699,
      "v": 103
    },
    {
      "midi": 64,
      "hit": false,
      "t": 35853.643000000055,
      "d": 602.1338854166679,
      "v": 93
    },
    {
      "midi": 48,
      "hit": false,
      "t": 36219.49650000005,
      "d": 251.52428125000733,
      "v": 93
    },
    {
      "midi": 57,
      "hit": false,
      "t": 36585.35000000006,
      "d": 632.6216770833344,
      "v": 93
    },
    {
      "midi": 60,
      "hit": false,
      "t": 36585.35000000006,
      "d": 647.8655729166712,
      "v": 107
    },
    {
      "midi": 45,
      "hit": false,
      "t": 36585.35000000006,
      "d": 685.9753125000061,
      "v": 93
    },
    {
      "midi": 55,
      "hit": false,
      "t": 37317.057000000066,
      "d": 609.7558333333363,
      "v": 88
    },
    {
      "midi": 59,
      "hit": false,
      "t": 37317.057000000066,
      "d": 617.3777812500048,
      "v": 103
    },
    {
      "midi": 43,
      "hit": false,
      "t": 37317.057000000066,
      "d": 632.6216770833416,
      "v": 88
    },
    {
      "midi": 57,
      "hit": false,
      "t": 38048.764000000076,
      "d": 388.71934375000274,
      "v": 100
    },
    {
      "midi": 53,
      "hit": false,
      "t": 38048.764000000076,
      "d": 640.2436250000028,
      "v": 110
    },
    {
      "midi": 41,
      "hit": false,
      "t": 38048.764000000076,
      "d": 907.0118020833324,
      "v": 105
    },
    {
      "midi": 53,
      "hit": false,
      "t": 38780.47100000008,
      "d": 586.889989583331,
      "v": 100
    },
    {
      "midi": 57,
      "hit": false,
      "t": 38780.47100000008,
      "d": 609.7558333333363,
      "v": 115
    },
    {
      "midi": 41,
      "hit": false,
      "t": 39146.324500000075,
      "d": 236.28038541667047,
      "v": 96
    },
    {
      "midi": 56,
      "hit": false,
      "t": 39512.17800000008,
      "d": 594.5119374999995,
      "v": 101
    },
    {
      "midi": 62,
      "hit": false,
      "t": 39512.17800000008,
      "d": 609.7558333333363,
      "v": 105
    },
    {
      "midi": 41,
      "hit": false,
      "t": 39512.17800000008,
      "d": 937.4995937499989,
      "v": 115
    },
    {
      "midi": 56,
      "hit": false,
      "t": 40243.88500000008,
      "d": 449.69492708332837,
      "v": 116
    },
    {
      "midi": 62,
      "hit": false,
      "t": 40243.88500000008,
      "d": 457.3168749999968,
      "v": 115
    },
    {
      "midi": 41,
      "hit": false,
      "t": 40609.73850000008,
      "d": 304.87791666666453,
      "v": 96
    },
    {
      "midi": 60,
      "hit": false,
      "t": 40975.59200000008,
      "d": 594.5119374999995,
      "v": 110
    },
    {
      "midi": 64,
      "hit": false,
      "t": 40975.59200000008,
      "d": 594.5119374999995,
      "v": 100
    },
    {
      "midi": 48,
      "hit": false,
      "t": 40975.59200000008,
      "d": 891.7679062500029,
      "v": 115
    },
    {
      "midi": 60,
      "hit": false,
      "t": 41707.29900000008,
      "d": 624.9997291666659,
      "v": 120
    },
    {
      "midi": 64,
      "hit": false,
      "t": 41707.29900000008,
      "d": 632.6216770833344,
      "v": 110
    },
    {
      "midi": 48,
      "hit": false,
      "t": 42073.15250000008,
      "d": 152.43895833333227,
      "v": 92
    },
    {
      "midi": 60,
      "hit": false,
      "t": 42439.00600000008,
      "d": 647.865572916664,
      "v": 105
    },
    {
      "midi": 64,
      "hit": false,
      "t": 42439.00600000008,
      "d": 647.865572916664,
      "v": 89
    },
    {
      "midi": 48,
      "hit": false,
      "t": 42439.00600000008,
      "d": 952.7434895833285,
      "v": 100
    },
    {
      "midi": 64,
      "hit": false,
      "t": 43170.713000000076,
      "d": 449.69492708332837,
      "v": 115
    },
    {
      "midi": 60,
      "hit": false,
      "t": 43170.713000000076,
      "d": 487.80466666666325,
      "v": 120
    },
    {
      "midi": 48,
      "hit": false,
      "t": 43536.56650000007,
      "d": 304.87791666666453,
      "v": 100
    },
    {
      "midi": 53,
      "hit": false,
      "t": 43902.42000000007,
      "d": 602.1338854166679,
      "v": 92
    },
    {
      "midi": 57,
      "hit": false,
      "t": 43902.42000000007,
      "d": 624.9997291666659,
      "v": 105
    },
    {
      "midi": 41,
      "hit": false,
      "t": 43902.42000000007,
      "d": 945.1215416666673,
      "v": 86
    },
    {
      "midi": 53,
      "hit": false,
      "t": 44634.12700000007,
      "d": 594.5119374999995,
      "v": 105
    },
    {
      "midi": 57,
      "hit": false,
      "t": 44634.12700000007,
      "d": 594.5119374999995,
      "v": 120
    },
    {
      "midi": 41,
      "hit": false,
      "t": 44999.98050000007,
      "d": 266.7681770833369,
      "v": 80
    },
    {
      "midi": 56,
      "hit": false,
      "t": 45365.834000000075,
      "d": 609.7558333333363,
      "v": 85
    },
    {
      "midi": 62,
      "hit": false,
      "t": 45365.834000000075,
      "d": 617.3777812500048,
      "v": 105
    },
    {
      "midi": 41,
      "hit": false,
      "t": 45365.834000000075,
      "d": 929.8776458333377,
      "v": 83
    },
    {
      "midi": 56,
      "hit": false,
      "t": 46097.54100000008,
      "d": 381.0973958333416,
      "v": 101
    },
    {
      "midi": 62,
      "hit": false,
      "t": 46097.54100000008,
      "d": 381.0973958333416,
      "v": 105
    },
    {
      "midi": 41,
      "hit": false,
      "t": 46463.39450000008,
      "d": 342.9876562500067,
      "v": 89
    },
    {
      "midi": 48,
      "hit": false,
      "t": 46829.24800000009,
      "d": 358.2315520833363,
      "v": 86
    },
    {
      "midi": 60,
      "hit": false,
      "t": 46829.24800000009,
      "d": 602.1338854166679,
      "v": 100
    },
    {
      "midi": 64,
      "hit": false,
      "t": 46829.24800000009,
      "d": 602.1338854166679,
      "v": 80
    },
    {
      "midi": 48,
      "hit": false,
      "t": 47195.10150000009,
      "d": 556.4021979166646,
      "v": 78
    },
    {
      "midi": 60,
      "hit": false,
      "t": 47560.95500000009,
      "d": 624.9997291666659,
      "v": 100
    },
    {
      "midi": 64,
      "hit": false,
      "t": 47560.95500000009,
      "d": 640.2436250000028,
      "v": 89
    },
    {
      "midi": 48,
      "hit": false,
      "t": 47926.80850000009,
      "d": 640.2436250000028,
      "v": 83
    },
    {
      "midi": 60,
      "hit": false,
      "t": 48292.66200000009,
      "d": 640.2436249999955,
      "v": 92
    },
    {
      "midi": 64,
      "hit": false,
      "t": 48292.66200000009,
      "d": 640.2436249999955,
      "v": 86
    },
    {
      "midi": 48,
      "hit": false,
      "t": 48658.51550000009,
      "d": 564.024145833333,
      "v": 92
    },
    {
      "midi": 60,
      "hit": false,
      "t": 49024.369000000086,
      "d": 442.0729791666672,
      "v": 115
    },
    {
      "midi": 64,
      "hit": false,
      "t": 49024.369000000086,
      "d": 472.56077083333366,
      "v": 110
    }
  ]
}