{
  "jsonPath": "Country/Alternative Country/Laura Cantrell/the-way-it-is.json",
  "path": "Country\\Alternative Country\\Laura Cantrell\\The Way It Is.mid",
  "name": "The Way It Is",
  "difficulty": "Advanced",
  "bpm": 110.00011000011,
  "notes": [
    {
      "midi": 45,
      "hit": false,
      "t": 4363.632,
      "d": 2181.8160000000007,
      "v": 106
    },
    {
      "midi": 57,
      "hit": false,
      "t": 4636.3589999999995,
      "d": 954.5445,
      "v": 68
    },
    {
      "midi": 66,
      "hit": false,
      "t": 4909.085999999999,
      "d": 272.72699999999986,
      "v": 78
    },
    {
      "midi": 68,
      "hit": false,
      "t": 5181.812999999999,
      "d": 818.1810000000005,
      "v": 116
    },
    {
      "midi": 57,
      "hit": false,
      "t": 5727.267,
      "d": 818.1810000000005,
      "v": 88
    },
    {
      "midi": 66,
      "hit": false,
      "t": 5999.994,
      "d": 409.09050000000025,
      "v": 78
    },
    {
      "midi": 68,
      "hit": false,
      "t": 6272.721,
      "d": 272.72700000000077,
      "v": 106
    },
    {
      "midi": 47,
      "hit": false,
      "t": 6545.448,
      "d": 2181.8160000000007,
      "v": 70
    },
    {
      "midi": 59,
      "hit": false,
      "t": 6818.175,
      "d": 1090.9079999999994,
      "v": 88
    },
    {
      "midi": 66,
      "hit": false,
      "t": 7090.902,
      "d": 272.72699999999986,
      "v": 84
    },
    {
      "midi": 68,
      "hit": false,
      "t": 7363.629,
      "d": 545.4539999999997,
      "v": 98
    },
    {
      "midi": 59,
      "hit": false,
      "t": 7909.083,
      "d": 818.1810000000014,
      "v": 92
    },
    {
      "midi": 66,
      "hit": false,
      "t": 8181.8099999999995,
      "d": 272.72700000000077,
      "v": 84
    },
    {
      "midi": 68,
      "hit": false,
      "t": 8454.537,
      "d": 272.72700000000077,
      "v": 116
    },
    {
      "midi": 49,
      "hit": false,
      "t": 8727.264000000001,
      "d": 2045.452500000003,
      "v": 106
    },
    {
      "midi": 56,
      "hit": false,
      "t": 8999.991000000002,
      "d": 954.5445000000018,
      "v": 84
    },
    {
      "midi": 63,
      "hit": false,
      "t": 9272.718000000003,
      "d": 272.72700000000077,
      "v": 84
    },
    {
      "midi": 64,
      "hit": false,
      "t": 9545.445000000003,
      "d": 545.4539999999997,
      "v": 96
    },
    {
      "midi": 56,
      "hit": false,
      "t": 10090.899000000003,
      "d": 681.817500000001,
      "v": 98
    },
    {
      "midi": 63,
      "hit": false,
      "t": 10363.626000000004,
      "d": 409.09050000000025,
      "v": 84
    },
    {
      "midi": 64,
      "hit": false,
      "t": 10636.353000000005,
      "d": 272.72699999999895,
      "v": 100
    },
    {
      "midi": 49,
      "hit": false,
      "t": 10909.080000000004,
      "d": 2181.8160000000044,
      "v": 84
    },
    {
      "midi": 56,
      "hit": false,
      "t": 11181.807000000004,
      "d": 545.4540000000015,
      "v": 72
    },
    {
      "midi": 63,
      "hit": false,
      "t": 11454.534000000005,
      "d": 272.72700000000077,
      "v": 78
    },
    {
      "midi": 64,
      "hit": false,
      "t": 11727.261000000006,
      "d": 545.4539999999997,
      "v": 106
    },
    {
      "midi": 56,
      "hit": false,
      "t": 12272.715000000006,
      "d": 272.72700000000077,
      "v": 90
    },
    {
      "midi": 63,
      "hit": false,
      "t": 12545.442000000006,
      "d": 272.72700000000077,
      "v": 78
    },
    {
      "midi": 64,
      "hit": false,
      "t": 12818.169000000007,
      "d": 272.72700000000077,
      "v": 96
    },
    {
      "midi": 45,
      "hit": false,
      "t": 13090.896000000008,
      "d": 2181.8160000000025,
      "v": 106
    },
    {
      "midi": 57,
      "hit": false,
      "t": 13363.623000000009,
      "d": 954.5445000000018,
      "v": 68
    },
    {
      "midi": 66,
      "hit": false,
      "t": 13636.35000000001,
      "d": 272.72700000000077,
      "v": 78
    },
    {
      "midi": 68,
      "hit": false,
      "t": 13909.07700000001,
      "d": 818.1810000000005,
      "v": 116
    },
    {
      "midi": 57,
      "hit": false,
      "t": 14454.53100000001,
      "d": 818.1810000000005,
      "v": 88
    },
    {
      "midi": 66,
      "hit": false,
      "t": 14727.25800000001,
      "d": 409.09050000000025,
      "v": 78
    },
    {
      "midi": 68,
      "hit": false,
      "t": 14999.985000000011,
      "d": 272.72699999999895,
      "v": 106
    },
    {
      "midi": 47,
      "hit": false,
      "t": 15272.71200000001,
      "d": 2181.815999999999,
      "v": 70
    },
    {
      "midi": 59,
      "hit": false,
      "t": 15545.439000000011,
      "d": 954.5445000000018,
      "v": 88
    },
    {
      "midi": 66,
      "hit": false,
      "t": 15818.166000000012,
      "d": 272.72700000000077,
      "v": 84
    },
    {
      "midi": 68,
      "hit": false,
      "t": 16090.893000000013,
      "d": 545.4539999999997,
      "v": 98
    },
    {
      "midi": 59,
      "hit": false,
      "t": 16636.347000000012,
      "d": 818.1809999999969,
      "v": 92
    },
    {
      "midi": 66,
      "hit": false,
      "t": 16909.07400000001,
      "d": 272.72699999999895,
      "v": 84
    },
    {
      "midi": 68,
      "hit": false,
      "t": 17181.80100000001,
      "d": 272.72699999999895,
      "v": 116
    },
    {
      "midi": 49,
      "hit": false,
      "t": 17454.52800000001,
      "d": 2045.4524999999921,
      "v": 106
    },
    {
      "midi": 56,
      "hit": false,
      "t": 17727.25500000001,
      "d": 954.5444999999963,
      "v": 84
    },
    {
      "midi": 63,
      "hit": false,
      "t": 17999.982000000007,
      "d": 272.72699999999895,
      "v": 84
    },
    {
      "midi": 64,
      "hit": false,
      "t": 18272.709000000006,
      "d": 545.4539999999979,
      "v": 96
    },
    {
      "midi": 56,
      "hit": false,
      "t": 18818.163000000004,
      "d": 681.8174999999974,
      "v": 98
    },
    {
      "midi": 63,
      "hit": false,
      "t": 19090.890000000003,
      "d": 409.0904999999984,
      "v": 84
    },
    {
      "midi": 64,
      "hit": false,
      "t": 19363.617000000002,
      "d": 272.72699999999895,
      "v": 100
    },
    {
      "midi": 49,
      "hit": false,
      "t": 19636.344,
      "d": 2181.8159999999953,
      "v": 84
    },
    {
      "midi": 56,
      "hit": false,
      "t": 19909.071,
      "d": 545.4539999999979,
      "v": 72
    },
    {
      "midi": 63,
      "hit": false,
      "t": 20181.798,
      "d": 272.72699999999895,
      "v": 78
    },
    {
      "midi": 64,
      "hit": false,
      "t": 20454.524999999998,
      "d": 545.4540000000015,
      "v": 106
    },
    {
      "midi": 56,
      "hit": false,
      "t": 20999.979,
      "d": 272.72699999999895,
      "v": 90
    },
    {
      "midi": 63,
      "hit": false,
      "t": 21272.706,
      "d": 272.72699999999895,
      "v": 78
    },
    {
      "midi": 64,
      "hit": false,
      "t": 21545.432999999997,
      "d": 272.72699999999895,
      "v": 96
    },
    {
      "midi": 45,
      "hit": false,
      "t": 21818.159999999996,
      "d": 2176.1341875,
      "v": 50
    },
    {
      "midi": 57,
      "hit": false,
      "t": 21818.159999999996,
      "d": 2176.1341875,
      "v": 50
    },
    {
      "midi": 61,
      "hit": false,
      "t": 21818.159999999996,
      "d": 2176.1341875,
      "v": 50
    },
    {
      "midi": 64,
      "hit": false,
      "t": 21818.159999999996,
      "d": 2181.815999999999,
      "v": 50
    },
    {
      "midi": 52,
      "hit": false,
      "t": 21818.16,
      "d": 687.4993125000001,
      "v": 110
    },
    {
      "midi": 57,
      "hit": false,
      "t": 21818.16,
      "d": 744.3174375000017,
      "v": 116
    },
    {
      "midi": 52,
      "hit": false,
      "t": 22636.341,
      "d": 1187.4988125000018,
      "v": 96
    },
    {
      "midi": 57,
      "hit": false,
      "t": 22636.341,
      "d": 1249.9987500000025,
      "v": 100
    },
    {
      "midi": 47,
      "hit": false,
      "t": 23999.975999999995,
      "d": 2181.815999999999,
      "v": 50
    },
    {
      "midi": 54,
      "hit": false,
      "t": 23999.975999999995,
      "d": 2181.815999999999,
      "v": 50
    },
    {
      "midi": 59,
      "hit": false,
      "t": 23999.975999999995,
      "d": 2181.815999999999,
      "v": 50
    },
    {
      "midi": 63,
      "hit": false,
      "t": 23999.975999999995,
      "d": 2181.815999999999,
      "v": 50
    },
    {
      "midi": 59,
      "hit": false,
      "t": 23999.976000000002,
      "d": 659.0902500000011,
      "v": 100
    },
    {
      "midi": 54,
      "hit": false,
      "t": 23999.976000000002,
      "d": 670.4538750000029,
      "v": 90
    },
    {
      "midi": 54,
      "hit": false,
      "t": 24818.157000000007,
      "d": 948.8626875000009,
      "v": 98
    },
    {
      "midi": 59,
      "hit": false,
      "t": 24818.157000000007,
      "d": 971.5899375000008,
      "v": 92
    },
    {
      "midi": 56,
      "hit": false,
      "t": 26181.791999999994,
      "d": 4357.950187499999,
      "v": 50
    },
    {
      "midi": 61,
      "hit": false,
      "t": 26181.791999999994,
      "d": 4357.950187499999,
      "v": 50
    },
    {
      "midi": 49,
      "hit": false,
      "t": 26181.791999999994,
      "d": 4363.631999999998,
      "v": 50
    },
    {
      "midi": 68,
      "hit": false,
      "t": 26181.791999999994,
      "d": 4363.631999999998,
      "v": 50
    },
    {
      "midi": 61,
      "hit": false,
      "t": 26181.79200000001,
      "d": 698.8629375000019,
      "v": 90
    },
    {
      "midi": 56,
      "hit": false,
      "t": 26181.79200000001,
      "d": 715.9083750000027,
      "v": 98
    },
    {
      "midi": 56,
      "hit": false,
      "t": 26999.973000000013,
      "d": 1124.9988750000011,
      "v": 106
    },
    {
      "midi": 61,
      "hit": false,
      "t": 26999.973000000013,
      "d": 1130.6806875000002,
      "v": 106
    },
    {
      "midi": 56,
      "hit": false,
      "t": 28363.608000000015,
      "d": 681.817500000001,
      "v": 90
    },
    {
      "midi": 61,
      "hit": false,
      "t": 28363.608000000015,
      "d": 687.4993125000001,
      "v": 90
    },
    {
      "midi": 61,
      "hit": false,
      "t": 29181.789000000015,
      "d": 960.226312499999,
      "v": 116
    },
    {
      "midi": 56,
      "hit": false,
      "t": 29181.789000000015,
      "d": 982.953562499999,
      "v": 98
    },
    {
      "midi": 45,
      "hit": false,
      "t": 30545.42399999999,
      "d": 2181.815999999999,
      "v": 50
    },
    {
      "midi": 57,
      "hit": false,
      "t": 30545.42399999999,
      "d": 2181.815999999999,
      "v": 50
    },
    {
      "midi": 61,
      "hit": false,
      "t": 30545.42399999999,
      "d": 2181.815999999999,
      "v": 50
    },
    {
      "midi": 64,
      "hit": false,
      "t": 30545.42399999999,
      "d": 2181.815999999999,
      "v": 50
    },
    {
      "midi": 52,
      "hit": false,
      "t": 30545.424000000014,
      "d": 659.0902500000011,
      "v": 100
    },
    {
      "midi": 57,
      "hit": false,
      "t": 30545.424000000014,
      "d": 687.4993125000001,
      "v": 106
    },
    {
      "midi": 52,
      "hit": false,
      "t": 31363.605000000014,
      "d": 1153.4079375000001,
      "v": 106
    },
    {
      "midi": 57,
      "hit": false,
      "t": 31363.605000000014,
      "d": 1210.2260625000017,
      "v": 110
    },
    {
      "midi": 47,
      "hit": false,
      "t": 32727.23999999999,
      "d": 2176.1341875,
      "v": 50
    },
    {
      "midi": 59,
      "hit": false,
      "t": 32727.23999999999,
      "d": 2176.1341875,
      "v": 50
    },
    {
      "midi": 54,
      "hit": false,
      "t": 32727.23999999999,
      "d": 2181.815999999999,
      "v": 50
    },
    {
      "midi": 63,
      "hit": false,
      "t": 32727.23999999999,
      "d": 2181.815999999999,
      "v": 50
    },
    {
      "midi": 54,
      "hit": false,
      "t": 32727.240000000016,
      "d": 687.4993125000001,
      "v": 106
    },
    {
      "midi": 59,
      "hit": false,
      "t": 32727.240000000016,
      "d": 687.4993125000001,
      "v": 100
    },
    {
      "midi": 54,
      "hit": false,
      "t": 33545.42100000002,
      "d": 903.4081874999974,
      "v": 98
    },
    {
      "midi": 59,
      "hit": false,
      "t": 33545.42100000002,
      "d": 943.1808749999982,
      "v": 96
    },
    {
      "midi": 49,
      "hit": false,
      "t": 34909.05599999999,
      "d": 4363.631999999998,
      "v": 50
    },
    {
      "midi": 56,
      "hit": false,
      "t": 34909.05599999999,
      "d": 4363.631999999998,
      "v": 50
    },
    {
      "midi": 61,
      "hit": false,
      "t": 34909.05599999999,
      "d": 4363.631999999998,
      "v": 50
    },
    {
      "midi": 68,
      "hit": false,
      "t": 34909.05599999999,
      "d": 4363.631999999998,
      "v": 50
    },
    {
      "midi": 64,
      "hit": false,
      "t": 34909.05600000001,
      "d": 272.72699999999895,
      "v": 126
    },
    {
      "midi": 63,
      "hit": false,
      "t": 35181.78300000001,
      "d": 272.72699999999895,
      "v": 126
    },
    {
      "midi": 56,
      "hit": false,
      "t": 35454.51000000001,
      "d": 2999.9969999999958,
      "v": 126
    },
    {
      "midi": 63,
      "hit": false,
      "t": 35727.23700000001,
      "d": 545.4539999999979,
      "v": 122
    },
    {
      "midi": 68,
      "hit": false,
      "t": 36272.691000000006,
      "d": 545.4539999999979,
      "v": 126
    },
    {
      "midi": 64,
      "hit": false,
      "t": 36818.145000000004,
      "d": 1636.362000000001,
      "v": 126
    },
    {
      "midi": 45,
      "hit": false,
      "t": 39272.68799999999,
      "d": 2176.1341875,
      "v": 96
    },
    {
      "midi": 57,
      "hit": false,
      "t": 39272.68799999999,
      "d": 2176.1341875,
      "v": 80
    },
    {
      "midi": 61,
      "hit": false,
      "t": 39272.68799999999,
      "d": 2176.1341875,
      "v": 78
    },
    {
      "midi": 64,
      "hit": false,
      "t": 39272.68799999999,
      "d": 2176.1341875,
      "v": 92
    },
    {
      "midi": 47,
      "hit": false,
      "t": 41454.503999999986,
      "d": 2176.1341875,
      "v": 88
    },
    {
      "midi": 54,
      "hit": false,
      "t": 41454.503999999986,
      "d": 2176.1341875,
      "v": 84
    },
    {
      "midi": 59,
      "hit": false,
      "t": 41454.503999999986,
      "d": 2176.1341875,
      "v": 96
    },
    {
      "midi": 63,
      "hit": false,
      "t": 41454.503999999986,
      "d": 2176.1341875,
      "v": 84
    },
    {
      "midi": 56,
      "hit": false,
      "t": 43636.319999999985,
      "d": 4357.950187499999,
      "v": 72
    },
    {
      "midi": 49,
      "hit": false,
      "t": 43636.319999999985,
      "d": 4363.631999999998,
      "v": 98
    },
    {
      "midi": 61,
      "hit": false,
      "t": 43636.319999999985,
      "d": 4363.631999999998,
      "v": 84
    },
    {
      "midi": 68,
      "hit": false,
      "t": 43636.319999999985,
      "d": 4363.631999999998,
      "v": 84
    },
    {
      "midi": 56,
      "hit": false,
      "t": 46090.863000000005,
      "d": 272.72699999999895,
      "v": 126
    },
    {
      "midi": 63,
      "hit": false,
      "t": 46363.590000000004,
      "d": 272.72699999999895,
      "v": 126
    },
    {
      "midi": 64,
      "hit": false,
      "t": 46636.317,
      "d": 3562.496437499998,
      "v": 122
    },
    {
      "midi": 45,
      "hit": false,
      "t": 47999.95199999998,
      "d": 2176.1341875,
      "v": 92
    },
    {
      "midi": 64,
      "hit": false,
      "t": 47999.95199999998,
      "d": 2176.1341875,
      "v": 96
    },
    {
      "midi": 57,
      "hit": false,
      "t": 47999.95199999998,
      "d": 2181.815999999999,
      "v": 84
    },
    {
      "midi": 61,
      "hit": false,
      "t": 47999.95199999998,
      "d": 2181.815999999999,
      "v": 84
    },
    {
      "midi": 47,
      "hit": false,
      "t": 50181.76799999998,
      "d": 2176.1341875,
      "v": 88
    },
    {
      "midi": 63,
      "hit": false,
      "t": 50181.76799999998,
      "d": 2176.1341875,
      "v": 78
    },
    {
      "midi": 54,
      "hit": false,
      "t": 50181.76799999998,
      "d": 2181.815999999999,
      "v": 84
    },
    {
      "midi": 59,
      "hit": false,
      "t": 50181.76799999998,
      "d": 2181.815999999999,
      "v": 96
    },
    {
      "midi": 49,
      "hit": false,
      "t": 52363.58399999998,
      "d": 4363.631999999998,
      "v": 84
    },
    {
      "midi": 56,
      "hit": false,
      "t": 52363.58399999998,
      "d": 4363.631999999998,
      "v": 84
    },
    {
      "midi": 61,
      "hit": false,
      "t": 52363.58399999998,
      "d": 4363.631999999998,
      "v": 90
    },
    {
      "midi": 68,
      "hit": false,
      "t": 52363.58399999998,
      "d": 4363.631999999998,
      "v": 98
    },
    {
      "midi": 56,
      "hit": false,
      "t": 54818.127,
      "d": 1721.5891875000016,
      "v": 120
    },
    {
      "midi": 68,
      "hit": false,
      "t": 55090.854,
      "d": 272.72699999999895,
      "v": 120
    },
    {
      "midi": 64,
      "hit": false,
      "t": 55363.581,
      "d": 1363.635000000002,
      "v": 126
    },
    {
      "midi": 57,
      "hit": false,
      "t": 56727.21599999998,
      "d": 2181.815999999999,
      "v": 110
    },
    {
      "midi": 61,
      "hit": false,
      "t": 56727.21599999998,
      "d": 2181.815999999999,
      "v": 126
    },
    {
      "midi": 64,
      "hit": false,
      "t": 56727.21599999998,
      "d": 2181.815999999999,
      "v": 126
    },
    {
      "midi": 52,
      "hit": false,
      "t": 56727.216,
      "d": 704.5447500000009,
      "v": 116
    },
    {
      "midi": 57,
      "hit": false,
      "t": 56727.216,
      "d": 721.5901874999981,
      "v": 122
    },
    {
      "midi": 52,
      "hit": false,
      "t": 57545.397,
      "d": 1136.362500000003,
      "v": 116
    },
    {
      "midi": 57,
      "hit": false,
      "t": 57545.397,
      "d": 1193.1806250000009,
      "v": 126
    },
    {
      "midi": 59,
      "hit": false,
      "t": 58909.03199999998,
      "d": 2181.815999999999,
      "v": 122
    },
    {
      "midi": 63,
      "hit": false,
      "t": 58909.03199999998,
      "d": 2181.815999999999,
      "v": 126
    },
    {
      "midi": 66,
      "hit": false,
      "t": 58909.03199999998,
      "d": 2181.815999999999,
      "v": 126
    },
    {
      "midi": 59,
      "hit": false,
      "t": 58909.032,
      "d": 670.4538749999992,
      "v": 116
    },
    {
      "midi": 54,
      "hit": false,
      "t": 58909.032,
      "d": 676.1356874999983,
      "v": 126
    },
    {
      "midi": 54,
      "hit": false,
      "t": 59727.212999999996,
      "d": 857.9536874999976,
      "v": 126
    },
    {
      "midi": 59,
      "hit": false,
      "t": 59727.212999999996,
      "d": 869.3173124999958,
      "v": 122
    },
    {
      "midi": 61,
      "hit": false,
      "t": 61090.847999999976,
      "d": 3818.178,
      "v": 126
    },
    {
      "midi": 64,
      "hit": false,
      "t": 61090.847999999976,
      "d": 3818.178,
      "v": 126
    },
    {
      "midi": 68,
      "hit": false,
      "t": 61090.847999999976,
      "d": 3818.178,
      "v": 116
    },
    {
      "midi": 56,
      "hit": false,
      "t": 61090.84799999999,
      "d": 272.72699999999895,
      "v": 126
    },
    {
      "midi": 61,
      "hit": false,
      "t": 61090.84799999999,
      "d": 272.72699999999895,
      "v": 126
    },
    {
      "midi": 56,
      "hit": false,
      "t": 61363.57499999999,
      "d": 272.72699999999895,
      "v": 100
    },
    {
      "midi": 61,
      "hit": false,
      "t": 61636.30199999999,
      "d": 272.72699999999895,
      "v": 105
    },
    {
      "midi": 80,
      "hit": false,
      "t": 61909.02899999997,
      "d": 2999.997000000003,
      "v": 115
    },
    {
      "midi": 68,
      "hit": false,
      "t": 61909.02899999999,
      "d": 2948.860687499997,
      "v": 126
    },
    {
      "midi": 61,
      "hit": false,
      "t": 61909.02899999999,
      "d": 2965.906124999994,
      "v": 126
    },
    {
      "midi": 57,
      "hit": false,
      "t": 65454.479999999974,
      "d": 2181.815999999999,
      "v": 122
    },
    {
      "midi": 61,
      "hit": false,
      "t": 65454.479999999974,
      "d": 2181.815999999999,
      "v": 126
    },
    {
      "midi": 64,
      "hit": false,
      "t": 65454.479999999974,
      "d": 2181.815999999999,
      "v": 122
    },
    {
      "midi": 52,
      "hit": false,
      "t": 65454.47999999998,
      "d": 624.9993749999994,
      "v": 122
    },
    {
      "midi": 57,
      "hit": false,
      "t": 65454.47999999998,
      "d": 630.6811874999985,
      "v": 126
    },
    {
      "midi": 52,
      "hit": false,
      "t": 66272.66099999998,
      "d": 1136.362500000003,
      "v": 122
    },
    {
      "midi": 57,
      "hit": false,
      "t": 66272.66099999998,
      "d": 1159.0897499999992,
      "v": 122
    },
    {
      "midi": 59,
      "hit": false,
      "t": 67636.29599999997,
      "d": 2181.816000000006,
      "v": 122
    },
    {
      "midi": 63,
      "hit": false,
      "t": 67636.29599999997,
      "d": 2181.816000000006,
      "v": 126
    },
    {
      "midi": 66,
      "hit": false,
      "t": 67636.29599999997,
      "d": 2181.816000000006,
      "v": 126
    },
    {
      "midi": 54,
      "hit": false,
      "t": 67636.29599999997,
      "d": 624.9993749999994,
      "v": 126
    },
    {
      "midi": 59,
      "hit": false,
      "t": 67636.29599999997,
      "d": 676.1356875000056,
      "v": 122
    },
    {
      "midi": 59,
      "hit": false,
      "t": 68454.47699999998,
      "d": 1028.408062500006,
      "v": 126
    },
    {
      "midi": 54,
      "hit": false,
      "t": 68454.47699999998,
      "d": 1147.726125000001,
      "v": 126
    },
    {
      "midi": 61,
      "hit": false,
      "t": 69818.11199999998,
      "d": 3267.042187500003,
      "v": 126
    },
    {
      "midi": 64,
      "hit": false,
      "t": 69818.11199999998,
      "d": 3272.724000000002,
      "v": 122
    },
    {
      "midi": 68,
      "hit": false,
      "t": 69818.11199999998,
      "d": 3272.724000000002,
      "v": 126
    },
    {
      "midi": 64,
      "hit": false,
      "t": 69818.11199999998,
      "d": 272.72699999999895,
      "v": 126
    },
    {
      "midi": 63,
      "hit": false,
      "t": 70090.83899999998,
      "d": 261.3633750000008,
      "v": 126
    },
    {
      "midi": 56,
      "hit": false,
      "t": 70363.56599999998,
      "d": 255.68156250000175,
      "v": 126
    },
    {
      "midi": 80,
      "hit": false,
      "t": 70636.29299999998,
      "d": 2454.543000000005,
      "v": 115
    },
    {
      "midi": 63,
      "hit": false,
      "t": 70636.29299999998,
      "d": 545.4539999999979,
      "v": 126
    },
    {
      "midi": 68,
      "hit": false,
      "t": 71181.74699999997,
      "d": 545.4539999999979,
      "v": 126
    },
    {
      "midi": 64,
      "hit": false,
      "t": 71727.20099999997,
      "d": 1227.2715000000026,
      "v": 126
    },
    {
      "midi": 59,
      "hit": false,
      "t": 73090.83599999998,
      "d": 1090.9079999999958,
      "v": 106
    },
    {
      "midi": 63,
      "hit": false,
      "t": 73090.83599999998,
      "d": 1090.9079999999958,
      "v": 106
    },
    {
      "midi": 66,
      "hit": false,
      "t": 73090.83599999998,
      "d": 1090.9079999999958,
      "v": 116
    },
    {
      "midi": 59,
      "hit": false,
      "t": 73090.83599999998,
      "d": 874.9991250000021,
      "v": 122
    },
    {
      "midi": 63,
      "hit": false,
      "t": 73090.83599999998,
      "d": 880.6809375000012,
      "v": 126
    },
    {
      "midi": 66,
      "hit": false,
      "t": 73090.83599999998,
      "d": 880.6809375000012,
      "v": 126
    },
    {
      "midi": 59,
      "hit": false,
      "t": 74181.74399999998,
      "d": 2176.1341874999925,
      "v": 122
    },
    {
      "midi": 68,
      "hit": false,
      "t": 74181.74399999998,
      "d": 2176.1341874999925,
      "v": 116
    },
    {
      "midi": 64,
      "hit": false,
      "t": 74181.74399999998,
      "d": 2181.8159999999916,
      "v": 116
    },
    {
      "midi": 64,
      "hit": false,
      "t": 74181.74399999998,
      "d": 642.0448124999966,
      "v": 126
    },
    {
      "midi": 59,
      "hit": false,
      "t": 74181.74399999998,
      "d": 653.4084374999948,
      "v": 126
    },
    {
      "midi": 71,
      "hit": false,
      "t": 74727.19799999997,
      "d": 1636.3619999999937,
      "v": 90
    },
    {
      "midi": 76,
      "hit": false,
      "t": 74999.92499999997,
      "d": 1363.6349999999948,
      "v": 125
    },
    {
      "midi": 59,
      "hit": false,
      "t": 74999.92499999997,
      "d": 1227.2715000000026,
      "v": 126
    },
    {
      "midi": 64,
      "hit": false,
      "t": 74999.92499999997,
      "d": 1227.2715000000026,
      "v": 126
    },
    {
      "midi": 61,
      "hit": false,
      "t": 76363.55999999997,
      "d": 2176.1341874999925,
      "v": 106
    },
    {
      "midi": 64,
      "hit": false,
      "t": 76363.55999999997,
      "d": 2176.1341874999925,
      "v": 106
    },
    {
      "midi": 68,
      "hit": false,
      "t": 76363.55999999997,
      "d": 2176.1341874999925,
      "v": 116
    },
    {
      "midi": 61,
      "hit": false,
      "t": 76363.55999999998,
      "d": 681.8175000000047,
      "v": 126
    },
    {
      "midi": 64,
      "hit": false,
      "t": 76363.55999999998,
      "d": 681.8175000000047,
      "v": 126
    },
    {
      "midi": 71,
      "hit": false,
      "t": 76909.01399999997,
      "d": 1636.3619999999937,
      "v": 90
    },
    {
      "midi": 76,
      "hit": false,
      "t": 77181.74099999997,
      "d": 1363.6349999999948,
      "v": 120
    },
    {
      "midi": 64,
      "hit": false,
      "t": 77181.741,
      "d": 1113.6352500000066,
      "v": 126
    },
    {
      "midi": 61,
      "hit": false,
      "t": 77181.741,
      "d": 1153.4079375000001,
      "v": 126
    },
    {
      "midi": 57,
      "hit": false,
      "t": 78545.37599999996,
      "d": 2181.8159999999916,
      "v": 110
    },
    {
      "midi": 61,
      "hit": false,
      "t": 78545.37599999996,
      "d": 2181.8159999999916,
      "v": 126
    },
    {
      "midi": 64,
      "hit": false,
      "t": 78545.37599999996,
      "d": 2181.8159999999916,
      "v": 110
    },
    {
      "midi": 57,
      "hit": false,
      "t": 78545.37599999999,
      "d": 670.4538750000065,
      "v": 122
    },
    {
      "midi": 61,
      "hit": false,
      "t": 78545.37599999999,
      "d": 681.8175000000047,
      "v": 126
    },
    {
      "midi": 71,
      "hit": false,
      "t": 79090.82999999996,
      "d": 1636.3619999999937,
      "v": 90
    },
    {
      "midi": 76,
      "hit": false,
      "t": 79363.55699999996,
      "d": 1363.6349999999948,
      "v": 125
    },
    {
      "midi": 57,
      "hit": false,
      "t": 79363.557,
      "d": 1090.9079999999958,
      "v": 126
    },
    {
      "midi": 61,
      "hit": false,
      "t": 79363.557,
      "d": 1164.7715624999983,
      "v": 126
    },
    {
      "midi": 66,
      "hit": false,
      "t": 80727.19199999995,
      "d": 2176.1341874999925,
      "v": 126
    },
    {
      "midi": 59,
      "hit": false,
      "t": 80727.19199999995,
      "d": 2181.8159999999916,
      "v": 116
    },
    {
      "midi": 63,
      "hit": false,
      "t": 80727.19199999995,
      "d": 2181.8159999999916,
      "v": 126
    },
    {
      "midi": 63,
      "hit": false,
      "t": 80727.192,
      "d": 624.9993749999994,
      "v": 126
    },
    {
      "midi": 59,
      "hit": false,
      "t": 80727.192,
      "d": 670.4538750000065,
      "v": 122
    },
    {
      "midi": 71,
      "hit": false,
      "t": 81272.64599999995,
      "d": 1636.3619999999937,
      "v": 90
    },
    {
      "midi": 78,
      "hit": false,
      "t": 81545.37299999995,
      "d": 1363.6349999999948,
      "v": 127
    },
    {
      "midi": 59,
      "hit": false,
      "t": 81545.373,
      "d": 1159.0897499999992,
      "v": 116
    },
    {
      "midi": 63,
      "hit": false,
      "t": 81545.373,
      "d": 1170.4533749999973,
      "v": 126
    },
    {
      "midi": 61,
      "hit": false,
      "t": 82909.00799999994,
      "d": 2181.8159999999916,
      "v": 126
    },
    {
      "midi": 64,
      "hit": false,
      "t": 82909.00799999994,
      "d": 2181.8159999999916,
      "v": 126
    },
    {
      "midi": 68,
      "hit": false,
      "t": 82909.00799999994,
      "d": 2181.8159999999916,
      "v": 116
    },
    {
      "midi": 61,
      "hit": false,
      "t": 82909.008,
      "d": 681.8175000000047,
      "v": 122
    },
    {
      "midi": 64,
      "hit": false,
      "t": 82909.008,
      "d": 681.8175000000047,
      "v": 122
    },
    {
      "midi": 75,
      "hit": false,
      "t": 83727.18899999994,
      "d": 1363.6349999999948,
      "v": 127
    },
    {
      "midi": 64,
      "hit": false,
      "t": 83727.18900000001,
      "d": 1187.4988124999945,
      "v": 126
    },
    {
      "midi": 61,
      "hit": false,
      "t": 83727.18900000001,
      "d": 1227.271499999988,
      "v": 126
    },
    {
      "midi": 59,
      "hit": false,
      "t": 85090.82399999994,
      "d": 2181.8159999999916,
      "v": 122
    },
    {
      "midi": 63,
      "hit": false,
      "t": 85090.82399999994,
      "d": 2181.8159999999916,
      "v": 110
    },
    {
      "midi": 68,
      "hit": false,
      "t": 85090.82399999994,
      "d": 2181.8159999999916,
      "v": 126
    },
    {
      "midi": 59,
      "hit": false,
      "t": 85090.82400000001,
      "d": 818.1809999999969,
      "v": 122
    },
    {
      "midi": 63,
      "hit": false,
      "t": 85090.82400000001,
      "d": 818.1809999999969,
      "v": 126
    },
    {
      "midi": 75,
      "hit": false,
      "t": 85909.00499999993,
      "d": 1363.6349999999948,
      "v": 127
    },
    {
      "midi": 59,
      "hit": false,
      "t": 85909.005,
      "d": 1227.2715000000026,
      "v": 122
    },
    {
      "midi": 63,
      "hit": false,
      "t": 85909.005,
      "d": 1227.2715000000026,
      "v": 126
    },
    {
      "midi": 57,
      "hit": false,
      "t": 87272.63999999993,
      "d": 2181.8159999999916,
      "v": 122
    },
    {
      "midi": 61,
      "hit": false,
      "t": 87272.63999999993,
      "d": 2181.8159999999916,
      "v": 116
    },
    {
      "midi": 64,
      "hit": false,
      "t": 87272.63999999993,
      "d": 2181.8159999999916,
      "v": 122
    },
    {
      "midi": 57,
      "hit": false,
      "t": 87272.64000000001,
      "d": 636.3629999999976,
      "v": 122
    },
    {
      "midi": 61,
      "hit": false,
      "t": 87272.64000000001,
      "d": 653.4084374999948,
      "v": 126
    },
    {
      "midi": 68,
      "hit": false,
      "t": 87818.09399999992,
      "d": 1636.3619999999937,
      "v": 90
    },
    {
      "midi": 73,
      "hit": false,
      "t": 88090.82099999992,
      "d": 1363.6349999999948,
      "v": 120
    },
    {
      "midi": 57,
      "hit": false,
      "t": 88090.82100000001,
      "d": 1090.9079999999958,
      "v": 116
    },
    {
      "midi": 61,
      "hit": false,
      "t": 88090.82100000001,
      "d": 1193.1806249999936,
      "v": 126
    },
    {
      "midi": 59,
      "hit": false,
      "t": 89454.45599999992,
      "d": 2181.8159999999916,
      "v": 116
    },
    {
      "midi": 63,
      "hit": false,
      "t": 89454.45599999992,
      "d": 2181.8159999999916,
      "v": 116
    },
    {
      "midi": 66,
      "hit": false,
      "t": 89454.45599999992,
      "d": 2181.8159999999916,
      "v": 126
    },
    {
      "midi": 59,
      "hit": false,
      "t": 89454.456,
      "d": 647.7266249999957,
      "v": 126
    },
    {
      "midi": 63,
      "hit": false,
      "t": 89454.456,
      "d": 664.7720624999929,
      "v": 126
    },
    {
      "midi": 71,
      "hit": false,
      "t": 89999.90999999992,
      "d": 1636.3619999999937,
      "v": 90
    },
    {
      "midi": 75,
      "hit": false,
      "t": 90272.63699999992,
      "d": 1363.6349999999948,
      "v": 125
    },
    {
      "midi": 59,
      "hit": false,
      "t": 90272.637,
      "d": 1062.4989375000005,
      "v": 110
    },
    {
      "midi": 63,
      "hit": false,
      "t": 90272.637,
      "d": 1079.5443749999977,
      "v": 126
    },
    {
      "midi": 59,
      "hit": false,
      "t": 91636.27199999991,
      "d": 2181.8159999999916,
      "v": 122
    },
    {
      "midi": 64,
      "hit": false,
      "t": 91636.27199999991,
      "d": 2181.8159999999916,
      "v": 116
    },
    {
      "midi": 68,
      "hit": false,
      "t": 91636.27199999991,
      "d": 2181.8159999999916,
      "v": 116
    },
    {
      "midi": 64,
      "hit": false,
      "t": 91636.272,
      "d": 642.0448124999966,
      "v": 126
    },
    {
      "midi": 59,
      "hit": false,
      "t": 91636.272,
      "d": 653.4084374999948,
      "v": 126
    },
    {
      "midi": 71,
      "hit": false,
      "t": 92181.72599999991,
      "d": 1636.3619999999937,
      "v": 90
    },
    {
      "midi": 76,
      "hit": false,
      "t": 92454.4529999999,
      "d": 1363.6349999999948,
      "v": 125
    },
    {
      "midi": 59,
      "hit": false,
      "t": 92454.453,
      "d": 1227.2715000000026,
      "v": 126
    },
    {
      "midi": 64,
      "hit": false,
      "t": 92454.453,
      "d": 1227.2715000000026,
      "v": 126
    },
    {
      "midi": 61,
      "hit": false,
      "t": 93818.0879999999,
      "d": 2176.1341874999925,
      "v": 106
    },
    {
      "midi": 64,
      "hit": false,
      "t": 93818.0879999999,
      "d": 2181.8159999999916,
      "v": 106
    },
    {
      "midi": 68,
      "hit": false,
      "t": 93818.0879999999,
      "d": 2181.8159999999916,
      "v": 116
    },
    {
      "midi": 61,
      "hit": false,
      "t": 93818.088,
      "d": 681.8175000000047,
      "v": 126
    },
    {
      "midi": 64,
      "hit": false,
      "t": 93818.088,
      "d": 681.8175000000047,
      "v": 126
    },
    {
      "midi": 71,
      "hit": false,
      "t": 94363.5419999999,
      "d": 1636.3619999999937,
      "v": 90
    },
    {
      "midi": 76,
      "hit": false,
      "t": 94636.2689999999,
      "d": 1363.6349999999948,
      "v": 120
    },
    {
      "midi": 64,
      "hit": false,
      "t": 94636.26900000001,
      "d": 1113.6352500000066,
      "v": 126
    },
    {
      "midi": 61,
      "hit": false,
      "t": 94636.26900000001,
      "d": 1153.4079375000001,
      "v": 126
    },
    {
      "midi": 57,
      "hit": false,
      "t": 95999.9039999999,
      "d": 2181.8159999999916,
      "v": 110
    },
    {
      "midi": 61,
      "hit": false,
      "t": 95999.9039999999,
      "d": 2181.8159999999916,
      "v": 126
    },
    {
      "midi": 64,
      "hit": false,
      "t": 95999.9039999999,
      "d": 2181.8159999999916,
      "v": 110
    },
    {
      "midi": 57,
      "hit": false,
      "t": 95999.90400000001,
      "d": 670.4538750000065,
      "v": 122
    },
    {
      "midi": 61,
      "hit": false,
      "t": 95999.90400000001,
      "d": 681.8175000000047,
      "v": 126
    },
    {
      "midi": 71,
      "hit": false,
      "t": 96545.35799999989,
      "d": 1636.3619999999937,
      "v": 90
    },
    {
      "midi": 76,
      "hit": false,
      "t": 96818.08499999989,
      "d": 1363.6349999999948,
      "v": 125
    },
    {
      "midi": 57,
      "hit": false,
      "t": 96818.08500000002,
      "d": 1090.9079999999958,
      "v": 126
    },
    {
      "midi": 61,
      "hit": false,
      "t": 96818.08500000002,
      "d": 1164.7715624999983,
      "v": 126
    },
    {
      "midi": 59,
      "hit": false,
      "t": 98181.71999999988,
      "d": 2181.8159999999916,
      "v": 116
    },
    {
      "midi": 63,
      "hit": false,
      "t": 98181.71999999988,
      "d": 2181.8159999999916,
      "v": 126
    },
    {
      "midi": 66,
      "hit": false,
      "t": 98181.71999999988,
      "d": 2181.8159999999916,
      "v": 126
    },
    {
      "midi": 63,
      "hit": false,
      "t": 98181.72000000002,
      "d": 624.9993749999994,
      "v": 126
    },
    {
      "midi": 59,
      "hit": false,
      "t": 98181.72000000002,
      "d": 670.4538750000065,
      "v": 122
    },
    {
      "midi": 71,
      "hit": false,
      "t": 98727.17399999988,
      "d": 1636.3619999999937,
      "v": 90
    },
    {
      "midi": 78,
      "hit": false,
      "t": 98999.90099999988,
      "d": 1363.6349999999948,
      "v": 127
    },
    {
      "midi": 59,
      "hit": false,
      "t": 98999.90100000003,
      "d": 1159.0897499999992,
      "v": 116
    },
    {
      "midi": 63,
      "hit": false,
      "t": 98999.90100000003,
      "d": 1170.4533749999973,
      "v": 126
    },
    {
      "midi": 61,
      "hit": false,
      "t": 100363.53599999988,
      "d": 2181.8159999999916,
      "v": 126
    },
    {
      "midi": 64,
      "hit": false,
      "t": 100363.53599999988,
      "d": 2181.8159999999916,
      "v": 126
    },
    {
      "midi": 68,
      "hit": false,
      "t": 100363.53599999988,
      "d": 2181.8159999999916,
      "v": 116
    },
    {
      "midi": 61,
      "hit": false,
      "t": 100363.53600000002,
      "d": 681.8175000000047,
      "v": 122
    },
    {
      "midi": 64,
      "hit": false,
      "t": 100363.53600000002,
      "d": 681.8175000000047,
      "v": 122
    },
    {
      "midi": 75,
      "hit": false,
      "t": 101181.71699999987,
      "d": 1363.6349999999948,
      "v": 127
    },
    {
      "midi": 64,
      "hit": false,
      "t": 101181.71700000003,
      "d": 1187.4988124999945,
      "v": 126
    },
    {
      "midi": 61,
      "hit": false,
      "t": 101181.71700000003,
      "d": 1227.271499999988,
      "v": 126
    },
    {
      "midi": 59,
      "hit": false,
      "t": 102545.35199999987,
      "d": 2181.8159999999916,
      "v": 122
    },
    {
      "midi": 63,
      "hit": false,
      "t": 102545.35199999987,
      "d": 2181.8159999999916,
      "v": 110
    },
    {
      "midi": 68,
      "hit": false,
      "t": 102545.35199999987,
      "d": 2181.8159999999916,
      "v": 126
    },
    {
      "midi": 59,
      "hit": false,
      "t": 102545.35200000003,
      "d": 818.1809999999969,
      "v": 122
    },
    {
      "midi": 63,
      "hit": false,
      "t": 102545.35200000003,
      "d": 818.1809999999969,
      "v": 126
    },
    {
      "midi": 75,
      "hit": false,
      "t": 103363.53299999986,
      "d": 1363.6349999999948,
      "v": 127
    },
    {
      "midi": 59,
      "hit": false,
      "t": 103363.53300000002,
      "d": 1227.2715000000026,
      "v": 122
    },
    {
      "midi": 63,
      "hit": false,
      "t": 103363.53300000002,
      "d": 1227.2715000000026,
      "v": 126
    },
    {
      "midi": 57,
      "hit": false,
      "t": 104727.16799999986,
      "d": 2176.1341874999925,
      "v": 122
    },
    {
      "midi": 61,
      "hit": false,
      "t": 104727.16799999986,
      "d": 2181.8159999999916,
      "v": 116
    },
    {
      "midi": 64,
      "hit": false,
      "t": 104727.16799999986,
      "d": 2181.8159999999916,
      "v": 122
    },
    {
      "midi": 57,
      "hit": false,
      "t": 104727.16800000003,
      "d": 636.3629999999976,
      "v": 122
    },
    {
      "midi": 61,
      "hit": false,
      "t": 104727.16800000003,
      "d": 653.4084374999948,
      "v": 126
    },
    {
      "midi": 68,
      "hit": false,
      "t": 105272.62199999986,
      "d": 1636.3619999999937,
      "v": 90
    },
    {
      "midi": 73,
      "hit": false,
      "t": 105545.34899999986,
      "d": 1363.6349999999948,
      "v": 120
    },
    {
      "midi": 57,
      "hit": false,
      "t": 105545.34900000003,
      "d": 1090.9079999999958,
      "v": 116
    },
    {
      "midi": 61,
      "hit": false,
      "t": 105545.34900000003,
      "d": 1193.1806249999936,
      "v": 126
    },
    {
      "midi": 59,
      "hit": false,
      "t": 106908.98399999985,
      "d": 2181.8159999999916,
      "v": 116
    },
    {
      "midi": 63,
      "hit": false,
      "t": 106908.98399999985,
      "d": 2181.8159999999916,
      "v": 116
    },
    {
      "midi": 66,
      "hit": false,
      "t": 106908.98399999985,
      "d": 2181.8159999999916,
      "v": 126
    },
    {
      "midi": 59,
      "hit": false,
      "t": 106908.98400000003,
      "d": 647.7266249999957,
      "v": 126
    },
    {
      "midi": 63,
      "hit": false,
      "t": 106908.98400000003,
      "d": 664.7720624999929,
      "v": 126
    },
    {
      "midi": 71,
      "hit": false,
      "t": 107454.43799999985,
      "d": 1636.3619999999937,
      "v": 90
    },
    {
      "midi": 75,
      "hit": false,
      "t": 107727.16499999985,
      "d": 1363.6349999999948,
      "v": 125
    },
    {
      "midi": 59,
      "hit": false,
      "t": 107727.16500000002,
      "d": 1062.4989375000005,
      "v": 110
    },
    {
      "midi": 63,
      "hit": false,
      "t": 107727.16500000002,
      "d": 1079.5443749999977,
      "v": 126
    },
    {
      "midi": 57,
      "hit": false,
      "t": 109090.80000000002,
      "d": 681.8175000000047,
      "v": 122
    },
    {
      "midi": 61,
      "hit": false,
      "t": 109090.80000000002,
      "d": 687.4993125000037,
      "v": 126
    },
    {
      "midi": 57,
      "hit": false,
      "t": 109363.52699999984,
      "d": 2181.8159999999916,
      "v": 126
    },
    {
      "midi": 66,
      "hit": false,
      "t": 109636.25399999984,
      "d": 272.72699999999895,
      "v": 126
    },
    {
      "midi": 68,
      "hit": false,
      "t": 109908.98099999984,
      "d": 1636.3619999999937,
      "v": 126
    },
    {
      "midi": 57,
      "hit": false,
      "t": 109908.98100000001,
      "d": 1113.6352500000066,
      "v": 116
    },
    {
      "midi": 61,
      "hit": false,
      "t": 109908.98100000001,
      "d": 1153.4079375000001,
      "v": 126
    },
    {
      "midi": 59,
      "hit": false,
      "t": 111272.61600000001,
      "d": 624.9993749999994,
      "v": 116
    },
    {
      "midi": 63,
      "hit": false,
      "t": 111272.61600000001,
      "d": 653.4084374999948,
      "v": 126
    },
    {
      "midi": 59,
      "hit": false,
      "t": 111545.34299999983,
      "d": 1909.0889999999927,
      "v": 122
    },
    {
      "midi": 66,
      "hit": false,
      "t": 111818.06999999983,
      "d": 272.72699999999895,
      "v": 126
    },
    {
      "midi": 68,
      "hit": false,
      "t": 112090.79699999983,
      "d": 1636.3619999999937,
      "v": 116
    },
    {
      "midi": 59,
      "hit": false,
      "t": 112090.797,
      "d": 1039.7716875000042,
      "v": 122
    },
    {
      "midi": 63,
      "hit": false,
      "t": 112090.797,
      "d": 1204.5442500000063,
      "v": 126
    },
    {
      "midi": 56,
      "hit": false,
      "t": 113454.43200000002,
      "d": 607.9539375000022,
      "v": 126
    },
    {
      "midi": 61,
      "hit": false,
      "t": 113454.43200000002,
      "d": 721.5901874999981,
      "v": 116
    },
    {
      "midi": 56,
      "hit": false,
      "t": 113727.15899999983,
      "d": 1909.0889999999927,
      "v": 126
    },
    {
      "midi": 63,
      "hit": false,
      "t": 113999.88599999982,
      "d": 272.72699999999895,
      "v": 126
    },
    {
      "midi": 64,
      "hit": false,
      "t": 114272.61299999982,
      "d": 1636.3619999999937,
      "v": 110
    },
    {
      "midi": 68,
      "hit": false,
      "t": 114272.61300000001,
      "d": 2011.361625000005,
      "v": 126
    },
    {
      "midi": 61,
      "hit": false,
      "t": 114272.61300000001,
      "d": 2045.4524999999994,
      "v": 126
    },
    {
      "midi": 56,
      "hit": false,
      "t": 115908.97499999982,
      "d": 1636.3619999999937,
      "v": 126
    },
    {
      "midi": 63,
      "hit": false,
      "t": 116181.70199999982,
      "d": 272.72699999999895,
      "v": 116
    },
    {
      "midi": 64,
      "hit": false,
      "t": 116454.42899999981,
      "d": 1363.6349999999948,
      "v": 116
    },
    {
      "midi": 68,
      "hit": false,
      "t": 116454.42900000002,
      "d": 1170.4533749999973,
      "v": 126
    },
    {
      "midi": 61,
      "hit": false,
      "t": 116454.42900000002,
      "d": 1198.8624374999927,
      "v": 126
    },
    {
      "midi": 57,
      "hit": false,
      "t": 117818.06400000001,
      "d": 659.0902499999938,
      "v": 126
    },
    {
      "midi": 61,
      "hit": false,
      "t": 117818.06400000001,
      "d": 670.453874999992,
      "v": 126
    },
    {
      "midi": 57,
      "hit": false,
      "t": 118090.79099999981,
      "d": 2181.8159999999916,
      "v": 126
    },
    {
      "midi": 66,
      "hit": false,
      "t": 118363.5179999998,
      "d": 272.72699999999895,
      "v": 126
    },
    {
      "midi": 68,
      "hit": false,
      "t": 118636.2449999998,
      "d": 1636.3619999999937,
      "v": 126
    },
    {
      "midi": 57,
      "hit": false,
      "t": 118636.24500000001,
      "d": 1107.953437499993,
      "v": 122
    },
    {
      "midi": 61,
      "hit": false,
      "t": 118636.24500000001,
      "d": 1198.8624374999927,
      "v": 126
    },
    {
      "midi": 59,
      "hit": false,
      "t": 119999.88,
      "d": 619.3175625000003,
      "v": 116
    },
    {
      "midi": 63,
      "hit": false,
      "t": 119999.88,
      "d": 647.7266249999957,
      "v": 126
    },
    {
      "midi": 59,
      "hit": false,
      "t": 120272.6069999998,
      "d": 2181.8159999999916,
      "v": 122
    },
    {
      "midi": 66,
      "hit": false,
      "t": 120545.3339999998,
      "d": 272.72699999999895,
      "v": 126
    },
    {
      "midi": 68,
      "hit": false,
      "t": 120818.0609999998,
      "d": 1636.3619999999937,
      "v": 116
    },
    {
      "midi": 59,
      "hit": false,
      "t": 120818.061,
      "d": 1011.3626249999943,
      "v": 116
    },
    {
      "midi": 63,
      "hit": false,
      "t": 120818.061,
      "d": 1187.4988124999945,
      "v": 126
    },
    {
      "midi": 56,
      "hit": false,
      "t": 122181.696,
      "d": 664.7720624999929,
      "v": 116
    },
    {
      "midi": 61,
      "hit": false,
      "t": 122181.696,
      "d": 732.9538124999963,
      "v": 116
    },
    {
      "midi": 56,
      "hit": false,
      "t": 122454.42299999979,
      "d": 2181.8159999999916,
      "v": 126
    },
    {
      "midi": 63,
      "hit": false,
      "t": 122727.14999999979,
      "d": 272.72699999999895,
      "v": 126
    },
    {
      "midi": 64,
      "hit": false,
      "t": 122999.87699999979,
      "d": 1636.3619999999937,
      "v": 110
    },
    {
      "midi": 61,
      "hit": false,
      "t": 122999.877,
      "d": 1272.725999999995,
      "v": 126
    },
    {
      "midi": 68,
      "hit": false,
      "t": 122999.877,
      "d": 1272.725999999995,
      "v": 126
    },
    {
      "midi": 68,
      "hit": false,
      "t": 124363.51199999999,
      "d": 670.4538750000065,
      "v": 106
    },
    {
      "midi": 61,
      "hit": false,
      "t": 124363.51199999999,
      "d": 715.9083750000136,
      "v": 126
    },
    {
      "midi": 56,
      "hit": false,
      "t": 124636.23899999978,
      "d": 1909.0889999999927,
      "v": 126
    },
    {
      "midi": 63,
      "hit": false,
      "t": 124908.96599999978,
      "d": 272.72699999999895,
      "v": 116
    },
    {
      "midi": 64,
      "hit": false,
      "t": 125181.69299999978,
      "d": 1363.6349999999948,
      "v": 116
    },
    {
      "midi": 68,
      "hit": false,
      "t": 125181.693,
      "d": 1227.2715000000026,
      "v": 126
    },
    {
      "midi": 61,
      "hit": false,
      "t": 125181.693,
      "d": 1244.3169374999998,
      "v": 126
    },
    {
      "midi": 52,
      "hit": false,
      "t": 126545.328,
      "d": 704.5447500000009,
      "v": 116
    },
    {
      "midi": 57,
      "hit": false,
      "t": 126545.328,
      "d": 721.5901874999981,
      "v": 122
    },
    {
      "midi": 57,
      "hit": false,
      "t": 126818.05499999977,
      "d": 2181.8159999999916,
      "v": 126
    },
    {
      "midi": 66,
      "hit": false,
      "t": 127090.78199999977,
      "d": 272.72699999999895,
      "v": 126
    },
    {
      "midi": 68,
      "hit": false,
      "t": 127363.50899999977,
      "d": 1636.3619999999937,
      "v": 126
    },
    {
      "midi": 52,
      "hit": false,
      "t": 127363.50899999999,
      "d": 1136.362500000003,
      "v": 116
    },
    {
      "midi": 57,
      "hit": false,
      "t": 127363.50899999999,
      "d": 1193.1806250000081,
      "v": 126
    },
    {
      "midi": 59,
      "hit": false,
      "t": 128727.144,
      "d": 670.4538750000065,
      "v": 116
    },
    {
      "midi": 54,
      "hit": false,
      "t": 128727.144,
      "d": 676.1356875000056,
      "v": 126
    },
    {
      "midi": 59,
      "hit": false,
      "t": 128999.87099999977,
      "d": 2181.816000000006,
      "v": 122
    },
    {
      "midi": 66,
      "hit": false,
      "t": 129272.59799999977,
      "d": 272.72699999999895,
      "v": 126
    },
    {
      "midi": 68,
      "hit": false,
      "t": 129545.32499999976,
      "d": 1636.3620000000083,
      "v": 116
    },
    {
      "midi": 54,
      "hit": false,
      "t": 129545.32500000001,
      "d": 857.9536875000049,
      "v": 126
    },
    {
      "midi": 59,
      "hit": false,
      "t": 129545.32500000001,
      "d": 869.317312500003,
      "v": 122
    },
    {
      "midi": 56,
      "hit": false,
      "t": 130908.96000000002,
      "d": 272.7270000000135,
      "v": 126
    },
    {
      "midi": 61,
      "hit": false,
      "t": 130908.96000000002,
      "d": 272.7270000000135,
      "v": 126
    },
    {
      "midi": 56,
      "hit": false,
      "t": 131181.68699999977,
      "d": 2181.8160000000207,
      "v": 126
    },
    {
      "midi": 56,
      "hit": false,
      "t": 131181.68700000003,
      "d": 272.7270000000135,
      "v": 100
    },
    {
      "midi": 63,
      "hit": false,
      "t": 131454.4139999998,
      "d": 272.7270000000135,
      "v": 126
    },
    {
      "midi": 61,
      "hit": false,
      "t": 131454.41400000005,
      "d": 272.7270000000135,
      "v": 105
    },
    {
      "midi": 64,
      "hit": false,
      "t": 131727.1409999998,
      "d": 1636.3619999999937,
      "v": 110
    },
    {
      "midi": 68,
      "hit": false,
      "t": 131727.14100000006,
      "d": 2948.8606875000114,
      "v": 126
    },
    {
      "midi": 61,
      "hit": false,
      "t": 131727.14100000006,
      "d": 2965.9061250000086,
      "v": 126
    },
    {
      "midi": 56,
      "hit": false,
      "t": 133363.5029999998,
      "d": 1909.0890000000363,
      "v": 126
    },
    {
      "midi": 63,
      "hit": false,
      "t": 133636.2299999998,
      "d": 272.7270000000135,
      "v": 116
    },
    {
      "midi": 64,
      "hit": false,
      "t": 133908.95699999982,
      "d": 1363.6350000000093,
      "v": 116
    },
    {
      "midi": 52,
      "hit": false,
      "t": 135272.59200000006,
      "d": 624.999375000014,
      "v": 122
    },
    {
      "midi": 57,
      "hit": false,
      "t": 135272.59200000006,
      "d": 630.681187500013,
      "v": 126
    },
    {
      "midi": 57,
      "hit": false,
      "t": 135545.31899999984,
      "d": 2181.8160000000207,
      "v": 126
    },
    {
      "midi": 66,
      "hit": false,
      "t": 135818.04599999986,
      "d": 272.7270000000135,
      "v": 126
    },
    {
      "midi": 68,
      "hit": false,
      "t": 136090.77299999987,
      "d": 1636.3619999999937,
      "v": 126
    },
    {
      "midi": 52,
      "hit": false,
      "t": 136090.77300000007,
      "d": 1136.3624999999884,
      "v": 122
    },
    {
      "midi": 57,
      "hit": false,
      "t": 136090.77300000007,
      "d": 1159.0897499999846,
      "v": 122
    },
    {
      "midi": 54,
      "hit": false,
      "t": 137454.40800000005,
      "d": 624.999375000014,
      "v": 126
    },
    {
      "midi": 59,
      "hit": false,
      "t": 137454.40800000005,
      "d": 676.1356875000056,
      "v": 122
    },
    {
      "midi": 59,
      "hit": false,
      "t": 137727.13499999986,
      "d": 1909.0890000000363,
      "v": 122
    },
    {
      "midi": 66,
      "hit": false,
      "t": 137999.86199999988,
      "d": 272.7270000000135,
      "v": 126
    },
    {
      "midi": 68,
      "hit": false,
      "t": 138272.5889999999,
      "d": 1636.3620000000228,
      "v": 116
    },
    {
      "midi": 59,
      "hit": false,
      "t": 138272.58900000007,
      "d": 1028.408062500006,
      "v": 126
    },
    {
      "midi": 54,
      "hit": false,
      "t": 138272.58900000007,
      "d": 1147.7261250000156,
      "v": 126
    },
    {
      "midi": 64,
      "hit": false,
      "t": 139636.22400000007,
      "d": 272.7270000000135,
      "v": 126
    },
    {
      "midi": 56,
      "hit": false,
      "t": 139908.9509999999,
      "d": 1909.0890000000363,
      "v": 126
    },
    {
      "midi": 63,
      "hit": false,
      "t": 139908.9510000001,
      "d": 261.36337499998626,
      "v": 126
    },
    {
      "midi": 63,
      "hit": false,
      "t": 140181.67799999993,
      "d": 272.7270000000135,
      "v": 126
    },
    {
      "midi": 56,
      "hit": false,
      "t": 140181.67800000007,
      "d": 255.6815624999872,
      "v": 126
    },
    {
      "midi": 64,
      "hit": false,
      "t": 140454.40499999994,
      "d": 1636.3620000000228,
      "v": 110
    },
    {
      "midi": 63,
      "hit": false,
      "t": 140454.40500000006,
      "d": 545.4539999999979,
      "v": 126
    },
    {
      "midi": 68,
      "hit": false,
      "t": 140999.85900000005,
      "d": 545.4539999999979,
      "v": 126
    },
    {
      "midi": 64,
      "hit": false,
      "t": 141545.31300000005,
      "d": 1227.2715000000026,
      "v": 126
    },
    {
      "midi": 56,
      "hit": false,
      "t": 142090.76699999996,
      "d": 1636.3620000000228,
      "v": 126
    },
    {
      "midi": 63,
      "hit": false,
      "t": 142363.49399999998,
      "d": 272.7270000000135,
      "v": 116
    },
    {
      "midi": 64,
      "hit": false,
      "t": 142636.221,
      "d": 1363.6350000000093,
      "v": 116
    },
    {
      "midi": 59,
      "hit": false,
      "t": 142908.94800000006,
      "d": 874.9991250000021,
      "v": 122
    },
    {
      "midi": 63,
      "hit": false,
      "t": 142908.94800000006,
      "d": 880.6809375000012,
      "v": 126
    },
    {
      "midi": 66,
      "hit": false,
      "t": 142908.94800000006,
      "d": 880.6809375000012,
      "v": 126
    },
    {
      "midi": 59,
      "hit": false,
      "t": 143999.856,
      "d": 2181.8160000000207,
      "v": 122
    },
    {
      "midi": 64,
      "hit": false,
      "t": 143999.856,
      "d": 2181.8160000000207,
      "v": 116
    },
    {
      "midi": 68,
      "hit": false,
      "t": 143999.856,
      "d": 2181.8160000000207,
      "v": 116
    },
    {
      "midi": 64,
      "hit": false,
      "t": 143999.85600000006,
      "d": 642.0448125000112,
      "v": 126
    },
    {
      "midi": 59,
      "hit": false,
      "t": 143999.85600000006,
      "d": 653.4084375000093,
      "v": 126
    },
    {
      "midi": 71,
      "hit": false,
      "t": 144545.31,
      "d": 1636.3620000000228,
      "v": 90
    },
    {
      "midi": 76,
      "hit": false,
      "t": 144818.037,
      "d": 1363.6350000000093,
      "v": 125
    },
    {
      "midi": 59,
      "hit": false,
      "t": 144818.03700000007,
      "d": 1227.2715000000026,
      "v": 126
    },
    {
      "midi": 64,
      "hit": false,
      "t": 144818.03700000007,
      "d": 1227.2715000000026,
      "v": 126
    },
    {
      "midi": 61,
      "hit": false,
      "t": 146181.67200000002,
      "d": 2181.8160000000207,
      "v": 106
    },
    {
      "midi": 64,
      "hit": false,
      "t": 146181.67200000002,
      "d": 2181.8160000000207,
      "v": 106
    },
    {
      "midi": 68,
      "hit": false,
      "t": 146181.67200000002,
      "d": 2181.8160000000207,
      "v": 116
    },
    {
      "midi": 61,
      "hit": false,
      "t": 146181.67200000008,
      "d": 681.8175000000047,
      "v": 126
    },
    {
      "midi": 64,
      "hit": false,
      "t": 146181.67200000008,
      "d": 681.8175000000047,
      "v": 126
    },
    {
      "midi": 71,
      "hit": false,
      "t": 146727.12600000002,
      "d": 1636.3620000000228,
      "v": 90
    },
    {
      "midi": 76,
      "hit": false,
      "t": 146999.85300000003,
      "d": 1363.6350000000093,
      "v": 120
    },
    {
      "midi": 64,
      "hit": false,
      "t": 146999.8530000001,
      "d": 1113.635249999992,
      "v": 126
    },
    {
      "midi": 61,
      "hit": false,
      "t": 146999.8530000001,
      "d": 1153.4079374999856,
      "v": 126
    },
    {
      "midi": 57,
      "hit": false,
      "t": 148363.48800000004,
      "d": 2181.8160000000207,
      "v": 110
    },
    {
      "midi": 61,
      "hit": false,
      "t": 148363.48800000004,
      "d": 2181.8160000000207,
      "v": 126
    },
    {
      "midi": 64,
      "hit": false,
      "t": 148363.48800000004,
      "d": 2181.8160000000207,
      "v": 110
    },
    {
      "midi": 57,
      "hit": false,
      "t": 148363.48800000007,
      "d": 670.4538750000065,
      "v": 122
    },
    {
      "midi": 61,
      "hit": false,
      "t": 148363.48800000007,
      "d": 681.8175000000047,
      "v": 126
    },
    {
      "midi": 71,
      "hit": false,
      "t": 148908.94200000004,
      "d": 1636.3620000000228,
      "v": 90
    },
    {
      "midi": 76,
      "hit": false,
      "t": 149181.66900000005,
      "d": 1363.6350000000093,
      "v": 125
    },
    {
      "midi": 57,
      "hit": false,
      "t": 149181.66900000008,
      "d": 1090.9079999999958,
      "v": 126
    },
    {
      "midi": 61,
      "hit": false,
      "t": 149181.66900000008,
      "d": 1164.7715624999837,
      "v": 126
    },
    {
      "midi": 59,
      "hit": false,
      "t": 150545.30400000006,
      "d": 2181.8160000000207,
      "v": 116
    },
    {
      "midi": 63,
      "hit": false,
      "t": 150545.30400000006,
      "d": 2181.8160000000207,
      "v": 126
    },
    {
      "midi": 66,
      "hit": false,
      "t": 150545.30400000006,
      "d": 2181.8160000000207,
      "v": 126
    },
    {
      "midi": 63,
      "hit": false,
      "t": 150545.30400000006,
      "d": 624.999375000014,
      "v": 126
    },
    {
      "midi": 59,
      "hit": false,
      "t": 150545.30400000006,
      "d": 670.4538750000065,
      "v": 122
    },
    {
      "midi": 71,
      "hit": false,
      "t": 151090.75800000006,
      "d": 1636.3620000000228,
      "v": 90
    },
    {
      "midi": 78,
      "hit": false,
      "t": 151363.48500000007,
      "d": 1363.6350000000093,
      "v": 127
    },
    {
      "midi": 59,
      "hit": false,
      "t": 151363.48500000007,
      "d": 1159.0897500000137,
      "v": 116
    },
    {
      "midi": 63,
      "hit": false,
      "t": 151363.48500000007,
      "d": 1170.4533750000119,
      "v": 126
    },
    {
      "midi": 61,
      "hit": false,
      "t": 152727.12000000008,
      "d": 2181.8160000000207,
      "v": 126
    },
    {
      "midi": 64,
      "hit": false,
      "t": 152727.12000000008,
      "d": 2181.8160000000207,
      "v": 126
    },
    {
      "midi": 68,
      "hit": false,
      "t": 152727.12000000008,
      "d": 2181.8160000000207,
      "v": 116
    },
    {
      "midi": 61,
      "hit": false,
      "t": 152727.12000000008,
      "d": 681.8175000000047,
      "v": 122
    },
    {
      "midi": 64,
      "hit": false,
      "t": 152727.12000000008,
      "d": 681.8175000000047,
      "v": 122
    },
    {
      "midi": 75,
      "hit": false,
      "t": 153545.3010000001,
      "d": 1363.6350000000093,
      "v": 127
    },
    {
      "midi": 64,
      "hit": false,
      "t": 153545.3010000001,
      "d": 1187.498812500009,
      "v": 126
    },
    {
      "midi": 61,
      "hit": false,
      "t": 153545.3010000001,
      "d": 1227.2715000000026,
      "v": 126
    },
    {
      "midi": 59,
      "hit": false,
      "t": 154908.9360000001,
      "d": 2181.8160000000207,
      "v": 122
    },
    {
      "midi": 63,
      "hit": false,
      "t": 154908.9360000001,
      "d": 2181.8160000000207,
      "v": 110
    },
    {
      "midi": 68,
      "hit": false,
      "t": 154908.9360000001,
      "d": 2181.8160000000207,
      "v": 126
    },
    {
      "midi": 59,
      "hit": false,
      "t": 154908.9360000001,
      "d": 818.1810000000114,
      "v": 122
    },
    {
      "midi": 63,
      "hit": false,
      "t": 154908.9360000001,
      "d": 818.1810000000114,
      "v": 126
    },
    {
      "midi": 75,
      "hit": false,
      "t": 155727.11700000011,
      "d": 1363.6350000000093,
      "v": 127
    },
    {
      "midi": 59,
      "hit": false,
      "t": 155727.11700000011,
      "d": 1227.2715000000026,
      "v": 122
    },
    {
      "midi": 63,
      "hit": false,
      "t": 155727.11700000011,
      "d": 1227.2715000000026,
      "v": 126
    },
    {
      "midi": 57,
      "hit": false,
      "t": 157090.75200000012,
      "d": 2181.8160000000207,
      "v": 122
    },
    {
      "midi": 61,
      "hit": false,
      "t": 157090.75200000012,
      "d": 2181.8160000000207,
      "v": 116
    },
    {
      "midi": 64,
      "hit": false,
      "t": 157090.75200000012,
      "d": 2181.8160000000207,
      "v": 122
    },
    {
      "midi": 57,
      "hit": false,
      "t": 157090.75200000012,
      "d": 636.3630000000121,
      "v": 122
    },
    {
      "midi": 61,
      "hit": false,
      "t": 157090.75200000012,
      "d": 653.4084375000093,
      "v": 126
    },
    {
      "midi": 68,
      "hit": false,
      "t": 157636.20600000012,
      "d": 1636.3620000000228,
      "v": 90
    },
    {
      "midi": 73,
      "hit": false,
      "t": 157908.93300000014,
      "d": 1363.6350000000093,
      "v": 120
    },
    {
      "midi": 57,
      "hit": false,
      "t": 157908.93300000014,
      "d": 1090.9079999999958,
      "v": 116
    },
    {
      "midi": 61,
      "hit": false,
      "t": 157908.93300000014,
      "d": 1193.1806250000081,
      "v": 126
    },
    {
      "midi": 59,
      "hit": false,
      "t": 159272.56800000014,
      "d": 2181.8160000000207,
      "v": 116
    },
    {
      "midi": 63,
      "hit": false,
      "t": 159272.56800000014,
      "d": 2181.8160000000207,
      "v": 116
    },
    {
      "midi": 66,
      "hit": false,
      "t": 159272.56800000014,
      "d": 2181.8160000000207,
      "v": 126
    },
    {
      "midi": 59,
      "hit": false,
      "t": 159272.56800000014,
      "d": 647.7266250000102,
      "v": 126
    },
    {
      "midi": 63,
      "hit": false,
      "t": 159272.56800000014,
      "d": 664.7720625000075,
      "v": 126
    },
    {
      "midi": 71,
      "hit": false,
      "t": 159818.02200000014,
      "d": 1636.3620000000228,
      "v": 90
    },
    {
      "midi": 75,
      "hit": false,
      "t": 160090.74900000016,
      "d": 1363.6350000000093,
      "v": 125
    },
    {
      "midi": 59,
      "hit": false,
      "t": 160090.74900000016,
      "d": 1062.4989375000005,
      "v": 110
    },
    {
      "midi": 63,
      "hit": false,
      "t": 160090.74900000016,
      "d": 1079.5443749999977,
      "v": 126
    },
    {
      "midi": 62,
      "hit": false,
      "t": 161454.38400000017,
      "d": 2181.8160000000207,
      "v": 122
    },
    {
      "midi": 67,
      "hit": false,
      "t": 161454.38400000017,
      "d": 2181.8160000000207,
      "v": 116
    },
    {
      "midi": 71,
      "hit": false,
      "t": 161454.38400000017,
      "d": 2181.8160000000207,
      "v": 116
    },
    {
      "midi": 67,
      "hit": false,
      "t": 161454.38400000017,
      "d": 653.4084375000093,
      "v": 126
    },
    {
      "midi": 59,
      "hit": false,
      "t": 161454.38400000017,
      "d": 670.4538750000065,
      "v": 122
    },
    {
      "midi": 62,
      "hit": false,
      "t": 161454.38400000017,
      "d": 687.4993125000037,
      "v": 126
    },
    {
      "midi": 74,
      "hit": false,
      "t": 161999.83800000016,
      "d": 1636.3620000000228,
      "v": 90
    },
    {
      "midi": 79,
      "hit": false,
      "t": 162272.56500000018,
      "d": 1363.6350000000093,
      "v": 125
    },
    {
      "midi": 59,
      "hit": false,
      "t": 162272.56500000018,
      "d": 1187.498812500009,
      "v": 122
    },
    {
      "midi": 62,
      "hit": false,
      "t": 162272.56500000018,
      "d": 1187.498812500009,
      "v": 126
    },
    {
      "midi": 67,
      "hit": false,
      "t": 162272.56500000018,
      "d": 1187.498812500009,
      "v": 126
    },
    {
      "midi": 64,
      "hit": false,
      "t": 163636.2000000002,
      "d": 2181.8160000000207,
      "v": 106
    },
    {
      "midi": 67,
      "hit": false,
      "t": 163636.2000000002,
      "d": 2181.8160000000207,
      "v": 106
    },
    {
      "midi": 71,
      "hit": false,
      "t": 163636.2000000002,
      "d": 2181.8160000000207,
      "v": 116
    },
    {
      "midi": 64,
      "hit": false,
      "t": 163636.2000000002,
      "d": 630.681187500013,
      "v": 126
    },
    {
      "midi": 67,
      "hit": false,
      "t": 163636.2000000002,
      "d": 670.4538750000065,
      "v": 126
    },
    {
      "midi": 59,
      "hit": false,
      "t": 163636.2000000002,
      "d": 693.1811250000028,
      "v": 126
    },
    {
      "midi": 74,
      "hit": false,
      "t": 164181.65400000018,
      "d": 1636.3620000000228,
      "v": 90
    },
    {
      "midi": 79,
      "hit": false,
      "t": 164454.3810000002,
      "d": 1363.6350000000093,
      "v": 120
    },
    {
      "midi": 59,
      "hit": false,
      "t": 164454.3810000002,
      "d": 1130.6806874999893,
      "v": 122
    },
    {
      "midi": 67,
      "hit": false,
      "t": 164454.3810000002,
      "d": 1142.0443124999874,
      "v": 126
    },
    {
      "midi": 64,
      "hit": false,
      "t": 164454.3810000002,
      "d": 1153.4079374999856,
      "v": 126
    },
    {
      "midi": 60,
      "hit": false,
      "t": 165818.01600000018,
      "d": 681.8175000000047,
      "v": 126
    },
    {
      "midi": 64,
      "hit": false,
      "t": 165818.01600000018,
      "d": 687.4993125000037,
      "v": 126
    },
    {
      "midi": 67,
      "hit": false,
      "t": 165818.01600000018,
      "d": 687.4993125000037,
      "v": 122
    },
    {
      "midi": 60,
      "hit": false,
      "t": 165818.0160000002,
      "d": 2181.8160000000207,
      "v": 110
    },
    {
      "midi": 64,
      "hit": false,
      "t": 165818.0160000002,
      "d": 2181.8160000000207,
      "v": 126
    },
    {
      "midi": 67,
      "hit": false,
      "t": 165818.0160000002,
      "d": 2181.8160000000207,
      "v": 110
    },
    {
      "midi": 74,
      "hit": false,
      "t": 166363.4700000002,
      "d": 1636.3620000000228,
      "v": 90
    },
    {
      "midi": 60,
      "hit": false,
      "t": 166636.1970000002,
      "d": 1051.1353125000023,
      "v": 126
    },
    {
      "midi": 67,
      "hit": false,
      "t": 166636.1970000002,
      "d": 1085.2261874999967,
      "v": 122
    },
    {
      "midi": 64,
      "hit": false,
      "t": 166636.1970000002,
      "d": 1164.7715624999837,
      "v": 126
    },
    {
      "midi": 79,
      "hit": false,
      "t": 166636.19700000022,
      "d": 1363.6350000000093,
      "v": 125
    },
    {
      "midi": 69,
      "hit": false,
      "t": 167999.83200000017,
      "d": 653.4084375000093,
      "v": 126
    },
    {
      "midi": 66,
      "hit": false,
      "t": 167999.83200000017,
      "d": 681.8175000000047,
      "v": 126
    },
    {
      "midi": 62,
      "hit": false,
      "t": 167999.83200000017,
      "d": 687.4993125000037,
      "v": 126
    },
    {
      "midi": 62,
      "hit": false,
      "t": 167999.83200000023,
      "d": 2181.8160000000207,
      "v": 116
    },
    {
      "midi": 66,
      "hit": false,
      "t": 167999.83200000023,
      "d": 2181.8160000000207,
      "v": 126
    },
    {
      "midi": 69,
      "hit": false,
      "t": 167999.83200000023,
      "d": 2181.8160000000207,
      "v": 126
    },
    {
      "midi": 74,
      "hit": false,
      "t": 168545.28600000023,
      "d": 1636.3620000000228,
      "v": 90
    },
    {
      "midi": 69,
      "hit": false,
      "t": 168818.01300000018,
      "d": 1068.1807499999995,
      "v": 126
    },
    {
      "midi": 66,
      "hit": false,
      "t": 168818.01300000018,
      "d": 1096.5898124999949,
      "v": 126
    },
    {
      "midi": 62,
      "hit": false,
      "t": 168818.01300000018,
      "d": 1124.9988749999902,
      "v": 122
    },
    {
      "midi": 79,
      "hit": false,
      "t": 168818.01300000024,
      "d": 1363.6350000000093,
      "v": 127
    },
    {
      "midi": 67,
      "hit": false,
      "t": 170181.64800000016,
      "d": 642.0448125000112,
      "v": 122
    },
    {
      "midi": 59,
      "hit": false,
      "t": 170181.64800000016,
      "d": 670.4538750000065,
      "v": 122
    },
    {
      "midi": 64,
      "hit": false,
      "t": 170181.64800000016,
      "d": 687.4993125000037,
      "v": 126
    },
    {
      "midi": 64,
      "hit": false,
      "t": 170181.64800000025,
      "d": 2181.8160000000207,
      "v": 126
    },
    {
      "midi": 67,
      "hit": false,
      "t": 170181.64800000025,
      "d": 2181.8160000000207,
      "v": 126
    },
    {
      "midi": 71,
      "hit": false,
      "t": 170181.64800000025,
      "d": 2181.8160000000207,
      "v": 116
    },
    {
      "midi": 64,
      "hit": false,
      "t": 170999.82900000017,
      "d": 869.317312500003,
      "v": 126
    },
    {
      "midi": 67,
      "hit": false,
      "t": 170999.82900000017,
      "d": 1113.635249999992,
      "v": 126
    },
    {
      "midi": 59,
      "hit": false,
      "t": 170999.82900000017,
      "d": 1187.49881249998,
      "v": 126
    },
    {
      "midi": 76,
      "hit": false,
      "t": 170999.82900000026,
      "d": 1363.6350000000093,
      "v": 127
    },
    {
      "midi": 59,
      "hit": false,
      "t": 172363.46400000015,
      "d": 698.8629375000019,
      "v": 122
    },
    {
      "midi": 66,
      "hit": false,
      "t": 172363.46400000015,
      "d": 704.5447500000009,
      "v": 126
    },
    {
      "midi": 62,
      "hit": false,
      "t": 172363.46400000015,
      "d": 727.2719999999972,
      "v": 126
    },
    {
      "midi": 62,
      "hit": false,
      "t": 172363.46400000027,
      "d": 2181.8160000000207,
      "v": 122
    },
    {
      "midi": 66,
      "hit": false,
      "t": 172363.46400000027,
      "d": 2181.8160000000207,
      "v": 110
    },
    {
      "midi": 71,
      "hit": false,
      "t": 172363.46400000027,
      "d": 2181.8160000000207,
      "v": 126
    },
    {
      "midi": 59,
      "hit": false,
      "t": 173181.64500000016,
      "d": 1119.3170624999912,
      "v": 122
    },
    {
      "midi": 66,
      "hit": false,
      "t": 173181.64500000016,
      "d": 1147.7261249999865,
      "v": 126
    },
    {
      "midi": 62,
      "hit": false,
      "t": 173181.64500000016,
      "d": 1181.816999999981,
      "v": 122
    },
    {
      "midi": 76,
      "hit": false,
      "t": 173181.64500000028,
      "d": 1363.6350000000093,
      "v": 127
    },
    {
      "midi": 55,
      "hit": false,
      "t": 174545.28000000014,
      "d": 636.3630000000121,
      "v": 126
    },
    {
      "midi": 60,
      "hit": false,
      "t": 174545.28000000014,
      "d": 676.1356875000056,
      "v": 122
    },
    {
      "midi": 64,
      "hit": false,
      "t": 174545.28000000014,
      "d": 676.1356875000056,
      "v": 126
    },
    {
      "midi": 60,
      "hit": false,
      "t": 174545.2800000003,
      "d": 2181.8160000000207,
      "v": 122
    },
    {
      "midi": 64,
      "hit": false,
      "t": 174545.2800000003,
      "d": 2181.8160000000207,
      "v": 116
    },
    {
      "midi": 67,
      "hit": false,
      "t": 174545.2800000003,
      "d": 2181.8160000000207,
      "v": 122
    },
    {
      "midi": 71,
      "hit": false,
      "t": 175090.7340000003,
      "d": 1636.3620000000228,
      "v": 90
    },
    {
      "midi": 55,
      "hit": false,
      "t": 175363.46100000016,
      "d": 1164.7715625000128,
      "v": 126
    },
    {
      "midi": 60,
      "hit": false,
      "t": 175363.46100000016,
      "d": 1170.4533750000119,
      "v": 116
    },
    {
      "midi": 64,
      "hit": false,
      "t": 175363.46100000016,
      "d": 1221.5896875000035,
      "v": 126
    },
    {
      "midi": 76,
      "hit": false,
      "t": 175363.4610000003,
      "d": 1363.6350000000093,
      "v": 120
    },
    {
      "midi": 57,
      "hit": false,
      "t": 176727.09600000017,
      "d": 647.7266250000102,
      "v": 126
    },
    {
      "midi": 62,
      "hit": false,
      "t": 176727.09600000017,
      "d": 659.0902500000084,
      "v": 126
    },
    {
      "midi": 64,
      "hit": false,
      "t": 176727.09600000017,
      "d": 664.7720625000075,
      "v": 126
    },
    {
      "midi": 62,
      "hit": false,
      "t": 176727.0960000003,
      "d": 2181.8160000000207,
      "v": 116
    },
    {
      "midi": 66,
      "hit": false,
      "t": 176727.0960000003,
      "d": 2181.8160000000207,
      "v": 116
    },
    {
      "midi": 69,
      "hit": false,
      "t": 176727.0960000003,
      "d": 2181.8160000000207,
      "v": 126
    },
    {
      "midi": 62,
      "hit": false,
      "t": 177545.27700000018,
      "d": 448.86318750001374,
      "v": 126
    },
    {
      "midi": 64,
      "hit": false,
      "t": 177545.27700000018,
      "d": 534.0903749999998,
      "v": 126
    },
    {
      "midi": 57,
      "hit": false,
      "t": 177545.27700000018,
      "d": 1198.8624375000072,
      "v": 126
    },
    {
      "midi": 76,
      "hit": false,
      "t": 177545.27700000032,
      "d": 1363.6350000000093,
      "v": 125
    },
    {
      "midi": 62,
      "hit": false,
      "t": 178090.73100000017,
      "d": 659.0902500000084,
      "v": 126
    },
    {
      "midi": 60,
      "hit": false,
      "t": 178908.9120000002,
      "d": 676.1356875000056,
      "v": 126
    },
    {
      "midi": 64,
      "hit": false,
      "t": 178908.9120000002,
      "d": 693.1811250000028,
      "v": 126
    },
    {
      "midi": 60,
      "hit": false,
      "t": 178908.91200000033,
      "d": 539.7721874999988,
      "v": 122
    },
    {
      "midi": 60,
      "hit": false,
      "t": 179454.36600000033,
      "d": 267.04518750001444,
      "v": 106
    },
    {
      "midi": 64,
      "hit": false,
      "t": 179454.36600000033,
      "d": 272.7270000000135,
      "v": 116
    },
    {
      "midi": 69,
      "hit": false,
      "t": 179454.36600000033,
      "d": 272.7270000000135,
      "v": 110
    },
    {
      "midi": 64,
      "hit": false,
      "t": 179727.0930000002,
      "d": 1170.4533750000119,
      "v": 126
    },
    {
      "midi": 60,
      "hit": false,
      "t": 179727.0930000002,
      "d": 1187.498812500009,
      "v": 126
    },
    {
      "midi": 60,
      "hit": false,
      "t": 179727.09300000034,
      "d": 1357.9531875000102,
      "v": 96
    },
    {
      "midi": 64,
      "hit": false,
      "t": 179727.09300000034,
      "d": 1357.9531875000102,
      "v": 122
    },
    {
      "midi": 71,
      "hit": false,
      "t": 179727.09300000034,
      "d": 1357.9531875000102,
      "v": 106
    },
    {
      "midi": 62,
      "hit": false,
      "t": 181090.7280000002,
      "d": 687.4993125000037,
      "v": 126
    },
    {
      "midi": 66,
      "hit": false,
      "t": 181090.7280000002,
      "d": 687.4993125000037,
      "v": 126
    },
    {
      "midi": 62,
      "hit": false,
      "t": 181090.72800000035,
      "d": 545.4539999999979,
      "v": 116
    },
    {
      "midi": 62,
      "hit": false,
      "t": 181636.18200000035,
      "d": 267.04518750001444,
      "v": 96
    },
    {
      "midi": 69,
      "hit": false,
      "t": 181636.18200000035,
      "d": 267.04518750001444,
      "v": 106
    },
    {
      "midi": 66,
      "hit": false,
      "t": 181636.18200000035,
      "d": 272.7270000000135,
      "v": 106
    },
    {
      "midi": 66,
      "hit": false,
      "t": 181908.90900000022,
      "d": 1142.0443124999874,
      "v": 126
    },
    {
      "midi": 62,
      "hit": false,
      "t": 181908.90900000022,
      "d": 1176.1351874999818,
      "v": 126
    },
    {
      "midi": 66,
      "hit": false,
      "t": 181908.90900000036,
      "d": 1357.9531875000102,
      "v": 106
    },
    {
      "midi": 71,
      "hit": false,
      "t": 181908.90900000036,
      "d": 1357.9531875000102,
      "v": 106
    },
    {
      "midi": 62,
      "hit": false,
      "t": 181908.90900000036,
      "d": 1363.6350000000093,
      "v": 96
    },
    {
      "midi": 59,
      "hit": false,
      "t": 183272.5440000002,
      "d": 659.0902500000084,
      "v": 126
    },
    {
      "midi": 64,
      "hit": false,
      "t": 183272.5440000002,
      "d": 664.7720625000075,
      "v": 126
    },
    {
      "midi": 64,
      "hit": false,
      "t": 183272.54400000037,
      "d": 539.7721874999988,
      "v": 110
    },
    {
      "midi": 64,
      "hit": false,
      "t": 183817.99800000037,
      "d": 267.04518750001444,
      "v": 106
    },
    {
      "midi": 67,
      "hit": false,
      "t": 183817.99800000037,
      "d": 267.04518750001444,
      "v": 100
    },
    {
      "midi": 69,
      "hit": false,
      "t": 183817.99800000037,
      "d": 267.04518750001444,
      "v": 106
    },
    {
      "midi": 59,
      "hit": false,
      "t": 184090.7250000002,
      "d": 1159.0897500000137,
      "v": 126
    },
    {
      "midi": 64,
      "hit": false,
      "t": 184090.7250000002,
      "d": 1187.498812500009,
      "v": 126
    },
    {
      "midi": 64,
      "hit": false,
      "t": 184090.72500000038,
      "d": 1357.9531875000102,
      "v": 110
    },
    {
      "midi": 67,
      "hit": false,
      "t": 184090.72500000038,
      "d": 1357.9531875000102,
      "v": 110
    },
    {
      "midi": 71,
      "hit": false,
      "t": 184090.72500000038,
      "d": 1357.9531875000102,
      "v": 116
    },
    {
      "midi": 59,
      "hit": false,
      "t": 185454.36000000022,
      "d": 653.4084375000093,
      "v": 126
    },
    {
      "midi": 64,
      "hit": false,
      "t": 185454.36000000022,
      "d": 693.1811250000028,
      "v": 126
    },
    {
      "midi": 67,
      "hit": false,
      "t": 185454.3600000004,
      "d": 539.7721874999988,
      "v": 38
    },
    {
      "midi": 64,
      "hit": false,
      "t": 185454.3600000004,
      "d": 545.4539999999979,
      "v": 116
    },
    {
      "midi": 64,
      "hit": false,
      "t": 185999.8140000004,
      "d": 267.04518750001444,
      "v": 100
    },
    {
      "midi": 69,
      "hit": false,
      "t": 185999.8140000004,
      "d": 267.04518750001444,
      "v": 106
    },
    {
      "midi": 67,
      "hit": false,
      "t": 185999.8140000004,
      "d": 272.7270000000135,
      "v": 106
    },
    {
      "midi": 59,
      "hit": false,
      "t": 186272.54100000023,
      "d": 1136.3624999999884,
      "v": 126
    },
    {
      "midi": 64,
      "hit": false,
      "t": 186272.54100000023,
      "d": 1153.4079374999856,
      "v": 126
    },
    {
      "midi": 64,
      "hit": false,
      "t": 186272.5410000004,
      "d": 1357.9531875000102,
      "v": 96
    },
    {
      "midi": 67,
      "hit": false,
      "t": 186272.5410000004,
      "d": 1357.9531875000102,
      "v": 106
    },
    {
      "midi": 71,
      "hit": false,
      "t": 186272.5410000004,
      "d": 1357.9531875000102,
      "v": 116
    },
    {
      "midi": 60,
      "hit": false,
      "t": 187636.1760000002,
      "d": 659.0902500000084,
      "v": 126
    },
    {
      "midi": 64,
      "hit": false,
      "t": 187636.1760000002,
      "d": 676.1356875000056,
      "v": 126
    },
    {
      "midi": 60,
      "hit": false,
      "t": 187636.1760000004,
      "d": 539.7721874999988,
      "v": 122
    },
    {
      "midi": 60,
      "hit": false,
      "t": 188181.6300000004,
      "d": 267.04518750001444,
      "v": 100
    },
    {
      "midi": 64,
      "hit": false,
      "t": 188181.6300000004,
      "d": 272.7270000000135,
      "v": 122
    },
    {
      "midi": 69,
      "hit": false,
      "t": 188181.6300000004,
      "d": 272.7270000000135,
      "v": 110
    },
    {
      "midi": 60,
      "hit": false,
      "t": 188454.35700000022,
      "d": 1056.8171250000014,
      "v": 126
    },
    {
      "midi": 64,
      "hit": false,
      "t": 188454.35700000022,
      "d": 1198.8624375000072,
      "v": 126
    },
    {
      "midi": 60,
      "hit": false,
      "t": 188454.35700000043,
      "d": 1363.6350000000093,
      "v": 100
    },
    {
      "midi": 64,
      "hit": false,
      "t": 188454.35700000043,
      "d": 1363.6350000000093,
      "v": 115
    },
    {
      "midi": 71,
      "hit": false,
      "t": 188454.35700000043,
      "d": 1363.6350000000093,
      "v": 122
    },
    {
      "midi": 57,
      "hit": false,
      "t": 189817.99200000023,
      "d": 619.3175624999858,
      "v": 126
    },
    {
      "midi": 62,
      "hit": false,
      "t": 189817.99200000023,
      "d": 642.0448124999821,
      "v": 126
    },
    {
      "midi": 62,
      "hit": false,
      "t": 189817.99200000043,
      "d": 545.4539999999979,
      "v": 110
    },
    {
      "midi": 62,
      "hit": false,
      "t": 190363.44600000043,
      "d": 267.04518750001444,
      "v": 110
    },
    {
      "midi": 66,
      "hit": false,
      "t": 190363.44600000043,
      "d": 272.7270000000135,
      "v": 106
    },
    {
      "midi": 69,
      "hit": false,
      "t": 190363.44600000043,
      "d": 272.7270000000135,
      "v": 106
    },
    {
      "midi": 57,
      "hit": false,
      "t": 190636.1730000002,
      "d": 1153.4079375000147,
      "v": 126
    },
    {
      "midi": 62,
      "hit": false,
      "t": 190636.1730000002,
      "d": 1181.81700000001,
      "v": 126
    },
    {
      "midi": 66,
      "hit": false,
      "t": 190636.17300000045,
      "d": 1357.9531875000102,
      "v": 116
    },
    {
      "midi": 71,
      "hit": false,
      "t": 190636.17300000045,
      "d": 1357.9531875000102,
      "v": 110
    },
    {
      "midi": 62,
      "hit": false,
      "t": 190636.17300000045,
      "d": 1363.6350000000093,
      "v": 110
    },
    {
      "midi": 59,
      "hit": false,
      "t": 191999.80800000022,
      "d": 642.0448125000112,
      "v": 126
    },
    {
      "midi": 64,
      "hit": false,
      "t": 191999.80800000022,
      "d": 676.1356875000056,
      "v": 126
    },
    {
      "midi": 64,
      "hit": false,
      "t": 191999.80800000046,
      "d": 539.7721874999988,
      "v": 116
    },
    {
      "midi": 64,
      "hit": false,
      "t": 192545.26200000045,
      "d": 267.04518750001444,
      "v": 96
    },
    {
      "midi": 67,
      "hit": false,
      "t": 192545.26200000045,
      "d": 267.04518750001444,
      "v": 106
    },
    {
      "midi": 69,
      "hit": false,
      "t": 192545.26200000045,
      "d": 267.04518750001444,
      "v": 100
    },
    {
      "midi": 59,
      "hit": false,
      "t": 192817.98900000023,
      "d": 1187.498812500009,
      "v": 126
    },
    {
      "midi": 64,
      "hit": false,
      "t": 192817.98900000023,
      "d": 1204.5442500000063,
      "v": 126
    },
    {
      "midi": 64,
      "hit": false,
      "t": 192817.98900000047,
      "d": 1357.9531875000102,
      "v": 100
    },
    {
      "midi": 67,
      "hit": false,
      "t": 192817.98900000047,
      "d": 1357.9531875000102,
      "v": 106
    },
    {
      "midi": 71,
      "hit": false,
      "t": 192817.98900000047,
      "d": 1363.6350000000093,
      "v": 116
    },
    {
      "midi": 59,
      "hit": false,
      "t": 194181.62400000024,
      "d": 630.681187500013,
      "v": 126
    },
    {
      "midi": 64,
      "hit": false,
      "t": 194181.62400000024,
      "d": 670.4538750000065,
      "v": 126
    },
    {
      "midi": 64,
      "hit": false,
      "t": 194181.62400000048,
      "d": 539.7721874999988,
      "v": 122
    },
    {
      "midi": 64,
      "hit": false,
      "t": 194727.07800000047,
      "d": 267.04518750001444,
      "v": 100
    },
    {
      "midi": 67,
      "hit": false,
      "t": 194727.07800000047,
      "d": 272.7270000000135,
      "v": 110
    },
    {
      "midi": 69,
      "hit": false,
      "t": 194727.07800000047,
      "d": 272.7270000000135,
      "v": 110
    },
    {
      "midi": 59,
      "hit": false,
      "t": 194999.80500000025,
      "d": 1136.3624999999884,
      "v": 126
    },
    {
      "midi": 64,
      "hit": false,
      "t": 194999.80500000025,
      "d": 1164.7715624999837,
      "v": 126
    },
    {
      "midi": 64,
      "hit": false,
      "t": 194999.8050000005,
      "d": 1363.6350000000093,
      "v": 110
    },
    {
      "midi": 67,
      "hit": false,
      "t": 194999.8050000005,
      "d": 1363.6350000000093,
      "v": 110
    },
    {
      "midi": 71,
      "hit": false,
      "t": 194999.8050000005,
      "d": 1363.6350000000093,
      "v": 116
    },
    {
      "midi": 60,
      "hit": false,
      "t": 196363.44000000024,
      "d": 659.0902500000084,
      "v": 126
    },
    {
      "midi": 64,
      "hit": false,
      "t": 196363.44000000024,
      "d": 676.1356875000056,
      "v": 126
    },
    {
      "midi": 55,
      "hit": false,
      "t": 196363.4400000005,
      "d": 2181.8159999999916,
      "v": 126
    },
    {
      "midi": 60,
      "hit": false,
      "t": 196363.4400000005,
      "d": 2181.8159999999916,
      "v": 126
    },
    {
      "midi": 64,
      "hit": false,
      "t": 196363.4400000005,
      "d": 2181.8159999999916,
      "v": 122
    },
    {
      "midi": 60,
      "hit": false,
      "t": 197181.62100000025,
      "d": 1056.8171250000014,
      "v": 126
    },
    {
      "midi": 64,
      "hit": false,
      "t": 197181.62100000025,
      "d": 1198.8624375000072,
      "v": 126
    },
    {
      "midi": 57,
      "hit": false,
      "t": 198545.25600000026,
      "d": 619.3175624999858,
      "v": 126
    },
    {
      "midi": 62,
      "hit": false,
      "t": 198545.25600000026,
      "d": 642.0448124999821,
      "v": 126
    },
    {
      "midi": 54,
      "hit": false,
      "t": 198545.2560000005,
      "d": 2181.8159999999916,
      "v": 116
    },
    {
      "midi": 57,
      "hit": false,
      "t": 198545.2560000005,
      "d": 2181.8159999999916,
      "v": 110
    },
    {
      "midi": 62,
      "hit": false,
      "t": 198545.2560000005,
      "d": 2181.8159999999916,
      "v": 116
    },
    {
      "midi": 57,
      "hit": false,
      "t": 199363.43700000024,
      "d": 1153.4079375000147,
      "v": 126
    },
    {
      "midi": 62,
      "hit": false,
      "t": 199363.43700000024,
      "d": 1181.81700000001,
      "v": 126
    },
    {
      "midi": 59,
      "hit": false,
      "t": 200727.07200000025,
      "d": 642.0448125000112,
      "v": 126
    },
    {
      "midi": 64,
      "hit": false,
      "t": 200727.07200000025,
      "d": 676.1356875000056,
      "v": 126
    },
    {
      "midi": 55,
      "hit": false,
      "t": 200727.07200000048,
      "d": 4363.632000000012,
      "v": 110
    },
    {
      "midi": 59,
      "hit": false,
      "t": 200727.07200000048,
      "d": 4363.632000000012,
      "v": 122
    },
    {
      "midi": 64,
      "hit": false,
      "t": 200727.07200000048,
      "d": 4363.632000000012,
      "v": 110
    },
    {
      "midi": 59,
      "hit": false,
      "t": 201545.25300000026,
      "d": 1187.498812500009,
      "v": 126
    },
    {
      "midi": 64,
      "hit": false,
      "t": 201545.25300000026,
      "d": 1204.5442500000063,
      "v": 126
    },
    {
      "midi": 59,
      "hit": false,
      "t": 202908.88800000027,
      "d": 630.681187500013,
      "v": 126
    },
    {
      "midi": 64,
      "hit": false,
      "t": 202908.88800000027,
      "d": 670.4538750000065,
      "v": 126
    },
    {
      "midi": 59,
      "hit": false,
      "t": 203727.06900000028,
      "d": 1136.3624999999884,
      "v": 126
    },
    {
      "midi": 64,
      "hit": false,
      "t": 203727.06900000028,
      "d": 1164.7715624999837,
      "v": 126
    },
    {
      "midi": 60,
      "hit": false,
      "t": 205090.70400000026,
      "d": 659.0902500000084,
      "v": 126
    },
    {
      "midi": 64,
      "hit": false,
      "t": 205090.70400000026,
      "d": 676.1356875000056,
      "v": 126
    },
    {
      "midi": 55,
      "hit": false,
      "t": 205090.7040000005,
      "d": 2181.8159999999916,
      "v": 122
    },
    {
      "midi": 60,
      "hit": false,
      "t": 205090.7040000005,
      "d": 2181.8159999999916,
      "v": 116
    },
    {
      "midi": 64,
      "hit": false,
      "t": 205090.7040000005,
      "d": 2181.8159999999916,
      "v": 122
    },
    {
      "midi": 60,
      "hit": false,
      "t": 205908.88500000027,
      "d": 1056.8171250000014,
      "v": 126
    },
    {
      "midi": 64,
      "hit": false,
      "t": 205908.88500000027,
      "d": 1198.8624375000072,
      "v": 126
    },
    {
      "midi": 57,
      "hit": false,
      "t": 207272.52000000028,
      "d": 619.3175624999858,
      "v": 126
    },
    {
      "midi": 62,
      "hit": false,
      "t": 207272.52000000028,
      "d": 642.0448124999821,
      "v": 126
    },
    {
      "midi": 54,
      "hit": false,
      "t": 207272.52000000048,
      "d": 2181.8159999999916,
      "v": 126
    },
    {
      "midi": 57,
      "hit": false,
      "t": 207272.52000000048,
      "d": 2181.8159999999916,
      "v": 116
    },
    {
      "midi": 62,
      "hit": false,
      "t": 207272.52000000048,
      "d": 2181.8159999999916,
      "v": 116
    },
    {
      "midi": 57,
      "hit": false,
      "t": 208090.70100000026,
      "d": 1153.4079375000147,
      "v": 126
    },
    {
      "midi": 62,
      "hit": false,
      "t": 208090.70100000026,
      "d": 1181.81700000001,
      "v": 126
    },
    {
      "midi": 59,
      "hit": false,
      "t": 209454.33600000027,
      "d": 642.0448125000112,
      "v": 126
    },
    {
      "midi": 64,
      "hit": false,
      "t": 209454.33600000027,
      "d": 676.1356875000056,
      "v": 126
    },
    {
      "midi": 55,
      "hit": false,
      "t": 209454.33600000048,
      "d": 4363.632000000012,
      "v": 122
    },
    {
      "midi": 59,
      "hit": false,
      "t": 209454.33600000048,
      "d": 4363.632000000012,
      "v": 122
    },
    {
      "midi": 64,
      "hit": false,
      "t": 209454.33600000048,
      "d": 4363.632000000012,
      "v": 106
    },
    {
      "midi": 59,
      "hit": false,
      "t": 210272.51700000028,
      "d": 1187.498812500009,
      "v": 126
    },
    {
      "midi": 64,
      "hit": false,
      "t": 210272.51700000028,
      "d": 1204.5442500000063,
      "v": 126
    },
    {
      "midi": 59,
      "hit": false,
      "t": 211636.1520000003,
      "d": 630.681187500013,
      "v": 126
    },
    {
      "midi": 64,
      "hit": false,
      "t": 211636.1520000003,
      "d": 670.4538750000065,
      "v": 126
    },
    {
      "midi": 59,
      "hit": false,
      "t": 212454.3330000003,
      "d": 1136.3624999999884,
      "v": 126
    },
    {
      "midi": 64,
      "hit": false,
      "t": 212454.3330000003,
      "d": 1164.7715624999837,
      "v": 126
    },
    {
      "midi": 55,
      "hit": false,
      "t": 213817.9680000005,
      "d": 2181.8159999999916,
      "v": 110
    },
    {
      "midi": 60,
      "hit": false,
      "t": 213817.9680000005,
      "d": 2181.8159999999916,
      "v": 106
    },
    {
      "midi": 64,
      "hit": false,
      "t": 213817.9680000005,
      "d": 2181.8159999999916,
      "v": 110
    },
    {
      "midi": 54,
      "hit": false,
      "t": 215999.78400000048,
      "d": 2181.8159999999916,
      "v": 105
    },
    {
      "midi": 57,
      "hit": false,
      "t": 215999.78400000048,
      "d": 2181.8159999999916,
      "v": 100
    },
    {
      "midi": 62,
      "hit": false,
      "t": 215999.78400000048,
      "d": 2181.8159999999916,
      "v": 110
    },
    {
      "midi": 55,
      "hit": false,
      "t": 218181.60000000047,
      "d": 3749.9962499999965,
      "v": 110
    },
    {
      "midi": 59,
      "hit": false,
      "t": 218181.60000000047,
      "d": 3749.9962499999965,
      "v": 116
    },
    {
      "midi": 64,
      "hit": false,
      "t": 218181.60000000047,
      "d": 3749.9962499999965,
      "v": 110
    }
  ]
}