{
  "jsonPath": "World/Flamenco/La Barberia Del Sur/alegria-de-vivir.json",
  "path": "World\\Flamenco\\La Barberia Del Sur\\Alegria De Vivir.mid",
  "name": "Alegria De Vivir",
  "difficulty": "Advanced",
  "bpm": 130.00041166797027,
  "notes": [
    {
      "midi": 59,
      "hit": false,
      "t": 2400,
      "d": 253.125,
      "v": 90
    },
    {
      "midi": 62,
      "hit": false,
      "t": 2400,
      "d": 254.6875,
      "v": 111
    },
    {
      "midi": 57,
      "hit": false,
      "t": 2400,
      "d": 256.25,
      "v": 80
    },
    {
      "midi": 47,
      "hit": false,
      "t": 2400,
      "d": 257.8125,
      "v": 80
    },
    {
      "midi": 66,
      "hit": false,
      "t": 2400,
      "d": 279.6875,
      "v": 103
    },
    {
      "midi": 57,
      "hit": false,
      "t": 3300,
      "d": 8593.75,
      "v": 83
    },
    {
      "midi": 59,
      "hit": false,
      "t": 3300,
      "d": 8593.75,
      "v": 83
    },
    {
      "midi": 52,
      "hit": false,
      "t": 3300,
      "d": 8618.75,
      "v": 80
    },
    {
      "midi": 61,
      "hit": false,
      "t": 3300,
      "d": 8621.875,
      "v": 83
    },
    {
      "midi": 47,
      "hit": false,
      "t": 3300,
      "d": 8642.1875,
      "v": 81
    },
    {
      "midi": 83,
      "hit": false,
      "t": 4800,
      "d": 321.875,
      "v": 91
    },
    {
      "midi": 85,
      "hit": false,
      "t": 5100,
      "d": 518.75,
      "v": 83
    },
    {
      "midi": 86,
      "hit": false,
      "t": 5700,
      "d": 548.4375,
      "v": 70
    },
    {
      "midi": 88,
      "hit": false,
      "t": 6300,
      "d": 521.875,
      "v": 83
    },
    {
      "midi": 83,
      "hit": false,
      "t": 6900,
      "d": 567.1875,
      "v": 70
    },
    {
      "midi": 85,
      "hit": false,
      "t": 7500,
      "d": 518.75,
      "v": 63
    },
    {
      "midi": 86,
      "hit": false,
      "t": 8100,
      "d": 545.3125,
      "v": 61
    },
    {
      "midi": 88,
      "hit": false,
      "t": 8700,
      "d": 521.875,
      "v": 45
    },
    {
      "midi": 83,
      "hit": false,
      "t": 9300,
      "d": 2525,
      "v": 46
    },
    {
      "midi": 45,
      "hit": false,
      "t": 11700,
      "d": 123.4375,
      "v": 90
    },
    {
      "midi": 42,
      "hit": false,
      "t": 11850,
      "d": 153.125,
      "v": 103
    },
    {
      "midi": 59,
      "hit": false,
      "t": 12000,
      "d": 253.125,
      "v": 90
    },
    {
      "midi": 62,
      "hit": false,
      "t": 12000,
      "d": 254.6875,
      "v": 111
    },
    {
      "midi": 57,
      "hit": false,
      "t": 12000,
      "d": 256.25,
      "v": 80
    },
    {
      "midi": 47,
      "hit": false,
      "t": 12000,
      "d": 257.8125,
      "v": 80
    },
    {
      "midi": 66,
      "hit": false,
      "t": 12000,
      "d": 279.6875,
      "v": 103
    },
    {
      "midi": 57,
      "hit": false,
      "t": 12900,
      "d": 8593.75,
      "v": 83
    },
    {
      "midi": 59,
      "hit": false,
      "t": 12900,
      "d": 8593.75,
      "v": 83
    },
    {
      "midi": 52,
      "hit": false,
      "t": 12900,
      "d": 8618.75,
      "v": 80
    },
    {
      "midi": 61,
      "hit": false,
      "t": 12900,
      "d": 8621.875,
      "v": 83
    },
    {
      "midi": 47,
      "hit": false,
      "t": 12900,
      "d": 8642.1875,
      "v": 81
    },
    {
      "midi": 83,
      "hit": false,
      "t": 14400,
      "d": 321.875,
      "v": 91
    },
    {
      "midi": 85,
      "hit": false,
      "t": 14700,
      "d": 518.75,
      "v": 83
    },
    {
      "midi": 86,
      "hit": false,
      "t": 15300,
      "d": 548.4375,
      "v": 70
    },
    {
      "midi": 88,
      "hit": false,
      "t": 15900,
      "d": 521.875,
      "v": 83
    },
    {
      "midi": 83,
      "hit": false,
      "t": 16500,
      "d": 567.1875,
      "v": 70
    },
    {
      "midi": 85,
      "hit": false,
      "t": 17100,
      "d": 518.75,
      "v": 63
    },
    {
      "midi": 86,
      "hit": false,
      "t": 17700,
      "d": 545.3125,
      "v": 61
    },
    {
      "midi": 88,
      "hit": false,
      "t": 18300,
      "d": 521.875,
      "v": 45
    },
    {
      "midi": 83,
      "hit": false,
      "t": 18900,
      "d": 2525,
      "v": 46
    },
    {
      "midi": 45,
      "hit": false,
      "t": 21300,
      "d": 123.4375,
      "v": 90
    },
    {
      "midi": 42,
      "hit": false,
      "t": 21450,
      "d": 153.125,
      "v": 103
    },
    {
      "midi": 62,
      "hit": false,
      "t": 21600,
      "d": 2209.375,
      "v": 66
    },
    {
      "midi": 57,
      "hit": false,
      "t": 21600,
      "d": 2235.9375,
      "v": 66
    },
    {
      "midi": 59,
      "hit": false,
      "t": 21600,
      "d": 2260.9375,
      "v": 66
    },
    {
      "midi": 55,
      "hit": false,
      "t": 21600,
      "d": 2309.375,
      "v": 82
    },
    {
      "midi": 59,
      "hit": false,
      "t": 21600,
      "d": 329.6875,
      "v": 103
    },
    {
      "midi": 43,
      "hit": false,
      "t": 21600,
      "d": 2020.3125,
      "v": 81
    },
    {
      "midi": 61,
      "hit": false,
      "t": 21900,
      "d": 521.875,
      "v": 111
    },
    {
      "midi": 50,
      "hit": false,
      "t": 21900,
      "d": 1657.8125,
      "v": 80
    },
    {
      "midi": 71,
      "hit": false,
      "t": 22500,
      "d": 2382.8125,
      "v": 103
    },
    {
      "midi": 62,
      "hit": false,
      "t": 22500,
      "d": 592.1875,
      "v": 83
    },
    {
      "midi": 59,
      "hit": false,
      "t": 22500,
      "d": 1137.5,
      "v": 66
    },
    {
      "midi": 64,
      "hit": false,
      "t": 23100,
      "d": 546.875,
      "v": 103
    },
    {
      "midi": 61,
      "hit": false,
      "t": 23700,
      "d": 545.3125,
      "v": 103
    },
    {
      "midi": 61,
      "hit": false,
      "t": 24000,
      "d": 2359.375,
      "v": 82
    },
    {
      "midi": 64,
      "hit": false,
      "t": 24000,
      "d": 2359.375,
      "v": 73
    },
    {
      "midi": 57,
      "hit": false,
      "t": 24000,
      "d": 2379.6875,
      "v": 72
    },
    {
      "midi": 59,
      "hit": false,
      "t": 24000,
      "d": 2381.25,
      "v": 66
    },
    {
      "midi": 55,
      "hit": false,
      "t": 24000,
      "d": 2387.5,
      "v": 73
    },
    {
      "midi": 45,
      "hit": false,
      "t": 24000,
      "d": 2214.0625,
      "v": 55
    },
    {
      "midi": 62,
      "hit": false,
      "t": 24300,
      "d": 643.75,
      "v": 111
    },
    {
      "midi": 52,
      "hit": false,
      "t": 24300,
      "d": 1935.9375,
      "v": 66
    },
    {
      "midi": 73,
      "hit": false,
      "t": 24900,
      "d": 1237.5,
      "v": 90
    },
    {
      "midi": 64,
      "hit": false,
      "t": 24900,
      "d": 596.875,
      "v": 103
    },
    {
      "midi": 66,
      "hit": false,
      "t": 25500,
      "d": 496.875,
      "v": 103
    },
    {
      "midi": 59,
      "hit": false,
      "t": 26400,
      "d": 1920.3125,
      "v": 55
    },
    {
      "midi": 62,
      "hit": false,
      "t": 26400,
      "d": 1950,
      "v": 81
    },
    {
      "midi": 66,
      "hit": false,
      "t": 26400,
      "d": 1950,
      "v": 111
    },
    {
      "midi": 62,
      "hit": false,
      "t": 26400,
      "d": 348.4375,
      "v": 103
    },
    {
      "midi": 59,
      "hit": false,
      "t": 26400,
      "d": 398.4375,
      "v": 83
    },
    {
      "midi": 61,
      "hit": false,
      "t": 26700,
      "d": 593.75,
      "v": 80
    },
    {
      "midi": 64,
      "hit": false,
      "t": 26700,
      "d": 625,
      "v": 90
    },
    {
      "midi": 62,
      "hit": false,
      "t": 27300,
      "d": 681.25,
      "v": 90
    },
    {
      "midi": 66,
      "hit": false,
      "t": 27300,
      "d": 681.25,
      "v": 124
    },
    {
      "midi": 52,
      "hit": false,
      "t": 27896.875,
      "d": 156.25,
      "v": 82
    },
    {
      "midi": 53,
      "hit": false,
      "t": 27993.75,
      "d": 78.125,
      "v": 63
    },
    {
      "midi": 54,
      "hit": false,
      "t": 28096.875,
      "d": 106.25,
      "v": 83
    },
    {
      "midi": 71,
      "hit": false,
      "t": 28175,
      "d": 326.5625,
      "v": 103
    },
    {
      "midi": 62,
      "hit": false,
      "t": 28176.5625,
      "d": 373.4375,
      "v": 82
    },
    {
      "midi": 55,
      "hit": false,
      "t": 28200,
      "d": 335.9375,
      "v": 90
    },
    {
      "midi": 57,
      "hit": false,
      "t": 28500,
      "d": 2626.5625,
      "v": 80
    },
    {
      "midi": 64,
      "hit": false,
      "t": 28500,
      "d": 2640.625,
      "v": 103
    },
    {
      "midi": 61,
      "hit": false,
      "t": 28500,
      "d": 2645.3125,
      "v": 80
    },
    {
      "midi": 61,
      "hit": false,
      "t": 28500,
      "d": 1793.75,
      "v": 90
    },
    {
      "midi": 54,
      "hit": false,
      "t": 28500,
      "d": 2409.375,
      "v": 103
    },
    {
      "midi": 69,
      "hit": false,
      "t": 28501.5625,
      "d": 2503.125,
      "v": 83
    },
    {
      "midi": 69,
      "hit": false,
      "t": 29700,
      "d": 1423.4375,
      "v": 82
    },
    {
      "midi": 62,
      "hit": false,
      "t": 30320.3125,
      "d": 775,
      "v": 73
    },
    {
      "midi": 57,
      "hit": false,
      "t": 30320.3125,
      "d": 823.4375,
      "v": 65
    },
    {
      "midi": 55,
      "hit": false,
      "t": 31200,
      "d": 2157.8125,
      "v": 81
    },
    {
      "midi": 59,
      "hit": false,
      "t": 31200,
      "d": 2159.375,
      "v": 73
    },
    {
      "midi": 52,
      "hit": false,
      "t": 31200,
      "d": 2182.8125,
      "v": 66
    },
    {
      "midi": 62,
      "hit": false,
      "t": 31200,
      "d": 2185.9375,
      "v": 66
    },
    {
      "midi": 55,
      "hit": false,
      "t": 31200,
      "d": 2310.9375,
      "v": 65
    },
    {
      "midi": 64,
      "hit": false,
      "t": 31200,
      "d": 2315.625,
      "v": 37
    },
    {
      "midi": 69,
      "hit": false,
      "t": 31200,
      "d": 2315.625,
      "v": 45
    },
    {
      "midi": 62,
      "hit": false,
      "t": 31200,
      "d": 2317.1875,
      "v": 65
    },
    {
      "midi": 52,
      "hit": false,
      "t": 31200,
      "d": 2339.0625,
      "v": 54
    },
    {
      "midi": 71,
      "hit": false,
      "t": 31218.75,
      "d": 290.625,
      "v": 90
    },
    {
      "midi": 73,
      "hit": false,
      "t": 31554.6875,
      "d": 493.75,
      "v": 111
    },
    {
      "midi": 74,
      "hit": false,
      "t": 32128.125,
      "d": 517.1875,
      "v": 103
    },
    {
      "midi": 76,
      "hit": false,
      "t": 32700,
      "d": 467.1875,
      "v": 90
    },
    {
      "midi": 73,
      "hit": false,
      "t": 33271.875,
      "d": 1006.25,
      "v": 90
    },
    {
      "midi": 64,
      "hit": false,
      "t": 33600,
      "d": 2137.5,
      "v": 76
    },
    {
      "midi": 57,
      "hit": false,
      "t": 33600,
      "d": 2164.0625,
      "v": 76
    },
    {
      "midi": 61,
      "hit": false,
      "t": 33600,
      "d": 2164.0625,
      "v": 76
    },
    {
      "midi": 52,
      "hit": false,
      "t": 33600,
      "d": 2185.9375,
      "v": 76
    },
    {
      "midi": 61,
      "hit": false,
      "t": 33600,
      "d": 2275,
      "v": 63
    },
    {
      "midi": 57,
      "hit": false,
      "t": 33600,
      "d": 2300,
      "v": 80
    },
    {
      "midi": 73,
      "hit": false,
      "t": 34485.9375,
      "d": 257.8125,
      "v": 111
    },
    {
      "midi": 71,
      "hit": false,
      "t": 34793.75,
      "d": 284.375,
      "v": 90
    },
    {
      "midi": 69,
      "hit": false,
      "t": 35101.5625,
      "d": 262.5,
      "v": 83
    },
    {
      "midi": 67,
      "hit": false,
      "t": 35390.625,
      "d": 279.6875,
      "v": 90
    },
    {
      "midi": 69,
      "hit": false,
      "t": 35675,
      "d": 285.9375,
      "v": 103
    },
    {
      "midi": 64,
      "hit": false,
      "t": 36000,
      "d": 2317.1875,
      "v": 83
    },
    {
      "midi": 66,
      "hit": false,
      "t": 36000,
      "d": 2317.1875,
      "v": 82
    },
    {
      "midi": 57,
      "hit": false,
      "t": 36000,
      "d": 2321.875,
      "v": 80
    },
    {
      "midi": 61,
      "hit": false,
      "t": 36000,
      "d": 2340.625,
      "v": 83
    },
    {
      "midi": 69,
      "hit": false,
      "t": 36000,
      "d": 350,
      "v": 82
    },
    {
      "midi": 57,
      "hit": false,
      "t": 36000,
      "d": 2064.0625,
      "v": 65
    },
    {
      "midi": 61,
      "hit": false,
      "t": 36000,
      "d": 2064.0625,
      "v": 73
    },
    {
      "midi": 66,
      "hit": false,
      "t": 36000,
      "d": 2215.625,
      "v": 56
    },
    {
      "midi": 71,
      "hit": false,
      "t": 36278.125,
      "d": 545.3125,
      "v": 82
    },
    {
      "midi": 73,
      "hit": false,
      "t": 36900,
      "d": 525,
      "v": 103
    },
    {
      "midi": 74,
      "hit": false,
      "t": 37473.4375,
      "d": 420.3125,
      "v": 90
    },
    {
      "midi": 74,
      "hit": false,
      "t": 38045.3125,
      "d": 125,
      "v": 82
    },
    {
      "midi": 73,
      "hit": false,
      "t": 38170.3125,
      "d": 100,
      "v": 90
    },
    {
      "midi": 72,
      "hit": false,
      "t": 38246.875,
      "d": 154.6875,
      "v": 83
    },
    {
      "midi": 66,
      "hit": false,
      "t": 38350,
      "d": 3696.875,
      "v": 37
    },
    {
      "midi": 62,
      "hit": false,
      "t": 38373.4375,
      "d": 3696.875,
      "v": 63
    },
    {
      "midi": 59,
      "hit": false,
      "t": 38373.4375,
      "d": 3698.4375,
      "v": 39
    },
    {
      "midi": 66,
      "hit": false,
      "t": 38400,
      "d": 3821.875,
      "v": 66
    },
    {
      "midi": 62,
      "hit": false,
      "t": 38400,
      "d": 3846.875,
      "v": 81
    },
    {
      "midi": 59,
      "hit": false,
      "t": 38400,
      "d": 3871.875,
      "v": 66
    },
    {
      "midi": 71,
      "hit": false,
      "t": 38400,
      "d": 3618.75,
      "v": 81
    },
    {
      "midi": 69,
      "hit": false,
      "t": 39600,
      "d": 2953.125,
      "v": 65
    },
    {
      "midi": 76,
      "hit": false,
      "t": 40800,
      "d": 1789.0625,
      "v": 56
    },
    {
      "midi": 52,
      "hit": false,
      "t": 43200,
      "d": 1054.6875,
      "v": 80
    },
    {
      "midi": 55,
      "hit": false,
      "t": 43200,
      "d": 1321.875,
      "v": 80
    },
    {
      "midi": 59,
      "hit": false,
      "t": 43200,
      "d": 1471.875,
      "v": 82
    },
    {
      "midi": 62,
      "hit": false,
      "t": 43200,
      "d": 1598.4375,
      "v": 81
    },
    {
      "midi": 52,
      "hit": false,
      "t": 44400,
      "d": 426.5625,
      "v": 66
    },
    {
      "midi": 55,
      "hit": false,
      "t": 44700,
      "d": 353.125,
      "v": 90
    },
    {
      "midi": 52,
      "hit": false,
      "t": 45000,
      "d": 221.875,
      "v": 66
    },
    {
      "midi": 57,
      "hit": false,
      "t": 45600,
      "d": 1004.6875,
      "v": 63
    },
    {
      "midi": 45,
      "hit": false,
      "t": 45600,
      "d": 1453.125,
      "v": 35
    },
    {
      "midi": 61,
      "hit": false,
      "t": 45600,
      "d": 1501.5625,
      "v": 90
    },
    {
      "midi": 52,
      "hit": false,
      "t": 46200,
      "d": 926.5625,
      "v": 52
    },
    {
      "midi": 64,
      "hit": false,
      "t": 46500,
      "d": 726.5625,
      "v": 82
    },
    {
      "midi": 57,
      "hit": false,
      "t": 47100,
      "d": 248.4375,
      "v": 90
    },
    {
      "midi": 54,
      "hit": false,
      "t": 48000,
      "d": 1073.4375,
      "v": 65
    },
    {
      "midi": 59,
      "hit": false,
      "t": 48000,
      "d": 1331.25,
      "v": 81
    },
    {
      "midi": 62,
      "hit": false,
      "t": 48000,
      "d": 1512.5,
      "v": 83
    },
    {
      "midi": 47,
      "hit": false,
      "t": 48000,
      "d": 1803.125,
      "v": 52
    },
    {
      "midi": 50,
      "hit": false,
      "t": 48600,
      "d": 778.125,
      "v": 42
    },
    {
      "midi": 66,
      "hit": false,
      "t": 48900,
      "d": 628.125,
      "v": 103
    },
    {
      "midi": 59,
      "hit": false,
      "t": 49350,
      "d": 300,
      "v": 37
    },
    {
      "midi": 54,
      "hit": false,
      "t": 49800,
      "d": 248.4375,
      "v": 73
    },
    {
      "midi": 54,
      "hit": false,
      "t": 50100,
      "d": 126.5625,
      "v": 39
    },
    {
      "midi": 54,
      "hit": false,
      "t": 50400,
      "d": 1051.5625,
      "v": 80
    },
    {
      "midi": 61,
      "hit": false,
      "t": 50400,
      "d": 1379.6875,
      "v": 103
    },
    {
      "midi": 57,
      "hit": false,
      "t": 50400,
      "d": 1426.5625,
      "v": 80
    },
    {
      "midi": 42,
      "hit": false,
      "t": 51000,
      "d": 1214.0625,
      "v": 73
    },
    {
      "midi": 69,
      "hit": false,
      "t": 51300,
      "d": 503.125,
      "v": 82
    },
    {
      "midi": 54,
      "hit": false,
      "t": 51600,
      "d": 253.125,
      "v": 52
    },
    {
      "midi": 64,
      "hit": false,
      "t": 51900,
      "d": 254.6875,
      "v": 83
    },
    {
      "midi": 54,
      "hit": false,
      "t": 52200,
      "d": 153.125,
      "v": 52
    },
    {
      "midi": 59,
      "hit": false,
      "t": 52800,
      "d": 1370.3125,
      "v": 90
    },
    {
      "midi": 62,
      "hit": false,
      "t": 52800,
      "d": 1568.75,
      "v": 82
    },
    {
      "midi": 55,
      "hit": false,
      "t": 52800,
      "d": 1695.3125,
      "v": 81
    },
    {
      "midi": 52,
      "hit": false,
      "t": 53400,
      "d": 1325,
      "v": 73
    },
    {
      "midi": 59,
      "hit": false,
      "t": 54300,
      "d": 326.5625,
      "v": 83
    },
    {
      "midi": 55,
      "hit": false,
      "t": 54600,
      "d": 201.5625,
      "v": 73
    },
    {
      "midi": 61,
      "hit": false,
      "t": 55200,
      "d": 946.875,
      "v": 82
    },
    {
      "midi": 57,
      "hit": false,
      "t": 55200,
      "d": 1045.3125,
      "v": 80
    },
    {
      "midi": 45,
      "hit": false,
      "t": 55800,
      "d": 1148.4375,
      "v": 66
    },
    {
      "midi": 64,
      "hit": false,
      "t": 56100,
      "d": 1196.875,
      "v": 82
    },
    {
      "midi": 52,
      "hit": false,
      "t": 56850,
      "d": 226.5625,
      "v": 73
    },
    {
      "midi": 57,
      "hit": false,
      "t": 57300,
      "d": 1900,
      "v": 83
    },
    {
      "midi": 54,
      "hit": false,
      "t": 57600,
      "d": 1020.3125,
      "v": 72
    },
    {
      "midi": 61,
      "hit": false,
      "t": 57600,
      "d": 1346.875,
      "v": 90
    },
    {
      "midi": 42,
      "hit": false,
      "t": 58200,
      "d": 854.6875,
      "v": 66
    },
    {
      "midi": 69,
      "hit": false,
      "t": 58500,
      "d": 726.5625,
      "v": 80
    },
    {
      "midi": 54,
      "hit": false,
      "t": 58950,
      "d": 409.375,
      "v": 40
    },
    {
      "midi": 61,
      "hit": false,
      "t": 59100,
      "d": 151.5625,
      "v": 73
    },
    {
      "midi": 59,
      "hit": false,
      "t": 60000,
      "d": 201.5625,
      "v": 19
    },
    {
      "midi": 66,
      "hit": false,
      "t": 60000,
      "d": 295.3125,
      "v": 73
    },
    {
      "midi": 54,
      "hit": false,
      "t": 60000,
      "d": 526.5625,
      "v": 45
    },
    {
      "midi": 62,
      "hit": false,
      "t": 60000,
      "d": 550,
      "v": 81
    },
    {
      "midi": 47,
      "hit": false,
      "t": 60000,
      "d": 1898.4375,
      "v": 39
    },
    {
      "midi": 50,
      "hit": false,
      "t": 60300,
      "d": 404.6875,
      "v": 39
    },
    {
      "midi": 59,
      "hit": false,
      "t": 60600,
      "d": 73.4375,
      "v": 81
    },
    {
      "midi": 54,
      "hit": false,
      "t": 60900,
      "d": 395.3125,
      "v": 52
    },
    {
      "midi": 76,
      "hit": false,
      "t": 61200,
      "d": 176.5625,
      "v": 81
    },
    {
      "midi": 54,
      "hit": false,
      "t": 61500,
      "d": 373.4375,
      "v": 55
    },
    {
      "midi": 73,
      "hit": false,
      "t": 61800,
      "d": 73.4375,
      "v": 90
    },
    {
      "midi": 62,
      "hit": false,
      "t": 62400,
      "d": 1157.8125,
      "v": 81
    },
    {
      "midi": 55,
      "hit": false,
      "t": 62400,
      "d": 1381.25,
      "v": 81
    },
    {
      "midi": 59,
      "hit": false,
      "t": 62400,
      "d": 1381.25,
      "v": 83
    },
    {
      "midi": 52,
      "hit": false,
      "t": 62400,
      "d": 1554.6875,
      "v": 73
    },
    {
      "midi": 64,
      "hit": false,
      "t": 63900,
      "d": 887.5,
      "v": 83
    },
    {
      "midi": 57,
      "hit": false,
      "t": 64800,
      "d": 1043.75,
      "v": 94
    },
    {
      "midi": 61,
      "hit": false,
      "t": 64800,
      "d": 1168.75,
      "v": 94
    },
    {
      "midi": 45,
      "hit": false,
      "t": 64800,
      "d": 1515.625,
      "v": 94
    },
    {
      "midi": 52,
      "hit": false,
      "t": 65400,
      "d": 846.875,
      "v": 54
    },
    {
      "midi": 69,
      "hit": false,
      "t": 65700,
      "d": 731.25,
      "v": 83
    },
    {
      "midi": 54,
      "hit": false,
      "t": 67200,
      "d": 429.6875,
      "v": 45
    },
    {
      "midi": 59,
      "hit": false,
      "t": 67200,
      "d": 978.125,
      "v": 73
    },
    {
      "midi": 62,
      "hit": false,
      "t": 67200,
      "d": 1050,
      "v": 82
    },
    {
      "midi": 47,
      "hit": false,
      "t": 67200,
      "d": 1232.8125,
      "v": 25
    },
    {
      "midi": 50,
      "hit": false,
      "t": 67650,
      "d": 225,
      "v": 40
    },
    {
      "midi": 54,
      "hit": false,
      "t": 67800,
      "d": 350,
      "v": 63
    },
    {
      "midi": 71,
      "hit": false,
      "t": 68100,
      "d": 325,
      "v": 81
    },
    {
      "midi": 69,
      "hit": false,
      "t": 69300,
      "d": 373.4375,
      "v": 54
    },
    {
      "midi": 73,
      "hit": false,
      "t": 69300,
      "d": 501.5625,
      "v": 82
    },
    {
      "midi": 76,
      "hit": false,
      "t": 69300,
      "d": 576.5625,
      "v": 81
    },
    {
      "midi": 54,
      "hit": false,
      "t": 69300,
      "d": 578.125,
      "v": 66
    },
    {
      "midi": 42,
      "hit": false,
      "t": 69300,
      "d": 1996.875,
      "v": 37
    },
    {
      "midi": 69,
      "hit": false,
      "t": 69900,
      "d": 126.5625,
      "v": 65
    },
    {
      "midi": 66,
      "hit": false,
      "t": 70200,
      "d": 303.125,
      "v": 80
    },
    {
      "midi": 64,
      "hit": false,
      "t": 70500,
      "d": 848.4375,
      "v": 83
    },
    {
      "midi": 54,
      "hit": false,
      "t": 71100,
      "d": 275,
      "v": 50
    },
    {
      "midi": 61,
      "hit": false,
      "t": 71400,
      "d": 168.75,
      "v": 90
    },
    {
      "midi": 59,
      "hit": false,
      "t": 72000,
      "d": 1126.5625,
      "v": 81
    },
    {
      "midi": 55,
      "hit": false,
      "t": 72000,
      "d": 1479.6875,
      "v": 80
    },
    {
      "midi": 52,
      "hit": false,
      "t": 72600,
      "d": 1256.25,
      "v": 81
    },
    {
      "midi": 62,
      "hit": false,
      "t": 72900,
      "d": 751.5625,
      "v": 90
    },
    {
      "midi": 59,
      "hit": false,
      "t": 73500,
      "d": 250,
      "v": 81
    },
    {
      "midi": 55,
      "hit": false,
      "t": 73800,
      "d": 229.6875,
      "v": 72
    },
    {
      "midi": 61,
      "hit": false,
      "t": 74400,
      "d": 1381.25,
      "v": 81
    },
    {
      "midi": 57,
      "hit": false,
      "t": 74400,
      "d": 1501.5625,
      "v": 66
    },
    {
      "midi": 45,
      "hit": false,
      "t": 75000,
      "d": 1303.125,
      "v": 50
    },
    {
      "midi": 52,
      "hit": false,
      "t": 75600,
      "d": 801.5625,
      "v": 72
    },
    {
      "midi": 64,
      "hit": false,
      "t": 75900,
      "d": 850,
      "v": 81
    },
    {
      "midi": 57,
      "hit": false,
      "t": 76200,
      "d": 123.4375,
      "v": 65
    },
    {
      "midi": 54,
      "hit": false,
      "t": 76800,
      "d": 1045.3125,
      "v": 56
    },
    {
      "midi": 57,
      "hit": false,
      "t": 76800,
      "d": 1143.75,
      "v": 66
    },
    {
      "midi": 61,
      "hit": false,
      "t": 76800,
      "d": 1448.4375,
      "v": 90
    },
    {
      "midi": 42,
      "hit": false,
      "t": 77400,
      "d": 728.125,
      "v": 63
    },
    {
      "midi": 69,
      "hit": false,
      "t": 77700,
      "d": 750,
      "v": 80
    },
    {
      "midi": 54,
      "hit": false,
      "t": 78000,
      "d": 300,
      "v": 35
    },
    {
      "midi": 57,
      "hit": false,
      "t": 78300,
      "d": 153.125,
      "v": 80
    },
    {
      "midi": 57,
      "hit": false,
      "t": 79050,
      "d": 98.4375,
      "v": 58
    },
    {
      "midi": 54,
      "hit": false,
      "t": 79200,
      "d": 351.5625,
      "v": 56
    },
    {
      "midi": 59,
      "hit": false,
      "t": 79200,
      "d": 406.25,
      "v": 56
    },
    {
      "midi": 66,
      "hit": false,
      "t": 79200,
      "d": 879.6875,
      "v": 73
    },
    {
      "midi": 62,
      "hit": false,
      "t": 79200,
      "d": 1304.6875,
      "v": 80
    },
    {
      "midi": 47,
      "hit": false,
      "t": 79200,
      "d": 1356.25,
      "v": 45
    },
    {
      "midi": 50,
      "hit": false,
      "t": 79500,
      "d": 478.125,
      "v": 39
    },
    {
      "midi": 59,
      "hit": false,
      "t": 79800,
      "d": 373.4375,
      "v": 55
    },
    {
      "midi": 54,
      "hit": false,
      "t": 80100,
      "d": 346.875,
      "v": 73
    },
    {
      "midi": 59,
      "hit": false,
      "t": 80400,
      "d": 178.125,
      "v": 54
    },
    {
      "midi": 45,
      "hit": false,
      "t": 81300,
      "d": 290.625,
      "v": 108
    },
    {
      "midi": 57,
      "hit": false,
      "t": 81300,
      "d": 290.625,
      "v": 108
    },
    {
      "midi": 61,
      "hit": false,
      "t": 81300,
      "d": 290.625,
      "v": 108
    },
    {
      "midi": 64,
      "hit": false,
      "t": 81300,
      "d": 290.625,
      "v": 108
    },
    {
      "midi": 54,
      "hit": false,
      "t": 81600,
      "d": 776.5625,
      "v": 72
    },
    {
      "midi": 59,
      "hit": false,
      "t": 81600,
      "d": 1146.875,
      "v": 80
    },
    {
      "midi": 66,
      "hit": false,
      "t": 81600,
      "d": 1373.4375,
      "v": 83
    },
    {
      "midi": 62,
      "hit": false,
      "t": 81600,
      "d": 1906.25,
      "v": 82
    },
    {
      "midi": 47,
      "hit": false,
      "t": 81600,
      "d": 1929.6875,
      "v": 55
    },
    {
      "midi": 54,
      "hit": false,
      "t": 82500,
      "d": 628.125,
      "v": 52
    },
    {
      "midi": 59,
      "hit": false,
      "t": 82800,
      "d": 473.4375,
      "v": 45
    },
    {
      "midi": 66,
      "hit": false,
      "t": 83100,
      "d": 431.25,
      "v": 90
    },
    {
      "midi": 54,
      "hit": false,
      "t": 83400,
      "d": 154.6875,
      "v": 63
    },
    {
      "midi": 57,
      "hit": false,
      "t": 84000,
      "d": 831.25,
      "v": 73
    },
    {
      "midi": 61,
      "hit": false,
      "t": 84000,
      "d": 857.8125,
      "v": 83
    },
    {
      "midi": 54,
      "hit": false,
      "t": 84000,
      "d": 937.5,
      "v": 63
    },
    {
      "midi": 42,
      "hit": false,
      "t": 84600,
      "d": 1020.3125,
      "v": 63
    },
    {
      "midi": 64,
      "hit": false,
      "t": 84900,
      "d": 595.3125,
      "v": 81
    },
    {
      "midi": 54,
      "hit": false,
      "t": 85200,
      "d": 348.4375,
      "v": 72
    },
    {
      "midi": 57,
      "hit": false,
      "t": 85500,
      "d": 321.875,
      "v": 90
    },
    {
      "midi": 54,
      "hit": false,
      "t": 85800,
      "d": 198.4375,
      "v": 72
    },
    {
      "midi": 57,
      "hit": false,
      "t": 86100,
      "d": 225,
      "v": 90
    },
    {
      "midi": 61,
      "hit": false,
      "t": 86100,
      "d": 278.125,
      "v": 111
    },
    {
      "midi": 54,
      "hit": false,
      "t": 86400,
      "d": 942.1875,
      "v": 66
    },
    {
      "midi": 59,
      "hit": false,
      "t": 86400,
      "d": 992.1875,
      "v": 65
    },
    {
      "midi": 62,
      "hit": false,
      "t": 86400,
      "d": 1681.25,
      "v": 103
    },
    {
      "midi": 47,
      "hit": false,
      "t": 86400,
      "d": 1757.8125,
      "v": 50
    },
    {
      "midi": 50,
      "hit": false,
      "t": 87000,
      "d": 520.3125,
      "v": 55
    },
    {
      "midi": 66,
      "hit": false,
      "t": 87300,
      "d": 693.75,
      "v": 111
    },
    {
      "midi": 54,
      "hit": false,
      "t": 87600,
      "d": 346.875,
      "v": 45
    },
    {
      "midi": 59,
      "hit": false,
      "t": 87900,
      "d": 271.875,
      "v": 83
    },
    {
      "midi": 54,
      "hit": false,
      "t": 88200,
      "d": 146.875,
      "v": 50
    },
    {
      "midi": 54,
      "hit": false,
      "t": 88800,
      "d": 443.75,
      "v": 55
    },
    {
      "midi": 57,
      "hit": false,
      "t": 88800,
      "d": 1335.9375,
      "v": 73
    },
    {
      "midi": 42,
      "hit": false,
      "t": 88800,
      "d": 1803.125,
      "v": 52
    },
    {
      "midi": 61,
      "hit": false,
      "t": 88800,
      "d": 2003.125,
      "v": 81
    },
    {
      "midi": 69,
      "hit": false,
      "t": 88800,
      "d": 2026.5625,
      "v": 73
    },
    {
      "midi": 54,
      "hit": false,
      "t": 89400,
      "d": 987.5,
      "v": 56
    },
    {
      "midi": 64,
      "hit": false,
      "t": 89700,
      "d": 1112.5,
      "v": 72
    },
    {
      "midi": 57,
      "hit": false,
      "t": 90300,
      "d": 546.875,
      "v": 65
    },
    {
      "midi": 54,
      "hit": false,
      "t": 90600,
      "d": 173.4375,
      "v": 55
    },
    {
      "midi": 64,
      "hit": false,
      "t": 91200,
      "d": 98.4375,
      "v": 103
    },
    {
      "midi": 62,
      "hit": false,
      "t": 91200,
      "d": 118.75,
      "v": 103
    },
    {
      "midi": 59,
      "hit": false,
      "t": 91200,
      "d": 126.5625,
      "v": 90
    },
    {
      "midi": 67,
      "hit": false,
      "t": 91200,
      "d": 126.5625,
      "v": 99
    },
    {
      "midi": 52,
      "hit": false,
      "t": 91200,
      "d": 150,
      "v": 90
    },
    {
      "midi": 52,
      "hit": false,
      "t": 92100,
      "d": 1309.375,
      "v": 90
    },
    {
      "midi": 59,
      "hit": false,
      "t": 92100,
      "d": 1378.125,
      "v": 83
    },
    {
      "midi": 62,
      "hit": false,
      "t": 92100,
      "d": 1379.6875,
      "v": 90
    },
    {
      "midi": 64,
      "hit": false,
      "t": 92100,
      "d": 1406.25,
      "v": 90
    },
    {
      "midi": 67,
      "hit": false,
      "t": 92100,
      "d": 1407.8125,
      "v": 95
    },
    {
      "midi": 66,
      "hit": false,
      "t": 93600,
      "d": 1070.3125,
      "v": 82
    },
    {
      "midi": 67,
      "hit": false,
      "t": 93600,
      "d": 1348.4375,
      "v": 60
    },
    {
      "midi": 64,
      "hit": false,
      "t": 93600,
      "d": 1695.3125,
      "v": 73
    },
    {
      "midi": 57,
      "hit": false,
      "t": 93600,
      "d": 2120.3125,
      "v": 80
    },
    {
      "midi": 45,
      "hit": false,
      "t": 93600,
      "d": 2146.875,
      "v": 65
    },
    {
      "midi": 61,
      "hit": false,
      "t": 93600,
      "d": 2287.5,
      "v": 63
    },
    {
      "midi": 66,
      "hit": false,
      "t": 94800,
      "d": 1023.4375,
      "v": 63
    },
    {
      "midi": 64,
      "hit": false,
      "t": 95400,
      "d": 446.875,
      "v": 56
    },
    {
      "midi": 54,
      "hit": false,
      "t": 96000,
      "d": 123.4375,
      "v": 83
    },
    {
      "midi": 57,
      "hit": false,
      "t": 96000,
      "d": 173.4375,
      "v": 83
    },
    {
      "midi": 61,
      "hit": false,
      "t": 96000,
      "d": 195.3125,
      "v": 111
    },
    {
      "midi": 64,
      "hit": false,
      "t": 96000,
      "d": 201.5625,
      "v": 90
    },
    {
      "midi": 69,
      "hit": false,
      "t": 96000,
      "d": 223.4375,
      "v": 81
    },
    {
      "midi": 54,
      "hit": false,
      "t": 96900,
      "d": 1359.375,
      "v": 83
    },
    {
      "midi": 61,
      "hit": false,
      "t": 96900,
      "d": 1379.6875,
      "v": 83
    },
    {
      "midi": 64,
      "hit": false,
      "t": 96900,
      "d": 1429.6875,
      "v": 83
    },
    {
      "midi": 57,
      "hit": false,
      "t": 96900,
      "d": 1453.125,
      "v": 81
    },
    {
      "midi": 66,
      "hit": false,
      "t": 98100,
      "d": 173.4375,
      "v": 90
    },
    {
      "midi": 69,
      "hit": false,
      "t": 98250,
      "d": 31.25,
      "v": 80
    },
    {
      "midi": 54,
      "hit": false,
      "t": 98400,
      "d": 1145.3125,
      "v": 81
    },
    {
      "midi": 66,
      "hit": false,
      "t": 98400,
      "d": 1170.3125,
      "v": 81
    },
    {
      "midi": 47,
      "hit": false,
      "t": 98400,
      "d": 1193.75,
      "v": 66
    },
    {
      "midi": 62,
      "hit": false,
      "t": 98400,
      "d": 1195.3125,
      "v": 82
    },
    {
      "midi": 59,
      "hit": false,
      "t": 98400,
      "d": 1245.3125,
      "v": 72
    },
    {
      "midi": 57,
      "hit": false,
      "t": 100500,
      "d": 296.875,
      "v": 82
    },
    {
      "midi": 61,
      "hit": false,
      "t": 100500,
      "d": 298.4375,
      "v": 103
    },
    {
      "midi": 64,
      "hit": false,
      "t": 100500,
      "d": 323.4375,
      "v": 82
    },
    {
      "midi": 54,
      "hit": false,
      "t": 100800,
      "d": 889.0625,
      "v": 72
    },
    {
      "midi": 59,
      "hit": false,
      "t": 100800,
      "d": 1310.9375,
      "v": 80
    },
    {
      "midi": 66,
      "hit": false,
      "t": 100800,
      "d": 1335.9375,
      "v": 82
    },
    {
      "midi": 62,
      "hit": false,
      "t": 100800,
      "d": 1432.8125,
      "v": 83
    },
    {
      "midi": 47,
      "hit": false,
      "t": 100800,
      "d": 1900,
      "v": 54
    },
    {
      "midi": 54,
      "hit": false,
      "t": 102000,
      "d": 395.3125,
      "v": 50
    },
    {
      "midi": 66,
      "hit": false,
      "t": 102300,
      "d": 421.875,
      "v": 111
    },
    {
      "midi": 54,
      "hit": false,
      "t": 102600,
      "d": 146.875,
      "v": 47
    },
    {
      "midi": 57,
      "hit": false,
      "t": 103200,
      "d": 1403.125,
      "v": 80
    },
    {
      "midi": 54,
      "hit": false,
      "t": 103200,
      "d": 1526.5625,
      "v": 56
    },
    {
      "midi": 61,
      "hit": false,
      "t": 103200,
      "d": 1826.5625,
      "v": 83
    },
    {
      "midi": 64,
      "hit": false,
      "t": 103200,
      "d": 2151.5625,
      "v": 81
    },
    {
      "midi": 42,
      "hit": false,
      "t": 103800,
      "d": 964.0625,
      "v": 50
    },
    {
      "midi": 69,
      "hit": false,
      "t": 104100,
      "d": 1037.5,
      "v": 66
    },
    {
      "midi": 57,
      "hit": false,
      "t": 104700,
      "d": 370.3125,
      "v": 56
    },
    {
      "midi": 54,
      "hit": false,
      "t": 105000,
      "d": 296.875,
      "v": 72
    },
    {
      "midi": 61,
      "hit": false,
      "t": 105300,
      "d": 325,
      "v": 103
    },
    {
      "midi": 54,
      "hit": false,
      "t": 105600,
      "d": 989.0625,
      "v": 55
    },
    {
      "midi": 59,
      "hit": false,
      "t": 105600,
      "d": 990.625,
      "v": 14
    },
    {
      "midi": 62,
      "hit": false,
      "t": 105600,
      "d": 1731.25,
      "v": 83
    },
    {
      "midi": 47,
      "hit": false,
      "t": 105600,
      "d": 1806.25,
      "v": 22
    },
    {
      "midi": 50,
      "hit": false,
      "t": 106200,
      "d": 1062.5,
      "v": 52
    },
    {
      "midi": 66,
      "hit": false,
      "t": 106500,
      "d": 840.625,
      "v": 81
    },
    {
      "midi": 54,
      "hit": false,
      "t": 106950,
      "d": 246.875,
      "v": 40
    },
    {
      "midi": 59,
      "hit": false,
      "t": 107100,
      "d": 321.875,
      "v": 83
    },
    {
      "midi": 54,
      "hit": false,
      "t": 107400,
      "d": 223.4375,
      "v": 66
    },
    {
      "midi": 42,
      "hit": false,
      "t": 108000,
      "d": 220.3125,
      "v": 45
    },
    {
      "midi": 61,
      "hit": false,
      "t": 108000,
      "d": 2371.875,
      "v": 103
    },
    {
      "midi": 54,
      "hit": false,
      "t": 108000,
      "d": 2373.4375,
      "v": 80
    },
    {
      "midi": 57,
      "hit": false,
      "t": 108000,
      "d": 2378.125,
      "v": 83
    },
    {
      "midi": 42,
      "hit": false,
      "t": 108600,
      "d": 1756.25,
      "v": 52
    },
    {
      "midi": 64,
      "hit": false,
      "t": 108900,
      "d": 1462.5,
      "v": 82
    },
    {
      "midi": 59,
      "hit": false,
      "t": 110326.5625,
      "d": 2398.4375,
      "v": 83
    },
    {
      "midi": 62,
      "hit": false,
      "t": 110400,
      "d": 2325,
      "v": 63
    },
    {
      "midi": 67,
      "hit": false,
      "t": 110400,
      "d": 1240.625,
      "v": 55
    },
    {
      "midi": 52,
      "hit": false,
      "t": 110400,
      "d": 1271.875,
      "v": 19
    },
    {
      "midi": 52,
      "hit": false,
      "t": 110417.1875,
      "d": 2176.5625,
      "v": 82
    },
    {
      "midi": 62,
      "hit": false,
      "t": 110421.875,
      "d": 1243.75,
      "v": 72
    },
    {
      "midi": 64,
      "hit": false,
      "t": 110421.875,
      "d": 1290.625,
      "v": 63
    },
    {
      "midi": 59,
      "hit": false,
      "t": 110423.4375,
      "d": 1293.75,
      "v": 63
    },
    {
      "midi": 55,
      "hit": false,
      "t": 110425,
      "d": 1289.0625,
      "v": 73
    },
    {
      "midi": 67,
      "hit": false,
      "t": 110451.5625,
      "d": 2273.4375,
      "v": 65
    },
    {
      "midi": 64,
      "hit": false,
      "t": 110473.4375,
      "d": 2251.5625,
      "v": 65
    },
    {
      "midi": 71,
      "hit": false,
      "t": 111918.75,
      "d": 806.25,
      "v": 80
    },
    {
      "midi": 45,
      "hit": false,
      "t": 112621.875,
      "d": 2551.5625,
      "v": 50
    },
    {
      "midi": 52,
      "hit": false,
      "t": 112696.875,
      "d": 2496.875,
      "v": 56
    },
    {
      "midi": 45,
      "hit": false,
      "t": 112714.0625,
      "d": 773.4375,
      "v": 19
    },
    {
      "midi": 57,
      "hit": false,
      "t": 112735.9375,
      "d": 875,
      "v": 20
    },
    {
      "midi": 57,
      "hit": false,
      "t": 112748.4375,
      "d": 2423.4375,
      "v": 35
    },
    {
      "midi": 64,
      "hit": false,
      "t": 112773.4375,
      "d": 2396.875,
      "v": 55
    },
    {
      "midi": 64,
      "hit": false,
      "t": 112790.625,
      "d": 721.875,
      "v": 63
    },
    {
      "midi": 61,
      "hit": false,
      "t": 112795.3125,
      "d": 2348.4375,
      "v": 66
    },
    {
      "midi": 69,
      "hit": false,
      "t": 112798.4375,
      "d": 2371.875,
      "v": 55
    },
    {
      "midi": 61,
      "hit": false,
      "t": 112812.5,
      "d": 625,
      "v": 73
    },
    {
      "midi": 59,
      "hit": false,
      "t": 112814.0625,
      "d": 671.875,
      "v": 63
    },
    {
      "midi": 69,
      "hit": false,
      "t": 114304.6875,
      "d": 473.4375,
      "v": 83
    },
    {
      "midi": 61,
      "hit": false,
      "t": 114306.25,
      "d": 446.875,
      "v": 81
    },
    {
      "midi": 59,
      "hit": false,
      "t": 114751.5625,
      "d": 151.5625,
      "v": 56
    },
    {
      "midi": 67,
      "hit": false,
      "t": 114776.5625,
      "d": 128.125,
      "v": 90
    },
    {
      "midi": 42,
      "hit": false,
      "t": 115125,
      "d": 1014.0625,
      "v": 63
    },
    {
      "midi": 54,
      "hit": false,
      "t": 115175,
      "d": 1210.9375,
      "v": 56
    },
    {
      "midi": 54,
      "hit": false,
      "t": 115195.3125,
      "d": 2198.4375,
      "v": 55
    },
    {
      "midi": 61,
      "hit": false,
      "t": 115195.3125,
      "d": 2198.4375,
      "v": 65
    },
    {
      "midi": 64,
      "hit": false,
      "t": 115246.875,
      "d": 2146.875,
      "v": 56
    },
    {
      "midi": 64,
      "hit": false,
      "t": 115246.875,
      "d": 1017.1875,
      "v": 72
    },
    {
      "midi": 57,
      "hit": false,
      "t": 115248.4375,
      "d": 1014.0625,
      "v": 37
    },
    {
      "midi": 66,
      "hit": false,
      "t": 115268.75,
      "d": 2125,
      "v": 82
    },
    {
      "midi": 61,
      "hit": false,
      "t": 115273.4375,
      "d": 964.0625,
      "v": 45
    },
    {
      "midi": 66,
      "hit": false,
      "t": 115273.4375,
      "d": 1039.0625,
      "v": 63
    },
    {
      "midi": 69,
      "hit": false,
      "t": 116140.625,
      "d": 1253.125,
      "v": 72
    },
    {
      "midi": 47,
      "hit": false,
      "t": 117256.25,
      "d": 4771.875,
      "v": 81
    },
    {
      "midi": 54,
      "hit": false,
      "t": 117404.6875,
      "d": 4623.4375,
      "v": 83
    },
    {
      "midi": 47,
      "hit": false,
      "t": 117451.5625,
      "d": 4826.5625,
      "v": 54
    },
    {
      "midi": 62,
      "hit": false,
      "t": 117453.125,
      "d": 4571.875,
      "v": 55
    },
    {
      "midi": 59,
      "hit": false,
      "t": 117479.6875,
      "d": 4546.875,
      "v": 35
    },
    {
      "midi": 54,
      "hit": false,
      "t": 117501.5625,
      "d": 4728.125,
      "v": 63
    },
    {
      "midi": 59,
      "hit": false,
      "t": 117523.4375,
      "d": 4706.25,
      "v": 25
    },
    {
      "midi": 66,
      "hit": false,
      "t": 117529.6875,
      "d": 4471.875,
      "v": 81
    },
    {
      "midi": 66,
      "hit": false,
      "t": 117600,
      "d": 4653.125,
      "v": 45
    },
    {
      "midi": 62,
      "hit": false,
      "t": 117626.5625,
      "d": 4601.5625,
      "v": 11
    },
    {
      "midi": 71,
      "hit": false,
      "t": 117626.5625,
      "d": 4648.4375,
      "v": 72
    },
    {
      "midi": 71,
      "hit": false,
      "t": 117646.875,
      "d": 4404.6875,
      "v": 80
    },
    {
      "midi": 52,
      "hit": false,
      "t": 122400,
      "d": 1054.6875,
      "v": 60
    },
    {
      "midi": 55,
      "hit": false,
      "t": 122400,
      "d": 1321.875,
      "v": 60
    },
    {
      "midi": 59,
      "hit": false,
      "t": 122400,
      "d": 1471.875,
      "v": 62
    },
    {
      "midi": 62,
      "hit": false,
      "t": 122400,
      "d": 1598.4375,
      "v": 61
    },
    {
      "midi": 52,
      "hit": false,
      "t": 123600,
      "d": 426.5625,
      "v": 46
    },
    {
      "midi": 55,
      "hit": false,
      "t": 123900,
      "d": 353.125,
      "v": 70
    },
    {
      "midi": 52,
      "hit": false,
      "t": 124200,
      "d": 221.875,
      "v": 46
    },
    {
      "midi": 57,
      "hit": false,
      "t": 124800,
      "d": 1004.6875,
      "v": 43
    },
    {
      "midi": 45,
      "hit": false,
      "t": 124800,
      "d": 1453.125,
      "v": 15
    },
    {
      "midi": 61,
      "hit": false,
      "t": 124800,
      "d": 1501.5625,
      "v": 70
    },
    {
      "midi": 52,
      "hit": false,
      "t": 125400,
      "d": 926.5625,
      "v": 32
    },
    {
      "midi": 64,
      "hit": false,
      "t": 125700,
      "d": 726.5625,
      "v": 62
    },
    {
      "midi": 57,
      "hit": false,
      "t": 126300,
      "d": 248.4375,
      "v": 70
    },
    {
      "midi": 54,
      "hit": false,
      "t": 127200,
      "d": 1073.4375,
      "v": 45
    },
    {
      "midi": 59,
      "hit": false,
      "t": 127200,
      "d": 1331.25,
      "v": 61
    },
    {
      "midi": 62,
      "hit": false,
      "t": 127200,
      "d": 1512.5,
      "v": 63
    },
    {
      "midi": 47,
      "hit": false,
      "t": 127200,
      "d": 1803.125,
      "v": 32
    },
    {
      "midi": 50,
      "hit": false,
      "t": 127800,
      "d": 778.125,
      "v": 22
    },
    {
      "midi": 66,
      "hit": false,
      "t": 128100,
      "d": 628.125,
      "v": 83
    },
    {
      "midi": 59,
      "hit": false,
      "t": 128550,
      "d": 300,
      "v": 17
    },
    {
      "midi": 54,
      "hit": false,
      "t": 129000,
      "d": 248.4375,
      "v": 53
    },
    {
      "midi": 54,
      "hit": false,
      "t": 129300,
      "d": 126.5625,
      "v": 19
    },
    {
      "midi": 54,
      "hit": false,
      "t": 129600,
      "d": 1051.5625,
      "v": 60
    },
    {
      "midi": 61,
      "hit": false,
      "t": 129600,
      "d": 1379.6875,
      "v": 83
    },
    {
      "midi": 57,
      "hit": false,
      "t": 129600,
      "d": 1426.5625,
      "v": 60
    },
    {
      "midi": 42,
      "hit": false,
      "t": 130200,
      "d": 1214.0625,
      "v": 53
    },
    {
      "midi": 69,
      "hit": false,
      "t": 130500,
      "d": 503.125,
      "v": 62
    },
    {
      "midi": 54,
      "hit": false,
      "t": 130800,
      "d": 253.125,
      "v": 32
    },
    {
      "midi": 64,
      "hit": false,
      "t": 131100,
      "d": 254.6875,
      "v": 63
    },
    {
      "midi": 54,
      "hit": false,
      "t": 131400,
      "d": 153.125,
      "v": 32
    },
    {
      "midi": 59,
      "hit": false,
      "t": 132000,
      "d": 1370.3125,
      "v": 70
    },
    {
      "midi": 62,
      "hit": false,
      "t": 132000,
      "d": 1568.75,
      "v": 62
    },
    {
      "midi": 55,
      "hit": false,
      "t": 132000,
      "d": 1695.3125,
      "v": 61
    },
    {
      "midi": 52,
      "hit": false,
      "t": 132600,
      "d": 1325,
      "v": 53
    },
    {
      "midi": 59,
      "hit": false,
      "t": 133500,
      "d": 326.5625,
      "v": 63
    },
    {
      "midi": 55,
      "hit": false,
      "t": 133800,
      "d": 201.5625,
      "v": 53
    },
    {
      "midi": 61,
      "hit": false,
      "t": 134400,
      "d": 946.875,
      "v": 62
    },
    {
      "midi": 57,
      "hit": false,
      "t": 134400,
      "d": 1045.3125,
      "v": 60
    },
    {
      "midi": 45,
      "hit": false,
      "t": 135000,
      "d": 1148.4375,
      "v": 46
    },
    {
      "midi": 64,
      "hit": false,
      "t": 135300,
      "d": 1196.875,
      "v": 62
    },
    {
      "midi": 52,
      "hit": false,
      "t": 136050,
      "d": 226.5625,
      "v": 53
    },
    {
      "midi": 57,
      "hit": false,
      "t": 136500,
      "d": 1900,
      "v": 63
    },
    {
      "midi": 54,
      "hit": false,
      "t": 136800,
      "d": 1020.3125,
      "v": 52
    },
    {
      "midi": 61,
      "hit": false,
      "t": 136800,
      "d": 1346.875,
      "v": 70
    },
    {
      "midi": 42,
      "hit": false,
      "t": 137400,
      "d": 854.6875,
      "v": 46
    },
    {
      "midi": 69,
      "hit": false,
      "t": 137700,
      "d": 726.5625,
      "v": 60
    },
    {
      "midi": 54,
      "hit": false,
      "t": 138150,
      "d": 409.375,
      "v": 20
    },
    {
      "midi": 61,
      "hit": false,
      "t": 138300,
      "d": 151.5625,
      "v": 53
    },
    {
      "midi": 59,
      "hit": false,
      "t": 139200,
      "d": 201.5625,
      "v": 1
    },
    {
      "midi": 66,
      "hit": false,
      "t": 139200,
      "d": 295.3125,
      "v": 53
    },
    {
      "midi": 54,
      "hit": false,
      "t": 139200,
      "d": 526.5625,
      "v": 25
    },
    {
      "midi": 62,
      "hit": false,
      "t": 139200,
      "d": 550,
      "v": 61
    },
    {
      "midi": 47,
      "hit": false,
      "t": 139200,
      "d": 1898.4375,
      "v": 19
    },
    {
      "midi": 50,
      "hit": false,
      "t": 139500,
      "d": 404.6875,
      "v": 19
    },
    {
      "midi": 59,
      "hit": false,
      "t": 139800,
      "d": 73.4375,
      "v": 61
    },
    {
      "midi": 54,
      "hit": false,
      "t": 140100,
      "d": 395.3125,
      "v": 32
    },
    {
      "midi": 76,
      "hit": false,
      "t": 140400,
      "d": 176.5625,
      "v": 61
    },
    {
      "midi": 54,
      "hit": false,
      "t": 140700,
      "d": 373.4375,
      "v": 35
    },
    {
      "midi": 73,
      "hit": false,
      "t": 141000,
      "d": 73.4375,
      "v": 70
    },
    {
      "midi": 52,
      "hit": false,
      "t": 141600,
      "d": 1054.6875,
      "v": 60
    },
    {
      "midi": 55,
      "hit": false,
      "t": 141600,
      "d": 1321.875,
      "v": 60
    },
    {
      "midi": 59,
      "hit": false,
      "t": 141600,
      "d": 1471.875,
      "v": 62
    },
    {
      "midi": 62,
      "hit": false,
      "t": 141600,
      "d": 1598.4375,
      "v": 61
    },
    {
      "midi": 52,
      "hit": false,
      "t": 142800,
      "d": 426.5625,
      "v": 46
    },
    {
      "midi": 55,
      "hit": false,
      "t": 143100,
      "d": 353.125,
      "v": 70
    },
    {
      "midi": 52,
      "hit": false,
      "t": 143400,
      "d": 221.875,
      "v": 46
    },
    {
      "midi": 57,
      "hit": false,
      "t": 144000,
      "d": 1004.6875,
      "v": 43
    },
    {
      "midi": 45,
      "hit": false,
      "t": 144000,
      "d": 1453.125,
      "v": 15
    },
    {
      "midi": 61,
      "hit": false,
      "t": 144000,
      "d": 1501.5625,
      "v": 70
    },
    {
      "midi": 52,
      "hit": false,
      "t": 144600,
      "d": 926.5625,
      "v": 32
    },
    {
      "midi": 64,
      "hit": false,
      "t": 144900,
      "d": 726.5625,
      "v": 62
    },
    {
      "midi": 57,
      "hit": false,
      "t": 145500,
      "d": 248.4375,
      "v": 70
    },
    {
      "midi": 54,
      "hit": false,
      "t": 146400,
      "d": 1073.4375,
      "v": 45
    },
    {
      "midi": 59,
      "hit": false,
      "t": 146400,
      "d": 1331.25,
      "v": 61
    },
    {
      "midi": 62,
      "hit": false,
      "t": 146400,
      "d": 1512.5,
      "v": 63
    },
    {
      "midi": 47,
      "hit": false,
      "t": 146400,
      "d": 1803.125,
      "v": 32
    },
    {
      "midi": 50,
      "hit": false,
      "t": 147000,
      "d": 778.125,
      "v": 22
    },
    {
      "midi": 66,
      "hit": false,
      "t": 147300,
      "d": 628.125,
      "v": 83
    },
    {
      "midi": 59,
      "hit": false,
      "t": 147750,
      "d": 300,
      "v": 17
    },
    {
      "midi": 54,
      "hit": false,
      "t": 148200,
      "d": 248.4375,
      "v": 53
    },
    {
      "midi": 54,
      "hit": false,
      "t": 148500,
      "d": 126.5625,
      "v": 19
    },
    {
      "midi": 54,
      "hit": false,
      "t": 148800,
      "d": 1051.5625,
      "v": 60
    },
    {
      "midi": 61,
      "hit": false,
      "t": 148800,
      "d": 1379.6875,
      "v": 83
    },
    {
      "midi": 57,
      "hit": false,
      "t": 148800,
      "d": 1426.5625,
      "v": 60
    },
    {
      "midi": 42,
      "hit": false,
      "t": 149400,
      "d": 1214.0625,
      "v": 53
    },
    {
      "midi": 69,
      "hit": false,
      "t": 149700,
      "d": 503.125,
      "v": 62
    },
    {
      "midi": 54,
      "hit": false,
      "t": 150000,
      "d": 253.125,
      "v": 32
    },
    {
      "midi": 64,
      "hit": false,
      "t": 150300,
      "d": 254.6875,
      "v": 63
    },
    {
      "midi": 54,
      "hit": false,
      "t": 150600,
      "d": 153.125,
      "v": 32
    },
    {
      "midi": 59,
      "hit": false,
      "t": 151200,
      "d": 1370.3125,
      "v": 70
    },
    {
      "midi": 62,
      "hit": false,
      "t": 151200,
      "d": 1568.75,
      "v": 62
    },
    {
      "midi": 55,
      "hit": false,
      "t": 151200,
      "d": 1695.3125,
      "v": 61
    },
    {
      "midi": 52,
      "hit": false,
      "t": 151800,
      "d": 1325,
      "v": 53
    },
    {
      "midi": 59,
      "hit": false,
      "t": 152700,
      "d": 326.5625,
      "v": 63
    },
    {
      "midi": 55,
      "hit": false,
      "t": 153000,
      "d": 201.5625,
      "v": 53
    },
    {
      "midi": 61,
      "hit": false,
      "t": 153600,
      "d": 946.875,
      "v": 62
    },
    {
      "midi": 57,
      "hit": false,
      "t": 153600,
      "d": 1045.3125,
      "v": 60
    },
    {
      "midi": 45,
      "hit": false,
      "t": 154200,
      "d": 1148.4375,
      "v": 46
    },
    {
      "midi": 64,
      "hit": false,
      "t": 154500,
      "d": 1196.875,
      "v": 62
    },
    {
      "midi": 52,
      "hit": false,
      "t": 155250,
      "d": 226.5625,
      "v": 53
    },
    {
      "midi": 57,
      "hit": false,
      "t": 155700,
      "d": 1900,
      "v": 63
    },
    {
      "midi": 54,
      "hit": false,
      "t": 156000,
      "d": 1020.3125,
      "v": 52
    },
    {
      "midi": 61,
      "hit": false,
      "t": 156000,
      "d": 1346.875,
      "v": 70
    },
    {
      "midi": 42,
      "hit": false,
      "t": 156600,
      "d": 854.6875,
      "v": 46
    },
    {
      "midi": 69,
      "hit": false,
      "t": 156900,
      "d": 726.5625,
      "v": 60
    },
    {
      "midi": 54,
      "hit": false,
      "t": 157350,
      "d": 409.375,
      "v": 20
    },
    {
      "midi": 61,
      "hit": false,
      "t": 157500,
      "d": 151.5625,
      "v": 53
    },
    {
      "midi": 59,
      "hit": false,
      "t": 158400,
      "d": 201.5625,
      "v": 1
    },
    {
      "midi": 66,
      "hit": false,
      "t": 158400,
      "d": 295.3125,
      "v": 53
    },
    {
      "midi": 54,
      "hit": false,
      "t": 158400,
      "d": 526.5625,
      "v": 25
    },
    {
      "midi": 62,
      "hit": false,
      "t": 158400,
      "d": 550,
      "v": 61
    },
    {
      "midi": 47,
      "hit": false,
      "t": 158400,
      "d": 1898.4375,
      "v": 19
    },
    {
      "midi": 50,
      "hit": false,
      "t": 158700,
      "d": 404.6875,
      "v": 19
    },
    {
      "midi": 59,
      "hit": false,
      "t": 159000,
      "d": 73.4375,
      "v": 61
    },
    {
      "midi": 54,
      "hit": false,
      "t": 159300,
      "d": 395.3125,
      "v": 32
    },
    {
      "midi": 76,
      "hit": false,
      "t": 159600,
      "d": 176.5625,
      "v": 61
    },
    {
      "midi": 54,
      "hit": false,
      "t": 159900,
      "d": 373.4375,
      "v": 35
    },
    {
      "midi": 73,
      "hit": false,
      "t": 160200,
      "d": 73.4375,
      "v": 70
    },
    {
      "midi": 52,
      "hit": false,
      "t": 160800,
      "d": 1054.6875,
      "v": 60
    },
    {
      "midi": 55,
      "hit": false,
      "t": 160800,
      "d": 1321.875,
      "v": 60
    },
    {
      "midi": 59,
      "hit": false,
      "t": 160800,
      "d": 1471.875,
      "v": 62
    },
    {
      "midi": 62,
      "hit": false,
      "t": 160800,
      "d": 1598.4375,
      "v": 61
    },
    {
      "midi": 52,
      "hit": false,
      "t": 162000,
      "d": 426.5625,
      "v": 46
    },
    {
      "midi": 55,
      "hit": false,
      "t": 162300,
      "d": 353.125,
      "v": 70
    },
    {
      "midi": 52,
      "hit": false,
      "t": 162600,
      "d": 221.875,
      "v": 46
    },
    {
      "midi": 57,
      "hit": false,
      "t": 163200,
      "d": 1004.6875,
      "v": 43
    },
    {
      "midi": 45,
      "hit": false,
      "t": 163200,
      "d": 1453.125,
      "v": 15
    },
    {
      "midi": 61,
      "hit": false,
      "t": 163200,
      "d": 1501.5625,
      "v": 70
    },
    {
      "midi": 52,
      "hit": false,
      "t": 163800,
      "d": 926.5625,
      "v": 32
    },
    {
      "midi": 64,
      "hit": false,
      "t": 164100,
      "d": 726.5625,
      "v": 62
    },
    {
      "midi": 57,
      "hit": false,
      "t": 164700,
      "d": 248.4375,
      "v": 70
    },
    {
      "midi": 54,
      "hit": false,
      "t": 165600,
      "d": 1073.4375,
      "v": 45
    },
    {
      "midi": 59,
      "hit": false,
      "t": 165600,
      "d": 1331.25,
      "v": 61
    },
    {
      "midi": 62,
      "hit": false,
      "t": 165600,
      "d": 1512.5,
      "v": 63
    },
    {
      "midi": 47,
      "hit": false,
      "t": 165600,
      "d": 1803.125,
      "v": 32
    },
    {
      "midi": 50,
      "hit": false,
      "t": 166200,
      "d": 778.125,
      "v": 22
    },
    {
      "midi": 66,
      "hit": false,
      "t": 166500,
      "d": 628.125,
      "v": 83
    },
    {
      "midi": 59,
      "hit": false,
      "t": 166950,
      "d": 300,
      "v": 17
    },
    {
      "midi": 54,
      "hit": false,
      "t": 167400,
      "d": 248.4375,
      "v": 53
    },
    {
      "midi": 54,
      "hit": false,
      "t": 167700,
      "d": 126.5625,
      "v": 19
    },
    {
      "midi": 54,
      "hit": false,
      "t": 168000,
      "d": 1051.5625,
      "v": 60
    },
    {
      "midi": 61,
      "hit": false,
      "t": 168000,
      "d": 1379.6875,
      "v": 83
    },
    {
      "midi": 57,
      "hit": false,
      "t": 168000,
      "d": 1426.5625,
      "v": 60
    },
    {
      "midi": 42,
      "hit": false,
      "t": 168600,
      "d": 1214.0625,
      "v": 53
    },
    {
      "midi": 69,
      "hit": false,
      "t": 168900,
      "d": 503.125,
      "v": 62
    },
    {
      "midi": 54,
      "hit": false,
      "t": 169200,
      "d": 253.125,
      "v": 32
    },
    {
      "midi": 64,
      "hit": false,
      "t": 169500,
      "d": 254.6875,
      "v": 63
    },
    {
      "midi": 54,
      "hit": false,
      "t": 169800,
      "d": 153.125,
      "v": 32
    },
    {
      "midi": 59,
      "hit": false,
      "t": 170400,
      "d": 1370.3125,
      "v": 70
    },
    {
      "midi": 62,
      "hit": false,
      "t": 170400,
      "d": 1568.75,
      "v": 62
    },
    {
      "midi": 55,
      "hit": false,
      "t": 170400,
      "d": 1695.3125,
      "v": 61
    },
    {
      "midi": 52,
      "hit": false,
      "t": 171000,
      "d": 1325,
      "v": 53
    },
    {
      "midi": 59,
      "hit": false,
      "t": 171900,
      "d": 326.5625,
      "v": 63
    },
    {
      "midi": 55,
      "hit": false,
      "t": 172200,
      "d": 201.5625,
      "v": 53
    },
    {
      "midi": 61,
      "hit": false,
      "t": 172800,
      "d": 946.875,
      "v": 62
    },
    {
      "midi": 57,
      "hit": false,
      "t": 172800,
      "d": 1045.3125,
      "v": 60
    },
    {
      "midi": 45,
      "hit": false,
      "t": 173400,
      "d": 1148.4375,
      "v": 46
    },
    {
      "midi": 64,
      "hit": false,
      "t": 173700,
      "d": 1196.875,
      "v": 62
    },
    {
      "midi": 52,
      "hit": false,
      "t": 174450,
      "d": 226.5625,
      "v": 53
    },
    {
      "midi": 57,
      "hit": false,
      "t": 174900,
      "d": 1900,
      "v": 63
    },
    {
      "midi": 54,
      "hit": false,
      "t": 175200,
      "d": 1020.3125,
      "v": 52
    },
    {
      "midi": 61,
      "hit": false,
      "t": 175200,
      "d": 1346.875,
      "v": 70
    },
    {
      "midi": 42,
      "hit": false,
      "t": 175800,
      "d": 854.6875,
      "v": 46
    },
    {
      "midi": 69,
      "hit": false,
      "t": 176100,
      "d": 726.5625,
      "v": 60
    },
    {
      "midi": 54,
      "hit": false,
      "t": 176550,
      "d": 409.375,
      "v": 20
    },
    {
      "midi": 61,
      "hit": false,
      "t": 176700,
      "d": 151.5625,
      "v": 53
    },
    {
      "midi": 59,
      "hit": false,
      "t": 177600,
      "d": 201.5625,
      "v": 1
    },
    {
      "midi": 66,
      "hit": false,
      "t": 177600,
      "d": 295.3125,
      "v": 53
    },
    {
      "midi": 54,
      "hit": false,
      "t": 177600,
      "d": 526.5625,
      "v": 25
    },
    {
      "midi": 62,
      "hit": false,
      "t": 177600,
      "d": 550,
      "v": 61
    },
    {
      "midi": 47,
      "hit": false,
      "t": 177600,
      "d": 1898.4375,
      "v": 19
    },
    {
      "midi": 50,
      "hit": false,
      "t": 177900,
      "d": 404.6875,
      "v": 19
    },
    {
      "midi": 59,
      "hit": false,
      "t": 178200,
      "d": 73.4375,
      "v": 61
    },
    {
      "midi": 54,
      "hit": false,
      "t": 178500,
      "d": 395.3125,
      "v": 32
    },
    {
      "midi": 76,
      "hit": false,
      "t": 178800,
      "d": 176.5625,
      "v": 61
    },
    {
      "midi": 54,
      "hit": false,
      "t": 179100,
      "d": 373.4375,
      "v": 35
    },
    {
      "midi": 73,
      "hit": false,
      "t": 179400,
      "d": 73.4375,
      "v": 70
    },
    {
      "midi": 54,
      "hit": false,
      "t": 180000,
      "d": 776.5625,
      "v": 72
    },
    {
      "midi": 59,
      "hit": false,
      "t": 180000,
      "d": 1146.875,
      "v": 80
    },
    {
      "midi": 66,
      "hit": false,
      "t": 180000,
      "d": 1373.4375,
      "v": 83
    },
    {
      "midi": 62,
      "hit": false,
      "t": 180000,
      "d": 1906.25,
      "v": 82
    },
    {
      "midi": 47,
      "hit": false,
      "t": 180000,
      "d": 1929.6875,
      "v": 55
    },
    {
      "midi": 54,
      "hit": false,
      "t": 180900,
      "d": 628.125,
      "v": 52
    },
    {
      "midi": 59,
      "hit": false,
      "t": 181200,
      "d": 473.4375,
      "v": 45
    },
    {
      "midi": 66,
      "hit": false,
      "t": 181500,
      "d": 431.25,
      "v": 90
    },
    {
      "midi": 54,
      "hit": false,
      "t": 181800,
      "d": 154.6875,
      "v": 63
    },
    {
      "midi": 57,
      "hit": false,
      "t": 182400,
      "d": 831.25,
      "v": 73
    },
    {
      "midi": 61,
      "hit": false,
      "t": 182400,
      "d": 857.8125,
      "v": 83
    },
    {
      "midi": 54,
      "hit": false,
      "t": 182400,
      "d": 937.5,
      "v": 63
    },
    {
      "midi": 42,
      "hit": false,
      "t": 183000,
      "d": 1020.3125,
      "v": 63
    },
    {
      "midi": 64,
      "hit": false,
      "t": 183300,
      "d": 595.3125,
      "v": 81
    },
    {
      "midi": 54,
      "hit": false,
      "t": 183600,
      "d": 348.4375,
      "v": 72
    },
    {
      "midi": 57,
      "hit": false,
      "t": 183900,
      "d": 321.875,
      "v": 90
    },
    {
      "midi": 54,
      "hit": false,
      "t": 184200,
      "d": 198.4375,
      "v": 72
    },
    {
      "midi": 57,
      "hit": false,
      "t": 184500,
      "d": 225,
      "v": 90
    },
    {
      "midi": 61,
      "hit": false,
      "t": 184500,
      "d": 278.125,
      "v": 111
    },
    {
      "midi": 54,
      "hit": false,
      "t": 184800,
      "d": 942.1875,
      "v": 66
    },
    {
      "midi": 59,
      "hit": false,
      "t": 184800,
      "d": 992.1875,
      "v": 65
    },
    {
      "midi": 62,
      "hit": false,
      "t": 184800,
      "d": 1681.25,
      "v": 103
    },
    {
      "midi": 47,
      "hit": false,
      "t": 184800,
      "d": 1757.8125,
      "v": 50
    },
    {
      "midi": 50,
      "hit": false,
      "t": 185400,
      "d": 520.3125,
      "v": 55
    },
    {
      "midi": 66,
      "hit": false,
      "t": 185700,
      "d": 693.75,
      "v": 111
    },
    {
      "midi": 54,
      "hit": false,
      "t": 186000,
      "d": 346.875,
      "v": 45
    },
    {
      "midi": 59,
      "hit": false,
      "t": 186300,
      "d": 271.875,
      "v": 83
    },
    {
      "midi": 54,
      "hit": false,
      "t": 186600,
      "d": 146.875,
      "v": 50
    },
    {
      "midi": 54,
      "hit": false,
      "t": 187200,
      "d": 443.75,
      "v": 55
    },
    {
      "midi": 57,
      "hit": false,
      "t": 187200,
      "d": 1335.9375,
      "v": 73
    },
    {
      "midi": 42,
      "hit": false,
      "t": 187200,
      "d": 1803.125,
      "v": 52
    },
    {
      "midi": 61,
      "hit": false,
      "t": 187200,
      "d": 2003.125,
      "v": 81
    },
    {
      "midi": 69,
      "hit": false,
      "t": 187200,
      "d": 2026.5625,
      "v": 73
    },
    {
      "midi": 54,
      "hit": false,
      "t": 187800,
      "d": 987.5,
      "v": 56
    },
    {
      "midi": 64,
      "hit": false,
      "t": 188100,
      "d": 1112.5,
      "v": 72
    },
    {
      "midi": 57,
      "hit": false,
      "t": 188700,
      "d": 546.875,
      "v": 65
    },
    {
      "midi": 54,
      "hit": false,
      "t": 189000,
      "d": 173.4375,
      "v": 55
    },
    {
      "midi": 64,
      "hit": false,
      "t": 189600,
      "d": 98.4375,
      "v": 103
    },
    {
      "midi": 62,
      "hit": false,
      "t": 189600,
      "d": 118.75,
      "v": 103
    },
    {
      "midi": 59,
      "hit": false,
      "t": 189600,
      "d": 126.5625,
      "v": 90
    },
    {
      "midi": 67,
      "hit": false,
      "t": 189600,
      "d": 126.5625,
      "v": 99
    },
    {
      "midi": 52,
      "hit": false,
      "t": 189600,
      "d": 150,
      "v": 90
    },
    {
      "midi": 52,
      "hit": false,
      "t": 190500,
      "d": 1309.375,
      "v": 90
    },
    {
      "midi": 59,
      "hit": false,
      "t": 190500,
      "d": 1378.125,
      "v": 83
    },
    {
      "midi": 62,
      "hit": false,
      "t": 190500,
      "d": 1379.6875,
      "v": 90
    },
    {
      "midi": 64,
      "hit": false,
      "t": 190500,
      "d": 1406.25,
      "v": 90
    },
    {
      "midi": 67,
      "hit": false,
      "t": 190500,
      "d": 1407.8125,
      "v": 95
    },
    {
      "midi": 66,
      "hit": false,
      "t": 192000,
      "d": 1070.3125,
      "v": 82
    },
    {
      "midi": 67,
      "hit": false,
      "t": 192000,
      "d": 1348.4375,
      "v": 60
    },
    {
      "midi": 64,
      "hit": false,
      "t": 192000,
      "d": 1695.3125,
      "v": 73
    },
    {
      "midi": 57,
      "hit": false,
      "t": 192000,
      "d": 2120.3125,
      "v": 80
    },
    {
      "midi": 45,
      "hit": false,
      "t": 192000,
      "d": 2146.875,
      "v": 65
    },
    {
      "midi": 61,
      "hit": false,
      "t": 192000,
      "d": 2287.5,
      "v": 63
    },
    {
      "midi": 66,
      "hit": false,
      "t": 193200,
      "d": 1023.4375,
      "v": 63
    },
    {
      "midi": 64,
      "hit": false,
      "t": 193800,
      "d": 446.875,
      "v": 56
    },
    {
      "midi": 54,
      "hit": false,
      "t": 194400,
      "d": 123.4375,
      "v": 83
    },
    {
      "midi": 57,
      "hit": false,
      "t": 194400,
      "d": 173.4375,
      "v": 83
    },
    {
      "midi": 61,
      "hit": false,
      "t": 194400,
      "d": 195.3125,
      "v": 111
    },
    {
      "midi": 64,
      "hit": false,
      "t": 194400,
      "d": 201.5625,
      "v": 90
    },
    {
      "midi": 69,
      "hit": false,
      "t": 194400,
      "d": 223.4375,
      "v": 81
    },
    {
      "midi": 54,
      "hit": false,
      "t": 195300,
      "d": 1359.375,
      "v": 83
    },
    {
      "midi": 61,
      "hit": false,
      "t": 195300,
      "d": 1379.6875,
      "v": 83
    },
    {
      "midi": 64,
      "hit": false,
      "t": 195300,
      "d": 1429.6875,
      "v": 83
    },
    {
      "midi": 57,
      "hit": false,
      "t": 195300,
      "d": 1453.125,
      "v": 81
    },
    {
      "midi": 66,
      "hit": false,
      "t": 196500,
      "d": 173.4375,
      "v": 90
    },
    {
      "midi": 69,
      "hit": false,
      "t": 196650,
      "d": 31.25,
      "v": 80
    },
    {
      "midi": 54,
      "hit": false,
      "t": 196800,
      "d": 1145.3125,
      "v": 81
    },
    {
      "midi": 66,
      "hit": false,
      "t": 196800,
      "d": 1170.3125,
      "v": 81
    },
    {
      "midi": 47,
      "hit": false,
      "t": 196800,
      "d": 1193.75,
      "v": 66
    },
    {
      "midi": 62,
      "hit": false,
      "t": 196800,
      "d": 1195.3125,
      "v": 82
    },
    {
      "midi": 59,
      "hit": false,
      "t": 196800,
      "d": 1245.3125,
      "v": 72
    },
    {
      "midi": 57,
      "hit": false,
      "t": 198900,
      "d": 296.875,
      "v": 82
    },
    {
      "midi": 61,
      "hit": false,
      "t": 198900,
      "d": 298.4375,
      "v": 103
    },
    {
      "midi": 64,
      "hit": false,
      "t": 198900,
      "d": 323.4375,
      "v": 82
    },
    {
      "midi": 54,
      "hit": false,
      "t": 199200,
      "d": 889.0625,
      "v": 72
    },
    {
      "midi": 59,
      "hit": false,
      "t": 199200,
      "d": 1310.9375,
      "v": 80
    },
    {
      "midi": 66,
      "hit": false,
      "t": 199200,
      "d": 1335.9375,
      "v": 82
    },
    {
      "midi": 62,
      "hit": false,
      "t": 199200,
      "d": 1432.8125,
      "v": 83
    },
    {
      "midi": 47,
      "hit": false,
      "t": 199200,
      "d": 1900,
      "v": 54
    },
    {
      "midi": 54,
      "hit": false,
      "t": 200400,
      "d": 395.3125,
      "v": 50
    },
    {
      "midi": 66,
      "hit": false,
      "t": 200700,
      "d": 421.875,
      "v": 111
    },
    {
      "midi": 54,
      "hit": false,
      "t": 201000,
      "d": 146.875,
      "v": 47
    },
    {
      "midi": 57,
      "hit": false,
      "t": 201600,
      "d": 1403.125,
      "v": 80
    },
    {
      "midi": 54,
      "hit": false,
      "t": 201600,
      "d": 1526.5625,
      "v": 56
    },
    {
      "midi": 61,
      "hit": false,
      "t": 201600,
      "d": 1826.5625,
      "v": 83
    },
    {
      "midi": 64,
      "hit": false,
      "t": 201600,
      "d": 2151.5625,
      "v": 81
    },
    {
      "midi": 42,
      "hit": false,
      "t": 202200,
      "d": 964.0625,
      "v": 50
    },
    {
      "midi": 69,
      "hit": false,
      "t": 202500,
      "d": 1037.5,
      "v": 66
    },
    {
      "midi": 57,
      "hit": false,
      "t": 203100,
      "d": 370.3125,
      "v": 56
    },
    {
      "midi": 54,
      "hit": false,
      "t": 203400,
      "d": 296.875,
      "v": 72
    },
    {
      "midi": 61,
      "hit": false,
      "t": 203700,
      "d": 325,
      "v": 103
    },
    {
      "midi": 54,
      "hit": false,
      "t": 204000,
      "d": 989.0625,
      "v": 55
    },
    {
      "midi": 59,
      "hit": false,
      "t": 204000,
      "d": 990.625,
      "v": 14
    },
    {
      "midi": 62,
      "hit": false,
      "t": 204000,
      "d": 1731.25,
      "v": 83
    },
    {
      "midi": 47,
      "hit": false,
      "t": 204000,
      "d": 1806.25,
      "v": 22
    },
    {
      "midi": 50,
      "hit": false,
      "t": 204600,
      "d": 1062.5,
      "v": 52
    },
    {
      "midi": 66,
      "hit": false,
      "t": 204900,
      "d": 840.625,
      "v": 81
    },
    {
      "midi": 54,
      "hit": false,
      "t": 205350,
      "d": 246.875,
      "v": 40
    },
    {
      "midi": 59,
      "hit": false,
      "t": 205500,
      "d": 321.875,
      "v": 83
    },
    {
      "midi": 54,
      "hit": false,
      "t": 205800,
      "d": 223.4375,
      "v": 66
    },
    {
      "midi": 42,
      "hit": false,
      "t": 206400,
      "d": 220.3125,
      "v": 45
    },
    {
      "midi": 61,
      "hit": false,
      "t": 206400,
      "d": 2371.875,
      "v": 103
    },
    {
      "midi": 54,
      "hit": false,
      "t": 206400,
      "d": 2373.4375,
      "v": 80
    },
    {
      "midi": 57,
      "hit": false,
      "t": 206400,
      "d": 2378.125,
      "v": 83
    },
    {
      "midi": 42,
      "hit": false,
      "t": 207000,
      "d": 1756.25,
      "v": 52
    },
    {
      "midi": 64,
      "hit": false,
      "t": 207300,
      "d": 1462.5,
      "v": 82
    },
    {
      "midi": 59,
      "hit": false,
      "t": 208726.5625,
      "d": 2398.4375,
      "v": 83
    },
    {
      "midi": 62,
      "hit": false,
      "t": 208800,
      "d": 2325,
      "v": 63
    },
    {
      "midi": 67,
      "hit": false,
      "t": 208800,
      "d": 1240.625,
      "v": 55
    },
    {
      "midi": 52,
      "hit": false,
      "t": 208800,
      "d": 1271.875,
      "v": 19
    },
    {
      "midi": 52,
      "hit": false,
      "t": 208817.1875,
      "d": 2176.5625,
      "v": 82
    },
    {
      "midi": 62,
      "hit": false,
      "t": 208821.875,
      "d": 1243.75,
      "v": 72
    },
    {
      "midi": 64,
      "hit": false,
      "t": 208821.875,
      "d": 1290.625,
      "v": 63
    },
    {
      "midi": 59,
      "hit": false,
      "t": 208823.4375,
      "d": 1293.75,
      "v": 63
    },
    {
      "midi": 55,
      "hit": false,
      "t": 208825,
      "d": 1289.0625,
      "v": 73
    },
    {
      "midi": 67,
      "hit": false,
      "t": 208851.5625,
      "d": 2273.4375,
      "v": 65
    },
    {
      "midi": 64,
      "hit": false,
      "t": 208873.4375,
      "d": 2251.5625,
      "v": 65
    },
    {
      "midi": 71,
      "hit": false,
      "t": 210318.75,
      "d": 806.25,
      "v": 80
    },
    {
      "midi": 45,
      "hit": false,
      "t": 211021.875,
      "d": 2551.5625,
      "v": 50
    },
    {
      "midi": 52,
      "hit": false,
      "t": 211096.875,
      "d": 2496.875,
      "v": 56
    },
    {
      "midi": 45,
      "hit": false,
      "t": 211114.0625,
      "d": 773.4375,
      "v": 19
    },
    {
      "midi": 57,
      "hit": false,
      "t": 211135.9375,
      "d": 875,
      "v": 20
    },
    {
      "midi": 57,
      "hit": false,
      "t": 211148.4375,
      "d": 2423.4375,
      "v": 35
    },
    {
      "midi": 64,
      "hit": false,
      "t": 211173.4375,
      "d": 2396.875,
      "v": 55
    },
    {
      "midi": 64,
      "hit": false,
      "t": 211190.625,
      "d": 721.875,
      "v": 63
    },
    {
      "midi": 61,
      "hit": false,
      "t": 211195.3125,
      "d": 2348.4375,
      "v": 66
    },
    {
      "midi": 69,
      "hit": false,
      "t": 211198.4375,
      "d": 2371.875,
      "v": 55
    },
    {
      "midi": 61,
      "hit": false,
      "t": 211212.5,
      "d": 625,
      "v": 73
    },
    {
      "midi": 59,
      "hit": false,
      "t": 211214.0625,
      "d": 671.875,
      "v": 63
    },
    {
      "midi": 71,
      "hit": false,
      "t": 213326.5625,
      "d": 123.4375,
      "v": 55
    },
    {
      "midi": 70,
      "hit": false,
      "t": 213445.3125,
      "d": 103.125,
      "v": 66
    },
    {
      "midi": 42,
      "hit": false,
      "t": 213525,
      "d": 1014.0625,
      "v": 63
    },
    {
      "midi": 69,
      "hit": false,
      "t": 213542.1875,
      "d": 2254.6875,
      "v": 80
    },
    {
      "midi": 54,
      "hit": false,
      "t": 213575,
      "d": 1210.9375,
      "v": 56
    },
    {
      "midi": 54,
      "hit": false,
      "t": 213595.3125,
      "d": 2198.4375,
      "v": 55
    },
    {
      "midi": 61,
      "hit": false,
      "t": 213595.3125,
      "d": 2198.4375,
      "v": 65
    },
    {
      "midi": 64,
      "hit": false,
      "t": 213646.875,
      "d": 2146.875,
      "v": 56
    },
    {
      "midi": 64,
      "hit": false,
      "t": 213646.875,
      "d": 1017.1875,
      "v": 72
    },
    {
      "midi": 57,
      "hit": false,
      "t": 213648.4375,
      "d": 1014.0625,
      "v": 37
    },
    {
      "midi": 66,
      "hit": false,
      "t": 213668.75,
      "d": 2125,
      "v": 82
    },
    {
      "midi": 61,
      "hit": false,
      "t": 213673.4375,
      "d": 964.0625,
      "v": 45
    },
    {
      "midi": 66,
      "hit": false,
      "t": 213673.4375,
      "d": 1039.0625,
      "v": 63
    },
    {
      "midi": 69,
      "hit": false,
      "t": 214540.625,
      "d": 1253.125,
      "v": 72
    },
    {
      "midi": 47,
      "hit": false,
      "t": 215656.25,
      "d": 4771.875,
      "v": 81
    },
    {
      "midi": 54,
      "hit": false,
      "t": 215804.6875,
      "d": 4623.4375,
      "v": 83
    },
    {
      "midi": 47,
      "hit": false,
      "t": 215851.5625,
      "d": 4826.5625,
      "v": 54
    },
    {
      "midi": 62,
      "hit": false,
      "t": 215853.125,
      "d": 2565.625,
      "v": 55
    },
    {
      "midi": 59,
      "hit": false,
      "t": 215879.6875,
      "d": 3720.3125,
      "v": 35
    },
    {
      "midi": 54,
      "hit": false,
      "t": 215901.5625,
      "d": 4728.125,
      "v": 63
    },
    {
      "midi": 59,
      "hit": false,
      "t": 215923.4375,
      "d": 3639.0625,
      "v": 65
    },
    {
      "midi": 66,
      "hit": false,
      "t": 215929.6875,
      "d": 4471.875,
      "v": 81
    },
    {
      "midi": 66,
      "hit": false,
      "t": 216000,
      "d": 4653.125,
      "v": 45
    },
    {
      "midi": 62,
      "hit": false,
      "t": 216026.5625,
      "d": 2364.0625,
      "v": 72
    },
    {
      "midi": 71,
      "hit": false,
      "t": 216026.5625,
      "d": 4648.4375,
      "v": 72
    },
    {
      "midi": 71,
      "hit": false,
      "t": 216046.875,
      "d": 4404.6875,
      "v": 80
    },
    {
      "midi": 63,
      "hit": false,
      "t": 218390.625,
      "d": 2203.125,
      "v": 76
    },
    {
      "midi": 63,
      "hit": false,
      "t": 218418.75,
      "d": 1837.5,
      "v": 81
    },
    {
      "midi": 60,
      "hit": false,
      "t": 219590.625,
      "d": 1153.125,
      "v": 81
    },
    {
      "midi": 60,
      "hit": false,
      "t": 219600,
      "d": 787.5,
      "v": 72
    },
    {
      "midi": 55,
      "hit": false,
      "t": 220800,
      "d": 1554.6875,
      "v": 80
    },
    {
      "midi": 43,
      "hit": false,
      "t": 220800,
      "d": 1776.5625,
      "v": 65
    },
    {
      "midi": 62,
      "hit": false,
      "t": 220800,
      "d": 2029.6875,
      "v": 73
    },
    {
      "midi": 59,
      "hit": false,
      "t": 220800,
      "d": 2056.25,
      "v": 80
    },
    {
      "midi": 71,
      "hit": false,
      "t": 220848.4375,
      "d": 298.4375,
      "v": 82
    },
    {
      "midi": 73,
      "hit": false,
      "t": 221123.4375,
      "d": 395.3125,
      "v": 83
    },
    {
      "midi": 74,
      "hit": false,
      "t": 221742.1875,
      "d": 520.3125,
      "v": 82
    },
    {
      "midi": 76,
      "hit": false,
      "t": 222335.9375,
      "d": 296.875,
      "v": 73
    },
    {
      "midi": 55,
      "hit": false,
      "t": 222600,
      "d": 176.5625,
      "v": 45
    },
    {
      "midi": 57,
      "hit": false,
      "t": 222900,
      "d": 1006.25,
      "v": 66
    },
    {
      "midi": 61,
      "hit": false,
      "t": 222900,
      "d": 1762.5,
      "v": 66
    },
    {
      "midi": 64,
      "hit": false,
      "t": 222900,
      "d": 2356.25,
      "v": 63
    },
    {
      "midi": 45,
      "hit": false,
      "t": 222900,
      "d": 2407.8125,
      "v": 56
    },
    {
      "midi": 73,
      "hit": false,
      "t": 222904.6875,
      "d": 546.875,
      "v": 83
    },
    {
      "midi": 74,
      "hit": false,
      "t": 223526.5625,
      "d": 296.875,
      "v": 81
    },
    {
      "midi": 57,
      "hit": false,
      "t": 224100,
      "d": 1193.75,
      "v": 54
    },
    {
      "midi": 76,
      "hit": false,
      "t": 224118.75,
      "d": 543.75,
      "v": 83
    },
    {
      "midi": 61,
      "hit": false,
      "t": 224700,
      "d": 535.9375,
      "v": 63
    },
    {
      "midi": 78,
      "hit": false,
      "t": 224734.375,
      "d": 646.875,
      "v": 90
    },
    {
      "midi": 59,
      "hit": false,
      "t": 225600,
      "d": 1603.125,
      "v": 72
    },
    {
      "midi": 54,
      "hit": false,
      "t": 225600,
      "d": 1703.125,
      "v": 55
    },
    {
      "midi": 66,
      "hit": false,
      "t": 225600,
      "d": 1829.6875,
      "v": 65
    },
    {
      "midi": 62,
      "hit": false,
      "t": 225600,
      "d": 1848.4375,
      "v": 81
    },
    {
      "midi": 74,
      "hit": false,
      "t": 225903.125,
      "d": 423.4375,
      "v": 83
    },
    {
      "midi": 76,
      "hit": false,
      "t": 226379.6875,
      "d": 303.125,
      "v": 81
    },
    {
      "midi": 78,
      "hit": false,
      "t": 226784.375,
      "d": 250,
      "v": 80
    },
    {
      "midi": 82,
      "hit": false,
      "t": 227390.625,
      "d": 48.4375,
      "v": 72
    },
    {
      "midi": 54,
      "hit": false,
      "t": 227400,
      "d": 885.9375,
      "v": 52
    },
    {
      "midi": 83,
      "hit": false,
      "t": 227465.625,
      "d": 254.6875,
      "v": 55
    },
    {
      "midi": 57,
      "hit": false,
      "t": 227700,
      "d": 982.8125,
      "v": 72
    },
    {
      "midi": 61,
      "hit": false,
      "t": 227700,
      "d": 1232.8125,
      "v": 82
    },
    {
      "midi": 64,
      "hit": false,
      "t": 227700,
      "d": 1484.375,
      "v": 72
    },
    {
      "midi": 81,
      "hit": false,
      "t": 227746.875,
      "d": 1387.5,
      "v": 82
    },
    {
      "midi": 42,
      "hit": false,
      "t": 228300,
      "d": 1929.6875,
      "v": 45
    },
    {
      "midi": 54,
      "hit": false,
      "t": 228600,
      "d": 1610.9375,
      "v": 80
    },
    {
      "midi": 57,
      "hit": false,
      "t": 228900,
      "d": 1312.5,
      "v": 63
    },
    {
      "midi": 61,
      "hit": false,
      "t": 229200,
      "d": 987.5,
      "v": 12
    },
    {
      "midi": 69,
      "hit": false,
      "t": 229500,
      "d": 745.3125,
      "v": 73
    },
    {
      "midi": 67,
      "hit": false,
      "t": 230115.625,
      "d": 2385.9375,
      "v": 73
    },
    {
      "midi": 62,
      "hit": false,
      "t": 230190.625,
      "d": 1815.625,
      "v": 54
    },
    {
      "midi": 59,
      "hit": false,
      "t": 230290.625,
      "d": 1170.3125,
      "v": 63
    },
    {
      "midi": 40,
      "hit": false,
      "t": 230404.6875,
      "d": 2228.125,
      "v": 63
    },
    {
      "midi": 55,
      "hit": false,
      "t": 230415.625,
      "d": 820.3125,
      "v": 80
    },
    {
      "midi": 52,
      "hit": false,
      "t": 231012.5,
      "d": 1587.5,
      "v": 56
    },
    {
      "midi": 55,
      "hit": false,
      "t": 231334.375,
      "d": 1115.625,
      "v": 50
    },
    {
      "midi": 59,
      "hit": false,
      "t": 231906.25,
      "d": 646.875,
      "v": 65
    },
    {
      "midi": 61,
      "hit": false,
      "t": 232476.5625,
      "d": 2643.75,
      "v": 72
    },
    {
      "midi": 45,
      "hit": false,
      "t": 232500,
      "d": 2650,
      "v": 37
    },
    {
      "midi": 57,
      "hit": false,
      "t": 233385.9375,
      "d": 1787.5,
      "v": 45
    },
    {
      "midi": 52,
      "hit": false,
      "t": 233687.5,
      "d": 1460.9375,
      "v": 55
    },
    {
      "midi": 66,
      "hit": false,
      "t": 234281.25,
      "d": 835.9375,
      "v": 90
    },
    {
      "midi": 64,
      "hit": false,
      "t": 234725,
      "d": 421.875,
      "v": 72
    },
    {
      "midi": 57,
      "hit": false,
      "t": 235200,
      "d": 2328.125,
      "v": 80
    },
    {
      "midi": 42,
      "hit": false,
      "t": 235200,
      "d": 2353.125,
      "v": 56
    },
    {
      "midi": 54,
      "hit": false,
      "t": 235800,
      "d": 1720.3125,
      "v": 37
    },
    {
      "midi": 61,
      "hit": false,
      "t": 236100,
      "d": 1456.25,
      "v": 73
    },
    {
      "midi": 64,
      "hit": false,
      "t": 236400,
      "d": 1164.0625,
      "v": 50
    },
    {
      "midi": 69,
      "hit": false,
      "t": 236700,
      "d": 882.8125,
      "v": 72
    },
    {
      "midi": 59,
      "hit": false,
      "t": 237600,
      "d": 253.125,
      "v": 90
    },
    {
      "midi": 62,
      "hit": false,
      "t": 237600,
      "d": 254.6875,
      "v": 111
    },
    {
      "midi": 57,
      "hit": false,
      "t": 237600,
      "d": 256.25,
      "v": 80
    },
    {
      "midi": 47,
      "hit": false,
      "t": 237600,
      "d": 257.8125,
      "v": 80
    },
    {
      "midi": 66,
      "hit": false,
      "t": 237600,
      "d": 279.6875,
      "v": 103
    },
    {
      "midi": 62,
      "hit": false,
      "t": 237600,
      "d": 100,
      "v": 80
    },
    {
      "midi": 59,
      "hit": false,
      "t": 237600,
      "d": 126.5625,
      "v": 66
    },
    {
      "midi": 66,
      "hit": false,
      "t": 237600,
      "d": 126.5625,
      "v": 72
    },
    {
      "midi": 47,
      "hit": false,
      "t": 238500,
      "d": 3900,
      "v": 81
    },
    {
      "midi": 52,
      "hit": false,
      "t": 238500,
      "d": 3900,
      "v": 80
    },
    {
      "midi": 57,
      "hit": false,
      "t": 238500,
      "d": 3900,
      "v": 83
    },
    {
      "midi": 59,
      "hit": false,
      "t": 238500,
      "d": 3900,
      "v": 83
    },
    {
      "midi": 61,
      "hit": false,
      "t": 238500,
      "d": 3900,
      "v": 83
    },
    {
      "midi": 61,
      "hit": false,
      "t": 238500,
      "d": 6045.3125,
      "v": 72
    },
    {
      "midi": 64,
      "hit": false,
      "t": 238500,
      "d": 6068.75,
      "v": 65
    },
    {
      "midi": 57,
      "hit": false,
      "t": 238500,
      "d": 6071.875,
      "v": 63
    },
    {
      "midi": 83,
      "hit": false,
      "t": 240007.8125,
      "d": 326.5625,
      "v": 73
    },
    {
      "midi": 85,
      "hit": false,
      "t": 240332.8125,
      "d": 545.3125,
      "v": 83
    },
    {
      "midi": 86,
      "hit": false,
      "t": 240928.125,
      "d": 554.6875,
      "v": 82
    },
    {
      "midi": 88,
      "hit": false,
      "t": 241507.8125,
      "d": 568.75,
      "v": 82
    },
    {
      "midi": 83,
      "hit": false,
      "t": 242103.125,
      "d": 3523.4375,
      "v": 80
    },
    {
      "midi": 59,
      "hit": false,
      "t": 242400,
      "d": 253.125,
      "v": 90
    },
    {
      "midi": 62,
      "hit": false,
      "t": 242400,
      "d": 254.6875,
      "v": 111
    },
    {
      "midi": 57,
      "hit": false,
      "t": 242400,
      "d": 256.25,
      "v": 80
    },
    {
      "midi": 47,
      "hit": false,
      "t": 242400,
      "d": 257.8125,
      "v": 80
    },
    {
      "midi": 66,
      "hit": false,
      "t": 242400,
      "d": 279.6875,
      "v": 103
    },
    {
      "midi": 47,
      "hit": false,
      "t": 243300,
      "d": 3900,
      "v": 81
    },
    {
      "midi": 52,
      "hit": false,
      "t": 243300,
      "d": 3900,
      "v": 80
    },
    {
      "midi": 57,
      "hit": false,
      "t": 243300,
      "d": 3900,
      "v": 83
    },
    {
      "midi": 59,
      "hit": false,
      "t": 243300,
      "d": 3900,
      "v": 83
    },
    {
      "midi": 61,
      "hit": false,
      "t": 243300,
      "d": 3900,
      "v": 83
    },
    {
      "midi": 66,
      "hit": false,
      "t": 244604.6875,
      "d": 2453.125,
      "v": 67
    },
    {
      "midi": 69,
      "hit": false,
      "t": 244653.125,
      "d": 2403.125,
      "v": 67
    },
    {
      "midi": 71,
      "hit": false,
      "t": 244729.6875,
      "d": 2321.875,
      "v": 72
    },
    {
      "midi": 76,
      "hit": false,
      "t": 244828.125,
      "d": 2226.5625,
      "v": 72
    },
    {
      "midi": 59,
      "hit": false,
      "t": 247200,
      "d": 253.125,
      "v": 90
    },
    {
      "midi": 62,
      "hit": false,
      "t": 247200,
      "d": 254.6875,
      "v": 111
    },
    {
      "midi": 57,
      "hit": false,
      "t": 247200,
      "d": 256.25,
      "v": 80
    },
    {
      "midi": 47,
      "hit": false,
      "t": 247200,
      "d": 257.8125,
      "v": 80
    },
    {
      "midi": 66,
      "hit": false,
      "t": 247200,
      "d": 279.6875,
      "v": 103
    },
    {
      "midi": 62,
      "hit": false,
      "t": 247200,
      "d": 100,
      "v": 80
    },
    {
      "midi": 59,
      "hit": false,
      "t": 247200,
      "d": 126.5625,
      "v": 66
    },
    {
      "midi": 66,
      "hit": false,
      "t": 247200,
      "d": 126.5625,
      "v": 72
    },
    {
      "midi": 47,
      "hit": false,
      "t": 248100,
      "d": 3900,
      "v": 81
    },
    {
      "midi": 52,
      "hit": false,
      "t": 248100,
      "d": 3900,
      "v": 80
    },
    {
      "midi": 57,
      "hit": false,
      "t": 248100,
      "d": 3900,
      "v": 83
    },
    {
      "midi": 59,
      "hit": false,
      "t": 248100,
      "d": 3900,
      "v": 83
    },
    {
      "midi": 61,
      "hit": false,
      "t": 248100,
      "d": 3900,
      "v": 83
    },
    {
      "midi": 61,
      "hit": false,
      "t": 248100,
      "d": 6045.3125,
      "v": 72
    },
    {
      "midi": 64,
      "hit": false,
      "t": 248100,
      "d": 6068.75,
      "v": 65
    },
    {
      "midi": 57,
      "hit": false,
      "t": 248100,
      "d": 6071.875,
      "v": 63
    },
    {
      "midi": 83,
      "hit": false,
      "t": 249607.8125,
      "d": 326.5625,
      "v": 73
    },
    {
      "midi": 85,
      "hit": false,
      "t": 249932.8125,
      "d": 545.3125,
      "v": 83
    },
    {
      "midi": 86,
      "hit": false,
      "t": 250528.125,
      "d": 554.6875,
      "v": 82
    },
    {
      "midi": 88,
      "hit": false,
      "t": 251107.8125,
      "d": 568.75,
      "v": 82
    },
    {
      "midi": 83,
      "hit": false,
      "t": 251703.125,
      "d": 3523.4375,
      "v": 80
    },
    {
      "midi": 59,
      "hit": false,
      "t": 252000,
      "d": 253.125,
      "v": 90
    },
    {
      "midi": 62,
      "hit": false,
      "t": 252000,
      "d": 254.6875,
      "v": 111
    },
    {
      "midi": 57,
      "hit": false,
      "t": 252000,
      "d": 256.25,
      "v": 80
    },
    {
      "midi": 47,
      "hit": false,
      "t": 252000,
      "d": 257.8125,
      "v": 80
    },
    {
      "midi": 66,
      "hit": false,
      "t": 252000,
      "d": 279.6875,
      "v": 103
    },
    {
      "midi": 47,
      "hit": false,
      "t": 252900,
      "d": 3900,
      "v": 81
    },
    {
      "midi": 52,
      "hit": false,
      "t": 252900,
      "d": 3900,
      "v": 80
    },
    {
      "midi": 57,
      "hit": false,
      "t": 252900,
      "d": 3900,
      "v": 83
    },
    {
      "midi": 59,
      "hit": false,
      "t": 252900,
      "d": 3900,
      "v": 83
    },
    {
      "midi": 61,
      "hit": false,
      "t": 252900,
      "d": 3900,
      "v": 83
    },
    {
      "midi": 66,
      "hit": false,
      "t": 254204.6875,
      "d": 2453.125,
      "v": 67
    },
    {
      "midi": 69,
      "hit": false,
      "t": 254253.125,
      "d": 2403.125,
      "v": 67
    },
    {
      "midi": 71,
      "hit": false,
      "t": 254329.6875,
      "d": 2321.875,
      "v": 72
    },
    {
      "midi": 76,
      "hit": false,
      "t": 254428.125,
      "d": 2226.5625,
      "v": 72
    },
    {
      "midi": 59,
      "hit": false,
      "t": 256800,
      "d": 253.125,
      "v": 90
    },
    {
      "midi": 62,
      "hit": false,
      "t": 256800,
      "d": 254.6875,
      "v": 111
    },
    {
      "midi": 57,
      "hit": false,
      "t": 256800,
      "d": 256.25,
      "v": 80
    },
    {
      "midi": 47,
      "hit": false,
      "t": 256800,
      "d": 257.8125,
      "v": 80
    },
    {
      "midi": 66,
      "hit": false,
      "t": 256800,
      "d": 279.6875,
      "v": 103
    },
    {
      "midi": 62,
      "hit": false,
      "t": 256800,
      "d": 100,
      "v": 80
    },
    {
      "midi": 59,
      "hit": false,
      "t": 256800,
      "d": 126.5625,
      "v": 66
    },
    {
      "midi": 66,
      "hit": false,
      "t": 256800,
      "d": 126.5625,
      "v": 72
    },
    {
      "midi": 47,
      "hit": false,
      "t": 257700,
      "d": 3900,
      "v": 81
    },
    {
      "midi": 52,
      "hit": false,
      "t": 257700,
      "d": 3900,
      "v": 80
    },
    {
      "midi": 57,
      "hit": false,
      "t": 257700,
      "d": 3900,
      "v": 83
    },
    {
      "midi": 59,
      "hit": false,
      "t": 257700,
      "d": 3900,
      "v": 83
    },
    {
      "midi": 61,
      "hit": false,
      "t": 257700,
      "d": 3900,
      "v": 83
    },
    {
      "midi": 61,
      "hit": false,
      "t": 257700,
      "d": 6045.3125,
      "v": 72
    },
    {
      "midi": 64,
      "hit": false,
      "t": 257700,
      "d": 6068.75,
      "v": 65
    },
    {
      "midi": 57,
      "hit": false,
      "t": 257700,
      "d": 6071.875,
      "v": 63
    },
    {
      "midi": 83,
      "hit": false,
      "t": 259207.8125,
      "d": 326.5625,
      "v": 73
    },
    {
      "midi": 85,
      "hit": false,
      "t": 259532.8125,
      "d": 545.3125,
      "v": 83
    },
    {
      "midi": 86,
      "hit": false,
      "t": 260128.125,
      "d": 554.6875,
      "v": 82
    },
    {
      "midi": 88,
      "hit": false,
      "t": 260707.8125,
      "d": 568.75,
      "v": 82
    },
    {
      "midi": 83,
      "hit": false,
      "t": 261303.125,
      "d": 3523.4375,
      "v": 80
    },
    {
      "midi": 59,
      "hit": false,
      "t": 261600,
      "d": 253.125,
      "v": 90
    },
    {
      "midi": 62,
      "hit": false,
      "t": 261600,
      "d": 254.6875,
      "v": 111
    },
    {
      "midi": 57,
      "hit": false,
      "t": 261600,
      "d": 256.25,
      "v": 80
    },
    {
      "midi": 47,
      "hit": false,
      "t": 261600,
      "d": 257.8125,
      "v": 80
    },
    {
      "midi": 66,
      "hit": false,
      "t": 261600,
      "d": 279.6875,
      "v": 103
    },
    {
      "midi": 47,
      "hit": false,
      "t": 262500,
      "d": 3900,
      "v": 81
    },
    {
      "midi": 52,
      "hit": false,
      "t": 262500,
      "d": 3900,
      "v": 80
    },
    {
      "midi": 57,
      "hit": false,
      "t": 262500,
      "d": 3900,
      "v": 83
    },
    {
      "midi": 59,
      "hit": false,
      "t": 262500,
      "d": 3900,
      "v": 83
    },
    {
      "midi": 61,
      "hit": false,
      "t": 262500,
      "d": 3900,
      "v": 83
    },
    {
      "midi": 69,
      "hit": false,
      "t": 263551.5625,
      "d": 170.3125,
      "v": 80
    },
    {
      "midi": 73,
      "hit": false,
      "t": 263687.5,
      "d": 170.3125,
      "v": 83
    },
    {
      "midi": 71,
      "hit": false,
      "t": 263842.1875,
      "d": 120.3125,
      "v": 83
    },
    {
      "midi": 64,
      "hit": false,
      "t": 263960.9375,
      "d": 179.6875,
      "v": 73
    },
    {
      "midi": 66,
      "hit": false,
      "t": 264057.8125,
      "d": 257.8125,
      "v": 63
    },
    {
      "midi": 64,
      "hit": false,
      "t": 264314.0625,
      "d": 1628.125,
      "v": 72
    },
    {
      "midi": 59,
      "hit": false,
      "t": 266400,
      "d": 253.125,
      "v": 90
    },
    {
      "midi": 62,
      "hit": false,
      "t": 266400,
      "d": 254.6875,
      "v": 111
    },
    {
      "midi": 57,
      "hit": false,
      "t": 266400,
      "d": 256.25,
      "v": 80
    },
    {
      "midi": 47,
      "hit": false,
      "t": 266400,
      "d": 257.8125,
      "v": 80
    },
    {
      "midi": 66,
      "hit": false,
      "t": 266400,
      "d": 279.6875,
      "v": 103
    },
    {
      "midi": 62,
      "hit": false,
      "t": 266400,
      "d": 100,
      "v": 80
    },
    {
      "midi": 59,
      "hit": false,
      "t": 266400,
      "d": 126.5625,
      "v": 66
    },
    {
      "midi": 66,
      "hit": false,
      "t": 266400,
      "d": 126.5625,
      "v": 72
    },
    {
      "midi": 47,
      "hit": false,
      "t": 267300,
      "d": 3900,
      "v": 81
    },
    {
      "midi": 52,
      "hit": false,
      "t": 267300,
      "d": 3900,
      "v": 80
    },
    {
      "midi": 57,
      "hit": false,
      "t": 267300,
      "d": 3900,
      "v": 83
    },
    {
      "midi": 59,
      "hit": false,
      "t": 267300,
      "d": 3900,
      "v": 83
    },
    {
      "midi": 61,
      "hit": false,
      "t": 267300,
      "d": 3900,
      "v": 83
    },
    {
      "midi": 57,
      "hit": false,
      "t": 267300,
      "d": 9862.5,
      "v": 63
    },
    {
      "midi": 61,
      "hit": false,
      "t": 267300,
      "d": 9862.5,
      "v": 72
    },
    {
      "midi": 64,
      "hit": false,
      "t": 267300,
      "d": 9862.5,
      "v": 65
    },
    {
      "midi": 83,
      "hit": false,
      "t": 268807.8125,
      "d": 326.5625,
      "v": 73
    },
    {
      "midi": 85,
      "hit": false,
      "t": 269132.8125,
      "d": 545.3125,
      "v": 83
    },
    {
      "midi": 86,
      "hit": false,
      "t": 269728.125,
      "d": 554.6875,
      "v": 82
    },
    {
      "midi": 88,
      "hit": false,
      "t": 270307.8125,
      "d": 568.75,
      "v": 82
    },
    {
      "midi": 83,
      "hit": false,
      "t": 270903.125,
      "d": 3523.4375,
      "v": 80
    },
    {
      "midi": 59,
      "hit": false,
      "t": 271200,
      "d": 253.125,
      "v": 90
    },
    {
      "midi": 62,
      "hit": false,
      "t": 271200,
      "d": 254.6875,
      "v": 111
    },
    {
      "midi": 57,
      "hit": false,
      "t": 271200,
      "d": 256.25,
      "v": 80
    },
    {
      "midi": 47,
      "hit": false,
      "t": 271200,
      "d": 257.8125,
      "v": 80
    },
    {
      "midi": 66,
      "hit": false,
      "t": 271200,
      "d": 279.6875,
      "v": 103
    },
    {
      "midi": 47,
      "hit": false,
      "t": 272100,
      "d": 5062.5,
      "v": 81
    },
    {
      "midi": 52,
      "hit": false,
      "t": 272100,
      "d": 5062.5,
      "v": 80
    },
    {
      "midi": 57,
      "hit": false,
      "t": 272100,
      "d": 5062.5,
      "v": 83
    },
    {
      "midi": 59,
      "hit": false,
      "t": 272100,
      "d": 5062.5,
      "v": 83
    },
    {
      "midi": 61,
      "hit": false,
      "t": 272100,
      "d": 5062.5,
      "v": 83
    }
  ]
}