{
  "jsonPath": "Unknown/Unknown/Los Del Mar/el-mueve-mueve-feat-jose-garcia.json",
  "path": "Unknown\\Unknown\\Los Del Mar\\El Mueve Mueve (feat Josè Garcia).mid",
  "name": "El Mueve Mueve (feat Josè Garcia)",
  "difficulty": "Advanced",
  "bpm": 133.0167534600983,
  "notes": [
    {
      "midi": 67,
      "hit": false,
      "t": 18042.84,
      "d": 77.52782812499936,
      "v": 96
    },
    {
      "midi": 72,
      "hit": false,
      "t": 18042.84,
      "d": 103.37043749999793,
      "v": 106
    },
    {
      "midi": 72,
      "hit": false,
      "t": 18155.60775,
      "d": 39.93857812499846,
      "v": 39
    },
    {
      "midi": 63,
      "hit": false,
      "t": 18268.3755,
      "d": 117.46640624999782,
      "v": 127
    },
    {
      "midi": 67,
      "hit": false,
      "t": 18381.143249999997,
      "d": 136.2610312500001,
      "v": 60
    },
    {
      "midi": 75,
      "hit": false,
      "t": 18493.910999999996,
      "d": 166.80229687500105,
      "v": 111
    },
    {
      "midi": 63,
      "hit": false,
      "t": 18719.4465,
      "d": 91.62379687499924,
      "v": 125
    },
    {
      "midi": 67,
      "hit": false,
      "t": 18944.981999999996,
      "d": 79.87715625000055,
      "v": 91
    },
    {
      "midi": 72,
      "hit": false,
      "t": 18944.981999999996,
      "d": 86.9251406250005,
      "v": 70
    },
    {
      "midi": 63,
      "hit": false,
      "t": 19170.517499999998,
      "d": 101.02110937500038,
      "v": 127
    },
    {
      "midi": 67,
      "hit": false,
      "t": 19396.053,
      "d": 180.89826562500093,
      "v": 111
    },
    {
      "midi": 75,
      "hit": false,
      "t": 19396.053,
      "d": 216.13818750000064,
      "v": 119
    },
    {
      "midi": 63,
      "hit": false,
      "t": 19621.5885,
      "d": 56.383874999999534,
      "v": 87
    },
    {
      "midi": 72,
      "hit": false,
      "t": 19847.124,
      "d": 63.431859374999476,
      "v": 126
    },
    {
      "midi": 75,
      "hit": false,
      "t": 19847.124,
      "d": 192.64490624999962,
      "v": 127
    },
    {
      "midi": 68,
      "hit": false,
      "t": 20072.659499999998,
      "d": 110.41842187500151,
      "v": 127
    },
    {
      "midi": 72,
      "hit": false,
      "t": 20185.42725,
      "d": 333.60459374999846,
      "v": 80
    },
    {
      "midi": 77,
      "hit": false,
      "t": 20298.195,
      "d": 265.4740781249966,
      "v": 89
    },
    {
      "midi": 68,
      "hit": false,
      "t": 20523.730499999998,
      "d": 79.87715624999691,
      "v": 122
    },
    {
      "midi": 67,
      "hit": false,
      "t": 20749.265999999996,
      "d": 192.64490624999962,
      "v": 113
    },
    {
      "midi": 71,
      "hit": false,
      "t": 20749.265999999996,
      "d": 249.02878124999916,
      "v": 127
    },
    {
      "midi": 62,
      "hit": false,
      "t": 20974.801499999994,
      "d": 108.06909375000032,
      "v": 117
    },
    {
      "midi": 67,
      "hit": false,
      "t": 21087.569249999993,
      "d": 432.2763750000013,
      "v": 83
    },
    {
      "midi": 74,
      "hit": false,
      "t": 21200.336999999992,
      "d": 232.58348437500172,
      "v": 113
    },
    {
      "midi": 62,
      "hit": false,
      "t": 21425.872499999994,
      "d": 129.21304687500015,
      "v": 117
    },
    {
      "midi": 67,
      "hit": false,
      "t": 21651.407999999996,
      "d": 77.52782812499936,
      "v": 96
    },
    {
      "midi": 72,
      "hit": false,
      "t": 21651.407999999996,
      "d": 103.37043749999793,
      "v": 106
    },
    {
      "midi": 72,
      "hit": false,
      "t": 21764.175749999995,
      "d": 39.93857812499846,
      "v": 39
    },
    {
      "midi": 63,
      "hit": false,
      "t": 21876.943499999994,
      "d": 117.46640624999782,
      "v": 127
    },
    {
      "midi": 67,
      "hit": false,
      "t": 21989.711249999993,
      "d": 136.2610312500001,
      "v": 60
    },
    {
      "midi": 75,
      "hit": false,
      "t": 22102.478999999992,
      "d": 166.80229687500105,
      "v": 111
    },
    {
      "midi": 63,
      "hit": false,
      "t": 22328.014499999994,
      "d": 91.62379687499924,
      "v": 125
    },
    {
      "midi": 67,
      "hit": false,
      "t": 22553.549999999992,
      "d": 79.87715625000055,
      "v": 91
    },
    {
      "midi": 72,
      "hit": false,
      "t": 22553.549999999992,
      "d": 86.9251406250005,
      "v": 70
    },
    {
      "midi": 63,
      "hit": false,
      "t": 22779.085499999994,
      "d": 101.02110937500038,
      "v": 127
    },
    {
      "midi": 67,
      "hit": false,
      "t": 23004.620999999996,
      "d": 180.89826562500093,
      "v": 111
    },
    {
      "midi": 75,
      "hit": false,
      "t": 23004.620999999996,
      "d": 216.13818750000064,
      "v": 119
    },
    {
      "midi": 63,
      "hit": false,
      "t": 23230.156499999997,
      "d": 56.383874999999534,
      "v": 87
    },
    {
      "midi": 72,
      "hit": false,
      "t": 23455.691999999995,
      "d": 63.431859374999476,
      "v": 126
    },
    {
      "midi": 75,
      "hit": false,
      "t": 23455.691999999995,
      "d": 192.64490624999962,
      "v": 127
    },
    {
      "midi": 68,
      "hit": false,
      "t": 23681.227499999994,
      "d": 110.41842187500151,
      "v": 127
    },
    {
      "midi": 72,
      "hit": false,
      "t": 23793.995249999996,
      "d": 333.60459374999846,
      "v": 80
    },
    {
      "midi": 77,
      "hit": false,
      "t": 23906.762999999995,
      "d": 265.4740781249966,
      "v": 89
    },
    {
      "midi": 68,
      "hit": false,
      "t": 24132.298499999994,
      "d": 79.87715624999691,
      "v": 122
    },
    {
      "midi": 67,
      "hit": false,
      "t": 24357.83399999999,
      "d": 192.64490624999962,
      "v": 113
    },
    {
      "midi": 71,
      "hit": false,
      "t": 24357.83399999999,
      "d": 249.02878124999916,
      "v": 127
    },
    {
      "midi": 62,
      "hit": false,
      "t": 24583.36949999999,
      "d": 108.06909375000032,
      "v": 117
    },
    {
      "midi": 67,
      "hit": false,
      "t": 24696.13724999999,
      "d": 432.2763750000013,
      "v": 83
    },
    {
      "midi": 74,
      "hit": false,
      "t": 24808.904999999988,
      "d": 232.58348437500172,
      "v": 113
    },
    {
      "midi": 62,
      "hit": false,
      "t": 25034.44049999999,
      "d": 129.21304687500015,
      "v": 117
    },
    {
      "midi": 67,
      "hit": false,
      "t": 25259.97599999999,
      "d": 77.52782812499936,
      "v": 96
    },
    {
      "midi": 72,
      "hit": false,
      "t": 25259.97599999999,
      "d": 103.37043749999793,
      "v": 106
    },
    {
      "midi": 72,
      "hit": false,
      "t": 25372.74374999999,
      "d": 39.93857812499846,
      "v": 39
    },
    {
      "midi": 63,
      "hit": false,
      "t": 25485.51149999999,
      "d": 117.46640624999782,
      "v": 127
    },
    {
      "midi": 67,
      "hit": false,
      "t": 25598.27924999999,
      "d": 136.2610312500001,
      "v": 60
    },
    {
      "midi": 75,
      "hit": false,
      "t": 25711.046999999988,
      "d": 166.80229687500105,
      "v": 111
    },
    {
      "midi": 63,
      "hit": false,
      "t": 25936.58249999999,
      "d": 91.62379687499924,
      "v": 125
    },
    {
      "midi": 67,
      "hit": false,
      "t": 26162.117999999988,
      "d": 79.87715625000055,
      "v": 91
    },
    {
      "midi": 72,
      "hit": false,
      "t": 26162.117999999988,
      "d": 86.9251406250005,
      "v": 70
    },
    {
      "midi": 63,
      "hit": false,
      "t": 26387.65349999999,
      "d": 101.02110937500038,
      "v": 127
    },
    {
      "midi": 67,
      "hit": false,
      "t": 26613.18899999999,
      "d": 180.89826562500093,
      "v": 111
    },
    {
      "midi": 75,
      "hit": false,
      "t": 26613.18899999999,
      "d": 216.13818750000064,
      "v": 119
    },
    {
      "midi": 63,
      "hit": false,
      "t": 26838.724499999993,
      "d": 56.383874999999534,
      "v": 87
    },
    {
      "midi": 72,
      "hit": false,
      "t": 27064.25999999999,
      "d": 63.431859374999476,
      "v": 126
    },
    {
      "midi": 75,
      "hit": false,
      "t": 27064.25999999999,
      "d": 192.64490624999962,
      "v": 127
    },
    {
      "midi": 68,
      "hit": false,
      "t": 27289.79549999999,
      "d": 110.41842187500151,
      "v": 127
    },
    {
      "midi": 72,
      "hit": false,
      "t": 27402.563249999992,
      "d": 333.60459374999846,
      "v": 80
    },
    {
      "midi": 77,
      "hit": false,
      "t": 27515.33099999999,
      "d": 265.4740781249966,
      "v": 89
    },
    {
      "midi": 68,
      "hit": false,
      "t": 27740.86649999999,
      "d": 79.87715624999691,
      "v": 122
    },
    {
      "midi": 67,
      "hit": false,
      "t": 27966.401999999987,
      "d": 192.64490624999962,
      "v": 113
    },
    {
      "midi": 71,
      "hit": false,
      "t": 27966.401999999987,
      "d": 249.02878124999916,
      "v": 127
    },
    {
      "midi": 62,
      "hit": false,
      "t": 28191.937499999985,
      "d": 108.06909375000032,
      "v": 117
    },
    {
      "midi": 67,
      "hit": false,
      "t": 28304.705249999985,
      "d": 432.2763750000013,
      "v": 83
    },
    {
      "midi": 74,
      "hit": false,
      "t": 28417.472999999984,
      "d": 232.58348437500172,
      "v": 113
    },
    {
      "midi": 62,
      "hit": false,
      "t": 28643.008499999985,
      "d": 129.21304687500015,
      "v": 117
    },
    {
      "midi": 67,
      "hit": false,
      "t": 28868.543999999987,
      "d": 77.52782812499936,
      "v": 96
    },
    {
      "midi": 72,
      "hit": false,
      "t": 28868.543999999987,
      "d": 103.37043749999793,
      "v": 106
    },
    {
      "midi": 72,
      "hit": false,
      "t": 28981.311749999986,
      "d": 39.93857812499846,
      "v": 39
    },
    {
      "midi": 63,
      "hit": false,
      "t": 29094.079499999985,
      "d": 117.46640624999782,
      "v": 127
    },
    {
      "midi": 67,
      "hit": false,
      "t": 29206.847249999984,
      "d": 136.2610312500001,
      "v": 60
    },
    {
      "midi": 75,
      "hit": false,
      "t": 29319.614999999983,
      "d": 166.80229687500105,
      "v": 111
    },
    {
      "midi": 63,
      "hit": false,
      "t": 29545.150499999985,
      "d": 91.62379687499924,
      "v": 125
    },
    {
      "midi": 67,
      "hit": false,
      "t": 29770.685999999983,
      "d": 79.87715625000055,
      "v": 91
    },
    {
      "midi": 72,
      "hit": false,
      "t": 29770.685999999983,
      "d": 86.9251406250005,
      "v": 70
    },
    {
      "midi": 63,
      "hit": false,
      "t": 29996.221499999985,
      "d": 101.02110937500038,
      "v": 127
    },
    {
      "midi": 67,
      "hit": false,
      "t": 30221.756999999987,
      "d": 180.89826562500093,
      "v": 111
    },
    {
      "midi": 75,
      "hit": false,
      "t": 30221.756999999987,
      "d": 216.13818750000064,
      "v": 119
    },
    {
      "midi": 63,
      "hit": false,
      "t": 30447.29249999999,
      "d": 56.383874999999534,
      "v": 87
    },
    {
      "midi": 72,
      "hit": false,
      "t": 30672.827999999987,
      "d": 63.431859374999476,
      "v": 126
    },
    {
      "midi": 75,
      "hit": false,
      "t": 30672.827999999987,
      "d": 192.64490624999962,
      "v": 127
    },
    {
      "midi": 68,
      "hit": false,
      "t": 30898.363499999985,
      "d": 110.41842187500151,
      "v": 127
    },
    {
      "midi": 72,
      "hit": false,
      "t": 31011.131249999988,
      "d": 333.60459374999846,
      "v": 80
    },
    {
      "midi": 77,
      "hit": false,
      "t": 31123.898999999987,
      "d": 265.4740781249966,
      "v": 89
    },
    {
      "midi": 68,
      "hit": false,
      "t": 31349.434499999985,
      "d": 79.87715624999691,
      "v": 122
    },
    {
      "midi": 67,
      "hit": false,
      "t": 31574.969999999983,
      "d": 192.64490624999962,
      "v": 113
    },
    {
      "midi": 71,
      "hit": false,
      "t": 31574.969999999983,
      "d": 249.02878124999916,
      "v": 127
    },
    {
      "midi": 62,
      "hit": false,
      "t": 31800.50549999998,
      "d": 108.06909375000032,
      "v": 117
    },
    {
      "midi": 67,
      "hit": false,
      "t": 31913.27324999998,
      "d": 432.2763750000013,
      "v": 83
    },
    {
      "midi": 74,
      "hit": false,
      "t": 32026.04099999998,
      "d": 232.58348437500172,
      "v": 113
    },
    {
      "midi": 62,
      "hit": false,
      "t": 32251.57649999998,
      "d": 129.21304687500015,
      "v": 117
    },
    {
      "midi": 67,
      "hit": false,
      "t": 32477.111999999983,
      "d": 77.52782812499936,
      "v": 96
    },
    {
      "midi": 72,
      "hit": false,
      "t": 32477.111999999983,
      "d": 103.37043749999793,
      "v": 106
    },
    {
      "midi": 72,
      "hit": false,
      "t": 32589.879749999982,
      "d": 39.93857812499846,
      "v": 39
    },
    {
      "midi": 63,
      "hit": false,
      "t": 32702.64749999998,
      "d": 117.4664062500051,
      "v": 127
    },
    {
      "midi": 67,
      "hit": false,
      "t": 32815.415249999984,
      "d": 136.26103124999645,
      "v": 60
    },
    {
      "midi": 75,
      "hit": false,
      "t": 32928.18299999998,
      "d": 166.80229687499377,
      "v": 111
    },
    {
      "midi": 63,
      "hit": false,
      "t": 33153.71849999997,
      "d": 91.62379687499924,
      "v": 125
    },
    {
      "midi": 67,
      "hit": false,
      "t": 33379.25399999997,
      "d": 79.87715624999691,
      "v": 91
    },
    {
      "midi": 72,
      "hit": false,
      "t": 33379.25399999997,
      "d": 86.92514062499686,
      "v": 70
    },
    {
      "midi": 63,
      "hit": false,
      "t": 33604.78949999997,
      "d": 101.02110937499674,
      "v": 127
    },
    {
      "midi": 67,
      "hit": false,
      "t": 33830.32499999997,
      "d": 180.89826562500093,
      "v": 111
    },
    {
      "midi": 75,
      "hit": false,
      "t": 33830.32499999997,
      "d": 216.13818750000064,
      "v": 119
    },
    {
      "midi": 63,
      "hit": false,
      "t": 34055.860499999966,
      "d": 56.383874999999534,
      "v": 87
    },
    {
      "midi": 72,
      "hit": false,
      "t": 34281.395999999964,
      "d": 63.431859374999476,
      "v": 126
    },
    {
      "midi": 75,
      "hit": false,
      "t": 34281.395999999964,
      "d": 192.64490624999598,
      "v": 127
    },
    {
      "midi": 68,
      "hit": false,
      "t": 34506.93149999996,
      "d": 110.41842187500151,
      "v": 127
    },
    {
      "midi": 72,
      "hit": false,
      "t": 34619.69924999996,
      "d": 333.6045937500021,
      "v": 80
    },
    {
      "midi": 77,
      "hit": false,
      "t": 34732.46699999996,
      "d": 265.4740781250075,
      "v": 89
    },
    {
      "midi": 68,
      "hit": false,
      "t": 34958.002499999966,
      "d": 79.87715625000419,
      "v": 122
    },
    {
      "midi": 67,
      "hit": false,
      "t": 35183.53799999997,
      "d": 192.64490625000326,
      "v": 113
    },
    {
      "midi": 71,
      "hit": false,
      "t": 35183.53799999997,
      "d": 249.0287812500028,
      "v": 127
    },
    {
      "midi": 62,
      "hit": false,
      "t": 35409.07349999998,
      "d": 108.06909374999668,
      "v": 117
    },
    {
      "midi": 67,
      "hit": false,
      "t": 35521.841249999976,
      "d": 432.276374999994,
      "v": 83
    },
    {
      "midi": 74,
      "hit": false,
      "t": 35634.608999999975,
      "d": 232.58348437499808,
      "v": 113
    },
    {
      "midi": 62,
      "hit": false,
      "t": 35860.14449999997,
      "d": 129.2130468749965,
      "v": 117
    },
    {
      "midi": 67,
      "hit": false,
      "t": 36085.67999999997,
      "d": 77.52782812499936,
      "v": 96
    },
    {
      "midi": 72,
      "hit": false,
      "t": 36085.67999999997,
      "d": 103.37043750000157,
      "v": 106
    },
    {
      "midi": 72,
      "hit": false,
      "t": 36198.44774999997,
      "d": 39.938578125002095,
      "v": 39
    },
    {
      "midi": 63,
      "hit": false,
      "t": 36311.21549999997,
      "d": 117.46640625000146,
      "v": 127
    },
    {
      "midi": 67,
      "hit": false,
      "t": 36423.98324999997,
      "d": 136.26103124999645,
      "v": 60
    },
    {
      "midi": 75,
      "hit": false,
      "t": 36536.75099999997,
      "d": 166.80229687499377,
      "v": 111
    },
    {
      "midi": 63,
      "hit": false,
      "t": 36762.28649999996,
      "d": 91.62379687499924,
      "v": 125
    },
    {
      "midi": 67,
      "hit": false,
      "t": 36987.82199999996,
      "d": 79.87715624999691,
      "v": 91
    },
    {
      "midi": 72,
      "hit": false,
      "t": 36987.82199999996,
      "d": 86.92514062499686,
      "v": 70
    },
    {
      "midi": 63,
      "hit": false,
      "t": 37213.357499999955,
      "d": 101.02110937499674,
      "v": 127
    },
    {
      "midi": 67,
      "hit": false,
      "t": 37438.89299999995,
      "d": 180.89826562500093,
      "v": 111
    },
    {
      "midi": 75,
      "hit": false,
      "t": 37438.89299999995,
      "d": 216.13818750000064,
      "v": 119
    },
    {
      "midi": 63,
      "hit": false,
      "t": 37664.42849999995,
      "d": 56.383874999999534,
      "v": 87
    },
    {
      "midi": 72,
      "hit": false,
      "t": 37889.96399999995,
      "d": 63.431859374999476,
      "v": 126
    },
    {
      "midi": 75,
      "hit": false,
      "t": 37889.96399999995,
      "d": 192.64490624999598,
      "v": 127
    },
    {
      "midi": 68,
      "hit": false,
      "t": 38115.49949999995,
      "d": 110.41842187500151,
      "v": 127
    },
    {
      "midi": 72,
      "hit": false,
      "t": 38228.267249999946,
      "d": 333.6045937500021,
      "v": 80
    },
    {
      "midi": 77,
      "hit": false,
      "t": 38341.034999999945,
      "d": 265.4740781250075,
      "v": 89
    },
    {
      "midi": 68,
      "hit": false,
      "t": 38566.57049999995,
      "d": 79.87715625000419,
      "v": 122
    },
    {
      "midi": 67,
      "hit": false,
      "t": 38792.105999999956,
      "d": 192.64490625000326,
      "v": 113
    },
    {
      "midi": 71,
      "hit": false,
      "t": 38792.105999999956,
      "d": 249.0287812500028,
      "v": 127
    },
    {
      "midi": 62,
      "hit": false,
      "t": 39017.64149999996,
      "d": 108.06909374999668,
      "v": 117
    },
    {
      "midi": 67,
      "hit": false,
      "t": 39130.40924999996,
      "d": 432.276374999994,
      "v": 83
    },
    {
      "midi": 74,
      "hit": false,
      "t": 39243.17699999996,
      "d": 232.58348437499808,
      "v": 113
    },
    {
      "midi": 62,
      "hit": false,
      "t": 39468.71249999996,
      "d": 129.2130468749965,
      "v": 117
    },
    {
      "midi": 67,
      "hit": false,
      "t": 39694.247999999956,
      "d": 77.52782812499936,
      "v": 96
    },
    {
      "midi": 72,
      "hit": false,
      "t": 39694.247999999956,
      "d": 103.37043750000157,
      "v": 106
    },
    {
      "midi": 72,
      "hit": false,
      "t": 39807.015749999955,
      "d": 39.938578125002095,
      "v": 39
    },
    {
      "midi": 63,
      "hit": false,
      "t": 39919.783499999954,
      "d": 117.46640625000146,
      "v": 127
    },
    {
      "midi": 67,
      "hit": false,
      "t": 40032.55124999995,
      "d": 136.26103124999645,
      "v": 60
    },
    {
      "midi": 75,
      "hit": false,
      "t": 40145.31899999995,
      "d": 166.80229687499377,
      "v": 111
    },
    {
      "midi": 63,
      "hit": false,
      "t": 40370.85449999994,
      "d": 91.62379687499924,
      "v": 125
    },
    {
      "midi": 67,
      "hit": false,
      "t": 40596.38999999994,
      "d": 79.87715624999691,
      "v": 91
    },
    {
      "midi": 72,
      "hit": false,
      "t": 40596.38999999994,
      "d": 86.92514062499686,
      "v": 70
    },
    {
      "midi": 63,
      "hit": false,
      "t": 40821.92549999994,
      "d": 101.02110937499674,
      "v": 127
    },
    {
      "midi": 67,
      "hit": false,
      "t": 41047.46099999994,
      "d": 180.89826562500093,
      "v": 111
    },
    {
      "midi": 75,
      "hit": false,
      "t": 41047.46099999994,
      "d": 216.13818750000064,
      "v": 119
    },
    {
      "midi": 63,
      "hit": false,
      "t": 41272.996499999936,
      "d": 56.383874999999534,
      "v": 87
    },
    {
      "midi": 72,
      "hit": false,
      "t": 41498.531999999934,
      "d": 63.431859374999476,
      "v": 126
    },
    {
      "midi": 75,
      "hit": false,
      "t": 41498.531999999934,
      "d": 192.64490624999598,
      "v": 127
    },
    {
      "midi": 68,
      "hit": false,
      "t": 41724.06749999993,
      "d": 110.41842187500151,
      "v": 127
    },
    {
      "midi": 72,
      "hit": false,
      "t": 41836.83524999993,
      "d": 333.6045937500021,
      "v": 80
    },
    {
      "midi": 77,
      "hit": false,
      "t": 41949.60299999993,
      "d": 265.4740781250075,
      "v": 89
    },
    {
      "midi": 68,
      "hit": false,
      "t": 42175.138499999935,
      "d": 79.87715625000419,
      "v": 122
    },
    {
      "midi": 67,
      "hit": false,
      "t": 42400.67399999994,
      "d": 192.64490625000326,
      "v": 113
    },
    {
      "midi": 71,
      "hit": false,
      "t": 42400.67399999994,
      "d": 249.0287812500028,
      "v": 127
    },
    {
      "midi": 62,
      "hit": false,
      "t": 42626.209499999946,
      "d": 108.06909374999668,
      "v": 117
    },
    {
      "midi": 67,
      "hit": false,
      "t": 42738.977249999945,
      "d": 432.276374999994,
      "v": 83
    },
    {
      "midi": 74,
      "hit": false,
      "t": 42851.744999999944,
      "d": 232.58348437499808,
      "v": 113
    },
    {
      "midi": 62,
      "hit": false,
      "t": 43077.28049999994,
      "d": 129.2130468749965,
      "v": 117
    },
    {
      "midi": 67,
      "hit": false,
      "t": 43302.81599999994,
      "d": 77.52782812499936,
      "v": 96
    },
    {
      "midi": 72,
      "hit": false,
      "t": 43302.81599999994,
      "d": 103.37043750000157,
      "v": 106
    },
    {
      "midi": 72,
      "hit": false,
      "t": 43415.58374999994,
      "d": 39.938578125002095,
      "v": 39
    },
    {
      "midi": 63,
      "hit": false,
      "t": 43528.35149999994,
      "d": 117.46640625000146,
      "v": 127
    },
    {
      "midi": 67,
      "hit": false,
      "t": 43641.11924999994,
      "d": 136.26103124999645,
      "v": 60
    },
    {
      "midi": 75,
      "hit": false,
      "t": 43753.88699999994,
      "d": 166.80229687499377,
      "v": 111
    },
    {
      "midi": 63,
      "hit": false,
      "t": 43979.42249999993,
      "d": 91.62379687499924,
      "v": 125
    },
    {
      "midi": 67,
      "hit": false,
      "t": 44204.957999999926,
      "d": 79.87715624999691,
      "v": 91
    },
    {
      "midi": 72,
      "hit": false,
      "t": 44204.957999999926,
      "d": 86.92514062499686,
      "v": 70
    },
    {
      "midi": 63,
      "hit": false,
      "t": 44430.493499999924,
      "d": 101.02110937499674,
      "v": 127
    },
    {
      "midi": 67,
      "hit": false,
      "t": 44656.02899999992,
      "d": 180.89826562500093,
      "v": 111
    },
    {
      "midi": 75,
      "hit": false,
      "t": 44656.02899999992,
      "d": 216.13818750000064,
      "v": 119
    },
    {
      "midi": 63,
      "hit": false,
      "t": 44881.56449999992,
      "d": 56.383874999999534,
      "v": 87
    },
    {
      "midi": 72,
      "hit": false,
      "t": 45107.09999999992,
      "d": 63.431859374999476,
      "v": 126
    },
    {
      "midi": 75,
      "hit": false,
      "t": 45107.09999999992,
      "d": 192.64490624999598,
      "v": 127
    },
    {
      "midi": 68,
      "hit": false,
      "t": 45332.63549999992,
      "d": 110.41842187500151,
      "v": 127
    },
    {
      "midi": 72,
      "hit": false,
      "t": 45445.403249999916,
      "d": 333.6045937500021,
      "v": 80
    },
    {
      "midi": 77,
      "hit": false,
      "t": 45558.170999999915,
      "d": 265.4740781250075,
      "v": 89
    },
    {
      "midi": 68,
      "hit": false,
      "t": 45783.70649999992,
      "d": 79.87715625000419,
      "v": 122
    },
    {
      "midi": 67,
      "hit": false,
      "t": 46009.241999999926,
      "d": 192.64490625000326,
      "v": 113
    },
    {
      "midi": 71,
      "hit": false,
      "t": 46009.241999999926,
      "d": 249.0287812500028,
      "v": 127
    },
    {
      "midi": 62,
      "hit": false,
      "t": 46234.77749999993,
      "d": 108.06909374999668,
      "v": 117
    },
    {
      "midi": 67,
      "hit": false,
      "t": 46347.54524999993,
      "d": 432.276374999994,
      "v": 83
    },
    {
      "midi": 74,
      "hit": false,
      "t": 46460.31299999993,
      "d": 232.58348437499808,
      "v": 113
    },
    {
      "midi": 62,
      "hit": false,
      "t": 46685.84849999993,
      "d": 129.2130468749965,
      "v": 117
    },
    {
      "midi": 67,
      "hit": false,
      "t": 46911.383999999925,
      "d": 77.52782812499936,
      "v": 96
    },
    {
      "midi": 72,
      "hit": false,
      "t": 46911.383999999925,
      "d": 103.37043750000157,
      "v": 106
    },
    {
      "midi": 72,
      "hit": false,
      "t": 47024.151749999925,
      "d": 39.938578125002095,
      "v": 39
    },
    {
      "midi": 63,
      "hit": false,
      "t": 47136.91949999992,
      "d": 117.46640625000146,
      "v": 127
    },
    {
      "midi": 67,
      "hit": false,
      "t": 47249.68724999992,
      "d": 136.26103124999645,
      "v": 60
    },
    {
      "midi": 75,
      "hit": false,
      "t": 47362.45499999992,
      "d": 166.80229687499377,
      "v": 111
    },
    {
      "midi": 63,
      "hit": false,
      "t": 47587.99049999991,
      "d": 91.62379687499924,
      "v": 125
    },
    {
      "midi": 67,
      "hit": false,
      "t": 47813.52599999991,
      "d": 79.87715624999691,
      "v": 91
    },
    {
      "midi": 72,
      "hit": false,
      "t": 47813.52599999991,
      "d": 86.92514062499686,
      "v": 70
    },
    {
      "midi": 63,
      "hit": false,
      "t": 48039.06149999991,
      "d": 101.02110937499674,
      "v": 127
    },
    {
      "midi": 67,
      "hit": false,
      "t": 48264.59699999991,
      "d": 180.89826562500093,
      "v": 111
    },
    {
      "midi": 75,
      "hit": false,
      "t": 48264.59699999991,
      "d": 216.13818750000064,
      "v": 119
    },
    {
      "midi": 63,
      "hit": false,
      "t": 48490.132499999905,
      "d": 56.383874999999534,
      "v": 87
    },
    {
      "midi": 72,
      "hit": false,
      "t": 48715.6679999999,
      "d": 63.431859374999476,
      "v": 126
    },
    {
      "midi": 75,
      "hit": false,
      "t": 48715.6679999999,
      "d": 192.64490624999598,
      "v": 127
    },
    {
      "midi": 68,
      "hit": false,
      "t": 48941.2034999999,
      "d": 110.41842187500151,
      "v": 127
    },
    {
      "midi": 72,
      "hit": false,
      "t": 49053.9712499999,
      "d": 333.6045937500021,
      "v": 80
    },
    {
      "midi": 77,
      "hit": false,
      "t": 49166.7389999999,
      "d": 265.4740781250075,
      "v": 89
    },
    {
      "midi": 68,
      "hit": false,
      "t": 49392.274499999905,
      "d": 79.87715625000419,
      "v": 122
    },
    {
      "midi": 67,
      "hit": false,
      "t": 49617.80999999991,
      "d": 192.64490625000326,
      "v": 113
    },
    {
      "midi": 71,
      "hit": false,
      "t": 49617.80999999991,
      "d": 249.0287812500028,
      "v": 127
    },
    {
      "midi": 62,
      "hit": false,
      "t": 49843.345499999916,
      "d": 108.06909374999668,
      "v": 117
    },
    {
      "midi": 67,
      "hit": false,
      "t": 49956.113249999915,
      "d": 432.276374999994,
      "v": 83
    },
    {
      "midi": 74,
      "hit": false,
      "t": 50068.880999999914,
      "d": 232.58348437499808,
      "v": 113
    },
    {
      "midi": 62,
      "hit": false,
      "t": 50294.41649999991,
      "d": 129.2130468749965,
      "v": 117
    },
    {
      "midi": 67,
      "hit": false,
      "t": 50519.95199999991,
      "d": 77.52782812499936,
      "v": 96
    },
    {
      "midi": 72,
      "hit": false,
      "t": 50519.95199999991,
      "d": 103.37043750000157,
      "v": 106
    },
    {
      "midi": 72,
      "hit": false,
      "t": 50632.71974999991,
      "d": 39.938578125002095,
      "v": 39
    },
    {
      "midi": 63,
      "hit": false,
      "t": 50745.48749999991,
      "d": 117.46640625000146,
      "v": 127
    },
    {
      "midi": 67,
      "hit": false,
      "t": 50858.25524999991,
      "d": 136.26103124999645,
      "v": 60
    },
    {
      "midi": 75,
      "hit": false,
      "t": 50971.02299999991,
      "d": 166.80229687499377,
      "v": 111
    },
    {
      "midi": 63,
      "hit": false,
      "t": 51196.5584999999,
      "d": 91.62379687499924,
      "v": 125
    },
    {
      "midi": 67,
      "hit": false,
      "t": 51422.093999999895,
      "d": 79.87715624999691,
      "v": 91
    },
    {
      "midi": 72,
      "hit": false,
      "t": 51422.093999999895,
      "d": 86.92514062499686,
      "v": 70
    },
    {
      "midi": 63,
      "hit": false,
      "t": 51647.62949999989,
      "d": 101.02110937499674,
      "v": 127
    },
    {
      "midi": 67,
      "hit": false,
      "t": 51873.16499999989,
      "d": 180.89826562500093,
      "v": 111
    },
    {
      "midi": 75,
      "hit": false,
      "t": 51873.16499999989,
      "d": 216.13818750000064,
      "v": 119
    },
    {
      "midi": 63,
      "hit": false,
      "t": 52098.70049999989,
      "d": 56.383874999999534,
      "v": 87
    },
    {
      "midi": 72,
      "hit": false,
      "t": 52324.23599999989,
      "d": 63.431859374999476,
      "v": 126
    },
    {
      "midi": 75,
      "hit": false,
      "t": 52324.23599999989,
      "d": 192.64490624999598,
      "v": 127
    },
    {
      "midi": 68,
      "hit": false,
      "t": 52549.771499999886,
      "d": 110.41842187500151,
      "v": 127
    },
    {
      "midi": 72,
      "hit": false,
      "t": 52662.539249999885,
      "d": 333.6045937500021,
      "v": 80
    },
    {
      "midi": 77,
      "hit": false,
      "t": 52775.306999999884,
      "d": 265.4740781250075,
      "v": 89
    },
    {
      "midi": 68,
      "hit": false,
      "t": 53000.84249999989,
      "d": 79.87715625000419,
      "v": 122
    },
    {
      "midi": 67,
      "hit": false,
      "t": 53226.377999999895,
      "d": 192.64490625000326,
      "v": 113
    },
    {
      "midi": 71,
      "hit": false,
      "t": 53226.377999999895,
      "d": 249.0287812500028,
      "v": 127
    },
    {
      "midi": 62,
      "hit": false,
      "t": 53451.9134999999,
      "d": 108.06909374999668,
      "v": 117
    },
    {
      "midi": 67,
      "hit": false,
      "t": 53564.6812499999,
      "d": 432.276374999994,
      "v": 83
    },
    {
      "midi": 74,
      "hit": false,
      "t": 53677.4489999999,
      "d": 232.58348437499808,
      "v": 113
    },
    {
      "midi": 62,
      "hit": false,
      "t": 53902.9844999999,
      "d": 129.2130468749965,
      "v": 117
    },
    {
      "midi": 67,
      "hit": false,
      "t": 54128.519999999895,
      "d": 77.52782812499936,
      "v": 96
    },
    {
      "midi": 72,
      "hit": false,
      "t": 54128.519999999895,
      "d": 103.37043750000157,
      "v": 106
    },
    {
      "midi": 72,
      "hit": false,
      "t": 54241.287749999894,
      "d": 39.938578125002095,
      "v": 39
    },
    {
      "midi": 63,
      "hit": false,
      "t": 54354.05549999989,
      "d": 117.46640625000146,
      "v": 127
    },
    {
      "midi": 67,
      "hit": false,
      "t": 54466.82324999989,
      "d": 136.26103124999645,
      "v": 60
    },
    {
      "midi": 75,
      "hit": false,
      "t": 54579.59099999989,
      "d": 166.80229687499377,
      "v": 111
    },
    {
      "midi": 63,
      "hit": false,
      "t": 54805.12649999988,
      "d": 91.62379687499924,
      "v": 125
    },
    {
      "midi": 67,
      "hit": false,
      "t": 55030.66199999988,
      "d": 79.87715624999691,
      "v": 91
    },
    {
      "midi": 72,
      "hit": false,
      "t": 55030.66199999988,
      "d": 86.92514062499686,
      "v": 70
    },
    {
      "midi": 63,
      "hit": false,
      "t": 55256.19749999988,
      "d": 101.02110937499674,
      "v": 127
    },
    {
      "midi": 67,
      "hit": false,
      "t": 55481.73299999988,
      "d": 180.89826562500093,
      "v": 111
    },
    {
      "midi": 75,
      "hit": false,
      "t": 55481.73299999988,
      "d": 216.13818750000064,
      "v": 119
    },
    {
      "midi": 63,
      "hit": false,
      "t": 55707.268499999875,
      "d": 56.383874999999534,
      "v": 87
    },
    {
      "midi": 72,
      "hit": false,
      "t": 55932.80399999987,
      "d": 63.431859374999476,
      "v": 126
    },
    {
      "midi": 75,
      "hit": false,
      "t": 55932.80399999987,
      "d": 192.64490624999598,
      "v": 127
    },
    {
      "midi": 68,
      "hit": false,
      "t": 56158.33949999987,
      "d": 110.41842187500151,
      "v": 127
    },
    {
      "midi": 72,
      "hit": false,
      "t": 56271.10724999987,
      "d": 333.6045937500021,
      "v": 80
    },
    {
      "midi": 77,
      "hit": false,
      "t": 56383.87499999987,
      "d": 265.4740781250075,
      "v": 89
    },
    {
      "midi": 68,
      "hit": false,
      "t": 56609.410499999874,
      "d": 79.87715625000419,
      "v": 122
    },
    {
      "midi": 67,
      "hit": false,
      "t": 56834.94599999988,
      "d": 192.64490625000326,
      "v": 113
    },
    {
      "midi": 71,
      "hit": false,
      "t": 56834.94599999988,
      "d": 249.0287812500028,
      "v": 127
    },
    {
      "midi": 62,
      "hit": false,
      "t": 57060.481499999885,
      "d": 108.06909374999668,
      "v": 117
    },
    {
      "midi": 67,
      "hit": false,
      "t": 57173.249249999884,
      "d": 432.276374999994,
      "v": 83
    },
    {
      "midi": 74,
      "hit": false,
      "t": 57286.01699999988,
      "d": 232.58348437499808,
      "v": 113
    },
    {
      "midi": 62,
      "hit": false,
      "t": 57511.55249999988,
      "d": 129.2130468749965,
      "v": 117
    },
    {
      "midi": 67,
      "hit": false,
      "t": 57737.08799999988,
      "d": 77.52782812499936,
      "v": 96
    },
    {
      "midi": 72,
      "hit": false,
      "t": 57737.08799999988,
      "d": 103.37043750000157,
      "v": 106
    },
    {
      "midi": 72,
      "hit": false,
      "t": 57849.85574999988,
      "d": 39.938578125002095,
      "v": 39
    },
    {
      "midi": 63,
      "hit": false,
      "t": 57962.62349999988,
      "d": 117.46640625000146,
      "v": 127
    },
    {
      "midi": 67,
      "hit": false,
      "t": 58075.39124999988,
      "d": 136.26103124999645,
      "v": 60
    },
    {
      "midi": 75,
      "hit": false,
      "t": 58188.158999999876,
      "d": 166.80229687499377,
      "v": 111
    },
    {
      "midi": 63,
      "hit": false,
      "t": 58413.69449999987,
      "d": 91.62379687499924,
      "v": 125
    },
    {
      "midi": 67,
      "hit": false,
      "t": 58639.229999999865,
      "d": 79.87715624999691,
      "v": 91
    },
    {
      "midi": 72,
      "hit": false,
      "t": 58639.229999999865,
      "d": 86.92514062499686,
      "v": 70
    },
    {
      "midi": 63,
      "hit": false,
      "t": 58864.76549999986,
      "d": 101.02110937499674,
      "v": 127
    },
    {
      "midi": 67,
      "hit": false,
      "t": 59090.30099999986,
      "d": 180.89826562500093,
      "v": 111
    },
    {
      "midi": 75,
      "hit": false,
      "t": 59090.30099999986,
      "d": 216.13818750000064,
      "v": 119
    },
    {
      "midi": 63,
      "hit": false,
      "t": 59315.83649999986,
      "d": 56.383874999999534,
      "v": 87
    },
    {
      "midi": 72,
      "hit": false,
      "t": 59541.37199999986,
      "d": 63.431859374999476,
      "v": 126
    },
    {
      "midi": 75,
      "hit": false,
      "t": 59541.37199999986,
      "d": 192.64490624999598,
      "v": 127
    },
    {
      "midi": 68,
      "hit": false,
      "t": 59766.907499999856,
      "d": 110.41842187500151,
      "v": 127
    },
    {
      "midi": 72,
      "hit": false,
      "t": 59879.675249999855,
      "d": 333.6045937500021,
      "v": 80
    },
    {
      "midi": 77,
      "hit": false,
      "t": 59992.442999999854,
      "d": 265.4740781250075,
      "v": 89
    },
    {
      "midi": 68,
      "hit": false,
      "t": 60217.97849999986,
      "d": 79.87715625000419,
      "v": 122
    },
    {
      "midi": 67,
      "hit": false,
      "t": 60443.513999999865,
      "d": 192.64490625000326,
      "v": 113
    },
    {
      "midi": 71,
      "hit": false,
      "t": 60443.513999999865,
      "d": 249.0287812500028,
      "v": 127
    },
    {
      "midi": 62,
      "hit": false,
      "t": 60669.04949999987,
      "d": 108.06909374999668,
      "v": 117
    },
    {
      "midi": 67,
      "hit": false,
      "t": 60781.81724999987,
      "d": 432.276374999994,
      "v": 83
    },
    {
      "midi": 74,
      "hit": false,
      "t": 60894.58499999987,
      "d": 232.58348437499808,
      "v": 113
    },
    {
      "midi": 62,
      "hit": false,
      "t": 61120.120499999866,
      "d": 129.2130468749965,
      "v": 117
    },
    {
      "midi": 67,
      "hit": false,
      "t": 82997.06399999987,
      "d": 77.52782812500664,
      "v": 96
    },
    {
      "midi": 72,
      "hit": false,
      "t": 82997.06399999987,
      "d": 103.37043750000885,
      "v": 106
    },
    {
      "midi": 72,
      "hit": false,
      "t": 83109.83174999988,
      "d": 39.938578125002095,
      "v": 39
    },
    {
      "midi": 63,
      "hit": false,
      "t": 83222.59949999988,
      "d": 117.46640624999418,
      "v": 127
    },
    {
      "midi": 67,
      "hit": false,
      "t": 83335.36724999988,
      "d": 136.26103125000373,
      "v": 60
    },
    {
      "midi": 75,
      "hit": false,
      "t": 83448.13499999988,
      "d": 166.80229687500105,
      "v": 111
    },
    {
      "midi": 63,
      "hit": false,
      "t": 83673.67049999988,
      "d": 91.62379687500652,
      "v": 125
    },
    {
      "midi": 67,
      "hit": false,
      "t": 83899.20599999989,
      "d": 79.87715625000419,
      "v": 91
    },
    {
      "midi": 72,
      "hit": false,
      "t": 83899.20599999989,
      "d": 86.92514062501141,
      "v": 70
    },
    {
      "midi": 63,
      "hit": false,
      "t": 84124.7414999999,
      "d": 101.02110937499674,
      "v": 127
    },
    {
      "midi": 67,
      "hit": false,
      "t": 84350.2769999999,
      "d": 180.89826562500093,
      "v": 111
    },
    {
      "midi": 75,
      "hit": false,
      "t": 84350.2769999999,
      "d": 216.13818750000792,
      "v": 119
    },
    {
      "midi": 63,
      "hit": false,
      "t": 84575.81249999991,
      "d": 56.383874999999534,
      "v": 87
    },
    {
      "midi": 72,
      "hit": false,
      "t": 84801.34799999991,
      "d": 63.43185937500675,
      "v": 126
    },
    {
      "midi": 75,
      "hit": false,
      "t": 84801.34799999991,
      "d": 192.64490625000326,
      "v": 127
    },
    {
      "midi": 68,
      "hit": false,
      "t": 85026.88349999991,
      "d": 110.41842187500151,
      "v": 127
    },
    {
      "midi": 72,
      "hit": false,
      "t": 85139.65124999991,
      "d": 333.6045937500021,
      "v": 80
    },
    {
      "midi": 77,
      "hit": false,
      "t": 85252.4189999999,
      "d": 265.47407812500023,
      "v": 89
    },
    {
      "midi": 68,
      "hit": false,
      "t": 85477.9544999999,
      "d": 79.87715625000419,
      "v": 122
    },
    {
      "midi": 67,
      "hit": false,
      "t": 85703.4899999999,
      "d": 192.64490625000326,
      "v": 113
    },
    {
      "midi": 71,
      "hit": false,
      "t": 85703.4899999999,
      "d": 249.0287812500028,
      "v": 127
    },
    {
      "midi": 62,
      "hit": false,
      "t": 85929.0254999999,
      "d": 108.06909375000396,
      "v": 117
    },
    {
      "midi": 67,
      "hit": false,
      "t": 86041.7932499999,
      "d": 432.2763750000013,
      "v": 83
    },
    {
      "midi": 74,
      "hit": false,
      "t": 86154.5609999999,
      "d": 232.58348437500536,
      "v": 113
    },
    {
      "midi": 62,
      "hit": false,
      "t": 86380.0964999999,
      "d": 129.21304687501106,
      "v": 117
    },
    {
      "midi": 67,
      "hit": false,
      "t": 86605.63199999991,
      "d": 77.52782812500664,
      "v": 96
    },
    {
      "midi": 72,
      "hit": false,
      "t": 86605.63199999991,
      "d": 103.37043750000885,
      "v": 106
    },
    {
      "midi": 72,
      "hit": false,
      "t": 86718.39974999992,
      "d": 39.938578125002095,
      "v": 39
    },
    {
      "midi": 63,
      "hit": false,
      "t": 86831.16749999992,
      "d": 117.46640624999418,
      "v": 127
    },
    {
      "midi": 67,
      "hit": false,
      "t": 86943.93524999992,
      "d": 136.26103125000373,
      "v": 60
    },
    {
      "midi": 75,
      "hit": false,
      "t": 87056.70299999992,
      "d": 166.80229687500105,
      "v": 111
    },
    {
      "midi": 63,
      "hit": false,
      "t": 87282.23849999992,
      "d": 91.62379687500652,
      "v": 125
    },
    {
      "midi": 67,
      "hit": false,
      "t": 87507.77399999993,
      "d": 79.87715625000419,
      "v": 91
    },
    {
      "midi": 72,
      "hit": false,
      "t": 87507.77399999993,
      "d": 86.92514062501141,
      "v": 70
    },
    {
      "midi": 63,
      "hit": false,
      "t": 87733.30949999994,
      "d": 101.02110937499674,
      "v": 127
    },
    {
      "midi": 67,
      "hit": false,
      "t": 87958.84499999994,
      "d": 180.89826562500093,
      "v": 111
    },
    {
      "midi": 75,
      "hit": false,
      "t": 87958.84499999994,
      "d": 216.13818750000792,
      "v": 119
    },
    {
      "midi": 63,
      "hit": false,
      "t": 88184.38049999996,
      "d": 56.383874999999534,
      "v": 87
    },
    {
      "midi": 72,
      "hit": false,
      "t": 88409.91599999995,
      "d": 63.43185937500675,
      "v": 126
    },
    {
      "midi": 75,
      "hit": false,
      "t": 88409.91599999995,
      "d": 192.64490625000326,
      "v": 127
    },
    {
      "midi": 68,
      "hit": false,
      "t": 88635.45149999995,
      "d": 110.41842187500151,
      "v": 127
    },
    {
      "midi": 72,
      "hit": false,
      "t": 88748.21924999995,
      "d": 333.6045937500021,
      "v": 80
    },
    {
      "midi": 77,
      "hit": false,
      "t": 88860.98699999995,
      "d": 265.47407812500023,
      "v": 89
    },
    {
      "midi": 68,
      "hit": false,
      "t": 89086.52249999995,
      "d": 79.87715625000419,
      "v": 122
    },
    {
      "midi": 67,
      "hit": false,
      "t": 89312.05799999995,
      "d": 192.64490625000326,
      "v": 113
    },
    {
      "midi": 71,
      "hit": false,
      "t": 89312.05799999995,
      "d": 249.0287812500028,
      "v": 127
    },
    {
      "midi": 62,
      "hit": false,
      "t": 89537.59349999994,
      "d": 108.06909375000396,
      "v": 117
    },
    {
      "midi": 67,
      "hit": false,
      "t": 89650.36124999994,
      "d": 432.2763750000013,
      "v": 83
    },
    {
      "midi": 74,
      "hit": false,
      "t": 89763.12899999994,
      "d": 232.58348437500536,
      "v": 113
    },
    {
      "midi": 62,
      "hit": false,
      "t": 89988.66449999994,
      "d": 129.21304687501106,
      "v": 117
    },
    {
      "midi": 67,
      "hit": false,
      "t": 90214.19999999995,
      "d": 77.52782812500664,
      "v": 96
    },
    {
      "midi": 72,
      "hit": false,
      "t": 90214.19999999995,
      "d": 103.37043750000885,
      "v": 106
    },
    {
      "midi": 72,
      "hit": false,
      "t": 90326.96774999997,
      "d": 39.938578125002095,
      "v": 39
    },
    {
      "midi": 63,
      "hit": false,
      "t": 90439.73549999997,
      "d": 117.46640624999418,
      "v": 127
    },
    {
      "midi": 67,
      "hit": false,
      "t": 90552.50324999997,
      "d": 136.26103125000373,
      "v": 60
    },
    {
      "midi": 75,
      "hit": false,
      "t": 90665.27099999996,
      "d": 166.80229687500105,
      "v": 111
    },
    {
      "midi": 63,
      "hit": false,
      "t": 90890.80649999996,
      "d": 91.62379687500652,
      "v": 125
    },
    {
      "midi": 67,
      "hit": false,
      "t": 91116.34199999998,
      "d": 79.87715625000419,
      "v": 91
    },
    {
      "midi": 72,
      "hit": false,
      "t": 91116.34199999998,
      "d": 86.92514062501141,
      "v": 70
    },
    {
      "midi": 63,
      "hit": false,
      "t": 91341.87749999999,
      "d": 101.02110937499674,
      "v": 127
    },
    {
      "midi": 67,
      "hit": false,
      "t": 91567.41299999999,
      "d": 180.89826562500093,
      "v": 111
    },
    {
      "midi": 75,
      "hit": false,
      "t": 91567.41299999999,
      "d": 216.13818750000792,
      "v": 119
    },
    {
      "midi": 63,
      "hit": false,
      "t": 91792.9485,
      "d": 56.383874999999534,
      "v": 87
    },
    {
      "midi": 72,
      "hit": false,
      "t": 92018.484,
      "d": 63.43185937500675,
      "v": 126
    },
    {
      "midi": 75,
      "hit": false,
      "t": 92018.484,
      "d": 192.64490625000326,
      "v": 127
    },
    {
      "midi": 68,
      "hit": false,
      "t": 92244.0195,
      "d": 110.41842187500151,
      "v": 127
    },
    {
      "midi": 72,
      "hit": false,
      "t": 92356.78725,
      "d": 333.6045937500021,
      "v": 80
    },
    {
      "midi": 77,
      "hit": false,
      "t": 92469.555,
      "d": 265.47407812500023,
      "v": 89
    },
    {
      "midi": 68,
      "hit": false,
      "t": 92695.09049999999,
      "d": 79.87715625000419,
      "v": 122
    },
    {
      "midi": 67,
      "hit": false,
      "t": 92920.62599999999,
      "d": 192.64490625000326,
      "v": 113
    },
    {
      "midi": 71,
      "hit": false,
      "t": 92920.62599999999,
      "d": 249.0287812500028,
      "v": 127
    },
    {
      "midi": 62,
      "hit": false,
      "t": 93146.16149999999,
      "d": 108.06909375000396,
      "v": 117
    },
    {
      "midi": 67,
      "hit": false,
      "t": 93258.92924999999,
      "d": 432.2763750000013,
      "v": 83
    },
    {
      "midi": 74,
      "hit": false,
      "t": 93371.69699999999,
      "d": 232.58348437500536,
      "v": 113
    },
    {
      "midi": 62,
      "hit": false,
      "t": 93597.23249999998,
      "d": 129.21304687501106,
      "v": 117
    },
    {
      "midi": 67,
      "hit": false,
      "t": 93822.768,
      "d": 77.52782812500664,
      "v": 96
    },
    {
      "midi": 72,
      "hit": false,
      "t": 93822.768,
      "d": 103.37043750000885,
      "v": 106
    },
    {
      "midi": 72,
      "hit": false,
      "t": 93935.53575000001,
      "d": 39.938578125002095,
      "v": 39
    },
    {
      "midi": 63,
      "hit": false,
      "t": 94048.30350000001,
      "d": 117.46640624999418,
      "v": 127
    },
    {
      "midi": 67,
      "hit": false,
      "t": 94161.07125000001,
      "d": 136.26103125000373,
      "v": 60
    },
    {
      "midi": 75,
      "hit": false,
      "t": 94273.839,
      "d": 166.80229687500105,
      "v": 111
    },
    {
      "midi": 63,
      "hit": false,
      "t": 94499.3745,
      "d": 91.62379687500652,
      "v": 125
    },
    {
      "midi": 67,
      "hit": false,
      "t": 94724.91000000002,
      "d": 79.87715625000419,
      "v": 91
    },
    {
      "midi": 72,
      "hit": false,
      "t": 94724.91000000002,
      "d": 86.92514062501141,
      "v": 70
    },
    {
      "midi": 63,
      "hit": false,
      "t": 94950.44550000003,
      "d": 101.02110937499674,
      "v": 127
    },
    {
      "midi": 67,
      "hit": false,
      "t": 95175.98100000003,
      "d": 180.89826562500093,
      "v": 111
    },
    {
      "midi": 75,
      "hit": false,
      "t": 95175.98100000003,
      "d": 216.13818750000792,
      "v": 119
    },
    {
      "midi": 63,
      "hit": false,
      "t": 95401.51650000004,
      "d": 56.383874999999534,
      "v": 87
    },
    {
      "midi": 72,
      "hit": false,
      "t": 95627.05200000004,
      "d": 63.43185937500675,
      "v": 126
    },
    {
      "midi": 75,
      "hit": false,
      "t": 95627.05200000004,
      "d": 192.64490625000326,
      "v": 127
    },
    {
      "midi": 68,
      "hit": false,
      "t": 95852.58750000004,
      "d": 110.41842187500151,
      "v": 127
    },
    {
      "midi": 72,
      "hit": false,
      "t": 95965.35525000004,
      "d": 333.6045937500021,
      "v": 80
    },
    {
      "midi": 77,
      "hit": false,
      "t": 96078.12300000004,
      "d": 265.47407812500023,
      "v": 89
    },
    {
      "midi": 68,
      "hit": false,
      "t": 96303.65850000003,
      "d": 79.87715625000419,
      "v": 122
    },
    {
      "midi": 67,
      "hit": false,
      "t": 96529.19400000003,
      "d": 192.64490625000326,
      "v": 113
    },
    {
      "midi": 71,
      "hit": false,
      "t": 96529.19400000003,
      "d": 249.0287812500028,
      "v": 127
    },
    {
      "midi": 62,
      "hit": false,
      "t": 96754.72950000003,
      "d": 108.06909375000396,
      "v": 117
    },
    {
      "midi": 67,
      "hit": false,
      "t": 96867.49725000003,
      "d": 432.2763750000013,
      "v": 83
    },
    {
      "midi": 74,
      "hit": false,
      "t": 96980.26500000003,
      "d": 232.58348437500536,
      "v": 113
    },
    {
      "midi": 62,
      "hit": false,
      "t": 97205.80050000003,
      "d": 129.21304687501106,
      "v": 117
    },
    {
      "midi": 67,
      "hit": false,
      "t": 97431.33600000004,
      "d": 77.52782812500664,
      "v": 96
    },
    {
      "midi": 72,
      "hit": false,
      "t": 97431.33600000004,
      "d": 103.37043750000885,
      "v": 106
    },
    {
      "midi": 72,
      "hit": false,
      "t": 97544.10375000005,
      "d": 39.938578125002095,
      "v": 39
    },
    {
      "midi": 63,
      "hit": false,
      "t": 97656.87150000005,
      "d": 117.46640624999418,
      "v": 127
    },
    {
      "midi": 67,
      "hit": false,
      "t": 97769.63925000005,
      "d": 136.26103125000373,
      "v": 60
    },
    {
      "midi": 75,
      "hit": false,
      "t": 97882.40700000005,
      "d": 166.80229687500105,
      "v": 111
    },
    {
      "midi": 63,
      "hit": false,
      "t": 98107.94250000005,
      "d": 91.62379687500652,
      "v": 125
    },
    {
      "midi": 67,
      "hit": false,
      "t": 98333.47800000006,
      "d": 79.87715625000419,
      "v": 91
    },
    {
      "midi": 72,
      "hit": false,
      "t": 98333.47800000006,
      "d": 86.92514062501141,
      "v": 70
    },
    {
      "midi": 63,
      "hit": false,
      "t": 98559.01350000007,
      "d": 101.02110937499674,
      "v": 127
    },
    {
      "midi": 67,
      "hit": false,
      "t": 98784.54900000007,
      "d": 180.89826562500093,
      "v": 111
    },
    {
      "midi": 75,
      "hit": false,
      "t": 98784.54900000007,
      "d": 216.13818750000792,
      "v": 119
    },
    {
      "midi": 63,
      "hit": false,
      "t": 99010.08450000008,
      "d": 56.383874999999534,
      "v": 87
    },
    {
      "midi": 72,
      "hit": false,
      "t": 99235.62000000008,
      "d": 63.43185937500675,
      "v": 126
    },
    {
      "midi": 75,
      "hit": false,
      "t": 99235.62000000008,
      "d": 192.64490625000326,
      "v": 127
    },
    {
      "midi": 68,
      "hit": false,
      "t": 99461.15550000008,
      "d": 110.41842187500151,
      "v": 127
    },
    {
      "midi": 72,
      "hit": false,
      "t": 99573.92325000008,
      "d": 333.6045937500021,
      "v": 80
    },
    {
      "midi": 77,
      "hit": false,
      "t": 99686.69100000008,
      "d": 265.47407812500023,
      "v": 89
    },
    {
      "midi": 68,
      "hit": false,
      "t": 99912.22650000008,
      "d": 79.87715625000419,
      "v": 122
    },
    {
      "midi": 67,
      "hit": false,
      "t": 100137.76200000008,
      "d": 192.64490625000326,
      "v": 113
    },
    {
      "midi": 71,
      "hit": false,
      "t": 100137.76200000008,
      "d": 249.0287812500028,
      "v": 127
    },
    {
      "midi": 62,
      "hit": false,
      "t": 100363.29750000007,
      "d": 108.06909375000396,
      "v": 117
    },
    {
      "midi": 67,
      "hit": false,
      "t": 100476.06525000007,
      "d": 432.2763750000013,
      "v": 83
    },
    {
      "midi": 74,
      "hit": false,
      "t": 100588.83300000007,
      "d": 232.58348437500536,
      "v": 113
    },
    {
      "midi": 62,
      "hit": false,
      "t": 100814.36850000007,
      "d": 129.21304687501106,
      "v": 117
    },
    {
      "midi": 67,
      "hit": false,
      "t": 101039.90400000008,
      "d": 77.52782812500664,
      "v": 96
    },
    {
      "midi": 72,
      "hit": false,
      "t": 101039.90400000008,
      "d": 103.37043750000885,
      "v": 106
    },
    {
      "midi": 72,
      "hit": false,
      "t": 101152.6717500001,
      "d": 39.938578125002095,
      "v": 39
    },
    {
      "midi": 63,
      "hit": false,
      "t": 101265.4395000001,
      "d": 117.46640624999418,
      "v": 127
    },
    {
      "midi": 67,
      "hit": false,
      "t": 101378.2072500001,
      "d": 136.26103125000373,
      "v": 60
    },
    {
      "midi": 75,
      "hit": false,
      "t": 101490.9750000001,
      "d": 166.80229687500105,
      "v": 111
    },
    {
      "midi": 63,
      "hit": false,
      "t": 101716.51050000009,
      "d": 91.62379687500652,
      "v": 125
    },
    {
      "midi": 67,
      "hit": false,
      "t": 101942.0460000001,
      "d": 79.87715625000419,
      "v": 91
    },
    {
      "midi": 72,
      "hit": false,
      "t": 101942.0460000001,
      "d": 86.92514062501141,
      "v": 70
    },
    {
      "midi": 63,
      "hit": false,
      "t": 102167.58150000012,
      "d": 101.02110937499674,
      "v": 127
    },
    {
      "midi": 67,
      "hit": false,
      "t": 102393.11700000011,
      "d": 180.89826562500093,
      "v": 111
    },
    {
      "midi": 75,
      "hit": false,
      "t": 102393.11700000011,
      "d": 216.13818750000792,
      "v": 119
    },
    {
      "midi": 63,
      "hit": false,
      "t": 102618.65250000013,
      "d": 56.383874999999534,
      "v": 87
    },
    {
      "midi": 72,
      "hit": false,
      "t": 102844.18800000013,
      "d": 63.43185937500675,
      "v": 126
    },
    {
      "midi": 75,
      "hit": false,
      "t": 102844.18800000013,
      "d": 192.64490625000326,
      "v": 127
    },
    {
      "midi": 68,
      "hit": false,
      "t": 103069.72350000012,
      "d": 110.41842187500151,
      "v": 127
    },
    {
      "midi": 72,
      "hit": false,
      "t": 103182.49125000012,
      "d": 333.6045937500021,
      "v": 80
    },
    {
      "midi": 77,
      "hit": false,
      "t": 103295.25900000012,
      "d": 265.47407812500023,
      "v": 89
    },
    {
      "midi": 68,
      "hit": false,
      "t": 103520.79450000012,
      "d": 79.87715625000419,
      "v": 122
    },
    {
      "midi": 67,
      "hit": false,
      "t": 103746.33000000012,
      "d": 192.64490625000326,
      "v": 113
    },
    {
      "midi": 71,
      "hit": false,
      "t": 103746.33000000012,
      "d": 249.0287812500028,
      "v": 127
    },
    {
      "midi": 62,
      "hit": false,
      "t": 103971.86550000012,
      "d": 108.06909375000396,
      "v": 117
    },
    {
      "midi": 67,
      "hit": false,
      "t": 104084.63325000012,
      "d": 432.2763750000013,
      "v": 83
    },
    {
      "midi": 74,
      "hit": false,
      "t": 104197.40100000011,
      "d": 232.58348437500536,
      "v": 113
    },
    {
      "midi": 62,
      "hit": false,
      "t": 104422.93650000011,
      "d": 129.21304687501106,
      "v": 117
    },
    {
      "midi": 67,
      "hit": false,
      "t": 104648.47200000013,
      "d": 77.52782812500664,
      "v": 96
    },
    {
      "midi": 72,
      "hit": false,
      "t": 104648.47200000013,
      "d": 103.37043750000885,
      "v": 106
    },
    {
      "midi": 72,
      "hit": false,
      "t": 104761.23975000014,
      "d": 39.938578125002095,
      "v": 39
    },
    {
      "midi": 63,
      "hit": false,
      "t": 104874.00750000014,
      "d": 117.46640624999418,
      "v": 127
    },
    {
      "midi": 67,
      "hit": false,
      "t": 104986.77525000014,
      "d": 136.26103125000373,
      "v": 60
    },
    {
      "midi": 75,
      "hit": false,
      "t": 105099.54300000014,
      "d": 166.80229687500105,
      "v": 111
    },
    {
      "midi": 63,
      "hit": false,
      "t": 105325.07850000013,
      "d": 91.62379687500652,
      "v": 125
    },
    {
      "midi": 67,
      "hit": false,
      "t": 105550.61400000015,
      "d": 79.87715625000419,
      "v": 91
    },
    {
      "midi": 72,
      "hit": false,
      "t": 105550.61400000015,
      "d": 86.92514062501141,
      "v": 70
    },
    {
      "midi": 63,
      "hit": false,
      "t": 105776.14950000016,
      "d": 101.02110937499674,
      "v": 127
    },
    {
      "midi": 67,
      "hit": false,
      "t": 106001.68500000016,
      "d": 180.89826562500093,
      "v": 111
    },
    {
      "midi": 75,
      "hit": false,
      "t": 106001.68500000016,
      "d": 216.13818750000792,
      "v": 119
    },
    {
      "midi": 63,
      "hit": false,
      "t": 106227.22050000017,
      "d": 56.383874999999534,
      "v": 87
    },
    {
      "midi": 72,
      "hit": false,
      "t": 106452.75600000017,
      "d": 63.43185937500675,
      "v": 126
    },
    {
      "midi": 75,
      "hit": false,
      "t": 106452.75600000017,
      "d": 192.64490625000326,
      "v": 127
    },
    {
      "midi": 68,
      "hit": false,
      "t": 106678.29150000017,
      "d": 110.41842187500151,
      "v": 127
    },
    {
      "midi": 72,
      "hit": false,
      "t": 106791.05925000017,
      "d": 333.6045937500021,
      "v": 80
    },
    {
      "midi": 77,
      "hit": false,
      "t": 106903.82700000016,
      "d": 265.47407812500023,
      "v": 89
    },
    {
      "midi": 68,
      "hit": false,
      "t": 107129.36250000016,
      "d": 79.87715625000419,
      "v": 122
    },
    {
      "midi": 67,
      "hit": false,
      "t": 107354.89800000016,
      "d": 192.64490625000326,
      "v": 113
    },
    {
      "midi": 71,
      "hit": false,
      "t": 107354.89800000016,
      "d": 249.0287812500028,
      "v": 127
    },
    {
      "midi": 62,
      "hit": false,
      "t": 107580.43350000016,
      "d": 108.06909375000396,
      "v": 117
    },
    {
      "midi": 67,
      "hit": false,
      "t": 107693.20125000016,
      "d": 432.2763750000013,
      "v": 83
    },
    {
      "midi": 74,
      "hit": false,
      "t": 107805.96900000016,
      "d": 232.58348437500536,
      "v": 113
    },
    {
      "midi": 62,
      "hit": false,
      "t": 108031.50450000016,
      "d": 129.21304687501106,
      "v": 117
    },
    {
      "midi": 67,
      "hit": false,
      "t": 108257.04000000017,
      "d": 77.52782812500664,
      "v": 96
    },
    {
      "midi": 72,
      "hit": false,
      "t": 108257.04000000017,
      "d": 103.37043750000885,
      "v": 106
    },
    {
      "midi": 72,
      "hit": false,
      "t": 108369.80775000018,
      "d": 39.938578125002095,
      "v": 39
    },
    {
      "midi": 63,
      "hit": false,
      "t": 108482.57550000018,
      "d": 117.46640624999418,
      "v": 127
    },
    {
      "midi": 67,
      "hit": false,
      "t": 108595.34325000018,
      "d": 136.26103125000373,
      "v": 60
    },
    {
      "midi": 75,
      "hit": false,
      "t": 108708.11100000018,
      "d": 166.80229687500105,
      "v": 111
    },
    {
      "midi": 63,
      "hit": false,
      "t": 108933.64650000018,
      "d": 91.62379687500652,
      "v": 125
    },
    {
      "midi": 67,
      "hit": false,
      "t": 109159.18200000019,
      "d": 79.87715625000419,
      "v": 91
    },
    {
      "midi": 72,
      "hit": false,
      "t": 109159.18200000019,
      "d": 86.92514062501141,
      "v": 70
    },
    {
      "midi": 63,
      "hit": false,
      "t": 109384.7175000002,
      "d": 101.02110937499674,
      "v": 127
    },
    {
      "midi": 67,
      "hit": false,
      "t": 109610.2530000002,
      "d": 180.89826562500093,
      "v": 111
    },
    {
      "midi": 75,
      "hit": false,
      "t": 109610.2530000002,
      "d": 216.13818750000792,
      "v": 119
    },
    {
      "midi": 63,
      "hit": false,
      "t": 109835.78850000021,
      "d": 56.383874999999534,
      "v": 87
    },
    {
      "midi": 72,
      "hit": false,
      "t": 110061.32400000021,
      "d": 63.43185937500675,
      "v": 126
    },
    {
      "midi": 75,
      "hit": false,
      "t": 110061.32400000021,
      "d": 192.64490625000326,
      "v": 127
    },
    {
      "midi": 68,
      "hit": false,
      "t": 110286.85950000021,
      "d": 110.41842187500151,
      "v": 127
    },
    {
      "midi": 72,
      "hit": false,
      "t": 110399.62725000021,
      "d": 333.6045937500021,
      "v": 80
    },
    {
      "midi": 77,
      "hit": false,
      "t": 110512.39500000021,
      "d": 265.47407812500023,
      "v": 89
    },
    {
      "midi": 68,
      "hit": false,
      "t": 110737.9305000002,
      "d": 79.87715625000419,
      "v": 122
    },
    {
      "midi": 67,
      "hit": false,
      "t": 110963.4660000002,
      "d": 192.64490625000326,
      "v": 113
    },
    {
      "midi": 71,
      "hit": false,
      "t": 110963.4660000002,
      "d": 249.0287812500028,
      "v": 127
    },
    {
      "midi": 62,
      "hit": false,
      "t": 111189.0015000002,
      "d": 108.06909375000396,
      "v": 117
    },
    {
      "midi": 67,
      "hit": false,
      "t": 111301.7692500002,
      "d": 432.2763750000013,
      "v": 83
    },
    {
      "midi": 74,
      "hit": false,
      "t": 111414.5370000002,
      "d": 232.58348437500536,
      "v": 113
    },
    {
      "midi": 62,
      "hit": false,
      "t": 111640.0725000002,
      "d": 129.21304687501106,
      "v": 117
    },
    {
      "midi": 48,
      "hit": false,
      "t": 111865.60800000021,
      "d": 169.1516249999986,
      "v": 127
    },
    {
      "midi": 48,
      "hit": false,
      "t": 112316.67900000021,
      "d": 171.50095312499616,
      "v": 127
    },
    {
      "midi": 48,
      "hit": false,
      "t": 112767.7500000002,
      "d": 213.7888593749958,
      "v": 120
    },
    {
      "midi": 48,
      "hit": false,
      "t": 113218.8210000002,
      "d": 251.37810937500035,
      "v": 127
    },
    {
      "midi": 55,
      "hit": false,
      "t": 113444.3565000002,
      "d": 213.7888593749958,
      "v": 103
    },
    {
      "midi": 51,
      "hit": false,
      "t": 113669.8920000002,
      "d": 251.37810937500035,
      "v": 122
    },
    {
      "midi": 51,
      "hit": false,
      "t": 114120.96300000019,
      "d": 270.17273437499534,
      "v": 127
    },
    {
      "midi": 50,
      "hit": false,
      "t": 114572.03400000019,
      "d": 190.2955781250057,
      "v": 127
    },
    {
      "midi": 53,
      "hit": false,
      "t": 114797.5695000002,
      "d": 169.1516249999986,
      "v": 127
    },
    {
      "midi": 50,
      "hit": false,
      "t": 115023.1050000002,
      "d": 213.7888593749958,
      "v": 127
    },
    {
      "midi": 55,
      "hit": false,
      "t": 115248.6405000002,
      "d": 124.5143906250014,
      "v": 113
    },
    {
      "midi": 48,
      "hit": false,
      "t": 115474.1760000002,
      "d": 169.1516249999986,
      "v": 127
    },
    {
      "midi": 48,
      "hit": false,
      "t": 115925.24700000019,
      "d": 171.50095312499616,
      "v": 127
    },
    {
      "midi": 48,
      "hit": false,
      "t": 116376.31800000019,
      "d": 213.7888593749958,
      "v": 120
    },
    {
      "midi": 48,
      "hit": false,
      "t": 116827.38900000018,
      "d": 251.37810937500035,
      "v": 127
    },
    {
      "midi": 55,
      "hit": false,
      "t": 117052.92450000018,
      "d": 213.7888593749958,
      "v": 103
    },
    {
      "midi": 51,
      "hit": false,
      "t": 117278.46000000018,
      "d": 251.37810937500035,
      "v": 122
    },
    {
      "midi": 51,
      "hit": false,
      "t": 117729.53100000018,
      "d": 270.17273437499534,
      "v": 127
    },
    {
      "midi": 50,
      "hit": false,
      "t": 118180.60200000017,
      "d": 190.2955781250057,
      "v": 127
    },
    {
      "midi": 53,
      "hit": false,
      "t": 118406.13750000019,
      "d": 169.1516249999986,
      "v": 127
    },
    {
      "midi": 50,
      "hit": false,
      "t": 118631.67300000018,
      "d": 213.7888593749958,
      "v": 127
    },
    {
      "midi": 55,
      "hit": false,
      "t": 118857.20850000018,
      "d": 124.5143906250014,
      "v": 113
    },
    {
      "midi": 48,
      "hit": false,
      "t": 119082.74400000018,
      "d": 169.1516249999986,
      "v": 127
    },
    {
      "midi": 48,
      "hit": false,
      "t": 119533.81500000018,
      "d": 171.50095312499616,
      "v": 127
    },
    {
      "midi": 48,
      "hit": false,
      "t": 119984.88600000017,
      "d": 213.7888593749958,
      "v": 120
    },
    {
      "midi": 48,
      "hit": false,
      "t": 120435.95700000017,
      "d": 251.37810937500035,
      "v": 127
    },
    {
      "midi": 55,
      "hit": false,
      "t": 120661.49250000017,
      "d": 213.7888593749958,
      "v": 103
    },
    {
      "midi": 51,
      "hit": false,
      "t": 120887.02800000017,
      "d": 251.37810937500035,
      "v": 122
    },
    {
      "midi": 51,
      "hit": false,
      "t": 121338.09900000016,
      "d": 270.17273437499534,
      "v": 127
    },
    {
      "midi": 50,
      "hit": false,
      "t": 121789.17000000016,
      "d": 190.2955781250057,
      "v": 127
    },
    {
      "midi": 53,
      "hit": false,
      "t": 122014.70550000017,
      "d": 169.1516249999986,
      "v": 127
    },
    {
      "midi": 50,
      "hit": false,
      "t": 122240.24100000017,
      "d": 213.7888593749958,
      "v": 127
    },
    {
      "midi": 55,
      "hit": false,
      "t": 122465.77650000017,
      "d": 124.5143906250014,
      "v": 113
    },
    {
      "midi": 48,
      "hit": false,
      "t": 122691.31200000017,
      "d": 169.1516249999986,
      "v": 127
    },
    {
      "midi": 48,
      "hit": false,
      "t": 123142.38300000016,
      "d": 171.50095312499616,
      "v": 127
    },
    {
      "midi": 48,
      "hit": false,
      "t": 123593.45400000016,
      "d": 213.7888593749958,
      "v": 120
    },
    {
      "midi": 48,
      "hit": false,
      "t": 124044.52500000015,
      "d": 251.37810937500035,
      "v": 127
    },
    {
      "midi": 55,
      "hit": false,
      "t": 124270.06050000015,
      "d": 213.7888593749958,
      "v": 103
    },
    {
      "midi": 51,
      "hit": false,
      "t": 124495.59600000015,
      "d": 251.37810937500035,
      "v": 122
    },
    {
      "midi": 51,
      "hit": false,
      "t": 124946.66700000015,
      "d": 270.17273437499534,
      "v": 127
    },
    {
      "midi": 50,
      "hit": false,
      "t": 125397.73800000014,
      "d": 190.2955781250057,
      "v": 127
    },
    {
      "midi": 53,
      "hit": false,
      "t": 125623.27350000016,
      "d": 169.1516249999986,
      "v": 127
    },
    {
      "midi": 50,
      "hit": false,
      "t": 125848.80900000015,
      "d": 213.7888593749958,
      "v": 127
    },
    {
      "midi": 55,
      "hit": false,
      "t": 126074.34450000015,
      "d": 124.5143906250014,
      "v": 113
    },
    {
      "midi": 72,
      "hit": false,
      "t": 140734.15200000015,
      "d": 75.17850000000908,
      "v": 127
    },
    {
      "midi": 75,
      "hit": false,
      "t": 140734.15200000015,
      "d": 98.67178125001374,
      "v": 127
    },
    {
      "midi": 67,
      "hit": false,
      "t": 140959.68750000017,
      "d": 89.27446874999441,
      "v": 127
    },
    {
      "midi": 72,
      "hit": false,
      "t": 141072.45525000017,
      "d": 140.95968749999884,
      "v": 63
    },
    {
      "midi": 79,
      "hit": false,
      "t": 141185.22300000017,
      "d": 152.70632812500116,
      "v": 127
    },
    {
      "midi": 63,
      "hit": false,
      "t": 141410.75850000017,
      "d": 112.76774999999907,
      "v": 83
    },
    {
      "midi": 72,
      "hit": false,
      "t": 141410.75850000017,
      "d": 112.76774999999907,
      "v": 103
    },
    {
      "midi": 75,
      "hit": false,
      "t": 141636.29400000017,
      "d": 58.73320312501164,
      "v": 125
    },
    {
      "midi": 72,
      "hit": false,
      "t": 141636.29400000017,
      "d": 65.78118750001886,
      "v": 98
    },
    {
      "midi": 67,
      "hit": false,
      "t": 141861.8295000002,
      "d": 86.92514062501141,
      "v": 126
    },
    {
      "midi": 72,
      "hit": false,
      "t": 142087.3650000002,
      "d": 84.5758124999993,
      "v": 86
    },
    {
      "midi": 79,
      "hit": false,
      "t": 142087.3650000002,
      "d": 98.67178125001374,
      "v": 127
    },
    {
      "midi": 67,
      "hit": false,
      "t": 142312.90050000022,
      "d": 75.17850000000908,
      "v": 126
    },
    {
      "midi": 72,
      "hit": false,
      "t": 142538.43600000022,
      "d": 72.82917187499697,
      "v": 127
    },
    {
      "midi": 63,
      "hit": false,
      "t": 142538.43600000022,
      "d": 98.67178124998463,
      "v": 122
    },
    {
      "midi": 65,
      "hit": false,
      "t": 142763.97150000022,
      "d": 86.92514062501141,
      "v": 127
    },
    {
      "midi": 68,
      "hit": false,
      "t": 142876.73925000022,
      "d": 171.5009531250107,
      "v": 69
    },
    {
      "midi": 72,
      "hit": false,
      "t": 142989.50700000022,
      "d": 96.32245312500163,
      "v": 127
    },
    {
      "midi": 68,
      "hit": false,
      "t": 143215.0425000002,
      "d": 70.47984375001397,
      "v": 127
    },
    {
      "midi": 71,
      "hit": false,
      "t": 143440.57800000024,
      "d": 98.67178125001374,
      "v": 127
    },
    {
      "midi": 62,
      "hit": false,
      "t": 143440.57800000024,
      "d": 225.53550000002724,
      "v": 127
    },
    {
      "midi": 62,
      "hit": false,
      "t": 143666.11350000027,
      "d": 21.14395312499255,
      "v": 127
    },
    {
      "midi": 67,
      "hit": false,
      "t": 143778.88125000027,
      "d": 216.13818750000792,
      "v": 84
    },
    {
      "midi": 71,
      "hit": false,
      "t": 143891.64900000027,
      "d": 136.26103125000373,
      "v": 127
    },
    {
      "midi": 67,
      "hit": false,
      "t": 144117.18450000026,
      "d": 23.493281250004657,
      "v": 58
    },
    {
      "midi": 72,
      "hit": false,
      "t": 144342.72000000026,
      "d": 75.17850000000908,
      "v": 127
    },
    {
      "midi": 75,
      "hit": false,
      "t": 144342.72000000026,
      "d": 98.67178125001374,
      "v": 127
    },
    {
      "midi": 67,
      "hit": false,
      "t": 144568.2555000003,
      "d": 89.27446874999441,
      "v": 127
    },
    {
      "midi": 72,
      "hit": false,
      "t": 144681.0232500003,
      "d": 140.95968749999884,
      "v": 63
    },
    {
      "midi": 79,
      "hit": false,
      "t": 144793.7910000003,
      "d": 152.70632812500116,
      "v": 127
    },
    {
      "midi": 63,
      "hit": false,
      "t": 145019.3265000003,
      "d": 112.76774999999907,
      "v": 83
    },
    {
      "midi": 72,
      "hit": false,
      "t": 145019.3265000003,
      "d": 112.76774999999907,
      "v": 103
    },
    {
      "midi": 75,
      "hit": false,
      "t": 145244.86200000028,
      "d": 58.73320312501164,
      "v": 125
    },
    {
      "midi": 72,
      "hit": false,
      "t": 145244.86200000028,
      "d": 65.78118750001886,
      "v": 98
    },
    {
      "midi": 67,
      "hit": false,
      "t": 145470.3975000003,
      "d": 86.92514062501141,
      "v": 126
    },
    {
      "midi": 72,
      "hit": false,
      "t": 145695.9330000003,
      "d": 84.5758124999993,
      "v": 86
    },
    {
      "midi": 79,
      "hit": false,
      "t": 145695.9330000003,
      "d": 98.67178125001374,
      "v": 127
    },
    {
      "midi": 67,
      "hit": false,
      "t": 145921.46850000034,
      "d": 75.17850000000908,
      "v": 126
    },
    {
      "midi": 72,
      "hit": false,
      "t": 146147.00400000034,
      "d": 72.82917187499697,
      "v": 127
    },
    {
      "midi": 63,
      "hit": false,
      "t": 146147.00400000034,
      "d": 98.67178124998463,
      "v": 122
    },
    {
      "midi": 65,
      "hit": false,
      "t": 146372.53950000033,
      "d": 86.92514062501141,
      "v": 127
    },
    {
      "midi": 68,
      "hit": false,
      "t": 146485.30725000033,
      "d": 171.5009531250107,
      "v": 69
    },
    {
      "midi": 72,
      "hit": false,
      "t": 146598.07500000033,
      "d": 96.32245312500163,
      "v": 127
    },
    {
      "midi": 68,
      "hit": false,
      "t": 146823.61050000033,
      "d": 70.47984375001397,
      "v": 127
    },
    {
      "midi": 71,
      "hit": false,
      "t": 147049.14600000036,
      "d": 98.67178125001374,
      "v": 127
    },
    {
      "midi": 62,
      "hit": false,
      "t": 147049.14600000036,
      "d": 225.53550000002724,
      "v": 127
    },
    {
      "midi": 62,
      "hit": false,
      "t": 147274.68150000038,
      "d": 21.14395312499255,
      "v": 127
    },
    {
      "midi": 67,
      "hit": false,
      "t": 147387.44925000038,
      "d": 216.13818750000792,
      "v": 84
    },
    {
      "midi": 71,
      "hit": false,
      "t": 147500.21700000038,
      "d": 136.26103125000373,
      "v": 127
    },
    {
      "midi": 67,
      "hit": false,
      "t": 147725.75250000038,
      "d": 23.493281250004657,
      "v": 58
    },
    {
      "midi": 72,
      "hit": false,
      "t": 147951.28800000038,
      "d": 75.17850000000908,
      "v": 127
    },
    {
      "midi": 75,
      "hit": false,
      "t": 147951.28800000038,
      "d": 98.67178125001374,
      "v": 127
    },
    {
      "midi": 67,
      "hit": false,
      "t": 148176.8235000004,
      "d": 89.27446874999441,
      "v": 127
    },
    {
      "midi": 72,
      "hit": false,
      "t": 148289.5912500004,
      "d": 140.95968749999884,
      "v": 63
    },
    {
      "midi": 79,
      "hit": false,
      "t": 148402.3590000004,
      "d": 152.70632812500116,
      "v": 127
    },
    {
      "midi": 63,
      "hit": false,
      "t": 148627.8945000004,
      "d": 112.76774999999907,
      "v": 83
    },
    {
      "midi": 72,
      "hit": false,
      "t": 148627.8945000004,
      "d": 112.76774999999907,
      "v": 103
    },
    {
      "midi": 75,
      "hit": false,
      "t": 148853.4300000004,
      "d": 58.73320312501164,
      "v": 125
    },
    {
      "midi": 72,
      "hit": false,
      "t": 148853.4300000004,
      "d": 65.78118750001886,
      "v": 98
    },
    {
      "midi": 67,
      "hit": false,
      "t": 149078.96550000043,
      "d": 86.92514062501141,
      "v": 126
    },
    {
      "midi": 72,
      "hit": false,
      "t": 149304.50100000043,
      "d": 84.5758124999993,
      "v": 86
    },
    {
      "midi": 79,
      "hit": false,
      "t": 149304.50100000043,
      "d": 98.67178125001374,
      "v": 127
    },
    {
      "midi": 67,
      "hit": false,
      "t": 149530.03650000045,
      "d": 75.17850000000908,
      "v": 126
    },
    {
      "midi": 72,
      "hit": false,
      "t": 149755.57200000045,
      "d": 72.82917187499697,
      "v": 127
    },
    {
      "midi": 63,
      "hit": false,
      "t": 149755.57200000045,
      "d": 98.67178124998463,
      "v": 122
    },
    {
      "midi": 65,
      "hit": false,
      "t": 149981.10750000045,
      "d": 86.92514062501141,
      "v": 127
    },
    {
      "midi": 68,
      "hit": false,
      "t": 150093.87525000045,
      "d": 171.5009531250107,
      "v": 69
    },
    {
      "midi": 72,
      "hit": false,
      "t": 150206.64300000045,
      "d": 96.32245312500163,
      "v": 127
    },
    {
      "midi": 68,
      "hit": false,
      "t": 150432.17850000045,
      "d": 70.47984375001397,
      "v": 127
    },
    {
      "midi": 71,
      "hit": false,
      "t": 150657.71400000047,
      "d": 98.67178125001374,
      "v": 127
    },
    {
      "midi": 62,
      "hit": false,
      "t": 150657.71400000047,
      "d": 225.53550000002724,
      "v": 127
    },
    {
      "midi": 62,
      "hit": false,
      "t": 150883.2495000005,
      "d": 21.14395312499255,
      "v": 127
    },
    {
      "midi": 67,
      "hit": false,
      "t": 150996.0172500005,
      "d": 216.13818750000792,
      "v": 84
    },
    {
      "midi": 71,
      "hit": false,
      "t": 151108.7850000005,
      "d": 136.26103125000373,
      "v": 127
    },
    {
      "midi": 67,
      "hit": false,
      "t": 151334.3205000005,
      "d": 23.493281250004657,
      "v": 58
    },
    {
      "midi": 72,
      "hit": false,
      "t": 151559.8560000005,
      "d": 75.17850000000908,
      "v": 127
    },
    {
      "midi": 75,
      "hit": false,
      "t": 151559.8560000005,
      "d": 98.67178125001374,
      "v": 127
    },
    {
      "midi": 67,
      "hit": false,
      "t": 151785.39150000052,
      "d": 89.27446874999441,
      "v": 127
    },
    {
      "midi": 72,
      "hit": false,
      "t": 151898.15925000052,
      "d": 140.95968749999884,
      "v": 63
    },
    {
      "midi": 79,
      "hit": false,
      "t": 152010.92700000052,
      "d": 152.70632812500116,
      "v": 127
    },
    {
      "midi": 63,
      "hit": false,
      "t": 152236.46250000052,
      "d": 112.76774999999907,
      "v": 83
    },
    {
      "midi": 72,
      "hit": false,
      "t": 152236.46250000052,
      "d": 112.76774999999907,
      "v": 103
    },
    {
      "midi": 75,
      "hit": false,
      "t": 152461.99800000052,
      "d": 58.73320312501164,
      "v": 125
    },
    {
      "midi": 72,
      "hit": false,
      "t": 152461.99800000052,
      "d": 65.78118750001886,
      "v": 98
    },
    {
      "midi": 67,
      "hit": false,
      "t": 152687.53350000054,
      "d": 86.92514062501141,
      "v": 126
    },
    {
      "midi": 72,
      "hit": false,
      "t": 152913.06900000054,
      "d": 84.5758124999993,
      "v": 86
    },
    {
      "midi": 79,
      "hit": false,
      "t": 152913.06900000054,
      "d": 98.67178125001374,
      "v": 127
    },
    {
      "midi": 67,
      "hit": false,
      "t": 153138.60450000057,
      "d": 75.17850000000908,
      "v": 126
    },
    {
      "midi": 72,
      "hit": false,
      "t": 153364.14000000057,
      "d": 72.82917187499697,
      "v": 127
    },
    {
      "midi": 63,
      "hit": false,
      "t": 153364.14000000057,
      "d": 98.67178124998463,
      "v": 122
    },
    {
      "midi": 65,
      "hit": false,
      "t": 153589.67550000057,
      "d": 86.92514062501141,
      "v": 127
    },
    {
      "midi": 68,
      "hit": false,
      "t": 153702.44325000056,
      "d": 171.5009531250107,
      "v": 69
    },
    {
      "midi": 72,
      "hit": false,
      "t": 153815.21100000056,
      "d": 96.32245312500163,
      "v": 127
    },
    {
      "midi": 68,
      "hit": false,
      "t": 154040.74650000056,
      "d": 70.47984375001397,
      "v": 127
    },
    {
      "midi": 71,
      "hit": false,
      "t": 154266.2820000006,
      "d": 98.67178125001374,
      "v": 127
    },
    {
      "midi": 62,
      "hit": false,
      "t": 154266.2820000006,
      "d": 225.53550000002724,
      "v": 127
    },
    {
      "midi": 62,
      "hit": false,
      "t": 154491.81750000062,
      "d": 21.14395312499255,
      "v": 127
    },
    {
      "midi": 67,
      "hit": false,
      "t": 154604.58525000061,
      "d": 216.13818750000792,
      "v": 84
    },
    {
      "midi": 71,
      "hit": false,
      "t": 154717.3530000006,
      "d": 136.26103125000373,
      "v": 127
    },
    {
      "midi": 67,
      "hit": false,
      "t": 154942.8885000006,
      "d": 23.493281250004657,
      "v": 58
    },
    {
      "midi": 63,
      "hit": false,
      "t": 155168.4240000006,
      "d": 63.43185937500675,
      "v": 119
    },
    {
      "midi": 67,
      "hit": false,
      "t": 155168.4240000006,
      "d": 209.0902031250007,
      "v": 120
    },
    {
      "midi": 60,
      "hit": false,
      "t": 155393.9595000006,
      "d": 124.5143906250014,
      "v": 113
    },
    {
      "midi": 63,
      "hit": false,
      "t": 155506.7272500006,
      "d": 75.17850000000908,
      "v": 73
    },
    {
      "midi": 72,
      "hit": false,
      "t": 155619.4950000006,
      "d": 129.2130468749965,
      "v": 106
    },
    {
      "midi": 63,
      "hit": false,
      "t": 155845.0305000006,
      "d": 89.27446874999441,
      "v": 100
    },
    {
      "midi": 67,
      "hit": false,
      "t": 155845.0305000006,
      "d": 150.35699999998906,
      "v": 108
    },
    {
      "midi": 63,
      "hit": false,
      "t": 156070.5660000006,
      "d": 89.27446874999441,
      "v": 111
    },
    {
      "midi": 72,
      "hit": false,
      "t": 156296.1015000006,
      "d": 79.87715625000419,
      "v": 111
    },
    {
      "midi": 67,
      "hit": false,
      "t": 156296.1015000006,
      "d": 84.5758124999993,
      "v": 89
    },
    {
      "midi": 63,
      "hit": false,
      "t": 156521.6370000006,
      "d": 49.33589062499232,
      "v": 66
    },
    {
      "midi": 72,
      "hit": false,
      "t": 156747.1725000006,
      "d": 65.78118749998976,
      "v": 111
    },
    {
      "midi": 67,
      "hit": false,
      "t": 156747.1725000006,
      "d": 72.82917187499697,
      "v": 91
    },
    {
      "midi": 62,
      "hit": false,
      "t": 156972.7080000006,
      "d": 86.92514062501141,
      "v": 86
    },
    {
      "midi": 65,
      "hit": false,
      "t": 156972.7080000006,
      "d": 204.3915468750056,
      "v": 89
    },
    {
      "midi": 59,
      "hit": false,
      "t": 157198.2435000006,
      "d": 112.76774999999907,
      "v": 71
    },
    {
      "midi": 62,
      "hit": false,
      "t": 157311.0112500006,
      "d": 185.59692187502515,
      "v": 83
    },
    {
      "midi": 71,
      "hit": false,
      "t": 157423.7790000006,
      "d": 70.47984375001397,
      "v": 93
    },
    {
      "midi": 62,
      "hit": false,
      "t": 157649.31450000062,
      "d": 101.02110937499674,
      "v": 73
    },
    {
      "midi": 67,
      "hit": false,
      "t": 157649.31450000062,
      "d": 117.46640624999418,
      "v": 111
    },
    {
      "midi": 59,
      "hit": false,
      "t": 157874.85000000062,
      "d": 119.81573437500629,
      "v": 111
    },
    {
      "midi": 71,
      "hit": false,
      "t": 158100.38550000062,
      "d": 84.5758124999993,
      "v": 113
    },
    {
      "midi": 62,
      "hit": false,
      "t": 158100.38550000062,
      "d": 98.67178125001374,
      "v": 96
    },
    {
      "midi": 59,
      "hit": false,
      "t": 158325.92100000064,
      "d": 70.47984375001397,
      "v": 60
    },
    {
      "midi": 62,
      "hit": false,
      "t": 158551.45650000067,
      "d": 82.2264843749872,
      "v": 89
    },
    {
      "midi": 67,
      "hit": false,
      "t": 158551.45650000067,
      "d": 108.06909374997485,
      "v": 127
    },
    {
      "midi": 63,
      "hit": false,
      "t": 158776.99200000064,
      "d": 63.43185937500675,
      "v": 119
    },
    {
      "midi": 67,
      "hit": false,
      "t": 158776.99200000064,
      "d": 209.0902031250007,
      "v": 120
    },
    {
      "midi": 60,
      "hit": false,
      "t": 159002.52750000064,
      "d": 124.5143906250014,
      "v": 113
    },
    {
      "midi": 63,
      "hit": false,
      "t": 159115.29525000064,
      "d": 75.17850000000908,
      "v": 73
    },
    {
      "midi": 72,
      "hit": false,
      "t": 159228.06300000063,
      "d": 129.2130468749965,
      "v": 106
    },
    {
      "midi": 63,
      "hit": false,
      "t": 159453.59850000063,
      "d": 89.27446874999441,
      "v": 100
    },
    {
      "midi": 67,
      "hit": false,
      "t": 159453.59850000063,
      "d": 150.35699999998906,
      "v": 108
    },
    {
      "midi": 63,
      "hit": false,
      "t": 159679.13400000063,
      "d": 89.27446874999441,
      "v": 111
    },
    {
      "midi": 72,
      "hit": false,
      "t": 159904.66950000063,
      "d": 79.87715625000419,
      "v": 111
    },
    {
      "midi": 67,
      "hit": false,
      "t": 159904.66950000063,
      "d": 84.5758124999993,
      "v": 89
    },
    {
      "midi": 63,
      "hit": false,
      "t": 160130.20500000063,
      "d": 49.33589062499232,
      "v": 66
    },
    {
      "midi": 72,
      "hit": false,
      "t": 160355.74050000063,
      "d": 65.78118749998976,
      "v": 111
    },
    {
      "midi": 67,
      "hit": false,
      "t": 160355.74050000063,
      "d": 72.82917187499697,
      "v": 91
    },
    {
      "midi": 62,
      "hit": false,
      "t": 160581.27600000062,
      "d": 86.92514062501141,
      "v": 86
    },
    {
      "midi": 65,
      "hit": false,
      "t": 160581.27600000062,
      "d": 204.3915468750056,
      "v": 89
    },
    {
      "midi": 59,
      "hit": false,
      "t": 160806.81150000062,
      "d": 112.76774999999907,
      "v": 71
    },
    {
      "midi": 62,
      "hit": false,
      "t": 160919.57925000062,
      "d": 185.59692187502515,
      "v": 83
    },
    {
      "midi": 71,
      "hit": false,
      "t": 161032.34700000062,
      "d": 70.47984375001397,
      "v": 93
    },
    {
      "midi": 62,
      "hit": false,
      "t": 161257.88250000065,
      "d": 101.02110937499674,
      "v": 73
    },
    {
      "midi": 67,
      "hit": false,
      "t": 161257.88250000065,
      "d": 117.46640624999418,
      "v": 111
    },
    {
      "midi": 59,
      "hit": false,
      "t": 161483.41800000065,
      "d": 119.81573437500629,
      "v": 111
    },
    {
      "midi": 71,
      "hit": false,
      "t": 161708.95350000064,
      "d": 84.5758124999993,
      "v": 113
    },
    {
      "midi": 62,
      "hit": false,
      "t": 161708.95350000064,
      "d": 98.67178125001374,
      "v": 96
    },
    {
      "midi": 59,
      "hit": false,
      "t": 161934.48900000067,
      "d": 70.47984375001397,
      "v": 60
    },
    {
      "midi": 62,
      "hit": false,
      "t": 162160.0245000007,
      "d": 82.2264843749872,
      "v": 89
    },
    {
      "midi": 67,
      "hit": false,
      "t": 162160.0245000007,
      "d": 108.06909374997485,
      "v": 127
    },
    {
      "midi": 63,
      "hit": false,
      "t": 162385.56000000067,
      "d": 63.43185937500675,
      "v": 119
    },
    {
      "midi": 67,
      "hit": false,
      "t": 162385.56000000067,
      "d": 209.0902031250007,
      "v": 120
    },
    {
      "midi": 60,
      "hit": false,
      "t": 162611.09550000067,
      "d": 124.5143906250014,
      "v": 113
    },
    {
      "midi": 63,
      "hit": false,
      "t": 162723.86325000066,
      "d": 75.17850000000908,
      "v": 73
    },
    {
      "midi": 72,
      "hit": false,
      "t": 162836.63100000066,
      "d": 129.2130468749965,
      "v": 106
    },
    {
      "midi": 63,
      "hit": false,
      "t": 163062.16650000066,
      "d": 89.27446874999441,
      "v": 100
    },
    {
      "midi": 67,
      "hit": false,
      "t": 163062.16650000066,
      "d": 150.35699999998906,
      "v": 108
    },
    {
      "midi": 63,
      "hit": false,
      "t": 163287.70200000066,
      "d": 89.27446874999441,
      "v": 111
    },
    {
      "midi": 72,
      "hit": false,
      "t": 163513.23750000066,
      "d": 79.87715625000419,
      "v": 111
    },
    {
      "midi": 67,
      "hit": false,
      "t": 163513.23750000066,
      "d": 84.5758124999993,
      "v": 89
    },
    {
      "midi": 63,
      "hit": false,
      "t": 163738.77300000066,
      "d": 49.33589062499232,
      "v": 66
    },
    {
      "midi": 72,
      "hit": false,
      "t": 163964.30850000065,
      "d": 65.78118749998976,
      "v": 111
    },
    {
      "midi": 67,
      "hit": false,
      "t": 163964.30850000065,
      "d": 72.82917187499697,
      "v": 91
    },
    {
      "midi": 62,
      "hit": false,
      "t": 164189.84400000065,
      "d": 86.92514062501141,
      "v": 86
    },
    {
      "midi": 65,
      "hit": false,
      "t": 164189.84400000065,
      "d": 204.3915468750056,
      "v": 89
    },
    {
      "midi": 59,
      "hit": false,
      "t": 164415.37950000065,
      "d": 112.76774999999907,
      "v": 71
    },
    {
      "midi": 62,
      "hit": false,
      "t": 164528.14725000065,
      "d": 185.59692187502515,
      "v": 83
    },
    {
      "midi": 71,
      "hit": false,
      "t": 164640.91500000065,
      "d": 70.47984375001397,
      "v": 93
    },
    {
      "midi": 62,
      "hit": false,
      "t": 164866.45050000068,
      "d": 101.02110937499674,
      "v": 73
    },
    {
      "midi": 67,
      "hit": false,
      "t": 164866.45050000068,
      "d": 117.46640624999418,
      "v": 111
    },
    {
      "midi": 59,
      "hit": false,
      "t": 165091.98600000067,
      "d": 119.81573437500629,
      "v": 111
    },
    {
      "midi": 71,
      "hit": false,
      "t": 165317.52150000067,
      "d": 84.5758124999993,
      "v": 113
    },
    {
      "midi": 62,
      "hit": false,
      "t": 165317.52150000067,
      "d": 98.67178125001374,
      "v": 96
    },
    {
      "midi": 59,
      "hit": false,
      "t": 165543.0570000007,
      "d": 70.47984375001397,
      "v": 60
    },
    {
      "midi": 62,
      "hit": false,
      "t": 165768.59250000073,
      "d": 82.2264843749872,
      "v": 89
    },
    {
      "midi": 67,
      "hit": false,
      "t": 165768.59250000073,
      "d": 108.06909374997485,
      "v": 127
    },
    {
      "midi": 63,
      "hit": false,
      "t": 165994.1280000007,
      "d": 63.43185937500675,
      "v": 119
    },
    {
      "midi": 67,
      "hit": false,
      "t": 165994.1280000007,
      "d": 209.0902031250007,
      "v": 120
    },
    {
      "midi": 60,
      "hit": false,
      "t": 166219.6635000007,
      "d": 124.5143906250014,
      "v": 113
    },
    {
      "midi": 63,
      "hit": false,
      "t": 166332.4312500007,
      "d": 75.17850000000908,
      "v": 73
    },
    {
      "midi": 72,
      "hit": false,
      "t": 166445.1990000007,
      "d": 129.2130468749965,
      "v": 106
    },
    {
      "midi": 63,
      "hit": false,
      "t": 166670.7345000007,
      "d": 89.27446874999441,
      "v": 100
    },
    {
      "midi": 67,
      "hit": false,
      "t": 166670.7345000007,
      "d": 150.35699999998906,
      "v": 108
    },
    {
      "midi": 63,
      "hit": false,
      "t": 166896.2700000007,
      "d": 89.27446874999441,
      "v": 111
    },
    {
      "midi": 72,
      "hit": false,
      "t": 167121.8055000007,
      "d": 79.87715625000419,
      "v": 111
    },
    {
      "midi": 67,
      "hit": false,
      "t": 167121.8055000007,
      "d": 84.5758124999993,
      "v": 89
    },
    {
      "midi": 63,
      "hit": false,
      "t": 167347.34100000068,
      "d": 49.33589062499232,
      "v": 66
    },
    {
      "midi": 72,
      "hit": false,
      "t": 167572.87650000068,
      "d": 65.78118749998976,
      "v": 111
    },
    {
      "midi": 67,
      "hit": false,
      "t": 167572.87650000068,
      "d": 72.82917187499697,
      "v": 91
    },
    {
      "midi": 62,
      "hit": false,
      "t": 167798.41200000068,
      "d": 119.81573437500629,
      "v": 107
    },
    {
      "midi": 71,
      "hit": false,
      "t": 167798.41200000068,
      "d": 119.81573437500629,
      "v": 107
    },
    {
      "midi": 79,
      "hit": false,
      "t": 167798.41200000068,
      "d": 119.81573437500629,
      "v": 127
    },
    {
      "midi": 62,
      "hit": false,
      "t": 168136.71525000068,
      "d": 117.46640624999418,
      "v": 107
    },
    {
      "midi": 71,
      "hit": false,
      "t": 168136.71525000068,
      "d": 117.46640624999418,
      "v": 107
    },
    {
      "midi": 79,
      "hit": false,
      "t": 168136.71525000068,
      "d": 117.46640624999418,
      "v": 127
    },
    {
      "midi": 62,
      "hit": false,
      "t": 168587.78625000067,
      "d": 143.30901562501094,
      "v": 107
    },
    {
      "midi": 71,
      "hit": false,
      "t": 168587.78625000067,
      "d": 143.30901562501094,
      "v": 107
    },
    {
      "midi": 79,
      "hit": false,
      "t": 168587.78625000067,
      "d": 143.30901562501094,
      "v": 127
    },
    {
      "midi": 62,
      "hit": false,
      "t": 168926.08950000067,
      "d": 84.5758124999993,
      "v": 107
    },
    {
      "midi": 71,
      "hit": false,
      "t": 168926.08950000067,
      "d": 84.5758124999993,
      "v": 107
    },
    {
      "midi": 79,
      "hit": false,
      "t": 168926.08950000067,
      "d": 84.5758124999993,
      "v": 127
    },
    {
      "midi": 62,
      "hit": false,
      "t": 169151.62500000067,
      "d": 82.2264843749872,
      "v": 107
    },
    {
      "midi": 71,
      "hit": false,
      "t": 169151.62500000067,
      "d": 82.2264843749872,
      "v": 107
    },
    {
      "midi": 79,
      "hit": false,
      "t": 169151.62500000067,
      "d": 82.2264843749872,
      "v": 127
    },
    {
      "midi": 67,
      "hit": false,
      "t": 169377.16050000067,
      "d": 225.53549999999814,
      "v": 107
    },
    {
      "midi": 63,
      "hit": false,
      "t": 169377.16050000067,
      "d": 227.88482812501024,
      "v": 107
    },
    {
      "midi": 84,
      "hit": false,
      "t": 169377.16050000067,
      "d": 227.88482812501024,
      "v": 127
    },
    {
      "midi": 67,
      "hit": false,
      "t": 169602.69600000067,
      "d": 2.349328125012107,
      "v": 96
    },
    {
      "midi": 72,
      "hit": false,
      "t": 169602.69600000067,
      "d": 103.37043750000885,
      "v": 106
    },
    {
      "midi": 72,
      "hit": false,
      "t": 169715.46375000066,
      "d": 39.938578125002095,
      "v": 39
    },
    {
      "midi": 63,
      "hit": false,
      "t": 169828.23150000066,
      "d": 117.46640624999418,
      "v": 127
    },
    {
      "midi": 67,
      "hit": false,
      "t": 169940.99925000066,
      "d": 136.26103125000373,
      "v": 60
    },
    {
      "midi": 75,
      "hit": false,
      "t": 170053.76700000066,
      "d": 166.8022968750156,
      "v": 111
    },
    {
      "midi": 63,
      "hit": false,
      "t": 170279.3025000007,
      "d": 91.62379687500652,
      "v": 125
    },
    {
      "midi": 67,
      "hit": false,
      "t": 170504.8380000007,
      "d": 79.87715625000419,
      "v": 91
    },
    {
      "midi": 72,
      "hit": false,
      "t": 170504.8380000007,
      "d": 86.92514062501141,
      "v": 70
    },
    {
      "midi": 63,
      "hit": false,
      "t": 170730.3735000007,
      "d": 101.02110937499674,
      "v": 127
    },
    {
      "midi": 67,
      "hit": false,
      "t": 170955.90900000068,
      "d": 180.89826562500093,
      "v": 111
    },
    {
      "midi": 75,
      "hit": false,
      "t": 170955.90900000068,
      "d": 216.13818750000792,
      "v": 119
    },
    {
      "midi": 63,
      "hit": false,
      "t": 171181.44450000068,
      "d": 56.383874999999534,
      "v": 87
    },
    {
      "midi": 72,
      "hit": false,
      "t": 171406.98000000068,
      "d": 63.43185937500675,
      "v": 126
    },
    {
      "midi": 75,
      "hit": false,
      "t": 171406.98000000068,
      "d": 192.64490625000326,
      "v": 127
    },
    {
      "midi": 68,
      "hit": false,
      "t": 171632.51550000068,
      "d": 110.41842187498696,
      "v": 127
    },
    {
      "midi": 72,
      "hit": false,
      "t": 171745.28325000068,
      "d": 333.6045937500021,
      "v": 80
    },
    {
      "midi": 77,
      "hit": false,
      "t": 171858.05100000068,
      "d": 265.47407812500023,
      "v": 89
    },
    {
      "midi": 68,
      "hit": false,
      "t": 172083.58650000067,
      "d": 79.87715625000419,
      "v": 122
    },
    {
      "midi": 67,
      "hit": false,
      "t": 172309.12200000067,
      "d": 192.64490625000326,
      "v": 113
    },
    {
      "midi": 71,
      "hit": false,
      "t": 172309.12200000067,
      "d": 249.0287812500028,
      "v": 127
    },
    {
      "midi": 62,
      "hit": false,
      "t": 172534.65750000067,
      "d": 108.06909375000396,
      "v": 117
    },
    {
      "midi": 67,
      "hit": false,
      "t": 172647.42525000067,
      "d": 432.27637500001583,
      "v": 83
    },
    {
      "midi": 74,
      "hit": false,
      "t": 172760.19300000067,
      "d": 232.58348437500536,
      "v": 113
    },
    {
      "midi": 62,
      "hit": false,
      "t": 172985.72850000067,
      "d": 129.2130468750256,
      "v": 117
    },
    {
      "midi": 67,
      "hit": false,
      "t": 173211.2640000007,
      "d": 77.52782812499208,
      "v": 96
    },
    {
      "midi": 72,
      "hit": false,
      "t": 173211.2640000007,
      "d": 103.37043749997974,
      "v": 106
    },
    {
      "midi": 72,
      "hit": false,
      "t": 173324.03175000066,
      "d": 39.938578125002095,
      "v": 39
    },
    {
      "midi": 63,
      "hit": false,
      "t": 173436.79950000066,
      "d": 117.46640624999418,
      "v": 127
    },
    {
      "midi": 67,
      "hit": false,
      "t": 173549.56725000066,
      "d": 136.26103125000373,
      "v": 60
    },
    {
      "midi": 75,
      "hit": false,
      "t": 173662.33500000066,
      "d": 166.8022968750156,
      "v": 111
    },
    {
      "midi": 63,
      "hit": false,
      "t": 173887.8705000007,
      "d": 91.62379687500652,
      "v": 125
    },
    {
      "midi": 67,
      "hit": false,
      "t": 174113.4060000007,
      "d": 79.87715625000419,
      "v": 91
    },
    {
      "midi": 72,
      "hit": false,
      "t": 174113.4060000007,
      "d": 86.92514062501141,
      "v": 70
    },
    {
      "midi": 63,
      "hit": false,
      "t": 174338.94150000068,
      "d": 101.02110937499674,
      "v": 127
    },
    {
      "midi": 67,
      "hit": false,
      "t": 174564.47700000068,
      "d": 180.89826562500093,
      "v": 111
    },
    {
      "midi": 75,
      "hit": false,
      "t": 174564.47700000068,
      "d": 216.13818750000792,
      "v": 119
    },
    {
      "midi": 63,
      "hit": false,
      "t": 174790.01250000068,
      "d": 56.383874999999534,
      "v": 87
    },
    {
      "midi": 72,
      "hit": false,
      "t": 175015.54800000068,
      "d": 63.43185937500675,
      "v": 126
    },
    {
      "midi": 75,
      "hit": false,
      "t": 175015.54800000068,
      "d": 192.64490625000326,
      "v": 127
    },
    {
      "midi": 68,
      "hit": false,
      "t": 175241.08350000068,
      "d": 110.41842187498696,
      "v": 127
    },
    {
      "midi": 72,
      "hit": false,
      "t": 175353.85125000068,
      "d": 333.6045937500021,
      "v": 80
    },
    {
      "midi": 77,
      "hit": false,
      "t": 175466.61900000068,
      "d": 265.47407812500023,
      "v": 89
    },
    {
      "midi": 68,
      "hit": false,
      "t": 175692.15450000067,
      "d": 79.87715625000419,
      "v": 122
    },
    {
      "midi": 67,
      "hit": false,
      "t": 175917.69000000067,
      "d": 192.64490625000326,
      "v": 113
    },
    {
      "midi": 71,
      "hit": false,
      "t": 175917.69000000067,
      "d": 249.0287812500028,
      "v": 127
    },
    {
      "midi": 62,
      "hit": false,
      "t": 176143.22550000067,
      "d": 108.06909375000396,
      "v": 117
    },
    {
      "midi": 67,
      "hit": false,
      "t": 176255.99325000067,
      "d": 432.27637500001583,
      "v": 83
    },
    {
      "midi": 74,
      "hit": false,
      "t": 176368.76100000067,
      "d": 232.58348437500536,
      "v": 113
    },
    {
      "midi": 62,
      "hit": false,
      "t": 176594.29650000067,
      "d": 129.2130468750256,
      "v": 117
    },
    {
      "midi": 67,
      "hit": false,
      "t": 176819.8320000007,
      "d": 77.52782812499208,
      "v": 96
    },
    {
      "midi": 72,
      "hit": false,
      "t": 176819.8320000007,
      "d": 103.37043749997974,
      "v": 106
    },
    {
      "midi": 72,
      "hit": false,
      "t": 176932.59975000066,
      "d": 39.938578125002095,
      "v": 39
    },
    {
      "midi": 63,
      "hit": false,
      "t": 177045.36750000066,
      "d": 117.46640624999418,
      "v": 127
    },
    {
      "midi": 67,
      "hit": false,
      "t": 177158.13525000066,
      "d": 136.26103125000373,
      "v": 60
    },
    {
      "midi": 75,
      "hit": false,
      "t": 177270.90300000066,
      "d": 166.8022968750156,
      "v": 111
    },
    {
      "midi": 63,
      "hit": false,
      "t": 177496.4385000007,
      "d": 91.62379687500652,
      "v": 125
    },
    {
      "midi": 67,
      "hit": false,
      "t": 177721.9740000007,
      "d": 79.87715625000419,
      "v": 91
    },
    {
      "midi": 72,
      "hit": false,
      "t": 177721.9740000007,
      "d": 86.92514062501141,
      "v": 70
    },
    {
      "midi": 63,
      "hit": false,
      "t": 177947.50950000068,
      "d": 101.02110937499674,
      "v": 127
    },
    {
      "midi": 67,
      "hit": false,
      "t": 178173.04500000068,
      "d": 180.89826562500093,
      "v": 111
    },
    {
      "midi": 75,
      "hit": false,
      "t": 178173.04500000068,
      "d": 216.13818750000792,
      "v": 119
    },
    {
      "midi": 63,
      "hit": false,
      "t": 178398.58050000068,
      "d": 56.383874999999534,
      "v": 87
    },
    {
      "midi": 72,
      "hit": false,
      "t": 178624.11600000068,
      "d": 63.43185937500675,
      "v": 126
    },
    {
      "midi": 75,
      "hit": false,
      "t": 178624.11600000068,
      "d": 192.64490625000326,
      "v": 127
    },
    {
      "midi": 68,
      "hit": false,
      "t": 178849.65150000068,
      "d": 110.41842187498696,
      "v": 127
    },
    {
      "midi": 72,
      "hit": false,
      "t": 178962.41925000068,
      "d": 333.6045937500021,
      "v": 80
    },
    {
      "midi": 77,
      "hit": false,
      "t": 179075.18700000067,
      "d": 265.47407812500023,
      "v": 89
    },
    {
      "midi": 68,
      "hit": false,
      "t": 179300.72250000067,
      "d": 79.87715625000419,
      "v": 122
    },
    {
      "midi": 67,
      "hit": false,
      "t": 179526.25800000067,
      "d": 192.64490625000326,
      "v": 113
    },
    {
      "midi": 71,
      "hit": false,
      "t": 179526.25800000067,
      "d": 249.0287812500028,
      "v": 127
    },
    {
      "midi": 62,
      "hit": false,
      "t": 179751.79350000067,
      "d": 108.06909375000396,
      "v": 117
    },
    {
      "midi": 67,
      "hit": false,
      "t": 179864.56125000067,
      "d": 432.27637500001583,
      "v": 83
    },
    {
      "midi": 74,
      "hit": false,
      "t": 179977.32900000067,
      "d": 232.58348437500536,
      "v": 113
    },
    {
      "midi": 62,
      "hit": false,
      "t": 180202.86450000067,
      "d": 129.2130468750256,
      "v": 117
    },
    {
      "midi": 67,
      "hit": false,
      "t": 180428.4000000007,
      "d": 77.52782812499208,
      "v": 96
    },
    {
      "midi": 72,
      "hit": false,
      "t": 180428.4000000007,
      "d": 103.37043749997974,
      "v": 106
    },
    {
      "midi": 72,
      "hit": false,
      "t": 180541.16775000066,
      "d": 39.938578125002095,
      "v": 39
    },
    {
      "midi": 63,
      "hit": false,
      "t": 180653.93550000066,
      "d": 117.46640624999418,
      "v": 127
    },
    {
      "midi": 67,
      "hit": false,
      "t": 180766.70325000066,
      "d": 136.26103125000373,
      "v": 60
    },
    {
      "midi": 75,
      "hit": false,
      "t": 180879.47100000066,
      "d": 166.8022968750156,
      "v": 111
    },
    {
      "midi": 63,
      "hit": false,
      "t": 181105.0065000007,
      "d": 91.62379687500652,
      "v": 125
    },
    {
      "midi": 67,
      "hit": false,
      "t": 181330.54200000069,
      "d": 79.87715625000419,
      "v": 91
    },
    {
      "midi": 72,
      "hit": false,
      "t": 181330.54200000069,
      "d": 86.92514062501141,
      "v": 70
    },
    {
      "midi": 63,
      "hit": false,
      "t": 181556.07750000068,
      "d": 101.02110937499674,
      "v": 127
    },
    {
      "midi": 67,
      "hit": false,
      "t": 181781.61300000068,
      "d": 180.89826562500093,
      "v": 111
    },
    {
      "midi": 75,
      "hit": false,
      "t": 181781.61300000068,
      "d": 216.13818750000792,
      "v": 119
    },
    {
      "midi": 63,
      "hit": false,
      "t": 182007.14850000068,
      "d": 56.383874999999534,
      "v": 87
    },
    {
      "midi": 72,
      "hit": false,
      "t": 182232.68400000068,
      "d": 63.43185937500675,
      "v": 126
    },
    {
      "midi": 75,
      "hit": false,
      "t": 182232.68400000068,
      "d": 192.64490625000326,
      "v": 127
    },
    {
      "midi": 68,
      "hit": false,
      "t": 182458.21950000068,
      "d": 110.41842187498696,
      "v": 127
    },
    {
      "midi": 72,
      "hit": false,
      "t": 182570.98725000067,
      "d": 333.6045937500021,
      "v": 80
    },
    {
      "midi": 77,
      "hit": false,
      "t": 182683.75500000067,
      "d": 265.47407812500023,
      "v": 89
    },
    {
      "midi": 68,
      "hit": false,
      "t": 182909.29050000067,
      "d": 79.87715625000419,
      "v": 122
    },
    {
      "midi": 67,
      "hit": false,
      "t": 183134.82600000067,
      "d": 192.64490625000326,
      "v": 113
    },
    {
      "midi": 71,
      "hit": false,
      "t": 183134.82600000067,
      "d": 249.0287812500028,
      "v": 127
    },
    {
      "midi": 62,
      "hit": false,
      "t": 183360.36150000067,
      "d": 108.06909375000396,
      "v": 117
    },
    {
      "midi": 67,
      "hit": false,
      "t": 183473.12925000067,
      "d": 432.27637500001583,
      "v": 83
    },
    {
      "midi": 74,
      "hit": false,
      "t": 183585.89700000067,
      "d": 232.58348437500536,
      "v": 113
    },
    {
      "midi": 62,
      "hit": false,
      "t": 183811.43250000066,
      "d": 129.2130468750256,
      "v": 117
    },
    {
      "midi": 67,
      "hit": false,
      "t": 184036.9680000007,
      "d": 77.52782812499208,
      "v": 96
    },
    {
      "midi": 72,
      "hit": false,
      "t": 184036.9680000007,
      "d": 103.37043749997974,
      "v": 106
    },
    {
      "midi": 72,
      "hit": false,
      "t": 184149.73575000066,
      "d": 39.938578125002095,
      "v": 39
    },
    {
      "midi": 63,
      "hit": false,
      "t": 184262.50350000066,
      "d": 117.46640624999418,
      "v": 127
    },
    {
      "midi": 67,
      "hit": false,
      "t": 184375.27125000066,
      "d": 136.26103125000373,
      "v": 60
    },
    {
      "midi": 75,
      "hit": false,
      "t": 184488.03900000066,
      "d": 166.8022968750156,
      "v": 111
    },
    {
      "midi": 63,
      "hit": false,
      "t": 184713.5745000007,
      "d": 91.62379687500652,
      "v": 125
    },
    {
      "midi": 67,
      "hit": false,
      "t": 184939.11000000068,
      "d": 79.87715625000419,
      "v": 91
    },
    {
      "midi": 72,
      "hit": false,
      "t": 184939.11000000068,
      "d": 86.92514062501141,
      "v": 70
    },
    {
      "midi": 63,
      "hit": false,
      "t": 185164.64550000068,
      "d": 101.02110937499674,
      "v": 127
    },
    {
      "midi": 67,
      "hit": false,
      "t": 185390.18100000068,
      "d": 180.89826562500093,
      "v": 111
    },
    {
      "midi": 75,
      "hit": false,
      "t": 185390.18100000068,
      "d": 216.13818750000792,
      "v": 119
    },
    {
      "midi": 63,
      "hit": false,
      "t": 185615.71650000068,
      "d": 56.383874999999534,
      "v": 87
    },
    {
      "midi": 72,
      "hit": false,
      "t": 185841.25200000068,
      "d": 63.43185937500675,
      "v": 126
    },
    {
      "midi": 75,
      "hit": false,
      "t": 185841.25200000068,
      "d": 192.64490625000326,
      "v": 127
    },
    {
      "midi": 68,
      "hit": false,
      "t": 186066.78750000068,
      "d": 110.41842187498696,
      "v": 127
    },
    {
      "midi": 72,
      "hit": false,
      "t": 186179.55525000067,
      "d": 333.6045937500021,
      "v": 80
    },
    {
      "midi": 77,
      "hit": false,
      "t": 186292.32300000067,
      "d": 265.47407812500023,
      "v": 89
    },
    {
      "midi": 68,
      "hit": false,
      "t": 186517.85850000067,
      "d": 79.87715625000419,
      "v": 122
    },
    {
      "midi": 67,
      "hit": false,
      "t": 186743.39400000067,
      "d": 192.64490625000326,
      "v": 113
    },
    {
      "midi": 71,
      "hit": false,
      "t": 186743.39400000067,
      "d": 249.0287812500028,
      "v": 127
    },
    {
      "midi": 62,
      "hit": false,
      "t": 186968.92950000067,
      "d": 108.06909375000396,
      "v": 117
    },
    {
      "midi": 67,
      "hit": false,
      "t": 187081.69725000067,
      "d": 432.27637500001583,
      "v": 83
    },
    {
      "midi": 74,
      "hit": false,
      "t": 187194.46500000067,
      "d": 232.58348437500536,
      "v": 113
    },
    {
      "midi": 62,
      "hit": false,
      "t": 187420.00050000066,
      "d": 129.2130468750256,
      "v": 117
    },
    {
      "midi": 67,
      "hit": false,
      "t": 187645.5360000007,
      "d": 77.52782812499208,
      "v": 96
    },
    {
      "midi": 72,
      "hit": false,
      "t": 187645.5360000007,
      "d": 103.37043749997974,
      "v": 106
    },
    {
      "midi": 72,
      "hit": false,
      "t": 187758.30375000066,
      "d": 39.938578125002095,
      "v": 39
    },
    {
      "midi": 63,
      "hit": false,
      "t": 187871.07150000066,
      "d": 117.46640624999418,
      "v": 127
    },
    {
      "midi": 67,
      "hit": false,
      "t": 187983.83925000066,
      "d": 136.26103125000373,
      "v": 60
    },
    {
      "midi": 75,
      "hit": false,
      "t": 188096.60700000066,
      "d": 166.8022968750156,
      "v": 111
    },
    {
      "midi": 63,
      "hit": false,
      "t": 188322.1425000007,
      "d": 91.62379687500652,
      "v": 125
    },
    {
      "midi": 67,
      "hit": false,
      "t": 188547.67800000068,
      "d": 79.87715625000419,
      "v": 91
    },
    {
      "midi": 72,
      "hit": false,
      "t": 188547.67800000068,
      "d": 86.92514062501141,
      "v": 70
    },
    {
      "midi": 63,
      "hit": false,
      "t": 188773.21350000068,
      "d": 101.02110937499674,
      "v": 127
    },
    {
      "midi": 67,
      "hit": false,
      "t": 188998.74900000068,
      "d": 180.89826562500093,
      "v": 111
    },
    {
      "midi": 75,
      "hit": false,
      "t": 188998.74900000068,
      "d": 216.13818750000792,
      "v": 119
    },
    {
      "midi": 63,
      "hit": false,
      "t": 189224.28450000068,
      "d": 56.383874999999534,
      "v": 87
    },
    {
      "midi": 72,
      "hit": false,
      "t": 189449.82000000068,
      "d": 63.43185937500675,
      "v": 126
    },
    {
      "midi": 75,
      "hit": false,
      "t": 189449.82000000068,
      "d": 192.64490625000326,
      "v": 127
    },
    {
      "midi": 68,
      "hit": false,
      "t": 189675.35550000067,
      "d": 110.41842187498696,
      "v": 127
    },
    {
      "midi": 72,
      "hit": false,
      "t": 189788.12325000067,
      "d": 333.6045937500021,
      "v": 80
    },
    {
      "midi": 77,
      "hit": false,
      "t": 189900.89100000067,
      "d": 265.47407812500023,
      "v": 89
    },
    {
      "midi": 68,
      "hit": false,
      "t": 190126.42650000067,
      "d": 79.87715625000419,
      "v": 122
    },
    {
      "midi": 67,
      "hit": false,
      "t": 190351.96200000067,
      "d": 192.64490625000326,
      "v": 113
    },
    {
      "midi": 71,
      "hit": false,
      "t": 190351.96200000067,
      "d": 249.0287812500028,
      "v": 127
    },
    {
      "midi": 62,
      "hit": false,
      "t": 190577.49750000067,
      "d": 108.06909375000396,
      "v": 117
    },
    {
      "midi": 67,
      "hit": false,
      "t": 190690.26525000067,
      "d": 432.27637500001583,
      "v": 83
    },
    {
      "midi": 74,
      "hit": false,
      "t": 190803.03300000067,
      "d": 232.58348437500536,
      "v": 113
    },
    {
      "midi": 62,
      "hit": false,
      "t": 191028.56850000066,
      "d": 129.2130468750256,
      "v": 117
    },
    {
      "midi": 67,
      "hit": false,
      "t": 191254.1040000007,
      "d": 77.52782812499208,
      "v": 96
    },
    {
      "midi": 72,
      "hit": false,
      "t": 191254.1040000007,
      "d": 103.37043749997974,
      "v": 106
    },
    {
      "midi": 72,
      "hit": false,
      "t": 191366.87175000066,
      "d": 39.938578125002095,
      "v": 39
    },
    {
      "midi": 63,
      "hit": false,
      "t": 191479.63950000066,
      "d": 117.46640624999418,
      "v": 127
    },
    {
      "midi": 67,
      "hit": false,
      "t": 191592.40725000066,
      "d": 136.26103125000373,
      "v": 60
    },
    {
      "midi": 75,
      "hit": false,
      "t": 191705.17500000066,
      "d": 166.8022968750156,
      "v": 111
    },
    {
      "midi": 63,
      "hit": false,
      "t": 191930.71050000068,
      "d": 91.62379687500652,
      "v": 125
    },
    {
      "midi": 67,
      "hit": false,
      "t": 192156.24600000068,
      "d": 79.87715625000419,
      "v": 91
    },
    {
      "midi": 72,
      "hit": false,
      "t": 192156.24600000068,
      "d": 86.92514062501141,
      "v": 70
    },
    {
      "midi": 63,
      "hit": false,
      "t": 192381.78150000068,
      "d": 101.02110937499674,
      "v": 127
    },
    {
      "midi": 67,
      "hit": false,
      "t": 192607.31700000068,
      "d": 180.89826562500093,
      "v": 111
    },
    {
      "midi": 75,
      "hit": false,
      "t": 192607.31700000068,
      "d": 216.13818750000792,
      "v": 119
    },
    {
      "midi": 63,
      "hit": false,
      "t": 192832.85250000068,
      "d": 56.383874999999534,
      "v": 87
    },
    {
      "midi": 72,
      "hit": false,
      "t": 193058.38800000068,
      "d": 63.43185937500675,
      "v": 126
    },
    {
      "midi": 75,
      "hit": false,
      "t": 193058.38800000068,
      "d": 192.64490625000326,
      "v": 127
    },
    {
      "midi": 68,
      "hit": false,
      "t": 193283.92350000067,
      "d": 110.41842187498696,
      "v": 127
    },
    {
      "midi": 72,
      "hit": false,
      "t": 193396.69125000067,
      "d": 333.6045937500021,
      "v": 80
    },
    {
      "midi": 77,
      "hit": false,
      "t": 193509.45900000067,
      "d": 265.47407812500023,
      "v": 89
    },
    {
      "midi": 68,
      "hit": false,
      "t": 193734.99450000067,
      "d": 79.87715625000419,
      "v": 122
    },
    {
      "midi": 67,
      "hit": false,
      "t": 193960.53000000067,
      "d": 192.64490625000326,
      "v": 113
    },
    {
      "midi": 71,
      "hit": false,
      "t": 193960.53000000067,
      "d": 249.0287812500028,
      "v": 127
    },
    {
      "midi": 62,
      "hit": false,
      "t": 194186.06550000067,
      "d": 108.06909375000396,
      "v": 117
    },
    {
      "midi": 67,
      "hit": false,
      "t": 194298.83325000067,
      "d": 432.27637500001583,
      "v": 83
    },
    {
      "midi": 74,
      "hit": false,
      "t": 194411.60100000066,
      "d": 232.58348437500536,
      "v": 113
    },
    {
      "midi": 62,
      "hit": false,
      "t": 194637.13650000066,
      "d": 129.2130468750256,
      "v": 117
    },
    {
      "midi": 67,
      "hit": false,
      "t": 194862.6720000007,
      "d": 77.52782812499208,
      "v": 96
    },
    {
      "midi": 72,
      "hit": false,
      "t": 194862.6720000007,
      "d": 103.37043749997974,
      "v": 106
    },
    {
      "midi": 72,
      "hit": false,
      "t": 194975.43975000066,
      "d": 39.938578125002095,
      "v": 39
    },
    {
      "midi": 63,
      "hit": false,
      "t": 195088.20750000066,
      "d": 117.46640624999418,
      "v": 127
    },
    {
      "midi": 67,
      "hit": false,
      "t": 195200.97525000066,
      "d": 136.26103125000373,
      "v": 60
    },
    {
      "midi": 75,
      "hit": false,
      "t": 195313.74300000066,
      "d": 166.8022968750156,
      "v": 111
    },
    {
      "midi": 63,
      "hit": false,
      "t": 195539.27850000068,
      "d": 91.62379687500652,
      "v": 125
    },
    {
      "midi": 67,
      "hit": false,
      "t": 195764.81400000068,
      "d": 79.87715625000419,
      "v": 91
    },
    {
      "midi": 72,
      "hit": false,
      "t": 195764.81400000068,
      "d": 86.92514062501141,
      "v": 70
    },
    {
      "midi": 63,
      "hit": false,
      "t": 195990.34950000068,
      "d": 101.02110937499674,
      "v": 127
    },
    {
      "midi": 67,
      "hit": false,
      "t": 196215.88500000068,
      "d": 180.89826562500093,
      "v": 111
    },
    {
      "midi": 75,
      "hit": false,
      "t": 196215.88500000068,
      "d": 216.13818750000792,
      "v": 119
    },
    {
      "midi": 63,
      "hit": false,
      "t": 196441.42050000068,
      "d": 56.383874999999534,
      "v": 87
    },
    {
      "midi": 72,
      "hit": false,
      "t": 196666.95600000067,
      "d": 63.43185937500675,
      "v": 126
    },
    {
      "midi": 75,
      "hit": false,
      "t": 196666.95600000067,
      "d": 192.64490625000326,
      "v": 127
    },
    {
      "midi": 68,
      "hit": false,
      "t": 196892.49150000067,
      "d": 110.41842187498696,
      "v": 127
    },
    {
      "midi": 72,
      "hit": false,
      "t": 197005.25925000067,
      "d": 333.6045937500021,
      "v": 80
    },
    {
      "midi": 77,
      "hit": false,
      "t": 197118.02700000067,
      "d": 265.47407812500023,
      "v": 89
    },
    {
      "midi": 68,
      "hit": false,
      "t": 197343.56250000067,
      "d": 79.87715625000419,
      "v": 122
    },
    {
      "midi": 67,
      "hit": false,
      "t": 197569.09800000067,
      "d": 192.64490625000326,
      "v": 113
    },
    {
      "midi": 71,
      "hit": false,
      "t": 197569.09800000067,
      "d": 249.0287812500028,
      "v": 127
    },
    {
      "midi": 62,
      "hit": false,
      "t": 197794.63350000067,
      "d": 108.06909375000396,
      "v": 117
    },
    {
      "midi": 67,
      "hit": false,
      "t": 197907.40125000066,
      "d": 432.27637500001583,
      "v": 83
    },
    {
      "midi": 74,
      "hit": false,
      "t": 198020.16900000066,
      "d": 232.58348437500536,
      "v": 113
    },
    {
      "midi": 62,
      "hit": false,
      "t": 198245.70450000066,
      "d": 129.2130468750256,
      "v": 117
    },
    {
      "midi": 48,
      "hit": false,
      "t": 198471.2400000007,
      "d": 169.1516249999986,
      "v": 127
    },
    {
      "midi": 48,
      "hit": false,
      "t": 198922.3110000007,
      "d": 171.5009531250107,
      "v": 127
    },
    {
      "midi": 48,
      "hit": false,
      "t": 199373.38200000068,
      "d": 213.7888593749958,
      "v": 120
    },
    {
      "midi": 48,
      "hit": false,
      "t": 199824.45300000068,
      "d": 251.3781093749858,
      "v": 127
    },
    {
      "midi": 55,
      "hit": false,
      "t": 200049.98850000068,
      "d": 213.7888593749958,
      "v": 103
    },
    {
      "midi": 51,
      "hit": false,
      "t": 200275.52400000067,
      "d": 251.3781093749858,
      "v": 122
    },
    {
      "midi": 51,
      "hit": false,
      "t": 200726.59500000067,
      "d": 270.17273437499534,
      "v": 127
    },
    {
      "midi": 50,
      "hit": false,
      "t": 201177.66600000067,
      "d": 190.29557812499115,
      "v": 127
    },
    {
      "midi": 53,
      "hit": false,
      "t": 201403.20150000066,
      "d": 169.1516249999986,
      "v": 127
    },
    {
      "midi": 50,
      "hit": false,
      "t": 201628.73700000066,
      "d": 213.7888593749958,
      "v": 127
    },
    {
      "midi": 55,
      "hit": false,
      "t": 201854.27250000066,
      "d": 124.5143906250014,
      "v": 113
    },
    {
      "midi": 48,
      "hit": false,
      "t": 202079.80800000066,
      "d": 169.1516249999986,
      "v": 127
    },
    {
      "midi": 48,
      "hit": false,
      "t": 202530.87900000066,
      "d": 171.5009531250107,
      "v": 127
    },
    {
      "midi": 48,
      "hit": false,
      "t": 202981.95000000065,
      "d": 213.7888593749958,
      "v": 120
    },
    {
      "midi": 48,
      "hit": false,
      "t": 203433.02100000065,
      "d": 251.3781093749858,
      "v": 127
    },
    {
      "midi": 55,
      "hit": false,
      "t": 203658.55650000065,
      "d": 213.7888593749958,
      "v": 103
    },
    {
      "midi": 51,
      "hit": false,
      "t": 203884.09200000064,
      "d": 251.3781093749858,
      "v": 122
    },
    {
      "midi": 51,
      "hit": false,
      "t": 204335.16300000064,
      "d": 270.17273437499534,
      "v": 127
    },
    {
      "midi": 50,
      "hit": false,
      "t": 204786.23400000064,
      "d": 190.29557812499115,
      "v": 127
    },
    {
      "midi": 53,
      "hit": false,
      "t": 205011.76950000064,
      "d": 169.1516249999986,
      "v": 127
    },
    {
      "midi": 50,
      "hit": false,
      "t": 205237.30500000063,
      "d": 213.7888593749958,
      "v": 127
    },
    {
      "midi": 55,
      "hit": false,
      "t": 205462.84050000063,
      "d": 124.5143906250014,
      "v": 113
    },
    {
      "midi": 48,
      "hit": false,
      "t": 205688.37600000063,
      "d": 169.1516249999986,
      "v": 127
    },
    {
      "midi": 48,
      "hit": false,
      "t": 206139.44700000063,
      "d": 171.5009531250107,
      "v": 127
    },
    {
      "midi": 48,
      "hit": false,
      "t": 206590.51800000062,
      "d": 213.7888593749958,
      "v": 120
    },
    {
      "midi": 48,
      "hit": false,
      "t": 207041.58900000062,
      "d": 251.3781093749858,
      "v": 127
    },
    {
      "midi": 55,
      "hit": false,
      "t": 207267.12450000062,
      "d": 213.7888593749958,
      "v": 103
    },
    {
      "midi": 51,
      "hit": false,
      "t": 207492.66000000061,
      "d": 251.3781093749858,
      "v": 122
    },
    {
      "midi": 51,
      "hit": false,
      "t": 207943.7310000006,
      "d": 270.17273437499534,
      "v": 127
    },
    {
      "midi": 50,
      "hit": false,
      "t": 208394.8020000006,
      "d": 190.29557812499115,
      "v": 127
    },
    {
      "midi": 53,
      "hit": false,
      "t": 208620.3375000006,
      "d": 169.1516249999986,
      "v": 127
    },
    {
      "midi": 50,
      "hit": false,
      "t": 208845.8730000006,
      "d": 213.7888593749958,
      "v": 127
    },
    {
      "midi": 55,
      "hit": false,
      "t": 209071.4085000006,
      "d": 124.5143906250014,
      "v": 113
    },
    {
      "midi": 48,
      "hit": false,
      "t": 209296.9440000006,
      "d": 169.1516249999986,
      "v": 127
    },
    {
      "midi": 48,
      "hit": false,
      "t": 209748.0150000006,
      "d": 171.5009531250107,
      "v": 127
    },
    {
      "midi": 48,
      "hit": false,
      "t": 210199.0860000006,
      "d": 213.7888593749958,
      "v": 120
    },
    {
      "midi": 48,
      "hit": false,
      "t": 210650.1570000006,
      "d": 251.3781093749858,
      "v": 127
    },
    {
      "midi": 55,
      "hit": false,
      "t": 210875.6925000006,
      "d": 213.7888593749958,
      "v": 103
    },
    {
      "midi": 51,
      "hit": false,
      "t": 211101.22800000058,
      "d": 251.3781093749858,
      "v": 122
    },
    {
      "midi": 51,
      "hit": false,
      "t": 211552.29900000058,
      "d": 270.17273437499534,
      "v": 127
    },
    {
      "midi": 50,
      "hit": false,
      "t": 212003.37000000058,
      "d": 190.29557812499115,
      "v": 127
    },
    {
      "midi": 53,
      "hit": false,
      "t": 212228.90550000058,
      "d": 169.1516249999986,
      "v": 127
    },
    {
      "midi": 50,
      "hit": false,
      "t": 212454.44100000057,
      "d": 213.7888593749958,
      "v": 127
    },
    {
      "midi": 55,
      "hit": false,
      "t": 212679.97650000057,
      "d": 124.5143906250014,
      "v": 113
    },
    {
      "midi": 67,
      "hit": false,
      "t": 212905.512,
      "d": 86.92514062501141,
      "v": 117
    },
    {
      "midi": 72,
      "hit": false,
      "t": 212905.512,
      "d": 225.53549999999814,
      "v": 127
    },
    {
      "midi": 79,
      "hit": false,
      "t": 212905.51200000057,
      "d": 86.92514062501141,
      "v": 117
    },
    {
      "midi": 84,
      "hit": false,
      "t": 212905.51200000057,
      "d": 225.53549999999814,
      "v": 127
    },
    {
      "midi": 63,
      "hit": false,
      "t": 213131.0475,
      "d": 112.76774999999907,
      "v": 127
    },
    {
      "midi": 75,
      "hit": false,
      "t": 213131.04750000057,
      "d": 112.76774999999907,
      "v": 127
    },
    {
      "midi": 67,
      "hit": false,
      "t": 213243.81524999999,
      "d": 249.0287812500028,
      "v": 68
    },
    {
      "midi": 79,
      "hit": false,
      "t": 213243.81525000057,
      "d": 249.0287812500028,
      "v": 68
    },
    {
      "midi": 75,
      "hit": false,
      "t": 213356.58299999998,
      "d": 204.3915468750056,
      "v": 94
    },
    {
      "midi": 87,
      "hit": false,
      "t": 213356.58300000057,
      "d": 204.3915468750056,
      "v": 94
    },
    {
      "midi": 63,
      "hit": false,
      "t": 213582.11849999998,
      "d": 112.76774999999907,
      "v": 119
    },
    {
      "midi": 75,
      "hit": false,
      "t": 213582.11850000056,
      "d": 112.76774999999907,
      "v": 119
    },
    {
      "midi": 67,
      "hit": false,
      "t": 213807.65399999998,
      "d": 173.8502812499937,
      "v": 98
    },
    {
      "midi": 72,
      "hit": false,
      "t": 213807.65399999998,
      "d": 263.1247499999881,
      "v": 108
    },
    {
      "midi": 79,
      "hit": false,
      "t": 213807.65400000056,
      "d": 173.8502812499937,
      "v": 98
    },
    {
      "midi": 84,
      "hit": false,
      "t": 213807.65400000056,
      "d": 263.1247499999881,
      "v": 108
    },
    {
      "midi": 63,
      "hit": false,
      "t": 214033.18949999998,
      "d": 93.97312499998952,
      "v": 84
    },
    {
      "midi": 75,
      "hit": false,
      "t": 214033.18950000056,
      "d": 93.97312499998952,
      "v": 84
    },
    {
      "midi": 67,
      "hit": false,
      "t": 214145.95724999998,
      "d": 366.495187499997,
      "v": 72
    },
    {
      "midi": 79,
      "hit": false,
      "t": 214145.95725000056,
      "d": 366.495187499997,
      "v": 72
    },
    {
      "midi": 74,
      "hit": false,
      "t": 214258.72499999998,
      "d": 223.18617187498603,
      "v": 113
    },
    {
      "midi": 86,
      "hit": false,
      "t": 214258.72500000056,
      "d": 223.18617187498603,
      "v": 113
    },
    {
      "midi": 62,
      "hit": false,
      "t": 214484.26049999997,
      "d": 112.76774999999907,
      "v": 62
    },
    {
      "midi": 74,
      "hit": false,
      "t": 214484.26050000056,
      "d": 112.76774999999907,
      "v": 62
    },
    {
      "midi": 67,
      "hit": false,
      "t": 214709.79599999997,
      "d": 199.69289062501048,
      "v": 96
    },
    {
      "midi": 71,
      "hit": false,
      "t": 214709.79599999997,
      "d": 227.88482812501024,
      "v": 127
    },
    {
      "midi": 79,
      "hit": false,
      "t": 214709.79600000056,
      "d": 199.69289062501048,
      "v": 96
    },
    {
      "midi": 83,
      "hit": false,
      "t": 214709.79600000056,
      "d": 227.88482812501024,
      "v": 127
    },
    {
      "midi": 62,
      "hit": false,
      "t": 214935.33149999997,
      "d": 122.16506249998929,
      "v": 91
    },
    {
      "midi": 74,
      "hit": false,
      "t": 214935.33150000055,
      "d": 122.16506249998929,
      "v": 91
    },
    {
      "midi": 67,
      "hit": false,
      "t": 215048.09924999997,
      "d": 373.5431718750042,
      "v": 51
    },
    {
      "midi": 79,
      "hit": false,
      "t": 215048.09925000055,
      "d": 373.5431718750042,
      "v": 51
    },
    {
      "midi": 74,
      "hit": false,
      "t": 215160.86699999997,
      "d": 227.88482812501024,
      "v": 111
    },
    {
      "midi": 86,
      "hit": false,
      "t": 215160.86700000055,
      "d": 227.88482812501024,
      "v": 111
    },
    {
      "midi": 62,
      "hit": false,
      "t": 215386.40249999997,
      "d": 138.61035937501583,
      "v": 103
    },
    {
      "midi": 74,
      "hit": false,
      "t": 215386.40250000055,
      "d": 138.61035937501583,
      "v": 103
    },
    {
      "midi": 67,
      "hit": false,
      "t": 215611.938,
      "d": 197.34356249999837,
      "v": 98
    },
    {
      "midi": 71,
      "hit": false,
      "t": 215611.938,
      "d": 256.07676562501,
      "v": 126
    },
    {
      "midi": 79,
      "hit": false,
      "t": 215611.93800000058,
      "d": 197.34356249999837,
      "v": 98
    },
    {
      "midi": 83,
      "hit": false,
      "t": 215611.93800000058,
      "d": 256.07676562501,
      "v": 126
    },
    {
      "midi": 62,
      "hit": false,
      "t": 215837.4735,
      "d": 112.76774999999907,
      "v": 93
    },
    {
      "midi": 74,
      "hit": false,
      "t": 215837.47350000057,
      "d": 112.76774999999907,
      "v": 93
    },
    {
      "midi": 67,
      "hit": false,
      "t": 216063.009,
      "d": 180.89826562500093,
      "v": 52
    },
    {
      "midi": 72,
      "hit": false,
      "t": 216063.009,
      "d": 241.98079687499558,
      "v": 117
    },
    {
      "midi": 79,
      "hit": false,
      "t": 216063.00900000057,
      "d": 180.89826562500093,
      "v": 52
    },
    {
      "midi": 84,
      "hit": false,
      "t": 216063.00900000057,
      "d": 241.98079687499558,
      "v": 117
    },
    {
      "midi": 63,
      "hit": false,
      "t": 216288.5445,
      "d": 108.06909375000396,
      "v": 87
    },
    {
      "midi": 75,
      "hit": false,
      "t": 216288.54450000057,
      "d": 108.06909375000396,
      "v": 87
    },
    {
      "midi": 67,
      "hit": false,
      "t": 216514.08,
      "d": 86.92514062501141,
      "v": 117
    },
    {
      "midi": 72,
      "hit": false,
      "t": 216514.08,
      "d": 225.53549999999814,
      "v": 127
    },
    {
      "midi": 79,
      "hit": false,
      "t": 216514.08000000057,
      "d": 86.92514062501141,
      "v": 117
    },
    {
      "midi": 84,
      "hit": false,
      "t": 216514.08000000057,
      "d": 225.53549999999814,
      "v": 127
    },
    {
      "midi": 63,
      "hit": false,
      "t": 216739.61549999999,
      "d": 112.76774999999907,
      "v": 127
    },
    {
      "midi": 75,
      "hit": false,
      "t": 216739.61550000057,
      "d": 112.76774999999907,
      "v": 127
    },
    {
      "midi": 67,
      "hit": false,
      "t": 216852.38324999998,
      "d": 249.0287812500028,
      "v": 68
    },
    {
      "midi": 79,
      "hit": false,
      "t": 216852.38325000057,
      "d": 249.0287812500028,
      "v": 68
    },
    {
      "midi": 75,
      "hit": false,
      "t": 216965.15099999998,
      "d": 204.3915468750056,
      "v": 94
    },
    {
      "midi": 87,
      "hit": false,
      "t": 216965.15100000057,
      "d": 204.3915468750056,
      "v": 94
    },
    {
      "midi": 63,
      "hit": false,
      "t": 217190.68649999998,
      "d": 112.76774999999907,
      "v": 119
    },
    {
      "midi": 75,
      "hit": false,
      "t": 217190.68650000056,
      "d": 112.76774999999907,
      "v": 119
    },
    {
      "midi": 67,
      "hit": false,
      "t": 217416.22199999998,
      "d": 173.8502812499937,
      "v": 98
    },
    {
      "midi": 72,
      "hit": false,
      "t": 217416.22199999998,
      "d": 263.1247499999881,
      "v": 108
    },
    {
      "midi": 79,
      "hit": false,
      "t": 217416.22200000056,
      "d": 173.8502812499937,
      "v": 98
    },
    {
      "midi": 84,
      "hit": false,
      "t": 217416.22200000056,
      "d": 263.1247499999881,
      "v": 108
    },
    {
      "midi": 63,
      "hit": false,
      "t": 217641.75749999998,
      "d": 93.97312499998952,
      "v": 84
    },
    {
      "midi": 75,
      "hit": false,
      "t": 217641.75750000056,
      "d": 93.97312499998952,
      "v": 84
    },
    {
      "midi": 67,
      "hit": false,
      "t": 217754.52524999998,
      "d": 366.495187499997,
      "v": 72
    },
    {
      "midi": 79,
      "hit": false,
      "t": 217754.52525000056,
      "d": 366.495187499997,
      "v": 72
    },
    {
      "midi": 74,
      "hit": false,
      "t": 217867.29299999998,
      "d": 223.18617187498603,
      "v": 113
    },
    {
      "midi": 86,
      "hit": false,
      "t": 217867.29300000056,
      "d": 223.18617187498603,
      "v": 113
    },
    {
      "midi": 62,
      "hit": false,
      "t": 218092.82849999997,
      "d": 112.76774999999907,
      "v": 62
    },
    {
      "midi": 74,
      "hit": false,
      "t": 218092.82850000056,
      "d": 112.76774999999907,
      "v": 62
    },
    {
      "midi": 67,
      "hit": false,
      "t": 218318.36399999997,
      "d": 199.69289062501048,
      "v": 96
    },
    {
      "midi": 71,
      "hit": false,
      "t": 218318.36399999997,
      "d": 227.88482812501024,
      "v": 127
    },
    {
      "midi": 79,
      "hit": false,
      "t": 218318.36400000055,
      "d": 199.69289062501048,
      "v": 96
    },
    {
      "midi": 83,
      "hit": false,
      "t": 218318.36400000055,
      "d": 227.88482812501024,
      "v": 127
    },
    {
      "midi": 62,
      "hit": false,
      "t": 218543.89949999997,
      "d": 122.16506249998929,
      "v": 91
    },
    {
      "midi": 74,
      "hit": false,
      "t": 218543.89950000055,
      "d": 122.16506249998929,
      "v": 91
    },
    {
      "midi": 67,
      "hit": false,
      "t": 218656.66724999997,
      "d": 373.5431718750042,
      "v": 51
    },
    {
      "midi": 79,
      "hit": false,
      "t": 218656.66725000055,
      "d": 373.5431718750042,
      "v": 51
    },
    {
      "midi": 74,
      "hit": false,
      "t": 218769.43499999997,
      "d": 227.88482812501024,
      "v": 111
    },
    {
      "midi": 86,
      "hit": false,
      "t": 218769.43500000055,
      "d": 227.88482812501024,
      "v": 111
    },
    {
      "midi": 62,
      "hit": false,
      "t": 218994.97049999997,
      "d": 138.61035937501583,
      "v": 103
    },
    {
      "midi": 74,
      "hit": false,
      "t": 218994.97050000055,
      "d": 138.61035937501583,
      "v": 103
    },
    {
      "midi": 67,
      "hit": false,
      "t": 219220.506,
      "d": 197.34356249999837,
      "v": 98
    },
    {
      "midi": 71,
      "hit": false,
      "t": 219220.506,
      "d": 256.07676562501,
      "v": 126
    },
    {
      "midi": 79,
      "hit": false,
      "t": 219220.50600000058,
      "d": 197.34356249999837,
      "v": 98
    },
    {
      "midi": 83,
      "hit": false,
      "t": 219220.50600000058,
      "d": 256.07676562501,
      "v": 126
    },
    {
      "midi": 62,
      "hit": false,
      "t": 219446.0415,
      "d": 112.76774999999907,
      "v": 93
    },
    {
      "midi": 74,
      "hit": false,
      "t": 219446.04150000057,
      "d": 112.76774999999907,
      "v": 93
    },
    {
      "midi": 67,
      "hit": false,
      "t": 219671.577,
      "d": 180.89826562500093,
      "v": 52
    },
    {
      "midi": 72,
      "hit": false,
      "t": 219671.577,
      "d": 241.98079687499558,
      "v": 117
    },
    {
      "midi": 79,
      "hit": false,
      "t": 219671.57700000057,
      "d": 180.89826562500093,
      "v": 52
    },
    {
      "midi": 84,
      "hit": false,
      "t": 219671.57700000057,
      "d": 241.98079687499558,
      "v": 117
    },
    {
      "midi": 63,
      "hit": false,
      "t": 219897.1125,
      "d": 108.06909375000396,
      "v": 87
    },
    {
      "midi": 75,
      "hit": false,
      "t": 219897.11250000057,
      "d": 108.06909375000396,
      "v": 87
    },
    {
      "midi": 67,
      "hit": false,
      "t": 220122.648,
      "d": 86.92514062501141,
      "v": 117
    },
    {
      "midi": 72,
      "hit": false,
      "t": 220122.648,
      "d": 225.53549999999814,
      "v": 127
    },
    {
      "midi": 79,
      "hit": false,
      "t": 220122.64800000057,
      "d": 86.92514062501141,
      "v": 117
    },
    {
      "midi": 84,
      "hit": false,
      "t": 220122.64800000057,
      "d": 225.53549999999814,
      "v": 127
    },
    {
      "midi": 63,
      "hit": false,
      "t": 220348.18349999998,
      "d": 112.76774999999907,
      "v": 127
    },
    {
      "midi": 75,
      "hit": false,
      "t": 220348.18350000057,
      "d": 112.76774999999907,
      "v": 127
    },
    {
      "midi": 67,
      "hit": false,
      "t": 220460.95124999998,
      "d": 249.0287812500028,
      "v": 68
    },
    {
      "midi": 79,
      "hit": false,
      "t": 220460.95125000057,
      "d": 249.0287812500028,
      "v": 68
    },
    {
      "midi": 75,
      "hit": false,
      "t": 220573.71899999998,
      "d": 204.3915468750056,
      "v": 94
    },
    {
      "midi": 87,
      "hit": false,
      "t": 220573.71900000056,
      "d": 204.3915468750056,
      "v": 94
    },
    {
      "midi": 63,
      "hit": false,
      "t": 220799.25449999998,
      "d": 112.76774999999907,
      "v": 119
    },
    {
      "midi": 75,
      "hit": false,
      "t": 220799.25450000056,
      "d": 112.76774999999907,
      "v": 119
    },
    {
      "midi": 67,
      "hit": false,
      "t": 221024.78999999998,
      "d": 173.8502812499937,
      "v": 98
    },
    {
      "midi": 72,
      "hit": false,
      "t": 221024.78999999998,
      "d": 263.1247499999881,
      "v": 108
    },
    {
      "midi": 79,
      "hit": false,
      "t": 221024.79000000056,
      "d": 173.8502812499937,
      "v": 98
    },
    {
      "midi": 84,
      "hit": false,
      "t": 221024.79000000056,
      "d": 263.1247499999881,
      "v": 108
    },
    {
      "midi": 63,
      "hit": false,
      "t": 221250.32549999998,
      "d": 93.97312499998952,
      "v": 84
    },
    {
      "midi": 75,
      "hit": false,
      "t": 221250.32550000056,
      "d": 93.97312499998952,
      "v": 84
    },
    {
      "midi": 67,
      "hit": false,
      "t": 221363.09324999998,
      "d": 366.495187499997,
      "v": 72
    },
    {
      "midi": 79,
      "hit": false,
      "t": 221363.09325000056,
      "d": 366.495187499997,
      "v": 72
    },
    {
      "midi": 74,
      "hit": false,
      "t": 221475.86099999998,
      "d": 223.18617187498603,
      "v": 113
    },
    {
      "midi": 86,
      "hit": false,
      "t": 221475.86100000056,
      "d": 223.18617187498603,
      "v": 113
    },
    {
      "midi": 62,
      "hit": false,
      "t": 221701.39649999997,
      "d": 112.76774999999907,
      "v": 62
    },
    {
      "midi": 74,
      "hit": false,
      "t": 221701.39650000056,
      "d": 112.76774999999907,
      "v": 62
    },
    {
      "midi": 67,
      "hit": false,
      "t": 221926.93199999997,
      "d": 199.69289062501048,
      "v": 96
    },
    {
      "midi": 71,
      "hit": false,
      "t": 221926.93199999997,
      "d": 227.88482812501024,
      "v": 127
    },
    {
      "midi": 79,
      "hit": false,
      "t": 221926.93200000055,
      "d": 199.69289062501048,
      "v": 96
    },
    {
      "midi": 83,
      "hit": false,
      "t": 221926.93200000055,
      "d": 227.88482812501024,
      "v": 127
    },
    {
      "midi": 62,
      "hit": false,
      "t": 222152.46749999997,
      "d": 122.16506249998929,
      "v": 91
    },
    {
      "midi": 74,
      "hit": false,
      "t": 222152.46750000055,
      "d": 122.16506249998929,
      "v": 91
    },
    {
      "midi": 67,
      "hit": false,
      "t": 222265.23524999997,
      "d": 373.5431718750042,
      "v": 51
    },
    {
      "midi": 79,
      "hit": false,
      "t": 222265.23525000055,
      "d": 373.5431718750042,
      "v": 51
    },
    {
      "midi": 74,
      "hit": false,
      "t": 222378.00299999997,
      "d": 227.88482812501024,
      "v": 111
    },
    {
      "midi": 86,
      "hit": false,
      "t": 222378.00300000055,
      "d": 227.88482812501024,
      "v": 111
    },
    {
      "midi": 62,
      "hit": false,
      "t": 222603.53849999997,
      "d": 138.61035937501583,
      "v": 103
    },
    {
      "midi": 74,
      "hit": false,
      "t": 222603.53850000055,
      "d": 138.61035937501583,
      "v": 103
    },
    {
      "midi": 67,
      "hit": false,
      "t": 222829.074,
      "d": 197.34356249999837,
      "v": 98
    },
    {
      "midi": 71,
      "hit": false,
      "t": 222829.074,
      "d": 256.07676562501,
      "v": 126
    },
    {
      "midi": 79,
      "hit": false,
      "t": 222829.07400000058,
      "d": 197.34356249999837,
      "v": 98
    },
    {
      "midi": 83,
      "hit": false,
      "t": 222829.07400000058,
      "d": 256.07676562501,
      "v": 126
    },
    {
      "midi": 62,
      "hit": false,
      "t": 223054.6095,
      "d": 112.76774999999907,
      "v": 93
    },
    {
      "midi": 74,
      "hit": false,
      "t": 223054.60950000057,
      "d": 112.76774999999907,
      "v": 93
    },
    {
      "midi": 67,
      "hit": false,
      "t": 223280.145,
      "d": 180.89826562500093,
      "v": 52
    },
    {
      "midi": 72,
      "hit": false,
      "t": 223280.145,
      "d": 241.98079687499558,
      "v": 117
    },
    {
      "midi": 79,
      "hit": false,
      "t": 223280.14500000057,
      "d": 180.89826562500093,
      "v": 52
    },
    {
      "midi": 84,
      "hit": false,
      "t": 223280.14500000057,
      "d": 241.98079687499558,
      "v": 117
    },
    {
      "midi": 63,
      "hit": false,
      "t": 223505.6805,
      "d": 108.06909375000396,
      "v": 87
    },
    {
      "midi": 75,
      "hit": false,
      "t": 223505.68050000057,
      "d": 108.06909375000396,
      "v": 87
    },
    {
      "midi": 67,
      "hit": false,
      "t": 223731.216,
      "d": 86.92514062501141,
      "v": 117
    },
    {
      "midi": 72,
      "hit": false,
      "t": 223731.216,
      "d": 225.53549999999814,
      "v": 127
    },
    {
      "midi": 79,
      "hit": false,
      "t": 223731.21600000057,
      "d": 86.92514062501141,
      "v": 117
    },
    {
      "midi": 84,
      "hit": false,
      "t": 223731.21600000057,
      "d": 225.53549999999814,
      "v": 127
    },
    {
      "midi": 63,
      "hit": false,
      "t": 223956.75149999998,
      "d": 112.76774999999907,
      "v": 127
    },
    {
      "midi": 75,
      "hit": false,
      "t": 223956.75150000057,
      "d": 112.76774999999907,
      "v": 127
    },
    {
      "midi": 67,
      "hit": false,
      "t": 224069.51924999998,
      "d": 249.0287812500028,
      "v": 68
    },
    {
      "midi": 79,
      "hit": false,
      "t": 224069.51925000057,
      "d": 249.0287812500028,
      "v": 68
    },
    {
      "midi": 75,
      "hit": false,
      "t": 224182.28699999998,
      "d": 204.3915468750056,
      "v": 94
    },
    {
      "midi": 87,
      "hit": false,
      "t": 224182.28700000056,
      "d": 204.3915468750056,
      "v": 94
    },
    {
      "midi": 63,
      "hit": false,
      "t": 224407.82249999998,
      "d": 112.76774999999907,
      "v": 119
    },
    {
      "midi": 75,
      "hit": false,
      "t": 224407.82250000056,
      "d": 112.76774999999907,
      "v": 119
    },
    {
      "midi": 67,
      "hit": false,
      "t": 224633.35799999998,
      "d": 173.8502812499937,
      "v": 98
    },
    {
      "midi": 72,
      "hit": false,
      "t": 224633.35799999998,
      "d": 263.1247499999881,
      "v": 108
    },
    {
      "midi": 79,
      "hit": false,
      "t": 224633.35800000056,
      "d": 173.8502812499937,
      "v": 98
    },
    {
      "midi": 84,
      "hit": false,
      "t": 224633.35800000056,
      "d": 263.1247499999881,
      "v": 108
    },
    {
      "midi": 63,
      "hit": false,
      "t": 224858.89349999998,
      "d": 93.97312499998952,
      "v": 84
    },
    {
      "midi": 75,
      "hit": false,
      "t": 224858.89350000056,
      "d": 93.97312499998952,
      "v": 84
    },
    {
      "midi": 67,
      "hit": false,
      "t": 224971.66124999998,
      "d": 366.495187499997,
      "v": 72
    },
    {
      "midi": 79,
      "hit": false,
      "t": 224971.66125000056,
      "d": 366.495187499997,
      "v": 72
    },
    {
      "midi": 74,
      "hit": false,
      "t": 225084.42899999997,
      "d": 223.18617187498603,
      "v": 113
    },
    {
      "midi": 86,
      "hit": false,
      "t": 225084.42900000056,
      "d": 223.18617187498603,
      "v": 113
    },
    {
      "midi": 62,
      "hit": false,
      "t": 225309.96449999997,
      "d": 112.76774999999907,
      "v": 62
    },
    {
      "midi": 74,
      "hit": false,
      "t": 225309.96450000055,
      "d": 112.76774999999907,
      "v": 62
    },
    {
      "midi": 67,
      "hit": false,
      "t": 225535.49999999997,
      "d": 199.69289062501048,
      "v": 96
    },
    {
      "midi": 71,
      "hit": false,
      "t": 225535.49999999997,
      "d": 227.88482812501024,
      "v": 127
    },
    {
      "midi": 79,
      "hit": false,
      "t": 225535.50000000055,
      "d": 199.69289062501048,
      "v": 96
    },
    {
      "midi": 83,
      "hit": false,
      "t": 225535.50000000055,
      "d": 227.88482812501024,
      "v": 127
    },
    {
      "midi": 62,
      "hit": false,
      "t": 225761.03549999997,
      "d": 122.16506249998929,
      "v": 91
    },
    {
      "midi": 74,
      "hit": false,
      "t": 225761.03550000055,
      "d": 122.16506249998929,
      "v": 91
    },
    {
      "midi": 67,
      "hit": false,
      "t": 225873.80324999997,
      "d": 373.5431718750042,
      "v": 51
    },
    {
      "midi": 79,
      "hit": false,
      "t": 225873.80325000055,
      "d": 373.5431718750042,
      "v": 51
    },
    {
      "midi": 74,
      "hit": false,
      "t": 225986.57099999997,
      "d": 227.88482812501024,
      "v": 111
    },
    {
      "midi": 86,
      "hit": false,
      "t": 225986.57100000055,
      "d": 227.88482812501024,
      "v": 111
    },
    {
      "midi": 62,
      "hit": false,
      "t": 226212.10649999997,
      "d": 138.61035937501583,
      "v": 103
    },
    {
      "midi": 74,
      "hit": false,
      "t": 226212.10650000055,
      "d": 138.61035937501583,
      "v": 103
    },
    {
      "midi": 67,
      "hit": false,
      "t": 226437.642,
      "d": 197.34356249999837,
      "v": 98
    },
    {
      "midi": 71,
      "hit": false,
      "t": 226437.642,
      "d": 256.07676562501,
      "v": 126
    },
    {
      "midi": 79,
      "hit": false,
      "t": 226437.64200000057,
      "d": 197.34356249999837,
      "v": 98
    },
    {
      "midi": 83,
      "hit": false,
      "t": 226437.64200000057,
      "d": 256.07676562501,
      "v": 126
    },
    {
      "midi": 62,
      "hit": false,
      "t": 226663.1775,
      "d": 112.76774999999907,
      "v": 93
    },
    {
      "midi": 74,
      "hit": false,
      "t": 226663.17750000057,
      "d": 112.76774999999907,
      "v": 93
    },
    {
      "midi": 67,
      "hit": false,
      "t": 226888.713,
      "d": 180.89826562500093,
      "v": 52
    },
    {
      "midi": 72,
      "hit": false,
      "t": 226888.713,
      "d": 241.98079687499558,
      "v": 117
    },
    {
      "midi": 79,
      "hit": false,
      "t": 226888.71300000057,
      "d": 180.89826562500093,
      "v": 52
    },
    {
      "midi": 84,
      "hit": false,
      "t": 226888.71300000057,
      "d": 241.98079687499558,
      "v": 117
    },
    {
      "midi": 63,
      "hit": false,
      "t": 227114.2485,
      "d": 108.06909375000396,
      "v": 87
    },
    {
      "midi": 75,
      "hit": false,
      "t": 227114.24850000057,
      "d": 108.06909375000396,
      "v": 87
    },
    {
      "midi": 67,
      "hit": false,
      "t": 227339.78399999999,
      "d": 86.92514062501141,
      "v": 117
    },
    {
      "midi": 72,
      "hit": false,
      "t": 227339.78399999999,
      "d": 225.53549999999814,
      "v": 127
    },
    {
      "midi": 79,
      "hit": false,
      "t": 227339.78400000057,
      "d": 86.92514062501141,
      "v": 117
    },
    {
      "midi": 84,
      "hit": false,
      "t": 227339.78400000057,
      "d": 225.53549999999814,
      "v": 127
    },
    {
      "midi": 63,
      "hit": false,
      "t": 227565.31949999998,
      "d": 112.76774999999907,
      "v": 127
    },
    {
      "midi": 75,
      "hit": false,
      "t": 227565.31950000057,
      "d": 112.76774999999907,
      "v": 127
    },
    {
      "midi": 67,
      "hit": false,
      "t": 227678.08724999998,
      "d": 249.0287812500028,
      "v": 68
    },
    {
      "midi": 79,
      "hit": false,
      "t": 227678.08725000056,
      "d": 249.0287812500028,
      "v": 68
    },
    {
      "midi": 75,
      "hit": false,
      "t": 227790.85499999998,
      "d": 204.3915468750056,
      "v": 94
    },
    {
      "midi": 87,
      "hit": false,
      "t": 227790.85500000056,
      "d": 204.3915468750056,
      "v": 94
    },
    {
      "midi": 63,
      "hit": false,
      "t": 228016.39049999998,
      "d": 112.76774999999907,
      "v": 119
    },
    {
      "midi": 75,
      "hit": false,
      "t": 228016.39050000056,
      "d": 112.76774999999907,
      "v": 119
    },
    {
      "midi": 67,
      "hit": false,
      "t": 228241.92599999998,
      "d": 173.8502812499937,
      "v": 98
    },
    {
      "midi": 72,
      "hit": false,
      "t": 228241.92599999998,
      "d": 263.1247499999881,
      "v": 108
    },
    {
      "midi": 79,
      "hit": false,
      "t": 228241.92600000056,
      "d": 173.8502812499937,
      "v": 98
    },
    {
      "midi": 84,
      "hit": false,
      "t": 228241.92600000056,
      "d": 263.1247499999881,
      "v": 108
    },
    {
      "midi": 63,
      "hit": false,
      "t": 228467.46149999998,
      "d": 93.97312499998952,
      "v": 84
    },
    {
      "midi": 75,
      "hit": false,
      "t": 228467.46150000056,
      "d": 93.97312499998952,
      "v": 84
    },
    {
      "midi": 67,
      "hit": false,
      "t": 228580.22924999997,
      "d": 366.495187499997,
      "v": 72
    },
    {
      "midi": 79,
      "hit": false,
      "t": 228580.22925000056,
      "d": 366.495187499997,
      "v": 72
    },
    {
      "midi": 74,
      "hit": false,
      "t": 228692.99699999997,
      "d": 223.18617187498603,
      "v": 113
    },
    {
      "midi": 86,
      "hit": false,
      "t": 228692.99700000056,
      "d": 223.18617187498603,
      "v": 113
    },
    {
      "midi": 62,
      "hit": false,
      "t": 228918.53249999997,
      "d": 112.76774999999907,
      "v": 62
    },
    {
      "midi": 74,
      "hit": false,
      "t": 228918.53250000055,
      "d": 112.76774999999907,
      "v": 62
    },
    {
      "midi": 65,
      "hit": false,
      "t": 229144.06799999997,
      "d": 199.69289062501048,
      "v": 96
    },
    {
      "midi": 68,
      "hit": false,
      "t": 229144.06799999997,
      "d": 227.88482812501024,
      "v": 127
    },
    {
      "midi": 77,
      "hit": false,
      "t": 229144.06800000055,
      "d": 199.69289062501048,
      "v": 96
    },
    {
      "midi": 80,
      "hit": false,
      "t": 229144.06800000055,
      "d": 227.88482812501024,
      "v": 127
    },
    {
      "midi": 60,
      "hit": false,
      "t": 229369.60349999997,
      "d": 122.16506249998929,
      "v": 91
    },
    {
      "midi": 72,
      "hit": false,
      "t": 229369.60350000055,
      "d": 122.16506249998929,
      "v": 91
    },
    {
      "midi": 65,
      "hit": false,
      "t": 229482.37124999997,
      "d": 373.5431718750042,
      "v": 51
    },
    {
      "midi": 77,
      "hit": false,
      "t": 229482.37125000055,
      "d": 373.5431718750042,
      "v": 51
    },
    {
      "midi": 68,
      "hit": false,
      "t": 229595.13899999997,
      "d": 227.88482812501024,
      "v": 111
    },
    {
      "midi": 80,
      "hit": false,
      "t": 229595.13900000055,
      "d": 227.88482812501024,
      "v": 111
    },
    {
      "midi": 60,
      "hit": false,
      "t": 229820.67449999996,
      "d": 138.61035937501583,
      "v": 103
    },
    {
      "midi": 72,
      "hit": false,
      "t": 229820.67450000055,
      "d": 138.61035937501583,
      "v": 103
    },
    {
      "midi": 67,
      "hit": false,
      "t": 230046.21,
      "d": 197.34356249999837,
      "v": 98
    },
    {
      "midi": 71,
      "hit": false,
      "t": 230046.21,
      "d": 256.07676562501,
      "v": 126
    },
    {
      "midi": 79,
      "hit": false,
      "t": 230046.21000000057,
      "d": 197.34356249999837,
      "v": 98
    },
    {
      "midi": 83,
      "hit": false,
      "t": 230046.21000000057,
      "d": 256.07676562501,
      "v": 126
    },
    {
      "midi": 62,
      "hit": false,
      "t": 230271.7455,
      "d": 112.76774999999907,
      "v": 93
    },
    {
      "midi": 74,
      "hit": false,
      "t": 230271.74550000057,
      "d": 112.76774999999907,
      "v": 93
    },
    {
      "midi": 67,
      "hit": false,
      "t": 230497.281,
      "d": 180.89826562500093,
      "v": 52
    },
    {
      "midi": 72,
      "hit": false,
      "t": 230497.281,
      "d": 241.98079687499558,
      "v": 117
    },
    {
      "midi": 79,
      "hit": false,
      "t": 230497.28100000057,
      "d": 180.89826562500093,
      "v": 52
    },
    {
      "midi": 84,
      "hit": false,
      "t": 230497.28100000057,
      "d": 241.98079687499558,
      "v": 117
    },
    {
      "midi": 63,
      "hit": false,
      "t": 230722.8165,
      "d": 108.06909375000396,
      "v": 87
    },
    {
      "midi": 75,
      "hit": false,
      "t": 230722.81650000057,
      "d": 108.06909375000396,
      "v": 87
    },
    {
      "midi": 67,
      "hit": false,
      "t": 230948.35199999998,
      "d": 86.92514062501141,
      "v": 117
    },
    {
      "midi": 72,
      "hit": false,
      "t": 230948.35199999998,
      "d": 225.53549999999814,
      "v": 127
    },
    {
      "midi": 79,
      "hit": false,
      "t": 230948.35200000057,
      "d": 86.92514062501141,
      "v": 117
    },
    {
      "midi": 84,
      "hit": false,
      "t": 230948.35200000057,
      "d": 225.53549999999814,
      "v": 127
    },
    {
      "midi": 63,
      "hit": false,
      "t": 231173.88749999998,
      "d": 112.76774999999907,
      "v": 127
    },
    {
      "midi": 75,
      "hit": false,
      "t": 231173.88750000056,
      "d": 112.76774999999907,
      "v": 127
    },
    {
      "midi": 67,
      "hit": false,
      "t": 231286.65524999998,
      "d": 249.0287812500028,
      "v": 68
    },
    {
      "midi": 79,
      "hit": false,
      "t": 231286.65525000056,
      "d": 249.0287812500028,
      "v": 68
    },
    {
      "midi": 75,
      "hit": false,
      "t": 231399.42299999998,
      "d": 204.3915468750056,
      "v": 94
    },
    {
      "midi": 87,
      "hit": false,
      "t": 231399.42300000056,
      "d": 204.3915468750056,
      "v": 94
    },
    {
      "midi": 63,
      "hit": false,
      "t": 231624.95849999998,
      "d": 112.76774999999907,
      "v": 119
    },
    {
      "midi": 75,
      "hit": false,
      "t": 231624.95850000056,
      "d": 112.76774999999907,
      "v": 119
    },
    {
      "midi": 67,
      "hit": false,
      "t": 231850.49399999998,
      "d": 173.8502812499937,
      "v": 98
    },
    {
      "midi": 72,
      "hit": false,
      "t": 231850.49399999998,
      "d": 263.1247499999881,
      "v": 108
    },
    {
      "midi": 79,
      "hit": false,
      "t": 231850.49400000056,
      "d": 173.8502812499937,
      "v": 98
    },
    {
      "midi": 84,
      "hit": false,
      "t": 231850.49400000056,
      "d": 263.1247499999881,
      "v": 108
    },
    {
      "midi": 63,
      "hit": false,
      "t": 232076.02949999998,
      "d": 93.97312499998952,
      "v": 84
    },
    {
      "midi": 75,
      "hit": false,
      "t": 232076.02950000056,
      "d": 93.97312499998952,
      "v": 84
    },
    {
      "midi": 67,
      "hit": false,
      "t": 232188.79724999997,
      "d": 366.495187499997,
      "v": 72
    },
    {
      "midi": 79,
      "hit": false,
      "t": 232188.79725000056,
      "d": 366.495187499997,
      "v": 72
    },
    {
      "midi": 74,
      "hit": false,
      "t": 232301.56499999997,
      "d": 223.18617187498603,
      "v": 113
    },
    {
      "midi": 86,
      "hit": false,
      "t": 232301.56500000056,
      "d": 223.18617187498603,
      "v": 113
    },
    {
      "midi": 62,
      "hit": false,
      "t": 232527.10049999997,
      "d": 112.76774999999907,
      "v": 62
    },
    {
      "midi": 74,
      "hit": false,
      "t": 232527.10050000055,
      "d": 112.76774999999907,
      "v": 62
    },
    {
      "midi": 65,
      "hit": false,
      "t": 232752.63599999997,
      "d": 199.69289062501048,
      "v": 96
    },
    {
      "midi": 68,
      "hit": false,
      "t": 232752.63599999997,
      "d": 227.88482812501024,
      "v": 127
    },
    {
      "midi": 77,
      "hit": false,
      "t": 232752.63600000055,
      "d": 199.69289062501048,
      "v": 96
    },
    {
      "midi": 80,
      "hit": false,
      "t": 232752.63600000055,
      "d": 227.88482812501024,
      "v": 127
    },
    {
      "midi": 60,
      "hit": false,
      "t": 232978.17149999997,
      "d": 122.16506249998929,
      "v": 91
    },
    {
      "midi": 72,
      "hit": false,
      "t": 232978.17150000055,
      "d": 122.16506249998929,
      "v": 91
    },
    {
      "midi": 65,
      "hit": false,
      "t": 233090.93924999997,
      "d": 373.5431718750042,
      "v": 51
    },
    {
      "midi": 77,
      "hit": false,
      "t": 233090.93925000055,
      "d": 373.5431718750042,
      "v": 51
    },
    {
      "midi": 68,
      "hit": false,
      "t": 233203.70699999997,
      "d": 227.88482812501024,
      "v": 111
    },
    {
      "midi": 80,
      "hit": false,
      "t": 233203.70700000055,
      "d": 227.88482812501024,
      "v": 111
    },
    {
      "midi": 60,
      "hit": false,
      "t": 233429.24249999996,
      "d": 138.61035937501583,
      "v": 103
    },
    {
      "midi": 72,
      "hit": false,
      "t": 233429.24250000055,
      "d": 138.61035937501583,
      "v": 103
    },
    {
      "midi": 67,
      "hit": false,
      "t": 233654.778,
      "d": 197.34356249999837,
      "v": 98
    },
    {
      "midi": 71,
      "hit": false,
      "t": 233654.778,
      "d": 256.07676562501,
      "v": 126
    },
    {
      "midi": 79,
      "hit": false,
      "t": 233654.77800000057,
      "d": 197.34356249999837,
      "v": 98
    },
    {
      "midi": 83,
      "hit": false,
      "t": 233654.77800000057,
      "d": 256.07676562501,
      "v": 126
    },
    {
      "midi": 62,
      "hit": false,
      "t": 233880.3135,
      "d": 112.76774999999907,
      "v": 93
    },
    {
      "midi": 74,
      "hit": false,
      "t": 233880.31350000057,
      "d": 112.76774999999907,
      "v": 93
    },
    {
      "midi": 67,
      "hit": false,
      "t": 234105.849,
      "d": 180.89826562500093,
      "v": 52
    },
    {
      "midi": 72,
      "hit": false,
      "t": 234105.849,
      "d": 241.98079687499558,
      "v": 117
    },
    {
      "midi": 79,
      "hit": false,
      "t": 234105.84900000057,
      "d": 180.89826562500093,
      "v": 52
    },
    {
      "midi": 84,
      "hit": false,
      "t": 234105.84900000057,
      "d": 241.98079687499558,
      "v": 117
    },
    {
      "midi": 63,
      "hit": false,
      "t": 234331.3845,
      "d": 108.06909375000396,
      "v": 87
    },
    {
      "midi": 75,
      "hit": false,
      "t": 234331.38450000057,
      "d": 108.06909375000396,
      "v": 87
    },
    {
      "midi": 67,
      "hit": false,
      "t": 234556.91999999998,
      "d": 86.92514062501141,
      "v": 117
    },
    {
      "midi": 72,
      "hit": false,
      "t": 234556.91999999998,
      "d": 225.53549999999814,
      "v": 127
    },
    {
      "midi": 79,
      "hit": false,
      "t": 234556.92000000057,
      "d": 86.92514062501141,
      "v": 117
    },
    {
      "midi": 84,
      "hit": false,
      "t": 234556.92000000057,
      "d": 225.53549999999814,
      "v": 127
    },
    {
      "midi": 63,
      "hit": false,
      "t": 234782.45549999998,
      "d": 112.76774999999907,
      "v": 127
    },
    {
      "midi": 75,
      "hit": false,
      "t": 234782.45550000056,
      "d": 112.76774999999907,
      "v": 127
    },
    {
      "midi": 67,
      "hit": false,
      "t": 234895.22324999998,
      "d": 249.0287812500028,
      "v": 68
    },
    {
      "midi": 79,
      "hit": false,
      "t": 234895.22325000056,
      "d": 249.0287812500028,
      "v": 68
    },
    {
      "midi": 75,
      "hit": false,
      "t": 235007.99099999998,
      "d": 204.3915468750056,
      "v": 94
    },
    {
      "midi": 87,
      "hit": false,
      "t": 235007.99100000056,
      "d": 204.3915468750056,
      "v": 94
    },
    {
      "midi": 63,
      "hit": false,
      "t": 235233.52649999998,
      "d": 112.76774999999907,
      "v": 119
    },
    {
      "midi": 75,
      "hit": false,
      "t": 235233.52650000056,
      "d": 112.76774999999907,
      "v": 119
    },
    {
      "midi": 67,
      "hit": false,
      "t": 235459.06199999998,
      "d": 173.8502812499937,
      "v": 98
    },
    {
      "midi": 72,
      "hit": false,
      "t": 235459.06199999998,
      "d": 263.1247499999881,
      "v": 108
    },
    {
      "midi": 79,
      "hit": false,
      "t": 235459.06200000056,
      "d": 173.8502812499937,
      "v": 98
    },
    {
      "midi": 84,
      "hit": false,
      "t": 235459.06200000056,
      "d": 263.1247499999881,
      "v": 108
    },
    {
      "midi": 63,
      "hit": false,
      "t": 235684.59749999997,
      "d": 93.97312499998952,
      "v": 84
    },
    {
      "midi": 75,
      "hit": false,
      "t": 235684.59750000056,
      "d": 93.97312499998952,
      "v": 84
    },
    {
      "midi": 67,
      "hit": false,
      "t": 235797.36524999997,
      "d": 366.495187499997,
      "v": 72
    },
    {
      "midi": 79,
      "hit": false,
      "t": 235797.36525000056,
      "d": 366.495187499997,
      "v": 72
    },
    {
      "midi": 74,
      "hit": false,
      "t": 235910.13299999997,
      "d": 223.18617187498603,
      "v": 113
    },
    {
      "midi": 86,
      "hit": false,
      "t": 235910.13300000055,
      "d": 223.18617187498603,
      "v": 113
    },
    {
      "midi": 62,
      "hit": false,
      "t": 236135.66849999997,
      "d": 112.76774999999907,
      "v": 62
    },
    {
      "midi": 74,
      "hit": false,
      "t": 236135.66850000055,
      "d": 112.76774999999907,
      "v": 62
    },
    {
      "midi": 65,
      "hit": false,
      "t": 236361.20399999997,
      "d": 199.69289062501048,
      "v": 96
    },
    {
      "midi": 68,
      "hit": false,
      "t": 236361.20399999997,
      "d": 227.88482812501024,
      "v": 127
    },
    {
      "midi": 77,
      "hit": false,
      "t": 236361.20400000055,
      "d": 199.69289062501048,
      "v": 96
    },
    {
      "midi": 80,
      "hit": false,
      "t": 236361.20400000055,
      "d": 227.88482812501024,
      "v": 127
    },
    {
      "midi": 60,
      "hit": false,
      "t": 236586.73949999997,
      "d": 122.16506249998929,
      "v": 91
    },
    {
      "midi": 72,
      "hit": false,
      "t": 236586.73950000055,
      "d": 122.16506249998929,
      "v": 91
    },
    {
      "midi": 65,
      "hit": false,
      "t": 236699.50724999997,
      "d": 373.5431718750042,
      "v": 51
    },
    {
      "midi": 77,
      "hit": false,
      "t": 236699.50725000055,
      "d": 373.5431718750042,
      "v": 51
    },
    {
      "midi": 68,
      "hit": false,
      "t": 236812.27499999997,
      "d": 227.88482812501024,
      "v": 111
    },
    {
      "midi": 80,
      "hit": false,
      "t": 236812.27500000055,
      "d": 227.88482812501024,
      "v": 111
    },
    {
      "midi": 60,
      "hit": false,
      "t": 237037.81049999996,
      "d": 138.61035937501583,
      "v": 103
    },
    {
      "midi": 72,
      "hit": false,
      "t": 237037.81050000055,
      "d": 138.61035937501583,
      "v": 103
    },
    {
      "midi": 67,
      "hit": false,
      "t": 237263.346,
      "d": 197.34356249999837,
      "v": 98
    },
    {
      "midi": 71,
      "hit": false,
      "t": 237263.346,
      "d": 256.07676562501,
      "v": 126
    },
    {
      "midi": 79,
      "hit": false,
      "t": 237263.34600000057,
      "d": 197.34356249999837,
      "v": 98
    },
    {
      "midi": 83,
      "hit": false,
      "t": 237263.34600000057,
      "d": 256.07676562501,
      "v": 126
    },
    {
      "midi": 62,
      "hit": false,
      "t": 237488.8815,
      "d": 112.76774999999907,
      "v": 93
    },
    {
      "midi": 74,
      "hit": false,
      "t": 237488.88150000057,
      "d": 112.76774999999907,
      "v": 93
    },
    {
      "midi": 67,
      "hit": false,
      "t": 237714.417,
      "d": 180.89826562500093,
      "v": 52
    },
    {
      "midi": 72,
      "hit": false,
      "t": 237714.417,
      "d": 241.98079687499558,
      "v": 117
    },
    {
      "midi": 79,
      "hit": false,
      "t": 237714.41700000057,
      "d": 180.89826562500093,
      "v": 52
    },
    {
      "midi": 84,
      "hit": false,
      "t": 237714.41700000057,
      "d": 241.98079687499558,
      "v": 117
    },
    {
      "midi": 63,
      "hit": false,
      "t": 237939.95249999998,
      "d": 108.06909375000396,
      "v": 87
    },
    {
      "midi": 75,
      "hit": false,
      "t": 237939.95250000057,
      "d": 108.06909375000396,
      "v": 87
    },
    {
      "midi": 67,
      "hit": false,
      "t": 238165.48799999998,
      "d": 86.92514062501141,
      "v": 117
    },
    {
      "midi": 72,
      "hit": false,
      "t": 238165.48799999998,
      "d": 225.53549999999814,
      "v": 127
    },
    {
      "midi": 79,
      "hit": false,
      "t": 238165.48800000057,
      "d": 86.92514062501141,
      "v": 117
    },
    {
      "midi": 84,
      "hit": false,
      "t": 238165.48800000057,
      "d": 225.53549999999814,
      "v": 127
    },
    {
      "midi": 63,
      "hit": false,
      "t": 238391.02349999998,
      "d": 112.76774999999907,
      "v": 127
    },
    {
      "midi": 75,
      "hit": false,
      "t": 238391.02350000056,
      "d": 112.76774999999907,
      "v": 127
    },
    {
      "midi": 67,
      "hit": false,
      "t": 238503.79124999998,
      "d": 249.0287812500028,
      "v": 68
    },
    {
      "midi": 79,
      "hit": false,
      "t": 238503.79125000056,
      "d": 249.0287812500028,
      "v": 68
    },
    {
      "midi": 75,
      "hit": false,
      "t": 238616.55899999998,
      "d": 204.3915468750056,
      "v": 94
    },
    {
      "midi": 87,
      "hit": false,
      "t": 238616.55900000056,
      "d": 204.3915468750056,
      "v": 94
    },
    {
      "midi": 63,
      "hit": false,
      "t": 238842.09449999998,
      "d": 112.76774999999907,
      "v": 119
    },
    {
      "midi": 75,
      "hit": false,
      "t": 238842.09450000056,
      "d": 112.76774999999907,
      "v": 119
    },
    {
      "midi": 67,
      "hit": false,
      "t": 239067.62999999998,
      "d": 173.8502812499937,
      "v": 98
    },
    {
      "midi": 72,
      "hit": false,
      "t": 239067.62999999998,
      "d": 263.1247499999881,
      "v": 108
    },
    {
      "midi": 79,
      "hit": false,
      "t": 239067.63000000056,
      "d": 173.8502812499937,
      "v": 98
    },
    {
      "midi": 84,
      "hit": false,
      "t": 239067.63000000056,
      "d": 263.1247499999881,
      "v": 108
    },
    {
      "midi": 63,
      "hit": false,
      "t": 239293.16549999997,
      "d": 93.97312499998952,
      "v": 84
    },
    {
      "midi": 75,
      "hit": false,
      "t": 239293.16550000056,
      "d": 93.97312499998952,
      "v": 84
    },
    {
      "midi": 67,
      "hit": false,
      "t": 239405.93324999997,
      "d": 366.495187499997,
      "v": 72
    },
    {
      "midi": 79,
      "hit": false,
      "t": 239405.93325000055,
      "d": 366.495187499997,
      "v": 72
    },
    {
      "midi": 74,
      "hit": false,
      "t": 239518.70099999997,
      "d": 223.18617187498603,
      "v": 113
    },
    {
      "midi": 86,
      "hit": false,
      "t": 239518.70100000055,
      "d": 223.18617187498603,
      "v": 113
    },
    {
      "midi": 62,
      "hit": false,
      "t": 239744.23649999997,
      "d": 112.76774999999907,
      "v": 62
    },
    {
      "midi": 74,
      "hit": false,
      "t": 239744.23650000055,
      "d": 112.76774999999907,
      "v": 62
    },
    {
      "midi": 60,
      "hit": false,
      "t": 239969.77200000055,
      "d": 84.5758124999993,
      "v": 97
    },
    {
      "midi": 65,
      "hit": false,
      "t": 239969.77200000055,
      "d": 84.5758124999993,
      "v": 97
    },
    {
      "midi": 68,
      "hit": false,
      "t": 239969.77200000055,
      "d": 84.5758124999993,
      "v": 97
    },
    {
      "midi": 60,
      "hit": false,
      "t": 240195.30750000055,
      "d": 84.5758124999993,
      "v": 97
    },
    {
      "midi": 65,
      "hit": false,
      "t": 240195.30750000055,
      "d": 84.5758124999993,
      "v": 97
    },
    {
      "midi": 68,
      "hit": false,
      "t": 240195.30750000055,
      "d": 84.5758124999993,
      "v": 97
    },
    {
      "midi": 60,
      "hit": false,
      "t": 240308.07525000055,
      "d": 84.5758124999993,
      "v": 97
    },
    {
      "midi": 65,
      "hit": false,
      "t": 240308.07525000055,
      "d": 84.5758124999993,
      "v": 97
    },
    {
      "midi": 68,
      "hit": false,
      "t": 240308.07525000055,
      "d": 84.5758124999993,
      "v": 97
    },
    {
      "midi": 60,
      "hit": false,
      "t": 240533.61075000055,
      "d": 84.5758124999993,
      "v": 97
    },
    {
      "midi": 65,
      "hit": false,
      "t": 240533.61075000055,
      "d": 84.5758124999993,
      "v": 97
    },
    {
      "midi": 68,
      "hit": false,
      "t": 240533.61075000055,
      "d": 84.5758124999993,
      "v": 97
    },
    {
      "midi": 60,
      "hit": false,
      "t": 240646.37850000054,
      "d": 84.5758124999993,
      "v": 85
    },
    {
      "midi": 65,
      "hit": false,
      "t": 240646.37850000054,
      "d": 84.5758124999993,
      "v": 85
    },
    {
      "midi": 68,
      "hit": false,
      "t": 240646.37850000054,
      "d": 84.5758124999993,
      "v": 85
    },
    {
      "midi": 62,
      "hit": false,
      "t": 240871.91400000054,
      "d": 84.5758124999993,
      "v": 97
    },
    {
      "midi": 67,
      "hit": false,
      "t": 240871.91400000054,
      "d": 84.5758124999993,
      "v": 97
    },
    {
      "midi": 71,
      "hit": false,
      "t": 240871.91400000054,
      "d": 84.5758124999993,
      "v": 97
    },
    {
      "midi": 62,
      "hit": false,
      "t": 241097.44950000054,
      "d": 84.5758124999993,
      "v": 97
    },
    {
      "midi": 67,
      "hit": false,
      "t": 241097.44950000054,
      "d": 84.5758124999993,
      "v": 97
    },
    {
      "midi": 71,
      "hit": false,
      "t": 241097.44950000054,
      "d": 84.5758124999993,
      "v": 97
    },
    {
      "midi": 62,
      "hit": false,
      "t": 241322.98500000054,
      "d": 84.5758124999993,
      "v": 97
    },
    {
      "midi": 67,
      "hit": false,
      "t": 241322.98500000054,
      "d": 84.5758124999993,
      "v": 97
    },
    {
      "midi": 71,
      "hit": false,
      "t": 241322.98500000054,
      "d": 84.5758124999993,
      "v": 97
    },
    {
      "midi": 63,
      "hit": false,
      "t": 241548.52050000054,
      "d": 178.54893749998882,
      "v": 97
    },
    {
      "midi": 72,
      "hit": false,
      "t": 241548.52050000054,
      "d": 178.54893749998882,
      "v": 97
    },
    {
      "midi": 67,
      "hit": false,
      "t": 241548.52050000054,
      "d": 202.04221874999348,
      "v": 97
    },
    {
      "midi": 48,
      "hit": false,
      "t": 241774.05600000054,
      "d": 169.1516249999986,
      "v": 127
    },
    {
      "midi": 48,
      "hit": false,
      "t": 242225.12700000053,
      "d": 171.5009531250107,
      "v": 127
    },
    {
      "midi": 48,
      "hit": false,
      "t": 242676.19800000053,
      "d": 213.7888593749958,
      "v": 120
    },
    {
      "midi": 48,
      "hit": false,
      "t": 243127.26900000052,
      "d": 251.3781093749858,
      "v": 127
    },
    {
      "midi": 55,
      "hit": false,
      "t": 243352.80450000052,
      "d": 213.7888593749958,
      "v": 103
    },
    {
      "midi": 51,
      "hit": false,
      "t": 243578.34000000052,
      "d": 251.3781093749858,
      "v": 122
    },
    {
      "midi": 51,
      "hit": false,
      "t": 244029.41100000052,
      "d": 270.17273437499534,
      "v": 127
    },
    {
      "midi": 50,
      "hit": false,
      "t": 244480.4820000005,
      "d": 190.29557812499115,
      "v": 127
    },
    {
      "midi": 53,
      "hit": false,
      "t": 244706.0175000005,
      "d": 169.1516249999986,
      "v": 127
    },
    {
      "midi": 50,
      "hit": false,
      "t": 244931.5530000005,
      "d": 213.7888593749958,
      "v": 127
    },
    {
      "midi": 55,
      "hit": false,
      "t": 245157.0885000005,
      "d": 124.5143906250014,
      "v": 113
    },
    {
      "midi": 48,
      "hit": false,
      "t": 245382.6240000005,
      "d": 169.1516249999986,
      "v": 127
    },
    {
      "midi": 48,
      "hit": false,
      "t": 245833.6950000005,
      "d": 171.5009531250107,
      "v": 127
    },
    {
      "midi": 48,
      "hit": false,
      "t": 246284.7660000005,
      "d": 213.7888593749958,
      "v": 120
    },
    {
      "midi": 48,
      "hit": false,
      "t": 246735.8370000005,
      "d": 251.3781093749858,
      "v": 127
    },
    {
      "midi": 55,
      "hit": false,
      "t": 246961.3725000005,
      "d": 213.7888593749958,
      "v": 103
    },
    {
      "midi": 51,
      "hit": false,
      "t": 247186.9080000005,
      "d": 251.3781093749858,
      "v": 122
    },
    {
      "midi": 51,
      "hit": false,
      "t": 247637.9790000005,
      "d": 270.17273437499534,
      "v": 127
    },
    {
      "midi": 50,
      "hit": false,
      "t": 248089.05000000048,
      "d": 190.29557812499115,
      "v": 127
    },
    {
      "midi": 53,
      "hit": false,
      "t": 248314.58550000048,
      "d": 169.1516249999986,
      "v": 127
    },
    {
      "midi": 50,
      "hit": false,
      "t": 248540.12100000048,
      "d": 213.7888593749958,
      "v": 127
    },
    {
      "midi": 55,
      "hit": false,
      "t": 248765.65650000048,
      "d": 124.5143906250014,
      "v": 113
    },
    {
      "midi": 48,
      "hit": false,
      "t": 248991.19200000048,
      "d": 169.1516249999986,
      "v": 127
    },
    {
      "midi": 48,
      "hit": false,
      "t": 249442.26300000047,
      "d": 171.5009531250107,
      "v": 127
    },
    {
      "midi": 48,
      "hit": false,
      "t": 249893.33400000047,
      "d": 213.7888593749958,
      "v": 120
    },
    {
      "midi": 48,
      "hit": false,
      "t": 250344.40500000046,
      "d": 251.3781093749858,
      "v": 127
    },
    {
      "midi": 55,
      "hit": false,
      "t": 250569.94050000046,
      "d": 213.7888593749958,
      "v": 103
    },
    {
      "midi": 51,
      "hit": false,
      "t": 250795.47600000046,
      "d": 251.3781093749858,
      "v": 122
    },
    {
      "midi": 51,
      "hit": false,
      "t": 251246.54700000046,
      "d": 270.17273437499534,
      "v": 127
    },
    {
      "midi": 50,
      "hit": false,
      "t": 251697.61800000045,
      "d": 190.29557812499115,
      "v": 127
    },
    {
      "midi": 53,
      "hit": false,
      "t": 251923.15350000045,
      "d": 169.1516249999986,
      "v": 127
    },
    {
      "midi": 50,
      "hit": false,
      "t": 252148.68900000045,
      "d": 213.7888593749958,
      "v": 127
    },
    {
      "midi": 55,
      "hit": false,
      "t": 252374.22450000045,
      "d": 124.5143906250014,
      "v": 113
    },
    {
      "midi": 48,
      "hit": false,
      "t": 252599.76000000045,
      "d": 169.1516249999986,
      "v": 127
    },
    {
      "midi": 48,
      "hit": false,
      "t": 253050.83100000044,
      "d": 171.5009531250107,
      "v": 127
    },
    {
      "midi": 48,
      "hit": false,
      "t": 253501.90200000044,
      "d": 213.7888593749958,
      "v": 120
    },
    {
      "midi": 48,
      "hit": false,
      "t": 253952.97300000043,
      "d": 251.3781093749858,
      "v": 127
    },
    {
      "midi": 55,
      "hit": false,
      "t": 254178.50850000043,
      "d": 213.7888593749958,
      "v": 103
    },
    {
      "midi": 51,
      "hit": false,
      "t": 254404.04400000043,
      "d": 251.3781093749858,
      "v": 122
    },
    {
      "midi": 51,
      "hit": false,
      "t": 254855.11500000043,
      "d": 270.17273437499534,
      "v": 127
    },
    {
      "midi": 50,
      "hit": false,
      "t": 255306.18600000042,
      "d": 190.29557812499115,
      "v": 127
    },
    {
      "midi": 53,
      "hit": false,
      "t": 255531.72150000042,
      "d": 169.1516249999986,
      "v": 127
    },
    {
      "midi": 50,
      "hit": false,
      "t": 255757.25700000042,
      "d": 213.7888593749958,
      "v": 127
    },
    {
      "midi": 55,
      "hit": false,
      "t": 255982.79250000042,
      "d": 124.5143906250014,
      "v": 113
    },
    {
      "midi": 67,
      "hit": false,
      "t": 256208.32799999998,
      "d": 86.92514062501141,
      "v": 117
    },
    {
      "midi": 72,
      "hit": false,
      "t": 256208.32799999998,
      "d": 225.53549999999814,
      "v": 127
    },
    {
      "midi": 79,
      "hit": false,
      "t": 256208.32800000042,
      "d": 86.92514062501141,
      "v": 117
    },
    {
      "midi": 84,
      "hit": false,
      "t": 256208.32800000042,
      "d": 225.53549999999814,
      "v": 127
    },
    {
      "midi": 63,
      "hit": false,
      "t": 256433.86349999998,
      "d": 112.76774999999907,
      "v": 127
    },
    {
      "midi": 75,
      "hit": false,
      "t": 256433.8635000004,
      "d": 112.76774999999907,
      "v": 127
    },
    {
      "midi": 67,
      "hit": false,
      "t": 256546.63124999998,
      "d": 249.0287812500028,
      "v": 68
    },
    {
      "midi": 79,
      "hit": false,
      "t": 256546.6312500004,
      "d": 249.0287812500028,
      "v": 68
    },
    {
      "midi": 75,
      "hit": false,
      "t": 256659.39899999998,
      "d": 204.3915468750056,
      "v": 94
    },
    {
      "midi": 87,
      "hit": false,
      "t": 256659.3990000004,
      "d": 204.3915468750056,
      "v": 94
    },
    {
      "midi": 63,
      "hit": false,
      "t": 256884.93449999997,
      "d": 112.76774999999907,
      "v": 119
    },
    {
      "midi": 75,
      "hit": false,
      "t": 256884.9345000004,
      "d": 112.76774999999907,
      "v": 119
    },
    {
      "midi": 67,
      "hit": false,
      "t": 257110.46999999997,
      "d": 173.8502812499937,
      "v": 98
    },
    {
      "midi": 72,
      "hit": false,
      "t": 257110.46999999997,
      "d": 263.1247499999881,
      "v": 108
    },
    {
      "midi": 79,
      "hit": false,
      "t": 257110.4700000004,
      "d": 173.8502812499937,
      "v": 98
    },
    {
      "midi": 84,
      "hit": false,
      "t": 257110.4700000004,
      "d": 263.1247499999881,
      "v": 108
    },
    {
      "midi": 63,
      "hit": false,
      "t": 257336.00549999997,
      "d": 93.97312499998952,
      "v": 84
    },
    {
      "midi": 75,
      "hit": false,
      "t": 257336.0055000004,
      "d": 93.97312499998952,
      "v": 84
    },
    {
      "midi": 67,
      "hit": false,
      "t": 257448.77324999997,
      "d": 366.495187499997,
      "v": 72
    },
    {
      "midi": 79,
      "hit": false,
      "t": 257448.7732500004,
      "d": 366.495187499997,
      "v": 72
    },
    {
      "midi": 74,
      "hit": false,
      "t": 257561.54099999997,
      "d": 223.18617187498603,
      "v": 113
    },
    {
      "midi": 86,
      "hit": false,
      "t": 257561.5410000004,
      "d": 223.18617187498603,
      "v": 113
    },
    {
      "midi": 62,
      "hit": false,
      "t": 257787.07649999997,
      "d": 112.76774999999907,
      "v": 62
    },
    {
      "midi": 74,
      "hit": false,
      "t": 257787.0765000004,
      "d": 112.76774999999907,
      "v": 62
    },
    {
      "midi": 67,
      "hit": false,
      "t": 258012.61199999996,
      "d": 199.69289062501048,
      "v": 96
    },
    {
      "midi": 71,
      "hit": false,
      "t": 258012.61199999996,
      "d": 227.88482812501024,
      "v": 127
    },
    {
      "midi": 79,
      "hit": false,
      "t": 258012.6120000004,
      "d": 199.69289062501048,
      "v": 96
    },
    {
      "midi": 83,
      "hit": false,
      "t": 258012.6120000004,
      "d": 227.88482812501024,
      "v": 127
    },
    {
      "midi": 62,
      "hit": false,
      "t": 258238.14749999996,
      "d": 122.16506249998929,
      "v": 91
    },
    {
      "midi": 74,
      "hit": false,
      "t": 258238.1475000004,
      "d": 122.16506249998929,
      "v": 91
    },
    {
      "midi": 67,
      "hit": false,
      "t": 258350.91524999996,
      "d": 373.5431718750042,
      "v": 51
    },
    {
      "midi": 79,
      "hit": false,
      "t": 258350.9152500004,
      "d": 373.5431718750042,
      "v": 51
    },
    {
      "midi": 74,
      "hit": false,
      "t": 258463.68299999996,
      "d": 227.88482812501024,
      "v": 111
    },
    {
      "midi": 86,
      "hit": false,
      "t": 258463.6830000004,
      "d": 227.88482812501024,
      "v": 111
    },
    {
      "midi": 62,
      "hit": false,
      "t": 258689.21849999996,
      "d": 138.61035937501583,
      "v": 103
    },
    {
      "midi": 74,
      "hit": false,
      "t": 258689.2185000004,
      "d": 138.61035937501583,
      "v": 103
    },
    {
      "midi": 67,
      "hit": false,
      "t": 258914.754,
      "d": 197.34356249999837,
      "v": 98
    },
    {
      "midi": 71,
      "hit": false,
      "t": 258914.754,
      "d": 256.07676562501,
      "v": 126
    },
    {
      "midi": 79,
      "hit": false,
      "t": 258914.75400000042,
      "d": 197.34356249999837,
      "v": 98
    },
    {
      "midi": 83,
      "hit": false,
      "t": 258914.75400000042,
      "d": 256.07676562501,
      "v": 126
    },
    {
      "midi": 62,
      "hit": false,
      "t": 259140.28949999998,
      "d": 112.76774999999907,
      "v": 93
    },
    {
      "midi": 74,
      "hit": false,
      "t": 259140.28950000042,
      "d": 112.76774999999907,
      "v": 93
    },
    {
      "midi": 67,
      "hit": false,
      "t": 259365.82499999998,
      "d": 180.89826562500093,
      "v": 52
    },
    {
      "midi": 72,
      "hit": false,
      "t": 259365.82499999998,
      "d": 241.98079687499558,
      "v": 117
    },
    {
      "midi": 79,
      "hit": false,
      "t": 259365.82500000042,
      "d": 180.89826562500093,
      "v": 52
    },
    {
      "midi": 84,
      "hit": false,
      "t": 259365.82500000042,
      "d": 241.98079687499558,
      "v": 117
    },
    {
      "midi": 63,
      "hit": false,
      "t": 259591.36049999998,
      "d": 108.06909375000396,
      "v": 87
    },
    {
      "midi": 75,
      "hit": false,
      "t": 259591.36050000042,
      "d": 108.06909375000396,
      "v": 87
    },
    {
      "midi": 67,
      "hit": false,
      "t": 259816.89599999998,
      "d": 86.92514062501141,
      "v": 117
    },
    {
      "midi": 72,
      "hit": false,
      "t": 259816.89599999998,
      "d": 225.53549999999814,
      "v": 127
    },
    {
      "midi": 79,
      "hit": false,
      "t": 259816.89600000042,
      "d": 86.92514062501141,
      "v": 117
    },
    {
      "midi": 84,
      "hit": false,
      "t": 259816.89600000042,
      "d": 225.53549999999814,
      "v": 127
    },
    {
      "midi": 63,
      "hit": false,
      "t": 260042.43149999998,
      "d": 112.76774999999907,
      "v": 127
    },
    {
      "midi": 75,
      "hit": false,
      "t": 260042.4315000004,
      "d": 112.76774999999907,
      "v": 127
    },
    {
      "midi": 67,
      "hit": false,
      "t": 260155.19924999998,
      "d": 249.0287812500028,
      "v": 68
    },
    {
      "midi": 79,
      "hit": false,
      "t": 260155.1992500004,
      "d": 249.0287812500028,
      "v": 68
    },
    {
      "midi": 75,
      "hit": false,
      "t": 260267.96699999998,
      "d": 204.3915468750056,
      "v": 94
    },
    {
      "midi": 87,
      "hit": false,
      "t": 260267.9670000004,
      "d": 204.3915468750056,
      "v": 94
    },
    {
      "midi": 63,
      "hit": false,
      "t": 260493.50249999997,
      "d": 112.76774999999907,
      "v": 119
    },
    {
      "midi": 75,
      "hit": false,
      "t": 260493.5025000004,
      "d": 112.76774999999907,
      "v": 119
    },
    {
      "midi": 67,
      "hit": false,
      "t": 260719.03799999997,
      "d": 173.8502812499937,
      "v": 98
    },
    {
      "midi": 72,
      "hit": false,
      "t": 260719.03799999997,
      "d": 263.1247499999881,
      "v": 108
    },
    {
      "midi": 79,
      "hit": false,
      "t": 260719.0380000004,
      "d": 173.8502812499937,
      "v": 98
    },
    {
      "midi": 84,
      "hit": false,
      "t": 260719.0380000004,
      "d": 263.1247499999881,
      "v": 108
    },
    {
      "midi": 63,
      "hit": false,
      "t": 260944.57349999997,
      "d": 93.97312499998952,
      "v": 84
    },
    {
      "midi": 75,
      "hit": false,
      "t": 260944.5735000004,
      "d": 93.97312499998952,
      "v": 84
    },
    {
      "midi": 67,
      "hit": false,
      "t": 261057.34124999997,
      "d": 366.495187499997,
      "v": 72
    },
    {
      "midi": 79,
      "hit": false,
      "t": 261057.3412500004,
      "d": 366.495187499997,
      "v": 72
    },
    {
      "midi": 74,
      "hit": false,
      "t": 261170.10899999997,
      "d": 223.18617187498603,
      "v": 113
    },
    {
      "midi": 86,
      "hit": false,
      "t": 261170.1090000004,
      "d": 223.18617187498603,
      "v": 113
    },
    {
      "midi": 62,
      "hit": false,
      "t": 261395.64449999997,
      "d": 112.76774999999907,
      "v": 62
    },
    {
      "midi": 74,
      "hit": false,
      "t": 261395.6445000004,
      "d": 112.76774999999907,
      "v": 62
    },
    {
      "midi": 67,
      "hit": false,
      "t": 261621.17999999996,
      "d": 199.69289062501048,
      "v": 96
    },
    {
      "midi": 71,
      "hit": false,
      "t": 261621.17999999996,
      "d": 227.88482812501024,
      "v": 127
    },
    {
      "midi": 79,
      "hit": false,
      "t": 261621.1800000004,
      "d": 199.69289062501048,
      "v": 96
    },
    {
      "midi": 83,
      "hit": false,
      "t": 261621.1800000004,
      "d": 227.88482812501024,
      "v": 127
    },
    {
      "midi": 62,
      "hit": false,
      "t": 261846.71549999996,
      "d": 122.16506249998929,
      "v": 91
    },
    {
      "midi": 74,
      "hit": false,
      "t": 261846.7155000004,
      "d": 122.16506249998929,
      "v": 91
    },
    {
      "midi": 67,
      "hit": false,
      "t": 261959.48324999996,
      "d": 373.5431718750333,
      "v": 51
    },
    {
      "midi": 79,
      "hit": false,
      "t": 261959.4832500004,
      "d": 373.5431718750042,
      "v": 51
    },
    {
      "midi": 74,
      "hit": false,
      "t": 262072.25099999996,
      "d": 227.88482812503935,
      "v": 111
    },
    {
      "midi": 86,
      "hit": false,
      "t": 262072.2510000004,
      "d": 227.88482812501024,
      "v": 111
    },
    {
      "midi": 62,
      "hit": false,
      "t": 262297.7865,
      "d": 138.61035937501583,
      "v": 103
    },
    {
      "midi": 74,
      "hit": false,
      "t": 262297.7865000004,
      "d": 138.61035937501583,
      "v": 103
    },
    {
      "midi": 67,
      "hit": false,
      "t": 262523.322,
      "d": 197.34356250002747,
      "v": 98
    },
    {
      "midi": 71,
      "hit": false,
      "t": 262523.322,
      "d": 256.0767656250391,
      "v": 126
    },
    {
      "midi": 79,
      "hit": false,
      "t": 262523.3220000004,
      "d": 197.34356250002747,
      "v": 98
    },
    {
      "midi": 83,
      "hit": false,
      "t": 262523.3220000004,
      "d": 256.0767656250391,
      "v": 126
    },
    {
      "midi": 62,
      "hit": false,
      "t": 262748.85750000004,
      "d": 112.76774999999907,
      "v": 93
    },
    {
      "midi": 74,
      "hit": false,
      "t": 262748.85750000045,
      "d": 112.76774999999907,
      "v": 93
    },
    {
      "midi": 67,
      "hit": false,
      "t": 262974.39300000004,
      "d": 180.89826562500093,
      "v": 52
    },
    {
      "midi": 72,
      "hit": false,
      "t": 262974.39300000004,
      "d": 241.98079687502468,
      "v": 117
    },
    {
      "midi": 79,
      "hit": false,
      "t": 262974.39300000045,
      "d": 180.89826562500093,
      "v": 52
    },
    {
      "midi": 84,
      "hit": false,
      "t": 262974.39300000045,
      "d": 241.98079687502468,
      "v": 117
    },
    {
      "midi": 63,
      "hit": false,
      "t": 263199.92850000004,
      "d": 108.06909375003306,
      "v": 87
    },
    {
      "midi": 75,
      "hit": false,
      "t": 263199.92850000045,
      "d": 108.06909375003306,
      "v": 87
    },
    {
      "midi": 67,
      "hit": false,
      "t": 263425.4640000001,
      "d": 86.9251406249823,
      "v": 117
    },
    {
      "midi": 72,
      "hit": false,
      "t": 263425.4640000001,
      "d": 225.53549999999814,
      "v": 127
    },
    {
      "midi": 79,
      "hit": false,
      "t": 263425.4640000005,
      "d": 86.9251406249823,
      "v": 117
    },
    {
      "midi": 84,
      "hit": false,
      "t": 263425.4640000005,
      "d": 225.53549999999814,
      "v": 127
    },
    {
      "midi": 63,
      "hit": false,
      "t": 263650.9995000001,
      "d": 112.76774999999907,
      "v": 127
    },
    {
      "midi": 75,
      "hit": false,
      "t": 263650.9995000005,
      "d": 112.76774999999907,
      "v": 127
    },
    {
      "midi": 67,
      "hit": false,
      "t": 263763.7672500001,
      "d": 249.0287812500028,
      "v": 68
    },
    {
      "midi": 79,
      "hit": false,
      "t": 263763.7672500005,
      "d": 249.0287812500028,
      "v": 68
    },
    {
      "midi": 75,
      "hit": false,
      "t": 263876.5350000001,
      "d": 204.3915468750056,
      "v": 94
    },
    {
      "midi": 87,
      "hit": false,
      "t": 263876.5350000005,
      "d": 204.3915468750056,
      "v": 94
    },
    {
      "midi": 63,
      "hit": false,
      "t": 264102.0705000001,
      "d": 112.76774999999907,
      "v": 119
    },
    {
      "midi": 75,
      "hit": false,
      "t": 264102.0705000005,
      "d": 112.76774999999907,
      "v": 119
    },
    {
      "midi": 67,
      "hit": false,
      "t": 264327.6060000001,
      "d": 173.85028125002282,
      "v": 98
    },
    {
      "midi": 72,
      "hit": false,
      "t": 264327.6060000001,
      "d": 263.12475000001723,
      "v": 108
    },
    {
      "midi": 79,
      "hit": false,
      "t": 264327.6060000005,
      "d": 173.85028125002282,
      "v": 98
    },
    {
      "midi": 84,
      "hit": false,
      "t": 264327.6060000005,
      "d": 263.12475000001723,
      "v": 108
    },
    {
      "midi": 63,
      "hit": false,
      "t": 264553.1415000001,
      "d": 93.97312500001863,
      "v": 84
    },
    {
      "midi": 75,
      "hit": false,
      "t": 264553.1415000005,
      "d": 93.97312500001863,
      "v": 84
    },
    {
      "midi": 67,
      "hit": false,
      "t": 264665.9092500001,
      "d": 366.4951875000261,
      "v": 72
    },
    {
      "midi": 79,
      "hit": false,
      "t": 264665.9092500005,
      "d": 366.4951875000261,
      "v": 72
    },
    {
      "midi": 74,
      "hit": false,
      "t": 264778.6770000001,
      "d": 223.18617187498603,
      "v": 113
    },
    {
      "midi": 86,
      "hit": false,
      "t": 264778.6770000005,
      "d": 223.18617187498603,
      "v": 113
    },
    {
      "midi": 62,
      "hit": false,
      "t": 265004.2125000001,
      "d": 112.76775000005728,
      "v": 62
    },
    {
      "midi": 74,
      "hit": false,
      "t": 265004.2125000005,
      "d": 112.76775000005728,
      "v": 62
    },
    {
      "midi": 67,
      "hit": false,
      "t": 265229.74800000014,
      "d": 199.69289062498137,
      "v": 96
    },
    {
      "midi": 71,
      "hit": false,
      "t": 265229.74800000014,
      "d": 227.88482812501024,
      "v": 127
    },
    {
      "midi": 79,
      "hit": false,
      "t": 265229.74800000055,
      "d": 199.69289062498137,
      "v": 96
    },
    {
      "midi": 83,
      "hit": false,
      "t": 265229.74800000055,
      "d": 227.88482812501024,
      "v": 127
    },
    {
      "midi": 62,
      "hit": false,
      "t": 265455.28350000014,
      "d": 122.16506249998929,
      "v": 91
    },
    {
      "midi": 74,
      "hit": false,
      "t": 265455.28350000054,
      "d": 122.16506249998929,
      "v": 91
    },
    {
      "midi": 67,
      "hit": false,
      "t": 265568.05125000014,
      "d": 373.5431718750042,
      "v": 51
    },
    {
      "midi": 79,
      "hit": false,
      "t": 265568.05125000054,
      "d": 373.5431718750042,
      "v": 51
    },
    {
      "midi": 74,
      "hit": false,
      "t": 265680.81900000013,
      "d": 227.88482812501024,
      "v": 111
    },
    {
      "midi": 86,
      "hit": false,
      "t": 265680.81900000054,
      "d": 227.88482812501024,
      "v": 111
    },
    {
      "midi": 62,
      "hit": false,
      "t": 265906.35450000013,
      "d": 138.61035937501583,
      "v": 103
    },
    {
      "midi": 74,
      "hit": false,
      "t": 265906.35450000054,
      "d": 138.61035937501583,
      "v": 103
    },
    {
      "midi": 67,
      "hit": false,
      "t": 266131.89000000013,
      "d": 197.34356250002747,
      "v": 98
    },
    {
      "midi": 71,
      "hit": false,
      "t": 266131.89000000013,
      "d": 256.0767656250391,
      "v": 126
    },
    {
      "midi": 79,
      "hit": false,
      "t": 266131.89000000054,
      "d": 197.34356250002747,
      "v": 98
    },
    {
      "midi": 83,
      "hit": false,
      "t": 266131.89000000054,
      "d": 256.0767656250391,
      "v": 126
    },
    {
      "midi": 62,
      "hit": false,
      "t": 266357.4255000002,
      "d": 112.76774999999907,
      "v": 93
    },
    {
      "midi": 74,
      "hit": false,
      "t": 266357.4255000006,
      "d": 112.76774999999907,
      "v": 93
    },
    {
      "midi": 67,
      "hit": false,
      "t": 266582.9610000002,
      "d": 180.89826562500093,
      "v": 52
    },
    {
      "midi": 72,
      "hit": false,
      "t": 266582.9610000002,
      "d": 241.98079687502468,
      "v": 117
    },
    {
      "midi": 79,
      "hit": false,
      "t": 266582.9610000006,
      "d": 180.89826562500093,
      "v": 52
    },
    {
      "midi": 84,
      "hit": false,
      "t": 266582.9610000006,
      "d": 241.98079687502468,
      "v": 117
    },
    {
      "midi": 63,
      "hit": false,
      "t": 266808.4965000002,
      "d": 108.06909375003306,
      "v": 87
    },
    {
      "midi": 75,
      "hit": false,
      "t": 266808.4965000006,
      "d": 108.06909375003306,
      "v": 87
    },
    {
      "midi": 67,
      "hit": false,
      "t": 267034.03200000024,
      "d": 86.9251406249823,
      "v": 117
    },
    {
      "midi": 72,
      "hit": false,
      "t": 267034.03200000024,
      "d": 225.53549999999814,
      "v": 127
    },
    {
      "midi": 79,
      "hit": false,
      "t": 267034.03200000065,
      "d": 86.9251406249823,
      "v": 117
    },
    {
      "midi": 84,
      "hit": false,
      "t": 267034.03200000065,
      "d": 225.53549999999814,
      "v": 127
    },
    {
      "midi": 63,
      "hit": false,
      "t": 267259.56750000024,
      "d": 112.76774999999907,
      "v": 127
    },
    {
      "midi": 75,
      "hit": false,
      "t": 267259.56750000064,
      "d": 112.76774999999907,
      "v": 127
    },
    {
      "midi": 67,
      "hit": false,
      "t": 267372.33525000024,
      "d": 249.0287812500028,
      "v": 68
    },
    {
      "midi": 79,
      "hit": false,
      "t": 267372.33525000064,
      "d": 249.0287812500028,
      "v": 68
    },
    {
      "midi": 75,
      "hit": false,
      "t": 267485.10300000024,
      "d": 204.3915468750056,
      "v": 94
    },
    {
      "midi": 87,
      "hit": false,
      "t": 267485.10300000064,
      "d": 204.3915468750056,
      "v": 94
    },
    {
      "midi": 63,
      "hit": false,
      "t": 267710.63850000023,
      "d": 112.76774999999907,
      "v": 119
    },
    {
      "midi": 75,
      "hit": false,
      "t": 267710.63850000064,
      "d": 112.76774999999907,
      "v": 119
    },
    {
      "midi": 67,
      "hit": false,
      "t": 267936.17400000023,
      "d": 173.85028125002282,
      "v": 98
    },
    {
      "midi": 72,
      "hit": false,
      "t": 267936.17400000023,
      "d": 263.12475000001723,
      "v": 108
    },
    {
      "midi": 79,
      "hit": false,
      "t": 267936.17400000064,
      "d": 173.85028125002282,
      "v": 98
    },
    {
      "midi": 84,
      "hit": false,
      "t": 267936.17400000064,
      "d": 263.12475000001723,
      "v": 108
    },
    {
      "midi": 63,
      "hit": false,
      "t": 268161.70950000023,
      "d": 93.97312500001863,
      "v": 84
    },
    {
      "midi": 75,
      "hit": false,
      "t": 268161.70950000064,
      "d": 93.97312500001863,
      "v": 84
    },
    {
      "midi": 67,
      "hit": false,
      "t": 268274.47725000023,
      "d": 366.4951875000261,
      "v": 72
    },
    {
      "midi": 79,
      "hit": false,
      "t": 268274.47725000064,
      "d": 366.4951875000261,
      "v": 72
    },
    {
      "midi": 74,
      "hit": false,
      "t": 268387.2450000002,
      "d": 223.18617187498603,
      "v": 113
    },
    {
      "midi": 86,
      "hit": false,
      "t": 268387.24500000064,
      "d": 223.18617187498603,
      "v": 113
    },
    {
      "midi": 62,
      "hit": false,
      "t": 268612.7805000002,
      "d": 112.76775000005728,
      "v": 62
    },
    {
      "midi": 74,
      "hit": false,
      "t": 268612.78050000063,
      "d": 112.76775000005728,
      "v": 62
    },
    {
      "midi": 67,
      "hit": false,
      "t": 268838.3160000003,
      "d": 199.69289062498137,
      "v": 96
    },
    {
      "midi": 71,
      "hit": false,
      "t": 268838.3160000003,
      "d": 227.88482812501024,
      "v": 127
    },
    {
      "midi": 79,
      "hit": false,
      "t": 268838.3160000007,
      "d": 199.69289062498137,
      "v": 96
    },
    {
      "midi": 83,
      "hit": false,
      "t": 268838.3160000007,
      "d": 227.88482812501024,
      "v": 127
    },
    {
      "midi": 62,
      "hit": false,
      "t": 269063.8515000003,
      "d": 122.16506249998929,
      "v": 91
    },
    {
      "midi": 74,
      "hit": false,
      "t": 269063.8515000007,
      "d": 122.16506249998929,
      "v": 91
    },
    {
      "midi": 67,
      "hit": false,
      "t": 269176.6192500003,
      "d": 373.5431718750042,
      "v": 51
    },
    {
      "midi": 79,
      "hit": false,
      "t": 269176.6192500007,
      "d": 373.5431718750042,
      "v": 51
    },
    {
      "midi": 74,
      "hit": false,
      "t": 269289.3870000003,
      "d": 227.88482812501024,
      "v": 111
    },
    {
      "midi": 86,
      "hit": false,
      "t": 269289.3870000007,
      "d": 227.88482812501024,
      "v": 111
    },
    {
      "midi": 62,
      "hit": false,
      "t": 269514.9225000003,
      "d": 138.61035937501583,
      "v": 103
    },
    {
      "midi": 74,
      "hit": false,
      "t": 269514.9225000007,
      "d": 138.61035937501583,
      "v": 103
    },
    {
      "midi": 67,
      "hit": false,
      "t": 269740.4580000003,
      "d": 197.34356250002747,
      "v": 98
    },
    {
      "midi": 71,
      "hit": false,
      "t": 269740.4580000003,
      "d": 256.0767656250391,
      "v": 126
    },
    {
      "midi": 79,
      "hit": false,
      "t": 269740.4580000007,
      "d": 197.34356250002747,
      "v": 98
    },
    {
      "midi": 83,
      "hit": false,
      "t": 269740.4580000007,
      "d": 256.0767656250391,
      "v": 126
    },
    {
      "midi": 62,
      "hit": false,
      "t": 269965.99350000033,
      "d": 112.76774999999907,
      "v": 93
    },
    {
      "midi": 74,
      "hit": false,
      "t": 269965.99350000074,
      "d": 112.76774999999907,
      "v": 93
    },
    {
      "midi": 67,
      "hit": false,
      "t": 270191.52900000033,
      "d": 180.89826562500093,
      "v": 52
    },
    {
      "midi": 72,
      "hit": false,
      "t": 270191.52900000033,
      "d": 241.98079687502468,
      "v": 117
    },
    {
      "midi": 79,
      "hit": false,
      "t": 270191.52900000074,
      "d": 180.89826562500093,
      "v": 52
    },
    {
      "midi": 84,
      "hit": false,
      "t": 270191.52900000074,
      "d": 241.98079687502468,
      "v": 117
    },
    {
      "midi": 63,
      "hit": false,
      "t": 270417.0645000003,
      "d": 108.06909375003306,
      "v": 87
    },
    {
      "midi": 75,
      "hit": false,
      "t": 270417.06450000074,
      "d": 108.06909375003306,
      "v": 87
    },
    {
      "midi": 67,
      "hit": false,
      "t": 270642.6000000004,
      "d": 86.9251406249823,
      "v": 117
    },
    {
      "midi": 72,
      "hit": false,
      "t": 270642.6000000004,
      "d": 225.53549999999814,
      "v": 127
    },
    {
      "midi": 79,
      "hit": false,
      "t": 270642.6000000008,
      "d": 86.9251406249823,
      "v": 117
    },
    {
      "midi": 84,
      "hit": false,
      "t": 270642.6000000008,
      "d": 225.53549999999814,
      "v": 127
    },
    {
      "midi": 63,
      "hit": false,
      "t": 270868.1355000004,
      "d": 112.76774999999907,
      "v": 127
    },
    {
      "midi": 75,
      "hit": false,
      "t": 270868.1355000008,
      "d": 112.76774999999907,
      "v": 127
    },
    {
      "midi": 67,
      "hit": false,
      "t": 270980.9032500004,
      "d": 249.0287812500028,
      "v": 68
    },
    {
      "midi": 79,
      "hit": false,
      "t": 270980.9032500008,
      "d": 249.0287812500028,
      "v": 68
    },
    {
      "midi": 75,
      "hit": false,
      "t": 271093.6710000004,
      "d": 204.3915468750056,
      "v": 94
    },
    {
      "midi": 87,
      "hit": false,
      "t": 271093.6710000008,
      "d": 204.3915468750056,
      "v": 94
    },
    {
      "midi": 63,
      "hit": false,
      "t": 271319.2065000004,
      "d": 112.76774999999907,
      "v": 119
    },
    {
      "midi": 75,
      "hit": false,
      "t": 271319.2065000008,
      "d": 112.76774999999907,
      "v": 119
    },
    {
      "midi": 67,
      "hit": false,
      "t": 271544.7420000004,
      "d": 173.85028125002282,
      "v": 98
    },
    {
      "midi": 72,
      "hit": false,
      "t": 271544.7420000004,
      "d": 263.12475000001723,
      "v": 108
    },
    {
      "midi": 79,
      "hit": false,
      "t": 271544.7420000008,
      "d": 173.85028125002282,
      "v": 98
    },
    {
      "midi": 84,
      "hit": false,
      "t": 271544.7420000008,
      "d": 263.12475000001723,
      "v": 108
    },
    {
      "midi": 63,
      "hit": false,
      "t": 271770.2775000004,
      "d": 93.97312500001863,
      "v": 84
    },
    {
      "midi": 75,
      "hit": false,
      "t": 271770.2775000008,
      "d": 93.97312500001863,
      "v": 84
    },
    {
      "midi": 67,
      "hit": false,
      "t": 271883.0452500004,
      "d": 366.4951875000261,
      "v": 72
    },
    {
      "midi": 79,
      "hit": false,
      "t": 271883.0452500008,
      "d": 366.4951875000261,
      "v": 72
    },
    {
      "midi": 74,
      "hit": false,
      "t": 271995.8130000004,
      "d": 223.18617187498603,
      "v": 113
    },
    {
      "midi": 86,
      "hit": false,
      "t": 271995.8130000008,
      "d": 223.18617187498603,
      "v": 113
    },
    {
      "midi": 62,
      "hit": false,
      "t": 272221.3485000004,
      "d": 112.76775000005728,
      "v": 62
    },
    {
      "midi": 74,
      "hit": false,
      "t": 272221.3485000008,
      "d": 112.76775000005728,
      "v": 62
    },
    {
      "midi": 65,
      "hit": false,
      "t": 272446.8840000004,
      "d": 199.69289062498137,
      "v": 96
    },
    {
      "midi": 68,
      "hit": false,
      "t": 272446.8840000004,
      "d": 227.88482812501024,
      "v": 127
    },
    {
      "midi": 77,
      "hit": false,
      "t": 272446.88400000083,
      "d": 199.69289062498137,
      "v": 96
    },
    {
      "midi": 80,
      "hit": false,
      "t": 272446.88400000083,
      "d": 227.88482812501024,
      "v": 127
    },
    {
      "midi": 60,
      "hit": false,
      "t": 272672.4195000004,
      "d": 122.16506249998929,
      "v": 91
    },
    {
      "midi": 72,
      "hit": false,
      "t": 272672.41950000083,
      "d": 122.16506249998929,
      "v": 91
    },
    {
      "midi": 65,
      "hit": false,
      "t": 272785.1872500004,
      "d": 373.5431718750042,
      "v": 51
    },
    {
      "midi": 77,
      "hit": false,
      "t": 272785.18725000083,
      "d": 373.5431718750042,
      "v": 51
    },
    {
      "midi": 68,
      "hit": false,
      "t": 272897.9550000004,
      "d": 227.88482812501024,
      "v": 111
    },
    {
      "midi": 80,
      "hit": false,
      "t": 272897.95500000083,
      "d": 227.88482812501024,
      "v": 111
    },
    {
      "midi": 60,
      "hit": false,
      "t": 273123.4905000004,
      "d": 138.61035937501583,
      "v": 103
    },
    {
      "midi": 72,
      "hit": false,
      "t": 273123.49050000083,
      "d": 138.61035937501583,
      "v": 103
    },
    {
      "midi": 67,
      "hit": false,
      "t": 273349.0260000004,
      "d": 197.34356250002747,
      "v": 98
    },
    {
      "midi": 71,
      "hit": false,
      "t": 273349.0260000004,
      "d": 256.0767656250391,
      "v": 126
    },
    {
      "midi": 79,
      "hit": false,
      "t": 273349.0260000008,
      "d": 197.34356250002747,
      "v": 98
    },
    {
      "midi": 83,
      "hit": false,
      "t": 273349.0260000008,
      "d": 256.0767656250391,
      "v": 126
    },
    {
      "midi": 62,
      "hit": false,
      "t": 273574.5615000005,
      "d": 112.76774999999907,
      "v": 93
    },
    {
      "midi": 74,
      "hit": false,
      "t": 273574.5615000009,
      "d": 112.76774999999907,
      "v": 93
    },
    {
      "midi": 67,
      "hit": false,
      "t": 273800.0970000005,
      "d": 180.89826562500093,
      "v": 52
    },
    {
      "midi": 72,
      "hit": false,
      "t": 273800.0970000005,
      "d": 241.98079687502468,
      "v": 117
    },
    {
      "midi": 79,
      "hit": false,
      "t": 273800.0970000009,
      "d": 180.89826562500093,
      "v": 52
    },
    {
      "midi": 84,
      "hit": false,
      "t": 273800.0970000009,
      "d": 241.98079687502468,
      "v": 117
    },
    {
      "midi": 63,
      "hit": false,
      "t": 274025.6325000005,
      "d": 108.06909375003306,
      "v": 87
    },
    {
      "midi": 75,
      "hit": false,
      "t": 274025.6325000009,
      "d": 108.06909375003306,
      "v": 87
    },
    {
      "midi": 67,
      "hit": false,
      "t": 274251.1680000005,
      "d": 86.9251406249823,
      "v": 117
    },
    {
      "midi": 72,
      "hit": false,
      "t": 274251.1680000005,
      "d": 225.53549999999814,
      "v": 127
    },
    {
      "midi": 79,
      "hit": false,
      "t": 274251.16800000094,
      "d": 86.9251406249823,
      "v": 117
    },
    {
      "midi": 84,
      "hit": false,
      "t": 274251.16800000094,
      "d": 225.53549999999814,
      "v": 127
    },
    {
      "midi": 63,
      "hit": false,
      "t": 274476.7035000005,
      "d": 112.76774999999907,
      "v": 127
    },
    {
      "midi": 75,
      "hit": false,
      "t": 274476.70350000093,
      "d": 112.76774999999907,
      "v": 127
    },
    {
      "midi": 67,
      "hit": false,
      "t": 274589.4712500005,
      "d": 249.0287812500028,
      "v": 68
    },
    {
      "midi": 79,
      "hit": false,
      "t": 274589.47125000093,
      "d": 249.0287812500028,
      "v": 68
    },
    {
      "midi": 75,
      "hit": false,
      "t": 274702.2390000005,
      "d": 204.3915468750056,
      "v": 94
    },
    {
      "midi": 87,
      "hit": false,
      "t": 274702.23900000093,
      "d": 204.3915468750056,
      "v": 94
    },
    {
      "midi": 63,
      "hit": false,
      "t": 274927.7745000005,
      "d": 112.76774999999907,
      "v": 119
    },
    {
      "midi": 75,
      "hit": false,
      "t": 274927.77450000093,
      "d": 112.76774999999907,
      "v": 119
    },
    {
      "midi": 67,
      "hit": false,
      "t": 275153.3100000005,
      "d": 173.85028125002282,
      "v": 98
    },
    {
      "midi": 72,
      "hit": false,
      "t": 275153.3100000005,
      "d": 263.12475000001723,
      "v": 108
    },
    {
      "midi": 79,
      "hit": false,
      "t": 275153.3100000009,
      "d": 173.85028125002282,
      "v": 98
    },
    {
      "midi": 84,
      "hit": false,
      "t": 275153.3100000009,
      "d": 263.12475000001723,
      "v": 108
    },
    {
      "midi": 63,
      "hit": false,
      "t": 275378.8455000005,
      "d": 93.97312500001863,
      "v": 84
    },
    {
      "midi": 75,
      "hit": false,
      "t": 275378.8455000009,
      "d": 93.97312500001863,
      "v": 84
    },
    {
      "midi": 67,
      "hit": false,
      "t": 275491.6132500005,
      "d": 366.4951875000261,
      "v": 72
    },
    {
      "midi": 79,
      "hit": false,
      "t": 275491.6132500009,
      "d": 366.4951875000261,
      "v": 72
    },
    {
      "midi": 74,
      "hit": false,
      "t": 275604.3810000005,
      "d": 223.18617187498603,
      "v": 113
    },
    {
      "midi": 86,
      "hit": false,
      "t": 275604.3810000009,
      "d": 223.18617187498603,
      "v": 113
    },
    {
      "midi": 62,
      "hit": false,
      "t": 275829.9165000005,
      "d": 112.76775000005728,
      "v": 62
    },
    {
      "midi": 74,
      "hit": false,
      "t": 275829.9165000009,
      "d": 112.76775000005728,
      "v": 62
    },
    {
      "midi": 65,
      "hit": false,
      "t": 276055.4520000006,
      "d": 199.69289062498137,
      "v": 96
    },
    {
      "midi": 68,
      "hit": false,
      "t": 276055.4520000006,
      "d": 227.88482812501024,
      "v": 127
    },
    {
      "midi": 77,
      "hit": false,
      "t": 276055.452000001,
      "d": 199.69289062498137,
      "v": 96
    },
    {
      "midi": 80,
      "hit": false,
      "t": 276055.452000001,
      "d": 227.88482812501024,
      "v": 127
    },
    {
      "midi": 60,
      "hit": false,
      "t": 276280.98750000057,
      "d": 122.16506249998929,
      "v": 91
    },
    {
      "midi": 72,
      "hit": false,
      "t": 276280.987500001,
      "d": 122.16506249998929,
      "v": 91
    },
    {
      "midi": 65,
      "hit": false,
      "t": 276393.75525000057,
      "d": 373.5431718750042,
      "v": 51
    },
    {
      "midi": 77,
      "hit": false,
      "t": 276393.755250001,
      "d": 373.5431718750042,
      "v": 51
    },
    {
      "midi": 68,
      "hit": false,
      "t": 276506.52300000057,
      "d": 227.88482812501024,
      "v": 111
    },
    {
      "midi": 80,
      "hit": false,
      "t": 276506.523000001,
      "d": 227.88482812501024,
      "v": 111
    },
    {
      "midi": 60,
      "hit": false,
      "t": 276732.05850000057,
      "d": 138.61035937501583,
      "v": 103
    },
    {
      "midi": 72,
      "hit": false,
      "t": 276732.058500001,
      "d": 138.61035937501583,
      "v": 103
    },
    {
      "midi": 67,
      "hit": false,
      "t": 276957.59400000056,
      "d": 197.34356250002747,
      "v": 98
    },
    {
      "midi": 71,
      "hit": false,
      "t": 276957.59400000056,
      "d": 256.0767656250391,
      "v": 126
    },
    {
      "midi": 79,
      "hit": false,
      "t": 276957.594000001,
      "d": 197.34356250002747,
      "v": 98
    },
    {
      "midi": 83,
      "hit": false,
      "t": 276957.594000001,
      "d": 256.0767656250391,
      "v": 126
    },
    {
      "midi": 62,
      "hit": false,
      "t": 277183.1295000006,
      "d": 112.76774999999907,
      "v": 93
    },
    {
      "midi": 74,
      "hit": false,
      "t": 277183.129500001,
      "d": 112.76774999999907,
      "v": 93
    },
    {
      "midi": 67,
      "hit": false,
      "t": 277408.6650000006,
      "d": 180.89826562500093,
      "v": 52
    },
    {
      "midi": 72,
      "hit": false,
      "t": 277408.6650000006,
      "d": 241.98079687502468,
      "v": 117
    },
    {
      "midi": 79,
      "hit": false,
      "t": 277408.665000001,
      "d": 180.89826562500093,
      "v": 52
    },
    {
      "midi": 84,
      "hit": false,
      "t": 277408.665000001,
      "d": 241.98079687502468,
      "v": 117
    },
    {
      "midi": 63,
      "hit": false,
      "t": 277634.2005000006,
      "d": 108.06909375003306,
      "v": 87
    },
    {
      "midi": 75,
      "hit": false,
      "t": 277634.200500001,
      "d": 108.06909375003306,
      "v": 87
    },
    {
      "midi": 67,
      "hit": false,
      "t": 277859.7360000007,
      "d": 86.9251406249823,
      "v": 117
    },
    {
      "midi": 72,
      "hit": false,
      "t": 277859.7360000007,
      "d": 225.53549999999814,
      "v": 127
    },
    {
      "midi": 79,
      "hit": false,
      "t": 277859.7360000011,
      "d": 86.9251406249823,
      "v": 117
    },
    {
      "midi": 84,
      "hit": false,
      "t": 277859.7360000011,
      "d": 225.53549999999814,
      "v": 127
    },
    {
      "midi": 63,
      "hit": false,
      "t": 278085.2715000007,
      "d": 112.76774999999907,
      "v": 127
    },
    {
      "midi": 75,
      "hit": false,
      "t": 278085.2715000011,
      "d": 112.76774999999907,
      "v": 127
    },
    {
      "midi": 67,
      "hit": false,
      "t": 278198.0392500007,
      "d": 249.0287812500028,
      "v": 68
    },
    {
      "midi": 79,
      "hit": false,
      "t": 278198.0392500011,
      "d": 249.0287812500028,
      "v": 68
    },
    {
      "midi": 75,
      "hit": false,
      "t": 278310.80700000067,
      "d": 204.3915468750056,
      "v": 94
    },
    {
      "midi": 87,
      "hit": false,
      "t": 278310.8070000011,
      "d": 204.3915468750056,
      "v": 94
    },
    {
      "midi": 63,
      "hit": false,
      "t": 278536.34250000067,
      "d": 112.76774999999907,
      "v": 119
    },
    {
      "midi": 75,
      "hit": false,
      "t": 278536.3425000011,
      "d": 112.76774999999907,
      "v": 119
    },
    {
      "midi": 67,
      "hit": false,
      "t": 278761.87800000067,
      "d": 173.85028125002282,
      "v": 98
    },
    {
      "midi": 72,
      "hit": false,
      "t": 278761.87800000067,
      "d": 263.12475000001723,
      "v": 108
    },
    {
      "midi": 79,
      "hit": false,
      "t": 278761.8780000011,
      "d": 173.85028125002282,
      "v": 98
    },
    {
      "midi": 84,
      "hit": false,
      "t": 278761.8780000011,
      "d": 263.12475000001723,
      "v": 108
    },
    {
      "midi": 63,
      "hit": false,
      "t": 278987.41350000066,
      "d": 93.97312500001863,
      "v": 84
    },
    {
      "midi": 75,
      "hit": false,
      "t": 278987.4135000011,
      "d": 93.97312500001863,
      "v": 84
    },
    {
      "midi": 67,
      "hit": false,
      "t": 279100.18125000066,
      "d": 366.4951875000261,
      "v": 72
    },
    {
      "midi": 79,
      "hit": false,
      "t": 279100.1812500011,
      "d": 366.4951875000261,
      "v": 72
    },
    {
      "midi": 74,
      "hit": false,
      "t": 279212.94900000066,
      "d": 223.18617187498603,
      "v": 113
    },
    {
      "midi": 86,
      "hit": false,
      "t": 279212.94900000107,
      "d": 223.18617187498603,
      "v": 113
    },
    {
      "midi": 62,
      "hit": false,
      "t": 279438.48450000066,
      "d": 112.76775000005728,
      "v": 62
    },
    {
      "midi": 74,
      "hit": false,
      "t": 279438.48450000107,
      "d": 112.76775000005728,
      "v": 62
    },
    {
      "midi": 65,
      "hit": false,
      "t": 279664.0200000007,
      "d": 199.69289062498137,
      "v": 96
    },
    {
      "midi": 68,
      "hit": false,
      "t": 279664.0200000007,
      "d": 227.88482812501024,
      "v": 127
    },
    {
      "midi": 77,
      "hit": false,
      "t": 279664.0200000011,
      "d": 199.69289062498137,
      "v": 96
    },
    {
      "midi": 80,
      "hit": false,
      "t": 279664.0200000011,
      "d": 227.88482812501024,
      "v": 127
    },
    {
      "midi": 60,
      "hit": false,
      "t": 279889.5555000007,
      "d": 122.16506249998929,
      "v": 91
    },
    {
      "midi": 72,
      "hit": false,
      "t": 279889.5555000011,
      "d": 122.16506249998929,
      "v": 91
    },
    {
      "midi": 65,
      "hit": false,
      "t": 280002.3232500007,
      "d": 373.5431718750042,
      "v": 51
    },
    {
      "midi": 77,
      "hit": false,
      "t": 280002.3232500011,
      "d": 373.5431718750042,
      "v": 51
    },
    {
      "midi": 68,
      "hit": false,
      "t": 280115.0910000007,
      "d": 227.88482812501024,
      "v": 111
    },
    {
      "midi": 80,
      "hit": false,
      "t": 280115.0910000011,
      "d": 227.88482812501024,
      "v": 111
    },
    {
      "midi": 60,
      "hit": false,
      "t": 280340.6265000007,
      "d": 138.61035937501583,
      "v": 103
    },
    {
      "midi": 72,
      "hit": false,
      "t": 280340.6265000011,
      "d": 138.61035937501583,
      "v": 103
    },
    {
      "midi": 67,
      "hit": false,
      "t": 280566.1620000007,
      "d": 197.34356250002747,
      "v": 98
    },
    {
      "midi": 71,
      "hit": false,
      "t": 280566.1620000007,
      "d": 256.0767656250391,
      "v": 126
    },
    {
      "midi": 79,
      "hit": false,
      "t": 280566.1620000011,
      "d": 197.34356250002747,
      "v": 98
    },
    {
      "midi": 83,
      "hit": false,
      "t": 280566.1620000011,
      "d": 256.0767656250391,
      "v": 126
    },
    {
      "midi": 62,
      "hit": false,
      "t": 280791.69750000077,
      "d": 112.76774999999907,
      "v": 93
    },
    {
      "midi": 74,
      "hit": false,
      "t": 280791.6975000012,
      "d": 112.76774999999907,
      "v": 93
    },
    {
      "midi": 67,
      "hit": false,
      "t": 281017.23300000076,
      "d": 180.89826562500093,
      "v": 52
    },
    {
      "midi": 72,
      "hit": false,
      "t": 281017.23300000076,
      "d": 241.98079687502468,
      "v": 117
    },
    {
      "midi": 79,
      "hit": false,
      "t": 281017.2330000012,
      "d": 180.89826562500093,
      "v": 52
    },
    {
      "midi": 84,
      "hit": false,
      "t": 281017.2330000012,
      "d": 241.98079687502468,
      "v": 117
    },
    {
      "midi": 63,
      "hit": false,
      "t": 281242.76850000076,
      "d": 108.06909375003306,
      "v": 87
    },
    {
      "midi": 75,
      "hit": false,
      "t": 281242.76850000117,
      "d": 108.06909375003306,
      "v": 87
    },
    {
      "midi": 67,
      "hit": false,
      "t": 281468.3040000008,
      "d": 86.9251406249823,
      "v": 117
    },
    {
      "midi": 72,
      "hit": false,
      "t": 281468.3040000008,
      "d": 225.53549999999814,
      "v": 127
    },
    {
      "midi": 79,
      "hit": false,
      "t": 281468.3040000012,
      "d": 86.9251406249823,
      "v": 117
    },
    {
      "midi": 84,
      "hit": false,
      "t": 281468.3040000012,
      "d": 225.53549999999814,
      "v": 127
    },
    {
      "midi": 63,
      "hit": false,
      "t": 281693.8395000008,
      "d": 112.76774999999907,
      "v": 127
    },
    {
      "midi": 75,
      "hit": false,
      "t": 281693.8395000012,
      "d": 112.76774999999907,
      "v": 127
    },
    {
      "midi": 67,
      "hit": false,
      "t": 281806.6072500008,
      "d": 249.0287812500028,
      "v": 68
    },
    {
      "midi": 79,
      "hit": false,
      "t": 281806.6072500012,
      "d": 249.0287812500028,
      "v": 68
    },
    {
      "midi": 75,
      "hit": false,
      "t": 281919.3750000008,
      "d": 204.3915468750056,
      "v": 94
    },
    {
      "midi": 87,
      "hit": false,
      "t": 281919.3750000012,
      "d": 204.3915468750056,
      "v": 94
    },
    {
      "midi": 63,
      "hit": false,
      "t": 282144.9105000008,
      "d": 112.76774999999907,
      "v": 119
    },
    {
      "midi": 75,
      "hit": false,
      "t": 282144.9105000012,
      "d": 112.76774999999907,
      "v": 119
    },
    {
      "midi": 67,
      "hit": false,
      "t": 282370.4460000008,
      "d": 173.85028125002282,
      "v": 98
    },
    {
      "midi": 72,
      "hit": false,
      "t": 282370.4460000008,
      "d": 263.12475000001723,
      "v": 108
    },
    {
      "midi": 79,
      "hit": false,
      "t": 282370.4460000012,
      "d": 173.85028125002282,
      "v": 98
    },
    {
      "midi": 84,
      "hit": false,
      "t": 282370.4460000012,
      "d": 263.12475000001723,
      "v": 108
    },
    {
      "midi": 63,
      "hit": false,
      "t": 282595.9815000008,
      "d": 93.97312500001863,
      "v": 84
    },
    {
      "midi": 75,
      "hit": false,
      "t": 282595.9815000012,
      "d": 93.97312500001863,
      "v": 84
    },
    {
      "midi": 67,
      "hit": false,
      "t": 282708.7492500008,
      "d": 366.4951875000261,
      "v": 72
    },
    {
      "midi": 79,
      "hit": false,
      "t": 282708.7492500012,
      "d": 366.4951875000261,
      "v": 72
    },
    {
      "midi": 74,
      "hit": false,
      "t": 282821.5170000008,
      "d": 223.18617187498603,
      "v": 113
    },
    {
      "midi": 86,
      "hit": false,
      "t": 282821.5170000012,
      "d": 223.18617187498603,
      "v": 113
    },
    {
      "midi": 62,
      "hit": false,
      "t": 283047.0525000008,
      "d": 112.76775000005728,
      "v": 62
    },
    {
      "midi": 74,
      "hit": false,
      "t": 283047.0525000012,
      "d": 112.76775000005728,
      "v": 62
    },
    {
      "midi": 60,
      "hit": false,
      "t": 283272.58800000127,
      "d": 84.5758125000284,
      "v": 97
    },
    {
      "midi": 65,
      "hit": false,
      "t": 283272.58800000127,
      "d": 84.5758125000284,
      "v": 97
    },
    {
      "midi": 68,
      "hit": false,
      "t": 283272.58800000127,
      "d": 84.5758125000284,
      "v": 97
    },
    {
      "midi": 60,
      "hit": false,
      "t": 283498.1235000013,
      "d": 84.5758125000284,
      "v": 97
    },
    {
      "midi": 65,
      "hit": false,
      "t": 283498.1235000013,
      "d": 84.5758125000284,
      "v": 97
    },
    {
      "midi": 68,
      "hit": false,
      "t": 283498.1235000013,
      "d": 84.5758125000284,
      "v": 97
    },
    {
      "midi": 60,
      "hit": false,
      "t": 283610.8912500014,
      "d": 84.5758125000284,
      "v": 97
    },
    {
      "midi": 65,
      "hit": false,
      "t": 283610.8912500014,
      "d": 84.5758125000284,
      "v": 97
    },
    {
      "midi": 68,
      "hit": false,
      "t": 283610.8912500014,
      "d": 84.5758125000284,
      "v": 97
    },
    {
      "midi": 60,
      "hit": false,
      "t": 283836.42675000144,
      "d": 84.5758125000284,
      "v": 97
    },
    {
      "midi": 65,
      "hit": false,
      "t": 283836.42675000144,
      "d": 84.5758125000284,
      "v": 97
    },
    {
      "midi": 68,
      "hit": false,
      "t": 283836.42675000144,
      "d": 84.5758125000284,
      "v": 97
    },
    {
      "midi": 60,
      "hit": false,
      "t": 283949.1945000015,
      "d": 84.5758125000284,
      "v": 85
    },
    {
      "midi": 65,
      "hit": false,
      "t": 283949.1945000015,
      "d": 84.5758125000284,
      "v": 85
    },
    {
      "midi": 68,
      "hit": false,
      "t": 283949.1945000015,
      "d": 84.5758125000284,
      "v": 85
    },
    {
      "midi": 62,
      "hit": false,
      "t": 284174.73000000155,
      "d": 84.5758125000284,
      "v": 97
    },
    {
      "midi": 67,
      "hit": false,
      "t": 284174.73000000155,
      "d": 84.5758125000284,
      "v": 97
    },
    {
      "midi": 71,
      "hit": false,
      "t": 284174.73000000155,
      "d": 84.5758125000284,
      "v": 97
    },
    {
      "midi": 62,
      "hit": false,
      "t": 284400.2655000016,
      "d": 84.5758125000284,
      "v": 97
    },
    {
      "midi": 67,
      "hit": false,
      "t": 284400.2655000016,
      "d": 84.5758125000284,
      "v": 97
    },
    {
      "midi": 71,
      "hit": false,
      "t": 284400.2655000016,
      "d": 84.5758125000284,
      "v": 97
    },
    {
      "midi": 62,
      "hit": false,
      "t": 284625.80100000167,
      "d": 84.5758125000284,
      "v": 97
    },
    {
      "midi": 67,
      "hit": false,
      "t": 284625.80100000167,
      "d": 84.5758125000284,
      "v": 97
    },
    {
      "midi": 71,
      "hit": false,
      "t": 284625.80100000167,
      "d": 84.5758125000284,
      "v": 97
    },
    {
      "midi": 63,
      "hit": false,
      "t": 284851.3365000017,
      "d": 178.54893749998882,
      "v": 97
    },
    {
      "midi": 72,
      "hit": false,
      "t": 284851.3365000017,
      "d": 178.54893749998882,
      "v": 97
    },
    {
      "midi": 67,
      "hit": false,
      "t": 284851.3365000017,
      "d": 202.04221874999348,
      "v": 97
    }
  ]
}