{
  "jsonPath": "Unknown/Unknown/Pocket Full Of Rocks/come-as-you-are-album-version.json",
  "path": "Unknown\\Unknown\\Pocket Full Of Rocks\\Come As You Are (Album Version).mid",
  "name": "Come As You Are (Album Version)",
  "difficulty": "Advanced",
  "bpm": 69.99998833333528,
  "notes": [
    {
      "midi": 67,
      "hit": false,
      "t": 4528.3,
      "d": 542.4526041666668,
      "v": 127
    },
    {
      "midi": 64,
      "hit": false,
      "t": 4528.3,
      "d": 577.8299479166672,
      "v": 127
    },
    {
      "midi": 72,
      "hit": false,
      "t": 4528.3,
      "d": 636.7921875000002,
      "v": 127
    },
    {
      "midi": 36,
      "hit": false,
      "t": 4528.3,
      "d": 1450.4710937500004,
      "v": 127
    },
    {
      "midi": 48,
      "hit": false,
      "t": 4528.3,
      "d": 1639.1502604166672,
      "v": 127
    },
    {
      "midi": 60,
      "hit": false,
      "t": 5660.375,
      "d": 495.28281250000055,
      "v": 127
    },
    {
      "midi": 64,
      "hit": false,
      "t": 5943.39375,
      "d": 294.81119791666697,
      "v": 127
    },
    {
      "midi": 67,
      "hit": false,
      "t": 6226.4125,
      "d": 341.9809895833332,
      "v": 127
    },
    {
      "midi": 72,
      "hit": false,
      "t": 6509.431250000001,
      "d": 106.13203124999927,
      "v": 127
    },
    {
      "midi": 71,
      "hit": false,
      "t": 6792.45,
      "d": 448.1130208333334,
      "v": 127
    },
    {
      "midi": 52,
      "hit": false,
      "t": 6792.45,
      "d": 943.3958333333339,
      "v": 127
    },
    {
      "midi": 62,
      "hit": false,
      "t": 6792.45,
      "d": 1356.131510416667,
      "v": 127
    },
    {
      "midi": 40,
      "hit": false,
      "t": 6792.45,
      "d": 1816.0369791666662,
      "v": 127
    },
    {
      "midi": 69,
      "hit": false,
      "t": 7358.4875,
      "d": 212.26406250000036,
      "v": 127
    },
    {
      "midi": 67,
      "hit": false,
      "t": 7641.50625,
      "d": 448.1130208333334,
      "v": 127
    },
    {
      "midi": 52,
      "hit": false,
      "t": 7924.525000000001,
      "d": 707.5468749999991,
      "v": 127
    },
    {
      "midi": 62,
      "hit": false,
      "t": 8490.5625,
      "d": 259.4338541666657,
      "v": 127
    },
    {
      "midi": 67,
      "hit": false,
      "t": 8490.5625,
      "d": 424.5281249999989,
      "v": 127
    },
    {
      "midi": 65,
      "hit": false,
      "t": 9056.599999999999,
      "d": 459.9054687499993,
      "v": 127
    },
    {
      "midi": 69,
      "hit": false,
      "t": 9056.599999999999,
      "d": 495.28281249999964,
      "v": 127
    },
    {
      "midi": 60,
      "hit": false,
      "t": 9056.599999999999,
      "d": 955.1882812500007,
      "v": 127
    },
    {
      "midi": 53,
      "hit": false,
      "t": 9056.599999999999,
      "d": 1391.5088541666682,
      "v": 127
    },
    {
      "midi": 41,
      "hit": false,
      "t": 9056.599999999999,
      "d": 2087.2632812500015,
      "v": 127
    },
    {
      "midi": 67,
      "hit": false,
      "t": 9622.637499999999,
      "d": 412.73567708333394,
      "v": 127
    },
    {
      "midi": 67,
      "hit": false,
      "t": 10188.675,
      "d": 471.6979166666679,
      "v": 127
    },
    {
      "midi": 60,
      "hit": false,
      "t": 10188.675,
      "d": 483.49036458333467,
      "v": 127
    },
    {
      "midi": 57,
      "hit": false,
      "t": 11320.75,
      "d": 483.49036458333285,
      "v": 127
    },
    {
      "midi": 41,
      "hit": false,
      "t": 11320.75,
      "d": 695.7544270833332,
      "v": 127
    },
    {
      "midi": 53,
      "hit": false,
      "t": 11320.75,
      "d": 742.9242187500004,
      "v": 127
    },
    {
      "midi": 60,
      "hit": false,
      "t": 11603.76875,
      "d": 436.3205729166675,
      "v": 127
    },
    {
      "midi": 65,
      "hit": false,
      "t": 11886.7875,
      "d": 283.0187499999993,
      "v": 127
    },
    {
      "midi": 69,
      "hit": false,
      "t": 12169.80625,
      "d": 94.33958333333248,
      "v": 127
    },
    {
      "midi": 52,
      "hit": false,
      "t": 12452.824999999999,
      "d": 636.7921875000029,
      "v": 127
    },
    {
      "midi": 40,
      "hit": false,
      "t": 12452.824999999999,
      "d": 695.7544270833369,
      "v": 127
    },
    {
      "midi": 67,
      "hit": false,
      "t": 12452.824999999999,
      "d": 754.7166666666708,
      "v": 127
    },
    {
      "midi": 64,
      "hit": false,
      "t": 12735.84375,
      "d": 471.6979166666697,
      "v": 127
    },
    {
      "midi": 60,
      "hit": false,
      "t": 13018.862500000001,
      "d": 259.43385416666933,
      "v": 127
    },
    {
      "midi": 55,
      "hit": false,
      "t": 13301.881250000004,
      "d": 94.33958333333248,
      "v": 127
    },
    {
      "midi": 57,
      "hit": false,
      "t": 13584.900000000003,
      "d": 483.49036458333285,
      "v": 127
    },
    {
      "midi": 62,
      "hit": false,
      "t": 13584.900000000003,
      "d": 483.49036458333285,
      "v": 127
    },
    {
      "midi": 38,
      "hit": false,
      "t": 13584.900000000003,
      "d": 1533.0182291666679,
      "v": 127
    },
    {
      "midi": 50,
      "hit": false,
      "t": 13584.900000000003,
      "d": 1674.5276041666675,
      "v": 127
    },
    {
      "midi": 64,
      "hit": false,
      "t": 14150.937500000004,
      "d": 330.1885416666664,
      "v": 127
    },
    {
      "midi": 60,
      "hit": false,
      "t": 14150.937500000004,
      "d": 365.5658854166668,
      "v": 127
    },
    {
      "midi": 57,
      "hit": false,
      "t": 14150.937500000004,
      "d": 377.3583333333336,
      "v": 127
    },
    {
      "midi": 62,
      "hit": false,
      "t": 14716.975000000004,
      "d": 188.6791666666668,
      "v": 127
    },
    {
      "midi": 65,
      "hit": false,
      "t": 14716.975000000004,
      "d": 247.64140625000073,
      "v": 127
    },
    {
      "midi": 57,
      "hit": false,
      "t": 14716.975000000004,
      "d": 377.3583333333336,
      "v": 127
    },
    {
      "midi": 57,
      "hit": false,
      "t": 15283.012500000004,
      "d": 82.54713541666752,
      "v": 127
    },
    {
      "midi": 64,
      "hit": false,
      "t": 15283.012500000004,
      "d": 141.50937500000146,
      "v": 127
    },
    {
      "midi": 67,
      "hit": false,
      "t": 15283.012500000004,
      "d": 165.09427083333503,
      "v": 127
    },
    {
      "midi": 69,
      "hit": false,
      "t": 15849.050000000007,
      "d": 306.60364583333285,
      "v": 127
    },
    {
      "midi": 59,
      "hit": false,
      "t": 15849.050000000007,
      "d": 353.7734375,
      "v": 127
    },
    {
      "midi": 62,
      "hit": false,
      "t": 15849.050000000007,
      "d": 389.15078125000036,
      "v": 127
    },
    {
      "midi": 43,
      "hit": false,
      "t": 15849.050000000007,
      "d": 1627.3578125000022,
      "v": 127
    },
    {
      "midi": 55,
      "hit": false,
      "t": 15849.050000000007,
      "d": 1627.3578125000022,
      "v": 127
    },
    {
      "midi": 62,
      "hit": false,
      "t": 16415.08750000001,
      "d": 106.13203124999927,
      "v": 127
    },
    {
      "midi": 71,
      "hit": false,
      "t": 16415.08750000001,
      "d": 247.64140625000073,
      "v": 127
    },
    {
      "midi": 72,
      "hit": false,
      "t": 16981.12500000001,
      "d": 188.67916666666497,
      "v": 127
    },
    {
      "midi": 74,
      "hit": false,
      "t": 17547.16250000001,
      "d": 117.92447916666788,
      "v": 127
    },
    {
      "midi": 60,
      "hit": false,
      "t": 18113.20000000001,
      "d": 660.3770833333292,
      "v": 127
    },
    {
      "midi": 72,
      "hit": false,
      "t": 18113.20000000001,
      "d": 660.3770833333292,
      "v": 127
    },
    {
      "midi": 67,
      "hit": false,
      "t": 18113.20000000001,
      "d": 672.1695312499942,
      "v": 127
    },
    {
      "midi": 64,
      "hit": false,
      "t": 18124.992447916677,
      "d": 648.5846354166642,
      "v": 127
    },
    {
      "midi": 36,
      "hit": false,
      "t": 18124.992447916677,
      "d": 707.5468749999927,
      "v": 127
    },
    {
      "midi": 48,
      "hit": false,
      "t": 18136.78489583334,
      "d": 683.9619791666628,
      "v": 127
    },
    {
      "midi": 36,
      "hit": false,
      "t": 22641.500000000004,
      "d": 4.716979166667443,
      "v": 127
    },
    {
      "midi": 48,
      "hit": false,
      "t": 22641.500000000004,
      "d": 4.716979166667443,
      "v": 127
    },
    {
      "midi": 60,
      "hit": false,
      "t": 22641.500000000004,
      "d": 4.716979166667443,
      "v": 127
    },
    {
      "midi": 64,
      "hit": false,
      "t": 22641.500000000004,
      "d": 4.716979166667443,
      "v": 127
    },
    {
      "midi": 67,
      "hit": false,
      "t": 22641.500000000004,
      "d": 955.1882812500007,
      "v": 127
    },
    {
      "midi": 72,
      "hit": false,
      "t": 22641.500000000004,
      "d": 978.7731770833343,
      "v": 127
    },
    {
      "midi": 55,
      "hit": false,
      "t": 22641.500000000004,
      "d": 1698.1124999999993,
      "v": 127
    },
    {
      "midi": 55,
      "hit": false,
      "t": 24339.612500000003,
      "d": 436.3205729166657,
      "v": 127
    },
    {
      "midi": 60,
      "hit": false,
      "t": 24622.631250000002,
      "d": 389.15078124999854,
      "v": 127
    },
    {
      "midi": 62,
      "hit": false,
      "t": 24905.65,
      "d": 341.9809895833314,
      "v": 127
    },
    {
      "midi": 60,
      "hit": false,
      "t": 25188.66875,
      "d": 294.81119791666424,
      "v": 127
    },
    {
      "midi": 64,
      "hit": false,
      "t": 25188.66875,
      "d": 837.2638020833292,
      "v": 127
    },
    {
      "midi": 62,
      "hit": false,
      "t": 26320.743749999998,
      "d": 259.4338541666657,
      "v": 127
    },
    {
      "midi": 60,
      "hit": false,
      "t": 26603.762499999997,
      "d": 141.50937500000146,
      "v": 127
    },
    {
      "midi": 67,
      "hit": false,
      "t": 27169.8,
      "d": 1851.4143229166693,
      "v": 127
    },
    {
      "midi": 64,
      "hit": false,
      "t": 27169.8,
      "d": 1863.2067708333343,
      "v": 127
    },
    {
      "midi": 59,
      "hit": false,
      "t": 27169.8,
      "d": 1945.75390625,
      "v": 127
    },
    {
      "midi": 55,
      "hit": false,
      "t": 27169.8,
      "d": 1992.9236979166672,
      "v": 127
    },
    {
      "midi": 40,
      "hit": false,
      "t": 27169.8,
      "d": 4009.4322916666642,
      "v": 127
    },
    {
      "midi": 52,
      "hit": false,
      "t": 27169.8,
      "d": 4044.809635416663,
      "v": 127
    },
    {
      "midi": 55,
      "hit": false,
      "t": 29999.9875,
      "d": 200.47161458333358,
      "v": 127
    },
    {
      "midi": 57,
      "hit": false,
      "t": 30283.00625,
      "d": 200.47161458333358,
      "v": 127
    },
    {
      "midi": 59,
      "hit": false,
      "t": 30566.024999999998,
      "d": 283.0187499999993,
      "v": 127
    },
    {
      "midi": 57,
      "hit": false,
      "t": 30849.043749999997,
      "d": 200.47161458333358,
      "v": 127
    },
    {
      "midi": 55,
      "hit": false,
      "t": 31132.062499999996,
      "d": 129.71692708333285,
      "v": 127
    },
    {
      "midi": 53,
      "hit": false,
      "t": 31698.099999999995,
      "d": 778.3015625000007,
      "v": 127
    },
    {
      "midi": 57,
      "hit": false,
      "t": 31698.099999999995,
      "d": 837.2638020833328,
      "v": 127
    },
    {
      "midi": 60,
      "hit": false,
      "t": 31698.099999999995,
      "d": 884.43359375,
      "v": 127
    },
    {
      "midi": 41,
      "hit": false,
      "t": 31698.099999999995,
      "d": 3926.885156249995,
      "v": 127
    },
    {
      "midi": 57,
      "hit": false,
      "t": 33396.212499999994,
      "d": 389.1507812500058,
      "v": 127
    },
    {
      "midi": 60,
      "hit": false,
      "t": 33679.23125,
      "d": 801.8864583333343,
      "v": 127
    },
    {
      "midi": 65,
      "hit": false,
      "t": 33962.25,
      "d": 247.6414062499971,
      "v": 127
    },
    {
      "midi": 67,
      "hit": false,
      "t": 34245.268749999996,
      "d": 306.60364583333285,
      "v": 127
    },
    {
      "midi": 65,
      "hit": false,
      "t": 34528.2875,
      "d": 624.999739583327,
      "v": 127
    },
    {
      "midi": 57,
      "hit": false,
      "t": 35660.36249999999,
      "d": 176.88671875,
      "v": 127
    },
    {
      "midi": 64,
      "hit": false,
      "t": 35660.36249999999,
      "d": 176.88671875,
      "v": 127
    },
    {
      "midi": 57,
      "hit": false,
      "t": 36226.39999999999,
      "d": 672.1695312500015,
      "v": 127
    },
    {
      "midi": 60,
      "hit": false,
      "t": 36226.39999999999,
      "d": 683.9619791666701,
      "v": 127
    },
    {
      "midi": 62,
      "hit": false,
      "t": 36226.39999999999,
      "d": 719.3393229166686,
      "v": 127
    },
    {
      "midi": 65,
      "hit": false,
      "t": 36226.39999999999,
      "d": 766.5091145833358,
      "v": 127
    },
    {
      "midi": 38,
      "hit": false,
      "t": 36226.39999999999,
      "d": 2134.4330729166613,
      "v": 127
    },
    {
      "midi": 50,
      "hit": false,
      "t": 36226.39999999999,
      "d": 2146.22552083333,
      "v": 127
    },
    {
      "midi": 60,
      "hit": false,
      "t": 37641.49374999999,
      "d": 306.60364583333285,
      "v": 127
    },
    {
      "midi": 62,
      "hit": false,
      "t": 37924.51249999999,
      "d": 353.7734374999927,
      "v": 127
    },
    {
      "midi": 69,
      "hit": false,
      "t": 38207.531249999985,
      "d": 176.88671875,
      "v": 127
    },
    {
      "midi": 59,
      "hit": false,
      "t": 38490.54999999999,
      "d": 436.320572916673,
      "v": 127
    },
    {
      "midi": 69,
      "hit": false,
      "t": 38490.54999999999,
      "d": 577.8299479166744,
      "v": 127
    },
    {
      "midi": 62,
      "hit": false,
      "t": 38490.54999999999,
      "d": 601.4148437500044,
      "v": 127
    },
    {
      "midi": 43,
      "hit": false,
      "t": 38490.54999999999,
      "d": 1721.6973958333401,
      "v": 127
    },
    {
      "midi": 59,
      "hit": false,
      "t": 39056.587499999994,
      "d": 742.9242187499985,
      "v": 127
    },
    {
      "midi": 67,
      "hit": false,
      "t": 39339.60624999999,
      "d": 577.8299479166744,
      "v": 127
    },
    {
      "midi": 59,
      "hit": false,
      "t": 39905.643749999996,
      "d": 176.88671875,
      "v": 127
    },
    {
      "midi": 65,
      "hit": false,
      "t": 39905.643749999996,
      "d": 176.88671875,
      "v": 127
    },
    {
      "midi": 55,
      "hit": false,
      "t": 40754.7,
      "d": 1037.7354166666628,
      "v": 127
    },
    {
      "midi": 60,
      "hit": false,
      "t": 40754.7,
      "d": 1049.5278645833314,
      "v": 127
    },
    {
      "midi": 64,
      "hit": false,
      "t": 40754.7,
      "d": 1132.074999999997,
      "v": 127
    },
    {
      "midi": 67,
      "hit": false,
      "t": 40754.7,
      "d": 1179.2447916666642,
      "v": 127
    },
    {
      "midi": 36,
      "hit": false,
      "t": 40754.7,
      "d": 3632.0739583333343,
      "v": 127
    },
    {
      "midi": 48,
      "hit": false,
      "t": 40754.7,
      "d": 3891.5078125,
      "v": 127
    },
    {
      "midi": 60,
      "hit": false,
      "t": 42735.831249999996,
      "d": 719.3393229166759,
      "v": 127
    },
    {
      "midi": 64,
      "hit": false,
      "t": 43018.85,
      "d": 341.98098958333867,
      "v": 127
    },
    {
      "midi": 72,
      "hit": false,
      "t": 43301.86875,
      "d": 884.43359375,
      "v": 127
    },
    {
      "midi": 60,
      "hit": false,
      "t": 43584.887500000004,
      "d": 990.5656249999956,
      "v": 127
    },
    {
      "midi": 67,
      "hit": false,
      "t": 44433.94375,
      "d": 224.05651041666715,
      "v": 127
    },
    {
      "midi": 64,
      "hit": false,
      "t": 44716.9625,
      "d": 82.5471354166657,
      "v": 127
    },
    {
      "midi": 64,
      "hit": false,
      "t": 45283,
      "d": 1627.3578124999985,
      "v": 127
    },
    {
      "midi": 67,
      "hit": false,
      "t": 45283,
      "d": 1686.3200520833343,
      "v": 127
    },
    {
      "midi": 59,
      "hit": false,
      "t": 45283,
      "d": 1721.6973958333328,
      "v": 127
    },
    {
      "midi": 55,
      "hit": false,
      "t": 45283,
      "d": 1733.4898437500015,
      "v": 127
    },
    {
      "midi": 52,
      "hit": false,
      "t": 45283,
      "d": 1945.75390625,
      "v": 127
    },
    {
      "midi": 40,
      "hit": false,
      "t": 45283,
      "d": 3113.206250000003,
      "v": 127
    },
    {
      "midi": 52,
      "hit": false,
      "t": 47547.15,
      "d": 1780.6596354166613,
      "v": 127
    },
    {
      "midi": 55,
      "hit": false,
      "t": 47830.168750000004,
      "d": 365.5658854166686,
      "v": 127
    },
    {
      "midi": 57,
      "hit": false,
      "t": 48113.18750000001,
      "d": 306.6036458333256,
      "v": 127
    },
    {
      "midi": 55,
      "hit": false,
      "t": 48396.20625,
      "d": 542.4526041666613,
      "v": 127
    },
    {
      "midi": 59,
      "hit": false,
      "t": 48396.20625,
      "d": 554.2450520833299,
      "v": 127
    },
    {
      "midi": 40,
      "hit": false,
      "t": 48679.225,
      "d": 601.4148437499971,
      "v": 127
    },
    {
      "midi": 57,
      "hit": false,
      "t": 48962.24375,
      "d": 259.4338541666657,
      "v": 127
    },
    {
      "midi": 55,
      "hit": false,
      "t": 49245.2625,
      "d": 141.50937500000146,
      "v": 127
    },
    {
      "midi": 53,
      "hit": false,
      "t": 49811.299999999996,
      "d": 1014.1505208333328,
      "v": 127
    },
    {
      "midi": 57,
      "hit": false,
      "t": 49811.299999999996,
      "d": 1132.074999999997,
      "v": 127
    },
    {
      "midi": 60,
      "hit": false,
      "t": 49811.299999999996,
      "d": 1155.659895833327,
      "v": 127
    },
    {
      "midi": 41,
      "hit": false,
      "t": 49811.299999999996,
      "d": 4080.186979166654,
      "v": 127
    },
    {
      "midi": 55,
      "hit": false,
      "t": 52075.44999999999,
      "d": 212.26406249999854,
      "v": 127
    },
    {
      "midi": 53,
      "hit": false,
      "t": 52075.44999999999,
      "d": 978.773177083327,
      "v": 127
    },
    {
      "midi": 57,
      "hit": false,
      "t": 52358.468749999985,
      "d": 176.88671875,
      "v": 127
    },
    {
      "midi": 60,
      "hit": false,
      "t": 52641.48749999999,
      "d": 294.81119791666424,
      "v": 127
    },
    {
      "midi": 60,
      "hit": false,
      "t": 53207.52499999999,
      "d": 235.84895833333576,
      "v": 127
    },
    {
      "midi": 53,
      "hit": false,
      "t": 53207.52499999999,
      "d": 589.6223958333285,
      "v": 127
    },
    {
      "midi": 57,
      "hit": false,
      "t": 53490.54374999999,
      "d": 200.47161458332994,
      "v": 127
    },
    {
      "midi": 55,
      "hit": false,
      "t": 53773.562499999985,
      "d": 176.88671875,
      "v": 127
    },
    {
      "midi": 55,
      "hit": false,
      "t": 54339.599999999984,
      "d": 813.6789062500029,
      "v": 127
    },
    {
      "midi": 59,
      "hit": false,
      "t": 54339.599999999984,
      "d": 860.8486979166701,
      "v": 127
    },
    {
      "midi": 62,
      "hit": false,
      "t": 54339.599999999984,
      "d": 908.0184895833372,
      "v": 127
    },
    {
      "midi": 43,
      "hit": false,
      "t": 54339.599999999984,
      "d": 3207.545833333359,
      "v": 127
    },
    {
      "midi": 50,
      "hit": false,
      "t": 54339.599999999984,
      "d": 4056.6020833333605,
      "v": 127
    },
    {
      "midi": 62,
      "hit": false,
      "t": 55754.69374999999,
      "d": 459.9054687500029,
      "v": 127
    },
    {
      "midi": 67,
      "hit": false,
      "t": 56037.712499999994,
      "d": 495.28281250000146,
      "v": 127
    },
    {
      "midi": 62,
      "hit": false,
      "t": 56320.73125,
      "d": 212.26406249999854,
      "v": 127
    },
    {
      "midi": 71,
      "hit": false,
      "t": 56320.73125,
      "d": 224.05651041666715,
      "v": 127
    },
    {
      "midi": 62,
      "hit": false,
      "t": 56603.75,
      "d": 165.0942708333314,
      "v": 127
    },
    {
      "midi": 67,
      "hit": false,
      "t": 56603.75,
      "d": 271.2263020833343,
      "v": 127
    },
    {
      "midi": 71,
      "hit": false,
      "t": 56603.75,
      "d": 389.1507812500058,
      "v": 127
    },
    {
      "midi": 55,
      "hit": false,
      "t": 56603.75,
      "d": 1650.942708333343,
      "v": 127
    },
    {
      "midi": 62,
      "hit": false,
      "t": 56886.76875,
      "d": 448.1130208333343,
      "v": 127
    },
    {
      "midi": 67,
      "hit": false,
      "t": 57169.787500000006,
      "d": 176.88671875,
      "v": 127
    },
    {
      "midi": 67,
      "hit": false,
      "t": 57452.80625000001,
      "d": 247.64140625000437,
      "v": 127
    },
    {
      "midi": 72,
      "hit": false,
      "t": 57452.80625000001,
      "d": 247.64140625000437,
      "v": 127
    },
    {
      "midi": 62,
      "hit": false,
      "t": 57452.80625000001,
      "d": 353.7734375,
      "v": 127
    },
    {
      "midi": 43,
      "hit": false,
      "t": 57735.82500000001,
      "d": 754.7166666666672,
      "v": 127
    },
    {
      "midi": 67,
      "hit": false,
      "t": 58018.84375000001,
      "d": 141.50937500000146,
      "v": 127
    },
    {
      "midi": 71,
      "hit": false,
      "t": 58018.84375000001,
      "d": 176.88671875,
      "v": 127
    },
    {
      "midi": 62,
      "hit": false,
      "t": 58018.84375000001,
      "d": 188.6791666666686,
      "v": 127
    },
    {
      "midi": 74,
      "hit": false,
      "t": 58018.84375000001,
      "d": 188.6791666666686,
      "v": 127
    },
    {
      "midi": 57,
      "hit": false,
      "t": 58867.90000000001,
      "d": 471.69791666666424,
      "v": 127
    },
    {
      "midi": 65,
      "hit": false,
      "t": 58867.90000000001,
      "d": 648.5846354166642,
      "v": 127
    },
    {
      "midi": 62,
      "hit": false,
      "t": 58867.90000000001,
      "d": 660.3770833333328,
      "v": 127
    },
    {
      "midi": 50,
      "hit": false,
      "t": 58867.90000000001,
      "d": 707.546875,
      "v": 127
    },
    {
      "midi": 57,
      "hit": false,
      "t": 59433.93750000001,
      "d": 129.71692708333285,
      "v": 127
    },
    {
      "midi": 55,
      "hit": false,
      "t": 59999.975000000006,
      "d": 495.28281250000146,
      "v": 127
    },
    {
      "midi": 52,
      "hit": false,
      "t": 59999.975000000006,
      "d": 507.07526041667006,
      "v": 127
    },
    {
      "midi": 64,
      "hit": false,
      "t": 59999.975000000006,
      "d": 601.4148437500044,
      "v": 127
    },
    {
      "midi": 60,
      "hit": false,
      "t": 59999.975000000006,
      "d": 624.9997395833343,
      "v": 127
    },
    {
      "midi": 55,
      "hit": false,
      "t": 60566.01250000001,
      "d": 58.96223958332848,
      "v": 127
    },
    {
      "midi": 57,
      "hit": false,
      "t": 61132.05000000001,
      "d": 530.66015625,
      "v": 127
    },
    {
      "midi": 65,
      "hit": false,
      "t": 61132.05000000001,
      "d": 542.4526041666686,
      "v": 127
    },
    {
      "midi": 60,
      "hit": false,
      "t": 61132.05000000001,
      "d": 554.2450520833372,
      "v": 127
    },
    {
      "midi": 41,
      "hit": false,
      "t": 61132.05000000001,
      "d": 872.6411458333387,
      "v": 127
    },
    {
      "midi": 69,
      "hit": false,
      "t": 62264.125000000015,
      "d": 483.49036458333285,
      "v": 127
    },
    {
      "midi": 60,
      "hit": false,
      "t": 62264.125000000015,
      "d": 507.0752604166628,
      "v": 127
    },
    {
      "midi": 57,
      "hit": false,
      "t": 62264.125000000015,
      "d": 518.8677083333314,
      "v": 127
    },
    {
      "midi": 45,
      "hit": false,
      "t": 62264.125000000015,
      "d": 566.0374999999985,
      "v": 127
    },
    {
      "midi": 62,
      "hit": false,
      "t": 63396.20000000001,
      "d": 660.3770833333328,
      "v": 127
    },
    {
      "midi": 59,
      "hit": false,
      "t": 63396.20000000001,
      "d": 707.546875,
      "v": 127
    },
    {
      "midi": 67,
      "hit": false,
      "t": 63396.20000000001,
      "d": 849.0562500000015,
      "v": 127
    },
    {
      "midi": 55,
      "hit": false,
      "t": 63396.20000000001,
      "d": 860.8486979166701,
      "v": 127
    },
    {
      "midi": 43,
      "hit": false,
      "t": 63396.20000000001,
      "d": 2665.093229166654,
      "v": 127
    },
    {
      "midi": 55,
      "hit": false,
      "t": 64528.275000000016,
      "d": 188.6791666666686,
      "v": 127
    },
    {
      "midi": 59,
      "hit": false,
      "t": 64528.275000000016,
      "d": 224.05651041666715,
      "v": 127
    },
    {
      "midi": 62,
      "hit": false,
      "t": 64528.275000000016,
      "d": 247.6414062499971,
      "v": 127
    },
    {
      "midi": 67,
      "hit": false,
      "t": 65660.35,
      "d": 235.84895833332848,
      "v": 127
    },
    {
      "midi": 71,
      "hit": false,
      "t": 65660.35,
      "d": 247.6414062499971,
      "v": 127
    },
    {
      "midi": 62,
      "hit": false,
      "t": 65660.35,
      "d": 283.0187500000029,
      "v": 127
    },
    {
      "midi": 55,
      "hit": false,
      "t": 65660.35,
      "d": 353.7734375,
      "v": 127
    },
    {
      "midi": 60,
      "hit": false,
      "t": 66792.42499999999,
      "d": 330.18854166667734,
      "v": 127
    },
    {
      "midi": 57,
      "hit": false,
      "t": 66792.42499999999,
      "d": 353.77343750001455,
      "v": 127
    },
    {
      "midi": 62,
      "hit": false,
      "t": 66792.42499999999,
      "d": 365.56588541668316,
      "v": 127
    },
    {
      "midi": 65,
      "hit": false,
      "t": 66792.42499999999,
      "d": 377.35833333335177,
      "v": 127
    },
    {
      "midi": 50,
      "hit": false,
      "t": 66792.42499999999,
      "d": 566.0375000000058,
      "v": 127
    },
    {
      "midi": 59,
      "hit": false,
      "t": 67358.4625,
      "d": 318.39609375000873,
      "v": 127
    },
    {
      "midi": 62,
      "hit": false,
      "t": 67358.4625,
      "d": 318.39609375000873,
      "v": 127
    },
    {
      "midi": 55,
      "hit": false,
      "t": 67358.4625,
      "d": 353.77343750001455,
      "v": 127
    },
    {
      "midi": 67,
      "hit": false,
      "t": 67358.4625,
      "d": 424.52812500001164,
      "v": 127
    },
    {
      "midi": 43,
      "hit": false,
      "t": 67358.4625,
      "d": 459.90546875001746,
      "v": 127
    },
    {
      "midi": 55,
      "hit": false,
      "t": 67924.50000000001,
      "d": 1132.074999999997,
      "v": 127
    },
    {
      "midi": 60,
      "hit": false,
      "t": 67924.50000000001,
      "d": 1297.1692708333285,
      "v": 127
    },
    {
      "midi": 67,
      "hit": false,
      "t": 67924.50000000001,
      "d": 1297.1692708333285,
      "v": 127
    },
    {
      "midi": 64,
      "hit": false,
      "t": 67924.50000000001,
      "d": 1320.7541666666657,
      "v": 127
    },
    {
      "midi": 48,
      "hit": false,
      "t": 67924.50000000001,
      "d": 1426.8861979166686,
      "v": 127
    },
    {
      "midi": 55,
      "hit": false,
      "t": 69339.59375000001,
      "d": 341.9809895833314,
      "v": 127
    },
    {
      "midi": 60,
      "hit": false,
      "t": 69622.61250000002,
      "d": 306.6036458333256,
      "v": 127
    },
    {
      "midi": 55,
      "hit": false,
      "t": 69905.63125,
      "d": 82.5471354166657,
      "v": 127
    },
    {
      "midi": 64,
      "hit": false,
      "t": 69905.63125,
      "d": 165.0942708333314,
      "v": 127
    },
    {
      "midi": 52,
      "hit": false,
      "t": 70188.65000000001,
      "d": 1037.7354166666773,
      "v": 127
    },
    {
      "midi": 59,
      "hit": false,
      "t": 70188.65000000001,
      "d": 1132.0750000000116,
      "v": 127
    },
    {
      "midi": 64,
      "hit": false,
      "t": 70188.65000000001,
      "d": 1155.6598958333489,
      "v": 127
    },
    {
      "midi": 55,
      "hit": false,
      "t": 70188.65000000001,
      "d": 1261.7919270833518,
      "v": 127
    },
    {
      "midi": 40,
      "hit": false,
      "t": 70188.65000000001,
      "d": 1863.2067708333489,
      "v": 127
    },
    {
      "midi": 52,
      "hit": false,
      "t": 71320.72500000002,
      "d": 707.546875,
      "v": 127
    },
    {
      "midi": 59,
      "hit": false,
      "t": 71603.74375000002,
      "d": 448.1130208333343,
      "v": 127
    },
    {
      "midi": 64,
      "hit": false,
      "t": 71603.74375000002,
      "d": 483.4903645833401,
      "v": 127
    },
    {
      "midi": 67,
      "hit": false,
      "t": 71603.74375000002,
      "d": 483.4903645833401,
      "v": 127
    },
    {
      "midi": 55,
      "hit": false,
      "t": 71886.76250000003,
      "d": 176.88671875,
      "v": 127
    },
    {
      "midi": 57,
      "hit": false,
      "t": 72452.80000000003,
      "d": 955.1882812499971,
      "v": 127
    },
    {
      "midi": 60,
      "hit": false,
      "t": 72452.80000000003,
      "d": 966.9807291666657,
      "v": 127
    },
    {
      "midi": 53,
      "hit": false,
      "t": 72452.80000000003,
      "d": 1014.1505208333256,
      "v": 127
    },
    {
      "midi": 65,
      "hit": false,
      "t": 72452.80000000003,
      "d": 1025.9429687499942,
      "v": 127
    },
    {
      "midi": 41,
      "hit": false,
      "t": 72452.80000000003,
      "d": 2134.4330729166686,
      "v": 127
    },
    {
      "midi": 53,
      "hit": false,
      "t": 73584.87500000003,
      "d": 966.9807291666657,
      "v": 127
    },
    {
      "midi": 60,
      "hit": false,
      "t": 73867.89375000003,
      "d": 165.0942708333314,
      "v": 127
    },
    {
      "midi": 69,
      "hit": false,
      "t": 73867.89375000003,
      "d": 212.26406249999127,
      "v": 127
    },
    {
      "midi": 65,
      "hit": false,
      "t": 73867.89375000003,
      "d": 224.05651041665988,
      "v": 127
    },
    {
      "midi": 60,
      "hit": false,
      "t": 74150.91250000002,
      "d": 82.5471354166657,
      "v": 127
    },
    {
      "midi": 65,
      "hit": false,
      "t": 74150.91250000002,
      "d": 106.13203125000291,
      "v": 127
    },
    {
      "midi": 69,
      "hit": false,
      "t": 74150.91250000002,
      "d": 129.71692708334012,
      "v": 127
    },
    {
      "midi": 53,
      "hit": false,
      "t": 74716.95000000004,
      "d": 943.3958333333285,
      "v": 127
    },
    {
      "midi": 41,
      "hit": false,
      "t": 74716.95000000004,
      "d": 1544.8106770833401,
      "v": 127
    },
    {
      "midi": 57,
      "hit": false,
      "t": 74999.96875000004,
      "d": 200.4716145833372,
      "v": 127
    },
    {
      "midi": 60,
      "hit": false,
      "t": 74999.96875000004,
      "d": 259.4338541666657,
      "v": 127
    },
    {
      "midi": 65,
      "hit": false,
      "t": 74999.96875000004,
      "d": 259.4338541666657,
      "v": 127
    },
    {
      "midi": 60,
      "hit": false,
      "t": 75282.98750000005,
      "d": 47.169791666659876,
      "v": 127
    },
    {
      "midi": 57,
      "hit": false,
      "t": 75282.98750000005,
      "d": 141.50937499999418,
      "v": 127
    },
    {
      "midi": 65,
      "hit": false,
      "t": 75282.98750000005,
      "d": 153.3018229166628,
      "v": 127
    },
    {
      "midi": 53,
      "hit": false,
      "t": 75849.02500000004,
      "d": 459.9054687500029,
      "v": 127
    },
    {
      "midi": 57,
      "hit": false,
      "t": 76132.04375000004,
      "d": 224.05651041665988,
      "v": 127
    },
    {
      "midi": 60,
      "hit": false,
      "t": 76132.04375000004,
      "d": 341.9809895833314,
      "v": 127
    },
    {
      "midi": 64,
      "hit": false,
      "t": 76132.04375000004,
      "d": 341.9809895833314,
      "v": 127
    },
    {
      "midi": 50,
      "hit": false,
      "t": 76981.10000000003,
      "d": 943.3958333333285,
      "v": 127
    },
    {
      "midi": 57,
      "hit": false,
      "t": 76981.10000000003,
      "d": 943.3958333333285,
      "v": 127
    },
    {
      "midi": 62,
      "hit": false,
      "t": 76981.10000000003,
      "d": 978.7731770833343,
      "v": 127
    },
    {
      "midi": 65,
      "hit": false,
      "t": 76981.10000000003,
      "d": 990.5656250000029,
      "v": 127
    },
    {
      "midi": 38,
      "hit": false,
      "t": 76981.10000000003,
      "d": 4316.035937500012,
      "v": 127
    },
    {
      "midi": 50,
      "hit": false,
      "t": 78113.17500000003,
      "d": 978.7731770833489,
      "v": 127
    },
    {
      "midi": 62,
      "hit": false,
      "t": 78396.19375000003,
      "d": 389.1507812500058,
      "v": 127
    },
    {
      "midi": 65,
      "hit": false,
      "t": 78679.21250000004,
      "d": 200.4716145833372,
      "v": 127
    },
    {
      "midi": 62,
      "hit": false,
      "t": 78962.23125000004,
      "d": 224.05651041667443,
      "v": 127
    },
    {
      "midi": 65,
      "hit": false,
      "t": 78962.23125000004,
      "d": 235.84895833334303,
      "v": 127
    },
    {
      "midi": 69,
      "hit": false,
      "t": 78962.23125000004,
      "d": 247.64140625001164,
      "v": 127
    },
    {
      "midi": 62,
      "hit": false,
      "t": 79245.25000000006,
      "d": 247.6414062499971,
      "v": 127
    },
    {
      "midi": 69,
      "hit": false,
      "t": 79245.25000000006,
      "d": 400.9432291666599,
      "v": 127
    },
    {
      "midi": 65,
      "hit": false,
      "t": 79245.25000000006,
      "d": 471.69791666665697,
      "v": 127
    },
    {
      "midi": 50,
      "hit": false,
      "t": 79245.25000000006,
      "d": 919.8109374999913,
      "v": 127
    },
    {
      "midi": 62,
      "hit": false,
      "t": 79811.28750000005,
      "d": 129.71692708334012,
      "v": 127
    },
    {
      "midi": 62,
      "hit": false,
      "t": 80094.30625000005,
      "d": 448.1130208333343,
      "v": 127
    },
    {
      "midi": 67,
      "hit": false,
      "t": 80094.30625000005,
      "d": 507.0752604166628,
      "v": 127
    },
    {
      "midi": 50,
      "hit": false,
      "t": 80377.32500000006,
      "d": 471.69791666665697,
      "v": 127
    },
    {
      "midi": 65,
      "hit": false,
      "t": 80660.34375000004,
      "d": 117.92447916667152,
      "v": 127
    },
    {
      "midi": 50,
      "hit": false,
      "t": 80943.36250000005,
      "d": 448.1130208333343,
      "v": 127
    },
    {
      "midi": 55,
      "hit": false,
      "t": 81509.40000000005,
      "d": 872.6411458333314,
      "v": 127
    },
    {
      "midi": 59,
      "hit": false,
      "t": 81509.40000000005,
      "d": 1273.5843749999913,
      "v": 127
    },
    {
      "midi": 67,
      "hit": false,
      "t": 81509.40000000005,
      "d": 1320.7541666666511,
      "v": 127
    },
    {
      "midi": 62,
      "hit": false,
      "t": 81509.40000000005,
      "d": 1426.886197916654,
      "v": 127
    },
    {
      "midi": 43,
      "hit": false,
      "t": 81509.40000000005,
      "d": 4174.526562500003,
      "v": 127
    },
    {
      "midi": 55,
      "hit": false,
      "t": 82924.49375000004,
      "d": 330.1885416666628,
      "v": 127
    },
    {
      "midi": 59,
      "hit": false,
      "t": 83207.51250000004,
      "d": 117.92447916665697,
      "v": 127
    },
    {
      "midi": 50,
      "hit": false,
      "t": 83490.53125000003,
      "d": 2228.772656250032,
      "v": 127
    },
    {
      "midi": 55,
      "hit": false,
      "t": 83773.55000000003,
      "d": 1037.7354166666628,
      "v": 127
    },
    {
      "midi": 62,
      "hit": false,
      "t": 84056.56875000003,
      "d": 754.7166666666599,
      "v": 127
    },
    {
      "midi": 67,
      "hit": false,
      "t": 84339.58750000002,
      "d": 459.9054687500029,
      "v": 127
    },
    {
      "midi": 71,
      "hit": false,
      "t": 84622.60625000003,
      "d": 176.88671875,
      "v": 127
    },
    {
      "midi": 69,
      "hit": false,
      "t": 84905.62500000003,
      "d": 212.26406250000582,
      "v": 127
    },
    {
      "midi": 62,
      "hit": false,
      "t": 84905.62500000003,
      "d": 341.98098958334594,
      "v": 127
    },
    {
      "midi": 72,
      "hit": false,
      "t": 84905.62500000003,
      "d": 365.56588541668316,
      "v": 127
    },
    {
      "midi": 55,
      "hit": false,
      "t": 84905.62500000003,
      "d": 707.5468750000146,
      "v": 127
    },
    {
      "midi": 67,
      "hit": false,
      "t": 85471.66250000005,
      "d": 82.5471354166657,
      "v": 127
    },
    {
      "midi": 71,
      "hit": false,
      "t": 85471.66250000005,
      "d": 129.71692708332557,
      "v": 127
    },
    {
      "midi": 62,
      "hit": false,
      "t": 85471.66250000005,
      "d": 176.88671875,
      "v": 127
    },
    {
      "midi": 55,
      "hit": false,
      "t": 86037.70000000006,
      "d": 896.226041666654,
      "v": 127
    },
    {
      "midi": 60,
      "hit": false,
      "t": 86037.70000000006,
      "d": 1037.7354166666482,
      "v": 127
    },
    {
      "midi": 64,
      "hit": false,
      "t": 86037.70000000006,
      "d": 1143.8674479166511,
      "v": 127
    },
    {
      "midi": 48,
      "hit": false,
      "t": 86037.70000000006,
      "d": 1308.9617187499825,
      "v": 127
    },
    {
      "midi": 55,
      "hit": false,
      "t": 87452.79375000004,
      "d": 648.584635416657,
      "v": 127
    },
    {
      "midi": 60,
      "hit": false,
      "t": 87735.81250000004,
      "d": 224.05651041665988,
      "v": 127
    },
    {
      "midi": 64,
      "hit": false,
      "t": 88018.83125000003,
      "d": 188.6791666666686,
      "v": 127
    },
    {
      "midi": 55,
      "hit": false,
      "t": 88301.85000000003,
      "d": 837.2638020833401,
      "v": 127
    },
    {
      "midi": 59,
      "hit": false,
      "t": 88301.85000000003,
      "d": 955.1882812500116,
      "v": 127
    },
    {
      "midi": 67,
      "hit": false,
      "t": 88301.85000000003,
      "d": 966.9807291666802,
      "v": 127
    },
    {
      "midi": 40,
      "hit": false,
      "t": 88301.85000000003,
      "d": 1650.942708333343,
      "v": 127
    },
    {
      "midi": 52,
      "hit": false,
      "t": 88301.85000000003,
      "d": 1745.2822916666773,
      "v": 127
    },
    {
      "midi": 55,
      "hit": false,
      "t": 89433.92500000005,
      "d": 94.3395833333343,
      "v": 127
    },
    {
      "midi": 64,
      "hit": false,
      "t": 89716.94375000005,
      "d": 318.3960937499942,
      "v": 127
    },
    {
      "midi": 59,
      "hit": false,
      "t": 89999.96250000004,
      "d": 153.30182291667734,
      "v": 127
    },
    {
      "midi": 60,
      "hit": false,
      "t": 90566.00000000004,
      "d": 966.9807291666657,
      "v": 127
    },
    {
      "midi": 57,
      "hit": false,
      "t": 90566.00000000004,
      "d": 1014.1505208333256,
      "v": 127
    },
    {
      "midi": 41,
      "hit": false,
      "t": 90566.00000000004,
      "d": 2794.810156249994,
      "v": 127
    },
    {
      "midi": 53,
      "hit": false,
      "t": 91981.09375000003,
      "d": 212.26406250000582,
      "v": 127
    },
    {
      "midi": 55,
      "hit": false,
      "t": 92264.11250000003,
      "d": 212.26406250000582,
      "v": 127
    },
    {
      "midi": 57,
      "hit": false,
      "t": 92547.13125000003,
      "d": 212.26406250000582,
      "v": 127
    },
    {
      "midi": 57,
      "hit": false,
      "t": 92830.15000000004,
      "d": 400.9432291666599,
      "v": 127
    },
    {
      "midi": 48,
      "hit": false,
      "t": 93396.18750000004,
      "d": 117.92447916667152,
      "v": 127
    },
    {
      "midi": 55,
      "hit": false,
      "t": 93962.22500000005,
      "d": 424.5281249999971,
      "v": 127
    },
    {
      "midi": 52,
      "hit": false,
      "t": 93962.22500000005,
      "d": 601.4148437499971,
      "v": 127
    },
    {
      "midi": 40,
      "hit": false,
      "t": 93962.22500000005,
      "d": 636.7921875000029,
      "v": 127
    },
    {
      "midi": 60,
      "hit": false,
      "t": 93962.22500000005,
      "d": 636.7921875000029,
      "v": 127
    },
    {
      "midi": 64,
      "hit": false,
      "t": 93962.22500000005,
      "d": 648.5846354166715,
      "v": 127
    },
    {
      "midi": 55,
      "hit": false,
      "t": 94528.26250000004,
      "d": 153.30182291667734,
      "v": 127
    },
    {
      "midi": 57,
      "hit": false,
      "t": 95094.30000000005,
      "d": 330.18854166667734,
      "v": 127
    },
    {
      "midi": 62,
      "hit": false,
      "t": 95094.30000000005,
      "d": 507.07526041667734,
      "v": 127
    },
    {
      "midi": 60,
      "hit": false,
      "t": 95094.30000000005,
      "d": 530.6601562500146,
      "v": 127
    },
    {
      "midi": 65,
      "hit": false,
      "t": 95094.30000000005,
      "d": 566.0375000000204,
      "v": 127
    },
    {
      "midi": 50,
      "hit": false,
      "t": 95094.30000000005,
      "d": 2040.0934895833343,
      "v": 127
    },
    {
      "midi": 38,
      "hit": false,
      "t": 95094.30000000005,
      "d": 2110.8481770833314,
      "v": 127
    },
    {
      "midi": 57,
      "hit": false,
      "t": 95660.33750000007,
      "d": 141.50937499999418,
      "v": 127
    },
    {
      "midi": 57,
      "hit": false,
      "t": 95943.35625000006,
      "d": 70.75468749999709,
      "v": 127
    },
    {
      "midi": 62,
      "hit": false,
      "t": 95943.35625000006,
      "d": 235.84895833332848,
      "v": 127
    },
    {
      "midi": 57,
      "hit": false,
      "t": 96509.39375000005,
      "d": 188.6791666666686,
      "v": 127
    },
    {
      "midi": 65,
      "hit": false,
      "t": 96509.39375000005,
      "d": 271.2263020833343,
      "v": 127
    },
    {
      "midi": 55,
      "hit": false,
      "t": 97358.45000000004,
      "d": 412.73567708334303,
      "v": 127
    },
    {
      "midi": 59,
      "hit": false,
      "t": 97358.45000000004,
      "d": 554.2450520833372,
      "v": 127
    },
    {
      "midi": 62,
      "hit": false,
      "t": 97358.45000000004,
      "d": 613.2072916666657,
      "v": 127
    },
    {
      "midi": 67,
      "hit": false,
      "t": 97358.45000000004,
      "d": 707.546875,
      "v": 127
    },
    {
      "midi": 43,
      "hit": false,
      "t": 97358.45000000004,
      "d": 1639.1502604166453,
      "v": 127
    },
    {
      "midi": 55,
      "hit": false,
      "t": 97924.48750000005,
      "d": 459.90546874998836,
      "v": 127
    },
    {
      "midi": 59,
      "hit": false,
      "t": 98207.50625000003,
      "d": 424.5281249999971,
      "v": 127
    },
    {
      "midi": 62,
      "hit": false,
      "t": 98773.54375000003,
      "d": 330.18854166664823,
      "v": 127
    },
    {
      "midi": 59,
      "hit": false,
      "t": 99056.56250000001,
      "d": 165.0942708333314,
      "v": 127
    },
    {
      "midi": 55,
      "hit": false,
      "t": 99622.6,
      "d": 931.6033854166599,
      "v": 127
    },
    {
      "midi": 60,
      "hit": false,
      "t": 99622.6,
      "d": 1037.7354166666628,
      "v": 127
    },
    {
      "midi": 64,
      "hit": false,
      "t": 99622.6,
      "d": 1037.7354166666628,
      "v": 127
    },
    {
      "midi": 36,
      "hit": false,
      "t": 99622.6,
      "d": 4198.111458333311,
      "v": 127
    },
    {
      "midi": 48,
      "hit": false,
      "t": 99622.6,
      "d": 4292.451041666645,
      "v": 127
    },
    {
      "midi": 55,
      "hit": false,
      "t": 101037.69375,
      "d": 365.5658854166686,
      "v": 127
    },
    {
      "midi": 60,
      "hit": false,
      "t": 101320.71250000001,
      "d": 341.9809895833314,
      "v": 127
    },
    {
      "midi": 64,
      "hit": false,
      "t": 101603.73125000001,
      "d": 235.84895833332848,
      "v": 127
    },
    {
      "midi": 65,
      "hit": false,
      "t": 101886.75,
      "d": 554.2450520833227,
      "v": 127
    },
    {
      "midi": 57,
      "hit": false,
      "t": 101886.75,
      "d": 1261.7919270833227,
      "v": 127
    },
    {
      "midi": 60,
      "hit": false,
      "t": 101886.75,
      "d": 1261.7919270833227,
      "v": 127
    },
    {
      "midi": 64,
      "hit": false,
      "t": 102452.78749999999,
      "d": 283.0187500000029,
      "v": 127
    },
    {
      "midi": 65,
      "hit": false,
      "t": 102735.80625,
      "d": 471.69791666665697,
      "v": 127
    },
    {
      "midi": 57,
      "hit": false,
      "t": 103301.84374999999,
      "d": 94.3395833333343,
      "v": 127
    },
    {
      "midi": 64,
      "hit": false,
      "t": 103301.84374999999,
      "d": 365.5658854166686,
      "v": 127
    },
    {
      "midi": 60,
      "hit": false,
      "t": 103584.86249999999,
      "d": 129.71692708332557,
      "v": 127
    },
    {
      "midi": 67,
      "hit": false,
      "t": 104150.89999999998,
      "d": 589.6223958333285,
      "v": 127
    },
    {
      "midi": 64,
      "hit": false,
      "t": 104150.89999999998,
      "d": 636.7921874999884,
      "v": 127
    },
    {
      "midi": 72,
      "hit": false,
      "t": 104150.89999999998,
      "d": 672.1695312499942,
      "v": 127
    },
    {
      "midi": 36,
      "hit": false,
      "t": 104150.89999999998,
      "d": 1474.0559895833285,
      "v": 127
    },
    {
      "midi": 48,
      "hit": false,
      "t": 104150.89999999998,
      "d": 1639.1502604166599,
      "v": 127
    },
    {
      "midi": 60,
      "hit": false,
      "t": 105282.97499999998,
      "d": 613.2072916666657,
      "v": 127
    },
    {
      "midi": 64,
      "hit": false,
      "t": 105565.99374999998,
      "d": 318.3960937499942,
      "v": 127
    },
    {
      "midi": 67,
      "hit": false,
      "t": 105849.01249999997,
      "d": 459.9054687500029,
      "v": 127
    },
    {
      "midi": 72,
      "hit": false,
      "t": 106132.03124999997,
      "d": 82.5471354166657,
      "v": 127
    },
    {
      "midi": 71,
      "hit": false,
      "t": 106415.04999999997,
      "d": 436.3205729166657,
      "v": 127
    },
    {
      "midi": 67,
      "hit": false,
      "t": 106415.04999999997,
      "d": 459.9054687500029,
      "v": 127
    },
    {
      "midi": 62,
      "hit": false,
      "t": 106415.04999999997,
      "d": 766.509114583343,
      "v": 127
    },
    {
      "midi": 40,
      "hit": false,
      "t": 106415.04999999997,
      "d": 1674.5276041666657,
      "v": 127
    },
    {
      "midi": 52,
      "hit": false,
      "t": 106415.04999999997,
      "d": 1733.4898437499942,
      "v": 127
    },
    {
      "midi": 69,
      "hit": false,
      "t": 106981.08749999998,
      "d": 212.26406250000582,
      "v": 127
    },
    {
      "midi": 62,
      "hit": false,
      "t": 107264.10624999998,
      "d": 377.3583333333372,
      "v": 127
    },
    {
      "midi": 67,
      "hit": false,
      "t": 107264.10624999998,
      "d": 424.5281249999971,
      "v": 127
    },
    {
      "midi": 62,
      "hit": false,
      "t": 107830.14374999997,
      "d": 141.50937499999418,
      "v": 127
    },
    {
      "midi": 69,
      "hit": false,
      "t": 107830.14374999997,
      "d": 153.3018229166628,
      "v": 127
    },
    {
      "midi": 60,
      "hit": false,
      "t": 108679.19999999997,
      "d": 1191.0372395833401,
      "v": 127
    },
    {
      "midi": 67,
      "hit": false,
      "t": 108679.19999999997,
      "d": 1214.6221354166773,
      "v": 127
    },
    {
      "midi": 53,
      "hit": false,
      "t": 108679.19999999997,
      "d": 2122.6406250000146,
      "v": 127
    },
    {
      "midi": 41,
      "hit": false,
      "t": 108679.19999999997,
      "d": 2900.942187500026,
      "v": 127
    },
    {
      "midi": 65,
      "hit": false,
      "t": 110094.29374999998,
      "d": 212.26406250000582,
      "v": 127
    },
    {
      "midi": 60,
      "hit": false,
      "t": 110377.31249999999,
      "d": 259.4338541666657,
      "v": 127
    },
    {
      "midi": 62,
      "hit": false,
      "t": 110660.33124999999,
      "d": 259.4338541666657,
      "v": 127
    },
    {
      "midi": 53,
      "hit": false,
      "t": 110943.34999999999,
      "d": 636.7921875000029,
      "v": 127
    },
    {
      "midi": 60,
      "hit": false,
      "t": 111226.36875,
      "d": 176.88671875,
      "v": 127
    },
    {
      "midi": 62,
      "hit": false,
      "t": 111509.3875,
      "d": 106.13203125000291,
      "v": 127
    },
    {
      "midi": 55,
      "hit": false,
      "t": 112075.425,
      "d": 400.9432291666744,
      "v": 127
    },
    {
      "midi": 64,
      "hit": false,
      "t": 112075.425,
      "d": 483.4903645833401,
      "v": 127
    },
    {
      "midi": 52,
      "hit": false,
      "t": 112075.425,
      "d": 648.5846354166715,
      "v": 127
    },
    {
      "midi": 40,
      "hit": false,
      "t": 112075.425,
      "d": 695.7544270833314,
      "v": 127
    },
    {
      "midi": 60,
      "hit": false,
      "t": 112075.425,
      "d": 742.9242187499913,
      "v": 127
    },
    {
      "midi": 55,
      "hit": false,
      "t": 112641.46250000001,
      "d": 58.96223958332848,
      "v": 127
    },
    {
      "midi": 67,
      "hit": false,
      "t": 112641.46250000001,
      "d": 271.22630208331975,
      "v": 127
    },
    {
      "midi": 57,
      "hit": false,
      "t": 113207.5,
      "d": 341.9809895833314,
      "v": 127
    },
    {
      "midi": 60,
      "hit": false,
      "t": 113207.5,
      "d": 518.8677083333314,
      "v": 127
    },
    {
      "midi": 65,
      "hit": false,
      "t": 113207.5,
      "d": 542.4526041666686,
      "v": 127
    },
    {
      "midi": 38,
      "hit": false,
      "t": 113207.5,
      "d": 2028.3010416666802,
      "v": 127
    },
    {
      "midi": 50,
      "hit": false,
      "t": 113207.5,
      "d": 2040.0934895833489,
      "v": 127
    },
    {
      "midi": 57,
      "hit": false,
      "t": 113773.5375,
      "d": 165.0942708333314,
      "v": 127
    },
    {
      "midi": 60,
      "hit": false,
      "t": 114056.55625000001,
      "d": 259.4338541666657,
      "v": 127
    },
    {
      "midi": 62,
      "hit": false,
      "t": 114622.59375000001,
      "d": 176.88671875,
      "v": 127
    },
    {
      "midi": 53,
      "hit": false,
      "t": 115471.65000000001,
      "d": 353.7734375,
      "v": 127
    },
    {
      "midi": 59,
      "hit": false,
      "t": 115471.65000000001,
      "d": 589.622395833343,
      "v": 127
    },
    {
      "midi": 43,
      "hit": false,
      "t": 115471.65000000001,
      "d": 1603.7729166666686,
      "v": 127
    },
    {
      "midi": 53,
      "hit": false,
      "t": 116037.68750000001,
      "d": 200.4716145833372,
      "v": 127
    },
    {
      "midi": 53,
      "hit": false,
      "t": 116320.70625000002,
      "d": 235.84895833332848,
      "v": 127
    },
    {
      "midi": 57,
      "hit": false,
      "t": 116320.70625000002,
      "d": 306.6036458333256,
      "v": 127
    },
    {
      "midi": 60,
      "hit": false,
      "t": 116320.70625000002,
      "d": 448.11302083331975,
      "v": 127
    },
    {
      "midi": 53,
      "hit": false,
      "t": 116886.74375000001,
      "d": 70.75468749999709,
      "v": 127
    },
    {
      "midi": 57,
      "hit": false,
      "t": 116886.74375000001,
      "d": 106.13203125000291,
      "v": 127
    },
    {
      "midi": 62,
      "hit": false,
      "t": 116886.74375000001,
      "d": 165.0942708333314,
      "v": 127
    },
    {
      "midi": 60,
      "hit": false,
      "t": 117735.80000000002,
      "d": 872.6411458333314,
      "v": 127
    },
    {
      "midi": 55,
      "hit": false,
      "t": 117735.80000000002,
      "d": 884.43359375,
      "v": 127
    },
    {
      "midi": 64,
      "hit": false,
      "t": 117735.80000000002,
      "d": 896.2260416666686,
      "v": 127
    },
    {
      "midi": 36,
      "hit": false,
      "t": 117735.80000000002,
      "d": 4150.941666666695,
      "v": 127
    },
    {
      "midi": 48,
      "hit": false,
      "t": 117735.80000000002,
      "d": 4233.4888020833605,
      "v": 127
    },
    {
      "midi": 55,
      "hit": false,
      "t": 119150.89375000002,
      "d": 377.3583333333372,
      "v": 127
    },
    {
      "midi": 60,
      "hit": false,
      "t": 119433.91250000002,
      "d": 389.1507812500058,
      "v": 127
    },
    {
      "midi": 64,
      "hit": false,
      "t": 119716.93125000002,
      "d": 235.84895833334303,
      "v": 127
    },
    {
      "midi": 57,
      "hit": false,
      "t": 119999.95000000003,
      "d": 400.9432291666744,
      "v": 127
    },
    {
      "midi": 65,
      "hit": false,
      "t": 119999.95000000003,
      "d": 601.4148437500116,
      "v": 127
    },
    {
      "midi": 60,
      "hit": false,
      "t": 119999.95000000003,
      "d": 613.2072916666802,
      "v": 127
    },
    {
      "midi": 57,
      "hit": false,
      "t": 120565.98750000003,
      "d": 459.9054687500029,
      "v": 127
    },
    {
      "midi": 60,
      "hit": false,
      "t": 120849.00625000003,
      "d": 648.5846354166715,
      "v": 127
    },
    {
      "midi": 65,
      "hit": false,
      "t": 121415.04375000004,
      "d": 188.6791666666686,
      "v": 127
    },
    {
      "midi": 36,
      "hit": false,
      "t": 122264.10000000005,
      "d": 4.716979166667443,
      "v": 127
    },
    {
      "midi": 48,
      "hit": false,
      "t": 122264.10000000005,
      "d": 4.716979166667443,
      "v": 127
    },
    {
      "midi": 60,
      "hit": false,
      "t": 122264.10000000005,
      "d": 4.716979166667443,
      "v": 127
    },
    {
      "midi": 64,
      "hit": false,
      "t": 122264.10000000005,
      "d": 4.716979166667443,
      "v": 127
    },
    {
      "midi": 67,
      "hit": false,
      "t": 122264.10000000005,
      "d": 955.1882812499971,
      "v": 127
    },
    {
      "midi": 72,
      "hit": false,
      "t": 122264.10000000005,
      "d": 978.7731770833343,
      "v": 127
    },
    {
      "midi": 55,
      "hit": false,
      "t": 122264.10000000005,
      "d": 1698.112500000003,
      "v": 127
    },
    {
      "midi": 55,
      "hit": false,
      "t": 123962.21250000005,
      "d": 436.3205729166657,
      "v": 127
    },
    {
      "midi": 60,
      "hit": false,
      "t": 124245.23125000006,
      "d": 389.1507812500058,
      "v": 127
    },
    {
      "midi": 62,
      "hit": false,
      "t": 124528.25000000006,
      "d": 341.9809895833314,
      "v": 127
    },
    {
      "midi": 60,
      "hit": false,
      "t": 124811.26875000006,
      "d": 294.81119791665697,
      "v": 127
    },
    {
      "midi": 64,
      "hit": false,
      "t": 124811.26875000006,
      "d": 837.2638020833256,
      "v": 127
    },
    {
      "midi": 62,
      "hit": false,
      "t": 125943.34375000006,
      "d": 259.4338541666657,
      "v": 127
    },
    {
      "midi": 60,
      "hit": false,
      "t": 126226.36250000006,
      "d": 141.50937499999418,
      "v": 127
    },
    {
      "midi": 67,
      "hit": false,
      "t": 126792.40000000005,
      "d": 1851.4143229166657,
      "v": 127
    },
    {
      "midi": 64,
      "hit": false,
      "t": 126792.40000000005,
      "d": 1863.2067708333343,
      "v": 127
    },
    {
      "midi": 59,
      "hit": false,
      "t": 126792.40000000005,
      "d": 1945.75390625,
      "v": 127
    },
    {
      "midi": 55,
      "hit": false,
      "t": 126792.40000000005,
      "d": 1992.9236979166599,
      "v": 127
    },
    {
      "midi": 40,
      "hit": false,
      "t": 126792.40000000005,
      "d": 4009.4322916666715,
      "v": 127
    },
    {
      "midi": 52,
      "hit": false,
      "t": 126792.40000000005,
      "d": 4044.8096354166773,
      "v": 127
    },
    {
      "midi": 55,
      "hit": false,
      "t": 129622.58750000005,
      "d": 200.4716145833372,
      "v": 127
    },
    {
      "midi": 57,
      "hit": false,
      "t": 129905.60625000006,
      "d": 200.4716145833372,
      "v": 127
    },
    {
      "midi": 59,
      "hit": false,
      "t": 130188.62500000006,
      "d": 283.0187500000029,
      "v": 127
    },
    {
      "midi": 57,
      "hit": false,
      "t": 130471.64375000006,
      "d": 200.4716145833372,
      "v": 127
    },
    {
      "midi": 55,
      "hit": false,
      "t": 130754.66250000006,
      "d": 129.71692708332557,
      "v": 127
    },
    {
      "midi": 53,
      "hit": false,
      "t": 131320.70000000007,
      "d": 778.3015625000116,
      "v": 127
    },
    {
      "midi": 57,
      "hit": false,
      "t": 131320.70000000007,
      "d": 837.2638020833547,
      "v": 127
    },
    {
      "midi": 60,
      "hit": false,
      "t": 131320.70000000007,
      "d": 884.4335937500291,
      "v": 127
    },
    {
      "midi": 41,
      "hit": false,
      "t": 131320.70000000007,
      "d": 3926.885156250035,
      "v": 127
    },
    {
      "midi": 57,
      "hit": false,
      "t": 133018.8125000001,
      "d": 389.1507812499767,
      "v": 127
    },
    {
      "midi": 60,
      "hit": false,
      "t": 133301.83125000008,
      "d": 801.8864583333489,
      "v": 127
    },
    {
      "midi": 65,
      "hit": false,
      "t": 133584.85000000006,
      "d": 247.64140625001164,
      "v": 127
    },
    {
      "midi": 67,
      "hit": false,
      "t": 133867.86875000008,
      "d": 306.6036458333547,
      "v": 127
    },
    {
      "midi": 65,
      "hit": false,
      "t": 134150.8875000001,
      "d": 624.9997395833489,
      "v": 127
    },
    {
      "midi": 57,
      "hit": false,
      "t": 135282.9625000001,
      "d": 176.88671875,
      "v": 127
    },
    {
      "midi": 64,
      "hit": false,
      "t": 135282.9625000001,
      "d": 176.88671875,
      "v": 127
    },
    {
      "midi": 57,
      "hit": false,
      "t": 135849.00000000012,
      "d": 672.1695312499942,
      "v": 127
    },
    {
      "midi": 60,
      "hit": false,
      "t": 135849.00000000012,
      "d": 683.9619791666628,
      "v": 127
    },
    {
      "midi": 62,
      "hit": false,
      "t": 135849.00000000012,
      "d": 719.3393229166686,
      "v": 127
    },
    {
      "midi": 65,
      "hit": false,
      "t": 135849.00000000012,
      "d": 766.509114583343,
      "v": 127
    },
    {
      "midi": 38,
      "hit": false,
      "t": 135849.00000000012,
      "d": 2134.4330729166977,
      "v": 127
    },
    {
      "midi": 50,
      "hit": false,
      "t": 135849.00000000012,
      "d": 2146.2255208333663,
      "v": 127
    },
    {
      "midi": 60,
      "hit": false,
      "t": 137264.09375000012,
      "d": 306.6036458333256,
      "v": 127
    },
    {
      "midi": 62,
      "hit": false,
      "t": 137547.1125000001,
      "d": 353.7734375000291,
      "v": 127
    },
    {
      "midi": 69,
      "hit": false,
      "t": 137830.13125000012,
      "d": 176.8867187500291,
      "v": 127
    },
    {
      "midi": 59,
      "hit": false,
      "t": 138113.15000000014,
      "d": 436.32057291668025,
      "v": 127
    },
    {
      "midi": 69,
      "hit": false,
      "t": 138113.15000000014,
      "d": 577.8299479166744,
      "v": 127
    },
    {
      "midi": 62,
      "hit": false,
      "t": 138113.15000000014,
      "d": 601.4148437500116,
      "v": 127
    },
    {
      "midi": 43,
      "hit": false,
      "t": 138113.15000000014,
      "d": 1721.6973958333256,
      "v": 127
    },
    {
      "midi": 59,
      "hit": false,
      "t": 138679.18750000015,
      "d": 742.9242187500058,
      "v": 127
    },
    {
      "midi": 67,
      "hit": false,
      "t": 138962.20625000016,
      "d": 577.8299479166453,
      "v": 127
    },
    {
      "midi": 59,
      "hit": false,
      "t": 139528.24375000014,
      "d": 176.88671875,
      "v": 127
    },
    {
      "midi": 65,
      "hit": false,
      "t": 139528.24375000014,
      "d": 176.88671875,
      "v": 127
    },
    {
      "midi": 55,
      "hit": false,
      "t": 140377.30000000013,
      "d": 1037.7354166666628,
      "v": 127
    },
    {
      "midi": 60,
      "hit": false,
      "t": 140377.30000000013,
      "d": 1049.5278645833314,
      "v": 127
    },
    {
      "midi": 64,
      "hit": false,
      "t": 140377.30000000013,
      "d": 1132.0750000000116,
      "v": 127
    },
    {
      "midi": 67,
      "hit": false,
      "t": 140377.30000000013,
      "d": 1179.244791666686,
      "v": 127
    },
    {
      "midi": 36,
      "hit": false,
      "t": 140377.30000000013,
      "d": 3632.0739583333198,
      "v": 127
    },
    {
      "midi": 48,
      "hit": false,
      "t": 140377.30000000013,
      "d": 3891.5078125,
      "v": 127
    },
    {
      "midi": 60,
      "hit": false,
      "t": 142358.43125000014,
      "d": 719.3393229166395,
      "v": 127
    },
    {
      "midi": 64,
      "hit": false,
      "t": 142641.45000000013,
      "d": 341.9809895833314,
      "v": 127
    },
    {
      "midi": 72,
      "hit": false,
      "t": 142924.46875000012,
      "d": 884.43359375,
      "v": 127
    },
    {
      "midi": 60,
      "hit": false,
      "t": 143207.4875000001,
      "d": 990.5656250000175,
      "v": 127
    },
    {
      "midi": 67,
      "hit": false,
      "t": 144056.54375000013,
      "d": 224.05651041667443,
      "v": 127
    },
    {
      "midi": 64,
      "hit": false,
      "t": 144339.56250000015,
      "d": 82.54713541668025,
      "v": 127
    },
    {
      "midi": 64,
      "hit": false,
      "t": 144905.60000000015,
      "d": 1627.3578125000058,
      "v": 127
    },
    {
      "midi": 67,
      "hit": false,
      "t": 144905.60000000015,
      "d": 1686.3200520833489,
      "v": 127
    },
    {
      "midi": 59,
      "hit": false,
      "t": 144905.60000000015,
      "d": 1721.6973958333547,
      "v": 127
    },
    {
      "midi": 55,
      "hit": false,
      "t": 144905.60000000015,
      "d": 1733.4898437500233,
      "v": 127
    },
    {
      "midi": 52,
      "hit": false,
      "t": 144905.60000000015,
      "d": 1945.753906250029,
      "v": 127
    },
    {
      "midi": 40,
      "hit": false,
      "t": 144905.60000000015,
      "d": 3113.2062500000175,
      "v": 127
    },
    {
      "midi": 52,
      "hit": false,
      "t": 147169.75000000017,
      "d": 1780.6596354167268,
      "v": 127
    },
    {
      "midi": 55,
      "hit": false,
      "t": 147452.76875000016,
      "d": 365.5658854166686,
      "v": 127
    },
    {
      "midi": 57,
      "hit": false,
      "t": 147735.78750000015,
      "d": 306.6036458333547,
      "v": 127
    },
    {
      "midi": 55,
      "hit": false,
      "t": 148018.80625000017,
      "d": 542.4526041666977,
      "v": 127
    },
    {
      "midi": 59,
      "hit": false,
      "t": 148018.80625000017,
      "d": 554.2450520833663,
      "v": 127
    },
    {
      "midi": 40,
      "hit": false,
      "t": 148301.8250000002,
      "d": 601.4148437500407,
      "v": 127
    },
    {
      "midi": 57,
      "hit": false,
      "t": 148584.8437500002,
      "d": 259.43385416668025,
      "v": 127
    },
    {
      "midi": 55,
      "hit": false,
      "t": 148867.86250000022,
      "d": 141.50937500002328,
      "v": 127
    },
    {
      "midi": 53,
      "hit": false,
      "t": 149433.90000000026,
      "d": 1014.1505208333256,
      "v": 127
    },
    {
      "midi": 57,
      "hit": false,
      "t": 149433.90000000026,
      "d": 1132.0749999999825,
      "v": 127
    },
    {
      "midi": 60,
      "hit": false,
      "t": 149433.90000000026,
      "d": 1155.6598958333198,
      "v": 127
    },
    {
      "midi": 41,
      "hit": false,
      "t": 149433.90000000026,
      "d": 4080.1869791666686,
      "v": 127
    },
    {
      "midi": 55,
      "hit": false,
      "t": 151698.05000000025,
      "d": 212.26406250000582,
      "v": 127
    },
    {
      "midi": 53,
      "hit": false,
      "t": 151698.05000000025,
      "d": 978.7731770833198,
      "v": 127
    },
    {
      "midi": 57,
      "hit": false,
      "t": 151981.06875000027,
      "d": 176.88671875,
      "v": 127
    },
    {
      "midi": 60,
      "hit": false,
      "t": 152264.08750000026,
      "d": 294.81119791665697,
      "v": 127
    },
    {
      "midi": 60,
      "hit": false,
      "t": 152830.12500000023,
      "d": 235.84895833334303,
      "v": 127
    },
    {
      "midi": 53,
      "hit": false,
      "t": 152830.12500000023,
      "d": 589.6223958333721,
      "v": 127
    },
    {
      "midi": 57,
      "hit": false,
      "t": 153113.14375000025,
      "d": 200.4716145833372,
      "v": 127
    },
    {
      "midi": 55,
      "hit": false,
      "t": 153396.16250000027,
      "d": 176.88671875,
      "v": 127
    },
    {
      "midi": 55,
      "hit": false,
      "t": 153962.20000000027,
      "d": 813.6789062500175,
      "v": 127
    },
    {
      "midi": 59,
      "hit": false,
      "t": 153962.20000000027,
      "d": 860.8486979166919,
      "v": 127
    },
    {
      "midi": 62,
      "hit": false,
      "t": 153962.20000000027,
      "d": 908.0184895833663,
      "v": 127
    },
    {
      "midi": 43,
      "hit": false,
      "t": 153962.20000000027,
      "d": 3207.545833333308,
      "v": 127
    },
    {
      "midi": 50,
      "hit": false,
      "t": 153962.20000000027,
      "d": 4056.6020833333314,
      "v": 127
    },
    {
      "midi": 62,
      "hit": false,
      "t": 155377.2937500003,
      "d": 459.90546874998836,
      "v": 127
    },
    {
      "midi": 67,
      "hit": false,
      "t": 155660.3125000003,
      "d": 495.2828124999942,
      "v": 127
    },
    {
      "midi": 62,
      "hit": false,
      "t": 155943.33125000028,
      "d": 212.26406250000582,
      "v": 127
    },
    {
      "midi": 71,
      "hit": false,
      "t": 155943.33125000028,
      "d": 224.05651041667443,
      "v": 127
    },
    {
      "midi": 62,
      "hit": false,
      "t": 156226.3500000003,
      "d": 165.0942708333314,
      "v": 127
    },
    {
      "midi": 67,
      "hit": false,
      "t": 156226.3500000003,
      "d": 271.22630208331975,
      "v": 127
    },
    {
      "midi": 71,
      "hit": false,
      "t": 156226.3500000003,
      "d": 389.1507812499767,
      "v": 127
    },
    {
      "midi": 55,
      "hit": false,
      "t": 156226.3500000003,
      "d": 1650.942708333314,
      "v": 127
    },
    {
      "midi": 62,
      "hit": false,
      "t": 156509.36875000029,
      "d": 448.11302083331975,
      "v": 127
    },
    {
      "midi": 67,
      "hit": false,
      "t": 156792.38750000027,
      "d": 176.88671875,
      "v": 127
    },
    {
      "midi": 67,
      "hit": false,
      "t": 157075.40625000026,
      "d": 247.64140624998254,
      "v": 127
    },
    {
      "midi": 72,
      "hit": false,
      "t": 157075.40625000026,
      "d": 247.64140624998254,
      "v": 127
    },
    {
      "midi": 62,
      "hit": false,
      "t": 157075.40625000026,
      "d": 353.7734375,
      "v": 127
    },
    {
      "midi": 43,
      "hit": false,
      "t": 157358.42500000025,
      "d": 754.7166666666744,
      "v": 127
    },
    {
      "midi": 67,
      "hit": false,
      "t": 157641.44375000027,
      "d": 141.50937499999418,
      "v": 127
    },
    {
      "midi": 71,
      "hit": false,
      "t": 157641.44375000027,
      "d": 176.88671875,
      "v": 127
    },
    {
      "midi": 62,
      "hit": false,
      "t": 157641.44375000027,
      "d": 188.6791666666686,
      "v": 127
    },
    {
      "midi": 74,
      "hit": false,
      "t": 157641.44375000027,
      "d": 188.6791666666686,
      "v": 127
    },
    {
      "midi": 57,
      "hit": false,
      "t": 158490.50000000026,
      "d": 471.69791666668607,
      "v": 127
    },
    {
      "midi": 65,
      "hit": false,
      "t": 158490.50000000026,
      "d": 648.5846354166861,
      "v": 127
    },
    {
      "midi": 62,
      "hit": false,
      "t": 158490.50000000026,
      "d": 660.3770833333547,
      "v": 127
    },
    {
      "midi": 50,
      "hit": false,
      "t": 158490.50000000026,
      "d": 707.5468750000291,
      "v": 127
    },
    {
      "midi": 57,
      "hit": false,
      "t": 159056.53750000027,
      "d": 129.71692708335468,
      "v": 127
    },
    {
      "midi": 55,
      "hit": false,
      "t": 159622.5750000003,
      "d": 495.2828125000233,
      "v": 127
    },
    {
      "midi": 52,
      "hit": false,
      "t": 159622.5750000003,
      "d": 507.0752604166919,
      "v": 127
    },
    {
      "midi": 64,
      "hit": false,
      "t": 159622.5750000003,
      "d": 601.4148437500407,
      "v": 127
    },
    {
      "midi": 60,
      "hit": false,
      "t": 159622.5750000003,
      "d": 624.999739583378,
      "v": 127
    },
    {
      "midi": 55,
      "hit": false,
      "t": 160188.61250000034,
      "d": 58.962239583343035,
      "v": 127
    },
    {
      "midi": 57,
      "hit": false,
      "t": 160754.65000000034,
      "d": 530.66015625,
      "v": 127
    },
    {
      "midi": 65,
      "hit": false,
      "t": 160754.65000000034,
      "d": 542.4526041666686,
      "v": 127
    },
    {
      "midi": 60,
      "hit": false,
      "t": 160754.65000000034,
      "d": 554.2450520833372,
      "v": 127
    },
    {
      "midi": 41,
      "hit": false,
      "t": 160754.65000000034,
      "d": 872.6411458333314,
      "v": 127
    },
    {
      "midi": 69,
      "hit": false,
      "t": 161886.72500000036,
      "d": 483.4903645833547,
      "v": 127
    },
    {
      "midi": 60,
      "hit": false,
      "t": 161886.72500000036,
      "d": 507.0752604166919,
      "v": 127
    },
    {
      "midi": 57,
      "hit": false,
      "t": 161886.72500000036,
      "d": 518.8677083333605,
      "v": 127
    },
    {
      "midi": 45,
      "hit": false,
      "t": 161886.72500000036,
      "d": 566.0375000000349,
      "v": 127
    },
    {
      "midi": 62,
      "hit": false,
      "t": 163018.8000000004,
      "d": 660.3770833333547,
      "v": 127
    },
    {
      "midi": 59,
      "hit": false,
      "t": 163018.8000000004,
      "d": 707.5468750000291,
      "v": 127
    },
    {
      "midi": 67,
      "hit": false,
      "t": 163018.8000000004,
      "d": 849.0562500000233,
      "v": 127
    },
    {
      "midi": 55,
      "hit": false,
      "t": 163018.8000000004,
      "d": 860.8486979166919,
      "v": 127
    },
    {
      "midi": 43,
      "hit": false,
      "t": 163018.8000000004,
      "d": 2665.093229166727,
      "v": 127
    },
    {
      "midi": 55,
      "hit": false,
      "t": 164150.8750000004,
      "d": 188.6791666666686,
      "v": 127
    },
    {
      "midi": 59,
      "hit": false,
      "t": 164150.8750000004,
      "d": 224.05651041667443,
      "v": 127
    },
    {
      "midi": 62,
      "hit": false,
      "t": 164150.8750000004,
      "d": 247.64140625001164,
      "v": 127
    },
    {
      "midi": 67,
      "hit": false,
      "t": 165282.95000000042,
      "d": 235.84895833334303,
      "v": 127
    },
    {
      "midi": 71,
      "hit": false,
      "t": 165282.95000000042,
      "d": 247.64140625001164,
      "v": 127
    },
    {
      "midi": 62,
      "hit": false,
      "t": 165282.95000000042,
      "d": 283.01875000001746,
      "v": 127
    },
    {
      "midi": 55,
      "hit": false,
      "t": 165282.95000000042,
      "d": 353.7734375000291,
      "v": 127
    },
    {
      "midi": 60,
      "hit": false,
      "t": 166415.02500000046,
      "d": 330.1885416666628,
      "v": 127
    },
    {
      "midi": 57,
      "hit": false,
      "t": 166415.02500000046,
      "d": 353.7734375,
      "v": 127
    },
    {
      "midi": 62,
      "hit": false,
      "t": 166415.02500000046,
      "d": 365.5658854166686,
      "v": 127
    },
    {
      "midi": 65,
      "hit": false,
      "t": 166415.02500000046,
      "d": 377.3583333333372,
      "v": 127
    },
    {
      "midi": 50,
      "hit": false,
      "t": 166415.02500000046,
      "d": 566.0375000000058,
      "v": 127
    },
    {
      "midi": 59,
      "hit": false,
      "t": 166981.06250000047,
      "d": 318.3960937499942,
      "v": 127
    },
    {
      "midi": 62,
      "hit": false,
      "t": 166981.06250000047,
      "d": 318.3960937499942,
      "v": 127
    },
    {
      "midi": 55,
      "hit": false,
      "t": 166981.06250000047,
      "d": 353.7734375,
      "v": 127
    },
    {
      "midi": 67,
      "hit": false,
      "t": 166981.06250000047,
      "d": 424.52812500001164,
      "v": 127
    },
    {
      "midi": 43,
      "hit": false,
      "t": 166981.06250000047,
      "d": 459.90546875001746,
      "v": 127
    },
    {
      "midi": 55,
      "hit": false,
      "t": 167547.1000000005,
      "d": 1132.0750000000116,
      "v": 127
    },
    {
      "midi": 60,
      "hit": false,
      "t": 167547.1000000005,
      "d": 1297.1692708333721,
      "v": 127
    },
    {
      "midi": 67,
      "hit": false,
      "t": 167547.1000000005,
      "d": 1297.1692708333721,
      "v": 127
    },
    {
      "midi": 64,
      "hit": false,
      "t": 167547.1000000005,
      "d": 1320.7541666667094,
      "v": 127
    },
    {
      "midi": 48,
      "hit": false,
      "t": 167547.1000000005,
      "d": 1426.8861979166977,
      "v": 127
    },
    {
      "midi": 55,
      "hit": false,
      "t": 168962.19375000053,
      "d": 341.9809895833314,
      "v": 127
    },
    {
      "midi": 60,
      "hit": false,
      "t": 169245.21250000052,
      "d": 306.6036458333547,
      "v": 127
    },
    {
      "midi": 55,
      "hit": false,
      "t": 169528.23125000054,
      "d": 82.54713541668025,
      "v": 127
    },
    {
      "midi": 64,
      "hit": false,
      "t": 169528.23125000054,
      "d": 165.0942708333605,
      "v": 127
    },
    {
      "midi": 52,
      "hit": false,
      "t": 169811.25000000055,
      "d": 1037.7354166666628,
      "v": 127
    },
    {
      "midi": 59,
      "hit": false,
      "t": 169811.25000000055,
      "d": 1132.0749999999825,
      "v": 127
    },
    {
      "midi": 64,
      "hit": false,
      "t": 169811.25000000055,
      "d": 1155.6598958333198,
      "v": 127
    },
    {
      "midi": 55,
      "hit": false,
      "t": 169811.25000000055,
      "d": 1261.791927083308,
      "v": 127
    },
    {
      "midi": 40,
      "hit": false,
      "t": 169811.25000000055,
      "d": 1863.2067708332906,
      "v": 127
    },
    {
      "midi": 52,
      "hit": false,
      "t": 170943.32500000054,
      "d": 707.5468749999709,
      "v": 127
    },
    {
      "midi": 59,
      "hit": false,
      "t": 171226.34375000052,
      "d": 448.11302083331975,
      "v": 127
    },
    {
      "midi": 64,
      "hit": false,
      "t": 171226.34375000052,
      "d": 483.4903645833256,
      "v": 127
    },
    {
      "midi": 67,
      "hit": false,
      "t": 171226.34375000052,
      "d": 483.4903645833256,
      "v": 127
    },
    {
      "midi": 55,
      "hit": false,
      "t": 171509.3625000005,
      "d": 176.88671875,
      "v": 127
    },
    {
      "midi": 57,
      "hit": false,
      "t": 172075.40000000052,
      "d": 955.1882812500116,
      "v": 127
    },
    {
      "midi": 60,
      "hit": false,
      "t": 172075.40000000052,
      "d": 966.9807291666802,
      "v": 127
    },
    {
      "midi": 53,
      "hit": false,
      "t": 172075.40000000052,
      "d": 1014.1505208333547,
      "v": 127
    },
    {
      "midi": 65,
      "hit": false,
      "t": 172075.40000000052,
      "d": 1025.9429687500233,
      "v": 127
    },
    {
      "midi": 41,
      "hit": false,
      "t": 172075.40000000052,
      "d": 2134.4330729166977,
      "v": 127
    },
    {
      "midi": 53,
      "hit": false,
      "t": 173207.47500000053,
      "d": 966.9807291666802,
      "v": 127
    },
    {
      "midi": 60,
      "hit": false,
      "t": 173490.49375000052,
      "d": 165.0942708333314,
      "v": 127
    },
    {
      "midi": 69,
      "hit": false,
      "t": 173490.49375000052,
      "d": 212.26406250000582,
      "v": 127
    },
    {
      "midi": 65,
      "hit": false,
      "t": 173490.49375000052,
      "d": 224.05651041667443,
      "v": 127
    },
    {
      "midi": 60,
      "hit": false,
      "t": 173773.51250000054,
      "d": 82.54713541668025,
      "v": 127
    },
    {
      "midi": 65,
      "hit": false,
      "t": 173773.51250000054,
      "d": 106.13203125001746,
      "v": 127
    },
    {
      "midi": 69,
      "hit": false,
      "t": 173773.51250000054,
      "d": 129.71692708335468,
      "v": 127
    },
    {
      "midi": 53,
      "hit": false,
      "t": 174339.55000000054,
      "d": 943.395833333343,
      "v": 127
    },
    {
      "midi": 41,
      "hit": false,
      "t": 174339.55000000054,
      "d": 1544.8106770833256,
      "v": 127
    },
    {
      "midi": 57,
      "hit": false,
      "t": 174622.56875000053,
      "d": 200.4716145833372,
      "v": 127
    },
    {
      "midi": 60,
      "hit": false,
      "t": 174622.56875000053,
      "d": 259.43385416668025,
      "v": 127
    },
    {
      "midi": 65,
      "hit": false,
      "t": 174622.56875000053,
      "d": 259.43385416668025,
      "v": 127
    },
    {
      "midi": 60,
      "hit": false,
      "t": 174905.58750000055,
      "d": 47.16979166667443,
      "v": 127
    },
    {
      "midi": 57,
      "hit": false,
      "t": 174905.58750000055,
      "d": 141.50937499999418,
      "v": 127
    },
    {
      "midi": 65,
      "hit": false,
      "t": 174905.58750000055,
      "d": 153.3018229166628,
      "v": 127
    },
    {
      "midi": 53,
      "hit": false,
      "t": 175471.62500000055,
      "d": 459.90546874998836,
      "v": 127
    },
    {
      "midi": 57,
      "hit": false,
      "t": 175754.64375000054,
      "d": 224.05651041667443,
      "v": 127
    },
    {
      "midi": 60,
      "hit": false,
      "t": 175754.64375000054,
      "d": 341.9809895833314,
      "v": 127
    },
    {
      "midi": 64,
      "hit": false,
      "t": 175754.64375000054,
      "d": 341.9809895833314,
      "v": 127
    },
    {
      "midi": 50,
      "hit": false,
      "t": 176603.70000000054,
      "d": 943.3958333333139,
      "v": 127
    },
    {
      "midi": 57,
      "hit": false,
      "t": 176603.70000000054,
      "d": 943.3958333333139,
      "v": 127
    },
    {
      "midi": 62,
      "hit": false,
      "t": 176603.70000000054,
      "d": 978.7731770833198,
      "v": 127
    },
    {
      "midi": 65,
      "hit": false,
      "t": 176603.70000000054,
      "d": 990.5656249999884,
      "v": 127
    },
    {
      "midi": 38,
      "hit": false,
      "t": 176603.70000000054,
      "d": 4316.035937499953,
      "v": 127
    },
    {
      "midi": 50,
      "hit": false,
      "t": 177735.77500000052,
      "d": 978.7731770832906,
      "v": 127
    },
    {
      "midi": 62,
      "hit": false,
      "t": 178018.7937500005,
      "d": 389.1507812499767,
      "v": 127
    },
    {
      "midi": 65,
      "hit": false,
      "t": 178301.8125000005,
      "d": 200.4716145833081,
      "v": 127
    },
    {
      "midi": 62,
      "hit": false,
      "t": 178584.83125000048,
      "d": 224.05651041664532,
      "v": 127
    },
    {
      "midi": 65,
      "hit": false,
      "t": 178584.83125000048,
      "d": 235.84895833331393,
      "v": 127
    },
    {
      "midi": 69,
      "hit": false,
      "t": 178584.83125000048,
      "d": 247.64140624998254,
      "v": 127
    },
    {
      "midi": 62,
      "hit": false,
      "t": 178867.85000000047,
      "d": 247.64140625001164,
      "v": 127
    },
    {
      "midi": 69,
      "hit": false,
      "t": 178867.85000000047,
      "d": 400.9432291666744,
      "v": 127
    },
    {
      "midi": 65,
      "hit": false,
      "t": 178867.85000000047,
      "d": 471.69791666668607,
      "v": 127
    },
    {
      "midi": 50,
      "hit": false,
      "t": 178867.85000000047,
      "d": 919.8109375000058,
      "v": 127
    },
    {
      "midi": 62,
      "hit": false,
      "t": 179433.88750000048,
      "d": 129.71692708332557,
      "v": 127
    },
    {
      "midi": 62,
      "hit": false,
      "t": 179716.90625000047,
      "d": 448.11302083334886,
      "v": 127
    },
    {
      "midi": 67,
      "hit": false,
      "t": 179716.90625000047,
      "d": 507.0752604166919,
      "v": 127
    },
    {
      "midi": 50,
      "hit": false,
      "t": 179999.92500000048,
      "d": 471.69791666668607,
      "v": 127
    },
    {
      "midi": 65,
      "hit": false,
      "t": 180282.9437500005,
      "d": 117.92447916665697,
      "v": 127
    },
    {
      "midi": 50,
      "hit": false,
      "t": 180565.9625000005,
      "d": 448.11302083331975,
      "v": 127
    },
    {
      "midi": 55,
      "hit": false,
      "t": 181132.00000000047,
      "d": 872.6411458333605,
      "v": 127
    },
    {
      "midi": 59,
      "hit": false,
      "t": 181132.00000000047,
      "d": 1273.584375000035,
      "v": 127
    },
    {
      "midi": 67,
      "hit": false,
      "t": 181132.00000000047,
      "d": 1320.7541666667094,
      "v": 127
    },
    {
      "midi": 62,
      "hit": false,
      "t": 181132.00000000047,
      "d": 1426.8861979166977,
      "v": 127
    },
    {
      "midi": 43,
      "hit": false,
      "t": 181132.00000000047,
      "d": 4174.526562500047,
      "v": 127
    },
    {
      "midi": 55,
      "hit": false,
      "t": 182547.0937500005,
      "d": 330.1885416666628,
      "v": 127
    },
    {
      "midi": 59,
      "hit": false,
      "t": 182830.11250000048,
      "d": 117.92447916668607,
      "v": 127
    },
    {
      "midi": 50,
      "hit": false,
      "t": 183113.1312500005,
      "d": 2228.7726562500175,
      "v": 127
    },
    {
      "midi": 55,
      "hit": false,
      "t": 183396.1500000005,
      "d": 1037.7354166666628,
      "v": 127
    },
    {
      "midi": 62,
      "hit": false,
      "t": 183679.16875000048,
      "d": 754.7166666666744,
      "v": 127
    },
    {
      "midi": 67,
      "hit": false,
      "t": 183962.1875000005,
      "d": 459.90546874998836,
      "v": 127
    },
    {
      "midi": 71,
      "hit": false,
      "t": 184245.20625000048,
      "d": 176.88671875,
      "v": 127
    },
    {
      "midi": 69,
      "hit": false,
      "t": 184528.22500000047,
      "d": 212.26406250000582,
      "v": 127
    },
    {
      "midi": 62,
      "hit": false,
      "t": 184528.22500000047,
      "d": 341.9809895833314,
      "v": 127
    },
    {
      "midi": 72,
      "hit": false,
      "t": 184528.22500000047,
      "d": 365.5658854166686,
      "v": 127
    },
    {
      "midi": 55,
      "hit": false,
      "t": 184528.22500000047,
      "d": 707.5468750000291,
      "v": 127
    },
    {
      "midi": 67,
      "hit": false,
      "t": 185094.26250000048,
      "d": 82.54713541668025,
      "v": 127
    },
    {
      "midi": 71,
      "hit": false,
      "t": 185094.26250000048,
      "d": 129.71692708335468,
      "v": 127
    },
    {
      "midi": 62,
      "hit": false,
      "t": 185094.26250000048,
      "d": 176.8867187500291,
      "v": 127
    },
    {
      "midi": 55,
      "hit": false,
      "t": 185660.3000000005,
      "d": 896.2260416666686,
      "v": 127
    },
    {
      "midi": 60,
      "hit": false,
      "t": 185660.3000000005,
      "d": 1037.7354166666628,
      "v": 127
    },
    {
      "midi": 64,
      "hit": false,
      "t": 185660.3000000005,
      "d": 1143.8674479166511,
      "v": 127
    },
    {
      "midi": 48,
      "hit": false,
      "t": 185660.3000000005,
      "d": 1308.9617187499825,
      "v": 127
    },
    {
      "midi": 55,
      "hit": false,
      "t": 187075.39375000048,
      "d": 648.5846354166861,
      "v": 127
    },
    {
      "midi": 60,
      "hit": false,
      "t": 187358.41250000047,
      "d": 224.05651041667443,
      "v": 127
    },
    {
      "midi": 64,
      "hit": false,
      "t": 187641.4312500005,
      "d": 188.6791666666686,
      "v": 127
    },
    {
      "midi": 55,
      "hit": false,
      "t": 187924.45000000048,
      "d": 837.2638020833256,
      "v": 127
    },
    {
      "midi": 59,
      "hit": false,
      "t": 187924.45000000048,
      "d": 955.1882812499825,
      "v": 127
    },
    {
      "midi": 67,
      "hit": false,
      "t": 187924.45000000048,
      "d": 966.9807291666511,
      "v": 127
    },
    {
      "midi": 40,
      "hit": false,
      "t": 187924.45000000048,
      "d": 1650.942708333314,
      "v": 127
    },
    {
      "midi": 52,
      "hit": false,
      "t": 187924.45000000048,
      "d": 1745.2822916666628,
      "v": 127
    },
    {
      "midi": 55,
      "hit": false,
      "t": 189056.52500000046,
      "d": 94.33958333331975,
      "v": 127
    },
    {
      "midi": 64,
      "hit": false,
      "t": 189339.54375000045,
      "d": 318.3960937500233,
      "v": 127
    },
    {
      "midi": 59,
      "hit": false,
      "t": 189622.56250000047,
      "d": 153.3018229166628,
      "v": 127
    },
    {
      "midi": 60,
      "hit": false,
      "t": 190188.60000000047,
      "d": 966.9807291666802,
      "v": 127
    },
    {
      "midi": 57,
      "hit": false,
      "t": 190188.60000000047,
      "d": 1014.1505208333547,
      "v": 127
    },
    {
      "midi": 41,
      "hit": false,
      "t": 190188.60000000047,
      "d": 2794.8101562500815,
      "v": 127
    },
    {
      "midi": 53,
      "hit": false,
      "t": 191603.6937500005,
      "d": 212.26406250000582,
      "v": 127
    },
    {
      "midi": 55,
      "hit": false,
      "t": 191886.71250000052,
      "d": 212.26406250000582,
      "v": 127
    },
    {
      "midi": 57,
      "hit": false,
      "t": 192169.73125000054,
      "d": 212.26406250000582,
      "v": 127
    },
    {
      "midi": 57,
      "hit": false,
      "t": 192452.75000000055,
      "d": 400.9432291666744,
      "v": 127
    },
    {
      "midi": 48,
      "hit": false,
      "t": 193018.78750000056,
      "d": 117.92447916665697,
      "v": 127
    },
    {
      "midi": 55,
      "hit": false,
      "t": 193584.82500000054,
      "d": 424.52812500001164,
      "v": 127
    },
    {
      "midi": 52,
      "hit": false,
      "t": 193584.82500000054,
      "d": 601.4148437500116,
      "v": 127
    },
    {
      "midi": 40,
      "hit": false,
      "t": 193584.82500000054,
      "d": 636.7921875000175,
      "v": 127
    },
    {
      "midi": 60,
      "hit": false,
      "t": 193584.82500000054,
      "d": 636.7921875000175,
      "v": 127
    },
    {
      "midi": 64,
      "hit": false,
      "t": 193584.82500000054,
      "d": 648.5846354166861,
      "v": 127
    },
    {
      "midi": 55,
      "hit": false,
      "t": 194150.86250000054,
      "d": 153.3018229166919,
      "v": 127
    },
    {
      "midi": 57,
      "hit": false,
      "t": 194716.90000000058,
      "d": 330.1885416666628,
      "v": 127
    },
    {
      "midi": 62,
      "hit": false,
      "t": 194716.90000000058,
      "d": 507.0752604166628,
      "v": 127
    },
    {
      "midi": 60,
      "hit": false,
      "t": 194716.90000000058,
      "d": 530.66015625,
      "v": 127
    },
    {
      "midi": 65,
      "hit": false,
      "t": 194716.90000000058,
      "d": 566.0375000000058,
      "v": 127
    },
    {
      "midi": 50,
      "hit": false,
      "t": 194716.90000000058,
      "d": 2040.0934895833489,
      "v": 127
    },
    {
      "midi": 38,
      "hit": false,
      "t": 194716.90000000058,
      "d": 2110.8481770833605,
      "v": 127
    },
    {
      "midi": 57,
      "hit": false,
      "t": 195282.93750000058,
      "d": 141.50937499999418,
      "v": 127
    },
    {
      "midi": 57,
      "hit": false,
      "t": 195565.95625000057,
      "d": 70.75468750001164,
      "v": 127
    },
    {
      "midi": 62,
      "hit": false,
      "t": 195565.95625000057,
      "d": 235.84895833334303,
      "v": 127
    },
    {
      "midi": 57,
      "hit": false,
      "t": 196131.99375000058,
      "d": 188.6791666666686,
      "v": 127
    },
    {
      "midi": 65,
      "hit": false,
      "t": 196131.99375000058,
      "d": 271.22630208334886,
      "v": 127
    },
    {
      "midi": 55,
      "hit": false,
      "t": 196981.0500000006,
      "d": 412.73567708331393,
      "v": 127
    },
    {
      "midi": 59,
      "hit": false,
      "t": 196981.0500000006,
      "d": 554.2450520833081,
      "v": 127
    },
    {
      "midi": 62,
      "hit": false,
      "t": 196981.0500000006,
      "d": 613.2072916666511,
      "v": 127
    },
    {
      "midi": 67,
      "hit": false,
      "t": 196981.0500000006,
      "d": 707.5468749999709,
      "v": 127
    },
    {
      "midi": 43,
      "hit": false,
      "t": 196981.0500000006,
      "d": 1639.1502604166453,
      "v": 127
    },
    {
      "midi": 55,
      "hit": false,
      "t": 197547.08750000058,
      "d": 459.90546874998836,
      "v": 127
    },
    {
      "midi": 59,
      "hit": false,
      "t": 197830.10625000056,
      "d": 424.52812500001164,
      "v": 127
    },
    {
      "midi": 62,
      "hit": false,
      "t": 198396.14375000057,
      "d": 330.1885416666919,
      "v": 127
    },
    {
      "midi": 59,
      "hit": false,
      "t": 198679.1625000006,
      "d": 165.0942708333314,
      "v": 127
    },
    {
      "midi": 55,
      "hit": false,
      "t": 199245.2000000006,
      "d": 294.81119791668607,
      "v": 127
    },
    {
      "midi": 60,
      "hit": false,
      "t": 199245.2000000006,
      "d": 483.4903645833547,
      "v": 127
    },
    {
      "midi": 67,
      "hit": false,
      "t": 199245.2000000006,
      "d": 495.2828125000233,
      "v": 127
    },
    {
      "midi": 48,
      "hit": false,
      "t": 199245.2000000006,
      "d": 1721.6973958333838,
      "v": 127
    },
    {
      "midi": 55,
      "hit": false,
      "t": 199811.23750000063,
      "d": 247.64140625001164,
      "v": 127
    },
    {
      "midi": 60,
      "hit": false,
      "t": 200094.25625000065,
      "d": 271.22630208331975,
      "v": 127
    },
    {
      "midi": 62,
      "hit": false,
      "t": 200660.29375000062,
      "d": 247.64140625001164,
      "v": 127
    },
    {
      "midi": 60,
      "hit": false,
      "t": 200943.31250000064,
      "d": 153.3018229166628,
      "v": 127
    },
    {
      "midi": 55,
      "hit": false,
      "t": 201509.35000000065,
      "d": 212.26406250000582,
      "v": 127
    },
    {
      "midi": 59,
      "hit": false,
      "t": 201509.35000000065,
      "d": 283.01875000001746,
      "v": 127
    },
    {
      "midi": 62,
      "hit": false,
      "t": 201509.35000000065,
      "d": 318.3960937500233,
      "v": 127
    },
    {
      "midi": 67,
      "hit": false,
      "t": 201509.35000000065,
      "d": 353.7734375000291,
      "v": 127
    },
    {
      "midi": 43,
      "hit": false,
      "t": 201509.35000000065,
      "d": 2028.3010416667094,
      "v": 127
    },
    {
      "midi": 62,
      "hit": false,
      "t": 202075.38750000068,
      "d": 47.16979166667443,
      "v": 127
    },
    {
      "midi": 71,
      "hit": false,
      "t": 202358.4062500007,
      "d": 318.3960937499942,
      "v": 127
    },
    {
      "midi": 67,
      "hit": false,
      "t": 202358.4062500007,
      "d": 330.1885416666628,
      "v": 127
    },
    {
      "midi": 62,
      "hit": false,
      "t": 202358.4062500007,
      "d": 341.9809895833314,
      "v": 127
    },
    {
      "midi": 69,
      "hit": false,
      "t": 202924.4437500007,
      "d": 153.3018229166628,
      "v": 127
    },
    {
      "midi": 62,
      "hit": false,
      "t": 202924.4437500007,
      "d": 247.64140624998254,
      "v": 127
    },
    {
      "midi": 72,
      "hit": false,
      "t": 202924.4437500007,
      "d": 247.64140624998254,
      "v": 127
    },
    {
      "midi": 62,
      "hit": false,
      "t": 203207.4625000007,
      "d": 94.33958333331975,
      "v": 127
    },
    {
      "midi": 69,
      "hit": false,
      "t": 203207.4625000007,
      "d": 106.13203124998836,
      "v": 127
    },
    {
      "midi": 55,
      "hit": false,
      "t": 203773.5000000007,
      "d": 507.0752604166628,
      "v": 127
    },
    {
      "midi": 60,
      "hit": false,
      "t": 203773.5000000007,
      "d": 660.3770833333256,
      "v": 127
    },
    {
      "midi": 64,
      "hit": false,
      "t": 203773.5000000007,
      "d": 719.3393229166686,
      "v": 127
    },
    {
      "midi": 48,
      "hit": false,
      "t": 203773.5000000007,
      "d": 1556.6031249999942,
      "v": 127
    },
    {
      "midi": 67,
      "hit": false,
      "t": 204905.5750000007,
      "d": 283.01874999998836,
      "v": 127
    },
    {
      "midi": 64,
      "hit": false,
      "t": 205188.5937500007,
      "d": 283.01874999998836,
      "v": 127
    },
    {
      "midi": 60,
      "hit": false,
      "t": 205471.6125000007,
      "d": 200.4716145833372,
      "v": 127
    },
    {
      "midi": 55,
      "hit": false,
      "t": 206037.6500000007,
      "d": 554.2450520833372,
      "v": 127
    },
    {
      "midi": 59,
      "hit": false,
      "t": 206037.6500000007,
      "d": 778.3015625000116,
      "v": 127
    },
    {
      "midi": 64,
      "hit": false,
      "t": 206037.6500000007,
      "d": 778.3015625000116,
      "v": 127
    },
    {
      "midi": 52,
      "hit": false,
      "t": 206037.6500000007,
      "d": 1591.98046875,
      "v": 127
    },
    {
      "midi": 67,
      "hit": false,
      "t": 207169.7250000007,
      "d": 495.2828124999942,
      "v": 127
    },
    {
      "midi": 59,
      "hit": false,
      "t": 207169.7250000007,
      "d": 542.4526041666686,
      "v": 127
    },
    {
      "midi": 55,
      "hit": false,
      "t": 207452.7437500007,
      "d": 247.64140625001164,
      "v": 127
    },
    {
      "midi": 60,
      "hit": false,
      "t": 208301.80000000072,
      "d": 695.7544270833023,
      "v": 127
    },
    {
      "midi": 57,
      "hit": false,
      "t": 208301.80000000072,
      "d": 719.3393229166395,
      "v": 127
    },
    {
      "midi": 53,
      "hit": false,
      "t": 208301.80000000072,
      "d": 742.9242187499767,
      "v": 127
    },
    {
      "midi": 41,
      "hit": false,
      "t": 208301.80000000072,
      "d": 3820.7531250000175,
      "v": 127
    },
    {
      "midi": 53,
      "hit": false,
      "t": 209716.8937500007,
      "d": 200.4716145833372,
      "v": 127
    },
    {
      "midi": 55,
      "hit": false,
      "t": 209999.9125000007,
      "d": 224.05651041667443,
      "v": 127
    },
    {
      "midi": 57,
      "hit": false,
      "t": 210282.93125000072,
      "d": 212.26406250000582,
      "v": 127
    },
    {
      "midi": 57,
      "hit": false,
      "t": 210565.95000000074,
      "d": 306.6036458333256,
      "v": 127
    },
    {
      "midi": 53,
      "hit": false,
      "t": 210848.96875000073,
      "d": 235.84895833334303,
      "v": 127
    },
    {
      "midi": 55,
      "hit": false,
      "t": 211131.98750000075,
      "d": 212.26406250000582,
      "v": 127
    },
    {
      "midi": 57,
      "hit": false,
      "t": 211415.00625000076,
      "d": 271.22630208331975,
      "v": 127
    },
    {
      "midi": 53,
      "hit": false,
      "t": 211981.04375000074,
      "d": 165.0942708333314,
      "v": 127
    },
    {
      "midi": 55,
      "hit": false,
      "t": 212264.06250000073,
      "d": 117.92447916665697,
      "v": 127
    },
    {
      "midi": 48,
      "hit": false,
      "t": 212547.08125000072,
      "d": 129.71692708332557,
      "v": 127
    },
    {
      "midi": 57,
      "hit": false,
      "t": 212830.1000000007,
      "d": 283.01874999998836,
      "v": 127
    },
    {
      "midi": 60,
      "hit": false,
      "t": 212830.1000000007,
      "d": 542.4526041666686,
      "v": 127
    },
    {
      "midi": 65,
      "hit": false,
      "t": 212830.1000000007,
      "d": 566.0375000000058,
      "v": 127
    },
    {
      "midi": 50,
      "hit": false,
      "t": 212830.1000000007,
      "d": 2099.055729166692,
      "v": 127
    },
    {
      "midi": 57,
      "hit": false,
      "t": 213396.1375000007,
      "d": 129.71692708332557,
      "v": 127
    },
    {
      "midi": 57,
      "hit": false,
      "t": 213679.1562500007,
      "d": 200.4716145833372,
      "v": 127
    },
    {
      "midi": 60,
      "hit": false,
      "t": 213679.1562500007,
      "d": 224.05651041667443,
      "v": 127
    },
    {
      "midi": 65,
      "hit": false,
      "t": 213679.1562500007,
      "d": 224.05651041667443,
      "v": 127
    },
    {
      "midi": 60,
      "hit": false,
      "t": 214245.1937500007,
      "d": 200.4716145833372,
      "v": 127
    },
    {
      "midi": 57,
      "hit": false,
      "t": 214245.1937500007,
      "d": 212.26406250000582,
      "v": 127
    },
    {
      "midi": 67,
      "hit": false,
      "t": 214245.1937500007,
      "d": 247.64140625001164,
      "v": 127
    },
    {
      "midi": 57,
      "hit": false,
      "t": 215094.25000000073,
      "d": 389.1507812500058,
      "v": 127
    },
    {
      "midi": 65,
      "hit": false,
      "t": 215094.25000000073,
      "d": 507.0752604166628,
      "v": 127
    },
    {
      "midi": 60,
      "hit": false,
      "t": 215094.25000000073,
      "d": 518.8677083333314,
      "v": 127
    },
    {
      "midi": 50,
      "hit": false,
      "t": 215094.25000000073,
      "d": 1922.1690104166628,
      "v": 127
    },
    {
      "midi": 57,
      "hit": false,
      "t": 215660.28750000073,
      "d": 141.50937499999418,
      "v": 127
    },
    {
      "midi": 57,
      "hit": false,
      "t": 215943.30625000072,
      "d": 200.4716145833372,
      "v": 127
    },
    {
      "midi": 60,
      "hit": false,
      "t": 215943.30625000072,
      "d": 235.84895833334303,
      "v": 127
    },
    {
      "midi": 65,
      "hit": false,
      "t": 215943.30625000072,
      "d": 377.3583333333372,
      "v": 127
    },
    {
      "midi": 57,
      "hit": false,
      "t": 216509.34375000073,
      "d": 200.4716145833372,
      "v": 127
    },
    {
      "midi": 60,
      "hit": false,
      "t": 216509.34375000073,
      "d": 235.84895833334303,
      "v": 127
    },
    {
      "midi": 67,
      "hit": false,
      "t": 216509.34375000073,
      "d": 330.1885416666628,
      "v": 127
    },
    {
      "midi": 55,
      "hit": false,
      "t": 217358.40000000072,
      "d": 365.5658854166977,
      "v": 127
    },
    {
      "midi": 62,
      "hit": false,
      "t": 217358.40000000072,
      "d": 448.11302083337796,
      "v": 127
    },
    {
      "midi": 59,
      "hit": false,
      "t": 217358.40000000072,
      "d": 459.90546875004657,
      "v": 127
    },
    {
      "midi": 67,
      "hit": false,
      "t": 217358.40000000072,
      "d": 542.4526041667268,
      "v": 127
    },
    {
      "midi": 43,
      "hit": false,
      "t": 217358.40000000072,
      "d": 4339.6208333335235,
      "v": 127
    },
    {
      "midi": 62,
      "hit": false,
      "t": 218490.4750000008,
      "d": 330.1885416666628,
      "v": 127
    },
    {
      "midi": 67,
      "hit": false,
      "t": 218773.49375000078,
      "d": 459.90546875001746,
      "v": 127
    },
    {
      "midi": 62,
      "hit": false,
      "t": 219056.5125000008,
      "d": 106.13203124998836,
      "v": 127
    },
    {
      "midi": 71,
      "hit": false,
      "t": 219056.5125000008,
      "d": 200.4716145833372,
      "v": 127
    },
    {
      "midi": 62,
      "hit": false,
      "t": 219339.53125000081,
      "d": 212.26406250000582,
      "v": 127
    },
    {
      "midi": 72,
      "hit": false,
      "t": 219339.53125000081,
      "d": 224.05651041667443,
      "v": 127
    },
    {
      "midi": 67,
      "hit": false,
      "t": 219339.53125000081,
      "d": 235.84895833334303,
      "v": 127
    },
    {
      "midi": 62,
      "hit": false,
      "t": 219622.55000000083,
      "d": 153.3018229166628,
      "v": 127
    },
    {
      "midi": 71,
      "hit": false,
      "t": 219622.55000000083,
      "d": 235.84895833334303,
      "v": 127
    },
    {
      "midi": 55,
      "hit": false,
      "t": 219622.55000000083,
      "d": 1002.3580729166861,
      "v": 127
    },
    {
      "midi": 67,
      "hit": false,
      "t": 219905.56875000085,
      "d": 224.05651041667443,
      "v": 127
    },
    {
      "midi": 62,
      "hit": false,
      "t": 220188.58750000087,
      "d": 188.6791666666686,
      "v": 127
    },
    {
      "midi": 60,
      "hit": false,
      "t": 220471.60625000086,
      "d": 200.4716145833372,
      "v": 127
    },
    {
      "midi": 59,
      "hit": false,
      "t": 220754.62500000087,
      "d": 259.43385416668025,
      "v": 127
    },
    {
      "midi": 55,
      "hit": false,
      "t": 220754.62500000087,
      "d": 507.0752604166919,
      "v": 127
    },
    {
      "midi": 55,
      "hit": false,
      "t": 221320.6625000009,
      "d": 188.6791666666686,
      "v": 127
    },
    {
      "midi": 55,
      "hit": false,
      "t": 221886.7000000009,
      "d": 412.73567708331393,
      "v": 127
    },
    {
      "midi": 60,
      "hit": false,
      "t": 221886.7000000009,
      "d": 778.3015624999825,
      "v": 127
    },
    {
      "midi": 64,
      "hit": false,
      "t": 221886.7000000009,
      "d": 790.0940104166511,
      "v": 127
    },
    {
      "midi": 48,
      "hit": false,
      "t": 221886.7000000009,
      "d": 1332.5466145833198,
      "v": 127
    },
    {
      "midi": 55,
      "hit": false,
      "t": 222735.7562500009,
      "d": 271.22630208331975,
      "v": 127
    },
    {
      "midi": 67,
      "hit": false,
      "t": 223301.7937500009,
      "d": 176.88671875,
      "v": 127
    },
    {
      "midi": 64,
      "hit": false,
      "t": 223584.8125000009,
      "d": 247.64140625001164,
      "v": 127
    },
    {
      "midi": 55,
      "hit": false,
      "t": 224150.8500000009,
      "d": 483.49036458329647,
      "v": 127
    },
    {
      "midi": 59,
      "hit": false,
      "t": 224150.8500000009,
      "d": 707.5468749999709,
      "v": 127
    },
    {
      "midi": 64,
      "hit": false,
      "t": 224150.8500000009,
      "d": 719.3393229166395,
      "v": 127
    },
    {
      "midi": 52,
      "hit": false,
      "t": 224150.8500000009,
      "d": 990.5656249999593,
      "v": 127
    },
    {
      "midi": 40,
      "hit": false,
      "t": 224150.8500000009,
      "d": 1721.6973958333256,
      "v": 127
    },
    {
      "midi": 55,
      "hit": false,
      "t": 224999.90625000087,
      "d": 306.6036458333256,
      "v": 127
    },
    {
      "midi": 52,
      "hit": false,
      "t": 225282.92500000086,
      "d": 648.5846354167152,
      "v": 127
    },
    {
      "midi": 64,
      "hit": false,
      "t": 225565.94375000088,
      "d": 235.84895833334303,
      "v": 127
    },
    {
      "midi": 59,
      "hit": false,
      "t": 225565.94375000088,
      "d": 306.6036458333547,
      "v": 127
    },
    {
      "midi": 55,
      "hit": false,
      "t": 225848.9625000009,
      "d": 117.92447916668607,
      "v": 127
    },
    {
      "midi": 53,
      "hit": false,
      "t": 226415.0000000009,
      "d": 424.52812500001164,
      "v": 127
    },
    {
      "midi": 57,
      "hit": false,
      "t": 226415.0000000009,
      "d": 624.9997395833489,
      "v": 127
    },
    {
      "midi": 60,
      "hit": false,
      "t": 226415.0000000009,
      "d": 648.5846354166861,
      "v": 127
    },
    {
      "midi": 41,
      "hit": false,
      "t": 226415.0000000009,
      "d": 4316.035937500041,
      "v": 127
    },
    {
      "midi": 53,
      "hit": false,
      "t": 226981.0375000009,
      "d": 106.13203125001746,
      "v": 127
    },
    {
      "midi": 55,
      "hit": false,
      "t": 227264.05625000093,
      "d": 483.4903645833256,
      "v": 127
    },
    {
      "midi": 60,
      "hit": false,
      "t": 227264.05625000093,
      "d": 483.4903645833256,
      "v": 127
    },
    {
      "midi": 53,
      "hit": false,
      "t": 227830.09375000093,
      "d": 153.3018229166628,
      "v": 127
    },
    {
      "midi": 55,
      "hit": false,
      "t": 228113.11250000092,
      "d": 153.3018229166628,
      "v": 127
    },
    {
      "midi": 57,
      "hit": false,
      "t": 228396.1312500009,
      "d": 577.8299479166744,
      "v": 127
    },
    {
      "midi": 60,
      "hit": false,
      "t": 228396.1312500009,
      "d": 636.7921875000175,
      "v": 127
    },
    {
      "midi": 53,
      "hit": false,
      "t": 228962.1687500009,
      "d": 294.81119791668607,
      "v": 127
    },
    {
      "midi": 55,
      "hit": false,
      "t": 229245.18750000093,
      "d": 176.88671875,
      "v": 127
    },
    {
      "midi": 60,
      "hit": false,
      "t": 229528.20625000092,
      "d": 530.66015625,
      "v": 127
    },
    {
      "midi": 55,
      "hit": false,
      "t": 229528.20625000092,
      "d": 542.4526041666686,
      "v": 127
    },
    {
      "midi": 53,
      "hit": false,
      "t": 230094.24375000093,
      "d": 212.26406250000582,
      "v": 127
    },
    {
      "midi": 55,
      "hit": false,
      "t": 230377.26250000094,
      "d": 94.33958333331975,
      "v": 127
    },
    {
      "midi": 57,
      "hit": false,
      "t": 230943.30000000095,
      "d": 283.01875000001746,
      "v": 127
    },
    {
      "midi": 62,
      "hit": false,
      "t": 230943.30000000095,
      "d": 483.4903645833547,
      "v": 127
    },
    {
      "midi": 60,
      "hit": false,
      "t": 230943.30000000095,
      "d": 495.2828125000233,
      "v": 127
    },
    {
      "midi": 65,
      "hit": false,
      "t": 230943.30000000095,
      "d": 566.0375000000349,
      "v": 127
    },
    {
      "midi": 50,
      "hit": false,
      "t": 230943.30000000095,
      "d": 2028.3010416667094,
      "v": 127
    },
    {
      "midi": 57,
      "hit": false,
      "t": 231509.33750000098,
      "d": 165.0942708333314,
      "v": 127
    },
    {
      "midi": 57,
      "hit": false,
      "t": 231792.35625000097,
      "d": 141.50937499999418,
      "v": 127
    },
    {
      "midi": 62,
      "hit": false,
      "t": 231792.35625000097,
      "d": 353.7734375,
      "v": 127
    },
    {
      "midi": 57,
      "hit": false,
      "t": 232358.39375000098,
      "d": 188.6791666666686,
      "v": 127
    },
    {
      "midi": 62,
      "hit": false,
      "t": 232358.39375000098,
      "d": 200.4716145833372,
      "v": 127
    },
    {
      "midi": 65,
      "hit": false,
      "t": 232358.39375000098,
      "d": 224.05651041667443,
      "v": 127
    },
    {
      "midi": 55,
      "hit": false,
      "t": 233207.450000001,
      "d": 365.5658854166686,
      "v": 127
    },
    {
      "midi": 62,
      "hit": false,
      "t": 233207.450000001,
      "d": 530.66015625,
      "v": 127
    },
    {
      "midi": 59,
      "hit": false,
      "t": 233207.450000001,
      "d": 542.4526041666686,
      "v": 127
    },
    {
      "midi": 67,
      "hit": false,
      "t": 233207.450000001,
      "d": 554.2450520833372,
      "v": 127
    },
    {
      "midi": 43,
      "hit": false,
      "t": 233207.450000001,
      "d": 2087.2632812500524,
      "v": 127
    },
    {
      "midi": 55,
      "hit": false,
      "t": 233773.487500001,
      "d": 259.43385416668025,
      "v": 127
    },
    {
      "midi": 59,
      "hit": false,
      "t": 234056.50625000102,
      "d": 365.5658854166686,
      "v": 127
    },
    {
      "midi": 62,
      "hit": false,
      "t": 234622.54375000103,
      "d": 259.43385416668025,
      "v": 127
    },
    {
      "midi": 60,
      "hit": false,
      "t": 234905.56250000105,
      "d": 141.50937499999418,
      "v": 127
    },
    {
      "midi": 55,
      "hit": false,
      "t": 235471.60000000105,
      "d": 341.9809895833314,
      "v": 127
    },
    {
      "midi": 60,
      "hit": false,
      "t": 235471.60000000105,
      "d": 624.9997395833489,
      "v": 127
    },
    {
      "midi": 64,
      "hit": false,
      "t": 235471.60000000105,
      "d": 695.7544270833605,
      "v": 127
    },
    {
      "midi": 48,
      "hit": false,
      "t": 235471.60000000105,
      "d": 2122.640625000029,
      "v": 127
    },
    {
      "midi": 55,
      "hit": false,
      "t": 236603.6750000011,
      "d": 259.43385416668025,
      "v": 127
    },
    {
      "midi": 60,
      "hit": false,
      "t": 236886.6937500011,
      "d": 436.32057291665114,
      "v": 127
    },
    {
      "midi": 64,
      "hit": false,
      "t": 237169.7125000011,
      "d": 247.64140624998254,
      "v": 127
    },
    {
      "midi": 67,
      "hit": false,
      "t": 237452.7312500011,
      "d": 318.3960937499942,
      "v": 127
    },
    {
      "midi": 48,
      "hit": false,
      "t": 237735.75000000108,
      "d": 1910.3765625000524,
      "v": 127
    },
    {
      "midi": 55,
      "hit": false,
      "t": 238018.7687500011,
      "d": 200.4716145833372,
      "v": 127
    },
    {
      "midi": 60,
      "hit": false,
      "t": 238301.7875000011,
      "d": 188.6791666666686,
      "v": 127
    },
    {
      "midi": 62,
      "hit": false,
      "t": 238584.8062500011,
      "d": 389.1507812500058,
      "v": 127
    },
    {
      "midi": 64,
      "hit": false,
      "t": 239150.8437500011,
      "d": 259.43385416668025,
      "v": 127
    },
    {
      "midi": 48,
      "hit": false,
      "t": 239716.88125000114,
      "d": 224.05651041667443,
      "v": 127
    },
    {
      "midi": 57,
      "hit": false,
      "t": 239999.90000000116,
      "d": 23.584895833337214,
      "v": 127
    },
    {
      "midi": 60,
      "hit": false,
      "t": 239999.90000000116,
      "d": 495.2828124999942,
      "v": 127
    },
    {
      "midi": 62,
      "hit": false,
      "t": 239999.90000000116,
      "d": 495.2828124999942,
      "v": 127
    },
    {
      "midi": 65,
      "hit": false,
      "t": 239999.90000000116,
      "d": 566.0375000000058,
      "v": 127
    },
    {
      "midi": 50,
      "hit": false,
      "t": 239999.90000000116,
      "d": 1768.8671875,
      "v": 127
    },
    {
      "midi": 57,
      "hit": false,
      "t": 240565.93750000116,
      "d": 353.7734375,
      "v": 127
    },
    {
      "midi": 60,
      "hit": false,
      "t": 240848.95625000115,
      "d": 259.43385416668025,
      "v": 127
    },
    {
      "midi": 62,
      "hit": false,
      "t": 241414.99375000116,
      "d": 224.05651041667443,
      "v": 127
    },
    {
      "midi": 65,
      "hit": false,
      "t": 241414.99375000116,
      "d": 259.43385416668025,
      "v": 127
    },
    {
      "midi": 50,
      "hit": false,
      "t": 241981.03125000116,
      "d": 306.6036458333256,
      "v": 127
    },
    {
      "midi": 55,
      "hit": false,
      "t": 242264.05000000115,
      "d": 330.1885416666919,
      "v": 127
    },
    {
      "midi": 62,
      "hit": false,
      "t": 242264.05000000115,
      "d": 530.66015625,
      "v": 127
    },
    {
      "midi": 59,
      "hit": false,
      "t": 242264.05000000115,
      "d": 542.4526041666686,
      "v": 127
    },
    {
      "midi": 67,
      "hit": false,
      "t": 242264.05000000115,
      "d": 554.2450520833372,
      "v": 127
    },
    {
      "midi": 43,
      "hit": false,
      "t": 242264.05000000115,
      "d": 2146.225520833337,
      "v": 127
    },
    {
      "midi": 55,
      "hit": false,
      "t": 242830.08750000116,
      "d": 294.81119791665697,
      "v": 127
    },
    {
      "midi": 59,
      "hit": false,
      "t": 243113.10625000115,
      "d": 495.2828124999942,
      "v": 127
    },
    {
      "midi": 59,
      "hit": false,
      "t": 243679.14375000115,
      "d": 35.37734375000582,
      "v": 127
    },
    {
      "midi": 62,
      "hit": false,
      "t": 243679.14375000115,
      "d": 283.01875000001746,
      "v": 127
    },
    {
      "midi": 55,
      "hit": false,
      "t": 243962.16250000117,
      "d": 353.7734375,
      "v": 127
    },
    {
      "midi": 60,
      "hit": false,
      "t": 244528.20000000115,
      "d": 742.9242187499767,
      "v": 127
    },
    {
      "midi": 64,
      "hit": false,
      "t": 244528.20000000115,
      "d": 966.9807291666511,
      "v": 127
    },
    {
      "midi": 48,
      "hit": false,
      "t": 244528.20000000115,
      "d": 1615.565364583308,
      "v": 127
    },
    {
      "midi": 55,
      "hit": false,
      "t": 245660.27500000113,
      "d": 165.0942708333314,
      "v": 127
    },
    {
      "midi": 60,
      "hit": false,
      "t": 245943.29375000112,
      "d": 247.64140625001164,
      "v": 127
    },
    {
      "midi": 62,
      "hit": false,
      "t": 246226.31250000114,
      "d": 224.05651041667443,
      "v": 127
    },
    {
      "midi": 64,
      "hit": false,
      "t": 246509.33125000115,
      "d": 141.50937499999418,
      "v": 127
    },
    {
      "midi": 55,
      "hit": false,
      "t": 246792.35000000114,
      "d": 719.3393229166686,
      "v": 127
    },
    {
      "midi": 59,
      "hit": false,
      "t": 246792.35000000114,
      "d": 731.1317708333372,
      "v": 127
    },
    {
      "midi": 67,
      "hit": false,
      "t": 246792.35000000114,
      "d": 790.0940104166802,
      "v": 127
    },
    {
      "midi": 40,
      "hit": false,
      "t": 246792.35000000114,
      "d": 1816.0369791666453,
      "v": 127
    },
    {
      "midi": 52,
      "hit": false,
      "t": 246792.35000000114,
      "d": 1839.6218749999825,
      "v": 127
    },
    {
      "midi": 64,
      "hit": false,
      "t": 248207.44375000114,
      "d": 306.6036458333256,
      "v": 127
    },
    {
      "midi": 59,
      "hit": false,
      "t": 248490.46250000113,
      "d": 247.64140624998254,
      "v": 127
    },
    {
      "midi": 55,
      "hit": false,
      "t": 248773.48125000112,
      "d": 58.962239583343035,
      "v": 127
    },
    {
      "midi": 60,
      "hit": false,
      "t": 249056.50000000114,
      "d": 790.0940104166511,
      "v": 127
    },
    {
      "midi": 57,
      "hit": false,
      "t": 249056.50000000114,
      "d": 801.8864583333198,
      "v": 127
    },
    {
      "midi": 41,
      "hit": false,
      "t": 249056.50000000114,
      "d": 2063.678385416686,
      "v": 127
    },
    {
      "midi": 53,
      "hit": false,
      "t": 249905.55625000113,
      "d": 306.6036458333256,
      "v": 127
    },
    {
      "midi": 55,
      "hit": false,
      "t": 250471.59375000114,
      "d": 259.43385416668025,
      "v": 127
    },
    {
      "midi": 60,
      "hit": false,
      "t": 250471.59375000114,
      "d": 283.01875000001746,
      "v": 127
    },
    {
      "midi": 53,
      "hit": false,
      "t": 250754.61250000115,
      "d": 117.92447916665697,
      "v": 127
    },
    {
      "midi": 62,
      "hit": false,
      "t": 251320.65000000116,
      "d": 518.8677083333605,
      "v": 127
    },
    {
      "midi": 59,
      "hit": false,
      "t": 251320.65000000116,
      "d": 577.8299479167035,
      "v": 127
    },
    {
      "midi": 43,
      "hit": false,
      "t": 251320.65000000116,
      "d": 1709.9049479167443,
      "v": 127
    },
    {
      "midi": 55,
      "hit": false,
      "t": 251886.6875000012,
      "d": 200.4716145833372,
      "v": 127
    },
    {
      "midi": 67,
      "hit": false,
      "t": 252169.7062500012,
      "d": 436.32057291668025,
      "v": 127
    },
    {
      "midi": 62,
      "hit": false,
      "t": 252735.74375000122,
      "d": 224.05651041667443,
      "v": 127
    },
    {
      "midi": 59,
      "hit": false,
      "t": 253018.76250000123,
      "d": 153.3018229166628,
      "v": 127
    },
    {
      "midi": 55,
      "hit": false,
      "t": 253584.80000000124,
      "d": 424.52812500001164,
      "v": 127
    },
    {
      "midi": 60,
      "hit": false,
      "t": 253584.80000000124,
      "d": 589.622395833343,
      "v": 127
    },
    {
      "midi": 64,
      "hit": false,
      "t": 253584.80000000124,
      "d": 648.5846354166861,
      "v": 127
    },
    {
      "midi": 48,
      "hit": false,
      "t": 253584.80000000124,
      "d": 1509.4333333333489,
      "v": 127
    },
    {
      "midi": 55,
      "hit": false,
      "t": 254150.83750000125,
      "d": 235.84895833334303,
      "v": 127
    },
    {
      "midi": 60,
      "hit": false,
      "t": 254716.87500000125,
      "d": 530.66015625,
      "v": 127
    },
    {
      "midi": 67,
      "hit": false,
      "t": 254716.87500000125,
      "d": 613.2072916666802,
      "v": 127
    },
    {
      "midi": 55,
      "hit": false,
      "t": 255282.91250000126,
      "d": 224.05651041667443,
      "v": 127
    },
    {
      "midi": 55,
      "hit": false,
      "t": 255848.95000000126,
      "d": 318.3960937499942,
      "v": 127
    },
    {
      "midi": 59,
      "hit": false,
      "t": 255848.95000000126,
      "d": 530.66015625,
      "v": 127
    },
    {
      "midi": 64,
      "hit": false,
      "t": 255848.95000000126,
      "d": 530.66015625,
      "v": 127
    },
    {
      "midi": 40,
      "hit": false,
      "t": 255848.95000000126,
      "d": 1757.0747395833605,
      "v": 127
    },
    {
      "midi": 52,
      "hit": false,
      "t": 255848.95000000126,
      "d": 1780.6596354166977,
      "v": 127
    },
    {
      "midi": 55,
      "hit": false,
      "t": 256414.98750000127,
      "d": 129.71692708332557,
      "v": 127
    },
    {
      "midi": 59,
      "hit": false,
      "t": 256698.00625000126,
      "d": 70.75468750001164,
      "v": 127
    },
    {
      "midi": 67,
      "hit": false,
      "t": 256698.00625000126,
      "d": 353.7734375,
      "v": 127
    },
    {
      "midi": 64,
      "hit": false,
      "t": 257264.04375000126,
      "d": 235.84895833334303,
      "v": 127
    },
    {
      "midi": 59,
      "hit": false,
      "t": 257547.06250000128,
      "d": 117.92447916668607,
      "v": 127
    },
    {
      "midi": 53,
      "hit": false,
      "t": 258113.1000000013,
      "d": 1073.1127604166686,
      "v": 127
    },
    {
      "midi": 57,
      "hit": false,
      "t": 258113.1000000013,
      "d": 1533.018229166657,
      "v": 127
    },
    {
      "midi": 60,
      "hit": false,
      "t": 258113.1000000013,
      "d": 1544.8106770833256,
      "v": 127
    },
    {
      "midi": 41,
      "hit": false,
      "t": 258113.1000000013,
      "d": 2169.8104166666453,
      "v": 127
    },
    {
      "midi": 53,
      "hit": false,
      "t": 259811.21250000127,
      "d": 330.1885416666628,
      "v": 127
    },
    {
      "midi": 55,
      "hit": false,
      "t": 260094.23125000126,
      "d": 153.3018229166628,
      "v": 127
    },
    {
      "midi": 55,
      "hit": false,
      "t": 260377.25000000125,
      "d": 47.16979166667443,
      "v": 127
    },
    {
      "midi": 53,
      "hit": false,
      "t": 260377.25000000125,
      "d": 978.7731770833198,
      "v": 127
    },
    {
      "midi": 59,
      "hit": false,
      "t": 260377.25000000125,
      "d": 1603.7729166666686,
      "v": 127
    },
    {
      "midi": 43,
      "hit": false,
      "t": 260377.25000000125,
      "d": 1639.1502604166744,
      "v": 127
    },
    {
      "midi": 53,
      "hit": false,
      "t": 261509.32500000123,
      "d": 389.1507812500058,
      "v": 127
    },
    {
      "midi": 62,
      "hit": false,
      "t": 261509.32500000123,
      "d": 471.69791666668607,
      "v": 127
    },
    {
      "midi": 55,
      "hit": false,
      "t": 262641.40000000125,
      "d": 1886.791666666686,
      "v": 127
    },
    {
      "midi": 36,
      "hit": false,
      "t": 262641.40000000125,
      "d": 1945.75390625,
      "v": 127
    },
    {
      "midi": 48,
      "hit": false,
      "t": 262641.40000000125,
      "d": 1957.5463541666395,
      "v": 127
    },
    {
      "midi": 60,
      "hit": false,
      "t": 262641.40000000125,
      "d": 1957.5463541666395,
      "v": 127
    },
    {
      "midi": 64,
      "hit": false,
      "t": 262641.40000000125,
      "d": 1969.338802083279,
      "v": 127
    },
    {
      "midi": 67,
      "hit": false,
      "t": 262641.40000000125,
      "d": 2004.7161458332557,
      "v": 127
    }
  ]
}